<?xml version="1.0" standalone="no"?>
<!DOCTYPE svg PUBLIC "-//W3C//DTD SVG 1.1//EN" "http://www.w3.org/Graphics/SVG/1.1/DTD/svg11.dtd" >
<svg version="1.1" xmlns="http://www.w3.org/2000/svg">
<metadata>
Created by FontForge 20120731 at Fri Aug  1 16:50:16 2014

Copyright (c) Mark Simonson 2009-2010. All rights reserved.
</metadata>
<defs>
<font id="anonymouspro" horiz-adv-x="1118" >
  <font-face 
    font-family="Anonymous Pro"
    font-weight="400"
    font-stretch="normal"
    units-per-em="2048"
    panose-1="2 6 6 9 3 2 2 0 5 4"
    ascent="1675"
    descent="-373"
    x-height="932"
    cap-height="1305"
    bbox="-165 -395 1147 1854"
    underline-thickness="123"
    underline-position="-126"
    unicode-range="U+000D-FB02"
  />
<missing-glyph 
d="M883 0h-834v1305h834v-1305zM186 117h559v1071h-559v-1071z" />
    <glyph glyph-name=".notdef" 
d="M883 0h-834v1305h834v-1305zM186 117h559v1071h-559v-1071z" />
    <glyph glyph-name=".null" 
 />
    <glyph glyph-name=".null" 
 />
    <glyph glyph-name="nonmarkingreturn" unicode="&#xd;" 
 />
    <glyph glyph-name="space" unicode=" " 
 />
    <glyph glyph-name="exclam" unicode="!" 
d="M557 1305l-51 -938h-82l-51 938h184zM559 0h-186v186h186v-186z" />
    <glyph glyph-name="quotedbl" unicode="&#x22;" 
d="M745 1305l-40 -465h-103l-43 465h186zM373 1305l-43 -465h-101l-43 465h187z" />
    <glyph glyph-name="numbersign" unicode="#" 
d="M932 222h-221v-221h-117v221h-256v-221h-117v221h-221v110h221v264h-221v109h221v228h117v-228h256v228h117v-228h221v-109h-221v-264h221v-110zM594 332v264h-256v-264h256z" />
    <glyph glyph-name="dollar" unicode="$" 
d="M397 -16q-84 10 -152.5 41.5t-118.5 79t-82 108.5t-44 129l129 33q23 -101 87.5 -175.5t180.5 -95.5v527q-84 31 -149.5 63.5t-111.5 74.5t-69.5 96.5t-23.5 127.5q0 64 24.5 120t69.5 101.5t110.5 74t149.5 38.5v164h138v-164q75 -10 138.5 -44t109.5 -83t74 -108.5
t34 -120.5l-143 -25q-13 88 -65 161t-148 93v-471q182 -67 273 -154.5t91 -234.5q0 -68 -24.5 -128t-71.5 -107.5t-114.5 -80t-153.5 -40.5v-170h-138v170zM750 328q0 86 -54.5 146.5t-160.5 107.5v-478q116 17 164.5 79.5t50.5 144.5zM184 995q0 -77 57.5 -128.5
t155.5 -90.5v426q-55 -8 -96 -29.5t-66.5 -50t-38 -61.5t-12.5 -66z" />
    <glyph glyph-name="percent" unicode="%" 
d="M481 1073q0 -51 -19.5 -97t-54 -80t-80.5 -54.5t-98 -20.5q-51 0 -97 20.5t-80 54.5t-53 80t-19 97t19 98.5t53 81t80 54t97 20.5q52 0 98 -20.5t80.5 -54t54 -81t19.5 -98.5zM932 1272l-836 -1299l-94 60l838 1302zM961 229q0 -53 -20.5 -98t-54.5 -80t-81 -54.5
t-98 -19.5q-52 0 -98 19.5t-79.5 53.5t-54 80t-20.5 99q0 52 20.5 98t54 79.5t79.5 53t98 19.5q51 0 97 -19.5t81 -53t55.5 -79.5t20.5 -98zM379 1073q0 64 -43 108t-107 44q-63 0 -106 -44t-43 -108q0 -63 43 -107t106 -44q64 0 107 44t43 107zM858 229q0 64 -44 107
t-107 43q-64 0 -107 -43t-43 -107q0 -63 43 -107t107 -44q63 0 107 44t44 107z" />
    <glyph glyph-name="ampersand" unicode="&#x26;" 
d="M956 565q-18 -86 -58 -173t-99 -165l157 -147l-94 -107l-157 154q-74 -66 -164 -108t-195 -42q-76 0 -143.5 28t-117.5 76t-80 112.5t-30 140.5q0 63 13.5 115.5t37 94.5t55.5 75.5t69 62.5q-62 78 -96 154.5t-34 154.5q0 154 89.5 245t238.5 91q68 0 127.5 -20.5
t103.5 -58.5t68.5 -92t24.5 -124q0 -78 -31 -133t-78 -97t-106.5 -76t-116.5 -71l360 -338q48 66 78.5 138.5t46.5 142.5zM346 109q78 0 145.5 29.5t120.5 78.5l-344 336l-30 29q-52 -45 -83.5 -103.5t-31.5 -144.5q0 -96 62.5 -160.5t160.5 -64.5zM162 991
q0 -47 17.5 -106.5t74.5 -134.5q51 30 101.5 59t89 61.5t62 72.5t23.5 93q0 78 -52 123t-130 45q-43 0 -77.5 -17.5t-59.5 -47t-37 -68.5t-12 -80z" />
    <glyph glyph-name="quotesingle" unicode="'" 
d="M559 1305l-43 -469h-102l-41 469h186z" />
    <glyph glyph-name="parenleft" unicode="(" 
d="M633 -371q-107 84 -190 190.5t-139 227.5t-86 253t-30 267t30 266.5t86 252t139 227t190 190.5l72 -90q-95 -76 -169.5 -172t-126 -205.5t-78 -228.5t-26.5 -240q0 -123 26.5 -241.5t78 -227t125 -206t170.5 -173.5z" />
    <glyph glyph-name="parenright" unicode=")" 
d="M748 565q0 -135 -30 -266t-87.5 -252t-140 -227.5t-189.5 -190.5l-72 90q95 76 169.5 172.5t127 206t79 228t26.5 239.5t-26.5 241t-79 229.5t-127 205.5t-169.5 172l72 90q107 -84 189.5 -190.5t140 -227t87.5 -253t30 -267.5z" />
    <glyph glyph-name="asterisk" unicode="*" 
d="M897 652l-342 -184l342 -189l-55 -94l-332 203l14 -387h-116l14 387l-332 -203l-55 94l342 189l-342 184l55 96l332 -205l-14 390h116l-14 -390l332 205z" />
    <glyph glyph-name="plus" unicode="+" 
d="M932 420h-408v-407h-116v407h-408v117h408v407h116v-407h408v-117z" />
    <glyph glyph-name="comma" unicode="," 
d="M610 186l-274 -559h-96l186 559h184z" />
    <glyph glyph-name="hyphen" unicode="-" 
d="M932 420h-932v117h932v-117z" />
    <glyph glyph-name="period" unicode="." 
d="M559 0h-186v186h186v-186z" />
    <glyph glyph-name="slash" unicode="/" 
d="M905 1303l-766 -1543l-98 52l766 1542z" />
    <glyph glyph-name="zero" unicode="0" 
d="M104 651q0 -145 35 -272l611 645q-48 90 -118.5 138t-164.5 48q-176 0 -269.5 -149.5t-93.5 -409.5zM186 268q99 -176 281 -176q172 0 267 149.5t95 409.5q0 72 -9 136.5t-25 123.5zM-33 651q0 131 28 253t87 216t154.5 150.5t230.5 56.5t230.5 -56.5t155.5 -150.5
t87 -216t27 -253t-27 -253t-86 -215t-154.5 -149.5t-232.5 -56.5t-232.5 56.5t-155 149.5t-86 215t-26.5 253z" />
    <glyph glyph-name="one" unicode="1" 
d="M745 0h-559v117h211v891q-18 -41 -57 -87.5t-92 -85t-116.5 -64.5t-131.5 -26v142q61 0 131 38t129 97t98 134t39 149h138v-1188h210v-117z" />
    <glyph glyph-name="two" unicode="2" 
d="M883 967q0 -54 -9.5 -97t-34 -87t-64.5 -93t-101 -112l-455 -461h551v256h117v-373h-848v121l508 516q39 39 74.5 78t63.5 79t44 83t16 90q0 120 -79.5 181.5t-196.5 61.5q-164 0 -248 -91t-84 -263h-127q0 221 118 346t341 125q84 0 158.5 -24.5t132 -70.5t90.5 -112.5
t33 -152.5z" />
    <glyph glyph-name="three" unicode="3" 
d="M920 360q0 -86 -35 -156.5t-93.5 -120.5t-135 -78t-160.5 -28q-95 0 -176.5 26t-144 76t-101.5 126t-47 174l133 18q12 -151 105 -227t231 -76q59 0 111 19.5t91 55.5t61.5 84t22.5 107q0 80 -25.5 130.5t-73.5 79t-118.5 38.5t-163.5 10v117q68 0 131.5 11.5t113.5 38
t81 70.5t31 112q0 110 -73 176.5t-189 66.5q-146 0 -234 -76.5t-88 -240.5h-129q0 102 33 183t92 136.5t142 85t184 29.5q84 0 156.5 -24.5t127 -70.5t85 -112.5t30.5 -152.5q0 -111 -66.5 -184.5t-189.5 -92.5q70 -10 122 -39.5t87 -75t53.5 -100.5t18.5 -115z" />
    <glyph glyph-name="four" unicode="4" 
d="M932 0h-559v117h211v256h-584v119l547 813h174v-813h211v-119h-211v-256h211v-117zM584 492v651l-439 -651h439z" />
    <glyph glyph-name="five" unicode="5" 
d="M938 438q0 -96 -36 -180t-98.5 -146.5t-150.5 -98.5t-192 -36q-94 0 -174 28t-140.5 80t-97.5 128t-45 174l133 21q6 -68 32 -126.5t68 -99.5t99 -64.5t125 -23.5q80 0 142.5 26.5t106.5 74t67.5 110t23.5 133.5q0 74 -23.5 137.5t-66.5 109.5t-105.5 72.5t-138.5 26.5
q-80 0 -153.5 -33.5t-127.5 -97.5h-137v652h817v-117h-680v-408q60 58 136.5 89.5t156.5 31.5q101 0 185 -32.5t145 -92t95 -145.5t34 -193z" />
    <glyph glyph-name="six" unicode="6" 
d="M958 444q0 -108 -35.5 -194t-99 -146.5t-150.5 -93.5t-188 -33q-139 0 -233 56.5t-151.5 149.5t-83 215t-25.5 253q0 133 34.5 255t103.5 216.5t172.5 149.5t242.5 55q194 0 323 -135l-90 -80q-90 98 -233 98q-105 0 -185.5 -40t-134 -111.5t-80 -172t-26.5 -220.5
q14 51 53 96t90 77.5t110.5 52t119.5 19.5q102 0 188 -34.5t147.5 -96t96 -147.5t34.5 -189zM821 444q0 74 -22.5 138.5t-64.5 111.5t-103.5 74t-138.5 27q-76 0 -139.5 -25t-108.5 -70t-69.5 -106.5t-24.5 -136.5q0 -74 20 -139.5t62 -115.5t104.5 -79t148.5 -29
q74 0 135.5 24.5t106.5 69.5t69.5 111t24.5 145z" />
    <glyph glyph-name="seven" unicode="7" 
d="M920 1184q-123 -133 -197 -262t-114 -269.5t-54 -300t-16 -352.5h-144q2 182 19.5 343t61.5 307.5t120 279.5t192 258h-622v-256h-117v373h871v-121z" />
    <glyph glyph-name="eight" unicode="8" 
d="M942 367q0 -103 -37 -175.5t-101.5 -120.5t-151.5 -71t-185 -23q-100 0 -186 23t-150.5 71t-101.5 120.5t-37 175.5q0 53 19.5 107t56 100.5t89 77t115.5 38.5q-55 6 -98 36t-72.5 70t-46 87t-16.5 90q0 88 35 154.5t94 110.5t137 66.5t162 22.5t162 -22.5t137 -66.5
t94 -110.5t35 -154.5q0 -43 -16.5 -90t-46 -87t-73.5 -70t-100 -36q64 -8 116 -38.5t89 -77t57.5 -100.5t20.5 -107zM758 973q0 110 -78 173.5t-213 63.5t-213 -63.5t-78 -173.5q0 -103 74 -164t217 -61t217 61t74 164zM805 367q0 71 -27.5 121.5t-75 82t-107.5 46
t-128 14.5t-128 -14.5t-107.5 -46t-75 -82t-27.5 -121.5q0 -70 27.5 -121t75 -85t107.5 -50.5t128 -16.5t128 16.5t107.5 50.5t75 85t27.5 121z" />
    <glyph glyph-name="nine" unicode="9" 
d="M-23 860q0 109 36 195t99.5 146.5t150.5 93t188 32.5q137 0 232 -56.5t152.5 -150.5t83 -215t25.5 -252q0 -133 -35 -255t-103.5 -216t-173 -149.5t-241.5 -55.5q-194 0 -323 136l90 80q45 -50 104.5 -74.5t128.5 -24.5q105 0 184.5 40t134 111.5t81 172t26.5 221.5
q-16 -51 -54 -96t-89 -78t-111.5 -52.5t-118.5 -19.5q-102 0 -188 35t-147.5 96.5t-96.5 147.5t-35 188zM115 860q0 -74 22.5 -138.5t64.5 -111.5t103.5 -73.5t138.5 -26.5q76 0 139.5 24.5t108.5 68.5t69.5 106.5t24.5 138.5q0 74 -20.5 139.5t-62 115.5t-104 78.5
t-148.5 28.5q-74 0 -135.5 -24.5t-106.5 -69.5t-69.5 -110.5t-24.5 -145.5z" />
    <glyph glyph-name="colon" unicode=":" 
d="M559 745h-186v187h186v-187zM559 0h-186v186h186v-186z" />
    <glyph glyph-name="semicolon" unicode=";" 
d="M559 745h-186v187h186v-187zM610 186l-274 -559h-96l186 559h184z" />
    <glyph glyph-name="less" unicode="&#x3c;" 
d="M788 45l-77 -79l-512 512l512 512l77 -80l-432 -432z" />
    <glyph glyph-name="equal" unicode="=" 
d="M932 639h-932v119h932v-119zM932 199h-932v117h932v-117z" />
    <glyph glyph-name="greater" unicode="&#x3e;" 
d="M733 478l-512 -512l-78 79l432 433l-432 432l78 80z" />
    <glyph glyph-name="question" unicode="?" 
d="M559 0h-186v186h186v-186zM909 1022q0 -78 -28.5 -136.5t-71.5 -107.5t-94 -92t-94 -89t-72 -100.5t-29 -123.5h-145q0 78 29.5 139t72.5 114.5t95.5 100.5t95.5 93t72.5 95.5t29.5 106.5q0 88 -54 138t-157 50q-63 0 -110.5 -20.5t-80 -55t-52 -82.5t-25.5 -106l-123 19
q18 168 115.5 265t273.5 97q166 0 259 -85t93 -220z" />
    <glyph glyph-name="at" unicode="@" 
d="M967 684q0 -68 -11 -138t-38 -126.5t-72 -92.5t-112 -36q-29 0 -56 10t-48 29t-33.5 44.5t-12.5 57.5v28q-22 -75 -69 -122t-109 -47q-66 0 -110 29t-70.5 77t-37.5 109t-11 125q0 74 17 141.5t51 119t84.5 82t117.5 30.5q35 0 74 -17.5t63 -54.5v53h131v-525
q0 -32 12 -46t35 -14q28 0 48 27t32 68.5t17.5 91.5t5.5 97q0 69 -8.5 137.5t-28 130t-50.5 114t-75.5 91t-103 60t-132.5 21.5q-113 0 -189 -48t-122.5 -129t-66.5 -187t-20 -223q0 -115 20 -220.5t66.5 -186.5t123 -129t188.5 -48q82 0 147 29t118 78l59 -68
q-128 -129 -324 -129q-92 0 -164.5 25.5t-128 71.5t-95 109t-64.5 138t-36.5 159t-11.5 171q0 89 12 173.5t37 159.5t64.5 138t95.5 108.5t128 71t163 25.5q135 0 230.5 -55.5t155.5 -146.5t87 -206t27 -235zM584 808q-23 49 -54.5 68.5t-69.5 19.5t-65.5 -22.5t-45.5 -60
t-26.5 -85t-8.5 -96.5q0 -109 28.5 -164t80.5 -55q37 0 67 22.5t51 59t32 82t11 90.5v141z" />
    <glyph glyph-name="A" unicode="A" 
d="M995 0h-147l-123 373h-516l-121 -373h-147l434 1305h186zM686 494l-219 673l-219 -673h438z" />
    <glyph glyph-name="B" unicode="B" 
d="M930 373q0 -187 -121 -280t-344 -93h-416v1305h393q82 0 161 -13.5t141.5 -50.5t101.5 -102.5t39 -171.5q0 -203 -203 -277q248 -76 248 -317zM748 967q0 69 -29 113t-74 67.5t-99 32t-104 8.5h-256v-443h256q56 0 110 8.5t97 33t71 67.5t28 113zM793 373
q0 135 -87.5 196.5t-240.5 61.5h-279v-514h279q153 0 240.5 64.5t87.5 191.5z" />
    <glyph glyph-name="C" unicode="C" 
d="M940 342q-51 -168 -167 -266.5t-292 -98.5q-137 0 -232 56.5t-155.5 149.5t-87 215t-26.5 253t26.5 253t87 216t155.5 150.5t232 56.5q121 0 207 -43t127 -131v152h117v-428h-117q0 69 -26.5 130.5t-71.5 106.5t-106.5 70.5t-129.5 25.5q-106 0 -175.5 -50t-111.5 -131
t-59.5 -180t-17.5 -198q0 -98 17.5 -197.5t59.5 -179t111.5 -130t175.5 -50.5q244 0 340 295z" />
    <glyph glyph-name="D" unicode="D" 
d="M975 651q0 -131 -27.5 -249.5t-88 -208t-156 -141.5t-230.5 -52h-424v1305h424q133 0 228.5 -53.5t156 -143.5t89 -208t28.5 -249zM838 651q0 256 -96.5 396.5t-268.5 140.5h-287v-1071h287q172 0 268.5 139t96.5 395z" />
    <glyph glyph-name="E" unicode="E" 
d="M883 0h-834v1305h834v-117h-697v-467h514v-117h-514v-487h697v-117z" />
    <glyph glyph-name="F" unicode="F" 
d="M883 1188h-697v-467h514v-117h-514v-604h-137v1305h834v-117z" />
    <glyph glyph-name="G" unicode="G" 
d="M983 649q0 -133 -27.5 -254t-88 -214t-156 -148.5t-230.5 -55.5q-137 0 -232 56.5t-155.5 149.5t-87 215t-26.5 253t26.5 253t87 216t155.5 150.5t232 56.5q121 0 207 -43t127 -131v152h117v-428h-117q0 71 -26.5 132.5t-71.5 105.5t-106.5 69.5t-129.5 25.5
q-106 0 -175.5 -50t-111.5 -131t-59.5 -180t-17.5 -198q0 -98 17.5 -197.5t59.5 -179t111.5 -130t175.5 -50.5q158 0 249 122t108 343h-289v117h434v-27z" />
    <glyph glyph-name="H" unicode="H" 
d="M883 0h-138v604h-559v-604h-137v1305h137v-584h559v584h138v-1305z" />
    <glyph glyph-name="I" unicode="I" 
d="M745 0h-559v117h211v1071h-211v117h559v-117h-210v-1071h210v-117z" />
    <glyph glyph-name="J" unicode="J" 
d="M883 498q0 -248 -105.5 -384.5t-322.5 -136.5q-174 0 -292 91.5t-165 273.5l119 45q43 -162 128 -227.5t210 -65.5q92 0 149.5 37t88 94.5t41.5 129t11 143.5v807h138v-807z" />
    <glyph glyph-name="K" unicode="K" 
d="M926 0h-168l-434 639l-138 -154v-485h-137v1305h137v-635l559 635h181l-512 -570z" />
    <glyph glyph-name="L" unicode="L" 
d="M883 0h-834v1305h137v-1188h697v-117z" />
    <glyph glyph-name="M" unicode="M" 
d="M883 0h-138v1087l-231 -673h-98l-230 673v-1087h-137v1305h178l238 -682l240 682h178v-1305z" />
    <glyph glyph-name="N" unicode="N" 
d="M883 0h-170l-527 1104v-1104h-137v1305h193l503 -1053v1053h138v-1305z" />
    <glyph glyph-name="O" unicode="O" 
d="M967 651q0 -131 -27 -253t-86 -215t-154.5 -149.5t-232.5 -56.5t-232.5 56.5t-155 149.5t-86 215t-26.5 253t26.5 253t87 216t156 150.5t230.5 56.5t230.5 -56.5t154.5 -150.5t87 -216t28 -253zM829 651q0 129 -24.5 232.5t-70.5 176.5t-113.5 111.5t-153.5 38.5
q-107 0 -176.5 -50t-111.5 -131t-58.5 -180t-16.5 -198q0 -98 16.5 -197.5t58.5 -179t111.5 -130t176.5 -50.5q106 0 176 50.5t112 130t58 179t16 197.5z" />
    <glyph glyph-name="P" unicode="P" 
d="M930 932q0 -189 -118 -281t-331 -92h-295v-559h-137v1305h430q215 0 333 -93.5t118 -279.5zM793 932q0 135 -85 195.5t-227 60.5h-295v-512h295q142 0 227 60.5t85 195.5z" />
    <glyph glyph-name="Q" unicode="Q" 
d="M967 651q0 -125 -23.5 -240.5t-76 -206.5t-136.5 -150.5t-203 -71.5q23 -134 92.5 -185t204.5 -51q35 0 59.5 1t47.5 3v-117q-29 -2 -55.5 -3t-51.5 -1q-204 0 -307.5 87t-126.5 268q-110 14 -191 71.5t-132.5 146.5t-76 204.5t-24.5 244.5q0 131 26.5 253t87 216
t156 150.5t230.5 56.5t230.5 -56.5t154.5 -150.5t87 -216t28 -253zM829 651q0 99 -17 198t-58 180t-112 131t-175 50q-107 0 -176.5 -50t-111.5 -131t-58.5 -180t-16.5 -198q0 -260 94.5 -408.5t268.5 -148.5q172 0 267 148.5t95 408.5z" />
    <glyph glyph-name="R" unicode="R" 
d="M944 0h-174l-381 559h-203v-559h-137v1305h430q215 0 333 -93.5t118 -279.5q0 -82 -29 -147.5t-79 -111.5t-119.5 -74t-151.5 -34zM788 932q0 133 -82.5 194.5t-226.5 61.5h-293v-512h293q144 0 226.5 60.5t82.5 195.5z" />
    <glyph glyph-name="S" unicode="S" 
d="M899 340q0 -82 -34 -148.5t-91 -114.5t-131 -74t-154 -26q-110 0 -202 41t-146 121v-139h-116v397h116q0 -67 31 -122.5t79 -95.5t110.5 -62.5t127.5 -22.5q58 0 107 16.5t86 47t58.5 74.5t21.5 100q0 63 -27.5 108t-74 77t-104.5 54.5t-118 44.5q-71 25 -142 52.5
t-127 69.5t-91 102.5t-35 150.5q0 80 34 142.5t89 105.5t128 65.5t150 22.5q95 0 175.5 -39t125.5 -119v136h121v-373h-121q0 59 -24.5 110.5t-66.5 88t-96 58t-114 21.5q-53 0 -101 -12t-84 -38.5t-57.5 -68.5t-21.5 -100q0 -51 25.5 -87t68.5 -63.5t99.5 -50t115.5 -45.5
q74 -26 147 -58t131 -77t95 -110.5t37 -159.5z" />
    <glyph glyph-name="T" unicode="T" 
d="M932 864h-117v324h-280v-1071h210v-117h-559v117h211v1071h-280v-324h-117v441h932v-441z" />
    <glyph glyph-name="U" unicode="U" 
d="M883 465q0 -111 -24.5 -201t-76 -153.5t-130.5 -98.5t-187 -35q-109 0 -187.5 35t-129 98.5t-75 154.5t-24.5 202v838h137v-840q0 -59 10.5 -125t41 -120t85 -90t142.5 -36t143.5 36t86 90t40.5 120t10 125v840h138v-840z" />
    <glyph glyph-name="V" unicode="V" 
d="M995 1305l-436 -1305h-186l-432 1305h145l381 -1166l379 1166h149z" />
    <glyph glyph-name="W" unicode="W" 
d="M995 1305l-235 -1305h-162l-133 637l-135 -637h-160l-233 1305h145l184 -1074l131 701h135l132 -701l184 1074h147z" />
    <glyph glyph-name="X" unicode="X" 
d="M954 0h-370v117h88l-205 428l-207 -428h88v-117h-371v117h127l283 540l-278 531h-109v117h373v-117h-109l203 -418l197 418h-105v117h373v-117h-113l-272 -531l280 -540h127v-117z" />
    <glyph glyph-name="Y" unicode="Y" 
d="M952 1188h-106l-311 -625v-446h210v-117h-559v117h211v446l-311 625h-106v117h368v-117h-108l227 -492l225 492h-108v117h368v-117z" />
    <glyph glyph-name="Z" unicode="Z" 
d="M887 0h-838v117l656 1071h-539v-320h-117v437h817v-117l-649 -1071h553v325h117v-442z" />
    <glyph glyph-name="bracketleft" unicode="[" 
d="M745 -373h-372v1864h372v-111h-262v-1640h262v-113z" />
    <glyph glyph-name="backslash" unicode="\" 
d="M997 -188l-98 -52l-766 1543l98 51z" />
    <glyph glyph-name="bracketright" unicode="]" 
d="M559 -373h-373v113h263v1640h-263v111h373v-1864z" />
    <glyph glyph-name="asciicircum" unicode="^" 
d="M934 559h-152l-315 613l-313 -613h-152l373 746h184z" />
    <glyph glyph-name="underscore" unicode="_" 
d="M932 -186h-932v117h932v-117z" />
    <glyph glyph-name="grave" unicode="`" 
d="M700 1077l-41 -65l-430 243l66 109z" />
    <glyph glyph-name="a" unicode="a" 
d="M-2 252q0 88 44 147.5t115.5 94t164 50t188.5 15.5q37 0 66.5 -1t56 -3t53.5 -5t59 -7v67q0 68 -29.5 112t-72.5 69.5t-90 36t-80 10.5q-104 0 -192 -28t-164 -75l-62 103q84 51 188.5 83.5t229.5 32.5q76 0 149.5 -19.5t132 -60t93.5 -106.5t35 -158v-610h-138v156
q-36 -45 -81.5 -79t-95.5 -55.5t-100 -33t-95 -11.5q-185 0 -280 71t-95 204zM373 94q86 0 154.5 25.5t116.5 63.5t74.5 81t26.5 78v88q-67 10 -128.5 11t-106.5 1q-74 0 -142.5 -10t-119.5 -32.5t-82 -58.5t-31 -89q0 -59 57.5 -108.5t180.5 -49.5z" />
    <glyph glyph-name="b" unicode="b" 
d="M932 465q0 -107 -33 -197t-94.5 -154.5t-148.5 -100.5t-195 -36q-76 0 -145.5 27t-129.5 80v-84h-137v1305h137v-459q60 51 129.5 79.5t145.5 28.5q108 0 195 -36.5t148.5 -101t94.5 -155t33 -196.5zM793 465q0 80 -20.5 147.5t-62.5 117.5t-104.5 79t-144.5 29
q-158 0 -275 -125v-498q60 -65 128.5 -93t146.5 -28q82 0 143.5 29t103.5 79t63.5 117.5t21.5 145.5z" />
    <glyph glyph-name="c" unicode="c" 
d="M897 178q-59 -92 -161.5 -146.5t-243.5 -54.5q-109 0 -200 36t-155.5 100.5t-100.5 153.5t-36 198q0 106 33 196.5t94 155t149.5 101t196.5 36.5q43 0 88 -10t85 -30.5t72 -49t48 -67.5v135h123v-373h-123q0 62 -22.5 113t-61.5 88t-93 57.5t-116 20.5q-84 0 -146.5 -29
t-104.5 -79t-63.5 -117.5t-21.5 -147.5t24.5 -147.5t71 -116.5t112 -78t147.5 -29q104 0 185 41t124 109z" />
    <glyph glyph-name="d" unicode="d" 
d="M883 0h-138v86q-59 -53 -129.5 -81t-144.5 -28q-111 0 -199 36t-148.5 100.5t-93 154.5t-32.5 197q0 106 32.5 196.5t93 155t148.5 101t199 36.5q74 0 144.5 -26.5t129.5 -79.5v340h-186v117h324v-1305zM745 715q-59 65 -128.5 94t-147.5 29q-82 0 -144.5 -29t-104.5 -79
t-63.5 -117.5t-21.5 -147.5t21.5 -147.5t63.5 -117.5t104.5 -79t144.5 -29q158 0 276 125v498z" />
    <glyph glyph-name="e" unicode="e" 
d="M137 418q15 -148 108 -236t242 -88q105 0 187 43t123 107l96 -66q-70 -98 -167 -149.5t-239 -51.5q-108 0 -198 36t-155.5 100.5t-101.5 153.5t-36 198q0 106 32.5 195.5t94 155t149.5 102t197 36.5q119 0 208 -40t148.5 -110.5t88 -168.5t28.5 -217h-805zM797 535
q-23 153 -111 228t-217 75q-66 0 -122 -21.5t-99 -61.5t-72 -96.5t-37 -123.5h658z" />
    <glyph glyph-name="f" unicode="f" 
d="M932 815h-397v-698h210v-117h-559v117h211v698h-211v117h211q0 192 99.5 293.5t300.5 101.5q47 0 79.5 -3t55.5 -7v-117q-29 4 -60.5 7t-74.5 3q-131 0 -196.5 -66.5t-65.5 -211.5h397v-117z" />
    <glyph glyph-name="g" unicode="g" 
d="M883 10q0 -96 -33 -171t-92.5 -127t-140 -79.5t-179.5 -27.5q-139 0 -236.5 52t-168.5 150l96 74q43 -65 124 -109t185 -44q142 0 224.5 71.5t82.5 206.5v100q-122 -108 -278 -108q-219 0 -344 125t-125 342q0 106 32.5 195.5t93 155t147.5 102t196 36.5
q76 0 147.5 -26.5t130.5 -79.5v84h138v-922zM745 715q-59 65 -129.5 94t-148.5 29q-82 0 -144.5 -29t-103.5 -79t-62.5 -118.5t-21.5 -146.5q0 -160 83 -255t249 -95q78 0 148.5 29.5t129.5 95.5v475z" />
    <glyph glyph-name="h" unicode="h" 
d="M883 0h-138v575q0 125 -54 194t-175 69q-76 0 -137.5 -35t-104.5 -93.5t-65.5 -134t-22.5 -157.5v-418h-137v1305h137v-607q99 256 353 256q344 0 344 -379v-575z" />
    <glyph glyph-name="i" unicode="i" 
d="M559 1118h-186v187h186v-187zM745 0h-559v117h211v698h-211v117h349v-815h210v-117z" />
    <glyph glyph-name="j" unicode="j" 
d="M745 1118h-186v187h186v-187zM348 -395q-246 0 -344 202l105 72q36 -76 94.5 -117t144.5 -41q68 0 114 19.5t72.5 55.5t38 87t11.5 117v815h-211v117h348v-932q0 -180 -94.5 -287.5t-278.5 -107.5z" />
    <glyph glyph-name="k" unicode="k" 
d="M930 0h-195l-381 418l-168 -154v-264h-137v1305h137v-875l531 502h196l-467 -428z" />
    <glyph glyph-name="l" unicode="l" 
d="M745 0h-559v117h211v1071h-211v117h349v-1188h210v-117z" />
    <glyph glyph-name="m" unicode="m" 
d="M932 0h-137v670q0 80 -28 124t-81 44q-78 0 -114.5 -82t-36.5 -230v-526h-138v670q0 80 -28.5 124t-81.5 44q-49 0 -78 -29t-45.5 -74t-21.5 -100t-5 -109v-526h-137v932h137v-135q43 157 187 157q137 0 186 -137q68 137 192 137q119 0 174.5 -70.5t55.5 -213.5v-670z
" />
    <glyph glyph-name="n" unicode="n" 
d="M883 0h-138v575q0 125 -54 194t-175 69q-76 0 -137.5 -35t-104.5 -93.5t-65.5 -134t-22.5 -157.5v-418h-137v932h137v-234q99 256 353 256q344 0 344 -379v-575z" />
    <glyph glyph-name="o" unicode="o" 
d="M956 463q0 -109 -34.5 -198t-99 -152.5t-154.5 -99.5t-201 -36q-109 0 -199 36t-154.5 99.5t-99 152.5t-34.5 198q0 106 34.5 197.5t99 156t154.5 101t199 36.5q111 0 201 -36.5t154.5 -101t99 -156t34.5 -197.5zM819 463q0 80 -23.5 147.5t-69.5 118.5t-111.5 80
t-147.5 29t-147.5 -29t-110.5 -80t-68.5 -118.5t-23.5 -147.5t23.5 -147.5t68.5 -116.5t110.5 -77t147.5 -28t147.5 28t111.5 77t69.5 116.5t23.5 147.5z" />
    <glyph glyph-name="p" unicode="p" 
d="M932 465q0 -109 -34 -198t-95.5 -153.5t-148.5 -100.5t-195 -36q-74 0 -143.5 27t-129.5 80v-457h-137v1305h137v-86q127 108 273 108q108 0 195 -35.5t148.5 -101t95.5 -156t34 -196.5zM795 465q0 78 -21.5 146.5t-64.5 118.5t-105.5 79t-144.5 29q-78 0 -145.5 -29
t-127.5 -94v-500q60 -65 127.5 -93t145.5 -28q82 0 144.5 29t105.5 79t64.5 117.5t21.5 145.5z" />
    <glyph glyph-name="q" unicode="q" 
d="M0 465q0 106 34 196.5t95 156t148.5 101t195.5 35.5q145 0 272 -108v86h138v-1305h-138v457q-59 -53 -128.5 -80t-143.5 -27q-108 0 -195.5 36t-148.5 100.5t-95 153.5t-34 198zM137 465q0 -78 21.5 -145.5t64.5 -117.5t105.5 -79t144.5 -29q78 0 145.5 28t126.5 93v500
q-59 65 -126.5 94t-145.5 29q-82 0 -144.5 -29t-105.5 -79t-64.5 -118.5t-21.5 -146.5z" />
    <glyph glyph-name="r" unicode="r" 
d="M881 801q-74 37 -176 37q-84 0 -150 -36t-112 -94.5t-70.5 -134t-24.5 -155.5v-301h211v-117h-559v117h211v698h-211v117h348v-234q94 256 357 256q71 0 123.5 -9t97.5 -32z" />
    <glyph glyph-name="s" unicode="s" 
d="M907 258q0 -82 -41 -136t-105.5 -86t-144 -45.5t-155.5 -13.5q-127 0 -253 37t-218 97l61 118q103 -65 203 -100t207 -35q309 0 309 160q0 39 -25.5 63.5t-68.5 40t-98.5 24.5t-116.5 17q-78 11 -155 26t-140.5 45t-102 80t-38.5 132q0 70 35.5 121t95 85t139.5 50
t166 16q123 0 220 -28.5t175 -81.5l-55 -107q-80 56 -162 78.5t-178 22.5q-43 0 -95.5 -7.5t-97.5 -26t-75.5 -48t-30.5 -74.5q0 -39 25.5 -62.5t68.5 -39t98.5 -24.5t116.5 -17q76 -11 153.5 -26t141 -44t102.5 -79t39 -132z" />
    <glyph glyph-name="t" unicode="t" 
d="M942 297q-16 -147 -115.5 -233.5t-248.5 -86.5q-82 0 -150 27t-116 75t-74.5 115.5t-26.5 147.5v473h-211v117h211v373h137v-373h397v-117h-397v-473q0 -51 16.5 -96t46 -79t71.5 -53.5t96 -19.5q102 0 170.5 63.5t78.5 164.5z" />
    <glyph glyph-name="u" unicode="u" 
d="M49 932h137v-576q0 -125 54.5 -193.5t175.5 -68.5q76 0 137 35t104 93.5t65.5 134t22.5 157.5v418h138v-932h-138v233q-98 -256 -352 -256q-344 0 -344 379v576z" />
    <glyph glyph-name="v" unicode="v" 
d="M963 932l-404 -932h-184l-406 932h164l334 -817l332 817h164z" />
    <glyph glyph-name="w" unicode="w" 
d="M963 932l-189 -932h-160l-149 684l-141 -684h-160l-191 932h146l135 -746l145 746h136l149 -746l135 746h144z" />
    <glyph glyph-name="x" unicode="x" 
d="M954 0h-385v121h82l-184 270l-182 -270h75v-121h-380v121h145l256 352l-246 336h-135v123h383v-123h-86l170 -254l172 254h-94v123h387v-123h-131l-246 -336l256 -352h143v-121z" />
    <glyph glyph-name="y" unicode="y" 
d="M961 932l-504 -1168q-39 -98 -110 -128.5t-157 -30.5q-96 0 -192 35l27 118q47 -20 92 -28.5t73 -8.5q68 0 93.5 33t44.5 78l57 141l-416 959h162l336 -815l330 815h164z" />
    <glyph glyph-name="z" unicode="z" 
d="M887 0h-840v117l635 698h-516v-256h-117v373h815v-117l-635 -698h541v256h117v-373z" />
    <glyph glyph-name="braceleft" unicode="{" 
d="M743 -373h-92q-61 0 -112.5 21.5t-88 58.5t-57 89t-20.5 114v424q0 168 -187 168v112q187 0 187 168v430q0 62 20.5 113t57 88t88 57.5t112.5 20.5h92v-111h-92q-170 0 -170 -168v-430q0 -34 -13 -71t-35.5 -69t-54.5 -55.5t-69 -29.5q37 -6 68 -28.5t54.5 -54.5
t36.5 -68.5t13 -71.5v-424q0 -170 170 -170h92v-113z" />
    <glyph glyph-name="bar" unicode="|" 
d="M535 -186h-138v1677h138v-1677z" />
    <glyph glyph-name="braceright" unicode="}" 
d="M743 502q-184 0 -184 -168v-426q0 -62 -20.5 -113t-58.5 -89t-89 -58.5t-112 -20.5h-93v113h93q167 0 167 168v426q0 35 13.5 72.5t37 69.5t55.5 53.5t69 27.5q-37 8 -70 30.5t-55.5 54.5t-36 69t-13.5 71v430q0 168 -167 168h-93v111h93q61 0 112 -21.5t89 -58.5
t58.5 -88t20.5 -111v-430q0 -168 184 -168v-112z" />
    <glyph glyph-name="asciitilde" unicode="~" 
d="M651 373q37 0 62.5 23.5t42 64.5t27 98.5t18.5 122.5l135 -14q-6 -90 -27.5 -167t-56.5 -133t-86 -89t-115 -33q-61 0 -103 23.5t-70.5 58.5t-50 75t-42 74.5t-45.5 58t-59 23.5q-37 0 -62.5 -23.5t-42 -64.5t-27 -97t-18.5 -122l-135 15q6 88 27.5 165.5t56.5 134t85 89
t116 32.5q61 0 103 -23.5t71.5 -58t51 -75.5t42 -76t44 -58.5t58.5 -23.5z" />
    <glyph glyph-name="uni00A0" unicode="&#xa0;" 
 />
    <glyph glyph-name="exclamdown" unicode="&#xa1;" 
d="M561 0l51 938h82l51 -938h-184zM559 1305h186v-187h-186v187z" />
    <glyph glyph-name="cent" unicode="&#xa2;" 
d="M397 170q-178 33 -283.5 161t-105.5 320q0 94 27.5 175t79 143.5t123 103.5t159.5 57v175h138v-166q127 -6 220 -59.5t150 -139.5l-96 -66q-41 62 -111.5 102t-162.5 46v-743q92 8 162.5 47t111.5 102l96 -66q-57 -86 -150 -139t-220 -61v-162h-138v170zM145 651
q0 -133 65.5 -230t186.5 -130v719q-121 -31 -186.5 -128.5t-65.5 -230.5z" />
    <glyph glyph-name="sterling" unicode="&#xa3;" 
d="M49 711h187v264q0 76 22.5 141.5t64.5 111.5t102 72.5t138 26.5q51 0 98.5 -17.5t85 -49t65.5 -78.5t40 -107l-125 -28q-22 90 -63 126.5t-101 36.5q-98 0 -144 -61.5t-46 -173.5v-264h186v-117h-186v-270q0 -80 -25.5 -132.5t-66.5 -74.5h206q271 0 383 223l109 -59
q-66 -142 -196 -211.5t-296 -69.5h-438v117h62q34 0 58 16.5t39 41t21.5 53t6.5 51.5v315h-187v117z" />
    <glyph glyph-name="currency" unicode="&#xa4;" 
d="M973 1079l-117 -116q49 -62 75.5 -142t26.5 -172t-26.5 -171t-73.5 -140l115 -115l-80 -78l-115 113q-61 -47 -140 -71.5t-171 -24.5q-94 0 -173 26.5t-140 73.5l-115 -117l-78 78l115 117q-47 61 -71.5 139t-24.5 170q0 185 98 312l-117 118l78 78l117 -119
q127 103 311 103q92 0 171 -27t138 -74l117 117zM819 649q0 80 -23.5 147.5t-69.5 119t-111.5 80t-147.5 28.5t-147.5 -28.5t-110.5 -80t-68.5 -119t-23.5 -147.5t23.5 -147.5t68.5 -116.5t110.5 -76.5t147.5 -27.5t147.5 27.5t111.5 76.5t69.5 116.5t23.5 147.5z" />
    <glyph glyph-name="yen" unicode="&#xa5;" 
d="M932 408h-397v-408h-136v408h-399v120h399v35l-108 215h-291v121h229l-204 406h153l289 -596h2l289 596h153l-204 -406h225v-121h-287l-110 -215v-35h397v-120z" />
    <glyph glyph-name="brokenbar" unicode="&#xa6;" 
d="M535 -186h-138v745h138v-745zM535 745h-138v746h138v-746z" />
    <glyph glyph-name="section" unicode="&#xa7;" 
d="M68 829q0 76 31.5 141.5t103.5 119.5q-60 40 -97.5 100.5t-37.5 152.5q0 80 31.5 141.5t86 103.5t127 64.5t154.5 22.5q80 0 154.5 -21.5t136 -65.5t102.5 -110.5t53 -158.5l-129 -21q-22 132 -102 196.5t-215 64.5q-45 0 -92 -11.5t-85 -37t-61.5 -66.5t-23.5 -101
q0 -73 53 -118t133 -80t172 -68t172 -81t133.5 -120.5t53.5 -187.5q0 -72 -28 -138.5t-87 -119.5q51 -43 83 -104.5t32 -149.5q0 -80 -33 -147.5t-89.5 -114.5t-131 -73.5t-156.5 -26.5q-86 0 -165 21.5t-144.5 65.5t-113.5 112.5t-69 164.5l127 33q29 -139 122 -210
t243 -71q55 0 105.5 15.5t87 45t58 72.5t21.5 101q0 88 -53 142t-133 91t-172 68t-172 75t-133 111.5t-53 177.5zM205 831q0 -73 47 -119t118.5 -79t157.5 -61.5t166 -67.5q41 33 65.5 77t24.5 95q0 78 -42 129t-106.5 87t-144 64.5t-155.5 61.5q-70 -35 -100.5 -82
t-30.5 -105z" />
    <glyph glyph-name="dieresis" unicode="&#xa8;" 
d="M745 1118h-186v187h186v-187zM373 1118h-187v187h187v-187z" />
    <glyph glyph-name="copyright" unicode="&#xa9;" 
d="M866 530q-96 -147 -301 -147q-80 0 -146.5 26.5t-114.5 74.5t-74.5 115t-26.5 146q0 76 25.5 141.5t72.5 115t113.5 78t150.5 28.5q205 0 301 -147l-106 -72q-55 100 -195 100q-102 0 -160.5 -69.5t-58.5 -174.5q0 -100 56.5 -171.5t162.5 -71.5q140 0 195 100zM1122 743
q0 -110 -42 -211.5t-116.5 -178.5t-177 -123t-223.5 -46q-108 0 -209.5 40t-179.5 114t-125 176t-47 229q0 115 44 217.5t120 179.5t178 121t219 44q113 0 214.5 -43t178 -118t121.5 -178.5t45 -222.5zM1057 743q0 101 -39 191t-105.5 157.5t-156.5 107.5t-193 40
q-102 0 -192 -39t-158 -105.5t-106.5 -156.5t-38.5 -195q0 -104 38.5 -194t105.5 -156.5t157 -104.5t194 -38q101 0 191 38t157.5 104.5t106.5 156.5t39 194z" />
    <glyph glyph-name="ordfeminine" unicode="&#xaa;" 
d="M-8 760q0 69 34.5 118.5t93 80t131.5 44t150 13.5h49.5t34 -2t31.5 -4t43 -6v75q0 37 -19.5 61.5t-47 39t-60.5 20.5t-59 6q-86 0 -152.5 -17.5t-130.5 -62.5l-55 109q61 41 142 64.5t196 23.5q61 0 119.5 -13.5t104.5 -43t74.5 -75.5t28.5 -112v-520h-141v111
q-117 -129 -285 -129q-61 0 -112 14t-89 43t-59.5 69t-21.5 93zM274 657q68 0 121.5 16.5t89 40t55 50.5t19.5 49v80q-53 8 -87 9t-71 1q-118 0 -193 -33.5t-75 -109.5q0 -45 36 -74t105 -29zM700 256h-700v117h700v-117z" />
    <glyph glyph-name="guillemotleft" unicode="&#xab;" 
d="M788 229l-77 -79l-326 327l326 330l77 -80l-245 -250zM418 229l-80 -79l-324 327l324 330l80 -80l-248 -250z" />
    <glyph glyph-name="logicalnot" unicode="&#xac;" 
d="M932 0h-113v447h-819v112h932v-559z" />
    <glyph glyph-name="uni00AD" unicode="&#xad;" 
d="M932 420h-932v117h932v-117z" />
    <glyph glyph-name="registered" unicode="&#xae;" 
d="M1118 932q0 -111 -42 -212.5t-115.5 -178t-176 -122.5t-223.5 -46q-108 0 -209.5 40t-179.5 113.5t-125 176t-47 229.5q0 115 44 217t120 178t178 120t219 44q113 0 213 -42t177 -118t122 -178t45 -221zM1053 932q0 100 -38 189t-104.5 157t-156.5 107.5t-193 39.5
q-102 0 -192 -37.5t-158 -104t-106.5 -157t-38.5 -194.5q0 -105 38.5 -195t105 -156.5t157 -104.5t194.5 -38q101 0 191 38t156.5 104.5t105.5 156.5t39 195zM866 596h-186l-174 242h-35v-242h-143v676h268q51 0 98 -13.5t83 -41t56.5 -67.5t20.5 -95q0 -80 -49 -140.5
t-143 -70.5zM713 1055q0 45 -29 76.5t-88 31.5h-125v-215h125q55 0 86 30t31 77z" />
    <glyph glyph-name="macron" unicode="&#xaf;" 
d="M745 1106h-559v113h559v-113z" />
    <glyph glyph-name="degree" unicode="&#xb0;" 
d="M0 1118q0 76 29.5 144.5t80 119t118 80t145.5 29.5q76 0 144.5 -29.5t118.5 -80t79.5 -119t29.5 -144.5q0 -78 -29.5 -145.5t-79.5 -117.5t-118.5 -80t-144.5 -30q-78 0 -145.5 30t-118 80t-80 117.5t-29.5 145.5zM92 1118q0 -59 21.5 -109.5t60.5 -89t89 -60t110 -21.5
q57 0 108 21.5t90 60t60.5 89t21.5 109.5q0 58 -21.5 109t-60.5 90t-90 60.5t-108 21.5q-60 0 -110 -21.5t-89 -60.5t-60.5 -90t-21.5 -109z" />
    <glyph glyph-name="plusminus" unicode="&#xb1;" 
d="M932 422h-410v-422h-112v422h-410v113h410v409h112v-409h410v-113zM932 -186h-932v113h932v-113z" />
    <glyph glyph-name="twosuperior" unicode="&#xb2;" 
d="M449 1151q0 -55 -33 -100q-17 -29 -76 -82q-25 -23 -59.5 -54.5t-79.5 -78.5h147v73h98v-164h-405v78l252 240q47 47 47 88q0 35 -27.5 53.5t-68.5 18.5q-115 0 -115 -138h-102q0 232 217 232q84 0 139 -41q66 -49 66 -125z" />
    <glyph glyph-name="threesuperior" unicode="&#xb3;" 
d="M434 909q0 -69 -57.5 -122.5t-149.5 -53.5q-204 0 -229 203l106 14q15 -123 123 -123q41 0 70 25t29 57q0 56 -33 66q-17 10 -84 10v100q106 0 106 66q0 74 -88 74q-112 0 -112 -123h-105q0 106 64 162q63 51 153 51q92 0 144.5 -46t52.5 -118q0 -76 -66 -111
q76 -53 76 -131z" />
    <glyph glyph-name="acute" unicode="&#xb4;" 
d="M711 1255l-432 -243l-37 65l403 287z" />
    <glyph glyph-name="mu" unicode="&#xb5;" 
d="M883 0h-138v236q-96 -259 -352 -259q-123 0 -207 56v-406h-137v1305h137v-574q0 -125 54.5 -194.5t175.5 -69.5q76 0 137 35t104 93.5t65.5 134t22.5 157.5v418h138v-932z" />
    <glyph glyph-name="paragraph" unicode="&#xb6;" 
d="M907 0h-137v559h-235v-559h-138v567q-366 39 -366 365q0 373 499 373h377v-1305zM770 682v506h-235v-506h235zM397 1178q-114 -19 -170.5 -81.5t-56.5 -164.5q0 -201 227 -240v486z" />
    <glyph glyph-name="periodcentered" unicode="&#xb7;" 
d="M559 385h-186v186h186v-186z" />
    <glyph glyph-name="cedilla" unicode="&#xb8;" 
d="M559 -41q0 -147 -82 -235q-88 -95 -235 -95v117q202 0 202 213v41h115v-41z" />
    <glyph glyph-name="onesuperior" unicode="&#xb9;" 
d="M389 745h-289v91h90v290q-20 -51 -68 -88t-122 -37v99q31 0 64.5 14t61.5 41t46 64.5t18 85.5h109v-469h90v-91z" />
    <glyph glyph-name="ordmasculine" unicode="&#xba;" 
d="M766 932q0 -86 -30.5 -159t-83 -124t-125 -79.5t-154.5 -28.5q-84 0 -155 27.5t-124 78.5t-82.5 123t-29.5 162q0 88 29.5 160.5t82.5 125t124 80t155 27.5q82 0 154.5 -27.5t125 -80t83 -125t30.5 -160.5zM629 932q0 61 -20.5 112.5t-55.5 88t-81 56t-99 19.5
q-54 0 -100 -19.5t-80.5 -56t-54 -88t-19.5 -112.5q0 -125 71.5 -200t182.5 -75q55 0 101 19.5t81 55.5t54.5 87t19.5 113zM745 256h-745v117h745v-117z" />
    <glyph glyph-name="guillemotright" unicode="&#xbb;" 
d="M920 477l-328 -327l-78 77l248 250l-248 250l78 78zM545 477l-324 -327l-80 77l248 250l-248 250l80 78z" />
    <glyph glyph-name="onequarter" unicode="&#xbc;" 
d="M932 1272l-836 -1299l-94 60l838 1302zM389 745h-289v91h90v290q-20 -51 -68 -88t-122 -37v99q31 0 64.5 14t61.5 41t46 64.5t18 85.5h109v-469h90v-91zM932 0h-287v90h92v60h-250v75l244 334h111v-317h90v-92h-90v-60h90v-90zM737 242v159l-119 -159h119z" />
    <glyph glyph-name="onehalf" unicode="&#xbd;" 
d="M932 1272l-836 -1299l-94 60l838 1302zM934 406q0 -56 -33 -101q-16 -29 -76 -82q-24 -22 -59 -54t-80 -79h148v74h98v-164h-406v78l252 239q47 48 47 89q0 34 -27.5 52.5t-68.5 18.5q-115 0 -115 -137h-102q0 231 217 231q84 0 139 -41q66 -49 66 -124zM389 745h-289v91
h90v290q-20 -51 -68 -88t-122 -37v99q31 0 64.5 14t61.5 41t46 64.5t18 85.5h109v-469h90v-91z" />
    <glyph glyph-name="threequarters" unicode="&#xbe;" 
d="M434 909q0 -69 -57.5 -122.5t-149.5 -53.5q-204 0 -229 203l106 14q15 -123 123 -123q41 0 70 25t29 57q0 56 -33 66q-17 10 -84 10v100q106 0 106 66q0 74 -88 74q-112 0 -112 -123h-105q0 106 64 162q63 51 153 51q92 0 144.5 -46t52.5 -118q0 -76 -66 -111
q76 -53 76 -131zM932 1272l-836 -1299l-94 60l838 1302zM932 0h-287v90h92v60h-250v75l244 334h111v-317h90v-92h-90v-60h90v-90zM737 242v159l-119 -159h119z" />
    <glyph glyph-name="questiondown" unicode="&#xbf;" 
d="M559 1305h186v-187h-186v187zM209 283q0 77 28.5 135.5t71.5 107.5t94.5 92.5t94.5 89.5t71.5 100t28.5 124h145q0 -78 -29.5 -139.5t-72.5 -114.5t-95 -100.5t-95 -93.5t-73 -95t-30 -106q0 -88 54.5 -138.5t156.5 -50.5q127 0 190.5 75t77.5 189l123 -18
q-18 -168 -115.5 -265.5t-273.5 -97.5q-166 0 -259 85t-93 221z" />
    <glyph glyph-name="Agrave" unicode="&#xc0;" 
d="M995 0h-147l-123 373h-516l-121 -373h-147l434 1305h186zM686 494l-219 673l-219 -673h438zM700 1450l-41 -65l-430 243l66 109z" />
    <glyph glyph-name="Aacute" unicode="&#xc1;" 
d="M995 0h-147l-123 373h-516l-121 -373h-147l434 1305h186zM686 494l-219 673l-219 -673h438zM711 1626l-432 -243l-37 65l403 287z" />
    <glyph glyph-name="Acircumflex" unicode="&#xc2;" 
d="M995 0h-147l-123 373h-516l-121 -373h-147l434 1305h186zM686 494l-219 673l-219 -673h438zM764 1452l-53 -67l-242 205l-246 -207l-53 65l297 291z" />
    <glyph glyph-name="Atilde" unicode="&#xc3;" 
d="M995 0h-147l-123 373h-516l-121 -373h-147l434 1305h186zM686 494l-219 673l-219 -673h438zM846 1600q-90 -158 -246 -158q-57 0 -93 18.5t-63.5 40t-54.5 40t-65 18.5q-103 0 -166 -111l-80 47q92 156 246 156q57 0 93 -18.5t63.5 -40t54 -40t65.5 -18.5q102 0 166 113z
" />
    <glyph glyph-name="Adieresis" unicode="&#xc4;" 
d="M995 0h-147l-123 373h-516l-121 -373h-147l434 1305h186zM686 494l-219 673l-219 -673h438zM745 1489h-186v187h186v-187zM373 1489h-187v187h187v-187z" />
    <glyph glyph-name="Aring" unicode="&#xc5;" 
d="M242 1450q0 47 17 88t48 71.5t72 48t88 17.5t88 -17.5t71.5 -48t48 -71.5t17.5 -88q0 -66 -31.5 -117t-82.5 -80l417 -1253h-147l-123 373h-516l-121 -373h-147l415 1251q-51 29 -82.5 81t-31.5 118zM686 494l-219 673l-219 -673h438zM332 1450q0 -55 40 -95t95 -40
t95 40t40 95t-40 95t-95 40t-95 -40t-40 -95z" />
    <glyph glyph-name="AE" unicode="&#xc6;" 
d="M932 0h-506v373h-233l-111 -373h-145l395 1305h600v-121h-367v-457h277v-121h-277v-483h367v-123zM426 494v659l-197 -659h197z" />
    <glyph glyph-name="Ccedilla" unicode="&#xc7;" 
d="M940 342q-45 -149 -141.5 -243.5t-239.5 -114.5v-25q0 -147 -82 -235q-88 -95 -235 -95v117q202 0 202 213v21q-127 8 -216 66t-144 150.5t-79.5 210t-24.5 244.5q0 131 26.5 253t87 216t155.5 150.5t232 56.5q121 0 207 -43t127 -131v152h117v-428h-117
q0 69 -26.5 130.5t-71.5 106.5t-106.5 70.5t-129.5 25.5q-106 0 -175.5 -50t-111.5 -131t-59.5 -180t-17.5 -198q0 -98 17.5 -197.5t59.5 -179t111.5 -130t175.5 -50.5q244 0 340 295z" />
    <glyph glyph-name="Egrave" unicode="&#xc8;" 
d="M883 0h-834v1305h834v-117h-697v-467h514v-117h-514v-487h697v-117zM700 1450l-41 -65l-430 243l66 109z" />
    <glyph glyph-name="Eacute" unicode="&#xc9;" 
d="M883 0h-834v1305h834v-117h-697v-467h514v-117h-514v-487h697v-117zM711 1626l-432 -243l-37 65l403 287z" />
    <glyph glyph-name="Ecircumflex" unicode="&#xca;" 
d="M883 0h-834v1305h834v-117h-697v-467h514v-117h-514v-487h697v-117zM764 1452l-53 -67l-242 205l-246 -207l-53 65l297 291z" />
    <glyph glyph-name="Edieresis" unicode="&#xcb;" 
d="M883 0h-834v1305h834v-117h-697v-467h514v-117h-514v-487h697v-117zM745 1489h-186v187h186v-187zM373 1489h-187v187h187v-187z" />
    <glyph glyph-name="Igrave" unicode="&#xcc;" 
d="M745 0h-559v117h211v1071h-211v117h559v-117h-210v-1071h210v-117zM700 1450l-41 -65l-430 243l66 109z" />
    <glyph glyph-name="Iacute" unicode="&#xcd;" 
d="M745 0h-559v117h211v1071h-211v117h559v-117h-210v-1071h210v-117zM711 1626l-432 -243l-37 65l403 287z" />
    <glyph glyph-name="Icircumflex" unicode="&#xce;" 
d="M745 0h-559v117h211v1071h-211v117h559v-117h-210v-1071h210v-117zM764 1452l-53 -67l-242 205l-246 -207l-53 65l297 291z" />
    <glyph glyph-name="Idieresis" unicode="&#xcf;" 
d="M745 0h-559v117h211v1071h-211v117h559v-117h-210v-1071h210v-117zM745 1489h-186v187h186v-187zM373 1489h-187v187h187v-187z" />
    <glyph glyph-name="Eth" unicode="&#xd0;" 
d="M975 653q0 -135 -30 -253.5t-91 -208t-156.5 -140.5t-224.5 -51h-424v606h-166v117h166v582h424q137 0 232.5 -53.5t156 -143.5t87 -208t26.5 -247zM838 653q0 256 -96.5 395.5t-268.5 139.5h-287v-465h254v-117h-254v-489h287q172 0 268.5 140t96.5 396z" />
    <glyph glyph-name="Ntilde" unicode="&#xd1;" 
d="M883 0h-170l-527 1104v-1104h-137v1305h193l503 -1053v1053h138v-1305zM846 1600q-90 -158 -246 -158q-57 0 -93 18.5t-63.5 40t-54.5 40t-65 18.5q-103 0 -166 -111l-80 47q92 156 246 156q57 0 93 -18.5t63.5 -40t54 -40t65.5 -18.5q102 0 166 113z" />
    <glyph glyph-name="Ograve" unicode="&#xd2;" 
d="M967 651q0 -131 -27 -253t-86 -215t-154.5 -149.5t-232.5 -56.5t-232.5 56.5t-155 149.5t-86 215t-26.5 253t26.5 253t87 216t156 150.5t230.5 56.5t230.5 -56.5t154.5 -150.5t87 -216t28 -253zM829 651q0 129 -24.5 232.5t-70.5 176.5t-113.5 111.5t-153.5 38.5
q-107 0 -176.5 -50t-111.5 -131t-58.5 -180t-16.5 -198q0 -98 16.5 -197.5t58.5 -179t111.5 -130t176.5 -50.5q106 0 176 50.5t112 130t58 179t16 197.5zM700 1450l-41 -65l-430 243l66 109z" />
    <glyph glyph-name="Oacute" unicode="&#xd3;" 
d="M967 651q0 -131 -27 -253t-86 -215t-154.5 -149.5t-232.5 -56.5t-232.5 56.5t-155 149.5t-86 215t-26.5 253t26.5 253t87 216t156 150.5t230.5 56.5t230.5 -56.5t154.5 -150.5t87 -216t28 -253zM829 651q0 129 -24.5 232.5t-70.5 176.5t-113.5 111.5t-153.5 38.5
q-107 0 -176.5 -50t-111.5 -131t-58.5 -180t-16.5 -198q0 -98 16.5 -197.5t58.5 -179t111.5 -130t176.5 -50.5q106 0 176 50.5t112 130t58 179t16 197.5zM711 1626l-432 -243l-37 65l403 287z" />
    <glyph glyph-name="Ocircumflex" unicode="&#xd4;" 
d="M967 651q0 -131 -27 -253t-86 -215t-154.5 -149.5t-232.5 -56.5t-232.5 56.5t-155 149.5t-86 215t-26.5 253t26.5 253t87 216t156 150.5t230.5 56.5t230.5 -56.5t154.5 -150.5t87 -216t28 -253zM829 651q0 129 -24.5 232.5t-70.5 176.5t-113.5 111.5t-153.5 38.5
q-107 0 -176.5 -50t-111.5 -131t-58.5 -180t-16.5 -198q0 -98 16.5 -197.5t58.5 -179t111.5 -130t176.5 -50.5q106 0 176 50.5t112 130t58 179t16 197.5zM764 1452l-53 -67l-242 205l-246 -207l-53 65l297 291z" />
    <glyph glyph-name="Otilde" unicode="&#xd5;" 
d="M967 651q0 -131 -27 -253t-86 -215t-154.5 -149.5t-232.5 -56.5t-232.5 56.5t-155 149.5t-86 215t-26.5 253t26.5 253t87 216t156 150.5t230.5 56.5t230.5 -56.5t154.5 -150.5t87 -216t28 -253zM829 651q0 129 -24.5 232.5t-70.5 176.5t-113.5 111.5t-153.5 38.5
q-107 0 -176.5 -50t-111.5 -131t-58.5 -180t-16.5 -198q0 -98 16.5 -197.5t58.5 -179t111.5 -130t176.5 -50.5q106 0 176 50.5t112 130t58 179t16 197.5zM846 1600q-90 -158 -246 -158q-57 0 -93 18.5t-63.5 40t-54.5 40t-65 18.5q-103 0 -166 -111l-80 47q92 156 246 156
q57 0 93 -18.5t63.5 -40t54 -40t65.5 -18.5q102 0 166 113z" />
    <glyph glyph-name="Odieresis" unicode="&#xd6;" 
d="M967 651q0 -131 -27 -253t-86 -215t-154.5 -149.5t-232.5 -56.5t-232.5 56.5t-155 149.5t-86 215t-26.5 253t26.5 253t87 216t156 150.5t230.5 56.5t230.5 -56.5t154.5 -150.5t87 -216t28 -253zM829 651q0 129 -24.5 232.5t-70.5 176.5t-113.5 111.5t-153.5 38.5
q-107 0 -176.5 -50t-111.5 -131t-58.5 -180t-16.5 -198q0 -98 16.5 -197.5t58.5 -179t111.5 -130t176.5 -50.5q106 0 176 50.5t112 130t58 179t16 197.5zM745 1489h-186v187h186v-187zM373 1489h-187v187h187v-187z" />
    <glyph glyph-name="multiply" unicode="&#xd7;" 
d="M836 768l-291 -290l291 -291l-80 -78l-289 291l-291 -291l-78 78l289 291l-289 290l78 78l291 -291l289 291z" />
    <glyph glyph-name="Oslash" unicode="&#xd8;" 
d="M-45 188l78 84q-35 84 -50.5 179.5t-15.5 199.5q0 131 26.5 253t87 216t156 150.5t230.5 56.5q131 0 224 -53t153 -144l135 146v-160l-82 -86q35 -84 52.5 -179t17.5 -200q0 -131 -27 -253t-86 -215t-154.5 -149.5t-232.5 -56.5q-135 0 -227.5 51.5t-151.5 141.5
l-133 -141v159zM829 651q0 150 -34 271l-615 -654q41 -78 110.5 -126t176.5 -48q106 0 176 50.5t112 130t58 179t16 197.5zM104 651q0 -69 7.5 -138t25.5 -132l613 651q-48 86 -118.5 132t-164.5 46q-107 0 -176.5 -50t-111.5 -131t-58.5 -180t-16.5 -198z" />
    <glyph glyph-name="Ugrave" unicode="&#xd9;" 
d="M883 465q0 -111 -24.5 -201t-76 -153.5t-130.5 -98.5t-187 -35q-109 0 -187.5 35t-129 98.5t-75 154.5t-24.5 202v838h137v-840q0 -59 10.5 -125t41 -120t85 -90t142.5 -36t143.5 36t86 90t40.5 120t10 125v840h138v-840zM700 1450l-41 -65l-430 243l66 109z" />
    <glyph glyph-name="Uacute" unicode="&#xda;" 
d="M883 465q0 -111 -24.5 -201t-76 -153.5t-130.5 -98.5t-187 -35q-109 0 -187.5 35t-129 98.5t-75 154.5t-24.5 202v838h137v-840q0 -59 10.5 -125t41 -120t85 -90t142.5 -36t143.5 36t86 90t40.5 120t10 125v840h138v-840zM711 1626l-432 -243l-37 65l403 287z" />
    <glyph glyph-name="Ucircumflex" unicode="&#xdb;" 
d="M883 465q0 -111 -24.5 -201t-76 -153.5t-130.5 -98.5t-187 -35q-109 0 -187.5 35t-129 98.5t-75 154.5t-24.5 202v838h137v-840q0 -59 10.5 -125t41 -120t85 -90t142.5 -36t143.5 36t86 90t40.5 120t10 125v840h138v-840zM764 1452l-53 -67l-242 205l-246 -207l-53 65
l297 291z" />
    <glyph glyph-name="Udieresis" unicode="&#xdc;" 
d="M883 465q0 -111 -24.5 -201t-76 -153.5t-130.5 -98.5t-187 -35q-109 0 -187.5 35t-129 98.5t-75 154.5t-24.5 202v838h137v-840q0 -59 10.5 -125t41 -120t85 -90t142.5 -36t143.5 36t86 90t40.5 120t10 125v840h138v-840zM745 1489h-186v187h186v-187zM373 1489h-187v187
h187v-187z" />
    <glyph glyph-name="Yacute" unicode="&#xdd;" 
d="M952 1188h-106l-311 -625v-446h210v-117h-559v117h211v446l-311 625h-106v117h368v-117h-108l227 -492l225 492h-108v117h368v-117zM711 1626l-432 -243l-37 65l403 287z" />
    <glyph glyph-name="Thorn" unicode="&#xde;" 
d="M930 664q0 -373 -500 -373h-244v-291h-137v1305h137v-269h244q500 0 500 -372zM791 664q0 254 -361 254h-244v-512h244q180 0 270.5 65.5t90.5 192.5z" />
    <glyph glyph-name="germandbls" unicode="&#xdf;" 
d="M932 268q0 -61 -26.5 -114.5t-74 -92t-112 -61.5t-139.5 -23q-99 0 -170.5 28t-137.5 81l78 104q53 -49 107.5 -72.5t122.5 -23.5q92 0 152.5 43t60.5 133q0 56 -30 93.5t-73 65.5t-95 52.5t-95 53t-73 67.5t-30 96q0 68 33 106t73 69.5t72.5 68.5t32.5 98q0 70 -41 120
t-141 50q-74 0 -121 -29.5t-73.5 -80.5t-36 -116.5t-9.5 -137.5v-846h-137v844q0 76 12.5 161t52.5 156.5t114.5 118.5t197.5 47q76 0 135.5 -22.5t100 -60.5t62 -90t21.5 -114q0 -82 -32.5 -131t-72.5 -81.5t-72.5 -58.5t-32.5 -60q0 -27 29.5 -48.5t73.5 -45t95 -52
t95 -68.5t74 -95.5t30 -131.5z" />
    <glyph glyph-name="agrave" unicode="&#xe0;" 
d="M0 252q0 88 44 147.5t115.5 94t164 50t188.5 15.5q37 0 66.5 -1t56 -3t53.5 -5t59 -7v67q0 68 -29.5 112t-72.5 69.5t-90 36t-80 10.5q-104 0 -192 -28t-164 -75l-62 103q84 51 188.5 83.5t229.5 32.5q76 0 149.5 -19.5t132 -60t93.5 -106.5t35 -158v-610h-138v156
q-36 -45 -81.5 -79t-95.5 -55.5t-100 -33t-95 -11.5q-185 0 -280 71t-95 204zM375 94q86 0 154.5 25.5t116.5 63.5t74.5 81t26.5 78v88q-67 10 -128.5 11t-106.5 1q-74 0 -142.5 -10t-119.5 -32.5t-82 -58.5t-31 -89q0 -59 57.5 -108.5t180.5 -49.5zM700 1077l-41 -65
l-430 243l66 109z" />
    <glyph glyph-name="aacute" unicode="&#xe1;" 
d="M0 252q0 88 44 147.5t115.5 94t164 50t188.5 15.5q37 0 66.5 -1t56 -3t53.5 -5t59 -7v67q0 68 -29.5 112t-72.5 69.5t-90 36t-80 10.5q-104 0 -192 -28t-164 -75l-62 103q84 51 188.5 83.5t229.5 32.5q76 0 149.5 -19.5t132 -60t93.5 -106.5t35 -158v-610h-138v156
q-36 -45 -81.5 -79t-95.5 -55.5t-100 -33t-95 -11.5q-185 0 -280 71t-95 204zM375 94q86 0 154.5 25.5t116.5 63.5t74.5 81t26.5 78v88q-67 10 -128.5 11t-106.5 1q-74 0 -142.5 -10t-119.5 -32.5t-82 -58.5t-31 -89q0 -59 57.5 -108.5t180.5 -49.5zM711 1254l-432 -243
l-37 65l403 287z" />
    <glyph glyph-name="acircumflex" unicode="&#xe2;" 
d="M0 252q0 88 44 147.5t115.5 94t164 50t188.5 15.5q37 0 66.5 -1t56 -3t53.5 -5t59 -7v67q0 68 -29.5 112t-72.5 69.5t-90 36t-80 10.5q-104 0 -192 -28t-164 -75l-62 103q84 51 188.5 83.5t229.5 32.5q76 0 149.5 -19.5t132 -60t93.5 -106.5t35 -158v-610h-138v156
q-36 -45 -81.5 -79t-95.5 -55.5t-100 -33t-95 -11.5q-185 0 -280 71t-95 204zM375 94q86 0 154.5 25.5t116.5 63.5t74.5 81t26.5 78v88q-67 10 -128.5 11t-106.5 1q-74 0 -142.5 -10t-119.5 -32.5t-82 -58.5t-31 -89q0 -59 57.5 -108.5t180.5 -49.5zM764 1080l-53 -67
l-242 205l-246 -207l-53 65l297 291z" />
    <glyph glyph-name="atilde" unicode="&#xe3;" 
d="M0 252q0 88 44 147.5t115.5 94t164 50t188.5 15.5q37 0 66.5 -1t56 -3t53.5 -5t59 -7v67q0 68 -29.5 112t-72.5 69.5t-90 36t-80 10.5q-104 0 -192 -28t-164 -75l-62 103q84 51 188.5 83.5t229.5 32.5q76 0 149.5 -19.5t132 -60t93.5 -106.5t35 -158v-610h-138v156
q-36 -45 -81.5 -79t-95.5 -55.5t-100 -33t-95 -11.5q-185 0 -280 71t-95 204zM375 94q86 0 154.5 25.5t116.5 63.5t74.5 81t26.5 78v88q-67 10 -128.5 11t-106.5 1q-74 0 -142.5 -10t-119.5 -32.5t-82 -58.5t-31 -89q0 -59 57.5 -108.5t180.5 -49.5zM846 1228
q-90 -158 -246 -158q-57 0 -93 18.5t-63.5 40t-54.5 40t-65 18.5q-103 0 -166 -111l-80 47q92 156 246 156q57 0 93 -18.5t63.5 -40t54 -40t65.5 -18.5q102 0 166 113z" />
    <glyph glyph-name="adieresis" unicode="&#xe4;" 
d="M0 252q0 88 44 147.5t115.5 94t164 50t188.5 15.5q37 0 66.5 -1t56 -3t53.5 -5t59 -7v67q0 68 -29.5 112t-72.5 69.5t-90 36t-80 10.5q-104 0 -192 -28t-164 -75l-62 103q84 51 188.5 83.5t229.5 32.5q76 0 149.5 -19.5t132 -60t93.5 -106.5t35 -158v-610h-138v156
q-36 -45 -81.5 -79t-95.5 -55.5t-100 -33t-95 -11.5q-185 0 -280 71t-95 204zM375 94q86 0 154.5 25.5t116.5 63.5t74.5 81t26.5 78v88q-67 10 -128.5 11t-106.5 1q-74 0 -142.5 -10t-119.5 -32.5t-82 -58.5t-31 -89q0 -59 57.5 -108.5t180.5 -49.5zM745 1118h-186v187h186
v-187zM373 1118h-187v187h187v-187z" />
    <glyph glyph-name="aring" unicode="&#xe5;" 
d="M0 252q0 88 44 147.5t115.5 94t164 50t188.5 15.5q37 0 66.5 -1t56 -3t53.5 -5t59 -7v67q0 68 -29.5 112t-72.5 69.5t-90 36t-80 10.5q-104 0 -192 -28t-164 -75l-62 103q84 51 188.5 83.5t229.5 32.5q76 0 149.5 -19.5t132 -60t93.5 -106.5t35 -158v-610h-138v156
q-36 -45 -81.5 -79t-95.5 -55.5t-100 -33t-95 -11.5q-185 0 -280 71t-95 204zM375 94q86 0 154.5 25.5t116.5 63.5t74.5 81t26.5 78v88q-67 10 -128.5 11t-106.5 1q-74 0 -142.5 -10t-119.5 -32.5t-82 -58.5t-31 -89q0 -59 57.5 -108.5t180.5 -49.5zM242 1256q0 48 17 88.5
t48 71.5t72 48.5t88 17.5t88 -17.5t71.5 -48.5t48 -71.5t17.5 -88.5q0 -47 -17.5 -88t-48 -71.5t-71.5 -48t-88 -17.5t-88 17.5t-72 48t-48 71.5t-17 88zM332 1256q0 -55 40 -95t95 -40t95 40t40 95q0 56 -40 96t-95 40t-95 -40t-40 -96z" />
    <glyph glyph-name="ae" unicode="&#xe6;" 
d="M449 170q-13 -35 -34.5 -68.5t-52 -61.5t-69.5 -45.5t-88 -17.5q-117 0 -179.5 79t-62.5 198q0 80 28.5 138.5t75 95t106.5 54t124 17.5q22 0 46 -1t46 -5v96q0 76 -35 133.5t-106 57.5q-41 0 -88 -36t-82 -95l-86 84q26 43 61 73.5t70 50t67.5 28.5t57.5 9
q78 0 134 -34.5t79 -112.5q28 78 94 112.5t135 34.5q92 0 145.5 -56t79 -138t32.5 -175t7 -167h-428q0 -166 39 -240t117 -74q47 0 83 29t54 94l117 -37q-35 -108 -97.5 -160.5t-164.5 -52.5q-76 0 -139.5 50.5t-85.5 142.5zM807 539q0 163 -32 232t-103 69
q-66 0 -106 -66.5t-40 -234.5h281zM389 438q-12 2 -34.5 3t-45.5 1q-86 0 -147.5 -48t-61.5 -150q0 -54 30 -97t89 -43q33 0 63.5 15.5t54 42t38 62.5t14.5 77v137z" />
    <glyph glyph-name="ccedilla" unicode="&#xe7;" 
d="M897 178q-53 -82 -138 -133t-200 -63v-23q0 -147 -82 -235q-88 -95 -235 -95v117q202 0 202 213v21q-100 8 -182 45.5t-140.5 101t-90 149.5t-31.5 189q0 106 33 196.5t94 155t149.5 101t196.5 36.5q43 0 88 -10t85 -30.5t72 -49t48 -67.5v135h123v-373h-123
q0 62 -22.5 113t-61.5 88t-93 57.5t-116 20.5q-84 0 -146.5 -29t-104.5 -79t-63.5 -117.5t-21.5 -147.5t24.5 -147.5t71 -116.5t112 -78t147.5 -29q104 0 185 41t124 109z" />
    <glyph glyph-name="egrave" unicode="&#xe8;" 
d="M137 418q15 -148 108 -236t242 -88q105 0 187 43t123 107l96 -66q-70 -98 -167 -149.5t-239 -51.5q-108 0 -198 36t-155.5 100.5t-101.5 153.5t-36 198q0 106 32.5 195.5t94 155t149.5 102t197 36.5q119 0 208 -40t148.5 -110.5t88 -168.5t28.5 -217h-805zM797 535
q-23 153 -111 228t-217 75q-66 0 -122 -21.5t-99 -61.5t-72 -96.5t-37 -123.5h658zM700 1077l-41 -65l-430 243l66 109z" />
    <glyph glyph-name="eacute" unicode="&#xe9;" 
d="M137 418q15 -148 108 -236t242 -88q105 0 187 43t123 107l96 -66q-70 -98 -167 -149.5t-239 -51.5q-108 0 -198 36t-155.5 100.5t-101.5 153.5t-36 198q0 106 32.5 195.5t94 155t149.5 102t197 36.5q119 0 208 -40t148.5 -110.5t88 -168.5t28.5 -217h-805zM797 535
q-23 153 -111 228t-217 75q-66 0 -122 -21.5t-99 -61.5t-72 -96.5t-37 -123.5h658zM711 1254l-432 -243l-37 65l403 287z" />
    <glyph glyph-name="ecircumflex" unicode="&#xea;" 
d="M137 418q15 -148 108 -236t242 -88q105 0 187 43t123 107l96 -66q-70 -98 -167 -149.5t-239 -51.5q-108 0 -198 36t-155.5 100.5t-101.5 153.5t-36 198q0 106 32.5 195.5t94 155t149.5 102t197 36.5q119 0 208 -40t148.5 -110.5t88 -168.5t28.5 -217h-805zM797 535
q-23 153 -111 228t-217 75q-66 0 -122 -21.5t-99 -61.5t-72 -96.5t-37 -123.5h658zM764 1080l-53 -67l-242 205l-246 -207l-53 65l297 291z" />
    <glyph glyph-name="edieresis" unicode="&#xeb;" 
d="M137 418q15 -148 108 -236t242 -88q105 0 187 43t123 107l96 -66q-70 -98 -167 -149.5t-239 -51.5q-108 0 -198 36t-155.5 100.5t-101.5 153.5t-36 198q0 106 32.5 195.5t94 155t149.5 102t197 36.5q119 0 208 -40t148.5 -110.5t88 -168.5t28.5 -217h-805zM797 535
q-23 153 -111 228t-217 75q-66 0 -122 -21.5t-99 -61.5t-72 -96.5t-37 -123.5h658zM745 1118h-186v187h186v-187zM373 1118h-187v187h187v-187z" />
    <glyph glyph-name="igrave" unicode="&#xec;" 
d="M745 0h-559v117h211v694h-211v121h349v-815h210v-117zM700 1077l-41 -65l-430 243l66 109z" />
    <glyph glyph-name="iacute" unicode="&#xed;" 
d="M745 0h-559v117h211v694h-211v121h349v-815h210v-117zM711 1254l-432 -243l-37 65l403 287z" />
    <glyph glyph-name="icircumflex" unicode="&#xee;" 
d="M745 0h-559v117h211v694h-211v121h349v-815h210v-117zM764 1080l-53 -67l-242 205l-246 -207l-53 65l297 291z" />
    <glyph glyph-name="idieresis" unicode="&#xef;" 
d="M745 0h-559v117h211v694h-211v121h349v-815h210v-117zM745 1118h-186v187h186v-187zM373 1118h-187v187h187v-187z" />
    <glyph glyph-name="eth" unicode="&#xf0;" 
d="M233 977l160 160q-41 22 -84 39.5t-90 33.5l45 117q117 -45 219 -98l144 143l78 -80l-121 -123q80 -51 147.5 -114.5t115.5 -141t75.5 -171t27.5 -205.5q0 -129 -35.5 -232.5t-103.5 -176.5t-164 -112t-217 -39q-205 0 -327.5 96.5t-122.5 280.5q0 105 58 186t159.5 142
t237.5 103t292 67q-41 70 -101.5 125t-131.5 102l-183 -182zM813 537q0 55 -8 105t-25 97q-145 -16 -267 -51t-210 -84t-137 -111.5t-49 -138.5q0 -116 84 -188t229 -72q92 0 163 32t120 90t74.5 140t25.5 181z" />
    <glyph glyph-name="ntilde" unicode="&#xf1;" 
d="M883 0h-138v575q0 125 -54 194t-175 69q-76 0 -137.5 -35t-104.5 -93.5t-65.5 -134t-22.5 -157.5v-418h-137v932h137v-234q99 256 353 256q344 0 344 -379v-575zM846 1228q-90 -158 -246 -158q-57 0 -93 18.5t-63.5 40t-54.5 40t-65 18.5q-103 0 -166 -111l-80 47
q92 156 246 156q57 0 93 -18.5t63.5 -40t54 -40t65.5 -18.5q102 0 166 113z" />
    <glyph glyph-name="ograve" unicode="&#xf2;" 
d="M956 463q0 -109 -34.5 -198t-99 -152.5t-154.5 -99.5t-201 -36q-109 0 -199 36t-154.5 99.5t-99 152.5t-34.5 198q0 106 34.5 197.5t99 156t154.5 101t199 36.5q111 0 201 -36.5t154.5 -101t99 -156t34.5 -197.5zM819 463q0 80 -23.5 147.5t-69.5 118.5t-111.5 80
t-147.5 29t-147.5 -29t-110.5 -80t-68.5 -118.5t-23.5 -147.5t23.5 -147.5t68.5 -116.5t110.5 -77t147.5 -28t147.5 28t111.5 77t69.5 116.5t23.5 147.5zM700 1077l-41 -65l-430 243l66 109z" />
    <glyph glyph-name="oacute" unicode="&#xf3;" 
d="M956 463q0 -109 -34.5 -198t-99 -152.5t-154.5 -99.5t-201 -36q-109 0 -199 36t-154.5 99.5t-99 152.5t-34.5 198q0 106 34.5 197.5t99 156t154.5 101t199 36.5q111 0 201 -36.5t154.5 -101t99 -156t34.5 -197.5zM819 463q0 80 -23.5 147.5t-69.5 118.5t-111.5 80
t-147.5 29t-147.5 -29t-110.5 -80t-68.5 -118.5t-23.5 -147.5t23.5 -147.5t68.5 -116.5t110.5 -77t147.5 -28t147.5 28t111.5 77t69.5 116.5t23.5 147.5zM711 1254l-432 -243l-37 65l403 287z" />
    <glyph glyph-name="ocircumflex" unicode="&#xf4;" 
d="M956 463q0 -109 -34.5 -198t-99 -152.5t-154.5 -99.5t-201 -36q-109 0 -199 36t-154.5 99.5t-99 152.5t-34.5 198q0 106 34.5 197.5t99 156t154.5 101t199 36.5q111 0 201 -36.5t154.5 -101t99 -156t34.5 -197.5zM819 463q0 80 -23.5 147.5t-69.5 118.5t-111.5 80
t-147.5 29t-147.5 -29t-110.5 -80t-68.5 -118.5t-23.5 -147.5t23.5 -147.5t68.5 -116.5t110.5 -77t147.5 -28t147.5 28t111.5 77t69.5 116.5t23.5 147.5zM764 1080l-53 -67l-242 205l-246 -207l-53 65l297 291z" />
    <glyph glyph-name="otilde" unicode="&#xf5;" 
d="M956 463q0 -109 -34.5 -198t-99 -152.5t-154.5 -99.5t-201 -36q-109 0 -199 36t-154.5 99.5t-99 152.5t-34.5 198q0 106 34.5 197.5t99 156t154.5 101t199 36.5q111 0 201 -36.5t154.5 -101t99 -156t34.5 -197.5zM819 463q0 80 -23.5 147.5t-69.5 118.5t-111.5 80
t-147.5 29t-147.5 -29t-110.5 -80t-68.5 -118.5t-23.5 -147.5t23.5 -147.5t68.5 -116.5t110.5 -77t147.5 -28t147.5 28t111.5 77t69.5 116.5t23.5 147.5zM846 1228q-90 -158 -246 -158q-57 0 -93 18.5t-63.5 40t-54.5 40t-65 18.5q-103 0 -166 -111l-80 47q92 156 246 156
q57 0 93 -18.5t63.5 -40t54 -40t65.5 -18.5q102 0 166 113z" />
    <glyph glyph-name="odieresis" unicode="&#xf6;" 
d="M956 463q0 -109 -34.5 -198t-99 -152.5t-154.5 -99.5t-201 -36q-109 0 -199 36t-154.5 99.5t-99 152.5t-34.5 198q0 106 34.5 197.5t99 156t154.5 101t199 36.5q111 0 201 -36.5t154.5 -101t99 -156t34.5 -197.5zM819 463q0 80 -23.5 147.5t-69.5 118.5t-111.5 80
t-147.5 29t-147.5 -29t-110.5 -80t-68.5 -118.5t-23.5 -147.5t23.5 -147.5t68.5 -116.5t110.5 -77t147.5 -28t147.5 28t111.5 77t69.5 116.5t23.5 147.5zM745 1118h-186v187h186v-187zM373 1118h-187v187h187v-187z" />
    <glyph glyph-name="divide" unicode="&#xf7;" 
d="M559 758h-186v186h186v-186zM559 13h-186v186h186v-186zM932 420h-932v117h932v-117z" />
    <glyph glyph-name="oslash" unicode="&#xf8;" 
d="M-43 119l92 74q-69 116 -69 270q0 106 34.5 197.5t99 156t154.5 101t199 36.5q113 0 203 -37.5t155 -105.5l152 121v-119l-94 -76q73 -121 73 -274q0 -109 -34.5 -198t-99 -152.5t-154.5 -99.5t-201 -36q-113 0 -204 37t-157 105l-149 -119v119zM819 463q0 106 -43 190
l-567 -452q47 -49 110.5 -78t147.5 -29q82 0 147.5 28t111.5 77t69.5 116.5t23.5 147.5zM117 463q0 -107 39 -184l569 452q-47 49 -111.5 78t-146.5 29t-147.5 -29t-110.5 -80t-68.5 -118.5t-23.5 -147.5z" />
    <glyph glyph-name="ugrave" unicode="&#xf9;" 
d="M49 932h137v-576q0 -125 54.5 -193.5t175.5 -68.5q76 0 137 35t104 93.5t65.5 134t22.5 157.5v418h138v-932h-138v233q-98 -256 -352 -256q-344 0 -344 379v576zM700 1079l-41 -65l-430 243l66 109z" />
    <glyph glyph-name="uacute" unicode="&#xfa;" 
d="M49 932h137v-576q0 -125 54.5 -193.5t175.5 -68.5q76 0 137 35t104 93.5t65.5 134t22.5 157.5v418h138v-932h-138v233q-98 -256 -352 -256q-344 0 -344 379v576zM711 1255l-432 -243l-37 65l403 287z" />
    <glyph glyph-name="ucircumflex" unicode="&#xfb;" 
d="M49 932h137v-576q0 -125 54.5 -193.5t175.5 -68.5q76 0 137 35t104 93.5t65.5 134t22.5 157.5v418h138v-932h-138v233q-98 -256 -352 -256q-344 0 -344 379v576zM764 1081l-53 -67l-242 205l-246 -207l-53 65l297 291z" />
    <glyph glyph-name="udieresis" unicode="&#xfc;" 
d="M49 932h137v-576q0 -125 54.5 -193.5t175.5 -68.5q76 0 137 35t104 93.5t65.5 134t22.5 157.5v418h138v-932h-138v233q-98 -256 -352 -256q-344 0 -344 379v576zM745 1118h-186v187h186v-187zM373 1118h-187v187h187v-187z" />
    <glyph glyph-name="yacute" unicode="&#xfd;" 
d="M961 932l-504 -1168q-39 -98 -110 -128.5t-157 -30.5q-96 0 -192 35l27 118q47 -20 92 -28.5t73 -8.5q68 0 93.5 33t44.5 78l57 141l-416 959h162l336 -815l330 815h164zM711 1255l-432 -243l-37 65l403 287z" />
    <glyph glyph-name="thorn" unicode="&#xfe;" 
d="M934 465q0 -109 -33 -198t-93 -154.5t-148.5 -101.5t-198.5 -36q-150 0 -275 99v-447h-137v1678h137v-449q125 98 275 98q106 0 194 -34.5t149.5 -98t95.5 -153.5t34 -203zM795 465q0 82 -21.5 150.5t-62.5 118.5t-104.5 79t-145.5 29q-156 0 -275 -127v-500
q119 -129 275 -129q82 0 145.5 28.5t104.5 80t62.5 121t21.5 149.5z" />
    <glyph glyph-name="ydieresis" unicode="&#xff;" 
d="M961 932l-504 -1168q-39 -98 -110 -128.5t-157 -30.5q-96 0 -192 35l27 118q47 -20 92 -28.5t73 -8.5q68 0 93.5 33t44.5 78l57 141l-416 959h162l336 -815l330 815h164zM745 1118h-186v187h186v-187zM373 1118h-187v187h187v-187z" />
    <glyph glyph-name="Amacron" unicode="&#x100;" 
d="M995 0h-147l-123 373h-516l-121 -373h-147l434 1305h186zM686 494l-219 673l-219 -673h438zM745 1477h-559v113h559v-113z" />
    <glyph glyph-name="amacron" unicode="&#x101;" 
d="M0 252q0 88 44 147.5t115.5 94t164 50t188.5 15.5q37 0 66.5 -1t56 -3t53.5 -5t59 -7v67q0 68 -29.5 112t-72.5 69.5t-90 36t-80 10.5q-104 0 -192 -28t-164 -75l-62 103q84 51 188.5 83.5t229.5 32.5q76 0 149.5 -19.5t132 -60t93.5 -106.5t35 -158v-610h-138v156
q-36 -45 -81.5 -79t-95.5 -55.5t-100 -33t-95 -11.5q-185 0 -280 71t-95 204zM375 94q86 0 154.5 25.5t116.5 63.5t74.5 81t26.5 78v88q-67 10 -128.5 11t-106.5 1q-74 0 -142.5 -10t-119.5 -32.5t-82 -58.5t-31 -89q0 -59 57.5 -108.5t180.5 -49.5zM745 1105h-559v113h559
v-113z" />
    <glyph glyph-name="Abreve" unicode="&#x102;" 
d="M995 0h-147l-123 373h-516l-121 -373h-147l434 1305h186zM686 494l-219 673l-219 -673h438zM752 1581q-117 -116 -285 -116t-285 116l78 76q94 -94 207 -94t207 94z" />
    <glyph glyph-name="abreve" unicode="&#x103;" 
d="M0 252q0 88 44 147.5t115.5 94t164 50t188.5 15.5q37 0 66.5 -1t56 -3t53.5 -5t59 -7v67q0 68 -29.5 112t-72.5 69.5t-90 36t-80 10.5q-104 0 -192 -28t-164 -75l-62 103q84 51 188.5 83.5t229.5 32.5q76 0 149.5 -19.5t132 -60t93.5 -106.5t35 -158v-610h-138v156
q-36 -45 -81.5 -79t-95.5 -55.5t-100 -33t-95 -11.5q-185 0 -280 71t-95 204zM375 94q86 0 154.5 25.5t116.5 63.5t74.5 81t26.5 78v88q-67 10 -128.5 11t-106.5 1q-74 0 -142.5 -10t-119.5 -32.5t-82 -58.5t-31 -89q0 -59 57.5 -108.5t180.5 -49.5zM752 1209
q-117 -116 -285 -116t-285 116l78 76q94 -94 207 -94t207 94z" />
    <glyph glyph-name="Aogonek" unicode="&#x104;" 
d="M1135 -379q-125 0 -197 62.5t-72 164.5q0 48 15.5 85.5t38.5 66.5h-72l-123 373h-516l-121 -373h-147l434 1305h186l434 -1305q-49 -45 -49 -121q0 -72 54.5 -120t134.5 -48v-90zM686 494l-219 673l-219 -673h438z" />
    <glyph glyph-name="aogonek" unicode="&#x105;" 
d="M883 0q-23 -23 -37.5 -54.5t-14.5 -66.5q0 -72 54.5 -120t134.5 -48v-90q-125 0 -196.5 62.5t-71.5 164.5q0 48 15 85.5t38 66.5h-60v156q-36 -45 -81.5 -79t-95.5 -55.5t-100 -33t-95 -11.5q-185 0 -280 71t-95 204q0 88 44 147.5t115.5 94t164 50t188.5 15.5
q37 0 66.5 -1t56 -3t53.5 -5t59 -7v67q0 68 -29.5 112t-72.5 69.5t-90 36t-80 10.5q-104 0 -192 -28t-164 -75l-62 103q84 51 188.5 83.5t229.5 32.5q76 0 149.5 -19.5t132 -60t93.5 -106.5t35 -158v-610zM373 94q86 0 154.5 25.5t116.5 63.5t74.5 81t26.5 78v88
q-67 10 -128.5 11t-106.5 1q-74 0 -142.5 -10t-119.5 -32.5t-82 -58.5t-31 -89q0 -59 57.5 -108.5t180.5 -49.5z" />
    <glyph glyph-name="Cacute" unicode="&#x106;" 
d="M940 342q-51 -168 -167 -266.5t-292 -98.5q-137 0 -232 56.5t-155.5 149.5t-87 215t-26.5 253t26.5 253t87 216t155.5 150.5t232 56.5q121 0 207 -43t127 -131v152h117v-428h-117q0 69 -26.5 130.5t-71.5 106.5t-106.5 70.5t-129.5 25.5q-106 0 -175.5 -50t-111.5 -131
t-59.5 -180t-17.5 -198q0 -98 17.5 -197.5t59.5 -179t111.5 -130t175.5 -50.5q244 0 340 295zM711 1626l-432 -243l-37 65l403 287z" />
    <glyph glyph-name="cacute" unicode="&#x107;" 
d="M897 178q-59 -92 -161.5 -146.5t-243.5 -54.5q-109 0 -200 36t-155.5 100.5t-100.5 153.5t-36 198q0 106 33 196.5t94 155t149.5 101t196.5 36.5q43 0 88 -10t85 -30.5t72 -49t48 -67.5v135h123v-373h-123q0 62 -22.5 113t-61.5 88t-93 57.5t-116 20.5q-84 0 -146.5 -29
t-104.5 -79t-63.5 -117.5t-21.5 -147.5t24.5 -147.5t71 -116.5t112 -78t147.5 -29q104 0 185 41t124 109zM711 1254l-432 -243l-37 65l403 287z" />
    <glyph glyph-name="Ccircumflex" unicode="&#x108;" 
d="M940 342q-51 -168 -167 -266.5t-292 -98.5q-137 0 -232 56.5t-155.5 149.5t-87 215t-26.5 253t26.5 253t87 216t155.5 150.5t232 56.5q121 0 207 -43t127 -131v152h117v-428h-117q0 69 -26.5 130.5t-71.5 106.5t-106.5 70.5t-129.5 25.5q-106 0 -175.5 -50t-111.5 -131
t-59.5 -180t-17.5 -198q0 -98 17.5 -197.5t59.5 -179t111.5 -130t175.5 -50.5q244 0 340 295zM764 1452l-53 -67l-242 205l-246 -207l-53 65l297 291z" />
    <glyph glyph-name="ccircumflex" unicode="&#x109;" 
d="M897 178q-59 -92 -161.5 -146.5t-243.5 -54.5q-109 0 -200 36t-155.5 100.5t-100.5 153.5t-36 198q0 106 33 196.5t94 155t149.5 101t196.5 36.5q43 0 88 -10t85 -30.5t72 -49t48 -67.5v135h123v-373h-123q0 62 -22.5 113t-61.5 88t-93 57.5t-116 20.5q-84 0 -146.5 -29
t-104.5 -79t-63.5 -117.5t-21.5 -147.5t24.5 -147.5t71 -116.5t112 -78t147.5 -29q104 0 185 41t124 109zM764 1080l-53 -67l-242 205l-246 -207l-53 65l297 291z" />
    <glyph glyph-name="Cdotaccent" unicode="&#x10a;" 
d="M940 342q-51 -168 -167 -266.5t-292 -98.5q-137 0 -232 56.5t-155.5 149.5t-87 215t-26.5 253t26.5 253t87 216t155.5 150.5t232 56.5q121 0 207 -43t127 -131v152h117v-428h-117q0 69 -26.5 130.5t-71.5 106.5t-106.5 70.5t-129.5 25.5q-106 0 -175.5 -50t-111.5 -131
t-59.5 -180t-17.5 -198q0 -98 17.5 -197.5t59.5 -179t111.5 -130t175.5 -50.5q244 0 340 295zM559 1489h-186v187h186v-187z" />
    <glyph glyph-name="cdotaccent" unicode="&#x10b;" 
d="M897 178q-59 -92 -161.5 -146.5t-243.5 -54.5q-109 0 -200 36t-155.5 100.5t-100.5 153.5t-36 198q0 106 33 196.5t94 155t149.5 101t196.5 36.5q43 0 88 -10t85 -30.5t72 -49t48 -67.5v135h123v-373h-123q0 62 -22.5 113t-61.5 88t-93 57.5t-116 20.5q-84 0 -146.5 -29
t-104.5 -79t-63.5 -117.5t-21.5 -147.5t24.5 -147.5t71 -116.5t112 -78t147.5 -29q104 0 185 41t124 109zM559 1118h-186v187h186v-187z" />
    <glyph glyph-name="Ccaron" unicode="&#x10c;" 
d="M940 342q-51 -168 -167 -266.5t-292 -98.5q-137 0 -232 56.5t-155.5 149.5t-87 215t-26.5 253t26.5 253t87 216t155.5 150.5t232 56.5q121 0 207 -43t127 -131v152h117v-428h-117q0 69 -26.5 130.5t-71.5 106.5t-106.5 70.5t-129.5 25.5q-106 0 -175.5 -50t-111.5 -131
t-59.5 -180t-17.5 -198q0 -98 17.5 -197.5t59.5 -179t111.5 -130t175.5 -50.5q244 0 340 295zM764 1667l-297 -284l-297 288l53 68l246 -207l242 203z" />
    <glyph glyph-name="ccaron" unicode="&#x10d;" 
d="M897 178q-59 -92 -161.5 -146.5t-243.5 -54.5q-109 0 -200 36t-155.5 100.5t-100.5 153.5t-36 198q0 106 33 196.5t94 155t149.5 101t196.5 36.5q43 0 88 -10t85 -30.5t72 -49t48 -67.5v135h123v-373h-123q0 62 -22.5 113t-61.5 88t-93 57.5t-116 20.5q-84 0 -146.5 -29
t-104.5 -79t-63.5 -117.5t-21.5 -147.5t24.5 -147.5t71 -116.5t112 -78t147.5 -29q104 0 185 41t124 109zM764 1295l-297 -284l-297 288l53 68l246 -207l242 203z" />
    <glyph glyph-name="Dcaron" unicode="&#x10e;" 
d="M975 651q0 -131 -27.5 -249.5t-88 -208t-156 -141.5t-230.5 -52h-424v1305h424q133 0 228.5 -53.5t156 -143.5t89 -208t28.5 -249zM838 651q0 256 -96.5 396.5t-268.5 140.5h-287v-1071h287q172 0 268.5 139t96.5 395zM764 1671l-297 -284l-297 288l53 68l246 -207
l242 203z" />
    <glyph glyph-name="dcaron" unicode="&#x10f;" 
d="M745 0h-137v86q-47 -53 -105.5 -81t-117.5 -28q-90 0 -161.5 36t-121 100.5t-76 154.5t-26.5 197q0 106 26.5 196.5t76 155t121 101t161.5 36.5q59 0 117.5 -26.5t105.5 -79.5v340h-186v117h323v-1305zM608 715q-47 65 -101 94t-114 29q-61 0 -109 -29t-81 -79
t-50.5 -117.5t-17.5 -147.5t17.5 -147.5t50.5 -117.5t81 -79t109 -29q123 0 215 125v498zM1065 1304l-84 -465h-101v465h185z" />
    <glyph glyph-name="Dcroat" unicode="&#x110;" 
d="M975 653q0 -135 -30 -253.5t-91 -208t-156.5 -140.5t-224.5 -51h-424v606h-166v117h166v582h424q137 0 232.5 -53.5t156 -143.5t87 -208t26.5 -247zM838 653q0 256 -96.5 395.5t-268.5 139.5h-287v-465h254v-117h-254v-489h287q172 0 268.5 140t96.5 396z" />
    <glyph glyph-name="dcroat" unicode="&#x111;" 
d="M1069 1001h-186v-1001h-138v86q-59 -53 -129.5 -81t-144.5 -28q-111 0 -199 36t-148.5 100.5t-93 154.5t-32.5 197q0 106 32.5 196.5t93 155t148.5 101t199 36.5q74 0 144.5 -26.5t129.5 -79.5v153h-186v117h186v187h138v-187h186v-117zM745 715q-59 65 -128.5 94
t-147.5 29q-82 0 -144.5 -29t-104.5 -79t-63.5 -117.5t-21.5 -147.5t21.5 -147.5t63.5 -117.5t104.5 -79t144.5 -29q158 0 276 125v498z" />
    <glyph glyph-name="Emacron" unicode="&#x112;" 
d="M883 0h-834v1305h834v-117h-697v-467h514v-117h-514v-487h697v-117zM745 1477h-559v113h559v-113z" />
    <glyph glyph-name="emacron" unicode="&#x113;" 
d="M137 418q15 -148 108 -236t242 -88q105 0 187 43t123 107l96 -66q-70 -98 -167 -149.5t-239 -51.5q-108 0 -198 36t-155.5 100.5t-101.5 153.5t-36 198q0 106 32.5 195.5t94 155t149.5 102t197 36.5q119 0 208 -40t148.5 -110.5t88 -168.5t28.5 -217h-805zM797 535
q-23 153 -111 228t-217 75q-66 0 -122 -21.5t-99 -61.5t-72 -96.5t-37 -123.5h658zM745 1105h-559v113h559v-113z" />
    <glyph glyph-name="Ebreve" unicode="&#x114;" 
d="M883 0h-834v1305h834v-117h-697v-467h514v-117h-514v-487h697v-117zM752 1581q-117 -116 -285 -116t-285 116l78 76q94 -94 207 -94t207 94z" />
    <glyph glyph-name="ebreve" unicode="&#x115;" 
d="M137 418q15 -148 108 -236t242 -88q105 0 187 43t123 107l96 -66q-70 -98 -167 -149.5t-239 -51.5q-108 0 -198 36t-155.5 100.5t-101.5 153.5t-36 198q0 106 32.5 195.5t94 155t149.5 102t197 36.5q119 0 208 -40t148.5 -110.5t88 -168.5t28.5 -217h-805zM797 535
q-23 153 -111 228t-217 75q-66 0 -122 -21.5t-99 -61.5t-72 -96.5t-37 -123.5h658zM752 1209q-117 -116 -285 -116t-285 116l78 76q94 -94 207 -94t207 94z" />
    <glyph glyph-name="Edotaccent" unicode="&#x116;" 
d="M883 0h-834v1305h834v-117h-697v-467h514v-117h-514v-487h697v-117zM559 1489h-186v187h186v-187z" />
    <glyph glyph-name="edotaccent" unicode="&#x117;" 
d="M137 418q15 -148 108 -236t242 -88q105 0 187 43t123 107l96 -66q-70 -98 -167 -149.5t-239 -51.5q-108 0 -198 36t-155.5 100.5t-101.5 153.5t-36 198q0 106 32.5 195.5t94 155t149.5 102t197 36.5q119 0 208 -40t148.5 -110.5t88 -168.5t28.5 -217h-805zM797 535
q-23 153 -111 228t-217 75q-66 0 -122 -21.5t-99 -61.5t-72 -96.5t-37 -123.5h658zM559 1118h-186v187h186v-187z" />
    <glyph glyph-name="Eogonek" unicode="&#x118;" 
d="M1024 -379q-125 0 -196.5 62.5t-71.5 164.5q0 48 15 85.5t38 66.5h-760v1305h834v-117h-697v-467h514v-117h-514v-487h697v-115l2 -2q-49 -45 -49 -121q0 -72 54 -120t134 -48v-90z" />
    <glyph glyph-name="eogonek" unicode="&#x119;" 
d="M659 2q-22 -22 -34.5 -55t-12.5 -68q0 -72 54.5 -120t134.5 -48v-90q-125 0 -197 62.5t-72 164.5q0 41 11.5 74t29.5 62q-43 -7 -86 -7q-108 0 -198 36t-155.5 100.5t-101.5 153.5t-36 198q0 106 32.5 195.5t94 155t149.5 102t197 36.5q119 0 208 -40t148.5 -110.5
t88 -168.5t28.5 -217h-805q15 -148 108 -236t242 -88q105 0 187 43t123 107l96 -66q-94 -131 -234 -176zM797 535q-23 153 -111 228t-217 75q-66 0 -122 -21.5t-99 -61.5t-72 -96.5t-37 -123.5h658z" />
    <glyph glyph-name="Ecaron" unicode="&#x11a;" 
d="M883 0h-834v1305h834v-117h-697v-467h514v-117h-514v-487h697v-117zM764 1667l-297 -284l-297 288l53 68l246 -207l242 203z" />
    <glyph glyph-name="ecaron" unicode="&#x11b;" 
d="M137 418q15 -148 108 -236t242 -88q105 0 187 43t123 107l96 -66q-70 -98 -167 -149.5t-239 -51.5q-108 0 -198 36t-155.5 100.5t-101.5 153.5t-36 198q0 106 32.5 195.5t94 155t149.5 102t197 36.5q119 0 208 -40t148.5 -110.5t88 -168.5t28.5 -217h-805zM797 535
q-23 153 -111 228t-217 75q-66 0 -122 -21.5t-99 -61.5t-72 -96.5t-37 -123.5h658zM764 1295l-297 -284l-297 288l53 68l246 -207l242 203z" />
    <glyph glyph-name="Gcircumflex" unicode="&#x11c;" 
d="M983 649q0 -133 -27.5 -254t-88 -214t-156 -148.5t-230.5 -55.5q-137 0 -232 56.5t-155.5 149.5t-87 215t-26.5 253t26.5 253t87 216t155.5 150.5t232 56.5q121 0 207 -43t127 -131v152h117v-428h-117q0 71 -26.5 132.5t-71.5 105.5t-106.5 69.5t-129.5 25.5
q-106 0 -175.5 -50t-111.5 -131t-59.5 -180t-17.5 -198q0 -98 17.5 -197.5t59.5 -179t111.5 -130t175.5 -50.5q158 0 249 122t108 343h-289v117h434v-27zM764 1452l-53 -67l-242 205l-246 -207l-53 65l297 291z" />
    <glyph glyph-name="gcircumflex" unicode="&#x11d;" 
d="M883 10q0 -96 -33 -171t-92.5 -127t-140 -79.5t-179.5 -27.5q-139 0 -236.5 52t-168.5 150l96 74q43 -65 124 -109t185 -44q142 0 224.5 71.5t82.5 206.5v100q-122 -108 -278 -108q-219 0 -344 125t-125 342q0 106 32.5 195.5t93 155t147.5 102t196 36.5
q76 0 147.5 -26.5t130.5 -79.5v84h138v-922zM745 715q-59 65 -129.5 94t-148.5 29q-82 0 -144.5 -29t-103.5 -79t-62.5 -118.5t-21.5 -146.5q0 -160 83 -255t249 -95q78 0 148.5 29.5t129.5 95.5v475zM764 1080l-53 -67l-242 205l-246 -207l-53 65l297 291z" />
    <glyph glyph-name="Gbreve" unicode="&#x11e;" 
d="M983 649q0 -133 -27.5 -254t-88 -214t-156 -148.5t-230.5 -55.5q-137 0 -232 56.5t-155.5 149.5t-87 215t-26.5 253t26.5 253t87 216t155.5 150.5t232 56.5q121 0 207 -43t127 -131v152h117v-428h-117q0 71 -26.5 132.5t-71.5 105.5t-106.5 69.5t-129.5 25.5
q-106 0 -175.5 -50t-111.5 -131t-59.5 -180t-17.5 -198q0 -98 17.5 -197.5t59.5 -179t111.5 -130t175.5 -50.5q158 0 249 122t108 343h-289v117h434v-27zM752 1581q-117 -116 -285 -116t-285 116l78 76q94 -94 207 -94t207 94z" />
    <glyph glyph-name="gbreve" unicode="&#x11f;" 
d="M883 10q0 -96 -33 -171t-92.5 -127t-140 -79.5t-179.5 -27.5q-139 0 -236.5 52t-168.5 150l96 74q43 -65 124 -109t185 -44q142 0 224.5 71.5t82.5 206.5v100q-122 -108 -278 -108q-219 0 -344 125t-125 342q0 106 32.5 195.5t93 155t147.5 102t196 36.5
q76 0 147.5 -26.5t130.5 -79.5v84h138v-922zM745 715q-59 65 -129.5 94t-148.5 29q-82 0 -144.5 -29t-103.5 -79t-62.5 -118.5t-21.5 -146.5q0 -160 83 -255t249 -95q78 0 148.5 29.5t129.5 95.5v475zM752 1209q-117 -116 -285 -116t-285 116l78 76q94 -94 207 -94t207 94z
" />
    <glyph glyph-name="Gdotaccent" unicode="&#x120;" 
d="M983 649q0 -133 -27.5 -254t-88 -214t-156 -148.5t-230.5 -55.5q-137 0 -232 56.5t-155.5 149.5t-87 215t-26.5 253t26.5 253t87 216t155.5 150.5t232 56.5q121 0 207 -43t127 -131v152h117v-428h-117q0 71 -26.5 132.5t-71.5 105.5t-106.5 69.5t-129.5 25.5
q-106 0 -175.5 -50t-111.5 -131t-59.5 -180t-17.5 -198q0 -98 17.5 -197.5t59.5 -179t111.5 -130t175.5 -50.5q158 0 249 122t108 343h-289v117h434v-27zM559 1489h-186v187h186v-187z" />
    <glyph glyph-name="gdotaccent" unicode="&#x121;" 
d="M883 10q0 -96 -33 -171t-92.5 -127t-140 -79.5t-179.5 -27.5q-139 0 -236.5 52t-168.5 150l96 74q43 -65 124 -109t185 -44q142 0 224.5 71.5t82.5 206.5v100q-122 -108 -278 -108q-219 0 -344 125t-125 342q0 106 32.5 195.5t93 155t147.5 102t196 36.5
q76 0 147.5 -26.5t130.5 -79.5v84h138v-922zM745 715q-59 65 -129.5 94t-148.5 29q-82 0 -144.5 -29t-103.5 -79t-62.5 -118.5t-21.5 -146.5q0 -160 83 -255t249 -95q78 0 148.5 29.5t129.5 95.5v475zM559 1118h-186v187h186v-187z" />
    <glyph glyph-name="Gcommaaccent" unicode="&#x122;" 
d="M983 649q0 -133 -27.5 -254t-88 -214t-156 -148.5t-230.5 -55.5q-137 0 -232 56.5t-155.5 149.5t-87 215t-26.5 253t26.5 253t87 216t155.5 150.5t232 56.5q121 0 207 -43t127 -131v152h117v-428h-117q0 71 -26.5 132.5t-71.5 105.5t-106.5 69.5t-129.5 25.5
q-106 0 -175.5 -50t-111.5 -131t-59.5 -180t-17.5 -198q0 -98 17.5 -197.5t59.5 -179t111.5 -130t175.5 -50.5q158 0 249 122t108 343h-289v117h434v-27zM610 -104l-172 -269h-127l84 269h215z" />
    <glyph glyph-name="gcommaaccent" unicode="&#x123;" 
d="M283 1118l274 373h96l-186 -373h-184zM883 10q0 -96 -33 -171t-92.5 -127t-140 -79.5t-179.5 -27.5q-139 0 -236.5 52t-168.5 150l96 74q43 -65 124 -109t185 -44q142 0 224.5 71.5t82.5 206.5v100q-122 -108 -278 -108q-219 0 -344 125t-125 342q0 106 32.5 195.5
t93 155t147.5 102t196 36.5q76 0 147.5 -26.5t130.5 -79.5v84h138v-922zM745 715q-59 65 -129.5 94t-148.5 29q-82 0 -144.5 -29t-103.5 -79t-62.5 -118.5t-21.5 -146.5q0 -160 83 -255t249 -95q78 0 148.5 29.5t129.5 95.5v475z" />
    <glyph glyph-name="Hcircumflex" unicode="&#x124;" 
d="M883 0h-138v604h-559v-604h-137v1305h137v-584h559v584h138v-1305zM764 1452l-53 -67l-242 205l-246 -207l-53 65l297 291z" />
    <glyph glyph-name="hcircumflex" unicode="&#x125;" 
d="M883 0h-138v575q0 125 -54 194t-175 69q-76 0 -137.5 -35t-104.5 -93.5t-65.5 -134t-22.5 -157.5v-418h-137v1305h137v-607q99 256 353 256q344 0 344 -379v-575zM764 1454l-53 -67l-242 205l-246 -207l-53 65l297 291z" />
    <glyph glyph-name="Hbar" unicode="&#x126;" 
d="M883 1096h188v-113h-188v-983h-138v604h-559v-604h-137v983h-186v113h186v209h137v-209h559v209h138v-209zM745 721v262h-559v-262h559z" />
    <glyph glyph-name="hbar" unicode="&#x127;" 
d="M883 0h-138v575q0 125 -54 194t-175 69q-76 0 -137.5 -35t-104.5 -93.5t-65.5 -134t-22.5 -157.5v-418h-137v1006h-186v112h186v187h137v-187h187v-112h-187v-308q99 256 353 256q344 0 344 -379v-575z" />
    <glyph glyph-name="Itilde" unicode="&#x128;" 
d="M745 0h-559v117h211v1071h-211v117h559v-117h-210v-1071h210v-117zM846 1600q-90 -158 -246 -158q-57 0 -93 18.5t-63.5 40t-54.5 40t-65 18.5q-103 0 -166 -111l-80 47q92 156 246 156q57 0 93 -18.5t63.5 -40t54 -40t65.5 -18.5q102 0 166 113z" />
    <glyph glyph-name="itilde" unicode="&#x129;" 
d="M745 0h-559v117h211v694h-211v121h349v-815h210v-117zM846 1228q-90 -158 -246 -158q-57 0 -93 18.5t-63.5 40t-54.5 40t-65 18.5q-103 0 -166 -111l-80 47q92 156 246 156q57 0 93 -18.5t63.5 -40t54 -40t65.5 -18.5q102 0 166 113z" />
    <glyph glyph-name="Imacron" unicode="&#x12a;" 
d="M745 0h-559v117h211v1071h-211v117h559v-117h-210v-1071h210v-117zM745 1477h-559v113h559v-113z" />
    <glyph glyph-name="imacron" unicode="&#x12b;" 
d="M745 0h-559v117h211v694h-211v121h349v-815h210v-117zM745 1105h-559v113h559v-113z" />
    <glyph glyph-name="Ibreve" unicode="&#x12c;" 
d="M745 0h-559v117h211v1071h-211v117h559v-117h-210v-1071h210v-117zM752 1581q-117 -116 -285 -116t-285 116l78 76q94 -94 207 -94t207 94z" />
    <glyph glyph-name="ibreve" unicode="&#x12d;" 
d="M745 0h-559v117h211v694h-211v121h349v-815h210v-117zM752 1209q-117 -116 -285 -116t-285 116l78 76q94 -94 207 -94t207 94z" />
    <glyph glyph-name="Iogonek" unicode="&#x12e;" 
d="M885 -379q-125 0 -197 62.5t-72 164.5q0 48 15.5 85.5t38.5 66.5h-484v117h211v1071h-211v117h559v-117h-210v-1071h210v-117q-49 -45 -49 -121q0 -72 54.5 -120t134.5 -48v-90z" />
    <glyph glyph-name="iogonek" unicode="&#x12f;" 
d="M885 -379q-125 0 -197 62.5t-72 164.5q0 48 15.5 85.5t38.5 66.5h-484v117h211v698h-211v117h349v-815h210v-117q-49 -45 -49 -121q0 -72 54.5 -120t134.5 -48v-90zM559 1118h-186v187h186v-187z" />
    <glyph glyph-name="Idotaccent" unicode="&#x130;" 
d="M745 0h-559v117h211v1071h-211v117h559v-117h-210v-1071h210v-117zM559 1489h-186v187h186v-187z" />
    <glyph glyph-name="dotlessi" unicode="&#x131;" 
d="M745 0h-559v117h211v694h-211v121h349v-815h210v-117z" />
    <glyph glyph-name="IJ" unicode="&#x132;" 
d="M256 -170q49 -57 112.5 -83t135.5 -26q92 0 149.5 37t88 94.5t42 129t11.5 143.5v1180h137v-1180q0 -248 -105.5 -384t-322.5 -136q-211 0 -334 129zM559 0h-559v117h211v1071h-211v117h559v-117h-210v-1071h210v-117z" />
    <glyph glyph-name="ij" unicode="&#x133;" 
d="M373 1118h-187v187h187v-187zM559 0h-559v117h211v698h-211v117h348v-815h211v-117zM932 1118h-187v187h187v-187zM535 -395q-246 0 -345 202l105 72q37 -76 95.5 -117t144.5 -41q67 0 113 19.5t73 55.5t38 87t11 117v815h-211v117h348v-932q0 -180 -94 -287.5
t-278 -107.5z" />
    <glyph glyph-name="Jcircumflex" unicode="&#x134;" 
d="M883 498q0 -248 -105.5 -384.5t-322.5 -136.5q-174 0 -292 91.5t-165 273.5l119 45q43 -162 128 -227.5t210 -65.5q92 0 149.5 37t88 94.5t41.5 129t11 143.5v807h138v-807zM764 1452l-53 -67l-242 205l-246 -207l-53 65l297 291z" />
    <glyph glyph-name="jcircumflex" unicode="&#x135;" 
d="M348 -395q-246 0 -344 202l105 72q36 -76 94.5 -117t144.5 -41q68 0 114 19.5t72.5 55.5t38 87t11.5 117v815h-211v117h348v-932q0 -180 -94.5 -287.5t-278.5 -107.5zM856 1081l-53 -67l-242 205l-246 -207l-53 65l297 291z" />
    <glyph glyph-name="Kcommaaccent" unicode="&#x136;" 
d="M926 0h-168l-434 639l-138 -154v-485h-137v1305h137v-635l559 635h181l-512 -570zM610 -104l-172 -269h-127l84 269h215z" />
    <glyph glyph-name="kcommaaccent" unicode="&#x137;" 
d="M930 0h-195l-381 418l-168 -154v-264h-137v1305h137v-875l531 502h196l-467 -428zM610 -104l-172 -269h-127l84 269h215z" />
    <glyph glyph-name="kgreenlandic" unicode="&#x138;" 
d="M930 0h-195l-381 418l-168 -154v-264h-137v932h137v-502l531 502h196l-467 -428z" />
    <glyph glyph-name="Lacute" unicode="&#x139;" 
d="M883 0h-834v1305h137v-1188h697v-117zM711 1626l-432 -243l-37 65l403 287z" />
    <glyph glyph-name="lacute" unicode="&#x13a;" 
d="M745 0h-559v117h211v1071h-211v117h349v-1188h210v-117zM711 1628l-432 -243l-37 65l403 287z" />
    <glyph glyph-name="Lcommaaccent" unicode="&#x13b;" 
d="M883 0h-834v1305h137v-1188h697v-117zM610 -104l-172 -269h-127l84 269h215z" />
    <glyph glyph-name="lcommaaccent" unicode="&#x13c;" 
d="M745 0h-559v117h211v1071h-211v117h349v-1188h210v-117zM610 -104l-172 -269h-127l84 269h215z" />
    <glyph glyph-name="Lcaron" unicode="&#x13d;" 
d="M883 0h-834v1305h137v-1188h697v-117zM795 1305l-84 -465h-101v465h185z" />
    <glyph glyph-name="lcaron" unicode="&#x13e;" 
d="M745 0h-559v117h211v1071h-211v117h349v-1188h210v-117zM930 1305l-84 -465h-101v465h185z" />
    <glyph glyph-name="Ldot" unicode="&#x13f;" 
d="M883 0h-834v1305h137v-1188h697v-117zM745 571h-186v186h186v-186z" />
    <glyph glyph-name="ldot" unicode="&#x140;" 
d="M745 0h-559v117h211v1071h-211v117h349v-1188h210v-117zM1118 385h-186v186h186v-186z" />
    <glyph glyph-name="Lslash" unicode="&#x141;" 
d="M883 0h-834v563l-211 -69v127l211 69v615h137v-568l211 70v-127l-211 -70v-491h697v-119z" />
    <glyph glyph-name="lslash" unicode="&#x142;" 
d="M397 690v496h-211v119h349v-568l210 70v-127l-210 -70v-491h210v-119h-559v119h211v444l-211 -69v127z" />
    <glyph glyph-name="Nacute" unicode="&#x143;" 
d="M883 0h-170l-527 1104v-1104h-137v1305h193l503 -1053v1053h138v-1305zM711 1626l-432 -243l-37 65l403 287z" />
    <glyph glyph-name="nacute" unicode="&#x144;" 
d="M883 0h-138v575q0 125 -54 194t-175 69q-76 0 -137.5 -35t-104.5 -93.5t-65.5 -134t-22.5 -157.5v-418h-137v932h137v-234q99 256 353 256q344 0 344 -379v-575zM711 1254l-432 -243l-37 65l403 287z" />
    <glyph glyph-name="Ncommaaccent" unicode="&#x145;" 
d="M883 0h-170l-527 1104v-1104h-137v1305h193l503 -1053v1053h138v-1305zM610 -104l-172 -269h-127l84 269h215z" />
    <glyph glyph-name="ncommaaccent" unicode="&#x146;" 
d="M883 0h-138v575q0 125 -54 194t-175 69q-76 0 -137.5 -35t-104.5 -93.5t-65.5 -134t-22.5 -157.5v-418h-137v932h137v-234q99 256 353 256q344 0 344 -379v-575zM610 -104l-172 -269h-127l84 269h215z" />
    <glyph glyph-name="Ncaron" unicode="&#x147;" 
d="M883 0h-170l-527 1104v-1104h-137v1305h193l503 -1053v1053h138v-1305zM764 1667l-297 -284l-297 288l53 68l246 -207l242 203z" />
    <glyph glyph-name="ncaron" unicode="&#x148;" 
d="M883 0h-138v575q0 125 -54 194t-175 69q-76 0 -137.5 -35t-104.5 -93.5t-65.5 -134t-22.5 -157.5v-418h-137v932h137v-234q99 256 353 256q344 0 344 -379v-575zM764 1295l-297 -284l-297 288l53 68l246 -207l242 203z" />
    <glyph glyph-name="napostrophe" unicode="&#x149;" 
d="M883 0h-138v575q0 125 -54 194t-175 69q-76 0 -137.5 -35t-104.5 -93.5t-65.5 -134t-22.5 -157.5v-418h-137v932h137v-234q99 256 353 256q344 0 344 -379v-575zM186 1583l-84 -465h-101v465h185z" />
    <glyph glyph-name="Eng" unicode="&#x14a;" 
d="M883 125q0 -248 -105.5 -384t-322.5 -136q-211 0 -334 129l86 96q49 -57 112.5 -83t135.5 -26q65 0 112 19.5t80 52.5t53.5 77t30.5 93l-545 1141v-1104h-137v1305h193l503 -1053v1053h138v-1180z" />
    <glyph glyph-name="eng" unicode="&#x14b;" 
d="M387 -250q25 -14 58.5 -21.5t64.5 -7.5q68 0 114 19.5t72.5 55.5t37.5 87t11 117v575q0 125 -54 194t-175 69q-76 0 -137.5 -35t-104.5 -93.5t-65.5 -134t-22.5 -157.5v-418h-137v932h137v-234q99 256 353 256q344 0 344 -379v-575q0 -180 -94.5 -287.5t-278.5 -107.5
q-90 0 -158 26z" />
    <glyph glyph-name="Omacron" unicode="&#x14c;" 
d="M967 651q0 -131 -27 -253t-86 -215t-154.5 -149.5t-232.5 -56.5t-232.5 56.5t-155 149.5t-86 215t-26.5 253t26.5 253t87 216t156 150.5t230.5 56.5t230.5 -56.5t154.5 -150.5t87 -216t28 -253zM829 651q0 129 -24.5 232.5t-70.5 176.5t-113.5 111.5t-153.5 38.5
q-107 0 -176.5 -50t-111.5 -131t-58.5 -180t-16.5 -198q0 -98 16.5 -197.5t58.5 -179t111.5 -130t176.5 -50.5q106 0 176 50.5t112 130t58 179t16 197.5zM745 1477h-559v113h559v-113z" />
    <glyph glyph-name="omacron" unicode="&#x14d;" 
d="M956 463q0 -109 -34.5 -198t-99 -152.5t-154.5 -99.5t-201 -36q-109 0 -199 36t-154.5 99.5t-99 152.5t-34.5 198q0 106 34.5 197.5t99 156t154.5 101t199 36.5q111 0 201 -36.5t154.5 -101t99 -156t34.5 -197.5zM819 463q0 80 -23.5 147.5t-69.5 118.5t-111.5 80
t-147.5 29t-147.5 -29t-110.5 -80t-68.5 -118.5t-23.5 -147.5t23.5 -147.5t68.5 -116.5t110.5 -77t147.5 -28t147.5 28t111.5 77t69.5 116.5t23.5 147.5zM745 1105h-559v113h559v-113z" />
    <glyph glyph-name="Obreve" unicode="&#x14e;" 
d="M967 651q0 -131 -27 -253t-86 -215t-154.5 -149.5t-232.5 -56.5t-232.5 56.5t-155 149.5t-86 215t-26.5 253t26.5 253t87 216t156 150.5t230.5 56.5t230.5 -56.5t154.5 -150.5t87 -216t28 -253zM829 651q0 129 -24.5 232.5t-70.5 176.5t-113.5 111.5t-153.5 38.5
q-107 0 -176.5 -50t-111.5 -131t-58.5 -180t-16.5 -198q0 -98 16.5 -197.5t58.5 -179t111.5 -130t176.5 -50.5q106 0 176 50.5t112 130t58 179t16 197.5zM752 1581q-117 -116 -285 -116t-285 116l78 76q94 -94 207 -94t207 94z" />
    <glyph glyph-name="obreve" unicode="&#x14f;" 
d="M956 463q0 -109 -34.5 -198t-99 -152.5t-154.5 -99.5t-201 -36q-109 0 -199 36t-154.5 99.5t-99 152.5t-34.5 198q0 106 34.5 197.5t99 156t154.5 101t199 36.5q111 0 201 -36.5t154.5 -101t99 -156t34.5 -197.5zM819 463q0 80 -23.5 147.5t-69.5 118.5t-111.5 80
t-147.5 29t-147.5 -29t-110.5 -80t-68.5 -118.5t-23.5 -147.5t23.5 -147.5t68.5 -116.5t110.5 -77t147.5 -28t147.5 28t111.5 77t69.5 116.5t23.5 147.5zM752 1209q-117 -116 -285 -116t-285 116l78 76q94 -94 207 -94t207 94z" />
    <glyph glyph-name="Ohungarumlaut" unicode="&#x150;" 
d="M967 651q0 -131 -27 -253t-86 -215t-154.5 -149.5t-232.5 -56.5t-232.5 56.5t-155 149.5t-86 215t-26.5 253t26.5 253t87 216t156 150.5t230.5 56.5t230.5 -56.5t154.5 -150.5t87 -216t28 -253zM829 651q0 129 -24.5 232.5t-70.5 176.5t-113.5 111.5t-153.5 38.5
q-107 0 -176.5 -50t-111.5 -131t-58.5 -180t-16.5 -198q0 -98 16.5 -197.5t58.5 -179t111.5 -130t176.5 -50.5q106 0 176 50.5t112 130t58 179t16 197.5zM682 1395h-141l141 375h186zM309 1395h-139l139 375h187z" />
    <glyph glyph-name="ohungarumlaut" unicode="&#x151;" 
d="M956 463q0 -109 -34.5 -198t-99 -152.5t-154.5 -99.5t-201 -36q-109 0 -199 36t-154.5 99.5t-99 152.5t-34.5 198q0 106 34.5 197.5t99 156t154.5 101t199 36.5q111 0 201 -36.5t154.5 -101t99 -156t34.5 -197.5zM819 463q0 80 -23.5 147.5t-69.5 118.5t-111.5 80
t-147.5 29t-147.5 -29t-110.5 -80t-68.5 -118.5t-23.5 -147.5t23.5 -147.5t68.5 -116.5t110.5 -77t147.5 -28t147.5 28t111.5 77t69.5 116.5t23.5 147.5zM682 1023h-141l141 375h186zM309 1023h-139l139 375h187z" />
    <glyph glyph-name="OE" unicode="&#x152;" 
d="M422 651q0 123 -5 226.5t-21.5 177t-45 114.5t-76.5 41q-47 0 -76.5 -41t-46 -114.5t-22.5 -177t-6 -226.5t6 -225t22.5 -176t46 -115t76.5 -41q48 0 76.5 41t45 115t21.5 176t5 225zM274 -23q-288 0 -288 674q0 676 288 676q74 0 110 -38t65 -118v134h483v-117h-373
v-467h283v-117h-283v-487h373v-117h-483v133q-29 -80 -65 -118t-110 -38z" />
    <glyph glyph-name="oe" unicode="&#x153;" 
d="M526 418q0 -166 39 -240t117 -74q47 0 80 28t47 99l127 -41q-68 -213 -254 -213q-178 0 -227 201q-43 -201 -213 -201q-279 0 -279 488q0 489 279 489q164 0 211 -194q22 98 77.5 146t139.5 48q100 0 156.5 -52t85 -132t35.5 -174t7 -178h-428zM807 539q0 151 -27.5 226
t-109.5 75t-111 -79t-33 -222h281zM383 465q0 375 -141 375q-142 0 -142 -375q0 -377 142 -377q141 0 141 377z" />
    <glyph glyph-name="Racute" unicode="&#x154;" 
d="M944 0h-174l-381 559h-203v-559h-137v1305h430q215 0 333 -93.5t118 -279.5q0 -82 -29 -147.5t-79 -111.5t-119.5 -74t-151.5 -34zM788 932q0 133 -82.5 194.5t-226.5 61.5h-293v-512h293q144 0 226.5 60.5t82.5 195.5zM711 1626l-432 -243l-37 65l403 287z" />
    <glyph glyph-name="racute" unicode="&#x155;" 
d="M881 801q-74 37 -176 37q-84 0 -150 -36t-112 -94.5t-70.5 -134t-24.5 -155.5v-301h211v-117h-559v117h211v698h-211v117h348v-234q94 256 357 256q71 0 123.5 -9t97.5 -32zM711 1255l-432 -243l-37 65l403 287z" />
    <glyph glyph-name="Rcommaaccent" unicode="&#x156;" 
d="M944 0h-174l-381 559h-203v-559h-137v1305h430q215 0 333 -93.5t118 -279.5q0 -82 -29 -147.5t-79 -111.5t-119.5 -74t-151.5 -34zM788 932q0 133 -82.5 194.5t-226.5 61.5h-293v-512h293q144 0 226.5 60.5t82.5 195.5zM610 -104l-172 -269h-127l84 269h215z" />
    <glyph glyph-name="rcommaaccent" unicode="&#x157;" 
d="M881 801q-74 37 -176 37q-84 0 -150 -36t-112 -94.5t-70.5 -134t-24.5 -155.5v-301h211v-117h-559v117h211v698h-211v117h348v-234q94 256 357 256q71 0 123.5 -9t97.5 -32zM610 -104l-172 -269h-127l84 269h215z" />
    <glyph glyph-name="Rcaron" unicode="&#x158;" 
d="M944 0h-174l-381 559h-203v-559h-137v1305h430q215 0 333 -93.5t118 -279.5q0 -82 -29 -147.5t-79 -111.5t-119.5 -74t-151.5 -34zM788 932q0 133 -82.5 194.5t-226.5 61.5h-293v-512h293q144 0 226.5 60.5t82.5 195.5zM764 1667l-297 -284l-297 288l53 68l246 -207
l242 203z" />
    <glyph glyph-name="rcaron" unicode="&#x159;" 
d="M881 801q-74 37 -176 37q-84 0 -150 -36t-112 -94.5t-70.5 -134t-24.5 -155.5v-301h211v-117h-559v117h211v698h-211v117h348v-234q94 256 357 256q71 0 123.5 -9t97.5 -32zM764 1296l-297 -284l-297 288l53 68l246 -207l242 203z" />
    <glyph glyph-name="Sacute" unicode="&#x15a;" 
d="M899 340q0 -82 -34 -148.5t-91 -114.5t-131 -74t-154 -26q-110 0 -202 41t-146 121v-139h-116v397h116q0 -67 31 -122.5t79 -95.5t110.5 -62.5t127.5 -22.5q58 0 107 16.5t86 47t58.5 74.5t21.5 100q0 63 -27.5 108t-74 77t-104.5 54.5t-118 44.5q-71 25 -142 52.5
t-127 69.5t-91 102.5t-35 150.5q0 80 34 142.5t89 105.5t128 65.5t150 22.5q95 0 175.5 -39t125.5 -119v136h121v-373h-121q0 59 -24.5 110.5t-66.5 88t-96 58t-114 21.5q-53 0 -101 -12t-84 -38.5t-57.5 -68.5t-21.5 -100q0 -51 25.5 -87t68.5 -63.5t99.5 -50t115.5 -45.5
q74 -26 147 -58t131 -77t95 -110.5t37 -159.5zM711 1626l-432 -243l-37 65l403 287z" />
    <glyph glyph-name="sacute" unicode="&#x15b;" 
d="M907 258q0 -82 -41 -136t-105.5 -86t-144 -45.5t-155.5 -13.5q-127 0 -253 37t-218 97l61 118q103 -65 203 -100t207 -35q309 0 309 160q0 39 -25.5 63.5t-68.5 40t-98.5 24.5t-116.5 17q-78 11 -155 26t-140.5 45t-102 80t-38.5 132q0 70 35.5 121t95 85t139.5 50
t166 16q123 0 220 -28.5t175 -81.5l-55 -107q-80 56 -162 78.5t-178 22.5q-43 0 -95.5 -7.5t-97.5 -26t-75.5 -48t-30.5 -74.5q0 -39 25.5 -62.5t68.5 -39t98.5 -24.5t116.5 -17q76 -11 153.5 -26t141 -44t102.5 -79t39 -132zM711 1255l-432 -243l-37 65l403 287z" />
    <glyph glyph-name="Scircumflex" unicode="&#x15c;" 
d="M899 340q0 -82 -34 -148.5t-91 -114.5t-131 -74t-154 -26q-110 0 -202 41t-146 121v-139h-116v397h116q0 -67 31 -122.5t79 -95.5t110.5 -62.5t127.5 -22.5q58 0 107 16.5t86 47t58.5 74.5t21.5 100q0 63 -27.5 108t-74 77t-104.5 54.5t-118 44.5q-71 25 -142 52.5
t-127 69.5t-91 102.5t-35 150.5q0 80 34 142.5t89 105.5t128 65.5t150 22.5q95 0 175.5 -39t125.5 -119v136h121v-373h-121q0 59 -24.5 110.5t-66.5 88t-96 58t-114 21.5q-53 0 -101 -12t-84 -38.5t-57.5 -68.5t-21.5 -100q0 -51 25.5 -87t68.5 -63.5t99.5 -50t115.5 -45.5
q74 -26 147 -58t131 -77t95 -110.5t37 -159.5zM764 1452l-53 -67l-242 205l-246 -207l-53 65l297 291z" />
    <glyph glyph-name="scircumflex" unicode="&#x15d;" 
d="M907 258q0 -82 -41 -136t-105.5 -86t-144 -45.5t-155.5 -13.5q-127 0 -253 37t-218 97l61 118q103 -65 203 -100t207 -35q309 0 309 160q0 39 -25.5 63.5t-68.5 40t-98.5 24.5t-116.5 17q-78 11 -155 26t-140.5 45t-102 80t-38.5 132q0 70 35.5 121t95 85t139.5 50
t166 16q123 0 220 -28.5t175 -81.5l-55 -107q-80 56 -162 78.5t-178 22.5q-43 0 -95.5 -7.5t-97.5 -26t-75.5 -48t-30.5 -74.5q0 -39 25.5 -62.5t68.5 -39t98.5 -24.5t116.5 -17q76 -11 153.5 -26t141 -44t102.5 -79t39 -132zM764 1081l-53 -67l-242 205l-246 -207l-53 65
l297 291z" />
    <glyph glyph-name="Scedilla" unicode="&#x15e;" 
d="M899 340q0 -74 -27.5 -134.5t-73.5 -106.5t-107.5 -75.5t-131.5 -39.5v-25q0 -147 -82 -235q-88 -95 -235 -95v117q202 0 202 213v21q-96 8 -176 48t-127 111v-139h-116v397h116q0 -67 31 -122.5t79 -95.5t110.5 -62.5t127.5 -22.5q58 0 107 16.5t86 47t58.5 74.5
t21.5 100q0 63 -27.5 108t-74 77t-104.5 54.5t-118 44.5q-71 25 -142 52.5t-127 69.5t-91 102.5t-35 150.5q0 80 34 142.5t89 105.5t128 65.5t150 22.5q95 0 175.5 -39t125.5 -119v136h121v-373h-121q0 59 -24.5 110.5t-66.5 88t-96 58t-114 21.5q-53 0 -101 -12t-84 -38.5
t-57.5 -68.5t-21.5 -100q0 -51 25.5 -87t68.5 -63.5t99.5 -50t115.5 -45.5q74 -26 147 -58t131 -77t95 -110.5t37 -159.5z" />
    <glyph glyph-name="scedilla" unicode="&#x15f;" 
d="M907 258q0 -68 -29.5 -117t-78.5 -81.5t-111.5 -51t-128.5 -24.5v-25q0 -147 -82 -235q-88 -95 -235 -95v117q202 0 202 213v18q-122 5 -243 39.5t-211 94.5l61 118q103 -65 203 -100t207 -35q309 0 309 160q0 39 -25.5 63.5t-68.5 40t-98.5 24.5t-116.5 17
q-78 11 -155 26t-140.5 45t-102 80t-38.5 132q0 70 35.5 121t95 85t139.5 50t166 16q123 0 220 -28.5t175 -81.5l-55 -107q-80 56 -162 78.5t-178 22.5q-43 0 -95.5 -7.5t-97.5 -26t-75.5 -48t-30.5 -74.5q0 -39 25.5 -62.5t68.5 -39t98.5 -24.5t116.5 -17q76 -11 153.5 -26
t141 -44t102.5 -79t39 -132z" />
    <glyph glyph-name="Scaron" unicode="&#x160;" 
d="M899 340q0 -82 -34 -148.5t-91 -114.5t-131 -74t-154 -26q-110 0 -202 41t-146 121v-139h-116v397h116q0 -67 31 -122.5t79 -95.5t110.5 -62.5t127.5 -22.5q58 0 107 16.5t86 47t58.5 74.5t21.5 100q0 63 -27.5 108t-74 77t-104.5 54.5t-118 44.5q-71 25 -142 52.5
t-127 69.5t-91 102.5t-35 150.5q0 80 34 142.5t89 105.5t128 65.5t150 22.5q95 0 175.5 -39t125.5 -119v136h121v-373h-121q0 59 -24.5 110.5t-66.5 88t-96 58t-114 21.5q-53 0 -101 -12t-84 -38.5t-57.5 -68.5t-21.5 -100q0 -51 25.5 -87t68.5 -63.5t99.5 -50t115.5 -45.5
q74 -26 147 -58t131 -77t95 -110.5t37 -159.5zM764 1667l-297 -284l-297 288l53 68l246 -207l242 203z" />
    <glyph glyph-name="scaron" unicode="&#x161;" 
d="M907 258q0 -82 -41 -136t-105.5 -86t-144 -45.5t-155.5 -13.5q-127 0 -253 37t-218 97l61 118q103 -65 203 -100t207 -35q309 0 309 160q0 39 -25.5 63.5t-68.5 40t-98.5 24.5t-116.5 17q-78 11 -155 26t-140.5 45t-102 80t-38.5 132q0 70 35.5 121t95 85t139.5 50
t166 16q123 0 220 -28.5t175 -81.5l-55 -107q-80 56 -162 78.5t-178 22.5q-43 0 -95.5 -7.5t-97.5 -26t-75.5 -48t-30.5 -74.5q0 -39 25.5 -62.5t68.5 -39t98.5 -24.5t116.5 -17q76 -11 153.5 -26t141 -44t102.5 -79t39 -132zM764 1296l-297 -284l-297 288l53 68l246 -207
l242 203z" />
    <glyph glyph-name="Tcommaaccent" unicode="&#x162;" 
d="M932 864h-117v324h-280v-1071h210v-117h-559v117h211v1071h-280v-324h-117v441h932v-441zM610 -104l-172 -269h-127l84 269h215z" />
    <glyph glyph-name="tcommaaccent" unicode="&#x163;" 
d="M942 297q-16 -147 -115.5 -233.5t-248.5 -86.5q-82 0 -150 27t-116 75t-74.5 115.5t-26.5 147.5v473h-211v117h211v373h137v-373h397v-117h-397v-473q0 -51 16.5 -96t46 -79t71.5 -53.5t96 -19.5q102 0 170.5 63.5t78.5 164.5zM610 -104l-172 -269h-127l84 269h215z" />
    <glyph glyph-name="Tcaron" unicode="&#x164;" 
d="M932 864h-117v324h-280v-1071h210v-117h-559v117h211v1071h-280v-324h-117v441h932v-441zM764 1667l-297 -284l-297 288l53 68l246 -207l242 203z" />
    <glyph glyph-name="tcaron" unicode="&#x165;" 
d="M942 297q-16 -147 -115.5 -233.5t-248.5 -86.5q-82 0 -150 27t-116 75t-74.5 115.5t-26.5 147.5v473h-211v117h211v373h137v-373h397v-117h-397v-473q0 -51 16.5 -96t46 -79t71.5 -53.5t96 -19.5q102 0 170.5 63.5t78.5 164.5zM930 1492l-84 -465h-101v465h185z" />
    <glyph glyph-name="Tbar" unicode="&#x166;" 
d="M745 608h-210v-491h210v-117h-559v117h211v491h-211v113h211v467h-280v-324h-117v441h932v-441h-117v324h-280v-467h210v-113z" />
    <glyph glyph-name="tbar" unicode="&#x167;" 
d="M559 446h-211v-104q0 -51 16.5 -96t46 -79t71.5 -53.5t96 -19.5q102 0 170.5 63.5t78.5 164.5l115 -25q-16 -147 -115.5 -233.5t-248.5 -86.5q-82 0 -150 27t-116 75t-74.5 115.5t-26.5 147.5v104h-211v113h211v256h-211v117h211v373h137v-373h397v-117h-397v-256h211
v-113z" />
    <glyph glyph-name="Utilde" unicode="&#x168;" 
d="M883 465q0 -111 -24.5 -201t-76 -153.5t-130.5 -98.5t-187 -35q-109 0 -187.5 35t-129 98.5t-75 154.5t-24.5 202v838h137v-840q0 -59 10.5 -125t41 -120t85 -90t142.5 -36t143.5 36t86 90t40.5 120t10 125v840h138v-840zM846 1600q-90 -158 -246 -158q-57 0 -93 18.5
t-63.5 40t-54.5 40t-65 18.5q-103 0 -166 -111l-80 47q92 156 246 156q57 0 93 -18.5t63.5 -40t54 -40t65.5 -18.5q102 0 166 113z" />
    <glyph glyph-name="utilde" unicode="&#x169;" 
d="M49 932h137v-576q0 -125 54.5 -193.5t175.5 -68.5q76 0 137 35t104 93.5t65.5 134t22.5 157.5v418h138v-932h-138v233q-98 -256 -352 -256q-344 0 -344 379v576zM846 1229q-90 -158 -246 -158q-57 0 -93 18.5t-63.5 40t-54.5 40t-65 18.5q-103 0 -166 -111l-80 47
q92 156 246 156q57 0 93 -18.5t63.5 -40t54 -40t65.5 -18.5q102 0 166 113z" />
    <glyph glyph-name="Umacron" unicode="&#x16a;" 
d="M883 465q0 -111 -24.5 -201t-76 -153.5t-130.5 -98.5t-187 -35q-109 0 -187.5 35t-129 98.5t-75 154.5t-24.5 202v838h137v-840q0 -59 10.5 -125t41 -120t85 -90t142.5 -36t143.5 36t86 90t40.5 120t10 125v840h138v-840zM745 1477h-559v113h559v-113z" />
    <glyph glyph-name="umacron" unicode="&#x16b;" 
d="M49 932h137v-576q0 -125 54.5 -193.5t175.5 -68.5q76 0 137 35t104 93.5t65.5 134t22.5 157.5v418h138v-932h-138v233q-98 -256 -352 -256q-344 0 -344 379v576zM745 1106h-559v113h559v-113z" />
    <glyph glyph-name="Ubreve" unicode="&#x16c;" 
d="M883 465q0 -111 -24.5 -201t-76 -153.5t-130.5 -98.5t-187 -35q-109 0 -187.5 35t-129 98.5t-75 154.5t-24.5 202v838h137v-840q0 -59 10.5 -125t41 -120t85 -90t142.5 -36t143.5 36t86 90t40.5 120t10 125v840h138v-840zM752 1581q-117 -116 -285 -116t-285 116l78 76
q94 -94 207 -94t207 94z" />
    <glyph glyph-name="ubreve" unicode="&#x16d;" 
d="M49 932h137v-576q0 -125 54.5 -193.5t175.5 -68.5q76 0 137 35t104 93.5t65.5 134t22.5 157.5v418h138v-932h-138v233q-98 -256 -352 -256q-344 0 -344 379v576zM752 1210q-117 -116 -285 -116t-285 116l78 76q94 -94 207 -94t207 94z" />
    <glyph glyph-name="Uring" unicode="&#x16e;" 
d="M883 465q0 -111 -24.5 -201t-76 -153.5t-130.5 -98.5t-187 -35q-109 0 -187.5 35t-129 98.5t-75 154.5t-24.5 202v838h137v-840q0 -59 10.5 -125t41 -120t85 -90t142.5 -36t143.5 36t86 90t40.5 120t10 125v840h138v-840zM242 1628q0 48 17 88.5t48 71.5t72 48.5t88 17.5
t88 -17.5t71.5 -48.5t48 -71.5t17.5 -88.5q0 -47 -17.5 -88t-48 -71.5t-71.5 -48t-88 -17.5t-88 17.5t-72 48t-48 71.5t-17 88zM332 1628q0 -55 40 -95t95 -40t95 40t40 95q0 56 -40 96t-95 40t-95 -40t-40 -96z" />
    <glyph glyph-name="uring" unicode="&#x16f;" 
d="M49 932h137v-576q0 -125 54.5 -193.5t175.5 -68.5q76 0 137 35t104 93.5t65.5 134t22.5 157.5v418h138v-932h-138v233q-98 -256 -352 -256q-344 0 -344 379v576zM242 1257q0 48 17 88.5t48 71.5t72 48.5t88 17.5t88 -17.5t71.5 -48.5t48 -71.5t17.5 -88.5
q0 -47 -17.5 -88t-48 -71.5t-71.5 -48t-88 -17.5t-88 17.5t-72 48t-48 71.5t-17 88zM332 1257q0 -55 40 -95t95 -40t95 40t40 95q0 56 -40 96t-95 40t-95 -40t-40 -96z" />
    <glyph glyph-name="Uhungarumlaut" unicode="&#x170;" 
d="M883 465q0 -111 -24.5 -201t-76 -153.5t-130.5 -98.5t-187 -35q-109 0 -187.5 35t-129 98.5t-75 154.5t-24.5 202v838h137v-840q0 -59 10.5 -125t41 -120t85 -90t142.5 -36t143.5 36t86 90t40.5 120t10 125v840h138v-840zM682 1395h-141l141 375h186zM309 1395h-139
l139 375h187z" />
    <glyph glyph-name="uhungarumlaut" unicode="&#x171;" 
d="M49 932h137v-576q0 -125 54.5 -193.5t175.5 -68.5q76 0 137 35t104 93.5t65.5 134t22.5 157.5v418h138v-932h-138v233q-98 -256 -352 -256q-344 0 -344 379v576zM682 1024h-141l141 375h186zM309 1024h-139l139 375h187z" />
    <glyph glyph-name="Uogonek" unicode="&#x172;" 
d="M760 -379q-125 0 -196.5 62.5t-71.5 164.5q0 41 10 73t28 61q-16 -2 -32.5 -3.5t-32.5 -1.5q-109 0 -187.5 35t-129 98.5t-75 154.5t-24.5 202v838h137v-840q0 -59 10.5 -125t41 -120t85 -90t142.5 -36t143.5 36t86 90t40.5 120t10 125v840h138v-840q0 -180 -63.5 -301
t-198.5 -164q-50 -45 -50 -121q0 -72 54.5 -120t134.5 -48v-90z" />
    <glyph glyph-name="uogonek" unicode="&#x173;" 
d="M1022 -379q-125 0 -196.5 62.5t-71.5 164.5q0 48 15 85.5t38 66.5h-62v233q-98 -256 -352 -256q-344 0 -344 379v576h137v-576q0 -125 54.5 -193.5t175.5 -68.5q76 0 137 35t104 93.5t65.5 134t22.5 157.5v418h138v-932q-49 -45 -49 -121q0 -72 54 -120t134 -48v-90z" />
    <glyph glyph-name="Wcircumflex" unicode="&#x174;" 
d="M995 1305l-235 -1305h-162l-133 637l-135 -637h-160l-233 1305h145l184 -1074l131 701h135l132 -701l184 1074h147zM764 1452l-53 -67l-242 205l-246 -207l-53 65l297 291z" />
    <glyph glyph-name="wcircumflex" unicode="&#x175;" 
d="M963 932l-189 -932h-160l-149 684l-141 -684h-160l-191 932h146l135 -746l145 746h136l149 -746l135 746h144zM764 1081l-53 -67l-242 205l-246 -207l-53 65l297 291z" />
    <glyph glyph-name="Ycircumflex" unicode="&#x176;" 
d="M952 1188h-106l-311 -625v-446h210v-117h-559v117h211v446l-311 625h-106v117h368v-117h-108l227 -492l225 492h-108v117h368v-117zM764 1452l-53 -67l-242 205l-246 -207l-53 65l297 291z" />
    <glyph glyph-name="ycircumflex" unicode="&#x177;" 
d="M961 932l-504 -1168q-39 -98 -110 -128.5t-157 -30.5q-96 0 -192 35l27 118q47 -20 92 -28.5t73 -8.5q68 0 93.5 33t44.5 78l57 141l-416 959h162l336 -815l330 815h164zM764 1081l-53 -67l-242 205l-246 -207l-53 65l297 291z" />
    <glyph glyph-name="Ydieresis" unicode="&#x178;" 
d="M952 1188h-106l-311 -625v-446h210v-117h-559v117h211v446l-311 625h-106v117h368v-117h-108l227 -492l225 492h-108v117h368v-117zM745 1489h-186v187h186v-187zM373 1489h-187v187h187v-187z" />
    <glyph glyph-name="Zacute" unicode="&#x179;" 
d="M887 0h-838v117l656 1071h-539v-320h-117v437h817v-117l-649 -1071h553v325h117v-442zM711 1628l-432 -243l-37 65l403 287z" />
    <glyph glyph-name="zacute" unicode="&#x17a;" 
d="M887 0h-840v117l635 698h-516v-256h-117v373h815v-117l-635 -698h541v256h117v-373zM711 1254l-432 -243l-37 65l403 287z" />
    <glyph glyph-name="Zdotaccent" unicode="&#x17b;" 
d="M887 0h-838v117l656 1071h-539v-320h-117v437h817v-117l-649 -1071h553v325h117v-442zM559 1491h-186v187h186v-187z" />
    <glyph glyph-name="zdotaccent" unicode="&#x17c;" 
d="M887 0h-840v117l635 698h-516v-256h-117v373h815v-117l-635 -698h541v256h117v-373zM559 1118h-186v187h186v-187z" />
    <glyph glyph-name="Zcaron" unicode="&#x17d;" 
d="M887 0h-838v117l656 1071h-539v-320h-117v437h817v-117l-649 -1071h553v325h117v-442zM764 1669l-297 -284l-297 288l53 68l246 -207l242 203z" />
    <glyph glyph-name="zcaron" unicode="&#x17e;" 
d="M887 0h-840v117l635 698h-516v-256h-117v373h815v-117l-635 -698h541v256h117v-373zM764 1295l-297 -284l-297 288l53 68l246 -207l242 203z" />
    <glyph glyph-name="longs" unicode="&#x17f;" 
d="M535 117h210v-117h-559v117h211v698h-211v117h211q0 192 99.5 293.5t300.5 101.5q47 0 79.5 -3t55.5 -7v-117q-29 4 -60.5 7t-74.5 3q-131 0 -196.5 -66.5t-65.5 -211.5v-815z" />
    <glyph glyph-name="florin" unicode="&#x192;" 
d="M932 932v-117h-397v-831q0 -379 -398 -379q-31 0 -64.5 2t-68.5 6v115q29 -4 58.5 -5.5t74.5 -1.5q127 0 193.5 60.5t66.5 202.5v831h-211v117h211q0 192 99.5 291.5t300.5 99.5q47 0 79.5 -3t55.5 -7v-117q-29 4 -60.5 7t-74.5 3q-131 0 -196.5 -64.5t-65.5 -209.5h397z
" />
    <glyph glyph-name="AEacute" unicode="&#x1fc;" 
d="M932 0h-506v373h-233l-111 -373h-145l395 1305h600v-121h-367v-457h277v-121h-277v-483h367v-123zM426 494v659l-197 -659h197zM711 1630l-432 -243l-37 65l403 287z" />
    <glyph glyph-name="aeacute" unicode="&#x1fd;" 
d="M449 170q-13 -35 -34.5 -68.5t-52 -61.5t-69.5 -45.5t-88 -17.5q-117 0 -179.5 79t-62.5 198q0 80 28.5 138.5t75 95t106.5 54t124 17.5q22 0 46 -1t46 -5v96q0 76 -35 133.5t-106 57.5q-41 0 -88 -36t-82 -95l-86 84q26 43 61 73.5t70 50t67.5 28.5t57.5 9
q78 0 134 -34.5t79 -112.5q28 78 94 112.5t135 34.5q92 0 145.5 -56t79 -138t32.5 -175t7 -167h-428q0 -166 39 -240t117 -74q47 0 83 29t54 94l117 -37q-35 -108 -97.5 -160.5t-164.5 -52.5q-76 0 -139.5 50.5t-85.5 142.5zM807 539q0 163 -32 232t-103 69
q-66 0 -106 -66.5t-40 -234.5h281zM389 438q-12 2 -34.5 3t-45.5 1q-86 0 -147.5 -48t-61.5 -150q0 -54 30 -97t89 -43q33 0 63.5 15.5t54 42t38 62.5t14.5 77v137zM711 1257l-432 -243l-37 65l403 287z" />
    <glyph glyph-name="Oslashacute" unicode="&#x1fe;" 
d="M-45 188l78 84q-35 84 -50.5 179.5t-15.5 199.5q0 131 26.5 253t87 216t156 150.5t230.5 56.5q131 0 224 -53t153 -144l135 146v-160l-82 -86q35 -84 52.5 -179t17.5 -200q0 -131 -27 -253t-86 -215t-154.5 -149.5t-232.5 -56.5q-135 0 -227.5 51.5t-151.5 141.5
l-133 -141v159zM829 651q0 150 -34 271l-615 -654q41 -78 110.5 -126t176.5 -48q106 0 176 50.5t112 130t58 179t16 197.5zM104 651q0 -69 7.5 -138t25.5 -132l613 651q-48 86 -118.5 132t-164.5 46q-107 0 -176.5 -50t-111.5 -131t-58.5 -180t-16.5 -198zM711 1630
l-432 -243l-37 65l403 287z" />
    <glyph glyph-name="oslashacute" unicode="&#x1ff;" 
d="M-43 119l92 74q-69 116 -69 270q0 106 34.5 197.5t99 156t154.5 101t199 36.5q113 0 203 -37.5t155 -105.5l152 121v-119l-94 -76q73 -121 73 -274q0 -109 -34.5 -198t-99 -152.5t-154.5 -99.5t-201 -36q-113 0 -204 37t-157 105l-149 -119v119zM819 463q0 106 -43 190
l-567 -452q47 -49 110.5 -78t147.5 -29q82 0 147.5 28t111.5 77t69.5 116.5t23.5 147.5zM117 463q0 -107 39 -184l569 452q-47 49 -111.5 78t-146.5 29t-147.5 -29t-110.5 -80t-68.5 -118.5t-23.5 -147.5zM711 1257l-432 -243l-37 65l403 287z" />
    <glyph glyph-name="Scommaaccent" unicode="&#x218;" 
d="M899 340q0 -82 -34 -148.5t-91 -114.5t-131 -74t-154 -26q-110 0 -202 41t-146 121v-139h-116v397h116q0 -67 31 -122.5t79 -95.5t110.5 -62.5t127.5 -22.5q58 0 107 16.5t86 47t58.5 74.5t21.5 100q0 63 -27.5 108t-74 77t-104.5 54.5t-118 44.5q-71 25 -142 52.5
t-127 69.5t-91 102.5t-35 150.5q0 80 34 142.5t89 105.5t128 65.5t150 22.5q95 0 175.5 -39t125.5 -119v136h121v-373h-121q0 59 -24.5 110.5t-66.5 88t-96 58t-114 21.5q-53 0 -101 -12t-84 -38.5t-57.5 -68.5t-21.5 -100q0 -51 25.5 -87t68.5 -63.5t99.5 -50t115.5 -45.5
q74 -26 147 -58t131 -77t95 -110.5t37 -159.5zM610 -104l-172 -269h-127l84 269h215z" />
    <glyph glyph-name="scommaaccent" unicode="&#x219;" 
d="M907 258q0 -82 -41 -136t-105.5 -86t-144 -45.5t-155.5 -13.5q-127 0 -253 37t-218 97l61 118q103 -65 203 -100t207 -35q309 0 309 160q0 39 -25.5 63.5t-68.5 40t-98.5 24.5t-116.5 17q-78 11 -155 26t-140.5 45t-102 80t-38.5 132q0 70 35.5 121t95 85t139.5 50
t166 16q123 0 220 -28.5t175 -81.5l-55 -107q-80 56 -162 78.5t-178 22.5q-43 0 -95.5 -7.5t-97.5 -26t-75.5 -48t-30.5 -74.5q0 -39 25.5 -62.5t68.5 -39t98.5 -24.5t116.5 -17q76 -11 153.5 -26t141 -44t102.5 -79t39 -132zM610 -104l-172 -269h-127l84 269h215z" />
    <glyph glyph-name="uni021A" unicode="&#x21a;" 
d="M932 864h-117v324h-280v-1071h210v-117h-559v117h211v1071h-280v-324h-117v441h932v-441zM610 -104l-172 -269h-127l84 269h215z" />
    <glyph glyph-name="uni021B" unicode="&#x21b;" 
d="M942 297q-16 -147 -115.5 -233.5t-248.5 -86.5q-82 0 -150 27t-116 75t-74.5 115.5t-26.5 147.5v473h-211v117h211v373h137v-373h397v-117h-397v-473q0 -51 16.5 -96t46 -79t71.5 -53.5t96 -19.5q102 0 170.5 63.5t78.5 164.5zM610 -104l-172 -269h-127l84 269h215z" />
    <glyph glyph-name="circumflex" unicode="&#x2c6;" 
d="M764 1081l-53 -67l-242 205l-246 -207l-53 65l297 291z" />
    <glyph glyph-name="caron" unicode="&#x2c7;" 
d="M764 1296l-297 -284l-297 288l53 68l246 -207l242 203z" />
    <glyph glyph-name="breve" unicode="&#x2d8;" 
d="M752 1210q-117 -116 -285 -116t-285 116l78 76q94 -94 207 -94t207 94z" />
    <glyph glyph-name="dotaccent" unicode="&#x2d9;" 
d="M559 1118h-186v187h186v-187z" />
    <glyph glyph-name="ring" unicode="&#x2da;" 
d="M242 1257q0 48 17 88.5t48 71.5t72 48.5t88 17.5t88 -17.5t71.5 -48.5t48 -71.5t17.5 -88.5q0 -47 -17.5 -88t-48 -71.5t-71.5 -48t-88 -17.5t-88 17.5t-72 48t-48 71.5t-17 88zM332 1257q0 -55 40 -95t95 -40t95 40t40 95q0 56 -40 96t-95 40t-95 -40t-40 -96z" />
    <glyph glyph-name="ogonek" unicode="&#x2db;" 
d="M1020 -379q-125 0 -196.5 62.5t-71.5 164.5q0 64 26.5 110t65.5 81l37 -39q-50 -45 -50 -121q0 -72 54.5 -120t134.5 -48v-90z" />
    <glyph glyph-name="tilde" unicode="&#x2dc;" 
d="M846 1229q-90 -158 -246 -158q-57 0 -93 18.5t-63.5 40t-54.5 40t-65 18.5q-103 0 -166 -111l-80 47q92 156 246 156q57 0 93 -18.5t63.5 -40t54 -40t65.5 -18.5q102 0 166 113z" />
    <glyph glyph-name="hungarumlaut" unicode="&#x2dd;" 
d="M682 1024h-141l141 375h186zM309 1024h-139l139 375h187z" />
    <glyph glyph-name="tonos" unicode="&#x384;" 
d="M582 1583l-84 -465h-101v465h185z" />
    <glyph glyph-name="dieresistonos" unicode="&#x385;" 
d="M582 1583l-84 -465h-101v465h185zM932 1118h-187v187h187v-187zM186 1118h-186v187h186v-187z" />
    <glyph glyph-name="Alphatonos" unicode="&#x386;" 
d="M995 0h-147l-123 373h-516l-121 -373h-147l434 1305h186zM686 494l-219 673l-219 -673h438zM210 1583l-84 -465h-101v465h185z" />
    <glyph glyph-name="Epsilontonos" unicode="&#x388;" 
d="M883 0h-834v1305h834v-117h-697v-467h514v-117h-514v-487h697v-117zM24 1583l-84 -465h-101v465h185z" />
    <glyph glyph-name="Etatonos" unicode="&#x389;" 
d="M24 1583l-84 -465h-101v465h185zM883 0h-138v604h-559v-604h-137v1305h137v-584h559v584h138v-1305z" />
    <glyph glyph-name="Iotatonos" unicode="&#x38a;" 
d="M208 1583l-84 -465h-101v465h185zM745 0h-559v117h211v1071h-211v117h559v-117h-210v-1071h210v-117z" />
    <glyph glyph-name="Omicrontonos" unicode="&#x38c;" 
d="M967 651q0 -131 -27 -253t-86 -215t-154.5 -149.5t-232.5 -56.5t-232.5 56.5t-155 149.5t-86 215t-26.5 253t26.5 253t87 216t156 150.5t230.5 56.5t230.5 -56.5t154.5 -150.5t87 -216t28 -253zM829 651q0 129 -24.5 232.5t-70.5 176.5t-113.5 111.5t-153.5 38.5
q-107 0 -176.5 -50t-111.5 -131t-58.5 -180t-16.5 -198q0 -98 16.5 -197.5t58.5 -179t111.5 -130t176.5 -50.5q106 0 176 50.5t112 130t58 179t16 197.5zM20 1583l-84 -465h-101v465h185z" />
    <glyph glyph-name="Upsilontonos" unicode="&#x38e;" 
d="M952 1188h-106l-311 -625v-446h210v-117h-559v117h211v446l-311 625h-106v117h368v-117h-108l227 -492l225 492h-108v117h368v-117zM20 1583l-84 -465h-101v465h185z" />
    <glyph glyph-name="Omegatonos" unicode="&#x38f;" 
d="M956 741q0 -145 -55 -281t-180 -229v-114h211v-117h-348v291q67 26 112 77.5t73 113t39 129t11 130.5q0 82 -19.5 166t-62.5 152.5t-109.5 111.5t-160.5 43q-90 0 -156.5 -43t-109.5 -111.5t-63.5 -152.5t-20.5 -166q0 -63 11 -130.5t38 -129t71 -113t111 -77.5v-291
h-348v117h211v114q-121 86 -176 223.5t-55 286.5q0 113 31.5 219.5t93 187.5t152.5 130t210 49t210 -49t153.5 -130t94 -187.5t31.5 -219.5zM20 1583l-84 -465h-101v465h185z" />
    <glyph glyph-name="iotadieresistonos" unicode="&#x390;" 
d="M745 2q-22 -12 -50.5 -18.5t-71.5 -6.5q-45 0 -86 15.5t-72 44.5t-49.5 72t-18.5 98v604h-211v121h349v-725q0 -113 106 -113q49 0 76 17zM582 1583l-84 -465h-101v465h185zM932 1118h-187v187h187v-187zM186 1118h-186v187h186v-187z" />
    <glyph glyph-name="Alpha" unicode="&#x391;" 
d="M995 0h-147l-123 373h-516l-121 -373h-147l434 1305h186zM686 494l-219 673l-219 -673h438z" />
    <glyph glyph-name="Beta" unicode="&#x392;" 
d="M930 373q0 -187 -121 -280t-344 -93h-416v1305h393q82 0 161 -13.5t141.5 -50.5t101.5 -102.5t39 -171.5q0 -203 -203 -277q248 -76 248 -317zM748 967q0 69 -29 113t-74 67.5t-99 32t-104 8.5h-256v-443h256q56 0 110 8.5t97 33t71 67.5t28 113zM793 373
q0 135 -87.5 196.5t-240.5 61.5h-279v-514h279q153 0 240.5 64.5t87.5 191.5z" />
    <glyph glyph-name="Gamma" unicode="&#x393;" 
d="M49 1305h883v-117h-746v-1188h-137v1305z" />
    <glyph glyph-name="uni0394" unicode="&#x394;" 
d="M995 0h-1054l434 1305h186zM809 117l-342 1048l-342 -1048h684z" />
    <glyph glyph-name="Epsilon" unicode="&#x395;" 
d="M883 0h-834v1305h834v-117h-697v-467h514v-117h-514v-487h697v-117z" />
    <glyph glyph-name="Zeta" unicode="&#x396;" 
d="M887 0h-838v117l656 1071h-539v-320h-117v437h817v-117l-649 -1071h553v325h117v-442z" />
    <glyph glyph-name="Eta" unicode="&#x397;" 
d="M883 0h-138v604h-559v-604h-137v1305h137v-584h559v584h138v-1305z" />
    <glyph glyph-name="Theta" unicode="&#x398;" 
d="M229 711h471v-117h-471v117zM967 651q0 -131 -27 -253t-86 -215t-154.5 -149.5t-232.5 -56.5t-232.5 56.5t-155 149.5t-86 215t-26.5 253t26.5 253t87 216t156 150.5t230.5 56.5t230.5 -56.5t154.5 -150.5t87 -216t28 -253zM829 651q0 129 -24.5 232.5t-70.5 176.5
t-113.5 111.5t-153.5 38.5q-107 0 -176.5 -50t-111.5 -131t-58.5 -180t-16.5 -198q0 -98 16.5 -197.5t58.5 -179t111.5 -130t176.5 -50.5q106 0 176 50.5t112 130t58 179t16 197.5z" />
    <glyph glyph-name="Iota" unicode="&#x399;" 
d="M745 0h-559v117h211v1071h-211v117h559v-117h-210v-1071h210v-117z" />
    <glyph glyph-name="Kappa" unicode="&#x39a;" 
d="M926 0h-168l-434 639l-138 -154v-485h-137v1305h137v-635l559 635h181l-512 -570z" />
    <glyph glyph-name="Lambda" unicode="&#x39b;" 
d="M848 0l-381 1165l-379 -1165h-147l434 1305h186l434 -1305h-147z" />
    <glyph glyph-name="Mu" unicode="&#x39c;" 
d="M883 0h-138v1087l-231 -673h-98l-230 673v-1087h-137v1305h178l238 -682l240 682h178v-1305z" />
    <glyph glyph-name="Nu" unicode="&#x39d;" 
d="M883 0h-170l-527 1104v-1104h-137v1305h193l503 -1053v1053h138v-1305z" />
    <glyph glyph-name="Xi" unicode="&#x39e;" 
d="M0 301h121v-184h690v184h121v-301h-932v301zM811 1188h-690v-187h-121v304h932v-304h-121v187zM229 711h471v-117h-471v117z" />
    <glyph glyph-name="Omicron" unicode="&#x39f;" 
d="M967 651q0 -131 -27 -253t-86 -215t-154.5 -149.5t-232.5 -56.5t-232.5 56.5t-155 149.5t-86 215t-26.5 253t26.5 253t87 216t156 150.5t230.5 56.5t230.5 -56.5t154.5 -150.5t87 -216t28 -253zM829 651q0 129 -24.5 232.5t-70.5 176.5t-113.5 111.5t-153.5 38.5
q-107 0 -176.5 -50t-111.5 -131t-58.5 -180t-16.5 -198q0 -98 16.5 -197.5t58.5 -179t111.5 -130t176.5 -50.5q106 0 176 50.5t112 130t58 179t16 197.5z" />
    <glyph glyph-name="Pi" unicode="&#x3a0;" 
d="M883 0h-138v1188h-559v-1188h-137v1305h834v-1305z" />
    <glyph glyph-name="Rho" unicode="&#x3a1;" 
d="M930 932q0 -189 -118 -281t-331 -92h-295v-559h-137v1305h430q215 0 333 -93.5t118 -279.5zM793 932q0 135 -85 195.5t-227 60.5h-295v-512h295q142 0 227 60.5t85 195.5z" />
    <glyph glyph-name="Sigma" unicode="&#x3a3;" 
d="M883 0h-840v117l328 536l-328 535v117h840v-441h-121v324h-555l325 -535l-325 -536h555v325h121v-442z" />
    <glyph glyph-name="Tau" unicode="&#x3a4;" 
d="M932 864h-117v324h-280v-1071h210v-117h-559v117h211v1071h-280v-324h-117v441h932v-441z" />
    <glyph glyph-name="Upsilon" unicode="&#x3a5;" 
d="M952 1188h-106l-311 -625v-446h210v-117h-559v117h211v446l-311 625h-106v117h368v-117h-108l227 -492l225 492h-108v117h368v-117z" />
    <glyph glyph-name="Phi" unicode="&#x3a6;" 
d="M956 655q0 -98 -30.5 -182t-86 -147.5t-133 -103.5t-171.5 -50v-172h-138v174q-94 10 -170.5 50t-132 102.5t-85 146.5t-29.5 182q0 99 29.5 183t85 148.5t132 104t170.5 52.5v162h138v-162q94 -10 171.5 -51t133 -104.5t86 -148.5t30.5 -184zM819 655q0 70 -19.5 132.5
t-55 111.5t-89 81t-120.5 44v-731q135 22 209.5 121.5t74.5 240.5zM117 655q0 -141 72.5 -240.5t207.5 -121.5v731q-67 -12 -119.5 -45t-88 -81t-54 -110.5t-18.5 -132.5z" />
    <glyph glyph-name="Chi" unicode="&#x3a7;" 
d="M954 0h-370v117h88l-205 428l-207 -428h88v-117h-371v117h127l283 540l-278 531h-109v117h373v-117h-109l203 -418l197 418h-105v117h373v-117h-113l-272 -531l280 -540h127v-117z" />
    <glyph glyph-name="Psi" unicode="&#x3a8;" 
d="M883 807q0 -205 -84 -333t-264 -150v-324h-138v324q-182 22 -265 151t-83 334v496h137v-498q0 -53 8.5 -111.5t31 -109.5t63.5 -90t108 -54v863h138v-863q65 15 106 54t64.5 90t31.5 109.5t8 111.5v498h138v-498z" />
    <glyph glyph-name="uni03A9" unicode="&#x3a9;" 
d="M956 741q0 -145 -55 -281t-180 -229v-114h211v-117h-348v291q67 26 112 77.5t73 113t39 129t11 130.5q0 82 -19.5 166t-62.5 152.5t-109.5 111.5t-160.5 43q-90 0 -156.5 -43t-109.5 -111.5t-63.5 -152.5t-20.5 -166q0 -63 11 -130.5t38 -129t71 -113t111 -77.5v-291
h-348v117h211v114q-121 86 -176 223.5t-55 286.5q0 113 31.5 219.5t93 187.5t152.5 130t210 49t210 -49t153.5 -130t94 -187.5t31.5 -219.5z" />
    <glyph glyph-name="Iotadieresis" unicode="&#x3aa;" 
d="M745 0h-559v117h211v1071h-211v117h559v-117h-210v-1071h210v-117zM745 1491h-186v187h186v-187zM373 1491h-187v187h187v-187z" />
    <glyph glyph-name="Upsilondieresis" unicode="&#x3ab;" 
d="M745 1491h-186v187h186v-187zM373 1491h-187v187h187v-187zM952 1188h-106l-311 -625v-446h210v-117h-559v117h211v446l-311 625h-106v117h368v-117h-108l227 -492l225 492h-108v117h368v-117z" />
    <glyph glyph-name="alphatonos" unicode="&#x3ac;" 
d="M139 467q0 -64 13.5 -129.5t43 -119.5t78 -89t115.5 -35q60 0 106 35t81.5 88t61.5 119.5t46 130.5q-20 63 -46 129t-61.5 119t-81.5 88t-106 35q-67 0 -115.5 -35t-78 -88t-43 -119t-13.5 -129zM2 467q0 94 22.5 182t70.5 155.5t121 108.5t173 41q123 0 214 -77.5
t132 -214.5l56 270h147l-131 -465l131 -467h-147l-56 270q-41 -137 -132 -215t-214 -78q-100 0 -173 41t-121 110t-70.5 157t-22.5 182zM582 1583l-84 -465h-101v465h185z" />
    <glyph glyph-name="epsilontonos" unicode="&#x3ad;" 
d="M12 676q0 63 33 115.5t92.5 88t140 55t177.5 19.5q153 0 253.5 -50t161.5 -150l-102 -70q-41 70 -118 112t-195 42q-142 0 -223.5 -44t-81.5 -118q0 -25 15 -50.5t47 -46t81 -34t115 -13.5h206v-116h-206q-68 0 -118 -13.5t-84 -35t-51.5 -49t-17.5 -54.5q0 -80 91 -125
t239 -45q123 0 205 38t129 110l96 -66q-63 -100 -166.5 -149.5t-263.5 -49.5q-100 0 -185 19.5t-147.5 56.5t-98.5 90.5t-36 120.5q0 72 56.5 131.5t148.5 77.5q-99 16 -146 75.5t-47 127.5zM582 1583l-84 -465h-101v465h185z" />
    <glyph glyph-name="etatonos" unicode="&#x3ae;" 
d="M303 774q31 78 96.5 129t169.5 51q154 0 234 -92t80 -284v-951h-138v951q0 116 -43 188t-133 72q-104 0 -174.5 -80t-70.5 -226v-532h-138v748q0 43 -22.5 66.5t-57.5 23.5q-34 0 -67 -15l-27 107q21 10 49.5 17t57.5 7q71 0 125.5 -44t58.5 -136zM582 1583l-84 -465
h-101v465h185z" />
    <glyph glyph-name="iotatonos" unicode="&#x3af;" 
d="M745 2q-22 -12 -50.5 -18.5t-71.5 -6.5q-45 0 -86 15.5t-72 44.5t-49.5 72t-18.5 98v604h-211v121h349v-725q0 -113 106 -113q49 0 76 17zM582 1583l-84 -465h-101v465h185z" />
    <glyph glyph-name="upsilondieresistonos" unicode="&#x3b0;" 
d="M467 -23q-94 0 -171 24t-132 72t-85 118.5t-30 166.5v574h137v-574q0 -61 22.5 -110t60.5 -83t89.5 -51.5t108.5 -17.5q92 0 154.5 39t100.5 100.5t55.5 135t17.5 141.5q0 104 -18.5 198.5t-61.5 186.5l133 53q41 -96 62.5 -205.5t21.5 -232.5q0 -94 -26.5 -189.5
t-83 -172t-144.5 -125t-211 -48.5zM582 1583l-84 -465h-101v465h185zM932 1118h-187v187h187v-187zM186 1118h-186v187h186v-187z" />
    <glyph glyph-name="alpha" unicode="&#x3b1;" 
d="M139 467q0 -64 13.5 -129.5t43 -119.5t78 -89t115.5 -35q60 0 106 35t81.5 88t61.5 119.5t46 130.5q-20 63 -46 129t-61.5 119t-81.5 88t-106 35q-67 0 -115.5 -35t-78 -88t-43 -119t-13.5 -129zM2 467q0 94 22.5 182t70.5 155.5t121 108.5t173 41q123 0 214 -77.5
t132 -214.5l56 270h147l-131 -465l131 -467h-147l-56 270q-41 -137 -132 -215t-214 -78q-100 0 -173 41t-121 110t-70.5 157t-22.5 182z" />
    <glyph glyph-name="beta" unicode="&#x3b2;" 
d="M494 -23q-99 0 -171.5 24t-136.5 73v-447h-137v1311q0 84 33 155.5t89 124t134 81t168 28.5q96 0 172 -29.5t128 -76.5t80 -109.5t28 -126.5q0 -104 -58.5 -184t-167.5 -117q133 -41 207 -124t74 -206q0 -82 -33 -150.5t-91 -118.5t-139 -79t-179 -29zM494 94
q143 0 224 72t81 188q0 117 -85 190.5t-251 73.5h-90v117h90q145 0 212.5 71t67.5 179q0 37 -15 77t-47 72.5t-83 54t-125 21.5q-53 0 -104.5 -16t-92 -50t-65.5 -85t-25 -121v-723q60 -65 133.5 -93t174.5 -28z" />
    <glyph glyph-name="gamma" unicode="&#x3b3;" 
d="M891 932q-17 -119 -45.5 -246t-71.5 -253t-102.5 -246.5t-136.5 -227.5v-332h-138v330l-397 975h158l317 -844q119 199 188.5 413t88.5 431h139z" />
    <glyph glyph-name="delta" unicode="&#x3b4;" 
d="M334 1092q0 -41 41 -79t102.5 -79t134 -90t134 -112.5t102.5 -143.5t41 -182q0 -97 -30 -174.5t-85 -135t-134 -88.5t-177 -31q-96 0 -175 31t-134.5 88.5t-85 135t-29.5 174.5q0 118 83 237t251 211q-37 25 -69 50.5t-55.5 53t-37.5 60.5t-14 74q0 43 19.5 85t57 75.5
t92 54t123.5 20.5q84 0 150 -16.5t127 -57.5l-61 -98q-48 33 -101 44t-115 11q-67 0 -111 -29.5t-44 -88.5zM752 406q0 114 -74 208.5t-207 165.5q-133 -71 -214 -165.5t-81 -211.5q0 -57 15.5 -112t49 -99.5t89 -71t133.5 -26.5t133 28t90 72t50.5 99t15.5 113z" />
    <glyph glyph-name="epsilon" unicode="&#x3b5;" 
d="M12 676q0 63 33 115.5t92.5 88t140 55t177.5 19.5q153 0 253.5 -50t161.5 -150l-102 -70q-41 70 -118 112t-195 42q-142 0 -223.5 -44t-81.5 -118q0 -25 15 -50.5t47 -46t81 -34t115 -13.5h206v-116h-206q-68 0 -118 -13.5t-84 -35t-51.5 -49t-17.5 -54.5q0 -80 91 -125
t239 -45q123 0 205 38t129 110l96 -66q-63 -100 -166.5 -149.5t-263.5 -49.5q-100 0 -185 19.5t-147.5 56.5t-98.5 90.5t-36 120.5q0 72 56.5 131.5t148.5 77.5q-99 16 -146 75.5t-47 127.5z" />
    <glyph glyph-name="zeta" unicode="&#x3b6;" 
d="M770 -115q0 37 -16.5 58.5t-46 34t-73.5 18.5t-99 10q-84 6 -178.5 23.5t-173.5 67.5t-130 144.5t-51 254.5q0 104 50 205.5t137 191.5t203 166t247 129h-453v117h746v-117q-184 -49 -331.5 -129t-250 -174t-157 -195.5t-54.5 -193.5q0 -113 36 -183.5t93.5 -110.5
t131 -55.5t147.5 -21.5q71 -6 137 -16.5t115 -36t78.5 -69.5t29.5 -118q0 -86 -58 -162.5t-175 -117.5l-60 104q88 33 122 81t34 95z" />
    <glyph glyph-name="eta" unicode="&#x3b7;" 
d="M303 774q31 78 96.5 129t169.5 51q154 0 234 -92t80 -284v-951h-138v951q0 116 -43 188t-133 72q-104 0 -174.5 -80t-70.5 -226v-532h-138v748q0 43 -22.5 66.5t-57.5 23.5q-34 0 -67 -15l-27 107q21 10 49.5 17t57.5 7q71 0 125.5 -44t58.5 -136z" />
    <glyph glyph-name="theta" unicode="&#x3b8;" 
d="M895 651q0 -149 -24.5 -273t-76 -213t-133 -138.5t-194.5 -49.5q-115 0 -194.5 49.5t-132 138.5t-76 213t-23.5 273q0 148 23.5 272t76 214t132 140t194.5 50t195.5 -50t133 -139t76 -214t23.5 -273zM467 94q78 0 132 39t88 107.5t49.5 163t19.5 202.5h-576
q2 -108 18.5 -202.5t50.5 -163t87 -107.5t131 -39zM467 1210q-78 0 -131 -36.5t-87 -102t-50.5 -155t-18.5 -193.5h576q-4 104 -20.5 193.5t-50.5 155t-87 102t-131 36.5z" />
    <glyph glyph-name="iota" unicode="&#x3b9;" 
d="M745 2q-22 -12 -50.5 -18.5t-71.5 -6.5q-45 0 -86 15.5t-72 44.5t-49.5 72t-18.5 98v604h-211v121h349v-725q0 -113 106 -113q49 0 76 17z" />
    <glyph glyph-name="kappa" unicode="&#x3ba;" 
d="M930 0h-195l-381 418l-168 -154v-264h-137v932h137v-502l531 502h196l-467 -428z" />
    <glyph glyph-name="lambda" unicode="&#x3bb;" 
d="M797 0l-330 815l-336 -815h-162l416 958l-57 142q-19 45 -44.5 77.5t-93.5 32.5q-28 0 -73 -8t-92 -28l-27 118q96 35 192 35q86 0 157 -30.5t110 -129.5l504 -1167h-164z" />
    <glyph glyph-name="uni03BC" unicode="&#x3bc;" 
d="M629 158q-21 -76 -89.5 -128.5t-166.5 -52.5q-60 0 -112 31t-75 88v-469h-137v1305h137v-613q0 -106 54.5 -165.5t132.5 -59.5q47 0 89 20.5t74.5 59.5t51 96.5t18.5 128.5v533h139v-746q0 -45 20.5 -68.5t49.5 -23.5q49 0 78 17l27 -109q-21 -12 -45.5 -18.5t-61.5 -6.5
q-72 0 -126 44.5t-58 136.5z" />
    <glyph glyph-name="nu" unicode="&#x3bd;" 
d="M891 932q-35 -240 -124 -479.5t-247 -452.5h-139l-381 932h164l303 -799q119 197 182.5 389.5t81.5 409.5h160z" />
    <glyph glyph-name="xi" unicode="&#x3be;" 
d="M283 688q-111 35 -168.5 118t-57.5 179q0 78 34 141.5t90.5 107.5t130 68.5t153.5 24.5q78 0 160 -17.5t145 -52.5l-43 -106q-70 35 -131 47t-131 12q-117 0 -193.5 -62.5t-76.5 -162.5q0 -113 69.5 -176.5t210.5 -63.5h246v-116h-246q-76 0 -138.5 -19.5t-106.5 -55.5
t-67.5 -83t-23.5 -102q0 -78 35 -124t92.5 -70.5t131 -34t149.5 -15.5q71 -6 137 -16.5t115 -36t78.5 -69.5t29.5 -118q0 -86 -58 -162.5t-175 -117.5l-60 104q88 33 122 81t34 95q0 37 -16.5 58.5t-46 34t-73.5 18.5t-99 10q-117 10 -214.5 27.5t-168 57.5t-110.5 106.5
t-40 175.5q0 108 74 191t207 124z" />
    <glyph glyph-name="omicron" unicode="&#x3bf;" 
d="M956 463q0 -109 -34.5 -198t-99 -152.5t-154.5 -99.5t-201 -36q-109 0 -199 36t-154.5 99.5t-99 152.5t-34.5 198q0 106 34.5 197.5t99 156t154.5 101t199 36.5q111 0 201 -36.5t154.5 -101t99 -156t34.5 -197.5zM819 463q0 80 -23.5 147.5t-69.5 118.5t-111.5 80
t-147.5 29t-147.5 -29t-110.5 -80t-68.5 -118.5t-23.5 -147.5t23.5 -147.5t68.5 -116.5t110.5 -77t147.5 -28t147.5 28t111.5 77t69.5 116.5t23.5 147.5z" />
    <glyph glyph-name="pi" unicode="&#x3c0;" 
d="M721 207q0 -53 35 -81t86 -28q28 0 45.5 4t32.5 13l26 -113q-41 -25 -123 -25q-45 0 -88 15.5t-76.5 44.5t-54 72t-20.5 98v602h-236q0 -397 -43 -809h-139q22 201 33.5 402.5t11.5 406.5h-211v123h932v-123h-211v-602z" />
    <glyph glyph-name="rho" unicode="&#x3c1;" 
d="M932 465q0 -109 -33 -198t-93.5 -153.5t-148.5 -100.5t-198 -36q-150 0 -273 97v-447h-137v838q0 92 24.5 180t77 156.5t132 110.5t190.5 42q105 0 190 -35.5t145 -101t92 -156t32 -196.5zM795 465q0 80 -20.5 147.5t-61.5 117.5t-101.5 79t-138.5 29q-61 0 -114.5 -20.5
t-91.5 -65.5t-59.5 -116t-21.5 -171v-250q60 -65 127.5 -93t145.5 -28q84 0 146.5 29t104.5 78t63.5 116.5t21.5 147.5z" />
    <glyph glyph-name="sigma1" unicode="&#x3c2;" 
d="M2 465q0 108 36 198.5t100.5 155t154.5 100t199 35.5q141 0 243.5 -54t161.5 -146l-96 -66q-43 68 -124 109t-185 41q-82 0 -147.5 -29t-111 -79t-70 -117.5t-24.5 -147.5q0 -94 36 -156.5t93.5 -101.5t131 -57.5t147.5 -24.5q71 -6 137 -16.5t115 -36t78.5 -69.5
t29.5 -118q0 -86 -58 -162.5t-175 -117.5l-60 104q88 33 122 81t34 95q0 37 -16.5 58.5t-46 34t-73.5 18.5t-99 10q-111 8 -207.5 36t-169 81t-114.5 136t-42 206z" />
    <glyph glyph-name="sigma" unicode="&#x3c3;" 
d="M649 815q43 -18 85 -57t76 -91.5t54.5 -112.5t20.5 -122q0 -102 -33 -185t-93.5 -143.5t-143.5 -93.5t-183 -33q-102 0 -185 36t-142.5 99.5t-92 152.5t-32.5 198q0 106 36.5 193t102 148.5t156 94.5t196.5 33h547v-117h-369zM469 815q-170 0 -261 -96t-91 -256
q0 -78 21.5 -145.5t62.5 -116.5t98 -78t131 -29t132.5 25.5t100.5 69.5t63.5 106.5t21.5 136.5q0 60 -17.5 119t-50.5 111.5t-78 92.5t-102 60h-31z" />
    <glyph glyph-name="tau" unicode="&#x3c4;" 
d="M397 815h-397v117h932v-117h-397v-608q0 -113 106 -113q29 0 46.5 4t31.5 11l26 -107q-40 -25 -122 -25q-45 0 -86 15.5t-72 44.5t-49.5 72t-18.5 98v608z" />
    <glyph glyph-name="upsilon" unicode="&#x3c5;" 
d="M467 -23q-94 0 -171 24t-132 72t-85 118.5t-30 166.5v574h137v-574q0 -61 22.5 -110t60.5 -83t89.5 -51.5t108.5 -17.5q92 0 154.5 39t100.5 100.5t55.5 135t17.5 141.5q0 104 -18.5 198.5t-61.5 186.5l133 53q41 -96 62.5 -205.5t21.5 -232.5q0 -94 -26.5 -189.5
t-83 -172t-144.5 -125t-211 -48.5z" />
    <glyph glyph-name="phi" unicode="&#x3c6;" 
d="M596 954q82 0 148.5 -35.5t113.5 -100t73.5 -155t26.5 -198.5q0 -98 -30.5 -183t-86 -147.5t-133 -102.5t-173.5 -50v-355h-138v355q-94 10 -170.5 50t-132 103.5t-85 147.5t-29.5 182q0 131 50 245.5t142 184.5l82 -94q-66 -53 -101.5 -140.5t-35.5 -195.5
q0 -141 72.5 -241.5t207.5 -123.5v643q0 43 9.5 82t32 68t60.5 45t97 16zM535 100q135 23 210.5 123.5t75.5 241.5q0 80 -20.5 147.5t-52 117.5t-72.5 79t-80 29q-35 0 -48 -22.5t-13 -72.5v-643z" />
    <glyph glyph-name="chi" unicode="&#x3c7;" 
d="M780 -395l-311 555l-313 -533h-164l397 643l-371 617l121 69l330 -575l301 551h162l-383 -662l350 -594z" />
    <glyph glyph-name="psi" unicode="&#x3c8;" 
d="M883 465q0 -205 -84 -333t-264 -150v-355h-138v355q-182 22 -265 151t-83 334v465h137v-467q0 -53 8.5 -111.5t31 -109.5t63.5 -90t108 -54v1018h138v-1018q65 15 106 54t64.5 90t31.5 109.5t8 111.5v467h138v-467z" />
    <glyph glyph-name="omega" unicode="&#x3c9;" 
d="M467 162q-23 -82 -80 -133.5t-137 -51.5q-72 0 -122 34t-82 93.5t-46 143.5t-14 184q0 62 5 132.5t16 140t26.5 134t36.5 111.5l135 -53q-23 -45 -38 -103.5t-25.5 -122t-14.5 -126t-4 -113.5q0 -172 28.5 -255t98.5 -83q61 0 104 82t43 230v337h138v-337q0 -148 44 -230
t105 -82q70 0 99.5 83t29.5 255q0 51 -5 113.5t-15.5 126t-25.5 122t-38 103.5l135 53q21 -47 37.5 -111.5t26.5 -134t16 -140t6 -132.5q0 -100 -14 -184t-46 -143.5t-82 -93.5t-124 -34q-80 0 -137.5 51.5t-79.5 133.5z" />
    <glyph glyph-name="iotadieresis" unicode="&#x3ca;" 
d="M745 2q-22 -12 -50.5 -18.5t-71.5 -6.5q-45 0 -86 15.5t-72 44.5t-49.5 72t-18.5 98v604h-211v121h349v-725q0 -113 106 -113q49 0 76 17zM745 1118h-186v187h186v-187zM373 1118h-187v187h187v-187z" />
    <glyph glyph-name="upsilondieresis" unicode="&#x3cb;" 
d="M467 -23q-94 0 -171 24t-132 72t-85 118.5t-30 166.5v574h137v-574q0 -61 22.5 -110t60.5 -83t89.5 -51.5t108.5 -17.5q92 0 154.5 39t100.5 100.5t55.5 135t17.5 141.5q0 104 -18.5 198.5t-61.5 186.5l133 53q41 -96 62.5 -205.5t21.5 -232.5q0 -94 -26.5 -189.5
t-83 -172t-144.5 -125t-211 -48.5zM745 1118h-186v187h186v-187zM373 1118h-187v187h187v-187z" />
    <glyph glyph-name="omicrontonos" unicode="&#x3cc;" 
d="M956 463q0 -109 -34.5 -198t-99 -152.5t-154.5 -99.5t-201 -36q-109 0 -199 36t-154.5 99.5t-99 152.5t-34.5 198q0 106 34.5 197.5t99 156t154.5 101t199 36.5q111 0 201 -36.5t154.5 -101t99 -156t34.5 -197.5zM819 463q0 80 -23.5 147.5t-69.5 118.5t-111.5 80
t-147.5 29t-147.5 -29t-110.5 -80t-68.5 -118.5t-23.5 -147.5t23.5 -147.5t68.5 -116.5t110.5 -77t147.5 -28t147.5 28t111.5 77t69.5 116.5t23.5 147.5zM582 1583l-84 -465h-101v465h185z" />
    <glyph glyph-name="upsilontonos" unicode="&#x3cd;" 
d="M467 -23q-94 0 -171 24t-132 72t-85 118.5t-30 166.5v574h137v-574q0 -61 22.5 -110t60.5 -83t89.5 -51.5t108.5 -17.5q92 0 154.5 39t100.5 100.5t55.5 135t17.5 141.5q0 104 -18.5 198.5t-61.5 186.5l133 53q41 -96 62.5 -205.5t21.5 -232.5q0 -94 -26.5 -189.5
t-83 -172t-144.5 -125t-211 -48.5zM582 1583l-84 -465h-101v465h185z" />
    <glyph glyph-name="omegatonos" unicode="&#x3ce;" 
d="M467 162q-23 -82 -80 -133.5t-137 -51.5q-72 0 -122 34t-82 93.5t-46 143.5t-14 184q0 62 5 132.5t16 140t26.5 134t36.5 111.5l135 -53q-23 -45 -38 -103.5t-25.5 -122t-14.5 -126t-4 -113.5q0 -172 28.5 -255t98.5 -83q61 0 104 82t43 230v337h138v-337q0 -148 44 -230
t105 -82q70 0 99.5 83t29.5 255q0 51 -5 113.5t-15.5 126t-25.5 122t-38 103.5l135 53q21 -47 37.5 -111.5t26.5 -134t16 -140t6 -132.5q0 -100 -14 -184t-46 -143.5t-82 -93.5t-124 -34q-80 0 -137.5 51.5t-79.5 133.5zM582 1583l-84 -465h-101v465h185z" />
    <glyph glyph-name="afii10023" unicode="&#x401;" 
d="M883 0h-834v1305h834v-117h-697v-467h514v-117h-514v-487h697v-117zM745 1491h-186v187h186v-187zM373 1491h-187v187h187v-187z" />
    <glyph glyph-name="afii10051" unicode="&#x402;" 
d="M-137 1305h510v-117h-187v-490q99 256 353 256q344 0 344 -379v-368q0 -55 -18.5 -98t-49.5 -72t-72 -44.5t-86 -15.5q-84 0 -122 25l26 109q14 -9 31.5 -13t46.5 -4q106 0 106 113v368q0 125 -54 194t-175 69q-76 0 -137.5 -35t-104.5 -93.5t-65.5 -134t-22.5 -157.5
v-418h-137v1188h-186v117z" />
    <glyph glyph-name="afii10052" unicode="&#x403;" 
d="M49 1305h883v-117h-746v-1188h-137v1305zM711 1628l-432 -243l-37 65l403 287z" />
    <glyph glyph-name="afii10053" unicode="&#x404;" 
d="M940 342q-51 -167 -167 -267q-116 -98 -292 -98q-91 0 -163.5 26t-128.5 71.5t-95.5 108.5t-65 138t-37 158.5t-11.5 171.5q0 131 27 253t86.5 216t155 150.5t232.5 56.5q121 0 206.5 -43t127.5 -131v152h117v-428h-117q0 70 -26.5 131t-71.5 106t-106 70.5t-130 25.5
q-96 0 -163 -42t-109.5 -111t-64 -157t-26.5 -179h582v-117h-582q3 -88 20.5 -173.5t55.5 -156.5q21 -39 48.5 -72t63 -57t79 -37.5t96.5 -13.5q244 0 340 295z" />
    <glyph glyph-name="afii10054" unicode="&#x405;" 
d="M899 340q0 -82 -34 -148.5t-91 -114.5t-131 -74t-154 -26q-110 0 -202 41t-146 121v-139h-116v397h116q0 -67 31 -122.5t79 -95.5t110.5 -62.5t127.5 -22.5q58 0 107 16.5t86 47t58.5 74.5t21.5 100q0 63 -27.5 108t-74 77t-104.5 54.5t-118 44.5q-71 25 -142 52.5
t-127 69.5t-91 102.5t-35 150.5q0 80 34 142.5t89 105.5t128 65.5t150 22.5q95 0 175.5 -39t125.5 -119v136h121v-373h-121q0 59 -24.5 110.5t-66.5 88t-96 58t-114 21.5q-53 0 -101 -12t-84 -38.5t-57.5 -68.5t-21.5 -100q0 -51 25.5 -87t68.5 -63.5t99.5 -50t115.5 -45.5
q74 -26 147 -58t131 -77t95 -110.5t37 -159.5z" />
    <glyph glyph-name="afii10055" unicode="&#x406;" 
d="M745 0h-559v117h211v1071h-211v117h559v-117h-210v-1071h210v-117z" />
    <glyph glyph-name="afii10056" unicode="&#x407;" 
d="M745 0h-559v117h211v1071h-211v117h559v-117h-210v-1071h210v-117zM745 1489h-186v187h186v-187zM373 1489h-187v187h187v-187z" />
    <glyph glyph-name="afii10057" unicode="&#x408;" 
d="M883 498q0 -248 -105.5 -384.5t-322.5 -136.5q-174 0 -292 91.5t-165 273.5l119 45q43 -162 128 -227.5t210 -65.5q92 0 149.5 37t88 94.5t41.5 129t11 143.5v807h138v-807z" />
    <glyph glyph-name="afii10058" unicode="&#x409;" 
d="M786 369q0 127 -54 193.5t-146 66.5h-76v-512h76q92 0 146 63.5t54 188.5zM510 1305v-560h74q161 0 250.5 -94t89.5 -282q0 -187 -89.5 -278t-252.5 -91h-209v1188h-187v-981q0 -55 -16 -98t-45 -72t-67 -44.5t-81 -15.5q-40 0 -67 4.5t-49 14.5l24 115q13 -9 29 -13
t41 -4q94 0 94 113v1098h461z" />
    <glyph glyph-name="afii10059" unicode="&#x40a;" 
d="M786 369q0 127 -54 193.5t-146 66.5h-76v-512h76q92 0 146 63.5t54 188.5zM49 0v1305h137v-560h187v560h137v-560h74q161 0 250.5 -94t89.5 -282q0 -187 -89.5 -278t-252.5 -91h-209v629h-187v-629h-137z" />
    <glyph glyph-name="afii10060" unicode="&#x40b;" 
d="M-137 1305h510v-117h-187v-490q99 256 353 256q344 0 344 -379v-575h-138v575q0 125 -54 194t-175 69q-76 0 -137.5 -35t-104.5 -93.5t-65.5 -134t-22.5 -157.5v-418h-137v1188h-186v117z" />
    <glyph glyph-name="afii10061" unicode="&#x40c;" 
d="M926 0h-168l-434 639l-138 -154v-485h-137v1305h137v-635l559 635h181l-512 -570zM711 1628l-432 -243l-37 65l403 287z" />
    <glyph glyph-name="afii10062" unicode="&#x40e;" 
d="M961 1305l-504 -1168q-39 -98 -110 -129t-157 -31q-96 0 -192 35l27 119q47 -20 92 -28.5t73 -8.5q68 0 93.5 33t44.5 78l57 141l-416 959h162l336 -816l330 816h164zM752 1583q-117 -116 -285 -116t-285 116l78 76q94 -94 207 -94t207 94z" />
    <glyph glyph-name="afii10145" unicode="&#x40f;" 
d="M883 0h-348v-319h-138v319h-348v1305h137v-1188h559v1188h138v-1305z" />
    <glyph glyph-name="afii10017" unicode="&#x410;" 
d="M995 0h-147l-123 373h-516l-121 -373h-147l434 1305h186zM686 494l-219 673l-219 -673h438z" />
    <glyph glyph-name="afii10018" unicode="&#x411;" 
d="M793 369q0 127 -85 193.5t-227 66.5h-295v-512h295q142 0 227 63.5t85 188.5zM186 745h295q213 0 331 -94t118 -282q0 -187 -118 -278t-333 -91h-430v1305h834v-117h-697v-443z" />
    <glyph glyph-name="afii10019" unicode="&#x412;" 
d="M930 373q0 -187 -121 -280t-344 -93h-416v1305h393q82 0 161 -13.5t141.5 -50.5t101.5 -102.5t39 -171.5q0 -203 -203 -277q248 -76 248 -317zM748 967q0 69 -29 113t-74 67.5t-99 32t-104 8.5h-256v-443h256q56 0 110 8.5t97 33t71 67.5t28 113zM793 373
q0 135 -87.5 196.5t-240.5 61.5h-279v-514h279q153 0 240.5 64.5t87.5 191.5z" />
    <glyph glyph-name="afii10020" unicode="&#x413;" 
d="M49 1305h883v-117h-746v-1188h-137v1305z" />
    <glyph glyph-name="afii10021" unicode="&#x414;" 
d="M0 117q57 49 101 105.5t74 150.5t45.5 239.5t15.5 370.5v322h509v-1188h187v-436h-123v319h-686v-319h-123v436zM373 983q0 -176 -11.5 -311t-36 -239.5t-64.5 -181.5t-97 -134h444v1071h-235v-205z" />
    <glyph glyph-name="afii10022" unicode="&#x415;" 
d="M883 0h-834v1305h834v-117h-697v-467h514v-117h-514v-487h697v-117z" />
    <glyph glyph-name="afii10024" unicode="&#x416;" 
d="M397 0v518l-55 100l-262 -618h-143l319 737l-319 568h149l311 -580v580h138v-580l311 580h149l-319 -568l319 -737h-143l-262 618l-55 -100v-518h-138z" />
    <glyph glyph-name="afii10025" unicode="&#x417;" 
d="M920 360q0 -86 -35 -156.5t-93.5 -120.5t-135 -78t-160.5 -28q-94 0 -176 25.5t-144.5 76.5t-101.5 126t-47 174l133 18q12 -150 105 -227q92 -76 231 -76q59 0 111 20t91 55t61.5 84t22.5 107q0 80 -25 130.5t-73.5 79t-119.5 38.5t-163 10v117q67 0 131 11t114 38
t81 71.5t31 111.5q0 110 -73 176q-73 67 -189 67q-65 0 -125.5 -25t-102.5 -66q-40 -38 -67 -94t-27 -132h-125v412h117v-152q24 49 61 82t81 53.5t92 29.5t96 9q84 0 157 -24.5t126.5 -70.5t84.5 -113t31 -152q0 -112 -66 -185t-190 -92q69 -10 121.5 -40t88 -74.5
t53.5 -100t18 -115.5z" />
    <glyph glyph-name="afii10026" unicode="&#x418;" 
d="M49 1305h137v-1053l504 1053h193v-1305h-138v1104l-526 -1104h-170v1305z" />
    <glyph glyph-name="afii10027" unicode="&#x419;" 
d="M49 1305h137v-1053l504 1053h193v-1305h-138v1104l-526 -1104h-170v1305zM752 1581q-117 -116 -285 -116t-285 116l78 76q94 -94 207 -94t207 94z" />
    <glyph glyph-name="afii10028" unicode="&#x41a;" 
d="M926 0h-168l-434 639l-138 -154v-485h-137v1305h137v-635l559 635h181l-512 -570z" />
    <glyph glyph-name="afii10029" unicode="&#x41b;" 
d="M883 1305v-1305h-138v1188h-421v-981q0 -55 -18.5 -98t-49.5 -72t-72 -44.5t-86 -15.5q-84 0 -123 25l27 109q14 -9 31.5 -13t46.5 -4q106 0 106 113v1098h697z" />
    <glyph glyph-name="afii10030" unicode="&#x41c;" 
d="M883 0h-138v1087l-231 -673h-98l-230 673v-1087h-137v1305h178l238 -682l240 682h178v-1305z" />
    <glyph glyph-name="afii10031" unicode="&#x41d;" 
d="M883 0h-138v604h-559v-604h-137v1305h137v-584h559v584h138v-1305z" />
    <glyph glyph-name="afii10032" unicode="&#x41e;" 
d="M967 651q0 -131 -27 -253t-86 -215t-154.5 -149.5t-232.5 -56.5t-232.5 56.5t-155 149.5t-86 215t-26.5 253t26.5 253t87 216t156 150.5t230.5 56.5t230.5 -56.5t154.5 -150.5t87 -216t28 -253zM829 651q0 129 -24.5 232.5t-70.5 176.5t-113.5 111.5t-153.5 38.5
q-107 0 -176.5 -50t-111.5 -131t-58.5 -180t-16.5 -198q0 -98 16.5 -197.5t58.5 -179t111.5 -130t176.5 -50.5q106 0 176 50.5t112 130t58 179t16 197.5z" />
    <glyph glyph-name="afii10033" unicode="&#x41f;" 
d="M883 0h-138v1188h-559v-1188h-137v1305h834v-1305z" />
    <glyph glyph-name="afii10034" unicode="&#x420;" 
d="M930 932q0 -189 -118 -281t-331 -92h-295v-559h-137v1305h430q215 0 333 -93.5t118 -279.5zM793 932q0 135 -85 195.5t-227 60.5h-295v-512h295q142 0 227 60.5t85 195.5z" />
    <glyph glyph-name="afii10035" unicode="&#x421;" 
d="M940 342q-51 -168 -167 -265t-292 -97q-137 0 -232 55t-155.5 148t-87 215t-26.5 253t26.5 253t87 216t155.5 150.5t232 56.5q121 0 207 -43t127 -131v152h117v-428h-117q0 69 -26.5 130.5t-71.5 106.5t-106.5 70.5t-129.5 25.5q-106 0 -175.5 -50t-111.5 -131
t-59.5 -180t-17.5 -198q0 -98 17.5 -197.5t59.5 -178t111.5 -129t175.5 -50.5q244 0 340 293z" />
    <glyph glyph-name="afii10036" unicode="&#x422;" 
d="M932 864h-117v324h-280v-1071h210v-117h-559v117h211v1071h-280v-324h-117v441h932v-441z" />
    <glyph glyph-name="afii10037" unicode="&#x423;" 
d="M961 1305l-504 -1168q-39 -98 -110 -129t-157 -31q-96 0 -192 35l27 119q47 -20 92 -28.5t73 -8.5q68 0 93.5 33t44.5 78l57 141l-416 959h162l336 -816l330 816h164z" />
    <glyph glyph-name="afii10038" unicode="&#x424;" 
d="M956 655q0 -98 -30.5 -182t-86 -147.5t-133 -103.5t-171.5 -50v-172h-138v174q-94 10 -170.5 50t-132 102.5t-85 146.5t-29.5 182q0 99 29.5 183t85 148.5t132 104t170.5 52.5v162h138v-162q94 -10 171.5 -51t133 -104.5t86 -148.5t30.5 -184zM819 655q0 70 -19.5 132.5
t-55 111.5t-89 81t-120.5 44v-731q135 22 209.5 121.5t74.5 240.5zM117 655q0 -141 72.5 -240.5t207.5 -121.5v731q-67 -12 -119.5 -45t-88 -81t-54 -110.5t-18.5 -132.5z" />
    <glyph glyph-name="afii10039" unicode="&#x425;" 
d="M954 0h-370v117h88l-205 428l-207 -428h88v-117h-371v117h127l283 540l-278 531h-109v117h373v-117h-109l203 -418l197 418h-105v117h373v-117h-113l-272 -531l280 -540h127v-117z" />
    <glyph glyph-name="afii10040" unicode="&#x426;" 
d="M1055 117v-436h-123v319h-883v1305h137v-1188h559v1188h138v-1188h172z" />
    <glyph glyph-name="afii10041" unicode="&#x427;" 
d="M49 1305h137v-576q0 -125 54.5 -193.5t175.5 -68.5q76 0 137 35t104 93t65.5 134t22.5 158v418h138v-1305h-138v606q-98 -256 -352 -256q-344 0 -344 379v576z" />
    <glyph glyph-name="afii10042" unicode="&#x428;" 
d="M397 1305h138v-1188h260v1188h137v-1305h-932v1305h137v-1188h260v1188z" />
    <glyph glyph-name="afii10043" unicode="&#x429;" 
d="M0 0v1305h137v-1188h260v1188h138v-1188h260v1188h137v-1188h123v-436h-123v319h-932z" />
    <glyph glyph-name="afii10044" unicode="&#x42a;" 
d="M0 1305h373v-560h178q180 0 279.5 -94t99.5 -282q0 -187 -99.5 -278t-281.5 -91h-313v1188h-236v117zM793 369q0 127 -64.5 193.5t-175.5 66.5h-180v-512h180q111 0 175.5 63.5t64.5 188.5z" />
    <glyph glyph-name="afii10045" unicode="&#x42b;" 
d="M0 1305h137v-560h135q162 0 251 -94t89 -282q0 -187 -89 -278t-253 -91h-270v1305zM475 369q0 127 -54 193.5t-147 66.5h-137v-512h137q93 0 147 63.5t54 188.5zM795 1305h137v-1305h-137v1305z" />
    <glyph glyph-name="afii10046" unicode="&#x42c;" 
d="M793 369q0 127 -85 193.5t-227 66.5h-295v-512h295q142 0 227 63.5t85 188.5zM186 745h295q213 0 331 -94t118 -282q0 -187 -118 -278t-333 -91h-430v1305h137v-560z" />
    <glyph glyph-name="afii10047" unicode="&#x42d;" 
d="M111 389q96 -295 340 -295q53 0 96.5 13.5t79 37.5t63 57t48.5 72q38 71 55.5 156.5t20.5 173.5h-582v117h582q-5 91 -26.5 179t-64 157t-109.5 111t-163 42q-69 0 -130 -25.5t-106 -70.5t-71.5 -106t-26.5 -131h-117v428h117v-152q42 88 127.5 131t206.5 43
q137 0 232.5 -56.5t155 -150.5t86.5 -216t27 -253q0 -88 -11.5 -171.5t-37 -158.5t-65 -138t-95.5 -108.5t-128.5 -71.5t-163.5 -26q-176 0 -292 98q-116 100 -167 267z" />
    <glyph glyph-name="afii10048" unicode="&#x42e;" 
d="M49 1305h137v-594h172q13 616 289 616q289 0 289 -676q0 -674 -289 -674q-276 0 -289 617h-172v-594h-137v1305zM647 94q47 0 77 41t46 115t22.5 176t6.5 225t-6.5 226.5t-22.5 177t-46 114.5t-77 41t-76.5 -41t-46 -114.5t-22.5 -177t-6 -226.5t6 -225t22.5 -176
t46 -115t76.5 -41z" />
    <glyph glyph-name="afii10049" unicode="&#x42f;" 
d="M381 565q-82 6 -151.5 34t-120 74t-79 111.5t-28.5 147.5q0 186 118 279.5t333 93.5h430v-1305h-138v559h-202l-381 -559h-174zM143 932q0 -135 83 -195.5t227 -60.5h292v512h-292q-144 0 -227 -61.5t-83 -194.5z" />
    <glyph glyph-name="afii10065" unicode="&#x430;" 
d="M-2 252q0 88 44 147.5t115.5 94t164 50t188.5 15.5q37 0 66.5 -1t56 -3t53.5 -5t59 -7v67q0 68 -29.5 112t-72.5 69.5t-90 36t-80 10.5q-104 0 -192 -28t-164 -75l-62 103q84 51 188.5 83.5t229.5 32.5q76 0 149.5 -19.5t132 -60t93.5 -106.5t35 -158v-610h-138v156
q-36 -45 -81.5 -79t-95.5 -55.5t-100 -33t-95 -11.5q-185 0 -280 71t-95 204zM373 94q86 0 154.5 25.5t116.5 63.5t74.5 81t26.5 78v88q-67 10 -128.5 11t-106.5 1q-74 0 -142.5 -10t-119.5 -32.5t-82 -58.5t-31 -89q0 -59 57.5 -108.5t180.5 -49.5z" />
    <glyph glyph-name="afii10066" unicode="&#x431;" 
d="M150 444q0 -159 86 -254.5t237 -95.5q70 0 129.5 24.5t102.5 71t66.5 111t23.5 143.5q0 160 -84 255.5t-238 95.5q-166 0 -244.5 -95.5t-78.5 -255.5zM0 651q0 150 31.5 274t89 213t136.5 139t175 50q45 0 76 -9t55.5 -21.5t47 -21.5t53.5 -9q41 0 69.5 14t69.5 47
l71 -82q-43 -41 -101 -68.5t-109 -27.5q-39 0 -68 9t-53.5 21.5t-50 21.5t-60.5 9q-61 0 -114.5 -33.5t-93.5 -97t-62.5 -153.5t-22.5 -203q25 45 61 80t80 59.5t94 36.5t99 12q98 0 182 -29.5t145.5 -88t96.5 -145.5t35 -204q0 -98 -35 -184t-96.5 -148.5t-145.5 -98.5
t-182 -36q-235 0 -354 164t-119 510z" />
    <glyph glyph-name="afii10067" unicode="&#x432;" 
d="M930 266q0 -135 -99.5 -200.5t-285.5 -65.5h-496v932h465q68 0 134.5 -10.5t118.5 -37t85 -73.5t33 -123q0 -72 -35 -121t-137 -75q125 -29 171 -85.5t46 -140.5zM748 680q0 43 -23 69.5t-56.5 41t-74.5 19.5t-80 5h-328v-268h328q41 0 83 5t76 20.5t54.5 41t20.5 66.5z
M793 272q0 82 -67 120t-183 38h-357v-313h357q116 0 183 39t67 116z" />
    <glyph glyph-name="afii10068" unicode="&#x433;" 
d="M49 932h883v-117h-746v-815h-137v932z" />
    <glyph glyph-name="afii10069" unicode="&#x434;" 
d="M0 117q47 10 90 54t75 122t51.5 189.5t19.5 256.5v193h509v-815h187v-436h-123v319h-686v-319h-123v436zM373 739q0 -116 -16.5 -217.5t-43 -181.5t-60.5 -137.5t-67 -85.5h422v698h-235v-76z" />
    <glyph glyph-name="afii10070" unicode="&#x435;" 
d="M137 418q15 -148 108 -236t242 -88q105 0 187 43t123 107l96 -66q-70 -98 -167 -149.5t-239 -51.5q-108 0 -198 36t-155.5 100.5t-101.5 153.5t-36 198q0 106 32.5 195.5t94 155t149.5 102t197 36.5q119 0 208 -40t148.5 -110.5t88 -168.5t28.5 -217h-805zM797 535
q-23 153 -111 228t-217 75q-66 0 -122 -21.5t-99 -61.5t-72 -96.5t-37 -123.5h658z" />
    <glyph glyph-name="afii10072" unicode="&#x436;" 
d="M270 524l-286 408h153l260 -393v393h138v-393l260 393h153l-286 -408l286 -524h-147l-217 418l-49 -72v-346h-138v346l-49 72l-217 -418h-147z" />
    <glyph glyph-name="afii10073" unicode="&#x437;" 
d="M883 676q0 -68 -47.5 -127.5t-145.5 -75.5q92 -18 148.5 -77.5t56.5 -131.5q0 -67 -36 -120.5t-98.5 -90.5t-147.5 -56.5t-185 -19.5q-160 0 -263.5 49.5t-166.5 149.5l96 66q47 -72 129 -110t205 -38q147 0 238.5 45t91.5 125q0 27 -17.5 54.5t-51.5 49t-84 35
t-118 13.5h-156v116h156q131 0 194.5 46.5t63.5 97.5q0 74 -81.5 118t-223.5 44q-118 0 -195 -42t-118 -112l-102 70q61 100 161.5 150t253.5 50q97 0 177.5 -19.5t140 -55t92.5 -88t33 -115.5z" />
    <glyph glyph-name="afii10074" unicode="&#x438;" 
d="M49 932h137v-752l504 752h193v-932h-138v786l-526 -786h-170v932z" />
    <glyph glyph-name="afii10075" unicode="&#x439;" 
d="M49 932h137v-752l504 752h193v-932h-138v786l-526 -786h-170v932zM752 1210q-117 -116 -285 -116t-285 116l78 76q94 -94 207 -94t207 94z" />
    <glyph glyph-name="afii10076" unicode="&#x43a;" 
d="M930 0h-195l-381 418l-168 -154v-264h-137v932h137v-502l531 502h196l-467 -428z" />
    <glyph glyph-name="afii10077" unicode="&#x43b;" 
d="M883 932v-932h-138v815h-421v-608q0 -55 -18.5 -98t-49.5 -72t-72 -44.5t-86 -15.5q-84 0 -123 25l27 109q14 -9 31.5 -13t46.5 -4q106 0 106 113v725h697z" />
    <glyph glyph-name="afii10078" unicode="&#x43c;" 
d="M883 0h-138v739l-229 -483h-98l-232 483v-739h-137v932h178l240 -486l238 486h178v-932z" />
    <glyph glyph-name="afii10079" unicode="&#x43d;" 
d="M883 0h-138v418h-559v-418h-137v932h137v-397h559v397h138v-932z" />
    <glyph glyph-name="afii10080" unicode="&#x43e;" 
d="M956 463q0 -109 -34.5 -198t-99 -152.5t-154.5 -99.5t-201 -36q-109 0 -199 36t-154.5 99.5t-99 152.5t-34.5 198q0 106 34.5 197.5t99 156t154.5 101t199 36.5q111 0 201 -36.5t154.5 -101t99 -156t34.5 -197.5zM819 463q0 80 -23.5 147.5t-69.5 118.5t-111.5 80
t-147.5 29t-147.5 -29t-110.5 -80t-68.5 -118.5t-23.5 -147.5t23.5 -147.5t68.5 -116.5t110.5 -77t147.5 -28t147.5 28t111.5 77t69.5 116.5t23.5 147.5z" />
    <glyph glyph-name="afii10081" unicode="&#x43f;" 
d="M883 0h-138v815h-559v-815h-137v932h834v-932z" />
    <glyph glyph-name="afii10082" unicode="&#x440;" 
d="M932 465q0 -109 -34 -198t-95.5 -153.5t-148.5 -100.5t-195 -36q-74 0 -143.5 27t-129.5 80v-457h-137v1305h137v-86q127 108 273 108q108 0 195 -35.5t148.5 -101t95.5 -156t34 -196.5zM795 465q0 78 -21.5 146.5t-64.5 118.5t-105.5 79t-144.5 29q-78 0 -145.5 -29
t-127.5 -94v-500q60 -65 127.5 -93t145.5 -28q82 0 144.5 29t105.5 79t64.5 117.5t21.5 145.5z" />
    <glyph glyph-name="afii10083" unicode="&#x441;" 
d="M897 176q-59 -92 -161.5 -145.5t-243.5 -53.5q-109 0 -200 36t-155.5 100.5t-100.5 153.5t-36 198q0 106 33 196.5t94 155t149.5 101t196.5 36.5q43 0 88 -10t85 -30.5t72 -49t48 -67.5v135h123v-373h-123q0 62 -22.5 113t-61.5 88t-93 57.5t-116 20.5q-84 0 -146.5 -29
t-104.5 -79t-63.5 -117.5t-21.5 -147.5t24.5 -147.5t71 -116.5t112 -78t147.5 -29q104 0 185 40t124 108z" />
    <glyph glyph-name="afii10084" unicode="&#x442;" 
d="M932 492h-117v323h-280v-698h210v-117h-559v117h211v698h-280v-323h-117v440h932v-440z" />
    <glyph glyph-name="afii10085" unicode="&#x443;" 
d="M961 932l-504 -1168q-39 -98 -110 -128.5t-157 -30.5q-96 0 -192 35l27 118q47 -20 92 -28.5t73 -8.5q68 0 93.5 33t44.5 78l57 141l-416 959h162l336 -815l330 815h164z" />
    <glyph glyph-name="afii10086" unicode="&#x444;" 
d="M397 743q-57 95 -141 95q-74 0 -110.5 -86t-36.5 -287t36.5 -286t110.5 -85q84 0 141 94v555zM397 63q-53 -86 -141 -86q-143 0 -214 126t-71 362q0 235 71 362t214 127q88 0 141 -86v437h138v-437q53 86 141 86q143 0 214 -127t71 -362q0 -236 -71 -362t-214 -126
q-88 0 -141 86v-436h-138v436zM535 188q57 -94 141 -94q74 0 110.5 85t36.5 286t-36.5 287t-110.5 86q-84 0 -141 -95v-555z" />
    <glyph glyph-name="afii10087" unicode="&#x445;" 
d="M954 0h-385v121h82l-184 270l-182 -270h75v-121h-380v121h145l256 352l-246 336h-135v123h383v-123h-86l170 -254l172 254h-94v123h387v-123h-131l-246 -336l256 -352h143v-121z" />
    <glyph glyph-name="afii10088" unicode="&#x446;" 
d="M1055 121v-440h-123v319h-883v932h137v-815h559v815h138v-811h172z" />
    <glyph glyph-name="afii10089" unicode="&#x447;" 
d="M49 932h137v-297q0 -125 54.5 -193.5t175.5 -68.5q76 0 137 34.5t104 93t65.5 134.5t22.5 158v139h138v-932h-138v512q-98 -256 -352 -256q-344 0 -344 379v297z" />
    <glyph glyph-name="afii10090" unicode="&#x448;" 
d="M397 932h138v-815h260v815h137v-932h-932v932h137v-815h260v815z" />
    <glyph glyph-name="afii10091" unicode="&#x449;" 
d="M0 0v932h137v-815h260v815h138v-815h260v815h137v-811h123v-440h-123v319h-932z" />
    <glyph glyph-name="afii10092" unicode="&#x44a;" 
d="M0 932h373v-373h221q162 0 249 -66.5t87 -211.5q0 -146 -87 -213.5t-247 -67.5h-360v815h-236v117zM793 281q0 77 -52.5 119t-144.5 42h-223v-325h223q92 0 144.5 43t52.5 121z" />
    <glyph glyph-name="afii10093" unicode="&#x44b;" 
d="M795 932h137v-932h-137v932zM137 559h160q154 0 234.5 -66.5t80.5 -211.5q0 -146 -80.5 -213.5t-232.5 -67.5h-299v932h137v-373zM475 281q0 77 -46 119t-130 42h-162v-325h162q84 0 130 43t46 121z" />
    <glyph glyph-name="afii10094" unicode="&#x44c;" 
d="M186 559h357q186 0 286.5 -66.5t100.5 -211.5q0 -146 -99.5 -213.5t-285.5 -67.5h-496v932h137v-373zM793 281q0 77 -67 119t-183 42h-357v-325h357q116 0 183 43t67 121z" />
    <glyph glyph-name="afii10095" unicode="&#x44d;" 
d="M279 535h509q-20 133 -110 218t-238 85q-104 0 -185 -41t-124 -109l-96 66q59 92 161.5 146t243.5 54q109 0 200 -35.5t155.5 -100t100.5 -155t36 -198.5q0 -109 -36 -198t-100.5 -153.5t-155.5 -100.5t-200 -36q-141 0 -243.5 53.5t-161.5 145.5l96 66q43 -68 124 -108
t185 -40q154 0 246 91t107 233h-514v117z" />
    <glyph glyph-name="afii10096" unicode="&#x44e;" 
d="M49 932h137v-408h189q18 430 278 430q279 0 279 -489q0 -488 -279 -488q-264 0 -278 431h-189v-408h-137v932zM653 88q142 0 142 377q0 375 -142 375q-141 0 -141 -375q0 -377 141 -377z" />
    <glyph glyph-name="afii10097" unicode="&#x44f;" 
d="M346 373q-166 8 -255 74.5t-89 203.5q0 146 99.5 213.5t285.5 67.5h496v-932h-138v373h-223l-340 -373h-194zM139 651q0 -78 66.5 -120t183.5 -42h356v326h-356q-117 0 -183.5 -43t-66.5 -121z" />
    <glyph glyph-name="afii10071" unicode="&#x451;" 
d="M137 418q15 -148 108 -236t242 -88q105 0 187 43t123 107l96 -66q-70 -98 -167 -149.5t-239 -51.5q-108 0 -198 36t-155.5 100.5t-101.5 153.5t-36 198q0 106 32.5 195.5t94 155t149.5 102t197 36.5q119 0 208 -40t148.5 -110.5t88 -168.5t28.5 -217h-805zM797 535
q-23 153 -111 228t-217 75q-66 0 -122 -21.5t-99 -61.5t-72 -96.5t-37 -123.5h658zM745 1118h-186v187h186v-187zM373 1118h-187v187h187v-187z" />
    <glyph glyph-name="afii10099" unicode="&#x452;" 
d="M-113 1118h162v187h137v-187h187v-117h-187v-303q99 256 353 256q344 0 344 -379v-741q0 -55 -18.5 -98t-49.5 -72t-72 -44t-86 -15q-84 0 -122 24l26 109q14 -8 31.5 -12.5t46.5 -4.5q106 0 106 113v741q0 125 -54 194t-175 69q-76 0 -137.5 -35t-104.5 -93.5
t-65.5 -134t-22.5 -157.5v-418h-137v1001h-162v117z" />
    <glyph glyph-name="afii10100" unicode="&#x453;" 
d="M49 932h883v-117h-746v-815h-137v932zM711 1255l-432 -243l-37 65l403 287z" />
    <glyph glyph-name="afii10101" unicode="&#x454;" 
d="M139 418q15 -142 107 -233t246 -91q104 0 185 40t124 108l96 -66q-59 -92 -161.5 -145.5t-243.5 -53.5q-109 0 -200 36t-155.5 100.5t-100.5 153.5t-36 198q0 108 36 198.5t100.5 155t155.5 100t200 35.5q141 0 243.5 -54t161.5 -146l-96 -66q-43 68 -124 109t-185 41
q-148 0 -239 -85t-112 -218h518v-117h-520z" />
    <glyph glyph-name="afii10102" unicode="&#x455;" 
d="M907 258q0 -82 -41 -136t-105.5 -86t-144 -45.5t-155.5 -13.5q-127 0 -253 37t-218 97l61 118q103 -65 203 -100t207 -35q309 0 309 160q0 39 -25.5 63.5t-68.5 40t-98.5 24.5t-116.5 17q-78 11 -155 26t-140.5 45t-102 80t-38.5 132q0 70 35.5 121t95 85t139.5 50
t166 16q123 0 220 -28.5t175 -81.5l-55 -107q-80 56 -162 78.5t-178 22.5q-43 0 -95.5 -7.5t-97.5 -26t-75.5 -48t-30.5 -74.5q0 -39 25.5 -62.5t68.5 -39t98.5 -24.5t116.5 -17q76 -11 153.5 -26t141 -44t102.5 -79t39 -132z" />
    <glyph glyph-name="afii10103" unicode="&#x456;" 
d="M559 1118h-186v187h186v-187zM745 0h-559v117h211v698h-211v117h349v-815h210v-117z" />
    <glyph glyph-name="afii10104" unicode="&#x457;" 
d="M745 0h-559v117h211v694h-211v121h349v-815h210v-117zM745 1118h-186v187h186v-187zM373 1118h-187v187h187v-187z" />
    <glyph glyph-name="afii10105" unicode="&#x458;" 
d="M745 1118h-186v187h186v-187zM348 -395q-246 0 -344 202l105 72q36 -76 94.5 -117t144.5 -41q68 0 114 19.5t72.5 55.5t38 87t11.5 117v815h-211v117h348v-932q0 -180 -94.5 -287.5t-278.5 -107.5z" />
    <glyph glyph-name="afii10106" unicode="&#x459;" 
d="M186 815v-608q0 -55 -16 -98t-45 -72t-67 -44.5t-81 -15.5q-40 0 -67 4.5t-49 14.5l24 115q13 -9 29 -13t41 -4q94 0 94 113v725h461v-373h119q153 0 234 -66.5t81 -211.5q0 -146 -81 -213.5t-232 -67.5h-258v815h-187zM807 281q0 77 -46 119t-130 42h-121v-325h121
q84 0 130 43t46 121z" />
    <glyph glyph-name="afii10107" unicode="&#x45a;" 
d="M49 0v932h137v-373h187v373h137v-373h119q153 0 234 -66.5t81 -211.5q0 -146 -81 -213.5t-232 -67.5h-258v442h-187v-442h-137zM807 281q0 77 -46 119t-130 42h-121v-325h121q84 0 130 43t46 121z" />
    <glyph glyph-name="afii10108" unicode="&#x45b;" 
d="M-113 1118h162v187h137v-187h187v-117h-187v-303q99 256 353 256q344 0 344 -379v-575h-138v575q0 125 -54 194t-175 69q-76 0 -137.5 -35t-104.5 -93.5t-65.5 -134t-22.5 -157.5v-418h-137v1001h-162v117z" />
    <glyph glyph-name="afii10109" unicode="&#x45c;" 
d="M930 0h-195l-381 418l-168 -154v-264h-137v932h137v-502l531 502h196l-467 -428zM711 1255l-432 -243l-37 65l403 287z" />
    <glyph glyph-name="afii10110" unicode="&#x45e;" 
d="M961 932l-504 -1168q-39 -98 -110 -128.5t-157 -30.5q-96 0 -192 35l27 118q47 -20 92 -28.5t73 -8.5q68 0 93.5 33t44.5 78l57 141l-416 959h162l336 -815l330 815h164zM752 1210q-117 -116 -285 -116t-285 116l78 76q94 -94 207 -94t207 94z" />
    <glyph glyph-name="afii10193" unicode="&#x45f;" 
d="M883 0h-348v-319h-138v319h-348v932h137v-815h559v815h138v-932z" />
    <glyph glyph-name="afii10050" unicode="&#x490;" 
d="M815 1491h117v-303h-746v-1188h-137v1305h766v186z" />
    <glyph glyph-name="afii10098" unicode="&#x491;" 
d="M815 1118h117v-303h-746v-815h-137v932h766v186z" />
    <glyph glyph-name="uni1E02" unicode="&#x1e02;" 
d="M930 373q0 -187 -121 -280t-344 -93h-416v1305h393q82 0 161 -13.5t141.5 -50.5t101.5 -102.5t39 -171.5q0 -203 -203 -277q248 -76 248 -317zM748 967q0 69 -29 113t-74 67.5t-99 32t-104 8.5h-256v-443h256q56 0 110 8.5t97 33t71 67.5t28 113zM793 373
q0 135 -87.5 196.5t-240.5 61.5h-279v-514h279q153 0 240.5 64.5t87.5 191.5zM559 1491h-186v187h186v-187z" />
    <glyph glyph-name="uni1E03" unicode="&#x1e03;" 
d="M932 465q0 -107 -33 -197t-94.5 -154.5t-148.5 -100.5t-195 -36q-76 0 -145.5 27t-129.5 80v-84h-137v1305h137v-459q60 51 129.5 79.5t145.5 28.5q108 0 195 -36.5t148.5 -101t94.5 -155t33 -196.5zM793 465q0 80 -20.5 147.5t-62.5 117.5t-104.5 79t-144.5 29
q-158 0 -275 -125v-498q60 -65 128.5 -93t146.5 -28q82 0 143.5 29t103.5 79t63.5 117.5t21.5 145.5zM559 1491h-186v187h186v-187z" />
    <glyph glyph-name="uni1E0A" unicode="&#x1e0a;" 
d="M975 651q0 -131 -27.5 -249.5t-88 -208t-156 -141.5t-230.5 -52h-424v1305h424q133 0 228.5 -53.5t156 -143.5t89 -208t28.5 -249zM838 651q0 256 -96.5 396.5t-268.5 140.5h-287v-1071h287q172 0 268.5 139t96.5 395zM559 1491h-186v187h186v-187z" />
    <glyph glyph-name="uni1E0B" unicode="&#x1e0b;" 
d="M883 0h-138v86q-59 -53 -129.5 -81t-144.5 -28q-111 0 -199 36t-148.5 100.5t-93 154.5t-32.5 197q0 106 32.5 196.5t93 155t148.5 101t199 36.5q74 0 144.5 -26.5t129.5 -79.5v340h-186v117h324v-1305zM745 715q-59 65 -128.5 94t-147.5 29q-82 0 -144.5 -29t-104.5 -79
t-63.5 -117.5t-21.5 -147.5t21.5 -147.5t63.5 -117.5t104.5 -79t144.5 -29q158 0 276 125v498zM559 1491h-186v187h186v-187z" />
    <glyph glyph-name="uni1E1E" unicode="&#x1e1e;" 
d="M883 1188h-697v-467h514v-117h-514v-604h-137v1305h834v-117zM559 1491h-186v187h186v-187z" />
    <glyph glyph-name="uni1E1F" unicode="&#x1e1f;" 
d="M932 815h-397v-698h210v-117h-559v117h211v698h-211v117h211q0 192 99.5 293.5t300.5 101.5q47 0 79.5 -3t55.5 -7v-117q-29 4 -60.5 7t-74.5 3q-131 0 -196.5 -66.5t-65.5 -211.5h397v-117zM559 1491h-186v187h186v-187z" />
    <glyph glyph-name="uni1E40" unicode="&#x1e40;" 
d="M883 0h-138v1087l-231 -673h-98l-230 673v-1087h-137v1305h178l238 -682l240 682h178v-1305zM559 1491h-186v187h186v-187z" />
    <glyph glyph-name="uni1E41" unicode="&#x1e41;" 
d="M932 0h-137v670q0 80 -28 124t-81 44q-78 0 -114.5 -82t-36.5 -230v-526h-138v670q0 80 -28.5 124t-81.5 44q-49 0 -78 -29t-45.5 -74t-21.5 -100t-5 -109v-526h-137v932h137v-135q43 157 187 157q137 0 186 -137q68 137 192 137q119 0 174.5 -70.5t55.5 -213.5v-670z
M559 1118h-186v187h186v-187z" />
    <glyph glyph-name="uni1E56" unicode="&#x1e56;" 
d="M930 932q0 -189 -118 -281t-331 -92h-295v-559h-137v1305h430q215 0 333 -93.5t118 -279.5zM793 932q0 135 -85 195.5t-227 60.5h-295v-512h295q142 0 227 60.5t85 195.5zM559 1491h-186v187h186v-187z" />
    <glyph glyph-name="uni1E57" unicode="&#x1e57;" 
d="M932 465q0 -109 -34 -198t-95.5 -153.5t-148.5 -100.5t-195 -36q-74 0 -143.5 27t-129.5 80v-457h-137v1305h137v-86q127 108 273 108q108 0 195 -35.5t148.5 -101t95.5 -156t34 -196.5zM795 465q0 78 -21.5 146.5t-64.5 118.5t-105.5 79t-144.5 29q-78 0 -145.5 -29
t-127.5 -94v-500q60 -65 127.5 -93t145.5 -28q82 0 144.5 29t105.5 79t64.5 117.5t21.5 145.5zM559 1118h-186v187h186v-187z" />
    <glyph glyph-name="uni1E60" unicode="&#x1e60;" 
d="M899 340q0 -82 -34 -148.5t-91 -114.5t-131 -74t-154 -26q-110 0 -202 41t-146 121v-139h-116v397h116q0 -67 31 -122.5t79 -95.5t110.5 -62.5t127.5 -22.5q58 0 107 16.5t86 47t58.5 74.5t21.5 100q0 63 -27.5 108t-74 77t-104.5 54.5t-118 44.5q-71 25 -142 52.5
t-127 69.5t-91 102.5t-35 150.5q0 80 34 142.5t89 105.5t128 65.5t150 22.5q95 0 175.5 -39t125.5 -119v136h121v-373h-121q0 59 -24.5 110.5t-66.5 88t-96 58t-114 21.5q-53 0 -101 -12t-84 -38.5t-57.5 -68.5t-21.5 -100q0 -51 25.5 -87t68.5 -63.5t99.5 -50t115.5 -45.5
q74 -26 147 -58t131 -77t95 -110.5t37 -159.5zM559 1491h-186v187h186v-187z" />
    <glyph glyph-name="uni1E61" unicode="&#x1e61;" 
d="M907 258q0 -82 -41 -136t-105.5 -86t-144 -45.5t-155.5 -13.5q-127 0 -253 37t-218 97l61 118q103 -65 203 -100t207 -35q309 0 309 160q0 39 -25.5 63.5t-68.5 40t-98.5 24.5t-116.5 17q-78 11 -155 26t-140.5 45t-102 80t-38.5 132q0 70 35.5 121t95 85t139.5 50
t166 16q123 0 220 -28.5t175 -81.5l-55 -107q-80 56 -162 78.5t-178 22.5q-43 0 -95.5 -7.5t-97.5 -26t-75.5 -48t-30.5 -74.5q0 -39 25.5 -62.5t68.5 -39t98.5 -24.5t116.5 -17q76 -11 153.5 -26t141 -44t102.5 -79t39 -132zM559 1118h-186v187h186v-187z" />
    <glyph glyph-name="uni1E6A" unicode="&#x1e6a;" 
d="M932 864h-117v324h-280v-1071h210v-117h-559v117h211v1071h-280v-324h-117v441h932v-441zM559 1491h-186v187h186v-187z" />
    <glyph glyph-name="uni1E6B" unicode="&#x1e6b;" 
d="M942 297q-16 -147 -115.5 -233.5t-248.5 -86.5q-82 0 -150 27t-116 75t-74.5 115.5t-26.5 147.5v473h-211v117h211v373h137v-373h397v-117h-397v-473q0 -51 16.5 -96t46 -79t71.5 -53.5t96 -19.5q102 0 170.5 63.5t78.5 164.5zM559 1491h-186v187h186v-187z" />
    <glyph glyph-name="Wgrave" unicode="&#x1e80;" 
d="M995 1305l-235 -1305h-162l-133 637l-135 -637h-160l-233 1305h145l184 -1074l131 701h135l132 -701l184 1074h147zM700 1454l-41 -65l-430 243l66 109z" />
    <glyph glyph-name="wgrave" unicode="&#x1e81;" 
d="M963 932l-189 -932h-160l-149 684l-141 -684h-160l-191 932h146l135 -746l145 746h136l149 -746l135 746h144zM700 1081l-41 -65l-430 243l66 109z" />
    <glyph glyph-name="Wacute" unicode="&#x1e82;" 
d="M995 1305l-235 -1305h-162l-133 637l-135 -637h-160l-233 1305h145l184 -1074l131 701h135l132 -701l184 1074h147zM711 1628l-432 -243l-37 65l403 287z" />
    <glyph glyph-name="wacute" unicode="&#x1e83;" 
d="M963 932l-189 -932h-160l-149 684l-141 -684h-160l-191 932h146l135 -746l145 746h136l149 -746l135 746h144zM711 1255l-432 -243l-37 65l403 287z" />
    <glyph glyph-name="Wdieresis" unicode="&#x1e84;" 
d="M995 1305l-235 -1305h-162l-133 637l-135 -637h-160l-233 1305h145l184 -1074l131 701h135l132 -701l184 1074h147zM745 1491h-186v187h186v-187zM373 1491h-187v187h187v-187z" />
    <glyph glyph-name="wdieresis" unicode="&#x1e85;" 
d="M963 932l-189 -932h-160l-149 684l-141 -684h-160l-191 932h146l135 -746l145 746h136l149 -746l135 746h144zM745 1118h-186v187h186v-187zM373 1118h-187v187h187v-187z" />
    <glyph glyph-name="Ygrave" unicode="&#x1ef2;" 
d="M952 1188h-106l-311 -625v-446h210v-117h-559v117h211v446l-311 625h-106v117h368v-117h-108l227 -492l225 492h-108v117h368v-117zM700 1454l-41 -65l-430 243l66 109z" />
    <glyph glyph-name="ygrave" unicode="&#x1ef3;" 
d="M961 932l-504 -1168q-39 -98 -110 -128.5t-157 -30.5q-96 0 -192 35l27 118q47 -20 92 -28.5t73 -8.5q68 0 93.5 33t44.5 78l57 141l-416 959h162l336 -815l330 815h164zM700 1081l-41 -65l-430 243l66 109z" />
    <glyph glyph-name="endash" unicode="&#x2013;" 
d="M0 424v108h932v-108h-932z" />
    <glyph glyph-name="emdash" unicode="&#x2014;" 
d="M1026 424h-1118v108h1118v-108z" />
    <glyph glyph-name="afii00208" unicode="&#x2015;" 
d="M932 420h-932v117h932v-117z" />
    <glyph glyph-name="quoteleft" unicode="&#x2018;" 
d="M745 745h-319v218q0 69 20.5 130.5t60.5 107.5t99.5 74t138.5 28v-117q-202 0 -202 -223v-31h202v-187z" />
    <glyph glyph-name="quoteright" unicode="&#x2019;" 
d="M186 1305h320v-218q0 -69 -20.5 -130.5t-60.5 -107.5t-99.5 -73.5t-139.5 -27.5v116q203 0 203 223v31h-203v187z" />
    <glyph glyph-name="quotesinglbase" unicode="&#x201a;" 
d="M558 187h320v-218q0 -69 -20.5 -130.5t-60.5 -107.5t-99.5 -73.5t-139.5 -27.5v116q203 0 203 223v31h-203v187z" />
    <glyph glyph-name="quotedblleft" unicode="&#x201c;" 
d="M932 745h-320v218q0 69 20.5 130.5t60.5 107.5t99.5 74t139.5 28v-117q-203 0 -203 -223v-31h203v-187zM373 745h-318v218q0 69 19.5 130.5t59.5 107.5t99.5 74t139.5 28v-117q-201 0 -201 -223v-31h201v-187z" />
    <glyph glyph-name="quotedblright" unicode="&#x201d;" 
d="M0 1305h319v-218q0 -69 -20 -130.5t-60 -107.5t-99.5 -73.5t-139.5 -27.5v116q203 0 203 223v31h-203v187zM559 1305h318v-218q0 -69 -19.5 -130.5t-59.5 -107.5t-99.5 -73.5t-139.5 -27.5v116q201 0 201 223v31h-201v187z" />
    <glyph glyph-name="quotedblbase" unicode="&#x201e;" 
d="M0 187h319v-218q0 -69 -20 -130.5t-60 -107.5t-99.5 -73.5t-139.5 -27.5v116q203 0 203 223v31h-203v187zM559 187h318v-218q0 -69 -19.5 -130.5t-59.5 -107.5t-99.5 -73.5t-139.5 -27.5v116q201 0 201 223v31h-201v187z" />
    <glyph glyph-name="dagger" unicode="&#x2020;" 
d="M745 969l-237 14l12 -610h-110l14 610l-238 -14v112l238 -14l-14 238h110l-12 -238l237 14v-112z" />
    <glyph glyph-name="daggerdbl" unicode="&#x2021;" 
d="M745 412l-237 14l12 -240h-110l14 240l-238 -14v110l238 -12v473l-238 -14v112l238 -14l-14 238h110l-12 -238l237 14v-112l-237 14v-473l237 12v-110z" />
    <glyph glyph-name="bullet" unicode="&#x2022;" 
d="M186 559q0 76 30 144.5t80 118.5t117.5 80t145.5 30q76 0 144.5 -30t118.5 -80t80 -118.5t30 -144.5q0 -78 -30 -145.5t-80 -117.5t-118.5 -80t-144.5 -30q-78 0 -145.5 30t-117.5 80t-80 117.5t-30 145.5z" />
    <glyph glyph-name="ellipsis" unicode="&#x2026;" 
d="M932 0h-187v186h187v-186zM559 0h-186v186h186v-186zM186 0h-186v186h186v-186z" />
    <glyph glyph-name="perthousand" unicode="&#x2030;" 
d="M664 1276l-568 -1313l-102 41l573 1315zM276 1075q0 64 -23.5 107t-74.5 43q-49 0 -73.5 -43t-24.5 -107q0 -63 24.5 -106t73.5 -43q51 0 74.5 43t23.5 106zM-20 1075q0 105 49 178.5t151 73.5q103 0 152 -73.5t49 -178.5q0 -104 -49 -178t-152 -74q-102 0 -151 74
t-49 178zM590 229q0 64 -23.5 107t-74.5 43q-50 0 -74.5 -43t-24.5 -107q0 -63 24.5 -106t74.5 -43q51 0 74.5 43t23.5 106zM293 229q0 105 49 178.5t152 73.5q102 0 151 -73.5t49 -178.5q0 -104 -49 -178t-151 -74q-103 0 -152 74t-49 178zM1012 229q0 64 -23.5 107
t-75.5 43q-49 0 -73.5 -43t-24.5 -107q0 -63 24.5 -106t73.5 -43q52 0 75.5 43t23.5 106zM715 229q0 105 49 178.5t151 73.5q103 0 152 -73.5t49 -178.5q0 -104 -49 -178t-152 -74q-102 0 -151 74t-49 178z" />
    <glyph glyph-name="guilsinglleft" unicode="&#x2039;" 
d="M604 229l-78 -79l-327 327l327 330l78 -80l-248 -250z" />
    <glyph glyph-name="guilsinglright" unicode="&#x203a;" 
d="M733 477l-325 -327l-80 77l247 250l-247 250l80 78z" />
    <glyph glyph-name="fraction" unicode="&#x2044;" 
d="M932 1272l-836 -1299l-94 60l838 1302z" />
    <glyph glyph-name="Euro" unicode="&#x20ac;" 
d="M0 858h166q14 98 44 183t78 148.5t116.5 100.5t158.5 37q139 0 232.5 -88t144.5 -276l-121 -31q-28 123 -94 200.5t-158 77.5q-100 0 -168.5 -88t-95.5 -264h256v-113h-268q-2 -22 -2 -45.5v-48.5v-46.5t2 -45.5h268v-113h-256q25 -178 94.5 -265t169.5 -87q92 0 158 79
t94 202l121 -33q-51 -188 -144.5 -276.5t-232.5 -88.5q-90 0 -158.5 37t-116.5 99.5t-79 148.5t-45 184h-164v113h154q-2 23 -2 46.5v45.5v47.5t2 46.5h-154v113z" />
    <glyph glyph-name="afii61352" unicode="&#x2116;" 
d="M510 0h-170l-203 1022v-1022h-137v1305h193l180 -940v940h137v-1305zM840 459q116 0 116 192q0 191 -116 191q-121 0 -121 -191q0 -192 121 -192zM838 348q-256 0 -256 303t256 303t256 -303t-256 -303zM584 117h510v-117h-510v117z" />
    <glyph glyph-name="trademark" unicode="&#x2122;" 
d="M1118 745h-110v394l-129 -334h-78l-129 334v-394h-111v560h158l121 -328l121 328h157v-560zM465 1192h-176v-447h-113v447h-176v113h465v-113z" />
    <glyph glyph-name="Omega" unicode="&#x2126;" 
d="M956 741q0 -145 -55 -281t-180 -229v-114h211v-117h-348v291q67 26 112 77.5t73 113t39 129t11 130.5q0 82 -19.5 166t-62.5 152.5t-109.5 111.5t-160.5 43q-90 0 -156.5 -43t-109.5 -111.5t-63.5 -152.5t-20.5 -166q0 -63 11 -130.5t38 -129t71 -113t111 -77.5v-291
h-348v117h211v114q-121 86 -176 223.5t-55 286.5q0 113 31.5 219.5t93 187.5t152.5 130t210 49t210 -49t153.5 -130t94 -187.5t31.5 -219.5z" />
    <glyph glyph-name="partialdiff" unicode="&#x2202;" 
d="M-20 354q0 105 58 186t159.5 142t237.5 103t292 67q-78 125 -210 212t-298 146l45 117q135 -53 260 -121.5t219.5 -163t150.5 -218.5t56 -287q0 -129 -35.5 -232.5t-103.5 -176.5t-164 -112t-217 -39q-205 0 -327.5 96.5t-122.5 280.5zM813 537q0 55 -8 105t-25 97
q-145 -16 -267 -51t-210 -84t-137 -111.5t-49 -138.5q0 -116 84 -188t229 -72q92 0 163 32t120 90t74.5 140t25.5 181z" />
    <glyph glyph-name="Delta" unicode="&#x2206;" 
d="M995 0h-1054l434 1305h186zM809 117l-342 1048l-342 -1048h684z" />
    <glyph glyph-name="product" unicode="&#x220f;" 
d="M932 1188h-187v-1188h-137v1188h-284v-1188h-138v1188h-186v117h932v-117z" />
    <glyph glyph-name="summation" unicode="&#x2211;" 
d="M883 0h-840v117l328 536l-328 535v117h840v-441h-121v324h-555l325 -535l-325 -536h555v325h121v-442z" />
    <glyph glyph-name="minus" unicode="&#x2212;" 
d="M932 420h-932v117h932v-117z" />
    <glyph glyph-name="radical" unicode="&#x221a;" 
d="M932 1008h-285l-301 -1008h-104l-219 725l106 33l166 -594l270 954h367v-110z" />
    <glyph glyph-name="infinity" unicode="&#x221e;" 
d="M950 465q0 -51 -17.5 -96t-49 -78t-75.5 -52t-95 -19q-72 0 -130.5 33.5t-111.5 123.5q-53 -88 -108.5 -122.5t-133.5 -34.5q-49 0 -92 19t-75.5 52t-51 78t-18.5 96t18.5 96.5t50 78t74.5 51t94 18.5q78 0 133.5 -35t108.5 -125q53 90 111.5 125t130.5 35q49 0 92 -18.5
t75.5 -51t51 -78t18.5 -96.5zM860 465q0 72 -43 114t-102 42q-127 0 -201 -156q74 -159 201 -159q59 0 101 47t44 112zM428 465q-70 156 -201 156q-59 0 -102 -44t-43 -112q0 -65 41 -112t104 -47q129 0 201 159z" />
    <glyph glyph-name="integral" unicode="&#x222b;" 
d="M932 1575q-29 4 -60.5 5t-72.5 1q-129 0 -196.5 -60.5t-67.5 -203.5v-1333q0 -379 -398 -379q-31 0 -64.5 2t-68.5 6v115q29 -4 58.5 -5.5t74.5 -1.5q127 0 193.5 60.5t66.5 202.5v1333q0 381 402 381q30 0 64 -3t69 -7v-113z" />
    <glyph glyph-name="approxequal" unicode="&#x2248;" 
d="M952 719q-114 -200 -311 -200q-74 0 -118 22.5t-78.5 50t-68.5 50t-85 22.5q-129 0 -211 -137l-100 59q114 197 311 197q74 0 119 -23.5t79.5 -51.5t68.5 -50.5t83 -22.5q129 0 211 144zM952 344q-114 -200 -311 -200q-74 0 -118 22.5t-78.5 50t-68.5 50t-85 22.5
q-129 0 -211 -137l-100 59q114 197 311 197q74 0 119 -23.5t79.5 -51t68.5 -50.5t83 -23q129 0 211 144z" />
    <glyph glyph-name="notequal" unicode="&#x2260;" 
d="M932 187h-545l-90 -187h-111l90 187h-276v112h330l162 336h-492v111h545l90 186h110l-90 -186h277v-111h-330l-162 -336h492v-112z" />
    <glyph glyph-name="lessequal" unicode="&#x2264;" 
d="M788 45l-77 -77l-512 510l512 512l77 -78l-432 -434zM932 -186h-746v113h746v-113z" />
    <glyph glyph-name="greaterequal" unicode="&#x2265;" 
d="M920 478l-512 -510l-78 77l432 433l-432 434l78 78zM932 -186h-746v113h746v-113z" />
    <glyph glyph-name="uni2303" unicode="&#x2303;" 
d="M977 80l-80 -78l-430 432l-434 -432l-78 78l512 512z" />
    <glyph glyph-name="uni2318" unicode="&#x2318;" 
d="M1049 258q0 -78 -55.5 -133t-133.5 -55t-131 55t-53 133v96h-232v-96q0 -78 -55 -133t-133 -55t-133 55t-55 133t55 132t133 54h98v230h-96q-78 0 -133 54t-55 132t55 133.5t133 55.5t132 -55.5t54 -133.5v-96h230v96q0 78 54 133.5t132 55.5t133.5 -55.5t55.5 -133.5
t-55.5 -132t-133.5 -54h-96v-230h96q78 0 133.5 -54t55.5 -132zM958 860q0 41 -28.5 69.5t-69.5 28.5t-68.5 -28.5t-27.5 -69.5v-96h96q41 0 69.5 27.5t28.5 68.5zM958 258q0 41 -28.5 68.5t-69.5 27.5h-94v-96q0 -41 26.5 -69.5t67.5 -28.5t69.5 28.5t28.5 69.5zM674 444
v230h-230v-230h230zM354 860q0 41 -27.5 69.5t-68.5 28.5t-69.5 -28.5t-28.5 -69.5t28.5 -68.5t69.5 -27.5h96v96zM354 354h-98q-41 0 -69.5 -27.5t-28.5 -68.5t28.5 -69.5t69.5 -28.5t69.5 28.5t28.5 69.5v96z" />
    <glyph glyph-name="uni2324" unicode="&#x2324;" 
d="M930 598h-299v113h299v-113zM301 598h-299v113h299v-113zM977 80l-80 -78l-430 432l-434 -432l-78 78l512 512z" />
    <glyph glyph-name="optionkey" unicode="&#x2325;" 
d="M1116 37h-162q-215 0 -338 145l-170 271q-102 145 -282 145h-164v113h164q217 0 340 -148q41 -67 84 -135t86 -135q100 -148 280 -148h162v-108zM1116 598h-368v113h368v-113z" />
    <glyph glyph-name="erasetotheright" unicode="&#x2326;" 
d="M1110 651l-653 -651h-383v1305h383zM952 651l-540 543h-228v-1083h228zM670 526l-80 -77l-125 126l-125 -126l-78 77l125 125l-125 125l78 80l125 -125l125 125l80 -80l-125 -125z" />
    <glyph glyph-name="uni237d" unicode="&#x237d;" 
d="M1116 193h-256v-193h-606v193h-254v110h365v-192h385v192h366v-110z" />
    <glyph glyph-name="uni2388" unicode="&#x2388;" 
d="M1122 467q0 -98 -36.5 -184t-100 -148.5t-149.5 -99.5t-185 -37q-80 0 -151.5 24.5t-130 68.5t-101.5 106.5t-65 138.5l73 20q19 -59 52.5 -111t83 -90t110 -59.5t129.5 -21.5q82 0 154 30.5t125 83t83.5 124t30.5 155.5q0 63 -20 123.5t-58 111t-90.5 86t-115.5 54.5
l22 73q74 -20 135.5 -63t107.5 -101.5t71.5 -131t25.5 -152.5zM748 451l-80 -78l-369 368v-227h-111v416h412v-111h-221z" />
    <glyph glyph-name="uni23ce" unicode="&#x23ce;" 
d="M1108 782q0 -112 -42 -212.5t-117 -176.5t-176 -120t-218 -44h-373l191 -192l-78 -76l-324 322l324 325l78 -78l-191 -190h373q92 0 172 35t140.5 95t95 140t34.5 172h-438v111h549v-111z" />
    <glyph glyph-name="uni2423" unicode="&#x2423;" 
d="M860 0h-788v303h110v-192h566v192h112v-303z" />
    <glyph glyph-name="SF100000" unicode="&#x2500;" 
d="M0 584v137h1118v-137h-1118z" />
    <glyph glyph-name="SF110000" unicode="&#x2502;" 
d="M397 1675h138v-2048h-138v2048z" />
    <glyph glyph-name="SF010000" unicode="&#x250c;" 
d="M397 721h721v-137h-583v-957h-138v1094z" />
    <glyph glyph-name="SF030000" unicode="&#x2510;" 
d="M0 584v137h535v-1094h-138v957h-397z" />
    <glyph glyph-name="SF020000" unicode="&#x2514;" 
d="M397 1675h138v-954h583v-137h-721v1091z" />
    <glyph glyph-name="SF040000" unicode="&#x2518;" 
d="M0 584v137h397v954h138v-1091h-535z" />
    <glyph glyph-name="SF080000" unicode="&#x251c;" 
d="M397 1675h138v-954h583v-137h-583v-957h-138v2048z" />
    <glyph glyph-name="SF090000" unicode="&#x2524;" 
d="M535 -373h-138v957h-397v137h397v954h138v-2048z" />
    <glyph glyph-name="SF060000" unicode="&#x252c;" 
d="M0 584v137h1118v-137h-583v-957h-138v957h-397z" />
    <glyph glyph-name="SF070000" unicode="&#x2534;" 
d="M0 584v137h397v954h138v-954h583v-137h-1118z" />
    <glyph glyph-name="SF050000" unicode="&#x253c;" 
d="M0 584v137h397v954h138v-954h583v-137h-583v-957h-138v957h-397z" />
    <glyph glyph-name="SF430000" unicode="&#x2550;" 
d="M1118 907v-137h-1118v137h1118zM1118 535v-138h-1118v138h1118z" />
    <glyph glyph-name="SF240000" unicode="&#x2551;" 
d="M348 -373h-137v2048h137v-2048zM584 1675h137v-2048h-137v2048z" />
    <glyph glyph-name="SF510000" unicode="&#x2552;" 
d="M1118 535v-138h-583v-770h-138v908h373v372h348v-137h-211v-235h211z" />
    <glyph glyph-name="SF520000" unicode="&#x2553;" 
d="M1118 721v-137h-397v-957h-137v584h-236v-584h-137v721h373v373h534z" />
    <glyph glyph-name="SF390000" unicode="&#x2554;" 
d="M348 770v-1143h-137v1280h907v-137h-770zM1118 535v-138h-397v-770h-137v908h534z" />
    <glyph glyph-name="SF220000" unicode="&#x2555;" 
d="M0 397v138h211v235h-211v137h348v-372h187v-908h-138v770h-397z" />
    <glyph glyph-name="SF210000" unicode="&#x2556;" 
d="M348 721v-373h373v-721h-137v584h-236v-584h-137v957h-211v137h348z" />
    <glyph glyph-name="SF250000" unicode="&#x2557;" 
d="M584 770h-584v137h721v-1280h-137v1143zM348 535v-908h-137v770h-211v138h348z" />
    <glyph glyph-name="SF500000" unicode="&#x2558;" 
d="M770 397v373h-373v905h138v-768h583v-137h-211v-233h211v-140h-348z" />
    <glyph glyph-name="SF490000" unicode="&#x2559;" 
d="M584 584v372h-373v719h137v-581h236v581h137v-952h397v-139h-534z" />
    <glyph glyph-name="SF380000" unicode="&#x255a;" 
d="M211 397v1278h137v-1140h770v-138h-907zM584 770v905h137v-768h397v-137h-534z" />
    <glyph glyph-name="SF280000" unicode="&#x255b;" 
d="M25 537v233h-25v137h397v768h138v-905h-373v-373h-162v140h25z" />
    <glyph glyph-name="SF270000" unicode="&#x255c;" 
d="M0 584v137h211v954h137v-581h236v581h137v-719h-373v-372h-348z" />
    <glyph glyph-name="SF260000" unicode="&#x255d;" 
d="M0 770v137h211v768h137v-905h-348zM584 535v1140h137v-1278h-721v138h584z" />
    <glyph glyph-name="SF360000" unicode="&#x255e;" 
d="M397 770v905h138v-768h583v-137h-721zM1118 535v-138h-583v-770h-138v908h721z" />
    <glyph glyph-name="SF370000" unicode="&#x255f;" 
d="M348 -373h-137v2048h137v-2048zM584 1675h137v-954h397v-137h-397v-957h-137v2048z" />
    <glyph glyph-name="SF420000" unicode="&#x2560;" 
d="M348 -373h-137v2048h137v-2048zM584 770v905h137v-768h397v-137h-534zM1118 535v-138h-397v-770h-137v908h534z" />
    <glyph glyph-name="SF190000" unicode="&#x2561;" 
d="M0 770v137h397v768h138v-905h-535zM535 535v-908h-138v770h-397v138h535z" />
    <glyph glyph-name="SF200000" unicode="&#x2562;" 
d="M348 -373h-137v957h-211v137h211v954h137v-2048zM584 1675h137v-2048h-137v2048z" />
    <glyph glyph-name="SF230000" unicode="&#x2563;" 
d="M0 770v137h211v768h137v-905h-348zM348 535v-908h-137v770h-211v138h348zM584 1675h137v-2048h-137v2048z" />
    <glyph glyph-name="SF470000" unicode="&#x2564;" 
d="M0 397v138h1118v-138h-583v-770h-138v770h-397zM1118 907v-137h-1118v137h1118z" />
    <glyph glyph-name="SF480000" unicode="&#x2565;" 
d="M348 721v-1094h-137v957h-211v137h348zM1118 721v-137h-397v-957h-137v1094h534z" />
    <glyph glyph-name="SF410000" unicode="&#x2566;" 
d="M348 535v-908h-137v770h-211v138h348zM1118 907v-137h-1118v137h1118zM1118 535v-138h-397v-770h-137v908h534z" />
    <glyph glyph-name="SF450000" unicode="&#x2567;" 
d="M0 770v137h397v768h138v-768h583v-137h-1118zM1118 535v-138h-1118v138h1118z" />
    <glyph glyph-name="SF460000" unicode="&#x2568;" 
d="M0 584v137h211v954h137v-1091h-348zM584 584v1091h137v-954h397v-137h-534z" />
    <glyph glyph-name="SF400000" unicode="&#x2569;" 
d="M0 770v137h211v768h137v-905h-348zM584 770v905h137v-768h397v-137h-534zM1118 535v-138h-1118v138h1118z" />
    <glyph glyph-name="SF540000" unicode="&#x256a;" 
d="M0 770v137h397v768h138v-768h583v-137h-1118zM1118 535v-138h-583v-770h-138v770h-397v138h1118z" />
    <glyph glyph-name="SF530000" unicode="&#x256b;" 
d="M1118 721v-137h-397v-957h-137v2048h137v-954h397zM348 1675v-2048h-137v957h-211v137h211v954h137z" />
    <glyph glyph-name="SF440000" unicode="&#x256c;" 
d="M0 770v137h211v768h137v-905h-348zM348 535v-908h-137v770h-211v138h348zM582 770v905h137v-768h399v-137h-536zM1118 535v-138h-399v-770h-137v908h536z" />
    <glyph glyph-name="blackdiamond" unicode="&#x25c6;" 
d="M950 467l-483 -485l-485 485l485 485z" />
    <glyph glyph-name="lozenge" unicode="&#x25ca;" 
d="M950 467l-485 -483l-483 483l483 485zM819 467l-354 354l-354 -354l354 -354z" />
    <glyph glyph-name="checkmark" unicode="&#x2713;" 
d="M1110 666l-772 -715l-330 510l94 59l258 -399l676 627z" />
    <glyph glyph-name="shift" unicode="&#xe000;" 
d="M948 455v-107h-235v-348h-496v348h-231v107l481 483zM819 426l-352 354l-354 -354h217v-315h272v315h217z" />
    <glyph glyph-name="shiftlock" unicode="&#xe001;" 
d="M948 348h-235v-348h-496v348h-231v107l481 483l481 -483v-107zM600 424v268h-268v-268h268z" />
    <glyph glyph-name="verticaltab" unicode="&#xe002;" 
d="M1044 229h-489l190 -192l-79 -76l-324 322l324 325l79 -78l-190 -190h377v448h-187v109h299v-668zM371 788h-371v109h371v-109zM186 229h-186v111h186v-111z" />
    <glyph glyph-name="copy" unicode="&#xe003;" 
d="M1044 0h-972v1300h567l405 -403v-897zM887 897l-248 250v-250h248zM932 111v696h-383v383h-367v-1079h750zM694 410h-178v-177h-108v177h-179v110h179v178h108v-178h178v-110z" />
    <glyph glyph-name="back" unicode="&#xe004;" 
d="M1118 410h-559l377 -377l-78 -78l-512 512l512 510l78 -78l-377 -379h559v-110zM184 0h-110v930h110v-930z" />
    <glyph glyph-name="endtab" unicode="&#xe005;" 
d="M10 893h549v-111h-438q0 -92 34.5 -172t95 -140t140.5 -95t172 -35h373l-191 190l78 78l324 -325l-324 -322l-78 76l191 192h-373q-117 0 -218 44t-176 120t-117 176.5t-42 212.5v111z" />
    <glyph glyph-name="insert" unicode="&#xe006;" 
d="M1116 788h-368v109h368v-109zM1116 229h-184v111h184v-111zM776 283l-325 -322l-78 76l190 192h-489v668h299v-109h-189v-448h379l-190 190l78 78z" />
    <glyph glyph-name="tab" unicode="&#xe007;" 
d="M1044 0h-110v930h110v-930zM772 467l-510 -512l-80 78l379 377h-561v110h561l-379 379l80 78z" />
    <glyph glyph-name="commaaccent" unicode="&#xf6c3;" 
d="M610 -104l-172 -269h-127l84 269h215z" />
    <glyph glyph-name="apple" unicode="&#xf8ff;" 
d="M819 1343q0 -149 -73.5 -232t-190.5 -93q2 266 264 325zM1128 362q-14 -43 -42.5 -104t-68.5 -117.5t-90 -97.5t-106 -41q-30 0 -59 8t-57.5 18.5t-58.5 18.5t-60 8q-31 0 -59.5 -8t-55.5 -19.5t-53.5 -19.5t-52.5 -8q-68 0 -133.5 61.5t-117 154.5t-82 200.5
t-30.5 199.5q0 74 19.5 149t58.5 134t99.5 97t144.5 38q36 0 71 -7t66 -16.5t59.5 -16.5t57.5 -7q32 0 63 8.5t62.5 18.5t63.5 18t67 8q147 0 256 -133q-146 -123 -146 -262q0 -43 12.5 -87t36 -83t58 -68.5t77.5 -44.5z" />
    <glyph glyph-name="appleopen" unicode="&#xf900;" 
d="M1128 367q-36 -117 -114 -226q-99 -135 -193 -135q-45 0 -116 27q-74 26 -119 26q-41 0 -113 -26q-74 -29 -108 -29q-123 0 -242 209q-121 211 -121 408q0 165 78 280q90 137 244 137q57 0 143 -24q43 -13 70.5 -18t40.5 -5q34 0 120 25q86 28 136 28q147 0 256 -133
q-146 -123 -146 -262q0 -90 49 -170q51 -86 135 -112zM1006 328q-154 118 -154 321q0 103 49 193q4 4 9 11t12 17l36 39q-32 41 -124 41q-17 0 -111 -20l-145 -33l-136 29q-104 18 -118 18q-115 0 -177 -108q-51 -91 -51 -215q0 -179 107 -361q92 -162 162 -162q20 0 69 19
q92 35 152 35q63 0 153 -31q56 -21 82 -21q51 0 129 117q15 25 56 111zM823 1315q0 -86 -55 -168q-53 -88 -129 -113q-12 -4 -33.5 -6t-50.5 -6q2 266 264 326q2 -9 3 -16t1 -17z" />
    <glyph glyph-name="fi" unicode="&#xfb01;" 
d="M1118 0h-1118v117h211v698h-211v117h211q0 192 99.5 291.5t299.5 99.5q47 0 80 -3t55 -7v-117q-28 4 -60 7t-75 3q-131 0 -196.5 -64.5t-65.5 -209.5h559v-815h211v-117zM770 117v698h-422v-698h422z" />
    <glyph glyph-name="fl" unicode="&#xfb02;" 
d="M1118 0h-1118v117h211v698h-211v117h211q0 192 99.5 291.5t299.5 99.5q103 0 170.5 -9t126.5 -26v-1171h211v-117zM770 117v1075q-22 4 -60 9t-100 5q-131 0 -196.5 -64.5t-65.5 -209.5h211v-117h-211v-698h422z" />
  </font>
</defs>
</svg>
