<?xml version="1.0" standalone="no"?>
<!DOCTYPE svg PUBLIC "-//W3C//DTD SVG 1.1//EN" "http://www.w3.org/Graphics/SVG/1.1/DTD/svg11.dtd" >
<svg version="1.1" xmlns="http://www.w3.org/2000/svg">
<metadata>
Created by FontForge 20120731 at Fri Aug  1 16:50:16 2014
 By Alfred Xing
Copyright (c) Mark Simonson 2009-2010. All rights reserved.
</metadata>
<defs>
<font id="anonymouspro" horiz-adv-x="1118" >
  <font-face 
    font-family="Anonymous Pro"
    font-weight="700"
    font-stretch="normal"
    units-per-em="2048"
    panose-1="2 6 8 9 3 2 2 0 5 4"
    ascent="1675"
    descent="-373"
    x-height="932"
    cap-height="1305"
    bbox="-186 -395 1151 1854"
    underline-thickness="123"
    underline-position="-126"
    unicode-range="U+000D-FB02"
  />
<missing-glyph 
d="M883 0h-834v1305h834v-1305zM256 186h420v932h-420v-932z" />
    <glyph glyph-name=".notdef" 
d="M883 0h-834v1305h834v-1305zM256 186h420v932h-420v-932z" />
    <glyph glyph-name=".null" 
 />
    <glyph glyph-name=".null" 
 />
    <glyph glyph-name="nonmarkingreturn" unicode="&#xd;" 
 />
    <glyph glyph-name="space" unicode=" " 
 />
    <glyph glyph-name="exclam" unicode="!" 
d="M602 1305l-51 -932h-170l-51 932h272zM592 0h-252v252h252v-252z" />
    <glyph glyph-name="quotedbl" unicode="&#x22;" 
d="M776 1305l-45 -500h-158l-45 500h248zM403 1305l-45 -500h-157l-45 500h247z" />
    <glyph glyph-name="numbersign" unicode="#" 
d="M932 187h-187v-186h-186v186h-186v-186h-187v186h-186v186h186v187h-186v186h186v187h187v-187h186v187h186v-187h187v-186h-187v-187h187v-186zM559 373v187h-186v-187h186z" />
    <glyph glyph-name="dollar" unicode="$" 
d="M373 -16q-174 22 -275.5 126.5t-117.5 262.5l192 30q37 -192 201 -231v438q-66 27 -129.5 57.5t-112.5 75.5t-78.5 105.5t-29.5 144.5q0 127 92 217t258 111v170h186v-174q80 -14 143.5 -49t108.5 -85t70.5 -112.5t29.5 -130.5l-194 -22q-23 165 -158 208v-374
q68 -27 134.5 -60t118.5 -81t85 -113.5t33 -157.5q0 -66 -25.5 -125t-73 -107.5t-116 -80t-156.5 -43.5v-170h-186v170zM723 340q0 72 -46 116t-118 79v-363q76 14 120 55t44 113zM229 995q0 -59 40 -98t104 -70v306q-68 -13 -106 -46.5t-38 -91.5z" />
    <glyph glyph-name="percent" unicode="%" 
d="M954 1257l-835 -1298l-137 88l837 1303zM-25 1073q0 51 20.5 98.5t54.5 81t80 54t99 20.5q52 0 99 -20.5t80.5 -54t54 -81t20.5 -98.5q0 -53 -20.5 -99t-54 -80t-80.5 -54.5t-99 -20.5q-53 0 -99 20.5t-80 54.5t-54.5 80t-20.5 99zM125 1075q0 -43 30.5 -73.5t73.5 -30.5
t74 30.5t31 73.5t-31 74t-74 31t-73.5 -31t-30.5 -74zM453 231q0 52 20.5 99t54 80.5t79.5 54t100 20.5q51 0 98 -20.5t81 -54t54.5 -80.5t20.5 -99q0 -53 -20.5 -99t-54.5 -80t-81 -54.5t-98 -20.5q-54 0 -100 20.5t-79.5 54.5t-54 80t-20.5 99zM602 233q0 -43 31 -73.5
t74 -30.5t73.5 30.5t30.5 73.5t-30.5 74t-73.5 31t-74 -31t-31 -74z" />
    <glyph glyph-name="ampersand" unicode="&#x26;" 
d="M956 565q-16 -73 -45.5 -150t-76.5 -149l157 -145l-129 -148l-149 146q-72 -66 -158 -104t-190 -38q-82 0 -154 28t-124 76t-82 112.5t-30 140.5q0 131 48.5 214t115.5 142q-57 72 -88 144.5t-31 156.5q0 76 27 138.5t71 106.5t103.5 67.5t126.5 23.5q68 0 127.5 -20.5
t103.5 -58.5t68.5 -92t24.5 -124q0 -67 -23.5 -120.5t-61.5 -96.5t-85 -79t-94 -68l284 -269q25 50 43.5 104t32.5 109zM379 164q59 0 109.5 22.5t93.5 61.5l-314 305h-2q-37 -39 -60.5 -87t-23.5 -108q0 -86 56.5 -140t140.5 -54zM227 991q0 -55 10.5 -99t47.5 -95
q37 24 69.5 48.5t57 53.5t39 62.5t14.5 74.5q0 47 -32 76t-77 29q-59 0 -94 -43t-35 -107z" />
    <glyph glyph-name="quotesingle" unicode="'" 
d="M590 1305l-45 -500h-158l-45 500h248z" />
    <glyph glyph-name="parenleft" unicode="(" 
d="M375 567q0 -114 25.5 -228t74.5 -218.5t121 -197.5t164 -165l-127 -127q-107 84 -190 190.5t-139 227.5t-86 252t-30 266t30 266.5t86 252t139 227t190 190.5l127 -127q-92 -71 -164 -164.5t-121 -198t-74.5 -218t-25.5 -228.5z" />
    <glyph glyph-name="parenright" unicode=")" 
d="M561 565q0 115 -25.5 228.5t-74.5 218t-121 198t-164 164.5l127 127q107 -84 188.5 -190.5t139 -227t87.5 -252t30 -266.5t-30 -266t-87.5 -252t-139 -227.5t-188.5 -190.5l-127 127q92 72 164 165t121 197.5t74.5 218.5t25.5 228z" />
    <glyph glyph-name="asterisk" unicode="*" 
d="M537 591l282 196l99 -174l-310 -147l310 -146l-99 -174l-282 197l28 -342h-198l28 342l-282 -197l-99 174l310 146l-310 147l99 174l282 -196l-28 342h198z" />
    <glyph glyph-name="plus" unicode="+" 
d="M932 385h-373v-372h-186v372h-373v187h373v372h186v-372h373v-187z" />
    <glyph glyph-name="comma" unicode="," 
d="M641 187l-274 -559h-158l186 559h246z" />
    <glyph glyph-name="hyphen" unicode="-" 
d="M0 385v186h932v-186h-932z" />
    <glyph glyph-name="period" unicode="." 
d="M592 0h-252v252h252v-252z" />
    <glyph glyph-name="slash" unicode="/" 
d="M778 1366l154 -76l-766 -1542l-154 76z" />
    <glyph glyph-name="zero" unicode="0" 
d="M-33 653q0 131 28 253t87 215t154.5 149.5t230.5 56.5t230.5 -56.5t155.5 -149.5t87 -215t27 -253t-27 -252.5t-86 -216t-154.5 -151t-232.5 -56.5t-232.5 56.5t-155 151t-86 216t-26.5 252.5zM174 653q0 -92 12 -178l512 514q-34 68 -89.5 110t-141.5 42
q-143 0 -218 -129t-75 -359zM467 164q88 0 144.5 43t89 112.5t46 157.5t13.5 176q0 84 -12 164l-508 -510q34 -65 87.5 -104t139.5 -39z" />
    <glyph glyph-name="one" unicode="1" 
d="M778 0h-626v186h210v742q-14 -49 -48.5 -87t-83 -63.5t-108 -39t-122.5 -13.5v207q68 0 132.5 22.5t115.5 68.5t82.5 115.5t31.5 166.5h207v-1119h209v-186z" />
    <glyph glyph-name="two" unicode="2" 
d="M905 948q0 -92 -49 -188t-135 -182l-408 -392h383v179h187v-365h-840v195l526 503q68 70 98.5 131.5t30.5 118.5q0 51 -19.5 88t-50 60.5t-69.5 34t-78 10.5q-123 0 -193.5 -72t-70.5 -213h-194q0 221 117.5 346t340.5 125q84 0 161 -24.5t135.5 -71.5t93 -119t34.5 -164
z" />
    <glyph glyph-name="three" unicode="3" 
d="M920 354q0 -86 -35 -155.5t-93.5 -118.5t-135 -76t-160.5 -27q-95 0 -176.5 26t-144 78t-101.5 134t-47 195l194 32q10 -129 84 -203.5t191 -74.5q98 0 157.5 52t59.5 138q0 117 -76 167t-266 50v187q67 0 124.5 13t100.5 39t67.5 62.5t24.5 85.5q0 82 -49 132.5
t-143 50.5q-123 0 -188.5 -66.5t-65.5 -212.5h-197q0 115 33 202t92 145.5t142 88t184 29.5q84 0 156.5 -25.5t127 -73.5t85 -116t30.5 -154q0 -55 -17.5 -104t-50 -87t-81 -61.5t-107.5 -27.5q68 -6 120 -35t88 -73t54.5 -100t18.5 -116z" />
    <glyph glyph-name="four" unicode="4" 
d="M932 0h-627v186h209v162h-514v187l477 770h242v-770h213v-187h-213v-162h213v-186zM514 535v526l-328 -526h328z" />
    <glyph glyph-name="five" unicode="5" 
d="M942 438q0 -96 -39 -180t-105.5 -146.5t-153.5 -98.5t-183 -36q-94 0 -174 28t-140.5 80t-97.5 128t-45 174l197 29q10 -113 73.5 -182.5t186.5 -69.5q63 0 112.5 21.5t84 58.5t53 87t18.5 107q0 131 -67.5 204t-178.5 73q-71 0 -131.5 -30t-95.5 -97h-207v717h817v-187
h-610v-338q92 121 268 121q84 0 160 -32.5t133 -92t91 -145.5t34 -193z" />
    <glyph glyph-name="six" unicode="6" 
d="M948 444q0 -108 -35.5 -194t-98 -146.5t-147.5 -93.5t-182 -33q-147 0 -242.5 56.5t-150.5 149.5t-77.5 215t-22.5 253q0 133 32.5 255t100.5 216.5t169 149.5t241 55q98 0 185 -29.5t152 -87.5l-112 -151q-51 45 -105.5 63.5t-119.5 18.5q-84 0 -150 -34t-110 -95.5
t-66.5 -145.5t-22.5 -184q31 104 117 170t227 66q84 0 160 -36t133.5 -98.5t91 -149.5t33.5 -190zM741 444q0 123 -67.5 206t-194.5 83q-123 0 -196.5 -76.5t-73.5 -201.5q0 -62 16.5 -114t50 -92t86 -62.5t125.5 -22.5q111 0 182.5 73.5t71.5 206.5z" />
    <glyph glyph-name="seven" unicode="7" 
d="M932 1118q-123 -133 -199 -251.5t-118 -246.5t-58 -277.5t-18 -342.5h-211q2 182 24.5 332.5t71.5 284t129 255t197 246.5h-517v-219h-184v406h883v-187z" />
    <glyph glyph-name="eight" unicode="8" 
d="M940 367q0 -103 -37 -175.5t-101.5 -120.5t-151.5 -71t-185 -23q-100 0 -186 23t-151 71t-101.5 120.5t-36.5 175.5q0 53 19.5 107t56 100.5t89 77t115.5 38.5q-55 6 -98 35t-72.5 69t-46 86t-16.5 89q0 88 34.5 155.5t94 112.5t137.5 67.5t162 22.5t162 -22.5t137 -67.5
t94 -112.5t35 -155.5q0 -43 -16.5 -89t-46 -86t-73.5 -69t-100 -35q64 -8 116 -38.5t89 -77t57.5 -100.5t20.5 -107zM686 956q0 86 -58.5 135.5t-162.5 49.5q-105 0 -163 -49.5t-58 -135.5q0 -82 54 -129t167 -47t167 47t54 129zM733 379q0 59 -21.5 100t-58.5 66.5t-85 37
t-103 11.5t-103.5 -11.5t-85 -37t-58 -66.5t-21.5 -100q0 -55 21.5 -96t58 -68t85 -39t103.5 -12t103 12t85 39t58.5 68t21.5 96z" />
    <glyph glyph-name="nine" unicode="9" 
d="M-16 860q0 109 35.5 195t98 146.5t147.5 93t181 32.5q148 0 243 -56.5t150.5 -150.5t78 -215t22.5 -252q0 -133 -33 -255t-100.5 -216t-169.5 -149.5t-240 -55.5q-98 0 -185 30t-153 87l113 152q51 -45 105.5 -63.5t119.5 -18.5q84 0 149.5 33.5t109.5 95t66.5 145.5
t22.5 185q-30 -105 -116 -170.5t-228 -65.5q-84 0 -159.5 36t-133 98.5t-91 149.5t-33.5 189zM190 860q0 -123 68 -206t195 -83q122 0 196 77t74 202q0 61 -16.5 113.5t-50 92.5t-86 62.5t-126.5 22.5q-110 0 -182 -74t-72 -207z" />
    <glyph glyph-name="colon" unicode=":" 
d="M592 680h-252v252h252v-252zM592 0h-252v252h252v-252z" />
    <glyph glyph-name="semicolon" unicode=";" 
d="M592 680h-252v252h252v-252zM641 187l-274 -559h-158l186 559h246z" />
    <glyph glyph-name="less" unicode="&#x3c;" 
d="M829 88l-118 -120l-512 512l512 512l118 -121l-391 -391z" />
    <glyph glyph-name="equal" unicode="=" 
d="M932 572h-932v186h932v-186zM932 199h-932v186h932v-186z" />
    <glyph glyph-name="greater" unicode="&#x3e;" 
d="M494 480l-392 391l119 121l512 -512l-512 -512l-119 120z" />
    <glyph glyph-name="question" unicode="?" 
d="M909 1004q0 -74 -26.5 -129.5t-65.5 -102.5t-86 -89t-86 -87t-65.5 -99.5t-26.5 -123.5h-213q0 82 26.5 146.5t67.5 116.5t87 96t87 87t67.5 88t26.5 99q0 65 -38.5 100t-104.5 35q-98 0 -143 -54.5t-56 -150.5l-192 29q18 168 115.5 265t273.5 97q166 0 259 -88t93 -235
zM592 0h-252v252h252v-252z" />
    <glyph glyph-name="at" unicode="@" 
d="M974 684q0 -68 -11.5 -138t-40 -126.5t-76.5 -92.5t-122 -36q-27 0 -53.5 10.5t-47.5 30t-34 46.5t-13 59v10q-9 -33 -25.5 -61.5t-39.5 -49.5t-51 -33t-60 -12q-61 0 -102.5 29t-66.5 77t-36 109t-11 125q0 74 16.5 141.5t49 119t79.5 82t108 30.5q18 0 37 -6t36 -18.5
t30.5 -31.5t20.5 -44v81h161v-495q0 -32 10.5 -46t27.5 -14q22 0 37.5 20t25.5 54.5t14.5 81t4.5 98.5q0 105 -20 200t-63.5 167t-114 114.5t-170.5 42.5q-101 0 -171.5 -43.5t-114 -118.5t-63 -176.5t-19.5 -218.5q0 -115 19.5 -216t63 -176t114 -118.5t171.5 -43.5
q82 0 146.5 29t118.5 78l59 -98q-128 -129 -324 -129q-92 0 -164.5 25.5t-128 71.5t-95 109t-64.5 138t-36.5 159t-11.5 171q0 89 12 173.5t37 159.5t64.5 138t95.5 108.5t128 71t163 25.5q90 0 162.5 -25.5t128 -70.5t95 -106t65 -132.5t37.5 -150t12 -158.5zM561 796
q-18 38 -43.5 54t-50.5 16q-30 0 -52 -18t-36.5 -49.5t-21 -74.5t-6.5 -92q0 -54 6.5 -90.5t19 -58.5t30.5 -31t41 -9q25 0 46 17.5t36 45.5t23 62.5t8 69.5v158z" />
    <glyph glyph-name="A" unicode="A" 
d="M776 0l-94 311h-432l-92 -311h-217l407 1305h238l407 -1305h-217zM305 494h322l-160 538z" />
    <glyph glyph-name="B" unicode="B" 
d="M930 358q0 -178 -121 -268t-344 -90h-416v1305h393q82 0 161 -13.5t141.5 -50.5t101.5 -103.5t39 -172.5q0 -99 -50.5 -181t-152.5 -118q125 -39 186.5 -109t61.5 -199zM680 938q0 57 -21.5 93t-55.5 55.5t-76 25.5t-85 6h-186v-360h186q43 0 85 6t76 25.5t55.5 55.5
t21.5 93zM725 379q0 98 -68.5 145t-191.5 47h-209v-385h209q123 0 191.5 47.5t68.5 145.5z" />
    <glyph glyph-name="C" unicode="C" 
d="M952 399q-24 -96 -64 -174t-97.5 -133t-134 -85t-175.5 -30q-137 0 -232 56.5t-155.5 151t-87 216t-26.5 252.5t26.5 253t86 215t151.5 149.5t225 56.5q43 0 87 -11t82 -33.5t66.5 -55.5t40.5 -76v154h187v-494h-187q0 61 -15 120.5t-48 105.5t-83 75t-118 29
q-88 0 -144 -43t-90 -113t-47.5 -157t-13.5 -175t13.5 -176t46.5 -157.5t90 -112.5t145 -43q127 0 195.5 81t109.5 218z" />
    <glyph glyph-name="D" unicode="D" 
d="M975 653q0 -131 -27.5 -249.5t-88 -208t-156 -142.5t-230.5 -53h-424v1305h424q133 0 228.5 -53.5t156 -142.5t89 -207t28.5 -249zM768 653q0 226 -77 345.5t-218 119.5h-217v-932h217q141 0 218 122t77 345z" />
    <glyph glyph-name="E" unicode="E" 
d="M883 0h-834v1305h834v-187h-627v-360h489v-187h-489v-385h627v-186z" />
    <glyph glyph-name="F" unicode="F" 
d="M883 1118h-627v-360h489v-187h-489v-571h-207v1305h834v-187z" />
    <glyph glyph-name="G" unicode="G" 
d="M983 649q0 -133 -26.5 -254t-87 -214t-156 -148.5t-232.5 -55.5t-232 56.5t-155.5 149.5t-87 215t-26.5 253t26.5 253t87 216t155.5 150.5t232 56.5q39 0 80 -11t78 -33.5t65.5 -55.5t40.5 -76v154h187v-463h-187q0 61 -19 115.5t-54 95.5t-84 64.5t-107 23.5
q-88 0 -144 -44t-90 -114t-47.5 -157t-13.5 -175t13.5 -175t46.5 -156.5t90 -112.5t145 -43q127 0 205 81t107 251h-275v186h465v-33z" />
    <glyph glyph-name="H" unicode="H" 
d="M883 0h-207v571h-420v-571h-207v1305h207v-547h420v547h207v-1305z" />
    <glyph glyph-name="I" unicode="I" 
d="M782 0h-626v186h206v932h-206v187h626v-187h-213v-932h213v-186z" />
    <glyph glyph-name="J" unicode="J" 
d="M883 498q0 -248 -105.5 -384.5t-322.5 -136.5q-174 0 -292 91.5t-165 273.5l186 70q29 -117 94.5 -182.5t176.5 -65.5q67 0 110 27.5t67.5 73.5t34 106.5t9.5 126.5v807h207v-807z" />
    <glyph glyph-name="K" unicode="K" 
d="M926 0h-242l-342 608l-86 -102v-506h-207v1305h207v-512l406 512h266l-455 -541z" />
    <glyph glyph-name="L" unicode="L" 
d="M883 0h-834v1305h207v-1119h627v-186z" />
    <glyph glyph-name="M" unicode="M" 
d="M883 0h-207v883l-131 -469h-160l-129 469v-883h-207v1305h246l170 -590l170 590h248v-1305z" />
    <glyph glyph-name="N" unicode="N" 
d="M883 0h-240l-387 946v-946h-207v1305h260l367 -899v899h207v-1305z" />
    <glyph glyph-name="O" unicode="O" 
d="M-33 653q0 131 28 253t87 215t154.5 149.5t230.5 56.5t230.5 -56.5t155.5 -149.5t87 -215t27 -253t-27 -252.5t-86 -216t-154.5 -151t-232.5 -56.5t-232.5 56.5t-155 151t-86 216t-26.5 252.5zM174 653q0 -88 13.5 -176t46 -157.5t89 -112.5t144.5 -43t144.5 43t89 112.5
t46 157.5t13.5 176t-13.5 175t-46 157t-90 113t-143.5 43q-143 0 -218 -129t-75 -359z" />
    <glyph glyph-name="P" unicode="P" 
d="M932 915q0 -196 -119 -291.5t-332 -95.5h-225v-528h-207v1305h430q215 0 334 -98.5t119 -291.5zM725 918q0 100 -65.5 150t-178.5 50h-225v-403h225q113 0 178.5 50t65.5 153z" />
    <glyph glyph-name="Q" unicode="Q" 
d="M-33 653q0 131 28 253t87 215t154.5 149.5t230.5 56.5t230.5 -56.5t155.5 -149.5t87 -215t27 -253q0 -121 -21.5 -232.5t-71 -201.5t-126 -152.5t-187.5 -80.5q10 -99 82 -135.5t205 -36.5q18 0 39.5 1t44.5 1v-185q-29 -2 -55.5 -3t-51.5 -1q-202 0 -328 92.5
t-151 272.5q-102 24 -175 86.5t-118 151.5t-65.5 198t-20.5 225zM174 653q0 -88 13.5 -176t46 -157.5t89 -112.5t144.5 -43t144.5 43t89 112.5t46 157.5t13.5 176t-13.5 175t-46 157t-90 113t-143.5 43q-143 0 -218 -129t-75 -359z" />
    <glyph glyph-name="R" unicode="R" 
d="M950 0h-262l-338 528h-94v-528h-207v1305h430q215 0 334 -98.5t119 -291.5q0 -86 -26.5 -151.5t-75 -112.5t-113 -74.5t-139.5 -37.5zM725 918q0 100 -65.5 150t-180.5 50h-223v-403h223q115 0 180.5 50t65.5 153z" />
    <glyph glyph-name="S" unicode="S" 
d="M899 358q0 -90 -30.5 -160.5t-83 -119.5t-125 -75t-154.5 -26q-92 0 -166 33t-127 109v-119h-186v426h186q0 -64 22.5 -113t59.5 -82.5t86 -51t104 -17.5q93 0 150 43t57 137q0 49 -17.5 84t-50 62.5t-79.5 48t-107 43.5q-71 24 -142 54t-127 74t-91 108.5t-35 162.5
q0 86 31.5 150.5t84 108.5t122 66.5t147.5 22.5q90 0 154.5 -38t99.5 -101v117h186v-406h-186q0 115 -60.5 179.5t-162.5 64.5q-90 0 -149.5 -42t-59.5 -118q0 -39 15.5 -66.5t45 -50t74.5 -42t104 -42.5q74 -26 147 -59t131 -81t95 -116.5t37 -167.5z" />
    <glyph glyph-name="T" unicode="T" 
d="M930 829h-185v289h-176v-932h207v-186h-620v186h206v932h-178v-289h-184v476h930v-476z" />
    <glyph glyph-name="U" unicode="U" 
d="M883 465q0 -111 -24.5 -201t-76 -153.5t-130.5 -98.5t-187 -35q-109 0 -186.5 35t-129 98.5t-76 154.5t-24.5 202v838h207v-840q0 -49 7 -101.5t28.5 -97.5t63.5 -73.5t110 -28.5q67 0 109 28.5t65 72.5t30 97.5t7 102.5v840h207v-840z" />
    <glyph glyph-name="V" unicode="V" 
d="M991 1305l-407 -1305h-236l-407 1305h217l309 -1033l307 1033h217z" />
    <glyph glyph-name="W" unicode="W" 
d="M995 1305l-202 -1305h-213l-115 563l-113 -563h-213l-202 1305h215l120 -879l95 506h198l92 -506l123 879h215z" />
    <glyph glyph-name="X" unicode="X" 
d="M952 0h-426v186h74l-137 295l-137 -295h73v-186h-422v186h113l254 473l-250 459h-94v187h414v-187h-84l133 -289l135 289h-82v187h416v-187h-101l-249 -459l254 -473h116v-186z" />
    <glyph glyph-name="Y" unicode="Y" 
d="M952 1118h-94l-289 -586v-346h209v-186h-624v186h208v346l-288 586h-94v187h411v-187h-90l166 -383l164 383h-90v187h411v-187z" />
    <glyph glyph-name="Z" unicode="Z" 
d="M883 0h-834v184l584 934h-397v-284h-187v471h817v-187l-567 -932h401v287h183v-473z" />
    <glyph glyph-name="bracketleft" unicode="[" 
d="M807 -373h-434v1864h434v-186h-248v-1491h248v-187z" />
    <glyph glyph-name="backslash" unicode="\" 
d="M932 -176l-154 -76l-766 1542l154 76z" />
    <glyph glyph-name="bracketright" unicode="]" 
d="M559 -373h-434v187h248v1491h-248v186h434v-1864z" />
    <glyph glyph-name="asciicircum" unicode="^" 
d="M995 559h-228l-300 562l-298 -562h-228l402 746h248z" />
    <glyph glyph-name="underscore" unicode="_" 
d="M0 -186v186h932v-186h-932z" />
    <glyph glyph-name="grave" unicode="`" 
d="M344 1405l404 -287l-89 -137l-432 244z" />
    <glyph glyph-name="a" unicode="a" 
d="M-4 268q0 82 44 143.5t115.5 102.5t164 61.5t188.5 20.5q53 0 91 -2t77 -6v37q0 73 -56.5 109t-148.5 36q-84 0 -171 -23.5t-165 -68.5l-84 162q92 53 197.5 83.5t222.5 30.5q76 0 149.5 -17t132 -56t93.5 -101.5t35 -154.5v-625h-205v137q-49 -76 -144.5 -118
t-205.5 -42q-68 0 -128.5 18.5t-104.5 55.5t-70.5 91.5t-26.5 125.5zM379 162q61 0 114.5 15.5t94.5 43t64.5 66.5t23.5 86v35q-49 8 -92 9t-76 1q-152 0 -229.5 -40t-77.5 -99q0 -117 178 -117z" />
    <glyph glyph-name="b" unicode="b" 
d="M49 1305h207v-457q59 53 119.5 79.5t138.5 26.5q90 0 167 -36.5t132 -101t87 -155t32 -196.5q0 -107 -32 -197t-87 -154.5t-132 -100.5t-167 -36q-78 0 -138.5 28t-119.5 81v-86h-207v1305zM256 248q37 -41 94.5 -62.5t110.5 -21.5q117 0 190.5 83t73.5 218t-73.5 219
t-190.5 84q-53 0 -110.5 -21.5t-94.5 -62.5v-436z" />
    <glyph glyph-name="c" unicode="c" 
d="M897 133q-90 -90 -189.5 -123t-215.5 -33q-117 0 -212.5 35t-162 98.5t-102 153.5t-35.5 201q0 106 35.5 196.5t96 155t142.5 101t174 36.5q96 0 167 -40t103 -117v135h185v-434h-185q0 123 -67.5 196.5t-175.5 73.5q-43 0 -90.5 -17.5t-87 -54.5t-65.5 -94t-26 -137
q0 -78 25 -134.5t65.5 -93t96 -55t114.5 -18.5q101 0 175.5 31.5t128.5 83.5z" />
    <glyph glyph-name="d" unicode="d" 
d="M883 0h-207v86q-60 -53 -121 -81t-139 -28q-90 0 -167 36t-132.5 100.5t-87 154.5t-31.5 197q0 106 31.5 196.5t87 155t132.5 101t167 36.5q78 0 139 -26.5t121 -79.5v270h-180v187h387v-1305zM676 684q-37 41 -95.5 62.5t-111.5 21.5q-117 0 -190.5 -84t-73.5 -219
t73.5 -218t190.5 -83q53 0 111.5 21.5t95.5 62.5v436z" />
    <glyph glyph-name="e" unicode="e" 
d="M190 387q15 -96 91.5 -159.5t205.5 -63.5q101 0 175.5 31.5t128.5 83.5l106 -146q-90 -90 -190.5 -123t-219.5 -33q-108 0 -201 36t-161 100.5t-106.5 153.5t-38.5 198q0 106 35.5 195.5t100 155t154.5 102t199 36.5q113 0 205 -38.5t157.5 -111.5t102.5 -178.5
t37 -238.5h-781zM737 569q-16 90 -93 144.5t-175 54.5t-176 -54.5t-94 -144.5h538z" />
    <glyph glyph-name="f" unicode="f" 
d="M932 745h-363v-559h213v-186h-626v186h206v559h-206v187h206q0 192 118 293.5t319 101.5q30 0 64 -3t69 -7v-182q-60 6 -109 6q-80 0 -129 -11.5t-76.5 -37t-38 -65.5t-10.5 -95h363v-187z" />
    <glyph glyph-name="g" unicode="g" 
d="M883 10q0 -96 -33 -171t-92.5 -127t-140 -79.5t-179.5 -27.5q-243 0 -415 147l98 160q143 -123 317 -123q107 0 172.5 52.5t65.5 164.5v100q-64 -55 -123 -81.5t-137 -26.5q-90 0 -167 38t-132.5 103.5t-87 152.5t-31.5 185t31.5 185.5t87 152t132.5 102t167 37.5
q78 0 139 -26.5t121 -79.5v84h207v-922zM676 684q-37 41 -95.5 62.5t-113.5 21.5q-117 0 -189.5 -82t-72.5 -209q0 -63 19.5 -116.5t54 -92.5t83 -61.5t105.5 -22.5q55 0 113.5 22.5t95.5 63.5v414z" />
    <glyph glyph-name="h" unicode="h" 
d="M883 0h-207v575q0 109 -41 151t-119 42q-115 0 -187.5 -93t-72.5 -257v-418h-207v1305h207v-607q31 121 115 188.5t207 67.5q143 0 224 -93t81 -286v-575z" />
    <glyph glyph-name="i" unicode="i" 
d="M592 1053h-252v252h252v-252zM782 0h-626v186h206v559h-206v187h413v-746h213v-186z" />
    <glyph glyph-name="j" unicode="j" 
d="M344 -395q-213 0 -344 159l123 138q47 -56 100 -83.5t121 -27.5q105 0 155 57.5t50 151.5v745h-211v187h418v-932q0 -90 -30 -163t-84 -125t-130 -79.5t-168 -27.5zM778 1053h-252v252h252v-252z" />
    <glyph glyph-name="k" unicode="k" 
d="M930 0h-268l-312 377l-94 -96v-281h-207v1305h207v-768l373 395h284l-430 -428z" />
    <glyph glyph-name="l" unicode="l" 
d="M784 0h-626v186h204v932h-204v187h411v-1119h215v-186z" />
    <glyph glyph-name="m" unicode="m" 
d="M932 0h-207v639q0 66 -13.5 97.5t-47.5 31.5q-62 0 -78.5 -69.5t-16.5 -202.5v-496h-207v639q0 66 -14 97.5t-49 31.5q-61 0 -76.5 -69.5t-15.5 -202.5v-496h-207v932h209v-135q22 77 65 117t115 40q60 0 100.5 -36.5t55.5 -100.5q35 70 72.5 103.5t115.5 33.5
q96 0 147.5 -70.5t51.5 -213.5v-670z" />
    <glyph glyph-name="n" unicode="n" 
d="M883 0h-207v575q0 109 -41 151t-119 42q-115 0 -187.5 -93t-72.5 -257v-418h-207v932h207v-234q31 121 115 188.5t207 67.5q143 0 224 -93t81 -286v-575z" />
    <glyph glyph-name="o" unicode="o" 
d="M956 465q0 -109 -34.5 -198t-99 -153.5t-154.5 -100.5t-201 -36q-109 0 -199 36t-154.5 100.5t-99 153.5t-34.5 198q0 106 34.5 196.5t99 156t154.5 101t199 35.5q111 0 201 -35.5t154.5 -101t99 -156t34.5 -196.5zM750 465q0 63 -19.5 119.5t-56.5 96.5t-89.5 63.5
t-117.5 23.5q-66 0 -118 -23.5t-88 -63.5t-55.5 -96.5t-19.5 -119.5q0 -66 19.5 -120t55.5 -95t88 -63.5t118 -22.5q65 0 117.5 22.5t89.5 63.5t56.5 95t19.5 120z" />
    <glyph glyph-name="p" unicode="p" 
d="M49 932h207v-84q59 53 119.5 79.5t138.5 26.5q90 0 167 -36.5t132 -101t87 -155t32 -196.5q0 -107 -32 -197t-87 -154.5t-132 -100.5t-167 -36q-78 0 -138.5 28t-119.5 81v-459h-207v1305zM256 250q37 -41 94.5 -63.5t110.5 -22.5q117 0 190.5 83t73.5 218t-73.5 219
t-190.5 84q-53 0 -110.5 -21.5t-94.5 -62.5v-434z" />
    <glyph glyph-name="q" unicode="q" 
d="M883 -373h-207v459q-60 -53 -121 -81t-139 -28q-90 0 -167 36t-132.5 100.5t-87 154.5t-31.5 197q0 106 31.5 196.5t87 155t132.5 101t167 36.5q78 0 139 -26.5t121 -79.5v84h207v-1305zM676 684q-37 41 -95.5 62.5t-111.5 21.5q-117 0 -190.5 -84t-73.5 -219t73.5 -218
t190.5 -83q53 0 111.5 21.5t95.5 62.5v436z" />
    <glyph glyph-name="r" unicode="r" 
d="M909 711q-37 18 -75.5 27.5t-88.5 9.5q-69 0 -129.5 -20.5t-104.5 -61.5t-68.5 -102.5t-24.5 -145.5v-232h209v-186h-627v186h211v559h-211v187h418v-234q51 140 150.5 198t236.5 58q43 0 90 -9t92 -32z" />
    <glyph glyph-name="s" unicode="s" 
d="M907 279q0 -91 -41 -148t-105.5 -92t-144 -48.5t-155.5 -13.5q-127 0 -253 37t-218 97l86 170q110 -64 201.5 -90.5t183.5 -26.5q125 0 182 26.5t57 73.5q0 23 -16 38t-53 27.5t-97.5 25t-150.5 26.5q-72 12 -136.5 29.5t-113.5 49.5t-78.5 81t-29.5 123q0 75 38.5 130.5
t101 91.5t140.5 52t156 16q110 0 213.5 -28.5t181.5 -81.5l-82 -160q-78 49 -151.5 66.5t-161.5 17.5q-37 0 -77 -4t-74 -15.5t-56.5 -31t-22.5 -47.5q0 -37 65.5 -60.5t223.5 -46.5q86 -12 157 -30.5t122 -50t79.5 -81t28.5 -122.5z" />
    <glyph glyph-name="t" unicode="t" 
d="M942 297q-16 -147 -115.5 -233.5t-248.5 -86.5q-82 0 -150 27t-116 75t-74.5 115.5t-26.5 147.5v403h-211v187h211v373h207v-373h391v-187h-391v-403q0 -90 44 -134t116 -44q88 0 131 51t51 123z" />
    <glyph glyph-name="u" unicode="u" 
d="M49 932h207v-576q0 -108 41 -150t119 -42q114 0 187 93t73 257v418h207v-932h-207v233q-31 -120 -115 -188t-207 -68q-143 0 -224 93.5t-81 285.5v576z" />
    <glyph glyph-name="v" unicode="v" 
d="M932 932l-344 -932h-244l-344 932h221l246 -705l244 705h221z" />
    <glyph glyph-name="w" unicode="w" 
d="M961 932l-140 -932h-256l-98 561l-100 -561h-256l-140 932h203l82 -623l100 623h219l101 -623l82 623h203z" />
    <glyph glyph-name="x" unicode="x" 
d="M954 0h-442v186h82l-127 195l-125 -195h76v-186h-438v186h135l209 287l-199 272h-125v187h420v-187h-66l113 -180l115 180h-74v187h424v-187h-121l-199 -272l209 -287h133v-186z" />
    <glyph glyph-name="y" unicode="y" 
d="M924 932l-402 -1114q-45 -121 -131 -166t-205 -45q-41 0 -88 8t-98 27l43 190q43 -16 79 -22.5t64 -6.5q93 0 127 82l37 90l-356 957h215l256 -705l237 705h222z" />
    <glyph glyph-name="z" unicode="z" 
d="M883 0h-834v184l531 561h-349v-188h-182v375h815v-187l-532 -559h368v185h183v-371z" />
    <glyph glyph-name="braceleft" unicode="{" 
d="M805 -373h-154q-61 0 -112.5 20.5t-88 58.5t-57 89t-20.5 113v426q0 82 -47 106.5t-140 24.5v186q93 0 140 23.5t47 107.5v426q0 62 20.5 113t57 89t88 59.5t112.5 21.5h154v-186h-154q-53 0 -72.5 -21.5t-19.5 -75.5v-426q0 -94 -57.5 -152.5t-130.5 -72.5
q37 -6 70.5 -23.5t59 -47t42 -68.5t16.5 -84v-426q0 -53 19.5 -74.5t72.5 -21.5h154v-185z" />
    <glyph glyph-name="bar" unicode="|" 
d="M559 -186h-186v1677h186v-1677z" />
    <glyph glyph-name="braceright" unicode="}" 
d="M127 -188h154q53 0 72.5 21.5t19.5 74.5v430q0 45 16.5 84t42 68.5t59 47t70.5 23.5q-74 14 -131 72.5t-57 152.5v426q0 54 -19.5 73.5t-72.5 19.5h-154v186h154q61 0 112 -20.5t88 -57.5t57.5 -88t20.5 -113v-426q0 -84 47 -107.5t139 -23.5v-186q-92 0 -139 -24.5
t-47 -106.5v-430q0 -62 -20.5 -113t-57.5 -89t-88 -58.5t-112 -20.5h-154v185z" />
    <glyph glyph-name="asciitilde" unicode="~" 
d="M621 435q53 0 77.5 57t40.5 190l197 -14q-6 -90 -27.5 -167t-60.5 -133t-95.5 -89t-131.5 -33q-82 0 -127 39t-75 87t-51.5 87t-56.5 39q-53 0 -77.5 -56.5t-40.5 -189.5l-197 15q6 88 27.5 165.5t60.5 134t95.5 89t131.5 32.5q82 0 128 -39.5t75 -87t51.5 -87
t55.5 -39.5z" />
    <glyph glyph-name="uni00A0" unicode="&#xa0;" 
 />
    <glyph glyph-name="exclamdown" unicode="&#xa1;" 
d="M516 0l51 932h170l51 -932h-272zM778 1053h-252v252h252v-252z" />
    <glyph glyph-name="cent" unicode="&#xa2;" 
d="M-20 653q0 193 104 319t289 158v175h186v-168q94 -9 177 -42.5t161 -109.5l-106 -145q-43 41 -100.5 69.5t-131.5 38.5v-592q74 11 131.5 40.5t100.5 70.5l106 -145q-78 -78 -161 -112t-177 -42v-168h-186v176q-185 33 -289 159t-104 318zM186 653q0 -116 52.5 -185
t134.5 -97v565q-82 -29 -134.5 -97.5t-52.5 -185.5z" />
    <glyph glyph-name="sterling" unicode="&#xa3;" 
d="M0 745h186v230q0 76 27 141.5t73 111.5t107.5 72.5t128.5 26.5q123 0 208 -65.5t108 -186.5l-187 -45q-30 111 -129 111q-57 0 -93 -38t-36 -128v-230h187v-186h-187v-186q0 -66 -25.5 -115t-66.5 -72h172q68 0 116 8.5t85 29t64.5 56t56.5 91.5l170 -90
q-66 -142 -196 -211.5t-296 -69.5h-473v186h61q35 0 58.5 12.5t39 32t21.5 44t6 47.5v237h-186v186z" />
    <glyph glyph-name="currency" unicode="&#xa4;" 
d="M872 938q39 -59 60.5 -131t21.5 -156t-21.5 -155.5t-60.5 -130.5l119 -119l-121 -121l-118 119q-117 -80 -287 -80t-287 80l-119 -119l-120 121l118 119q-39 59 -59.5 130.5t-20.5 155.5q0 164 80 285l-118 121l120 121l119 -119q119 82 287 82q84 0 155.5 -21.5
t131.5 -60.5l118 119l121 -121zM748 651q0 64 -19.5 120t-56.5 96t-89.5 63.5t-117.5 23.5q-66 0 -118 -23.5t-88 -63.5t-55.5 -96t-19.5 -120q0 -65 19.5 -119.5t55.5 -95.5t88 -63.5t118 -22.5q65 0 117.5 22.5t89.5 63.5t56.5 95.5t19.5 119.5z" />
    <glyph glyph-name="yen" unicode="&#xa5;" 
d="M365 559v4l-84 182h-281v187h197l-168 373h215l225 -555l223 555h215l-170 -373h195v-187h-279l-82 -182v-4h361v-186h-361v-373h-206v373h-365v186h365z" />
    <glyph glyph-name="brokenbar" unicode="&#xa6;" 
d="M569 -186h-207v764h207v-764zM569 727h-207v764h207v-764z" />
    <glyph glyph-name="section" unicode="&#xa7;" 
d="M68 813q0 74 28.5 141.5t73.5 110.5q-47 41 -74.5 97.5t-27.5 142.5q0 94 31.5 163.5t86 115.5t127 68.5t154.5 22.5q80 0 154.5 -21.5t136 -65.5t102.5 -110.5t53 -158.5l-192 -33q-16 115 -79.5 159t-174.5 44q-74 0 -133.5 -40t-59.5 -118q0 -67 48.5 -109t120 -74
t155.5 -62.5t155.5 -74.5t120 -110.5t48.5 -171.5q0 -96 -29 -160.5t-76 -122.5q47 -40 76 -98.5t29 -142.5q0 -92 -33 -164t-89.5 -123t-131 -77.5t-156.5 -26.5q-86 0 -165 21.5t-144.5 65.5t-113.5 112.5t-69 164.5l187 47q29 -104 100.5 -164.5t204.5 -60.5
q82 0 142.5 48t60.5 136q0 78 -48.5 123t-120 76t-155.5 58.5t-155.5 71.5t-119.5 113.5t-48 186.5zM274 831q0 -61 35 -102t89.5 -70.5t122 -54t134.5 -55.5q29 26 44.5 59t15.5 86q0 68 -34 110t-88 70.5t-120.5 50t-134.5 46.5q-64 -58 -64 -140z" />
    <glyph glyph-name="dieresis" unicode="&#xa8;" 
d="M778 1053h-252v252h252v-252zM406 1053h-252v252h252v-252z" />
    <glyph glyph-name="copyright" unicode="&#xa9;" 
d="M864 532q-96 -147 -301 -147q-80 0 -147.5 26.5t-114.5 75t-73.5 115t-26.5 146.5q0 75 24.5 140.5t71.5 115t113.5 78t152.5 28.5q205 0 301 -147l-141 -99q-45 82 -160 82q-84 0 -131 -56t-47 -142t46 -142.5t132 -56.5q115 0 160 82zM1118 745q0 -110 -42 -211.5
t-115.5 -178t-176 -123t-223.5 -46.5q-108 0 -209.5 40t-179.5 114t-125 176t-47 229q0 115 44 217.5t120 178.5t178 120t219 44q113 0 213 -42t177 -118t122 -178.5t45 -221.5zM1053 745q0 101 -38 190t-104.5 156.5t-156.5 107.5t-193 40q-102 0 -192 -38t-158 -104.5
t-106.5 -156.5t-38.5 -195q0 -104 38.5 -194t105 -156.5t157 -104.5t194.5 -38q101 0 191 38t156.5 104.5t105.5 156.5t39 194z" />
    <glyph glyph-name="ordfeminine" unicode="&#xaa;" 
d="M-8 780q0 70 34.5 119t93 78t131.5 42t150 13h49.5t34 -2t31.5 -4t43 -6v59q0 49 -47 73t-123 24q-72 0 -148.5 -16.5t-142.5 -53.5l-63 129q61 41 150 64.5t204 23.5q72 0 136.5 -13.5t113.5 -43t77.5 -75.5t28.5 -112v-520h-186v109q-47 -52 -116.5 -89.5t-174.5 -37.5
q-135 0 -205.5 67.5t-70.5 171.5zM313 688q41 0 85 11.5t80 28.5t58.5 40t22.5 45v66q-53 8 -87 9t-71 1q-231 0 -231 -109q0 -35 28.5 -63.5t114.5 -28.5zM745 199h-745v186h745v-186z" />
    <glyph glyph-name="guillemotleft" unicode="&#xab;" 
d="M457 444l-119 -120l-324 327l324 330l119 -121l-203 -209zM827 444l-118 -120l-324 327l324 330l118 -121l-202 -209z" />
    <glyph glyph-name="logicalnot" unicode="&#xac;" 
d="M932 13h-187v372h-745v187h932v-559z" />
    <glyph glyph-name="uni00AD" unicode="&#xad;" 
d="M932 385h-932v187h932v-187z" />
    <glyph glyph-name="registered" unicode="&#xae;" 
d="M1118 932q0 -111 -42 -212.5t-115.5 -178t-176 -122.5t-223.5 -46q-108 0 -209.5 40t-179.5 113.5t-125 176t-47 229.5q0 115 44 217t120 178t178 120t219 44q113 0 213 -42t177 -118t122 -178t45 -221zM1053 932q0 100 -38 189t-104.5 157t-156.5 107.5t-193 39.5
q-102 0 -192 -37.5t-158 -104t-106.5 -157t-38.5 -194.5q0 -105 38.5 -195t105 -156.5t157 -104.5t194.5 -38q101 0 191 38t156.5 104.5t105.5 156.5t39 195zM866 596h-207l-122 227h-35v-227h-174v676h268q51 0 98 -13.5t83 -41t56.5 -70.5t20.5 -100q0 -80 -29.5 -130.5
t-111.5 -87.5zM682 1047q0 45 -22.5 65.5t-63.5 20.5h-94v-168h94q41 0 63.5 24.5t22.5 57.5z" />
    <glyph glyph-name="macron" unicode="&#xaf;" 
d="M745 1044h-559v175h559v-175z" />
    <glyph glyph-name="degree" unicode="&#xb0;" 
d="M0 1118q0 76 29.5 144.5t80 119t118 80t145.5 29.5q76 0 144.5 -29.5t118.5 -80t79.5 -119t29.5 -144.5q0 -78 -29.5 -145.5t-79.5 -117.5t-118.5 -80t-144.5 -30q-78 0 -145.5 30t-118 80t-80 117.5t-29.5 145.5zM141 1116q0 -47 18.5 -89t49.5 -72.5t73 -49t89 -18.5
t89 18.5t72.5 49t49 72.5t18.5 89t-18.5 89t-49 73t-72.5 49.5t-89 18.5t-89 -18.5t-73 -49.5t-49.5 -73t-18.5 -89z" />
    <glyph glyph-name="plusminus" unicode="&#xb1;" 
d="M932 385h-373v-323h-186v323h-373v187h373v372h186v-372h373v-187zM932 -186h-932v186h932v-186z" />
    <glyph glyph-name="twosuperior" unicode="&#xb2;" 
d="M449 1149q0 -43 -18.5 -79t-49.5 -64l-139 -134h204v-127h-403v127l215 209q18 17 25.5 30t7.5 34q0 18 -14.5 28.5t-32.5 10.5q-33 0 -48.5 -21.5t-15.5 -79.5h-153q0 232 217 232q37 0 73.5 -10.5t66.5 -31t47.5 -51t17.5 -73.5z" />
    <glyph glyph-name="threesuperior" unicode="&#xb3;" 
d="M449 915q0 -67 -56.5 -119.5t-144.5 -52.5q-203 0 -223 197l151 14q8 -84 70 -84q20 0 34.5 13.5t14.5 36.5q0 38 -21.5 53.5t-68.5 15.5v98q80 0 80 56q0 41 -45 41q-23 0 -38.5 -20.5t-15.5 -61.5h-149q0 104 61 158q58 49 150 49q88 0 139 -44t51 -114q0 -74 -63 -109
q74 -53 74 -127z" />
    <glyph glyph-name="acute" unicode="&#xb4;" 
d="M711 1225l-432 -244l-89 137l404 287z" />
    <glyph glyph-name="mu" unicode="&#xb5;" 
d="M406 -23q-99 0 -148 54v-404h-209v1305h209v-578q0 -108 41 -149t119 -41q114 0 186 92t72 256v420h207v-932h-207v231q-31 -120 -107.5 -187t-162.5 -67z" />
    <glyph glyph-name="paragraph" unicode="&#xb6;" 
d="M0 915q0 193 119 291.5t334 98.5h479v-1305h-207v526h-156v-526h-207v532q-163 23 -262.5 118t-99.5 265zM569 1118v-405h156v405h-156zM207 915q0 -73 41 -131.5t114 -66.5v397q-36 -4 -65 -21.5t-49.5 -45t-30.5 -61.5t-10 -71z" />
    <glyph glyph-name="periodcentered" unicode="&#xb7;" 
d="M592 352h-252v252h252v-252z" />
    <glyph glyph-name="cedilla" unicode="&#xb8;" 
d="M590 -41q0 -70 -23.5 -130t-68.5 -104t-109.5 -70t-146.5 -26v178q88 0 130 40t42 112v41h176v-41z" />
    <glyph glyph-name="onesuperior" unicode="&#xb9;" 
d="M414 745h-338v127h90v234q-16 -19 -56 -39t-110 -20v135q27 0 55.5 9t53 25.5t41 39t16.5 49.5h158v-433h90v-127z" />
    <glyph glyph-name="ordmasculine" unicode="&#xba;" 
d="M764 930q0 -86 -28.5 -159t-80 -124t-124 -79.5t-158.5 -28.5t-159 27.5t-125 78.5t-80.5 123t-28.5 162q0 88 28.5 161.5t80.5 125t125 80t159 28.5t158.5 -28.5t124 -80t80 -125t28.5 -161.5zM588 930q0 114 -59.5 179t-155.5 65q-97 0 -157 -65t-60 -179
q0 -115 59 -177.5t158 -62.5q98 0 156.5 62.5t58.5 177.5zM745 199h-745v186h745v-186z" />
    <glyph glyph-name="guillemotright" unicode="&#xbb;" 
d="M680 651l-203 209l119 121l324 -330l-324 -327l-119 120zM309 651l-203 209l119 121l324 -330l-324 -327l-119 120z" />
    <glyph glyph-name="onequarter" unicode="&#xbc;" 
d="M954 1257l-835 -1298l-137 88l837 1303zM414 745h-338v127h90v234q-16 -19 -56 -39t-110 -20v135q27 0 55.5 9t53 25.5t41 39t16.5 49.5h158v-433h90v-127zM852 0h-156v113h-198v151l213 295h141v-317h90v-129h-90v-113zM696 242v104l-80 -104h80z" />
    <glyph glyph-name="onehalf" unicode="&#xbd;" 
d="M944 403q0 -43 -18.5 -78.5t-48.5 -64.5l-140 -133h205v-127h-403v127l215 209q18 16 25 29.5t7 33.5q0 19 -14 29t-33 10q-32 0 -47.5 -21.5t-15.5 -78.5h-154q0 231 217 231q37 0 74 -10t66.5 -30.5t47 -51.5t17.5 -74zM954 1257l-835 -1298l-137 88l837 1303zM414 745
h-338v127h90v234q-16 -19 -56 -39t-110 -20v135q27 0 55.5 9t53 25.5t41 39t16.5 49.5h158v-433h90v-127z" />
    <glyph glyph-name="threequarters" unicode="&#xbe;" 
d="M449 915q0 -67 -56.5 -119.5t-144.5 -52.5q-203 0 -223 197l151 14q8 -84 70 -84q20 0 34.5 13.5t14.5 36.5q0 38 -21.5 53.5t-68.5 15.5v98q80 0 80 56q0 41 -45 41q-23 0 -38.5 -20.5t-15.5 -61.5h-149q0 104 61 158q58 49 150 49q88 0 139 -44t51 -114q0 -74 -63 -109
q74 -53 74 -127zM852 0h-156v113h-198v151l213 295h141v-317h90v-129h-90v-113zM696 242v104l-80 -104h80zM954 1257l-835 -1298l-137 88l837 1303z" />
    <glyph glyph-name="questiondown" unicode="&#xbf;" 
d="M209 301q0 74 26.5 129t65.5 102.5t86 89.5t86 87t65.5 99t26.5 124h213q0 -84 -26.5 -147.5t-67.5 -116t-87 -96.5t-87 -87t-67.5 -88t-26.5 -98q0 -66 39 -100.5t104 -34.5q98 0 143.5 54t55.5 151l192 -29q-18 -168 -115.5 -265.5t-273.5 -97.5q-166 0 -259 88.5
t-93 235.5zM526 1305h252v-252h-252v252z" />
    <glyph glyph-name="Agrave" unicode="&#xc0;" 
d="M776 0l-94 311h-432l-92 -311h-217l407 1305h238l407 -1305h-217zM305 494h322l-160 538zM344 1776l404 -287l-89 -137l-432 244z" />
    <glyph glyph-name="Aacute" unicode="&#xc1;" 
d="M776 0l-94 311h-432l-92 -311h-217l407 1305h238l407 -1305h-217zM305 494h322l-160 538zM711 1596l-432 -244l-89 137l404 287z" />
    <glyph glyph-name="Acircumflex" unicode="&#xc2;" 
d="M776 0l-94 311h-432l-92 -311h-217l407 1305h238l407 -1305h-217zM305 494h322l-160 538zM791 1456l-80 -102l-242 205l-246 -207l-80 100l324 318z" />
    <glyph glyph-name="Atilde" unicode="&#xc3;" 
d="M776 0l-94 311h-432l-92 -311h-217l407 1305h238l407 -1305h-217zM305 494h322l-160 538zM874 1616q-47 -96 -114.5 -150.5t-159.5 -54.5q-49 0 -84 18.5t-65.5 40t-60.5 40t-66 18.5q-52 0 -86.5 -31.5t-67.5 -87.5l-121 70q47 94 114.5 148.5t160.5 54.5
q49 0 83.5 -18.5t65.5 -40t60.5 -40t66.5 -18.5q51 0 86 31.5t68 89.5z" />
    <glyph glyph-name="Adieresis" unicode="&#xc4;" 
d="M776 0l-94 311h-432l-92 -311h-217l407 1305h238l407 -1305h-217zM305 494h322l-160 538zM778 1424h-252v252h252v-252zM406 1424h-252v252h252v-252z" />
    <glyph glyph-name="Aring" unicode="&#xc5;" 
d="M242 1450q0 47 17 88t48 71.5t72 48t88 17.5t88 -17.5t71.5 -48t48 -71.5t17.5 -88q0 -57 -25.5 -105.5t-68.5 -78.5l395 -1266h-217l-94 311h-432l-92 -311h-217l395 1266q-43 30 -68.5 78.5t-25.5 105.5zM305 494h322l-160 538zM375 1450q0 -39 26.5 -65.5t65.5 -26.5
t65.5 26.5t26.5 65.5t-26.5 65.5t-65.5 26.5t-65.5 -26.5t-26.5 -65.5z" />
    <glyph glyph-name="AE" unicode="&#xc6;" 
d="M395 0v311h-170l-75 -311h-213l364 1305h631v-187h-330v-360h281v-187h-281v-385h330v-186h-537zM268 494h127v516z" />
    <glyph glyph-name="Ccedilla" unicode="&#xc7;" 
d="M952 399q-43 -163 -130 -273t-232 -138v-29q0 -70 -23.5 -130t-68.5 -104t-109.5 -70t-146.5 -26v178q88 0 130 40t42 112v23q-119 14 -201 74.5t-134 152.5t-75.5 206.5t-23.5 237.5q0 131 26.5 253t86 215t151.5 149.5t225 56.5q43 0 87 -11t82 -33.5t66.5 -55.5
t40.5 -76v154h187v-494h-187q0 61 -15 120.5t-48 105.5t-83 75t-118 29q-88 0 -144 -43t-90 -113t-47.5 -157t-13.5 -175t13.5 -176t46.5 -157.5t90 -112.5t145 -43q127 0 195.5 81t109.5 218z" />
    <glyph glyph-name="Egrave" unicode="&#xc8;" 
d="M883 0h-834v1305h834v-187h-627v-360h489v-187h-489v-385h627v-186zM344 1776l404 -287l-89 -137l-432 244z" />
    <glyph glyph-name="Eacute" unicode="&#xc9;" 
d="M883 0h-834v1305h834v-187h-627v-360h489v-187h-489v-385h627v-186zM711 1596l-432 -244l-89 137l404 287z" />
    <glyph glyph-name="Ecircumflex" unicode="&#xca;" 
d="M883 0h-834v1305h834v-187h-627v-360h489v-187h-489v-385h627v-186zM791 1456l-80 -102l-242 205l-246 -207l-80 100l324 318z" />
    <glyph glyph-name="Edieresis" unicode="&#xcb;" 
d="M883 0h-834v1305h834v-187h-627v-360h489v-187h-489v-385h627v-186zM778 1424h-252v252h252v-252zM406 1424h-252v252h252v-252z" />
    <glyph glyph-name="Igrave" unicode="&#xcc;" 
d="M782 0h-626v186h206v932h-206v187h626v-187h-213v-932h213v-186zM344 1776l404 -287l-89 -137l-432 244z" />
    <glyph glyph-name="Iacute" unicode="&#xcd;" 
d="M782 0h-626v186h206v932h-206v187h626v-187h-213v-932h213v-186zM711 1596l-432 -244l-89 137l404 287z" />
    <glyph glyph-name="Icircumflex" unicode="&#xce;" 
d="M782 0h-626v186h206v932h-206v187h626v-187h-213v-932h213v-186zM791 1456l-80 -102l-242 205l-246 -207l-80 100l324 318z" />
    <glyph glyph-name="Idieresis" unicode="&#xcf;" 
d="M782 0h-626v186h206v932h-206v187h626v-187h-213v-932h213v-186zM778 1424h-252v252h252v-252zM406 1424h-252v252h252v-252z" />
    <glyph glyph-name="Eth" unicode="&#xd0;" 
d="M-117 758h166v547h424q133 0 228.5 -53.5t156 -142.5t89 -207t28.5 -249t-27.5 -249.5t-88 -208t-156 -142.5t-230.5 -53h-424v571h-166v187zM768 653q0 226 -77 345.5t-218 119.5h-217v-360h184v-187h-184v-385h217q141 0 218 122t77 345z" />
    <glyph glyph-name="Ntilde" unicode="&#xd1;" 
d="M883 0h-240l-387 946v-946h-207v1305h260l367 -899v899h207v-1305zM874 1616q-47 -96 -114.5 -150.5t-159.5 -54.5q-49 0 -84 18.5t-65.5 40t-60.5 40t-66 18.5q-52 0 -86.5 -31.5t-67.5 -87.5l-121 70q47 94 114.5 148.5t160.5 54.5q49 0 83.5 -18.5t65.5 -40t60.5 -40
t66.5 -18.5q51 0 86 31.5t68 89.5z" />
    <glyph glyph-name="Ograve" unicode="&#xd2;" 
d="M-33 653q0 131 28 253t87 215t154.5 149.5t230.5 56.5t230.5 -56.5t155.5 -149.5t87 -215t27 -253t-27 -252.5t-86 -216t-154.5 -151t-232.5 -56.5t-232.5 56.5t-155 151t-86 216t-26.5 252.5zM174 653q0 -88 13.5 -176t46 -157.5t89 -112.5t144.5 -43t144.5 43t89 112.5
t46 157.5t13.5 176t-13.5 175t-46 157t-90 113t-143.5 43q-143 0 -218 -129t-75 -359zM344 1776l404 -287l-89 -137l-432 244z" />
    <glyph glyph-name="Oacute" unicode="&#xd3;" 
d="M-33 653q0 131 28 253t87 215t154.5 149.5t230.5 56.5t230.5 -56.5t155.5 -149.5t87 -215t27 -253t-27 -252.5t-86 -216t-154.5 -151t-232.5 -56.5t-232.5 56.5t-155 151t-86 216t-26.5 252.5zM174 653q0 -88 13.5 -176t46 -157.5t89 -112.5t144.5 -43t144.5 43t89 112.5
t46 157.5t13.5 176t-13.5 175t-46 157t-90 113t-143.5 43q-143 0 -218 -129t-75 -359zM711 1596l-432 -244l-89 137l404 287z" />
    <glyph glyph-name="Ocircumflex" unicode="&#xd4;" 
d="M-33 653q0 131 28 253t87 215t154.5 149.5t230.5 56.5t230.5 -56.5t155.5 -149.5t87 -215t27 -253t-27 -252.5t-86 -216t-154.5 -151t-232.5 -56.5t-232.5 56.5t-155 151t-86 216t-26.5 252.5zM174 653q0 -88 13.5 -176t46 -157.5t89 -112.5t144.5 -43t144.5 43t89 112.5
t46 157.5t13.5 176t-13.5 175t-46 157t-90 113t-143.5 43q-143 0 -218 -129t-75 -359zM791 1456l-80 -102l-242 205l-246 -207l-80 100l324 318z" />
    <glyph glyph-name="Otilde" unicode="&#xd5;" 
d="M-33 653q0 131 28 253t87 215t154.5 149.5t230.5 56.5t230.5 -56.5t155.5 -149.5t87 -215t27 -253t-27 -252.5t-86 -216t-154.5 -151t-232.5 -56.5t-232.5 56.5t-155 151t-86 216t-26.5 252.5zM174 653q0 -88 13.5 -176t46 -157.5t89 -112.5t144.5 -43t144.5 43t89 112.5
t46 157.5t13.5 176t-13.5 175t-46 157t-90 113t-143.5 43q-143 0 -218 -129t-75 -359zM874 1616q-47 -96 -114.5 -150.5t-159.5 -54.5q-49 0 -84 18.5t-65.5 40t-60.5 40t-66 18.5q-52 0 -86.5 -31.5t-67.5 -87.5l-121 70q47 94 114.5 148.5t160.5 54.5q49 0 83.5 -18.5
t65.5 -40t60.5 -40t66.5 -18.5q51 0 86 31.5t68 89.5z" />
    <glyph glyph-name="Odieresis" unicode="&#xd6;" 
d="M-33 653q0 131 28 253t87 215t154.5 149.5t230.5 56.5t230.5 -56.5t155.5 -149.5t87 -215t27 -253t-27 -252.5t-86 -216t-154.5 -151t-232.5 -56.5t-232.5 56.5t-155 151t-86 216t-26.5 252.5zM174 653q0 -88 13.5 -176t46 -157.5t89 -112.5t144.5 -43t144.5 43t89 112.5
t46 157.5t13.5 176t-13.5 175t-46 157t-90 113t-143.5 43q-143 0 -218 -129t-75 -359zM778 1424h-252v252h252v-252zM406 1424h-252v252h252v-252z" />
    <glyph glyph-name="multiply" unicode="&#xd7;" 
d="M856 748l-270 -270l270 -271l-121 -119l-268 271l-270 -271l-119 119l268 271l-268 270l119 119l270 -271l268 271z" />
    <glyph glyph-name="Oslash" unicode="&#xd8;" 
d="M-33 653q0 131 28 253t87 215t154.5 149.5t230.5 56.5q133 0 226 -52t153 -142l133 133v-222l-61 -61q49 -152 49 -330q0 -131 -27 -252.5t-86 -216t-154.5 -151t-232.5 -56.5q-129 0 -220 48.5t-151 132.5l-137 -138v222l61 61q-28 78 -40.5 167t-12.5 183zM174 653
q0 -47 2 -92t10 -90l514 514q-34 70 -90.5 113t-142.5 43q-143 0 -218 -129t-75 -359zM467 164q88 0 144.5 43t89 112.5t46 157.5t13.5 176q0 41 -3 80t-7 80l-508 -510q34 -63 87.5 -101t137.5 -38z" />
    <glyph glyph-name="Ugrave" unicode="&#xd9;" 
d="M883 465q0 -111 -24.5 -201t-76 -153.5t-130.5 -98.5t-187 -35q-109 0 -186.5 35t-129 98.5t-76 154.5t-24.5 202v838h207v-840q0 -49 7 -101.5t28.5 -97.5t63.5 -73.5t110 -28.5q67 0 109 28.5t65 72.5t30 97.5t7 102.5v840h207v-840zM344 1776l404 -287l-89 -137
l-432 244z" />
    <glyph glyph-name="Uacute" unicode="&#xda;" 
d="M883 465q0 -111 -24.5 -201t-76 -153.5t-130.5 -98.5t-187 -35q-109 0 -186.5 35t-129 98.5t-76 154.5t-24.5 202v838h207v-840q0 -49 7 -101.5t28.5 -97.5t63.5 -73.5t110 -28.5q67 0 109 28.5t65 72.5t30 97.5t7 102.5v840h207v-840zM711 1596l-432 -244l-89 137
l404 287z" />
    <glyph glyph-name="Ucircumflex" unicode="&#xdb;" 
d="M883 465q0 -111 -24.5 -201t-76 -153.5t-130.5 -98.5t-187 -35q-109 0 -186.5 35t-129 98.5t-76 154.5t-24.5 202v838h207v-840q0 -49 7 -101.5t28.5 -97.5t63.5 -73.5t110 -28.5q67 0 109 28.5t65 72.5t30 97.5t7 102.5v840h207v-840zM791 1456l-80 -102l-242 205
l-246 -207l-80 100l324 318z" />
    <glyph glyph-name="Udieresis" unicode="&#xdc;" 
d="M883 465q0 -111 -24.5 -201t-76 -153.5t-130.5 -98.5t-187 -35q-109 0 -186.5 35t-129 98.5t-76 154.5t-24.5 202v838h207v-840q0 -49 7 -101.5t28.5 -97.5t63.5 -73.5t110 -28.5q67 0 109 28.5t65 72.5t30 97.5t7 102.5v840h207v-840zM778 1424h-252v252h252v-252z
M406 1424h-252v252h252v-252z" />
    <glyph glyph-name="Yacute" unicode="&#xdd;" 
d="M952 1118h-94l-289 -586v-346h209v-186h-624v186h208v346l-288 586h-94v187h411v-187h-90l166 -383l164 383h-90v187h411v-187zM711 1596l-432 -244l-89 137l404 287z" />
    <glyph glyph-name="Thorn" unicode="&#xde;" 
d="M932 664q0 -197 -119 -291t-332 -94h-225v-279h-207v1305h207v-256h223q215 0 334 -96.5t119 -288.5zM727 664q0 100 -66.5 149t-179.5 49h-225v-397h225q113 0 179.5 48t66.5 151z" />
    <glyph glyph-name="germandbls" unicode="&#xdf;" 
d="M932 268q0 -61 -26.5 -114.5t-74 -92t-112 -61.5t-139.5 -23q-99 0 -170.5 28t-137.5 81l117 162q53 -49 97 -66.5t94 -17.5q75 0 110 31.5t35 74.5q0 41 -29.5 71t-72.5 56.5t-95.5 53t-95.5 60.5t-72.5 79t-29.5 108q0 74 32.5 118t72.5 77t73 65.5t33 81.5
q0 37 -23.5 69t-91.5 32q-100 0 -135 -76t-35 -219v-846h-207v844q0 76 12.5 161t52.5 156.5t114.5 118.5t197.5 47q76 0 135.5 -22.5t100 -60.5t62 -90t21.5 -114q0 -82 -32.5 -131t-72.5 -81.5t-72.5 -58.5t-32.5 -60q0 -27 29.5 -48.5t73.5 -45t95 -52t95 -68.5t74 -95.5
t30 -131.5z" />
    <glyph glyph-name="agrave" unicode="&#xe0;" 
d="M-4 268q0 82 44 143.5t115.5 102.5t164 61.5t188.5 20.5q53 0 91 -2t77 -6v37q0 73 -56.5 109t-148.5 36q-84 0 -171 -23.5t-165 -68.5l-84 162q92 53 197.5 83.5t222.5 30.5q76 0 149.5 -17t132 -56t93.5 -101.5t35 -154.5v-625h-205v137q-49 -76 -144.5 -118
t-205.5 -42q-68 0 -128.5 18.5t-104.5 55.5t-70.5 91.5t-26.5 125.5zM379 162q61 0 114.5 15.5t94.5 43t64.5 66.5t23.5 86v35q-49 8 -92 9t-76 1q-152 0 -229.5 -40t-77.5 -99q0 -117 178 -117zM344 1405l404 -287l-89 -137l-432 244z" />
    <glyph glyph-name="aacute" unicode="&#xe1;" 
d="M-4 268q0 82 44 143.5t115.5 102.5t164 61.5t188.5 20.5q53 0 91 -2t77 -6v37q0 73 -56.5 109t-148.5 36q-84 0 -171 -23.5t-165 -68.5l-84 162q92 53 197.5 83.5t222.5 30.5q76 0 149.5 -17t132 -56t93.5 -101.5t35 -154.5v-625h-205v137q-49 -76 -144.5 -118
t-205.5 -42q-68 0 -128.5 18.5t-104.5 55.5t-70.5 91.5t-26.5 125.5zM379 162q61 0 114.5 15.5t94.5 43t64.5 66.5t23.5 86v35q-49 8 -92 9t-76 1q-152 0 -229.5 -40t-77.5 -99q0 -117 178 -117zM711 1225l-432 -244l-89 137l404 287z" />
    <glyph glyph-name="acircumflex" unicode="&#xe2;" 
d="M-4 268q0 82 44 143.5t115.5 102.5t164 61.5t188.5 20.5q53 0 91 -2t77 -6v37q0 73 -56.5 109t-148.5 36q-84 0 -171 -23.5t-165 -68.5l-84 162q92 53 197.5 83.5t222.5 30.5q76 0 149.5 -17t132 -56t93.5 -101.5t35 -154.5v-625h-205v137q-49 -76 -144.5 -118
t-205.5 -42q-68 0 -128.5 18.5t-104.5 55.5t-70.5 91.5t-26.5 125.5zM379 162q61 0 114.5 15.5t94.5 43t64.5 66.5t23.5 86v35q-49 8 -92 9t-76 1q-152 0 -229.5 -40t-77.5 -99q0 -117 178 -117zM791 1085l-80 -102l-242 205l-246 -207l-80 100l324 318z" />
    <glyph glyph-name="atilde" unicode="&#xe3;" 
d="M-4 268q0 82 44 143.5t115.5 102.5t164 61.5t188.5 20.5q53 0 91 -2t77 -6v37q0 73 -56.5 109t-148.5 36q-84 0 -171 -23.5t-165 -68.5l-84 162q92 53 197.5 83.5t222.5 30.5q76 0 149.5 -17t132 -56t93.5 -101.5t35 -154.5v-625h-205v137q-49 -76 -144.5 -118
t-205.5 -42q-68 0 -128.5 18.5t-104.5 55.5t-70.5 91.5t-26.5 125.5zM379 162q61 0 114.5 15.5t94.5 43t64.5 66.5t23.5 86v35q-49 8 -92 9t-76 1q-152 0 -229.5 -40t-77.5 -99q0 -117 178 -117zM874 1245q-47 -96 -114.5 -150.5t-159.5 -54.5q-49 0 -84 18.5t-65.5 40
t-60.5 40t-66 18.5q-52 0 -86.5 -31.5t-67.5 -87.5l-121 70q47 94 114.5 148.5t160.5 54.5q49 0 83.5 -18.5t65.5 -40t60.5 -40t66.5 -18.5q51 0 86 31.5t68 89.5z" />
    <glyph glyph-name="adieresis" unicode="&#xe4;" 
d="M-4 268q0 82 44 143.5t115.5 102.5t164 61.5t188.5 20.5q53 0 91 -2t77 -6v37q0 73 -56.5 109t-148.5 36q-84 0 -171 -23.5t-165 -68.5l-84 162q92 53 197.5 83.5t222.5 30.5q76 0 149.5 -17t132 -56t93.5 -101.5t35 -154.5v-625h-205v137q-49 -76 -144.5 -118
t-205.5 -42q-68 0 -128.5 18.5t-104.5 55.5t-70.5 91.5t-26.5 125.5zM379 162q61 0 114.5 15.5t94.5 43t64.5 66.5t23.5 86v35q-49 8 -92 9t-76 1q-152 0 -229.5 -40t-77.5 -99q0 -117 178 -117zM778 1053h-252v252h252v-252zM406 1053h-252v252h252v-252z" />
    <glyph glyph-name="aring" unicode="&#xe5;" 
d="M-4 268q0 82 44 143.5t115.5 102.5t164 61.5t188.5 20.5q53 0 91 -2t77 -6v37q0 73 -56.5 109t-148.5 36q-84 0 -171 -23.5t-165 -68.5l-84 162q92 53 197.5 83.5t222.5 30.5q76 0 149.5 -17t132 -56t93.5 -101.5t35 -154.5v-625h-205v137q-49 -76 -144.5 -118
t-205.5 -42q-68 0 -128.5 18.5t-104.5 55.5t-70.5 91.5t-26.5 125.5zM379 162q61 0 114.5 15.5t94.5 43t64.5 66.5t23.5 86v35q-49 8 -92 9t-76 1q-152 0 -229.5 -40t-77.5 -99q0 -117 178 -117zM242 1257q0 48 17 88.5t48 71.5t72 48.5t88 17.5t88 -17.5t71.5 -48.5
t48 -71.5t17.5 -88.5q0 -47 -17.5 -88t-48 -71.5t-71.5 -48t-88 -17.5t-88 17.5t-72 48t-48 71.5t-17 88zM375 1257q0 -38 26.5 -65t65.5 -27t65.5 27t26.5 65q0 39 -26.5 66t-65.5 27t-65.5 -27t-26.5 -66z" />
    <glyph glyph-name="ae" unicode="&#xe6;" 
d="M451 131q-39 -65 -90.5 -109.5t-131.5 -44.5q-61 0 -107 23t-78 60.5t-48 88t-16 105.5q0 80 25.5 141.5t69.5 102.5t101 61.5t121 20.5q22 0 37.5 -1t38.5 -6v60q0 74 -28 105.5t-73 31.5q-34 0 -77 -18.5t-78 -77.5l-125 119q55 86 132 123.5t138 37.5q72 0 128 -28.5
t81 -100.5q35 68 85 98.5t120 30.5q94 0 147.5 -50t81 -130t34.5 -181t7 -206h-387q0 -125 35 -172t80 -47q33 0 55.5 18.5t32.5 61.5l174 -58q-35 -108 -97.5 -160.5t-164.5 -52.5q-29 0 -60.5 7.5t-61.5 25t-56.5 47t-44.5 74.5zM739 569q-4 119 -25.5 160t-60.5 41
q-43 0 -66.5 -45t-27.5 -156h180zM373 391q-13 2 -27 3t-37 1q-49 0 -87 -34.5t-38 -96.5q0 -51 20.5 -74.5t53.5 -23.5q55 0 85 49t30 115v61z" />
    <glyph glyph-name="ccedilla" unicode="&#xe7;" 
d="M897 133q-72 -72 -146.5 -105.5t-160.5 -43.5v-25q0 -70 -23.5 -130t-68.5 -104t-109.5 -70t-146.5 -26v178q88 0 130 40t42 112v23q-203 22 -318.5 150t-115.5 333q0 106 35.5 196.5t96 155t142.5 101t174 36.5q96 0 167 -40t103 -117v135h185v-434h-185
q0 123 -67.5 196.5t-175.5 73.5q-43 0 -90.5 -17.5t-87 -54.5t-65.5 -94t-26 -137q0 -78 25 -134.5t65.5 -93t96 -55t114.5 -18.5q101 0 175.5 31.5t128.5 83.5z" />
    <glyph glyph-name="egrave" unicode="&#xe8;" 
d="M190 387q15 -96 91.5 -159.5t205.5 -63.5q101 0 175.5 31.5t128.5 83.5l106 -146q-90 -90 -190.5 -123t-219.5 -33q-108 0 -201 36t-161 100.5t-106.5 153.5t-38.5 198q0 106 35.5 195.5t100 155t154.5 102t199 36.5q113 0 205 -38.5t157.5 -111.5t102.5 -178.5
t37 -238.5h-781zM737 569q-16 90 -93 144.5t-175 54.5t-176 -54.5t-94 -144.5h538zM344 1405l404 -287l-89 -137l-432 244z" />
    <glyph glyph-name="eacute" unicode="&#xe9;" 
d="M190 387q15 -96 91.5 -159.5t205.5 -63.5q101 0 175.5 31.5t128.5 83.5l106 -146q-90 -90 -190.5 -123t-219.5 -33q-108 0 -201 36t-161 100.5t-106.5 153.5t-38.5 198q0 106 35.5 195.5t100 155t154.5 102t199 36.5q113 0 205 -38.5t157.5 -111.5t102.5 -178.5
t37 -238.5h-781zM737 569q-16 90 -93 144.5t-175 54.5t-176 -54.5t-94 -144.5h538zM711 1225l-432 -244l-89 137l404 287z" />
    <glyph glyph-name="ecircumflex" unicode="&#xea;" 
d="M190 387q15 -96 91.5 -159.5t205.5 -63.5q101 0 175.5 31.5t128.5 83.5l106 -146q-90 -90 -190.5 -123t-219.5 -33q-108 0 -201 36t-161 100.5t-106.5 153.5t-38.5 198q0 106 35.5 195.5t100 155t154.5 102t199 36.5q113 0 205 -38.5t157.5 -111.5t102.5 -178.5
t37 -238.5h-781zM737 569q-16 90 -93 144.5t-175 54.5t-176 -54.5t-94 -144.5h538zM791 1085l-80 -102l-242 205l-246 -207l-80 100l324 318z" />
    <glyph glyph-name="edieresis" unicode="&#xeb;" 
d="M190 387q15 -96 91.5 -159.5t205.5 -63.5q101 0 175.5 31.5t128.5 83.5l106 -146q-90 -90 -190.5 -123t-219.5 -33q-108 0 -201 36t-161 100.5t-106.5 153.5t-38.5 198q0 106 35.5 195.5t100 155t154.5 102t199 36.5q113 0 205 -38.5t157.5 -111.5t102.5 -178.5
t37 -238.5h-781zM737 569q-16 90 -93 144.5t-175 54.5t-176 -54.5t-94 -144.5h538zM778 1053h-252v252h252v-252zM406 1053h-252v252h252v-252z" />
    <glyph glyph-name="igrave" unicode="&#xec;" 
d="M782 0h-626v186h206v559h-206v187h413v-746h213v-186zM344 1405l404 -287l-89 -137l-432 244z" />
    <glyph glyph-name="iacute" unicode="&#xed;" 
d="M782 0h-626v186h206v559h-206v187h413v-746h213v-186zM711 1225l-432 -244l-89 137l404 287z" />
    <glyph glyph-name="icircumflex" unicode="&#xee;" 
d="M782 0h-626v186h206v559h-206v187h413v-746h213v-186zM791 1085l-80 -102l-242 205l-246 -207l-80 100l324 318z" />
    <glyph glyph-name="idieresis" unicode="&#xef;" 
d="M782 0h-626v186h206v559h-206v187h413v-746h213v-186zM778 1053h-252v252h252v-252zM406 1053h-252v252h252v-252z" />
    <glyph glyph-name="eth" unicode="&#xf0;" 
d="M233 977l111 110q-35 17 -69.5 31.5t-73.5 28.5l63 180q58 -22 112 -47t107 -53l146 145l119 -121l-115 -114q69 -52 127.5 -113t100.5 -135t65.5 -161t23.5 -191q0 -129 -35.5 -232.5t-103.5 -176.5t-164 -112t-217 -39q-205 0 -327.5 96.5t-122.5 280.5q0 103 48 183.5
t137 142t214 103.5t278 67q-61 88 -157 154l-148 -148zM743 537q0 71 -12 133q-256 -23 -400.5 -105t-144.5 -211q0 -92 64.5 -141t179.5 -49q139 0 226 96t87 277z" />
    <glyph glyph-name="ntilde" unicode="&#xf1;" 
d="M883 0h-207v575q0 109 -41 151t-119 42q-115 0 -187.5 -93t-72.5 -257v-418h-207v932h207v-234q31 121 115 188.5t207 67.5q143 0 224 -93t81 -286v-575zM874 1245q-47 -96 -114.5 -150.5t-159.5 -54.5q-49 0 -84 18.5t-65.5 40t-60.5 40t-66 18.5q-52 0 -86.5 -31.5
t-67.5 -87.5l-121 70q47 94 114.5 148.5t160.5 54.5q49 0 83.5 -18.5t65.5 -40t60.5 -40t66.5 -18.5q51 0 86 31.5t68 89.5z" />
    <glyph glyph-name="ograve" unicode="&#xf2;" 
d="M956 465q0 -109 -34.5 -198t-99 -153.5t-154.5 -100.5t-201 -36q-109 0 -199 36t-154.5 100.5t-99 153.5t-34.5 198q0 106 34.5 196.5t99 156t154.5 101t199 35.5q111 0 201 -35.5t154.5 -101t99 -156t34.5 -196.5zM750 465q0 63 -19.5 119.5t-56.5 96.5t-89.5 63.5
t-117.5 23.5q-66 0 -118 -23.5t-88 -63.5t-55.5 -96.5t-19.5 -119.5q0 -66 19.5 -120t55.5 -95t88 -63.5t118 -22.5q65 0 117.5 22.5t89.5 63.5t56.5 95t19.5 120zM344 1405l404 -287l-89 -137l-432 244z" />
    <glyph glyph-name="oacute" unicode="&#xf3;" 
d="M956 465q0 -109 -34.5 -198t-99 -153.5t-154.5 -100.5t-201 -36q-109 0 -199 36t-154.5 100.5t-99 153.5t-34.5 198q0 106 34.5 196.5t99 156t154.5 101t199 35.5q111 0 201 -35.5t154.5 -101t99 -156t34.5 -196.5zM750 465q0 63 -19.5 119.5t-56.5 96.5t-89.5 63.5
t-117.5 23.5q-66 0 -118 -23.5t-88 -63.5t-55.5 -96.5t-19.5 -119.5q0 -66 19.5 -120t55.5 -95t88 -63.5t118 -22.5q65 0 117.5 22.5t89.5 63.5t56.5 95t19.5 120zM711 1225l-432 -244l-89 137l404 287z" />
    <glyph glyph-name="ocircumflex" unicode="&#xf4;" 
d="M956 465q0 -109 -34.5 -198t-99 -153.5t-154.5 -100.5t-201 -36q-109 0 -199 36t-154.5 100.5t-99 153.5t-34.5 198q0 106 34.5 196.5t99 156t154.5 101t199 35.5q111 0 201 -35.5t154.5 -101t99 -156t34.5 -196.5zM750 465q0 63 -19.5 119.5t-56.5 96.5t-89.5 63.5
t-117.5 23.5q-66 0 -118 -23.5t-88 -63.5t-55.5 -96.5t-19.5 -119.5q0 -66 19.5 -120t55.5 -95t88 -63.5t118 -22.5q65 0 117.5 22.5t89.5 63.5t56.5 95t19.5 120zM791 1085l-80 -102l-242 205l-246 -207l-80 100l324 318z" />
    <glyph glyph-name="otilde" unicode="&#xf5;" 
d="M956 465q0 -109 -34.5 -198t-99 -153.5t-154.5 -100.5t-201 -36q-109 0 -199 36t-154.5 100.5t-99 153.5t-34.5 198q0 106 34.5 196.5t99 156t154.5 101t199 35.5q111 0 201 -35.5t154.5 -101t99 -156t34.5 -196.5zM750 465q0 63 -19.5 119.5t-56.5 96.5t-89.5 63.5
t-117.5 23.5q-66 0 -118 -23.5t-88 -63.5t-55.5 -96.5t-19.5 -119.5q0 -66 19.5 -120t55.5 -95t88 -63.5t118 -22.5q65 0 117.5 22.5t89.5 63.5t56.5 95t19.5 120zM874 1245q-47 -96 -114.5 -150.5t-159.5 -54.5q-49 0 -84 18.5t-65.5 40t-60.5 40t-66 18.5
q-52 0 -86.5 -31.5t-67.5 -87.5l-121 70q47 94 114.5 148.5t160.5 54.5q49 0 83.5 -18.5t65.5 -40t60.5 -40t66.5 -18.5q51 0 86 31.5t68 89.5z" />
    <glyph glyph-name="odieresis" unicode="&#xf6;" 
d="M956 465q0 -109 -34.5 -198t-99 -153.5t-154.5 -100.5t-201 -36q-109 0 -199 36t-154.5 100.5t-99 153.5t-34.5 198q0 106 34.5 196.5t99 156t154.5 101t199 35.5q111 0 201 -35.5t154.5 -101t99 -156t34.5 -196.5zM750 465q0 63 -19.5 119.5t-56.5 96.5t-89.5 63.5
t-117.5 23.5q-66 0 -118 -23.5t-88 -63.5t-55.5 -96.5t-19.5 -119.5q0 -66 19.5 -120t55.5 -95t88 -63.5t118 -22.5q65 0 117.5 22.5t89.5 63.5t56.5 95t19.5 120zM778 1053h-252v252h252v-252zM406 1053h-252v252h252v-252z" />
    <glyph glyph-name="divide" unicode="&#xf7;" 
d="M592 725h-252v252h252v-252zM592 -20h-252v252h252v-252zM932 385h-932v187h932v-187z" />
    <glyph glyph-name="oslash" unicode="&#xf8;" 
d="M0 180l39 33q-29 53 -45.5 116.5t-16.5 135.5q0 106 36 196.5t100.5 156t154.5 101t199 35.5q98 0 181 -30.5t147 -83.5l137 114v-202l-39 -33q29 -55 45 -118.5t16 -135.5q0 -109 -34.5 -198t-99 -153.5t-153.5 -100.5t-200 -36q-100 0 -183 30t-147 83l-137 -113v203z
M748 465q0 63 -19 119l-438 -365q35 -26 79 -40.5t97 -14.5q65 0 117.5 22.5t88.5 63.5t55.5 95t19.5 120zM184 465q0 -66 19 -117l436 363q-70 57 -172 57q-66 0 -118 -23.5t-89 -63.5t-56.5 -96.5t-19.5 -119.5z" />
    <glyph glyph-name="ugrave" unicode="&#xf9;" 
d="M49 932h207v-576q0 -108 41 -150t119 -42q114 0 187 93t73 257v418h207v-932h-207v233q-31 -120 -115 -188t-207 -68q-143 0 -224 93.5t-81 285.5v576zM344 1405l404 -287l-89 -137l-432 244z" />
    <glyph glyph-name="uacute" unicode="&#xfa;" 
d="M49 932h207v-576q0 -108 41 -150t119 -42q114 0 187 93t73 257v418h207v-932h-207v233q-31 -120 -115 -188t-207 -68q-143 0 -224 93.5t-81 285.5v576zM711 1225l-432 -244l-89 137l404 287z" />
    <glyph glyph-name="ucircumflex" unicode="&#xfb;" 
d="M49 932h207v-576q0 -108 41 -150t119 -42q114 0 187 93t73 257v418h207v-932h-207v233q-31 -120 -115 -188t-207 -68q-143 0 -224 93.5t-81 285.5v576zM791 1085l-80 -102l-242 205l-246 -207l-80 100l324 318z" />
    <glyph glyph-name="udieresis" unicode="&#xfc;" 
d="M49 932h207v-576q0 -108 41 -150t119 -42q114 0 187 93t73 257v418h207v-932h-207v233q-31 -120 -115 -188t-207 -68q-143 0 -224 93.5t-81 285.5v576zM778 1053h-252v252h252v-252zM406 1053h-252v252h252v-252z" />
    <glyph glyph-name="yacute" unicode="&#xfd;" 
d="M924 932l-402 -1114q-45 -121 -131 -166t-205 -45q-41 0 -88 8t-98 27l43 190q43 -16 79 -22.5t64 -6.5q93 0 127 82l37 90l-356 957h215l256 -705l237 705h222zM711 1225l-432 -244l-89 137l404 287z" />
    <glyph glyph-name="thorn" unicode="&#xfe;" 
d="M49 1305h207v-457q59 53 119.5 79.5t138.5 26.5q90 0 167 -36.5t132 -101t87 -155t32 -196.5q0 -107 -32 -197t-87 -154.5t-132 -100.5t-167 -36q-78 0 -138.5 28t-119.5 81v-459h-207v1678zM256 248q37 -41 94.5 -62.5t110.5 -21.5q117 0 190.5 83t73.5 218t-73.5 219
t-190.5 84q-53 0 -110.5 -21.5t-94.5 -62.5v-436z" />
    <glyph glyph-name="ydieresis" unicode="&#xff;" 
d="M924 932l-402 -1114q-45 -121 -131 -166t-205 -45q-41 0 -88 8t-98 27l43 190q43 -16 79 -22.5t64 -6.5q93 0 127 82l37 90l-356 957h215l256 -705l237 705h222zM778 1053h-252v252h252v-252zM406 1053h-252v252h252v-252z" />
    <glyph glyph-name="Amacron" unicode="&#x100;" 
d="M776 0l-94 311h-432l-92 -311h-217l407 1305h238l407 -1305h-217zM305 494h322l-160 538zM745 1415h-559v175h559v-175z" />
    <glyph glyph-name="amacron" unicode="&#x101;" 
d="M-4 268q0 82 44 143.5t115.5 102.5t164 61.5t188.5 20.5q53 0 91 -2t77 -6v37q0 73 -56.5 109t-148.5 36q-84 0 -171 -23.5t-165 -68.5l-84 162q92 53 197.5 83.5t222.5 30.5q76 0 149.5 -17t132 -56t93.5 -101.5t35 -154.5v-625h-205v137q-49 -76 -144.5 -118
t-205.5 -42q-68 0 -128.5 18.5t-104.5 55.5t-70.5 91.5t-26.5 125.5zM379 162q61 0 114.5 15.5t94.5 43t64.5 66.5t23.5 86v35q-49 8 -92 9t-76 1q-152 0 -229.5 -40t-77.5 -99q0 -117 178 -117zM745 1044h-559v175h559v-175z" />
    <glyph glyph-name="Abreve" unicode="&#x102;" 
d="M776 0l-94 311h-432l-92 -311h-217l407 1305h238l407 -1305h-217zM305 494h322l-160 538zM795 1538q-136 -135 -328 -135q-193 0 -328 135l121 119q94 -94 207 -94t207 94z" />
    <glyph glyph-name="abreve" unicode="&#x103;" 
d="M-4 268q0 82 44 143.5t115.5 102.5t164 61.5t188.5 20.5q53 0 91 -2t77 -6v37q0 73 -56.5 109t-148.5 36q-84 0 -171 -23.5t-165 -68.5l-84 162q92 53 197.5 83.5t222.5 30.5q76 0 149.5 -17t132 -56t93.5 -101.5t35 -154.5v-625h-205v137q-49 -76 -144.5 -118
t-205.5 -42q-68 0 -128.5 18.5t-104.5 55.5t-70.5 91.5t-26.5 125.5zM379 162q61 0 114.5 15.5t94.5 43t64.5 66.5t23.5 86v35q-49 8 -92 9t-76 1q-152 0 -229.5 -40t-77.5 -99q0 -117 178 -117zM795 1167q-136 -135 -328 -135q-193 0 -328 135l121 119q94 -94 207 -94
t207 94z" />
    <glyph glyph-name="Aogonek" unicode="&#x104;" 
d="M1106 -379q-135 0 -214 59.5t-79 178.5q0 41 14.5 76.5t38.5 64.5h-90l-94 311h-432l-92 -311h-217l407 1305h238l407 -1305q-39 -43 -39 -104q0 -64 44 -95.5t108 -31.5v-148zM305 494h322l-160 538z" />
    <glyph glyph-name="aogonek" unicode="&#x105;" 
d="M676 137q-49 -76 -144.5 -118t-205.5 -42q-68 0 -128.5 18.5t-104.5 55.5t-70.5 91.5t-26.5 125.5q0 82 44 143.5t115.5 102.5t164 61.5t188.5 20.5q53 0 91 -2t77 -6v37q0 73 -56.5 109t-148.5 36q-84 0 -171 -23.5t-165 -68.5l-84 162q92 53 197.5 83.5t222.5 30.5
q76 0 149.5 -17t132 -56t93.5 -101.5t35 -154.5v-625q-39 -43 -39 -104q0 -64 44 -95.5t107 -31.5v-148q-135 0 -214 59.5t-79 178.5q0 41 14.5 76.5t39.5 64.5h-78v137zM379 162q61 0 114.5 15.5t94.5 43t64.5 66.5t23.5 86v35q-49 8 -92 9t-76 1q-152 0 -229.5 -40
t-77.5 -99q0 -117 178 -117z" />
    <glyph glyph-name="Cacute" unicode="&#x106;" 
d="M952 399q-24 -96 -64 -174t-97.5 -133t-134 -85t-175.5 -30q-137 0 -232 56.5t-155.5 151t-87 216t-26.5 252.5t26.5 253t86 215t151.5 149.5t225 56.5q43 0 87 -11t82 -33.5t66.5 -55.5t40.5 -76v154h187v-494h-187q0 61 -15 120.5t-48 105.5t-83 75t-118 29
q-88 0 -144 -43t-90 -113t-47.5 -157t-13.5 -175t13.5 -176t46.5 -157.5t90 -112.5t145 -43q127 0 195.5 81t109.5 218zM711 1600l-432 -244l-89 137l404 287z" />
    <glyph glyph-name="cacute" unicode="&#x107;" 
d="M897 133q-90 -90 -189.5 -123t-215.5 -33q-117 0 -212.5 35t-162 98.5t-102 153.5t-35.5 201q0 106 35.5 196.5t96 155t142.5 101t174 36.5q96 0 167 -40t103 -117v135h185v-434h-185q0 123 -67.5 196.5t-175.5 73.5q-43 0 -90.5 -17.5t-87 -54.5t-65.5 -94t-26 -137
q0 -78 25 -134.5t65.5 -93t96 -55t114.5 -18.5q101 0 175.5 31.5t128.5 83.5zM711 1227l-432 -244l-89 137l404 287z" />
    <glyph glyph-name="Ccircumflex" unicode="&#x108;" 
d="M952 399q-24 -96 -64 -174t-97.5 -133t-134 -85t-175.5 -30q-137 0 -232 56.5t-155.5 151t-87 216t-26.5 252.5t26.5 253t86 215t151.5 149.5t225 56.5q43 0 87 -11t82 -33.5t66.5 -55.5t40.5 -76v154h187v-494h-187q0 61 -15 120.5t-48 105.5t-83 75t-118 29
q-88 0 -144 -43t-90 -113t-47.5 -157t-13.5 -175t13.5 -176t46.5 -157.5t90 -112.5t145 -43q127 0 195.5 81t109.5 218zM791 1460l-80 -102l-242 205l-246 -207l-80 100l324 318z" />
    <glyph glyph-name="ccircumflex" unicode="&#x109;" 
d="M897 133q-90 -90 -189.5 -123t-215.5 -33q-117 0 -212.5 35t-162 98.5t-102 153.5t-35.5 201q0 106 35.5 196.5t96 155t142.5 101t174 36.5q96 0 167 -40t103 -117v135h185v-434h-185q0 123 -67.5 196.5t-175.5 73.5q-43 0 -90.5 -17.5t-87 -54.5t-65.5 -94t-26 -137
q0 -78 25 -134.5t65.5 -93t96 -55t114.5 -18.5q101 0 175.5 31.5t128.5 83.5zM791 1087l-80 -102l-242 205l-246 -207l-80 100l324 318z" />
    <glyph glyph-name="Cdotaccent" unicode="&#x10a;" 
d="M952 399q-24 -96 -64 -174t-97.5 -133t-134 -85t-175.5 -30q-137 0 -232 56.5t-155.5 151t-87 216t-26.5 252.5t26.5 253t86 215t151.5 149.5t225 56.5q43 0 87 -11t82 -33.5t66.5 -55.5t40.5 -76v154h187v-494h-187q0 61 -15 120.5t-48 105.5t-83 75t-118 29
q-88 0 -144 -43t-90 -113t-47.5 -157t-13.5 -175t13.5 -176t46.5 -157.5t90 -112.5t145 -43q127 0 195.5 81t109.5 218zM592 1424h-252v252h252v-252z" />
    <glyph glyph-name="cdotaccent" unicode="&#x10b;" 
d="M897 133q-90 -90 -189.5 -123t-215.5 -33q-117 0 -212.5 35t-162 98.5t-102 153.5t-35.5 201q0 106 35.5 196.5t96 155t142.5 101t174 36.5q96 0 167 -40t103 -117v135h185v-434h-185q0 123 -67.5 196.5t-175.5 73.5q-43 0 -90.5 -17.5t-87 -54.5t-65.5 -94t-26 -137
q0 -78 25 -134.5t65.5 -93t96 -55t114.5 -18.5q101 0 175.5 31.5t128.5 83.5zM592 1053h-252v252h252v-252z" />
    <glyph glyph-name="Ccaron" unicode="&#x10c;" 
d="M952 399q-24 -96 -64 -174t-97.5 -133t-134 -85t-175.5 -30q-137 0 -232 56.5t-155.5 151t-87 216t-26.5 252.5t26.5 253t86 215t151.5 149.5t225 56.5q43 0 87 -11t82 -33.5t66.5 -55.5t40.5 -76v154h187v-494h-187q0 61 -15 120.5t-48 105.5t-83 75t-118 29
q-88 0 -144 -43t-90 -113t-47.5 -157t-13.5 -175t13.5 -176t46.5 -157.5t90 -112.5t145 -43q127 0 195.5 81t109.5 218zM467 1356l-324 317l80 101l246 -207l242 205l80 -103z" />
    <glyph glyph-name="ccaron" unicode="&#x10d;" 
d="M897 133q-90 -90 -189.5 -123t-215.5 -33q-117 0 -212.5 35t-162 98.5t-102 153.5t-35.5 201q0 106 35.5 196.5t96 155t142.5 101t174 36.5q96 0 167 -40t103 -117v135h185v-434h-185q0 123 -67.5 196.5t-175.5 73.5q-43 0 -90.5 -17.5t-87 -54.5t-65.5 -94t-26 -137
q0 -78 25 -134.5t65.5 -93t96 -55t114.5 -18.5q101 0 175.5 31.5t128.5 83.5zM467 983l-324 317l80 101l246 -207l242 205l80 -103z" />
    <glyph glyph-name="Dcaron" unicode="&#x10e;" 
d="M975 653q0 -131 -27.5 -249.5t-88 -208t-156 -142.5t-230.5 -53h-424v1305h424q133 0 228.5 -53.5t156 -142.5t89 -207t28.5 -249zM768 653q0 226 -77 345.5t-218 119.5h-217v-932h217q141 0 218 122t77 345zM467 1356l-324 317l80 101l246 -207l242 205l80 -103z" />
    <glyph glyph-name="dcaron" unicode="&#x10f;" 
d="M766 0h-207v86q-51 -53 -104.5 -81t-118.5 -28q-78 0 -142.5 36t-112.5 100.5t-74.5 154.5t-26.5 197q0 106 26.5 196.5t74.5 155t112.5 101t142.5 36.5q65 0 118.5 -26.5t104.5 -79.5v270h-186v187h393v-1305zM559 684q-29 41 -75 62.5t-89 21.5q-92 0 -150.5 -84
t-58.5 -219t58.5 -218t150.5 -83q43 0 89 21.5t75 62.5v436zM1118 1304l-83 -557h-162v557h245z" />
    <glyph glyph-name="Dcroat" unicode="&#x110;" 
d="M-117 758h166v547h424q133 0 228.5 -53.5t156 -142.5t89 -207t28.5 -249t-27.5 -249.5t-88 -208t-156 -142.5t-230.5 -53h-424v571h-166v187zM768 653q0 226 -77 345.5t-218 119.5h-217v-360h184v-187h-184v-385h217q141 0 218 122t77 345z" />
    <glyph glyph-name="dcroat" unicode="&#x111;" 
d="M1055 989h-172v-989h-207v86q-60 -53 -121 -81t-139 -28q-90 0 -167 36t-132.5 100.5t-87 154.5t-31.5 197q0 106 31.5 196.5t87 155t132.5 101t167 36.5q78 0 139 -26.5t121 -79.5v141h-180v174h180v142h207v-142h172v-174zM676 684q-37 41 -95.5 62.5t-111.5 21.5
q-117 0 -190.5 -84t-73.5 -219t73.5 -218t190.5 -83q53 0 111.5 21.5t95.5 62.5v436z" />
    <glyph glyph-name="Emacron" unicode="&#x112;" 
d="M883 0h-834v1305h834v-187h-627v-360h489v-187h-489v-385h627v-186zM745 1415h-559v175h559v-175z" />
    <glyph glyph-name="emacron" unicode="&#x113;" 
d="M190 387q15 -96 91.5 -159.5t205.5 -63.5q101 0 175.5 31.5t128.5 83.5l106 -146q-90 -90 -190.5 -123t-219.5 -33q-108 0 -201 36t-161 100.5t-106.5 153.5t-38.5 198q0 106 35.5 195.5t100 155t154.5 102t199 36.5q113 0 205 -38.5t157.5 -111.5t102.5 -178.5
t37 -238.5h-781zM737 569q-16 90 -93 144.5t-175 54.5t-176 -54.5t-94 -144.5h538zM745 1044h-559v175h559v-175z" />
    <glyph glyph-name="Ebreve" unicode="&#x114;" 
d="M883 0h-834v1305h834v-187h-627v-360h489v-187h-489v-385h627v-186zM795 1538q-136 -135 -328 -135q-193 0 -328 135l121 119q94 -94 207 -94t207 94z" />
    <glyph glyph-name="ebreve" unicode="&#x115;" 
d="M190 387q15 -96 91.5 -159.5t205.5 -63.5q101 0 175.5 31.5t128.5 83.5l106 -146q-90 -90 -190.5 -123t-219.5 -33q-108 0 -201 36t-161 100.5t-106.5 153.5t-38.5 198q0 106 35.5 195.5t100 155t154.5 102t199 36.5q113 0 205 -38.5t157.5 -111.5t102.5 -178.5
t37 -238.5h-781zM737 569q-16 90 -93 144.5t-175 54.5t-176 -54.5t-94 -144.5h538zM795 1167q-136 -135 -328 -135q-193 0 -328 135l121 119q94 -94 207 -94t207 94z" />
    <glyph glyph-name="Edotaccent" unicode="&#x116;" 
d="M883 0h-834v1305h834v-187h-627v-360h489v-187h-489v-385h627v-186zM592 1424h-252v252h252v-252z" />
    <glyph glyph-name="edotaccent" unicode="&#x117;" 
d="M190 387q15 -96 91.5 -159.5t205.5 -63.5q101 0 175.5 31.5t128.5 83.5l106 -146q-90 -90 -190.5 -123t-219.5 -33q-108 0 -201 36t-161 100.5t-106.5 153.5t-38.5 198q0 106 35.5 195.5t100 155t154.5 102t199 36.5q113 0 205 -38.5t157.5 -111.5t102.5 -178.5
t37 -238.5h-781zM737 569q-16 90 -93 144.5t-175 54.5t-176 -54.5t-94 -144.5h538zM592 1053h-252v252h252v-252z" />
    <glyph glyph-name="Eogonek" unicode="&#x118;" 
d="M995 -379q-135 0 -214 59.5t-79 178.5q0 41 14.5 76.5t39.5 64.5h-707v1305h834v-187h-627v-360h489v-187h-489v-385h627v-186q-39 -43 -39 -104q0 -64 44 -95.5t107 -31.5v-148z" />
    <glyph glyph-name="eogonek" unicode="&#x119;" 
d="M784 -379q-135 0 -213.5 59.5t-78.5 178.5q0 35 10 64.5t26 56.5q-10 -3 -20 -3h-21q-108 0 -201 36t-161 100.5t-106.5 153.5t-38.5 198q0 106 35.5 195.5t100 155t154.5 102t199 36.5q113 0 205 -38.5t157.5 -111.5t102.5 -178.5t37 -238.5h-781q15 -96 91.5 -159.5
t205.5 -63.5q101 0 175.5 31.5t128.5 83.5l106 -146q-53 -53 -109.5 -85t-115.5 -48q-39 -43 -39 -104q0 -64 44 -95.5t107 -31.5v-148zM737 569q-16 90 -93 144.5t-175 54.5t-176 -54.5t-94 -144.5h538z" />
    <glyph glyph-name="Ecaron" unicode="&#x11a;" 
d="M883 0h-834v1305h834v-187h-627v-360h489v-187h-489v-385h627v-186zM467 1352l-324 317l80 101l246 -207l242 205l80 -103z" />
    <glyph glyph-name="ecaron" unicode="&#x11b;" 
d="M190 387q15 -96 91.5 -159.5t205.5 -63.5q101 0 175.5 31.5t128.5 83.5l106 -146q-90 -90 -190.5 -123t-219.5 -33q-108 0 -201 36t-161 100.5t-106.5 153.5t-38.5 198q0 106 35.5 195.5t100 155t154.5 102t199 36.5q113 0 205 -38.5t157.5 -111.5t102.5 -178.5
t37 -238.5h-781zM737 569q-16 90 -93 144.5t-175 54.5t-176 -54.5t-94 -144.5h538zM467 981l-324 317l80 101l246 -207l242 205l80 -103z" />
    <glyph glyph-name="Gcircumflex" unicode="&#x11c;" 
d="M983 649q0 -133 -26.5 -254t-87 -214t-156 -148.5t-232.5 -55.5t-232 56.5t-155.5 149.5t-87 215t-26.5 253t26.5 253t87 216t155.5 150.5t232 56.5q39 0 80 -11t78 -33.5t65.5 -55.5t40.5 -76v154h187v-463h-187q0 61 -19 115.5t-54 95.5t-84 64.5t-107 23.5
q-88 0 -144 -44t-90 -114t-47.5 -157t-13.5 -175t13.5 -175t46.5 -156.5t90 -112.5t145 -43q127 0 205 81t107 251h-275v186h465v-33zM791 1456l-80 -102l-242 205l-246 -207l-80 100l324 318z" />
    <glyph glyph-name="gcircumflex" unicode="&#x11d;" 
d="M883 10q0 -96 -33 -171t-92.5 -127t-140 -79.5t-179.5 -27.5q-243 0 -415 147l98 160q143 -123 317 -123q107 0 172.5 52.5t65.5 164.5v100q-64 -55 -123 -81.5t-137 -26.5q-90 0 -167 38t-132.5 103.5t-87 152.5t-31.5 185t31.5 185.5t87 152t132.5 102t167 37.5
q78 0 139 -26.5t121 -79.5v84h207v-922zM676 684q-37 41 -95.5 62.5t-113.5 21.5q-117 0 -189.5 -82t-72.5 -209q0 -63 19.5 -116.5t54 -92.5t83 -61.5t105.5 -22.5q55 0 113.5 22.5t95.5 63.5v414zM791 1085l-80 -102l-242 205l-246 -207l-80 100l324 318z" />
    <glyph glyph-name="Gbreve" unicode="&#x11e;" 
d="M983 649q0 -133 -26.5 -254t-87 -214t-156 -148.5t-232.5 -55.5t-232 56.5t-155.5 149.5t-87 215t-26.5 253t26.5 253t87 216t155.5 150.5t232 56.5q39 0 80 -11t78 -33.5t65.5 -55.5t40.5 -76v154h187v-463h-187q0 61 -19 115.5t-54 95.5t-84 64.5t-107 23.5
q-88 0 -144 -44t-90 -114t-47.5 -157t-13.5 -175t13.5 -175t46.5 -156.5t90 -112.5t145 -43q127 0 205 81t107 251h-275v186h465v-33zM795 1538q-136 -135 -328 -135q-193 0 -328 135l121 119q94 -94 207 -94t207 94z" />
    <glyph glyph-name="gbreve" unicode="&#x11f;" 
d="M883 10q0 -96 -33 -171t-92.5 -127t-140 -79.5t-179.5 -27.5q-243 0 -415 147l98 160q143 -123 317 -123q107 0 172.5 52.5t65.5 164.5v100q-64 -55 -123 -81.5t-137 -26.5q-90 0 -167 38t-132.5 103.5t-87 152.5t-31.5 185t31.5 185.5t87 152t132.5 102t167 37.5
q78 0 139 -26.5t121 -79.5v84h207v-922zM676 684q-37 41 -95.5 62.5t-113.5 21.5q-117 0 -189.5 -82t-72.5 -209q0 -63 19.5 -116.5t54 -92.5t83 -61.5t105.5 -22.5q55 0 113.5 22.5t95.5 63.5v414zM795 1167q-136 -135 -328 -135q-193 0 -328 135l121 119q94 -94 207 -94
t207 94z" />
    <glyph glyph-name="Gdotaccent" unicode="&#x120;" 
d="M983 649q0 -133 -26.5 -254t-87 -214t-156 -148.5t-232.5 -55.5t-232 56.5t-155.5 149.5t-87 215t-26.5 253t26.5 253t87 216t155.5 150.5t232 56.5q39 0 80 -11t78 -33.5t65.5 -55.5t40.5 -76v154h187v-463h-187q0 61 -19 115.5t-54 95.5t-84 64.5t-107 23.5
q-88 0 -144 -44t-90 -114t-47.5 -157t-13.5 -175t13.5 -175t46.5 -156.5t90 -112.5t145 -43q127 0 205 81t107 251h-275v186h465v-33zM592 1424h-252v252h252v-252z" />
    <glyph glyph-name="gdotaccent" unicode="&#x121;" 
d="M883 10q0 -96 -33 -171t-92.5 -127t-140 -79.5t-179.5 -27.5q-243 0 -415 147l98 160q143 -123 317 -123q107 0 172.5 52.5t65.5 164.5v100q-64 -55 -123 -81.5t-137 -26.5q-90 0 -167 38t-132.5 103.5t-87 152.5t-31.5 185t31.5 185.5t87 152t132.5 102t167 37.5
q78 0 139 -26.5t121 -79.5v84h207v-922zM676 684q-37 41 -95.5 62.5t-113.5 21.5q-117 0 -189.5 -82t-72.5 -209q0 -63 19.5 -116.5t54 -92.5t83 -61.5t105.5 -22.5q55 0 113.5 22.5t95.5 63.5v414zM592 1053h-252v252h252v-252z" />
    <glyph glyph-name="Gcommaaccent" unicode="&#x122;" 
d="M983 649q0 -133 -26.5 -254t-87 -214t-156 -148.5t-232.5 -55.5t-232 56.5t-155.5 149.5t-87 215t-26.5 253t26.5 253t87 216t155.5 150.5t232 56.5q39 0 80 -11t78 -33.5t65.5 -55.5t40.5 -76v154h187v-463h-187q0 61 -19 115.5t-54 95.5t-84 64.5t-107 23.5
q-88 0 -144 -44t-90 -114t-47.5 -157t-13.5 -175t13.5 -175t46.5 -156.5t90 -112.5t145 -43q127 0 205 81t107 251h-275v186h465v-33zM684 -109l-192 -264h-191l105 264h278z" />
    <glyph glyph-name="gcommaaccent" unicode="&#x123;" 
d="M270 1118l172 373h158l-84 -373h-246zM883 10q0 -96 -33 -171t-92.5 -127t-140 -79.5t-179.5 -27.5q-243 0 -415 147l98 160q143 -123 317 -123q107 0 172.5 52.5t65.5 164.5v100q-64 -55 -123 -81.5t-137 -26.5q-90 0 -167 38t-132.5 103.5t-87 152.5t-31.5 185
t31.5 185.5t87 152t132.5 102t167 37.5q78 0 139 -26.5t121 -79.5v84h207v-922zM676 684q-37 41 -95.5 62.5t-113.5 21.5q-117 0 -189.5 -82t-72.5 -209q0 -63 19.5 -116.5t54 -92.5t83 -61.5t105.5 -22.5q55 0 113.5 22.5t95.5 63.5v414z" />
    <glyph glyph-name="Hcircumflex" unicode="&#x124;" 
d="M883 0h-207v571h-420v-571h-207v1305h207v-547h420v547h207v-1305zM791 1456l-80 -102l-242 205l-246 -207l-80 100l324 318z" />
    <glyph glyph-name="hcircumflex" unicode="&#x125;" 
d="M883 0h-207v575q0 109 -41 151t-119 42q-115 0 -187.5 -93t-72.5 -257v-418h-207v1305h207v-607q31 121 115 188.5t207 67.5q143 0 224 -93t81 -286v-575zM791 1456l-80 -102l-242 205l-246 -207l-80 100l324 318z" />
    <glyph glyph-name="Hbar" unicode="&#x126;" 
d="M883 1118h186v-174h-186v-944h-207v571h-420v-571h-207v944h-186v174h186v187h207v-187h420v187h207v-187zM676 758v186h-420v-186h420z" />
    <glyph glyph-name="hbar" unicode="&#x127;" 
d="M883 0h-207v575q0 109 -41 151t-119 42q-115 0 -187.5 -93t-72.5 -257v-418h-207v989h-172v174h172v142h207v-142h180v-174h-180v-291q31 121 115 188.5t207 67.5q143 0 224 -93t81 -286v-575z" />
    <glyph glyph-name="Itilde" unicode="&#x128;" 
d="M782 0h-626v186h206v932h-206v187h626v-187h-213v-932h213v-186zM874 1616q-47 -96 -114.5 -150.5t-159.5 -54.5q-49 0 -84 18.5t-65.5 40t-60.5 40t-66 18.5q-52 0 -86.5 -31.5t-67.5 -87.5l-121 70q47 94 114.5 148.5t160.5 54.5q49 0 83.5 -18.5t65.5 -40t60.5 -40
t66.5 -18.5q51 0 86 31.5t68 89.5z" />
    <glyph glyph-name="itilde" unicode="&#x129;" 
d="M782 0h-626v186h206v559h-206v187h413v-746h213v-186zM874 1245q-47 -96 -114.5 -150.5t-159.5 -54.5q-49 0 -84 18.5t-65.5 40t-60.5 40t-66 18.5q-52 0 -86.5 -31.5t-67.5 -87.5l-121 70q47 94 114.5 148.5t160.5 54.5q49 0 83.5 -18.5t65.5 -40t60.5 -40t66.5 -18.5
q51 0 86 31.5t68 89.5z" />
    <glyph glyph-name="Imacron" unicode="&#x12a;" 
d="M782 0h-626v186h206v932h-206v187h626v-187h-213v-932h213v-186zM745 1415h-559v175h559v-175z" />
    <glyph glyph-name="imacron" unicode="&#x12b;" 
d="M782 0h-626v186h206v559h-206v187h413v-746h213v-186zM745 1044h-559v175h559v-175z" />
    <glyph glyph-name="Ibreve" unicode="&#x12c;" 
d="M782 0h-626v186h206v932h-206v187h626v-187h-213v-932h213v-186zM795 1538q-136 -135 -328 -135q-193 0 -328 135l121 119q94 -94 207 -94t207 94z" />
    <glyph glyph-name="ibreve" unicode="&#x12d;" 
d="M782 0h-626v186h206v559h-206v187h413v-746h213v-186zM795 1167q-136 -135 -328 -135q-193 0 -328 135l121 119q94 -94 207 -94t207 94z" />
    <glyph glyph-name="Iogonek" unicode="&#x12e;" 
d="M895 -379q-135 0 -214 59.5t-79 178.5q0 41 14.5 76.5t38.5 64.5h-499v186h206v932h-206v187h626v-187h-213v-932h213v-186q-39 -43 -39 -104q0 -64 44 -95.5t108 -31.5v-148z" />
    <glyph glyph-name="iogonek" unicode="&#x12f;" 
d="M895 -379q-135 0 -214 59.5t-79 178.5q0 41 14.5 76.5t38.5 64.5h-499v186h206v559h-206v187h413v-746h213v-186q-39 -43 -39 -104q0 -64 44 -95.5t108 -31.5v-148zM592 1053h-252v252h252v-252z" />
    <glyph glyph-name="Idotaccent" unicode="&#x130;" 
d="M782 0h-626v186h206v932h-206v187h626v-187h-213v-932h213v-186zM592 1424h-252v252h252v-252z" />
    <glyph glyph-name="dotlessi" unicode="&#x131;" 
d="M782 0h-626v186h206v559h-206v187h413v-746h213v-186z" />
    <glyph glyph-name="IJ" unicode="&#x132;" 
d="M342 -135q70 -74 182 -74q68 0 111 27.5t67.5 74t33.5 106.5t9 126v1180h207v-1180q0 -248 -105.5 -384t-322.5 -136q-184 0 -307 104zM596 0h-626v186h206v932h-206v187h626v-187h-213v-932h213v-186z" />
    <glyph glyph-name="ij" unicode="&#x133;" 
d="M437 1053h-252v252h252v-252zM627 0h-626v186h206v559h-206v187h413v-746h213v-186zM561 -395q-213 0 -344 159l123 138q47 -56 100 -83.5t121 -27.5q105 0 155 57.5t50 151.5v745h-211v187h418v-932q0 -90 -30 -163t-84 -125t-130 -79.5t-168 -27.5zM995 1053h-252v252
h252v-252z" />
    <glyph glyph-name="Jcircumflex" unicode="&#x134;" 
d="M883 498q0 -248 -105.5 -384.5t-322.5 -136.5q-174 0 -292 91.5t-165 273.5l186 70q29 -117 94.5 -182.5t176.5 -65.5q67 0 110 27.5t67.5 73.5t34 106.5t9.5 126.5v807h207v-807zM791 1456l-80 -102l-242 205l-246 -207l-80 100l324 318z" />
    <glyph glyph-name="jcircumflex" unicode="&#x135;" 
d="M344 -395q-213 0 -344 159l123 138q47 -56 100 -83.5t121 -27.5q105 0 155 57.5t50 151.5v745h-211v187h418v-932q0 -90 -30 -163t-84 -125t-130 -79.5t-168 -27.5zM883 1085l-80 -102l-242 205l-246 -207l-80 100l324 318z" />
    <glyph glyph-name="Kcommaaccent" unicode="&#x136;" 
d="M926 0h-242l-342 608l-86 -102v-506h-207v1305h207v-512l406 512h266l-455 -541zM684 -109l-192 -264h-191l105 264h278z" />
    <glyph glyph-name="kcommaaccent" unicode="&#x137;" 
d="M930 0h-268l-312 377l-94 -96v-281h-207v1305h207v-768l373 395h284l-430 -428zM684 -109l-192 -264h-191l105 264h278z" />
    <glyph glyph-name="kgreenlandic" unicode="&#x138;" 
d="M930 0h-268l-312 377l-94 -96v-281h-207v932h207v-395l373 395h284l-430 -428z" />
    <glyph glyph-name="Lacute" unicode="&#x139;" 
d="M883 0h-834v1305h207v-1119h627v-186zM711 1596l-432 -244l-89 137l404 287z" />
    <glyph glyph-name="lacute" unicode="&#x13a;" 
d="M784 0h-626v186h204v932h-204v187h411v-1119h215v-186zM711 1596l-432 -244l-89 137l404 287z" />
    <glyph glyph-name="Lcommaaccent" unicode="&#x13b;" 
d="M883 0h-834v1305h207v-1119h627v-186zM684 -109l-192 -264h-191l105 264h278z" />
    <glyph glyph-name="lcommaaccent" unicode="&#x13c;" 
d="M784 0h-626v186h204v932h-204v187h411v-1119h215v-186zM684 -109l-192 -264h-191l105 264h278z" />
    <glyph glyph-name="Lcaron" unicode="&#x13d;" 
d="M883 0h-834v1305h207v-1119h627v-186zM804 1305l-83 -557h-162v557h245z" />
    <glyph glyph-name="lcaron" unicode="&#x13e;" 
d="M784 0h-626v186h204v932h-204v187h411v-1119h215v-186zM991 1305l-83 -557h-162v557h245z" />
    <glyph glyph-name="Ldot" unicode="&#x13f;" 
d="M883 0h-834v1305h207v-1119h627v-186zM811 493h-252v252h252v-252z" />
    <glyph glyph-name="ldot" unicode="&#x140;" 
d="M784 0h-626v186h204v932h-204v187h411v-1119h215v-186zM1151 352h-252v252h252v-252z" />
    <glyph glyph-name="Lslash" unicode="&#x141;" 
d="M883 0h-834v520l-174 -57v188l174 58v596h207v-529l178 62v-189l-178 -61v-402h627v-186z" />
    <glyph glyph-name="lslash" unicode="&#x142;" 
d="M784 0h-626v186h204v334l-178 -59v188l178 60v409h-204v187h411v-529l174 60v-189l-174 -59v-402h215v-186z" />
    <glyph glyph-name="Nacute" unicode="&#x143;" 
d="M883 0h-240l-387 946v-946h-207v1305h260l367 -899v899h207v-1305zM711 1596l-432 -244l-89 137l404 287z" />
    <glyph glyph-name="nacute" unicode="&#x144;" 
d="M883 0h-207v575q0 109 -41 151t-119 42q-115 0 -187.5 -93t-72.5 -257v-418h-207v932h207v-234q31 121 115 188.5t207 67.5q143 0 224 -93t81 -286v-575zM711 1225l-432 -244l-89 137l404 287z" />
    <glyph glyph-name="Ncommaaccent" unicode="&#x145;" 
d="M883 0h-240l-387 946v-946h-207v1305h260l367 -899v899h207v-1305zM684 -109l-192 -264h-191l105 264h278z" />
    <glyph glyph-name="ncommaaccent" unicode="&#x146;" 
d="M883 0h-207v575q0 109 -41 151t-119 42q-115 0 -187.5 -93t-72.5 -257v-418h-207v932h207v-234q31 121 115 188.5t207 67.5q143 0 224 -93t81 -286v-575zM684 -109l-192 -264h-191l105 264h278z" />
    <glyph glyph-name="Ncaron" unicode="&#x147;" 
d="M883 0h-240l-387 946v-946h-207v1305h260l367 -899v899h207v-1305zM467 1352l-324 317l80 101l246 -207l242 205l80 -103z" />
    <glyph glyph-name="ncaron" unicode="&#x148;" 
d="M883 0h-207v575q0 109 -41 151t-119 42q-115 0 -187.5 -93t-72.5 -257v-418h-207v932h207v-234q31 121 115 188.5t207 67.5q143 0 224 -93t81 -286v-575zM467 981l-324 317l80 101l246 -207l242 205l80 -103z" />
    <glyph glyph-name="napostrophe" unicode="&#x149;" 
d="M883 0h-207v575q0 109 -41 151t-119 42q-115 0 -187.5 -93t-72.5 -257v-418h-207v932h207v-234q31 121 115 188.5t207 67.5q143 0 224 -93t81 -286v-575zM246 1675l-83 -557h-162v557h245z" />
    <glyph glyph-name="Eng" unicode="&#x14a;" 
d="M883 125q0 -248 -105.5 -384t-322.5 -136q-185 0 -308 104l125 156q70 -74 183 -74q88 0 135 48t67 120l-401 987v-946h-207v1305h260l367 -899v899h207v-1180z" />
    <glyph glyph-name="eng" unicode="&#x14b;" 
d="M330 -164q63 -45 141 -45q104 0 154.5 57.5t50.5 151.5v575q0 109 -41 151t-119 42q-115 0 -187.5 -93t-72.5 -257v-418h-207v932h207v-234q31 121 115 188.5t207 67.5q143 0 224 -93t81 -286v-575q0 -90 -30 -163t-84 -125t-130 -79.5t-168 -27.5q-127 0 -225 57z" />
    <glyph glyph-name="Omacron" unicode="&#x14c;" 
d="M-33 653q0 131 28 253t87 215t154.5 149.5t230.5 56.5t230.5 -56.5t155.5 -149.5t87 -215t27 -253t-27 -252.5t-86 -216t-154.5 -151t-232.5 -56.5t-232.5 56.5t-155 151t-86 216t-26.5 252.5zM174 653q0 -88 13.5 -176t46 -157.5t89 -112.5t144.5 -43t144.5 43t89 112.5
t46 157.5t13.5 176t-13.5 175t-46 157t-90 113t-143.5 43q-143 0 -218 -129t-75 -359zM745 1415h-559v175h559v-175z" />
    <glyph glyph-name="omacron" unicode="&#x14d;" 
d="M956 465q0 -109 -34.5 -198t-99 -153.5t-154.5 -100.5t-201 -36q-109 0 -199 36t-154.5 100.5t-99 153.5t-34.5 198q0 106 34.5 196.5t99 156t154.5 101t199 35.5q111 0 201 -35.5t154.5 -101t99 -156t34.5 -196.5zM750 465q0 63 -19.5 119.5t-56.5 96.5t-89.5 63.5
t-117.5 23.5q-66 0 -118 -23.5t-88 -63.5t-55.5 -96.5t-19.5 -119.5q0 -66 19.5 -120t55.5 -95t88 -63.5t118 -22.5q65 0 117.5 22.5t89.5 63.5t56.5 95t19.5 120zM745 1044h-559v175h559v-175z" />
    <glyph glyph-name="Obreve" unicode="&#x14e;" 
d="M-33 653q0 131 28 253t87 215t154.5 149.5t230.5 56.5t230.5 -56.5t155.5 -149.5t87 -215t27 -253t-27 -252.5t-86 -216t-154.5 -151t-232.5 -56.5t-232.5 56.5t-155 151t-86 216t-26.5 252.5zM174 653q0 -88 13.5 -176t46 -157.5t89 -112.5t144.5 -43t144.5 43t89 112.5
t46 157.5t13.5 176t-13.5 175t-46 157t-90 113t-143.5 43q-143 0 -218 -129t-75 -359zM795 1538q-136 -135 -328 -135q-193 0 -328 135l121 119q94 -94 207 -94t207 94z" />
    <glyph glyph-name="obreve" unicode="&#x14f;" 
d="M956 465q0 -109 -34.5 -198t-99 -153.5t-154.5 -100.5t-201 -36q-109 0 -199 36t-154.5 100.5t-99 153.5t-34.5 198q0 106 34.5 196.5t99 156t154.5 101t199 35.5q111 0 201 -35.5t154.5 -101t99 -156t34.5 -196.5zM750 465q0 63 -19.5 119.5t-56.5 96.5t-89.5 63.5
t-117.5 23.5q-66 0 -118 -23.5t-88 -63.5t-55.5 -96.5t-19.5 -119.5q0 -66 19.5 -120t55.5 -95t88 -63.5t118 -22.5q65 0 117.5 22.5t89.5 63.5t56.5 95t19.5 120zM795 1167q-136 -135 -328 -135q-193 0 -328 135l121 119q94 -94 207 -94t207 94z" />
    <glyph glyph-name="Ohungarumlaut" unicode="&#x150;" 
d="M-33 653q0 131 28 253t87 215t154.5 149.5t230.5 56.5t230.5 -56.5t155.5 -149.5t87 -215t27 -253t-27 -252.5t-86 -216t-154.5 -151t-232.5 -56.5t-232.5 56.5t-155 151t-86 216t-26.5 252.5zM174 653q0 -88 13.5 -176t46 -157.5t89 -112.5t144.5 -43t144.5 43t89 112.5
t46 157.5t13.5 176t-13.5 175t-46 157t-90 113t-143.5 43q-143 0 -218 -129t-75 -359zM698 1395h-172l142 375h217zM326 1395h-170l139 375h217z" />
    <glyph glyph-name="ohungarumlaut" unicode="&#x151;" 
d="M956 465q0 -109 -34.5 -198t-99 -153.5t-154.5 -100.5t-201 -36q-109 0 -199 36t-154.5 100.5t-99 153.5t-34.5 198q0 106 34.5 196.5t99 156t154.5 101t199 35.5q111 0 201 -35.5t154.5 -101t99 -156t34.5 -196.5zM750 465q0 63 -19.5 119.5t-56.5 96.5t-89.5 63.5
t-117.5 23.5q-66 0 -118 -23.5t-88 -63.5t-55.5 -96.5t-19.5 -119.5q0 -66 19.5 -120t55.5 -95t88 -63.5t118 -22.5q65 0 117.5 22.5t89.5 63.5t56.5 95t19.5 120zM698 1024h-172l142 375h217zM326 1024h-170l139 375h217z" />
    <glyph glyph-name="OE" unicode="&#x152;" 
d="M932 0h-473v123q-53 -146 -183 -146q-292 0 -292 674q0 676 292 676q64 0 110 -39t73 -110v127h473v-187h-336v-360h246v-187h-246v-385h336v-186zM395 651q0 109 -4 199t-14 154.5t-30.5 100.5t-51.5 36t-51.5 -36t-32.5 -100.5t-16.5 -154.5t-4.5 -199
q0 -108 4.5 -198.5t16.5 -155t32.5 -99t51.5 -34.5t51.5 34.5t30.5 99t14 155t4 198.5z" />
    <glyph glyph-name="oe" unicode="&#x153;" 
d="M569 385q0 -96 26 -158.5t79 -62.5q41 0 63.5 25.5t32.5 84.5l182 -53q-28 -123 -97 -183.5t-161 -60.5q-180 0 -229 203q-43 -203 -211 -203q-281 0 -281 490q0 487 281 487q164 0 209 -192q43 192 219 192q100 0 156.5 -53t84 -136t35 -184.5t7.5 -195.5h-396zM758 571
q0 93 -18.5 145t-73.5 52q-56 0 -74.5 -52t-22.5 -145h189zM362 467q0 301 -90 301q-92 0 -92 -301q0 -303 92 -303q90 0 90 303z" />
    <glyph glyph-name="Racute" unicode="&#x154;" 
d="M950 0h-262l-338 528h-94v-528h-207v1305h430q215 0 334 -98.5t119 -291.5q0 -86 -26.5 -151.5t-75 -112.5t-113 -74.5t-139.5 -37.5zM725 918q0 100 -65.5 150t-180.5 50h-223v-403h223q115 0 180.5 50t65.5 153zM711 1596l-432 -244l-89 137l404 287z" />
    <glyph glyph-name="racute" unicode="&#x155;" 
d="M909 711q-37 18 -75.5 27.5t-88.5 9.5q-69 0 -129.5 -20.5t-104.5 -61.5t-68.5 -102.5t-24.5 -145.5v-232h209v-186h-627v186h211v559h-211v187h418v-234q51 140 150.5 198t236.5 58q43 0 90 -9t92 -32zM711 1225l-432 -244l-89 137l404 287z" />
    <glyph glyph-name="Rcommaaccent" unicode="&#x156;" 
d="M950 0h-262l-338 528h-94v-528h-207v1305h430q215 0 334 -98.5t119 -291.5q0 -86 -26.5 -151.5t-75 -112.5t-113 -74.5t-139.5 -37.5zM725 918q0 100 -65.5 150t-180.5 50h-223v-403h223q115 0 180.5 50t65.5 153zM684 -109l-192 -264h-191l105 264h278z" />
    <glyph glyph-name="rcommaaccent" unicode="&#x157;" 
d="M909 711q-37 18 -75.5 27.5t-88.5 9.5q-69 0 -129.5 -20.5t-104.5 -61.5t-68.5 -102.5t-24.5 -145.5v-232h209v-186h-627v186h211v559h-211v187h418v-234q51 140 150.5 198t236.5 58q43 0 90 -9t92 -32zM684 -109l-192 -264h-191l105 264h278z" />
    <glyph glyph-name="Rcaron" unicode="&#x158;" 
d="M950 0h-262l-338 528h-94v-528h-207v1305h430q215 0 334 -98.5t119 -291.5q0 -86 -26.5 -151.5t-75 -112.5t-113 -74.5t-139.5 -37.5zM725 918q0 100 -65.5 150t-180.5 50h-223v-403h223q115 0 180.5 50t65.5 153zM467 1352l-324 317l80 101l246 -207l242 205l80 -103z
" />
    <glyph glyph-name="rcaron" unicode="&#x159;" 
d="M909 711q-37 18 -75.5 27.5t-88.5 9.5q-69 0 -129.5 -20.5t-104.5 -61.5t-68.5 -102.5t-24.5 -145.5v-232h209v-186h-627v186h211v559h-211v187h418v-234q51 140 150.5 198t236.5 58q43 0 90 -9t92 -32zM467 981l-324 317l80 101l246 -207l242 205l80 -103z" />
    <glyph glyph-name="Sacute" unicode="&#x15a;" 
d="M899 358q0 -90 -30.5 -160.5t-83 -119.5t-125 -75t-154.5 -26q-92 0 -166 33t-127 109v-119h-186v426h186q0 -64 22.5 -113t59.5 -82.5t86 -51t104 -17.5q93 0 150 43t57 137q0 49 -17.5 84t-50 62.5t-79.5 48t-107 43.5q-71 24 -142 54t-127 74t-91 108.5t-35 162.5
q0 86 31.5 150.5t84 108.5t122 66.5t147.5 22.5q90 0 154.5 -38t99.5 -101v117h186v-406h-186q0 115 -60.5 179.5t-162.5 64.5q-90 0 -149.5 -42t-59.5 -118q0 -39 15.5 -66.5t45 -50t74.5 -42t104 -42.5q74 -26 147 -59t131 -81t95 -116.5t37 -167.5zM711 1596l-432 -244
l-89 137l404 287z" />
    <glyph glyph-name="sacute" unicode="&#x15b;" 
d="M907 279q0 -91 -41 -148t-105.5 -92t-144 -48.5t-155.5 -13.5q-127 0 -253 37t-218 97l86 170q110 -64 201.5 -90.5t183.5 -26.5q125 0 182 26.5t57 73.5q0 23 -16 38t-53 27.5t-97.5 25t-150.5 26.5q-72 12 -136.5 29.5t-113.5 49.5t-78.5 81t-29.5 123q0 75 38.5 130.5
t101 91.5t140.5 52t156 16q110 0 213.5 -28.5t181.5 -81.5l-82 -160q-78 49 -151.5 66.5t-161.5 17.5q-37 0 -77 -4t-74 -15.5t-56.5 -31t-22.5 -47.5q0 -37 65.5 -60.5t223.5 -46.5q86 -12 157 -30.5t122 -50t79.5 -81t28.5 -122.5zM711 1225l-432 -244l-89 137l404 287z
" />
    <glyph glyph-name="Scircumflex" unicode="&#x15c;" 
d="M899 358q0 -90 -30.5 -160.5t-83 -119.5t-125 -75t-154.5 -26q-92 0 -166 33t-127 109v-119h-186v426h186q0 -64 22.5 -113t59.5 -82.5t86 -51t104 -17.5q93 0 150 43t57 137q0 49 -17.5 84t-50 62.5t-79.5 48t-107 43.5q-71 24 -142 54t-127 74t-91 108.5t-35 162.5
q0 86 31.5 150.5t84 108.5t122 66.5t147.5 22.5q90 0 154.5 -38t99.5 -101v117h186v-406h-186q0 115 -60.5 179.5t-162.5 64.5q-90 0 -149.5 -42t-59.5 -118q0 -39 15.5 -66.5t45 -50t74.5 -42t104 -42.5q74 -26 147 -59t131 -81t95 -116.5t37 -167.5zM791 1456l-80 -102
l-242 205l-246 -207l-80 100l324 318z" />
    <glyph glyph-name="scircumflex" unicode="&#x15d;" 
d="M907 279q0 -91 -41 -148t-105.5 -92t-144 -48.5t-155.5 -13.5q-127 0 -253 37t-218 97l86 170q110 -64 201.5 -90.5t183.5 -26.5q125 0 182 26.5t57 73.5q0 23 -16 38t-53 27.5t-97.5 25t-150.5 26.5q-72 12 -136.5 29.5t-113.5 49.5t-78.5 81t-29.5 123q0 75 38.5 130.5
t101 91.5t140.5 52t156 16q110 0 213.5 -28.5t181.5 -81.5l-82 -160q-78 49 -151.5 66.5t-161.5 17.5q-37 0 -77 -4t-74 -15.5t-56.5 -31t-22.5 -47.5q0 -37 65.5 -60.5t223.5 -46.5q86 -12 157 -30.5t122 -50t79.5 -81t28.5 -122.5zM791 1085l-80 -102l-242 205l-246 -207
l-80 100l324 318z" />
    <glyph glyph-name="Scedilla" unicode="&#x15e;" 
d="M899 358q0 -77 -23.5 -140.5t-64.5 -112t-97.5 -78t-123.5 -41.5v-27q0 -70 -23.5 -130t-68.5 -104t-109.5 -70t-146.5 -26v178q88 0 130 40t42 112v27q-123 24 -201 133v-119h-186v426h186q0 -64 22.5 -113t59.5 -82.5t86 -51t104 -17.5q93 0 150 43t57 137
q0 49 -17.5 84t-50 62.5t-79.5 48t-107 43.5q-71 24 -142 54t-127 74t-91 108.5t-35 162.5q0 86 31.5 150.5t84 108.5t122 66.5t147.5 22.5q90 0 154.5 -38t99.5 -101v117h186v-406h-186q0 115 -60.5 179.5t-162.5 64.5q-90 0 -149.5 -42t-59.5 -118q0 -39 15.5 -66.5
t45 -50t74.5 -42t104 -42.5q74 -26 147 -59t131 -81t95 -116.5t37 -167.5z" />
    <glyph glyph-name="scedilla" unicode="&#x15f;" 
d="M907 279q0 -72 -26.5 -122.5t-70.5 -85t-101.5 -55t-118.5 -28.5v-29q0 -70 -23.5 -130t-68.5 -104t-109.5 -70t-146.5 -26v178q88 0 130 40t42 112v21q-117 6 -228.5 40.5t-195.5 90.5l86 170q110 -64 201.5 -90.5t183.5 -26.5q125 0 182 26.5t57 73.5q0 23 -16 38
t-53 27.5t-97.5 25t-150.5 26.5q-72 12 -136.5 29.5t-113.5 49.5t-78.5 81t-29.5 123q0 75 38.5 130.5t101 91.5t140.5 52t156 16q110 0 213.5 -28.5t181.5 -81.5l-82 -160q-78 49 -151.5 66.5t-161.5 17.5q-37 0 -77 -4t-74 -15.5t-56.5 -31t-22.5 -47.5q0 -37 65.5 -60.5
t223.5 -46.5q86 -12 157 -30.5t122 -50t79.5 -81t28.5 -122.5z" />
    <glyph glyph-name="Scaron" unicode="&#x160;" 
d="M899 358q0 -90 -30.5 -160.5t-83 -119.5t-125 -75t-154.5 -26q-92 0 -166 33t-127 109v-119h-186v426h186q0 -64 22.5 -113t59.5 -82.5t86 -51t104 -17.5q93 0 150 43t57 137q0 49 -17.5 84t-50 62.5t-79.5 48t-107 43.5q-71 24 -142 54t-127 74t-91 108.5t-35 162.5
q0 86 31.5 150.5t84 108.5t122 66.5t147.5 22.5q90 0 154.5 -38t99.5 -101v117h186v-406h-186q0 115 -60.5 179.5t-162.5 64.5q-90 0 -149.5 -42t-59.5 -118q0 -39 15.5 -66.5t45 -50t74.5 -42t104 -42.5q74 -26 147 -59t131 -81t95 -116.5t37 -167.5zM467 1352l-324 317
l80 101l246 -207l242 205l80 -103z" />
    <glyph glyph-name="scaron" unicode="&#x161;" 
d="M907 279q0 -91 -41 -148t-105.5 -92t-144 -48.5t-155.5 -13.5q-127 0 -253 37t-218 97l86 170q110 -64 201.5 -90.5t183.5 -26.5q125 0 182 26.5t57 73.5q0 23 -16 38t-53 27.5t-97.5 25t-150.5 26.5q-72 12 -136.5 29.5t-113.5 49.5t-78.5 81t-29.5 123q0 75 38.5 130.5
t101 91.5t140.5 52t156 16q110 0 213.5 -28.5t181.5 -81.5l-82 -160q-78 49 -151.5 66.5t-161.5 17.5q-37 0 -77 -4t-74 -15.5t-56.5 -31t-22.5 -47.5q0 -37 65.5 -60.5t223.5 -46.5q86 -12 157 -30.5t122 -50t79.5 -81t28.5 -122.5zM467 981l-324 317l80 101l246 -207
l242 205l80 -103z" />
    <glyph glyph-name="Tcommaaccent" unicode="&#x162;" 
d="M930 829h-185v289h-176v-932h207v-186h-620v186h206v932h-178v-289h-184v476h930v-476zM684 -109l-192 -264h-191l105 264h278z" />
    <glyph glyph-name="tcommaaccent" unicode="&#x163;" 
d="M942 297q-16 -147 -115.5 -233.5t-248.5 -86.5q-82 0 -150 27t-116 75t-74.5 115.5t-26.5 147.5v403h-211v187h211v373h207v-373h391v-187h-391v-403q0 -90 44 -134t116 -44q88 0 131 51t51 123zM684 -109l-192 -264h-191l105 264h278z" />
    <glyph glyph-name="Tcaron" unicode="&#x164;" 
d="M930 829h-185v289h-176v-932h207v-186h-620v186h206v932h-178v-289h-184v476h930v-476zM467 1352l-324 317l80 101l246 -207l242 205l80 -103z" />
    <glyph glyph-name="tcaron" unicode="&#x165;" 
d="M942 297q-16 -147 -115.5 -233.5t-248.5 -86.5q-82 0 -150 27t-116 75t-74.5 115.5t-26.5 147.5v403h-211v187h211v373h207v-373h391v-187h-391v-403q0 -90 44 -134t116 -44q88 0 131 51t51 123zM991 1675l-83 -557h-162v557h245z" />
    <glyph glyph-name="Tbar" unicode="&#x166;" 
d="M745 571h-176v-385h207v-186h-620v186h206v385h-176v174h176v373h-178v-289h-184v476h930v-476h-185v289h-176v-373h176v-174z" />
    <glyph glyph-name="tbar" unicode="&#x167;" 
d="M942 297q-16 -147 -115.5 -233.5t-248.5 -86.5q-82 0 -150 27t-116 75t-74.5 115.5t-26.5 147.5v43h-211v174h211v186h-211v187h211v373h207v-373h391v-187h-391v-186h209v-174h-209v-43q0 -90 44 -134t116 -44q88 0 131 51t51 123z" />
    <glyph glyph-name="Utilde" unicode="&#x168;" 
d="M883 465q0 -111 -24.5 -201t-76 -153.5t-130.5 -98.5t-187 -35q-109 0 -186.5 35t-129 98.5t-76 154.5t-24.5 202v838h207v-840q0 -49 7 -101.5t28.5 -97.5t63.5 -73.5t110 -28.5q67 0 109 28.5t65 72.5t30 97.5t7 102.5v840h207v-840zM874 1616q-47 -96 -114.5 -150.5
t-159.5 -54.5q-49 0 -84 18.5t-65.5 40t-60.5 40t-66 18.5q-52 0 -86.5 -31.5t-67.5 -87.5l-121 70q47 94 114.5 148.5t160.5 54.5q49 0 83.5 -18.5t65.5 -40t60.5 -40t66.5 -18.5q51 0 86 31.5t68 89.5z" />
    <glyph glyph-name="utilde" unicode="&#x169;" 
d="M49 932h207v-576q0 -108 41 -150t119 -42q114 0 187 93t73 257v418h207v-932h-207v233q-31 -120 -115 -188t-207 -68q-143 0 -224 93.5t-81 285.5v576zM874 1245q-47 -96 -114.5 -150.5t-159.5 -54.5q-49 0 -84 18.5t-65.5 40t-60.5 40t-66 18.5q-52 0 -86.5 -31.5
t-67.5 -87.5l-121 70q47 94 114.5 148.5t160.5 54.5q49 0 83.5 -18.5t65.5 -40t60.5 -40t66.5 -18.5q51 0 86 31.5t68 89.5z" />
    <glyph glyph-name="Umacron" unicode="&#x16a;" 
d="M883 465q0 -111 -24.5 -201t-76 -153.5t-130.5 -98.5t-187 -35q-109 0 -186.5 35t-129 98.5t-76 154.5t-24.5 202v838h207v-840q0 -49 7 -101.5t28.5 -97.5t63.5 -73.5t110 -28.5q67 0 109 28.5t65 72.5t30 97.5t7 102.5v840h207v-840zM745 1415h-559v175h559v-175z" />
    <glyph glyph-name="umacron" unicode="&#x16b;" 
d="M49 932h207v-576q0 -108 41 -150t119 -42q114 0 187 93t73 257v418h207v-932h-207v233q-31 -120 -115 -188t-207 -68q-143 0 -224 93.5t-81 285.5v576zM745 1044h-559v175h559v-175z" />
    <glyph glyph-name="Ubreve" unicode="&#x16c;" 
d="M883 465q0 -111 -24.5 -201t-76 -153.5t-130.5 -98.5t-187 -35q-109 0 -186.5 35t-129 98.5t-76 154.5t-24.5 202v838h207v-840q0 -49 7 -101.5t28.5 -97.5t63.5 -73.5t110 -28.5q67 0 109 28.5t65 72.5t30 97.5t7 102.5v840h207v-840zM795 1538q-136 -135 -328 -135
q-193 0 -328 135l121 119q94 -94 207 -94t207 94z" />
    <glyph glyph-name="ubreve" unicode="&#x16d;" 
d="M49 932h207v-576q0 -108 41 -150t119 -42q114 0 187 93t73 257v418h207v-932h-207v233q-31 -120 -115 -188t-207 -68q-143 0 -224 93.5t-81 285.5v576zM795 1167q-136 -135 -328 -135q-193 0 -328 135l121 119q94 -94 207 -94t207 94z" />
    <glyph glyph-name="Uring" unicode="&#x16e;" 
d="M883 465q0 -111 -24.5 -201t-76 -153.5t-130.5 -98.5t-187 -35q-109 0 -186.5 35t-129 98.5t-76 154.5t-24.5 202v838h207v-840q0 -49 7 -101.5t28.5 -97.5t63.5 -73.5t110 -28.5q67 0 109 28.5t65 72.5t30 97.5t7 102.5v840h207v-840zM242 1628q0 48 17 88.5t48 71.5
t72 48.5t88 17.5t88 -17.5t71.5 -48.5t48 -71.5t17.5 -88.5q0 -47 -17.5 -88t-48 -71.5t-71.5 -48t-88 -17.5t-88 17.5t-72 48t-48 71.5t-17 88zM375 1628q0 -38 26.5 -65t65.5 -27t65.5 27t26.5 65q0 39 -26.5 66t-65.5 27t-65.5 -27t-26.5 -66z" />
    <glyph glyph-name="uring" unicode="&#x16f;" 
d="M49 932h207v-576q0 -108 41 -150t119 -42q114 0 187 93t73 257v418h207v-932h-207v233q-31 -120 -115 -188t-207 -68q-143 0 -224 93.5t-81 285.5v576zM242 1257q0 48 17 88.5t48 71.5t72 48.5t88 17.5t88 -17.5t71.5 -48.5t48 -71.5t17.5 -88.5q0 -47 -17.5 -88
t-48 -71.5t-71.5 -48t-88 -17.5t-88 17.5t-72 48t-48 71.5t-17 88zM375 1257q0 -38 26.5 -65t65.5 -27t65.5 27t26.5 65q0 39 -26.5 66t-65.5 27t-65.5 -27t-26.5 -66z" />
    <glyph glyph-name="Uhungarumlaut" unicode="&#x170;" 
d="M883 465q0 -111 -24.5 -201t-76 -153.5t-130.5 -98.5t-187 -35q-109 0 -186.5 35t-129 98.5t-76 154.5t-24.5 202v838h207v-840q0 -49 7 -101.5t28.5 -97.5t63.5 -73.5t110 -28.5q67 0 109 28.5t65 72.5t30 97.5t7 102.5v840h207v-840zM698 1395h-172l142 375h217z
M326 1395h-170l139 375h217z" />
    <glyph glyph-name="uhungarumlaut" unicode="&#x171;" 
d="M49 932h207v-576q0 -108 41 -150t119 -42q114 0 187 93t73 257v418h207v-932h-207v233q-31 -120 -115 -188t-207 -68q-143 0 -224 93.5t-81 285.5v576zM698 1024h-172l142 375h217zM326 1024h-170l139 375h217z" />
    <glyph glyph-name="Uogonek" unicode="&#x172;" 
d="M731 -379q-135 0 -214 59.5t-79 178.5q0 65 37 118h-10q-109 0 -186.5 35t-129 98.5t-76 154.5t-24.5 202v838h207v-840q0 -49 7 -101.5t28.5 -97.5t63.5 -73.5t110 -28.5q67 0 109 28.5t65 72.5t30 97.5t7 102.5v840h207v-840q0 -180 -64.5 -301t-200.5 -164
q-38 -43 -38 -104q0 -64 44 -95.5t107 -31.5v-148z" />
    <glyph glyph-name="uogonek" unicode="&#x173;" 
d="M995 -379q-135 0 -214 59.5t-79 178.5q0 41 14.5 76.5t39.5 64.5h-80v233q-31 -120 -115 -188t-207 -68q-143 0 -224 93.5t-81 285.5v576h207v-576q0 -108 41 -150t119 -42q114 0 187 93t73 257v418h207v-932q-39 -43 -39 -104q0 -64 44 -95.5t107 -31.5v-148z" />
    <glyph glyph-name="Wcircumflex" unicode="&#x174;" 
d="M995 1305l-202 -1305h-213l-115 563l-113 -563h-213l-202 1305h215l120 -879l95 506h198l92 -506l123 879h215zM791 1456l-80 -102l-242 205l-246 -207l-80 100l324 318z" />
    <glyph glyph-name="wcircumflex" unicode="&#x175;" 
d="M961 932l-140 -932h-256l-98 561l-100 -561h-256l-140 932h203l82 -623l100 623h219l101 -623l82 623h203zM791 1085l-80 -102l-242 205l-246 -207l-80 100l324 318z" />
    <glyph glyph-name="Ycircumflex" unicode="&#x176;" 
d="M952 1118h-94l-289 -586v-346h209v-186h-624v186h208v346l-288 586h-94v187h411v-187h-90l166 -383l164 383h-90v187h411v-187zM791 1456l-80 -102l-242 205l-246 -207l-80 100l324 318z" />
    <glyph glyph-name="ycircumflex" unicode="&#x177;" 
d="M924 932l-402 -1114q-45 -121 -131 -166t-205 -45q-41 0 -88 8t-98 27l43 190q43 -16 79 -22.5t64 -6.5q93 0 127 82l37 90l-356 957h215l256 -705l237 705h222zM791 1085l-80 -102l-242 205l-246 -207l-80 100l324 318z" />
    <glyph glyph-name="Ydieresis" unicode="&#x178;" 
d="M952 1118h-94l-289 -586v-346h209v-186h-624v186h208v346l-288 586h-94v187h411v-187h-90l166 -383l164 383h-90v187h411v-187zM778 1424h-252v252h252v-252zM406 1424h-252v252h252v-252z" />
    <glyph glyph-name="Zacute" unicode="&#x179;" 
d="M883 0h-834v184l584 934h-397v-284h-187v471h817v-187l-567 -932h401v287h183v-473zM711 1596l-432 -244l-89 137l404 287z" />
    <glyph glyph-name="zacute" unicode="&#x17a;" 
d="M883 0h-834v184l531 561h-349v-188h-182v375h815v-187l-532 -559h368v185h183v-371zM711 1225l-432 -244l-89 137l404 287z" />
    <glyph glyph-name="Zdotaccent" unicode="&#x17b;" 
d="M883 0h-834v184l584 934h-397v-284h-187v471h817v-187l-567 -932h401v287h183v-473zM592 1424h-252v252h252v-252z" />
    <glyph glyph-name="zdotaccent" unicode="&#x17c;" 
d="M883 0h-834v184l531 561h-349v-188h-182v375h815v-187l-532 -559h368v185h183v-371zM592 1053h-252v252h252v-252z" />
    <glyph glyph-name="Zcaron" unicode="&#x17d;" 
d="M883 0h-834v184l584 934h-397v-284h-187v471h817v-187l-567 -932h401v287h183v-473zM467 1352l-324 317l80 101l246 -207l242 205l80 -103z" />
    <glyph glyph-name="zcaron" unicode="&#x17e;" 
d="M883 0h-834v184l531 561h-349v-188h-182v375h815v-187l-532 -559h368v185h183v-371zM467 981l-324 317l80 101l246 -207l242 205l80 -103z" />
    <glyph glyph-name="longs" unicode="&#x17f;" 
d="M569 186h213v-186h-626v186h206v559h-206v187h206q0 192 118 293.5t319 101.5q30 0 64 -3t69 -7v-182q-60 6 -109 6q-80 0 -129 -11.5t-76.5 -37t-38 -65.5t-10.5 -95v-746z" />
    <glyph glyph-name="florin" unicode="&#x192;" 
d="M362 745h-206v187h206q0 192 118 293.5t319 101.5q30 0 64 -3t69 -7v-182q-60 6 -109 6q-80 0 -129 -11.5t-76.5 -37t-38 -65.5t-10.5 -95h363v-187h-363v-761q0 -191 -117.5 -285t-318.5 -94q-31 0 -64.5 2t-68.5 6v184q57 -6 106 -6q146 0 201 46t55 147v761z" />
    <glyph glyph-name="AEacute" unicode="&#x1fc;" 
d="M395 0v311h-170l-75 -311h-213l364 1305h631v-187h-330v-360h281v-187h-281v-385h330v-186h-537zM268 494h127v516zM711 1600l-432 -244l-89 137l404 287z" />
    <glyph glyph-name="aeacute" unicode="&#x1fd;" 
d="M451 131q-39 -65 -90.5 -109.5t-131.5 -44.5q-61 0 -107 23t-78 60.5t-48 88t-16 105.5q0 80 25.5 141.5t69.5 102.5t101 61.5t121 20.5q22 0 37.5 -1t38.5 -6v60q0 74 -28 105.5t-73 31.5q-34 0 -77 -18.5t-78 -77.5l-125 119q55 86 132 123.5t138 37.5q72 0 128 -28.5
t81 -100.5q35 68 85 98.5t120 30.5q94 0 147.5 -50t81 -130t34.5 -181t7 -206h-387q0 -125 35 -172t80 -47q33 0 55.5 18.5t32.5 61.5l174 -58q-35 -108 -97.5 -160.5t-164.5 -52.5q-29 0 -60.5 7.5t-61.5 25t-56.5 47t-44.5 74.5zM739 569q-4 119 -25.5 160t-60.5 41
q-43 0 -66.5 -45t-27.5 -156h180zM373 391q-13 2 -27 3t-37 1q-49 0 -87 -34.5t-38 -96.5q0 -51 20.5 -74.5t53.5 -23.5q55 0 85 49t30 115v61zM711 1227l-432 -244l-89 137l404 287z" />
    <glyph glyph-name="Oslashacute" unicode="&#x1fe;" 
d="M-33 653q0 131 28 253t87 215t154.5 149.5t230.5 56.5q133 0 226 -52t153 -142l133 133v-222l-61 -61q49 -152 49 -330q0 -131 -27 -252.5t-86 -216t-154.5 -151t-232.5 -56.5q-129 0 -220 48.5t-151 132.5l-137 -138v222l61 61q-28 78 -40.5 167t-12.5 183zM174 653
q0 -47 2 -92t10 -90l514 514q-34 70 -90.5 113t-142.5 43q-143 0 -218 -129t-75 -359zM467 164q88 0 144.5 43t89 112.5t46 157.5t13.5 176q0 41 -3 80t-7 80l-508 -510q34 -63 87.5 -101t137.5 -38zM711 1600l-432 -244l-89 137l404 287z" />
    <glyph glyph-name="oslashacute" unicode="&#x1ff;" 
d="M0 180l39 33q-29 53 -45.5 116.5t-16.5 135.5q0 106 36 196.5t100.5 156t154.5 101t199 35.5q98 0 181 -30.5t147 -83.5l137 114v-202l-39 -33q29 -55 45 -118.5t16 -135.5q0 -109 -34.5 -198t-99 -153.5t-153.5 -100.5t-200 -36q-100 0 -183 30t-147 83l-137 -113v203z
M748 465q0 63 -19 119l-438 -365q35 -26 79 -40.5t97 -14.5q65 0 117.5 22.5t88.5 63.5t55.5 95t19.5 120zM184 465q0 -66 19 -117l436 363q-70 57 -172 57q-66 0 -118 -23.5t-89 -63.5t-56.5 -96.5t-19.5 -119.5zM711 1227l-432 -244l-89 137l404 287z" />
    <glyph glyph-name="Scommaaccent" unicode="&#x218;" 
d="M899 358q0 -90 -30.5 -160.5t-83 -119.5t-125 -75t-154.5 -26q-92 0 -166 33t-127 109v-119h-186v426h186q0 -64 22.5 -113t59.5 -82.5t86 -51t104 -17.5q93 0 150 43t57 137q0 49 -17.5 84t-50 62.5t-79.5 48t-107 43.5q-71 24 -142 54t-127 74t-91 108.5t-35 162.5
q0 86 31.5 150.5t84 108.5t122 66.5t147.5 22.5q90 0 154.5 -38t99.5 -101v117h186v-406h-186q0 115 -60.5 179.5t-162.5 64.5q-90 0 -149.5 -42t-59.5 -118q0 -39 15.5 -66.5t45 -50t74.5 -42t104 -42.5q74 -26 147 -59t131 -81t95 -116.5t37 -167.5zM684 -109l-192 -264
h-191l105 264h278z" />
    <glyph glyph-name="scommaaccent" unicode="&#x219;" 
d="M907 279q0 -91 -41 -148t-105.5 -92t-144 -48.5t-155.5 -13.5q-127 0 -253 37t-218 97l86 170q110 -64 201.5 -90.5t183.5 -26.5q125 0 182 26.5t57 73.5q0 23 -16 38t-53 27.5t-97.5 25t-150.5 26.5q-72 12 -136.5 29.5t-113.5 49.5t-78.5 81t-29.5 123q0 75 38.5 130.5
t101 91.5t140.5 52t156 16q110 0 213.5 -28.5t181.5 -81.5l-82 -160q-78 49 -151.5 66.5t-161.5 17.5q-37 0 -77 -4t-74 -15.5t-56.5 -31t-22.5 -47.5q0 -37 65.5 -60.5t223.5 -46.5q86 -12 157 -30.5t122 -50t79.5 -81t28.5 -122.5zM684 -109l-192 -264h-191l105 264h278z
" />
    <glyph glyph-name="uni021A" unicode="&#x21a;" 
d="M930 829h-185v289h-176v-932h207v-186h-620v186h206v932h-178v-289h-184v476h930v-476zM684 -109l-192 -264h-191l105 264h278z" />
    <glyph glyph-name="uni021B" unicode="&#x21b;" 
d="M942 297q-16 -147 -115.5 -233.5t-248.5 -86.5q-82 0 -150 27t-116 75t-74.5 115.5t-26.5 147.5v403h-211v187h211v373h207v-373h391v-187h-391v-403q0 -90 44 -134t116 -44q88 0 131 51t51 123zM684 -109l-192 -264h-191l105 264h278z" />
    <glyph glyph-name="circumflex" unicode="&#x2c6;" 
d="M791 1085l-80 -102l-242 205l-246 -207l-80 100l324 318z" />
    <glyph glyph-name="caron" unicode="&#x2c7;" 
d="M467 981l-324 317l80 101l246 -207l242 205l80 -103z" />
    <glyph glyph-name="breve" unicode="&#x2d8;" 
d="M795 1167q-136 -135 -328 -135q-193 0 -328 135l121 119q94 -94 207 -94t207 94z" />
    <glyph glyph-name="dotaccent" unicode="&#x2d9;" 
d="M592 1053h-252v252h252v-252z" />
    <glyph glyph-name="ring" unicode="&#x2da;" 
d="M242 1257q0 48 17 88.5t48 71.5t72 48.5t88 17.5t88 -17.5t71.5 -48.5t48 -71.5t17.5 -88.5q0 -47 -17.5 -88t-48 -71.5t-71.5 -48t-88 -17.5t-88 17.5t-72 48t-48 71.5t-17 88zM375 1257q0 -38 26.5 -65t65.5 -27t65.5 27t26.5 65q0 39 -26.5 66t-65.5 27t-65.5 -27
t-26.5 -66z" />
    <glyph glyph-name="ogonek" unicode="&#x2db;" 
d="M993 -379q-135 0 -214 59.5t-79 178.5q0 65 35 116.5t82 79.5l64 -55q-39 -43 -39 -104q0 -64 44 -95.5t107 -31.5v-148z" />
    <glyph glyph-name="tilde" unicode="&#x2dc;" 
d="M874 1245q-47 -96 -114.5 -150.5t-159.5 -54.5q-49 0 -84 18.5t-65.5 40t-60.5 40t-66 18.5q-52 0 -86.5 -31.5t-67.5 -87.5l-121 70q47 94 114.5 148.5t160.5 54.5q49 0 83.5 -18.5t65.5 -40t60.5 -40t66.5 -18.5q51 0 86 31.5t68 89.5z" />
    <glyph glyph-name="hungarumlaut" unicode="&#x2dd;" 
d="M698 1024h-172l142 375h217zM326 1024h-170l139 375h217z" />
    <glyph glyph-name="tonos" unicode="&#x384;" 
d="M618 1675l-83 -557h-162v557h245z" />
    <glyph glyph-name="dieresistonos" unicode="&#x385;" 
d="M932 1118h-252v252h252v-252zM252 1118h-252v252h252v-252zM618 1675l-83 -557h-162v557h245z" />
    <glyph glyph-name="Alphatonos" unicode="&#x386;" 
d="M776 0l-94 311h-432l-92 -311h-217l407 1305h238l407 -1305h-217zM305 494h322l-160 538zM246 1675l-83 -557h-162v557h245z" />
    <glyph glyph-name="Epsilontonos" unicode="&#x388;" 
d="M60 1675l-83 -557h-162v557h245zM883 0h-834v1305h834v-187h-627v-360h489v-187h-489v-385h627v-186z" />
    <glyph glyph-name="Etatonos" unicode="&#x389;" 
d="M60 1675l-83 -557h-162v557h245zM883 0h-207v571h-420v-571h-207v1305h207v-547h420v547h207v-1305z" />
    <glyph glyph-name="Iotatonos" unicode="&#x38a;" 
d="M782 0h-626v186h206v932h-124v187h544v-187h-213v-932h213v-186zM245 1675l-83 -557h-162v557h245z" />
    <glyph glyph-name="Omicrontonos" unicode="&#x38c;" 
d="M60 1675l-83 -557h-162v557h245zM-33 653q0 131 28 253t87 215t154.5 149.5t230.5 56.5t230.5 -56.5t155.5 -149.5t87 -215t27 -253t-27 -252.5t-86 -216t-154.5 -151t-232.5 -56.5t-232.5 56.5t-155 151t-86 216t-26.5 252.5zM174 653q0 -88 13.5 -176t46 -157.5
t89 -112.5t144.5 -43t144.5 43t89 112.5t46 157.5t13.5 176t-13.5 175t-46 157t-90 113t-143.5 43q-143 0 -218 -129t-75 -359z" />
    <glyph glyph-name="Upsilontonos" unicode="&#x38e;" 
d="M952 1118h-94l-289 -586v-346h209v-186h-624v186h208v346l-288 586h-25v187h342v-187h-90l166 -383l164 383h-90v187h411v-187zM59 1675l-83 -557h-162v557h245z" />
    <glyph glyph-name="Omegatonos" unicode="&#x38f;" 
d="M60 1675l-83 -557h-162v557h245zM952 741q0 -145 -52 -281t-177 -229v-45h209v-186h-373v358q55 25 91 67t57.5 94t29.5 110.5t8 111.5q0 70 -15 141.5t-48 129t-86 93.5t-129 36q-74 0 -126 -36t-87 -93.5t-51.5 -129t-16.5 -141.5q0 -53 8.5 -111.5t30 -110.5t57 -94
t91.5 -67v-358h-373v186h213v45q-121 86 -177 223.5t-56 286.5q0 113 31.5 219.5t93 187.5t152.5 130t210 49t209 -49t151.5 -130t93 -187.5t31.5 -219.5z" />
    <glyph glyph-name="iotadieresistonos" unicode="&#x390;" 
d="M782 14q-77 -37 -159 -37q-117 0 -189 59.5t-72 170.5v538h-176v187h383v-664q0 -67 26 -87.5t67 -20.5q22 0 43.5 6t33.5 14zM932 1118h-252v252h252v-252zM252 1118h-252v252h252v-252zM618 1675l-83 -557h-162v557h245z" />
    <glyph glyph-name="Alpha" unicode="&#x391;" 
d="M776 0l-94 311h-432l-92 -311h-217l407 1305h238l407 -1305h-217zM305 494h322l-160 538z" />
    <glyph glyph-name="Beta" unicode="&#x392;" 
d="M930 358q0 -178 -121 -268t-344 -90h-416v1305h393q82 0 161 -13.5t141.5 -50.5t101.5 -103.5t39 -172.5q0 -99 -50.5 -181t-152.5 -118q125 -39 186.5 -109t61.5 -199zM680 938q0 57 -21.5 93t-55.5 55.5t-76 25.5t-85 6h-186v-360h186q43 0 85 6t76 25.5t55.5 55.5
t21.5 93zM725 379q0 98 -68.5 145t-191.5 47h-209v-385h209q123 0 191.5 47.5t68.5 145.5z" />
    <glyph glyph-name="Gamma" unicode="&#x393;" 
d="M49 1305h883v-187h-676v-1118h-207v1305z" />
    <glyph glyph-name="uni0394" unicode="&#x394;" 
d="M-59 0l407 1305h238l407 -1305h-1052zM213 184h508l-254 848z" />
    <glyph glyph-name="Epsilon" unicode="&#x395;" 
d="M883 0h-834v1305h834v-187h-627v-360h489v-187h-489v-385h627v-186z" />
    <glyph glyph-name="Zeta" unicode="&#x396;" 
d="M883 0h-834v184l584 934h-397v-284h-187v471h817v-187l-567 -932h401v287h183v-473z" />
    <glyph glyph-name="Eta" unicode="&#x397;" 
d="M883 0h-207v571h-420v-571h-207v1305h207v-547h420v547h207v-1305z" />
    <glyph glyph-name="Theta" unicode="&#x398;" 
d="M229 758h471v-187h-471v187zM-33 653q0 131 28 253t87 215t154.5 149.5t230.5 56.5t230.5 -56.5t155.5 -149.5t87 -215t27 -253t-27 -252.5t-86 -216t-154.5 -151t-232.5 -56.5t-232.5 56.5t-155 151t-86 216t-26.5 252.5zM174 653q0 -88 13.5 -176t46 -157.5t89 -112.5
t144.5 -43t144.5 43t89 112.5t46 157.5t13.5 176t-13.5 175t-46 157t-90 113t-143.5 43q-143 0 -218 -129t-75 -359z" />
    <glyph glyph-name="Iota" unicode="&#x399;" 
d="M782 0h-626v186h206v932h-206v187h626v-187h-213v-932h213v-186z" />
    <glyph glyph-name="Kappa" unicode="&#x39a;" 
d="M926 0h-242l-342 608l-86 -102v-506h-207v1305h207v-512l406 512h266l-455 -541z" />
    <glyph glyph-name="Lambda" unicode="&#x39b;" 
d="M774 0l-307 1032l-309 -1032h-217l407 1305h236l407 -1305h-217z" />
    <glyph glyph-name="Mu" unicode="&#x39c;" 
d="M883 0h-207v883l-131 -469h-160l-129 469v-883h-207v1305h246l170 -590l170 590h248v-1305z" />
    <glyph glyph-name="Nu" unicode="&#x39d;" 
d="M883 0h-240l-387 946v-946h-207v1305h260l367 -899v899h207v-1305z" />
    <glyph glyph-name="Xi" unicode="&#x39e;" 
d="M0 334h186v-148h559v148h187v-334h-932v334zM745 1118h-559v-149h-186v336h932v-336h-187v149zM186 758h559v-187h-559v187z" />
    <glyph glyph-name="Omicron" unicode="&#x39f;" 
d="M-33 653q0 131 28 253t87 215t154.5 149.5t230.5 56.5t230.5 -56.5t155.5 -149.5t87 -215t27 -253t-27 -252.5t-86 -216t-154.5 -151t-232.5 -56.5t-232.5 56.5t-155 151t-86 216t-26.5 252.5zM174 653q0 -88 13.5 -176t46 -157.5t89 -112.5t144.5 -43t144.5 43t89 112.5
t46 157.5t13.5 176t-13.5 175t-46 157t-90 113t-143.5 43q-143 0 -218 -129t-75 -359z" />
    <glyph glyph-name="Pi" unicode="&#x3a0;" 
d="M883 0h-207v1118h-420v-1118h-207v1305h834v-1305z" />
    <glyph glyph-name="Rho" unicode="&#x3a1;" 
d="M932 915q0 -196 -119 -291.5t-332 -95.5h-225v-528h-207v1305h430q215 0 334 -98.5t119 -291.5zM725 918q0 100 -65.5 150t-178.5 50h-225v-403h225q113 0 178.5 50t65.5 153z" />
    <glyph glyph-name="Sigma" unicode="&#x3a3;" 
d="M883 0h-840v186l295 465l-295 467v187h840v-441h-187v254h-401l287 -467l-287 -465h401v256h187v-442z" />
    <glyph glyph-name="Tau" unicode="&#x3a4;" 
d="M930 829h-185v289h-176v-932h207v-186h-620v186h206v932h-178v-289h-184v476h930v-476z" />
    <glyph glyph-name="Upsilon" unicode="&#x3a5;" 
d="M952 1118h-94l-289 -586v-346h209v-186h-624v186h208v346l-288 586h-94v187h411v-187h-90l166 -383l164 383h-90v187h411v-187z" />
    <glyph glyph-name="Phi" unicode="&#x3a6;" 
d="M956 666q0 -97 -27.5 -177.5t-78.5 -142t-123 -103.5t-160 -57v-186h-205v186q-176 33 -279 161t-103 319q0 94 26.5 174t76.5 142t120.5 104t158.5 59v160h205v-158q88 -17 160 -57.5t123 -104t78.5 -144.5t27.5 -175zM750 666q0 102 -48.5 179t-134.5 107v-573
q86 31 134.5 106.5t48.5 180.5zM186 666q0 -103 45 -178.5t131 -106.5v569q-86 -30 -131 -107t-45 -177z" />
    <glyph glyph-name="Chi" unicode="&#x3a7;" 
d="M952 0h-426v186h74l-137 295l-137 -295h73v-186h-422v186h113l254 473l-250 459h-94v187h414v-187h-84l133 -289l135 289h-82v187h416v-187h-101l-249 -459l254 -473h116v-186z" />
    <glyph glyph-name="Psi" unicode="&#x3a8;" 
d="M932 856q0 -127 -24.5 -220t-72 -157.5t-115 -102.5t-151.5 -50v-326h-207v326q-169 26 -265.5 153t-96.5 377v449h207v-449q0 -125 36 -214t119 -124v787h207v-787q84 35 121 123t37 215v449h205v-449z" />
    <glyph glyph-name="uni03A9" unicode="&#x3a9;" 
d="M952 741q0 -145 -52 -281t-177 -229v-45h209v-186h-373v358q55 25 91 67t57.5 94t29.5 110.5t8 111.5q0 70 -15 141.5t-48 129t-86 93.5t-129 36q-74 0 -126 -36t-87 -93.5t-51.5 -129t-16.5 -141.5q0 -53 8.5 -111.5t30 -110.5t57 -94t91.5 -67v-358h-373v186h213v45
q-121 86 -177 223.5t-56 286.5q0 113 31.5 219.5t93 187.5t152.5 130t210 49t209 -49t151.5 -130t93 -187.5t31.5 -219.5z" />
    <glyph glyph-name="Iotadieresis" unicode="&#x3aa;" 
d="M782 0h-626v186h206v932h-206v187h626v-187h-213v-932h213v-186zM778 1424h-252v252h252v-252zM406 1424h-252v252h252v-252z" />
    <glyph glyph-name="Upsilondieresis" unicode="&#x3ab;" 
d="M952 1118h-94l-289 -586v-346h209v-186h-624v186h208v346l-288 586h-94v187h411v-187h-90l166 -383l164 383h-90v187h411v-187zM778 1424h-252v252h252v-252zM406 1424h-252v252h252v-252z" />
    <glyph glyph-name="alphatonos" unicode="&#x3ac;" 
d="M186 465q0 -53 11.5 -106.5t36 -96.5t61.5 -70.5t90 -27.5q45 0 82 27.5t65.5 70.5t49 96.5t36.5 106.5q-16 53 -36.5 107.5t-49 97.5t-65.5 70.5t-82 27.5q-53 0 -90 -27.5t-61.5 -70.5t-36 -97.5t-11.5 -107.5zM-20 465q0 94 24.5 182t74.5 156.5t125 109.5t175 41
q121 0 190.5 -56t116.5 -165l43 199h209l-131 -467l131 -465h-209l-43 197q-47 -109 -116.5 -164.5t-190.5 -55.5q-100 0 -175 41t-125 109t-74.5 156t-24.5 182zM618 1675l-83 -557h-162v557h245z" />
    <glyph glyph-name="epsilontonos" unicode="&#x3ad;" 
d="M2 676q0 63 35 115.5t95.5 88t143 55t179.5 19.5q153 0 253.5 -50t161.5 -150l-151 -105q-76 119 -266 119q-111 0 -177.5 -29.5t-66.5 -79.5q0 -34 52 -61t157 -27h196v-186h-198q-105 0 -157 -33t-52 -71q0 -54 70.5 -85.5t185.5 -31.5q98 0 171 33.5t101 87.5
l162 -109q-63 -100 -166.5 -149.5t-263.5 -49.5q-100 0 -185 19.5t-147.5 56.5t-98.5 90.5t-36 120.5q0 72 56.5 131.5t148.5 77.5q-99 16 -151 75.5t-52 127.5zM618 1675l-83 -557h-162v557h245z" />
    <glyph glyph-name="etatonos" unicode="&#x3ae;" 
d="M350 774q23 78 95.5 129t160.5 51q144 0 210.5 -93t66.5 -283v-951h-207v951q0 114 -33 152t-84 38q-86 0 -136 -73.5t-50 -215.5v-479h-207v682q0 43 -22.5 64.5t-57.5 21.5q-20 0 -34.5 -3t-31.5 -7l-40 168q32 14 77 21t90 7q39 0 75 -11t63.5 -32.5t45 -56.5
t19.5 -80zM618 1675l-83 -557h-162v557h245z" />
    <glyph glyph-name="iotatonos" unicode="&#x3af;" 
d="M782 14q-77 -37 -159 -37q-117 0 -189 59.5t-72 170.5v538h-176v187h383v-664q0 -67 26 -87.5t67 -20.5q22 0 43.5 6t33.5 14zM618 1675l-83 -557h-162v557h245z" />
    <glyph glyph-name="upsilondieresistonos" unicode="&#x3b0;" 
d="M467 -23q-94 0 -171 24t-132 72t-85 118.5t-30 166.5v574h207v-574q0 -98 62.5 -146t152.5 -48q72 0 121 31.5t78.5 83t42 114t12.5 121.5q0 109 -17.5 197t-58.5 166l199 75q41 -96 62.5 -206.5t21.5 -233.5q0 -94 -26.5 -189.5t-83 -172t-144.5 -125t-211 -48.5z
M932 1118h-252v252h252v-252zM252 1118h-252v252h252v-252zM618 1675l-83 -557h-162v557h245z" />
    <glyph glyph-name="alpha" unicode="&#x3b1;" 
d="M186 465q0 -53 11.5 -106.5t36 -96.5t61.5 -70.5t90 -27.5q45 0 82 27.5t65.5 70.5t49 96.5t36.5 106.5q-16 53 -36.5 107.5t-49 97.5t-65.5 70.5t-82 27.5q-53 0 -90 -27.5t-61.5 -70.5t-36 -97.5t-11.5 -107.5zM-20 465q0 94 24.5 182t74.5 156.5t125 109.5t175 41
q121 0 190.5 -56t116.5 -165l43 199h209l-131 -467l131 -465h-209l-43 197q-47 -109 -116.5 -164.5t-190.5 -55.5q-100 0 -175 41t-125 109t-74.5 156t-24.5 182z" />
    <glyph glyph-name="beta" unicode="&#x3b2;" 
d="M535 -23q-89 0 -154.5 24t-124.5 73v-447h-207v1299q0 88 33 162.5t89 127t134 82t168 29.5q96 0 173 -30.5t129 -80t80 -112t28 -125.5q0 -105 -58.5 -187.5t-167.5 -119.5q134 -41 208.5 -121t74.5 -203q0 -82 -29.5 -149.5t-84 -116.5t-129 -77t-162.5 -28zM498 164
q112 0 173.5 53t61.5 148q0 94 -64.5 150t-197.5 56h-98v187h92q113 0 162 56t49 142q0 29 -10.5 62t-35 60.5t-63.5 45t-94 17.5q-41 0 -80 -13.5t-69.5 -40t-49 -66.5t-18.5 -95v-652q86 -110 242 -110z" />
    <glyph glyph-name="gamma" unicode="&#x3b3;" 
d="M899 932q-16 -119 -43 -244t-66.5 -248t-96 -240.5t-134.5 -224.5v-348h-205v348l-354 957h221l258 -739q86 145 132 334.5t71 404.5h217z" />
    <glyph glyph-name="delta" unicode="&#x3b4;" 
d="M39 406q0 108 69.5 218.5t217.5 202.5q-56 43 -92.5 96.5t-36.5 133.5q0 55 20.5 104t59 86t97 58.5t132.5 21.5t138.5 -16.5t125.5 -57.5l-86 -155q-47 32 -95 45.5t-83 13.5q-47 0 -77 -23.5t-30 -64.5q0 -47 37 -86t91.5 -78t119 -83t118.5 -102t91 -135t37 -179
q0 -97 -31 -174.5t-87 -135t-135 -88.5t-177 -31q-96 0 -175 31t-134.5 88.5t-85 135t-29.5 174.5zM686 406q0 57 -16.5 104t-44 84t-64.5 67.5t-76 57.5q-125 -68 -182 -144.5t-57 -171.5q0 -104 59.5 -171.5t157.5 -67.5q108 0 165.5 67.5t57.5 174.5z" />
    <glyph glyph-name="epsilon" unicode="&#x3b5;" 
d="M2 676q0 63 35 115.5t95.5 88t143 55t179.5 19.5q153 0 253.5 -50t161.5 -150l-151 -105q-76 119 -266 119q-111 0 -177.5 -29.5t-66.5 -79.5q0 -34 52 -61t157 -27h196v-186h-198q-105 0 -157 -33t-52 -71q0 -54 70.5 -85.5t185.5 -31.5q98 0 171 33.5t101 87.5
l162 -109q-63 -100 -166.5 -149.5t-263.5 -49.5q-100 0 -185 19.5t-147.5 56.5t-98.5 90.5t-36 120.5q0 72 56.5 131.5t148.5 77.5q-99 16 -151 75.5t-52 127.5z" />
    <glyph glyph-name="zeta" unicode="&#x3b6;" 
d="M549 2q-258 12 -403.5 129t-145.5 344q0 113 44 207t123 174t185.5 144.5t231.5 117.5h-398v187h746v-187q-201 -59 -339 -131t-224 -154.5t-124 -173t-38 -184.5q0 -274 366 -295q175 -10 258.5 -83.5t83.5 -190.5q0 -51 -18 -100.5t-57 -88.5t-98.5 -63.5t-139.5 -26.5
l-24 178q71 9 101 33.5t30 67.5q0 49 -44 70.5t-116 25.5z" />
    <glyph glyph-name="eta" unicode="&#x3b7;" 
d="M350 774q23 78 95.5 129t160.5 51q144 0 210.5 -93t66.5 -283v-951h-207v951q0 114 -33 152t-84 38q-86 0 -136 -73.5t-50 -215.5v-479h-207v682q0 43 -22.5 64.5t-57.5 21.5q-20 0 -34.5 -3t-31.5 -7l-40 168q32 14 77 21t90 7q39 0 75 -11t63.5 -32.5t45 -56.5
t19.5 -80z" />
    <glyph glyph-name="theta" unicode="&#x3b8;" 
d="M895 651q0 -149 -24.5 -273t-76 -213t-133 -138.5t-194.5 -49.5q-115 0 -194.5 49.5t-132 138.5t-76 213t-23.5 273q0 148 23.5 272t76 214t132 140t194.5 50t195.5 -50t133 -139t76 -214t23.5 -273zM467 164q61 0 103 33.5t68 91t38 130.5t14 152h-444q2 -79 14 -152
t38 -130.5t67 -91t102 -33.5zM467 1143q-59 0 -100 -34t-67 -88t-38 -123t-14 -140h440q-2 71 -14 140t-39 123t-68 88t-100 34z" />
    <glyph glyph-name="iota" unicode="&#x3b9;" 
d="M782 14q-77 -37 -159 -37q-117 0 -189 59.5t-72 170.5v538h-176v187h383v-664q0 -67 26 -87.5t67 -20.5q22 0 43.5 6t33.5 14z" />
    <glyph glyph-name="kappa" unicode="&#x3ba;" 
d="M930 0h-268l-312 377l-94 -96v-281h-207v932h207v-395l373 395h284l-430 -428z" />
    <glyph glyph-name="lambda" unicode="&#x3bb;" 
d="M715 -37l-250 742l-256 -705h-215l356 956l-37 91q-34 83 -127 83q-28 0 -64 -6t-79 -22l-43 190q51 19 98 27t88 8q119 0 206 -46t130 -167l389 -1083z" />
    <glyph glyph-name="uni03BC" unicode="&#x3bc;" 
d="M631 160q-17 -78 -63 -130.5t-132 -52.5q-76 0 -116.5 33t-63.5 86v-469h-207v1305h207v-584q0 -53 10 -89t28.5 -57.5t45.5 -29.5t57 -8q66 0 114 65.5t48 171.5v531h207v-682q0 -47 22.5 -66.5t57.5 -19.5t67 14l27 -176q-20 -10 -48 -17.5t-79 -7.5q-31 0 -61.5 11.5
t-57 34t-44 56.5t-19.5 81z" />
    <glyph glyph-name="nu" unicode="&#x3bd;" 
d="M350 0l-350 932h221l254 -715q86 145 130 322.5t69 392.5h217q-17 -119 -42.5 -240t-64.5 -239.5t-95 -232.5t-134 -220h-205z" />
    <glyph glyph-name="xi" unicode="&#x3be;" 
d="M209 381q0 -64 22.5 -100.5t68.5 -57t114.5 -29t160.5 -14.5q175 -10 259 -83.5t84 -190.5q0 -51 -18.5 -100.5t-57.5 -88.5t-98.5 -63.5t-139.5 -26.5l-24 178q71 9 101 33.5t30 67.5q0 49 -44 70.5t-116 25.5q-129 6 -231.5 27.5t-173 64.5t-107.5 111.5t-37 167.5
q0 108 66.5 186t214.5 115q-60 14 -103 47t-70.5 76t-41 92t-13.5 96q0 78 34 141.5t91.5 107.5t131 68.5t153.5 24.5q78 0 160 -17.5t145 -52.5l-72 -172q-53 29 -109.5 42.5t-123.5 13.5q-88 0 -145.5 -51.5t-57.5 -128.5q0 -89 54.5 -146t177.5 -57h227v-187h-227
q-136 0 -210.5 -58t-74.5 -132z" />
    <glyph glyph-name="omicron" unicode="&#x3bf;" 
d="M952 465q0 -109 -34.5 -198t-99 -153.5t-154 -100.5t-199.5 -36q-109 0 -199 36t-154.5 100.5t-99.5 153.5t-35 198q0 106 35 196.5t99.5 156t154.5 101t199 35.5q110 0 199.5 -35.5t154 -101t99 -156t34.5 -196.5zM745 465q0 63 -19 119.5t-55 96.5t-88.5 63.5
t-117.5 23.5q-66 0 -118 -23.5t-88 -63.5t-55.5 -96.5t-19.5 -119.5q0 -66 19.5 -120t55.5 -95t88 -63.5t118 -22.5q65 0 117.5 22.5t88.5 63.5t55 95t19 120z" />
    <glyph glyph-name="pi" unicode="&#x3c0;" 
d="M766 268q0 -49 24.5 -78.5t75.5 -29.5q29 0 46.5 4t31.5 12l27 -174q-41 -25 -123 -25q-141 0 -215 69t-74 222v477h-186q0 -98 -3 -189t-8.5 -180t-13.5 -181.5t-18 -194.5h-209q12 100 20.5 190.5t13.5 179.5t8 181t3 194h-166v187h932v-187h-166v-477z" />
    <glyph glyph-name="rho" unicode="&#x3c1;" 
d="M932 465q0 -109 -33 -198t-91 -153.5t-136 -100.5t-170 -36q-78 0 -136.5 24t-109.5 73l-2 -447h-205v838q0 92 24.5 180t77 156.5t132 110.5t190.5 42q105 0 190 -35.5t145 -101t92 -156t32 -196.5zM725 465q0 63 -15.5 118.5t-47 96.5t-77.5 64.5t-108 23.5
q-96 0 -158.5 -70.5t-62.5 -232.5v-201q92 -100 229 -100q58 0 103 23.5t75.5 63.5t46 95t15.5 119z" />
    <glyph glyph-name="sigma1" unicode="&#x3c2;" 
d="M209 475q0 -274 366 -295q175 -10 259 -83.5t84 -190.5q0 -51 -18.5 -100.5t-57.5 -88.5t-98.5 -63.5t-139.5 -26.5l-24 178q71 9 101 33.5t30 67.5q0 49 -44 70.5t-116 25.5q-258 12 -403.5 129t-145.5 344q0 105 36 193t100.5 151.5t154.5 99t199 35.5
q116 0 215.5 -33.5t189.5 -123.5l-125 -146q-59 60 -121.5 88.5t-158.5 28.5q-123 0 -203 -79t-80 -214z" />
    <glyph glyph-name="sigma" unicode="&#x3c3;" 
d="M717 745q39 -20 72.5 -53t59 -73.5t40 -88t14.5 -98.5q0 -102 -33.5 -186t-95 -143.5t-146.5 -93.5t-186 -34q-102 0 -187 34t-146.5 97.5t-95 150.5t-33.5 196q0 106 36.5 195t102 151.5t156 97.5t196.5 35h547v-187h-301zM463 745q-135 0 -206 -79.5t-71 -212.5
q0 -62 18.5 -115t52.5 -92t81 -61.5t104 -22.5q64 0 111 21.5t79 58.5t48 86t16 104q0 105 -48 193t-140 120h-45z" />
    <glyph glyph-name="tau" unicode="&#x3c4;" 
d="M0 932h932v-187h-363v-473q0 -67 26 -87.5t67 -20.5q22 0 43.5 6t33.5 14l43 -170q-77 -37 -159 -37q-117 0 -189 59.5t-72 170.5v538h-362v187z" />
    <glyph glyph-name="upsilon" unicode="&#x3c5;" 
d="M467 -23q-94 0 -171 24t-132 72t-85 118.5t-30 166.5v574h207v-574q0 -98 62.5 -146t152.5 -48q72 0 121 31.5t78.5 83t42 114t12.5 121.5q0 109 -17.5 197t-58.5 166l199 75q41 -96 62.5 -206.5t21.5 -233.5q0 -94 -26.5 -189.5t-83 -172t-144.5 -125t-211 -48.5z" />
    <glyph glyph-name="phi" unicode="&#x3c6;" 
d="M567 954q78 0 148.5 -35.5t124 -97t85 -145.5t31.5 -182q0 -211 -104 -343.5t-283 -162.5v-361h-207v361q-88 14 -158.5 56t-120.5 103.5t-76.5 142.5t-26.5 175q0 131 50 245.5t142 184.5l125 -160q-53 -43 -82 -113.5t-29 -156.5q0 -100 45 -177t131 -108v561
q0 105 53.5 159t151.5 54zM569 180q86 33 133.5 114t47.5 200q0 116 -43 187t-95 71q-43 0 -43 -76v-496z" />
    <glyph glyph-name="chi" unicode="&#x3c7;" 
d="M702 -395l-241 477l-230 -455h-239l352 643l-311 598l182 88l246 -497l233 473h238l-354 -662l309 -573z" />
    <glyph glyph-name="psi" unicode="&#x3c8;" 
d="M932 483q0 -127 -24.5 -220t-72 -157.5t-115 -101.5t-151.5 -49v-328h-207v328q-169 27 -265.5 152.5t-96.5 375.5v449h207v-449q0 -125 36 -214t119 -124v973h207v-973q84 35 121 123t37 215v449h205v-449z" />
    <glyph glyph-name="omega" unicode="&#x3c9;" 
d="M569 745v-339q0 -242 93 -242q51 0 66 61.5t15 206.5q0 51 -4 109.5t-12 117t-21.5 113.5t-31.5 105l190 73q21 -47 37.5 -111.5t26.5 -134t16 -140t6 -132.5q0 -100 -14 -184t-46 -143.5t-82 -93.5t-124 -34q-80 0 -137.5 51.5t-79.5 133.5q-23 -82 -80 -133.5
t-137 -51.5q-74 0 -124 34t-82 93.5t-46 143.5t-14 184q0 62 6 132.5t16 140t26.5 134t37.5 111.5l190 -73q-18 -50 -31.5 -105t-21.5 -113.5t-12.5 -117t-4.5 -109.5q0 -145 15.5 -206.5t66.5 -61.5q90 0 90 242v339h207z" />
    <glyph glyph-name="iotadieresis" unicode="&#x3ca;" 
d="M782 14q-77 -37 -159 -37q-117 0 -189 59.5t-72 170.5v538h-176v187h383v-664q0 -67 26 -87.5t67 -20.5q22 0 43.5 6t33.5 14zM778 1121h-252v252h252v-252zM406 1121h-252v252h252v-252z" />
    <glyph glyph-name="upsilondieresis" unicode="&#x3cb;" 
d="M467 -23q-94 0 -171 24t-132 72t-85 118.5t-30 166.5v574h207v-574q0 -98 62.5 -146t152.5 -48q72 0 121 31.5t78.5 83t42 114t12.5 121.5q0 109 -17.5 197t-58.5 166l199 75q41 -96 62.5 -206.5t21.5 -233.5q0 -94 -26.5 -189.5t-83 -172t-144.5 -125t-211 -48.5z
M778 1119h-252v252h252v-252zM406 1119h-252v252h252v-252z" />
    <glyph glyph-name="omicrontonos" unicode="&#x3cc;" 
d="M952 465q0 -109 -34.5 -198t-99 -153.5t-154 -100.5t-199.5 -36q-109 0 -199 36t-154.5 100.5t-99.5 153.5t-35 198q0 106 35 196.5t99.5 156t154.5 101t199 35.5q110 0 199.5 -35.5t154 -101t99 -156t34.5 -196.5zM745 465q0 63 -19 119.5t-55 96.5t-88.5 63.5
t-117.5 23.5q-66 0 -118 -23.5t-88 -63.5t-55.5 -96.5t-19.5 -119.5q0 -66 19.5 -120t55.5 -95t88 -63.5t118 -22.5q65 0 117.5 22.5t88.5 63.5t55 95t19 120zM618 1675l-83 -557h-162v557h245z" />
    <glyph glyph-name="upsilontonos" unicode="&#x3cd;" 
d="M467 -23q-94 0 -171 24t-132 72t-85 118.5t-30 166.5v574h207v-574q0 -98 62.5 -146t152.5 -48q72 0 121 31.5t78.5 83t42 114t12.5 121.5q0 109 -17.5 197t-58.5 166l199 75q41 -96 62.5 -206.5t21.5 -233.5q0 -94 -26.5 -189.5t-83 -172t-144.5 -125t-211 -48.5z
M618 1675l-83 -557h-162v557h245z" />
    <glyph glyph-name="omegatonos" unicode="&#x3ce;" 
d="M569 745v-339q0 -242 93 -242q51 0 66 61.5t15 206.5q0 51 -4 109.5t-12 117t-21.5 113.5t-31.5 105l190 73q21 -47 37.5 -111.5t26.5 -134t16 -140t6 -132.5q0 -100 -14 -184t-46 -143.5t-82 -93.5t-124 -34q-80 0 -137.5 51.5t-79.5 133.5q-23 -82 -80 -133.5
t-137 -51.5q-74 0 -124 34t-82 93.5t-46 143.5t-14 184q0 62 6 132.5t16 140t26.5 134t37.5 111.5l190 -73q-18 -50 -31.5 -105t-21.5 -113.5t-12.5 -117t-4.5 -109.5q0 -145 15.5 -206.5t66.5 -61.5q90 0 90 242v339h207zM618 1675l-83 -557h-162v557h245z" />
    <glyph glyph-name="afii10023" unicode="&#x401;" 
d="M883 0h-834v1305h834v-187h-627v-360h489v-187h-489v-385h627v-186zM778 1424h-252v252h252v-252zM406 1424h-252v252h252v-252z" />
    <glyph glyph-name="afii10051" unicode="&#x402;" 
d="M-137 1305h579v-187h-186v-420q31 121 115 188.5t207 67.5q143 0 224 -93t81 -286v-299q0 -81 -23.5 -138.5t-63.5 -92.5t-93.5 -51.5t-114.5 -16.5q-84 0 -123 25l27 178q14 -8 31.5 -12t45.5 -4q107 0 107 112v299q0 109 -41 151t-119 42q-115 0 -187.5 -93t-72.5 -257
v-418h-207v1118h-186v187z" />
    <glyph glyph-name="afii10052" unicode="&#x403;" 
d="M883 1118h-627v-1118h-207v1305h834v-187zM711 1598l-432 -244l-89 137l404 287z" />
    <glyph glyph-name="afii10053" unicode="&#x404;" 
d="M952 399q-24 -96 -64 -174t-97.5 -133t-134.5 -85t-175 -30q-137 0 -232.5 56.5t-155 151t-86.5 216t-27 252.5q0 87 11.5 171t36.5 159t64 138t93.5 108.5t125 71.5t158.5 26q43 0 87 -11t82 -33.5t66.5 -55.5t40.5 -76v154h187v-444h-187q0 36 -15 85.5t-48 92.5
q-33 45 -82.5 73.5t-118.5 28.5q-74 0 -126.5 -31.5t-86.5 -85t-52.5 -122.5t-25.5 -144h510v-187h-511q5 -79 22 -152.5t51 -130t87.5 -90.5t131.5 -34q127 0 195 81q70 82 110 218z" />
    <glyph glyph-name="afii10054" unicode="&#x405;" 
d="M899 358q0 -90 -30.5 -160.5t-83 -119.5t-125 -75t-154.5 -26q-92 0 -166 33t-127 109v-119h-186v426h186q0 -64 22.5 -113t59.5 -82.5t86 -51t104 -17.5q93 0 150 43t57 137q0 49 -17.5 84t-50 62.5t-79.5 48t-107 43.5q-71 24 -142 54t-127 74t-91 108.5t-35 162.5
q0 86 31.5 150.5t84 108.5t122 66.5t147.5 22.5q90 0 154.5 -38t99.5 -101v117h186v-406h-186q0 115 -60.5 179.5t-162.5 64.5q-90 0 -149.5 -42t-59.5 -118q0 -39 15.5 -66.5t45 -50t74.5 -42t104 -42.5q74 -26 147 -59t131 -81t95 -116.5t37 -167.5z" />
    <glyph glyph-name="afii10055" unicode="&#x406;" 
d="M782 0h-626v186h206v932h-206v187h626v-187h-213v-932h213v-186z" />
    <glyph glyph-name="afii10056" unicode="&#x407;" 
d="M782 0h-626v186h206v932h-206v187h626v-187h-213v-932h213v-186zM778 1424h-252v252h252v-252zM406 1424h-252v252h252v-252z" />
    <glyph glyph-name="afii10057" unicode="&#x408;" 
d="M883 498q0 -248 -105.5 -384.5t-322.5 -136.5q-174 0 -292 91.5t-165 273.5l186 70q29 -117 94.5 -182.5t176.5 -65.5q67 0 110 27.5t67.5 73.5t34 106.5t9.5 126.5v807h207v-807z" />
    <glyph glyph-name="afii10058" unicode="&#x409;" 
d="M819 387q0 102 -51 152.5t-137 50.5h-51v-404h51q86 0 137 50.5t51 150.5zM580 776h49q188 0 292.5 -95t104.5 -292q0 -192 -104.5 -290.5t-292.5 -98.5h-256v1118h-166v-842q0 -81 -21.5 -138.5t-57.5 -92.5t-83 -51.5t-98 -16.5q-49 0 -79 7.5t-52 17.5l32 170
q11 -4 26 -6t28 -2q98 0 98 112v1029h580v-529z" />
    <glyph glyph-name="afii10059" unicode="&#x40a;" 
d="M0 0v1305h207v-529h166v529h207v-529h49q188 0 292.5 -95t104.5 -292q0 -192 -104.5 -290.5t-292.5 -98.5h-256v590h-166v-590h-207zM819 387q0 102 -51 152.5t-137 50.5h-51v-404h51q86 0 137 50.5t51 150.5z" />
    <glyph glyph-name="afii10060" unicode="&#x40b;" 
d="M-137 1305h579v-187h-186v-420q31 121 115 188.5t207 67.5q143 0 224 -93t81 -286v-575h-207v575q0 109 -41 151t-119 42q-115 0 -187.5 -93t-72.5 -257v-418h-207v1118h-186v187z" />
    <glyph glyph-name="afii10061" unicode="&#x40c;" 
d="M926 0h-242l-342 608l-86 -102v-506h-207v1305h207v-512l406 512h266l-455 -541zM711 1598l-432 -244l-89 137l404 287z" />
    <glyph glyph-name="afii10062" unicode="&#x40e;" 
d="M924 1305l-402 -1115q-45 -120 -131 -166.5t-205 -46.5q-41 0 -88 8.5t-98 26.5l43 191q43 -17 79 -23t64 -6q93 0 127 84l37 90l-356 957h215l256 -705l237 705h222zM795 1540q-136 -135 -328 -135q-193 0 -328 135l121 119q94 -94 207 -94t207 94z" />
    <glyph glyph-name="afii10145" unicode="&#x40f;" 
d="M883 0h-314v-319h-207v319h-313v1305h207v-1119h420v1119h207v-1305z" />
    <glyph glyph-name="afii10017" unicode="&#x410;" 
d="M776 0l-94 311h-432l-92 -311h-217l407 1305h238l407 -1305h-217zM305 494h322l-160 538z" />
    <glyph glyph-name="afii10018" unicode="&#x411;" 
d="M883 1118h-627v-342h225q213 0 332 -95t119 -292q0 -192 -119 -290.5t-334 -98.5h-430v1305h834v-187zM725 387q0 102 -65.5 152.5t-178.5 50.5h-225v-404h225q113 0 178.5 50.5t65.5 150.5z" />
    <glyph glyph-name="afii10019" unicode="&#x412;" 
d="M930 358q0 -178 -121 -268t-344 -90h-416v1305h393q82 0 161 -13.5t141.5 -50.5t101.5 -103.5t39 -172.5q0 -99 -50.5 -181t-152.5 -118q125 -39 186.5 -109t61.5 -199zM680 938q0 57 -21.5 93t-55.5 55.5t-76 25.5t-85 6h-186v-360h186q43 0 85 6t76 25.5t55.5 55.5
t21.5 93zM725 379q0 98 -68.5 145t-191.5 47h-209v-385h209q123 0 191.5 47.5t68.5 145.5z" />
    <glyph glyph-name="afii10020" unicode="&#x413;" 
d="M883 1118h-627v-1118h-207v1305h834v-187z" />
    <glyph glyph-name="afii10021" unicode="&#x414;" 
d="M0 186q57 45 93 90.5t56.5 127t28.5 218t8 361.5v322h594v-1119h152v-505h-187v319h-559v-319h-186v505zM393 983q0 -176 -4 -302t-19.5 -218t-47 -157.5t-89.5 -119.5h340v932h-180v-135z" />
    <glyph glyph-name="afii10022" unicode="&#x415;" 
d="M883 0h-834v1305h834v-187h-627v-360h489v-187h-489v-385h627v-186z" />
    <glyph glyph-name="afii10024" unicode="&#x416;" 
d="M362 0v518l-34 60l-236 -578h-201l330 737l-330 568h207l264 -519v519h207v-519l265 519h206l-329 -568l329 -737h-200l-236 578l-35 -60v-518h-207z" />
    <glyph glyph-name="afii10025" unicode="&#x417;" 
d="M920 354q0 -86 -35 -155.5t-93.5 -118.5t-135 -76t-160.5 -27q-94 0 -176 25.5t-144.5 78.5t-101.5 134.5t-47 194.5l194 32q10 -129 84 -204q74 -74 191 -74q99 0 157 52q60 52 60 138q0 107 -79.5 162t-232.5 55v187q67 0 120 13.5t90 40t57 66t20 92.5
q0 36 -12.5 67.5t-36.5 54.5t-60 36t-83 13q-62 0 -109 -21.5t-79.5 -59.5t-49 -89t-16.5 -109h-187v443h187v-154q12 43 40.5 76t66.5 55.5t82 33.5t87 11q76 0 144 -25.5t120 -72t82.5 -112.5t30.5 -147q0 -60 -17.5 -111.5t-50.5 -90t-80.5 -62.5t-107.5 -28
q67 -6 119.5 -35t88.5 -73t54.5 -100t18.5 -116z" />
    <glyph glyph-name="afii10026" unicode="&#x418;" 
d="M49 1305h207v-899l367 899h260v-1305h-207v946l-387 -946h-240v1305z" />
    <glyph glyph-name="afii10027" unicode="&#x419;" 
d="M49 1305h207v-899l367 899h260v-1305h-207v946l-387 -946h-240v1305zM795 1538q-136 -135 -328 -135q-193 0 -328 135l121 119q94 -94 207 -94t207 94z" />
    <glyph glyph-name="afii10028" unicode="&#x41a;" 
d="M926 0h-242l-342 608l-86 -102v-506h-207v1305h207v-512l406 512h266l-455 -541z" />
    <glyph glyph-name="afii10029" unicode="&#x41b;" 
d="M883 1305v-1305h-207v1118h-352v-842q0 -81 -24 -138.5t-63.5 -92.5t-93 -51.5t-114.5 -16.5q-84 0 -123 25l26 178q15 -8 32.5 -12t45.5 -4q107 0 107 112v1029h766z" />
    <glyph glyph-name="afii10030" unicode="&#x41c;" 
d="M883 0h-207v883l-131 -469h-160l-129 469v-883h-207v1305h246l170 -590l170 590h248v-1305z" />
    <glyph glyph-name="afii10031" unicode="&#x41d;" 
d="M883 0h-207v571h-420v-571h-207v1305h207v-547h420v547h207v-1305z" />
    <glyph glyph-name="afii10032" unicode="&#x41e;" 
d="M-33 653q0 131 28 253t87 215t154.5 149.5t230.5 56.5t230.5 -56.5t155.5 -149.5t87 -215t27 -253t-27 -252.5t-86 -216t-154.5 -151t-232.5 -56.5t-232.5 56.5t-155 151t-86 216t-26.5 252.5zM174 653q0 -88 13.5 -176t46 -157.5t89 -112.5t144.5 -43t144.5 43t89 112.5
t46 157.5t13.5 176t-13.5 175t-46 157t-90 113t-143.5 43q-143 0 -218 -129t-75 -359z" />
    <glyph glyph-name="afii10033" unicode="&#x41f;" 
d="M883 0h-207v1118h-420v-1118h-207v1305h834v-1305z" />
    <glyph glyph-name="afii10034" unicode="&#x420;" 
d="M932 915q0 -196 -119 -291.5t-332 -95.5h-225v-528h-207v1305h430q215 0 334 -98.5t119 -291.5zM725 918q0 100 -65.5 150t-178.5 50h-225v-403h225q113 0 178.5 50t65.5 153z" />
    <glyph glyph-name="afii10035" unicode="&#x421;" 
d="M952 399q-24 -96 -64 -174t-97.5 -133t-134 -85t-175.5 -30q-137 0 -232 56.5t-155.5 151t-87 216t-26.5 252.5t26.5 253t86 215t151.5 149.5t225 56.5q43 0 87 -11t82 -33.5t66.5 -55.5t40.5 -76v154h187v-494h-187q0 61 -15 120.5t-48 105.5t-83 75t-118 29
q-88 0 -144 -43t-90 -113t-47.5 -157t-13.5 -175t13.5 -176t46.5 -157.5t90 -112.5t145 -43q127 0 195.5 81t109.5 218z" />
    <glyph glyph-name="afii10036" unicode="&#x422;" 
d="M930 829h-185v289h-176v-932h207v-186h-620v186h206v932h-178v-289h-184v476h930v-476z" />
    <glyph glyph-name="afii10037" unicode="&#x423;" 
d="M924 1305l-402 -1115q-45 -120 -131 -166.5t-205 -46.5q-41 0 -88 8.5t-98 26.5l43 191q43 -17 79 -23t64 -6q93 0 127 84l37 90l-356 957h215l256 -705l237 705h222z" />
    <glyph glyph-name="afii10038" unicode="&#x424;" 
d="M956 666q0 -97 -27.5 -177.5t-78.5 -142t-123 -103.5t-160 -57v-186h-205v186q-176 33 -279 161t-103 319q0 94 26.5 174t76.5 142t120.5 104t158.5 59v160h205v-158q88 -17 160 -57.5t123 -104t78.5 -144.5t27.5 -175zM750 666q0 102 -48.5 179t-134.5 107v-573
q86 31 134.5 106.5t48.5 180.5zM186 666q0 -103 45 -178.5t131 -106.5v569q-86 -30 -131 -107t-45 -177z" />
    <glyph glyph-name="afii10039" unicode="&#x425;" 
d="M952 0h-426v186h74l-137 295l-137 -295h73v-186h-422v186h113l254 473l-250 459h-94v187h414v-187h-84l133 -289l135 289h-82v187h416v-187h-101l-249 -459l254 -473h116v-186z" />
    <glyph glyph-name="afii10040" unicode="&#x426;" 
d="M1055 186v-505h-187v319h-819v1305h207v-1119h420v1119h207v-1119h172z" />
    <glyph glyph-name="afii10041" unicode="&#x427;" 
d="M49 1305h207v-576q0 -108 41 -150t119 -42q114 0 187 93t73 257v418h207v-1305h-207v606q-31 -121 -115 -188.5t-207 -67.5q-143 0 -224 93.5t-81 285.5v576z" />
    <glyph glyph-name="afii10042" unicode="&#x428;" 
d="M362 1305h207v-1119h176v1119h207v-1305h-972v1305h206v-1119h176v1119z" />
    <glyph glyph-name="afii10043" unicode="&#x429;" 
d="M-20 0v1305h206v-1119h176v1119h207v-1119h176v1119h207v-1119h166v-505h-186v319h-952z" />
    <glyph glyph-name="afii10044" unicode="&#x42a;" 
d="M0 1305h373v-529h157q191 0 296.5 -95t105.5 -292q0 -192 -105.5 -290.5t-298.5 -98.5h-362v1118h-166v187zM725 387q0 102 -52 152.5t-138 50.5h-162v-404h162q86 0 138 50.5t52 150.5z" />
    <glyph glyph-name="afii10045" unicode="&#x42b;" 
d="M633 389q0 -192 -104.5 -290.5t-292.5 -98.5h-256v1305h206v-529h50q188 0 292.5 -95t104.5 -292zM426 387q0 102 -51 152.5t-137 50.5h-52v-404h52q86 0 137 50.5t51 150.5zM745 1305h207v-1305h-207v1305z" />
    <glyph glyph-name="afii10046" unicode="&#x42c;" 
d="M932 389q0 -192 -119 -290.5t-334 -98.5h-430v1305h207v-529h225q213 0 332 -95t119 -292zM725 387q0 102 -65.5 152.5t-178.5 50.5h-225v-404h225q113 0 178.5 50.5t65.5 150.5z" />
    <glyph glyph-name="afii10047" unicode="&#x42d;" 
d="M146 463q40 -136 110 -218q68 -81 195 -81q78 0 131.5 34t87.5 90.5t51 130t22 152.5h-511v187h510q-7 75 -25.5 144t-52.5 122.5t-86.5 85t-126.5 31.5q-69 0 -118.5 -28.5t-82.5 -73.5q-33 -43 -48 -92.5t-15 -85.5h-187v444h187v-154q12 43 40.5 76t66.5 55.5t82 33.5
t87 11q88 0 158.5 -26t125 -71.5t93.5 -108.5t64 -138t36.5 -159t11.5 -171q0 -131 -27 -252.5t-86.5 -216t-155 -151t-232.5 -56.5q-98 0 -175 30t-134.5 85t-97.5 133t-64 174z" />
    <glyph glyph-name="afii10048" unicode="&#x42e;" 
d="M-20 1305h206v-547h166q23 569 303 569q306 0 306 -676q0 -674 -306 -674q-286 0 -305 594h-164v-571h-206v1305zM557 651q0 -108 4 -198.5t14.5 -155t30 -99t49.5 -34.5q29 0 48.5 34.5t30.5 99t15.5 155t4.5 198.5q0 109 -4.5 199t-15.5 154.5t-30.5 100.5t-48.5 36
q-30 0 -49.5 -36t-30 -100.5t-14.5 -154.5t-4 -199z" />
    <glyph glyph-name="afii10049" unicode="&#x42f;" 
d="M354 539q-75 10 -139.5 37.5t-113 74.5t-75 112.5t-26.5 151.5q0 193 119 291.5t334 98.5h430v-1305h-207v528h-94l-338 -528h-262zM207 918q0 -103 65.5 -153t180.5 -50h223v403h-223q-115 0 -180.5 -50t-65.5 -150z" />
    <glyph glyph-name="afii10065" unicode="&#x430;" 
d="M-4 268q0 82 44 143.5t115.5 102.5t164 61.5t188.5 20.5q53 0 91 -2t77 -6v37q0 73 -56.5 109t-148.5 36q-84 0 -171 -23.5t-165 -68.5l-84 162q92 53 197.5 83.5t222.5 30.5q76 0 149.5 -17t132 -56t93.5 -101.5t35 -154.5v-625h-205v137q-49 -76 -144.5 -118
t-205.5 -42q-68 0 -128.5 18.5t-104.5 55.5t-70.5 91.5t-26.5 125.5zM379 162q61 0 114.5 15.5t94.5 43t64.5 66.5t23.5 86v35q-49 8 -92 9t-76 1q-152 0 -229.5 -40t-77.5 -99q0 -117 178 -117z" />
    <glyph glyph-name="afii10066" unicode="&#x431;" 
d="M219 444q0 -127 67.5 -203.5t184.5 -76.5q111 0 182.5 76.5t71.5 203.5q0 129 -67.5 205t-186.5 76q-127 0 -189.5 -76t-62.5 -205zM0 651q0 150 31.5 274t89 213t136.5 139t175 50q47 0 78 -9t55.5 -21.5t46 -21.5t52.5 -9q41 0 69.5 14t69.5 47l94 -137
q-37 -45 -99.5 -78t-133.5 -33q-48 0 -76.5 9.5t-52 21.5t-46 21.5t-57.5 9.5q-47 0 -87 -23.5t-70.5 -74t-48 -129t-17.5 -191.5q39 92 109.5 140t154.5 48q98 0 182 -29.5t145.5 -88t96.5 -145.5t35 -204q0 -98 -35 -184t-96.5 -148.5t-145.5 -98.5t-182 -36
q-235 0 -354 164t-119 510z" />
    <glyph glyph-name="afii10067" unicode="&#x432;" 
d="M930 256q0 -127 -93.5 -191.5t-267.5 -64.5h-520v932h483q64 0 127.5 -9.5t113.5 -36t81 -74.5t31 -124q0 -70 -44 -126t-136 -83q114 -16 169.5 -73.5t55.5 -149.5zM680 664q0 30 -12.5 48.5t-33 29t-47 13.5t-52.5 3h-279v-187h279q26 0 52.5 3.5t47 13.5t33 28.5
t12.5 47.5zM725 287q0 49 -41 73.5t-115 24.5h-313v-199h313q74 0 115 25t41 76z" />
    <glyph glyph-name="afii10068" unicode="&#x433;" 
d="M49 932h883v-174h-676v-758h-207v932z" />
    <glyph glyph-name="afii10069" unicode="&#x434;" 
d="M0 186q57 31 93 71t56.5 101.5t28.5 149.5t8 211v213h594v-746h152v-505h-187v319h-559v-319h-186v505zM393 678q0 -57 -4 -129t-19.5 -141.5t-47 -129t-89.5 -92.5h340v572h-180v-80z" />
    <glyph glyph-name="afii10070" unicode="&#x435;" 
d="M190 387q15 -96 91.5 -159.5t205.5 -63.5q101 0 175.5 31.5t128.5 83.5l106 -146q-90 -90 -190.5 -123t-219.5 -33q-108 0 -201 36t-161 100.5t-106.5 153.5t-38.5 198q0 106 35.5 195.5t100 155t154.5 102t199 36.5q113 0 205 -38.5t157.5 -111.5t102.5 -178.5
t37 -238.5h-781zM737 569q-16 90 -93 144.5t-175 54.5t-176 -54.5t-94 -144.5h538z" />
    <glyph glyph-name="afii10072" unicode="&#x436;" 
d="M362 0v342l-34 43l-215 -385h-222l310 524l-310 408h228l243 -348v348h207v-348l254 348h217l-309 -408l309 -524h-211l-225 385l-35 -43v-342h-207z" />
    <glyph glyph-name="afii10073" unicode="&#x437;" 
d="M893 676q0 -68 -52.5 -127.5t-150.5 -75.5q92 -18 148.5 -77.5t56.5 -131.5q0 -67 -36 -120.5t-98.5 -90.5t-147.5 -56.5t-185 -19.5q-160 0 -263.5 49.5t-166.5 149.5l162 109q28 -54 101 -87.5t171 -33.5q115 0 185.5 31.5t70.5 85.5q0 38 -52 71t-157 33h-148v186h146
q105 0 157 27t52 61q0 50 -66.5 79.5t-177.5 29.5q-190 0 -266 -119l-151 105q61 100 161.5 150t253.5 50q97 0 179.5 -19.5t143 -55t95.5 -88t35 -115.5z" />
    <glyph glyph-name="afii10074" unicode="&#x438;" 
d="M49 932h207v-641l367 641h260v-932h-207v678l-387 -678h-240v932z" />
    <glyph glyph-name="afii10075" unicode="&#x439;" 
d="M49 932h207v-641l367 641h260v-932h-207v678l-387 -678h-240v932zM795 1167q-136 -135 -328 -135q-193 0 -328 135l121 119q94 -94 207 -94t207 94z" />
    <glyph glyph-name="afii10076" unicode="&#x43a;" 
d="M930 0h-268l-312 377l-94 -96v-281h-207v932h207v-395l373 395h284l-430 -428z" />
    <glyph glyph-name="afii10077" unicode="&#x43b;" 
d="M883 932v-932h-207v745h-352v-469q0 -81 -24 -138.5t-63.5 -92.5t-93 -51.5t-114.5 -16.5q-84 0 -123 25l26 178q15 -8 32.5 -12t45.5 -4q107 0 107 112v656h766z" />
    <glyph glyph-name="afii10078" unicode="&#x43c;" 
d="M883 0h-207v631l-131 -336h-160l-129 336v-631h-207v932h246l170 -422l170 422h248v-932z" />
    <glyph glyph-name="afii10079" unicode="&#x43d;" 
d="M883 0h-207v385h-420v-385h-207v932h207v-361h420v361h207v-932z" />
    <glyph glyph-name="afii10080" unicode="&#x43e;" 
d="M956 465q0 -109 -34.5 -198t-99 -153.5t-154.5 -100.5t-201 -36q-109 0 -199 36t-154.5 100.5t-99 153.5t-34.5 198q0 106 34.5 196.5t99 156t154.5 101t199 35.5q111 0 201 -35.5t154.5 -101t99 -156t34.5 -196.5zM750 465q0 63 -19.5 119.5t-56.5 96.5t-89.5 63.5
t-117.5 23.5q-66 0 -118 -23.5t-88 -63.5t-55.5 -96.5t-19.5 -119.5q0 -66 19.5 -120t55.5 -95t88 -63.5t118 -22.5q65 0 117.5 22.5t89.5 63.5t56.5 95t19.5 120z" />
    <glyph glyph-name="afii10081" unicode="&#x43f;" 
d="M883 0h-207v745h-420v-745h-207v932h834v-932z" />
    <glyph glyph-name="afii10082" unicode="&#x440;" 
d="M49 932h207v-84q59 53 119.5 79.5t138.5 26.5q90 0 167 -36.5t132 -101t87 -155t32 -196.5q0 -107 -32 -197t-87 -154.5t-132 -100.5t-167 -36q-78 0 -138.5 28t-119.5 81v-459h-207v1305zM256 250q37 -41 94.5 -63.5t110.5 -22.5q117 0 190.5 83t73.5 218t-73.5 219
t-190.5 84q-53 0 -110.5 -21.5t-94.5 -62.5v-434z" />
    <glyph glyph-name="afii10083" unicode="&#x441;" 
d="M897 133q-90 -90 -189.5 -123t-215.5 -33q-117 0 -212.5 35t-162 98.5t-102 153.5t-35.5 201q0 106 35.5 196.5t96 155t142.5 101t174 36.5q96 0 167 -40t103 -117v135h185v-434h-185q0 123 -67.5 196.5t-175.5 73.5q-43 0 -90.5 -17.5t-87 -54.5t-65.5 -94t-26 -137
q0 -78 25 -134.5t65.5 -93t96 -55t114.5 -18.5q101 0 175.5 31.5t128.5 83.5z" />
    <glyph glyph-name="afii10084" unicode="&#x442;" 
d="M930 457h-185v288h-176v-559h207v-186h-620v186h206v559h-178v-288h-184v475h930v-475z" />
    <glyph glyph-name="afii10085" unicode="&#x443;" 
d="M924 932l-402 -1114q-45 -121 -131 -167t-205 -46q-41 0 -88 8t-98 27l43 190q43 -16 79 -22.5t64 -6.5q93 0 127 84l37 90l-356 957h215l256 -705l237 705h222z" />
    <glyph glyph-name="afii10086" unicode="&#x444;" 
d="M362 715q-16 37 -35.5 50t-41.5 13q-23 0 -43.5 -15t-34.5 -51t-22.5 -96.5t-8.5 -148.5q0 -90 8.5 -149.5t22.5 -96.5t34.5 -52t43.5 -15q22 0 41.5 13t35.5 50v498zM362 -373v436q-16 -43 -53 -64.5t-78 -21.5q-55 0 -102 31t-83 92.5t-56.5 152.5t-20.5 214t20.5 214
t56.5 151.5t83 91t102 30.5q41 0 78 -21.5t53 -64.5v437h207v-437q17 43 53.5 64.5t77.5 21.5q56 0 103 -30.5t83 -91t56.5 -151.5t20.5 -214t-20.5 -214t-56.5 -152.5t-83 -92.5t-103 -31q-41 0 -77.5 21.5t-53.5 64.5v-436h-207zM569 217q17 -37 36.5 -50t41.5 -13
q23 0 43.5 15t34.5 52t22.5 96.5t8.5 149.5q0 88 -8.5 148.5t-22.5 96.5t-34.5 51t-43.5 15q-22 0 -41.5 -13t-36.5 -50v-498z" />
    <glyph glyph-name="afii10087" unicode="&#x445;" 
d="M954 0h-442v186h82l-127 195l-125 -195h76v-186h-438v186h135l209 287l-199 272h-125v187h420v-187h-66l113 -180l115 180h-74v187h424v-187h-121l-199 -272l209 -287h133v-186z" />
    <glyph glyph-name="afii10088" unicode="&#x446;" 
d="M1055 186v-505h-187v319h-819v932h207v-746h420v746h207v-746h172z" />
    <glyph glyph-name="afii10089" unicode="&#x447;" 
d="M49 932h207v-389q0 -109 41 -151t119 -42q114 0 187 93.5t73 256.5v232h207v-932h-207v420q-31 -121 -115 -188.5t-207 -67.5q-143 0 -224 93t-81 286v389z" />
    <glyph glyph-name="afii10090" unicode="&#x448;" 
d="M362 932h207v-746h156v746h207v-932h-932v932h207v-746h155v746z" />
    <glyph glyph-name="afii10091" unicode="&#x449;" 
d="M0 0v932h207v-746h155v746h207v-746h156v746h207v-746h186v-505h-186v319h-932z" />
    <glyph glyph-name="afii10092" unicode="&#x44a;" 
d="M0 932h373v-361h219q160 0 250 -70.5t90 -213.5q0 -142 -90 -214.5t-252 -72.5h-424v745h-166v187zM725 285q0 51 -36 75.5t-97 24.5h-219v-199h219q61 0 97 25t36 74z" />
    <glyph glyph-name="afii10093" unicode="&#x44b;" 
d="M633 287q0 -142 -90 -214.5t-252 -72.5h-311v932h206v-361h107q160 0 250 -70.5t90 -213.5zM426 285q0 51 -36 75.5t-97 24.5h-107v-199h107q61 0 97 25t36 74zM745 932h207v-932h-207v932z" />
    <glyph glyph-name="afii10094" unicode="&#x44c;" 
d="M932 287q0 -142 -90 -214.5t-252 -72.5h-541v932h207v-361h336q160 0 250 -70.5t90 -213.5zM725 285q0 51 -36 75.5t-97 24.5h-336v-199h336q61 0 97 25t36 74z" />
    <glyph glyph-name="afii10095" unicode="&#x44d;" 
d="M932 465q0 -111 -36 -201t-102.5 -153.5t-161.5 -98.5t-212 -35t-216.5 33t-189.5 123l107 146q53 -52 128 -83.5t175 -31.5q102 0 185 53t108 168h-445v186h437q-29 99 -108 148t-177 49q-100 0 -175 -31.5t-128 -83.5l-107 146q90 90 189.5 122.5t216.5 32.5t212 -34.5
t161.5 -99t102.5 -155t36 -200.5z" />
    <glyph glyph-name="afii10096" unicode="&#x44e;" 
d="M-20 932h206v-361h168q31 383 301 383q306 0 306 -489q0 -488 -306 -488q-278 0 -303 408h-166v-385h-206v932zM557 465q0 -135 18.5 -218t79.5 -83q60 0 79.5 83t19.5 218q0 67 -4.5 122.5t-15.5 95.5t-30.5 62.5t-48.5 22.5q-30 0 -49.5 -22.5t-30 -62.5t-14.5 -95.5
t-4 -122.5z" />
    <glyph glyph-name="afii10097" unicode="&#x44f;" 
d="M334 360q-158 2 -246 73t-88 212t90 214t252 73h541v-932h-207v360h-84l-328 -360h-276zM207 647q0 -51 36 -75.5t97 -24.5h336v198h-336q-61 0 -97 -24.5t-36 -73.5z" />
    <glyph glyph-name="afii10071" unicode="&#x451;" 
d="M190 387q15 -96 91.5 -159.5t205.5 -63.5q101 0 175.5 31.5t128.5 83.5l106 -146q-90 -90 -190.5 -123t-219.5 -33q-108 0 -201 36t-161 100.5t-106.5 153.5t-38.5 198q0 106 35.5 195.5t100 155t154.5 102t199 36.5q113 0 205 -38.5t157.5 -111.5t102.5 -178.5
t37 -238.5h-781zM737 569q-16 90 -93 144.5t-175 54.5t-176 -54.5t-94 -144.5h538zM778 1053h-252v252h252v-252zM406 1053h-252v252h252v-252z" />
    <glyph glyph-name="afii10099" unicode="&#x452;" 
d="M-137 1118h186v187h207v-187h117v-186h-117v-234q31 121 115 188.5t207 67.5q143 0 224 -93t81 -286v-671q0 -82 -23.5 -139.5t-63.5 -92t-93.5 -51t-114.5 -16.5q-84 0 -123 24l27 178q14 -8 31.5 -12t45.5 -4q107 0 107 113v671q0 109 -41 151t-119 42
q-115 0 -187.5 -93t-72.5 -257v-418h-207v932h-186v186z" />
    <glyph glyph-name="afii10100" unicode="&#x453;" 
d="M49 932h883v-174h-676v-758h-207v932zM711 1225l-432 -244l-89 137l404 287z" />
    <glyph glyph-name="afii10101" unicode="&#x454;" 
d="M0 465q0 110 36 200.5t102.5 155t161.5 99t212 34.5t216 -32.5t190 -122.5l-107 -146q-53 52 -128 83.5t-175 31.5q-98 0 -177 -49t-110 -148h438v-186h-444q12 -57 40 -98t66.5 -69t87 -41t99.5 -13q100 0 175 31.5t128 83.5l107 -146q-91 -90 -190 -123t-216 -33
t-212 35t-161.5 98.5t-102.5 153.5t-36 201z" />
    <glyph glyph-name="afii10102" unicode="&#x455;" 
d="M907 279q0 -91 -41 -148t-105.5 -92t-144 -48.5t-155.5 -13.5q-127 0 -253 37t-218 97l86 170q110 -64 201.5 -90.5t183.5 -26.5q125 0 182 26.5t57 73.5q0 23 -16 38t-53 27.5t-97.5 25t-150.5 26.5q-72 12 -136.5 29.5t-113.5 49.5t-78.5 81t-29.5 123q0 75 38.5 130.5
t101 91.5t140.5 52t156 16q110 0 213.5 -28.5t181.5 -81.5l-82 -160q-78 49 -151.5 66.5t-161.5 17.5q-37 0 -77 -4t-74 -15.5t-56.5 -31t-22.5 -47.5q0 -37 65.5 -60.5t223.5 -46.5q86 -12 157 -30.5t122 -50t79.5 -81t28.5 -122.5z" />
    <glyph glyph-name="afii10103" unicode="&#x456;" 
d="M592 1053h-252v252h252v-252zM782 0h-626v186h206v559h-206v187h413v-746h213v-186z" />
    <glyph glyph-name="afii10104" unicode="&#x457;" 
d="M782 0h-626v186h206v559h-206v187h413v-746h213v-186zM778 1053h-252v252h252v-252zM406 1053h-252v252h252v-252z" />
    <glyph glyph-name="afii10105" unicode="&#x458;" 
d="M344 -395q-213 0 -344 159l123 138q47 -56 100 -83.5t121 -27.5q105 0 155 57.5t50 151.5v745h-211v187h418v-932q0 -90 -30 -163t-84 -125t-130 -79.5t-168 -27.5zM778 1053h-252v252h252v-252z" />
    <glyph glyph-name="afii10106" unicode="&#x459;" 
d="M580 571h106q160 0 250 -70.5t90 -213.5q0 -142 -90 -214.5t-252 -72.5h-311v745h-166v-469q0 -81 -21.5 -138.5t-57.5 -92.5t-83 -51.5t-98 -16.5q-49 0 -79 7.5t-52 17.5l32 170q11 -4 26 -6t28 -2q98 0 98 112v656h580v-361zM819 285q0 51 -35.5 75.5t-97.5 24.5h-106
v-199h106q62 0 97.5 25t35.5 74z" />
    <glyph glyph-name="afii10107" unicode="&#x45a;" 
d="M0 0v932h207v-361h166v361h207v-361h106q160 0 250 -70.5t90 -213.5q0 -142 -90 -214.5t-252 -72.5h-311v385h-166v-385h-207zM819 285q0 51 -35.5 75.5t-97.5 24.5h-106v-199h106q62 0 97.5 25t35.5 74z" />
    <glyph glyph-name="afii10108" unicode="&#x45b;" 
d="M-137 1118h186v187h207v-187h117v-186h-117v-234q31 121 115 188.5t207 67.5q143 0 224 -93t81 -286v-575h-207v575q0 109 -41 151t-119 42q-115 0 -187.5 -93t-72.5 -257v-418h-207v932h-186v186z" />
    <glyph glyph-name="afii10109" unicode="&#x45c;" 
d="M930 0h-268l-312 377l-94 -96v-281h-207v932h207v-395l373 395h284l-430 -428zM711 1225l-432 -244l-89 137l404 287z" />
    <glyph glyph-name="afii10110" unicode="&#x45e;" 
d="M924 932l-402 -1114q-45 -121 -131 -167t-205 -46q-41 0 -88 8t-98 27l43 190q43 -16 79 -22.5t64 -6.5q93 0 127 84l37 90l-356 957h215l256 -705l237 705h222zM795 1167q-136 -135 -328 -135q-193 0 -328 135l121 119q94 -94 207 -94t207 94z" />
    <glyph glyph-name="afii10193" unicode="&#x45f;" 
d="M883 0h-314v-319h-207v319h-313v932h207v-746h420v746h207v-932z" />
    <glyph glyph-name="afii10050" unicode="&#x490;" 
d="M745 1491h187v-373h-676v-1118h-207v1305h696v186z" />
    <glyph glyph-name="afii10098" unicode="&#x491;" 
d="M745 1118h187v-373h-676v-745h-207v932h696v186z" />
    <glyph glyph-name="uni1E02" unicode="&#x1e02;" 
d="M930 358q0 -178 -121 -268t-344 -90h-416v1305h393q82 0 161 -13.5t141.5 -50.5t101.5 -103.5t39 -172.5q0 -99 -50.5 -181t-152.5 -118q125 -39 186.5 -109t61.5 -199zM680 938q0 57 -21.5 93t-55.5 55.5t-76 25.5t-85 6h-186v-360h186q43 0 85 6t76 25.5t55.5 55.5
t21.5 93zM725 379q0 98 -68.5 145t-191.5 47h-209v-385h209q123 0 191.5 47.5t68.5 145.5zM592 1424h-252v252h252v-252z" />
    <glyph glyph-name="uni1E03" unicode="&#x1e03;" 
d="M49 1305h207v-457q59 53 119.5 79.5t138.5 26.5q90 0 167 -36.5t132 -101t87 -155t32 -196.5q0 -107 -32 -197t-87 -154.5t-132 -100.5t-167 -36q-78 0 -138.5 28t-119.5 81v-86h-207v1305zM256 248q37 -41 94.5 -62.5t110.5 -21.5q117 0 190.5 83t73.5 218t-73.5 219
t-190.5 84q-53 0 -110.5 -21.5t-94.5 -62.5v-436zM592 1424h-252v252h252v-252z" />
    <glyph glyph-name="uni1E0A" unicode="&#x1e0a;" 
d="M975 653q0 -131 -27.5 -249.5t-88 -208t-156 -142.5t-230.5 -53h-424v1305h424q133 0 228.5 -53.5t156 -142.5t89 -207t28.5 -249zM768 653q0 226 -77 345.5t-218 119.5h-217v-932h217q141 0 218 122t77 345zM592 1424h-252v252h252v-252z" />
    <glyph glyph-name="uni1E0B" unicode="&#x1e0b;" 
d="M883 0h-207v86q-60 -53 -121 -81t-139 -28q-90 0 -167 36t-132.5 100.5t-87 154.5t-31.5 197q0 106 31.5 196.5t87 155t132.5 101t167 36.5q78 0 139 -26.5t121 -79.5v270h-180v187h387v-1305zM676 684q-37 41 -95.5 62.5t-111.5 21.5q-117 0 -190.5 -84t-73.5 -219
t73.5 -218t190.5 -83q53 0 111.5 21.5t95.5 62.5v436zM592 1424h-252v252h252v-252z" />
    <glyph glyph-name="uni1E1E" unicode="&#x1e1e;" 
d="M883 1118h-627v-360h489v-187h-489v-571h-207v1305h834v-187zM592 1424h-252v252h252v-252z" />
    <glyph glyph-name="uni1E1F" unicode="&#x1e1f;" 
d="M932 745h-363v-559h213v-186h-626v186h206v559h-206v187h206q0 192 118 293.5t319 101.5q30 0 64 -3t69 -7v-182q-60 6 -109 6q-80 0 -129 -11.5t-76.5 -37t-38 -65.5t-10.5 -95h363v-187zM592 1424h-252v252h252v-252z" />
    <glyph glyph-name="uni1E40" unicode="&#x1e40;" 
d="M883 0h-207v883l-131 -469h-160l-129 469v-883h-207v1305h246l170 -590l170 590h248v-1305zM592 1424h-252v252h252v-252z" />
    <glyph glyph-name="uni1E41" unicode="&#x1e41;" 
d="M932 0h-207v639q0 66 -13.5 97.5t-47.5 31.5q-62 0 -78.5 -69.5t-16.5 -202.5v-496h-207v639q0 66 -14 97.5t-49 31.5q-61 0 -76.5 -69.5t-15.5 -202.5v-496h-207v932h209v-135q22 77 65 117t115 40q60 0 100.5 -36.5t55.5 -100.5q35 70 72.5 103.5t115.5 33.5
q96 0 147.5 -70.5t51.5 -213.5v-670zM592 1053h-252v252h252v-252z" />
    <glyph glyph-name="uni1E56" unicode="&#x1e56;" 
d="M932 915q0 -196 -119 -291.5t-332 -95.5h-225v-528h-207v1305h430q215 0 334 -98.5t119 -291.5zM725 918q0 100 -65.5 150t-178.5 50h-225v-403h225q113 0 178.5 50t65.5 153zM592 1424h-252v252h252v-252z" />
    <glyph glyph-name="uni1E57" unicode="&#x1e57;" 
d="M49 932h207v-84q59 53 119.5 79.5t138.5 26.5q90 0 167 -36.5t132 -101t87 -155t32 -196.5q0 -107 -32 -197t-87 -154.5t-132 -100.5t-167 -36q-78 0 -138.5 28t-119.5 81v-459h-207v1305zM256 250q37 -41 94.5 -63.5t110.5 -22.5q117 0 190.5 83t73.5 218t-73.5 219
t-190.5 84q-53 0 -110.5 -21.5t-94.5 -62.5v-434zM592 1053h-252v252h252v-252z" />
    <glyph glyph-name="uni1E60" unicode="&#x1e60;" 
d="M899 358q0 -90 -30.5 -160.5t-83 -119.5t-125 -75t-154.5 -26q-92 0 -166 33t-127 109v-119h-186v426h186q0 -64 22.5 -113t59.5 -82.5t86 -51t104 -17.5q93 0 150 43t57 137q0 49 -17.5 84t-50 62.5t-79.5 48t-107 43.5q-71 24 -142 54t-127 74t-91 108.5t-35 162.5
q0 86 31.5 150.5t84 108.5t122 66.5t147.5 22.5q90 0 154.5 -38t99.5 -101v117h186v-406h-186q0 115 -60.5 179.5t-162.5 64.5q-90 0 -149.5 -42t-59.5 -118q0 -39 15.5 -66.5t45 -50t74.5 -42t104 -42.5q74 -26 147 -59t131 -81t95 -116.5t37 -167.5zM592 1424h-252v252
h252v-252z" />
    <glyph glyph-name="uni1E61" unicode="&#x1e61;" 
d="M907 279q0 -91 -41 -148t-105.5 -92t-144 -48.5t-155.5 -13.5q-127 0 -253 37t-218 97l86 170q110 -64 201.5 -90.5t183.5 -26.5q125 0 182 26.5t57 73.5q0 23 -16 38t-53 27.5t-97.5 25t-150.5 26.5q-72 12 -136.5 29.5t-113.5 49.5t-78.5 81t-29.5 123q0 75 38.5 130.5
t101 91.5t140.5 52t156 16q110 0 213.5 -28.5t181.5 -81.5l-82 -160q-78 49 -151.5 66.5t-161.5 17.5q-37 0 -77 -4t-74 -15.5t-56.5 -31t-22.5 -47.5q0 -37 65.5 -60.5t223.5 -46.5q86 -12 157 -30.5t122 -50t79.5 -81t28.5 -122.5zM592 1053h-252v252h252v-252z" />
    <glyph glyph-name="uni1E6A" unicode="&#x1e6a;" 
d="M930 829h-185v289h-176v-932h207v-186h-620v186h206v932h-178v-289h-184v476h930v-476zM592 1424h-252v252h252v-252z" />
    <glyph glyph-name="uni1E6B" unicode="&#x1e6b;" 
d="M942 297q-16 -147 -115.5 -233.5t-248.5 -86.5q-82 0 -150 27t-116 75t-74.5 115.5t-26.5 147.5v403h-211v187h211v373h207v-373h391v-187h-391v-403q0 -90 44 -134t116 -44q88 0 131 51t51 123zM592 1424h-252v252h252v-252z" />
    <glyph glyph-name="Wgrave" unicode="&#x1e80;" 
d="M995 1305l-202 -1305h-213l-115 563l-113 -563h-213l-202 1305h215l120 -879l95 506h198l92 -506l123 879h215zM344 1776l404 -287l-89 -137l-432 244z" />
    <glyph glyph-name="wgrave" unicode="&#x1e81;" 
d="M961 932l-140 -932h-256l-98 561l-100 -561h-256l-140 932h203l82 -623l100 623h219l101 -623l82 623h203zM344 1405l404 -287l-89 -137l-432 244z" />
    <glyph glyph-name="Wacute" unicode="&#x1e82;" 
d="M995 1305l-202 -1305h-213l-115 563l-113 -563h-213l-202 1305h215l120 -879l95 506h198l92 -506l123 879h215zM711 1596l-432 -244l-89 137l404 287z" />
    <glyph glyph-name="wacute" unicode="&#x1e83;" 
d="M961 932l-140 -932h-256l-98 561l-100 -561h-256l-140 932h203l82 -623l100 623h219l101 -623l82 623h203zM711 1225l-432 -244l-89 137l404 287z" />
    <glyph glyph-name="Wdieresis" unicode="&#x1e84;" 
d="M995 1305l-202 -1305h-213l-115 563l-113 -563h-213l-202 1305h215l120 -879l95 506h198l92 -506l123 879h215zM778 1422h-252v252h252v-252zM406 1422h-252v252h252v-252z" />
    <glyph glyph-name="wdieresis" unicode="&#x1e85;" 
d="M961 932l-140 -932h-256l-98 561l-100 -561h-256l-140 932h203l82 -623l100 623h219l101 -623l82 623h203zM778 1053h-252v252h252v-252zM406 1053h-252v252h252v-252z" />
    <glyph glyph-name="Ygrave" unicode="&#x1ef2;" 
d="M952 1118h-94l-289 -586v-346h209v-186h-624v186h208v346l-288 586h-94v187h411v-187h-90l166 -383l164 383h-90v187h411v-187zM344 1776l404 -287l-89 -137l-432 244z" />
    <glyph glyph-name="ygrave" unicode="&#x1ef3;" 
d="M924 932l-402 -1114q-45 -121 -131 -166t-205 -45q-41 0 -88 8t-98 27l43 190q43 -16 79 -22.5t64 -6.5q93 0 127 82l37 90l-356 957h215l256 -705l237 705h222zM344 1405l404 -287l-89 -137l-432 244z" />
    <glyph glyph-name="endash" unicode="&#x2013;" 
d="M0 385v186h932v-186h-932z" />
    <glyph glyph-name="emdash" unicode="&#x2014;" 
d="M-92 385v186h1118v-186h-1118z" />
    <glyph glyph-name="afii00208" unicode="&#x2015;" 
d="M932 385h-932v187h932v-187z" />
    <glyph glyph-name="quoteleft" unicode="&#x2018;" 
d="M745 680h-372v266q0 70 18.5 134.5t62.5 114.5t115.5 80t175.5 30v-172q-59 0 -99 -13.5t-63.5 -38t-33.5 -58.5t-10 -77v-14h206v-252z" />
    <glyph glyph-name="quoteright" unicode="&#x2019;" 
d="M186 1305h373v-267q0 -69 -18.5 -133.5t-62.5 -115t-115.5 -80t-176.5 -29.5v172q119 0 163 51t44 135v15h-207v252z" />
    <glyph glyph-name="quotesinglbase" unicode="&#x201a;" 
d="M558 252h373v-267q0 -69 -18.5 -133.5t-62.5 -115t-115.5 -80t-176.5 -29.5v172q119 0 163 51t44 135v15h-207v252z" />
    <glyph glyph-name="quotedblleft" unicode="&#x201c;" 
d="M373 680h-373v266q0 70 18.5 134.5t62.5 114.5t115.5 80t176.5 30v-172q-60 0 -100 -13.5t-63.5 -38t-33.5 -58.5t-10 -77v-14h207v-252zM932 680h-373v266q0 70 18.5 134.5t62.5 114.5t115.5 80t176.5 30v-172q-60 0 -99.5 -13.5t-63.5 -38t-34 -58.5t-10 -77v-14h207
v-252z" />
    <glyph glyph-name="quotedblright" unicode="&#x201d;" 
d="M559 1305h373v-267q0 -69 -18.5 -133.5t-62.5 -115t-115.5 -80t-176.5 -29.5v172q119 0 163 51t44 135v15h-207v252zM0 1305h373v-267q0 -69 -18.5 -133.5t-62.5 -115t-116 -80t-176 -29.5v172q119 0 163 51t44 135v15h-207v252z" />
    <glyph glyph-name="quotedblbase" unicode="&#x201e;" 
d="M559 252h373v-267q0 -69 -18.5 -133.5t-62.5 -115t-115.5 -80t-176.5 -29.5v172q119 0 163 51t44 135v15h-207v252zM0 252h373v-267q0 -69 -18.5 -133.5t-62.5 -115t-116 -80t-176 -29.5v172q119 0 163 51t44 135v15h-207v252z" />
    <glyph glyph-name="dagger" unicode="&#x2020;" 
d="M778 907l-237 15l12 -549h-172l14 549l-237 -15v174l237 -14l-14 238h172l-12 -238l237 14v-174z" />
    <glyph glyph-name="daggerdbl" unicode="&#x2021;" 
d="M778 410l-237 14l12 -238h-172l14 238l-237 -14v172l237 -13v353l-237 -15v174l237 -14l-14 238h172l-12 -238l237 14v-174l-237 15v-353l237 13v-172z" />
    <glyph glyph-name="bullet" unicode="&#x2022;" 
d="M186 559q0 76 30 144.5t80 118.5t117.5 80t145.5 30q76 0 144.5 -30t118.5 -80t80 -118.5t30 -144.5q0 -78 -30 -145.5t-80 -117.5t-118.5 -80t-144.5 -30q-78 0 -145.5 30t-117.5 80t-80 117.5t-30 145.5z" />
    <glyph glyph-name="ellipsis" unicode="&#x2026;" 
d="M592 0h-252v252h252v-252zM965 0h-252v252h252v-252zM219 0h-252v252h252v-252z" />
    <glyph glyph-name="perthousand" unicode="&#x2030;" 
d="M694 1274l-571 -1313l-150 66l572 1316zM-25 1073q0 51 11.5 98.5t36 81t62.5 54t91 20.5t91 -20.5t62.5 -54t36 -81t11.5 -98.5q0 -53 -11.5 -99t-36 -80t-62.5 -54.5t-91 -20.5t-91 20.5t-62.5 54.5t-36 80t-11.5 99zM125 1075q0 -55 14.5 -79.5t36.5 -24.5
q23 0 38 24.5t15 79.5t-15 80t-38 25q-22 0 -36.5 -25t-14.5 -80zM442 236q0 -56 14.5 -80.5t37.5 -24.5q22 0 37.5 24.5t15.5 80.5q0 55 -15.5 79.5t-37.5 24.5q-23 0 -37.5 -24.5t-14.5 -79.5zM864 236q0 -56 14.5 -80.5t36.5 -24.5q23 0 38.5 24.5t15.5 80.5
q0 55 -15.5 79.5t-38.5 24.5q-22 0 -36.5 -24.5t-14.5 -79.5zM293 231q0 52 11 99t36 80.5t62.5 54t91.5 20.5q53 0 91 -20.5t62.5 -54t35.5 -80.5t11 -99q0 -53 -11 -99t-35.5 -80t-62.5 -54.5t-91 -20.5q-54 0 -91.5 20.5t-62.5 54.5t-36 80t-11 99zM715 231q0 52 11 99
t35.5 80.5t62.5 54t91 20.5q54 0 91.5 -20.5t62.5 -54t36 -80.5t11 -99q0 -53 -11 -99t-36 -80t-62.5 -54.5t-91.5 -20.5q-53 0 -91 20.5t-62.5 54.5t-35.5 80t-11 99z" />
    <glyph glyph-name="guilsinglleft" unicode="&#x2039;" 
d="M641 444l-119 -120l-323 327l323 330l119 -121l-203 -209z" />
    <glyph glyph-name="guilsinglright" unicode="&#x203a;" 
d="M494 651l-203 209l119 121l323 -330l-323 -327l-119 120z" />
    <glyph glyph-name="fraction" unicode="&#x2044;" 
d="M954 1257l-835 -1298l-137 88l837 1303z" />
    <glyph glyph-name="Euro" unicode="&#x20ac;" 
d="M0 907h172q16 88 48 165t80 134.5t113.5 89t149.5 31.5q82 0 145.5 -30.5t111.5 -86t80 -133.5t52 -174l-182 -37q-25 140 -69 207.5t-136 67.5q-80 0 -124 -67.5t-64 -166.5h182v-174h-201q-2 -20 -2 -39.5v-40.5v-41.5t2 -40.5h201v-174h-182q20 -100 64 -166.5
t124 -66.5q90 0 133 67.5t72 204.5l182 -37q-20 -96 -52 -174t-80 -133t-111.5 -85t-145.5 -30q-84 0 -149.5 32t-113.5 88.5t-80 133t-48 166.5h-172v174h152q-2 21 -2 40.5v41.5v40.5t2 39.5h-152v174z" />
    <glyph glyph-name="afii61352" unicode="&#x2116;" 
d="M510 0h-170l-203 1022v-1022h-137v1305h193l180 -940v940h137v-1305zM840 459q116 0 116 192q0 191 -116 191q-121 0 -121 -191q0 -192 121 -192zM838 348q-256 0 -256 303t256 303t256 -303t-256 -303zM584 117h510v-117h-510v117z" />
    <glyph glyph-name="trademark" unicode="&#x2122;" 
d="M1120 932h-110v393l-131 -334h-78l-129 334v-393h-111v559h158l121 -328l121 328h159v-559zM465 1378h-176v-446h-113v446h-176v113h465v-113z" />
    <glyph glyph-name="Omega" unicode="&#x2126;" 
d="M952 741q0 -145 -52 -281t-177 -229v-45h209v-186h-373v358q55 25 91 67t57.5 94t29.5 110.5t8 111.5q0 70 -15 141.5t-48 129t-86 93.5t-129 36q-74 0 -126 -36t-87 -93.5t-51.5 -129t-16.5 -141.5q0 -53 8.5 -111.5t30 -110.5t57 -94t91.5 -67v-358h-373v186h213v45
q-121 86 -177 223.5t-56 286.5q0 113 31.5 219.5t93 187.5t152.5 130t210 49t209 -49t151.5 -130t93 -187.5t31.5 -219.5z" />
    <glyph glyph-name="partialdiff" unicode="&#x2202;" 
d="M-20 354q0 103 48 183.5t137 142t214 103.5t278 67q-69 104 -186 172t-270 125l63 180q135 -53 260 -121.5t219.5 -163t150.5 -218.5t56 -287q0 -129 -35.5 -232.5t-103.5 -176.5t-164 -112t-217 -39q-205 0 -327.5 96.5t-122.5 280.5zM743 537q0 71 -12 133
q-256 -23 -400.5 -105t-144.5 -211q0 -92 64.5 -141t179.5 -49q139 0 226 96t87 277z" />
    <glyph glyph-name="Delta" unicode="&#x2206;" 
d="M-59 0l407 1305h238l407 -1305h-1052zM213 184h508l-254 848z" />
    <glyph glyph-name="product" unicode="&#x220f;" 
d="M932 1118h-176v-1118h-207v1118h-166v-1118h-207v1118h-176v187h932v-187z" />
    <glyph glyph-name="summation" unicode="&#x2211;" 
d="M883 0h-840v186l295 465l-295 467v187h840v-441h-187v254h-401l287 -467l-287 -465h401v256h187v-442z" />
    <glyph glyph-name="minus" unicode="&#x2212;" 
d="M932 385h-932v187h932v-187z" />
    <glyph glyph-name="radical" unicode="&#x221a;" 
d="M932 932h-270l-250 -932h-222l-188 725l180 49l121 -469l209 813h420v-186z" />
    <glyph glyph-name="infinity" unicode="&#x221e;" 
d="M950 465q0 -51 -17.5 -96t-49 -78t-75.5 -52t-95 -19q-72 0 -130.5 33.5t-111.5 123.5q-53 -88 -108.5 -122.5t-133.5 -34.5q-49 0 -92 19t-75.5 52t-51 78t-18.5 96t18.5 96.5t50 78t74.5 51t94 18.5q78 0 133.5 -35t108.5 -125q53 90 111.5 125t130.5 35q49 0 92 -18.5
t75.5 -51t51 -78t18.5 -96.5zM387 465q-53 111 -149 111q-45 0 -78 -32t-33 -79t30.5 -79.5t80.5 -32.5q98 0 149 112zM555 465q51 -112 150 -112q49 0 79.5 32.5t30.5 79.5t-32.5 79t-77.5 32q-99 0 -150 -111z" />
    <glyph glyph-name="integral" unicode="&#x222b;" 
d="M932 1497q-60 6 -107 6q-147 0 -201.5 -46t-54.5 -148v-1325q0 -191 -117.5 -285t-318.5 -94q-31 0 -64.5 2t-68.5 6v184q57 -6 106 -6q146 0 201 46t55 147v1325q0 190 119 285.5t320 95.5q30 0 63 -3.5t68 -7.5v-182z" />
    <glyph glyph-name="approxequal" unicode="&#x2248;" 
d="M989 738q-59 -123 -145 -191.5t-203 -68.5q-61 0 -106.5 22.5t-83 50t-75.5 51t-85 23.5q-66 0 -110 -39t-85 -110l-153 88q59 118 145 188t203 70q61 0 106 -23.5t83 -51.5t76 -51.5t85 -23.5q66 0 110 41t85 113zM989 367q-59 -123 -145 -191.5t-203 -68.5
q-61 0 -106.5 22.5t-83 50t-75.5 51t-85 23.5q-66 0 -110 -39t-85 -110l-153 88q59 119 145 188.5t203 69.5q61 0 106 -23.5t83 -51t76 -51.5t85 -24q66 0 110 41t85 113z" />
    <glyph glyph-name="notequal" unicode="&#x2260;" 
d="M334 385l90 187h-424v186h514l90 186h172l-90 -186h246v-186h-336l-90 -187h426v-186h-514l-90 -186h-172l90 186h-246v186h334z" />
    <glyph glyph-name="lessequal" unicode="&#x2264;" 
d="M829 88l-88 -88h191v-186h-746v186h492l-479 480l512 512l118 -121l-391 -391z" />
    <glyph glyph-name="greaterequal" unicode="&#x2265;" 
d="M680 480l-391 391l119 121l512 -512l-480 -480h492v-186h-746v186h189l-86 88z" />
    <glyph glyph-name="uni2303" unicode="&#x2303;" 
d="M467 352l-391 -391l-121 119l512 512l512 -512l-121 -119z" />
    <glyph glyph-name="uni2318" unicode="&#x2318;" 
d="M1049 281q0 -43 -16.5 -81t-46.5 -68t-67.5 -46t-80.5 -16t-81 16t-66.5 46t-45 68t-16.5 81v73h-140v-73q0 -43 -16 -81t-46 -68t-67.5 -46t-80.5 -16t-81 16t-68 46t-46 68t-16 81t16 80.5t46 66.5t68 45t81 16h75v140h-73q-43 0 -81 16.5t-68 45t-46 66.5t-16 81
t16 80.5t46 67.5t68 46.5t81 16.5t80.5 -16.5t66.5 -46.5t45 -67.5t16 -80.5v-74h140v74q0 43 16.5 80.5t45 67.5t66.5 46.5t81 16.5t80.5 -16.5t67.5 -46.5t46.5 -67.5t16.5 -80.5t-16.5 -81t-46.5 -66.5t-67.5 -45t-80.5 -16.5h-74v-140h74q43 0 80.5 -16t67.5 -45
t46.5 -66.5t16.5 -80.5zM913 838q0 32 -21.5 53.5t-53.5 21.5q-33 0 -53.5 -21.5t-20.5 -53.5v-74h74q32 0 53.5 20.5t21.5 53.5zM913 281q0 32 -21.5 52.5t-53.5 20.5h-72v-73q0 -33 19.5 -54.5t52.5 -21.5q32 0 53.5 21.5t21.5 54.5zM629 489v140h-140v-140h140zM354 838
q0 32 -20.5 53.5t-52.5 21.5q-33 0 -55.5 -21.5t-22.5 -53.5q0 -33 22.5 -53.5t55.5 -20.5h73v74zM354 354h-75q-33 0 -54.5 -20.5t-21.5 -52.5q0 -33 21.5 -54.5t54.5 -21.5q32 0 53.5 21.5t21.5 54.5v73z" />
    <glyph glyph-name="uni2324" unicode="&#x2324;" 
d="M932 537h-301v174h301v-174zM301 537h-301v174h301v-174zM467 352l-391 -391l-121 119l512 512l512 -512l-121 -119z" />
    <glyph glyph-name="optionkey" unicode="&#x2325;" 
d="M1118 537h-370v174h370v-174zM162 711q84 0 147.5 -11.5t111.5 -36t85 -61.5t67 -86l115 -186q25 -37 44.5 -60.5t46 -37t67.5 -17.5t106 -4h166v-174h-164q-84 0 -147.5 11t-111.5 36t-85 61.5t-67 85.5l-115 187q-25 37 -44 60.5t-46 36.5t-68 17.5t-106 4.5h-164v174
h162z" />
    <glyph glyph-name="erasetotheright" unicode="&#x2326;" 
d="M1110 651l-653 -651h-383v1305h383zM881 651l-480 482h-155v-961h155zM670 526l-80 -77l-125 126l-125 -126l-78 77l125 125l-125 125l78 80l125 -125l125 125l80 -80l-125 -125z" />
    <glyph glyph-name="uni237d" unicode="&#x237d;" 
d="M1118 193h-225v-193h-668v193h-225v172h397v-193h324v193h397v-172z" />
    <glyph glyph-name="uni2388" unicode="&#x2388;" 
d="M1122 467q0 -98 -36.5 -184t-100 -149.5t-149.5 -99.5t-185 -36q-80 0 -151.5 24.5t-130 68.5t-101.5 106.5t-65 138.5l114 33q15 -54 47.5 -100t76.5 -79.5t97.5 -53t112.5 -19.5q74 0 137.5 26.5t111.5 74.5t74.5 111.5t26.5 137.5q0 57 -18 110.5t-52 96.5t-80 75.5
t-103 51.5l34 114q74 -22 135.5 -63t105.5 -99.5t70.5 -130t28.5 -155.5zM776 453l-110 -109l-338 338v-197h-142v447h443v-141h-191z" />
    <glyph glyph-name="uni23ce" unicode="&#x23ce;" 
d="M1108 756q0 -115 -43 -216.5t-118 -176t-176 -117.5t-216 -43h-297l166 -166l-102 -103l-351 349l351 352l102 -105l-162 -161h293q80 0 150.5 30.5t123 83t83 123t30.5 150.5h-383v157h549v-157z" />
    <glyph glyph-name="uni2423" unicode="&#x2423;" 
d="M860 0h-788v365h172v-193h442v193h174v-365z" />
    <glyph glyph-name="SF100000" unicode="&#x2500;" 
d="M0 551v203h1118v-203h-1118z" />
    <glyph glyph-name="SF110000" unicode="&#x2502;" 
d="M365 1675h202v-2048h-202v2048z" />
    <glyph glyph-name="SF010000" unicode="&#x250c;" 
d="M365 754h753v-203h-551v-924h-202v1127z" />
    <glyph glyph-name="SF030000" unicode="&#x2510;" 
d="M0 551v203h567v-1127h-202v924h-365z" />
    <glyph glyph-name="SF020000" unicode="&#x2514;" 
d="M365 1675h202v-921h551v-203h-753v1124z" />
    <glyph glyph-name="SF040000" unicode="&#x2518;" 
d="M0 551v203h365v921h202v-1124h-567z" />
    <glyph glyph-name="SF080000" unicode="&#x251c;" 
d="M365 1675h202v-921h551v-203h-551v-924h-202v2048z" />
    <glyph glyph-name="SF090000" unicode="&#x2524;" 
d="M567 -373h-202v924h-365v203h365v921h202v-2048z" />
    <glyph glyph-name="SF060000" unicode="&#x252c;" 
d="M0 551v203h1118v-203h-551v-924h-202v924h-365z" />
    <glyph glyph-name="SF070000" unicode="&#x2534;" 
d="M0 551v203h365v921h202v-921h551v-203h-1118z" />
    <glyph glyph-name="SF050000" unicode="&#x253c;" 
d="M0 551v203h365v921h202v-921h551v-203h-551v-924h-202v924h-365z" />
    <glyph glyph-name="SF430000" unicode="&#x2550;" 
d="M1118 940v-203h-1118v203h1118zM1118 567v-202h-1118v202h1118z" />
    <glyph glyph-name="SF240000" unicode="&#x2551;" 
d="M381 -373h-203v2048h203v-2048zM551 1675h203v-2048h-203v2048z" />
    <glyph glyph-name="SF510000" unicode="&#x2552;" 
d="M1118 567v-202h-551v-738h-202v940h372v373h381v-203h-178v-170h178z" />
    <glyph glyph-name="SF520000" unicode="&#x2553;" 
d="M1118 754v-203h-364v-924h-203v551h-170v-551h-203v754h373v373h567z" />
    <glyph glyph-name="SF390000" unicode="&#x2554;" 
d="M381 737v-1110h-203v1313h940v-203h-737zM1118 567v-202h-364v-738h-203v940h567z" />
    <glyph glyph-name="SF220000" unicode="&#x2555;" 
d="M0 365v202h178v170h-178v203h381v-373h186v-940h-202v738h-365z" />
    <glyph glyph-name="SF210000" unicode="&#x2556;" 
d="M381 754v-373h373v-754h-203v551h-170v-551h-203v924h-178v203h381z" />
    <glyph glyph-name="SF250000" unicode="&#x2557;" 
d="M551 737h-551v203h754v-1313h-203v1110zM381 567v-940h-203v738h-178v202h381z" />
    <glyph glyph-name="SF500000" unicode="&#x2558;" 
d="M737 365v372h-372v938h202v-735h551v-203h-178v-170h178v-202h-381z" />
    <glyph glyph-name="SF490000" unicode="&#x2559;" 
d="M551 551v373h-373v751h203v-549h170v549h203v-921h364v-203h-567z" />
    <glyph glyph-name="SF380000" unicode="&#x255a;" 
d="M178 365v1310h203v-1108h737v-202h-940zM551 737v938h203v-735h364v-203h-567z" />
    <glyph glyph-name="SF280000" unicode="&#x255b;" 
d="M-8 567v170h8v203h365v735h202v-938h-372v-372h-195v202h-8z" />
    <glyph glyph-name="SF270000" unicode="&#x255c;" 
d="M0 551v203h178v921h203v-549h170v549h203v-751h-373v-373h-381z" />
    <glyph glyph-name="SF260000" unicode="&#x255d;" 
d="M0 737v203h178v735h203v-938h-381zM551 567v1108h203v-1310h-754v202h551z" />
    <glyph glyph-name="SF360000" unicode="&#x255e;" 
d="M365 737v938h202v-735h551v-203h-753zM1118 567v-202h-551v-738h-202v940h753z" />
    <glyph glyph-name="SF370000" unicode="&#x255f;" 
d="M381 -373h-203v2048h203v-2048zM551 1675h203v-921h364v-203h-364v-924h-203v2048z" />
    <glyph glyph-name="SF420000" unicode="&#x2560;" 
d="M381 -373h-203v2048h203v-2048zM551 737v938h203v-735h364v-203h-567zM1118 567v-202h-364v-738h-203v940h567z" />
    <glyph glyph-name="SF190000" unicode="&#x2561;" 
d="M0 737v203h365v735h202v-938h-567zM567 567v-940h-202v738h-365v202h567z" />
    <glyph glyph-name="SF200000" unicode="&#x2562;" 
d="M381 -373h-203v924h-178v203h178v921h203v-2048zM551 1675h203v-2048h-203v2048z" />
    <glyph glyph-name="SF230000" unicode="&#x2563;" 
d="M0 737v201h178v737h203v-938h-381zM381 567v-940h-203v738h-178v202h381zM551 1675h203v-2048h-203v2048z" />
    <glyph glyph-name="SF470000" unicode="&#x2564;" 
d="M0 365v202h1118v-202h-551v-738h-202v738h-365zM1118 940v-203h-1118v203h1118z" />
    <glyph glyph-name="SF480000" unicode="&#x2565;" 
d="M381 754v-1127h-203v924h-178v203h381zM1118 754v-203h-364v-924h-203v1127h567z" />
    <glyph glyph-name="SF410000" unicode="&#x2566;" 
d="M381 567v-940h-203v738h-178v202h381zM1118 940v-203h-1118v203h1118zM1118 567v-202h-364v-738h-203v940h567z" />
    <glyph glyph-name="SF450000" unicode="&#x2567;" 
d="M0 737v203h365v735h202v-735h551v-203h-1118zM1118 567v-202h-1118v202h1118z" />
    <glyph glyph-name="SF460000" unicode="&#x2568;" 
d="M0 551v203h178v921h203v-1124h-381zM551 551v1124h203v-921h364v-203h-567z" />
    <glyph glyph-name="SF400000" unicode="&#x2569;" 
d="M0 737v203h178v735h203v-938h-381zM551 737v938h203v-735h364v-203h-567zM1118 567v-202h-1118v202h1118z" />
    <glyph glyph-name="SF540000" unicode="&#x256a;" 
d="M0 737v203h365v735h202v-735h551v-203h-1118zM1118 567v-202h-551v-738h-202v738h-365v202h1118z" />
    <glyph glyph-name="SF530000" unicode="&#x256b;" 
d="M1118 754v-203h-364v-924h-203v2048h203v-921h364zM381 1675v-2048h-203v924h-178v203h178v921h203z" />
    <glyph glyph-name="SF440000" unicode="&#x256c;" 
d="M0 737v203h178v735h203v-938h-381zM383 567v-940h-203v738h-180v202h383zM551 737v938h203v-735h364v-203h-567zM1118 567v-202h-370v-738h-201v940h571z" />
    <glyph glyph-name="blackdiamond" unicode="&#x25c6;" 
d="M950 467l-483 -485l-485 485l485 485z" />
    <glyph glyph-name="lozenge" unicode="&#x25ca;" 
d="M950 467l-483 -483l-485 483l485 485zM756 467l-289 291l-293 -291l293 -291z" />
    <glyph glyph-name="checkmark" unicode="&#x2713;" 
d="M1110 666l-772 -715l-330 510l137 86l224 -344l630 583z" />
    <glyph glyph-name="shift" unicode="&#xe000;" 
d="M948 455v-107h-235v-348h-496v348h-231v107l481 483zM696 479l-229 230l-231 -230h120v-315h219v315h121z" />
    <glyph glyph-name="shiftlock" unicode="&#xe001;" 
d="M948 348h-235v-348h-496v348h-231v107l481 483l481 -483v-107zM600 424v268h-268v-268h268z" />
    <glyph glyph-name="verticaltab" unicode="&#xe002;" 
d="M371 758h-371v139h371v-139zM186 215h-186v139h186v-139zM901 758h-156v139h299v-682h-426l177 -178l-103 -103l-350 349l350 352l103 -105l-177 -176h283v404z" />
    <glyph glyph-name="copy" unicode="&#xe003;" 
d="M1044 0h-972v1305h567l405 -404v-901zM887 901l-248 250v-250h248zM901 143v637h-383v383h-305v-1020h688zM725 410h-178v-177h-109v177h-178v110h178v178h109v-178h178v-110z" />
    <glyph glyph-name="back" unicode="&#xe004;" 
d="M74 932h168v-932h-168v932zM856 977l121 -119l-309 -309h450v-168h-450l309 -305l-121 -121l-510 512z" />
    <glyph glyph-name="endtab" unicode="&#xe005;" 
d="M10 913h549v-157h-383q0 -80 31 -150.5t83 -123t122.5 -83t150.5 -30.5h293l-162 161l103 105l350 -352l-350 -349l-103 103l166 166h-297q-114 0 -215.5 43t-176.5 117.5t-118 176t-43 216.5v157z" />
    <glyph glyph-name="insert" unicode="&#xe006;" 
d="M745 897h373v-139h-373v139zM932 354h186v-139h-186v139zM217 354h283l-176 176l102 105l350 -352l-350 -349l-102 103l176 178h-426v682h299v-139h-156v-404z" />
    <glyph glyph-name="tab" unicode="&#xe007;" 
d="M1044 0h-167v932h167v-932zM772 467l-510 -512l-121 121l310 305h-451v168h451l-310 309l121 119z" />
    <glyph glyph-name="commaaccent" unicode="&#xf6c3;" 
d="M684 -109l-192 -264h-191l105 264h278z" />
    <glyph glyph-name="apple" unicode="&#xf8ff;" 
d="M819 1343q0 -149 -73.5 -232t-190.5 -93q2 266 264 325zM1128 362q-14 -43 -42.5 -104t-68.5 -117.5t-90 -97.5t-106 -41q-30 0 -59 8t-57.5 18.5t-58.5 18.5t-60 8q-31 0 -59.5 -8t-55.5 -19.5t-53.5 -19.5t-52.5 -8q-68 0 -133.5 61.5t-117 154.5t-82 200.5
t-30.5 199.5q0 74 19.5 149t58.5 134t99.5 97t144.5 38q36 0 71 -7t66 -16.5t59.5 -16.5t57.5 -7q32 0 63 8.5t62.5 18.5t63.5 18t67 8q147 0 256 -133q-146 -123 -146 -262q0 -43 12.5 -87t36 -83t58 -68.5t77.5 -44.5z" />
    <glyph glyph-name="appleopen" unicode="&#xf900;" 
d="M819 1343q0 -149 -73.5 -232t-190.5 -93q2 266 264 325zM1128 362q-14 -43 -42.5 -104t-68.5 -117.5t-90 -97.5t-106 -41q-30 0 -59 8t-57.5 18.5t-58.5 18.5t-60 8q-31 0 -59.5 -8t-55.5 -19.5t-53.5 -19.5t-52.5 -8q-68 0 -133.5 61.5t-117 154.5t-82 200.5
t-30.5 199.5q0 74 19.5 149t58.5 134t99.5 97t144.5 38q36 0 71 -7t66 -16.5t59.5 -16.5t57.5 -7q32 0 63 8.5t62.5 18.5t63.5 18t67 8q147 0 256 -133q-146 -123 -146 -262q0 -43 12.5 -87t36 -83t58 -68.5t77.5 -44.5zM948 342q-65 61 -95 129t-30 160q0 67 17.5 122.5
t60.5 110.5q-24 37 -106 37q-7 0 -30.5 -4t-64.5 -14l-125 -29l-122 25q-93 18 -107 18q-55 0 -94 -27.5t-63.5 -70.5t-36 -94.5t-11.5 -98.5q0 -78 24.5 -162t61.5 -152.5t79 -112.5t77 -44q16 0 35.5 7.5t44 16.5t54.5 17t65 8q34 0 66 -7t58.5 -16t48 -16.5t40.5 -7.5
q22 0 44.5 20.5t43 51.5t38 66.5t27.5 66.5z" />
    <glyph glyph-name="fi" unicode="&#xfb01;" 
d="M735 186v559h-352v-559h352zM942 932v-746h176v-186h-1118v186h176v559h-176v187h176q0 192 118 293.5t318 101.5q31 0 65 -3t68 -7v-182q-59 6 -108 6q-80 0 -129 -11.5t-77 -37t-38 -65.5t-10 -95h559z" />
    <glyph glyph-name="fl" unicode="&#xfb02;" 
d="M0 0v186h176v559h-176v187h176q0 192 118 293.5t318 101.5q97 0 181 -7t149 -20v-1114h176v-186h-1118zM735 1135q-24 4 -50 5t-48 1q-80 0 -129 -11.5t-77 -37t-38 -65.5t-10 -95h242v-187h-242v-559h352v949z" />
  </font>
</defs>
</svg>
