<?xml version="1.0" standalone="no"?>
<!DOCTYPE svg PUBLIC "-//W3C//DTD SVG 1.1//EN" "http://www.w3.org/Graphics/SVG/1.1/DTD/svg11.dtd" >
<svg version="1.1" xmlns="http://www.w3.org/2000/svg">
<metadata>
Created by FontForge 20120731 at Fri Aug  1 16:50:16 2014
 By Alfred Xing
Copyright (c) Mark Simonson 2009-2010. All rights reserved.
</metadata>
<defs>
<font id="anonymouspro" horiz-adv-x="1118" >
  <font-face 
    font-family="Anonymous Pro"
    font-weight="700"
    font-style="italic"
    font-stretch="normal"
    units-per-em="2048"
    panose-1="2 6 8 9 3 2 2 0 5 4"
    ascent="1675"
    descent="-373"
    x-height="932"
    cap-height="1305"
    bbox="-281 -395 1337 1854"
    underline-thickness="123"
    underline-position="-126"
    slope="-12"
    unicode-range="U+000D-FB02"
  />
<missing-glyph 
d="M784 0h-833l276 1305h834zM197 186h419l199 932h-420z" />
    <glyph glyph-name=".notdef" 
d="M784 0h-833l276 1305h834zM197 186h419l199 932h-420z" />
    <glyph glyph-name=".null" 
 />
    <glyph glyph-name=".null" 
 />
    <glyph glyph-name="nonmarkingreturn" unicode="&#xd;" 
 />
    <glyph glyph-name="space" unicode=" " 
 />
    <glyph glyph-name="exclam" unicode="!" 
d="M780 1305l-250 -932h-170l148 932h272zM494 0h-252l53 252h252z" />
    <glyph glyph-name="quotedbl" unicode="&#x22;" 
d="M954 1305l-151 -500h-158l62 500h247zM582 1305l-152 -500h-158l62 500h248z" />
    <glyph glyph-name="numbersign" unicode="#" 
d="M874 187h-186l-41 -186h-186l41 186h-187l-41 -186h-186l41 186h-187l39 186h187l39 187h-187l41 186h187l39 187h186l-39 -187h186l39 187h187l-39 -187h186l-41 -186h-186l-39 -187h186zM540 373l39 187h-186l-39 -187h186z" />
    <glyph glyph-name="dollar" unicode="$" 
d="M270 -16q-170 22 -248.5 126.5t-62.5 262.5l199 30q-4 -192 151 -231l94 438q-59 27 -116.5 57.5t-97 75.5t-56 105.5t1.5 144.5q27 127 137.5 217t282.5 111l35 170h186l-37 -174q78 -14 133.5 -49t90 -85t47 -112.5t2.5 -130.5l-199 -22q12 165 -115 208l-77 -374
q61 -27 120.5 -60t101.5 -81t60.5 -113.5t-0.5 -157.5q-14 -66 -52 -125t-95.5 -107.5t-133 -80t-165.5 -43.5l-37 -170h-187zM696 340q15 72 -22 116t-101 79l-77 -363q79 14 131.5 55t68.5 113zM342 995q-12 -59 19.5 -98t87.5 -70l65 306q-70 -13 -115 -46.5t-57 -91.5z
" />
    <glyph glyph-name="percent" unicode="%" 
d="M1122 1257l-1112 -1298l-116 88l1114 1303zM104 1073q11 51 41.5 98.5t71.5 81t91 54t104 20.5q51 0 94 -20.5t69.5 -54t37 -81t-0.5 -98.5q-12 -53 -41.5 -99t-70.5 -80t-92.5 -54.5t-102.5 -20.5q-53 0 -95 20.5t-68.5 54.5t-38 80t0.5 99zM254 1075q-8 -43 15.5 -73.5
t66.5 -30.5t81 30.5t46 73.5q10 43 -14.5 74t-67.5 31t-80 -31t-47 -74zM403 231q11 52 41.5 99t71.5 80.5t91 54t104 20.5q51 0 94 -20.5t69.5 -54t37 -80.5t-0.5 -99q-12 -53 -42.5 -99t-71.5 -80t-92.5 -54.5t-102.5 -20.5q-53 0 -95 20.5t-68.5 54.5t-37 80t1.5 99z
M553 233q-10 -43 14.5 -73.5t67.5 -30.5t80 30.5t47 73.5q8 43 -15.5 74t-66.5 31t-81 -31t-46 -74z" />
    <glyph glyph-name="ampersand" unicode="&#x26;" 
d="M977 565q-31 -73 -77 -150t-109 -149l127 -145l-160 -148l-119 146q-86 -66 -180 -104t-199 -38q-82 0 -147.5 28t-107.5 76t-58.5 112.5t0.5 140.5q28 131 93.5 214t145.5 142q-41 72 -56 144.5t1 156.5q16 76 56 138.5t93.5 106.5t118 67.5t131.5 23.5
q68 0 123.5 -20.5t91 -58.5t49 -92t-0.5 -124q-15 -67 -49.5 -120.5t-82 -96.5t-102.5 -79t-108 -68l227 -269q35 50 64.5 104t56.5 109zM315 164q60 0 114 22.5t106 61.5l-248 305h-2q-45 -39 -79 -87t-46 -108q-19 -86 26 -140t129 -54zM338 991q-10 -55 -10 -99t26 -95
q43 24 81 48.5t69 53.5t52.5 62.5t29.5 74.5q10 47 -15.5 76t-70.5 29q-60 0 -104 -43t-58 -107z" />
    <glyph glyph-name="quotesingle" unicode="'" 
d="M768 1305l-152 -500h-157l61 500h248z" />
    <glyph glyph-name="parenleft" unicode="(" 
d="M395 567q-24 -114 -22 -228t28.5 -218.5t78.5 -197.5t128 -165l-153 -127q-88 84 -148.5 190.5t-91.5 227.5t-33 252t27 266t87 266.5t140 252t187.5 227t230.5 190.5l98 -127q-106 -71 -197 -164.5t-163 -198t-122 -218t-75 -228.5z" />
    <glyph glyph-name="parenright" unicode=")" 
d="M582 565q24 115 23 228.5t-28.5 218t-79 198t-128.5 164.5l153 127q90 -84 148.5 -190.5t90.5 -227t34 -252t-27 -266.5t-86 -266t-140 -252t-187.5 -227.5t-229.5 -190.5l-100 127q108 72 199 165t163 197.5t121 218.5t74 228z" />
    <glyph glyph-name="asterisk" unicode="*" 
d="M563 591l326 196l61 -174l-342 -147l279 -146l-136 -174l-239 197l-45 -342h-199l103 342l-326 -197l-62 174l340 146l-276 147l135 174l240 -196l45 342h198z" />
    <glyph glyph-name="plus" unicode="+" 
d="M915 385h-372l-80 -372h-187l80 372h-372l38 187h373l80 372h186l-79 -372h372z" />
    <glyph glyph-name="comma" unicode="," 
d="M621 186l-394 -559h-157l305 559h246z" />
    <glyph glyph-name="hyphen" unicode="-" 
d="M915 385h-931l38 187h932z" />
    <glyph glyph-name="period" unicode="." 
d="M494 0h-252l53 252h252z" />
    <glyph glyph-name="slash" unicode="/" 
d="M969 1366l137 -76l-1094 -1542l-135 76z" />
    <glyph glyph-name="zero" unicode="0" 
d="M6 653q29 131 82 253t133 215t186.5 149.5t241.5 56.5t219 -56.5t124 -149.5t41 -215t-27 -253q-27 -131 -80.5 -252.5t-132 -216t-186 -151t-245.5 -56.5q-137 0 -220 56.5t-122.5 151t-39.5 216t26 252.5zM213 653q-18 -92 -25 -178l621 514q-21 68 -67 110t-132 42
q-143 0 -245.5 -129t-151.5 -359zM403 164q89 0 153.5 43t112.5 112.5t79.5 157.5t50.5 176q18 84 22 164l-616 -510q22 -65 67 -104t131 -39z" />
    <glyph glyph-name="one" unicode="1" 
d="M680 0h-627l39 186h211l158 742q-25 -49 -68 -87t-96 -63.5t-115.5 -39t-126.5 -13.5l43 207q68 0 137.5 22.5t130 68.5t107.5 115.5t68 166.5h207l-238 -1119h209z" />
    <glyph glyph-name="two" unicode="2" 
d="M1008 948q-21 -92 -90.5 -188t-174.5 -182l-489 -392h383l37 179h186l-76 -365h-839l41 195l632 503q82 70 126 131.5t57 118.5q10 51 -1.5 88t-37 60.5t-62 34t-75.5 10.5q-123 0 -209 -72t-117 -213h-195q48 221 192 346t368 125q84 0 155.5 -24.5t119.5 -71.5
t67.5 -119t1.5 -164z" />
    <glyph glyph-name="three" unicode="3" 
d="M895 354q-18 -86 -67.5 -155.5t-118 -118.5t-151.5 -76t-167 -27q-94 0 -171 26t-128 78t-72.5 134t-5.5 195l201 32q-16 -129 42 -203.5t175 -74.5q98 0 168 52t88 138q25 117 -39.5 167t-255.5 50l39 187q68 0 128.5 13t108.5 39t80.5 62.5t43.5 85.5q16 82 -22 132.5
t-132 50.5q-123 0 -203 -66.5t-110 -212.5h-197q25 115 76 202t122.5 145.5t161 88t189.5 29.5q84 0 151.5 -25.5t111.5 -73.5t60.5 -116t-2.5 -154q-12 -55 -39.5 -104t-68.5 -87t-94.5 -61.5t-112.5 -27.5q66 -6 112 -35t72.5 -73t32.5 -100t-6 -116z" />
    <glyph glyph-name="four" unicode="4" 
d="M834 0h-627l39 186h209l34 162h-514l39 187l641 770h242l-164 -770h213l-39 -187h-213l-35 -162h213zM528 535l113 526l-440 -526h327z" />
    <glyph glyph-name="five" unicode="5" 
d="M936 438q-21 -96 -77 -180t-136 -146.5t-175 -98.5t-192 -36q-94 0 -167.5 28t-123 80t-71 128t-6.5 174l202 29q-14 -113 35 -182.5t172 -69.5q64 0 117 21.5t96 58.5t72 87t41 107q29 131 -23.5 204t-162.5 73q-72 0 -138.5 -30t-115.5 -97h-207l151 717h817l-38 -187
h-611l-73 -338q118 121 294 121q84 0 153 -32.5t114 -92t60 -145.5t-7 -193z" />
    <glyph glyph-name="six" unicode="6" 
d="M944 444q-24 -108 -77.5 -194t-129 -146.5t-168 -93.5t-188.5 -33q-148 0 -230.5 56.5t-118.5 149.5t-33 215t32 253q28 133 86.5 255t146.5 216.5t201 149.5t252 55q98 0 179 -29.5t134 -87.5l-145 -151q-41 45 -91.5 63.5t-115.5 18.5q-84 0 -156.5 -34t-130 -95.5
t-97.5 -145.5t-63 -184q54 104 154 170t242 66q84 0 151.5 -36t111.5 -98.5t59.5 -149.5t-5.5 -190zM737 444q25 123 -24 206t-176 83q-123 0 -213.5 -76.5t-116.5 -201.5q-14 -62 -9 -114t30.5 -92t73.5 -62.5t122 -22.5q111 0 198 73.5t115 206.5z" />
    <glyph glyph-name="seven" unicode="7" 
d="M1071 1118q-151 -133 -252.5 -251.5t-170 -246.5t-118 -277.5t-90.5 -342.5h-211q39 182 94.5 332.5t132 284t183 255t250.5 246.5h-516l-47 -219h-185l86 406h883z" />
    <glyph glyph-name="eight" unicode="8" 
d="M920 367q-23 -103 -75 -175.5t-127 -120.5t-167 -71t-191 -23q-100 0 -181 23t-135 71t-75.5 120.5t0.5 175.5q11 53 41.5 107t77.5 100.5t105.5 77t123.5 38.5q-53 6 -90 35t-58.5 69t-27.5 86t2 89q19 88 68 155.5t118.5 112.5t151.5 67.5t166 22.5t158 -22.5
t123 -67.5t69.5 -112.5t1.5 -155.5q-8 -43 -34.5 -89t-64.5 -86t-88 -69t-107 -35q61 -8 107 -38.5t72.5 -77t36 -100.5t-0.5 -107zM791 956q18 86 -30 135.5t-153 49.5q-104 0 -172.5 -49.5t-87.5 -135.5q-18 -82 26 -129t156 -47q113 0 177.5 47t83.5 129zM715 379
q12 59 -1.5 100t-44 66.5t-76.5 37t-101 11.5q-56 0 -106 -11.5t-93 -37t-73 -66.5t-42 -100q-12 -55 1.5 -96t44 -68t76.5 -39t101 -12q56 0 106 12t93 39t72.5 68t42.5 96z" />
    <glyph glyph-name="nine" unicode="9" 
d="M68 860q22 109 76.5 195t129 146.5t166.5 93t189 32.5q147 0 231 -56.5t119 -150.5t32 -215t-32 -252q-29 -133 -87 -255t-145.5 -216t-202 -149.5t-251.5 -55.5q-98 0 -179 30t-134 87l145 152q41 -45 92 -63.5t117 -18.5q84 0 156.5 33.5t129 95t97.5 145.5t61 185
q-53 -105 -152.5 -170.5t-240.5 -65.5q-84 0 -152.5 36t-112.5 98.5t-59.5 149.5t7.5 189zM274 860q-26 -123 24 -206t177 -83q123 0 213 77t117 202q12 61 7 113.5t-30.5 92.5t-72.5 62.5t-121 22.5q-111 0 -198 -74t-116 -207z" />
    <glyph glyph-name="colon" unicode=":" 
d="M637 680h-252l53 252h252zM494 0h-252l53 252h252z" />
    <glyph glyph-name="semicolon" unicode=";" 
d="M637 680h-252l53 252h252zM621 186l-394 -559h-157l305 559h246z" />
    <glyph glyph-name="less" unicode="&#x3c;" 
d="M749 88l-145 -120l-401 512l620 512l92 -121l-473 -391z" />
    <glyph glyph-name="equal" unicode="=" 
d="M954 572h-932l39 186h932zM874 199h-931l41 186h931z" />
    <glyph glyph-name="greater" unicode="&#x3e;" 
d="M498 480l-310 391l146 121l403 -512l-622 -512l-93 120z" />
    <glyph glyph-name="question" unicode="?" 
d="M1024 1004q-16 -74 -54 -129.5t-87 -102.5t-105.5 -89t-104.5 -87t-87 -99.5t-54 -123.5h-213q19 82 59 146.5t92 116.5t107.5 96t105.5 87t86 88t48 99q14 65 -17.5 100t-97.5 35q-98 0 -154 -54.5t-87 -150.5l-187 29q54 168 171.5 265t293.5 97q166 0 241 -88t44 -235
zM494 0h-252l53 252h252z" />
    <glyph glyph-name="at" unicode="@" 
d="M1013 684q-15 -68 -41 -138t-66.5 -126.5t-96.5 -92.5t-130 -36q-27 0 -51 10.5t-41 30t-24.5 46.5t-0.5 59l3 10q-16 -33 -39 -61.5t-50.5 -49.5t-58 -33t-62.5 -12q-61 0 -96.5 29t-50.5 77t-12.5 109t16.5 125q15 74 46 141.5t74.5 119t97 82t114.5 30.5q18 0 36 -6
t32 -18.5t23.5 -31.5t11.5 -44l17 81h161l-105 -495q-7 -32 0.5 -46t24.5 -14q22 0 41.5 20t37 54.5t32 81t25.5 98.5q22 105 22.5 200t-28 167t-90 114.5t-161.5 42.5q-101 0 -180.5 -43.5t-139 -118.5t-100.5 -176.5t-66 -218.5q-24 -115 -26 -216t25.5 -176t88.5 -118.5
t162 -43.5q82 0 153 29t135 78l38 -98q-155 -129 -351 -129q-92 0 -159 25.5t-113 71.5t-72 109t-35 138t-3 159t25 171q28 133 81 255.5t133 216t187 149t243 55.5q90 0 157 -25.5t113 -70.5t72.5 -106t37 -132.5t5.5 -150t-22 -158.5zM624 796q-10 38 -32 54t-47 16
q-30 0 -56 -18t-47 -49.5t-37 -74.5t-26 -92q-12 -54 -13 -90.5t7 -58.5t24 -31t39 -9q25 0 50 17.5t45.5 45.5t36 62.5t22.5 69.5z" />
    <glyph glyph-name="A" unicode="A" 
d="M678 0l-29 311h-432l-158 -311h-217l684 1305h238l131 -1305h-217zM311 494h322l-45 538z" />
    <glyph glyph-name="B" unicode="B" 
d="M907 358q-39 -178 -178 -268t-362 -90h-416l276 1305h394q81 0 157 -13.5t130.5 -50.5t80 -103.5t2.5 -172.5q-22 -99 -89.5 -181t-176.5 -118q117 -39 163 -109t19 -199zM780 938q13 57 -1.5 93t-44 55.5t-69.5 25.5t-83 6h-187l-78 -360h187q43 0 86 6t81 25.5
t67.5 55.5t41.5 93zM707 379q20 98 -38.5 145t-181.5 47h-208l-82 -385h209q122 0 201 47.5t100 145.5z" />
    <glyph glyph-name="C" unicode="C" 
d="M938 399q-45 -96 -101.5 -174t-126 -133t-152.5 -85t-181 -30q-137 0 -220 56.5t-124 151t-41 216t26 252.5q29 131 81.5 253t132 215t183 149.5t236.5 56.5q43 0 85 -11t75 -33.5t54.5 -55.5t25.5 -76l33 154h186l-104 -494h-187q12 61 9 120.5t-25.5 105.5t-66.5 75
t-111 29q-88 0 -153.5 -43t-114 -113t-81 -157t-51.5 -175q-18 -88 -23 -176t12 -157.5t66.5 -112.5t137.5 -43q127 0 212 81t156 218z" />
    <glyph glyph-name="D" unicode="D" 
d="M1014 653q-27 -131 -80 -249.5t-132 -208t-185.5 -142.5t-241.5 -53h-424l276 1305h424q133 0 217 -53.5t125 -142.5t45 -207t-24 -249zM807 653q49 226 -2 345.5t-193 119.5h-217l-198 -932h217q141 0 243.5 122t149.5 345z" />
    <glyph glyph-name="E" unicode="E" 
d="M784 0h-833l276 1305h834l-39 -187h-627l-78 -360h490l-39 -187h-489l-82 -385h626z" />
    <glyph glyph-name="F" unicode="F" 
d="M1022 1118h-627l-78 -360h490l-39 -187h-489l-121 -571h-207l276 1305h834z" />
    <glyph glyph-name="G" unicode="G" 
d="M1022 649q-29 -133 -81 -254t-132 -214t-187.5 -148.5t-244.5 -55.5t-220 56.5t-124 149.5t-42 215t27 253q29 131 81.5 253t133 216t187 150.5t244.5 56.5q38 0 77 -11t71 -33.5t53.5 -55.5t25.5 -76l33 154h186l-98 -463h-187q13 61 5.5 115.5t-34 95.5t-70.5 64.5
t-101 23.5q-88 0 -153.5 -44t-115 -114t-81 -157t-50.5 -175q-18 -88 -23 -175t12 -156.5t66.5 -112.5t137.5 -43q127 0 221 81t160 251h-275l39 186h465z" />
    <glyph glyph-name="H" unicode="H" 
d="M784 0h-206l120 571h-419l-121 -571h-207l276 1305h207l-117 -547h420l117 547h207z" />
    <glyph glyph-name="I" unicode="I" 
d="M684 0h-627l39 186h207l199 932h-207l39 187h627l-39 -187h-213l-199 -932h213z" />
    <glyph glyph-name="J" unicode="J" 
d="M889 498q-53 -248 -187.5 -384.5t-351.5 -136.5q-174 0 -272 91.5t-107 273.5l201 70q4 -117 56.5 -182.5t162.5 -65.5q68 0 116 27.5t83 73.5t56.5 106.5t35.5 126.5l172 807h207z" />
    <glyph glyph-name="K" unicode="K" 
d="M827 0h-241l-213 608l-109 -102l-106 -506h-207l276 1305h207l-108 -512l514 512h266l-569 -541z" />
    <glyph glyph-name="L" unicode="L" 
d="M784 0h-833l276 1305h207l-237 -1119h626z" />
    <glyph glyph-name="M" unicode="M" 
d="M784 0h-206l186 883l-232 -469h-159l-29 469l-186 -883h-207l276 1305h246l45 -590l295 590h248z" />
    <glyph glyph-name="N" unicode="N" 
d="M784 0h-239l-187 946l-200 -946h-207l276 1305h260l177 -899l190 899h207z" />
    <glyph glyph-name="O" unicode="O" 
d="M6 653q29 131 82 253t133 215t186.5 149.5t241.5 56.5t219 -56.5t124 -149.5t41 -215t-27 -253q-27 -131 -80.5 -252.5t-132 -216t-186 -151t-245.5 -56.5q-137 0 -220 56.5t-122.5 151t-39.5 216t26 252.5zM213 653q-18 -88 -23.5 -176t12 -157.5t65.5 -112.5t136 -43
q89 0 153.5 43t112.5 112.5t79.5 157.5t50.5 176q18 88 24 175t-12 157t-66.5 113t-134.5 43q-143 0 -245.5 -129t-151.5 -359z" />
    <glyph glyph-name="P" unicode="P" 
d="M1028 915q-43 -196 -182 -291.5t-352 -95.5h-226l-110 -528h-207l276 1305h430q215 0 312.5 -98.5t58.5 -291.5zM821 918q21 100 -33.5 150t-166.5 50h-226l-86 -403h226q112 0 188 50t98 153z" />
    <glyph glyph-name="Q" unicode="Q" 
d="M6 653q29 131 82 253t133 215t186.5 149.5t241.5 56.5t219 -56.5t124 -149.5t41 -215t-27 -253q-25 -121 -70 -232.5t-113.5 -201.5t-159 -152.5t-204.5 -80.5q-10 -99 53 -135.5t197 -36.5q18 0 39.5 1t44.5 1l-39 -185q-29 -2 -55.5 -3t-51.5 -1q-203 0 -309.5 92.5
t-91.5 272.5q-99 24 -158 86.5t-85 151.5t-23.5 198t26.5 225zM213 653q-18 -88 -23.5 -176t12 -157.5t65.5 -112.5t136 -43q89 0 153.5 43t112.5 112.5t79.5 157.5t50.5 176q18 88 24 175t-12 157t-66.5 113t-134.5 43q-143 0 -245.5 -129t-151.5 -359z" />
    <glyph glyph-name="R" unicode="R" 
d="M852 0h-262l-228 528h-94l-110 -528h-207l276 1305h430q215 0 312.5 -98.5t58.5 -291.5q-18 -86 -59 -151.5t-99.5 -112.5t-129 -74.5t-148.5 -37.5zM821 918q21 100 -33.5 150t-169.5 50h-223l-86 -403h223q115 0 191 50t98 153z" />
    <glyph glyph-name="S" unicode="S" 
d="M877 358q-21 -90 -66 -160.5t-108.5 -119.5t-141.5 -75t-160 -26q-92 0 -158.5 33t-103.5 109l-24 -119h-187l90 426h187q-15 -64 -2.5 -113t42 -82.5t75 -51t100.5 -17.5q92 0 158.5 43t87.5 137q10 49 -0.5 84t-37 62.5t-69.5 48t-96 43.5q-68 24 -132.5 54t-110.5 74
t-67.5 108.5t-0.5 162.5q18 86 63 150.5t107.5 108.5t136 66.5t151.5 22.5q90 0 146.5 -38t79.5 -101l24 117h187l-86 -406h-187q25 115 -22 179.5t-150 64.5q-90 0 -158.5 -42t-83.5 -118q-10 -39 0.5 -66.5t35 -50t65.5 -42t96 -42.5q68 -26 133.5 -59t113.5 -81
t70.5 -116.5t2.5 -167.5z" />
    <glyph glyph-name="T" unicode="T" 
d="M1008 829h-185l62 289h-176l-199 -932h207l-39 -186h-621l39 186h207l199 932h-178l-62 -289h-184l100 476h930z" />
    <glyph glyph-name="U" unicode="U" 
d="M883 465q-25 -111 -68 -201t-108.5 -153.5t-151.5 -98.5t-195 -35q-108 0 -178.5 35t-107.5 98.5t-43 154.5t18 202l178 838h207l-178 -840q-10 -49 -14 -101.5t7 -97.5t48 -73.5t104 -28.5q68 0 115 28.5t80 72.5t51.5 97.5t28.5 102.5l178 840h207z" />
    <glyph glyph-name="V" unicode="V" 
d="M1169 1305l-684 -1305h-235l-131 1305h217l90 -1033l526 1033h217z" />
    <glyph glyph-name="W" unicode="W" 
d="M1174 1305l-480 -1305h-213l4 563l-231 -563h-213l74 1305h215l-66 -879l201 506h199l-15 -506l309 879h216z" />
    <glyph glyph-name="X" unicode="X" 
d="M854 0h-426l39 186h74l-76 295l-199 -295h74l-39 -186h-422l39 186h113l354 473l-152 459h-94l39 187h414l-39 -187h-84l72 -289l196 289h-82l39 187h416l-39 -187h-100l-348 -459l153 -473h117z" />
    <glyph glyph-name="Y" unicode="Y" 
d="M1092 1118h-95l-413 -586l-74 -346h209l-39 -186h-625l39 186h209l74 346l-164 586h-94l39 187h411l-39 -187h-90l84 -383l246 383h-90l39 187h411z" />
    <glyph glyph-name="Z" unicode="Z" 
d="M784 0h-833l39 184l782 934h-397l-62 -284h-186l100 471h817l-38 -187l-766 -932h401l61 287h183z" />
    <glyph glyph-name="bracketleft" unicode="[" 
d="M629 -373h-434l395 1864h434l-39 -186h-248l-317 -1491h248z" />
    <glyph glyph-name="backslash" unicode="\" 
d="M795 -176l-170 -76l-439 1542l170 76z" />
    <glyph glyph-name="bracketright" unicode="]" 
d="M381 -373h-434l39 187h247l318 1491h-248l39 186h434z" />
    <glyph glyph-name="asciicircum" unicode="^" 
d="M1015 559h-228l-180 562l-418 -562h-228l561 746h248z" />
    <glyph glyph-name="underscore" unicode="_" 
d="M794 -186h-931l39 186h932z" />
    <glyph glyph-name="grave" unicode="`" 
d="M543 1405l344 -287l-119 -137l-379 244z" />
    <glyph glyph-name="a" unicode="a" 
d="M-47 268q18 82 75.5 143.5t137.5 102.5t176 61.5t193 20.5q53 0 91 -2t76 -6l7 37q16 73 -33 109t-141 36q-84 0 -175.5 -23.5t-179.5 -68.5l-49 162q102 53 215 83.5t229 30.5q76 0 146 -17t120 -56t71.5 -101.5t0.5 -154.5l-131 -625h-204l28 137q-65 -76 -169.5 -118
t-215.5 -42q-67 0 -123.5 18.5t-92.5 55.5t-51 91.5t-1 125.5zM313 162q62 0 118 15.5t103.5 43t79 66.5t41.5 86l9 35q-48 8 -91 9t-75 1q-152 0 -238 -40t-100 -99q-25 -117 153 -117z" />
    <glyph glyph-name="b" unicode="b" 
d="M227 1305h207l-98 -457q72 53 138.5 79.5t143.5 26.5q91 0 159.5 -36.5t110.5 -101t54 -155t-10 -196.5q-23 -107 -74 -197t-119.5 -154.5t-153.5 -100.5t-175 -36q-78 0 -132.5 28t-103.5 81l-16 -86h-207zM209 248q29 -41 82 -62.5t106 -21.5q117 0 208 83t120 218
t-27.5 219t-173.5 84q-53 0 -114.5 -21.5t-108.5 -62.5z" />
    <glyph glyph-name="c" unicode="c" 
d="M825 133q-108 -90 -214.5 -123t-223.5 -33t-205 35t-140 98.5t-69.5 153.5t7.5 201q22 106 77.5 196.5t129 155t163.5 101t182 36.5q97 0 158.5 -40t77.5 -117l29 135h184l-92 -434h-184q26 123 -26 196.5t-161 73.5q-43 0 -93 -17.5t-98 -54.5t-86 -94t-55 -137
q-16 -78 -3.5 -134.5t45 -93t85 -55t111.5 -18.5q100 0 181 31.5t145 83.5z" />
    <glyph glyph-name="d" unicode="d" 
d="M784 0h-206l16 86q-70 -53 -137.5 -81t-145.5 -28q-90 0 -158.5 36t-110.5 100.5t-54.5 154.5t10.5 197q22 106 73.5 196.5t120 155t153.5 101t175 36.5q78 0 133.5 -26.5t102.5 -79.5l59 270h-180l39 187h387zM721 684q-27 41 -81 62.5t-108 21.5q-116 0 -207.5 -84
t-119.5 -219q-29 -135 27.5 -218t173.5 -83q53 0 115.5 21.5t107.5 62.5z" />
    <glyph glyph-name="e" unicode="e" 
d="M174 387q-6 -96 57.5 -159.5t192.5 -63.5q100 0 181 31.5t145 83.5l75 -146q-108 -90 -215.5 -123t-226.5 -33q-109 0 -194 36t-139 100.5t-74.5 153.5t4.5 198q22 106 76.5 195.5t133 155t177 102t206.5 36.5q113 0 196 -38.5t133 -111.5t64.5 -178.5t-12.5 -238.5h-780
zM760 569q2 90 -63.5 144.5t-164.5 54.5q-98 0 -187 -54.5t-124 -144.5h539z" />
    <glyph glyph-name="f" unicode="f" 
d="M991 745h-362l-119 -559h213l-39 -186h-627l39 186h207l119 559h-207l39 187h207q41 192 180 293.5t340 101.5q31 0 64.5 -3t66.5 -7l-39 -182q-57 6 -106 6q-80 0 -131.5 -11.5t-85 -37t-52 -65.5t-30.5 -95h362z" />
    <glyph glyph-name="g" unicode="g" 
d="M786 10q-20 -96 -69 -171t-120 -127t-158 -79.5t-185 -27.5q-244 0 -381 147l129 160q119 -123 293 -123q106 0 182 52.5t101 164.5l22 100q-76 -55 -141.5 -81.5t-143.5 -26.5q-90 0 -158.5 38t-109.5 103.5t-54 152.5t7 185t70.5 185.5t120 152t154.5 102t175 37.5
q78 0 133.5 -26.5t102.5 -79.5l18 84h207zM721 684q-27 41 -81 62.5t-110 21.5q-116 0 -206.5 -82t-116.5 -209q-14 -63 -6 -116.5t34.5 -92.5t70.5 -61.5t102 -22.5q55 0 117.5 22.5t109.5 63.5z" />
    <glyph glyph-name="h" unicode="h" 
d="M784 0h-206l120 575q23 109 -9 151t-109 42q-115 0 -207 -93t-127 -257l-88 -418h-207l276 1305h207l-129 -607q57 121 155.5 188.5t221.5 67.5q143 0 203.5 -93t19.5 -286z" />
    <glyph glyph-name="i" unicode="i" 
d="M717 1053h-252l53 252h252zM684 0h-627l39 186h207l119 559h-207l39 187h414l-158 -746h213z" />
    <glyph glyph-name="j" unicode="j" 
d="M160 -395q-213 0 -307 159l149 138q37 -56 84 -83.5t115 -27.5q104 0 166.5 57.5t83.5 151.5l157 745h-211l39 187h418l-197 -932q-20 -90 -65 -163t-110.5 -125t-147.5 -79.5t-174 -27.5zM903 1053h-252l54 252h251z" />
    <glyph glyph-name="k" unicode="k" 
d="M831 0h-268l-231 377l-115 -96l-59 -281h-207l276 1305h207l-164 -768l457 395h285l-520 -428z" />
    <glyph glyph-name="l" unicode="l" 
d="M686 0h-627l39 186h205l199 932h-205l39 187h412l-238 -1119h215z" />
    <glyph glyph-name="m" unicode="m" 
d="M834 0h-207l135 639q14 66 7 97.5t-42 31.5q-61 0 -92 -69.5t-60 -202.5l-104 -496h-207l135 639q15 66 6.5 97.5t-43.5 31.5q-61 0 -90.5 -69.5t-58.5 -202.5l-104 -496h-207l196 932h209l-28 -135q38 77 90.5 117t124.5 40q59 0 91.5 -36.5t32.5 -100.5q52 70 97 103.5
t123 33.5q96 0 132 -70.5t5 -213.5z" />
    <glyph glyph-name="n" unicode="n" 
d="M784 0h-206l120 575q23 109 -9 151t-109 42q-115 0 -207 -93t-127 -257l-88 -418h-207l196 932h207l-49 -234q57 121 155.5 188.5t221.5 67.5q143 0 203.5 -93t19.5 -286z" />
    <glyph glyph-name="o" unicode="o" 
d="M956 465q-24 -109 -77.5 -198t-131 -153.5t-176 -100.5t-209.5 -36q-108 0 -190 36t-133 100.5t-67.5 153.5t8.5 198q22 106 76.5 196.5t132 156t176 101t206.5 35.5q111 0 193 -35.5t133 -101t66.5 -156t-7.5 -196.5zM750 465q12 63 5 119.5t-36 96.5t-76 63.5
t-113 23.5q-65 0 -122.5 -23.5t-101.5 -63.5t-75.5 -96.5t-44.5 -119.5q-14 -66 -6 -120t35 -95t75 -63.5t113 -22.5q66 0 122.5 22.5t102.5 63.5t76.5 95t45.5 120z" />
    <glyph glyph-name="p" unicode="p" 
d="M147 932h207l-18 -84q72 53 138.5 79.5t143.5 26.5q91 0 159.5 -36.5t110.5 -101t54 -155t-10 -196.5q-23 -107 -74 -197t-119.5 -154.5t-153.5 -100.5t-175 -36q-78 0 -132.5 28t-103.5 81l-96 -459h-205zM209 250q29 -41 82 -63.5t106 -22.5q117 0 208 83t120 218
t-27.5 219t-173.5 84q-53 0 -114.5 -21.5t-108.5 -62.5z" />
    <glyph glyph-name="q" unicode="q" 
d="M705 -373h-207l96 459q-70 -53 -137.5 -81t-145.5 -28q-90 0 -158.5 36t-110.5 100.5t-54.5 154.5t10.5 197q22 106 73.5 196.5t120 155t153.5 101t175 36.5q78 0 133.5 -26.5t102.5 -79.5l18 84h207zM721 684q-27 41 -81 62.5t-108 21.5q-116 0 -207.5 -84t-119.5 -219
q-29 -135 27.5 -218t173.5 -83q53 0 115.5 21.5t107.5 62.5z" />
    <glyph glyph-name="r" unicode="r" 
d="M961 711q-33 18 -70 27.5t-86 9.5q-70 0 -134.5 -20.5t-117.5 -61.5t-90 -102.5t-55 -145.5l-50 -232h209l-39 -186h-626l39 186h211l118 559h-211l39 187h418l-49 -234q80 140 192.5 198t249.5 58q43 0 88 -9t84 -32z" />
    <glyph glyph-name="s" unicode="s" 
d="M866 279q-18 -91 -71.5 -148t-125 -92t-154.5 -48.5t-159 -13.5q-127 0 -244.5 37t-197.5 97l123 170q96 -64 182 -90.5t178 -26.5q125 0 187.5 26.5t72.5 73.5q5 23 -8.5 38t-47.5 27.5t-91 25t-145 26.5q-70 12 -130.5 29.5t-102.5 49.5t-61.5 81t-4.5 123
q16 75 67 130.5t121 91.5t151.5 52t159.5 16q111 0 208 -28.5t163 -81.5l-117 -160q-65 49 -136 66.5t-159 17.5q-37 0 -77.5 -4t-76.5 -15.5t-62.5 -31t-33.5 -47.5q-8 -37 52.5 -60.5t214.5 -46.5q84 -12 150.5 -30.5t110.5 -50t62.5 -81t1.5 -122.5z" />
    <glyph glyph-name="t" unicode="t" 
d="M905 297q-47 -147 -164.5 -233.5t-267.5 -86.5q-82 0 -143.5 27t-99 75t-50 115.5t3.5 147.5l86 403h-211l39 187h211l80 373h207l-80 -373h391l-39 -187h-391l-86 -403q-18 -90 16.5 -134t106.5 -44q88 0 141.5 51t77.5 123z" />
    <glyph glyph-name="u" unicode="u" 
d="M147 932h207l-123 -576q-22 -108 10.5 -150t110.5 -42q115 0 207 93t127 257l88 418h207l-197 -932h-206l49 233q-58 -120 -156 -188t-221 -68q-144 0 -204 93.5t-21 285.5z" />
    <glyph glyph-name="v" unicode="v" 
d="M1030 932l-541 -932h-243l-148 932h221l97 -705l393 705h221z" />
    <glyph glyph-name="w" unicode="w" 
d="M1059 932l-336 -932h-256l20 561l-219 -561h-256l58 932h202l-49 -623l232 623h219l-31 -623l213 623h203z" />
    <glyph glyph-name="x" unicode="x" 
d="M856 0h-442l39 186h82l-86 195l-166 -195h75l-39 -186h-438l39 186h135l271 287l-142 272h-125l39 187h420l-39 -187h-65l73 -180l154 180h-74l39 187h424l-39 -187h-121l-256 -272l148 -287h133z" />
    <glyph glyph-name="y" unicode="y" 
d="M1022 932l-637 -1114q-72 -121 -167 -166t-214 -45q-41 0 -86 8t-92 27l82 190q39 -16 73.5 -22.5t63.5 -6.5q92 0 145 82l56 90l-154 957h215l107 -705l387 705h221z" />
    <glyph glyph-name="z" unicode="z" 
d="M784 0h-833l39 184l649 561h-348l-41 -188h-182l79 375h816l-39 -187l-652 -559h369l39 185h182z" />
    <glyph glyph-name="braceleft" unicode="{" 
d="M627 -373h-154q-61 0 -108.5 20.5t-76 58.5t-37.5 89t3 113l90 426q18 82 -23.5 106.5t-134.5 24.5l39 186q92 0 144.5 23.5t70.5 107.5l90 426q13 62 44.5 113t76.5 89t100.5 59.5t116.5 21.5h154l-39 -186h-154q-53 0 -77.5 -21.5t-34.5 -75.5l-90 -426
q-21 -94 -90.5 -152.5t-147.5 -72.5q37 -6 66.5 -23.5t49 -47t28 -68.5t-2.5 -84l-90 -426q-12 -53 3.5 -74.5t68.5 -21.5h154z" />
    <glyph glyph-name="bar" unicode="|" 
d="M420 -186h-187l357 1677h186z" />
    <glyph glyph-name="braceright" unicode="}" 
d="M-12 -188h153q54 0 77.5 21.5t35.5 74.5l92 430q8 45 32.5 84t56.5 68.5t70 47t77 23.5q-72 14 -117 72.5t-25 152.5l90 426q13 54 -2.5 73.5t-68.5 19.5h-154l39 186h154q61 0 108 -20.5t76 -57.5t39 -88t-4 -113l-90 -426q-19 -84 24 -107.5t135 -23.5l-41 -186
q-92 0 -144 -24.5t-69 -106.5l-92 -430q-12 -62 -43.5 -113t-77 -89t-100.5 -58.5t-117 -20.5h-153z" />
    <glyph glyph-name="asciitilde" unicode="~" 
d="M614 435q54 0 90.5 57t81.5 190l193 -14q-25 -90 -62.5 -167t-89 -133t-115 -89t-139.5 -33q-82 0 -118.5 39t-56 87t-33 87t-48.5 39q-53 0 -89 -56.5t-81 -189.5l-194 15q26 88 64 165.5t88.5 134t114 89t138.5 32.5q82 0 120 -39.5t56.5 -87t33 -87t46.5 -39.5z" />
    <glyph glyph-name="uni00A0" unicode="&#xa0;" 
 />
    <glyph glyph-name="exclamdown" unicode="&#xa1;" 
d="M418 0l248 932h170l-146 -932h-272zM903 1053h-252l54 252h251z" />
    <glyph glyph-name="cent" unicode="&#xa2;" 
d="M18 653q41 193 172.5 319t323.5 158l37 175h186l-37 -168q95 -9 170.5 -42.5t137.5 -109.5l-138 -145q-34 41 -85.5 69.5t-122.5 38.5l-127 -592q77 11 140.5 40.5t115.5 70.5l75 -145q-94 -78 -184 -112t-186 -42l-35 -168h-187l37 176q-178 33 -256 159t-37 318z
M225 653q-24 -116 13.5 -185t113.5 -97l121 565q-88 -29 -155.5 -97.5t-92.5 -185.5z" />
    <glyph glyph-name="sterling" unicode="&#xa3;" 
d="M59 745h187l49 230q16 76 56 141.5t96.5 111.5t123 72.5t134.5 26.5q122 0 194 -65.5t68 -186.5l-197 -45q-6 111 -104 111q-58 0 -102 -38t-62 -128l-49 -230h186l-39 -186h-186l-41 -186q-15 -66 -50.5 -115t-80.5 -72h172q67 0 117.5 8.5t91.5 29t75.5 56t75.5 91.5
l152 -90q-97 -142 -241 -211.5t-310 -69.5h-473l39 186h61q35 0 60.5 12.5t45 32t32 44t16.5 47.5l51 237h-187z" />
    <glyph glyph-name="currency" unicode="&#xa4;" 
d="M973 938q26 -59 32.5 -131t-12.5 -156q-18 -84 -55 -155.5t-88 -130.5l94 -119l-147 -121l-92 119q-134 -80 -304 -80t-270 80l-145 -119l-92 121l141 119q-27 59 -32 130.5t13 155.5q35 164 142 285l-95 121l148 121l92 -119q137 82 305 82q84 0 150.5 -21.5
t118.5 -60.5l145 119l94 -121zM786 651q15 64 6.5 120t-36 96t-74.5 63.5t-113 23.5q-65 0 -122.5 -23.5t-102.5 -63.5t-75.5 -96t-45.5 -120q-14 -65 -6 -119.5t36 -95.5t75 -63.5t112 -22.5q66 0 123.5 22.5t102.5 63.5t75.5 95.5t44.5 119.5z" />
    <glyph glyph-name="yen" unicode="&#xa5;" 
d="M385 559v4l-45 182h-281l39 187h197l-88 373h215l106 -555l342 555h215l-249 -373h194l-39 -187h-278l-121 -182v-4h360l-41 -186h-360l-78 -373h-207l78 373h-364l40 186h365z" />
    <glyph glyph-name="brokenbar" unicode="&#xa6;" 
d="M430 -186h-207l162 764h207zM625 727h-207l162 764h206z" />
    <glyph glyph-name="section" unicode="&#xa7;" 
d="M141 813q17 74 60 141.5t96 110.5q-39 41 -54.5 97.5t3.5 142.5q20 94 66 163.5t110.5 115.5t141.5 68.5t159 22.5q80 0 150.5 -21.5t123 -65.5t79 -110.5t18.5 -158.5l-199 -33q8 115 -46 159t-165 44q-74 0 -141.5 -40t-83.5 -118q-15 -67 24 -109t103.5 -74
t142.5 -62.5t140.5 -74.5t96 -110.5t11.5 -171.5q-21 -96 -63 -160.5t-101 -122.5q39 -40 54.5 -98.5t-1.5 -142.5q-20 -92 -68 -164t-115 -123t-147.5 -77.5t-162.5 -26.5q-86 0 -160 21.5t-130 65.5t-90 112.5t-34 164.5l197 47q6 -104 65.5 -164.5t192.5 -60.5
q82 0 151.5 48t89.5 136q17 78 -22 123t-104.5 76t-143.5 58.5t-140.5 71.5t-95 113.5t-8.5 186.5zM352 831q-14 -61 12.5 -102t74.5 -70.5t110.5 -54t122.5 -55.5q35 26 57.5 59t34.5 86q14 68 -11.5 110t-73.5 70.5t-109.5 50t-125.5 46.5q-75 -58 -92 -140z" />
    <glyph glyph-name="dieresis" unicode="&#xa8;" 
d="M903 1053h-252l54 252h251zM530 1053h-251l53 252h252z" />
    <glyph glyph-name="copyright" unicode="&#xa9;" 
d="M879 532q-129 -147 -334 -147q-80 0 -141.5 26.5t-98.5 75t-49 115t4 146.5q16 75 55 140.5t96.5 115t130 78t158.5 28.5q205 0 269 -147l-162 -99q-27 82 -141 82q-84 0 -143.5 -56t-78.5 -142q-18 -86 16 -142.5t120 -56.5q114 0 178 82zM1178 745
q-25 -110 -88.5 -211.5t-153.5 -178t-201.5 -123t-232.5 -46.5q-109 0 -202 40t-155.5 114t-87 176t1.5 229q25 115 90.5 217.5t157.5 178.5t204 120t228 44q113 0 204 -42t151.5 -118t84 -178.5t-0.5 -221.5zM1112 745q21 101 2.5 190t-71 156.5t-134.5 107.5t-184 40
t-200.5 -38t-180.5 -104.5t-139.5 -156.5t-79.5 -195q-23 -104 -3.5 -194t73 -156.5t135.5 -104.5t186 -38q100 0 198.5 38t178.5 104.5t138.5 156.5t80.5 194z" />
    <glyph glyph-name="ordfeminine" unicode="&#xaa;" 
d="M57 780q17 70 62 119t109.5 78t140 42t153.5 13h49.5t32.5 -2t30.5 -4t41.5 -6l14 59q10 49 -32 73t-117 24q-72 0 -153 -16.5t-155 -53.5l-34 129q69 41 163.5 64.5t208.5 23.5q72 0 133.5 -13.5t104.5 -43t61.5 -75.5t6.5 -112l-111 -520h-186l22 109
q-59 -52 -136 -89.5t-181 -37.5q-135 0 -191.5 67.5t-36.5 171.5zM360 688q41 0 87.5 11.5t86 28.5t67.5 40t32 45l14 66q-51 8 -85 9t-70 1q-232 0 -256 -109q-7 -35 15.5 -63.5t108.5 -28.5zM688 199h-745l39 186h745z" />
    <glyph glyph-name="guillemotleft" unicode="&#xab;" 
d="M453 444l-146 -120l-254 327l393 330l95 -121l-248 -209zM823 444l-145 -120l-254 327l393 330l94 -121l-247 -209z" />
    <glyph glyph-name="logicalnot" unicode="&#xac;" 
d="M835 13h-186l80 372h-745l38 187h932z" />
    <glyph glyph-name="uni00AD" unicode="&#xad;" 
d="M915 385h-931l38 187h932z" />
    <glyph glyph-name="registered" unicode="&#xae;" 
d="M1217 932q-23 -111 -86.5 -212.5t-153.5 -178t-202.5 -122.5t-233.5 -46q-109 0 -202 40t-154.5 113.5t-87 176t0.5 229.5q25 115 90.5 217t157.5 178t204 120t228 44q113 0 205 -42t152.5 -118t84 -178t-2.5 -221zM1151 932q23 100 3.5 189t-72 157t-134.5 107.5
t-184 39.5t-199.5 -37.5t-179.5 -104t-140.5 -157t-80.5 -194.5q-23 -105 -2.5 -195t73 -156.5t134.5 -104.5t186 -38q100 0 198.5 38t179.5 104.5t138 156.5t80 195zM893 596h-207l-74 227h-34l-50 -227h-174l144 676h268q51 0 96 -13.5t75 -41t41 -70.5t-1 -100
q-16 -80 -57 -130.5t-129 -87.5zM805 1047q10 45 -8.5 65.5t-59.5 20.5h-94l-35 -168h94q41 0 69 24.5t34 57.5z" />
    <glyph glyph-name="macron" unicode="&#xaf;" 
d="M868 1044h-559l37 175h559z" />
    <glyph glyph-name="degree" unicode="&#xb0;" 
d="M139 1118q15 76 60 144.5t105.5 119t134 80t151.5 29.5q76 0 138.5 -29.5t102 -80t54 -119t0.5 -144.5q-19 -78 -63 -145.5t-104.5 -117.5t-135 -80t-150.5 -30q-78 0 -139.5 30t-101 80t-55 117.5t2.5 145.5zM279 1116q-11 -47 -0.5 -89t34 -72.5t62.5 -49t86 -18.5
t92 18.5t83 49t64.5 72.5t36.5 89q11 47 1.5 89t-34 73t-62.5 49.5t-85 18.5t-93 -18.5t-83 -49.5t-64.5 -73t-37.5 -89z" />
    <glyph glyph-name="plusminus" unicode="&#xb1;" 
d="M915 385h-372l-70 -323h-186l69 323h-372l38 187h373l80 372h186l-79 -372h372zM795 -186h-932l39 186h931z" />
    <glyph glyph-name="twosuperior" unicode="&#xb2;" 
d="M594 1149q-10 -43 -36 -79t-62 -64l-168 -134h204l-26 -127h-404l27 127l260 209q21 17 31 30t14 34q4 18 -8 28.5t-31 10.5q-33 0 -52 -21.5t-32 -79.5h-153q49 232 266 232q37 0 71.5 -10.5t60.5 -31t36 -51t2 -73.5z" />
    <glyph glyph-name="threesuperior" unicode="&#xb3;" 
d="M545 915q-17 -67 -83.5 -119.5t-154.5 -52.5q-203 0 -182 197l156 14q-11 -84 51 -84q20 0 37.5 13.5t21.5 36.5q8 38 -10.5 53.5t-65.5 15.5l21 98q80 0 92 56q8 41 -37 41q-22 0 -41.5 -20.5t-27.5 -61.5h-150q23 104 94 158q68 49 160 49q88 0 130 -44t28 -114
q-17 -74 -86 -109q61 -53 47 -127z" />
    <glyph glyph-name="acute" unicode="&#xb4;" 
d="M872 1225l-485 -244l-57 137l463 287z" />
    <glyph glyph-name="mu" unicode="&#xb5;" 
d="M301 -23q-98 0 -135 54l-86 -404h-207l274 1305h209l-123 -578q-22 -108 10.5 -149t110.5 -41q115 0 206 92t126 256l88 420h207l-197 -932h-206l49 231q-58 -120 -149 -187t-177 -67z" />
    <glyph glyph-name="paragraph" unicode="&#xb6;" 
d="M96 915q39 193 179.5 291.5t355.5 98.5h479l-276 -1305h-207l110 526h-155l-111 -526h-207l113 532q-160 23 -239 118t-42 265zM709 1118l-88 -405h155l88 405h-155zM303 915q-16 -73 12.5 -131.5t100.5 -66.5l84 397q-37 -4 -70 -21.5t-59.5 -45t-44 -61.5t-23.5 -71z
" />
    <glyph glyph-name="periodcentered" unicode="&#xb7;" 
d="M567 352h-252l54 252h252z" />
    <glyph glyph-name="cedilla" unicode="&#xb8;" 
d="M481 -41q-14 -70 -51 -130t-91 -104t-124 -70t-152 -26l39 178q88 0 138.5 40t64.5 112l10 41h177z" />
    <glyph glyph-name="onesuperior" unicode="&#xb9;" 
d="M473 745h-338l27 127h90l49 234q-20 -19 -64 -39t-114 -20l29 135q26 0 57 9t58.5 25.5t49 39t27.5 49.5h158l-92 -433h90z" />
    <glyph glyph-name="ordmasculine" unicode="&#xba;" 
d="M862 930q-18 -86 -62 -159t-106.5 -124t-141.5 -79.5t-165 -28.5t-152.5 27.5t-107.5 78.5t-54.5 123t5.5 162q18 88 62 161.5t107.5 125t142.5 80t165 28.5t152.5 -28.5t106.5 -80t53.5 -125t-5.5 -161.5zM686 930q25 114 -21.5 179t-142.5 65t-169.5 -65t-98.5 -179
q-25 -115 21.5 -177.5t144.5 -62.5t170 62.5t96 177.5zM688 199h-745l39 186h745z" />
    <glyph glyph-name="guillemotright" unicode="&#xbb;" 
d="M719 651l-158 209l144 121l253 -330l-393 -327l-92 120zM348 651l-158 209l144 121l254 -330l-393 -327l-93 120z" />
    <glyph glyph-name="onequarter" unicode="&#xbc;" 
d="M1122 1257l-1112 -1298l-116 88l1114 1303zM473 745h-338l27 127h90l49 234q-20 -19 -64 -39t-114 -20l29 135q26 0 57 9t58.5 25.5t49 39t27.5 49.5h158l-92 -433h90zM754 0h-156l23 113h-199l33 151l276 295h141l-67 -317h90l-29 -129h-90zM649 242l21 104l-101 -104
h80z" />
    <glyph glyph-name="onehalf" unicode="&#xbd;" 
d="M930 403q-8 -43 -35 -78.5t-64 -64.5l-165 -133h204l-26 -127h-404l27 127l258 209q23 16 33 29.5t14 33.5q4 19 -8 29t-31 10q-33 0 -52 -21.5t-32 -78.5h-153q49 231 266 231q37 0 70.5 -10t59.5 -30.5t37 -51.5t1 -74zM1122 1257l-1112 -1298l-116 88l1114 1303z
M473 745h-338l27 127h90l49 234q-20 -19 -64 -39t-114 -20l29 135q26 0 57 9t58.5 25.5t49 39t27.5 49.5h158l-92 -433h90z" />
    <glyph glyph-name="threequarters" unicode="&#xbe;" 
d="M545 915q-17 -67 -83.5 -119.5t-154.5 -52.5q-203 0 -182 197l156 14q-11 -84 51 -84q20 0 37.5 13.5t21.5 36.5q8 38 -10.5 53.5t-65.5 15.5l21 98q80 0 92 56q8 41 -37 41q-22 0 -41.5 -20.5t-27.5 -61.5h-150q23 104 94 158q68 49 160 49q88 0 130 -44t28 -114
q-17 -74 -86 -109q61 -53 47 -127zM754 0h-156l23 113h-199l33 151l276 295h141l-67 -317h90l-29 -129h-90zM649 242l21 104l-101 -104h80zM1122 1257l-1112 -1298l-116 88l1114 1303z" />
    <glyph glyph-name="questiondown" unicode="&#xbf;" 
d="M174 301q14 74 53 129t88.5 102.5t104.5 89.5t104 87t87 99t53 124h213q-19 -84 -59 -147.5t-92 -116t-107.5 -96.5t-105.5 -87t-86 -88t-46 -98q-14 -66 17.5 -100.5t97.5 -34.5q98 0 154.5 54t86.5 151l187 -29q-56 -168 -173.5 -265.5t-293.5 -97.5q-166 0 -241 88.5
t-42 235.5zM705 1305h251l-53 -252h-252z" />
    <glyph glyph-name="Agrave" unicode="&#xc0;" 
d="M678 0l-29 311h-432l-158 -311h-217l684 1305h238l131 -1305h-217zM311 494h322l-45 538zM623 1776l344 -287l-119 -137l-379 244z" />
    <glyph glyph-name="Aacute" unicode="&#xc1;" 
d="M678 0l-29 311h-432l-158 -311h-217l684 1305h238l131 -1305h-217zM311 494h322l-45 538zM952 1596l-485 -244l-57 137l463 287z" />
    <glyph glyph-name="Acircumflex" unicode="&#xc2;" 
d="M678 0l-29 311h-432l-158 -311h-217l684 1305h238l131 -1305h-217zM311 494h322l-45 538zM1002 1456l-101 -102l-198 205l-291 -207l-58 100l392 318z" />
    <glyph glyph-name="Atilde" unicode="&#xc3;" 
d="M678 0l-29 311h-432l-158 -311h-217l684 1305h238l131 -1305h-217zM311 494h322l-45 538zM1120 1616q-67 -96 -147 -150.5t-172 -54.5q-49 0 -80 18.5t-56.5 40t-51 40t-62.5 18.5q-51 0 -93 -31.5t-87 -87.5l-107 70q68 94 148 148.5t172 54.5q49 0 79.5 -18.5t56.5 -40
t51.5 -40t62.5 -18.5q51 0 93 31.5t87 89.5z" />
    <glyph glyph-name="Adieresis" unicode="&#xc4;" 
d="M678 0l-29 311h-432l-158 -311h-217l684 1305h238l131 -1305h-217zM311 494h322l-45 538zM983 1424h-252l54 252h251zM610 1424h-251l53 252h252z" />
    <glyph glyph-name="Aring" unicode="&#xc5;" 
d="M451 1450q10 47 35.5 88t63.5 71.5t82 48t91 17.5t85 -17.5t61.5 -48t32.5 -71.5t-1 -88q-12 -57 -48 -105.5t-85 -78.5l127 -1266h-217l-29 311h-432l-158 -311h-217l664 1266q-37 30 -52.5 78.5t-2.5 105.5zM311 494h322l-45 538zM584 1450q-9 -39 11.5 -65.5
t59.5 -26.5t72 26.5t41 65.5t-12.5 65.5t-59.5 26.5t-71.5 -26.5t-40.5 -65.5z" />
    <glyph glyph-name="AE" unicode="&#xc6;" 
d="M297 0l65 311h-169l-142 -311h-213l641 1305h631l-39 -187h-330l-77 -360h280l-39 -187h-280l-82 -385h329l-38 -186h-537zM274 494h127l109 516z" />
    <glyph glyph-name="Ccedilla" unicode="&#xc7;" 
d="M938 399q-78 -163 -188.5 -273t-262.5 -138l-6 -29q-14 -70 -51 -130t-91 -104t-124 -70t-152 -26l39 178q88 0 138.5 40t64.5 112l6 23q-116 14 -185 74.5t-101.5 152.5t-31.5 206.5t25 237.5q29 131 81.5 253t132 215t183 149.5t236.5 56.5q43 0 85 -11t75 -33.5
t54.5 -55.5t25.5 -76l33 154h186l-104 -494h-187q12 61 9 120.5t-25.5 105.5t-66.5 75t-111 29q-88 0 -153.5 -43t-114 -113t-81 -157t-51.5 -175q-18 -88 -23 -176t12 -157.5t66.5 -112.5t137.5 -43q127 0 212 81t156 218z" />
    <glyph glyph-name="Egrave" unicode="&#xc8;" 
d="M784 0h-833l276 1305h834l-39 -187h-627l-78 -360h490l-39 -187h-489l-82 -385h626zM623 1776l344 -287l-119 -137l-379 244z" />
    <glyph glyph-name="Eacute" unicode="&#xc9;" 
d="M784 0h-833l276 1305h834l-39 -187h-627l-78 -360h490l-39 -187h-489l-82 -385h626zM952 1596l-485 -244l-57 137l463 287z" />
    <glyph glyph-name="Ecircumflex" unicode="&#xca;" 
d="M784 0h-833l276 1305h834l-39 -187h-627l-78 -360h490l-39 -187h-489l-82 -385h626zM1002 1456l-101 -102l-198 205l-291 -207l-58 100l392 318z" />
    <glyph glyph-name="Edieresis" unicode="&#xcb;" 
d="M784 0h-833l276 1305h834l-39 -187h-627l-78 -360h490l-39 -187h-489l-82 -385h626zM983 1424h-252l54 252h251zM610 1424h-251l53 252h252z" />
    <glyph glyph-name="Igrave" unicode="&#xcc;" 
d="M684 0h-627l39 186h207l199 932h-207l39 187h627l-39 -187h-213l-199 -932h213zM623 1776l344 -287l-119 -137l-379 244z" />
    <glyph glyph-name="Iacute" unicode="&#xcd;" 
d="M684 0h-627l39 186h207l199 932h-207l39 187h627l-39 -187h-213l-199 -932h213zM952 1596l-485 -244l-57 137l463 287z" />
    <glyph glyph-name="Icircumflex" unicode="&#xce;" 
d="M684 0h-627l39 186h207l199 932h-207l39 187h627l-39 -187h-213l-199 -932h213zM1002 1456l-101 -102l-198 205l-291 -207l-58 100l392 318z" />
    <glyph glyph-name="Idieresis" unicode="&#xcf;" 
d="M684 0h-627l39 186h207l199 932h-207l39 187h627l-39 -187h-213l-199 -932h213zM983 1424h-252l54 252h251zM610 1424h-251l53 252h252z" />
    <glyph glyph-name="Eth" unicode="&#xd0;" 
d="M-55 758h166l116 547h424q133 0 217 -53.5t125 -142.5t45 -207t-24 -249q-27 -131 -80 -249.5t-132 -208t-185.5 -142.5t-241.5 -53h-424l121 571h-166zM807 653q49 226 -2 345.5t-193 119.5h-217l-78 -360h185l-39 -187h-184l-82 -385h217q141 0 243.5 122t149.5 345z
" />
    <glyph glyph-name="Ntilde" unicode="&#xd1;" 
d="M784 0h-239l-187 946l-200 -946h-207l276 1305h260l177 -899l190 899h207zM1120 1616q-67 -96 -147 -150.5t-172 -54.5q-49 0 -80 18.5t-56.5 40t-51 40t-62.5 18.5q-51 0 -93 -31.5t-87 -87.5l-107 70q68 94 148 148.5t172 54.5q49 0 79.5 -18.5t56.5 -40t51.5 -40
t62.5 -18.5q51 0 93 31.5t87 89.5z" />
    <glyph glyph-name="Ograve" unicode="&#xd2;" 
d="M6 653q29 131 82 253t133 215t186.5 149.5t241.5 56.5t219 -56.5t124 -149.5t41 -215t-27 -253q-27 -131 -80.5 -252.5t-132 -216t-186 -151t-245.5 -56.5q-137 0 -220 56.5t-122.5 151t-39.5 216t26 252.5zM213 653q-18 -88 -23.5 -176t12 -157.5t65.5 -112.5t136 -43
q89 0 153.5 43t112.5 112.5t79.5 157.5t50.5 176q18 88 24 175t-12 157t-66.5 113t-134.5 43q-143 0 -245.5 -129t-151.5 -359zM623 1776l344 -287l-119 -137l-379 244z" />
    <glyph glyph-name="Oacute" unicode="&#xd3;" 
d="M6 653q29 131 82 253t133 215t186.5 149.5t241.5 56.5t219 -56.5t124 -149.5t41 -215t-27 -253q-27 -131 -80.5 -252.5t-132 -216t-186 -151t-245.5 -56.5q-137 0 -220 56.5t-122.5 151t-39.5 216t26 252.5zM213 653q-18 -88 -23.5 -176t12 -157.5t65.5 -112.5t136 -43
q89 0 153.5 43t112.5 112.5t79.5 157.5t50.5 176q18 88 24 175t-12 157t-66.5 113t-134.5 43q-143 0 -245.5 -129t-151.5 -359zM952 1596l-485 -244l-57 137l463 287z" />
    <glyph glyph-name="Ocircumflex" unicode="&#xd4;" 
d="M6 653q29 131 82 253t133 215t186.5 149.5t241.5 56.5t219 -56.5t124 -149.5t41 -215t-27 -253q-27 -131 -80.5 -252.5t-132 -216t-186 -151t-245.5 -56.5q-137 0 -220 56.5t-122.5 151t-39.5 216t26 252.5zM213 653q-18 -88 -23.5 -176t12 -157.5t65.5 -112.5t136 -43
q89 0 153.5 43t112.5 112.5t79.5 157.5t50.5 176q18 88 24 175t-12 157t-66.5 113t-134.5 43q-143 0 -245.5 -129t-151.5 -359zM1002 1456l-101 -102l-198 205l-291 -207l-58 100l392 318z" />
    <glyph glyph-name="Otilde" unicode="&#xd5;" 
d="M6 653q29 131 82 253t133 215t186.5 149.5t241.5 56.5t219 -56.5t124 -149.5t41 -215t-27 -253q-27 -131 -80.5 -252.5t-132 -216t-186 -151t-245.5 -56.5q-137 0 -220 56.5t-122.5 151t-39.5 216t26 252.5zM213 653q-18 -88 -23.5 -176t12 -157.5t65.5 -112.5t136 -43
q89 0 153.5 43t112.5 112.5t79.5 157.5t50.5 176q18 88 24 175t-12 157t-66.5 113t-134.5 43q-143 0 -245.5 -129t-151.5 -359zM1120 1616q-67 -96 -147 -150.5t-172 -54.5q-49 0 -80 18.5t-56.5 40t-51 40t-62.5 18.5q-51 0 -93 -31.5t-87 -87.5l-107 70q68 94 148 148.5
t172 54.5q49 0 79.5 -18.5t56.5 -40t51.5 -40t62.5 -18.5q51 0 93 31.5t87 89.5z" />
    <glyph glyph-name="Odieresis" unicode="&#xd6;" 
d="M6 653q29 131 82 253t133 215t186.5 149.5t241.5 56.5t219 -56.5t124 -149.5t41 -215t-27 -253q-27 -131 -80.5 -252.5t-132 -216t-186 -151t-245.5 -56.5q-137 0 -220 56.5t-122.5 151t-39.5 216t26 252.5zM213 653q-18 -88 -23.5 -176t12 -157.5t65.5 -112.5t136 -43
q89 0 153.5 43t112.5 112.5t79.5 157.5t50.5 176q18 88 24 175t-12 157t-66.5 113t-134.5 43q-143 0 -245.5 -129t-151.5 -359zM983 1424h-252l54 252h251zM610 1424h-251l53 252h252z" />
    <glyph glyph-name="multiply" unicode="&#xd7;" 
d="M915 748l-327 -270l213 -271l-146 -119l-211 271l-327 -271l-95 119l326 271l-211 270l146 119l213 -271l325 271z" />
    <glyph glyph-name="Oslash" unicode="&#xd8;" 
d="M6 653q29 131 82 253t133 215t186.5 149.5t241.5 56.5q133 0 215 -52t123 -142l162 133l-47 -222l-74 -61q16 -152 -22 -330q-27 -131 -80.5 -252.5t-132 -216t-186 -151t-245.5 -56.5q-129 0 -209.5 48.5t-121.5 132.5l-164 -138l45 222l74 61q-13 78 -5.5 167t25.5 183
zM213 653q-10 -47 -17.5 -92t-9.5 -90l625 514q-20 70 -67.5 113t-133.5 43q-143 0 -245.5 -129t-151.5 -359zM403 164q89 0 153.5 43t112.5 112.5t79.5 157.5t50.5 176q10 41 15 80t9 80l-616 -510q20 -63 66 -101t130 -38z" />
    <glyph glyph-name="Ugrave" unicode="&#xd9;" 
d="M883 465q-25 -111 -68 -201t-108.5 -153.5t-151.5 -98.5t-195 -35q-108 0 -178.5 35t-107.5 98.5t-43 154.5t18 202l178 838h207l-178 -840q-10 -49 -14 -101.5t7 -97.5t48 -73.5t104 -28.5q68 0 115 28.5t80 72.5t51.5 97.5t28.5 102.5l178 840h207zM623 1776l344 -287
l-119 -137l-379 244z" />
    <glyph glyph-name="Uacute" unicode="&#xda;" 
d="M883 465q-25 -111 -68 -201t-108.5 -153.5t-151.5 -98.5t-195 -35q-108 0 -178.5 35t-107.5 98.5t-43 154.5t18 202l178 838h207l-178 -840q-10 -49 -14 -101.5t7 -97.5t48 -73.5t104 -28.5q68 0 115 28.5t80 72.5t51.5 97.5t28.5 102.5l178 840h207zM952 1596l-485 -244
l-57 137l463 287z" />
    <glyph glyph-name="Ucircumflex" unicode="&#xdb;" 
d="M883 465q-25 -111 -68 -201t-108.5 -153.5t-151.5 -98.5t-195 -35q-108 0 -178.5 35t-107.5 98.5t-43 154.5t18 202l178 838h207l-178 -840q-10 -49 -14 -101.5t7 -97.5t48 -73.5t104 -28.5q68 0 115 28.5t80 72.5t51.5 97.5t28.5 102.5l178 840h207zM1002 1456
l-101 -102l-198 205l-291 -207l-58 100l392 318z" />
    <glyph glyph-name="Udieresis" unicode="&#xdc;" 
d="M883 465q-25 -111 -68 -201t-108.5 -153.5t-151.5 -98.5t-195 -35q-108 0 -178.5 35t-107.5 98.5t-43 154.5t18 202l178 838h207l-178 -840q-10 -49 -14 -101.5t7 -97.5t48 -73.5t104 -28.5q68 0 115 28.5t80 72.5t51.5 97.5t28.5 102.5l178 840h207zM983 1424h-252
l54 252h251zM610 1424h-251l53 252h252z" />
    <glyph glyph-name="Yacute" unicode="&#xdd;" 
d="M1092 1118h-95l-413 -586l-74 -346h209l-39 -186h-625l39 186h209l74 346l-164 586h-94l39 187h411l-39 -187h-90l84 -383l246 383h-90l39 187h411zM952 1596l-485 -244l-57 137l463 287z" />
    <glyph glyph-name="Thorn" unicode="&#xde;" 
d="M973 664q-41 -197 -180.5 -291t-352.5 -94h-225l-57 -279h-207l276 1305h207l-55 -256h223q215 0 313.5 -96.5t57.5 -288.5zM768 664q23 100 -33.5 149t-169.5 49h-225l-84 -397h225q113 0 190 48t97 151z" />
    <glyph glyph-name="germandbls" unicode="&#xdf;" 
d="M889 268q-12 -61 -50 -114.5t-93.5 -92t-125 -61.5t-145.5 -23q-98 0 -163.5 28t-121.5 81l152 162q43 -49 84 -66.5t90 -17.5q76 0 117 31.5t51 74.5q8 41 -15.5 71t-61.5 56.5t-84 53t-81.5 60.5t-56 79t-6.5 108q16 74 58 118t89 77t86 65.5t50 81.5q8 37 -8.5 69
t-84.5 32q-100 0 -151 -76t-82 -219l-178 -846h-207l178 844q16 76 47 161t85 156.5t139 118.5t208 47q76 0 131.5 -22.5t88 -60.5t43 -90t-4.5 -114q-16 -82 -59 -131t-90 -81.5t-85 -58.5t-46 -60q-6 -27 19.5 -48.5t64.5 -45t84 -52t80.5 -68.5t53 -95.5t1.5 -131.5z" />
    <glyph glyph-name="agrave" unicode="&#xe0;" 
d="M-47 268q18 82 75.5 143.5t137.5 102.5t176 61.5t193 20.5q53 0 91 -2t76 -6l7 37q16 73 -33 109t-141 36q-84 0 -175.5 -23.5t-179.5 -68.5l-49 162q102 53 215 83.5t229 30.5q76 0 146 -17t120 -56t71.5 -101.5t0.5 -154.5l-131 -625h-204l28 137q-65 -76 -169.5 -118
t-215.5 -42q-67 0 -123.5 18.5t-92.5 55.5t-51 91.5t-1 125.5zM313 162q62 0 118 15.5t103.5 43t79 66.5t41.5 86l9 35q-48 8 -91 9t-75 1q-152 0 -238 -40t-100 -99q-25 -117 153 -117zM543 1405l344 -287l-119 -137l-379 244z" />
    <glyph glyph-name="aacute" unicode="&#xe1;" 
d="M-47 268q18 82 75.5 143.5t137.5 102.5t176 61.5t193 20.5q53 0 91 -2t76 -6l7 37q16 73 -33 109t-141 36q-84 0 -175.5 -23.5t-179.5 -68.5l-49 162q102 53 215 83.5t229 30.5q76 0 146 -17t120 -56t71.5 -101.5t0.5 -154.5l-131 -625h-204l28 137q-65 -76 -169.5 -118
t-215.5 -42q-67 0 -123.5 18.5t-92.5 55.5t-51 91.5t-1 125.5zM313 162q62 0 118 15.5t103.5 43t79 66.5t41.5 86l9 35q-48 8 -91 9t-75 1q-152 0 -238 -40t-100 -99q-25 -117 153 -117zM872 1225l-485 -244l-57 137l463 287z" />
    <glyph glyph-name="acircumflex" unicode="&#xe2;" 
d="M-47 268q18 82 75.5 143.5t137.5 102.5t176 61.5t193 20.5q53 0 91 -2t76 -6l7 37q16 73 -33 109t-141 36q-84 0 -175.5 -23.5t-179.5 -68.5l-49 162q102 53 215 83.5t229 30.5q76 0 146 -17t120 -56t71.5 -101.5t0.5 -154.5l-131 -625h-204l28 137q-65 -76 -169.5 -118
t-215.5 -42q-67 0 -123.5 18.5t-92.5 55.5t-51 91.5t-1 125.5zM313 162q62 0 118 15.5t103.5 43t79 66.5t41.5 86l9 35q-48 8 -91 9t-75 1q-152 0 -238 -40t-100 -99q-25 -117 153 -117zM922 1085l-101 -102l-198 205l-291 -207l-58 100l392 318z" />
    <glyph glyph-name="atilde" unicode="&#xe3;" 
d="M-47 268q18 82 75.5 143.5t137.5 102.5t176 61.5t193 20.5q53 0 91 -2t76 -6l7 37q16 73 -33 109t-141 36q-84 0 -175.5 -23.5t-179.5 -68.5l-49 162q102 53 215 83.5t229 30.5q76 0 146 -17t120 -56t71.5 -101.5t0.5 -154.5l-131 -625h-204l28 137q-65 -76 -169.5 -118
t-215.5 -42q-67 0 -123.5 18.5t-92.5 55.5t-51 91.5t-1 125.5zM313 162q62 0 118 15.5t103.5 43t79 66.5t41.5 86l9 35q-48 8 -91 9t-75 1q-152 0 -238 -40t-100 -99q-25 -117 153 -117zM1040 1245q-67 -96 -147 -150.5t-172 -54.5q-49 0 -80 18.5t-56.5 40t-51 40
t-62.5 18.5q-51 0 -93 -31.5t-87 -87.5l-107 70q68 94 148 148.5t172 54.5q49 0 79.5 -18.5t56.5 -40t51.5 -40t62.5 -18.5q51 0 93 31.5t87 89.5z" />
    <glyph glyph-name="adieresis" unicode="&#xe4;" 
d="M-47 268q18 82 75.5 143.5t137.5 102.5t176 61.5t193 20.5q53 0 91 -2t76 -6l7 37q16 73 -33 109t-141 36q-84 0 -175.5 -23.5t-179.5 -68.5l-49 162q102 53 215 83.5t229 30.5q76 0 146 -17t120 -56t71.5 -101.5t0.5 -154.5l-131 -625h-204l28 137q-65 -76 -169.5 -118
t-215.5 -42q-67 0 -123.5 18.5t-92.5 55.5t-51 91.5t-1 125.5zM313 162q62 0 118 15.5t103.5 43t79 66.5t41.5 86l9 35q-48 8 -91 9t-75 1q-152 0 -238 -40t-100 -99q-25 -117 153 -117zM903 1053h-252l54 252h251zM530 1053h-251l53 252h252z" />
    <glyph glyph-name="aring" unicode="&#xe5;" 
d="M-47 268q18 82 75.5 143.5t137.5 102.5t176 61.5t193 20.5q53 0 91 -2t76 -6l7 37q16 73 -33 109t-141 36q-84 0 -175.5 -23.5t-179.5 -68.5l-49 162q102 53 215 83.5t229 30.5q76 0 146 -17t120 -56t71.5 -101.5t0.5 -154.5l-131 -625h-204l28 137q-65 -76 -169.5 -118
t-215.5 -42q-67 0 -123.5 18.5t-92.5 55.5t-51 91.5t-1 125.5zM313 162q62 0 118 15.5t103.5 43t79 66.5t41.5 86l9 35q-48 8 -91 9t-75 1q-152 0 -238 -40t-100 -99q-25 -117 153 -117zM410 1257q10 48 35.5 88.5t63.5 71.5t82 48.5t91 17.5t85 -17.5t61.5 -48.5
t32.5 -71.5t-1 -88.5q-10 -47 -35.5 -88t-63.5 -71.5t-82 -48t-91 -17.5t-85 17.5t-61.5 48t-33 71.5t1.5 88zM543 1257q-8 -38 12 -65t59 -27t72 27t41 65q8 39 -12.5 66t-59.5 27t-71.5 -27t-40.5 -66z" />
    <glyph glyph-name="ae" unicode="&#xe6;" 
d="M379 131q-53 -65 -113.5 -109.5t-140.5 -44.5q-62 0 -101.5 23t-63 60.5t-30 88t6.5 105.5q16 80 54 141.5t90 102.5t114.5 61.5t126.5 20.5q22 0 36.5 -1t36.5 -6l13 60q16 74 -5.5 105.5t-66.5 31.5q-35 0 -81 -18.5t-95 -77.5l-99 119q74 86 159 123.5t147 37.5
q71 0 121.5 -28.5t58.5 -100.5q49 68 106.5 98.5t126.5 30.5q94 0 136 -50t53.5 -130t-3 -181t-36.5 -206h-387q-27 -125 -2.5 -172t69.5 -47q33 0 59.5 18.5t45.5 61.5l162 -58q-58 -108 -131.5 -160.5t-176.5 -52.5q-28 0 -58 7.5t-56.5 25t-47 47t-28.5 74.5zM762 569
q20 119 7 160t-52 41q-43 0 -76 -45t-59 -156h180zM356 391q-12 2 -25.5 3t-35.5 1q-49 0 -95 -34.5t-59 -96.5q-10 -51 5.5 -74.5t48.5 -23.5q55 0 95 49t54 115z" />
    <glyph glyph-name="ccedilla" unicode="&#xe7;" 
d="M825 133q-86 -72 -168 -105.5t-170 -43.5l-6 -25q-14 -70 -51 -130t-91 -104t-124 -70t-152 -26l39 178q88 0 138.5 40t64.5 112l6 23q-198 22 -287.5 150t-43.5 333q22 106 77.5 196.5t129 155t163.5 101t182 36.5q97 0 158.5 -40t77.5 -117l29 135h184l-92 -434h-184
q26 123 -26 196.5t-161 73.5q-43 0 -93 -17.5t-98 -54.5t-86 -94t-55 -137q-16 -78 -3.5 -134.5t45 -93t85 -55t111.5 -18.5q100 0 181 31.5t145 83.5z" />
    <glyph glyph-name="egrave" unicode="&#xe8;" 
d="M174 387q-6 -96 57.5 -159.5t192.5 -63.5q100 0 181 31.5t145 83.5l75 -146q-108 -90 -215.5 -123t-226.5 -33q-109 0 -194 36t-139 100.5t-74.5 153.5t4.5 198q22 106 76.5 195.5t133 155t177 102t206.5 36.5q113 0 196 -38.5t133 -111.5t64.5 -178.5t-12.5 -238.5h-780
zM760 569q2 90 -63.5 144.5t-164.5 54.5q-98 0 -187 -54.5t-124 -144.5h539zM543 1405l344 -287l-119 -137l-379 244z" />
    <glyph glyph-name="eacute" unicode="&#xe9;" 
d="M174 387q-6 -96 57.5 -159.5t192.5 -63.5q100 0 181 31.5t145 83.5l75 -146q-108 -90 -215.5 -123t-226.5 -33q-109 0 -194 36t-139 100.5t-74.5 153.5t4.5 198q22 106 76.5 195.5t133 155t177 102t206.5 36.5q113 0 196 -38.5t133 -111.5t64.5 -178.5t-12.5 -238.5h-780
zM760 569q2 90 -63.5 144.5t-164.5 54.5q-98 0 -187 -54.5t-124 -144.5h539zM872 1225l-485 -244l-57 137l463 287z" />
    <glyph glyph-name="ecircumflex" unicode="&#xea;" 
d="M174 387q-6 -96 57.5 -159.5t192.5 -63.5q100 0 181 31.5t145 83.5l75 -146q-108 -90 -215.5 -123t-226.5 -33q-109 0 -194 36t-139 100.5t-74.5 153.5t4.5 198q22 106 76.5 195.5t133 155t177 102t206.5 36.5q113 0 196 -38.5t133 -111.5t64.5 -178.5t-12.5 -238.5h-780
zM760 569q2 90 -63.5 144.5t-164.5 54.5q-98 0 -187 -54.5t-124 -144.5h539zM922 1085l-101 -102l-198 205l-291 -207l-58 100l392 318z" />
    <glyph glyph-name="edieresis" unicode="&#xeb;" 
d="M174 387q-6 -96 57.5 -159.5t192.5 -63.5q100 0 181 31.5t145 83.5l75 -146q-108 -90 -215.5 -123t-226.5 -33q-109 0 -194 36t-139 100.5t-74.5 153.5t4.5 198q22 106 76.5 195.5t133 155t177 102t206.5 36.5q113 0 196 -38.5t133 -111.5t64.5 -178.5t-12.5 -238.5h-780
zM760 569q2 90 -63.5 144.5t-164.5 54.5q-98 0 -187 -54.5t-124 -144.5h539zM903 1053h-252l54 252h251zM530 1053h-251l53 252h252z" />
    <glyph glyph-name="igrave" unicode="&#xec;" 
d="M684 0h-627l39 186h207l119 559h-207l39 187h414l-158 -746h213zM543 1405l344 -287l-119 -137l-379 244z" />
    <glyph glyph-name="iacute" unicode="&#xed;" 
d="M684 0h-627l39 186h207l119 559h-207l39 187h414l-158 -746h213zM872 1225l-485 -244l-57 137l463 287z" />
    <glyph glyph-name="icircumflex" unicode="&#xee;" 
d="M684 0h-627l39 186h207l119 559h-207l39 187h414l-158 -746h213zM922 1085l-101 -102l-198 205l-291 -207l-58 100l392 318z" />
    <glyph glyph-name="idieresis" unicode="&#xef;" 
d="M684 0h-627l39 186h207l119 559h-207l39 187h414l-158 -746h213zM903 1053h-252l54 252h251zM530 1053h-251l53 252h252z" />
    <glyph glyph-name="eth" unicode="&#xf0;" 
d="M342 977l133 110q-31 17 -62.5 31.5t-66.5 28.5l100 180q54 -22 103 -47t96 -53l176 145l92 -121l-139 -114q60 -52 105 -113t71.5 -135t31.5 -161t-17 -191q-27 -129 -85.5 -232.5t-141.5 -176.5t-187.5 -112t-224.5 -39q-205 0 -307.5 96.5t-63.5 280.5
q22 103 88 183.5t167 142t235.5 103.5t293.5 67q-43 88 -125 154l-180 -148zM758 537q16 71 16 133q-260 -23 -422 -105t-190 -211q-19 -92 35.5 -141t169.5 -49q139 0 245.5 96t145.5 277z" />
    <glyph glyph-name="ntilde" unicode="&#xf1;" 
d="M784 0h-206l120 575q23 109 -9 151t-109 42q-115 0 -207 -93t-127 -257l-88 -418h-207l196 932h207l-49 -234q57 121 155.5 188.5t221.5 67.5q143 0 203.5 -93t19.5 -286zM1040 1245q-67 -96 -147 -150.5t-172 -54.5q-49 0 -80 18.5t-56.5 40t-51 40t-62.5 18.5
q-51 0 -93 -31.5t-87 -87.5l-107 70q68 94 148 148.5t172 54.5q49 0 79.5 -18.5t56.5 -40t51.5 -40t62.5 -18.5q51 0 93 31.5t87 89.5z" />
    <glyph glyph-name="ograve" unicode="&#xf2;" 
d="M956 465q-24 -109 -77.5 -198t-131 -153.5t-176 -100.5t-209.5 -36q-108 0 -190 36t-133 100.5t-67.5 153.5t8.5 198q22 106 76.5 196.5t132 156t176 101t206.5 35.5q111 0 193 -35.5t133 -101t66.5 -156t-7.5 -196.5zM750 465q12 63 5 119.5t-36 96.5t-76 63.5
t-113 23.5q-65 0 -122.5 -23.5t-101.5 -63.5t-75.5 -96.5t-44.5 -119.5q-14 -66 -6 -120t35 -95t75 -63.5t113 -22.5q66 0 122.5 22.5t102.5 63.5t76.5 95t45.5 120zM543 1405l344 -287l-119 -137l-379 244z" />
    <glyph glyph-name="oacute" unicode="&#xf3;" 
d="M956 465q-24 -109 -77.5 -198t-131 -153.5t-176 -100.5t-209.5 -36q-108 0 -190 36t-133 100.5t-67.5 153.5t8.5 198q22 106 76.5 196.5t132 156t176 101t206.5 35.5q111 0 193 -35.5t133 -101t66.5 -156t-7.5 -196.5zM750 465q12 63 5 119.5t-36 96.5t-76 63.5
t-113 23.5q-65 0 -122.5 -23.5t-101.5 -63.5t-75.5 -96.5t-44.5 -119.5q-14 -66 -6 -120t35 -95t75 -63.5t113 -22.5q66 0 122.5 22.5t102.5 63.5t76.5 95t45.5 120zM872 1225l-485 -244l-57 137l463 287z" />
    <glyph glyph-name="ocircumflex" unicode="&#xf4;" 
d="M956 465q-24 -109 -77.5 -198t-131 -153.5t-176 -100.5t-209.5 -36q-108 0 -190 36t-133 100.5t-67.5 153.5t8.5 198q22 106 76.5 196.5t132 156t176 101t206.5 35.5q111 0 193 -35.5t133 -101t66.5 -156t-7.5 -196.5zM750 465q12 63 5 119.5t-36 96.5t-76 63.5
t-113 23.5q-65 0 -122.5 -23.5t-101.5 -63.5t-75.5 -96.5t-44.5 -119.5q-14 -66 -6 -120t35 -95t75 -63.5t113 -22.5q66 0 122.5 22.5t102.5 63.5t76.5 95t45.5 120zM922 1085l-101 -102l-198 205l-291 -207l-58 100l392 318z" />
    <glyph glyph-name="otilde" unicode="&#xf5;" 
d="M956 465q-24 -109 -77.5 -198t-131 -153.5t-176 -100.5t-209.5 -36q-108 0 -190 36t-133 100.5t-67.5 153.5t8.5 198q22 106 76.5 196.5t132 156t176 101t206.5 35.5q111 0 193 -35.5t133 -101t66.5 -156t-7.5 -196.5zM750 465q12 63 5 119.5t-36 96.5t-76 63.5
t-113 23.5q-65 0 -122.5 -23.5t-101.5 -63.5t-75.5 -96.5t-44.5 -119.5q-14 -66 -6 -120t35 -95t75 -63.5t113 -22.5q66 0 122.5 22.5t102.5 63.5t76.5 95t45.5 120zM1040 1245q-67 -96 -147 -150.5t-172 -54.5q-49 0 -80 18.5t-56.5 40t-51 40t-62.5 18.5q-51 0 -93 -31.5
t-87 -87.5l-107 70q68 94 148 148.5t172 54.5q49 0 79.5 -18.5t56.5 -40t51.5 -40t62.5 -18.5q51 0 93 31.5t87 89.5z" />
    <glyph glyph-name="odieresis" unicode="&#xf6;" 
d="M956 465q-24 -109 -77.5 -198t-131 -153.5t-176 -100.5t-209.5 -36q-108 0 -190 36t-133 100.5t-67.5 153.5t8.5 198q22 106 76.5 196.5t132 156t176 101t206.5 35.5q111 0 193 -35.5t133 -101t66.5 -156t-7.5 -196.5zM750 465q12 63 5 119.5t-36 96.5t-76 63.5
t-113 23.5q-65 0 -122.5 -23.5t-101.5 -63.5t-75.5 -96.5t-44.5 -119.5q-14 -66 -6 -120t35 -95t75 -63.5t113 -22.5q66 0 122.5 22.5t102.5 63.5t76.5 95t45.5 120zM903 1053h-252l54 252h251zM530 1053h-251l53 252h252z" />
    <glyph glyph-name="divide" unicode="&#xf7;" 
d="M647 725h-252l53 252h252zM489 -20h-252l54 252h252zM915 385h-931l38 187h932z" />
    <glyph glyph-name="oslash" unicode="&#xf8;" 
d="M-61 180l47 33q-19 53 -22 116.5t13 135.5q23 106 78.5 196.5t133 156t176 101t206.5 35.5q99 0 174.5 -30.5t128.5 -83.5l162 114l-43 -202l-47 -33q17 -55 20 -118.5t-12 -135.5q-24 -109 -77.5 -198t-131 -153.5t-175 -100.5t-208.5 -36q-100 0 -176.5 30t-128.5 83
l-159 -113zM748 465q12 63 6 119l-516 -365q28 -26 70 -40.5t95 -14.5q66 0 122.5 22.5t101.5 63.5t75.5 95t45.5 120zM184 465q-14 -66 -6 -117l512 363q-57 57 -160 57q-65 0 -122.5 -23.5t-102.5 -63.5t-76.5 -96.5t-44.5 -119.5z" />
    <glyph glyph-name="ugrave" unicode="&#xf9;" 
d="M147 932h207l-123 -576q-22 -108 10.5 -150t110.5 -42q115 0 207 93t127 257l88 418h207l-197 -932h-206l49 233q-58 -120 -156 -188t-221 -68q-144 0 -204 93.5t-21 285.5zM543 1405l344 -287l-119 -137l-379 244z" />
    <glyph glyph-name="uacute" unicode="&#xfa;" 
d="M147 932h207l-123 -576q-22 -108 10.5 -150t110.5 -42q115 0 207 93t127 257l88 418h207l-197 -932h-206l49 233q-58 -120 -156 -188t-221 -68q-144 0 -204 93.5t-21 285.5zM872 1225l-485 -244l-57 137l463 287z" />
    <glyph glyph-name="ucircumflex" unicode="&#xfb;" 
d="M147 932h207l-123 -576q-22 -108 10.5 -150t110.5 -42q115 0 207 93t127 257l88 418h207l-197 -932h-206l49 233q-58 -120 -156 -188t-221 -68q-144 0 -204 93.5t-21 285.5zM922 1085l-101 -102l-198 205l-291 -207l-58 100l392 318z" />
    <glyph glyph-name="udieresis" unicode="&#xfc;" 
d="M147 932h207l-123 -576q-22 -108 10.5 -150t110.5 -42q115 0 207 93t127 257l88 418h207l-197 -932h-206l49 233q-58 -120 -156 -188t-221 -68q-144 0 -204 93.5t-21 285.5zM903 1053h-252l54 252h251zM530 1053h-251l53 252h252z" />
    <glyph glyph-name="yacute" unicode="&#xfd;" 
d="M1022 932l-637 -1114q-72 -121 -167 -166t-214 -45q-41 0 -86 8t-92 27l82 190q39 -16 73.5 -22.5t63.5 -6.5q92 0 145 82l56 90l-154 957h215l107 -705l387 705h221zM872 1225l-485 -244l-57 137l463 287z" />
    <glyph glyph-name="thorn" unicode="&#xfe;" 
d="M227 1305h207l-98 -457q72 53 138.5 79.5t143.5 26.5q91 0 159.5 -36.5t110.5 -101t54 -155t-10 -196.5q-23 -107 -74 -197t-119.5 -154.5t-153.5 -100.5t-175 -36q-78 0 -132.5 28t-103.5 81l-96 -459h-205zM209 248q29 -41 82 -62.5t106 -21.5q117 0 208 83t120 218
t-27.5 219t-173.5 84q-53 0 -114.5 -21.5t-108.5 -62.5z" />
    <glyph glyph-name="ydieresis" unicode="&#xff;" 
d="M1022 932l-637 -1114q-72 -121 -167 -166t-214 -45q-41 0 -86 8t-92 27l82 190q39 -16 73.5 -22.5t63.5 -6.5q92 0 145 82l56 90l-154 957h215l107 -705l387 705h221zM903 1053h-252l54 252h251zM530 1053h-251l53 252h252z" />
    <glyph glyph-name="Amacron" unicode="&#x100;" 
d="M678 0l-29 311h-432l-158 -311h-217l684 1305h238l131 -1305h-217zM311 494h322l-45 538zM948 1415h-559l37 175h559z" />
    <glyph glyph-name="amacron" unicode="&#x101;" 
d="M-47 268q18 82 75.5 143.5t137.5 102.5t176 61.5t193 20.5q53 0 91 -2t76 -6l7 37q16 73 -33 109t-141 36q-84 0 -175.5 -23.5t-179.5 -68.5l-49 162q102 53 215 83.5t229 30.5q76 0 146 -17t120 -56t71.5 -101.5t0.5 -154.5l-131 -625h-204l28 137q-65 -76 -169.5 -118
t-215.5 -42q-67 0 -123.5 18.5t-92.5 55.5t-51 91.5t-1 125.5zM313 162q62 0 118 15.5t103.5 43t79 66.5t41.5 86l9 35q-48 8 -91 9t-75 1q-152 0 -238 -40t-100 -99q-25 -117 153 -117zM868 1044h-559l37 175h559z" />
    <glyph glyph-name="Abreve" unicode="&#x102;" 
d="M678 0l-29 311h-432l-158 -311h-217l684 1305h238l131 -1305h-217zM311 494h322l-45 538zM1024 1538q-164 -135 -356 -135q-193 0 -299 135l145 119q74 -94 187 -94q112 0 227 94z" />
    <glyph glyph-name="abreve" unicode="&#x103;" 
d="M-47 268q18 82 75.5 143.5t137.5 102.5t176 61.5t193 20.5q53 0 91 -2t76 -6l7 37q16 73 -33 109t-141 36q-84 0 -175.5 -23.5t-179.5 -68.5l-49 162q102 53 215 83.5t229 30.5q76 0 146 -17t120 -56t71.5 -101.5t0.5 -154.5l-131 -625h-204l28 137q-65 -76 -169.5 -118
t-215.5 -42q-67 0 -123.5 18.5t-92.5 55.5t-51 91.5t-1 125.5zM313 162q62 0 118 15.5t103.5 43t79 66.5t41.5 86l9 35q-48 8 -91 9t-75 1q-152 0 -238 -40t-100 -99q-25 -117 153 -117zM944 1167q-164 -135 -356 -135q-193 0 -299 135l145 119q74 -94 187 -94q112 0 227 94
z" />
    <glyph glyph-name="Aogonek" unicode="&#x104;" 
d="M926 -379q-135 0 -201 59.5t-41 178.5q8 41 30.5 76.5t53.5 64.5h-90l-29 311h-432l-158 -311h-217l684 1305h238l131 -1305q-49 -43 -61 -104q-15 -64 22 -95.5t100 -31.5zM311 494h322l-45 538z" />
    <glyph glyph-name="aogonek" unicode="&#x105;" 
d="M578 0l28 137q-65 -76 -169.5 -118t-215.5 -42q-67 0 -123.5 18.5t-92.5 55.5t-51 91.5t-1 125.5q18 82 75.5 143.5t137.5 102.5t176 61.5t193 20.5q53 0 91 -2t76 -6l7 37q16 73 -33 109t-141 36q-84 0 -175.5 -23.5t-179.5 -68.5l-49 162q102 53 215 83.5t229 30.5
q76 0 146 -17t120 -56t71.5 -101.5t0.5 -154.5l-131 -625q-49 -43 -61 -104q-14 -64 22.5 -95.5t100.5 -31.5l-31 -148q-135 0 -200.5 59.5t-41.5 178.5q9 41 31.5 76.5t52.5 64.5h-77zM313 162q62 0 118 15.5t103.5 43t79 66.5t41.5 86l9 35q-48 8 -91 9t-75 1
q-152 0 -238 -40t-100 -99q-25 -117 153 -117z" />
    <glyph glyph-name="Cacute" unicode="&#x106;" 
d="M938 399q-45 -96 -101.5 -174t-126 -133t-152.5 -85t-181 -30q-137 0 -220 56.5t-124 151t-41 216t26 252.5q29 131 81.5 253t132 215t183 149.5t236.5 56.5q43 0 85 -11t75 -33.5t54.5 -55.5t25.5 -76l33 154h186l-104 -494h-187q12 61 9 120.5t-25.5 105.5t-66.5 75
t-111 29q-88 0 -153.5 -43t-114 -113t-81 -157t-51.5 -175q-18 -88 -23 -176t12 -157.5t66.5 -112.5t137.5 -43q127 0 212 81t156 218zM952 1600l-485 -244l-57 137l463 287z" />
    <glyph glyph-name="cacute" unicode="&#x107;" 
d="M825 133q-108 -90 -214.5 -123t-223.5 -33t-205 35t-140 98.5t-69.5 153.5t7.5 201q22 106 77.5 196.5t129 155t163.5 101t182 36.5q97 0 158.5 -40t77.5 -117l29 135h184l-92 -434h-184q26 123 -26 196.5t-161 73.5q-43 0 -93 -17.5t-98 -54.5t-86 -94t-55 -137
q-16 -78 -3.5 -134.5t45 -93t85 -55t111.5 -18.5q100 0 181 31.5t145 83.5zM872 1227l-485 -244l-57 137l463 287z" />
    <glyph glyph-name="Ccircumflex" unicode="&#x108;" 
d="M938 399q-45 -96 -101.5 -174t-126 -133t-152.5 -85t-181 -30q-137 0 -220 56.5t-124 151t-41 216t26 252.5q29 131 81.5 253t132 215t183 149.5t236.5 56.5q43 0 85 -11t75 -33.5t54.5 -55.5t25.5 -76l33 154h186l-104 -494h-187q12 61 9 120.5t-25.5 105.5t-66.5 75
t-111 29q-88 0 -153.5 -43t-114 -113t-81 -157t-51.5 -175q-18 -88 -23 -176t12 -157.5t66.5 -112.5t137.5 -43q127 0 212 81t156 218zM1002 1460l-101 -102l-198 205l-291 -207l-58 100l392 318z" />
    <glyph glyph-name="ccircumflex" unicode="&#x109;" 
d="M825 133q-108 -90 -214.5 -123t-223.5 -33t-205 35t-140 98.5t-69.5 153.5t7.5 201q22 106 77.5 196.5t129 155t163.5 101t182 36.5q97 0 158.5 -40t77.5 -117l29 135h184l-92 -434h-184q26 123 -26 196.5t-161 73.5q-43 0 -93 -17.5t-98 -54.5t-86 -94t-55 -137
q-16 -78 -3.5 -134.5t45 -93t85 -55t111.5 -18.5q100 0 181 31.5t145 83.5zM922 1087l-101 -102l-198 205l-291 -207l-58 100l392 318z" />
    <glyph glyph-name="Cdotaccent" unicode="&#x10a;" 
d="M938 399q-45 -96 -101.5 -174t-126 -133t-152.5 -85t-181 -30q-137 0 -220 56.5t-124 151t-41 216t26 252.5q29 131 81.5 253t132 215t183 149.5t236.5 56.5q43 0 85 -11t75 -33.5t54.5 -55.5t25.5 -76l33 154h186l-104 -494h-187q12 61 9 120.5t-25.5 105.5t-66.5 75
t-111 29q-88 0 -153.5 -43t-114 -113t-81 -157t-51.5 -175q-18 -88 -23 -176t12 -157.5t66.5 -112.5t137.5 -43q127 0 212 81t156 218zM797 1424h-252l53 252h252z" />
    <glyph glyph-name="cdotaccent" unicode="&#x10b;" 
d="M825 133q-108 -90 -214.5 -123t-223.5 -33t-205 35t-140 98.5t-69.5 153.5t7.5 201q22 106 77.5 196.5t129 155t163.5 101t182 36.5q97 0 158.5 -40t77.5 -117l29 135h184l-92 -434h-184q26 123 -26 196.5t-161 73.5q-43 0 -93 -17.5t-98 -54.5t-86 -94t-55 -137
q-16 -78 -3.5 -134.5t45 -93t85 -55t111.5 -18.5q100 0 181 31.5t145 83.5zM717 1053h-252l53 252h252z" />
    <glyph glyph-name="Ccaron" unicode="&#x10c;" 
d="M938 399q-45 -96 -101.5 -174t-126 -133t-152.5 -85t-181 -30q-137 0 -220 56.5t-124 151t-41 216t26 252.5q29 131 81.5 253t132 215t183 149.5t236.5 56.5q43 0 85 -11t75 -33.5t54.5 -55.5t25.5 -76l33 154h186l-104 -494h-187q12 61 9 120.5t-25.5 105.5t-66.5 75
t-111 29q-88 0 -153.5 -43t-114 -113t-81 -157t-51.5 -175q-18 -88 -23 -176t12 -157.5t66.5 -112.5t137.5 -43q127 0 212 81t156 218zM655 1356l-256 317l103 101l201 -207l284 205l60 -103z" />
    <glyph glyph-name="ccaron" unicode="&#x10d;" 
d="M825 133q-108 -90 -214.5 -123t-223.5 -33t-205 35t-140 98.5t-69.5 153.5t7.5 201q22 106 77.5 196.5t129 155t163.5 101t182 36.5q97 0 158.5 -40t77.5 -117l29 135h184l-92 -434h-184q26 123 -26 196.5t-161 73.5q-43 0 -93 -17.5t-98 -54.5t-86 -94t-55 -137
q-16 -78 -3.5 -134.5t45 -93t85 -55t111.5 -18.5q100 0 181 31.5t145 83.5zM575 983l-256 317l103 101l201 -207l284 205l60 -103z" />
    <glyph glyph-name="Dcaron" unicode="&#x10e;" 
d="M1014 653q-27 -131 -80 -249.5t-132 -208t-185.5 -142.5t-241.5 -53h-424l276 1305h424q133 0 217 -53.5t125 -142.5t45 -207t-24 -249zM807 653q49 226 -2 345.5t-193 119.5h-217l-198 -932h217q141 0 243.5 122t149.5 345zM655 1356l-256 317l103 101l201 -207l284 205
l60 -103z" />
    <glyph glyph-name="dcaron" unicode="&#x10f;" 
d="M668 0h-207l16 86q-61 -53 -120.5 -81t-125.5 -28q-77 0 -133.5 36t-91.5 100.5t-42 154.5t16 197q22 106 68 196.5t107.5 155t134 101t150.5 36.5q66 0 113 -26.5t86 -79.5l59 270h-186l39 187h393zM604 684q-18 41 -60 62.5t-85 21.5q-92 0 -168 -84t-105 -219
q-28 -135 13 -218t133 -83q43 0 93 21.5t87 62.5zM1294 1304l-200 -557h-162l117 557h245z" />
    <glyph glyph-name="Dcroat" unicode="&#x110;" 
d="M-55 758h166l116 547h424q133 0 217 -53.5t125 -142.5t45 -207t-24 -249q-27 -131 -80 -249.5t-132 -208t-185.5 -142.5t-241.5 -53h-424l121 571h-166zM807 653q49 226 -2 345.5t-193 119.5h-217l-78 -360h185l-39 -187h-184l-82 -385h217q141 0 243.5 122t149.5 345z
" />
    <glyph glyph-name="dcroat" unicode="&#x111;" 
d="M1165 989h-172l-209 -989h-206l16 86q-70 -53 -137.5 -81t-145.5 -28q-90 0 -158.5 36t-110.5 100.5t-54.5 154.5t10.5 197q22 106 73.5 196.5t120 155t153.5 101t175 36.5q78 0 133.5 -26.5t102.5 -79.5l30 141h-180l37 174h180l31 142h207l-31 -142h172zM721 684
q-27 41 -81 62.5t-108 21.5q-116 0 -207.5 -84t-119.5 -219q-29 -135 27.5 -218t173.5 -83q53 0 115.5 21.5t107.5 62.5z" />
    <glyph glyph-name="Emacron" unicode="&#x112;" 
d="M784 0h-833l276 1305h834l-39 -187h-627l-78 -360h490l-39 -187h-489l-82 -385h626zM948 1415h-559l37 175h559z" />
    <glyph glyph-name="emacron" unicode="&#x113;" 
d="M174 387q-6 -96 57.5 -159.5t192.5 -63.5q100 0 181 31.5t145 83.5l75 -146q-108 -90 -215.5 -123t-226.5 -33q-109 0 -194 36t-139 100.5t-74.5 153.5t4.5 198q22 106 76.5 195.5t133 155t177 102t206.5 36.5q113 0 196 -38.5t133 -111.5t64.5 -178.5t-12.5 -238.5h-780
zM760 569q2 90 -63.5 144.5t-164.5 54.5q-98 0 -187 -54.5t-124 -144.5h539zM868 1044h-559l37 175h559z" />
    <glyph glyph-name="Ebreve" unicode="&#x114;" 
d="M784 0h-833l276 1305h834l-39 -187h-627l-78 -360h490l-39 -187h-489l-82 -385h626zM1024 1538q-164 -135 -356 -135q-193 0 -299 135l145 119q74 -94 187 -94q112 0 227 94z" />
    <glyph glyph-name="ebreve" unicode="&#x115;" 
d="M174 387q-6 -96 57.5 -159.5t192.5 -63.5q100 0 181 31.5t145 83.5l75 -146q-108 -90 -215.5 -123t-226.5 -33q-109 0 -194 36t-139 100.5t-74.5 153.5t4.5 198q22 106 76.5 195.5t133 155t177 102t206.5 36.5q113 0 196 -38.5t133 -111.5t64.5 -178.5t-12.5 -238.5h-780
zM760 569q2 90 -63.5 144.5t-164.5 54.5q-98 0 -187 -54.5t-124 -144.5h539zM944 1167q-164 -135 -356 -135q-193 0 -299 135l145 119q74 -94 187 -94q112 0 227 94z" />
    <glyph glyph-name="Edotaccent" unicode="&#x116;" 
d="M784 0h-833l276 1305h834l-39 -187h-627l-78 -360h490l-39 -187h-489l-82 -385h626zM797 1424h-252l53 252h252z" />
    <glyph glyph-name="edotaccent" unicode="&#x117;" 
d="M174 387q-6 -96 57.5 -159.5t192.5 -63.5q100 0 181 31.5t145 83.5l75 -146q-108 -90 -215.5 -123t-226.5 -33q-109 0 -194 36t-139 100.5t-74.5 153.5t4.5 198q22 106 76.5 195.5t133 155t177 102t206.5 36.5q113 0 196 -38.5t133 -111.5t64.5 -178.5t-12.5 -238.5h-780
zM760 569q2 90 -63.5 144.5t-164.5 54.5q-98 0 -187 -54.5t-124 -144.5h539zM717 1053h-252l53 252h252z" />
    <glyph glyph-name="Eogonek" unicode="&#x118;" 
d="M815 -379q-135 0 -200.5 59.5t-41.5 178.5q9 41 31.5 76.5t52.5 64.5h-706l276 1305h834l-39 -187h-627l-78 -360h490l-39 -187h-489l-82 -385h626l-39 -186q-49 -43 -61 -104q-14 -64 22.5 -95.5t100.5 -31.5z" />
    <glyph glyph-name="eogonek" unicode="&#x119;" 
d="M604 -379q-135 0 -200.5 59.5t-41.5 178.5q7 35 24 64.5t38 56.5q-10 -3 -20.5 -3h-20.5q-109 0 -194 36t-139 100.5t-74.5 153.5t4.5 198q22 106 76.5 195.5t133 155t177 102t206.5 36.5q113 0 196 -38.5t133 -111.5t64.5 -178.5t-12.5 -238.5h-780q-6 -96 57.5 -159.5
t192.5 -63.5q100 0 181 31.5t145 83.5l75 -146q-63 -53 -126.5 -85t-125.5 -48q-49 -43 -61 -104q-14 -64 22.5 -95.5t100.5 -31.5zM760 569q2 90 -63.5 144.5t-164.5 54.5q-98 0 -187 -54.5t-124 -144.5h539z" />
    <glyph glyph-name="Ecaron" unicode="&#x11a;" 
d="M784 0h-833l276 1305h834l-39 -187h-627l-78 -360h490l-39 -187h-489l-82 -385h626zM655 1352l-256 317l103 101l201 -207l284 205l60 -103z" />
    <glyph glyph-name="ecaron" unicode="&#x11b;" 
d="M174 387q-6 -96 57.5 -159.5t192.5 -63.5q100 0 181 31.5t145 83.5l75 -146q-108 -90 -215.5 -123t-226.5 -33q-109 0 -194 36t-139 100.5t-74.5 153.5t4.5 198q22 106 76.5 195.5t133 155t177 102t206.5 36.5q113 0 196 -38.5t133 -111.5t64.5 -178.5t-12.5 -238.5h-780
zM760 569q2 90 -63.5 144.5t-164.5 54.5q-98 0 -187 -54.5t-124 -144.5h539zM575 981l-256 317l103 101l201 -207l284 205l60 -103z" />
    <glyph glyph-name="Gcircumflex" unicode="&#x11c;" 
d="M1022 649q-29 -133 -81 -254t-132 -214t-187.5 -148.5t-244.5 -55.5t-220 56.5t-124 149.5t-42 215t27 253q29 131 81.5 253t133 216t187 150.5t244.5 56.5q38 0 77 -11t71 -33.5t53.5 -55.5t25.5 -76l33 154h186l-98 -463h-187q13 61 5.5 115.5t-34 95.5t-70.5 64.5
t-101 23.5q-88 0 -153.5 -44t-115 -114t-81 -157t-50.5 -175q-18 -88 -23 -175t12 -156.5t66.5 -112.5t137.5 -43q127 0 221 81t160 251h-275l39 186h465zM1002 1456l-101 -102l-198 205l-291 -207l-58 100l392 318z" />
    <glyph glyph-name="gcircumflex" unicode="&#x11d;" 
d="M786 10q-20 -96 -69 -171t-120 -127t-158 -79.5t-185 -27.5q-244 0 -381 147l129 160q119 -123 293 -123q106 0 182 52.5t101 164.5l22 100q-76 -55 -141.5 -81.5t-143.5 -26.5q-90 0 -158.5 38t-109.5 103.5t-54 152.5t7 185t70.5 185.5t120 152t154.5 102t175 37.5
q78 0 133.5 -26.5t102.5 -79.5l18 84h207zM721 684q-27 41 -81 62.5t-110 21.5q-116 0 -206.5 -82t-116.5 -209q-14 -63 -6 -116.5t34.5 -92.5t70.5 -61.5t102 -22.5q55 0 117.5 22.5t109.5 63.5zM922 1085l-101 -102l-198 205l-291 -207l-58 100l392 318z" />
    <glyph glyph-name="Gbreve" unicode="&#x11e;" 
d="M1022 649q-29 -133 -81 -254t-132 -214t-187.5 -148.5t-244.5 -55.5t-220 56.5t-124 149.5t-42 215t27 253q29 131 81.5 253t133 216t187 150.5t244.5 56.5q38 0 77 -11t71 -33.5t53.5 -55.5t25.5 -76l33 154h186l-98 -463h-187q13 61 5.5 115.5t-34 95.5t-70.5 64.5
t-101 23.5q-88 0 -153.5 -44t-115 -114t-81 -157t-50.5 -175q-18 -88 -23 -175t12 -156.5t66.5 -112.5t137.5 -43q127 0 221 81t160 251h-275l39 186h465zM1024 1538q-164 -135 -356 -135q-193 0 -299 135l145 119q74 -94 187 -94q112 0 227 94z" />
    <glyph glyph-name="gbreve" unicode="&#x11f;" 
d="M786 10q-20 -96 -69 -171t-120 -127t-158 -79.5t-185 -27.5q-244 0 -381 147l129 160q119 -123 293 -123q106 0 182 52.5t101 164.5l22 100q-76 -55 -141.5 -81.5t-143.5 -26.5q-90 0 -158.5 38t-109.5 103.5t-54 152.5t7 185t70.5 185.5t120 152t154.5 102t175 37.5
q78 0 133.5 -26.5t102.5 -79.5l18 84h207zM721 684q-27 41 -81 62.5t-110 21.5q-116 0 -206.5 -82t-116.5 -209q-14 -63 -6 -116.5t34.5 -92.5t70.5 -61.5t102 -22.5q55 0 117.5 22.5t109.5 63.5zM944 1167q-164 -135 -356 -135q-193 0 -299 135l145 119q74 -94 187 -94
q112 0 227 94z" />
    <glyph glyph-name="Gdotaccent" unicode="&#x120;" 
d="M1022 649q-29 -133 -81 -254t-132 -214t-187.5 -148.5t-244.5 -55.5t-220 56.5t-124 149.5t-42 215t27 253q29 131 81.5 253t133 216t187 150.5t244.5 56.5q38 0 77 -11t71 -33.5t53.5 -55.5t25.5 -76l33 154h186l-98 -463h-187q13 61 5.5 115.5t-34 95.5t-70.5 64.5
t-101 23.5q-88 0 -153.5 -44t-115 -114t-81 -157t-50.5 -175q-18 -88 -23 -175t12 -156.5t66.5 -112.5t137.5 -43q127 0 221 81t160 251h-275l39 186h465zM797 1424h-252l53 252h252z" />
    <glyph glyph-name="gdotaccent" unicode="&#x121;" 
d="M786 10q-20 -96 -69 -171t-120 -127t-158 -79.5t-185 -27.5q-244 0 -381 147l129 160q119 -123 293 -123q106 0 182 52.5t101 164.5l22 100q-76 -55 -141.5 -81.5t-143.5 -26.5q-90 0 -158.5 38t-109.5 103.5t-54 152.5t7 185t70.5 185.5t120 152t154.5 102t175 37.5
q78 0 133.5 -26.5t102.5 -79.5l18 84h207zM721 684q-27 41 -81 62.5t-110 21.5q-116 0 -206.5 -82t-116.5 -209q-14 -63 -6 -116.5t34.5 -92.5t70.5 -61.5t102 -22.5q55 0 117.5 22.5t109.5 63.5zM717 1053h-252l53 252h252z" />
    <glyph glyph-name="Gcommaaccent" unicode="&#x122;" 
d="M1022 649q-29 -133 -81 -254t-132 -214t-187.5 -148.5t-244.5 -55.5t-220 56.5t-124 149.5t-42 215t27 253q29 131 81.5 253t133 216t187 150.5t244.5 56.5q38 0 77 -11t71 -33.5t53.5 -55.5t25.5 -76l33 154h186l-98 -463h-187q13 61 5.5 115.5t-34 95.5t-70.5 64.5
t-101 23.5q-88 0 -153.5 -44t-115 -114t-81 -157t-50.5 -175q-18 -88 -23 -175t12 -156.5t66.5 -112.5t137.5 -43q127 0 221 81t160 251h-275l39 186h465zM561 -109l-248 -264h-190l160 264h278z" />
    <glyph glyph-name="gcommaaccent" unicode="&#x123;" 
d="M508 1118l250 373h157l-161 -373h-246zM786 10q-20 -96 -69 -171t-120 -127t-158 -79.5t-185 -27.5q-244 0 -381 147l129 160q119 -123 293 -123q106 0 182 52.5t101 164.5l22 100q-76 -55 -141.5 -81.5t-143.5 -26.5q-90 0 -158.5 38t-109.5 103.5t-54 152.5t7 185
t70.5 185.5t120 152t154.5 102t175 37.5q78 0 133.5 -26.5t102.5 -79.5l18 84h207zM721 684q-27 41 -81 62.5t-110 21.5q-116 0 -206.5 -82t-116.5 -209q-14 -63 -6 -116.5t34.5 -92.5t70.5 -61.5t102 -22.5q55 0 117.5 22.5t109.5 63.5z" />
    <glyph glyph-name="Hcircumflex" unicode="&#x124;" 
d="M784 0h-206l120 571h-419l-121 -571h-207l276 1305h207l-117 -547h420l117 547h207zM1002 1456l-101 -102l-198 205l-291 -207l-58 100l392 318z" />
    <glyph glyph-name="hcircumflex" unicode="&#x125;" 
d="M784 0h-206l120 575q23 109 -9 151t-109 42q-115 0 -207 -93t-127 -257l-88 -418h-207l276 1305h207l-129 -607q57 121 155.5 188.5t221.5 67.5q143 0 203.5 -93t19.5 -286zM1002 1456l-101 -102l-198 205l-291 -207l-58 100l392 318z" />
    <glyph glyph-name="Hbar" unicode="&#x126;" 
d="M1022 1118h186l-39 -174h-186l-199 -944h-206l120 571h-419l-121 -571h-207l199 944h-187l39 174h186l39 187h207l-39 -187h420l39 187h207zM737 758l39 186h-420l-39 -186h420z" />
    <glyph glyph-name="hbar" unicode="&#x127;" 
d="M784 0h-206l120 575q23 109 -9 151t-109 42q-115 0 -207 -93t-127 -257l-88 -418h-207l209 989h-172l37 174h172l30 142h207l-31 -142h181l-37 -174h-180l-62 -291q57 121 155.5 188.5t221.5 67.5q143 0 203.5 -93t19.5 -286z" />
    <glyph glyph-name="Itilde" unicode="&#x128;" 
d="M684 0h-627l39 186h207l199 932h-207l39 187h627l-39 -187h-213l-199 -932h213zM1120 1616q-67 -96 -147 -150.5t-172 -54.5q-49 0 -80 18.5t-56.5 40t-51 40t-62.5 18.5q-51 0 -93 -31.5t-87 -87.5l-107 70q68 94 148 148.5t172 54.5q49 0 79.5 -18.5t56.5 -40t51.5 -40
t62.5 -18.5q51 0 93 31.5t87 89.5z" />
    <glyph glyph-name="itilde" unicode="&#x129;" 
d="M684 0h-627l39 186h207l119 559h-207l39 187h414l-158 -746h213zM1040 1245q-67 -96 -147 -150.5t-172 -54.5q-49 0 -80 18.5t-56.5 40t-51 40t-62.5 18.5q-51 0 -93 -31.5t-87 -87.5l-107 70q68 94 148 148.5t172 54.5q49 0 79.5 -18.5t56.5 -40t51.5 -40t62.5 -18.5
q51 0 93 31.5t87 89.5z" />
    <glyph glyph-name="Imacron" unicode="&#x12a;" 
d="M684 0h-627l39 186h207l199 932h-207l39 187h627l-39 -187h-213l-199 -932h213zM948 1415h-559l37 175h559z" />
    <glyph glyph-name="imacron" unicode="&#x12b;" 
d="M684 0h-627l39 186h207l119 559h-207l39 187h414l-158 -746h213zM868 1044h-559l37 175h559z" />
    <glyph glyph-name="Ibreve" unicode="&#x12c;" 
d="M684 0h-627l39 186h207l199 932h-207l39 187h627l-39 -187h-213l-199 -932h213zM1024 1538q-164 -135 -356 -135q-193 0 -299 135l145 119q74 -94 187 -94q112 0 227 94z" />
    <glyph glyph-name="ibreve" unicode="&#x12d;" 
d="M684 0h-627l39 186h207l119 559h-207l39 187h414l-158 -746h213zM944 1167q-164 -135 -356 -135q-193 0 -299 135l145 119q74 -94 187 -94q112 0 227 94z" />
    <glyph glyph-name="Iogonek" unicode="&#x12e;" 
d="M715 -379q-135 0 -200.5 59.5t-41.5 178.5q8 41 30.5 76.5t53.5 64.5h-500l39 186h207l199 932h-207l39 187h627l-39 -187h-213l-199 -932h213l-39 -186q-49 -43 -61 -104q-15 -64 22 -95.5t100 -31.5z" />
    <glyph glyph-name="iogonek" unicode="&#x12f;" 
d="M715 -379q-135 0 -200.5 59.5t-41.5 178.5q8 41 30.5 76.5t53.5 64.5h-500l39 186h207l119 559h-207l39 187h414l-158 -746h213l-39 -186q-49 -43 -61 -104q-15 -64 22 -95.5t100 -31.5zM717 1053h-252l53 252h252z" />
    <glyph glyph-name="Idotaccent" unicode="&#x130;" 
d="M684 0h-627l39 186h207l199 932h-207l39 187h627l-39 -187h-213l-199 -932h213zM797 1424h-252l53 252h252z" />
    <glyph glyph-name="dotlessi" unicode="&#x131;" 
d="M684 0h-627l39 186h207l119 559h-207l39 187h414l-158 -746h213z" />
    <glyph glyph-name="IJ" unicode="&#x132;" 
d="M213 -135q55 -74 168 -74q68 0 117 27.5t82.5 74t56 106.5t35.5 126l252 1180h206l-251 -1180q-52 -248 -187 -384t-352 -136q-184 0 -285 104zM498 0h-627l39 186h207l199 932h-207l39 187h627l-39 -187h-213l-199 -932h213z" />
    <glyph glyph-name="ij" unicode="&#x133;" 
d="M562 1053h-252l53 252h252zM529 0h-627l39 186h207l119 559h-207l39 187h414l-158 -746h213zM377 -395q-213 0 -307 159l149 138q37 -56 84 -83.5t115 -27.5q104 0 166.5 57.5t83.5 151.5l157 745h-211l39 187h418l-197 -932q-20 -90 -65 -163t-110.5 -125t-147.5 -79.5
t-174 -27.5zM1120 1053h-252l54 252h251z" />
    <glyph glyph-name="Jcircumflex" unicode="&#x134;" 
d="M889 498q-53 -248 -187.5 -384.5t-351.5 -136.5q-174 0 -272 91.5t-107 273.5l201 70q4 -117 56.5 -182.5t162.5 -65.5q68 0 116 27.5t83 73.5t56.5 106.5t35.5 126.5l172 807h207zM1002 1456l-101 -102l-198 205l-291 -207l-58 100l392 318z" />
    <glyph glyph-name="jcircumflex" unicode="&#x135;" 
d="M160 -395q-213 0 -307 159l149 138q37 -56 84 -83.5t115 -27.5q104 0 166.5 57.5t83.5 151.5l157 745h-211l39 187h418l-197 -932q-20 -90 -65 -163t-110.5 -125t-147.5 -79.5t-174 -27.5zM1014 1085l-101 -102l-198 205l-291 -207l-58 100l392 318z" />
    <glyph glyph-name="Kcommaaccent" unicode="&#x136;" 
d="M827 0h-241l-213 608l-109 -102l-106 -506h-207l276 1305h207l-108 -512l514 512h266l-569 -541zM561 -109l-248 -264h-190l160 264h278z" />
    <glyph glyph-name="kcommaaccent" unicode="&#x137;" 
d="M831 0h-268l-231 377l-115 -96l-59 -281h-207l276 1305h207l-164 -768l457 395h285l-520 -428zM561 -109l-248 -264h-190l160 264h278z" />
    <glyph glyph-name="kgreenlandic" unicode="&#x138;" 
d="M831 0h-268l-231 377l-115 -96l-59 -281h-207l196 932h207l-84 -395l457 395h285l-520 -428z" />
    <glyph glyph-name="Lacute" unicode="&#x139;" 
d="M784 0h-833l276 1305h207l-237 -1119h626zM952 1596l-485 -244l-57 137l463 287z" />
    <glyph glyph-name="lacute" unicode="&#x13a;" 
d="M686 0h-627l39 186h205l199 932h-205l39 187h412l-238 -1119h215zM952 1596l-485 -244l-57 137l463 287z" />
    <glyph glyph-name="Lcommaaccent" unicode="&#x13b;" 
d="M784 0h-833l276 1305h207l-237 -1119h626zM561 -109l-248 -264h-190l160 264h278z" />
    <glyph glyph-name="lcommaaccent" unicode="&#x13c;" 
d="M686 0h-627l39 186h205l199 932h-205l39 187h412l-238 -1119h215zM561 -109l-248 -264h-190l160 264h278z" />
    <glyph glyph-name="Lcaron" unicode="&#x13d;" 
d="M784 0h-833l276 1305h207l-237 -1119h626zM980 1305l-200 -557h-162l117 557h245z" />
    <glyph glyph-name="lcaron" unicode="&#x13e;" 
d="M686 0h-627l39 186h205l199 932h-205l39 187h412l-238 -1119h215zM1167 1305l-200 -557h-162l117 557h245z" />
    <glyph glyph-name="Ldot" unicode="&#x13f;" 
d="M784 0h-833l276 1305h207l-237 -1119h626zM817 493h-252l54 252h252z" />
    <glyph glyph-name="ldot" unicode="&#x140;" 
d="M686 0h-627l39 186h205l199 932h-205l39 187h412l-238 -1119h215zM1126 352h-252l54 252h252z" />
    <glyph glyph-name="Lslash" unicode="&#x141;" 
d="M784 0h-833l108 520l-182 -57l37 188l186 58l127 596h207l-112 -529l190 62l-39 -189l-190 -61l-86 -402h626z" />
    <glyph glyph-name="lslash" unicode="&#x142;" 
d="M686 0h-627l39 186h205l70 334l-191 -59l41 188l191 60l88 409h-205l39 187h412l-113 -529l186 60l-39 -189l-186 -59l-86 -402h215z" />
    <glyph glyph-name="Nacute" unicode="&#x143;" 
d="M784 0h-239l-187 946l-200 -946h-207l276 1305h260l177 -899l190 899h207zM952 1596l-485 -244l-57 137l463 287z" />
    <glyph glyph-name="nacute" unicode="&#x144;" 
d="M784 0h-206l120 575q23 109 -9 151t-109 42q-115 0 -207 -93t-127 -257l-88 -418h-207l196 932h207l-49 -234q57 121 155.5 188.5t221.5 67.5q143 0 203.5 -93t19.5 -286zM872 1225l-485 -244l-57 137l463 287z" />
    <glyph glyph-name="Ncommaaccent" unicode="&#x145;" 
d="M784 0h-239l-187 946l-200 -946h-207l276 1305h260l177 -899l190 899h207zM561 -109l-248 -264h-190l160 264h278z" />
    <glyph glyph-name="ncommaaccent" unicode="&#x146;" 
d="M784 0h-206l120 575q23 109 -9 151t-109 42q-115 0 -207 -93t-127 -257l-88 -418h-207l196 932h207l-49 -234q57 121 155.5 188.5t221.5 67.5q143 0 203.5 -93t19.5 -286zM561 -109l-248 -264h-190l160 264h278z" />
    <glyph glyph-name="Ncaron" unicode="&#x147;" 
d="M784 0h-239l-187 946l-200 -946h-207l276 1305h260l177 -899l190 899h207zM655 1352l-256 317l103 101l201 -207l284 205l60 -103z" />
    <glyph glyph-name="ncaron" unicode="&#x148;" 
d="M784 0h-206l120 575q23 109 -9 151t-109 42q-115 0 -207 -93t-127 -257l-88 -418h-207l196 932h207l-49 -234q57 121 155.5 188.5t221.5 67.5q143 0 203.5 -93t19.5 -286zM575 981l-256 317l103 101l201 -207l284 205l60 -103z" />
    <glyph glyph-name="napostrophe" unicode="&#x149;" 
d="M784 0h-206l120 575q23 109 -9 151t-109 42q-115 0 -207 -93t-127 -257l-88 -418h-207l196 932h207l-49 -234q57 121 155.5 188.5t221.5 67.5q143 0 203.5 -93t19.5 -286zM502 1675l-200 -557h-162l117 557h245z" />
    <glyph glyph-name="Eng" unicode="&#x14a;" 
d="M809 125q-51 -248 -186.5 -384t-352.5 -136q-184 0 -284 104l157 156q56 -74 168 -74q88 0 145.5 48t92.5 120l-191 987l-200 -946h-207l276 1305h260l177 -899l190 899h207z" />
    <glyph glyph-name="eng" unicode="&#x14b;" 
d="M195 -164q55 -45 133 -45q104 0 166.5 57.5t83.5 151.5l120 575q23 109 -9 151t-109 42q-115 0 -207 -93t-127 -257l-88 -418h-207l196 932h207l-49 -234q57 121 155.5 188.5t221.5 67.5q143 0 203.5 -93t19.5 -286l-121 -575q-20 -90 -65 -163t-110.5 -125t-147.5 -79.5
t-174 -27.5q-127 0 -213 57z" />
    <glyph glyph-name="Omacron" unicode="&#x14c;" 
d="M6 653q29 131 82 253t133 215t186.5 149.5t241.5 56.5t219 -56.5t124 -149.5t41 -215t-27 -253q-27 -131 -80.5 -252.5t-132 -216t-186 -151t-245.5 -56.5q-137 0 -220 56.5t-122.5 151t-39.5 216t26 252.5zM213 653q-18 -88 -23.5 -176t12 -157.5t65.5 -112.5t136 -43
q89 0 153.5 43t112.5 112.5t79.5 157.5t50.5 176q18 88 24 175t-12 157t-66.5 113t-134.5 43q-143 0 -245.5 -129t-151.5 -359zM948 1415h-559l37 175h559z" />
    <glyph glyph-name="omacron" unicode="&#x14d;" 
d="M956 465q-24 -109 -77.5 -198t-131 -153.5t-176 -100.5t-209.5 -36q-108 0 -190 36t-133 100.5t-67.5 153.5t8.5 198q22 106 76.5 196.5t132 156t176 101t206.5 35.5q111 0 193 -35.5t133 -101t66.5 -156t-7.5 -196.5zM750 465q12 63 5 119.5t-36 96.5t-76 63.5
t-113 23.5q-65 0 -122.5 -23.5t-101.5 -63.5t-75.5 -96.5t-44.5 -119.5q-14 -66 -6 -120t35 -95t75 -63.5t113 -22.5q66 0 122.5 22.5t102.5 63.5t76.5 95t45.5 120zM868 1044h-559l37 175h559z" />
    <glyph glyph-name="Obreve" unicode="&#x14e;" 
d="M6 653q29 131 82 253t133 215t186.5 149.5t241.5 56.5t219 -56.5t124 -149.5t41 -215t-27 -253q-27 -131 -80.5 -252.5t-132 -216t-186 -151t-245.5 -56.5q-137 0 -220 56.5t-122.5 151t-39.5 216t26 252.5zM213 653q-18 -88 -23.5 -176t12 -157.5t65.5 -112.5t136 -43
q89 0 153.5 43t112.5 112.5t79.5 157.5t50.5 176q18 88 24 175t-12 157t-66.5 113t-134.5 43q-143 0 -245.5 -129t-151.5 -359zM1024 1538q-164 -135 -356 -135q-193 0 -299 135l145 119q74 -94 187 -94q112 0 227 94z" />
    <glyph glyph-name="obreve" unicode="&#x14f;" 
d="M956 465q-24 -109 -77.5 -198t-131 -153.5t-176 -100.5t-209.5 -36q-108 0 -190 36t-133 100.5t-67.5 153.5t8.5 198q22 106 76.5 196.5t132 156t176 101t206.5 35.5q111 0 193 -35.5t133 -101t66.5 -156t-7.5 -196.5zM750 465q12 63 5 119.5t-36 96.5t-76 63.5
t-113 23.5q-65 0 -122.5 -23.5t-101.5 -63.5t-75.5 -96.5t-44.5 -119.5q-14 -66 -6 -120t35 -95t75 -63.5t113 -22.5q66 0 122.5 22.5t102.5 63.5t76.5 95t45.5 120zM944 1167q-164 -135 -356 -135q-193 0 -299 135l145 119q74 -94 187 -94q112 0 227 94z" />
    <glyph glyph-name="Ohungarumlaut" unicode="&#x150;" 
d="M6 653q29 131 82 253t133 215t186.5 149.5t241.5 56.5t219 -56.5t124 -149.5t41 -215t-27 -253q-27 -131 -80.5 -252.5t-132 -216t-186 -151t-245.5 -56.5q-137 0 -220 56.5t-122.5 151t-39.5 216t26 252.5zM213 653q-18 -88 -23.5 -176t12 -157.5t65.5 -112.5t136 -43
q89 0 153.5 43t112.5 112.5t79.5 157.5t50.5 176q18 88 24 175t-12 157t-66.5 113t-134.5 43q-143 0 -245.5 -129t-151.5 -359zM897 1395h-172l221 375h217zM524 1395h-170l220 375h217z" />
    <glyph glyph-name="ohungarumlaut" unicode="&#x151;" 
d="M956 465q-24 -109 -77.5 -198t-131 -153.5t-176 -100.5t-209.5 -36q-108 0 -190 36t-133 100.5t-67.5 153.5t8.5 198q22 106 76.5 196.5t132 156t176 101t206.5 35.5q111 0 193 -35.5t133 -101t66.5 -156t-7.5 -196.5zM750 465q12 63 5 119.5t-36 96.5t-76 63.5
t-113 23.5q-65 0 -122.5 -23.5t-101.5 -63.5t-75.5 -96.5t-44.5 -119.5q-14 -66 -6 -120t35 -95t75 -63.5t113 -22.5q66 0 122.5 22.5t102.5 63.5t76.5 95t45.5 120zM817 1024h-172l221 375h217zM444 1024h-170l220 375h217z" />
    <glyph glyph-name="OE" unicode="&#x152;" 
d="M834 0h-474l25 123q-84 -146 -213 -146q-291 0 -149 674q143 676 436 676q63 0 101 -39t50 -110l27 127h473l-39 -187h-336l-78 -360h246l-39 -187h-246l-81 -385h335zM434 651q23 109 38 199t18.5 154.5t-9 100.5t-43.5 36q-30 0 -59 -36t-54.5 -100.5t-49 -154.5
t-46.5 -199q-22 -108 -37.5 -198.5t-16.5 -155t12.5 -99t43.5 -34.5q31 0 58.5 34.5t51.5 99t47.5 155t45.5 198.5z" />
    <glyph glyph-name="oe" unicode="&#x153;" 
d="M551 385q-21 -96 -7.5 -158.5t66.5 -62.5q41 0 69 25.5t50 84.5l170 -53q-53 -123 -135 -183.5t-174 -60.5q-180 0 -187 203q-86 -203 -253 -203q-279 0 -177 490q105 487 385 487q164 0 168 -192q84 192 260 192q101 0 145 -53t54 -136t-4 -184.5t-35 -195.5h-395z
M780 571q19 93 11.5 145t-62.5 52t-85 -52t-52 -145h188zM362 467q64 301 -26 301q-92 0 -156 -301q-63 -303 29 -303q90 0 153 303z" />
    <glyph glyph-name="Racute" unicode="&#x154;" 
d="M852 0h-262l-228 528h-94l-110 -528h-207l276 1305h430q215 0 312.5 -98.5t58.5 -291.5q-18 -86 -59 -151.5t-99.5 -112.5t-129 -74.5t-148.5 -37.5zM821 918q21 100 -33.5 150t-169.5 50h-223l-86 -403h223q115 0 191 50t98 153zM952 1596l-485 -244l-57 137l463 287z
" />
    <glyph glyph-name="racute" unicode="&#x155;" 
d="M961 711q-33 18 -70 27.5t-86 9.5q-70 0 -134.5 -20.5t-117.5 -61.5t-90 -102.5t-55 -145.5l-50 -232h209l-39 -186h-626l39 186h211l118 559h-211l39 187h418l-49 -234q80 140 192.5 198t249.5 58q43 0 88 -9t84 -32zM872 1225l-485 -244l-57 137l463 287z" />
    <glyph glyph-name="Rcommaaccent" unicode="&#x156;" 
d="M852 0h-262l-228 528h-94l-110 -528h-207l276 1305h430q215 0 312.5 -98.5t58.5 -291.5q-18 -86 -59 -151.5t-99.5 -112.5t-129 -74.5t-148.5 -37.5zM821 918q21 100 -33.5 150t-169.5 50h-223l-86 -403h223q115 0 191 50t98 153zM561 -109l-248 -264h-190l160 264h278z
" />
    <glyph glyph-name="rcommaaccent" unicode="&#x157;" 
d="M961 711q-33 18 -70 27.5t-86 9.5q-70 0 -134.5 -20.5t-117.5 -61.5t-90 -102.5t-55 -145.5l-50 -232h209l-39 -186h-626l39 186h211l118 559h-211l39 187h418l-49 -234q80 140 192.5 198t249.5 58q43 0 88 -9t84 -32zM561 -109l-248 -264h-190l160 264h278z" />
    <glyph glyph-name="Rcaron" unicode="&#x158;" 
d="M852 0h-262l-228 528h-94l-110 -528h-207l276 1305h430q215 0 312.5 -98.5t58.5 -291.5q-18 -86 -59 -151.5t-99.5 -112.5t-129 -74.5t-148.5 -37.5zM821 918q21 100 -33.5 150t-169.5 50h-223l-86 -403h223q115 0 191 50t98 153zM655 1352l-256 317l103 101l201 -207
l284 205l60 -103z" />
    <glyph glyph-name="rcaron" unicode="&#x159;" 
d="M961 711q-33 18 -70 27.5t-86 9.5q-70 0 -134.5 -20.5t-117.5 -61.5t-90 -102.5t-55 -145.5l-50 -232h209l-39 -186h-626l39 186h211l118 559h-211l39 187h418l-49 -234q80 140 192.5 198t249.5 58q43 0 88 -9t84 -32zM575 981l-256 317l103 101l201 -207l284 205
l60 -103z" />
    <glyph glyph-name="Sacute" unicode="&#x15a;" 
d="M877 358q-21 -90 -66 -160.5t-108.5 -119.5t-141.5 -75t-160 -26q-92 0 -158.5 33t-103.5 109l-24 -119h-187l90 426h187q-15 -64 -2.5 -113t42 -82.5t75 -51t100.5 -17.5q92 0 158.5 43t87.5 137q10 49 -0.5 84t-37 62.5t-69.5 48t-96 43.5q-68 24 -132.5 54t-110.5 74
t-67.5 108.5t-0.5 162.5q18 86 63 150.5t107.5 108.5t136 66.5t151.5 22.5q90 0 146.5 -38t79.5 -101l24 117h187l-86 -406h-187q25 115 -22 179.5t-150 64.5q-90 0 -158.5 -42t-83.5 -118q-10 -39 0.5 -66.5t35 -50t65.5 -42t96 -42.5q68 -26 133.5 -59t113.5 -81
t70.5 -116.5t2.5 -167.5zM952 1596l-485 -244l-57 137l463 287z" />
    <glyph glyph-name="sacute" unicode="&#x15b;" 
d="M866 279q-18 -91 -71.5 -148t-125 -92t-154.5 -48.5t-159 -13.5q-127 0 -244.5 37t-197.5 97l123 170q96 -64 182 -90.5t178 -26.5q125 0 187.5 26.5t72.5 73.5q5 23 -8.5 38t-47.5 27.5t-91 25t-145 26.5q-70 12 -130.5 29.5t-102.5 49.5t-61.5 81t-4.5 123
q16 75 67 130.5t121 91.5t151.5 52t159.5 16q111 0 208 -28.5t163 -81.5l-117 -160q-65 49 -136 66.5t-159 17.5q-37 0 -77.5 -4t-76.5 -15.5t-62.5 -31t-33.5 -47.5q-8 -37 52.5 -60.5t214.5 -46.5q84 -12 150.5 -30.5t110.5 -50t62.5 -81t1.5 -122.5zM872 1225l-485 -244
l-57 137l463 287z" />
    <glyph glyph-name="Scircumflex" unicode="&#x15c;" 
d="M877 358q-21 -90 -66 -160.5t-108.5 -119.5t-141.5 -75t-160 -26q-92 0 -158.5 33t-103.5 109l-24 -119h-187l90 426h187q-15 -64 -2.5 -113t42 -82.5t75 -51t100.5 -17.5q92 0 158.5 43t87.5 137q10 49 -0.5 84t-37 62.5t-69.5 48t-96 43.5q-68 24 -132.5 54t-110.5 74
t-67.5 108.5t-0.5 162.5q18 86 63 150.5t107.5 108.5t136 66.5t151.5 22.5q90 0 146.5 -38t79.5 -101l24 117h187l-86 -406h-187q25 115 -22 179.5t-150 64.5q-90 0 -158.5 -42t-83.5 -118q-10 -39 0.5 -66.5t35 -50t65.5 -42t96 -42.5q68 -26 133.5 -59t113.5 -81
t70.5 -116.5t2.5 -167.5zM1002 1456l-101 -102l-198 205l-291 -207l-58 100l392 318z" />
    <glyph glyph-name="scircumflex" unicode="&#x15d;" 
d="M866 279q-18 -91 -71.5 -148t-125 -92t-154.5 -48.5t-159 -13.5q-127 0 -244.5 37t-197.5 97l123 170q96 -64 182 -90.5t178 -26.5q125 0 187.5 26.5t72.5 73.5q5 23 -8.5 38t-47.5 27.5t-91 25t-145 26.5q-70 12 -130.5 29.5t-102.5 49.5t-61.5 81t-4.5 123
q16 75 67 130.5t121 91.5t151.5 52t159.5 16q111 0 208 -28.5t163 -81.5l-117 -160q-65 49 -136 66.5t-159 17.5q-37 0 -77.5 -4t-76.5 -15.5t-62.5 -31t-33.5 -47.5q-8 -37 52.5 -60.5t214.5 -46.5q84 -12 150.5 -30.5t110.5 -50t62.5 -81t1.5 -122.5zM922 1085l-101 -102
l-198 205l-291 -207l-58 100l392 318z" />
    <glyph glyph-name="Scedilla" unicode="&#x15e;" 
d="M877 358q-17 -77 -55 -140.5t-89 -112t-113.5 -78t-132.5 -41.5l-6 -27q-14 -70 -51 -130t-91 -104t-124 -70t-152 -26l39 178q88 0 138.5 40t64.5 112l6 27q-116 24 -172 133l-24 -119h-187l90 426h187q-15 -64 -2.5 -113t42 -82.5t75 -51t100.5 -17.5q92 0 158.5 43
t87.5 137q10 49 -0.5 84t-37 62.5t-69.5 48t-96 43.5q-68 24 -132.5 54t-110.5 74t-67.5 108.5t-0.5 162.5q18 86 63 150.5t107.5 108.5t136 66.5t151.5 22.5q90 0 146.5 -38t79.5 -101l24 117h187l-86 -406h-187q25 115 -22 179.5t-150 64.5q-90 0 -158.5 -42t-83.5 -118
q-10 -39 0.5 -66.5t35 -50t65.5 -42t96 -42.5q68 -26 133.5 -59t113.5 -81t70.5 -116.5t2.5 -167.5z" />
    <glyph glyph-name="scedilla" unicode="&#x15f;" 
d="M866 279q-14 -72 -51 -122.5t-89 -85t-113.5 -55t-125.5 -28.5l-6 -29q-14 -70 -51 -130t-91 -104t-124 -70t-152 -26l39 178q88 0 138.5 40t64.5 112l4 21q-114 6 -218.5 40.5t-176.5 90.5l123 170q96 -64 182 -90.5t178 -26.5q125 0 187.5 26.5t72.5 73.5q5 23 -8.5 38
t-47.5 27.5t-91 25t-145 26.5q-70 12 -130.5 29.5t-102.5 49.5t-61.5 81t-4.5 123q16 75 67 130.5t121 91.5t151.5 52t159.5 16q111 0 208 -28.5t163 -81.5l-117 -160q-65 49 -136 66.5t-159 17.5q-37 0 -77.5 -4t-76.5 -15.5t-62.5 -31t-33.5 -47.5q-8 -37 52.5 -60.5
t214.5 -46.5q84 -12 150.5 -30.5t110.5 -50t62.5 -81t1.5 -122.5z" />
    <glyph glyph-name="Scaron" unicode="&#x160;" 
d="M877 358q-21 -90 -66 -160.5t-108.5 -119.5t-141.5 -75t-160 -26q-92 0 -158.5 33t-103.5 109l-24 -119h-187l90 426h187q-15 -64 -2.5 -113t42 -82.5t75 -51t100.5 -17.5q92 0 158.5 43t87.5 137q10 49 -0.5 84t-37 62.5t-69.5 48t-96 43.5q-68 24 -132.5 54t-110.5 74
t-67.5 108.5t-0.5 162.5q18 86 63 150.5t107.5 108.5t136 66.5t151.5 22.5q90 0 146.5 -38t79.5 -101l24 117h187l-86 -406h-187q25 115 -22 179.5t-150 64.5q-90 0 -158.5 -42t-83.5 -118q-10 -39 0.5 -66.5t35 -50t65.5 -42t96 -42.5q68 -26 133.5 -59t113.5 -81
t70.5 -116.5t2.5 -167.5zM655 1352l-256 317l103 101l201 -207l284 205l60 -103z" />
    <glyph glyph-name="scaron" unicode="&#x161;" 
d="M866 279q-18 -91 -71.5 -148t-125 -92t-154.5 -48.5t-159 -13.5q-127 0 -244.5 37t-197.5 97l123 170q96 -64 182 -90.5t178 -26.5q125 0 187.5 26.5t72.5 73.5q5 23 -8.5 38t-47.5 27.5t-91 25t-145 26.5q-70 12 -130.5 29.5t-102.5 49.5t-61.5 81t-4.5 123
q16 75 67 130.5t121 91.5t151.5 52t159.5 16q111 0 208 -28.5t163 -81.5l-117 -160q-65 49 -136 66.5t-159 17.5q-37 0 -77.5 -4t-76.5 -15.5t-62.5 -31t-33.5 -47.5q-8 -37 52.5 -60.5t214.5 -46.5q84 -12 150.5 -30.5t110.5 -50t62.5 -81t1.5 -122.5zM575 981l-256 317
l103 101l201 -207l284 205l60 -103z" />
    <glyph glyph-name="Tcommaaccent" unicode="&#x162;" 
d="M1008 829h-185l62 289h-176l-199 -932h207l-39 -186h-621l39 186h207l199 932h-178l-62 -289h-184l100 476h930zM561 -109l-248 -264h-190l160 264h278z" />
    <glyph glyph-name="tcommaaccent" unicode="&#x163;" 
d="M905 297q-47 -147 -164.5 -233.5t-267.5 -86.5q-82 0 -143.5 27t-99 75t-50 115.5t3.5 147.5l86 403h-211l39 187h211l80 373h207l-80 -373h391l-39 -187h-391l-86 -403q-18 -90 16.5 -134t106.5 -44q88 0 141.5 51t77.5 123zM561 -109l-248 -264h-190l160 264h278z" />
    <glyph glyph-name="Tcaron" unicode="&#x164;" 
d="M1008 829h-185l62 289h-176l-199 -932h207l-39 -186h-621l39 186h207l199 932h-178l-62 -289h-184l100 476h930zM655 1352l-256 317l103 101l201 -207l284 205l60 -103z" />
    <glyph glyph-name="tcaron" unicode="&#x165;" 
d="M905 297q-47 -147 -164.5 -233.5t-267.5 -86.5q-82 0 -143.5 27t-99 75t-50 115.5t3.5 147.5l86 403h-211l39 187h211l80 373h207l-80 -373h391l-39 -187h-391l-86 -403q-18 -90 16.5 -134t106.5 -44q88 0 141.5 51t77.5 123zM1247 1675l-200 -557h-162l117 557h245z" />
    <glyph glyph-name="Tbar" unicode="&#x166;" 
d="M768 571h-176l-82 -385h207l-39 -186h-621l39 186h207l82 385h-176l37 174h176l80 373h-178l-62 -289h-184l100 476h930l-100 -476h-185l62 289h-176l-80 -373h176z" />
    <glyph glyph-name="tbar" unicode="&#x167;" 
d="M905 297q-47 -147 -164.5 -233.5t-267.5 -86.5q-82 0 -143.5 27t-99 75t-50 115.5t3.5 147.5l9 43h-211l38 174h211l39 186h-211l39 187h211l80 373h207l-80 -373h391l-39 -187h-391l-39 -186h209l-39 -174h-209l-8 -43q-18 -90 16.5 -134t106.5 -44q88 0 141.5 51
t77.5 123z" />
    <glyph glyph-name="Utilde" unicode="&#x168;" 
d="M883 465q-25 -111 -68 -201t-108.5 -153.5t-151.5 -98.5t-195 -35q-108 0 -178.5 35t-107.5 98.5t-43 154.5t18 202l178 838h207l-178 -840q-10 -49 -14 -101.5t7 -97.5t48 -73.5t104 -28.5q68 0 115 28.5t80 72.5t51.5 97.5t28.5 102.5l178 840h207zM1120 1616
q-67 -96 -147 -150.5t-172 -54.5q-49 0 -80 18.5t-56.5 40t-51 40t-62.5 18.5q-51 0 -93 -31.5t-87 -87.5l-107 70q68 94 148 148.5t172 54.5q49 0 79.5 -18.5t56.5 -40t51.5 -40t62.5 -18.5q51 0 93 31.5t87 89.5z" />
    <glyph glyph-name="utilde" unicode="&#x169;" 
d="M147 932h207l-123 -576q-22 -108 10.5 -150t110.5 -42q115 0 207 93t127 257l88 418h207l-197 -932h-206l49 233q-58 -120 -156 -188t-221 -68q-144 0 -204 93.5t-21 285.5zM1040 1245q-67 -96 -147 -150.5t-172 -54.5q-49 0 -80 18.5t-56.5 40t-51 40t-62.5 18.5
q-51 0 -93 -31.5t-87 -87.5l-107 70q68 94 148 148.5t172 54.5q49 0 79.5 -18.5t56.5 -40t51.5 -40t62.5 -18.5q51 0 93 31.5t87 89.5z" />
    <glyph glyph-name="Umacron" unicode="&#x16a;" 
d="M883 465q-25 -111 -68 -201t-108.5 -153.5t-151.5 -98.5t-195 -35q-108 0 -178.5 35t-107.5 98.5t-43 154.5t18 202l178 838h207l-178 -840q-10 -49 -14 -101.5t7 -97.5t48 -73.5t104 -28.5q68 0 115 28.5t80 72.5t51.5 97.5t28.5 102.5l178 840h207zM948 1415h-559
l37 175h559z" />
    <glyph glyph-name="umacron" unicode="&#x16b;" 
d="M147 932h207l-123 -576q-22 -108 10.5 -150t110.5 -42q115 0 207 93t127 257l88 418h207l-197 -932h-206l49 233q-58 -120 -156 -188t-221 -68q-144 0 -204 93.5t-21 285.5zM868 1044h-559l37 175h559z" />
    <glyph glyph-name="Ubreve" unicode="&#x16c;" 
d="M883 465q-25 -111 -68 -201t-108.5 -153.5t-151.5 -98.5t-195 -35q-108 0 -178.5 35t-107.5 98.5t-43 154.5t18 202l178 838h207l-178 -840q-10 -49 -14 -101.5t7 -97.5t48 -73.5t104 -28.5q68 0 115 28.5t80 72.5t51.5 97.5t28.5 102.5l178 840h207zM1024 1538
q-164 -135 -356 -135q-193 0 -299 135l145 119q74 -94 187 -94q112 0 227 94z" />
    <glyph glyph-name="ubreve" unicode="&#x16d;" 
d="M147 932h207l-123 -576q-22 -108 10.5 -150t110.5 -42q115 0 207 93t127 257l88 418h207l-197 -932h-206l49 233q-58 -120 -156 -188t-221 -68q-144 0 -204 93.5t-21 285.5zM944 1167q-164 -135 -356 -135q-193 0 -299 135l145 119q74 -94 187 -94q112 0 227 94z" />
    <glyph glyph-name="Uring" unicode="&#x16e;" 
d="M883 465q-25 -111 -68 -201t-108.5 -153.5t-151.5 -98.5t-195 -35q-108 0 -178.5 35t-107.5 98.5t-43 154.5t18 202l178 838h207l-178 -840q-10 -49 -14 -101.5t7 -97.5t48 -73.5t104 -28.5q68 0 115 28.5t80 72.5t51.5 97.5t28.5 102.5l178 840h207zM490 1628
q10 48 35.5 88.5t63.5 71.5t82 48.5t91 17.5t85 -17.5t61.5 -48.5t32.5 -71.5t-1 -88.5q-10 -47 -35.5 -88t-63.5 -71.5t-82 -48t-91 -17.5t-85 17.5t-61.5 48t-33 71.5t1.5 88zM623 1628q-8 -38 12 -65t59 -27t72 27t41 65q8 39 -12.5 66t-59.5 27t-71.5 -27t-40.5 -66z
" />
    <glyph glyph-name="uring" unicode="&#x16f;" 
d="M147 932h207l-123 -576q-22 -108 10.5 -150t110.5 -42q115 0 207 93t127 257l88 418h207l-197 -932h-206l49 233q-58 -120 -156 -188t-221 -68q-144 0 -204 93.5t-21 285.5zM410 1257q10 48 35.5 88.5t63.5 71.5t82 48.5t91 17.5t85 -17.5t61.5 -48.5t32.5 -71.5
t-1 -88.5q-10 -47 -35.5 -88t-63.5 -71.5t-82 -48t-91 -17.5t-85 17.5t-61.5 48t-33 71.5t1.5 88zM543 1257q-8 -38 12 -65t59 -27t72 27t41 65q8 39 -12.5 66t-59.5 27t-71.5 -27t-40.5 -66z" />
    <glyph glyph-name="Uhungarumlaut" unicode="&#x170;" 
d="M883 465q-25 -111 -68 -201t-108.5 -153.5t-151.5 -98.5t-195 -35q-108 0 -178.5 35t-107.5 98.5t-43 154.5t18 202l178 838h207l-178 -840q-10 -49 -14 -101.5t7 -97.5t48 -73.5t104 -28.5q68 0 115 28.5t80 72.5t51.5 97.5t28.5 102.5l178 840h207zM897 1395h-172
l221 375h217zM524 1395h-170l220 375h217z" />
    <glyph glyph-name="uhungarumlaut" unicode="&#x171;" 
d="M147 932h207l-123 -576q-22 -108 10.5 -150t110.5 -42q115 0 207 93t127 257l88 418h207l-197 -932h-206l49 233q-58 -120 -156 -188t-221 -68q-144 0 -204 93.5t-21 285.5zM817 1024h-172l221 375h217zM444 1024h-170l220 375h217z" />
    <glyph glyph-name="Uogonek" unicode="&#x172;" 
d="M551 -379q-135 0 -200.5 59.5t-41.5 178.5q15 65 62 118h-11q-108 0 -178.5 35t-107.5 98.5t-43 154.5t18 202l178 838h207l-178 -840q-10 -49 -14 -101.5t7 -97.5t48 -73.5t104 -28.5q68 0 115 28.5t80 72.5t51.5 97.5t28.5 102.5l178 840h207l-178 -840
q-39 -180 -129 -301t-234 -164q-49 -43 -61 -104q-15 -64 22 -95.5t101 -31.5z" />
    <glyph glyph-name="uogonek" unicode="&#x173;" 
d="M815 -379q-135 0 -200.5 59.5t-41.5 178.5q9 41 31.5 76.5t52.5 64.5h-79l49 233q-58 -120 -156 -188t-221 -68q-144 0 -204 93.5t-21 285.5l122 576h207l-123 -576q-22 -108 10.5 -150t110.5 -42q115 0 207 93t127 257l88 418h207l-197 -932q-49 -43 -61 -104
q-14 -64 22.5 -95.5t100.5 -31.5z" />
    <glyph glyph-name="Wcircumflex" unicode="&#x174;" 
d="M1174 1305l-480 -1305h-213l4 563l-231 -563h-213l74 1305h215l-66 -879l201 506h199l-15 -506l309 879h216zM1002 1456l-101 -102l-198 205l-291 -207l-58 100l392 318z" />
    <glyph glyph-name="wcircumflex" unicode="&#x175;" 
d="M1059 932l-336 -932h-256l20 561l-219 -561h-256l58 932h202l-49 -623l232 623h219l-31 -623l213 623h203zM922 1085l-101 -102l-198 205l-291 -207l-58 100l392 318z" />
    <glyph glyph-name="Ycircumflex" unicode="&#x176;" 
d="M1092 1118h-95l-413 -586l-74 -346h209l-39 -186h-625l39 186h209l74 346l-164 586h-94l39 187h411l-39 -187h-90l84 -383l246 383h-90l39 187h411zM1002 1456l-101 -102l-198 205l-291 -207l-58 100l392 318z" />
    <glyph glyph-name="ycircumflex" unicode="&#x177;" 
d="M1022 932l-637 -1114q-72 -121 -167 -166t-214 -45q-41 0 -86 8t-92 27l82 190q39 -16 73.5 -22.5t63.5 -6.5q92 0 145 82l56 90l-154 957h215l107 -705l387 705h221zM922 1085l-101 -102l-198 205l-291 -207l-58 100l392 318z" />
    <glyph glyph-name="Ydieresis" unicode="&#x178;" 
d="M1092 1118h-95l-413 -586l-74 -346h209l-39 -186h-625l39 186h209l74 346l-164 586h-94l39 187h411l-39 -187h-90l84 -383l246 383h-90l39 187h411zM983 1424h-252l54 252h251zM610 1424h-251l53 252h252z" />
    <glyph glyph-name="Zacute" unicode="&#x179;" 
d="M784 0h-833l39 184l782 934h-397l-62 -284h-186l100 471h817l-38 -187l-766 -932h401l61 287h183zM952 1596l-485 -244l-57 137l463 287z" />
    <glyph glyph-name="zacute" unicode="&#x17a;" 
d="M784 0h-833l39 184l649 561h-348l-41 -188h-182l79 375h816l-39 -187l-652 -559h369l39 185h182zM872 1225l-485 -244l-57 137l463 287z" />
    <glyph glyph-name="Zdotaccent" unicode="&#x17b;" 
d="M784 0h-833l39 184l782 934h-397l-62 -284h-186l100 471h817l-38 -187l-766 -932h401l61 287h183zM797 1424h-252l53 252h252z" />
    <glyph glyph-name="zdotaccent" unicode="&#x17c;" 
d="M784 0h-833l39 184l649 561h-348l-41 -188h-182l79 375h816l-39 -187l-652 -559h369l39 185h182zM717 1053h-252l53 252h252z" />
    <glyph glyph-name="Zcaron" unicode="&#x17d;" 
d="M784 0h-833l39 184l782 934h-397l-62 -284h-186l100 471h817l-38 -187l-766 -932h401l61 287h183zM655 1352l-256 317l103 101l201 -207l284 205l60 -103z" />
    <glyph glyph-name="zcaron" unicode="&#x17e;" 
d="M784 0h-833l39 184l649 561h-348l-41 -188h-182l79 375h816l-39 -187l-652 -559h369l39 185h182zM575 981l-256 317l103 101l201 -207l284 205l60 -103z" />
    <glyph glyph-name="longs" unicode="&#x17f;" 
d="M510 186h213l-39 -186h-627l39 186h207l119 559h-207l39 187h207q41 192 180 293.5t340 101.5q31 0 64.5 -3t66.5 -7l-39 -182q-57 6 -106 6q-80 0 -131.5 -11.5t-85 -37t-52 -65.5t-30.5 -95z" />
    <glyph glyph-name="florin" unicode="&#x192;" 
d="M422 745h-207l39 187h207q41 192 180 293.5t340 101.5q31 0 64.5 -3t66.5 -7l-39 -182q-57 6 -106 6q-80 0 -131.5 -11.5t-85 -37t-52 -65.5t-30.5 -95h362l-39 -187h-362l-162 -761q-41 -191 -179 -285t-339 -94q-31 0 -62.5 2t-66.5 6l39 184q55 -6 104 -6
q146 0 210.5 46t86.5 147z" />
    <glyph glyph-name="AEacute" unicode="&#x1fc;" 
d="M297 0l65 311h-169l-142 -311h-213l641 1305h631l-39 -187h-330l-77 -360h280l-39 -187h-280l-82 -385h329l-38 -186h-537zM274 494h127l109 516zM952 1600l-485 -244l-57 137l463 287z" />
    <glyph glyph-name="aeacute" unicode="&#x1fd;" 
d="M379 131q-53 -65 -113.5 -109.5t-140.5 -44.5q-62 0 -101.5 23t-63 60.5t-30 88t6.5 105.5q16 80 54 141.5t90 102.5t114.5 61.5t126.5 20.5q22 0 36.5 -1t36.5 -6l13 60q16 74 -5.5 105.5t-66.5 31.5q-35 0 -81 -18.5t-95 -77.5l-99 119q74 86 159 123.5t147 37.5
q71 0 121.5 -28.5t58.5 -100.5q49 68 106.5 98.5t126.5 30.5q94 0 136 -50t53.5 -130t-3 -181t-36.5 -206h-387q-27 -125 -2.5 -172t69.5 -47q33 0 59.5 18.5t45.5 61.5l162 -58q-58 -108 -131.5 -160.5t-176.5 -52.5q-28 0 -58 7.5t-56.5 25t-47 47t-28.5 74.5zM762 569
q20 119 7 160t-52 41q-43 0 -76 -45t-59 -156h180zM356 391q-12 2 -25.5 3t-35.5 1q-49 0 -95 -34.5t-59 -96.5q-10 -51 5.5 -74.5t48.5 -23.5q55 0 95 49t54 115zM872 1227l-485 -244l-57 137l463 287z" />
    <glyph glyph-name="Oslashacute" unicode="&#x1fe;" 
d="M6 653q29 131 82 253t133 215t186.5 149.5t241.5 56.5q133 0 215 -52t123 -142l162 133l-47 -222l-74 -61q16 -152 -22 -330q-27 -131 -80.5 -252.5t-132 -216t-186 -151t-245.5 -56.5q-129 0 -209.5 48.5t-121.5 132.5l-164 -138l45 222l74 61q-13 78 -5.5 167t25.5 183
zM213 653q-10 -47 -17.5 -92t-9.5 -90l625 514q-20 70 -67.5 113t-133.5 43q-143 0 -245.5 -129t-151.5 -359zM403 164q89 0 153.5 43t112.5 112.5t79.5 157.5t50.5 176q10 41 15 80t9 80l-616 -510q20 -63 66 -101t130 -38zM952 1600l-485 -244l-57 137l463 287z" />
    <glyph glyph-name="oslashacute" unicode="&#x1ff;" 
d="M-61 180l47 33q-19 53 -22 116.5t13 135.5q23 106 78.5 196.5t133 156t176 101t206.5 35.5q99 0 174.5 -30.5t128.5 -83.5l162 114l-43 -202l-47 -33q17 -55 20 -118.5t-12 -135.5q-24 -109 -77.5 -198t-131 -153.5t-175 -100.5t-208.5 -36q-100 0 -176.5 30t-128.5 83
l-159 -113zM748 465q12 63 6 119l-516 -365q28 -26 70 -40.5t95 -14.5q66 0 122.5 22.5t101.5 63.5t75.5 95t45.5 120zM184 465q-14 -66 -6 -117l512 363q-57 57 -160 57q-65 0 -122.5 -23.5t-102.5 -63.5t-76.5 -96.5t-44.5 -119.5zM872 1227l-485 -244l-57 137l463 287z
" />
    <glyph glyph-name="Scommaaccent" unicode="&#x218;" 
d="M877 358q-21 -90 -66 -160.5t-108.5 -119.5t-141.5 -75t-160 -26q-92 0 -158.5 33t-103.5 109l-24 -119h-187l90 426h187q-15 -64 -2.5 -113t42 -82.5t75 -51t100.5 -17.5q92 0 158.5 43t87.5 137q10 49 -0.5 84t-37 62.5t-69.5 48t-96 43.5q-68 24 -132.5 54t-110.5 74
t-67.5 108.5t-0.5 162.5q18 86 63 150.5t107.5 108.5t136 66.5t151.5 22.5q90 0 146.5 -38t79.5 -101l24 117h187l-86 -406h-187q25 115 -22 179.5t-150 64.5q-90 0 -158.5 -42t-83.5 -118q-10 -39 0.5 -66.5t35 -50t65.5 -42t96 -42.5q68 -26 133.5 -59t113.5 -81
t70.5 -116.5t2.5 -167.5zM561 -109l-248 -264h-190l160 264h278z" />
    <glyph glyph-name="scommaaccent" unicode="&#x219;" 
d="M866 279q-18 -91 -71.5 -148t-125 -92t-154.5 -48.5t-159 -13.5q-127 0 -244.5 37t-197.5 97l123 170q96 -64 182 -90.5t178 -26.5q125 0 187.5 26.5t72.5 73.5q5 23 -8.5 38t-47.5 27.5t-91 25t-145 26.5q-70 12 -130.5 29.5t-102.5 49.5t-61.5 81t-4.5 123
q16 75 67 130.5t121 91.5t151.5 52t159.5 16q111 0 208 -28.5t163 -81.5l-117 -160q-65 49 -136 66.5t-159 17.5q-37 0 -77.5 -4t-76.5 -15.5t-62.5 -31t-33.5 -47.5q-8 -37 52.5 -60.5t214.5 -46.5q84 -12 150.5 -30.5t110.5 -50t62.5 -81t1.5 -122.5zM561 -109l-248 -264
h-190l160 264h278z" />
    <glyph glyph-name="uni021A" unicode="&#x21a;" 
d="M1008 829h-185l62 289h-176l-199 -932h207l-39 -186h-621l39 186h207l199 932h-178l-62 -289h-184l100 476h930zM561 -109l-248 -264h-190l160 264h278z" />
    <glyph glyph-name="uni021B" unicode="&#x21b;" 
d="M905 297q-47 -147 -164.5 -233.5t-267.5 -86.5q-82 0 -143.5 27t-99 75t-50 115.5t3.5 147.5l86 403h-211l39 187h211l80 373h207l-80 -373h391l-39 -187h-391l-86 -403q-18 -90 16.5 -134t106.5 -44q88 0 141.5 51t77.5 123zM561 -109l-248 -264h-190l160 264h278z" />
    <glyph glyph-name="circumflex" unicode="&#x2c6;" 
d="M922 1085l-101 -102l-198 205l-291 -207l-58 100l392 318z" />
    <glyph glyph-name="caron" unicode="&#x2c7;" 
d="M575 981l-256 317l103 101l201 -207l284 205l60 -103z" />
    <glyph glyph-name="breve" unicode="&#x2d8;" 
d="M944 1167q-164 -135 -356 -135q-193 0 -299 135l145 119q74 -94 187 -94q112 0 227 94z" />
    <glyph glyph-name="dotaccent" unicode="&#x2d9;" 
d="M717 1053h-252l53 252h252z" />
    <glyph glyph-name="ring" unicode="&#x2da;" 
d="M410 1257q10 48 35.5 88.5t63.5 71.5t82 48.5t91 17.5t85 -17.5t61.5 -48.5t32.5 -71.5t-1 -88.5q-10 -47 -35.5 -88t-63.5 -71.5t-82 -48t-91 -17.5t-85 17.5t-61.5 48t-33 71.5t1.5 88zM543 1257q-8 -38 12 -65t59 -27t72 27t41 65q8 39 -12.5 66t-59.5 27t-71.5 -27
t-40.5 -66z" />
    <glyph glyph-name="ogonek" unicode="&#x2db;" 
d="M813 -379q-135 0 -200.5 59.5t-41.5 178.5q15 65 60 116.5t98 79.5l53 -55q-49 -43 -61 -104q-14 -64 22.5 -95.5t100.5 -31.5z" />
    <glyph glyph-name="tilde" unicode="&#x2dc;" 
d="M1040 1245q-67 -96 -147 -150.5t-172 -54.5q-49 0 -80 18.5t-56.5 40t-51 40t-62.5 18.5q-51 0 -93 -31.5t-87 -87.5l-107 70q68 94 148 148.5t172 54.5q49 0 79.5 -18.5t56.5 -40t51.5 -40t62.5 -18.5q51 0 93 31.5t87 89.5z" />
    <glyph glyph-name="hungarumlaut" unicode="&#x2dd;" 
d="M817 1024h-172l221 375h217zM444 1024h-170l220 375h217z" />
    <glyph glyph-name="tonos" unicode="&#x384;" 
d="M874 1675l-200 -557h-162l117 557h245z" />
    <glyph glyph-name="dieresistonos" unicode="&#x385;" 
d="M1071 1118h-252l53 252h252zM391 1118h-252l54 252h251zM874 1675l-200 -557h-162l117 557h245z" />
    <glyph glyph-name="Alphatonos" unicode="&#x386;" 
d="M678 0l-29 311h-432l-158 -311h-217l684 1305h238l131 -1305h-217zM311 494h322l-45 538zM502 1675l-200 -557h-162l117 557h245z" />
    <glyph glyph-name="Epsilontonos" unicode="&#x388;" 
d="M316 1675l-200 -557h-162l117 557h245zM784 0h-833l276 1305h834l-39 -187h-627l-78 -360h490l-39 -187h-489l-82 -385h626z" />
    <glyph glyph-name="Etatonos" unicode="&#x389;" 
d="M316 1675l-200 -557h-162l117 557h245zM784 0h-206l120 571h-419l-121 -571h-207l276 1305h207l-117 -547h420l117 547h207z" />
    <glyph glyph-name="Iotatonos" unicode="&#x38a;" 
d="M782 0h-626l39 186h206l199 932h-125l39 187h545l-39 -187h-213l-199 -932h213zM501 1675l-200 -557h-162l117 557h245z" />
    <glyph glyph-name="Omicrontonos" unicode="&#x38c;" 
d="M316 1675l-200 -557h-162l117 557h245zM6 653q29 131 82 253t133 215t186.5 149.5t241.5 56.5t219 -56.5t124 -149.5t41 -215t-27 -253q-27 -131 -80.5 -252.5t-132 -216t-186 -151t-245.5 -56.5q-137 0 -220 56.5t-122.5 151t-39.5 216t26 252.5zM213 653
q-18 -88 -23.5 -176t12 -157.5t65.5 -112.5t136 -43q89 0 153.5 43t112.5 112.5t79.5 157.5t50.5 176q18 88 24 175t-12 157t-66.5 113t-134.5 43q-143 0 -245.5 -129t-151.5 -359z" />
    <glyph glyph-name="Upsilontonos" unicode="&#x38e;" 
d="M1190 1118h-94l-414 -586l-74 -346h209l-39 -186h-624l39 186h208l74 346l-164 586h-24l39 187h342l-39 -187h-90l84 -383l245 383h-90l39 187h412zM315 1675l-200 -557h-162l117 557h245z" />
    <glyph glyph-name="Omegatonos" unicode="&#x38f;" 
d="M316 1675l-200 -557h-162l117 557h245zM1010 741q-31 -145 -112 -281t-224 -229l-10 -45h208l-38 -186h-373l76 358q59 25 104 67t78 94t53.5 110.5t30.5 111.5q16 70 16 141.5t-21.5 129t-66.5 93.5t-121 36q-73 0 -133.5 -36t-106.5 -93.5t-78 -129t-48 -141.5
q-11 -53 -15 -111.5t6.5 -110.5t37 -94t77.5 -67l-76 -358h-372l39 186h213l10 45q-105 86 -131.5 223.5t4.5 286.5q24 113 78.5 219.5t133.5 187.5t180 130t220 49t199 -49t124 -130t53 -187.5t-15 -219.5z" />
    <glyph glyph-name="iotadieresistonos" unicode="&#x390;" 
d="M686 14q-86 -37 -168 -37q-117 0 -176 59.5t-35 170.5l115 538h-176l39 187h383l-142 -664q-14 -67 7.5 -87.5t62.5 -20.5q22 0 45 6t37 14zM1071 1118h-252l53 252h252zM391 1118h-252l54 252h251zM874 1675l-200 -557h-162l117 557h245z" />
    <glyph glyph-name="Alpha" unicode="&#x391;" 
d="M678 0l-29 311h-432l-158 -311h-217l684 1305h238l131 -1305h-217zM311 494h322l-45 538z" />
    <glyph glyph-name="Beta" unicode="&#x392;" 
d="M907 358q-39 -178 -178 -268t-362 -90h-416l276 1305h394q81 0 157 -13.5t130.5 -50.5t80 -103.5t2.5 -172.5q-22 -99 -89.5 -181t-176.5 -118q117 -39 163 -109t19 -199zM780 938q13 57 -1.5 93t-44 55.5t-69.5 25.5t-83 6h-187l-78 -360h187q43 0 86 6t81 25.5
t67.5 55.5t41.5 93zM707 379q20 98 -38.5 145t-181.5 47h-208l-82 -385h209q122 0 201 47.5t100 145.5z" />
    <glyph glyph-name="Gamma" unicode="&#x393;" 
d="M227 1305h883l-39 -187h-676l-237 -1118h-207z" />
    <glyph glyph-name="uni0394" unicode="&#x394;" 
d="M-158 0l684 1305h238l131 -1305h-1053zM154 184h508l-74 848z" />
    <glyph glyph-name="Epsilon" unicode="&#x395;" 
d="M784 0h-833l276 1305h834l-39 -187h-627l-78 -360h490l-39 -187h-489l-82 -385h626z" />
    <glyph glyph-name="Zeta" unicode="&#x396;" 
d="M784 0h-833l39 184l782 934h-397l-62 -284h-186l100 471h817l-38 -187l-766 -932h401l61 287h183z" />
    <glyph glyph-name="Eta" unicode="&#x397;" 
d="M784 0h-206l120 571h-419l-121 -571h-207l276 1305h207l-117 -547h420l117 547h207z" />
    <glyph glyph-name="Theta" unicode="&#x398;" 
d="M291 758h471l-39 -187h-471zM6 653q29 131 82 253t133 215t186.5 149.5t241.5 56.5t219 -56.5t124 -149.5t41 -215t-27 -253q-27 -131 -80.5 -252.5t-132 -216t-186 -151t-245.5 -56.5q-137 0 -220 56.5t-122.5 151t-39.5 216t26 252.5zM213 653q-18 -88 -23.5 -176
t12 -157.5t65.5 -112.5t136 -43q89 0 153.5 43t112.5 112.5t79.5 157.5t50.5 176q18 88 24 175t-12 157t-66.5 113t-134.5 43q-143 0 -245.5 -129t-151.5 -359z" />
    <glyph glyph-name="Iota" unicode="&#x399;" 
d="M684 0h-627l39 186h207l199 932h-207l39 187h627l-39 -187h-213l-199 -932h213z" />
    <glyph glyph-name="Kappa" unicode="&#x39a;" 
d="M827 0h-241l-213 608l-109 -102l-106 -506h-207l276 1305h207l-108 -512l514 512h266l-569 -541z" />
    <glyph glyph-name="Lambda" unicode="&#x39b;" 
d="M676 0l-88 1032l-529 -1032h-217l684 1305h236l131 -1305h-217z" />
    <glyph glyph-name="Mu" unicode="&#x39c;" 
d="M784 0h-206l186 883l-232 -469h-159l-29 469l-186 -883h-207l276 1305h246l45 -590l295 590h248z" />
    <glyph glyph-name="Nu" unicode="&#x39d;" 
d="M784 0h-239l-187 946l-200 -946h-207l276 1305h260l177 -899l190 899h207z" />
    <glyph glyph-name="Xi" unicode="&#x39e;" 
d="M-29 334h187l-31 -148h559l31 148h186l-69 -334h-932zM885 1118h-559l-33 -149h-187l72 336h932l-72 -336h-186zM248 758h559l-39 -187h-559z" />
    <glyph glyph-name="Omicron" unicode="&#x39f;" 
d="M6 653q29 131 82 253t133 215t186.5 149.5t241.5 56.5t219 -56.5t124 -149.5t41 -215t-27 -253q-27 -131 -80.5 -252.5t-132 -216t-186 -151t-245.5 -56.5q-137 0 -220 56.5t-122.5 151t-39.5 216t26 252.5zM213 653q-18 -88 -23.5 -176t12 -157.5t65.5 -112.5t136 -43
q89 0 153.5 43t112.5 112.5t79.5 157.5t50.5 176q18 88 24 175t-12 157t-66.5 113t-134.5 43q-143 0 -245.5 -129t-151.5 -359z" />
    <glyph glyph-name="Pi" unicode="&#x3a0;" 
d="M784 0h-206l237 1118h-420l-237 -1118h-207l276 1305h834z" />
    <glyph glyph-name="Rho" unicode="&#x3a1;" 
d="M1028 915q-43 -196 -182 -291.5t-352 -95.5h-226l-110 -528h-207l276 1305h430q215 0 312.5 -98.5t58.5 -291.5zM821 918q21 100 -33.5 150t-166.5 50h-226l-86 -403h226q112 0 188 50t98 153z" />
    <glyph glyph-name="Sigma" unicode="&#x3a3;" 
d="M784 0h-839l39 186l393 465l-195 467l39 187h840l-94 -441h-187l56 254h-402l187 -467l-385 -465h401l53 256h187z" />
    <glyph glyph-name="Tau" unicode="&#x3a4;" 
d="M1008 829h-185l62 289h-176l-199 -932h207l-39 -186h-621l39 186h207l199 932h-178l-62 -289h-184l100 476h930z" />
    <glyph glyph-name="Upsilon" unicode="&#x3a5;" 
d="M1092 1118h-95l-413 -586l-74 -346h209l-39 -186h-625l39 186h209l74 346l-164 586h-94l39 187h411l-39 -187h-90l84 -383l246 383h-90l39 187h411z" />
    <glyph glyph-name="Phi" unicode="&#x3a6;" 
d="M999 666q-20 -97 -65 -177.5t-109.5 -142t-145.5 -103.5t-171 -57l-39 -186h-205l39 186q-170 33 -245.5 161t-34.5 319q18 94 62 174t107.5 142t143.5 104t170 59l35 160h204l-32 -158q84 -17 146.5 -57.5t100 -104t48 -144.5t-8.5 -175zM793 666q20 102 -11.5 179
t-111.5 107l-121 -573q92 31 156.5 106.5t87.5 180.5zM229 666q-22 -103 6.5 -178.5t108.5 -106.5l121 569q-92 -30 -153.5 -107t-82.5 -177z" />
    <glyph glyph-name="Chi" unicode="&#x3a7;" 
d="M854 0h-426l39 186h74l-76 295l-199 -295h74l-39 -186h-422l39 186h113l354 473l-152 459h-94l39 187h414l-39 -187h-84l72 -289l196 289h-82l39 187h416l-39 -187h-100l-348 -459l153 -473h117z" />
    <glyph glyph-name="Psi" unicode="&#x3a8;" 
d="M1014 856q-27 -127 -71 -220t-105.5 -157.5t-136 -102.5t-162.5 -50l-68 -326h-207l68 326q-164 26 -233.5 153t-16.5 377l96 449h207l-96 -449q-27 -125 -9.5 -214t93.5 -124l168 787h207l-168 -787q92 35 147 123t82 215l96 449h205z" />
    <glyph glyph-name="uni03A9" unicode="&#x3a9;" 
d="M1010 741q-31 -145 -112 -281t-224 -229l-10 -45h208l-38 -186h-373l76 358q59 25 104 67t78 94t53.5 110.5t30.5 111.5q16 70 16 141.5t-21.5 129t-66.5 93.5t-121 36q-73 0 -133.5 -36t-106.5 -93.5t-78 -129t-48 -141.5q-11 -53 -15 -111.5t6.5 -110.5t37 -94
t77.5 -67l-76 -358h-372l39 186h213l10 45q-105 86 -131.5 223.5t4.5 286.5q24 113 78.5 219.5t133.5 187.5t180 130t220 49t199 -49t124 -130t53 -187.5t-15 -219.5z" />
    <glyph glyph-name="Iotadieresis" unicode="&#x3aa;" 
d="M684 0h-627l39 186h207l199 932h-207l39 187h627l-39 -187h-213l-199 -932h213zM983 1424h-252l54 252h251zM610 1424h-251l53 252h252z" />
    <glyph glyph-name="Upsilondieresis" unicode="&#x3ab;" 
d="M1092 1118h-95l-413 -586l-74 -346h209l-39 -186h-625l39 186h209l74 346l-164 586h-94l39 187h411l-39 -187h-90l84 -383l246 383h-90l39 187h411zM983 1424h-252l54 252h251zM610 1424h-251l53 252h252z" />
    <glyph glyph-name="alphatonos" unicode="&#x3ac;" 
d="M186 465q-12 -53 -12 -106.5t15.5 -96.5t47 -70.5t85.5 -27.5q45 0 87 27.5t79.5 70.5t69.5 96.5t60 106.5q-6 53 -14 107.5t-28.5 97.5t-51 70.5t-75.5 27.5q-54 0 -97 -27.5t-75.5 -70.5t-56 -97.5t-34.5 -107.5zM-20 465q20 94 63 182t107.5 156.5t148.5 109.5t184 41
q121 0 178.5 -56t81.5 -165l84 199h209l-229 -467l33 -465h-209l-2 197q-70 -109 -152 -164.5t-203 -55.5q-100 0 -165.5 41t-101.5 109t-42 156t15 182zM874 1675l-200 -557h-162l117 557h245z" />
    <glyph glyph-name="epsilontonos" unicode="&#x3ad;" 
d="M47 676q12 63 58.5 115.5t115 88t155.5 55t183 19.5q154 0 243 -50t130 -150l-174 -105q-51 119 -242 119q-110 0 -183 -29.5t-83 -79.5q-8 -34 39 -61t151 -27h197l-41 -186h-199q-104 0 -162.5 -33t-66.5 -71q-12 -54 52.5 -85.5t178.5 -31.5q99 0 178.5 33.5
t118.5 87.5l140 -109q-86 -100 -200 -149.5t-274 -49.5q-100 0 -181 19.5t-135 56.5t-78.5 90.5t-10.5 120.5q14 72 84 131.5t166 77.5q-96 16 -135 75.5t-25 127.5zM874 1675l-200 -557h-162l117 557h245z" />
    <glyph glyph-name="etatonos" unicode="&#x3ae;" 
d="M416 774q39 78 123 129t172 51q143 0 189 -93t5 -283l-200 -951h-207l200 951q25 114 0.5 152t-75.5 38q-86 0 -151.5 -73.5t-96.5 -215.5l-101 -479h-206l143 682q10 43 -8.5 64.5t-52.5 21.5q-21 0 -35.5 -3t-32.5 -7l-4 168q35 14 82 21t92 7q39 0 71.5 -11t56 -32.5
t34 -56.5t2.5 -80zM874 1675l-200 -557h-162l117 557h245z" />
    <glyph glyph-name="iotatonos" unicode="&#x3af;" 
d="M686 14q-86 -37 -168 -37q-117 0 -176 59.5t-35 170.5l115 538h-176l39 187h383l-142 -664q-14 -67 7.5 -87.5t62.5 -20.5q22 0 45 6t37 14zM874 1675l-200 -557h-162l117 557h245z" />
    <glyph glyph-name="upsilondieresistonos" unicode="&#x3b0;" 
d="M362 -23q-94 0 -165.5 24t-116.5 72t-59.5 118.5t6.5 166.5l120 574h207l-121 -574q-22 -98 31 -146t144 -48q71 0 126.5 31.5t96.5 83t66.5 114t37.5 121.5q23 109 24 197t-24 166l215 75q21 -96 19 -206.5t-27 -233.5q-20 -94 -67.5 -189.5t-120 -172t-171 -125
t-221.5 -48.5zM1071 1118h-252l53 252h252zM391 1118h-252l54 252h251zM874 1675l-200 -557h-162l117 557h245z" />
    <glyph glyph-name="alpha" unicode="&#x3b1;" 
d="M186 465q-12 -53 -12 -106.5t15.5 -96.5t47 -70.5t85.5 -27.5q45 0 87 27.5t79.5 70.5t69.5 96.5t60 106.5q-6 53 -14 107.5t-28.5 97.5t-51 70.5t-75.5 27.5q-54 0 -97 -27.5t-75.5 -70.5t-56 -97.5t-34.5 -107.5zM-20 465q20 94 63 182t107.5 156.5t148.5 109.5t184 41
q121 0 178.5 -56t81.5 -165l84 199h209l-229 -467l33 -465h-209l-2 197q-70 -109 -152 -164.5t-203 -55.5q-100 0 -165.5 41t-101.5 109t-42 156t15 182z" />
    <glyph glyph-name="beta" unicode="&#x3b2;" 
d="M430 -23q-88 0 -148.5 24t-109.5 73l-94 -447h-205l274 1299q19 88 67 162.5t115.5 127t151.5 82t174 29.5q97 0 167.5 -30.5t112.5 -80t56.5 -112t-0.5 -125.5q-22 -105 -98 -187.5t-193 -119.5q125 -41 182.5 -121t32.5 -203q-18 -82 -62 -149.5t-108.5 -116.5
t-145.5 -77t-169 -28zM434 164q113 0 185.5 53t91.5 148q20 94 -32 150t-185 56h-99l39 187h92q113 0 174.5 56t79.5 142q6 29 3 62t-22.5 60.5t-54 45t-90.5 17.5q-41 0 -82.5 -13.5t-77.5 -40t-63.5 -66.5t-38.5 -95l-139 -652q64 -110 219 -110z" />
    <glyph glyph-name="gamma" unicode="&#x3b3;" 
d="M997 932q-41 -119 -94 -244t-119.5 -248t-147.5 -240.5t-181 -224.5l-74 -348h-205l74 348l-152 957h221l101 -739q119 145 205 334.5t155 404.5h217z" />
    <glyph glyph-name="delta" unicode="&#x3b4;" 
d="M27 406q22 108 115.5 218.5t258.5 202.5q-45 43 -70.5 96.5t-8.5 133.5q12 55 42.5 104t77.5 86t109.5 58.5t136.5 21.5t135.5 -16.5t114.5 -57.5l-121 -155q-39 32 -84 45.5t-80 13.5q-47 0 -81.5 -23.5t-45.5 -64.5q-8 -47 19.5 -86t74 -78t101.5 -83t97 -102
t62.5 -135t0.5 -179q-21 -97 -69 -174.5t-115.5 -135t-153.5 -88.5t-185 -31q-96 0 -167.5 31t-115.5 88.5t-56.5 135t8.5 174.5zM674 406q12 57 5 104t-26.5 84t-50.5 67.5t-63 57.5q-140 -68 -213.5 -144.5t-94.5 -171.5q-20 -104 25 -171.5t143 -67.5q109 0 180.5 67.5
t94.5 174.5z" />
    <glyph glyph-name="epsilon" unicode="&#x3b5;" 
d="M47 676q12 63 58.5 115.5t115 88t155.5 55t183 19.5q154 0 243 -50t130 -150l-174 -105q-51 119 -242 119q-110 0 -183 -29.5t-83 -79.5q-8 -34 39 -61t151 -27h197l-41 -186h-199q-104 0 -162.5 -33t-66.5 -71q-12 -54 52.5 -85.5t178.5 -31.5q99 0 178.5 33.5
t118.5 87.5l140 -109q-86 -100 -200 -149.5t-274 -49.5q-100 0 -181 19.5t-135 56.5t-78.5 90.5t-10.5 120.5q14 72 84 131.5t166 77.5q-96 16 -135 75.5t-25 127.5z" />
    <glyph glyph-name="zeta" unicode="&#x3b6;" 
d="M451 2q-256 12 -377 129t-72 344q25 113 88.5 207t159.5 174t216 144.5t257 117.5h-397l39 187h745l-39 -187q-215 -59 -367.5 -131t-257 -154.5t-161 -173t-76.5 -184.5q-59 -274 303 -295q172 -10 240.5 -83.5t44.5 -190.5q-13 -51 -41.5 -100.5t-75.5 -88.5
t-111.5 -63.5t-144.5 -26.5l12 178q74 9 109 33.5t45 67.5q10 49 -30 70.5t-109 25.5z" />
    <glyph glyph-name="eta" unicode="&#x3b7;" 
d="M416 774q39 78 123 129t172 51q143 0 189 -93t5 -283l-200 -951h-207l200 951q25 114 0.5 152t-75.5 38q-86 0 -151.5 -73.5t-96.5 -215.5l-101 -479h-206l143 682q10 43 -8.5 64.5t-52.5 21.5q-21 0 -35.5 -3t-32.5 -7l-4 168q35 14 82 21t92 7q39 0 71.5 -11t56 -32.5
t34 -56.5t2.5 -80z" />
    <glyph glyph-name="theta" unicode="&#x3b8;" 
d="M934 651q-31 -149 -82 -273t-122 -213t-163 -138.5t-205 -49.5q-114 0 -183.5 49.5t-102.5 138.5t-30 213t34 273q31 148 81 272t121.5 214t162 140t204.5 50q115 0 185.5 -50t103.5 -139t30 -214t-34 -273zM403 164q62 0 111 33.5t86 91t65.5 130.5t47.5 152h-445
q-14 -79 -18 -152t10 -130.5t48 -91t95 -33.5zM610 1143q-59 0 -107 -34t-85 -88t-63.5 -123t-45.5 -140h441q14 71 16 140t-13.5 123t-49 88t-93.5 34z" />
    <glyph glyph-name="iota" unicode="&#x3b9;" 
d="M686 14q-86 -37 -168 -37q-117 0 -176 59.5t-35 170.5l115 538h-176l39 187h383l-142 -664q-14 -67 7.5 -87.5t62.5 -20.5q22 0 45 6t37 14z" />
    <glyph glyph-name="kappa" unicode="&#x3ba;" 
d="M831 0h-268l-231 377l-115 -96l-59 -281h-207l196 932h207l-84 -395l457 395h285l-520 -428z" />
    <glyph glyph-name="lambda" unicode="&#x3bb;" 
d="M608 -37l-92 742l-405 -705h-215l559 956l-19 91q-16 83 -108 83q-29 0 -66 -6t-84 -22l-2 190q55 19 103.5 27t89.5 8q118 0 196 -46t94 -167l160 -1083z" />
    <glyph glyph-name="uni03BC" unicode="&#x3bc;" 
d="M565 160q-33 -78 -90 -130.5t-143 -52.5q-76 0 -110 33t-46 86l-98 -469h-205l274 1305h207l-123 -584q-12 -53 -9 -89t16.5 -57.5t39 -29.5t56.5 -8q65 0 126.5 65.5t84.5 171.5l112 531h207l-145 -682q-8 -47 10.5 -66.5t52.5 -19.5q35 0 70 14l-10 -176
q-23 -10 -52.5 -17.5t-80.5 -7.5q-31 0 -58.5 11.5t-50 34t-33 56.5t-2.5 81z" />
    <glyph glyph-name="nu" unicode="&#x3bd;" 
d="M252 0l-154 932h221l103 -715q117 145 198.5 322.5t151.5 392.5h217q-41 -119 -92 -240t-115.5 -239.5t-144.5 -232.5t-180 -220h-205z" />
    <glyph glyph-name="xi" unicode="&#x3be;" 
d="M190 381q-14 -64 1.5 -100.5t57.5 -57t108.5 -29t156.5 -14.5q172 -10 240.5 -83.5t44.5 -190.5q-13 -51 -41.5 -100.5t-75.5 -88.5t-111.5 -63.5t-144.5 -26.5l12 178q74 9 109 33.5t45 67.5q10 49 -30 70.5t-109 25.5q-129 6 -226.5 27.5t-159 64.5t-84 111.5
t-1.5 167.5q22 108 106 186t238 115q-56 14 -91.5 47t-54 76t-21.5 92t7 96q16 78 63 141.5t114 107.5t145.5 68.5t158.5 24.5q78 0 157 -17.5t134 -52.5l-109 -172q-47 29 -100 42.5t-121 13.5q-88 0 -156.5 -51.5t-84.5 -128.5q-19 -89 23 -146t165 -57h227l-39 -187h-227
q-135 0 -222 -58t-104 -132z" />
    <glyph glyph-name="omicron" unicode="&#x3bf;" 
d="M952 465q-24 -109 -77.5 -198t-131 -153.5t-175 -100.5t-208.5 -36q-108 0 -190 36t-133 100.5t-67.5 153.5t7.5 198q23 106 77.5 196.5t132 156t176 101t206.5 35.5q111 0 192 -35.5t132 -101t66.5 -156t-7.5 -196.5zM745 465q13 63 5.5 119.5t-35 96.5t-74.5 63.5
t-113 23.5q-65 0 -122.5 -23.5t-101.5 -63.5t-75.5 -96.5t-44.5 -119.5q-14 -66 -6 -120t35 -95t75 -63.5t113 -22.5q66 0 122.5 22.5t101.5 63.5t75.5 95t44.5 120z" />
    <glyph glyph-name="pi" unicode="&#x3c0;" 
d="M723 268q-10 -49 8.5 -78.5t69.5 -29.5q28 0 46.5 4t35.5 12l-11 -174q-47 -25 -129 -25q-141 0 -200.5 69t-26.5 222l102 477h-186q-20 -98 -42.5 -189t-47.5 -180t-52.5 -181.5t-58.5 -194.5h-208q32 100 60 190.5t51.5 179.5t46 181t44.5 194h-166l39 187h932
l-39 -187h-166z" />
    <glyph glyph-name="rho" unicode="&#x3c1;" 
d="M932 465q-25 -109 -76 -198t-122.5 -153.5t-158 -100.5t-178.5 -36q-78 0 -131 24t-94 73l-96 -447h-203l176 838q19 92 63 180t110.5 156.5t155.5 110.5t200 42q104 0 181 -35.5t124 -101t59 -156t-10 -196.5zM725 465q12 63 9 118.5t-26.5 96.5t-64.5 64.5t-102 23.5
q-97 0 -173.5 -70.5t-111.5 -232.5l-43 -201q72 -100 209 -100q57 0 106.5 23.5t89 63.5t66.5 95t41 119z" />
    <glyph glyph-name="sigma1" unicode="&#x3c2;" 
d="M211 475q-59 -274 303 -295q172 -10 240.5 -83.5t44.5 -190.5q-13 -51 -41.5 -100.5t-75.5 -88.5t-111.5 -63.5t-144.5 -26.5l12 178q74 9 109 33.5t45 67.5q10 49 -30 70.5t-109 25.5q-256 12 -377 129t-72 344q23 105 77 193t132 151.5t176 99t207 35.5
q117 0 209 -33.5t162 -123.5l-156 -146q-47 60 -103.5 88.5t-152.5 28.5q-123 0 -219 -79t-125 -214z" />
    <glyph glyph-name="sigma" unicode="&#x3c3;" 
d="M776 745q35 -20 61.5 -53t43 -73.5t21.5 -88t-7 -98.5q-21 -102 -73 -186t-125.5 -143.5t-166 -93.5t-192.5 -34q-102 0 -180 34t-126 97.5t-63.5 150.5t6.5 196q25 106 80.5 195t134 151.5t176 97.5t203.5 35h547l-39 -187h-301zM522 745q-135 0 -223 -79.5t-117 -212.5
q-12 -62 -5 -115t33 -92t67.5 -61.5t99.5 -22.5q63 0 115.5 21.5t91.5 58.5t66.5 86t37.5 104q23 105 -7 193t-114 120h-45z" />
    <glyph glyph-name="tau" unicode="&#x3c4;" 
d="M98 932h932l-39 -187h-362l-101 -473q-14 -67 7.5 -87.5t62.5 -20.5q23 0 45.5 6t36.5 14l6 -170q-86 -37 -168 -37q-117 0 -176 59.5t-35 170.5l115 538h-363z" />
    <glyph glyph-name="upsilon" unicode="&#x3c5;" 
d="M362 -23q-94 0 -165.5 24t-116.5 72t-59.5 118.5t6.5 166.5l120 574h207l-121 -574q-22 -98 31 -146t144 -48q71 0 126.5 31.5t96.5 83t66.5 114t37.5 121.5q23 109 24 197t-24 166l215 75q21 -96 19 -206.5t-27 -233.5q-20 -94 -67.5 -189.5t-120 -172t-171 -125
t-221.5 -48.5z" />
    <glyph glyph-name="phi" unicode="&#x3c6;" 
d="M672 954q78 0 140 -35.5t102 -97t54.5 -145.5t-5.5 -182q-45 -211 -178.5 -343.5t-317.5 -162.5l-76 -361h-207l76 361q-84 14 -146.5 56t-99.5 103.5t-46 142.5t12 175q26 131 101 245.5t181 184.5l92 -160q-63 -43 -106 -113.5t-62 -156.5q-22 -100 6.5 -177
t108.5 -108l119 561q22 105 87.5 159t164.5 54zM508 180q94 33 157.5 114t90.5 200q24 116 -3.5 187t-78.5 71q-43 0 -60 -76z" />
    <glyph glyph-name="chi" unicode="&#x3c7;" 
d="M518 -395l-139 477l-326 -455h-237l487 643l-184 598l200 88l140 -497l334 473h237l-493 -662l186 -573z" />
    <glyph glyph-name="psi" unicode="&#x3c8;" 
d="M936 483q-29 -127 -73 -220t-104.5 -157.5t-136 -101.5t-161.5 -49l-70 -328h-207l70 328q-164 27 -233.5 152.5t-16.5 375.5l94 449h207l-94 -449q-27 -125 -10.5 -214t94.5 -124l207 973h207l-207 -973q90 35 145 123t84 215l94 449h205z" />
    <glyph glyph-name="omega" unicode="&#x3c9;" 
d="M629 745l-72 -339q-51 -242 41 -242q51 0 79 61.5t58 206.5q13 51 21 109.5t12 117t2 113.5t-10 105l207 73q10 -47 13 -111.5t-2 -134t-13.5 -140t-22.5 -132.5q-20 -100 -52 -184t-77 -143.5t-102.5 -93.5t-130.5 -34q-80 0 -126 51.5t-53 133.5q-39 -82 -107.5 -133.5
t-148.5 -51.5q-73 0 -116 34t-61.5 93.5t-15.5 143.5t23 184q15 62 35.5 132.5t46 140t55 134t60.5 111.5l174 -73q-29 -50 -53.5 -105t-45 -113.5t-36.5 -117t-29 -109.5q-30 -145 -27 -206.5t54 -61.5q90 0 141 242l72 339h207z" />
    <glyph glyph-name="iotadieresis" unicode="&#x3ca;" 
d="M686 14q-86 -37 -168 -37q-117 0 -176 59.5t-35 170.5l115 538h-176l39 187h383l-142 -664q-14 -67 7.5 -87.5t62.5 -20.5q22 0 45 6t37 14zM903 1121h-252l54 252h251zM530 1121h-251l53 252h252z" />
    <glyph glyph-name="upsilondieresis" unicode="&#x3cb;" 
d="M362 -23q-94 0 -165.5 24t-116.5 72t-59.5 118.5t6.5 166.5l120 574h207l-121 -574q-22 -98 31 -146t144 -48q71 0 126.5 31.5t96.5 83t66.5 114t37.5 121.5q23 109 24 197t-24 166l215 75q21 -96 19 -206.5t-27 -233.5q-20 -94 -67.5 -189.5t-120 -172t-171 -125
t-221.5 -48.5zM903 1119h-252l54 252h251zM530 1119h-251l53 252h252z" />
    <glyph glyph-name="omicrontonos" unicode="&#x3cc;" 
d="M952 465q-24 -109 -77.5 -198t-131 -153.5t-175 -100.5t-208.5 -36q-108 0 -190 36t-133 100.5t-67.5 153.5t7.5 198q23 106 77.5 196.5t132 156t176 101t206.5 35.5q111 0 192 -35.5t132 -101t66.5 -156t-7.5 -196.5zM745 465q13 63 5.5 119.5t-35 96.5t-74.5 63.5
t-113 23.5q-65 0 -122.5 -23.5t-101.5 -63.5t-75.5 -96.5t-44.5 -119.5q-14 -66 -6 -120t35 -95t75 -63.5t113 -22.5q66 0 122.5 22.5t101.5 63.5t75.5 95t44.5 120zM874 1675l-200 -557h-162l117 557h245z" />
    <glyph glyph-name="upsilontonos" unicode="&#x3cd;" 
d="M362 -23q-94 0 -165.5 24t-116.5 72t-59.5 118.5t6.5 166.5l120 574h207l-121 -574q-22 -98 31 -146t144 -48q71 0 126.5 31.5t96.5 83t66.5 114t37.5 121.5q23 109 24 197t-24 166l215 75q21 -96 19 -206.5t-27 -233.5q-20 -94 -67.5 -189.5t-120 -172t-171 -125
t-221.5 -48.5zM874 1675l-200 -557h-162l117 557h245z" />
    <glyph glyph-name="omegatonos" unicode="&#x3ce;" 
d="M629 745l-72 -339q-51 -242 41 -242q51 0 79 61.5t58 206.5q13 51 21 109.5t12 117t2 113.5t-10 105l207 73q10 -47 13 -111.5t-2 -134t-13.5 -140t-22.5 -132.5q-20 -100 -52 -184t-77 -143.5t-102.5 -93.5t-130.5 -34q-80 0 -126 51.5t-53 133.5q-39 -82 -107.5 -133.5
t-148.5 -51.5q-73 0 -116 34t-61.5 93.5t-15.5 143.5t23 184q15 62 35.5 132.5t46 140t55 134t60.5 111.5l174 -73q-29 -50 -53.5 -105t-45 -113.5t-36.5 -117t-29 -109.5q-30 -145 -27 -206.5t54 -61.5q90 0 141 242l72 339h207zM874 1675l-200 -557h-162l117 557h245z" />
    <glyph glyph-name="afii10023" unicode="&#x401;" 
d="M784 0h-833l276 1305h834l-39 -187h-627l-78 -360h490l-39 -187h-489l-82 -385h626zM983 1424h-252l54 252h251zM610 1424h-251l53 252h252z" />
    <glyph glyph-name="afii10051" unicode="&#x402;" 
d="M41 1305h580l-39 -187h-187l-90 -420q57 121 155.5 188.5t221.5 67.5q143 0 203.5 -93t19.5 -286l-63 -299q-17 -81 -52.5 -138.5t-83 -92.5t-104.5 -51.5t-119 -16.5q-84 0 -116 25l63 178q12 -8 29.5 -12t46.5 -4q106 0 129 112l63 299q23 109 -9 151t-109 42
q-115 0 -207 -93t-127 -257l-88 -418h-207l237 1118h-186z" />
    <glyph glyph-name="afii10052" unicode="&#x403;" 
d="M1022 1118h-627l-237 -1118h-207l276 1305h834zM952 1598l-485 -244l-57 137l463 287z" />
    <glyph glyph-name="afii10053" unicode="&#x404;" 
d="M936 399q-44 -96 -100.5 -174t-126 -133t-152.5 -85t-181 -30q-137 0 -220.5 56.5t-123 151t-41 216t26.5 252.5q19 87 48.5 171t70 159t93 138t117 108.5t140.5 71.5t164 26q43 0 84.5 -11t74.5 -33.5t54.5 -55.5t24.5 -76l33 154h187l-94 -444h-187q7 36 2.5 85.5
t-28.5 92.5q-23 45 -66.5 73.5t-112.5 28.5q-74 0 -133 -31.5t-104.5 -85t-78.5 -122.5t-56 -144h510l-40 -187h-511q-12 -79 -10.5 -152.5t23.5 -130t68 -90.5t124 -34q127 0 213 81q87 82 156 218z" />
    <glyph glyph-name="afii10054" unicode="&#x405;" 
d="M877 358q-21 -90 -66 -160.5t-108.5 -119.5t-141.5 -75t-160 -26q-92 0 -158.5 33t-103.5 109l-24 -119h-187l90 426h187q-15 -64 -2.5 -113t42 -82.5t75 -51t100.5 -17.5q92 0 158.5 43t87.5 137q10 49 -0.5 84t-37 62.5t-69.5 48t-96 43.5q-68 24 -132.5 54t-110.5 74
t-67.5 108.5t-0.5 162.5q18 86 63 150.5t107.5 108.5t136 66.5t151.5 22.5q90 0 146.5 -38t79.5 -101l24 117h187l-86 -406h-187q25 115 -22 179.5t-150 64.5q-90 0 -158.5 -42t-83.5 -118q-10 -39 0.5 -66.5t35 -50t65.5 -42t96 -42.5q68 -26 133.5 -59t113.5 -81
t70.5 -116.5t2.5 -167.5z" />
    <glyph glyph-name="afii10055" unicode="&#x406;" 
d="M684 0h-627l39 186h207l199 932h-207l39 187h627l-39 -187h-213l-199 -932h213z" />
    <glyph glyph-name="afii10056" unicode="&#x407;" 
d="M684 0h-627l39 186h207l199 932h-207l39 187h627l-39 -187h-213l-199 -932h213zM983 1424h-252l54 252h251zM610 1424h-251l53 252h252z" />
    <glyph glyph-name="afii10057" unicode="&#x408;" 
d="M889 498q-53 -248 -187.5 -384.5t-351.5 -136.5q-174 0 -272 91.5t-107 273.5l201 70q4 -117 56.5 -182.5t162.5 -65.5q68 0 116 27.5t83 73.5t56.5 106.5t35.5 126.5l172 807h207z" />
    <glyph glyph-name="afii10058" unicode="&#x409;" 
d="M803 387q20 102 -20 152.5t-126 50.5h-51l-86 -404h51q86 0 147.5 50.5t84.5 150.5zM645 776h49q189 0 273 -95t43 -292q-41 -192 -166 -290.5t-314 -98.5h-256l238 1118h-166l-180 -842q-16 -81 -50 -138.5t-77 -92.5t-93 -51.5t-102 -16.5q-49 0 -76.5 7.5t-48.5 17.5
l68 170q10 -4 25.5 -6t27.5 -2q97 0 119 112l219 1029h580z" />
    <glyph glyph-name="afii10059" unicode="&#x40a;" 
d="M-98 0l276 1305h207l-113 -529h166l113 529h207l-113 -529h49q189 0 273 -95t43 -292q-41 -192 -166 -290.5t-314 -98.5h-256l125 590h-166l-124 -590h-207zM803 387q20 102 -20 152.5t-126 50.5h-51l-86 -404h51q86 0 147.5 50.5t84.5 150.5z" />
    <glyph glyph-name="afii10060" unicode="&#x40b;" 
d="M41 1305h580l-39 -187h-187l-90 -420q57 121 155.5 188.5t221.5 67.5q143 0 203.5 -93t19.5 -286l-121 -575h-206l120 575q23 109 -9 151t-109 42q-115 0 -207 -93t-127 -257l-88 -418h-207l237 1118h-186z" />
    <glyph glyph-name="afii10061" unicode="&#x40c;" 
d="M827 0h-241l-213 608l-109 -102l-106 -506h-207l276 1305h207l-108 -512l514 512h266l-569 -541zM952 1598l-485 -244l-57 137l463 287z" />
    <glyph glyph-name="afii10062" unicode="&#x40e;" 
d="M1102 1305l-639 -1115q-70 -120 -166 -166.5t-215 -46.5q-41 0 -86 8.5t-92 26.5l84 191q39 -17 73.5 -23t63.5 -6q92 0 143 84l58 90l-154 957h215l107 -705l387 705h221zM1024 1540q-164 -135 -356 -135q-193 0 -299 135l145 119q74 -94 187 -94q112 0 227 94z" />
    <glyph glyph-name="afii10145" unicode="&#x40f;" 
d="M784 0h-313l-70 -319h-206l69 319h-313l276 1305h207l-237 -1119h419l238 1119h207z" />
    <glyph glyph-name="afii10017" unicode="&#x410;" 
d="M678 0l-29 311h-432l-158 -311h-217l684 1305h238l131 -1305h-217zM311 494h322l-45 538z" />
    <glyph glyph-name="afii10018" unicode="&#x411;" 
d="M1022 1118h-627l-73 -342h225q213 0 311 -95t57 -292q-41 -192 -180 -290.5t-354 -98.5h-430l276 1305h834zM709 387q20 102 -34 152.5t-167 50.5h-225l-86 -404h225q113 0 188.5 50.5t98.5 150.5z" />
    <glyph glyph-name="afii10019" unicode="&#x412;" 
d="M907 358q-39 -178 -178 -268t-362 -90h-416l276 1305h394q81 0 157 -13.5t130.5 -50.5t80 -103.5t2.5 -172.5q-22 -99 -89.5 -181t-176.5 -118q117 -39 163 -109t19 -199zM780 938q13 57 -1.5 93t-44 55.5t-69.5 25.5t-83 6h-187l-78 -360h187q43 0 86 6t81 25.5
t67.5 55.5t41.5 93zM707 379q20 98 -38.5 145t-181.5 47h-208l-82 -385h209q122 0 201 47.5t100 145.5z" />
    <glyph glyph-name="afii10020" unicode="&#x413;" 
d="M1022 1118h-627l-237 -1118h-207l276 1305h834z" />
    <glyph glyph-name="afii10021" unicode="&#x414;" 
d="M-59 186q67 45 112 90.5t83 127t75 218t86 361.5l68 322h593l-237 -1119h151l-108 -505h-186l69 319h-559l-70 -319h-184zM504 983q-39 -176 -70 -302t-65.5 -218t-80.5 -157.5t-114 -119.5h340l199 932h-181z" />
    <glyph glyph-name="afii10022" unicode="&#x415;" 
d="M784 0h-833l276 1305h834l-39 -187h-627l-78 -360h490l-39 -187h-489l-82 -385h626z" />
    <glyph glyph-name="afii10024" unicode="&#x416;" 
d="M264 0l109 518l-23 60l-356 -578h-201l486 737l-209 568h206l154 -519l111 519h207l-111 -519l375 519h207l-451 -568l174 -737h-201l-114 578l-47 -60l-109 -518h-207z" />
    <glyph glyph-name="afii10025" unicode="&#x417;" 
d="M895 354q-19 -86 -68.5 -155.5t-118.5 -118.5t-151 -76t-166 -27q-94 0 -171 25.5t-128 78.5t-72.5 134.5t-5.5 194.5l200 32q-17 -129 41 -204q58 -74 175 -74q99 0 168 52q71 52 90 138q22 107 -45.5 162t-220.5 55l40 187q67 0 122.5 13.5t98.5 40t71 66t40 92.5
q7 36 1.5 67.5t-24.5 54.5t-52.5 36t-80.5 13q-62 0 -113.5 -21.5t-92 -59.5t-68 -89t-39.5 -109h-187l94 443h187l-33 -154q21 43 56.5 76t78.5 55.5t89.5 33.5t89.5 11q76 0 138.5 -25.5t104.5 -72t58.5 -112.5t-0.5 -147q-13 -60 -41.5 -111.5t-69.5 -90t-94 -62.5
t-113 -28q65 -6 111.5 -35t73 -73t33 -100t-5.5 -116z" />
    <glyph glyph-name="afii10026" unicode="&#x418;" 
d="M227 1305h207l-190 -899l557 899h260l-277 -1305h-206l200 946l-588 -946h-239z" />
    <glyph glyph-name="afii10027" unicode="&#x419;" 
d="M227 1305h207l-190 -899l557 899h260l-277 -1305h-206l200 946l-588 -946h-239zM1024 1538q-164 -135 -356 -135q-193 0 -299 135l145 119q74 -94 187 -94q112 0 227 94z" />
    <glyph glyph-name="afii10028" unicode="&#x41a;" 
d="M827 0h-241l-213 608l-109 -102l-106 -506h-207l276 1305h207l-108 -512l514 512h266l-569 -541z" />
    <glyph glyph-name="afii10029" unicode="&#x41b;" 
d="M1061 1305l-277 -1305h-206l237 1118h-352l-180 -842q-17 -81 -52.5 -138.5t-83 -92.5t-104.5 -51.5t-119 -16.5q-82 0 -114 25l63 178q12 -8 28.5 -12t45.5 -4q106 0 129 112l219 1029h766z" />
    <glyph glyph-name="afii10030" unicode="&#x41c;" 
d="M784 0h-206l186 883l-232 -469h-159l-29 469l-186 -883h-207l276 1305h246l45 -590l295 590h248z" />
    <glyph glyph-name="afii10031" unicode="&#x41d;" 
d="M784 0h-206l120 571h-419l-121 -571h-207l276 1305h207l-117 -547h420l117 547h207z" />
    <glyph glyph-name="afii10032" unicode="&#x41e;" 
d="M6 653q29 131 82 253t133 215t186.5 149.5t241.5 56.5t219 -56.5t124 -149.5t41 -215t-27 -253q-27 -131 -80.5 -252.5t-132 -216t-186 -151t-245.5 -56.5q-137 0 -220 56.5t-122.5 151t-39.5 216t26 252.5zM213 653q-18 -88 -23.5 -176t12 -157.5t65.5 -112.5t136 -43
q89 0 153.5 43t112.5 112.5t79.5 157.5t50.5 176q18 88 24 175t-12 157t-66.5 113t-134.5 43q-143 0 -245.5 -129t-151.5 -359z" />
    <glyph glyph-name="afii10033" unicode="&#x41f;" 
d="M784 0h-206l237 1118h-420l-237 -1118h-207l276 1305h834z" />
    <glyph glyph-name="afii10034" unicode="&#x420;" 
d="M1028 915q-43 -196 -182 -291.5t-352 -95.5h-226l-110 -528h-207l276 1305h430q215 0 312.5 -98.5t58.5 -291.5zM821 918q21 100 -33.5 150t-166.5 50h-226l-86 -403h226q112 0 188 50t98 153z" />
    <glyph glyph-name="afii10035" unicode="&#x421;" 
d="M938 399q-45 -96 -101.5 -174t-126 -133t-152.5 -85t-181 -30q-137 0 -220 56.5t-124 151t-41 216t26 252.5q29 131 81.5 253t132 215t183 149.5t236.5 56.5q43 0 85 -11t75 -33.5t54.5 -55.5t25.5 -76l33 154h186l-104 -494h-187q12 61 9 120.5t-25.5 105.5t-66.5 75
t-111 29q-88 0 -153.5 -43t-114 -113t-81 -157t-51.5 -175q-18 -88 -23 -176t12 -157.5t66.5 -112.5t137.5 -43q127 0 212 81t156 218z" />
    <glyph glyph-name="afii10036" unicode="&#x422;" 
d="M1008 829h-185l62 289h-176l-199 -932h207l-39 -186h-621l39 186h207l199 932h-178l-62 -289h-184l100 476h930z" />
    <glyph glyph-name="afii10037" unicode="&#x423;" 
d="M1102 1305l-639 -1115q-70 -120 -166 -166.5t-215 -46.5q-41 0 -86 8.5t-92 26.5l84 191q39 -17 73.5 -23t63.5 -6q92 0 143 84l58 90l-154 957h215l107 -705l387 705h221z" />
    <glyph glyph-name="afii10038" unicode="&#x424;" 
d="M999 666q-20 -97 -65 -177.5t-109.5 -142t-145.5 -103.5t-171 -57l-39 -186h-205l39 186q-170 33 -245.5 161t-34.5 319q18 94 62 174t107.5 142t143.5 104t170 59l35 160h204l-32 -158q84 -17 146.5 -57.5t100 -104t48 -144.5t-8.5 -175zM793 666q20 102 -11.5 179
t-111.5 107l-121 -573q92 31 156.5 106.5t87.5 180.5zM229 666q-22 -103 6.5 -178.5t108.5 -106.5l121 569q-92 -30 -153.5 -107t-82.5 -177z" />
    <glyph glyph-name="afii10039" unicode="&#x425;" 
d="M854 0h-426l39 186h74l-76 295l-199 -295h74l-39 -186h-422l39 186h113l354 473l-152 459h-94l39 187h414l-39 -187h-84l72 -289l196 289h-82l39 187h416l-39 -187h-100l-348 -459l153 -473h117z" />
    <glyph glyph-name="afii10040" unicode="&#x426;" 
d="M995 186l-108 -505h-187l70 319h-819l276 1305h207l-237 -1119h419l238 1119h207l-238 -1119h172z" />
    <glyph glyph-name="afii10041" unicode="&#x427;" 
d="M227 1305h207l-123 -576q-22 -108 9.5 -150t109.5 -42q115 0 208 93t128 257l88 418h207l-277 -1305h-206l127 606q-56 -121 -154 -188.5t-221 -67.5q-144 0 -205.5 93.5t-20.5 285.5z" />
    <glyph glyph-name="afii10042" unicode="&#x428;" 
d="M541 1305h207l-238 -1119h176l238 1119h206l-276 -1305h-973l277 1305h207l-238 -1119h176z" />
    <glyph glyph-name="afii10043" unicode="&#x429;" 
d="M-119 0l277 1305h207l-238 -1119h176l238 1119h207l-238 -1119h176l238 1119h206l-237 -1119h166l-109 -505h-186l70 319h-953z" />
    <glyph glyph-name="afii10044" unicode="&#x42a;" 
d="M178 1305h373l-113 -529h158q190 0 275 -95t44 -292q-41 -192 -166.5 -290.5t-318.5 -98.5h-362l237 1118h-166zM709 387q20 102 -21 152.5t-127 50.5h-162l-86 -404h162q86 0 148.5 50.5t85.5 150.5z" />
    <glyph glyph-name="afii10045" unicode="&#x42b;" 
d="M616 389q-41 -192 -165.5 -290.5t-313.5 -98.5h-256l277 1305h207l-113 -529h49q188 0 272 -95t43 -292zM410 387q20 102 -20 152.5t-126 50.5h-51l-86 -404h51q86 0 147.5 50.5t84.5 150.5zM924 1305h206l-276 -1305h-207z" />
    <glyph glyph-name="afii10046" unicode="&#x42c;" 
d="M915 389q-41 -192 -180 -290.5t-354 -98.5h-430l276 1305h207l-112 -529h225q213 0 311 -95t57 -292zM709 387q20 102 -34 152.5t-167 50.5h-225l-86 -404h225q113 0 188.5 50.5t98.5 150.5z" />
    <glyph glyph-name="afii10047" unicode="&#x42d;" 
d="M145 463q11 -136 64 -218q50 -81 177 -81q78 0 139 34t107 90.5t78.5 130t54.5 152.5h-511l40 187h510q9 75 5 144t-26.5 122.5t-68.5 85t-120 31.5q-69 0 -124.5 -28.5t-98.5 -73.5q-42 -43 -67.5 -92.5t-32.5 -85.5h-187l94 444h187l-33 -154q21 43 56.5 76t78.5 55.5
t89.5 33.5t89.5 11q88 0 153 -26t109.5 -71.5t70 -108.5t35 -138t3 -159t-25.5 -171q-28 -131 -80.5 -252.5t-132 -216t-187 -151t-244.5 -56.5q-98 0 -169 30t-116.5 85t-69 133t-27.5 174z" />
    <glyph glyph-name="afii10048" unicode="&#x42e;" 
d="M158 1305h207l-117 -547h166q143 569 424 569q305 0 161 -676q-143 -674 -448 -674q-287 0 -178 594h-164l-121 -571h-207zM596 651q-23 -108 -38 -198.5t-18 -155t9 -99t43 -34.5q29 0 55.5 34.5t51 99t48 155t46.5 198.5q22 109 37.5 199t17.5 154.5t-9.5 100.5
t-39.5 36q-31 0 -58.5 -36t-51 -100.5t-47.5 -154.5t-46 -199z" />
    <glyph glyph-name="afii10049" unicode="&#x42f;" 
d="M369 539q-74 10 -132.5 37.5t-96.5 74.5t-50 112.5t6 151.5q39 193 179.5 291.5t355.5 98.5h430l-277 -1305h-206l110 528h-94l-449 -528h-262zM303 918q-22 -103 33 -153t170 -50h223l86 403h-223q-115 0 -191.5 -50t-97.5 -150z" />
    <glyph glyph-name="afii10065" unicode="&#x430;" 
d="M-47 268q18 82 75.5 143.5t137.5 102.5t176 61.5t193 20.5q53 0 91 -2t76 -6l7 37q16 73 -33 109t-141 36q-84 0 -175.5 -23.5t-179.5 -68.5l-49 162q102 53 215 83.5t229 30.5q76 0 146 -17t120 -56t71.5 -101.5t0.5 -154.5l-131 -625h-204l28 137q-65 -76 -169.5 -118
t-215.5 -42q-67 0 -123.5 18.5t-92.5 55.5t-51 91.5t-1 125.5zM313 162q62 0 118 15.5t103.5 43t79 66.5t41.5 86l9 35q-48 8 -91 9t-75 1q-152 0 -238 -40t-100 -99q-25 -117 153 -117z" />
    <glyph glyph-name="afii10066" unicode="&#x431;" 
d="M215 444q-29 -127 23.5 -203.5t169.5 -76.5q110 0 197 76.5t116 203.5q27 129 -24.5 205t-170.5 76q-127 0 -205.5 -76t-105.5 -205zM39 651q33 150 90 274t134 213t166 139t185 50q48 0 76.5 -9t51 -21.5t42 -21.5t50.5 -9q40 0 72 14t79 47l66 -137q-47 -45 -116 -78
t-140 -33q-47 0 -75 9.5t-48.5 21.5t-41 21.5t-55.5 9.5q-47 0 -92 -23.5t-86 -74t-75.5 -129t-57.5 -191.5q58 92 138.5 140t164.5 48q99 0 176.5 -29.5t127 -88t65.5 -145.5t-8 -204q-23 -98 -75 -184t-127 -148.5t-167 -98.5t-190 -36q-236 0 -320 164t-10 510z" />
    <glyph glyph-name="afii10067" unicode="&#x432;" 
d="M885 256q-27 -127 -133.5 -191.5t-280.5 -64.5h-520l196 932h484q63 0 124.5 -9.5t106.5 -36t65.5 -74.5t4.5 -124q-14 -70 -70.5 -126t-154.5 -83q112 -16 155 -73.5t23 -149.5zM721 664q8 30 -1 48.5t-26.5 29t-44 13.5t-53.5 3h-279l-38 -187h278q27 0 53.5 3.5
t50 13.5t39 28.5t21.5 47.5zM686 287q10 49 -25.5 73.5t-109.5 24.5h-313l-41 -199h313q74 0 120 25t56 76z" />
    <glyph glyph-name="afii10068" unicode="&#x433;" 
d="M147 932h883l-37 -174h-676l-159 -758h-207z" />
    <glyph glyph-name="afii10069" unicode="&#x434;" 
d="M-59 186q63 31 107 71t78 101.5t60.5 149.5t53.5 211l45 213h594l-158 -746h151l-108 -505h-186l69 319h-559l-70 -319h-184zM438 678q-12 -57 -31.5 -129t-49 -141.5t-74.5 -129t-109 -92.5h340l121 572h-180z" />
    <glyph glyph-name="afii10070" unicode="&#x435;" 
d="M174 387q-6 -96 57.5 -159.5t192.5 -63.5q100 0 181 31.5t145 83.5l75 -146q-108 -90 -215.5 -123t-226.5 -33q-109 0 -194 36t-139 100.5t-74.5 153.5t4.5 198q22 106 76.5 195.5t133 155t177 102t206.5 36.5q113 0 196 -38.5t133 -111.5t64.5 -178.5t-12.5 -238.5h-780
zM760 569q2 90 -63.5 144.5t-164.5 54.5q-98 0 -187 -54.5t-124 -144.5h539z" />
    <glyph glyph-name="afii10072" unicode="&#x436;" 
d="M264 0l72 342l-27 43l-295 -385h-221l420 524l-223 408h227l170 -348l74 348h207l-74 -348l328 348h217l-396 -408l199 -524h-211l-145 385l-43 -43l-72 -342h-207z" />
    <glyph glyph-name="afii10073" unicode="&#x437;" 
d="M938 676q-14 -68 -79.5 -127.5t-166.5 -75.5q88 -18 131 -77.5t29 -131.5q-14 -67 -61.5 -120.5t-118 -90.5t-159.5 -56.5t-189 -19.5q-160 0 -253.5 49.5t-133.5 149.5l184 109q18 -54 83.5 -87.5t164.5 -33.5q114 0 191 31.5t89 85.5q8 38 -38 71t-150 33h-149l41 186
h147q104 0 161.5 27t65.5 61q10 50 -50.5 79.5t-170.5 29.5q-191 0 -291 -119l-129 105q82 100 193.5 150t265.5 50q96 0 175 -19.5t131 -55t75.5 -88t11.5 -115.5z" />
    <glyph glyph-name="afii10074" unicode="&#x438;" 
d="M147 932h207l-135 -641l502 641h260l-197 -932h-206l143 678l-531 -678h-239z" />
    <glyph glyph-name="afii10075" unicode="&#x439;" 
d="M147 932h207l-135 -641l502 641h260l-197 -932h-206l143 678l-531 -678h-239zM944 1167q-164 -135 -356 -135q-193 0 -299 135l145 119q74 -94 187 -94q112 0 227 94z" />
    <glyph glyph-name="afii10076" unicode="&#x43a;" 
d="M831 0h-268l-231 377l-115 -96l-59 -281h-207l196 932h207l-84 -395l457 395h285l-520 -428z" />
    <glyph glyph-name="afii10077" unicode="&#x43b;" 
d="M981 932l-197 -932h-206l157 745h-352l-100 -469q-17 -81 -52.5 -138.5t-83 -92.5t-104.5 -51.5t-119 -16.5q-82 0 -114 25l63 178q12 -8 28.5 -12t45.5 -4q106 0 129 112l139 656h766z" />
    <glyph glyph-name="afii10078" unicode="&#x43c;" 
d="M784 0h-206l133 631l-203 -336h-160l-57 336l-133 -631h-207l196 932h246l80 -422l260 422h248z" />
    <glyph glyph-name="afii10079" unicode="&#x43d;" 
d="M784 0h-206l79 385h-419l-80 -385h-207l196 932h207l-75 -361h419l76 361h207z" />
    <glyph glyph-name="afii10080" unicode="&#x43e;" 
d="M956 465q-24 -109 -77.5 -198t-131 -153.5t-176 -100.5t-209.5 -36q-108 0 -190 36t-133 100.5t-67.5 153.5t8.5 198q22 106 76.5 196.5t132 156t176 101t206.5 35.5q111 0 193 -35.5t133 -101t66.5 -156t-7.5 -196.5zM750 465q12 63 5 119.5t-36 96.5t-76 63.5
t-113 23.5q-65 0 -122.5 -23.5t-101.5 -63.5t-75.5 -96.5t-44.5 -119.5q-14 -66 -6 -120t35 -95t75 -63.5t113 -22.5q66 0 122.5 22.5t102.5 63.5t76.5 95t45.5 120z" />
    <glyph glyph-name="afii10081" unicode="&#x43f;" 
d="M784 0h-206l157 745h-420l-157 -745h-207l196 932h834z" />
    <glyph glyph-name="afii10082" unicode="&#x440;" 
d="M147 932h207l-18 -84q72 53 138.5 79.5t143.5 26.5q91 0 159.5 -36.5t110.5 -101t54 -155t-10 -196.5q-23 -107 -74 -197t-119.5 -154.5t-153.5 -100.5t-175 -36q-78 0 -132.5 28t-103.5 81l-96 -459h-205zM209 250q29 -41 82 -63.5t106 -22.5q117 0 208 83t120 218
t-27.5 219t-173.5 84q-53 0 -114.5 -21.5t-108.5 -62.5z" />
    <glyph glyph-name="afii10083" unicode="&#x441;" 
d="M825 133q-108 -90 -214.5 -123t-223.5 -33t-205 35t-140 98.5t-69.5 153.5t7.5 201q22 106 77.5 196.5t129 155t163.5 101t182 36.5q97 0 158.5 -40t77.5 -117l29 135h184l-92 -434h-184q26 123 -26 196.5t-161 73.5q-43 0 -93 -17.5t-98 -54.5t-86 -94t-55 -137
q-16 -78 -3.5 -134.5t45 -93t85 -55t111.5 -18.5q100 0 181 31.5t145 83.5z" />
    <glyph glyph-name="afii10084" unicode="&#x442;" 
d="M928 457h-185l62 288h-176l-119 -559h207l-39 -186h-621l39 186h207l119 559h-178l-62 -288h-184l100 475h930z" />
    <glyph glyph-name="afii10085" unicode="&#x443;" 
d="M1022 932l-637 -1114q-72 -121 -168 -167t-215 -46q-41 0 -85 8t-91 27l82 190q39 -16 73.5 -22.5t63.5 -6.5q92 0 145 84l56 90l-154 957h215l107 -705l387 705h221z" />
    <glyph glyph-name="afii10086" unicode="&#x444;" 
d="M416 715q-8 37 -25.5 50t-40.5 13q-22 0 -45.5 -15t-45 -51t-43 -96.5t-40.5 -148.5q-18 -90 -23.5 -149.5t2 -96.5t24 -52t38.5 -15q23 0 45.5 13t46.5 50zM184 -373l92 436q-24 -43 -66 -64.5t-83 -21.5q-55 0 -95 31t-63.5 92.5t-24.5 152.5t25 214q27 123 67 214
t88 151.5t102.5 91t109.5 30.5q41 0 72.5 -21.5t40.5 -64.5l92 437h207l-93 -437q25 43 67 64.5t83 21.5q55 0 95 -30.5t63.5 -91t24.5 -151.5t-25 -214q-27 -123 -67 -214t-88 -152.5t-102.5 -92.5t-109.5 -31q-41 0 -72.5 21.5t-40.5 64.5l-92 -436h-207zM516 217
q8 -37 24.5 -50t39.5 -13q22 0 46.5 15t46 52t43 96.5t40.5 149.5q18 88 23 148.5t-2 96.5t-24.5 51t-39.5 15q-23 0 -44.5 -13t-45.5 -50z" />
    <glyph glyph-name="afii10087" unicode="&#x445;" 
d="M856 0h-442l39 186h82l-86 195l-166 -195h75l-39 -186h-438l39 186h135l271 287l-142 272h-125l39 187h420l-39 -187h-65l73 -180l154 180h-74l39 187h424l-39 -187h-121l-256 -272l148 -287h133z" />
    <glyph glyph-name="afii10088" unicode="&#x446;" 
d="M995 186l-108 -505h-187l70 319h-819l196 932h207l-157 -746h419l158 746h207l-158 -746h172z" />
    <glyph glyph-name="afii10089" unicode="&#x447;" 
d="M147 932h207l-82 -389q-22 -109 9.5 -151t109.5 -42q115 0 207 93.5t127 256.5l49 232h207l-197 -932h-206l88 420q-56 -121 -154 -188.5t-221 -67.5q-144 0 -205 93t-20 286z" />
    <glyph glyph-name="afii10090" unicode="&#x448;" 
d="M461 932h207l-158 -746h156l157 746h207l-196 -932h-932l196 932h207l-158 -746h156z" />
    <glyph glyph-name="afii10091" unicode="&#x449;" 
d="M-98 0l196 932h207l-158 -746h156l158 746h207l-158 -746h156l157 746h207l-158 -746h187l-109 -505h-186l70 319h-932z" />
    <glyph glyph-name="afii10092" unicode="&#x44a;" 
d="M98 932h373l-76 -361h219q160 0 235 -70.5t44 -213.5q-29 -142 -134.5 -214.5t-266.5 -72.5h-424l157 745h-166zM686 285q10 51 -20.5 75.5t-92.5 24.5h-219l-41 -199h219q62 0 103 25t51 74z" />
    <glyph glyph-name="afii10093" unicode="&#x44b;" 
d="M594 287q-29 -142 -134.5 -214.5t-266.5 -72.5h-312l197 932h207l-76 -361h106q160 0 235 -70.5t44 -213.5zM387 285q10 51 -20.5 75.5t-92.5 24.5h-106l-41 -199h106q62 0 103 25t51 74zM844 932h207l-197 -932h-207z" />
    <glyph glyph-name="afii10094" unicode="&#x44c;" 
d="M893 287q-29 -142 -134.5 -214.5t-266.5 -72.5h-541l196 932h207l-75 -361h335q160 0 235 -70.5t44 -213.5zM686 285q10 51 -20.5 75.5t-92.5 24.5h-335l-41 -199h335q62 0 103 25t51 74z" />
    <glyph glyph-name="afii10095" unicode="&#x44d;" 
d="M932 465q-25 -111 -79 -201t-135 -153.5t-183.5 -98.5t-219.5 -35q-116 0 -208.5 33t-163.5 123l137 146q43 -52 111.5 -83.5t168.5 -31.5q103 0 197 53t141 168h-444l41 186h436q-8 99 -76.5 148t-167.5 49q-100 0 -181 -31.5t-146 -83.5l-76 146q111 90 217.5 122.5
t222.5 32.5q117 0 204 -34.5t140.5 -99t69.5 -155t-6 -200.5z" />
    <glyph glyph-name="afii10096" unicode="&#x44e;" 
d="M78 932h207l-76 -361h168q112 383 383 383q305 0 201 -489q-105 -488 -410 -488q-279 0 -217 408h-166l-80 -385h-207zM557 465q-29 -135 -28 -218t63 -83q59 0 96 83t66 218q14 67 21 122.5t5 95.5t-17 62.5t-44 22.5q-31 0 -54.5 -22.5t-43 -62.5t-35 -95.5
t-29.5 -122.5z" />
    <glyph glyph-name="afii10097" unicode="&#x44f;" 
d="M311 360q-157 2 -230 73t-44 212q31 141 136.5 214t266.5 73h541l-197 -932h-206l75 360h-84l-403 -360h-277zM246 647q-13 -51 18 -75.5t92 -24.5h336l43 198h-336q-61 0 -102 -24.5t-51 -73.5z" />
    <glyph glyph-name="afii10071" unicode="&#x451;" 
d="M174 387q-6 -96 57.5 -159.5t192.5 -63.5q100 0 181 31.5t145 83.5l75 -146q-108 -90 -215.5 -123t-226.5 -33q-109 0 -194 36t-139 100.5t-74.5 153.5t4.5 198q22 106 76.5 195.5t133 155t177 102t206.5 36.5q113 0 196 -38.5t133 -111.5t64.5 -178.5t-12.5 -238.5h-780
zM760 569q2 90 -63.5 144.5t-164.5 54.5q-98 0 -187 -54.5t-124 -144.5h539zM903 1053h-252l54 252h251zM530 1053h-251l53 252h252z" />
    <glyph glyph-name="afii10099" unicode="&#x452;" 
d="M2 1118h186l39 187h207l-39 -187h117l-41 -186h-117l-49 -234q57 121 155.5 188.5t221.5 67.5q143 0 203.5 -93t19.5 -286l-141 -671q-19 -82 -54.5 -139.5t-82.5 -92t-104.5 -51t-119.5 -16.5q-84 0 -116 24l65 178q13 -8 29 -12t45 -4q106 0 131 113l141 671
q23 109 -9 151t-109 42q-115 0 -207 -93t-127 -257l-88 -418h-207l196 932h-186z" />
    <glyph glyph-name="afii10100" unicode="&#x453;" 
d="M147 932h883l-37 -174h-676l-159 -758h-207zM872 1225l-485 -244l-57 137l463 287z" />
    <glyph glyph-name="afii10101" unicode="&#x454;" 
d="M0 465q23 110 78 200.5t135 155t183.5 99t219.5 34.5q117 0 209.5 -32.5t161.5 -122.5l-137 -146q-41 52 -109.5 83.5t-169.5 31.5q-98 0 -187 -49t-140 -148h438l-41 -186h-444q2 -57 20.5 -98t51 -69t78.5 -41t97 -13q101 0 182 31.5t144 83.5l76 -146
q-109 -90 -215.5 -123t-222.5 -33q-117 0 -205 35t-140.5 98.5t-70 153.5t7.5 201z" />
    <glyph glyph-name="afii10102" unicode="&#x455;" 
d="M866 279q-18 -91 -71.5 -148t-125 -92t-154.5 -48.5t-159 -13.5q-127 0 -244.5 37t-197.5 97l123 170q96 -64 182 -90.5t178 -26.5q125 0 187.5 26.5t72.5 73.5q5 23 -8.5 38t-47.5 27.5t-91 25t-145 26.5q-70 12 -130.5 29.5t-102.5 49.5t-61.5 81t-4.5 123
q16 75 67 130.5t121 91.5t151.5 52t159.5 16q111 0 208 -28.5t163 -81.5l-117 -160q-65 49 -136 66.5t-159 17.5q-37 0 -77.5 -4t-76.5 -15.5t-62.5 -31t-33.5 -47.5q-8 -37 52.5 -60.5t214.5 -46.5q84 -12 150.5 -30.5t110.5 -50t62.5 -81t1.5 -122.5z" />
    <glyph glyph-name="afii10103" unicode="&#x456;" 
d="M717 1053h-252l53 252h252zM684 0h-627l39 186h207l119 559h-207l39 187h414l-158 -746h213z" />
    <glyph glyph-name="afii10104" unicode="&#x457;" 
d="M684 0h-627l39 186h207l119 559h-207l39 187h414l-158 -746h213zM903 1053h-252l54 252h251zM530 1053h-251l53 252h252z" />
    <glyph glyph-name="afii10105" unicode="&#x458;" 
d="M160 -395q-213 0 -307 159l149 138q37 -56 84 -83.5t115 -27.5q104 0 166.5 57.5t83.5 151.5l157 745h-211l39 187h418l-197 -932q-20 -90 -65 -163t-110.5 -125t-147.5 -79.5t-174 -27.5zM903 1053h-252l54 252h251z" />
    <glyph glyph-name="afii10106" unicode="&#x459;" 
d="M602 571h107q159 0 234 -70.5t44 -213.5q-29 -142 -134 -214.5t-267 -72.5h-312l158 745h-166l-100 -469q-16 -81 -50 -138.5t-77 -92.5t-93 -51.5t-102 -16.5q-49 0 -76.5 7.5t-48.5 17.5l68 170q10 -4 25.5 -6t27.5 -2q97 0 119 112l139 656h580zM780 285
q11 51 -20 75.5t-92 24.5h-107l-41 -199h107q61 0 102 25t51 74z" />
    <glyph glyph-name="afii10107" unicode="&#x45a;" 
d="M-98 0l196 932h207l-76 -361h166l76 361h207l-76 -361h107q159 0 234 -70.5t44 -213.5q-29 -142 -134 -214.5t-267 -72.5h-312l80 385h-166l-79 -385h-207zM780 285q11 51 -20 75.5t-92 24.5h-107l-41 -199h107q61 0 102 25t51 74z" />
    <glyph glyph-name="afii10108" unicode="&#x45b;" 
d="M2 1118h186l39 187h207l-39 -187h117l-41 -186h-117l-49 -234q57 121 155.5 188.5t221.5 67.5q143 0 203.5 -93t19.5 -286l-121 -575h-206l120 575q23 109 -9 151t-109 42q-115 0 -207 -93t-127 -257l-88 -418h-207l196 932h-186z" />
    <glyph glyph-name="afii10109" unicode="&#x45c;" 
d="M831 0h-268l-231 377l-115 -96l-59 -281h-207l196 932h207l-84 -395l457 395h285l-520 -428zM872 1225l-485 -244l-57 137l463 287z" />
    <glyph glyph-name="afii10110" unicode="&#x45e;" 
d="M1022 932l-637 -1114q-72 -121 -168 -167t-215 -46q-41 0 -85 8t-91 27l82 190q39 -16 73.5 -22.5t63.5 -6.5q92 0 145 84l56 90l-154 957h215l107 -705l387 705h221zM944 1167q-164 -135 -356 -135q-193 0 -299 135l145 119q74 -94 187 -94q112 0 227 94z" />
    <glyph glyph-name="afii10193" unicode="&#x45f;" 
d="M784 0h-313l-70 -319h-206l69 319h-313l196 932h207l-157 -746h419l158 746h207z" />
    <glyph glyph-name="afii10050" unicode="&#x490;" 
d="M963 1491h186l-78 -373h-676l-237 -1118h-207l276 1305h697z" />
    <glyph glyph-name="afii10098" unicode="&#x491;" 
d="M885 1118h186l-80 -373h-676l-157 -745h-207l196 932h697z" />
    <glyph glyph-name="uni1E02" unicode="&#x1e02;" 
d="M907 358q-39 -178 -178 -268t-362 -90h-416l276 1305h394q81 0 157 -13.5t130.5 -50.5t80 -103.5t2.5 -172.5q-22 -99 -89.5 -181t-176.5 -118q117 -39 163 -109t19 -199zM780 938q13 57 -1.5 93t-44 55.5t-69.5 25.5t-83 6h-187l-78 -360h187q43 0 86 6t81 25.5
t67.5 55.5t41.5 93zM707 379q20 98 -38.5 145t-181.5 47h-208l-82 -385h209q122 0 201 47.5t100 145.5zM797 1424h-252l53 252h252z" />
    <glyph glyph-name="uni1E03" unicode="&#x1e03;" 
d="M227 1305h207l-98 -457q72 53 138.5 79.5t143.5 26.5q91 0 159.5 -36.5t110.5 -101t54 -155t-10 -196.5q-23 -107 -74 -197t-119.5 -154.5t-153.5 -100.5t-175 -36q-78 0 -132.5 28t-103.5 81l-16 -86h-207zM209 248q29 -41 82 -62.5t106 -21.5q117 0 208 83t120 218
t-27.5 219t-173.5 84q-53 0 -114.5 -21.5t-108.5 -62.5zM797 1424h-252l53 252h252z" />
    <glyph glyph-name="uni1E0A" unicode="&#x1e0a;" 
d="M1014 653q-27 -131 -80 -249.5t-132 -208t-185.5 -142.5t-241.5 -53h-424l276 1305h424q133 0 217 -53.5t125 -142.5t45 -207t-24 -249zM807 653q49 226 -2 345.5t-193 119.5h-217l-198 -932h217q141 0 243.5 122t149.5 345zM797 1424h-252l53 252h252z" />
    <glyph glyph-name="uni1E0B" unicode="&#x1e0b;" 
d="M784 0h-206l16 86q-70 -53 -137.5 -81t-145.5 -28q-90 0 -158.5 36t-110.5 100.5t-54.5 154.5t10.5 197q22 106 73.5 196.5t120 155t153.5 101t175 36.5q78 0 133.5 -26.5t102.5 -79.5l59 270h-180l39 187h387zM721 684q-27 41 -81 62.5t-108 21.5q-116 0 -207.5 -84
t-119.5 -219q-29 -135 27.5 -218t173.5 -83q53 0 115.5 21.5t107.5 62.5zM797 1424h-252l53 252h252z" />
    <glyph glyph-name="uni1E1E" unicode="&#x1e1e;" 
d="M1022 1118h-627l-78 -360h490l-39 -187h-489l-121 -571h-207l276 1305h834zM797 1424h-252l53 252h252z" />
    <glyph glyph-name="uni1E1F" unicode="&#x1e1f;" 
d="M991 745h-362l-119 -559h213l-39 -186h-627l39 186h207l119 559h-207l39 187h207q41 192 180 293.5t340 101.5q31 0 64.5 -3t66.5 -7l-39 -182q-57 6 -106 6q-80 0 -131.5 -11.5t-85 -37t-52 -65.5t-30.5 -95h362zM797 1424h-252l53 252h252z" />
    <glyph glyph-name="uni1E40" unicode="&#x1e40;" 
d="M784 0h-206l186 883l-232 -469h-159l-29 469l-186 -883h-207l276 1305h246l45 -590l295 590h248zM797 1424h-252l53 252h252z" />
    <glyph glyph-name="uni1E41" unicode="&#x1e41;" 
d="M834 0h-207l135 639q14 66 7 97.5t-42 31.5q-61 0 -92 -69.5t-60 -202.5l-104 -496h-207l135 639q15 66 6.5 97.5t-43.5 31.5q-61 0 -90.5 -69.5t-58.5 -202.5l-104 -496h-207l196 932h209l-28 -135q38 77 90.5 117t124.5 40q59 0 91.5 -36.5t32.5 -100.5q52 70 97 103.5
t123 33.5q96 0 132 -70.5t5 -213.5zM717 1053h-252l53 252h252z" />
    <glyph glyph-name="uni1E56" unicode="&#x1e56;" 
d="M1028 915q-43 -196 -182 -291.5t-352 -95.5h-226l-110 -528h-207l276 1305h430q215 0 312.5 -98.5t58.5 -291.5zM821 918q21 100 -33.5 150t-166.5 50h-226l-86 -403h226q112 0 188 50t98 153zM797 1424h-252l53 252h252z" />
    <glyph glyph-name="uni1E57" unicode="&#x1e57;" 
d="M147 932h207l-18 -84q72 53 138.5 79.5t143.5 26.5q91 0 159.5 -36.5t110.5 -101t54 -155t-10 -196.5q-23 -107 -74 -197t-119.5 -154.5t-153.5 -100.5t-175 -36q-78 0 -132.5 28t-103.5 81l-96 -459h-205zM209 250q29 -41 82 -63.5t106 -22.5q117 0 208 83t120 218
t-27.5 219t-173.5 84q-53 0 -114.5 -21.5t-108.5 -62.5zM717 1053h-252l53 252h252z" />
    <glyph glyph-name="uni1E60" unicode="&#x1e60;" 
d="M877 358q-21 -90 -66 -160.5t-108.5 -119.5t-141.5 -75t-160 -26q-92 0 -158.5 33t-103.5 109l-24 -119h-187l90 426h187q-15 -64 -2.5 -113t42 -82.5t75 -51t100.5 -17.5q92 0 158.5 43t87.5 137q10 49 -0.5 84t-37 62.5t-69.5 48t-96 43.5q-68 24 -132.5 54t-110.5 74
t-67.5 108.5t-0.5 162.5q18 86 63 150.5t107.5 108.5t136 66.5t151.5 22.5q90 0 146.5 -38t79.5 -101l24 117h187l-86 -406h-187q25 115 -22 179.5t-150 64.5q-90 0 -158.5 -42t-83.5 -118q-10 -39 0.5 -66.5t35 -50t65.5 -42t96 -42.5q68 -26 133.5 -59t113.5 -81
t70.5 -116.5t2.5 -167.5zM797 1424h-252l53 252h252z" />
    <glyph glyph-name="uni1E61" unicode="&#x1e61;" 
d="M866 279q-18 -91 -71.5 -148t-125 -92t-154.5 -48.5t-159 -13.5q-127 0 -244.5 37t-197.5 97l123 170q96 -64 182 -90.5t178 -26.5q125 0 187.5 26.5t72.5 73.5q5 23 -8.5 38t-47.5 27.5t-91 25t-145 26.5q-70 12 -130.5 29.5t-102.5 49.5t-61.5 81t-4.5 123
q16 75 67 130.5t121 91.5t151.5 52t159.5 16q111 0 208 -28.5t163 -81.5l-117 -160q-65 49 -136 66.5t-159 17.5q-37 0 -77.5 -4t-76.5 -15.5t-62.5 -31t-33.5 -47.5q-8 -37 52.5 -60.5t214.5 -46.5q84 -12 150.5 -30.5t110.5 -50t62.5 -81t1.5 -122.5zM717 1053h-252
l53 252h252z" />
    <glyph glyph-name="uni1E6A" unicode="&#x1e6a;" 
d="M1008 829h-185l62 289h-176l-199 -932h207l-39 -186h-621l39 186h207l199 932h-178l-62 -289h-184l100 476h930zM797 1424h-252l53 252h252z" />
    <glyph glyph-name="uni1E6B" unicode="&#x1e6b;" 
d="M905 297q-47 -147 -164.5 -233.5t-267.5 -86.5q-82 0 -143.5 27t-99 75t-50 115.5t3.5 147.5l86 403h-211l39 187h211l80 373h207l-80 -373h391l-39 -187h-391l-86 -403q-18 -90 16.5 -134t106.5 -44q88 0 141.5 51t77.5 123zM797 1424h-252l53 252h252z" />
    <glyph glyph-name="Wgrave" unicode="&#x1e80;" 
d="M1174 1305l-480 -1305h-213l4 563l-231 -563h-213l74 1305h215l-66 -879l201 506h199l-15 -506l309 879h216zM623 1776l344 -287l-119 -137l-379 244z" />
    <glyph glyph-name="wgrave" unicode="&#x1e81;" 
d="M1059 932l-336 -932h-256l20 561l-219 -561h-256l58 932h202l-49 -623l232 623h219l-31 -623l213 623h203zM543 1405l344 -287l-119 -137l-379 244z" />
    <glyph glyph-name="Wacute" unicode="&#x1e82;" 
d="M1174 1305l-480 -1305h-213l4 563l-231 -563h-213l74 1305h215l-66 -879l201 506h199l-15 -506l309 879h216zM952 1596l-485 -244l-57 137l463 287z" />
    <glyph glyph-name="wacute" unicode="&#x1e83;" 
d="M1059 932l-336 -932h-256l20 561l-219 -561h-256l58 932h202l-49 -623l232 623h219l-31 -623l213 623h203zM872 1225l-485 -244l-57 137l463 287z" />
    <glyph glyph-name="Wdieresis" unicode="&#x1e84;" 
d="M1174 1305l-480 -1305h-213l4 563l-231 -563h-213l74 1305h215l-66 -879l201 506h199l-15 -506l309 879h216zM983 1422h-252l54 252h251zM610 1422h-251l53 252h252z" />
    <glyph glyph-name="wdieresis" unicode="&#x1e85;" 
d="M1059 932l-336 -932h-256l20 561l-219 -561h-256l58 932h202l-49 -623l232 623h219l-31 -623l213 623h203zM903 1053h-252l54 252h251zM530 1053h-251l53 252h252z" />
    <glyph glyph-name="Ygrave" unicode="&#x1ef2;" 
d="M1092 1118h-95l-413 -586l-74 -346h209l-39 -186h-625l39 186h209l74 346l-164 586h-94l39 187h411l-39 -187h-90l84 -383l246 383h-90l39 187h411zM623 1776l344 -287l-119 -137l-379 244z" />
    <glyph glyph-name="ygrave" unicode="&#x1ef3;" 
d="M1022 932l-637 -1114q-72 -121 -167 -166t-214 -45q-41 0 -86 8t-92 27l82 190q39 -16 73.5 -22.5t63.5 -6.5q92 0 145 82l56 90l-154 957h215l107 -705l387 705h221zM543 1405l344 -287l-119 -137l-379 244z" />
    <glyph glyph-name="endash" unicode="&#x2013;" 
d="M-18 385l41 186h931l-41 -186h-931z" />
    <glyph glyph-name="emdash" unicode="&#x2014;" 
d="M-109 385l39 186h1119l-41 -186h-1117z" />
    <glyph glyph-name="afii00208" unicode="&#x2015;" 
d="M915 385h-931l38 187h932z" />
    <glyph glyph-name="quoteleft" unicode="&#x2018;" 
d="M791 680h-373l57 266q14 70 46 134.5t87.5 114.5t133 80t182.5 30l-37 -172q-60 0 -103 -13.5t-71.5 -38t-46 -58.5t-25.5 -77l-4 -14h207z" />
    <glyph glyph-name="quoteright" unicode="&#x2019;" 
d="M365 1305h372l-57 -267q-14 -69 -46 -133.5t-87 -115t-133 -80t-183 -29.5l37 172q119 0 174.5 51t71.5 135l4 15h-207z" />
    <glyph glyph-name="quotesinglbase" unicode="&#x201a;" 
d="M514 252h372l-57 -267q-14 -69 -46 -133.5t-87 -115t-133 -80t-183 -29.5l37 172q119 0 174.5 51t71.5 135l4 15h-207z" />
    <glyph glyph-name="quotedblleft" unicode="&#x201c;" 
d="M418 680h-373l57 266q15 70 46.5 134.5t87 114.5t133 80t182.5 30l-37 -172q-59 0 -102 -13.5t-72 -38t-46.5 -58.5t-25.5 -77l-4 -14h207zM977 680h-373l58 266q14 70 45.5 134.5t87 114.5t133.5 80t182 30l-37 -172q-59 0 -102 -13.5t-72 -38t-46 -58.5t-26 -77l-4 -14
h207z" />
    <glyph glyph-name="quotedblright" unicode="&#x201d;" 
d="M737 1305h373l-57 -267q-15 -69 -46.5 -133.5t-87 -115t-133 -80t-182.5 -29.5l37 172q119 0 174 51t72 135l4 15h-207zM178 1305h373l-57 -267q-15 -69 -46.5 -133.5t-87 -115t-133 -80t-182.5 -29.5l37 172q119 0 174 51t72 135l4 15h-207z" />
    <glyph glyph-name="quotedblbase" unicode="&#x201e;" 
d="M514 252h373l-57 -267q-15 -69 -46.5 -133.5t-87 -115t-133 -80t-182.5 -29.5l37 172q119 0 174 51t72 135l4 15h-207zM-45 252h373l-57 -267q-15 -69 -46.5 -133.5t-87 -115t-133 -80t-182.5 -29.5l37 172q119 0 174 51t72 135l4 15h-207z" />
    <glyph glyph-name="dagger" unicode="&#x2020;" 
d="M872 907l-235 15l-105 -549h-172l132 549l-240 -15l37 174l233 -14l37 238h172l-63 -238l241 14z" />
    <glyph glyph-name="daggerdbl" unicode="&#x2021;" 
d="M766 410l-236 14l-36 -238h-172l63 238l-240 -14l37 172l236 -13l74 353l-240 -15l37 174l233 -14l37 238h172l-63 -238l241 14l-37 -174l-235 15l-74 -353l240 13z" />
    <glyph glyph-name="bullet" unicode="&#x2022;" 
d="M207 559q14 76 59 144.5t105.5 118.5t134.5 80t151 30q76 0 138.5 -30t102.5 -80t54.5 -118.5t-0.5 -144.5q-18 -78 -62 -145.5t-104.5 -117.5t-135.5 -80t-150 -30q-78 0 -139.5 30t-101.5 80t-55.5 117.5t3.5 145.5z" />
    <glyph glyph-name="ellipsis" unicode="&#x2026;" 
d="M494 0h-252l53 252h252zM866 0h-252l54 252h252zM121 0h-252l53 252h252z" />
    <glyph glyph-name="perthousand" unicode="&#x2030;" 
d="M866 1274l-852 -1313l-133 66l850 1316zM104 1073q11 51 32.5 98.5t53 81t73.5 54t95 20.5q54 0 87.5 -20.5t51 -54t18.5 -81t-9 -98.5q-12 -53 -32.5 -99t-52.5 -80t-74 -54.5t-95 -20.5t-87 20.5t-51.5 54.5t-19.5 80t10 99zM254 1075q-12 -55 -3 -79.5t32 -24.5
q22 0 42.5 24.5t32.5 79.5q13 55 2.5 80t-32.5 25q-23 0 -42.5 -25t-31.5 -80zM393 236q-12 -56 -3 -80.5t32 -24.5q22 0 42.5 24.5t33.5 80.5q12 55 1.5 79.5t-32.5 24.5q-23 0 -42 -24.5t-32 -79.5zM815 236q-12 -56 -3 -80.5t32 -24.5q22 0 42.5 24.5t33.5 80.5
q12 55 1.5 79.5t-32.5 24.5q-23 0 -42.5 -24.5t-31.5 -79.5zM244 231q10 52 31.5 99t53 80.5t73.5 54t96 20.5q53 0 86.5 -20.5t51 -54t18.5 -80.5t-9 -99q-12 -53 -33.5 -99t-53.5 -80t-74 -54.5t-95 -20.5t-87 20.5t-51.5 54.5t-18.5 80t12 99zM666 231q10 52 31.5 99
t53 80.5t73.5 54t96 20.5q53 0 86.5 -20.5t51 -54t18.5 -80.5t-9 -99q-12 -53 -33.5 -99t-53.5 -80t-74 -54.5t-95 -20.5t-87 20.5t-51.5 54.5t-18.5 80t12 99z" />
    <glyph glyph-name="guilsinglleft" unicode="&#x2039;" 
d="M637 444l-145 -120l-254 327l393 330l94 -121l-248 -209z" />
    <glyph glyph-name="guilsinglright" unicode="&#x203a;" 
d="M532 651l-157 209l143 121l254 -330l-393 -327l-92 120z" />
    <glyph glyph-name="fraction" unicode="&#x2044;" 
d="M1122 1257l-1112 -1298l-116 88l1114 1303z" />
    <glyph glyph-name="Euro" unicode="&#x20ac;" 
d="M94 907h172q35 88 83 165t108.5 134.5t132.5 89t155 31.5q82 0 139.5 -30.5t93.5 -86t51 -133.5t15 -174l-190 -37q6 140 -23.5 207.5t-121.5 67.5q-80 0 -138.5 -67.5t-99.5 -166.5h182l-37 -174h-200q-8 -20 -12.5 -39.5t-8.5 -40.5q-4 -22 -8 -41.5t-6 -40.5h201
l-37 -174h-183q-2 -100 29 -166.5t111 -66.5q90 0 147.5 67.5t114.5 204.5l174 -37q-41 -96 -89 -174t-108.5 -133t-130 -85t-151.5 -30q-84 0 -142.5 32t-95.5 88.5t-52 133t-11 166.5h-172l37 174h151q2 21 6 40.5t8 41.5q5 21 9 40.5t12 39.5h-152z" />
    <glyph glyph-name="afii61352" unicode="&#x2116;" 
d="M412 0h-170l14 1022l-217 -1022h-137l276 1305h193l-21 -940l201 940h137zM838 459q116 0 157 192q41 191 -75 191q-121 0 -162 -191q-41 -192 80 -192zM813 348q-256 0 -192 303q65 303 321 303t191 -303q-64 -303 -320 -303zM510 117h510l-25 -117h-510z" />
    <glyph glyph-name="trademark" unicode="&#x2122;" 
d="M1219 932h-111l84 393l-203 -334h-78l-57 334l-84 -393h-111l119 559h158l51 -328l191 328h159zM659 1378h-176l-96 -446h-113l97 446h-176l22 113h465z" />
    <glyph glyph-name="Omega" unicode="&#x2126;" 
d="M1010 741q-31 -145 -112 -281t-224 -229l-10 -45h208l-38 -186h-373l76 358q59 25 104 67t78 94t53.5 110.5t30.5 111.5q16 70 16 141.5t-21.5 129t-66.5 93.5t-121 36q-73 0 -133.5 -36t-106.5 -93.5t-78 -129t-48 -141.5q-11 -53 -15 -111.5t6.5 -110.5t37 -94
t77.5 -67l-76 -358h-372l39 186h213l10 45q-105 86 -131.5 223.5t4.5 286.5q24 113 78.5 219.5t133.5 187.5t180 130t220 49t199 -49t124 -130t53 -187.5t-15 -219.5z" />
    <glyph glyph-name="partialdiff" unicode="&#x2202;" 
d="M-45 354q22 103 88 183.5t167 142t235.5 103.5t293.5 67q-47 104 -149.5 172t-243.5 125l100 180q125 -53 235 -121.5t184.5 -163t104 -218.5t-4.5 -287q-27 -129 -85.5 -232.5t-141.5 -176.5t-187.5 -112t-224.5 -39q-205 0 -307.5 96.5t-63.5 280.5zM758 537
q16 71 16 133q-260 -23 -422 -105t-190 -211q-19 -92 35.5 -141t169.5 -49q139 0 245.5 96t145.5 277z" />
    <glyph glyph-name="Delta" unicode="&#x2206;" 
d="M-158 0l684 1305h238l131 -1305h-1053zM154 184h508l-74 848z" />
    <glyph glyph-name="product" unicode="&#x220f;" 
d="M1071 1118h-176l-238 -1118h-206l237 1118h-166l-237 -1118h-207l237 1118h-176l39 187h932z" />
    <glyph glyph-name="summation" unicode="&#x2211;" 
d="M784 0h-839l39 186l393 465l-195 467l39 187h840l-94 -441h-187l56 254h-402l187 -467l-385 -465h401l53 256h187z" />
    <glyph glyph-name="minus" unicode="&#x2212;" 
d="M915 385h-931l38 187h932z" />
    <glyph glyph-name="radical" unicode="&#x221a;" 
d="M1030 932h-270l-447 -932h-221l-35 725l191 49l20 -469l383 813h420z" />
    <glyph glyph-name="infinity" unicode="&#x221e;" 
d="M950 465q-10 -51 -37.5 -96t-65.5 -78t-86 -52t-100 -19q-71 0 -122.5 33.5t-85.5 123.5q-72 -88 -134.5 -122.5t-140.5 -34.5q-49 0 -88 19t-65.5 52t-35 78t2.5 96q10 51 38.5 96.5t67.5 78t85 51t97 18.5q78 0 126.5 -35t82.5 -125q72 90 137.5 125t137.5 35
q49 0 89 -18.5t65.5 -51t33.5 -78t-2 -96.5zM387 465q-29 111 -125 111q-45 0 -85 -32t-50 -79t13.5 -79.5t72.5 -32.5q98 0 174 112zM555 465q27 -112 125 -112q49 0 87 32.5t48 79.5t-15.5 79t-70.5 32q-98 0 -174 -111z" />
    <glyph glyph-name="integral" unicode="&#x222b;" 
d="M1151 1497q-57 6 -104 6q-148 0 -212.5 -46t-86.5 -148l-281 -1325q-41 -191 -179 -285t-339 -94q-31 0 -62.5 2t-66.5 6l39 184q55 -6 104 -6q146 0 210.5 46t86.5 147l281 1325q41 190 180 285.5t340 95.5q31 0 62.5 -3.5t66.5 -7.5z" />
    <glyph glyph-name="approxequal" unicode="&#x2248;" 
d="M1046 738q-84 -123 -185 -191.5t-218 -68.5q-61 0 -101 22.5t-72 50t-64.5 51t-79.5 23.5q-66 0 -118 -39t-110 -110l-135 88q86 118 186.5 188t217.5 70q61 0 101 -23.5t71.5 -51.5t65.5 -51.5t81 -23.5q66 0 118 41t109 113zM969 367q-86 -123 -186.5 -191.5
t-217.5 -68.5q-61 0 -101 22.5t-73 50t-65.5 51t-79.5 23.5q-66 0 -118 -39t-108 -110l-135 88q84 119 185.5 188.5t218.5 69.5q61 0 101 -23.5t71.5 -51t64.5 -51.5t80 -24q66 0 119 41t108 113z" />
    <glyph glyph-name="notequal" unicode="&#x2260;" 
d="M317 385l129 187h-424l39 186h514l131 186h173l-132 -186h246l-39 -186h-336l-129 -187h426l-41 -186h-514l-129 -186h-172l129 186h-245l41 186h333z" />
    <glyph glyph-name="lessequal" unicode="&#x2264;" 
d="M749 88l-106 -88h190l-38 -186h-746l39 186h491l-376 480l620 512l92 -121l-473 -391z" />
    <glyph glyph-name="greaterequal" unicode="&#x2265;" 
d="M684 480l-309 391l145 121l404 -512l-582 -480h491l-38 -186h-746l39 186h188l-67 88z" />
    <glyph glyph-name="uni2303" unicode="&#x2303;" 
d="M442 352l-475 -391l-92 119l619 512l403 -512l-147 -119z" />
    <glyph glyph-name="uni2318" unicode="&#x2318;" 
d="M1010 281q-11 -43 -35.5 -81t-60 -68t-76.5 -46t-84 -16t-78 16t-57.5 46t-30.5 68t2 81l14 73h-139l-14 -73q-11 -43 -35.5 -81t-60.5 -68t-76.5 -46t-83.5 -16t-78 16t-58.5 46t-32 68t2.5 81q8 43 32.5 80.5t60.5 66.5t77 45t84 16h75l31 140h-74q-43 0 -77.5 16.5
t-58 45t-32 66.5t-0.5 81q11 43 35.5 80.5t60.5 67.5t76.5 46.5t83.5 16.5t78 -16.5t57.5 -46.5t31 -67.5t-2.5 -80.5l-14 -74h139l15 74q10 43 34.5 80.5t59.5 67.5t76 46.5t84 16.5t77.5 -16.5t58 -46.5t32 -67.5t-2.5 -80.5q-8 -43 -32.5 -81t-60.5 -66.5t-77 -45
t-84 -16.5h-73l-31 -140h74q43 0 77.5 -16t58 -45t32 -66.5t0.5 -80.5zM991 838q8 32 -9 53.5t-50 21.5t-57.5 -21.5t-32.5 -53.5l-15 -74h74q33 0 58.5 20.5t31.5 53.5zM874 281q7 32 -10.5 52.5t-50.5 20.5h-72l-14 -73q-8 -33 7.5 -54.5t47.5 -21.5q33 0 58.5 21.5
t33.5 54.5zM633 489l31 140h-140l-30 -140h139zM432 838q8 32 -8 53.5t-49 21.5t-59.5 -21.5t-34.5 -53.5q-7 -33 11.5 -53.5t51.5 -20.5h74zM330 354h-76q-33 0 -58.5 -20.5t-31.5 -52.5q-8 -33 9 -54.5t50 -21.5t58.5 21.5t33.5 54.5z" />
    <glyph glyph-name="uni2324" unicode="&#x2324;" 
d="M946 537h-301l37 174h301zM315 537h-301l37 174h301zM442 352l-475 -391l-92 119l619 512l403 -512l-147 -119z" />
    <glyph glyph-name="optionkey" unicode="&#x2325;" 
d="M1133 537h-371l37 174h370zM213 711q84 0 145.5 -11.5t104.5 -36t71.5 -61.5t49.5 -86l75 -186q17 -37 31.5 -60.5t38 -37t63 -17.5t105.5 -4h166l-37 -174h-164q-84 0 -144.5 11t-103.5 36t-72.5 61.5t-47.5 85.5l-76 187q-17 37 -31 60.5t-38.5 36.5t-64.5 17.5
t-106 4.5h-164l37 174h162z" />
    <glyph glyph-name="erasetotheright" unicode="&#x2326;" 
d="M1149 651l-791 -651h-383l277 1305h383zM920 651l-377 482h-156l-205 -961h156zM682 526l-96 -77l-99 126l-151 -126l-62 77l152 125l-98 125l94 80l98 -125l152 125l63 -80l-151 -125z" />
    <glyph glyph-name="uni237d" unicode="&#x237d;" 
d="M1059 193h-225l-39 -193h-668l39 193h-225l36 172h398l-41 -193h323l41 193h398z" />
    <glyph glyph-name="uni2388" unicode="&#x2388;" 
d="M1122 467q-20 -98 -75.5 -184t-132 -149.5t-171 -99.5t-192.5 -36q-80 0 -146.5 24.5t-114.5 68.5t-79 106.5t-37 138.5l123 33q2 -54 25.5 -100t60.5 -79.5t86 -53t109 -19.5q73 0 141.5 26.5t127 74.5t98.5 111.5t56 137.5q13 57 5.5 110.5t-32 96.5t-63.5 75.5
t-92 51.5l60 114q67 -22 120.5 -63t85 -99.5t43 -130t-5.5 -155.5zM772 453l-133 -109l-266 338l-41 -197h-142l95 447h442l-29 -141h-190z" />
    <glyph glyph-name="uni23ce" unicode="&#x23ce;" 
d="M1169 756q-24 -115 -88.5 -216.5t-155.5 -176t-201 -117.5t-224 -43h-297l129 -166l-123 -103l-277 349l424 352l82 -105l-196 -161h293q79 0 156 30.5t140.5 83t109.5 123t63 150.5h-383l32 157h549z" />
    <glyph glyph-name="uni2423" unicode="&#x2423;" 
d="M762 0h-789l76 365h172l-41 -193h443l41 193h174z" />
    <glyph glyph-name="SF100000" unicode="&#x2500;" 
d="M0 551v203h1118v-203h-1118z" />
    <glyph glyph-name="SF110000" unicode="&#x2502;" 
d="M365 1675h202v-2048h-202v2048z" />
    <glyph glyph-name="SF010000" unicode="&#x250c;" 
d="M365 754h753v-203h-551v-924h-202v1127z" />
    <glyph glyph-name="SF030000" unicode="&#x2510;" 
d="M0 551v203h567v-1127h-202v924h-365z" />
    <glyph glyph-name="SF020000" unicode="&#x2514;" 
d="M365 1675h202v-921h551v-203h-753v1124z" />
    <glyph glyph-name="SF040000" unicode="&#x2518;" 
d="M0 551v203h365v921h202v-1124h-567z" />
    <glyph glyph-name="SF080000" unicode="&#x251c;" 
d="M365 1675h202v-921h551v-203h-551v-924h-202v2048z" />
    <glyph glyph-name="SF090000" unicode="&#x2524;" 
d="M567 -373h-202v924h-365v203h365v921h202v-2048z" />
    <glyph glyph-name="SF060000" unicode="&#x252c;" 
d="M0 551v203h1118v-203h-551v-924h-202v924h-365z" />
    <glyph glyph-name="SF070000" unicode="&#x2534;" 
d="M0 551v203h365v921h202v-921h551v-203h-1118z" />
    <glyph glyph-name="SF050000" unicode="&#x253c;" 
d="M0 551v203h365v921h202v-921h551v-203h-551v-924h-202v924h-365z" />
    <glyph glyph-name="SF430000" unicode="&#x2550;" 
d="M1118 940v-203h-1118v203h1118zM1118 567v-202h-1118v202h1118z" />
    <glyph glyph-name="SF240000" unicode="&#x2551;" 
d="M381 -373h-203v2048h203v-2048zM551 1675h203v-2048h-203v2048z" />
    <glyph glyph-name="SF510000" unicode="&#x2552;" 
d="M1118 567v-202h-551v-738h-202v940h372v373h381v-203h-178v-170h178z" />
    <glyph glyph-name="SF520000" unicode="&#x2553;" 
d="M1118 754v-203h-364v-924h-203v551h-170v-551h-203v754h373v373h567z" />
    <glyph glyph-name="SF390000" unicode="&#x2554;" 
d="M381 737v-1110h-203v1313h940v-203h-737zM1118 567v-202h-364v-738h-203v940h567z" />
    <glyph glyph-name="SF220000" unicode="&#x2555;" 
d="M0 365v202h178v170h-178v203h381v-373h186v-940h-202v738h-365z" />
    <glyph glyph-name="SF210000" unicode="&#x2556;" 
d="M381 754v-373h373v-754h-203v551h-170v-551h-203v924h-178v203h381z" />
    <glyph glyph-name="SF250000" unicode="&#x2557;" 
d="M551 737h-551v203h754v-1313h-203v1110zM381 567v-940h-203v738h-178v202h381z" />
    <glyph glyph-name="SF500000" unicode="&#x2558;" 
d="M737 365v372h-372v938h202v-735h551v-203h-178v-170h178v-202h-381z" />
    <glyph glyph-name="SF490000" unicode="&#x2559;" 
d="M551 551v373h-373v751h203v-549h170v549h203v-921h364v-203h-567z" />
    <glyph glyph-name="SF380000" unicode="&#x255a;" 
d="M178 365v1310h203v-1108h737v-202h-940zM551 737v938h203v-735h364v-203h-567z" />
    <glyph glyph-name="SF280000" unicode="&#x255b;" 
d="M-8 567v170h8v203h365v735h202v-938h-372v-372h-195v202h-8z" />
    <glyph glyph-name="SF270000" unicode="&#x255c;" 
d="M0 551v203h178v921h203v-549h170v549h203v-751h-373v-373h-381z" />
    <glyph glyph-name="SF260000" unicode="&#x255d;" 
d="M0 737v203h178v735h203v-938h-381zM551 567v1108h203v-1310h-754v202h551z" />
    <glyph glyph-name="SF360000" unicode="&#x255e;" 
d="M365 737v938h202v-735h551v-203h-753zM1118 567v-202h-551v-738h-202v940h753z" />
    <glyph glyph-name="SF370000" unicode="&#x255f;" 
d="M381 -373h-203v2048h203v-2048zM551 1675h203v-921h364v-203h-364v-924h-203v2048z" />
    <glyph glyph-name="SF420000" unicode="&#x2560;" 
d="M381 -373h-203v2048h203v-2048zM551 737v938h203v-735h364v-203h-567zM1118 567v-202h-364v-738h-203v940h567z" />
    <glyph glyph-name="SF190000" unicode="&#x2561;" 
d="M0 737v203h365v735h202v-938h-567zM567 567v-940h-202v738h-365v202h567z" />
    <glyph glyph-name="SF200000" unicode="&#x2562;" 
d="M381 -373h-203v924h-178v203h178v921h203v-2048zM551 1675h203v-2048h-203v2048z" />
    <glyph glyph-name="SF230000" unicode="&#x2563;" 
d="M0 737v201h178v737h203v-938h-381zM381 567v-940h-203v738h-178v202h381zM551 1675h203v-2048h-203v2048z" />
    <glyph glyph-name="SF470000" unicode="&#x2564;" 
d="M0 365v202h1118v-202h-551v-738h-202v738h-365zM1118 940v-203h-1118v203h1118z" />
    <glyph glyph-name="SF480000" unicode="&#x2565;" 
d="M381 754v-1127h-203v924h-178v203h381zM1118 754v-203h-364v-924h-203v1127h567z" />
    <glyph glyph-name="SF410000" unicode="&#x2566;" 
d="M381 567v-940h-203v738h-178v202h381zM1118 940v-203h-1118v203h1118zM1118 567v-202h-364v-738h-203v940h567z" />
    <glyph glyph-name="SF450000" unicode="&#x2567;" 
d="M0 737v203h365v735h202v-735h551v-203h-1118zM1118 567v-202h-1118v202h1118z" />
    <glyph glyph-name="SF460000" unicode="&#x2568;" 
d="M0 551v203h178v921h203v-1124h-381zM551 551v1124h203v-921h364v-203h-567z" />
    <glyph glyph-name="SF400000" unicode="&#x2569;" 
d="M0 737v203h178v735h203v-938h-381zM551 737v938h203v-735h364v-203h-567zM1118 567v-202h-1118v202h1118z" />
    <glyph glyph-name="SF540000" unicode="&#x256a;" 
d="M0 737v203h365v735h202v-735h551v-203h-1118zM1118 567v-202h-551v-738h-202v738h-365v202h1118z" />
    <glyph glyph-name="SF530000" unicode="&#x256b;" 
d="M1118 754v-203h-364v-924h-203v2048h203v-921h364zM381 1675v-2048h-203v924h-178v203h178v921h203z" />
    <glyph glyph-name="SF440000" unicode="&#x256c;" 
d="M0 737v203h178v735h203v-938h-381zM383 567v-940h-203v738h-180v202h383zM551 737v938h203v-735h364v-203h-567zM1118 567v-202h-370v-738h-201v940h571z" />
    <glyph glyph-name="blackdiamond" unicode="&#x25c6;" 
d="M950 467l-585 -485l-383 485l587 485z" />
    <glyph glyph-name="lozenge" unicode="&#x25ca;" 
d="M950 467l-585 -483l-383 483l587 485zM756 467l-228 291l-354 -291l232 -291z" />
    <glyph glyph-name="checkmark" unicode="&#x2713;" 
d="M1153 666l-926 -715l-221 510l156 86l151 -344l754 583z" />
    <glyph glyph-name="shift" unicode="&#xe000;" 
d="M946 455l-22 -107h-236l-74 -348h-495l74 348h-232l23 107l583 483zM698 479l-180 230l-280 -230h120l-65 -315h219l66 315h120z" />
    <glyph glyph-name="shiftlock" unicode="&#xe001;" 
d="M924 348h-236l-74 -348h-495l74 348h-232l23 107l583 483l379 -483zM590 424l57 268h-268l-57 -268h268z" />
    <glyph glyph-name="verticaltab" unicode="&#xe002;" 
d="M432 758h-371l31 139h371zM133 215h-186l28 139h187zM963 758h-156l31 139h299l-146 -682h-426l137 -178l-122 -103l-277 349l424 352l82 -105l-215 -176h283z" />
    <glyph glyph-name="copy" unicode="&#xe003;" 
d="M946 0h-973l277 1305h567l320 -404zM979 901l-195 250l-53 -250h248zM831 143l136 637h-383l82 383h-306l-217 -1020h688zM713 410h-178l-37 -177h-109l37 177h-178l22 110h179l38 178h109l-39 -178h178z" />
    <glyph glyph-name="back" unicode="&#xe004;" 
d="M172 932h168l-197 -932h-168zM965 977l96 -119l-377 -309h451l-35 -168h-451l244 -305l-145 -121l-402 512z" />
    <glyph glyph-name="endtab" unicode="&#xe005;" 
d="M104 913h549l-32 -157h-383q-17 -80 -1.5 -150.5t56.5 -123t105.5 -83t144.5 -30.5h293l-127 161l122 105l277 -352l-424 -349l-82 103l203 166h-297q-115 0 -208 43t-151.5 117.5t-80 176t3.5 216.5z" />
    <glyph glyph-name="insert" unicode="&#xe006;" 
d="M838 897h372l-30 -139h-373zM907 354h187l-29 -139h-186zM193 354h282l-137 176l123 105l276 -352l-424 -349l-82 103l215 178h-426l146 682h299l-31 -139h-155z" />
    <glyph glyph-name="tab" unicode="&#xe007;" 
d="M946 0h-168l197 932h168zM772 467l-618 -512l-97 121l375 305h-450l34 168h451l-242 309l146 119z" />
    <glyph glyph-name="commaaccent" unicode="&#xf6c3;" 
d="M561 -109l-248 -264h-190l160 264h278z" />
    <glyph glyph-name="apple" unicode="&#xf8ff;" 
d="M1006 1343q-33 -149 -124 -232t-210 -93q59 266 334 325zM1106 362q-23 -43 -65 -104t-94 -117.5t-110.5 -97.5t-113.5 -41q-31 0 -58.5 8t-53 18.5t-54.5 18.5t-59 8q-31 0 -60.5 -8t-59.5 -19.5t-57.5 -19.5t-54.5 -8q-67 0 -120.5 61.5t-84 154.5t-39 200.5
t10.5 199.5q16 74 52 149t87 134t119.5 97t152.5 38q37 0 70 -7t61.5 -16.5t56 -16.5t56.5 -7q33 0 65.5 8.5t66.5 18.5t67 18t67 8q148 0 230 -133q-172 -123 -203 -262q-8 -43 -5 -87t18.5 -83t44 -68.5t67.5 -44.5z" />
    <glyph glyph-name="appleopen" unicode="&#xf900;" 
d="M1006 1343q-33 -149 -124 -232t-210 -93q59 266 334 325zM1106 362q-23 -43 -65 -104t-94 -117.5t-110.5 -97.5t-113.5 -41q-31 0 -58.5 8t-53 18.5t-54.5 18.5t-59 8q-31 0 -60.5 -8t-59.5 -19.5t-57.5 -19.5t-54.5 -8q-67 0 -120.5 61.5t-84 154.5t-39 200.5
t10.5 199.5q16 74 52 149t87 134t119.5 97t152.5 38q37 0 70 -7t61.5 -16.5t56 -16.5t56.5 -7q33 0 65.5 8.5t66.5 18.5t67 18t67 8q148 0 230 -133q-172 -123 -203 -262q-8 -43 -5 -87t18.5 -83t44 -68.5t67.5 -44.5zM922 342q-54 61 -69 129t5 160q14 67 43 122.5
t84 110.5q-16 37 -98 37q-6 0 -31 -4t-68 -14l-131 -29l-116 25q-88 18 -103 18q-55 0 -100 -27.5t-79 -70.5t-56.5 -94.5t-32.5 -98.5q-16 -78 -9 -162t29.5 -152.5t55.5 -112.5t67 -44q17 0 37.5 7.5t47 16.5t58 17t66.5 8t64.5 -7t54.5 -16t45.5 -16.5t38.5 -7.5
q23 0 49.5 20.5t53 51.5t52 66.5t42.5 66.5z" />
    <glyph glyph-name="fi" unicode="&#xfb01;" 
d="M676 186l119 559h-353l-118 -559h352zM1040 932l-157 -746h176l-39 -186h-1118l39 186h176l119 559h-177l39 187h176q41 192 180.5 293.5t340.5 101.5q30 0 64 -3t67 -7l-39 -182q-58 6 -107 6q-80 0 -131 -11.5t-85 -37t-52 -65.5t-31 -95h559z" />
    <glyph glyph-name="fl" unicode="&#xfb02;" 
d="M-98 0l39 186h176l119 559h-177l39 187h176q41 192 180.5 293.5t340.5 101.5q96 0 179 -7t144 -20l-235 -1114h176l-39 -186h-1118zM877 1135q-23 4 -48.5 5t-48.5 1q-80 0 -131 -11.5t-85 -37t-52 -65.5t-31 -95h242l-39 -187h-242l-118 -559h352z" />
  </font>
</defs>
</svg>
