<?xml version="1.0" standalone="no"?>
<!DOCTYPE svg PUBLIC "-//W3C//DTD SVG 1.1//EN" "http://www.w3.org/Graphics/SVG/1.1/DTD/svg11.dtd" >
<svg version="1.1" xmlns="http://www.w3.org/2000/svg">
<metadata>
Created by FontForge 20120731 at Fri Aug  1 16:50:19 2014

Copyright (c) 2010, Sebastian Kosch (sebastian@aldusleaf.org),
with Reserved Font Name "Crimson".
This Font Software is licensed under the SIL Open Font License, Version 1.1.
This license is available with a FAQ at: http://scripts.sil.org/OFL
</metadata>
<defs>
<font id="crimson" horiz-adv-x="449" >
  <font-face 
    font-family="Crimson"
    font-weight="400"
    font-style="italic"
    font-stretch="normal"
    units-per-em="1024"
    panose-1="2 0 5 3 0 0 0 0 0 0"
    ascent="742"
    descent="-282"
    x-height="435"
    cap-height="662"
    bbox="-396.196 -269 1003 966"
    underline-thickness="51"
    underline-position="-102"
    slope="-12"
    stemh="29"
    stemv="75"
    unicode-range="U+0020-2767"
  />
<missing-glyph horiz-adv-x="512" 
d="M51 0v478h410v-478h-410zM102 51h308v376h-308v-376z" />
    <glyph glyph-name=".notdef" horiz-adv-x="512" 
d="M51 0v478h410v-478h-410zM102 51h308v376h-308v-376z" />
    <glyph glyph-name="space" unicode=" " horiz-adv-x="227" 
 />
    <glyph glyph-name="exclam" unicode="!" horiz-adv-x="234" 
d="M20 36c0 37 29 66 66 66c24 0 43 -22 43 -46c0 -38 -27 -70 -65 -70c-26 0 -44 24 -44 50zM192 631c21 0 31 -22 31 -43c0 -27 -63 -236 -109 -418c-3 -14 -24 -22 -28 -22c-5 0 -6 11 -6 18c0 4 32 263 53 411c3 19 27 54 59 54z" />
    <glyph glyph-name="quotedbl" unicode="&#x22;" horiz-adv-x="331" 
d="M324 698c28 0 39 -6 28 -65c-11 -56 -40 -117 -59 -184c-3 -10 -14 -15 -21 -15s-16 5 -15 13c9 90 0 143 0 189c3 18 31 62 67 62zM174 698c28 0 39 -6 28 -65c-11 -56 -40 -117 -59 -184c-3 -10 -14 -15 -21 -15s-16 5 -15 13c9 90 0 143 0 189c3 18 31 62 67 62z" />
    <glyph glyph-name="numbersign" unicode="#" horiz-adv-x="447" 
d="M350 370h80c5 0 5 0 5 -2c0 -16 -15 -48 -23 -48h-79l-30 -92h79c4 0 5 0 5 -3c0 -16 -15 -47 -23 -47h-79l-51 -153c0 -1 -3 -7 -31 -7c-8 0 -17 2 -19 3c2 9 52 152 52 153l2 4h-93l-51 -153c0 -1 -3 -7 -31 -7c-8 0 -17 2 -19 3c2 9 52 152 52 153l2 4h-80
c-4 0 -5 0 -5 3c0 16 15 47 23 47h79l30 92h-79c-4 0 -5 0 -5 3c0 16 15 47 23 47h79l51 153c0 1 3 7 31 7c8 0 17 -3 19 -4c-2 -7 -52 -151 -52 -152l-2 -4h93l51 153c0 1 3 7 31 7c8 0 17 -3 19 -4c-2 -7 -52 -151 -52 -152zM285 320h-92l-30 -92h92z" />
    <glyph glyph-name="dollar" unicode="$" horiz-adv-x="435" 
d="M120 -52c-8 0 -32 2 -31 9l16 45c-28 8 -53 20 -75 30c-13 52 -13 133 -11 145c3 4 17 6 24 6c5 0 8 -2 10 -6c0 -39 19 -101 67 -132l83 240c-55 43 -119 80 -119 173c0 111 112 183 202 183c15 0 28 -1 41 -2l15 44c7 0 32 0 31 -7l-15 -43c19 -4 38 -9 60 -15
c-3 -33 -14 -110 -20 -139c-1 -7 -6 -7 -9 -7c-4 0 -15 1 -21 7c3 47 -3 84 -27 106l-79 -229c3 -2 5 -4 8 -6c51 -40 122 -75 122 -165c0 -119 -124 -193 -220 -193c-12 0 -24 1 -36 3zM230 264l-81 -233c11 -3 23 -5 37 -5c56 0 120 39 120 115c0 61 -35 91 -76 123z
M235 376l78 225c-11 4 -25 6 -41 6c-79 0 -113 -58 -113 -107c0 -61 36 -94 76 -124z" />
    <glyph glyph-name="percent" unicode="%" horiz-adv-x="630" 
d="M458 300c-63 0 -109 -90 -109 -168c0 -51 17 -112 65 -112c63 0 102 96 102 175c0 47 -13 105 -58 105zM468 327c77 0 113 -64 113 -132c0 -96 -81 -203 -179 -203c-76 0 -116 63 -116 131c0 98 80 204 182 204zM246 646c-63 0 -109 -90 -109 -168c0 -51 17 -112 65 -112
c63 0 102 96 102 175c0 47 -13 105 -58 105zM256 673c77 0 113 -64 113 -132c0 -96 -81 -203 -179 -203c-76 0 -116 63 -116 131c0 98 80 204 182 204zM647 650l-596 -650c-4 -4 -20 -12 -34 -12c-7 0 -13 3 -15 11l596 653c4 4 12 11 22 11c12 0 23 -3 27 -13z" />
    <glyph glyph-name="ampersand" unicode="&#x26;" horiz-adv-x="781" 
d="M418 536c46 0 84 -38 84 -84c0 -131 -188 -193 -281 -216c6 -140 74 -209 189 -209c92 0 187 72 187 165c0 17 -9 40 -15 46c-50 -16 -114 -49 -114 -93c0 -9 1 -17 4 -22c-4 -2 -15 -1 -20 5c-11 9 -21 32 -21 57c0 45 41 76 115 108c91 39 200 109 191 249
c9 1 17 -5 20 -8c12 -24 22 -52 22 -94c0 -80 -55 -142 -125 -176c4 -8 6 -21 6 -36c0 -120 -135 -233 -282 -233c-129 0 -236 59 -239 221c-52 -13 -96 -29 -96 -62c0 -18 12 -24 20 -31c9 -8 19 -17 19 -33c0 -29 -20 -43 -44 -43c-10 0 -18 1 -25 5c-13 11 -20 39 -20 55
c0 62 38 111 109 131c10 3 23 6 38 10c12 140 124 288 278 288zM221 274c90 31 188 81 188 161c0 35 -13 59 -51 59c-66 0 -131 -91 -137 -220z" />
    <glyph glyph-name="quotesingle" unicode="'" horiz-adv-x="181" 
d="M174 698c28 0 39 -6 28 -65c-11 -56 -40 -117 -59 -184c-3 -10 -14 -15 -21 -15s-16 5 -15 13c9 90 0 143 0 189c3 18 31 62 67 62z" />
    <glyph glyph-name="parenleft" unicode="(" horiz-adv-x="260" 
d="M277 748c5 -2 7 -9 7 -13c-62 -71 -198 -317 -176 -571c12 -141 44 -218 95 -273c0 -3 0 -10 -5 -12c-59 22 -134 125 -149 298c-26 297 148 499 228 571z" />
    <glyph glyph-name="parenright" unicode=")" horiz-adv-x="260" 
d="M2 -121c-5 2 -8 9 -7 13c62 71 198 317 176 571c-12 141 -44 218 -95 273c0 3 0 10 5 12c59 -22 134 -125 149 -298c26 -297 -148 -499 -228 -571z" />
    <glyph glyph-name="asterisk" unicode="*" horiz-adv-x="400" 
d="M256 514c25 0 72 119 123 119c14 0 23 -10 23 -24c0 -57 -133 -86 -133 -118c0 -27 124 -18 124 -72c0 -19 -17 -36 -37 -36c-43 0 -76 83 -101 83c-23 0 -12 -68 -30 -125c-9 -30 -27 -43 -41 -43c-13 0 -23 11 -23 28c0 40 65 112 65 138c0 5 -2 9 -9 9
c-21 0 -85 -41 -123 -41c-17 0 -30 8 -30 24c0 13 7 44 61 44c29 0 58 -7 78 -7c22 0 25 10 25 17c0 24 -51 70 -51 113c0 25 17 41 34 41c31 0 33 -44 33 -84c0 -6 -2 -66 12 -66z" />
    <glyph glyph-name="plus" unicode="+" horiz-adv-x="454" 
d="M23 217c-3 0 -5 3 -5 8c0 13 3 22 13 35h172l33 175c3 13 37 16 41 16c8 0 10 -4 9 -8l-35 -183h171c2 0 3 -3 3 -8c0 -13 -1 -23 -12 -35h-170l-35 -178c-2 -10 -19 -16 -35 -16c-10 0 -14 4 -14 8l36 186h-172z" />
    <glyph glyph-name="comma" unicode="," horiz-adv-x="200" 
d="M-28 -89c13 6 68 41 68 87c0 49 -17 48 -17 81c0 31 26 50 55 50c12 0 24 -5 28 -10c2 -5 3 -21 3 -24c0 -44 -11 -82 -36 -123c-28 -46 -69 -74 -87 -81c-4 0 -14 12 -14 20z" />
    <glyph glyph-name="hyphen" unicode="-" horiz-adv-x="371" 
d="M74 261l227 12c5 0 6 -7 6 -12c0 -13 -13 -50 -23 -51l-226 -11c-3 0 -5 7 -5 15c0 11 10 46 21 47z" />
    <glyph glyph-name="period" unicode="." horiz-adv-x="208" 
d="M8 33c0 37 34 69 67 69c26 0 43 -19 43 -45c0 -37 -33 -71 -66 -71c-26 0 -44 20 -44 47z" />
    <glyph glyph-name="slash" unicode="/" horiz-adv-x="382" 
d="M451 755l-424 -767c-3 -5 -24 -22 -47 -22c-4 0 -11 4 -12 6l425 767c5 8 28 22 46 22c6 0 10 -3 12 -6z" />
    <glyph glyph-name="zero" unicode="0" horiz-adv-x="456" 
d="M170 320c-31 -157 -8 -288 61 -288c83 0 151 136 182 293s7 281 -62 281c-78 0 -150 -129 -181 -286zM88 319c34 174 137 322 265 322c130 0 174 -148 140 -322s-137 -322 -265 -322c-126 0 -174 148 -140 322z" />
    <glyph glyph-name="one" unicode="1" horiz-adv-x="456" 
d="M224 534c-7 4 -10 13 -9 20c0 2 0 5 3 6c93 44 175 82 178 82h2c6 0 8 -14 8 -19c0 0 -16 -33 -28 -94l-76 -394c-6 -33 -11 -62 -10 -89c1 -11 51 -20 58 -20c3 0 1 -11 0 -18c-1 -5 -2 -9 -3 -11c-37 2 -73 5 -110 5s-70 -3 -108 -5c-4 5 1 29 6 29c11 0 64 9 69 20
c9 20 12 38 16 57l70 360c12 60 17 91 -2 91c-7 0 -46 -11 -64 -20z" />
    <glyph glyph-name="two" unicode="2" horiz-adv-x="456" 
d="M485 512c0 -91 -47 -154 -118 -226c-84 -86 -226 -213 -224 -213h170c54 0 86 32 105 74c2 5 7 9 13 9c4 0 16 -4 17 -6c-26 -49 -69 -132 -77 -150h-325c-2 2 -6 9 -6 15c55 50 198 197 257 264c68 77 99 139 99 207c0 56 -33 91 -82 91c-74 0 -134 -66 -149 -86
c-7 0 -15 12 -14 16c11 25 99 135 196 135c73 0 138 -52 138 -130z" />
    <glyph glyph-name="three" unicode="3" horiz-adv-x="456" 
d="M360 642c47 0 101 -35 101 -109c0 -66 -64 -125 -116 -154c56 -7 103 -75 103 -135c0 -154 -183 -249 -271 -249c-48 0 -82 9 -105 25c-4 5 -9 17 -9 28c0 30 20 58 42 58c33 0 38 -30 52 -47c17 -21 39 -24 64 -24c57 0 142 71 142 184c0 67 -36 108 -97 108
c-20 0 -47 -7 -59 -10c-3 5 -4 9 -4 14c0 4 1 14 3 17c80 14 182 77 182 165c0 55 -35 75 -77 75c-59 0 -101 -53 -111 -60c-6 0 -7 15 -5 24c38 46 92 90 165 90z" />
    <glyph glyph-name="four" unicode="4" horiz-adv-x="456" 
d="M476 644c9 0 15 -10 13 -18l-77 -395h56c6 0 9 -20 5 -41c-2 -9 -5 -13 -7 -16h-65l-34 -175s-7 -5 -43 -5c-22 0 -34 1 -33 8l34 172h-262c-6 4 -6 13 -5 19l385 426c7 8 26 25 33 25zM393 524l-264 -293h207z" />
    <glyph glyph-name="five" unicode="5" horiz-adv-x="456" 
d="M448 247c0 -154 -182 -252 -271 -252c-48 0 -82 9 -105 25c-4 5 -9 17 -9 28c0 30 20 58 42 58c33 0 38 -30 52 -47c17 -21 39 -24 64 -24c57 0 142 71 142 184c0 36 -13 113 -121 113c-20 0 -56 -7 -75 -13c-3 2 -10 9 -14 14c45 132 75 256 90 298c66 2 199 5 234 13
c6 -3 10 -9 10 -13c0 -17 -23 -56 -33 -70c-45 -10 -181 -7 -196 -10c-4 -7 -35 -121 -54 -174c20 8 72 18 97 18c100 0 147 -81 147 -148z" />
    <glyph glyph-name="six" unicode="6" horiz-adv-x="456" 
d="M325 380c77 0 130 -69 130 -150c0 -116 -118 -236 -227 -236c-88 0 -147 67 -147 179c0 78 37 192 124 291c58 66 168 139 284 179c6 0 8 -19 7 -25c-115 -49 -231 -127 -291 -268c-34 -80 -42 -135 -42 -190c0 -61 19 -133 77 -133c54 0 135 79 135 197
c0 62 -27 109 -96 109c-24 0 -39 -9 -48 -14c-3 2 -6 6 -6 10c0 12 66 51 100 51z" />
    <glyph glyph-name="seven" unicode="7" horiz-adv-x="456" 
d="M103 14c132 166 365 543 365 543h-232c-37 0 -64 -45 -82 -77c-1 -2 -4 -3 -7 -3c-7 0 -16 2 -21 5c16 38 56 116 66 151h286c24 0 57 3 63 3s5 -4 4 -9c-3 -13 -22 -39 -40 -67l-354 -563c-2 -2 -5 -3 -10 -3c-14 0 -40 11 -38 20z" />
    <glyph glyph-name="eight" unicode="8" horiz-adv-x="456" 
d="M358 643c83 0 141 -57 123 -152c-13 -67 -85 -118 -133 -147c-4 -1 -3 -4 -1 -6c49 -34 103 -99 89 -171c-19 -100 -119 -176 -212 -176c-102 0 -160 66 -141 163c17 88 111 139 152 164c3 2 4 5 2 6c-34 25 -79 82 -65 156c17 85 104 163 186 163zM346 608
c-45 0 -89 -46 -103 -116c-12 -62 41 -106 72 -128c2 -1 3 -2 5 -2s3 0 6 2c43 27 76 67 87 122c11 58 -11 122 -67 122zM233 27c61 0 109 43 122 111c16 83 -78 149 -89 157c-2 1 -2 2 -5 2c-1 0 -3 0 -4 -1c-58 -35 -88 -75 -100 -139c-16 -82 27 -130 76 -130z" />
    <glyph glyph-name="nine" unicode="9" horiz-adv-x="456" 
d="M255 257c-77 0 -130 69 -130 150c0 116 118 236 227 236c88 0 147 -67 147 -179c0 -78 -37 -192 -124 -291c-58 -66 -168 -139 -284 -179c-6 0 -8 19 -7 25c115 49 231 127 291 268c34 80 42 135 42 190c0 61 -19 133 -77 133c-54 0 -135 -79 -135 -197
c0 -62 27 -109 96 -109c24 0 39 9 48 14c3 -2 6 -6 6 -10c0 -12 -66 -51 -100 -51z" />
    <glyph glyph-name="colon" unicode=":" horiz-adv-x="236" 
d="M83 367c0 38 35 71 69 71c27 0 45 -20 45 -47c0 -38 -34 -73 -68 -73c-27 0 -46 21 -46 49zM19 34c0 38 34 72 68 72c27 0 45 -21 45 -48c0 -38 -34 -72 -68 -72c-27 0 -45 21 -45 48z" />
    <glyph glyph-name="semicolon" unicode=";" horiz-adv-x="252" 
d="M99 367c0 38 35 71 69 71c27 0 45 -20 45 -47c0 -38 -34 -73 -68 -73c-27 0 -46 21 -46 49zM-17 -89c13 6 68 41 68 87c0 49 -17 48 -17 81c0 31 26 50 55 50c12 0 24 -5 28 -10c2 -5 3 -21 3 -24c0 -44 -11 -82 -36 -123c-28 -46 -69 -74 -87 -81c-4 0 -14 12 -14 20z
" />
    <glyph glyph-name="less" unicode="&#x3c;" horiz-adv-x="447" 
d="M87 209l274 -168s2 -1 2 -5c0 -13 -20 -50 -25 -50c-1 0 -2 0 -4 1l-312 190c-6 4 -10 14 -10 26c0 14 6 29 23 38l381 187c2 1 3 1 4 1c3 0 7 -21 7 -35c0 -3 -1 -18 -5 -20z" />
    <glyph glyph-name="equal" unicode="=" horiz-adv-x="560" 
d="M39 117c0 0 -5 0 -5 6c0 3 14 50 23 50h416c5 0 6 -3 6 -5c0 -5 -10 -26 -18 -45c-4 -6 -7 -6 -7 -6h-415zM67 259c0 0 -4 0 -4 6c0 1 13 50 22 50h415c5 0 6 -3 6 -5c0 -5 -9 -26 -17 -45c-3 -6 -8 -6 -8 -6h-414z" />
    <glyph glyph-name="greater" unicode="&#x3e;" horiz-adv-x="448" 
d="M339 209l-272 165s-2 1 -2 4c0 7 21 52 26 52c1 0 2 -1 4 -2l307 -187c7 -4 12 -11 12 -20c0 -3 -2 -33 -24 -44l-385 -190c-2 -1 -4 -2 -6 -2c-5 0 -6 19 -6 48c0 5 5 8 5 8z" />
    <glyph glyph-name="question" unicode="?" horiz-adv-x="320" 
d="M40 32c0 38 32 70 65 70c26 0 45 -20 45 -46c0 -37 -35 -70 -68 -70c-26 0 -42 20 -42 46zM175 197c0 -4 -5 -13 -10 -16c-24 0 -99 46 -99 102c0 42 23 65 49 83c47 32 71 48 116 80c20 14 46 38 46 76c0 39 -22 60 -52 60c-44 0 -44 -46 -82 -46c-29 0 -34 34 -34 52
c5 15 48 43 86 43c75 0 133 -67 133 -129c0 -42 -12 -74 -44 -104c-24 -22 -63 -41 -115 -77c-25 -17 -33 -33 -33 -60c0 -29 28 -56 39 -64z" />
    <glyph glyph-name="at" unicode="@" horiz-adv-x="759" 
d="M421 577c185 0 277 -134 277 -295c0 -206 -148 -288 -230 -288c-49 0 -70 34 -70 64c0 8 1 19 5 40c4 19 4 25 5 32c-22 -39 -90 -135 -148 -135c-55 0 -88 50 -88 120c0 160 152 320 289 320c35 0 54 -6 73 -13l-64 -317c-10 -48 3 -75 27 -75c75 0 159 133 159 237
c0 166 -84 275 -243 275c-169 0 -346 -162 -346 -402c0 -80 40 -156 93 -198c18 -14 37 -25 46 -29c-6 -5 -13 -7 -32 -7c-25 0 -60 29 -74 45c-53 63 -71 125 -71 190c0 252 184 436 392 436zM413 395c-77 0 -167 -130 -167 -245c0 -62 16 -97 51 -97c50 0 121 124 140 220
l21 107c-9 10 -32 15 -45 15z" />
    <glyph glyph-name="A" unicode="A" horiz-adv-x="586" 
d="M341 26c35 0 57 11 57 31c0 10 0 30 -3 49l-22 150h-199c-34 -62 -62 -114 -71 -131c-18 -35 -29 -60 -29 -75c0 -21 55 -24 62 -24c2 -3 -1 -23 -4 -29c-37 2 -48 5 -89 5c-43 0 -55 -3 -98 -5c-2 3 2 22 6 29c11 0 45 6 57 19c24 26 42 58 62 94l276 495
c9 16 32 29 40 29c3 0 4 -2 5 -3l86 -534c6 -37 10 -64 11 -68c6 -29 56 -32 63 -32c3 -7 -1 -26 -3 -29c-37 2 -68 5 -109 5c-43 0 -61 -3 -104 -5c-4 5 0 24 6 29zM192 289h175l-38 246z" />
    <glyph glyph-name="B" unicode="B" horiz-adv-x="566" 
d="M218 370h94c67 0 121 67 121 152c0 56 -28 108 -114 108c-11 0 -44 -1 -49 -10c-7 -12 -13 -45 -19 -75zM211 339l-44 -225c-3 -14 -11 -64 -6 -71c11 -16 36 -17 70 -17c103 0 178 70 178 194c0 30 2 119 -141 119h-57zM233 657c36 0 77 2 132 2c85 0 156 -36 156 -122
c0 -100 -80 -150 -120 -171c45 -4 103 -58 103 -140c0 -136 -126 -229 -295 -229h-214c-4 5 1 24 6 29c11 0 62 5 67 16c8 16 13 44 19 74l83 427c6 30 11 59 10 74c0 12 -50 16 -61 16c-3 5 -1 24 5 29c38 -2 73 -5 109 -5z" />
    <glyph glyph-name="C" unicode="C" horiz-adv-x="645" 
d="M569 173c13 0 28 -8 28 -8c-4 -20 -57 -125 -72 -137c-54 -28 -109 -36 -195 -36c-162 0 -271 125 -271 273c0 252 199 405 406 401c58 -1 112 -14 161 -26c-2 -36 -7 -118 -10 -146c0 -3 -4 -5 -8 -5c-6 0 -15 1 -23 5c5 80 -65 141 -149 141
c-156 0 -283 -136 -282 -353c0 -119 54 -261 204 -261c102 0 168 70 211 152z" />
    <glyph glyph-name="D" unicode="D" horiz-adv-x="684" 
d="M252 546l-85 -434c-3 -14 -11 -66 -8 -72c5 -11 39 -14 73 -14c143 0 279 92 317 287c44 226 -58 318 -211 318c-11 0 -62 -1 -67 -11c-8 -16 -13 -45 -19 -74zM368 658c215 0 313 -139 277 -324c-33 -170 -146 -336 -417 -337h-233c-4 5 1 24 6 29c11 0 62 5 67 16
c8 16 13 44 19 74l83 427c6 30 12 58 10 74c-1 11 -50 16 -61 16c-3 5 -1 24 5 29c38 -2 73 -5 109 -5s94 1 135 1z" />
    <glyph glyph-name="E" unicode="E" horiz-adv-x="554" 
d="M233 657c87 0 199 7 300 7c-3 -50 1 -91 1 -136c-3 -3 -11 -5 -18 -5s-11 2 -11 7c-5 80 -39 100 -88 100h-80c-11 0 -61 -1 -66 -11c-8 -16 -15 -45 -20 -72l-37 -192c-1 -5 19 -6 39 -6h49c89 0 87 6 116 72c2 5 9 7 16 7s12 -2 14 -5l-36 -189c-2 -2 -9 -4 -16 -4
s-12 3 -13 8c-3 57 -6 64 -13 70c-9 7 -62 8 -97 8c-26 0 -67 0 -69 -9l-39 -198c-3 -15 -12 -64 -7 -69c10 -10 25 -10 64 -10h44c51 0 92 10 124 31c27 18 53 48 78 101c2 4 8 6 15 6c9 0 20 -3 22 -6c-28 -54 -68 -122 -83 -166c-101 0 -192 4 -316 4
c-44 0 -75 -3 -111 -3c-4 5 0 24 5 29c11 0 63 5 68 16c8 16 13 44 19 74l83 427c6 30 11 58 9 74c-1 11 -50 16 -61 16c-3 5 0 24 6 29c38 -2 73 -5 109 -5z" />
    <glyph glyph-name="F" unicode="F" horiz-adv-x="508" 
d="M233 657c87 0 199 7 300 7c-3 -50 1 -91 1 -136c-3 -3 -11 -5 -18 -5s-11 2 -11 7c-5 80 -39 100 -88 100h-80c-11 0 -61 -1 -66 -11c-8 -16 -15 -45 -20 -72l-37 -192c-1 -5 19 -6 39 -6h49c89 0 87 6 116 72c2 5 9 7 16 7s12 -2 14 -5l-36 -189c-2 -2 -9 -4 -16 -4
s-12 3 -13 8c-3 57 -6 64 -13 70c-9 7 -62 8 -97 8c-26 0 -67 0 -69 -9l-37 -191c-6 -30 -11 -58 -9 -74c1 -11 59 -16 70 -16c3 -5 0 -24 -6 -29c-38 2 -81 5 -117 5c-44 0 -74 -5 -110 -5c-4 5 0 24 5 29c11 0 63 5 68 16c8 16 13 44 19 74l83 427c6 30 11 58 9 74
c-1 11 -50 16 -61 16c-3 5 0 24 6 29c38 -2 73 -5 109 -5z" />
    <glyph glyph-name="G" unicode="G" horiz-adv-x="697" 
d="M585 494c5 80 -65 141 -149 141c-156 0 -283 -136 -282 -353c0 -119 56 -261 201 -261c48 0 91 20 112 34c6 4 9 10 10 17c5 27 20 103 20 103c6 30 12 58 10 74c-1 11 -55 16 -66 16c-3 5 -1 24 5 29c38 -2 72 -5 108 -5s71 3 110 5c4 -5 1 -24 -4 -29
c-11 0 -59 -5 -64 -16c-8 -16 -13 -44 -19 -74l-14 -71c-4 -21 2 -26 2 -36c0 -6 -4 -13 -22 -22c-46 -24 -96 -54 -219 -54c-154 0 -265 125 -265 273c0 252 199 405 406 401c58 -1 112 -14 161 -26c-2 -36 -8 -116 -10 -146c0 -3 -4 -5 -8 -5c-6 0 -15 1 -23 5z" />
    <glyph glyph-name="H" unicode="H" horiz-adv-x="686" 
d="M168 116c-6 -30 -12 -58 -10 -74c1 -11 50 -16 61 -16c3 -5 0 -24 -6 -29c-38 2 -71 5 -107 5s-72 -3 -111 -5c-4 5 0 24 5 29c11 0 63 5 68 16c8 16 13 44 19 74l83 427c6 30 11 58 9 74c-1 11 -50 16 -61 16c-3 5 0 24 6 29c38 -2 73 -5 109 -5s71 3 110 5
c4 -5 -1 -24 -6 -29c-11 0 -62 -5 -67 -16c-8 -16 -14 -44 -19 -74l-37 -187h292l37 187c5 30 11 58 9 74c-1 11 -50 16 -61 16c-3 5 0 24 6 29c38 -2 73 -5 109 -5s71 3 110 5c4 -5 -1 -24 -6 -29c-11 0 -62 -5 -67 -16c-8 -16 -13 -44 -19 -74l-83 -427
c-6 -30 -12 -58 -10 -74c1 -11 50 -16 61 -16c3 -5 0 -24 -6 -29c-38 2 -72 5 -108 5s-71 -3 -110 -5c-4 5 0 24 5 29c11 0 63 5 68 16c8 16 13 44 19 74l39 200h-292z" />
    <glyph glyph-name="I" unicode="I" horiz-adv-x="313" 
d="M233 657c36 0 71 3 110 5c4 -5 -1 -24 -6 -29c-11 0 -62 -5 -67 -16c-8 -16 -13 -44 -19 -74l-83 -427c-6 -30 -12 -58 -10 -74c1 -11 50 -16 61 -16c3 -5 0 -24 -6 -29c-38 2 -71 5 -107 5s-72 -3 -111 -5c-4 5 0 24 5 29c11 0 63 5 68 16c8 16 13 44 19 74l83 427
c6 30 11 58 9 74c-1 11 -50 16 -61 16c-3 5 0 24 6 29c38 -2 73 -5 109 -5z" />
    <glyph glyph-name="J" unicode="J" horiz-adv-x="313" 
d="M164 543c5 30 11 58 9 74c-1 11 -50 16 -61 16c-3 5 0 24 6 29c38 -2 73 -5 109 -5s71 3 110 5c4 -5 -1 -24 -6 -29c-11 0 -62 -5 -67 -16c-8 -16 -14 -44 -19 -74l-81 -427c-50 -264 -189 -349 -269 -349c-2 3 -3 8 -3 13c0 2 1 6 1 6c112 35 156 131 191 323z" />
    <glyph glyph-name="K" unicode="K" horiz-adv-x="614" 
d="M481 72c19 -23 42 -42 92 -46c4 -5 -5 -27 -6 -29c-62 0 -113 4 -130 11c-12 5 -34 15 -55 43c-15 21 -80 124 -160 253c-1 3 -4 3 -8 3c-3 0 -7 -1 -9 -2l-37 -189c-6 -30 -11 -58 -9 -74c1 -11 50 -16 61 -16c3 -5 0 -24 -6 -29c-38 2 -72 5 -108 5s-71 -3 -110 -5
c-4 5 0 24 5 29c11 0 62 5 67 16c8 16 13 44 19 74l83 427c6 30 12 58 10 74c-1 11 -50 16 -61 16c-3 5 0 24 6 29c38 -2 73 -5 109 -5s70 3 109 5c4 -5 0 -24 -5 -29c-11 0 -63 -5 -68 -16c-8 -16 -13 -44 -19 -74l-39 -203c22 13 78 59 124 99c88 77 89 76 145 137
c7 8 17 21 19 31c5 25 -39 25 -47 25c-2 6 1 21 6 30c34 -2 71 -6 105 -6c41 0 64 4 102 6c1 -6 -3 -30 -8 -30c-9 -1 -60 0 -99 -37c-98 -94 -160 -145 -257 -229c-7 -6 -5 -11 -2 -16c68 -112 124 -205 181 -278z" />
    <glyph glyph-name="L" unicode="L" horiz-adv-x="530" 
d="M166 112c-3 -15 -13 -67 -8 -72c10 -10 25 -10 64 -10h53c35 0 77 9 108 27c30 17 60 52 85 105c2 4 8 6 15 6c9 0 20 -3 22 -6c-28 -54 -68 -122 -83 -166c-101 0 -192 4 -316 4c-44 0 -75 -3 -111 -3c-4 5 1 24 6 29c11 0 62 5 67 16c8 16 13 44 19 74l83 427
c6 30 12 58 10 74c-1 11 -50 16 -61 16c-3 5 -1 24 5 29c38 -2 73 -5 109 -5s71 3 110 5c4 -5 -1 -24 -6 -29c-11 0 -62 -5 -67 -16c-8 -16 -13 -44 -19 -74z" />
    <glyph glyph-name="M" unicode="M" horiz-adv-x="838" 
d="M397 49c-5 -9 -34 -49 -45 -51c-3 -1 -5 1 -8 2l-114 584c-46 -218 -109 -499 -111 -509c-2 -9 -3 -23 -2 -31c3 -15 63 -18 70 -18c3 -6 -2 -26 -4 -29c-37 2 -56 5 -97 5c-43 0 -67 -3 -110 -5c-1 2 1 21 6 29c11 0 67 5 78 18s16 29 21 50c55 240 103 460 106 478
c3 14 6 29 4 40c-1 12 -50 21 -61 21c-2 6 2 26 6 29c29 -2 53 -4 90 -4c28 0 60 2 81 4c6 -63 101 -523 100 -523s225 403 225 403c26 46 64 120 64 120c29 -2 52 -4 70 -4c33 0 68 2 92 4c0 -3 -2 -29 -2 -29c-13 0 -63 -8 -70 -18c-5 -9 -10 -26 -12 -38l-76 -437
c-7 -39 -11 -73 -7 -97c2 -14 54 -17 61 -17c3 -9 -1 -26 -3 -29c-37 2 -69 5 -110 5c-43 0 -70 -3 -113 -5c-1 2 1 21 6 29c11 0 50 4 63 11c7 4 13 28 16 42s48 297 79 487c-13 -21 -293 -517 -293 -517z" />
    <glyph glyph-name="N" unicode="N" horiz-adv-x="732" 
d="M628 541c7 36 9 56 3 72c-5 14 -52 20 -67 20c-3 7 0 24 3 29c37 -2 61 -4 102 -4c43 0 61 2 104 4c2 -5 3 -18 -4 -29c-11 0 -66 -7 -75 -19c-11 -15 -15 -30 -22 -68l-79 -407c-11 -58 -17 -88 -25 -140c-3 -3 -14 -4 -17 -4c-8 0 -20 9 -27 23l-300 551l-88 -454
c-7 -36 -10 -53 -4 -69c4 -10 52 -20 67 -20c3 -7 -1 -23 -4 -29c-37 2 -63 5 -104 5c-43 0 -60 -3 -103 -5c-2 5 -1 18 6 29c11 0 67 8 76 20c11 15 16 30 23 68l84 434c7 38 9 53 4 68c-4 12 -57 17 -68 17c-3 11 1 24 5 29c42 -2 54 -4 85 -4c28 0 69 3 82 4
c32 -80 196 -345 269 -500z" />
    <glyph glyph-name="O" unicode="O" horiz-adv-x="710" 
d="M406 635c-126 0 -251 -157 -251 -367c0 -115 36 -250 173 -250c153 0 250 196 250 375c0 96 -31 242 -172 242zM415 665c158 0 257 -123 257 -283c0 -234 -161 -393 -353 -393c-162 0 -258 126 -258 284c0 230 172 392 354 392z" />
    <glyph glyph-name="P" unicode="P" horiz-adv-x="511" 
d="M523 508c0 -128 -111 -226 -233 -226c-21 0 -40 6 -45 10c-2 2 -8 11 -8 16c0 2 2 3 4 4c8 -4 24 -4 33 -4c74 0 160 74 160 186c0 56 -13 136 -116 136c-11 0 -43 -1 -48 -10c-7 -12 -13 -45 -19 -75l-84 -429c-6 -30 -11 -58 -9 -74c1 -11 50 -16 61 -16
c3 -5 0 -24 -6 -29c-38 2 -72 5 -108 5s-71 -3 -110 -5c-4 5 0 24 5 29c11 0 63 5 68 16c8 16 13 44 19 74l83 427c6 30 11 58 9 74c-1 11 -50 16 -61 16c-3 5 0 24 6 29c38 -2 75 -5 111 -5s52 2 107 2c106 0 181 -60 181 -151z" />
    <glyph glyph-name="Q" unicode="Q" horiz-adv-x="710" 
d="M415 665c158 0 257 -123 257 -283c0 -206 -125 -354 -286 -386c73 -43 98 -77 189 -77c37 0 84 11 91 13c7 0 19 -9 19 -13c-57 -29 -119 -55 -176 -55c-98 0 -166 99 -281 140c-106 38 -167 143 -167 269c0 230 172 392 354 392zM406 635c-126 0 -251 -157 -251 -367
c0 -115 36 -250 173 -250c153 0 250 196 250 375c0 96 -31 242 -172 242z" />
    <glyph glyph-name="R" unicode="R" horiz-adv-x="579" 
d="M553 -3c-82 0 -145 4 -169 50c-30 59 -73 157 -105 244c-3 9 -13 12 -26 12h-49l-36 -187c-6 -30 -12 -58 -10 -74c1 -11 50 -16 61 -16c3 -5 0 -24 -6 -29c-38 2 -71 5 -107 5s-72 -3 -111 -5c-4 5 0 24 5 29c11 0 63 5 68 16c8 16 13 44 19 74l83 427c6 30 11 58 9 74
c-1 11 -50 16 -61 16c-3 5 0 24 6 29c38 -2 76 -5 112 -5s77 2 132 2c85 0 156 -48 156 -141c0 -96 -87 -170 -164 -198c33 -90 81 -191 106 -234c23 -41 43 -56 93 -60c4 -5 -5 -27 -6 -29zM210 333h50c79 0 175 57 175 179c0 41 -13 118 -116 118c-11 0 -44 -1 -49 -10
c-7 -12 -13 -45 -19 -75z" />
    <glyph glyph-name="S" unicode="S" horiz-adv-x="472" 
d="M312 666c58 0 88 -12 137 -24c-3 -34 -15 -114 -21 -144c-1 -7 -7 -7 -10 -7c-4 0 -15 1 -21 7c5 80 -22 137 -93 137c-82 0 -124 -64 -124 -115c0 -82 62 -114 115 -156s126 -78 126 -171c0 -124 -120 -201 -228 -201c-57 0 -109 20 -147 42c-13 54 -14 138 -12 150
c3 4 18 6 25 6c5 0 8 -2 10 -6c0 -55 37 -162 136 -162c66 0 127 46 127 125c0 72 -45 107 -95 147c-60 48 -135 79 -135 182c0 115 117 190 210 190z" />
    <glyph glyph-name="T" unicode="T" horiz-adv-x="587" 
d="M550 655c15 0 47 9 59 15c10 5 13 5 18 2c-5 -61 -9 -119 -9 -172c-3 -3 -12 -8 -20 -7c-5 0 -11 2 -12 5c1 70 -18 122 -64 122h-118l-99 -504c-6 -30 -12 -58 -10 -74c1 -11 50 -16 61 -16c3 -5 1 -24 -5 -29c-38 2 -72 5 -108 5s-72 -3 -111 -5c-4 5 1 24 6 29
c11 0 62 5 67 16c8 16 13 44 19 74l99 504h-120c-46 0 -86 -52 -113 -122c-2 -3 -9 -5 -14 -5c-9 -1 -15 4 -17 7c21 53 40 111 58 172c6 3 15 0 20 -3c10 -6 35 -14 50 -14h363z" />
    <glyph glyph-name="U" unicode="U" horiz-adv-x="661" 
d="M218 657c36 0 71 3 110 5c4 -5 -1 -24 -6 -29c-11 0 -62 -5 -67 -16c-8 -16 -13 -44 -19 -74l-48 -247c-15 -78 -14 -137 5 -176c22 -44 62 -66 121 -66c96 0 169 48 205 220l53 271c7 36 10 53 4 69c-4 10 -48 20 -63 20c-3 7 1 23 4 29c37 -2 59 -5 100 -5
c43 0 59 3 102 5c2 -5 2 -18 -5 -29c-11 0 -68 -8 -77 -20c-11 -15 -15 -30 -22 -68l-53 -270c-39 -200 -134 -280 -279 -280c-70 0 -125 26 -158 72c-31 44 -42 106 -27 183l57 292c6 30 12 58 10 74c-1 11 -50 16 -61 16c-3 5 0 24 6 29c38 -2 72 -5 108 -5z" />
    <glyph glyph-name="V" unicode="V" horiz-adv-x="596" 
d="M175 657c41 0 78 3 116 5c1 -6 -3 -28 -7 -29c-7 0 -57 -5 -62 -33c-2 -10 -1 -35 4 -71c12 -89 59 -398 60 -401c4 5 225 396 225 396c14 23 24 52 27 70c6 32 -42 39 -53 39c-4 2 -1 24 5 29c34 -2 64 -5 98 -5c43 0 54 3 92 5c2 -5 -4 -29 -7 -29c-7 0 -45 -6 -65 -26
c-14 -14 -45 -63 -66 -101l-273 -474c-15 -27 -30 -34 -42 -34c-4 0 -5 12 -6 16c-29 178 -47 308 -79 500c-6 39 -13 70 -24 96c-7 16 -45 23 -56 23c-2 0 4 27 6 29c42 -2 64 -5 107 -5z" />
    <glyph glyph-name="W" unicode="W" horiz-adv-x="841" 
d="M172 657c41 0 75 3 113 5c1 -6 -4 -28 -8 -29c-7 0 -57 -5 -62 -33c-1 -6 0 -25 2 -55c5 -85 18 -251 30 -400l229 484c10 19 30 33 40 33c4 0 5 -5 8 -16c2 -22 35 -303 59 -502l171 380c11 24 21 52 24 70c6 32 -45 39 -56 39c-4 2 0 24 6 29c34 -2 65 -5 99 -5
c43 0 54 3 92 5c2 -5 -4 -29 -7 -29c-7 0 -43 -9 -65 -26c-15 -12 -29 -35 -48 -76l-233 -499c-8 -18 -30 -34 -42 -34c-4 0 -6 12 -6 16c-22 188 -37 303 -61 497l-228 -479c-8 -18 -29 -34 -41 -34c-4 0 -7 12 -7 16l-48 518c-3 40 -3 63 -17 81c-10 13 -40 20 -51 20
c-2 0 4 27 6 29c42 -2 58 -5 101 -5z" />
    <glyph glyph-name="X" unicode="X" horiz-adv-x="620" 
d="M224 657c46 0 82 3 120 5c1 -6 -2 -29 -7 -29c-13 0 -57 -6 -62 -32c-2 -8 0 -18 5 -30l74 -179c71 80 153 172 172 200c2 3 7 10 8 16s-9 24 -61 24c-4 1 0 22 4 29c37 -3 65 -5 99 -5c48 0 80 3 103 5c2 -5 -1 -23 -8 -29c-7 0 -57 -4 -90 -40l-213 -231l123 -295
c12 -29 52 -40 83 -40c3 -5 -4 -27 -5 -29c-37 2 -56 5 -94 5c-52 0 -85 -3 -137 -5c-4 5 0 29 5 29c10 0 56 9 60 28c1 3 -1 9 -2 12l-96 234c-71 -80 -177 -207 -199 -234c-2 -3 -7 -10 -8 -16s14 -24 66 -24c3 -6 -2 -26 -4 -29c-34 2 -70 5 -104 5c-48 0 -77 -3 -115 -5
c-2 6 5 26 7 29c7 0 71 4 104 40l237 266l-89 216c-14 36 -25 53 -48 69c-14 10 -38 16 -49 16c-5 0 0 24 6 29c45 -2 69 -5 115 -5z" />
    <glyph glyph-name="Y" unicode="Y" horiz-adv-x="556" 
d="M211 116l29 151c1 7 2 18 -1 28l-83 253c-12 37 -25 53 -48 69c-14 10 -38 16 -49 16c-5 0 0 24 6 29c45 -2 69 -5 115 -5s82 3 120 5c1 -6 -2 -29 -7 -29c-13 0 -57 -6 -62 -32c-2 -8 1 -17 5 -30l81 -240c63 88 158 230 175 261c2 3 5 9 6 15s-11 25 -63 25
c-3 3 1 25 4 29c34 -2 59 -5 93 -5c48 0 65 3 103 5c0 -3 -5 -29 -8 -29c-7 0 -60 0 -89 -40l-205 -291c-8 -11 -8 -22 -10 -31l-31 -154c-6 -30 -12 -58 -10 -74c1 -11 50 -16 61 -16c3 -5 1 -24 -5 -29c-38 2 -72 5 -108 5s-72 -3 -111 -5c-4 5 1 24 6 29c11 0 62 5 67 16
c8 16 13 44 19 74z" />
    <glyph glyph-name="Z" unicode="Z" horiz-adv-x="602" 
d="M279 629c-63 0 -118 -55 -154 -137c-2 -3 -6 -4 -11 -4c-8 0 -21 5 -23 8c25 46 45 105 64 173c19 -3 50 -8 75 -8h181c78 0 118 4 197 10c4 -1 14 -14 12 -22c-3 -8 -308 -379 -517 -617h244c47 0 85 26 110 53c26 28 42 62 56 87c1 2 8 3 13 3c9 0 18 -5 21 -9
c-38 -79 -54 -116 -73 -166h-470c-10 0 -19 8 -14 14l518 616z" />
    <glyph glyph-name="bracketleft" unicode="[" horiz-adv-x="260" 
d="M161 717c0 1 6 23 23 23c75 0 135 9 150 9c2 0 5 0 5 -6c0 -22 -23 -36 -24 -37c0 0 -46 -11 -96 -11c-6 0 -8 -8 -8 -8l-144 -736s-1 -7 5 -8c36 -4 81 -18 93 -25c2 -1 13 -12 13 -21c0 -11 -7 -15 -7 -15s-81 16 -157 16c-4 0 -8 4 -7 11c54 278 154 808 154 808z" />
    <glyph glyph-name="backslash" unicode="\" horiz-adv-x="368" 
d="M290 -4c3 -16 -16 -36 -27 -36c-4 0 -8 0 -12 3c-52 306 -136 792 -136 792c2 3 8 7 14 7c21 0 35 -27 37 -37z" />
    <glyph glyph-name="bracketright" unicode="]" horiz-adv-x="258" 
d="M109 749c2 0 71 -9 148 -9c11 0 13 -8 13 -15c0 -4 0 -5 -1 -8l-154 -796c0 -1 -5 -23 -22 -23c-76 0 -147 -12 -147 -12s-4 3 -4 9c0 15 15 26 20 31c23 8 56 17 96 17c6 0 9 8 9 8l143 736s1 8 -5 8c-50 0 -92 11 -92 11c-2 2 -12 7 -12 22c0 9 3 21 8 21z" />
    <glyph glyph-name="asciicircum" unicode="^" horiz-adv-x="303" 
d="M13 499c9 15 91 66 161 178c6 10 5 13 12 13c22 0 10 -20 51 -102c15 -30 58 -83 59 -88c-2 -8 -10 -25 -17 -25c-20 0 -89 89 -107 122c-49 -57 -140 -122 -151 -122c-8 0 -8 16 -8 24z" />
    <glyph glyph-name="underscore" unicode="_" horiz-adv-x="475" 
d="M-39 -37c0 5 16 50 24 50h414c3 0 6 -1 6 -4c0 -4 -8 -24 -18 -46c-3 -6 -6 -6 -6 -6h-415s-5 0 -5 6z" />
    <glyph glyph-name="grave" unicode="`" horiz-adv-x="201" 
d="M183 490c-15 0 -163 82 -163 101c0 23 26 30 39 30c15 0 27 -3 37 -10c13 -9 95 -103 95 -111c0 -3 -5 -10 -8 -10z" />
    <glyph glyph-name="a" unicode="a" 
d="M305 435c35 0 59 -6 78 -13l-61 -316c-3 -12 -11 -57 6 -57c21 0 67 55 70 58c3 0 10 -13 10 -19c-11 -19 -84 -94 -131 -94c-21 0 -34 22 -34 52c0 8 3 32 7 53c3 18 4 24 5 31c-20 -36 -89 -135 -147 -135c-54 0 -89 48 -89 118c0 174 164 322 286 322zM259 395
c-77 0 -166 -129 -166 -244c0 -62 16 -98 51 -98c50 0 121 125 140 221l21 106c-9 10 -33 15 -46 15z" />
    <glyph glyph-name="b" unicode="b" horiz-adv-x="429" 
d="M275 380c-43 0 -136 -114 -157 -224c-16 -81 -1 -129 46 -129c84 0 150 194 150 275c0 37 -4 78 -39 78zM143 285c70 117 143 150 175 150c46 0 70 -44 70 -113c0 -180 -145 -328 -252 -328c-56 0 -93 43 -93 117c0 10 4 35 6 47l79 401c4 18 9 42 9 53
c0 19 -45 19 -61 19c-3 4 0 17 4 21c55 5 110 25 132 33c5 -3 6 -13 6 -19c0 -8 -8 -50 -13 -75z" />
    <glyph glyph-name="c" unicode="c" horiz-adv-x="359" 
d="M275 435c32 0 49 -14 62 -25c3 -4 9 -16 9 -27c0 -23 -11 -45 -34 -45c-14 0 -29 8 -36 20c-10 16 -23 36 -52 36c-55 0 -122 -98 -122 -232c0 -35 6 -109 69 -109c45 0 100 66 103 69c3 0 12 -14 12 -20c-11 -19 -88 -108 -151 -108c-71 0 -111 53 -111 146
c0 160 148 295 251 295z" />
    <glyph glyph-name="d" unicode="d" 
d="M296 341c4 23 -8 54 -35 54c-81 0 -168 -130 -168 -245c0 -55 14 -97 51 -97c51 0 121 126 140 223zM339 559c3 18 9 42 9 53c0 19 -45 19 -61 19c-3 4 0 17 4 21c55 5 110 25 132 33c5 -3 6 -13 6 -19c0 -8 -8 -50 -13 -75l-94 -485c-1 -4 -4 -28 -4 -33
c0 -9 0 -24 10 -24c21 0 67 55 70 58c3 0 10 -13 10 -19c-11 -19 -84 -94 -131 -94c-21 0 -34 22 -34 52c0 8 3 32 7 53c4 19 4 24 5 31c-15 -30 -88 -135 -148 -135c-62 0 -88 63 -88 121c0 157 154 319 284 319c25 0 7 0 13 0z" />
    <glyph glyph-name="e" unicode="e" horiz-adv-x="363" 
d="M274 435c51 0 66 -32 66 -62c0 -96 -175 -180 -237 -180c-1 -3 -2 -27 -2 -32c0 -61 19 -108 69 -108c45 0 100 66 103 69c3 0 12 -14 12 -20c-13 -22 -89 -108 -152 -108c-71 0 -110 52 -110 145c0 148 136 296 251 296zM105 218c39 0 161 62 161 136
c0 27 -23 40 -42 40c-69 0 -114 -125 -119 -176z" />
    <glyph glyph-name="f" unicode="f" horiz-adv-x="296" 
d="M336 685c29 0 47 -12 54 -25v-9c-2 -23 -11 -47 -30 -47c-17 0 -27 11 -38 23c-7 7 -15 15 -29 15c-39 0 -59 -70 -90 -229h100c4 0 5 -7 5 -12c0 -10 -4 -17 -9 -25h-103s-35 -207 -59 -333c-32 -164 -127 -276 -207 -276c-29 0 -47 12 -54 25c0 5 0 11 1 16
c3 21 12 40 29 40s27 -11 38 -23c7 -7 15 -15 29 -15c39 0 59 70 90 229l60 337h-85c-1 0 -2 1 -2 3c0 10 23 34 46 34h47c32 164 127 272 207 272z" />
    <glyph glyph-name="g" unicode="g" horiz-adv-x="412" 
d="M278 -118c0 63 -93 94 -151 112c-40 -17 -101 -48 -101 -104c0 -67 65 -88 143 -88c67 0 109 38 109 80zM212 407c-64 0 -98 -91 -98 -160c0 -49 20 -96 62 -96c65 0 97 81 97 143c0 49 -22 113 -61 113zM333 381c1 -6 14 -42 14 -69c0 -106 -71 -155 -91 -167
c-35 -21 -115 -40 -115 -63c0 -33 201 -43 201 -160c0 -95 -91 -155 -234 -155c-90 0 -156 36 -156 98c0 69 85 114 144 141l-18 12c-12 8 -25 18 -25 36c0 25 67 60 100 68c-32 0 -113 38 -113 117c0 113 96 197 189 197c38 0 60 -10 85 -22c14 -7 50 13 63 15
c13 -4 41 -22 41 -35c0 -7 -4 -14 -12 -14c-14 0 -60 2 -73 1z" />
    <glyph glyph-name="h" unicode="h" horiz-adv-x="470" 
d="M207 591l-51 -261l-18 -92c13 25 133 197 199 197c39 0 55 -28 55 -66c0 -34 -6 -71 -14 -109l-33 -154c-1 -4 -4 -27 -4 -32c0 -9 0 -25 10 -25c21 0 67 55 70 58c3 0 10 -13 10 -19c-11 -19 -84 -94 -131 -94c-22 0 -34 22 -34 52c0 8 2 32 7 53l35 165c2 9 7 43 7 54
c0 23 -2 43 -19 43c-36 0 -156 -125 -179 -242c-6 -31 -15 -73 -25 -119c-10 -3 -26 -4 -36 -4s-22 1 -34 4l108 559c3 18 9 42 9 53c0 19 -45 19 -61 19c-3 4 0 17 4 21c55 5 110 25 132 33c5 -3 6 -13 6 -19c0 -8 -8 -50 -13 -75z" />
    <glyph glyph-name="i" unicode="i" horiz-adv-x="262" 
d="M111 323c1 6 4 27 4 32c0 9 0 25 -10 25c-21 0 -67 -55 -70 -58c-3 0 -10 13 -10 19c11 19 79 94 126 94c21 0 39 -22 39 -52c0 -8 -3 -32 -7 -53l-51 -224c-2 -10 -4 -27 -4 -32c0 -9 0 -25 10 -25c21 0 67 55 70 58c3 0 10 -13 10 -19c-11 -19 -84 -94 -131 -94
c-21 0 -34 22 -34 52c0 8 3 32 7 53zM168 646c21 0 36 -19 36 -40c0 -31 -23 -60 -54 -60c-22 0 -34 21 -34 43c0 30 22 57 52 57z" />
    <glyph glyph-name="j" unicode="j" horiz-adv-x="249" 
d="M117 323c1 6 4 27 4 32c0 9 0 25 -10 25c-21 0 -67 -55 -70 -58c-3 0 -10 13 -10 19c11 19 79 94 126 94c21 0 39 -22 39 -52c0 -8 -3 -32 -7 -53l-55 -285c-7 -36 -28 -112 -71 -169c-42 -55 -104 -97 -139 -111c-4 3 -9 13 -9 20c67 38 120 126 142 237zM185 646
c21 0 36 -19 36 -40c0 -31 -23 -60 -54 -60c-22 0 -34 21 -34 43c0 30 22 57 52 57z" />
    <glyph glyph-name="k" unicode="k" horiz-adv-x="460" 
d="M325 435c39 0 75 -29 75 -68c0 -91 -100 -137 -211 -156c88 -132 116 -160 157 -160c17 0 57 42 68 56c3 0 10 -14 10 -19c-8 -14 -78 -92 -122 -92c-79 0 -129 123 -172 195l-37 -191c-11 -3 -24 -5 -35 -5s-24 2 -36 5l109 559c4 18 9 42 9 53c0 19 -45 19 -61 19
c-3 4 0 17 4 21c55 5 110 25 132 33c5 -3 6 -13 6 -19c0 -8 -8 -50 -13 -75l-52 -269c5 4 83 113 169 113zM289 388c-58 0 -139 -97 -151 -158c67 0 184 41 184 124c0 18 -5 34 -33 34z" />
    <glyph glyph-name="l" unicode="l" horiz-adv-x="243" 
d="M134 559c4 18 9 42 9 53c0 19 -45 19 -61 19c-3 4 0 17 4 21c55 5 110 25 132 33c5 -3 6 -13 6 -19c0 -8 -8 -50 -13 -75l-95 -485c-1 -4 -4 -27 -4 -32c0 -9 0 -25 10 -25c21 0 67 55 70 58c3 0 10 -13 10 -19c-11 -19 -84 -94 -131 -94c-22 0 -34 22 -34 52
c0 8 3 32 7 53z" />
    <glyph glyph-name="m" unicode="m" horiz-adv-x="714" 
d="M517 99l35 165c2 9 7 43 7 54c0 26 -1 43 -19 43c-40 0 -155 -128 -174 -229l-25 -132c-14 -2 -23 -3 -37 -3s-22 1 -35 3l56 284c3 16 4 29 4 38c0 26 -7 39 -20 39c-45 0 -151 -143 -171 -239l-25 -122c-11 -3 -22 -4 -36 -4s-23 2 -35 4l66 323c1 6 4 27 4 32
c0 9 0 25 -10 25c-21 0 -67 -55 -70 -58c-3 0 -10 13 -10 19c11 19 79 94 126 94c21 0 39 -22 39 -52c0 -8 -4 -32 -8 -53c-7 -36 -12 -57 -20 -93c36 63 126 198 178 198c58 0 67 -51 67 -95c0 -24 -8 -72 -14 -89c36 63 132 184 184 184c46 0 62 -25 62 -66
c0 -34 -7 -77 -14 -109l-33 -154c-2 -10 -4 -27 -4 -32c0 -9 0 -25 10 -25c21 0 67 55 70 58c3 0 10 -13 10 -19c-11 -19 -84 -94 -131 -94c-21 0 -34 22 -34 52c0 8 3 32 7 53z" />
    <glyph glyph-name="n" unicode="n" horiz-adv-x="497" 
d="M179 330l-18 -84c13 25 129 189 196 189c46 0 62 -25 62 -66c0 -31 -7 -75 -14 -109l-33 -154c-2 -10 -4 -27 -4 -32c0 -9 0 -25 10 -25c21 0 67 55 70 58c3 0 10 -13 10 -19c-11 -19 -84 -94 -131 -94c-21 0 -34 22 -34 52c0 8 3 32 7 53l35 165c2 9 7 43 7 54
c0 26 -1 43 -19 43c-37 0 -161 -114 -185 -239c-9 -48 -15 -74 -25 -122c-12 -3 -22 -4 -36 -4s-23 1 -35 4l66 323c1 6 4 27 4 32c0 9 0 25 -10 25c-21 0 -67 -55 -70 -58c-3 0 -10 13 -10 19c11 19 79 94 126 94c21 0 39 -22 39 -52c0 -8 -3 -32 -8 -53z" />
    <glyph glyph-name="o" unicode="o" horiz-adv-x="414" 
d="M237 403c-84 0 -135 -145 -135 -245c0 -80 21 -131 57 -131c83 0 131 146 131 246c0 80 -17 130 -53 130zM251 435c80 0 117 -61 117 -147c0 -140 -113 -293 -228 -293c-80 0 -116 57 -116 143c0 140 112 297 227 297z" />
    <glyph glyph-name="p" unicode="p" horiz-adv-x="448" 
d="M280 380c-33 0 -91 -42 -118 -80l-33 -169c-11 -59 17 -101 47 -101c85 0 157 154 157 273c0 55 -21 77 -53 77zM320 435c64 0 87 -51 87 -121c0 -155 -130 -319 -252 -319c-17 0 -40 3 -46 13l-33 -153c-2 -9 -3 -18 -3 -28c0 -5 4 -20 14 -23c17 -4 44 -3 47 -3
c4 -1 2 -26 -3 -28c-13 0 -24 1 -35 1c-51 0 -90 -2 -148 -9c-5 1 -4 26 1 29c18 0 31 5 40 16c7 9 11 20 16 43l79 397l-48 -48c-4 5 -6 15 -6 20c0 4 2 6 3 7l59 63l26 141c11 3 27 4 38 4s22 -2 32 -7c-4 -19 -15 -77 -16 -84c27 25 97 89 148 89z" />
    <glyph glyph-name="q" unicode="q" horiz-adv-x="426" 
d="M317 -228c-14 0 -27 1 -40 1c-58 0 -113 -4 -150 -8c-2 2 -3 27 3 27c29 3 63 11 68 37l56 301c-20 -36 -89 -135 -147 -135c-62 0 -88 63 -88 121c0 157 154 319 284 319c35 0 60 -6 79 -13l-61 -316c-1 -4 -46 -256 -46 -256c-1 -8 -2 -15 -2 -21c0 -14 2 -30 46 -30
c4 0 3 -24 -2 -27zM296 341c4 23 -8 54 -35 54c-81 0 -168 -130 -168 -245c0 -55 14 -97 51 -97c51 0 121 126 140 223z" />
    <glyph glyph-name="r" unicode="r" horiz-adv-x="356" 
d="M307 435c22 0 40 -11 49 -21c4 -5 9 -18 9 -28c0 -26 -13 -44 -36 -44c-9 0 -22 6 -30 15c-4 5 -12 8 -20 8c-36 0 -120 -139 -139 -243l-22 -122c-11 -2 -23 -3 -34 -3c-13 0 -25 1 -37 3l60 323c1 6 4 27 4 32c0 9 0 25 -10 25c-21 0 -67 -55 -70 -58
c-3 0 -10 13 -10 19c11 19 79 94 126 94c21 0 39 -22 39 -52c0 -8 -4 -32 -8 -53c-6 -33 -10 -51 -17 -84c28 67 99 189 146 189z" />
    <glyph glyph-name="s" unicode="s" horiz-adv-x="322" 
d="M199 438c40 0 65 -9 86 -27c5 -7 10 -25 10 -32c0 -23 -14 -41 -34 -41c-18 0 -34 17 -47 35c-11 16 -18 31 -47 31c-35 0 -49 -35 -49 -56c0 -40 35 -71 66 -106c31 -36 61 -75 61 -125c0 -74 -61 -123 -145 -123c-31 0 -62 8 -88 30c-3 5 -10 20 -10 30
c0 29 17 46 37 46s28 -24 43 -45c11 -15 26 -29 53 -29c40 0 49 37 49 58c0 35 -26 62 -52 92c-35 39 -72 79 -72 136c0 56 55 126 139 126z" />
    <glyph glyph-name="t" unicode="t" horiz-adv-x="278" 
d="M117 413l11 59c11 14 57 66 65 66c6 0 13 -3 17 -6l-22 -119h75c4 0 5 -7 5 -12c0 -10 -4 -17 -9 -25h-78l-53 -270c-2 -10 -4 -27 -4 -32c0 -9 0 -25 10 -25c21 0 67 55 70 58c3 0 10 -13 10 -19c-11 -19 -84 -94 -131 -94c-21 0 -34 22 -34 52c0 8 3 32 7 53l54 277
h-67c-1 0 -2 1 -2 3c0 10 23 34 46 34h30z" />
    <glyph glyph-name="u" unicode="u" horiz-adv-x="491" 
d="M292 99c6 34 11 53 18 87c-26 -56 -135 -192 -201 -192c-39 0 -50 34 -50 72c0 28 8 74 14 103l33 154c1 6 4 27 4 32c0 9 0 25 -10 25c-21 0 -67 -55 -70 -58c-3 0 -10 13 -10 19c11 19 79 94 126 94c21 0 39 -22 39 -52c0 -8 -3 -32 -7 -53l-35 -165
c-2 -9 -7 -43 -7 -54c0 -23 2 -43 19 -43c36 0 155 126 179 251c8 41 14 68 22 110c10 3 21 4 31 4s27 -1 39 -4l-62 -323c-2 -10 -4 -27 -4 -32c0 -9 0 -25 10 -25c21 0 67 55 70 58c3 0 10 -13 10 -19c-11 -19 -84 -94 -131 -94c-21 0 -34 22 -34 52c0 8 3 32 7 53z" />
    <glyph glyph-name="v" unicode="v" horiz-adv-x="439" 
d="M186 65c71 61 97 99 128 161c18 36 25 84 25 107c0 21 -9 46 -26 63c6 17 23 39 47 39c38 0 55 -34 55 -80c0 -126 -231 -361 -300 -361c-7 8 -8 124 -8 154v207c0 9 0 25 -10 25c-21 0 -67 -55 -70 -58c-3 0 -10 13 -10 19c11 19 79 94 126 94c21 0 39 -24 39 -54v-53
v-152c0 -43 1 -90 4 -111z" />
    <glyph glyph-name="w" unicode="w" horiz-adv-x="629" 
d="M385 375c1 -41 3 -129 6 -192c2 -43 5 -91 15 -107c53 46 84 89 107 153c14 38 14 81 14 104c0 21 -9 46 -26 63c6 17 23 39 47 39c38 0 55 -34 55 -80c0 -126 -195 -361 -264 -361c-7 8 -19 126 -20 156c-1 26 -2 64 -2 64c-67 -96 -160 -220 -202 -220
c-7 8 -8 124 -8 154v207c0 9 0 25 -10 25c-21 0 -67 -55 -70 -58c-3 0 -10 13 -10 19c11 19 79 94 126 94c21 0 39 -24 39 -54v-53v-152c0 -43 1 -65 4 -86c45 48 95 133 113 165c24 44 34 71 43 92c8 10 30 25 43 28z" />
    <glyph glyph-name="x" unicode="x" horiz-adv-x="482" 
d="M295 89c4 -21 13 -37 35 -37c17 0 62 41 73 55c3 0 10 -14 10 -19c-8 -14 -78 -92 -122 -92c-31 0 -58 33 -69 86l-17 86c-49 -97 -77 -173 -132 -173c-14 0 -31 2 -47 12c-6 8 -11 19 -11 34c0 24 14 44 37 44c20 0 25 -27 46 -29c15 -1 23 11 30 23c27 46 44 77 69 125
l-28 138c-4 21 -14 38 -32 38c-20 0 -65 -42 -76 -56c-3 0 -10 14 -10 19c8 14 78 92 122 92c31 0 58 -32 69 -86l14 -68c44 88 71 154 122 154c14 0 31 -2 47 -12c6 -8 11 -19 11 -34c0 -24 -14 -44 -37 -44c-20 0 -25 27 -46 29c-15 1 -23 -11 -30 -23
c-23 -40 -40 -68 -60 -107z" />
    <glyph glyph-name="y" unicode="y" horiz-adv-x="447" 
d="M132 435c86 0 89 -359 89 -420c36 44 115 161 115 270c0 61 -14 86 -25 107c8 26 26 43 50 43c42 0 44 -57 44 -79c0 -234 -321 -589 -456 -589c-36 0 -60 19 -60 41c0 17 8 36 23 44c15 -9 58 -19 80 -19c62 0 103 35 136 83c23 34 18 103 18 146c0 114 -11 318 -60 318
c-21 0 -67 -55 -70 -58c-3 0 -10 13 -10 19c11 19 79 94 126 94z" />
    <glyph glyph-name="z" unicode="z" horiz-adv-x="387" 
d="M145 435c29 0 52 -11 77 -20c17 -6 35 -11 56 -11c37 0 82 31 90 31c8 -4 11 -13 11 -20c0 -14 -284 -319 -287 -323c4 2 24 11 46 11s43 -8 62 -17c19 -8 37 -17 53 -17c26 0 52 58 58 67c9 0 11 -8 12 -16c-17 -38 -58 -120 -105 -120c-24 0 -54 12 -80 22
c-16 6 -48 10 -71 10c-29 0 -46 -22 -66 -32c-6 2 -10 10 -11 19c0 15 300 330 302 334c-3 -2 -30 -21 -63 -21c-22 0 -42 9 -61 17c-19 9 -37 17 -54 17c-28 0 -53 -59 -59 -68c-7 0 -11 7 -12 16c6 20 56 121 102 121z" />
    <glyph glyph-name="braceleft" unicode="{" horiz-adv-x="210" 
d="M128 402c5 26 -2 50 -7 75c-6 26 -11 52 -5 83c19 97 91 162 134 179c7 0 14 -10 12 -19c-28 -13 -86 -61 -96 -112c-7 -38 0 -63 6 -91c6 -25 11 -53 3 -93c-13 -65 -64 -107 -90 -117c22 -10 58 -52 45 -117c-8 -40 -24 -68 -40 -93c-17 -28 -34 -53 -41 -91
c-10 -51 29 -99 52 -112c-2 -9 -12 -19 -19 -19c-37 17 -83 82 -64 179c6 31 21 57 37 83c15 25 31 49 36 75c10 53 -20 74 -54 84c-1 2 -1 7 0 11s2 9 4 11c38 10 77 31 87 84z" />
    <glyph glyph-name="bar" unicode="|" horiz-adv-x="207" 
d="M169 757c10 10 26 16 44 16c7 0 16 -3 15 -7l-168 -872c-7 -8 -27 -17 -46 -17c-6 0 -15 3 -14 8z" />
    <glyph glyph-name="braceright" unicode="}" horiz-adv-x="212" 
d="M143 739c37 -17 84 -82 65 -179c-6 -31 -21 -57 -37 -83c-15 -25 -31 -49 -36 -75c-10 -53 20 -74 54 -84c1 -2 1 -7 0 -11c-1 -5 -2 -8 -4 -11c-38 -10 -77 -31 -87 -84c-5 -26 2 -50 7 -75c6 -26 11 -52 5 -83c-19 -97 -92 -162 -135 -179c-7 0 -13 10 -11 19
c28 13 86 61 96 112c7 38 0 63 -6 91c-6 25 -11 53 -3 93c13 65 64 107 90 117c-22 10 -58 52 -45 117c8 40 24 68 40 93c17 28 34 53 41 91c10 51 -29 99 -52 112c2 9 11 19 18 19z" />
    <glyph glyph-name="asciitilde" unicode="~" horiz-adv-x="545" 
d="M197 354c88 0 120 -53 208 -53c36 0 62 21 93 44c2 -2 6 -4 6 -10c0 -30 -64 -85 -135 -85c-88 0 -123 53 -211 53c-36 0 -62 -21 -93 -44c-2 2 -6 4 -6 10c0 39 83 85 138 85z" />
    <glyph glyph-name="uni00A0" unicode="&#xa0;" horiz-adv-x="227" 
 />
    <glyph glyph-name="exclamdown" unicode="&#xa1;" horiz-adv-x="203" 
d="M0 -269c-25 0 -37 21 -37 46s5 30 119 479c3 12 10 25 16 22c13 -7 17 -11 17 -21c0 0 -60 -456 -61 -463c-6 -31 -25 -63 -54 -63zM71 369c0 37 32 71 65 71c26 0 43 -21 43 -47c0 -38 -32 -69 -65 -69c-26 0 -43 19 -43 45z" />
    <glyph glyph-name="cent" unicode="&#xa2;" horiz-adv-x="358" 
d="M254 474c7 0 32 -1 31 -8l-176 -511c-8 0 -32 2 -31 9zM269 435c32 0 49 -14 62 -25c3 -4 9 -16 9 -27c0 -23 -11 -45 -34 -45c-14 0 -29 8 -36 20c-10 16 -23 36 -52 36c-55 0 -122 -98 -122 -232c0 -35 6 -109 69 -109c45 0 100 66 103 69c3 0 12 -14 12 -20
c-11 -19 -88 -108 -151 -108c-71 0 -111 53 -111 146c0 160 148 295 251 295z" />
    <glyph glyph-name="sterling" unicode="&#xa3;" horiz-adv-x="447" 
d="M172 248c-15 -75 -55 -130 -85 -160c18 7 34 5 75 5c50 0 104 -32 140 -32c41 0 65 50 82 73c4 0 9 -7 9 -17c0 -4 -1 -7 -2 -9c-20 -37 -66 -116 -132 -116c-60 0 -124 37 -170 37c-29 0 -58 -22 -77 -38c-12 0 -15 13 -14 19c21 30 38 46 58 72c22 46 34 99 45 155
c3 12 4 27 5 43h-56c-5 13 7 29 17 39h42c2 32 4 67 10 98c24 126 120 218 220 218c35 0 54 -13 64 -37c0 -25 -15 -59 -39 -59c-38 0 -32 54 -70 54c-63 0 -87 -75 -100 -143c-7 -36 -10 -87 -14 -131h131c4 0 -5 -32 -17 -39h-118c-1 -12 -2 -23 -4 -32z" />
    <glyph glyph-name="currency" unicode="&#xa4;" horiz-adv-x="504" 
d="M237 152c68 0 126 97 126 189c0 70 -33 122 -82 122c-68 0 -127 -98 -127 -190c0 -70 34 -121 83 -121zM392 455l66 55c1 1 3 1 4 1c10 0 24 -24 26 -45l-67 -56c7 -19 11 -40 11 -63c0 -65 -32 -119 -56 -148l39 -58c0 -1 1 -1 1 -2c0 -10 -28 -33 -50 -39l-37 55
c-32 -22 -69 -35 -106 -35c-40 0 -74 15 -98 40l-59 -50c-1 -1 -3 -1 -4 -1c-10 0 -24 24 -26 45l60 51c-8 19 -12 40 -12 63c0 62 30 120 62 155l-37 56c0 1 -1 1 -1 2c0 10 28 33 50 39l37 -55c31 20 66 31 101 31c40 0 72 -15 96 -41z" />
    <glyph glyph-name="yen" unicode="&#xa5;" horiz-adv-x="592" 
d="M173 216c-3 0 -4 4 -4 8c0 7 6 24 13 30h246c2 0 3 -3 3 -7c0 -5 -3 -22 -12 -31h-246zM158 138c-3 0 -4 4 -4 8c0 7 6 24 13 30h246c2 0 3 -3 3 -7c0 -5 -3 -22 -12 -31h-246zM233 111l28 144c1 7 2 17 -1 27l-80 241c-12 35 -23 51 -45 66c-13 10 -36 15 -47 15
c-5 0 -1 23 5 28c43 -2 66 -5 110 -5s79 3 115 5c1 -6 -2 -28 -7 -28c-12 0 -54 -5 -59 -30c-2 -8 1 -17 5 -29l76 -229c60 84 150 220 166 249c2 3 5 8 6 14s-10 24 -60 24c-3 3 1 24 4 28c32 -2 58 -5 90 -5c46 0 63 3 99 5c0 -3 -5 -28 -8 -28c-7 0 -57 0 -85 -38
l-196 -278c-8 -11 -7 -20 -9 -29l-30 -147c-6 -29 -11 -56 -9 -71c1 -11 47 -15 58 -15c3 -5 1 -23 -5 -28c-36 2 -69 5 -103 5s-69 -3 -106 -5c-4 5 1 23 6 28c11 0 59 4 64 15c8 15 12 42 18 71z" />
    <glyph glyph-name="brokenbar" unicode="&#xa6;" horiz-adv-x="211" 
d="M170 754c10 10 26 16 44 16c7 0 16 -3 15 -7l-69 -363c-7 -8 -26 -17 -45 -17c-6 0 -16 3 -15 8zM72 248c10 10 26 16 44 16c7 0 16 -3 15 -7l-69 -363c-7 -8 -27 -17 -46 -17c-6 0 -15 3 -14 8z" />
    <glyph glyph-name="section" unicode="&#xa7;" horiz-adv-x="395" 
d="M249 51c21 28 36 48 43 84c16 83 -24 150 -65 200c-36 44 -90 100 -76 172c1 6 3 11 4 17c-21 -28 -36 -48 -43 -84c-16 -83 24 -150 65 -200c36 -44 90 -100 76 -172c-1 -6 -3 -11 -4 -17zM198 -25c-33 -26 -86 -53 -144 -53c-13 0 -25 2 -37 8c-3 10 -1 20 0 26
c3 14 25 36 40 36c16 0 23 -7 31 -12c7 -4 14 -8 28 -8c29 0 79 16 86 54c9 46 -46 123 -81 166c-39 48 -85 118 -68 204c13 67 75 145 153 204c38 29 86 53 144 53c13 0 25 -2 37 -8c3 -10 1 -20 0 -26c-3 -14 -25 -36 -40 -36c-16 0 -23 7 -31 12c-7 4 -15 8 -29 8
c-29 0 -78 -16 -85 -54c-9 -46 46 -123 81 -166c39 -48 85 -118 68 -204c-13 -67 -84 -152 -153 -204z" />
    <glyph glyph-name="dieresis" unicode="&#xa8;" horiz-adv-x="285" 
d="M241 592c23 0 38 -22 33 -47s-29 -45 -52 -45s-40 21 -35 46s31 46 54 46zM70 592c23 0 39 -22 34 -47s-29 -45 -52 -45s-40 21 -35 46s30 46 53 46z" />
    <glyph glyph-name="copyright" unicode="&#xa9;" horiz-adv-x="603" 
d="M342 483c28 0 71 -6 100 -19c1 -2 2 -5 2 -8c1 -14 1 -41 1 -50c0 -11 -13 -12 -16 -12c-2 0 -5 1 -6 2c0 13 -10 53 -76 53c-55 0 -113 -59 -113 -134c0 -60 41 -88 78 -88c76 0 83 40 91 52c0 0 2 1 4 1c6 0 14 -4 14 -4c-1 -3 -24 -59 -31 -62
c-32 -13 -63 -19 -102 -19c-65 0 -109 47 -109 112c0 87 75 176 163 176zM369 615c122 0 206 -93 206 -217c0 -173 -154 -329 -313 -329c-122 0 -205 93 -205 217c0 173 153 329 312 329zM363 584c-139 0 -276 -138 -276 -292c0 -109 74 -192 182 -192
c139 0 277 138 277 291c0 110 -75 193 -183 193z" />
    <glyph glyph-name="ordfeminine" unicode="&#xaa;" horiz-adv-x="380" 
d="M257 249c-16 0 -26 16 -26 37c0 6 2 22 5 37c2 13 4 16 5 21c-16 -25 -70 -94 -114 -94c-42 0 -68 33 -68 82c0 121 127 225 220 225c27 0 45 -4 60 -9l-47 -221c-1 -3 -3 -19 -3 -22c0 -6 0 -17 7 -17c16 0 53 38 55 40c2 0 7 -9 7 -13c-8 -13 -65 -66 -101 -66z
M244 529c-59 0 -128 -90 -128 -170c0 -43 12 -69 39 -69c39 0 93 88 108 155l16 74c-7 7 -25 10 -35 10z" />
    <glyph glyph-name="guillemotleft" unicode="&#xab;" horiz-adv-x="484" 
d="M400 91c-5 -9 -15 -15 -21 -18c-30 39 -102 109 -162 155c-6 4 -10 8 -10 14c0 11 8 20 15 24c111 63 153 102 224 157c4 -1 16 -6 18 -15c-5 -12 -168 -159 -168 -159s104 -150 104 -158zM220 91c-5 -9 -15 -15 -21 -18c-30 39 -102 109 -162 155c-6 4 -10 8 -10 14
c0 11 8 20 15 24c111 63 153 102 224 157c4 -1 16 -6 18 -15c-5 -12 -168 -159 -168 -159s104 -150 104 -158z" />
    <glyph glyph-name="logicalnot" unicode="&#xac;" horiz-adv-x="540" 
d="M70 357h423l-47 -242c-3 -3 -21 -12 -35 -12c-6 0 -15 2 -14 8l37 203h-382s-3 8 -3 14c0 17 12 29 21 29z" />
    <glyph glyph-name="uni00AD" unicode="&#xad;" horiz-adv-x="370" 
d="M73 261l227 12c5 0 6 -7 6 -12c0 -13 -13 -50 -23 -51l-226 -11c-3 0 -5 7 -5 15c0 11 10 46 21 47z" />
    <glyph glyph-name="registered" unicode="&#xae;" horiz-adv-x="603" 
d="M344 529c-29 0 -33 -4 -34 -10l-14 -75c0 -2 -2 -3 -2 -4c0 -11 23 -12 38 -12c31 0 50 32 50 63c0 28 -17 38 -38 38zM354 554c38 0 74 -20 74 -61c0 -38 -24 -62 -58 -79c-1 -1 -1 -2 -1 -3v-1c2 -12 17 -48 32 -77c14 -28 24 -47 47 -47c0 -4 -1 -9 -2 -11
c-4 -2 -11 -3 -18 -3c-59 0 -71 22 -111 126c-3 7 -9 9 -17 9c-9 0 -12 -2 -13 -8l-17 -89v-11c0 -3 1 -7 3 -8c6 -3 15 -6 19 -6c1 0 1 -2 1 -3c0 -4 -1 -6 -2 -10c-19 1 -31 2 -50 2c-21 0 -34 -1 -55 -2c0 3 -1 5 -1 8c0 2 2 3 3 5c37 5 29 10 37 45l33 169
c2 11 4 18 4 29c0 9 -16 13 -22 13c-1 0 -2 1 -2 2c0 4 2 6 3 10c17 -1 26 -3 43 -3c27 0 43 4 70 4zM381 680c140 0 231 -122 202 -273s-168 -274 -308 -274s-230 123 -201 274s167 273 307 273zM376 648c-124 0 -245 -108 -271 -241s53 -242 177 -242s246 109 272 242
s-54 241 -178 241z" />
    <glyph glyph-name="macron" unicode="&#xaf;" horiz-adv-x="263" 
d="M233 490h-210s-3 3 -3 9c0 7 7 30 12 30h206c2 0 5 -3 5 -7c0 -5 -2 -23 -10 -32z" />
    <glyph glyph-name="degree" unicode="&#xb0;" horiz-adv-x="266" 
d="M126 524c0 -28 18 -50 46 -50c35 0 69 35 69 74c0 28 -18 49 -46 49c-35 0 -69 -32 -69 -73zM90 517c0 65 59 117 112 117c44 0 75 -34 75 -79c0 -62 -57 -118 -112 -118c-44 0 -75 35 -75 80z" />
    <glyph glyph-name="plusminus" unicode="&#xb1;" horiz-adv-x="489" 
d="M403 64c2 0 3 -3 3 -8c0 -13 -1 -23 -12 -35h-390c-3 0 -5 3 -5 8c0 13 3 22 13 35h391zM59 306c-3 0 -4 3 -4 8c0 13 3 22 13 35h171l34 175c3 13 37 16 41 16c8 0 10 -4 9 -8l-36 -183h171c2 0 4 -3 4 -8c0 -13 -1 -23 -12 -35h-171l-34 -178c-2 -10 -20 -16 -36 -16
c-10 0 -13 4 -13 8l35 186h-172z" />
    <glyph glyph-name="uni00B2" unicode="&#xb2;" horiz-adv-x="345" 
d="M337 564c0 -55 -39 -97 -82 -141c-51 -52 -139 -114 -138 -114h118c31 0 48 25 60 51c1 3 5 4 9 4c2 0 13 -7 14 -8c-16 -30 -43 -90 -48 -101h-220c-1 1 -4 12 -4 16c34 30 121 113 157 154c41 47 56 85 56 120c0 34 -28 57 -58 57c-45 0 -70 -38 -79 -50
c-4 0 -10 15 -9 17c7 15 58 78 127 78c45 0 97 -26 97 -83z" />
    <glyph glyph-name="uni00B3" unicode="&#xb3;" horiz-adv-x="316" 
d="M229 648c29 0 67 -21 67 -67c0 -41 -44 -78 -76 -96c44 -3 82 -46 82 -83c0 -106 -122 -155 -177 -155c-30 0 -60 5 -74 15c-2 3 -6 11 -6 18c0 19 18 42 32 42c20 0 25 -17 34 -28c11 -13 28 -16 44 -16c35 0 76 38 76 108c0 42 -25 66 -63 66c-12 0 -25 -2 -32 -4
c-2 3 -4 4 -4 7c0 2 0 12 1 14c50 9 108 44 108 91c0 24 -15 48 -41 48c-37 0 -60 -37 -66 -41c-4 0 -9 11 -8 17c27 38 58 64 103 64z" />
    <glyph glyph-name="acute" unicode="&#xb4;" horiz-adv-x="201" 
d="M18 490c-3 0 -8 7 -8 10c0 8 82 102 95 111c10 7 22 10 37 10c13 0 39 -7 39 -30c0 -19 -148 -101 -163 -101z" />
    <glyph glyph-name="uni00B5" unicode="&#xb5;" horiz-adv-x="493" 
d="M401 69c-13 -34 -50 -73 -82 -73c-55 0 -51 80 -46 144c-44 -77 -92 -149 -143 -149c-43 0 -49 59 -49 97c-2 -17 -38 -122 -38 -187c0 -35 19 -73 33 -95c-2 -14 -26 -27 -44 -27c-13 0 -43 10 -43 75c0 68 62 288 82 350c5 24 31 181 38 219c4 5 15 14 23 14
c10 0 34 -15 43 -38c-3 -18 -35 -111 -59 -176c-5 -26 -8 -51 -8 -73c0 -45 12 -84 31 -84c48 0 94 85 133 156c21 78 31 131 49 201c4 5 15 14 23 14c10 0 34 -15 43 -38c-10 -29 -76 -189 -76 -189c-18 -82 -9 -144 34 -144c24 0 41 16 50 25c4 -3 7 -19 6 -22z" />
    <glyph glyph-name="paragraph" unicode="&#xb6;" horiz-adv-x="483" 
d="M299 659c55 0 95 -2 131 -2s55 3 94 5c4 -5 -1 -24 -6 -29c-11 0 -50 -5 -55 -16c-8 -16 -14 -44 -19 -74c-32 -186 -39 -231 -63 -357c-32 -164 -127 -276 -207 -276c-29 0 -47 12 -54 25c0 5 0 11 1 16c3 21 12 40 29 40s27 -11 38 -23c7 -7 15 -15 29 -15
c39 0 59 70 90 229l68 355c6 30 12 63 10 75c-2 9 -11 10 -19 10c-44 0 -87 -106 -87 -183c0 -68 17 -98 35 -113c2 -1 10 -8 10 -10c0 -26 -63 -43 -94 -43c-122 0 -166 96 -166 167c0 144 150 219 235 219z" />
    <glyph glyph-name="periodcentered" unicode="&#xb7;" horiz-adv-x="222" 
d="M54 252c0 37 34 70 67 70c26 0 43 -20 43 -46c0 -37 -33 -71 -66 -71c-26 0 -44 20 -44 47z" />
    <glyph glyph-name="cedilla" unicode="&#xb8;" horiz-adv-x="161" 
d="M85 -27h23c24 0 37 -23 32 -49c-9 -47 -54 -76 -102 -76c-11 0 -25 5 -30 9c0 5 -1 8 0 14c1 7 9 14 15 14c11 0 17 -13 32 -13c26 0 44 16 47 33c5 24 -10 34 -22 34c-10 0 -16 -3 -26 -7c-2 0 -10 9 -7 13c11 15 30 37 40 51h19z" />
    <glyph glyph-name="uni00B9" unicode="&#xb9;" horiz-adv-x="270" 
d="M106 556c-3 3 -5 10 -5 14c0 1 1 5 3 6c57 27 141 72 143 72h1c4 0 5 -9 5 -12c0 0 -10 -20 -17 -57l-47 -237c-4 -21 -7 -37 -6 -54c1 -7 43 -13 47 -13c2 0 3 -9 2 -13c-1 -3 -2 -8 -3 -9c-23 1 -76 3 -99 3s-52 -2 -75 -3c-2 3 0 22 3 22c7 0 49 6 52 13
c6 12 8 23 10 35l37 189c7 37 11 58 2 58c-15 0 -45 -11 -53 -14z" />
    <glyph glyph-name="ordmasculine" unicode="&#xba;" horiz-adv-x="339" 
d="M227 532c-65 0 -104 -101 -104 -171c0 -56 17 -92 44 -92c64 0 100 102 100 172c0 56 -13 91 -40 91zM237 554c62 0 90 -43 90 -103c0 -98 -87 -204 -175 -204c-62 0 -89 40 -89 100c0 98 86 207 174 207z" />
    <glyph glyph-name="guillemotright" unicode="&#xbb;" horiz-adv-x="485" 
d="M257 405c5 9 15 15 21 18c30 -39 102 -109 162 -155c6 -4 10 -8 10 -14c0 -11 -8 -20 -15 -24c-111 -63 -153 -102 -224 -157c-4 1 -16 6 -18 15c5 12 168 159 168 159s-104 150 -104 158zM77 405c5 9 15 15 21 18c30 -39 102 -109 162 -155c6 -4 10 -8 10 -14
c0 -11 -8 -20 -15 -24c-111 -63 -153 -102 -224 -157c-4 1 -16 6 -18 15c5 12 168 159 168 159s-104 150 -104 158z" />
    <glyph glyph-name="onequarter" unicode="&#xbc;" horiz-adv-x="637" 
d="M580 405c6 0 12 -10 11 -15l-47 -238h35c4 0 4 -18 2 -31c-1 -6 -4 -13 -5 -15h-40l-20 -105s-14 -3 -36 -3c-14 0 -31 1 -30 5l20 103h-171c-4 2 -5 10 -4 14l263 278c5 5 18 7 22 7zM513 314l-153 -162h119zM90 556c-3 3 -5 10 -5 14c0 1 1 5 3 6c57 27 141 72 143 72
h1c4 0 5 -9 5 -12c0 0 -10 -20 -17 -57l-47 -237c-4 -21 -7 -37 -6 -54c1 -7 43 -13 47 -13c2 0 3 -9 2 -13c-1 -3 -2 -8 -3 -9c-23 1 -76 3 -99 3s-52 -2 -75 -3c-2 3 0 22 3 22c7 0 49 6 52 13c6 12 8 23 10 35l37 189c7 37 11 58 2 58c-15 0 -45 -11 -53 -14zM580 626
l-446 -632s-25 -1 -25 10c0 2 1 4 2 6l447 632s23 0 23 -11c0 -2 0 -4 -1 -5z" />
    <glyph glyph-name="onehalf" unicode="&#xbd;" horiz-adv-x="689" 
d="M650 311c0 -55 -39 -97 -82 -141c-51 -52 -140 -114 -139 -114h119c31 0 48 25 60 51c1 3 5 4 9 4c2 0 13 -7 14 -8c-16 -30 -43 -90 -48 -101h-220c-1 1 -4 12 -4 16c34 30 121 113 157 154c41 47 56 85 56 120c0 34 -28 57 -58 57c-45 0 -71 -38 -80 -50
c-4 0 -9 15 -8 17c7 15 58 78 127 78c45 0 97 -26 97 -83zM91 556c-3 3 -5 10 -5 14c0 1 1 5 3 6c57 27 141 72 143 72h1c4 0 5 -9 5 -12c0 0 -10 -20 -17 -57l-47 -237c-4 -21 -7 -37 -6 -54c1 -7 43 -13 47 -13c2 0 3 -9 2 -13c-1 -3 -2 -8 -3 -9c-23 1 -76 3 -99 3
s-52 -2 -75 -3c-2 3 0 22 3 22c7 0 49 6 52 13c6 12 8 23 10 35l37 189c7 37 11 58 2 58c-15 0 -45 -11 -53 -14zM581 626l-446 -632s-25 -1 -25 10c0 2 1 4 2 6l447 632s23 0 23 -11c0 -2 0 -4 -1 -5z" />
    <glyph glyph-name="threequarters" unicode="&#xbe;" horiz-adv-x="651" 
d="M595 405c6 0 12 -10 11 -15l-47 -238h35c4 0 4 -18 2 -31c-1 -6 -4 -13 -5 -15h-40l-20 -105s-14 -3 -36 -3c-14 0 -31 1 -30 5l20 103h-171c-4 2 -5 10 -4 14l263 278c5 5 18 7 22 7zM528 314l-153 -162h119zM216 648c29 0 67 -21 67 -67c0 -41 -44 -78 -76 -96
c44 -3 82 -46 82 -83c0 -106 -122 -155 -177 -155c-30 0 -60 5 -74 15c-2 3 -6 11 -6 18c0 19 18 42 32 42c20 0 25 -17 34 -28c11 -13 28 -16 44 -16c35 0 76 38 76 108c0 42 -25 66 -63 66c-12 0 -25 -2 -32 -4c-2 3 -4 4 -4 7c0 2 0 12 1 14c50 9 108 44 108 91
c0 24 -15 48 -41 48c-37 0 -60 -37 -66 -41c-4 0 -9 11 -8 17c27 38 58 64 103 64zM580 626l-446 -632s-25 -1 -25 10c0 2 1 4 2 6l447 632s23 0 23 -11c0 -2 0 -4 -1 -5z" />
    <glyph glyph-name="questiondown" unicode="&#xbf;" horiz-adv-x="310" 
d="M255 390c0 -38 -32 -70 -65 -70c-26 0 -45 20 -45 46c0 37 35 70 68 70c26 0 42 -20 42 -46zM120 225c0 4 5 13 10 16c24 0 99 -46 99 -102c0 -42 -23 -65 -49 -83c-47 -32 -71 -48 -116 -80c-20 -14 -46 -38 -46 -76c0 -39 22 -60 52 -60c44 0 44 46 82 46
c29 0 34 -34 34 -52c-5 -15 -48 -43 -86 -43c-75 0 -133 67 -133 129c0 42 12 74 44 104c24 22 63 41 115 77c25 17 33 33 33 60c0 29 -28 56 -39 64z" />
    <glyph glyph-name="Agrave" unicode="&#xc0;" horiz-adv-x="586" 
d="M411 710c-15 0 -175 61 -175 86c0 11 19 22 48 22c7 0 24 -3 27 -5c25 -16 106 -86 106 -93c0 -3 -5 -10 -6 -10zM341 26c35 0 57 11 57 31c0 10 0 30 -3 49l-22 150h-199c-34 -62 -62 -114 -71 -131c-18 -35 -29 -60 -29 -75c0 -21 55 -24 62 -24c2 -3 -1 -23 -4 -29
c-37 2 -48 5 -89 5c-43 0 -55 -3 -98 -5c-2 3 2 22 6 29c11 0 45 6 57 19c24 26 42 58 62 94l276 495c9 16 32 29 40 29c3 0 4 -2 5 -3l86 -534c6 -37 10 -64 11 -68c6 -29 56 -32 63 -32c3 -7 -1 -26 -3 -29c-37 2 -68 5 -109 5c-43 0 -61 -3 -104 -5c-4 5 0 24 6 29z
M192 289h175l-38 246z" />
    <glyph glyph-name="Aacute" unicode="&#xc1;" horiz-adv-x="586" 
d="M352 711c-1 0 -6 7 -6 10c0 7 81 77 106 93c3 2 20 5 27 5c29 0 48 -11 48 -22c0 -25 -160 -86 -175 -86zM341 26c35 0 57 11 57 31c0 10 0 30 -3 49l-22 150h-199c-34 -62 -62 -114 -71 -131c-18 -35 -29 -60 -29 -75c0 -21 55 -24 62 -24c2 -3 -1 -23 -4 -29
c-37 2 -48 5 -89 5c-43 0 -55 -3 -98 -5c-2 3 2 22 6 29c11 0 45 6 57 19c24 26 42 58 62 94l276 495c9 16 32 29 40 29c3 0 4 -2 5 -3l86 -534c6 -37 10 -64 11 -68c6 -29 56 -32 63 -32c3 -7 -1 -26 -3 -29c-37 2 -68 5 -109 5c-43 0 -61 -3 -104 -5c-4 5 0 24 6 29z
M192 289h175l-38 246z" />
    <glyph glyph-name="Acircumflex" unicode="&#xc2;" horiz-adv-x="586" 
d="M423 836c4 0 8 -3 10 -7c26 -42 44 -67 78 -108c-1 -6 -9 -10 -15 -10c-37 25 -89 59 -89 59s-72 -35 -120 -59c-6 0 -11 4 -10 10c56 42 84 65 132 108c5 4 10 7 14 7zM341 26c35 0 57 11 57 31c0 10 0 30 -3 49l-22 150h-199c-34 -62 -62 -114 -71 -131
c-18 -35 -29 -60 -29 -75c0 -21 55 -24 62 -24c2 -3 -1 -23 -4 -29c-37 2 -48 5 -89 5c-43 0 -55 -3 -98 -5c-2 3 2 22 6 29c11 0 45 6 57 19c24 26 42 58 62 94l276 495c9 16 32 29 40 29c3 0 4 -2 5 -3l86 -534c6 -37 10 -64 11 -68c6 -29 56 -32 63 -32
c3 -7 -1 -26 -3 -29c-37 2 -68 5 -109 5c-43 0 -61 -3 -104 -5c-4 5 0 24 6 29zM192 289h175l-38 246z" />
    <glyph glyph-name="Atilde" unicode="&#xc3;" horiz-adv-x="586" 
d="M346 819c24 0 40 -2 61 -14s41 -24 72 -24c34 0 59 31 65 38c3 -1 6 -3 6 -10c0 -14 -9 -28 -18 -37c-25 -24 -49 -33 -78 -33c-24 0 -40 2 -61 14s-41 24 -72 24c-34 0 -59 -31 -65 -38c-3 1 -7 3 -7 10c0 14 10 28 19 37c25 24 49 33 78 33zM341 26c35 0 57 11 57 31
c0 10 0 30 -3 49l-22 150h-199c-34 -62 -62 -114 -71 -131c-18 -35 -29 -60 -29 -75c0 -21 55 -24 62 -24c2 -3 -1 -23 -4 -29c-37 2 -48 5 -89 5c-43 0 -55 -3 -98 -5c-2 3 2 22 6 29c11 0 45 6 57 19c24 26 42 58 62 94l276 495c9 16 32 29 40 29c3 0 4 -2 5 -3l86 -534
c6 -37 10 -64 11 -68c6 -29 56 -32 63 -32c3 -7 -1 -26 -3 -29c-37 2 -68 5 -109 5c-43 0 -61 -3 -104 -5c-4 5 0 24 6 29zM192 289h175l-38 246z" />
    <glyph glyph-name="Adieresis" unicode="&#xc4;" horiz-adv-x="586" 
d="M341 26c35 0 57 11 57 31c0 10 0 30 -3 49l-22 150h-199c-34 -62 -62 -114 -71 -131c-18 -35 -29 -60 -29 -75c0 -21 55 -24 62 -24c2 -3 -1 -23 -4 -29c-37 2 -48 5 -89 5c-43 0 -55 -3 -98 -5c-2 3 2 22 6 29c11 0 45 6 57 19c24 26 42 58 62 94l276 495
c9 16 32 29 40 29c3 0 4 -2 5 -3l86 -534c6 -37 10 -64 11 -68c6 -29 56 -32 63 -32c3 -7 -1 -26 -3 -29c-37 2 -68 5 -109 5c-43 0 -61 -3 -104 -5c-4 5 0 24 6 29zM192 289h175l-38 246zM434 778c5 28 30 50 56 50s42 -22 37 -50s-30 -50 -56 -50s-42 22 -37 50zM266 778
c5 28 30 50 56 50s42 -22 37 -50s-31 -50 -57 -50s-41 22 -36 50z" />
    <glyph glyph-name="Aring" unicode="&#xc5;" horiz-adv-x="586" 
d="M341 26c35 0 57 11 57 31c0 10 0 30 -3 49l-22 150h-199c-34 -62 -62 -114 -71 -131c-18 -35 -29 -60 -29 -75c0 -21 55 -24 62 -24c2 -3 -1 -23 -4 -29c-37 2 -48 5 -89 5c-43 0 -55 -3 -98 -5c-2 3 2 22 6 29c11 0 45 6 57 19c24 26 42 58 62 94l276 495
c9 16 32 29 40 29c3 0 4 -2 5 -3l86 -534c6 -37 10 -64 11 -68c6 -29 56 -32 63 -32c3 -7 -1 -26 -3 -29c-37 2 -68 5 -109 5c-43 0 -61 -3 -104 -5c-4 5 0 24 6 29zM192 289h175l-38 246zM346 749c-6 -31 13 -56 41 -56s55 25 61 56s-11 55 -39 55s-57 -24 -63 -55z
M315 749c10 49 56 89 101 89s73 -40 63 -89s-53 -90 -98 -90s-76 41 -66 90z" />
    <glyph glyph-name="AE" unicode="&#xc6;" horiz-adv-x="785" 
d="M388 307h-145l-121 -176c-35 -50 -45 -70 -45 -81c0 -16 47 -26 57 -26c1 0 0 -22 -3 -27c-37 2 -53 5 -94 5c-43 0 -53 -3 -96 -5c-1 1 -1 27 3 27c11 0 50 8 64 21c29 26 54 57 79 94l308 447c2 4 5 9 5 15c0 11 -8 24 -30 24c-4 3 -3 25 0 31l98 1c87 0 195 7 296 7
c1 -50 8 -91 12 -136c-3 -3 -11 -5 -18 -5s-12 2 -12 7c-11 80 -47 100 -96 100h-80c-11 0 -61 -1 -65 -11c-7 -16 -11 -45 -14 -72l-21 -200c-1 -5 19 -6 39 -6h49c89 0 87 6 111 72c2 5 8 7 15 7s12 -2 14 -5l-20 -189c-2 -2 -9 -4 -16 -4s-12 3 -13 8
c-8 57 -12 64 -19 70c-10 7 -63 8 -98 8c-26 0 -66 0 -67 -9l-19 -190c-1 -15 -6 -64 -1 -69c11 -10 26 -10 65 -10h44c51 0 89 10 119 31c26 18 49 48 70 101c2 4 7 6 14 6c9 0 21 -3 23 -6c-24 -54 -59 -122 -70 -166c-101 0 -193 4 -316 4c-49 0 -124 -3 -124 -3
c-2 5 1 32 6 34c11 0 62 6 73 19c16 19 19 39 22 74zM391 341l20 209l-144 -209h124z" />
    <glyph glyph-name="Ccedilla" unicode="&#xc7;" horiz-adv-x="645" 
d="M569 173c13 0 28 -8 28 -8c-4 -20 -57 -125 -72 -137c-54 -28 -109 -36 -195 -36c-162 0 -271 125 -271 273c0 252 199 405 406 401c58 -1 112 -14 161 -26c-2 -36 -7 -118 -10 -146c0 -3 -4 -5 -8 -5c-6 0 -15 1 -23 5c5 80 -65 141 -149 141
c-156 0 -283 -136 -282 -353c0 -119 54 -261 204 -261c102 0 168 70 211 152zM318 -27h28c29 0 43 -27 37 -58c-11 -55 -64 -89 -121 -89c-13 0 -29 5 -35 10c0 6 -1 10 0 17c2 8 11 16 18 16c13 0 20 -15 38 -15c31 0 51 19 55 39c5 28 -12 40 -26 40c-12 0 -19 -3 -31 -8
c-2 0 -11 10 -8 15c14 18 35 43 47 60h23z" />
    <glyph glyph-name="Egrave" unicode="&#xc8;" horiz-adv-x="554" 
d="M418 710c-15 0 -175 61 -175 86c0 11 19 22 48 22c7 0 24 -3 27 -5c25 -16 106 -86 106 -93c0 -3 -5 -10 -6 -10zM233 657c87 0 199 7 300 7c-3 -50 1 -91 1 -136c-3 -3 -11 -5 -18 -5s-11 2 -11 7c-5 80 -39 100 -88 100h-80c-11 0 -61 -1 -66 -11
c-8 -16 -15 -45 -20 -72l-37 -192c-1 -5 19 -6 39 -6h49c89 0 87 6 116 72c2 5 9 7 16 7s12 -2 14 -5l-36 -189c-2 -2 -9 -4 -16 -4s-12 3 -13 8c-3 57 -6 64 -13 70c-9 7 -62 8 -97 8c-26 0 -67 0 -69 -9l-39 -198c-3 -15 -12 -64 -7 -69c10 -10 25 -10 64 -10h44
c51 0 92 10 124 31c27 18 53 48 78 101c2 4 8 6 15 6c9 0 20 -3 22 -6c-28 -54 -68 -122 -83 -166c-101 0 -192 4 -316 4c-44 0 -75 -3 -111 -3c-4 5 0 24 5 29c11 0 63 5 68 16c8 16 13 44 19 74l83 427c6 30 11 58 9 74c-1 11 -50 16 -61 16c-3 5 0 24 6 29
c38 -2 73 -5 109 -5z" />
    <glyph glyph-name="Eacute" unicode="&#xc9;" horiz-adv-x="554" 
d="M295 711c-1 0 -6 7 -6 10c0 7 81 77 106 93c3 2 20 5 27 5c29 0 48 -11 48 -22c0 -25 -160 -86 -175 -86zM233 657c87 0 199 7 300 7c-3 -50 1 -91 1 -136c-3 -3 -11 -5 -18 -5s-11 2 -11 7c-5 80 -39 100 -88 100h-80c-11 0 -61 -1 -66 -11c-8 -16 -15 -45 -20 -72
l-37 -192c-1 -5 19 -6 39 -6h49c89 0 87 6 116 72c2 5 9 7 16 7s12 -2 14 -5l-36 -189c-2 -2 -9 -4 -16 -4s-12 3 -13 8c-3 57 -6 64 -13 70c-9 7 -62 8 -97 8c-26 0 -67 0 -69 -9l-39 -198c-3 -15 -12 -64 -7 -69c10 -10 25 -10 64 -10h44c51 0 92 10 124 31
c27 18 53 48 78 101c2 4 8 6 15 6c9 0 20 -3 22 -6c-28 -54 -68 -122 -83 -166c-101 0 -192 4 -316 4c-44 0 -75 -3 -111 -3c-4 5 0 24 5 29c11 0 63 5 68 16c8 16 13 44 19 74l83 427c6 30 11 58 9 74c-1 11 -50 16 -61 16c-3 5 0 24 6 29c38 -2 73 -5 109 -5z" />
    <glyph glyph-name="Ecircumflex" unicode="&#xca;" horiz-adv-x="554" 
d="M393 836c4 0 8 -3 10 -7c26 -42 44 -67 78 -108c-1 -6 -9 -10 -15 -10c-37 25 -89 59 -89 59s-72 -35 -120 -59c-6 0 -11 4 -10 10c56 42 84 65 132 108c5 4 10 7 14 7zM233 657c87 0 199 7 300 7c-3 -50 1 -91 1 -136c-3 -3 -11 -5 -18 -5s-11 2 -11 7
c-5 80 -39 100 -88 100h-80c-11 0 -61 -1 -66 -11c-8 -16 -15 -45 -20 -72l-37 -192c-1 -5 19 -6 39 -6h49c89 0 87 6 116 72c2 5 9 7 16 7s12 -2 14 -5l-36 -189c-2 -2 -9 -4 -16 -4s-12 3 -13 8c-3 57 -6 64 -13 70c-9 7 -62 8 -97 8c-26 0 -67 0 -69 -9l-39 -198
c-3 -15 -12 -64 -7 -69c10 -10 25 -10 64 -10h44c51 0 92 10 124 31c27 18 53 48 78 101c2 4 8 6 15 6c9 0 20 -3 22 -6c-28 -54 -68 -122 -83 -166c-101 0 -192 4 -316 4c-44 0 -75 -3 -111 -3c-4 5 0 24 5 29c11 0 63 5 68 16c8 16 13 44 19 74l83 427c6 30 11 58 9 74
c-1 11 -50 16 -61 16c-3 5 0 24 6 29c38 -2 73 -5 109 -5z" />
    <glyph glyph-name="Edieresis" unicode="&#xcb;" horiz-adv-x="554" 
d="M402 778c5 28 30 50 56 50s42 -22 37 -50s-30 -50 -56 -50s-42 22 -37 50zM234 778c5 28 30 50 56 50s42 -22 37 -50s-31 -50 -57 -50s-41 22 -36 50zM233 657c87 0 199 7 300 7c-3 -50 1 -91 1 -136c-3 -3 -11 -5 -18 -5s-11 2 -11 7c-5 80 -39 100 -88 100h-80
c-11 0 -61 -1 -66 -11c-8 -16 -15 -45 -20 -72l-37 -192c-1 -5 19 -6 39 -6h49c89 0 87 6 116 72c2 5 9 7 16 7s12 -2 14 -5l-36 -189c-2 -2 -9 -4 -16 -4s-12 3 -13 8c-3 57 -6 64 -13 70c-9 7 -62 8 -97 8c-26 0 -67 0 -69 -9l-39 -198c-3 -15 -12 -64 -7 -69
c10 -10 25 -10 64 -10h44c51 0 92 10 124 31c27 18 53 48 78 101c2 4 8 6 15 6c9 0 20 -3 22 -6c-28 -54 -68 -122 -83 -166c-101 0 -192 4 -316 4c-44 0 -75 -3 -111 -3c-4 5 0 24 5 29c11 0 63 5 68 16c8 16 13 44 19 74l83 427c6 30 11 58 9 74c-1 11 -50 16 -61 16
c-3 5 0 24 6 29c38 -2 73 -5 109 -5z" />
    <glyph glyph-name="Igrave" unicode="&#xcc;" horiz-adv-x="313" 
d="M296 710c-15 0 -175 61 -175 86c0 11 19 22 48 22c7 0 24 -3 27 -5c25 -16 106 -86 106 -93c0 -3 -5 -10 -6 -10zM233 657c36 0 71 3 110 5c4 -5 -1 -24 -6 -29c-11 0 -62 -5 -67 -16c-8 -16 -13 -44 -19 -74l-83 -427c-6 -30 -12 -58 -10 -74c1 -11 50 -16 61 -16
c3 -5 0 -24 -6 -29c-38 2 -71 5 -107 5s-72 -3 -111 -5c-4 5 0 24 5 29c11 0 63 5 68 16c8 16 13 44 19 74l83 427c6 30 11 58 9 74c-1 11 -50 16 -61 16c-3 5 0 24 6 29c38 -2 73 -5 109 -5z" />
    <glyph glyph-name="Iacute" unicode="&#xcd;" horiz-adv-x="313" 
d="M181 711c-1 0 -6 7 -6 10c0 7 81 77 106 93c3 2 20 5 27 5c29 0 48 -11 48 -22c0 -25 -160 -86 -175 -86zM233 657c36 0 71 3 110 5c4 -5 -1 -24 -6 -29c-11 0 -62 -5 -67 -16c-8 -16 -13 -44 -19 -74l-83 -427c-6 -30 -12 -58 -10 -74c1 -11 50 -16 61 -16
c3 -5 0 -24 -6 -29c-38 2 -71 5 -107 5s-72 -3 -111 -5c-4 5 0 24 5 29c11 0 63 5 68 16c8 16 13 44 19 74l83 427c6 30 11 58 9 74c-1 11 -50 16 -61 16c-3 5 0 24 6 29c38 -2 73 -5 109 -5z" />
    <glyph glyph-name="Icircumflex" unicode="&#xce;" horiz-adv-x="313" 
d="M292 836c4 0 8 -3 10 -7c26 -42 44 -67 78 -108c-1 -6 -9 -10 -15 -10c-37 25 -89 59 -89 59s-72 -35 -120 -59c-6 0 -11 4 -10 10c56 42 84 65 132 108c5 4 10 7 14 7zM233 657c36 0 71 3 110 5c4 -5 -1 -24 -6 -29c-11 0 -62 -5 -67 -16c-8 -16 -13 -44 -19 -74
l-83 -427c-6 -30 -12 -58 -10 -74c1 -11 50 -16 61 -16c3 -5 0 -24 -6 -29c-38 2 -71 5 -107 5s-72 -3 -111 -5c-4 5 0 24 5 29c11 0 63 5 68 16c8 16 13 44 19 74l83 427c6 30 11 58 9 74c-1 11 -50 16 -61 16c-3 5 0 24 6 29c38 -2 73 -5 109 -5z" />
    <glyph glyph-name="Idieresis" unicode="&#xcf;" horiz-adv-x="313" 
d="M233 657c36 0 71 3 110 5c4 -5 -1 -24 -6 -29c-11 0 -62 -5 -67 -16c-8 -16 -13 -44 -19 -74l-83 -427c-6 -30 -12 -58 -10 -74c1 -11 50 -16 61 -16c3 -5 0 -24 -6 -29c-38 2 -71 5 -107 5s-72 -3 -111 -5c-4 5 0 24 5 29c11 0 63 5 68 16c8 16 13 44 19 74l83 427
c6 30 11 58 9 74c-1 11 -50 16 -61 16c-3 5 0 24 6 29c38 -2 73 -5 109 -5zM353 833c23 0 38 -22 33 -47s-29 -45 -52 -45s-40 21 -35 46s31 46 54 46zM182 833c23 0 39 -22 34 -47s-29 -45 -52 -45s-40 21 -35 46s30 46 53 46z" />
    <glyph glyph-name="Eth" unicode="&#xd0;" horiz-adv-x="684" 
d="M79 349h330c4 0 6 -4 5 -8c-1 -5 -5 -21 -10 -28h-331c-4 0 -4 7 -3 11c1 5 2 18 9 25zM252 546l-85 -434c-3 -14 -11 -66 -8 -72c5 -11 39 -14 73 -14c143 0 279 92 317 287c44 226 -58 318 -211 318c-11 0 -62 -1 -67 -11c-8 -16 -13 -45 -19 -74zM368 658
c215 0 313 -139 277 -324c-33 -170 -146 -336 -417 -337h-233c-4 5 1 24 6 29c11 0 62 5 67 16c8 16 13 44 19 74l83 427c6 30 12 58 10 74c-1 11 -50 16 -61 16c-3 5 -1 24 5 29c38 -2 73 -5 109 -5s94 1 135 1z" />
    <glyph glyph-name="Ntilde" unicode="&#xd1;" horiz-adv-x="732" 
d="M628 541c7 36 9 56 3 72c-5 14 -52 20 -67 20c-3 7 0 24 3 29c37 -2 61 -4 102 -4c43 0 61 2 104 4c2 -5 3 -18 -4 -29c-11 0 -66 -7 -75 -19c-11 -15 -15 -30 -22 -68l-79 -407c-11 -58 -17 -88 -25 -140c-3 -3 -14 -4 -17 -4c-8 0 -20 9 -27 23l-300 551l-88 -454
c-7 -36 -10 -53 -4 -69c4 -10 52 -20 67 -20c3 -7 -1 -23 -4 -29c-37 2 -63 5 -104 5c-43 0 -60 -3 -103 -5c-2 5 -1 18 6 29c11 0 67 8 76 20c11 15 16 30 23 68l84 434c7 38 9 53 4 68c-4 12 -57 17 -68 17c-3 11 1 24 5 29c42 -2 54 -4 85 -4c28 0 69 3 82 4
c32 -80 196 -345 269 -500zM388 819c24 0 40 -2 61 -14s41 -24 72 -24c34 0 59 31 65 38c3 -1 6 -3 6 -10c0 -14 -9 -28 -18 -37c-25 -24 -49 -33 -78 -33c-24 0 -40 2 -61 14s-41 24 -72 24c-34 0 -59 -31 -65 -38c-3 1 -7 3 -7 10c0 14 10 28 19 37c25 24 49 33 78 33z
" />
    <glyph glyph-name="Ograve" unicode="&#xd2;" horiz-adv-x="710" 
d="M406 635c-126 0 -251 -157 -251 -367c0 -115 36 -250 173 -250c153 0 250 196 250 375c0 96 -31 242 -172 242zM415 665c158 0 257 -123 257 -283c0 -234 -161 -393 -353 -393c-162 0 -258 126 -258 284c0 230 172 392 354 392zM458 710c-15 0 -175 61 -175 86
c0 11 19 22 48 22c7 0 24 -3 27 -5c25 -16 106 -86 106 -93c0 -3 -5 -10 -6 -10z" />
    <glyph glyph-name="Oacute" unicode="&#xd3;" horiz-adv-x="710" 
d="M406 635c-126 0 -251 -157 -251 -367c0 -115 36 -250 173 -250c153 0 250 196 250 375c0 96 -31 242 -172 242zM415 665c158 0 257 -123 257 -283c0 -234 -161 -393 -353 -393c-162 0 -258 126 -258 284c0 230 172 392 354 392zM359 711c-1 0 -6 7 -6 10
c0 7 81 77 106 93c3 2 20 5 27 5c29 0 48 -11 48 -22c0 -25 -160 -86 -175 -86z" />
    <glyph glyph-name="Ocircumflex" unicode="&#xd4;" horiz-adv-x="710" 
d="M406 635c-126 0 -251 -157 -251 -367c0 -115 36 -250 173 -250c153 0 250 196 250 375c0 96 -31 242 -172 242zM415 665c158 0 257 -123 257 -283c0 -234 -161 -393 -353 -393c-162 0 -258 126 -258 284c0 230 172 392 354 392zM454 836c4 0 8 -3 10 -7
c26 -42 44 -67 78 -108c-1 -6 -9 -10 -15 -10c-37 25 -89 59 -89 59s-72 -35 -120 -59c-6 0 -11 4 -10 10c56 42 84 65 132 108c5 4 10 7 14 7z" />
    <glyph glyph-name="Otilde" unicode="&#xd5;" horiz-adv-x="710" 
d="M406 635c-126 0 -251 -157 -251 -367c0 -115 36 -250 173 -250c153 0 250 196 250 375c0 96 -31 242 -172 242zM415 665c158 0 257 -123 257 -283c0 -234 -161 -393 -353 -393c-162 0 -258 126 -258 284c0 230 172 392 354 392zM372 819c24 0 40 -2 61 -14s41 -24 72 -24
c34 0 59 31 65 38c3 -1 6 -3 6 -10c0 -14 -9 -28 -18 -37c-25 -24 -49 -33 -78 -33c-24 0 -40 2 -61 14s-41 24 -72 24c-34 0 -59 -31 -65 -38c-3 1 -7 3 -7 10c0 14 10 28 19 37c25 24 49 33 78 33z" />
    <glyph glyph-name="Odieresis" unicode="&#xd6;" horiz-adv-x="710" 
d="M406 635c-126 0 -251 -157 -251 -367c0 -115 36 -250 173 -250c153 0 250 196 250 375c0 96 -31 242 -172 242zM415 665c158 0 257 -123 257 -283c0 -234 -161 -393 -353 -393c-162 0 -258 126 -258 284c0 230 172 392 354 392zM462 778c5 28 30 50 56 50s42 -22 37 -50
s-30 -50 -56 -50s-42 22 -37 50zM294 778c5 28 30 50 56 50s42 -22 37 -50s-31 -50 -57 -50s-41 22 -36 50z" />
    <glyph glyph-name="multiply" unicode="&#xd7;" horiz-adv-x="411" 
d="M27 68c-6 0 -13 24 -13 40l154 135c1 1 2 2 2 3c0 2 -4 8 -5 9l-97 133c0 14 22 33 27 33c2 0 2 -2 4 -4l104 -141c1 -1 3 -2 4 -2l2 1l158 141c2 2 4 3 6 3c7 0 13 -23 13 -41l-153 -136c-1 -1 -2 -1 -2 -2s0 -1 1 -2l100 -136c0 -14 -15 -34 -22 -34c-4 0 -6 1 -7 3
l-103 140c-1 1 -2 2 -3 2s-3 -1 -4 -2l-161 -140c-2 -2 -3 -3 -5 -3z" />
    <glyph glyph-name="Oslash" unicode="&#xd8;" horiz-adv-x="710" 
d="M118 -13c-8 3 -27 17 -22 23l516 657c8 -2 28 -16 23 -22zM406 635c-126 0 -251 -157 -251 -367c0 -115 36 -250 173 -250c153 0 250 196 250 375c0 96 -31 242 -172 242zM415 665c158 0 257 -123 257 -283c0 -234 -161 -393 -353 -393c-162 0 -258 126 -258 284
c0 230 172 392 354 392z" />
    <glyph glyph-name="Ugrave" unicode="&#xd9;" horiz-adv-x="661" 
d="M217 657c36 0 71 3 110 5c4 -5 -1 -24 -6 -29c-11 0 -62 -5 -67 -16c-8 -16 -13 -44 -19 -74l-48 -247c-15 -78 -14 -137 5 -176c22 -44 62 -66 121 -66c96 0 169 48 205 220l53 271c7 36 10 53 4 69c-4 10 -48 20 -63 20c-3 7 1 23 4 29c37 -2 59 -5 100 -5
c43 0 59 3 102 5c2 -5 2 -18 -5 -29c-11 0 -68 -8 -77 -20c-11 -15 -15 -30 -22 -68l-53 -270c-39 -200 -134 -280 -279 -280c-70 0 -125 26 -158 72c-31 44 -42 106 -27 183l57 292c6 30 12 58 10 74c-1 11 -50 16 -61 16c-3 5 0 24 6 29c38 -2 72 -5 108 -5zM478 710
c-15 0 -175 61 -175 86c0 11 19 22 48 22c7 0 24 -3 27 -5c25 -16 106 -86 106 -93c0 -3 -5 -10 -6 -10z" />
    <glyph glyph-name="Uacute" unicode="&#xda;" horiz-adv-x="661" 
d="M217 657c36 0 71 3 110 5c4 -5 -1 -24 -6 -29c-11 0 -62 -5 -67 -16c-8 -16 -13 -44 -19 -74l-48 -247c-15 -78 -14 -137 5 -176c22 -44 62 -66 121 -66c96 0 169 48 205 220l53 271c7 36 10 53 4 69c-4 10 -48 20 -63 20c-3 7 1 23 4 29c37 -2 59 -5 100 -5
c43 0 59 3 102 5c2 -5 2 -18 -5 -29c-11 0 -68 -8 -77 -20c-11 -15 -15 -30 -22 -68l-53 -270c-39 -200 -134 -280 -279 -280c-70 0 -125 26 -158 72c-31 44 -42 106 -27 183l57 292c6 30 12 58 10 74c-1 11 -50 16 -61 16c-3 5 0 24 6 29c38 -2 72 -5 108 -5zM410 711
c-1 0 -6 7 -6 10c0 7 81 77 106 93c3 2 20 5 27 5c29 0 48 -11 48 -22c0 -25 -160 -86 -175 -86z" />
    <glyph glyph-name="Ucircumflex" unicode="&#xdb;" horiz-adv-x="661" 
d="M217 657c36 0 71 3 110 5c4 -5 -1 -24 -6 -29c-11 0 -62 -5 -67 -16c-8 -16 -13 -44 -19 -74l-48 -247c-15 -78 -14 -137 5 -176c22 -44 62 -66 121 -66c96 0 169 48 205 220l53 271c7 36 10 53 4 69c-4 10 -48 20 -63 20c-3 7 1 23 4 29c37 -2 59 -5 100 -5
c43 0 59 3 102 5c2 -5 2 -18 -5 -29c-11 0 -68 -8 -77 -20c-11 -15 -15 -30 -22 -68l-53 -270c-39 -200 -134 -280 -279 -280c-70 0 -125 26 -158 72c-31 44 -42 106 -27 183l57 292c6 30 12 58 10 74c-1 11 -50 16 -61 16c-3 5 0 24 6 29c38 -2 72 -5 108 -5zM458 836
c4 0 8 -3 10 -7c26 -42 44 -67 78 -108c-1 -6 -9 -10 -15 -10c-37 25 -89 59 -89 59s-72 -35 -120 -59c-6 0 -11 4 -10 10c56 42 84 65 132 108c5 4 10 7 14 7z" />
    <glyph glyph-name="Udieresis" unicode="&#xdc;" horiz-adv-x="661" 
d="M217 657c36 0 71 3 110 5c4 -5 -1 -24 -6 -29c-11 0 -62 -5 -67 -16c-8 -16 -13 -44 -19 -74l-48 -247c-15 -78 -14 -137 5 -176c22 -44 62 -66 121 -66c96 0 169 48 205 220l53 271c7 36 10 53 4 69c-4 10 -48 20 -63 20c-3 7 1 23 4 29c37 -2 59 -5 100 -5
c43 0 59 3 102 5c2 -5 2 -18 -5 -29c-11 0 -68 -8 -77 -20c-11 -15 -15 -30 -22 -68l-53 -270c-39 -200 -134 -280 -279 -280c-70 0 -125 26 -158 72c-31 44 -42 106 -27 183l57 292c6 30 12 58 10 74c-1 11 -50 16 -61 16c-3 5 0 24 6 29c38 -2 72 -5 108 -5zM482 778
c5 28 30 50 56 50s42 -22 37 -50s-30 -50 -56 -50s-42 22 -37 50zM314 778c5 28 30 50 56 50s42 -22 37 -50s-31 -50 -57 -50s-41 22 -36 50z" />
    <glyph glyph-name="Yacute" unicode="&#xdd;" horiz-adv-x="556" 
d="M211 116l29 151c1 7 2 18 -1 28l-83 253c-12 37 -25 53 -48 69c-14 10 -38 16 -49 16c-5 0 0 24 6 29c45 -2 69 -5 115 -5s82 3 120 5c1 -6 -2 -29 -7 -29c-13 0 -57 -6 -62 -32c-2 -8 1 -17 5 -30l81 -240c63 88 158 230 175 261c2 3 5 9 6 15s-11 25 -63 25
c-3 3 1 25 4 29c34 -2 59 -5 93 -5c48 0 65 3 103 5c0 -3 -5 -29 -8 -29c-7 0 -60 0 -89 -40l-205 -291c-8 -11 -8 -22 -10 -31l-31 -154c-6 -30 -12 -58 -10 -74c1 -11 50 -16 61 -16c3 -5 1 -24 -5 -29c-38 2 -72 5 -108 5s-72 -3 -111 -5c-4 5 1 24 6 29c11 0 62 5 67 16
c8 16 13 44 19 74zM339 711c-1 0 -6 7 -6 10c0 7 81 77 106 93c3 2 20 5 27 5c29 0 48 -11 48 -22c0 -25 -160 -86 -175 -86z" />
    <glyph glyph-name="Thorn" unicode="&#xde;" horiz-adv-x="470" 
d="M234 458c-26 -133 -66 -342 -66 -342c-6 -30 -12 -58 -10 -74c1 -11 50 -16 61 -16c3 -5 0 -24 -6 -29c-38 2 -71 5 -107 5s-72 -3 -111 -5c-4 5 0 24 5 29c11 0 63 5 68 16c8 16 13 44 19 74l83 427c6 30 11 58 9 74c-1 11 -50 16 -61 16c-3 5 0 24 6 29
c38 -2 73 -5 109 -5s71 3 110 5c4 -5 -1 -24 -6 -29c-11 0 -62 -5 -67 -16c-8 -16 -13 -44 -19 -74l-9 -43c23 9 48 11 71 11c106 0 181 -60 181 -151c0 -128 -111 -226 -233 -226c-21 0 -40 6 -45 10c-2 2 -8 11 -8 16c0 2 2 3 4 4c8 -4 24 -4 33 -4c74 0 160 74 160 186
c0 56 -13 136 -116 136c-11 0 -51 -2 -55 -24z" />
    <glyph glyph-name="germandbls" unicode="&#xdf;" horiz-adv-x="500" 
d="M204 413c-27 -146 -44 -244 -68 -370c-32 -164 -127 -276 -207 -276c-29 0 -47 12 -54 25c0 6 0 11 1 17c3 20 12 39 29 39s27 -11 38 -23c7 -7 15 -15 29 -15c39 0 59 70 90 229l60 337h-85c-1 0 -2 1 -2 3c0 10 23 34 46 34h47c32 164 127 272 207 272
c51 0 117 -34 117 -113c0 -88 -58 -119 -87 -146c-27 -25 -56 -50 -56 -74c0 -27 30 -53 53 -80c40 -46 84 -83 84 -150c0 -73 -59 -126 -138 -126c-60 0 -86 22 -100 36c-2 6 -7 18 -6 26c2 28 19 41 40 41c29 0 38 -73 87 -73c40 0 54 30 54 62c0 43 -49 98 -75 128
c-29 33 -56 62 -56 108c0 45 24 56 79 111c28 28 53 60 53 112c0 61 -43 95 -84 95c-44 0 -67 -70 -96 -229z" />
    <glyph glyph-name="agrave" unicode="&#xe0;" 
d="M305 435c35 0 59 -6 78 -13l-61 -316c-3 -12 -11 -57 6 -57c21 0 67 55 70 58c3 0 10 -13 10 -19c-11 -19 -84 -94 -131 -94c-21 0 -34 22 -34 52c0 8 3 32 7 53c3 18 4 24 5 31c-20 -36 -89 -135 -147 -135c-54 0 -89 48 -89 118c0 174 164 322 286 322zM259 395
c-77 0 -166 -129 -166 -244c0 -62 16 -98 51 -98c50 0 121 125 140 221l21 106c-9 10 -33 15 -46 15zM332 502c-15 0 -163 82 -163 101c0 23 26 30 39 30c15 0 27 -3 37 -10c13 -9 95 -103 95 -111c0 -3 -5 -10 -8 -10z" />
    <glyph glyph-name="aacute" unicode="&#xe1;" 
d="M305 435c35 0 59 -6 78 -13l-61 -316c-3 -12 -11 -57 6 -57c21 0 67 55 70 58c3 0 10 -13 10 -19c-11 -19 -84 -94 -131 -94c-21 0 -34 22 -34 52c0 8 3 32 7 53c3 18 4 24 5 31c-20 -36 -89 -135 -147 -135c-54 0 -89 48 -89 118c0 174 164 322 286 322zM259 395
c-77 0 -166 -129 -166 -244c0 -62 16 -98 51 -98c50 0 121 125 140 221l21 106c-9 10 -33 15 -46 15zM250 502c-3 0 -8 7 -8 10c0 8 82 102 95 111c10 7 22 10 37 10c13 0 39 -7 39 -30c0 -19 -148 -101 -163 -101z" />
    <glyph glyph-name="acircumflex" unicode="&#xe2;" 
d="M296 629c4 0 7 -4 9 -8c25 -47 39 -71 68 -116c-1 -6 -8 -11 -13 -11c-31 24 -78 64 -78 64s-66 -39 -105 -64c-5 0 -10 5 -9 11c47 45 72 69 116 116c4 4 8 8 12 8zM305 435c35 0 59 -6 78 -13l-61 -316c-3 -12 -11 -57 6 -57c21 0 67 55 70 58c3 0 10 -13 10 -19
c-11 -19 -84 -94 -131 -94c-21 0 -34 22 -34 52c0 8 3 32 7 53c3 18 4 24 5 31c-20 -36 -89 -135 -147 -135c-54 0 -89 48 -89 118c0 174 164 322 286 322zM259 395c-77 0 -166 -129 -166 -244c0 -62 16 -98 51 -98c50 0 121 125 140 221l21 106c-9 10 -33 15 -46 15z" />
    <glyph glyph-name="atilde" unicode="&#xe3;" 
d="M227 584c23 0 40 -5 56 -13c20 -9 36 -23 65 -23c32 0 58 29 65 36c3 -1 7 -2 6 -9c-2 -14 -12 -29 -21 -37c-26 -24 -51 -32 -78 -32c-23 0 -38 6 -55 14c-19 9 -38 22 -67 22c-32 0 -58 -29 -65 -36c-3 1 -6 3 -5 10c2 14 11 28 20 36c26 24 52 32 79 32zM305 435
c35 0 59 -6 78 -13l-61 -316c-3 -12 -11 -57 6 -57c21 0 67 55 70 58c3 0 10 -13 10 -19c-11 -19 -84 -94 -131 -94c-21 0 -34 22 -34 52c0 8 3 32 7 53c3 18 4 24 5 31c-20 -36 -89 -135 -147 -135c-54 0 -89 48 -89 118c0 174 164 322 286 322zM259 395
c-77 0 -166 -129 -166 -244c0 -62 16 -98 51 -98c50 0 121 125 140 221l21 106c-9 10 -33 15 -46 15z" />
    <glyph glyph-name="adieresis" unicode="&#xe4;" 
d="M305 435c35 0 59 -6 78 -13l-61 -316c-3 -12 -11 -57 6 -57c21 0 67 55 70 58c3 0 10 -13 10 -19c-11 -19 -84 -94 -131 -94c-21 0 -34 22 -34 52c0 8 3 32 7 53c3 18 4 24 5 31c-20 -36 -89 -135 -147 -135c-54 0 -89 48 -89 118c0 174 164 322 286 322zM259 395
c-77 0 -166 -129 -166 -244c0 -62 16 -98 51 -98c50 0 121 125 140 221l21 106c-9 10 -33 15 -46 15zM372 603c23 0 38 -22 33 -47s-29 -45 -52 -45s-40 21 -35 46s31 46 54 46zM201 603c23 0 39 -22 34 -47s-29 -45 -52 -45s-40 21 -35 46s30 46 53 46z" />
    <glyph glyph-name="aring" unicode="&#xe5;" 
d="M251 586c-6 -31 12 -56 40 -56s56 25 62 56s-12 55 -40 55s-56 -24 -62 -55zM220 586c10 49 55 89 100 89s73 -40 63 -89s-53 -90 -98 -90s-75 41 -65 90zM305 435c35 0 59 -6 78 -13l-61 -316c-3 -12 -11 -57 6 -57c21 0 67 55 70 58c3 0 10 -13 10 -19
c-11 -19 -84 -94 -131 -94c-21 0 -34 22 -34 52c0 8 3 32 7 53c3 18 4 24 5 31c-20 -36 -89 -135 -147 -135c-54 0 -89 48 -89 118c0 174 164 322 286 322zM259 395c-77 0 -166 -129 -166 -244c0 -62 16 -98 51 -98c50 0 121 125 140 221l21 106c-9 10 -33 15 -46 15z" />
    <glyph glyph-name="ae" unicode="&#xe6;" horiz-adv-x="559" 
d="M421 394c-63 0 -106 -92 -115 -164c39 0 156 50 156 124c0 25 -21 40 -41 40zM217 108l15 93c-44 -9 -76 -19 -98 -31c-43 -22 -52 -47 -52 -69c0 -32 19 -55 45 -55c32 0 89 53 90 62zM251 435c41 0 68 -34 72 -69c33 38 92 69 145 69c68 0 68 -51 68 -65
c0 -88 -161 -161 -235 -171c-1 -6 -4 -28 -4 -41c0 -63 22 -105 70 -105c42 0 98 65 102 69c3 0 11 -12 12 -20c-36 -51 -102 -108 -153 -108c-41 0 -90 28 -104 76c-17 -22 -107 -78 -134 -78c-42 0 -84 26 -84 88c0 46 35 84 59 100c15 10 130 42 167 54c7 2 6 10 9 23
l11 60c2 8 2 17 2 21c0 24 -20 59 -56 59c-30 0 -44 -21 -57 -58c-12 -32 -29 -45 -51 -45c-21 0 -23 20 -23 29c0 13 6 25 11 33c29 25 108 79 173 79z" />
    <glyph glyph-name="ccedilla" unicode="&#xe7;" horiz-adv-x="359" 
d="M126 -22h23c24 0 37 -23 32 -49c-9 -47 -54 -76 -102 -76c-11 0 -25 5 -30 9c0 5 -1 8 0 14c1 7 9 14 15 14c11 0 17 -13 32 -13c26 0 44 16 47 33c5 24 -10 34 -22 34c-10 0 -16 -3 -26 -7c-2 0 -10 9 -7 13c11 15 30 37 40 51h19zM275 435c32 0 49 -14 62 -25
c3 -4 9 -16 9 -27c0 -23 -11 -45 -34 -45c-14 0 -29 8 -36 20c-10 16 -23 36 -52 36c-55 0 -122 -98 -122 -232c0 -35 6 -109 69 -109c45 0 100 66 103 69c3 0 12 -14 12 -20c-11 -19 -88 -108 -151 -108c-71 0 -111 53 -111 146c0 160 148 295 251 295z" />
    <glyph glyph-name="egrave" unicode="&#xe8;" horiz-adv-x="363" 
d="M274 435c51 0 66 -32 66 -62c0 -96 -175 -180 -237 -180c-1 -3 -2 -27 -2 -32c0 -61 19 -108 69 -108c45 0 100 66 103 69c3 0 12 -14 12 -20c-13 -22 -89 -108 -152 -108c-71 0 -110 52 -110 145c0 148 136 296 251 296zM105 218c39 0 161 62 161 136
c0 27 -23 40 -42 40c-69 0 -114 -125 -119 -176zM299 502c-15 0 -163 82 -163 101c0 23 26 30 39 30c15 0 27 -3 37 -10c13 -9 95 -103 95 -111c0 -3 -5 -10 -8 -10z" />
    <glyph glyph-name="eacute" unicode="&#xe9;" horiz-adv-x="363" 
d="M274 435c51 0 66 -32 66 -62c0 -96 -175 -180 -237 -180c-1 -3 -2 -27 -2 -32c0 -61 19 -108 69 -108c45 0 100 66 103 69c3 0 12 -14 12 -20c-13 -22 -89 -108 -152 -108c-71 0 -110 52 -110 145c0 148 136 296 251 296zM105 218c39 0 161 62 161 136
c0 27 -23 40 -42 40c-69 0 -114 -125 -119 -176zM225 502c-3 0 -8 7 -8 10c0 8 82 102 95 111c10 7 22 10 37 10c13 0 39 -7 39 -30c0 -19 -148 -101 -163 -101z" />
    <glyph glyph-name="ecircumflex" unicode="&#xea;" horiz-adv-x="363" 
d="M271 629c4 0 7 -4 9 -8c25 -47 39 -71 68 -116c-1 -6 -8 -11 -13 -11c-31 24 -78 64 -78 64s-66 -39 -105 -64c-5 0 -10 5 -9 11c47 45 72 69 116 116c4 4 8 8 12 8zM274 435c51 0 66 -32 66 -62c0 -96 -175 -180 -237 -180c-1 -3 -2 -27 -2 -32c0 -61 19 -108 69 -108
c45 0 100 66 103 69c3 0 12 -14 12 -20c-13 -22 -89 -108 -152 -108c-71 0 -110 52 -110 145c0 148 136 296 251 296zM105 218c39 0 161 62 161 136c0 27 -23 40 -42 40c-69 0 -114 -125 -119 -176z" />
    <glyph glyph-name="edieresis" unicode="&#xeb;" horiz-adv-x="363" 
d="M274 435c51 0 66 -32 66 -62c0 -96 -175 -180 -237 -180c-1 -3 -2 -27 -2 -32c0 -61 19 -108 69 -108c45 0 100 66 103 69c3 0 12 -14 12 -20c-13 -22 -89 -108 -152 -108c-71 0 -110 52 -110 145c0 148 136 296 251 296zM105 218c39 0 161 62 161 136
c0 27 -23 40 -42 40c-69 0 -114 -125 -119 -176zM337 603c23 0 38 -22 33 -47s-29 -45 -52 -45s-40 21 -35 46s31 46 54 46zM166 603c23 0 39 -22 34 -47s-29 -45 -52 -45s-40 21 -35 46s30 46 53 46z" />
    <glyph glyph-name="igrave" unicode="&#xec;" horiz-adv-x="262" 
d="M114 323c1 6 4 27 4 32c0 9 0 25 -10 25c-21 0 -67 -55 -70 -58c-3 0 -10 13 -10 19c11 19 79 94 126 94c21 0 39 -22 39 -52c0 -8 -3 -32 -7 -53l-51 -224c-2 -10 -4 -27 -4 -32c0 -9 0 -25 10 -25c21 0 67 55 70 58c3 0 10 -13 10 -19c-11 -19 -84 -94 -131 -94
c-21 0 -34 22 -34 52c0 8 3 32 7 53zM192 469c-15 0 -163 82 -163 101c0 23 26 30 39 30c15 0 27 -3 37 -10c13 -9 95 -103 95 -111c0 -3 -5 -10 -8 -10z" />
    <glyph glyph-name="iacute" unicode="&#xed;" horiz-adv-x="262" 
d="M114 323c1 6 4 27 4 32c0 9 0 25 -10 25c-21 0 -67 -55 -70 -58c-3 0 -10 13 -10 19c11 19 79 94 126 94c21 0 39 -22 39 -52c0 -8 -3 -32 -7 -53l-51 -224c-2 -10 -4 -27 -4 -32c0 -9 0 -25 10 -25c21 0 67 55 70 58c3 0 10 -13 10 -19c-11 -19 -84 -94 -131 -94
c-21 0 -34 22 -34 52c0 8 3 32 7 53zM106 502c-3 0 -8 7 -8 10c0 8 82 102 95 111c10 7 22 10 37 10c13 0 39 -7 39 -30c0 -19 -148 -101 -163 -101z" />
    <glyph glyph-name="icircumflex" unicode="&#xee;" horiz-adv-x="262" 
d="M180 629c4 0 7 -4 9 -8c25 -47 39 -71 68 -116c-1 -6 -8 -11 -13 -11c-31 24 -78 64 -78 64s-66 -39 -105 -64c-5 0 -10 5 -9 11c47 45 72 69 116 116c4 4 8 8 12 8zM114 323c1 6 4 27 4 32c0 9 0 25 -10 25c-21 0 -67 -55 -70 -58c-3 0 -10 13 -10 19
c11 19 79 94 126 94c21 0 39 -22 39 -52c0 -8 -3 -32 -7 -53l-51 -224c-2 -10 -4 -27 -4 -32c0 -9 0 -25 10 -25c21 0 67 55 70 58c3 0 10 -13 10 -19c-11 -19 -84 -94 -131 -94c-21 0 -34 22 -34 52c0 8 3 32 7 53z" />
    <glyph glyph-name="idieresis" unicode="&#xef;" horiz-adv-x="262" 
d="M114 323c1 6 4 27 4 32c0 9 0 25 -10 25c-21 0 -67 -55 -70 -58c-3 0 -10 13 -10 19c11 19 79 94 126 94c21 0 39 -22 39 -52c0 -8 -3 -32 -7 -53l-51 -224c-2 -10 -4 -27 -4 -32c0 -9 0 -25 10 -25c21 0 67 55 70 58c3 0 10 -13 10 -19c-11 -19 -84 -94 -131 -94
c-21 0 -34 22 -34 52c0 8 3 32 7 53zM248 607c21 0 37 -19 37 -40c0 -31 -23 -60 -54 -60c-22 0 -34 22 -34 44c0 30 21 56 51 56zM115 607c21 0 37 -19 37 -40c0 -31 -23 -60 -54 -60c-22 0 -34 22 -34 44c0 30 21 56 51 56z" />
    <glyph glyph-name="eth" unicode="&#xf0;" horiz-adv-x="437" 
d="M251 403c-65 0 -134 -111 -134 -245c0 -46 8 -131 58 -131c64 0 130 108 130 246c0 27 -1 67 -3 80c-4 27 -28 50 -51 50zM259 435c21 0 42 -2 54 -9c1 43 -16 103 -51 153l-106 -70c-6 5 -14 24 -9 32l96 63c-28 32 -64 57 -108 68c1 7 6 16 13 16c52 -9 95 -30 130 -60
l115 76c6 -6 13 -26 10 -31l-102 -68c58 -65 87 -158 87 -252c0 -219 -122 -358 -235 -358c-89 0 -114 77 -114 145c0 110 93 295 220 295z" />
    <glyph glyph-name="ntilde" unicode="&#xf1;" horiz-adv-x="497" 
d="M229 584c23 0 40 -5 56 -13c20 -9 36 -23 65 -23c32 0 58 29 65 36c3 -1 7 -2 6 -9c-2 -14 -12 -29 -21 -37c-26 -24 -51 -32 -78 -32c-23 0 -38 6 -55 14c-19 9 -38 22 -67 22c-32 0 -58 -29 -65 -36c-3 1 -6 3 -5 10c2 14 11 28 20 36c26 24 52 32 79 32zM179 330
l-18 -84c13 25 129 189 196 189c46 0 62 -25 62 -66c0 -31 -7 -75 -14 -109l-33 -154c-2 -10 -4 -27 -4 -32c0 -9 0 -25 10 -25c21 0 67 55 70 58c3 0 10 -13 10 -19c-11 -19 -84 -94 -131 -94c-21 0 -34 22 -34 52c0 8 3 32 7 53l35 165c2 9 7 43 7 54c0 26 -1 43 -19 43
c-37 0 -161 -114 -185 -239c-9 -48 -15 -74 -25 -122c-12 -3 -22 -4 -36 -4s-23 1 -35 4l66 323c1 6 4 27 4 32c0 9 0 25 -10 25c-21 0 -67 -55 -70 -58c-3 0 -10 13 -10 19c11 19 79 94 126 94c21 0 39 -22 39 -52c0 -8 -3 -32 -8 -53z" />
    <glyph glyph-name="ograve" unicode="&#xf2;" horiz-adv-x="414" 
d="M237 403c-84 0 -135 -145 -135 -245c0 -80 21 -131 57 -131c83 0 131 146 131 246c0 80 -17 130 -53 130zM251 435c80 0 117 -61 117 -147c0 -140 -113 -293 -228 -293c-80 0 -116 57 -116 143c0 140 112 297 227 297zM305 469c-15 0 -163 82 -163 101c0 23 26 30 39 30
c15 0 27 -3 37 -10c13 -9 95 -103 95 -111c0 -3 -5 -10 -8 -10z" />
    <glyph glyph-name="oacute" unicode="&#xf3;" horiz-adv-x="414" 
d="M237 403c-84 0 -135 -145 -135 -245c0 -80 21 -131 57 -131c83 0 131 146 131 246c0 80 -17 130 -53 130zM251 435c80 0 117 -61 117 -147c0 -140 -113 -293 -228 -293c-80 0 -116 57 -116 143c0 140 112 297 227 297zM209 502c-3 0 -8 7 -8 10c0 8 82 102 95 111
c10 7 22 10 37 10c13 0 39 -7 39 -30c0 -19 -148 -101 -163 -101z" />
    <glyph glyph-name="ocircumflex" unicode="&#xf4;" horiz-adv-x="414" 
d="M275 629c4 0 7 -4 9 -8c25 -47 39 -71 68 -116c-1 -6 -8 -11 -13 -11c-31 24 -78 64 -78 64s-66 -39 -105 -64c-5 0 -10 5 -9 11c47 45 72 69 116 116c4 4 8 8 12 8zM237 403c-84 0 -135 -145 -135 -245c0 -80 21 -131 57 -131c83 0 131 146 131 246
c0 80 -17 130 -53 130zM251 435c80 0 117 -61 117 -147c0 -140 -113 -293 -228 -293c-80 0 -116 57 -116 143c0 140 112 297 227 297z" />
    <glyph glyph-name="otilde" unicode="&#xf5;" horiz-adv-x="414" 
d="M213 584c23 0 40 -5 56 -13c20 -9 36 -23 65 -23c32 0 58 29 65 36c3 -1 7 -2 6 -9c-2 -14 -12 -29 -21 -37c-26 -24 -51 -32 -78 -32c-23 0 -38 6 -55 14c-19 9 -38 22 -67 22c-32 0 -58 -29 -65 -36c-3 1 -6 3 -5 10c2 14 11 28 20 36c26 24 52 32 79 32zM237 403
c-84 0 -135 -145 -135 -245c0 -80 21 -131 57 -131c83 0 131 146 131 246c0 80 -17 130 -53 130zM251 435c80 0 117 -61 117 -147c0 -140 -113 -293 -228 -293c-80 0 -116 57 -116 143c0 140 112 297 227 297z" />
    <glyph glyph-name="odieresis" unicode="&#xf6;" horiz-adv-x="414" 
d="M237 403c-84 0 -135 -145 -135 -245c0 -80 21 -131 57 -131c83 0 131 146 131 246c0 80 -17 130 -53 130zM251 435c80 0 117 -61 117 -147c0 -140 -113 -293 -228 -293c-80 0 -116 57 -116 143c0 140 112 297 227 297zM361 603c23 0 38 -22 33 -47s-29 -45 -52 -45
s-40 21 -35 46s31 46 54 46zM190 603c23 0 39 -22 34 -47s-29 -45 -52 -45s-40 21 -35 46s30 46 53 46z" />
    <glyph glyph-name="divide" unicode="&#xf7;" horiz-adv-x="507" 
d="M37 224c-3 0 -4 5 -4 10c0 11 5 29 10 37h421c2 0 3 -3 3 -8c0 -13 -6 -29 -12 -39h-418zM294 490c21 0 37 -19 37 -40c0 -31 -23 -60 -54 -60c-22 0 -34 22 -34 44c0 30 21 56 51 56zM220 104c21 0 36 -19 36 -40c0 -31 -22 -60 -53 -60c-22 0 -34 22 -34 44
c0 30 21 56 51 56z" />
    <glyph glyph-name="oslash" unicode="&#xf8;" horiz-adv-x="414" 
d="M52 0c-6 3 -23 14 -19 20l308 399c6 -3 23 -13 19 -19zM237 403c-84 0 -135 -145 -135 -245c0 -80 21 -131 57 -131c83 0 131 146 131 246c0 80 -17 130 -53 130zM251 435c80 0 117 -61 117 -147c0 -140 -113 -293 -228 -293c-80 0 -116 57 -116 143
c0 140 112 297 227 297z" />
    <glyph glyph-name="ugrave" unicode="&#xf9;" horiz-adv-x="491" 
d="M292 99c6 34 11 53 18 87c-26 -56 -135 -192 -201 -192c-39 0 -50 34 -50 72c0 28 8 74 14 103l33 154c1 6 4 27 4 32c0 9 0 25 -10 25c-21 0 -67 -55 -70 -58c-3 0 -10 13 -10 19c11 19 79 94 126 94c21 0 39 -22 39 -52c0 -8 -3 -32 -7 -53l-35 -165
c-2 -9 -7 -43 -7 -54c0 -23 2 -43 19 -43c36 0 155 126 179 251c8 41 14 68 22 110c10 3 21 4 31 4s27 -1 39 -4l-62 -323c-2 -10 -4 -27 -4 -32c0 -9 0 -25 10 -25c21 0 67 55 70 58c3 0 10 -13 10 -19c-11 -19 -84 -94 -131 -94c-21 0 -34 22 -34 52c0 8 3 32 7 53z
M318 469c-15 0 -163 82 -163 101c0 23 26 30 39 30c15 0 27 -3 37 -10c13 -9 95 -103 95 -111c0 -3 -5 -10 -8 -10z" />
    <glyph glyph-name="uacute" unicode="&#xfa;" horiz-adv-x="491" 
d="M292 99c6 34 11 53 18 87c-26 -56 -135 -192 -201 -192c-39 0 -50 34 -50 72c0 28 8 74 14 103l33 154c1 6 4 27 4 32c0 9 0 25 -10 25c-21 0 -67 -55 -70 -58c-3 0 -10 13 -10 19c11 19 79 94 126 94c21 0 39 -22 39 -52c0 -8 -3 -32 -7 -53l-35 -165
c-2 -9 -7 -43 -7 -54c0 -23 2 -43 19 -43c36 0 155 126 179 251c8 41 14 68 22 110c10 3 21 4 31 4s27 -1 39 -4l-62 -323c-2 -10 -4 -27 -4 -32c0 -9 0 -25 10 -25c21 0 67 55 70 58c3 0 10 -13 10 -19c-11 -19 -84 -94 -131 -94c-21 0 -34 22 -34 52c0 8 3 32 7 53z
M224 502c-3 0 -8 7 -8 10c0 8 82 102 95 111c10 7 22 10 37 10c13 0 39 -7 39 -30c0 -19 -148 -101 -163 -101z" />
    <glyph glyph-name="ucircumflex" unicode="&#xfb;" horiz-adv-x="491" 
d="M290 629c4 0 7 -4 9 -8c25 -47 39 -71 68 -116c-1 -6 -8 -11 -13 -11c-31 24 -78 64 -78 64s-66 -39 -105 -64c-5 0 -10 5 -9 11c47 45 72 69 116 116c4 4 8 8 12 8zM292 99c6 34 11 53 18 87c-26 -56 -135 -192 -201 -192c-39 0 -50 34 -50 72c0 28 8 74 14 103l33 154
c1 6 4 27 4 32c0 9 0 25 -10 25c-21 0 -67 -55 -70 -58c-3 0 -10 13 -10 19c11 19 79 94 126 94c21 0 39 -22 39 -52c0 -8 -3 -32 -7 -53l-35 -165c-2 -9 -7 -43 -7 -54c0 -23 2 -43 19 -43c36 0 155 126 179 251c8 41 14 68 22 110c10 3 21 4 31 4s27 -1 39 -4l-62 -323
c-2 -10 -4 -27 -4 -32c0 -9 0 -25 10 -25c21 0 67 55 70 58c3 0 10 -13 10 -19c-11 -19 -84 -94 -131 -94c-21 0 -34 22 -34 52c0 8 3 32 7 53z" />
    <glyph glyph-name="udieresis" unicode="&#xfc;" horiz-adv-x="491" 
d="M292 99c6 34 11 53 18 87c-26 -56 -135 -192 -201 -192c-39 0 -50 34 -50 72c0 28 8 74 14 103l33 154c1 6 4 27 4 32c0 9 0 25 -10 25c-21 0 -67 -55 -70 -58c-3 0 -10 13 -10 19c11 19 79 94 126 94c21 0 39 -22 39 -52c0 -8 -3 -32 -7 -53l-35 -165
c-2 -9 -7 -43 -7 -54c0 -23 2 -43 19 -43c36 0 155 126 179 251c8 41 14 68 22 110c10 3 21 4 31 4s27 -1 39 -4l-62 -323c-2 -10 -4 -27 -4 -32c0 -9 0 -25 10 -25c21 0 67 55 70 58c3 0 10 -13 10 -19c-11 -19 -84 -94 -131 -94c-21 0 -34 22 -34 52c0 8 3 32 7 53z
M374 603c23 0 38 -22 33 -47s-29 -45 -52 -45s-40 21 -35 46s31 46 54 46zM203 603c23 0 39 -22 34 -47s-29 -45 -52 -45s-40 21 -35 46s30 46 53 46z" />
    <glyph glyph-name="yacute" unicode="&#xfd;" horiz-adv-x="447" 
d="M132 435c86 0 89 -359 89 -420c36 44 115 161 115 270c0 61 -14 86 -25 107c8 26 26 43 50 43c42 0 44 -57 44 -79c0 -234 -321 -589 -456 -589c-36 0 -60 19 -60 41c0 17 8 36 23 44c15 -9 58 -19 80 -19c62 0 103 35 136 83c23 34 18 103 18 146c0 114 -11 318 -60 318
c-21 0 -67 -55 -70 -58c-3 0 -10 13 -10 19c11 19 79 94 126 94zM237 502c-3 0 -8 7 -8 10c0 8 82 102 95 111c10 7 22 10 37 10c13 0 39 -7 39 -30c0 -19 -148 -101 -163 -101z" />
    <glyph glyph-name="thorn" unicode="&#xfe;" 
d="M221 592c-3 -19 -47 -239 -48 -246c27 25 97 89 148 89c64 0 87 -51 87 -121c0 -155 -130 -319 -252 -319c-17 0 -40 3 -46 13l-33 -153c-2 -9 -3 -18 -3 -28c0 -5 4 -20 14 -23c17 -4 44 -3 47 -3c4 -1 2 -26 -3 -28c-13 0 -24 1 -35 1c-51 0 -90 -2 -148 -9
c-5 1 -4 26 1 29c18 0 31 5 40 16c7 9 11 20 16 43l79 397l-48 -48c-4 5 -6 15 -6 20c0 4 2 6 3 7l59 63l51 268c3 18 9 42 9 53c0 19 -45 19 -61 19c-3 4 0 17 4 21c55 5 110 25 132 33c5 -3 6 -13 6 -19c0 -8 -8 -50 -13 -75zM281 380c-33 0 -91 -42 -118 -80l-33 -169
c-11 -59 17 -101 47 -101c85 0 157 154 157 273c0 55 -21 77 -53 77z" />
    <glyph glyph-name="ydieresis" unicode="&#xff;" horiz-adv-x="447" 
d="M132 435c86 0 89 -359 89 -420c36 44 115 161 115 270c0 61 -14 86 -25 107c8 26 26 43 50 43c42 0 44 -57 44 -79c0 -234 -321 -589 -456 -589c-36 0 -60 19 -60 41c0 17 8 36 23 44c15 -9 58 -19 80 -19c62 0 103 35 136 83c23 34 18 103 18 146c0 114 -11 318 -60 318
c-21 0 -67 -55 -70 -58c-3 0 -10 13 -10 19c11 19 79 94 126 94zM355 603c23 0 38 -22 33 -47s-29 -45 -52 -45s-40 21 -35 46s31 46 54 46zM184 603c23 0 39 -22 34 -47s-29 -45 -52 -45s-40 21 -35 46s30 46 53 46z" />
    <glyph glyph-name="Amacron" unicode="&#x100;" horiz-adv-x="586" 
d="M341 26c35 0 57 11 57 31c0 10 0 30 -3 49l-22 150h-199c-34 -62 -62 -114 -71 -131c-18 -35 -29 -60 -29 -75c0 -21 55 -24 62 -24c2 -3 -1 -23 -4 -29c-37 2 -48 5 -89 5c-43 0 -55 -3 -98 -5c-2 3 2 22 6 29c11 0 45 6 57 19c24 26 42 58 62 94l276 495
c9 16 32 29 40 29c3 0 4 -2 5 -3l86 -534c6 -37 10 -64 11 -68c6 -29 56 -32 63 -32c3 -7 -1 -26 -3 -29c-37 2 -68 5 -109 5c-43 0 -61 -3 -104 -5c-4 5 0 24 6 29zM192 289h175l-38 246zM512 737h-236s-3 3 -3 9c0 7 7 30 12 30h232c2 0 5 -3 5 -7c0 -5 -2 -23 -10 -32z
" />
    <glyph glyph-name="amacron" unicode="&#x101;" 
d="M305 435c35 0 59 -6 78 -13l-61 -316c-3 -12 -11 -57 6 -57c21 0 67 55 70 58c3 0 10 -13 10 -19c-11 -19 -84 -94 -131 -94c-21 0 -34 22 -34 52c0 8 3 32 7 53c3 18 4 24 5 31c-20 -36 -89 -135 -147 -135c-54 0 -89 48 -89 118c0 174 164 322 286 322zM259 395
c-77 0 -166 -129 -166 -244c0 -62 16 -98 51 -98c50 0 121 125 140 221l21 106c-9 10 -33 15 -46 15zM375 503h-210s-3 3 -3 9c0 7 7 30 12 30h206c2 0 5 -3 5 -7c0 -5 -2 -23 -10 -32z" />
    <glyph glyph-name="Abreve" unicode="&#x102;" horiz-adv-x="586" 
d="M341 26c35 0 57 11 57 31c0 10 0 30 -3 49l-22 150h-199c-34 -62 -62 -114 -71 -131c-18 -35 -29 -60 -29 -75c0 -21 55 -24 62 -24c2 -3 -1 -23 -4 -29c-37 2 -48 5 -89 5c-43 0 -55 -3 -98 -5c-2 3 2 22 6 29c11 0 45 6 57 19c24 26 42 58 62 94l276 495
c9 16 32 29 40 29c3 0 4 -2 5 -3l86 -534c6 -37 10 -64 11 -68c6 -29 56 -32 63 -32c3 -7 -1 -26 -3 -29c-37 2 -68 5 -109 5c-43 0 -61 -3 -104 -5c-4 5 0 24 6 29zM192 289h175l-38 246zM509 838c0 -3 -1 -8 -2 -10c-19 -53 -70 -100 -120 -100s-84 44 -81 101
c0 2 1 7 1 8c3 5 15 14 22 9c1 -43 28 -72 67 -72s77 29 95 72c4 4 16 -2 18 -8z" />
    <glyph glyph-name="abreve" unicode="&#x103;" 
d="M305 435c35 0 59 -6 78 -13l-61 -316c-3 -12 -11 -57 6 -57c21 0 67 55 70 58c3 0 10 -13 10 -19c-11 -19 -84 -94 -131 -94c-21 0 -34 22 -34 52c0 8 3 32 7 53c3 18 4 24 5 31c-20 -36 -89 -135 -147 -135c-54 0 -89 48 -89 118c0 174 164 322 286 322zM259 395
c-77 0 -166 -129 -166 -244c0 -62 16 -98 51 -98c50 0 121 125 140 221l21 106c-9 10 -33 15 -46 15zM399 606c0 -3 -1 -8 -2 -10c-19 -53 -70 -100 -120 -100s-84 44 -81 101c0 2 1 7 1 8c3 5 15 14 22 9c1 -43 28 -72 67 -72s77 29 95 72c4 4 16 -2 18 -8z" />
    <glyph glyph-name="Aogonek" unicode="&#x104;" horiz-adv-x="586" 
d="M488 60c5 -24 49 -34 56 -34c3 -7 -1 -26 -3 -29c-37 2 -12 3 -48 3c-109 0 -186 -104 -186 -139c0 -15 6 -32 31 -32c47 0 77 38 83 38c8 0 -3 -27 -6 -30c-26 -29 -69 -67 -111 -67c-30 0 -51 25 -51 52c0 55 63 122 108 167c21 21 37 26 37 64c0 12 -2 44 -3 53
l-22 150h-199c-34 -62 -62 -114 -71 -131c-18 -35 -29 -60 -29 -75c0 -21 55 -24 62 -24c2 -3 -1 -23 -4 -29c-37 2 -48 5 -89 5c-43 0 -55 -3 -98 -5c-2 3 2 22 6 29c11 0 45 6 57 19c24 26 42 58 62 94l276 495c9 16 32 29 40 29c3 0 4 -2 5 -3l86 -534
c2 -11 7 -46 11 -66zM192 289h175l-38 246z" />
    <glyph glyph-name="aogonek" unicode="&#x105;" 
d="M259 395c-77 0 -166 -129 -166 -244c0 -62 16 -98 51 -98c50 0 121 125 140 221l21 106c-9 10 -33 15 -46 15zM408 88c-6 -11 -36 -41 -63 -63c-37 -30 -133 -113 -133 -164c0 -15 6 -32 31 -32c47 0 77 38 83 38c8 0 -3 -27 -6 -30c-26 -29 -69 -67 -111 -67
c-30 0 -51 23 -51 50c0 51 61 129 108 176c-15 6 -23 26 -23 50c0 8 3 32 7 53c3 18 4 24 5 31c-20 -36 -89 -135 -147 -135c-54 0 -89 48 -89 118c0 174 164 322 286 322c35 0 59 -6 78 -13l-61 -316c-1 -4 -4 -27 -4 -32c0 -9 0 -25 10 -25c21 0 67 55 70 58
c3 0 10 -13 10 -19z" />
    <glyph glyph-name="Cacute" unicode="&#x106;" horiz-adv-x="645" 
d="M413 711c-1 0 -6 7 -6 10c0 7 81 77 106 93c3 2 20 5 27 5c29 0 48 -11 48 -22c0 -25 -160 -86 -175 -86zM569 173c13 0 28 -8 28 -8c-4 -20 -57 -125 -72 -137c-54 -28 -109 -36 -195 -36c-162 0 -271 125 -271 273c0 252 199 405 406 401c58 -1 112 -14 161 -26
c-2 -36 -7 -118 -10 -146c0 -3 -4 -5 -8 -5c-6 0 -15 1 -23 5c5 80 -65 141 -149 141c-156 0 -283 -136 -282 -353c0 -119 54 -261 204 -261c102 0 168 70 211 152z" />
    <glyph glyph-name="cacute" unicode="&#x107;" horiz-adv-x="359" 
d="M275 435c32 0 49 -14 62 -25c3 -4 9 -16 9 -27c0 -23 -11 -45 -34 -45c-14 0 -29 8 -36 20c-10 16 -23 36 -52 36c-55 0 -122 -98 -122 -232c0 -35 6 -109 69 -109c45 0 100 66 103 69c3 0 12 -14 12 -20c-11 -19 -88 -108 -151 -108c-71 0 -111 53 -111 146
c0 160 148 295 251 295zM236 502c-3 0 -8 7 -8 10c0 8 82 102 95 111c10 7 22 10 37 10c13 0 39 -7 39 -30c0 -19 -148 -101 -163 -101z" />
    <glyph glyph-name="Ccircumflex" unicode="&#x108;" horiz-adv-x="645" 
d="M486 836c4 0 8 -3 10 -7c26 -42 44 -67 78 -108c-1 -6 -9 -10 -15 -10c-37 25 -89 59 -89 59s-72 -35 -120 -59c-6 0 -11 4 -10 10c56 42 84 65 132 108c5 4 10 7 14 7zM569 173c13 0 28 -8 28 -8c-4 -20 -57 -125 -72 -137c-54 -28 -109 -36 -195 -36
c-162 0 -271 125 -271 273c0 252 199 405 406 401c58 -1 112 -14 161 -26c-2 -36 -7 -118 -10 -146c0 -3 -4 -5 -8 -5c-6 0 -15 1 -23 5c5 80 -65 141 -149 141c-156 0 -283 -136 -282 -353c0 -119 54 -261 204 -261c102 0 168 70 211 152z" />
    <glyph glyph-name="ccircumflex" unicode="&#x109;" horiz-adv-x="359" 
d="M278 629c4 0 7 -4 9 -8c25 -47 39 -71 68 -116c-1 -6 -8 -11 -13 -11c-31 24 -78 64 -78 64s-66 -39 -105 -64c-5 0 -10 5 -9 11c47 45 72 69 116 116c4 4 8 8 12 8zM275 435c32 0 49 -14 62 -25c3 -4 9 -16 9 -27c0 -23 -11 -45 -34 -45c-14 0 -29 8 -36 20
c-10 16 -23 36 -52 36c-55 0 -122 -98 -122 -232c0 -35 6 -109 69 -109c45 0 100 66 103 69c3 0 12 -14 12 -20c-11 -19 -88 -108 -151 -108c-71 0 -111 53 -111 146c0 160 148 295 251 295z" />
    <glyph glyph-name="Cdotaccent" unicode="&#x10a;" horiz-adv-x="645" 
d="M423 778c5 28 31 50 57 50s41 -22 36 -50s-30 -50 -56 -50s-42 22 -37 50zM569 173c13 0 28 -8 28 -8c-4 -20 -57 -125 -72 -137c-54 -28 -109 -36 -195 -36c-162 0 -271 125 -271 273c0 252 199 405 406 401c58 -1 112 -14 161 -26c-2 -36 -7 -118 -10 -146
c0 -3 -4 -5 -8 -5c-6 0 -15 1 -23 5c5 80 -65 141 -149 141c-156 0 -283 -136 -282 -353c0 -119 54 -261 204 -261c102 0 168 70 211 152z" />
    <glyph glyph-name="cdotaccent" unicode="&#x10b;" horiz-adv-x="359" 
d="M275 435c32 0 49 -14 62 -25c3 -4 9 -16 9 -27c0 -23 -11 -45 -34 -45c-14 0 -29 8 -36 20c-10 16 -23 36 -52 36c-55 0 -122 -98 -122 -232c0 -35 6 -109 69 -109c45 0 100 66 103 69c3 0 12 -14 12 -20c-11 -19 -88 -108 -151 -108c-71 0 -111 53 -111 146
c0 160 148 295 251 295zM227 596c5 28 31 50 57 50s41 -22 36 -50s-30 -50 -56 -50s-42 22 -37 50z" />
    <glyph glyph-name="Ccaron" unicode="&#x10c;" horiz-adv-x="645" 
d="M461 711c-5 0 -8 3 -10 7c-26 45 -45 66 -78 108c1 6 9 10 15 10c37 -25 89 -59 89 -59s75 36 120 59c6 0 11 -4 10 -10c-54 -42 -83 -63 -132 -108c-5 -4 -9 -7 -14 -7zM569 173c13 0 28 -8 28 -8c-4 -20 -57 -125 -72 -137c-54 -28 -109 -36 -195 -36
c-162 0 -271 125 -271 273c0 252 199 405 406 401c58 -1 112 -14 161 -26c-2 -36 -7 -118 -10 -146c0 -3 -4 -5 -8 -5c-6 0 -15 1 -23 5c5 80 -65 141 -149 141c-156 0 -283 -136 -282 -353c0 -119 54 -261 204 -261c102 0 168 70 211 152z" />
    <glyph glyph-name="ccaron" unicode="&#x10d;" horiz-adv-x="359" 
d="M257 496c-4 0 -7 4 -9 8c-25 47 -39 71 -68 116c1 6 8 11 13 11c32 -27 78 -64 78 -64s66 39 105 64c5 0 10 -5 9 -11c-47 -45 -72 -69 -116 -116c-4 -4 -8 -8 -12 -8zM275 435c32 0 49 -14 62 -25c3 -4 9 -16 9 -27c0 -23 -11 -45 -34 -45c-14 0 -29 8 -36 20
c-10 16 -23 36 -52 36c-55 0 -122 -98 -122 -232c0 -35 6 -109 69 -109c45 0 100 66 103 69c3 0 12 -14 12 -20c-11 -19 -88 -108 -151 -108c-71 0 -111 53 -111 146c0 160 148 295 251 295z" />
    <glyph glyph-name="Dcaron" unicode="&#x10e;" horiz-adv-x="684" 
d="M252 546l-85 -434c-3 -14 -11 -66 -8 -72c5 -11 39 -14 73 -14c143 0 279 92 317 287c44 226 -58 318 -211 318c-11 0 -62 -1 -67 -11c-8 -16 -13 -45 -19 -74zM368 658c215 0 313 -139 277 -324c-33 -170 -146 -336 -417 -337h-233c-4 5 1 24 6 29c11 0 62 5 67 16
c8 16 13 44 19 74l83 427c6 30 12 58 10 74c-1 11 -50 16 -61 16c-3 5 -1 24 5 29c38 -2 73 -5 109 -5s94 1 135 1zM368 711c-5 0 -8 3 -10 7c-26 45 -45 66 -78 108c1 6 9 10 15 10c37 -25 89 -59 89 -59s75 36 120 59c6 0 11 -4 10 -10c-54 -42 -83 -63 -132 -108
c-5 -4 -9 -7 -14 -7z" />
    <glyph glyph-name="dcaron" unicode="&#x10f;" horiz-adv-x="466" 
d="M296 341c4 23 -8 54 -35 54c-81 0 -168 -130 -168 -245c0 -55 14 -97 51 -97c51 0 121 126 140 223zM339 559c3 18 9 42 9 53c0 19 -45 19 -61 19c-3 4 0 17 4 21c55 5 110 25 132 33c5 -3 6 -13 6 -19c0 -8 -8 -50 -13 -75l-94 -485c-1 -4 -4 -28 -4 -33
c0 -9 0 -24 10 -24c21 0 67 55 70 58c3 0 10 -13 10 -19c-11 -19 -84 -94 -131 -94c-21 0 -34 22 -34 52c0 8 3 32 7 53c4 19 4 24 5 31c-15 -30 -88 -135 -148 -135c-62 0 -88 63 -88 121c0 157 154 319 284 319c25 0 7 0 13 0zM533 636c0 38 34 60 74 60c4 -7 5 -16 5 -28
c0 -10 -1 -21 -3 -34c-9 -45 -69 -110 -94 -124c-1 -1 -5 -1 -7 -1c-5 0 -10 7 -10 12c0 4 46 27 46 74c0 11 -11 23 -11 41z" />
    <glyph glyph-name="Dcroat" unicode="&#x110;" horiz-adv-x="684" 
d="M79 349h330c4 0 6 -4 5 -8c-1 -5 -5 -21 -10 -28h-331c-4 0 -4 7 -3 11c1 5 2 18 9 25zM252 546l-85 -434c-3 -14 -11 -66 -8 -72c5 -11 39 -14 73 -14c143 0 279 92 317 287c44 226 -58 318 -211 318c-11 0 -62 -1 -67 -11c-8 -16 -13 -45 -19 -74zM368 658
c215 0 313 -139 277 -324c-33 -170 -146 -336 -417 -337h-233c-4 5 1 24 6 29c11 0 62 5 67 16c8 16 13 44 19 74l83 427c6 30 12 58 10 74c-1 11 -50 16 -61 16c-3 5 -1 24 5 29c38 -2 73 -5 109 -5s94 1 135 1z" />
    <glyph glyph-name="dcroat" unicode="&#x111;" horiz-adv-x="446" 
d="M256 565h229c3 0 4 -4 3 -8c-1 -5 -6 -18 -11 -26h-230c-3 0 -3 7 -2 11c1 5 4 15 11 23zM296 341c4 23 -8 54 -35 54c-81 0 -168 -130 -168 -245c0 -55 14 -97 51 -97c51 0 121 126 140 223zM339 559c3 18 9 42 9 53c0 19 -45 19 -61 19c-3 4 0 17 4 21
c55 5 110 25 132 33c5 -3 6 -13 6 -19c0 -8 -8 -50 -13 -75l-94 -485c-1 -4 -4 -28 -4 -33c0 -9 0 -24 10 -24c21 0 67 55 70 58c3 0 10 -13 10 -19c-11 -19 -84 -94 -131 -94c-21 0 -34 22 -34 52c0 8 3 32 7 53c4 19 4 24 5 31c-15 -30 -88 -135 -148 -135
c-62 0 -88 63 -88 121c0 157 154 319 284 319c25 0 7 0 13 0z" />
    <glyph glyph-name="Emacron" unicode="&#x112;" horiz-adv-x="554" 
d="M233 657c87 0 199 7 300 7c-3 -50 1 -91 1 -136c-3 -3 -11 -5 -18 -5s-11 2 -11 7c-5 80 -39 100 -88 100h-80c-11 0 -61 -1 -66 -11c-8 -16 -15 -45 -20 -72l-37 -192c-1 -5 19 -6 39 -6h49c89 0 87 6 116 72c2 5 9 7 16 7s12 -2 14 -5l-36 -189c-2 -2 -9 -4 -16 -4
s-12 3 -13 8c-3 57 -6 64 -13 70c-9 7 -62 8 -97 8c-26 0 -67 0 -69 -9l-39 -198c-3 -15 -12 -64 -7 -69c10 -10 25 -10 64 -10h44c51 0 92 10 124 31c27 18 53 48 78 101c2 4 8 6 15 6c9 0 20 -3 22 -6c-28 -54 -68 -122 -83 -166c-101 0 -192 4 -316 4
c-44 0 -75 -3 -111 -3c-4 5 0 24 5 29c11 0 63 5 68 16c8 16 13 44 19 74l83 427c6 30 11 58 9 74c-1 11 -50 16 -61 16c-3 5 0 24 6 29c38 -2 73 -5 109 -5zM475 737h-236s-3 3 -3 9c0 7 7 30 12 30h232c2 0 5 -3 5 -7c0 -5 -2 -23 -10 -32z" />
    <glyph glyph-name="emacron" unicode="&#x113;" horiz-adv-x="363" 
d="M274 435c51 0 66 -32 66 -62c0 -96 -175 -180 -237 -180c-1 -3 -2 -27 -2 -32c0 -61 19 -108 69 -108c45 0 100 66 103 69c3 0 12 -14 12 -20c-13 -22 -89 -108 -152 -108c-71 0 -110 52 -110 145c0 148 136 296 251 296zM105 218c39 0 161 62 161 136
c0 27 -23 40 -42 40c-69 0 -114 -125 -119 -176zM339 503h-210s-3 3 -3 9c0 7 7 30 12 30h206c2 0 5 -3 5 -7c0 -5 -2 -23 -10 -32z" />
    <glyph glyph-name="Ebreve" unicode="&#x114;" horiz-adv-x="554" 
d="M233 657c87 0 199 7 300 7c-3 -50 1 -91 1 -136c-3 -3 -11 -5 -18 -5s-11 2 -11 7c-5 80 -39 100 -88 100h-80c-11 0 -61 -1 -66 -11c-8 -16 -15 -45 -20 -72l-37 -192c-1 -5 19 -6 39 -6h49c89 0 87 6 116 72c2 5 9 7 16 7s12 -2 14 -5l-36 -189c-2 -2 -9 -4 -16 -4
s-12 3 -13 8c-3 57 -6 64 -13 70c-9 7 -62 8 -97 8c-26 0 -67 0 -69 -9l-39 -198c-3 -15 -12 -64 -7 -69c10 -10 25 -10 64 -10h44c51 0 92 10 124 31c27 18 53 48 78 101c2 4 8 6 15 6c9 0 20 -3 22 -6c-28 -54 -68 -122 -83 -166c-101 0 -192 4 -316 4
c-44 0 -75 -3 -111 -3c-4 5 0 24 5 29c11 0 63 5 68 16c8 16 13 44 19 74l83 427c6 30 11 58 9 74c-1 11 -50 16 -61 16c-3 5 0 24 6 29c38 -2 73 -5 109 -5zM351 776c39 0 76 21 92 58c0 2 3 2 5 2c6 0 15 -7 14 -11c0 -1 -2 -5 -2 -7c-17 -46 -68 -90 -118 -90
s-84 41 -83 91v6c1 4 13 11 19 11c2 0 4 0 4 -2c2 -37 30 -58 69 -58z" />
    <glyph glyph-name="ebreve" unicode="&#x115;" horiz-adv-x="363" 
d="M274 435c51 0 66 -32 66 -62c0 -96 -175 -180 -237 -180c-1 -3 -2 -27 -2 -32c0 -61 19 -108 69 -108c45 0 100 66 103 69c3 0 12 -14 12 -20c-13 -22 -89 -108 -152 -108c-71 0 -110 52 -110 145c0 148 136 296 251 296zM105 218c39 0 161 62 161 136
c0 27 -23 40 -42 40c-69 0 -114 -125 -119 -176zM369 606c0 -3 -1 -8 -2 -10c-19 -53 -70 -100 -120 -100s-84 44 -81 101c0 2 1 7 1 8c3 5 15 14 22 9c1 -43 28 -72 67 -72s77 29 95 72c4 4 16 -2 18 -8z" />
    <glyph glyph-name="Edotaccent" unicode="&#x116;" horiz-adv-x="554" 
d="M233 657c87 0 199 7 300 7c-3 -50 1 -91 1 -136c-3 -3 -11 -5 -18 -5s-11 2 -11 7c-5 80 -39 100 -88 100h-80c-11 0 -61 -1 -66 -11c-8 -16 -15 -45 -20 -72l-37 -192c-1 -5 19 -6 39 -6h49c89 0 87 6 116 72c2 5 9 7 16 7s12 -2 14 -5l-36 -189c-2 -2 -9 -4 -16 -4
s-12 3 -13 8c-3 57 -6 64 -13 70c-9 7 -62 8 -97 8c-26 0 -67 0 -69 -9l-39 -198c-3 -15 -12 -64 -7 -69c10 -10 25 -10 64 -10h44c51 0 92 10 124 31c27 18 53 48 78 101c2 4 8 6 15 6c9 0 20 -3 22 -6c-28 -54 -68 -122 -83 -166c-101 0 -192 4 -316 4
c-44 0 -75 -3 -111 -3c-4 5 0 24 5 29c11 0 63 5 68 16c8 16 13 44 19 74l83 427c6 30 11 58 9 74c-1 11 -50 16 -61 16c-3 5 0 24 6 29c38 -2 73 -5 109 -5zM325 778c5 28 31 50 57 50s41 -22 36 -50s-30 -50 -56 -50s-42 22 -37 50z" />
    <glyph glyph-name="edotaccent" unicode="&#x117;" horiz-adv-x="363" 
d="M274 435c51 0 66 -32 66 -62c0 -96 -175 -180 -237 -180c-1 -3 -2 -27 -2 -32c0 -61 19 -108 69 -108c45 0 100 66 103 69c3 0 12 -14 12 -20c-13 -22 -89 -108 -152 -108c-71 0 -110 52 -110 145c0 148 136 296 251 296zM105 218c39 0 161 62 161 136
c0 27 -23 40 -42 40c-69 0 -114 -125 -119 -176zM234 596c5 28 31 50 57 50s41 -22 36 -50s-30 -50 -56 -50s-42 22 -37 50z" />
    <glyph glyph-name="Eogonek" unicode="&#x118;" horiz-adv-x="554" 
d="M422 -4c-95 0 -172 -85 -172 -135c0 -15 6 -32 31 -32c47 0 77 38 83 38c8 0 -3 -27 -6 -30c-26 -29 -69 -67 -111 -67c-30 0 -51 23 -51 50c0 53 64 150 121 177c-62 1 -134 3 -211 3c-44 0 -75 -3 -111 -3c-4 5 0 24 5 29c11 0 63 5 68 16c8 16 13 44 19 74l83 427
c6 30 11 58 9 74c-1 11 -50 16 -61 16c-3 5 0 24 6 29c38 -2 72 -5 109 -5c87 0 199 7 300 7c-3 -50 1 -91 1 -136c-3 -3 -11 -5 -18 -5s-11 2 -11 7c-5 80 -39 100 -88 100h-80c-11 0 -61 -1 -66 -11c-8 -16 -15 -45 -20 -72l-37 -192c-1 -5 19 -6 39 -6h49
c89 0 87 6 116 72c2 5 9 7 16 7s12 -2 14 -5l-36 -189c-2 -2 -9 -4 -16 -4s-12 3 -13 8c-3 57 -6 64 -13 70c-9 7 -62 8 -97 8c-26 0 -67 0 -69 -9l-39 -198c-3 -15 -12 -64 -7 -69c10 -10 25 -10 64 -10h44c51 0 92 10 124 31c27 18 53 48 78 101c2 4 8 6 15 6
c9 0 20 -3 22 -6c-28 -54 -68 -122 -83 -166z" />
    <glyph glyph-name="eogonek" unicode="&#x119;" horiz-adv-x="363" 
d="M105 218c39 0 161 62 161 136c0 27 -23 40 -42 40c-69 0 -114 -125 -119 -176zM20 -180c-1 49 94 150 121 174h-8c-71 0 -110 52 -110 145c0 148 136 296 251 296c51 0 66 -32 66 -62c0 -96 -175 -180 -237 -180c-1 -3 -2 -27 -2 -32c0 -61 19 -108 69 -108
c45 0 100 66 103 69c3 0 12 -14 12 -20c-5 -9 -19 -26 -41 -48c-55 -54 -171 -153 -171 -193c0 -15 6 -32 31 -32c47 0 77 38 83 38c8 0 -3 -27 -6 -30c-26 -29 -69 -67 -111 -67c-30 0 -50 23 -50 50z" />
    <glyph glyph-name="Ecaron" unicode="&#x11a;" horiz-adv-x="554" 
d="M363 711c-5 0 -8 3 -10 7c-26 45 -45 66 -78 108c1 6 9 10 15 10c37 -25 89 -59 89 -59s75 36 120 59c6 0 11 -4 10 -10c-54 -42 -83 -63 -132 -108c-5 -4 -9 -7 -14 -7zM233 657c87 0 199 7 300 7c-3 -50 1 -91 1 -136c-3 -3 -11 -5 -18 -5s-11 2 -11 7
c-5 80 -39 100 -88 100h-80c-11 0 -61 -1 -66 -11c-8 -16 -15 -45 -20 -72l-37 -192c-1 -5 19 -6 39 -6h49c89 0 87 6 116 72c2 5 9 7 16 7s12 -2 14 -5l-36 -189c-2 -2 -9 -4 -16 -4s-12 3 -13 8c-3 57 -6 64 -13 70c-9 7 -62 8 -97 8c-26 0 -67 0 -69 -9l-39 -198
c-3 -15 -12 -64 -7 -69c10 -10 25 -10 64 -10h44c51 0 92 10 124 31c27 18 53 48 78 101c2 4 8 6 15 6c9 0 20 -3 22 -6c-28 -54 -68 -122 -83 -166c-101 0 -192 4 -316 4c-44 0 -75 -3 -111 -3c-4 5 0 24 5 29c11 0 63 5 68 16c8 16 13 44 19 74l83 427c6 30 11 58 9 74
c-1 11 -50 16 -61 16c-3 5 0 24 6 29c38 -2 73 -5 109 -5z" />
    <glyph glyph-name="ecaron" unicode="&#x11b;" horiz-adv-x="363" 
d="M251 496c-4 0 -7 4 -9 8c-25 47 -39 71 -68 116c1 6 8 11 13 11c32 -27 78 -64 78 -64s66 39 105 64c5 0 10 -5 9 -11c-47 -45 -72 -69 -116 -116c-4 -4 -8 -8 -12 -8zM274 435c51 0 66 -32 66 -62c0 -96 -175 -180 -237 -180c-1 -3 -2 -27 -2 -32c0 -61 19 -108 69 -108
c45 0 100 66 103 69c3 0 12 -14 12 -20c-13 -22 -89 -108 -152 -108c-71 0 -110 52 -110 145c0 148 136 296 251 296zM105 218c39 0 161 62 161 136c0 27 -23 40 -42 40c-69 0 -114 -125 -119 -176z" />
    <glyph glyph-name="Gcircumflex" unicode="&#x11c;" horiz-adv-x="697" 
d="M502 836c4 0 8 -3 10 -7c26 -42 44 -67 78 -108c-1 -6 -9 -10 -15 -10c-37 25 -89 59 -89 59s-72 -35 -120 -59c-6 0 -11 4 -10 10c56 42 84 65 132 108c5 4 10 7 14 7zM585 494c5 80 -65 141 -149 141c-156 0 -283 -136 -282 -353c0 -119 56 -261 201 -261
c48 0 91 20 112 34c6 4 9 10 10 17c5 27 20 103 20 103c6 30 12 58 10 74c-1 11 -55 16 -66 16c-3 5 -1 24 5 29c38 -2 72 -5 108 -5s71 3 110 5c4 -5 1 -24 -4 -29c-11 0 -59 -5 -64 -16c-8 -16 -13 -44 -19 -74l-14 -71c-4 -21 2 -26 2 -36c0 -6 -4 -13 -22 -22
c-46 -24 -96 -54 -219 -54c-154 0 -265 125 -265 273c0 252 199 405 406 401c58 -1 112 -14 161 -26c-2 -36 -8 -116 -10 -146c0 -3 -4 -5 -8 -5c-6 0 -15 1 -23 5z" />
    <glyph glyph-name="gcircumflex" unicode="&#x11d;" horiz-adv-x="412" 
d="M261 630c4 0 7 -4 9 -8c25 -47 39 -71 68 -116c-1 -6 -8 -11 -13 -11c-31 24 -78 64 -78 64s-66 -39 -105 -64c-5 0 -10 5 -9 11c47 45 72 69 116 116c4 4 8 8 12 8zM278 -118c0 63 -93 94 -151 112c-40 -17 -101 -48 -101 -104c0 -67 65 -88 143 -88c67 0 109 38 109 80
zM212 407c-64 0 -98 -91 -98 -160c0 -49 20 -96 62 -96c65 0 97 81 97 143c0 49 -22 113 -61 113zM333 381c1 -6 14 -42 14 -69c0 -106 -71 -155 -91 -167c-35 -21 -115 -40 -115 -63c0 -33 201 -43 201 -160c0 -95 -91 -155 -234 -155c-90 0 -156 36 -156 98
c0 69 85 114 144 141l-18 12c-12 8 -25 18 -25 36c0 25 67 60 100 68c-32 0 -113 38 -113 117c0 113 96 197 189 197c38 0 60 -10 85 -22c14 -7 50 13 63 15c13 -4 41 -22 41 -35c0 -7 -4 -14 -12 -14c-14 0 -60 2 -73 1z" />
    <glyph glyph-name="Gbreve" unicode="&#x11e;" horiz-adv-x="697" 
d="M465 776c39 0 76 21 92 58c0 2 3 2 5 2c6 0 15 -7 14 -11c0 -1 -2 -5 -2 -7c-17 -46 -68 -90 -118 -90s-84 41 -83 91v6c1 4 13 11 19 11c2 0 4 0 4 -2c2 -37 30 -58 69 -58zM585 494c5 80 -65 141 -149 141c-156 0 -283 -136 -282 -353c0 -119 56 -261 201 -261
c48 0 91 20 112 34c6 4 9 10 10 17c5 27 20 103 20 103c6 30 12 58 10 74c-1 11 -55 16 -66 16c-3 5 -1 24 5 29c38 -2 72 -5 108 -5s71 3 110 5c4 -5 1 -24 -4 -29c-11 0 -59 -5 -64 -16c-8 -16 -13 -44 -19 -74l-14 -71c-4 -21 2 -26 2 -36c0 -6 -4 -13 -22 -22
c-46 -24 -96 -54 -219 -54c-154 0 -265 125 -265 273c0 252 199 405 406 401c58 -1 112 -14 161 -26c-2 -36 -8 -116 -10 -146c0 -3 -4 -5 -8 -5c-6 0 -15 1 -23 5z" />
    <glyph glyph-name="gbreve" unicode="&#x11f;" horiz-adv-x="412" 
d="M278 -118c0 63 -93 94 -151 112c-40 -17 -101 -48 -101 -104c0 -67 65 -88 143 -88c67 0 109 38 109 80zM212 407c-64 0 -98 -91 -98 -160c0 -49 20 -96 62 -96c65 0 97 81 97 143c0 49 -22 113 -61 113zM333 381c1 -6 14 -42 14 -69c0 -106 -71 -155 -91 -167
c-35 -21 -115 -40 -115 -63c0 -33 201 -43 201 -160c0 -95 -91 -155 -234 -155c-90 0 -156 36 -156 98c0 69 85 114 144 141l-18 12c-12 8 -25 18 -25 36c0 25 67 60 100 68c-32 0 -113 38 -113 117c0 113 96 197 189 197c38 0 60 -10 85 -22c14 -7 50 13 63 15
c13 -4 41 -22 41 -35c0 -7 -4 -14 -12 -14c-14 0 -60 2 -73 1zM351 607c0 -3 -1 -8 -2 -10c-19 -53 -70 -100 -120 -100s-84 44 -81 101c0 2 1 7 1 8c3 5 15 14 22 9c1 -43 28 -72 67 -72s77 29 95 72c4 4 16 -2 18 -8z" />
    <glyph glyph-name="Gdotaccent" unicode="&#x120;" horiz-adv-x="697" 
d="M423 778c5 28 31 50 57 50s41 -22 36 -50s-30 -50 -56 -50s-42 22 -37 50zM585 494c5 80 -65 141 -149 141c-156 0 -283 -136 -282 -353c0 -119 56 -261 201 -261c48 0 91 20 112 34c6 4 9 10 10 17c5 27 20 103 20 103c6 30 12 58 10 74c-1 11 -55 16 -66 16
c-3 5 -1 24 5 29c38 -2 72 -5 108 -5s71 3 110 5c4 -5 1 -24 -4 -29c-11 0 -59 -5 -64 -16c-8 -16 -13 -44 -19 -74l-14 -71c-4 -21 2 -26 2 -36c0 -6 -4 -13 -22 -22c-46 -24 -96 -54 -219 -54c-154 0 -265 125 -265 273c0 252 199 405 406 401c58 -1 112 -14 161 -26
c-2 -36 -8 -116 -10 -146c0 -3 -4 -5 -8 -5c-6 0 -15 1 -23 5z" />
    <glyph glyph-name="gdotaccent" unicode="&#x121;" horiz-adv-x="412" 
d="M278 -118c0 63 -93 94 -151 112c-40 -17 -101 -48 -101 -104c0 -67 65 -88 143 -88c67 0 109 38 109 80zM212 407c-64 0 -98 -91 -98 -160c0 -49 20 -96 62 -96c65 0 97 81 97 143c0 49 -22 113 -61 113zM333 381c1 -6 14 -42 14 -69c0 -106 -71 -155 -91 -167
c-35 -21 -115 -40 -115 -63c0 -33 201 -43 201 -160c0 -95 -91 -155 -234 -155c-90 0 -156 36 -156 98c0 69 85 114 144 141l-18 12c-12 8 -25 18 -25 36c0 25 67 60 100 68c-32 0 -113 38 -113 117c0 113 96 197 189 197c38 0 60 -10 85 -22c14 -7 50 13 63 15
c13 -4 41 -22 41 -35c0 -7 -4 -14 -12 -14c-14 0 -60 2 -73 1zM205 596c5 28 31 50 57 50s41 -22 36 -50s-30 -50 -56 -50s-42 22 -37 50z" />
    <glyph glyph-name="Gcommaaccent" unicode="&#x122;" horiz-adv-x="697" 
d="M273 -108c0 32 47 55 86 55c13 -10 13 -33 13 -41c0 -55 -61 -119 -94 -137c-1 -1 -4 -2 -8 -2c-12 0 -18 4 -18 7c0 6 43 20 51 61c6 30 -30 31 -30 57zM585 494c5 80 -65 141 -149 141c-156 0 -283 -136 -282 -353c0 -119 56 -261 201 -261c48 0 91 20 112 34
c6 4 9 10 10 17c5 27 20 103 20 103c6 30 12 58 10 74c-1 11 -55 16 -66 16c-3 5 -1 24 5 29c38 -2 72 -5 108 -5s71 3 110 5c4 -5 1 -24 -4 -29c-11 0 -59 -5 -64 -16c-8 -16 -13 -44 -19 -74l-14 -71c-4 -21 2 -26 2 -36c0 -6 -4 -13 -22 -22c-46 -24 -96 -54 -219 -54
c-154 0 -265 125 -265 273c0 252 199 405 406 401c58 -1 112 -14 161 -26c-2 -36 -8 -116 -10 -146c0 -3 -4 -5 -8 -5c-6 0 -15 1 -23 5z" />
    <glyph glyph-name="gcommaaccent" unicode="&#x123;" horiz-adv-x="412" 
d="M278 -118c0 63 -93 94 -151 112c-40 -17 -101 -48 -101 -104c0 -67 65 -88 143 -88c67 0 109 38 109 80zM212 407c-64 0 -98 -91 -98 -160c0 -49 20 -96 62 -96c65 0 97 81 97 143c0 49 -22 113 -61 113zM333 381c1 -6 14 -42 14 -69c0 -106 -71 -155 -91 -167
c-35 -21 -115 -40 -115 -63c0 -33 201 -43 201 -160c0 -95 -91 -155 -234 -155c-90 0 -156 36 -156 98c0 69 85 114 144 141l-18 12c-12 8 -25 18 -25 36c0 25 67 60 100 68c-32 0 -113 38 -113 117c0 113 96 197 189 197c38 0 60 -10 85 -22c14 -7 50 13 63 15
c13 -4 41 -22 41 -35c0 -7 -4 -14 -12 -14c-14 0 -60 2 -73 1zM300 545c0 -32 -47 -55 -86 -55c-13 10 -13 33 -13 41c0 55 61 119 94 137c1 1 4 2 8 2c12 0 18 -4 18 -7c0 -6 -43 -20 -51 -61c-6 -30 30 -31 30 -57z" />
    <glyph glyph-name="Hcircumflex" unicode="&#x124;" horiz-adv-x="686" 
d="M168 116c-6 -30 -12 -58 -10 -74c1 -11 50 -16 61 -16c3 -5 0 -24 -6 -29c-38 2 -71 5 -107 5s-72 -3 -111 -5c-4 5 0 24 5 29c11 0 63 5 68 16c8 16 13 44 19 74l83 427c6 30 11 58 9 74c-1 11 -50 16 -61 16c-3 5 0 24 6 29c38 -2 73 -5 109 -5s71 3 110 5
c4 -5 -1 -24 -6 -29c-11 0 -62 -5 -67 -16c-8 -16 -14 -44 -19 -74l-37 -187h292l37 187c5 30 11 58 9 74c-1 11 -50 16 -61 16c-3 5 0 24 6 29c38 -2 73 -5 109 -5s71 3 110 5c4 -5 -1 -24 -6 -29c-11 0 -62 -5 -67 -16c-8 -16 -13 -44 -19 -74l-83 -427
c-6 -30 -12 -58 -10 -74c1 -11 50 -16 61 -16c3 -5 0 -24 -6 -29c-38 2 -72 5 -108 5s-71 -3 -110 -5c-4 5 0 24 5 29c11 0 63 5 68 16c8 16 13 44 19 74l39 200h-292zM479 836c4 0 8 -3 10 -7c26 -42 44 -67 78 -108c-1 -6 -9 -10 -15 -10c-37 25 -89 59 -89 59
s-72 -35 -120 -59c-6 0 -11 4 -10 10c56 42 84 65 132 108c5 4 10 7 14 7z" />
    <glyph glyph-name="hcircumflex" unicode="&#x125;" horiz-adv-x="470" 
d="M207 591l-51 -261l-18 -92c13 25 133 197 199 197c39 0 55 -28 55 -66c0 -34 -6 -71 -14 -109l-33 -154c-1 -4 -4 -27 -4 -32c0 -9 0 -25 10 -25c21 0 67 55 70 58c3 0 10 -13 10 -19c-11 -19 -84 -94 -131 -94c-22 0 -34 22 -34 52c0 8 2 32 7 53l35 165c2 9 7 43 7 54
c0 23 -2 43 -19 43c-36 0 -156 -125 -179 -242c-6 -31 -15 -73 -25 -119c-10 -3 -26 -4 -36 -4s-22 1 -34 4l108 559c3 18 9 42 9 53c0 19 -45 19 -61 19c-3 4 0 17 4 21c55 5 110 25 132 33c5 -3 6 -13 6 -19c0 -8 -8 -50 -13 -75zM229 836c4 0 8 -3 10 -7
c26 -42 44 -67 78 -108c-1 -6 -9 -10 -15 -10c-37 25 -89 59 -89 59s-72 -35 -120 -59c-6 0 -11 4 -10 10c56 42 84 65 132 108c5 4 10 7 14 7z" />
    <glyph glyph-name="Hbar" unicode="&#x126;" horiz-adv-x="686" 
d="M116 506h552c3 0 4 -4 3 -8c-1 -5 -6 -18 -11 -26h-553c-3 0 -3 7 -2 11c1 5 4 15 11 23zM169 116c-6 -30 -12 -58 -10 -74c1 -11 50 -16 61 -16c3 -5 0 -24 -6 -29c-38 2 -71 5 -107 5s-72 -3 -111 -5c-4 5 0 24 5 29c11 0 63 5 68 16c8 16 13 44 19 74l83 427
c6 30 11 58 9 74c-1 11 -50 16 -61 16c-3 5 0 24 6 29c38 -2 73 -5 109 -5s71 3 110 5c4 -5 -1 -24 -6 -29c-11 0 -62 -5 -67 -16c-8 -16 -14 -44 -19 -74l-37 -187h292l37 187c5 30 11 58 9 74c-1 11 -50 16 -61 16c-3 5 0 24 6 29c38 -2 73 -5 109 -5s71 3 110 5
c4 -5 -1 -24 -6 -29c-11 0 -62 -5 -67 -16c-8 -16 -13 -44 -19 -74l-83 -427c-6 -30 -12 -58 -10 -74c1 -11 50 -16 61 -16c3 -5 0 -24 -6 -29c-38 2 -72 5 -108 5s-71 -3 -110 -5c-4 5 0 24 5 29c11 0 63 5 68 16c8 16 13 44 19 74l39 200h-292z" />
    <glyph glyph-name="hbar" unicode="&#x127;" horiz-adv-x="470" 
d="M89 565h229c3 0 4 -4 3 -8c-1 -5 -6 -18 -11 -26h-230c-3 0 -3 7 -2 11c1 5 4 15 11 23zM207 591l-51 -261l-18 -92c13 25 133 197 199 197c39 0 55 -28 55 -66c0 -34 -6 -71 -14 -109l-33 -154c-1 -4 -4 -27 -4 -32c0 -9 0 -25 10 -25c21 0 67 55 70 58
c3 0 10 -13 10 -19c-11 -19 -84 -94 -131 -94c-22 0 -34 22 -34 52c0 8 2 32 7 53l35 165c2 9 7 43 7 54c0 23 -2 43 -19 43c-36 0 -156 -125 -179 -242c-6 -31 -15 -73 -25 -119c-10 -3 -26 -4 -36 -4s-22 1 -34 4l108 559c3 18 9 42 9 53c0 19 -45 19 -61 19
c-3 4 0 17 4 21c55 5 110 25 132 33c5 -3 6 -13 6 -19c0 -8 -8 -50 -13 -75z" />
    <glyph glyph-name="Itilde" unicode="&#x128;" horiz-adv-x="313" 
d="M233 657c36 0 71 3 110 5c4 -5 -1 -24 -6 -29c-11 0 -62 -5 -67 -16c-8 -16 -13 -44 -19 -74l-83 -427c-6 -30 -12 -58 -10 -74c1 -11 50 -16 61 -16c3 -5 0 -24 -6 -29c-38 2 -71 5 -107 5s-72 -3 -111 -5c-4 5 0 24 5 29c11 0 63 5 68 16c8 16 13 44 19 74l83 427
c6 30 11 58 9 74c-1 11 -50 16 -61 16c-3 5 0 24 6 29c38 -2 73 -5 109 -5zM188 819c24 0 40 -2 61 -14s41 -24 72 -24c34 0 59 31 65 38c3 -1 6 -3 6 -10c0 -14 -9 -28 -18 -37c-25 -24 -49 -33 -78 -33c-24 0 -40 2 -61 14s-41 24 -72 24c-34 0 -59 -31 -65 -38
c-3 1 -7 3 -7 10c0 14 10 28 19 37c25 24 49 33 78 33z" />
    <glyph glyph-name="itilde" unicode="&#x129;" horiz-adv-x="262" 
d="M123 584c23 0 40 -5 56 -13c20 -9 36 -23 65 -23c32 0 58 29 65 36c3 -1 7 -2 6 -9c-2 -14 -12 -29 -21 -37c-26 -24 -51 -32 -78 -32c-23 0 -38 6 -55 14c-19 9 -38 22 -67 22c-32 0 -58 -29 -65 -36c-3 1 -6 3 -5 10c2 14 11 28 20 36c26 24 52 32 79 32zM117 323
c1 6 4 27 4 32c0 9 0 25 -10 25c-21 0 -67 -55 -70 -58c-3 0 -10 13 -10 19c11 19 79 94 126 94c21 0 39 -22 39 -52c0 -8 -3 -32 -7 -53l-51 -224c-2 -10 -4 -27 -4 -32c0 -9 0 -25 10 -25c21 0 67 55 70 58c3 0 10 -13 10 -19c-11 -19 -84 -94 -131 -94
c-21 0 -34 22 -34 52c0 8 3 32 7 53z" />
    <glyph glyph-name="Imacron" unicode="&#x12a;" horiz-adv-x="313" 
d="M233 657c36 0 71 3 110 5c4 -5 -1 -24 -6 -29c-11 0 -62 -5 -67 -16c-8 -16 -13 -44 -19 -74l-83 -427c-6 -30 -12 -58 -10 -74c1 -11 50 -16 61 -16c3 -5 0 -24 -6 -29c-38 2 -71 5 -107 5s-72 -3 -111 -5c-4 5 0 24 5 29c11 0 63 5 68 16c8 16 13 44 19 74l83 427
c6 30 11 58 9 74c-1 11 -50 16 -61 16c-3 5 0 24 6 29c38 -2 73 -5 109 -5zM354 737h-236s-3 3 -3 9c0 7 7 30 12 30h232c2 0 5 -3 5 -7c0 -5 -2 -23 -10 -32z" />
    <glyph glyph-name="imacron" unicode="&#x12b;" horiz-adv-x="262" 
d="M114 323c1 6 4 27 4 32c0 9 0 25 -10 25c-21 0 -67 -55 -70 -58c-3 0 -10 13 -10 19c11 19 79 94 126 94c21 0 39 -22 39 -52c0 -8 -3 -32 -7 -53l-51 -224c-2 -10 -4 -27 -4 -32c0 -9 0 -25 10 -25c21 0 67 55 70 58c3 0 10 -13 10 -19c-11 -19 -84 -94 -131 -94
c-21 0 -34 22 -34 52c0 8 3 32 7 53zM262 503h-210s-3 3 -3 9c0 7 7 30 12 30h206c2 0 5 -3 5 -7c0 -5 -2 -23 -10 -32z" />
    <glyph glyph-name="Ibreve" unicode="&#x12c;" horiz-adv-x="313" 
d="M233 657c36 0 71 3 110 5c4 -5 -1 -24 -6 -29c-11 0 -62 -5 -67 -16c-8 -16 -13 -44 -19 -74l-83 -427c-6 -30 -12 -58 -10 -74c1 -11 50 -16 61 -16c3 -5 0 -24 -6 -29c-38 2 -71 5 -107 5s-72 -3 -111 -5c-4 5 0 24 5 29c11 0 63 5 68 16c8 16 13 44 19 74l83 427
c6 30 11 58 9 74c-1 11 -50 16 -61 16c-3 5 0 24 6 29c38 -2 73 -5 109 -5zM253 776c39 0 76 21 92 58c0 2 3 2 5 2c6 0 15 -7 14 -11c0 -1 -2 -5 -2 -7c-17 -46 -68 -90 -118 -90s-84 41 -83 91v6c1 4 13 11 19 11c2 0 4 0 4 -2c2 -37 30 -58 69 -58z" />
    <glyph glyph-name="ibreve" unicode="&#x12d;" horiz-adv-x="262" 
d="M114 323c1 6 4 27 4 32c0 9 0 25 -10 25c-21 0 -67 -55 -70 -58c-3 0 -10 13 -10 19c11 19 79 94 126 94c21 0 39 -22 39 -52c0 -8 -3 -32 -7 -53l-51 -224c-2 -10 -4 -27 -4 -32c0 -9 0 -25 10 -25c21 0 67 55 70 58c3 0 10 -13 10 -19c-11 -19 -84 -94 -131 -94
c-21 0 -34 22 -34 52c0 8 3 32 7 53zM284 606c0 -3 -1 -8 -2 -10c-19 -53 -70 -100 -120 -100s-84 44 -81 101c0 2 1 7 1 8c3 5 15 14 22 9c1 -43 28 -72 67 -72s77 29 95 72c4 4 16 -2 18 -8z" />
    <glyph glyph-name="Iogonek" unicode="&#x12e;" horiz-adv-x="313" 
d="M218 26c2 -4 -4 -25 -6 -29c-16 0 -32 -3 -47 -7c-72 -21 -126 -87 -126 -129c0 -15 6 -32 31 -32c47 0 77 38 83 38c8 0 -3 -27 -6 -30c-26 -29 -69 -67 -111 -67c-30 0 -50 23 -50 50c0 62 65 155 122 182c-36 0 -75 -3 -114 -5c-4 5 0 24 5 29c11 0 63 5 68 16
c8 16 13 44 19 74l83 427c6 30 11 58 9 74c-1 11 -50 16 -61 16c-3 5 0 24 6 29c38 -2 73 -5 109 -5s71 3 110 5c4 -5 -1 -24 -6 -29c-11 0 -62 -5 -67 -16c-8 -16 -13 -44 -19 -74l-83 -427c-6 -30 -12 -58 -10 -74c1 -11 50 -16 61 -16z" />
    <glyph glyph-name="iogonek" unicode="&#x12f;" horiz-adv-x="263" 
d="M168 646c21 0 36 -19 36 -40c0 -31 -23 -60 -54 -60c-22 0 -34 21 -34 43c0 30 22 57 52 57zM218 88c-5 -9 -28 -33 -49 -52c-53 -48 -111 -124 -111 -175c0 -15 6 -32 31 -32c47 0 77 38 83 38c8 0 -3 -27 -6 -30c-26 -29 -69 -67 -111 -67c-30 0 -51 23 -51 50
c0 50 57 137 89 174h-6c-21 0 -34 22 -34 52c0 8 3 32 7 53l51 224c1 6 4 27 4 32c0 9 0 25 -10 25c-21 0 -67 -55 -70 -58c-3 0 -10 13 -10 19c11 19 79 94 126 94c21 0 39 -22 39 -52c0 -8 -3 -32 -7 -53l-51 -224c-2 -10 -4 -27 -4 -32c0 -9 0 -25 10 -25
c21 0 67 55 70 58c3 0 10 -13 10 -19z" />
    <glyph glyph-name="Idotaccent" unicode="&#x130;" horiz-adv-x="313" 
d="M233 657c36 0 71 3 110 5c4 -5 -1 -24 -6 -29c-11 0 -62 -5 -67 -16c-8 -16 -13 -44 -19 -74l-83 -427c-6 -30 -12 -58 -10 -74c1 -11 50 -16 61 -16c3 -5 0 -24 -6 -29c-38 2 -71 5 -107 5s-72 -3 -111 -5c-4 5 0 24 5 29c11 0 63 5 68 16c8 16 13 44 19 74l83 427
c6 30 11 58 9 74c-1 11 -50 16 -61 16c-3 5 0 24 6 29c38 -2 73 -5 109 -5zM213 778c5 28 31 50 57 50s41 -22 36 -50s-30 -50 -56 -50s-42 22 -37 50z" />
    <glyph glyph-name="dotlessi" unicode="&#x131;" horiz-adv-x="262" 
d="M111 323c1 6 4 27 4 32c0 9 0 25 -10 25c-21 0 -67 -55 -70 -58c-3 0 -10 13 -10 19c11 19 79 94 126 94c21 0 39 -22 39 -52c0 -8 -3 -32 -7 -53l-51 -224c-2 -10 -4 -27 -4 -32c0 -9 0 -25 10 -25c21 0 67 55 70 58c3 0 10 -13 10 -19c-11 -19 -84 -94 -131 -94
c-21 0 -34 22 -34 52c0 8 3 32 7 53z" />
    <glyph glyph-name="IJ" unicode="&#x132;" horiz-adv-x="562" 
d="M233 657c36 0 71 3 110 5c4 -5 -1 -24 -6 -29c-11 0 -62 -5 -67 -16c-8 -16 -13 -44 -19 -74l-83 -427c-6 -30 -12 -58 -10 -74c1 -11 50 -16 61 -16c3 -5 0 -24 -6 -29c-38 2 -71 5 -107 5s-72 -3 -111 -5c-4 5 0 24 5 29c11 0 63 5 68 16c8 16 13 44 19 74l83 427
c6 30 11 58 9 74c-1 11 -50 16 -61 16c-3 5 0 24 6 29c38 -2 73 -5 109 -5zM427 543c5 30 11 58 9 74c-1 11 -50 16 -61 16c-3 5 0 24 6 29c38 -2 73 -5 109 -5s71 3 110 5c4 -5 -1 -24 -6 -29c-11 0 -62 -5 -67 -16c-8 -16 -14 -44 -19 -74l-81 -427
c-50 -264 -189 -349 -269 -349c-2 3 -3 8 -3 13c0 2 1 6 1 6c112 35 156 131 191 323z" />
    <glyph glyph-name="ij" unicode="&#x133;" horiz-adv-x="455" 
d="M323 323c1 6 4 27 4 32c0 9 0 25 -10 25c-21 0 -67 -55 -70 -58c-3 0 -10 13 -10 19c11 19 79 94 126 94c21 0 39 -22 39 -52c0 -8 -3 -32 -7 -53l-55 -285c-7 -36 -28 -112 -71 -169c-42 -55 -104 -97 -139 -111c-4 3 -9 13 -9 20c67 38 120 126 142 237zM391 646
c21 0 36 -19 36 -40c0 -31 -23 -60 -54 -60c-22 0 -34 21 -34 43c0 30 22 57 52 57zM111 323c1 6 4 27 4 32c0 9 0 25 -10 25c-21 0 -67 -55 -70 -58c-3 0 -10 13 -10 19c11 19 79 94 126 94c21 0 39 -22 39 -52c0 -8 -3 -32 -7 -53l-51 -224c-2 -10 -4 -27 -4 -32
c0 -9 0 -25 10 -25c21 0 67 55 70 58c3 0 10 -13 10 -19c-11 -19 -84 -94 -131 -94c-21 0 -34 22 -34 52c0 8 3 32 7 53zM168 646c21 0 36 -19 36 -40c0 -31 -23 -60 -54 -60c-22 0 -34 21 -34 43c0 30 22 57 52 57z" />
    <glyph glyph-name="Jcircumflex" unicode="&#x134;" horiz-adv-x="313" 
d="M164 543c5 30 11 58 9 74c-1 11 -50 16 -61 16c-3 5 0 24 6 29c38 -2 73 -5 109 -5s71 3 110 5c4 -5 -1 -24 -6 -29c-11 0 -62 -5 -67 -16c-8 -16 -14 -44 -19 -74l-81 -427c-50 -264 -189 -349 -269 -349c-2 3 -3 8 -3 13c0 2 1 6 1 6c112 35 156 131 191 323zM268 836
c4 0 8 -3 10 -7c26 -42 44 -67 78 -108c-1 -6 -9 -10 -15 -10c-37 25 -89 59 -89 59s-72 -35 -120 -59c-6 0 -11 4 -10 10c56 42 84 65 132 108c5 4 10 7 14 7z" />
    <glyph glyph-name="jcircumflex" unicode="&#x135;" horiz-adv-x="249" 
d="M207 629c4 0 7 -4 9 -8c25 -47 39 -71 68 -116c-1 -6 -8 -11 -13 -11c-31 24 -78 64 -78 64s-66 -39 -105 -64c-5 0 -10 5 -9 11c47 45 72 69 116 116c4 4 8 8 12 8zM120 323c1 6 4 27 4 32c0 9 0 25 -10 25c-21 0 -67 -55 -70 -58c-3 0 -10 13 -10 19
c11 19 79 94 126 94c21 0 39 -22 39 -52c0 -8 -3 -32 -7 -53l-55 -285c-7 -36 -28 -112 -71 -169c-42 -55 -104 -97 -139 -111c-4 3 -9 13 -9 20c67 38 120 126 142 237z" />
    <glyph glyph-name="Kcommaaccent" unicode="&#x136;" horiz-adv-x="614" 
d="M209 -108c0 32 47 55 86 55c13 -10 13 -33 13 -41c0 -55 -61 -119 -94 -137c-1 -1 -4 -2 -8 -2c-12 0 -18 4 -18 7c0 6 43 20 51 61c6 30 -30 31 -30 57zM481 72c19 -23 42 -42 92 -46c4 -5 -5 -27 -6 -29c-62 0 -113 4 -130 11c-12 5 -34 15 -55 43
c-15 21 -80 124 -160 253c-1 3 -4 3 -8 3c-3 0 -7 -1 -9 -2l-37 -189c-6 -30 -11 -58 -9 -74c1 -11 50 -16 61 -16c3 -5 0 -24 -6 -29c-38 2 -72 5 -108 5s-71 -3 -110 -5c-4 5 0 24 5 29c11 0 62 5 67 16c8 16 13 44 19 74l83 427c6 30 12 58 10 74c-1 11 -50 16 -61 16
c-3 5 0 24 6 29c38 -2 73 -5 109 -5s70 3 109 5c4 -5 0 -24 -5 -29c-11 0 -63 -5 -68 -16c-8 -16 -13 -44 -19 -74l-39 -203c22 13 78 59 124 99c88 77 89 76 145 137c7 8 17 21 19 31c5 25 -39 25 -47 25c-2 6 1 21 6 30c34 -2 71 -6 105 -6c41 0 64 4 102 6
c1 -6 -3 -30 -8 -30c-9 -1 -60 0 -99 -37c-98 -94 -160 -145 -257 -229c-7 -6 -5 -11 -2 -16c68 -112 124 -205 181 -278z" />
    <glyph glyph-name="kcommaaccent" unicode="&#x137;" horiz-adv-x="460" 
d="M133 -110c0 32 47 55 86 55c13 -10 13 -33 13 -41c0 -55 -61 -119 -94 -137c-1 -1 -4 -2 -8 -2c-12 0 -18 4 -18 7c0 6 43 20 51 61c6 30 -30 31 -30 57zM325 435c39 0 75 -29 75 -68c0 -91 -100 -137 -211 -156c88 -132 116 -160 157 -160c17 0 57 42 68 56
c3 0 10 -14 10 -19c-8 -14 -78 -92 -122 -92c-79 0 -129 123 -172 195l-37 -191c-11 -3 -24 -5 -35 -5s-24 2 -36 5l109 559c4 18 9 42 9 53c0 19 -45 19 -61 19c-3 4 0 17 4 21c55 5 110 25 132 33c5 -3 6 -13 6 -19c0 -8 -8 -50 -13 -75l-52 -269c5 4 83 113 169 113z
M289 388c-58 0 -139 -97 -151 -158c67 0 184 41 184 124c0 18 -5 34 -33 34z" />
    <glyph glyph-name="kgreenlandic" unicode="&#x138;" horiz-adv-x="482" 
d="M107 323c1 6 4 27 4 32c0 9 0 25 -10 25c-21 0 -67 -55 -70 -58c-3 0 -10 13 -10 19c11 19 79 94 126 94c21 0 39 -22 39 -52c0 -8 -4 -32 -7 -53l-1 -8c5 4 83 113 169 113c39 0 75 -29 75 -68c0 -91 -100 -137 -211 -156c88 -132 116 -160 157 -160c17 0 57 42 68 56
c3 0 10 -14 10 -19c-8 -14 -78 -92 -122 -92c-79 0 -129 123 -172 195l-37 -191c-11 -3 -24 -5 -35 -5s-24 2 -36 5zM311 388c-58 0 -139 -97 -151 -158c67 0 184 41 184 124c0 18 -5 34 -33 34z" />
    <glyph glyph-name="Lacute" unicode="&#x139;" horiz-adv-x="530" 
d="M166 112c-3 -15 -13 -67 -8 -72c10 -10 25 -10 64 -10h53c35 0 77 9 108 27c30 17 60 52 85 105c2 4 8 6 15 6c9 0 20 -3 22 -6c-28 -54 -68 -122 -83 -166c-101 0 -192 4 -316 4c-44 0 -75 -3 -111 -3c-4 5 1 24 6 29c11 0 62 5 67 16c8 16 13 44 19 74l83 427
c6 30 12 58 10 74c-1 11 -50 16 -61 16c-3 5 -1 24 5 29c38 -2 73 -5 109 -5s71 3 110 5c4 -5 -1 -24 -6 -29c-11 0 -62 -5 -67 -16c-8 -16 -13 -44 -19 -74zM201 711c-1 0 -6 7 -6 10c0 7 81 77 106 93c3 2 20 5 27 5c29 0 48 -11 48 -22c0 -25 -160 -86 -175 -86z" />
    <glyph glyph-name="lacute" unicode="&#x13a;" horiz-adv-x="243" 
d="M134 559c4 18 9 42 9 53c0 19 -45 19 -61 19c-3 4 0 17 4 21c55 5 110 25 132 33c5 -3 6 -13 6 -19c0 -8 -8 -50 -13 -75l-95 -485c-1 -4 -4 -27 -4 -32c0 -9 0 -25 10 -25c21 0 67 55 70 58c3 0 10 -13 10 -19c-11 -19 -84 -94 -131 -94c-22 0 -34 22 -34 52
c0 8 3 32 7 53zM165 711c-1 0 -6 7 -6 10c0 7 81 77 106 93c3 2 20 5 27 5c29 0 48 -11 48 -22c0 -25 -160 -86 -175 -86z" />
    <glyph glyph-name="Lcommaaccent" unicode="&#x13b;" horiz-adv-x="530" 
d="M151 -109c0 32 47 55 86 55c13 -10 13 -33 13 -41c0 -55 -61 -119 -94 -137c-1 -1 -4 -2 -8 -2c-12 0 -18 4 -18 7c0 6 43 20 51 61c6 30 -30 31 -30 57zM166 112c-3 -15 -13 -67 -8 -72c10 -10 25 -10 64 -10h53c35 0 77 9 108 27c30 17 60 52 85 105c2 4 8 6 15 6
c9 0 20 -3 22 -6c-28 -54 -68 -122 -83 -166c-101 0 -192 4 -316 4c-44 0 -75 -3 -111 -3c-4 5 1 24 6 29c11 0 62 5 67 16c8 16 13 44 19 74l83 427c6 30 12 58 10 74c-1 11 -50 16 -61 16c-3 5 -1 24 5 29c38 -2 73 -5 109 -5s71 3 110 5c4 -5 -1 -24 -6 -29
c-11 0 -62 -5 -67 -16c-8 -16 -13 -44 -19 -74z" />
    <glyph glyph-name="lcommaaccent" unicode="&#x13c;" horiz-adv-x="243" 
d="M26 -108c0 32 47 55 86 55c13 -10 13 -33 13 -41c0 -55 -61 -119 -94 -137c-1 -1 -4 -2 -8 -2c-12 0 -18 4 -18 7c0 6 43 20 51 61c6 30 -30 31 -30 57zM133 559c4 18 9 42 9 53c0 19 -45 19 -61 19c-3 4 0 17 4 21c55 5 110 25 132 33c5 -3 6 -13 6 -19
c0 -8 -8 -50 -13 -75l-95 -485c-1 -4 -4 -27 -4 -32c0 -9 0 -25 10 -25c21 0 67 55 70 58c3 0 10 -13 10 -19c-11 -19 -84 -94 -131 -94c-22 0 -34 22 -34 52c0 8 3 32 7 53z" />
    <glyph glyph-name="Lcaron" unicode="&#x13d;" horiz-adv-x="583" 
d="M166 112c-3 -15 -13 -67 -8 -72c10 -10 25 -10 64 -10h53c35 0 77 9 108 27c30 17 60 52 85 105c2 4 8 6 15 6c9 0 20 -3 22 -6c-28 -54 -68 -122 -83 -166c-101 0 -192 4 -316 4c-44 0 -75 -3 -111 -3c-4 5 1 24 6 29c11 0 62 5 67 16c8 16 13 44 19 74l83 427
c6 30 12 58 10 74c-1 11 -50 16 -61 16c-3 5 -1 24 5 29c38 -2 73 -5 109 -5s71 3 110 5c4 -5 -1 -24 -6 -29c-11 0 -62 -5 -67 -16c-8 -16 -13 -44 -19 -74zM555 634c0 38 34 60 74 60c4 -7 5 -16 5 -28c0 -10 -1 -21 -3 -34c-9 -45 -69 -110 -94 -124c-1 -1 -5 -1 -7 -1
c-5 0 -10 7 -10 12c0 4 46 27 46 74c0 11 -11 23 -11 41z" />
    <glyph glyph-name="lcaron" unicode="&#x13e;" horiz-adv-x="260" 
d="M134 559c4 18 9 42 9 53c0 19 -45 19 -61 19c-3 4 0 17 4 21c55 5 110 25 132 33c5 -3 6 -13 6 -19c0 -8 -8 -50 -13 -75l-95 -485c-1 -4 -4 -27 -4 -32c0 -9 0 -25 10 -25c21 0 67 55 70 58c3 0 10 -13 10 -19c-11 -19 -84 -94 -131 -94c-22 0 -34 22 -34 52
c0 8 3 32 7 53zM313 634c0 38 34 60 74 60c4 -7 5 -16 5 -28c0 -10 -1 -21 -3 -34c-9 -45 -69 -110 -94 -124c-1 -1 -5 -1 -7 -1c-5 0 -10 7 -10 12c0 4 46 27 46 74c0 11 -11 23 -11 41z" />
    <glyph glyph-name="Ldot" unicode="&#x13f;" horiz-adv-x="530" 
d="M166 112c-3 -15 -13 -67 -8 -72c10 -10 25 -10 64 -10h53c35 0 77 9 108 27c30 17 60 52 85 105c2 4 8 6 15 6c9 0 20 -3 22 -6c-28 -54 -68 -122 -83 -166c-101 0 -192 4 -316 4c-44 0 -75 -3 -111 -3c-4 5 1 24 6 29c11 0 62 5 67 16c8 16 13 44 19 74l83 427
c6 30 12 58 10 74c-1 11 -50 16 -61 16c-3 5 -1 24 5 29c38 -2 73 -5 109 -5s71 3 110 5c4 -5 -1 -24 -6 -29c-11 0 -62 -5 -67 -16c-8 -16 -13 -44 -19 -74zM362 333c5 28 31 50 57 50s41 -22 36 -50s-30 -50 -56 -50s-42 22 -37 50z" />
    <glyph glyph-name="ldot" unicode="&#x140;" horiz-adv-x="371" 
d="M134 559c4 18 9 42 9 53c0 19 -45 19 -61 19c-3 4 0 17 4 21c55 5 110 25 132 33c5 -3 6 -13 6 -19c0 -8 -8 -50 -13 -75l-95 -485c-1 -4 -4 -27 -4 -32c0 -9 0 -25 10 -25c21 0 67 55 70 58c3 0 10 -13 10 -19c-11 -19 -84 -94 -131 -94c-22 0 -34 22 -34 52
c0 8 3 32 7 53zM265 299c5 28 31 50 57 50s41 -22 36 -50s-30 -50 -56 -50s-42 22 -37 50z" />
    <glyph glyph-name="Lslash" unicode="&#x141;" horiz-adv-x="529" 
d="M65 207l373 240c4 -5 14 -28 10 -31l-373 -238c-4 6 -14 26 -10 29zM165 112c-3 -15 -13 -67 -8 -72c10 -10 25 -10 64 -10h53c35 0 77 9 108 27c30 17 60 52 85 105c2 4 8 6 15 6c9 0 20 -3 22 -6c-28 -54 -68 -122 -83 -166c-101 0 -192 4 -316 4c-44 0 -75 -3 -111 -3
c-4 5 1 24 6 29c11 0 62 5 67 16c8 16 13 44 19 74l83 427c6 30 12 58 10 74c-1 11 -50 16 -61 16c-3 5 -1 24 5 29c38 -2 73 -5 109 -5s71 3 110 5c4 -5 -1 -24 -6 -29c-11 0 -62 -5 -67 -16c-8 -16 -13 -44 -19 -74z" />
    <glyph glyph-name="lslash" unicode="&#x142;" horiz-adv-x="245" 
d="M42 288l198 135c3 -5 13 -24 8 -27l-199 -136c-4 6 -12 25 -7 28zM134 559c4 18 9 42 9 53c0 19 -45 19 -61 19c-3 4 0 17 4 21c55 5 110 25 132 33c5 -3 6 -13 6 -19c0 -8 -8 -50 -13 -75l-95 -485c-1 -4 -4 -27 -4 -32c0 -9 0 -25 10 -25c21 0 67 55 70 58
c3 0 10 -13 10 -19c-11 -19 -84 -94 -131 -94c-22 0 -34 22 -34 52c0 8 3 32 7 53z" />
    <glyph glyph-name="Nacute" unicode="&#x143;" horiz-adv-x="732" 
d="M628 541c7 36 9 56 3 72c-5 14 -52 20 -67 20c-3 7 0 24 3 29c37 -2 61 -4 102 -4c43 0 61 2 104 4c2 -5 3 -18 -4 -29c-11 0 -66 -7 -75 -19c-11 -15 -15 -30 -22 -68l-79 -407c-11 -58 -17 -88 -25 -140c-3 -3 -14 -4 -17 -4c-8 0 -20 9 -27 23l-300 551l-88 -454
c-7 -36 -10 -53 -4 -69c4 -10 52 -20 67 -20c3 -7 -1 -23 -4 -29c-37 2 -63 5 -104 5c-43 0 -60 -3 -103 -5c-2 5 -1 18 6 29c11 0 67 8 76 20c11 15 16 30 23 68l84 434c7 38 9 53 4 68c-4 12 -57 17 -68 17c-3 11 1 24 5 29c42 -2 54 -4 85 -4c28 0 69 3 82 4
c32 -80 196 -345 269 -500zM435 711c-1 0 -6 7 -6 10c0 7 81 77 106 93c3 2 20 5 27 5c29 0 48 -11 48 -22c0 -25 -160 -86 -175 -86z" />
    <glyph glyph-name="nacute" unicode="&#x144;" horiz-adv-x="497" 
d="M179 330l-18 -84c13 25 129 189 196 189c46 0 62 -25 62 -66c0 -31 -7 -75 -14 -109l-33 -154c-2 -10 -4 -27 -4 -32c0 -9 0 -25 10 -25c21 0 67 55 70 58c3 0 10 -13 10 -19c-11 -19 -84 -94 -131 -94c-21 0 -34 22 -34 52c0 8 3 32 7 53l35 165c2 9 7 43 7 54
c0 26 -1 43 -19 43c-37 0 -161 -114 -185 -239c-9 -48 -15 -74 -25 -122c-12 -3 -22 -4 -36 -4s-23 1 -35 4l66 323c1 6 4 27 4 32c0 9 0 25 -10 25c-21 0 -67 -55 -70 -58c-3 0 -10 13 -10 19c11 19 79 94 126 94c21 0 39 -22 39 -52c0 -8 -3 -32 -8 -53zM274 502
c-3 0 -8 7 -8 10c0 8 82 102 95 111c10 7 22 10 37 10c13 0 39 -7 39 -30c0 -19 -148 -101 -163 -101z" />
    <glyph glyph-name="Ncommaaccent" unicode="&#x145;" horiz-adv-x="732" 
d="M247 -108c0 32 47 55 86 55c13 -10 13 -33 13 -41c0 -55 -61 -119 -94 -137c-1 -1 -4 -2 -8 -2c-12 0 -18 4 -18 7c0 6 43 20 51 61c6 30 -30 31 -30 57zM628 541c7 36 9 56 3 72c-5 14 -52 20 -67 20c-3 7 0 24 3 29c37 -2 61 -4 102 -4c43 0 61 2 104 4
c2 -5 3 -18 -4 -29c-11 0 -66 -7 -75 -19c-11 -15 -15 -30 -22 -68l-79 -407c-11 -58 -17 -88 -25 -140c-3 -3 -14 -4 -17 -4c-8 0 -20 9 -27 23l-300 551l-88 -454c-7 -36 -10 -53 -4 -69c4 -10 52 -20 67 -20c3 -7 -1 -23 -4 -29c-37 2 -63 5 -104 5c-43 0 -60 -3 -103 -5
c-2 5 -1 18 6 29c11 0 67 8 76 20c11 15 16 30 23 68l84 434c7 38 9 53 4 68c-4 12 -57 17 -68 17c-3 11 1 24 5 29c42 -2 54 -4 85 -4c28 0 69 3 82 4c32 -80 196 -345 269 -500z" />
    <glyph glyph-name="ncommaaccent" unicode="&#x146;" horiz-adv-x="497" 
d="M157 -108c0 32 47 55 86 55c13 -10 13 -33 13 -41c0 -55 -61 -119 -94 -137c-1 -1 -4 -2 -8 -2c-12 0 -18 4 -18 7c0 6 43 20 51 61c6 30 -30 31 -30 57zM179 330l-18 -84c13 25 129 189 196 189c46 0 62 -25 62 -66c0 -31 -7 -75 -14 -109l-33 -154
c-2 -10 -4 -27 -4 -32c0 -9 0 -25 10 -25c21 0 67 55 70 58c3 0 10 -13 10 -19c-11 -19 -84 -94 -131 -94c-21 0 -34 22 -34 52c0 8 3 32 7 53l35 165c2 9 7 43 7 54c0 26 -1 43 -19 43c-37 0 -161 -114 -185 -239c-9 -48 -15 -74 -25 -122c-12 -3 -22 -4 -36 -4
s-23 1 -35 4l66 323c1 6 4 27 4 32c0 9 0 25 -10 25c-21 0 -67 -55 -70 -58c-3 0 -10 13 -10 19c11 19 79 94 126 94c21 0 39 -22 39 -52c0 -8 -3 -32 -8 -53z" />
    <glyph glyph-name="Ncaron" unicode="&#x147;" horiz-adv-x="732" 
d="M628 541c7 36 9 56 3 72c-5 14 -52 20 -67 20c-3 7 0 24 3 29c37 -2 61 -4 102 -4c43 0 61 2 104 4c2 -5 3 -18 -4 -29c-11 0 -66 -7 -75 -19c-11 -15 -15 -30 -22 -68l-79 -407c-11 -58 -17 -88 -25 -140c-3 -3 -14 -4 -17 -4c-8 0 -20 9 -27 23l-300 551l-88 -454
c-7 -36 -10 -53 -4 -69c4 -10 52 -20 67 -20c3 -7 -1 -23 -4 -29c-37 2 -63 5 -104 5c-43 0 -60 -3 -103 -5c-2 5 -1 18 6 29c11 0 67 8 76 20c11 15 16 30 23 68l84 434c7 38 9 53 4 68c-4 12 -57 17 -68 17c-3 11 1 24 5 29c42 -2 54 -4 85 -4c28 0 69 3 82 4
c32 -80 196 -345 269 -500zM439 711c-5 0 -8 3 -10 7c-26 45 -45 66 -78 108c1 6 9 10 15 10c37 -25 89 -59 89 -59s75 36 120 59c6 0 11 -4 10 -10c-54 -42 -83 -63 -132 -108c-5 -4 -9 -7 -14 -7z" />
    <glyph glyph-name="ncaron" unicode="&#x148;" horiz-adv-x="497" 
d="M287 496c-4 0 -7 4 -9 8c-25 47 -39 71 -68 116c1 6 8 11 13 11c32 -27 78 -64 78 -64s66 39 105 64c5 0 10 -5 9 -11c-47 -45 -72 -69 -116 -116c-4 -4 -8 -8 -12 -8zM179 330l-18 -84c13 25 129 189 196 189c46 0 62 -25 62 -66c0 -31 -7 -75 -14 -109l-33 -154
c-2 -10 -4 -27 -4 -32c0 -9 0 -25 10 -25c21 0 67 55 70 58c3 0 10 -13 10 -19c-11 -19 -84 -94 -131 -94c-21 0 -34 22 -34 52c0 8 3 32 7 53l35 165c2 9 7 43 7 54c0 26 -1 43 -19 43c-37 0 -161 -114 -185 -239c-9 -48 -15 -74 -25 -122c-12 -3 -22 -4 -36 -4
s-23 1 -35 4l66 323c1 6 4 27 4 32c0 9 0 25 -10 25c-21 0 -67 -55 -70 -58c-3 0 -10 13 -10 19c11 19 79 94 126 94c21 0 39 -22 39 -52c0 -8 -3 -32 -8 -53z" />
    <glyph glyph-name="napostrophe" unicode="&#x149;" horiz-adv-x="499" 
d="M181 330l-18 -84c13 25 129 189 196 189c46 0 62 -25 62 -66c0 -31 -7 -75 -14 -109l-33 -154c-2 -10 -4 -27 -4 -32c0 -9 0 -25 10 -25c21 0 67 55 70 58c3 0 10 -13 10 -19c-11 -19 -84 -94 -131 -94c-21 0 -34 22 -34 52c0 8 3 32 7 53l35 165c2 9 7 43 7 54
c0 26 -1 43 -19 43c-37 0 -161 -114 -185 -239c-9 -48 -15 -74 -25 -122c-12 -3 -22 -4 -36 -4s-23 1 -35 4l66 323c1 6 4 27 4 32c0 9 0 25 -10 25c-21 0 -67 -55 -70 -58c-3 0 -10 13 -10 19c11 19 79 94 126 94c21 0 39 -22 39 -52c0 -8 -3 -32 -8 -53zM44 592
c0 38 34 60 74 60c4 -7 5 -16 5 -28c0 -10 -1 -21 -3 -34c-9 -45 -69 -110 -94 -124c-1 -1 -5 -1 -7 -1c-5 0 -10 7 -10 12c0 4 46 27 46 74c0 11 -11 23 -11 41z" />
    <glyph glyph-name="Eng" unicode="&#x14a;" horiz-adv-x="731" 
d="M510 44l-284 525l-88 -454c-7 -36 -10 -53 -4 -69c4 -10 52 -20 67 -20c3 -7 -1 -23 -4 -29c-37 2 -65 5 -106 5c-43 0 -60 -3 -103 -5c-2 5 -1 18 6 29c11 0 67 8 76 20c11 15 16 30 23 68l84 434c7 38 9 53 4 68c-4 12 -57 20 -68 20c-3 11 1 24 5 29
c42 -2 65 -5 96 -5c28 0 58 1 71 2c32 -80 195 -341 268 -496l74 379c7 36 10 53 4 69c-4 10 -52 20 -67 20c-3 7 1 23 4 29c37 -2 65 -5 106 -5c43 0 59 3 102 5c2 -5 2 -18 -5 -29c-11 0 -68 -8 -77 -20c-11 -15 -15 -30 -22 -68l-83 -430c-51 -264 -189 -349 -269 -349
c-2 3 -3 8 -3 13c0 2 1 6 1 6c100 31 163 146 192 258z" />
    <glyph glyph-name="eng" unicode="&#x14b;" horiz-adv-x="476" 
d="M360 45c-8 -36 -28 -112 -71 -169c-42 -55 -104 -97 -139 -111c-4 3 -9 13 -9 20c67 38 118 126 142 237l52 242c2 9 7 43 7 54c0 26 -1 43 -19 43c-37 0 -161 -114 -185 -239c-9 -48 -15 -74 -25 -122c-14 -2 -22 -4 -36 -4s-21 2 -35 4l66 323c1 6 4 27 4 32
c0 9 0 25 -10 25c-21 0 -67 -55 -70 -58c-3 0 -10 13 -10 19c11 19 79 94 126 94c21 0 39 -22 39 -52c0 -8 -3 -32 -8 -53l-18 -84c13 25 129 189 196 189c46 0 62 -25 62 -66c0 -31 -7 -75 -14 -109z" />
    <glyph glyph-name="Omacron" unicode="&#x14c;" horiz-adv-x="710" 
d="M406 635c-126 0 -251 -157 -251 -367c0 -115 36 -250 173 -250c153 0 250 196 250 375c0 96 -31 242 -172 242zM415 665c158 0 257 -123 257 -283c0 -234 -161 -393 -353 -393c-162 0 -258 126 -258 284c0 230 172 392 354 392zM541 737h-236s-3 3 -3 9c0 7 7 30 12 30
h232c2 0 5 -3 5 -7c0 -5 -2 -23 -10 -32z" />
    <glyph glyph-name="omacron" unicode="&#x14d;" horiz-adv-x="414" 
d="M237 403c-84 0 -135 -145 -135 -245c0 -80 21 -131 57 -131c83 0 131 146 131 246c0 80 -17 130 -53 130zM251 435c80 0 117 -61 117 -147c0 -140 -113 -293 -228 -293c-80 0 -116 57 -116 143c0 140 112 297 227 297zM363 503h-210s-3 3 -3 9c0 7 7 30 12 30h206
c2 0 5 -3 5 -7c0 -5 -2 -23 -10 -32z" />
    <glyph glyph-name="Obreve" unicode="&#x14e;" horiz-adv-x="710" 
d="M406 635c-126 0 -251 -157 -251 -367c0 -115 36 -250 173 -250c153 0 250 196 250 375c0 96 -31 242 -172 242zM415 665c158 0 257 -123 257 -283c0 -234 -161 -393 -353 -393c-162 0 -258 126 -258 284c0 230 172 392 354 392zM427 776c39 0 76 21 92 58c0 2 3 2 5 2
c6 0 15 -7 14 -11c0 -1 -2 -5 -2 -7c-17 -46 -68 -90 -118 -90s-84 41 -83 91v6c1 4 13 11 19 11c2 0 4 0 4 -2c2 -37 30 -58 69 -58z" />
    <glyph glyph-name="obreve" unicode="&#x14f;" horiz-adv-x="414" 
d="M237 403c-84 0 -135 -145 -135 -245c0 -80 21 -131 57 -131c83 0 131 146 131 246c0 80 -17 130 -53 130zM251 435c80 0 117 -61 117 -147c0 -140 -113 -293 -228 -293c-80 0 -116 57 -116 143c0 140 112 297 227 297zM377 606c0 -3 -1 -8 -2 -10
c-19 -53 -70 -100 -120 -100s-84 44 -81 101c0 2 1 7 1 8c3 5 15 14 22 9c1 -43 28 -72 67 -72s77 29 95 72c4 4 16 -2 18 -8z" />
    <glyph glyph-name="Ohungarumlaut" unicode="&#x150;" horiz-adv-x="710" 
d="M406 635c-126 0 -251 -157 -251 -367c0 -115 36 -250 173 -250c153 0 250 196 250 375c0 96 -31 242 -172 242zM415 665c158 0 257 -123 257 -283c0 -234 -161 -393 -353 -393c-162 0 -258 126 -258 284c0 230 172 392 354 392zM468 718c-1 0 -6 7 -6 10
c0 7 81 77 106 93c3 2 20 5 27 5c29 0 48 -11 48 -22c0 -25 -160 -86 -175 -86zM323 718c-1 0 -6 7 -6 10c0 7 81 77 106 93c3 2 20 5 27 5c29 0 48 -11 48 -22c0 -25 -160 -86 -175 -86z" />
    <glyph glyph-name="ohungarumlaut" unicode="&#x151;" horiz-adv-x="414" 
d="M237 403c-84 0 -135 -145 -135 -245c0 -80 21 -131 57 -131c83 0 131 146 131 246c0 80 -17 130 -53 130zM251 435c80 0 117 -61 117 -147c0 -140 -113 -293 -228 -293c-80 0 -116 57 -116 143c0 140 112 297 227 297zM182 502c-3 0 -8 7 -8 10c0 8 82 102 95 111
c10 7 22 10 37 10c13 0 39 -7 39 -30c0 -19 -148 -101 -163 -101zM308 502c-3 0 -8 7 -8 10c0 8 82 102 95 111c10 7 22 10 37 10c13 0 39 -7 39 -30c0 -19 -148 -101 -163 -101z" />
    <glyph glyph-name="OE" unicode="&#x152;" horiz-adv-x="886" 
d="M600 657c87 0 192 7 293 7c-3 -50 1 -91 1 -136c-3 -3 -11 -5 -18 -5s-11 2 -11 7c-5 80 -39 100 -88 100h-80c-11 0 -61 -1 -66 -11c-8 -16 -15 -45 -20 -72l-37 -192c-1 -5 19 -6 39 -6h49c89 0 87 6 116 72c2 5 9 7 16 7s12 -2 14 -5l-36 -189c-2 -2 -9 -4 -16 -4
s-12 3 -13 8c-3 57 -6 64 -13 70c-9 7 -62 8 -97 8c-26 0 -67 0 -69 -9l-39 -198c-3 -15 -12 -64 -7 -69c10 -10 25 -10 64 -10h44c51 0 92 10 124 31c27 18 53 48 78 101c2 4 8 6 15 6c9 0 20 -3 22 -6c-28 -54 -68 -122 -83 -166c-101 0 -193 6 -316 4
c-55 -1 -107 -11 -141 -11c-183 0 -268 134 -268 285c0 215 157 392 356 392c73 0 124 -10 187 -9zM530 557c12 63 -71 79 -126 79c-151 0 -253 -192 -253 -364c0 -163 61 -254 174 -254c74 0 99 33 104 44c8 16 12 24 18 54z" />
    <glyph glyph-name="oe" unicode="&#x153;" horiz-adv-x="614" 
d="M356 218c45 2 161 64 161 136c0 27 -23 40 -42 40c-61 0 -110 -104 -119 -176zM237 403c-84 0 -135 -145 -135 -245c0 -80 21 -131 57 -131c66 0 131 109 131 246c0 80 -17 130 -53 130zM525 435c51 0 66 -32 66 -62c0 -96 -175 -180 -237 -180c-1 -3 -2 -27 -2 -32
c0 -61 19 -108 69 -108c45 0 100 66 103 69c3 0 12 -14 12 -20c-13 -22 -89 -108 -152 -108c-51 0 -86 28 -101 78c-41 -46 -92 -77 -143 -77c-80 0 -116 57 -116 143c0 140 112 297 227 297c60 0 96 -34 110 -87c48 53 108 87 164 87z" />
    <glyph glyph-name="Racute" unicode="&#x154;" horiz-adv-x="579" 
d="M553 -3c-82 0 -145 4 -169 50c-30 59 -73 157 -105 244c-3 9 -13 12 -26 12h-49l-36 -187c-6 -30 -12 -58 -10 -74c1 -11 50 -16 61 -16c3 -5 0 -24 -6 -29c-38 2 -71 5 -107 5s-72 -3 -111 -5c-4 5 0 24 5 29c11 0 63 5 68 16c8 16 13 44 19 74l83 427c6 30 11 58 9 74
c-1 11 -50 16 -61 16c-3 5 0 24 6 29c38 -2 76 -5 112 -5s77 2 132 2c85 0 156 -48 156 -141c0 -96 -87 -170 -164 -198c33 -90 81 -191 106 -234c23 -41 43 -56 93 -60c4 -5 -5 -27 -6 -29zM210 333h50c79 0 175 57 175 179c0 41 -13 118 -116 118c-11 0 -44 -1 -49 -10
c-7 -12 -13 -45 -19 -75zM279 711c-1 0 -6 7 -6 10c0 7 81 77 106 93c3 2 20 5 27 5c29 0 48 -11 48 -22c0 -25 -160 -86 -175 -86z" />
    <glyph glyph-name="racute" unicode="&#x155;" horiz-adv-x="356" 
d="M307 435c22 0 40 -11 49 -21c4 -5 9 -18 9 -28c0 -26 -13 -44 -36 -44c-9 0 -22 6 -30 15c-4 5 -12 8 -20 8c-36 0 -120 -139 -139 -243l-22 -122c-11 -2 -23 -3 -34 -3c-13 0 -25 1 -37 3l60 323c1 6 4 27 4 32c0 9 0 25 -10 25c-21 0 -67 -55 -70 -58
c-3 0 -10 13 -10 19c11 19 79 94 126 94c21 0 39 -22 39 -52c0 -8 -4 -32 -8 -53c-6 -33 -10 -51 -17 -84c28 67 99 189 146 189zM227 502c-3 0 -8 7 -8 10c0 8 82 102 95 111c10 7 22 10 37 10c13 0 39 -7 39 -30c0 -19 -148 -101 -163 -101z" />
    <glyph glyph-name="Rcommaaccent" unicode="&#x156;" horiz-adv-x="579" 
d="M203 -108c0 32 47 55 86 55c13 -10 13 -33 13 -41c0 -55 -61 -119 -94 -137c-1 -1 -4 -2 -8 -2c-12 0 -18 4 -18 7c0 6 43 20 51 61c6 30 -30 31 -30 57zM553 -3c-82 0 -145 4 -169 50c-30 59 -73 157 -105 244c-3 9 -13 12 -26 12h-49l-36 -187c-6 -30 -12 -58 -10 -74
c1 -11 50 -16 61 -16c3 -5 0 -24 -6 -29c-38 2 -71 5 -107 5s-72 -3 -111 -5c-4 5 0 24 5 29c11 0 63 5 68 16c8 16 13 44 19 74l83 427c6 30 11 58 9 74c-1 11 -50 16 -61 16c-3 5 0 24 6 29c38 -2 76 -5 112 -5s77 2 132 2c85 0 156 -48 156 -141
c0 -96 -87 -170 -164 -198c33 -90 81 -191 106 -234c23 -41 43 -56 93 -60c4 -5 -5 -27 -6 -29zM210 333h50c79 0 175 57 175 179c0 41 -13 118 -116 118c-11 0 -44 -1 -49 -10c-7 -12 -13 -45 -19 -75z" />
    <glyph glyph-name="rcommaaccent" unicode="&#x157;" horiz-adv-x="356" 
d="M38 -108c0 32 47 55 86 55c13 -10 13 -33 13 -41c0 -55 -61 -119 -94 -137c-1 -1 -4 -2 -8 -2c-12 0 -18 4 -18 7c0 6 43 20 51 61c6 30 -30 31 -30 57zM307 435c22 0 40 -11 49 -21c4 -5 9 -18 9 -28c0 -26 -13 -44 -36 -44c-9 0 -22 6 -30 15c-4 5 -12 8 -20 8
c-36 0 -120 -139 -139 -243l-22 -122c-11 -2 -23 -3 -34 -3c-13 0 -25 1 -37 3l60 323c1 6 4 27 4 32c0 9 0 25 -10 25c-21 0 -67 -55 -70 -58c-3 0 -10 13 -10 19c11 19 79 94 126 94c21 0 39 -22 39 -52c0 -8 -4 -32 -8 -53c-6 -33 -10 -51 -17 -84c28 67 99 189 146 189z
" />
    <glyph glyph-name="Rcaron" unicode="&#x158;" horiz-adv-x="579" 
d="M553 -3c-82 0 -145 4 -169 50c-30 59 -73 157 -105 244c-3 9 -13 12 -26 12h-49l-36 -187c-6 -30 -12 -58 -10 -74c1 -11 50 -16 61 -16c3 -5 0 -24 -6 -29c-38 2 -71 5 -107 5s-72 -3 -111 -5c-4 5 0 24 5 29c11 0 63 5 68 16c8 16 13 44 19 74l83 427c6 30 11 58 9 74
c-1 11 -50 16 -61 16c-3 5 0 24 6 29c38 -2 76 -5 112 -5s77 2 132 2c85 0 156 -48 156 -141c0 -96 -87 -170 -164 -198c33 -90 81 -191 106 -234c23 -41 43 -56 93 -60c4 -5 -5 -27 -6 -29zM210 333h50c79 0 175 57 175 179c0 41 -13 118 -116 118c-11 0 -44 -1 -49 -10
c-7 -12 -13 -45 -19 -75zM320 711c-5 0 -8 3 -10 7c-26 45 -45 66 -78 108c1 6 9 10 15 10c37 -25 89 -59 89 -59s75 36 120 59c6 0 11 -4 10 -10c-54 -42 -83 -63 -132 -108c-5 -4 -9 -7 -14 -7z" />
    <glyph glyph-name="rcaron" unicode="&#x159;" horiz-adv-x="356" 
d="M236 496c-4 0 -7 4 -9 8c-25 47 -39 71 -68 116c1 6 8 11 13 11c32 -27 78 -64 78 -64s66 39 105 64c5 0 10 -5 9 -11c-47 -45 -72 -69 -116 -116c-4 -4 -8 -8 -12 -8zM307 435c22 0 40 -11 49 -21c4 -5 9 -18 9 -28c0 -26 -13 -44 -36 -44c-9 0 -22 6 -30 15
c-4 5 -12 8 -20 8c-36 0 -120 -139 -139 -243l-22 -122c-11 -2 -23 -3 -34 -3c-13 0 -25 1 -37 3l60 323c1 6 4 27 4 32c0 9 0 25 -10 25c-21 0 -67 -55 -70 -58c-3 0 -10 13 -10 19c11 19 79 94 126 94c21 0 39 -22 39 -52c0 -8 -4 -32 -8 -53c-6 -33 -10 -51 -17 -84
c28 67 99 189 146 189z" />
    <glyph glyph-name="Sacute" unicode="&#x15a;" horiz-adv-x="472" 
d="M312 666c58 0 88 -12 137 -24c-3 -34 -15 -114 -21 -144c-1 -7 -7 -7 -10 -7c-4 0 -15 1 -21 7c5 80 -22 137 -93 137c-82 0 -124 -64 -124 -115c0 -82 62 -114 115 -156s126 -78 126 -171c0 -124 -120 -201 -228 -201c-57 0 -109 20 -147 42c-13 54 -14 138 -12 150
c3 4 18 6 25 6c5 0 8 -2 10 -6c0 -55 37 -162 136 -162c66 0 127 46 127 125c0 72 -45 107 -95 147c-60 48 -135 79 -135 182c0 115 117 190 210 190zM310 711c-1 0 -6 7 -6 10c0 7 81 77 106 93c3 2 20 5 27 5c29 0 48 -11 48 -22c0 -25 -160 -86 -175 -86z" />
    <glyph glyph-name="sacute" unicode="&#x15b;" horiz-adv-x="322" 
d="M199 438c40 0 65 -9 86 -27c5 -7 10 -25 10 -32c0 -23 -14 -41 -34 -41c-18 0 -34 17 -47 35c-11 16 -18 31 -47 31c-35 0 -49 -35 -49 -56c0 -40 35 -71 66 -106c31 -36 61 -75 61 -125c0 -74 -61 -123 -145 -123c-31 0 -62 8 -88 30c-3 5 -10 20 -10 30
c0 29 17 46 37 46s28 -24 43 -45c11 -15 26 -29 53 -29c40 0 49 37 49 58c0 35 -26 62 -52 92c-35 39 -72 79 -72 136c0 56 55 126 139 126zM184 505c-3 0 -8 7 -8 10c0 8 82 102 95 111c10 7 22 10 37 10c13 0 39 -7 39 -30c0 -19 -148 -101 -163 -101z" />
    <glyph glyph-name="Scircumflex" unicode="&#x15c;" horiz-adv-x="472" 
d="M312 666c58 0 88 -12 137 -24c-3 -34 -15 -114 -21 -144c-1 -7 -7 -7 -10 -7c-4 0 -15 1 -21 7c5 80 -22 137 -93 137c-82 0 -124 -64 -124 -115c0 -82 62 -114 115 -156s126 -78 126 -171c0 -124 -120 -201 -228 -201c-57 0 -109 20 -147 42c-13 54 -14 138 -12 150
c3 4 18 6 25 6c5 0 8 -2 10 -6c0 -55 37 -162 136 -162c66 0 127 46 127 125c0 72 -45 107 -95 147c-60 48 -135 79 -135 182c0 115 117 190 210 190zM370 836c4 0 8 -3 10 -7c26 -42 44 -67 78 -108c-1 -6 -9 -10 -15 -10c-37 25 -89 59 -89 59s-72 -35 -120 -59
c-6 0 -11 4 -10 10c56 42 84 65 132 108c5 4 10 7 14 7z" />
    <glyph glyph-name="scircumflex" unicode="&#x15d;" horiz-adv-x="322" 
d="M228 632c4 0 7 -4 9 -8c25 -47 39 -71 68 -116c-1 -6 -8 -11 -13 -11c-31 24 -78 64 -78 64s-66 -39 -105 -64c-5 0 -10 5 -9 11c47 45 72 69 116 116c4 4 8 8 12 8zM199 438c40 0 65 -9 86 -27c5 -7 10 -25 10 -32c0 -23 -14 -41 -34 -41c-18 0 -34 17 -47 35
c-11 16 -18 31 -47 31c-35 0 -49 -35 -49 -56c0 -40 35 -71 66 -106c31 -36 61 -75 61 -125c0 -74 -61 -123 -145 -123c-31 0 -62 8 -88 30c-3 5 -10 20 -10 30c0 29 17 46 37 46s28 -24 43 -45c11 -15 26 -29 53 -29c40 0 49 37 49 58c0 35 -26 62 -52 92
c-35 39 -72 79 -72 136c0 56 55 126 139 126z" />
    <glyph glyph-name="Scedilla" unicode="&#x15e;" horiz-adv-x="472" 
d="M312 666c58 0 88 -12 137 -24c-3 -34 -15 -114 -21 -144c-1 -7 -7 -7 -10 -7c-4 0 -15 1 -21 7c5 80 -22 137 -93 137c-82 0 -124 -64 -124 -115c0 -82 62 -114 115 -156s126 -78 126 -171c0 -124 -120 -201 -228 -201c-57 0 -109 20 -147 42c-13 54 -14 138 -12 150
c3 4 18 6 25 6c5 0 8 -2 10 -6c0 -55 37 -162 136 -162c66 0 127 46 127 125c0 72 -45 107 -95 147c-60 48 -135 79 -135 182c0 115 117 190 210 190zM164 -27h28c29 0 43 -27 37 -58c-11 -55 -64 -89 -121 -89c-13 0 -29 5 -35 10c0 6 -1 10 0 17c2 8 11 16 18 16
c13 0 20 -15 38 -15c31 0 51 19 55 39c5 28 -12 40 -26 40c-12 0 -19 -3 -31 -8c-2 0 -11 10 -8 15c14 18 35 43 47 60h23z" />
    <glyph glyph-name="scedilla" unicode="&#x15f;" horiz-adv-x="322" 
d="M103 -24h23c24 0 37 -23 32 -49c-9 -47 -54 -76 -102 -76c-11 0 -25 5 -30 9c0 5 -1 8 0 14c1 7 9 14 15 14c11 0 17 -13 32 -13c26 0 44 16 47 33c5 24 -10 34 -22 34c-10 0 -16 -3 -26 -7c-2 0 -10 9 -7 13c11 15 30 37 40 51h19zM199 438c40 0 65 -9 86 -27
c5 -7 10 -25 10 -32c0 -23 -14 -41 -34 -41c-18 0 -34 17 -47 35c-11 16 -18 31 -47 31c-35 0 -49 -35 -49 -56c0 -40 35 -71 66 -106c31 -36 61 -75 61 -125c0 -74 -61 -123 -145 -123c-31 0 -62 8 -88 30c-3 5 -10 20 -10 30c0 29 17 46 37 46s28 -24 43 -45
c11 -15 26 -29 53 -29c40 0 49 37 49 58c0 35 -26 62 -52 92c-35 39 -72 79 -72 136c0 56 55 126 139 126z" />
    <glyph glyph-name="Scaron" unicode="&#x160;" horiz-adv-x="472" 
d="M312 666c58 0 88 -12 137 -24c-3 -34 -15 -114 -21 -144c-1 -7 -7 -7 -10 -7c-4 0 -15 1 -21 7c5 80 -22 137 -93 137c-82 0 -124 -64 -124 -115c0 -82 62 -114 115 -156s126 -78 126 -171c0 -124 -120 -201 -228 -201c-57 0 -109 20 -147 42c-13 54 -14 138 -12 150
c3 4 18 6 25 6c5 0 8 -2 10 -6c0 -55 37 -162 136 -162c66 0 127 46 127 125c0 72 -45 107 -95 147c-60 48 -135 79 -135 182c0 115 117 190 210 190zM336 711c-5 0 -8 3 -10 7c-26 45 -45 66 -78 108c1 6 9 10 15 10c37 -25 89 -59 89 -59s75 36 120 59c6 0 11 -4 10 -10
c-54 -42 -83 -63 -132 -108c-5 -4 -9 -7 -14 -7z" />
    <glyph glyph-name="scaron" unicode="&#x161;" horiz-adv-x="322" 
d="M217 499c-4 0 -7 4 -9 8c-25 47 -39 71 -68 116c1 6 8 11 13 11c32 -27 78 -64 78 -64s66 39 105 64c5 0 10 -5 9 -11c-47 -45 -72 -69 -116 -116c-4 -4 -8 -8 -12 -8zM199 438c40 0 65 -9 86 -27c5 -7 10 -25 10 -32c0 -23 -14 -41 -34 -41c-18 0 -34 17 -47 35
c-11 16 -18 31 -47 31c-35 0 -49 -35 -49 -56c0 -40 35 -71 66 -106c31 -36 61 -75 61 -125c0 -74 -61 -123 -145 -123c-31 0 -62 8 -88 30c-3 5 -10 20 -10 30c0 29 17 46 37 46s28 -24 43 -45c11 -15 26 -29 53 -29c40 0 49 37 49 58c0 35 -26 62 -52 92
c-35 39 -72 79 -72 136c0 56 55 126 139 126z" />
    <glyph glyph-name="Tcommaaccent" unicode="&#x162;" horiz-adv-x="587" 
d="M550 655c15 0 47 9 59 15c10 5 13 5 18 2c-5 -61 -9 -119 -9 -172c-3 -3 -12 -8 -20 -7c-5 0 -11 2 -12 5c1 70 -18 122 -64 122h-118l-99 -504c-6 -30 -12 -58 -10 -74c1 -11 50 -16 61 -16c3 -5 1 -24 -5 -29c-38 2 -72 5 -108 5s-72 -3 -111 -5c-4 5 1 24 6 29
c11 0 62 5 67 16c8 16 13 44 19 74l99 504h-120c-46 0 -86 -52 -113 -122c-2 -3 -9 -5 -14 -5c-9 -1 -15 4 -17 7c21 53 40 111 58 172c6 3 15 0 20 -3c10 -6 35 -14 50 -14h363zM222 -27h28c29 0 43 -27 37 -58c-11 -55 -64 -89 -121 -89c-13 0 -29 5 -35 10
c0 6 -1 10 0 17c2 8 11 16 18 16c13 0 20 -15 38 -15c31 0 51 19 55 39c5 28 -12 40 -26 40c-12 0 -19 -3 -31 -8c-2 0 -11 10 -8 15c14 18 35 43 47 60h23z" />
    <glyph glyph-name="tcommaaccent" unicode="&#x163;" horiz-adv-x="278" 
d="M82 -23h23c24 0 37 -23 32 -49c-9 -47 -54 -76 -102 -76c-11 0 -25 5 -30 9c0 5 -1 8 0 14c1 7 9 14 15 14c11 0 17 -13 32 -13c26 0 44 16 47 33c5 24 -10 34 -22 34c-10 0 -16 -3 -26 -7c-2 0 -10 9 -7 13c11 15 30 37 40 51h19zM117 413l11 59c11 14 57 66 65 66
c6 0 13 -3 17 -6l-22 -119h75c4 0 5 -7 5 -12c0 -10 -4 -17 -9 -25h-78l-53 -270c-2 -10 -4 -27 -4 -32c0 -9 0 -25 10 -25c21 0 67 55 70 58c3 0 10 -13 10 -19c-11 -19 -84 -94 -131 -94c-21 0 -34 22 -34 52c0 8 3 32 7 53l54 277h-67c-1 0 -2 1 -2 3c0 10 23 34 46 34
h30z" />
    <glyph glyph-name="Tcaron" unicode="&#x164;" horiz-adv-x="587" 
d="M550 655c15 0 47 9 59 15c10 5 13 5 18 2c-5 -61 -9 -119 -9 -172c-3 -3 -12 -8 -20 -7c-5 0 -11 2 -12 5c1 70 -18 122 -64 122h-118l-99 -504c-6 -30 -12 -58 -10 -74c1 -11 50 -16 61 -16c3 -5 1 -24 -5 -29c-38 2 -72 5 -108 5s-72 -3 -111 -5c-4 5 1 24 6 29
c11 0 62 5 67 16c8 16 13 44 19 74l99 504h-120c-46 0 -86 -52 -113 -122c-2 -3 -9 -5 -14 -5c-9 -1 -15 4 -17 7c21 53 40 111 58 172c6 3 15 0 20 -3c10 -6 35 -14 50 -14h363zM374 715c-5 0 -8 3 -10 7c-26 45 -45 66 -78 108c1 6 9 10 15 10c37 -25 89 -59 89 -59
s75 36 120 59c6 0 11 -4 10 -10c-54 -42 -83 -63 -132 -108c-5 -4 -9 -7 -14 -7z" />
    <glyph glyph-name="tcaron" unicode="&#x165;" horiz-adv-x="275" 
d="M117 413l11 59c11 14 57 66 65 66c6 0 13 -3 17 -6l-22 -119h75c4 0 5 -7 5 -12c0 -10 -4 -17 -9 -25h-78l-53 -270c-2 -10 -4 -27 -4 -32c0 -9 0 -25 10 -25c21 0 67 55 70 58c3 0 10 -13 10 -19c-11 -19 -84 -94 -131 -94c-21 0 -34 22 -34 52c0 8 3 32 7 53l54 277
h-67c-1 0 -2 1 -2 3c0 10 23 34 46 34h30zM342 634c0 38 34 60 74 60c4 -7 5 -16 5 -28c0 -10 -1 -21 -3 -34c-9 -45 -69 -110 -94 -124c-1 -1 -5 -1 -7 -1c-5 0 -10 7 -10 12c0 4 46 27 46 74c0 11 -11 23 -11 41z" />
    <glyph glyph-name="Tbar" unicode="&#x166;" horiz-adv-x="588" 
d="M153 348h320c4 0 5 -5 4 -10c-1 -6 -7 -21 -12 -30h-320c-4 0 -4 8 -3 13c1 6 4 18 11 27zM551 655c15 0 47 9 59 15c10 5 13 5 18 2c-5 -61 -9 -119 -9 -172c-3 -3 -12 -8 -20 -7c-5 0 -11 2 -12 5c1 70 -18 122 -64 122h-118l-99 -504c-6 -30 -12 -58 -10 -74
c1 -11 50 -16 61 -16c3 -5 1 -24 -5 -29c-38 2 -72 5 -108 5s-72 -3 -111 -5c-4 5 1 24 6 29c11 0 62 5 67 16c8 16 13 44 19 74l99 504h-120c-46 0 -86 -52 -113 -122c-2 -3 -9 -5 -14 -5c-9 -1 -15 4 -17 7c21 53 40 111 58 172c6 3 15 0 20 -3c10 -6 35 -14 50 -14h363z
" />
    <glyph glyph-name="tbar" unicode="&#x167;" horiz-adv-x="285" 
d="M54 315h228c4 0 5 -5 4 -10c-1 -6 -7 -21 -12 -30h-228c-4 0 -4 8 -3 13c1 6 4 18 11 27zM118 413l11 59c11 14 57 66 65 66c6 0 13 -3 17 -6l-22 -119h75c4 0 5 -7 5 -12c0 -10 -4 -17 -9 -25h-78l-53 -270c-2 -10 -4 -27 -4 -32c0 -9 0 -25 10 -25c21 0 67 55 70 58
c3 0 10 -13 10 -19c-11 -19 -84 -94 -131 -94c-21 0 -34 22 -34 52c0 8 3 32 7 53l54 277h-67c-1 0 -2 1 -2 3c0 10 23 34 46 34h30z" />
    <glyph glyph-name="Utilde" unicode="&#x168;" horiz-adv-x="661" 
d="M217 657c36 0 71 3 110 5c4 -5 -1 -24 -6 -29c-11 0 -62 -5 -67 -16c-8 -16 -13 -44 -19 -74l-48 -247c-15 -78 -14 -137 5 -176c22 -44 62 -66 121 -66c96 0 169 48 205 220l53 271c7 36 10 53 4 69c-4 10 -48 20 -63 20c-3 7 1 23 4 29c37 -2 59 -5 100 -5
c43 0 59 3 102 5c2 -5 2 -18 -5 -29c-11 0 -68 -8 -77 -20c-11 -15 -15 -30 -22 -68l-53 -270c-39 -200 -134 -280 -279 -280c-70 0 -125 26 -158 72c-31 44 -42 106 -27 183l57 292c6 30 12 58 10 74c-1 11 -50 16 -61 16c-3 5 0 24 6 29c38 -2 72 -5 108 -5zM375 819
c24 0 40 -2 61 -14s41 -24 72 -24c34 0 59 31 65 38c3 -1 6 -3 6 -10c0 -14 -9 -28 -18 -37c-25 -24 -49 -33 -78 -33c-24 0 -40 2 -61 14s-41 24 -72 24c-34 0 -59 -31 -65 -38c-3 1 -7 3 -7 10c0 14 10 28 19 37c25 24 49 33 78 33z" />
    <glyph glyph-name="utilde" unicode="&#x169;" horiz-adv-x="491" 
d="M220 584c23 0 40 -5 56 -13c20 -9 36 -23 65 -23c32 0 58 29 65 36c3 -1 7 -2 6 -9c-2 -14 -12 -29 -21 -37c-26 -24 -51 -32 -78 -32c-23 0 -38 6 -55 14c-19 9 -38 22 -67 22c-32 0 -58 -29 -65 -36c-3 1 -6 3 -5 10c2 14 11 28 20 36c26 24 52 32 79 32zM292 99
c6 34 11 53 18 87c-26 -56 -135 -192 -201 -192c-39 0 -50 34 -50 72c0 28 8 74 14 103l33 154c1 6 4 27 4 32c0 9 0 25 -10 25c-21 0 -67 -55 -70 -58c-3 0 -10 13 -10 19c11 19 79 94 126 94c21 0 39 -22 39 -52c0 -8 -3 -32 -7 -53l-35 -165c-2 -9 -7 -43 -7 -54
c0 -23 2 -43 19 -43c36 0 155 126 179 251c8 41 14 68 22 110c10 3 21 4 31 4s27 -1 39 -4l-62 -323c-2 -10 -4 -27 -4 -32c0 -9 0 -25 10 -25c21 0 67 55 70 58c3 0 10 -13 10 -19c-11 -19 -84 -94 -131 -94c-21 0 -34 22 -34 52c0 8 3 32 7 53z" />
    <glyph glyph-name="Umacron" unicode="&#x16a;" horiz-adv-x="661" 
d="M217 657c36 0 71 3 110 5c4 -5 -1 -24 -6 -29c-11 0 -62 -5 -67 -16c-8 -16 -13 -44 -19 -74l-48 -247c-15 -78 -14 -137 5 -176c22 -44 62 -66 121 -66c96 0 169 48 205 220l53 271c7 36 10 53 4 69c-4 10 -48 20 -63 20c-3 7 1 23 4 29c37 -2 59 -5 100 -5
c43 0 59 3 102 5c2 -5 2 -18 -5 -29c-11 0 -68 -8 -77 -20c-11 -15 -15 -30 -22 -68l-53 -270c-39 -200 -134 -280 -279 -280c-70 0 -125 26 -158 72c-31 44 -42 106 -27 183l57 292c6 30 12 58 10 74c-1 11 -50 16 -61 16c-3 5 0 24 6 29c38 -2 72 -5 108 -5zM544 737h-236
s-3 3 -3 9c0 7 7 30 12 30h232c2 0 5 -3 5 -7c0 -5 -2 -23 -10 -32z" />
    <glyph glyph-name="umacron" unicode="&#x16b;" horiz-adv-x="491" 
d="M292 99c6 34 11 53 18 87c-26 -56 -135 -192 -201 -192c-39 0 -50 34 -50 72c0 28 8 74 14 103l33 154c1 6 4 27 4 32c0 9 0 25 -10 25c-21 0 -67 -55 -70 -58c-3 0 -10 13 -10 19c11 19 79 94 126 94c21 0 39 -22 39 -52c0 -8 -3 -32 -7 -53l-35 -165
c-2 -9 -7 -43 -7 -54c0 -23 2 -43 19 -43c36 0 155 126 179 251c8 41 14 68 22 110c10 3 21 4 31 4s27 -1 39 -4l-62 -323c-2 -10 -4 -27 -4 -32c0 -9 0 -25 10 -25c21 0 67 55 70 58c3 0 10 -13 10 -19c-11 -19 -84 -94 -131 -94c-21 0 -34 22 -34 52c0 8 3 32 7 53z
M371 503h-210s-3 3 -3 9c0 7 7 30 12 30h206c2 0 5 -3 5 -7c0 -5 -2 -23 -10 -32z" />
    <glyph glyph-name="Ubreve" unicode="&#x16c;" horiz-adv-x="661" 
d="M217 657c36 0 71 3 110 5c4 -5 -1 -24 -6 -29c-11 0 -62 -5 -67 -16c-8 -16 -13 -44 -19 -74l-48 -247c-15 -78 -14 -137 5 -176c22 -44 62 -66 121 -66c96 0 169 48 205 220l53 271c7 36 10 53 4 69c-4 10 -48 20 -63 20c-3 7 1 23 4 29c37 -2 59 -5 100 -5
c43 0 59 3 102 5c2 -5 2 -18 -5 -29c-11 0 -68 -8 -77 -20c-11 -15 -15 -30 -22 -68l-53 -270c-39 -200 -134 -280 -279 -280c-70 0 -125 26 -158 72c-31 44 -42 106 -27 183l57 292c6 30 12 58 10 74c-1 11 -50 16 -61 16c-3 5 0 24 6 29c38 -2 72 -5 108 -5zM430 776
c39 0 76 21 92 58c0 2 3 2 5 2c6 0 15 -7 14 -11c0 -1 -2 -5 -2 -7c-17 -46 -68 -90 -118 -90s-84 41 -83 91v6c1 4 13 11 19 11c2 0 4 0 4 -2c2 -37 30 -58 69 -58z" />
    <glyph glyph-name="ubreve" unicode="&#x16d;" horiz-adv-x="491" 
d="M292 99c6 34 11 53 18 87c-26 -56 -135 -192 -201 -192c-39 0 -50 34 -50 72c0 28 8 74 14 103l33 154c1 6 4 27 4 32c0 9 0 25 -10 25c-21 0 -67 -55 -70 -58c-3 0 -10 13 -10 19c11 19 79 94 126 94c21 0 39 -22 39 -52c0 -8 -3 -32 -7 -53l-35 -165
c-2 -9 -7 -43 -7 -54c0 -23 2 -43 19 -43c36 0 155 126 179 251c8 41 14 68 22 110c10 3 21 4 31 4s27 -1 39 -4l-62 -323c-2 -10 -4 -27 -4 -32c0 -9 0 -25 10 -25c21 0 67 55 70 58c3 0 10 -13 10 -19c-11 -19 -84 -94 -131 -94c-21 0 -34 22 -34 52c0 8 3 32 7 53z
M379 606c0 -3 -1 -8 -2 -10c-19 -53 -70 -100 -120 -100s-84 44 -81 101c0 2 1 7 1 8c3 5 15 14 22 9c1 -43 28 -72 67 -72s77 29 95 72c4 4 16 -2 18 -8z" />
    <glyph glyph-name="Uring" unicode="&#x16e;" horiz-adv-x="661" 
d="M217 657c36 0 71 3 110 5c4 -5 -1 -24 -6 -29c-11 0 -62 -5 -67 -16c-8 -16 -13 -44 -19 -74l-48 -247c-15 -78 -14 -137 5 -176c22 -44 62 -66 121 -66c96 0 169 48 205 220l53 271c7 36 10 53 4 69c-4 10 -48 20 -63 20c-3 7 1 23 4 29c37 -2 59 -5 100 -5
c43 0 59 3 102 5c2 -5 2 -18 -5 -29c-11 0 -68 -8 -77 -20c-11 -15 -15 -30 -22 -68l-53 -270c-39 -200 -134 -280 -279 -280c-70 0 -125 26 -158 72c-31 44 -42 106 -27 183l57 292c6 30 12 58 10 74c-1 11 -50 16 -61 16c-3 5 0 24 6 29c38 -2 72 -5 108 -5zM382 818
c-6 -31 13 -56 41 -56s55 25 61 56s-11 55 -39 55s-57 -24 -63 -55zM351 818c10 49 56 89 101 89s73 -40 63 -89s-53 -90 -98 -90s-76 41 -66 90z" />
    <glyph glyph-name="uring" unicode="&#x16f;" horiz-adv-x="491" 
d="M227 586c-6 -31 12 -56 40 -56s56 25 62 56s-12 55 -40 55s-56 -24 -62 -55zM196 586c10 49 55 89 100 89s73 -40 63 -89s-53 -90 -98 -90s-75 41 -65 90zM292 99c6 34 11 53 18 87c-26 -56 -135 -192 -201 -192c-39 0 -50 34 -50 72c0 28 8 74 14 103l33 154
c1 6 4 27 4 32c0 9 0 25 -10 25c-21 0 -67 -55 -70 -58c-3 0 -10 13 -10 19c11 19 79 94 126 94c21 0 39 -22 39 -52c0 -8 -3 -32 -7 -53l-35 -165c-2 -9 -7 -43 -7 -54c0 -23 2 -43 19 -43c36 0 155 126 179 251c8 41 14 68 22 110c10 3 21 4 31 4s27 -1 39 -4l-62 -323
c-2 -10 -4 -27 -4 -32c0 -9 0 -25 10 -25c21 0 67 55 70 58c3 0 10 -13 10 -19c-11 -19 -84 -94 -131 -94c-21 0 -34 22 -34 52c0 8 3 32 7 53z" />
    <glyph glyph-name="Uhungarumlaut" unicode="&#x170;" horiz-adv-x="661" 
d="M217 657c36 0 71 3 110 5c4 -5 -1 -24 -6 -29c-11 0 -62 -5 -67 -16c-8 -16 -13 -44 -19 -74l-48 -247c-15 -78 -14 -137 5 -176c22 -44 62 -66 121 -66c96 0 169 48 205 220l53 271c7 36 10 53 4 69c-4 10 -48 20 -63 20c-3 7 1 23 4 29c37 -2 59 -5 100 -5
c43 0 59 3 102 5c2 -5 2 -18 -5 -29c-11 0 -68 -8 -77 -20c-11 -15 -15 -30 -22 -68l-53 -270c-39 -200 -134 -280 -279 -280c-70 0 -125 26 -158 72c-31 44 -42 106 -27 183l57 292c6 30 12 58 10 74c-1 11 -50 16 -61 16c-3 5 0 24 6 29c38 -2 72 -5 108 -5zM474 718
c-1 0 -6 7 -6 10c0 7 81 77 106 93c3 2 20 5 27 5c29 0 48 -11 48 -22c0 -25 -160 -86 -175 -86zM329 718c-1 0 -6 7 -6 10c0 7 81 77 106 93c3 2 20 5 27 5c29 0 48 -11 48 -22c0 -25 -160 -86 -175 -86z" />
    <glyph glyph-name="uhungarumlaut" unicode="&#x171;" horiz-adv-x="491" 
d="M292 99c6 34 11 53 18 87c-26 -56 -135 -192 -201 -192c-39 0 -50 34 -50 72c0 28 8 74 14 103l33 154c1 6 4 27 4 32c0 9 0 25 -10 25c-21 0 -67 -55 -70 -58c-3 0 -10 13 -10 19c11 19 79 94 126 94c21 0 39 -22 39 -52c0 -8 -3 -32 -7 -53l-35 -165
c-2 -9 -7 -43 -7 -54c0 -23 2 -43 19 -43c36 0 155 126 179 251c8 41 14 68 22 110c10 3 21 4 31 4s27 -1 39 -4l-62 -323c-2 -10 -4 -27 -4 -32c0 -9 0 -25 10 -25c21 0 67 55 70 58c3 0 10 -13 10 -19c-11 -19 -84 -94 -131 -94c-21 0 -34 22 -34 52c0 8 3 32 7 53z
M183 502c-3 0 -8 7 -8 10c0 8 82 102 95 111c10 7 22 10 37 10c13 0 39 -7 39 -30c0 -19 -148 -101 -163 -101zM309 502c-3 0 -8 7 -8 10c0 8 82 102 95 111c10 7 22 10 37 10c13 0 39 -7 39 -30c0 -19 -148 -101 -163 -101z" />
    <glyph glyph-name="Uogonek" unicode="&#x172;" horiz-adv-x="682" 
d="M271 -139c0 -15 6 -32 31 -32c47 0 77 38 83 38c8 0 -3 -27 -6 -30c-26 -29 -69 -67 -111 -67c-30 0 -51 28 -51 55c0 51 69 134 123 175c-18 -3 -37 -4 -56 -4c-73 0 -130 28 -162 78c-28 44 -37 104 -23 177l57 292c6 30 12 58 10 74c-1 11 -50 16 -61 16
c-3 5 0 24 6 29c38 -2 72 -5 108 -5s71 3 110 5c4 -5 -1 -24 -6 -29c-11 0 -62 -5 -67 -16c-8 -16 -13 -44 -19 -74l-48 -247c-15 -77 -14 -134 4 -174c20 -46 62 -68 122 -68c96 0 187 48 223 220l53 271c7 36 10 53 4 69c-4 10 -48 20 -63 20c-3 7 1 23 4 29
c37 -2 61 -5 102 -5c43 0 59 3 102 5c2 -5 2 -18 -5 -29c-11 0 -68 -8 -77 -20c-11 -15 -15 -30 -22 -68l-53 -270c-23 -115 -71 -189 -134 -233c-83 -58 -178 -134 -178 -182z" />
    <glyph glyph-name="uogonek" unicode="&#x173;" horiz-adv-x="490" 
d="M199 -180c0 51 61 129 108 176c-15 6 -23 26 -23 50c1 8 4 32 8 53c6 34 11 53 18 87c-26 -56 -135 -192 -201 -192c-39 0 -50 34 -50 72c0 28 8 74 14 103l33 154c1 6 4 27 4 32c0 9 0 25 -10 25c-21 0 -67 -55 -70 -58c-3 0 -10 13 -10 19c11 19 79 94 126 94
c21 0 39 -22 39 -52c0 -8 -3 -32 -7 -53l-35 -165c-2 -9 -7 -43 -7 -54c0 -23 2 -43 19 -43c36 0 155 126 179 251c8 43 13 67 22 110c10 3 21 4 31 4s27 -1 39 -4l-62 -323c-2 -10 -4 -27 -5 -32c0 -9 0 -25 10 -25c21 0 67 55 70 58c3 0 10 -13 10 -19
c-6 -11 -36 -41 -63 -63c-37 -30 -133 -113 -133 -164c0 -15 6 -32 31 -32c47 0 77 38 83 38c8 0 -3 -27 -6 -30c-26 -29 -69 -67 -111 -67c-30 0 -51 23 -51 50z" />
    <glyph glyph-name="Wcircumflex" unicode="&#x174;" horiz-adv-x="841" 
d="M172 657c41 0 75 3 113 5c1 -6 -4 -28 -8 -29c-7 0 -57 -5 -62 -33c-1 -6 0 -25 2 -55c5 -85 18 -251 30 -400l229 484c10 19 30 33 40 33c4 0 5 -5 8 -16c2 -22 35 -303 59 -502l171 380c11 24 21 52 24 70c6 32 -45 39 -56 39c-4 2 0 24 6 29c34 -2 65 -5 99 -5
c43 0 54 3 92 5c2 -5 -4 -29 -7 -29c-7 0 -43 -9 -65 -26c-15 -12 -29 -35 -48 -76l-233 -499c-8 -18 -30 -34 -42 -34c-4 0 -6 12 -6 16c-22 188 -37 303 -61 497l-228 -479c-8 -18 -29 -34 -41 -34c-4 0 -7 12 -7 16l-48 518c-3 40 -3 63 -17 81c-10 13 -40 20 -51 20
c-2 0 4 27 6 29c42 -2 58 -5 101 -5zM570 836c4 0 8 -3 10 -7c26 -42 44 -67 78 -108c-1 -6 -9 -10 -15 -10c-37 25 -89 59 -89 59s-72 -35 -120 -59c-6 0 -11 4 -10 10c56 42 84 65 132 108c5 4 10 7 14 7z" />
    <glyph glyph-name="wcircumflex" unicode="&#x175;" horiz-adv-x="629" 
d="M406 629c4 0 7 -4 9 -8c25 -47 39 -71 68 -116c-1 -6 -8 -11 -13 -11c-31 24 -78 64 -78 64s-66 -39 -105 -64c-5 0 -10 5 -9 11c47 45 72 69 116 116c4 4 8 8 12 8zM385 375c1 -41 3 -129 6 -192c2 -43 5 -91 15 -107c53 46 84 89 107 153c14 38 14 81 14 104
c0 21 -9 46 -26 63c6 17 23 39 47 39c38 0 55 -34 55 -80c0 -126 -195 -361 -264 -361c-7 8 -19 126 -20 156c-1 26 -2 64 -2 64c-67 -96 -160 -220 -202 -220c-7 8 -8 124 -8 154v207c0 9 0 25 -10 25c-21 0 -67 -55 -70 -58c-3 0 -10 13 -10 19c11 19 79 94 126 94
c21 0 39 -24 39 -54v-53v-152c0 -43 1 -65 4 -86c45 48 95 133 113 165c24 44 34 71 43 92c8 10 30 25 43 28z" />
    <glyph glyph-name="Ycircumflex" unicode="&#x176;" horiz-adv-x="556" 
d="M211 116l29 151c1 7 2 18 -1 28l-83 253c-12 37 -25 53 -48 69c-14 10 -38 16 -49 16c-5 0 0 24 6 29c45 -2 69 -5 115 -5s82 3 120 5c1 -6 -2 -29 -7 -29c-13 0 -57 -6 -62 -32c-2 -8 1 -17 5 -30l81 -240c63 88 158 230 175 261c2 3 5 9 6 15s-11 25 -63 25
c-3 3 1 25 4 29c34 -2 59 -5 93 -5c48 0 65 3 103 5c0 -3 -5 -29 -8 -29c-7 0 -60 0 -89 -40l-205 -291c-8 -11 -8 -22 -10 -31l-31 -154c-6 -30 -12 -58 -10 -74c1 -11 50 -16 61 -16c3 -5 1 -24 -5 -29c-38 2 -72 5 -108 5s-72 -3 -111 -5c-4 5 1 24 6 29c11 0 62 5 67 16
c8 16 13 44 19 74zM410 836c4 0 8 -3 10 -7c26 -42 44 -67 78 -108c-1 -6 -9 -10 -15 -10c-37 25 -89 59 -89 59s-72 -35 -120 -59c-6 0 -11 4 -10 10c56 42 84 65 132 108c5 4 10 7 14 7z" />
    <glyph glyph-name="ycircumflex" unicode="&#x177;" horiz-adv-x="447" 
d="M283 641c4 0 7 -4 9 -8c25 -47 39 -71 68 -116c-1 -6 -8 -11 -13 -11c-31 24 -78 64 -78 64s-66 -39 -105 -64c-5 0 -10 5 -9 11c47 45 72 69 116 116c4 4 8 8 12 8zM132 435c86 0 89 -359 89 -420c36 44 115 161 115 270c0 61 -14 86 -25 107c8 26 26 43 50 43
c42 0 44 -57 44 -79c0 -234 -321 -589 -456 -589c-36 0 -60 19 -60 41c0 17 8 36 23 44c15 -9 58 -19 80 -19c62 0 103 35 136 83c23 34 18 103 18 146c0 114 -11 318 -60 318c-21 0 -67 -55 -70 -58c-3 0 -10 13 -10 19c11 19 79 94 126 94z" />
    <glyph glyph-name="Ydieresis" unicode="&#x178;" horiz-adv-x="556" 
d="M211 116l29 151c1 7 2 18 -1 28l-83 253c-12 37 -25 53 -48 69c-14 10 -38 16 -49 16c-5 0 0 24 6 29c45 -2 69 -5 115 -5s82 3 120 5c1 -6 -2 -29 -7 -29c-13 0 -57 -6 -62 -32c-2 -8 1 -17 5 -30l81 -240c63 88 158 230 175 261c2 3 5 9 6 15s-11 25 -63 25
c-3 3 1 25 4 29c34 -2 59 -5 93 -5c48 0 65 3 103 5c0 -3 -5 -29 -8 -29c-7 0 -60 0 -89 -40l-205 -291c-8 -11 -8 -22 -10 -31l-31 -154c-6 -30 -12 -58 -10 -74c1 -11 50 -16 61 -16c3 -5 1 -24 -5 -29c-38 2 -72 5 -108 5s-72 -3 -111 -5c-4 5 1 24 6 29c11 0 62 5 67 16
c8 16 13 44 19 74zM420 778c5 28 30 50 56 50s42 -22 37 -50s-30 -50 -56 -50s-42 22 -37 50zM252 778c5 28 30 50 56 50s42 -22 37 -50s-31 -50 -57 -50s-41 22 -36 50z" />
    <glyph glyph-name="Zacute" unicode="&#x179;" horiz-adv-x="602" 
d="M279 629c-63 0 -118 -55 -154 -137c-2 -3 -6 -4 -11 -4c-8 0 -21 5 -23 8c25 46 45 105 64 173c19 -3 50 -8 75 -8h181c78 0 118 4 197 10c4 -1 14 -14 12 -22c-3 -8 -308 -379 -517 -617h244c47 0 85 26 110 53c26 28 42 62 56 87c1 2 8 3 13 3c9 0 18 -5 21 -9
c-38 -79 -54 -116 -73 -166h-470c-10 0 -19 8 -14 14l518 616zM341 711c-1 0 -6 7 -6 10c0 7 81 77 106 93c3 2 20 5 27 5c29 0 48 -11 48 -22c0 -25 -160 -86 -175 -86z" />
    <glyph glyph-name="zacute" unicode="&#x17a;" horiz-adv-x="387" 
d="M145 435c29 0 52 -11 77 -20c17 -6 35 -11 56 -11c37 0 82 31 90 31c8 -4 11 -13 11 -20c0 -14 -284 -319 -287 -323c4 2 24 11 46 11s43 -8 62 -17c19 -8 37 -17 53 -17c26 0 52 58 58 67c9 0 11 -8 12 -16c-17 -38 -58 -120 -105 -120c-24 0 -54 12 -80 22
c-16 6 -48 10 -71 10c-29 0 -46 -22 -66 -32c-6 2 -10 10 -11 19c0 15 300 330 302 334c-3 -2 -30 -21 -63 -21c-22 0 -42 9 -61 17c-19 9 -37 17 -54 17c-28 0 -53 -59 -59 -68c-7 0 -11 7 -12 16c6 20 56 121 102 121zM221 502c-3 0 -8 7 -8 10c0 8 82 102 95 111
c10 7 22 10 37 10c13 0 39 -7 39 -30c0 -19 -148 -101 -163 -101z" />
    <glyph glyph-name="Zdotaccent" unicode="&#x17b;" horiz-adv-x="602" 
d="M279 629c-63 0 -118 -55 -154 -137c-2 -3 -6 -4 -11 -4c-8 0 -21 5 -23 8c25 46 45 105 64 173c19 -3 50 -8 75 -8h181c78 0 118 4 197 10c4 -1 14 -14 12 -22c-3 -8 -308 -379 -517 -617h244c47 0 85 26 110 53c26 28 42 62 56 87c1 2 8 3 13 3c9 0 18 -5 21 -9
c-38 -79 -54 -116 -73 -166h-470c-10 0 -19 8 -14 14l518 616zM361 778c5 28 31 50 57 50s41 -22 36 -50s-30 -50 -56 -50s-42 22 -37 50z" />
    <glyph glyph-name="zdotaccent" unicode="&#x17c;" horiz-adv-x="387" 
d="M145 435c29 0 52 -11 77 -20c17 -6 35 -11 56 -11c37 0 82 31 90 31c8 -4 11 -13 11 -20c0 -14 -284 -319 -287 -323c4 2 24 11 46 11s43 -8 62 -17c19 -8 37 -17 53 -17c26 0 52 58 58 67c9 0 11 -8 12 -16c-17 -38 -58 -120 -105 -120c-24 0 -54 12 -80 22
c-16 6 -48 10 -71 10c-29 0 -46 -22 -66 -32c-6 2 -10 10 -11 19c0 15 300 330 302 334c-3 -2 -30 -21 -63 -21c-22 0 -42 9 -61 17c-19 9 -37 17 -54 17c-28 0 -53 -59 -59 -68c-7 0 -11 7 -12 16c6 20 56 121 102 121zM214 596c5 28 31 50 57 50s41 -22 36 -50
s-30 -50 -56 -50s-42 22 -37 50z" />
    <glyph glyph-name="Zcaron" unicode="&#x17d;" horiz-adv-x="602" 
d="M279 629c-63 0 -118 -55 -154 -137c-2 -3 -6 -4 -11 -4c-8 0 -21 5 -23 8c25 46 45 105 64 173c19 -3 50 -8 75 -8h181c78 0 118 4 197 10c4 -1 14 -14 12 -22c-3 -8 -308 -379 -517 -617h244c47 0 85 26 110 53c26 28 42 62 56 87c1 2 8 3 13 3c9 0 18 -5 21 -9
c-38 -79 -54 -116 -73 -166h-470c-10 0 -19 8 -14 14l518 616zM373 711c-5 0 -8 3 -10 7c-26 45 -45 66 -78 108c1 6 9 10 15 10c37 -25 89 -59 89 -59s75 36 120 59c6 0 11 -4 10 -10c-54 -42 -83 -63 -132 -108c-5 -4 -9 -7 -14 -7z" />
    <glyph glyph-name="zcaron" unicode="&#x17e;" horiz-adv-x="387" 
d="M245 496c-4 0 -7 4 -9 8c-25 47 -39 71 -68 116c1 6 8 11 13 11c32 -27 78 -64 78 -64s66 39 105 64c5 0 10 -5 9 -11c-47 -45 -72 -69 -116 -116c-4 -4 -8 -8 -12 -8zM145 435c29 0 52 -11 77 -20c17 -6 35 -11 56 -11c37 0 82 31 90 31c8 -4 11 -13 11 -20
c0 -14 -284 -319 -287 -323c4 2 24 11 46 11s43 -8 62 -17c19 -8 37 -17 53 -17c26 0 52 58 58 67c9 0 11 -8 12 -16c-17 -38 -58 -120 -105 -120c-24 0 -54 12 -80 22c-16 6 -48 10 -71 10c-29 0 -46 -22 -66 -32c-6 2 -10 10 -11 19c0 15 300 330 302 334
c-3 -2 -30 -21 -63 -21c-22 0 -42 9 -61 17c-19 9 -37 17 -54 17c-28 0 -53 -59 -59 -68c-7 0 -11 7 -12 16c6 20 56 121 102 121z" />
    <glyph glyph-name="longs" unicode="&#x17f;" horiz-adv-x="296" 
d="M196 376c0 0 -35 -207 -59 -333c-32 -164 -127 -276 -207 -276c-29 0 -47 12 -54 25c0 5 0 11 1 16c3 21 12 40 29 40s27 -11 38 -23c7 -7 15 -15 29 -15c39 0 59 70 90 229l60 337h-85c-1 0 -2 1 -2 3c0 10 23 34 46 34h47c32 164 127 272 207 272c29 0 47 -12 54 -25
v-9c-2 -23 -11 -47 -30 -47c-17 0 -27 11 -38 23c-7 7 -15 15 -29 15c-43 0 -70 -115 -97 -266z" />
    <glyph glyph-name="Ohorn" unicode="&#x1a0;" horiz-adv-x="710" 
d="M406 635c-126 0 -251 -157 -251 -367c0 -115 36 -250 173 -250c153 0 250 196 250 375c0 96 -31 242 -172 242zM645 592c21 0 42 14 42 35c0 9 -7 17 -9 21c-3 7 -7 11 -7 22c0 24 30 38 49 38c9 0 17 -2 22 -4c7 -12 10 -22 10 -34c0 -63 -74 -109 -119 -109
c-4 0 -9 0 -14 1c34 -48 53 -111 53 -180c0 -234 -161 -393 -353 -393c-162 0 -258 126 -258 284c0 230 172 392 354 392c49 0 93 -12 129 -33c37 -21 66 -40 101 -40z" />
    <glyph glyph-name="ohorn" unicode="&#x1a1;" horiz-adv-x="414" 
d="M237 403c-84 0 -135 -145 -135 -245c0 -80 21 -131 57 -131c83 0 131 146 131 246c0 80 -17 130 -53 130zM374 381c17 0 30 8 30 26c0 13 -6 27 -6 37c0 20 18 37 39 37c12 0 22 -3 31 -8c2 -6 4 -16 4 -24c0 -53 -46 -96 -96 -96c-6 0 -12 1 -17 2c6 -20 9 -42 9 -67
c0 -140 -113 -293 -228 -293c-80 0 -116 57 -116 143c0 140 112 297 227 297c24 0 46 -5 69 -21c20 -14 31 -33 54 -33z" />
    <glyph glyph-name="Uhorn" unicode="&#x1af;" horiz-adv-x="661" 
d="M641 613c-12 -13 -19 -29 -26 -67l-53 -270c-39 -200 -134 -280 -279 -280c-70 0 -125 26 -158 72c-31 44 -42 106 -27 183l57 292c6 30 12 58 10 74c-1 11 -50 16 -61 16c-3 5 0 24 6 29c38 -2 72 -5 108 -5s71 3 110 5c4 -5 -1 -24 -6 -29c-11 0 -62 -5 -67 -16
c-8 -16 -13 -44 -19 -74l-48 -247c-15 -78 -14 -137 5 -176c22 -44 62 -66 121 -66c96 0 169 48 205 220l53 271c7 36 10 53 4 69c-4 10 -48 20 -63 20c-3 7 1 23 4 29c37 -2 59 -5 100 -5c37 0 90 5 90 26c0 9 -7 17 -9 21c-3 7 -7 11 -7 22c0 24 30 38 49 38
c9 0 17 -2 22 -4c7 -12 10 -22 10 -34c0 -52 -57 -90 -100 -100c-9 -2 -25 -7 -31 -14z" />
    <glyph glyph-name="uhorn" unicode="&#x1b0;" horiz-adv-x="491" 
d="M422 435c17 0 42 10 42 28c0 13 -6 27 -6 37c0 20 18 37 39 37c12 0 22 -3 31 -8c2 -6 4 -16 4 -24c0 -53 -46 -96 -96 -96c-9 0 -15 -3 -16 -10c-22 -113 -56 -293 -56 -293c-2 -10 -4 -27 -4 -32c0 -9 0 -25 10 -25c21 0 67 55 70 58c3 0 10 -13 10 -19
c-11 -19 -84 -94 -131 -94c-21 0 -34 22 -34 52c0 8 3 32 7 53c6 34 11 53 18 87c-26 -56 -135 -192 -201 -192c-39 0 -50 34 -50 72c0 28 8 74 14 103l33 154c1 6 4 27 4 32c0 9 0 25 -10 25c-21 0 -67 -55 -70 -58c-3 0 -10 13 -10 19c11 19 79 94 126 94
c21 0 39 -22 39 -52c0 -8 -3 -32 -7 -53l-35 -165c-2 -9 -7 -43 -7 -54c0 -23 2 -43 19 -43c36 0 155 126 179 251c8 41 14 68 22 110c10 3 48 6 66 6z" />
    <glyph glyph-name="Gcaron" unicode="&#x1e6;" horiz-adv-x="697" 
d="M585 494c5 80 -65 141 -149 141c-156 0 -283 -136 -282 -353c0 -119 56 -261 201 -261c48 0 91 20 112 34c6 4 9 10 10 17c5 27 20 103 20 103c6 30 12 58 10 74c-1 11 -55 16 -66 16c-3 5 -1 24 5 29c38 -2 72 -5 108 -5s71 3 110 5c4 -5 1 -24 -4 -29
c-11 0 -59 -5 -64 -16c-8 -16 -13 -44 -19 -74l-14 -71c-4 -21 2 -26 2 -36c0 -6 -4 -13 -22 -22c-46 -24 -96 -54 -219 -54c-154 0 -265 125 -265 273c0 252 199 405 406 401c58 -1 112 -14 161 -26c-2 -36 -8 -116 -10 -146c0 -3 -4 -5 -8 -5c-6 0 -15 1 -23 5zM444 711
c-5 0 -8 3 -10 7c-26 45 -45 66 -78 108c1 6 9 10 15 10c37 -25 89 -59 89 -59s75 36 120 59c6 0 11 -4 10 -10c-54 -42 -83 -63 -132 -108c-5 -4 -9 -7 -14 -7z" />
    <glyph glyph-name="gcaron" unicode="&#x1e7;" horiz-adv-x="412" 
d="M210 495c-4 0 -7 4 -9 8c-25 47 -39 71 -68 116c1 6 8 11 13 11c32 -27 78 -64 78 -64s66 39 105 64c5 0 10 -5 9 -11c-47 -45 -72 -69 -116 -116c-4 -4 -8 -8 -12 -8zM278 -118c0 63 -93 94 -151 112c-40 -17 -101 -48 -101 -104c0 -67 65 -88 143 -88
c67 0 109 38 109 80zM212 407c-64 0 -98 -91 -98 -160c0 -49 20 -96 62 -96c65 0 97 81 97 143c0 49 -22 113 -61 113zM333 381c1 -6 14 -42 14 -69c0 -106 -71 -155 -91 -167c-35 -21 -115 -40 -115 -63c0 -33 201 -43 201 -160c0 -95 -91 -155 -234 -155
c-90 0 -156 36 -156 98c0 69 85 114 144 141l-18 12c-12 8 -25 18 -25 36c0 25 67 60 100 68c-32 0 -113 38 -113 117c0 113 96 197 189 197c38 0 60 -10 85 -22c14 -7 50 13 63 15c13 -4 41 -22 41 -35c0 -7 -4 -14 -12 -14c-14 0 -60 2 -73 1z" />
    <glyph glyph-name="Scommaaccent" unicode="&#x218;" horiz-adv-x="472" 
d="M101 -108c0 32 47 55 86 55c13 -10 13 -33 13 -41c0 -55 -61 -119 -94 -137c-1 -1 -4 -2 -8 -2c-12 0 -18 4 -18 7c0 6 43 20 51 61c6 30 -30 31 -30 57zM312 666c58 0 88 -12 137 -24c-3 -34 -15 -114 -21 -144c-1 -7 -7 -7 -10 -7c-4 0 -15 1 -21 7
c5 80 -22 137 -93 137c-82 0 -124 -64 -124 -115c0 -82 62 -114 115 -156s126 -78 126 -171c0 -124 -120 -201 -228 -201c-57 0 -109 20 -147 42c-13 54 -14 138 -12 150c3 4 18 6 25 6c5 0 8 -2 10 -6c0 -55 37 -162 136 -162c66 0 127 46 127 125c0 72 -45 107 -95 147
c-60 48 -135 79 -135 182c0 115 117 190 210 190z" />
    <glyph glyph-name="scommaaccent" unicode="&#x219;" horiz-adv-x="322" 
d="M55 -108c0 32 47 55 86 55c13 -10 13 -33 13 -41c0 -55 -61 -119 -94 -137c-1 -1 -4 -2 -8 -2c-12 0 -18 4 -18 7c0 6 43 20 51 61c6 30 -30 31 -30 57zM199 438c40 0 65 -9 86 -27c5 -7 10 -25 10 -32c0 -23 -14 -41 -34 -41c-18 0 -34 17 -47 35c-11 16 -18 31 -47 31
c-35 0 -49 -35 -49 -56c0 -40 35 -71 66 -106c31 -36 61 -75 61 -125c0 -74 -61 -123 -145 -123c-31 0 -62 8 -88 30c-3 5 -10 20 -10 30c0 29 17 46 37 46s28 -24 43 -45c11 -15 26 -29 53 -29c40 0 49 37 49 58c0 35 -26 62 -52 92c-35 39 -72 79 -72 136
c0 56 55 126 139 126z" />
    <glyph glyph-name="uni021A" unicode="&#x21a;" horiz-adv-x="587" 
d="M168 -108c0 32 47 55 86 55c13 -10 13 -33 13 -41c0 -55 -61 -119 -94 -137c-1 -1 -4 -2 -8 -2c-12 0 -18 4 -18 7c0 6 43 20 51 61c6 30 -30 31 -30 57zM550 655c15 0 47 9 59 15c10 5 13 5 18 2c-5 -61 -9 -119 -9 -172c-3 -3 -12 -8 -20 -7c-5 0 -11 2 -12 5
c1 70 -18 122 -64 122h-118l-99 -504c-6 -30 -12 -58 -10 -74c1 -11 50 -16 61 -16c3 -5 1 -24 -5 -29c-38 2 -72 5 -108 5s-72 -3 -111 -5c-4 5 1 24 6 29c11 0 62 5 67 16c8 16 13 44 19 74l99 504h-120c-46 0 -86 -52 -113 -122c-2 -3 -9 -5 -14 -5c-9 -1 -15 4 -17 7
c21 53 40 111 58 172c6 3 15 0 20 -3c10 -6 35 -14 50 -14h363z" />
    <glyph glyph-name="uni021B" unicode="&#x21b;" horiz-adv-x="278" 
d="M83 -108c0 32 47 55 86 55c13 -10 13 -33 13 -41c0 -55 -61 -119 -94 -137c-1 -1 -4 -2 -8 -2c-12 0 -18 4 -18 7c0 6 43 20 51 61c6 30 -30 31 -30 57zM117 413l11 59c11 14 57 66 65 66c6 0 13 -3 17 -6l-22 -119h75c4 0 5 -7 5 -12c0 -10 -4 -17 -9 -25h-78l-53 -270
c-2 -10 -4 -27 -4 -32c0 -9 0 -25 10 -25c21 0 67 55 70 58c3 0 10 -13 10 -19c-11 -19 -84 -94 -131 -94c-21 0 -34 22 -34 52c0 8 3 32 7 53l54 277h-67c-1 0 -2 1 -2 3c0 10 23 34 46 34h30z" />
    <glyph glyph-name="uni0237" unicode="&#x237;" horiz-adv-x="249" 
d="M117 323c1 6 4 27 4 32c0 9 0 25 -10 25c-21 0 -67 -55 -70 -58c-3 0 -10 13 -10 19c11 19 79 94 126 94c21 0 39 -22 39 -52c0 -8 -3 -32 -7 -53l-55 -285c-7 -36 -28 -112 -71 -169c-42 -55 -104 -97 -139 -111c-4 3 -9 13 -9 20c67 38 120 126 142 237z" />
    <glyph glyph-name="uni02BB" unicode="&#x2bb;" horiz-adv-x="180" 
d="M129 513c0 -32 -47 -55 -86 -55c-13 10 -13 33 -13 41c0 55 61 119 94 137c1 1 4 2 8 2c12 0 18 -4 18 -7c0 -6 -43 -20 -51 -61c-6 -30 30 -31 30 -57z" />
    <glyph glyph-name="afii57929" unicode="&#x2bc;" horiz-adv-x="174" 
d="M65 592c0 38 34 60 74 60c4 -7 5 -16 5 -28c0 -10 -1 -21 -3 -34c-9 -45 -69 -110 -94 -124c-1 -1 -5 -1 -7 -1c-5 0 -10 7 -10 12c0 4 46 27 46 74c0 11 -11 23 -11 41z" />
    <glyph glyph-name="uni02BE" unicode="&#x2be;" horiz-adv-x="195" 
d="M29 472c47 0 89 45 99 96c11 55 -10 96 -65 96c-2 6 -2 21 9 34c74 0 121 -59 107 -129s-86 -131 -159 -131c-1 9 1 20 9 34z" />
    <glyph glyph-name="uni02BF" unicode="&#x2bf;" horiz-adv-x="195" 
d="M132 472c2 -14 2 -25 -3 -34c-73 0 -123 61 -109 131s83 129 157 129c5 -13 1 -28 -3 -34c-55 0 -92 -41 -103 -96c-10 -51 14 -96 61 -96z" />
    <glyph glyph-name="uni02C0" unicode="&#x2c0;" horiz-adv-x="188" 
d="M76 607c-19 0 -36 -11 -40 -17c-3 1 -6 6 -6 11c0 16 36 41 65 41c37 0 63 -21 63 -52c0 -39 -47 -54 -68 -63c-12 -5 -14 -11 -14 -17s3 -12 5 -15c-4 -4 -14 -8 -19 -8c-5 2 -18 11 -18 28s19 23 34 30c20 9 35 17 35 34c0 18 -20 28 -37 28z" />
    <glyph glyph-name="circumflex" unicode="&#x2c6;" horiz-adv-x="246" 
d="M148 625c4 0 7 -4 9 -8c25 -47 39 -71 68 -116c-1 -6 -8 -11 -13 -11c-31 24 -78 64 -78 64s-66 -39 -105 -64c-5 0 -10 5 -9 11c47 45 72 69 116 116c4 4 8 8 12 8z" />
    <glyph glyph-name="caron" unicode="&#x2c7;" horiz-adv-x="245" 
d="M97 493c-4 0 -7 4 -9 8c-25 47 -39 71 -68 116c1 6 8 11 13 11c32 -27 78 -64 78 -64s66 39 105 64c5 0 10 -5 9 -11c-47 -45 -72 -69 -116 -116c-4 -4 -8 -8 -12 -8z" />
    <glyph glyph-name="breve" unicode="&#x2d8;" horiz-adv-x="243" 
d="M223 600c0 -3 -1 -8 -2 -10c-19 -53 -70 -100 -120 -100s-84 44 -81 101c0 2 1 7 1 8c3 5 15 14 22 9c1 -43 28 -72 67 -72s77 29 95 72c4 4 16 -2 18 -8z" />
    <glyph glyph-name="dotaccent" unicode="&#x2d9;" horiz-adv-x="134" 
d="M21 540c5 28 31 50 57 50s41 -22 36 -50s-30 -50 -56 -50s-42 22 -37 50z" />
    <glyph glyph-name="ring" unicode="&#x2da;" horiz-adv-x="456" 
d="M638 580c-6 -31 12 -56 40 -56s56 25 62 56s-12 55 -40 55s-56 -24 -62 -55zM607 580c10 49 55 89 100 89s73 -40 63 -89s-53 -90 -98 -90s-75 41 -65 90z" />
    <glyph glyph-name="ogonek" unicode="&#x2db;" horiz-adv-x="459" 
d="M626 42c16 0 37 -5 24 -17c-26 -22 -136 -77 -148 -141c-3 -15 -2 -43 30 -43c47 0 77 38 83 38c1 0 4 -5 2 -13c-1 -5 -4 -13 -8 -17c-26 -29 -69 -67 -111 -67c-52 0 -56 50 -51 77c13 66 152 183 179 183z" />
    <glyph glyph-name="tilde" unicode="&#x2dc;" horiz-adv-x="446" 
d="M721 568c23 0 40 -5 56 -13c20 -9 36 -23 65 -23c32 0 58 29 65 36c3 -1 7 -2 6 -9c-2 -14 -12 -29 -21 -37c-26 -24 -51 -32 -78 -32c-23 0 -38 6 -55 14c-19 9 -38 22 -67 22c-32 0 -58 -29 -65 -36c-3 1 -6 3 -5 10c2 14 11 28 20 36c26 24 52 32 79 32z" />
    <glyph glyph-name="hungarumlaut" unicode="&#x2dd;" 
d="M587 490c-3 0 -8 7 -8 10c0 8 82 102 95 111c10 7 22 10 37 10c13 0 39 -7 39 -30c0 -19 -148 -101 -163 -101zM713 490c-3 0 -8 7 -8 10c0 8 82 102 95 111c10 7 22 10 37 10c13 0 39 -7 39 -30c0 -19 -148 -101 -163 -101z" />
    <glyph glyph-name="gravecomb" unicode="&#x300;" horiz-adv-x="0" 
d="M-192 490c-15 0 -163 82 -163 101c0 23 26 30 39 30c15 0 27 -3 37 -10c13 -9 95 -103 95 -111c0 -3 -5 -10 -8 -10z" />
    <glyph glyph-name="acutecomb" unicode="&#x301;" horiz-adv-x="0" 
d="M-325 490c-3 0 -8 7 -8 10c0 8 82 102 95 111c10 7 22 10 37 10c13 0 39 -7 39 -30c0 -19 -148 -101 -163 -101z" />
    <glyph glyph-name="uni0302" unicode="&#x302;" horiz-adv-x="0" 
d="M-240 625c4 0 7 -4 9 -8c25 -47 39 -71 68 -116c-1 -6 -8 -11 -13 -11c-31 24 -78 64 -78 64s-66 -39 -105 -64c-5 0 -10 5 -9 11c47 45 72 69 116 116c4 4 8 8 12 8z" />
    <glyph glyph-name="tildecomb" unicode="&#x303;" horiz-adv-x="0" 
d="M-297 568c23 0 40 -5 56 -13c20 -9 36 -23 65 -23c32 0 58 29 65 36c3 -1 7 -2 6 -9c-2 -14 -12 -29 -21 -37c-26 -24 -51 -32 -78 -32c-23 0 -38 6 -55 14c-19 9 -38 22 -67 22c-32 0 -58 -29 -65 -36c-3 1 -6 3 -5 10c2 14 11 28 20 36c26 24 52 32 79 32z" />
    <glyph glyph-name="uni0304" unicode="&#x304;" horiz-adv-x="0" 
d="M-157 490h-210s-3 3 -3 9c0 7 7 30 12 30h206c2 0 5 -3 5 -7c0 -5 -2 -23 -10 -32z" />
    <glyph glyph-name="uni0305" unicode="&#x305;" horiz-adv-x="0" 
d="M129 749c0 2 13 53 23 53h542c2 0 5 -1 3 -9c-3 -18 -14 -43 -16 -47c-3 -6 -9 -7 -9 -7h-539s-6 0 -4 10z" />
    <glyph glyph-name="uni0306" unicode="&#x306;" horiz-adv-x="0" 
d="M-132 600c0 -3 -1 -8 -2 -10c-19 -53 -70 -100 -120 -100s-84 44 -81 101c0 2 1 7 1 8c3 5 15 14 22 9c1 -43 28 -72 67 -72s77 29 95 72c4 4 16 -2 18 -8z" />
    <glyph glyph-name="uni0307" unicode="&#x307;" horiz-adv-x="0" 
d="M-298 540c5 28 31 50 57 50s41 -22 36 -50s-30 -50 -56 -50s-42 22 -37 50z" />
    <glyph glyph-name="uni0308" unicode="&#x308;" horiz-adv-x="0" 
d="M-158 582c23 0 38 -22 33 -47s-29 -45 -52 -45s-40 21 -35 46s31 46 54 46zM-329 582c23 0 39 -22 34 -47s-29 -45 -52 -45s-40 21 -35 46s30 46 53 46z" />
    <glyph glyph-name="hookabovecomb" unicode="&#x309;" horiz-adv-x="0" 
d="M-278 607c-19 0 -36 -11 -40 -17c-3 1 -6 6 -6 11c0 16 36 41 65 41c37 0 63 -21 63 -52c0 -39 -47 -54 -68 -63c-12 -5 -14 -11 -14 -17s3 -12 5 -15c-4 -4 -14 -8 -19 -8c-5 2 -18 11 -18 28s19 23 34 30c20 9 35 17 35 34c0 18 -20 28 -37 28z" />
    <glyph glyph-name="uni030A" unicode="&#x30a;" horiz-adv-x="0" 
d="M-300 580c-6 -31 12 -56 40 -56s56 25 62 56s-12 55 -40 55s-56 -24 -62 -55zM-331 580c10 49 55 89 100 89s73 -40 63 -89s-53 -90 -98 -90s-75 41 -65 90z" />
    <glyph glyph-name="uni030B" unicode="&#x30b;" horiz-adv-x="0" 
d="M-372 490c-3 0 -8 7 -8 10c0 8 82 102 95 111c10 7 22 10 37 10c13 0 39 -7 39 -30c0 -19 -148 -101 -163 -101zM-246 490c-3 0 -8 7 -8 10c0 8 82 102 95 111c10 7 22 10 37 10c13 0 39 -7 39 -30c0 -19 -148 -101 -163 -101z" />
    <glyph glyph-name="uni030C" unicode="&#x30c;" horiz-adv-x="0" 
d="M-270 493c-4 0 -7 4 -9 8c-25 47 -39 71 -68 116c1 6 8 11 13 11c32 -27 78 -64 78 -64s66 39 105 64c5 0 10 -5 9 -11c-47 -45 -72 -69 -116 -116c-4 -4 -8 -8 -12 -8z" />
    <glyph glyph-name="uni0312" unicode="&#x312;" horiz-adv-x="0" 
d="M210 513c0 -32 -47 -55 -86 -55c-13 10 -13 33 -13 41c0 55 61 119 94 137c1 1 4 2 8 2c12 0 18 -4 18 -7c0 -6 -43 -20 -51 -61c-6 -30 30 -31 30 -57z" />
    <glyph glyph-name="uni0315" unicode="&#x315;" horiz-adv-x="0" 
d="M162 592c0 38 34 60 74 60c4 -7 5 -16 5 -28c0 -10 -1 -21 -3 -34c-9 -45 -69 -110 -94 -124c-1 -1 -5 -1 -7 -1c-5 0 -10 7 -10 12c0 4 46 27 46 74c0 11 -11 23 -11 41z" />
    <glyph glyph-name="dotbelowcomb" unicode="&#x323;" horiz-adv-x="0" 
d="M-305 -82c5 28 30 50 56 50s42 -22 37 -50s-31 -50 -57 -50s-41 22 -36 50z" />
    <glyph glyph-name="uni0324" unicode="&#x324;" horiz-adv-x="0" 
d="M-158 -71c23 0 38 -22 33 -47s-29 -45 -52 -45s-40 21 -35 46s31 46 54 46zM-329 -71c23 0 39 -22 34 -47s-29 -45 -52 -45s-40 21 -35 46s30 46 53 46z" />
    <glyph glyph-name="uni0325" unicode="&#x325;" horiz-adv-x="0" 
d="M-300 -153c-6 -31 12 -56 40 -56s56 25 62 56s-12 55 -40 55s-56 -24 -62 -55zM-331 -153c10 49 55 89 100 89s73 -40 63 -89s-53 -90 -98 -90s-75 41 -65 90z" />
    <glyph glyph-name="uni0326" unicode="&#x326;" horiz-adv-x="0" 
d="M-302 -68c0 32 47 55 86 55c13 -10 13 -33 13 -41c0 -55 -61 -119 -94 -137c-1 -1 -4 -2 -8 -2c-12 0 -18 4 -18 7c0 6 43 20 51 61c6 30 -30 31 -30 57z" />
    <glyph glyph-name="uni0327" unicode="&#x327;" horiz-adv-x="0" 
d="M-247 -27h23c24 0 37 -23 32 -49c-9 -47 -54 -76 -102 -76c-11 0 -25 5 -30 9c0 5 -1 8 0 14c1 7 9 14 15 14c11 0 17 -13 32 -13c26 0 44 16 47 33c5 24 -10 34 -22 34c-10 0 -16 -3 -26 -7c-2 0 -10 9 -7 13c11 15 30 37 40 51h19z" />
    <glyph glyph-name="uni0328" unicode="&#x328;" horiz-adv-x="0" 
d="M-72 42c16 0 37 -5 24 -17c-26 -22 -136 -77 -148 -141c-3 -15 -2 -43 30 -43c47 0 77 38 83 38c1 0 4 -5 2 -13c-1 -5 -4 -13 -8 -17c-26 -29 -69 -67 -111 -67c-52 0 -56 50 -51 77c13 66 152 183 179 183z" />
    <glyph glyph-name="uni032D" unicode="&#x32d;" horiz-adv-x="0" 
d="M-240 -63c4 0 7 -4 9 -8c25 -47 39 -71 68 -116c-1 -6 -8 -11 -13 -11c-31 24 -78 64 -78 64s-66 -39 -105 -64c-5 0 -10 5 -9 11c47 45 72 69 116 116c4 4 8 8 12 8z" />
    <glyph glyph-name="uni032E" unicode="&#x32e;" horiz-adv-x="0" 
d="M-132 -78c0 -3 -1 -8 -2 -10c-19 -53 -70 -100 -120 -100s-84 44 -81 101c0 2 1 7 1 8c3 5 15 14 22 9c1 -43 28 -72 67 -72s77 29 95 72c4 4 16 -2 18 -8z" />
    <glyph glyph-name="uni0330" unicode="&#x330;" horiz-adv-x="0" 
d="M-297 -78c23 0 40 -5 56 -13c20 -9 36 -23 65 -23c32 0 58 29 65 36c3 -1 7 -2 6 -9c-2 -14 -12 -29 -21 -37c-26 -24 -51 -32 -78 -32c-23 0 -38 6 -55 14c-19 9 -38 22 -67 22c-32 0 -58 -29 -65 -36c-3 1 -6 3 -5 10c2 14 11 28 20 36c26 24 52 32 79 32z" />
    <glyph glyph-name="uni0331" unicode="&#x331;" horiz-adv-x="0" 
d="M-157 -106h-210s-3 3 -3 9c0 7 7 30 12 30h206c2 0 5 -3 5 -7c0 -5 -2 -23 -10 -32z" />
    <glyph glyph-name="tonos" unicode="&#x384;" horiz-adv-x="174" 
d="M252 704c20 0 22 -12 20 -23c-10 -50 -121 -185 -129 -188h-3c-4 0 -10 4 -9 9c2 9 43 120 73 177c6 10 31 25 48 25z" />
    <glyph glyph-name="dieresistonos" unicode="&#x385;" horiz-adv-x="344" 
d="M380 597c23 0 38 -21 33 -46s-28 -44 -51 -44s-39 20 -34 45s29 45 52 45zM183 597c23 0 38 -21 33 -46s-28 -44 -51 -44s-39 20 -34 45s29 45 52 45zM336 702c17 0 19 -11 17 -22c-9 -48 -104 -178 -111 -181h-3c-3 0 -8 4 -7 9c1 9 37 115 62 170c6 10 27 24 42 24z
" />
    <glyph glyph-name="Alphatonos" unicode="&#x386;" horiz-adv-x="497" 
d="M306 939c20 0 22 -12 20 -23c-10 -50 -121 -185 -129 -188h-3c-4 0 -10 4 -9 9c2 9 43 120 73 177c6 10 31 25 48 25zM-143 26c101 93 247 425 317 573c-10 17 -40 11 -65 -2c-1 4 0 10 1 16c10 23 48 53 74 53c25 0 45 -11 61 -40c39 -69 40 -175 54 -287
c17 -139 37 -279 69 -335c-4 -9 -17 -16 -17 -16s-50 7 -66 29c-26 84 -33 163 -43 272l-193 -41l-114 -248c-2 -5 -14 -10 -20 -10c-24 10 -49 18 -58 36zM74 303l166 11c-9 99 -14 195 -43 268z" />
    <glyph glyph-name="anoteleia" unicode="&#x387;" horiz-adv-x="222" 
d="M54 252c0 37 34 70 67 70c26 0 43 -20 43 -46c0 -37 -33 -71 -66 -71c-26 0 -44 20 -44 47z" />
    <glyph glyph-name="Epsilontonos" unicode="&#x388;" horiz-adv-x="479" 
d="M490 939c20 0 22 -12 20 -23c-10 -50 -121 -185 -129 -188h-3c-4 0 -10 4 -9 9c2 9 43 120 73 177c6 10 31 25 48 25zM169 43c89 0 193 65 200 76c7 -3 9 -18 8 -23c-2 -8 -47 -96 -93 -96h-257c-17 0 -60 5 -71 34c16 18 40 82 51 137c33 172 79 432 79 432
c-4 17 -15 33 -27 39c1 7 7 16 13 19c46 -3 56 -3 96 -3c94 1 115 4 219 6c0 0 20 -38 35 -80c-7 -10 -6 -14 -15 -18c-58 40 -89 49 -164 49c-47 0 -51 -3 -91 -8c-6 -30 -28 -151 -47 -252h23c58 0 96 8 150 29c19 -16 33 -63 40 -80c0 -7 -11 -17 -17 -19
c-24 13 -55 24 -102 24c-23 0 -70 0 -102 -2c-6 -32 -10 -57 -13 -71c-13 -70 -34 -157 -31 -178c30 -12 64 -15 116 -15z" />
    <glyph glyph-name="Etatonos" unicode="&#x389;" horiz-adv-x="480" 
d="M372 939c20 0 22 -12 20 -23c-10 -50 -121 -185 -129 -188h-3c-4 0 -10 4 -9 9c2 9 43 120 73 177c6 10 31 25 48 25zM426 468c-21 -110 -37 -190 -48 -250c-13 -70 -28 -196 -25 -217c-8 -10 -18 -17 -27 -17c-6 0 -51 21 -48 36c0 0 35 154 63 292
c-71 -3 -201 -4 -278 -17c-5 -29 -10 -54 -14 -77c-13 -70 -29 -196 -26 -217c-8 -10 -17 -17 -26 -17c-6 0 -52 21 -49 36c0 0 43 187 72 334c4 21 30 188 41 293c3 6 18 17 24 17c23 0 55 -21 52 -37c-1 -7 -28 -95 -40 -159c-9 -45 -17 -85 -24 -121l275 1l1 6
c4 21 30 188 41 293c3 6 18 17 24 17c23 0 55 -21 52 -37c-1 -7 -28 -95 -40 -159z" />
    <glyph glyph-name="Iotatonos" unicode="&#x38a;" horiz-adv-x="151" 
d="M191 939c20 0 22 -12 20 -23c-10 -50 -121 -185 -129 -188h-3c-4 0 -10 4 -9 9c2 9 43 120 73 177c6 10 31 25 48 25zM97 468c-21 -110 -37 -190 -48 -250c-13 -70 -28 -196 -25 -217c-8 -10 -18 -17 -27 -17c-6 0 -52 21 -49 36c0 0 43 187 72 334c4 21 30 188 41 293
c3 6 18 17 24 17c23 0 55 -21 52 -37c-1 -7 -28 -95 -40 -159z" />
    <glyph glyph-name="Omicrontonos" unicode="&#x38c;" horiz-adv-x="680" 
d="M391 939c20 0 22 -12 20 -23c-10 -50 -121 -185 -129 -188h-3c-4 0 -10 4 -9 9c2 9 43 120 73 177c6 10 31 25 48 25zM390 627c-135 0 -242 -166 -272 -318c-27 -137 14 -280 142 -280c132 0 248 159 277 310c27 141 -16 288 -147 288zM393 667c156 0 258 -137 217 -348
c-36 -187 -193 -329 -349 -329s-256 130 -214 347c36 187 190 330 346 330z" />
    <glyph glyph-name="Upsilontonos" unicode="&#x38e;" horiz-adv-x="507" 
d="M287 939c20 0 22 -12 20 -23c-10 -50 -121 -185 -129 -188h-3c-4 0 -10 4 -9 9c2 9 43 120 73 177c6 10 31 25 48 25zM503 624c-143 -82 -308 -368 -322 -440c-14 -70 -22 -162 -19 -183c-8 -10 -18 -17 -27 -17c-6 0 -54 21 -51 36c13 66 31 123 42 160c2 7 4 13 6 20
c-8 231 -36 391 -92 391c-25 0 -49 -17 -57 -26c-3 0 -6 7 -8 12c-1 4 -1 8 0 11c21 44 65 80 97 80c62 0 89 -227 91 -391c70 155 190 316 280 386c7 4 57 -16 58 -18c4 -6 6 -13 2 -21z" />
    <glyph glyph-name="Omegatonos" unicode="&#x38f;" horiz-adv-x="689" 
d="M516 939c20 0 22 -12 20 -23c-10 -50 -121 -185 -129 -188h-3c-4 0 -10 4 -9 9c2 9 43 120 73 177c6 10 31 25 48 25zM417 667c161 0 248 -146 212 -332c-24 -122 -111 -222 -216 -275c10 -5 43 -6 67 -6c50 0 103 30 123 43c7 0 8 -11 7 -15c-8 -14 -58 -82 -123 -82
h-120c-5 10 -14 36 -11 51c2 8 10 19 15 24c120 74 167 185 184 274c33 171 -29 278 -137 278c-139 0 -235 -170 -257 -284c-30 -155 20 -238 77 -273c5 -10 21 -40 19 -51c-2 -9 -13 -15 -26 -19c-78 0 -48 2 -163 0c-10 6 -49 54 -53 64c4 8 14 11 19 11
c24 -8 41 -20 80 -23c31 -2 70 5 70 5c-81 41 -122 166 -97 296c34 175 180 314 330 314z" />
    <glyph glyph-name="iotadieresistonos" unicode="&#x390;" horiz-adv-x="232" 
d="M208 594c23 0 38 -21 33 -46s-28 -44 -51 -44s-39 20 -34 45s29 45 52 45zM11 594c23 0 38 -21 33 -46s-28 -44 -51 -44s-39 20 -34 45s29 45 52 45zM164 699c17 0 19 -11 17 -22c-9 -48 -104 -178 -111 -181h-3c-3 0 -8 4 -7 9c1 9 37 115 62 170c6 10 27 24 42 24z
M65 67c24 0 50 21 59 30c3 0 8 -9 8 -14c0 -3 0 -4 -1 -7c-21 -44 -59 -80 -96 -80c-41 1 -57 43 -47 93c4 23 38 199 63 327c8 10 17 17 26 17c5 0 50 -28 47 -43c-34 -113 -65 -190 -86 -290c-6 -28 16 -33 27 -33z" />
    <glyph glyph-name="Alpha" unicode="&#x391;" horiz-adv-x="497" 
d="M-60 26c101 93 247 425 317 573c-10 17 -40 11 -65 -2c-1 4 0 10 1 16c10 23 48 53 74 53c25 0 45 -11 61 -40c39 -69 40 -175 54 -287c17 -139 37 -279 69 -335c-4 -9 -17 -16 -17 -16s-50 7 -66 29c-26 84 -33 163 -43 272l-193 -41l-114 -248c-2 -5 -14 -10 -20 -10
c-24 10 -49 18 -58 36zM157 303l166 11c-9 99 -14 195 -43 268z" />
    <glyph glyph-name="Beta" unicode="&#x392;" horiz-adv-x="480" 
d="M126 603c-4 17 -15 33 -27 39c1 7 7 16 13 19c46 -3 61 -3 101 -3c162 0 245 -51 225 -156c-18 -95 -100 -133 -127 -142c36 -11 131 -56 108 -172c-13 -67 -69 -188 -268 -191c-31 0 25 -2 -87 -2c-17 0 -60 -4 -71 25c16 18 40 82 51 137c33 172 82 446 82 446z
M218 327c-25 0 -24 2 -78 -1c-6 -32 -15 -80 -17 -94c-13 -70 -30 -165 -27 -186c15 -7 16 -10 50 -10c70 0 169 28 191 139c17 86 -25 152 -119 152zM265 618c-18 1 -46 -1 -63 -9c-13 -40 -33 -141 -52 -242c4 0 22 -3 31 -3c121 0 174 69 187 134c16 81 -17 120 -103 120
z" />
    <glyph glyph-name="Gamma" unicode="&#x393;" horiz-adv-x="412" 
d="M168 610c-9 -46 -58 -321 -69 -380c-13 -70 -35 -208 -32 -229c-8 -10 -17 -17 -26 -17c-6 0 -50 21 -47 36l112 583c-6 21 -37 36 -56 41c1 7 7 16 13 19c46 -3 74 -5 121 -5c95 0 139 4 243 6c0 0 24 -81 27 -132c-7 -10 -11 -12 -20 -14c-38 79 -75 100 -151 100
c-47 0 -75 -3 -115 -8z" />
    <glyph glyph-name="Delta" unicode="&#x394;" horiz-adv-x="583" 
d="M430 63c-28 118 -68 303 -96 466c-3 3 -282 -466 -282 -466h378zM370 655c51 -250 85 -368 141 -622c-11 -25 -43 -35 -53 -37c-5 3 -35 7 -57 7c-234 0 -423 -3 -423 -3c-3 0 -6 6 -5 10c0 0 203 326 332 538c16 27 22 45 32 70c7 12 32 42 33 37z" />
    <glyph glyph-name="Epsilon" unicode="&#x395;" horiz-adv-x="479" 
d="M206 43c89 0 193 65 200 76c7 -3 9 -18 8 -23c-2 -8 -47 -96 -93 -96h-257c-17 0 -60 5 -71 34c16 18 40 82 51 137c33 172 79 432 79 432c-4 17 -15 33 -27 39c1 7 7 16 13 19c46 -3 56 -3 96 -3c94 1 115 4 219 6c0 0 20 -38 35 -80c-7 -10 -6 -14 -15 -18
c-58 40 -89 49 -164 49c-47 0 -51 -3 -91 -8c-6 -30 -28 -151 -47 -252h23c58 0 96 8 150 29c19 -16 33 -63 40 -80c0 -7 -11 -17 -17 -19c-24 13 -55 24 -102 24c-23 0 -70 0 -102 -2c-6 -32 -10 -57 -13 -71c-13 -70 -34 -157 -31 -178c30 -12 64 -15 116 -15z" />
    <glyph glyph-name="Zeta" unicode="&#x396;" horiz-adv-x="514" 
d="M108 550c-5 -3 -23 3 -22 7c21 41 50 85 76 106c14 -2 15 -2 37 -2h158c69 0 95 1 169 11c5 -4 9 -16 7 -24c-3 -8 -445 -598 -445 -598c47 -8 92 -10 166 -10c90 0 158 50 183 79c7 -3 9 -18 8 -23c-2 -8 -46 -96 -92 -96h-299c-31 0 -67 15 -63 36
c104 110 114 133 209 262c75 101 146 197 239 323c-43 2 -125 -2 -203 -6c-54 -3 -100 -42 -128 -65z" />
    <glyph glyph-name="Eta" unicode="&#x397;" horiz-adv-x="480" 
d="M471 468c-21 -110 -37 -190 -48 -250c-13 -70 -28 -196 -25 -217c-8 -10 -18 -17 -27 -17c-6 0 -51 21 -48 36c0 0 35 154 63 292c-71 -3 -201 -4 -278 -17c-5 -29 -10 -54 -14 -77c-13 -70 -29 -196 -26 -217c-8 -10 -17 -17 -26 -17c-6 0 -52 21 -49 36
c0 0 43 187 72 334c4 21 30 188 41 293c3 6 18 17 24 17c23 0 55 -21 52 -37c-1 -7 -28 -95 -40 -159c-9 -45 -17 -85 -24 -121l275 1l1 6c4 21 30 188 41 293c3 6 18 17 24 17c23 0 55 -21 52 -37c-1 -7 -28 -95 -40 -159z" />
    <glyph glyph-name="Theta" unicode="&#x398;" horiz-adv-x="666" 
d="M321 353c62 0 97 7 130 39c3 3 6 0 8 -2c6 -15 19 -74 22 -98c0 -7 -11 -15 -17 -17c-35 28 -39 37 -98 37c-62 0 -97 -7 -130 -39c-3 -3 -6 0 -8 2c-6 15 -19 74 -22 98c0 7 11 15 17 17c35 -28 39 -37 98 -37zM407 630c-135 0 -237 -161 -271 -321
c-26 -121 13 -283 141 -283c132 0 243 154 277 313c27 124 -16 291 -147 291zM410 667c156 0 258 -137 217 -348c-36 -187 -193 -329 -349 -329s-255 130 -213 347c36 187 189 330 345 330z" />
    <glyph glyph-name="Iota" unicode="&#x399;" horiz-adv-x="151" 
d="M142 468c-21 -110 -37 -190 -48 -250c-13 -70 -28 -196 -25 -217c-8 -10 -18 -17 -27 -17c-6 0 -52 21 -49 36c0 0 43 187 72 334c4 21 30 188 41 293c3 6 18 17 24 17c23 0 55 -21 52 -37c-1 -7 -28 -95 -40 -159z" />
    <glyph glyph-name="Kappa" unicode="&#x39a;" horiz-adv-x="441" 
d="M427 50c-25 -30 -60 -54 -101 -54c-93 0 -138 183 -141 319c-55 -79 -97 -157 -107 -217c-6 -46 -10 -86 -8 -97c-8 -10 -17 -17 -26 -17c-6 0 -52 21 -49 36c0 0 43 187 72 334c4 21 30 188 41 293c3 6 18 17 24 17c23 0 55 -21 52 -37c-1 -7 -28 -95 -40 -159
c-17 -87 -31 -156 -41 -210c89 170 245 343 321 402c7 4 65 -16 66 -18c4 -6 5 -13 1 -21c-81 -46 -193 -157 -280 -272c8 -166 95 -291 162 -291c33 0 51 17 56 20c3 0 2 -20 -2 -28z" />
    <glyph glyph-name="Lambda" unicode="&#x39b;" horiz-adv-x="493" 
d="M327 626c39 -63 43 -203 54 -287c18 -143 37 -279 69 -335c-4 -9 -16 -16 -16 -16s-51 7 -67 29c-27 87 -33 170 -44 285c-10 103 -14 204 -44 280c-85 -198 -157 -357 -262 -582c-2 -5 -14 -10 -20 -10c-24 10 -49 18 -58 36c101 93 247 425 317 573
c-10 17 -40 11 -64 -2c-1 4 -1 10 0 16c10 23 49 53 75 53c36 0 50 -24 60 -40z" />
    <glyph glyph-name="Mu" unicode="&#x39c;" horiz-adv-x="603" 
d="M602 467c-12 -110 -21 -190 -27 -250c-7 -70 -13 -194 -8 -214c-8 -11 -16 -19 -25 -20c-6 -1 -57 20 -55 35c17 127 27 180 45 327c8 72 16 137 18 205c-64 -182 -137 -327 -222 -470c-5 -9 -16 -16 -16 -16s-53 2 -69 24c-23 49 -37 113 -61 212
c-16 66 -28 138 -33 200c-21 -80 -41 -147 -65 -249c-23 -101 -36 -206 -34 -257c-3 -5 -12 -15 -18 -16c-12 4 -50 22 -56 46c82 251 119 458 150 618c1 6 12 24 20 24c12 0 25 -24 32 -33c16 -70 38 -192 63 -299c24 -102 44 -164 66 -213c108 174 175 325 243 514
c4 12 18 28 24 28c17 0 47 -25 49 -37c0 -7 -13 -95 -21 -159z" />
    <glyph glyph-name="Nu" unicode="&#x39d;" horiz-adv-x="429" 
d="M363 7c-2 -9 -19 -17 -19 -17s-51 10 -65 25c-28 75 -66 187 -92 287c-20 75 -41 145 -55 206c-17 -72 -30 -138 -51 -258c-18 -110 -22 -205 -17 -255c-2 -5 -12 -15 -18 -17c-24 11 -51 27 -59 51c66 253 92 422 119 611c2 8 8 23 13 23c13 0 36 -27 39 -33
c21 -67 58 -192 89 -291c30 -98 64 -210 92 -282c21 109 40 201 59 329c16 101 32 207 29 258c2 5 11 16 17 17c24 -13 30 -112 30 -149c-58 -252 -72 -322 -111 -505z" />
    <glyph glyph-name="Xi" unicode="&#x39e;" horiz-adv-x="441" 
d="M206 661c109 0 113 0 217 1c20 -29 36 -82 42 -116c-4 -10 -21 -18 -29 -16c-17 39 -52 87 -142 87h-56c-42 0 -100 -15 -113 -81c-3 -4 -20 -12 -26 -7c-4 25 -6 86 -6 103c26 18 72 29 113 29zM209 358c62 0 97 7 130 39c3 3 6 0 8 -2c6 -15 19 -74 22 -98
c0 -7 -11 -15 -17 -17c-35 28 -39 37 -98 37c-62 0 -98 -7 -131 -39c-3 -3 -5 0 -7 2c-6 15 -19 74 -22 98c0 7 11 15 17 17c35 -28 39 -37 98 -37zM204 43c126 0 202 90 209 101c7 -3 8 -18 7 -23c-2 -8 -65 -121 -111 -121h-196c-38 0 -89 3 -123 18c-5 18 -9 92 0 126
c4 4 26 -6 27 -11c23 -81 69 -90 187 -90z" />
    <glyph glyph-name="Omicron" unicode="&#x39f;" horiz-adv-x="680" 
d="M414 627c-135 0 -242 -166 -272 -318c-27 -137 14 -280 142 -280c132 0 248 159 277 310c27 141 -16 288 -147 288zM417 667c156 0 258 -137 217 -348c-36 -187 -193 -329 -349 -329s-256 130 -214 347c36 187 190 330 346 330z" />
    <glyph glyph-name="Pi" unicode="&#x3a0;" horiz-adv-x="519" 
d="M168 610c-9 -46 -58 -321 -69 -380c-13 -70 -34 -208 -31 -229c-8 -10 -18 -17 -27 -17c-6 0 -49 21 -46 36l111 583c-6 21 -46 36 -65 41c1 7 7 16 13 19c46 -3 77 -6 130 -5c88 1 123 9 227 11c0 0 121 -27 138 -45c3 -7 -4 -17 -7 -18c-28 4 -52 7 -77 9
c-8 -27 -27 -95 -37 -147c-21 -110 -36 -190 -47 -250c-13 -70 -29 -196 -26 -217c-8 -10 -17 -17 -26 -17c-6 0 -53 21 -50 36c0 0 47 186 71 334c14 86 26 160 38 264h-26c-47 0 -154 -3 -194 -8z" />
    <glyph glyph-name="Rho" unicode="&#x3a1;" horiz-adv-x="433" 
d="M260 620c-31 0 -57 0 -94 -10c-9 -46 -58 -321 -69 -380c-13 -70 -34 -208 -31 -229c-8 -10 -18 -17 -27 -17c-6 0 -49 21 -46 36l111 583c-6 21 -46 36 -65 41c1 7 7 16 13 19c46 -3 77 -5 130 -5c36 0 74 4 121 -2c116 -14 156 -98 138 -188
c-22 -112 -121 -188 -226 -188c-9 0 -34 12 -41 22c-4 6 -1 19 6 24c13 -7 18 -10 42 -10c66 0 125 85 138 150c14 72 -23 154 -100 154z" />
    <glyph glyph-name="uni03A2" unicode="&#x3a2;" horiz-adv-x="931" 
 />
    <glyph glyph-name="Sigma" unicode="&#x3a3;" horiz-adv-x="509" 
d="M-23 29c27 19 62 40 71 49c101 83 208 168 266 216c-36 109 -186 316 -212 348c1 7 7 16 13 19c46 -3 61 -3 101 -3c94 1 147 4 251 6c0 0 21 -38 36 -80c-7 -10 -7 -14 -16 -18c-58 40 -84 57 -160 57c-47 0 -75 -3 -115 -8c48 -79 125 -170 164 -261c1 -3 14 -27 8 -47
c-84 -71 -278 -233 -300 -248c37 -15 87 -15 134 -15c58 0 107 7 150 25c34 14 74 38 81 49c7 -3 9 -18 8 -23c-2 -8 -64 -97 -102 -97h-307c-17 0 -60 2 -71 31z" />
    <glyph glyph-name="Tau" unicode="&#x3a4;" horiz-adv-x="502" 
d="M374 621h-42c-11 -57 -61 -334 -71 -391c-13 -70 -34 -208 -31 -229c-8 -10 -18 -17 -27 -17c-6 0 -51 21 -48 36l121 601h-70c-42 0 -100 -19 -113 -85c-3 -4 -21 -12 -27 -7c-4 25 -6 86 -6 103c26 18 73 29 114 29h167c58 0 78 0 160 1c20 -29 36 -82 42 -116
c-4 -10 -21 -18 -29 -16c-17 39 -50 91 -140 91z" />
    <glyph glyph-name="Upsilon" unicode="&#x3a5;" horiz-adv-x="507" 
d="M585 624c-143 -82 -308 -368 -322 -440c-14 -70 -22 -162 -19 -183c-8 -10 -18 -17 -27 -17c-6 0 -54 21 -51 36c13 66 31 123 42 160c2 7 4 13 6 20c-8 231 -36 391 -92 391c-25 0 -49 -17 -57 -26c-3 0 -6 7 -8 12c-1 4 -1 8 0 11c21 44 65 80 97 80
c62 0 89 -227 91 -391c70 155 190 316 280 386c7 4 57 -16 58 -18c4 -6 6 -13 2 -21z" />
    <glyph glyph-name="Phi" unicode="&#x3a6;" horiz-adv-x="578" 
d="M51 319c19 115 120 213 257 231c5 34 9 68 12 97c3 6 15 17 21 17c23 0 57 -21 54 -37c-1 -4 -11 -36 -21 -75c127 -11 196 -101 178 -213c-19 -116 -124 -215 -262 -232c-6 -50 -11 -94 -9 -106c-8 -10 -14 -17 -23 -17c-6 0 -54 21 -51 36c0 0 9 35 20 86
c-128 11 -195 100 -176 213zM356 470c-21 -110 -38 -192 -49 -252c-6 -32 -8 -51 -12 -79c87 17 165 98 183 190c18 93 -30 174 -112 190c-4 -17 -7 -34 -10 -49zM305 518c-87 -18 -166 -98 -184 -189c-18 -93 31 -174 113 -190c14 64 32 145 45 215c16 87 15 87 26 164z
" />
    <glyph glyph-name="Chi" unicode="&#x3a7;" horiz-adv-x="501" 
d="M437 4c-4 -9 -17 -16 -17 -16s-58 8 -74 30c-34 47 -79 153 -110 261c-75 -97 -202 -242 -242 -279c-5 -4 -12 -6 -18 -6c-7 0 -39 10 -35 30c55 33 180 166 281 299c-21 94 -37 177 -70 267c-6 16 -21 24 -35 24c-16 0 -31 -7 -44 -17c-1 4 0 10 1 16c10 23 54 53 80 53
c25 0 44 -13 57 -40c21 -44 44 -141 63 -227c67 92 109 144 189 233c23 17 77 37 77 37c9 0 21 -8 20 -13c-41 -31 -159 -145 -275 -305c30 -131 93 -271 152 -347z" />
    <glyph glyph-name="Psi" unicode="&#x3a8;" horiz-adv-x="653" 
d="M157 491c-9 65 -13 123 -54 123c-16 0 -31 -7 -44 -17c-1 4 -1 10 0 16c10 23 52 53 78 53c50 0 65 -50 79 -186c8 -82 38 -135 110 -143c1 4 2 13 3 17c4 21 30 188 41 293c3 6 13 17 19 17c23 0 60 -21 57 -37c-1 -7 -28 -95 -40 -159c-9 -45 -18 -93 -25 -129
c66 18 116 90 163 174c48 86 89 152 145 152c23 0 47 -21 50 -32c-1 -3 -4 -14 -9 -15c-6 2 -21 3 -29 3c-34 0 -65 -74 -95 -125c-67 -113 -129 -185 -233 -199c-6 -30 -11 -56 -15 -79c-13 -70 -28 -196 -25 -217c-8 -10 -18 -17 -27 -17c-6 0 -51 21 -48 36
c0 0 33 144 60 278c-93 5 -143 65 -161 193z" />
    <glyph glyph-name="Omega" unicode="&#x3a9;" horiz-adv-x="689" 
d="M414 667c161 0 248 -146 212 -332c-24 -122 -111 -222 -216 -275c10 -5 43 -6 67 -6c50 0 103 30 123 43c7 0 8 -11 7 -15c-8 -14 -58 -82 -123 -82h-120c-5 10 -14 36 -11 51c2 8 10 19 15 24c120 74 167 185 184 274c33 171 -29 278 -137 278
c-139 0 -235 -170 -257 -284c-30 -155 20 -238 77 -273c5 -10 21 -40 19 -51c-2 -9 -13 -15 -26 -19c-78 0 -48 2 -163 0c-10 6 -49 54 -53 64c4 8 14 11 19 11c24 -8 41 -20 80 -23c31 -2 70 5 70 5c-81 41 -122 166 -97 296c34 175 180 314 330 314z" />
    <glyph glyph-name="Iotadieresis" unicode="&#x3aa;" horiz-adv-x="151" 
d="M216 778c5 28 30 50 56 50s42 -22 37 -50s-30 -50 -56 -50s-42 22 -37 50zM48 778c5 28 30 50 56 50s42 -22 37 -50s-31 -50 -57 -50s-41 22 -36 50zM142 468c-21 -110 -37 -190 -48 -250c-13 -70 -28 -196 -25 -217c-8 -10 -18 -17 -27 -17c-6 0 -52 21 -49 36
c0 0 43 187 72 334c4 21 30 188 41 293c3 6 18 17 24 17c23 0 55 -21 52 -37c-1 -7 -28 -95 -40 -159z" />
    </font>
</defs>
</svg>
