<?xml version="1.0" standalone="no"?>
<!DOCTYPE svg PUBLIC "-//W3C//DTD SVG 1.1//EN" "http://www.w3.org/Graphics/SVG/1.1/DTD/svg11.dtd" >
<svg xmlns="http://www.w3.org/2000/svg" xmlns:xlink="http://www.w3.org/1999/xlink" version="1.1">
<metadata>
Created by FontForge 20141127 at Wed Dec 24 10:27:39 2014
 By Dylan Frankland
Copyright (c) 2012, Impallari Type (www.impallari.com), with Reserved Font Name Encode Sans.
</metadata>
<defs>
<font id="EncodeSansNarrow-Black" horiz-adv-x="635" >
  <font-face 
    font-family="Encode Sans Narrow"
    font-weight="900"
    font-stretch="normal"
    units-per-em="1000"
    panose-1="2 0 0 0 0 0 0 0 0 0"
    ascent="800"
    descent="-200"
    x-height="540"
    cap-height="740"
    bbox="-145 -220 1831 1030"
    underline-thickness="55"
    underline-position="-57"
    unicode-range="U+000D-FB04"
  />
<missing-glyph horiz-adv-x="795" 
d="M66 1030h663v-1250h-663v1250zM562 -65v941h-329v-941h329z" />
    <glyph glyph-name="f_b" unicode="fb" horiz-adv-x="1118" 
d="M115 366h-102v174h103v23q0 69 18.5 117t60 78t108.5 44t163 15l11 -152q-84 -2 -118 -22.5t-34 -69.5v-33h133v-174h-133v-366h-210v366zM789 -11q-26 0 -52.5 2t-58 6.5t-70.5 12.5t-89 20v778h210v-323q26 33 64 48.5t87 15.5q212 0 212 -262q0 -143 -77 -219.5
t-226 -78.5zM789 128q29 0 47 5t27.5 20t13 42.5t3.5 72.5q0 40 -3 65t-10.5 39.5t-21.5 19.5t-36 5q-23 0 -38 -6.5t-24.5 -22t-13.5 -42t-4 -66.5v-124q21 -8 60 -8z" />
    <glyph glyph-name="f_f" unicode="ff" horiz-adv-x="918" 
d="M565 366h-240v-366h-210v366h-102v174h103v23q0 69 18.5 117t60 78t108.5 44t163 15l11 -152q-84 -2 -118 -22.5t-34 -69.5v-33h241v23q0 69 18.5 117t60 78t108.5 44t163 15l11 -152q-84 -2 -118 -22.5t-34 -69.5v-33h133v-174h-133v-366h-210v366z" />
    <glyph glyph-name="f_f_b" unicode="ffb" horiz-adv-x="1562" 
d="M115 366h-102v174h103v23q0 69 18.5 117t60 78t108.5 44t163 15l11 -152q-84 -2 -118 -22.5t-34 -69.5v-33h235v23q0 69 18.5 117t60 78t108.5 44t163 15l11 -152q-84 -2 -118 -22.5t-34 -69.5v-33h133v-174h-133v-366h-210v366h-234v-366h-210v366zM1233 -11
q-26 0 -52.5 2t-58 6.5t-70.5 12.5t-89 20v778h210v-323q26 33 64 48.5t87 15.5q212 0 212 -262q0 -143 -77 -219.5t-226 -78.5zM1233 128q29 0 47 5t27.5 20t13 42.5t3.5 72.5q0 40 -3 65t-10.5 39.5t-21.5 19.5t-36 5q-23 0 -38 -6.5t-24.5 -22t-13.5 -42t-4 -66.5v-124
q21 -8 60 -8z" />
    <glyph glyph-name="f_f_h" unicode="ffh" horiz-adv-x="1564" 
d="M115 366h-102v174h103v23q0 69 18.5 117t60 78t108.5 44t163 15l11 -152q-84 -2 -118 -22.5t-34 -69.5v-33h235v23q0 69 18.5 117t60 78t108.5 44t163 15l11 -152q-84 -2 -118 -22.5t-34 -69.5v-33h133v-174h-133v-366h-210v366h-234v-366h-210v366zM965 808h210v-319
q63 32 108 46.5t87 14.5q67 0 107.5 -40.5t40.5 -108.5v-401h-210v328q0 54 -43 54q-15 0 -39.5 -5.5t-50.5 -15.5v-361h-210v808z" />
    <glyph glyph-name="f_f_i" unicode="ffi" horiz-adv-x="1224" 
d="M115 366h-102v174h103v23q0 69 18.5 117t60 78t108.5 44t163 15l11 -152q-84 -2 -118 -22.5t-34 -69.5v-33h235v23q0 69 18.5 117t60 78t108.5 44t163 15l11 -152q-84 -2 -118 -22.5t-34 -69.5v-33h133v-174h-133v-366h-210v366h-234v-366h-210v366zM965 540h210v-540
h-210v540zM1070 596q-60 0 -86 25.5t-26 83.5q0 57 26 83t86 26q61 0 86.5 -26t25.5 -83q0 -56 -25.5 -82.5t-86.5 -26.5z" />
    <glyph glyph-name="f_f_j" unicode="ffj" horiz-adv-x="1227" 
d="M116 366h-102v174h103v23q0 69 18.5 117t60 78t108.5 44t163 15l11 -152q-84 -2 -118 -22.5t-34 -69.5v-33h234v23q0 69 18.5 117t60 78t108.5 44t163 15l11 -152q-84 -2 -118 -22.5t-34 -69.5v-33h133v-174h-133v-366h-210v366h-233v-366h-210v366zM936 -192
q9 37 15.5 74t11 78.5t6.5 88t2 103.5v34t-0.5 59.5t-0.5 75.5t-0.5 81t-1 76.5t-0.5 61.5h210v-471q-5 -74 -30 -150.5t-62 -138.5zM1073 596q-60 0 -85.5 25.5t-25.5 83.5q0 57 25.5 83t85.5 26q61 0 87 -26t26 -83q0 -56 -25.5 -82.5t-87.5 -26.5z" />
    <glyph glyph-name="f_f_k" unicode="ffk" horiz-adv-x="1538" 
d="M115 366h-102v174h103v23q0 69 18.5 117t60 78t108.5 44t163 15l11 -152q-84 -2 -118 -22.5t-34 -69.5v-33h235v23q0 69 18.5 117t60 78t108.5 44t163 15l11 -152q-84 -2 -118 -22.5t-34 -69.5v-33h133v-174h-133v-366h-210v366h-234v-366h-210v366zM965 808h210v-461h33
l100 193h228l-158 -251l-28 -8v-4l28 -8l176 -269h-229l-118 211h-32v-211h-210v808z" />
    <glyph glyph-name="f_f_l" unicode="ffl" horiz-adv-x="1223" 
d="M115 366h-102v174h103v23q0 69 18.5 117t60 78t108.5 44t163 15l11 -152q-84 -2 -118 -22.5t-34 -69.5v-33h235v23q0 69 18.5 117t60 78t108.5 44t163 15l11 -152q-84 -2 -118 -22.5t-34 -69.5v-33h133v-174h-133v-366h-210v366h-234v-366h-210v366zM965 808h210v-808
h-210v808z" />
    <glyph glyph-name="f_f_t" unicode="fft" horiz-adv-x="1345" 
d="M1195 -12q-100 0 -151 45t-51 131v202h-224v-366h-210v366h-234v-366h-210v366h-102v174h103v23q0 69 18.5 117t60 78t108.5 44t163 15l11 -152q-84 -2 -118 -22.5t-34 -69.5v-33h235v23q0 69 18.5 117t60 78t108.5 44t163 15l11 -152q-84 -2 -118 -22.5t-34 -69.5v-33
h238l30 168l165 17v-185h114v-174h-113v-151q0 -41 13.5 -56t46.5 -15q23 0 54 11v-152q-22 -7 -55 -11t-67 -4z" />
    <glyph glyph-name="f_h" unicode="fh" horiz-adv-x="1120" 
d="M521 808h210v-319q63 32 108 46.5t87 14.5q67 0 107.5 -40.5t40.5 -108.5v-401h-210v328q0 54 -43 54q-15 0 -39.5 -5.5t-50.5 -15.5v-361h-210v808zM115 366h-102v174h103v23q0 69 18.5 117t60 78t108.5 44t163 15l11 -152q-84 -2 -118 -22.5t-34 -69.5v-33h133v-174
h-133v-366h-210v366z" />
    <glyph glyph-name="f_i" unicode="fi" horiz-adv-x="780" 
d="M626 596q-60 0 -86 25.5t-26 83.5q0 57 26 83t86 26q61 0 86.5 -26t25.5 -83q0 -56 -25.5 -82.5t-86.5 -26.5zM521 540h210v-540h-210v540zM115 366h-102v174h103v23q0 69 18.5 117t60 78t108.5 44t163 15l11 -152q-84 -2 -118 -22.5t-34 -69.5v-33h133v-174h-133v-366
h-210v366z" />
    <glyph glyph-name="f_j" unicode="fj" horiz-adv-x="783" 
d="M116 366h-102v174h103v23q0 69 18.5 117t60 78t108.5 44t163 15l11 -152q-84 -2 -118 -22.5t-34 -69.5v-33h133v-174h-133v-366h-210v366zM629 596q-60 0 -85.5 25.5t-25.5 83.5q0 57 25.5 83t85.5 26q61 0 87 -26t26 -83q0 -56 -25.5 -82.5t-87.5 -26.5zM492 -192
q9 37 15.5 74t11 78.5t6.5 88t2 103.5v34t-0.5 59.5t-0.5 75.5t-0.5 81t-1 76.5t-0.5 61.5h210v-471q-5 -74 -30 -150.5t-62 -138.5z" />
    <glyph glyph-name="f_k" unicode="fk" horiz-adv-x="1094" 
d="M521 808h210v-461h33l100 193h228l-158 -251l-28 -8v-4l28 -8l176 -269h-229l-118 211h-32v-211h-210v808zM115 366h-102v174h103v23q0 69 18.5 117t60 78t108.5 44t163 15l11 -152q-84 -2 -118 -22.5t-34 -69.5v-33h133v-174h-133v-366h-210v366z" />
    <glyph glyph-name="f_l" unicode="fl" horiz-adv-x="779" 
d="M115 366h-102v174h103v23q0 69 18.5 117t60 78t108.5 44t163 15l11 -152q-84 -2 -118 -22.5t-34 -69.5v-33h133v-174h-133v-366h-210v366zM521 808h210v-808h-210v808z" />
    <glyph glyph-name="f_t" unicode="ft" horiz-adv-x="901" 
d="M751 -12q-100 0 -151 45t-51 131v202h-224v-366h-210v366h-102v174h103v23q0 69 18.5 117t60 78t108.5 44t163 15l11 -152q-84 -2 -118 -22.5t-34 -69.5v-33h238l30 168l165 17v-185h114v-174h-113v-151q0 -41 13.5 -56t46.5 -15q23 0 54 11v-152q-22 -7 -55 -11t-67 -4z
" />
    <glyph glyph-name=".notdef" horiz-adv-x="795" 
d="M66 1030h663v-1250h-663v1250zM562 -65v941h-329v-941h329z" />
    <glyph glyph-name="NULL" horiz-adv-x="0" 
 />
    <glyph glyph-name="NULL" horiz-adv-x="0" 
 />
    <glyph glyph-name="nonmarkingreturn" unicode="&#xd;" horiz-adv-x="298" 
 />
    <glyph glyph-name="space" unicode=" " horiz-adv-x="188" 
 />
    <glyph glyph-name="AE.sc" horiz-adv-x="916" 
d="M-8 8l248 569h628v-152h-259l6 -68h246v-137h-231l7 -67h245v-153h-446l-4 97h-196l-42 -97h-202v8zM296 233h128l-8 204h-29z" />
    <glyph glyph-name="AEacute" unicode="&#x1fc;" horiz-adv-x="984" 
d="M456 809l63 189h215l-128 -199zM-9 9l268 731h677v-169h-283l8 -116h266v-169h-253l9 -117h268v-169h-479l-6 149h-208l-53 -149h-214v9zM321 323h138l-11 265h-32z" />
    <glyph glyph-name="acute.cap" horiz-adv-x="307" 
d="M25 809l63 189h215l-128 -199z" />
    <glyph glyph-name="AEacute.sc" horiz-adv-x="916" 
d="M-8 8l248 569h628v-152h-259l6 -68h246v-137h-231l7 -67h245v-153h-446l-4 97h-196l-42 -97h-202v8zM424 233l-8 204h-29l-91 -204h128zM417 634l56 160h203l-117 -169z" />
    <glyph glyph-name="Aacute" unicode="&#xc1;" horiz-adv-x="735" 
d="M-5 10l212 730h321l211 -730v-10h-205l-43 154h-248l-42 -154h-206v10zM446 319l-33 132l-38 140h-16l-37 -141l-34 -131h158zM287 809l63 189h215l-128 -199z" />
    <glyph glyph-name="Aacute.sc" horiz-adv-x="681" 
d="M-3 9l192 568h303l192 -568v-9h-195l-35 97h-228l-34 -97h-195v9zM418 235l-36 107l-33 97h-17l-34 -98l-35 -106h155zM266 634l56 160h202l-117 -169z" />
    <glyph glyph-name="Abreve" unicode="&#x102;" horiz-adv-x="735" 
d="M-5 10l212 730h321l211 -730v-10h-205l-43 154h-248l-42 -154h-206v10zM446 319l-33 132l-38 140h-16l-37 -141l-34 -131h158zM369 801q-61 0 -103.5 14t-69 39.5t-38.5 60t-12 76.5h138q0 -50 17 -72.5t68 -22.5q50 0 67 22.5t17 72.5h138q0 -42 -12 -77t-39 -60
t-69 -39t-102 -14z" />
    <glyph glyph-name="breve.cap" horiz-adv-x="491" 
d="M246 801q-61 0 -103.5 14t-69 39.5t-38.5 60t-12 76.5h138q0 -50 17 -72.5t68 -22.5q50 0 67 22.5t17 72.5h138q0 -42 -12 -77t-39 -60t-69 -39t-102 -14z" />
    <glyph glyph-name="Abreve.sc" horiz-adv-x="681" 
d="M341 623q-57 0 -97 12t-64.5 33.5t-35.5 50.5t-11 64h130q0 -39 15 -56t63 -17q47 0 62 17t15 56h130q0 -35 -11 -64.5t-36 -50.5t-64 -33t-96 -12zM-3 9l192 568h303l192 -568v-9h-195l-35 97h-228l-34 -97h-195v9zM418 235l-36 107l-33 97h-17l-34 -98l-35 -106h155z
" />
    <glyph glyph-name="Acircumflex" unicode="&#xc2;" horiz-adv-x="735" 
d="M-5 10l212 730h321l211 -730v-10h-205l-43 154h-248l-42 -154h-206v10zM446 319l-33 132l-38 140h-16l-37 -141l-34 -131h158zM167 928l202 76l204 -76v-136l-203 76l-203 -76v136z" />
    <glyph glyph-name="circumflex.cap" horiz-adv-x="469" 
d="M30 928l202 76l204 -76v-136l-203 76l-203 -76v136z" />
    <glyph glyph-name="Acircumflex.sc" horiz-adv-x="681" 
d="M-3 9l192 568h303l192 -568v-9h-195l-35 97h-228l-34 -97h-195v9zM418 235l-36 107l-33 97h-17l-34 -98l-35 -106h155zM153 738l188 62l191 -62v-125l-190 61l-189 -61v125z" />
    <glyph glyph-name="Adblgrave" unicode="&#x200;" horiz-adv-x="735" 
d="M-5 10l212 730h321l211 -730v-10h-205l-43 154h-248l-42 -154h-206v10zM446 319l-33 132l-38 140h-16l-37 -141l-34 -131h158zM188 799l-128 199h194l62 -189zM413 799l-128 199h194l63 -189z" />
    <glyph glyph-name="uni030F.cap" horiz-adv-x="519" 
d="M132 799l-128 199h194l62 -189zM357 799l-128 199h194l63 -189z" />
    <glyph glyph-name="Adblgrave.sc" horiz-adv-x="681" 
d="M-3 9l192 568h303l192 -568v-9h-195l-35 97h-228l-34 -97h-195v9zM418 235l-36 107l-33 97h-17l-34 -98l-35 -106h155zM52 795h185l56 -162l-123 -7zM261 795h186l55 -162l-123 -7z" />
    <glyph glyph-name="Adieresis" unicode="&#xc4;" horiz-adv-x="735" 
d="M-5 10l212 730h321l211 -730v-10h-205l-43 154h-248l-42 -154h-206v10zM446 319l-33 132l-38 140h-16l-37 -141l-34 -131h158zM222 796q-61 0 -86.5 26t-25.5 83t25.5 83t86.5 26q60 0 86 -26t26 -83t-26 -83t-86 -26zM514 796q-60 0 -85.5 26t-25.5 83t25.5 83t85.5 26
q61 0 86.5 -26t25.5 -83t-25.5 -83t-86.5 -26z" />
    <glyph glyph-name="dieresis.cap" horiz-adv-x="594" 
d="M150 796q-61 0 -86.5 26t-25.5 83t25.5 83t86.5 26q60 0 86 -26t26 -83t-26 -83t-86 -26zM442 796q-60 0 -85.5 26t-25.5 83t25.5 83t85.5 26q61 0 86.5 -26t25.5 -83t-25.5 -83t-86.5 -26z" />
    <glyph glyph-name="Adieresis.sc" horiz-adv-x="681" 
d="M206 616q-57 0 -81 23.5t-24 76.5t24 76.5t81 23.5t81 -24.5t24 -75.5q0 -52 -24 -76t-81 -24zM476 616q-57 0 -81 23.5t-24 76.5t24 76.5t81 23.5t81 -24.5t24 -75.5q0 -52 -24 -76t-81 -24zM-3 9l192 568h303l192 -568v-9h-195l-35 97h-228l-34 -97h-195v9zM418 235
l-36 107l-33 97h-17l-34 -98l-35 -106h155z" />
    <glyph glyph-name="Agrave" unicode="&#xc0;" horiz-adv-x="735" 
d="M-5 10l212 730h321l211 -730v-10h-205l-43 154h-248l-42 -154h-206v10zM446 319l-33 132l-38 140h-16l-37 -141l-34 -131h158zM281 799l-128 199h215l62 -189z" />
    <glyph glyph-name="grave.cap" horiz-adv-x="314" 
d="M132 799l-128 199h215l62 -189z" />
    <glyph glyph-name="Agrave.sc" horiz-adv-x="681" 
d="M-3 9l192 568h303l192 -568v-9h-195l-35 97h-228l-34 -97h-195v9zM418 235l-36 107l-33 97h-17l-34 -98l-35 -106h155zM257 625l-117 169h203l55 -162z" />
    <glyph glyph-name="Ainvertedbreve" unicode="&#x202;" horiz-adv-x="735" 
d="M-5 10l212 730h321l211 -730v-10h-205l-43 154h-248l-42 -154h-206v10zM446 319l-33 132l-38 140h-16l-37 -141l-34 -131h158zM453 811q0 49 -17 71.5t-67 22.5q-51 0 -68 -22t-17 -72h-138q0 42 12 76.5t38.5 60t69 39.5t103.5 14q60 0 102 -14t69 -39t39 -60t12 -77
h-138z" />
    <glyph glyph-name="uni0311.cap" horiz-adv-x="487" 
d="M328 811q0 49 -17 71.5t-67 22.5q-51 0 -68 -22t-17 -72h-138q0 42 12 76.5t38.5 60t69 39.5t103.5 14q60 0 102 -14t69 -39t39 -60t12 -77h-138z" />
    <glyph glyph-name="Ainvertedbreve.sc" horiz-adv-x="681" 
d="M135 632q0 34 11 63.5t35.5 51t64 33.5t96.5 12t96.5 -12t64 -33t35.5 -50.5t11 -64.5h-130q0 38 -15 55t-62 17t-62 -17t-15 -55h-130zM-3 9l192 568h303l192 -568v-9h-195l-35 97h-228l-34 -97h-195v9zM418 235l-36 107l-33 97h-17l-34 -98l-35 -106h155z" />
    <glyph glyph-name="Amacron" unicode="&#x100;" horiz-adv-x="735" 
d="M-5 10l212 730h321l211 -730v-10h-205l-43 154h-248l-42 -154h-206v10zM446 319l-33 132l-38 140h-16l-37 -141l-34 -131h158zM166 976h405v-136h-405v136z" />
    <glyph glyph-name="macron.cap" horiz-adv-x="487" 
d="M41 976h405v-136h-405v136z" />
    <glyph glyph-name="Amacron.sc" horiz-adv-x="681" 
d="M-3 9l192 568h303l192 -568v-9h-195l-35 97h-228l-34 -97h-195v9zM418 235l-36 107l-33 97h-17l-34 -98l-35 -106h155zM153 781h377v-126h-377v126z" />
    <glyph glyph-name="Aogonek" unicode="&#x104;" horiz-adv-x="734" 
d="M643 -220q-75 0 -115 25.5t-40 74.5q0 66 78 120h-33l-43 154h-248l-42 -154h-206v10l212 730h321l211 -730v-15q-34 -13 -56.5 -25t-36 -22.5t-19 -20t-5.5 -17.5q0 -19 30 -19q16 0 41.5 4.5t46.5 10.5v-114q-24 -6 -47 -9t-49 -3zM445 319l-33 132l-38 140h-16
l-37 -141l-34 -131h158z" />
    <glyph glyph-name="ogonek" unicode="&#x2db;" horiz-adv-x="326" 
d="M187 -220q-75 0 -115 25.5t-40 74.5q0 66 78 120h172v-5q-34 -13 -56.5 -25t-36 -22.5t-19 -20t-5.5 -17.5q0 -19 30 -19q16 0 41.5 4.5t46.5 10.5v-114q-24 -6 -47 -9t-49 -3z" />
    <glyph glyph-name="Aogonek.sc" horiz-adv-x="681" 
d="M596 -169q-70 0 -107 22t-37 60q0 23 16.5 47.5t43.5 39.5h-23l-35 97h-228l-35 -97h-195v9l193 568h303l192 -568v-10q-36 -12 -57.5 -21.5t-33 -16t-14.5 -11t-3 -6.5q0 -10 25 -10q16 0 42 3.5t42 7.5v-105q-47 -9 -89 -9zM416 235l-34 108l-34 96h-17l-33 -97
l-37 -107h155z" />
    <glyph glyph-name="Aring" unicode="&#xc5;" horiz-adv-x="735" 
d="M-5 10l212 730h321l211 -730v-10h-205l-43 154h-248l-42 -154h-206v10zM446 319l-33 132l-38 140h-16l-37 -141l-34 -131h158zM367 774q-29 0 -54 8.5t-43 24t-28.5 36.5t-10.5 47t10.5 47.5t28.5 37.5t43 24.5t54 8.5t54 -8.5t43 -24.5t28 -37.5t10 -47.5t-10 -47
t-28 -36.5t-43 -24t-54 -8.5zM367 840q34 0 46 11.5t12 38.5q0 28 -12 40t-46 12t-46.5 -12t-12.5 -40q0 -27 12.5 -38.5t46.5 -11.5z" />
    <glyph glyph-name="ring.cap" horiz-adv-x="331" 
d="M165 774q-29 0 -54 8.5t-43 24t-28.5 36.5t-10.5 47t10.5 47.5t28.5 37.5t43 24.5t54 8.5t54 -8.5t43 -24.5t28 -37.5t10 -47.5t-10 -47t-28 -36.5t-43 -24t-54 -8.5zM165 840q34 0 46 11.5t12 38.5q0 28 -12 40t-46 12t-46.5 -12t-12.5 -40q0 -27 12.5 -38.5t46.5 -11.5
z" />
    <glyph glyph-name="Aring.sc" horiz-adv-x="681" 
d="M-3 9l192 568h303l192 -568v-9h-195l-35 97h-228l-34 -97h-195v9zM417 235l-35 107l-33 97h-17l-34 -98l-36 -106h155zM340 607q-27 0 -49.5 7t-39.5 19t-26.5 29.5t-9.5 38.5t9.5 38.5t26.5 30t39.5 19.5t49.5 7q54 0 89.5 -26.5t35.5 -68.5t-35.5 -68t-89.5 -26z
M340 665q31 0 42 8t11 28t-11 28.5t-42 8.5t-41.5 -8.5t-10.5 -28.5t10.5 -28t41.5 -8z" />
    <glyph glyph-name="Aringacute" unicode="&#x1fa;" horiz-adv-x="734" 
d="M-5 10l200 670q-24 34 -24 80q0 59 37.5 98.5t102.5 51.5l40 120h215l-89 -138q42 -20 65.5 -53.5t23.5 -78.5q0 -23 -7 -44t-20 -38l200 -668v-10h-206l-41 149h-251l-40 -149h-206v10zM367 699q36 0 58 17t22 44q0 28 -22 44.5t-58 16.5q-35 0 -56 -16.5t-21 -44.5
t21 -44.5t56 -16.5zM444 323l-32 128l-36 140h-18l-37 -141l-32 -127h155z" />
    <glyph glyph-name="Aringacute.sc" horiz-adv-x="680" 
d="M-4 9l182 528q-20 29 -20 60q0 49 34.5 82t94.5 44l35 98h203l-81 -115q38 -17 60 -45t22 -64q0 -35 -24 -63l182 -525v-9h-195l-35 97h-228l-35 -97h-195v9zM340 552q33 0 53.5 12.5t20.5 32.5q0 21 -20.5 33.5t-53.5 12.5q-32 0 -51 -12.5t-19 -33.5q0 -20 19.5 -32.5
t50.5 -12.5zM418 235l-36 107l-35 109h-15l-34 -110l-35 -106h155z" />
    <glyph glyph-name="Atilde" unicode="&#xc3;" horiz-adv-x="735" 
d="M-5 10l212 730h321l211 -730v-10h-205l-43 154h-248l-42 -154h-206v10zM446 319l-33 132l-38 140h-16l-37 -141l-34 -131h158zM139 847q35 72 80 106.5t87 34.5q24 0 48.5 -6t48.5 -12.5t48 -12.5t49 -6q22 0 42.5 7.5t49.5 29.5l23 -29q-36 -72 -80.5 -106.5
t-86.5 -34.5q-24 0 -48.5 5.5t-48.5 12.5t-48.5 12.5t-48.5 5.5q-23 0 -44 -7t-48 -29z" />
    <glyph glyph-name="tilde.cap" horiz-adv-x="503" 
d="M13 847q35 72 80 106.5t87 34.5q24 0 48.5 -6t48.5 -12.5t48 -12.5t49 -6q22 0 42.5 7.5t49.5 29.5l23 -29q-36 -72 -80.5 -106.5t-86.5 -34.5q-24 0 -48.5 5.5t-48.5 12.5t-48.5 12.5t-48.5 5.5q-23 0 -44 -7t-48 -29z" />
    <glyph glyph-name="Atilde.sc" horiz-adv-x="681" 
d="M-3 9l192 568h303l192 -568v-9h-195l-35 97h-228l-34 -97h-195v9zM417 235l-35 107l-33 97h-17l-34 -98l-36 -106h155zM127 660q32 66 74 97t81 31q22 0 45 -4t45.5 -9.5t45 -9.5t45.5 -4q20 0 39.5 5t45.5 23l20 -25q-33 -66 -74.5 -97t-79.5 -31q-23 0 -45.5 4.5
t-45.5 9.5t-45.5 9.5t-45.5 4.5q-21 0 -40 -5t-45 -23z" />
    <glyph glyph-name="B" unicode="B" horiz-adv-x="700" 
d="M339 -10q-71 0 -139 3.5t-142 11.5v730q74 8 139 11.5t126 3.5q172 0 251 -51t79 -162q0 -121 -120 -154v-4q69 -14 105.5 -58t36.5 -116q0 -109 -82.5 -162t-253.5 -53zM348 144q111 0 111 79q0 44 -25 61.5t-87 17.5h-88v-155q6 -1 11.5 -1.5t15 -1t24.5 -0.5h38z
M336 444q57 0 79.5 17t22.5 61q0 40 -23 57.5t-76 17.5q-21 0 -41 -1.5t-39 -3.5v-148h77z" />
    <glyph glyph-name="B.sc" horiz-adv-x="652" 
d="M322 -8q-67 0 -131.5 3t-135.5 9v569q136 12 249 12q158 0 230.5 -40.5t72.5 -128.5t-109 -116v-3q63 -11 96 -45.5t33 -88.5q0 -88 -74.5 -129.5t-230.5 -41.5zM330 131q100 0 100 51q0 29 -23 38.5t-79 9.5h-82v-98q5 -1 10 -1h14h23h37zM316 352q52 0 72 10t20 39
q0 26 -20 36t-68 10q-20 0 -38.5 -0.5t-35.5 -2.5v-92h70z" />
    <glyph glyph-name="C" unicode="C" horiz-adv-x="581" 
d="M394 -12q-184 0 -274 93t-90 289q0 195 88 288.5t263 93.5q36 0 76.5 -3.5t94.5 -11.5v-170q-28 3 -48.5 5.5t-37 3.5t-30 1.5t-26.5 0.5q-48 0 -78.5 -8t-48.5 -30.5t-25 -63.5t-7 -107q0 -65 7 -105t25 -62.5t48.5 -30.5t77.5 -8q34 0 75 3.5t68 9.5v-168
q-32 -9 -74 -14.5t-84 -5.5z" />
    <glyph glyph-name="C.sc" horiz-adv-x="542" 
d="M367 -11q-172 0 -255 73t-83 227q0 299 324 299q37 0 74 -3t83 -9v-159q-21 2 -38.5 3.5t-32.5 2.5t-29 1.5t-30 0.5q-45 0 -73 -4.5t-43 -18.5t-20.5 -41t-5.5 -73q0 -45 5.5 -71.5t21 -40.5t43 -18t71.5 -4q16 0 34 0.5t35.5 1.5t33.5 3t28 4v-158q-28 -7 -65.5 -11.5
t-77.5 -4.5z" />
    <glyph glyph-name="A.sc" horiz-adv-x="681" 
d="M-3 9l192 568h303l192 -568v-9h-195l-35 97h-228l-34 -97h-195v9zM419 230l-37 112l-33 97h-17l-34 -98l-36 -111h157z" />
    <glyph glyph-name="Cacute" unicode="&#x106;" horiz-adv-x="581" 
d="M394 -12q-184 0 -274 93t-90 289q0 195 88 288.5t263 93.5q36 0 76.5 -3.5t94.5 -11.5v-170q-28 3 -48.5 5.5t-37 3.5t-30 1.5t-26.5 0.5q-48 0 -78.5 -8t-48.5 -30.5t-25 -63.5t-7 -107q0 -65 7 -105t25 -62.5t48.5 -30.5t77.5 -8q34 0 75 3.5t68 9.5v-168
q-32 -9 -74 -14.5t-84 -5.5zM242 809l63 189h215l-128 -199z" />
    <glyph glyph-name="Cacute.sc" horiz-adv-x="542" 
d="M366 -11q-171 0 -254 72.5t-83 227.5q0 152 81 225.5t243 73.5q32 0 68.5 -3t87.5 -9v-159q-53 5 -79.5 6.5t-49.5 1.5q-44 0 -71.5 -4t-43 -18t-21.5 -41t-6 -74q0 -46 6 -73t21.5 -40.5t43 -17t70.5 -3.5q31 0 68.5 2t61.5 7v-158q-29 -8 -67 -12t-76 -4zM222 634
l56 160h202l-117 -169z" />
    <glyph glyph-name="Ccaron" unicode="&#x10c;" horiz-adv-x="581" 
d="M394 -12q-184 0 -274 93t-90 289q0 195 88 288.5t263 93.5q36 0 76.5 -3.5t94.5 -11.5v-170q-28 3 -48.5 5.5t-37 3.5t-30 1.5t-26.5 0.5q-48 0 -78.5 -8t-48.5 -30.5t-25 -63.5t-7 -107q0 -65 7 -105t25 -62.5t48.5 -30.5t77.5 -8q34 0 75 3.5t68 9.5v-168
q-32 -9 -74 -14.5t-84 -5.5zM127 1004l203 -76l203 76v-136l-204 -76l-202 76v136z" />
    <glyph glyph-name="caron.cap" horiz-adv-x="465" 
d="M30 1004l203 -76l203 76v-136l-204 -76l-202 76v136z" />
    <glyph glyph-name="Ccaron.sc" horiz-adv-x="542" 
d="M366 -11q-171 0 -254 72.5t-83 227.5q0 152 81 225.5t243 73.5q32 0 68.5 -3t87.5 -9v-159q-53 5 -79.5 6.5t-49.5 1.5q-44 0 -71.5 -4t-43 -18t-21.5 -41t-6 -74q0 -46 6 -73t21.5 -40.5t43 -17t70.5 -3.5q31 0 68.5 2t61.5 7v-158q-29 -8 -67 -12t-76 -4zM114 801
l190 -61l189 61v-125l-191 -61l-188 61v125z" />
    <glyph glyph-name="Ccedilla" unicode="&#xc7;" horiz-adv-x="581" 
d="M324 -220q-21 0 -48.5 3.5t-57.5 8.5v118q21 -5 43 -7.5t34 -2.5q16 0 21.5 6t5.5 14q0 26 -35 78q-130 24 -193.5 115.5t-63.5 256.5q0 195 88 288.5t263 93.5q36 0 76.5 -3.5t94.5 -11.5v-170q-28 3 -48.5 5.5t-37 3.5t-30 1.5t-26.5 0.5q-48 0 -78.5 -8t-48.5 -30.5
t-25 -63.5t-7 -107q0 -65 7 -105t25 -62.5t48.5 -30.5t77.5 -8q34 0 75 3.5t68 9.5v-168q-27 -8 -62 -12.5t-71 -6.5q20 -29 28 -51.5t8 -48.5q0 -51 -34.5 -80t-96.5 -29z" />
    <glyph glyph-name="cedilla" unicode="&#xb8;" horiz-adv-x="299" 
d="M138 -220q-21 0 -48.5 3.5t-57.5 8.5v118q21 -5 43 -7.5t34 -2.5q16 0 21.5 6t5.5 14q0 18 -20 54t-60 79h123q26 -29 43.5 -51t28 -41t14.5 -36t4 -36q0 -51 -34.5 -80t-96.5 -29z" />
    <glyph glyph-name="Ccedilla.sc" horiz-adv-x="542" 
d="M303 -172q-20 0 -45.5 3t-52.5 7v108q19 -3 39.5 -5.5t31.5 -2.5q14 0 18.5 2.5t4.5 1.5q0 16 -27 54q-123 19 -183 90.5t-60 202.5q0 152 81 225.5t243 73.5q32 0 69 -3t88 -9v-159q-27 3 -46 4.5t-33.5 2t-26.5 1t-24 0.5q-44 0 -71.5 -4t-43 -18t-21.5 -41t-6 -74
q0 -46 6 -73t21.5 -40.5t43 -17t70.5 -3.5q15 0 33 0.5t36 1.5t34 3t28 4v-158q-25 -6 -55 -10t-61 -5q16 -21 22.5 -39t6.5 -38q0 -39 -31.5 -62t-88.5 -23z" />
    <glyph glyph-name="Ccircumflex" unicode="&#x108;" horiz-adv-x="581" 
d="M394 -12q-184 0 -274 93t-90 289q0 195 88 288.5t263 93.5q36 0 76.5 -3.5t94.5 -11.5v-170q-28 3 -48.5 5.5t-37 3.5t-30 1.5t-26.5 0.5q-48 0 -78.5 -8t-48.5 -30.5t-25 -63.5t-7 -107q0 -65 7 -105t25 -62.5t48.5 -30.5t77.5 -8q34 0 75 3.5t68 9.5v-168
q-32 -9 -74 -14.5t-84 -5.5zM121 928l202 76l204 -76v-136l-203 76l-203 -76v136z" />
    <glyph glyph-name="Ccircumflex.sc" horiz-adv-x="542" 
d="M366 -11q-171 0 -254 72.5t-83 227.5q0 152 81 225.5t243 73.5q32 0 68.5 -3t87.5 -9v-159q-53 5 -79.5 6.5t-49.5 1.5q-44 0 -71.5 -4t-43 -18t-21.5 -41t-6 -74q0 -46 6 -73t21.5 -40.5t43 -17t70.5 -3.5q31 0 68.5 2t61.5 7v-158q-29 -8 -67 -12t-76 -4zM109 738
l188 62l190 -62v-125l-189 61l-189 -61v125z" />
    <glyph glyph-name="Cdotaccent" unicode="&#x10a;" horiz-adv-x="581" 
d="M338 796q-61 0 -86.5 26t-25.5 83t25.5 83t86.5 26q60 0 86 -26t26 -83t-26 -83t-86 -26zM394 -12q-184 0 -274 93t-90 289q0 195 88 288.5t263 93.5q36 0 76.5 -3.5t94.5 -11.5v-170q-28 3 -48.5 5.5t-37 3.5t-30 1.5t-26.5 0.5q-48 0 -78.5 -8t-48.5 -30.5t-25 -63.5
t-7 -107q0 -65 7 -105t25 -62.5t48.5 -30.5t77.5 -8q34 0 75 3.5t68 9.5v-168q-32 -9 -74 -14.5t-84 -5.5z" />
    <glyph glyph-name="dotaccent.cap" horiz-adv-x="302" 
d="M150 796q-61 0 -86.5 26t-25.5 83t25.5 83t86.5 26q60 0 86 -26t26 -83t-26 -83t-86 -26z" />
    <glyph glyph-name="Cdotaccent.sc" horiz-adv-x="542" 
d="M366 -11q-171 0 -254 72.5t-83 227.5q0 152 81 225.5t243 73.5q32 0 68.5 -3t87.5 -9v-159q-53 5 -79.5 6.5t-49.5 1.5q-44 0 -71.5 -4t-43 -18t-21.5 -41t-6 -74q0 -46 6 -73t21.5 -40.5t43 -17t70.5 -3.5q31 0 68.5 2t61.5 7v-158q-29 -8 -67 -12t-76 -4zM314 618
q-57 0 -81.5 23t-24.5 77q0 53 24.5 76.5t81.5 23.5t81 -24.5t24 -75.5q0 -52 -24 -76t-81 -24z" />
    <glyph glyph-name="D" unicode="D" horiz-adv-x="753" 
d="M279 -11q-54 0 -111 3t-110 10v737q87 5 145.5 8t104.5 3q111 0 189.5 -21.5t129 -67t73.5 -118t23 -174.5q0 -104 -24 -176t-77 -117.5t-137.5 -66t-205.5 -20.5zM362 159q42 0 69.5 9t43 32.5t22 64.5t6.5 105q0 62 -7.5 102.5t-25.5 64.5t-48.5 34t-76.5 10
q-18 0 -34.5 -1t-39.5 -4v-411q48 -6 91 -6z" />
    <glyph glyph-name="D.sc" horiz-adv-x="700" 
d="M290 -8q-56 0 -118 2.5t-116 7.5v575q79 4 134.5 6t100.5 2q101 0 173 -16.5t118 -52.5t67.5 -92.5t21.5 -135.5t-21.5 -135t-67.5 -92t-118.5 -52.5t-173.5 -16.5zM341 151q37 0 61 5t38 19.5t19 41.5t5 71q0 43 -6.5 70t-22 42.5t-42.5 21t-68 5.5q-17 0 -31.5 -0.5
t-36.5 -2.5v-268q21 -3 41.5 -4t42.5 -1z" />
    <glyph glyph-name="Dcaron" unicode="&#x10e;" horiz-adv-x="753" 
d="M171 1004l203 -76l203 76v-136l-204 -76l-202 76v136zM279 -11q-54 0 -111 3t-110 10v737q87 5 145.5 8t104.5 3q111 0 189.5 -21.5t129 -67t73.5 -118t23 -174.5q0 -104 -24 -176t-77 -117.5t-137.5 -66t-205.5 -20.5zM362 159q42 0 69.5 9t43 32.5t22 64.5t6.5 105
q0 62 -7.5 102.5t-25.5 64.5t-48.5 34t-76.5 10q-18 0 -34.5 -1t-39.5 -4v-411q48 -6 91 -6z" />
    <glyph glyph-name="Dcaron.sc" horiz-adv-x="701" 
d="M290 -8q-56 0 -118 2.5t-116 7.5v575q79 4 134.5 6t100.5 2q101 0 173 -16.5t118 -52.5t67.5 -92.5t21.5 -135.5t-21.5 -135t-67.5 -92t-118.5 -52.5t-173.5 -16.5zM341 151q37 0 61 5t38 19.5t19 41.5t5 71q0 43 -6.5 70t-22 42.5t-42.5 21t-68 5.5q-17 0 -31.5 -0.5
t-36.5 -2.5v-268q21 -3 41.5 -4t42.5 -1zM161 676v125l190 -61l189 61v-125l-191 -61z" />
    <glyph glyph-name="Dcroat" unicode="&#x110;" horiz-adv-x="780" 
d="M2 454h84v285q87 5 145.5 8t104.5 3q111 0 189.5 -21.5t129 -67t73.5 -118t23 -174.5q0 -104 -24 -176t-77 -117.5t-137.5 -66t-205.5 -20.5q-54 0 -111 3t-110 10v293h-84v159zM390 159q42 0 69.5 9t43 32.5t22 64.5t6.5 105q0 62 -7.5 102.5t-25.5 64.5t-48.5 34
t-76.5 10q-18 0 -34.5 -1t-39.5 -4v-122h84v-159h-84v-130q48 -6 91 -6z" />
    <glyph glyph-name="Dcroat.sc" horiz-adv-x="729" 
d="M9 368h75v209q82 4 137 6t98 2q101 0 173.5 -16.5t118.5 -52t67.5 -92t21.5 -136.5q0 -82 -22.5 -138.5t-71.5 -91.5t-127 -50.5t-190 -15.5q-51 0 -104 2.5t-101 7.5v217h-75v149zM369 151q37 0 61 5t37.5 19.5t19 41.5t5.5 71q0 43 -6.5 70t-22 42.5t-42.5 21t-68 5.5
q-15 0 -30 -0.5t-38 -2.5v-56h73v-149h-73v-63q21 -3 42.5 -4t41.5 -1z" />
    <glyph glyph-name="Ddotbelow" unicode="&#x1e0c;" horiz-adv-x="753" 
d="M368 -220q-47 0 -66 19t-19 63t19 63t66 19t66 -20t19 -62q0 -43 -19 -62.5t-66 -19.5zM279 -11q-54 0 -111 3t-110 10v737q87 5 145.5 8t104.5 3q111 0 189.5 -21.5t129 -67t73.5 -118t23 -174.5q0 -104 -24 -176t-77 -117.5t-137.5 -66t-205.5 -20.5zM362 159
q42 0 69.5 9t43 32.5t22 64.5t6.5 105q0 62 -7.5 102.5t-25.5 64.5t-48.5 34t-76.5 10q-18 0 -34.5 -1t-39.5 -4v-411q48 -6 91 -6z" />
    <glyph glyph-name="dotbelow" horiz-adv-x="252" 
d="M126 -220q-47 0 -66 19t-19 63t19 63t66 19t66 -20t19 -62q0 -43 -19 -62.5t-66 -19.5z" />
    <glyph glyph-name="Ddotbelow.sc" horiz-adv-x="701" 
d="M290 -8q-56 0 -118 2.5t-116 7.5v575q79 4 134.5 6t100.5 2q101 0 173 -16.5t118 -52.5t67.5 -92.5t21.5 -135.5t-21.5 -135t-67.5 -92t-118.5 -52.5t-173.5 -16.5zM341 151q37 0 61 5t38 19.5t19 41.5t5 71q0 43 -6.5 70t-22 42.5t-42.5 21t-68 5.5q-17 0 -31.5 -0.5
t-36.5 -2.5v-268q21 -3 41.5 -4t42.5 -1zM344 -182q-43 0 -61 17.5t-18 55.5t18 55.5t61 17.5q45 0 62.5 -17.5t17.5 -55.5t-17.5 -55.5t-62.5 -17.5z" />
    <glyph glyph-name="Delta" unicode="&#x2206;" horiz-adv-x="835" 
d="M288 740h260l269 -740h-798zM560 169l-142 394l-143 -394h285z" />
    <glyph glyph-name="E" unicode="E" horiz-adv-x="642" 
d="M58 740h543v-169h-328v-116h293v-169h-293v-117h338v-169h-553v740z" />
    <glyph glyph-name="E.sc" horiz-adv-x="600" 
d="M56 577h503v-152h-300v-68h267v-137h-267v-67h309v-153h-512v577z" />
    <glyph glyph-name="Eacute" unicode="&#xc9;" horiz-adv-x="642" 
d="M247 809l63 189h215l-128 -199zM58 740h543v-169h-328v-116h293v-169h-293v-117h338v-169h-553v740z" />
    <glyph glyph-name="Eacute.sc" horiz-adv-x="600" 
d="M56 577h503v-152h-300v-68h267v-137h-267v-67h309v-153h-512v577zM229 634l56 160h202l-117 -169z" />
    <glyph glyph-name="Ebreve" unicode="&#x114;" horiz-adv-x="642" 
d="M328 801q-61 0 -103.5 14t-69 39.5t-38.5 60t-12 76.5h138q0 -50 17 -72.5t68 -22.5q50 0 67 22.5t17 72.5h138q0 -42 -12 -77t-39 -60t-69 -39t-102 -14zM58 740h543v-169h-328v-116h293v-169h-293v-117h338v-169h-553v740z" />
    <glyph glyph-name="Ebreve.sc" horiz-adv-x="600" 
d="M304 623q-57 0 -96.5 12t-64 33.5t-35.5 50.5t-11 64h130q0 -39 15 -56t62 -17t62.5 17t15.5 56h129q0 -35 -11 -64.5t-35.5 -50.5t-64 -33t-96.5 -12zM56 577h503v-152h-300v-68h267v-137h-267v-67h309v-153h-512v577z" />
    <glyph glyph-name="Ecaron" unicode="&#x11a;" horiz-adv-x="642" 
d="M134 1004l203 -76l203 76v-136l-204 -76l-202 76v136zM58 740h543v-169h-328v-116h293v-169h-293v-117h338v-169h-553v740z" />
    <glyph glyph-name="Ecaron.sc" horiz-adv-x="600" 
d="M56 577h503v-152h-300v-68h267v-137h-267v-67h309v-153h-512v577zM124 676v125l189 -61l189 61v-125l-190 -61z" />
    <glyph glyph-name="Ecircumflex" unicode="&#xca;" horiz-adv-x="642" 
d="M58 740h543v-169h-328v-116h293v-169h-293v-117h338v-169h-553v740zM140 928l202 76l204 -76v-136l-203 76l-203 -76v136z" />
    <glyph glyph-name="Ecircumflex.sc" horiz-adv-x="600" 
d="M56 577h503v-152h-300v-68h267v-137h-267v-67h309v-153h-512v577zM131 738l188 62l190 -62v-125l-189 61l-189 -61v125z" />
    <glyph glyph-name="Edblgrave" unicode="&#x204;" horiz-adv-x="642" 
d="M58 740h543v-169h-328v-116h293v-169h-293v-117h338v-169h-553v740zM157 799l-128 199h194l62 -189zM382 799l-128 199h194l63 -189z" />
    <glyph glyph-name="Edblgrave.sc" horiz-adv-x="601" 
d="M56 577h503v-152h-300v-68h267v-137h-267v-67h309v-153h-512v577zM25 795h186l55 -162l-123 -7zM235 795h185l56 -162l-123 -7z" />
    <glyph glyph-name="Edieresis" unicode="&#xcb;" horiz-adv-x="642" 
d="M193 796q-61 0 -86.5 26t-25.5 83t25.5 83t86.5 26q60 0 86 -26t26 -83t-26 -83t-86 -26zM485 796q-60 0 -85.5 26t-25.5 83t25.5 83t85.5 26q61 0 86.5 -26t25.5 -83t-25.5 -83t-86.5 -26zM58 740h543v-169h-328v-116h293v-169h-293v-117h338v-169h-553v740z" />
    <glyph glyph-name="Edieresis.sc" horiz-adv-x="600" 
d="M182 616q-57 0 -81.5 23.5t-24.5 76.5t24.5 76.5t81.5 23.5t81 -24.5t24 -75.5q0 -52 -24 -76t-81 -24zM451 616q-57 0 -80.5 23.5t-23.5 76.5t23.5 76.5t80.5 23.5t81 -24.5t24 -75.5q0 -52 -24 -76t-81 -24zM56 577h503v-152h-300v-68h267v-137h-267v-67h309v-153h-512
v577z" />
    <glyph glyph-name="Edotaccent" unicode="&#x116;" horiz-adv-x="642" 
d="M328 796q-61 0 -86.5 26t-25.5 83t25.5 83t86.5 26q60 0 86 -26t26 -83t-26 -83t-86 -26zM58 740h543v-169h-328v-116h293v-169h-293v-117h338v-169h-553v740z" />
    <glyph glyph-name="Edotaccent.sc" horiz-adv-x="600" 
d="M304 618q-57 0 -81 23t-24 77q0 53 24 76.5t81 23.5t81 -24.5t24 -75.5q0 -52 -24 -76t-81 -24zM56 577h503v-152h-300v-68h267v-137h-267v-67h309v-153h-512v577z" />
    <glyph glyph-name="Edotbelow" unicode="&#x1eb8;" horiz-adv-x="642" 
d="M58 740h543v-169h-328v-116h293v-169h-293v-117h338v-169h-553v740zM344 -220q-47 0 -66 19t-19 63t19 63t66 19t66 -20t19 -62q0 -43 -19 -62.5t-66 -19.5z" />
    <glyph glyph-name="Edotbelow.sc" horiz-adv-x="600" 
d="M320 -182q-43 0 -61 17.5t-18 55.5q0 39 18 56t61 17q45 0 62.5 -17.5t17.5 -55.5q0 -37 -17.5 -55t-62.5 -18zM56 577h503v-152h-300v-68h267v-137h-267v-67h309v-153h-512v577z" />
    <glyph glyph-name="Egrave" unicode="&#xc8;" horiz-adv-x="642" 
d="M272 799l-128 199h215l62 -189zM58 740h543v-169h-328v-116h293v-169h-293v-117h338v-169h-553v740z" />
    <glyph glyph-name="Egrave.sc" horiz-adv-x="600" 
d="M56 577h503v-152h-300v-68h267v-137h-267v-67h309v-153h-512v577zM137 794h203l55 -162l-141 -7z" />
    <glyph glyph-name="Einvertedbreve" unicode="&#x206;" horiz-adv-x="642" 
d="M58 740h543v-169h-328v-116h293v-169h-293v-117h338v-169h-553v740zM418 811q0 49 -17 71.5t-67 22.5q-51 0 -68 -22t-17 -72h-138q0 42 12 76.5t38.5 60t69 39.5t103.5 14q60 0 102 -14t69 -39t39 -60t12 -77h-138z" />
    <glyph glyph-name="Einvertedbreve.sc" horiz-adv-x="600" 
d="M103 632q0 34 11 63.5t35.5 51t64.5 33.5t97 12t96 -12t64 -33t36 -50.5t11 -64.5h-130q0 38 -15 55t-62 17q-48 0 -63 -17t-15 -55h-130zM56 577h503v-152h-300v-68h267v-137h-267v-67h309v-153h-512v577z" />
    <glyph glyph-name="Emacron" unicode="&#x112;" horiz-adv-x="642" 
d="M132 976h405v-136h-405v136zM58 740h543v-169h-328v-116h293v-169h-293v-117h338v-169h-553v740z" />
    <glyph glyph-name="Emacron.sc" horiz-adv-x="600" 
d="M56 577h503v-152h-300v-68h267v-137h-267v-67h309v-153h-512v577zM124 781h377v-126h-377v126z" />
    <glyph glyph-name="Eng" unicode="&#x14a;" horiz-adv-x="783" 
d="M451 -170q29 68 43.5 122t20.5 110l-200 258l-57 89h-10v-409h-190v740h167l252 -325l51 -82h10v407h190v-605q0 -31 -11 -73.5t-29.5 -90t-44 -96t-54.5 -91.5z" />
    <glyph glyph-name="Eng.sc" horiz-adv-x="714" 
d="M409 -133q13 30 23 54t16.5 45.5t11 41t7.5 39.5l-168 156l-54 72h-10v-275h-179v577h157l210 -209l48 -64h10v273h179v-458q0 -27 -8.5 -62t-24.5 -73.5t-38.5 -79.5t-49.5 -80z" />
    <glyph glyph-name="Eogonek" unicode="&#x118;" horiz-adv-x="642" 
d="M58 740h543v-169h-328v-116h293v-169h-293v-117h338v-174q-34 -13 -56.5 -25t-36 -22.5t-19 -20t-5.5 -17.5q0 -19 30 -19q16 0 41.5 4.5t46.5 10.5v-114q-24 -6 -47 -9t-49 -3q-75 0 -115 25.5t-40 74.5q0 66 78 120h-381v740z" />
    <glyph glyph-name="Eogonek.sc" horiz-adv-x="601" 
d="M481 -172q-73 0 -109 21.5t-36 61.5q0 27 17.5 49.5t46.5 39.5h-344v577h504v-152h-301v-68h268v-137h-268v-67h309v-154q-35 -12 -56.5 -22t-32.5 -17.5t-14.5 -12t-3.5 -7.5q0 -8 25 -8q16 0 42 3.5t42 6.5v-104q-46 -10 -89 -10z" />
    <glyph glyph-name="Eth" unicode="&#xd0;" horiz-adv-x="780" 
d="M2 454h84v285q87 5 145.5 8t104.5 3q111 0 189.5 -21.5t129 -67t73.5 -118t23 -174.5q0 -104 -24 -176t-77 -117.5t-137.5 -66t-205.5 -20.5q-54 0 -111 3t-110 10v293h-84v159zM390 159q42 0 69.5 9t43 32.5t22 64.5t6.5 105q0 62 -7.5 102.5t-25.5 64.5t-48.5 34
t-76.5 10q-18 0 -34.5 -1t-39.5 -4v-122h84v-159h-84v-130q48 -6 91 -6z" />
    <glyph glyph-name="Eth.sc" horiz-adv-x="727" 
d="M7 363h75v214q83 4 138 6t98 2q101 0 173 -16.5t118 -52t67.5 -92t21.5 -136.5q0 -82 -22.5 -138.5t-71.5 -91.5t-127 -50.5t-190 -15.5q-50 0 -103.5 2.5t-101.5 7.5v219h-75v142zM367 151q37 0 61 5t38 19.5t19.5 41.5t5.5 71q0 43 -6.5 70t-22 42.5t-42.5 21t-68 5.5
q-16 0 -30.5 -0.5t-37.5 -2.5v-61h73v-142h-73v-65q21 -3 42 -4t41 -1z" />
    <glyph glyph-name="Etilde" unicode="&#x1ebc;" horiz-adv-x="642" 
d="M103 847q35 72 80 106.5t87 34.5q24 0 48.5 -6t48.5 -12.5t48 -12.5t49 -6q22 0 42.5 7.5t49.5 29.5l23 -29q-36 -72 -80.5 -106.5t-86.5 -34.5q-24 0 -48.5 5.5t-48.5 12.5t-48.5 12.5t-48.5 5.5q-23 0 -44 -7t-48 -29zM58 740h543v-169h-328v-116h293v-169h-293v-117
h338v-169h-553v740z" />
    <glyph glyph-name="Etilde.sc" horiz-adv-x="600" 
d="M95 660q32 66 74.5 97t81.5 31q22 0 45 -4t45.5 -9.5t45 -9.5t45.5 -4q20 0 39.5 5t45.5 23l21 -25q-34 -66 -76 -97t-80 -31q-23 0 -45.5 4.5t-45 9.5t-45 9.5t-45.5 4.5q-21 0 -40 -5t-45 -23zM56 577h503v-152h-300v-68h267v-137h-267v-67h309v-153h-512v577z" />
    <glyph glyph-name="Euro" unicode="&#x20ac;" horiz-adv-x="693" 
d="M28 511h87q32 118 122.5 178.5t245.5 60.5q58 0 103 -7t74 -15l-43 -166q-20 4 -47.5 6.5t-48.5 2.5q-80 0 -123.5 -12.5t-62.5 -47.5h256l-20 -114h-257v-55h245l-20 -114h-204q20 -35 63.5 -47.5t124.5 -12.5q37 0 70.5 4t66.5 13v-174q-30 -11 -75 -16t-94 -5
q-161 0 -253 60t-123 178h-87v114h70v55h-70v114z" />
    <glyph glyph-name="Euro.tab" 
d="M8 511h84q30 118 118 178.5t238 60.5q57 0 101 -7t72 -15l-42 -166q-20 4 -46.5 6.5t-47.5 2.5q-74 0 -114.5 -12.5t-59.5 -47.5h245l-19 -114h-248v-55h236l-19 -114h-196q19 -35 60.5 -47.5t117.5 -12.5q36 0 69 4t65 13v-174q-29 -11 -73.5 -16t-92.5 -5
q-156 0 -245 60t-120 178h-83v114h68q-1 5 -1 13.5v13.5v14.5t1 13.5h-68v114z" />
    <glyph glyph-name="F" unicode="F" horiz-adv-x="619" 
d="M58 740h538v-169h-323v-141h288v-169h-288v-261h-215v740z" />
    <glyph glyph-name="F.sc" horiz-adv-x="580" 
d="M56 577h499v-157h-296v-83h264v-148h-264v-189h-203v577z" />
    <glyph glyph-name="F_B.sc" horiz-adv-x="1226" 
d="M57 577h499v-157h-296v-83h264v-148h-264v-189h-203v577zM896 -8q-67 0 -131.5 3t-135.5 9v569q136 12 249 12q158 0 230.5 -40.5t72.5 -128.5t-109 -116v-3q63 -11 96 -45.5t33 -88.5q0 -88 -74.5 -129.5t-230.5 -41.5zM904 131q100 0 100 51q0 29 -23 38.5t-79 9.5h-82
v-98q5 -1 10 -1h14h23h37zM890 352q52 0 72 10t20 39q0 26 -20 36t-68 10q-20 0 -38.5 -0.5t-35.5 -2.5v-92h70z" />
    <glyph glyph-name="F_F.sc" horiz-adv-x="1153" 
d="M56 577h499v-157h-296v-83h264v-148h-264v-189h-203v577zM629 577h499v-157h-296v-83h264v-148h-264v-189h-203v577z" />
    <glyph glyph-name="F_F_B.sc" horiz-adv-x="1799" 
d="M57 577h499v-157h-296v-83h264v-148h-264v-189h-203v577zM630 577h499v-157h-296v-83h264v-148h-264v-189h-203v577zM1469 -8q-67 0 -131.5 3t-135.5 9v569q136 12 249 12q158 0 230.5 -40.5t72.5 -128.5t-109 -116v-3q63 -11 96 -45.5t33 -88.5q0 -88 -74.5 -129.5
t-230.5 -41.5zM1477 131q100 0 100 51q0 29 -23 38.5t-79 9.5h-82v-98q5 -1 10 -1h14h23h37zM1463 352q52 0 72 10t20 39q0 26 -20 36t-68 10q-20 0 -38.5 -0.5t-35.5 -2.5v-92h70z" />
    <glyph glyph-name="F_F_H.sc" horiz-adv-x="1886" 
d="M56 577h499v-157h-296v-83h264v-148h-264v-189h-203v577zM629 577h499v-157h-296v-83h264v-148h-264v-189h-203v577zM1202 577h203v-202h222v202h204v-577h-204v217h-222v-217h-203v577z" />
    <glyph glyph-name="H.sc" horiz-adv-x="740" 
d="M56 577h203v-202h222v202h204v-577h-204v217h-222v-217h-203v577z" />
    <glyph glyph-name="F_F_I.sc" horiz-adv-x="1460" 
d="M56 577h499v-157h-296v-83h264v-148h-264v-189h-203v577zM629 577h499v-157h-296v-83h264v-148h-264v-189h-203v577zM1202 577h203v-577h-203v577z" />
    <glyph glyph-name="I.sc" horiz-adv-x="314" 
d="M56 577h203v-577h-203v577z" />
    <glyph glyph-name="F_F_J.sc" horiz-adv-x="1468" 
d="M57 577h499v-157h-296v-83h264v-148h-264v-189h-203v577zM630 577h499v-157h-296v-83h264v-148h-264v-189h-203v577zM1145 -123q19 39 32 73t20.5 67t11 67.5t3.5 75.5v417h203v-434q0 -42 -7.5 -80t-24 -76t-43.5 -78t-67 -86z" />
    <glyph glyph-name="J.sc" horiz-adv-x="315" 
d="M-9 -123q19 39 32 73t20.5 67t11 67.5t3.5 75.5v417h203v-434q0 -42 -7.5 -80t-24 -76t-43.5 -78t-67 -86z" />
    <glyph glyph-name="F_F_K.sc" horiz-adv-x="1822" 
d="M56 577h499v-157h-296v-83h264v-148h-264v-189h-203v577zM629 577h499v-157h-296v-83h264v-148h-264v-189h-203v577zM1202 577h203v-207h69l116 207h224l-154 -251l-60 -22v-7l62 -23l169 -274h-226l-124 212h-76v-212h-203v577z" />
    <glyph glyph-name="K.sc" horiz-adv-x="676" 
d="M56 577h203v-207h69l116 207h224l-154 -251l-60 -22v-7l62 -23l169 -274h-226l-124 212h-76v-212h-203v577z" />
    <glyph glyph-name="F_F_L.sc" horiz-adv-x="1674" 
d="M1202 577h203v-420h254v-157h-457v577zM56 577h499v-157h-296v-83h264v-148h-264v-189h-203v577zM629 577h499v-157h-296v-83h264v-148h-264v-189h-203v577z" />
    <glyph glyph-name="L.sc" horiz-adv-x="528" 
d="M56 577h203v-420h254v-157h-457v577z" />
    <glyph glyph-name="F_F_T.sc" horiz-adv-x="1706" 
d="M1310 419h-170v158h544v-158h-171v-419h-203v419zM56 577h499v-157h-296v-83h264v-148h-264v-189h-203v577zM629 577h499v-157h-296v-83h264v-148h-264v-189h-203v577z" />
    <glyph glyph-name="T.sc" horiz-adv-x="588" 
d="M192 419h-170v158h544v-158h-171v-419h-203v419z" />
    <glyph glyph-name="F_H.sc" horiz-adv-x="1313" 
d="M56 577h499v-157h-296v-83h264v-148h-264v-189h-203v577zM629 577h203v-202h222v202h204v-577h-204v217h-222v-217h-203v577z" />
    <glyph glyph-name="F_I.sc" horiz-adv-x="887" 
d="M56 577h499v-157h-296v-83h264v-148h-264v-189h-203v577zM629 577h203v-577h-203v577z" />
    <glyph glyph-name="F_J.sc" horiz-adv-x="895" 
d="M57 577h499v-157h-296v-83h264v-148h-264v-189h-203v577zM572 -123q19 39 32 73t20.5 67t11 67.5t3.5 75.5v417h203v-434q0 -42 -7.5 -80t-24 -76t-43.5 -78t-67 -86z" />
    <glyph glyph-name="F_K.sc" horiz-adv-x="1249" 
d="M56 577h499v-157h-296v-83h264v-148h-264v-189h-203v577zM629 577h203v-207h69l116 207h224l-154 -251l-60 -22v-7l62 -23l169 -274h-226l-124 212h-76v-212h-203v577z" />
    <glyph glyph-name="F_L.sc" horiz-adv-x="1101" 
d="M629 577h203v-420h254v-157h-457v577zM56 577h499v-157h-296v-83h264v-148h-264v-189h-203v577z" />
    <glyph glyph-name="F_T.sc" horiz-adv-x="1133" 
d="M737 419h-170v158h544v-158h-171v-419h-203v419zM56 577h499v-157h-296v-83h264v-148h-264v-189h-203v577z" />
    <glyph glyph-name="G" unicode="G" horiz-adv-x="684" 
d="M393 -12q-185 0 -274.5 94t-89.5 288q0 382 394 382q51 0 107 -6t101 -17v-170q-62 10 -109.5 15t-80.5 5q-58 0 -95 -9t-58.5 -33t-29.5 -64.5t-8 -103.5t6.5 -103t24 -63t48.5 -31.5t79 -8.5h19t21 1v212h195v-356q-70 -14 -134.5 -23t-115.5 -9z" />
    <glyph glyph-name="G.sc" horiz-adv-x="637" 
d="M366 -11q-173 0 -255 74t-82 226q0 299 362 299q48 0 100 -5t94 -14v-156q-116 12 -176 12q-55 0 -88.5 -5t-52 -20t-24.5 -42t-6 -70q0 -44 5 -70t20 -40.5t43 -19t73 -4.5h32v139h185v-275q-64 -13 -124.5 -21t-105.5 -8z" />
    <glyph glyph-name="Gacute" unicode="&#x1f4;" horiz-adv-x="684" 
d="M284 809l63 189h215l-128 -199zM393 -12q-185 0 -274.5 94t-89.5 288q0 382 394 382q51 0 107 -6t101 -17v-170q-62 10 -109.5 15t-80.5 5q-58 0 -95 -9t-58.5 -33t-29.5 -64.5t-8 -103.5t6.5 -103t24 -63t48.5 -31.5t79 -8.5h19t21 1v212h195v-356q-70 -14 -134.5 -23
t-115.5 -9z" />
    <glyph glyph-name="Gacute.sc" horiz-adv-x="637" 
d="M366 -11q-172 0 -254.5 73.5t-82.5 226.5q0 299 362 299q48 0 100.5 -5t93.5 -14v-159q-114 15 -176 15q-53 0 -86.5 -5t-52 -19.5t-25.5 -41.5t-7 -71t5.5 -70.5t21 -40.5t43 -18.5t71.5 -4.5h32v139h185v-275q-63 -13 -123 -21t-107 -8zM261 634l56 160h202l-117 -169z
" />
    <glyph glyph-name="Gbreve" unicode="&#x11e;" horiz-adv-x="684" 
d="M375 801q-61 0 -103.5 14t-69 39.5t-38.5 60t-12 76.5h138q0 -50 17 -72.5t68 -22.5q50 0 67 22.5t17 72.5h138q0 -42 -12 -77t-39 -60t-69 -39t-102 -14zM393 -12q-185 0 -274.5 94t-89.5 288q0 382 394 382q51 0 107 -6t101 -17v-170q-62 10 -109.5 15t-80.5 5
q-58 0 -95 -9t-58.5 -33t-29.5 -64.5t-8 -103.5t6.5 -103t24 -63t48.5 -31.5t79 -8.5h19t21 1v212h195v-356q-70 -14 -134.5 -23t-115.5 -9z" />
    <glyph glyph-name="Gbreve.sc" horiz-adv-x="637" 
d="M366 -11q-172 0 -254.5 73.5t-82.5 226.5q0 299 362 299q48 0 100.5 -5t93.5 -14v-159q-114 15 -176 15q-53 0 -86.5 -5t-52 -19.5t-25.5 -41.5t-7 -71t5.5 -70.5t21 -40.5t43 -18.5t71.5 -4.5h32v139h185v-275q-63 -13 -123 -21t-107 -8zM347 623q-57 0 -96.5 12
t-64 33.5t-35.5 50.5t-11 64h130q0 -39 15 -56t62 -17t62 17t15 56h131q0 -35 -11 -64.5t-36 -50.5t-64.5 -33t-96.5 -12z" />
    <glyph glyph-name="Gcircumflex" unicode="&#x11c;" horiz-adv-x="684" 
d="M393 -12q-185 0 -274.5 94t-89.5 288q0 382 394 382q51 0 107 -6t101 -17v-170q-62 10 -109.5 15t-80.5 5q-58 0 -95 -9t-58.5 -33t-29.5 -64.5t-8 -103.5t6.5 -103t24 -63t48.5 -31.5t79 -8.5h19t21 1v212h195v-356q-70 -14 -134.5 -23t-115.5 -9zM164 928l202 76
l204 -76v-136l-203 76l-203 -76v136z" />
    <glyph glyph-name="Gcircumflex.sc" horiz-adv-x="637" 
d="M366 -11q-172 0 -254.5 73.5t-82.5 226.5q0 299 362 299q48 0 100.5 -5t93.5 -14v-159q-114 15 -176 15q-53 0 -86.5 -5t-52 -19.5t-25.5 -41.5t-7 -71t5.5 -70.5t21 -40.5t43 -18.5t71.5 -4.5h32v139h185v-275q-63 -13 -123 -21t-107 -8zM149 738l188 62l190 -62v-125
l-189 61l-189 -61v125z" />
    <glyph glyph-name="Gcommaaccent" unicode="&#x122;" horiz-adv-x="684" 
d="M268 -70h215l-99 -150h-156zM393 -12q-185 0 -274.5 94t-89.5 288q0 382 394 382q51 0 107 -6t101 -17v-170q-62 10 -109.5 15t-80.5 5q-58 0 -95 -9t-58.5 -33t-29.5 -64.5t-8 -103.5t6.5 -103t24 -63t48.5 -31.5t79 -8.5h19t21 1v212h195v-356q-70 -14 -134.5 -23
t-115.5 -9z" />
    <glyph glyph-name="commaaccent" unicode="&#xf6c3;" horiz-adv-x="296" 
d="M70 -70h215l-99 -150h-156z" />
    <glyph glyph-name="Gcommaaccent.sc" horiz-adv-x="637" 
d="M366 -11q-172 0 -254.5 73.5t-82.5 226.5q0 299 362 299q48 0 100.5 -5t93.5 -14v-159q-114 15 -176 15q-53 0 -86.5 -5t-52 -19.5t-25.5 -41.5t-7 -71t5.5 -70.5t21 -40.5t43 -18.5t71.5 -4.5h32v139h185v-275q-63 -13 -123 -21t-107 -8zM244 -55h204l-92 -117h-147z
" />
    <glyph glyph-name="Gdotaccent" unicode="&#x120;" horiz-adv-x="684" 
d="M378 796q-61 0 -86.5 26t-25.5 83t25.5 83t86.5 26q60 0 86 -26t26 -83t-26 -83t-86 -26zM393 -12q-185 0 -274.5 94t-89.5 288q0 382 394 382q51 0 107 -6t101 -17v-170q-62 10 -109.5 15t-80.5 5q-58 0 -95 -9t-58.5 -33t-29.5 -64.5t-8 -103.5t6.5 -103t24 -63
t48.5 -31.5t79 -8.5h19t21 1v212h195v-356q-70 -14 -134.5 -23t-115.5 -9z" />
    <glyph glyph-name="Gdotaccent.sc" horiz-adv-x="637" 
d="M366 -11q-172 0 -254.5 73.5t-82.5 226.5q0 299 362 299q48 0 100.5 -5t93.5 -14v-159q-114 15 -176 15q-53 0 -86.5 -5t-52 -19.5t-25.5 -41.5t-7 -71t5.5 -70.5t21 -40.5t43 -18.5t71.5 -4.5h32v139h185v-275q-63 -13 -123 -21t-107 -8zM350 618q-57 0 -81 23t-24 77
q0 53 24 76.5t81 23.5t81 -24.5t24 -75.5q0 -52 -24 -76t-81 -24z" />
    <glyph glyph-name="H" unicode="H" horiz-adv-x="794" 
d="M58 740h215v-276h249v276h215v-740h-215v295h-249v-295h-215v740z" />
    <glyph glyph-name="Hbar" unicode="&#x126;" horiz-adv-x="815" 
d="M3 631h63v109h215v-109h249v109h215v-109h72v-95h-72v-536h-215v295h-249v-295h-215v536h-63v95zM530 464v72h-249v-72h249z" />
    <glyph glyph-name="Hbar.sc" horiz-adv-x="758" 
d="M9 502h55v75h203v-75h223v75h203v-75h63v-87h-63v-415h-203v207h-223v-207h-203v415h-55v87zM490 365v50h-223v-50h223z" />
    <glyph glyph-name="Hcircumflex" unicode="&#x124;" horiz-adv-x="794" 
d="M58 740h215v-276h249v276h215v-740h-215v295h-249v-295h-215v740zM196 928l202 76l204 -76v-136l-203 76l-203 -76v136z" />
    <glyph glyph-name="Hcircumflex.sc" horiz-adv-x="740" 
d="M56 577h203v-202h222v202h204v-577h-204v217h-222v-217h-203v577zM182 738l188 62l191 -62v-125l-189 61l-190 -61v125z" />
    <glyph glyph-name="Hdotbelow" unicode="&#x1e24;" horiz-adv-x="794" 
d="M58 740h215v-276h249v276h215v-740h-215v295h-249v-295h-215v740zM396 -220q-47 0 -66 19t-19 63t19 63t66 19t66 -20t19 -62q0 -43 -19 -62.5t-66 -19.5z" />
    <glyph glyph-name="Hdotbelow.sc" horiz-adv-x="740" 
d="M56 577h203v-202h222v202h204v-577h-204v217h-222v-217h-203v577zM368 -182q-44 0 -61.5 17.5t-17.5 55.5t17.5 55.5t61.5 17.5t61.5 -17.5t17.5 -55.5t-17.5 -55.5t-61.5 -17.5z" />
    <glyph glyph-name="I" unicode="I" horiz-adv-x="330" 
d="M58 740h215v-740h-215v740z" />
    <glyph glyph-name="IJ" unicode="&#x132;" horiz-adv-x="660" 
d="M58 740h215v-740h-215v740zM315 -158q21 50 35.5 92.5t23.5 84t12.5 85t3.5 96.5v540h215v-558q0 -53 -8 -100t-26 -94t-47.5 -97t-72.5 -108z" />
    <glyph glyph-name="J" unicode="J" horiz-adv-x="330" 
d="M-15 -158q21 50 35.5 92.5t23.5 84t12.5 85t3.5 96.5v540h215v-558q0 -53 -8 -100t-26 -94t-47.5 -97t-72.5 -108z" />
    <glyph glyph-name="Iacute" unicode="&#xcd;" horiz-adv-x="330" 
d="M58 740h215v-740h-215v740zM85 809l63 189h215l-128 -199z" />
    <glyph glyph-name="Iacute.sc" horiz-adv-x="314" 
d="M56 577h203v-577h-203v577zM82 634l56 160h202l-117 -169z" />
    <glyph glyph-name="Ibreve" unicode="&#x12c;" horiz-adv-x="330" 
d="M58 740h215v-740h-215v740zM165 801q-61 0 -103.5 14t-69 39.5t-38.5 60t-12 76.5h138q0 -50 17 -72.5t68 -22.5q50 0 67 22.5t17 72.5h138q0 -42 -12 -77t-39 -60t-69 -39t-102 -14z" />
    <glyph glyph-name="Ibreve.sc" horiz-adv-x="314" 
d="M56 577h203v-577h-203v577zM157 623q-57 0 -97 12t-64.5 33.5t-35.5 50.5t-11 64h131q0 -39 15 -56t62 -17t62 17t15 56h130q0 -35 -11 -64.5t-36 -50.5t-64 -33t-96 -12z" />
    <glyph glyph-name="Icircumflex" unicode="&#xce;" horiz-adv-x="330" 
d="M58 740h215v-740h-215v740zM-36 928l202 76l204 -76v-136l-203 76l-203 -76v136z" />
    <glyph glyph-name="Icircumflex.sc" horiz-adv-x="314" 
d="M56 577h203v-577h-203v577zM-30 738l188 62l191 -62v-125l-190 61l-189 -61v125z" />
    <glyph glyph-name="Idblgrave" unicode="&#x208;" horiz-adv-x="330" 
d="M58 740h215v-740h-215v740zM3 799l-128 199h194l62 -189zM228 799l-128 199h194l63 -189z" />
    <glyph glyph-name="Idblgrave.sc" horiz-adv-x="314" 
d="M56 577h203v-577h-203v577zM5 626l-118 169h186l55 -162zM215 626l-118 169h185l56 -162z" />
    <glyph glyph-name="Idieresis" unicode="&#xcf;" horiz-adv-x="330" 
d="M58 740h215v-740h-215v740zM21 796q-61 0 -86.5 26t-25.5 83t25.5 83t86.5 26q60 0 86 -26t26 -83t-26 -83t-86 -26zM313 796q-60 0 -85.5 26t-25.5 83t25.5 83t85.5 26q61 0 86.5 -26t25.5 -83t-25.5 -83t-86.5 -26z" />
    <glyph glyph-name="Idieresis.sc" horiz-adv-x="314" 
d="M56 577h203v-577h-203v577zM25 616q-57 0 -81.5 23.5t-24.5 76.5t24.5 76.5t81.5 23.5t81 -24.5t24 -75.5q0 -52 -24 -76t-81 -24zM294 616q-57 0 -80.5 23.5t-23.5 76.5t23.5 76.5t80.5 23.5t81.5 -24.5t24.5 -75.5q0 -52 -24.5 -76t-81.5 -24z" />
    <glyph glyph-name="Idotaccent" unicode="&#x130;" horiz-adv-x="330" 
d="M58 740h215v-740h-215v740zM167 796q-61 0 -86.5 26t-25.5 83t25.5 83t86.5 26q60 0 86 -26t26 -83t-26 -83t-86 -26z" />
    <glyph glyph-name="Idotaccent.sc" horiz-adv-x="314" 
d="M56 577h203v-577h-203v577zM158 618q-57 0 -81 23t-24 77q0 53 24 76.5t81 23.5q58 0 81.5 -24.5t23.5 -75.5q0 -52 -23.5 -76t-81.5 -24z" />
    <glyph glyph-name="Idotbelow" unicode="&#x1eca;" horiz-adv-x="330" 
d="M58 740h215v-740h-215v740zM166 -220q-47 0 -66 19t-19 63t19 63t66 19t66 -20t19 -62q0 -43 -19 -62.5t-66 -19.5z" />
    <glyph glyph-name="Idotbelow.sc" horiz-adv-x="314" 
d="M56 577h203v-577h-203v577zM158 -182q-44 0 -61.5 17.5t-17.5 55.5t17.5 55.5t61.5 17.5t61.5 -17.5t17.5 -55.5t-17.5 -55.5t-61.5 -17.5z" />
    <glyph glyph-name="Igrave" unicode="&#xcc;" horiz-adv-x="330" 
d="M58 740h215v-740h-215v740zM100 799l-128 199h215l62 -189z" />
    <glyph glyph-name="Igrave.sc" horiz-adv-x="314" 
d="M56 577h203v-577h-203v577zM97 625l-118 169h203l56 -162z" />
    <glyph glyph-name="Iinvertedbreve" unicode="&#x20a;" horiz-adv-x="330" 
d="M58 740h215v-740h-215v740zM252 811q0 49 -17 71.5t-67 22.5q-51 0 -68 -22t-17 -72h-138q0 42 12 76.5t38.5 60t69 39.5t103.5 14q60 0 102 -14t69 -39t39 -60t12 -77h-138z" />
    <glyph glyph-name="Iinvertedbreve.sc" horiz-adv-x="314" 
d="M56 577h203v-577h-203v577zM237 632q0 38 -15 55t-62 17t-62 -17t-15 -55h-131q0 34 11 63.5t35.5 51t64.5 33.5t97 12t96 -12t64 -33t36 -50.5t11 -64.5h-130z" />
    <glyph glyph-name="Imacron" unicode="&#x12a;" horiz-adv-x="330" 
d="M58 740h215v-740h-215v740zM-33 976h405v-136h-405v136z" />
    <glyph glyph-name="Imacron.sc" horiz-adv-x="314" 
d="M56 577h203v-577h-203v577zM-27 781h377v-126h-377v126z" />
    <glyph glyph-name="Iogonek" unicode="&#x12e;" horiz-adv-x="330" 
d="M58 740h215v-745q-34 -13 -56.5 -25t-36 -22.5t-19 -20t-5.5 -17.5q0 -19 30 -19q16 0 41.5 4.5t46.5 10.5v-114q-24 -6 -47 -9t-49 -3q-75 0 -115 25.5t-40 74.5q0 66 78 120h-43v740z" />
    <glyph glyph-name="Iogonek.sc" horiz-adv-x="315" 
d="M56 577h203v-578q-36 -12 -57 -22t-32 -17.5t-14.5 -12t-3.5 -7.5q0 -8 25 -8q7 0 18 1t23 2.5t23 3t19 3.5v-104q-44 -10 -88 -10q-70 0 -107.5 22t-37.5 61q0 27 17.5 49.5t46.5 39.5h-35v577z" />
    <glyph glyph-name="Itilde" unicode="&#x128;" horiz-adv-x="330" 
d="M58 740h215v-740h-215v740zM-64 847q35 72 80 106.5t87 34.5q24 0 48.5 -6t48.5 -12.5t48 -12.5t49 -6q22 0 42.5 7.5t49.5 29.5l23 -29q-36 -72 -80.5 -106.5t-86.5 -34.5q-24 0 -48.5 5.5t-48.5 12.5t-48.5 12.5t-48.5 5.5q-23 0 -44 -7t-48 -29z" />
    <glyph glyph-name="Itilde.sc" horiz-adv-x="314" 
d="M56 577h203v-577h-203v577zM-57 660q32 66 74.5 97t81.5 31q22 0 45 -4t45.5 -9.5t45 -9.5t45.5 -4q20 0 39.5 5t45.5 23l21 -25q-34 -66 -76 -97t-80 -31q-23 0 -45.5 4.5t-45 9.5t-45 9.5t-45.5 4.5q-21 0 -40.5 -5t-44.5 -23z" />
    <glyph glyph-name="Jcircumflex" unicode="&#x134;" horiz-adv-x="330" 
d="M-15 -158q21 50 35.5 92.5t23.5 84t12.5 85t3.5 96.5v540h215v-558q0 -53 -8 -100t-26 -94t-47.5 -97t-72.5 -108zM-32 928l202 76l204 -76v-136l-203 76l-203 -76v136z" />
    <glyph glyph-name="Jcircumflex.sc" horiz-adv-x="315" 
d="M-10 -123q19 39 32.5 73t21 67t11 67.5t3.5 75.5v417h203v-434q0 -42 -7.5 -80t-24 -76t-43.5 -78t-67 -86zM-27 738l188 62l190 -62v-125l-189 61l-189 -61v125z" />
    <glyph glyph-name="K" unicode="K" horiz-adv-x="726" 
d="M58 740h215v-281h78l130 281h238l-170 -325l-59 -27v-9l61 -28l187 -351h-239l-142 290h-84v-290h-215v740z" />
    <glyph glyph-name="Kcommaaccent" unicode="&#x136;" horiz-adv-x="726" 
d="M245 -70h215l-99 -150h-156zM58 740h215v-281h78l130 281h238l-170 -325l-59 -27v-9l61 -28l187 -351h-239l-142 290h-84v-290h-215v740z" />
    <glyph glyph-name="Kcommaaccent.sc" horiz-adv-x="676" 
d="M56 577h203v-207h69l116 207h224l-154 -251l-60 -22v-7l62 -23l169 -274h-226l-124 212h-76v-212h-203v577zM248 -55h203l-91 -117h-147z" />
    <glyph glyph-name="L" unicode="L" horiz-adv-x="562" 
d="M58 740h215v-571h277v-169h-492v740z" />
    <glyph glyph-name="Lacute" unicode="&#x139;" horiz-adv-x="562" 
d="M91 809l63 189h215l-128 -199zM58 740h215v-571h277v-169h-492v740z" />
    <glyph glyph-name="Lacute.sc" horiz-adv-x="528" 
d="M56 577h203v-420h254v-157h-457v577zM87 634l56 160h203l-117 -169z" />
    <glyph glyph-name="Lcaron" unicode="&#x13d;" horiz-adv-x="587" 
d="M413 808h163l-50 -228h-113v228zM58 740h215v-571h277v-169h-492v740z" />
    <glyph glyph-name="caron.alt" horiz-adv-x="239" 
d="M47 808h163l-50 -228h-113v228z" />
    <glyph glyph-name="Lcaron.sc" horiz-adv-x="546" 
d="M56 577h203v-420h254v-157h-457v577zM380 643h154l-47 -178h-107v178z" />
    <glyph glyph-name="Lcommaaccent" unicode="&#x13b;" horiz-adv-x="562" 
d="M183 -70h215l-99 -150h-156zM58 740h215v-571h277v-169h-492v740z" />
    <glyph glyph-name="Lcommaaccent.sc" horiz-adv-x="528" 
d="M56 577h203v-420h254v-157h-457v577zM166 -55h203l-91 -117h-147z" />
    <glyph glyph-name="Ldot" unicode="&#x13f;" horiz-adv-x="580" 
d="M58 740h215v-571h277v-169h-492v740zM466 278q-61 0 -86.5 26t-25.5 83q0 58 25.5 83.5t86.5 25.5q60 0 86 -26t26 -83t-26 -83t-86 -26z" />
    <glyph glyph-name="periodcentered" unicode="&#xb7;" horiz-adv-x="289" 
d="M145 261q-61 0 -86.5 26t-25.5 83q0 58 25.5 83.5t86.5 25.5q60 0 86 -26t26 -83t-26 -83t-86 -26z" />
    <glyph glyph-name="Ldot.sc" horiz-adv-x="545" 
d="M56 577h203v-420h254v-157h-457v577zM435 207q-57 0 -81 23.5t-24 77.5q0 53 24 76.5t81 23.5q58 0 81.5 -24.5t23.5 -75.5q0 -52 -23.5 -76.5t-81.5 -24.5z" />
    <glyph glyph-name="Lslash" unicode="&#x141;" horiz-adv-x="579" 
d="M9 377l66 31v332h215v-229l116 55v-150l-116 -56v-191h277v-169h-492v257l-66 -31v151z" />
    <glyph glyph-name="Lslash.sc" horiz-adv-x="542" 
d="M12 316l58 22v239h203v-160l105 40v-138l-105 -41v-121h254v-157h-457v199l-58 -22v139z" />
    <glyph glyph-name="M" unicode="M" horiz-adv-x="993" 
d="M58 740h298l104 -308l33 -142h7l32 142l105 308h298v-740h-193v501h-8l-51 -177l-101 -290h-173l-100 290l-52 177h-8v-501h-191v740z" />
    <glyph glyph-name="M.sc" horiz-adv-x="919" 
d="M56 577h273l93 -217l33 -97h9l33 97l93 217h274v-577h-183v364h-9l-56 -149l-77 -189h-159l-77 189l-56 149h-9v-364h-182v577z" />
    <glyph glyph-name="N" unicode="N" horiz-adv-x="786" 
d="M58 740h171l250 -325l52 -80h10v405h187v-740h-170l-245 320l-58 87h-10v-407h-187v740z" />
    <glyph glyph-name="N.sc" horiz-adv-x="715" 
d="M56 577h157l205 -219l53 -64h9v283h179v-577h-156l-199 213l-60 72h-9v-285h-179v577z" />
    <glyph glyph-name="A" unicode="A" horiz-adv-x="735" 
d="M-5 10l212 730h321l211 -730v-10h-205l-43 154h-248l-42 -154h-206v10zM446 319l-33 132l-38 140h-16l-37 -141l-34 -131h158z" />
    <glyph glyph-name="Nacute" unicode="&#x143;" horiz-adv-x="786" 
d="M290 809l63 189h215l-128 -199zM58 740h171l250 -325l52 -80h10v405h187v-740h-170l-245 320l-58 87h-10v-407h-187v740z" />
    <glyph glyph-name="Nacute.sc" horiz-adv-x="715" 
d="M56 577h157l205 -219l53 -64h9v283h179v-577h-156l-199 213l-60 72h-9v-285h-179v577zM262 634l56 160h202l-117 -169z" />
    <glyph glyph-name="Ncaron" unicode="&#x147;" horiz-adv-x="786" 
d="M191 1004l203 -76l203 76v-136l-204 -76l-202 76v136zM58 740h171l250 -325l52 -80h10v405h187v-740h-170l-245 320l-58 87h-10v-407h-187v740z" />
    <glyph glyph-name="Ncaron.sc" horiz-adv-x="715" 
d="M56 577h157l205 -219l53 -64h9v283h179v-577h-156l-199 213l-60 72h-9v-285h-179v577zM169 676v125l189 -61l190 61v-125l-191 -61z" />
    <glyph glyph-name="Ncommaaccent" unicode="&#x145;" horiz-adv-x="786" 
d="M293 -70h215l-99 -150h-156zM58 740h171l250 -325l52 -80h10v405h187v-740h-170l-245 320l-58 87h-10v-407h-187v740z" />
    <glyph glyph-name="Ncommaaccent.sc" horiz-adv-x="715" 
d="M56 577h157l205 -219l53 -64h9v283h179v-577h-156l-199 213l-60 72h-9v-285h-179v577zM262 -55h203l-92 -117h-147z" />
    <glyph glyph-name="Ndotaccent" unicode="&#x1e44;" horiz-adv-x="786" 
d="M389 796q-61 0 -86.5 26t-25.5 83t25.5 83t86.5 26q60 0 86 -26t26 -83t-26 -83t-86 -26zM58 740h171l250 -325l52 -80h10v405h187v-740h-170l-245 320l-58 87h-10v-407h-187v740z" />
    <glyph glyph-name="Ndotaccent.sc" horiz-adv-x="715" 
d="M56 577h157l205 -219l53 -64h9v283h179v-577h-156l-199 213l-60 72h-9v-285h-179v577zM355 618q-57 0 -81 23t-24 77q0 53 24 76.5t81 23.5t81 -24.5t24 -75.5q0 -52 -24 -76t-81 -24z" />
    <glyph glyph-name="Ntilde" unicode="&#xd1;" horiz-adv-x="786" 
d="M159 847q35 72 80 106.5t87 34.5q24 0 48.5 -6t48.5 -12.5t48 -12.5t49 -6q22 0 42.5 7.5t49.5 29.5l23 -29q-36 -72 -80.5 -106.5t-86.5 -34.5q-24 0 -48.5 5.5t-48.5 12.5t-48.5 12.5t-48.5 5.5q-23 0 -44 -7t-48 -29zM58 740h171l250 -325l52 -80h10v405h187v-740
h-170l-245 320l-58 87h-10v-407h-187v740z" />
    <glyph glyph-name="Ntilde.sc" horiz-adv-x="715" 
d="M140 660q32 66 74.5 97t81.5 31q22 0 44.5 -4t45 -9.5t45.5 -9.5t46 -4q20 0 39 5t45 23l21 -25q-33 -66 -75 -97t-80 -31q-23 0 -45.5 4.5t-45.5 9.5t-45.5 9.5t-45.5 4.5q-21 0 -40 -5t-44 -23zM56 577h157l205 -219l53 -64h9v283h179v-577h-156l-199 213l-60 72h-9
v-285h-179v577z" />
    <glyph glyph-name="O" unicode="O" horiz-adv-x="777" 
d="M388 -10q-178 0 -268.5 95t-90.5 284q0 190 90 285.5t269 95.5q180 0 270 -95t90 -286q0 -189 -90 -284t-270 -95zM388 162q41 0 68 9t43 32.5t22.5 63.5t6.5 102q0 61 -6.5 101.5t-23 64.5t-43.5 34t-67 10t-66.5 -10t-42.5 -34t-23 -64.5t-7 -101.5t6.5 -101
t22.5 -63.5t43 -33t67 -9.5z" />
    <glyph glyph-name="O.sc" horiz-adv-x="719" 
d="M360 -8q-165 0 -248.5 74.5t-83.5 221.5q0 148 83.5 222.5t248.5 74.5t248 -74t83 -223q0 -148 -83 -222t-248 -74zM360 153q39 0 63 5t37.5 20t18.5 41.5t5 68.5t-5.5 68.5t-19 42t-38 21t-61.5 5.5q-38 0 -62 -5.5t-37.5 -21t-19 -42t-5.5 -68.5t5 -68t18.5 -41
t38 -20.5t62.5 -5.5z" />
    <glyph glyph-name="OE" unicode="&#x152;" horiz-adv-x="1095" 
d="M397 -10q-177 0 -273 96t-96 284q0 187 96 283.5t273 96.5q37 0 66.5 -3t57.5 -7h532v-168h-317v-116h292v-163h-292v-124h326v-169h-541q-29 -6 -59 -8t-65 -2zM410 163q32 0 59 1t52 6v400q-26 3 -52.5 5t-59.5 2q-48 0 -79 -9.5t-50 -33.5t-26.5 -64t-7.5 -101
q0 -62 7.5 -101.5t26 -63t50 -32.5t80.5 -9z" />
    <glyph glyph-name="OE.sc" horiz-adv-x="1021" 
d="M367 -9q-164 0 -251.5 75.5t-87.5 222.5q0 146 87.5 221.5t251.5 75.5q35 0 62 -3t53 -6h496v-152h-293v-68h269v-137h-269v-67h301v-153h-504q-28 -5 -55.5 -7t-59.5 -2zM378 153q31 0 56 1t48 4v261q-23 2 -48 3.5t-57 1.5q-42 0 -70 -5t-44 -20t-22.5 -41.5
t-6.5 -69.5q0 -44 6.5 -70.5t22.5 -40.5t44 -19t71 -5z" />
    <glyph glyph-name="Oacute" unicode="&#xd3;" horiz-adv-x="777" 
d="M308 809l63 189h215l-128 -199zM388 -10q-178 0 -268.5 95t-90.5 284q0 190 90 285.5t269 95.5q180 0 270 -95t90 -286q0 -189 -90 -284t-270 -95zM388 162q41 0 68 9t43 32.5t22.5 63.5t6.5 102q0 61 -6.5 101.5t-23 64.5t-43.5 34t-67 10t-66.5 -10t-42.5 -34
t-23 -64.5t-7 -101.5t6.5 -101t22.5 -63.5t43 -33t67 -9.5z" />
    <glyph glyph-name="Oacute.sc" horiz-adv-x="720" 
d="M360 -8q-164 0 -247.5 74.5t-83.5 221.5q0 148 83 222.5t248 74.5t248.5 -74t83.5 -223q0 -148 -83.5 -222t-248.5 -74zM360 153q39 0 63 5t37.5 20t18.5 41.5t5 68.5t-5 68.5t-19 42t-38 21t-62 5.5t-61.5 -5.5t-37.5 -21t-19 -42t-5 -68.5t5 -68t18.5 -41t37.5 -20.5
t62 -5.5zM285 634l56 160h203l-118 -169z" />
    <glyph glyph-name="Obreve" unicode="&#x14e;" horiz-adv-x="777" 
d="M388 801q-61 0 -103.5 14t-69 39.5t-38.5 60t-12 76.5h138q0 -50 17 -72.5t68 -22.5q50 0 67 22.5t17 72.5h138q0 -42 -12 -77t-39 -60t-69 -39t-102 -14zM388 -10q-178 0 -268.5 95t-90.5 284q0 190 90 285.5t269 95.5q180 0 270 -95t90 -286q0 -189 -90 -284t-270 -95z
M388 162q41 0 68 9t43 32.5t22.5 63.5t6.5 102q0 61 -6.5 101.5t-23 64.5t-43.5 34t-67 10t-66.5 -10t-42.5 -34t-23 -64.5t-7 -101.5t6.5 -101t22.5 -63.5t43 -33t67 -9.5z" />
    <glyph glyph-name="Obreve.sc" horiz-adv-x="720" 
d="M360 -8q-164 0 -247.5 74.5t-83.5 221.5q0 148 83 222.5t248 74.5t248.5 -74t83.5 -223q0 -148 -83.5 -222t-248.5 -74zM360 153q39 0 63 5t37.5 20t18.5 41.5t5 68.5t-5 68.5t-19 42t-38 21t-62 5.5t-61.5 -5.5t-37.5 -21t-19 -42t-5 -68.5t5 -68t18.5 -41t37.5 -20.5
t62 -5.5zM359 623q-103 0 -155.5 41.5t-52.5 118.5h130q0 -42 17 -57.5t61 -15.5t60.5 15.5t16.5 57.5h130q0 -78 -51.5 -119t-155.5 -41z" />
    <glyph glyph-name="Ocircumflex" unicode="&#xd4;" horiz-adv-x="777" 
d="M388 -10q-178 0 -268.5 95t-90.5 284q0 190 90 285.5t269 95.5q180 0 270 -95t90 -286q0 -189 -90 -284t-270 -95zM388 162q41 0 68 9t43 32.5t22.5 63.5t6.5 102q0 61 -6.5 101.5t-23 64.5t-43.5 34t-67 10t-66.5 -10t-42.5 -34t-23 -64.5t-7 -101.5t6.5 -101
t22.5 -63.5t43 -33t67 -9.5zM185 928l202 76l204 -76v-136l-203 76l-203 -76v136z" />
    <glyph glyph-name="Ocircumflex.sc" horiz-adv-x="720" 
d="M360 -8q-164 0 -247.5 74.5t-83.5 221.5q0 148 83 222.5t248 74.5t248.5 -74t83.5 -223q0 -148 -83.5 -222t-248.5 -74zM360 153q39 0 63 5t37.5 20t18.5 41.5t5 68.5t-5 68.5t-19 42t-38 21t-62 5.5t-61.5 -5.5t-37.5 -21t-19 -42t-5 -68.5t5 -68t18.5 -41t37.5 -20.5
t62 -5.5zM170 738l188 62l190 -62v-125l-189 61l-189 -61v125z" />
    <glyph glyph-name="Odblgrave" unicode="&#x20c;" horiz-adv-x="777" 
d="M388 -10q-178 0 -268.5 95t-90.5 284q0 190 90 285.5t269 95.5q180 0 270 -95t90 -286q0 -189 -90 -284t-270 -95zM388 162q41 0 68 9t43 32.5t22.5 63.5t6.5 102q0 61 -6.5 101.5t-23 64.5t-43.5 34t-67 10t-66.5 -10t-42.5 -34t-23 -64.5t-7 -101.5t6.5 -101
t22.5 -63.5t43 -33t67 -9.5zM214 799l-128 199h194l62 -189zM439 799l-128 199h194l63 -189z" />
    <glyph glyph-name="Odblgrave.sc" horiz-adv-x="720" 
d="M360 -8q-164 0 -247.5 74.5t-83.5 221.5q0 148 83 222.5t248 74.5t248.5 -74t83.5 -223q0 -148 -83.5 -222t-248.5 -74zM360 153q39 0 63 5t37.5 20t18.5 41.5t5 68.5t-5 68.5t-19 42t-38 21t-62 5.5t-61.5 -5.5t-37.5 -21t-19 -42t-5 -68.5t5 -68t18.5 -41t37.5 -20.5
t62 -5.5zM194 626l-118 169h186l55 -162zM404 626l-118 169h185l56 -162z" />
    <glyph glyph-name="Odieresis" unicode="&#xd6;" horiz-adv-x="777" 
d="M238 796q-61 0 -86.5 26t-25.5 83t25.5 83t86.5 26q60 0 86 -26t26 -83t-26 -83t-86 -26zM530 796q-60 0 -85.5 26t-25.5 83t25.5 83t85.5 26q61 0 86.5 -26t25.5 -83t-25.5 -83t-86.5 -26zM388 -10q-178 0 -268.5 95t-90.5 284q0 190 90 285.5t269 95.5q180 0 270 -95
t90 -286q0 -189 -90 -284t-270 -95zM388 162q41 0 68 9t43 32.5t22.5 63.5t6.5 102q0 61 -6.5 101.5t-23 64.5t-43.5 34t-67 10t-66.5 -10t-42.5 -34t-23 -64.5t-7 -101.5t6.5 -101t22.5 -63.5t43 -33t67 -9.5z" />
    <glyph glyph-name="Odieresis.sc" horiz-adv-x="720" 
d="M360 -8q-164 0 -247.5 74.5t-83.5 221.5q0 148 83 222.5t248 74.5t248.5 -74t83.5 -223q0 -148 -83.5 -222t-248.5 -74zM360 153q39 0 63 5t37.5 20t18.5 41.5t5 68.5t-5 68.5t-19 42t-38 21t-62 5.5t-61.5 -5.5t-37.5 -21t-19 -42t-5 -68.5t5 -68t18.5 -41t37.5 -20.5
t62 -5.5zM220 616q-57 0 -81 23t-24 77t24.5 77t80.5 23t80.5 -23t24.5 -77t-24.5 -77t-80.5 -23zM490 616q-57 0 -81 23t-24 77t24 77t81 23q55 0 80 -23t25 -77t-24.5 -77t-80.5 -23z" />
    <glyph glyph-name="Odotbelow" unicode="&#x1ecc;" horiz-adv-x="777" 
d="M394 -220q-47 0 -66 19t-19 63t19 63t66 19t66 -20t19 -62q0 -43 -19 -62.5t-66 -19.5zM388 -10q-178 0 -268.5 95t-90.5 284q0 190 90 285.5t269 95.5q180 0 270 -95t90 -286q0 -189 -90 -284t-270 -95zM388 162q41 0 68 9t43 32.5t22.5 63.5t6.5 102q0 61 -6.5 101.5
t-23 64.5t-43.5 34t-67 10t-66.5 -10t-42.5 -34t-23 -64.5t-7 -101.5t6.5 -101t22.5 -63.5t43 -33t67 -9.5z" />
    <glyph glyph-name="Odotbelow.sc" horiz-adv-x="719" 
d="M360 -8q-165 0 -248.5 74.5t-83.5 221.5q0 148 83.5 222.5t248.5 74.5t248 -74t83 -223q0 -148 -83 -222t-248 -74zM360 153q37 0 61 4.5t38 19t19.5 41t5.5 70.5q0 43 -6 70t-20 42t-38 20t-60 5t-60 -5t-38 -20t-20 -42t-6 -70t5.5 -69.5t19.5 -41t38 -19.5t61 -5z
M364 -182q-43 0 -61 17.5t-18 55.5t18 55.5t61 17.5q45 0 62.5 -17.5t17.5 -55.5t-17.5 -55.5t-62.5 -17.5z" />
    <glyph glyph-name="Ograve" unicode="&#xd2;" horiz-adv-x="777" 
d="M304 799l-128 199h215l62 -189zM388 -10q-178 0 -268.5 95t-90.5 284q0 190 90 285.5t269 95.5q180 0 270 -95t90 -286q0 -189 -90 -284t-270 -95zM388 162q41 0 68 9t43 32.5t22.5 63.5t6.5 102q0 61 -6.5 101.5t-23 64.5t-43.5 34t-67 10t-66.5 -10t-42.5 -34
t-23 -64.5t-7 -101.5t6.5 -101t22.5 -63.5t43 -33t67 -9.5z" />
    <glyph glyph-name="Ograve.sc" horiz-adv-x="719" 
d="M360 -8q-165 0 -248.5 74.5t-83.5 221.5q0 148 83.5 222.5t248.5 74.5t248 -74t83 -223q0 -148 -83 -222t-248 -74zM360 153q37 0 61 4.5t38 19t19.5 41t5.5 70.5q0 43 -6 70t-20 42t-38 20t-60 5t-60 -5t-38 -20t-20 -42t-6 -70t5.5 -69.5t19.5 -41t38 -19.5t61 -5z
M278 625l-117 169h203l55 -162z" />
    <glyph glyph-name="Ohungarumlaut" unicode="&#x150;" horiz-adv-x="777" 
d="M388 -10q-178 0 -268.5 95t-90.5 284q0 190 90 285.5t269 95.5q180 0 270 -95t90 -286q0 -189 -90 -284t-270 -95zM388 162q41 0 68 9t43 32.5t22.5 63.5t6.5 102q0 61 -6.5 101.5t-23 64.5t-43.5 34t-67 10t-66.5 -10t-42.5 -34t-23 -64.5t-7 -101.5t6.5 -101
t22.5 -63.5t43 -33t67 -9.5zM193 809l63 189h194l-128 -199zM418 809l63 189h194l-128 -199z" />
    <glyph glyph-name="hungarumlaut.cap" horiz-adv-x="557" 
d="M69 809l63 189h194l-128 -199zM294 809l63 189h194l-128 -199z" />
    <glyph glyph-name="Ohungarumlaut.sc" horiz-adv-x="719" 
d="M360 -8q-165 0 -248.5 74.5t-83.5 221.5q0 148 83.5 222.5t248.5 74.5t248 -74t83 -223q0 -148 -83 -222t-248 -74zM360 153q37 0 61 4.5t38 19t19.5 41t5.5 70.5q0 43 -6 70t-20 42t-38 20t-60 5t-60 -5t-38 -20t-20 -42t-6 -70t5.5 -69.5t19.5 -41t38 -19.5t61 -5z
M175 633l55 162h186l-118 -169zM385 633l55 162h185l-117 -169z" />
    <glyph glyph-name="Oinvertedbreve" unicode="&#x20e;" horiz-adv-x="777" 
d="M388 -10q-178 0 -268.5 95t-90.5 284q0 190 90 285.5t269 95.5q180 0 270 -95t90 -286q0 -189 -90 -284t-270 -95zM388 162q41 0 68 9t43 32.5t22.5 63.5t6.5 102q0 61 -6.5 101.5t-23 64.5t-43.5 34t-67 10t-66.5 -10t-42.5 -34t-23 -64.5t-7 -101.5t6.5 -101
t22.5 -63.5t43 -33t67 -9.5zM473 811q0 49 -17 71.5t-67 22.5q-51 0 -68 -22t-17 -72h-138q0 42 12 76.5t38.5 60t69 39.5t103.5 14q60 0 102 -14t69 -39t39 -60t12 -77h-138z" />
    <glyph glyph-name="Oinvertedbreve.sc" horiz-adv-x="719" 
d="M360 -8q-165 0 -248.5 74.5t-83.5 221.5q0 148 83.5 222.5t248.5 74.5t248 -74t83 -223q0 -148 -83 -222t-248 -74zM360 153q37 0 61 4.5t38 19t19.5 41t5.5 70.5q0 43 -6 70t-20 42t-38 20t-60 5t-60 -5t-38 -20t-20 -42t-6 -70t5.5 -69.5t19.5 -41t38 -19.5t61 -5z
M437 632q0 38 -15.5 55t-62.5 17t-62 -17t-15 -55h-130q0 34 11 63.5t35.5 51t64 33.5t96.5 12t96.5 -12t64 -33t35.5 -50.5t11 -64.5h-129z" />
    <glyph glyph-name="Omacron" unicode="&#x14c;" horiz-adv-x="777" 
d="M186 976h405v-136h-405v136zM388 -10q-178 0 -268.5 95t-90.5 284q0 190 90 285.5t269 95.5q180 0 270 -95t90 -286q0 -189 -90 -284t-270 -95zM388 162q41 0 68 9t43 32.5t22.5 63.5t6.5 102q0 61 -6.5 101.5t-23 64.5t-43.5 34t-67 10t-66.5 -10t-42.5 -34t-23 -64.5
t-7 -101.5t6.5 -101t22.5 -63.5t43 -33t67 -9.5z" />
    <glyph glyph-name="Omacron.sc" horiz-adv-x="719" 
d="M360 -8q-165 0 -248.5 74.5t-83.5 221.5q0 148 83.5 222.5t248.5 74.5t248 -74t83 -223q0 -148 -83 -222t-248 -74zM360 153q37 0 61 4.5t38 19t19.5 41t5.5 70.5q0 43 -6 70t-20 42t-38 20t-60 5t-60 -5t-38 -20t-20 -42t-6 -70t5.5 -69.5t19.5 -41t38 -19.5t61 -5z
M171 781h377v-126h-377v126z" />
    <glyph glyph-name="Omega" unicode="&#x2126;" horiz-adv-x="803" 
d="M38 162l184 -15q-35 19 -66.5 47.5t-55 65.5t-37.5 81.5t-14 96.5q0 70 25 128t71.5 98.5t111.5 63t145 22.5t145 -22.5t111.5 -63t71.5 -98.5t25 -128q0 -52 -14.5 -97t-38.5 -81.5t-55.5 -65.5t-66.5 -48l186 16v-162h-323v132q21 19 41 43t35.5 58t24.5 80t9 110
q0 76 -40 119.5t-111 43.5q-69 0 -107.5 -43.5t-38.5 -119.5q0 -64 12 -113t29 -84.5t34.5 -58.5t29.5 -35v-132h-323v162z" />
    <glyph glyph-name="Oogonek" unicode="&#x1ea;" horiz-adv-x="777" 
d="M398 -215q-75 0 -115 25.5t-40 74.5q0 61 65 111q-280 39 -280 373q0 190 90 285.5t269 95.5q180 0 270 -95t90 -286q0 -319 -255 -369q-67 -26 -91.5 -47.5t-24.5 -37.5q0 -19 30 -19q16 0 41.5 4.5t46.5 10.5v-114q-24 -6 -47 -9t-49 -3zM387 162q41 0 68 9t43 32.5
t22.5 63.5t6.5 102q0 61 -6.5 101.5t-23 64.5t-43.5 34t-67 10t-66.5 -10t-42.5 -34t-23 -64.5t-7 -101.5t6.5 -101t22.5 -63.5t43 -33t67 -9.5z" />
    <glyph glyph-name="Oogonek.sc" horiz-adv-x="720" 
d="M371 -168q-70 0 -107.5 22t-37.5 61q0 22 15 44t39 38q-125 17 -188 90t-63 201q0 148 83 222.5t248 74.5t248.5 -74t83.5 -223q0 -255 -247 -290q-32 -12 -50.5 -20.5t-28 -15t-12.5 -11t-3 -6.5q0 -6 6.5 -7.5t18.5 -1.5q16 0 41.5 3t41.5 8v-106q-23 -5 -44 -7t-44 -2
zM360 153q37 0 61 4.5t38 19t19.5 41t5.5 70.5q0 43 -5.5 70t-20 42t-38.5 20t-60 5t-59.5 -5t-37.5 -20t-20 -42t-6 -70t5.5 -69.5t19.5 -41t38 -19.5t60 -5z" />
    <glyph glyph-name="Oslash" unicode="&#xd8;" horiz-adv-x="779" 
d="M98 113q-68 94 -68 256q0 190 90 285.5t269 95.5q126 0 207 -48l32 38h150l-97 -114q68 -95 68 -257q0 -189 -90 -284t-270 -95q-125 0 -205 46l-31 -36h-151zM250 369q0 -42 3 -73l222 263q-30 20 -86 20q-40 0 -66.5 -10t-42.5 -34t-23 -64.5t-7 -101.5zM389 162
q41 0 68 9t43 32.5t22.5 63.5t6.5 102q0 40 -3 73l-221 -262q28 -18 84 -18z" />
    <glyph glyph-name="Oslash.sc" horiz-adv-x="723" 
d="M92 89q-62 73 -62 199q0 148 83 222.5t248 74.5q115 0 190 -36l28 28h141l-89 -89q62 -73 62 -200q0 -148 -83.5 -222t-248.5 -74q-113 0 -188 36l-28 -28h-141zM361 153q37 0 61 4.5t38 19t19.5 41t5.5 70.5v26.5t-2 23.5l-180 -180q12 -3 26.5 -4t31.5 -1zM238 288v-27
t2 -23l180 180q-22 7 -59 7q-36 0 -59.5 -5t-37.5 -20t-20 -42t-6 -70z" />
    <glyph glyph-name="Oslashacute" unicode="&#x1fe;" horiz-adv-x="779" 
d="M98 113q-68 94 -68 256q0 190 90 285.5t269 95.5q126 0 207 -48l32 38h150l-97 -114q68 -95 68 -257q0 -189 -90 -284t-270 -95q-125 0 -205 46l-31 -36h-151zM250 369q0 -42 3 -73l222 263q-30 20 -86 20q-40 0 -66.5 -10t-42.5 -34t-23 -64.5t-7 -101.5zM389 162
q41 0 68 9t43 32.5t22.5 63.5t6.5 102q0 40 -3 73l-221 -262q28 -18 84 -18zM306 809l63 189h215l-128 -199z" />
    <glyph glyph-name="Oslashacute.sc" horiz-adv-x="722" 
d="M92 89q-63 72 -63 199q0 148 83.5 222.5t248.5 74.5q114 0 189 -36l29 28h140l-89 -89q63 -72 63 -200q0 -148 -83.5 -222t-248.5 -74q-114 0 -189 36l-27 -28h-141zM361 153q37 0 61 4.5t38 19t19.5 41t5.5 70.5q0 29 -3 50l-179 -180q11 -3 25.5 -4t32.5 -1zM282 634
l56 160h202l-116 -169zM237 288q0 -15 0.5 -27t1.5 -23l181 180q-22 7 -59 7q-36 0 -60 -5t-38 -20t-20 -42t-6 -70z" />
    <glyph glyph-name="Otilde" unicode="&#xd5;" horiz-adv-x="777" 
d="M159 847q35 72 80 106.5t87 34.5q24 0 48.5 -6t48.5 -12.5t48 -12.5t49 -6q22 0 42.5 7.5t49.5 29.5l23 -29q-36 -72 -80.5 -106.5t-86.5 -34.5q-24 0 -48.5 5.5t-48.5 12.5t-48.5 12.5t-48.5 5.5q-23 0 -44 -7t-48 -29zM388 -10q-178 0 -268.5 95t-90.5 284
q0 190 90 285.5t269 95.5q180 0 270 -95t90 -286q0 -189 -90 -284t-270 -95zM388 162q41 0 68 9t43 32.5t22.5 63.5t6.5 102q0 61 -6.5 101.5t-23 64.5t-43.5 34t-67 10t-66.5 -10t-42.5 -34t-23 -64.5t-7 -101.5t6.5 -101t22.5 -63.5t43 -33t67 -9.5z" />
    <glyph glyph-name="Otilde.sc" horiz-adv-x="719" 
d="M360 -8q-165 0 -248.5 74.5t-83.5 221.5q0 148 83.5 222.5t248.5 74.5t248 -74t83 -223q0 -148 -83 -222t-248 -74zM360 153q37 0 61 4.5t38 19t19.5 41t5.5 70.5q0 43 -6 70t-20 42t-38 20t-60 5t-60 -5t-38 -20t-20 -42t-6 -70t5.5 -69.5t19.5 -41t38 -19.5t61 -5z
M145 660q32 66 74.5 97t81.5 31q22 0 45 -4t45.5 -9.5t45 -9.5t45.5 -4q20 0 39.5 5t45.5 23l21 -25q-34 -66 -76 -97t-80 -31q-23 0 -45.5 4.5t-45 9.5t-45 9.5t-45.5 4.5q-21 0 -40 -5t-45 -23z" />
    <glyph glyph-name="P" unicode="P" horiz-adv-x="692" 
d="M58 735q118 15 230 15q103 0 176.5 -15.5t120.5 -48.5t69.5 -85t22.5 -124q0 -139 -93.5 -205t-286.5 -66h-24v-206h-215v735zM329 372q37 0 62 5t39.5 17t20.5 32t6 51q0 30 -5 50.5t-19 32.5t-38.5 17t-62.5 5q-14 0 -32.5 -1t-26.5 -2v-203q12 -2 27 -3t29 -1z" />
    <glyph glyph-name="P.sc" horiz-adv-x="646" 
d="M56 573q111 12 214 12q95 0 163 -12.5t111.5 -39t64 -67.5t20.5 -99q0 -109 -86 -160.5t-265 -51.5h-19v-155h-203v573zM317 301q32 0 53.5 3t34 10.5t17.5 20t5 32.5q0 19 -4.5 32t-17.5 20.5t-35 10.5t-56 3q-11 0 -25.5 -0.5t-29.5 -1.5v-127q27 -3 58 -3z" />
    <glyph glyph-name="Q" unicode="Q" horiz-adv-x="776" 
d="M671 -171q-186 51 -310 102.5t-198 113.5t-104.5 140.5t-30.5 183.5q0 188 92 284.5t268 96.5q177 0 269 -96.5t92 -284.5q0 -143 -71.5 -225t-203.5 -90v-15q54 -11 89 -18t63.5 -11.5t56 -7t64.5 -5.5zM388 159q41 0 68.5 10t44 34t23.5 64.5t7 101.5t-7 101.5
t-23.5 65t-44 35t-68.5 10.5q-40 0 -67.5 -10.5t-44 -35t-23.5 -65.5t-7 -101t7 -100.5t23.5 -64.5t43.5 -34.5t68 -10.5z" />
    <glyph glyph-name="Q.sc" horiz-adv-x="720" 
d="M623 -151q-170 43 -284.5 86.5t-183.5 94.5t-98 114t-29 144q0 145 86 221t247 76q162 0 247 -75.5t85 -221.5q0 -106 -60.5 -162.5t-192.5 -72.5v-12q52 -9 85.5 -14.5t59 -9t48.5 -5.5t55 -4zM361 151q38 0 62.5 6t38.5 21t19.5 41.5t5.5 68.5t-6 69t-20.5 42.5
t-38.5 21.5t-61 6t-61.5 -6.5t-39 -22t-20.5 -42.5t-6 -68t6 -67.5t20 -42t38.5 -21.5t62.5 -6z" />
    <glyph glyph-name="R" unicode="R" horiz-adv-x="707" 
d="M357 234q-12 -1 -24.5 -1h-25.5h-34v-233h-215v735q114 15 230 15q102 0 176 -15t121 -46.5t69.5 -80.5t22.5 -118q0 -157 -134 -217l167 -273h-235zM329 396q37 0 62 4.5t39.5 15t20.5 28.5t6 45t-5.5 45t-20 28.5t-38.5 15t-61 4.5q-11 0 -29.5 -1t-29.5 -2v-179
q16 -4 56 -4z" />
    <glyph glyph-name="R.sc" horiz-adv-x="664" 
d="M336 174q-7 0 -19 -0.5t-18 -0.5q-9 0 -19.5 0.5t-20.5 0.5v-174h-203v573q109 12 214 12q95 0 163 -12t111.5 -37t64 -65t20.5 -95q0 -117 -112 -168l144 -208h-223zM309 315q36 0 59 2.5t36.5 9t19 18t5.5 29.5q0 19 -5.5 30.5t-18.5 18.5t-35.5 9.5t-56.5 2.5
q-10 0 -27.5 -0.5t-26.5 -1.5v-117h8.5t15.5 -0.5t15.5 -0.5h10.5z" />
    <glyph glyph-name="Racute" unicode="&#x154;" horiz-adv-x="707" 
d="M357 234q-12 -1 -24.5 -1h-25.5h-34v-233h-215v735q114 15 230 15q102 0 176 -15t121 -46.5t69.5 -80.5t22.5 -118q0 -157 -134 -217l167 -273h-235zM329 396q37 0 62 4.5t39.5 15t20.5 28.5t6 45t-5.5 45t-20 28.5t-38.5 15t-61 4.5q-11 0 -29.5 -1t-29.5 -2v-179
q16 -4 56 -4zM266 809l63 189h215l-128 -199z" />
    <glyph glyph-name="Racute.sc" horiz-adv-x="664" 
d="M56 573q109 12 214 12q95 0 163 -12t111.5 -37t64 -65t20.5 -95q0 -117 -112 -168l144 -208h-223l-102 174q-7 0 -19 -0.5t-18 -0.5q-9 0 -19.5 0.5t-20.5 0.5v-174h-203v573zM309 315q36 0 59 2.5t36.5 9t19 18t5.5 29.5q0 19 -5.5 30.5t-18.5 18.5t-35.5 9.5t-56.5 2.5
q-10 0 -27.5 -0.5t-26.5 -1.5v-117q8 0 24 -0.5t26 -0.5zM247 634l56 160h203l-117 -169z" />
    <glyph glyph-name="Rcaron" unicode="&#x158;" horiz-adv-x="707" 
d="M153 1004l203 -76l203 76v-136l-204 -76l-202 76v136zM357 234q-12 -1 -24.5 -1h-25.5h-34v-233h-215v735q114 15 230 15q102 0 176 -15t121 -46.5t69.5 -80.5t22.5 -118q0 -157 -134 -217l167 -273h-235zM329 396q37 0 62 4.5t39.5 15t20.5 28.5t6 45t-5.5 45t-20 28.5
t-38.5 15t-61 4.5q-11 0 -29.5 -1t-29.5 -2v-179q16 -4 56 -4z" />
    <glyph glyph-name="Rcaron.sc" horiz-adv-x="664" 
d="M56 573q109 12 214 12q95 0 163 -12t111.5 -37t64 -65t20.5 -95q0 -117 -112 -168l144 -208h-223l-102 174q-7 0 -19 -0.5t-18 -0.5q-9 0 -19.5 0.5t-20.5 0.5v-174h-203v573zM309 315q36 0 59 2.5t36.5 9t19 18t5.5 29.5q0 19 -5.5 30.5t-18.5 18.5t-35.5 9.5t-56.5 2.5
q-10 0 -27.5 -0.5t-26.5 -1.5v-117q8 0 24 -0.5t26 -0.5zM141 676v125l190 -61l189 61v-125l-190 -61z" />
    <glyph glyph-name="Rcommaaccent" unicode="&#x156;" horiz-adv-x="707" 
d="M259 -70h215l-99 -150h-156zM357 234q-12 -1 -24.5 -1h-25.5h-34v-233h-215v735q114 15 230 15q102 0 176 -15t121 -46.5t69.5 -80.5t22.5 -118q0 -157 -134 -217l167 -273h-235zM329 396q37 0 62 4.5t39.5 15t20.5 28.5t6 45t-5.5 45t-20 28.5t-38.5 15t-61 4.5
q-11 0 -29.5 -1t-29.5 -2v-179q16 -4 56 -4z" />
    <glyph glyph-name="Rcommaaccent.sc" horiz-adv-x="664" 
d="M336 174q-7 0 -19 -0.5t-18 -0.5q-9 0 -19.5 0.5t-20.5 0.5v-174h-203v573q109 12 214 12q95 0 163 -12t111.5 -37t64 -65t20.5 -95q0 -117 -112 -168l144 -208h-223zM240 -55h203l-92 -117h-147zM309 315q36 0 59 2.5t36.5 9t19 18t5.5 29.5q0 19 -5.5 30.5t-18.5 18.5
t-35.5 9.5t-56.5 2.5q-10 0 -27.5 -0.5t-26.5 -1.5v-117h8.5t15.5 -0.5t15.5 -0.5h10.5z" />
    <glyph glyph-name="Rdblgrave" unicode="&#x210;" horiz-adv-x="707" 
d="M357 234q-12 -1 -24.5 -1h-25.5h-34v-233h-215v735q114 15 230 15q102 0 176 -15t121 -46.5t69.5 -80.5t22.5 -118q0 -157 -134 -217l167 -273h-235zM329 396q37 0 62 4.5t39.5 15t20.5 28.5t6 45t-5.5 45t-20 28.5t-38.5 15t-61 4.5q-11 0 -29.5 -1t-29.5 -2v-179
q16 -4 56 -4zM182 799l-128 199h194l62 -189zM407 799l-128 199h194l63 -189z" />
    <glyph glyph-name="Rdblgrave.sc" horiz-adv-x="664" 
d="M56 573q109 12 214 12q95 0 163 -12t111.5 -37t64 -65t20.5 -95q0 -117 -112 -168l144 -208h-223l-102 174q-7 0 -19 -0.5t-18 -0.5q-9 0 -19.5 0.5t-20.5 0.5v-174h-203v573zM309 315q36 0 59 2.5t36.5 9t19 18t5.5 29.5q0 19 -5.5 30.5t-18.5 18.5t-35.5 9.5t-56.5 2.5
q-10 0 -27.5 -0.5t-26.5 -1.5v-117q8 0 24 -0.5t26 -0.5zM58 795h185l56 -162l-123 -7zM268 795h185l56 -162l-123 -7z" />
    <glyph glyph-name="Rdotbelow" unicode="&#x1e5a;" horiz-adv-x="707" 
d="M357 234q-12 -1 -24.5 -1h-25.5h-34v-233h-215v735q114 15 230 15q102 0 176 -15t121 -46.5t69.5 -80.5t22.5 -118q0 -157 -134 -217l167 -273h-235zM329 396q37 0 62 4.5t39.5 15t20.5 28.5t6 45t-5.5 45t-20 28.5t-38.5 15t-61 4.5q-11 0 -29.5 -1t-29.5 -2v-179
q16 -4 56 -4zM349 -220q-47 0 -66 19t-19 63t19 63t66 19t66 -20t19 -62q0 -43 -19 -62.5t-66 -19.5z" />
    <glyph glyph-name="Rdotbelow.sc" horiz-adv-x="664" 
d="M56 573q109 12 214 12q95 0 163 -12t111.5 -37t64 -65t20.5 -95q0 -117 -112 -168l144 -208h-223l-102 174q-7 0 -19 -0.5t-18 -0.5q-9 0 -19.5 0.5t-20.5 0.5v-174h-203v573zM309 315q36 0 59 2.5t36.5 9t19 18t5.5 29.5q0 19 -5.5 30.5t-18.5 18.5t-35.5 9.5t-56.5 2.5
q-10 0 -27.5 -0.5t-26.5 -1.5v-117q8 0 24 -0.5t26 -0.5zM324 -182q-44 0 -61.5 17.5t-17.5 55.5t17.5 55.5t61.5 17.5t61.5 -17.5t17.5 -55.5t-17.5 -55.5t-61.5 -17.5z" />
    <glyph glyph-name="Rinvertedbreve" unicode="&#x212;" horiz-adv-x="707" 
d="M357 234q-12 -1 -24.5 -1h-25.5h-34v-233h-215v735q114 15 230 15q102 0 176 -15t121 -46.5t69.5 -80.5t22.5 -118q0 -157 -134 -217l167 -273h-235zM329 396q37 0 62 4.5t39.5 15t20.5 28.5t6 45t-5.5 45t-20 28.5t-38.5 15t-61 4.5q-11 0 -29.5 -1t-29.5 -2v-179
q16 -4 56 -4zM437 811q0 49 -17 71.5t-67 22.5q-51 0 -68 -22t-17 -72h-138q0 42 12 76.5t38.5 60t69 39.5t103.5 14q60 0 102 -14t69 -39t39 -60t12 -77h-138z" />
    <glyph glyph-name="Rinvertedbreve.sc" horiz-adv-x="664" 
d="M56 573q109 12 214 12q95 0 163 -12t111.5 -37t64 -65t20.5 -95q0 -117 -112 -168l144 -208h-223l-102 174q-7 0 -19 -0.5t-18 -0.5q-9 0 -19.5 0.5t-20.5 0.5v-174h-203v573zM122 632q0 34 11 63.5t35.5 51t64 33.5t96.5 12t96 -12t64 -33t36 -50.5t11 -64.5h-130
q0 38 -15 55t-62 17q-48 0 -63 -17t-15 -55h-129zM309 315q36 0 59 2.5t36.5 9t19 18t5.5 29.5q0 19 -5.5 30.5t-18.5 18.5t-35.5 9.5t-56.5 2.5q-10 0 -27.5 -0.5t-26.5 -1.5v-117q8 0 24 -0.5t26 -0.5z" />
    <glyph glyph-name="S" unicode="S" horiz-adv-x="622" 
d="M302 -12q-60 0 -131 9t-138 26v174q66 -18 128.5 -28t113.5 -10q57 0 81 12.5t24 41.5q0 33 -29 46t-84 23q-52 9 -94 25.5t-72 44.5t-46.5 70.5t-16.5 103.5q0 106 78.5 165t218.5 59q25 0 49.5 -1.5t51.5 -5t58 -9.5t69 -14v-170q-23 7 -50 12.5t-54.5 10t-53.5 7
t-47 2.5q-98 0 -98 -52q0 -36 34 -53t94 -30q51 -11 91 -28t67 -43t41.5 -62t14.5 -86q0 -117 -76.5 -178.5t-223.5 -61.5z" />
    <glyph glyph-name="S.sc" horiz-adv-x="585" 
d="M285 -10q-56 0 -122.5 7t-127.5 21v163q60 -14 117.5 -22.5t108.5 -8.5q92 0 92 28q0 19 -24.5 24.5t-74.5 12.5q-112 13 -163 55.5t-51 123.5q0 92 71 141t204 49q46 0 94 -6t119 -19v-157q-23 6 -48 10.5t-50.5 7.5t-49.5 5t-43 2q-48 0 -67.5 -6t-19.5 -20
q0 -20 30 -29t80 -17q105 -15 154 -55.5t49 -112.5q0 -97 -70 -147t-208 -50z" />
    <glyph glyph-name="Sacute" unicode="&#x15a;" horiz-adv-x="622" 
d="M302 -12q-60 0 -131 9t-138 26v174q66 -18 128.5 -28t113.5 -10q57 0 81 12.5t24 41.5q0 33 -29 46t-84 23q-52 9 -94 25.5t-72 44.5t-46.5 70.5t-16.5 103.5q0 106 78.5 165t218.5 59q25 0 49.5 -1.5t51.5 -5t58 -9.5t69 -14v-170q-23 7 -50 12.5t-54.5 10t-53.5 7
t-47 2.5q-98 0 -98 -52q0 -36 34 -53t94 -30q51 -11 91 -28t67 -43t41.5 -62t14.5 -86q0 -117 -76.5 -178.5t-223.5 -61.5zM226 809l63 189h215l-128 -199z" />
    <glyph glyph-name="Sacute.sc" horiz-adv-x="585" 
d="M285 -10q-56 0 -122.5 7t-127.5 21v163q60 -14 117.5 -22.5t108.5 -8.5q92 0 92 28q0 19 -24.5 24.5t-74.5 12.5q-112 13 -163 55.5t-51 123.5q0 92 71 141t204 49q46 0 94 -6t119 -19v-157q-23 6 -48 10.5t-50.5 7.5t-49.5 5t-43 2q-48 0 -67.5 -6t-19.5 -20
q0 -20 30 -29t80 -17q105 -15 154 -55.5t49 -112.5q0 -97 -70 -147t-208 -50zM213 634l56 160h202l-117 -169z" />
    <glyph glyph-name="Scaron" unicode="&#x160;" horiz-adv-x="622" 
d="M302 -12q-60 0 -131 9t-138 26v174q66 -18 128.5 -28t113.5 -10q57 0 81 12.5t24 41.5q0 33 -29 46t-84 23q-52 9 -94 25.5t-72 44.5t-46.5 70.5t-16.5 103.5q0 106 78.5 165t218.5 59q25 0 49.5 -1.5t51.5 -5t58 -9.5t69 -14v-170q-23 7 -50 12.5t-54.5 10t-53.5 7
t-47 2.5q-98 0 -98 -52q0 -36 34 -53t94 -30q51 -11 91 -28t67 -43t41.5 -62t14.5 -86q0 -117 -76.5 -178.5t-223.5 -61.5zM116 1004l203 -76l203 76v-136l-204 -76l-202 76v136z" />
    <glyph glyph-name="Scaron.sc" horiz-adv-x="585" 
d="M285 -10q-56 0 -122.5 7t-127.5 21v163q60 -14 117.5 -22.5t108.5 -8.5q92 0 92 28q0 19 -24.5 24.5t-74.5 12.5q-112 13 -163 55.5t-51 123.5q0 92 71 141t204 49q46 0 94 -6t119 -19v-157q-23 6 -48 10.5t-50.5 7.5t-49.5 5t-43 2q-48 0 -67.5 -6t-19.5 -20
q0 -20 30 -29t80 -17q105 -15 154 -55.5t49 -112.5q0 -97 -70 -147t-208 -50zM110 801l189 -61l189 61v-125l-190 -61l-188 61v125z" />
    <glyph glyph-name="Schwa" unicode="&#x18f;" horiz-adv-x="729" 
d="M26 329q0 25 1.5 49t5.5 59h455q-3 43 -13 68.5t-30 39.5t-51.5 18.5t-77.5 4.5q-51 0 -113.5 -6t-137.5 -23l-9 169q32 10 68.5 18t74 13t73.5 8t67 3q361 0 361 -375q0 -185 -89 -285t-270 -100q-78 0 -136.5 19t-98.5 60t-60 105.5t-20 154.5zM349 156q37 0 62.5 6
t41.5 21.5t24 42.5t11 69h-258q0 -42 4 -68.5t16.5 -42.5t36 -22t62.5 -6z" />
    <glyph glyph-name="Schwa.sc" horiz-adv-x="663" 
d="M28 252q0 50 10 96h381q-4 24 -12.5 38t-25 21.5t-42 10t-64.5 2.5q-27 0 -56 -1.5t-57.5 -4t-55 -6.5t-48.5 -9q0 9 -1 31t-1.5 46t-1.5 46t-2 31q54 14 116.5 23t127.5 9q339 0 339 -296q0 -144 -82.5 -221t-249.5 -77q-137 0 -206 63t-69 198zM315 146q27 0 46 3.5
t31.5 13.5t19 26t9.5 42h-197q0 -26 4.5 -42.5t15 -26t28 -13t43.5 -3.5z" />
    <glyph glyph-name="Scircumflex" unicode="&#x15c;" horiz-adv-x="622" 
d="M302 -12q-60 0 -131 9t-138 26v174q66 -18 128.5 -28t113.5 -10q57 0 81 12.5t24 41.5q0 33 -29 46t-84 23q-52 9 -94 25.5t-72 44.5t-46.5 70.5t-16.5 103.5q0 106 78.5 165t218.5 59q25 0 49.5 -1.5t51.5 -5t58 -9.5t69 -14v-170q-23 7 -50 12.5t-54.5 10t-53.5 7
t-47 2.5q-98 0 -98 -52q0 -36 34 -53t94 -30q51 -11 91 -28t67 -43t41.5 -62t14.5 -86q0 -117 -76.5 -178.5t-223.5 -61.5zM114 928l202 76l204 -76v-136l-203 76l-203 -76v136z" />
    <glyph glyph-name="Scircumflex.sc" horiz-adv-x="585" 
d="M285 -10q-56 0 -122.5 7t-127.5 21v163q60 -14 117.5 -22.5t108.5 -8.5q92 0 92 28q0 19 -24.5 24.5t-74.5 12.5q-112 13 -163 55.5t-51 123.5q0 92 71 141t204 49q46 0 94 -6t119 -19v-157q-23 6 -48 10.5t-50.5 7.5t-49.5 5t-43 2q-48 0 -67.5 -6t-19.5 -20
q0 -20 30 -29t80 -17q105 -15 154 -55.5t49 -112.5q0 -97 -70 -147t-208 -50zM109 738l188 62l191 -62v-125l-189 61l-190 -61v125z" />
    <glyph glyph-name="Sdotbelow" unicode="&#x1e62;" horiz-adv-x="622" 
d="M302 -12q-60 0 -131 9t-138 26v174q66 -18 128.5 -28t113.5 -10q57 0 81 12.5t24 41.5q0 33 -29 46t-84 23q-52 9 -94 25.5t-72 44.5t-46.5 70.5t-16.5 103.5q0 106 78.5 165t218.5 59q25 0 49.5 -1.5t51.5 -5t58 -9.5t69 -14v-170q-23 7 -50 12.5t-54.5 10t-53.5 7
t-47 2.5q-98 0 -98 -52q0 -36 34 -53t94 -30q51 -11 91 -28t67 -43t41.5 -62t14.5 -86q0 -117 -76.5 -178.5t-223.5 -61.5zM316 -220q-47 0 -66 19t-19 63t19 63t66 19t66 -20t19 -62q0 -43 -19 -62.5t-66 -19.5z" />
    <glyph glyph-name="Sdotbelow.sc" horiz-adv-x="585" 
d="M285 -10q-56 0 -122.5 7t-127.5 21v163q60 -14 117.5 -22.5t108.5 -8.5q92 0 92 28q0 19 -24.5 24.5t-74.5 12.5q-112 13 -163 55.5t-51 123.5q0 92 71 141t204 49q46 0 94 -6t119 -19v-157q-23 6 -48 10.5t-50.5 7.5t-49.5 5t-43 2q-48 0 -67.5 -6t-19.5 -20
q0 -20 30 -29t80 -17q105 -15 154 -55.5t49 -112.5q0 -97 -70 -147t-208 -50zM298 -182q-43 0 -61 17.5t-18 55.5t18 55.5t61 17.5q45 0 62.5 -17.5t17.5 -55.5t-17.5 -55.5t-62.5 -17.5z" />
    <glyph glyph-name="T" unicode="T" horiz-adv-x="630" 
d="M207 569h-188v171h592v-171h-189v-569h-215v569z" />
    <glyph glyph-name="Tbar" unicode="&#x166;" horiz-adv-x="639" 
d="M77 425h134v144h-188v171h592v-171h-189v-144h136v-117h-136v-308h-215v308h-134v117z" />
    <glyph glyph-name="Tbar.sc" horiz-adv-x="594" 
d="M71 335h124v84h-170v158h544v-158h-171v-84h125v-108h-125v-227h-203v227h-124v108z" />
    <glyph glyph-name="Tcaron" unicode="&#x164;" horiz-adv-x="630" 
d="M115 1004l203 -76l203 76v-136l-204 -76l-202 76v136zM207 569h-188v171h592v-171h-189v-569h-215v569z" />
    <glyph glyph-name="Tcaron.sc" horiz-adv-x="588" 
d="M192 419h-170v158h544v-158h-171v-419h-203v419zM106 801l190 -61l189 61v-125l-190 -61l-189 61v125z" />
    <glyph glyph-name="Tdotbelow" unicode="&#x1e6c;" horiz-adv-x="630" 
d="M316 -220q-47 0 -66 19t-19 63t19 63t66 19t66 -20t19 -62q0 -43 -19 -62.5t-66 -19.5zM207 569h-188v171h592v-171h-189v-569h-215v569z" />
    <glyph glyph-name="Tdotbelow.sc" horiz-adv-x="588" 
d="M192 419h-170v158h544v-158h-171v-419h-203v419zM295 -182q-44 0 -62 17.5t-18 55.5t18 55.5t62 17.5t61.5 -17.5t17.5 -55.5t-17.5 -55.5t-61.5 -17.5z" />
    <glyph glyph-name="Thorn" unicode="&#xde;" horiz-adv-x="695" 
d="M58 740h215v-110h22q101 0 173.5 -15t119 -47.5t68.5 -82.5t22 -119q0 -68 -21.5 -117.5t-67.5 -81t-116.5 -46.5t-169.5 -15h-30v-106h-215v740zM320 279q44 0 71.5 3t42.5 12.5t20.5 26.5t5.5 45t-5.5 45.5t-21 27.5t-43.5 13t-73 3h-44v-176h47z" />
    <glyph glyph-name="Thorn.sc" horiz-adv-x="647" 
d="M56 577h203v-74h11q95 0 163 -12.5t111.5 -38.5t64 -67t20.5 -99q0 -109 -86 -160t-265 -51h-19v-75h-203v577zM314 223q32 0 53 3t33 10t17 19t5 31t-4.5 31t-16.5 19t-34 10t-56 3h-22t-30 -1v-123q15 -1 27.5 -1.5t27.5 -0.5z" />
    <glyph glyph-name="U" unicode="U" horiz-adv-x="777" 
d="M389 -10q-96 0 -160.5 19.5t-104 58t-56.5 96.5t-17 136v441h215v-442q0 -68 28.5 -101.5t94.5 -33.5t94 33t28 102v442h215v-441q0 -78 -17 -136t-56.5 -97t-104 -58t-159.5 -19z" />
    <glyph glyph-name="U.sc" horiz-adv-x="724" 
d="M362 -8q-85 0 -144.5 14.5t-96.5 45t-54 76.5t-17 109v342h203v-345q0 -43 28 -61t81 -18q54 0 81.5 17.5t27.5 61.5v345h203v-342q0 -63 -17 -109.5t-54 -76.5t-96.5 -44.5t-144.5 -14.5z" />
    <glyph glyph-name="Uacute" unicode="&#xda;" horiz-adv-x="777" 
d="M292 809l63 189h215l-128 -199zM389 -10q-96 0 -160.5 19.5t-104 58t-56.5 96.5t-17 136v441h215v-442q0 -68 28.5 -101.5t94.5 -33.5t94 33t28 102v442h215v-441q0 -78 -17 -136t-56.5 -97t-104 -58t-159.5 -19z" />
    <glyph glyph-name="Uacute.sc" horiz-adv-x="724" 
d="M362 -8q-89 0 -149 15.5t-96 46.5t-51.5 77t-15.5 106v342h203v-345q0 -37 25 -58t84 -21q60 0 84.5 20.5t24.5 58.5v345h203v-342q0 -61 -15.5 -107t-51.5 -76.5t-96 -46t-149 -15.5zM271 634l56 160h202l-117 -169z" />
    <glyph glyph-name="Ubreve" unicode="&#x16c;" horiz-adv-x="777" 
d="M385 801q-61 0 -103.5 14t-69 39.5t-38.5 60t-12 76.5h138q0 -50 17 -72.5t68 -22.5q50 0 67 22.5t17 72.5h138q0 -42 -12 -77t-39 -60t-69 -39t-102 -14zM389 -10q-96 0 -160.5 19.5t-104 58t-56.5 96.5t-17 136v441h215v-442q0 -68 28.5 -101.5t94.5 -33.5t94 33
t28 102v442h215v-441q0 -78 -17 -136t-56.5 -97t-104 -58t-159.5 -19z" />
    <glyph glyph-name="Ubreve.sc" horiz-adv-x="724" 
d="M362 -8q-89 0 -149 15.5t-96 46.5t-51.5 77t-15.5 106v342h203v-345q0 -37 25 -58t84 -21q60 0 84.5 20.5t24.5 58.5v345h203v-342q0 -61 -15.5 -107t-51.5 -76.5t-96 -46t-149 -15.5zM358 623q-57 0 -96.5 12t-64 33.5t-35.5 50.5t-11 64h130q0 -39 15 -56t62 -17t62 17
t15 56h131q0 -35 -11 -64.5t-36 -50.5t-64.5 -33t-96.5 -12z" />
    <glyph glyph-name="Ucircumflex" unicode="&#xdb;" horiz-adv-x="777" 
d="M389 -10q-96 0 -160.5 19.5t-104 58t-56.5 96.5t-17 136v441h215v-442q0 -68 28.5 -101.5t94.5 -33.5t94 33t28 102v442h215v-441q0 -78 -17 -136t-56.5 -97t-104 -58t-159.5 -19zM180 928l202 76l204 -76v-136l-203 76l-203 -76v136z" />
    <glyph glyph-name="Ucircumflex.sc" horiz-adv-x="724" 
d="M362 -8q-89 0 -149 15.5t-96 46.5t-51.5 77t-15.5 106v342h203v-345q0 -37 25 -58t84 -21q60 0 84.5 20.5t24.5 58.5v345h203v-342q0 -61 -15.5 -107t-51.5 -76.5t-96 -46t-149 -15.5zM168 738l188 62l190 -62v-125l-189 61l-189 -61v125z" />
    <glyph glyph-name="Udblgrave" unicode="&#x214;" horiz-adv-x="777" 
d="M389 -10q-96 0 -160.5 19.5t-104 58t-56.5 96.5t-17 136v441h215v-442q0 -68 28.5 -101.5t94.5 -33.5t94 33t28 102v442h215v-441q0 -78 -17 -136t-56.5 -97t-104 -58t-159.5 -19zM211 799l-128 199h194l62 -189zM436 799l-128 199h194l63 -189z" />
    <glyph glyph-name="Udblgrave.sc" horiz-adv-x="724" 
d="M362 -8q-89 0 -149 15.5t-96 46.5t-51.5 77t-15.5 106v342h203v-345q0 -37 25 -58t84 -21q60 0 84.5 20.5t24.5 58.5v345h203v-342q0 -61 -15.5 -107t-51.5 -76.5t-96 -46t-149 -15.5zM194 626l-118 169h185l56 -162zM404 626l-118 169h185l56 -162z" />
    <glyph glyph-name="Udieresis" unicode="&#xdc;" horiz-adv-x="777" 
d="M237 796q-61 0 -86.5 26t-25.5 83t25.5 83t86.5 26q60 0 86 -26t26 -83t-26 -83t-86 -26zM529 796q-60 0 -85.5 26t-25.5 83t25.5 83t85.5 26q61 0 86.5 -26t25.5 -83t-25.5 -83t-86.5 -26zM389 -10q-96 0 -160.5 19.5t-104 58t-56.5 96.5t-17 136v441h215v-442
q0 -68 28.5 -101.5t94.5 -33.5t94 33t28 102v442h215v-441q0 -78 -17 -136t-56.5 -97t-104 -58t-159.5 -19z" />
    <glyph glyph-name="Udieresis.sc" horiz-adv-x="724" 
d="M362 -8q-89 0 -149 15.5t-96 46.5t-51.5 77t-15.5 106v342h203v-345q0 -37 25 -58t84 -21q60 0 84.5 20.5t24.5 58.5v345h203v-342q0 -61 -15.5 -107t-51.5 -76.5t-96 -46t-149 -15.5zM223 616q-57 0 -81.5 23.5t-24.5 76.5t24.5 76.5t81.5 23.5t81 -24.5t24 -75.5
q0 -52 -24 -76t-81 -24zM492 616q-57 0 -81 23.5t-24 76.5t24 76.5t81 23.5t81 -24.5t24 -75.5q0 -52 -24 -76t-81 -24z" />
    <glyph glyph-name="Udotbelow" unicode="&#x1ee4;" horiz-adv-x="777" 
d="M389 -10q-96 0 -160.5 19.5t-104 58t-56.5 96.5t-17 136v441h215v-442q0 -68 28.5 -101.5t94.5 -33.5t94 33t28 102v442h215v-441q0 -78 -17 -136t-56.5 -97t-104 -58t-159.5 -19zM386 -220q-47 0 -66 19t-19 63t19 63t66 19t66 -20t19 -62q0 -43 -19 -62.5t-66 -19.5z
" />
    <glyph glyph-name="Udotbelow.sc" horiz-adv-x="724" 
d="M362 -8q-89 0 -149 15.5t-96 46.5t-51.5 77t-15.5 106v342h203v-345q0 -37 25 -58t84 -21q60 0 84.5 20.5t24.5 58.5v345h203v-342q0 -61 -15.5 -107t-51.5 -76.5t-96 -46t-149 -15.5zM359 -182q-44 0 -62 17.5t-18 55.5t18 55.5t62 17.5t61.5 -17.5t17.5 -55.5
t-17.5 -55.5t-61.5 -17.5z" />
    <glyph glyph-name="Ugrave" unicode="&#xd9;" horiz-adv-x="777" 
d="M306 799l-128 199h215l62 -189zM389 -10q-96 0 -160.5 19.5t-104 58t-56.5 96.5t-17 136v441h215v-442q0 -68 28.5 -101.5t94.5 -33.5t94 33t28 102v442h215v-441q0 -78 -17 -136t-56.5 -97t-104 -58t-159.5 -19z" />
    <glyph glyph-name="Ugrave.sc" horiz-adv-x="724" 
d="M362 -8q-89 0 -149 15.5t-96 46.5t-51.5 77t-15.5 106v342h203v-345q0 -37 25 -58t84 -21q60 0 84.5 20.5t24.5 58.5v345h203v-342q0 -61 -15.5 -107t-51.5 -76.5t-96 -46t-149 -15.5zM284 625l-118 169h203l56 -162z" />
    <glyph glyph-name="Uhungarumlaut" unicode="&#x170;" horiz-adv-x="777" 
d="M389 -10q-96 0 -160.5 19.5t-104 58t-56.5 96.5t-17 136v441h215v-442q0 -68 28.5 -101.5t94.5 -33.5t94 33t28 102v442h215v-441q0 -78 -17 -136t-56.5 -97t-104 -58t-159.5 -19zM198 809l63 189h194l-128 -199zM423 809l63 189h194l-128 -199z" />
    <glyph glyph-name="Uhungarumlaut.sc" horiz-adv-x="724" 
d="M362 -8q-89 0 -149 15.5t-96 46.5t-51.5 77t-15.5 106v342h203v-345q0 -37 25 -58t84 -21q60 0 84.5 20.5t24.5 58.5v345h203v-342q0 -61 -15.5 -107t-51.5 -76.5t-96 -46t-149 -15.5zM184 633l55 162h185l-117 -169zM393 633l55 162h186l-117 -169z" />
    <glyph glyph-name="Uinvertedbreve" unicode="&#x216;" horiz-adv-x="777" 
d="M389 -10q-96 0 -160.5 19.5t-104 58t-56.5 96.5t-17 136v441h215v-442q0 -68 28.5 -101.5t94.5 -33.5t94 33t28 102v442h215v-441q0 -78 -17 -136t-56.5 -97t-104 -58t-159.5 -19zM465 811q0 49 -17 71.5t-67 22.5q-51 0 -68 -22t-17 -72h-138q0 42 12 76.5t38.5 60
t69 39.5t103.5 14q60 0 102 -14t69 -39t39 -60t12 -77h-138z" />
    <glyph glyph-name="Uinvertedbreve.sc" horiz-adv-x="724" 
d="M362 -8q-89 0 -149 15.5t-96 46.5t-51.5 77t-15.5 106v342h203v-345q0 -37 25 -58t84 -21q60 0 84.5 20.5t24.5 58.5v345h203v-342q0 -61 -15.5 -107t-51.5 -76.5t-96 -46t-149 -15.5zM432 632q0 38 -15 55t-63 17q-23 0 -38 -4t-23.5 -13t-12 -22.5t-3.5 -32.5h-129
q0 34 11 63.5t35 51t63.5 33.5t96.5 12t96.5 -12t64.5 -33t36 -50.5t11 -64.5h-130z" />
    <glyph glyph-name="Umacron" unicode="&#x16a;" horiz-adv-x="777" 
d="M179 976h405v-136h-405v136zM389 -10q-96 0 -160.5 19.5t-104 58t-56.5 96.5t-17 136v441h215v-442q0 -68 28.5 -101.5t94.5 -33.5t94 33t28 102v442h215v-441q0 -78 -17 -136t-56.5 -97t-104 -58t-159.5 -19z" />
    <glyph glyph-name="Umacron.sc" horiz-adv-x="724" 
d="M362 -8q-89 0 -149 15.5t-96 46.5t-51.5 77t-15.5 106v342h203v-345q0 -37 25 -58t84 -21q60 0 84.5 20.5t24.5 58.5v345h203v-342q0 -61 -15.5 -107t-51.5 -76.5t-96 -46t-149 -15.5zM167 781h378v-126h-378v126z" />
    <glyph glyph-name="Uogonek" unicode="&#x172;" horiz-adv-x="777" 
d="M392 -218q-75 0 -115 25.5t-40 74.5q0 61 67 113q-71 8 -119.5 31t-78 61t-42.5 91.5t-13 121.5v441h215v-442q0 -68 28.5 -101.5t94.5 -33.5t94 33t28 102v442h215v-441q0 -68 -12.5 -120.5t-41 -90t-75 -61t-113.5 -32.5q-66 -26 -90 -47t-24 -37q0 -19 30 -19
q16 0 41.5 4.5t46.5 10.5v-114q-24 -6 -47 -9t-49 -3z" />
    <glyph glyph-name="Uogonek.sc" horiz-adv-x="724" 
d="M366 -173q-70 0 -107 22t-37 61q0 23 16 46.5t42 39.5q-65 7 -109 26t-71 49t-38.5 71.5t-11.5 94.5v342h203v-345q0 -37 25 -58t84 -21q60 0 84.5 20.5t24.5 58.5v345h203v-342q0 -53 -11.5 -94.5t-38.5 -71.5t-70.5 -49t-107.5 -26q-33 -12 -53 -21t-30.5 -16
t-13.5 -12t-3 -7q0 -9 25 -9q16 0 42 3.5t42 7.5v-105q-46 -10 -89 -10z" />
    <glyph glyph-name="Uring" unicode="&#x16e;" horiz-adv-x="777" 
d="M389 -10q-96 0 -160.5 19.5t-104 58t-56.5 96.5t-17 136v441h215v-442q0 -68 28.5 -101.5t94.5 -33.5t94 33t28 102v442h215v-441q0 -78 -17 -136t-56.5 -97t-104 -58t-159.5 -19zM382 774q-29 0 -54 8.5t-43 24t-28.5 36.5t-10.5 47t10.5 47.5t28.5 37.5t43 24.5t54 8.5
t54 -8.5t43 -24.5t28 -37.5t10 -47.5t-10 -47t-28 -36.5t-43 -24t-54 -8.5zM382 840q34 0 46 11.5t12 38.5q0 28 -12 40t-46 12t-46.5 -12t-12.5 -40q0 -27 12.5 -38.5t46.5 -11.5z" />
    <glyph glyph-name="Uring.sc" horiz-adv-x="724" 
d="M362 -8q-89 0 -149 15.5t-96 46.5t-51.5 77t-15.5 106v342h203v-345q0 -37 25 -58t84 -21q60 0 84.5 20.5t24.5 58.5v345h203v-342q0 -61 -15.5 -107t-51.5 -76.5t-96 -46t-149 -15.5zM356 600q-54 0 -89.5 26t-35.5 68t35.5 68.5t89.5 26.5t89.5 -26.5t35.5 -68.5
t-35.5 -68t-89.5 -26zM356 658q31 0 41.5 8t10.5 28t-10.5 28.5t-41.5 8.5t-42 -8.5t-11 -28.5t11 -28t42 -8z" />
    <glyph glyph-name="Utilde" unicode="&#x168;" horiz-adv-x="777" 
d="M154 847q35 72 80 106.5t87 34.5q24 0 48.5 -6t48.5 -12.5t48 -12.5t49 -6q22 0 42.5 7.5t49.5 29.5l23 -29q-36 -72 -80.5 -106.5t-86.5 -34.5q-24 0 -48.5 5.5t-48.5 12.5t-48.5 12.5t-48.5 5.5q-23 0 -44 -7t-48 -29zM389 -10q-96 0 -160.5 19.5t-104 58t-56.5 96.5
t-17 136v441h215v-442q0 -68 28.5 -101.5t94.5 -33.5t94 33t28 102v442h215v-441q0 -78 -17 -136t-56.5 -97t-104 -58t-159.5 -19z" />
    <glyph glyph-name="Utilde.sc" horiz-adv-x="724" 
d="M362 -8q-89 0 -149 15.5t-96 46.5t-51.5 77t-15.5 106v342h203v-345q0 -37 25 -58t84 -21q60 0 84.5 20.5t24.5 58.5v345h203v-342q0 -61 -15.5 -107t-51.5 -76.5t-96 -46t-149 -15.5zM143 660q33 66 75 97t81 31q22 0 45 -4t45.5 -9.5t45 -9.5t45.5 -4q20 0 39 5t46 23
l20 -25q-33 -66 -74.5 -97t-79.5 -31q-23 0 -45.5 4.5t-45.5 9.5t-45.5 9.5t-45.5 4.5q-21 0 -40.5 -5t-44.5 -23z" />
    <glyph glyph-name="V" unicode="V" horiz-adv-x="727" 
d="M-6 740h223l109 -385l33 -161h13l33 161l108 385h218l-222 -740h-290z" />
    <glyph glyph-name="V.sc" horiz-adv-x="671" 
d="M-5 577h213l94 -283l29 -130h13l30 130l92 283h209l-203 -577h-272z" />
    <glyph glyph-name="W" unicode="W" horiz-adv-x="1075" 
d="M4 740h233l64 -405l12 -111h13l18 111l91 405h209l90 -405l18 -111h14l11 111l64 405h230l-169 -740h-272l-69 298l-17 171h-12l-17 -171l-69 -298h-272z" />
    <glyph glyph-name="W.sc" horiz-adv-x="990" 
d="M4 577h222l51 -287l12 -84h14l17 84l78 287h195l77 -287l17 -84h14l12 84l50 287h223l-152 -577h-260l-48 178l-26 149h-10l-27 -148l-47 -179h-260z" />
    <glyph glyph-name="Wacute" unicode="&#x1e82;" horiz-adv-x="1075" 
d="M455 809l63 189h215l-128 -199zM4 740h233l64 -405l12 -111h13l18 111l91 405h209l90 -405l18 -111h14l11 111l64 405h230l-169 -740h-272l-69 298l-17 171h-12l-17 -171l-69 -298h-272z" />
    <glyph glyph-name="Wacute.sc" horiz-adv-x="990" 
d="M4 577h222l51 -287l12 -84h14l17 84l78 287h195l77 -287l17 -84h14l12 84l50 287h223l-152 -577h-260l-48 178l-26 149h-10l-27 -148l-47 -179h-260zM417 634l56 160h203l-117 -169z" />
    <glyph glyph-name="Wcircumflex" unicode="&#x174;" horiz-adv-x="1075" 
d="M4 740h233l64 -405l12 -111h13l18 111l91 405h209l90 -405l18 -111h14l11 111l64 405h230l-169 -740h-272l-69 298l-17 171h-12l-17 -171l-69 -298h-272zM334 928l202 76l204 -76v-136l-203 76l-203 -76v136z" />
    <glyph glyph-name="Wcircumflex.sc" horiz-adv-x="990" 
d="M4 577h222l51 -287l12 -84h14l17 84l78 287h195l77 -287l17 -84h14l12 84l50 287h223l-152 -577h-260l-48 178l-26 149h-10l-27 -148l-47 -179h-260zM304 738l188 62l191 -62v-125l-189 61l-190 -61v125z" />
    <glyph glyph-name="Wdieresis" unicode="&#x1e84;" horiz-adv-x="1075" 
d="M390 796q-61 0 -86.5 26t-25.5 83t25.5 83t86.5 26q60 0 86 -26t26 -83t-26 -83t-86 -26zM682 796q-60 0 -85.5 26t-25.5 83t25.5 83t85.5 26q61 0 86.5 -26t25.5 -83t-25.5 -83t-86.5 -26zM4 740h233l64 -405l12 -111h13l18 111l91 405h209l90 -405l18 -111h14l11 111
l64 405h230l-169 -740h-272l-69 298l-17 171h-12l-17 -171l-69 -298h-272z" />
    <glyph glyph-name="Wdieresis.sc" horiz-adv-x="990" 
d="M4 577h222l51 -287l12 -84h14l17 84l78 287h195l77 -287l17 -84h14l12 84l50 287h223l-152 -577h-260l-48 178l-26 149h-10l-27 -148l-47 -179h-260zM359 616q-57 0 -81 23.5t-24 76.5t24 76.5t81 23.5t81 -24.5t24 -75.5q0 -52 -24 -76t-81 -24zM628 616
q-57 0 -80.5 23.5t-23.5 76.5t23.5 76.5t80.5 23.5q58 0 81.5 -24.5t23.5 -75.5q0 -52 -23.5 -76t-81.5 -24z" />
    <glyph glyph-name="Wgrave" unicode="&#x1e80;" horiz-adv-x="1075" 
d="M450 799l-128 199h215l62 -189zM4 740h233l64 -405l12 -111h13l18 111l91 405h209l90 -405l18 -111h14l11 111l64 405h230l-169 -740h-272l-69 298l-17 171h-12l-17 -171l-69 -298h-272z" />
    <glyph glyph-name="Wgrave.sc" horiz-adv-x="990" 
d="M4 577h222l51 -287l12 -84h14l17 84l78 287h195l77 -287l17 -84h14l12 84l50 287h223l-152 -577h-260l-48 178l-26 149h-10l-27 -148l-47 -179h-260zM410 625l-117 169h203l56 -162z" />
    <glyph glyph-name="X" unicode="X" horiz-adv-x="730" 
d="M229 387l-225 353h242l96 -175l23 -45h6l22 45l98 175h236l-231 -353l255 -387h-240l-125 211l-20 40h-7l-19 -40l-122 -211h-237z" />
    <glyph glyph-name="X.sc" horiz-adv-x="678" 
d="M197 303l-190 274h233l83 -124l18 -33h5l18 33l79 124h228l-196 -273l216 -304h-231l-105 156l-16 28h-5l-16 -28l-102 -156h-229z" />
    <glyph glyph-name="Y" unicode="Y" horiz-adv-x="736" 
d="M261 238l-274 502h237l114 -237l25 -71h10l26 71l114 237h235l-271 -497v-243h-216v238z" />
    <glyph glyph-name="Y.sc" horiz-adv-x="673" 
d="M232 186l-243 391h225l100 -165l17 -52h11l18 52l99 165h223l-241 -391v-186h-209v186z" />
    <glyph glyph-name="Yacute" unicode="&#xdd;" horiz-adv-x="736" 
d="M261 238l-274 502h237l114 -237l25 -71h10l26 71l114 237h235l-271 -497v-243h-216v238zM290 809l63 189h215l-128 -199z" />
    <glyph glyph-name="Yacute.sc" horiz-adv-x="673" 
d="M232 186l-243 391h225l100 -165l17 -52h11l18 52l99 165h223l-241 -391v-186h-209v186zM264 634l56 160h202l-117 -169z" />
    <glyph glyph-name="Ycircumflex" unicode="&#x176;" horiz-adv-x="736" 
d="M261 238l-274 502h237l114 -237l25 -71h10l26 71l114 237h235l-271 -497v-243h-216v238zM165 928l202 76l204 -76v-136l-203 76l-203 -76v136z" />
    <glyph glyph-name="Ycircumflex.sc" horiz-adv-x="673" 
d="M232 186l-243 391h225l100 -165l17 -52h11l18 52l99 165h223l-241 -391v-186h-209v186zM145 738l189 62l190 -62v-125l-189 61l-190 -61v125z" />
    <glyph glyph-name="Ydieresis" unicode="&#x178;" horiz-adv-x="736" 
d="M261 238l-274 502h237l114 -237l25 -71h10l26 71l114 237h235l-271 -497v-243h-216v238zM222 796q-61 0 -86.5 26t-25.5 83t25.5 83t86.5 26q60 0 86 -26t26 -83t-26 -83t-86 -26zM514 796q-60 0 -85.5 26t-25.5 83t25.5 83t85.5 26q61 0 86.5 -26t25.5 -83t-25.5 -83
t-86.5 -26z" />
    <glyph glyph-name="Ydieresis.sc" horiz-adv-x="673" 
d="M200 616q-57 0 -81 23.5t-24 76.5t24 76.5t81 23.5t81 -24.5t24 -75.5q0 -52 -24 -76t-81 -24zM470 616q-57 0 -81 23.5t-24 76.5t24 76.5t81 23.5t81 -24.5t24 -75.5q0 -52 -24 -76t-81 -24zM232 186l-243 391h225l100 -165l17 -52h11l18 52l99 165h223l-241 -391v-186
h-209v186z" />
    <glyph glyph-name="Ygrave" unicode="&#x1ef2;" horiz-adv-x="736" 
d="M261 238l-274 502h237l114 -237l25 -71h10l26 71l114 237h235l-271 -497v-243h-216v238zM288 799l-128 199h215l62 -189z" />
    <glyph glyph-name="Ygrave.sc" horiz-adv-x="673" 
d="M232 186l-243 391h225l100 -165l17 -52h11l18 52l99 165h223l-241 -391v-186h-209v186zM142 794h203l55 -162l-140 -7z" />
    <glyph glyph-name="Ytilde" unicode="&#x1ef8;" horiz-adv-x="736" 
d="M261 238l-274 502h237l114 -237l25 -71h10l26 71l114 237h235l-271 -497v-243h-216v238zM137 847q35 72 80 106.5t87 34.5q24 0 48.5 -6t48.5 -12.5t48 -12.5t49 -6q22 0 42.5 7.5t49.5 29.5l23 -29q-36 -72 -80.5 -106.5t-86.5 -34.5q-24 0 -48.5 5.5t-48.5 12.5
t-48.5 12.5t-48.5 5.5q-23 0 -44 -7t-48 -29z" />
    <glyph glyph-name="Ytilde.sc" horiz-adv-x="673" 
d="M232 186l-243 391h225l100 -165l17 -52h11l18 52l99 165h223l-241 -391v-186h-209v186zM120 660q32 66 74 97t81 31q22 0 45 -4t45.5 -9.5t45 -9.5t45.5 -4q20 0 39.5 5t45.5 23l21 -25q-34 -66 -75.5 -97t-79.5 -31q-23 0 -45.5 4.5t-45.5 9.5t-45.5 9.5t-45.5 4.5
q-21 0 -40 -5t-45 -23z" />
    <glyph glyph-name="Z" unicode="Z" horiz-adv-x="648" 
d="M28 170l323 390v11h-307v169h559v-167l-324 -393v-10h343v-170h-594v170z" />
    <glyph glyph-name="Z.sc" horiz-adv-x="606" 
d="M35 158l275 253v9h-268v157h518v-155l-278 -255v-9h294v-158h-541v158z" />
    <glyph glyph-name="Zacute" unicode="&#x179;" horiz-adv-x="648" 
d="M28 170l323 390v11h-307v169h559v-167l-324 -393v-10h343v-170h-594v170zM253 809l63 189h215l-128 -199z" />
    <glyph glyph-name="Zacute.sc" horiz-adv-x="609" 
d="M33 158l285 253v9h-273v157h518v-155l-288 -255v-9h304v-158h-546v158zM239 634l56 160h202l-116 -169z" />
    <glyph glyph-name="Zcaron" unicode="&#x17d;" horiz-adv-x="648" 
d="M125 1004l203 -76l203 76v-136l-204 -76l-202 76v136zM28 170l323 390v11h-307v169h559v-167l-324 -393v-10h343v-170h-594v170z" />
    <glyph glyph-name="Zcaron.sc" horiz-adv-x="609" 
d="M33 158l285 253v9h-273v157h518v-155l-288 -255v-9h304v-158h-546v158zM117 801l190 -61l189 61v-125l-190 -61l-189 61v125z" />
    <glyph glyph-name="Zdotaccent" unicode="&#x17b;" horiz-adv-x="648" 
d="M324 796q-61 0 -86.5 26t-25.5 83t25.5 83t86.5 26q60 0 86 -26t26 -83t-26 -83t-86 -26zM28 170l323 390v11h-307v169h559v-167l-324 -393v-10h343v-170h-594v170z" />
    <glyph glyph-name="Zdotaccent.sc" horiz-adv-x="609" 
d="M33 158l285 253v9h-273v157h518v-155l-288 -255v-9h304v-158h-546v158zM303 618q-57 0 -81 23t-24 77q0 53 24 76.5t81 23.5t81 -24.5t24 -75.5q0 -52 -24 -76t-81 -24z" />
    <glyph glyph-name="Zdotbelow" unicode="&#x1e92;" horiz-adv-x="648" 
d="M28 170l323 390v11h-307v169h559v-167l-324 -393v-10h343v-170h-594v170zM317 -220q-47 0 -66 19t-19 63t19 63t66 19t66 -20t19 -62q0 -43 -19 -62.5t-66 -19.5z" />
    <glyph glyph-name="Zdotbelow.sc" horiz-adv-x="609" 
d="M33 158l285 253v9h-273v157h518v-155l-288 -255v-9h304v-158h-546v158zM297 -182q-43 0 -61 17.5t-18 55.5t18 55.5t61 17.5q45 0 62.5 -17.5t17.5 -55.5t-17.5 -55.5t-62.5 -17.5z" />
    <glyph glyph-name="a" unicode="a" horiz-adv-x="590" 
d="M184 -5q-78 0 -120.5 44.5t-42.5 119.5q0 164 203 174l112 6q-1 18 -5 30t-14 19t-27.5 10t-44.5 3q-17 0 -39 -1.5t-46 -3.5t-47 -5.5t-41 -6.5l-13 144q57 10 112.5 15t104.5 5q139 0 204.5 -44.5t65.5 -138.5v-365h-173l-17 65h-10q-30 -35 -73 -52.5t-89 -17.5z
M274 138q17 0 34.5 6.5t27.5 14.5v72l-52 -5q-29 -3 -40.5 -12.5t-11.5 -31.5q0 -44 42 -44z" />
    <glyph glyph-name="aacute" unicode="&#xe1;" horiz-adv-x="590" 
d="M184 -5q-78 0 -120.5 44.5t-42.5 119.5q0 164 203 174l112 6q-1 18 -5 30t-14 19t-27.5 10t-44.5 3q-17 0 -39 -1.5t-46 -3.5t-47 -5.5t-41 -6.5l-13 144q57 10 112.5 15t104.5 5q139 0 204.5 -44.5t65.5 -138.5v-365h-173l-17 65h-10q-30 -35 -73 -52.5t-89 -17.5z
M274 138q17 0 34.5 6.5t27.5 14.5v72l-52 -5q-29 -3 -40.5 -12.5t-11.5 -31.5q0 -44 42 -44zM216 619l63 189h215l-128 -199z" />
    <glyph glyph-name="acute" unicode="&#xb4;" horiz-adv-x="307" 
d="M25 619l63 189h215l-128 -199z" />
    <glyph glyph-name="abreve" unicode="&#x103;" horiz-adv-x="590" 
d="M184 -5q-78 0 -120.5 44.5t-42.5 119.5q0 164 203 174l112 6q-1 18 -5 30t-14 19t-27.5 10t-44.5 3q-17 0 -39 -1.5t-46 -3.5t-47 -5.5t-41 -6.5l-13 144q57 10 112.5 15t104.5 5q139 0 204.5 -44.5t65.5 -138.5v-365h-173l-17 65h-10q-30 -35 -73 -52.5t-89 -17.5z
M274 138q17 0 34.5 6.5t27.5 14.5v72l-52 -5q-29 -3 -40.5 -12.5t-11.5 -31.5q0 -44 42 -44zM298 611q-59 0 -100.5 13t-68 36.5t-39.5 56.5t-14 74h138q0 -39 18 -59.5t66 -20.5t65.5 20.5t18.5 59.5h138q-2 -41 -14.5 -74.5t-39 -57t-68 -36t-100.5 -12.5z" />
    <glyph glyph-name="breve" unicode="&#x2d8;" horiz-adv-x="497" 
d="M248 611q-59 0 -100.5 13t-68 36.5t-39.5 56.5t-14 74h138q0 -39 18 -59.5t66 -20.5t65.5 20.5t18.5 59.5h138q-2 -41 -14.5 -74.5t-39 -57t-68 -36t-100.5 -12.5z" />
    <glyph glyph-name="acircumflex" unicode="&#xe2;" horiz-adv-x="590" 
d="M184 -5q-78 0 -120.5 44.5t-42.5 119.5q0 164 203 174l112 6q-1 18 -5 30t-14 19t-27.5 10t-44.5 3q-17 0 -39 -1.5t-46 -3.5t-47 -5.5t-41 -6.5l-13 144q57 10 112.5 15t104.5 5q139 0 204.5 -44.5t65.5 -138.5v-365h-173l-17 65h-10q-30 -35 -73 -52.5t-89 -17.5z
M274 138q17 0 34.5 6.5t27.5 14.5v72l-52 -5q-29 -3 -40.5 -12.5t-11.5 -31.5q0 -44 42 -44zM102 738l202 76l204 -76v-136l-203 76l-203 -76v136z" />
    <glyph glyph-name="circumflex" unicode="&#x2c6;" horiz-adv-x="480" 
d="M33 738l202 76l204 -76v-136l-203 76l-203 -76v136z" />
    <glyph glyph-name="adblgrave" unicode="&#x201;" horiz-adv-x="590" 
d="M184 -5q-78 0 -120.5 44.5t-42.5 119.5q0 164 203 174l112 6q-1 18 -5 30t-14 19t-27.5 10t-44.5 3q-17 0 -39 -1.5t-46 -3.5t-47 -5.5t-41 -6.5l-13 144q57 10 112.5 15t104.5 5q139 0 204.5 -44.5t65.5 -138.5v-365h-173l-17 65h-10q-30 -35 -73 -52.5t-89 -17.5z
M274 138q17 0 34.5 6.5t27.5 14.5v72l-52 -5q-29 -3 -40.5 -12.5t-11.5 -31.5q0 -44 42 -44zM136 609l-128 199h194l62 -189zM361 609l-128 199h194l63 -189z" />
    <glyph glyph-name="uni030F" unicode="&#x30f;" horiz-adv-x="519" 
d="M132 609l-128 199h194l62 -189zM357 609l-128 199h194l63 -189z" />
    <glyph glyph-name="adieresis" unicode="&#xe4;" horiz-adv-x="590" 
d="M184 -5q-78 0 -120.5 44.5t-42.5 119.5q0 164 203 174l112 6q-1 18 -5 30t-14 19t-27.5 10t-44.5 3q-17 0 -39 -1.5t-46 -3.5t-47 -5.5t-41 -6.5l-13 144q57 10 112.5 15t104.5 5q139 0 204.5 -44.5t65.5 -138.5v-365h-173l-17 65h-10q-30 -35 -73 -52.5t-89 -17.5z
M274 138q17 0 34.5 6.5t27.5 14.5v72l-52 -5q-29 -3 -40.5 -12.5t-11.5 -31.5q0 -44 42 -44zM165 607q-54 0 -77.5 23.5t-23.5 74.5t23.5 74t77.5 23t77.5 -23t23.5 -74t-23.5 -74.5t-77.5 -23.5zM435 607q-54 0 -77 23.5t-23 74.5t23 74t77 23t77.5 -23t23.5 -74
t-23.5 -74.5t-77.5 -23.5z" />
    <glyph glyph-name="dieresis" unicode="&#xa8;" horiz-adv-x="551" 
d="M139 607q-54 0 -77.5 23.5t-23.5 74.5t23.5 74t77.5 23t77.5 -23t23.5 -74t-23.5 -74.5t-77.5 -23.5zM409 607q-54 0 -77 23.5t-23 74.5t23 74t77 23t77.5 -23t23.5 -74t-23.5 -74.5t-77.5 -23.5z" />
    <glyph glyph-name="ae" unicode="&#xe6;" horiz-adv-x="899" 
d="M624 -13q-143 0 -205 86h-10q-55 -39 -112.5 -58.5t-114.5 -19.5q-75 0 -117.5 44.5t-42.5 121.5q0 160 203 172l111 6v9q0 17 -5 27t-16.5 15.5t-31 7.5t-50.5 2q-15 0 -35.5 -1t-42.5 -3.5t-44 -5.5t-38 -6l-13 144q60 11 114.5 15.5t107.5 4.5q112 0 166 -48h10
q66 46 169 46q124 0 184 -61t60 -188q0 -30 -2 -49.5t-7 -37.5h-313q2 -21 7.5 -34t16 -20.5t27 -10t41.5 -2.5q21 0 47 2t53 5t54 7.5t50 9.5l5 -148q-48 -15 -108.5 -23.5t-117.5 -8.5zM275 138q16 0 34 6.5t27 14.5v72l-51 -5q-29 -3 -40.5 -13t-11.5 -30q0 -45 42 -45z
M687 318q-2 45 -17 63.5t-52 18.5q-35 0 -50.5 -17.5t-19.5 -64.5h139z" />
    <glyph glyph-name="aeacute" unicode="&#x1fd;" horiz-adv-x="899" 
d="M381 619l63 189h215l-128 -199zM624 -13q-143 0 -205 86h-10q-55 -39 -112.5 -58.5t-114.5 -19.5q-75 0 -117.5 44.5t-42.5 121.5q0 160 203 172l111 6v9q0 17 -5 27t-16.5 15.5t-31 7.5t-50.5 2q-15 0 -35.5 -1t-42.5 -3.5t-44 -5.5t-38 -6l-13 144q60 11 114.5 15.5
t107.5 4.5q112 0 166 -48h10q66 46 169 46q124 0 184 -61t60 -188q0 -30 -2 -49.5t-7 -37.5h-313q2 -21 7.5 -34t16 -20.5t27 -10t41.5 -2.5q21 0 47 2t53 5t54 7.5t50 9.5l5 -148q-48 -15 -108.5 -23.5t-117.5 -8.5zM275 138q16 0 34 6.5t27 14.5v72l-51 -5
q-29 -3 -40.5 -13t-11.5 -30q0 -45 42 -45zM687 318q-2 45 -17 63.5t-52 18.5q-35 0 -50.5 -17.5t-19.5 -64.5h139z" />
    <glyph glyph-name="agrave" unicode="&#xe0;" horiz-adv-x="590" 
d="M184 -5q-78 0 -120.5 44.5t-42.5 119.5q0 164 203 174l112 6q-1 18 -5 30t-14 19t-27.5 10t-44.5 3q-17 0 -39 -1.5t-46 -3.5t-47 -5.5t-41 -6.5l-13 144q57 10 112.5 15t104.5 5q139 0 204.5 -44.5t65.5 -138.5v-365h-173l-17 65h-10q-30 -35 -73 -52.5t-89 -17.5z
M274 138q17 0 34.5 6.5t27.5 14.5v72l-52 -5q-29 -3 -40.5 -12.5t-11.5 -31.5q0 -44 42 -44zM227 609l-128 199h215l63 -189z" />
    <glyph glyph-name="grave" unicode="`" horiz-adv-x="315" 
d="M132 609l-128 199h215l63 -189z" />
    <glyph glyph-name="ainvertedbreve" unicode="&#x203;" horiz-adv-x="590" 
d="M184 -5q-78 0 -120.5 44.5t-42.5 119.5q0 164 203 174l112 6q-1 18 -5 30t-14 19t-27.5 10t-44.5 3q-17 0 -39 -1.5t-46 -3.5t-47 -5.5t-41 -6.5l-13 144q57 10 112.5 15t104.5 5q139 0 204.5 -44.5t65.5 -138.5v-365h-173l-17 65h-10q-30 -35 -73 -52.5t-89 -17.5z
M274 138q17 0 34.5 6.5t27.5 14.5v72l-52 -5q-29 -3 -40.5 -12.5t-11.5 -31.5q0 -44 42 -44zM80 621q1 40 13.5 73.5t39 57t68.5 36.5t101 13t100.5 -12.5t68 -36t39 -57t14.5 -74.5h-138q-1 41 -19.5 60t-64.5 19t-65 -19t-20 -60h-137z" />
    <glyph glyph-name="uni0311" unicode="&#x311;" horiz-adv-x="496" 
d="M25 621q1 40 13.5 73.5t39 57t68.5 36.5t101 13t100.5 -12.5t68 -36t39 -57t14.5 -74.5h-138q-1 41 -19.5 60t-64.5 19t-65 -19t-20 -60h-137v0z" />
    <glyph glyph-name="amacron" unicode="&#x101;" horiz-adv-x="590" 
d="M184 -5q-78 0 -120.5 44.5t-42.5 119.5q0 164 203 174l112 6q-1 18 -5 30t-14 19t-27.5 10t-44.5 3q-17 0 -39 -1.5t-46 -3.5t-47 -5.5t-41 -6.5l-13 144q57 10 112.5 15t104.5 5q139 0 204.5 -44.5t65.5 -138.5v-365h-173l-17 65h-10q-30 -35 -73 -52.5t-89 -17.5z
M274 138q17 0 34.5 6.5t27.5 14.5v72l-52 -5q-29 -3 -40.5 -12.5t-11.5 -31.5q0 -44 42 -44zM98 761h405v-131h-405v131z" />
    <glyph glyph-name="macron" unicode="&#xaf;" horiz-adv-x="509" 
d="M47 761h405v-131h-405v131z" />
    <glyph glyph-name="ampersand" unicode="&#x26;" horiz-adv-x="776" 
d="M346 -9q-71 0 -129 15t-98.5 43t-62.5 68t-22 89q0 71 39 121.5t108 67.5q-46 45 -66 84.5t-20 80.5q0 45 19.5 80.5t56 60t89 38t118.5 13.5q49 0 100.5 -7t106.5 -21l2 -5l-20 -147h-8q-38 13 -82 20.5t-78 7.5q-92 0 -92 -62q0 -63 174 -161l35 -20v73l187 7v-93
q0 -48 -9 -90l91 -52v-10l-76 -157h-8l-88 57q-47 -49 -114 -75t-153 -26zM404 228q-60 38 -103 70q-52 -19 -52 -79q0 -36 30.5 -58.5t81.5 -22.5q75 0 113 44z" />
    <glyph glyph-name="ampersand.sc" horiz-adv-x="719" 
d="M318 -6q-66 0 -119 11.5t-90.5 33.5t-57.5 53t-20 69q0 56 37 96t100 51q-45 37 -64 68t-19 60q0 34 18 62t52 47.5t82.5 30t109.5 10.5q45 0 92.5 -5t98.5 -14l2 -5l-18 -136h-8q-34 9 -74.5 15t-71.5 6q-42 0 -61.5 -7t-19.5 -24q0 -31 156 -105l28 -13v49h176v-78
q0 -29 -5 -57l81 -41v-9l-71 -148h-7l-90 52q-42 -35 -102 -53.5t-135 -18.5zM333 129q51 0 83 18l-45 27q-26 16 -45 26.5t-38 23.5q-24 -5 -39 -18t-15 -33q0 -19 27 -31.5t72 -12.5z" />
    <glyph glyph-name="aogonek" unicode="&#x105;" horiz-adv-x="591" 
d="M452 -220q-75 0 -115 25.5t-40 74.5q0 67 77 120l-17 65h-10q-30 -35 -73 -52.5t-89 -17.5q-78 0 -120.5 44.5t-42.5 119.5q0 164 203 174l112 6q-1 18 -5 30t-14 19t-27.5 10t-44.5 3q-17 0 -39 -1.5t-46 -3.5t-47 -5.5t-41 -6.5l-13 144q57 10 112.5 15t104.5 5
q139 0 204.5 -44.5t65.5 -138.5v-370q-34 -13 -56.5 -25t-36 -22.5t-19 -20t-5.5 -17.5q0 -19 30 -19q16 0 41.5 4.5t46.5 10.5v-114q-24 -6 -47 -9t-49 -3zM275 138q17 0 34.5 6.5t27.5 14.5v72l-52 -5q-29 -3 -40.5 -12.5t-11.5 -31.5q0 -44 42 -44z" />
    <glyph glyph-name="apostrophe" unicode="&#x2bc;" horiz-adv-x="239" 
d="M210 808v-4l-50 -224h-113v228h163z" />
    <glyph glyph-name="approxequal" unicode="&#x2248;" horiz-adv-x="544" 
d="M51 487q32 14 65 28.5t72 14.5q24 0 45.5 -6t42.5 -13t42 -13t45 -6q39 0 70.5 10t62.5 26v-124q-29 -16 -61.5 -30t-71.5 -14q-24 0 -45 6t-42 13t-42.5 13t-45.5 6q-39 0 -72 -9.5t-65 -25.5v124zM51 295q32 14 65 28.5t72 14.5q24 0 45.5 -6t42.5 -13t42 -13t45 -6
q39 0 70.5 10t62.5 26v-124q-29 -16 -61.5 -30t-71.5 -14q-24 0 -45 6t-42 13t-42.5 13t-45.5 6q-39 0 -72 -9.5t-65 -25.5v124z" />
    <glyph glyph-name="aring" unicode="&#xe5;" horiz-adv-x="590" 
d="M184 -5q-78 0 -120.5 44.5t-42.5 119.5q0 164 203 174l112 6q-1 18 -5 30t-14 19t-27.5 10t-44.5 3q-17 0 -39 -1.5t-46 -3.5t-47 -5.5t-41 -6.5l-13 144q57 10 112.5 15t104.5 5q139 0 204.5 -44.5t65.5 -138.5v-365h-173l-17 65h-10q-30 -35 -73 -52.5t-89 -17.5z
M274 138q17 0 34.5 6.5t27.5 14.5v72l-52 -5q-29 -3 -40.5 -12.5t-11.5 -31.5q0 -44 42 -44zM296 584q-30 0 -55.5 8.5t-43.5 24t-28.5 37t-10.5 47.5q0 53 38.5 85t99.5 32t99.5 -32t38.5 -85q0 -26 -10.5 -47.5t-28.5 -37t-43.5 -24t-55.5 -8.5zM296 651q56 0 56 50
t-56 50t-56 -50t56 -50z" />
    <glyph glyph-name="ring" unicode="&#x2da;" horiz-adv-x="332" 
d="M163 584q-30 0 -55.5 8.5t-43.5 24t-28.5 37t-10.5 47.5q0 53 38.5 85t99.5 32t99.5 -32t38.5 -85q0 -26 -10.5 -47.5t-28.5 -37t-43.5 -24t-55.5 -8.5zM163 651q56 0 56 50t-56 50t-56 -50t56 -50z" />
    <glyph glyph-name="aringacute" unicode="&#x1fb;" horiz-adv-x="590" 
d="M184 -5q-78 0 -120.5 44.5t-42.5 119.5q0 164 203 174l112 6q-1 18 -5 30t-14 19t-27.5 10t-44.5 3q-17 0 -39 -1.5t-46 -3.5t-47 -5.5t-41 -6.5l-13 144q57 10 112.5 15t104.5 5q139 0 204.5 -44.5t65.5 -138.5v-365h-173l-17 65h-10q-30 -35 -73 -52.5t-89 -17.5z
M299 584q-30 0 -55.5 8.5t-43.5 24t-28.5 37t-10.5 47.5q0 42 24 70.5t66 39.5l56 169h215l-125 -194q19 -15 29.5 -37t10.5 -48t-10.5 -47.5t-28.5 -37t-43.5 -24t-55.5 -8.5zM299 651q56 0 56 50t-56 50t-56 -50t56 -50zM274 138q17 0 34.5 6.5t27.5 14.5v72l-52 -5
q-29 -3 -40.5 -12.5t-11.5 -31.5q0 -44 42 -44z" />
    <glyph glyph-name="arrowdown" unicode="&#x2193;" horiz-adv-x="708" 
d="M19 405l115 115l136 -159v353h168v-353l136 159l115 -115l-303 -304h-64z" />
    <glyph glyph-name="arrowleft" unicode="&#x2190;" horiz-adv-x="667" 
d="M23 377v64l304 303l115 -115l-159 -136h353v-168h-353l159 -136l-115 -115z" />
    <glyph glyph-name="arrowright" unicode="&#x2192;" horiz-adv-x="667" 
d="M226 189l158 136h-352v168h352l-158 136l115 115l304 -303v-64l-304 -303z" />
    <glyph glyph-name="arrowup" unicode="&#x2191;" horiz-adv-x="708" 
d="M270 453l-136 -158l-115 115l303 304h64l303 -304l-115 -115l-136 158v-352h-168v352z" />
    <glyph glyph-name="asciicircum" unicode="^" horiz-adv-x="524" 
d="M166 789h192l142 -308h-147l-89 188h-4l-88 -188h-147z" />
    <glyph glyph-name="asciitilde" unicode="~" horiz-adv-x="682" 
d="M24 261q35 45 61.5 74t49 46.5t44 24t46.5 6.5q33 0 60.5 -11.5t52.5 -25.5t49 -25.5t49 -11.5q58 0 108 78l114 -68q-17 -24 -37 -53.5t-44.5 -54.5t-54 -42t-64.5 -17q-33 0 -60.5 11.5t-53 26t-49.5 26t-49 11.5q-56 0 -108 -78z" />
    <glyph glyph-name="asterisk" unicode="*" horiz-adv-x="501" 
d="M73 477l43 59l86 67l-109 4l-68 23l36 112l69 -22l92 -62l-30 108v72h118v-72l-31 -107l92 61l69 22l36 -112l-68 -23l-109 -4l86 -67l43 -59l-96 -69l-43 58l-39 106l-38 -106l-43 -58z" />
    <glyph glyph-name="at" unicode="@" horiz-adv-x="868" 
d="M424 -134q-82 0 -153.5 23.5t-125 72t-84 122.5t-30.5 176q0 99 30 176t85 129.5t132 80t171 27.5q97 0 168.5 -25.5t119 -73t71 -116t23.5 -153.5q0 -120 -51.5 -187.5t-152.5 -67.5q-27 0 -46.5 8t-32.5 20t-20 26.5t-9 27.5h-5q-25 -39 -66 -58t-88 -19q-67 0 -104 48
t-37 130q0 57 17 104t49 81.5t77 53.5t102 19q37 0 81 -10.5t90 -30.5l-39 -204q-2 -11 -4 -23t-2 -23q0 -20 9 -34t35 -14q35 0 54.5 40.5t19.5 112.5q0 118 -63 185t-196 67q-67 0 -121.5 -19.5t-93 -57.5t-59.5 -93t-21 -127q0 -74 21 -127t57.5 -87.5t86 -51
t105.5 -16.5q39 0 91 11t112 29l34 -107q-67 -20 -127.5 -32.5t-109.5 -12.5zM391 158q32 0 59 25t37 82l22 120q-11 4 -22 5t-21 1q-28 0 -51 -12t-39.5 -33t-25.5 -50t-9 -63q0 -33 11.5 -54t38.5 -21z" />
    <glyph glyph-name="atilde" unicode="&#xe3;" horiz-adv-x="590" 
d="M184 -5q-78 0 -120.5 44.5t-42.5 119.5q0 164 203 174l112 6q-1 18 -5 30t-14 19t-27.5 10t-44.5 3q-17 0 -39 -1.5t-46 -3.5t-47 -5.5t-41 -6.5l-13 144q57 10 112.5 15t104.5 5q139 0 204.5 -44.5t65.5 -138.5v-365h-173l-17 65h-10q-30 -35 -73 -52.5t-89 -17.5z
M274 138q17 0 34.5 6.5t27.5 14.5v72l-52 -5q-29 -3 -40.5 -12.5t-11.5 -31.5q0 -44 42 -44zM69 660q35 68 80.5 100.5t87.5 32.5q24 0 48 -7.5t48 -16t48.5 -16t48.5 -7.5q21 0 41 8t46 32l28 -40q-35 -68 -80.5 -100.5t-86.5 -32.5q-24 0 -48.5 7t-48.5 16t-48.5 16
t-48.5 7q-21 0 -41 -7.5t-45 -30.5z" />
    <glyph glyph-name="tilde" unicode="&#x2dc;" horiz-adv-x="505" 
d="M13 660q35 68 80.5 100.5t87.5 32.5q24 0 48 -7.5t48 -16t48.5 -16t48.5 -7.5q21 0 41 8t46 32l28 -40q-35 -68 -80.5 -100.5t-86.5 -32.5q-24 0 -48.5 7t-48.5 16t-48.5 16t-48.5 7q-21 0 -41 -7.5t-45 -30.5z" />
    <glyph glyph-name="b" unicode="b" horiz-adv-x="648" 
d="M318 -11q-26 0 -52.5 2t-58 6.5t-70.5 12.5t-89 20v778h210v-323q26 33 64 48.5t87 15.5q212 0 212 -262q0 -143 -77 -219.5t-226 -78.5zM318 128q29 0 47 5t27.5 20t13 42.5t3.5 72.5q0 40 -3 65t-10.5 39.5t-21.5 19.5t-36 5q-23 0 -38 -6.5t-24.5 -22t-13.5 -42
t-4 -66.5v-124q21 -8 60 -8z" />
    <glyph glyph-name="backslash" unicode="\" horiz-adv-x="436" 
d="M20 740h179l217 -860h-179z" />
    <glyph glyph-name="bar" unicode="|" horiz-adv-x="329" 
d="M263 808v-1028h-196v1028h196z" />
    <glyph glyph-name="bar.tab" horiz-adv-x="318" 
d="M256 808v-1028h-195v1028h195z" />
    <glyph glyph-name="braceleft" unicode="{" horiz-adv-x="340" 
d="M23 432q35 0 46.5 21t11.5 63v225q0 69 27.5 98t87.5 29q9 0 27 -0.5t36 -1.5t33 -1.5t20 -1.5v-127h-20q-24 0 -34.5 -10t-10.5 -32v-222q0 -47 -23.5 -79t-61.5 -39q38 -5 61.5 -36.5t23.5 -78.5v-224q0 -23 10.5 -33t34.5 -10h20v-127q-5 -1 -20 -2t-33 -1.5l-36 -1
t-27 -0.5q-60 0 -87.5 29t-27.5 98v229q0 42 -11.5 62.5t-46.5 20.5v153z" />
    <glyph glyph-name="braceleft.sc" horiz-adv-x="329" 
d="M30 348q32 0 41.5 15t9.5 45v168q0 55 25 78t79 23q9 0 24.5 -0.5t32 -1t30.5 -1t18 -1.5v-118h-15q-38 0 -38 -31v-157q0 -37 -21.5 -61.5t-55.5 -29.5q34 -4 55.5 -28t21.5 -60v-160q0 -32 38 -32h15v-118q-4 -1 -18 -1.5t-30.5 -1t-32 -1t-24.5 -0.5q-54 0 -79 23
t-25 78v171q0 30 -9.5 44.5t-41.5 14.5v143z" />
    <glyph glyph-name="braceright" unicode="}" horiz-adv-x="340" 
d="M317 279q-35 0 -46.5 -20.5t-11.5 -62.5v-229q0 -69 -27.5 -98t-87.5 -29q-9 0 -27 0.5l-36 1t-33.5 1.5t-19.5 2v127h20q24 0 34.5 10t10.5 33v224q0 47 23.5 78.5t61.5 36.5q-38 7 -61.5 39t-23.5 79v222q0 22 -10.5 32t-34.5 10h-20v127q4 1 19.5 1.5t33.5 1.5t36 1.5
t27 0.5q60 0 87.5 -29t27.5 -98v-225q0 -42 11.5 -63t46.5 -21v-153z" />
    <glyph glyph-name="braceright.sc" horiz-adv-x="329" 
d="M299 205q-32 0 -41.5 -14.5t-9.5 -44.5v-171q0 -55 -25 -78t-79 -23q-8 0 -24 0.5t-32.5 1t-30 1t-17.5 1.5v118h15q38 0 38 32v160q0 36 21 60t55 28q-34 5 -55 29.5t-21 61.5v157q0 31 -38 31h-15v118q4 1 17.5 1.5t30 1t32.5 1t24 0.5q54 0 79 -23t25 -78v-168
q0 -30 9.5 -45t41.5 -15v-143z" />
    <glyph glyph-name="bracketleft" unicode="[" horiz-adv-x="382" 
d="M67 868h295v-132h-135v-764h135v-132h-295v1028z" />
    <glyph glyph-name="bracketleft.sc" horiz-adv-x="375" 
d="M72 677h272v-122h-122v-557h122v-123h-272v802z" />
    <glyph glyph-name="bracketright" unicode="]" horiz-adv-x="382" 
d="M20 -160v132h135v764h-135v132h295v-1028h-295z" />
    <glyph glyph-name="bracketright.sc" horiz-adv-x="375" 
d="M31 -125v123h122v557h-122v122h272v-802h-272z" />
    <glyph glyph-name="brokenbar" unicode="&#xa6;" horiz-adv-x="330" 
d="M67 205h196v-425h-196v425zM67 808h196v-425h-196v425z" />
    <glyph glyph-name="bullet" unicode="&#x2022;" horiz-adv-x="381" 
d="M191 235q-65 0 -102.5 34.5t-37.5 100.5t37.5 100.5t102.5 34.5q64 0 102 -34.5t38 -100.5t-38 -100.5t-102 -34.5z" />
    <glyph glyph-name="c" unicode="c" horiz-adv-x="509" 
d="M313 -9q-144 0 -215 68t-71 211t71 211t215 68q45 0 87.5 -4.5t73.5 -13.5v-161q-39 5 -74 8t-65 3q-28 0 -46.5 -5.5t-30 -18.5t-16.5 -33.5t-5 -51.5q0 -62 21 -87.5t75 -25.5q44 0 76 2.5t65 8.5v-161q-31 -9 -73.5 -13.5t-87.5 -4.5z" />
    <glyph glyph-name="cacute" unicode="&#x107;" horiz-adv-x="509" 
d="M210 619l63 189h215l-128 -199zM313 -9q-144 0 -215 68t-71 211t71 211t215 68q45 0 87.5 -4.5t73.5 -13.5v-161q-39 5 -74 8t-65 3q-28 0 -46.5 -5.5t-30 -18.5t-16.5 -33.5t-5 -51.5q0 -62 21 -87.5t75 -25.5q44 0 76 2.5t65 8.5v-161q-31 -9 -73.5 -13.5t-87.5 -4.5z
" />
    <glyph glyph-name="caron" unicode="&#x2c7;" horiz-adv-x="472" 
d="M30 814l203 -76l203 76v-136l-204 -76l-202 76v136z" />
    <glyph glyph-name="ccaron" unicode="&#x10d;" horiz-adv-x="509" 
d="M77 814l203 -76l203 76v-136l-204 -76l-202 76v136zM313 -9q-144 0 -215 68t-71 211t71 211t215 68q45 0 87.5 -4.5t73.5 -13.5v-161q-39 5 -74 8t-65 3q-28 0 -46.5 -5.5t-30 -18.5t-16.5 -33.5t-5 -51.5q0 -62 21 -87.5t75 -25.5q44 0 76 2.5t65 8.5v-161
q-31 -9 -73.5 -13.5t-87.5 -4.5z" />
    <glyph glyph-name="ccedilla" unicode="&#xe7;" horiz-adv-x="509" 
d="M267 -220q-21 0 -48.5 3.5t-57.5 8.5v118q21 -5 43 -7.5t34 -2.5q16 0 21.5 6t5.5 14q0 26 -35 78q-203 34 -203 272q0 143 71 211t215 68q45 0 87.5 -4.5t73.5 -13.5v-161q-39 5 -74 8t-65 3q-28 0 -46.5 -5.5t-30 -18.5t-16.5 -33.5t-5 -51.5q0 -62 21 -87.5t75 -25.5
q44 0 76 2.5t65 8.5v-161q-23 -7 -53 -11t-62 -6q22 -29 30.5 -52.5t8.5 -50.5q0 -51 -34.5 -80t-96.5 -29z" />
    <glyph glyph-name="ccircumflex" unicode="&#x109;" horiz-adv-x="509" 
d="M86 738l202 76l204 -76v-136l-203 76l-203 -76v136zM313 -9q-144 0 -215 68t-71 211t71 211t215 68q45 0 87.5 -4.5t73.5 -13.5v-161q-39 5 -74 8t-65 3q-28 0 -46.5 -5.5t-30 -18.5t-16.5 -33.5t-5 -51.5q0 -62 21 -87.5t75 -25.5q44 0 76 2.5t65 8.5v-161
q-31 -9 -73.5 -13.5t-87.5 -4.5z" />
    <glyph glyph-name="cdotaccent" unicode="&#x10b;" horiz-adv-x="509" 
d="M313 -9q-144 0 -215 68t-71 211t71 211t215 68q45 0 87.5 -4.5t73.5 -13.5v-161q-39 5 -74 8t-65 3q-28 0 -46.5 -5.5t-30 -18.5t-16.5 -33.5t-5 -51.5q0 -62 21 -87.5t75 -25.5q44 0 76 2.5t65 8.5v-161q-31 -9 -73.5 -13.5t-87.5 -4.5zM280 596q-60 0 -86 26t-26 83
t26 83t86 26q61 0 86.5 -26t25.5 -83t-25.5 -83t-86.5 -26z" />
    <glyph glyph-name="dotaccent" unicode="&#x2d9;" horiz-adv-x="303" 
d="M150 596q-60 0 -86 26t-26 83t26 83t86 26q61 0 86.5 -26t25.5 -83t-25.5 -83t-86.5 -26z" />
    <glyph glyph-name="cent" unicode="&#xa2;" horiz-adv-x="517" 
d="M254 -6q-115 13 -171.5 80.5t-56.5 195.5t56.5 195.5t171.5 80.5v114h126v-114q26 -2 50 -6t43 -9v-161q-39 5 -74 8t-65 3q-28 0 -46.5 -5.5t-30 -18.5t-16.5 -33.5t-5 -51.5q0 -62 21 -87.5t75 -25.5q44 0 76 2.5t65 8.5v-161q-19 -6 -43 -9.5t-50 -5.5v-114h-126v114z
" />
    <glyph glyph-name="cent.tab" 
d="M314 -5q-128 12 -191 79.5t-63 195.5q0 251 254 275v115h132v-113q30 -2 57 -6.5t49 -9.5v-161q-42 5 -80 8t-72 3t-57 -5.5t-37.5 -18.5t-21 -33.5t-6.5 -51.5q0 -62 27 -87.5t93 -25.5q47 0 82 2.5t72 8.5v-161q-22 -6 -49 -10t-57 -6v-113h-132v115z" />
    <glyph glyph-name="colon" unicode=":" horiz-adv-x="307" 
d="M153 -10q-55 0 -84 25.5t-29 82.5t29 82t84 25q56 0 85.5 -25t29.5 -82q0 -56 -29.5 -82t-85.5 -26zM153 335q-55 0 -84 25.5t-29 82.5t29 82t84 25q56 0 85.5 -25t29.5 -82q0 -56 -29.5 -82t-85.5 -26z" />
    <glyph glyph-name="period" unicode="." horiz-adv-x="287" 
d="M143 -10q-55 0 -84 25.5t-29 82.5t29 82t84 25q56 0 85.5 -25t29.5 -82q0 -56 -29.5 -82t-85.5 -26z" />
    <glyph glyph-name="colon.tab" horiz-adv-x="318" 
d="M159 -10q-54 0 -83 25.5t-29 82.5t28.5 82t83.5 25q54 0 83 -25t29 -82q0 -56 -28.5 -82t-83.5 -26zM159 336q-54 0 -83 25t-29 82t28.5 82t83.5 25q54 0 83 -25t29 -82q0 -56 -28.5 -81.5t-83.5 -25.5z" />
    <glyph glyph-name="colonmonetary" unicode="&#x20a1;" horiz-adv-x="594" 
d="M397 -12q-14 0 -26.5 0.5t-24.5 1.5l-10 -42h-115l15 63q-103 35 -153 123.5t-50 235.5q0 195 88 288.5t263 93.5h15t15 -1l14 57h115l-16 -67l28 -4v-170q-21 2 -37.5 4t-30.5 3l-99 -411h24q34 0 75 3.5t68 9.5v-168q-32 -9 -74 -14.5t-84 -5.5zM254 369
q0 -62 6 -101.5t23 -62.5l89 371q-35 -3 -57.5 -14t-36 -34.5t-19 -62t-5.5 -96.5z" />
    <glyph glyph-name="comma" unicode="," horiz-adv-x="299" 
d="M16 -145l42 346h210l-96 -356z" />
    <glyph glyph-name="comma.tab" horiz-adv-x="318" 
d="M23 -145l43 346h213l-99 -356z" />
    <glyph glyph-name="copyright" unicode="&#xa9;" horiz-adv-x="803" 
d="M417 164q-190 0 -190 205t190 205q24 0 49.5 -3t43.5 -8v-103q-27 5 -46.5 7t-31.5 2q-25 0 -40.5 -5.5t-24 -17.5t-11.5 -31t-3 -45q0 -53 14.5 -77t62.5 -24q11 0 32 2t48 7v-103q-18 -5 -43.5 -8t-49.5 -3zM402 -10q-84 0 -152.5 27.5t-116.5 77.5t-74.5 120
t-26.5 155t26.5 155t74.5 120t116.5 77.5t152.5 27.5t152.5 -27.5t116.5 -77.5t74.5 -120t26.5 -155t-26.5 -155t-74.5 -120t-116.5 -77.5t-152.5 -27.5zM402 88q63 0 112 20t82.5 57t51.5 89t18 116t-18 116t-51.5 89t-82.5 57t-112 20t-112.5 -20t-83 -57t-51.5 -89
t-18 -116t18 -116t51.5 -89t83 -57t112.5 -20z" />
    <glyph glyph-name="currency" unicode="&#xa4;" horiz-adv-x="630" 
d="M36 163l55 54l44 33q-48 48 -48 120q0 73 49 120l-45 34l-55 53l72 73l54 -55l44 -62q49 19 109 19q31 0 58 -5t51 -14l45 62l54 55l72 -73l-55 -53l-47 -34q50 -48 50 -120q0 -36 -13 -66.5t-36 -53.5l46 -33l55 -54l-72 -72l-54 55l-44 60q-47 -19 -110 -19
q-64 0 -110 18l-43 -59l-54 -55zM210 370q0 -41 28.5 -62t76.5 -21t76.5 20.5t28.5 62.5t-28.5 62.5t-76.5 20.5t-76.5 -21t-28.5 -62z" />
    <glyph glyph-name="currency.ss01" horiz-adv-x="702" 
d="M319 -10v-140h-154v147q-24 2 -47.5 3.5t-48.5 4.5v730q24 2 48.5 4t47.5 4v147h154v-140h15h26t25 -1v141h152v-168q66 -24 96.5 -69.5t30.5 -115.5q0 -121 -120 -154v-4q69 -14 105.5 -58t36.5 -116q0 -144 -149 -192v-163h-152v141q-9 -1 -17.5 -1h-17.5h-31zM359 144
q111 0 111 79q0 44 -25 61.5t-87 17.5h-88v-155q6 -1 11.5 -1.5t15 -1t24.5 -0.5h38zM347 444q57 0 79.5 17t22.5 61q0 40 -23 57.5t-76 17.5q-21 0 -41 -1.5t-39 -3.5v-148h77z" />
    <glyph glyph-name="d" unicode="d" horiz-adv-x="649" 
d="M239 -10q-212 0 -212 262q0 149 79 223.5t224 74.5q14 0 28.5 -0.5t31.5 -2.5v261h210v-808h-187l-14 63h-8q-50 -73 -152 -73zM310 140q22 0 37.5 6.5t25 22.5t13.5 42.5t4 67.5v121q-12 5 -29 7t-37 2q-27 0 -43.5 -5t-26 -20t-12.5 -42t-3 -70q0 -41 3 -66.5t10.5 -40
t21.5 -20t36 -5.5z" />
    <glyph glyph-name="dagger" unicode="&#x2020;" horiz-adv-x="602" 
d="M213 265v80l37 141l-193 -22h-32v146h32l193 -22l-37 141v79h177v-79l-38 -141l193 22h33v-146h-33l-193 22l38 -141v-80l-38 -200h-102z" />
    <glyph glyph-name="daggerdbl" unicode="&#x2021;" horiz-adv-x="627" 
d="M225 -118l37 141l-188 -22h-37v146h37l188 -22l-37 141v79l37 141l-188 -22h-37v146h37l188 -22l-37 141v79h177v-79l-38 -141l188 22h38v-146h-38l-188 22l38 -141v-79l-38 -141l188 22h38v-146h-38l-188 22l38 -141v-79h-177v79z" />
    <glyph glyph-name="dcaron" unicode="&#x10f;" horiz-adv-x="650" 
d="M642 808h163l-50 -228h-113v228zM239 -10q-212 0 -212 262q0 149 79 223.5t224 74.5q14 0 28.5 -0.5t31.5 -2.5v261h210v-808h-187l-14 63h-8q-50 -73 -152 -73zM310 140q22 0 37.5 6.5t25 22.5t13.5 42.5t4 67.5v121q-12 5 -29 7t-37 2q-27 0 -43.5 -5t-26 -20
t-12.5 -42t-3 -70q0 -41 3 -66.5t10.5 -40t21.5 -20t36 -5.5z" />
    <glyph glyph-name="dcroat" unicode="&#x111;" horiz-adv-x="650" 
d="M243 734h147v74h210v-74h67v-119h-67v-615h-187l-14 63h-8q-50 -73 -152 -73q-212 0 -212 262q0 149 79 223.5t224 74.5q14 0 28.5 -0.5t31.5 -2.5v68h-147v119zM310 140q22 0 37.5 6.5t25 22.5t13.5 42.5t4 67.5v121q-12 5 -29 7t-37 2q-27 0 -43.5 -5t-26 -20
t-12.5 -42t-3 -70q0 -41 3 -66.5t10.5 -40t21.5 -20t36 -5.5z" />
    <glyph glyph-name="ddotbelow" unicode="&#x1e0d;" horiz-adv-x="649" 
d="M333 -220q-47 0 -66 19t-19 63t19 63t66 19t66 -20t19 -62q0 -43 -19 -62.5t-66 -19.5zM239 -10q-212 0 -212 262q0 149 79 223.5t224 74.5q14 0 28.5 -0.5t31.5 -2.5v261h210v-808h-187l-14 63h-8q-50 -73 -152 -73zM310 140q22 0 37.5 6.5t25 22.5t13.5 42.5t4 67.5
v121q-12 5 -29 7t-37 2q-27 0 -43.5 -5t-26 -20t-12.5 -42t-3 -70q0 -41 3 -66.5t10.5 -40t21.5 -20t36 -5.5z" />
    <glyph glyph-name="degree" unicode="&#xb0;" horiz-adv-x="471" 
d="M236 371q-47 0 -86.5 14t-68 39t-44.5 60t-16 76t16 76t44.5 60.5t68 39.5t86.5 14q48 0 87 -14t67.5 -39.5t44 -60.5t15.5 -76t-15.5 -76t-44 -60t-67.5 -39t-87 -14zM236 476q48 0 70.5 22t22.5 62t-22.5 62.5t-70.5 22.5t-71 -22.5t-23 -62.5t23 -62t71 -22z" />
    <glyph glyph-name="degree.tab" 
d="M318 371q-54 0 -98.5 14t-76.5 39t-50 60t-18 76t18 76t50 60.5t76.5 39.5t98.5 14t98.5 -14t76.5 -39.5t49.5 -60.5t17.5 -76t-17.5 -76t-49.5 -60t-76.5 -39t-98.5 -14zM318 476q57 0 85 22t28 62t-28 62.5t-85 22.5t-85.5 -22.5t-28.5 -62.5t28.5 -62t85.5 -22z" />
    <glyph glyph-name="divide" unicode="&#xf7;" horiz-adv-x="529" 
d="M267 91q-37 0 -60.5 21t-23.5 65q0 42 23.5 62t60.5 20q36 0 59.5 -20t23.5 -62q0 -44 -23.5 -65t-59.5 -21zM28 437h474v-134h-474v134zM267 481q-37 0 -60.5 20t-23.5 62q0 44 23.5 65t60.5 21q36 0 59.5 -21t23.5 -65q0 -42 -23.5 -62t-59.5 -20z" />
    <glyph glyph-name="divide.tab" 
d="M320 91q-40 0 -65.5 21t-25.5 65q0 42 25.5 62t65.5 20q39 0 64.5 -20t25.5 -62q0 -44 -25.5 -65t-64.5 -21zM48 437h539v-134h-539v134zM320 481q-40 0 -65.5 20t-25.5 62q0 44 25.5 65t65.5 21q39 0 64.5 -21t25.5 -65q0 -42 -25.5 -62t-64.5 -20z" />
    <glyph glyph-name="dollar" unicode="$" horiz-adv-x="629" 
d="M228 -9q-47 4 -96 12t-96 20v174q66 -18 128.5 -28t113.5 -10q57 0 81 12.5t24 41.5q0 33 -29 46t-84 23q-52 9 -94 25.5t-72 44.5t-46.5 70.5t-16.5 103.5q0 81 46.5 135t133.5 76v143h185v-133q34 -3 72 -9.5t88 -17.5v-170q-23 7 -50 12.5t-54.5 10t-53.5 7t-47 2.5
q-98 0 -98 -52q0 -36 34 -53t94 -30q51 -11 91 -28t67 -43t41.5 -62t14.5 -86q0 -94 -49 -151.5t-143 -77.5v-139h-185v131z" />
    <glyph glyph-name="dollar.tab" 
d="M230 -9q-49 4 -99.5 11.5t-98.5 20.5v174q67 -18 131 -28t117 -10q59 0 84 12.5t25 41.5q0 16 -8 27t-23 18.5t-37 13t-50 10.5q-53 8 -96 24.5t-73.5 45t-47 71t-16.5 103.5q0 81 48 135t137 76v143h187v-133q35 -3 73.5 -9.5t89.5 -17.5v-170q-24 7 -51.5 12.5
t-55.5 10t-54.5 7t-47.5 2.5q-103 0 -103 -52q0 -36 35 -52t98 -31q52 -11 93 -28t69 -43t42.5 -62t14.5 -86q0 -93 -49.5 -150.5t-146.5 -78.5v-139h-187v131z" />
    <glyph glyph-name="dotlessi" unicode="&#x131;" horiz-adv-x="307" 
d="M49 540h210v-540h-210v540z" />
    <glyph glyph-name="dotlessj" unicode="&#x237;" horiz-adv-x="305" 
d="M12 -199q12 47 19.5 86.5t12 82t6.5 95t2 125.5v53.5t-1 68.5t-2 95t-2 133h210v-472q-9 -78 -30.5 -147.5t-59.5 -140.5z" />
    <glyph glyph-name="e" unicode="e" horiz-adv-x="585" 
d="M311 -9q-284 0 -284 276q0 282 287 282q124 0 184 -60.5t60 -187.5q0 -28 -2 -48t-7 -40h-313q2 -22 7.5 -35t16 -20t27.5 -9t41 -2q21 0 46.5 2t53 5t54.5 7t50 9l5 -148q-48 -14 -108.5 -22.5t-117.5 -8.5zM305 403q-35 0 -50.5 -17t-19.5 -65h139q-2 46 -17.5 64
t-51.5 18z" />
    <glyph glyph-name="eacute" unicode="&#xe9;" horiz-adv-x="585" 
d="M234 619l63 189h215l-128 -199zM311 -9q-284 0 -284 276q0 282 287 282q124 0 184 -60.5t60 -187.5q0 -28 -2 -48t-7 -40h-313q2 -22 7.5 -35t16 -20t27.5 -9t41 -2q21 0 46.5 2t53 5t54.5 7t50 9l5 -148q-48 -14 -108.5 -22.5t-117.5 -8.5zM305 403q-35 0 -50.5 -17
t-19.5 -65h139q-2 46 -17.5 64t-51.5 18z" />
    <glyph glyph-name="ebreve" unicode="&#x115;" horiz-adv-x="585" 
d="M311 -9q-284 0 -284 276q0 282 287 282q124 0 184 -60.5t60 -187.5q0 -28 -2 -48t-7 -40h-313q2 -22 7.5 -35t16 -20t27.5 -9t41 -2q21 0 46.5 2t53 5t54.5 7t50 9l5 -148q-48 -14 -108.5 -22.5t-117.5 -8.5zM305 403q-35 0 -50.5 -17t-19.5 -65h139q-2 46 -17.5 64
t-51.5 18zM299 611q-59 0 -100.5 13t-68 36.5t-39.5 56.5t-14 74h138q0 -39 18 -59.5t66 -20.5t65.5 20.5t18.5 59.5h138q-2 -41 -14.5 -74.5t-39 -57t-68 -36t-100.5 -12.5z" />
    <glyph glyph-name="ecaron" unicode="&#x11b;" horiz-adv-x="585" 
d="M101 814l203 -76l203 76v-136l-204 -76l-202 76v136zM311 -9q-284 0 -284 276q0 282 287 282q124 0 184 -60.5t60 -187.5q0 -28 -2 -48t-7 -40h-313q2 -22 7.5 -35t16 -20t27.5 -9t41 -2q21 0 46.5 2t53 5t54.5 7t50 9l5 -148q-48 -14 -108.5 -22.5t-117.5 -8.5zM305 403
q-35 0 -50.5 -17t-19.5 -65h139q-2 46 -17.5 64t-51.5 18z" />
    <glyph glyph-name="ecircumflex" unicode="&#xea;" horiz-adv-x="585" 
d="M105 738l202 76l204 -76v-136l-203 76l-203 -76v136zM311 -9q-284 0 -284 276q0 282 287 282q124 0 184 -60.5t60 -187.5q0 -28 -2 -48t-7 -40h-313q2 -22 7.5 -35t16 -20t27.5 -9t41 -2q21 0 46.5 2t53 5t54.5 7t50 9l5 -148q-48 -14 -108.5 -22.5t-117.5 -8.5zM305 403
q-35 0 -50.5 -17t-19.5 -65h139q-2 46 -17.5 64t-51.5 18z" />
    <glyph glyph-name="edblgrave" unicode="&#x205;" horiz-adv-x="585" 
d="M124 609l-128 199h194l62 -189zM349 609l-128 199h194l63 -189zM311 -9q-284 0 -284 276q0 282 287 282q124 0 184 -60.5t60 -187.5q0 -28 -2 -48t-7 -40h-313q2 -22 7.5 -35t16 -20t27.5 -9t41 -2q21 0 46.5 2t53 5t54.5 7t50 9l5 -148q-48 -14 -108.5 -22.5
t-117.5 -8.5zM305 403q-35 0 -50.5 -17t-19.5 -65h139q-2 46 -17.5 64t-51.5 18z" />
    <glyph glyph-name="edieresis" unicode="&#xeb;" horiz-adv-x="585" 
d="M162 607q-54 0 -77.5 23.5t-23.5 74.5t23.5 74t77.5 23t77.5 -23t23.5 -74t-23.5 -74.5t-77.5 -23.5zM432 607q-54 0 -77 23.5t-23 74.5t23 74t77 23t77.5 -23t23.5 -74t-23.5 -74.5t-77.5 -23.5zM311 -9q-284 0 -284 276q0 282 287 282q124 0 184 -60.5t60 -187.5
q0 -28 -2 -48t-7 -40h-313q2 -22 7.5 -35t16 -20t27.5 -9t41 -2q21 0 46.5 2t53 5t54.5 7t50 9l5 -148q-48 -14 -108.5 -22.5t-117.5 -8.5zM305 403q-35 0 -50.5 -17t-19.5 -65h139q-2 46 -17.5 64t-51.5 18z" />
    <glyph glyph-name="edotaccent" unicode="&#x117;" horiz-adv-x="585" 
d="M311 -9q-284 0 -284 276q0 282 287 282q124 0 184 -60.5t60 -187.5q0 -28 -2 -48t-7 -40h-313q2 -22 7.5 -35t16 -20t27.5 -9t41 -2q21 0 46.5 2t53 5t54.5 7t50 9l5 -148q-48 -14 -108.5 -22.5t-117.5 -8.5zM305 403q-35 0 -50.5 -17t-19.5 -65h139q-2 46 -17.5 64
t-51.5 18zM305 596q-60 0 -86 26t-26 83t26 83t86 26q61 0 86.5 -26t25.5 -83t-25.5 -83t-86.5 -26z" />
    <glyph glyph-name="edotbelow" unicode="&#x1eb9;" horiz-adv-x="585" 
d="M311 -9q-284 0 -284 276q0 282 287 282q124 0 184 -60.5t60 -187.5q0 -28 -2 -48t-7 -40h-313q2 -22 7.5 -35t16 -20t27.5 -9t41 -2q21 0 46.5 2t53 5t54.5 7t50 9l5 -148q-48 -14 -108.5 -22.5t-117.5 -8.5zM305 403q-35 0 -50.5 -17t-19.5 -65h139q-2 46 -17.5 64
t-51.5 18zM305 -220q-47 0 -66 19t-19 63t19 63t66 19t66 -20t19 -62q0 -43 -19 -62.5t-66 -19.5z" />
    <glyph glyph-name="egrave" unicode="&#xe8;" horiz-adv-x="585" 
d="M311 -9q-284 0 -284 276q0 282 287 282q124 0 184 -60.5t60 -187.5q0 -28 -2 -48t-7 -40h-313q2 -22 7.5 -35t16 -20t27.5 -9t41 -2q21 0 46.5 2t53 5t54.5 7t50 9l5 -148q-48 -14 -108.5 -22.5t-117.5 -8.5zM305 403q-35 0 -50.5 -17t-19.5 -65h139q-2 46 -17.5 64
t-51.5 18zM220 609l-128 199h215l63 -189z" />
    <glyph glyph-name="eight" unicode="8" horiz-adv-x="665" 
d="M334 -7q-79 0 -136 13.5t-94 38.5t-54.5 61t-17.5 81q0 63 27.5 107.5t85.5 75.5q-39 26 -64.5 67.5t-25.5 111.5q0 45 20.5 82t58.5 63t90.5 40.5t117.5 14.5q63 0 113.5 -14.5t85.5 -40.5t54 -63t19 -82q0 -53 -18.5 -87.5t-68.5 -65.5q22 -12 41 -27.5t33.5 -37.5
t22.5 -50t8 -65q0 -104 -72 -163.5t-226 -59.5zM433 201q0 25 -11.5 43t-30.5 30.5t-45 21.5t-54 17q-27 -20 -44 -43.5t-17 -54.5q0 -42 27.5 -63.5t75.5 -21.5t73.5 18t25.5 53zM243 536q0 -21 10.5 -35.5t28.5 -25t42.5 -17.5t52.5 -14q26 21 37.5 44.5t11.5 50.5
q0 34 -24.5 52.5t-67.5 18.5q-42 0 -66.5 -19t-24.5 -55z" />
    <glyph glyph-name="eight.denominator" horiz-adv-x="527" 
d="M266 -4q-119 0 -180.5 38t-61.5 111q0 84 72 130q-59 42 -59 123q0 72 61.5 113.5t167.5 41.5q51 0 92 -11t70 -31.5t44.5 -49t15.5 -63.5q0 -38 -11.5 -62t-39.5 -43q33 -22 49.5 -53t16.5 -75q0 -169 -237 -169zM266 117q71 0 71 50q0 17 -20.5 30.5t-69.5 27.5l-16 5
q-42 -32 -42 -61q0 -24 20.5 -38t56.5 -14zM291 329q16 10 25 25.5t9 33.5q0 20 -15.5 31.5t-43.5 11.5q-31 0 -48.5 -11.5t-17.5 -31.5q0 -22 18 -35t57 -21z" />
    <glyph glyph-name="eight.numerator" horiz-adv-x="527" 
d="M266 196q-119 0 -180.5 38t-61.5 111q0 84 72 130q-59 42 -59 123q0 72 61.5 113.5t167.5 41.5q51 0 92 -11t70 -31.5t44.5 -49t15.5 -63.5q0 -38 -11.5 -62t-39.5 -43q33 -22 49.5 -53t16.5 -75q0 -169 -237 -169zM266 317q71 0 71 50q0 17 -20.5 30.5t-69.5 27.5l-16 5
q-42 -32 -42 -61q0 -24 20.5 -38t56.5 -14zM291 529q16 10 25 25.5t9 33.5q0 20 -15.5 31.5t-43.5 11.5q-31 0 -48.5 -11.5t-17.5 -31.5q0 -22 18 -35t57 -21z" />
    <glyph glyph-name="eight.osf" horiz-adv-x="660" 
d="M332 -7q-150 0 -226.5 45.5t-76.5 134.5q0 57 27.5 99t87.5 71q-44 26 -67.5 64.5t-23.5 100.5q0 41 20.5 75t58.5 58.5t90.5 38t117.5 13.5q62 0 112 -13t85.5 -37.5t54.5 -58.5t19 -76q0 -50 -19.5 -83t-72.5 -61q54 -25 82 -62.5t28 -102.5q0 -101 -75 -153.5
t-222 -52.5zM428 186q0 42 -35.5 64t-101.5 40q-29 -20 -44.5 -42.5t-15.5 -48.5q0 -34 27.5 -51.5t73.5 -17.5q42 0 69 14t27 42zM243 491q0 -19 10.5 -31.5t28 -21.5t41 -16t50.5 -13q48 34 48 84q0 29 -23.5 45.5t-65.5 16.5t-65.5 -17t-23.5 -47z" />
    <glyph glyph-name="eight.tf" 
d="M319 -7q-154 0 -224.5 52t-70.5 142q0 63 26 107.5t83 76.5q-38 25 -62 66.5t-24 111.5q0 45 20 82t56.5 63t88.5 40.5t115 14.5q62 0 111 -14.5t83.5 -40.5t53 -63t18.5 -82q0 -53 -17.5 -88t-67.5 -65q22 -12 40.5 -27.5t32 -37.5t21.5 -50t8 -65q0 -104 -70 -163.5
t-221 -59.5zM319 130q94 0 94 71q0 25 -10.5 42t-29 29.5t-43.5 21.5t-54 18q-26 -20 -40.5 -43.5t-14.5 -53.5q0 -42 26.5 -63.5t71.5 -21.5zM319 610q-39 0 -62.5 -19t-23.5 -55q0 -21 10 -35.5t27.5 -24.5t41 -17.5t50.5 -13.5q24 20 34.5 44t10.5 50q0 34 -23.5 52.5
t-64.5 18.5z" />
    <glyph glyph-name="eight.tosf" 
d="M316 -7q-144 0 -218 46t-74 134q0 57 27 98.5t84 71.5q-42 25 -65 64.5t-23 94.5q0 46 21 81.5t58.5 60t88.5 37t111 12.5q61 0 110 -13t84 -37.5t54 -59.5t19 -79q0 -48 -19.5 -80t-70.5 -61q54 -26 80.5 -64t26.5 -100q0 -102 -73.5 -154t-220.5 -52zM320 130
q40 0 65 13.5t25 45.5q0 23 -14.5 39.5t-35 28t-43 19t-38.5 12.5q-26 -19 -40.5 -41.5t-14.5 -45.5q0 -36 26 -53.5t70 -17.5zM318 555q-38 0 -60.5 -17t-22.5 -48q0 -18 10 -30t27 -21t39.5 -16t47.5 -13q45 34 45 83q0 29 -22.5 45.5t-63.5 16.5z" />
    <glyph glyph-name="eightinferior" unicode="&#x2088;" horiz-adv-x="527" 
d="M266 -104q-119 0 -180.5 38t-61.5 111q0 84 72 130q-59 42 -59 123q0 72 61.5 113.5t167.5 41.5q51 0 92 -11t70 -31.5t44.5 -49t15.5 -63.5q0 -38 -11.5 -62t-39.5 -43q33 -22 49.5 -53t16.5 -75q0 -169 -237 -169zM266 17q71 0 71 50q0 17 -20.5 30.5t-69.5 27.5l-16 5
q-42 -32 -42 -61q0 -24 20.5 -38t56.5 -14zM291 229q16 10 25 25.5t9 33.5q0 20 -15.5 31.5t-43.5 11.5q-31 0 -48.5 -11.5t-17.5 -31.5q0 -22 18 -35t57 -21z" />
    <glyph glyph-name="eightsuperior" unicode="&#x2078;" horiz-adv-x="527" 
d="M266 296q-119 0 -180.5 38t-61.5 111q0 84 72 130q-59 42 -59 123q0 72 61.5 113.5t167.5 41.5q51 0 92 -11t70 -31.5t44.5 -49t15.5 -63.5q0 -38 -11.5 -62t-39.5 -43q33 -22 49.5 -53t16.5 -75q0 -169 -237 -169zM266 417q71 0 71 50q0 17 -20.5 30.5t-69.5 27.5l-16 5
q-42 -32 -42 -61q0 -24 20.5 -38t56.5 -14zM291 629q16 10 25 25.5t9 33.5q0 20 -15.5 31.5t-43.5 11.5q-31 0 -48.5 -11.5t-17.5 -31.5q0 -22 18 -35t57 -21z" />
    <glyph glyph-name="einvertedbreve" unicode="&#x207;" horiz-adv-x="585" 
d="M80 621q1 40 13.5 73.5t39 57t68.5 36.5t101 13t100.5 -12.5t68 -36t39 -57t14.5 -74.5h-138q-1 41 -19.5 60t-64.5 19t-65 -19t-20 -60h-137zM311 -9q-284 0 -284 276q0 282 287 282q124 0 184 -60.5t60 -187.5q0 -28 -2 -48t-7 -40h-313q2 -22 7.5 -35t16 -20t27.5 -9
t41 -2q21 0 46.5 2t53 5t54.5 7t50 9l5 -148q-48 -14 -108.5 -22.5t-117.5 -8.5zM305 403q-35 0 -50.5 -17t-19.5 -65h139q-2 46 -17.5 64t-51.5 18z" />
    <glyph glyph-name="ellipsis" unicode="&#x2026;" horiz-adv-x="919" 
d="M143 -10q-55 0 -84 25.5t-29 82.5t29 82t84 25q56 0 85.5 -25t29.5 -82q0 -56 -29.5 -82t-85.5 -26zM460 -10q-55 0 -84 25.5t-29 82.5t29 82t84 25q56 0 85.5 -25t29.5 -82q0 -56 -29.5 -82t-85.5 -26zM775 -10q-55 0 -84 25.5t-29 82.5t29 82t84 25q56 0 85.5 -25
t29.5 -82q0 -56 -29.5 -82t-85.5 -26z" />
    <glyph glyph-name="emacron" unicode="&#x113;" horiz-adv-x="585" 
d="M311 -9q-284 0 -284 276q0 282 287 282q124 0 184 -60.5t60 -187.5q0 -28 -2 -48t-7 -40h-313q2 -22 7.5 -35t16 -20t27.5 -9t41 -2q21 0 46.5 2t53 5t54.5 7t50 9l5 -148q-48 -14 -108.5 -22.5t-117.5 -8.5zM305 403q-35 0 -50.5 -17t-19.5 -65h139q-2 46 -17.5 64
t-51.5 18zM95 761h405v-131h-405v131z" />
    <glyph glyph-name="emdash" unicode="&#x2014;" horiz-adv-x="828" 
d="M46 356h736v-151h-736v151z" />
    <glyph glyph-name="endash" unicode="&#x2013;" horiz-adv-x="657" 
d="M46 356h565v-151h-565v151z" />
    <glyph glyph-name="eng" unicode="&#x14b;" horiz-adv-x="647" 
d="M353 -199q10 38 17 75.5t12 77.5t7.5 84.5t2.5 96.5v163q0 41 -7.5 53.5t-33.5 12.5q-21 0 -44.5 -3t-47.5 -10v-351h-210v540h177l10 -58h4q70 37 119 52.5t95 15.5q67 0 107.5 -40t40.5 -109v-335q-5 -73 -29.5 -149t-59.5 -137z" />
    <glyph glyph-name="eogonek" unicode="&#x119;" horiz-adv-x="586" 
d="M311 -9q-284 0 -284 276q0 282 287 282q124 0 184 -60.5t60 -187.5q0 -28 -2 -48t-7 -40h-313q2 -22 7.5 -35t16 -20t27.5 -9t41 -2q21 0 46.5 2t53 5t54.5 7t50 9l5 -146v-6q-34 -13 -56.5 -25t-36 -22.5t-19 -20t-5.5 -17.5q0 -19 30 -19q16 0 41.5 4.5t46.5 10.5v-114
q-24 -6 -47 -9t-49 -3q-75 0 -115 25.5t-40 74.5q0 47 39 88h-15zM305 403q-35 0 -50.5 -17t-19.5 -65h139q-2 46 -17.5 64t-51.5 18z" />
    <glyph glyph-name="equal" unicode="=" horiz-adv-x="544" 
d="M50 305h444v-138h-444v138zM50 528h444v-138h-444v138z" />
    <glyph glyph-name="equal.tab" 
d="M75 305h485v-138h-485v138zM75 528h485v-138h-485v138z" />
    <glyph glyph-name="estimated" unicode="&#x212e;" horiz-adv-x="639" 
d="M326 1q-62 0 -114.5 23.5t-90.5 65.5t-60 99t-22 124q0 69 21 126.5t59 99t91 64.5t116 23t114.5 -22t89 -63t59.5 -98.5t25 -129.5h-447v-205q64 -66 159 -66q140 0 218 136l40 -24q-56 -80 -118 -116.5t-140 -36.5zM486 354v164q-71 68 -161 68q-93 0 -158 -68v-164
h319z" />
    <glyph glyph-name="eth" unicode="&#xf0;" horiz-adv-x="646" 
d="M183 713l99 9q-19 22 -40 43.5t-44 42.5h212q11 -14 25.5 -31t31.5 -39l161 15v-123l-89 -8q30 -63 51.5 -143.5t21.5 -182.5q0 -154 -74.5 -230.5t-219.5 -76.5q-142 0 -217 71.5t-75 208.5t73 209.5t206 72.5q28 0 50 -5t42 -19q-14 39 -36 79l-178 -16v123zM319 147
q25 0 41 5t25.5 18.5t13 36.5t3.5 60q0 39 -4.5 63t-14 38t-26 19t-40.5 5q-25 0 -40.5 -5t-24.5 -18.5t-12.5 -37t-3.5 -61.5q0 -39 3.5 -63t13 -37.5t25.5 -18t41 -4.5z" />
    <glyph glyph-name="etilde" unicode="&#x1ebd;" horiz-adv-x="585" 
d="M311 -9q-284 0 -284 276q0 282 287 282q124 0 184 -60.5t60 -187.5q0 -28 -2 -48t-7 -40h-313q2 -22 7.5 -35t16 -20t27.5 -9t41 -2q21 0 46.5 2t53 5t54.5 7t50 9l5 -148q-48 -14 -108.5 -22.5t-117.5 -8.5zM305 403q-35 0 -50.5 -17t-19.5 -65h139q-2 46 -17.5 64
t-51.5 18zM69 660q35 68 80.5 100.5t87.5 32.5q24 0 48 -7.5t48 -16t48.5 -16t48.5 -7.5q21 0 41 8t46 32l28 -40q-35 -68 -80.5 -100.5t-86.5 -32.5q-24 0 -48.5 7t-48.5 16t-48.5 16t-48.5 7q-21 0 -41 -7.5t-45 -30.5z" />
    <glyph glyph-name="exclam" unicode="!" horiz-adv-x="312" 
d="M156 -10q-51 0 -78.5 26t-27.5 74t27.5 74t78.5 26t78.5 -26t27.5 -74t-27.5 -74t-78.5 -26zM93 287l-43 443v10h213v-10l-42 -443v-10h-128v10z" />
    <glyph glyph-name="exclamdown" unicode="&#xa1;" horiz-adv-x="296" 
d="M148 550q51 0 78.5 -26t27.5 -74t-27.5 -74t-78.5 -26t-78.5 26t-27.5 74t27.5 74t78.5 26zM85 263h128v-10l42 -443v-10h-213v10l43 443v10z" />
    <glyph glyph-name="f" unicode="f" horiz-adv-x="469" 
d="M115 366h-102v174h103v23q0 69 18.5 117t60 78t108.5 44t163 15l11 -152q-84 -2 -118 -22.5t-34 -69.5v-33h133v-174h-133v-366h-210v366z" />
    <glyph glyph-name="f.calt" horiz-adv-x="469" 
d="M115 366h-102v174h103v23q0 69 18.5 117t60 78t108.5 44t163 15l11 -152q-84 -2 -118 -22.5t-34 -69.5v-33h133v-174h-133v-366h-210v366z" />
    <glyph glyph-name="h" unicode="h" horiz-adv-x="648" 
d="M49 808h210v-319q63 32 108 46.5t87 14.5q67 0 107.5 -40.5t40.5 -108.5v-401h-210v328q0 54 -43 54q-15 0 -39.5 -5.5t-50.5 -15.5v-361h-210v808z" />
    <glyph glyph-name="i" unicode="i" horiz-adv-x="307" 
d="M154 596q-60 0 -86 25.5t-26 83.5q0 57 26 83t86 26q61 0 86.5 -26t25.5 -83q0 -56 -25.5 -82.5t-86.5 -26.5zM49 540h210v-540h-210v540z" />
    <glyph glyph-name="j" unicode="j" horiz-adv-x="306" 
d="M153 596q-60 0 -85.5 25.5t-25.5 83.5q0 57 25.5 83t85.5 26q61 0 87 -26t26 -83q0 -56 -25.5 -82.5t-87.5 -26.5zM16 -192q9 37 15.5 74t11 78.5t6.5 88t2 103.5v34v59.5t-0.5 75.5t-1 81t-1 76.5t-0.5 61.5h210v-471q-5 -74 -30 -150.5t-62 -138.5z" />
    <glyph glyph-name="k" unicode="k" horiz-adv-x="622" 
d="M49 808h210v-461h33l100 193h228l-158 -251l-28 -8v-4l28 -8l176 -269h-229l-118 211h-32v-211h-210v808z" />
    <glyph glyph-name="l" unicode="l" horiz-adv-x="307" 
d="M49 808h210v-808h-210v808z" />
    <glyph glyph-name="t" unicode="t" horiz-adv-x="448" 
d="M298 -12q-100 0 -151 45t-51 131v202h-80v174h94l30 168l165 17v-185h114v-174h-113v-151q0 -41 13.5 -56t46.5 -15q23 0 54 11v-152q-22 -7 -55 -11t-67 -4z" />
    <glyph glyph-name="five" unicode="5" horiz-adv-x="580" 
d="M227 -12q-43 0 -88.5 4t-98.5 12v163h45q64 -12 116 -12q69 0 102 16.5t33 62.5q0 23 -9.5 38t-33 23.5t-62 12t-96.5 3.5h-75l-14 14l29 415h431v-168h-272l-6 -112q83 -1 144.5 -13.5t102.5 -39.5t61.5 -71t20.5 -108q0 -65 -26.5 -111t-71.5 -74.5t-105 -41.5
t-127 -13z" />
    <glyph glyph-name="five.denominator" horiz-adv-x="461" 
d="M180 -8q-65 0 -150 12v138h38q26 -5 48 -6.5t44 -1.5q52 0 76 9t24 32q0 15 -6 24.5t-20.5 15.5t-39 8t-60.5 2h-82l-18 15l25 306h345v-142h-215l-4 -60q70 -1 119 -10.5t80 -29.5t45 -52t14 -78q0 -50 -21 -84.5t-57 -56.5t-84 -31.5t-101 -9.5z" />
    <glyph glyph-name="five.numerator" horiz-adv-x="461" 
d="M180 192q-33 0 -70 3.5t-80 8.5v138h38q26 -5 48 -6.5t44 -1.5q52 0 76 9t24 32q0 15 -6 24.5t-20.5 15.5t-39 8t-60.5 2h-82l-18 15l25 306h345v-142h-215l-4 -60q70 -1 119 -10.5t80 -29.5t45 -52t14 -78q0 -50 -21 -84.5t-57 -56.5t-84 -31.5t-101 -9.5z" />
    <glyph glyph-name="five.osf" horiz-adv-x="566" 
d="M219 -169q-43 0 -88.5 4t-98.5 12v164h45q62 -13 116 -13q69 0 102 16.5t33 63.5q0 23 -9.5 38t-33 23.5t-62 12t-96.5 3.5h-75l-14 14l29 415h441v-168h-282l-6 -112q83 -1 144.5 -13.5t102.5 -40t61.5 -71t20.5 -107.5q0 -66 -26.5 -111.5t-71.5 -74.5t-105 -42
t-127 -13z" />
    <glyph glyph-name="five.tf" 
d="M251 -12q-44 0 -91 4t-101 12v163h46q66 -12 121 -12q73 0 108 16.5t35 62.5q0 23 -10 38t-34.5 23.5t-65 12t-101.5 3.5h-78l-15 14l31 415h445v-168h-284l-7 -112q87 -1 151 -13.5t107 -39.5t64 -71t21 -108q0 -65 -27.5 -111t-74 -74.5t-108.5 -41.5t-132 -13z" />
    <glyph glyph-name="five.tosf" 
d="M250 -169q-44 0 -91 4t-101 12v164h46q64 -13 121 -13q73 0 108 16.5t35 63.5q0 23 -10 38t-34.5 23.5t-65 12t-101.5 3.5h-78l-15 14l31 415h455v-168h-294l-7 -112q87 -1 151 -13.5t107 -40t64 -71t21 -107.5q0 -66 -27.5 -111.5t-74 -74.5t-108.5 -42t-132 -13z" />
    <glyph glyph-name="fiveeighths" unicode="&#x215d;" horiz-adv-x="1250" 
d="M189 192q-33 0 -70 3.5t-80 8.5v138h38q26 -5 48 -6.5t44 -1.5q52 0 76 9t24 32q0 15 -6 24.5t-20.5 15.5t-39 8t-60.5 2h-82l-18 15l25 306h345v-142h-215l-4 -60q70 -1 119 -10.5t80 -29.5t45 -52t14 -78q0 -50 -21 -84.5t-57 -56.5t-84 -31.5t-101 -9.5zM670 740h174
l-316 -740h-175zM987 -4q-119 0 -180.5 38t-61.5 111q0 84 72 130q-59 42 -59 123q0 72 61.5 113.5t167.5 41.5q51 0 92 -11t70 -31.5t44.5 -49t15.5 -63.5q0 -38 -11.5 -62t-39.5 -43q33 -22 49.5 -53t16.5 -75q0 -169 -237 -169zM987 117q71 0 71 50q0 17 -20.5 30.5
t-69.5 27.5l-16 5q-42 -32 -42 -61q0 -24 20.5 -38t56.5 -14zM1012 329q16 10 25 25.5t9 33.5q0 20 -15.5 31.5t-43.5 11.5q-31 0 -48.5 -11.5t-17.5 -31.5q0 -22 18 -35t57 -21z" />
    <glyph glyph-name="fraction" unicode="&#x2044;" horiz-adv-x="323" 
d="M232 740h174l-316 -740h-175z" />
    <glyph glyph-name="fiveinferior" unicode="&#x2085;" horiz-adv-x="461" 
d="M180 -108q-33 0 -70 3t-80 8v139h38q26 -5 48 -6.5t44 -1.5q52 0 76 9t24 32q0 15 -6 24.5t-20.5 15.5t-39 8t-60.5 2h-82l-18 15l25 306h345v-142h-215l-4 -60q70 -1 119 -10.5t80 -29.5t45 -52t14 -78q0 -50 -21 -84.5t-57 -56.5t-84 -31.5t-101 -9.5z" />
    <glyph glyph-name="fivesuperior" unicode="&#x2075;" horiz-adv-x="461" 
d="M180 292q-33 0 -70 3.5t-80 8.5v138h38q26 -5 48 -6.5t44 -1.5q52 0 76 9t24 32q0 15 -6 24.5t-20.5 15.5t-39 8t-60.5 2h-82l-18 15l25 306h345v-142h-215l-4 -60q70 -1 119 -10.5t80 -29.5t45 -52t14 -78q0 -50 -21 -84.5t-57 -56.5t-84 -31.5t-101 -9.5z" />
    <glyph glyph-name="florin" unicode="&#x192;" horiz-adv-x="510" 
d="M131 366h-101v174h102v23q0 69 18.5 117t60.5 78t109 44t163 15l11 -152q-85 -2 -119 -22.5t-34 -69.5v-33h134v-174h-134v-525l-210 -61v586z" />
    <glyph glyph-name="four" unicode="4" horiz-adv-x="665" 
d="M9 263v9l240 478h4l215 -15l9 -14l-254 -426v-4h132l41 162h156v-162h96v-158h-96v-133h-213v133h-311z" />
    <glyph glyph-name="four.denominator" horiz-adv-x="520" 
d="M254 94h-231l-17 109l184 336l15 9l155 -10l14 -27l-192 -286h86l46 119h117v-119h75v-131h-75v-94h-177v94z" />
    <glyph glyph-name="four.numerator" horiz-adv-x="520" 
d="M254 294h-231l-17 109l184 336l15 9l155 -10l14 -27l-192 -286h86l46 119h117v-119h75v-131h-75v-94h-177v94z" />
    <glyph glyph-name="four.osf" horiz-adv-x="659" 
d="M7 130v9l240 457h4l214 -15l10 -14l-255 -405v-4h133l41 157h155v-157h97v-159h-97v-164h-212v164h-311z" />
    <glyph glyph-name="four.tf" 
d="M-1 263v9l236 478h4l213 -15l10 -14l-250 -426v-4h126l41 162h155v-162h93v-158h-93v-133h-212v133h-304z" />
    <glyph glyph-name="four.tosf" 
d="M1 130v9l235 457h4l213 -15l10 -14l-250 -405v-4h126l10 35l31 122h155v-157h93v-159h-93v-164h-212v164h-304z" />
    <glyph glyph-name="fourinferior" unicode="&#x2084;" horiz-adv-x="520" 
d="M254 -6h-231l-17 109l184 336l15 9l155 -10l14 -27l-192 -286h86l46 119h117v-119h75v-131h-75v-94h-177v94z" />
    <glyph glyph-name="foursuperior" unicode="&#x2074;" horiz-adv-x="520" 
d="M254 394h-231l-17 109l184 336l15 9l155 -10l14 -27l-192 -286h86l46 119h117v-119h75v-131h-75v-94h-177v94z" />
    <glyph glyph-name="franc" unicode="&#x20a3;" horiz-adv-x="696" 
d="M25 213h103v527h539v-169h-324v-116h288v-169h-288v-73h124v-124h-124v-89h-215v89h-103v124z" />
    <glyph glyph-name="g" unicode="g" horiz-adv-x="648" 
d="M283 -220q-55 0 -114.5 5.5t-104.5 16.5l13 148q38 -7 82.5 -12.5t87.5 -5.5q34 0 63 5.5t49 19t31.5 35.5t11.5 55v50h-7q-25 -38 -63.5 -56t-89.5 -18q-214 0 -214 237q0 144 79.5 217t223.5 73q24 0 49.5 -2t57 -7.5t71 -14.5t92.5 -24v-427q0 -78 -24 -134
t-66.5 -91.5t-100.5 -52.5t-127 -17zM311 167q23 0 38.5 6.5t24.5 22.5t13 41.5t4 63.5v99q-12 5 -29 7t-37 2q-27 0 -43.5 -4.5t-26 -18.5t-12.5 -39.5t-3 -67.5q0 -34 3 -56t10.5 -34.5t21.5 -17t36 -4.5z" />
    <glyph glyph-name="gacute" unicode="&#x1f5;" horiz-adv-x="648" 
d="M257 619l63 189h215l-128 -199zM283 -220q-55 0 -114.5 5.5t-104.5 16.5l13 148q38 -7 82.5 -12.5t87.5 -5.5q34 0 63 5.5t49 19t31.5 35.5t11.5 55v50h-7q-25 -38 -63.5 -56t-89.5 -18q-214 0 -214 237q0 144 79.5 217t223.5 73q24 0 49.5 -2t57 -7.5t71 -14.5t92.5 -24
v-427q0 -78 -24 -134t-66.5 -91.5t-100.5 -52.5t-127 -17zM311 167q23 0 38.5 6.5t24.5 22.5t13 41.5t4 63.5v99q-12 5 -29 7t-37 2q-27 0 -43.5 -4.5t-26 -18.5t-12.5 -39.5t-3 -67.5q0 -34 3 -56t10.5 -34.5t21.5 -17t36 -4.5z" />
    <glyph glyph-name="gbreve" unicode="&#x11f;" horiz-adv-x="648" 
d="M283 -220q-55 0 -114.5 5.5t-104.5 16.5l13 148q38 -7 82.5 -12.5t87.5 -5.5q34 0 63 5.5t49 19t31.5 35.5t11.5 55v50h-7q-25 -38 -63.5 -56t-89.5 -18q-214 0 -214 237q0 144 79.5 217t223.5 73q24 0 49.5 -2t57 -7.5t71 -14.5t92.5 -24v-427q0 -78 -24 -134
t-66.5 -91.5t-100.5 -52.5t-127 -17zM311 167q23 0 38.5 6.5t24.5 22.5t13 41.5t4 63.5v99q-12 5 -29 7t-37 2q-27 0 -43.5 -4.5t-26 -18.5t-12.5 -39.5t-3 -67.5q0 -34 3 -56t10.5 -34.5t21.5 -17t36 -4.5zM330 611q-59 0 -100.5 13t-68 36.5t-39.5 56.5t-14 74h138
q0 -39 18 -59.5t66 -20.5t65.5 20.5t18.5 59.5h138q-2 -41 -14.5 -74.5t-39 -57t-68 -36t-100.5 -12.5z" />
    <glyph glyph-name="gcircumflex" unicode="&#x11d;" horiz-adv-x="648" 
d="M139 738l202 76l204 -76v-136l-203 76l-203 -76v136zM283 -220q-55 0 -114.5 5.5t-104.5 16.5l13 148q38 -7 82.5 -12.5t87.5 -5.5q34 0 63 5.5t49 19t31.5 35.5t11.5 55v50h-7q-25 -38 -63.5 -56t-89.5 -18q-214 0 -214 237q0 144 79.5 217t223.5 73q24 0 49.5 -2
t57 -7.5t71 -14.5t92.5 -24v-427q0 -78 -24 -134t-66.5 -91.5t-100.5 -52.5t-127 -17zM311 167q23 0 38.5 6.5t24.5 22.5t13 41.5t4 63.5v99q-12 5 -29 7t-37 2q-27 0 -43.5 -4.5t-26 -18.5t-12.5 -39.5t-3 -67.5q0 -34 3 -56t10.5 -34.5t21.5 -17t36 -4.5z" />
    <glyph glyph-name="gcommaaccent" unicode="&#x123;" horiz-adv-x="648" 
d="M495 770l-40 -150h-215l99 150h156zM283 -220q-55 0 -114.5 5.5t-104.5 16.5l13 148q38 -7 82.5 -12.5t87.5 -5.5q34 0 63 5.5t49 19t31.5 35.5t11.5 55v50h-7q-25 -38 -63.5 -56t-89.5 -18q-214 0 -214 237q0 144 79.5 217t223.5 73q24 0 49.5 -2t57 -7.5t71 -14.5
t92.5 -24v-427q0 -78 -24 -134t-66.5 -91.5t-100.5 -52.5t-127 -17zM311 167q23 0 38.5 6.5t24.5 22.5t13 41.5t4 63.5v99q-12 5 -29 7t-37 2q-27 0 -43.5 -4.5t-26 -18.5t-12.5 -39.5t-3 -67.5q0 -34 3 -56t10.5 -34.5t21.5 -17t36 -4.5z" />
    <glyph glyph-name="gdotaccent" unicode="&#x121;" horiz-adv-x="648" 
d="M283 -220q-55 0 -114.5 5.5t-104.5 16.5l13 148q38 -7 82.5 -12.5t87.5 -5.5q34 0 63 5.5t49 19t31.5 35.5t11.5 55v50h-7q-25 -38 -63.5 -56t-89.5 -18q-214 0 -214 237q0 144 79.5 217t223.5 73q24 0 49.5 -2t57 -7.5t71 -14.5t92.5 -24v-427q0 -78 -24 -134
t-66.5 -91.5t-100.5 -52.5t-127 -17zM311 167q23 0 38.5 6.5t24.5 22.5t13 41.5t4 63.5v99q-12 5 -29 7t-37 2q-27 0 -43.5 -4.5t-26 -18.5t-12.5 -39.5t-3 -67.5q0 -34 3 -56t10.5 -34.5t21.5 -17t36 -4.5zM332 596q-60 0 -86 26t-26 83t26 83t86 26q61 0 86.5 -26
t25.5 -83t-25.5 -83t-86.5 -26z" />
    <glyph glyph-name="germandbls" unicode="&#xdf;" horiz-adv-x="803" 
d="M49 559q0 130 80.5 192t247.5 62q168 0 249 -61.5t81 -192.5v-156h-111q-78 0 -78 -30q0 -14 17 -21t63 -12q39 -4 74 -13.5t61.5 -28t42 -49t15.5 -77.5q0 -91 -65.5 -137t-193.5 -46q-48 0 -106.5 7t-107.5 20v143q55 -14 107.5 -21t98.5 -7q37 0 52 6t15 20t-16 21
t-54 11q-30 3 -65.5 8.5t-65.5 22.5t-50 51.5t-20 94.5q0 71 46.5 118t129.5 61v14q0 51 -28 73t-90 22q-63 0 -91 -22t-28 -73v-559h-210v559z" />
    <glyph glyph-name="germandbls.sc" horiz-adv-x="1170" 
d="M285 -10q-56 0 -122.5 7t-127.5 21v163q60 -14 117.5 -22.5t108.5 -8.5q92 0 92 28q0 19 -24.5 24.5t-74.5 12.5q-112 13 -163 55.5t-51 123.5q0 92 71 141t204 49q46 0 94 -6t119 -19v-157q-23 6 -48 10.5t-50.5 7.5t-49.5 5t-43 2q-48 0 -67.5 -6t-19.5 -20
q0 -20 30 -29t80 -17q105 -15 154 -55.5t49 -112.5q0 -97 -70 -147t-208 -50zM870 -10q-56 0 -122.5 7t-127.5 21v163q60 -14 117.5 -22.5t108.5 -8.5q92 0 92 28q0 19 -24.5 24.5t-74.5 12.5q-112 13 -163 55.5t-51 123.5q0 92 71 141t204 49q46 0 94 -6t119 -19v-157
q-23 6 -48 10.5t-50.5 7.5t-49.5 5t-43 2q-48 0 -67.5 -6t-19.5 -20q0 -20 30 -29t80 -17q105 -15 154 -55.5t49 -112.5q0 -97 -70 -147t-208 -50z" />
    <glyph glyph-name="greater" unicode="&#x3e;" horiz-adv-x="563" 
d="M54 237l294 126l-294 126v147l483 -207v-132l-483 -207v147z" />
    <glyph glyph-name="greater.tab" 
d="M70 237l320 126l-321 126v147l524 -207v-132l-523 -207v147z" />
    <glyph glyph-name="greaterequal" unicode="&#x2265;" horiz-adv-x="583" 
d="M55 662l483 -157v-132l-483 -157v147l294 76l-294 76v147zM55 190h484v-134h-484v134z" />
    <glyph glyph-name="guillemotleft" unicode="&#xab;" horiz-adv-x="728" 
d="M22 268v4l151 238h210l-151 -238v-4l151 -238h-210zM342 268v4l151 238h210l-151 -238v-4l151 -238h-210z" />
    <glyph glyph-name="guilsinglleft" unicode="&#x2039;" horiz-adv-x="409" 
d="M23 268v4l151 238h210l-151 -238v-4l151 -238h-210z" />
    <glyph glyph-name="guillemotright" unicode="&#xbb;" horiz-adv-x="728" 
d="M235 30h-210l151 238v4l-151 238h210l151 -238v-4zM555 30h-210l151 238v4l-151 238h210l151 -238v-4z" />
    <glyph glyph-name="guilsinglright" unicode="&#x203a;" horiz-adv-x="409" 
d="M235 30h-210l151 238v4l-151 238h210l151 -238v-4z" />
    <glyph glyph-name="hbar" unicode="&#x127;" horiz-adv-x="649" 
d="M-28 734h78v74h210v-74h136v-119h-136v-126q63 32 108 46.5t87 14.5q67 0 107.5 -40.5t40.5 -108.5v-401h-210v328q0 54 -43 54q-15 0 -39.5 -5.5t-50.5 -15.5v-361h-210v615h-78v119z" />
    <glyph glyph-name="hcircumflex" unicode="&#x125;" horiz-adv-x="648" 
d="M133 948l202 76l204 -76v-136l-203 76l-203 -76v136zM49 808h210v-319q63 32 108 46.5t87 14.5q67 0 107.5 -40.5t40.5 -108.5v-401h-210v328q0 54 -43 54q-15 0 -39.5 -5.5t-50.5 -15.5v-361h-210v808z" />
    <glyph glyph-name="hdotbelow" unicode="&#x1e25;" horiz-adv-x="648" 
d="M49 808h210v-319q63 32 108 46.5t87 14.5q67 0 107.5 -40.5t40.5 -108.5v-401h-210v328q0 54 -43 54q-15 0 -39.5 -5.5t-50.5 -15.5v-361h-210v808zM326 -220q-47 0 -66 19t-19 63t19 63t66 19t66 -20t19 -62q0 -43 -19 -62.5t-66 -19.5z" />
    <glyph glyph-name="hungarumlaut" unicode="&#x2dd;" horiz-adv-x="511" 
d="M25 619l63 189h194l-128 -199zM250 619l63 189h194l-128 -199z" />
    <glyph glyph-name="hyphen" unicode="-" horiz-adv-x="507" 
d="M46 356h415v-151h-415v151z" />
    <glyph glyph-name="iacute" unicode="&#xed;" horiz-adv-x="308" 
d="M80 619l63 189h215l-128 -199zM49 540h210v-540h-210v540z" />
    <glyph glyph-name="ibreve" unicode="&#x12d;" horiz-adv-x="309" 
d="M159 611q-49 0 -84 13t-57.5 36.5t-33.5 56.5t-12 74h118q1 -39 15 -59.5t54 -20.5q41 0 54.5 20.5t14.5 59.5h118q-4 -83 -47 -131.5t-140 -48.5zM50 540h210v-540h-210v540z" />
    <glyph glyph-name="icircumflex" unicode="&#xee;" horiz-adv-x="309" 
d="M-29 738l192 76l194 -76v-136l-193 76l-193 -76v136zM50 540h210v-540h-210v540z" />
    <glyph glyph-name="idblgrave" unicode="&#x209;" horiz-adv-x="309" 
d="M-17 609l-128 199h194l62 -189zM208 609l-128 199h194l63 -189zM50 540h210v-540h-210v540z" />
    <glyph glyph-name="idieresis" unicode="&#xef;" horiz-adv-x="309" 
d="M36 607q-54 0 -77.5 23.5t-23.5 74.5t23.5 74t77.5 23t77.5 -23t23.5 -74t-23.5 -74.5t-77.5 -23.5zM282 607q-54 0 -77 23.5t-23 74.5t23 74t77 23t77.5 -23t23.5 -74t-23.5 -74.5t-77.5 -23.5zM50 540h210v-540h-210v540z" />
    <glyph glyph-name="idotbelow" unicode="&#x1ecb;" horiz-adv-x="307" 
d="M154 596q-60 0 -86 25.5t-26 83.5q0 57 26 83t86 26q61 0 86.5 -26t25.5 -83q0 -56 -25.5 -82.5t-86.5 -26.5zM49 540h210v-540h-210v540zM155 -220q-47 0 -66 19t-19 63t19 63t66 19t66 -20t19 -62q0 -43 -19 -62.5t-66 -19.5z" />
    <glyph glyph-name="igrave" unicode="&#xec;" horiz-adv-x="308" 
d="M50 540h210v-540h-210v540zM74 609l-128 199h215l63 -189z" />
    <glyph glyph-name="iinvertedbreve" unicode="&#x20b;" horiz-adv-x="309" 
d="M-25 621q1 40 12 73.5t33.5 57t57.5 36.5t84 13t83.5 -12.5t57 -36t33.5 -57t13 -74.5h-118q-1 41 -16 60t-53 19t-53 -19t-16 -60h-118zM50 540h210v-540h-210v540z" />
    <glyph glyph-name="ij" unicode="&#x133;" horiz-adv-x="613" 
d="M154 596q-60 0 -86 25.5t-26 83.5q0 57 26 83t86 26q61 0 86.5 -26t25.5 -83q0 -56 -25.5 -82.5t-86.5 -26.5zM49 540h210v-540h-210v540zM460 596q-60 0 -85.5 25.5t-25.5 83.5q0 57 25.5 83t85.5 26q61 0 87 -26t26 -83q0 -56 -25.5 -82.5t-87.5 -26.5zM323 -192
q9 37 15.5 74t11 78.5t6.5 88t2 103.5v34t-0.5 59.5t-0.5 75.5t-0.5 81t-1 76.5t-0.5 61.5h210v-471q-5 -74 -30 -150.5t-62 -138.5z" />
    <glyph glyph-name="imacron" unicode="&#x12b;" horiz-adv-x="309" 
d="M50 540h210v-540h-210v540zM-45 761h405v-131h-405v131z" />
    <glyph glyph-name="infinity" unicode="&#x221e;" horiz-adv-x="953" 
d="M263 115q-51 0 -93.5 14.5t-73.5 41t-48 63t-17 80.5q0 42 17.5 77.5t49 61.5t73.5 41t92 15q62 0 116 -22.5t97 -66.5q24 16 47 32t48.5 29t54.5 20.5t65 7.5q51 0 93.5 -14.5t73.5 -41t48 -63t17 -80.5q0 -42 -17.5 -77.5t-49 -61.5t-74 -41t-91.5 -15
q-62 0 -116.5 22.5t-97.5 66.5q-23 -17 -46 -33t-48.5 -28.5t-54.5 -20t-65 -7.5zM289 236q62 0 119 78q-33 40 -62 57t-63 17q-35 0 -54 -19.5t-19 -54.5q0 -34 22 -56t57 -22zM671 236q35 0 54 19.5t19 54.5q0 34 -22 56t-57 22q-31 0 -61.5 -20t-57.5 -58
q32 -40 61.5 -57t63.5 -17z" />
    <glyph glyph-name="integral" unicode="&#x222b;" horiz-adv-x="388" 
d="M120 -211q-54 0 -114 21l22 114q20 -4 32 -6t24 -2q21 0 33.5 8.5t12.5 31.5v7l-50 647q-1 6 -1 12v11q0 76 38 111.5t103 35.5q39 0 77.5 -5t86.5 -16l-22 -114q-21 4 -33 6t-23 2q-21 0 -33.5 -8.5t-12.5 -28.5v-6l50 -663q0 -3 0.5 -8.5t0.5 -8.5q0 -73 -51.5 -107
t-139.5 -34z" />
    <glyph glyph-name="iogonek" unicode="&#x12f;" horiz-adv-x="307" 
d="M49 540h210v-545q-34 -13 -56.5 -25t-36 -22.5t-19 -20t-5.5 -17.5q0 -19 30 -19q16 0 41.5 4.5t46.5 10.5v-114q-24 -6 -47 -9t-49 -3q-75 0 -115 25.5t-40 74.5q0 66 78 120h-38v540zM154 596q-60 0 -86 25.5t-26 83.5q0 57 26 83t86 26q61 0 86.5 -26t25.5 -83
q0 -56 -25.5 -82.5t-86.5 -26.5z" />
    <glyph glyph-name="itilde" unicode="&#x129;" horiz-adv-x="309" 
d="M-61 660q33 68 76 100.5t83 32.5q23 0 46 -7.5t46 -16t46 -16t46 -7.5q18 0 36.5 8t43.5 32l28 -40q-35 -69 -77.5 -101t-81.5 -32q-23 0 -46 7t-45.5 16t-45.5 16t-46 7q-20 0 -39 -7.5t-43 -30.5zM50 540h210v-540h-210v540z" />
    <glyph glyph-name="jcircumflex" unicode="&#x135;" horiz-adv-x="305" 
d="M-39 738l192 76l194 -76v-136l-193 76l-193 -76v136zM12 -199q12 47 19.5 86.5t12 82t6.5 95t2 125.5v53.5t-1 68.5t-2 95t-2 133h210v-472q-9 -78 -30.5 -147.5t-59.5 -140.5z" />
    <glyph glyph-name="kcommaaccent" unicode="&#x137;" horiz-adv-x="622" 
d="M215 -70h215l-99 -150h-156zM49 808h210v-461h33l100 193h228l-158 -251l-28 -8v-4l28 -8l176 -269h-229l-118 211h-32v-211h-210v808z" />
    <glyph glyph-name="kgreenlandic" unicode="&#x138;" horiz-adv-x="615" 
d="M49 540h210v-193h26l100 193h228l-159 -253l-27 -6v-4l27 -6l177 -271h-229l-118 211h-25v-211h-210v540z" />
    <glyph glyph-name="lacute" unicode="&#x13a;" horiz-adv-x="307" 
d="M73 841l63 189h215l-128 -199zM49 808h210v-808h-210v808z" />
    <glyph glyph-name="lcaron" unicode="&#x13e;" horiz-adv-x="308" 
d="M300 808h163l-50 -228h-113v228zM49 808h210v-808h-210v808z" />
    <glyph glyph-name="lcommaaccent" unicode="&#x13c;" horiz-adv-x="307" 
d="M49 -70h215l-99 -150h-156zM49 808h210v-808h-210v808z" />
    <glyph glyph-name="ldot" unicode="&#x140;" horiz-adv-x="512" 
d="M49 808h210v-808h-210v808zM410 261q-61 0 -86.5 26t-25.5 83q0 58 25.5 83.5t86.5 25.5q60 0 86 -26t26 -83t-26 -83t-86 -26z" />
    <glyph glyph-name="less" unicode="&#x3c;" horiz-adv-x="563" 
d="M26 297v132l483 207v-147l-294 -126l294 -126v-147z" />
    <glyph glyph-name="less.tab" 
d="M43 297v132l522 207v-147l-320 -126l320 -126v-147z" />
    <glyph glyph-name="lessequal" unicode="&#x2264;" horiz-adv-x="583" 
d="M45 505l483 157v-147l-294 -76l294 -76v-147l-483 157v132zM44 190h484v-134h-484v134z" />
    <glyph glyph-name="lira" unicode="&#x20a4;" horiz-adv-x="704" 
d="M40 503h136v15q0 118 71.5 175t220.5 57q49 0 94 -5t104 -18v-169q-42 8 -86 12.5t-79 4.5q-61 0 -85.5 -13t-24.5 -46v-13h192l-20 -102h-172v-55h167l-20 -101h-147v-66h266v-179h-617v181h136v64h-136v101h136v55h-136v102z" />
    <glyph glyph-name="logicalnot" unicode="&#xac;" horiz-adv-x="847" 
d="M36 446h757v-355h-205v188h-552v167z" />
    <glyph glyph-name="lozenge" unicode="&#x25ca;" horiz-adv-x="650" 
d="M25 361v20l173 359h254l173 -359v-20l-173 -361h-254zM427 371l-102 240l-103 -240l103 -241z" />
    <glyph glyph-name="lslash" unicode="&#x142;" horiz-adv-x="423" 
d="M18 387l90 43v378h210v-278l95 46v-150l-95 -46v-380h-210v279l-90 -43v151z" />
    <glyph glyph-name="m" unicode="m" horiz-adv-x="944" 
d="M49 540h174l11 -60h7q57 36 100.5 53t87.5 17q45 0 78 -18t51 -52h6q53 35 97 52.5t89 17.5q67 0 107.5 -40.5t40.5 -108.5v-401h-208v326q0 53 -45 53q-11 0 -31 -5t-37 -13v-361h-207v326q0 53 -45 53q-12 0 -31.5 -5t-36.5 -13v-361h-208v540z" />
    <glyph glyph-name="minus" unicode="&#x2212;" horiz-adv-x="574" 
d="M50 437h474v-134h-474v134z" />
    <glyph glyph-name="minus.tab" 
d="M75 437h484v-134h-484v134z" />
    <glyph glyph-name="mu" unicode="&#xb5;" horiz-adv-x="687" 
d="M65 540h210v-335q0 -54 45 -54q17 0 40.5 5.5t47.5 15.5v368h210v-540h-176l-11 59h-4q-26 -15 -46 -26t-37.5 -19t-34 -13t-34.5 -8v-213h-210v760z" />
    <glyph glyph-name="multiply" unicode="&#xd7;" horiz-adv-x="516" 
d="M28 235l135 135l-135 135l95 95l135 -135l134 135l96 -95l-135 -135l135 -135l-95 -95l-135 135l-135 -135z" />
    <glyph glyph-name="multiply.tab" 
d="M60 235l153 135l-153 135l101 95l156 -138l157 138l102 -95l-154 -135l154 -135l-101 -95l-157 138l-157 -138z" />
    <glyph glyph-name="n" unicode="n" horiz-adv-x="648" 
d="M49 540h177l10 -60h7q71 39 119 54.5t92 15.5q68 0 108 -40.5t40 -108.5v-401h-210v328q0 29 -11 41.5t-31 12.5q-18 0 -43 -6.5t-48 -14.5v-361h-210v540z" />
    <glyph glyph-name="nacute" unicode="&#x144;" horiz-adv-x="648" 
d="M253 619l63 189h215l-128 -199zM49 540h177l10 -60h7q71 39 119 54.5t92 15.5q68 0 108 -40.5t40 -108.5v-401h-210v328q0 29 -11 41.5t-31 12.5q-18 0 -43 -6.5t-48 -14.5v-361h-210v540z" />
    <glyph glyph-name="napostrophe" unicode="&#x149;" horiz-adv-x="751" 
d="M176 808v-4l-50 -224h-113v228h163zM152 540h177l10 -60h7q71 39 119 54.5t92 15.5q68 0 108 -40.5t40 -108.5v-401h-210v328q0 29 -11 41.5t-31 12.5q-18 0 -43 -6.5t-48 -14.5v-361h-210v540z" />
    <glyph glyph-name="ncaron" unicode="&#x148;" horiz-adv-x="648" 
d="M117 814l203 -76l203 76v-136l-204 -76l-202 76v136zM49 540h177l10 -60h7q71 39 119 54.5t92 15.5q68 0 108 -40.5t40 -108.5v-401h-210v328q0 29 -11 41.5t-31 12.5q-18 0 -43 -6.5t-48 -14.5v-361h-210v540z" />
    <glyph glyph-name="ncommaaccent" unicode="&#x146;" horiz-adv-x="648" 
d="M224 -70h215l-99 -150h-156zM49 540h177l10 -60h7q71 39 119 54.5t92 15.5q68 0 108 -40.5t40 -108.5v-401h-210v328q0 29 -11 41.5t-31 12.5q-18 0 -43 -6.5t-48 -14.5v-361h-210v540z" />
    <glyph glyph-name="ndotaccent" unicode="&#x1e45;" horiz-adv-x="648" 
d="M327 596q-60 0 -86 26t-26 83t26 83t86 26q61 0 86.5 -26t25.5 -83t-25.5 -83t-86.5 -26zM49 540h177l10 -60h7q71 39 119 54.5t92 15.5q68 0 108 -40.5t40 -108.5v-401h-210v328q0 29 -11 41.5t-31 12.5q-18 0 -43 -6.5t-48 -14.5v-361h-210v540z" />
    <glyph glyph-name="nine" unicode="9" horiz-adv-x="671" 
d="M327 750q149 0 229.5 -88.5t80.5 -257.5q0 -414 -406 -414q-38 0 -78.5 5t-87.5 15l26 154q42 -8 74 -11.5t58 -3.5q46 0 80 8.5t58 27t38.5 48.5t21.5 73q-27 -21 -65 -32.5t-84 -11.5q-57 0 -103.5 16t-79 45t-50.5 71t-18 93q0 61 21 110t60.5 83t96.5 52t128 18z
M327 400q29 0 56.5 10.5t43.5 26.5q-4 82 -28 118t-72 36t-69 -23.5t-21 -74.5q0 -50 21 -71.5t69 -21.5z" />
    <glyph glyph-name="six" unicode="6" horiz-adv-x="671" 
d="M344 -10q-149 0 -229.5 88.5t-80.5 257.5q0 414 406 414q38 0 78.5 -5t87.5 -15l-26 -154q-42 8 -74 11.5t-58 3.5q-92 0 -138.5 -35.5t-59.5 -121.5q27 21 65 32.5t84 11.5q57 0 103.5 -16t79 -45t50.5 -71t18 -93q0 -61 -21 -110t-60.5 -83t-96.5 -52t-128 -18z
M344 340q-29 0 -56.5 -10.5t-43.5 -26.5q4 -82 28 -118t72 -36t69 23.5t21 74.5q0 50 -21 71.5t-69 21.5z" />
    <glyph glyph-name="nine.denominator" horiz-adv-x="529" 
d="M185 -7q-27 0 -60.5 4t-73.5 12l24 132q42 -6 65 -8.5t40 -2.5q68 0 103 21.5t49 72.5q-47 -33 -118 -33q-44 0 -80.5 12t-62 34t-39.5 52.5t-14 67.5q0 92 64.5 144.5t178.5 52.5q118 0 181 -66t63 -190q0 -305 -320 -305zM261 305q19 0 39 5.5t35 15.5q-5 48 -22 68.5
t-52 20.5q-70 0 -70 -54q0 -30 16.5 -43t53.5 -13z" />
    <glyph glyph-name="nine.numerator" horiz-adv-x="529" 
d="M185 194q-55 0 -134 15l24 132q42 -6 65 -8.5t40 -2.5q68 0 103 21.5t49 72.5q-47 -33 -118 -33q-44 0 -80.5 12t-62 34t-39.5 52.5t-14 67.5q0 92 64.5 144.5t178.5 52.5q118 0 181 -66t63 -190q0 -304 -320 -304zM261 505q19 0 39 5.5t35 15.5q-5 48 -22 68.5t-52 20.5
q-70 0 -70 -54q0 -30 16.5 -43t53.5 -13z" />
    <glyph glyph-name="nine.osf" horiz-adv-x="655" 
d="M312 590q155 0 236.5 -85.5t81.5 -246.5q0 -377 -406 -377q-37 0 -77.5 4.5t-88.5 15.5l26 154q45 -8 76 -11.5t56 -3.5q46 0 81 7t59 23.5t39 42.5t21 64q-27 -22 -65.5 -34t-85.5 -12q-57 0 -103.5 15t-79 42t-50.5 66t-18 87q0 57 21 103t60 78.5t94 50t123 17.5z
M320 269q29 0 56.5 10.5t43.5 26.5q-5 66 -28.5 95t-71.5 29t-69 -19.5t-21 -63.5q0 -41 21 -59.5t69 -18.5z" />
    <glyph glyph-name="six.osf" horiz-adv-x="665" 
d="M349 -18q-155 0 -236.5 85.5t-81.5 246.5q0 377 406 377q37 0 77.5 -4.5t88.5 -15.5l-26 -154q-45 8 -76 11.5t-56 3.5q-47 0 -81.5 -7t-58.5 -23.5t-39 -42.5t-21 -64q27 22 65.5 34t85.5 12q57 0 103.5 -15t79 -42t50.5 -66t18 -87q0 -57 -21 -103t-60 -78.5t-94 -50
t-123 -17.5zM341 303q-29 0 -56.5 -10.5t-43.5 -26.5q5 -66 28.5 -95t71.5 -29t69 19.5t21 63.5q0 41 -21 59.5t-69 18.5z" />
    <glyph glyph-name="nine.tf" 
d="M310 750q143 0 221 -88.5t78 -257.5q0 -414 -392 -414q-36 0 -75.5 5t-84.5 15l26 154q41 -8 71 -11.5t55 -3.5q43 0 75.5 8.5t55 27t36 48t19.5 71.5q-53 -42 -139 -42q-55 0 -99.5 16t-76 45t-48.5 71t-17 93q0 61 20 110t58.5 83t93 52t123.5 18zM310 400q26 0 51 10
t39 25q-3 83 -24 119.5t-66 36.5q-44 0 -63 -23.5t-19 -74.5q0 -50 18.5 -71.5t63.5 -21.5z" />
    <glyph glyph-name="nine.tosf" 
d="M304 589q148 0 227 -85t79 -246q0 -378 -392 -378q-68 0 -160 20l26 155q43 -8 73 -11.5t53 -3.5q88 0 132 30.5t56 104.5q-25 -21 -61 -32.5t-80 -11.5q-55 0 -99.5 15t-76 42t-48.5 66t-17 87q0 57 20 102.5t57.5 78t91 50t119.5 17.5zM311 269q26 0 51.5 10t39.5 26
q-5 66 -26.5 95.5t-64.5 29.5q-45 0 -63.5 -19.5t-18.5 -63.5q0 -41 19 -59.5t63 -18.5z" />
    <glyph glyph-name="nineinferior" unicode="&#x2089;" horiz-adv-x="529" 
d="M185 -107q-27 0 -60.5 4t-73.5 12l24 132q42 -6 65 -8.5t40 -2.5q68 0 103 21.5t49 72.5q-47 -33 -118 -33q-44 0 -80.5 12t-62 34t-39.5 52.5t-14 67.5q0 92 64.5 144.5t178.5 52.5q118 0 181 -66t63 -190q0 -305 -320 -305zM261 205q20 0 40 5.5t34 15.5
q-5 48 -22 68.5t-52 20.5q-70 0 -70 -54q0 -30 16.5 -43t53.5 -13z" />
    <glyph glyph-name="ninesuperior" unicode="&#x2079;" horiz-adv-x="529" 
d="M185 294q-55 0 -134 15l24 132q42 -6 65 -8.5t40 -2.5q68 0 103 21.5t49 72.5q-47 -33 -118 -33q-44 0 -80.5 12t-62 34t-39.5 52.5t-14 67.5q0 92 64.5 144.5t178.5 52.5q118 0 181 -66t63 -190q0 -304 -320 -304zM261 605q20 0 40 5.5t34 15.5q-5 48 -22 68.5t-52 20.5
q-70 0 -70 -54q0 -30 16.5 -43t53.5 -13z" />
    <glyph glyph-name="notequal" unicode="&#x2260;" horiz-adv-x="554" 
d="M55 528h193l27 99l130 -34l-18 -65h112v-138h-149l-22 -85h171v-138h-208l-31 -117l-130 34l22 83h-97v138h134l22 85h-156v138z" />
    <glyph glyph-name="ntilde" unicode="&#xf1;" horiz-adv-x="648" 
d="M49 540h177l10 -60h7q71 39 119 54.5t92 15.5q68 0 108 -40.5t40 -108.5v-401h-210v328q0 29 -11 41.5t-31 12.5q-18 0 -43 -6.5t-48 -14.5v-361h-210v540zM99 660q35 68 80.5 100.5t87.5 32.5q24 0 48 -7.5t48 -16t48.5 -16t48.5 -7.5q21 0 41 8t46 32l28 -40
q-35 -68 -80.5 -100.5t-86.5 -32.5q-24 0 -48.5 7t-48.5 16t-48.5 16t-48.5 7q-21 0 -41 -7.5t-45 -30.5z" />
    <glyph glyph-name="numbersign" unicode="#" horiz-adv-x="634" 
d="M351 179h-93l-14 -179h-139l14 179h-82v126h92l11 128h-103v128h113l15 179h139l-15 -179h93l15 179h139l-15 -179h76v-128h-86l-11 -128h97v-126h-107l-14 -179h-139zM268 305h93l11 128h-93z" />
    <glyph glyph-name="numbersign.tab" 
d="M353 179h-97l-15 -179h-140l15 179h-85v126h95l11 128h-106v128h117l15 179h140l-15 -179h97l15 179h140l-15 -179h79v-128h-90l-11 -128h101v-126h-111l-15 -179h-140zM266 305h97l11 128h-97z" />
    <glyph glyph-name="o" unicode="o" horiz-adv-x="638" 
d="M319 -11q-144 0 -218.5 71.5t-74.5 209.5t74.5 209t218.5 71t218.5 -71t74.5 -209t-74.5 -209.5t-218.5 -71.5zM319 147q25 0 41 4.5t25.5 18t13 37.5t3.5 63t-3.5 63t-13 37t-25.5 17.5t-41 4.5t-41 -4.5t-25.5 -18t-13 -37t-3.5 -62.5t3.5 -63t13 -37.5t25.5 -18
t41 -4.5z" />
    <glyph glyph-name="oacute" unicode="&#xf3;" horiz-adv-x="638" 
d="M238 619l63 189h215l-128 -199zM319 -11q-144 0 -218.5 71.5t-74.5 209.5t74.5 209t218.5 71t218.5 -71t74.5 -209t-74.5 -209.5t-218.5 -71.5zM319 147q25 0 41 4.5t25.5 18t13 37.5t3.5 63t-3.5 63t-13 37t-25.5 17.5t-41 4.5t-41 -4.5t-25.5 -18t-13 -37t-3.5 -62.5
t3.5 -63t13 -37.5t25.5 -18t41 -4.5z" />
    <glyph glyph-name="obreve" unicode="&#x14f;" horiz-adv-x="638" 
d="M319 -11q-144 0 -218.5 71.5t-74.5 209.5t74.5 209t218.5 71t218.5 -71t74.5 -209t-74.5 -209.5t-218.5 -71.5zM319 147q25 0 41 4.5t25.5 18t13 37.5t3.5 63t-3.5 63t-13 37t-25.5 17.5t-41 4.5t-41 -4.5t-25.5 -18t-13 -37t-3.5 -62.5t3.5 -63t13 -37.5t25.5 -18
t41 -4.5zM322 611q-59 0 -100.5 13t-68 36.5t-39.5 56.5t-14 74h138q0 -39 18 -59.5t66 -20.5t65.5 20.5t18.5 59.5h138q-2 -41 -14.5 -74.5t-39 -57t-68 -36t-100.5 -12.5z" />
    <glyph glyph-name="ocircumflex" unicode="&#xf4;" horiz-adv-x="638" 
d="M121 738l202 76l204 -76v-136l-203 76l-203 -76v136zM319 -11q-144 0 -218.5 71.5t-74.5 209.5t74.5 209t218.5 71t218.5 -71t74.5 -209t-74.5 -209.5t-218.5 -71.5zM319 147q25 0 41 4.5t25.5 18t13 37.5t3.5 63t-3.5 63t-13 37t-25.5 17.5t-41 4.5t-41 -4.5t-25.5 -18
t-13 -37t-3.5 -62.5t3.5 -63t13 -37.5t25.5 -18t41 -4.5z" />
    <glyph glyph-name="odblgrave" unicode="&#x20d;" horiz-adv-x="638" 
d="M143 609l-128 199h194l62 -189zM368 609l-128 199h194l63 -189zM319 -11q-144 0 -218.5 71.5t-74.5 209.5t74.5 209t218.5 71t218.5 -71t74.5 -209t-74.5 -209.5t-218.5 -71.5zM319 147q25 0 41 4.5t25.5 18t13 37.5t3.5 63t-3.5 63t-13 37t-25.5 17.5t-41 4.5t-41 -4.5
t-25.5 -18t-13 -37t-3.5 -62.5t3.5 -63t13 -37.5t25.5 -18t41 -4.5z" />
    <glyph glyph-name="odieresis" unicode="&#xf6;" horiz-adv-x="638" 
d="M185 607q-54 0 -77.5 23.5t-23.5 74.5t23.5 74t77.5 23t77.5 -23t23.5 -74t-23.5 -74.5t-77.5 -23.5zM455 607q-54 0 -77 23.5t-23 74.5t23 74t77 23t77.5 -23t23.5 -74t-23.5 -74.5t-77.5 -23.5zM319 -11q-144 0 -218.5 71.5t-74.5 209.5t74.5 209t218.5 71t218.5 -71
t74.5 -209t-74.5 -209.5t-218.5 -71.5zM319 147q25 0 41 4.5t25.5 18t13 37.5t3.5 63t-3.5 63t-13 37t-25.5 17.5t-41 4.5t-41 -4.5t-25.5 -18t-13 -37t-3.5 -62.5t3.5 -63t13 -37.5t25.5 -18t41 -4.5z" />
    <glyph glyph-name="odotbelow" unicode="&#x1ecd;" horiz-adv-x="638" 
d="M322 -220q-47 0 -66 19t-19 63t19 63t66 19t66 -20t19 -62q0 -43 -19 -62.5t-66 -19.5zM319 -11q-144 0 -218.5 71.5t-74.5 209.5t74.5 209t218.5 71t218.5 -71t74.5 -209t-74.5 -209.5t-218.5 -71.5zM319 147q25 0 41 4.5t25.5 18t13 37.5t3.5 63t-3.5 63t-13 37
t-25.5 17.5t-41 4.5t-41 -4.5t-25.5 -18t-13 -37t-3.5 -62.5t3.5 -63t13 -37.5t25.5 -18t41 -4.5z" />
    <glyph glyph-name="oe" unicode="&#x153;" horiz-adv-x="961" 
d="M686 -9q-114 0 -177 48h-10q-64 -50 -180 -50q-144 0 -218.5 71.5t-74.5 209.5t74.5 209t218.5 71q58 0 103.5 -13t77.5 -37h10q64 49 179 49q124 0 184 -60.5t60 -187.5q0 -28 -2 -48t-7 -40h-313q2 -22 7.5 -35t16 -20t27.5 -9t41 -2q21 0 46.5 2t53 5t54.5 7t50 9
l5 -148q-48 -14 -108.5 -22.5t-117.5 -8.5zM319 147q25 0 41 4.5t25.5 18t13 37.5t3.5 63t-3.5 63t-13 37t-25.5 17.5t-41 4.5t-41 -4.5t-25.5 -18t-13 -37t-3.5 -62.5t3.5 -63t13 -37.5t25.5 -18t41 -4.5zM749 321q-2 45 -17 63.5t-52 18.5q-35 0 -50.5 -17.5t-19.5 -64.5
h139z" />
    <glyph glyph-name="ograve" unicode="&#xf2;" horiz-adv-x="638" 
d="M319 -11q-144 0 -218.5 71.5t-74.5 209.5t74.5 209t218.5 71t218.5 -71t74.5 -209t-74.5 -209.5t-218.5 -71.5zM319 147q25 0 41 4.5t25.5 18t13 37.5t3.5 63t-3.5 63t-13 37t-25.5 17.5t-41 4.5t-41 -4.5t-25.5 -18t-13 -37t-3.5 -62.5t3.5 -63t13 -37.5t25.5 -18
t41 -4.5zM234 609l-128 199h215l63 -189z" />
    <glyph glyph-name="ohungarumlaut" unicode="&#x151;" horiz-adv-x="638" 
d="M135 619l63 189h194l-128 -199zM360 619l63 189h194l-128 -199zM319 -11q-144 0 -218.5 71.5t-74.5 209.5t74.5 209t218.5 71t218.5 -71t74.5 -209t-74.5 -209.5t-218.5 -71.5zM319 147q25 0 41 4.5t25.5 18t13 37.5t3.5 63t-3.5 63t-13 37t-25.5 17.5t-41 4.5t-41 -4.5
t-25.5 -18t-13 -37t-3.5 -62.5t3.5 -63t13 -37.5t25.5 -18t41 -4.5z" />
    <glyph glyph-name="oinvertedbreve" unicode="&#x20f;" horiz-adv-x="638" 
d="M102 621q1 40 13.5 73.5t39 57t68.5 36.5t101 13t100.5 -12.5t68 -36t39 -57t14.5 -74.5h-138q-1 41 -19.5 60t-64.5 19t-65 -19t-20 -60h-137zM319 -11q-144 0 -218.5 71.5t-74.5 209.5t74.5 209t218.5 71t218.5 -71t74.5 -209t-74.5 -209.5t-218.5 -71.5zM319 147
q25 0 41 4.5t25.5 18t13 37.5t3.5 63t-3.5 63t-13 37t-25.5 17.5t-41 4.5t-41 -4.5t-25.5 -18t-13 -37t-3.5 -62.5t3.5 -63t13 -37.5t25.5 -18t41 -4.5z" />
    <glyph glyph-name="omacron" unicode="&#x14d;" horiz-adv-x="638" 
d="M118 761h405v-131h-405v131zM319 -11q-144 0 -218.5 71.5t-74.5 209.5t74.5 209t218.5 71t218.5 -71t74.5 -209t-74.5 -209.5t-218.5 -71.5zM319 147q25 0 41 4.5t25.5 18t13 37.5t3.5 63t-3.5 63t-13 37t-25.5 17.5t-41 4.5t-41 -4.5t-25.5 -18t-13 -37t-3.5 -62.5
t3.5 -63t13 -37.5t25.5 -18t41 -4.5z" />
    <glyph glyph-name="one" unicode="1" horiz-adv-x="482" 
d="M193 515h-4l-144 -34h-16l-25 114l2 15l239 130h163v-740h-215v515z" />
    <glyph glyph-name="one.denominator" horiz-adv-x="388" 
d="M153 366l-113 -22h-13l-23 86l3 22l192 94h132v-546h-178v366z" />
    <glyph glyph-name="one.numerator" horiz-adv-x="388" 
d="M153 566l-113 -22h-13l-23 86l3 22l192 94h132v-546h-178v366z" />
    <glyph glyph-name="one.osf" horiz-adv-x="466" 
d="M189 359h-4l-139 -24h-16l-25 114l2 15l234 120h163v-584h-215v359z" />
    <glyph glyph-name="one.tf" 
d="M282 515h-5l-175 -34h-17l-29 114l3 15l279 130h170v-740h-226v515z" />
    <glyph glyph-name="one.tosf" 
d="M285 359h-5l-170 -24h-17l-28 114l3 15l273 120h171v-584h-227v359z" />
    <glyph glyph-name="oneeighth" unicode="&#x215b;" horiz-adv-x="1223" 
d="M952 -4q-119 0 -180.5 38t-61.5 111q0 84 72 130q-59 42 -59 123q0 72 61.5 113.5t167.5 41.5q51 0 92 -11t70 -31.5t44.5 -49t15.5 -63.5q0 -38 -11.5 -62t-39.5 -43q33 -22 49.5 -53t16.5 -75q0 -169 -237 -169zM952 117q71 0 71 50q0 17 -20.5 30.5t-69.5 27.5l-16 5
q-42 -32 -42 -61q0 -24 20.5 -38t56.5 -14zM977 329q16 10 25 25.5t9 33.5q0 20 -15.5 31.5t-43.5 11.5q-31 0 -48.5 -11.5t-17.5 -31.5q0 -22 18 -35t57 -21zM620 740h174l-316 -740h-175zM171 566l-113 -22h-13l-23 86l3 22l192 94h132v-546h-178v366z" />
    <glyph glyph-name="onehalf" unicode="&#xbd;" horiz-adv-x="1209" 
d="M733 97q0 70 40 117t132 88q27 11 44 20t26.5 16.5t13 14.5t3.5 16q0 37 -90 37q-31 0 -67 -3.5t-75 -10.5l-14 140q63 11 111 16.5t86 5.5q115 0 170.5 -41.5t55.5 -126.5q0 -120 -139 -179q-44 -22 -63.5 -35.5t-19.5 -21.5v-7h220v-143h-434v97zM620 740h174
l-316 -740h-175zM171 566l-113 -22h-13l-23 86l3 22l192 94h132v-546h-178v366z" />
    <glyph glyph-name="two.denominator" horiz-adv-x="490" 
d="M24 97q0 70 40 117t132 88q27 11 44 20t26.5 16.5t13 14.5t3.5 16q0 37 -90 37q-31 0 -67 -3.5t-75 -10.5l-14 140q63 11 111 16.5t86 5.5q115 0 170.5 -41.5t55.5 -126.5q0 -120 -139 -179q-44 -22 -63.5 -35.5t-19.5 -21.5v-7h220v-143h-434v97z" />
    <glyph glyph-name="oneinferior" unicode="&#x2081;" horiz-adv-x="388" 
d="M153 266l-113 -22h-13l-23 86l3 22l192 94h132v-546h-178v366z" />
    <glyph glyph-name="onequarter" unicode="&#xbc;" horiz-adv-x="1204" 
d="M924 94h-231l-17 109l184 336l15 9l155 -10l14 -27l-192 -286h86l46 119h117v-119h75v-131h-75v-94h-177v94zM620 740h174l-316 -740h-175zM171 566l-113 -22h-13l-23 86l3 22l192 94h132v-546h-178v366z" />
    <glyph glyph-name="onesuperior" unicode="&#xb9;" horiz-adv-x="388" 
d="M153 666l-113 -22h-13l-23 86l3 22l192 94h132v-546h-178v366z" />
    <glyph glyph-name="onethird" unicode="&#x2153;" horiz-adv-x="1187" 
d="M620 740h174l-316 -740h-175zM171 566l-113 -22h-13l-23 86l3 22l192 94h132v-546h-178v366zM913 -8q-48 0 -93.5 3t-71.5 9v149h6q10 -2 25 -4.5t31.5 -4t33 -2.5t30.5 -1q31 0 51.5 1.5t32 6t16 11t4.5 17.5q0 12 -5 19.5t-18 12t-35 6t-56 1.5h-49v118h48q58 0 79 8
t21 29q0 20 -18 27.5t-68 7.5q-23 0 -56 -3t-68 -8h-5v145q14 3 33.5 5.5t40 4.5t41.5 3t38 1q124 0 182 -36.5t58 -113.5q0 -89 -74 -121q41 -17 63 -50t22 -78q0 -79 -61.5 -121t-177.5 -42z" />
    <glyph glyph-name="three.denominator" horiz-adv-x="462" 
d="M198 -8q-48 0 -93.5 3t-71.5 9v149h6q10 -2 25 -4.5t31.5 -4t33 -2.5t30.5 -1q31 0 51.5 1.5t32 6t16 11t4.5 17.5q0 12 -5 19.5t-18 12t-35 6t-56 1.5h-49v118h48q58 0 79 8t21 29q0 20 -18 27.5t-68 7.5q-23 0 -56 -3t-68 -8h-5v145q14 3 33.5 5.5t40 4.5t41.5 3t38 1
q124 0 182 -36.5t58 -113.5q0 -89 -74 -121q41 -17 63 -50t22 -78q0 -79 -61.5 -121t-177.5 -42z" />
    <glyph glyph-name="oogonek" unicode="&#x1eb;" horiz-adv-x="638" 
d="M336 -210q-75 0 -115 25.5t-40 74.5q0 57 58 106q-105 18 -159 87t-54 187q0 138 74.5 209t218.5 71t218.5 -71t74.5 -209q0 -113 -50 -181t-147 -90q-58 -24 -79.5 -44t-21.5 -35q0 -19 30 -19q16 0 41.5 4.5t46.5 10.5v-114q-24 -6 -47 -9t-49 -3zM319 147q25 0 41 4.5
t25.5 18t13 37.5t3.5 63t-3.5 63t-13 37t-25.5 17.5t-41 4.5t-41 -4.5t-25.5 -18t-13 -37t-3.5 -62.5t3.5 -63t13 -37.5t25.5 -18t41 -4.5z" />
    <glyph glyph-name="ordfeminine" unicode="&#xaa;" horiz-adv-x="476" 
d="M152 348q-59 0 -93.5 34t-34.5 91t38.5 85.5t110.5 31.5l94 4q0 16 -2 24.5t-8 12.5t-16.5 5t-27.5 1q-32 0 -72 -2.5t-75 -7.5l-8 102q85 17 171 17q107 0 155 -29.5t48 -94.5v-270h-140l-7 47h-4q-21 -23 -56.5 -37t-72.5 -14zM222 457q11 0 24 4t21 9v42l-49 -4
q-17 -3 -23.5 -7.5t-6.5 -15.5q0 -28 34 -28z" />
    <glyph glyph-name="ordmasculine" unicode="&#xba;" horiz-adv-x="491" 
d="M245 461q18 0 29.5 3t17.5 12t8 25.5t2 44.5q0 27 -2 44t-8 26.5t-17.5 13t-29.5 3.5t-29 -3.5t-16.5 -13t-7.5 -26.5t-2 -44q0 -28 2 -44.5t7.5 -25.5t16.5 -12t29 -3zM245 345q-106 0 -163.5 49.5t-57.5 151.5t57.5 151.5t163.5 49.5q109 0 165 -49.5t56 -151.5
t-56 -151.5t-165 -49.5z" />
    <glyph glyph-name="oslash" unicode="&#xf8;" horiz-adv-x="645" 
d="M80 90q-49 68 -49 180q0 132 71.5 206t220.5 74q102 0 171 -37l26 27h133l-87 -89q50 -70 50 -181q0 -133 -72.5 -207t-220.5 -74q-103 0 -171 37l-26 -26h-134zM323 147q30 0 46.5 5.5t24.5 19.5t10 38t2 60v17l-131 -134q18 -6 48 -6zM241 254l129 132q-18 6 -47 6
q-30 0 -46.5 -5.5t-24.5 -19t-9.5 -37t-1.5 -60.5v-16z" />
    <glyph glyph-name="oslashacute" unicode="&#x1ff;" horiz-adv-x="645" 
d="M80 90q-49 68 -49 180q0 132 71.5 206t220.5 74q102 0 171 -37l26 27h133l-87 -89q50 -70 50 -181q0 -133 -72.5 -207t-220.5 -74q-103 0 -171 37l-26 -26h-134zM323 147q30 0 46.5 5.5t24.5 19.5t10 38t2 60v17l-131 -134q18 -6 48 -6zM241 254l129 132q-18 6 -47 6
q-30 0 -46.5 -5.5t-24.5 -19t-9.5 -37t-1.5 -60.5v-16zM243 619l63 189h215l-128 -199z" />
    <glyph glyph-name="otilde" unicode="&#xf5;" horiz-adv-x="638" 
d="M319 -11q-144 0 -218.5 71.5t-74.5 209.5t74.5 209t218.5 71t218.5 -71t74.5 -209t-74.5 -209.5t-218.5 -71.5zM319 147q25 0 41 4.5t25.5 18t13 37.5t3.5 63t-3.5 63t-13 37t-25.5 17.5t-41 4.5t-41 -4.5t-25.5 -18t-13 -37t-3.5 -62.5t3.5 -63t13 -37.5t25.5 -18
t41 -4.5zM91 660q35 68 80.5 100.5t87.5 32.5q24 0 48 -7.5t48 -16t48.5 -16t48.5 -7.5q21 0 41 8t46 32l28 -40q-35 -68 -80.5 -100.5t-86.5 -32.5q-24 0 -48.5 7t-48.5 16t-48.5 16t-48.5 7q-21 0 -41 -7.5t-45 -30.5z" />
    <glyph glyph-name="p" unicode="p" horiz-adv-x="650" 
d="M49 540h186l14 -63h7q25 37 64.5 55t90.5 18q212 0 212 -262q0 -149 -79 -223.5t-222 -74.5q-29 0 -63 3v-213h-210v760zM326 131q27 0 43.5 5t26 20t12.5 41.5t3 70.5q0 41 -3 66.5t-10.5 40t-21.5 20t-36 5.5q-23 0 -38.5 -6.5t-25 -23t-13.5 -44t-4 -69.5v-117
q24 -9 67 -9z" />
    <glyph glyph-name="paragraph" unicode="&#xb6;" horiz-adv-x="662" 
d="M411 0h-87v266q-22 -1 -36 -1h-32q-53 0 -96 12.5t-73 40.5t-46 74t-16 113t16 113t46 74t72.5 40.5t95.5 12.5q33 0 74.5 -2.5t81.5 -7.5v-735zM583 0h-118v735h118v-735z" />
    <glyph glyph-name="paragraph.tab" 
d="M396 0h-86v266q-20 -1 -35.5 -1h-32.5q-53 0 -95.5 12.5t-72 40.5t-45.5 74t-16 113t16 113t45.5 74t71.5 40.5t95 12.5q33 0 74.5 -2.5t80.5 -7.5v-735zM569 0h-118v735h118v-735z" />
    <glyph glyph-name="parenleft" unicode="(" horiz-adv-x="359" 
d="M179 -160q-77 113 -115 245t-38 269t38 269t115 245h182v-4q-77 -113 -123 -243.5t-46 -266.5t46 -266.5t123 -243.5v-4h-182v0z" />
    <glyph glyph-name="parenleft.sc" horiz-adv-x="351" 
d="M169 -125q-69 89 -103.5 192t-34.5 209t34.5 209t103.5 192h172v-3q-69 -89 -111.5 -191t-42.5 -207q0 -104 42.5 -206t111.5 -192v-3h-172v0z" />
    <glyph glyph-name="parenright" unicode=")" horiz-adv-x="358" 
d="M-3 -160v4q78 113 124 243.5t46 266.5t-46 266.5t-124 243.5v4h183q77 -113 115 -245t38 -269t-38 -269t-115 -245h-183z" />
    <glyph glyph-name="parenright.sc" horiz-adv-x="351" 
d="M11 -125v3q69 90 111 192t42 206q0 105 -42 207t-111 191v3h171q69 -89 103.5 -192t34.5 -209t-34.5 -209t-103.5 -192h-171z" />
    <glyph glyph-name="partialdiff" unicode="&#x2202;" horiz-adv-x="589" 
d="M295 -4q-68 0 -118.5 20.5t-83.5 57t-49.5 87t-16.5 109.5q0 51 15.5 95t44 76.5t69.5 50.5t93 18q27 0 51.5 -10t47.5 -27q-8 77 -29.5 106t-61.5 29q-29 0 -64.5 -10.5t-67.5 -27.5l-43 120q37 32 87.5 48.5t104.5 16.5q136 0 207.5 -105t71.5 -317q0 -79 -18 -141.5
t-51 -106t-81 -66.5t-108 -23zM291 147q17 0 29 6.5t19.5 24t11 49.5t3.5 83v43q-26 17 -51 17q-29 0 -52.5 -25t-23.5 -75q0 -60 16.5 -91.5t47.5 -31.5z" />
    <glyph glyph-name="percent" unicode="%" horiz-adv-x="1116" 
d="M245 275q-106 0 -163 59.5t-57 177.5t57 178t163 60t162.5 -60t56.5 -178t-56.5 -177.5t-162.5 -59.5zM245 403q37 0 53 22.5t16 86.5t-16 87.5t-53 23.5q-38 0 -53.5 -23.5t-15.5 -87.5q0 -63 15.5 -86t53.5 -23zM872 -10q-106 0 -163 59.5t-57 177.5t57 178t163 60
t162.5 -60t56.5 -178t-56.5 -177.5t-162.5 -59.5zM872 118q37 0 53 22.5t16 86.5t-16 87.5t-53 23.5q-38 0 -53.5 -23.5t-15.5 -87.5q0 -63 15.5 -86t53.5 -23zM629 740h174l-316 -740h-174z" />
    <glyph glyph-name="percent.tab" 
d="M64 294q-78 0 -120.5 54.5t-42.5 163.5t42.5 164t120.5 55q79 0 121.5 -55t42.5 -164t-42.5 -163.5t-121.5 -54.5zM64 403q24 0 33 22.5t9 86.5t-9 87.5t-33 23.5q-23 0 -32 -23.5t-9 -87.5q0 -63 9 -86t32 -23zM571 9q-78 0 -120.5 54.5t-42.5 163.5t42.5 164t120.5 55
t120.5 -55t42.5 -164t-42.5 -163.5t-120.5 -54.5zM571 118q23 0 32.5 22.5t9.5 86.5t-9.5 87.5t-32.5 23.5q-24 0 -32.5 -23.5t-8.5 -87.5q0 -63 8.5 -86t32.5 -23zM362 740h148l-236 -740h-148z" />
    <glyph glyph-name="period.tab" horiz-adv-x="318" 
d="M158 -10q-56 0 -85.5 25.5t-29.5 82.5t29 82t86 25q56 0 86 -25t30 -82q0 -56 -29.5 -82t-86.5 -26z" />
    <glyph glyph-name="periodcentered.tab" horiz-adv-x="318" 
d="M159 261q-61 0 -87 26t-26 83q0 58 26 83.5t87 25.5t86.5 -26t25.5 -83t-25.5 -83t-86.5 -26z" />
    <glyph glyph-name="perthousand" unicode="&#x2030;" horiz-adv-x="1577" 
d="M245 275q-106 0 -163 59.5t-57 177.5t57 178t163 60t162.5 -60t56.5 -178t-56.5 -177.5t-162.5 -59.5zM245 403q37 0 53 22.5t16 86.5t-16 87.5t-53 23.5q-38 0 -53.5 -23.5t-15.5 -87.5q0 -63 15.5 -86t53.5 -23zM872 -10q-106 0 -163 59.5t-57 177.5t57 178t163 60
t162.5 -60t56.5 -178t-56.5 -177.5t-162.5 -59.5zM872 118q37 0 53 22.5t16 86.5t-16 87.5t-53 23.5q-38 0 -53.5 -23.5t-15.5 -87.5q0 -63 15.5 -86t53.5 -23zM1333 -10q-108 0 -164 60.5t-56 176.5q0 117 56.5 177.5t163.5 60.5q108 0 163.5 -60.5t55.5 -177.5
q0 -116 -55.5 -176.5t-163.5 -60.5zM1333 118q39 0 54 23.5t15 85.5t-15 86.5t-54 24.5t-54 -24.5t-15 -86.5t15 -85.5t54 -23.5zM629 740h174l-316 -740h-174z" />
    <glyph glyph-name="pi" unicode="&#x3c0;" horiz-adv-x="872" 
d="M226 373h-21q-33 0 -48.5 -11t-18.5 -37l-141 38q2 88 52 133t147 45l590 -1l64 -51v-116h-147v-161q0 -40 14 -55.5t50 -15.5q24 0 54 11v-153q-22 -6 -55 -10t-66 -4q-97 0 -147 44.5t-50 131.5v212h-77v-485h-200v485z" />
    <glyph glyph-name="plus" unicode="+" horiz-adv-x="526" 
d="M26 437h170v155h134v-155h170v-134h-170v-155h-134v155h-170v134z" />
    <glyph glyph-name="plus.tab" 
d="M52 437h195v155h142v-155h195v-134h-195v-155h-142v155h-195v134z" />
    <glyph glyph-name="plusminus" unicode="&#xb1;" horiz-adv-x="542" 
d="M44 491h160v155h134v-155h160v-134h-160v-145h-134v145h-160v134zM45 168h454v-134h-454v134z" />
    <glyph glyph-name="plusminus.tab" 
d="M67 491h180v155h140v-155h180v-134h-180v-145h-140v145h-180v134zM68 168h500v-134h-500v134z" />
    <glyph glyph-name="product" unicode="&#x220f;" horiz-adv-x="779" 
d="M73 740h633v-862h-210v695h-213v-695h-210v862z" />
    <glyph glyph-name="q" unicode="q" horiz-adv-x="648" 
d="M396 63q-29 -38 -67.5 -55.5t-89.5 -17.5q-212 0 -212 262q0 151 80 224.5t229 73.5q69 0 138 -8.5t126 -18.5v-743h-204v283zM311 140q24 0 39 7t24 23.5t12.5 44t3.5 68.5v118q-21 9 -65 9q-29 0 -46.5 -4.5t-26.5 -19t-12 -41t-3 -69.5q0 -42 2.5 -68.5t10.5 -41.5
t22.5 -20.5t38.5 -5.5z" />
    <glyph glyph-name="question" unicode="?" horiz-adv-x="478" 
d="M133 260l-17 175q141 28 141 91q0 33 -23 46.5t-70 13.5q-16 0 -34 -1t-35.5 -3t-33.5 -4.5t-27 -5.5l-5 155q45 10 87.5 14.5t89.5 4.5q119 0 183.5 -51t64.5 -146q0 -80 -47 -132t-134 -67l-9 -89v-14h-131v13zM202 -10q-51 0 -78.5 26t-27.5 74t27.5 74t78.5 26
t78.5 -26t27.5 -74t-27.5 -74t-78.5 -26z" />
    <glyph glyph-name="questiondown" unicode="&#xbf;" horiz-adv-x="473" 
d="M343 278l17 -175q-141 -28 -141 -91q0 -33 23 -46.5t70 -13.5q16 0 34 1t35.5 3t33.5 4.5t27 5.5l5 -155q-45 -10 -87.5 -14.5t-89.5 -4.5q-119 0 -183.5 51t-64.5 146q0 80 47 132t134 67l9 89v14h131v-13zM274 548q51 0 78.5 -26t27.5 -74t-27.5 -74t-78.5 -26
t-78.5 26t-27.5 74t27.5 74t78.5 26z" />
    <glyph glyph-name="quotedbl" unicode="&#x22;" horiz-adv-x="468" 
d="M209 808v-4l-50 -324h-113v328h163zM446 808v-4l-50 -324h-113v328h163z" />
    <glyph glyph-name="quotesingle" unicode="'" horiz-adv-x="232" 
d="M209 808v-4l-50 -324h-113v328h163z" />
    <glyph glyph-name="quotedbl.tab" horiz-adv-x="318" 
d="M124 808v-4l-55 -324h-120v328h175zM392 808v-4l-54 -324h-119v328h173z" />
    <glyph glyph-name="quotedblbase" unicode="&#x201e;" horiz-adv-x="498" 
d="M204 152q14 -36 14 -78q0 -59 -22.5 -123.5t-64.5 -118.5l-105 4q17 34 25.5 79t8.5 91q0 38 -6.5 71.5t-21.5 69.5zM446 152q14 -36 14 -78q0 -59 -22.5 -123.5t-64.5 -118.5l-105 4q17 34 25.5 79t8.5 91q0 38 -6.5 71.5t-21.5 69.5z" />
    <glyph glyph-name="quoteright" unicode="&#x2019;" horiz-adv-x="247" 
d="M208 810q14 -36 14 -78q0 -59 -22.5 -123.5t-64.5 -118.5l-105 4q17 34 25.5 79t8.5 91q0 38 -6.5 71.5t-21.5 69.5z" />
    <glyph glyph-name="quotedblleft" unicode="&#x201c;" horiz-adv-x="492" 
d="M44 490q-14 36 -14 78q0 59 22.5 123.5t64.5 118.5l105 -4q-17 -34 -25.5 -79t-8.5 -91q0 -38 6.5 -71.5t21.5 -69.5zM286 490q-14 36 -14 78q0 59 22.5 123.5t64.5 118.5l105 -4q-17 -34 -25.5 -79t-8.5 -91q0 -38 6.5 -71.5t21.5 -69.5z" />
    <glyph glyph-name="quoteleft" unicode="&#x2018;" horiz-adv-x="251" 
d="M44 490q-14 36 -14 78q0 59 22.5 123.5t64.5 118.5l105 -4q-17 -34 -25.5 -79t-8.5 -91q0 -38 6.5 -71.5t21.5 -69.5l-172 -5v0z" />
    <glyph glyph-name="quotedblright" unicode="&#x201d;" horiz-adv-x="488" 
d="M208 810q14 -36 14 -78q0 -59 -22.5 -123.5t-64.5 -118.5l-105 4q17 34 25.5 79t8.5 91q0 38 -6.5 71.5t-21.5 69.5zM450 810q14 -36 14 -78q0 -59 -22.5 -123.5t-64.5 -118.5l-105 4q17 34 25.5 79t8.5 91q0 38 -6.5 71.5t-21.5 69.5z" />
    <glyph glyph-name="quotesinglbase" unicode="&#x201a;" horiz-adv-x="256" 
d="M204 152q14 -36 14 -78q0 -59 -22.5 -123.5t-64.5 -118.5l-105 4q17 34 25.5 79t8.5 91q0 38 -6.5 71.5t-21.5 69.5z" />
    <glyph glyph-name="quotesingle.tab" horiz-adv-x="318" 
d="M258 808v-4l-55 -324h-118v328h173z" />
    <glyph glyph-name="r" unicode="r" horiz-adv-x="460" 
d="M49 540h177l10 -83h6q10 12 27.5 25.5t38.5 26.5t43.5 24t41.5 17h57v-177h-77q-16 -2 -33 -6.5t-33 -10.5t-28.5 -12.5t-19.5 -13.5v-330h-210v540z" />
    <glyph glyph-name="racute" unicode="&#x155;" horiz-adv-x="460" 
d="M166 619l63 189h215l-128 -199zM49 540h177l10 -83h6q10 12 27.5 25.5t38.5 26.5t43.5 24t41.5 17h57v-177h-77q-16 -2 -33 -6.5t-33 -10.5t-28.5 -12.5t-19.5 -13.5v-330h-210v540z" />
    <glyph glyph-name="radical" unicode="&#x221a;" horiz-adv-x="733" 
d="M144 352l-88 -37l-65 156l264 106l140 -380l148 661h193l-207 -858h-245z" />
    <glyph glyph-name="rcaron" unicode="&#x159;" horiz-adv-x="460" 
d="M45 814l203 -76l203 76v-136l-204 -76l-202 76v136zM49 540h177l10 -83h6q10 12 27.5 25.5t38.5 26.5t43.5 24t41.5 17h57v-177h-77q-16 -2 -33 -6.5t-33 -10.5t-28.5 -12.5t-19.5 -13.5v-330h-210v540z" />
    <glyph glyph-name="rcommaaccent" unicode="&#x157;" horiz-adv-x="460" 
d="M46 -70h215l-99 -150h-156zM49 540h177l10 -83h6q10 12 27.5 25.5t38.5 26.5t43.5 24t41.5 17h57v-177h-77q-16 -2 -33 -6.5t-33 -10.5t-28.5 -12.5t-19.5 -13.5v-330h-210v540z" />
    <glyph glyph-name="rdblgrave" unicode="&#x211;" horiz-adv-x="461" 
d="M75 609l-128 199h194l62 -189zM300 609l-128 199h194l63 -189zM50 540h177l10 -83h6q10 12 27.5 25.5t38.5 26.5t43.5 24t41.5 17h57v-177h-77q-16 -2 -33 -6.5t-33 -10.5t-28.5 -12.5t-19.5 -13.5v-330h-210v540z" />
    <glyph glyph-name="rdotbelow" unicode="&#x1e5b;" horiz-adv-x="460" 
d="M49 540h177l10 -83h6q10 12 27.5 25.5t38.5 26.5t43.5 24t41.5 17h57v-177h-77q-16 -2 -33 -6.5t-33 -10.5t-28.5 -12.5t-19.5 -13.5v-330h-210v540zM151 -220q-47 0 -66 19t-19 63t19 63t66 19t66 -20t19 -62q0 -43 -19 -62.5t-66 -19.5z" />
    <glyph glyph-name="registered" unicode="&#xae;" horiz-adv-x="683" 
d="M234 608q26 2 50.5 3.5t48.5 1.5q132 0 132 -100q0 -33 -13.5 -56t-40.5 -32l60 -122h-81l-45 99h-31v-99h-80v305zM333 462q31 0 40.5 11.5t9.5 37.5q0 20 -8.5 32.5t-33.5 12.5h-27v-94h19zM342 144q-69 0 -125.5 22t-96.5 62t-62 96t-22 124t22 124t62 96t96.5 62
t125.5 22t125.5 -22t96.5 -62t62 -96t22 -124t-22 -124t-62 -96t-96.5 -62t-125.5 -22zM342 222q52 0 93.5 16t70 45.5t43.5 71.5t15 93t-15 93t-43.5 71.5t-70 45.5t-93.5 16q-53 0 -94 -16t-69.5 -45.5t-43.5 -71.5t-15 -93t15 -93t43.5 -71.5t69.5 -45.5t94 -16z" />
    <glyph glyph-name="rinvertedbreve" unicode="&#x213;" horiz-adv-x="460" 
d="M29 621q1 40 13.5 73.5t39 57t68.5 36.5t101 13t100.5 -12.5t68 -36t39 -57t14.5 -74.5h-138q-1 41 -19.5 60t-64.5 19t-65 -19t-20 -60h-137zM49 540h177l10 -83h6q10 12 27.5 25.5t38.5 26.5t43.5 24t41.5 17h57v-177h-77q-16 -2 -33 -6.5t-33 -10.5t-28.5 -12.5
t-19.5 -13.5v-330h-210v540z" />
    <glyph glyph-name="s" unicode="s" horiz-adv-x="532" 
d="M249 -11q-48 0 -106.5 7t-108.5 20v143q54 -13 106.5 -20.5t100.5 -7.5q36 0 51 6t15 20t-15.5 21t-54.5 11q-30 3 -65 8.5t-65 22.5t-50 51.5t-20 94.5q0 88 61.5 136.5t173.5 48.5q45 0 96.5 -5.5t114.5 -16.5l-5 -151q-57 13 -100.5 19t-75.5 6q-68 0 -68 -30
q0 -14 18 -21t63 -12q39 -4 73.5 -13.5t61 -28t42 -49t15.5 -77.5q0 -91 -65 -137t-193 -46z" />
    <glyph glyph-name="sacute" unicode="&#x15b;" horiz-adv-x="532" 
d="M182 619l63 189h215l-128 -199zM249 -11q-48 0 -106.5 7t-108.5 20v143q54 -13 106.5 -20.5t100.5 -7.5q36 0 51 6t15 20t-15.5 21t-54.5 11q-30 3 -65 8.5t-65 22.5t-50 51.5t-20 94.5q0 88 61.5 136.5t173.5 48.5q45 0 96.5 -5.5t114.5 -16.5l-5 -151q-57 13 -100.5 19
t-75.5 6q-68 0 -68 -30q0 -14 18 -21t63 -12q39 -4 73.5 -13.5t61 -28t42 -49t15.5 -77.5q0 -91 -65 -137t-193 -46z" />
    <glyph glyph-name="scaron" unicode="&#x161;" horiz-adv-x="532" 
d="M67 814l203 -76l203 76v-136l-204 -76l-202 76v136zM249 -11q-48 0 -106.5 7t-108.5 20v143q54 -13 106.5 -20.5t100.5 -7.5q36 0 51 6t15 20t-15.5 21t-54.5 11q-30 3 -65 8.5t-65 22.5t-50 51.5t-20 94.5q0 88 61.5 136.5t173.5 48.5q45 0 96.5 -5.5t114.5 -16.5
l-5 -151q-57 13 -100.5 19t-75.5 6q-68 0 -68 -30q0 -14 18 -21t63 -12q39 -4 73.5 -13.5t61 -28t42 -49t15.5 -77.5q0 -91 -65 -137t-193 -46z" />
    <glyph glyph-name="schwa" unicode="&#x259;" horiz-adv-x="595" 
d="M277 549q291 0 291 -276q0 -140 -73.5 -211t-219.5 -71q-68 0 -114.5 15.5t-76 47.5t-42.5 82.5t-13 120.5q0 24 1 41t5 40h329q-3 17 -9.5 27t-18.5 15.5t-31 7t-47 1.5q-43 0 -95 -4t-110 -15l-5 148q48 14 110 22.5t119 8.5zM287 141q42 0 58.5 16t20.5 60h-157
q1 -44 17 -60t61 -16z" />
    <glyph glyph-name="scircumflex" unicode="&#x15d;" horiz-adv-x="532" 
d="M72 738l202 76l204 -76v-136l-203 76l-203 -76v136zM249 -11q-48 0 -106.5 7t-108.5 20v143q54 -13 106.5 -20.5t100.5 -7.5q36 0 51 6t15 20t-15.5 21t-54.5 11q-30 3 -65 8.5t-65 22.5t-50 51.5t-20 94.5q0 88 61.5 136.5t173.5 48.5q45 0 96.5 -5.5t114.5 -16.5
l-5 -151q-57 13 -100.5 19t-75.5 6q-68 0 -68 -30q0 -14 18 -21t63 -12q39 -4 73.5 -13.5t61 -28t42 -49t15.5 -77.5q0 -91 -65 -137t-193 -46z" />
    <glyph glyph-name="sdotbelow" unicode="&#x1e63;" horiz-adv-x="532" 
d="M249 -11q-48 0 -106.5 7t-108.5 20v143q54 -13 106.5 -20.5t100.5 -7.5q36 0 51 6t15 20t-15.5 21t-54.5 11q-30 3 -65 8.5t-65 22.5t-50 51.5t-20 94.5q0 88 61.5 136.5t173.5 48.5q45 0 96.5 -5.5t114.5 -16.5l-5 -151q-57 13 -100.5 19t-75.5 6q-68 0 -68 -30
q0 -14 18 -21t63 -12q39 -4 73.5 -13.5t61 -28t42 -49t15.5 -77.5q0 -91 -65 -137t-193 -46zM274 -220q-47 0 -66 19t-19 63t19 63t66 19t66 -20t19 -62q0 -43 -19 -62.5t-66 -19.5z" />
    <glyph glyph-name="section" unicode="&#xa7;" horiz-adv-x="556" 
d="M259 -11q-48 0 -106.5 7t-108.5 20v143q54 -13 106.5 -20.5t100.5 -7.5q36 0 51 6t15 20t-15.5 21t-54.5 11q-30 3 -65 8.5t-65 22.5t-50 51.5t-20 94.5q0 63 33 107q-15 17 -24 42.5t-9 61.5q0 88 61.5 136.5t173.5 48.5q45 0 95.5 -5.5t113.5 -16.5l-3 -151
q-57 13 -100.5 19t-75.5 6q-68 0 -68 -30q0 -14 18 -21t63 -12q39 -4 73.5 -13.5t61 -28t42 -49t15.5 -77.5q0 -68 -38 -111q18 -17 28 -41.5t10 -58.5q0 -91 -65 -137t-193 -46zM316 326q6 12 6 31q0 23 -8 33.5t-29 15.5q-1 1 -5.5 2t-10 2t-10 2t-6.5 1q-14 -16 -14 -32
q0 -21 9 -31.5t33 -16.5q3 -2 16 -4t19 -3z" />
    <glyph glyph-name="section.tab" 
d="M297 -11q-51 0 -112 7t-115 20v143q57 -13 112.5 -20.5t105.5 -7.5q42 0 59.5 6t17.5 20t-17.5 21t-61.5 11q-33 3 -70 8.5t-69 22.5t-53 51.5t-21 94.5q0 63 36 107q-17 17 -26.5 42.5t-9.5 61.5q0 88 65.5 136.5t184.5 48.5q48 0 100.5 -5.5t118.5 -16.5l-3 -151
q-118 25 -185 25q-79 0 -79 -30q0 -14 20.5 -21t69.5 -12q42 -4 79.5 -13.5t65 -28t44 -49t16.5 -77.5q0 -68 -41 -111q20 -17 30.5 -41.5t10.5 -58.5q0 -91 -69 -137t-204 -46zM362 326q8 13 8 31q0 23 -10 33.5t-35 15.5l-39 7q-16 -15 -16 -32q0 -21 11.5 -31.5
t39.5 -16.5q5 -2 19.5 -4t21.5 -3z" />
    <glyph glyph-name="semicolon" unicode=";" horiz-adv-x="310" 
d="M18 -145l42 346h210l-96 -356zM160 335q-55 0 -84 25.5t-29 82.5t29 82t84 25q56 0 85.5 -25t29.5 -82q0 -56 -29.5 -82t-85.5 -26z" />
    <glyph glyph-name="semicolon.tab" horiz-adv-x="318" 
d="M23 -145l41 346h208l-95 -356zM163 336q-54 0 -82.5 25t-28.5 82t28.5 82t82.5 25q55 0 84 -25t29 -82q0 -56 -28.5 -81.5t-84.5 -25.5z" />
    <glyph glyph-name="servicemark" unicode="&#x2120;" horiz-adv-x="962" 
d="M199 312q-34 0 -74.5 5t-80.5 16v108q41 -11 76.5 -17.5t63.5 -6.5t40 6t12 19t-12.5 20t-45.5 13q-68 11 -99.5 45t-31.5 95q0 62 45 95.5t125 33.5q29 0 58.5 -4t73.5 -13v-106q-31 9 -64 14.5t-55 5.5q-48 0 -48 -24q0 -15 15.5 -24.5t50.5 -16.5q63 -12 92.5 -43
t29.5 -82q0 -67 -43.5 -103t-127.5 -36zM413 740h174l74 -227l74 227h174v-420h-119v257l-77 -238h-103l-77 238v-257h-120v420z" />
    <glyph glyph-name="seven" unicode="7" horiz-adv-x="549" 
d="M266 -25l-181 25v21l229 541h-294l-6 158l25 20h478l27 -117v-18l-234 -603z" />
    <glyph glyph-name="seven.denominator" horiz-adv-x="426" 
d="M196 -15l-118 14l-18 37l176 368h-220v118l20 18h358l29 -76v-20l-194 -442z" />
    <glyph glyph-name="seven.numerator" horiz-adv-x="426" 
d="M196 185l-118 15l-18 36l176 368h-220v118l20 18h358l29 -76v-20l-194 -442z" />
    <glyph glyph-name="seven.osf" horiz-adv-x="538" 
d="M260 -182l-181 25v21l229 541h-294l-5 158l24 20h478l27 -117v-18l-234 -604z" />
    <glyph glyph-name="seven.tf" 
d="M301 -25l-186 25v21l255 541h-326l-6 158l24 20h516l28 -117v-18l-260 -603z" />
    <glyph glyph-name="seven.tosf" 
d="M302 -182l-186 25v21l255 541h-327l-5 158l24 20h515l28 -117v-18l-259 -604z" />
    <glyph glyph-name="seveneighths" unicode="&#x215e;" horiz-adv-x="1163" 
d="M580 740h174l-316 -740h-175zM899 -4q-119 0 -180.5 38t-61.5 111q0 84 72 130q-59 42 -59 123q0 72 61.5 113.5t167.5 41.5q51 0 92 -11t70 -31.5t44.5 -49t15.5 -63.5q0 -38 -11.5 -62t-39.5 -43q33 -22 49.5 -53t16.5 -75q0 -169 -237 -169zM899 117q71 0 71 50
q0 17 -20.5 30.5t-69.5 27.5l-16 5q-42 -32 -42 -61q0 -24 20.5 -38t56.5 -14zM924 329q16 10 25 25.5t9 33.5q0 20 -15.5 31.5t-43.5 11.5q-31 0 -48.5 -11.5t-17.5 -31.5q0 -22 18 -35t57 -21zM206 185l-118 15l-18 36l176 368h-220v118l20 18h358l29 -76v-20l-194 -442z
" />
    <glyph glyph-name="seveninferior" unicode="&#x2087;" horiz-adv-x="426" 
d="M196 -115l-118 14l-18 36l176 369h-220v118l20 18h358l29 -76v-20l-194 -443z" />
    <glyph glyph-name="sevensuperior" unicode="&#x2077;" horiz-adv-x="426" 
d="M196 285l-118 15l-18 36l176 368h-220v118l20 18h358l29 -76v-20l-194 -442z" />
    <glyph glyph-name="six.denominator" horiz-adv-x="528" 
d="M268 -7q-118 0 -181 66t-63 191q0 304 319 304q29 0 62.5 -4t72.5 -12l-25 -131q-33 5 -58.5 8t-45.5 3q-68 0 -103 -21t-49 -73q23 17 53.5 24.5t64.5 7.5q43 0 79 -11.5t61.5 -33.5t40 -52.5t14.5 -67.5q0 -92 -64.5 -145t-177.5 -53zM268 132q69 0 69 55q0 30 -16 43
t-53 13q-21 0 -41 -6t-33 -16q4 -47 21.5 -68t52.5 -21z" />
    <glyph glyph-name="six.numerator" horiz-adv-x="528" 
d="M268 194q-118 0 -181 65.5t-63 190.5q0 304 319 304q29 0 62.5 -4t72.5 -12l-25 -131q-33 5 -58.5 8t-45.5 3q-68 0 -103 -21t-49 -73q23 17 53.5 24.5t64.5 7.5q43 0 79 -11.5t61.5 -33.5t40 -52.5t14.5 -67.5q0 -92 -64.5 -144.5t-177.5 -52.5zM268 332q69 0 69 55
q0 30 -16 43t-53 13q-21 0 -41 -6t-33 -16q4 -47 21.5 -68t52.5 -21z" />
    <glyph glyph-name="six.tf" 
d="M326 -10q-146 0 -224.5 88.5t-78.5 257.5q0 414 396 414q71 0 163 -20l-26 -154q-42 8 -72.5 11.5t-56.5 3.5q-88 0 -132 -35t-57 -121q26 21 62 32t80 11q56 0 101 -16t77 -45t49.5 -71t17.5 -93q0 -61 -20.5 -110t-59 -83t-94 -52t-125.5 -18zM326 340q-27 0 -53 -10
t-41 -26q3 -82 25 -118.5t69 -36.5q45 0 65 23.5t20 74.5q0 50 -20 71.5t-65 21.5z" />
    <glyph glyph-name="six.tosf" 
d="M333 -18q-150 0 -230 85.5t-80 246.5q0 377 396 377q36 0 76 -4.5t86 -15.5l-26 -154q-44 8 -74 11.5t-54 3.5q-90 0 -135 -30.5t-58 -105.5q26 21 63.5 33t82.5 12q55 0 100.5 -15t77.5 -42t49.5 -66t17.5 -87q0 -57 -20.5 -103t-59 -78.5t-92.5 -50t-120 -17.5z
M325 303q-27 0 -53.5 -10.5t-41.5 -26.5q5 -66 27.5 -95t67.5 -29q46 0 65.5 19.5t19.5 63.5q0 41 -20 59.5t-65 18.5z" />
    <glyph glyph-name="sixinferior" unicode="&#x2086;" horiz-adv-x="528" 
d="M268 -107q-118 0 -181 66t-63 191q0 304 319 304q29 0 62.5 -4t72.5 -12l-25 -131q-33 5 -58.5 8t-45.5 3q-68 0 -103 -21t-49 -73q23 17 53.5 24.5t64.5 7.5q43 0 79 -11.5t61.5 -33.5t40 -52.5t14.5 -67.5q0 -93 -64.5 -145.5t-177.5 -52.5zM268 32q69 0 69 55
q0 30 -16 43t-53 13q-21 0 -41 -6t-33 -16q4 -47 21.5 -68t52.5 -21z" />
    <glyph glyph-name="sixsuperior" unicode="&#x2076;" horiz-adv-x="528" 
d="M268 294q-118 0 -181 65.5t-63 190.5q0 304 319 304q29 0 62.5 -4t72.5 -12l-25 -131q-33 5 -58.5 8t-45.5 3q-68 0 -103 -21t-49 -73q23 17 53.5 24.5t64.5 7.5q43 0 79 -11.5t61.5 -33.5t40 -52.5t14.5 -67.5q0 -92 -64.5 -144.5t-177.5 -52.5zM268 432q69 0 69 55
q0 30 -16 43t-53 13q-21 0 -41 -6t-33 -16q4 -47 21.5 -68t52.5 -21z" />
    <glyph glyph-name="slash" unicode="/" horiz-adv-x="436" 
d="M237 740h179l-217 -860h-179z" />
    <glyph glyph-name="slash.tab" 
d="M366 740h200l-296 -860h-200z" />
    <glyph glyph-name="AE" unicode="&#xc6;" horiz-adv-x="984" 
d="M-9 9l268 731h677v-169h-283l8 -116h266v-169h-253l9 -117h268v-169h-479l-6 149h-208l-53 -149h-214v9zM321 323h138l-11 265h-32z" />
    <glyph glyph-name="space.tab" horiz-adv-x="318" 
 />
    <glyph glyph-name="sterling" unicode="&#xa3;" horiz-adv-x="700" 
d="M36 454h135v64q0 232 293 232q49 0 93.5 -5t104.5 -19v-168q-42 8 -86.5 12.5t-78.5 4.5q-62 0 -86.5 -13t-24.5 -46v-62h193v-159h-193v-116h267v-179h-617v181h135v114h-135v159z" />
    <glyph glyph-name="sterling.tab" 
d="M16 454h127v64q0 232 283 232q48 0 93 -5.5t102 -19.5l-5 -167q-39 8 -82 12.5t-76 4.5q-57 0 -80 -13t-23 -46v-62h182v-159h-182v-116h252v-179h-591v181h127v114h-127v159z" />
    <glyph glyph-name="summation" unicode="&#x2211;" horiz-adv-x="589" 
d="M28 13l210 306l-210 307v114h526v-167h-274l162 -253l-163 -254h275v-167h-526v114z" />
    <glyph glyph-name="tbar" unicode="&#x167;" horiz-adv-x="450" 
d="M23 314h74v52h-80v174h94l30 168l165 17v-185h114v-174h-113v-52h86v-116h-86q3 -31 17 -42.5t43 -11.5q23 0 54 11v-152q-22 -7 -55 -11t-67 -4q-100 0 -151 45t-51 131v34h-74v116z" />
    <glyph glyph-name="tcaron" unicode="&#x165;" horiz-adv-x="449" 
d="M298 -12q-100 0 -151 45t-51 131v202h-80v174h94l30 168l165 17v-185h114v-174h-113v-151q0 -41 13.5 -56t46.5 -15q23 0 54 11v-152q-22 -7 -55 -11t-67 -4zM357 808h163l-50 -228h-113v228z" />
    <glyph glyph-name="tdotbelow" unicode="&#x1e6d;" horiz-adv-x="448" 
d="M253 -220q-47 0 -66 19t-19 63t19 63t66 19t66 -20t19 -62q0 -43 -19 -62.5t-66 -19.5zM298 -12q-100 0 -151 45t-51 131v202h-80v174h94l30 168l165 17v-185h114v-174h-113v-151q0 -41 13.5 -56t46.5 -15q23 0 54 11v-152q-22 -7 -55 -11t-67 -4z" />
    <glyph glyph-name="thorn" unicode="&#xfe;" horiz-adv-x="647" 
d="M49 808h210v-315q26 25 65.5 40.5t94.5 15.5q105 0 152.5 -64.5t47.5 -199.5q0 -71 -17.5 -125.5t-55 -92t-96.5 -57t-142 -19.5q-2 0 -17 0.5t-32 2.5v-214h-210v1028zM308 125q32 0 51.5 2.5t30 15.5t14 41t3.5 79q0 49 -2.5 77.5t-10 43t-20.5 18t-34 3.5
q-30 0 -46.5 -11t-24 -36t-9 -66t-1.5 -102v-50q17 -8 32 -11.5t17 -3.5z" />
    <glyph glyph-name="three" unicode="3" horiz-adv-x="582" 
d="M232 -12q-26 0 -53 1t-52.5 3t-48.5 5t-39 7v159h4q12 -3 30.5 -6.5t39.5 -5.5t42 -3.5t39 -1.5q41 0 67.5 3.5t42 12t21.5 23.5t6 38q0 24 -6 39.5t-22.5 24.5t-45.5 12.5t-75 3.5h-58v145h57q41 0 66.5 3t40 10.5t19.5 21.5t5 37q0 20 -5.5 33t-18 21t-34 11.5
t-54.5 3.5q-29 0 -71.5 -4t-85.5 -12h-4v160q19 4 43.5 7t50.5 5.5t50.5 4t44.5 1.5q155 0 228.5 -47.5t73.5 -147.5q0 -66 -33 -109.5t-96 -61.5v-7q70 -15 109.5 -60.5t39.5 -111.5q0 -106 -81.5 -161t-236.5 -57z" />
    </font>
</defs>
</svg>
