<?xml version="1.0" standalone="no"?>
<!DOCTYPE svg PUBLIC "-//W3C//DTD SVG 1.1//EN" "http://www.w3.org/Graphics/SVG/1.1/DTD/svg11.dtd" >
<svg version="1.1" xmlns="http://www.w3.org/2000/svg">
<metadata>
Created by FontForge 20120731 at Fri Aug  1 16:50:16 2014
 By Alfred Xing
Copyright (c) 2013 by Juan Pablo del Peral (huertatipografica.com.ar)
</metadata>
<defs>
<font id="alegreyasans" horiz-adv-x="390" >
  <font-face 
    font-family="Alegreya Sans"
    font-weight="400"
    font-style="italic"
    font-stretch="normal"
    units-per-em="1000"
    panose-1="0 0 5 0 0 0 0 0 0 0"
    ascent="800"
    descent="-200"
    x-height="463"
    cap-height="640"
    bbox="-273 -262 1155 993"
    underline-thickness="38"
    underline-position="-146"
    slope="-7"
    stemh="53"
    stemv="70"
    unicode-range="U+0020-FB02"
  />
<missing-glyph horiz-adv-x="167" 
 />
    <glyph glyph-name="Idieresis" unicode="&#xa8;I" horiz-adv-x="259" 
d="M139 830c24 0 39 -16 39 -41c0 -27 -16 -44 -42 -44s-41 15 -41 41c0 27 17 44 44 44zM263 830c25 0 40 -16 40 -41c0 -27 -17 -44 -42 -44c-27 0 -41 15 -41 41c0 27 16 44 43 44zM159 199l-21 -199h-75l28 193l52 447h75z" />
    <glyph glyph-name="Odieresis" unicode="&#xa8;O" horiz-adv-x="611" 
d="M297 831c25 0 40 -17 40 -41c0 -27 -17 -45 -42 -45c-26 0 -41 16 -41 42c0 27 16 44 43 44zM457 830c24 0 39 -16 39 -41c0 -27 -17 -44 -42 -44c-26 0 -41 15 -41 41c0 27 16 44 44 44zM360 647c146 0 230 -93 230 -256c0 -246 -112 -399 -314 -399
c-144 0 -229 97 -229 263c0 244 112 392 313 392zM351 584c-154 0 -227 -116 -227 -324c0 -136 53 -205 158 -205c153 0 229 117 229 327c0 135 -53 202 -160 202z" />
    <glyph glyph-name="Yacute" unicode="&#xb4;Y" horiz-adv-x="502" 
d="M236 724l-14 34c62 31 123 63 191 103l8 -2l20 -44l-3 -9c-67 -32 -129 -58 -193 -86zM277 233l-7 -46l-21 -187h-75l29 187l5 47l-142 406h79l7 -35l98 -291h7l182 289l19 37h82z" />
    <glyph glyph-name="idieresis" unicode="&#xa8;i" horiz-adv-x="218" 
d="M94 648c24 0 39 -16 39 -41c0 -27 -16 -44 -42 -44s-41 15 -41 41c0 27 17 44 44 44zM218 648c25 0 40 -16 40 -41c0 -27 -17 -44 -42 -44c-27 0 -41 15 -41 41c0 27 16 44 43 44zM124 109l-4 -106l-76 -7l52 363l4 97l74 7z" />
    <glyph glyph-name="odieresis" unicode="&#xa8;o" horiz-adv-x="411" 
d="M184 649c25 0 40 -17 40 -41c0 -27 -17 -45 -42 -45c-26 0 -41 16 -41 42c0 27 16 44 43 44zM344 648c24 0 39 -16 39 -41c0 -27 -17 -44 -42 -44c-26 0 -41 15 -41 41c0 27 16 44 44 44zM258 466h8c72 -12 109 -59 109 -152c0 -184 -80 -311 -219 -323l-8 1
c-74 14 -112 59 -112 157c0 180 84 309 222 317zM245 405c-92 0 -140 -102 -140 -255c0 -69 17 -99 62 -99c90 0 138 105 138 258c0 68 -18 96 -60 96z" />
    <glyph glyph-name="yacute" unicode="&#xb4;y" horiz-adv-x="407" 
d="M148 520l-21 30c54 45 106 90 162 145l9 -1l28 -39l-2 -9c-58 -46 -111 -87 -168 -127zM306 447l69 16c16 -26 23 -53 23 -80c0 -45 -18 -93 -49 -148l-115 -203c-95 -166 -168 -227 -255 -227c-25 0 -52 5 -78 16l-4 64l8 6c27 -10 52 -15 73 -15c56 0 113 35 168 117
l-90 463l73 7l12 -80l47 -294h13l90 171c23 43 36 78 36 110c0 24 -8 45 -24 67z" />
    <glyph glyph-name="Itilde" unicode="&#x7e;I" horiz-adv-x="259" 
d="M338 819v-7l-55 -67l-8 -3c-37 5 -112 36 -133 36c-15 0 -28 -20 -50 -45h-7l-24 25v7l55 66l8 4c38 -5 112 -36 133 -36c15 0 28 20 50 45h8zM159 199l-21 -199h-75l28 193l52 447h75z" />
    <glyph glyph-name="itilde" unicode="&#x7e;i" horiz-adv-x="218" 
d="M293 637v-7l-55 -67l-8 -3c-37 5 -112 36 -133 36c-15 0 -28 -20 -50 -45h-7l-24 25v7l55 66l8 4c38 -5 112 -36 133 -36c15 0 28 20 50 45h8zM124 109l-4 -106l-76 -7l52 363l4 97l74 7z" />
    <glyph glyph-name="Utilde" unicode="&#x7e;U" horiz-adv-x="597" 
d="M525 822v-7l-61 -67l-9 -4c-41 5 -129 37 -155 37c-15 0 -31 -21 -56 -46h-9l-23 25v7l61 67l9 3c42 -5 130 -36 155 -36c15 0 31 20 57 46h7zM534 315l-9 -73c-17 -157 -104 -249 -253 -249c-126 0 -203 67 -203 187c0 17 1 35 4 54l12 87l38 319h74l-53 -397
c-2 -16 -3 -30 -3 -45c0 -92 46 -138 136 -138c103 0 165 58 178 174l47 406h75z" />
    <glyph glyph-name="utilde" unicode="&#x7e;u" horiz-adv-x="471" 
d="M438 640v-7l-61 -67l-9 -4c-41 5 -129 37 -155 37c-15 0 -31 -21 -56 -46h-9l-23 25v7l61 67l9 3c42 -5 130 -36 155 -36c15 0 31 20 57 46h7zM348 456l74 7l-50 -354l-4 -106l-76 -7l31 224h-6c-65 -111 -116 -178 -175 -224h-11c-43 10 -78 39 -77 86l1 13l41 258
l8 105l74 6l-52 -335l-2 -21c-1 -21 8 -30 20 -30c38 0 110 93 199 278v3z" />
    <glyph glyph-name="Etilde" unicode="&#x7e;E" horiz-adv-x="461" 
d="M194 735l-23 25v7l61 67l9 3c42 -5 130 -36 155 -36c15 0 31 20 57 46h7l24 -25v-7l-61 -67l-9 -4c-41 5 -129 37 -155 37c-15 0 -31 -21 -56 -46h-9zM210 576l-28 -216l115 -2l100 3l5 -7l-14 -58l-106 2l-109 -1l-13 -98l-15 -135l123 -2l145 4l3 -7l-13 -59h-340
l29 193l52 447h341l3 -7l-13 -59l-142 4z" />
    <glyph glyph-name="etilde" unicode="&#x7e;e" horiz-adv-x="374" 
d="M409 641v-7l-61 -67l-9 -4c-41 5 -129 37 -155 37c-15 0 -31 -21 -56 -46h-9l-23 25v7l61 67l9 3c42 -5 130 -36 155 -36c15 0 31 20 57 46h7zM351 376c0 -76 -75 -143 -246 -201c0 -83 20 -119 63 -119c45 0 91 40 120 94l12 -1l25 -35c-45 -66 -96 -107 -156 -121h-13
c-84 7 -122 65 -122 161c0 177 90 307 223 312l9 -1c53 -8 85 -37 85 -89zM108 230c115 38 176 87 176 141c0 25 -14 41 -46 41c-67 0 -117 -72 -130 -182z" />
    <glyph glyph-name="Ytilde" unicode="&#x7e;Y" horiz-adv-x="502" 
d="M187 735l-23 25v7l61 67l9 3c42 -5 130 -36 155 -36c15 0 31 20 57 46h7l24 -25v-7l-61 -67l-9 -4c-41 5 -129 37 -155 37c-15 0 -31 -21 -56 -46h-9zM277 233l-7 -46l-21 -187h-75l29 187l5 47l-142 406h79l7 -35l98 -291h7l182 289l19 37h82z" />
    <glyph glyph-name="ytilde" unicode="&#x7e;y" horiz-adv-x="407" 
d="M91 553l-23 25v7l61 67l9 3c42 -5 130 -36 155 -36c15 0 31 20 57 46h7l24 -25v-7l-61 -67l-9 -4c-41 5 -129 37 -155 37c-15 0 -31 -21 -56 -46h-9zM306 447l69 16c16 -26 23 -53 23 -80c0 -45 -18 -93 -49 -148l-115 -203c-95 -166 -168 -227 -255 -227
c-25 0 -52 5 -78 16l-4 64l8 6c27 -10 52 -15 73 -15c56 0 113 35 168 117l-90 463l73 7l12 -80l47 -294h13l90 171c23 43 36 78 36 110c0 24 -8 45 -24 67z" />
    <glyph glyph-name="fi" unicode="fi" horiz-adv-x="498" 
d="M451 459l-49 -350l-5 -106l-76 -7l52 363l2 41h-181l-27 -201l-30 -213l-5 -107l-76 -6l45 317l29 210h-69l-5 5l6 45h75l9 68c18 119 72 186 183 186l106 -22l3 -7l-18 -59l-12 -2c-32 22 -63 35 -95 35c-52 0 -90 -40 -100 -112l-12 -87h185l58 13z" />
    <glyph glyph-name="fl" unicode="fl" horiz-adv-x="503" 
d="M489 704l-83 -595l-5 -106l-75 -7l85 604l1 40c-30 9 -60 15 -91 15c-57 0 -96 -39 -107 -112l-13 -93h108l6 -8l-7 -42h-114l-27 -201l-30 -213l-5 -107l-75 -6l44 317l29 210h-69l-5 5l7 45h74l10 75c18 118 75 186 191 186l95 -12z" />
    <glyph glyph-name="f_j" unicode="fj" horiz-adv-x="500" 
d="M450 459l-50 -351l-9 -90c-14 -105 -51 -159 -141 -212l-24 34l1 9c60 43 87 83 96 165l49 345l2 41h-180l-27 -201l-30 -213l-5 -107l-76 -6l45 317l29 210h-69l-5 5l6 45h75l9 68c18 119 72 186 183 186l105 -22l3 -7l-18 -59l-12 -2c-32 22 -63 35 -95 35
c-52 0 -89 -40 -99 -112l-12 -87h184l59 13z" />
    <glyph glyph-name="Gtilde" unicode="&#x7e;G" horiz-adv-x="575" 
d="M524 822v-7l-61 -67l-9 -4c-41 5 -129 37 -155 37c-15 0 -31 -21 -56 -46h-9l-23 25v7l61 67l9 3c42 -5 130 -36 155 -36c15 0 31 20 57 46h7zM381 646c62 0 121 -14 180 -46l-26 -71l-9 -2c-56 39 -101 55 -158 55c-160 0 -246 -113 -246 -327c0 -134 55 -197 172 -197
c36 0 67 5 126 24l13 78l10 90l70 6l-12 -86l-14 -139c-75 -26 -128 -38 -198 -38c-162 0 -244 95 -244 255c0 253 122 398 336 398z" />
    <glyph glyph-name="gtilde" unicode="&#x7e;g" horiz-adv-x="441" 
d="M429 640v-7l-61 -67l-9 -4c-41 5 -129 37 -155 37c-15 0 -31 -21 -56 -46h-9l-23 25v7l61 67l9 3c42 -5 130 -36 155 -36c15 0 31 20 57 46h7zM383 466l10 -6l-49 -347l-8 -75c-21 -150 -118 -236 -232 -236c-85 0 -144 50 -160 140l4 8l140 88l1 9
c-28 25 -41 61 -41 119c0 141 75 275 221 298h5l62 -22zM316 381l-61 23c-92 0 -140 -97 -140 -213c0 -73 19 -97 28 -97c18 0 94 92 171 255l1 10zM120 -141c74 0 133 54 147 159l27 192h-11c-44 -77 -93 -142 -147 -186l-102 -76c-8 -6 -10 -10 -10 -17
c1 -33 36 -72 96 -72z" />
    <glyph glyph-name=".notdef" horiz-adv-x="167" 
 />
    <glyph glyph-name="space" unicode=" " horiz-adv-x="146" 
 />
    <glyph glyph-name="exclam" unicode="!" horiz-adv-x="261" 
d="M231 650l-74 -434l-46 -5l-7 10l53 427l9 9l58 3zM114 84c26 0 42 -16 42 -42c0 -28 -17 -47 -45 -47c-27 0 -42 17 -42 44s17 45 45 45z" />
    <glyph glyph-name="quotedbl" unicode="&#x22;" horiz-adv-x="279" 
d="M169 632l-45 -180l-39 -6l-6 7l27 181l59 4zM286 632l-46 -180l-39 -6l-6 7l28 181l58 4z" />
    <glyph glyph-name="numbersign" unicode="#" horiz-adv-x="513" 
d="M372 366l-27 -118h107l5 -5l-4 -41h-119l-38 -170h-44l-5 7l37 163h-111l-38 -170h-44l-5 7l37 163h-97l-6 5l4 41h109l27 118h-99l-6 5l4 41h111l37 162h44l5 -7l-35 -155h110l37 162h44l5 -7l-35 -155h105l6 -5l-5 -41h-116zM321 366h-110l-27 -118h110z" />
    <glyph glyph-name="dollar" unicode="$" horiz-adv-x="426" 
d="M360 416l-11 -3c-28 22 -54 34 -80 37l-24 -178c55 -25 111 -56 111 -126c0 -67 -54 -134 -148 -148l-16 -127h-38l-6 7l14 117c-42 1 -95 12 -134 34l12 64l10 4c32 -33 79 -50 118 -53l25 182c-57 26 -117 57 -117 129c0 69 58 134 153 144l17 140h37l9 -8l-18 -131
c32 -1 69 -9 103 -23zM138 365c0 -34 28 -54 63 -72l21 155c-54 -9 -84 -47 -84 -83zM294 134c0 33 -25 53 -58 71l-21 -156c48 13 79 49 79 85z" />
    <glyph glyph-name="percent" unicode="%" horiz-adv-x="829" 
d="M697 658l4 -13l-564 -736l-30 19l-4 12l564 737zM243 644c80 0 123 -49 123 -137c0 -134 -61 -215 -175 -215c-80 0 -123 50 -123 139c0 133 62 213 175 213zM232 592c-74 0 -112 -57 -112 -151c0 -65 27 -99 80 -99c76 0 114 57 114 151c0 64 -28 99 -82 99zM658 348
c80 0 124 -49 124 -138c0 -133 -62 -214 -175 -214c-80 0 -124 50 -124 138c0 133 63 214 175 214zM647 296c-74 0 -112 -57 -112 -152c0 -65 27 -98 80 -98c76 0 114 57 114 151c0 64 -27 99 -82 99z" />
    <glyph glyph-name="ampersand" unicode="&#x26;" horiz-adv-x="635" 
d="M334 649c56 0 103 -12 157 -36l-20 -64l-12 -2c-47 29 -90 43 -138 43c-82 0 -132 -41 -132 -118c0 -66 39 -108 102 -113l279 15l94 12l7 -11l-16 -54l-172 -8l-2 -5c19 -28 30 -66 30 -107c0 -115 -84 -210 -244 -210c-131 0 -210 62 -210 156c0 76 50 139 148 182v4
c-54 26 -84 76 -84 140c0 106 79 176 213 176zM401 309l-147 -6c-77 -34 -122 -81 -122 -145c0 -68 54 -111 144 -111c111 0 169 65 169 155c0 45 -16 84 -44 107z" />
    <glyph glyph-name="quotesingle" unicode="'" horiz-adv-x="162" 
d="M169 632l-45 -180l-39 -6l-6 7l27 181l59 4z" />
    <glyph glyph-name="parenleft" unicode="(" horiz-adv-x="287" 
d="M320 637l-1 -7c-163 -114 -192 -339 -192 -478c0 -119 25 -195 101 -261l-1 -7l-31 -25h-7c-90 72 -123 154 -123 293c0 159 37 390 222 510h7z" />
    <glyph glyph-name="parenright" unicode=")" horiz-adv-x="287" 
d="M-25 -116l1 7c163 114 192 339 192 478c0 119 -26 195 -101 261l1 7l31 25h7c90 -73 123 -154 123 -293c0 -159 -38 -390 -222 -510h-7z" />
    <glyph glyph-name="asterisk" unicode="*" horiz-adv-x="374" 
d="M273 726l-22 -119l-32 -4l-5 7l-1 113c18 6 38 9 56 9zM199 594l-5 -32l-8 -3l-100 34c0 18 1 40 8 58l7 2zM268 596l100 36c10 -15 20 -33 25 -52l-3 -4l-112 -17l-13 29zM273 538l62 -91c-10 -17 -24 -30 -40 -41l-7 1l-46 111l23 21zM221 523l1 -9l-60 -92
c-17 6 -35 16 -52 26v7l84 83z" />
    <glyph glyph-name="plus" unicode="+" horiz-adv-x="477" 
d="M295 468l-22 -176h175l6 -6l-10 -47h-178l-21 -178l-48 -4l-5 6l21 176h-176l-5 6l11 47h176l22 178l48 4z" />
    <glyph glyph-name="comma" unicode="," horiz-adv-x="229" 
d="M98 84c27 -17 41 -39 41 -66c0 -42 -30 -86 -92 -131l-25 24v6c36 29 55 59 55 88c0 18 -11 33 -31 46v8c15 10 33 19 52 25z" />
    <glyph glyph-name="hyphen" unicode="-" horiz-adv-x="308" 
d="M286 292l-6 -48l-246 -34l-6 7l6 48l246 34z" />
    <glyph glyph-name="period" unicode="." horiz-adv-x="230" 
d="M93 84c26 0 42 -16 42 -42c0 -28 -17 -47 -44 -47s-43 17 -43 44s17 45 45 45z" />
    <glyph glyph-name="slash" unicode="/" horiz-adv-x="288" 
d="M314 669l-260 -782h-52l-5 8l260 783h51z" />
    <glyph glyph-name="zero" unicode="0" horiz-adv-x="532" 
d="M300 503c120 0 190 -69 190 -217c0 -174 -90 -293 -251 -293c-122 0 -191 70 -191 216c0 172 91 294 252 294zM290 435c-119 0 -182 -85 -182 -217c0 -106 44 -158 138 -158c118 0 183 81 183 214c0 107 -45 161 -139 161z" />
    <glyph glyph-name="one" unicode="1" horiz-adv-x="343" 
d="M254 493l-40 -286l-21 -207h-75l28 198l26 218l-135 -38l-6 5l7 59l206 59z" />
    <glyph glyph-name="two" unicode="2" horiz-adv-x="454" 
d="M256 501c74 0 127 -42 127 -105c0 -57 -47 -112 -153 -225l-104 -109l2 -3h186l85 6l4 -6l-18 -63l-99 4h-225l-37 -2l-5 4l7 47l155 156c80 80 127 130 127 175c0 32 -25 57 -71 57c-48 0 -101 -26 -146 -69h-9l-4 58c55 46 115 75 178 75z" />
    <glyph glyph-name="three" unicode="3" horiz-adv-x="411" 
d="M213 502c91 0 147 -47 147 -117c0 -56 -40 -120 -121 -158v-3c68 -18 108 -58 108 -126c0 -111 -106 -195 -247 -195c-30 0 -71 4 -100 10l3 67l8 6c30 -15 65 -23 97 -23c97 0 166 50 166 130c0 56 -42 90 -120 93h-58l-4 6l9 52l43 1c58 0 138 52 138 125
c0 43 -31 70 -80 70c-44 0 -85 -21 -133 -60h-8l-4 60c55 42 102 62 156 62z" />
    <glyph glyph-name="four" unicode="4" horiz-adv-x="479" 
d="M435 130l-11 -53l-90 2h-5l-18 -165l-6 -6l-57 -5l-4 5l23 171h-189l-64 -2l-5 7l6 51l294 363h71l-45 -361h95zM83 137h192l34 269h-6z" />
    <glyph glyph-name="five" unicode="5" horiz-adv-x="416" 
d="M401 496l-14 -60l-6 -5l-71 5h-151l-21 -160l62 -13c104 -22 156 -72 156 -152c0 -117 -112 -209 -257 -209c-29 0 -65 4 -95 9l2 67l7 6c37 -16 70 -23 103 -23c101 0 168 60 168 142c0 53 -37 87 -111 102l-93 18l-6 7l32 258l14 12l53 -2h135l90 3z" />
    <glyph glyph-name="six" unicode="6" horiz-adv-x="468" 
d="M450 559l-1 -8c-193 -62 -280 -152 -316 -242l5 -6c42 28 81 45 129 45c91 0 154 -66 154 -153c0 -74 -43 -203 -201 -203c-118 0 -178 74 -178 187c0 138 84 319 346 415h5zM253 292c-45 0 -95 -20 -139 -60c-2 -16 -3 -32 -3 -47c0 -77 24 -137 112 -137
c102 0 129 77 129 139c0 67 -35 105 -99 105z" />
    <glyph glyph-name="seven" unicode="7" horiz-adv-x="416" 
d="M148 498h230l42 2l-6 -56l-249 -430l-59 -116l-60 19l-2 12l296 506h-212l-75 -7l-5 8l13 64z" />
    <glyph glyph-name="eight" unicode="8" horiz-adv-x="474" 
d="M275 592c90 0 151 -48 151 -132c0 -82 -60 -125 -117 -151l-1 -5c55 -27 105 -59 105 -140c0 -99 -79 -171 -199 -171c-107 0 -174 58 -174 145c0 86 66 127 137 159l1 4c-46 26 -83 57 -83 127c0 97 73 164 180 164zM274 538c-69 0 -117 -42 -117 -103
c0 -60 42 -84 94 -106c58 23 114 56 114 125c0 54 -32 84 -91 84zM233 274c-62 -23 -129 -51 -129 -128c0 -61 40 -100 112 -100c79 0 134 49 134 114c0 63 -50 87 -117 114z" />
    <glyph glyph-name="nine" unicode="9" horiz-adv-x="468" 
d="M253 507c118 0 178 -74 178 -187c0 -138 -84 -319 -346 -415h-5l-57 35l1 8c193 62 280 152 316 242l-5 6c-42 -28 -81 -45 -129 -45c-91 0 -153 66 -153 153c0 74 42 203 200 203zM220 207c45 0 96 20 139 60c2 16 3 32 3 47c0 77 -24 137 -112 137
c-102 0 -129 -77 -129 -139c0 -67 35 -105 99 -105z" />
    <glyph glyph-name="colon" unicode=":" horiz-adv-x="229" 
d="M126 354c26 0 41 -16 41 -42c0 -28 -17 -46 -44 -46s-43 16 -43 43s18 45 46 45zM92 84c27 0 42 -16 42 -42c0 -28 -17 -47 -44 -47s-43 17 -43 44s17 45 45 45z" />
    <glyph glyph-name="semicolon" unicode=";" horiz-adv-x="229" 
d="M125 354c26 0 41 -16 41 -42c0 -28 -17 -46 -44 -46s-43 16 -43 43s18 45 46 45zM96 84c27 -17 42 -39 42 -66c0 -42 -31 -86 -92 -131l-26 24v6c36 29 55 59 55 88c0 18 -11 33 -31 46v8c15 10 33 19 52 25z" />
    <glyph glyph-name="less" unicode="&#x3c;" horiz-adv-x="498" 
d="M461 419l-4 -7l-360 -143v-5l327 -134l-17 -43l-9 -6l-364 153l8 62l7 8l400 159z" />
    <glyph glyph-name="equal" unicode="=" horiz-adv-x="478" 
d="M466 368l-5 -47h-407l-5 6l4 47h407zM445 203l-4 -47h-407l-6 6l5 47h406z" />
    <glyph glyph-name="greater" unicode="&#x3e;" horiz-adv-x="503" 
d="M470 304l6 -8l-7 -62l-403 -153l-7 6l-7 43l362 134v5l-325 143l-3 7l22 44z" />
    <glyph glyph-name="question" unicode="?" horiz-adv-x="331" 
d="M121 656l9 5c149 -9 231 -61 231 -145c0 -56 -37 -108 -101 -146l-91 -55l-2 -4l-7 -97l-54 -6l-5 7l6 114l6 10l103 58c47 26 75 62 75 104c0 61 -60 97 -185 105l-5 8zM123 84c26 0 42 -16 42 -42c0 -28 -17 -47 -44 -47c-28 0 -43 17 -43 44s17 45 45 45z" />
    <glyph glyph-name="at" unicode="@" horiz-adv-x="823" 
d="M792 297c0 -187 -121 -292 -337 -301l30 212h-9c-49 -83 -105 -159 -165 -215h-14c-48 28 -75 77 -75 157c0 141 80 291 237 315h5l64 -22l44 22l10 -5l-50 -351l-3 -58c134 17 211 105 211 244c0 162 -112 269 -291 267c-216 -2 -360 -153 -360 -365
c0 -219 152 -348 384 -348l2 -8l-24 -38c-248 4 -415 148 -415 384c0 250 168 425 420 425c204 0 336 -125 336 -315zM318 71c20 0 108 96 188 281l1 6l1 27l-62 22c-101 -1 -160 -110 -160 -239c0 -77 19 -97 32 -97z" />
    <glyph glyph-name="A" unicode="A" horiz-adv-x="548" 
d="M500 0h-76l-6 62l-21 115l-136 2l-123 -2l-52 -111l-25 -66h-75l304 640h86zM385 241l-60 321h-7l-150 -321l106 -1z" />
    <glyph glyph-name="B" unicode="B" horiz-adv-x="512" 
d="M358 334c75 -22 113 -65 113 -133c0 -133 -91 -205 -272 -205c-21 0 -98 1 -135 4h-1l29 193l52 447h1l163 2c102 0 162 -46 162 -134c0 -84 -41 -144 -112 -174zM393 495c0 57 -32 84 -103 84h-78l-31 -219l105 -3c70 16 107 61 107 138zM216 59c114 0 178 50 178 138
c0 58 -35 92 -104 100l-118 -1l-13 -97l-14 -137c25 -2 52 -3 71 -3z" />
    <glyph glyph-name="C" unicode="C" horiz-adv-x="500" 
d="M360 646c64 0 121 -18 163 -49l-24 -69l-8 -2c-37 36 -82 56 -140 56c-143 0 -226 -114 -226 -316c0 -135 57 -208 158 -208c56 0 116 22 167 61l9 -5l-16 -71c-57 -33 -111 -50 -172 -50c-143 0 -224 96 -224 262c0 244 116 391 313 391z" />
    <glyph glyph-name="D" unicode="D" horiz-adv-x="620" 
d="M145 640l213 5c153 0 241 -90 241 -250c0 -247 -118 -401 -333 -401c-36 0 -150 3 -202 6h-1l29 193l52 447h1zM281 57c151 0 239 113 239 324c0 134 -58 201 -170 201c-20 0 -103 -2 -139 -4l-52 -379l-14 -136c46 -3 116 -6 136 -6z" />
    <glyph glyph-name="E" unicode="E" horiz-adv-x="461" 
d="M210 576l-28 -216l115 -2l100 3l5 -7l-14 -58l-106 2l-109 -1l-13 -98l-14 -135l122 -2l145 4l3 -7l-13 -59h-340l29 193l52 447h341l3 -7l-13 -59l-142 4z" />
    <glyph glyph-name="F" unicode="F" horiz-adv-x="415" 
d="M210 576l-30 -228l103 -2l100 2l4 -7l-14 -58l-105 3l-96 -1l-12 -86l-21 -199h-76l29 193l52 447h323l5 -7l-16 -60l-137 5z" />
    <glyph glyph-name="G" unicode="G" horiz-adv-x="575" 
d="M381 646c62 0 121 -14 179 -46l-25 -71l-9 -2c-56 39 -101 55 -158 55c-160 0 -246 -113 -246 -327c0 -134 55 -197 172 -197c36 0 67 5 126 24l13 78l9 90l71 6l-12 -86l-14 -139c-75 -26 -128 -38 -198 -38c-162 0 -244 95 -244 255c0 253 122 398 336 398z" />
    <glyph glyph-name="H" unicode="H" horiz-adv-x="653" 
d="M614 640l-59 -441l-21 -199h-75l28 193l11 98l-170 3l-156 -3l-13 -92l-20 -199h-76l29 193l51 447h76l-39 -283l162 -3l164 3l32 283h76z" />
    <glyph glyph-name="I" unicode="I" horiz-adv-x="259" 
d="M159 199l-20 -199h-76l29 193l51 447h76z" />
    <glyph glyph-name="J" unicode="J" horiz-adv-x="297" 
d="M252 640l-58 -428l-9 -94c-13 -100 -65 -159 -192 -219l-24 42l1 9c93 49 135 92 145 168l11 87l43 374l-119 -1l-7 7l12 55h197z" />
    <glyph glyph-name="K" unicode="K" horiz-adv-x="520" 
d="M159 199l-21 -199h-76l30 193l51 447h76zM556 640l-285 -302c67 -111 144 -221 224 -322l-3 -9c-24 -7 -47 -12 -73 -16l-7 5c-77 109 -154 223 -222 340l1 6l235 244l45 54h85z" />
    <glyph glyph-name="L" unicode="L" horiz-adv-x="396" 
d="M373 56l-13 -56h-299l29 193l51 447h76l-59 -441l-15 -135h227z" />
    <glyph glyph-name="M" unicode="M" horiz-adv-x="753" 
d="M664 0h-67l11 195l8 326h-6l-226 -447h-63l-106 447h-7l-71 -320l-42 -201h-64l144 640h85l20 -97l85 -371h7l187 377l42 91h85z" />
    <glyph glyph-name="N" unicode="N" horiz-adv-x="653" 
d="M553 187l-21 -187h-78l-251 520h-7l-39 -310l-23 -210h-71l28 190l54 450h78l251 -520h6l64 517l71 5z" />
    <glyph glyph-name="O" unicode="O" horiz-adv-x="611" 
d="M360 647c146 0 230 -93 230 -256c0 -246 -113 -399 -315 -399c-143 0 -228 97 -228 263c0 244 111 392 313 392zM351 584c-154 0 -227 -116 -227 -324c0 -136 53 -205 158 -205c153 0 229 117 229 327c0 135 -53 202 -160 202z" />
    <glyph glyph-name="P" unicode="P" horiz-adv-x="498" 
d="M145 640l176 2c104 0 172 -54 172 -166c0 -144 -97 -249 -255 -249h-74l-4 -28l-21 -199h-76l29 193l52 447h1zM172 290l109 -2c80 11 135 81 135 178c0 71 -32 110 -112 114l-93 -3z" />
    <glyph glyph-name="Q" unicode="Q" horiz-adv-x="608" 
d="M673 -130l1 -11c-11 -21 -21 -36 -32 -48l-7 -2c-129 29 -248 93 -341 183h-19c-143 0 -228 97 -228 263c0 244 111 392 313 392c146 0 230 -93 230 -256c0 -205 -79 -346 -223 -387c87 -68 192 -114 306 -134zM124 260c0 -136 53 -205 158 -205c153 0 229 117 229 327
c0 135 -53 202 -160 202c-154 0 -227 -116 -227 -324z" />
    <glyph glyph-name="R" unicode="R" horiz-adv-x="529" 
d="M494 486c0 -103 -58 -185 -154 -227c39 -82 82 -162 129 -241l-2 -9c-23 -9 -45 -15 -71 -18l-8 7c-41 79 -79 160 -112 242h-111l-6 -41l-20 -199h-76l29 193l52 447h1l178 2c107 0 171 -56 171 -156zM173 304l115 -3c83 25 128 84 128 173c0 68 -39 102 -112 106
l-94 -3z" />
    <glyph glyph-name="S" unicode="S" horiz-adv-x="451" 
d="M298 646c38 0 90 -8 141 -31l-21 -71l-14 -4c-33 28 -73 44 -116 44c-79 0 -128 -52 -128 -106c0 -120 244 -127 244 -298c0 -104 -93 -187 -219 -187c-54 0 -117 16 -166 45l19 77l10 4c41 -45 97 -64 145 -64c80 0 135 51 135 111c0 126 -241 127 -241 299
c0 102 90 181 211 181z" />
    <glyph glyph-name="T" unicode="T" horiz-adv-x="467" 
d="M497 633l-14 -58l-104 5h-63l-51 -381l-21 -199h-75l29 193l43 387h-61l-109 -5l-5 7l14 58h413z" />
    <glyph glyph-name="U" unicode="U" horiz-adv-x="597" 
d="M534 315l-9 -73c-16 -157 -104 -249 -253 -249c-126 0 -203 67 -203 187c0 17 1 35 4 54l12 87l39 319h73l-53 -397c-2 -16 -3 -30 -3 -45c0 -92 47 -138 136 -138c103 0 165 58 179 174l46 406h75z" />
    <glyph glyph-name="V" unicode="V" horiz-adv-x="534" 
d="M277 0h-87l-125 640h77l6 -63l94 -499h5l234 496l24 66h74z" />
    <glyph glyph-name="W" unicode="W" horiz-adv-x="849" 
d="M593 0h-77l-72 378h-7l-172 -378h-79l-115 640h75l2 -59l89 -497h7l180 395l-32 161h78l6 -66l89 -490h7l227 492l22 64h71z" />
    <glyph glyph-name="X" unicode="X" horiz-adv-x="561" 
d="M339 329l162 -329h-87l-19 51l-115 224l-174 -229l-30 -46h-80l247 328l-156 312h87l19 -49l106 -209l158 209l31 49h81z" />
    <glyph glyph-name="Y" unicode="Y" horiz-adv-x="502" 
d="M277 233l-7 -46l-20 -187h-76l29 187l5 46l-142 407h79l7 -35l98 -291h8l181 289l19 37h82z" />
    <glyph glyph-name="Z" unicode="Z" horiz-adv-x="503" 
d="M510 585l-409 -524h254l90 7l3 -6l-13 -64l-110 2h-268l-54 -3l7 56l410 525h-238l-90 -6l-4 5l15 64l366 -1l48 1z" />
    <glyph glyph-name="bracketleft" unicode="[" horiz-adv-x="288" 
d="M323 641l-5 -36l-121 -11l-82 -671l118 -11l-4 -37l-6 -5l-175 10l50 379l43 378l178 10z" />
    <glyph glyph-name="backslash" unicode="\" horiz-adv-x="291" 
d="M88 678l205 -783l-6 -8h-52l-205 782l7 9h51z" />
    <glyph glyph-name="bracketright" unicode="]" horiz-adv-x="288" 
d="M-27 -124l5 36l121 12l82 671l-118 10l4 37l6 5l174 -10l-49 -378l-43 -379l-178 -10z" />
    <glyph glyph-name="asciicircum" unicode="^" horiz-adv-x="423" 
d="M390 133l-6 -8l-45 -10l-95 319h-5l-181 -317l-9 -5l-40 17l201 358l9 4h63z" />
    <glyph glyph-name="underscore" unicode="_" horiz-adv-x="451" 
d="M426 -93l-10 -45h-470l-5 6l10 44h470z" />
    <glyph glyph-name="grave" unicode="`" 
d="M169 694l8 1c57 -55 109 -100 163 -145l-21 -30l-8 -1c-57 40 -111 81 -169 127l-1 9z" />
    <glyph glyph-name="a" unicode="a" horiz-adv-x="439" 
d="M391 460l-49 -351l-5 -106l-76 -7l29 205h-10c-46 -81 -99 -153 -157 -208h-14c-49 28 -76 78 -76 157c0 139 78 290 234 315h5l62 -23l48 24zM130 75c22 0 105 93 182 277l1 6l1 24l-62 22c-95 0 -151 -107 -151 -235c0 -74 17 -94 29 -94z" />
    <glyph glyph-name="b" unicode="b" horiz-adv-x="441" 
d="M315 465h14c49 -29 76 -78 76 -157c0 -140 -78 -291 -235 -315h-4l-65 15l-51 9l82 583l2 97l76 7l-63 -447h11c45 80 99 152 157 208zM125 70l60 -17c96 0 153 108 153 236c0 74 -17 93 -30 93c-21 0 -104 -92 -181 -273z" />
    <glyph glyph-name="c" unicode="c" horiz-adv-x="334" 
d="M331 444l6 -11l-20 -59l-16 -3c-26 28 -45 35 -67 35c-79 0 -130 -89 -130 -235c0 -84 19 -115 59 -115c28 0 64 18 102 91h11l24 -34c-43 -72 -84 -103 -143 -120h-12c-73 13 -111 48 -111 165c0 167 71 306 233 306z" />
    <glyph glyph-name="d" unicode="d" horiz-adv-x="441" 
d="M427 704l-83 -595l-5 -106l-76 -7l29 205h-10c-47 -81 -101 -153 -159 -208h-15c-49 28 -76 77 -76 157c0 139 79 291 236 315h5l53 -19l22 154l3 97zM130 75c21 0 104 92 183 274l4 32l-63 23c-97 0 -155 -107 -155 -235c0 -74 18 -94 31 -94z" />
    <glyph glyph-name="e" unicode="e" horiz-adv-x="374" 
d="M300 149l26 -35c-46 -66 -97 -107 -157 -121h-12c-85 7 -123 65 -123 161c0 177 90 307 223 312l9 -1c54 -8 85 -37 85 -89c0 -76 -75 -143 -245 -201c0 -83 20 -119 63 -119c45 0 90 40 119 94zM238 412c-67 0 -117 -72 -129 -181c115 37 175 86 175 140
c0 25 -14 41 -46 41z" />
    <glyph glyph-name="f" unicode="f" horiz-adv-x="280" 
d="M425 683l-20 -54l-11 -2c-25 14 -57 22 -80 22c-53 0 -92 -39 -101 -112l-12 -87h108l6 -8l-7 -42h-113l-27 -201l-31 -213l-4 -107l-76 -6l44 317l29 210h-69l-5 5l6 45h75l10 68c16 119 71 186 184 186l91 -14z" />
    <glyph glyph-name="g" unicode="g" horiz-adv-x="441" 
d="M393 460l-49 -347l-8 -75c-21 -150 -118 -236 -232 -236c-85 0 -144 50 -160 140l3 8l141 88l1 9c-28 25 -41 61 -41 119c0 141 75 275 221 298h5l62 -22l47 24zM316 382l-61 22c-92 0 -140 -97 -140 -213c0 -73 19 -97 28 -97c18 0 93 91 169 252l2 13zM120 -141
c74 0 132 54 147 159l26 192h-10c-44 -77 -93 -142 -148 -186l-102 -76c-7 -6 -9 -10 -9 -17c1 -33 35 -72 96 -72z" />
    <glyph glyph-name="h" unicode="h" horiz-adv-x="469" 
d="M328 465h11c44 -10 78 -40 77 -87l-1 -13l-41 -257l-6 -105l-77 -7l55 342l1 13c0 19 -7 31 -21 31c-37 0 -110 -95 -199 -281l-5 -98l-76 -7l86 604l2 97l76 7l-65 -466h9c64 112 115 181 174 227z" />
    <glyph glyph-name="i" unicode="i" horiz-adv-x="218" 
d="M157 661c26 0 41 -16 41 -43c0 -28 -17 -46 -44 -46s-43 17 -43 44s18 45 46 45zM124 109l-4 -106l-76 -7l52 363l4 97l74 7z" />
    <glyph glyph-name="j" unicode="j" horiz-adv-x="232" 
d="M166 661c26 0 41 -16 41 -43c0 -28 -17 -46 -44 -46s-43 17 -43 44s18 45 46 45zM186 458l-49 -350l-9 -90c-14 -105 -52 -159 -146 -212l-25 34l1 9c65 43 92 83 102 165l49 344l2 42h-75l-5 5l6 45h71l75 10z" />
    <glyph glyph-name="k" unicode="k" horiz-adv-x="462" 
d="M436 366c0 -67 -53 -129 -145 -184c36 -59 74 -119 115 -175l-4 -7l-62 -12l-7 4c-40 60 -75 123 -108 186l2 13c89 55 136 106 136 157c0 27 -12 34 -24 34c-41 0 -115 -84 -213 -287l-3 -92l-76 -7l85 604l3 97l76 7l-65 -460h10c66 102 120 178 183 219l15 1
c48 -10 82 -40 82 -98z" />
    <glyph glyph-name="l" unicode="l" horiz-adv-x="224" 
d="M127 109l-5 -106l-75 -7l85 604l3 97l75 7z" />
    <glyph glyph-name="m" unicode="m" horiz-adv-x="717" 
d="M576 465h11c44 -10 78 -40 77 -87l-1 -13l-41 -257l-6 -105l-77 -7l54 342l1 13c1 19 -6 31 -20 31c-37 0 -112 -97 -203 -288l-5 -91l-77 -7l55 342l1 13c0 19 -7 31 -21 31c-37 0 -110 -95 -199 -281l-5 -98l-76 -7l52 363l5 97l74 7l-32 -225h9
c65 112 115 181 174 227h11c44 -10 79 -40 77 -87l-1 -13l-20 -127h9c64 112 115 181 174 227z" />
    <glyph glyph-name="n" unicode="n" horiz-adv-x="467" 
d="M326 465h11c44 -10 79 -40 77 -87l-1 -13l-41 -257l-6 -105l-77 -7l55 342l1 13c0 19 -6 31 -21 31c-37 0 -110 -95 -199 -281l-5 -98l-76 -7l52 363l5 97l74 7l-32 -225h9c65 112 115 181 174 227z" />
    <glyph glyph-name="o" unicode="o" horiz-adv-x="411" 
d="M258 466h8c72 -12 110 -59 110 -152c0 -184 -81 -311 -219 -323l-9 1c-74 14 -112 59 -112 157c0 180 85 309 222 317zM245 405c-92 0 -140 -102 -140 -255c0 -69 17 -99 61 -99c91 0 139 105 139 258c0 68 -18 96 -60 96z" />
    <glyph glyph-name="p" unicode="p" horiz-adv-x="437" 
d="M316 465h14c48 -29 76 -78 76 -157c0 -140 -79 -291 -236 -315h-4l-54 12l-11 -81l-5 -109l-76 -7l77 551l5 97l73 7l-28 -206h11c46 80 99 152 158 208zM121 71l64 -18c96 0 153 108 153 236c0 74 -17 93 -30 93c-21 0 -105 -94 -182 -277z" />
    <glyph glyph-name="q" unicode="q" horiz-adv-x="438" 
d="M390 460l-75 -538l-5 -107l-76 -7l56 393h-11c-46 -81 -99 -153 -157 -208h-14c-49 28 -76 77 -76 157c0 139 78 291 235 315h4l62 -23l48 24zM129 75c21 0 105 93 182 277l1 6l1 24l-61 22c-96 0 -152 -107 -152 -235c0 -74 17 -94 29 -94z" />
    <glyph glyph-name="r" unicode="r" horiz-adv-x="328" 
d="M350 460l-15 -100l-7 -3l-8 1c-61 -9 -114 -68 -194 -268l-4 -87l-76 -7l52 363l5 97l73 7l-30 -220h7c47 94 99 166 172 219z" />
    <glyph glyph-name="s" unicode="s" horiz-adv-x="317" 
d="M220 464c31 -6 57 -14 84 -25l-21 -68l-12 -4c-26 29 -54 44 -80 44c-41 0 -73 -35 -73 -70c0 -74 151 -90 151 -205c0 -81 -70 -143 -172 -144c-37 5 -68 16 -100 34l19 71l11 5c27 -37 61 -57 96 -57c47 0 78 36 78 72c0 82 -153 94 -153 207c0 83 79 142 172 140z" />
    <glyph glyph-name="t" unicode="t" horiz-adv-x="324" 
d="M145 119l-2 -18c0 -22 10 -33 29 -33c24 0 54 26 89 77l12 -1l23 -31c-45 -58 -85 -95 -130 -118h-12c-47 8 -79 36 -78 85l1 16l43 264l4 40h-65l-5 5l5 45h71l12 108l71 32l8 -5l-22 -135h123l6 -8l-5 -42h-132z" />
    <glyph glyph-name="u" unicode="u" horiz-adv-x="471" 
d="M422 463l-50 -354l-4 -106l-76 -7l31 224h-7c-64 -111 -115 -178 -174 -224h-11c-44 10 -78 39 -77 86l1 13l41 258l8 105l74 6l-53 -335l-2 -21c-1 -21 9 -30 21 -30c37 0 110 94 199 281l5 97z" />
    <glyph glyph-name="v" unicode="v" horiz-adv-x="407" 
d="M305 447l70 16c15 -26 23 -53 23 -80c0 -39 -16 -80 -44 -128l-150 -255h-82l-50 456l75 7l3 -80l25 -303h7l112 196c21 36 33 66 33 94c0 24 -9 45 -24 67z" />
    <glyph glyph-name="w" unicode="w" horiz-adv-x="682" 
d="M488 0h-78l-36 357h-8l-159 -357h-81l-54 456l74 7l1 -61l31 -317h7l140 313l23 61h79l3 -57l31 -317h6l103 191c19 36 32 66 32 94c0 24 -9 45 -24 67l3 10l69 16c16 -26 23 -53 23 -80c0 -39 -17 -80 -43 -128z" />
    <glyph glyph-name="x" unicode="x" horiz-adv-x="439" 
d="M381 4l-81 -10l-16 50l-70 143l-109 -144l-24 -43h-82l175 237l-103 218l78 9l14 -40l67 -138l102 133l24 40h80l-170 -227z" />
    <glyph glyph-name="y" unicode="y" horiz-adv-x="407" 
d="M306 447l69 16c16 -26 23 -53 23 -80c0 -45 -18 -93 -49 -148l-115 -203c-95 -166 -168 -227 -255 -227c-25 0 -52 5 -79 16l-3 64l8 6c27 -10 51 -15 73 -15c56 0 113 36 169 118l-91 462l74 7l11 -80l47 -294h13l90 171c22 43 36 78 36 110c0 24 -9 45 -24 67z" />
    <glyph glyph-name="z" unicode="z" horiz-adv-x="407" 
d="M383 451l-283 -375l29 7c31 0 71 -23 101 -23c57 0 83 33 87 126l13 6l36 -20c-5 -123 -56 -182 -138 -182c-52 0 -102 33 -148 33c-22 0 -40 -7 -61 -29h-8l-24 22l286 380l-139 -1l-69 -8l-6 6l15 67l7 5l64 -5l190 -1l25 14z" />
    <glyph glyph-name="braceleft" unicode="{" horiz-adv-x="288" 
d="M265 655c19 0 34 -3 50 -7l3 -6l-13 -42c-13 3 -23 5 -36 5c-50 0 -74 -30 -74 -104c0 -33 4 -81 4 -111c0 -66 -29 -106 -81 -128l-1 -3c37 -17 56 -48 56 -89c0 -54 -44 -137 -44 -195c0 -41 18 -60 55 -60c13 0 23 2 37 5l3 -41l-5 -6c-16 -5 -32 -7 -51 -7
c-67 0 -100 33 -100 94c0 67 43 155 43 206c0 41 -23 66 -72 75l4 39c66 11 95 45 95 116c0 29 -3 75 -3 106c0 106 46 153 130 153z" />
    <glyph glyph-name="bar" unicode="|" horiz-adv-x="314" 
d="M256 792l-63 -504l-67 -547l-53 -3l-5 8l66 537l63 509l54 5z" />
    <glyph glyph-name="braceright" unicode="}" horiz-adv-x="288" 
d="M31 -134c-19 0 -33 3 -49 7l-3 6l12 42c14 -3 24 -5 37 -5c49 0 74 31 74 105c0 33 -5 80 -5 110c0 66 29 106 81 128l1 3c-37 17 -55 49 -55 89c0 54 44 138 44 196c0 40 -19 59 -56 59c-13 0 -23 -2 -37 -5l-3 41l5 6c17 5 32 7 51 7c67 0 101 -33 101 -94
c0 -67 -43 -155 -43 -205c0 -42 22 -67 72 -76l-5 -39c-66 -11 -94 -45 -94 -116c0 -29 2 -74 2 -106c0 -106 -45 -153 -130 -153z" />
    <glyph glyph-name="asciitilde" unicode="~" horiz-adv-x="480" 
d="M151 259c-17 0 -38 -22 -72 -51h-9l-17 26v8l80 71l11 5c48 -8 161 -49 193 -49c17 0 39 21 73 51h9l17 -26l-1 -8l-80 -73l-10 -2c-49 5 -162 48 -194 48z" />
    <glyph glyph-name="nbspace" unicode="&#xa0;" horiz-adv-x="146" 
 />
    <glyph glyph-name="exclamdown" unicode="&#xa1;" horiz-adv-x="261" 
d="M149 379c-26 0 -42 16 -42 42c0 28 17 47 45 47c27 0 42 -17 42 -44s-17 -45 -45 -45zM32 -187l74 434l46 5l7 -10l-53 -427l-9 -9l-58 -3z" />
    <glyph glyph-name="cent" unicode="&#xa2;" horiz-adv-x="389" 
d="M362 475l-17 -48l-14 -3c-25 22 -45 30 -65 32l-61 -361c27 11 57 36 86 88l11 -1l20 -28c-39 -61 -77 -92 -125 -109l-28 -164h-37l-5 7l24 150c-68 12 -109 47 -109 165c0 146 57 267 185 296l26 153h37l7 -8l-23 -139h14l68 -20zM101 213c0 -81 20 -117 58 -123
l60 361c-74 -22 -118 -109 -118 -238z" />
    <glyph glyph-name="sterling" unicode="&#xa3;" horiz-adv-x="417" 
d="M308 593c33 0 67 -6 105 -18l-11 -57l-5 -5c-34 22 -67 31 -98 31c-62 0 -98 -35 -107 -103l-13 -106h128l2 -5l-9 -38h-126l-17 -133c-6 -49 -23 -80 -53 -102v-3h167l89 6l3 -6l-13 -56l-96 2h-249l-4 6l8 39c49 9 79 45 86 107l17 140h-71l-3 6l9 37h70l12 97
c12 104 76 161 179 161z" />
    <glyph glyph-name="currency" unicode="&#xa4;" horiz-adv-x="436" 
d="M435 511l-2 -9l-74 -63c12 -18 18 -42 18 -67c0 -34 -14 -66 -37 -91l60 -63v-8l-37 -35l-8 1l-56 67c-24 -17 -54 -28 -83 -28s-56 11 -75 27l-71 -68l-8 1l-31 32l3 9l74 62c-13 18 -19 43 -19 68c0 35 15 65 38 92l-60 62l1 9l36 33h8l56 -68c24 18 54 27 83 27
c28 0 55 -9 74 -25l71 67h9zM246 457c-59 0 -112 -49 -112 -109c0 -50 36 -88 87 -88c61 0 112 48 112 109c0 50 -36 88 -87 88z" />
    <glyph glyph-name="yen" unicode="&#xa5;" horiz-adv-x="517" 
d="M485 293l4 -4l-8 -35h-151l-57 -81l-2 -13h197l4 -5l-7 -33h-199l-14 -122h-61l18 122h-180l-4 4l7 34h182l1 18l-31 76h-139l-3 6l7 33h119l-83 204h67l7 -28l93 -223h5l160 221l16 30h66l-142 -204h128z" />
    <glyph glyph-name="brokenbar" unicode="&#xa6;" horiz-adv-x="314" 
d="M256 792l-52 -420l-53 -6l-6 6l52 420l54 5zM177 152l-51 -411l-52 -3l-6 8l51 408l52 6z" />
    <glyph glyph-name="section" unicode="&#xa7;" horiz-adv-x="420" 
d="M282 594c-55 0 -93 -41 -93 -76c0 -83 194 -122 194 -247c0 -58 -41 -111 -108 -141c23 -24 39 -52 39 -87c0 -77 -78 -145 -180 -145c-41 0 -93 13 -127 33l16 64l9 5c33 -33 74 -51 115 -51c61 0 101 41 101 78c0 86 -196 124 -196 248c0 59 45 113 110 144
c-23 23 -38 50 -38 84c0 76 75 143 175 143c30 0 70 -7 105 -22l-17 -63l-11 -3c-34 25 -66 36 -94 36zM318 252c0 54 -63 89 -117 132c-56 -26 -83 -58 -83 -91c0 -51 64 -86 119 -129c61 26 81 57 81 88z" />
    <glyph glyph-name="dieresis" unicode="&#xa8;" 
d="M163 649c25 0 40 -17 40 -41c0 -27 -17 -45 -42 -45c-26 0 -41 16 -41 42c0 27 16 44 43 44zM323 648c24 0 39 -16 39 -41c0 -27 -17 -44 -42 -44c-26 0 -41 15 -41 41c0 27 16 44 44 44z" />
    <glyph glyph-name="copyright" unicode="&#xa9;" horiz-adv-x="691" 
d="M353 598c177 0 295 -122 295 -305s-118 -305 -295 -305c-178 0 -296 122 -296 305s118 305 296 305zM353 565c-158 0 -263 -109 -263 -272s105 -272 263 -272c157 0 262 109 262 272s-105 272 -262 272zM368 465c33 0 65 -9 93 -23l-11 -43l-5 -2c-22 15 -52 23 -79 23
c-69 0 -105 -41 -105 -122c0 -83 36 -127 104 -127c28 0 61 9 86 24l6 -2l-4 -44c-29 -14 -62 -23 -91 -23c-103 0 -155 60 -155 168c0 109 57 171 161 171z" />
    <glyph glyph-name="ordfeminine" unicode="&#xaa;" horiz-adv-x="312" 
d="M316 644l-32 -234l-5 -72l-60 -4l18 136h-8c-28 -55 -61 -103 -96 -137h-11c-45 18 -59 47 -59 100c0 98 51 192 154 212h4l50 -7l38 10zM140 389c11 0 58 59 107 163l3 21l2 20l-43 8c-57 -1 -90 -65 -90 -145c0 -49 13 -67 21 -67z" />
    <glyph glyph-name="guillemetleft" unicode="&#xab;" horiz-adv-x="395" 
d="M37 220l2 16l167 169l33 -20v-10l-144 -149l108 -150l-3 -9l-38 -21zM201 220l2 16l167 169l33 -20v-10l-144 -149l108 -150l-3 -9l-38 -21z" />
    <glyph glyph-name="logicalnot" unicode="&#xac;" horiz-adv-x="480" 
d="M430 285l-27 -224l-47 -4l-7 6l22 176h-335l-4 6l9 47h384z" />
    <glyph glyph-name="softhyphen" unicode="&#xad;" horiz-adv-x="308" 
d="M286 292l-6 -48l-246 -34l-6 7l6 48l246 34z" />
    <glyph glyph-name="registered" unicode="&#xae;" horiz-adv-x="439" 
d="M220 702c109 0 181 -72 181 -180c0 -110 -72 -182 -181 -182s-182 72 -182 182c0 108 73 180 182 180zM220 365c94 0 156 63 156 157c0 93 -62 154 -156 154c-93 0 -155 -61 -155 -154c0 -94 62 -157 155 -157zM291 567c0 -25 -15 -46 -40 -58c16 -24 33 -47 52 -71v-3
c-10 -4 -23 -6 -34 -7l-4 3c-16 23 -30 46 -43 69h-34v-7l1 -62h-34l1 58l-1 136h71c42 0 65 -20 65 -58zM189 529l35 -2c21 7 31 18 31 37c0 22 -13 33 -39 34l-26 -1z" />
    <glyph glyph-name="macron" unicode="&#xaf;" 
d="M388 627l-5 -45h-283l-6 6l5 44h283z" />
    <glyph glyph-name="degree" unicode="&#xb0;" horiz-adv-x="294" 
d="M198 647c65 0 111 -49 111 -111c0 -76 -66 -137 -141 -137c-65 0 -112 48 -112 111c0 76 67 137 142 137zM193 609c-51 0 -99 -43 -99 -94c0 -43 34 -79 78 -79c52 0 99 44 99 95c0 43 -33 78 -78 78z" />
    <glyph glyph-name="plusminus" unicode="&#xb1;" horiz-adv-x="478" 
d="M295 468l-22 -176h175l6 -6l-10 -47h-178l-21 -178l-48 -4l-6 6l22 176h-176l-5 6l11 47h176l22 178l48 4zM412 -42l-5 -47h-407l-5 5l4 47h407z" />
    <glyph glyph-name="twosuperior" unicode="&#xb2;" horiz-adv-x="348" 
d="M206 703c56 0 102 -31 102 -79c0 -44 -35 -86 -106 -161l-82 -88l1 -2h131l65 3l2 -6l-12 -50l-80 3h-166l-27 -1l-4 3l4 38l114 115c59 61 94 98 94 132c0 23 -17 42 -50 42c-34 0 -73 -20 -106 -52h-7l-5 48c44 36 86 55 132 55z" />
    <glyph glyph-name="threesuperior" unicode="&#xb3;" horiz-adv-x="307" 
d="M197 704c58 0 106 -32 106 -80c0 -36 -25 -75 -76 -96l-1 -3c46 -12 69 -40 69 -82c0 -73 -71 -124 -172 -124c-20 0 -47 2 -67 7l2 46l5 3c23 -4 46 -8 67 -8c62 0 104 29 104 73c0 35 -25 53 -72 55h-41l-4 4l7 43h30c37 0 84 31 84 71c0 26 -20 41 -51 41
c-27 0 -53 -10 -85 -32h-7l-5 43c38 26 69 39 107 39z" />
    <glyph glyph-name="acute" unicode="&#xb4;" 
d="M312 694l28 -39l-2 -9c-58 -46 -111 -87 -168 -127l-8 1l-21 30c54 45 106 90 162 145z" />
    <glyph glyph-name="micro" unicode="&#xb5;" horiz-adv-x="480" 
d="M430 462l-49 -353l-5 -106l-72 -7l32 230h-8c-67 -114 -120 -185 -181 -231h-11c-9 2 -17 5 -24 9l-12 -82l-5 -109l-72 -7l77 553l4 97l71 6l-48 -350l-2 -12c1 -20 12 -27 23 -27c37 0 114 97 207 295l5 88z" />
    <glyph glyph-name="paragraph" unicode="&#xb6;" horiz-adv-x="484" 
d="M506 633l-12 -52h-74l-52 -400l-6 -52c-11 -87 -61 -149 -181 -205l-19 34l2 9c81 46 120 94 127 157l6 45l49 413h-59c-91 -8 -144 -68 -144 -160c0 -73 41 -125 119 -147l-30 -44c-107 22 -167 86 -167 186c0 139 97 223 251 223h185z" />
    <glyph glyph-name="periodcentered" unicode="&#xb7;" horiz-adv-x="230" 
d="M119 289c26 0 41 -16 41 -43c0 -28 -17 -46 -44 -46s-43 17 -43 44s18 45 46 45z" />
    <glyph glyph-name="cedilla" unicode="&#xb8;" 
d="M153 -52l33 -20c28 -15 38 -33 38 -55c0 -39 -33 -65 -79 -65c-34 0 -57 15 -72 31l8 38l5 2c16 -19 31 -31 55 -31c19 0 33 9 33 27c0 13 -9 19 -22 25l-47 29l24 90h45z" />
    <glyph glyph-name="onesuperior" unicode="&#xb9;" horiz-adv-x="257" 
d="M225 698l-31 -242l-15 -133h-63l17 126l22 185l-89 -22l-4 4l6 49l150 40z" />
    <glyph glyph-name="ordmasculine" unicode="&#xba;" horiz-adv-x="296" 
d="M213 647h7c49 -8 76 -39 76 -102c0 -125 -57 -208 -151 -213l-6 1c-49 5 -77 39 -77 105c0 120 58 205 151 209zM204 602c-56 0 -85 -66 -85 -164c0 -44 11 -62 37 -62c54 0 82 63 82 164c0 43 -9 62 -34 62z" />
    <glyph glyph-name="guillemetright" unicode="&#xbb;" 
d="M197 232l-2 -16l-167 -169l-34 20l1 10l143 149l-107 150l3 9l38 21zM361 232l-2 -16l-166 -169l-34 20v10l144 149l-108 150l3 9l38 21z" />
    <glyph glyph-name="onequarter" unicode="&#xbc;" horiz-adv-x="698" 
d="M608 645l-564 -736l-30 19l-4 12l564 737l30 -19zM58 553l-4 4l6 49l150 40l7 -7l-31 -242l-15 -133h-63l17 126l22 185zM645 101l-60 2l-9 -98l-4 -5l-51 -3l-3 4l14 102h-119l-49 -2l-4 6l5 40l196 230h58l-29 -226h60l4 -6zM423 151h116l20 154h-5z" />
    <glyph glyph-name="onehalf" unicode="&#xbd;" horiz-adv-x="710" 
d="M604 658l4 -13l-564 -736l-30 19l-4 12l564 737zM217 639l-31 -242l-15 -133h-63l17 126l22 185l-89 -22l-4 4l6 49l150 40zM550 380c56 0 102 -31 102 -79c0 -44 -35 -86 -106 -161l-82 -88l1 -2h131l65 3l2 -6l-12 -50l-80 3h-166l-27 -1l-4 3l4 38l114 115
c59 61 94 98 94 132c0 23 -17 42 -50 42c-34 0 -73 -20 -106 -52h-7l-5 48c44 36 86 55 132 55z" />
    <glyph glyph-name="threequarters" unicode="&#xbe;" horiz-adv-x="735" 
d="M645 645l-564 -736l-30 19l-4 12l564 737l30 -19zM279 384c0 -73 -71 -124 -172 -124c-20 0 -47 2 -67 7l2 46l5 3c23 -4 46 -8 67 -8c62 0 104 29 104 73c0 35 -25 53 -72 55h-41l-4 4l7 43h30c37 0 84 31 84 71c0 26 -20 41 -51 41c-27 0 -53 -10 -85 -32h-7l-5 43
c38 26 69 39 107 39c58 0 106 -32 106 -80c0 -36 -25 -75 -76 -96l-1 -3c46 -12 69 -40 69 -82zM682 101l-60 2l-9 -98l-4 -5l-51 -3l-3 4l14 102h-119l-49 -2l-4 6l5 40l196 230h58l-29 -226h60l4 -6zM460 151h116l20 154h-5z" />
    <glyph glyph-name="questiondown" unicode="&#xbf;" horiz-adv-x="331" 
d="M212 379c-26 0 -42 16 -42 42c0 28 17 47 44 47c28 0 43 -17 43 -44s-17 -45 -45 -45zM214 -193l-9 -5c-149 9 -231 61 -231 145c0 56 37 108 101 146l91 55l2 4l7 97l54 6l5 -7l-6 -114l-6 -10l-103 -58c-47 -26 -75 -62 -75 -104c0 -61 60 -97 185 -105l5 -8z" />
    <glyph glyph-name="Agrave" unicode="&#xc0;" horiz-adv-x="548" 
d="M443 727l-9 -4c-64 27 -126 54 -193 86l-3 8l19 44l9 2c68 -40 129 -71 191 -102zM501 0h-76l-7 62l-21 115l-136 2l-123 -2l-52 -111l-24 -66h-75l304 640h86zM385 241l-59 321h-7l-151 -321l107 -1z" />
    <glyph glyph-name="Aacute" unicode="&#xc1;" horiz-adv-x="548" 
d="M262 724l-14 34c62 31 123 63 191 103l8 -2l20 -44l-3 -9c-67 -32 -129 -58 -193 -86zM501 0h-76l-7 62l-21 115l-136 2l-123 -2l-52 -111l-24 -66h-75l304 640h86zM385 241l-59 321h-7l-151 -321l107 -1z" />
    <glyph glyph-name="Acircumflex" unicode="&#xc2;" horiz-adv-x="548" 
d="M233 732l-12 33c46 28 86 58 125 89h22c32 -31 69 -61 106 -89l-20 -33h-8c-33 22 -63 44 -93 67c-37 -23 -73 -45 -111 -67h-9zM501 0h-76l-7 62l-21 115l-136 2l-123 -2l-52 -111l-24 -66h-75l304 640h86zM385 241l-59 321h-7l-151 -321l107 -1z" />
    <glyph glyph-name="Atilde" unicode="&#xc3;" horiz-adv-x="548" 
d="M503 822v-7l-61 -67l-9 -4c-41 5 -129 37 -155 37c-15 0 -31 -21 -56 -46h-9l-23 25v7l61 67l9 3c42 -5 130 -36 155 -36c15 0 31 20 57 46h7zM377 640l124 -640h-76l-7 62l-21 115l-136 2l-123 -2l-52 -111l-24 -66h-75l304 640h86zM385 241l-59 321h-7l-151 -321
l107 -1z" />
    <glyph glyph-name="Adieresis" unicode="&#xc4;" horiz-adv-x="548" 
d="M267 745c-26 0 -41 16 -41 42c0 27 16 44 43 44c25 0 40 -17 40 -41c0 -27 -17 -45 -42 -45zM426 745c-26 0 -41 15 -41 41c0 27 16 44 44 44c24 0 39 -16 39 -41c0 -27 -17 -44 -42 -44zM501 0h-76l-7 62l-21 115l-136 2l-123 -2l-52 -111l-24 -66h-75l304 640h86z
M385 241l-59 321h-7l-151 -321l107 -1z" />
    <glyph glyph-name="Aring" unicode="&#xc5;" horiz-adv-x="548" 
d="M346 714c-46 0 -81 29 -81 81c0 49 31 82 83 82c54 0 82 -35 82 -80c0 -53 -37 -83 -84 -83zM347 839c-30 0 -45 -16 -45 -43c0 -30 19 -46 46 -46c26 0 45 15 45 44c0 26 -15 45 -46 45zM501 0h-76l-7 62l-21 115l-136 2l-123 -2l-52 -111l-24 -66h-75l304 640h86z
M385 241l-59 321h-7l-151 -321l107 -1z" />
    <glyph glyph-name="AE" unicode="&#xc6;" horiz-adv-x="766" 
d="M730 59l-13 -59h-329l2 62l-3 199l-231 -53l-89 -142l-32 -66h-78l402 640h352l4 -7l-14 -59l-153 4h-92l3 -242l210 45l5 -6l-2 -55l-213 -43l3 -216h108l156 5zM386 320l-4 242h-5l-176 -282z" />
    <glyph glyph-name="Ccedilla" unicode="&#xc7;" horiz-adv-x="500" 
d="M360 646c65 0 121 -18 164 -49l-24 -69l-9 -2c-36 36 -81 56 -140 56c-142 0 -225 -114 -225 -316c0 -135 56 -208 157 -208c57 0 117 22 168 61l8 -5l-15 -71c-47 -27 -91 -43 -138 -48l-14 -46l33 -20c28 -15 38 -33 38 -55c0 -39 -33 -65 -79 -65c-34 0 -57 15 -72 31
l8 38l5 2c16 -19 31 -31 55 -31c19 0 33 9 33 27c0 13 -9 19 -22 25l-47 29l17 63c-137 5 -214 100 -214 262c0 244 116 391 313 391z" />
    <glyph glyph-name="Egrave" unicode="&#xc8;" horiz-adv-x="461" 
d="M424 727l-9 -4c-64 27 -126 54 -193 86l-3 8l19 44l9 2c68 -40 129 -71 191 -102zM210 576l-28 -216l115 -2l100 3l5 -7l-14 -58l-106 2l-109 -1l-13 -98l-15 -135l123 -2l145 4l3 -7l-13 -59h-340l29 193l52 447h341l3 -7l-13 -59l-142 4z" />
    <glyph glyph-name="Eacute" unicode="&#xc9;" horiz-adv-x="461" 
d="M243 724l-14 34c62 31 123 63 191 103l8 -2l20 -44l-3 -9c-67 -32 -129 -58 -193 -86zM210 576l-28 -216l115 -2l100 3l5 -7l-14 -58l-106 2l-109 -1l-13 -98l-15 -135l123 -2l145 4l3 -7l-13 -59h-340l29 193l52 447h341l3 -7l-13 -59l-142 4z" />
    <glyph glyph-name="Ecircumflex" unicode="&#xca;" horiz-adv-x="461" 
d="M214 732l-12 33c46 28 86 58 125 89h22c32 -31 69 -61 106 -89l-20 -33h-8c-33 22 -63 44 -93 67c-37 -23 -73 -45 -111 -67h-9zM210 576l-28 -216l115 -2l100 3l5 -7l-14 -58l-106 2l-109 -1l-13 -98l-15 -135l123 -2l145 4l3 -7l-13 -59h-340l29 193l52 447h341l3 -7
l-13 -59l-142 4z" />
    <glyph glyph-name="Edieresis" unicode="&#xcb;" horiz-adv-x="461" 
d="M248 745c-26 0 -41 16 -41 42c0 27 16 44 43 44c25 0 40 -17 40 -41c0 -27 -17 -45 -42 -45zM407 745c-26 0 -41 15 -41 41c0 27 16 44 44 44c24 0 39 -16 39 -41c0 -27 -17 -44 -42 -44zM210 576l-28 -216l115 -2l100 3l5 -7l-14 -58l-106 2l-109 -1l-13 -98l-15 -135
l123 -2l145 4l3 -7l-13 -59h-340l29 193l52 447h341l3 -7l-13 -59l-142 4z" />
    <glyph glyph-name="Igrave" unicode="&#xcc;" horiz-adv-x="259" 
d="M108 861l9 2c68 -40 129 -71 191 -102l-14 -34l-9 -4c-64 27 -126 54 -193 86l-3 8zM159 199l-21 -199h-75l28 193l52 447h75z" />
    <glyph glyph-name="Iacute" unicode="&#xcd;" horiz-adv-x="259" 
d="M299 859l20 -44l-3 -9c-67 -32 -129 -58 -193 -86l-9 4l-14 34c62 31 123 63 191 103zM159 199l-21 -199h-75l28 193l52 447h75z" />
    <glyph glyph-name="Icircumflex" unicode="&#xce;" horiz-adv-x="259" 
d="M85 732l-12 33c46 28 86 58 125 89h22c32 -31 69 -61 106 -89l-20 -33h-8c-33 22 -63 44 -93 67c-37 -23 -73 -45 -111 -67h-9zM159 199l-21 -199h-75l28 193l52 447h75z" />
    <glyph glyph-name="Eth" unicode="&#xd0;" horiz-adv-x="644" 
d="M168 640l213 5c154 0 242 -90 242 -250c0 -247 -119 -401 -334 -401c-36 0 -150 3 -202 6l29 193l12 105h-94l-3 6l6 48h97l33 288h1zM304 57c151 0 240 113 240 324c0 134 -58 201 -171 201c-20 0 -101 -2 -138 -4l-31 -226h155l3 -7l-5 -47h-161l-13 -99l-14 -136
c45 -3 116 -6 135 -6z" />
    <glyph glyph-name="Ntilde" unicode="&#xd1;" horiz-adv-x="653" 
d="M553 822v-7l-61 -67l-9 -4c-41 5 -129 37 -155 37c-15 0 -31 -21 -56 -46h-9l-23 25v7l61 67l9 3c42 -5 130 -36 155 -36c15 0 31 20 57 46h7zM553 187l-21 -187h-78l-252 520h-6l-39 -310l-24 -210h-70l28 190l54 450h78l251 -520h6l64 517l71 5z" />
    <glyph glyph-name="Ograve" unicode="&#xd2;" horiz-adv-x="611" 
d="M285 861l9 2c68 -40 129 -71 191 -102l-14 -34l-9 -4c-64 27 -126 54 -193 86l-3 8zM360 647c146 0 230 -93 230 -256c0 -246 -112 -399 -314 -399c-144 0 -229 97 -229 263c0 244 112 392 313 392zM351 584c-154 0 -227 -116 -227 -324c0 -136 53 -205 158 -205
c153 0 229 117 229 327c0 135 -53 202 -160 202z" />
    <glyph glyph-name="Oacute" unicode="&#xd3;" horiz-adv-x="611" 
d="M475 859l20 -44l-3 -9c-67 -32 -129 -58 -193 -86l-9 4l-14 34c62 31 123 63 191 103zM360 647c146 0 230 -93 230 -256c0 -246 -112 -399 -314 -399c-144 0 -229 97 -229 263c0 244 112 392 313 392zM351 584c-154 0 -227 -116 -227 -324c0 -136 53 -205 158 -205
c153 0 229 117 229 327c0 135 -53 202 -160 202z" />
    <glyph glyph-name="Ocircumflex" unicode="&#xd4;" horiz-adv-x="611" 
d="M261 732l-12 33c46 28 86 58 125 89h22c32 -31 69 -61 106 -89l-20 -33h-8c-33 22 -63 44 -93 67c-37 -23 -73 -45 -111 -67h-9zM360 647c146 0 230 -93 230 -256c0 -246 -112 -399 -314 -399c-144 0 -229 97 -229 263c0 244 112 392 313 392zM351 584
c-154 0 -227 -116 -227 -324c0 -136 53 -205 158 -205c153 0 229 117 229 327c0 135 -53 202 -160 202z" />
    <glyph glyph-name="Otilde" unicode="&#xd5;" horiz-adv-x="611" 
d="M531 822v-7l-61 -67l-9 -4c-41 5 -129 37 -155 37c-15 0 -31 -21 -56 -46h-9l-23 25v7l61 67l9 3c42 -5 130 -36 155 -36c15 0 31 20 57 46h7zM360 647c146 0 230 -93 230 -256c0 -246 -112 -399 -314 -399c-144 0 -229 97 -229 263c0 244 112 392 313 392zM351 584
c-154 0 -227 -116 -227 -324c0 -136 53 -205 158 -205c153 0 229 117 229 327c0 135 -53 202 -160 202z" />
    <glyph glyph-name="multiply" unicode="&#xd7;" horiz-adv-x="481" 
d="M423 399l-1 -9l-139 -124l108 -125l-1 -8l-40 -31l-110 125l-142 -125l-32 31l1 7l141 126l-110 124l1 9l39 30l112 -126l140 126z" />
    <glyph glyph-name="Oslash" unicode="&#xd8;" horiz-adv-x="612" 
d="M562 697l-55 -96c54 -43 83 -114 83 -210c0 -246 -112 -399 -314 -399c-39 0 -74 7 -104 21l-65 -114l-43 16l-3 8l67 118c-52 44 -81 117 -81 214c0 244 112 392 313 392c39 0 73 -7 102 -19l54 94l43 -16zM124 260c0 -69 14 -121 41 -155l263 463c-21 11 -47 16 -77 16
c-154 0 -227 -116 -227 -324zM282 55c153 0 229 117 229 327c0 69 -14 120 -41 153l-265 -463c22 -11 47 -17 77 -17z" />
    <glyph glyph-name="Ugrave" unicode="&#xd9;" horiz-adv-x="597" 
d="M278 861l9 2c68 -40 129 -71 191 -102l-14 -34l-9 -4c-64 27 -126 54 -193 86l-3 8zM534 315l-9 -73c-17 -157 -104 -249 -253 -249c-126 0 -203 67 -203 187c0 17 1 35 4 54l12 87l38 319h74l-53 -397c-2 -16 -3 -30 -3 -45c0 -92 46 -138 136 -138
c103 0 165 58 178 174l47 406h75z" />
    <glyph glyph-name="Uacute" unicode="&#xda;" horiz-adv-x="597" 
d="M468 859l20 -44l-3 -9c-67 -32 -129 -58 -193 -86l-9 4l-14 34c62 31 123 63 191 103zM534 315l-9 -73c-17 -157 -104 -249 -253 -249c-126 0 -203 67 -203 187c0 17 1 35 4 54l12 87l38 319h74l-53 -397c-2 -16 -3 -30 -3 -45c0 -92 46 -138 136 -138
c103 0 165 58 178 174l47 406h75z" />
    <glyph glyph-name="Ucircumflex" unicode="&#xdb;" horiz-adv-x="597" 
d="M255 732l-12 33c46 28 86 58 125 89h22c32 -31 69 -61 106 -89l-20 -33h-8c-33 22 -63 44 -93 67c-37 -23 -73 -45 -111 -67h-9zM534 315l-9 -73c-17 -157 -104 -249 -253 -249c-126 0 -203 67 -203 187c0 17 1 35 4 54l12 87l38 319h74l-53 -397c-2 -16 -3 -30 -3 -45
c0 -92 46 -138 136 -138c103 0 165 58 178 174l47 406h75z" />
    <glyph glyph-name="Udieresis" unicode="&#xdc;" horiz-adv-x="597" 
d="M291 831c25 0 40 -17 40 -41c0 -27 -17 -45 -42 -45c-26 0 -41 16 -41 42c0 27 16 44 43 44zM451 830c24 0 39 -16 39 -41c0 -27 -17 -44 -42 -44c-26 0 -41 15 -41 41c0 27 16 44 44 44zM534 315l-9 -73c-17 -157 -104 -249 -253 -249c-126 0 -203 67 -203 187
c0 17 1 35 4 54l12 87l38 319h74l-53 -397c-2 -16 -3 -30 -3 -45c0 -92 46 -138 136 -138c103 0 165 58 178 174l47 406h75z" />
    <glyph glyph-name="Thorn" unicode="&#xde;" horiz-adv-x="502" 
d="M204 528l106 1c105 0 172 -53 172 -165c0 -144 -96 -249 -255 -249h-76l-12 -115h-75l28 193l53 447h74zM158 178l112 -2c81 11 135 81 135 178c0 71 -32 109 -112 113l-97 -2l-36 -266z" />
    <glyph glyph-name="germandbls" unicode="&#xdf;" horiz-adv-x="550" 
d="M363 352c0 -77 145 -105 145 -220c0 -78 -70 -139 -169 -140c-39 4 -74 17 -103 34l16 67l10 5c28 -35 63 -55 99 -55c47 0 82 33 82 75c0 82 -146 107 -145 221c0 124 125 138 125 235c0 48 -30 71 -86 71c-64 0 -111 -33 -123 -99l-46 -347l-30 -213l-5 -107l-75 -6
l44 317l29 210h-70l-5 5l7 45h74l11 78c15 113 86 176 196 176c92 0 147 -43 147 -121c0 -123 -128 -142 -128 -231z" />
    <glyph glyph-name="agrave" unicode="&#xe0;" horiz-adv-x="439" 
d="M335 521l-8 -1c-57 40 -111 81 -169 127l-1 9l28 39l8 1c57 -55 109 -100 163 -145zM391 460l-50 -351l-5 -106l-75 -7l29 205h-10c-46 -81 -100 -153 -157 -208h-14c-50 28 -76 78 -76 157c0 139 78 290 234 315h5l62 -22l47 23zM130 75c21 0 104 93 181 277l1 6l1 24
l-61 22c-95 0 -151 -107 -151 -235c0 -74 17 -94 29 -94z" />
    <glyph glyph-name="aacute" unicode="&#xe1;" horiz-adv-x="439" 
d="M189 521l-21 30c54 45 106 90 162 145l9 -1l28 -39l-2 -9c-58 -46 -111 -87 -168 -127zM391 460l-50 -351l-5 -106l-75 -7l29 205h-10c-46 -81 -100 -153 -157 -208h-14c-50 28 -76 78 -76 157c0 139 78 290 234 315h5l62 -22l47 23zM130 75c21 0 104 93 181 277l1 6
l1 24l-61 22c-95 0 -151 -107 -151 -235c0 -74 17 -94 29 -94z" />
    <glyph glyph-name="acircumflex" unicode="&#xe2;" horiz-adv-x="439" 
d="M151 522l-17 30c43 39 87 83 136 134h23c33 -48 68 -93 103 -134l-24 -30h-8c-35 36 -63 70 -89 105c-35 -35 -73 -69 -115 -105h-9zM381 466l10 -6l-50 -351l-5 -106l-75 -7l29 205h-10c-46 -81 -100 -153 -157 -208h-14c-50 28 -76 78 -76 157c0 139 78 290 234 315h5
l62 -22zM130 75c21 0 104 93 181 277l1 6l1 24l-61 22c-95 0 -151 -107 -151 -235c0 -74 17 -94 29 -94z" />
    <glyph glyph-name="atilde" unicode="&#xe3;" horiz-adv-x="439" 
d="M422 641v-7l-61 -67l-9 -4c-41 5 -129 37 -155 37c-15 0 -31 -21 -56 -46h-9l-23 25v7l61 67l9 3c42 -5 130 -36 155 -36c15 0 31 20 57 46h7zM381 466l10 -6l-50 -351l-5 -106l-75 -7l29 205h-10c-46 -81 -100 -153 -157 -208h-14c-50 28 -76 78 -76 157
c0 139 78 290 234 315h5l62 -22zM130 75c21 0 104 93 181 277l1 6l1 24l-61 22c-95 0 -151 -107 -151 -235c0 -74 17 -94 29 -94z" />
    <glyph glyph-name="adieresis" unicode="&#xe4;" horiz-adv-x="439" 
d="M186 564c-26 0 -41 16 -41 42c0 27 16 44 43 44c25 0 40 -17 40 -41c0 -27 -17 -45 -42 -45zM345 564c-26 0 -41 15 -41 41c0 27 16 44 44 44c24 0 39 -16 39 -41c0 -27 -17 -44 -42 -44zM391 460l-50 -351l-5 -106l-75 -7l29 205h-10c-46 -81 -100 -153 -157 -208h-14
c-50 28 -76 78 -76 157c0 139 78 290 234 315h5l62 -22l47 23zM130 75c21 0 104 93 181 277l1 6l1 24l-61 22c-95 0 -151 -107 -151 -235c0 -74 17 -94 29 -94z" />
    <glyph glyph-name="aring" unicode="&#xe5;" horiz-adv-x="439" 
d="M265 533c-46 0 -81 29 -81 81c0 49 31 82 83 82c54 0 82 -35 82 -80c0 -53 -37 -83 -84 -83zM266 658c-30 0 -45 -16 -45 -43c0 -30 19 -46 46 -46c26 0 45 15 45 44c0 26 -15 45 -46 45zM391 460l-50 -351l-5 -106l-75 -7l29 205h-10c-46 -81 -100 -153 -157 -208h-14
c-50 28 -76 78 -76 157c0 139 78 290 234 315h5l62 -22l47 23zM130 75c21 0 104 93 181 277l1 6l1 24l-61 22c-95 0 -151 -107 -151 -235c0 -74 17 -94 29 -94z" />
    <glyph glyph-name="ae" unicode="&#xe6;" horiz-adv-x="609" 
d="M281 465l105 -39c32 24 71 38 114 40l9 -1c55 -8 86 -37 86 -89c0 -76 -76 -143 -249 -202v-13c3 -73 25 -105 65 -105c46 0 94 40 121 94l12 -1l25 -35c-46 -66 -97 -107 -157 -121h-12c-92 10 -124 68 -124 167c0 4 -1 15 0 19c-43 -72 -92 -136 -146 -186h-14
c-49 28 -76 78 -76 157c0 139 78 290 236 315h5zM481 412c-68 0 -119 -72 -132 -182c117 37 179 86 179 141c0 25 -14 41 -47 41zM337 375l-76 29c-97 0 -154 -107 -154 -234c0 -75 18 -95 30 -95c21 0 98 86 171 253c9 17 17 33 29 47z" />
    <glyph glyph-name="ccedilla" unicode="&#xe7;" horiz-adv-x="334" 
d="M337 433l-20 -59l-16 -3c-27 28 -46 35 -68 35c-78 0 -129 -89 -129 -235c0 -84 19 -115 58 -115c29 0 64 18 103 91h11l24 -34c-37 -62 -73 -94 -120 -112l-15 -52l33 -20c28 -15 38 -33 38 -55c0 -39 -33 -65 -79 -65c-34 0 -57 15 -72 31l8 38l5 2
c16 -19 31 -31 55 -31c19 0 33 9 33 27c0 13 -9 19 -22 25l-47 29l17 65c-66 14 -100 51 -100 163c0 167 71 306 233 306l64 -20z" />
    <glyph glyph-name="egrave" unicode="&#xe8;" horiz-adv-x="374" 
d="M322 521l-8 -1c-57 40 -111 81 -169 127l-1 9l28 39l8 1c57 -55 109 -100 163 -145zM300 149l25 -35c-45 -66 -96 -107 -156 -121h-13c-84 7 -122 65 -122 161c0 177 90 307 223 312l9 -1c53 -8 85 -37 85 -89c0 -76 -75 -143 -246 -201c0 -83 20 -119 63 -119
c45 0 91 40 120 94zM238 412c-67 0 -117 -72 -130 -182c115 38 176 87 176 141c0 25 -14 41 -46 41z" />
    <glyph glyph-name="eacute" unicode="&#xe9;" horiz-adv-x="374" 
d="M354 656l-2 -9c-58 -46 -111 -87 -168 -127l-8 1l-21 30c54 45 106 90 162 145l9 -1zM351 376c0 -76 -75 -143 -246 -201c0 -83 20 -119 63 -119c45 0 91 40 120 94l12 -1l25 -35c-45 -66 -96 -107 -156 -121h-13c-84 7 -122 65 -122 161c0 177 90 307 223 312l9 -1
c53 -8 85 -37 85 -89zM108 230c115 38 176 87 176 141c0 25 -14 41 -46 41c-67 0 -117 -72 -130 -182z" />
    <glyph glyph-name="ecircumflex" unicode="&#xea;" horiz-adv-x="374" 
d="M257 686h23c33 -48 68 -93 103 -134l-24 -30h-8c-35 36 -63 70 -89 105c-35 -35 -73 -69 -115 -105h-9l-17 30c43 39 87 83 136 134zM351 376c0 -76 -75 -143 -246 -201c0 -83 20 -119 63 -119c45 0 91 40 120 94l12 -1l25 -35c-45 -66 -96 -107 -156 -121h-13
c-84 7 -122 65 -122 161c0 177 90 307 223 312l9 -1c53 -8 85 -37 85 -89zM108 230c115 38 176 87 176 141c0 25 -14 41 -46 41c-67 0 -117 -72 -130 -182z" />
    <glyph glyph-name="edieresis" unicode="&#xeb;" horiz-adv-x="374" 
d="M173 564c-26 0 -41 16 -41 42c0 27 16 44 43 44c25 0 40 -17 40 -41c0 -27 -17 -45 -42 -45zM335 649c24 0 39 -16 39 -41c0 -27 -17 -44 -42 -44c-26 0 -41 15 -41 41c0 27 16 44 44 44zM351 376c0 -76 -75 -143 -246 -201c0 -83 20 -119 63 -119c45 0 91 40 120 94
l12 -1l25 -35c-45 -66 -96 -107 -156 -121h-13c-84 7 -122 65 -122 161c0 177 90 307 223 312l9 -1c53 -8 85 -37 85 -89zM108 230c115 38 176 87 176 141c0 25 -14 41 -46 41c-67 0 -117 -72 -130 -182z" />
    <glyph glyph-name="igrave" unicode="&#xec;" horiz-adv-x="218" 
d="M73 694l8 1c57 -55 109 -100 163 -145l-21 -30l-8 -1c-57 40 -111 81 -169 127l-1 9zM124 109l-4 -106l-76 -7l52 363l4 97l74 7z" />
    <glyph glyph-name="iacute" unicode="&#xed;" horiz-adv-x="218" 
d="M227 694l28 -39l-2 -9c-58 -46 -111 -87 -168 -127l-8 1l-21 30c54 45 106 90 162 145zM124 109l-4 -106l-76 -7l52 363l4 97l74 7z" />
    <glyph glyph-name="icircumflex" unicode="&#xee;" horiz-adv-x="218" 
d="M39 521l-17 30c43 39 87 83 136 134h23c33 -48 68 -93 103 -134l-24 -30h-8c-35 36 -63 70 -89 105c-35 -35 -73 -69 -115 -105h-9zM124 109l-4 -106l-76 -7l52 363l4 97l74 7z" />
    <glyph glyph-name="eth" unicode="&#xf0;" horiz-adv-x="437" 
d="M392 643l-105 -51c68 -76 103 -172 102 -279c0 -183 -83 -310 -220 -322l-9 1c-75 14 -114 58 -114 157c0 176 85 303 221 310h8c7 -1 13 -2 19 -4c-16 39 -40 75 -71 106l-127 -61l-6 3l-11 37l108 53c-32 25 -70 47 -113 66l1 10l50 36h5c48 -22 89 -48 123 -80l120 59
l7 -3zM178 48c92 0 142 105 143 261c0 24 -2 46 -5 68c-12 22 -31 31 -59 31c-93 0 -144 -104 -144 -258c0 -72 19 -102 65 -102z" />
    <glyph glyph-name="ntilde" unicode="&#xf1;" horiz-adv-x="467" 
d="M438 640v-7l-61 -67l-9 -4c-41 5 -129 37 -155 37c-15 0 -31 -21 -56 -46h-9l-23 25v7l61 67l9 3c42 -5 130 -36 155 -36c15 0 31 20 57 46h7zM326 465h11c44 -10 79 -40 77 -87l-1 -13l-41 -257l-6 -105l-77 -7l55 342l1 13c0 19 -6 31 -21 31c-37 0 -110 -95 -199 -281
l-5 -98l-76 -7l52 363l5 97l73 7l-31 -225h9c65 112 115 181 174 227z" />
    <glyph glyph-name="ograve" unicode="&#xf2;" horiz-adv-x="411" 
d="M181 694l8 1c57 -55 109 -100 163 -145l-21 -30l-8 -1c-57 40 -111 81 -169 127l-1 9zM258 466h8c72 -12 109 -59 109 -152c0 -184 -80 -311 -219 -323l-8 1c-74 14 -112 59 -112 157c0 180 84 309 222 317zM245 405c-92 0 -140 -102 -140 -255c0 -69 17 -99 62 -99
c90 0 138 105 138 258c0 68 -18 96 -60 96z" />
    <glyph glyph-name="oacute" unicode="&#xf3;" horiz-adv-x="411" 
d="M335 694l28 -39l-2 -9c-58 -46 -111 -87 -168 -127l-8 1l-21 30c54 45 106 90 162 145zM258 466h8c72 -12 109 -59 109 -152c0 -184 -80 -311 -219 -323l-8 1c-74 14 -112 59 -112 157c0 180 84 309 222 317zM245 405c-92 0 -140 -102 -140 -255c0 -69 17 -99 62 -99
c90 0 138 105 138 258c0 68 -18 96 -60 96z" />
    <glyph glyph-name="ocircumflex" unicode="&#xf4;" horiz-adv-x="411" 
d="M147 521l-17 30c43 39 87 83 136 134h23c33 -48 68 -93 103 -134l-24 -30h-8c-35 36 -63 70 -89 105c-35 -35 -73 -69 -115 -105h-9zM258 466h8c72 -12 109 -59 109 -152c0 -184 -80 -311 -219 -323l-8 1c-74 14 -112 59 -112 157c0 180 84 309 222 317zM245 405
c-92 0 -140 -102 -140 -255c0 -69 17 -99 62 -99c90 0 138 105 138 258c0 68 -18 96 -60 96z" />
    <glyph glyph-name="otilde" unicode="&#xf5;" horiz-adv-x="411" 
d="M418 640v-7l-61 -67l-9 -4c-41 5 -129 37 -155 37c-15 0 -31 -21 -56 -46h-9l-23 25v7l61 67l9 3c42 -5 130 -36 155 -36c15 0 31 20 57 46h7zM258 466h8c72 -12 109 -59 109 -152c0 -184 -80 -311 -219 -323l-8 1c-74 14 -112 59 -112 157c0 180 84 309 222 317z
M245 405c-92 0 -140 -102 -140 -255c0 -69 17 -99 62 -99c90 0 138 105 138 258c0 68 -18 96 -60 96z" />
    <glyph glyph-name="divide" unicode="&#xf7;" horiz-adv-x="478" 
d="M265 485c25 0 40 -16 40 -40c0 -27 -17 -44 -42 -44c-26 0 -40 16 -40 41c0 26 16 43 42 43zM452 286l-5 -47h-407l-5 6l4 47h406zM223 134c25 0 39 -16 39 -41c0 -26 -16 -43 -42 -43c-25 0 -40 15 -40 41c0 25 16 43 43 43z" />
    <glyph glyph-name="oslash" unicode="&#xf8;" horiz-adv-x="411" 
d="M378 523l-43 -88c26 -25 40 -65 40 -121c0 -184 -80 -311 -219 -323l-8 1c-9 2 -18 4 -26 7l-55 -114l-42 19l-3 7l56 113c-28 26 -42 66 -42 125c0 180 84 309 222 317h8c9 -1 17 -4 25 -6l44 89l38 -18zM105 150c0 -23 2 -42 6 -57l152 310c-5 1 -11 2 -18 2
c-92 0 -140 -102 -140 -255zM167 51c90 0 138 105 138 258c0 21 -2 39 -6 53l-150 -309c5 -1 11 -2 18 -2z" />
    <glyph glyph-name="ugrave" unicode="&#xf9;" horiz-adv-x="471" 
d="M351 520l-8 -1c-57 40 -111 81 -169 127l-1 9l28 39l8 1c57 -55 109 -100 163 -145zM422 463l-50 -354l-4 -106l-76 -7l31 224h-6c-65 -111 -116 -178 -175 -224h-11c-43 10 -78 39 -77 86l1 13l41 258l8 105l74 6l-52 -335l-2 -21c-1 -21 8 -30 20 -30
c38 0 110 93 199 278v3l5 97z" />
    <glyph glyph-name="uacute" unicode="&#xfa;" horiz-adv-x="471" 
d="M205 520l-21 30c54 45 106 90 162 145l9 -1l28 -39l-2 -9c-58 -46 -111 -87 -168 -127zM422 463l-50 -354l-4 -106l-76 -7l31 224h-6c-65 -111 -116 -178 -175 -224h-11c-43 10 -78 39 -77 86l1 13l41 258l8 105l74 6l-52 -335l-2 -21c-1 -21 8 -30 20 -30
c38 0 110 93 199 278v3l5 97z" />
    <glyph glyph-name="ucircumflex" unicode="&#xfb;" horiz-adv-x="471" 
d="M168 521l-17 30c43 39 87 83 136 134h23c33 -48 68 -93 103 -134l-24 -30h-8c-35 36 -63 70 -89 105c-35 -35 -73 -69 -115 -105h-9zM422 463l-50 -354l-4 -106l-76 -7l31 224h-6c-65 -111 -116 -178 -175 -224h-11c-43 10 -78 39 -77 86l1 13l41 258l8 105l74 6
l-52 -335l-2 -21c-1 -21 8 -30 20 -30c38 0 110 93 199 278v3l5 97z" />
    <glyph glyph-name="udieresis" unicode="&#xfc;" horiz-adv-x="471" 
d="M202 563c-26 0 -41 16 -41 42c0 27 16 44 43 44c25 0 40 -17 40 -41c0 -27 -17 -45 -42 -45zM361 563c-26 0 -41 15 -41 41c0 27 16 44 44 44c24 0 39 -16 39 -41c0 -27 -17 -44 -42 -44zM422 463l-50 -354l-4 -106l-76 -7l31 224h-6c-65 -111 -116 -178 -175 -224h-11
c-43 10 -78 39 -77 86l1 13l41 258l8 105l74 6l-52 -335l-2 -21c-1 -21 8 -30 20 -30c38 0 110 93 199 278v3l5 97z" />
    <glyph glyph-name="thorn" unicode="&#xfe;" horiz-adv-x="446" 
d="M318 465h15c48 -29 75 -78 75 -157c0 -140 -79 -291 -235 -315h-5l-53 12l-11 -80l-5 -110l-76 -7l110 791l4 98l74 6l-62 -448h11c46 80 100 154 158 210zM124 71l64 -18c96 0 152 108 152 236c0 74 -17 93 -30 93c-20 0 -103 -93 -181 -274z" />
    <glyph glyph-name="ydieresis" unicode="&#xff;" horiz-adv-x="407" 
d="M145 563c-26 0 -41 16 -41 42c0 27 16 44 43 44c25 0 40 -17 40 -41c0 -27 -17 -45 -42 -45zM304 563c-26 0 -41 15 -41 41c0 27 16 44 44 44c24 0 39 -16 39 -41c0 -27 -17 -44 -42 -44zM306 447l69 16c16 -26 23 -53 23 -80c0 -45 -18 -93 -49 -148l-115 -203
c-95 -166 -168 -227 -255 -227c-25 0 -52 5 -78 16l-4 64l8 6c27 -10 52 -15 73 -15c56 0 113 35 168 117l-90 463l73 7l12 -80l47 -294h13l90 171c23 43 36 78 36 110c0 24 -8 45 -24 67z" />
    <glyph glyph-name="Amacron" unicode="&#x100;" horiz-adv-x="548" 
d="M206 764l-6 6l5 44h283l6 -5l-5 -45h-283zM501 0h-76l-7 62l-21 115l-136 2l-123 -2l-52 -111l-24 -66h-75l304 640h86zM385 241l-59 321h-7l-151 -321l107 -1z" />
    <glyph glyph-name="amacron" unicode="&#x101;" horiz-adv-x="439" 
d="M413 628l-5 -45h-283l-6 6l5 44h283zM381 466l10 -6l-50 -351l-5 -106l-75 -7l29 205h-10c-46 -81 -100 -153 -157 -208h-14c-50 28 -76 78 -76 157c0 139 78 290 234 315h5l62 -22zM130 75c21 0 104 93 181 277l1 6l1 24l-61 22c-95 0 -151 -107 -151 -235
c0 -74 17 -94 29 -94z" />
    <glyph glyph-name="Abreve" unicode="&#x102;" horiz-adv-x="548" 
d="M343 724c-65 0 -109 32 -121 89l25 26h12c8 -38 37 -60 84 -60c45 0 79 22 98 60h12l18 -26c-25 -57 -71 -89 -128 -89zM501 0h-76l-7 62l-21 115l-136 2l-123 -2l-52 -111l-24 -66h-75l304 640h86zM385 241l-59 321h-7l-151 -321l107 -1z" />
    <glyph glyph-name="abreve" unicode="&#x103;" horiz-adv-x="439" 
d="M255 527c-76 0 -108 45 -114 114l24 29h11c6 -60 34 -88 82 -88s82 28 101 88h12l18 -29c-23 -71 -68 -114 -134 -114zM391 460l-50 -351l-5 -106l-75 -7l29 205h-10c-46 -81 -100 -153 -157 -208h-14c-50 28 -76 78 -76 157c0 139 78 290 234 315h5l62 -22l47 23z
M130 75c21 0 104 93 181 277l1 6l1 24l-61 22c-95 0 -151 -107 -151 -235c0 -74 17 -94 29 -94z" />
    <glyph glyph-name="Aogonek" unicode="&#x104;" horiz-adv-x="548" 
d="M491 -101l4 -44c-25 -32 -53 -51 -84 -51c-36 0 -64 23 -64 63c0 29 13 58 78 133l-7 62l-21 115l-136 2l-123 -2l-52 -111l-24 -66h-75l304 640h86l124 -640h-20c-66 -66 -81 -93 -81 -117c0 -21 11 -27 24 -27c22 0 41 16 63 43h4zM385 241l-59 321h-7l-151 -321
l107 -1z" />
    <glyph glyph-name="aogonek" unicode="&#x105;" horiz-adv-x="448" 
d="M336 3l-22 -2c-66 -71 -81 -95 -81 -117c0 -21 14 -29 32 -29c19 0 40 12 58 37h3l14 -40c-26 -29 -53 -49 -87 -49c-39 0 -70 27 -70 70c0 31 17 59 78 125l29 203h-10c-46 -81 -100 -153 -157 -208h-14c-50 28 -76 78 -76 157c0 139 78 290 234 315h5l62 -22l47 23
l10 -6l-50 -351zM130 75c21 0 104 93 181 277l1 6l1 24l-61 22c-95 0 -151 -107 -151 -235c0 -74 17 -94 29 -94z" />
    <glyph glyph-name="Cacute" unicode="&#x106;" horiz-adv-x="500" 
d="M455 859l20 -44l-3 -9c-67 -32 -129 -58 -193 -86l-9 4l-14 34c62 31 123 63 191 103zM360 646c65 0 121 -18 164 -49l-24 -69l-9 -2c-36 36 -81 56 -140 56c-142 0 -225 -114 -225 -316c0 -135 56 -208 157 -208c57 0 117 22 168 61l8 -5l-15 -71
c-58 -33 -111 -50 -173 -50c-143 0 -224 96 -224 262c0 244 116 391 313 391z" />
    <glyph glyph-name="cacute" unicode="&#x107;" horiz-adv-x="334" 
d="M322 695l28 -39l-2 -9c-58 -46 -111 -87 -168 -127l-8 1l-21 30c54 45 106 90 162 145zM331 444l6 -11l-20 -59l-16 -3c-27 28 -46 35 -68 35c-78 0 -129 -89 -129 -235c0 -84 19 -115 58 -115c29 0 64 18 103 91h11l24 -34c-43 -72 -85 -103 -143 -120h-13
c-73 13 -110 48 -110 165c0 167 71 306 233 306z" />
    <glyph glyph-name="Ccircumflex" unicode="&#x108;" horiz-adv-x="500" 
d="M241 732l-12 33c46 28 86 58 125 89h22c32 -31 69 -61 106 -89l-20 -33h-8c-33 22 -63 44 -93 67c-37 -23 -73 -45 -111 -67h-9zM360 646c65 0 121 -18 164 -49l-24 -69l-9 -2c-36 36 -81 56 -140 56c-142 0 -225 -114 -225 -316c0 -135 56 -208 157 -208
c57 0 117 22 168 61l8 -5l-15 -71c-58 -33 -111 -50 -173 -50c-143 0 -224 96 -224 262c0 244 116 391 313 391z" />
    <glyph glyph-name="ccircumflex" unicode="&#x109;" horiz-adv-x="334" 
d="M134 522l-17 30c43 39 87 83 136 134h23c33 -48 68 -93 103 -134l-24 -30h-8c-35 36 -63 70 -89 105c-35 -35 -73 -69 -115 -105h-9zM331 444l6 -11l-20 -59l-16 -3c-27 28 -46 35 -68 35c-78 0 -129 -89 -129 -235c0 -84 19 -115 58 -115c29 0 64 18 103 91h11l24 -34
c-43 -72 -85 -103 -143 -120h-13c-73 13 -110 48 -110 165c0 167 71 306 233 306z" />
    <glyph glyph-name="Cdotaccent" unicode="&#x10a;" horiz-adv-x="500" 
d="M358 843c26 0 41 -16 41 -43c0 -28 -17 -46 -44 -46s-43 17 -43 44s18 45 46 45zM360 646c65 0 121 -18 164 -49l-24 -69l-9 -2c-36 36 -81 56 -140 56c-142 0 -225 -114 -225 -316c0 -135 56 -208 157 -208c57 0 117 22 168 61l8 -5l-15 -71c-58 -33 -111 -50 -173 -50
c-143 0 -224 96 -224 262c0 244 116 391 313 391z" />
    <glyph glyph-name="cdotaccent" unicode="&#x10b;" horiz-adv-x="334" 
d="M252 662c26 0 41 -16 41 -43c0 -28 -17 -46 -44 -46s-43 17 -43 44s18 45 46 45zM331 444l6 -11l-20 -59l-16 -3c-27 28 -46 35 -68 35c-78 0 -129 -89 -129 -235c0 -84 19 -115 58 -115c29 0 64 18 103 91h11l24 -34c-43 -72 -85 -103 -143 -120h-13
c-73 13 -110 48 -110 165c0 167 71 306 233 306z" />
    <glyph glyph-name="Ccaron" unicode="&#x10c;" horiz-adv-x="500" 
d="M468 846l12 -32c-45 -28 -87 -59 -124 -90h-22c-34 31 -70 62 -106 90l19 32h9c31 -22 62 -43 93 -66c36 23 72 44 110 66h9zM360 646c65 0 121 -18 164 -49l-24 -69l-9 -2c-36 36 -81 56 -140 56c-142 0 -225 -114 -225 -316c0 -135 56 -208 157 -208
c57 0 117 22 168 61l8 -5l-15 -71c-58 -33 -111 -50 -173 -50c-143 0 -224 96 -224 262c0 244 116 391 313 391z" />
    <glyph glyph-name="ccaron" unicode="&#x10d;" horiz-adv-x="334" 
d="M364 687l16 -31c-41 -38 -84 -83 -133 -133h-23c-33 48 -69 93 -106 133l24 31h9c34 -37 62 -70 88 -106c36 36 73 69 115 106h10zM331 444l6 -11l-20 -59l-16 -3c-27 28 -46 35 -68 35c-78 0 -129 -89 -129 -235c0 -84 19 -115 58 -115c29 0 64 18 103 91h11l24 -34
c-43 -72 -85 -103 -143 -120h-13c-73 13 -110 48 -110 165c0 167 71 306 233 306z" />
    <glyph glyph-name="Dcaron" unicode="&#x10e;" horiz-adv-x="620" 
d="M350 724h-22c-34 31 -70 62 -106 90l19 32h9c31 -22 62 -43 93 -66c36 23 72 44 110 66h9l12 -32c-45 -28 -87 -59 -124 -90zM145 640l213 5c153 0 241 -90 241 -250c0 -247 -118 -401 -333 -401c-36 0 -150 3 -202 6h-1l29 193l52 447h1zM281 57c150 0 239 113 239 324
c0 134 -58 201 -170 201c-20 0 -102 -2 -139 -4l-52 -379l-14 -136c45 -3 116 -6 136 -6z" />
    <glyph glyph-name="dcaron" unicode="&#x10f;" horiz-adv-x="504" 
d="M351 697l76 7l-83 -595l-5 -106l-76 -7l29 205h-10c-47 -81 -102 -153 -159 -208h-16c-49 28 -75 77 -75 157c0 139 79 291 236 315h5l53 -19l22 154zM561 647l-43 -170l-37 -6l-6 6l27 173l54 3zM130 75c20 0 105 93 183 277l4 29l-64 23c-97 0 -154 -107 -154 -235
c0 -74 18 -94 31 -94z" />
    <glyph glyph-name="Dcroat" unicode="&#x110;" horiz-adv-x="644" 
d="M168 640l213 5c154 0 242 -90 242 -250c0 -247 -119 -401 -334 -401c-36 0 -150 3 -202 6l29 193l12 105h-94l-3 6l6 48h97l33 288h1zM304 57c151 0 240 113 240 324c0 134 -58 201 -171 201c-20 0 -101 -2 -138 -4l-31 -226h155l3 -7l-5 -47h-161l-13 -99l-14 -136
c45 -3 116 -6 135 -6z" />
    <glyph glyph-name="dcroat" unicode="&#x111;" horiz-adv-x="453" 
d="M489 557h-83l-62 -448l-5 -106l-76 -7l29 205h-10c-47 -81 -102 -153 -159 -208h-16c-49 28 -75 77 -75 157c0 139 79 291 236 315h5l53 -19l16 111h-119l-6 5l5 41h126l3 94l76 7l-14 -101h74l6 -7zM130 75c20 0 105 93 183 277l4 29l-64 23c-97 0 -154 -107 -154 -235
c0 -74 18 -94 31 -94z" />
    <glyph glyph-name="Emacron" unicode="&#x112;" horiz-adv-x="461" 
d="M187 764l-6 6l5 44h283l6 -5l-5 -45h-283zM210 576l-28 -216l115 -2l100 3l5 -7l-14 -58l-106 2l-109 -1l-13 -98l-15 -135l123 -2l145 4l3 -7l-13 -59h-340l29 193l52 447h341l3 -7l-13 -59l-142 4z" />
    <glyph glyph-name="emacron" unicode="&#x113;" horiz-adv-x="374" 
d="M400 628l-5 -45h-283l-6 6l5 44h283zM351 376c0 -76 -75 -143 -246 -201c0 -83 20 -119 63 -119c45 0 91 40 120 94l12 -1l25 -35c-45 -66 -96 -107 -156 -121h-13c-84 7 -122 65 -122 161c0 177 90 307 223 312l9 -1c53 -8 85 -37 85 -89zM108 230
c115 38 176 87 176 141c0 25 -14 41 -46 41c-67 0 -117 -72 -130 -182z" />
    <glyph glyph-name="Ebreve" unicode="&#x114;" horiz-adv-x="461" 
d="M324 724c-65 0 -109 32 -121 89l25 26h12c8 -38 37 -60 84 -60c45 0 79 22 98 60h12l18 -26c-25 -57 -71 -89 -128 -89zM210 576l-28 -216l115 -2l100 3l5 -7l-14 -58l-106 2l-109 -1l-13 -98l-15 -135l123 -2l145 4l3 -7l-13 -59h-340l29 193l52 447h341l3 -7l-13 -59
l-142 4z" />
    <glyph glyph-name="ebreve" unicode="&#x115;" horiz-adv-x="374" 
d="M242 527c-76 0 -108 45 -114 114l24 29h11c6 -60 34 -88 82 -88s82 28 101 88h12l18 -29c-23 -71 -68 -114 -134 -114zM351 376c0 -76 -75 -143 -246 -201c0 -83 20 -119 63 -119c45 0 91 40 120 94l12 -1l25 -35c-45 -66 -96 -107 -156 -121h-13c-84 7 -122 65 -122 161
c0 177 90 307 223 312l9 -1c53 -8 85 -37 85 -89zM108 230c115 38 176 87 176 141c0 25 -14 41 -46 41c-67 0 -117 -72 -130 -182z" />
    <glyph glyph-name="Edotaccent" unicode="&#x116;" horiz-adv-x="461" 
d="M328 754c-27 0 -43 17 -43 44s18 45 46 45c26 0 41 -16 41 -43c0 -28 -17 -46 -44 -46zM210 576l-28 -216l115 -2l100 3l5 -7l-14 -58l-106 2l-109 -1l-13 -98l-15 -135l123 -2l145 4l3 -7l-13 -59h-340l29 193l52 447h341l3 -7l-13 -59l-142 4z" />
    <glyph glyph-name="edotaccent" unicode="&#x117;" horiz-adv-x="374" 
d="M253 573c-27 0 -43 17 -43 44s18 45 46 45c26 0 41 -16 41 -43c0 -28 -17 -46 -44 -46zM300 149l25 -35c-45 -66 -96 -107 -156 -121h-13c-84 7 -122 65 -122 161c0 177 90 307 223 312l9 -1c53 -8 85 -37 85 -89c0 -76 -75 -143 -246 -201c0 -83 20 -119 63 -119
c45 0 91 40 120 94zM238 412c-67 0 -117 -72 -130 -182c115 38 176 87 176 141c0 25 -14 41 -46 41z" />
    <glyph glyph-name="Eogonek" unicode="&#x118;" horiz-adv-x="461" 
d="M210 576l-28 -216l115 -2l100 3l5 -7l-14 -58l-106 2l-109 -1l-13 -98l-15 -135l123 -2l145 4l3 -7l-13 -59h-63l-36 -55c-11 -19 -17 -35 -17 -50c0 -24 13 -41 40 -41c23 0 48 15 70 40h4l11 -38c-32 -34 -62 -53 -97 -53c-47 0 -78 33 -78 78c0 24 8 48 25 73l32 46
h-231l29 193l52 447h341l3 -7l-13 -59l-142 4z" />
    <glyph glyph-name="eogonek" unicode="&#x119;" horiz-adv-x="374" 
d="M259 39l-62 -94c-11 -19 -17 -35 -17 -50c0 -24 13 -41 40 -41c23 0 48 15 70 40h4l11 -38c-32 -34 -62 -53 -97 -53c-47 0 -78 33 -78 78c0 24 8 48 25 73l30 43l-16 -4h-13c-84 7 -122 65 -122 161c0 177 90 307 223 312l9 -1c53 -8 85 -37 85 -89
c0 -76 -75 -143 -246 -201c0 -83 20 -119 63 -119c45 0 91 40 120 94l12 -1l25 -35c-21 -30 -43 -56 -66 -75zM238 412c-67 0 -117 -72 -130 -182c115 38 176 87 176 141c0 25 -14 41 -46 41z" />
    <glyph glyph-name="Ecaron" unicode="&#x11a;" horiz-adv-x="461" 
d="M329 724h-22c-34 31 -70 62 -106 90l19 32h9c31 -22 62 -43 93 -66c36 23 72 44 110 66h9l12 -32c-45 -28 -87 -59 -124 -90zM210 576l-28 -216l115 -2l100 3l5 -7l-14 -58l-106 2l-109 -1l-13 -98l-15 -135l123 -2l145 4l3 -7l-13 -59h-340l29 193l52 447h341l3 -7
l-13 -59l-142 4z" />
    <glyph glyph-name="ecaron" unicode="&#x11b;" horiz-adv-x="374" 
d="M251 523h-23c-33 48 -69 93 -106 133l24 31h9c34 -37 62 -70 88 -106c36 36 73 69 115 106h10l16 -31c-41 -38 -84 -83 -133 -133zM351 376c0 -76 -75 -143 -246 -201c0 -83 20 -119 63 -119c45 0 91 40 120 94l12 -1l25 -35c-45 -66 -96 -107 -156 -121h-13
c-84 7 -122 65 -122 161c0 177 90 307 223 312l9 -1c53 -8 85 -37 85 -89zM108 230c115 38 176 87 176 141c0 25 -14 41 -46 41c-67 0 -117 -72 -130 -182z" />
    <glyph glyph-name="Gcircumflex" unicode="&#x11c;" horiz-adv-x="575" 
d="M254 732l-12 33c46 28 86 58 125 89h22c32 -31 69 -61 106 -89l-20 -33h-8c-33 22 -63 44 -93 67c-37 -23 -73 -45 -111 -67h-9zM381 646c62 0 121 -14 180 -46l-26 -71l-9 -2c-56 39 -101 55 -158 55c-160 0 -246 -113 -246 -327c0 -134 55 -197 172 -197
c36 0 67 5 126 24l13 78l10 90l70 6l-12 -86l-14 -139c-75 -26 -128 -38 -198 -38c-162 0 -244 95 -244 255c0 253 122 398 336 398z" />
    <glyph glyph-name="gcircumflex" unicode="&#x11d;" horiz-adv-x="441" 
d="M158 521l-17 30c43 39 87 83 136 134h23c33 -48 68 -93 103 -134l-24 -30h-8c-35 36 -63 70 -89 105c-35 -35 -73 -69 -115 -105h-9zM383 466l10 -6l-49 -347l-8 -75c-21 -150 -118 -236 -232 -236c-85 0 -144 50 -160 140l4 8l140 88l1 9c-28 25 -41 61 -41 119
c0 141 75 275 221 298h5l62 -22zM316 381l-61 23c-92 0 -140 -97 -140 -213c0 -73 19 -97 28 -97c18 0 94 92 171 255l1 10zM120 -141c74 0 133 54 147 159l27 192h-11c-44 -77 -93 -142 -147 -186l-102 -76c-8 -6 -10 -10 -10 -17c1 -33 36 -72 96 -72z" />
    <glyph glyph-name="Gbreve" unicode="&#x11e;" horiz-adv-x="575" 
d="M474 839l18 -26c-25 -57 -71 -89 -128 -89c-65 0 -109 32 -121 89l25 26h12c8 -38 37 -60 84 -60c45 0 79 22 98 60h12zM381 646c62 0 121 -14 180 -46l-26 -71l-9 -2c-56 39 -101 55 -158 55c-160 0 -246 -113 -246 -327c0 -134 55 -197 172 -197c36 0 67 5 126 24
l13 78l10 90l70 6l-12 -86l-14 -139c-75 -26 -128 -38 -198 -38c-162 0 -244 95 -244 255c0 253 122 398 336 398z" />
    <glyph glyph-name="gbreve" unicode="&#x11f;" horiz-adv-x="441" 
d="M262 526c-76 0 -108 45 -114 114l24 29h11c6 -60 34 -88 82 -88s82 28 101 88h12l18 -29c-23 -71 -68 -114 -134 -114zM383 466l10 -6l-49 -347l-8 -75c-21 -150 -118 -236 -232 -236c-85 0 -144 50 -160 140l4 8l140 88l1 9c-28 25 -41 61 -41 119c0 141 75 275 221 298
h5l62 -22zM316 381l-61 23c-92 0 -140 -97 -140 -213c0 -73 19 -97 28 -97c18 0 94 92 171 255l1 10zM120 -141c74 0 133 54 147 159l27 192h-11c-44 -77 -93 -142 -147 -186l-102 -76c-8 -6 -10 -10 -10 -17c1 -33 36 -72 96 -72z" />
    <glyph glyph-name="Gdotaccent" unicode="&#x120;" horiz-adv-x="575" 
d="M371 843c26 0 41 -16 41 -43c0 -28 -17 -46 -44 -46s-43 17 -43 44s18 45 46 45zM381 646c62 0 121 -14 180 -46l-26 -71l-9 -2c-56 39 -101 55 -158 55c-160 0 -246 -113 -246 -327c0 -134 55 -197 172 -197c36 0 67 5 126 24l13 78l10 90l70 6l-12 -86l-14 -139
c-75 -26 -128 -38 -198 -38c-162 0 -244 95 -244 255c0 253 122 398 336 398z" />
    <glyph glyph-name="gdotaccent" unicode="&#x121;" horiz-adv-x="441" 
d="M273 572c-27 0 -43 17 -43 44s18 45 46 45c26 0 41 -16 41 -43c0 -28 -17 -46 -44 -46zM393 460l-49 -347l-8 -75c-21 -150 -118 -236 -232 -236c-85 0 -144 50 -160 140l4 8l140 88l1 9c-28 25 -41 61 -41 119c0 141 75 275 221 298h5l62 -22l47 24zM316 381l-61 23
c-92 0 -140 -97 -140 -213c0 -73 19 -97 28 -97c18 0 94 92 171 255l1 10zM120 -141c74 0 133 54 147 159l27 192h-11c-44 -77 -93 -142 -147 -186l-102 -76c-8 -6 -10 -10 -10 -17c1 -33 36 -72 96 -72z" />
    <glyph glyph-name="Gcommaaccent" unicode="&#x122;" horiz-adv-x="575" 
d="M381 646c62 0 121 -14 180 -46l-26 -71l-9 -2c-56 39 -101 55 -158 55c-160 0 -246 -113 -246 -327c0 -134 55 -197 172 -197c36 0 67 5 126 24l13 78l10 90l70 6l-12 -86l-14 -139c-75 -26 -128 -38 -198 -38c-162 0 -244 95 -244 255c0 253 122 398 336 398zM308 -57
c25 -16 39 -36 39 -62c0 -39 -28 -80 -85 -122l-25 22l1 6c33 27 51 55 51 82c0 17 -11 31 -29 44v6c15 10 30 18 48 24z" />
    <glyph glyph-name="gcommaaccent" unicode="&#x123;" horiz-adv-x="441" 
d="M297 517c-34 13 -50 36 -50 69c0 38 22 78 67 123l28 -19v-6c-27 -29 -39 -55 -39 -78c0 -24 10 -41 36 -51v-7c-11 -11 -26 -21 -42 -31zM393 460l-49 -347l-8 -75c-21 -150 -118 -236 -232 -236c-85 0 -144 50 -160 140l4 8l140 88l1 9c-28 25 -41 61 -41 119
c0 141 75 275 221 298h5l62 -22l47 24zM316 381l-61 23c-92 0 -140 -97 -140 -213c0 -73 19 -97 28 -97c18 0 94 92 171 255l1 10zM120 -141c74 0 133 54 147 159l27 192h-11c-44 -77 -93 -142 -147 -186l-102 -76c-8 -6 -10 -10 -10 -17c1 -33 36 -72 96 -72z" />
    <glyph glyph-name="Hcircumflex" unicode="&#x124;" horiz-adv-x="653" 
d="M283 732l-12 33c46 28 86 58 125 89h22c32 -31 69 -61 106 -89l-20 -33h-8c-33 22 -63 44 -93 67c-37 -23 -73 -45 -111 -67h-9zM614 640l-59 -441l-21 -199h-75l28 193l11 98l-170 3l-157 -3l-12 -92l-21 -199h-75l28 193l52 447h75l-38 -283l163 -3l163 3l32 283h76z
" />
    <glyph glyph-name="hcircumflex" unicode="&#x125;" horiz-adv-x="469" 
d="M74 792l-12 33c46 28 86 58 125 89h22c32 -31 69 -61 106 -89l-20 -33h-8c-33 22 -63 44 -93 67c-37 -23 -73 -45 -111 -67h-9zM328 465h11c44 -10 79 -40 77 -87l-1 -13l-41 -257l-6 -105l-77 -7l55 342l1 13c0 19 -6 31 -21 31c-37 0 -110 -95 -199 -281l-5 -98l-76 -7
l86 604l2 97l76 7l-65 -466h9c65 112 116 181 174 227z" />
    <glyph glyph-name="Hbar" unicode="&#x126;" horiz-adv-x="680" 
d="M671 478h-67l-37 -279l-22 -199h-74l28 193l11 98l-171 3l-156 -3l-12 -92l-21 -199h-75l28 193l33 285h-59l-3 5l4 49h64l13 108h75l-14 -108h322l12 108h76l-14 -108h59l4 -6zM532 478h-324l-16 -121l162 -3l164 3z" />
    <glyph glyph-name="hbar" unicode="&#x127;" horiz-adv-x="529" 
d="M369 465h11c44 -10 78 -40 77 -87l-1 -13l-41 -257l-6 -105l-77 -7l55 342l1 13c0 19 -7 31 -21 31c-37 0 -110 -95 -199 -281l-5 -98l-76 -7l80 561h-73l-6 5l4 41h81l2 94l76 7l-14 -101h120l6 -7l-3 -39h-130l-44 -319h9c64 112 115 181 174 227z" />
    <glyph glyph-name="Imacron" unicode="&#x12a;" horiz-adv-x="259" 
d="M311 809l-3 -45h-217l-5 6l4 44h216zM159 199l-21 -199h-75l28 193l52 447h75z" />
    <glyph glyph-name="imacron" unicode="&#x12b;" horiz-adv-x="218" 
d="M266 627l-3 -45h-217l-5 6l4 44h216zM124 109l-4 -106l-76 -7l52 363l4 97l74 7z" />
    <glyph glyph-name="Ibreve" unicode="&#x12c;" horiz-adv-x="259" 
d="M305 839l18 -26c-25 -57 -71 -89 -128 -89c-65 0 -109 32 -121 89l25 26h12c8 -38 37 -60 84 -60c45 0 79 22 98 60h12zM159 199l-21 -199h-75l28 193l52 447h75z" />
    <glyph glyph-name="ibreve" unicode="&#x12d;" horiz-adv-x="218" 
d="M259 669l18 -29c-23 -71 -68 -114 -134 -114c-76 0 -108 45 -114 114l24 29h11c6 -60 34 -88 82 -88s82 28 101 88h12zM124 109l-4 -106l-76 -7l52 363l4 97l74 7z" />
    <glyph glyph-name="Iogonek" unicode="&#x12e;" horiz-adv-x="259" 
d="M218 640l-59 -441l-21 -199h-26c-60 -70 -76 -96 -76 -117c0 -19 12 -28 28 -28c18 0 38 11 56 35h3l14 -39c-26 -29 -52 -48 -84 -48c-39 0 -67 27 -67 68c0 32 18 61 77 131l28 191l52 447h75z" />
    <glyph glyph-name="iogonek" unicode="&#x12f;" horiz-adv-x="218" 
d="M157 661c26 0 41 -16 41 -43c0 -28 -17 -46 -44 -46s-43 17 -43 44s18 45 46 45zM100 456l74 7l-50 -354l-4 -106l-22 -2c-61 -71 -77 -97 -77 -118c0 -19 12 -28 28 -28c18 0 38 11 56 35h3l14 -39c-26 -29 -52 -48 -84 -48c-39 0 -67 27 -67 68c0 32 17 60 73 126
l52 362z" />
    <glyph glyph-name="Idotaccent" unicode="&#x130;" horiz-adv-x="259" 
d="M202 843c26 0 41 -16 41 -43c0 -28 -17 -46 -44 -46s-43 17 -43 44s18 45 46 45zM159 199l-21 -199h-75l28 193l52 447h75z" />
    <glyph glyph-name="dotlessi" unicode="&#x131;" horiz-adv-x="218" 
d="M124 109l-4 -106l-76 -7l52 363l4 97l74 7z" />
    <glyph glyph-name="IJ" unicode="&#x132;" horiz-adv-x="555" 
d="M143 640h75l-59 -441l-21 -199h-75l28 193zM511 640l-58 -428l-9 -94c-13 -100 -65 -159 -192 -219l-24 42l1 9c93 49 135 92 145 168l11 87l43 374l-119 -1l-7 7l12 55h197z" />
    <glyph glyph-name="ij" unicode="&#x133;" horiz-adv-x="450" 
d="M157 661c26 0 41 -16 41 -43c0 -28 -17 -46 -44 -46s-43 17 -43 44s18 45 46 45zM384 661c26 0 41 -16 41 -43c0 -28 -17 -46 -44 -46s-43 17 -43 44s18 45 46 45zM124 109l-4 -106l-76 -7l52 363l4 97l74 7zM404 458l-49 -350l-9 -90c-14 -105 -52 -159 -146 -212
l-25 34l1 9c64 43 92 83 102 165l48 344l3 42h-76l-5 5l7 45h71l74 10z" />
    <glyph glyph-name="Jcircumflex" unicode="&#x134;" horiz-adv-x="297" 
d="M188 854h22c32 -31 69 -61 106 -89l-20 -33h-8c-33 22 -63 44 -93 67c-37 -23 -73 -45 -111 -67h-9l-12 33c46 28 86 58 125 89zM252 640l-58 -428l-9 -94c-13 -100 -64 -159 -192 -219l-24 42l1 9c93 49 135 92 145 168l11 87l43 374l-119 -1l-7 7l12 55h197z" />
    <glyph glyph-name="jcircumflex" unicode="&#x135;" horiz-adv-x="232" 
d="M48 521l-17 30c43 39 87 83 136 134h23c33 -48 68 -93 103 -134l-24 -30h-8c-35 36 -63 70 -89 105c-35 -35 -73 -69 -115 -105h-9zM186 458l-49 -350l-9 -90c-14 -105 -52 -159 -146 -212l-25 34l1 9c65 43 92 83 102 165l49 344l2 42h-75l-5 5l6 45h71l75 10z" />
    <glyph glyph-name="Kcommaaccent" unicode="&#x136;" horiz-adv-x="520" 
d="M159 199l-22 -199h-75l29 193l52 447h75zM556 640l-285 -302c66 -111 144 -221 224 -322l-3 -9c-24 -7 -48 -12 -73 -16l-7 5c-78 109 -154 223 -222 340l1 6l235 244l45 54h85zM274 -57c25 -16 39 -36 39 -62c0 -39 -28 -80 -85 -122l-25 22l1 6c33 27 51 55 51 82
c0 17 -11 31 -29 44v6c15 10 30 18 48 24z" />
    <glyph glyph-name="kcommaaccent" unicode="&#x137;" horiz-adv-x="462" 
d="M436 366c0 -67 -53 -129 -145 -184c36 -59 74 -119 115 -175l-4 -7l-62 -12l-7 4c-40 60 -75 123 -109 186l3 13c88 55 136 106 136 157c0 27 -13 34 -24 34c-41 0 -115 -84 -213 -287l-3 -92l-76 -7l85 604l3 97l76 7l-65 -460h10c65 102 120 178 183 219l15 1
c48 -10 82 -40 82 -98zM219 -57c25 -16 39 -36 39 -62c0 -39 -28 -80 -85 -122l-25 22l1 6c33 27 51 55 51 82c0 17 -11 31 -29 44v6c15 10 30 18 48 24z" />
    <glyph glyph-name="kgreenlandic" unicode="&#x138;" horiz-adv-x="466" 
d="M437 366c0 -67 -53 -129 -146 -184c36 -59 75 -119 116 -175l-2 -7l-63 -12l-8 4c-40 60 -76 123 -111 186l3 13c90 55 139 105 139 157c0 27 -14 34 -26 34c-41 0 -116 -84 -216 -288l-3 -91l-76 -7l52 363l4 97l74 7l-31 -222h10c67 102 122 181 187 222l14 1
c49 -10 83 -40 83 -98z" />
    <glyph glyph-name="Lacute" unicode="&#x139;" horiz-adv-x="396" 
d="M114 724l-14 34c62 31 123 63 191 103l8 -2l20 -44l-3 -9c-67 -32 -129 -58 -193 -86zM374 56l-14 -56h-299l29 193l52 447h75l-59 -441l-15 -135h227z" />
    <glyph glyph-name="lacute" unicode="&#x13a;" horiz-adv-x="224" 
d="M289 919l20 -44l-3 -9c-67 -32 -129 -58 -193 -86l-9 4l-14 34c62 31 123 63 191 103zM127 109l-4 -106l-76 -7l85 604l3 97l76 7z" />
    <glyph glyph-name="Lcommaaccent" unicode="&#x13b;" horiz-adv-x="396" 
d="M374 56l-14 -56h-299l29 193l52 447h75l-59 -441l-15 -135h227zM200 -57c25 -16 39 -36 39 -62c0 -39 -28 -80 -85 -122l-25 22l1 6c33 27 51 55 51 82c0 17 -11 31 -29 44v6c15 10 30 18 48 24z" />
    <glyph glyph-name="lcommaaccent" unicode="&#x13c;" horiz-adv-x="224" 
d="M127 109l-4 -106l-76 -7l85 604l3 97l76 7zM83 -57c25 -16 39 -36 39 -62c0 -39 -28 -80 -85 -122l-25 22l1 6c33 27 51 55 51 82c0 17 -11 31 -29 44v6c15 10 30 18 48 24z" />
    <glyph glyph-name="Lcaron" unicode="&#x13d;" horiz-adv-x="404" 
d="M370 64l4 -8l-14 -56h-299l29 193l52 447h75l-59 -441l-15 -135h227zM419 576l-43 -170l-38 -6l-5 6l26 172l55 4z" />
    <glyph glyph-name="lcaron" unicode="&#x13e;" horiz-adv-x="246" 
d="M127 109l-4 -106l-76 -7l85 604l3 97l76 7zM321 639l-43 -170l-37 -6l-6 6l27 173l54 3z" />
    <glyph glyph-name="Ldot" unicode="&#x13f;" horiz-adv-x="396" 
d="M374 56l-14 -56h-299l29 193l52 447h75l-59 -441l-15 -135h227zM328 332c-27 0 -43 17 -43 44s17 45 45 45c26 0 42 -16 42 -42c0 -28 -17 -47 -44 -47z" />
    <glyph glyph-name="ldot" unicode="&#x140;" horiz-adv-x="242" 
d="M127 109l-4 -106l-76 -7l85 604l3 97l76 7zM241 323c26 0 42 -16 42 -42c0 -28 -17 -47 -44 -47s-43 17 -43 44s17 45 45 45z" />
    <glyph glyph-name="Lslash" unicode="&#x141;" horiz-adv-x="406" 
d="M382 56l-13 -56h-300l30 193l11 99l-75 -39l-8 5l-8 45l98 51l33 286h76l-34 -247l134 69l8 -4l9 -45l-159 -83l-18 -131l-14 -135h226z" />
    <glyph glyph-name="lslash" unicode="&#x142;" horiz-adv-x="243" 
d="M166 360l-35 -251l-4 -106l-76 -7l47 332l-66 -33l-3 3l-12 51l90 46l29 205l3 97l76 7l-39 -277l70 36l4 -2l12 -51z" />
    <glyph glyph-name="Nacute" unicode="&#x143;" horiz-adv-x="653" 
d="M497 859l20 -44l-3 -9c-67 -32 -129 -58 -193 -86l-9 4l-14 34c62 31 123 63 191 103zM553 187l-21 -187h-78l-252 520h-6l-39 -310l-24 -210h-70l28 190l54 450h78l251 -520h6l64 517l71 5z" />
    <glyph glyph-name="nacute" unicode="&#x144;" horiz-adv-x="467" 
d="M205 520l-21 30c54 45 106 90 162 145l9 -1l28 -39l-2 -9c-58 -46 -111 -87 -168 -127zM326 465h11c44 -10 79 -40 77 -87l-1 -13l-41 -257l-6 -105l-77 -7l55 342l1 13c0 19 -6 31 -21 31c-37 0 -110 -95 -199 -281l-5 -98l-76 -7l52 363l5 97l73 7l-31 -225h9
c65 112 115 181 174 227z" />
    <glyph glyph-name="Ncommaaccent" unicode="&#x145;" horiz-adv-x="653" 
d="M553 187l-21 -187h-78l-252 520h-6l-39 -310l-24 -210h-70l28 190l54 450h78l251 -520h6l64 517l71 5zM298 -57c25 -16 39 -36 39 -62c0 -39 -28 -80 -85 -122l-25 22l1 6c33 27 51 55 51 82c0 17 -11 31 -29 44v6c15 10 30 18 48 24z" />
    <glyph glyph-name="ncommaaccent" unicode="&#x146;" horiz-adv-x="467" 
d="M326 465h11c44 -10 79 -40 77 -87l-1 -13l-41 -257l-6 -105l-77 -7l55 342l1 13c0 19 -6 31 -21 31c-37 0 -110 -95 -199 -281l-5 -98l-76 -7l52 363l5 97l73 7l-31 -225h9c65 112 115 181 174 227zM206 -57c25 -16 39 -36 39 -62c0 -39 -28 -80 -85 -122l-25 22l1 6
c33 27 51 55 51 82c0 17 -11 31 -29 44v6c15 10 30 18 48 24z" />
    <glyph glyph-name="Ncaron" unicode="&#x147;" horiz-adv-x="653" 
d="M510 846l12 -32c-45 -28 -87 -59 -124 -90h-22c-34 31 -70 62 -106 90l19 32h9c31 -22 62 -43 93 -66c36 23 72 44 110 66h9zM553 187l-21 -187h-78l-252 520h-6l-39 -310l-24 -210h-70l28 190l54 450h78l251 -520h6l64 517l71 5z" />
    <glyph glyph-name="ncaron" unicode="&#x148;" horiz-adv-x="467" 
d="M280 522h-23c-33 48 -69 93 -106 133l24 31h9c34 -37 62 -70 88 -106c36 36 73 69 115 106h10l16 -31c-41 -38 -84 -83 -133 -133zM326 465h11c44 -10 79 -40 77 -87l-1 -13l-41 -257l-6 -105l-77 -7l55 342l1 13c0 19 -6 31 -21 31c-37 0 -110 -95 -199 -281l-5 -98
l-76 -7l52 363l5 97l73 7l-31 -225h9c65 112 115 181 174 227z" />
    <glyph glyph-name="Eng" unicode="&#x14a;" horiz-adv-x="662" 
d="M556 187l-14 -132c-13 -98 -63 -155 -189 -214l-25 42l2 9c66 36 106 68 127 110l-256 517h-6l-37 -309l-24 -210h-71l29 190l52 450h79l254 -517h7l61 514l72 5z" />
    <glyph glyph-name="eng" unicode="&#x14b;" horiz-adv-x="474" 
d="M328 465h11c43 -10 78 -40 77 -87l-1 -13l-44 -257l-11 -90c-16 -105 -53 -159 -144 -212l-25 34l1 9c63 43 90 83 101 165l51 318l1 13c1 26 -7 37 -19 37c-37 0 -110 -95 -200 -290l-4 -89l-76 -7l52 363l5 97l73 7l-31 -225h9c65 112 114 181 174 227z" />
    <glyph glyph-name="Omacron" unicode="&#x14c;" horiz-adv-x="611" 
d="M522 809l-5 -45h-283l-6 6l5 44h283zM360 647c146 0 230 -93 230 -256c0 -246 -112 -399 -314 -399c-144 0 -229 97 -229 263c0 244 112 392 313 392zM351 584c-154 0 -227 -116 -227 -324c0 -136 53 -205 158 -205c153 0 229 117 229 327c0 135 -53 202 -160 202z" />
    <glyph glyph-name="omacron" unicode="&#x14d;" horiz-adv-x="411" 
d="M409 627l-5 -45h-283l-6 6l5 44h283zM258 466h8c72 -12 109 -59 109 -152c0 -184 -80 -311 -219 -323l-8 1c-74 14 -112 59 -112 157c0 180 84 309 222 317zM245 405c-92 0 -140 -102 -140 -255c0 -69 17 -99 62 -99c90 0 138 105 138 258c0 68 -18 96 -60 96z" />
    <glyph glyph-name="Obreve" unicode="&#x14e;" horiz-adv-x="611" 
d="M481 839l18 -26c-25 -57 -71 -89 -128 -89c-65 0 -109 32 -121 89l25 26h12c8 -38 37 -60 84 -60c45 0 79 22 98 60h12zM360 647c146 0 230 -93 230 -256c0 -246 -112 -399 -314 -399c-144 0 -229 97 -229 263c0 244 112 392 313 392zM351 584
c-154 0 -227 -116 -227 -324c0 -136 53 -205 158 -205c153 0 229 117 229 327c0 135 -53 202 -160 202z" />
    <glyph glyph-name="obreve" unicode="&#x14f;" horiz-adv-x="411" 
d="M367 669l18 -29c-23 -71 -68 -114 -134 -114c-76 0 -108 45 -114 114l24 29h11c6 -60 34 -88 82 -88s82 28 101 88h12zM258 466h8c72 -12 109 -59 109 -152c0 -184 -80 -311 -219 -323l-8 1c-74 14 -112 59 -112 157c0 180 84 309 222 317zM245 405
c-92 0 -140 -102 -140 -255c0 -69 17 -99 62 -99c90 0 138 105 138 258c0 68 -18 96 -60 96z" />
    <glyph glyph-name="Ohungarumlaut" unicode="&#x150;" horiz-adv-x="611" 
d="M254 718l-25 23c38 40 75 78 110 120h8l34 -24v-8c-39 -38 -78 -74 -118 -110zM396 718l-25 23c37 40 74 78 110 120h6l36 -24l-1 -8c-38 -38 -78 -74 -117 -110zM360 647c146 0 230 -93 230 -256c0 -246 -112 -399 -314 -399c-144 0 -229 97 -229 263
c0 244 112 392 313 392zM351 584c-154 0 -227 -116 -227 -324c0 -136 53 -205 158 -205c153 0 229 117 229 327c0 135 -53 202 -160 202z" />
    <glyph glyph-name="ohungarumlaut" unicode="&#x151;" horiz-adv-x="411" 
d="M158 519l-26 23c48 50 93 101 136 153h8l34 -26v-7c-47 -49 -95 -96 -144 -143h-8zM299 519l-26 23c48 50 93 101 136 153h8l34 -26v-7c-47 -49 -95 -96 -144 -143h-8zM258 466h8c72 -12 109 -59 109 -152c0 -184 -80 -311 -219 -323l-8 1c-74 14 -112 59 -112 157
c0 180 84 309 222 317zM245 405c-92 0 -140 -102 -140 -255c0 -69 17 -99 62 -99c90 0 138 105 138 258c0 68 -18 96 -60 96z" />
    <glyph glyph-name="OE" unicode="&#x152;" horiz-adv-x="813" 
d="M394 652c59 0 104 -12 158 -12h283l4 -7l-14 -59l-136 4h-128l-27 -218l107 -2l108 3l4 -7l-14 -58l-112 2l-104 -1l-12 -102l-15 -131l117 -2l150 4l5 -7l-14 -59h-282c-56 1 -119 -12 -177 -12c-160 0 -249 102 -249 273c0 241 131 391 348 391zM379 590
c-168 0 -256 -119 -256 -325c0 -139 61 -214 188 -214c35 0 74 5 91 10c19 5 27 13 30 33l51 446c3 25 1 33 -8 37c-14 5 -55 13 -96 13z" />
    <glyph glyph-name="oe" unicode="&#x153;" horiz-adv-x="646" 
d="M577 149l25 -35c-46 -66 -96 -107 -157 -121h-11c-66 7 -98 39 -111 92c-36 -54 -90 -88 -158 -94l-8 1c-77 14 -115 59 -115 158c0 179 85 308 224 316h9c55 -9 87 -37 99 -89c38 54 92 86 159 89l10 -1c54 -8 85 -37 85 -89c0 -76 -76 -143 -248 -201
c0 -84 21 -119 64 -119c46 0 94 40 121 94zM514 412c-68 0 -119 -72 -131 -182c117 38 178 86 178 141c0 25 -14 41 -47 41zM174 49c93 0 142 105 142 260c0 69 -19 98 -62 98c-94 0 -143 -103 -143 -257c0 -70 18 -101 63 -101z" />
    <glyph glyph-name="Racute" unicode="&#x154;" horiz-adv-x="529" 
d="M257 702l-21 30c54 45 106 90 162 145l9 -1l28 -39l-2 -9c-58 -46 -111 -87 -168 -127zM494 486c0 -103 -58 -185 -153 -227c38 -81 81 -162 128 -241l-1 -9c-24 -9 -46 -15 -71 -18l-9 7c-40 79 -79 160 -112 242h-111l-6 -41l-21 -199h-75l28 193l53 447h1l178 2
c106 0 171 -56 171 -156zM173 304l115 -3c83 25 128 84 128 173c0 68 -39 102 -112 106l-94 -3z" />
    <glyph glyph-name="racute" unicode="&#x155;" horiz-adv-x="328" 
d="M171 520l-21 30c54 45 106 90 162 145l9 -1l28 -39l-2 -9c-58 -46 -111 -87 -168 -127zM350 460l-15 -100l-6 -3l-9 1c-61 -9 -114 -68 -194 -268l-4 -87l-76 -7l52 363l5 97l73 7l-30 -220h8c46 94 99 166 171 219z" />
    <glyph glyph-name="Rcommaaccent" unicode="&#x156;" horiz-adv-x="529" 
d="M494 486c0 -103 -58 -185 -153 -227c38 -81 81 -162 128 -241l-1 -9c-24 -9 -46 -15 -71 -18l-9 7c-40 79 -79 160 -112 242h-111l-6 -41l-21 -199h-75l28 193l53 447h1l178 2c106 0 171 -56 171 -156zM173 304l115 -3c83 25 128 84 128 173c0 68 -39 102 -112 106
l-94 -3zM234 -57c25 -16 39 -36 39 -62c0 -39 -28 -80 -85 -122l-25 22l1 6c33 27 51 55 51 82c0 17 -11 31 -29 44v6c15 10 30 18 48 24z" />
    <glyph glyph-name="rcommaaccent" unicode="&#x157;" horiz-adv-x="328" 
d="M350 460l-15 -100l-6 -3l-9 1c-61 -9 -114 -68 -194 -268l-4 -87l-76 -7l52 363l5 97l73 7l-30 -220h8c46 94 99 166 171 219zM85 -57c25 -16 39 -36 39 -62c0 -39 -28 -80 -85 -122l-25 22l1 6c33 27 51 55 51 82c0 17 -11 31 -29 44v6c15 10 30 18 48 24z" />
    <glyph glyph-name="Rcaron" unicode="&#x158;" horiz-adv-x="529" 
d="M331 704h-23c-33 48 -69 93 -106 133l24 31h9c34 -37 62 -70 88 -106c36 36 73 69 115 106h10l16 -31c-41 -38 -84 -83 -133 -133zM494 486c0 -103 -58 -185 -153 -227c38 -81 81 -162 128 -241l-1 -9c-24 -9 -46 -15 -71 -18l-9 7c-40 79 -79 160 -112 242h-111l-6 -41
l-21 -199h-75l28 193l53 447h1l178 2c106 0 171 -56 171 -156zM173 304l115 -3c83 25 128 84 128 173c0 68 -39 102 -112 106l-94 -3z" />
    <glyph glyph-name="rcaron" unicode="&#x159;" horiz-adv-x="328" 
d="M245 522h-23c-33 48 -69 93 -106 133l24 31h9c34 -37 62 -70 88 -106c36 36 73 69 115 106h10l16 -31c-41 -38 -84 -83 -133 -133zM146 243h8c46 94 99 166 171 219l25 -2l-15 -100l-6 -3l-9 1c-61 -9 -114 -68 -194 -268l-4 -87l-76 -7l52 363l5 97l73 7z" />
    <glyph glyph-name="Sacute" unicode="&#x15a;" horiz-adv-x="451" 
d="M369 876l28 -39l-2 -9c-58 -46 -111 -87 -168 -127l-8 1l-21 30c54 45 106 90 162 145zM298 646c38 0 90 -8 141 -31l-21 -71l-13 -4c-33 28 -74 44 -117 44c-78 0 -127 -52 -127 -106c0 -120 244 -127 244 -298c0 -104 -93 -187 -219 -187c-54 0 -118 16 -167 45l19 77
l10 4c41 -45 97 -64 145 -64c80 0 135 51 135 111c0 126 -241 127 -241 299c0 102 90 181 211 181z" />
    <glyph glyph-name="sacute" unicode="&#x15b;" horiz-adv-x="317" 
d="M286 694l28 -39l-2 -9c-58 -46 -111 -87 -168 -127l-8 1l-21 30c54 45 106 90 162 145zM221 464c31 -6 56 -14 84 -25l-22 -68l-12 -4c-25 29 -53 44 -79 44c-42 0 -74 -35 -74 -70c0 -74 152 -90 152 -205c0 -81 -71 -143 -173 -144c-37 5 -68 16 -100 34l19 71l11 5
c27 -37 62 -57 97 -57c47 0 77 36 77 72c0 82 -152 94 -152 207c0 83 78 142 172 140z" />
    <glyph glyph-name="Scircumflex" unicode="&#x15c;" horiz-adv-x="451" 
d="M181 703l-17 30c43 39 87 83 136 134h23c33 -48 68 -93 103 -134l-24 -30h-8c-35 36 -63 70 -89 105c-35 -35 -73 -69 -115 -105h-9zM298 646c38 0 90 -8 141 -31l-21 -71l-13 -4c-33 28 -74 44 -117 44c-78 0 -127 -52 -127 -106c0 -120 244 -127 244 -298
c0 -104 -93 -187 -219 -187c-54 0 -118 16 -167 45l19 77l10 4c41 -45 97 -64 145 -64c80 0 135 51 135 111c0 126 -241 127 -241 299c0 102 90 181 211 181z" />
    <glyph glyph-name="scircumflex" unicode="&#x15d;" horiz-adv-x="317" 
d="M98 521l-17 30c43 39 87 83 136 134h23c33 -48 68 -93 103 -134l-24 -30h-8c-35 36 -63 70 -89 105c-35 -35 -73 -69 -115 -105h-9zM221 464c31 -6 56 -14 84 -25l-22 -68l-12 -4c-25 29 -53 44 -79 44c-42 0 -74 -35 -74 -70c0 -74 152 -90 152 -205
c0 -81 -71 -143 -173 -144c-37 5 -68 16 -100 34l19 71l11 5c27 -37 62 -57 97 -57c47 0 77 36 77 72c0 82 -152 94 -152 207c0 83 78 142 172 140z" />
    <glyph glyph-name="Scedilla" unicode="&#x15e;" horiz-adv-x="451" 
d="M298 646c38 0 90 -8 141 -31l-21 -71l-13 -4c-33 28 -74 44 -117 44c-78 0 -127 -52 -127 -106c0 -120 244 -127 244 -298c0 -99 -84 -178 -200 -186l-13 -45l33 -20c28 -15 38 -33 38 -55c0 -39 -33 -65 -79 -65c-34 0 -57 15 -72 31l8 38l5 2c16 -19 31 -31 55 -31
c19 0 33 9 33 27c0 13 -9 19 -22 25l-47 29l17 64c-48 4 -100 19 -142 44l19 77l10 4c41 -45 97 -64 145 -64c80 0 135 51 135 111c0 126 -241 127 -241 299c0 102 90 181 211 181z" />
    <glyph glyph-name="scedilla" unicode="&#x15f;" horiz-adv-x="317" 
d="M221 464c31 -6 56 -14 84 -25l-22 -68l-12 -4c-25 29 -53 44 -79 44c-42 0 -74 -35 -74 -70c0 -74 152 -90 152 -205c0 -68 -50 -122 -126 -139l-14 -48l33 -20c28 -15 38 -33 38 -55c0 -39 -33 -65 -79 -65c-34 0 -57 15 -72 31l8 38l5 2c16 -19 31 -31 55 -31
c19 0 33 9 33 27c0 13 -9 19 -22 25l-47 29l17 62h-2c-37 5 -68 16 -100 34l19 71l11 5c27 -37 62 -57 97 -57c47 0 77 36 77 72c0 82 -152 94 -152 207c0 83 78 142 172 140z" />
    <glyph glyph-name="Scaron" unicode="&#x160;" horiz-adv-x="451" 
d="M411 868l16 -31c-41 -38 -84 -83 -133 -133h-23c-33 48 -69 93 -106 133l24 31h9c34 -37 62 -70 88 -106c36 36 73 69 115 106h10zM298 646c38 0 90 -8 141 -31l-21 -71l-13 -4c-33 28 -74 44 -117 44c-78 0 -127 -52 -127 -106c0 -120 244 -127 244 -298
c0 -104 -93 -187 -219 -187c-54 0 -118 16 -167 45l19 77l10 4c41 -45 97 -64 145 -64c80 0 135 51 135 111c0 126 -241 127 -241 299c0 102 90 181 211 181z" />
    <glyph glyph-name="scaron" unicode="&#x161;" horiz-adv-x="317" 
d="M328 686l16 -31c-41 -38 -84 -83 -133 -133h-23c-33 48 -69 93 -106 133l24 31h9c34 -37 62 -70 88 -106c36 36 73 69 115 106h10zM221 464c31 -6 56 -14 84 -25l-22 -68l-12 -4c-25 29 -53 44 -79 44c-42 0 -74 -35 -74 -70c0 -74 152 -90 152 -205
c0 -81 -71 -143 -173 -144c-37 5 -68 16 -100 34l19 71l11 5c27 -37 62 -57 97 -57c47 0 77 36 77 72c0 82 -152 94 -152 207c0 83 78 142 172 140z" />
    <glyph glyph-name="Tcedilla" unicode="&#x162;" horiz-adv-x="467" 
d="M497 633l-14 -58l-104 5h-63l-51 -381l-21 -199h-20l-13 -51l30 -19c24 -16 35 -31 35 -53c0 -38 -31 -63 -71 -63c-30 0 -51 16 -66 31l8 35l5 1c13 -18 27 -31 50 -31c18 0 28 11 28 28c0 13 -7 19 -17 27l-44 28l17 67h-17l29 193l43 387h-61l-109 -5l-5 7l14 58h413z
" />
    <glyph glyph-name="tcedilla" unicode="&#x163;" horiz-adv-x="324" 
d="M146 119l-2 -18c0 -22 9 -33 28 -33c24 0 55 26 90 77l12 -1l22 -31c-39 -50 -74 -85 -112 -108l-17 -56l33 -20c28 -15 38 -33 38 -55c0 -39 -33 -65 -79 -65c-34 0 -57 15 -72 31l8 38l5 2c16 -19 31 -31 55 -31c19 0 33 9 33 27c0 13 -9 19 -22 25l-47 29l18 69
c-37 12 -62 38 -61 81l1 16l44 264l4 40h-65l-6 5l6 45h71l11 108l71 32l8 -5l-22 -135h123l7 -8l-6 -42h-132z" />
    <glyph glyph-name="Tcaron" unicode="&#x164;" horiz-adv-x="467" 
d="M301 704h-23c-33 48 -69 93 -106 133l24 31h9c34 -37 62 -70 88 -106c36 36 73 69 115 106h10l16 -31c-41 -38 -84 -83 -133 -133zM497 633l-14 -58l-104 5h-63l-51 -381l-21 -199h-75l29 193l43 387h-61l-109 -5l-5 7l14 58h413z" />
    <glyph glyph-name="tcaron" unicode="&#x165;" horiz-adv-x="324" 
d="M273 496l-6 6l27 172l54 4l5 -6l-43 -170zM322 450l7 -8l-6 -42h-132l-45 -281l-2 -18c0 -22 9 -33 28 -33c24 0 55 26 90 77l12 -1l22 -31c-45 -58 -85 -95 -130 -118h-11c-47 8 -80 36 -79 85l1 16l44 264l4 40h-65l-6 5l6 45h71l11 108l71 32l8 -5l-22 -135h123z" />
    <glyph glyph-name="Tbar" unicode="&#x166;" horiz-adv-x="467" 
d="M316 580l-31 -234h94l6 -6l-3 -42h-104l-13 -99l-21 -199h-75l29 193l12 105h-90l-6 6l4 42h97l26 234h-61l-109 -5l-5 7l14 58h413l4 -7l-14 -58l-104 5h-63z" />
    <glyph glyph-name="tbar" unicode="&#x167;" horiz-adv-x="332" 
d="M195 400l-17 -110h106l7 -6l-4 -42h-117l-20 -123l-2 -18c0 -22 9 -33 28 -33c24 0 55 26 89 77l12 -1l23 -31c-45 -58 -85 -95 -130 -118h-12c-46 8 -79 36 -78 85l1 16l24 146h-69l-6 6l4 42h79l12 70l4 40h-65l-6 5l5 45h72l11 108l71 32l8 -5l-22 -135h123l6 -8
l-5 -42h-132z" />
    <glyph glyph-name="Umacron" unicode="&#x16a;" horiz-adv-x="597" 
d="M516 809l-5 -45h-283l-6 6l5 44h283zM534 315l-9 -73c-17 -157 -104 -249 -253 -249c-126 0 -203 67 -203 187c0 17 1 35 4 54l12 87l38 319h74l-53 -397c-2 -16 -3 -30 -3 -45c0 -92 46 -138 136 -138c103 0 165 58 178 174l47 406h75z" />
    <glyph glyph-name="umacron" unicode="&#x16b;" horiz-adv-x="471" 
d="M429 627l-5 -45h-283l-6 6l5 44h283zM348 456l74 7l-50 -354l-4 -106l-76 -7l31 224h-6c-65 -111 -116 -178 -175 -224h-11c-43 10 -78 39 -77 86l1 13l41 258l8 105l74 6l-52 -335l-2 -21c-1 -21 8 -30 20 -30c38 0 110 93 199 278v3z" />
    <glyph glyph-name="Ubreve" unicode="&#x16c;" horiz-adv-x="597" 
d="M473 851l18 -29c-23 -71 -68 -114 -134 -114c-76 0 -108 45 -114 114l24 29h11c6 -60 34 -88 82 -88s82 28 101 88h12zM534 315l-9 -73c-17 -157 -104 -249 -253 -249c-126 0 -203 67 -203 187c0 17 1 35 4 54l12 87l38 319h74l-53 -397c-2 -16 -3 -30 -3 -45
c0 -92 46 -138 136 -138c103 0 165 58 178 174l47 406h75z" />
    <glyph glyph-name="ubreve" unicode="&#x16d;" horiz-adv-x="471" 
d="M271 526c-76 0 -108 45 -114 114l24 29h11c6 -60 34 -88 82 -88s82 28 101 88h12l18 -29c-23 -71 -68 -114 -134 -114zM422 463l-50 -354l-4 -106l-76 -7l31 224h-6c-65 -111 -116 -178 -175 -224h-11c-43 10 -78 39 -77 86l1 13l41 258l8 105l74 6l-52 -335l-2 -21
c-1 -21 8 -30 20 -30c38 0 110 93 199 278v3l5 97z" />
    <glyph glyph-name="Uring" unicode="&#x16e;" horiz-adv-x="597" 
d="M370 877c54 0 82 -35 82 -80c0 -53 -37 -83 -84 -83c-46 0 -81 29 -81 81c0 49 31 82 83 82zM369 839c-30 0 -45 -16 -45 -43c0 -30 19 -46 46 -46c26 0 45 15 45 44c0 26 -15 45 -46 45zM534 315l-9 -73c-17 -157 -104 -249 -253 -249c-126 0 -203 67 -203 187
c0 17 1 35 4 54l12 87l38 319h74l-53 -397c-2 -16 -3 -30 -3 -45c0 -92 46 -138 136 -138c103 0 165 58 178 174l47 406h75z" />
    <glyph glyph-name="uring" unicode="&#x16f;" horiz-adv-x="471" 
d="M281 532c-46 0 -81 29 -81 81c0 49 31 82 83 82c54 0 82 -35 82 -80c0 -53 -37 -83 -84 -83zM282 657c-30 0 -45 -16 -45 -43c0 -30 19 -46 46 -46c26 0 45 15 45 44c0 26 -15 45 -46 45zM422 463l-50 -354l-4 -106l-76 -7l31 224h-6c-65 -111 -116 -178 -175 -224h-11
c-43 10 -78 39 -77 86l1 13l41 258l8 105l74 6l-52 -335l-2 -21c-1 -21 8 -30 20 -30c38 0 110 93 199 278v3l5 97z" />
    <glyph glyph-name="Uhungarumlaut" unicode="&#x170;" horiz-adv-x="597" 
d="M247 718l-25 23c38 40 75 78 110 120h8l34 -24v-8c-39 -38 -78 -74 -118 -110zM389 718l-25 23c37 40 74 78 110 120h6l36 -24l-1 -8c-38 -38 -78 -74 -117 -110zM534 315l-9 -73c-17 -157 -104 -249 -253 -249c-126 0 -203 67 -203 187c0 17 1 35 4 54l12 87l38 319h74
l-53 -397c-2 -16 -3 -30 -3 -45c0 -92 46 -138 136 -138c103 0 165 58 178 174l47 406h75z" />
    <glyph glyph-name="uhungarumlaut" unicode="&#x171;" horiz-adv-x="471" 
d="M179 519l-26 23c48 50 93 101 136 153h8l34 -26v-7c-47 -49 -95 -96 -144 -143h-8zM472 669v-7c-47 -49 -95 -96 -144 -143h-8l-26 23c48 50 93 101 136 153h8zM348 456l74 7l-50 -354l-4 -106l-76 -7l31 224h-6c-65 -111 -116 -178 -175 -224h-11c-43 10 -78 39 -77 86
l1 13l41 258l8 105l74 6l-52 -335l-2 -21c-1 -21 8 -30 20 -30c38 0 110 93 199 278v3z" />
    <glyph glyph-name="Uogonek" unicode="&#x172;" horiz-adv-x="596" 
d="M577 640l-43 -325l-9 -73c-11 -101 -51 -175 -118 -215l-51 -88c-11 -18 -17 -37 -17 -51c0 -21 11 -35 35 -35c22 0 48 13 68 40h5l12 -36c-31 -35 -61 -54 -94 -54c-45 0 -74 32 -74 78c0 21 6 43 22 66l34 55c-23 -6 -48 -9 -75 -9c-126 0 -203 67 -203 187
c0 17 1 35 4 54l12 87l38 319h74l-53 -397c-2 -16 -3 -30 -3 -45c0 -92 46 -138 136 -138c103 0 165 58 178 174l47 406h75z" />
    <glyph glyph-name="uogonek" unicode="&#x173;" horiz-adv-x="472" 
d="M422 463l-50 -354l-4 -106l-30 -3c-65 -71 -80 -94 -80 -116c0 -21 14 -29 32 -29c19 0 40 12 58 37h3l14 -40c-26 -29 -53 -49 -87 -49c-39 0 -70 27 -70 70c0 32 18 61 85 133l30 214h-6c-65 -111 -116 -178 -175 -224h-11c-43 10 -78 39 -77 86l1 13l41 258l8 105
l74 6l-52 -335l-2 -21c-1 -21 8 -30 20 -30c38 0 110 93 199 278v3l5 97z" />
    <glyph glyph-name="Wcircumflex" unicode="&#x174;" horiz-adv-x="849" 
d="M359 732l-12 33c46 28 86 58 125 89h22c32 -31 69 -61 106 -89l-20 -33h-8c-33 22 -63 44 -93 67c-37 -23 -73 -45 -111 -67h-9zM593 0h-77l-73 378h-6l-173 -378h-79l-114 640h74l3 -59l89 -497h6l181 395l-32 161h77l6 -66l90 -490h6l228 492l22 64h71z" />
    <glyph glyph-name="wcircumflex" unicode="&#x175;" horiz-adv-x="682" 
d="M274 521l-17 30c43 39 87 83 136 134h23c33 -48 68 -93 103 -134l-24 -30h-8c-35 36 -63 70 -89 105c-35 -35 -73 -69 -115 -105h-9zM488 0h-78l-37 357h-7l-159 -357h-82l-53 456l73 7l2 -61l31 -317h7l140 313l23 61h78l3 -57l31 -317h7l102 191c20 36 32 66 32 94
c0 24 -8 45 -23 67l2 10l70 16c15 -26 23 -53 23 -80c0 -39 -17 -80 -44 -128z" />
    <glyph glyph-name="Ycircumflex" unicode="&#x176;" horiz-adv-x="502" 
d="M207 732l-12 33c46 28 86 58 125 89h22c32 -31 69 -61 106 -89l-20 -33h-8c-33 22 -63 44 -93 67c-37 -23 -73 -45 -111 -67h-9zM277 233l-7 -46l-21 -187h-75l29 187l5 47l-142 406h79l7 -35l98 -291h7l182 289l19 37h82z" />
    <glyph glyph-name="ycircumflex" unicode="&#x177;" horiz-adv-x="407" 
d="M110 521l-17 30c43 39 87 83 136 134h23c33 -48 68 -93 103 -134l-24 -30h-8c-35 36 -63 70 -89 105c-35 -35 -73 -69 -115 -105h-9zM306 447l69 16c16 -26 23 -53 23 -80c0 -45 -18 -93 -49 -148l-115 -203c-95 -166 -168 -227 -255 -227c-25 0 -52 5 -78 16l-4 64l8 6
c27 -10 52 -15 73 -15c56 0 113 35 168 117l-90 463l73 7l12 -80l47 -294h13l90 171c23 43 36 78 36 110c0 24 -8 45 -24 67z" />
    <glyph glyph-name="Ydieresis" unicode="&#x178;" horiz-adv-x="502" 
d="M241 745c-26 0 -41 16 -41 42c0 27 16 44 43 44c25 0 40 -17 40 -41c0 -27 -17 -45 -42 -45zM400 745c-26 0 -41 15 -41 41c0 27 16 44 44 44c24 0 39 -16 39 -41c0 -27 -17 -44 -42 -44zM277 233l-7 -46l-21 -187h-75l29 187l5 47l-142 406h79l7 -35l98 -291h7l182 289
l19 37h82z" />
    <glyph glyph-name="Zacute" unicode="&#x179;" horiz-adv-x="503" 
d="M388 859l20 -44l-3 -9c-67 -32 -129 -58 -193 -86l-9 4l-14 34c62 31 123 63 191 103zM509 585l-408 -524h254l90 7l3 -6l-14 -64l-109 2h-268l-54 -3l7 56l409 525h-237l-91 -6l-4 5l15 64l367 -1l47 1z" />
    <glyph glyph-name="zacute" unicode="&#x17a;" horiz-adv-x="407" 
d="M324 694l28 -39l-2 -9c-58 -46 -111 -87 -168 -127l-8 1l-21 30c54 45 106 90 162 145zM384 451l-284 -375l30 7c31 0 70 -23 100 -23c58 0 84 33 88 126l12 6l36 -20c-5 -123 -56 -182 -137 -182c-53 0 -103 33 -148 33c-23 0 -40 -7 -62 -29h-8l-23 22l285 380l-138 -1
l-69 -8l-7 6l15 67l7 5l65 -5l190 -1l24 14z" />
    <glyph glyph-name="Zdotaccent" unicode="&#x17b;" horiz-adv-x="503" 
d="M291 843c26 0 41 -16 41 -43c0 -28 -17 -46 -44 -46s-43 17 -43 44s18 45 46 45zM509 585l-408 -524h254l90 7l3 -6l-14 -64l-109 2h-268l-54 -3l7 56l409 525h-237l-91 -6l-4 5l15 64l367 -1l47 1z" />
    <glyph glyph-name="zdotaccent" unicode="&#x17c;" horiz-adv-x="407" 
d="M254 661c26 0 41 -16 41 -43c0 -28 -17 -46 -44 -46s-43 17 -43 44s18 45 46 45zM384 451l-284 -375l30 7c31 0 70 -23 100 -23c58 0 84 33 88 126l12 6l36 -20c-5 -123 -56 -182 -137 -182c-53 0 -103 33 -148 33c-23 0 -40 -7 -62 -29h-8l-23 22l285 380l-138 -1
l-69 -8l-7 6l15 67l7 5l65 -5l190 -1l24 14z" />
    <glyph glyph-name="Zcaron" unicode="&#x17d;" horiz-adv-x="503" 
d="M401 846l12 -32c-45 -28 -87 -59 -124 -90h-22c-34 31 -70 62 -106 90l19 32h9c31 -22 62 -43 93 -66c36 23 72 44 110 66h9zM509 585l-408 -524h254l90 7l3 -6l-14 -64l-109 2h-268l-54 -3l7 56l409 525h-237l-91 -6l-4 5l15 64l367 -1l47 1z" />
    <glyph glyph-name="zcaron" unicode="&#x17e;" horiz-adv-x="407" 
d="M365 686l16 -31c-41 -38 -84 -83 -133 -133h-23c-33 48 -69 93 -106 133l24 31h9c34 -37 62 -70 88 -106c36 36 73 69 115 106h10zM384 451l-284 -375l30 7c31 0 70 -23 100 -23c58 0 84 33 88 126l12 6l36 -20c-5 -123 -56 -182 -137 -182c-53 0 -103 33 -148 33
c-23 0 -40 -7 -62 -29h-8l-23 22l285 380l-138 -1l-69 -8l-7 6l15 67l7 5l65 -5l190 -1l24 14z" />
    <glyph glyph-name="florin" unicode="&#x192;" horiz-adv-x="276" 
d="M298 615c23 0 44 -3 71 -9l-10 -49l-7 -3c-23 10 -45 13 -61 13c-64 0 -93 -36 -100 -95l-13 -99h110l4 -5l-4 -36h-116l-18 -147l-17 -138c-10 -90 -37 -135 -118 -197l-30 29l1 7c59 52 79 87 87 159l17 135l18 152h-65l-4 5l3 36h71l11 90c11 98 73 152 170 152z" />
    <glyph glyph-name="Ohorn" unicode="&#x1a0;" horiz-adv-x="614" 
d="M617 764c22 0 43 -30 43 -73c0 -72 -57 -114 -126 -117c40 -48 55 -111 55 -194c0 -228 -116 -388 -313 -388c-148 0 -229 89 -229 276c0 224 116 379 310 379c91 0 121 -31 167 -31c39 0 75 21 75 65c0 20 -7 43 -23 60l3 8c13 9 28 15 38 15zM351 584
c-152 0 -227 -122 -227 -310c0 -150 48 -219 159 -219c152 0 228 125 228 313c0 150 -49 216 -160 216z" />
    <glyph glyph-name="ohorn" unicode="&#x1a1;" horiz-adv-x="432" 
d="M488 503c0 -62 -53 -106 -116 -109c9 -21 13 -47 13 -80c0 -185 -82 -311 -221 -323l-8 1c-77 14 -114 59 -114 158c0 178 84 309 224 316h8c43 -9 61 -27 91 -27c38 0 61 19 61 53c0 23 -11 45 -32 65l3 9c15 11 28 17 40 17c21 0 51 -34 51 -80zM173 49
c93 0 142 106 142 259c0 70 -19 99 -63 99c-93 0 -141 -104 -141 -256c0 -71 18 -102 62 -102z" />
    <glyph glyph-name="Uhorn" unicode="&#x1af;" horiz-adv-x="603" 
d="M651 697c0 -44 -30 -79 -79 -92l-38 -290l-9 -73c-17 -157 -104 -249 -253 -249c-126 0 -203 67 -203 187c0 17 1 35 4 54l12 87l38 319h74l-53 -397c-2 -16 -3 -30 -3 -45c0 -92 46 -138 136 -138c103 0 165 58 178 174l47 406h28c41 0 62 19 62 52c0 19 -8 38 -30 60
l3 7c13 9 25 15 36 15c22 0 50 -33 50 -77z" />
    <glyph glyph-name="uhorn" unicode="&#x1b0;" horiz-adv-x="473" 
d="M514 533c0 -48 -36 -83 -97 -104l-44 -320l-5 -106l-75 -7l32 227h-8c-65 -113 -115 -181 -175 -227h-11c-44 10 -78 39 -77 86l1 13l41 258l8 105l74 6l-53 -335l-1 -14c-1 -26 8 -37 20 -37c37 0 110 95 200 290l5 88l30 6c51 7 73 27 73 58c0 20 -10 43 -31 65l2 8
c14 11 27 18 40 18c22 0 51 -34 51 -78z" />
    <glyph glyph-name="Acaron" unicode="&#x1cd;" horiz-adv-x="548" 
d="M348 724h-22c-34 31 -70 62 -106 90l19 32h9c31 -22 62 -43 93 -66c36 23 72 44 110 66h9l12 -32c-45 -28 -87 -59 -124 -90zM501 0h-76l-7 62l-21 115l-136 2l-123 -2l-52 -111l-24 -66h-75l304 640h86zM385 241l-59 321h-7l-151 -321l107 -1z" />
    <glyph glyph-name="acaron" unicode="&#x1ce;" horiz-adv-x="439" 
d="M264 523h-23c-33 48 -69 93 -106 133l24 31h9c34 -37 62 -70 88 -106c36 36 73 69 115 106h10l16 -31c-41 -38 -84 -83 -133 -133zM381 466l10 -6l-50 -351l-5 -106l-75 -7l29 205h-10c-46 -81 -100 -153 -157 -208h-14c-50 28 -76 78 -76 157c0 139 78 290 234 315h5
l62 -22zM130 75c21 0 104 93 181 277l1 6l1 24l-61 22c-95 0 -151 -107 -151 -235c0 -74 17 -94 29 -94z" />
    <glyph glyph-name="Icaron" unicode="&#x1cf;" horiz-adv-x="259" 
d="M312 846l12 -32c-45 -28 -87 -59 -124 -90h-22c-34 31 -70 62 -106 90l19 32h9c31 -22 62 -43 93 -66c36 23 72 44 110 66h9zM159 199l-21 -199h-75l28 193l52 447h75z" />
    <glyph glyph-name="icaron" unicode="&#x1d0;" horiz-adv-x="218" 
d="M269 686l16 -31c-41 -38 -84 -83 -133 -133h-23c-33 48 -69 93 -106 133l24 31h9c34 -37 62 -70 88 -106c36 36 73 69 115 106h10zM124 109l-4 -106l-76 -7l52 363l4 97l74 7z" />
    <glyph glyph-name="Ocaron" unicode="&#x1d1;" horiz-adv-x="611" 
d="M488 846l12 -32c-45 -28 -87 -59 -124 -90h-22c-34 31 -70 62 -106 90l19 32h9c31 -22 62 -43 93 -66c36 23 72 44 110 66h9zM360 647c146 0 230 -93 230 -256c0 -246 -112 -399 -314 -399c-144 0 -229 97 -229 263c0 244 112 392 313 392zM351 584
c-154 0 -227 -116 -227 -324c0 -136 53 -205 158 -205c153 0 229 117 229 327c0 135 -53 202 -160 202z" />
    <glyph glyph-name="ocaron" unicode="&#x1d2;" horiz-adv-x="411" 
d="M376 686l16 -31c-41 -38 -84 -83 -133 -133h-23c-33 48 -69 93 -106 133l24 31h9c34 -37 62 -70 88 -106c36 36 73 69 115 106h10zM258 466h8c72 -12 109 -59 109 -152c0 -184 -80 -311 -219 -323l-8 1c-74 14 -112 59 -112 157c0 180 84 309 222 317zM245 405
c-92 0 -140 -102 -140 -255c0 -69 17 -99 62 -99c90 0 138 105 138 258c0 68 -18 96 -60 96z" />
    <glyph glyph-name="Ucaron" unicode="&#x1d3;" horiz-adv-x="597" 
d="M483 868l16 -31c-41 -38 -84 -83 -133 -133h-23c-33 48 -69 93 -106 133l24 31h9c34 -37 62 -70 88 -106c36 36 73 69 115 106h10zM534 315l-9 -73c-17 -157 -104 -249 -253 -249c-126 0 -203 67 -203 187c0 17 1 35 4 54l12 87l38 319h74l-53 -397c-2 -16 -3 -30 -3 -45
c0 -92 46 -138 136 -138c103 0 165 58 178 174l47 406h75z" />
    <glyph glyph-name="ucaron" unicode="&#x1d4;" horiz-adv-x="471" 
d="M280 522h-23c-33 48 -69 93 -106 133l24 31h9c34 -37 62 -70 88 -106c36 36 73 69 115 106h10l16 -31c-41 -38 -84 -83 -133 -133zM422 463l-50 -354l-4 -106l-76 -7l31 224h-6c-65 -111 -116 -178 -175 -224h-11c-43 10 -78 39 -77 86l1 13l41 258l8 105l74 6l-52 -335
l-2 -21c-1 -21 8 -30 20 -30c38 0 110 93 199 278v3l5 97z" />
    <glyph glyph-name="Udieresismacron" unicode="&#x1d5;" horiz-adv-x="597" 
d="M525 920l-5 -45h-256l-7 6l5 45h257zM303 808c24 0 38 -15 38 -39c0 -25 -15 -41 -41 -41c-23 0 -38 14 -38 39s15 41 41 41zM459 808c24 0 38 -15 38 -39c0 -25 -15 -41 -41 -41c-24 0 -38 14 -38 39s15 41 41 41zM534 315l-9 -73c-17 -157 -104 -249 -253 -249
c-126 0 -203 67 -203 187c0 17 1 35 4 54l12 87l38 319h74l-53 -397c-2 -16 -3 -30 -3 -45c0 -92 46 -138 136 -138c103 0 165 58 178 174l47 406h75z" />
    <glyph glyph-name="udieresismacron" unicode="&#x1d6;" horiz-adv-x="471" 
d="M439 738l-5 -45h-256l-7 6l5 45h257zM214 546c-23 0 -38 14 -38 39s15 41 41 41c24 0 38 -15 38 -39c0 -25 -15 -41 -41 -41zM411 587c0 -25 -15 -41 -41 -41c-24 0 -38 14 -38 39s15 41 41 41c24 0 38 -15 38 -39zM348 456l74 7l-50 -354l-4 -106l-76 -7l31 224h-6
c-65 -111 -116 -178 -175 -224h-11c-43 10 -78 39 -77 86l1 13l41 258l8 105l74 6l-52 -335l-2 -21c-1 -21 8 -30 20 -30c38 0 110 93 199 278v3z" />
    <glyph glyph-name="Udieresisacute" unicode="&#x1d7;" horiz-adv-x="597" 
d="M475 966l13 -46l-5 -9c-71 -19 -137 -35 -205 -50l-9 5l-7 36c67 20 132 40 206 68zM288 808c24 0 39 -15 39 -39c0 -25 -16 -41 -41 -41c-24 0 -39 14 -39 39s16 41 41 41zM444 808c24 0 39 -15 39 -39c0 -25 -16 -41 -41 -41c-24 0 -39 14 -39 39s16 41 41 41zM534 315
l-9 -73c-17 -157 -104 -249 -253 -249c-126 0 -203 67 -203 187c0 17 1 35 4 54l12 87l38 319h74l-53 -397c-2 -16 -3 -30 -3 -45c0 -92 46 -138 136 -138c103 0 165 58 178 174l47 406h75z" />
    <glyph glyph-name="udieresisacute" unicode="&#x1d8;" horiz-adv-x="471" 
d="M183 684l-7 36c67 20 132 40 206 68l7 -4l13 -46l-5 -9c-71 -19 -137 -35 -205 -50zM200 546c-24 0 -39 14 -39 39s16 41 41 41c24 0 39 -15 39 -39c0 -25 -16 -41 -41 -41zM317 585c0 25 16 41 41 41c24 0 39 -15 39 -39c0 -25 -16 -41 -41 -41c-24 0 -39 14 -39 39z
M422 463l-50 -354l-4 -106l-76 -7l31 224h-6c-65 -111 -116 -178 -175 -224h-11c-43 10 -78 39 -77 86l1 13l41 258l8 105l74 6l-52 -335l-2 -21c-1 -21 8 -30 20 -30c38 0 110 93 199 278v3l5 97z" />
    <glyph glyph-name="Udieresiscaron" unicode="&#x1d9;" horiz-adv-x="597" 
d="M495 954l12 -33c-46 -28 -87 -58 -125 -89h-21c-34 31 -70 61 -107 89l20 33h8c32 -22 63 -44 93 -67c37 23 72 45 111 67h9zM290 808c24 0 39 -15 39 -39c0 -25 -16 -41 -41 -41c-24 0 -38 14 -38 39s15 41 40 41zM446 808c24 0 39 -15 39 -39c0 -25 -16 -41 -41 -41
c-24 0 -39 14 -39 39s16 41 41 41zM534 315l-9 -73c-17 -157 -104 -249 -253 -249c-126 0 -203 67 -203 187c0 17 1 35 4 54l12 87l38 319h74l-53 -397c-2 -16 -3 -30 -3 -45c0 -92 46 -138 136 -138c103 0 165 58 178 174l47 406h75z" />
    <glyph glyph-name="udieresiscaron" unicode="&#x1da;" horiz-adv-x="471" 
d="M296 650h-21c-34 31 -70 61 -107 89l20 33h8c32 -22 63 -44 93 -67c37 23 72 45 111 67h9l12 -33c-46 -28 -87 -58 -125 -89zM202 546c-24 0 -38 14 -38 39s15 41 40 41c24 0 39 -15 39 -39c0 -25 -16 -41 -41 -41zM319 585c0 25 16 41 41 41c24 0 39 -15 39 -39
c0 -25 -16 -41 -41 -41c-24 0 -39 14 -39 39zM422 463l-50 -354l-4 -106l-76 -7l31 224h-6c-65 -111 -116 -178 -175 -224h-11c-43 10 -78 39 -77 86l1 13l41 258l8 105l74 6l-52 -335l-2 -21c-1 -21 8 -30 20 -30c38 0 110 93 199 278v3l5 97z" />
    <glyph glyph-name="Udieresisgrave" unicode="&#x1db;" horiz-adv-x="597" 
d="M289 966l9 4c69 -28 133 -48 197 -68l-11 -36l-10 -5c-65 15 -130 31 -198 50l-4 9zM288 808c21 0 34 -13 34 -34c0 -27 -18 -46 -46 -46c-22 0 -34 13 -34 34c0 27 18 46 46 46zM444 808c21 0 34 -13 34 -34c0 -27 -18 -46 -46 -46c-22 0 -34 13 -34 34
c0 27 18 46 46 46zM534 315l-9 -73c-17 -157 -104 -249 -253 -249c-126 0 -203 67 -203 187c0 17 1 35 4 54l12 87l38 319h74l-53 -397c-2 -16 -3 -30 -3 -45c0 -92 46 -138 136 -138c103 0 165 58 178 174l47 406h75z" />
    <glyph glyph-name="udieresisgrave" unicode="&#x1dc;" horiz-adv-x="471" 
d="M397 684l-10 -5c-65 15 -130 31 -198 50l-4 9l17 46l9 4c69 -28 133 -48 197 -68zM189 546c-22 0 -34 13 -34 34c0 27 18 46 46 46c21 0 34 -13 34 -34c0 -27 -18 -46 -46 -46zM357 626c21 0 34 -13 34 -34c0 -27 -18 -46 -46 -46c-22 0 -34 13 -34 34c0 27 18 46 46 46z
M422 463l-50 -354l-4 -106l-76 -7l31 224h-6c-65 -111 -116 -178 -175 -224h-11c-43 10 -78 39 -77 86l1 13l41 258l8 105l74 6l-52 -335l-2 -21c-1 -21 8 -30 20 -30c38 0 110 93 199 278v3l5 97z" />
    <glyph glyph-name="Oogonek" unicode="&#x1ea;" horiz-adv-x="611" 
d="M409 19l-49 -74c-11 -19 -17 -35 -17 -50c0 -24 13 -41 40 -41c23 0 48 15 70 40h4l11 -38c-32 -34 -62 -53 -97 -53c-47 0 -78 33 -78 78c0 24 8 48 25 73l31 45c-23 -4 -47 -7 -73 -7c-144 0 -229 97 -229 263c0 244 112 392 313 392c146 0 230 -93 230 -256
c0 -185 -64 -318 -181 -372zM124 260c0 -136 53 -205 158 -205c153 0 229 117 229 327c0 135 -53 202 -160 202c-154 0 -227 -116 -227 -324z" />
    <glyph glyph-name="oogonek" unicode="&#x1eb;" horiz-adv-x="429" 
d="M302 -107l11 -38c-32 -34 -63 -53 -98 -53c-47 0 -78 33 -78 78c0 24 8 48 25 73l30 44c-11 -3 -23 -5 -36 -6l-8 1c-74 14 -112 59 -112 157c0 180 84 309 222 317h8c72 -12 109 -59 109 -152c0 -132 -41 -234 -115 -286l-55 -84c-12 -19 -18 -35 -18 -50
c0 -24 14 -41 40 -41c23 0 48 15 70 40h5zM105 150c0 -69 17 -99 62 -99c90 0 138 105 138 258c0 68 -18 96 -60 96c-92 0 -140 -102 -140 -255z" />
    <glyph glyph-name="Aringacute" unicode="&#x1fa;" horiz-adv-x="551" 
d="M259 788l-9 36c67 20 132 42 205 69l9 -3l11 -46l-3 -7c-72 -22 -138 -37 -205 -55zM502 0h-76l-7 61l-21 114l-137 3l-122 -3l-53 -110l-23 -65h-75l299 617c-20 13 -32 36 -32 67c0 49 32 82 84 82c53 0 82 -35 82 -80c0 -36 -17 -61 -42 -74zM337 728
c-29 0 -45 -17 -45 -43c0 -30 19 -46 46 -46c26 0 46 15 46 44c0 26 -16 45 -47 45zM386 240l-59 317h-7l-151 -317l106 -2z" />
    <glyph glyph-name="aringacute" unicode="&#x1fb;" horiz-adv-x="439" 
d="M400 753l-4 -7c-71 -22 -137 -37 -205 -55l-8 6l-8 36c66 20 131 42 205 70l8 -3zM345 595c0 -54 -38 -84 -84 -84s-81 30 -81 82c0 49 31 82 83 82c54 0 82 -35 82 -80zM216 594c0 -30 19 -46 46 -46c26 0 46 15 46 44c0 26 -15 45 -47 45c-29 0 -45 -17 -45 -43z
M381 466l10 -6l-50 -351l-5 -106l-75 -7l29 205h-10c-46 -81 -100 -153 -157 -208h-14c-50 28 -76 78 -76 157c0 139 78 290 234 315h5l62 -22zM130 75c21 0 104 93 181 277l1 6l1 24l-61 22c-95 0 -151 -107 -151 -235c0 -74 17 -94 29 -94z" />
    <glyph glyph-name="AEacute" unicode="&#x1fc;" horiz-adv-x="766" 
d="M457 724l-14 34c62 31 123 63 191 103l8 -2l20 -44l-3 -9c-67 -32 -129 -58 -193 -86zM731 59l-13 -59h-329l2 62l-3 199l-231 -52l-89 -143l-33 -66h-77l402 640h352l4 -7l-14 -59l-153 4h-93l3 -242l210 45l5 -6l-2 -55l-213 -43l3 -216h109l156 5zM387 321l-4 241h-5
l-176 -282z" />
    <glyph glyph-name="aeacute" unicode="&#x1fd;" horiz-adv-x="609" 
d="M444 695l28 -39l-2 -9c-58 -46 -111 -87 -168 -127l-8 1l-21 30c54 45 106 90 162 145zM281 465l105 -39c33 24 72 38 115 40l9 -1c54 -8 86 -37 86 -89c0 -76 -77 -143 -249 -202v-13c2 -73 24 -105 64 -105c46 0 95 40 121 94l12 -1l25 -35c-45 -66 -96 -107 -156 -121
h-13c-92 10 -124 68 -124 167c0 4 0 15 1 19c-44 -72 -93 -136 -146 -186h-15c-49 28 -76 78 -76 157c0 139 78 290 236 315h5zM481 412c-68 0 -119 -72 -132 -182c117 37 179 86 179 141c0 25 -15 41 -47 41zM336 375l-75 29c-97 0 -154 -107 -154 -234
c0 -75 17 -95 30 -95c20 0 97 86 171 253c8 17 17 33 28 47z" />
    <glyph glyph-name="Oslashacute" unicode="&#x1fe;" horiz-adv-x="612" 
d="M290 724l-14 34c62 31 123 63 191 103l8 -2l20 -44l-3 -9c-67 -32 -129 -58 -193 -86zM562 697l-55 -96c54 -43 83 -114 83 -210c0 -246 -112 -399 -314 -399c-39 0 -74 7 -104 21l-65 -114l-43 16l-3 8l67 118c-52 44 -81 117 -81 214c0 244 112 392 313 392
c39 0 73 -7 102 -19l54 94l43 -16zM124 260c0 -69 14 -121 41 -155l263 463c-21 11 -47 16 -77 16c-154 0 -227 -116 -227 -324zM282 55c153 0 229 117 229 327c0 69 -14 120 -41 153l-265 -463c22 -11 47 -17 77 -17z" />
    <glyph glyph-name="oslashacute" unicode="&#x1ff;" horiz-adv-x="411" 
d="M186 520l-21 30c54 45 106 90 162 145l9 -1l28 -39l-2 -9c-58 -46 -111 -87 -168 -127zM378 523l-43 -88c26 -25 40 -65 40 -121c0 -184 -80 -311 -219 -323l-8 1c-9 2 -18 4 -26 7l-55 -114l-42 19l-3 7l56 113c-28 26 -42 66 -42 125c0 180 84 309 222 317h8
c9 -1 17 -4 25 -6l44 89l38 -18zM105 150c0 -23 2 -42 6 -57l152 310c-5 1 -11 2 -18 2c-92 0 -140 -102 -140 -255zM167 51c90 0 138 105 138 258c0 21 -2 39 -6 53l-150 -309c5 -1 11 -2 18 -2z" />
    <glyph glyph-name="Scommaaccent" unicode="&#x218;" horiz-adv-x="451" 
d="M298 646c38 0 90 -8 141 -31l-21 -71l-13 -4c-33 28 -74 44 -117 44c-78 0 -127 -52 -127 -106c0 -120 244 -127 244 -298c0 -104 -93 -187 -219 -187c-54 0 -118 16 -167 45l19 77l10 4c41 -45 97 -64 145 -64c80 0 135 51 135 111c0 126 -241 127 -241 299
c0 102 90 181 211 181zM196 -57c25 -16 39 -36 39 -62c0 -39 -28 -80 -85 -122l-25 22l1 6c33 27 51 55 51 82c0 17 -11 31 -29 44v6c15 10 30 18 48 24z" />
    <glyph glyph-name="scommaaccent" unicode="&#x219;" horiz-adv-x="317" 
d="M221 464c31 -6 56 -14 84 -25l-22 -68l-12 -4c-25 29 -53 44 -79 44c-42 0 -74 -35 -74 -70c0 -74 152 -90 152 -205c0 -81 -71 -143 -173 -144c-37 5 -68 16 -100 34l19 71l11 5c27 -37 62 -57 97 -57c47 0 77 36 77 72c0 82 -152 94 -152 207c0 83 78 142 172 140z
M134 -57c25 -16 39 -36 39 -62c0 -39 -28 -80 -85 -122l-25 22l1 6c33 27 51 55 51 82c0 17 -11 31 -29 44v6c15 10 30 18 48 24z" />
    <glyph glyph-name="Tcommaaccent" unicode="&#x21a;" horiz-adv-x="467" 
d="M497 633l-14 -58l-104 5h-63l-51 -381l-21 -199h-75l29 193l43 387h-61l-109 -5l-5 7l14 58h413zM204 -57c25 -16 39 -36 39 -62c0 -39 -28 -80 -85 -122l-25 22l1 6c33 27 51 55 51 82c0 17 -11 31 -29 44v6c15 10 30 18 48 24z" />
    <glyph glyph-name="tcommaaccent" unicode="&#x21b;" horiz-adv-x="324" 
d="M146 119l-2 -18c0 -22 9 -33 28 -33c24 0 55 26 90 77l12 -1l22 -31c-45 -58 -85 -95 -130 -118h-11c-47 8 -80 36 -79 85l1 16l44 264l4 40h-65l-6 5l6 45h71l11 108l71 32l8 -5l-22 -135h123l7 -8l-6 -42h-132zM171 -57c25 -16 39 -36 39 -62c0 -39 -28 -80 -85 -122
l-25 22l1 6c33 27 51 55 51 82c0 17 -11 31 -29 44v6c15 10 30 18 48 24z" />
    <glyph glyph-name="dotlessj" unicode="&#x237;" horiz-adv-x="232" 
d="M186 458l-49 -350l-9 -90c-14 -105 -52 -159 -146 -212l-25 34l1 9c64 43 92 83 102 165l48 344l3 42h-76l-5 5l7 45h71l74 10z" />
    <glyph glyph-name="circumflex" unicode="&#x2c6;" 
d="M120 521l-17 30c43 39 87 83 136 134h23c33 -48 68 -93 103 -134l-24 -30h-8c-35 36 -63 70 -89 105c-35 -35 -73 -69 -115 -105h-9z" />
    <glyph glyph-name="caron" unicode="&#x2c7;" 
d="M362 686l16 -31c-41 -38 -84 -83 -133 -133h-23c-33 48 -69 93 -106 133l24 31h9c34 -37 62 -70 88 -106c36 36 73 69 115 106h10z" />
    <glyph glyph-name="firsttonechinese" unicode="&#x2c9;" 
d="M388 627l-5 -45h-284l-5 6l4 44h284z" />
    <glyph glyph-name="breve" unicode="&#x2d8;" 
d="M351 669l18 -29c-23 -71 -68 -114 -134 -114c-76 0 -108 45 -114 114l24 29h11c6 -60 34 -88 82 -88s82 28 101 88h12z" />
    <glyph glyph-name="dotaccent" unicode="&#x2d9;" 
d="M244 661c26 0 41 -16 41 -43c0 -28 -17 -46 -44 -46s-43 17 -43 44s18 45 46 45z" />
    <glyph glyph-name="ring" unicode="&#x2da;" 
d="M242 695c54 0 82 -35 82 -80c0 -53 -37 -83 -84 -83c-46 0 -81 29 -81 81c0 49 31 82 83 82zM241 657c-30 0 -45 -16 -45 -43c0 -30 19 -46 46 -46c26 0 45 15 45 44c0 26 -15 45 -46 45z" />
    <glyph glyph-name="ogonek" unicode="&#x2db;" 
d="M195 44l-65 -99c-11 -19 -17 -35 -17 -50c0 -24 13 -41 40 -41c23 0 48 15 70 40h4l11 -38c-32 -34 -62 -53 -97 -53c-47 0 -78 33 -78 78c0 24 8 48 25 73l62 90h45z" />
    <glyph glyph-name="tilde" unicode="&#x2dc;" 
d="M397 640v-7l-61 -67l-9 -4c-41 5 -129 37 -155 37c-15 0 -31 -21 -56 -46h-9l-23 25v7l61 67l9 3c42 -5 130 -36 155 -36c15 0 31 20 57 46h7z" />
    <glyph glyph-name="hungarumlaut" unicode="&#x2dd;" 
d="M107 519l-26 23c48 50 93 101 136 153h8l34 -26v-7c-47 -49 -95 -96 -144 -143h-8zM248 519l-26 23c48 50 93 101 136 153h8l34 -26v-7c-47 -49 -95 -96 -144 -143h-8z" />
    <glyph glyph-name="tildecomb" unicode="&#x303;" horiz-adv-x="0" 
d="M397 640v-7l-62 -68l-9 -3c-41 5 -128 37 -154 37c-15 0 -31 -21 -56 -46h-9l-23 25v7l62 67l9 4c41 -5 129 -37 154 -37c15 0 31 20 57 46h7z" />
    <glyph glyph-name="dotbelowcomb" unicode="&#x323;" horiz-adv-x="0" 
d="M153 -73c26 0 42 -16 42 -42c0 -28 -17 -46 -44 -46s-43 16 -43 43s17 45 45 45z" />
    <glyph glyph-name="commaaccent" unicode="&#x326;" horiz-adv-x="0" 
d="M161 -60c25 -16 39 -36 39 -62c0 -39 -28 -80 -85 -122l-25 22l1 6c33 27 51 55 51 82c0 17 -11 31 -29 44v6c15 10 30 18 48 24z" />
    <glyph glyph-name="Delta" unicode="&#x394;" horiz-adv-x="549" 
d="M500 0h-514l304 640h86zM318 562l-233 -498h331l-91 498h-7z" />
    <glyph glyph-name="Omega" unicode="&#x3a9;" horiz-adv-x="709" 
d="M405 647c164 0 240 -110 240 -244c0 -122 -60 -252 -173 -341l2 -3h97l77 6l4 -5l-17 -64l-93 4h-125l-37 -2l-4 4l7 60c116 80 184 211 184 336c0 106 -51 187 -168 187c-145 0 -220 -119 -220 -263c0 -97 37 -200 107 -260l-7 -60l-5 -4l-37 2h-138l-83 -3l-5 7l18 61
l80 -6h87l1 3c-63 64 -96 162 -96 256c0 177 107 329 304 329z" />
    <glyph glyph-name="mu" unicode="&#x3bc;" horiz-adv-x="480" 
d="M430 462l-49 -353l-5 -106l-72 -7l33 230h-9c-67 -114 -120 -185 -181 -231h-11c-9 2 -17 5 -25 9l-11 -82l-5 -109l-72 -7l77 553l4 97l71 6l-49 -350c-4 -29 9 -39 22 -39c37 0 115 98 208 297l4 86z" />
    <glyph glyph-name="pi" unicode="&#x3c0;" horiz-adv-x="613" 
d="M490 437l-44 -336c-5 -35 2 -50 22 -50c12 0 26 4 39 11l7 -4l-15 -44c-20 -12 -41 -19 -58 -19c-43 0 -71 25 -62 97l43 345h-170l-29 -237l-36 -294h-71l38 288l29 243h-39c-19 0 -48 -30 -88 -64h-9l-19 28l1 9l87 82l16 6l470 1l4 -8l-13 -55z" />
    <glyph glyph-name="Wgrave" unicode="&#x1e80;" horiz-adv-x="849" 
d="M382 861l9 2c68 -40 129 -71 191 -102l-14 -34l-9 -4c-64 27 -126 54 -193 86l-3 8zM593 0h-77l-73 378h-6l-173 -378h-79l-114 640h74l3 -59l89 -497h6l181 395l-32 161h77l6 -66l90 -490h6l228 492l22 64h71z" />
    <glyph glyph-name="wgrave" unicode="&#x1e81;" horiz-adv-x="682" 
d="M307 694l8 1c57 -55 109 -100 163 -145l-21 -30l-8 -1c-57 40 -111 81 -169 127l-1 9zM488 0h-78l-37 357h-7l-159 -357h-82l-53 456l73 7l2 -61l31 -317h7l140 313l23 61h78l3 -57l31 -317h7l102 191c20 36 32 66 32 94c0 24 -8 45 -23 67l2 10l70 16
c15 -26 23 -53 23 -80c0 -39 -17 -80 -44 -128z" />
    <glyph glyph-name="Wacute" unicode="&#x1e82;" horiz-adv-x="849" 
d="M573 859l20 -44l-3 -9c-67 -32 -129 -58 -193 -86l-9 4l-14 34c62 31 123 63 191 103zM593 0h-77l-73 378h-6l-173 -378h-79l-114 640h74l3 -59l89 -497h6l181 395l-32 161h77l6 -66l90 -490h6l228 492l22 64h71z" />
    <glyph glyph-name="wacute" unicode="&#x1e83;" horiz-adv-x="682" 
d="M462 694l28 -39l-2 -9c-58 -46 -111 -87 -168 -127l-8 1l-21 30c54 45 106 90 162 145zM488 0h-78l-37 357h-7l-159 -357h-82l-53 456l73 7l2 -61l31 -317h7l140 313l23 61h78l3 -57l31 -317h7l102 191c20 36 32 66 32 94c0 24 -8 45 -23 67l2 10l70 16
c15 -26 23 -53 23 -80c0 -39 -17 -80 -44 -128z" />
    <glyph glyph-name="Wdieresis" unicode="&#x1e84;" horiz-adv-x="849" 
d="M395 831c25 0 40 -17 40 -41c0 -27 -17 -45 -42 -45c-26 0 -41 16 -41 42c0 27 16 44 43 44zM555 830c24 0 39 -16 39 -41c0 -27 -17 -44 -42 -44c-26 0 -41 15 -41 41c0 27 16 44 44 44zM593 0h-77l-73 378h-6l-173 -378h-79l-114 640h74l3 -59l89 -497h6l181 395
l-32 161h77l6 -66l90 -490h6l228 492l22 64h71z" />
    <glyph glyph-name="wdieresis" unicode="&#x1e85;" horiz-adv-x="682" 
d="M311 649c25 0 40 -17 40 -41c0 -27 -17 -45 -42 -45c-26 0 -41 16 -41 42c0 27 16 44 43 44zM471 648c24 0 39 -16 39 -41c0 -27 -17 -44 -42 -44c-26 0 -41 15 -41 41c0 27 16 44 44 44zM488 0h-78l-37 357h-7l-159 -357h-82l-53 456l73 7l2 -61l31 -317h7l140 313
l23 61h78l3 -57l31 -317h7l102 191c20 36 32 66 32 94c0 24 -8 45 -23 67l2 10l70 16c15 -26 23 -53 23 -80c0 -39 -17 -80 -44 -128z" />
    <glyph glyph-name="Germandbls" unicode="&#x1e9e;" horiz-adv-x="602" 
d="M360 646c76 0 144 -25 212 -62l2 -16l-182 -206c115 -41 174 -84 174 -176c0 -116 -95 -193 -208 -193c-50 0 -109 16 -155 45l20 77l10 4c40 -42 91 -64 137 -64c69 0 121 50 121 117c0 71 -58 110 -195 148l-1 17l183 211c-44 24 -86 35 -128 35
c-101 0 -164 -60 -177 -159l-30 -224l-21 -200h-76l29 190l26 235c16 132 115 221 259 221z" />
    <glyph glyph-name="Adotbelow" unicode="&#x1ea0;" horiz-adv-x="548" 
d="M501 0h-76l-7 62l-21 115l-136 2l-123 -2l-52 -111l-24 -66h-75l304 640h86zM385 241l-59 321h-7l-151 -321l107 -1zM233 -73c26 0 42 -16 42 -42c0 -28 -17 -46 -44 -46s-43 16 -43 43s17 45 45 45z" />
    <glyph glyph-name="adotbelow" unicode="&#x1ea1;" horiz-adv-x="439" 
d="M391 460l-50 -351l-5 -106l-75 -7l29 205h-10c-46 -81 -100 -153 -157 -208h-14c-50 28 -76 78 -76 157c0 139 78 290 234 315h5l62 -22l47 23zM130 75c21 0 104 93 181 277l1 6l1 24l-61 22c-95 0 -151 -107 -151 -235c0 -74 17 -94 29 -94zM194 -73c26 0 42 -16 42 -42
c0 -28 -17 -46 -44 -46s-43 16 -43 43s17 45 45 45z" />
    <glyph glyph-name="Ahookabove" unicode="&#x1ea2;" horiz-adv-x="548" 
d="M326 850c-17 0 -38 -8 -57 -24l-16 25c26 26 56 41 84 41c36 0 62 -24 62 -55c0 -24 -16 -45 -51 -74l19 -34l-33 -18l-31 53c32 24 50 48 50 65c0 14 -11 21 -27 21zM501 0h-76l-7 62l-21 115l-136 2l-123 -2l-52 -111l-24 -66h-75l304 640h86zM385 241l-59 321h-7
l-151 -321l107 -1z" />
    <glyph glyph-name="ahookabove" unicode="&#x1ea3;" horiz-adv-x="439" 
d="M244 669c-17 0 -38 -8 -57 -24l-16 25c26 26 56 41 84 41c36 0 62 -24 62 -55c0 -24 -16 -45 -51 -74l19 -34l-33 -18l-31 53c32 24 50 48 50 65c0 14 -11 21 -27 21zM391 460l-50 -351l-5 -106l-75 -7l29 205h-10c-46 -81 -100 -153 -157 -208h-14
c-50 28 -76 78 -76 157c0 139 78 290 234 315h5l62 -22l47 23zM130 75c21 0 104 93 181 277l1 6l1 24l-61 22c-95 0 -151 -107 -151 -235c0 -74 17 -94 29 -94z" />
    <glyph glyph-name="Acircumflexacute" unicode="&#x1ea4;" horiz-adv-x="548" 
d="M420 818l-26 20l57 90l18 15l36 -18l2 -8l-69 -87zM224 713l-12 33c45 28 86 58 124 89h22c33 -31 70 -61 106 -89l-19 -33h-9c-32 22 -62 44 -93 67c-36 -23 -72 -45 -110 -67h-9zM377 640l124 -640h-76l-7 62l-21 115l-136 2l-123 -2l-52 -111l-24 -66h-75l304 640h86z
M385 241l-59 321h-7l-151 -321l107 -1z" />
    <glyph glyph-name="acircumflexacute" unicode="&#x1ea5;" horiz-adv-x="439" 
d="M339 637l-26 20l57 90l18 15l36 -18l2 -8l-69 -87zM143 532l-12 33c45 28 86 58 124 89h22c33 -31 70 -61 106 -89l-19 -33h-9c-32 22 -62 44 -93 67c-36 -23 -72 -45 -110 -67h-9zM381 466l10 -6l-50 -351l-5 -106l-75 -7l29 205h-10c-46 -81 -100 -153 -157 -208h-14
c-50 28 -76 78 -76 157c0 139 78 290 234 315h5l62 -22zM130 75c21 0 104 93 181 277l1 6l1 24l-61 22c-95 0 -151 -107 -151 -235c0 -74 17 -94 29 -94z" />
    <glyph glyph-name="Acircumflexgrave" unicode="&#x1ea6;" horiz-adv-x="548" 
d="M434 830l-70 86l2 9l37 17l17 -14l57 -90l-26 -20zM228 712l-11 33c45 28 86 58 124 89h22c32 -31 69 -61 106 -89l-20 -33h-8c-33 23 -62 44 -93 67c-36 -23 -73 -44 -111 -67h-9zM501 0h-76l-7 62l-21 115l-136 2l-123 -2l-52 -111l-24 -66h-75l304 640h86zM385 241
l-59 321h-7l-151 -321l107 -1z" />
    <glyph glyph-name="acircumflexgrave" unicode="&#x1ea7;" horiz-adv-x="439" 
d="M353 649l-70 86l2 9l37 17l17 -14l57 -90l-26 -20zM147 531l-11 33c45 28 86 58 124 89h22c32 -31 69 -61 106 -89l-20 -33h-8c-33 23 -62 44 -93 67c-36 -23 -73 -44 -111 -67h-9zM381 466l10 -6l-50 -351l-5 -106l-75 -7l29 205h-10c-46 -81 -100 -153 -157 -208h-14
c-50 28 -76 78 -76 157c0 139 78 290 234 315h5l62 -22zM130 75c21 0 104 93 181 277l1 6l1 24l-61 22c-95 0 -151 -107 -151 -235c0 -74 17 -94 29 -94z" />
    <glyph glyph-name="Acircumflexhookabove" unicode="&#x1ea8;" horiz-adv-x="548" 
d="M425 941c-16 0 -37 -8 -54 -23l-16 24c24 24 54 39 80 39c34 0 59 -23 59 -53c0 -22 -15 -42 -48 -70l18 -32l-32 -17l-29 50c30 23 48 46 48 62c0 13 -11 20 -26 20zM226 713l-11 33c45 28 86 58 124 89h22c32 -31 69 -61 106 -89l-20 -33h-8c-33 22 -62 44 -93 67
c-36 -23 -73 -45 -111 -67h-9zM501 0h-76l-7 62l-21 115l-136 2l-123 -2l-52 -111l-24 -66h-75l304 640h86zM385 241l-59 321h-7l-151 -321l107 -1z" />
    <glyph glyph-name="acircumflexhookabove" unicode="&#x1ea9;" horiz-adv-x="439" 
d="M344 760c-16 0 -37 -8 -54 -23l-16 24c24 24 54 39 80 39c34 0 59 -23 59 -53c0 -22 -15 -42 -48 -70l18 -32l-32 -17l-29 50c30 23 48 46 48 62c0 13 -11 20 -26 20zM145 532l-11 33c45 28 86 58 124 89h22c32 -31 69 -61 106 -89l-20 -33h-8c-33 22 -62 44 -93 67
c-36 -23 -73 -45 -111 -67h-9zM381 466l10 -6l-50 -351l-5 -106l-75 -7l29 205h-10c-46 -81 -100 -153 -157 -208h-14c-50 28 -76 78 -76 157c0 139 78 290 234 315h5l62 -22zM130 75c21 0 104 93 181 277l1 6l1 24l-61 22c-95 0 -151 -107 -151 -235c0 -74 17 -94 29 -94z
" />
    <glyph glyph-name="Acircumflextilde" unicode="&#x1eaa;" horiz-adv-x="548" 
d="M527 939v-7l-57 -66l-8 -3c-40 5 -122 36 -147 36c-14 0 -29 -20 -52 -44h-7l-23 23v8l57 64l9 3c39 -5 122 -35 146 -35c14 0 29 20 53 45h7zM356 780c-37 -23 -73 -44 -111 -66h-9l-12 32c46 28 86 59 125 90h21c33 -31 70 -62 107 -90l-20 -32h-9
c-32 22 -62 43 -92 66zM377 640l124 -640h-76l-7 62l-21 115l-136 2l-123 -2l-52 -111l-24 -66h-75l304 640h86zM385 241l-59 321h-7l-151 -321l107 -1z" />
    <glyph glyph-name="acircumflextilde" unicode="&#x1eab;" horiz-adv-x="439" 
d="M445 758v-7l-57 -66l-8 -3c-40 5 -122 36 -147 36c-14 0 -29 -20 -52 -44h-7l-23 23v8l57 64l9 3c39 -5 122 -35 146 -35c14 0 29 20 53 45h7zM267 655h21c33 -31 70 -62 107 -90l-20 -32h-9c-32 22 -62 43 -92 66c-37 -23 -73 -44 -111 -66h-9l-12 32
c46 28 86 59 125 90zM381 466l10 -6l-50 -351l-5 -106l-75 -7l29 205h-10c-46 -81 -100 -153 -157 -208h-14c-50 28 -76 78 -76 157c0 139 78 290 234 315h5l62 -22zM130 75c21 0 104 93 181 277l1 6l1 24l-61 22c-95 0 -151 -107 -151 -235c0 -74 17 -94 29 -94z" />
    <glyph glyph-name="Acircumflexdotbelow" unicode="&#x1eac;" horiz-adv-x="548" 
d="M233 732l-12 33c46 28 86 58 125 89h22c32 -31 69 -61 106 -89l-20 -33h-8c-33 22 -63 44 -93 67c-37 -23 -73 -45 -111 -67h-9zM501 0h-76l-7 62l-21 115l-136 2l-123 -2l-52 -111l-24 -66h-75l304 640h86zM385 241l-59 321h-7l-151 -321l107 -1zM233 -73
c26 0 42 -16 42 -42c0 -28 -17 -46 -44 -46s-43 16 -43 43s17 45 45 45z" />
    <glyph glyph-name="acircumflexdotbelow" unicode="&#x1ead;" horiz-adv-x="439" 
d="M160 521l-17 30c43 39 87 83 136 134h23c33 -48 68 -93 103 -134l-24 -30h-8c-35 36 -63 70 -89 105c-35 -35 -73 -69 -115 -105h-9zM381 466l10 -6l-50 -351l-5 -106l-75 -7l29 205h-10c-46 -81 -100 -153 -157 -208h-14c-50 28 -76 78 -76 157c0 139 78 290 234 315h5
l62 -22zM130 75c21 0 104 93 181 277l1 6l1 24l-61 22c-95 0 -151 -107 -151 -235c0 -74 17 -94 29 -94zM194 -73c26 0 42 -16 42 -42c0 -28 -17 -46 -44 -46s-43 16 -43 43s17 45 45 45z" />
    <glyph glyph-name="Abreveacute" unicode="&#x1eae;" horiz-adv-x="548" 
d="M333 815l-26 22c30 35 58 69 87 106l8 1l34 -24l1 -8c-31 -33 -63 -64 -96 -97h-8zM345 704c-65 0 -109 32 -121 89l25 26h12c8 -38 37 -60 84 -60c45 0 79 22 98 60h12l18 -26c-25 -57 -71 -89 -128 -89zM501 0h-76l-7 62l-21 115l-136 2l-123 -2l-52 -111l-24 -66h-75
l304 640h86zM385 241l-59 321h-7l-151 -321l107 -1z" />
    <glyph glyph-name="abreveacute" unicode="&#x1eaf;" horiz-adv-x="439" 
d="M252 634l-26 22c30 35 58 69 87 106l8 1l34 -24l1 -8c-31 -33 -63 -64 -96 -97h-8zM264 523c-65 0 -109 32 -121 89l25 26h12c8 -38 37 -60 84 -60c45 0 79 22 98 60h12l18 -26c-25 -57 -71 -89 -128 -89zM381 466l10 -6l-50 -351l-5 -106l-75 -7l29 205h-10
c-46 -81 -100 -153 -157 -208h-14c-50 28 -76 78 -76 157c0 139 78 290 234 315h5l62 -22zM130 75c21 0 104 93 181 277l1 6l1 24l-61 22c-95 0 -151 -107 -151 -235c0 -74 17 -94 29 -94z" />
    <glyph glyph-name="Abrevegrave" unicode="&#x1eb0;" horiz-adv-x="548" 
d="M361 815h-8c-33 33 -65 64 -96 97v8l36 24l7 -1c29 -37 57 -71 87 -106zM346 703c-65 0 -109 32 -121 90l25 26h12c8 -39 37 -61 84 -61c45 0 79 22 98 61h12l18 -26c-25 -58 -71 -90 -128 -90zM501 0h-76l-7 62l-21 115l-136 2l-123 -2l-52 -111l-24 -66h-75l304 640h86
zM385 241l-59 321h-7l-151 -321l107 -1z" />
    <glyph glyph-name="abrevegrave" unicode="&#x1eb1;" horiz-adv-x="439" 
d="M280 634h-8c-33 33 -65 64 -96 97v8l36 24l7 -1c29 -37 57 -71 87 -106zM265 522c-65 0 -109 32 -121 90l25 26h12c8 -39 37 -61 84 -61c45 0 79 22 98 61h12l18 -26c-25 -58 -71 -90 -128 -90zM381 466l10 -6l-50 -351l-5 -106l-75 -7l29 205h-10
c-46 -81 -100 -153 -157 -208h-14c-50 28 -76 78 -76 157c0 139 78 290 234 315h5l62 -22zM130 75c21 0 104 93 181 277l1 6l1 24l-61 22c-95 0 -151 -107 -151 -235c0 -74 17 -94 29 -94z" />
    <glyph glyph-name="Abrevehookabove" unicode="&#x1eb2;" horiz-adv-x="548" 
d="M339 951c-17 0 -39 -8 -58 -24l-15 25c25 26 56 41 84 41c35 0 61 -24 61 -55c0 -24 -16 -45 -51 -74l19 -34l-32 -18l-32 53c32 24 50 48 50 65c0 14 -10 21 -26 21zM345 705c-65 0 -109 32 -121 89l25 26h12c8 -38 37 -61 84 -61c45 0 79 23 98 61h12l18 -26
c-25 -57 -71 -89 -128 -89zM501 0h-76l-7 62l-21 115l-136 2l-123 -2l-52 -111l-24 -66h-75l304 640h86zM385 241l-59 321h-7l-151 -321l107 -1z" />
    <glyph glyph-name="abrevehookabove" unicode="&#x1eb3;" horiz-adv-x="439" 
d="M258 770c-17 0 -39 -8 -58 -24l-15 25c25 26 56 41 84 41c35 0 61 -24 61 -55c0 -24 -16 -45 -51 -74l19 -34l-32 -18l-32 53c32 24 50 48 50 65c0 14 -10 21 -26 21zM264 524c-65 0 -109 32 -121 89l25 26h12c8 -38 37 -61 84 -61c45 0 79 23 98 61h12l18 -26
c-25 -57 -71 -89 -128 -89zM381 466l10 -6l-50 -351l-5 -106l-75 -7l29 205h-10c-46 -81 -100 -153 -157 -208h-14c-50 28 -76 78 -76 157c0 139 78 290 234 315h5l62 -22zM130 75c21 0 104 93 181 277l1 6l1 24l-61 22c-95 0 -151 -107 -151 -235c0 -74 17 -94 29 -94z" />
    <glyph glyph-name="Abrevetilde" unicode="&#x1eb4;" horiz-adv-x="548" 
d="M509 939v-7l-56 -66l-9 -3c-39 5 -121 36 -146 36c-14 0 -29 -20 -52 -44h-8l-22 23v8l57 64l9 3c39 -5 121 -35 145 -35c15 0 29 20 53 45h8zM443 817l18 -25c-25 -56 -70 -88 -126 -88c-64 0 -106 32 -118 88l24 25h12c8 -38 36 -59 82 -59c44 0 78 21 96 59h12z
M377 640l124 -640h-76l-7 62l-21 115l-136 2l-123 -2l-52 -111l-24 -66h-75l304 640h86zM385 241l-59 321h-7l-151 -321l107 -1z" />
    <glyph glyph-name="abrevetilde" unicode="&#x1eb5;" horiz-adv-x="439" 
d="M428 758v-7l-56 -66l-9 -3c-39 5 -121 36 -146 36c-14 0 -29 -20 -52 -44h-8l-22 23v8l57 64l9 3c39 -5 121 -35 145 -35c15 0 29 20 53 45h8zM362 636l18 -25c-25 -56 -70 -88 -126 -88c-64 0 -106 32 -118 88l24 25h12c8 -38 36 -59 82 -59c44 0 78 21 96 59h12z
M381 466l10 -6l-50 -351l-5 -106l-75 -7l29 205h-10c-46 -81 -100 -153 -157 -208h-14c-50 28 -76 78 -76 157c0 139 78 290 234 315h5l62 -22zM130 75c21 0 104 93 181 277l1 6l1 24l-61 22c-95 0 -151 -107 -151 -235c0 -74 17 -94 29 -94z" />
    <glyph glyph-name="Abrevedotbelow" unicode="&#x1eb6;" horiz-adv-x="548" 
d="M343 724c-65 0 -109 32 -121 89l25 26h12c8 -38 37 -60 84 -60c45 0 79 22 98 60h12l18 -26c-25 -57 -71 -89 -128 -89zM501 0h-76l-7 62l-21 115l-136 2l-123 -2l-52 -111l-24 -66h-75l304 640h86zM385 241l-59 321h-7l-151 -321l107 -1zM233 -73c26 0 42 -16 42 -42
c0 -28 -17 -46 -44 -46s-43 16 -43 43s17 45 45 45z" />
    <glyph glyph-name="abrevedotbelow" unicode="&#x1eb7;" horiz-adv-x="439" 
d="M263 526c-76 0 -108 45 -114 114l24 29h11c6 -60 34 -88 82 -88s82 28 101 88h12l18 -29c-23 -71 -68 -114 -134 -114zM381 466l10 -6l-50 -351l-5 -106l-75 -7l29 205h-10c-46 -81 -100 -153 -157 -208h-14c-50 28 -76 78 -76 157c0 139 78 290 234 315h5l62 -22z
M130 75c21 0 104 93 181 277l1 6l1 24l-61 22c-95 0 -151 -107 -151 -235c0 -74 17 -94 29 -94zM194 -73c26 0 42 -16 42 -42c0 -28 -17 -46 -44 -46s-43 16 -43 43s17 45 45 45z" />
    <glyph glyph-name="Edotbelow" unicode="&#x1eb8;" horiz-adv-x="461" 
d="M210 576l-28 -216l115 -2l100 3l5 -7l-14 -58l-106 2l-109 -1l-13 -98l-15 -135l123 -2l145 4l3 -7l-13 -59h-340l29 193l52 447h341l3 -7l-13 -59l-142 4zM255 -73c26 0 42 -16 42 -42c0 -28 -17 -46 -44 -46s-43 16 -43 43s17 45 45 45z" />
    <glyph glyph-name="edotbelow" unicode="&#x1eb9;" horiz-adv-x="374" 
d="M300 149l25 -35c-45 -66 -96 -107 -156 -121h-13c-84 7 -122 65 -122 161c0 177 90 307 223 312l9 -1c53 -8 85 -37 85 -89c0 -76 -75 -143 -246 -201c0 -83 20 -119 63 -119c45 0 91 40 120 94zM238 412c-67 0 -117 -72 -130 -182c115 38 176 87 176 141
c0 25 -14 41 -46 41zM155 -73c26 0 42 -16 42 -42c0 -28 -17 -46 -44 -46s-43 16 -43 43s17 45 45 45z" />
    <glyph glyph-name="Ehookabove" unicode="&#x1eba;" horiz-adv-x="461" 
d="M307 850c-17 0 -38 -8 -57 -24l-16 25c26 26 56 41 84 41c36 0 62 -24 62 -55c0 -24 -16 -45 -51 -74l19 -34l-33 -18l-31 53c32 24 50 48 50 65c0 14 -11 21 -27 21zM210 576l-28 -216l115 -2l100 3l5 -7l-14 -58l-106 2l-109 -1l-13 -98l-15 -135l123 -2l145 4l3 -7
l-13 -59h-340l29 193l52 447h341l3 -7l-13 -59l-142 4z" />
    <glyph glyph-name="ehookabove" unicode="&#x1ebb;" horiz-adv-x="374" 
d="M231 669c-17 0 -38 -8 -57 -24l-16 25c26 26 56 41 84 41c36 0 62 -24 62 -55c0 -24 -16 -45 -51 -74l19 -34l-33 -18l-31 53c32 24 50 48 50 65c0 14 -11 21 -27 21zM300 149l25 -35c-45 -66 -96 -107 -156 -121h-13c-84 7 -122 65 -122 161c0 177 90 307 223 312l9 -1
c53 -8 85 -37 85 -89c0 -76 -75 -143 -246 -201c0 -83 20 -119 63 -119c45 0 91 40 120 94zM238 412c-67 0 -117 -72 -130 -182c115 38 176 87 176 141c0 25 -14 41 -46 41z" />
    <glyph glyph-name="Ecircumflexacute" unicode="&#x1ebe;" horiz-adv-x="461" 
d="M401 818l-26 20l57 90l18 15l36 -18l2 -8l-69 -87zM205 713l-12 33c45 28 86 58 124 89h22c33 -31 70 -61 106 -89l-19 -33h-9c-32 22 -62 44 -93 67c-36 -23 -72 -45 -110 -67h-9zM485 640l3 -7l-13 -59l-142 4l-123 -2l-28 -216l115 -2l100 3l5 -7l-14 -58l-106 2
l-109 -1l-13 -98l-15 -135l123 -2l145 4l3 -7l-13 -59h-340l29 193l52 447h341z" />
    <glyph glyph-name="ecircumflexacute" unicode="&#x1ebf;" horiz-adv-x="374" 
d="M326 637l-26 20l57 90l18 15l36 -18l2 -8l-69 -87zM242 654h22c33 -31 70 -61 106 -89l-19 -33h-9c-32 22 -62 44 -93 67c-36 -23 -72 -45 -110 -67h-9l-12 33c45 28 86 58 124 89zM351 376c0 -76 -75 -143 -246 -201c0 -83 20 -119 63 -119c45 0 91 40 120 94l12 -1
l25 -35c-45 -66 -96 -107 -156 -121h-13c-84 7 -122 65 -122 161c0 177 90 307 223 312l9 -1c53 -8 85 -37 85 -89zM108 230c115 38 176 87 176 141c0 25 -14 41 -46 41c-67 0 -117 -72 -130 -182z" />
    <glyph glyph-name="Ecircumflexgrave" unicode="&#x1ec0;" horiz-adv-x="461" 
d="M415 830l-70 86l2 9l37 17l17 -14l57 -90l-26 -20zM209 712l-11 33c45 28 86 58 124 89h22c32 -31 69 -61 106 -89l-20 -33h-8c-33 23 -62 44 -93 67c-36 -23 -73 -44 -111 -67h-9zM210 576l-28 -216l115 -2l100 3l5 -7l-14 -58l-106 2l-109 -1l-13 -98l-15 -135l123 -2
l145 4l3 -7l-13 -59h-340l29 193l52 447h341l3 -7l-13 -59l-142 4z" />
    <glyph glyph-name="ecircumflexgrave" unicode="&#x1ec1;" horiz-adv-x="374" 
d="M340 649l-70 86l2 9l37 17l17 -14l57 -90l-26 -20zM247 653h22c32 -31 69 -61 106 -89l-20 -33h-8c-33 23 -62 44 -93 67c-36 -23 -73 -44 -111 -67h-9l-11 33c45 28 86 58 124 89zM351 376c0 -76 -75 -143 -246 -201c0 -83 20 -119 63 -119c45 0 91 40 120 94l12 -1
l25 -35c-45 -66 -96 -107 -156 -121h-13c-84 7 -122 65 -122 161c0 177 90 307 223 312l9 -1c53 -8 85 -37 85 -89zM108 230c115 38 176 87 176 141c0 25 -14 41 -46 41c-67 0 -117 -72 -130 -182z" />
    <glyph glyph-name="Ecircumflexhookabove" unicode="&#x1ec2;" horiz-adv-x="461" 
d="M406 941c-16 0 -37 -8 -54 -23l-16 24c24 24 54 39 80 39c34 0 59 -23 59 -53c0 -22 -15 -42 -48 -70l18 -32l-32 -17l-29 50c30 23 48 46 48 62c0 13 -11 20 -26 20zM207 713l-11 33c45 28 86 58 124 89h22c32 -31 69 -61 106 -89l-20 -33h-8c-33 22 -62 44 -93 67
c-36 -23 -73 -45 -111 -67h-9zM210 576l-28 -216l115 -2l100 3l5 -7l-14 -58l-106 2l-109 -1l-13 -98l-15 -135l123 -2l145 4l3 -7l-13 -59h-340l29 193l52 447h341l3 -7l-13 -59l-142 4z" />
    <glyph glyph-name="ecircumflexhookabove" unicode="&#x1ec3;" horiz-adv-x="374" 
d="M331 760c-16 0 -37 -8 -54 -23l-16 24c24 24 54 39 80 39c34 0 59 -23 59 -53c0 -22 -15 -42 -48 -70l18 -32l-32 -17l-29 50c30 23 48 46 48 62c0 13 -11 20 -26 20zM245 654h22c32 -31 69 -61 106 -89l-20 -33h-8c-33 22 -62 44 -93 67c-36 -23 -73 -45 -111 -67h-9
l-11 33c45 28 86 58 124 89zM351 376c0 -76 -75 -143 -246 -201c0 -83 20 -119 63 -119c45 0 91 40 120 94l12 -1l25 -35c-45 -66 -96 -107 -156 -121h-13c-84 7 -122 65 -122 161c0 177 90 307 223 312l9 -1c53 -8 85 -37 85 -89zM108 230c115 38 176 87 176 141
c0 25 -14 41 -46 41c-67 0 -117 -72 -130 -182z" />
    <glyph glyph-name="Ecircumflextilde" unicode="&#x1ec4;" horiz-adv-x="461" 
d="M415 830l-70 86l2 9l37 17l17 -14l57 -90l-26 -20zM209 712l-11 33c45 28 86 58 124 89h22c32 -31 69 -61 106 -89l-20 -33h-8c-33 23 -62 44 -93 67c-36 -23 -73 -44 -111 -67h-9zM210 576l-28 -216l115 -2l100 3l5 -7l-14 -58l-106 2l-109 -1l-13 -98l-15 -135l123 -2
l145 4l3 -7l-13 -59h-340l29 193l52 447h341l3 -7l-13 -59l-142 4z" />
    <glyph glyph-name="ecircumflextilde" unicode="&#x1ec5;" horiz-adv-x="374" 
d="M432 758v-7l-57 -66l-8 -3c-40 5 -122 36 -147 36c-14 0 -29 -20 -52 -44h-7l-23 23v8l57 64l9 3c39 -5 122 -35 146 -35c14 0 29 20 53 45h7zM254 655h21c33 -31 70 -62 107 -90l-20 -32h-9c-32 22 -62 43 -92 66c-37 -23 -73 -44 -111 -66h-9l-12 32
c46 28 86 59 125 90zM351 376c0 -76 -75 -143 -246 -201c0 -83 20 -119 63 -119c45 0 91 40 120 94l12 -1l25 -35c-45 -66 -96 -107 -156 -121h-13c-84 7 -122 65 -122 161c0 177 90 307 223 312l9 -1c53 -8 85 -37 85 -89zM108 230c115 38 176 87 176 141
c0 25 -14 41 -46 41c-67 0 -117 -72 -130 -182z" />
    <glyph glyph-name="Ecircumflexdotbelow" unicode="&#x1ec6;" horiz-adv-x="461" 
d="M214 732l-12 33c46 28 86 58 125 89h22c32 -31 69 -61 106 -89l-20 -33h-8c-33 22 -63 44 -93 67c-37 -23 -73 -45 -111 -67h-9zM210 576l-28 -216l115 -2l100 3l5 -7l-14 -58l-106 2l-109 -1l-13 -98l-15 -135l123 -2l145 4l3 -7l-13 -59h-340l29 193l52 447h341l3 -7
l-13 -59l-142 4zM255 -73c26 0 42 -16 42 -42c0 -28 -17 -46 -44 -46s-43 16 -43 43s17 45 45 45z" />
    <glyph glyph-name="ecircumflexdotbelow" unicode="&#x1ec7;" horiz-adv-x="374" 
d="M257 686h23c33 -48 68 -93 103 -134l-24 -30h-8c-35 36 -63 70 -89 105c-35 -35 -73 -69 -115 -105h-9l-17 30c43 39 87 83 136 134zM351 376c0 -76 -75 -143 -246 -201c0 -83 20 -119 63 -119c45 0 91 40 120 94l12 -1l25 -35c-45 -66 -96 -107 -156 -121h-13
c-84 7 -122 65 -122 161c0 177 90 307 223 312l9 -1c53 -8 85 -37 85 -89zM108 230c115 38 176 87 176 141c0 25 -14 41 -46 41c-67 0 -117 -72 -130 -182zM155 -73c26 0 42 -16 42 -42c0 -28 -17 -46 -44 -46s-43 16 -43 43s17 45 45 45z" />
    <glyph glyph-name="Ihookabove" unicode="&#x1ec8;" horiz-adv-x="259" 
d="M188 892c36 0 62 -24 62 -55c0 -24 -16 -45 -51 -74l19 -34l-33 -18l-31 53c32 24 50 48 50 65c0 14 -11 21 -27 21c-17 0 -38 -8 -57 -24l-16 25c26 26 56 41 84 41zM159 199l-21 -199h-75l28 193l52 447h75z" />
    <glyph glyph-name="ihookabove" unicode="&#x1ec9;" horiz-adv-x="218" 
d="M143 710c36 0 62 -24 62 -55c0 -24 -16 -45 -51 -74l19 -34l-33 -18l-31 53c32 24 50 48 50 65c0 14 -11 21 -27 21c-17 0 -38 -8 -57 -24l-16 25c26 26 56 41 84 41zM124 109l-4 -106l-76 -7l52 363l4 97l74 7z" />
    <glyph glyph-name="Idotbelow" unicode="&#x1eca;" horiz-adv-x="259" 
d="M159 199l-21 -199h-75l28 193l52 447h75zM94 -73c26 0 42 -16 42 -42c0 -28 -17 -46 -44 -46s-43 16 -43 43s17 45 45 45z" />
    <glyph glyph-name="idotbelow" unicode="&#x1ecb;" horiz-adv-x="218" 
d="M157 661c26 0 41 -16 41 -43c0 -28 -17 -46 -44 -46s-43 17 -43 44s18 45 46 45zM124 109l-4 -106l-76 -7l52 363l4 97l74 7zM73 -73c26 0 42 -16 42 -42c0 -28 -17 -46 -44 -46s-43 16 -43 43s17 45 45 45z" />
    <glyph glyph-name="Odotbelow" unicode="&#x1ecc;" horiz-adv-x="611" 
d="M360 647c146 0 230 -93 230 -256c0 -246 -112 -399 -314 -399c-144 0 -229 97 -229 263c0 244 112 392 313 392zM351 584c-154 0 -227 -116 -227 -324c0 -136 53 -205 158 -205c153 0 229 117 229 327c0 135 -53 202 -160 202zM294 -73c26 0 42 -16 42 -42
c0 -28 -17 -46 -44 -46s-43 16 -43 43s17 45 45 45z" />
    <glyph glyph-name="odotbelow" unicode="&#x1ecd;" horiz-adv-x="411" 
d="M258 466h8c72 -12 109 -59 109 -152c0 -184 -80 -311 -219 -323l-8 1c-74 14 -112 59 -112 157c0 180 84 309 222 317zM245 405c-92 0 -140 -102 -140 -255c0 -69 17 -99 62 -99c90 0 138 105 138 258c0 68 -18 96 -60 96zM159 -73c26 0 42 -16 42 -42
c0 -28 -17 -46 -44 -46s-43 16 -43 43s17 45 45 45z" />
    <glyph glyph-name="Ohookabove" unicode="&#x1ece;" horiz-adv-x="611" 
d="M364 892c36 0 62 -24 62 -55c0 -24 -16 -45 -51 -74l19 -34l-33 -18l-31 53c32 24 50 48 50 65c0 14 -11 21 -27 21c-17 0 -38 -8 -57 -24l-16 25c26 26 56 41 84 41zM360 647c146 0 230 -93 230 -256c0 -246 -112 -399 -314 -399c-144 0 -229 97 -229 263
c0 244 112 392 313 392zM351 584c-154 0 -227 -116 -227 -324c0 -136 53 -205 158 -205c153 0 229 117 229 327c0 135 -53 202 -160 202z" />
    <glyph glyph-name="ohookabove" unicode="&#x1ecf;" horiz-adv-x="411" 
d="M251 710c36 0 62 -24 62 -55c0 -24 -16 -45 -51 -74l19 -34l-33 -18l-31 53c32 24 50 48 50 65c0 14 -11 21 -27 21c-17 0 -38 -8 -57 -24l-16 25c26 26 56 41 84 41zM258 466h8c72 -12 109 -59 109 -152c0 -184 -80 -311 -219 -323l-8 1c-74 14 -112 59 -112 157
c0 180 84 309 222 317zM245 405c-92 0 -140 -102 -140 -255c0 -69 17 -99 62 -99c90 0 138 105 138 258c0 68 -18 96 -60 96z" />
    <glyph glyph-name="Ocircumflexacute" unicode="&#x1ed0;" horiz-adv-x="611" 
d="M533 925l2 -8l-69 -87l-18 -12l-26 20l57 90l18 15zM364 835h22c33 -31 70 -61 106 -89l-19 -33h-9c-32 22 -62 44 -93 67c-36 -23 -72 -45 -110 -67h-9l-12 33c45 28 86 58 124 89zM360 647c146 0 230 -93 230 -256c0 -246 -112 -399 -314 -399c-144 0 -229 97 -229 263
c0 244 112 392 313 392zM351 584c-154 0 -227 -116 -227 -324c0 -136 53 -205 158 -205c153 0 229 117 229 327c0 135 -53 202 -160 202z" />
    <glyph glyph-name="ocircumflexacute" unicode="&#x1ed1;" horiz-adv-x="411" 
d="M419 743l2 -8l-69 -87l-18 -12l-26 20l57 90l18 15zM250 653h22c33 -31 70 -61 106 -89l-19 -33h-9c-32 22 -62 44 -93 67c-36 -23 -72 -45 -110 -67h-9l-12 33c45 28 86 58 124 89zM258 466h8c72 -12 109 -59 109 -152c0 -184 -80 -311 -219 -323l-8 1
c-74 14 -112 59 -112 157c0 180 84 309 222 317zM245 405c-92 0 -140 -102 -140 -255c0 -69 17 -99 62 -99c90 0 138 105 138 258c0 68 -18 96 -60 96z" />
    <glyph glyph-name="Ocircumflexgrave" unicode="&#x1ed2;" horiz-adv-x="611" 
d="M448 928l57 -90l-26 -20l-17 12l-70 86l2 9l37 17zM369 834h22c32 -31 69 -61 106 -89l-20 -33h-8c-33 23 -62 44 -93 67c-36 -23 -73 -44 -111 -67h-9l-11 33c45 28 86 58 124 89zM360 647c146 0 230 -93 230 -256c0 -246 -112 -399 -314 -399c-144 0 -229 97 -229 263
c0 244 112 392 313 392zM351 584c-154 0 -227 -116 -227 -324c0 -136 53 -205 158 -205c153 0 229 117 229 327c0 135 -53 202 -160 202z" />
    <glyph glyph-name="ocircumflexgrave" unicode="&#x1ed3;" horiz-adv-x="411" 
d="M334 746l57 -90l-26 -20l-17 12l-70 86l2 9l37 17zM255 652h22c32 -31 69 -61 106 -89l-20 -33h-8c-33 23 -62 44 -93 67c-36 -23 -73 -44 -111 -67h-9l-11 33c45 28 86 58 124 89zM258 466h8c72 -12 109 -59 109 -152c0 -184 -80 -311 -219 -323l-8 1
c-74 14 -112 59 -112 157c0 180 84 309 222 317zM245 405c-92 0 -140 -102 -140 -255c0 -69 17 -99 62 -99c90 0 138 105 138 258c0 68 -18 96 -60 96z" />
    <glyph glyph-name="Ocircumflexhookabove" unicode="&#x1ed4;" horiz-adv-x="611" 
d="M463 981c34 0 59 -23 59 -53c0 -22 -15 -42 -48 -70l18 -32l-32 -17l-29 50c30 23 48 46 48 62c0 13 -11 20 -26 20c-16 0 -37 -8 -54 -23l-16 24c24 24 54 39 80 39zM367 835h22c32 -31 69 -61 106 -89l-20 -33h-8c-33 22 -62 44 -93 67c-36 -23 -73 -45 -111 -67h-9
l-11 33c45 28 86 58 124 89zM360 647c146 0 230 -93 230 -256c0 -246 -112 -399 -314 -399c-144 0 -229 97 -229 263c0 244 112 392 313 392zM351 584c-154 0 -227 -116 -227 -324c0 -136 53 -205 158 -205c153 0 229 117 229 327c0 135 -53 202 -160 202z" />
    <glyph glyph-name="ocircumflexhookabove" unicode="&#x1ed5;" horiz-adv-x="411" 
d="M349 799c34 0 59 -23 59 -53c0 -22 -15 -42 -48 -70l18 -32l-32 -17l-29 50c30 23 48 46 48 62c0 13 -11 20 -26 20c-16 0 -37 -8 -54 -23l-16 24c24 24 54 39 80 39zM253 653h22c32 -31 69 -61 106 -89l-20 -33h-8c-33 22 -62 44 -93 67c-36 -23 -73 -45 -111 -67h-9
l-11 33c45 28 86 58 124 89zM258 466h8c72 -12 109 -59 109 -152c0 -184 -80 -311 -219 -323l-8 1c-74 14 -112 59 -112 157c0 180 84 309 222 317zM245 405c-92 0 -140 -102 -140 -255c0 -69 17 -99 62 -99c90 0 138 105 138 258c0 68 -18 96 -60 96z" />
    <glyph glyph-name="Ocircumflextilde" unicode="&#x1ed6;" horiz-adv-x="611" 
d="M554 939v-7l-57 -66l-8 -3c-40 5 -122 36 -147 36c-14 0 -29 -20 -52 -44h-7l-23 23v8l57 64l9 3c39 -5 122 -35 146 -35c14 0 29 20 53 45h7zM376 836h21c33 -31 70 -62 107 -90l-20 -32h-9c-32 22 -62 43 -92 66c-37 -23 -73 -44 -111 -66h-9l-12 32
c46 28 86 59 125 90zM360 647c146 0 230 -93 230 -256c0 -246 -112 -399 -314 -399c-144 0 -229 97 -229 263c0 244 112 392 313 392zM351 584c-154 0 -227 -116 -227 -324c0 -136 53 -205 158 -205c153 0 229 117 229 327c0 135 -53 202 -160 202z" />
    <glyph glyph-name="ocircumflextilde" unicode="&#x1ed7;" horiz-adv-x="411" 
d="M441 757v-7l-57 -66l-8 -3c-40 5 -122 36 -147 36c-14 0 -29 -20 -52 -44h-7l-23 23v8l57 64l9 3c39 -5 122 -35 146 -35c14 0 29 20 53 45h7zM263 654h21c33 -31 70 -62 107 -90l-20 -32h-9c-32 22 -62 43 -92 66c-37 -23 -73 -44 -111 -66h-9l-12 32
c46 28 86 59 125 90zM258 466h8c72 -12 109 -59 109 -152c0 -184 -80 -311 -219 -323l-8 1c-74 14 -112 59 -112 157c0 180 84 309 222 317zM245 405c-92 0 -140 -102 -140 -255c0 -69 17 -99 62 -99c90 0 138 105 138 258c0 68 -18 96 -60 96z" />
    <glyph glyph-name="Ocircumflexdotbelow" unicode="&#x1ed8;" horiz-adv-x="611" 
d="M262 732l-12 33c46 28 86 58 125 89h22c32 -31 69 -61 106 -89l-20 -33h-8c-33 22 -63 44 -93 67c-37 -23 -73 -45 -111 -67h-9zM360 647c146 0 230 -93 230 -256c0 -246 -112 -399 -314 -399c-144 0 -229 97 -229 263c0 244 112 392 313 392zM351 584
c-154 0 -227 -116 -227 -324c0 -136 53 -205 158 -205c153 0 229 117 229 327c0 135 -53 202 -160 202zM294 -73c26 0 42 -16 42 -42c0 -28 -17 -46 -44 -46s-43 16 -43 43s17 45 45 45z" />
    <glyph glyph-name="ocircumflexdotbelow" unicode="&#x1ed9;" horiz-adv-x="411" 
d="M154 521l-17 30c43 39 87 83 136 134h23c33 -48 68 -93 103 -134l-24 -30h-8c-35 36 -63 70 -89 105c-35 -35 -73 -69 -115 -105h-9zM258 466h8c72 -12 109 -59 109 -152c0 -184 -80 -311 -219 -323l-8 1c-74 14 -112 59 -112 157c0 180 84 309 222 317zM245 405
c-92 0 -140 -102 -140 -255c0 -69 17 -99 62 -99c90 0 138 105 138 258c0 68 -18 96 -60 96zM159 -73c26 0 42 -16 42 -42c0 -28 -17 -46 -44 -46s-43 16 -43 43s17 45 45 45z" />
    <glyph glyph-name="Ohornacute" unicode="&#x1eda;" horiz-adv-x="614" 
d="M475 859l20 -44l-3 -9c-67 -32 -129 -58 -193 -86l-9 4l-14 34c62 31 123 63 191 103zM617 764c22 0 43 -30 43 -73c0 -72 -56 -114 -126 -117c40 -48 55 -111 55 -194c0 -228 -116 -388 -313 -388c-148 0 -229 89 -229 276c0 224 116 379 310 379c91 0 121 -31 167 -31
c39 0 75 21 75 65c0 20 -7 43 -23 60l3 8c13 9 28 15 38 15zM351 584c-152 0 -227 -122 -227 -310c0 -150 48 -219 160 -219c151 0 227 125 227 313c0 150 -49 216 -160 216z" />
    <glyph glyph-name="ohornacute" unicode="&#x1edb;" horiz-adv-x="432" 
d="M194 520l-21 30c54 45 106 90 162 145l9 -1l28 -39l-2 -9c-58 -46 -111 -87 -168 -127zM488 503c0 -62 -53 -106 -116 -109c9 -21 13 -47 13 -80c0 -185 -82 -311 -221 -323l-8 1c-77 14 -114 59 -114 158c0 178 84 309 224 316h8c43 -9 61 -27 91 -27c38 0 61 19 61 53
c0 23 -10 45 -31 65l2 9c15 11 28 17 40 17c21 0 51 -34 51 -80zM174 49c92 0 141 106 141 259c0 70 -19 99 -62 99c-93 0 -142 -104 -142 -256c0 -71 18 -102 63 -102z" />
    <glyph glyph-name="Ohorngrave" unicode="&#x1edc;" horiz-adv-x="614" 
d="M285 861l9 2c68 -40 129 -71 191 -102l-14 -34l-9 -4c-64 27 -126 54 -193 86l-3 8zM617 764c22 0 43 -30 43 -73c0 -72 -56 -114 -126 -117c40 -48 55 -111 55 -194c0 -228 -116 -388 -313 -388c-148 0 -229 89 -229 276c0 224 116 379 310 379c91 0 121 -31 167 -31
c39 0 75 21 75 65c0 20 -7 43 -23 60l3 8c13 9 28 15 38 15zM351 584c-152 0 -227 -122 -227 -310c0 -150 48 -219 160 -219c151 0 227 125 227 313c0 150 -49 216 -160 216z" />
    <glyph glyph-name="ohorngrave" unicode="&#x1edd;" horiz-adv-x="432" 
d="M340 520l-8 -1c-57 40 -111 81 -169 127l-1 9l28 39l8 1c57 -55 109 -100 163 -145zM488 503c0 -62 -53 -106 -116 -109c9 -21 13 -47 13 -80c0 -185 -82 -311 -221 -323l-8 1c-77 14 -114 59 -114 158c0 178 84 309 224 316h8c43 -9 61 -27 91 -27c38 0 61 19 61 53
c0 23 -10 45 -31 65l2 9c15 11 28 17 40 17c21 0 51 -34 51 -80zM174 49c92 0 141 106 141 259c0 70 -19 99 -62 99c-93 0 -142 -104 -142 -256c0 -71 18 -102 63 -102z" />
    <glyph glyph-name="Ohornhookabove" unicode="&#x1ede;" horiz-adv-x="614" 
d="M364 892c36 0 62 -24 62 -55c0 -24 -16 -45 -51 -74l19 -34l-33 -18l-31 53c32 24 50 48 50 65c0 14 -11 21 -27 21c-17 0 -38 -8 -57 -24l-16 25c26 26 56 41 84 41zM617 764c22 0 43 -30 43 -73c0 -72 -56 -114 -126 -117c40 -48 55 -111 55 -194
c0 -228 -116 -388 -313 -388c-148 0 -229 89 -229 276c0 224 116 379 310 379c91 0 121 -31 167 -31c39 0 75 21 75 65c0 20 -7 43 -23 60l3 8c13 9 28 15 38 15zM351 584c-152 0 -227 -122 -227 -310c0 -150 48 -219 160 -219c151 0 227 125 227 313
c0 150 -49 216 -160 216z" />
    <glyph glyph-name="ohornhookabove" unicode="&#x1edf;" horiz-adv-x="432" 
d="M249 668c-17 0 -38 -8 -57 -24l-16 25c26 26 56 41 84 41c36 0 62 -24 62 -55c0 -24 -16 -45 -51 -74l19 -34l-33 -18l-31 53c32 24 50 48 50 65c0 14 -11 21 -27 21zM488 503c0 -62 -53 -106 -116 -109c9 -21 13 -47 13 -80c0 -185 -82 -311 -221 -323l-8 1
c-77 14 -114 59 -114 158c0 178 84 309 224 316h8c43 -9 61 -27 91 -27c38 0 61 19 61 53c0 23 -10 45 -31 65l2 9c15 11 28 17 40 17c21 0 51 -34 51 -80zM174 49c92 0 141 106 141 259c0 70 -19 99 -62 99c-93 0 -142 -104 -142 -256c0 -71 18 -102 63 -102z" />
    <glyph glyph-name="Ohorntilde" unicode="&#x1ee0;" horiz-adv-x="614" 
d="M531 822v-7l-61 -67l-9 -4c-41 5 -129 37 -155 37c-15 0 -31 -21 -56 -46h-9l-23 25v7l61 67l9 3c42 -5 130 -36 155 -36c15 0 31 20 57 46h7zM617 764c22 0 43 -30 43 -73c0 -72 -56 -114 -126 -117c40 -48 55 -111 55 -194c0 -228 -116 -388 -313 -388
c-148 0 -229 89 -229 276c0 224 116 379 310 379c91 0 121 -31 167 -31c39 0 75 21 75 65c0 20 -7 43 -23 60l3 8c13 9 28 15 38 15zM351 584c-152 0 -227 -122 -227 -310c0 -150 48 -219 160 -219c151 0 227 125 227 313c0 150 -49 216 -160 216z" />
    <glyph glyph-name="ohorntilde" unicode="&#x1ee1;" horiz-adv-x="432" 
d="M157 551l-24 25v7l55 66l8 4c38 -5 112 -36 133 -36c15 0 28 20 50 45h8l23 -25v-7l-55 -67l-8 -3c-37 5 -112 36 -133 36c-15 0 -28 -20 -50 -45h-7zM488 503c0 -62 -53 -106 -116 -109c9 -21 13 -47 13 -80c0 -185 -82 -311 -221 -323l-8 1c-77 14 -114 59 -114 158
c0 178 84 309 224 316h8c43 -9 61 -27 91 -27c38 0 61 19 61 53c0 23 -10 45 -31 65l2 9c15 11 28 17 40 17c21 0 51 -34 51 -80zM174 49c92 0 141 106 141 259c0 70 -19 99 -62 99c-93 0 -142 -104 -142 -256c0 -71 18 -102 63 -102z" />
    <glyph glyph-name="Ohorndotbelow" unicode="&#x1ee2;" horiz-adv-x="614" 
d="M617 764c22 0 43 -30 43 -73c0 -72 -56 -114 -126 -117c40 -48 55 -111 55 -194c0 -228 -116 -388 -313 -388c-148 0 -229 89 -229 276c0 224 116 379 310 379c91 0 121 -31 167 -31c39 0 75 21 75 65c0 20 -7 43 -23 60l3 8c13 9 28 15 38 15zM351 584
c-152 0 -227 -122 -227 -310c0 -150 48 -219 160 -219c151 0 227 125 227 313c0 150 -49 216 -160 216zM294 -73c26 0 42 -16 42 -42c0 -28 -17 -46 -44 -46s-43 16 -43 43s17 45 45 45z" />
    <glyph glyph-name="ohorndotbelow" unicode="&#x1ee3;" horiz-adv-x="432" 
d="M488 503c0 -62 -53 -106 -116 -109c9 -21 13 -47 13 -80c0 -185 -82 -311 -221 -323l-8 1c-77 14 -114 59 -114 158c0 178 84 309 224 316h8c43 -9 61 -27 91 -27c38 0 61 19 61 53c0 23 -10 45 -31 65l2 9c15 11 28 17 40 17c21 0 51 -34 51 -80zM174 49
c92 0 141 106 141 259c0 70 -19 99 -62 99c-93 0 -142 -104 -142 -256c0 -71 18 -102 63 -102zM159 -73c26 0 42 -16 42 -42c0 -28 -17 -46 -44 -46s-43 16 -43 43s17 45 45 45z" />
    <glyph glyph-name="Udotbelow" unicode="&#x1ee4;" horiz-adv-x="597" 
d="M534 315l-9 -73c-17 -157 -104 -249 -253 -249c-126 0 -203 67 -203 187c0 17 1 35 4 54l12 87l38 319h74l-53 -397c-2 -16 -3 -30 -3 -45c0 -92 46 -138 136 -138c103 0 165 58 178 174l47 406h75zM276 -73c26 0 42 -16 42 -42c0 -28 -17 -46 -44 -46s-43 16 -43 43
s17 45 45 45z" />
    <glyph glyph-name="udotbelow" unicode="&#x1ee5;" horiz-adv-x="471" 
d="M422 463l-50 -354l-4 -106l-76 -7l31 224h-6c-65 -111 -116 -178 -175 -224h-11c-43 10 -78 39 -77 86l1 13l41 258l8 105l74 6l-52 -335l-2 -21c-1 -21 8 -30 20 -30c38 0 110 93 199 278v3l5 97zM193 -73c26 0 42 -16 42 -42c0 -28 -17 -46 -44 -46s-43 16 -43 43
s17 45 45 45z" />
    <glyph glyph-name="Uhookabove" unicode="&#x1ee6;" horiz-adv-x="597" 
d="M358 892c36 0 62 -24 62 -55c0 -24 -16 -45 -51 -74l19 -34l-33 -18l-31 53c32 24 50 48 50 65c0 14 -11 21 -27 21c-17 0 -38 -8 -57 -24l-16 25c26 26 56 41 84 41zM534 315l-9 -73c-17 -157 -104 -249 -253 -249c-126 0 -203 67 -203 187c0 17 1 35 4 54l12 87l38 319
h74l-53 -397c-2 -16 -3 -30 -3 -45c0 -92 46 -138 136 -138c103 0 165 58 178 174l47 406h75z" />
    <glyph glyph-name="uhookabove" unicode="&#x1ee7;" horiz-adv-x="471" 
d="M261 668c-17 0 -38 -8 -57 -24l-16 25c26 26 56 41 84 41c36 0 62 -24 62 -55c0 -24 -16 -45 -51 -74l19 -34l-33 -18l-31 53c32 24 50 48 50 65c0 14 -11 21 -27 21zM422 463l-50 -354l-4 -106l-76 -7l31 224h-6c-65 -111 -116 -178 -175 -224h-11c-43 10 -78 39 -77 86
l1 13l41 258l8 105l74 6l-52 -335l-2 -21c-1 -21 8 -30 20 -30c38 0 110 93 199 278v3l5 97z" />
    <glyph glyph-name="Uhornacute" unicode="&#x1ee8;" horiz-adv-x="603" 
d="M275 724l-14 34c62 31 123 63 191 103l8 -2l20 -44l-3 -9c-67 -32 -129 -58 -193 -86zM651 697c0 -44 -30 -79 -79 -92l-38 -290l-9 -73c-17 -157 -104 -249 -253 -249c-126 0 -203 67 -203 187c0 17 1 35 4 54l12 87l38 319h74l-53 -397c-2 -16 -3 -30 -3 -45
c0 -92 46 -138 136 -138c103 0 165 58 178 174l47 406h28c41 0 62 19 62 52c0 19 -8 38 -30 60l3 7c13 9 25 15 36 15c22 0 50 -33 50 -77z" />
    <glyph glyph-name="uhornacute" unicode="&#x1ee9;" horiz-adv-x="473" 
d="M210 520l-21 30c54 45 106 90 162 145l9 -1l28 -39l-2 -9c-58 -46 -111 -87 -168 -127zM515 533c0 -48 -35 -83 -97 -103l-45 -321l-5 -106l-75 -7l32 227h-8c-65 -113 -115 -181 -175 -227h-11c-43 10 -78 39 -77 86l1 13l41 258l8 105l74 6l-52 -335l-1 -14
c-1 -26 7 -37 19 -37c38 0 111 95 200 289l5 89l30 6c51 7 74 27 74 58c0 20 -10 43 -32 65l2 8c15 11 28 18 40 18c22 0 52 -34 52 -78z" />
    <glyph glyph-name="Uhorngrave" unicode="&#x1eea;" horiz-adv-x="603" 
d="M456 727l-9 -4c-64 27 -126 54 -193 86l-3 8l19 44l9 2c68 -40 129 -71 191 -102zM651 697c0 -44 -30 -79 -79 -92l-38 -290l-9 -73c-17 -157 -104 -249 -253 -249c-126 0 -203 67 -203 187c0 17 1 35 4 54l12 87l38 319h74l-53 -397c-2 -16 -3 -30 -3 -45
c0 -92 46 -138 136 -138c103 0 165 58 178 174l47 406h28c41 0 62 19 62 52c0 19 -8 38 -30 60l3 7c13 9 25 15 36 15c22 0 50 -33 50 -77z" />
    <glyph glyph-name="uhorngrave" unicode="&#x1eeb;" horiz-adv-x="473" 
d="M356 520l-8 -1c-57 40 -111 81 -169 127l-1 9l28 39l8 1c57 -55 109 -100 163 -145zM515 533c0 -48 -35 -83 -97 -103l-45 -321l-5 -106l-75 -7l32 227h-8c-65 -113 -115 -181 -175 -227h-11c-43 10 -78 39 -77 86l1 13l41 258l8 105l74 6l-52 -335l-1 -14
c-1 -26 7 -37 19 -37c38 0 111 95 200 289l5 89l30 6c51 7 74 27 74 58c0 20 -10 43 -32 65l2 8c15 11 28 18 40 18c22 0 52 -34 52 -78z" />
    <glyph glyph-name="Uhornhookabove" unicode="&#x1eec;" horiz-adv-x="603" 
d="M338 850c-17 0 -38 -8 -57 -24l-16 25c26 26 56 41 84 41c36 0 62 -24 62 -55c0 -24 -16 -45 -51 -74l19 -34l-33 -18l-31 53c32 24 50 48 50 65c0 14 -11 21 -27 21zM651 697c0 -44 -30 -79 -79 -92l-38 -290l-9 -73c-17 -157 -104 -249 -253 -249
c-126 0 -203 67 -203 187c0 17 1 35 4 54l12 87l38 319h74l-53 -397c-2 -16 -3 -30 -3 -45c0 -92 46 -138 136 -138c103 0 165 58 178 174l47 406h28c41 0 62 19 62 52c0 19 -8 38 -30 60l3 7c13 9 25 15 36 15c22 0 50 -33 50 -77z" />
    <glyph glyph-name="uhornhookabove" unicode="&#x1eed;" horiz-adv-x="473" 
d="M265 668c-17 0 -38 -8 -57 -24l-16 25c26 26 56 41 84 41c36 0 62 -24 62 -55c0 -24 -16 -45 -51 -74l19 -34l-33 -18l-31 53c32 24 50 48 50 65c0 14 -11 21 -27 21zM515 533c0 -48 -35 -83 -97 -103l-45 -321l-5 -106l-75 -7l32 227h-8c-65 -113 -115 -181 -175 -227
h-11c-43 10 -78 39 -77 86l1 13l41 258l8 105l74 6l-52 -335l-1 -14c-1 -26 7 -37 19 -37c38 0 111 95 200 289l5 89l30 6c51 7 74 27 74 58c0 20 -10 43 -32 65l2 8c15 11 28 18 40 18c22 0 52 -34 52 -78z" />
    <glyph glyph-name="Uhorntilde" unicode="&#x1eee;" horiz-adv-x="603" 
d="M226 735l-23 25v7l61 67l9 3c42 -5 130 -36 155 -36c15 0 31 20 57 46h7l24 -25v-7l-61 -67l-9 -4c-41 5 -129 37 -155 37c-15 0 -31 -21 -56 -46h-9zM651 697c0 -44 -30 -79 -79 -92l-38 -290l-9 -73c-17 -157 -104 -249 -253 -249c-126 0 -203 67 -203 187
c0 17 1 35 4 54l12 87l38 319h74l-53 -397c-2 -16 -3 -30 -3 -45c0 -92 46 -138 136 -138c103 0 165 58 178 174l47 406h28c41 0 62 19 62 52c0 19 -8 38 -30 60l3 7c13 9 25 15 36 15c22 0 50 -33 50 -77z" />
    <glyph glyph-name="uhorntilde" unicode="&#x1eef;" horiz-adv-x="473" 
d="M173 551l-24 25v7l55 66l8 4c38 -5 112 -36 133 -36c15 0 28 20 50 45h8l23 -25v-7l-55 -67l-8 -3c-37 5 -112 36 -133 36c-15 0 -28 -20 -50 -45h-7zM515 533c0 -48 -35 -83 -97 -103l-45 -321l-5 -106l-75 -7l32 227h-8c-65 -113 -115 -181 -175 -227h-11
c-43 10 -78 39 -77 86l1 13l41 258l8 105l74 6l-52 -335l-1 -14c-1 -26 7 -37 19 -37c38 0 111 95 200 289l5 89l30 6c51 7 74 27 74 58c0 20 -10 43 -32 65l2 8c15 11 28 18 40 18c22 0 52 -34 52 -78z" />
    <glyph glyph-name="Uhorndotbelow" unicode="&#x1ef0;" horiz-adv-x="603" 
d="M651 697c0 -44 -30 -79 -79 -92l-38 -290l-9 -73c-17 -157 -104 -249 -253 -249c-126 0 -203 67 -203 187c0 17 1 35 4 54l12 87l38 319h74l-53 -397c-2 -16 -3 -30 -3 -45c0 -92 46 -138 136 -138c103 0 165 58 178 174l47 406h28c41 0 62 19 62 52c0 19 -8 38 -30 60
l3 7c13 9 25 15 36 15c22 0 50 -33 50 -77zM268 -73c26 0 42 -16 42 -42c0 -28 -17 -46 -44 -46s-43 16 -43 43s17 45 45 45z" />
    <glyph glyph-name="uhorndotbelow" unicode="&#x1ef1;" horiz-adv-x="473" 
d="M515 533c0 -48 -35 -83 -97 -103l-45 -321l-5 -106l-75 -7l32 227h-8c-65 -113 -115 -181 -175 -227h-11c-43 10 -78 39 -77 86l1 13l41 258l8 105l74 6l-52 -335l-1 -14c-1 -26 7 -37 19 -37c38 0 111 95 200 289l5 89l30 6c51 7 74 27 74 58c0 20 -10 43 -32 65l2 8
c15 11 28 18 40 18c22 0 52 -34 52 -78zM193 -73c26 0 42 -16 42 -42c0 -28 -17 -46 -44 -46s-43 16 -43 43s17 45 45 45z" />
    <glyph glyph-name="Ygrave" unicode="&#x1ef2;" horiz-adv-x="502" 
d="M416 727l-9 -4c-64 27 -126 54 -193 86l-3 8l19 44l9 2c68 -40 129 -71 191 -102zM277 233l-7 -46l-21 -187h-75l29 187l5 47l-142 406h79l7 -35l98 -291h7l182 289l19 37h82z" />
    <glyph glyph-name="ygrave" unicode="&#x1ef3;" horiz-adv-x="407" 
d="M294 520l-8 -1c-57 40 -111 81 -169 127l-1 9l28 39l8 1c57 -55 109 -100 163 -145zM306 447l69 16c16 -26 23 -53 23 -80c0 -45 -18 -93 -49 -148l-115 -203c-95 -166 -168 -227 -255 -227c-25 0 -52 5 -78 16l-4 64l8 6c27 -10 52 -15 73 -15c56 0 113 35 168 117
l-90 463l73 7l12 -80l47 -294h13l90 171c23 43 36 78 36 110c0 24 -8 45 -24 67z" />
    <glyph glyph-name="Ydotbelow" unicode="&#x1ef4;" horiz-adv-x="502" 
d="M277 233l-7 -46l-21 -187h-75l29 187l5 47l-142 406h79l7 -35l98 -291h7l182 289l19 37h82zM205 -73c26 0 42 -16 42 -42c0 -28 -17 -46 -44 -46s-43 16 -43 43s17 45 45 45z" />
    <glyph glyph-name="ydotbelow" unicode="&#x1ef5;" horiz-adv-x="417" 
d="M305 447l69 16c16 -26 23 -53 23 -80c0 -45 -18 -93 -49 -148l-115 -203c-95 -166 -168 -227 -255 -227c-25 0 -52 5 -79 16l-3 64l8 6c27 -10 52 -15 73 -15c56 0 113 36 169 118l-90 462l73 7l11 -80l47 -294h13l90 171c23 43 36 78 36 110c0 24 -8 45 -24 67zM255 -71
c25 0 41 -16 41 -41c0 -27 -17 -45 -44 -45c-26 0 -41 16 -41 42c0 27 17 44 44 44z" />
    <glyph glyph-name="Yhookabove" unicode="&#x1ef6;" horiz-adv-x="502" 
d="M299 850c-17 0 -38 -8 -57 -24l-16 25c26 26 56 41 84 41c36 0 62 -24 62 -55c0 -24 -16 -45 -51 -74l19 -34l-33 -18l-31 53c32 24 50 48 50 65c0 14 -11 21 -27 21zM277 233l-7 -46l-21 -187h-75l29 187l5 47l-142 406h79l7 -35l98 -291h7l182 289l19 37h82z" />
    <glyph glyph-name="yhookabove" unicode="&#x1ef7;" horiz-adv-x="407" 
d="M203 668c-17 0 -38 -8 -57 -24l-16 25c26 26 56 41 84 41c36 0 62 -24 62 -55c0 -24 -16 -45 -51 -74l19 -34l-33 -18l-31 53c32 24 50 48 50 65c0 14 -11 21 -27 21zM306 447l69 16c16 -26 23 -53 23 -80c0 -45 -18 -93 -49 -148l-115 -203
c-95 -166 -168 -227 -255 -227c-25 0 -52 5 -78 16l-4 64l8 6c27 -10 52 -15 73 -15c56 0 113 35 168 117l-90 463l73 7l12 -80l47 -294h13l90 171c23 43 36 78 36 110c0 24 -8 45 -24 67z" />
    <glyph glyph-name="endash" unicode="&#x2013;" horiz-adv-x="479" 
d="M500 276l-9 -47h-500l-5 6l10 47h500z" />
    <glyph glyph-name="emdash" unicode="&#x2014;" horiz-adv-x="932" 
d="M955 276l-10 -47h-955l-5 6l10 47h955z" />
    <glyph glyph-name="quoteleft" unicode="&#x2018;" horiz-adv-x="163" 
d="M117 438c-37 14 -54 38 -54 73c0 40 23 84 72 132l29 -21l1 -6c-30 -31 -43 -59 -43 -84s11 -43 39 -54v-7c-12 -12 -28 -23 -44 -33z" />
    <glyph glyph-name="quoteright" unicode="&#x2019;" horiz-adv-x="164" 
d="M112 642c36 -14 53 -38 53 -74c0 -40 -23 -83 -72 -131l-29 20v6c29 32 42 60 42 84c0 25 -11 43 -39 54v8c12 11 28 22 45 33z" />
    <glyph glyph-name="quotesinglbase" unicode="&#x201a;" horiz-adv-x="229" 
d="M94 84c27 -17 41 -39 41 -66c0 -42 -30 -86 -92 -131l-25 24v6c36 29 55 59 55 88c0 18 -11 33 -31 46v8c15 10 33 19 52 25z" />
    <glyph glyph-name="quotedblleft" unicode="&#x201c;" horiz-adv-x="282" 
d="M110 437c-36 14 -53 38 -53 74c0 40 23 83 72 131l29 -20v-6c-29 -32 -42 -60 -42 -84c0 -25 11 -43 39 -54v-8c-12 -11 -28 -22 -45 -33zM238 437c-36 14 -53 38 -53 74c0 40 23 83 72 131l29 -20v-6c-29 -32 -42 -60 -42 -84c0 -25 11 -43 39 -54v-8
c-12 -11 -28 -22 -45 -33z" />
    <glyph glyph-name="quotedblright" unicode="&#x201d;" horiz-adv-x="289" 
d="M108 642c37 -14 54 -38 54 -74c0 -40 -23 -83 -72 -131l-29 20l-1 6c30 32 43 60 43 84c0 25 -11 43 -39 54v8c12 11 28 22 44 33zM234 642c37 -14 54 -38 54 -74c0 -40 -23 -83 -72 -131l-29 20v6c29 32 42 60 42 84c0 25 -11 43 -39 54v8c12 11 28 22 44 33z" />
    <glyph glyph-name="quotedblbase" unicode="&#x201e;" horiz-adv-x="358" 
d="M94 84c27 -17 41 -39 41 -66c0 -42 -30 -86 -92 -131l-25 24v6c36 29 55 59 55 88c0 18 -11 33 -31 46v8c15 10 33 19 52 25zM222 84c26 -17 41 -39 41 -66c0 -42 -30 -86 -92 -131l-26 24v6c36 29 55 59 55 88c0 18 -11 33 -31 46v8c16 10 33 19 53 25z" />
    <glyph glyph-name="dagger" unicode="&#x2020;" horiz-adv-x="481" 
d="M449 350h-168l-8 -63l-46 -378l-49 -3l-4 7l46 370l8 67h-165l-5 6l11 46h166l22 183l50 5l4 -5l-23 -183h166l6 -5z" />
    <glyph glyph-name="daggerdbl" unicode="&#x2021;" horiz-adv-x="480" 
d="M273 287l-19 -149h167l6 -6l-10 -47h-169l-22 -176l-48 -3l-4 7l21 172h-165l-5 6l11 47h165l18 145l9 72h-165l-5 6l11 46h165l22 178l51 5l3 -5l-22 -178h166l6 -5l-10 -47h-169z" />
    <glyph glyph-name="bullet" unicode="&#x2022;" horiz-adv-x="254" 
d="M130 287c29 0 47 -18 47 -48c0 -31 -20 -51 -50 -51s-47 18 -47 48c0 31 19 51 50 51z" />
    <glyph glyph-name="onedotenleader" unicode="&#x2024;" horiz-adv-x="230" 
d="M93 84c26 0 42 -16 42 -42c0 -28 -17 -47 -44 -47s-43 17 -43 44s17 45 45 45z" />
    <glyph glyph-name="twodotenleader" unicode="&#x2025;" horiz-adv-x="405" 
d="M89 84c26 0 42 -16 42 -42c0 -28 -17 -47 -44 -47s-43 17 -43 44s17 45 45 45zM264 84c26 0 41 -16 41 -42c0 -28 -17 -47 -44 -47s-43 17 -43 44s18 45 46 45z" />
    <glyph glyph-name="ellipsis" unicode="&#x2026;" horiz-adv-x="579" 
d="M67 84c26 0 41 -16 41 -42c0 -28 -17 -47 -44 -47s-43 17 -43 44s18 45 46 45zM241 84c26 0 42 -16 42 -42c0 -28 -18 -47 -45 -47s-42 17 -42 44s17 45 45 45zM414 84c27 0 42 -16 42 -42c0 -28 -17 -47 -44 -47s-43 17 -43 44s17 45 45 45z" />
    <glyph glyph-name="perthousand" unicode="&#x2030;" horiz-adv-x="1202" 
d="M697 658l4 -13l-564 -736l-30 19l-4 12l564 737zM243 644c80 0 123 -49 123 -137c0 -134 -61 -215 -175 -215c-80 0 -123 50 -123 139c0 133 62 213 175 213zM232 592c-74 0 -112 -57 -112 -151c0 -65 27 -99 80 -99c76 0 114 57 114 151c0 64 -28 99 -82 99zM658 348
c80 0 124 -49 124 -138c0 -133 -62 -214 -175 -214c-80 0 -124 50 -124 138c0 133 63 214 175 214zM1032 348c80 0 123 -49 123 -138c0 -133 -61 -214 -174 -214c-80 0 -124 50 -124 138c0 133 63 214 175 214zM647 296c-74 0 -112 -57 -112 -152c0 -65 27 -98 80 -98
c76 0 114 57 114 151c0 64 -27 99 -82 99zM1021 296c-74 0 -112 -57 -112 -152c0 -65 27 -98 80 -98c76 0 114 57 114 151c0 64 -27 99 -82 99z" />
    <glyph glyph-name="minute" unicode="&#x2032;" horiz-adv-x="162" 
d="M169 632l-45 -180l-40 -6l-5 7l27 181l59 4z" />
    <glyph glyph-name="second" unicode="&#x2033;" horiz-adv-x="274" 
d="M169 632l-45 -180l-40 -6l-5 7l27 181l59 4zM281 632l-45 -180l-40 -6l-5 7l27 181l59 4z" />
    <glyph glyph-name="guilsinglleft" unicode="&#x2039;" horiz-adv-x="228" 
d="M30 220l2 16l167 169l34 -21v-9l-144 -149l107 -150l-2 -9l-39 -21z" />
    <glyph glyph-name="guilsinglright" unicode="&#x203a;" horiz-adv-x="232" 
d="M210 232l-2 -16l-167 -169l-33 20v10l144 149l-108 150l3 9l38 21z" />
    <glyph glyph-name="fraction" unicode="&#x2044;" horiz-adv-x="74" 
d="M321 658l4 -13l-564 -736l-30 19l-4 12l564 737z" />
    <glyph glyph-name="zerosuperior" unicode="&#x2070;" horiz-adv-x="377" 
d="M249 704c80 0 123 -54 123 -150c0 -146 -61 -235 -175 -235c-80 0 -123 55 -123 152c0 145 62 233 175 233zM238 647c-74 0 -112 -62 -112 -165c0 -71 27 -108 80 -108c76 0 114 62 114 165c0 70 -28 108 -82 108z" />
    <glyph glyph-name="foursuperior" unicode="&#x2074;" horiz-adv-x="349" 
d="M336 424l-60 2l-9 -98l-4 -5l-51 -3l-3 4l14 102h-119l-49 -2l-4 6l5 40l196 230h58l-29 -226h60l4 -6zM114 474h116l20 154h-5z" />
    <glyph glyph-name="fivesuperior" unicode="&#x2075;" horiz-adv-x="303" 
d="M323 699l-13 -48l-5 -4l-46 4h-99l-14 -91l42 -10c70 -15 103 -45 103 -92c0 -83 -76 -140 -182 -140c-18 0 -44 3 -65 7l2 45l5 4c23 -5 45 -7 66 -7c67 0 111 31 111 81c0 29 -23 47 -74 58l-58 11l-4 6l23 170l10 8l36 -1h99l60 2z" />
    <glyph glyph-name="sixsuperior" unicode="&#x2076;" horiz-adv-x="336" 
d="M225 550c71 0 106 -45 101 -108c-6 -72 -55 -124 -145 -124c-81 0 -125 52 -116 142c9 108 89 195 219 245h4l36 -27l-1 -6c-99 -35 -157 -79 -183 -142l4 -6c24 16 52 26 81 26zM268 436c5 45 -19 69 -63 69c-28 0 -54 -9 -80 -26l-2 -18c-5 -66 13 -102 64 -102
c47 0 76 27 81 77z" />
    <glyph glyph-name="sevensuperior" unicode="&#x2077;" horiz-adv-x="300" 
d="M152 700h148l30 1l-5 -46l-153 -256l-43 -83l-50 14l-3 10l185 309h-127l-55 -4l-3 7l12 49z" />
    <glyph glyph-name="eightsuperior" unicode="&#x2078;" horiz-adv-x="340" 
d="M231 704c61 0 100 -32 100 -82c0 -52 -35 -78 -81 -98l-1 -4c37 -17 71 -37 71 -83c0 -72 -59 -119 -145 -119c-72 0 -114 37 -114 90c0 55 43 84 95 103v2c-31 16 -58 39 -58 79c0 69 54 112 133 112zM225 661c-44 0 -72 -24 -72 -62c0 -33 28 -47 58 -61
c36 15 68 34 68 76c0 29 -21 47 -54 47zM195 493c-40 -12 -79 -32 -79 -79c0 -32 23 -53 66 -53c53 0 85 29 85 67c0 37 -36 51 -72 65z" />
    <glyph glyph-name="ninesuperior" unicode="&#x2079;" horiz-adv-x="336" 
d="M224 705c82 0 126 -51 117 -141c-9 -108 -89 -197 -219 -246h-4l-36 27l1 7c99 35 157 78 183 142l-5 5c-23 -15 -51 -26 -81 -26c-70 0 -105 46 -100 109c7 71 55 123 144 123zM201 517c27 0 53 10 79 27l2 19c7 66 -12 102 -62 102c-48 0 -77 -27 -82 -78
c-4 -45 19 -70 63 -70z" />
    <glyph glyph-name="franc" unicode="&#x20a3;" horiz-adv-x="397" 
d="M181 448l-24 -176h94l91 1l3 -7l-10 -44l-95 1h-89l-9 -68l-2 -16h117l3 -4l-6 -34h-118l-10 -101h-62l13 101h-65l-3 4l6 34h68l1 11l40 347h289l4 -7l-11 -44l-125 2h-100z" />
    <glyph glyph-name="Euro" unicode="&#x20ac;" horiz-adv-x="493" 
d="M353 501c48 0 96 -14 132 -37l-18 -50l-7 -2c-31 24 -73 37 -115 37c-84 0 -143 -44 -170 -129h188l4 -4l-9 -40h-195c-5 -23 -7 -47 -7 -70h193l3 -5l-8 -40h-186c11 -74 56 -114 133 -114c43 0 94 15 134 41l8 -5l-11 -49c-45 -26 -95 -40 -140 -40
c-117 0 -181 59 -190 167h-76l-3 5l8 40h71c2 23 4 47 8 70h-71l-3 5l8 39h76c37 117 120 181 243 181z" />
    <glyph glyph-name="literSign" unicode="&#x2113;" horiz-adv-x="224" 
d="M127 109l-4 -106l-76 -7l85 604l3 97l76 7z" />
    <glyph glyph-name="trademark" unicode="&#x2122;" horiz-adv-x="582" 
d="M259 640l2 -4l-7 -31l-45 2h-23l-17 -128l-7 -74h-41l10 70l16 132h-23l-47 -2l-2 4l6 31h178zM553 640l-6 -235h-37l4 71l1 99h-4l-81 -145h-34l-43 145h-2l-24 -94l-15 -76h-37l55 235h51l7 -35l32 -119h3l66 119l16 35h48z" />
    <glyph glyph-name="Ohm" unicode="&#x2126;" horiz-adv-x="709" 
d="M404 647c164 0 241 -110 241 -244c0 -122 -61 -252 -173 -341l1 -3h98l77 6l3 -5l-16 -64l-94 4h-124l-38 -2l-3 4l7 60c115 80 184 211 184 336c0 106 -51 187 -168 187c-145 0 -220 -119 -220 -263c0 -97 37 -200 107 -260l-7 -60l-5 -4l-37 2h-138l-83 -3l-5 7l18 61
l80 -6h87l1 3c-64 64 -96 162 -96 256c0 177 107 329 303 329z" />
    <glyph glyph-name="estimated" unicode="&#x212e;" horiz-adv-x="795" 
d="M420 651c203 0 367 -148 367 -332v-8h-596c-3 0 -6 -1 -6 -4v-181c0 -8 5 -15 10 -21c56 -60 137 -97 226 -97c96 0 182 42 240 109h50c-67 -78 -174 -129 -291 -129c-203 0 -369 148 -369 331c0 184 166 332 369 332zM421 631c-89 0 -168 -37 -225 -96
c-6 -6 -11 -14 -11 -23v-177c0 -3 3 -5 6 -5h458c3 0 5 2 5 5v181c0 9 -4 16 -10 22c-57 57 -136 93 -223 93z" />
    <glyph glyph-name="arrowleft" unicode="&#x2190;" horiz-adv-x="515" 
d="M486 204l-379 4l151 -156v-12l-42 -12l-193 197v12l193 197l42 -12v-12l-150 -155l376 4l5 -6z" />
    <glyph glyph-name="arrowup" unicode="&#x2191;" horiz-adv-x="515" 
d="M460 273l-13 -41h-11l-155 149l3 -375l-5 -6l-49 4l3 378l-156 -150h-12l-12 41l197 194h12z" />
    <glyph glyph-name="arrowright" unicode="&#x2192;" horiz-adv-x="515" 
d="M490 239v-11l-193 -198l-42 12v12l150 155l-376 -4l-5 6l3 49l379 -4l-151 156v12l42 12z" />
    <glyph glyph-name="arrowdown" unicode="&#x2193;" horiz-adv-x="515" 
d="M461 190l-197 -193h-12l-198 193l12 42h12l155 -150l-3 376l5 5l49 -3l-3 -379l156 151h11z" />
    <glyph glyph-name="arrowupleft" unicode="&#x2196;" horiz-adv-x="515" 
d="M451 91v-7l-37 -32l-266 270l-3 -217l-8 -8l-38 20l2 276l8 9l277 3l21 -38l-9 -9l-215 -3z" />
    <glyph glyph-name="arrowupright" unicode="&#x2197;" horiz-adv-x="515" 
d="M415 120l-38 -21l-8 9l-3 215l-264 -268h-8l-32 37l269 266l-215 3l-9 8l21 39l276 -3l8 -8z" />
    <glyph glyph-name="arrowdownright" unicode="&#x2198;" horiz-adv-x="515" 
d="M414 343l-2 -276l-8 -8l-277 -3l-21 38l9 8l215 3l-268 264v8l37 32l266 -270l3 217l8 8z" />
    <glyph glyph-name="arrowdownleft" unicode="&#x2199;" horiz-adv-x="515" 
d="M398 105l9 -9l-21 -38l-276 3l-8 8l-3 277l38 21l8 -9l3 -215l264 268h8l32 -37l-269 -266z" />
    <glyph glyph-name="partialdiff" unicode="&#x2202;" horiz-adv-x="510" 
d="M174 716h7c209 -90 316 -244 290 -457c-20 -168 -113 -267 -255 -267c-137 0 -197 86 -181 215c16 128 99 215 228 215c45 -2 91 -22 128 -50l9 6c-21 137 -116 233 -280 292l1 9zM225 48c98 0 159 72 175 207c2 15 3 29 4 43c-43 41 -90 64 -138 64
c-93 0 -149 -53 -162 -156c-12 -102 30 -158 121 -158z" />
    <glyph glyph-name="increment" unicode="&#x2206;" horiz-adv-x="549" 
d="M501 0h-514l304 640h86zM318 562l-233 -498h331l-91 498h-7z" />
    <glyph glyph-name="product" unicode="&#x220f;" horiz-adv-x="663" 
d="M646 578h-50l-51 -379l-21 -199h-76l29 193l44 386h-297l-51 -380l-21 -199h-75l28 193l45 385h-49l-5 7l14 55h545l5 -7z" />
    <glyph glyph-name="summation" unicode="&#x2211;" horiz-adv-x="485" 
d="M517 634l-13 -60l-92 4h-243l168 -248l-1 -13l-233 -256h232l104 5l6 -7l-13 -60l-350 1l-77 -1l6 54l243 271l-174 259l7 57h327l98 1z" />
    <glyph glyph-name="minus" unicode="&#x2212;" horiz-adv-x="478" 
d="M452 286l-5 -47h-407l-5 6l4 47h407z" />
    <glyph glyph-name="divisionslash" unicode="&#x2215;" horiz-adv-x="288" 
d="M314 669l-260 -782h-52l-5 8l260 783h51z" />
    <glyph glyph-name="bulletoperator" unicode="&#x2219;" horiz-adv-x="254" 
d="M155 287c29 0 47 -18 47 -48c0 -31 -20 -51 -50 -51s-47 18 -47 48c0 31 19 51 50 51z" />
    <glyph glyph-name="radical" unicode="&#x221a;" horiz-adv-x="512" 
d="M247 0h-79l-77 404h-90l-3 4l9 50h135l5 -5l69 -382h6l309 633l8 6h55z" />
    <glyph glyph-name="infinity" unicode="&#x221e;" horiz-adv-x="481" 
d="M385 402c68 0 106 -49 106 -119c0 -98 -60 -155 -138 -155c-60 0 -89 38 -112 92c-32 -53 -73 -92 -135 -92c-69 0 -108 47 -108 117c0 96 56 157 139 157c62 0 92 -40 111 -86c25 39 68 86 137 86zM135 353c-56 0 -91 -40 -91 -100c0 -46 25 -74 67 -74
c53 0 84 45 112 93c-15 44 -36 81 -88 81zM377 351c-56 0 -86 -46 -110 -90c17 -46 38 -85 89 -85s88 38 88 100c0 45 -22 75 -67 75z" />
    <glyph glyph-name="integral" unicode="&#x222b;" horiz-adv-x="270" 
d="M309 713c24 0 49 -3 71 -9l-11 -52l-6 -4c-24 10 -48 13 -63 13c-60 0 -88 -35 -96 -92l-63 -516c-11 -92 -39 -137 -124 -198l-29 30v9c59 50 81 84 89 156l61 510c10 98 74 153 171 153z" />
    <glyph glyph-name="approxequal" unicode="&#x2248;" horiz-adv-x="481" 
d="M180 344c-18 0 -39 -22 -73 -51h-9l-17 26l1 8l80 72l10 4c48 -7 162 -49 194 -49c16 0 38 21 73 51h8l17 -26l-1 -8l-80 -72l-10 -3c-48 5 -162 48 -193 48zM160 179c-17 0 -39 -22 -72 -51h-10l-17 26l1 8l80 72l10 4c49 -7 162 -49 194 -49c16 0 38 21 73 51h8l18 -26
l-1 -8l-80 -72l-11 -3c-48 5 -161 48 -193 48z" />
    <glyph glyph-name="notequal" unicode="&#x2260;" horiz-adv-x="477" 
d="M287 321l-40 -112h188l6 -6l-5 -47h-208l-54 -149h-49l-4 6l51 143h-143l-5 6l4 47h164l40 112h-182l-5 6l4 47h202l51 142h48l5 -6l-49 -136h150l6 -6l-5 -47h-170z" />
    <glyph glyph-name="lessequal" unicode="&#x2264;" horiz-adv-x="496" 
d="M465 419l-5 -7l-360 -143v-5l327 -134l-17 -43l-9 -6l-363 153l7 62l7 8l401 159zM414 -42l-4 -47h-407l-6 5l5 47h406z" />
    <glyph glyph-name="greaterequal" unicode="&#x2265;" horiz-adv-x="501" 
d="M474 304l5 -8l-7 -62l-402 -153l-8 6l-6 43l361 134v5l-325 143l-3 7l23 44zM414 -42l-4 -47h-407l-6 5l5 47h406z" />
    <glyph glyph-name="lozenge" unicode="&#x25ca;" horiz-adv-x="497" 
d="M326 640l118 -346l-4 -25l-201 -348l-56 -2l-6 4l-117 345l3 24l201 349l57 2zM284 580l-172 -301l102 -297h5l171 299l-101 299h-5z" />
    <glyph glyph-name="dieresisacute" unicode="&#xf6d7;" 
d="M347 784l13 -46l-5 -9c-71 -19 -137 -35 -205 -50l-9 5l-7 36c67 20 132 40 206 68zM160 626c24 0 39 -15 39 -39c0 -25 -16 -41 -41 -41c-24 0 -39 14 -39 39s16 41 41 41zM316 626c24 0 39 -15 39 -39c0 -25 -16 -41 -41 -41c-24 0 -39 14 -39 39s16 41 41 41z" />
    <glyph glyph-name="dieresisgrave" unicode="&#xf6d8;" 
d="M165 784l9 4c69 -28 133 -48 197 -68l-11 -36l-10 -5c-65 15 -130 31 -198 50l-4 9zM164 626c21 0 34 -13 34 -34c0 -27 -18 -46 -46 -46c-22 0 -34 13 -34 34c0 27 18 46 46 46zM320 626c21 0 34 -13 34 -34c0 -27 -18 -46 -46 -46c-22 0 -34 13 -34 34
c0 27 18 46 46 46z" />
    <glyph glyph-name="Iacute_J.loclNLD" horiz-adv-x="555" 
d="M114 724l-14 34c62 31 123 63 191 103l8 -2l20 -44l-3 -9c-67 -32 -129 -58 -193 -86zM567 815l-3 -9c-67 -32 -129 -58 -193 -86l-9 4l-14 34c62 31 123 63 191 103l8 -2zM143 640h75l-59 -441l-21 -199h-75l28 193zM511 640l-58 -428l-9 -94
c-13 -100 -65 -159 -192 -219l-24 42l1 9c93 49 135 92 145 168l11 87l43 374l-119 -1l-7 7l12 55h197z" />
    <glyph glyph-name="Q.corta" horiz-adv-x="609" 
d="M364 3c51 -50 117 -92 204 -127l1 -9c-13 -22 -27 -39 -41 -52l-7 -3c-97 52 -171 109 -229 180h-17c-143 0 -228 97 -228 263c0 244 111 392 313 392c146 0 230 -93 230 -256c0 -207 -80 -348 -226 -388zM124 260c0 -136 53 -205 158 -205c153 0 229 117 229 327
c0 135 -53 202 -160 202c-154 0 -227 -116 -227 -324z" />
    <glyph glyph-name="C.ss01" horiz-adv-x="436" 
d="M561 464h-137l5 -3l-21 -63l-8 -3c-28 27 -66 44 -113 44c-108 0 -169 -79 -169 -227c0 -99 43 -153 122 -153c44 0 94 18 132 46l8 -3l-14 -64l-10 -5h153l-5 -33h-628l5 33h236c-47 33 -71 91 -71 170c0 125 45 216 123 261h-235l5 34h628z" />
    <glyph glyph-name="D.ss01" horiz-adv-x="535" 
d="M661 464h-240c49 -31 74 -87 74 -162c0 -128 -47 -223 -132 -269h245l-5 -33h-727l5 33h186l17 119l37 312h-187l5 34h727zM243 57c115 0 181 79 181 231c0 100 -45 148 -132 148c-17 0 -78 -2 -108 -4l-36 -274l-11 -96c31 -3 88 -5 106 -5z" />
    <glyph glyph-name="I.ss01" horiz-adv-x="244" 
d="M144 156l-14 -123h186l-4 -33h-436l5 33h181l16 117l37 314h-181l5 34h435l-4 -34h-185z" />
    <glyph glyph-name="L.ss01" horiz-adv-x="371" 
d="M144 168l-14 -108h152l14 86l50 3l-16 -116h113l-5 -33h-562l5 33h180l17 129l37 302h-181l5 34h563l-5 -34h-313z" />
    <glyph glyph-name="M.ss01" horiz-adv-x="647" 
d="M560 464l-12 -431h170l-4 -33h-838l5 33h165l100 431h-212l5 34h839l-5 -34h-213zM474 464h-240l10 -43l68 -251h6l135 254zM489 33l8 131l5 226h-6l-168 -307h-55l-86 307h-4l-52 -222l-27 -135h385z" />
    <glyph glyph-name="X.ss01" horiz-adv-x="492" 
d="M292 258l121 -225h152l-5 -33h-684l5 33h151l175 220l-116 211h-157l5 34h684l-5 -34h-163zM258 301l118 147l10 16h-216l6 -17zM240 209l-130 -160l-11 -16h237l-9 20z" />
    <glyph glyph-name="V.ss01" horiz-adv-x="472" 
d="M472 464l-211 -431h284l-5 -33h-664l5 33h279l-90 431h-136l5 34h664l-5 -34h-126zM408 464h-271l3 -24l74 -366h4l180 362z" />
    <glyph glyph-name="idotaccent" horiz-adv-x="218" 
d="M157 661c26 0 41 -16 41 -43c0 -28 -17 -46 -44 -46s-43 17 -43 44s18 45 46 45zM124 109l-4 -106l-76 -7l52 363l4 97l74 7z" />
    <glyph glyph-name="a.sups" horiz-adv-x="312" 
d="M315 644l-31 -234l-5 -72l-60 -4l17 137v-1h-7c-29 -55 -61 -103 -97 -137h-10c-46 18 -59 47 -59 100c0 98 51 192 154 212h4l50 -7l38 10zM140 389c10 0 57 58 106 161l3 23l2 21l-42 7c-57 -1 -90 -65 -90 -145c0 -49 13 -67 21 -67z" />
    <glyph glyph-name="germandbls.calt" horiz-adv-x="602" 
d="M359 646c76 0 145 -25 212 -62l2 -16l-181 -206c115 -41 174 -84 174 -176c0 -116 -95 -193 -209 -193c-50 0 -109 16 -154 45l19 77l10 4c40 -42 92 -64 137 -64c70 0 121 50 121 117c0 71 -57 110 -195 148l-1 17l184 211c-44 24 -86 35 -128 35
c-101 0 -165 -60 -178 -159l-30 -224l-21 -200h-75l28 190l27 235c15 132 115 221 258 221z" />
    <glyph glyph-name="f.f" horiz-adv-x="275" 
d="M436 400h-241l-27 -201l-31 -213l-4 -107l-76 -6l44 317l29 210h-69l-5 5l6 45h75l7 49c17 119 72 186 185 186l91 -14l3 -7l-20 -54l-11 -2c-25 14 -57 22 -80 22c-53 0 -91 -39 -101 -112l-9 -68h235l7 -8z" />
    <glyph glyph-name="b.sups" horiz-adv-x="312" 
d="M253 644h10c44 -18 60 -46 60 -99c0 -101 -54 -194 -155 -212h-4l-36 6l-59 10l51 389l5 67l62 5l-40 -304h6c29 54 64 104 100 138zM131 389l44 -12c58 0 91 67 91 145c0 49 -13 66 -20 66c-11 0 -59 -58 -109 -160z" />
    <glyph glyph-name="c.sups" horiz-adv-x="240" 
d="M274 631l3 -7l-16 -43l-14 -2c-15 14 -27 21 -40 21c-56 0 -86 -54 -86 -146c0 -52 13 -71 39 -71c20 0 42 13 66 55h8l20 -26c-29 -50 -58 -70 -99 -79h-9c-56 7 -82 34 -82 111c0 111 48 202 163 202z" />
    <glyph glyph-name="iacute_j.loclNLD" horiz-adv-x="450" 
d="M227 694l28 -39l-2 -9c-58 -46 -111 -87 -168 -127l-8 1l-21 30c54 45 106 90 162 145zM454 694l28 -39l-2 -9c-58 -46 -111 -87 -168 -127l-8 1l-21 30c54 45 106 90 162 145zM124 109l-4 -106l-76 -7l52 363l4 97l74 7zM404 458l-49 -350l-9 -90
c-14 -105 -52 -159 -146 -212l-25 34l1 9c64 43 92 83 102 165l48 344l3 42h-76l-5 5l7 45h71l74 10z" />
    <glyph glyph-name="d.sups" horiz-adv-x="311" 
d="M336 810l-52 -400l-5 -72l-62 -4l18 136h-5c-29 -55 -63 -103 -99 -137h-10c-46 17 -60 46 -60 98c0 99 52 195 157 213h4l36 -4l13 98l3 67zM138 389c10 0 57 56 107 158l7 46l-42 7c-60 0 -93 -66 -93 -147c0 -47 13 -64 21 -64z" />
    <glyph glyph-name="f.l" horiz-adv-x="279" 
d="M457 691l-16 -55l-11 -2c-37 13 -72 21 -109 21c-57 0 -96 -39 -107 -112l-13 -93h108l6 -8l-7 -42h-114l-27 -201l-30 -213l-5 -107l-75 -6l44 317l29 210h-69l-5 5l6 45h75l10 75c18 118 75 186 191 186l116 -15z" />
    <glyph glyph-name="three.dnom" horiz-adv-x="307" 
d="M149 381c58 0 106 -32 106 -80c0 -36 -25 -75 -76 -96l-1 -3c46 -12 69 -40 69 -82c0 -73 -71 -124 -172 -124c-20 0 -47 2 -67 7l2 46l5 3c23 -4 46 -8 67 -8c62 0 104 29 104 73c0 35 -25 53 -72 55h-41l-4 4l7 43h30c37 0 84 31 84 71c0 26 -20 41 -51 41
c-27 0 -53 -10 -85 -32h-7l-5 43c38 26 69 39 107 39z" />
    <glyph glyph-name="e.sups" horiz-adv-x="264" 
d="M248 433l20 -25c-29 -44 -65 -68 -106 -75h-8c-66 6 -90 45 -90 113c1 116 62 197 152 201h7c38 -6 62 -27 62 -63c0 -52 -50 -93 -164 -130c1 -54 15 -77 44 -77c28 0 53 20 74 57zM203 607c-42 0 -73 -45 -80 -117c70 25 108 55 108 90c0 15 -9 27 -28 27z" />
    <glyph glyph-name="zero.lf" horiz-adv-x="537" 
d="M313 590c113 0 179 -84 179 -233c0 -222 -91 -364 -248 -364c-121 0 -184 85 -184 234c0 224 89 363 253 363zM302 521c-119 0 -182 -107 -182 -281c0 -116 43 -180 127 -180c119 0 184 107 184 282c0 116 -44 179 -129 179z" />
    <glyph glyph-name="one.lf" horiz-adv-x="354" 
d="M273 585l-51 -378l-21 -207h-76l29 198l37 309l-143 -37l-7 4l7 59l215 61z" />
    <glyph glyph-name="f.sups" horiz-adv-x="199" 
d="M309 796l-12 -41l-9 -4c-18 10 -33 15 -48 15c-28 0 -46 -24 -51 -70l-8 -58h66l4 -6l-5 -30h-70l-18 -134l-19 -151l-5 -71l-62 -5l29 221l16 140h-41l-4 4l6 32h43l5 44c11 81 54 127 123 127l58 -8z" />
    <glyph glyph-name="four.dnom" horiz-adv-x="349" 
d="M296 101l-60 2l-9 -98l-4 -5l-51 -3l-3 4l14 102h-119l-49 -2l-4 6l5 40l196 230h58l-29 -226h60l4 -6zM74 151h116l20 154h-5z" />
    <glyph glyph-name="five.dnom" horiz-adv-x="303" 
d="M284 376l-13 -48l-5 -4l-46 4h-99l-14 -91l42 -10c70 -15 103 -45 103 -92c0 -83 -76 -140 -182 -140c-18 0 -44 3 -65 7l2 45l5 4c23 -5 45 -7 66 -7c67 0 111 31 111 81c0 29 -23 47 -74 58l-58 11l-4 6l23 170l10 8l36 -1h99l60 2z" />
    <glyph glyph-name="g.sups" horiz-adv-x="312" 
d="M308 644l-30 -220l-5 -59c-13 -107 -76 -159 -158 -159c-63 0 -99 37 -109 93l3 7l94 55v4c-22 18 -30 45 -30 82c0 93 48 180 144 198h3l47 -6l34 9zM247 597l-37 5c-55 0 -87 -60 -87 -137c0 -45 12 -60 20 -60c10 0 53 53 100 151l3 22zM233 482h-6
c-26 -51 -60 -96 -93 -130l-61 -44c-5 -5 -6 -7 -6 -10c0 -4 2 -12 7 -20c8 -19 27 -28 52 -28c46 0 81 32 90 98z" />
    <glyph glyph-name="two.lf" horiz-adv-x="489" 
d="M278 592c84 0 145 -54 145 -130c0 -66 -45 -121 -155 -242l-139 -156l1 -4h215l93 6l4 -7l-17 -63l-108 4h-248l-42 -2l-4 4l6 48l175 190c89 97 144 161 144 217c0 38 -26 70 -81 70s-111 -31 -161 -85h-9l-6 60c57 55 120 90 187 90z" />
    <glyph glyph-name="h.sups" horiz-adv-x="332" 
d="M258 646h8c35 -7 57 -32 56 -63l-1 -9l-27 -166l-5 -70l-62 -4l33 212l1 9c0 18 -8 28 -16 28c-18 0 -58 -50 -110 -147l-3 -26l-5 -72l-61 -4l54 404l3 67l62 5l-40 -305h7c36 64 70 112 106 141z" />
    <glyph glyph-name="six.dnom" horiz-adv-x="336" 
d="M185 227c71 0 106 -45 101 -108c-6 -72 -55 -124 -145 -124c-81 0 -125 52 -116 142c9 108 89 195 219 245h4l36 -27l-1 -6c-99 -35 -157 -79 -183 -142l4 -6c24 16 52 26 81 26zM228 113c5 45 -19 69 -63 69c-28 0 -54 -9 -80 -26l-2 -18c-5 -66 13 -102 64 -102
c47 0 76 27 81 77z" />
    <glyph glyph-name="three.lf" horiz-adv-x="428" 
d="M231 594c91 0 146 -47 146 -117c0 -56 -40 -120 -121 -158v-4c68 -17 108 -57 108 -125c0 -111 -106 -195 -246 -195c-31 0 -72 4 -101 10l3 67l8 6c30 -15 65 -23 97 -23c97 0 166 50 166 130c0 56 -41 90 -120 93h-58l-4 6l9 52l44 1c57 0 137 52 137 125
c0 43 -31 70 -80 70c-43 0 -85 -21 -133 -60h-8l-4 60c55 42 102 62 157 62z" />
    <glyph glyph-name="four.lf" horiz-adv-x="491" 
d="M449 222l-11 -53l-91 2h-4l-18 -165l-6 -7l-57 -5l-4 6l23 171h-189l-64 -2l-5 7l6 51l294 359h71l-45 -357h95zM97 229h192l34 265h-6z" />
    <glyph glyph-name="i.sups" horiz-adv-x="156" 
d="M147 788c20 0 31 -11 31 -29c0 -24 -15 -41 -39 -41c-19 0 -31 10 -31 28c0 25 16 42 39 42zM128 410l-5 -72l-61 -4l31 239l5 67l60 4z" />
    <glyph glyph-name="seven.dnom" horiz-adv-x="300" 
d="M112 377h148l30 1l-5 -46l-153 -256l-43 -83l-50 14l-3 10l185 309h-127l-55 -4l-3 7l12 49z" />
    <glyph glyph-name="j.sups" horiz-adv-x="171" 
d="M145 788c21 0 34 -12 34 -33c0 -24 -15 -37 -37 -37s-35 11 -35 33c0 25 16 37 38 37zM166 641l-31 -236l-7 -51c-9 -72 -37 -111 -98 -146l-20 27l1 6c37 27 53 54 60 105l30 227l1 29h-42l-4 4l5 32h47l56 5z" />
    <glyph glyph-name="five.lf" horiz-adv-x="422" 
d="M412 584l-14 -60l-6 -5l-71 5h-151l-21 -160l62 -13c103 -22 155 -71 155 -151c0 -117 -111 -210 -256 -210c-29 0 -65 4 -95 10l2 66l7 7c37 -16 70 -23 103 -23c101 0 168 59 168 141c0 54 -37 87 -111 102l-93 18l-6 7l32 258l14 12l53 -2h135l89 4z" />
    <glyph glyph-name="eight.dnom" horiz-adv-x="340" 
d="M192 381c61 0 100 -32 100 -82c0 -52 -35 -78 -81 -98l-1 -4c37 -17 71 -37 71 -83c0 -72 -59 -119 -145 -119c-72 0 -114 37 -114 90c0 55 43 84 95 103v2c-31 16 -58 39 -58 79c0 69 54 112 133 112zM186 338c-44 0 -72 -24 -72 -62c0 -33 28 -47 58 -61
c36 15 68 34 68 76c0 29 -21 47 -54 47zM156 170c-40 -12 -79 -32 -79 -79c0 -32 23 -53 66 -53c53 0 85 29 85 67c0 37 -36 51 -72 65z" />
    <glyph glyph-name="six.lf" horiz-adv-x="468" 
d="M449 559l-1 -8c-193 -62 -279 -152 -315 -242l5 -6c42 28 81 45 129 45c91 0 153 -66 153 -153c0 -74 -42 -203 -201 -203c-117 0 -177 74 -177 187c0 138 84 319 346 415h5zM253 292c-46 0 -96 -20 -139 -60c-2 -16 -3 -32 -3 -47c0 -77 24 -137 112 -137
c101 0 129 77 129 139c0 67 -35 105 -99 105z" />
    <glyph glyph-name="k.sups" horiz-adv-x="323" 
d="M330 581c0 -46 -34 -88 -89 -124c22 -39 45 -78 70 -114l-4 -5l-50 -8l-6 2c-23 40 -45 81 -65 121l3 11c49 30 80 64 80 95c0 18 -10 26 -18 26c-24 0 -61 -49 -113 -149l-4 -26l-6 -72l-60 -4l54 404l3 67l62 5l-40 -304h7c37 66 71 114 108 138h9c34 -6 59 -25 59 -63
z" />
    <glyph glyph-name="nine.dnom" horiz-adv-x="336" 
d="M185 382c82 0 126 -51 117 -141c-9 -108 -89 -197 -219 -246h-4l-36 27l1 7c99 35 157 78 183 142l-5 5c-23 -15 -51 -26 -81 -26c-70 0 -105 46 -100 109c7 71 55 123 144 123zM162 194c27 0 53 10 79 27l2 19c7 66 -12 102 -62 102c-48 0 -77 -27 -82 -78
c-4 -45 19 -70 63 -70z" />
    <glyph glyph-name="zero.numr" horiz-adv-x="377" 
d="M241 644c80 0 123 -54 123 -150c0 -146 -61 -235 -175 -235c-80 0 -123 55 -123 152c0 145 62 233 175 233zM230 587c-74 0 -112 -62 -112 -165c0 -71 27 -108 80 -108c76 0 114 62 114 165c0 70 -28 108 -82 108z" />
    <glyph glyph-name="l.sups" horiz-adv-x="157" 
d="M127 410l-5 -72l-61 -4l54 404l3 67l61 5z" />
    <glyph glyph-name="seven.lf" horiz-adv-x="418" 
d="M160 586h229l42 2l-5 -56l-250 -430l-58 -116l-60 19l-3 13l297 505h-213l-75 -7l-4 9l13 64z" />
    <glyph glyph-name="one.numr" horiz-adv-x="257" 
d="M217 639l-31 -242l-15 -133h-63l17 126l22 185l-89 -22l-4 4l6 49l150 40z" />
    <glyph glyph-name="eight.lf" horiz-adv-x="474" 
d="M275 592c91 0 151 -48 151 -132c0 -82 -60 -125 -117 -151l-1 -5c55 -27 105 -59 105 -140c0 -99 -79 -171 -199 -171c-107 0 -174 58 -174 145c0 86 66 127 138 159l1 4c-47 26 -83 57 -83 127c0 97 73 164 179 164zM274 538c-69 0 -117 -42 -117 -103
c0 -60 42 -84 94 -106c58 23 114 56 114 125c0 54 -32 84 -91 84zM233 274c-63 -23 -129 -51 -129 -128c0 -61 40 -100 112 -100c79 0 134 49 134 114c0 63 -50 87 -117 114z" />
    <glyph glyph-name="m.sups" horiz-adv-x="510" 
d="M432 646h8c36 -7 59 -32 58 -63l-1 -9l-28 -166l-4 -70l-64 -4l34 212l2 9c0 18 -9 28 -16 28c-20 0 -64 -53 -118 -157l-3 -18l-6 -70l-63 -4l34 212l1 9c0 18 -8 28 -17 28c-16 0 -57 -50 -111 -148l-3 -25l-5 -72l-61 -4l31 239l4 67l61 4l-18 -139h7
c39 64 71 112 108 141h8c36 -7 60 -32 59 -63l-1 -9l-12 -69h8c38 64 73 112 108 141z" />
    <glyph glyph-name="nine.lf" horiz-adv-x="468" 
d="M274 594c117 0 177 -74 177 -187c0 -138 -84 -319 -346 -415h-5l-56 35l1 8c193 62 279 152 315 242l-5 6c-42 -28 -81 -45 -129 -45c-91 0 -153 66 -153 153c0 74 42 203 201 203zM240 294c46 0 96 20 139 60c2 16 3 32 3 47c0 77 -24 137 -112 137
c-101 0 -129 -77 -129 -139c0 -67 35 -105 99 -105z" />
    <glyph glyph-name="two.numr" horiz-adv-x="348" 
d="M219 644c56 0 102 -31 102 -79c0 -44 -35 -86 -106 -161l-82 -88l1 -2h131l65 3l2 -6l-12 -50l-80 3h-166l-27 -1l-4 3l4 38l114 115c59 61 94 98 94 132c0 23 -17 42 -50 42c-34 0 -73 -20 -106 -52h-7l-5 48c44 36 86 55 132 55z" />
    <glyph glyph-name="n.sups" horiz-adv-x="332" 
d="M258 646h8c30 -7 57 -32 56 -63l-1 -9l-27 -166l-5 -70l-63 -4l34 212l1 9c0 18 -8 28 -16 28c-18 0 -58 -49 -108 -144l-4 -29l-5 -72l-61 -4l31 239l4 67l61 4l-18 -139h7c37 64 70 112 106 141z" />
    <glyph glyph-name="three.numr" horiz-adv-x="307" 
d="M181 645c58 0 106 -32 106 -80c0 -36 -25 -75 -76 -96l-1 -3c46 -12 69 -40 69 -82c0 -73 -71 -124 -172 -124c-20 0 -47 2 -67 7l2 46l5 3c23 -4 46 -8 67 -8c62 0 104 29 104 73c0 35 -25 53 -72 55h-41l-4 4l7 43h30c37 0 84 31 84 71c0 26 -20 41 -51 41
c-27 0 -53 -10 -85 -32h-7l-5 43c38 26 69 39 107 39z" />
    <glyph glyph-name="zero.sinf" horiz-adv-x="377" 
d="M194 260c80 0 123 -54 123 -150c0 -146 -61 -235 -175 -235c-80 0 -123 55 -123 152c0 145 62 233 175 233zM183 203c-74 0 -112 -62 -112 -165c0 -71 27 -108 80 -108c76 0 114 62 114 165c0 70 -28 108 -82 108z" />
    <glyph glyph-name="o.sups" horiz-adv-x="296" 
d="M213 647h7c49 -8 76 -39 76 -102c0 -125 -57 -208 -151 -213l-6 1c-50 5 -77 39 -77 105c0 120 57 205 151 209zM203 602c-55 0 -84 -66 -84 -164c0 -44 11 -62 37 -62c54 0 82 63 82 164c0 43 -10 62 -35 62z" />
    <glyph glyph-name="p.sups" horiz-adv-x="311" 
d="M247 644h9c43 -17 58 -46 58 -98c0 -101 -52 -195 -149 -213h-4l-37 7l-7 -56l-6 -72l-62 -4l49 365l3 67l62 4l-18 -138h7c27 54 61 104 95 138zM130 389l43 -12c53 0 86 67 86 146c0 49 -12 65 -20 65c-11 0 -55 -57 -104 -160z" />
    <glyph glyph-name="q.sups" horiz-adv-x="311" 
d="M306 644l-48 -360l-5 -72l-60 -4l34 262h-7c-26 -55 -59 -103 -93 -137h-10c-42 17 -57 46 -57 97c0 99 51 196 151 214h4l46 -6l39 10zM134 389c12 0 54 56 103 158l3 26l2 21l-38 6c-56 0 -88 -67 -88 -149c0 -46 12 -62 18 -62z" />
    <glyph glyph-name="four.numr" horiz-adv-x="349" 
d="M328 365l-60 2l-9 -98l-4 -5l-51 -3l-3 4l14 102h-119l-49 -2l-4 6l5 40l196 230h58l-29 -226h60l4 -6zM106 415h116l20 154h-5z" />
    <glyph glyph-name="one.sinf" horiz-adv-x="257" 
d="M183 255l-31 -242l-15 -133h-63l17 126l22 185l-89 -22l-4 4l6 49l150 40z" />
    <glyph glyph-name="two.sinf" horiz-adv-x="348" 
d="M149 260c56 0 102 -31 102 -79c0 -44 -35 -86 -106 -161l-82 -88l1 -2h131l65 3l2 -6l-12 -50l-80 3h-166l-27 -1l-4 3l4 38l114 115c59 61 94 98 94 132c0 23 -17 42 -50 42c-34 0 -73 -20 -106 -52h-7l-5 48c44 36 86 55 132 55z" />
    <glyph glyph-name="five.numr" horiz-adv-x="303" 
d="M316 640l-13 -48l-5 -4l-46 4h-99l-14 -91l42 -10c70 -15 103 -45 103 -92c0 -83 -76 -140 -182 -140c-18 0 -44 3 -65 7l2 45l5 4c23 -5 45 -7 66 -7c67 0 111 31 111 81c0 29 -23 47 -74 58l-58 11l-4 6l23 170l10 8l36 -1h99l60 2z" />
    <glyph glyph-name="r.sups" horiz-adv-x="229" 
d="M272 640l-9 -68l-7 -2l-13 2c-29 0 -64 -46 -106 -129l-4 -33l-5 -72l-63 -4l32 239l4 67l61 4l-17 -138h8c36 77 73 127 106 136z" />
    <glyph glyph-name="six.numr" horiz-adv-x="336" 
d="M218 491c71 0 106 -45 101 -108c-6 -72 -55 -124 -145 -124c-81 0 -125 52 -116 142c9 108 89 195 219 245h4l36 -27l-1 -6c-99 -35 -157 -79 -183 -142l4 -6c24 16 52 26 81 26zM261 377c5 45 -19 69 -63 69c-28 0 -54 -9 -80 -26l-2 -18c-5 -66 13 -102 64 -102
c47 0 76 27 81 77z" />
    <glyph glyph-name="three.sinf" horiz-adv-x="307" 
d="M121 261c58 0 106 -32 106 -80c0 -36 -25 -75 -76 -96l-1 -3c46 -12 69 -40 69 -82c0 -73 -71 -124 -172 -124c-20 0 -47 2 -67 7l2 46l5 3c23 -4 46 -8 67 -8c62 0 104 29 104 73c0 35 -25 53 -72 55h-41l-4 4l7 43h30c37 0 84 31 84 71c0 26 -20 41 -51 41
c-27 0 -53 -10 -85 -32h-7l-5 43c38 26 69 39 107 39z" />
    <glyph glyph-name="s.sups" horiz-adv-x="235" 
d="M188 645c23 -2 41 -7 60 -15l-13 -46l-9 -3c-19 17 -41 24 -55 24c-27 0 -44 -21 -44 -43c0 -47 102 -56 102 -136c0 -53 -48 -93 -115 -94c-28 3 -50 8 -71 18l14 49l6 6c20 -21 45 -34 67 -34c29 0 48 21 47 44c-2 49 -104 62 -104 134c0 58 52 97 115 96z" />
    <glyph glyph-name="t.sups" horiz-adv-x="230" 
d="M145 414l-2 -11c1 -15 8 -20 19 -20c17 0 31 13 45 48l10 -1l16 -20c-20 -43 -43 -67 -73 -76l-9 -1c-46 3 -66 16 -66 56l1 19l27 166l4 28h-42l-4 4l4 32h47l10 76l57 16l5 -4l-14 -88h82l4 -6l-4 -30h-87z" />
    <glyph glyph-name="seven.numr" horiz-adv-x="300" 
d="M144 641h148l30 1l-5 -46l-153 -256l-43 -83l-50 14l-3 10l185 309h-127l-55 -4l-3 7l12 49z" />
    <glyph glyph-name="four.sinf" horiz-adv-x="349" 
d="M269 -19l-60 2l-9 -98l-4 -5l-51 -3l-3 4l14 102h-119l-49 -2l-4 6l5 40l196 230h58l-29 -226h60l4 -6zM47 31h116l20 154h-5z" />
    <glyph glyph-name="five.sinf" horiz-adv-x="303" 
d="M267 256l-13 -48l-5 -4l-46 4h-99l-14 -91l42 -10c70 -15 103 -45 103 -92c0 -83 -76 -140 -182 -140c-18 0 -44 3 -65 7l2 45l5 4c23 -5 45 -7 66 -7c67 0 111 31 111 81c0 29 -23 47 -74 58l-58 11l-4 6l23 170l10 8l36 -1h99l60 2z" />
    <glyph glyph-name="eight.numr" horiz-adv-x="340" 
d="M224 645c61 0 100 -32 100 -82c0 -52 -35 -78 -81 -98l-1 -4c37 -17 71 -37 71 -83c0 -72 -59 -119 -145 -119c-72 0 -114 37 -114 90c0 55 43 84 95 103v2c-31 16 -58 39 -58 79c0 69 54 112 133 112zM218 602c-44 0 -72 -24 -72 -62c0 -33 28 -47 58 -61
c36 15 68 34 68 76c0 29 -21 47 -54 47zM188 434c-40 -12 -79 -32 -79 -79c0 -32 23 -53 66 -53c53 0 85 29 85 67c0 37 -36 51 -72 65z" />
    <glyph glyph-name="u.sups" horiz-adv-x="328" 
d="M323 644l-30 -234l-6 -72l-61 -4l18 136h-5c-36 -62 -69 -111 -104 -139h-7c-35 6 -59 32 -58 64l1 10l26 163l5 71l63 4l-33 -212l-1 -9c0 -18 7 -30 16 -30c17 0 55 50 106 145l5 36l3 67z" />
    <glyph glyph-name="v.sups" horiz-adv-x="286" 
d="M235 632l56 13c9 -17 14 -34 14 -52c0 -27 -10 -54 -28 -89l-95 -167h-66l-32 302l61 5l2 -53l11 -191h6l63 121c13 27 20 49 20 70c0 14 -4 27 -12 41z" />
    <glyph glyph-name="nine.numr" horiz-adv-x="336" 
d="M218 646c82 0 126 -51 117 -141c-9 -108 -89 -197 -219 -246h-4l-36 27l1 7c99 35 157 78 183 142l-5 5c-23 -15 -51 -26 -81 -26c-70 0 -105 46 -100 109c7 71 55 123 144 123zM195 458c27 0 53 10 79 27l2 19c7 66 -12 102 -62 102c-48 0 -77 -27 -82 -78
c-4 -45 19 -70 63 -70z" />
    <glyph glyph-name="six.sinf" horiz-adv-x="336" 
d="M156 107c71 0 106 -45 101 -108c-6 -72 -55 -124 -145 -124c-81 0 -125 52 -116 142c9 108 89 195 219 245h4l36 -27l-1 -6c-99 -35 -157 -79 -183 -142l4 -6c24 16 52 26 81 26zM199 -7c5 45 -19 69 -63 69c-28 0 -54 -9 -80 -26l-2 -18c-5 -66 13 -102 64 -102
c47 0 76 27 81 77z" />
    <glyph glyph-name="w.sups" horiz-adv-x="473" 
d="M419 632l56 13c10 -19 15 -36 15 -55c0 -25 -9 -52 -27 -86l-91 -167h-66l-21 224h-5l-94 -224h-68l-34 302l61 5l1 -41l15 -198h6l83 193l16 43h64l1 -38l17 -198h6l58 116c13 26 20 48 20 67c0 15 -5 30 -13 44z" />
    <glyph glyph-name="seven.sinf" horiz-adv-x="300" 
d="M112 257h148l30 1l-5 -46l-153 -257l-43 -82l-50 14l-3 10l185 309h-127l-55 -4l-3 7l12 49z" />
    <glyph glyph-name="eight.sinf" horiz-adv-x="340" 
d="M167 261c61 0 100 -32 100 -82c0 -52 -35 -78 -81 -98l-1 -4c37 -17 71 -37 71 -83c0 -72 -59 -119 -145 -119c-72 0 -114 37 -114 90c0 55 43 84 95 103v2c-31 16 -58 39 -58 79c0 69 54 112 133 112zM161 218c-44 0 -72 -24 -72 -62c0 -33 28 -47 58 -61
c36 15 68 34 68 76c0 29 -21 47 -54 47zM131 50c-40 -12 -79 -32 -79 -79c0 -32 23 -53 66 -53c53 0 85 29 85 67c0 37 -36 51 -72 65z" />
    <glyph glyph-name="x.sups" horiz-adv-x="308" 
d="M296 340l-68 -7l-8 34l-40 88l-61 -89l-17 -29h-66l111 157l-64 145l64 7l10 -28l37 -84l60 81l13 26h65l-108 -151z" />
    <glyph glyph-name="nine.sinf" horiz-adv-x="336" 
d="M174 262c82 0 126 -51 117 -141c-9 -108 -89 -197 -219 -246h-4l-36 27l1 7c99 35 157 78 183 142l-5 5c-23 -15 -51 -26 -81 -26c-70 0 -105 46 -100 109c7 71 55 123 144 123zM151 74c27 0 53 10 79 27l2 19c7 66 -12 102 -62 102c-48 0 -77 -27 -82 -78
c-4 -45 19 -70 63 -70z" />
    <glyph glyph-name="y.sups" horiz-adv-x="288" 
d="M236 632l56 13c10 -18 14 -35 14 -53c0 -29 -10 -60 -35 -103l-69 -128c-64 -114 -113 -154 -172 -154c-19 0 -38 4 -56 10l-3 51l6 6c18 -6 35 -9 51 -9c34 0 70 19 103 63l-63 311l61 5l6 -53l29 -184h10l54 108c14 29 21 54 21 73c0 17 -5 30 -13 44z" />
    <glyph glyph-name="zero.tf" horiz-adv-x="482" 
d="M286 590c105 0 165 -83 165 -228c0 -224 -87 -369 -235 -369c-111 0 -169 83 -169 229c0 226 85 368 239 368zM274 521c-108 0 -167 -109 -167 -285c0 -114 38 -176 114 -176c110 0 169 108 169 285c0 114 -39 176 -116 176z" />
    <glyph glyph-name="z.sups" horiz-adv-x="285" 
d="M296 634l-181 -241l17 3c15 0 44 -12 60 -12c35 0 52 24 56 81l9 3l26 -10c-5 -90 -37 -127 -91 -127c-37 0 -70 21 -100 21c-14 0 -26 -5 -39 -18h-8l-19 16l181 242l-91 -1l-38 -4l-4 5l11 50l5 4l47 -3l122 -2l17 11z" />
    <glyph glyph-name="f.t" horiz-adv-x="279" 
d="M438 400h-243l-27 -201l-31 -213l-4 -107l-76 -6l44 317l29 210h-69l-5 5l6 45h75l10 68c16 119 71 186 184 186l91 -14l3 -7l-20 -54l-11 -2c-25 14 -57 22 -80 22c-53 0 -92 -39 -101 -112l-12 -87h238l6 -8z" />
    <glyph glyph-name="one.tf" horiz-adv-x="475" 
d="M335 585l-51 -378l-21 -207h-75l28 198l38 309l-176 -37l-7 4l7 59l247 61z" />
    <glyph glyph-name="two.tf" horiz-adv-x="475" 
d="M272 592c83 0 143 -54 143 -130c0 -66 -44 -121 -153 -242l-136 -156l1 -4h210l92 6l4 -7l-18 -63l-106 4h-244l-41 -2l-4 4l6 48l172 190c88 97 142 161 142 217c0 38 -25 70 -79 70s-109 -31 -158 -85h-9l-6 60c56 55 118 90 184 90z" />
    <glyph glyph-name="three.tf" horiz-adv-x="476" 
d="M255 594c92 0 148 -47 148 -117c0 -56 -40 -120 -123 -158v-4c70 -17 111 -57 111 -125c0 -111 -108 -195 -250 -195c-31 0 -72 4 -102 10l3 67l8 6c31 -15 66 -23 99 -23c98 0 169 50 169 130c0 56 -43 90 -122 93h-59l-5 6l9 52l44 1c58 0 139 52 139 125
c0 43 -30 70 -81 70c-44 0 -86 -21 -135 -60h-8l-4 60c56 42 104 62 159 62z" />
    <glyph glyph-name="four.tf" horiz-adv-x="475" 
d="M437 222l-11 -53l-89 2h-4l-17 -165l-5 -7l-58 -5l-4 6l23 171h-184l-63 -2l-5 7l6 51l289 359h70l-45 -357h92zM94 229h186l33 265h-6z" />
    <glyph glyph-name="dotlessi.sc" horiz-adv-x="252" 
 />
    <glyph glyph-name="five.tf" horiz-adv-x="475" 
d="M447 584l-14 -60l-6 -5l-72 5h-158l-21 -160l65 -13c107 -22 161 -71 161 -151c0 -117 -115 -210 -263 -210c-30 0 -66 4 -98 10l2 66l8 7c36 -16 71 -23 104 -23c105 0 175 59 175 141c0 54 -39 87 -117 102l-95 18l-5 7l31 258l14 12l55 -2h139l91 4z" />
    <glyph glyph-name="dotlessj.sc" horiz-adv-x="287" 
 />
    <glyph glyph-name="six.tf" horiz-adv-x="475" 
d="M452 559l-1 -8c-193 -62 -279 -151 -315 -241l5 -7c41 28 81 45 128 45c91 0 154 -66 154 -153c0 -74 -43 -203 -201 -203c-118 0 -177 74 -177 187c0 138 83 319 346 415h4zM255 292c-46 0 -96 -21 -139 -61c-2 -15 -3 -31 -3 -46c0 -77 24 -137 112 -137
c102 0 129 77 129 139c0 67 -34 105 -99 105z" />
    <glyph glyph-name="seven.tf" horiz-adv-x="476" 
d="M182 586h245l44 2l-6 -56l-264 -430l-60 -116l-60 19l-3 13l313 505h-229l-78 -7l-5 9l13 64z" />
    <glyph glyph-name="kgreenlandic.sc" horiz-adv-x="470" 
 />
    <glyph glyph-name="eight.tf" horiz-adv-x="476" 
d="M278 592c91 0 152 -48 152 -132c0 -82 -61 -125 -118 -151l-1 -5c56 -27 107 -59 107 -140c0 -99 -80 -171 -201 -171c-108 0 -176 58 -176 145c0 86 67 127 139 159l1 4c-47 26 -84 57 -84 127c0 97 74 164 181 164zM277 538c-70 0 -118 -42 -118 -103
c0 -60 43 -84 95 -106c58 23 115 56 115 125c0 54 -32 84 -92 84zM237 274c-64 -23 -132 -51 -132 -128c0 -61 41 -100 113 -100c81 0 137 49 137 114c0 63 -51 87 -118 114z" />
    </font>
</defs>
</svg>
