<?xml version="1.0" standalone="no"?>
<!DOCTYPE svg PUBLIC "-//W3C//DTD SVG 1.1//EN" "http://www.w3.org/Graphics/SVG/1.1/DTD/svg11.dtd" >
<svg version="1.1" xmlns="http://www.w3.org/2000/svg">
<metadata>
Created by FontForge 20120731 at Fri Aug  1 16:50:16 2014
 By Alfred Xing
Copyright (c) 2013 by Juan Pablo del Peral (huertatipografica.com.ar)
</metadata>
<defs>
<font id="AlegreyaSans-MediumItalic" horiz-adv-x="390" >
  <font-face 
    font-family="Alegreya Sans Medium"
    font-weight="500"
    font-style="italic"
    font-stretch="normal"
    units-per-em="1000"
    panose-1="0 0 6 0 0 0 0 0 0 0"
    ascent="800"
    descent="-200"
    x-height="467"
    cap-height="642"
    bbox="-269 -261 1172 1017"
    underline-thickness="46"
    underline-position="-136"
    slope="-7"
    stemh="67"
    stemv="91"
    unicode-range="U+0020-FB02"
  />
<missing-glyph horiz-adv-x="161" 
 />
    <glyph glyph-name="Idieresis" unicode="&#xa8;I" horiz-adv-x="270" 
d="M139 842c30 0 48 -19 48 -49c0 -33 -20 -54 -51 -54c-32 0 -49 18 -49 50s20 53 52 53zM274 842c30 0 48 -19 48 -49c0 -33 -20 -54 -51 -54c-32 0 -49 18 -49 50s20 53 52 53zM176 201l-20 -201h-99l30 193l50 449h99z" />
    <glyph glyph-name="Odieresis" unicode="&#xa8;O" horiz-adv-x="618" 
d="M299 843c29 0 47 -20 47 -49c0 -33 -20 -54 -51 -54c-32 0 -49 18 -49 50s20 53 53 53zM463 842c30 0 47 -19 47 -49c0 -33 -19 -54 -50 -54c-32 0 -49 19 -49 50c0 32 19 53 52 53zM363 649c150 0 238 -93 238 -260c0 -243 -114 -397 -321 -397c-148 0 -237 96 -237 265
c0 243 114 392 320 392zM351 568c-141 0 -207 -103 -207 -306c0 -129 46 -191 145 -191c139 0 208 103 208 308c0 129 -47 189 -146 189z" />
    <glyph glyph-name="Yacute" unicode="&#xb4;Y" horiz-adv-x="518" 
d="M239 723l-17 42c67 34 130 66 198 107l10 -3l25 -57l-4 -10c-70 -31 -135 -57 -201 -83zM296 227l-7 -43l-19 -184h-99l30 184l4 44l-143 414h102l8 -39l89 -273h8l168 270l21 42h104z" />
    <glyph glyph-name="idieresis" unicode="&#xa8;i" horiz-adv-x="225" 
d="M92 661c30 0 48 -19 48 -49c0 -33 -20 -54 -51 -54c-32 0 -49 18 -49 50s20 53 52 53zM227 661c30 0 48 -19 48 -49c0 -33 -20 -54 -51 -54c-32 0 -49 18 -49 50s20 53 52 53zM137 111l-4 -108l-95 -7l51 361l4 101l94 7z" />
    <glyph glyph-name="odieresis" unicode="&#xa8;o" horiz-adv-x="420" 
d="M187 662c29 0 47 -20 47 -49c0 -33 -20 -54 -51 -54c-32 0 -49 18 -49 50s20 53 53 53zM351 661c30 0 47 -19 47 -49c0 -33 -19 -54 -50 -54c-32 0 -49 19 -49 50c0 32 19 53 52 53zM264 469h10c74 -14 116 -62 116 -157c0 -186 -85 -310 -229 -321l-10 1
c-78 15 -119 63 -119 163c0 180 88 306 232 314zM245 393c-86 0 -125 -91 -125 -238c0 -64 15 -90 55 -90c85 0 124 94 124 240c0 64 -16 88 -54 88z" />
    <glyph glyph-name="yacute" unicode="&#xb4;y" horiz-adv-x="421" 
d="M149 520l-25 38c58 48 112 93 170 148l9 -1l37 -52l-3 -10c-62 -45 -119 -85 -178 -124zM305 448l88 19c15 -26 21 -53 21 -80c0 -47 -18 -97 -50 -154l-108 -195c-96 -172 -170 -233 -262 -233c-27 0 -56 5 -83 16l-5 80l10 8c27 -9 53 -14 75 -14c53 0 106 29 154 93
l-94 470l94 7l10 -82l43 -275h15l76 152c21 43 34 78 34 110c0 24 -7 45 -22 67z" />
    <glyph glyph-name="Itilde" unicode="&#x7e;I" horiz-adv-x="270" 
d="M349 827v-9l-57 -76l-10 -3c-39 5 -110 36 -131 36c-17 0 -30 -22 -52 -48h-9l-29 31v8l58 75l9 4c39 -5 110 -35 131 -35c17 0 31 21 52 47h9zM176 201l-20 -201h-99l30 193l50 449h99z" />
    <glyph glyph-name="itilde" unicode="&#x7e;i" horiz-adv-x="225" 
d="M302 646v-9l-57 -76l-10 -3c-39 5 -110 36 -131 36c-17 0 -30 -22 -52 -48h-9l-29 31v8l58 75l9 4c39 -5 110 -35 131 -35c17 0 31 21 52 47h9zM137 111l-4 -108l-95 -7l51 361l4 101l94 7z" />
    <glyph glyph-name="Utilde" unicode="&#x7e;U" horiz-adv-x="606" 
d="M536 830v-9l-64 -76l-10 -4c-44 5 -129 37 -155 37c-17 0 -34 -23 -59 -49h-9l-30 30v9l64 76l11 3c44 -5 130 -35 155 -35c17 0 33 21 59 48h9zM547 315l-9 -74c-17 -158 -107 -249 -262 -249c-130 0 -211 67 -211 188c0 17 1 34 4 53l12 88l38 321h97l-54 -396
c-2 -16 -3 -29 -3 -43c0 -85 42 -126 124 -126c96 0 152 52 164 159l46 406h98z" />
    <glyph glyph-name="utilde" unicode="&#x7e;u" horiz-adv-x="478" 
d="M449 649v-9l-64 -76l-10 -4c-44 5 -129 37 -155 37c-17 0 -34 -23 -59 -49h-9l-30 30v9l64 76l11 3c44 -5 130 -35 155 -35c17 0 33 21 59 48h9zM341 458l95 7l-51 -354l-3 -108l-96 -7l29 204h-9c-58 -99 -105 -158 -160 -203h-11c-50 10 -89 40 -88 89l1 14l41 253
l6 106l94 8l-50 -322l-2 -21c-1 -18 7 -24 18 -24c36 0 100 83 181 253l1 4z" />
    <glyph glyph-name="Etilde" unicode="&#x7e;E" horiz-adv-x="475" 
d="M197 729l-30 30v9l64 76l11 3c44 -5 130 -35 155 -35c17 0 33 21 59 48h9l29 -30v-9l-64 -76l-10 -4c-44 5 -129 37 -155 37c-17 0 -34 -23 -59 -49h-9zM226 560l-27 -192l113 -2l100 3l6 -7l-17 -76l-108 3l-105 -2l-12 -86l-12 -120l120 -2l146 5l4 -8l-16 -76h-361
l30 193l51 449h362l5 -9l-17 -76l-145 4z" />
    <glyph glyph-name="etilde" unicode="&#x7e;e" horiz-adv-x="385" 
d="M417 650v-9l-64 -76l-10 -4c-44 5 -129 37 -155 37c-17 0 -34 -23 -59 -49h-9l-30 30v9l64 76l11 3c44 -5 130 -35 155 -35c17 0 33 21 59 48h9zM365 372c0 -77 -73 -141 -245 -197c2 -73 21 -104 60 -104c43 0 87 37 114 88l14 -1l32 -42c-47 -66 -101 -108 -162 -123
h-13c-94 7 -135 67 -135 166c0 177 92 304 233 311l11 -1c56 -10 91 -41 91 -97zM123 241c104 31 157 74 157 124c0 25 -13 38 -42 38c-60 0 -104 -62 -115 -162z" />
    <glyph glyph-name="Ytilde" unicode="&#x7e;Y" horiz-adv-x="518" 
d="M195 729l-30 30v9l64 76l11 3c44 -5 130 -35 155 -35c17 0 33 21 59 48h9l29 -30v-9l-64 -76l-10 -4c-44 5 -129 37 -155 37c-17 0 -34 -23 -59 -49h-9zM296 227l-7 -43l-19 -184h-99l30 184l4 44l-143 414h102l8 -39l89 -273h8l168 270l21 42h104z" />
    <glyph glyph-name="ytilde" unicode="&#x7e;y" horiz-adv-x="421" 
d="M96 548l-30 30v9l64 76l11 3c44 -5 130 -35 155 -35c17 0 33 21 59 48h9l29 -30v-9l-64 -76l-10 -4c-44 5 -129 37 -155 37c-17 0 -34 -23 -59 -49h-9zM305 448l88 19c15 -26 21 -53 21 -80c0 -47 -18 -97 -50 -154l-108 -195c-96 -172 -170 -233 -262 -233
c-27 0 -56 5 -83 16l-5 80l10 8c27 -9 53 -14 75 -14c53 0 106 29 154 93l-94 470l94 7l10 -82l43 -275h15l76 152c21 43 34 78 34 110c0 24 -7 45 -22 67z" />
    <glyph glyph-name="fi" unicode="fi" horiz-adv-x="515" 
d="M474 461l-49 -350l-4 -108l-96 -7l52 361l1 33h-171l-26 -189l-29 -210l-4 -108l-97 -7l46 314l26 200h-68l-5 7l7 54h75l7 56c18 126 76 197 195 197l115 -23l3 -8l-22 -73l-14 -3c-37 24 -68 37 -100 37c-46 0 -80 -35 -89 -103l-11 -80h175l76 16z" />
    <glyph glyph-name="fl" unicode="fl" horiz-adv-x="521" 
d="M512 704l-83 -593l-4 -108l-95 -7l85 600l1 29c-33 11 -61 16 -91 16c-51 0 -86 -35 -98 -103l-12 -87h106l7 -8l-8 -53h-113l-26 -189l-30 -210l-4 -108l-95 -7l44 314l28 200h-69l-5 7l8 54h74l9 64c18 125 79 197 204 197l95 -13z" />
    <glyph glyph-name="f_j" unicode="fj" horiz-adv-x="519" 
d="M473 461l-50 -349l-9 -92c-14 -105 -55 -161 -151 -214l-30 42l1 11c58 39 85 79 94 157l48 341l1 33h-170l-26 -189l-29 -210l-4 -108l-97 -7l46 314l26 200h-68l-5 7l7 54h75l7 56c18 126 76 197 195 197l114 -23l4 -8l-23 -73l-14 -3c-37 24 -68 37 -100 37
c-46 0 -79 -35 -88 -103l-11 -80h174l77 16z" />
    <glyph glyph-name="Gtilde" unicode="&#x7e;G" horiz-adv-x="578" 
d="M535 830v-9l-64 -76l-10 -4c-44 5 -129 37 -155 37c-17 0 -34 -23 -59 -49h-9l-30 30v9l64 76l11 3c44 -5 130 -35 155 -35c17 0 33 21 59 48h9zM387 648c64 0 125 -13 183 -43l-33 -92l-9 -2c-58 39 -101 55 -160 55c-147 0 -225 -100 -225 -310
c0 -126 50 -182 161 -182c30 0 57 5 107 21l11 67l10 94l92 7l-12 -87l-15 -145c-74 -26 -131 -39 -201 -39c-169 0 -255 96 -255 257c0 254 124 399 346 399z" />
    <glyph glyph-name="gtilde" unicode="&#x7e;g" horiz-adv-x="450" 
d="M441 649v-9l-64 -76l-10 -4c-44 5 -129 37 -155 37c-17 0 -34 -23 -59 -49h-9l-30 30v9l64 76l11 3c44 -5 130 -35 155 -35c17 0 33 21 59 48h9zM398 469l11 -6l-51 -351l-6 -72c-21 -150 -123 -238 -239 -238c-92 0 -152 54 -168 148l4 10l138 78l1 9
c-31 26 -44 64 -44 121c0 137 75 271 223 299h5l68 -24zM313 369l-64 25c-80 0 -121 -85 -121 -192c0 -70 17 -94 27 -94c19 0 85 85 155 237l2 12zM288 189h-12c-38 -69 -84 -126 -133 -167l-86 -63c-9 -7 -11 -11 -11 -19c0 -33 32 -67 87 -67c66 0 118 48 131 141z" />
    <glyph glyph-name=".notdef" horiz-adv-x="161" 
 />
    <glyph glyph-name="space" unicode=" " horiz-adv-x="143" 
 />
    <glyph glyph-name="exclam" unicode="!" horiz-adv-x="266" 
d="M246 650l-79 -426l-58 -7l-9 11l49 418l11 11l76 5zM118 104c32 0 51 -20 51 -53c0 -34 -21 -56 -55 -56c-33 0 -52 19 -52 53s21 56 56 56z" />
    <glyph glyph-name="quotedbl" unicode="&#x22;" horiz-adv-x="306" 
d="M187 632l-52 -195l-49 -7l-7 7l27 197l75 6zM314 632l-52 -195l-49 -7l-7 7l27 197l76 6z" />
    <glyph glyph-name="numbersign" unicode="#" horiz-adv-x="526" 
d="M389 362l-24 -112h101l6 -7l-5 -52h-115l-34 -159h-56l-6 7l32 152h-106l-34 -159h-57l-5 7l32 152h-91l-7 7l4 52h107l24 112h-94l-7 7l5 51h108l33 154h56l6 -9l-31 -145h106l33 154h56l7 -9l-31 -145h98l7 -6l-6 -52h-112zM325 362h-106l-24 -112h106z" />
    <glyph glyph-name="dollar" unicode="$" horiz-adv-x="434" 
d="M370 403l-14 -4c-27 23 -53 35 -79 40l-21 -159c56 -26 114 -57 114 -129c0 -67 -53 -136 -150 -153l-16 -129h-48l-8 9l14 116c-44 2 -98 12 -140 33l18 81l11 5c32 -33 79 -52 118 -56l22 162c-58 26 -120 57 -120 132c0 72 59 138 157 151l16 139h48l9 -9l-17 -129
c35 -2 74 -9 107 -23zM152 366c0 -27 21 -45 50 -61l18 132c-44 -10 -68 -41 -68 -71zM289 134c0 26 -18 44 -44 59l-17 -130c38 13 61 41 61 71z" />
    <glyph glyph-name="percent" unicode="%" horiz-adv-x="841" 
d="M705 656l5 -15l-560 -732l-39 25l-4 12l561 735zM244 646c82 0 126 -49 126 -139c0 -135 -63 -217 -180 -217c-82 0 -126 51 -126 139c0 135 64 217 180 217zM230 581c-67 0 -102 -50 -102 -140c0 -59 25 -89 73 -89c72 0 104 53 104 140c0 58 -25 89 -75 89zM672 351
c82 0 126 -49 126 -139c0 -135 -63 -217 -180 -217c-82 0 -126 51 -126 140c0 134 64 216 180 216zM658 286c-67 0 -102 -50 -102 -139c0 -60 25 -90 73 -90c72 0 104 53 104 139c0 59 -25 90 -75 90z" />
    <glyph glyph-name="ampersand" unicode="&#x26;" horiz-adv-x="642" 
d="M339 651c54 0 102 -11 159 -34l-25 -79l-14 -4c-48 29 -91 44 -138 44c-74 0 -119 -37 -119 -107c0 -65 36 -103 97 -106l265 14l103 14l9 -14l-18 -66l-163 -8l-2 -5c17 -26 26 -61 26 -98c0 -113 -82 -211 -250 -211c-135 0 -216 62 -216 159c0 74 48 135 145 177v4
c-52 28 -81 76 -81 140c0 108 82 180 222 180zM396 301l-140 -5c-69 -32 -108 -76 -108 -134c0 -64 50 -103 133 -103c104 0 156 60 156 143c0 42 -15 78 -41 99z" />
    <glyph glyph-name="quotesingle" unicode="'" horiz-adv-x="179" 
d="M187 632l-52 -195l-49 -7l-7 7l27 197l75 6z" />
    <glyph glyph-name="parenleft" unicode="(" horiz-adv-x="290" 
d="M323 630l-1 -8c-153 -112 -181 -340 -181 -470c0 -115 22 -189 92 -253l-1 -8l-40 -32h-9c-88 72 -121 155 -121 294c0 155 38 390 220 509h9z" />
    <glyph glyph-name="parenright" unicode=")" horiz-adv-x="291" 
d="M-25 -109l1 8c153 112 181 340 181 471c0 114 -22 188 -92 252l1 8l39 32h9c89 -72 122 -155 122 -294c0 -155 -39 -390 -220 -509h-9z" />
    <glyph glyph-name="asterisk" unicode="*" horiz-adv-x="378" 
d="M281 729l-25 -120l-37 -5l-6 8l-2 114c20 7 44 11 66 11zM199 597l-5 -37l-9 -4l-102 34c0 20 2 46 9 67l9 2zM272 599l100 37c12 -17 24 -38 30 -61l-4 -5l-114 -14l-16 34zM279 537l63 -92c-12 -19 -28 -34 -47 -48l-8 1l-44 115l26 25zM223 520l1 -10l-58 -94
c-20 6 -42 18 -62 30v8l87 83z" />
    <glyph glyph-name="plus" unicode="+" horiz-adv-x="477" 
d="M302 468l-22 -171h170l8 -7l-14 -60h-172l-21 -173l-61 -5l-6 7l20 171h-171l-5 7l13 60h171l22 173l61 6z" />
    <glyph glyph-name="comma" unicode="," horiz-adv-x="229" 
d="M106 102c28 -19 43 -43 43 -73c0 -49 -34 -97 -103 -147l-33 29v8c36 29 55 60 55 91c0 20 -11 37 -31 52v9c21 13 44 24 69 31z" />
    <glyph glyph-name="hyphen" unicode="-" horiz-adv-x="306" 
d="M286 298l-8 -61l-244 -35l-8 8l8 62l244 34z" />
    <glyph glyph-name="period" unicode="." horiz-adv-x="230" 
d="M95 104c32 0 51 -20 51 -53c0 -34 -21 -56 -55 -56c-33 0 -52 19 -52 53s21 56 56 56z" />
    <glyph glyph-name="slash" unicode="/" horiz-adv-x="286" 
d="M321 669l-260 -783h-68l-5 9l260 784h66z" />
    <glyph glyph-name="zero" unicode="0" horiz-adv-x="529" 
d="M300 507c120 0 190 -68 190 -220c0 -173 -91 -295 -253 -295c-123 0 -193 70 -193 219c0 171 93 296 256 296zM286 418c-109 0 -164 -76 -164 -195c0 -98 37 -145 124 -145c109 0 166 73 166 193c0 99 -39 147 -126 147z" />
    <glyph glyph-name="one" unicode="1" horiz-adv-x="349" 
d="M269 495l-41 -288l-20 -207h-98l29 196l24 198l-128 -34l-8 5l9 77l221 63z" />
    <glyph glyph-name="two" unicode="2" horiz-adv-x="461" 
d="M260 505c79 0 136 -43 136 -110c0 -57 -44 -110 -152 -222l-90 -94l2 -4h165l87 7l6 -6l-22 -80l-108 4h-225l-37 -2l-6 4l8 60l153 149c75 73 120 120 120 161c0 29 -21 50 -63 50c-45 0 -98 -25 -143 -65h-12l-6 75c60 45 122 73 187 73z" />
    <glyph glyph-name="three" unicode="3" horiz-adv-x="419" 
d="M217 506c97 0 157 -49 157 -121c0 -54 -37 -118 -119 -156v-4c66 -20 103 -57 103 -124c0 -113 -109 -198 -255 -198c-32 0 -76 5 -105 11l4 84l9 8c32 -17 68 -26 102 -26c89 0 150 44 150 115c0 49 -35 79 -105 82h-62l-5 6l11 68l46 1c52 0 124 46 124 112
c0 38 -27 62 -72 62c-42 0 -83 -20 -130 -56h-11l-4 75c56 41 106 61 162 61z" />
    <glyph glyph-name="four" unicode="4" horiz-adv-x="488" 
d="M433 68l-91 2l-15 -154l-7 -7l-75 -6l-5 7l23 160h-178l-73 -2l-6 9l7 64l292 360h91l-45 -356h90l5 -9zM100 145h174l30 241h-7z" />
    <glyph glyph-name="five" unicode="5" horiz-adv-x="422" 
d="M412 498l-19 -76l-8 -7l-79 7h-136l-19 -141l62 -13c101 -21 152 -71 152 -152c0 -119 -114 -214 -263 -214c-31 0 -71 5 -103 11l4 83l8 8c39 -18 75 -26 111 -26c90 0 150 53 150 126c0 49 -33 78 -98 91l-98 18l-7 8l33 269l16 13l55 -2h137l97 4z" />
    <glyph glyph-name="six" unicode="6" horiz-adv-x="474" 
d="M458 550l-1 -10c-181 -56 -266 -135 -304 -218l6 -8c39 24 73 39 116 39c92 0 156 -70 156 -156c0 -78 -49 -205 -208 -205c-123 0 -186 75 -186 191c0 142 91 316 344 411h5zM253 283c-40 0 -85 -18 -125 -53c-1 -14 -2 -28 -2 -42c0 -71 19 -127 101 -127
c89 0 114 66 114 126c0 61 -30 96 -88 96z" />
    <glyph glyph-name="seven" unicode="7" horiz-adv-x="423" 
d="M157 501h226l44 2l-7 -72l-235 -403l-64 -129l-77 24l-4 16l284 481h-193l-82 -9l-6 10l17 83z" />
    <glyph glyph-name="eight" unicode="8" horiz-adv-x="482" 
d="M278 593c97 0 160 -50 160 -135c0 -78 -56 -121 -111 -149l-1 -5c52 -27 98 -60 98 -138c0 -101 -81 -174 -205 -174c-112 0 -183 59 -183 147c0 82 61 122 133 154l1 5c-44 25 -80 57 -80 127c0 99 76 168 188 168zM276 525c-63 0 -106 -38 -106 -92
c0 -55 39 -77 89 -98c52 23 100 53 100 114c0 48 -29 76 -83 76zM235 265c-60 -22 -116 -47 -116 -114c0 -56 36 -92 102 -92c73 0 122 45 122 101c0 57 -45 79 -108 105z" />
    <glyph glyph-name="nine" unicode="9" horiz-adv-x="474" 
d="M256 509c123 0 186 -75 186 -191c0 -142 -91 -316 -344 -411h-5l-72 44l1 10c181 56 266 135 304 218l-6 8c-39 -24 -73 -39 -116 -39c-92 0 -156 70 -156 156c0 78 49 205 208 205zM226 218c40 0 85 18 125 53c1 14 2 28 2 42c0 71 -19 127 -101 127
c-89 0 -114 -66 -114 -126c0 -61 30 -96 88 -96z" />
    <glyph glyph-name="colon" unicode=":" horiz-adv-x="229" 
d="M127 371c32 0 51 -20 51 -52c0 -35 -21 -57 -55 -57c-33 0 -52 20 -52 53c0 34 21 56 56 56zM94 104c32 0 51 -20 51 -53c0 -34 -21 -56 -55 -56c-33 0 -52 19 -52 53s21 56 56 56z" />
    <glyph glyph-name="semicolon" unicode=";" horiz-adv-x="229" 
d="M125 371c33 0 51 -20 51 -52c0 -35 -21 -57 -54 -57c-34 0 -53 20 -53 53c0 34 22 56 56 56zM104 102c27 -19 42 -43 42 -73c0 -49 -33 -97 -103 -147l-32 29v8c36 29 55 60 55 91c0 20 -11 37 -32 52l1 9c21 13 44 24 69 31z" />
    <glyph glyph-name="less" unicode="&#x3c;" horiz-adv-x="497" 
d="M463 410l-5 -9l-347 -133v-6l315 -126l-21 -55l-11 -7l-360 149l9 80l9 10l397 153z" />
    <glyph glyph-name="equal" unicode="=" horiz-adv-x="478" 
d="M469 377l-6 -61h-411l-7 7l6 60h410zM447 203l-5 -60h-412l-6 6l5 60h410z" />
    <glyph glyph-name="greater" unicode="&#x3e;" horiz-adv-x="503" 
d="M469 313l6 -10l-9 -80l-399 -149l-9 7l-7 55l347 126v6l-314 133l-3 9l28 56z" />
    <glyph glyph-name="question" unicode="?" horiz-adv-x="335" 
d="M118 658l11 6c155 -9 240 -61 240 -146c0 -58 -38 -111 -104 -148l-86 -51l-2 -4l-6 -92l-69 -9l-7 8l6 117l6 10l101 54c44 24 71 57 71 96c0 56 -56 88 -180 96l-6 10zM128 104c32 0 51 -20 51 -53c0 -34 -21 -56 -55 -56c-33 0 -52 19 -52 53s21 56 56 56z" />
    <glyph glyph-name="at" unicode="@" horiz-adv-x="831" 
d="M804 303c0 -191 -127 -299 -352 -306l27 189h-11c-43 -73 -93 -141 -147 -194h-16c-57 29 -85 81 -85 160c0 134 78 284 238 313h5l67 -23l56 24l10 -6l-49 -349l-2 -44c122 16 193 102 193 233c0 157 -110 261 -286 258c-212 -3 -352 -152 -352 -359
c0 -217 152 -344 382 -344l4 -10l-29 -47c-254 3 -424 147 -424 389c0 252 171 434 430 434c206 0 341 -125 341 -318zM330 88c22 0 98 86 172 259l1 8l1 15l-63 23c-88 0 -140 -95 -140 -214c0 -72 16 -91 29 -91z" />
    <glyph glyph-name="A" unicode="A" horiz-adv-x="561" 
d="M515 0h-99l-7 71l-16 92l-129 3l-117 -2l-40 -89l-26 -75h-97l298 642h115zM380 244l-51 300h-8l-136 -299l96 -2z" />
    <glyph glyph-name="B" unicode="B" horiz-adv-x="532" 
d="M383 334c75 -25 111 -66 111 -134c0 -133 -94 -204 -286 -204c-25 0 -109 1 -150 4h-1l30 193l51 449l185 1c107 0 173 -47 173 -137c0 -81 -41 -142 -113 -172zM395 489c0 54 -29 77 -102 77h-68l-27 -201l98 -3c65 16 99 56 99 127zM232 73c103 0 162 45 162 124
c0 54 -32 83 -94 92l-113 -1l-12 -87l-12 -124c24 -2 51 -4 69 -4z" />
    <glyph glyph-name="C" unicode="C" horiz-adv-x="503" 
d="M366 648c64 0 121 -16 164 -45l-30 -87l-9 -3c-36 33 -80 53 -137 53c-132 0 -207 -105 -207 -294c0 -128 52 -196 147 -196c54 0 112 20 161 56l9 -6l-20 -90c-56 -30 -105 -43 -165 -43c-151 0 -236 96 -236 264c0 244 119 391 323 391z" />
    <glyph glyph-name="D" unicode="D" horiz-adv-x="627" 
d="M139 642l224 4c157 0 247 -90 247 -251c0 -247 -120 -401 -341 -401c-41 0 -155 3 -211 6h-1l30 193l51 449h1zM289 73c136 0 217 102 217 305c0 127 -51 187 -154 187c-20 0 -90 -2 -126 -4l-51 -360l-11 -121c44 -4 106 -7 125 -7z" />
    <glyph glyph-name="E" unicode="E" horiz-adv-x="475" 
d="M226 560l-27 -192l112 -2l101 3l5 -7l-16 -76l-108 3l-105 -2l-12 -86l-12 -120l119 -2l147 5l3 -8l-15 -76h-361l30 193l51 449h362l5 -9l-17 -76l-145 4z" />
    <glyph glyph-name="F" unicode="F" horiz-adv-x="426" 
d="M226 560l-29 -206l96 -2l103 3l5 -9l-17 -74l-109 3l-89 -1l-10 -73l-20 -201h-99l30 193l51 449h342l5 -9l-18 -78l-141 6z" />
    <glyph glyph-name="G" unicode="G" horiz-adv-x="578" 
d="M387 648c64 0 125 -13 183 -43l-33 -92l-10 -2c-58 39 -100 55 -159 55c-147 0 -226 -100 -226 -310c0 -126 51 -182 162 -182c30 0 57 5 107 21l11 67l10 94l92 7l-12 -87l-15 -145c-74 -26 -131 -39 -201 -39c-169 0 -255 96 -255 257c0 254 124 399 346 399z" />
    <glyph glyph-name="H" unicode="H" horiz-adv-x="662" 
d="M629 642l-61 -441l-20 -201h-98l29 193l10 89l-159 3l-144 -3l-11 -81l-19 -201h-99l29 193l51 449h99l-38 -276l150 -3l150 3l31 276h100z" />
    <glyph glyph-name="I" unicode="I" horiz-adv-x="270" 
d="M175 201l-19 -201h-99l29 193l51 449h99z" />
    <glyph glyph-name="J" unicode="J" horiz-adv-x="311" 
d="M272 642l-60 -430l-9 -93c-13 -104 -67 -163 -205 -222l-28 54l1 11c91 46 132 85 141 158l11 83l40 362l-113 -2l-8 8l14 71h216z" />
    <glyph glyph-name="K" unicode="K" horiz-adv-x="538" 
d="M175 201l-20 -201h-99l30 193l51 449h99zM577 642l-274 -305c64 -109 138 -216 214 -316l-3 -12c-33 -8 -64 -14 -97 -18l-10 5c-72 109 -143 223 -207 340l1 6l223 242l45 58h108z" />
    <glyph glyph-name="L" unicode="L" horiz-adv-x="406" 
d="M385 74l-17 -74h-314l30 193l50 449h100l-61 -441l-12 -119h220z" />
    <glyph glyph-name="M" unicode="M" horiz-adv-x="761" 
d="M678 0h-88l13 195l8 296h-7l-210 -419h-79l-95 419h-8l-64 -288l-41 -203h-82l143 642h112l17 -97l75 -346h8l169 350l41 93h111z" />
    <glyph glyph-name="N" unicode="N" horiz-adv-x="662" 
d="M567 191l-20 -191h-104l-230 488h-7l-35 -274l-23 -214h-91l29 190l53 452h103l230 -489h7l58 484l93 7z" />
    <glyph glyph-name="O" unicode="O" horiz-adv-x="618" 
d="M363 649c150 0 238 -93 238 -260c0 -243 -115 -397 -322 -397c-147 0 -236 96 -236 265c0 243 113 392 320 392zM352 568c-141 0 -208 -103 -208 -306c0 -129 46 -191 145 -191c139 0 208 103 208 308c0 129 -47 189 -145 189z" />
    <glyph glyph-name="P" unicode="P" horiz-adv-x="514" 
d="M138 642l197 1c109 0 180 -55 180 -169c0 -146 -102 -255 -266 -255h-71l-2 -18l-20 -201h-99l30 193zM189 298l105 -3c71 13 119 76 119 164c0 67 -28 102 -105 106l-82 -3z" />
    <glyph glyph-name="Q" unicode="Q" horiz-adv-x="617" 
d="M678 -117l2 -12c-14 -26 -29 -46 -45 -63l-8 -3c-126 34 -241 99 -333 187h-15c-148 0 -236 96 -236 265c0 243 114 392 320 392c150 0 238 -93 238 -260c0 -196 -75 -334 -213 -380c84 -62 183 -105 290 -126zM144 262c0 -129 46 -191 145 -191c139 0 208 103 208 308
c0 129 -47 189 -145 189c-141 0 -208 -103 -208 -306z" />
    <glyph glyph-name="R" unicode="R" horiz-adv-x="547" 
d="M516 484c0 -101 -56 -183 -149 -227c38 -79 80 -157 126 -234l-2 -11c-32 -11 -62 -18 -96 -21l-10 8c-36 76 -71 153 -102 232h-104l-4 -30l-19 -201h-99l29 193l52 449l200 1c110 0 178 -57 178 -159zM191 311l107 -3c76 24 115 78 115 160c0 63 -36 94 -105 97l-82 -3
z" />
    <glyph glyph-name="S" unicode="S" horiz-adv-x="464" 
d="M307 648c40 0 95 -8 150 -31l-27 -90l-17 -6c-35 31 -78 48 -121 48c-70 0 -113 -44 -113 -92c0 -110 243 -119 243 -291c0 -108 -96 -194 -231 -194c-56 0 -123 15 -176 44l25 97l12 6c44 -48 103 -69 151 -69c72 0 119 44 119 97c0 116 -240 118 -240 291
c0 108 96 190 225 190z" />
    <glyph glyph-name="T" unicode="T" horiz-adv-x="475" 
d="M508 633l-17 -75l-109 6h-52l-50 -363l-20 -201h-99l31 193l40 371h-52l-113 -6l-6 9l18 75h424z" />
    <glyph glyph-name="U" unicode="U" horiz-adv-x="606" 
d="M547 315l-9 -74c-18 -158 -107 -249 -262 -249c-131 0 -211 67 -211 188c0 17 1 34 3 53l13 88l37 321h97l-53 -396c-2 -16 -3 -29 -3 -43c0 -85 42 -126 124 -126c96 0 152 52 164 159l45 406h98z" />
    <glyph glyph-name="V" unicode="V" horiz-adv-x="548" 
d="M298 0h-116l-119 642h100l6 -72l82 -474h6l215 469l26 77h96z" />
    <glyph glyph-name="W" unicode="W" horiz-adv-x="859" 
d="M611 0h-102l-65 351h-8l-156 -351h-104l-105 642h96l2 -67l76 -470h7l167 377l-29 160h101l5 -77l78 -460h7l207 464l24 73h92z" />
    <glyph glyph-name="X" unicode="X" horiz-adv-x="573" 
d="M360 329l159 -329h-114l-19 56l-102 202l-158 -208l-32 -50h-102l243 327l-155 315h115l19 -56l95 -189l143 192l32 53h105z" />
    <glyph glyph-name="Y" unicode="Y" horiz-adv-x="518" 
d="M295 226l-6 -42l-19 -184h-99l30 184l4 44l-143 414h102l7 -39l89 -273h9l167 270l21 42h105z" />
    <glyph glyph-name="Z" unicode="Z" horiz-adv-x="514" 
d="M520 570l-391 -492h234l98 8l4 -6l-18 -82l-123 2h-259l-63 -3l10 72l392 494h-218l-100 -8l-4 6l19 82l376 -1l52 1z" />
    <glyph glyph-name="bracketleft" unicode="[" horiz-adv-x="291" 
d="M328 641l-6 -45l-116 -13l-79 -648l113 -12l-6 -46l-6 -5l-187 10l51 377l41 378l191 10z" />
    <glyph glyph-name="backslash" unicode="\" horiz-adv-x="298" 
d="M98 679l206 -784l-7 -9h-67l-206 783l8 10h66z" />
    <glyph glyph-name="bracketright" unicode="]" horiz-adv-x="291" 
d="M-30 -122l6 45l116 12l80 649l-114 12l6 46l6 5l187 -10l-50 -378l-42 -377l-191 -10z" />
    <glyph glyph-name="asciicircum" unicode="^" horiz-adv-x="429" 
d="M399 138l-8 -9l-57 -14l-88 307h-6l-170 -305l-10 -5l-53 21l196 354l11 6h80z" />
    <glyph glyph-name="underscore" unicode="_" horiz-adv-x="448" 
d="M423 -95l-12 -56h-465l-7 7l12 56h466z" />
    <glyph glyph-name="grave" unicode="`" 
d="M169 705l10 1c57 -55 111 -100 170 -148l-26 -38l-10 -1c-59 39 -116 79 -178 124l-2 10z" />
    <glyph glyph-name="a" unicode="a" horiz-adv-x="447" 
d="M405 463l-49 -352l-4 -108l-96 -7l26 182h-11c-41 -70 -88 -134 -140 -186h-16c-59 28 -87 81 -87 161c0 132 77 284 236 315h5l67 -24l59 25zM142 93c23 0 94 84 166 260v3v12l-63 24c-82 0 -130 -93 -130 -212c0 -69 14 -87 27 -87z" />
    <glyph glyph-name="b" unicode="b" horiz-adv-x="449" 
d="M316 468h16c58 -28 86 -81 86 -161c0 -134 -77 -285 -235 -315h-5l-74 16l-60 11l82 577l1 101l96 7l-59 -422h12c40 70 88 134 140 186zM139 85l63 -18c82 0 130 94 130 212c0 70 -14 89 -27 89c-21 0 -93 -83 -164 -253z" />
    <glyph glyph-name="c" unicode="c" horiz-adv-x="341" 
d="M339 446l6 -13l-26 -74l-20 -2c-27 29 -44 37 -67 37c-69 0 -113 -79 -113 -213c0 -79 17 -108 54 -108c26 0 57 16 93 85l14 -1l30 -40c-43 -73 -85 -105 -146 -124h-14c-83 13 -120 55 -120 170c0 164 73 305 241 305z" />
    <glyph glyph-name="d" unicode="d" horiz-adv-x="449" 
d="M441 704l-84 -593l-4 -108l-96 -7l26 182h-11c-41 -70 -89 -134 -141 -186h-17c-59 28 -87 81 -87 161c0 132 78 285 238 315h5l51 -19l21 147l2 101zM141 92c21 0 94 83 166 254l3 22l-64 24c-84 0 -133 -93 -133 -211c0 -70 15 -89 28 -89z" />
    <glyph glyph-name="e" unicode="e" horiz-adv-x="385" 
d="M308 158l32 -42c-48 -66 -101 -108 -162 -123h-13c-94 7 -135 67 -135 166c0 177 92 304 233 311l11 -1c56 -10 91 -41 91 -97c0 -77 -73 -141 -245 -197c2 -73 21 -104 60 -104c43 0 87 37 114 88zM237 403c-59 0 -103 -62 -114 -162c104 31 157 74 157 124
c0 25 -13 38 -43 38z" />
    <glyph glyph-name="f" unicode="f" horiz-adv-x="290" 
d="M440 681l-26 -68l-13 -2c-27 15 -60 23 -82 23c-48 0 -84 -35 -92 -103l-11 -80h105l7 -8l-8 -53h-112l-26 -189l-30 -210l-4 -108l-96 -7l45 314l27 200h-69l-5 7l7 54h75l8 56c17 126 77 197 199 197l97 -15z" />
    <glyph glyph-name="g" unicode="g" horiz-adv-x="450" 
d="M408 463l-50 -351l-7 -72c-21 -150 -122 -238 -239 -238c-91 0 -152 54 -168 148l4 10l139 78l1 9c-31 26 -44 64 -44 121c0 137 75 271 223 299h5l67 -24l58 26zM312 369l-63 25c-81 0 -121 -85 -121 -192c0 -70 17 -94 27 -94c19 0 85 84 154 234l2 15zM287 189h-12
c-37 -69 -83 -126 -133 -167l-86 -63c-8 -7 -11 -11 -11 -19c0 -33 33 -67 88 -67c65 0 117 48 130 141z" />
    <glyph glyph-name="h" unicode="h" horiz-adv-x="479" 
d="M332 466h11c51 -10 89 -41 88 -90l-1 -13l-40 -253l-5 -107l-98 -7l53 330l1 11c0 16 -4 26 -18 26c-36 0 -102 -85 -183 -256l-4 -104l-96 -7l86 600l1 101l96 7l-62 -445h10c59 101 106 162 161 207z" />
    <glyph glyph-name="i" unicode="i" horiz-adv-x="225" 
d="M160 674c33 0 52 -20 52 -52c0 -35 -22 -57 -55 -57c-34 0 -52 20 -52 53c0 34 21 56 55 56zM137 111l-4 -108l-95 -7l51 361l4 101l94 7z" />
    <glyph glyph-name="j" unicode="j" horiz-adv-x="242" 
d="M171 674c33 0 52 -20 52 -52c0 -35 -22 -57 -55 -57c-34 0 -52 20 -52 53c0 34 21 56 55 56zM202 460l-50 -348l-9 -92c-13 -105 -55 -161 -156 -214l-31 43l1 10c62 39 90 79 100 157l47 340l2 34h-73l-5 7l8 54h68l94 13z" />
    <glyph glyph-name="k" unicode="k" horiz-adv-x="477" 
d="M452 361c0 -67 -51 -127 -136 -179c33 -59 69 -117 106 -173l-4 -7l-80 -14l-9 4c-36 60 -68 123 -97 184l3 15c79 51 123 99 123 144c0 22 -10 28 -20 28c-39 0 -108 -75 -198 -264l-3 -96l-96 -7l85 600l2 101l96 7l-62 -440h12c60 91 112 159 172 201l14 1
c54 -11 92 -43 92 -105z" />
    <glyph glyph-name="l" unicode="l" horiz-adv-x="231" 
d="M140 111l-4 -108l-95 -7l85 600l2 101l95 7z" />
    <glyph glyph-name="m" unicode="m" horiz-adv-x="730" 
d="M583 466h11c50 -10 89 -41 88 -90l-1 -13l-41 -253l-5 -107l-97 -7l52 330l1 11c0 16 -4 26 -17 26c-37 0 -104 -87 -186 -263l-5 -97l-98 -7l53 330l1 11c0 16 -4 26 -18 26c-36 0 -102 -85 -183 -256l-4 -104l-96 -7l52 361l4 101l94 7l-29 -206h10
c59 101 106 162 161 207h11c51 -10 89 -41 88 -90l-1 -13l-16 -104h10c59 101 106 162 161 207z" />
    <glyph glyph-name="n" unicode="n" horiz-adv-x="477" 
d="M330 466h11c49 -10 89 -41 88 -90l-1 -13l-40 -253l-5 -107l-98 -7l53 330l1 11c0 16 -4 26 -18 26c-36 0 -102 -85 -183 -256l-4 -104l-96 -7l52 361l4 101l94 7l-29 -206h10c59 101 106 162 161 207z" />
    <glyph glyph-name="o" unicode="o" horiz-adv-x="420" 
d="M263 469h10c75 -14 116 -62 116 -157c0 -186 -84 -310 -229 -321l-10 1c-77 15 -118 63 -118 163c0 180 88 306 231 314zM245 393c-86 0 -125 -91 -125 -238c0 -64 15 -90 55 -90c85 0 124 94 124 240c0 64 -16 88 -54 88z" />
    <glyph glyph-name="p" unicode="p" horiz-adv-x="446" 
d="M317 468h16c57 -28 86 -81 86 -161c0 -134 -78 -285 -236 -315h-5l-54 12l-11 -79l-4 -110l-96 -7l78 549l4 101l94 7l-26 -183h13c40 70 88 134 141 186zM136 86l66 -19c83 0 130 94 130 212c0 70 -14 89 -27 89c-22 0 -95 -86 -166 -260z" />
    <glyph glyph-name="q" unicode="q" horiz-adv-x="446" 
d="M405 463l-76 -541l-4 -107l-96 -7l53 370h-12c-41 -70 -88 -134 -140 -186h-16c-59 28 -87 81 -87 161c0 132 77 285 236 315h6l67 -24l59 25zM140 92c23 0 96 85 167 261v3l1 12l-64 24c-83 0 -131 -93 -131 -211c0 -70 15 -89 27 -89z" />
    <glyph glyph-name="r" unicode="r" horiz-adv-x="338" 
d="M359 463l-18 -126l-8 -5l-11 2c-62 -9 -108 -54 -182 -233l-4 -98l-96 -7l52 361l4 101l94 7l-28 -199h9c41 77 88 141 162 199z" />
    <glyph glyph-name="s" unicode="s" horiz-adv-x="326" 
d="M228 468c32 -7 59 -15 90 -26l-26 -85l-14 -4c-28 32 -58 48 -85 48c-35 0 -61 -29 -61 -59c0 -68 151 -83 151 -200c0 -86 -76 -149 -183 -150c-38 5 -71 14 -107 33l24 88l13 5c29 -40 67 -62 101 -62c40 0 65 31 65 61c0 74 -153 87 -152 203c0 88 85 149 184 148z
" />
    <glyph glyph-name="t" unicode="t" horiz-adv-x="330" 
d="M162 130l-2 -17c0 -19 7 -27 24 -27c22 0 49 23 81 67l14 -1l28 -38c-44 -55 -85 -92 -130 -118l-13 -1c-56 9 -92 37 -92 91l1 16l42 257l3 31h-64l-6 7l6 54h70l10 104l91 36l10 -6l-21 -134h116l7 -8l-6 -53h-127z" />
    <glyph glyph-name="u" unicode="u" horiz-adv-x="478" 
d="M436 465l-51 -354l-3 -108l-96 -7l29 204h-8c-59 -99 -105 -158 -160 -203h-11c-51 10 -90 40 -89 89l1 14l41 253l7 106l94 8l-50 -322l-2 -21c-1 -18 7 -24 18 -24c36 0 100 83 180 252l1 5l4 101z" />
    <glyph glyph-name="v" unicode="v" horiz-adv-x="419" 
d="M303 448l88 19c14 -26 21 -53 21 -80c0 -41 -16 -84 -44 -134l-147 -253h-105l-51 458l94 7l3 -82l21 -283h8l100 179c19 35 30 65 30 92c0 23 -8 44 -22 66z" />
    <glyph glyph-name="w" unicode="w" horiz-adv-x="692" 
d="M505 0h-101l-31 333h-9l-143 -333h-103l-53 458l93 7l1 -65l25 -293h9l124 287l23 67h100l3 -61l26 -292h7l90 171c18 36 30 65 30 92c0 23 -8 44 -22 66l4 11l88 19c14 -26 21 -53 21 -80c0 -41 -17 -84 -44 -134z" />
    <glyph glyph-name="x" unicode="x" horiz-adv-x="451" 
d="M395 4l-104 -10l-15 54l-60 128l-94 -129l-25 -47h-104l172 238l-100 219l101 11l13 -44l58 -124l89 119l24 42h100l-167 -229z" />
    <glyph glyph-name="y" unicode="y" horiz-adv-x="421" 
d="M305 448l88 19c15 -26 21 -53 21 -80c0 -47 -18 -97 -50 -154l-108 -195c-96 -172 -170 -233 -262 -233c-27 0 -56 5 -84 16l-4 80l10 8c27 -9 53 -14 75 -14c53 0 106 29 154 93l-94 470l93 7l11 -82l43 -275h14l76 152c22 43 35 78 35 110c0 24 -7 45 -22 67z" />
    <glyph glyph-name="z" unicode="z" horiz-adv-x="414" 
d="M395 449l-274 -359l30 7c25 0 62 -19 86 -19c53 0 76 28 81 114l13 7l45 -21c-5 -130 -58 -188 -139 -188c-56 0 -106 33 -151 33c-23 0 -40 -7 -62 -29h-11l-29 27l272 361l-120 -1l-74 -10l-8 7l18 85l9 6l72 -5l185 -3l28 16z" />
    <glyph glyph-name="braceleft" unicode="{" horiz-adv-x="291" 
d="M265 655c21 0 37 -3 55 -7l3 -8l-15 -51c-13 3 -23 5 -36 5c-47 0 -70 -29 -70 -94c0 -33 6 -80 6 -111c0 -61 -29 -101 -81 -123l-1 -4c37 -18 56 -50 56 -90c0 -52 -44 -128 -44 -183c0 -38 18 -56 53 -56c13 0 23 2 37 5l3 -51l-6 -7c-19 -6 -36 -8 -57 -8
c-72 0 -108 34 -108 97c0 67 42 148 42 198c0 38 -21 63 -67 72l6 48c61 13 88 45 88 109c0 30 -3 75 -3 109c0 103 49 150 139 150z" />
    <glyph glyph-name="bar" unicode="|" horiz-adv-x="312" 
d="M263 793l-63 -504l-67 -546l-68 -4l-6 9l65 535l64 511l69 5z" />
    <glyph glyph-name="braceright" unicode="}" horiz-adv-x="291" 
d="M35 -128c-21 0 -37 3 -55 8l-3 7l15 52c13 -3 23 -5 36 -5c46 0 70 29 70 93c0 33 -6 80 -6 111c0 61 29 101 81 124l1 4c-37 17 -56 50 -56 89c0 53 43 128 43 183c0 38 -17 57 -52 57c-13 0 -23 -2 -37 -5l-3 50l6 8c19 5 36 7 57 7c71 0 108 -33 108 -96
c0 -67 -43 -149 -43 -198c0 -39 22 -63 68 -73l-6 -48c-61 -12 -89 -45 -89 -109c0 -29 4 -75 4 -108c0 -103 -49 -151 -139 -151z" />
    <glyph glyph-name="asciitilde" unicode="~" horiz-adv-x="480" 
d="M152 250c-19 0 -42 -24 -76 -53h-10l-22 33l1 10l86 79l11 5c50 -8 164 -50 196 -50c18 0 41 23 76 53h10l21 -33l-1 -10l-85 -80l-12 -4c-50 7 -163 50 -195 50z" />
    <glyph glyph-name="nbspace" unicode="&#xa0;" horiz-adv-x="143" 
 />
    <glyph glyph-name="exclamdown" unicode="&#xa1;" horiz-adv-x="266" 
d="M152 361c-32 0 -51 20 -51 53c0 34 21 56 55 56c33 0 52 -19 52 -53s-21 -56 -56 -56zM24 -185l79 426l58 7l9 -11l-49 -418l-11 -11l-76 -5z" />
    <glyph glyph-name="cent" unicode="&#xa2;" 
d="M346 413l-17 -3c-21 21 -39 30 -57 33l-55 -331c23 11 49 35 75 80l12 -1l26 -35c-37 -61 -75 -93 -124 -111l-27 -166h-48l-6 9l23 149c-73 15 -111 56 -111 170c0 142 58 263 187 293l25 153h48l7 -9l-22 -137h8l72 -21l6 -11zM113 221c0 -71 15 -105 46 -115l55 331
c-63 -23 -101 -101 -101 -216z" />
    <glyph glyph-name="sterling" unicode="&#xa3;" horiz-adv-x="430" 
d="M322 593c34 0 70 -5 108 -16l-14 -73l-6 -5c-37 23 -70 33 -101 33c-57 0 -92 -32 -99 -94l-13 -100h128l3 -6l-11 -47h-127l-15 -115c-6 -48 -21 -77 -52 -98v-4h158l95 7l3 -7l-15 -70l-107 2h-255l-4 6l11 51c50 11 78 45 85 105l15 123h-71l-3 6l10 47h70l11 87
c12 109 83 168 196 168z" />
    <glyph glyph-name="currency" unicode="&#xa4;" horiz-adv-x="436" 
d="M442 507l-2 -10l-75 -63c11 -18 17 -41 17 -65c0 -33 -13 -64 -35 -90l62 -61v-10l-48 -44l-10 1l-54 67c-25 -16 -54 -26 -83 -26c-27 0 -54 9 -73 25l-69 -69h-10l-40 42l3 10l74 62c-11 18 -17 42 -17 66c0 34 15 64 36 90l-61 61v10l47 44h10l56 -69
c24 16 52 25 81 25c27 0 53 -8 72 -23l70 68l10 1zM244 448c-57 0 -106 -45 -106 -103c0 -49 34 -83 83 -83c59 0 107 44 107 103c0 48 -34 83 -84 83z" />
    <glyph glyph-name="yen" unicode="&#xa5;" horiz-adv-x="534" 
d="M502 298l4 -4l-9 -42h-149l-58 -83v-4h194l5 -6l-8 -41h-198l-12 -118h-81l18 118h-178l-4 5l8 42h180l1 8l-32 79h-137l-3 6l8 40h113l-82 201h86l8 -30l86 -209h7l149 206l18 33h85l-140 -201h121z" />
    <glyph glyph-name="brokenbar" unicode="&#xa6;" horiz-adv-x="312" 
d="M263 793l-52 -419l-69 -8l-6 6l51 422l70 5zM183 150l-50 -407l-67 -4l-7 9l50 404l67 8z" />
    <glyph glyph-name="section" unicode="&#xa7;" horiz-adv-x="427" 
d="M200 518c0 -76 196 -108 196 -236c0 -59 -42 -114 -109 -144c24 -24 41 -53 41 -89c0 -80 -83 -149 -189 -149c-43 0 -98 11 -136 31l21 80l10 7c36 -36 80 -56 121 -56c54 0 89 36 89 67c0 78 -198 110 -198 237c0 61 45 116 110 147c-24 24 -40 51 -40 86
c0 80 81 149 186 149c34 0 77 -7 112 -22l-21 -79l-13 -3c-35 27 -69 40 -98 40c-48 0 -82 -36 -82 -66zM238 177c56 23 75 51 75 80c0 48 -55 79 -107 116c-51 -23 -75 -53 -75 -83c0 -46 55 -76 107 -113z" />
    <glyph glyph-name="dieresis" unicode="&#xa8;" 
d="M162 662c29 0 47 -20 47 -49c0 -33 -20 -54 -51 -54c-32 0 -49 18 -49 50s20 53 53 53zM326 661c30 0 47 -19 47 -49c0 -33 -19 -54 -50 -54c-32 0 -49 19 -49 50c0 32 19 53 52 53z" />
    <glyph glyph-name="copyright" unicode="&#xa9;" horiz-adv-x="692" 
d="M353 598c179 0 297 -122 297 -305s-118 -305 -297 -305c-178 0 -297 122 -297 305s119 305 297 305zM353 560c-155 0 -259 -107 -259 -267s104 -267 259 -267s259 107 259 267s-104 267 -259 267zM371 465c32 0 64 -9 92 -21l-13 -53l-6 -3c-21 13 -51 21 -76 21
c-62 0 -94 -35 -94 -109c0 -78 32 -118 95 -118c26 0 57 8 81 20l7 -2l-6 -54c-27 -13 -58 -20 -86 -20c-106 0 -160 60 -160 168c0 109 59 171 166 171z" />
    <glyph glyph-name="ordfeminine" unicode="&#xaa;" horiz-adv-x="317" 
d="M325 644l-32 -237l-5 -72l-72 -6l17 130l-1 -4h-8c-27 -50 -56 -94 -89 -127h-11c-52 18 -66 50 -66 103c0 96 51 191 156 214h5l53 -7l46 11zM145 395c11 0 53 54 99 152l3 23l1 15l-43 8c-51 -1 -80 -58 -80 -134c0 -47 12 -64 20 -64z" />
    <glyph glyph-name="guillemetleft" unicode="&#xab;" horiz-adv-x="409" 
d="M35 220l2 18l163 171l43 -26v-11l-135 -146l100 -146l-4 -11l-49 -25zM207 220l2 18l163 171l43 -26v-11l-135 -146l100 -146l-4 -11l-49 -25z" />
    <glyph glyph-name="logicalnot" unicode="&#xac;" horiz-adv-x="480" 
d="M434 290l-29 -233l-60 -5l-7 7l21 171h-325l-6 7l12 60h389z" />
    <glyph glyph-name="softhyphen" unicode="&#xad;" horiz-adv-x="306" 
d="M286 298l-8 -61l-244 -35l-8 8l8 62l244 34z" />
    <glyph glyph-name="registered" unicode="&#xae;" horiz-adv-x="441" 
d="M221 702c110 0 183 -72 183 -182c0 -111 -73 -184 -183 -184s-183 73 -183 184c0 110 73 182 183 182zM222 365c92 0 154 61 154 155c0 93 -62 153 -154 153c-93 0 -155 -60 -155 -153c0 -94 62 -155 155 -155zM296 565c0 -24 -14 -46 -39 -59c16 -23 33 -47 52 -69
l-1 -4c-11 -4 -26 -6 -39 -7l-4 3c-16 22 -29 45 -41 67h-33v-5l2 -62h-40l1 58l-1 136h77c43 0 66 -20 66 -58zM192 528l34 -2c19 7 29 17 29 35c0 21 -13 31 -38 32l-24 -1z" />
    <glyph glyph-name="macron" unicode="&#xaf;" 
d="M388 636l-5 -56h-282l-7 8l6 55h282z" />
    <glyph glyph-name="degree" unicode="&#xb0;" horiz-adv-x="293" 
d="M198 649c66 0 113 -49 113 -113c0 -76 -68 -139 -143 -139c-67 0 -114 49 -114 113c0 77 68 139 144 139zM193 604c-49 0 -93 -40 -93 -89c0 -40 31 -73 72 -73c50 0 93 40 93 89c0 41 -31 73 -72 73z" />
    <glyph glyph-name="plusminus" unicode="&#xb1;" horiz-adv-x="478" 
d="M302 468l-22 -171h170l8 -7l-13 -60h-173l-20 -173l-62 -5l-6 7l21 171h-172l-5 7l13 60h172l21 173l61 6zM415 -40l-6 -60h-411l-7 7l6 60h410z" />
    <glyph glyph-name="twosuperior" unicode="&#xb2;" horiz-adv-x="353" 
d="M208 704c59 0 108 -32 108 -83c0 -43 -33 -85 -104 -160l-73 -77l1 -2h116l66 3l3 -6l-16 -62l-85 3h-166l-27 -1l-4 3l5 48l111 109c55 56 89 92 89 124c0 20 -15 36 -44 36c-31 0 -70 -18 -103 -49h-9l-7 60c48 35 92 54 139 54z" />
    <glyph glyph-name="threesuperior" unicode="&#xb3;" horiz-adv-x="312" 
d="M201 705c62 0 113 -33 113 -84c0 -34 -22 -73 -74 -96l-1 -3c44 -12 66 -39 66 -80c0 -75 -74 -126 -180 -126c-22 0 -49 2 -71 7l3 56l6 5c25 -6 48 -10 70 -10c58 0 95 25 95 64c0 30 -22 46 -62 48h-45l-4 4l7 53h32c35 1 75 28 75 63c0 24 -17 37 -45 37
c-26 0 -52 -10 -84 -30h-9l-6 53c40 26 73 39 114 39z" />
    <glyph glyph-name="acute" unicode="&#xb4;" 
d="M312 705l37 -52l-3 -10c-62 -45 -119 -85 -178 -124l-10 1l-25 38c58 48 112 93 170 148z" />
    <glyph glyph-name="micro" unicode="&#xb5;" horiz-adv-x="488" 
d="M444 464l-49 -353l-4 -108l-92 -7l30 211h-10c-61 -103 -109 -166 -167 -211h-11c-6 1 -12 3 -17 5l-11 -78l-4 -110l-92 -7l77 551l4 101l90 6l-46 -336l-2 -11c1 -17 10 -23 20 -23c36 0 105 87 190 268l4 96z" />
    <glyph glyph-name="paragraph" unicode="&#xb6;" horiz-adv-x="499" 
d="M525 633l-16 -67h-71l-50 -379l-6 -55c-11 -92 -64 -155 -196 -212l-22 45l2 10c79 44 116 89 123 151l6 47l46 394h-54c-80 -9 -125 -65 -125 -150c0 -66 35 -116 102 -140l-39 -53c-107 23 -166 89 -166 188c0 144 102 230 263 230h197z" />
    <glyph glyph-name="periodcentered" unicode="&#xb7;" horiz-adv-x="230" 
d="M119 302c33 0 52 -20 52 -52c0 -35 -22 -57 -55 -57c-34 0 -52 20 -52 53c0 34 21 56 55 56z" />
    <glyph glyph-name="cedilla" unicode="&#xb8;" 
d="M156 -50l34 -20c29 -16 39 -35 39 -57c0 -41 -34 -70 -86 -70c-34 0 -58 15 -76 31l9 45l5 2c17 -18 34 -30 57 -30c18 0 30 8 30 24c0 12 -9 18 -20 23l-49 29l24 94h53z" />
    <glyph glyph-name="onesuperior" unicode="&#xb9;" horiz-adv-x="264" 
d="M238 697l-32 -242l-14 -135h-81l18 126l21 171l-86 -20l-5 4l8 62l162 43z" />
    <glyph glyph-name="ordmasculine" unicode="&#xba;" horiz-adv-x="302" 
d="M216 648h8c51 -9 81 -42 81 -107c0 -126 -61 -209 -159 -214l-6 1c-52 7 -82 42 -82 110c0 122 61 205 158 210zM203 594c-52 0 -77 -61 -77 -156c0 -42 10 -59 33 -59c52 0 75 58 75 157c0 41 -8 58 -31 58z" />
    <glyph glyph-name="guillemetright" unicode="&#xbb;" horiz-adv-x="404" 
d="M204 234l-2 -18l-163 -171l-43 26v11l135 146l-100 146l4 11l49 25zM377 234l-3 -18l-163 -171l-43 26v11l135 146l-99 146l3 11l49 25z" />
    <glyph glyph-name="onequarter" unicode="&#xbc;" horiz-adv-x="716" 
d="M621 641l-561 -732l-38 25l-4 12l561 735l37 -25zM56 539l-5 4l8 62l162 43l9 -9l-32 -242l-14 -135h-81l18 126l21 171zM664 95l-57 2l-7 -92l-6 -5l-63 -3l-4 4l14 96h-113l-55 -2l-5 6l6 50l195 230h73l-29 -224h57l4 -8zM446 157h103l17 136h-5z" />
    <glyph glyph-name="onehalf" unicode="&#xbd;" horiz-adv-x="733" 
d="M616 656l5 -15l-561 -732l-38 25l-4 12l561 735zM230 639l-32 -242l-14 -135h-81l18 126l21 171l-86 -20l-5 4l8 62l162 43zM570 384c59 0 108 -32 108 -83c0 -43 -33 -85 -104 -160l-73 -77l1 -2h116l66 3l3 -6l-16 -62l-85 3h-166l-27 -1l-4 3l5 48l111 109
c55 56 89 92 89 124c0 20 -15 36 -44 36c-31 0 -70 -18 -103 -49h-9l-7 60c48 35 92 54 139 54z" />
    <glyph glyph-name="threequarters" unicode="&#xbe;" horiz-adv-x="754" 
d="M659 641l-561 -732l-38 25l-4 12l561 735l37 -25zM289 384c0 -75 -74 -126 -180 -126c-22 0 -49 2 -71 7l3 56l6 5c25 -6 48 -10 70 -10c58 0 95 25 95 64c0 30 -22 46 -62 48h-45l-4 4l7 53h32c35 1 75 28 75 63c0 24 -17 37 -45 37c-26 0 -52 -10 -84 -30h-9l-6 53
c40 26 73 39 114 39c62 0 113 -33 113 -84c0 -34 -22 -73 -74 -96l-1 -3c44 -12 66 -39 66 -80zM702 95l-57 2l-7 -92l-6 -5l-63 -3l-4 4l14 96h-113l-55 -2l-5 6l6 50l195 230h73l-29 -224h57l4 -8zM484 157h103l17 136h-5z" />
    <glyph glyph-name="questiondown" unicode="&#xbf;" horiz-adv-x="334" 
d="M211 361c-32 0 -51 20 -51 53c0 34 21 56 55 56c33 0 52 -19 52 -53s-21 -56 -56 -56zM221 -193l-11 -6c-155 9 -240 61 -240 146c0 58 38 111 104 148l86 51l2 4l6 92l69 9l7 -8l-6 -117l-6 -10l-101 -54c-44 -24 -71 -57 -71 -96c0 -56 56 -88 180 -96l6 -10z" />
    <glyph glyph-name="Agrave" unicode="&#xc0;" horiz-adv-x="561" 
d="M453 726l-11 -4c-66 26 -130 51 -201 83l-4 10l25 57l10 2c69 -40 132 -73 198 -106zM515 0h-99l-6 71l-16 92l-130 3l-117 -2l-40 -89l-26 -75h-97l298 642h115zM380 244l-51 300h-8l-136 -299l96 -2z" />
    <glyph glyph-name="Aacute" unicode="&#xc1;" horiz-adv-x="561" 
d="M263 723l-17 42c67 34 130 66 198 107l10 -3l25 -57l-4 -10c-70 -31 -135 -57 -201 -83zM515 0h-99l-6 71l-16 92l-130 3l-117 -2l-40 -89l-26 -75h-97l298 642h115zM380 244l-51 300h-8l-136 -299l96 -2z" />
    <glyph glyph-name="Acircumflex" unicode="&#xc2;" horiz-adv-x="561" 
d="M234 730l-14 41c48 30 91 62 131 95h24c35 -33 74 -65 114 -95l-25 -41h-10c-33 22 -63 43 -95 66c-38 -23 -76 -44 -114 -66h-11zM515 0h-99l-6 71l-16 92l-130 3l-117 -2l-40 -89l-26 -75h-97l298 642h115zM380 244l-51 300h-8l-136 -299l96 -2z" />
    <glyph glyph-name="Atilde" unicode="&#xc3;" horiz-adv-x="561" 
d="M516 830v-9l-64 -76l-10 -4c-44 5 -129 37 -155 37c-17 0 -34 -23 -59 -49h-9l-30 30v9l64 76l11 3c44 -5 130 -35 155 -35c17 0 33 21 59 48h9zM397 642l118 -642h-99l-6 71l-16 92l-130 3l-117 -2l-40 -89l-26 -75h-97l298 642h115zM380 244l-51 300h-8l-136 -299
l96 -2z" />
    <glyph glyph-name="Adieresis" unicode="&#xc4;" horiz-adv-x="561" 
d="M270 740c-32 0 -49 18 -49 50s20 53 53 53c29 0 47 -20 47 -49c0 -33 -20 -54 -51 -54zM435 739c-32 0 -49 19 -49 50c0 32 19 53 52 53c30 0 47 -19 47 -49c0 -33 -19 -54 -50 -54zM515 0h-99l-6 71l-16 92l-130 3l-117 -2l-40 -89l-26 -75h-97l298 642h115zM380 244
l-51 300h-8l-136 -299l96 -2z" />
    <glyph glyph-name="Aring" unicode="&#xc5;" horiz-adv-x="561" 
d="M352 714c-50 0 -85 30 -85 86c0 54 32 87 89 87s86 -35 86 -84c0 -57 -38 -89 -90 -89zM353 842c-28 0 -42 -15 -42 -41c0 -29 17 -43 44 -43c25 0 43 13 43 41c0 26 -14 43 -45 43zM515 0h-99l-6 71l-16 92l-130 3l-117 -2l-40 -89l-26 -75h-97l298 642h115zM380 244
l-51 300h-8l-136 -299l96 -2z" />
    <glyph glyph-name="AE" unicode="&#xc6;" horiz-adv-x="778" 
d="M747 76l-17 -76h-348l4 71l-1 176l-223 -54l-71 -118l-36 -75h-99l393 642h382l5 -9l-17 -76l-152 5h-89v-218l204 47l7 -6l-2 -71l-208 -45v-191h106l157 6zM384 322l-2 222h-6l-159 -261z" />
    <glyph glyph-name="Ccedilla" unicode="&#xc7;" horiz-adv-x="503" 
d="M366 648c64 0 121 -16 164 -45l-29 -87l-10 -3c-36 33 -80 53 -137 53c-132 0 -207 -105 -207 -294c0 -128 53 -196 147 -196c54 0 112 20 161 56l9 -6l-20 -90c-45 -24 -85 -37 -130 -41l-12 -44l34 -20c29 -16 39 -35 39 -57c0 -41 -34 -70 -86 -70
c-34 0 -58 15 -76 31l9 45l5 2c17 -18 34 -30 57 -30c18 0 30 8 30 24c0 12 -9 18 -20 23l-49 29l17 65c-140 8 -219 103 -219 264c0 244 119 391 323 391z" />
    <glyph glyph-name="Egrave" unicode="&#xc8;" horiz-adv-x="475" 
d="M431 726l-11 -4c-66 26 -130 51 -201 83l-4 10l25 57l10 2c69 -40 132 -73 198 -106zM226 560l-27 -192l113 -2l100 3l6 -7l-17 -76l-108 3l-105 -2l-12 -86l-12 -120l120 -2l146 5l4 -8l-16 -76h-361l30 193l51 449h362l5 -9l-17 -76l-145 4z" />
    <glyph glyph-name="Eacute" unicode="&#xc9;" horiz-adv-x="475" 
d="M241 723l-17 42c67 34 130 66 198 107l10 -3l25 -57l-4 -10c-70 -31 -135 -57 -201 -83zM226 560l-27 -192l113 -2l100 3l6 -7l-17 -76l-108 3l-105 -2l-12 -86l-12 -120l120 -2l146 5l4 -8l-16 -76h-361l30 193l51 449h362l5 -9l-17 -76l-145 4z" />
    <glyph glyph-name="Ecircumflex" unicode="&#xca;" horiz-adv-x="475" 
d="M212 730l-14 41c48 30 91 62 131 95h24c35 -33 74 -65 114 -95l-25 -41h-10c-33 22 -63 43 -95 66c-38 -23 -76 -44 -114 -66h-11zM226 560l-27 -192l113 -2l100 3l6 -7l-17 -76l-108 3l-105 -2l-12 -86l-12 -120l120 -2l146 5l4 -8l-16 -76h-361l30 193l51 449h362l5 -9
l-17 -76l-145 4z" />
    <glyph glyph-name="Edieresis" unicode="&#xcb;" horiz-adv-x="475" 
d="M248 740c-32 0 -49 18 -49 50s20 53 53 53c29 0 47 -20 47 -49c0 -33 -20 -54 -51 -54zM413 739c-32 0 -49 19 -49 50c0 32 19 53 52 53c30 0 47 -19 47 -49c0 -33 -19 -54 -50 -54zM226 560l-27 -192l113 -2l100 3l6 -7l-17 -76l-108 3l-105 -2l-12 -86l-12 -120l120 -2
l146 5l4 -8l-16 -76h-361l30 193l51 449h362l5 -9l-17 -76l-145 4z" />
    <glyph glyph-name="Igrave" unicode="&#xcc;" horiz-adv-x="270" 
d="M113 872l10 2c69 -40 132 -73 198 -106l-17 -42l-11 -4c-66 26 -130 51 -201 83l-4 10zM176 201l-20 -201h-99l30 193l50 449h99z" />
    <glyph glyph-name="Iacute" unicode="&#xcd;" horiz-adv-x="270" 
d="M305 869l25 -57l-4 -10c-70 -31 -135 -57 -201 -83l-11 4l-17 42c67 34 130 66 198 107zM176 201l-20 -201h-99l30 193l50 449h99z" />
    <glyph glyph-name="Icircumflex" unicode="&#xce;" horiz-adv-x="270" 
d="M85 730l-14 41c48 30 91 62 131 95h24c35 -33 74 -65 114 -95l-25 -41h-10c-33 22 -63 43 -95 66c-38 -23 -76 -44 -114 -66h-11zM176 201l-20 -201h-99l30 193l50 449h99z" />
    <glyph glyph-name="Eth" unicode="&#xd0;" horiz-adv-x="653" 
d="M163 642l225 4c156 0 247 -90 247 -251c0 -247 -121 -401 -341 -401c-41 0 -155 3 -211 6h-1l30 193l11 96h-90l-4 8l9 60h92l32 285h1zM314 73c136 0 217 102 217 305c0 127 -52 187 -154 187c-20 0 -89 -2 -126 -4l-29 -204h143l3 -8l-7 -60h-149l-12 -88l-12 -121
c44 -4 107 -7 126 -7z" />
    <glyph glyph-name="Ntilde" unicode="&#xd1;" horiz-adv-x="662" 
d="M564 830v-9l-64 -76l-10 -4c-44 5 -129 37 -155 37c-17 0 -34 -23 -59 -49h-9l-30 30v9l64 76l11 3c44 -5 130 -35 155 -35c17 0 33 21 59 48h9zM567 191l-20 -191h-104l-230 488h-7l-35 -274l-23 -214h-91l29 190l53 452h103l230 -489h7l59 484l92 7z" />
    <glyph glyph-name="Ograve" unicode="&#xd2;" horiz-adv-x="618" 
d="M287 872l10 2c69 -40 132 -73 198 -106l-17 -42l-11 -4c-66 26 -130 51 -201 83l-4 10zM363 649c150 0 238 -93 238 -260c0 -243 -114 -397 -321 -397c-148 0 -237 96 -237 265c0 243 114 392 320 392zM351 568c-141 0 -207 -103 -207 -306c0 -129 46 -191 145 -191
c139 0 208 103 208 308c0 129 -47 189 -146 189z" />
    <glyph glyph-name="Oacute" unicode="&#xd3;" horiz-adv-x="618" 
d="M480 869l25 -57l-4 -10c-70 -31 -135 -57 -201 -83l-11 4l-17 42c67 34 130 66 198 107zM363 649c150 0 238 -93 238 -260c0 -243 -114 -397 -321 -397c-148 0 -237 96 -237 265c0 243 114 392 320 392zM351 568c-141 0 -207 -103 -207 -306c0 -129 46 -191 145 -191
c139 0 208 103 208 308c0 129 -47 189 -146 189z" />
    <glyph glyph-name="Ocircumflex" unicode="&#xd4;" horiz-adv-x="618" 
d="M259 730l-14 41c48 30 91 62 131 95h24c35 -33 74 -65 114 -95l-25 -41h-10c-33 22 -63 43 -95 66c-38 -23 -76 -44 -114 -66h-11zM363 649c150 0 238 -93 238 -260c0 -243 -114 -397 -321 -397c-148 0 -237 96 -237 265c0 243 114 392 320 392zM351 568
c-141 0 -207 -103 -207 -306c0 -129 46 -191 145 -191c139 0 208 103 208 308c0 129 -47 189 -146 189z" />
    <glyph glyph-name="Otilde" unicode="&#xd5;" horiz-adv-x="618" 
d="M541 830v-9l-64 -76l-10 -4c-44 5 -129 37 -155 37c-17 0 -34 -23 -59 -49h-9l-30 30v9l64 76l11 3c44 -5 130 -35 155 -35c17 0 33 21 59 48h9zM363 649c150 0 238 -93 238 -260c0 -243 -114 -397 -321 -397c-148 0 -237 96 -237 265c0 243 114 392 320 392zM351 568
c-141 0 -207 -103 -207 -306c0 -129 46 -191 145 -191c139 0 208 103 208 308c0 129 -47 189 -146 189z" />
    <glyph glyph-name="multiply" unicode="&#xd7;" horiz-adv-x="481" 
d="M429 395l-1 -11l-136 -120l106 -121l-1 -10l-51 -40l-108 122l-138 -122l-40 40l1 9l136 122l-106 120l1 11l50 39l109 -123l136 123z" />
    <glyph glyph-name="Oslash" unicode="&#xd8;" horiz-adv-x="619" 
d="M573 695l-54 -95c53 -43 82 -115 82 -211c0 -243 -114 -397 -321 -397c-38 0 -71 6 -101 18l-67 -117l-55 22l-3 9l69 120c-52 45 -80 117 -80 213c0 243 114 392 320 392c36 0 69 -5 98 -16l54 95l54 -22zM144 262c0 -57 9 -101 28 -133l245 427c-19 8 -41 12 -66 12
c-141 0 -207 -103 -207 -306zM289 71c139 0 208 103 208 308c0 58 -10 102 -29 133l-246 -428c19 -9 41 -13 67 -13z" />
    <glyph glyph-name="Ugrave" unicode="&#xd9;" horiz-adv-x="606" 
d="M282 872l10 2c69 -40 132 -73 198 -106l-17 -42l-11 -4c-66 26 -130 51 -201 83l-4 10zM547 315l-9 -74c-17 -158 -107 -249 -262 -249c-130 0 -211 67 -211 188c0 17 1 34 4 53l12 88l38 321h97l-54 -396c-2 -16 -3 -29 -3 -43c0 -85 42 -126 124 -126
c96 0 152 52 164 159l46 406h98z" />
    <glyph glyph-name="Uacute" unicode="&#xda;" horiz-adv-x="606" 
d="M474 869l25 -57l-4 -10c-70 -31 -135 -57 -201 -83l-11 4l-17 42c67 34 130 66 198 107zM547 315l-9 -74c-17 -158 -107 -249 -262 -249c-130 0 -211 67 -211 188c0 17 1 34 4 53l12 88l38 321h97l-54 -396c-2 -16 -3 -29 -3 -43c0 -85 42 -126 124 -126
c96 0 152 52 164 159l46 406h98z" />
    <glyph glyph-name="Ucircumflex" unicode="&#xdb;" horiz-adv-x="606" 
d="M254 730l-14 41c48 30 91 62 131 95h24c35 -33 74 -65 114 -95l-25 -41h-10c-33 22 -63 43 -95 66c-38 -23 -76 -44 -114 -66h-11zM547 315l-9 -74c-17 -158 -107 -249 -262 -249c-130 0 -211 67 -211 188c0 17 1 34 4 53l12 88l38 321h97l-54 -396c-2 -16 -3 -29 -3 -43
c0 -85 42 -126 124 -126c96 0 152 52 164 159l46 406h98z" />
    <glyph glyph-name="Udieresis" unicode="&#xdc;" horiz-adv-x="606" 
d="M294 843c29 0 47 -20 47 -49c0 -33 -20 -54 -51 -54c-32 0 -49 18 -49 50s20 53 53 53zM458 842c30 0 47 -19 47 -49c0 -33 -19 -54 -50 -54c-32 0 -49 19 -49 50c0 32 19 53 52 53zM547 315l-9 -74c-17 -158 -107 -249 -262 -249c-130 0 -211 67 -211 188
c0 17 1 34 4 53l12 88l38 321h97l-54 -396c-2 -16 -3 -29 -3 -43c0 -85 42 -126 124 -126c96 0 152 52 164 159l46 406h98z" />
    <glyph glyph-name="Thorn" unicode="&#xde;" horiz-adv-x="520" 
d="M222 534l104 1c110 0 180 -54 180 -169c0 -146 -102 -254 -265 -254h-74l-11 -112h-98l28 193l53 449h98zM175 191l110 -3c71 13 119 76 119 164c0 66 -28 101 -105 105l-88 -3l-35 -253z" />
    <glyph glyph-name="germandbls" unicode="&#xdf;" horiz-adv-x="565" 
d="M385 353c0 -73 145 -99 145 -215c0 -83 -75 -145 -180 -146c-40 4 -77 15 -109 33l21 83l12 6c30 -39 67 -60 103 -60c41 0 70 28 70 64c0 74 -146 100 -146 216c0 124 119 140 119 231c0 43 -25 65 -77 65c-58 0 -103 -28 -115 -91l-46 -338l-30 -210l-4 -108l-95 -7
l44 314l28 200h-70l-5 7l8 54h75l9 66c15 119 92 187 210 187c100 0 155 -47 155 -125c0 -121 -122 -143 -122 -226z" />
    <glyph glyph-name="agrave" unicode="&#xe0;" horiz-adv-x="447" 
d="M339 521l-10 -1c-59 39 -116 79 -178 124l-2 10l36 52l10 1c57 -55 111 -100 170 -148zM405 463l-50 -352l-4 -108l-95 -7l26 182h-12c-40 -70 -87 -134 -140 -186h-16c-58 28 -86 81 -86 161c0 132 77 284 236 315h5l67 -24l59 25zM141 93c23 0 95 84 166 260v3l1 12
l-63 24c-82 0 -130 -93 -130 -212c0 -69 14 -87 26 -87z" />
    <glyph glyph-name="aacute" unicode="&#xe1;" horiz-adv-x="447" 
d="M186 521l-25 38c58 48 112 93 170 148l9 -1l37 -52l-3 -10c-62 -45 -119 -85 -178 -124zM405 463l-50 -352l-4 -108l-95 -7l26 182h-12c-40 -70 -87 -134 -140 -186h-16c-58 28 -86 81 -86 161c0 132 77 284 236 315h5l67 -24l59 25zM141 93c23 0 95 84 166 260v3l1 12
l-63 24c-82 0 -130 -93 -130 -212c0 -69 14 -87 26 -87z" />
    <glyph glyph-name="acircumflex" unicode="&#xe2;" horiz-adv-x="447" 
d="M148 525l-20 38c44 39 91 85 143 137h25c35 -48 73 -95 111 -137l-30 -38h-10c-35 35 -65 67 -91 100c-35 -33 -74 -65 -117 -100h-11zM395 469l10 -6l-50 -352l-4 -108l-95 -7l26 182h-12c-40 -70 -87 -134 -140 -186h-16c-58 28 -86 81 -86 161c0 132 77 284 236 315h5
l67 -24zM141 93c23 0 95 84 166 260v3l1 12l-63 24c-82 0 -130 -93 -130 -212c0 -69 14 -87 26 -87z" />
    <glyph glyph-name="atilde" unicode="&#xe3;" horiz-adv-x="447" 
d="M430 650v-9l-64 -76l-10 -4c-44 5 -129 37 -155 37c-17 0 -34 -23 -59 -49h-9l-30 30v9l64 76l11 3c44 -5 130 -35 155 -35c17 0 33 21 59 48h9zM395 469l10 -6l-50 -352l-4 -108l-95 -7l26 182h-12c-40 -70 -87 -134 -140 -186h-16c-58 28 -86 81 -86 161
c0 132 77 284 236 315h5l67 -24zM141 93c23 0 95 84 166 260v3l1 12l-63 24c-82 0 -130 -93 -130 -212c0 -69 14 -87 26 -87z" />
    <glyph glyph-name="adieresis" unicode="&#xe4;" horiz-adv-x="447" 
d="M184 560c-32 0 -49 18 -49 50s20 53 53 53c29 0 47 -20 47 -49c0 -33 -20 -54 -51 -54zM349 559c-32 0 -49 19 -49 50c0 32 19 53 52 53c30 0 47 -19 47 -49c0 -33 -19 -54 -50 -54zM405 463l-50 -352l-4 -108l-95 -7l26 182h-12c-40 -70 -87 -134 -140 -186h-16
c-58 28 -86 81 -86 161c0 132 77 284 236 315h5l67 -24l59 25zM141 93c23 0 95 84 166 260v3l1 12l-63 24c-82 0 -130 -93 -130 -212c0 -69 14 -87 26 -87z" />
    <glyph glyph-name="aring" unicode="&#xe5;" horiz-adv-x="447" 
d="M266 534c-50 0 -85 30 -85 86c0 54 32 87 89 87s86 -35 86 -84c0 -57 -38 -89 -90 -89zM267 662c-28 0 -42 -15 -42 -41c0 -29 17 -43 44 -43c25 0 43 13 43 41c0 26 -14 43 -45 43zM405 463l-50 -352l-4 -108l-95 -7l26 182h-12c-40 -70 -87 -134 -140 -186h-16
c-58 28 -86 81 -86 161c0 132 77 284 236 315h5l67 -24l59 25zM141 93c23 0 95 84 166 260v3l1 12l-63 24c-82 0 -130 -93 -130 -212c0 -69 14 -87 26 -87z" />
    <glyph glyph-name="ae" unicode="&#xe6;" horiz-adv-x="623" 
d="M277 468l112 -40c34 25 76 40 122 42l11 -1c56 -10 91 -41 91 -97c0 -77 -73 -141 -247 -198v-11c4 -64 24 -92 61 -92c44 0 90 37 116 88l14 -1l31 -42c-48 -66 -101 -108 -162 -123h-13c-99 10 -134 68 -136 166c0 -1 -1 7 -2 7c-40 -65 -87 -125 -138 -174h-16
c-59 28 -87 82 -87 161c0 133 77 284 238 315h5zM485 403c-61 0 -105 -63 -117 -163c106 32 161 74 161 125c0 25 -14 38 -44 38zM327 364l-74 29c-84 0 -133 -94 -133 -212c0 -70 15 -89 28 -89c21 0 89 77 158 232c7 16 13 27 21 40z" />
    <glyph glyph-name="ccedilla" unicode="&#xe7;" horiz-adv-x="341" 
d="M233 394c-69 0 -114 -79 -114 -213c0 -79 17 -108 54 -108c26 0 57 16 94 85l13 -1l30 -40c-37 -63 -73 -96 -122 -115l-14 -51l34 -20c29 -16 39 -35 39 -57c0 -41 -34 -70 -86 -70c-34 0 -58 15 -76 31l9 45l5 2c17 -18 34 -30 57 -30c18 0 30 8 30 24
c0 12 -9 18 -20 23l-49 29l17 68c-71 16 -104 60 -104 167c0 164 74 305 241 305l69 -22l6 -13l-27 -74l-20 -2c-26 29 -43 37 -66 37z" />
    <glyph glyph-name="egrave" unicode="&#xe8;" horiz-adv-x="385" 
d="M326 521l-10 -1c-59 39 -116 79 -178 124l-2 10l36 52l10 1c57 -55 111 -100 170 -148zM308 158l32 -42c-47 -66 -101 -108 -162 -123h-13c-94 7 -135 67 -135 166c0 177 92 304 233 311l11 -1c56 -10 91 -41 91 -97c0 -77 -73 -141 -245 -197c2 -73 21 -104 60 -104
c43 0 87 37 114 88zM238 403c-60 0 -104 -62 -115 -162c104 31 157 74 157 124c0 25 -13 38 -42 38z" />
    <glyph glyph-name="eacute" unicode="&#xe9;" horiz-adv-x="385" 
d="M173 521l-25 38c58 48 112 93 170 148l9 -1l37 -52l-3 -10c-62 -45 -119 -85 -178 -124zM308 158l32 -42c-47 -66 -101 -108 -162 -123h-13c-94 7 -135 67 -135 166c0 177 92 304 233 311l11 -1c56 -10 91 -41 91 -97c0 -77 -73 -141 -245 -197c2 -73 21 -104 60 -104
c43 0 87 37 114 88zM238 403c-60 0 -104 -62 -115 -162c104 31 157 74 157 124c0 25 -13 38 -42 38z" />
    <glyph glyph-name="ecircumflex" unicode="&#xea;" horiz-adv-x="385" 
d="M135 525l-20 38c44 39 91 85 143 137h25c35 -48 73 -95 111 -137l-30 -38h-10c-35 35 -65 67 -91 100c-35 -33 -74 -65 -117 -100h-11zM365 372c0 -77 -73 -141 -245 -197c2 -73 21 -104 60 -104c43 0 87 37 114 88l14 -1l32 -42c-47 -66 -101 -108 -162 -123h-13
c-94 7 -135 67 -135 166c0 177 92 304 233 311l11 -1c56 -10 91 -41 91 -97zM123 241c104 31 157 74 157 124c0 25 -13 38 -42 38c-60 0 -104 -62 -115 -162z" />
    <glyph glyph-name="edieresis" unicode="&#xeb;" horiz-adv-x="385" 
d="M171 560c-32 0 -49 18 -49 50s20 53 53 53c29 0 47 -20 47 -49c0 -33 -20 -54 -51 -54zM339 662c30 0 47 -19 47 -49c0 -33 -19 -54 -50 -54c-32 0 -49 19 -49 50c0 32 19 53 52 53zM365 372c0 -77 -73 -141 -245 -197c2 -73 21 -104 60 -104c43 0 87 37 114 88l14 -1
l32 -42c-47 -66 -101 -108 -162 -123h-13c-94 7 -135 67 -135 166c0 177 92 304 233 311l11 -1c56 -10 91 -41 91 -97zM123 241c104 31 157 74 157 124c0 25 -13 38 -42 38c-60 0 -104 -62 -115 -162z" />
    <glyph glyph-name="igrave" unicode="&#xec;" horiz-adv-x="225" 
d="M75 705l10 1c57 -55 111 -100 170 -148l-26 -38l-10 -1c-59 39 -116 79 -178 124l-2 10zM137 111l-4 -108l-95 -7l51 361l4 101l94 7z" />
    <glyph glyph-name="iacute" unicode="&#xed;" horiz-adv-x="225" 
d="M230 705l37 -52l-3 -10c-62 -45 -119 -85 -178 -124l-10 1l-25 38c58 48 112 93 170 148zM137 111l-4 -108l-95 -7l51 361l4 101l94 7z" />
    <glyph glyph-name="icircumflex" unicode="&#xee;" horiz-adv-x="225" 
d="M38 524l-20 38c44 39 91 85 143 137h25c35 -48 73 -95 111 -137l-30 -38h-10c-35 35 -65 67 -91 100c-35 -33 -74 -65 -117 -100h-11zM137 111l-4 -108l-95 -7l51 361l4 101l94 7z" />
    <glyph glyph-name="eth" unicode="&#xf0;" horiz-adv-x="446" 
d="M400 644l-102 -52c70 -78 105 -175 104 -281c0 -185 -86 -309 -229 -320l-10 1c-78 15 -120 62 -120 163c0 175 87 298 227 305h10l5 -1c-16 35 -38 65 -67 93l-125 -63l-7 3l-15 45l103 52c-30 22 -66 42 -106 60l2 12l65 46h6c44 -21 83 -47 116 -75l119 60l8 -3z
M186 61c87 0 129 95 130 244c0 23 -2 45 -5 66c-12 18 -29 26 -53 26c-87 0 -130 -94 -130 -242c0 -67 17 -94 58 -94z" />
    <glyph glyph-name="ntilde" unicode="&#xf1;" horiz-adv-x="477" 
d="M450 649v-9l-64 -76l-10 -4c-44 5 -129 37 -155 37c-17 0 -34 -23 -59 -49h-9l-30 30v9l64 76l11 3c44 -5 130 -35 155 -35c17 0 33 21 59 48h9zM330 466h11c49 -10 89 -41 88 -90l-1 -13l-41 -253l-4 -107l-98 -7l53 330l1 11c0 16 -4 26 -18 26
c-36 0 -102 -85 -183 -256l-4 -104l-96 -7l52 361l4 101l94 7l-29 -206h10c59 101 106 162 161 207z" />
    <glyph glyph-name="ograve" unicode="&#xf2;" horiz-adv-x="420" 
d="M184 705l10 1c57 -55 111 -100 170 -148l-26 -38l-10 -1c-59 39 -116 79 -178 124l-2 10zM264 469h10c74 -14 116 -62 116 -157c0 -186 -85 -310 -229 -321l-10 1c-78 15 -119 63 -119 163c0 180 88 306 232 314zM245 393c-86 0 -125 -91 -125 -238c0 -64 15 -90 55 -90
c85 0 124 94 124 240c0 64 -16 88 -54 88z" />
    <glyph glyph-name="oacute" unicode="&#xf3;" horiz-adv-x="420" 
d="M339 705l37 -52l-3 -10c-62 -45 -119 -85 -178 -124l-10 1l-25 38c58 48 112 93 170 148zM264 469h10c74 -14 116 -62 116 -157c0 -186 -85 -310 -229 -321l-10 1c-78 15 -119 63 -119 163c0 180 88 306 232 314zM245 393c-86 0 -125 -91 -125 -238c0 -64 15 -90 55 -90
c85 0 124 94 124 240c0 64 -16 88 -54 88z" />
    <glyph glyph-name="ocircumflex" unicode="&#xf4;" horiz-adv-x="420" 
d="M147 524l-20 38c44 39 91 85 143 137h25c35 -48 73 -95 111 -137l-30 -38h-10c-35 35 -65 67 -91 100c-35 -33 -74 -65 -117 -100h-11zM264 469h10c74 -14 116 -62 116 -157c0 -186 -85 -310 -229 -321l-10 1c-78 15 -119 63 -119 163c0 180 88 306 232 314zM245 393
c-86 0 -125 -91 -125 -238c0 -64 15 -90 55 -90c85 0 124 94 124 240c0 64 -16 88 -54 88z" />
    <glyph glyph-name="otilde" unicode="&#xf5;" horiz-adv-x="420" 
d="M429 649v-9l-64 -76l-10 -4c-44 5 -129 37 -155 37c-17 0 -34 -23 -59 -49h-9l-30 30v9l64 76l11 3c44 -5 130 -35 155 -35c17 0 33 21 59 48h9zM264 469h10c74 -14 116 -62 116 -157c0 -186 -85 -310 -229 -321l-10 1c-78 15 -119 63 -119 163c0 180 88 306 232 314z
M245 393c-86 0 -125 -91 -125 -238c0 -64 15 -90 55 -90c85 0 124 94 124 240c0 64 -16 88 -54 88z" />
    <glyph glyph-name="divide" unicode="&#xf7;" horiz-adv-x="477" 
d="M265 489c30 0 47 -18 47 -48c0 -32 -20 -52 -50 -52c-31 0 -49 18 -49 49s20 51 52 51zM455 290l-6 -60h-411l-7 7l6 60h410zM223 143c30 0 47 -19 47 -48c0 -32 -19 -53 -50 -53s-48 18 -48 49s19 52 51 52z" />
    <glyph glyph-name="oslash" unicode="&#xf8;" horiz-adv-x="421" 
d="M396 523l-46 -91c26 -26 40 -65 40 -120c0 -186 -85 -310 -230 -321l-9 1c-8 2 -15 3 -23 6l-59 -117l-52 26l-3 9l58 114c-26 27 -40 67 -40 125c0 180 88 306 231 314h10c8 -1 15 -3 22 -5l48 94l48 -25zM120 155c0 -11 0 -21 1 -30l137 267c-4 1 -8 1 -13 1
c-86 0 -125 -91 -125 -238zM175 65c85 0 124 94 124 240c0 9 0 18 -1 26l-135 -265c4 -1 8 -1 12 -1z" />
    <glyph glyph-name="ugrave" unicode="&#xf9;" horiz-adv-x="478" 
d="M358 520l-10 -1c-59 39 -116 79 -178 124l-2 10l36 52l10 1c57 -55 111 -100 170 -148zM436 465l-51 -354l-3 -108l-96 -7l29 204h-9c-58 -99 -105 -158 -160 -203h-11c-50 10 -89 40 -88 89l1 14l41 253l6 106l94 8l-50 -322l-2 -21c-1 -18 7 -24 18 -24
c36 0 100 83 181 253l1 4l4 101z" />
    <glyph glyph-name="uacute" unicode="&#xfa;" horiz-adv-x="478" 
d="M205 520l-25 38c58 48 112 93 170 148l9 -1l37 -52l-3 -10c-62 -45 -119 -85 -178 -124zM436 465l-51 -354l-3 -108l-96 -7l29 204h-9c-58 -99 -105 -158 -160 -203h-11c-50 10 -89 40 -88 89l1 14l41 253l6 106l94 8l-50 -322l-2 -21c-1 -18 7 -24 18 -24
c36 0 100 83 181 253l1 4l4 101z" />
    <glyph glyph-name="ucircumflex" unicode="&#xfb;" horiz-adv-x="478" 
d="M167 524l-20 38c44 39 91 85 143 137h25c35 -48 73 -95 111 -137l-30 -38h-10c-35 35 -65 67 -91 100c-35 -33 -74 -65 -117 -100h-11zM436 465l-51 -354l-3 -108l-96 -7l29 204h-9c-58 -99 -105 -158 -160 -203h-11c-50 10 -89 40 -88 89l1 14l41 253l6 106l94 8
l-50 -322l-2 -21c-1 -18 7 -24 18 -24c36 0 100 83 181 253l1 4l4 101z" />
    <glyph glyph-name="udieresis" unicode="&#xfc;" horiz-adv-x="478" 
d="M203 559c-32 0 -49 18 -49 50s20 53 53 53c29 0 47 -20 47 -49c0 -33 -20 -54 -51 -54zM368 558c-32 0 -49 19 -49 50c0 32 19 53 52 53c30 0 47 -19 47 -49c0 -33 -19 -54 -50 -54zM436 465l-51 -354l-3 -108l-96 -7l29 204h-9c-58 -99 -105 -158 -160 -203h-11
c-50 10 -89 40 -88 89l1 14l41 253l6 106l94 8l-50 -322l-2 -21c-1 -18 7 -24 18 -24c36 0 100 83 181 253l1 4l4 101z" />
    <glyph glyph-name="thorn" unicode="&#xfe;" horiz-adv-x="454" 
d="M320 468h15c57 -28 87 -81 87 -161c0 -134 -78 -285 -236 -315h-5l-53 12l-11 -78l-4 -111l-96 -7l110 787l4 102l93 6l-58 -424h12c41 70 88 137 142 189zM139 85l66 -18c82 0 130 94 130 212c0 70 -14 89 -27 89c-22 0 -95 -85 -166 -259z" />
    <glyph glyph-name="ydieresis" unicode="&#xff;" horiz-adv-x="421" 
d="M147 559c-32 0 -49 18 -49 50s20 53 53 53c29 0 47 -20 47 -49c0 -33 -20 -54 -51 -54zM312 558c-32 0 -49 19 -49 50c0 32 19 53 52 53c30 0 47 -19 47 -49c0 -33 -19 -54 -50 -54zM305 448l88 19c15 -26 21 -53 21 -80c0 -47 -18 -97 -50 -154l-108 -195
c-96 -172 -170 -233 -262 -233c-27 0 -56 5 -83 16l-5 80l10 8c27 -9 53 -14 75 -14c53 0 106 29 154 93l-94 470l94 7l10 -82l43 -275h15l76 152c21 43 34 78 34 110c0 24 -7 45 -22 67z" />
    <glyph glyph-name="Amacron" unicode="&#x100;" horiz-adv-x="561" 
d="M213 761l-7 8l6 55h282l6 -7l-5 -56h-282zM515 0h-99l-6 71l-16 92l-130 3l-117 -2l-40 -89l-26 -75h-97l298 642h115zM380 244l-51 300h-8l-136 -299l96 -2z" />
    <glyph glyph-name="amacron" unicode="&#x101;" horiz-adv-x="447" 
d="M414 637l-5 -56h-282l-7 8l6 55h282zM395 469l10 -6l-50 -352l-4 -108l-95 -7l26 182h-12c-40 -70 -87 -134 -140 -186h-16c-58 28 -86 81 -86 161c0 132 77 284 236 315h5l67 -24zM141 93c23 0 95 84 166 260v3l1 12l-63 24c-82 0 -130 -93 -130 -212
c0 -69 14 -87 26 -87z" />
    <glyph glyph-name="Abreve" unicode="&#x102;" horiz-adv-x="561" 
d="M350 723c-70 0 -117 34 -131 95l29 33h15c10 -38 41 -59 88 -59c45 0 81 22 102 59h14l21 -33c-28 -61 -76 -95 -138 -95zM515 0h-99l-6 71l-16 92l-130 3l-117 -2l-40 -89l-26 -75h-97l298 642h115zM380 244l-51 300h-8l-136 -299l96 -2z" />
    <glyph glyph-name="abreve" unicode="&#x103;" horiz-adv-x="447" 
d="M257 529c-83 0 -118 50 -125 118l28 35h15c7 -56 37 -84 85 -84c49 0 84 28 105 84h14l21 -35c-24 -71 -72 -118 -143 -118zM405 463l-50 -352l-4 -108l-95 -7l26 182h-12c-40 -70 -87 -134 -140 -186h-16c-58 28 -86 81 -86 161c0 132 77 284 236 315h5l67 -24l59 25z
M141 93c23 0 95 84 166 260v3l1 12l-63 24c-82 0 -130 -93 -130 -212c0 -69 14 -87 26 -87z" />
    <glyph glyph-name="Aogonek" unicode="&#x104;" horiz-adv-x="561" 
d="M504 -95l3 -52c-28 -31 -56 -49 -88 -49c-40 0 -70 26 -70 70c0 30 13 59 67 126l-6 71l-16 92l-130 3l-117 -2l-40 -89l-26 -75h-97l298 642h115l118 -642h-32c-58 -60 -70 -85 -70 -107c0 -20 10 -27 24 -27c20 0 40 14 62 39h5zM380 244l-51 300h-8l-136 -299l96 -2z
" />
    <glyph glyph-name="aogonek" unicode="&#x105;" horiz-adv-x="455" 
d="M351 3l-34 -3c-57 -63 -71 -85 -71 -106c0 -20 13 -29 31 -29c19 0 38 11 56 33h5l14 -47c-28 -28 -55 -48 -90 -48c-43 0 -76 29 -76 76c0 32 16 60 70 120l26 179h-12c-40 -70 -87 -134 -140 -186h-16c-58 28 -86 81 -86 161c0 132 77 284 236 315h5l67 -24l59 25
l10 -6l-50 -352zM141 93c23 0 95 84 166 260v3l1 12l-63 24c-82 0 -130 -93 -130 -212c0 -69 14 -87 26 -87z" />
    <glyph glyph-name="Cacute" unicode="&#x106;" horiz-adv-x="503" 
d="M457 869l25 -57l-4 -10c-70 -31 -135 -57 -201 -83l-11 4l-17 42c67 34 130 66 198 107zM366 648c64 0 121 -16 164 -45l-29 -87l-10 -3c-36 33 -80 53 -137 53c-132 0 -207 -105 -207 -294c0 -128 53 -196 147 -196c54 0 112 20 161 56l9 -6l-20 -90
c-56 -30 -105 -43 -165 -43c-151 0 -236 96 -236 264c0 244 119 391 323 391z" />
    <glyph glyph-name="cacute" unicode="&#x107;" horiz-adv-x="341" 
d="M325 706l37 -52l-3 -10c-62 -45 -119 -85 -178 -124l-10 1l-25 38c58 48 112 93 170 148zM340 446l6 -13l-27 -74l-20 -2c-26 29 -43 37 -66 37c-69 0 -114 -79 -114 -213c0 -79 17 -108 54 -108c26 0 57 16 94 85l13 -1l30 -40c-43 -73 -84 -105 -146 -124h-14
c-82 13 -120 55 -120 170c0 164 74 305 241 305z" />
    <glyph glyph-name="Ccircumflex" unicode="&#x108;" horiz-adv-x="503" 
d="M237 730l-14 41c48 30 91 62 131 95h24c35 -33 74 -65 114 -95l-25 -41h-10c-33 22 -63 43 -95 66c-38 -23 -76 -44 -114 -66h-11zM366 648c64 0 121 -16 164 -45l-29 -87l-10 -3c-36 33 -80 53 -137 53c-132 0 -207 -105 -207 -294c0 -128 53 -196 147 -196
c54 0 112 20 161 56l9 -6l-20 -90c-56 -30 -105 -43 -165 -43c-151 0 -236 96 -236 264c0 244 119 391 323 391z" />
    <glyph glyph-name="ccircumflex" unicode="&#x109;" horiz-adv-x="341" 
d="M133 525l-20 38c44 39 91 85 143 137h25c35 -48 73 -95 111 -137l-30 -38h-10c-35 35 -65 67 -91 100c-35 -33 -74 -65 -117 -100h-11zM340 446l6 -13l-27 -74l-20 -2c-26 29 -43 37 -66 37c-69 0 -114 -79 -114 -213c0 -79 17 -108 54 -108c26 0 57 16 94 85l13 -1
l30 -40c-43 -73 -84 -105 -146 -124h-14c-82 13 -120 55 -120 170c0 164 74 305 241 305z" />
    <glyph glyph-name="Cdotaccent" unicode="&#x10a;" horiz-adv-x="503" 
d="M359 855c33 0 52 -20 52 -52c0 -35 -22 -57 -55 -57c-34 0 -52 20 -52 53c0 34 21 56 55 56zM366 648c64 0 121 -16 164 -45l-29 -87l-10 -3c-36 33 -80 53 -137 53c-132 0 -207 -105 -207 -294c0 -128 53 -196 147 -196c54 0 112 20 161 56l9 -6l-20 -90
c-56 -30 -105 -43 -165 -43c-151 0 -236 96 -236 264c0 244 119 391 323 391z" />
    <glyph glyph-name="cdotaccent" unicode="&#x10b;" horiz-adv-x="341" 
d="M255 675c33 0 52 -20 52 -52c0 -35 -22 -57 -55 -57c-34 0 -52 20 -52 53c0 34 21 56 55 56zM340 446l6 -13l-27 -74l-20 -2c-26 29 -43 37 -66 37c-69 0 -114 -79 -114 -213c0 -79 17 -108 54 -108c26 0 57 16 94 85l13 -1l30 -40c-43 -73 -84 -105 -146 -124h-14
c-82 13 -120 55 -120 170c0 164 74 305 241 305z" />
    <glyph glyph-name="Ccaron" unicode="&#x10c;" horiz-adv-x="503" 
d="M475 858l15 -41c-49 -30 -93 -62 -132 -95h-24c-35 33 -73 65 -113 95l24 41h10l96 -65c37 22 74 43 114 65h10zM366 648c64 0 121 -16 164 -45l-29 -87l-10 -3c-36 33 -80 53 -137 53c-132 0 -207 -105 -207 -294c0 -128 53 -196 147 -196c54 0 112 20 161 56l9 -6
l-20 -90c-56 -30 -105 -43 -165 -43c-151 0 -236 96 -236 264c0 244 119 391 323 391z" />
    <glyph glyph-name="ccaron" unicode="&#x10d;" horiz-adv-x="341" 
d="M372 698l20 -38c-43 -39 -89 -85 -141 -137h-25c-34 48 -74 95 -114 137l30 38h10c36 -35 66 -67 92 -100c34 33 74 65 117 100h11zM340 446l6 -13l-27 -74l-20 -2c-26 29 -43 37 -66 37c-69 0 -114 -79 -114 -213c0 -79 17 -108 54 -108c26 0 57 16 94 85l13 -1l30 -40
c-43 -73 -84 -105 -146 -124h-14c-82 13 -120 55 -120 170c0 164 74 305 241 305z" />
    <glyph glyph-name="Dcaron" unicode="&#x10e;" horiz-adv-x="627" 
d="M352 722h-24c-35 33 -73 65 -113 95l24 41h10l96 -65c37 22 74 43 114 65h10l15 -41c-49 -30 -93 -62 -132 -95zM139 642l224 4c157 0 247 -90 247 -251c0 -247 -120 -401 -341 -401c-41 0 -154 3 -211 6h-1l30 193l51 449h1zM289 73c137 0 218 102 218 305
c0 127 -52 187 -155 187c-20 0 -90 -2 -126 -4l-51 -360l-11 -120c44 -5 106 -8 125 -8z" />
    <glyph glyph-name="dcaron" unicode="&#x10f;" horiz-adv-x="525" 
d="M344 697l97 7l-84 -593l-4 -108l-96 -7l26 182h-11c-42 -70 -90 -134 -142 -186h-17c-58 28 -86 81 -86 161c0 132 78 285 238 315h5l51 -19l21 147zM585 644l-49 -182l-46 -7l-7 7l26 185l69 4zM141 92c21 0 94 83 166 254l3 22l-64 24c-84 0 -133 -93 -133 -211
c0 -70 15 -89 28 -89z" />
    <glyph glyph-name="Dcroat" unicode="&#x110;" horiz-adv-x="653" 
d="M163 642l225 4c156 0 247 -90 247 -251c0 -247 -121 -401 -341 -401c-41 0 -155 3 -211 6h-1l30 193l11 96h-90l-4 8l9 60h92l32 285h1zM314 73c136 0 217 102 217 305c0 127 -52 187 -154 187c-20 0 -89 -2 -126 -4l-29 -204h143l3 -8l-7 -60h-149l-12 -88l-12 -121
c44 -4 107 -7 126 -7z" />
    <glyph glyph-name="dcroat" unicode="&#x111;" horiz-adv-x="459" 
d="M500 552h-81l-62 -441l-4 -108l-96 -7l26 182h-11c-42 -70 -90 -134 -142 -186h-17c-58 28 -86 81 -86 161c0 132 78 285 238 315h5l51 -19l15 103h-117l-7 7l5 50h125l2 88l97 7l-13 -95h70l7 -8zM141 92c21 0 94 83 166 254l3 22l-64 24c-84 0 -133 -93 -133 -211
c0 -70 15 -89 28 -89z" />
    <glyph glyph-name="Emacron" unicode="&#x112;" horiz-adv-x="475" 
d="M191 761l-7 8l6 55h282l6 -7l-5 -56h-282zM226 560l-27 -192l113 -2l100 3l6 -7l-17 -76l-108 3l-105 -2l-12 -86l-12 -120l120 -2l146 5l4 -8l-16 -76h-361l30 193l51 449h362l5 -9l-17 -76l-145 4z" />
    <glyph glyph-name="emacron" unicode="&#x113;" horiz-adv-x="385" 
d="M401 637l-5 -56h-282l-7 8l6 55h282zM365 372c0 -77 -73 -141 -245 -197c2 -73 21 -104 60 -104c43 0 87 37 114 88l14 -1l32 -42c-47 -66 -101 -108 -162 -123h-13c-94 7 -135 67 -135 166c0 177 92 304 233 311l11 -1c56 -10 91 -41 91 -97zM123 241
c104 31 157 74 157 124c0 25 -13 38 -42 38c-60 0 -104 -62 -115 -162z" />
    <glyph glyph-name="Ebreve" unicode="&#x114;" horiz-adv-x="475" 
d="M328 723c-70 0 -117 34 -131 95l29 33h15c10 -38 41 -59 88 -59c45 0 81 22 102 59h14l21 -33c-28 -61 -76 -95 -138 -95zM226 560l-27 -192l113 -2l100 3l6 -7l-17 -76l-108 3l-105 -2l-12 -86l-12 -120l120 -2l146 5l4 -8l-16 -76h-361l30 193l51 449h362l5 -9l-17 -76
l-145 4z" />
    <glyph glyph-name="ebreve" unicode="&#x115;" horiz-adv-x="385" 
d="M244 529c-83 0 -118 50 -125 118l28 35h15c7 -56 37 -84 85 -84c49 0 84 28 105 84h14l21 -35c-24 -71 -72 -118 -143 -118zM365 372c0 -77 -73 -141 -245 -197c2 -73 21 -104 60 -104c43 0 87 37 114 88l14 -1l32 -42c-47 -66 -101 -108 -162 -123h-13
c-94 7 -135 67 -135 166c0 177 92 304 233 311l11 -1c56 -10 91 -41 91 -97zM123 241c104 31 157 74 157 124c0 25 -13 38 -42 38c-60 0 -104 -62 -115 -162z" />
    <glyph glyph-name="Edotaccent" unicode="&#x116;" horiz-adv-x="475" 
d="M331 746c-34 0 -52 20 -52 53c0 34 21 56 55 56c33 0 52 -20 52 -52c0 -35 -22 -57 -55 -57zM226 560l-27 -192l113 -2l100 3l6 -7l-17 -76l-108 3l-105 -2l-12 -86l-12 -120l120 -2l146 5l4 -8l-16 -76h-361l30 193l51 449h362l5 -9l-17 -76l-145 4z" />
    <glyph glyph-name="edotaccent" unicode="&#x117;" horiz-adv-x="385" 
d="M254 566c-34 0 -52 20 -52 53c0 34 21 56 55 56c33 0 52 -20 52 -52c0 -35 -22 -57 -55 -57zM308 158l32 -42c-47 -66 -101 -108 -162 -123h-13c-94 7 -135 67 -135 166c0 177 92 304 233 311l11 -1c56 -10 91 -41 91 -97c0 -77 -73 -141 -245 -197
c2 -73 21 -104 60 -104c43 0 87 37 114 88zM238 403c-60 0 -104 -62 -115 -162c104 31 157 74 157 124c0 25 -13 38 -42 38z" />
    <glyph glyph-name="Eogonek" unicode="&#x118;" horiz-adv-x="475" 
d="M226 560l-27 -192l113 -2l100 3l6 -7l-17 -76l-108 3l-105 -2l-12 -86l-12 -120l120 -2l146 5l4 -8l-16 -76h-64l-31 -48c-11 -17 -17 -33 -17 -48c0 -23 13 -39 39 -39c22 0 45 13 67 35h6l11 -46c-34 -33 -64 -51 -99 -51c-51 0 -84 35 -84 83c0 24 8 50 27 77l25 37
h-241l30 193l51 449h362l5 -9l-17 -76l-145 4z" />
    <glyph glyph-name="eogonek" unicode="&#x119;" horiz-adv-x="385" 
d="M265 36l-55 -84c-11 -17 -17 -33 -17 -48c0 -23 13 -39 39 -39c22 0 45 13 67 35h6l11 -46c-34 -33 -64 -51 -99 -51c-51 0 -84 35 -84 83c0 24 8 50 27 77l21 31l-3 -1h-13c-94 7 -135 67 -135 166c0 177 92 304 233 311l11 -1c56 -10 91 -41 91 -97
c0 -77 -73 -141 -245 -197c2 -73 21 -104 60 -104c43 0 87 37 114 88l14 -1l32 -42c-23 -33 -48 -60 -75 -80zM238 403c-60 0 -104 -62 -115 -162c104 31 157 74 157 124c0 25 -13 38 -42 38z" />
    <glyph glyph-name="Ecaron" unicode="&#x11a;" horiz-adv-x="475" 
d="M333 722h-24c-35 33 -73 65 -113 95l24 41h10l96 -65c37 22 74 43 114 65h10l15 -41c-49 -30 -93 -62 -132 -95zM226 560l-27 -192l113 -2l100 3l6 -7l-17 -76l-108 3l-105 -2l-12 -86l-12 -120l120 -2l146 5l4 -8l-16 -76h-361l30 193l51 449h362l5 -9l-17 -76l-145 4z
" />
    <glyph glyph-name="ecaron" unicode="&#x11b;" horiz-adv-x="385" 
d="M253 523h-25c-34 48 -74 95 -114 137l30 38h10c36 -35 66 -67 92 -100c34 33 74 65 117 100h11l20 -38c-43 -39 -89 -85 -141 -137zM365 372c0 -77 -73 -141 -245 -197c2 -73 21 -104 60 -104c43 0 87 37 114 88l14 -1l32 -42c-47 -66 -101 -108 -162 -123h-13
c-94 7 -135 67 -135 166c0 177 92 304 233 311l11 -1c56 -10 91 -41 91 -97zM123 241c104 31 157 74 157 124c0 25 -13 38 -42 38c-60 0 -104 -62 -115 -162z" />
    <glyph glyph-name="Gcircumflex" unicode="&#x11c;" horiz-adv-x="578" 
d="M253 730l-14 41c48 30 91 62 131 95h24c35 -33 74 -65 114 -95l-25 -41h-10c-33 22 -63 43 -95 66c-38 -23 -76 -44 -114 -66h-11zM387 648c64 0 125 -13 183 -43l-33 -92l-9 -2c-58 39 -101 55 -160 55c-147 0 -225 -100 -225 -310c0 -126 50 -182 161 -182
c30 0 57 5 107 21l11 67l10 94l92 7l-12 -87l-15 -145c-74 -26 -131 -39 -201 -39c-169 0 -255 96 -255 257c0 254 124 399 346 399z" />
    <glyph glyph-name="gcircumflex" unicode="&#x11d;" horiz-adv-x="450" 
d="M159 524l-20 38c44 39 91 85 143 137h25c35 -48 73 -95 111 -137l-30 -38h-10c-35 35 -65 67 -91 100c-35 -33 -74 -65 -117 -100h-11zM398 469l11 -6l-51 -351l-6 -72c-21 -150 -123 -238 -239 -238c-92 0 -152 54 -168 148l4 10l138 78l1 9c-31 26 -44 64 -44 121
c0 137 75 271 223 299h5l68 -24zM313 369l-64 25c-80 0 -121 -85 -121 -192c0 -70 17 -94 27 -94c19 0 85 85 155 237l2 12zM288 189h-12c-38 -69 -84 -126 -133 -167l-86 -63c-9 -7 -11 -11 -11 -19c0 -33 32 -67 87 -67c66 0 118 48 131 141z" />
    <glyph glyph-name="Gbreve" unicode="&#x11e;" horiz-adv-x="578" 
d="M486 851l21 -33c-28 -61 -76 -95 -138 -95c-70 0 -117 34 -131 95l29 33h15c10 -38 41 -59 88 -59c45 0 81 22 102 59h14zM387 648c64 0 125 -13 183 -43l-33 -92l-9 -2c-58 39 -101 55 -160 55c-147 0 -225 -100 -225 -310c0 -126 50 -182 161 -182c30 0 57 5 107 21
l11 67l10 94l92 7l-12 -87l-15 -145c-74 -26 -131 -39 -201 -39c-169 0 -255 96 -255 257c0 254 124 399 346 399z" />
    <glyph glyph-name="gbreve" unicode="&#x11f;" horiz-adv-x="450" 
d="M268 528c-83 0 -118 50 -125 118l28 35h15c7 -56 37 -84 85 -84c49 0 84 28 105 84h14l21 -35c-24 -71 -72 -118 -143 -118zM398 469l11 -6l-51 -351l-6 -72c-21 -150 -123 -238 -239 -238c-92 0 -152 54 -168 148l4 10l138 78l1 9c-31 26 -44 64 -44 121
c0 137 75 271 223 299h5l68 -24zM313 369l-64 25c-80 0 -121 -85 -121 -192c0 -70 17 -94 27 -94c19 0 85 85 155 237l2 12zM288 189h-12c-38 -69 -84 -126 -133 -167l-86 -63c-9 -7 -11 -11 -11 -19c0 -33 32 -67 87 -67c66 0 118 48 131 141z" />
    <glyph glyph-name="Gdotaccent" unicode="&#x120;" horiz-adv-x="578" 
d="M375 855c33 0 52 -20 52 -52c0 -35 -22 -57 -55 -57c-34 0 -52 20 -52 53c0 34 21 56 55 56zM387 648c64 0 125 -13 183 -43l-33 -92l-9 -2c-58 39 -101 55 -160 55c-147 0 -225 -100 -225 -310c0 -126 50 -182 161 -182c30 0 57 5 107 21l11 67l10 94l92 7l-12 -87
l-15 -145c-74 -26 -131 -39 -201 -39c-169 0 -255 96 -255 257c0 254 124 399 346 399z" />
    <glyph glyph-name="gdotaccent" unicode="&#x121;" horiz-adv-x="450" 
d="M278 565c-34 0 -52 20 -52 53c0 34 21 56 55 56c33 0 52 -20 52 -52c0 -35 -22 -57 -55 -57zM409 463l-51 -351l-6 -72c-21 -150 -123 -238 -239 -238c-92 0 -152 54 -168 148l4 10l138 78l1 9c-31 26 -44 64 -44 121c0 137 75 271 223 299h5l68 -24l58 26zM313 369
l-64 25c-80 0 -121 -85 -121 -192c0 -70 17 -94 27 -94c19 0 85 85 155 237l2 12zM288 189h-12c-38 -69 -84 -126 -133 -167l-86 -63c-9 -7 -11 -11 -11 -19c0 -33 32 -67 87 -67c66 0 118 48 131 141z" />
    <glyph glyph-name="Gcommaaccent" unicode="&#x122;" horiz-adv-x="578" 
d="M387 648c64 0 125 -13 183 -43l-33 -92l-9 -2c-58 39 -101 55 -160 55c-147 0 -225 -100 -225 -310c0 -126 50 -182 161 -182c30 0 57 5 107 21l11 67l10 94l92 7l-12 -87l-15 -145c-74 -26 -131 -39 -201 -39c-169 0 -255 96 -255 257c0 254 124 399 346 399zM314 -51
c25 -18 39 -40 39 -67c0 -45 -30 -89 -94 -135l-29 27l-1 7c33 27 51 55 51 83c0 19 -11 35 -29 48v8c20 12 40 22 63 29z" />
    <glyph glyph-name="gcommaaccent" unicode="&#x123;" horiz-adv-x="450" 
d="M293 518c-35 15 -50 39 -50 75c0 42 23 85 73 134l33 -23l1 -7c-26 -28 -38 -54 -38 -78c0 -25 10 -44 36 -56v-8c-15 -14 -34 -26 -55 -37zM409 463l-51 -351l-6 -72c-21 -150 -123 -238 -239 -238c-92 0 -152 54 -168 148l4 10l138 78l1 9c-31 26 -44 64 -44 121
c0 137 75 271 223 299h5l68 -24l58 26zM313 369l-64 25c-80 0 -121 -85 -121 -192c0 -70 17 -94 27 -94c19 0 85 85 155 237l2 12zM288 189h-12c-38 -69 -84 -126 -133 -167l-86 -63c-9 -7 -11 -11 -11 -19c0 -33 32 -67 87 -67c66 0 118 48 131 141z" />
    <glyph glyph-name="Hcircumflex" unicode="&#x124;" horiz-adv-x="662" 
d="M282 730l-14 41c48 30 91 62 131 95h24c35 -33 74 -65 114 -95l-25 -41h-10c-33 22 -63 43 -95 66c-38 -23 -76 -44 -114 -66h-11zM629 642l-60 -441l-21 -201h-98l30 193l10 89l-160 3l-143 -3l-11 -81l-20 -201h-99l30 193l50 449h99l-38 -276l149 -3l152 3l30 276h100
z" />
    <glyph glyph-name="hcircumflex" unicode="&#x125;" horiz-adv-x="479" 
d="M71 789l-14 41c48 30 91 62 131 95h24c35 -33 74 -65 114 -95l-25 -41h-10c-33 22 -63 43 -95 66c-38 -23 -76 -44 -114 -66h-11zM332 466h11c50 -10 89 -41 88 -90l-1 -13l-41 -253l-4 -107l-98 -7l53 330l1 11c0 16 -4 26 -18 26c-36 0 -102 -85 -183 -256l-4 -104
l-96 -7l86 600l1 101l97 7l-63 -445h10c59 101 106 162 161 207z" />
    <glyph glyph-name="Hbar" unicode="&#x126;" horiz-adv-x="691" 
d="M687 476h-68l-38 -275l-21 -201h-98l30 193l10 89l-159 3l-144 -3l-11 -81l-20 -201h-99l30 193l32 283h-58l-4 6l4 59h65l11 101h99l-14 -101h297l11 101h100l-14 -101h58l6 -6zM524 476h-299l-15 -110l150 -3l151 3z" />
    <glyph glyph-name="hbar" unicode="&#x127;" horiz-adv-x="535" 
d="M373 466h11c50 -10 89 -41 88 -90l-1 -13l-41 -253l-4 -107l-98 -7l53 330l1 11c0 16 -4 26 -18 26c-36 0 -102 -85 -183 -256l-4 -104l-96 -7l80 556h-72l-7 7l4 50h81l1 88l96 7l-13 -95h116l7 -8l-4 -49h-127l-41 -293h10c59 101 106 162 161 207z" />
    <glyph glyph-name="Imacron" unicode="&#x12a;" horiz-adv-x="270" 
d="M320 817l-5 -56h-220l-6 8l5 55h219zM176 201l-20 -201h-99l30 193l50 449h99z" />
    <glyph glyph-name="imacron" unicode="&#x12b;" horiz-adv-x="225" 
d="M273 636l-5 -56h-220l-6 8l5 55h219zM137 111l-4 -108l-95 -7l51 361l4 101l94 7z" />
    <glyph glyph-name="Ibreve" unicode="&#x12c;" horiz-adv-x="270" 
d="M318 851l21 -33c-28 -61 -76 -95 -138 -95c-70 0 -117 34 -131 95l29 33h15c10 -38 41 -59 88 -59c45 0 81 22 102 59h14zM176 201l-20 -201h-99l30 193l50 449h99z" />
    <glyph glyph-name="ibreve" unicode="&#x12d;" horiz-adv-x="225" 
d="M269 681l21 -35c-24 -71 -72 -118 -143 -118c-83 0 -118 50 -125 118l28 35h15c7 -56 37 -84 85 -84c49 0 84 28 105 84h14zM137 111l-4 -108l-95 -7l51 361l4 101l94 7z" />
    <glyph glyph-name="Iogonek" unicode="&#x12e;" horiz-adv-x="271" 
d="M236 642l-60 -441l-20 -201h-41c-54 -63 -67 -86 -67 -106s12 -29 29 -29c19 0 40 11 58 33h5l14 -47c-29 -29 -57 -48 -91 -48c-43 0 -75 30 -75 76c0 31 16 60 69 124l30 190l50 449h99z" />
    <glyph glyph-name="iogonek" unicode="&#x12f;" horiz-adv-x="225" 
d="M160 674c33 0 52 -20 52 -52c0 -35 -22 -57 -55 -57c-34 0 -52 20 -52 53c0 34 21 56 55 56zM133 3l-33 -2c-54 -64 -67 -87 -67 -107s12 -29 29 -29c19 0 40 11 58 33h5l14 -47c-29 -29 -57 -48 -91 -48c-43 0 -75 30 -75 76c0 31 15 58 65 119l51 359l4 101l94 7
l-50 -354z" />
    <glyph glyph-name="Idotaccent" unicode="&#x130;" horiz-adv-x="270" 
d="M207 855c33 0 52 -20 52 -52c0 -35 -22 -57 -55 -57c-34 0 -52 20 -52 53c0 34 21 56 55 56zM176 201l-20 -201h-99l30 193l50 449h99z" />
    <glyph glyph-name="dotlessi" unicode="&#x131;" horiz-adv-x="225" 
d="M138 111l-5 -108l-95 -7l52 361l4 101l93 7z" />
    <glyph glyph-name="IJ" unicode="&#x132;" horiz-adv-x="581" 
d="M137 642h99l-60 -441l-20 -201h-99l30 193zM542 642l-60 -430l-9 -93c-13 -104 -67 -163 -205 -222l-28 54l1 11c91 46 132 85 141 158l11 83l40 362l-113 -2l-8 8l14 71h216z" />
    <glyph glyph-name="ij" unicode="&#x133;" horiz-adv-x="467" 
d="M160 674c33 0 52 -20 52 -52c0 -35 -22 -57 -55 -57c-34 0 -52 20 -52 53c0 34 21 56 55 56zM396 674c33 0 52 -20 52 -52c0 -35 -22 -57 -55 -57c-34 0 -52 20 -52 53c0 34 21 56 55 56zM137 111l-4 -108l-95 -7l51 361l4 101l94 7zM426 460l-50 -348l-9 -92
c-13 -105 -55 -161 -156 -214l-31 43l1 10c62 39 90 79 100 157l47 340l2 34h-73l-5 7l8 54h68l94 13z" />
    <glyph glyph-name="Jcircumflex" unicode="&#x134;" horiz-adv-x="311" 
d="M197 866h24c35 -33 74 -65 114 -95l-25 -41h-10c-33 22 -63 43 -95 66c-38 -23 -76 -44 -114 -66h-11l-14 41c48 30 91 62 131 95zM272 642l-60 -430l-9 -93c-13 -104 -67 -163 -205 -222l-28 54l1 11c92 46 132 85 142 158l10 83l40 362l-113 -2l-8 8l14 71h216z" />
    <glyph glyph-name="jcircumflex" unicode="&#x135;" horiz-adv-x="242" 
d="M49 524l-20 38c44 39 91 85 143 137h25c35 -48 73 -95 111 -137l-30 -38h-10c-35 35 -65 67 -91 100c-35 -33 -74 -65 -117 -100h-11zM202 460l-50 -348l-9 -92c-13 -105 -55 -161 -156 -214l-31 43l1 10c62 39 90 79 100 157l47 340l2 34h-73l-5 7l8 54h68l94 13z" />
    <glyph glyph-name="Kcommaaccent" unicode="&#x136;" horiz-adv-x="538" 
d="M175 201l-20 -201h-99l30 193l51 449h99zM577 642l-274 -305c64 -109 138 -216 214 -316l-3 -12c-33 -8 -64 -14 -97 -18l-10 5c-72 109 -143 223 -207 340l1 6l223 242l45 58h108zM286 -51c25 -18 39 -40 39 -67c0 -45 -30 -89 -94 -135l-29 27l-1 7c33 27 51 55 51 83
c0 19 -11 35 -29 48v8c20 12 40 22 63 29z" />
    <glyph glyph-name="kcommaaccent" unicode="&#x137;" horiz-adv-x="477" 
d="M452 361c0 -67 -51 -127 -136 -179c33 -59 69 -117 107 -173l-5 -7l-80 -14l-9 4c-36 60 -68 123 -97 184l3 15c80 51 123 99 123 144c0 22 -9 28 -20 28c-39 0 -108 -75 -198 -264l-3 -96l-96 -7l85 600l2 101l97 7l-63 -440h12c60 91 112 159 172 201l14 1
c54 -11 92 -43 92 -105zM234 -51c25 -18 39 -40 39 -67c0 -45 -30 -89 -94 -135l-29 27l-1 7c33 27 51 55 51 83c0 19 -11 35 -29 48v8c20 12 40 22 63 29z" />
    <glyph glyph-name="kgreenlandic" unicode="&#x138;" horiz-adv-x="480" 
d="M453 361c0 -67 -53 -127 -138 -179c34 -59 70 -117 108 -173l-3 -7l-80 -14l-10 4c-36 60 -69 123 -100 184l3 15c81 51 127 98 127 144c0 22 -12 28 -22 28c-39 0 -110 -74 -201 -262l-4 -98l-95 -7l51 361l4 101l94 7l-29 -203h12c62 90 115 161 176 203l14 1
c55 -11 93 -43 93 -105z" />
    <glyph glyph-name="Lacute" unicode="&#x139;" horiz-adv-x="406" 
d="M113 723l-17 42c67 34 130 66 198 107l10 -3l25 -57l-4 -10c-70 -31 -135 -57 -201 -83zM385 74l-16 -74h-315l30 193l51 449h99l-61 -441l-12 -119h220z" />
    <glyph glyph-name="lacute" unicode="&#x13a;" horiz-adv-x="231" 
d="M293 928l25 -57l-4 -10c-70 -31 -135 -57 -201 -83l-11 4l-17 42c67 34 130 66 198 107zM140 111l-4 -108l-95 -7l85 600l2 101l96 7z" />
    <glyph glyph-name="Lcommaaccent" unicode="&#x13b;" horiz-adv-x="406" 
d="M385 74l-16 -74h-315l30 193l51 449h99l-61 -441l-12 -119h220zM207 -51c25 -18 39 -40 39 -67c0 -45 -30 -89 -94 -135l-29 27l-1 7c33 27 51 55 51 83c0 19 -11 35 -29 48v8c20 12 40 22 63 29z" />
    <glyph glyph-name="lcommaaccent" unicode="&#x13c;" horiz-adv-x="231" 
d="M140 111l-4 -108l-95 -7l85 600l2 101l96 7zM93 -51c25 -18 39 -40 39 -67c0 -45 -30 -89 -94 -135l-29 27l-1 7c33 27 51 55 51 83c0 19 -11 35 -29 48v8c20 12 40 22 63 29z" />
    <glyph glyph-name="Lcaron" unicode="&#x13d;" horiz-adv-x="416" 
d="M381 82l4 -8l-16 -74h-315l30 193l51 449h99l-61 -441l-12 -119h220zM437 578l-48 -182l-46 -7l-7 7l25 185l70 4z" />
    <glyph glyph-name="lcaron" unicode="&#x13e;" horiz-adv-x="266" 
d="M140 111l-4 -108l-95 -7l85 600l2 101l96 7zM343 637l-49 -181l-46 -7l-6 6l25 185l70 4z" />
    <glyph glyph-name="Ldot" unicode="&#x13f;" horiz-adv-x="412" 
d="M382 82l4 -8l-16 -74h-315l30 193l51 449h99l-61 -441l-12 -119h220zM343 327c-33 0 -52 19 -52 53s21 56 56 56c32 0 51 -20 51 -53c0 -34 -21 -56 -55 -56z" />
    <glyph glyph-name="ldot" unicode="&#x140;" horiz-adv-x="264" 
d="M140 111l-4 -108l-95 -7l85 600l2 101l96 7zM257 340c32 0 51 -20 51 -53c0 -34 -21 -56 -55 -56c-33 0 -52 19 -52 53s21 56 56 56z" />
    <glyph glyph-name="Lslash" unicode="&#x141;" horiz-adv-x="416" 
d="M394 74l-17 -74h-315l31 193l9 81l-69 -35l-10 6l-10 58l98 50l32 289h99l-33 -239l123 62l10 -5l11 -58l-154 -79l-17 -122l-12 -119h219z" />
    <glyph glyph-name="lslash" unicode="&#x142;" horiz-adv-x="259" 
d="M183 352l-34 -241l-3 -108l-97 -7l45 316l-60 -30l-4 3l-14 63l89 45l29 203l3 101l96 7l-38 -270l63 32l5 -3l15 -63z" />
    <glyph glyph-name="Nacute" unicode="&#x143;" horiz-adv-x="662" 
d="M502 869l25 -57l-4 -10c-70 -31 -135 -57 -201 -83l-11 4l-17 42c67 34 130 66 198 107zM567 191l-20 -191h-104l-230 488h-7l-35 -274l-23 -214h-91l29 190l53 452h103l230 -489h7l59 484l92 7z" />
    <glyph glyph-name="nacute" unicode="&#x144;" horiz-adv-x="477" 
d="M206 520l-25 38c58 48 112 93 170 148l9 -1l37 -52l-3 -10c-62 -45 -119 -85 -178 -124zM330 466h11c49 -10 89 -41 88 -90l-1 -13l-41 -253l-4 -107l-98 -7l53 330l1 11c0 16 -4 26 -18 26c-36 0 -102 -85 -183 -256l-4 -104l-96 -7l52 361l4 101l94 7l-29 -206h10
c59 101 106 162 161 207z" />
    <glyph glyph-name="Ncommaaccent" unicode="&#x145;" horiz-adv-x="662" 
d="M567 191l-20 -191h-104l-230 488h-7l-35 -274l-23 -214h-91l29 190l53 452h103l230 -489h7l59 484l92 7zM308 -51c25 -18 39 -40 39 -67c0 -45 -30 -89 -94 -135l-29 27l-1 7c33 27 51 55 51 83c0 19 -11 35 -29 48v8c20 12 40 22 63 29z" />
    <glyph glyph-name="ncommaaccent" unicode="&#x146;" horiz-adv-x="477" 
d="M330 466h11c49 -10 89 -41 88 -90l-1 -13l-41 -253l-4 -107l-98 -7l53 330l1 11c0 16 -4 26 -18 26c-36 0 -102 -85 -183 -256l-4 -104l-96 -7l52 361l4 101l94 7l-29 -206h10c59 101 106 162 161 207zM217 -51c25 -18 39 -40 39 -67c0 -45 -30 -89 -94 -135l-29 27l-1 7
c33 27 51 55 51 83c0 19 -11 35 -29 48v8c20 12 40 22 63 29z" />
    <glyph glyph-name="Ncaron" unicode="&#x147;" horiz-adv-x="662" 
d="M520 858l15 -41c-49 -30 -93 -62 -132 -95h-24c-35 33 -73 65 -113 95l24 41h10l96 -65c37 22 74 43 114 65h10zM567 191l-20 -191h-104l-230 488h-7l-35 -274l-23 -214h-91l29 190l53 452h103l230 -489h7l59 484l92 7z" />
    <glyph glyph-name="ncaron" unicode="&#x148;" horiz-adv-x="477" 
d="M286 522h-25c-34 48 -74 95 -114 137l30 38h10c36 -35 66 -67 92 -100c34 33 74 65 117 100h11l20 -38c-43 -39 -89 -85 -141 -137zM330 466h11c49 -10 89 -41 88 -90l-1 -13l-41 -253l-4 -107l-98 -7l53 330l1 11c0 16 -4 26 -18 26c-36 0 -102 -85 -183 -256l-4 -104
l-96 -7l52 361l4 101l94 7l-29 -206h10c59 101 106 162 161 207z" />
    <glyph glyph-name="Eng" unicode="&#x14a;" horiz-adv-x="670" 
d="M569 191l-13 -133c-14 -104 -67 -163 -204 -222l-28 54l2 11c61 32 101 62 121 100l-235 486h-7l-33 -273l-23 -214h-92l30 190l51 452h105l232 -484h7l56 479l94 7z" />
    <glyph glyph-name="eng" unicode="&#x14b;" horiz-adv-x="485" 
d="M332 466h11c48 -10 88 -41 87 -90l-1 -13l-42 -251l-11 -92c-16 -105 -58 -161 -156 -214l-30 42l2 11c59 39 87 79 97 157l49 303l1 12c1 23 -5 32 -16 32c-36 0 -102 -85 -183 -265l-4 -95l-96 -7l52 361l4 101l94 7l-29 -206h10c59 101 105 162 161 207z" />
    <glyph glyph-name="Omacron" unicode="&#x14c;" horiz-adv-x="618" 
d="M525 817l-5 -56h-282l-7 8l6 55h282zM363 649c150 0 238 -93 238 -260c0 -243 -114 -397 -321 -397c-148 0 -237 96 -237 265c0 243 114 392 320 392zM351 568c-141 0 -207 -103 -207 -306c0 -129 46 -191 145 -191c139 0 208 103 208 308c0 129 -47 189 -146 189z" />
    <glyph glyph-name="omacron" unicode="&#x14d;" horiz-adv-x="420" 
d="M413 636l-5 -56h-282l-7 8l6 55h282zM264 469h10c74 -14 116 -62 116 -157c0 -186 -85 -310 -229 -321l-10 1c-78 15 -119 63 -119 163c0 180 88 306 232 314zM245 393c-86 0 -125 -91 -125 -238c0 -64 15 -90 55 -90c85 0 124 94 124 240c0 64 -16 88 -54 88z" />
    <glyph glyph-name="Obreve" unicode="&#x14e;" horiz-adv-x="618" 
d="M492 851l21 -33c-28 -61 -76 -95 -138 -95c-70 0 -117 34 -131 95l29 33h15c10 -38 41 -59 88 -59c45 0 81 22 102 59h14zM363 649c150 0 238 -93 238 -260c0 -243 -114 -397 -321 -397c-148 0 -237 96 -237 265c0 243 114 392 320 392zM351 568
c-141 0 -207 -103 -207 -306c0 -129 46 -191 145 -191c139 0 208 103 208 308c0 129 -47 189 -146 189z" />
    <glyph glyph-name="obreve" unicode="&#x14f;" horiz-adv-x="420" 
d="M378 681l21 -35c-24 -71 -72 -118 -143 -118c-83 0 -118 50 -125 118l28 35h15c7 -56 37 -84 85 -84c49 0 84 28 105 84h14zM264 469h10c74 -14 116 -62 116 -157c0 -186 -85 -310 -229 -321l-10 1c-78 15 -119 63 -119 163c0 180 88 306 232 314zM245 393
c-86 0 -125 -91 -125 -238c0 -64 15 -90 55 -90c85 0 124 94 124 240c0 64 -16 88 -54 88z" />
    <glyph glyph-name="Ohungarumlaut" unicode="&#x150;" horiz-adv-x="618" 
d="M256 717l-31 27c37 42 73 82 108 125l8 2l45 -31v-9c-39 -39 -78 -75 -120 -113zM403 717l-31 27c36 42 72 82 108 125l7 2l46 -31v-9c-39 -39 -80 -75 -120 -113zM363 649c150 0 238 -93 238 -260c0 -243 -114 -397 -321 -397c-148 0 -237 96 -237 265
c0 243 114 392 320 392zM351 568c-141 0 -207 -103 -207 -306c0 -129 46 -191 145 -191c139 0 208 103 208 308c0 129 -47 189 -146 189z" />
    <glyph glyph-name="ohungarumlaut" unicode="&#x151;" horiz-adv-x="420" 
d="M162 519l-31 28c46 52 89 105 131 160l9 1l45 -33v-9c-47 -50 -95 -98 -144 -145zM308 519l-32 28c46 52 90 105 132 160l8 1l45 -33v-9c-47 -50 -95 -98 -144 -145zM264 469h10c74 -14 116 -62 116 -157c0 -186 -85 -310 -229 -321l-10 1c-78 15 -119 63 -119 163
c0 180 88 306 232 314zM245 393c-86 0 -125 -91 -125 -238c0 -64 15 -90 55 -90c85 0 124 94 124 240c0 64 -16 88 -54 88z" />
    <glyph glyph-name="OE" unicode="&#x152;" horiz-adv-x="825" 
d="M395 654c62 0 111 -12 165 -12h289l6 -9l-18 -76l-139 4h-124l-24 -193l105 -2l108 3l4 -7l-16 -76l-113 3l-102 -2l-10 -89l-13 -117l113 -2l153 5l5 -8l-16 -76h-288c-57 1 -123 -12 -186 -12c-162 0 -252 102 -252 273c0 243 133 393 353 393zM376 573
c-154 0 -233 -106 -233 -307c0 -131 55 -198 170 -198c35 0 71 5 87 10c18 6 25 15 28 37l46 405c2 25 1 35 -8 39c-13 7 -50 14 -90 14z" />
    <glyph glyph-name="oe" unicode="&#x153;" horiz-adv-x="657" 
d="M586 158l31 -42c-48 -66 -101 -108 -162 -123h-13c-65 7 -100 35 -116 82c-38 -49 -91 -79 -158 -84l-9 1c-80 15 -122 63 -122 164c0 179 89 305 234 313h10c52 -9 84 -35 100 -79c39 48 93 77 159 80l11 -1c57 -10 91 -41 91 -97c0 -77 -73 -141 -247 -198
c2 -73 22 -103 61 -103c44 0 90 37 116 88zM514 403c-60 0 -105 -63 -116 -162c106 31 159 73 159 124c0 25 -12 38 -43 38zM182 63c87 0 128 94 128 242c0 65 -17 90 -56 90c-88 0 -129 -92 -129 -239c0 -66 16 -93 57 -93z" />
    <glyph glyph-name="Racute" unicode="&#x154;" horiz-adv-x="547" 
d="M261 701l-25 38c58 48 112 93 170 148l9 -1l37 -52l-3 -10c-62 -45 -119 -85 -178 -124zM516 484c0 -101 -56 -182 -149 -227c37 -79 80 -157 126 -234l-2 -11c-32 -11 -63 -18 -96 -21l-10 8c-36 76 -71 153 -102 232h-103l-4 -30l-20 -201h-99l30 193l51 449l199 1
c111 0 179 -57 179 -159zM191 311l106 -3c77 24 116 78 116 160c0 63 -37 94 -106 97l-81 -3z" />
    <glyph glyph-name="racute" unicode="&#x155;" horiz-adv-x="338" 
d="M170 520l-25 38c58 48 112 93 170 148l9 -1l37 -52l-3 -10c-62 -45 -119 -85 -178 -124zM162 266h9c41 77 88 141 162 199l26 -2l-18 -126l-8 -5l-11 2c-62 -9 -108 -54 -182 -233l-4 -98l-96 -7l52 361l4 101l94 7z" />
    <glyph glyph-name="Rcommaaccent" unicode="&#x156;" horiz-adv-x="547" 
d="M516 484c0 -101 -56 -182 -149 -227c37 -79 80 -157 126 -234l-2 -11c-32 -11 -63 -18 -96 -21l-10 8c-36 76 -71 153 -102 232h-103l-4 -30l-20 -201h-99l30 193l51 449l199 1c111 0 179 -57 179 -159zM191 311l106 -3c77 24 116 78 116 160c0 63 -37 94 -106 97l-81 -3
zM249 -51c25 -18 39 -40 39 -67c0 -45 -30 -89 -94 -135l-29 27l-1 7c33 27 51 55 51 83c0 19 -11 35 -29 48v8c20 12 40 22 63 29z" />
    <glyph glyph-name="rcommaaccent" unicode="&#x157;" horiz-adv-x="338" 
d="M359 463l-18 -126l-8 -5l-11 2c-62 -9 -108 -54 -182 -233l-4 -98l-96 -7l52 361l4 101l94 7l-28 -199h9c41 77 88 141 162 199zM98 -51c25 -18 39 -40 39 -67c0 -45 -30 -89 -94 -135l-29 27l-1 7c33 27 51 55 51 83c0 19 -11 35 -29 48v8c20 12 40 22 63 29z" />
    <glyph glyph-name="Rcaron" unicode="&#x158;" horiz-adv-x="547" 
d="M341 703h-25c-34 48 -74 95 -114 137l30 38h10c36 -35 66 -67 92 -100c34 33 74 65 117 100h11l20 -38c-43 -39 -89 -85 -141 -137zM516 484c0 -101 -56 -182 -149 -227c37 -79 80 -157 126 -234l-2 -11c-32 -11 -63 -18 -96 -21l-10 8c-36 76 -71 153 -102 232h-103
l-4 -30l-20 -201h-99l30 193l51 449l199 1c111 0 179 -57 179 -159zM191 311l106 -3c77 24 116 78 116 160c0 63 -37 94 -106 97l-81 -3z" />
    <glyph glyph-name="rcaron" unicode="&#x159;" horiz-adv-x="338" 
d="M250 522h-25c-34 48 -74 95 -114 137l30 38h10c36 -35 66 -67 92 -100c34 33 74 65 117 100h11l20 -38c-43 -39 -89 -85 -141 -137zM162 266h9c41 77 88 141 162 199l26 -2l-18 -126l-8 -5l-11 2c-62 -9 -108 -54 -182 -233l-4 -98l-96 -7l52 361l4 101l94 7z" />
    <glyph glyph-name="Sacute" unicode="&#x15a;" horiz-adv-x="464" 
d="M376 886l37 -52l-3 -10c-62 -45 -119 -85 -178 -124l-10 1l-25 38c58 48 112 93 170 148zM307 648c40 0 96 -8 150 -31l-27 -90l-16 -6c-36 31 -78 48 -122 48c-69 0 -113 -44 -113 -92c0 -110 244 -119 244 -291c0 -108 -97 -194 -232 -194c-56 0 -123 15 -176 44l25 97
l12 6c44 -48 103 -69 151 -69c72 0 119 44 119 97c0 116 -240 118 -240 291c0 108 96 190 225 190z" />
    <glyph glyph-name="sacute" unicode="&#x15b;" horiz-adv-x="326" 
d="M291 705l37 -52l-3 -10c-62 -45 -119 -85 -178 -124l-10 1l-25 38c58 48 112 93 170 148zM228 468c33 -7 60 -15 90 -26l-25 -85l-15 -4c-27 32 -57 48 -84 48c-35 0 -62 -29 -62 -59c0 -68 152 -83 152 -200c0 -86 -76 -149 -183 -150c-38 5 -72 14 -107 33l24 88l13 5
c29 -40 67 -62 101 -62c40 0 65 31 65 61c0 74 -153 87 -153 203c1 88 86 149 184 148z" />
    <glyph glyph-name="Scircumflex" unicode="&#x15c;" horiz-adv-x="464" 
d="M184 705l-20 38c44 39 91 85 143 137h25c35 -48 73 -95 111 -137l-30 -38h-10c-35 35 -65 67 -91 100c-35 -33 -74 -65 -117 -100h-11zM307 648c40 0 96 -8 150 -31l-27 -90l-16 -6c-36 31 -78 48 -122 48c-69 0 -113 -44 -113 -92c0 -110 244 -119 244 -291
c0 -108 -97 -194 -232 -194c-56 0 -123 15 -176 44l25 97l12 6c44 -48 103 -69 151 -69c72 0 119 44 119 97c0 116 -240 118 -240 291c0 108 96 190 225 190z" />
    <glyph glyph-name="scircumflex" unicode="&#x15d;" horiz-adv-x="326" 
d="M99 524l-20 38c44 39 91 85 143 137h25c35 -48 73 -95 111 -137l-30 -38h-10c-35 35 -65 67 -91 100c-35 -33 -74 -65 -117 -100h-11zM228 468c33 -7 60 -15 90 -26l-25 -85l-15 -4c-27 32 -57 48 -84 48c-35 0 -62 -29 -62 -59c0 -68 152 -83 152 -200
c0 -86 -76 -149 -183 -150c-38 5 -72 14 -107 33l24 88l13 5c29 -40 67 -62 101 -62c40 0 65 31 65 61c0 74 -153 87 -153 203c1 88 86 149 184 148z" />
    <glyph glyph-name="Scedilla" unicode="&#x15e;" horiz-adv-x="464" 
d="M292 569c-69 0 -113 -44 -113 -92c0 -110 244 -119 244 -291c0 -102 -86 -184 -209 -193l-12 -42l34 -20c29 -16 39 -35 39 -57c0 -41 -34 -70 -86 -70c-34 0 -58 15 -76 31l9 45l5 2c17 -18 34 -30 57 -30c18 0 30 8 30 24c0 12 -9 18 -20 23l-49 29l17 65
c-49 4 -103 19 -147 43l25 97l12 6c44 -48 103 -69 151 -69c72 0 119 44 119 97c0 116 -240 118 -240 291c0 108 96 190 225 190c40 0 96 -8 150 -31l-27 -90l-16 -6c-36 31 -78 48 -122 48z" />
    <glyph glyph-name="scedilla" unicode="&#x15f;" horiz-adv-x="326" 
d="M194 401c-35 0 -62 -29 -62 -59c0 -68 152 -83 152 -200c0 -72 -53 -127 -132 -144l-13 -47l34 -20c29 -16 39 -35 39 -57c0 -41 -34 -70 -86 -70c-34 0 -58 15 -76 31l9 45l5 2c17 -18 34 -30 57 -30c18 0 30 8 30 24c0 12 -9 18 -20 23l-49 29l16 64
c-37 5 -70 14 -104 33l24 88l13 5c29 -40 67 -62 101 -62c40 0 65 31 65 61c0 74 -153 87 -153 203c1 88 86 149 184 148c33 -7 60 -15 90 -26l-25 -85l-15 -4c-27 32 -57 48 -84 48z" />
    <glyph glyph-name="Scaron" unicode="&#x160;" horiz-adv-x="464" 
d="M423 878l20 -38c-43 -39 -89 -85 -141 -137h-25c-34 48 -74 95 -114 137l30 38h10c36 -35 66 -67 92 -100c34 33 74 65 117 100h11zM307 648c40 0 96 -8 150 -31l-27 -90l-16 -6c-36 31 -78 48 -122 48c-69 0 -113 -44 -113 -92c0 -110 244 -119 244 -291
c0 -108 -97 -194 -232 -194c-56 0 -123 15 -176 44l25 97l12 6c44 -48 103 -69 151 -69c72 0 119 44 119 97c0 116 -240 118 -240 291c0 108 96 190 225 190z" />
    <glyph glyph-name="scaron" unicode="&#x161;" horiz-adv-x="326" 
d="M338 697l20 -38c-43 -39 -89 -85 -141 -137h-25c-34 48 -74 95 -114 137l30 38h10c36 -35 66 -67 92 -100c34 33 74 65 117 100h11zM228 468c33 -7 60 -15 90 -26l-25 -85l-15 -4c-27 32 -57 48 -84 48c-35 0 -62 -29 -62 -59c0 -68 152 -83 152 -200
c0 -86 -76 -149 -183 -150c-38 5 -72 14 -107 33l24 88l13 5c29 -40 67 -62 101 -62c40 0 65 31 65 61c0 74 -153 87 -153 203c1 88 86 149 184 148z" />
    <glyph glyph-name="Tcedilla" unicode="&#x162;" horiz-adv-x="475" 
d="M507 633l-16 -75l-109 6h-53l-50 -363l-19 -201h-28l-12 -49l30 -19c26 -16 37 -33 37 -55c0 -39 -33 -66 -78 -66c-30 0 -53 15 -70 30l8 41l6 2c14 -18 30 -30 51 -30c17 0 26 9 26 25c0 12 -7 18 -16 24l-45 28l17 69h-25l30 193l41 371h-52l-113 -6l-6 9l17 75h425z
" />
    <glyph glyph-name="tcedilla" unicode="&#x163;" horiz-adv-x="330" 
d="M162 130l-2 -17c0 -19 8 -27 24 -27c23 0 50 23 81 67l14 -1l28 -38c-39 -50 -77 -85 -117 -110l-15 -53l34 -20c29 -16 39 -35 39 -57c0 -41 -34 -70 -86 -70c-34 0 -58 15 -76 31l9 45l5 2c17 -18 34 -30 57 -30c18 0 30 8 30 24c0 12 -9 18 -20 23l-49 29l19 73
c-40 13 -65 40 -64 85l1 16l42 257l3 31h-65l-6 7l7 54h70l10 104l91 36l9 -6l-21 -134h116l7 -8l-6 -53h-127z" />
    <glyph glyph-name="Tcaron" unicode="&#x164;" horiz-adv-x="475" 
d="M307 703h-25c-34 48 -74 95 -114 137l30 38h10c36 -35 66 -67 92 -100c34 33 74 65 117 100h11l20 -38c-43 -39 -89 -85 -141 -137zM507 633l-16 -75l-109 6h-53l-50 -363l-19 -201h-99l30 193l41 371h-52l-113 -6l-6 9l17 75h425z" />
    <glyph glyph-name="tcaron" unicode="&#x165;" horiz-adv-x="330" 
d="M281 496l-6 6l25 185l70 4l6 -7l-49 -182zM330 451l7 -8l-6 -53h-127l-42 -260l-2 -17c0 -19 8 -27 24 -27c23 0 50 23 81 67l14 -1l28 -38c-43 -55 -85 -92 -130 -118l-13 -1c-56 9 -92 37 -91 91l1 16l42 257l3 31h-65l-6 7l7 54h70l10 104l91 36l9 -6l-21 -134h116z
" />
    <glyph glyph-name="Tbar" unicode="&#x166;" horiz-adv-x="475" 
d="M329 564l-30 -220h93l8 -7l-4 -51h-105l-12 -85l-19 -201h-99l30 193l10 93h-87l-7 6l4 52h97l24 220h-52l-113 -6l-6 9l17 75h425l4 -9l-16 -75l-109 6h-53z" />
    <glyph glyph-name="tbar" unicode="&#x167;" horiz-adv-x="338" 
d="M208 390l-16 -97h104l7 -7l-4 -51h-116l-17 -105l-2 -17c0 -19 7 -27 24 -27c22 0 49 23 81 67l14 -1l28 -38c-44 -55 -85 -92 -130 -118l-13 -1c-56 9 -92 37 -92 91l1 16l22 133h-66l-7 7l5 51h77l11 66l3 31h-64l-6 7l6 54h70l10 104l91 36l10 -6l-21 -134h116l7 -8
l-6 -53h-127z" />
    <glyph glyph-name="Umacron" unicode="&#x16a;" horiz-adv-x="606" 
d="M520 817l-5 -56h-282l-7 8l6 55h282zM547 315l-9 -74c-17 -158 -107 -249 -262 -249c-130 0 -211 67 -211 188c0 17 1 34 4 53l12 88l38 321h97l-54 -396c-2 -16 -3 -29 -3 -43c0 -85 42 -126 124 -126c96 0 152 52 164 159l46 406h98z" />
    <glyph glyph-name="umacron" unicode="&#x16b;" horiz-adv-x="478" 
d="M146 580l-7 8l6 55h282l6 -7l-5 -56h-282zM436 465l-51 -354l-3 -108l-96 -7l29 204h-9c-58 -99 -105 -158 -160 -203h-11c-50 10 -89 40 -88 89l1 14l41 253l6 106l94 8l-50 -322l-2 -21c-1 -18 7 -24 18 -24c36 0 100 83 181 253l1 4l4 101z" />
    <glyph glyph-name="Ubreve" unicode="&#x16c;" horiz-adv-x="606" 
d="M485 862l21 -35c-24 -71 -72 -118 -143 -118c-83 0 -118 50 -125 118l28 35h15c7 -56 37 -84 85 -84c49 0 84 28 105 84h14zM547 315l-9 -74c-17 -158 -107 -249 -262 -249c-130 0 -211 67 -211 188c0 17 1 34 4 53l12 88l38 321h97l-54 -396c-2 -16 -3 -29 -3 -43
c0 -85 42 -126 124 -126c96 0 152 52 164 159l46 406h98z" />
    <glyph glyph-name="ubreve" unicode="&#x16d;" horiz-adv-x="478" 
d="M276 528c-83 0 -118 50 -125 118l28 35h15c7 -56 37 -84 85 -84c49 0 84 28 105 84h14l21 -35c-24 -71 -72 -118 -143 -118zM436 465l-51 -354l-3 -108l-96 -7l29 204h-9c-58 -99 -105 -158 -160 -203h-11c-50 10 -89 40 -88 89l1 14l41 253l6 106l94 8l-50 -322l-2 -21
c-1 -18 7 -24 18 -24c36 0 100 83 181 253l1 4l4 101z" />
    <glyph glyph-name="Uring" unicode="&#x16e;" horiz-adv-x="606" 
d="M376 887c57 0 86 -35 86 -84c0 -57 -38 -89 -90 -89c-50 0 -85 30 -85 86c0 54 32 87 89 87zM373 842c-28 0 -42 -15 -42 -41c0 -29 17 -43 44 -43c25 0 43 13 43 41c0 26 -14 43 -45 43zM547 315l-9 -74c-17 -158 -107 -249 -262 -249c-130 0 -211 67 -211 188
c0 17 1 34 4 53l12 88l38 321h97l-54 -396c-2 -16 -3 -29 -3 -43c0 -85 42 -126 124 -126c96 0 152 52 164 159l46 406h98z" />
    <glyph glyph-name="uring" unicode="&#x16f;" horiz-adv-x="478" 
d="M285 533c-50 0 -85 30 -85 86c0 54 32 87 89 87s86 -35 86 -84c0 -57 -38 -89 -90 -89zM286 661c-28 0 -42 -15 -42 -41c0 -29 17 -43 44 -43c25 0 43 13 43 41c0 26 -14 43 -45 43zM436 465l-51 -354l-3 -108l-96 -7l29 204h-9c-58 -99 -105 -158 -160 -203h-11
c-50 10 -89 40 -88 89l1 14l41 253l6 106l94 8l-50 -322l-2 -21c-1 -18 7 -24 18 -24c36 0 100 83 181 253l1 4l4 101z" />
    <glyph glyph-name="Uhungarumlaut" unicode="&#x170;" horiz-adv-x="606" 
d="M251 717l-31 27c37 42 73 82 108 125l8 2l45 -31v-9c-39 -39 -78 -75 -120 -113zM398 717l-31 27c36 42 72 82 108 125l7 2l46 -31v-9c-39 -39 -80 -75 -120 -113zM547 315l-9 -74c-17 -158 -107 -249 -262 -249c-130 0 -211 67 -211 188c0 17 1 34 4 53l12 88l38 321h97
l-54 -396c-2 -16 -3 -29 -3 -43c0 -85 42 -126 124 -126c96 0 152 52 164 159l46 406h98z" />
    <glyph glyph-name="uhungarumlaut" unicode="&#x171;" horiz-adv-x="478" 
d="M182 519l-31 28c46 52 89 105 131 160l9 1l45 -33v-9c-47 -50 -95 -98 -144 -145zM481 675v-9c-47 -50 -95 -98 -144 -145l-9 -2l-32 28c46 52 90 105 132 160l8 1zM341 458l95 7l-51 -354l-3 -108l-96 -7l29 204h-9c-58 -99 -105 -158 -160 -203h-11
c-50 10 -89 40 -88 89l1 14l41 253l6 106l94 8l-50 -322l-2 -21c-1 -18 7 -24 18 -24c36 0 100 83 181 253l1 4z" />
    <glyph glyph-name="Uogonek" unicode="&#x172;" horiz-adv-x="605" 
d="M591 642l-44 -327l-9 -74c-11 -99 -50 -172 -116 -212l-48 -83c-11 -17 -17 -35 -17 -49c0 -20 11 -33 34 -33c21 0 46 11 66 35h6l12 -44c-32 -34 -63 -52 -97 -52c-48 0 -79 34 -79 83c0 22 7 45 23 69l29 45c-23 -5 -48 -8 -75 -8c-130 0 -211 67 -211 188
c0 17 1 34 4 53l12 88l38 321h97l-54 -396c-2 -16 -3 -29 -3 -43c0 -85 42 -126 124 -126c96 0 152 52 164 159l46 406h98z" />
    <glyph glyph-name="uogonek" unicode="&#x173;" horiz-adv-x="480" 
d="M436 465l-51 -354l-3 -108l-40 -3c-57 -63 -71 -86 -71 -106s13 -29 31 -29c19 0 38 11 56 33h5l14 -47c-28 -28 -55 -48 -90 -48c-43 0 -76 29 -76 76c0 34 17 62 76 126l28 195h-9c-58 -99 -105 -158 -160 -203h-11c-50 10 -89 40 -88 89l1 14l41 253l6 106l94 8
l-50 -322l-2 -21c-1 -18 7 -24 18 -24c36 0 100 83 181 253l1 4l4 101z" />
    <glyph glyph-name="Wcircumflex" unicode="&#x174;" horiz-adv-x="859" 
d="M358 730l-14 41c48 30 91 62 131 95h24c35 -33 74 -65 114 -95l-25 -41h-10c-33 22 -63 43 -95 66c-38 -23 -76 -44 -114 -66h-11zM611 0h-102l-65 351h-7l-156 -351h-104l-106 642h96l2 -67l76 -470h7l167 377l-29 160h101l5 -77l78 -460h7l207 464l24 73h92z" />
    <glyph glyph-name="wcircumflex" unicode="&#x175;" horiz-adv-x="692" 
d="M275 524l-20 38c44 39 91 85 143 137h25c35 -48 73 -95 111 -137l-30 -38h-10c-35 35 -65 67 -91 100c-35 -33 -74 -65 -117 -100h-11zM506 0h-101l-32 333h-9l-142 -333h-104l-53 458l93 7l1 -65l25 -293h9l124 287l24 67h100l2 -61l26 -292h8l89 171c18 36 30 65 30 92
c0 23 -7 44 -22 66l4 11l88 19c15 -26 21 -53 21 -80c0 -41 -17 -84 -44 -134z" />
    <glyph glyph-name="Ycircumflex" unicode="&#x176;" horiz-adv-x="518" 
d="M210 730l-14 41c48 30 91 62 131 95h24c35 -33 74 -65 114 -95l-25 -41h-10c-33 22 -63 43 -95 66c-38 -23 -76 -44 -114 -66h-11zM296 227l-7 -43l-19 -184h-99l30 184l4 44l-143 414h102l8 -39l89 -273h8l168 270l21 42h104z" />
    <glyph glyph-name="ycircumflex" unicode="&#x177;" horiz-adv-x="421" 
d="M111 524l-20 38c44 39 91 85 143 137h25c35 -48 73 -95 111 -137l-30 -38h-10c-35 35 -65 67 -91 100c-35 -33 -74 -65 -117 -100h-11zM305 448l88 19c15 -26 21 -53 21 -80c0 -47 -18 -97 -50 -154l-108 -195c-96 -172 -170 -233 -262 -233c-27 0 -56 5 -83 16l-5 80
l10 8c27 -9 53 -14 75 -14c53 0 106 29 154 93l-94 470l94 7l10 -82l43 -275h15l76 152c21 43 34 78 34 110c0 24 -7 45 -22 67z" />
    <glyph glyph-name="Ydieresis" unicode="&#x178;" horiz-adv-x="518" 
d="M246 740c-32 0 -49 18 -49 50s20 53 53 53c29 0 47 -20 47 -49c0 -33 -20 -54 -51 -54zM411 739c-32 0 -49 19 -49 50c0 32 19 53 52 53c30 0 47 -19 47 -49c0 -33 -19 -54 -50 -54zM296 227l-7 -43l-19 -184h-99l30 184l4 44l-143 414h102l8 -39l89 -273h8l168 270
l21 42h104z" />
    <glyph glyph-name="Zacute" unicode="&#x179;" horiz-adv-x="514" 
d="M392 869l25 -57l-4 -10c-70 -31 -135 -57 -201 -83l-11 4l-17 42c67 34 130 66 198 107zM520 570l-391 -492h234l98 8l3 -6l-17 -82l-124 2h-258l-63 -3l9 72l393 494h-219l-99 -8l-5 6l19 82l376 -1l53 1z" />
    <glyph glyph-name="zacute" unicode="&#x17a;" horiz-adv-x="414" 
d="M327 705l37 -52l-3 -10c-62 -45 -119 -85 -178 -124l-10 1l-25 38c58 48 112 93 170 148zM395 449l-273 -359l29 7c25 0 63 -19 87 -19c53 0 76 28 80 114l14 7l44 -21c-4 -130 -57 -188 -139 -188c-55 0 -106 33 -151 33c-23 0 -39 -7 -62 -29h-10l-29 27l272 361
l-121 -1l-74 -10l-8 7l19 85l9 6l72 -5l185 -3l27 16z" />
    <glyph glyph-name="Zdotaccent" unicode="&#x17b;" horiz-adv-x="514" 
d="M294 855c33 0 52 -20 52 -52c0 -35 -22 -57 -55 -57c-34 0 -52 20 -52 53c0 34 21 56 55 56zM520 570l-391 -492h234l98 8l3 -6l-17 -82l-124 2h-258l-63 -3l9 72l393 494h-219l-99 -8l-5 6l19 82l376 -1l53 1z" />
    <glyph glyph-name="zdotaccent" unicode="&#x17c;" horiz-adv-x="414" 
d="M257 674c33 0 52 -20 52 -52c0 -35 -22 -57 -55 -57c-34 0 -52 20 -52 53c0 34 21 56 55 56zM395 449l-273 -359l29 7c25 0 63 -19 87 -19c53 0 76 28 80 114l14 7l44 -21c-4 -130 -57 -188 -139 -188c-55 0 -106 33 -151 33c-23 0 -39 -7 -62 -29h-10l-29 27l272 361
l-121 -1l-74 -10l-8 7l19 85l9 6l72 -5l185 -3l27 16z" />
    <glyph glyph-name="Zcaron" unicode="&#x17d;" horiz-adv-x="514" 
d="M410 858l15 -41c-49 -30 -93 -62 -132 -95h-24c-35 33 -73 65 -113 95l24 41h10l96 -65c37 22 74 43 114 65h10zM520 570l-391 -492h234l98 8l3 -6l-17 -82l-124 2h-258l-63 -3l9 72l393 494h-219l-99 -8l-5 6l19 82l376 -1l53 1z" />
    <glyph glyph-name="zcaron" unicode="&#x17e;" horiz-adv-x="414" 
d="M374 697l20 -38c-43 -39 -89 -85 -141 -137h-25c-34 48 -74 95 -114 137l30 38h10c36 -35 66 -67 92 -100c34 33 74 65 117 100h11zM395 449l-273 -359l29 7c25 0 63 -19 87 -19c53 0 76 28 80 114l14 7l44 -21c-4 -130 -57 -188 -139 -188c-55 0 -106 33 -151 33
c-23 0 -39 -7 -62 -29h-10l-29 27l272 361l-121 -1l-74 -10l-8 7l19 85l9 6l72 -5l185 -3l27 16z" />
    <glyph glyph-name="florin" unicode="&#x192;" horiz-adv-x="293" 
d="M310 617c24 0 46 -3 75 -9l-14 -63l-8 -4c-25 11 -48 14 -65 14c-58 0 -85 -31 -91 -85l-13 -93h108l4 -6l-5 -46h-114l-17 -140l-17 -135c-10 -92 -40 -140 -125 -200l-40 38l2 8c56 47 77 82 85 152l16 130l17 147h-66l-4 6l5 46h71l10 80c11 103 80 160 186 160z" />
    <glyph glyph-name="Ohorn" unicode="&#x1a0;" horiz-adv-x="621" 
d="M628 769c26 0 48 -31 48 -76c0 -73 -57 -118 -127 -124c36 -49 51 -109 51 -189c0 -228 -119 -388 -321 -388c-151 0 -236 90 -236 277c0 226 121 380 316 380c89 0 124 -30 169 -30c37 0 70 20 70 62c0 20 -7 43 -22 60l3 8c15 11 34 20 49 20zM352 568
c-140 0 -208 -108 -208 -293c0 -141 41 -204 146 -204c138 0 207 110 207 296c0 140 -41 201 -145 201z" />
    <glyph glyph-name="ohorn" unicode="&#x1a1;" horiz-adv-x="441" 
d="M502 507c0 -63 -54 -109 -117 -115c9 -22 14 -48 14 -79c0 -188 -86 -311 -232 -322l-9 1c-79 15 -121 62 -121 163c0 180 88 306 234 314h9c39 -10 60 -25 87 -25c36 0 55 18 55 50c0 23 -10 43 -30 63l3 9c17 15 34 23 50 23c26 0 57 -34 57 -82zM181 63
c87 0 127 94 127 243c0 64 -17 89 -56 89c-87 0 -127 -92 -127 -240c0 -65 16 -92 56 -92z" />
    <glyph glyph-name="Uhorn" unicode="&#x1af;" horiz-adv-x="612" 
d="M665 700c0 -46 -31 -83 -80 -100l-38 -285l-9 -74c-17 -158 -107 -249 -262 -249c-130 0 -211 67 -211 188c0 17 1 34 4 53l12 88l38 321h97l-54 -396c-2 -16 -3 -29 -3 -43c0 -85 42 -126 124 -126c96 0 152 52 164 159l46 406h35c41 0 61 17 61 50c0 21 -9 40 -29 60
l3 9c15 11 31 19 46 19c26 0 56 -34 56 -80z" />
    <glyph glyph-name="uhorn" unicode="&#x1b0;" horiz-adv-x="482" 
d="M528 535c0 -49 -37 -88 -98 -110l-44 -314l-4 -108l-95 -7l29 207h-8c-60 -101 -105 -161 -161 -206h-11c-51 10 -90 40 -89 89l1 14l41 253l7 106l94 8l-50 -322l-1 -13c-1 -24 6 -32 17 -32c36 0 99 83 182 263l4 95l36 6c49 7 71 25 71 56c0 20 -10 42 -31 63l2 9
c18 14 35 23 51 23c26 0 57 -34 57 -80z" />
    <glyph glyph-name="Acaron" unicode="&#x1cd;" horiz-adv-x="561" 
d="M355 722h-24c-35 33 -73 65 -113 95l24 41h10l96 -65c37 22 74 43 114 65h10l15 -41c-49 -30 -93 -62 -132 -95zM515 0h-99l-6 71l-16 92l-130 3l-117 -2l-40 -89l-26 -75h-97l298 642h115zM380 244l-51 300h-8l-136 -299l96 -2z" />
    <glyph glyph-name="acaron" unicode="&#x1ce;" horiz-adv-x="447" 
d="M266 523h-25c-34 48 -74 95 -114 137l30 38h10c36 -35 66 -67 92 -100c34 33 74 65 117 100h11l20 -38c-43 -39 -89 -85 -141 -137zM395 469l10 -6l-50 -352l-4 -108l-95 -7l26 182h-12c-40 -70 -87 -134 -140 -186h-16c-58 28 -86 81 -86 161c0 132 77 284 236 315h5
l67 -24zM141 93c23 0 95 84 166 260v3l1 12l-63 24c-82 0 -130 -93 -130 -212c0 -69 14 -87 26 -87z" />
    <glyph glyph-name="Icaron" unicode="&#x1cf;" horiz-adv-x="270" 
d="M323 858l15 -41c-49 -30 -93 -62 -132 -95h-24c-35 33 -73 65 -113 95l24 41h10l96 -65c37 22 74 43 114 65h10zM176 201l-20 -201h-99l30 193l50 449h99z" />
    <glyph glyph-name="icaron" unicode="&#x1d0;" horiz-adv-x="225" 
d="M277 697l20 -38c-43 -39 -89 -85 -141 -137h-25c-34 48 -74 95 -114 137l30 38h10c36 -35 66 -67 92 -100c34 33 74 65 117 100h11zM137 111l-4 -108l-95 -7l51 361l4 101l94 7z" />
    <glyph glyph-name="Ocaron" unicode="&#x1d1;" horiz-adv-x="618" 
d="M497 858l15 -41c-49 -30 -93 -62 -132 -95h-24c-35 33 -73 65 -113 95l24 41h10l96 -65c37 22 74 43 114 65h10zM363 649c150 0 238 -93 238 -260c0 -243 -114 -397 -321 -397c-148 0 -237 96 -237 265c0 243 114 392 320 392zM351 568c-141 0 -207 -103 -207 -306
c0 -129 46 -191 145 -191c139 0 208 103 208 308c0 129 -47 189 -146 189z" />
    <glyph glyph-name="ocaron" unicode="&#x1d2;" horiz-adv-x="420" 
d="M386 697l20 -38c-43 -39 -89 -85 -141 -137h-25c-34 48 -74 95 -114 137l30 38h10c36 -35 66 -67 92 -100c34 33 74 65 117 100h11zM264 469h10c74 -14 116 -62 116 -157c0 -186 -85 -310 -229 -321l-10 1c-78 15 -119 63 -119 163c0 180 88 306 232 314zM245 393
c-86 0 -125 -91 -125 -238c0 -64 15 -90 55 -90c85 0 124 94 124 240c0 64 -16 88 -54 88z" />
    <glyph glyph-name="Ucaron" unicode="&#x1d3;" horiz-adv-x="606" 
d="M493 878l20 -38c-43 -39 -89 -85 -141 -137h-25c-34 48 -74 95 -114 137l30 38h10c36 -35 66 -67 92 -100c34 33 74 65 117 100h11zM547 315l-9 -74c-17 -158 -107 -249 -262 -249c-130 0 -211 67 -211 188c0 17 1 34 4 53l12 88l38 321h97l-54 -396
c-2 -16 -3 -29 -3 -43c0 -85 42 -126 124 -126c96 0 152 52 164 159l46 406h98z" />
    <glyph glyph-name="ucaron" unicode="&#x1d4;" horiz-adv-x="478" 
d="M285 522h-25c-34 48 -74 95 -114 137l30 38h10c36 -35 66 -67 92 -100c34 33 74 65 117 100h11l20 -38c-43 -39 -89 -85 -141 -137zM436 465l-51 -354l-3 -108l-96 -7l29 204h-9c-58 -99 -105 -158 -160 -203h-11c-50 10 -89 40 -88 89l1 14l41 253l6 106l94 8l-50 -322
l-2 -21c-1 -18 7 -24 18 -24c36 0 100 83 181 253l1 4l4 101z" />
    <glyph glyph-name="Udieresismacron" unicode="&#x1d5;" horiz-adv-x="606" 
d="M535 940l-6 -57h-265l-7 8l5 56h266zM304 820c29 0 46 -17 46 -47s-18 -50 -49 -50c-29 0 -47 17 -47 47s19 50 50 50zM467 820c29 0 46 -17 46 -47s-19 -50 -49 -50c-29 0 -47 17 -47 47s19 50 50 50zM547 315l-9 -74c-17 -158 -107 -249 -262 -249
c-130 0 -211 67 -211 188c0 17 1 34 4 53l12 88l38 321h97l-54 -396c-2 -16 -3 -29 -3 -43c0 -85 42 -126 124 -126c96 0 152 52 164 159l46 406h98z" />
    <glyph glyph-name="udieresismacron" unicode="&#x1d6;" horiz-adv-x="478" 
d="M448 759l-6 -57h-265l-7 8l5 56h266zM263 592c0 -30 -18 -50 -49 -50c-29 0 -47 17 -47 47s19 50 50 50c29 0 46 -17 46 -47zM377 542c-29 0 -47 17 -47 47s19 50 50 50c29 0 46 -17 46 -47s-19 -50 -49 -50zM341 458l95 7l-51 -354l-3 -108l-96 -7l29 204h-9
c-58 -99 -105 -158 -160 -203h-11c-50 10 -89 40 -88 89l1 14l41 253l6 106l94 8l-50 -322l-2 -21c-1 -18 7 -24 18 -24c36 0 100 83 181 253l1 4z" />
    <glyph glyph-name="Udieresisacute" unicode="&#x1d7;" horiz-adv-x="606" 
d="M483 987l15 -61l-5 -10c-75 -18 -143 -32 -213 -45l-10 5l-9 45c71 21 139 42 213 70zM291 820c29 0 46 -17 46 -47s-19 -50 -50 -50c-29 0 -46 17 -46 47s19 50 50 50zM454 820c28 0 46 -17 46 -47s-19 -50 -50 -50c-29 0 -46 17 -46 47s19 50 50 50zM547 315l-9 -74
c-17 -158 -107 -249 -262 -249c-130 0 -211 67 -211 188c0 17 1 34 4 53l12 88l38 321h97l-54 -396c-2 -16 -3 -29 -3 -43c0 -85 42 -126 124 -126c96 0 152 52 164 159l46 406h98z" />
    <glyph glyph-name="udieresisacute" unicode="&#x1d8;" horiz-adv-x="478" 
d="M183 695l-9 45c71 21 139 42 213 70l9 -4l15 -61l-5 -10c-75 -18 -143 -32 -213 -45zM200 542c-29 0 -46 17 -46 47s19 50 50 50c29 0 46 -17 46 -47s-19 -50 -50 -50zM367 639c28 0 46 -17 46 -47s-19 -50 -50 -50c-29 0 -46 17 -46 47s19 50 50 50zM436 465l-51 -354
l-3 -108l-96 -7l29 204h-9c-58 -99 -105 -158 -160 -203h-11c-50 10 -89 40 -88 89l1 14l41 253l6 106l94 8l-50 -322l-2 -21c-1 -18 7 -24 18 -24c36 0 100 83 181 253l1 4l4 101z" />
    <glyph glyph-name="Udieresiscaron" unicode="&#x1d9;" horiz-adv-x="606" 
d="M507 976l14 -41c-48 -30 -92 -62 -131 -95h-24c-35 33 -74 65 -114 95l25 41h10c32 -22 63 -43 95 -66c38 23 75 44 114 66h11zM294 820c29 0 46 -17 46 -47s-18 -50 -49 -50c-29 0 -47 17 -47 47s19 50 50 50zM457 820c29 0 46 -17 46 -47s-19 -50 -49 -50
c-29 0 -47 17 -47 47s19 50 50 50zM547 315l-9 -74c-17 -158 -107 -249 -262 -249c-130 0 -211 67 -211 188c0 17 1 34 4 53l12 88l38 321h97l-54 -396c-2 -16 -3 -29 -3 -43c0 -85 42 -126 124 -126c96 0 152 52 164 159l46 406h98z" />
    <glyph glyph-name="udieresiscaron" unicode="&#x1da;" horiz-adv-x="478" 
d="M303 659h-24c-35 33 -74 65 -114 95l25 41h10c32 -22 63 -43 95 -66c38 23 75 44 114 66h11l14 -41c-48 -30 -92 -62 -131 -95zM204 542c-29 0 -47 17 -47 47s19 50 50 50c29 0 46 -17 46 -47s-18 -50 -49 -50zM320 589c0 30 19 50 50 50c29 0 46 -17 46 -47
s-19 -50 -49 -50c-29 0 -47 17 -47 47zM436 465l-51 -354l-3 -108l-96 -7l29 204h-9c-58 -99 -105 -158 -160 -203h-11c-50 10 -89 40 -88 89l1 14l41 253l6 106l94 8l-50 -322l-2 -21c-1 -18 7 -24 18 -24c36 0 100 83 181 253l1 4l4 101z" />
    <glyph glyph-name="Udieresisgrave" unicode="&#x1db;" horiz-adv-x="606" 
d="M292 987l11 4c70 -28 136 -49 204 -70l-15 -45l-11 -5c-67 13 -134 27 -206 45l-4 10zM290 820c26 0 42 -16 42 -42c0 -33 -21 -55 -55 -55c-27 0 -42 16 -42 42c0 33 22 55 55 55zM453 820c26 0 42 -16 42 -42c0 -33 -22 -55 -55 -55c-27 0 -42 16 -42 42
c0 33 21 55 55 55zM547 315l-9 -74c-17 -158 -107 -249 -262 -249c-130 0 -211 67 -211 188c0 17 1 34 4 53l12 88l38 321h97l-54 -396c-2 -16 -3 -29 -3 -43c0 -85 42 -126 124 -126c96 0 152 52 164 159l46 406h98z" />
    <glyph glyph-name="udieresisgrave" unicode="&#x1dc;" horiz-adv-x="478" 
d="M405 695l-11 -5c-67 13 -134 27 -206 45l-4 10l21 61l11 4c70 -28 136 -49 204 -70zM190 542c-27 0 -42 16 -42 42c0 33 22 55 55 55c26 0 42 -16 42 -42c0 -33 -21 -55 -55 -55zM366 639c26 0 42 -16 42 -42c0 -33 -22 -55 -55 -55c-27 0 -42 16 -42 42
c0 33 21 55 55 55zM436 465l-51 -354l-3 -108l-96 -7l29 204h-9c-58 -99 -105 -158 -160 -203h-11c-50 10 -89 40 -88 89l1 14l41 253l6 106l94 8l-50 -322l-2 -21c-1 -18 7 -24 18 -24c36 0 100 83 181 253l1 4l4 101z" />
    <glyph glyph-name="Oogonek" unicode="&#x1ea;" horiz-adv-x="618" 
d="M423 22l-46 -70c-11 -17 -17 -33 -17 -48c0 -23 13 -39 39 -39c22 0 45 13 67 35h6l11 -46c-34 -33 -64 -51 -99 -51c-51 0 -84 35 -84 83c0 24 8 50 27 77l25 36c-23 -5 -47 -7 -72 -7c-148 0 -237 96 -237 265c0 243 114 392 320 392c150 0 238 -93 238 -260
c0 -179 -62 -310 -178 -367zM144 262c0 -129 46 -191 145 -191c139 0 208 103 208 308c0 129 -47 189 -146 189c-141 0 -207 -103 -207 -306z" />
    <glyph glyph-name="oogonek" unicode="&#x1eb;" horiz-adv-x="436" 
d="M312 -101l11 -46c-34 -33 -64 -51 -99 -51c-51 0 -84 35 -84 83c0 24 8 50 27 77l23 33c-10 -2 -19 -3 -29 -4l-10 1c-78 15 -119 63 -119 163c0 180 88 306 232 314h10c74 -14 116 -62 116 -157c0 -136 -45 -238 -125 -288l-48 -73c-11 -17 -17 -33 -17 -48
c0 -23 13 -39 39 -39c22 0 45 13 67 35h6zM120 155c0 -64 15 -90 55 -90c85 0 124 94 124 240c0 64 -16 88 -54 88c-86 0 -125 -91 -125 -238z" />
    <glyph glyph-name="Aringacute" unicode="&#x1fa;" horiz-adv-x="567" 
d="M263 792l-10 44c70 22 137 45 211 74l10 -4l15 -60l-4 -9c-75 -21 -143 -35 -212 -51zM520 0h-99l-6 69l-16 92l-131 3l-116 -2l-41 -88l-25 -74h-97l295 618c-16 14 -25 36 -25 65c0 54 33 87 89 87c57 0 87 -35 87 -84c0 -33 -13 -58 -35 -73zM346 725
c-29 0 -43 -15 -43 -40c0 -30 17 -44 44 -44c26 0 44 13 44 41c0 26 -15 43 -45 43zM385 242l-51 295h-8l-137 -295l96 -2z" />
    <glyph glyph-name="aringacute" unicode="&#x1fb;" horiz-adv-x="447" 
d="M181 708l-10 44c70 22 137 45 211 74l10 -4l15 -61l-4 -8c-75 -21 -143 -35 -213 -51zM177 599c0 54 33 87 89 87c57 0 86 -35 86 -84c0 -57 -38 -89 -90 -89c-50 0 -85 30 -85 86zM308 598c0 26 -14 43 -44 43c-29 0 -43 -15 -43 -41c0 -29 17 -43 44 -43
c26 0 43 13 43 41zM395 469l10 -6l-50 -352l-4 -108l-95 -7l26 182h-12c-40 -70 -87 -134 -140 -186h-16c-58 28 -86 81 -86 161c0 132 77 284 236 315h5l67 -24zM141 93c23 0 95 84 166 260v3l1 12l-63 24c-82 0 -130 -93 -130 -212c0 -69 14 -87 26 -87z" />
    <glyph glyph-name="AEacute" unicode="&#x1fc;" horiz-adv-x="778" 
d="M457 723l-17 42c67 34 130 66 198 107l10 -3l25 -57l-4 -10c-70 -31 -135 -57 -201 -83zM748 76l-17 -76h-348l4 71l-1 176l-223 -54l-71 -118l-36 -75h-99l392 642h382l6 -9l-18 -76l-151 5h-90l1 -218l203 47l7 -6l-2 -71l-208 -45l1 -191h105l157 6zM385 322l-2 222
h-7l-158 -261z" />
    <glyph glyph-name="aeacute" unicode="&#x1fd;" horiz-adv-x="623" 
d="M447 706l37 -52l-3 -10c-62 -45 -119 -85 -178 -124l-10 1l-25 38c58 48 112 93 170 148zM278 468l111 -40c35 25 76 40 122 42l11 -1c56 -10 92 -41 92 -97c0 -77 -74 -141 -248 -198v-11c4 -64 24 -92 61 -92c44 0 91 37 116 88l14 -1l31 -42
c-47 -66 -101 -108 -162 -123h-13c-99 10 -133 68 -136 166l-1 7c-41 -65 -87 -125 -139 -174h-16c-59 28 -87 82 -87 161c0 133 78 284 238 315h6zM485 403c-61 0 -105 -63 -117 -163c106 32 161 74 161 125c0 25 -14 38 -44 38zM327 364l-74 29c-84 0 -133 -94 -133 -212
c0 -70 14 -89 27 -89c22 0 90 77 158 232c7 16 13 27 22 40z" />
    <glyph glyph-name="Oslashacute" unicode="&#x1fe;" horiz-adv-x="619" 
d="M276 725l-17 42c67 34 130 66 198 107l10 -3l25 -57l-4 -10c-70 -31 -135 -57 -201 -83zM573 695l-54 -95c53 -43 82 -115 82 -211c0 -243 -114 -397 -321 -397c-38 0 -71 6 -101 18l-67 -117l-55 22l-3 9l69 120c-52 45 -80 117 -80 213c0 243 114 392 320 392
c36 0 69 -5 98 -16l54 95l54 -22zM144 262c0 -57 9 -101 28 -133l245 427c-19 8 -41 12 -66 12c-141 0 -207 -103 -207 -306zM289 71c139 0 208 103 208 308c0 58 -10 102 -29 133l-246 -428c19 -9 41 -13 67 -13z" />
    <glyph glyph-name="oslashacute" unicode="&#x1ff;" horiz-adv-x="421" 
d="M181 520l-25 38c58 48 112 93 170 148l9 -1l37 -52l-3 -10c-62 -45 -119 -85 -178 -124zM396 523l-46 -91c26 -26 40 -65 40 -120c0 -186 -85 -310 -230 -321l-9 1c-8 2 -15 3 -23 6l-59 -117l-52 26l-3 9l58 114c-26 27 -40 67 -40 125c0 180 88 306 231 314h10
c8 -1 15 -3 22 -5l48 94l48 -25zM120 155c0 -11 0 -21 1 -30l137 267c-4 1 -8 1 -13 1c-86 0 -125 -91 -125 -238zM175 65c85 0 124 94 124 240c0 9 0 18 -1 26l-135 -265c4 -1 8 -1 12 -1z" />
    <glyph glyph-name="Scommaaccent" unicode="&#x218;" horiz-adv-x="464" 
d="M307 648c40 0 96 -8 150 -31l-27 -90l-16 -6c-36 31 -78 48 -122 48c-69 0 -113 -44 -113 -92c0 -110 244 -119 244 -291c0 -108 -97 -194 -232 -194c-56 0 -123 15 -176 44l25 97l12 6c44 -48 103 -69 151 -69c72 0 119 44 119 97c0 116 -240 118 -240 291
c0 108 96 190 225 190zM209 -51c25 -18 39 -40 39 -67c0 -45 -30 -89 -94 -135l-29 27l-1 7c33 27 51 55 51 83c0 19 -11 35 -29 48v8c20 12 40 22 63 29z" />
    <glyph glyph-name="scommaaccent" unicode="&#x219;" horiz-adv-x="326" 
d="M228 468c33 -7 60 -15 90 -26l-25 -85l-15 -4c-27 32 -57 48 -84 48c-35 0 -62 -29 -62 -59c0 -68 152 -83 152 -200c0 -86 -76 -149 -183 -150c-38 5 -72 14 -107 33l24 88l13 5c29 -40 67 -62 101 -62c40 0 65 31 65 61c0 74 -153 87 -153 203c1 88 86 149 184 148z
M146 -51c25 -18 39 -40 39 -67c0 -45 -30 -89 -94 -135l-29 27l-1 7c33 27 51 55 51 83c0 19 -11 35 -29 48v8c20 12 40 22 63 29z" />
    <glyph glyph-name="Tcommaaccent" unicode="&#x21a;" horiz-adv-x="475" 
d="M507 633l-16 -75l-109 6h-53l-50 -363l-19 -201h-99l30 193l41 371h-52l-113 -6l-6 9l17 75h425zM214 -51c25 -18 39 -40 39 -67c0 -45 -30 -89 -94 -135l-29 27l-1 7c33 27 51 55 51 83c0 19 -11 35 -29 48v8c20 12 40 22 63 29z" />
    <glyph glyph-name="tcommaaccent" unicode="&#x21b;" horiz-adv-x="330" 
d="M162 130l-2 -17c0 -19 8 -27 24 -27c23 0 50 23 81 67l14 -1l28 -38c-43 -55 -85 -92 -130 -118l-13 -1c-56 9 -92 37 -91 91l1 16l42 257l3 31h-65l-6 7l7 54h70l10 104l91 36l9 -6l-21 -134h116l7 -8l-6 -53h-127zM182 -51c25 -18 39 -40 39 -67
c0 -45 -30 -89 -94 -135l-29 27l-1 7c33 27 51 55 51 83c0 19 -11 35 -29 48v8c20 12 40 22 63 29z" />
    <glyph glyph-name="dotlessj" unicode="&#x237;" horiz-adv-x="242" 
d="M201 460l-50 -348l-9 -92c-13 -105 -55 -161 -156 -214l-31 43l1 10c62 39 90 79 100 157l47 340l2 34h-73l-5 7l8 54h68l94 13z" />
    <glyph glyph-name="circumflex" unicode="&#x2c6;" 
d="M116 524l-20 38c44 39 91 85 143 137h25c35 -48 73 -95 111 -137l-30 -38h-10c-35 35 -65 67 -91 100c-35 -33 -74 -65 -117 -100h-11z" />
    <glyph glyph-name="caron" unicode="&#x2c7;" 
d="M367 697l20 -38c-43 -39 -89 -85 -141 -137h-25c-34 48 -74 95 -114 137l30 38h10c36 -35 66 -67 92 -100c34 33 74 65 117 100h11z" />
    <glyph glyph-name="firsttonechinese" unicode="&#x2c9;" 
d="M388 636l-5 -56h-282l-7 8l6 55h282z" />
    <glyph glyph-name="breve" unicode="&#x2d8;" 
d="M358 681l21 -35c-24 -71 -72 -118 -143 -118c-83 0 -118 50 -125 118l28 35h15c7 -56 37 -84 85 -84c49 0 84 28 105 84h14z" />
    <glyph glyph-name="dotaccent" unicode="&#x2d9;" 
d="M244 674c33 0 52 -20 52 -52c0 -35 -22 -57 -55 -57c-34 0 -52 20 -52 53c0 34 21 56 55 56z" />
    <glyph glyph-name="ring" unicode="&#x2da;" 
d="M244 706c57 0 86 -35 86 -84c0 -57 -38 -89 -90 -89c-50 0 -85 30 -85 86c0 54 32 87 89 87zM241 661c-28 0 -42 -15 -42 -41c0 -29 17 -43 44 -43c25 0 43 13 43 41c0 26 -14 43 -45 43z" />
    <glyph glyph-name="ogonek" unicode="&#x2db;" 
d="M202 53l-66 -101c-11 -17 -17 -33 -17 -48c0 -23 13 -39 39 -39c22 0 45 13 67 35h6l11 -46c-34 -33 -64 -51 -99 -51c-51 0 -84 35 -84 83c0 24 8 50 27 77l62 90h54z" />
    <glyph glyph-name="tilde" unicode="&#x2dc;" 
d="M404 649v-9l-64 -76l-10 -4c-44 5 -129 37 -155 37c-17 0 -34 -23 -59 -49h-9l-30 30v9l64 76l11 3c44 -5 130 -35 155 -35c17 0 33 21 59 48h9z" />
    <glyph glyph-name="hungarumlaut" unicode="&#x2dd;" 
d="M107 519l-31 28c46 52 89 105 131 160l9 1l45 -33v-9c-47 -50 -95 -98 -144 -145zM253 519l-32 28c46 52 90 105 132 160l8 1l45 -33v-9c-47 -50 -95 -98 -144 -145z" />
    <glyph glyph-name="tildecomb" unicode="&#x303;" horiz-adv-x="0" 
d="M404 649v-9l-65 -77l-10 -3c-43 5 -128 37 -154 37c-17 0 -34 -23 -59 -49h-9l-30 30v9l65 76l11 4c43 -5 129 -36 154 -36c17 0 33 21 59 48h9z" />
    <glyph glyph-name="dotbelowcomb" unicode="&#x323;" horiz-adv-x="0" 
d="M153 -66c32 0 51 -20 51 -52c0 -35 -21 -57 -55 -57c-33 0 -52 19 -52 53s21 56 56 56z" />
    <glyph glyph-name="commaaccent" unicode="&#x326;" horiz-adv-x="0" 
d="M167 -55c25 -18 39 -40 39 -67c0 -45 -30 -89 -94 -135l-29 27l-1 7c33 27 51 55 51 83c0 19 -11 35 -29 48v8c20 12 40 22 63 29z" />
    <glyph glyph-name="Delta" unicode="&#x394;" horiz-adv-x="562" 
d="M515 0h-531l298 642h115zM321 544l-211 -464h297l-78 464h-8z" />
    <glyph glyph-name="Omega" unicode="&#x3a9;" horiz-adv-x="718" 
d="M408 649c170 0 249 -112 249 -245c0 -111 -55 -234 -163 -325l2 -4h88l79 8l5 -6l-22 -81l-100 4h-130l-37 -2l-4 4l8 74c110 82 171 206 171 320c0 96 -43 173 -154 173c-132 0 -199 -109 -199 -244c0 -92 33 -190 96 -249l-8 -74l-6 -4l-37 2h-147l-88 -3l-5 7l22 78
l83 -7h76l1 4c-60 65 -89 159 -89 247c0 170 108 323 309 323z" />
    <glyph glyph-name="mu" unicode="&#x3bc;" horiz-adv-x="488" 
d="M445 464l-50 -353l-4 -108l-92 -7l30 211h-10c-61 -103 -109 -166 -167 -211h-11c-6 1 -12 3 -18 5l-11 -78l-4 -110l-91 -7l77 551l4 101l90 6l-47 -336c-3 -26 7 -34 19 -34c36 0 105 87 191 271l4 93z" />
    <glyph glyph-name="pi" unicode="&#x3c0;" horiz-adv-x="633" 
d="M513 422l-40 -312c-5 -31 1 -45 20 -45c10 0 24 4 37 10l7 -5l-18 -55c-24 -13 -46 -20 -64 -20c-46 0 -80 25 -71 103l41 324h-154l-27 -220l-35 -294h-93l38 286l27 228h-30c-23 0 -53 -33 -93 -69h-11l-24 37l1 11l94 93l16 6h371l115 2l6 -9l-17 -72z" />
    <glyph glyph-name="Wgrave" unicode="&#x1e80;" horiz-adv-x="859" 
d="M387 872l10 2c69 -40 132 -73 198 -106l-17 -42l-11 -4c-66 26 -130 51 -201 83l-4 10zM611 0h-102l-65 351h-7l-156 -351h-104l-106 642h96l2 -67l76 -470h7l167 377l-29 160h101l5 -77l78 -460h7l207 464l24 73h92z" />
    <glyph glyph-name="wgrave" unicode="&#x1e81;" horiz-adv-x="692" 
d="M312 705l10 1c57 -55 111 -100 170 -148l-26 -38l-10 -1c-59 39 -116 79 -178 124l-2 10zM506 0h-101l-32 333h-9l-142 -333h-104l-53 458l93 7l1 -65l25 -293h9l124 287l24 67h100l2 -61l26 -292h8l89 171c18 36 30 65 30 92c0 23 -7 44 -22 66l4 11l88 19
c15 -26 21 -53 21 -80c0 -41 -17 -84 -44 -134z" />
    <glyph glyph-name="Wacute" unicode="&#x1e82;" horiz-adv-x="859" 
d="M579 869l25 -57l-4 -10c-70 -31 -135 -57 -201 -83l-11 4l-17 42c67 34 130 66 198 107zM611 0h-102l-65 351h-7l-156 -351h-104l-106 642h96l2 -67l76 -470h7l167 377l-29 160h101l5 -77l78 -460h7l207 464l24 73h92z" />
    <glyph glyph-name="wacute" unicode="&#x1e83;" horiz-adv-x="692" 
d="M467 705l37 -52l-3 -10c-62 -45 -119 -85 -178 -124l-10 1l-25 38c58 48 112 93 170 148zM506 0h-101l-32 333h-9l-142 -333h-104l-53 458l93 7l1 -65l25 -293h9l124 287l24 67h100l2 -61l26 -292h8l89 171c18 36 30 65 30 92c0 23 -7 44 -22 66l4 11l88 19
c15 -26 21 -53 21 -80c0 -41 -17 -84 -44 -134z" />
    <glyph glyph-name="Wdieresis" unicode="&#x1e84;" horiz-adv-x="859" 
d="M398 843c29 0 47 -20 47 -49c0 -33 -20 -54 -51 -54c-32 0 -49 18 -49 50s20 53 53 53zM562 842c30 0 47 -19 47 -49c0 -33 -19 -54 -50 -54c-32 0 -49 19 -49 50c0 32 19 53 52 53zM611 0h-102l-65 351h-7l-156 -351h-104l-106 642h96l2 -67l76 -470h7l167 377l-29 160
h101l5 -77l78 -460h7l207 464l24 73h92z" />
    <glyph glyph-name="wdieresis" unicode="&#x1e85;" horiz-adv-x="692" 
d="M315 662c29 0 47 -20 47 -49c0 -33 -20 -54 -51 -54c-32 0 -49 18 -49 50s20 53 53 53zM479 661c30 0 47 -19 47 -49c0 -33 -19 -54 -50 -54c-32 0 -49 19 -49 50c0 32 19 53 52 53zM506 0h-101l-32 333h-9l-142 -333h-104l-53 458l93 7l1 -65l25 -293h9l124 287l24 67
h100l2 -61l26 -292h8l89 171c18 36 30 65 30 92c0 23 -7 44 -22 66l4 11l88 19c15 -26 21 -53 21 -80c0 -41 -17 -84 -44 -134z" />
    <glyph glyph-name="Germandbls" unicode="&#x1e9e;" horiz-adv-x="620" 
d="M369 648c81 0 153 -26 224 -64l3 -17l-172 -199c110 -49 166 -89 166 -179c0 -121 -101 -197 -219 -197c-52 0 -111 15 -159 44l25 97l12 6c42 -44 93 -69 138 -69c60 0 104 42 104 100c0 63 -52 100 -191 148l-1 18l171 201c-39 21 -77 31 -116 31
c-96 0 -152 -55 -164 -148l-30 -218l-20 -202h-99l30 190l25 231c15 136 118 227 273 227z" />
    <glyph glyph-name="Adotbelow" unicode="&#x1ea0;" horiz-adv-x="561" 
d="M515 0h-99l-6 71l-16 92l-130 3l-117 -2l-40 -89l-26 -75h-97l298 642h115zM380 244l-51 300h-8l-136 -299l96 -2zM242 -66c32 0 51 -20 51 -52c0 -35 -21 -57 -55 -57c-33 0 -52 19 -52 53s21 56 56 56z" />
    <glyph glyph-name="adotbelow" unicode="&#x1ea1;" horiz-adv-x="447" 
d="M405 463l-50 -352l-4 -108l-95 -7l26 182h-12c-40 -70 -87 -134 -140 -186h-16c-58 28 -86 81 -86 161c0 132 77 284 236 315h5l67 -24l59 25zM141 93c23 0 95 84 166 260v3l1 12l-63 24c-82 0 -130 -93 -130 -212c0 -69 14 -87 26 -87zM199 -66c32 0 51 -20 51 -52
c0 -35 -21 -57 -55 -57c-33 0 -52 19 -52 53s21 56 56 56z" />
    <glyph glyph-name="Ahookabove" unicode="&#x1ea2;" horiz-adv-x="561" 
d="M326 853c-18 0 -40 -8 -59 -24l-19 29c27 28 61 45 93 45c39 0 68 -26 68 -61c0 -25 -15 -46 -53 -78l21 -36l-39 -22l-35 59c32 24 50 50 50 67c0 14 -11 21 -27 21zM515 0h-99l-6 71l-16 92l-130 3l-117 -2l-40 -89l-26 -75h-97l298 642h115zM380 244l-51 300h-8
l-136 -299l96 -2z" />
    <glyph glyph-name="ahookabove" unicode="&#x1ea3;" horiz-adv-x="447" 
d="M241 673c-18 0 -40 -8 -59 -24l-19 29c27 28 61 45 93 45c39 0 68 -26 68 -61c0 -25 -15 -46 -53 -78l21 -36l-39 -22l-35 59c32 24 50 50 50 67c0 14 -11 21 -27 21zM405 463l-50 -352l-4 -108l-95 -7l26 182h-12c-40 -70 -87 -134 -140 -186h-16c-58 28 -86 81 -86 161
c0 132 77 284 236 315h5l67 -24l59 25zM141 93c23 0 95 84 166 260v3l1 12l-63 24c-82 0 -130 -93 -130 -212c0 -69 14 -87 26 -87z" />
    <glyph glyph-name="Acircumflexacute" unicode="&#x1ea4;" horiz-adv-x="561" 
d="M435 824l-34 26l70 110l8 3l48 -23l2 -9l-86 -107h-8zM225 711l-14 41c48 30 91 62 131 95h24c35 -33 74 -65 114 -95l-25 -41h-10c-33 22 -63 43 -95 66c-38 -23 -76 -44 -114 -66h-11zM397 642l118 -642h-99l-6 71l-16 92l-130 3l-117 -2l-40 -89l-26 -75h-97l298 642
h115zM380 244l-51 300h-8l-136 -299l96 -2z" />
    <glyph glyph-name="acircumflexacute" unicode="&#x1ea5;" horiz-adv-x="447" 
d="M349 644l-34 26l70 110l8 3l48 -23l2 -9l-86 -107h-8zM139 531l-14 41c48 30 91 62 131 95h24c35 -33 74 -65 114 -95l-25 -41h-10c-33 22 -63 43 -95 66c-38 -23 -76 -44 -114 -66h-11zM395 469l10 -6l-50 -352l-4 -108l-95 -7l26 182h-12c-40 -70 -87 -134 -140 -186
h-16c-58 28 -86 81 -86 161c0 132 77 284 236 315h5l67 -24zM141 93c23 0 95 84 166 260v3l1 12l-63 24c-82 0 -130 -93 -130 -212c0 -69 14 -87 26 -87z" />
    <glyph glyph-name="Acircumflexgrave" unicode="&#x1ea6;" horiz-adv-x="561" 
d="M453 824l-86 107l1 9l49 23l8 -3l70 -110l-34 -26h-8zM229 710l-14 41c48 30 91 62 131 95h24c34 -33 73 -65 113 -95l-24 -41h-10c-33 22 -64 43 -95 66c-38 -23 -76 -44 -114 -66h-11zM515 0h-99l-6 71l-16 92l-130 3l-117 -2l-40 -89l-26 -75h-97l298 642h115z
M380 244l-51 300h-8l-136 -299l96 -2z" />
    <glyph glyph-name="acircumflexgrave" unicode="&#x1ea7;" horiz-adv-x="447" 
d="M367 644l-86 107l1 9l49 23l8 -3l70 -110l-34 -26h-8zM143 530l-14 41c48 30 91 62 131 95h24c34 -33 73 -65 113 -95l-24 -41h-10c-33 22 -64 43 -95 66c-38 -23 -76 -44 -114 -66h-11zM395 469l10 -6l-50 -352l-4 -108l-95 -7l26 182h-12c-40 -70 -87 -134 -140 -186
h-16c-58 28 -86 81 -86 161c0 132 77 284 236 315h5l67 -24zM141 93c23 0 95 84 166 260v3l1 12l-63 24c-82 0 -130 -93 -130 -212c0 -69 14 -87 26 -87z" />
    <glyph glyph-name="Acircumflexhookabove" unicode="&#x1ea8;" horiz-adv-x="561" 
d="M431 957c-16 0 -38 -8 -56 -23l-18 28c25 26 58 43 88 43c37 0 65 -25 65 -59c0 -24 -15 -44 -50 -74l20 -34l-38 -21l-33 56c30 23 48 47 48 64c0 13 -11 20 -26 20zM227 711l-14 41c48 30 91 62 131 95h24c35 -33 74 -65 114 -95l-25 -41h-10c-33 22 -63 43 -95 66
c-38 -23 -76 -44 -114 -66h-11zM515 0h-99l-6 71l-16 92l-130 3l-117 -2l-40 -89l-26 -75h-97l298 642h115zM380 244l-51 300h-8l-136 -299l96 -2z" />
    <glyph glyph-name="acircumflexhookabove" unicode="&#x1ea9;" horiz-adv-x="447" 
d="M345 777c-16 0 -38 -8 -56 -23l-18 28c25 26 58 43 88 43c37 0 65 -25 65 -59c0 -24 -15 -44 -50 -74l20 -34l-38 -21l-33 56c30 23 48 47 48 64c0 13 -11 20 -26 20zM141 531l-14 41c48 30 91 62 131 95h24c35 -33 74 -65 114 -95l-25 -41h-10c-33 22 -63 43 -95 66
c-38 -23 -76 -44 -114 -66h-11zM395 469l10 -6l-50 -352l-4 -108l-95 -7l26 182h-12c-40 -70 -87 -134 -140 -186h-16c-58 28 -86 81 -86 161c0 132 77 284 236 315h5l67 -24zM141 93c23 0 95 84 166 260v3l1 12l-63 24c-82 0 -130 -93 -130 -212c0 -69 14 -87 26 -87z" />
    <glyph glyph-name="Acircumflextilde" unicode="&#x1eaa;" horiz-adv-x="561" 
d="M540 957v-9l-59 -73l-10 -4c-41 5 -120 36 -145 36c-16 0 -32 -22 -54 -46h-9l-28 29v8l60 72l10 3c41 -5 121 -34 144 -34c16 0 32 21 55 47h9zM363 777c-38 -23 -76 -44 -114 -65h-11l-14 40c48 30 91 62 131 95h24c34 -33 73 -65 113 -95l-24 -40h-10
c-33 21 -64 42 -95 65zM397 642l118 -642h-99l-6 71l-16 92l-130 3l-117 -2l-40 -89l-26 -75h-97l298 642h115zM380 244l-51 300h-8l-136 -299l96 -2z" />
    <glyph glyph-name="acircumflextilde" unicode="&#x1eab;" horiz-adv-x="447" 
d="M454 777v-9l-59 -73l-10 -4c-41 5 -120 36 -145 36c-16 0 -32 -22 -54 -46h-9l-28 29v8l60 72l10 3c41 -5 121 -34 144 -34c16 0 32 21 55 47h9zM269 667h24c34 -33 73 -65 113 -95l-24 -40h-10c-33 21 -64 42 -95 65c-38 -23 -76 -44 -114 -65h-11l-14 40
c48 30 91 62 131 95zM395 469l10 -6l-50 -352l-4 -108l-95 -7l26 182h-12c-40 -70 -87 -134 -140 -186h-16c-58 28 -86 81 -86 161c0 132 77 284 236 315h5l67 -24zM141 93c23 0 95 84 166 260v3l1 12l-63 24c-82 0 -130 -93 -130 -212c0 -69 14 -87 26 -87z" />
    <glyph glyph-name="Acircumflexdotbelow" unicode="&#x1eac;" horiz-adv-x="561" 
d="M234 730l-14 41c48 30 91 62 131 95h24c35 -33 74 -65 114 -95l-25 -41h-10c-33 22 -63 43 -95 66c-38 -23 -76 -44 -114 -66h-11zM515 0h-99l-6 71l-16 92l-130 3l-117 -2l-40 -89l-26 -75h-97l298 642h115zM380 244l-51 300h-8l-136 -299l96 -2zM242 -66
c32 0 51 -20 51 -52c0 -35 -21 -57 -55 -57c-33 0 -52 19 -52 53s21 56 56 56z" />
    <glyph glyph-name="acircumflexdotbelow" unicode="&#x1ead;" horiz-adv-x="447" 
d="M156 524l-20 38c44 39 91 85 143 137h25c35 -48 73 -95 111 -137l-30 -38h-10c-35 35 -65 67 -91 100c-35 -33 -74 -65 -117 -100h-11zM395 469l10 -6l-50 -352l-4 -108l-95 -7l26 182h-12c-40 -70 -87 -134 -140 -186h-16c-58 28 -86 81 -86 161c0 132 77 284 236 315h5
l67 -24zM141 93c23 0 95 84 166 260v3l1 12l-63 24c-82 0 -130 -93 -130 -212c0 -69 14 -87 26 -87zM199 -66c32 0 51 -20 51 -52c0 -35 -21 -57 -55 -57c-33 0 -52 19 -52 53s21 56 56 56z" />
    <glyph glyph-name="Abreveacute" unicode="&#x1eae;" horiz-adv-x="561" 
d="M342 823l-32 27c31 37 60 74 89 114l9 1l44 -30l2 -9c-34 -35 -68 -68 -103 -101zM352 703c-70 0 -117 34 -131 95l29 33h15c10 -38 41 -59 88 -59c46 0 81 22 102 59h14l21 -33c-28 -61 -76 -95 -138 -95zM515 0h-99l-6 71l-16 92l-130 3l-117 -2l-40 -89l-26 -75h-97
l298 642h115zM380 244l-51 300h-8l-136 -299l96 -2z" />
    <glyph glyph-name="abreveacute" unicode="&#x1eaf;" horiz-adv-x="447" 
d="M256 643l-32 27c31 37 60 74 89 114l9 1l44 -30l2 -9c-34 -35 -68 -68 -103 -101zM266 523c-70 0 -117 34 -131 95l29 33h15c10 -38 41 -59 88 -59c46 0 81 22 102 59h14l21 -33c-28 -61 -76 -95 -138 -95zM405 463l-50 -352l-4 -108l-95 -7l26 182h-12
c-40 -70 -87 -134 -140 -186h-16c-58 28 -86 81 -86 161c0 132 77 284 236 315h5l67 -24l59 25zM141 93c23 0 95 84 166 260v3l1 12l-63 24c-82 0 -130 -93 -130 -212c0 -69 14 -87 26 -87z" />
    <glyph glyph-name="Abrevegrave" unicode="&#x1eb0;" horiz-adv-x="561" 
d="M368 823l-10 2c-34 33 -68 66 -101 101v9l45 30l9 -1c29 -40 58 -77 89 -114zM353 702c-70 0 -117 34 -131 96l29 32h15c10 -38 41 -59 88 -59c45 0 81 22 102 59h14l21 -32c-28 -62 -76 -96 -138 -96zM515 0h-99l-6 71l-16 92l-130 3l-117 -2l-40 -89l-26 -75h-97
l298 642h115zM380 244l-51 300h-8l-136 -299l96 -2z" />
    <glyph glyph-name="abrevegrave" unicode="&#x1eb1;" horiz-adv-x="447" 
d="M282 643l-10 2c-34 33 -68 66 -101 101v9l45 30l9 -1c29 -40 58 -77 89 -114zM267 522c-70 0 -117 34 -131 96l29 32h15c10 -38 41 -59 88 -59c45 0 81 22 102 59h14l21 -32c-28 -62 -76 -96 -138 -96zM395 469l10 -6l-50 -352l-4 -108l-95 -7l26 182h-12
c-40 -70 -87 -134 -140 -186h-16c-58 28 -86 81 -86 161c0 132 77 284 236 315h5l67 -24zM141 93c23 0 95 84 166 260v3l1 12l-63 24c-82 0 -130 -93 -130 -212c0 -69 14 -87 26 -87z" />
    <glyph glyph-name="Abrevehookabove" unicode="&#x1eb2;" horiz-adv-x="561" 
d="M341 967c-18 0 -40 -8 -60 -24l-18 29c27 28 61 45 92 45c39 0 69 -26 69 -61c0 -26 -16 -47 -53 -78l21 -36l-39 -22l-35 59c32 24 50 49 50 67c0 14 -11 21 -27 21zM352 704c-70 0 -117 34 -131 95l29 33h15c10 -38 41 -59 88 -59c46 0 81 21 102 59h14l21 -33
c-28 -61 -76 -95 -138 -95zM515 0h-99l-6 71l-16 92l-130 3l-117 -2l-40 -89l-26 -75h-97l298 642h115zM380 244l-51 300h-8l-136 -299l96 -2z" />
    <glyph glyph-name="abrevehookabove" unicode="&#x1eb3;" horiz-adv-x="447" 
d="M255 787c-18 0 -40 -8 -60 -24l-18 29c27 28 61 45 92 45c39 0 69 -26 69 -61c0 -26 -16 -47 -53 -78l21 -36l-39 -22l-35 59c32 24 50 49 50 67c0 14 -11 21 -27 21zM266 524c-70 0 -117 34 -131 95l29 33h15c10 -38 41 -59 88 -59c46 0 81 21 102 59h14l21 -33
c-28 -61 -76 -95 -138 -95zM405 463l-50 -352l-4 -108l-95 -7l26 182h-12c-40 -70 -87 -134 -140 -186h-16c-58 28 -86 81 -86 161c0 132 77 284 236 315h5l67 -24l59 25zM141 93c23 0 95 84 166 260v3l1 12l-63 24c-82 0 -130 -93 -130 -212c0 -69 14 -87 26 -87z" />
    <glyph glyph-name="Abrevetilde" unicode="&#x1eb4;" horiz-adv-x="561" 
d="M523 958v-9l-59 -73l-10 -4c-41 5 -120 35 -145 35c-16 0 -31 -21 -54 -46h-9l-28 29v9l60 72l10 3c41 -5 121 -35 145 -35c16 0 31 22 55 47h8zM456 827l20 -31c-27 -59 -74 -93 -134 -93c-68 0 -113 34 -127 93l28 31h15c10 -37 40 -57 85 -57c44 0 79 20 98 57h15z
M397 642l118 -642h-99l-6 71l-16 92l-130 3l-117 -2l-40 -89l-26 -75h-97l298 642h115zM380 244l-51 300h-8l-136 -299l96 -2z" />
    <glyph glyph-name="abrevetilde" unicode="&#x1eb5;" horiz-adv-x="447" 
d="M437 778v-9l-59 -73l-10 -4c-41 5 -120 35 -145 35c-16 0 -31 -21 -54 -46h-9l-28 29v9l60 72l10 3c41 -5 121 -35 145 -35c16 0 31 22 55 47h8zM370 647l20 -31c-27 -59 -74 -93 -134 -93c-68 0 -113 34 -127 93l28 31h15c10 -37 40 -57 85 -57c44 0 79 20 98 57h15z
M395 469l10 -6l-50 -352l-4 -108l-95 -7l26 182h-12c-40 -70 -87 -134 -140 -186h-16c-58 28 -86 81 -86 161c0 132 77 284 236 315h5l67 -24zM141 93c23 0 95 84 166 260v3l1 12l-63 24c-82 0 -130 -93 -130 -212c0 -69 14 -87 26 -87z" />
    <glyph glyph-name="Abrevedotbelow" unicode="&#x1eb6;" horiz-adv-x="561" 
d="M350 723c-70 0 -117 34 -131 95l29 33h15c10 -38 41 -59 88 -59c45 0 81 22 102 59h14l21 -33c-28 -61 -76 -95 -138 -95zM515 0h-99l-6 71l-16 92l-130 3l-117 -2l-40 -89l-26 -75h-97l298 642h115zM380 244l-51 300h-8l-136 -299l96 -2zM242 -66c32 0 51 -20 51 -52
c0 -35 -21 -57 -55 -57c-33 0 -52 19 -52 53s21 56 56 56z" />
    <glyph glyph-name="abrevedotbelow" unicode="&#x1eb7;" horiz-adv-x="447" 
d="M265 528c-83 0 -118 50 -125 118l28 35h15c7 -56 37 -84 85 -84c49 0 84 28 105 84h14l21 -35c-24 -71 -72 -118 -143 -118zM395 469l10 -6l-50 -352l-4 -108l-95 -7l26 182h-12c-40 -70 -87 -134 -140 -186h-16c-58 28 -86 81 -86 161c0 132 77 284 236 315h5l67 -24z
M141 93c23 0 95 84 166 260v3l1 12l-63 24c-82 0 -130 -93 -130 -212c0 -69 14 -87 26 -87zM199 -66c32 0 51 -20 51 -52c0 -35 -21 -57 -55 -57c-33 0 -52 19 -52 53s21 56 56 56z" />
    <glyph glyph-name="Edotbelow" unicode="&#x1eb8;" horiz-adv-x="475" 
d="M226 560l-27 -192l113 -2l100 3l6 -7l-17 -76l-108 3l-105 -2l-12 -86l-12 -120l120 -2l146 5l4 -8l-16 -76h-361l30 193l51 449h362l5 -9l-17 -76l-145 4zM262 -66c32 0 51 -20 51 -52c0 -35 -21 -57 -55 -57c-33 0 -52 19 -52 53s21 56 56 56z" />
    <glyph glyph-name="edotbelow" unicode="&#x1eb9;" horiz-adv-x="385" 
d="M308 158l32 -42c-47 -66 -101 -108 -162 -123h-13c-94 7 -135 67 -135 166c0 177 92 304 233 311l11 -1c56 -10 91 -41 91 -97c0 -77 -73 -141 -245 -197c2 -73 21 -104 60 -104c43 0 87 37 114 88zM238 403c-60 0 -104 -62 -115 -162c104 31 157 74 157 124
c0 25 -13 38 -42 38zM163 -66c32 0 51 -20 51 -52c0 -35 -21 -57 -55 -57c-33 0 -52 19 -52 53s21 56 56 56z" />
    <glyph glyph-name="Ehookabove" unicode="&#x1eba;" horiz-adv-x="475" 
d="M305 853c-18 0 -40 -8 -59 -24l-19 29c27 28 61 45 93 45c39 0 68 -26 68 -61c0 -25 -15 -46 -53 -78l21 -36l-39 -22l-35 59c32 24 50 50 50 67c0 14 -11 21 -27 21zM226 560l-27 -192l113 -2l100 3l6 -7l-17 -76l-108 3l-105 -2l-12 -86l-12 -120l120 -2l146 5l4 -8
l-16 -76h-361l30 193l51 449h362l5 -9l-17 -76l-145 4z" />
    <glyph glyph-name="ehookabove" unicode="&#x1ebb;" horiz-adv-x="385" 
d="M227 673c-18 0 -40 -8 -59 -24l-19 29c27 28 61 45 93 45c39 0 68 -26 68 -61c0 -25 -15 -46 -53 -78l21 -36l-39 -22l-35 59c32 24 50 50 50 67c0 14 -11 21 -27 21zM308 158l32 -42c-47 -66 -101 -108 -162 -123h-13c-94 7 -135 67 -135 166c0 177 92 304 233 311
l11 -1c56 -10 91 -41 91 -97c0 -77 -73 -141 -245 -197c2 -73 21 -104 60 -104c43 0 87 37 114 88zM238 403c-60 0 -104 -62 -115 -162c104 31 157 74 157 124c0 25 -13 38 -42 38z" />
    <glyph glyph-name="Ecircumflexacute" unicode="&#x1ebe;" horiz-adv-x="475" 
d="M413 824l-34 26l70 110l8 3l48 -23l2 -9l-86 -107h-8zM203 711l-14 41c48 30 91 62 131 95h24c35 -33 74 -65 114 -95l-25 -41h-10c-33 22 -63 43 -95 66c-38 -23 -76 -44 -114 -66h-11zM500 642l5 -9l-17 -76l-145 4l-117 -1l-27 -192l113 -2l100 3l6 -7l-17 -76l-108 3
l-105 -2l-12 -86l-12 -120l120 -2l146 5l4 -8l-16 -76h-361l30 193l51 449h362z" />
    <glyph glyph-name="ecircumflexacute" unicode="&#x1ebf;" horiz-adv-x="385" 
d="M336 644l-34 26l70 110l8 3l48 -23l2 -9l-86 -107h-8zM243 667h24c35 -33 74 -65 114 -95l-25 -41h-10c-33 22 -63 43 -95 66c-38 -23 -76 -44 -114 -66h-11l-14 41c48 30 91 62 131 95zM365 372c0 -77 -73 -141 -245 -197c2 -73 21 -104 60 -104c43 0 87 37 114 88
l14 -1l32 -42c-47 -66 -101 -108 -162 -123h-13c-94 7 -135 67 -135 166c0 177 92 304 233 311l11 -1c56 -10 91 -41 91 -97zM123 241c104 31 157 74 157 124c0 25 -13 38 -42 38c-60 0 -104 -62 -115 -162z" />
    <glyph glyph-name="Ecircumflexgrave" unicode="&#x1ec0;" horiz-adv-x="475" 
d="M431 824l-86 107l1 9l49 23l8 -3l70 -110l-34 -26h-8zM207 710l-14 41c48 30 91 62 131 95h24c34 -33 73 -65 113 -95l-24 -41h-10c-33 22 -64 43 -95 66c-38 -23 -76 -44 -114 -66h-11zM226 560l-27 -192l113 -2l100 3l6 -7l-17 -76l-108 3l-105 -2l-12 -86l-12 -120
l120 -2l146 5l4 -8l-16 -76h-361l30 193l51 449h362l5 -9l-17 -76l-145 4z" />
    <glyph glyph-name="ecircumflexgrave" unicode="&#x1ec1;" horiz-adv-x="385" 
d="M354 644l-86 107l1 9l49 23l8 -3l70 -110l-34 -26h-8zM247 666h24c34 -33 73 -65 113 -95l-24 -41h-10c-33 22 -64 43 -95 66c-38 -23 -76 -44 -114 -66h-11l-14 41c48 30 91 62 131 95zM365 372c0 -77 -73 -141 -245 -197c2 -73 21 -104 60 -104c43 0 87 37 114 88
l14 -1l32 -42c-47 -66 -101 -108 -162 -123h-13c-94 7 -135 67 -135 166c0 177 92 304 233 311l11 -1c56 -10 91 -41 91 -97zM123 241c104 31 157 74 157 124c0 25 -13 38 -42 38c-60 0 -104 -62 -115 -162z" />
    <glyph glyph-name="Ecircumflexhookabove" unicode="&#x1ec2;" horiz-adv-x="475" 
d="M409 957c-16 0 -38 -8 -56 -23l-18 28c25 26 58 43 88 43c37 0 65 -25 65 -59c0 -24 -15 -44 -50 -74l20 -34l-38 -21l-33 56c30 23 48 47 48 64c0 13 -11 20 -26 20zM205 711l-14 41c48 30 91 62 131 95h24c35 -33 74 -65 114 -95l-25 -41h-10c-33 22 -63 43 -95 66
c-38 -23 -76 -44 -114 -66h-11zM226 560l-27 -192l113 -2l100 3l6 -7l-17 -76l-108 3l-105 -2l-12 -86l-12 -120l120 -2l146 5l4 -8l-16 -76h-361l30 193l51 449h362l5 -9l-17 -76l-145 4z" />
    <glyph glyph-name="ecircumflexhookabove" unicode="&#x1ec3;" horiz-adv-x="385" 
d="M332 777c-16 0 -38 -8 -56 -23l-18 28c25 26 58 43 88 43c37 0 65 -25 65 -59c0 -24 -15 -44 -50 -74l20 -34l-38 -21l-33 56c30 23 48 47 48 64c0 13 -11 20 -26 20zM245 667h24c35 -33 74 -65 114 -95l-25 -41h-10c-33 22 -63 43 -95 66c-38 -23 -76 -44 -114 -66h-11
l-14 41c48 30 91 62 131 95zM365 372c0 -77 -73 -141 -245 -197c2 -73 21 -104 60 -104c43 0 87 37 114 88l14 -1l32 -42c-47 -66 -101 -108 -162 -123h-13c-94 7 -135 67 -135 166c0 177 92 304 233 311l11 -1c56 -10 91 -41 91 -97zM123 241c104 31 157 74 157 124
c0 25 -13 38 -42 38c-60 0 -104 -62 -115 -162z" />
    <glyph glyph-name="Ecircumflextilde" unicode="&#x1ec4;" horiz-adv-x="475" 
d="M431 824l-86 107l1 9l49 23l8 -3l70 -110l-34 -26h-8zM207 710l-14 41c48 30 91 62 131 95h24c34 -33 73 -65 113 -95l-24 -41h-10c-33 22 -64 43 -95 66c-38 -23 -76 -44 -114 -66h-11zM226 560l-27 -192l113 -2l100 3l6 -7l-17 -76l-108 3l-105 -2l-12 -86l-12 -120
l120 -2l146 5l4 -8l-16 -76h-361l30 193l51 449h362l5 -9l-17 -76l-145 4z" />
    <glyph glyph-name="ecircumflextilde" unicode="&#x1ec5;" horiz-adv-x="385" 
d="M441 777v-9l-59 -73l-10 -4c-41 5 -120 36 -145 36c-16 0 -32 -22 -54 -46h-9l-28 29v8l60 72l10 3c41 -5 121 -34 144 -34c16 0 32 21 55 47h9zM256 667h24c34 -33 73 -65 113 -95l-24 -40h-10c-33 21 -64 42 -95 65c-38 -23 -76 -44 -114 -65h-11l-14 40
c48 30 91 62 131 95zM365 372c0 -77 -73 -141 -245 -197c2 -73 21 -104 60 -104c43 0 87 37 114 88l14 -1l32 -42c-47 -66 -101 -108 -162 -123h-13c-94 7 -135 67 -135 166c0 177 92 304 233 311l11 -1c56 -10 91 -41 91 -97zM123 241c104 31 157 74 157 124
c0 25 -13 38 -42 38c-60 0 -104 -62 -115 -162z" />
    <glyph glyph-name="Ecircumflexdotbelow" unicode="&#x1ec6;" horiz-adv-x="475" 
d="M212 730l-14 41c48 30 91 62 131 95h24c35 -33 74 -65 114 -95l-25 -41h-10c-33 22 -63 43 -95 66c-38 -23 -76 -44 -114 -66h-11zM226 560l-27 -192l113 -2l100 3l6 -7l-17 -76l-108 3l-105 -2l-12 -86l-12 -120l120 -2l146 5l4 -8l-16 -76h-361l30 193l51 449h362l5 -9
l-17 -76l-145 4zM262 -66c32 0 51 -20 51 -52c0 -35 -21 -57 -55 -57c-33 0 -52 19 -52 53s21 56 56 56z" />
    <glyph glyph-name="ecircumflexdotbelow" unicode="&#x1ec7;" horiz-adv-x="385" 
d="M135 525l-20 38c44 39 91 85 143 137h25c35 -48 73 -95 111 -137l-30 -38h-10c-35 35 -65 67 -91 100c-35 -33 -74 -65 -117 -100h-11zM365 372c0 -77 -73 -141 -245 -197c2 -73 21 -104 60 -104c43 0 87 37 114 88l14 -1l32 -42c-47 -66 -101 -108 -162 -123h-13
c-94 7 -135 67 -135 166c0 177 92 304 233 311l11 -1c56 -10 91 -41 91 -97zM123 241c104 31 157 74 157 124c0 25 -13 38 -42 38c-60 0 -104 -62 -115 -162zM163 -66c32 0 51 -20 51 -52c0 -35 -21 -57 -55 -57c-33 0 -52 19 -52 53s21 56 56 56z" />
    <glyph glyph-name="Ihookabove" unicode="&#x1ec8;" horiz-adv-x="270" 
d="M193 903c39 0 68 -26 68 -61c0 -25 -15 -46 -53 -78l21 -36l-39 -22l-35 59c32 24 50 50 50 67c0 14 -11 21 -27 21c-18 0 -40 -8 -59 -24l-19 29c27 28 61 45 93 45zM176 201l-20 -201h-99l30 193l50 449h99z" />
    <glyph glyph-name="ihookabove" unicode="&#x1ec9;" horiz-adv-x="225" 
d="M146 722c39 0 68 -26 68 -61c0 -25 -15 -46 -53 -78l21 -36l-39 -22l-35 59c32 24 50 50 50 67c0 14 -11 21 -27 21c-18 0 -40 -8 -59 -24l-19 29c27 28 61 45 93 45zM137 111l-4 -108l-95 -7l51 361l4 101l94 7z" />
    <glyph glyph-name="Idotbelow" unicode="&#x1eca;" horiz-adv-x="270" 
d="M176 201l-20 -201h-99l30 193l50 449h99zM99 -66c32 0 51 -20 51 -52c0 -35 -21 -57 -55 -57c-33 0 -52 19 -52 53s21 56 56 56z" />
    <glyph glyph-name="idotbelow" unicode="&#x1ecb;" horiz-adv-x="225" 
d="M160 674c33 0 52 -20 52 -52c0 -35 -22 -57 -55 -57c-34 0 -52 20 -52 53c0 34 21 56 55 56zM137 111l-4 -108l-95 -7l51 361l4 101l94 7zM77 -66c32 0 51 -20 51 -52c0 -35 -21 -57 -55 -57c-33 0 -52 19 -52 53s21 56 56 56z" />
    <glyph glyph-name="Odotbelow" unicode="&#x1ecc;" horiz-adv-x="618" 
d="M363 649c150 0 238 -93 238 -260c0 -243 -114 -397 -321 -397c-148 0 -237 96 -237 265c0 243 114 392 320 392zM351 568c-141 0 -207 -103 -207 -306c0 -129 46 -191 145 -191c139 0 208 103 208 308c0 129 -47 189 -146 189zM297 -66c32 0 51 -20 51 -52
c0 -35 -21 -57 -55 -57c-33 0 -52 19 -52 53s21 56 56 56z" />
    <glyph glyph-name="odotbelow" unicode="&#x1ecd;" horiz-adv-x="420" 
d="M264 469h10c74 -14 116 -62 116 -157c0 -186 -85 -310 -229 -321l-10 1c-78 15 -119 63 -119 163c0 180 88 306 232 314zM245 393c-86 0 -125 -91 -125 -238c0 -64 15 -90 55 -90c85 0 124 94 124 240c0 64 -16 88 -54 88zM165 -66c32 0 51 -20 51 -52
c0 -35 -21 -57 -55 -57c-33 0 -52 19 -52 53s21 56 56 56z" />
    <glyph glyph-name="Ohookabove" unicode="&#x1ece;" horiz-adv-x="618" 
d="M367 903c39 0 68 -26 68 -61c0 -25 -15 -46 -53 -78l21 -36l-39 -22l-35 59c32 24 50 50 50 67c0 14 -11 21 -27 21c-18 0 -40 -8 -59 -24l-19 29c27 28 61 45 93 45zM363 649c150 0 238 -93 238 -260c0 -243 -114 -397 -321 -397c-148 0 -237 96 -237 265
c0 243 114 392 320 392zM351 568c-141 0 -207 -103 -207 -306c0 -129 46 -191 145 -191c139 0 208 103 208 308c0 129 -47 189 -146 189z" />
    <glyph glyph-name="ohookabove" unicode="&#x1ecf;" horiz-adv-x="420" 
d="M255 722c39 0 68 -26 68 -61c0 -25 -15 -46 -53 -78l21 -36l-39 -22l-35 59c32 24 50 50 50 67c0 14 -11 21 -27 21c-18 0 -40 -8 -59 -24l-19 29c27 28 61 45 93 45zM264 469h10c74 -14 116 -62 116 -157c0 -186 -85 -310 -229 -321l-10 1c-78 15 -119 63 -119 163
c0 180 88 306 232 314zM245 393c-86 0 -125 -91 -125 -238c0 -64 15 -90 55 -90c85 0 124 94 124 240c0 64 -16 88 -54 88z" />
    <glyph glyph-name="Ocircumflexacute" unicode="&#x1ed0;" horiz-adv-x="618" 
d="M552 940l2 -9l-86 -107h-8l-34 26l70 110l8 3zM367 847h24c35 -33 74 -65 114 -95l-25 -41h-10c-33 22 -63 43 -95 66c-38 -23 -76 -44 -114 -66h-11l-14 41c48 30 91 62 131 95zM363 649c150 0 238 -93 238 -260c0 -243 -114 -397 -321 -397c-148 0 -237 96 -237 265
c0 243 114 392 320 392zM351 568c-141 0 -207 -103 -207 -306c0 -129 46 -191 145 -191c139 0 208 103 208 308c0 129 -47 189 -146 189z" />
    <glyph glyph-name="ocircumflexacute" unicode="&#x1ed1;" horiz-adv-x="420" 
d="M440 759l2 -9l-86 -107h-8l-34 26l70 110l8 3zM255 666h24c35 -33 74 -65 114 -95l-25 -41h-10c-33 22 -63 43 -95 66c-38 -23 -76 -44 -114 -66h-11l-14 41c48 30 91 62 131 95zM264 469h10c74 -14 116 -62 116 -157c0 -186 -85 -310 -229 -321l-10 1
c-78 15 -119 63 -119 163c0 180 88 306 232 314zM245 393c-86 0 -125 -91 -125 -238c0 -64 15 -90 55 -90c85 0 124 94 124 240c0 64 -16 88 -54 88z" />
    <glyph glyph-name="Ocircumflexgrave" unicode="&#x1ed2;" horiz-adv-x="618" 
d="M450 960l70 -110l-34 -26h-8l-86 107l1 9l49 23zM371 846h24c34 -33 73 -65 113 -95l-24 -41h-10c-33 22 -64 43 -95 66c-38 -23 -76 -44 -114 -66h-11l-14 41c48 30 91 62 131 95zM363 649c150 0 238 -93 238 -260c0 -243 -114 -397 -321 -397c-148 0 -237 96 -237 265
c0 243 114 392 320 392zM351 568c-141 0 -207 -103 -207 -306c0 -129 46 -191 145 -191c139 0 208 103 208 308c0 129 -47 189 -146 189z" />
    <glyph glyph-name="ocircumflexgrave" unicode="&#x1ed3;" horiz-adv-x="420" 
d="M338 779l70 -110l-34 -26h-8l-86 107l1 9l49 23zM259 665h24c34 -33 73 -65 113 -95l-24 -41h-10c-33 22 -64 43 -95 66c-38 -23 -76 -44 -114 -66h-11l-14 41c48 30 91 62 131 95zM264 469h10c74 -14 116 -62 116 -157c0 -186 -85 -310 -229 -321l-10 1
c-78 15 -119 63 -119 163c0 180 88 306 232 314zM245 393c-86 0 -125 -91 -125 -238c0 -64 15 -90 55 -90c85 0 124 94 124 240c0 64 -16 88 -54 88z" />
    <glyph glyph-name="Ocircumflexhookabove" unicode="&#x1ed4;" horiz-adv-x="618" 
d="M470 1005c37 0 65 -25 65 -59c0 -24 -15 -44 -50 -74l20 -34l-38 -21l-33 56c30 23 48 47 48 64c0 13 -11 20 -26 20c-16 0 -38 -8 -56 -23l-18 28c25 26 58 43 88 43zM369 847h24c35 -33 74 -65 114 -95l-25 -41h-10c-33 22 -63 43 -95 66c-38 -23 -76 -44 -114 -66h-11
l-14 41c48 30 91 62 131 95zM363 649c150 0 238 -93 238 -260c0 -243 -114 -397 -321 -397c-148 0 -237 96 -237 265c0 243 114 392 320 392zM351 568c-141 0 -207 -103 -207 -306c0 -129 46 -191 145 -191c139 0 208 103 208 308c0 129 -47 189 -146 189z" />
    <glyph glyph-name="ocircumflexhookabove" unicode="&#x1ed5;" horiz-adv-x="420" 
d="M358 824c37 0 65 -25 65 -59c0 -24 -15 -44 -50 -74l20 -34l-38 -21l-33 56c30 23 48 47 48 64c0 13 -11 20 -26 20c-16 0 -38 -8 -56 -23l-18 28c25 26 58 43 88 43zM257 666h24c35 -33 74 -65 114 -95l-25 -41h-10c-33 22 -63 43 -95 66c-38 -23 -76 -44 -114 -66h-11
l-14 41c48 30 91 62 131 95zM264 469h10c74 -14 116 -62 116 -157c0 -186 -85 -310 -229 -321l-10 1c-78 15 -119 63 -119 163c0 180 88 306 232 314zM245 393c-86 0 -125 -91 -125 -238c0 -64 15 -90 55 -90c85 0 124 94 124 240c0 64 -16 88 -54 88z" />
    <glyph glyph-name="Ocircumflextilde" unicode="&#x1ed6;" horiz-adv-x="618" 
d="M565 957v-9l-59 -73l-10 -4c-41 5 -120 36 -145 36c-16 0 -32 -22 -54 -46h-9l-28 29v8l60 72l10 3c41 -5 121 -34 144 -34c16 0 32 21 55 47h9zM380 847h24c34 -33 73 -65 113 -95l-24 -40h-10c-33 21 -64 42 -95 65c-38 -23 -76 -44 -114 -65h-11l-14 40
c48 30 91 62 131 95zM363 649c150 0 238 -93 238 -260c0 -243 -114 -397 -321 -397c-148 0 -237 96 -237 265c0 243 114 392 320 392zM351 568c-141 0 -207 -103 -207 -306c0 -129 46 -191 145 -191c139 0 208 103 208 308c0 129 -47 189 -146 189z" />
    <glyph glyph-name="ocircumflextilde" unicode="&#x1ed7;" horiz-adv-x="420" 
d="M453 776v-9l-59 -73l-10 -4c-41 5 -120 36 -145 36c-16 0 -32 -22 -54 -46h-9l-28 29v8l60 72l10 3c41 -5 121 -34 144 -34c16 0 32 21 55 47h9zM268 666h24c34 -33 73 -65 113 -95l-24 -40h-10c-33 21 -64 42 -95 65c-38 -23 -76 -44 -114 -65h-11l-14 40
c48 30 91 62 131 95zM264 469h10c74 -14 116 -62 116 -157c0 -186 -85 -310 -229 -321l-10 1c-78 15 -119 63 -119 163c0 180 88 306 232 314zM245 393c-86 0 -125 -91 -125 -238c0 -64 15 -90 55 -90c85 0 124 94 124 240c0 64 -16 88 -54 88z" />
    <glyph glyph-name="Ocircumflexdotbelow" unicode="&#x1ed8;" horiz-adv-x="618" 
d="M260 730l-14 41c48 30 91 62 131 95h24c35 -33 74 -65 114 -95l-25 -41h-10c-33 22 -63 43 -95 66c-38 -23 -76 -44 -114 -66h-11zM363 649c150 0 238 -93 238 -260c0 -243 -114 -397 -321 -397c-148 0 -237 96 -237 265c0 243 114 392 320 392zM351 568
c-141 0 -207 -103 -207 -306c0 -129 46 -191 145 -191c139 0 208 103 208 308c0 129 -47 189 -146 189zM297 -66c32 0 51 -20 51 -52c0 -35 -21 -57 -55 -57c-33 0 -52 19 -52 53s21 56 56 56z" />
    <glyph glyph-name="ocircumflexdotbelow" unicode="&#x1ed9;" horiz-adv-x="420" 
d="M154 524l-20 38c44 39 91 85 143 137h25c35 -48 73 -95 111 -137l-30 -38h-10c-35 35 -65 67 -91 100c-35 -33 -74 -65 -117 -100h-11zM264 469h10c74 -14 116 -62 116 -157c0 -186 -85 -310 -229 -321l-10 1c-78 15 -119 63 -119 163c0 180 88 306 232 314zM245 393
c-86 0 -125 -91 -125 -238c0 -64 15 -90 55 -90c85 0 124 94 124 240c0 64 -16 88 -54 88zM165 -66c32 0 51 -20 51 -52c0 -35 -21 -57 -55 -57c-33 0 -52 19 -52 53s21 56 56 56z" />
    <glyph glyph-name="Ohornacute" unicode="&#x1eda;" horiz-adv-x="621" 
d="M480 869l25 -57l-4 -10c-70 -31 -135 -57 -201 -83l-11 4l-17 42c67 34 130 66 198 107zM628 769c26 0 48 -31 48 -76c0 -73 -57 -118 -127 -124c36 -49 51 -109 51 -189c0 -228 -119 -388 -320 -388c-152 0 -237 90 -237 277c0 226 121 380 316 380
c90 0 125 -30 169 -30c38 0 71 20 71 62c0 20 -7 43 -23 60l3 8c16 11 35 20 49 20zM351 568c-139 0 -207 -108 -207 -293c0 -141 41 -204 146 -204c138 0 207 110 207 296c0 140 -41 201 -146 201z" />
    <glyph glyph-name="ohornacute" unicode="&#x1edb;" horiz-adv-x="441" 
d="M189 520l-25 38c58 48 112 93 170 148l9 -1l37 -52l-3 -10c-62 -45 -119 -85 -178 -124zM502 507c0 -63 -55 -109 -117 -115c9 -22 14 -48 14 -79c0 -188 -86 -311 -231 -322l-10 1c-79 15 -121 62 -121 163c0 180 88 306 234 314h9c38 -10 60 -25 87 -25
c35 0 55 18 55 50c0 23 -10 43 -31 63l3 9c18 15 35 23 51 23c25 0 57 -34 57 -82zM181 63c87 0 127 94 127 243c0 64 -17 89 -56 89c-87 0 -127 -92 -127 -240c0 -65 16 -92 56 -92z" />
    <glyph glyph-name="Ohorngrave" unicode="&#x1edc;" horiz-adv-x="621" 
d="M287 872l10 2c69 -40 132 -73 198 -106l-17 -42l-11 -4c-66 26 -130 51 -201 83l-4 10zM628 769c26 0 48 -31 48 -76c0 -73 -57 -118 -127 -124c36 -49 51 -109 51 -189c0 -228 -119 -388 -320 -388c-152 0 -237 90 -237 277c0 226 121 380 316 380c90 0 125 -30 169 -30
c38 0 71 20 71 62c0 20 -7 43 -23 60l3 8c16 11 35 20 49 20zM351 568c-139 0 -207 -108 -207 -293c0 -141 41 -204 146 -204c138 0 207 110 207 296c0 140 -41 201 -146 201z" />
    <glyph glyph-name="ohorngrave" unicode="&#x1edd;" horiz-adv-x="441" 
d="M342 520l-10 -1c-59 39 -116 79 -178 124l-2 10l36 52l10 1c57 -55 111 -100 170 -148zM502 507c0 -63 -55 -109 -117 -115c9 -22 14 -48 14 -79c0 -188 -86 -311 -231 -322l-10 1c-79 15 -121 62 -121 163c0 180 88 306 234 314h9c38 -10 60 -25 87 -25
c35 0 55 18 55 50c0 23 -10 43 -31 63l3 9c18 15 35 23 51 23c25 0 57 -34 57 -82zM181 63c87 0 127 94 127 243c0 64 -17 89 -56 89c-87 0 -127 -92 -127 -240c0 -65 16 -92 56 -92z" />
    <glyph glyph-name="Ohornhookabove" unicode="&#x1ede;" horiz-adv-x="621" 
d="M367 903c39 0 68 -26 68 -61c0 -25 -15 -46 -53 -78l21 -36l-39 -22l-35 59c32 24 50 50 50 67c0 14 -11 21 -27 21c-18 0 -40 -8 -59 -24l-19 29c27 28 61 45 93 45zM628 769c26 0 48 -31 48 -76c0 -73 -57 -118 -127 -124c36 -49 51 -109 51 -189
c0 -228 -119 -388 -320 -388c-152 0 -237 90 -237 277c0 226 121 380 316 380c90 0 125 -30 169 -30c38 0 71 20 71 62c0 20 -7 43 -23 60l3 8c16 11 35 20 49 20zM351 568c-139 0 -207 -108 -207 -293c0 -141 41 -204 146 -204c138 0 207 110 207 296
c0 140 -41 201 -146 201z" />
    <glyph glyph-name="ohornhookabove" unicode="&#x1edf;" horiz-adv-x="441" 
d="M244 672c-18 0 -40 -8 -59 -24l-19 29c27 28 61 45 93 45c39 0 68 -26 68 -61c0 -25 -15 -46 -53 -78l21 -36l-39 -22l-35 59c32 24 50 50 50 67c0 14 -11 21 -27 21zM502 507c0 -63 -55 -109 -117 -115c9 -22 14 -48 14 -79c0 -188 -86 -311 -231 -322l-10 1
c-79 15 -121 62 -121 163c0 180 88 306 234 314h9c38 -10 60 -25 87 -25c35 0 55 18 55 50c0 23 -10 43 -31 63l3 9c18 15 35 23 51 23c25 0 57 -34 57 -82zM181 63c87 0 127 94 127 243c0 64 -17 89 -56 89c-87 0 -127 -92 -127 -240c0 -65 16 -92 56 -92z" />
    <glyph glyph-name="Ohorntilde" unicode="&#x1ee0;" horiz-adv-x="621" 
d="M541 830v-9l-64 -76l-10 -4c-44 5 -129 37 -155 37c-17 0 -34 -23 -59 -49h-9l-30 30v9l64 76l11 3c44 -5 130 -35 155 -35c17 0 33 21 59 48h9zM628 769c26 0 48 -31 48 -76c0 -73 -57 -118 -127 -124c36 -49 51 -109 51 -189c0 -228 -119 -388 -320 -388
c-152 0 -237 90 -237 277c0 226 121 380 316 380c90 0 125 -30 169 -30c38 0 71 20 71 62c0 20 -7 43 -23 60l3 8c16 11 35 20 49 20zM351 568c-139 0 -207 -108 -207 -293c0 -141 41 -204 146 -204c138 0 207 110 207 296c0 140 -41 201 -146 201z" />
    <glyph glyph-name="ohorntilde" unicode="&#x1ee1;" horiz-adv-x="441" 
d="M156 546l-29 31v8l58 75l9 4c39 -5 110 -35 131 -35c17 0 31 21 52 47h9l29 -30v-9l-57 -76l-10 -3c-39 5 -110 36 -131 36c-17 0 -30 -22 -52 -48h-9zM502 507c0 -63 -55 -109 -117 -115c9 -22 14 -48 14 -79c0 -188 -86 -311 -231 -322l-10 1c-79 15 -121 62 -121 163
c0 180 88 306 234 314h9c38 -10 60 -25 87 -25c35 0 55 18 55 50c0 23 -10 43 -31 63l3 9c18 15 35 23 51 23c25 0 57 -34 57 -82zM181 63c87 0 127 94 127 243c0 64 -17 89 -56 89c-87 0 -127 -92 -127 -240c0 -65 16 -92 56 -92z" />
    <glyph glyph-name="Ohorndotbelow" unicode="&#x1ee2;" horiz-adv-x="621" 
d="M628 769c26 0 48 -31 48 -76c0 -73 -57 -118 -127 -124c36 -49 51 -109 51 -189c0 -228 -119 -388 -320 -388c-152 0 -237 90 -237 277c0 226 121 380 316 380c90 0 125 -30 169 -30c38 0 71 20 71 62c0 20 -7 43 -23 60l3 8c16 11 35 20 49 20zM351 568
c-139 0 -207 -108 -207 -293c0 -141 41 -204 146 -204c138 0 207 110 207 296c0 140 -41 201 -146 201zM297 -66c32 0 51 -20 51 -52c0 -35 -21 -57 -55 -57c-33 0 -52 19 -52 53s21 56 56 56z" />
    <glyph glyph-name="ohorndotbelow" unicode="&#x1ee3;" horiz-adv-x="441" 
d="M502 507c0 -63 -55 -109 -117 -115c9 -22 14 -48 14 -79c0 -188 -86 -311 -231 -322l-10 1c-79 15 -121 62 -121 163c0 180 88 306 234 314h9c38 -10 60 -25 87 -25c35 0 55 18 55 50c0 23 -10 43 -31 63l3 9c18 15 35 23 51 23c25 0 57 -34 57 -82zM181 63
c87 0 127 94 127 243c0 64 -17 89 -56 89c-87 0 -127 -92 -127 -240c0 -65 16 -92 56 -92zM165 -66c32 0 51 -20 51 -52c0 -35 -21 -57 -55 -57c-33 0 -52 19 -52 53s21 56 56 56z" />
    <glyph glyph-name="Udotbelow" unicode="&#x1ee4;" horiz-adv-x="606" 
d="M547 315l-9 -74c-17 -158 -107 -249 -262 -249c-130 0 -211 67 -211 188c0 17 1 34 4 53l12 88l38 321h97l-54 -396c-2 -16 -3 -29 -3 -43c0 -85 42 -126 124 -126c96 0 152 52 164 159l46 406h98zM279 -66c32 0 51 -20 51 -52c0 -35 -21 -57 -55 -57
c-33 0 -52 19 -52 53s21 56 56 56z" />
    <glyph glyph-name="udotbelow" unicode="&#x1ee5;" horiz-adv-x="478" 
d="M436 465l-51 -354l-3 -108l-96 -7l29 204h-9c-58 -99 -105 -158 -160 -203h-11c-50 10 -89 40 -88 89l1 14l41 253l6 106l94 8l-50 -322l-2 -21c-1 -18 7 -24 18 -24c36 0 100 83 181 253l1 4l4 101zM194 -66c32 0 51 -20 51 -52c0 -35 -21 -57 -55 -57
c-33 0 -52 19 -52 53s21 56 56 56z" />
    <glyph glyph-name="Uhookabove" unicode="&#x1ee6;" horiz-adv-x="606" 
d="M361 903c39 0 68 -26 68 -61c0 -25 -15 -46 -53 -78l21 -36l-39 -22l-35 59c32 24 50 50 50 67c0 14 -11 21 -27 21c-18 0 -40 -8 -59 -24l-19 29c27 28 61 45 93 45zM547 315l-9 -74c-17 -158 -107 -249 -262 -249c-130 0 -211 67 -211 188c0 17 1 34 4 53l12 88l38 321
h97l-54 -396c-2 -16 -3 -29 -3 -43c0 -85 42 -126 124 -126c96 0 152 52 164 159l46 406h98z" />
    <glyph glyph-name="uhookabove" unicode="&#x1ee7;" horiz-adv-x="478" 
d="M260 672c-18 0 -40 -8 -59 -24l-19 29c27 28 61 45 93 45c39 0 68 -26 68 -61c0 -25 -15 -46 -53 -78l21 -36l-39 -22l-35 59c32 24 50 50 50 67c0 14 -11 21 -27 21zM436 465l-51 -354l-3 -108l-96 -7l29 204h-9c-58 -99 -105 -158 -160 -203h-11c-50 10 -89 40 -88 89
l1 14l41 253l6 106l94 8l-50 -322l-2 -21c-1 -18 7 -24 18 -24c36 0 100 83 181 253l1 4l4 101z" />
    <glyph glyph-name="Uhornacute" unicode="&#x1ee8;" horiz-adv-x="612" 
d="M272 724l-17 42c67 34 130 66 198 107l10 -3l25 -57l-4 -10c-70 -31 -135 -57 -201 -83zM665 700c0 -46 -31 -83 -80 -100l-38 -285l-9 -74c-17 -158 -107 -249 -262 -249c-130 0 -211 67 -211 188c0 17 1 34 4 53l12 88l38 321h97l-54 -396c-2 -16 -3 -29 -3 -43
c0 -85 42 -126 124 -126c96 0 152 52 164 159l46 406h35c41 0 61 17 61 50c0 21 -9 40 -29 60l3 9c15 11 31 19 46 19c26 0 56 -34 56 -80z" />
    <glyph glyph-name="uhornacute" unicode="&#x1ee9;" horiz-adv-x="482" 
d="M205 520l-25 38c58 48 112 93 170 148l9 -1l37 -52l-3 -10c-62 -45 -119 -85 -178 -124zM528 535c0 -49 -37 -88 -98 -110l-44 -314l-4 -108l-95 -7l29 207h-9c-59 -101 -105 -161 -161 -206h-11c-50 10 -89 40 -88 89l1 14l41 253l6 106l94 8l-50 -322l-1 -13
c-1 -24 6 -32 17 -32c36 0 100 83 183 263l4 95l36 6c49 7 71 25 71 56c0 20 -10 42 -31 63l2 9c18 14 35 23 51 23c26 0 57 -34 57 -80z" />
    <glyph glyph-name="Uhorngrave" unicode="&#x1eea;" horiz-adv-x="612" 
d="M462 727l-11 -4c-66 26 -130 51 -201 83l-4 10l25 57l10 2c69 -40 132 -73 198 -106zM665 700c0 -46 -31 -83 -80 -100l-38 -285l-9 -74c-17 -158 -107 -249 -262 -249c-130 0 -211 67 -211 188c0 17 1 34 4 53l12 88l38 321h97l-54 -396c-2 -16 -3 -29 -3 -43
c0 -85 42 -126 124 -126c96 0 152 52 164 159l46 406h35c41 0 61 17 61 50c0 21 -9 40 -29 60l3 9c15 11 31 19 46 19c26 0 56 -34 56 -80z" />
    <glyph glyph-name="uhorngrave" unicode="&#x1eeb;" horiz-adv-x="482" 
d="M358 520l-10 -1c-59 39 -116 79 -178 124l-2 10l36 52l10 1c57 -55 111 -100 170 -148zM528 535c0 -49 -37 -88 -98 -110l-44 -314l-4 -108l-95 -7l29 207h-9c-59 -101 -105 -161 -161 -206h-11c-50 10 -89 40 -88 89l1 14l41 253l6 106l94 8l-50 -322l-1 -13
c-1 -24 6 -32 17 -32c36 0 100 83 183 263l4 95l36 6c49 7 71 25 71 56c0 20 -10 42 -31 63l2 9c18 14 35 23 51 23c26 0 57 -34 57 -80z" />
    <glyph glyph-name="Uhornhookabove" unicode="&#x1eec;" horiz-adv-x="612" 
d="M336 854c-18 0 -40 -8 -59 -24l-19 29c27 28 61 45 93 45c39 0 68 -26 68 -61c0 -25 -15 -46 -53 -78l21 -36l-39 -22l-35 59c32 24 50 50 50 67c0 14 -11 21 -27 21zM665 700c0 -46 -31 -83 -80 -100l-38 -285l-9 -74c-17 -158 -107 -249 -262 -249
c-130 0 -211 67 -211 188c0 17 1 34 4 53l12 88l38 321h97l-54 -396c-2 -16 -3 -29 -3 -43c0 -85 42 -126 124 -126c96 0 152 52 164 159l46 406h35c41 0 61 17 61 50c0 21 -9 40 -29 60l3 9c15 11 31 19 46 19c26 0 56 -34 56 -80z" />
    <glyph glyph-name="uhornhookabove" unicode="&#x1eed;" horiz-adv-x="482" 
d="M260 672c-18 0 -40 -8 -59 -24l-19 29c27 28 61 45 93 45c39 0 68 -26 68 -61c0 -25 -15 -46 -53 -78l21 -36l-39 -22l-35 59c32 24 50 50 50 67c0 14 -11 21 -27 21zM528 535c0 -49 -37 -88 -98 -110l-44 -314l-4 -108l-95 -7l29 207h-9c-59 -101 -105 -161 -161 -206
h-11c-50 10 -89 40 -88 89l1 14l41 253l6 106l94 8l-50 -322l-1 -13c-1 -24 6 -32 17 -32c36 0 100 83 183 263l4 95l36 6c49 7 71 25 71 56c0 20 -10 42 -31 63l2 9c18 14 35 23 51 23c26 0 57 -34 57 -80z" />
    <glyph glyph-name="Uhorntilde" unicode="&#x1eee;" horiz-adv-x="612" 
d="M228 730l-30 30v9l64 76l11 3c44 -5 130 -35 155 -35c17 0 33 21 59 48h9l29 -30v-9l-64 -76l-10 -4c-44 5 -129 37 -155 37c-17 0 -34 -23 -59 -49h-9zM665 700c0 -46 -31 -83 -80 -100l-38 -285l-9 -74c-17 -158 -107 -249 -262 -249c-130 0 -211 67 -211 188
c0 17 1 34 4 53l12 88l38 321h97l-54 -396c-2 -16 -3 -29 -3 -43c0 -85 42 -126 124 -126c96 0 152 52 164 159l46 406h35c41 0 61 17 61 50c0 21 -9 40 -29 60l3 9c15 11 31 19 46 19c26 0 56 -34 56 -80z" />
    <glyph glyph-name="uhorntilde" unicode="&#x1eef;" horiz-adv-x="482" 
d="M172 546l-29 31v8l58 75l9 4c39 -5 110 -35 131 -35c17 0 31 21 52 47h9l29 -30v-9l-57 -76l-10 -3c-39 5 -110 36 -131 36c-17 0 -30 -22 -52 -48h-9zM528 535c0 -49 -37 -88 -98 -110l-44 -314l-4 -108l-95 -7l29 207h-9c-59 -101 -105 -161 -161 -206h-11
c-50 10 -89 40 -88 89l1 14l41 253l6 106l94 8l-50 -322l-1 -13c-1 -24 6 -32 17 -32c36 0 100 83 183 263l4 95l36 6c49 7 71 25 71 56c0 20 -10 42 -31 63l2 9c18 14 35 23 51 23c26 0 57 -34 57 -80z" />
    <glyph glyph-name="Uhorndotbelow" unicode="&#x1ef0;" horiz-adv-x="612" 
d="M665 700c0 -46 -31 -83 -80 -100l-38 -285l-9 -74c-17 -158 -107 -249 -262 -249c-130 0 -211 67 -211 188c0 17 1 34 4 53l12 88l38 321h97l-54 -396c-2 -16 -3 -29 -3 -43c0 -85 42 -126 124 -126c96 0 152 52 164 159l46 406h35c41 0 61 17 61 50c0 21 -9 40 -29 60
l3 9c15 11 31 19 46 19c26 0 56 -34 56 -80zM275 -66c32 0 51 -20 51 -52c0 -35 -21 -57 -55 -57c-33 0 -52 19 -52 53s21 56 56 56z" />
    <glyph glyph-name="uhorndotbelow" unicode="&#x1ef1;" horiz-adv-x="482" 
d="M528 535c0 -49 -37 -88 -98 -110l-44 -314l-4 -108l-95 -7l29 207h-9c-59 -101 -105 -161 -161 -206h-11c-50 10 -89 40 -88 89l1 14l41 253l6 106l94 8l-50 -322l-1 -13c-1 -24 6 -32 17 -32c36 0 100 83 183 263l4 95l36 6c49 7 71 25 71 56c0 20 -10 42 -31 63l2 9
c18 14 35 23 51 23c26 0 57 -34 57 -80zM194 -66c32 0 51 -20 51 -52c0 -35 -21 -57 -55 -57c-33 0 -52 19 -52 53s21 56 56 56z" />
    <glyph glyph-name="Ygrave" unicode="&#x1ef2;" horiz-adv-x="518" 
d="M429 726l-11 -4c-66 26 -130 51 -201 83l-4 10l25 57l10 2c69 -40 132 -73 198 -106zM296 227l-7 -43l-19 -184h-99l30 184l4 44l-143 414h102l8 -39l89 -273h8l168 270l21 42h104z" />
    <glyph glyph-name="ygrave" unicode="&#x1ef3;" horiz-adv-x="421" 
d="M302 520l-10 -1c-59 39 -116 79 -178 124l-2 10l36 52l10 1c57 -55 111 -100 170 -148zM305 448l88 19c15 -26 21 -53 21 -80c0 -47 -18 -97 -50 -154l-108 -195c-96 -172 -170 -233 -262 -233c-27 0 -56 5 -83 16l-5 80l10 8c27 -9 53 -14 75 -14c53 0 106 29 154 93
l-94 470l94 7l10 -82l43 -275h15l76 152c21 43 34 78 34 110c0 24 -7 45 -22 67z" />
    <glyph glyph-name="Ydotbelow" unicode="&#x1ef4;" horiz-adv-x="518" 
d="M296 227l-7 -43l-19 -184h-99l30 184l4 44l-143 414h102l8 -39l89 -273h8l168 270l21 42h104zM214 -66c32 0 51 -20 51 -52c0 -35 -21 -57 -55 -57c-33 0 -52 19 -52 53s21 56 56 56z" />
    <glyph glyph-name="ydotbelow" unicode="&#x1ef5;" horiz-adv-x="432" 
d="M304 448l88 19c15 -26 21 -53 21 -80c0 -47 -18 -97 -50 -154l-108 -195c-96 -172 -170 -233 -262 -233c-27 0 -56 5 -83 16l-5 80l10 8c27 -9 53 -14 75 -14c53 0 106 29 154 93l-94 470l93 7l11 -82l43 -275h15l76 152c21 43 34 78 34 110c0 24 -7 45 -22 67zM273 -64
c31 0 49 -19 49 -50c0 -33 -20 -54 -52 -54s-51 19 -51 51s21 53 54 53z" />
    <glyph glyph-name="Yhookabove" unicode="&#x1ef6;" horiz-adv-x="518" 
d="M302 853c-18 0 -40 -8 -59 -24l-19 29c27 28 61 45 93 45c39 0 68 -26 68 -61c0 -25 -15 -46 -53 -78l21 -36l-39 -22l-35 59c32 24 50 50 50 67c0 14 -11 21 -27 21zM296 227l-7 -43l-19 -184h-99l30 184l4 44l-143 414h102l8 -39l89 -273h8l168 270l21 42h104z" />
    <glyph glyph-name="yhookabove" unicode="&#x1ef7;" horiz-adv-x="421" 
d="M204 672c-18 0 -40 -8 -59 -24l-19 29c27 28 61 45 93 45c39 0 68 -26 68 -61c0 -25 -15 -46 -53 -78l21 -36l-39 -22l-35 59c32 24 50 50 50 67c0 14 -11 21 -27 21zM305 448l88 19c15 -26 21 -53 21 -80c0 -47 -18 -97 -50 -154l-108 -195
c-96 -172 -170 -233 -262 -233c-27 0 -56 5 -83 16l-5 80l10 8c27 -9 53 -14 75 -14c53 0 106 29 154 93l-94 470l94 7l10 -82l43 -275h15l76 152c21 43 34 78 34 110c0 24 -7 45 -22 67z" />
    <glyph glyph-name="endash" unicode="&#x2013;" horiz-adv-x="474" 
d="M495 283l-11 -60h-493l-6 7l13 60h492z" />
    <glyph glyph-name="emdash" unicode="&#x2014;" horiz-adv-x="916" 
d="M939 283l-12 -60h-937l-6 7l13 60h936z" />
    <glyph glyph-name="quoteleft" unicode="&#x2018;" horiz-adv-x="180" 
d="M118 420c-38 17 -55 43 -55 82c0 44 26 91 80 144l35 -25l1 -7c-28 -31 -41 -59 -41 -85c0 -27 11 -47 39 -60v-9c-17 -15 -37 -28 -59 -40z" />
    <glyph glyph-name="quoteright" unicode="&#x2019;" horiz-adv-x="180" 
d="M125 645c38 -17 55 -43 55 -82c0 -44 -26 -91 -80 -144l-35 25l-2 7c29 31 42 59 42 85c0 27 -11 47 -39 60v9c16 15 37 28 59 40z" />
    <glyph glyph-name="quotesinglbase" unicode="&#x201a;" horiz-adv-x="229" 
d="M102 102c28 -19 43 -43 43 -73c0 -49 -34 -97 -103 -147l-33 29v8c36 29 55 60 55 91c0 20 -11 37 -31 52v9c21 13 44 24 69 31z" />
    <glyph glyph-name="quotedblleft" unicode="&#x201c;" horiz-adv-x="315" 
d="M113 420c-38 17 -55 43 -55 82c0 44 26 91 80 144l35 -25l2 -7c-29 -31 -42 -59 -42 -85c0 -27 11 -47 39 -60v-9c-16 -15 -37 -28 -59 -40zM255 420c-38 17 -55 43 -55 82c0 44 26 91 80 144l35 -25l2 -7c-29 -31 -42 -59 -42 -85c0 -27 11 -47 39 -60v-9
c-16 -15 -37 -28 -59 -40z" />
    <glyph glyph-name="quotedblright" unicode="&#x201d;" horiz-adv-x="318" 
d="M122 645c38 -17 55 -43 55 -82c0 -44 -25 -91 -79 -144l-36 25l-1 7c28 31 41 59 41 85c0 27 -10 47 -39 60v9c17 15 37 28 59 40zM261 645c38 -17 55 -43 55 -82c0 -44 -25 -91 -79 -144l-36 25l-1 7c28 31 41 59 41 85c0 27 -10 47 -39 60v9c17 15 37 28 59 40z" />
    <glyph glyph-name="quotedblbase" unicode="&#x201e;" horiz-adv-x="372" 
d="M102 102c28 -19 43 -43 43 -73c0 -49 -34 -97 -103 -147l-33 29v8c36 29 55 60 55 91c0 20 -11 37 -31 52v9c21 13 44 24 69 31zM244 102c28 -19 43 -43 43 -73c0 -49 -34 -97 -104 -147l-32 29v8c36 29 55 60 55 91c0 20 -11 37 -31 52v9c21 13 44 24 69 31z" />
    <glyph glyph-name="dagger" unicode="&#x2020;" horiz-adv-x="489" 
d="M456 339h-165l-7 -52l-46 -377l-62 -4l-6 8l46 369l7 56h-162l-5 8l13 59h162l22 179l63 5l6 -5l-23 -179h164l6 -7z" />
    <glyph glyph-name="daggerdbl" unicode="&#x2021;" horiz-adv-x="488" 
d="M284 287l-18 -142h164l6 -7l-12 -59h-166l-21 -169l-61 -4l-6 8l20 165h-160l-7 7l13 59h162l17 138l8 64h-161l-6 7l13 59h162l21 172l64 5l5 -5l-21 -172h163l6 -7l-12 -59h-166z" />
    <glyph glyph-name="bullet" unicode="&#x2022;" horiz-adv-x="265" 
d="M136 303c37 0 59 -23 59 -61c0 -41 -24 -66 -63 -66s-61 23 -61 61c0 40 25 66 65 66z" />
    <glyph glyph-name="onedotenleader" unicode="&#x2024;" horiz-adv-x="230" 
d="M95 104c32 0 51 -20 51 -53c0 -34 -21 -56 -55 -56c-33 0 -52 19 -52 53s21 56 56 56z" />
    <glyph glyph-name="twodotenleader" unicode="&#x2025;" horiz-adv-x="415" 
d="M91 104c32 0 51 -20 51 -53c0 -34 -21 -56 -55 -56c-33 0 -52 19 -52 53s21 56 56 56zM275 104c33 0 52 -20 52 -53c0 -34 -22 -56 -55 -56c-34 0 -52 19 -52 53s21 56 55 56z" />
    <glyph glyph-name="ellipsis" unicode="&#x2026;" horiz-adv-x="600" 
d="M69 104c33 0 51 -20 51 -53c0 -34 -21 -56 -54 -56c-34 0 -53 19 -53 53s22 56 56 56zM254 104c32 0 51 -20 51 -53c0 -34 -21 -56 -55 -56c-33 0 -52 19 -52 53s21 56 56 56zM438 104c32 0 51 -20 51 -53c0 -34 -21 -56 -55 -56c-33 0 -52 19 -52 53s21 56 56 56z" />
    <glyph glyph-name="perthousand" unicode="&#x2030;" horiz-adv-x="1215" 
d="M705 656l5 -15l-560 -732l-39 25l-4 12l561 735zM244 646c82 0 126 -49 126 -139c0 -135 -63 -217 -180 -217c-82 0 -126 51 -126 139c0 135 64 217 180 217zM230 581c-67 0 -102 -50 -102 -140c0 -59 25 -89 73 -89c72 0 104 53 104 140c0 58 -25 89 -75 89zM672 351
c82 0 126 -49 126 -139c0 -135 -63 -217 -180 -217c-82 0 -126 51 -126 140c0 134 64 216 180 216zM1046 351c82 0 126 -49 126 -139c0 -135 -63 -217 -180 -217c-82 0 -126 51 -126 140c0 134 64 216 180 216zM658 286c-67 0 -102 -50 -102 -139c0 -60 25 -90 73 -90
c72 0 104 53 104 139c0 59 -25 90 -75 90zM1032 286c-67 0 -102 -50 -102 -139c0 -60 25 -90 73 -90c72 0 104 53 104 139c0 59 -25 90 -75 90z" />
    <glyph glyph-name="minute" unicode="&#x2032;" horiz-adv-x="179" 
d="M187 632l-52 -195l-49 -7l-7 7l27 197l75 6z" />
    <glyph glyph-name="second" unicode="&#x2033;" horiz-adv-x="306" 
d="M187 632l-52 -195l-49 -7l-7 7l27 197l75 6zM314 632l-51 -195l-49 -7l-7 7l26 197l76 6z" />
    <glyph glyph-name="guilsinglleft" unicode="&#x2039;" horiz-adv-x="235" 
d="M29 220l2 18l163 171l43 -26l1 -10l-136 -147l100 -146l-3 -10l-49 -26z" />
    <glyph glyph-name="guilsinglright" unicode="&#x203a;" horiz-adv-x="239" 
d="M217 234l-2 -18l-163 -171l-43 26v11l135 146l-100 146l4 11l49 25z" />
    <glyph glyph-name="fraction" unicode="&#x2044;" horiz-adv-x="85" 
d="M329 656l5 -15l-561 -732l-38 25l-4 12l561 735z" />
    <glyph glyph-name="zerosuperior" unicode="&#x2070;" horiz-adv-x="377" 
d="M250 705c82 0 126 -54 126 -152c0 -148 -63 -237 -180 -237c-82 0 -126 55 -126 152c0 147 64 237 180 237zM236 634c-67 0 -102 -55 -102 -153c0 -65 25 -98 73 -98c72 0 104 58 104 153c0 64 -25 98 -75 98z" />
    <glyph glyph-name="foursuperior" unicode="&#x2074;" horiz-adv-x="356" 
d="M344 415l-57 2l-7 -92l-6 -5l-63 -3l-4 4l14 96h-113l-55 -2l-5 6l6 50l195 230h73l-29 -224h57l4 -8zM126 477h103l17 136h-5z" />
    <glyph glyph-name="fivesuperior" unicode="&#x2075;" horiz-adv-x="310" 
d="M332 698l-15 -58l-7 -6l-52 6h-90l-12 -79l42 -10c69 -15 102 -45 102 -93c0 -86 -78 -143 -188 -143c-20 0 -49 3 -70 7l2 55l6 6c24 -6 48 -9 71 -9c61 0 100 27 100 71c0 26 -20 41 -65 52l-62 11l-5 6l23 178l12 10l37 -1h102l66 2z" />
    <glyph glyph-name="sixsuperior" unicode="&#x2076;" horiz-adv-x="341" 
d="M232 553c72 0 108 -49 103 -112c-6 -70 -56 -126 -150 -126c-86 0 -132 53 -124 144c9 107 88 195 218 247h5l46 -34l-1 -7c-95 -35 -149 -73 -175 -129l4 -5c22 13 47 22 74 22zM263 434c3 42 -17 64 -58 64c-23 0 -46 -8 -68 -21l-2 -17c-5 -62 10 -96 56 -96
c42 0 67 25 72 70z" />
    <glyph glyph-name="sevensuperior" unicode="&#x2077;" horiz-adv-x="304" 
d="M158 701h146l32 1l-6 -58l-143 -240l-48 -91l-63 17l-3 13l177 293h-114l-60 -4l-3 7l14 63z" />
    <glyph glyph-name="eightsuperior" unicode="&#x2078;" horiz-adv-x="348" 
d="M235 705c65 0 107 -34 107 -85c0 -49 -33 -75 -77 -97l-1 -4c36 -17 67 -38 67 -83c0 -74 -61 -121 -151 -121c-77 0 -120 37 -120 92c0 51 38 80 92 99v4c-31 16 -57 39 -57 79c0 71 57 116 140 116zM228 652c-41 0 -65 -22 -65 -55c0 -30 26 -44 56 -56
c31 15 59 32 59 68c0 27 -19 43 -50 43zM198 486c-38 -12 -70 -30 -70 -71c0 -30 21 -49 60 -49c48 0 76 27 76 60s-33 46 -66 60z" />
    <glyph glyph-name="ninesuperior" unicode="&#x2079;" horiz-adv-x="342" 
d="M226 706c86 0 132 -53 124 -145c-9 -106 -88 -195 -218 -246h-5l-46 33l1 8c95 34 149 72 175 128l-5 6c-21 -13 -46 -22 -73 -22c-72 0 -108 49 -103 111c6 71 55 127 150 127zM206 522c23 0 45 8 68 22l2 16c5 62 -10 96 -56 96c-42 0 -67 -24 -72 -70
c-2 -41 17 -64 58 -64z" />
    <glyph glyph-name="franc" unicode="&#x20a3;" horiz-adv-x="405" 
d="M192 437l-22 -158h89l94 2l3 -8l-12 -58l-98 2h-84l-8 -60l-2 -18h116l3 -5l-8 -39h-115l-10 -95h-80l13 95h-63l-3 4l7 40h65l2 11l40 349h305l4 -7l-14 -58l-127 3h-95z" />
    <glyph glyph-name="Euro" unicode="&#x20ac;" horiz-adv-x="487" 
d="M353 504c48 0 96 -12 132 -33l-23 -66l-7 -2c-30 22 -71 34 -111 34c-74 0 -126 -38 -153 -110h174l5 -6l-10 -48h-184c-4 -20 -5 -39 -6 -59h182l3 -6l-9 -48h-172c11 -65 52 -99 121 -99c41 0 90 13 129 37l8 -6l-15 -63c-43 -24 -90 -35 -133 -35
c-121 0 -187 58 -198 166h-73l-3 6l9 48h68c2 20 4 39 7 59h-68l-3 6l9 48h75c38 114 123 177 246 177z" />
    <glyph glyph-name="literSign" unicode="&#x2113;" horiz-adv-x="231" 
d="M140 111l-4 -108l-95 -7l85 600l2 101l96 7z" />
    <glyph glyph-name="trademark" unicode="&#x2122;" horiz-adv-x="585" 
d="M262 641l2 -5l-8 -37l-47 2h-17l-17 -122l-7 -74h-51l11 70l14 126h-18l-49 -2l-2 4l7 38h182zM560 641l-7 -236h-45l4 71l1 87h-4l-74 -134h-41l-37 134h-3l-20 -81l-15 -77h-45l55 236h61l7 -35l27 -109h3l58 108l16 36h59z" />
    <glyph glyph-name="Ohm" unicode="&#x2126;" horiz-adv-x="718" 
d="M408 649c170 0 249 -112 249 -245c0 -111 -55 -234 -163 -325l2 -4h88l79 8l5 -6l-22 -81l-100 4h-130l-37 -2l-4 4l8 74c110 82 171 206 171 320c0 96 -43 173 -154 173c-132 0 -199 -109 -199 -244c0 -92 33 -190 96 -249l-8 -74l-6 -4l-37 2h-147l-88 -3l-5 7l22 78
l83 -7h76l1 4c-60 65 -89 159 -89 247c0 170 108 323 309 323z" />
    <glyph glyph-name="estimated" unicode="&#x212e;" horiz-adv-x="794" 
d="M420 651c203 0 368 -148 368 -332v-8h-597c-3 0 -5 -1 -5 -4v-181c0 -8 4 -15 9 -21c56 -60 137 -97 226 -97c95 0 180 42 237 109h54c-67 -78 -174 -129 -292 -129c-203 0 -369 148 -369 331c0 184 166 332 369 332zM421 631c-89 0 -168 -37 -225 -96
c-6 -6 -10 -14 -10 -23v-178c0 -3 2 -5 5 -5h458c3 0 5 2 5 5v182c0 9 -4 16 -10 22c-57 57 -136 93 -223 93z" />
    <glyph glyph-name="arrowleft" unicode="&#x2190;" horiz-adv-x="522" 
d="M491 199l-363 4l144 -149v-14l-54 -14l-195 199v15l195 200l54 -14v-14l-143 -148l360 4l6 -7z" />
    <glyph glyph-name="arrowup" unicode="&#x2191;" horiz-adv-x="522" 
d="M467 277l-14 -53h-14l-148 143l4 -360l-7 -7l-62 4l4 364l-149 -144h-14l-14 53l199 195h15z" />
    <glyph glyph-name="arrowright" unicode="&#x2192;" horiz-adv-x="522" 
d="M497 243v-15l-195 -200l-54 14v14l143 148l-360 -4l-6 7l4 62l363 -4l-144 149v14l54 14z" />
    <glyph glyph-name="arrowdown" unicode="&#x2193;" horiz-adv-x="522" 
d="M468 190l-199 -195h-15l-200 195l14 53h14l148 -143l-4 360l7 7l62 -4l-4 -364l149 144h14z" />
    <glyph glyph-name="arrowupleft" unicode="&#x2196;" horiz-adv-x="522" 
d="M458 98v-10l-47 -41l-254 261l-4 -208l-10 -10l-47 28l3 279l10 10l280 4l27 -48l-10 -10l-204 -4z" />
    <glyph glyph-name="arrowupright" unicode="&#x2197;" horiz-adv-x="522" 
d="M425 122l-48 -28l-10 10l-4 205l-251 -257h-10l-41 47l259 254l-206 4l-10 10l28 47l278 -3l11 -10z" />
    <glyph glyph-name="arrowdownright" unicode="&#x2198;" horiz-adv-x="522" 
d="M424 346l-3 -279l-11 -10l-279 -4l-28 48l10 10l206 3l-257 252v9l47 41l253 -259l4 207l10 10z" />
    <glyph glyph-name="arrowdownleft" unicode="&#x2199;" horiz-adv-x="522" 
d="M407 114l10 -10l-28 -48l-279 3l-10 10l-4 280l48 28l10 -10l4 -205l251 256h10l41 -47l-261 -254z" />
    <glyph glyph-name="partialdiff" unicode="&#x2202;" horiz-adv-x="514" 
d="M186 716h8c204 -91 310 -242 287 -450c-18 -171 -114 -274 -263 -274c-141 0 -201 89 -187 214c14 127 98 221 228 221c41 -2 82 -19 116 -44l10 8c-25 125 -116 211 -273 267l2 10zM230 62c91 0 145 70 159 199c1 12 2 23 3 35c-40 36 -81 55 -124 55
c-85 0 -136 -49 -147 -145c-10 -93 27 -144 109 -144z" />
    <glyph glyph-name="increment" unicode="&#x2206;" horiz-adv-x="562" 
d="M515 0h-531l298 642h115zM321 544l-211 -464h297l-78 464h-8z" />
    <glyph glyph-name="product" unicode="&#x220f;" horiz-adv-x="675" 
d="M661 561l-53 1l-50 -361l-20 -201h-98l29 193l42 370h-269l-50 -362l-20 -201h-99l30 193l41 369l-49 -1l-6 8l17 73h566l6 -9z" />
    <glyph glyph-name="summation" unicode="&#x2211;" horiz-adv-x="497" 
d="M526 634l-17 -76l-99 5h-217l164 -231l-1 -17l-224 -237h207l113 6l6 -9l-17 -76l-355 1l-83 -1l8 69l238 256l-173 244l9 74l435 1z" />
    <glyph glyph-name="minus" unicode="&#x2212;" horiz-adv-x="477" 
d="M455 290l-6 -60h-411l-7 7l6 60h410z" />
    <glyph glyph-name="divisionslash" unicode="&#x2215;" horiz-adv-x="286" 
d="M321 669l-260 -783h-67l-6 9l260 784h66z" />
    <glyph glyph-name="bulletoperator" unicode="&#x2219;" horiz-adv-x="263" 
d="M156 303c37 0 59 -23 59 -61c0 -41 -24 -66 -63 -66s-61 23 -61 61c0 40 25 66 65 66z" />
    <glyph glyph-name="radical" unicode="&#x221a;" horiz-adv-x="508" 
d="M260 0h-103l-69 392h-90l-4 5l11 63h150l5 -5l60 -366h7l291 614l9 7h71z" />
    <glyph glyph-name="infinity" unicode="&#x221e;" horiz-adv-x="481" 
d="M383 406c70 0 109 -50 109 -123c0 -103 -62 -162 -142 -162c-57 0 -86 34 -109 86c-32 -49 -73 -86 -135 -86c-70 0 -110 49 -110 122c0 100 58 163 142 163c59 0 89 -36 110 -81c25 37 68 81 135 81zM136 344c-52 0 -83 -36 -83 -91c0 -42 23 -67 60 -67
c49 0 78 41 104 86c-15 40 -35 72 -81 72zM373 342c-51 0 -79 -43 -101 -85c16 -42 36 -75 82 -75s80 35 80 92c0 41 -20 68 -61 68z" />
    <glyph glyph-name="integral" unicode="&#x222b;" horiz-adv-x="280" 
d="M319 713c25 0 51 -3 74 -9l-14 -68l-7 -5c-27 11 -51 15 -68 15c-52 0 -78 -30 -86 -82l-61 -511c-11 -93 -43 -142 -135 -201l-38 40l1 9c57 46 79 80 87 149l59 501c12 104 81 162 188 162z" />
    <glyph glyph-name="approxequal" unicode="&#x2248;" horiz-adv-x="481" 
d="M179 339c-19 0 -41 -24 -75 -53h-11l-21 33l1 10l85 79l12 6c50 -9 163 -51 196 -51c18 0 41 23 76 53h10l21 -33l-1 -10l-85 -80l-12 -3c-50 6 -164 49 -196 49zM159 165c-19 0 -42 -23 -76 -53h-10l-22 33l1 10l86 79l11 6c50 -9 164 -51 196 -51c18 0 41 23 76 53h10
l21 -33l-1 -10l-85 -80l-12 -3c-50 6 -163 49 -195 49z" />
    <glyph glyph-name="notequal" unicode="&#x2260;" horiz-adv-x="477" 
d="M293 316l-38 -106h181l8 -7l-6 -60h-207l-53 -147h-63l-4 8l50 139h-134l-7 7l6 60h159l38 106h-175l-7 7l6 60h200l51 142h61l6 -8l-48 -134h140l8 -7l-6 -60h-166z" />
    <glyph glyph-name="lessequal" unicode="&#x2264;" horiz-adv-x="492" 
d="M466 410l-6 -9l-346 -133v-6l315 -126l-21 -55l-11 -7l-360 149l9 80l8 10l397 153zM416 -40l-5 -60h-411l-7 7l5 60h411z" />
    <glyph glyph-name="greaterequal" unicode="&#x2265;" horiz-adv-x="499" 
d="M472 313l6 -10l-9 -80l-399 -149l-9 7l-7 55l347 126v6l-314 133l-3 9l28 56zM416 -40l-5 -60h-411l-7 7l5 60h411z" />
    <glyph glyph-name="lozenge" unicode="&#x25ca;" horiz-adv-x="503" 
d="M341 640l116 -344l-4 -29l-200 -348l-74 -2l-7 4l-116 344l3 29l200 347l75 4zM286 569l-165 -292l99 -284h5l165 288l-98 288h-6z" />
    <glyph glyph-name="dieresisacute" unicode="&#xf6d7;" 
d="M350 806l15 -61l-5 -10c-75 -18 -143 -32 -213 -45l-10 5l-9 45c71 21 139 42 213 70zM158 639c29 0 46 -17 46 -47s-19 -50 -50 -50c-29 0 -46 17 -46 47s19 50 50 50zM321 639c28 0 46 -17 46 -47s-19 -50 -50 -50c-29 0 -46 17 -46 47s19 50 50 50z" />
    <glyph glyph-name="dieresisgrave" unicode="&#xf6d8;" 
d="M164 806l11 4c70 -28 136 -49 204 -70l-15 -45l-11 -5c-67 13 -134 27 -206 45l-4 10zM162 639c26 0 42 -16 42 -42c0 -33 -21 -55 -55 -55c-27 0 -42 16 -42 42c0 33 22 55 55 55zM325 639c26 0 42 -16 42 -42c0 -33 -22 -55 -55 -55c-27 0 -42 16 -42 42
c0 33 21 55 55 55z" />
    <glyph glyph-name="Iacute_J.loclNLD" horiz-adv-x="581" 
d="M114 723l-17 42c67 34 130 66 198 107l10 -3l25 -57l-4 -10c-70 -31 -135 -57 -201 -83zM596 812l-4 -10c-70 -31 -135 -57 -201 -83l-11 4l-17 42c67 34 130 66 198 107l10 -3zM137 642h99l-60 -441l-20 -201h-99l30 193zM542 642l-60 -430l-9 -93
c-13 -104 -67 -163 -205 -222l-28 54l1 11c91 46 132 85 141 158l11 83l40 362l-113 -2l-8 8l14 71h216z" />
    <glyph glyph-name="Q.corta" horiz-adv-x="618" 
d="M386 8c52 -45 116 -82 195 -115l2 -11c-17 -27 -35 -50 -55 -67l-8 -3c-92 52 -167 110 -228 180h-13c-147 0 -236 96 -236 265c0 243 113 392 320 392c150 0 238 -93 238 -260c0 -197 -76 -336 -215 -381zM144 262c0 -129 46 -191 145 -191c139 0 208 103 208 308
c0 129 -47 189 -145 189c-141 0 -208 -103 -208 -306z" />
    <glyph glyph-name="C.ss01" horiz-adv-x="437" 
d="M290 426c-100 0 -154 -70 -154 -208c0 -93 40 -142 113 -142c42 0 90 16 126 41l9 -4l-16 -74h143l-5 -39h-630l5 39h228c-44 34 -66 90 -66 166c0 121 43 210 119 256h-229l5 40h631l-7 -40h-130l-23 -73l-10 -4c-26 26 -65 42 -109 42z" />
    <glyph glyph-name="D.ss01" horiz-adv-x="541" 
d="M667 461h-230c44 -32 68 -86 68 -157c0 -124 -44 -217 -126 -265h237l-6 -39h-734l5 39h182l17 113l35 309h-182l5 40h735zM250 72c103 0 162 69 162 214c0 94 -40 136 -118 136c-16 0 -67 -1 -96 -4l-36 -258l-8 -82c30 -3 79 -6 96 -6z" />
    <glyph glyph-name="I.ss01" horiz-adv-x="254" 
d="M158 158l-12 -119h182l-5 -39h-447l5 39h176l16 111l36 311h-176l5 40h447l-5 -40h-180z" />
    <glyph glyph-name="L.ss01" horiz-adv-x="359" 
d="M159 168l-12 -90h175l-5 -39h116l-5 -39h-555l5 39h178l18 121l35 301h-178l5 40h556l-6 -40h-287z" />
    <glyph glyph-name="M.ss01" horiz-adv-x="654" 
d="M571 461l-12 -422h167l-5 -39h-845l5 39h161l98 422h-207l5 40h847l-5 -40h-209zM462 461h-210l8 -38l59 -226h6l118 227zM483 39l9 127l5 200h-6l-153 -281h-69l-77 281h-6l-44 -194l-25 -133h366z" />
    <glyph glyph-name="X.ss01" horiz-adv-x="503" 
d="M311 260l116 -221h149l-5 -39h-695l5 39h152l170 214l-113 208h-157l5 40h696l-5 -40h-161zM267 314l104 130l10 17h-192l7 -19zM245 198l-114 -141l-12 -18h209l-9 22z" />
    <glyph glyph-name="V.ss01" horiz-adv-x="483" 
d="M483 461l-203 -422h278l-6 -39h-676l5 39h273l-84 422h-137l5 40h676l-5 -40h-126zM400 461h-244l3 -27l62 -343h6l163 338z" />
    <glyph glyph-name="idotaccent" horiz-adv-x="225" 
d="M160 674c33 0 52 -20 52 -52c0 -35 -22 -57 -55 -57c-34 0 -52 20 -52 53c0 34 21 56 55 56zM137 111l-4 -108l-95 -7l51 361l4 101l94 7z" />
    <glyph glyph-name="germandbls.calt" horiz-adv-x="620" 
d="M368 648c82 0 154 -26 225 -64l2 -17l-171 -199c110 -49 166 -89 166 -179c0 -121 -101 -197 -219 -197c-52 0 -112 15 -159 44l25 97l12 6c42 -44 93 -69 138 -69c60 0 104 42 104 100c0 63 -53 100 -192 148l-1 18l172 201c-40 21 -77 31 -116 31
c-96 0 -152 -55 -165 -148l-29 -218l-20 -202h-99l30 190l25 231c15 136 118 227 272 227z" />
    <glyph glyph-name="f.f" horiz-adv-x="287" 
d="M451 390h-243l-26 -189l-30 -210l-4 -108l-96 -7l45 314l27 200h-69l-5 7l7 54h76l5 39c17 126 77 196 199 196l96 -14l4 -8l-27 -68l-13 -3c-26 16 -58 24 -80 24c-48 0 -83 -36 -92 -103l-9 -63h236l7 -8z" />
    <glyph glyph-name="iacute_j.loclNLD" horiz-adv-x="467" 
d="M230 705l37 -52l-3 -10c-62 -45 -119 -85 -178 -124l-10 1l-25 38c58 48 112 93 170 148zM466 705l37 -52l-3 -10c-62 -45 -119 -85 -178 -124l-10 1l-25 38c58 48 112 93 170 148zM137 111l-4 -108l-95 -7l51 361l4 101l94 7zM426 460l-50 -348l-9 -92
c-13 -105 -55 -161 -156 -214l-31 43l1 10c62 39 90 79 100 157l47 340l2 34h-73l-5 7l8 54h68l94 13z" />
    <glyph glyph-name="a.sups" horiz-adv-x="317" 
d="M324 644l-32 -237l-5 -72l-71 -6l17 130l-1 -4h-8c-26 -50 -55 -94 -88 -127h-12c-51 18 -66 50 -66 103c0 96 51 191 157 214h4l53 -7l45 11zM145 395c12 0 54 54 99 152l3 23l1 15l-43 8c-51 -1 -79 -58 -79 -134c0 -47 11 -64 19 -64z" />
    <glyph glyph-name="b.sups" horiz-adv-x="318" 
d="M254 644h11c50 -18 67 -47 67 -101c0 -99 -54 -194 -157 -215h-4l-36 6l-71 12l52 390l4 69l74 6l-38 -295h7c26 50 58 96 91 128zM139 393l46 -13c50 0 79 61 79 134c0 49 -12 65 -19 65c-11 0 -54 -54 -101 -153z" />
    <glyph glyph-name="f.l" horiz-adv-x="289" 
d="M471 689l-21 -68l-13 -3c-41 15 -75 23 -112 23c-51 0 -86 -35 -97 -103l-12 -87h105l7 -8l-8 -53h-113l-26 -189l-29 -210l-4 -108l-96 -7l45 314l27 200h-69l-5 7l7 54h75l9 64c19 125 79 197 204 197l122 -17z" />
    <glyph glyph-name="zero.lf" horiz-adv-x="533" 
d="M311 592c115 0 183 -84 183 -235c0 -221 -94 -365 -253 -365c-122 0 -187 84 -187 235c0 223 91 365 257 365zM297 501c-110 0 -166 -98 -166 -257c0 -108 38 -166 116 -166c110 0 168 98 168 259c0 108 -39 164 -118 164z" />
    <glyph glyph-name="c.sups" horiz-adv-x="244" 
d="M278 631l3 -7l-19 -52l-17 -2c-14 15 -26 22 -39 22c-51 0 -78 -49 -78 -136c0 -49 12 -68 37 -68c18 0 38 13 60 53h10l24 -30c-29 -51 -58 -72 -101 -83h-11c-61 9 -88 39 -88 116c0 110 51 203 170 203z" />
    <glyph glyph-name="three.dnom" horiz-adv-x="312" 
d="M153 385c62 0 113 -33 113 -84c0 -34 -22 -73 -74 -96l-1 -3c44 -12 66 -39 66 -80c0 -75 -74 -126 -180 -126c-22 0 -49 2 -71 7l3 56l6 5c25 -6 48 -10 70 -10c58 0 95 25 95 64c0 30 -22 46 -62 48h-45l-4 4l7 53h32c35 1 75 28 75 63c0 24 -17 37 -45 37
c-26 0 -52 -10 -84 -30h-9l-6 53c40 26 73 39 114 39z" />
    <glyph glyph-name="d.sups" horiz-adv-x="315" 
d="M345 811l-53 -404l-5 -72l-73 -6l17 127h-6c-26 -51 -57 -95 -90 -128h-12c-51 17 -67 48 -67 101c0 97 53 194 160 215h4l35 -4l13 96l3 69zM143 394c12 0 53 52 99 148l6 42l-43 8c-53 0 -81 -59 -81 -136c0 -45 11 -62 19 -62z" />
    <glyph glyph-name="one.lf" horiz-adv-x="362" 
d="M289 583l-53 -376l-19 -207h-99l30 196l34 286l-138 -34l-8 5l10 78l230 63z" />
    <glyph glyph-name="four.dnom" horiz-adv-x="356" 
d="M304 95l-57 2l-7 -92l-6 -5l-63 -3l-4 4l14 96h-113l-55 -2l-5 6l6 50l195 230h73l-29 -224h57l4 -8zM86 157h103l17 136h-5z" />
    <glyph glyph-name="two.lf" horiz-adv-x="493" 
d="M278 593c88 0 154 -56 154 -136c0 -65 -42 -118 -150 -236l-126 -139l1 -5h191l95 8l5 -9l-22 -80l-115 4h-246l-41 -2l-5 4l8 61l171 183c82 88 135 148 135 200c0 35 -22 63 -72 63c-52 0 -107 -29 -157 -81h-11l-7 77c59 54 124 88 192 88z" />
    <glyph glyph-name="e.sups" horiz-adv-x="270" 
d="M253 435l23 -30c-30 -44 -68 -68 -110 -77h-8c-72 7 -99 48 -98 118c1 117 64 197 159 202h8c40 -7 66 -29 66 -68c0 -53 -48 -94 -164 -129c1 -50 14 -69 42 -69c26 0 51 18 71 54zM202 601c-38 0 -65 -40 -71 -107c64 22 97 49 97 81c0 15 -8 26 -26 26z" />
    <glyph glyph-name="five.dnom" horiz-adv-x="310" 
d="M293 378l-15 -58l-7 -6l-52 6h-90l-12 -79l42 -10c69 -15 102 -45 102 -93c0 -86 -78 -143 -188 -143c-20 0 -49 3 -70 7l2 55l6 6c24 -6 48 -9 71 -9c61 0 100 27 100 71c0 26 -20 41 -65 52l-62 11l-5 6l23 178l12 10l37 -1h102l66 2z" />
    <glyph glyph-name="six.dnom" horiz-adv-x="341" 
d="M192 233c72 0 108 -49 103 -112c-6 -70 -56 -126 -150 -126c-86 0 -132 53 -124 144c9 107 88 195 218 247h5l46 -34l-1 -7c-95 -35 -149 -73 -175 -129l4 -5c22 13 47 22 74 22zM223 114c3 42 -17 64 -58 64c-23 0 -46 -8 -68 -21l-2 -17c-5 -62 10 -96 56 -96
c42 0 67 25 72 70z" />
    <glyph glyph-name="f.sups" horiz-adv-x="205" 
d="M317 796l-13 -49l-11 -4c-20 10 -35 15 -49 15c-26 0 -42 -22 -47 -65l-8 -55h64l6 -7l-6 -35h-69l-18 -129l-19 -150l-5 -73l-74 -5l29 220l15 137h-40l-4 4l6 38h43l4 36c11 87 59 135 134 135l60 -8z" />
    <glyph glyph-name="three.lf" horiz-adv-x="433" 
d="M234 595c97 0 156 -48 156 -121c0 -54 -37 -117 -118 -156v-4c65 -19 103 -56 103 -123c0 -113 -109 -197 -255 -197c-33 0 -76 4 -106 11l5 83l9 8c32 -17 67 -26 102 -26c88 0 150 44 150 115c0 49 -36 79 -105 81h-63l-5 7l11 67l46 1c53 1 124 47 124 112
c0 39 -27 63 -72 63c-42 0 -82 -20 -130 -56h-10l-5 74c56 41 106 61 163 61z" />
    <glyph glyph-name="g.sups" horiz-adv-x="318" 
d="M316 644l-30 -223l-5 -59c-13 -108 -78 -161 -164 -161c-65 0 -103 39 -113 97l3 7l93 51v6c-23 19 -32 46 -32 84c0 91 49 178 147 200h3l51 -7l40 10zM244 590l-38 6c-49 0 -77 -55 -77 -129c0 -42 11 -57 19 -57c11 0 49 49 92 141l3 24zM131 252c42 0 74 30 82 90
l16 127h-6c-25 -48 -56 -89 -87 -122l-52 -39c-5 -5 -6 -7 -6 -11s2 -11 5 -19c8 -17 25 -26 48 -26z" />
    <glyph glyph-name="seven.dnom" horiz-adv-x="304" 
d="M118 381h146l32 1l-6 -58l-143 -240l-48 -91l-63 17l-3 13l177 293h-114l-60 -4l-3 7l14 63z" />
    <glyph glyph-name="four.lf" horiz-adv-x="496" 
d="M445 158l-91 2l-15 -154l-7 -7l-75 -6l-5 7l23 160h-178l-73 -2l-6 8l7 65l291 355h92l-45 -351h90l5 -9zM112 235h174l30 237h-7z" />
    <glyph glyph-name="five.lf" horiz-adv-x="428" 
d="M422 584l-19 -77l-7 -7l-80 7h-136l-19 -141l62 -13c101 -20 152 -70 152 -151c0 -119 -114 -213 -262 -213c-32 0 -71 4 -103 10l3 83l9 8c38 -17 74 -25 110 -25c91 0 150 53 150 125c0 49 -33 78 -98 90l-98 18l-7 9l33 268l16 13l55 -2h138l96 4z" />
    <glyph glyph-name="eight.dnom" horiz-adv-x="348" 
d="M196 385c65 0 107 -34 107 -85c0 -49 -33 -75 -77 -97l-1 -4c36 -17 67 -38 67 -83c0 -74 -61 -121 -151 -121c-77 0 -120 37 -120 92c0 51 38 80 92 99v4c-31 16 -57 39 -57 79c0 71 57 116 140 116zM189 332c-41 0 -65 -22 -65 -55c0 -30 26 -44 56 -56
c31 15 59 32 59 68c0 27 -19 43 -50 43zM159 166c-38 -12 -70 -30 -70 -71c0 -30 21 -49 60 -49c48 0 76 27 76 60s-33 46 -66 60z" />
    <glyph glyph-name="h.sups" horiz-adv-x="338" 
d="M261 646h8c39 -7 63 -33 62 -66l-1 -9l-26 -165l-5 -71l-75 -6l33 208l1 8c0 18 -8 27 -15 27c-17 0 -53 -44 -100 -133l-4 -32l-5 -72l-73 -6l55 407l3 69l73 6l-39 -297h8c33 58 66 103 100 132z" />
    <glyph glyph-name="i.sups" horiz-adv-x="160" 
d="M150 796c22 0 35 -13 35 -34c0 -29 -17 -49 -45 -49c-22 0 -37 12 -37 33c0 30 19 50 47 50zM135 407l-5 -72l-73 -6l31 242l5 69l72 4z" />
    <glyph glyph-name="nine.dnom" horiz-adv-x="342" 
d="M187 386c86 0 132 -53 124 -145c-9 -106 -88 -195 -218 -246h-5l-46 33l1 8c95 34 149 72 175 128l-5 6c-21 -13 -46 -22 -73 -22c-72 0 -108 49 -103 111c6 71 55 127 150 127zM167 202c23 0 45 8 68 22l2 16c5 62 -10 96 -56 96c-42 0 -67 -24 -72 -70
c-2 -41 17 -64 58 -64z" />
    <glyph glyph-name="six.lf" horiz-adv-x="474" 
d="M457 550l-1 -10c-180 -56 -265 -135 -303 -218l6 -8c38 24 73 39 115 39c93 0 156 -70 156 -156c0 -78 -48 -205 -207 -205c-123 0 -186 75 -186 191c0 142 90 316 344 411h5zM253 283c-40 0 -85 -18 -125 -53c-1 -14 -2 -28 -2 -42c0 -71 19 -127 101 -127
c89 0 114 66 114 126c0 61 -30 96 -88 96z" />
    <glyph glyph-name="seven.lf" horiz-adv-x="421" 
d="M167 586h225l45 2l-8 -72l-234 -402l-64 -129l-77 24l-4 16l284 480h-193l-82 -8l-5 9l16 83z" />
    <glyph glyph-name="zero.numr" horiz-adv-x="377" 
d="M242 646c82 0 126 -54 126 -152c0 -148 -63 -237 -180 -237c-82 0 -126 55 -126 152c0 147 64 237 180 237zM228 575c-67 0 -102 -55 -102 -153c0 -65 25 -98 73 -98c72 0 104 58 104 153c0 64 -25 98 -75 98z" />
    <glyph glyph-name="j.sups" horiz-adv-x="177" 
d="M147 796c25 0 40 -14 40 -39c0 -28 -17 -44 -44 -44c-25 0 -40 13 -40 40c0 28 18 43 44 43zM174 641l-31 -238l-7 -52c-9 -72 -39 -114 -105 -149l-23 33l1 6c35 25 52 52 59 102l30 227v26h-41l-4 4l6 38h46l67 6z" />
    <glyph glyph-name="k.sups" horiz-adv-x="331" 
d="M339 577c0 -47 -33 -88 -85 -123c21 -39 43 -78 66 -114l-4 -5l-60 -10l-8 4c-20 40 -41 81 -59 121l3 11c45 28 74 61 74 89c0 16 -9 24 -17 24c-21 0 -56 -45 -104 -135l-4 -32l-6 -72l-72 -6l54 407l3 69l74 6l-39 -297h8c34 61 67 106 102 130h9c38 -6 65 -27 65 -67
z" />
    <glyph glyph-name="one.numr" horiz-adv-x="264" 
d="M230 639l-32 -242l-14 -135h-81l18 126l21 171l-86 -20l-5 4l8 62l162 43z" />
    <glyph glyph-name="eight.lf" horiz-adv-x="482" 
d="M278 593c96 0 159 -50 159 -135c0 -78 -55 -121 -111 -149l-1 -5c53 -27 99 -60 99 -138c0 -101 -81 -174 -205 -174c-113 0 -183 59 -183 147c0 82 60 122 132 154l1 5c-44 25 -79 57 -79 127c0 99 76 168 188 168zM276 525c-63 0 -106 -38 -106 -92
c0 -55 39 -77 89 -98c52 23 100 53 100 114c0 48 -29 76 -83 76zM235 265c-60 -22 -116 -47 -116 -114c0 -56 36 -92 102 -92c73 0 122 45 122 101c0 57 -45 79 -108 105z" />
    <glyph glyph-name="nine.lf" horiz-adv-x="474" 
d="M273 594c123 0 186 -75 186 -191c0 -142 -90 -316 -344 -411h-5l-71 44l1 10c180 56 265 135 303 218l-6 8c-38 -24 -73 -39 -115 -39c-93 0 -156 70 -156 156c0 78 48 205 207 205zM243 303c40 0 85 18 125 53c1 14 2 28 2 42c0 71 -19 127 -101 127
c-89 0 -114 -66 -114 -126c0 -61 30 -96 88 -96z" />
    <glyph glyph-name="l.sups" horiz-adv-x="160" 
d="M133 407l-4 -72l-73 -6l54 407l3 69l73 6z" />
    <glyph glyph-name="two.numr" horiz-adv-x="353" 
d="M222 646c59 0 108 -32 108 -83c0 -43 -33 -85 -104 -160l-73 -77l1 -2h116l66 3l3 -6l-16 -62l-85 3h-166l-27 -1l-4 3l5 48l111 109c55 56 89 92 89 124c0 20 -15 36 -44 36c-31 0 -70 -18 -103 -49h-9l-7 60c48 35 92 54 139 54z" />
    <glyph glyph-name="three.numr" horiz-adv-x="312" 
d="M185 647c62 0 113 -33 113 -84c0 -34 -22 -73 -74 -96l-1 -3c44 -12 66 -39 66 -80c0 -75 -74 -126 -180 -126c-22 0 -49 2 -71 7l3 56l6 5c25 -6 48 -10 70 -10c58 0 95 25 95 64c0 30 -22 46 -62 48h-45l-4 4l7 53h32c35 1 75 28 75 63c0 24 -17 37 -45 37
c-26 0 -52 -10 -84 -30h-9l-6 53c40 26 73 39 114 39z" />
    <glyph glyph-name="zero.sinf" horiz-adv-x="377" 
d="M195 264c82 0 126 -54 126 -152c0 -148 -63 -237 -180 -237c-82 0 -126 55 -126 152c0 147 64 237 180 237zM181 193c-67 0 -102 -55 -102 -153c0 -65 25 -98 73 -98c72 0 104 58 104 153c0 64 -25 98 -75 98z" />
    <glyph glyph-name="m.sups" horiz-adv-x="518" 
d="M437 646h9c39 -7 65 -33 64 -66l-1 -9l-27 -165l-4 -71l-76 -6l33 208l2 8c0 18 -8 27 -15 27c-18 0 -59 -48 -109 -144l-4 -22l-5 -71l-75 -6l33 208l1 8c0 18 -7 27 -15 27c-16 0 -53 -45 -102 -135l-4 -30l-5 -72l-73 -6l31 242l4 69l73 4l-16 -130h8
c36 58 66 103 101 132h8c40 -7 66 -33 65 -66l-1 -9l-10 -57h9c35 58 68 103 101 132z" />
    <glyph glyph-name="one.sinf" horiz-adv-x="264" 
d="M194 257l-32 -242l-14 -135h-81l18 126l21 171l-86 -20l-5 4l8 62l162 43z" />
    <glyph glyph-name="n.sups" horiz-adv-x="338" 
d="M261 646h8c33 -7 63 -33 62 -66l-1 -9l-27 -165l-4 -71l-76 -6l34 208l1 8c0 18 -8 27 -15 27c-17 0 -53 -44 -99 -131l-4 -34l-5 -72l-73 -6l32 242l3 69l73 4l-16 -130h7c34 58 65 103 100 132z" />
    <glyph glyph-name="four.numr" horiz-adv-x="356" 
d="M336 357l-57 2l-7 -92l-6 -5l-63 -3l-4 4l14 96h-113l-55 -2l-5 6l6 50l195 230h73l-29 -224h57l4 -8zM118 419h103l17 136h-5z" />
    <glyph glyph-name="five.numr" horiz-adv-x="310" 
d="M325 640l-15 -58l-7 -6l-52 6h-90l-12 -79l42 -10c69 -15 102 -45 102 -93c0 -86 -78 -143 -188 -143c-20 0 -49 3 -70 7l2 55l6 6c24 -6 48 -9 71 -9c61 0 100 27 100 71c0 26 -20 41 -65 52l-62 11l-5 6l23 178l12 10l37 -1h102l66 2z" />
    <glyph glyph-name="o.sups" horiz-adv-x="302" 
d="M215 648h9c50 -9 80 -42 80 -107c0 -126 -60 -209 -158 -214l-7 1c-51 7 -81 42 -81 110c0 122 60 205 157 210zM203 594c-52 0 -77 -61 -77 -156c0 -42 10 -59 34 -59c51 0 74 58 74 157c0 41 -8 58 -31 58z" />
    <glyph glyph-name="two.sinf" horiz-adv-x="353" 
d="M154 264c59 0 108 -32 108 -83c0 -43 -33 -85 -104 -160l-73 -77l1 -2h116l66 3l3 -6l-16 -62l-85 3h-166l-27 -1l-4 3l5 48l111 109c55 56 89 92 89 124c0 20 -15 36 -44 36c-31 0 -70 -18 -103 -49h-9l-7 60c48 35 92 54 139 54z" />
    <glyph glyph-name="three.sinf" horiz-adv-x="312" 
d="M126 265c62 0 113 -33 113 -84c0 -34 -22 -73 -74 -96l-1 -3c44 -12 66 -39 66 -80c0 -75 -74 -126 -180 -126c-22 0 -49 2 -71 7l3 56l6 5c25 -6 48 -10 70 -10c58 0 95 25 95 64c0 30 -22 46 -62 48h-45l-4 4l7 53h32c35 1 75 28 75 63c0 24 -17 37 -45 37
c-26 0 -52 -10 -84 -30h-9l-6 53c40 26 73 39 114 39z" />
    <glyph glyph-name="p.sups" horiz-adv-x="317" 
d="M248 644h10c49 -17 64 -47 64 -100c0 -99 -51 -195 -150 -216h-4l-37 7l-7 -55l-6 -73l-74 -5l50 369l3 69l73 4l-16 -128h8c24 50 54 96 86 128zM138 393l44 -13c46 0 74 62 74 136c0 48 -11 63 -18 63c-12 0 -50 -54 -95 -152z" />
    <glyph glyph-name="six.numr" horiz-adv-x="341" 
d="M225 495c72 0 108 -49 103 -112c-6 -70 -56 -126 -150 -126c-86 0 -132 53 -124 144c9 107 88 195 218 247h5l46 -34l-1 -7c-95 -35 -149 -73 -175 -129l4 -5c22 13 47 22 74 22zM256 376c3 42 -17 64 -58 64c-23 0 -46 -8 -68 -21l-2 -17c-5 -62 10 -96 56 -96
c42 0 67 25 72 70z" />
    <glyph glyph-name="seven.numr" horiz-adv-x="304" 
d="M150 643h146l32 1l-6 -58l-143 -240l-48 -91l-63 17l-3 13l177 293h-114l-60 -4l-3 7l14 63z" />
    <glyph glyph-name="q.sups" horiz-adv-x="317" 
d="M315 644l-49 -364l-4 -73l-72 -5l32 254h-8c-23 -51 -53 -95 -84 -128h-11c-48 17 -64 48 -64 101c0 96 51 194 154 215h4l49 -6l46 11zM140 394c12 0 49 53 94 150l3 26l1 15l-39 7c-49 0 -76 -60 -76 -137c0 -45 10 -61 17 -61z" />
    <glyph glyph-name="four.sinf" horiz-adv-x="356" 
d="M278 -25l-57 2l-7 -92l-6 -5l-63 -3l-4 4l14 96h-113l-55 -2l-5 6l6 50l195 230h73l-29 -224h57l4 -8zM60 37h103l17 136h-5z" />
    <glyph glyph-name="five.sinf" horiz-adv-x="310" 
d="M276 258l-15 -58l-7 -6l-52 6h-90l-12 -79l42 -10c69 -15 102 -45 102 -93c0 -86 -78 -143 -188 -143c-20 0 -49 3 -70 7l2 55l6 6c24 -6 48 -9 71 -9c61 0 100 27 100 71c0 26 -20 41 -65 52l-62 11l-5 6l23 178l12 10l37 -1h102l66 2z" />
    <glyph glyph-name="eight.numr" horiz-adv-x="348" 
d="M228 647c65 0 107 -34 107 -85c0 -49 -33 -75 -77 -97l-1 -4c36 -17 67 -38 67 -83c0 -74 -61 -121 -151 -121c-77 0 -120 37 -120 92c0 51 38 80 92 99v4c-31 16 -57 39 -57 79c0 71 57 116 140 116zM221 594c-41 0 -65 -22 -65 -55c0 -30 26 -44 56 -56
c31 15 59 32 59 68c0 27 -19 43 -50 43zM191 428c-38 -12 -70 -30 -70 -71c0 -30 21 -49 60 -49c48 0 76 27 76 60s-33 46 -66 60z" />
    <glyph glyph-name="r.sups" horiz-adv-x="235" 
d="M278 640l-12 -82l-7 -3l-15 3c-28 0 -60 -39 -99 -112l-5 -39l-5 -72l-74 -6l32 242l4 69l72 4l-16 -128h10c33 70 67 116 100 126z" />
    <glyph glyph-name="s.sups" horiz-adv-x="241" 
d="M192 646c24 -2 43 -8 64 -16l-16 -54l-10 -4c-20 18 -44 27 -58 27c-24 0 -38 -18 -38 -38c0 -45 103 -53 103 -135c0 -56 -51 -98 -122 -99c-29 3 -53 8 -76 18l17 59l8 6c20 -23 47 -37 70 -37c25 0 41 19 40 39c-2 46 -105 59 -105 132c0 63 56 103 123 102z" />
    <glyph glyph-name="nine.numr" horiz-adv-x="342" 
d="M220 648c86 0 132 -53 124 -145c-9 -106 -88 -195 -218 -246h-5l-46 33l1 8c95 34 149 72 175 128l-5 6c-21 -13 -46 -22 -73 -22c-72 0 -108 49 -103 111c6 71 55 127 150 127zM200 464c23 0 45 8 68 22l2 16c5 62 -10 96 -56 96c-42 0 -67 -24 -72 -70
c-2 -41 17 -64 58 -64z" />
    <glyph glyph-name="six.sinf" horiz-adv-x="341" 
d="M165 113c72 0 108 -49 103 -112c-6 -70 -56 -126 -150 -126c-86 0 -132 53 -124 144c9 107 88 195 218 247h5l46 -34l-1 -7c-95 -35 -149 -73 -175 -129l4 -5c22 13 47 22 74 22zM196 -6c3 42 -17 64 -58 64c-23 0 -46 -8 -68 -21l-2 -17c-5 -62 10 -96 56 -96
c42 0 67 25 72 70z" />
    <glyph glyph-name="t.sups" horiz-adv-x="234" 
d="M154 416l-2 -10c1 -13 7 -18 16 -18c15 0 27 13 40 44l12 -1l19 -24c-20 -41 -44 -66 -74 -78l-9 -1c-52 3 -74 18 -74 61l2 19l25 164l3 24h-41l-5 4l5 38h47l10 75l68 17l6 -4l-14 -88h78l5 -7l-4 -35h-85z" />
    <glyph glyph-name="seven.sinf" horiz-adv-x="304" 
d="M116 261h146l32 1l-6 -58l-143 -240l-48 -91l-63 17l-3 13l177 293h-114l-60 -4l-3 7l14 63z" />
    <glyph glyph-name="eight.sinf" horiz-adv-x="348" 
d="M172 265c65 0 107 -34 107 -85c0 -49 -33 -75 -77 -97l-1 -4c36 -17 67 -38 67 -83c0 -74 -61 -121 -151 -121c-77 0 -120 37 -120 92c0 51 38 80 92 99v4c-31 16 -57 39 -57 79c0 71 57 116 140 116zM165 212c-41 0 -65 -22 -65 -55c0 -30 26 -44 56 -56
c31 15 59 32 59 68c0 27 -19 43 -50 43zM135 46c-38 -12 -70 -30 -70 -71c0 -30 21 -49 60 -49c48 0 76 27 76 60s-33 46 -66 60z" />
    <glyph glyph-name="u.sups" horiz-adv-x="334" 
d="M332 644l-31 -237l-5 -72l-73 -6l17 128h-7c-32 -57 -63 -101 -96 -129h-7c-40 6 -66 32 -65 65l1 12l26 161l4 73l76 4l-33 -206l-1 -9c0 -17 7 -28 15 -28c16 0 50 45 97 131l5 40l3 69z" />
    <glyph glyph-name="v.sups" horiz-adv-x="294" 
d="M233 632l68 14c8 -18 13 -35 13 -52c0 -28 -10 -57 -29 -93l-93 -169h-81l-32 307l72 5l2 -55l9 -182h7l55 114c13 27 20 49 20 70c0 14 -4 27 -11 41z" />
    <glyph glyph-name="nine.sinf" horiz-adv-x="342" 
d="M175 266c86 0 132 -53 124 -145c-9 -106 -88 -195 -218 -246h-5l-46 33l1 8c95 34 149 72 175 128l-5 6c-21 -13 -46 -22 -73 -22c-72 0 -108 49 -103 111c6 71 55 127 150 127zM155 82c23 0 45 8 68 22l2 16c5 62 -10 96 -56 96c-42 0 -67 -24 -72 -70
c-2 -41 17 -64 58 -64z" />
    <glyph glyph-name="w.sups" horiz-adv-x="481" 
d="M418 632l68 14c10 -20 15 -37 15 -56c0 -26 -10 -54 -29 -89l-89 -169h-80l-17 214h-7l-86 -214h-80l-34 307l72 5l1 -44l13 -187h6l74 182l17 46h77l1 -41l14 -187h6l51 108c13 26 19 48 19 67c0 15 -4 30 -12 44z" />
    <glyph glyph-name="zero.tf" horiz-adv-x="482" 
d="M287 592c106 0 169 -83 169 -231c0 -222 -89 -369 -240 -369c-114 0 -174 83 -174 232c0 223 87 368 245 368zM271 501c-101 0 -152 -100 -152 -261c0 -105 34 -162 104 -162c102 0 155 99 155 262c0 106 -36 161 -107 161z" />
    <glyph glyph-name="one.tf" horiz-adv-x="475" 
d="M348 583l-53 -376l-19 -207h-99l29 196l35 286l-169 -34l-8 5l10 78l261 63z" />
    <glyph glyph-name="x.sups" horiz-adv-x="316" 
d="M305 335l-82 -7l-8 37l-34 82l-53 -82l-18 -33h-79l110 161l-62 146l77 8l10 -30l33 -77l52 74l13 27h77l-107 -153z" />
    <glyph glyph-name="y.sups" horiz-adv-x="296" 
d="M236 632l68 14c8 -18 12 -35 12 -53c0 -30 -11 -64 -38 -112l-63 -120c-66 -119 -116 -160 -179 -160c-19 0 -39 4 -59 11l-3 61l7 7c18 -6 36 -9 53 -9c32 0 65 15 95 50l-66 318l73 5l6 -55l27 -176h11l47 100c14 31 21 56 21 75c0 17 -5 30 -12 44z" />
    <glyph glyph-name="two.tf" horiz-adv-x="475" 
d="M270 593c87 0 152 -56 152 -136c0 -65 -41 -118 -148 -236l-123 -139l1 -5h186l93 8l5 -9l-22 -80l-113 4h-242l-39 -2l-5 4l7 61l168 183c81 88 133 148 133 200c0 35 -22 63 -70 63c-51 0 -105 -29 -154 -81h-11l-7 77c59 54 123 88 189 88z" />
    <glyph glyph-name="three.tf" horiz-adv-x="476" 
d="M255 595c98 0 158 -48 158 -121c0 -54 -37 -117 -120 -156v-4c67 -19 105 -56 105 -123c0 -113 -110 -197 -257 -197c-33 0 -76 4 -107 11l5 83l8 8c34 -17 69 -26 103 -26c91 0 153 44 153 115c0 49 -36 79 -106 81h-64l-5 7l11 67l46 1c54 1 126 47 126 112
c0 39 -27 63 -73 63c-43 0 -84 -20 -132 -56h-10l-5 74c57 41 107 61 164 61z" />
    <glyph glyph-name="z.sups" horiz-adv-x="289" 
d="M303 632l-176 -234l16 3c12 0 40 -11 53 -11c33 0 48 21 52 75l11 3l30 -10c-5 -95 -38 -132 -93 -132c-39 0 -72 22 -102 22c-14 0 -26 -6 -40 -19h-9l-22 19l174 235l-81 -1l-41 -5l-5 5l13 60l6 5l52 -3l120 -3l19 12z" />
    <glyph glyph-name="f.t" horiz-adv-x="289" 
d="M455 390h-247l-26 -189l-30 -210l-4 -108l-96 -7l45 314l27 200h-69l-5 7l7 54h75l8 56c17 126 77 197 199 197l95 -15l4 -7l-26 -68l-13 -3c-26 16 -58 23 -80 23c-48 0 -84 -35 -92 -103l-11 -80h240l8 -8z" />
    <glyph glyph-name="four.tf" horiz-adv-x="475" 
d="M429 158l-87 3l-15 -155l-7 -7l-74 -6l-5 7l23 161h-173l-71 -3l-5 9l7 63l284 356h89l-45 -351h87l5 -9zM107 235h168l29 238h-7z" />
    <glyph glyph-name="five.tf" horiz-adv-x="475" 
d="M454 584l-19 -77l-8 -7l-80 7h-142l-19 -141l64 -13c104 -20 157 -70 157 -151c0 -119 -117 -213 -268 -213c-33 0 -72 4 -105 10l3 83l9 8c38 -17 75 -25 111 -25c95 0 157 53 157 125c0 49 -35 78 -103 90l-100 18l-7 9l33 268l16 13l56 -2h142l97 4z" />
    <glyph glyph-name="six.tf" horiz-adv-x="475" 
d="M457 550l-2 -10c-179 -56 -264 -135 -302 -218l6 -8c38 24 73 39 115 39c92 0 155 -70 155 -156c0 -78 -48 -205 -206 -205c-123 0 -185 75 -185 191c0 142 90 316 342 411h6zM253 283c-40 0 -85 -18 -125 -53c-1 -14 -2 -28 -2 -42c0 -71 19 -128 101 -128
c88 0 113 67 113 127c0 61 -29 96 -87 96z" />
    <glyph glyph-name="seven.tf" horiz-adv-x="476" 
d="M188 586h239l46 2l-7 -72l-247 -402l-66 -129l-77 24l-4 16l298 480h-208l-84 -8l-6 9l16 83z" />
    <glyph glyph-name="dotlessi.sc" horiz-adv-x="261" 
 />
    </font>
</defs>
</svg>
