<?xml version="1.0" standalone="no"?>
<!DOCTYPE svg PUBLIC "-//W3C//DTD SVG 1.1//EN" "http://www.w3.org/Graphics/SVG/1.1/DTD/svg11.dtd" >
<svg>
<metadata>
Created by FontForge 20120731 at Fri Aug  1 16:50:16 2014
 By Alfred Xing
Copyright (c) 2013 by Juan Pablo del Peral (huertatipografica.com.ar)
</metadata>
<defs>
<font id="AlegreyaSans-Bold" horiz-adv-x="389" >
  <font-face 
    font-family="Alegreya Sans"
    font-weight="700"
    font-stretch="normal"
    units-per-em="1000"
    panose-1="0 0 8 0 0 0 0 0 0 0"
    ascent="800"
    descent="-200"
    x-height="467"
    cap-height="644"
    bbox="-230 -272 1197 1053"
    underline-thickness="59"
    underline-position="-119"
    stemh="89"
    stemv="124"
    unicode-range="U+0020-FB02"
  />
<missing-glyph horiz-adv-x="151" 
 />
    <glyph glyph-name="Idieresis" unicode="&#xa8;I" horiz-adv-x="295" 
d="M74 862c39 0 61 -23 61 -62c0 -42 -25 -68 -66 -68c-39 0 -61 23 -61 63c0 41 25 67 66 67zM227 862c39 0 61 -23 61 -62c0 -42 -25 -68 -66 -68c-39 0 -61 23 -61 63c0 41 25 67 66 67zM209 204l6 -204h-137l8 192l-8 452h138z" />
    <glyph glyph-name="Odieresis" unicode="&#xa8;O" horiz-adv-x="643" 
d="M239 862c39 0 61 -23 61 -62c0 -42 -25 -68 -66 -68c-39 0 -61 23 -61 63c0 41 25 67 66 67zM413 862c39 0 61 -23 61 -62c0 -42 -25 -68 -66 -68c-39 0 -61 23 -61 63c0 41 25 67 66 67zM333 653c180 0 282 -115 282 -317c0 -221 -110 -346 -304 -346
c-181 0 -283 118 -283 324c0 217 110 339 305 339zM320 543c-106 0 -151 -61 -151 -211c0 -172 45 -237 153 -237c105 0 152 61 152 214c0 170 -45 234 -154 234z" />
    <glyph glyph-name="Yacute" unicode="&#xb4;Y" horiz-adv-x="558" 
d="M193 721l-22 55c73 37 139 72 208 113l12 -3l34 -79l-4 -12c-77 -30 -145 -54 -215 -78zM333 179l6 -179h-136l8 179l-1 36l-206 429h143l15 -45l109 -245h9l122 241l18 49h140l-225 -425z" />
    <glyph glyph-name="idieresis" unicode="&#xa8;i" horiz-adv-x="254" 
d="M56 683c39 0 61 -23 61 -62c0 -42 -25 -68 -66 -68c-39 0 -61 23 -61 63c0 41 25 67 66 67zM209 683c39 0 61 -23 61 -62c0 -42 -25 -68 -66 -68c-39 0 -61 23 -61 63c0 41 25 67 66 67zM186 205l7 -205h-133l7 192l-6 264l133 11z" />
    <glyph glyph-name="odieresis" unicode="&#xa8;o" horiz-adv-x="494" 
d="M165 683c39 0 61 -23 61 -62c0 -42 -25 -68 -66 -68c-39 0 -61 23 -61 63c0 41 25 67 66 67zM339 683c39 0 61 -23 61 -62c0 -42 -25 -68 -66 -68c-39 0 -61 23 -61 63c0 41 25 67 66 67zM253 474c136 0 210 -82 210 -233c0 -162 -79 -251 -224 -251
c-136 0 -210 83 -210 233c0 162 79 251 224 251zM245 384c-63 0 -91 -40 -91 -135c0 -124 29 -170 95 -170c63 0 90 38 90 135c0 122 -28 170 -94 170z" />
    <glyph glyph-name="yacute" unicode="&#xb4;y" horiz-adv-x="447" 
d="M325 723l48 -72l-2 -13c-70 -43 -131 -81 -195 -118l-13 1l-32 50c64 51 122 98 181 153zM143 394l82 -259h9l81 247l16 83h116l-151 -433c-44 -126 -110 -186 -246 -224l-10 1c-26 24 -45 51 -60 80l5 14c82 14 138 43 185 97l-170 462l128 6z" />
    <glyph glyph-name="Itilde" unicode="&#x7e;I" horiz-adv-x="295" 
d="M301 838v-11l-63 -89l-12 -4c-41 6 -107 34 -128 34c-20 0 -35 -24 -55 -50h-11l-39 39v12l62 87l12 5c41 -6 107 -34 128 -34c20 0 35 24 55 50h12zM209 204l6 -204h-137l8 192l-8 452h138z" />
    <glyph glyph-name="itilde" unicode="&#x7e;i" horiz-adv-x="254" 
d="M283 659v-11l-63 -89l-12 -4c-41 6 -107 34 -128 34c-20 0 -35 -24 -55 -50h-11l-39 39v12l62 87l12 5c41 -6 107 -34 128 -34c20 0 35 24 55 50h12zM186 205l7 -205h-133l7 192l-6 264l133 11z" />
    <glyph glyph-name="Utilde" unicode="&#x7e;U" horiz-adv-x="638" 
d="M495 841v-11l-70 -89l-13 -5c-46 6 -128 35 -154 35c-20 0 -38 -25 -62 -51h-12l-40 39v11l71 89l12 5c47 -6 129 -35 154 -35c21 0 39 24 63 51h12zM573 317l-1 -85c2 -154 -93 -241 -262 -241c-162 0 -251 84 -248 236l2 93l-3 324h136l-7 -399
c-1 -97 41 -143 128 -143c86 0 129 44 128 136l-6 406h137z" />
    <glyph glyph-name="utilde" unicode="&#x7e;u" horiz-adv-x="522" 
d="M433 662v-11l-70 -89l-13 -5c-46 6 -128 35 -154 35c-20 0 -38 -25 -62 -51h-12l-40 39v11l71 89l12 5c47 -6 129 -35 154 -35c21 0 39 24 63 51h12zM456 467l-9 -346c0 -22 7 -30 23 -30c7 0 14 1 26 4l10 -8l-12 -70c-20 -13 -43 -22 -73 -25c-41 4 -68 31 -80 75h-9
c-39 -37 -77 -61 -118 -73c-101 0 -155 48 -155 134l3 118l-5 210l129 11l-3 -295c-1 -46 19 -71 59 -71c30 0 59 14 87 39v316z" />
    <glyph glyph-name="Etilde" unicode="&#x7e;E" horiz-adv-x="509" 
d="M146 720l-40 39v11l71 89l12 5c47 -6 129 -35 154 -35c21 0 39 24 63 51h12l39 -39v-11l-70 -89l-13 -5c-46 6 -128 35 -154 35c-20 0 -38 -25 -62 -51h-12zM483 112l7 -11l-8 -101h-404l8 192l-8 452h408l7 -11l-9 -101l-155 5l-115 -1l-2 -156l109 -1l106 3l8 -10
l-9 -101l-114 3l-102 -1l-1 -69l3 -97l112 -1z" />
    <glyph glyph-name="etilde" unicode="&#x7e;e" horiz-adv-x="471" 
d="M113 541l-40 39v11l71 89l12 5c47 -6 129 -35 154 -35c21 0 39 24 63 51h12l39 -39v-11l-70 -89l-13 -5c-46 6 -128 35 -154 35c-20 0 -38 -25 -62 -51h-12zM417 216l-266 -1c5 -82 43 -126 124 -126c40 0 88 12 135 36l11 -7l-18 -98c-43 -18 -92 -30 -141 -30
c-147 0 -233 91 -233 240c0 152 90 243 230 243c116 0 181 -69 181 -183c0 -17 -2 -41 -4 -55zM323 293l2 12c0 55 -27 81 -71 81c-53 0 -88 -35 -100 -98z" />
    <glyph glyph-name="Ytilde" unicode="&#x7e;Y" horiz-adv-x="558" 
d="M140 720l-40 39v11l71 89l12 5c47 -6 129 -35 154 -35c21 0 39 24 63 51h12l39 -39v-11l-70 -89l-13 -5c-46 6 -128 35 -154 35c-20 0 -38 -25 -62 -51h-12zM333 179l6 -179h-136l8 179l-1 36l-206 429h143l15 -45l109 -245h9l122 241l18 49h140l-225 -425z" />
    <glyph glyph-name="ytilde" unicode="&#x7e;y" horiz-adv-x="447" 
d="M402 662v-11l-70 -89l-13 -5c-46 6 -128 35 -154 35c-20 0 -38 -25 -62 -51h-12l-40 39v11l71 89l12 5c47 -6 129 -35 154 -35c21 0 39 24 63 51h12zM143 394l82 -259h9l81 247l16 83h116l-151 -433c-44 -126 -110 -186 -246 -224l-10 1c-26 24 -45 51 -60 80l5 14
c82 14 138 43 185 97l-170 462l128 6z" />
    <glyph glyph-name="fi" unicode="fi" horiz-adv-x="597" 
d="M319 705c45 0 83 -6 134 -18l-15 -103l-13 -7c-50 23 -87 34 -121 34c-53 0 -77 -26 -78 -84l-1 -66h236l73 10l8 -5l-8 -261l7 -205h-132l7 192l-4 189h-188l-3 -176l7 -205h-133l8 193l-2 188h-70l-5 7l7 73h66v38c0 141 70 206 220 206z" />
    <glyph glyph-name="fl" unicode="fl" horiz-adv-x="612" 
d="M540 205l7 -205h-133l7 193l-5 399c-43 17 -78 24 -109 24c-48 0 -81 -22 -82 -83l-1 -72h114l4 -7l-7 -73h-112l-2 -177l7 -204h-133l7 192l-2 189h-70l-4 7l6 73h67l-1 52c-1 129 78 197 216 197c41 0 82 -5 127 -16l107 8z" />
    <glyph glyph-name="f_j" unicode="fj" horiz-adv-x="607" 
d="M319 705c45 0 83 -6 134 -18l-15 -103l-13 -7c-50 23 -87 34 -121 34c-53 0 -77 -26 -78 -84l-1 -66h237l72 10l8 -5l-8 -261l6 -178c0 -106 -47 -170 -163 -222l-46 59v12c61 34 84 75 84 147l1 169l-4 189h-188l-3 -176l7 -205h-133l8 193l-2 188h-70l-5 7l7 73h67
l-1 38c0 141 69 206 220 206z" />
    <glyph glyph-name="Gtilde" unicode="&#x7e;G" horiz-adv-x="598" 
d="M501 841v-11l-70 -89l-13 -5c-46 6 -128 35 -154 35c-20 0 -38 -25 -62 -51h-12l-40 39v11l71 89l12 5c47 -6 129 -35 154 -35c21 0 39 24 63 51h12zM364 652c68 0 131 -12 188 -39l-29 -122l-12 -2c-64 37 -111 53 -171 53c-117 0 -170 -63 -170 -227
c0 -159 48 -217 169 -217c28 0 49 3 86 14l2 55l-3 99l126 10l-3 -88l2 -157c-83 -28 -154 -40 -220 -40c-203 0 -301 116 -301 317c0 224 122 344 336 344z" />
    <glyph glyph-name="gtilde" unicode="&#x7e;g" horiz-adv-x="500" 
d="M117 533l-40 39v11l71 89l12 5c47 -6 129 -35 154 -35c21 0 39 24 63 51h12l39 -39v-11l-70 -89l-13 -5c-46 6 -128 35 -154 35c-20 0 -38 -25 -62 -51h-12zM509 485v-83c-27 -7 -51 -11 -78 -15l-2 -4c10 -20 15 -42 15 -67c0 -100 -77 -164 -202 -164
c-21 0 -40 2 -58 5c-11 -11 -15 -17 -15 -26c0 -67 295 1 295 -162c0 -95 -95 -164 -229 -164c-124 0 -189 56 -189 135c22 31 51 55 83 75v5c-42 15 -72 40 -72 91c19 23 42 43 68 61v5c-48 25 -73 70 -73 129c0 104 78 166 200 166c38 0 71 -7 99 -19c50 10 100 24 148 41
zM246 232c54 0 83 28 83 82c0 51 -26 76 -79 76c-55 0 -83 -26 -83 -77c0 -53 26 -81 79 -81zM352 -55c0 47 -76 48 -150 59c-31 -21 -48 -40 -48 -63c0 -34 31 -58 94 -58c61 0 104 22 104 62z" />
    <glyph glyph-name=".notdef" horiz-adv-x="151" 
 />
    <glyph glyph-name="space" unicode=" " horiz-adv-x="151" 
 />
    <glyph glyph-name="exclam" unicode="!" horiz-adv-x="264" 
d="M209 650l-36 -413l-76 -10l-13 13l-8 404l12 15l105 7zM124 135c42 0 66 -25 66 -68c0 -45 -27 -74 -71 -74s-68 25 -68 69s28 73 73 73z" />
    <glyph glyph-name="quotedbl" unicode="&#x22;" horiz-adv-x="354" 
d="M165 633l-35 -220l-62 -9l-11 9l-2 222l103 7zM315 633l-35 -220l-63 -9l-10 9l-2 222l102 7z" />
    <glyph glyph-name="numbersign" unicode="#" horiz-adv-x="549" 
d="M418 356l-20 -104h90l8 -9l-7 -68h-106l-28 -143h-77l-7 9l26 134h-100l-28 -143h-77l-6 9l26 134h-84l-8 9l6 68h101l20 104h-86l-8 9l6 68h103l27 140h74l9 -10l-25 -130h101l27 140h74l9 -10l-25 -130h87l9 -9l-7 -68h-104zM333 356h-101l-20 -104h100z" />
    <glyph glyph-name="dollar" unicode="$" horiz-adv-x="450" 
d="M402 155c0 -71 -47 -141 -149 -159l-8 -132h-77l-11 11l8 118c-39 3 -84 12 -127 29l17 118l13 9c45 -42 106 -66 147 -66c38 0 63 22 63 49c0 77 -227 61 -227 219c0 76 54 139 148 156l8 138h76l12 -12l-8 -123c36 -3 71 -11 103 -23l-19 -112l-18 -5
c-43 32 -85 48 -117 48c-40 0 -60 -23 -60 -46c0 -76 226 -61 226 -217z" />
    <glyph glyph-name="percent" unicode="%" horiz-adv-x="854" 
d="M666 653l8 -19l-466 -726l-57 34l-6 14l467 730zM195 650c96 0 148 -62 148 -175c0 -122 -57 -188 -162 -188c-97 0 -150 62 -150 175c0 121 58 188 164 188zM186 562c-49 0 -71 -29 -71 -93c0 -69 22 -102 72 -102c51 0 73 32 73 97c0 68 -23 98 -74 98zM674 358
c96 0 148 -63 148 -175c0 -122 -57 -189 -162 -189c-97 0 -150 62 -150 175c0 122 58 189 164 189zM665 270c-49 0 -71 -29 -71 -94c0 -68 22 -101 72 -101c51 0 73 32 73 96c0 68 -23 99 -74 99z" />
    <glyph glyph-name="ampersand" unicode="&#x26;" horiz-adv-x="711" 
d="M560 346l-3 -9c8 -31 12 -60 12 -90c0 -43 -8 -81 -24 -115l131 -118v-8c-21 -23 -45 -43 -72 -59h-9l-114 103c-49 -38 -116 -59 -198 -59c-146 0 -241 68 -241 181c0 77 42 130 114 165v7c-45 47 -66 92 -66 144c0 99 74 162 210 162c57 0 113 -10 163 -30l-30 -97h-17
c-40 23 -80 35 -120 35c-59 0 -90 -28 -90 -77c0 -32 13 -57 56 -94l210 -190c7 20 10 42 10 66c0 30 -6 58 -17 83h-61l-6 8l9 85h289l8 -9l-9 -84h-135zM296 83c46 0 85 11 114 31l-198 179c-36 -25 -56 -59 -56 -99c0 -72 54 -111 140 -111z" />
    <glyph glyph-name="quotesingle" unicode="'" horiz-adv-x="205" 
d="M165 633l-35 -220l-62 -9l-11 9l-2 222l103 7z" />
    <glyph glyph-name="parenleft" unicode="(" horiz-adv-x="295" 
d="M291 620v-11c-80 -72 -114 -177 -114 -355c0 -169 34 -269 114 -342v-11l-48 -40h-11c-114 83 -161 199 -162 392c1 203 48 324 162 408h11z" />
    <glyph glyph-name="parenright" unicode=")" horiz-adv-x="295" 
d="M4 -99v11c80 73 113 178 114 355c-1 169 -34 270 -114 342v11l47 41h12c113 -83 161 -200 162 -393c-1 -203 -49 -324 -162 -407h-12z" />
    <glyph glyph-name="asterisk" unicode="*" horiz-adv-x="383" 
d="M241 734l-29 -123l-42 -5l-7 7l-4 116c23 8 50 13 78 13zM149 600l-6 -42l-10 -4l-106 32c-1 24 3 52 10 78l10 3zM227 601l105 40c13 -20 26 -45 36 -71l-6 -6l-120 -10l-19 38zM237 535l68 -92c-14 -21 -34 -39 -55 -56l-9 2l-45 119l30 28zM177 516l1 -11l-60 -96
c-24 7 -48 21 -72 35l1 9l92 82z" />
    <glyph glyph-name="plus" unicode="+" horiz-adv-x="480" 
d="M286 468v-163h162l9 -9l-7 -81h-164v-165l-81 -6l-10 8v163h-163l-9 9l7 81h165v166l81 7z" />
    <glyph glyph-name="comma" unicode="," horiz-adv-x="229" 
d="M143 132c30 -24 45 -51 45 -86c0 -59 -39 -115 -121 -173l-43 38l-1 10c37 31 55 63 55 98c0 23 -10 42 -32 60l1 11c30 18 61 32 96 42z" />
    <glyph glyph-name="hyphen" unicode="-" horiz-adv-x="304" 
d="M276 308v-82l-238 -37l-11 11v83l238 36z" />
    <glyph glyph-name="period" unicode="." horiz-adv-x="229" 
d="M117 135c42 0 66 -25 66 -68c0 -45 -27 -74 -71 -74s-68 25 -68 69s28 73 73 73z" />
    <glyph glyph-name="slash" unicode="/" horiz-adv-x="284" 
d="M306 668l-207 -783h-92l-8 11l206 784h90z" />
    <glyph glyph-name="zero" unicode="0" horiz-adv-x="521" 
d="M270 513c135 0 213 -91 213 -253c0 -171 -84 -269 -230 -269c-136 0 -214 92 -214 251c0 172 84 271 231 271zM260 390c-80 0 -118 -43 -118 -139c0 -97 38 -143 119 -143c80 0 119 44 119 137c0 99 -40 145 -120 145z" />
    <glyph glyph-name="one" unicode="1" horiz-adv-x="360" 
d="M261 497l-8 -289l7 -208h-135l6 194v166l-113 -30l-10 7v107l234 67z" />
    <glyph glyph-name="two" unicode="2" horiz-adv-x="471" 
d="M242 511c90 0 157 -45 157 -122c0 -53 -32 -114 -112 -200l-75 -83l2 -4h135l90 8l8 -9l-16 -107l-121 6h-227l-37 -2l-7 5v81l135 133c60 61 94 104 94 137c0 26 -20 44 -57 44c-43 0 -92 -23 -132 -59h-15l-22 103c64 43 132 69 200 69z" />
    <glyph glyph-name="three" unicode="3" horiz-adv-x="431" 
d="M204 513c104 0 174 -56 174 -137c0 -49 -25 -107 -95 -145v-5c73 -21 109 -65 109 -133c0 -112 -101 -188 -251 -188c-35 0 -75 4 -108 10l-7 103l9 9c39 -14 75 -21 111 -21c74 0 119 31 119 84c0 44 -31 69 -91 71h-70l-7 9l4 91l44 2c48 1 98 33 98 84
c0 37 -26 57 -68 57c-39 0 -76 -17 -118 -47h-14l-20 97c57 39 119 59 181 59z" />
    <glyph glyph-name="four" unicode="4" horiz-adv-x="503" 
d="M470 53l-83 2l5 -135l-7 -9l-104 -7l-7 8l3 144h-160l-87 -3l-9 12v84l245 357h122l-3 -348h83l8 -12zM135 158h144v197h-9z" />
    <glyph glyph-name="five" unicode="5" horiz-adv-x="432" 
d="M400 503l-14 -103l-10 -10l-91 10h-116l-3 -112l62 -13c119 -24 164 -76 164 -159c0 -127 -104 -213 -256 -213c-34 0 -76 5 -110 12l-7 104l9 9c43 -15 81 -23 119 -23c74 0 119 37 119 93c0 44 -28 70 -98 82l-96 17l-9 11l5 285l16 15l58 -2h146l104 5z" />
    <glyph glyph-name="six" unicode="6" horiz-adv-x="483" 
d="M284 361c106 0 166 -78 166 -174c0 -105 -72 -197 -212 -197c-133 0 -205 85 -205 225c0 163 107 300 291 381h7l91 -59v-13c-138 -52 -213 -104 -247 -182l8 -9c29 18 64 28 101 28zM244 77c54 0 86 33 86 94c0 63 -29 97 -85 97c-30 0 -61 -11 -91 -30v-21
c0 -91 22 -140 90 -140z" />
    <glyph glyph-name="seven" unicode="7" horiz-adv-x="432" 
d="M136 506h221l49 2v-98l-165 -360l-56 -150l-107 30l-8 21l209 444h-165l-91 -9l-8 11l9 112z" />
    <glyph glyph-name="eight" unicode="8" horiz-adv-x="493" 
d="M258 595c108 0 172 -56 172 -146c0 -63 -37 -104 -88 -137v-6c53 -26 105 -62 105 -140c0 -109 -86 -175 -214 -175c-124 0 -192 64 -192 151c0 74 48 115 110 143v6c-47 26 -91 65 -91 139c0 103 80 165 198 165zM249 503c-51 0 -80 -27 -80 -69c0 -48 42 -70 89 -89
c37 20 68 44 68 89c0 43 -29 69 -77 69zM235 250c-47 -17 -83 -39 -83 -91c0 -47 34 -79 92 -79c61 0 93 34 93 76c0 51 -49 72 -102 94z" />
    <glyph glyph-name="nine" unicode="9" horiz-adv-x="483" 
d="M245 516c133 0 205 -85 205 -225c0 -163 -107 -300 -291 -381h-7l-91 59v13c138 52 213 104 247 182l-8 9c-29 -18 -64 -28 -101 -28c-106 0 -166 78 -166 174c0 105 72 197 212 197zM238 238c30 0 61 11 91 30v21c0 91 -22 140 -90 140c-54 0 -86 -33 -86 -94
c0 -63 29 -97 85 -97z" />
    <glyph glyph-name="colon" unicode=":" horiz-adv-x="229" 
d="M112 398c42 0 67 -25 67 -68c0 -45 -28 -74 -72 -74c-43 0 -67 25 -67 69s28 73 72 73zM112 135c42 0 67 -25 67 -68c0 -45 -28 -74 -72 -74c-43 0 -67 25 -67 69s28 73 72 73z" />
    <glyph glyph-name="semicolon" unicode=";" horiz-adv-x="229" 
d="M112 398c42 0 67 -25 67 -68c0 -45 -28 -74 -72 -74c-43 0 -67 25 -67 69s28 73 72 73zM138 132c30 -24 45 -51 45 -86c0 -59 -39 -115 -121 -173l-43 38l-1 10c37 31 56 63 56 98c0 23 -11 42 -32 60v11c30 18 62 32 96 42z" />
    <glyph glyph-name="less" unicode="&#x3c;" horiz-adv-x="480" 
d="M445 395l-6 -10l-311 -118v-7l312 -114l-19 -74l-12 -9l-375 143v108l9 12l373 145z" />
    <glyph glyph-name="equal" unicode="=" horiz-adv-x="480" 
d="M457 390l-7 -81h-418l-9 9l7 81h418zM457 202l-7 -81h-418l-9 9l7 81h418z" />
    <glyph glyph-name="greater" unicode="&#x3e;" horiz-adv-x="480" 
d="M437 326l9 -12v-108l-375 -143l-12 9l-19 74l312 114v7l-311 118l-6 10l29 76z" />
    <glyph glyph-name="question" unicode="?" horiz-adv-x="340" 
d="M71 662l13 7c175 -10 274 -66 274 -162c0 -55 -32 -104 -91 -138l-72 -43l-2 -5l6 -85l-93 -12l-9 9l-10 120l5 10l90 46c36 19 56 45 56 77c0 52 -51 81 -182 89l-9 13zM158 135c42 0 66 -25 66 -68c0 -45 -27 -74 -71 -74s-68 25 -68 69s28 73 73 73z" />
    <glyph glyph-name="at" unicode="@" horiz-adv-x="844" 
d="M823 312c0 -198 -136 -309 -377 -313l22 157h-12c-35 -60 -74 -117 -119 -163h-18c-74 28 -101 81 -101 160c0 126 74 271 233 309h6l77 -20l72 22l10 -6l-47 -346l-1 -21c105 16 168 98 168 216c0 151 -108 249 -279 244c-205 -4 -340 -150 -340 -350
c0 -213 152 -336 380 -336l5 -13l-36 -62c-263 1 -438 145 -438 395c0 258 176 450 445 450c211 0 350 -124 350 -323zM352 110c20 0 78 72 141 222l2 15v4l-64 20c-67 0 -105 -74 -105 -176c0 -65 13 -85 26 -85z" />
    <glyph glyph-name="A" unicode="A" horiz-adv-x="600" 
d="M584 0h-138l-16 84l-17 60l-126 3l-111 -3l-17 -53l-17 -91h-134l218 644h161zM384 249l-76 268h-9l-88 -268l86 -2z" />
    <glyph glyph-name="B" unicode="B" horiz-adv-x="579" 
d="M418 334c89 -21 129 -71 129 -152c0 -127 -100 -187 -293 -187c-35 0 -122 2 -176 5l7 192l-7 452l229 1c130 0 209 -55 209 -161c0 -70 -35 -123 -98 -150zM377 466c0 59 -30 81 -117 81h-49l-3 -175l94 -3c50 13 75 42 75 97zM277 92c84 0 132 34 132 97
c0 49 -31 77 -92 88l-111 -2l-1 -71l3 -108c26 -3 52 -4 69 -4z" />
    <glyph glyph-name="C" unicode="C" horiz-adv-x="517" 
d="M336 652c64 0 121 -14 169 -39l-24 -113l-11 -5c-39 28 -89 45 -140 45c-104 0 -159 -67 -159 -209c0 -152 57 -226 163 -226c50 0 105 16 148 43l12 -7l-11 -115c-52 -24 -104 -35 -160 -35c-192 0 -295 116 -295 325c0 214 112 336 308 336z" />
    <glyph glyph-name="D" unicode="D" horiz-adv-x="655" 
d="M78 644l259 4c187 0 290 -107 290 -302c0 -228 -116 -353 -324 -353c-50 0 -159 3 -225 7l7 192zM327 98c100 0 159 65 159 217c0 158 -51 225 -159 225c-20 0 -77 -2 -113 -5l-6 -331l3 -99c40 -4 96 -7 116 -7z" />
    <glyph glyph-name="E" unicode="E" horiz-adv-x="509" 
d="M483 112l8 -11l-9 -101h-404l7 192l-7 452h408l8 -11l-10 -101l-154 5l-116 -1l-3 -155l111 -2l105 3l8 -10l-9 -101l-114 3l-103 -1l-1 -69l3 -97l113 -1z" />
    <glyph glyph-name="F" unicode="F" horiz-adv-x="456" 
d="M214 536l-3 -174l90 -1l109 3l9 -10l-10 -101l-119 3l-81 -1l-1 -51l6 -204h-136l7 192l-7 452h383l8 -11l-10 -102l-153 6z" />
    <glyph glyph-name="G" unicode="G" horiz-adv-x="598" 
d="M364 652c68 0 131 -12 189 -39l-29 -122l-13 -2c-64 37 -110 53 -170 53c-117 0 -171 -63 -171 -227c0 -159 49 -217 170 -217c27 0 48 3 85 14l2 55l-2 99l125 10l-3 -88l3 -157c-84 -28 -154 -40 -221 -40c-203 0 -301 116 -301 317c0 224 122 344 336 344z" />
    <glyph glyph-name="H" unicode="H" horiz-adv-x="696" 
d="M610 204l6 -204h-137l8 192l-1 75l-146 2l-131 -3l-1 -62l6 -204h-136l7 192l-7 452h138l-5 -265l138 -3l135 3l-5 265h139z" />
    <glyph glyph-name="I" unicode="I" horiz-adv-x="295" 
d="M208 204l6 -204h-136l7 192l-7 452h138z" />
    <glyph glyph-name="J" unicode="J" horiz-adv-x="335" 
d="M251 212l2 -91c0 -111 -50 -172 -197 -227l-41 72v12c81 42 113 77 113 145v76l-6 345l-106 -3l-10 10l7 93h245z" />
    <glyph glyph-name="K" unicode="K" horiz-adv-x="584" 
d="M574 644l-228 -304c76 -106 160 -212 247 -312l-2 -15c-45 -11 -88 -18 -133 -23l-16 8c-80 108 -159 218 -232 333l-2 -127l5 -204h-136l8 192l-8 452h138l-5 -299l180 237l37 62h147z" />
    <glyph glyph-name="L" unicode="L" horiz-adv-x="433" 
d="M431 101l-9 -101h-348l7 192l-7 452h138l-8 -440l3 -92h216z" />
    <glyph glyph-name="M" unicode="M" horiz-adv-x="797" 
d="M749 0h-120l-10 195l-23 248h-10l-144 -375h-105l-131 375h-9l-25 -235l-14 -208h-114l65 644h156l26 -95l102 -305h9l107 305l29 95h153z" />
    <glyph glyph-name="N" unicode="N" horiz-adv-x="695" 
d="M610 199l5 -199h-146l-262 436h-9l-1 -214l5 -222h-124l7 190l-6 454h146l262 -436h9l-4 430l126 8z" />
    <glyph glyph-name="O" unicode="O" horiz-adv-x="643" 
d="M333 653c181 0 283 -115 283 -317c0 -221 -111 -346 -305 -346c-181 0 -283 118 -283 324c0 217 110 339 305 339zM321 543c-106 0 -152 -61 -152 -211c0 -172 45 -237 153 -237c106 0 152 61 152 214c0 170 -45 234 -153 234z" />
    <glyph glyph-name="P" unicode="P" horiz-adv-x="553" 
d="M78 644l247 1c134 0 210 -70 210 -197c0 -147 -102 -242 -263 -242h-64v-2l6 -204h-136l7 192zM210 309l92 -4c60 17 92 59 92 131c0 73 -37 106 -112 109l-68 -4z" />
    <glyph glyph-name="Q" unicode="Q" horiz-adv-x="649" 
d="M731 -96l5 -14c-18 -36 -36 -62 -63 -87l-11 -4c-119 44 -232 108 -329 191h-21c-182 0 -284 118 -284 324c0 217 110 339 305 339c181 0 283 -114 283 -319c0 -156 -58 -266 -162 -315c85 -52 177 -91 277 -115zM169 329c0 -169 46 -234 154 -234c103 0 151 62 151 216
c0 168 -46 232 -154 232c-106 0 -151 -61 -151 -214z" />
    <glyph glyph-name="R" unicode="R" horiz-adv-x="590" 
d="M416 256c48 -76 99 -151 155 -224l-2 -15c-43 -15 -87 -24 -133 -27l-14 11c-41 71 -81 143 -117 216h-97v-13l6 -204h-136l7 192l-7 452l247 1c134 0 211 -68 211 -191c0 -83 -44 -154 -120 -198zM210 322l99 -4c56 19 85 59 85 123c0 69 -37 101 -112 104l-68 -4z" />
    <glyph glyph-name="S" unicode="S" horiz-adv-x="498" 
d="M285 652c45 0 102 -8 163 -33l-22 -117l-20 -8c-46 33 -98 52 -137 52c-56 0 -88 -36 -88 -71c0 -104 283 -96 283 -285c0 -110 -95 -199 -242 -199c-61 0 -128 14 -191 41l19 126l15 8c56 -49 126 -72 172 -72c62 0 93 36 93 73c0 110 -282 96 -282 286
c0 113 96 199 237 199z" />
    <glyph glyph-name="T" unicode="T" horiz-adv-x="503" 
d="M489 633l-8 -101l-121 6h-40l-5 -334l6 -204h-136l7 192l-5 346h-40l-123 -6l-9 11l9 101h457z" />
    <glyph glyph-name="U" unicode="U" horiz-adv-x="638" 
d="M573 317l-1 -85c2 -154 -93 -241 -262 -241c-162 0 -251 84 -247 236l1 93l-3 324h136l-7 -399c-1 -97 41 -143 128 -143s130 44 129 136l-7 406h138z" />
    <glyph glyph-name="V" unicode="V" horiz-adv-x="587" 
d="M369 0h-162l-197 644h138l16 -85l122 -433h9l140 426l17 92h134z" />
    <glyph glyph-name="W" unicode="W" horiz-adv-x="903" 
d="M686 0h-142l-96 308h-9l-97 -308h-143l-180 644h133l10 -79l114 -425h9l109 347l-46 157h138l15 -93l116 -411h9l130 416l16 88h126z" />
    <glyph glyph-name="X" unicode="X" horiz-adv-x="610" 
d="M390 337l208 -337h-163l-30 64l-107 167l-116 -174l-29 -57h-140l206 318l-204 326h163l30 -65l101 -157l104 162l28 60h143z" />
    <glyph glyph-name="Y" unicode="Y" horiz-adv-x="558" 
d="M333 179l6 -179h-136l8 179l-2 38l-205 427h144l14 -45l109 -245h10l121 241l19 49h140l-226 -425z" />
    <glyph glyph-name="Z" unicode="Z" horiz-adv-x="547" 
d="M510 546l-320 -443h216l109 9l5 -8l-11 -107l-145 3h-257l-77 -4v97l323 447h-204l-109 -9l-6 7l10 107l404 -1l62 1v-99z" />
    <glyph glyph-name="bracketleft" unicode="[" horiz-adv-x="295" 
d="M295 641v-60l-107 -14v-613l107 -13v-61l-6 -6l-209 10l7 377l-7 377l209 10z" />
    <glyph glyph-name="backslash" unicode="\" horiz-adv-x="284" 
d="M90 680l207 -784l-9 -11h-92l-206 783l11 12h89z" />
    <glyph glyph-name="bracketright" unicode="]" horiz-adv-x="295" 
d="M-1 -119v60l107 13v614l-107 13v60l6 7l210 -10l-7 -377l7 -377l-210 -10z" />
    <glyph glyph-name="asciicircum" unicode="^" horiz-adv-x="441" 
d="M425 146l-9 -11l-75 -18l-113 286h-7l-118 -286l-11 -5l-75 28l144 349l13 7h107z" />
    <glyph glyph-name="underscore" unicode="_" horiz-adv-x="444" 
d="M459 -98l-7 -75h-458l-9 10l7 74h459z" />
    <glyph glyph-name="grave" unicode="`" 
d="M122 723l12 1c60 -55 117 -102 181 -153l-32 -50l-12 -1c-64 37 -126 75 -195 118l-2 13z" />
    <glyph glyph-name="a" unicode="a" horiz-adv-x="481" 
d="M244 474c102 0 164 -48 164 -131c0 -34 -11 -190 -11 -222c0 -22 6 -30 23 -30c7 0 14 1 26 4l10 -8l-12 -70c-20 -13 -43 -22 -73 -25c-40 4 -68 29 -77 73h-7c-31 -33 -65 -59 -103 -74c-96 1 -154 54 -154 139c0 67 35 104 103 117l153 29v41c0 44 -21 65 -64 65
c-42 0 -86 -18 -143 -58l-10 6l-15 88c58 37 126 56 190 56zM285 209l-106 -23c-21 -5 -31 -16 -31 -42c0 -35 20 -55 53 -55c28 0 55 17 82 46z" />
    <glyph glyph-name="b" unicode="b" horiz-adv-x="522" 
d="M311 471c118 0 182 -85 182 -225c0 -166 -89 -256 -230 -256c-37 0 -75 9 -112 23l-71 -25l-16 13l8 190l-7 501l133 10l-4 -303h5c38 35 69 56 112 72zM262 77c65 0 107 44 106 150c-1 88 -31 137 -89 137c-28 0 -55 -13 -86 -42l-2 -114l2 -113c25 -12 48 -18 69 -18z
" />
    <glyph glyph-name="c" unicode="c" horiz-adv-x="385" 
d="M252 474c43 0 89 -9 123 -25l-22 -106l-11 -5c-31 17 -61 28 -91 28c-61 0 -96 -45 -96 -127c0 -93 37 -144 104 -144c31 0 65 9 100 25l10 -8l-13 -103c-38 -12 -82 -19 -123 -19c-128 0 -204 88 -204 237c0 154 83 247 223 247z" />
    <glyph glyph-name="d" unicode="d" horiz-adv-x="525" 
d="M448 205l2 -84c1 -22 6 -30 22 -30c7 0 14 1 27 4l9 -8l-12 -70c-20 -13 -43 -22 -73 -25c-41 4 -70 29 -81 70h-8c-34 -31 -62 -51 -100 -69c-133 0 -206 89 -206 236c0 159 90 244 234 244c19 0 41 -2 64 -6l-2 225l132 10zM253 383c-64 0 -102 -40 -101 -134
c2 -102 35 -152 95 -152c27 0 52 10 81 41l2 55l-3 172c-26 12 -50 18 -74 18z" />
    <glyph glyph-name="e" unicode="e" horiz-adv-x="471" 
d="M417 216l-265 -1c5 -82 43 -126 124 -126c39 0 88 12 134 36l11 -7l-18 -98c-42 -18 -92 -30 -140 -30c-148 0 -234 91 -234 240c0 152 90 243 230 243c117 0 181 -69 181 -183c0 -17 -2 -41 -4 -55zM323 293l2 12c0 55 -27 81 -71 81c-52 0 -87 -35 -99 -98z" />
    <glyph glyph-name="f" unicode="f" horiz-adv-x="329" 
d="M303 704c28 0 56 -3 87 -9l-9 -99l-9 -6c-35 15 -59 20 -82 20c-39 0 -62 -21 -63 -71l-1 -78h113l4 -7l-6 -73h-113l-3 -176l7 -205h-133l8 193l-2 188h-70l-5 7l7 73h67l-1 55c0 121 75 188 204 188z" />
    <glyph glyph-name="g" unicode="g" horiz-adv-x="500" 
d="M508 485v-83c-26 -7 -51 -11 -77 -15l-2 -4c10 -20 15 -42 15 -67c0 -100 -77 -164 -202 -164c-21 0 -40 2 -58 5c-11 -11 -15 -17 -15 -26c0 -67 295 1 295 -162c0 -95 -95 -164 -229 -164c-124 0 -189 56 -189 135c22 31 50 55 83 75v5c-42 15 -72 40 -72 91
c19 23 42 43 68 61v5c-47 26 -73 70 -73 129c0 104 78 166 201 166c38 0 71 -7 98 -18c50 9 100 23 147 40zM246 232c54 0 83 28 83 82c0 51 -25 76 -78 76c-56 0 -84 -26 -84 -77c0 -53 27 -81 79 -81zM352 -55c0 47 -76 48 -150 59c-31 -21 -48 -40 -48 -63
c0 -34 31 -58 94 -58c61 0 104 22 104 62z" />
    <glyph glyph-name="h" unicode="h" horiz-adv-x="531" 
d="M343 0l8 290c1 47 -21 74 -63 74c-31 0 -63 -15 -95 -42l-2 -117l7 -205h-133l7 193l-6 499l133 10l-5 -303h6c37 34 78 58 120 72c102 0 156 -48 154 -134l-3 -133l6 -204h-134z" />
    <glyph glyph-name="i" unicode="i" horiz-adv-x="254" 
d="M132 693c42 0 66 -25 66 -68c0 -45 -27 -74 -71 -74s-68 25 -68 69s28 73 73 73zM186 205l7 -205h-133l7 192l-6 264l133 11z" />
    <glyph glyph-name="j" unicode="j" horiz-adv-x="285" 
d="M143 693c42 0 66 -25 66 -68c0 -45 -27 -74 -71 -74s-68 25 -68 69s28 73 73 73zM220 465l-8 -260l6 -178c0 -106 -48 -170 -163 -222l-47 59v12c61 34 84 75 84 147l1 169l-4 189h-80l-8 8l6 72h85l124 7z" />
    <glyph glyph-name="k" unicode="k" horiz-adv-x="495" 
d="M191 205l7 -205h-133l7 193l-6 499l133 10zM478 465l-152 -210c50 -79 106 -156 162 -233v-14c-42 -9 -82 -13 -124 -18l-14 6c-56 80 -108 162 -152 247v9l116 165l24 48h140z" />
    <glyph glyph-name="l" unicode="l" horiz-adv-x="263" 
d="M191 205l7 -205h-133l7 193l-6 499l133 10z" />
    <glyph glyph-name="m" unicode="m" horiz-adv-x="804" 
d="M617 0l7 290c1 48 -20 74 -62 74c-32 0 -63 -15 -95 -41l-2 -119l5 -204h-132l8 290c0 48 -21 74 -64 74c-31 0 -63 -15 -96 -42v-117l6 -205h-132l7 192l-6 264l126 11v-68h6c38 34 78 58 121 72c76 0 124 -26 144 -75h5c40 36 85 61 130 75c102 0 155 -48 154 -134
l-3 -133l5 -204h-132z" />
    <glyph glyph-name="n" unicode="n" horiz-adv-x="527" 
d="M338 0l8 290c0 47 -21 74 -63 74c-32 0 -63 -15 -96 -43v-116l6 -205h-133l7 192l-6 264l127 11v-68h6c38 34 78 58 121 72c102 0 155 -48 154 -134l-3 -133l5 -204h-133z" />
    <glyph glyph-name="o" unicode="o" horiz-adv-x="494" 
d="M254 474c136 0 210 -82 210 -233c0 -162 -79 -251 -225 -251c-136 0 -210 83 -210 233c0 162 79 251 225 251zM245 384c-64 0 -91 -40 -91 -135c0 -124 28 -170 94 -170c63 0 91 38 91 135c0 122 -29 170 -94 170z" />
    <glyph glyph-name="p" unicode="p" horiz-adv-x="515" 
d="M305 471c119 0 182 -85 182 -226c0 -165 -88 -255 -232 -255c-22 0 -44 2 -67 6l3 -181h-131l6 377l-6 264l127 11l-1 -68h7c38 36 70 56 112 72zM256 77c65 0 107 44 106 150c-1 88 -30 137 -89 137c-29 0 -55 -13 -87 -43l-1 -116l2 -113c24 -10 48 -15 69 -15z" />
    <glyph glyph-name="q" unicode="q" horiz-adv-x="515" 
d="M445 473l11 -6l-8 -262l7 -390h-132l6 210v25h-8c-29 -25 -54 -41 -90 -57c-131 0 -203 90 -203 234c0 162 92 246 228 246c44 0 81 -9 120 -22zM252 383c-64 0 -101 -41 -100 -139c2 -96 35 -147 93 -147c27 0 53 10 84 41l1 53l-3 171c-27 14 -50 21 -75 21z" />
    <glyph glyph-name="r" unicode="r" horiz-adv-x="346" 
d="M317 466c7 0 16 -1 24 -2v-123l-13 -5c-13 5 -26 7 -37 7c-36 0 -72 -22 -105 -74v-64l7 -205h-133l7 192l-6 264l127 11l-1 -91h7c35 64 79 90 123 90z" />
    <glyph glyph-name="s" unicode="s" horiz-adv-x="384" 
d="M217 473c44 0 89 -8 128 -23l-18 -98l-16 -5c-40 26 -80 39 -109 39c-34 0 -52 -21 -52 -43c0 -74 206 -56 206 -201c0 -77 -58 -152 -186 -152c-45 0 -98 10 -149 30l15 104l13 8c43 -36 99 -57 136 -57s57 22 57 46c0 74 -207 56 -207 204c0 84 67 148 182 148z" />
    <glyph glyph-name="t" unicode="t" horiz-adv-x="338" 
d="M249 98c20 0 42 5 67 17l11 -10l-13 -79c-33 -17 -68 -28 -104 -32c-90 9 -135 53 -135 132l5 83l-1 172h-62l-5 7l7 73h59v77l121 39l9 -8l-3 -108h119l4 -7l-6 -73h-119l-6 -224c0 -44 16 -59 52 -59z" />
    <glyph glyph-name="u" unicode="u" horiz-adv-x="522" 
d="M455 467l-8 -346c0 -22 6 -30 23 -30c7 0 14 1 26 4l10 -8l-12 -70c-20 -13 -44 -22 -73 -25c-41 4 -69 31 -80 75h-10c-38 -37 -76 -61 -117 -73c-101 0 -155 48 -155 134l3 118l-5 210l129 11l-4 -295c0 -46 19 -71 60 -71c30 0 58 14 87 39v316z" />
    <glyph glyph-name="v" unicode="v" horiz-adv-x="444" 
d="M150 391l70 -266h7l84 259l17 81h116l-156 -465h-143l-132 462l124 6z" />
    <glyph glyph-name="w" unicode="w" horiz-adv-x="698" 
d="M145 395l57 -261h8l70 254l16 77h129l10 -70l59 -260h8l68 253l16 77h112l-145 -465h-125l-71 299h-9l-83 -299h-131l-121 462l121 6z" />
    <glyph glyph-name="x" unicode="x" horiz-adv-x="461" 
d="M176 413l64 -104l63 108l25 47h117l-134 -228l140 -232l-140 -10l-23 59l-66 107l-69 -113l-22 -47h-117l135 233l-136 228l142 7z" />
    <glyph glyph-name="y" unicode="y" horiz-adv-x="447" 
d="M142 394l83 -259h8l81 247l17 83h115l-151 -433c-44 -126 -110 -186 -246 -224l-10 1c-26 24 -45 51 -60 80l5 14c82 14 138 43 185 97l-170 462l128 6z" />
    <glyph glyph-name="z" unicode="z" horiz-adv-x="424" 
d="M138 465h202l51 1l1 -79l-225 -302h141l85 8l7 -9l-9 -86l-116 2h-184l-64 -3v78l227 304h-134l-83 -7l-8 9l10 86z" />
    <glyph glyph-name="braceleft" unicode="{" horiz-adv-x="295" 
d="M220 657c23 0 44 -4 64 -9l6 -10l-11 -68c-13 3 -23 5 -36 5c-36 0 -54 -21 -54 -61c0 -42 23 -99 23 -140c0 -46 -23 -82 -68 -103v-5c45 -20 68 -58 68 -101c0 -44 -23 -98 -23 -141c0 -42 18 -62 54 -62c13 0 23 2 36 5l11 -67l-6 -10c-20 -6 -41 -9 -64 -9
c-89 0 -136 42 -136 118c0 58 21 118 21 159s-22 67 -69 79v63c47 12 69 39 69 79c0 41 -21 102 -21 160c0 76 47 118 136 118z" />
    <glyph glyph-name="bar" unicode="|" horiz-adv-x="307" 
d="M206 794l-3 -503v-543l-90 -7l-11 12l1 528l1 515l92 7z" />
    <glyph glyph-name="braceright" unicode="}" horiz-adv-x="295" 
d="M75 -119c-24 0 -44 3 -65 9l-5 10l11 67c13 -3 23 -5 35 -5c36 0 55 21 55 62c0 42 -23 98 -23 139c0 46 23 83 68 103v5c-45 21 -68 58 -68 102s23 98 23 141c0 41 -19 62 -55 62c-12 0 -22 -2 -35 -5l-11 67l5 10c21 6 41 9 65 9c88 0 135 -42 135 -118
c0 -58 -21 -118 -21 -160c0 -40 23 -67 69 -79v-62c-46 -13 -69 -39 -69 -79c0 -42 21 -102 21 -160c0 -76 -47 -118 -135 -118z" />
    <glyph glyph-name="asciitilde" unicode="~" horiz-adv-x="480" 
d="M150 236c-22 0 -44 -26 -72 -56h-13l-35 44v12l82 93l12 5c55 -9 175 -53 208 -53c21 0 42 26 72 56h12l35 -43v-12l-82 -93l-12 -5c-55 8 -175 52 -207 52z" />
    <glyph glyph-name="nbspace" unicode="&#xa0;" horiz-adv-x="151" 
 />
    <glyph glyph-name="exclamdown" unicode="&#xa1;" horiz-adv-x="264" 
d="M146 334c-42 0 -66 25 -66 68c0 45 27 74 71 74s68 -25 68 -69s-28 -73 -73 -73zM61 -181l36 413l76 10l13 -13l8 -404l-12 -15l-105 -7z" />
    <glyph glyph-name="cent" unicode="&#xa2;" horiz-adv-x="383" 
d="M259 134c31 0 65 9 100 25l10 -8l-13 -103c-26 -8 -55 -14 -83 -17l-10 -155h-86l-10 11l9 149c-93 23 -147 105 -147 230c0 136 65 225 177 243l9 148h83l14 -12l-9 -136c26 -4 51 -11 72 -21l-22 -106l-11 -5c-31 17 -61 28 -91 28c-61 0 -96 -45 -96 -127
c0 -93 37 -144 104 -144z" />
    <glyph glyph-name="sterling" unicode="&#xa3;" horiz-adv-x="446" 
d="M420 90l-9 -93l-126 3h-262l-5 7l6 72c50 12 73 43 73 100l-1 93h-73l-5 7l7 64h71l-1 70c-1 118 74 182 202 182c37 0 74 -5 115 -16l-8 -95l-8 -6c-44 23 -79 32 -109 32c-50 0 -77 -24 -77 -77l-1 -90h128l4 -6l-5 -65h-127l-1 -85c0 -46 -11 -72 -38 -93v-4h144
l101 7z" />
    <glyph glyph-name="currency" unicode="&#xa4;" horiz-adv-x="435" 
d="M426 501v-12l-69 -62c14 -23 22 -50 22 -78c0 -26 -8 -50 -20 -72l70 -59l1 -12l-57 -61l-12 1l-61 69c-23 -15 -50 -24 -78 -24c-26 0 -52 8 -73 21l-59 -69l-12 -1l-61 57l1 13l68 60c-14 22 -22 49 -22 77c0 27 8 52 21 74l-69 59l-2 12l57 60h12l63 -69
c22 14 48 21 76 21c25 0 50 -7 71 -19l60 69l13 2zM222 435c-51 0 -86 -36 -86 -86s35 -85 86 -85c50 0 86 35 86 85s-36 86 -86 86z" />
    <glyph glyph-name="yen" unicode="&#xa5;" horiz-adv-x="526" 
d="M363 247l-43 -75h180l6 -6l-5 -55h-187l4 -111h-114l5 111h-176l-5 7l4 54h171l-39 75h-131l-5 8l4 53h100l-102 196h120l12 -36l99 -186h8l108 182l17 40h117l-113 -196h102l6 -5l-5 -56h-138z" />
    <glyph glyph-name="brokenbar" unicode="&#xa6;" horiz-adv-x="307" 
d="M206 794l-3 -417l-91 -11l-9 8v422l93 7zM203 148v-400l-90 -7l-11 12l1 397l89 10z" />
    <glyph glyph-name="section" unicode="&#xa7;" horiz-adv-x="431" 
d="M313 152c30 -24 52 -55 52 -98c0 -82 -78 -152 -189 -152c-43 0 -106 11 -151 29l17 105l12 8c44 -37 95 -59 136 -59s62 24 62 46c0 70 -222 83 -222 228c0 57 36 112 93 143c-30 24 -51 54 -51 97c0 83 79 153 188 153c38 0 87 -8 125 -23l-16 -101l-16 -5
c-42 28 -83 43 -111 43c-36 0 -58 -24 -58 -46c0 -68 223 -82 223 -226c0 -57 -36 -111 -94 -142zM142 290c0 -41 48 -66 100 -93c37 18 52 41 52 65c0 43 -48 67 -100 95c-35 -18 -52 -42 -52 -67z" />
    <glyph glyph-name="dieresis" unicode="&#xa8;" 
d="M111 683c39 0 61 -23 61 -62c0 -42 -25 -68 -66 -68c-39 0 -61 23 -61 63c0 41 25 67 66 67zM284 683c39 0 61 -23 61 -62c0 -42 -25 -68 -66 -68c-39 0 -61 23 -61 63c0 41 25 67 66 67z" />
    <glyph glyph-name="copyright" unicode="&#xa9;" horiz-adv-x="687" 
d="M343 598c180 0 300 -122 300 -305s-120 -305 -300 -305s-300 122 -300 305s120 305 300 305zM343 552c-151 0 -253 -104 -253 -259s102 -259 253 -259s253 104 253 259s-102 259 -253 259zM365 465c32 0 62 -7 89 -17l-16 -70l-6 -4c-20 11 -48 18 -70 18
c-52 0 -77 -27 -77 -90c0 -68 26 -102 81 -102c22 0 51 6 72 15l8 -4l-7 -70c-26 -10 -55 -14 -80 -14c-111 0 -167 59 -167 166c0 109 62 172 173 172z" />
    <glyph glyph-name="ordfeminine" unicode="&#xaa;" horiz-adv-x="340" 
d="M176 652c75 0 117 -34 117 -92c0 -21 -6 -123 -6 -139c0 -15 4 -22 13 -22c5 0 10 0 16 4l7 -6l-10 -55c-16 -12 -31 -17 -50 -17c-35 0 -49 13 -58 48h-4c-21 -24 -46 -41 -72 -49c-64 1 -104 38 -104 98c0 45 24 73 73 81l99 16l1 21c0 28 -12 40 -40 40
c-26 0 -56 -11 -96 -34l-7 3l-12 67c40 22 88 36 133 36zM197 471l-54 -10c-16 -3 -25 -12 -25 -30c0 -22 12 -36 33 -36c14 0 31 9 45 24z" />
    <glyph glyph-name="guillemetleft" unicode="&#xab;" horiz-adv-x="429" 
d="M18 215v22l136 178l63 -33l2 -13l-104 -141l104 -140l-2 -13l-63 -34zM203 215v22l136 178l63 -33l2 -13l-104 -141l104 -140l-2 -13l-63 -34z" />
    <glyph glyph-name="logicalnot" unicode="&#xac;" horiz-adv-x="480" 
d="M432 297v-247l-81 -6l-10 8v163h-310l-9 9l7 81h397z" />
    <glyph glyph-name="softhyphen" unicode="&#xad;" horiz-adv-x="304" 
d="M276 308v-82l-238 -37l-11 11v83l238 36z" />
    <glyph glyph-name="registered" unicode="&#xae;" horiz-adv-x="446" 
d="M223 702c112 0 186 -74 186 -185c0 -113 -74 -187 -186 -187s-186 74 -186 187c0 111 74 185 186 185zM224 363c91 0 152 61 152 154c0 91 -61 152 -152 152c-92 0 -153 -61 -153 -152c0 -93 61 -154 153 -154zM305 560c0 -23 -14 -44 -37 -58c15 -23 32 -45 49 -66
l-1 -5c-14 -6 -31 -8 -47 -9l-6 4c-13 20 -25 41 -35 62h-31l2 -63h-48l1 57l-1 138l85 1c44 0 69 -22 69 -61zM198 526l31 -2c17 7 25 15 25 32c0 19 -11 28 -35 29l-20 -1z" />
    <glyph glyph-name="macron" unicode="&#xaf;" 
d="M342 651l-6 -74h-280l-9 9l7 74h280z" />
    <glyph glyph-name="degree" unicode="&#xb0;" horiz-adv-x="293" 
d="M147 653c72 0 129 -57 129 -130c0 -72 -57 -129 -129 -129c-73 0 -131 57 -131 129c0 73 58 130 131 130zM146 595c-41 0 -72 -31 -72 -72c0 -40 31 -71 72 -71s72 31 72 71c0 41 -31 72 -72 72z" />
    <glyph glyph-name="plusminus" unicode="&#xb1;" horiz-adv-x="480" 
d="M285 468v-163h162l9 -9l-6 -81h-165v-165l-81 -6l-9 8v163h-163l-9 9l7 81h165v166l81 7zM457 -35l-7 -81h-418l-9 9l7 81h418z" />
    <glyph glyph-name="twosuperior" unicode="&#xb2;" horiz-adv-x="361" 
d="M184 705c67 0 120 -33 120 -94c0 -39 -24 -81 -81 -149l-51 -64l2 -2h91l67 4l5 -7l-11 -82l-94 4h-167l-26 -1l-6 3v62l94 102c42 48 70 79 70 106c0 18 -13 33 -40 33c-28 0 -65 -18 -94 -46h-12l-18 79c49 33 100 52 151 52z" />
    <glyph glyph-name="threesuperior" unicode="&#xb3;" horiz-adv-x="321" 
d="M151 706c76 0 126 -37 126 -93c0 -30 -15 -67 -61 -91v-4c48 -14 72 -44 72 -90c0 -71 -71 -119 -178 -119c-24 0 -53 3 -76 8l-7 74l8 7c28 -8 53 -11 77 -11c47 0 73 16 73 44c0 24 -17 38 -50 38h-52l-5 7l1 69l31 1c31 1 59 19 59 47c0 21 -14 31 -42 31
c-24 0 -48 -9 -78 -25h-11l-16 70c39 24 85 37 129 37z" />
    <glyph glyph-name="acute" unicode="&#xb4;" 
d="M268 723l48 -72l-2 -13c-70 -43 -131 -81 -195 -118l-13 1l-32 50c64 51 122 98 181 153z" />
    <glyph glyph-name="micro" unicode="&#xb5;" horiz-adv-x="522" 
d="M505 88l-14 -71c-20 -15 -45 -24 -71 -24c-45 0 -70 20 -86 69h-7c-34 -34 -67 -57 -108 -68c-13 0 -25 1 -36 3v-182h-126l5 377l-5 264l126 11v-311c5 -36 25 -55 61 -55c30 0 57 14 85 39v316l126 11l-8 -342c0 -26 7 -37 23 -37c7 0 16 3 26 7z" />
    <glyph glyph-name="paragraph" unicode="&#xb6;" horiz-adv-x="522" 
d="M504 633l-9 -92h-67l-5 -344l1 -61c0 -100 -48 -164 -192 -221l-36 60v13c73 40 103 81 103 142v51l-5 361h-45c-53 -8 -82 -49 -82 -115c0 -63 33 -115 94 -146l-46 -70c-121 28 -190 105 -190 221c0 135 88 212 244 212h226z" />
    <glyph glyph-name="periodcentered" unicode="&#xb7;" horiz-adv-x="229" 
d="M117 323c42 0 66 -25 66 -68c0 -45 -27 -74 -71 -74s-68 25 -68 69c0 45 28 73 73 73z" />
    <glyph glyph-name="cedilla" unicode="&#xb8;" 
d="M210 -48l34 -19c31 -17 41 -36 41 -59c0 -44 -37 -75 -94 -75c-35 0 -61 12 -82 28l9 56l6 3c19 -19 39 -30 59 -30c15 0 24 7 24 21c0 10 -7 15 -17 20l-49 28l23 101h64z" />
    <glyph glyph-name="onesuperior" unicode="&#xb9;" horiz-adv-x="276" 
d="M201 695l-5 -242l4 -138h-108l4 126v149l-79 -18l-7 5v83l176 46z" />
    <glyph glyph-name="ordmasculine" unicode="&#xba;" horiz-adv-x="347" 
d="M179 652c95 0 145 -55 145 -159c0 -111 -54 -170 -156 -170c-95 0 -145 55 -145 159c0 111 54 170 156 170zM173 581c-37 0 -52 -24 -52 -88c0 -75 15 -101 54 -101c38 0 53 23 53 89c0 74 -16 100 -55 100z" />
    <glyph glyph-name="guillemetright" unicode="&#xbb;" horiz-adv-x="426" 
d="M221 243v-22l-136 -178l-63 33l-2 13l104 141l-104 140l2 13l63 34zM405 243v-22l-136 -178l-62 33l-3 13l104 141l-104 140l3 13l62 34z" />
    <glyph glyph-name="onequarter" unicode="&#xbc;" horiz-adv-x="747" 
d="M594 634l-466 -726l-57 34l-6 14l468 730l54 -33zM96 534l-79 -18l-7 5v83l176 46l15 -11l-5 -242l4 -138h-108l4 126v149zM715 84l-53 2l5 -79l-6 -7l-83 -4l-6 5l2 86h-101l-66 -3l-7 9v65l165 228h98l-3 -221h54l6 -9zM492 165h84l-1 108h-6z" />
    <glyph glyph-name="onehalf" unicode="&#xbd;" horiz-adv-x="773" 
d="M587 653l7 -19l-466 -726l-57 34l-6 14l468 730zM201 639l-5 -242l4 -138h-108l4 126v149l-79 -18l-7 5v83l176 46zM596 390c67 0 120 -33 120 -94c0 -39 -24 -81 -81 -149l-51 -64l2 -2h91l67 4l5 -7l-11 -82l-94 4h-167l-26 -1l-6 3v62l94 102c42 48 70 79 70 106
c0 18 -13 33 -40 33c-28 0 -65 -18 -94 -46h-12l-18 79c49 33 100 52 151 52z" />
    <glyph glyph-name="threequarters" unicode="&#xbe;" horiz-adv-x="785" 
d="M632 634l-466 -726l-57 34l-6 14l468 730l54 -33zM288 372c0 -71 -71 -119 -178 -119c-24 0 -53 3 -76 8l-7 74l8 7c28 -8 53 -11 77 -11c47 0 73 16 73 44c0 24 -17 38 -50 38h-52l-5 7l1 69l31 1c31 1 59 19 59 47c0 21 -14 31 -42 31c-24 0 -48 -9 -78 -25h-11l-16 70
c39 24 85 37 129 37c76 0 126 -37 126 -93c0 -30 -15 -67 -61 -91v-4c48 -14 72 -44 72 -90zM753 84l-53 2l5 -79l-6 -7l-83 -4l-6 5l2 86h-101l-66 -3l-7 9v65l165 228h98l-3 -221h54l6 -9zM530 165h84l-1 108h-6z" />
    <glyph glyph-name="questiondown" unicode="&#xbf;" horiz-adv-x="340" 
d="M187 334c-42 0 -66 25 -66 68c0 45 27 74 71 74s68 -25 68 -69s-28 -73 -73 -73zM274 -193l-13 -7c-175 10 -274 66 -274 162c0 55 32 104 91 138l72 43l2 5l-6 85l93 12l9 -9l10 -120l-5 -10l-90 -46c-36 -19 -56 -45 -56 -77c0 -52 51 -81 182 -89l9 -13z" />
    <glyph glyph-name="Agrave" unicode="&#xc0;" horiz-adv-x="600" 
d="M409 722l-13 -4c-70 24 -138 48 -215 78l-4 12l34 79l12 3c69 -41 135 -76 208 -113zM584 0h-138l-16 84l-17 60l-126 3l-111 -3l-17 -53l-17 -91h-134l217 644h162zM384 249l-76 268h-9l-88 -268l85 -2z" />
    <glyph glyph-name="Aacute" unicode="&#xc1;" horiz-adv-x="600" 
d="M218 721l-22 55c73 37 139 72 208 113l12 -3l34 -79l-4 -12c-77 -30 -145 -54 -215 -78zM584 0h-138l-16 84l-17 60l-126 3l-111 -3l-17 -53l-17 -91h-134l217 644h162zM384 249l-76 268h-9l-88 -268l85 -2z" />
    <glyph glyph-name="Acircumflex" unicode="&#xc2;" horiz-adv-x="600" 
d="M179 728l-25 53c50 33 94 68 134 104h27c41 -36 86 -71 134 -104l-24 -53h-13c-37 21 -74 41 -110 63c-36 -22 -73 -42 -110 -63h-13zM584 0h-138l-16 84l-17 60l-126 3l-111 -3l-17 -53l-17 -91h-134l217 644h162zM384 249l-76 268h-9l-88 -268l85 -2z" />
    <glyph glyph-name="Atilde" unicode="&#xc3;" horiz-adv-x="600" 
d="M165 720l-40 39v11l71 89l12 5c47 -6 129 -35 154 -35c21 0 39 24 63 51h12l39 -39v-11l-70 -89l-13 -5c-46 6 -128 35 -154 35c-20 0 -38 -25 -62 -51h-12zM584 0h-138l-16 84l-17 60l-126 3l-111 -3l-17 -53l-17 -91h-134l217 644h162zM384 249l-76 268h-9l-88 -268
l85 -2z" />
    <glyph glyph-name="Adieresis" unicode="&#xc4;" horiz-adv-x="600" 
d="M213 732c-39 0 -61 23 -61 63c0 41 25 67 66 67c39 0 61 -23 61 -62c0 -42 -25 -68 -66 -68zM387 732c-39 0 -61 23 -61 63c0 41 25 67 66 67c39 0 61 -23 61 -62c0 -42 -25 -68 -66 -68zM584 0h-138l-16 84l-17 60l-126 3l-111 -3l-17 -53l-17 -91h-134l217 644h162z
M384 249l-76 268h-9l-88 -268l85 -2z" />
    <glyph glyph-name="Aring" unicode="&#xc5;" horiz-adv-x="600" 
d="M298 714c-57 0 -93 32 -93 94c0 60 35 95 98 95c62 0 94 -35 94 -91c0 -63 -39 -98 -99 -98zM300 846c-27 0 -40 -12 -40 -37c0 -27 15 -40 41 -40s41 12 41 38c0 25 -13 39 -42 39zM584 0h-138l-16 84l-17 60l-126 3l-111 -3l-17 -53l-17 -91h-134l217 644h162zM384 249
l-76 268h-9l-88 -268l85 -2z" />
    <glyph glyph-name="AE" unicode="&#xc6;" horiz-adv-x="822" 
d="M814 101l-9 -101h-389l-5 84l-17 137l-212 -56l-35 -74l-30 -91h-135l310 644h440l9 -11l-11 -101l-155 5h-88l22 -181l194 50l10 -8l11 -95l-203 -48l18 -149h102l165 6zM382 323l-24 194h-9l-109 -231z" />
    <glyph glyph-name="Ccedilla" unicode="&#xc7;" horiz-adv-x="517" 
d="M334 105c50 0 105 16 147 43l13 -7l-11 -115c-46 -21 -92 -32 -140 -35l-10 -39l34 -19c31 -17 41 -36 41 -59c0 -44 -37 -75 -94 -75c-35 0 -61 12 -82 28l9 56l6 3c19 -19 39 -30 59 -30c15 0 24 7 24 21c0 10 -7 15 -17 20l-49 28l16 68c-165 17 -252 130 -252 323
c0 214 112 336 307 336c65 0 122 -14 170 -39l-25 -113l-10 -5c-39 28 -89 45 -140 45c-105 0 -160 -67 -160 -209c0 -152 58 -226 164 -226z" />
    <glyph glyph-name="Egrave" unicode="&#xc8;" horiz-adv-x="509" 
d="M390 722l-13 -4c-70 24 -138 48 -215 78l-4 12l34 79l12 3c69 -41 135 -76 208 -113zM483 112l7 -11l-8 -101h-404l8 192l-8 452h408l7 -11l-9 -101l-155 5l-115 -1l-2 -156l109 -1l106 3l8 -10l-9 -101l-114 3l-102 -1l-1 -69l3 -97l112 -1z" />
    <glyph glyph-name="Eacute" unicode="&#xc9;" horiz-adv-x="509" 
d="M199 721l-22 55c73 37 139 72 208 113l12 -3l34 -79l-4 -12c-77 -30 -145 -54 -215 -78zM483 112l7 -11l-8 -101h-404l8 192l-8 452h408l7 -11l-9 -101l-155 5l-115 -1l-2 -156l109 -1l106 3l8 -10l-9 -101l-114 3l-102 -1l-1 -69l3 -97l112 -1z" />
    <glyph glyph-name="Ecircumflex" unicode="&#xca;" horiz-adv-x="509" 
d="M159 728l-25 53c49 34 93 68 133 104h28c41 -36 85 -70 134 -104l-24 -53h-13c-38 21 -74 42 -110 63l-110 -63h-13zM483 112l7 -11l-8 -101h-404l8 192l-8 452h408l7 -11l-9 -101l-155 5l-115 -1l-2 -156l109 -1l106 3l8 -10l-9 -101l-114 3l-102 -1l-1 -69l3 -97
l112 -1z" />
    <glyph glyph-name="Edieresis" unicode="&#xcb;" horiz-adv-x="509" 
d="M194 732c-39 0 -61 23 -61 63c0 41 25 67 66 67c39 0 61 -23 61 -62c0 -42 -25 -68 -66 -68zM367 732c-39 0 -61 23 -61 63c0 41 25 67 66 67c39 0 61 -23 61 -62c0 -42 -25 -68 -66 -68zM483 112l7 -11l-8 -101h-404l8 192l-8 452h408l7 -11l-9 -101l-155 5l-115 -1
l-2 -156l109 -1l106 3l8 -10l-9 -101l-114 3l-102 -1l-1 -69l3 -97l112 -1z" />
    <glyph glyph-name="Igrave" unicode="&#xcc;" horiz-adv-x="295" 
d="M56 887l12 3c69 -41 135 -76 208 -113l-22 -55l-13 -4c-70 24 -138 48 -215 78l-4 12zM209 204l6 -204h-137l8 192l-8 452h138z" />
    <glyph glyph-name="Iacute" unicode="&#xcd;" horiz-adv-x="295" 
d="M262 886l34 -79l-4 -12c-77 -30 -145 -54 -215 -78l-13 4l-22 55c73 37 139 72 208 113zM209 204l6 -204h-137l8 192l-8 452h138z" />
    <glyph glyph-name="Icircumflex" unicode="&#xce;" horiz-adv-x="295" 
d="M24 728l-25 53c50 33 94 68 134 104h27c41 -36 86 -71 134 -104l-24 -53h-13c-37 21 -74 41 -110 63c-36 -22 -73 -42 -110 -63h-13zM209 204l6 -204h-137l8 192l-8 452h138z" />
    <glyph glyph-name="Eth" unicode="&#xd0;" horiz-adv-x="680" 
d="M104 644l259 4c186 0 289 -107 289 -302c0 -228 -116 -353 -324 -353c-50 0 -159 3 -224 7h-1l8 192l-1 83h-89l-6 9l5 81h88l-5 279h1zM353 98c99 0 158 65 158 217c0 158 -51 225 -159 225c-20 0 -76 -2 -113 -5l-2 -170h117l6 -9l-4 -81h-121l-1 -71l3 -99
c40 -4 95 -7 116 -7z" />
    <glyph glyph-name="Ntilde" unicode="&#xd1;" horiz-adv-x="695" 
d="M521 841v-11l-70 -89l-13 -5c-46 6 -128 35 -154 35c-20 0 -38 -25 -62 -51h-12l-40 39v11l71 89l12 5c47 -6 129 -35 154 -35c21 0 39 24 63 51h12zM610 199l5 -199h-146l-262 436h-9l-1 -214l6 -222h-125l8 190l-7 454h146l262 -436h9l-4 430l127 8z" />
    <glyph glyph-name="Ograve" unicode="&#xd2;" horiz-adv-x="643" 
d="M232 887l12 3c69 -41 135 -76 208 -113l-22 -55l-13 -4c-70 24 -138 48 -215 78l-4 12zM333 653c180 0 282 -115 282 -317c0 -221 -110 -346 -304 -346c-181 0 -283 118 -283 324c0 217 110 339 305 339zM320 543c-106 0 -151 -61 -151 -211c0 -172 45 -237 153 -237
c105 0 152 61 152 214c0 170 -45 234 -154 234z" />
    <glyph glyph-name="Oacute" unicode="&#xd3;" horiz-adv-x="643" 
d="M437 886l34 -79l-4 -12c-77 -30 -145 -54 -215 -78l-13 4l-22 55c73 37 139 72 208 113zM333 653c180 0 282 -115 282 -317c0 -221 -110 -346 -304 -346c-181 0 -283 118 -283 324c0 217 110 339 305 339zM320 543c-106 0 -151 -61 -151 -211c0 -172 45 -237 153 -237
c105 0 152 61 152 214c0 170 -45 234 -154 234z" />
    <glyph glyph-name="Ocircumflex" unicode="&#xd4;" horiz-adv-x="643" 
d="M200 728l-25 53c50 33 94 68 134 104h27c41 -36 86 -71 134 -104l-24 -53h-13c-37 21 -74 41 -110 63c-36 -22 -73 -42 -110 -63h-13zM333 653c180 0 282 -115 282 -317c0 -221 -110 -346 -304 -346c-181 0 -283 118 -283 324c0 217 110 339 305 339zM320 543
c-106 0 -151 -61 -151 -211c0 -172 45 -237 153 -237c105 0 152 61 152 214c0 170 -45 234 -154 234z" />
    <glyph glyph-name="Otilde" unicode="&#xd5;" horiz-adv-x="643" 
d="M497 841v-11l-70 -89l-13 -5c-46 6 -128 35 -154 35c-20 0 -38 -25 -62 -51h-12l-40 39v11l71 89l12 5c47 -6 129 -35 154 -35c21 0 39 24 63 51h12zM333 653c180 0 282 -115 282 -317c0 -221 -110 -346 -304 -346c-181 0 -283 118 -283 324c0 217 110 339 305 339z
M320 543c-106 0 -151 -61 -151 -211c0 -172 45 -237 153 -237c105 0 152 61 152 214c0 170 -45 234 -154 234z" />
    <glyph glyph-name="multiply" unicode="&#xd7;" horiz-adv-x="480" 
d="M419 389v-14l-115 -114l115 -116v-12l-62 -53l-117 116l-117 -117l-61 54v11l115 117l-115 114v14l61 52l117 -117l117 117z" />
    <glyph glyph-name="Oslash" unicode="&#xd8;" horiz-adv-x="643" 
d="M563 704l-51 -106c67 -52 103 -142 103 -262c0 -221 -110 -346 -304 -346c-31 0 -59 3 -85 10l-57 -119l-85 31l-6 12l57 119c-70 54 -107 146 -107 271c0 217 110 339 305 339c32 0 61 -4 88 -11l51 106l83 -30zM322 95c105 0 152 61 152 214c0 170 -45 234 -154 234
c-106 0 -151 -61 -151 -211c0 -172 45 -237 153 -237z" />
    <glyph glyph-name="Ugrave" unicode="&#xd9;" horiz-adv-x="638" 
d="M230 887l12 3c69 -41 135 -76 208 -113l-22 -55l-13 -4c-70 24 -138 48 -215 78l-4 12zM573 317l-1 -85c2 -154 -93 -241 -262 -241c-162 0 -251 84 -248 236l2 93l-3 324h136l-7 -399c-1 -97 41 -143 128 -143c86 0 129 44 128 136l-6 406h137z" />
    <glyph glyph-name="Uacute" unicode="&#xda;" horiz-adv-x="638" 
d="M436 886l34 -79l-4 -12c-77 -30 -145 -54 -215 -78l-13 4l-22 55c73 37 139 72 208 113zM573 317l-1 -85c2 -154 -93 -241 -262 -241c-162 0 -251 84 -248 236l2 93l-3 324h136l-7 -399c-1 -97 41 -143 128 -143c86 0 129 44 128 136l-6 406h137z" />
    <glyph glyph-name="Ucircumflex" unicode="&#xdb;" horiz-adv-x="638" 
d="M198 728l-25 53c50 33 94 68 134 104h27c41 -36 86 -71 134 -104l-24 -53h-13c-37 21 -74 41 -110 63c-36 -22 -73 -42 -110 -63h-13zM573 317l-1 -85c2 -154 -93 -241 -262 -241c-162 0 -251 84 -248 236l2 93l-3 324h136l-7 -399c-1 -97 41 -143 128 -143
c86 0 129 44 128 136l-6 406h137z" />
    <glyph glyph-name="Udieresis" unicode="&#xdc;" horiz-adv-x="638" 
d="M238 862c39 0 61 -23 61 -62c0 -42 -25 -68 -66 -68c-39 0 -61 23 -61 63c0 41 25 67 66 67zM412 862c39 0 61 -23 61 -62c0 -42 -25 -68 -66 -68c-39 0 -61 23 -61 63c0 41 25 67 66 67zM573 317l-1 -85c2 -154 -93 -241 -262 -241c-162 0 -251 84 -248 236l2 93l-3 324
h136l-7 -399c-1 -97 41 -143 128 -143c86 0 129 44 128 136l-6 406h137z" />
    <glyph glyph-name="Thorn" unicode="&#xde;" horiz-adv-x="561" 
d="M215 543h114c136 0 211 -67 211 -198c0 -150 -94 -237 -264 -237l-64 -1l3 -107h-137l7 192l-5 350l-2 102h139zM210 212l94 -4c59 16 93 54 93 127c0 74 -36 105 -111 108l-72 -3z" />
    <glyph glyph-name="germandbls" unicode="&#xdf;" horiz-adv-x="608" 
d="M416 374c0 -92 190 -89 190 -231c0 -79 -60 -153 -184 -153c-43 0 -94 10 -143 30l16 104l12 8c41 -36 91 -57 127 -57s57 20 57 45c0 74 -190 83 -190 230c0 107 102 110 102 193c0 45 -30 67 -81 67c-58 0 -97 -31 -98 -105l-5 -301l7 -204h-133l8 190l-3 191h-68l-4 7
l6 73h65v29c0 137 94 214 233 214c125 0 184 -62 184 -141c0 -102 -98 -123 -98 -189z" />
    <glyph glyph-name="agrave" unicode="&#xe0;" horiz-adv-x="481" 
d="M161 723l13 1c59 -55 117 -102 181 -153l-32 -50l-13 -1c-64 37 -125 75 -195 118l-2 13zM244 474c102 0 164 -48 164 -131c0 -34 -11 -190 -11 -222c0 -22 6 -30 24 -30c6 0 14 1 26 4l9 -8l-11 -70c-21 -13 -44 -22 -74 -25c-40 4 -68 29 -77 73h-7
c-31 -33 -65 -59 -102 -74c-96 1 -155 54 -155 139c0 67 36 104 103 117l153 29v41c0 44 -21 65 -64 65c-42 0 -86 -18 -143 -58l-10 6l-15 88c59 37 126 56 190 56zM285 209l-105 -23c-22 -5 -32 -16 -32 -42c0 -35 20 -55 53 -55c28 0 55 17 82 46z" />
    <glyph glyph-name="aacute" unicode="&#xe1;" horiz-adv-x="481" 
d="M331 723l48 -72l-2 -13c-70 -43 -131 -81 -195 -118l-13 1l-32 50c64 51 122 98 181 153zM244 474c102 0 164 -48 164 -131c0 -34 -11 -190 -11 -222c0 -22 6 -30 24 -30c6 0 14 1 26 4l9 -8l-11 -70c-21 -13 -44 -22 -74 -25c-40 4 -68 29 -77 73h-7
c-31 -33 -65 -59 -102 -74c-96 1 -155 54 -155 139c0 67 36 104 103 117l153 29v41c0 44 -21 65 -64 65c-42 0 -86 -18 -143 -58l-10 6l-15 88c59 37 126 56 190 56zM285 209l-105 -23c-22 -5 -32 -16 -32 -42c0 -35 20 -55 53 -55c28 0 55 17 82 46z" />
    <glyph glyph-name="acircumflex" unicode="&#xe2;" horiz-adv-x="481" 
d="M113 526l-34 51c44 40 92 89 141 141h29c43 -47 91 -97 140 -141l-33 -51h-13c-42 33 -79 64 -109 92c-30 -28 -67 -59 -108 -92h-13zM244 474c102 0 164 -48 164 -131c0 -34 -11 -190 -11 -222c0 -22 6 -30 24 -30c6 0 14 1 26 4l9 -8l-11 -70c-21 -13 -44 -22 -74 -25
c-40 4 -68 29 -77 73h-7c-31 -33 -65 -59 -102 -74c-96 1 -155 54 -155 139c0 67 36 104 103 117l153 29v41c0 44 -21 65 -64 65c-42 0 -86 -18 -143 -58l-10 6l-15 88c59 37 126 56 190 56zM285 209l-105 -23c-22 -5 -32 -16 -32 -42c0 -35 20 -55 53 -55c28 0 55 17 82 46
z" />
    <glyph glyph-name="atilde" unicode="&#xe3;" horiz-adv-x="481" 
d="M408 662v-11l-70 -89l-13 -5c-46 6 -128 35 -154 35c-20 0 -38 -25 -62 -51h-12l-40 39v11l71 89l12 5c47 -6 129 -35 154 -35c21 0 39 24 63 51h12zM244 474c102 0 164 -48 164 -131c0 -34 -11 -190 -11 -222c0 -22 6 -30 24 -30c6 0 14 1 26 4l9 -8l-11 -70
c-21 -13 -44 -22 -74 -25c-40 4 -68 29 -77 73h-7c-31 -33 -65 -59 -102 -74c-96 1 -155 54 -155 139c0 67 36 104 103 117l153 29v41c0 44 -21 65 -64 65c-42 0 -86 -18 -143 -58l-10 6l-15 88c59 37 126 56 190 56zM285 209l-105 -23c-22 -5 -32 -16 -32 -42
c0 -35 20 -55 53 -55c28 0 55 17 82 46z" />
    <glyph glyph-name="adieresis" unicode="&#xe4;" horiz-adv-x="481" 
d="M151 683c39 0 61 -23 61 -62c0 -42 -25 -68 -66 -68c-39 0 -61 23 -61 63c0 41 25 67 66 67zM325 683c39 0 61 -23 61 -62c0 -42 -25 -68 -66 -68c-39 0 -61 23 -61 63c0 41 25 67 66 67zM244 474c102 0 164 -48 164 -131c0 -34 -11 -190 -11 -222c0 -22 6 -30 24 -30
c6 0 14 1 26 4l9 -8l-11 -70c-21 -13 -44 -22 -74 -25c-40 4 -68 29 -77 73h-7c-31 -33 -65 -59 -102 -74c-96 1 -155 54 -155 139c0 67 36 104 103 117l153 29v41c0 44 -21 65 -64 65c-42 0 -86 -18 -143 -58l-10 6l-15 88c59 37 126 56 190 56zM285 209l-105 -23
c-22 -5 -32 -16 -32 -42c0 -35 20 -55 53 -55c28 0 55 17 82 46z" />
    <glyph glyph-name="aring" unicode="&#xe5;" horiz-adv-x="481" 
d="M235 724c62 0 94 -35 94 -91c0 -63 -39 -98 -99 -98c-57 0 -93 32 -93 94c0 60 35 95 98 95zM232 667c-27 0 -40 -12 -40 -37c0 -27 15 -40 41 -40s41 12 41 38c0 25 -13 39 -42 39zM244 474c102 0 164 -48 164 -131c0 -34 -11 -190 -11 -222c0 -22 6 -30 24 -30
c6 0 14 1 26 4l9 -8l-11 -70c-21 -13 -44 -22 -74 -25c-40 4 -68 29 -77 73h-7c-31 -33 -65 -59 -102 -74c-96 1 -155 54 -155 139c0 67 36 104 103 117l153 29v41c0 44 -21 65 -64 65c-42 0 -86 -18 -143 -58l-10 6l-15 88c59 37 126 56 190 56zM285 209l-105 -23
c-22 -5 -32 -16 -32 -42c0 -35 20 -55 53 -55c28 0 55 17 82 46z" />
    <glyph glyph-name="ae" unicode="&#xe6;" horiz-adv-x="694" 
d="M493 473c112 0 183 -74 174 -213l-13 -16l-266 -31c6 -85 42 -125 118 -125c39 0 87 12 131 36l11 -7l-19 -97c-40 -18 -92 -30 -134 -30c-77 0 -137 29 -173 86c-34 -36 -75 -66 -125 -85c-101 1 -169 49 -169 137c0 63 34 112 103 120l150 16v53c0 44 -20 65 -63 65
c-39 0 -84 -18 -142 -59l-9 6l-16 90c57 36 122 55 183 55c60 0 100 -21 122 -53c35 34 84 52 137 52zM480 386c-52 -1 -93 -47 -93 -107v-1l163 23c1 58 -25 85 -70 85zM201 90c26 0 48 12 89 49c-4 22 -7 40 -8 59l-96 -14c-29 -5 -39 -19 -39 -42c0 -34 21 -52 54 -52z
" />
    <glyph glyph-name="ccedilla" unicode="&#xe7;" horiz-adv-x="385" 
d="M259 95c30 0 64 9 99 25l11 -8l-14 -103c-31 -10 -67 -17 -102 -18l-9 -39l34 -19c31 -17 41 -36 41 -59c0 -44 -37 -75 -94 -75c-35 0 -61 12 -82 28l9 56l6 3c19 -19 39 -30 59 -30c15 0 24 7 24 21c0 10 -7 15 -17 20l-49 28l16 68c-103 18 -162 102 -162 234
c0 154 83 247 223 247c43 0 89 -9 122 -25l-22 -106l-11 -5c-31 17 -61 28 -90 28c-62 0 -96 -45 -96 -127c0 -93 37 -144 104 -144z" />
    <glyph glyph-name="egrave" unicode="&#xe8;" horiz-adv-x="471" 
d="M338 521l-13 -1c-64 37 -125 75 -195 118l-2 13l48 72l13 1c59 -55 117 -102 181 -153zM417 216l-266 -1c5 -82 43 -126 124 -126c40 0 88 12 135 36l11 -7l-18 -98c-43 -18 -92 -30 -141 -30c-147 0 -233 91 -233 240c0 152 90 243 230 243c116 0 181 -69 181 -183
c0 -17 -2 -41 -4 -55zM323 293l2 12c0 55 -27 81 -71 81c-53 0 -88 -35 -100 -98z" />
    <glyph glyph-name="eacute" unicode="&#xe9;" horiz-adv-x="471" 
d="M184 521l-32 50c64 51 122 98 181 153l13 -1l48 -72l-2 -13c-70 -43 -131 -81 -195 -118zM417 216l-266 -1c5 -82 43 -126 124 -126c40 0 88 12 135 36l11 -7l-18 -98c-43 -18 -92 -30 -141 -30c-147 0 -233 91 -233 240c0 152 90 243 230 243c116 0 181 -69 181 -183
c0 -17 -2 -41 -4 -55zM323 293l2 12c0 55 -27 81 -71 81c-53 0 -88 -35 -100 -98z" />
    <glyph glyph-name="ecircumflex" unicode="&#xea;" horiz-adv-x="471" 
d="M129 526l-34 51c44 40 92 89 141 141h29c43 -47 91 -97 140 -141l-33 -51h-13c-42 33 -79 64 -109 92c-30 -28 -67 -59 -108 -92h-13zM417 216l-266 -1c5 -82 43 -126 124 -126c40 0 88 12 135 36l11 -7l-18 -98c-43 -18 -92 -30 -141 -30c-147 0 -233 91 -233 240
c0 152 90 243 230 243c116 0 181 -69 181 -183c0 -17 -2 -41 -4 -55zM323 293l2 12c0 55 -27 81 -71 81c-53 0 -88 -35 -100 -98z" />
    <glyph glyph-name="edieresis" unicode="&#xeb;" horiz-adv-x="471" 
d="M161 553c-39 0 -61 23 -61 63c0 41 25 67 66 67c39 0 61 -23 61 -62c0 -42 -25 -68 -66 -68zM335 553c-39 0 -61 23 -61 63c0 41 25 67 66 67c39 0 61 -23 61 -62c0 -42 -25 -68 -66 -68zM417 216l-266 -1c5 -82 43 -126 124 -126c40 0 88 12 135 36l11 -7l-18 -98
c-43 -18 -92 -30 -141 -30c-147 0 -233 91 -233 240c0 152 90 243 230 243c116 0 181 -69 181 -183c0 -17 -2 -41 -4 -55zM323 293l2 12c0 55 -27 81 -71 81c-53 0 -88 -35 -100 -98z" />
    <glyph glyph-name="igrave" unicode="&#xec;" horiz-adv-x="254" 
d="M56 723l13 1c59 -55 117 -102 181 -153l-32 -50l-13 -1c-64 37 -125 75 -195 118l-2 13zM186 205l7 -205h-133l7 192l-6 264l133 11z" />
    <glyph glyph-name="iacute" unicode="&#xed;" horiz-adv-x="254" 
d="M226 723l48 -72l-2 -13c-70 -43 -131 -81 -195 -118l-13 1l-32 50c64 51 122 98 181 153zM186 205l7 -205h-133l7 192l-6 264l133 11z" />
    <glyph glyph-name="icircumflex" unicode="&#xee;" horiz-adv-x="254" 
d="M8 526l-34 51c44 40 92 89 141 141h29c43 -47 91 -97 140 -141l-33 -51h-13c-42 33 -79 64 -109 92c-30 -28 -67 -59 -108 -92h-13zM186 205l7 -205h-133l7 192l-6 264l133 11z" />
    <glyph glyph-name="eth" unicode="&#xf0;" horiz-adv-x="497" 
d="M402 646l-91 -52c101 -95 151 -214 151 -346c0 -165 -79 -258 -220 -258c-131 0 -209 81 -209 234c0 150 74 235 212 235c16 0 31 -1 45 -4c-19 31 -44 58 -76 83l-116 -66l-11 4l-27 53l91 52c-29 17 -62 34 -99 50v16l83 62h8c41 -21 79 -43 112 -68l109 62l11 -3z
M250 76c66 0 93 45 93 159c0 38 -3 73 -9 104c-24 21 -50 30 -82 30c-68 0 -100 -42 -100 -145c0 -106 34 -148 98 -148z" />
    <glyph glyph-name="ntilde" unicode="&#xf1;" horiz-adv-x="527" 
d="M144 541l-40 39v11l71 89l12 5c47 -6 129 -35 154 -35c21 0 39 24 63 51h12l39 -39v-11l-70 -89l-13 -5c-46 6 -128 35 -154 35c-20 0 -38 -25 -62 -51h-12zM338 0l8 290c1 47 -21 74 -63 74c-31 0 -63 -15 -96 -43l-1 -116l7 -205h-133l7 192l-6 264l127 11l-1 -68h8
c37 34 78 58 120 72c102 0 156 -48 154 -134l-3 -133l6 -204h-134z" />
    <glyph glyph-name="ograve" unicode="&#xf2;" horiz-adv-x="494" 
d="M175 723l13 1c59 -55 117 -102 181 -153l-32 -50l-13 -1c-64 37 -125 75 -195 118l-2 13zM253 474c136 0 210 -82 210 -233c0 -162 -79 -251 -224 -251c-136 0 -210 83 -210 233c0 162 79 251 224 251zM245 384c-63 0 -91 -40 -91 -135c0 -124 29 -170 95 -170
c63 0 90 38 90 135c0 122 -28 170 -94 170z" />
    <glyph glyph-name="oacute" unicode="&#xf3;" horiz-adv-x="494" 
d="M345 723l48 -72l-2 -13c-70 -43 -131 -81 -195 -118l-13 1l-32 50c64 51 122 98 181 153zM253 474c136 0 210 -82 210 -233c0 -162 -79 -251 -224 -251c-136 0 -210 83 -210 233c0 162 79 251 224 251zM245 384c-63 0 -91 -40 -91 -135c0 -124 29 -170 95 -170
c63 0 90 38 90 135c0 122 -28 170 -94 170z" />
    <glyph glyph-name="ocircumflex" unicode="&#xf4;" horiz-adv-x="494" 
d="M128 526l-34 51c44 40 92 89 141 141h29c43 -47 91 -97 140 -141l-33 -51h-13c-42 33 -79 64 -109 92c-30 -28 -67 -59 -108 -92h-13zM253 474c136 0 210 -82 210 -233c0 -162 -79 -251 -224 -251c-136 0 -210 83 -210 233c0 162 79 251 224 251zM245 384
c-63 0 -91 -40 -91 -135c0 -124 29 -170 95 -170c63 0 90 38 90 135c0 122 -28 170 -94 170z" />
    <glyph glyph-name="otilde" unicode="&#xf5;" horiz-adv-x="494" 
d="M423 662v-11l-70 -89l-13 -5c-46 6 -128 35 -154 35c-20 0 -38 -25 -62 -51h-12l-40 39v11l71 89l12 5c47 -6 129 -35 154 -35c21 0 39 24 63 51h12zM253 474c136 0 210 -82 210 -233c0 -162 -79 -251 -224 -251c-136 0 -210 83 -210 233c0 162 79 251 224 251zM245 384
c-63 0 -91 -40 -91 -135c0 -124 29 -170 95 -170c63 0 90 38 90 135c0 122 -28 170 -94 170z" />
    <glyph glyph-name="divide" unicode="&#xf7;" horiz-adv-x="480" 
d="M257 494c38 0 59 -22 59 -60c0 -40 -24 -65 -63 -65s-60 22 -60 60c0 40 25 65 64 65zM463 296l-7 -81h-418l-9 9l7 81h417zM257 156c38 0 59 -23 59 -60c0 -40 -24 -66 -63 -66s-60 22 -60 61s25 65 64 65z" />
    <glyph glyph-name="oslash" unicode="&#xf8;" horiz-adv-x="494" 
d="M460 523l-57 -102c39 -40 60 -100 60 -180c0 -162 -79 -251 -224 -251c-24 0 -47 3 -67 8l-69 -123l-76 37l-3 11l66 120c-40 39 -61 100 -61 180c0 162 79 251 224 251c25 0 48 -3 69 -8l59 105l72 -36zM249 79c63 0 90 38 90 135c0 122 -28 170 -94 170
c-63 0 -91 -40 -91 -135c0 -124 29 -170 95 -170z" />
    <glyph glyph-name="ugrave" unicode="&#xf9;" horiz-adv-x="522" 
d="M186 723l13 1c59 -55 117 -102 181 -153l-32 -50l-13 -1c-64 37 -125 75 -195 118l-2 13zM456 467l-9 -346c0 -22 7 -30 23 -30c7 0 14 1 26 4l10 -8l-12 -70c-20 -13 -43 -22 -73 -25c-41 4 -68 31 -80 75h-9c-39 -37 -77 -61 -118 -73c-101 0 -155 48 -155 134l3 118
l-5 210l129 11l-3 -295c-1 -46 19 -71 59 -71c30 0 59 14 87 39v316z" />
    <glyph glyph-name="uacute" unicode="&#xfa;" horiz-adv-x="522" 
d="M356 723l48 -72l-2 -13c-70 -43 -131 -81 -195 -118l-13 1l-32 50c64 51 122 98 181 153zM456 467l-9 -346c0 -22 7 -30 23 -30c7 0 14 1 26 4l10 -8l-12 -70c-20 -13 -43 -22 -73 -25c-41 4 -68 31 -80 75h-9c-39 -37 -77 -61 -118 -73c-101 0 -155 48 -155 134l3 118
l-5 210l129 11l-3 -295c-1 -46 19 -71 59 -71c30 0 59 14 87 39v316z" />
    <glyph glyph-name="ucircumflex" unicode="&#xfb;" horiz-adv-x="522" 
d="M138 526l-34 51c44 40 92 89 141 141h29c43 -47 91 -97 140 -141l-33 -51h-13c-42 33 -79 64 -109 92c-30 -28 -67 -59 -108 -92h-13zM456 467l-9 -346c0 -22 7 -30 23 -30c7 0 14 1 26 4l10 -8l-12 -70c-20 -13 -43 -22 -73 -25c-41 4 -68 31 -80 75h-9
c-39 -37 -77 -61 -118 -73c-101 0 -155 48 -155 134l3 118l-5 210l129 11l-3 -295c-1 -46 19 -71 59 -71c30 0 59 14 87 39v316z" />
    <glyph glyph-name="udieresis" unicode="&#xfc;" horiz-adv-x="522" 
d="M176 683c39 0 61 -23 61 -62c0 -42 -25 -68 -66 -68c-39 0 -61 23 -61 63c0 41 25 67 66 67zM350 683c39 0 61 -23 61 -62c0 -42 -25 -68 -66 -68c-39 0 -61 23 -61 63c0 41 25 67 66 67zM456 467l-9 -346c0 -22 7 -30 23 -30c7 0 14 1 26 4l10 -8l-12 -70
c-20 -13 -43 -22 -73 -25c-41 4 -68 31 -80 75h-9c-39 -37 -77 -61 -118 -73c-101 0 -155 48 -155 134l3 118l-5 210l129 11l-3 -295c-1 -46 19 -71 59 -71c30 0 59 14 87 39v316z" />
    <glyph glyph-name="thorn" unicode="&#xfe;" horiz-adv-x="522" 
d="M311 471c118 0 181 -85 181 -225c0 -166 -88 -256 -230 -256c-23 0 -46 3 -69 9l3 -184h-131l6 377l-6 500l132 10l-4 -303h6c37 35 69 56 112 72zM261 77c65 0 108 44 107 152c-1 87 -31 135 -89 135c-28 0 -55 -13 -87 -43l-2 -114l2 -112c25 -12 48 -18 69 -18z" />
    <glyph glyph-name="ydieresis" unicode="&#xff;" horiz-adv-x="447" 
d="M145 683c39 0 61 -23 61 -62c0 -42 -25 -68 -66 -68c-39 0 -61 23 -61 63c0 41 25 67 66 67zM319 683c39 0 61 -23 61 -62c0 -42 -25 -68 -66 -68c-39 0 -61 23 -61 63c0 41 25 67 66 67zM143 394l82 -259h9l81 247l16 83h116l-151 -433c-44 -126 -110 -186 -246 -224
l-10 1c-26 24 -45 51 -60 80l5 14c82 14 138 43 185 97l-170 462l128 6z" />
    <glyph glyph-name="Amacron" unicode="&#x100;" horiz-adv-x="600" 
d="M163 756l-9 9l7 74h280l8 -9l-6 -74h-280zM584 0h-138l-16 84l-17 60l-126 3l-111 -3l-17 -53l-17 -91h-134l217 644h162zM384 249l-76 268h-9l-88 -268l85 -2z" />
    <glyph glyph-name="amacron" unicode="&#x101;" horiz-adv-x="481" 
d="M381 651l-6 -74h-280l-9 9l7 74h280zM244 474c102 0 164 -48 164 -131c0 -34 -11 -190 -11 -222c0 -22 6 -30 24 -30c6 0 14 1 26 4l9 -8l-11 -70c-21 -13 -44 -22 -74 -25c-40 4 -68 29 -77 73h-7c-31 -33 -65 -59 -102 -74c-96 1 -155 54 -155 139c0 67 36 104 103 117
l153 29v41c0 44 -21 65 -64 65c-42 0 -86 -18 -143 -58l-10 6l-15 88c59 37 126 56 190 56zM285 209l-105 -23c-22 -5 -32 -16 -32 -42c0 -35 20 -55 53 -55c28 0 55 17 82 46z" />
    <glyph glyph-name="Abreve" unicode="&#x102;" horiz-adv-x="600" 
d="M299 721c-72 0 -125 37 -148 105l31 43h19c17 -35 54 -56 103 -56c46 0 81 21 98 56h19l31 -43c-25 -68 -79 -105 -153 -105zM584 0h-138l-16 84l-17 60l-126 3l-111 -3l-17 -53l-17 -91h-134l217 644h162zM384 249l-76 268h-9l-88 -268l85 -2z" />
    <glyph glyph-name="abreve" unicode="&#x103;" horiz-adv-x="481" 
d="M354 700l31 -45c-19 -70 -67 -125 -154 -125c-86 0 -130 58 -147 125l31 45h19c16 -51 53 -76 101 -76c49 0 85 25 100 76h19zM244 474c102 0 164 -48 164 -131c0 -34 -11 -190 -11 -222c0 -22 6 -30 24 -30c6 0 14 1 26 4l9 -8l-11 -70c-21 -13 -44 -22 -74 -25
c-40 4 -68 29 -77 73h-7c-31 -33 -65 -59 -102 -74c-96 1 -155 54 -155 139c0 67 36 104 103 117l153 29v41c0 44 -21 65 -64 65c-42 0 -86 -18 -143 -58l-10 6l-15 88c59 37 126 56 190 56zM285 209l-105 -23c-22 -5 -32 -16 -32 -42c0 -35 20 -55 53 -55c28 0 55 17 82 46
z" />
    <glyph glyph-name="Aogonek" unicode="&#x104;" horiz-adv-x="600" 
d="M609 -93l12 -54c-37 -33 -69 -50 -106 -50c-55 0 -89 35 -89 88c0 32 12 61 50 109h-30l-16 84l-17 60l-126 3l-111 -3l-17 -53l-17 -91h-134l217 644h162l197 -644h-43c-32 -45 -42 -70 -42 -89c0 -21 11 -33 35 -33c22 0 46 11 68 29h7zM384 249l-76 268h-9l-88 -268
l85 -2z" />
    <glyph glyph-name="aogonek" unicode="&#x105;" horiz-adv-x="481" 
d="M452 -94l13 -56c-31 -29 -59 -47 -96 -47c-50 0 -86 34 -86 84c0 34 16 61 65 110c-28 10 -47 33 -54 68h-7c-31 -33 -65 -59 -102 -74c-96 1 -155 54 -155 139c0 67 36 104 103 117l153 29v41c0 44 -21 65 -64 65c-42 0 -86 -18 -143 -58l-10 6l-15 88
c59 37 126 56 190 56c102 0 164 -48 164 -131c0 -34 -11 -190 -11 -222c0 -22 6 -30 24 -30c6 0 14 1 26 4l9 -8l-11 -70l-3 -2c-69 -64 -85 -87 -85 -107c0 -19 12 -30 32 -30c18 0 38 10 56 28h7zM285 209l-105 -23c-22 -5 -32 -16 -32 -42c0 -35 20 -55 53 -55
c28 0 55 17 82 46z" />
    <glyph glyph-name="Cacute" unicode="&#x106;" horiz-adv-x="517" 
d="M430 886l34 -79l-4 -12c-77 -30 -145 -54 -215 -78l-13 4l-22 55c73 37 139 72 208 113zM335 652c65 0 122 -14 170 -39l-25 -113l-10 -5c-39 28 -89 45 -140 45c-105 0 -160 -67 -160 -209c0 -152 58 -226 164 -226c50 0 105 16 147 43l13 -7l-11 -115
c-52 -24 -104 -35 -160 -35c-192 0 -295 116 -295 325c0 214 112 336 307 336z" />
    <glyph glyph-name="cacute" unicode="&#x107;" horiz-adv-x="385" 
d="M337 723l48 -72l-2 -13c-70 -43 -131 -81 -195 -118l-13 1l-32 50c64 51 122 98 181 153zM252 474c43 0 89 -9 122 -25l-22 -106l-11 -5c-31 17 -61 28 -90 28c-62 0 -96 -45 -96 -127c0 -93 37 -144 104 -144c30 0 64 9 99 25l11 -8l-14 -103c-37 -12 -81 -19 -122 -19
c-129 0 -204 88 -204 237c0 154 83 247 223 247z" />
    <glyph glyph-name="Ccircumflex" unicode="&#x108;" horiz-adv-x="517" 
d="M193 728l-25 53c50 33 94 68 134 104h27c41 -36 86 -71 134 -104l-24 -53h-13c-37 21 -74 41 -110 63c-36 -22 -73 -42 -110 -63h-13zM335 652c65 0 122 -14 170 -39l-25 -113l-10 -5c-39 28 -89 45 -140 45c-105 0 -160 -67 -160 -209c0 -152 58 -226 164 -226
c50 0 105 16 147 43l13 -7l-11 -115c-52 -24 -104 -35 -160 -35c-192 0 -295 116 -295 325c0 214 112 336 307 336z" />
    <glyph glyph-name="ccircumflex" unicode="&#x109;" horiz-adv-x="385" 
d="M119 526l-34 51c44 40 92 89 141 141h29c43 -47 91 -97 140 -141l-33 -51h-13c-42 33 -79 64 -109 92c-30 -28 -67 -59 -108 -92h-13zM252 474c43 0 89 -9 122 -25l-22 -106l-11 -5c-31 17 -61 28 -90 28c-62 0 -96 -45 -96 -127c0 -93 37 -144 104 -144c30 0 64 9 99 25
l11 -8l-14 -103c-37 -12 -81 -19 -122 -19c-129 0 -204 88 -204 237c0 154 83 247 223 247z" />
    <glyph glyph-name="Cdotaccent" unicode="&#x10a;" horiz-adv-x="517" 
d="M319 872c42 0 66 -25 66 -68c0 -45 -27 -74 -71 -74s-68 25 -68 69s28 73 73 73zM335 652c65 0 122 -14 170 -39l-25 -113l-10 -5c-39 28 -89 45 -140 45c-105 0 -160 -67 -160 -209c0 -152 58 -226 164 -226c50 0 105 16 147 43l13 -7l-11 -115
c-52 -24 -104 -35 -160 -35c-192 0 -295 116 -295 325c0 214 112 336 307 336z" />
    <glyph glyph-name="cdotaccent" unicode="&#x10b;" horiz-adv-x="385" 
d="M243 693c42 0 66 -25 66 -68c0 -45 -27 -74 -71 -74s-68 25 -68 69s28 73 73 73zM252 474c43 0 89 -9 122 -25l-22 -106l-11 -5c-31 17 -61 28 -90 28c-62 0 -96 -45 -96 -127c0 -93 37 -144 104 -144c30 0 64 9 99 25l11 -8l-14 -103c-37 -12 -81 -19 -122 -19
c-129 0 -204 88 -204 237c0 154 83 247 223 247z" />
    <glyph glyph-name="Ccaron" unicode="&#x10c;" horiz-adv-x="517" 
d="M439 875l25 -53c-50 -33 -94 -68 -134 -104h-27c-41 36 -86 71 -134 104l24 53h13c37 -21 74 -41 110 -63c36 22 73 42 110 63h13zM335 652c65 0 122 -14 170 -39l-25 -113l-10 -5c-39 28 -89 45 -140 45c-105 0 -160 -67 -160 -209c0 -152 58 -226 164 -226
c50 0 105 16 147 43l13 -7l-11 -115c-52 -24 -104 -35 -160 -35c-192 0 -295 116 -295 325c0 214 112 336 307 336z" />
    <glyph glyph-name="ccaron" unicode="&#x10d;" horiz-adv-x="385" 
d="M361 716l34 -51c-44 -40 -92 -89 -141 -141h-29c-43 47 -91 97 -140 141l33 51h13c42 -33 79 -64 109 -92c30 28 67 59 108 92h13zM252 474c43 0 89 -9 122 -25l-22 -106l-11 -5c-31 17 -61 28 -90 28c-62 0 -96 -45 -96 -127c0 -93 37 -144 104 -144c30 0 64 9 99 25
l11 -8l-14 -103c-37 -12 -81 -19 -122 -19c-129 0 -204 88 -204 237c0 154 83 247 223 247z" />
    <glyph glyph-name="Dcaron" unicode="&#x10e;" horiz-adv-x="655" 
d="M335 718h-27c-41 36 -86 71 -134 104l24 53h13c37 -21 74 -41 110 -63c36 22 73 42 110 63h13l25 -53c-50 -33 -94 -68 -134 -104zM78 644l259 4c187 0 289 -107 289 -302c0 -228 -115 -353 -323 -353c-51 0 -159 3 -225 7l8 192zM327 98c100 0 158 65 158 217
c0 158 -50 225 -159 225c-20 0 -76 -2 -112 -5l-5 -331l3 -99c40 -4 95 -7 115 -7z" />
    <glyph glyph-name="dcaron" unicode="&#x10f;" horiz-adv-x="587" 
d="M448 205l2 -84c1 -22 6 -30 22 -30c7 0 14 1 26 4l10 -8l-12 -70c-20 -13 -43 -22 -73 -25c-42 4 -70 29 -81 70h-8c-34 -31 -62 -51 -100 -69c-133 0 -206 89 -206 236c0 159 90 244 233 244c20 0 42 -2 65 -6l-2 225l132 10zM610 635l-33 -199l-58 -9l-9 7l-3 204l95 6
zM253 383c-65 0 -102 -40 -101 -134c1 -102 35 -152 95 -152c27 0 52 10 81 41l1 55l-2 172c-26 12 -50 18 -74 18z" />
    <glyph glyph-name="Dcroat" unicode="&#x110;" horiz-adv-x="680" 
d="M104 644l259 4c186 0 289 -107 289 -302c0 -228 -116 -353 -324 -353c-50 0 -159 3 -224 7h-1l8 192l-1 83h-89l-6 9l5 81h88l-5 279h1zM353 98c99 0 158 65 158 217c0 158 -51 225 -159 225c-20 0 -76 -2 -113 -5l-2 -170h117l6 -9l-4 -81h-121l-1 -71l3 -99
c40 -4 95 -7 116 -7z" />
    <glyph glyph-name="dcroat" unicode="&#x111;" horiz-adv-x="531" 
d="M453 542l-5 -337l2 -84c1 -22 6 -30 22 -30c7 0 14 1 26 4l10 -8l-12 -70c-20 -13 -43 -22 -73 -25c-42 4 -70 29 -81 70h-8c-34 -31 -62 -51 -100 -69c-133 0 -206 89 -206 236c0 159 90 244 233 244c20 0 42 -2 65 -6l-1 75h-109l-9 9l6 64h112l-1 77l132 10l-1 -87h66
l9 -10l-6 -63h-71zM329 193l-2 172c-26 12 -50 18 -74 18c-65 0 -102 -40 -101 -134c1 -102 35 -152 95 -152c27 0 52 10 81 41z" />
    <glyph glyph-name="Emacron" unicode="&#x112;" horiz-adv-x="509" 
d="M144 756l-9 9l7 74h280l8 -9l-6 -74h-280zM483 112l7 -11l-8 -101h-404l8 192l-8 452h408l7 -11l-9 -101l-155 5l-115 -1l-2 -156l109 -1l106 3l8 -10l-9 -101l-114 3l-102 -1l-1 -69l3 -97l112 -1z" />
    <glyph glyph-name="emacron" unicode="&#x113;" horiz-adv-x="471" 
d="M110 577l-9 9l7 74h280l8 -9l-6 -74h-280zM417 216l-266 -1c5 -82 43 -126 124 -126c40 0 88 12 135 36l11 -7l-18 -98c-43 -18 -92 -30 -141 -30c-147 0 -233 91 -233 240c0 152 90 243 230 243c116 0 181 -69 181 -183c0 -17 -2 -41 -4 -55zM323 293l2 12
c0 55 -27 81 -71 81c-53 0 -88 -35 -100 -98z" />
    <glyph glyph-name="Ebreve" unicode="&#x114;" horiz-adv-x="509" 
d="M280 721c-72 0 -125 37 -148 105l31 43h19c17 -35 54 -56 103 -56c46 0 81 21 98 56h19l31 -43c-25 -68 -79 -105 -153 -105zM483 112l7 -11l-8 -101h-404l8 192l-8 452h408l7 -11l-9 -101l-155 5l-115 -1l-2 -156l109 -1l106 3l8 -10l-9 -101l-114 3l-102 -1l-1 -69
l3 -97l112 -1z" />
    <glyph glyph-name="ebreve" unicode="&#x115;" horiz-adv-x="471" 
d="M247 530c-86 0 -130 58 -147 125l31 45h19c16 -51 53 -76 101 -76c49 0 85 25 100 76h19l31 -45c-19 -70 -67 -125 -154 -125zM417 216l-266 -1c5 -82 43 -126 124 -126c40 0 88 12 135 36l11 -7l-18 -98c-43 -18 -92 -30 -141 -30c-147 0 -233 91 -233 240
c0 152 90 243 230 243c116 0 181 -69 181 -183c0 -17 -2 -41 -4 -55zM323 293l2 12c0 55 -27 81 -71 81c-53 0 -88 -35 -100 -98z" />
    <glyph glyph-name="Edotaccent" unicode="&#x116;" horiz-adv-x="509" 
d="M281 730c-44 0 -68 25 -68 69s28 73 73 73c42 0 66 -25 66 -68c0 -45 -27 -74 -71 -74zM483 112l7 -11l-8 -101h-404l8 192l-8 452h408l7 -11l-9 -101l-155 5l-115 -1l-2 -156l109 -1l106 3l8 -10l-9 -101l-114 3l-102 -1l-1 -69l3 -97l112 -1z" />
    <glyph glyph-name="edotaccent" unicode="&#x117;" horiz-adv-x="471" 
d="M248 551c-44 0 -68 25 -68 69s28 73 73 73c42 0 66 -25 66 -68c0 -45 -27 -74 -71 -74zM417 216l-266 -1c5 -82 43 -126 124 -126c40 0 88 12 135 36l11 -7l-18 -98c-43 -18 -92 -30 -141 -30c-147 0 -233 91 -233 240c0 152 90 243 230 243c116 0 181 -69 181 -183
c0 -17 -2 -41 -4 -55zM323 293l2 12c0 55 -27 81 -71 81c-53 0 -88 -35 -100 -98z" />
    <glyph glyph-name="Eogonek" unicode="&#x118;" horiz-adv-x="509" 
d="M487 -93l11 -55c-37 -33 -68 -49 -103 -49c-56 0 -91 38 -91 88c0 26 8 54 29 82l19 27h-274l8 192l-8 452h408l7 -11l-9 -101l-155 5l-115 -1l-2 -156l109 -1l106 3l8 -10l-9 -101l-114 3l-102 -1l-1 -69l3 -97l112 -1l159 6l7 -11l-8 -101h-64l-25 -38
c-10 -17 -16 -33 -16 -47c0 -21 12 -37 38 -37c20 0 43 11 65 29h7z" />
    <glyph glyph-name="eogonek" unicode="&#x119;" horiz-adv-x="471" 
d="M417 216l-266 -1c5 -82 43 -126 124 -126c40 0 88 12 135 36l11 -7l-18 -98c-17 -7 -36 -14 -55 -19l-26 -39c-10 -17 -16 -33 -16 -47c0 -21 12 -37 38 -37c20 0 43 11 65 29h7l11 -55c-37 -33 -68 -49 -103 -49c-56 0 -91 38 -91 88c0 26 8 54 29 82l12 17h-12
c-147 0 -233 91 -233 240c0 152 90 243 230 243c116 0 181 -69 181 -183c0 -17 -2 -41 -4 -55zM323 293l2 12c0 55 -27 81 -71 81c-53 0 -88 -35 -100 -98z" />
    <glyph glyph-name="Ecaron" unicode="&#x11a;" horiz-adv-x="509" 
d="M297 718h-27c-41 36 -86 71 -134 104l24 53h13c37 -21 74 -41 110 -63c36 22 73 42 110 63h13l25 -53c-50 -33 -94 -68 -134 -104zM483 112l7 -11l-8 -101h-404l8 192l-8 452h408l7 -11l-9 -101l-155 5l-115 -1l-2 -156l109 -1l106 3l8 -10l-9 -101l-114 3l-102 -1
l-1 -69l3 -97l112 -1z" />
    <glyph glyph-name="ecaron" unicode="&#x11b;" horiz-adv-x="471" 
d="M264 524h-29c-43 47 -91 97 -140 141l33 51h13c42 -33 79 -64 109 -92c30 28 67 59 108 92h13l34 -51c-44 -40 -92 -89 -141 -141zM417 216l-266 -1c5 -82 43 -126 124 -126c40 0 88 12 135 36l11 -7l-18 -98c-43 -18 -92 -30 -141 -30c-147 0 -233 91 -233 240
c0 152 90 243 230 243c116 0 181 -69 181 -183c0 -17 -2 -41 -4 -55zM323 293l2 12c0 55 -27 81 -71 81c-53 0 -88 -35 -100 -98z" />
    <glyph glyph-name="Gcircumflex" unicode="&#x11c;" horiz-adv-x="598" 
d="M204 728l-25 53c50 33 94 68 134 104h27c41 -36 86 -71 134 -104l-24 -53h-13c-37 21 -74 41 -110 63c-36 -22 -73 -42 -110 -63h-13zM364 652c68 0 131 -12 188 -39l-29 -122l-12 -2c-64 37 -111 53 -171 53c-117 0 -170 -63 -170 -227c0 -159 48 -217 169 -217
c28 0 49 3 86 14l2 55l-3 99l126 10l-3 -88l2 -157c-83 -28 -154 -40 -220 -40c-203 0 -301 116 -301 317c0 224 122 344 336 344z" />
    <glyph glyph-name="gcircumflex" unicode="&#x11d;" horiz-adv-x="500" 
d="M133 518l-34 51c44 40 92 89 141 141h29c43 -47 91 -97 140 -141l-33 -51h-13c-42 33 -79 64 -109 92c-30 -28 -67 -59 -108 -92h-13zM509 485v-83c-27 -7 -51 -11 -78 -15l-2 -4c10 -20 15 -42 15 -67c0 -100 -77 -164 -202 -164c-21 0 -40 2 -58 5
c-11 -11 -15 -17 -15 -26c0 -67 295 1 295 -162c0 -95 -95 -164 -229 -164c-124 0 -189 56 -189 135c22 31 51 55 83 75v5c-42 15 -72 40 -72 91c19 23 42 43 68 61v5c-48 25 -73 70 -73 129c0 104 78 166 200 166c38 0 71 -7 99 -19c50 10 100 24 148 41zM246 232
c54 0 83 28 83 82c0 51 -26 76 -79 76c-55 0 -83 -26 -83 -77c0 -53 26 -81 79 -81zM352 -55c0 47 -76 48 -150 59c-31 -21 -48 -40 -48 -63c0 -34 31 -58 94 -58c61 0 104 22 104 62z" />
    <glyph glyph-name="Gbreve" unicode="&#x11e;" horiz-adv-x="598" 
d="M446 869l31 -43c-25 -68 -79 -105 -153 -105c-72 0 -125 37 -148 105l31 43h19c17 -35 54 -56 103 -56c46 0 81 21 98 56h19zM364 652c68 0 131 -12 188 -39l-29 -122l-12 -2c-64 37 -111 53 -171 53c-117 0 -170 -63 -170 -227c0 -159 48 -217 169 -217c28 0 49 3 86 14
l2 55l-3 99l126 10l-3 -88l2 -157c-83 -28 -154 -40 -220 -40c-203 0 -301 116 -301 317c0 224 122 344 336 344z" />
    <glyph glyph-name="gbreve" unicode="&#x11f;" horiz-adv-x="500" 
d="M251 522c-86 0 -130 58 -147 125l31 45h19c16 -51 53 -76 101 -76c49 0 85 25 100 76h19l31 -45c-19 -70 -67 -125 -154 -125zM509 485v-83c-27 -7 -51 -11 -78 -15l-2 -4c10 -20 15 -42 15 -67c0 -100 -77 -164 -202 -164c-21 0 -40 2 -58 5c-11 -11 -15 -17 -15 -26
c0 -67 295 1 295 -162c0 -95 -95 -164 -229 -164c-124 0 -189 56 -189 135c22 31 51 55 83 75v5c-42 15 -72 40 -72 91c19 23 42 43 68 61v5c-48 25 -73 70 -73 129c0 104 78 166 200 166c38 0 71 -7 99 -19c50 10 100 24 148 41zM246 232c54 0 83 28 83 82
c0 51 -26 76 -79 76c-55 0 -83 -26 -83 -77c0 -53 26 -81 79 -81zM352 -55c0 47 -76 48 -150 59c-31 -21 -48 -40 -48 -63c0 -34 31 -58 94 -58c61 0 104 22 104 62z" />
    <glyph glyph-name="Gdotaccent" unicode="&#x120;" horiz-adv-x="598" 
d="M330 872c42 0 66 -25 66 -68c0 -45 -27 -74 -71 -74s-68 25 -68 69s28 73 73 73zM364 652c68 0 131 -12 188 -39l-29 -122l-12 -2c-64 37 -111 53 -171 53c-117 0 -170 -63 -170 -227c0 -159 48 -217 169 -217c28 0 49 3 86 14l2 55l-3 99l126 10l-3 -88l2 -157
c-83 -28 -154 -40 -220 -40c-203 0 -301 116 -301 317c0 224 122 344 336 344z" />
    <glyph glyph-name="gdotaccent" unicode="&#x121;" horiz-adv-x="500" 
d="M252 543c-44 0 -68 25 -68 69s28 73 73 73c42 0 66 -25 66 -68c0 -45 -27 -74 -71 -74zM509 485v-83c-27 -7 -51 -11 -78 -15l-2 -4c10 -20 15 -42 15 -67c0 -100 -77 -164 -202 -164c-21 0 -40 2 -58 5c-11 -11 -15 -17 -15 -26c0 -67 295 1 295 -162
c0 -95 -95 -164 -229 -164c-124 0 -189 56 -189 135c22 31 51 55 83 75v5c-42 15 -72 40 -72 91c19 23 42 43 68 61v5c-48 25 -73 70 -73 129c0 104 78 166 200 166c38 0 71 -7 99 -19c50 10 100 24 148 41zM246 232c54 0 83 28 83 82c0 51 -26 76 -79 76
c-55 0 -83 -26 -83 -77c0 -53 26 -81 79 -81zM352 -55c0 47 -76 48 -150 59c-31 -21 -48 -40 -48 -63c0 -34 31 -58 94 -58c61 0 104 22 104 62z" />
    <glyph glyph-name="Gcommaaccent" unicode="&#x122;" horiz-adv-x="598" 
d="M364 652c68 0 131 -12 188 -39l-29 -122l-12 -2c-64 37 -111 53 -171 53c-117 0 -170 -63 -170 -227c0 -159 48 -217 169 -217c28 0 49 3 86 14l2 55l-3 99l126 10l-3 -88l2 -157c-83 -28 -154 -40 -220 -40c-203 0 -301 116 -301 317c0 224 122 344 336 344zM337 -40
c27 -21 40 -46 40 -76c0 -54 -35 -104 -108 -156l-39 34l-1 9c34 28 50 56 50 88c0 21 -9 38 -28 54v10c27 16 55 29 86 37z" />
    <glyph glyph-name="gcommaaccent" unicode="&#x123;" horiz-adv-x="500" 
d="M239 516c-36 19 -52 47 -52 87c0 49 28 98 85 152l43 -28l2 -9c-26 -27 -38 -54 -38 -79c0 -29 10 -49 37 -65v-10c-22 -19 -48 -35 -77 -48zM509 485v-83c-27 -7 -51 -11 -78 -15l-2 -4c10 -20 15 -42 15 -67c0 -100 -77 -164 -202 -164c-21 0 -40 2 -58 5
c-11 -11 -15 -17 -15 -26c0 -67 295 1 295 -162c0 -95 -95 -164 -229 -164c-124 0 -189 56 -189 135c22 31 51 55 83 75v5c-42 15 -72 40 -72 91c19 23 42 43 68 61v5c-48 25 -73 70 -73 129c0 104 78 166 200 166c38 0 71 -7 99 -19c50 10 100 24 148 41zM246 232
c54 0 83 28 83 82c0 51 -26 76 -79 76c-55 0 -83 -26 -83 -77c0 -53 26 -81 79 -81zM352 -55c0 47 -76 48 -150 59c-31 -21 -48 -40 -48 -63c0 -34 31 -58 94 -58c61 0 104 22 104 62z" />
    <glyph glyph-name="Hcircumflex" unicode="&#x124;" horiz-adv-x="696" 
d="M223 728l-25 53c50 33 94 68 134 104h27c41 -36 86 -71 134 -104l-24 -53h-13c-37 21 -74 41 -110 63c-36 -22 -73 -42 -110 -63h-13zM610 204l6 -204h-137l8 192l-1 75l-147 2l-129 -3l-1 -62l6 -204h-137l8 192l-8 452h138l-4 -265l136 -3l136 3l-5 265h138z" />
    <glyph glyph-name="hcircumflex" unicode="&#x125;" horiz-adv-x="531" 
d="M253 737h-13c-37 21 -74 41 -110 63c-36 -22 -73 -42 -110 -63h-13l-25 53c50 33 94 68 134 104h27c41 -36 86 -71 134 -104zM343 0l8 290c1 47 -21 74 -63 74c-31 0 -63 -15 -95 -42l-2 -117l7 -205h-133l7 193l-6 499l133 10l-5 -303h6c37 34 78 58 120 72
c102 0 156 -48 154 -134l-3 -133l6 -204h-134z" />
    <glyph glyph-name="Hbar" unicode="&#x126;" horiz-adv-x="728" 
d="M628 475l-4 -271l5 -204h-136l8 192l-1 75l-147 2l-130 -3l-1 -62l6 -204h-137l8 192l-5 283h-62l-6 7l5 71h62l-2 91h138l-1 -91h267l-2 91h138l-1 -91h66l6 -8l-5 -70h-69zM496 475h-270l-1 -96l137 -3l136 3z" />
    <glyph glyph-name="hbar" unicode="&#x127;" horiz-adv-x="532" 
d="M344 0l8 290c1 47 -21 74 -63 74c-31 0 -63 -15 -95 -42l-2 -117l7 -205h-133l7 193l-4 349h-64l-9 9l5 64h67l-1 77l133 10l-1 -87h111l9 -10l-6 -63h-116l-2 -143h6c37 34 78 58 120 72c102 0 156 -48 154 -134l-3 -133l6 -204h-134z" />
    <glyph glyph-name="Imacron" unicode="&#x12a;" horiz-adv-x="295" 
d="M267 830l-6 -74h-226l-9 9l7 74h225zM209 204l6 -204h-137l8 192l-8 452h138z" />
    <glyph glyph-name="imacron" unicode="&#x12b;" horiz-adv-x="254" 
d="M249 651l-6 -74h-226l-9 9l7 74h225zM186 205l7 -205h-133l7 192l-6 264l133 11z" />
    <glyph glyph-name="Ibreve" unicode="&#x12c;" horiz-adv-x="295" 
d="M266 869l31 -43c-25 -68 -79 -105 -153 -105c-72 0 -125 37 -148 105l31 43h19c17 -35 54 -56 103 -56c46 0 81 21 98 56h19zM209 204l6 -204h-137l8 192l-8 452h138z" />
    <glyph glyph-name="ibreve" unicode="&#x12d;" horiz-adv-x="254" 
d="M249 700l31 -45c-19 -70 -67 -125 -154 -125c-86 0 -130 58 -147 125l31 45h19c16 -51 53 -76 101 -76c49 0 85 25 100 76h19zM186 205l7 -205h-133l7 192l-6 264l133 11z" />
    <glyph glyph-name="Iogonek" unicode="&#x12e;" horiz-adv-x="295" 
d="M215 0h-68c-31 -45 -40 -70 -40 -89c0 -21 12 -33 34 -33c17 0 37 8 54 23h8l10 -60c-30 -26 -59 -38 -90 -38c-55 0 -89 36 -89 88c0 31 10 59 44 109l8 192l-8 452h138l-7 -440z" />
    <glyph glyph-name="iogonek" unicode="&#x12f;" horiz-adv-x="254" 
d="M127 551c-44 0 -68 25 -68 69s28 73 73 73c42 0 66 -25 66 -68c0 -45 -27 -74 -71 -74zM185 -99l10 -60c-30 -26 -59 -38 -90 -38c-55 0 -89 36 -89 88c0 31 10 59 44 109l7 192l-6 264l133 11l-8 -262l7 -205h-64c-31 -45 -40 -70 -40 -89c0 -21 12 -33 34 -33
c17 0 37 8 54 23h8z" />
    <glyph glyph-name="Idotaccent" unicode="&#x130;" horiz-adv-x="295" 
d="M150 872c42 0 66 -25 66 -68c0 -45 -27 -74 -71 -74s-68 25 -68 69s28 73 73 73zM209 204l6 -204h-137l8 192l-8 452h138z" />
    <glyph glyph-name="dotlessi" unicode="&#x131;" horiz-adv-x="254" 
d="M186 205l7 -205h-133l7 192l-6 264l133 11z" />
    <glyph glyph-name="IJ" unicode="&#x132;" horiz-adv-x="630" 
d="M216 644l-7 -440l6 -204h-137l8 192l-8 452h138zM546 212l2 -91c0 -111 -50 -172 -197 -227l-41 72v12c81 42 113 77 113 145v76l-6 345l-106 -3l-10 10l7 93h245z" />
    <glyph glyph-name="ij" unicode="&#x133;" horiz-adv-x="539" 
d="M132 693c42 0 66 -25 66 -68c0 -45 -27 -74 -71 -74s-68 25 -68 69s28 73 73 73zM397 693c42 0 66 -25 66 -68c0 -45 -27 -74 -71 -74s-68 25 -68 69s28 73 73 73zM474 465l-8 -260l6 -178c0 -106 -48 -170 -163 -222l-46 59v12c60 34 83 75 83 147l2 169l-4 189h-81
l-8 8l7 72h84l124 7zM186 205l7 -205h-133l7 192l-6 264l133 11z" />
    <glyph glyph-name="Jcircumflex" unicode="&#x134;" horiz-adv-x="335" 
d="M134 885h27c41 -36 86 -71 134 -104l-24 -53h-13c-37 21 -74 41 -110 63c-36 -22 -73 -42 -110 -63h-13l-25 53c50 33 94 68 134 104zM258 644l-8 -432l2 -91c0 -111 -49 -172 -196 -227l-41 72v12c81 42 112 77 112 145v76l-5 345l-107 -3l-9 10l6 93h246z" />
    <glyph glyph-name="jcircumflex" unicode="&#x135;" horiz-adv-x="285" 
d="M19 526l-34 51c44 40 92 89 141 141h29c43 -47 91 -97 140 -141l-33 -51h-13c-42 33 -79 64 -109 92c-30 -28 -67 -59 -108 -92h-13zM220 465l-8 -260l6 -178c0 -106 -48 -170 -163 -222l-47 59v12c61 34 84 75 84 147l1 169l-4 189h-80l-8 8l6 72h85l124 7z" />
    <glyph glyph-name="Kcommaaccent" unicode="&#x136;" horiz-adv-x="584" 
d="M574 644l-228 -304c76 -106 160 -212 247 -312l-2 -15c-45 -11 -89 -18 -134 -23l-15 8c-80 108 -159 218 -232 333l-2 -127l6 -204h-137l8 192l-8 452h138l-5 -299l180 237l37 62h147zM333 -40c27 -21 40 -46 40 -76c0 -54 -35 -104 -108 -156l-39 34l-1 9
c34 28 50 56 50 88c0 21 -9 38 -28 54v10c27 16 55 29 86 37z" />
    <glyph glyph-name="kcommaaccent" unicode="&#x137;" horiz-adv-x="495" 
d="M191 205l7 -205h-133l7 193l-6 499l133 10zM478 465l-152 -210c50 -79 106 -156 162 -233v-14c-42 -9 -82 -13 -124 -18l-14 6c-56 80 -108 162 -152 247v9l116 165l24 48h140zM299 -40c27 -21 40 -46 40 -76c0 -54 -35 -104 -108 -156l-39 34l-1 9c34 28 50 56 50 88
c0 21 -9 38 -28 54v10c27 16 55 29 86 37z" />
    <glyph glyph-name="kgreenlandic" unicode="&#x138;" horiz-adv-x="493" 
d="M186 205l7 -205h-133l7 192l-6 264l133 11zM476 465l-152 -210c50 -79 106 -156 162 -233v-14c-42 -9 -82 -13 -124 -18l-14 6c-56 80 -108 162 -152 247v9l116 165l24 48h140z" />
    <glyph glyph-name="Lacute" unicode="&#x139;" horiz-adv-x="433" 
d="M129 721l-22 55c73 37 139 72 208 113l12 -3l34 -79l-4 -12c-77 -30 -145 -54 -215 -78zM431 101l-9 -101h-348l8 192l-8 452h138l-7 -440l3 -92h215z" />
    <glyph glyph-name="lacute" unicode="&#x13a;" horiz-adv-x="263" 
d="M246 922l34 -79l-4 -12c-77 -30 -145 -54 -215 -78l-13 4l-22 55c73 37 139 72 208 113zM191 205l7 -205h-133l7 193l-6 499l133 10z" />
    <glyph glyph-name="Lcommaaccent" unicode="&#x13b;" horiz-adv-x="433" 
d="M431 101l-9 -101h-348l8 192l-8 452h138l-7 -440l3 -92h215zM268 -40c27 -21 40 -46 40 -76c0 -54 -35 -104 -108 -156l-39 34l-1 9c34 28 50 56 50 88c0 21 -9 38 -28 54v10c27 16 55 29 86 37z" />
    <glyph glyph-name="lcommaaccent" unicode="&#x13c;" horiz-adv-x="263" 
d="M191 205l7 -205h-133l7 193l-6 499l133 10zM165 -40c27 -21 40 -46 40 -76c0 -54 -35 -104 -108 -156l-39 34l-1 9c34 28 50 56 50 88c0 21 -9 38 -28 54v10c27 16 55 29 86 37z" />
    <glyph glyph-name="Lcaron" unicode="&#x13d;" horiz-adv-x="467" 
d="M423 112l8 -11l-9 -101h-348l8 192l-8 452h138l-7 -440l3 -92h215zM332 381l-2 204l95 6l8 -9l-33 -200l-58 -9z" />
    <glyph glyph-name="lcaron" unicode="&#x13e;" horiz-adv-x="317" 
d="M191 205l7 -205h-133l7 193l-6 499l133 10zM349 637l-33 -200l-58 -9l-10 8l-2 204l95 6z" />
    <glyph glyph-name="Ldot" unicode="&#x13f;" horiz-adv-x="455" 
d="M423 112l8 -11l-9 -101h-348l8 192l-8 452h138l-7 -440l3 -92h215zM363 318c-44 0 -68 25 -68 69s28 73 73 73c42 0 66 -25 66 -68c0 -45 -27 -74 -71 -74z" />
    <glyph glyph-name="ldot" unicode="&#x140;" horiz-adv-x="370" 
d="M191 205l7 -205h-133l7 193l-6 499l133 10zM306 363c42 0 66 -25 66 -68c0 -45 -27 -74 -71 -74s-68 25 -68 69s28 73 73 73z" />
    <glyph glyph-name="Lslash" unicode="&#x141;" horiz-adv-x="449" 
d="M448 101l-9 -101h-349l8 192l-1 56l-60 -31l-13 6l-24 79l95 49l-5 293h139l-4 -226l102 52l13 -6l24 -78l-141 -73l-2 -109l3 -92h216z" />
    <glyph glyph-name="lslash" unicode="&#x142;" horiz-adv-x="288" 
d="M204 205l6 -205h-132l7 193l-1 100l-58 -29l-7 2l-26 77l90 46l-4 303l132 10l-4 -261l58 30l6 -3l27 -77l-92 -48z" />
    <glyph glyph-name="Nacute" unicode="&#x143;" horiz-adv-x="695" 
d="M461 886l34 -79l-4 -12c-77 -30 -145 -54 -215 -78l-13 4l-22 55c73 37 139 72 208 113zM610 199l5 -199h-146l-262 436h-9l-1 -214l6 -222h-125l8 190l-7 454h146l262 -436h9l-4 430l127 8z" />
    <glyph glyph-name="nacute" unicode="&#x144;" horiz-adv-x="527" 
d="M215 521l-32 50c64 51 122 98 181 153l13 -1l48 -72l-2 -13c-70 -43 -131 -81 -195 -118zM338 0l8 290c1 47 -21 74 -63 74c-31 0 -63 -15 -96 -43l-1 -116l7 -205h-133l7 192l-6 264l127 11l-1 -68h8c37 34 78 58 120 72c102 0 156 -48 154 -134l-3 -133l6 -204h-134z
" />
    <glyph glyph-name="Ncommaaccent" unicode="&#x145;" horiz-adv-x="695" 
d="M610 199l5 -199h-146l-262 436h-9l-1 -214l6 -222h-125l8 190l-7 454h146l262 -436h9l-4 430l127 8zM380 -40c27 -21 40 -46 40 -76c0 -54 -35 -104 -108 -156l-39 34l-1 9c34 28 50 56 50 88c0 21 -9 38 -28 54v10c27 16 55 29 86 37z" />
    <glyph glyph-name="ncommaaccent" unicode="&#x146;" horiz-adv-x="527" 
d="M186 205l7 -205h-133l7 192l-6 264l127 11l-1 -68h8c37 34 78 58 120 72c102 0 156 -48 154 -134l-3 -133l6 -204h-134l8 290c1 47 -21 74 -63 74c-31 0 -63 -15 -96 -43zM302 -40c27 -21 40 -46 40 -76c0 -54 -35 -104 -108 -156l-39 34l-1 9c34 28 50 56 50 88
c0 21 -9 38 -28 54v10c27 16 55 29 86 37z" />
    <glyph glyph-name="Ncaron" unicode="&#x147;" horiz-adv-x="695" 
d="M470 875l25 -53c-50 -33 -94 -68 -134 -104h-27c-41 36 -86 71 -134 104l24 53h13c37 -21 74 -41 110 -63c36 22 73 42 110 63h13zM610 199l5 -199h-146l-262 436h-9l-1 -214l6 -222h-125l8 190l-7 454h146l262 -436h9l-4 430l127 8z" />
    <glyph glyph-name="ncaron" unicode="&#x148;" horiz-adv-x="527" 
d="M295 524h-29c-43 47 -91 97 -140 141l33 51h13c42 -33 79 -64 109 -92c30 28 67 59 108 92h13l34 -51c-44 -40 -92 -89 -141 -141zM338 0l8 290c1 47 -21 74 -63 74c-31 0 -63 -15 -96 -43l-1 -116l7 -205h-133l7 192l-6 264l127 11l-1 -68h8c37 34 78 58 120 72
c102 0 156 -48 154 -134l-3 -133l6 -204h-134z" />
    <glyph glyph-name="Eng" unicode="&#x14a;" horiz-adv-x="695" 
d="M610 199l3 -143c0 -110 -49 -171 -196 -227l-41 72v13c53 27 85 53 101 87l-270 435h-9l-1 -214l5 -222h-124l7 190l-6 454h146l262 -427h9l-4 421l126 8z" />
    <glyph glyph-name="eng" unicode="&#x14b;" horiz-adv-x="533" 
d="M466 204l6 -177c0 -106 -47 -170 -162 -222l-46 59v12c59 34 82 75 82 147v267c0 47 -21 74 -63 74c-32 0 -63 -15 -96 -43v-116l6 -205h-133l7 192l-6 264l127 11v-68h6c38 34 78 58 121 72c102 0 155 -48 154 -134z" />
    <glyph glyph-name="Omacron" unicode="&#x14c;" horiz-adv-x="643" 
d="M470 830l-6 -74h-280l-9 9l7 74h280zM333 653c180 0 282 -115 282 -317c0 -221 -110 -346 -304 -346c-181 0 -283 118 -283 324c0 217 110 339 305 339zM320 543c-106 0 -151 -61 -151 -211c0 -172 45 -237 153 -237c105 0 152 61 152 214c0 170 -45 234 -154 234z" />
    <glyph glyph-name="omacron" unicode="&#x14d;" horiz-adv-x="494" 
d="M395 651l-6 -74h-280l-9 9l7 74h280zM253 474c136 0 210 -82 210 -233c0 -162 -79 -251 -224 -251c-136 0 -210 83 -210 233c0 162 79 251 224 251zM245 384c-63 0 -91 -40 -91 -135c0 -124 29 -170 95 -170c63 0 90 38 90 135c0 122 -28 170 -94 170z" />
    <glyph glyph-name="Obreve" unicode="&#x14e;" horiz-adv-x="643" 
d="M442 869l31 -43c-25 -68 -79 -105 -153 -105c-72 0 -125 37 -148 105l31 43h19c17 -35 54 -56 103 -56c46 0 81 21 98 56h19zM333 653c180 0 282 -115 282 -317c0 -221 -110 -346 -304 -346c-181 0 -283 118 -283 324c0 217 110 339 305 339zM320 543
c-106 0 -151 -61 -151 -211c0 -172 45 -237 153 -237c105 0 152 61 152 214c0 170 -45 234 -154 234z" />
    <glyph glyph-name="obreve" unicode="&#x14f;" horiz-adv-x="494" 
d="M369 700l31 -45c-19 -70 -67 -125 -154 -125c-86 0 -130 58 -147 125l31 45h19c16 -51 53 -76 101 -76c49 0 85 25 100 76h19zM253 474c136 0 210 -82 210 -233c0 -162 -79 -251 -224 -251c-136 0 -210 83 -210 233c0 162 79 251 224 251zM245 384
c-63 0 -91 -40 -91 -135c0 -124 29 -170 95 -170c63 0 90 38 90 135c0 122 -28 170 -94 170z" />
    <glyph glyph-name="Ohungarumlaut" unicode="&#x150;" horiz-adv-x="643" 
d="M221 715l-42 34c36 45 72 88 105 134l11 2l61 -40l1 -11c-40 -40 -81 -78 -124 -116zM376 715l-42 34c36 45 71 88 105 134l10 2l62 -40l1 -11c-41 -40 -82 -78 -125 -116zM333 653c180 0 282 -115 282 -317c0 -221 -110 -346 -304 -346c-181 0 -283 118 -283 324
c0 217 110 339 305 339zM320 543c-106 0 -151 -61 -151 -211c0 -172 45 -237 153 -237c105 0 152 61 152 214c0 170 -45 234 -154 234z" />
    <glyph glyph-name="ohungarumlaut" unicode="&#x151;" horiz-adv-x="494" 
d="M148 520l-41 34c44 57 85 113 125 172l10 2l61 -44l1 -10c-47 -53 -95 -102 -144 -151zM301 520l-41 34c43 57 84 113 124 172l11 2l61 -44l1 -10c-47 -53 -95 -102 -144 -151zM253 474c136 0 210 -82 210 -233c0 -162 -79 -251 -224 -251c-136 0 -210 83 -210 233
c0 162 79 251 224 251zM245 384c-63 0 -91 -40 -91 -135c0 -124 29 -170 95 -170c63 0 90 38 90 135c0 122 -28 170 -94 170z" />
    <glyph glyph-name="OE" unicode="&#x152;" horiz-adv-x="869" 
d="M352 656c70 0 127 -12 184 -12h309l8 -11l-10 -101l-150 5h-121l-1 -156l107 -2l109 3l8 -10l-10 -101l-116 3l-101 -1v-71l1 -94l112 -2l161 6l8 -11l-9 -101h-305c-61 2 -133 -12 -204 -12c-193 0 -304 120 -304 327c0 216 120 341 324 341zM341 546
c-120 0 -172 -67 -172 -221c0 -161 52 -233 174 -233c37 0 69 5 82 13c14 7 20 19 19 43l-4 341c-1 25 -5 37 -13 43c-12 8 -46 14 -86 14z" />
    <glyph glyph-name="oe" unicode="&#x153;" horiz-adv-x="770" 
d="M715 216l-268 -1c5 -82 44 -126 127 -126c40 0 88 12 134 36l12 -7l-19 -98c-42 -18 -91 -30 -140 -30c-74 0 -131 27 -167 76c-35 -50 -89 -76 -161 -76c-132 0 -207 83 -207 236c0 160 81 247 219 247c69 0 120 -24 153 -72c36 47 91 72 160 72c116 0 180 -69 180 -183
c0 -17 -1 -41 -4 -55zM621 292l2 13c0 55 -27 81 -70 81c-55 0 -91 -35 -103 -99zM248 79c63 0 91 38 91 135c0 122 -29 170 -94 170c-64 0 -91 -40 -91 -135c0 -124 28 -170 94 -170z" />
    <glyph glyph-name="Racute" unicode="&#x154;" horiz-adv-x="590" 
d="M231 700l-32 50c64 51 122 98 181 153l13 -1l48 -72l-2 -13c-70 -43 -131 -81 -195 -118zM415 256c49 -76 99 -151 155 -224l-2 -15c-43 -15 -86 -24 -132 -27l-15 11c-40 71 -80 143 -117 216h-95v-13l6 -204h-137l8 192l-8 452l247 1c134 0 211 -68 211 -191
c0 -83 -45 -154 -121 -198zM211 322l98 -4c56 19 85 59 85 123c0 69 -37 101 -112 104l-68 -4z" />
    <glyph glyph-name="racute" unicode="&#x155;" horiz-adv-x="346" 
d="M346 651l-2 -13c-70 -43 -131 -81 -195 -118l-13 1l-32 50c64 51 122 98 181 153l13 -1zM187 376h7c35 64 78 90 122 90c8 0 17 -1 25 -2v-123l-14 -5c-12 5 -26 7 -36 7c-37 0 -73 -22 -105 -74v-64l7 -205h-133l7 192l-6 264l127 11z" />
    <glyph glyph-name="Rcommaaccent" unicode="&#x156;" horiz-adv-x="590" 
d="M415 256c49 -76 99 -151 155 -224l-2 -15c-43 -15 -86 -24 -132 -27l-15 11c-40 71 -80 143 -117 216h-95v-13l6 -204h-137l8 192l-8 452l247 1c134 0 211 -68 211 -191c0 -83 -45 -154 -121 -198zM211 322l98 -4c56 19 85 59 85 123c0 69 -37 101 -112 104l-68 -4z
M330 -40c27 -21 40 -46 40 -76c0 -54 -35 -104 -108 -156l-39 34l-1 9c34 28 50 56 50 88c0 21 -9 38 -28 54v10c27 16 55 29 86 37z" />
    <glyph glyph-name="rcommaaccent" unicode="&#x157;" horiz-adv-x="346" 
d="M316 466c8 0 17 -1 25 -2v-123l-14 -5c-12 5 -26 7 -36 7c-37 0 -73 -22 -105 -74v-64l7 -205h-133l7 192l-6 264l127 11l-1 -91h7c35 64 78 90 122 90zM160 -40c27 -21 40 -46 40 -76c0 -54 -35 -104 -108 -156l-39 34l-1 9c34 28 50 56 50 88c0 21 -9 38 -28 54v10
c27 16 55 29 86 37z" />
    <glyph glyph-name="Rcaron" unicode="&#x158;" horiz-adv-x="590" 
d="M310 703h-29c-43 47 -91 97 -140 141l33 51h13c42 -33 79 -64 109 -92c30 28 67 59 108 92h13l34 -51c-44 -40 -92 -89 -141 -141zM415 256c49 -76 99 -151 155 -224l-2 -15c-43 -15 -86 -24 -132 -27l-15 11c-40 71 -80 143 -117 216h-95v-13l6 -204h-137l8 192l-8 452
l247 1c134 0 211 -68 211 -191c0 -83 -45 -154 -121 -198zM211 322l98 -4c56 19 85 59 85 123c0 69 -37 101 -112 104l-68 -4z" />
    <glyph glyph-name="rcaron" unicode="&#x159;" horiz-adv-x="346" 
d="M216 524h-29c-43 47 -91 97 -140 141l33 51h13c42 -33 79 -64 109 -92c30 28 67 59 108 92h13l34 -51c-44 -40 -92 -89 -141 -141zM187 376h7c35 64 78 90 122 90c8 0 17 -1 25 -2v-123l-14 -5c-12 5 -26 7 -36 7c-37 0 -73 -22 -105 -74v-64l7 -205h-133l7 192l-6 264
l127 11z" />
    <glyph glyph-name="Sacute" unicode="&#x15a;" horiz-adv-x="498" 
d="M357 902l48 -72l-2 -13c-70 -43 -131 -81 -195 -118l-13 1l-32 50c64 51 122 98 181 153zM285 652c45 0 102 -8 163 -33l-22 -117l-20 -8c-46 33 -98 52 -137 52c-56 0 -88 -36 -88 -71c0 -104 283 -96 283 -285c0 -110 -95 -199 -242 -199c-61 0 -128 14 -191 41l19 126
l15 8c56 -49 126 -72 172 -72c62 0 93 36 93 73c0 110 -282 96 -282 286c0 113 96 199 237 199z" />
    <glyph glyph-name="sacute" unicode="&#x15b;" horiz-adv-x="384" 
d="M290 723l48 -72l-2 -13c-70 -43 -131 -81 -195 -118l-13 1l-32 50c64 51 122 98 181 153zM218 473c43 0 89 -8 127 -23l-17 -98l-17 -5c-39 26 -80 39 -109 39c-34 0 -52 -21 -52 -43c0 -74 206 -56 206 -201c0 -77 -58 -152 -186 -152c-44 0 -97 10 -149 30l16 104l12 8
c44 -36 99 -57 136 -57s57 22 57 46c0 74 -206 56 -206 204c0 84 66 148 182 148z" />
    <glyph glyph-name="Scircumflex" unicode="&#x15c;" horiz-adv-x="498" 
d="M140 705l-34 51c44 40 92 89 141 141h29c43 -47 91 -97 140 -141l-33 -51h-13c-42 33 -79 64 -109 92c-30 -28 -67 -59 -108 -92h-13zM285 652c45 0 102 -8 163 -33l-22 -117l-20 -8c-46 33 -98 52 -137 52c-56 0 -88 -36 -88 -71c0 -104 283 -96 283 -285
c0 -110 -95 -199 -242 -199c-61 0 -128 14 -191 41l19 126l15 8c56 -49 126 -72 172 -72c62 0 93 36 93 73c0 110 -282 96 -282 286c0 113 96 199 237 199z" />
    <glyph glyph-name="scircumflex" unicode="&#x15d;" horiz-adv-x="384" 
d="M73 526l-34 51c44 40 92 89 141 141h29c43 -47 91 -97 140 -141l-33 -51h-13c-42 33 -79 64 -109 92c-30 -28 -67 -59 -108 -92h-13zM218 473c43 0 89 -8 127 -23l-17 -98l-17 -5c-39 26 -80 39 -109 39c-34 0 -52 -21 -52 -43c0 -74 206 -56 206 -201
c0 -77 -58 -152 -186 -152c-44 0 -97 10 -149 30l16 104l12 8c44 -36 99 -57 136 -57s57 22 57 46c0 74 -206 56 -206 204c0 84 66 148 182 148z" />
    <glyph glyph-name="Scedilla" unicode="&#x15e;" horiz-adv-x="498" 
d="M464 190c0 -97 -74 -178 -193 -195l-10 -43l34 -19c31 -17 41 -36 41 -59c0 -44 -37 -75 -94 -75c-35 0 -61 12 -82 28l9 56l6 3c19 -19 39 -30 59 -30c15 0 24 7 24 21c0 10 -7 15 -17 20l-49 28l15 66c-57 2 -118 16 -176 41l19 126l15 8c56 -49 126 -72 172 -72
c62 0 93 36 93 73c0 110 -282 96 -282 286c0 113 96 199 237 199c45 0 102 -8 163 -33l-22 -117l-20 -8c-46 33 -98 52 -137 52c-56 0 -88 -36 -88 -71c0 -104 283 -96 283 -285z" />
    <glyph glyph-name="scedilla" unicode="&#x15f;" horiz-adv-x="384" 
d="M356 142c0 -67 -44 -133 -140 -148l-10 -42l34 -19c31 -17 41 -36 41 -59c0 -44 -37 -75 -94 -75c-35 0 -61 12 -82 28l9 56l6 3c19 -19 39 -30 59 -30c15 0 24 7 24 21c0 10 -7 15 -17 20l-49 28l15 66c-40 2 -86 12 -131 29l16 104l12 8c44 -36 99 -57 136 -57
s57 22 57 46c0 74 -206 56 -206 204c0 84 66 148 182 148c43 0 89 -8 127 -23l-17 -98l-17 -5c-39 26 -80 39 -109 39c-34 0 -52 -21 -52 -43c0 -74 206 -56 206 -201z" />
    <glyph glyph-name="Scaron" unicode="&#x160;" horiz-adv-x="498" 
d="M382 895l34 -51c-44 -40 -92 -89 -141 -141h-29c-43 47 -91 97 -140 141l33 51h13c42 -33 79 -64 109 -92c30 28 67 59 108 92h13zM285 652c45 0 102 -8 163 -33l-22 -117l-20 -8c-46 33 -98 52 -137 52c-56 0 -88 -36 -88 -71c0 -104 283 -96 283 -285
c0 -110 -95 -199 -242 -199c-61 0 -128 14 -191 41l19 126l15 8c56 -49 126 -72 172 -72c62 0 93 36 93 73c0 110 -282 96 -282 286c0 113 96 199 237 199z" />
    <glyph glyph-name="scaron" unicode="&#x161;" horiz-adv-x="384" 
d="M315 716l34 -51c-44 -40 -92 -89 -141 -141h-29c-43 47 -91 97 -140 141l33 51h13c42 -33 79 -64 109 -92c30 28 67 59 108 92h13zM218 473c43 0 89 -8 127 -23l-17 -98l-17 -5c-39 26 -80 39 -109 39c-34 0 -52 -21 -52 -43c0 -74 206 -56 206 -201
c0 -77 -58 -152 -186 -152c-44 0 -97 10 -149 30l16 104l12 8c44 -36 99 -57 136 -57s57 22 57 46c0 74 -206 56 -206 204c0 84 66 148 182 148z" />
    <glyph glyph-name="Tcedilla" unicode="&#x162;" horiz-adv-x="503" 
d="M489 633l-8 -101l-122 6h-38l-6 -334l6 -204h-39l-12 -48l34 -19c31 -17 41 -36 41 -59c0 -44 -37 -75 -94 -75c-35 0 -61 12 -82 28l9 56l6 3c19 -19 39 -30 59 -30c15 0 24 7 24 21c0 10 -7 15 -17 20l-49 28l17 75h-33l8 192l-6 346h-41l-122 -6l-9 11l9 101h457z" />
    <glyph glyph-name="tcedilla" unicode="&#x163;" horiz-adv-x="338" 
d="M249 98c19 0 42 5 67 17l10 -10l-12 -79c-32 -16 -64 -27 -98 -31l-10 -43l34 -19c31 -17 41 -36 41 -59c0 -44 -37 -75 -94 -75c-35 0 -61 12 -82 28l9 56l6 3c19 -19 39 -30 59 -30c15 0 24 7 24 21c0 10 -7 15 -17 20l-49 28l18 81c-54 19 -80 59 -80 120l5 83l-1 172
h-63l-4 7l6 73h60v77l120 39l10 -8l-3 -108h118l5 -7l-7 -73h-118l-6 -224c-1 -44 15 -59 52 -59z" />
    <glyph glyph-name="Tcaron" unicode="&#x164;" horiz-adv-x="503" 
d="M269 703h-29c-43 47 -91 97 -140 141l33 51h13c42 -33 79 -64 109 -92c30 28 67 59 108 92h13l34 -51c-44 -40 -92 -89 -141 -141zM489 633l-8 -101l-122 6h-38l-6 -334l6 -204h-136l8 192l-6 346h-41l-122 -6l-9 11l9 101h457z" />
    <glyph glyph-name="tcaron" unicode="&#x165;" horiz-adv-x="338" 
d="M250 505l-3 204l95 6l8 -9l-33 -199l-58 -9zM203 381l-6 -224c-1 -44 15 -59 52 -59c19 0 42 5 67 17l10 -10l-12 -79c-34 -17 -68 -28 -104 -32c-91 9 -135 53 -135 132l5 83l-1 172h-63l-4 7l6 73h60v77l120 39l10 -8l-3 -108h118l5 -7l-7 -73h-118z" />
    <glyph glyph-name="Tbar" unicode="&#x166;" horiz-adv-x="503" 
d="M321 538l-4 -197h98l9 -9l-6 -65h-102l-1 -63l6 -204h-136l8 192l-1 75h-90l-9 9l5 65h93l-4 197h-41l-122 -6l-9 11l9 101h457l8 -11l-8 -101l-122 6h-38z" />
    <glyph glyph-name="tbar" unicode="&#x167;" horiz-adv-x="343" 
d="M252 98c19 0 42 5 67 17l10 -10l-12 -79c-34 -17 -68 -28 -104 -32c-91 9 -135 53 -135 132l5 83v14h-58l-9 9l5 65h61v84h-63l-4 7l6 73h60v77l120 39l10 -8l-3 -108h118l4 -7l-6 -73h-118l-2 -84h104l9 -9l-5 -65h-110l-2 -66c-1 -44 15 -59 52 -59z" />
    <glyph glyph-name="Umacron" unicode="&#x16a;" horiz-adv-x="638" 
d="M468 830l-6 -74h-280l-9 9l7 74h280zM573 317l-1 -85c2 -154 -93 -241 -262 -241c-162 0 -251 84 -248 236l2 93l-3 324h136l-7 -399c-1 -97 41 -143 128 -143c86 0 129 44 128 136l-6 406h137z" />
    <glyph glyph-name="umacron" unicode="&#x16b;" horiz-adv-x="522" 
d="M406 651l-6 -74h-280l-9 9l7 74h280zM456 467l-9 -346c0 -22 7 -30 23 -30c7 0 14 1 26 4l10 -8l-12 -70c-20 -13 -43 -22 -73 -25c-41 4 -68 31 -80 75h-9c-39 -37 -77 -61 -118 -73c-101 0 -155 48 -155 134l3 118l-5 210l129 11l-3 -295c-1 -46 19 -71 59 -71
c30 0 59 14 87 39v316z" />
    <glyph glyph-name="Ubreve" unicode="&#x16c;" horiz-adv-x="638" 
d="M441 879l31 -45c-19 -70 -67 -125 -154 -125c-86 0 -130 58 -147 125l31 45h19c16 -51 53 -76 101 -76c49 0 85 25 100 76h19zM573 317l-1 -85c2 -154 -93 -241 -262 -241c-162 0 -251 84 -248 236l2 93l-3 324h136l-7 -399c-1 -97 41 -143 128 -143c86 0 129 44 128 136
l-6 406h137z" />
    <glyph glyph-name="ubreve" unicode="&#x16d;" horiz-adv-x="522" 
d="M379 700l31 -45c-19 -70 -67 -125 -154 -125c-86 0 -130 58 -147 125l31 45h19c16 -51 53 -76 101 -76c49 0 85 25 100 76h19zM456 467l-9 -346c0 -22 7 -30 23 -30c7 0 14 1 26 4l10 -8l-12 -70c-20 -13 -43 -22 -73 -25c-41 4 -68 31 -80 75h-9
c-39 -37 -77 -61 -118 -73c-101 0 -155 48 -155 134l3 118l-5 210l129 11l-3 -295c-1 -46 19 -71 59 -71c30 0 59 14 87 39v316z" />
    <glyph glyph-name="Uring" unicode="&#x16e;" horiz-adv-x="638" 
d="M322 903c62 0 94 -35 94 -91c0 -63 -39 -98 -99 -98c-57 0 -93 32 -93 94c0 60 35 95 98 95zM319 846c-27 0 -40 -12 -40 -37c0 -27 15 -40 41 -40s41 12 41 38c0 25 -13 39 -42 39zM573 317l-1 -85c2 -154 -93 -241 -262 -241c-162 0 -251 84 -248 236l2 93l-3 324h136
l-7 -399c-1 -97 41 -143 128 -143c86 0 129 44 128 136l-6 406h137z" />
    <glyph glyph-name="uring" unicode="&#x16f;" horiz-adv-x="522" 
d="M260 724c62 0 94 -35 94 -91c0 -63 -39 -98 -99 -98c-57 0 -93 32 -93 94c0 60 35 95 98 95zM257 667c-27 0 -40 -12 -40 -37c0 -27 15 -40 41 -40s41 12 41 38c0 25 -13 39 -42 39zM456 467l-9 -346c0 -22 7 -30 23 -30c7 0 14 1 26 4l10 -8l-12 -70
c-20 -13 -43 -22 -73 -25c-41 4 -68 31 -80 75h-9c-39 -37 -77 -61 -118 -73c-101 0 -155 48 -155 134l3 118l-5 210l129 11l-3 -295c-1 -46 19 -71 59 -71c30 0 59 14 87 39v316z" />
    <glyph glyph-name="Uhungarumlaut" unicode="&#x170;" horiz-adv-x="638" 
d="M219 715l-42 34c36 45 72 88 105 134l11 2l61 -40l1 -11c-40 -40 -81 -78 -124 -116zM374 715l-42 34c36 45 71 88 105 134l10 2l62 -40l1 -11c-41 -40 -82 -78 -125 -116zM573 317l-1 -85c2 -154 -93 -241 -262 -241c-162 0 -251 84 -248 236l2 93l-3 324h136l-7 -399
c-1 -97 41 -143 128 -143c86 0 129 44 128 136l-6 406h137z" />
    <glyph glyph-name="uhungarumlaut" unicode="&#x171;" horiz-adv-x="522" 
d="M158 520l-41 34c44 57 85 113 125 172l10 2l61 -44l1 -10c-47 -53 -95 -102 -144 -151zM311 520l-41 34c43 57 84 113 124 172l11 2l61 -44l1 -10c-47 -53 -95 -102 -144 -151zM456 467l-9 -346c0 -22 7 -30 23 -30c7 0 14 1 26 4l10 -8l-12 -70c-20 -13 -43 -22 -73 -25
c-41 4 -68 31 -80 75h-9c-39 -37 -77 -61 -118 -73c-101 0 -155 48 -155 134l3 118l-5 210l129 11l-3 -295c-1 -46 19 -71 59 -71c30 0 59 14 87 39v316z" />
    <glyph glyph-name="Uogonek" unicode="&#x172;" horiz-adv-x="638" 
d="M573 317l-1 -85c1 -83 -26 -147 -78 -188l-54 -86c-11 -16 -17 -34 -17 -48c0 -19 11 -33 36 -33c21 0 45 10 67 30h8l12 -54c-37 -33 -69 -50 -105 -50c-56 0 -90 37 -90 88c0 24 8 50 27 77l22 33c-27 -7 -57 -10 -90 -10c-162 0 -251 84 -248 236l2 93l-3 324h136
l-7 -399c-1 -97 41 -143 128 -143c86 0 129 44 128 136l-6 406h137z" />
    <glyph glyph-name="uogonek" unicode="&#x173;" horiz-adv-x="522" 
d="M500 -94l13 -56c-31 -29 -59 -47 -96 -47c-50 0 -86 34 -86 84c0 34 16 61 65 111c-27 11 -46 35 -55 69h-9c-39 -37 -77 -61 -118 -73c-101 0 -155 48 -155 134l3 118l-5 210l129 11l-3 -295c-1 -46 19 -71 59 -71c30 0 59 14 87 39v316l127 11l-9 -346
c0 -22 7 -30 23 -30c7 0 14 1 26 4l10 -8l-12 -70l-6 -4c-68 -63 -83 -85 -83 -105c0 -19 12 -30 32 -30c18 0 38 10 56 28h7z" />
    <glyph glyph-name="Wcircumflex" unicode="&#x174;" horiz-adv-x="903" 
d="M322 728l-25 53c50 33 94 68 134 104h27c41 -36 86 -71 134 -104l-24 -53h-13c-37 21 -74 41 -110 63c-36 -22 -73 -42 -110 -63h-13zM686 0h-142l-96 308h-9l-97 -308h-143l-180 644h132l11 -79l113 -425h9l109 347l-45 157h138l15 -93l116 -411h9l130 416l16 88h126z
" />
    <glyph glyph-name="wcircumflex" unicode="&#x175;" horiz-adv-x="698" 
d="M234 526l-34 51c44 40 92 89 141 141h29c43 -47 91 -97 140 -141l-33 -51h-13c-42 33 -79 64 -109 92c-30 -28 -67 -59 -108 -92h-13zM144 395l58 -261h7l70 254l17 77h128l10 -70l60 -260h7l69 253l16 77h111l-144 -465h-125l-72 299h-9l-83 -299h-130l-121 462l121 6z
" />
    <glyph glyph-name="Ycircumflex" unicode="&#x176;" horiz-adv-x="558" 
d="M154 728l-25 53c50 33 94 68 134 104h27c41 -36 86 -71 134 -104l-24 -53h-13c-37 21 -74 41 -110 63c-36 -22 -73 -42 -110 -63h-13zM333 179l6 -179h-136l8 179l-1 36l-206 429h143l15 -45l109 -245h9l122 241l18 49h140l-225 -425z" />
    <glyph glyph-name="ycircumflex" unicode="&#x177;" horiz-adv-x="447" 
d="M107 526l-34 51c44 40 92 89 141 141h29c43 -47 91 -97 140 -141l-33 -51h-13c-42 33 -79 64 -109 92c-30 -28 -67 -59 -108 -92h-13zM143 394l82 -259h9l81 247l16 83h116l-151 -433c-44 -126 -110 -186 -246 -224l-10 1c-26 24 -45 51 -60 80l5 14c82 14 138 43 185 97
l-170 462l128 6z" />
    <glyph glyph-name="Ydieresis" unicode="&#x178;" horiz-adv-x="558" 
d="M188 732c-39 0 -61 23 -61 63c0 41 25 67 66 67c39 0 61 -23 61 -62c0 -42 -25 -68 -66 -68zM362 732c-39 0 -61 23 -61 63c0 41 25 67 66 67c39 0 61 -23 61 -62c0 -42 -25 -68 -66 -68zM333 179l6 -179h-136l8 179l-1 36l-206 429h143l15 -45l109 -245h9l122 241l18 49
h140l-225 -425z" />
    <glyph glyph-name="Zacute" unicode="&#x179;" horiz-adv-x="547" 
d="M391 886l34 -79l-4 -12c-77 -30 -145 -54 -215 -78l-13 4l-22 55c73 37 139 72 208 113zM511 546l-321 -443h217l109 9l4 -8l-10 -107l-146 3h-257l-77 -4v97l323 447h-204l-109 -9l-6 7l11 107l404 -1l62 1v-99z" />
    <glyph glyph-name="zacute" unicode="&#x17a;" horiz-adv-x="424" 
d="M307 723l48 -72l-2 -13c-70 -43 -131 -81 -195 -118l-13 1l-32 50c64 51 122 98 181 153zM139 465h201l51 1l1 -79l-225 -302h141l85 8l7 -9l-9 -86l-116 2h-183l-64 -3l-1 78l227 304h-133l-84 -7l-7 9l9 86z" />
    <glyph glyph-name="Zdotaccent" unicode="&#x17b;" horiz-adv-x="547" 
d="M280 872c42 0 66 -25 66 -68c0 -45 -27 -74 -71 -74s-68 25 -68 69s28 73 73 73zM511 546l-321 -443h217l109 9l4 -8l-10 -107l-146 3h-257l-77 -4v97l323 447h-204l-109 -9l-6 7l11 107l404 -1l62 1v-99z" />
    <glyph glyph-name="zdotaccent" unicode="&#x17c;" horiz-adv-x="424" 
d="M214 693c42 0 66 -25 66 -68c0 -45 -27 -74 -71 -74s-68 25 -68 69s28 73 73 73zM139 465h201l51 1l1 -79l-225 -302h141l85 8l7 -9l-9 -86l-116 2h-183l-64 -3l-1 78l227 304h-133l-84 -7l-7 9l9 86z" />
    <glyph glyph-name="Zcaron" unicode="&#x17d;" horiz-adv-x="547" 
d="M400 875l25 -53c-50 -33 -94 -68 -134 -104h-27c-41 36 -86 71 -134 104l24 53h13c37 -21 74 -41 110 -63c36 22 73 42 110 63h13zM511 546l-321 -443h217l109 9l4 -8l-10 -107l-146 3h-257l-77 -4v97l323 447h-204l-109 -9l-6 7l11 107l404 -1l62 1v-99z" />
    <glyph glyph-name="zcaron" unicode="&#x17e;" horiz-adv-x="424" 
d="M332 716l34 -51c-44 -40 -92 -89 -141 -141h-29c-43 47 -91 97 -140 141l33 51h13c42 -33 79 -64 109 -92c30 28 67 59 108 92h13zM139 465h201l51 1l1 -79l-225 -302h141l85 8l7 -9l-9 -86l-116 2h-183l-64 -3l-1 78l227 304h-133l-84 -7l-7 9l9 86z" />
    <glyph glyph-name="florin" unicode="&#x192;" horiz-adv-x="316" 
d="M327 620c26 0 51 -3 80 -9l-19 -88l-9 -5c-31 13 -54 17 -73 17c-45 0 -68 -23 -75 -68l-11 -82h102l3 -8l-7 -66h-108l-18 -126l-15 -130c-11 -95 -46 -148 -140 -205l-54 53l1 10c52 39 73 74 82 139l15 122l16 137h-66l-4 7l7 67h71l8 62c14 112 92 173 214 173z" />
    <glyph glyph-name="Ohorn" unicode="&#x1a0;" horiz-adv-x="650" 
d="M593 776c36 0 68 -40 68 -94c0 -68 -51 -112 -117 -121c48 -55 72 -131 72 -229c0 -213 -111 -342 -303 -342c-183 0 -285 118 -285 323c0 218 115 340 294 340c89 0 132 -32 175 -32c35 0 60 20 60 53c0 23 -11 47 -31 66l3 10c18 14 42 26 64 26zM320 543
c-106 0 -151 -61 -151 -216c0 -167 46 -232 154 -232c105 0 151 61 151 219c0 165 -46 229 -154 229z" />
    <glyph glyph-name="ohorn" unicode="&#x1a1;" horiz-adv-x="495" 
d="M473 598c33 0 66 -35 66 -84c0 -68 -55 -123 -115 -124c27 -38 40 -89 40 -150c0 -162 -79 -250 -223 -250c-139 0 -212 82 -212 236c0 160 79 248 225 248c64 0 97 -24 132 -24c32 0 50 18 50 46c0 23 -12 42 -31 61l3 11c21 18 44 30 65 30zM245 384
c-64 0 -91 -42 -91 -141c0 -120 28 -164 94 -164c63 0 91 40 91 141c0 118 -28 164 -94 164z" />
    <glyph glyph-name="Uhorn" unicode="&#x1af;" horiz-adv-x="648" 
d="M669 705c0 -51 -36 -94 -93 -115l-3 -273l-1 -85c2 -154 -93 -241 -262 -241c-162 0 -251 84 -248 236l2 93l-3 324h136l-7 -399c-1 -97 41 -143 128 -143c86 0 129 44 128 136l-6 406h64c42 0 62 16 62 49c0 22 -10 41 -32 60l3 10c20 15 43 26 64 26
c35 0 68 -36 68 -84z" />
    <glyph glyph-name="uhorn" unicode="&#x1b0;" horiz-adv-x="531" 
d="M479 616c34 0 67 -35 67 -83c0 -53 -38 -96 -93 -115l-6 -296c0 -22 7 -30 23 -30c7 0 15 1 27 4l9 -8l-12 -71c-21 -14 -46 -23 -72 -24c-46 2 -72 26 -86 72h-7c-37 -36 -76 -59 -115 -71c-101 0 -155 48 -155 134l3 118l-5 210l129 11l-4 -295c0 -46 19 -71 60 -71
c30 0 58 14 87 39v316l45 6c47 7 68 23 68 53c0 20 -10 41 -31 60l3 11c22 18 45 30 65 30z" />
    <glyph glyph-name="Acaron" unicode="&#x1cd;" horiz-adv-x="600" 
d="M316 718h-27c-41 36 -86 71 -134 104l24 53h13c37 -21 74 -41 110 -63c36 22 73 42 110 63h13l25 -53c-50 -33 -94 -68 -134 -104zM584 0h-138l-16 84l-17 60l-126 3l-111 -3l-17 -53l-17 -91h-134l217 644h162zM384 249l-76 268h-9l-88 -268l85 -2z" />
    <glyph glyph-name="acaron" unicode="&#x1ce;" horiz-adv-x="481" 
d="M355 716l34 -51c-44 -40 -92 -89 -141 -141h-29c-43 47 -91 97 -140 141l33 51h13c42 -33 79 -64 109 -92c30 28 67 59 108 92h13zM244 474c102 0 164 -48 164 -131c0 -34 -11 -190 -11 -222c0 -22 6 -30 24 -30c6 0 14 1 26 4l9 -8l-11 -70c-21 -13 -44 -22 -74 -25
c-40 4 -68 29 -77 73h-7c-31 -33 -65 -59 -102 -74c-96 1 -155 54 -155 139c0 67 36 104 103 117l153 29v41c0 44 -21 65 -64 65c-42 0 -86 -18 -143 -58l-10 6l-15 88c59 37 126 56 190 56zM285 209l-105 -23c-22 -5 -32 -16 -32 -42c0 -35 20 -55 53 -55c28 0 55 17 82 46
z" />
    <glyph glyph-name="Icaron" unicode="&#x1cf;" horiz-adv-x="295" 
d="M270 875l25 -53c-50 -33 -94 -68 -134 -104h-27c-41 36 -86 71 -134 104l24 53h13c37 -21 74 -41 110 -63c36 22 73 42 110 63h13zM209 204l6 -204h-137l8 192l-8 452h138z" />
    <glyph glyph-name="icaron" unicode="&#x1d0;" horiz-adv-x="254" 
d="M250 716l34 -51c-44 -40 -92 -89 -141 -141h-29c-43 47 -91 97 -140 141l33 51h13c42 -33 79 -64 109 -92c30 28 67 59 108 92h13zM186 205l7 -205h-133l7 192l-6 264l133 11z" />
    <glyph glyph-name="Ocaron" unicode="&#x1d1;" horiz-adv-x="643" 
d="M446 875l25 -53c-50 -33 -94 -68 -134 -104h-27c-41 36 -86 71 -134 104l24 53h13c37 -21 74 -41 110 -63c36 22 73 42 110 63h13zM333 653c180 0 282 -115 282 -317c0 -221 -110 -346 -304 -346c-181 0 -283 118 -283 324c0 217 110 339 305 339zM320 543
c-106 0 -151 -61 -151 -211c0 -172 45 -237 153 -237c105 0 152 61 152 214c0 170 -45 234 -154 234z" />
    <glyph glyph-name="ocaron" unicode="&#x1d2;" horiz-adv-x="494" 
d="M370 716l34 -51c-44 -40 -92 -89 -141 -141h-29c-43 47 -91 97 -140 141l33 51h13c42 -33 79 -64 109 -92c30 28 67 59 108 92h13zM253 474c136 0 210 -82 210 -233c0 -162 -79 -251 -224 -251c-136 0 -210 83 -210 233c0 162 79 251 224 251zM245 384
c-63 0 -91 -40 -91 -135c0 -124 29 -170 95 -170c63 0 90 38 90 135c0 122 -28 170 -94 170z" />
    <glyph glyph-name="Ucaron" unicode="&#x1d3;" horiz-adv-x="638" 
d="M442 895l34 -51c-44 -40 -92 -89 -141 -141h-29c-43 47 -91 97 -140 141l33 51h13c42 -33 79 -64 109 -92c30 28 67 59 108 92h13zM573 317l-1 -85c2 -154 -93 -241 -262 -241c-162 0 -251 84 -248 236l2 93l-3 324h136l-7 -399c-1 -97 41 -143 128 -143
c86 0 129 44 128 136l-6 406h137z" />
    <glyph glyph-name="ucaron" unicode="&#x1d4;" horiz-adv-x="522" 
d="M380 716l34 -51c-44 -40 -92 -89 -141 -141h-29c-43 47 -91 97 -140 141l33 51h13c42 -33 79 -64 109 -92c30 28 67 59 108 92h13zM456 467l-9 -346c0 -22 7 -30 23 -30c7 0 14 1 26 4l10 -8l-12 -70c-20 -13 -43 -22 -73 -25c-41 4 -68 31 -80 75h-9
c-39 -37 -77 -61 -118 -73c-101 0 -155 48 -155 134l3 118l-5 210l129 11l-3 -295c-1 -46 19 -71 59 -71c30 0 59 14 87 39v316z" />
    <glyph glyph-name="Udieresismacron" unicode="&#x1d5;" horiz-adv-x="638" 
d="M469 971l-7 -75h-279l-10 10l7 75h280zM236 839c37 0 58 -22 58 -60c0 -39 -24 -65 -63 -65c-38 0 -59 22 -59 61s24 64 64 64zM410 839c37 0 58 -22 58 -60c0 -39 -24 -65 -63 -65c-38 0 -59 22 -59 61s24 64 64 64zM573 317l-1 -85c2 -154 -93 -241 -262 -241
c-162 0 -251 84 -248 236l2 93l-3 324h136l-7 -399c-1 -97 41 -143 128 -143c86 0 129 44 128 136l-6 406h137z" />
    <glyph glyph-name="udieresismacron" unicode="&#x1d6;" horiz-adv-x="522" 
d="M407 792l-7 -75h-279l-10 10l7 75h280zM174 660c37 0 58 -22 58 -60c0 -39 -24 -65 -63 -65c-38 0 -59 22 -59 61s24 64 64 64zM348 660c37 0 58 -22 58 -60c0 -39 -24 -65 -63 -65c-38 0 -59 22 -59 61s24 64 64 64zM456 467l-9 -346c0 -22 7 -30 23 -30c7 0 14 1 26 4
l10 -8l-12 -70c-20 -13 -43 -22 -73 -25c-41 4 -68 31 -80 75h-9c-39 -37 -77 -61 -118 -73c-101 0 -155 48 -155 134l3 118l-5 210l129 11l-3 -295c-1 -46 19 -71 59 -71c30 0 59 14 87 39v316z" />
    <glyph glyph-name="Udieresisacute" unicode="&#x1d7;" horiz-adv-x="638" 
d="M425 1019l20 -83l-7 -12c-80 -15 -151 -28 -225 -38l-12 5l-11 59c77 23 148 46 223 75zM236 839c37 0 58 -22 58 -60c0 -39 -24 -65 -63 -65c-38 0 -59 22 -59 61s24 64 64 64zM410 839c37 0 58 -22 58 -60c0 -39 -24 -65 -63 -65c-38 0 -59 22 -59 61s24 64 64 64z
M573 317l-1 -85c2 -154 -93 -241 -262 -241c-162 0 -251 84 -248 236l2 93l-3 324h136l-7 -399c-1 -97 41 -143 128 -143c86 0 129 44 128 136l-6 406h137z" />
    <glyph glyph-name="udieresisacute" unicode="&#x1d8;" horiz-adv-x="522" 
d="M363 840l20 -83l-7 -12c-80 -15 -151 -28 -225 -38l-12 5l-11 59c77 23 148 46 223 75zM174 660c37 0 58 -22 58 -60c0 -39 -24 -65 -63 -65c-38 0 -59 22 -59 61s24 64 64 64zM348 660c37 0 58 -22 58 -60c0 -39 -24 -65 -63 -65c-38 0 -59 22 -59 61s24 64 64 64z
M456 467l-9 -346c0 -22 7 -30 23 -30c7 0 14 1 26 4l10 -8l-12 -70c-20 -13 -43 -22 -73 -25c-41 4 -68 31 -80 75h-9c-39 -37 -77 -61 -118 -73c-101 0 -155 48 -155 134l3 118l-5 210l129 11l-3 -295c-1 -46 19 -71 59 -71c30 0 59 14 87 39v316z" />
    <glyph glyph-name="Udieresiscaron" unicode="&#x1d9;" horiz-adv-x="638" 
d="M443 1010l25 -53c-50 -34 -94 -69 -134 -104h-27c-41 35 -86 70 -134 104l24 53h13c37 -21 74 -42 110 -63c36 21 73 42 110 63h13zM236 839c37 0 58 -22 58 -60c0 -39 -24 -65 -63 -65c-38 0 -59 22 -59 61s24 64 64 64zM410 839c37 0 58 -22 58 -60
c0 -39 -24 -65 -63 -65c-38 0 -59 22 -59 61s24 64 64 64zM573 317l-1 -85c2 -154 -93 -241 -262 -241c-162 0 -251 84 -248 236l2 93l-3 324h136l-7 -399c-1 -97 41 -143 128 -143c86 0 129 44 128 136l-6 406h137z" />
    <glyph glyph-name="udieresiscaron" unicode="&#x1da;" horiz-adv-x="522" 
d="M381 831l25 -53c-50 -34 -94 -69 -134 -104h-27c-41 35 -86 70 -134 104l24 53h13c37 -21 74 -42 110 -63c36 21 73 42 110 63h13zM174 660c37 0 58 -22 58 -60c0 -39 -24 -65 -63 -65c-38 0 -59 22 -59 61s24 64 64 64zM348 660c37 0 58 -22 58 -60
c0 -39 -24 -65 -63 -65c-38 0 -59 22 -59 61s24 64 64 64zM456 467l-9 -346c0 -22 7 -30 23 -30c7 0 14 1 26 4l10 -8l-12 -70c-20 -13 -43 -22 -73 -25c-41 4 -68 31 -80 75h-9c-39 -37 -77 -61 -118 -73c-101 0 -155 48 -155 134l3 118l-5 210l129 11l-3 -295
c-1 -46 19 -71 59 -71c30 0 59 14 87 39v316z" />
    <glyph glyph-name="Udieresisgrave" unicode="&#x1db;" horiz-adv-x="638" 
d="M209 1019l12 6c75 -29 146 -52 224 -75l-12 -59l-12 -5c-73 10 -145 23 -225 38l-6 12zM236 839c37 0 58 -22 58 -60c0 -39 -24 -65 -63 -65c-38 0 -59 22 -59 61s24 64 64 64zM410 839c37 0 58 -22 58 -60c0 -39 -24 -65 -63 -65c-38 0 -59 22 -59 61s24 64 64 64z
M573 317l-1 -85c2 -154 -93 -241 -262 -241c-162 0 -251 84 -248 236l2 93l-3 324h136l-7 -399c-1 -97 41 -143 128 -143c86 0 129 44 128 136l-6 406h137z" />
    <glyph glyph-name="udieresisgrave" unicode="&#x1dc;" horiz-adv-x="522" 
d="M147 840l12 6c75 -29 146 -52 224 -75l-12 -59l-12 -5c-73 10 -145 23 -225 38l-6 12zM174 660c37 0 58 -22 58 -60c0 -39 -24 -65 -63 -65c-38 0 -59 22 -59 61s24 64 64 64zM348 660c37 0 58 -22 58 -60c0 -39 -24 -65 -63 -65c-38 0 -59 22 -59 61s24 64 64 64z
M456 467l-9 -346c0 -22 7 -30 23 -30c7 0 14 1 26 4l10 -8l-12 -70c-20 -13 -43 -22 -73 -25c-41 4 -68 31 -80 75h-9c-39 -37 -77 -61 -118 -73c-101 0 -155 48 -155 134l3 118l-5 210l129 11l-3 -295c-1 -46 19 -71 59 -71c30 0 59 14 87 39v316z" />
    <glyph glyph-name="Oogonek" unicode="&#x1ea;" horiz-adv-x="643" 
d="M440 13l-34 -51c-10 -17 -16 -33 -16 -47c0 -21 12 -37 38 -37c20 0 43 11 65 29h7l11 -55c-37 -33 -68 -49 -103 -49c-56 0 -91 38 -91 88c0 26 8 54 29 82l14 20c-16 -2 -32 -3 -49 -3c-181 0 -283 118 -283 324c0 217 110 339 305 339c180 0 282 -115 282 -317
c0 -166 -62 -278 -175 -323zM169 332c0 -172 45 -237 153 -237c105 0 152 61 152 214c0 170 -45 234 -154 234c-106 0 -151 -61 -151 -211z" />
    <glyph glyph-name="oogonek" unicode="&#x1eb;" horiz-adv-x="494" 
d="M313 -1l-25 -38c-10 -17 -16 -33 -16 -47c0 -21 12 -37 38 -37c20 0 43 11 65 29h7l11 -55c-37 -33 -68 -49 -103 -49c-56 0 -91 38 -91 88c0 26 8 54 29 82l13 18h-2c-136 0 -210 83 -210 233c0 162 79 251 224 251c136 0 210 -82 210 -233c0 -132 -52 -215 -150 -242z
M154 249c0 -124 29 -170 95 -170c63 0 90 38 90 135c0 122 -28 170 -94 170c-63 0 -91 -40 -91 -135z" />
    <glyph glyph-name="Aringacute" unicode="&#x1fa;" horiz-adv-x="600" 
d="M216 797l-13 58c77 25 147 50 222 80l12 -5l21 -83l-6 -11c-80 -18 -151 -32 -224 -45zM584 0h-138l-16 82l-17 59l-126 3l-111 -3l-17 -52l-17 -89h-134l220 621c-11 15 -17 35 -17 61c0 60 35 95 98 95c62 0 94 -35 94 -91c0 -27 -7 -49 -20 -65zM306 720
c-27 0 -40 -12 -40 -37c0 -27 15 -40 41 -40s41 12 41 38c0 25 -13 39 -42 39zM383 244l-75 261h-9l-88 -261l85 -2z" />
    <glyph glyph-name="aringacute" unicode="&#x1fb;" horiz-adv-x="481" 
d="M363 876l21 -83l-6 -11c-80 -18 -151 -32 -224 -45l-12 6l-13 58c77 25 147 50 222 80zM235 724c62 0 94 -35 94 -91c0 -63 -39 -98 -99 -98c-57 0 -93 32 -93 94c0 60 35 95 98 95zM232 667c-27 0 -40 -12 -40 -37c0 -27 15 -40 41 -40s41 12 41 38c0 25 -13 39 -42 39z
M244 474c102 0 164 -48 164 -131c0 -34 -11 -190 -11 -222c0 -22 6 -30 24 -30c6 0 14 1 26 4l9 -8l-11 -70c-21 -13 -44 -22 -74 -25c-40 4 -68 29 -77 73h-7c-31 -33 -65 -59 -102 -74c-96 1 -155 54 -155 139c0 67 36 104 103 117l153 29v41c0 44 -21 65 -64 65
c-42 0 -86 -18 -143 -58l-10 6l-15 88c59 37 126 56 190 56zM285 209l-105 -23c-22 -5 -32 -16 -32 -42c0 -35 20 -55 53 -55c28 0 55 17 82 46z" />
    <glyph glyph-name="AEacute" unicode="&#x1fc;" horiz-adv-x="822" 
d="M419 721l-22 55c73 37 139 72 208 113l12 -3l34 -79l-4 -12c-77 -30 -145 -54 -215 -78zM815 101l-9 -101h-389l-5 84l-17 137l-213 -56l-35 -74l-29 -91h-135l309 644h441l8 -11l-10 -101l-156 5h-87l21 -181l195 50l10 -8l11 -95l-204 -48l18 -149h103l165 6zM382 323
l-24 194h-8l-110 -231z" />
    <glyph glyph-name="aeacute" unicode="&#x1fd;" horiz-adv-x="694" 
d="M285 521l-32 50c64 51 122 98 181 153l13 -1l48 -72l-2 -13c-70 -43 -131 -81 -195 -118zM493 473c112 0 183 -74 173 -213l-12 -16l-266 -31c6 -85 42 -125 118 -125c39 0 87 12 130 36l12 -7l-19 -97c-40 -18 -92 -30 -134 -30c-77 0 -137 29 -173 86
c-34 -36 -75 -66 -125 -85c-101 1 -169 49 -169 137c0 63 34 112 103 120l150 16v53c0 44 -20 65 -63 65c-39 0 -84 -18 -142 -59l-9 6l-16 90c57 36 122 55 183 55c60 0 100 -21 122 -53c35 34 84 52 137 52zM480 386c-53 -1 -93 -47 -93 -107v-1l163 23
c1 58 -25 85 -70 85zM201 90c26 0 48 12 89 49c-4 22 -7 40 -8 59l-96 -14c-29 -5 -39 -19 -39 -42c0 -34 21 -52 54 -52z" />
    <glyph glyph-name="Oslashacute" unicode="&#x1fe;" horiz-adv-x="643" 
d="M238 722l-22 55c73 37 139 72 208 113l12 -3l34 -79l-4 -12c-77 -30 -145 -54 -215 -78zM563 704l-51 -106c67 -52 103 -142 103 -262c0 -221 -110 -346 -304 -346c-31 0 -59 3 -85 10l-57 -119l-85 31l-6 12l57 119c-70 54 -107 146 -107 271c0 217 110 339 305 339
c32 0 61 -4 88 -11l51 106l83 -30zM322 95c105 0 152 61 152 214c0 170 -45 234 -154 234c-106 0 -151 -61 -151 -211c0 -172 45 -237 153 -237z" />
    <glyph glyph-name="oslashacute" unicode="&#x1ff;" horiz-adv-x="494" 
d="M182 521l-32 50c64 51 122 98 181 153l13 -1l48 -72l-2 -13c-70 -43 -131 -81 -195 -118zM460 523l-57 -102c39 -40 60 -100 60 -180c0 -162 -79 -251 -224 -251c-24 0 -47 3 -67 8l-69 -123l-76 37l-3 11l66 120c-40 39 -61 100 -61 180c0 162 79 251 224 251
c25 0 48 -3 69 -8l59 105l72 -36zM249 79c63 0 90 38 90 135c0 122 -28 170 -94 170c-63 0 -91 -40 -91 -135c0 -124 29 -170 95 -170z" />
    <glyph glyph-name="Scommaaccent" unicode="&#x218;" horiz-adv-x="498" 
d="M285 652c45 0 102 -8 163 -33l-22 -117l-20 -8c-46 33 -98 52 -137 52c-56 0 -88 -36 -88 -71c0 -104 283 -96 283 -285c0 -110 -95 -199 -242 -199c-61 0 -128 14 -191 41l19 126l15 8c56 -49 126 -72 172 -72c62 0 93 36 93 73c0 110 -282 96 -282 286
c0 113 96 199 237 199zM275 -40c27 -21 40 -46 40 -76c0 -54 -35 -104 -108 -156l-39 34l-1 9c34 28 50 56 50 88c0 21 -9 38 -28 54v10c27 16 55 29 86 37z" />
    <glyph glyph-name="scommaaccent" unicode="&#x219;" horiz-adv-x="384" 
d="M218 473c43 0 89 -8 127 -23l-17 -98l-17 -5c-39 26 -80 39 -109 39c-34 0 -52 -21 -52 -43c0 -74 206 -56 206 -201c0 -77 -58 -152 -186 -152c-44 0 -97 10 -149 30l16 104l12 8c44 -36 99 -57 136 -57s57 22 57 46c0 74 -206 56 -206 204c0 84 66 148 182 148z
M220 -40c27 -21 40 -46 40 -76c0 -54 -35 -104 -108 -156l-39 34l-1 9c34 28 50 56 50 88c0 21 -9 38 -28 54v10c27 16 55 29 86 37z" />
    <glyph glyph-name="Tcommaaccent" unicode="&#x21a;" horiz-adv-x="503" 
d="M489 633l-8 -101l-122 6h-38l-6 -334l6 -204h-136l8 192l-6 346h-41l-122 -6l-9 11l9 101h457zM284 -40c27 -21 40 -46 40 -76c0 -54 -35 -104 -108 -156l-39 34l-1 9c34 28 50 56 50 88c0 21 -9 38 -28 54v10c27 16 55 29 86 37z" />
    <glyph glyph-name="tcommaaccent" unicode="&#x21b;" horiz-adv-x="338" 
d="M249 98c19 0 42 5 67 17l10 -10l-12 -79c-34 -17 -68 -28 -104 -32c-91 9 -135 53 -135 132l5 83l-1 172h-63l-4 7l6 73h60v77l120 39l10 -8l-3 -108h118l5 -7l-7 -73h-118l-6 -224c-1 -44 15 -59 52 -59zM220 -40c27 -21 40 -46 40 -76c0 -54 -35 -104 -108 -156l-39 34
l-1 9c34 28 50 56 50 88c0 21 -9 38 -28 54v10c27 16 55 29 86 37z" />
    <glyph glyph-name="dotlessj" unicode="&#x237;" horiz-adv-x="285" 
d="M220 465l-8 -260l6 -178c0 -106 -48 -170 -163 -222l-46 59v12c60 34 83 75 83 147l2 169l-4 189h-81l-8 8l7 72h84l124 7z" />
    <glyph glyph-name="circumflex" unicode="&#x2c6;" 
d="M72 526l-33 51c43 39 92 88 141 141h28c43 -48 92 -97 141 -141l-34 -51h-13c-41 33 -78 63 -108 92c-30 -29 -67 -59 -108 -92h-14z" />
    <glyph glyph-name="caron" unicode="&#x2c7;" 
d="M315 716l34 -51c-44 -40 -92 -89 -141 -141h-29c-43 47 -91 97 -140 141l33 51h13c42 -33 79 -64 109 -92c30 28 67 59 108 92h13z" />
    <glyph glyph-name="firsttonechinese" unicode="&#x2c9;" 
d="M342 651l-6 -74h-280l-9 9l7 74h280z" />
    <glyph glyph-name="breve" unicode="&#x2d8;" 
d="M314 700l31 -45c-19 -70 -67 -125 -154 -125c-86 0 -130 58 -147 125l31 45h19c16 -51 53 -76 101 -76c49 0 85 25 100 76h19z" />
    <glyph glyph-name="dotaccent" unicode="&#x2d9;" horiz-adv-x="255" 
d="M131 693c42 0 66 -25 66 -68c0 -45 -28 -74 -72 -74c-43 0 -67 25 -67 68c0 45 28 74 73 74z" />
    <glyph glyph-name="ring" unicode="&#x2da;" 
d="M196 724c62 0 94 -35 94 -91c0 -63 -39 -98 -99 -98c-57 0 -93 32 -93 94c0 60 35 95 98 95zM193 667c-27 0 -40 -12 -40 -37c0 -27 15 -40 41 -40s41 12 41 38c0 25 -13 39 -42 39z" />
    <glyph glyph-name="ogonek" unicode="&#x2db;" 
d="M252 63l-67 -101c-10 -17 -16 -33 -16 -47c0 -21 12 -37 38 -37c20 0 43 11 65 29h7l11 -55c-37 -33 -68 -49 -103 -49c-56 0 -91 38 -91 88c0 26 8 54 29 82l64 90h63z" />
    <glyph glyph-name="tilde" unicode="&#x2dc;" 
d="M369 662v-11l-70 -89l-13 -5c-46 6 -128 35 -154 35c-20 0 -38 -25 -62 -51h-12l-40 39v11l71 89l12 5c47 -6 129 -35 154 -35c21 0 39 24 63 51h12z" />
    <glyph glyph-name="hungarumlaut" unicode="&#x2dd;" 
d="M60 520l-41 34c44 57 85 113 125 172l10 2l61 -44l1 -10c-47 -53 -95 -102 -144 -151zM213 520l-41 34c43 57 84 113 124 172l11 2l61 -44l1 -10c-47 -53 -95 -102 -144 -151z" />
    <glyph glyph-name="tildecomb" unicode="&#x303;" horiz-adv-x="0" 
d="M369 662v-11l-71 -90l-12 -4c-47 6 -128 35 -154 35c-20 0 -38 -25 -62 -51h-12l-40 39v11l71 89l13 5c46 -6 128 -35 153 -35c21 0 39 24 63 51h12z" />
    <glyph glyph-name="dotbelowcomb" unicode="&#x323;" horiz-adv-x="0" 
d="M121 -52c42 0 66 -26 66 -68c0 -46 -28 -74 -72 -74c-43 0 -67 25 -67 68c0 45 28 74 73 74z" />
    <glyph glyph-name="commaaccent" unicode="&#x326;" horiz-adv-x="0" 
d="M138 -40c27 -21 40 -46 40 -76c0 -53 -35 -103 -108 -155l-38 34l-1 9c33 27 49 56 49 87c0 21 -9 38 -28 54v10c27 16 55 29 86 37z" />
    <glyph glyph-name="Delta" unicode="&#x394;" horiz-adv-x="600" 
d="M584 0h-576l217 644h162zM299 517l-136 -413h262l-117 413h-9z" />
    <glyph glyph-name="Omega" unicode="&#x3a9;" horiz-adv-x="754" 
d="M383 653c193 0 289 -121 289 -275c0 -95 -37 -192 -115 -272l2 -4h78l84 8l7 -8l-15 -108l-115 6h-141l-38 -2l-6 5v86c79 70 117 163 117 266c0 114 -47 189 -155 189c-107 0 -152 -73 -152 -184c0 -105 39 -200 116 -271v-86l-6 -5l-38 2h-164l-99 -4l-7 9l15 104
l92 -8l61 1l2 4c-79 79 -114 170 -114 261c0 160 105 286 302 286z" />
    <glyph glyph-name="mu" unicode="&#x3bc;" horiz-adv-x="522" 
d="M505 88l-14 -71c-21 -15 -46 -24 -71 -24c-45 0 -70 20 -86 69h-8c-33 -34 -66 -57 -107 -68c-13 0 -26 1 -37 4v-183h-125l4 377l-4 264l125 11v-295c0 -46 21 -71 62 -71c30 0 56 14 85 39v316l126 11l-8 -342c-1 -26 7 -37 23 -37c7 0 16 3 25 7z" />
    <glyph glyph-name="pi" unicode="&#x3c0;" horiz-adv-x="672" 
d="M537 398l-4 -273c0 -26 7 -37 23 -37c9 0 21 3 32 8l10 -7l-14 -72c-28 -15 -52 -24 -72 -24c-52 0 -98 27 -98 114v292h-131v-194l4 -295h-129l4 282l-3 207h-17c-27 0 -55 -40 -91 -77h-14l-40 50v14l91 111l18 8h399l118 2l8 -11l-9 -99z" />
    <glyph glyph-name="Wgrave" unicode="&#x1e80;" horiz-adv-x="903" 
d="M354 887l12 3c69 -41 135 -76 208 -113l-22 -55l-13 -4c-70 24 -138 48 -215 78l-4 12zM686 0h-142l-96 308h-9l-97 -308h-143l-180 644h132l11 -79l113 -425h9l109 347l-45 157h138l15 -93l116 -411h9l130 416l16 88h126z" />
    <glyph glyph-name="wgrave" unicode="&#x1e81;" horiz-adv-x="698" 
d="M282 723l13 1c59 -55 117 -102 181 -153l-32 -50l-13 -1c-64 37 -125 75 -195 118l-2 13zM144 395l58 -261h7l70 254l17 77h128l10 -70l60 -260h7l69 253l16 77h111l-144 -465h-125l-72 299h-9l-83 -299h-130l-121 462l121 6z" />
    <glyph glyph-name="Wacute" unicode="&#x1e82;" horiz-adv-x="903" 
d="M560 886l34 -79l-4 -12c-77 -30 -145 -54 -215 -78l-13 4l-22 55c73 37 139 72 208 113zM686 0h-142l-96 308h-9l-97 -308h-143l-180 644h132l11 -79l113 -425h9l109 347l-45 157h138l15 -93l116 -411h9l130 416l16 88h126z" />
    <glyph glyph-name="wacute" unicode="&#x1e83;" horiz-adv-x="698" 
d="M452 723l48 -72l-2 -13c-70 -43 -131 -81 -195 -118l-13 1l-32 50c64 51 122 98 181 153zM144 395l58 -261h7l70 254l17 77h128l10 -70l60 -260h7l69 253l16 77h111l-144 -465h-125l-72 299h-9l-83 -299h-130l-121 462l121 6z" />
    <glyph glyph-name="Wdieresis" unicode="&#x1e84;" horiz-adv-x="903" 
d="M362 862c39 0 61 -23 61 -62c0 -42 -25 -68 -66 -68c-39 0 -61 23 -61 63c0 41 25 67 66 67zM536 862c39 0 61 -23 61 -62c0 -42 -25 -68 -66 -68c-39 0 -61 23 -61 63c0 41 25 67 66 67zM686 0h-142l-96 308h-9l-97 -308h-143l-180 644h132l11 -79l113 -425h9l109 347
l-45 157h138l15 -93l116 -411h9l130 416l16 88h126z" />
    <glyph glyph-name="wdieresis" unicode="&#x1e85;" horiz-adv-x="698" 
d="M272 683c39 0 61 -23 61 -62c0 -42 -25 -68 -66 -68c-39 0 -61 23 -61 63c0 41 25 67 66 67zM446 683c39 0 61 -23 61 -62c0 -42 -25 -68 -66 -68c-39 0 -61 23 -61 63c0 41 25 67 66 67zM144 395l58 -261h7l70 254l17 77h128l10 -70l60 -260h7l69 253l16 77h111
l-144 -465h-125l-72 299h-9l-83 -299h-130l-121 462l121 6z" />
    <glyph glyph-name="Germandbls" unicode="&#x1e9e;" horiz-adv-x="668" 
d="M339 652c92 0 170 -25 260 -67l6 -20l-144 -188c124 -60 188 -101 188 -199c0 -124 -100 -187 -219 -187c-58 0 -122 14 -176 41l19 126l15 8c50 -45 107 -71 151 -71c46 0 76 28 76 68c0 51 -55 89 -212 151l-5 21l139 185c-39 16 -71 23 -107 23
c-92 0 -136 -44 -136 -128l-3 -210l6 -205h-137l8 190l-4 225c-1 142 97 237 275 237z" />
    <glyph glyph-name="Adotbelow" unicode="&#x1ea0;" horiz-adv-x="600" 
d="M584 0h-138l-16 84l-17 60l-126 3l-111 -3l-17 -53l-17 -91h-134l217 644h162zM384 249l-76 268h-9l-88 -268l85 -2zM299 -52c42 0 66 -25 66 -68c0 -45 -27 -74 -71 -74s-68 25 -68 69s28 73 73 73z" />
    <glyph glyph-name="adotbelow" unicode="&#x1ea1;" horiz-adv-x="481" 
d="M244 474c102 0 164 -48 164 -131c0 -34 -11 -190 -11 -222c0 -22 6 -30 24 -30c6 0 14 1 26 4l9 -8l-11 -70c-21 -13 -44 -22 -74 -25c-40 4 -68 29 -77 73h-7c-31 -33 -65 -59 -102 -74c-96 1 -155 54 -155 139c0 67 36 104 103 117l153 29v41c0 44 -21 65 -64 65
c-42 0 -86 -18 -143 -58l-10 6l-15 88c59 37 126 56 190 56zM285 209l-105 -23c-22 -5 -32 -16 -32 -42c0 -35 20 -55 53 -55c28 0 55 17 82 46zM236 -52c42 0 66 -25 66 -68c0 -45 -27 -74 -71 -74s-68 25 -68 69s28 73 73 73z" />
    <glyph glyph-name="Ahookabove" unicode="&#x1ea2;" horiz-adv-x="600" 
d="M273 857c-19 0 -44 -9 -64 -25l-22 36c30 31 68 51 105 51c45 0 80 -30 80 -71c0 -27 -15 -48 -55 -83l23 -39l-49 -28l-42 66c33 24 52 52 52 71c0 15 -12 22 -28 22zM584 0h-138l-16 84l-17 60l-126 3l-111 -3l-17 -53l-17 -91h-134l217 644h162zM384 249l-76 268h-9
l-88 -268l85 -2z" />
    <glyph glyph-name="ahookabove" unicode="&#x1ea3;" horiz-adv-x="481" 
d="M224 740c45 0 80 -30 80 -71c0 -27 -15 -48 -55 -83l23 -39l-49 -28l-42 66c33 24 52 52 52 71c0 15 -12 22 -28 22c-19 0 -44 -9 -64 -25l-22 36c30 31 68 51 105 51zM244 474c102 0 164 -48 164 -131c0 -34 -11 -190 -11 -222c0 -22 6 -30 24 -30c6 0 14 1 26 4l9 -8
l-11 -70c-21 -13 -44 -22 -74 -25c-40 4 -68 29 -77 73h-7c-31 -33 -65 -59 -102 -74c-96 1 -155 54 -155 139c0 67 36 104 103 117l153 29v41c0 44 -21 65 -64 65c-42 0 -86 -18 -143 -58l-10 6l-15 88c59 37 126 56 190 56zM285 209l-105 -23c-22 -5 -32 -16 -32 -42
c0 -35 20 -55 53 -55c28 0 55 17 82 46z" />
    <glyph glyph-name="Acircumflexacute" unicode="&#x1ea4;" horiz-adv-x="600" 
d="M402 833l-45 34l70 124l9 4l67 -29l3 -10l-95 -123h-9zM178 708l-25 53c50 33 94 68 134 104h27c41 -36 86 -71 134 -104l-24 -53h-13c-37 21 -74 41 -110 63c-36 -22 -73 -42 -110 -63h-13zM584 0h-138l-16 84l-17 60l-126 3l-111 -3l-17 -53l-17 -91h-134l217 644h162z
M384 249l-76 268h-9l-88 -268l85 -2z" />
    <glyph glyph-name="acircumflexacute" unicode="&#x1ea5;" horiz-adv-x="481" 
d="M435 787l3 -10l-95 -123h-9l-45 34l70 124l9 4zM110 529l-25 53c50 33 94 68 134 104h27c41 -36 86 -71 134 -104l-24 -53h-13c-37 21 -74 41 -110 63c-36 -22 -73 -42 -110 -63h-13zM244 474c102 0 164 -48 164 -131c0 -34 -11 -190 -11 -222c0 -22 6 -30 24 -30
c6 0 14 1 26 4l9 -8l-11 -70c-21 -13 -44 -22 -74 -25c-40 4 -68 29 -77 73h-7c-31 -33 -65 -59 -102 -74c-96 1 -155 54 -155 139c0 67 36 104 103 117l153 29v41c0 44 -21 65 -64 65c-42 0 -86 -18 -143 -58l-10 6l-15 88c59 37 126 56 190 56zM285 209l-105 -23
c-22 -5 -32 -16 -32 -42c0 -35 20 -55 53 -55c28 0 55 17 82 46z" />
    <glyph glyph-name="Acircumflexgrave" unicode="&#x1ea6;" horiz-adv-x="600" 
d="M409 833l-95 123l3 10l67 29l9 -4l70 -124l-44 -34h-10zM178 708l-25 53c50 33 94 68 134 104h27c41 -36 86 -71 134 -104l-24 -53h-13c-37 21 -74 41 -110 63c-36 -22 -73 -42 -110 -63h-13zM584 0h-138l-16 84l-17 60l-126 3l-111 -3l-17 -53l-17 -91h-134l217 644h162
zM384 249l-76 268h-9l-88 -268l85 -2z" />
    <glyph glyph-name="acircumflexgrave" unicode="&#x1ea7;" horiz-adv-x="481" 
d="M325 812l70 -124l-44 -34h-10l-95 123l3 10l67 29zM110 529l-25 53c50 33 94 68 134 104h27c41 -36 86 -71 134 -104l-24 -53h-13c-37 21 -74 41 -110 63c-36 -22 -73 -42 -110 -63h-13zM244 474c102 0 164 -48 164 -131c0 -34 -11 -190 -11 -222c0 -22 6 -30 24 -30
c6 0 14 1 26 4l9 -8l-11 -70c-21 -13 -44 -22 -74 -25c-40 4 -68 29 -77 73h-7c-31 -33 -65 -59 -102 -74c-96 1 -155 54 -155 139c0 67 36 104 103 117l153 29v41c0 44 -21 65 -64 65c-42 0 -86 -18 -143 -58l-10 6l-15 88c59 37 126 56 190 56zM285 209l-105 -23
c-22 -5 -32 -16 -32 -42c0 -35 20 -55 53 -55c28 0 55 17 82 46z" />
    <glyph glyph-name="Acircumflexhookabove" unicode="&#x1ea8;" horiz-adv-x="600" 
d="M385 980c-18 0 -42 -9 -60 -24l-22 34c28 30 65 48 100 48c43 0 77 -28 77 -67c0 -26 -15 -46 -54 -79l22 -37l-46 -27l-40 63c32 23 50 49 50 67c0 15 -12 22 -27 22zM178 708l-25 53c50 33 94 68 134 104h27c41 -36 86 -71 134 -104l-24 -53h-13c-37 21 -74 41 -110 63
c-36 -22 -73 -42 -110 -63h-13zM584 0h-138l-16 84l-17 60l-126 3l-111 -3l-17 -53l-17 -91h-134l217 644h162zM384 249l-76 268h-9l-88 -268l85 -2z" />
    <glyph glyph-name="acircumflexhookabove" unicode="&#x1ea9;" horiz-adv-x="481" 
d="M335 859c43 0 77 -28 77 -67c0 -26 -15 -46 -54 -79l22 -37l-46 -27l-40 63c32 23 50 49 50 67c0 15 -12 22 -27 22c-18 0 -42 -9 -60 -24l-22 34c28 30 65 48 100 48zM110 529l-25 53c50 33 94 68 134 104h27c41 -36 86 -71 134 -104l-24 -53h-13c-37 21 -74 41 -110 63
c-36 -22 -73 -42 -110 -63h-13zM244 474c102 0 164 -48 164 -131c0 -34 -11 -190 -11 -222c0 -22 6 -30 24 -30c6 0 14 1 26 4l9 -8l-11 -70c-21 -13 -44 -22 -74 -25c-40 4 -68 29 -77 73h-7c-31 -33 -65 -59 -102 -74c-96 1 -155 54 -155 139c0 67 36 104 103 117l153 29
v41c0 44 -21 65 -64 65c-42 0 -86 -18 -143 -58l-10 6l-15 88c59 37 126 56 190 56zM285 209l-105 -23c-22 -5 -32 -16 -32 -42c0 -35 20 -55 53 -55c28 0 55 17 82 46z" />
    <glyph glyph-name="Acircumflextilde" unicode="&#x1eaa;" horiz-adv-x="600" 
d="M180 870l-37 37v11l65 84l12 4c43 -6 119 -33 142 -33c19 0 36 23 58 49h11l36 -37v-11l-65 -84l-11 -5c-43 6 -119 34 -143 34c-19 0 -35 -24 -57 -49h-11zM287 865h27c41 -36 86 -71 134 -104l-24 -53h-13c-37 21 -74 41 -110 63c-36 -22 -73 -42 -110 -63h-13l-25 53
c50 33 94 68 134 104zM584 0h-138l-16 84l-17 60l-126 3l-111 -3l-17 -53l-17 -91h-134l217 644h162zM384 249l-76 268h-9l-88 -268l85 -2z" />
    <glyph glyph-name="acircumflextilde" unicode="&#x1eab;" horiz-adv-x="481" 
d="M399 806v-11l-65 -84l-11 -5c-43 6 -119 34 -143 34c-19 0 -35 -24 -57 -49h-11l-37 37v11l65 84l12 4c43 -6 119 -33 142 -33c19 0 36 23 58 49h11zM110 529l-25 53c50 33 94 68 134 104h27c41 -36 86 -71 134 -104l-24 -53h-13c-37 21 -74 41 -110 63
c-36 -22 -73 -42 -110 -63h-13zM244 474c102 0 164 -48 164 -131c0 -34 -11 -190 -11 -222c0 -22 6 -30 24 -30c6 0 14 1 26 4l9 -8l-11 -70c-21 -13 -44 -22 -74 -25c-40 4 -68 29 -77 73h-7c-31 -33 -65 -59 -102 -74c-96 1 -155 54 -155 139c0 67 36 104 103 117l153 29
v41c0 44 -21 65 -64 65c-42 0 -86 -18 -143 -58l-10 6l-15 88c59 37 126 56 190 56zM285 209l-105 -23c-22 -5 -32 -16 -32 -42c0 -35 20 -55 53 -55c28 0 55 17 82 46z" />
    <glyph glyph-name="Acircumflexdotbelow" unicode="&#x1eac;" horiz-adv-x="600" 
d="M178 728l-25 53c50 33 94 68 134 104h27c41 -36 86 -71 134 -104l-24 -53h-13c-37 21 -74 41 -110 63c-36 -22 -73 -42 -110 -63h-13zM584 0h-138l-16 84l-17 60l-126 3l-111 -3l-17 -53l-17 -91h-134l217 644h162zM384 249l-76 268h-9l-88 -268l85 -2zM299 -52
c42 0 66 -25 66 -68c0 -45 -27 -74 -71 -74s-68 25 -68 69s28 73 73 73z" />
    <glyph glyph-name="acircumflexdotbelow" unicode="&#x1ead;" horiz-adv-x="481" 
d="M113 526l-34 51c44 40 92 89 141 141h29c43 -47 91 -97 140 -141l-33 -51h-13c-42 33 -79 64 -109 92c-30 -28 -67 -59 -108 -92h-13zM244 474c102 0 164 -48 164 -131c0 -34 -11 -190 -11 -222c0 -22 6 -30 24 -30c6 0 14 1 26 4l9 -8l-11 -70c-21 -13 -44 -22 -74 -25
c-40 4 -68 29 -77 73h-7c-31 -33 -65 -59 -102 -74c-96 1 -155 54 -155 139c0 67 36 104 103 117l153 29v41c0 44 -21 65 -64 65c-42 0 -86 -18 -143 -58l-10 6l-15 88c59 37 126 56 190 56zM285 209l-105 -23c-22 -5 -32 -16 -32 -42c0 -35 20 -55 53 -55c28 0 55 17 82 46
zM236 -52c42 0 66 -25 66 -68c0 -45 -27 -74 -71 -74s-68 25 -68 69s28 73 73 73z" />
    <glyph glyph-name="Abreveacute" unicode="&#x1eae;" horiz-adv-x="600" 
d="M294 837l-42 33c32 42 62 83 92 126l10 2l61 -40l2 -10c-36 -37 -74 -73 -112 -108zM299 701c-72 0 -125 37 -148 105l31 43h19c17 -35 54 -56 103 -56c46 0 81 21 98 56h19l31 -43c-25 -68 -79 -105 -153 -105zM584 0h-138l-16 84l-17 60l-126 3l-111 -3l-17 -53
l-17 -91h-134l217 644h162zM384 249l-76 268h-9l-88 -268l85 -2z" />
    <glyph glyph-name="abreveacute" unicode="&#x1eaf;" horiz-adv-x="481" 
d="M347 779l2 -10c-36 -37 -74 -73 -112 -108l-11 -3l-42 33c32 42 62 83 92 126l10 2zM353 670l31 -43c-25 -68 -79 -105 -153 -105c-72 0 -125 37 -148 105l31 43h19c17 -35 54 -56 103 -56c46 0 81 21 98 56h19zM244 474c102 0 164 -48 164 -131c0 -34 -11 -190 -11 -222
c0 -22 6 -30 24 -30c6 0 14 1 26 4l9 -8l-11 -70c-21 -13 -44 -22 -74 -25c-40 4 -68 29 -77 73h-7c-31 -33 -65 -59 -102 -74c-96 1 -155 54 -155 139c0 67 36 104 103 117l153 29v41c0 44 -21 65 -64 65c-42 0 -86 -18 -143 -58l-10 6l-15 88c59 37 126 56 190 56z
M285 209l-105 -23c-22 -5 -32 -16 -32 -42c0 -35 20 -55 53 -55c28 0 55 17 82 46z" />
    <glyph glyph-name="Abrevegrave" unicode="&#x1eb0;" horiz-adv-x="600" 
d="M310 837l-12 3c-38 35 -75 71 -111 108l1 10l61 40l11 -2c29 -43 60 -84 91 -126zM299 701c-72 0 -125 37 -148 105l31 43h19c17 -35 54 -56 103 -56c46 0 81 21 98 56h19l31 -43c-25 -68 -79 -105 -153 -105zM584 0h-138l-16 84l-17 60l-126 3l-111 -3l-17 -53l-17 -91
h-134l217 644h162zM384 249l-76 268h-9l-88 -268l85 -2z" />
    <glyph glyph-name="abrevegrave" unicode="&#x1eb1;" horiz-adv-x="481" 
d="M181 819l11 -2c29 -43 60 -84 91 -126l-41 -33l-12 3c-38 35 -75 71 -111 108l1 10zM353 670l31 -43c-25 -68 -79 -105 -153 -105c-72 0 -125 37 -148 105l31 43h19c17 -35 54 -56 103 -56c46 0 81 21 98 56h19zM244 474c102 0 164 -48 164 -131c0 -34 -11 -190 -11 -222
c0 -22 6 -30 24 -30c6 0 14 1 26 4l9 -8l-11 -70c-21 -13 -44 -22 -74 -25c-40 4 -68 29 -77 73h-7c-31 -33 -65 -59 -102 -74c-96 1 -155 54 -155 139c0 67 36 104 103 117l153 29v41c0 44 -21 65 -64 65c-42 0 -86 -18 -143 -58l-10 6l-15 88c59 37 126 56 190 56z
M285 209l-105 -23c-22 -5 -32 -16 -32 -42c0 -35 20 -55 53 -55c28 0 55 17 82 46z" />
    <glyph glyph-name="Abrevehookabove" unicode="&#x1eb2;" horiz-adv-x="600" 
d="M278 991c-19 0 -44 -9 -64 -25l-22 36c30 31 68 51 105 51c45 0 80 -30 80 -71c0 -27 -15 -48 -55 -83l23 -39l-49 -28l-42 66c33 24 52 52 52 71c0 15 -12 22 -28 22zM299 701c-72 0 -125 37 -148 105l31 43h19c17 -35 54 -56 103 -56c46 0 81 21 98 56h19l31 -43
c-25 -68 -79 -105 -153 -105zM584 0h-138l-16 84l-17 60l-126 3l-111 -3l-17 -53l-17 -91h-134l217 644h162zM384 249l-76 268h-9l-88 -268l85 -2z" />
    <glyph glyph-name="abrevehookabove" unicode="&#x1eb3;" horiz-adv-x="481" 
d="M229 874c45 0 80 -30 80 -71c0 -27 -15 -48 -55 -83l23 -39l-49 -28l-42 66c33 24 52 52 52 71c0 15 -12 22 -28 22c-19 0 -44 -9 -64 -25l-22 36c30 31 68 51 105 51zM353 670l31 -43c-25 -68 -79 -105 -153 -105c-72 0 -125 37 -148 105l31 43h19
c17 -35 54 -56 103 -56c46 0 81 21 98 56h19zM244 474c102 0 164 -48 164 -131c0 -34 -11 -190 -11 -222c0 -22 6 -30 24 -30c6 0 14 1 26 4l9 -8l-11 -70c-21 -13 -44 -22 -74 -25c-40 4 -68 29 -77 73h-7c-31 -33 -65 -59 -102 -74c-96 1 -155 54 -155 139
c0 67 36 104 103 117l153 29v41c0 44 -21 65 -64 65c-42 0 -86 -18 -143 -58l-10 6l-15 88c59 37 126 56 190 56zM285 209l-105 -23c-22 -5 -32 -16 -32 -42c0 -35 20 -55 53 -55c28 0 55 17 82 46z" />
    <glyph glyph-name="Abrevetilde" unicode="&#x1eb4;" horiz-adv-x="600" 
d="M180 870l-37 37v11l65 84l12 4c43 -6 119 -33 142 -33c19 0 36 23 58 49h11l36 -37v-11l-65 -84l-11 -5c-43 6 -119 34 -143 34c-19 0 -35 -24 -57 -49h-11zM307 789c44 0 77 19 94 53h18l29 -40c-23 -65 -75 -102 -145 -102s-120 37 -142 102l29 40h19
c16 -34 51 -53 98 -53zM584 0h-138l-16 84l-17 60l-126 3l-111 -3l-17 -53l-17 -91h-134l217 644h162zM384 249l-76 268h-9l-88 -268l85 -2z" />
    <glyph glyph-name="abrevetilde" unicode="&#x1eb5;" horiz-adv-x="481" 
d="M399 806v-11l-65 -84l-11 -5c-43 6 -119 34 -143 34c-19 0 -35 -24 -57 -49h-11l-37 37v11l65 84l12 4c43 -6 119 -33 142 -33c19 0 36 23 58 49h11zM351 663l29 -40c-23 -65 -75 -102 -145 -102s-120 37 -142 102l29 40h19c16 -34 51 -53 98 -53c44 0 77 19 94 53h18z
M244 474c102 0 164 -48 164 -131c0 -34 -11 -190 -11 -222c0 -22 6 -30 24 -30c6 0 14 1 26 4l9 -8l-11 -70c-21 -13 -44 -22 -74 -25c-40 4 -68 29 -77 73h-7c-31 -33 -65 -59 -102 -74c-96 1 -155 54 -155 139c0 67 36 104 103 117l153 29v41c0 44 -21 65 -64 65
c-42 0 -86 -18 -143 -58l-10 6l-15 88c59 37 126 56 190 56zM285 209l-105 -23c-22 -5 -32 -16 -32 -42c0 -35 20 -55 53 -55c28 0 55 17 82 46z" />
    <glyph glyph-name="Abrevedotbelow" unicode="&#x1eb6;" horiz-adv-x="600" 
d="M299 720c-73 0 -125 38 -148 106l31 42h19c17 -35 54 -55 103 -55c46 0 81 20 98 55h19l31 -42c-25 -68 -80 -106 -153 -106zM584 0h-138l-16 84l-17 60l-126 3l-111 -3l-17 -53l-17 -91h-134l217 644h162zM384 249l-76 268h-9l-88 -268l85 -2zM299 -52
c42 0 66 -25 66 -68c0 -45 -27 -74 -71 -74s-68 25 -68 69s28 73 73 73z" />
    <glyph glyph-name="abrevedotbelow" unicode="&#x1eb7;" horiz-adv-x="481" 
d="M358 700l30 -45c-19 -70 -67 -125 -153 -125s-131 58 -147 125l30 45h19c17 -51 53 -76 101 -76c49 0 85 25 101 76h19zM244 474c102 0 164 -48 164 -131c0 -34 -11 -190 -11 -222c0 -22 6 -30 24 -30c6 0 14 1 26 4l9 -8l-11 -70c-21 -13 -44 -22 -74 -25
c-40 4 -68 29 -77 73h-7c-31 -33 -65 -59 -102 -74c-96 1 -155 54 -155 139c0 67 36 104 103 117l153 29v41c0 44 -21 65 -64 65c-42 0 -86 -18 -143 -58l-10 6l-15 88c59 37 126 56 190 56zM285 209l-105 -23c-22 -5 -32 -16 -32 -42c0 -35 20 -55 53 -55c28 0 55 17 82 46
zM236 -52c42 0 66 -25 66 -68c0 -45 -27 -74 -71 -74s-68 25 -68 69s28 73 73 73z" />
    <glyph glyph-name="Edotbelow" unicode="&#x1eb8;" horiz-adv-x="509" 
d="M483 112l7 -11l-8 -101h-404l8 192l-8 452h408l7 -11l-9 -101l-155 5l-115 -1l-2 -156l109 -1l106 3l8 -10l-9 -101l-114 3l-102 -1l-1 -69l3 -97l112 -1zM297 -52c42 0 66 -25 66 -68c0 -45 -27 -74 -71 -74s-68 25 -68 69s28 73 73 73z" />
    <glyph glyph-name="edotbelow" unicode="&#x1eb9;" horiz-adv-x="471" 
d="M417 216l-266 -1c5 -82 43 -126 124 -126c40 0 88 12 135 36l11 -7l-18 -98c-43 -18 -92 -30 -141 -30c-147 0 -233 91 -233 240c0 152 90 243 230 243c116 0 181 -69 181 -183c0 -17 -2 -41 -4 -55zM323 293l2 12c0 55 -27 81 -71 81c-53 0 -88 -35 -100 -98zM121 -52
c42 0 66 -25 66 -68c0 -45 -27 -74 -71 -74s-68 25 -68 69s28 73 73 73z" />
    <glyph glyph-name="Ehookabove" unicode="&#x1eba;" horiz-adv-x="509" 
d="M254 857c-19 0 -44 -9 -64 -25l-22 36c30 31 68 51 105 51c45 0 80 -30 80 -71c0 -27 -15 -48 -55 -83l23 -39l-49 -28l-42 66c33 24 52 52 52 71c0 15 -12 22 -28 22zM483 112l7 -11l-8 -101h-404l8 192l-8 452h408l7 -11l-9 -101l-155 5l-115 -1l-2 -156l109 -1l106 3
l8 -10l-9 -101l-114 3l-102 -1l-1 -69l3 -97l112 -1z" />
    <glyph glyph-name="ehookabove" unicode="&#x1ebb;" horiz-adv-x="471" 
d="M221 678c-19 0 -44 -9 -64 -25l-22 36c30 31 68 51 105 51c45 0 80 -30 80 -71c0 -27 -15 -48 -55 -83l23 -39l-49 -28l-42 66c33 24 52 52 52 71c0 15 -12 22 -28 22zM417 216l-266 -1c5 -82 43 -126 124 -126c40 0 88 12 135 36l11 -7l-18 -98
c-43 -18 -92 -30 -141 -30c-147 0 -233 91 -233 240c0 152 90 243 230 243c116 0 181 -69 181 -183c0 -17 -2 -41 -4 -55zM323 293l2 12c0 55 -27 81 -71 81c-53 0 -88 -35 -100 -98z" />
    <glyph glyph-name="Ecircumflexacute" unicode="&#x1ebe;" horiz-adv-x="509" 
d="M383 833l-45 34l70 124l10 4l66 -29l3 -10l-95 -123h-9zM159 708l-25 53c49 34 93 68 133 104h28c41 -36 85 -70 134 -104l-24 -53h-13c-38 21 -74 42 -110 63l-110 -63h-13zM483 112l7 -11l-8 -101h-404l8 192l-8 452h408l7 -11l-9 -101l-155 5l-115 -1l-2 -156l109 -1
l106 3l8 -10l-9 -101l-114 3l-102 -1l-1 -69l3 -97l112 -1z" />
    <glyph glyph-name="ecircumflexacute" unicode="&#x1ebf;" horiz-adv-x="471" 
d="M350 654l-45 34l70 124l9 4l67 -29l3 -10l-95 -123h-9zM126 529l-25 53c50 33 94 68 134 104h27c41 -36 86 -71 134 -104l-24 -53h-13c-37 21 -74 41 -110 63c-36 -22 -73 -42 -110 -63h-13zM259 473c116 0 181 -69 181 -183c0 -17 -2 -41 -4 -55l-19 -19l-266 -1
c5 -82 43 -126 124 -126c40 0 88 12 135 36l11 -7l-18 -98c-43 -18 -92 -30 -141 -30c-147 0 -233 91 -233 240c0 152 90 243 230 243zM323 293l2 12c0 55 -27 81 -71 81c-53 0 -88 -35 -100 -98z" />
    <glyph glyph-name="Ecircumflexgrave" unicode="&#x1ec0;" horiz-adv-x="509" 
d="M389 833l-95 123l3 10l67 29l9 -4l70 -124l-45 -34h-9zM158 708l-25 53c49 34 93 68 133 104h28c41 -36 85 -70 134 -104l-24 -53h-13c-38 21 -74 42 -110 63l-110 -63h-13zM483 112l7 -11l-8 -101h-404l8 192l-8 452h408l7 -11l-9 -101l-155 5l-115 -1l-2 -156l109 -1
l106 3l8 -10l-9 -101l-114 3l-102 -1l-1 -69l3 -97l112 -1z" />
    <glyph glyph-name="ecircumflexgrave" unicode="&#x1ec1;" horiz-adv-x="471" 
d="M357 654l-95 123l3 10l67 29l9 -4l70 -124l-44 -34h-10zM126 529l-25 53c50 33 94 68 134 104h27c41 -36 86 -71 134 -104l-24 -53h-13c-37 21 -74 41 -110 63c-36 -22 -73 -42 -110 -63h-13zM417 216l-266 -1c5 -82 43 -126 124 -126c40 0 88 12 135 36l11 -7l-18 -98
c-43 -18 -92 -30 -141 -30c-147 0 -233 91 -233 240c0 152 90 243 230 243c116 0 181 -69 181 -183c0 -17 -2 -41 -4 -55zM323 293l2 12c0 55 -27 81 -71 81c-53 0 -88 -35 -100 -98z" />
    <glyph glyph-name="Ecircumflexhookabove" unicode="&#x1ec2;" horiz-adv-x="509" 
d="M365 980c-18 0 -41 -9 -60 -24l-21 34c28 30 64 49 100 49c43 0 76 -28 76 -68c0 -26 -14 -46 -53 -79l22 -37l-46 -27l-40 64c31 23 49 49 49 67c0 14 -11 21 -27 21zM158 708l-25 53c49 34 93 68 133 104h28c41 -36 85 -70 134 -104l-24 -53h-13c-38 21 -74 42 -110 63
l-110 -63h-13zM483 112l7 -11l-8 -101h-404l8 192l-8 452h408l7 -11l-9 -101l-155 5l-115 -1l-2 -156l109 -1l106 3l8 -10l-9 -101l-114 3l-102 -1l-1 -69l3 -97l112 -1z" />
    <glyph glyph-name="ecircumflexhookabove" unicode="&#x1ec3;" horiz-adv-x="471" 
d="M333 801c-18 0 -42 -9 -60 -24l-22 34c28 30 65 48 100 48c43 0 77 -28 77 -67c0 -26 -15 -46 -54 -79l22 -37l-46 -27l-40 63c32 23 50 49 50 67c0 15 -12 22 -27 22zM126 529l-25 53c50 33 94 68 134 104h27c41 -36 86 -71 134 -104l-24 -53h-13c-37 21 -74 41 -110 63
c-36 -22 -73 -42 -110 -63h-13zM417 216l-266 -1c5 -82 43 -126 124 -126c40 0 88 12 135 36l11 -7l-18 -98c-43 -18 -92 -30 -141 -30c-147 0 -233 91 -233 240c0 152 90 243 230 243c116 0 181 -69 181 -183c0 -17 -2 -41 -4 -55zM323 293l2 12c0 55 -27 81 -71 81
c-53 0 -88 -35 -100 -98z" />
    <glyph glyph-name="Ecircumflextilde" unicode="&#x1ec4;" horiz-adv-x="509" 
d="M389 833l-95 123l3 10l67 29l9 -4l70 -124l-45 -34h-9zM158 708l-25 53c49 34 93 68 133 104h28c41 -36 85 -70 134 -104l-24 -53h-13c-38 21 -74 42 -110 63l-110 -63h-13zM483 112l7 -11l-8 -101h-404l8 192l-8 452h408l7 -11l-9 -101l-155 5l-115 -1l-2 -156l109 -1
l106 3l8 -10l-9 -101l-114 3l-102 -1l-1 -69l3 -97l112 -1z" />
    <glyph glyph-name="ecircumflextilde" unicode="&#x1ec5;" horiz-adv-x="471" 
d="M128 691l-37 37v11l65 84l12 4c43 -6 119 -33 142 -33c19 0 36 23 58 49h11l36 -37v-11l-65 -84l-11 -5c-43 6 -119 34 -143 34c-19 0 -35 -24 -57 -49h-11zM235 686h27c41 -36 86 -71 134 -104l-24 -53h-13c-37 21 -74 41 -110 63c-36 -22 -73 -42 -110 -63h-13l-25 53
c50 33 94 68 134 104zM417 216l-266 -1c5 -82 43 -126 124 -126c40 0 88 12 135 36l11 -7l-18 -98c-43 -18 -92 -30 -141 -30c-147 0 -233 91 -233 240c0 152 90 243 230 243c116 0 181 -69 181 -183c0 -17 -2 -41 -4 -55zM323 293l2 12c0 55 -27 81 -71 81
c-53 0 -88 -35 -100 -98z" />
    <glyph glyph-name="Ecircumflexdotbelow" unicode="&#x1ec6;" horiz-adv-x="509" 
d="M159 728l-25 53c49 34 93 68 133 104h28c41 -36 85 -70 134 -104l-24 -53h-13c-38 21 -74 42 -110 63l-110 -63h-13zM483 112l7 -11l-8 -101h-404l8 192l-8 452h408l7 -11l-9 -101l-155 5l-115 -1l-2 -156l109 -1l106 3l8 -10l-9 -101l-114 3l-102 -1l-1 -69l3 -97
l112 -1zM297 -52c42 0 66 -26 66 -68c0 -46 -28 -74 -72 -74c-43 0 -67 25 -67 68c0 45 28 74 73 74z" />
    <glyph glyph-name="ecircumflexdotbelow" unicode="&#x1ec7;" horiz-adv-x="471" 
d="M129 526l-34 51c44 40 92 89 141 141h29c43 -47 91 -97 140 -141l-33 -51h-13c-42 33 -79 64 -109 92c-30 -28 -67 -59 -108 -92h-13zM417 216l-266 -1c5 -82 43 -126 124 -126c40 0 88 12 135 36l11 -7l-18 -98c-43 -18 -92 -30 -141 -30c-147 0 -233 91 -233 240
c0 152 90 243 230 243c116 0 181 -69 181 -183c0 -17 -2 -41 -4 -55zM323 293l2 12c0 55 -27 81 -71 81c-53 0 -88 -35 -100 -98zM121 -52c42 0 66 -25 66 -68c0 -45 -27 -74 -71 -74s-68 25 -68 69s28 73 73 73z" />
    <glyph glyph-name="Ihookabove" unicode="&#x1ec8;" horiz-adv-x="295" 
d="M138 919c45 0 80 -30 80 -71c0 -27 -15 -48 -55 -83l23 -39l-49 -28l-42 66c33 24 52 52 52 71c0 15 -12 22 -28 22c-19 0 -44 -9 -64 -25l-22 36c30 31 68 51 105 51zM209 204l6 -204h-137l8 192l-8 452h138z" />
    <glyph glyph-name="ihookabove" unicode="&#x1ec9;" horiz-adv-x="254" 
d="M120 740c45 0 80 -30 80 -71c0 -27 -15 -48 -55 -83l23 -39l-49 -28l-42 66c33 24 52 52 52 71c0 15 -12 22 -28 22c-19 0 -44 -9 -64 -25l-22 36c30 31 68 51 105 51zM186 205l7 -205h-133l7 192l-6 264l133 11z" />
    <glyph glyph-name="Idotbelow" unicode="&#x1eca;" horiz-adv-x="295" 
d="M209 204l6 -204h-137l8 192l-8 452h138zM144 -52c42 0 66 -25 66 -68c0 -45 -27 -74 -71 -74s-68 25 -68 69s28 73 73 73z" />
    <glyph glyph-name="idotbelow" unicode="&#x1ecb;" horiz-adv-x="254" 
d="M132 693c42 0 66 -25 66 -68c0 -45 -27 -74 -71 -74s-68 25 -68 69s28 73 73 73zM186 205l7 -205h-133l7 192l-6 264l133 11zM130 -52c42 0 66 -25 66 -68c0 -45 -27 -74 -71 -74s-68 25 -68 69s28 73 73 73z" />
    <glyph glyph-name="Odotbelow" unicode="&#x1ecc;" horiz-adv-x="643" 
d="M333 653c180 0 282 -115 282 -317c0 -221 -110 -346 -304 -346c-181 0 -283 118 -283 324c0 217 110 339 305 339zM320 543c-106 0 -151 -61 -151 -211c0 -172 45 -237 153 -237c105 0 152 61 152 214c0 170 -45 234 -154 234zM327 -52c42 0 66 -25 66 -68
c0 -45 -27 -74 -71 -74s-68 25 -68 69s28 73 73 73z" />
    <glyph glyph-name="odotbelow" unicode="&#x1ecd;" horiz-adv-x="494" 
d="M253 474c136 0 210 -82 210 -233c0 -162 -79 -251 -224 -251c-136 0 -210 83 -210 233c0 162 79 251 224 251zM245 384c-63 0 -91 -40 -91 -135c0 -124 29 -170 95 -170c63 0 90 38 90 135c0 122 -28 170 -94 170zM255 -52c42 0 66 -25 66 -68c0 -45 -27 -74 -71 -74
s-68 25 -68 69s28 73 73 73z" />
    <glyph glyph-name="Ohookabove" unicode="&#x1ece;" horiz-adv-x="643" 
d="M313 919c45 0 80 -30 80 -71c0 -27 -15 -48 -55 -83l23 -39l-49 -28l-42 66c33 24 52 52 52 71c0 15 -12 22 -28 22c-19 0 -44 -9 -64 -25l-22 36c30 31 68 51 105 51zM333 653c180 0 282 -115 282 -317c0 -221 -110 -346 -304 -346c-181 0 -283 118 -283 324
c0 217 110 339 305 339zM320 543c-106 0 -151 -61 -151 -211c0 -172 45 -237 153 -237c105 0 152 61 152 214c0 170 -45 234 -154 234z" />
    <glyph glyph-name="ohookabove" unicode="&#x1ecf;" horiz-adv-x="494" 
d="M239 740c45 0 80 -30 80 -71c0 -27 -15 -48 -55 -83l23 -39l-49 -28l-42 66c33 24 52 52 52 71c0 15 -12 22 -28 22c-19 0 -44 -9 -64 -25l-22 36c30 31 68 51 105 51zM253 474c136 0 210 -82 210 -233c0 -162 -79 -251 -224 -251c-136 0 -210 83 -210 233
c0 162 79 251 224 251zM245 384c-63 0 -91 -40 -91 -135c0 -124 29 -170 95 -170c63 0 90 38 90 135c0 122 -28 170 -94 170z" />
    <glyph glyph-name="Ocircumflexacute" unicode="&#x1ed0;" horiz-adv-x="643" 
d="M524 966l3 -10l-95 -123h-9l-45 34l70 124l9 4zM199 708l-25 53c50 33 94 68 134 104h27c41 -36 86 -71 134 -104l-24 -53h-13c-37 21 -74 41 -110 63c-36 -22 -73 -42 -110 -63h-13zM333 653c180 0 282 -115 282 -317c0 -221 -110 -346 -304 -346
c-181 0 -283 118 -283 324c0 217 110 339 305 339zM320 543c-106 0 -151 -61 -151 -211c0 -172 45 -237 153 -237c105 0 152 61 152 214c0 170 -45 234 -154 234z" />
    <glyph glyph-name="ocircumflexacute" unicode="&#x1ed1;" horiz-adv-x="494" 
d="M450 787l3 -10l-95 -123h-9l-45 34l70 124l9 4zM125 529l-25 53c50 33 94 68 134 104h27c41 -36 86 -71 134 -104l-24 -53h-13c-37 21 -74 41 -110 63c-36 -22 -73 -42 -110 -63h-13zM253 474c136 0 210 -82 210 -233c0 -162 -79 -251 -224 -251c-136 0 -210 83 -210 233
c0 162 79 251 224 251zM245 384c-63 0 -91 -40 -91 -135c0 -124 29 -170 95 -170c63 0 90 38 90 135c0 122 -28 170 -94 170z" />
    <glyph glyph-name="Ocircumflexgrave" unicode="&#x1ed2;" horiz-adv-x="643" 
d="M414 991l70 -124l-44 -34h-10l-95 123l3 10l67 29zM199 708l-25 53c50 33 94 68 134 104h27c41 -36 86 -71 134 -104l-24 -53h-13c-37 21 -74 41 -110 63c-36 -22 -73 -42 -110 -63h-13zM333 653c180 0 282 -115 282 -317c0 -221 -110 -346 -304 -346
c-181 0 -283 118 -283 324c0 217 110 339 305 339zM320 543c-106 0 -151 -61 -151 -211c0 -172 45 -237 153 -237c105 0 152 61 152 214c0 170 -45 234 -154 234z" />
    <glyph glyph-name="ocircumflexgrave" unicode="&#x1ed3;" horiz-adv-x="494" 
d="M340 812l70 -124l-44 -34h-10l-95 123l3 10l67 29zM125 529l-25 53c50 33 94 68 134 104h27c41 -36 86 -71 134 -104l-24 -53h-13c-37 21 -74 41 -110 63c-36 -22 -73 -42 -110 -63h-13zM253 474c136 0 210 -82 210 -233c0 -162 -79 -251 -224 -251
c-136 0 -210 83 -210 233c0 162 79 251 224 251zM245 384c-63 0 -91 -40 -91 -135c0 -124 29 -170 95 -170c63 0 90 38 90 135c0 122 -28 170 -94 170z" />
    <glyph glyph-name="Ocircumflexhookabove" unicode="&#x1ed4;" horiz-adv-x="643" 
d="M424 1038c43 0 77 -28 77 -67c0 -26 -15 -46 -54 -79l22 -37l-46 -27l-40 63c32 23 50 49 50 67c0 15 -12 22 -27 22c-18 0 -42 -9 -60 -24l-22 34c28 30 65 48 100 48zM199 708l-25 53c50 33 94 68 134 104h27c41 -36 86 -71 134 -104l-24 -53h-13
c-37 21 -74 41 -110 63c-36 -22 -73 -42 -110 -63h-13zM333 653c180 0 282 -115 282 -317c0 -221 -110 -346 -304 -346c-181 0 -283 118 -283 324c0 217 110 339 305 339zM320 543c-106 0 -151 -61 -151 -211c0 -172 45 -237 153 -237c105 0 152 61 152 214
c0 170 -45 234 -154 234z" />
    <glyph glyph-name="ocircumflexhookabove" unicode="&#x1ed5;" horiz-adv-x="494" 
d="M350 859c43 0 77 -28 77 -67c0 -26 -15 -46 -54 -79l22 -37l-46 -27l-40 63c32 23 50 49 50 67c0 15 -12 22 -27 22c-18 0 -42 -9 -60 -24l-22 34c28 30 65 48 100 48zM125 529l-25 53c50 33 94 68 134 104h27c41 -36 86 -71 134 -104l-24 -53h-13c-37 21 -74 41 -110 63
c-36 -22 -73 -42 -110 -63h-13zM253 474c136 0 210 -82 210 -233c0 -162 -79 -251 -224 -251c-136 0 -210 83 -210 233c0 162 79 251 224 251zM245 384c-63 0 -91 -40 -91 -135c0 -124 29 -170 95 -170c63 0 90 38 90 135c0 122 -28 170 -94 170z" />
    <glyph glyph-name="Ocircumflextilde" unicode="&#x1ed6;" horiz-adv-x="643" 
d="M488 985v-11l-65 -84l-11 -5c-43 6 -119 34 -143 34c-19 0 -35 -24 -57 -49h-11l-37 37v11l65 84l12 4c43 -6 119 -33 142 -33c19 0 36 23 58 49h11zM199 708l-25 53c50 33 94 68 134 104h27c41 -36 86 -71 134 -104l-24 -53h-13c-37 21 -74 41 -110 63
c-36 -22 -73 -42 -110 -63h-13zM333 653c180 0 282 -115 282 -317c0 -221 -110 -346 -304 -346c-181 0 -283 118 -283 324c0 217 110 339 305 339zM320 543c-106 0 -151 -61 -151 -211c0 -172 45 -237 153 -237c105 0 152 61 152 214c0 170 -45 234 -154 234z" />
    <glyph glyph-name="ocircumflextilde" unicode="&#x1ed7;" horiz-adv-x="494" 
d="M414 806v-11l-65 -84l-11 -5c-43 6 -119 34 -143 34c-19 0 -35 -24 -57 -49h-11l-37 37v11l65 84l12 4c43 -6 119 -33 142 -33c19 0 36 23 58 49h11zM125 529l-25 53c50 33 94 68 134 104h27c41 -36 86 -71 134 -104l-24 -53h-13c-37 21 -74 41 -110 63
c-36 -22 -73 -42 -110 -63h-13zM253 474c136 0 210 -82 210 -233c0 -162 -79 -251 -224 -251c-136 0 -210 83 -210 233c0 162 79 251 224 251zM245 384c-63 0 -91 -40 -91 -135c0 -124 29 -170 95 -170c63 0 90 38 90 135c0 122 -28 170 -94 170z" />
    <glyph glyph-name="Ocircumflexdotbelow" unicode="&#x1ed8;" horiz-adv-x="643" 
d="M205 724l-25 53c50 33 94 68 134 104h27c41 -36 86 -71 134 -104l-24 -53h-13c-37 21 -74 41 -110 63c-36 -22 -73 -42 -110 -63h-13zM333 653c180 0 282 -115 282 -317c0 -221 -110 -346 -304 -346c-181 0 -283 118 -283 324c0 217 110 339 305 339zM320 543
c-106 0 -151 -61 -151 -211c0 -172 45 -237 153 -237c105 0 152 61 152 214c0 170 -45 234 -154 234zM327 -52c42 0 66 -25 66 -68c0 -45 -27 -74 -71 -74s-68 25 -68 69s28 73 73 73z" />
    <glyph glyph-name="ocircumflexdotbelow" unicode="&#x1ed9;" horiz-adv-x="494" 
d="M128 526l-34 51c44 40 92 89 141 141h29c43 -47 91 -97 140 -141l-33 -51h-13c-42 33 -79 64 -109 92c-30 -28 -67 -59 -108 -92h-13zM253 474c136 0 210 -82 210 -233c0 -162 -79 -251 -224 -251c-136 0 -210 83 -210 233c0 162 79 251 224 251zM245 384
c-63 0 -91 -40 -91 -135c0 -124 29 -170 95 -170c63 0 90 38 90 135c0 122 -28 170 -94 170zM259 -52c42 0 66 -25 66 -68c0 -45 -27 -74 -71 -74s-68 25 -68 69s28 73 73 73z" />
    <glyph glyph-name="Ohornacute" unicode="&#x1eda;" horiz-adv-x="650" 
d="M437 886l34 -79l-4 -12c-77 -30 -145 -54 -215 -78l-13 4l-22 55c73 37 139 72 208 113zM592 776c36 0 69 -40 69 -94c0 -68 -51 -112 -117 -121c47 -55 71 -131 71 -229c0 -213 -110 -342 -303 -342c-183 0 -284 118 -284 323c0 218 114 340 294 340
c89 0 132 -32 175 -32c35 0 60 20 60 53c0 23 -11 47 -31 66l2 10c19 14 43 26 64 26zM320 543c-107 0 -151 -61 -151 -216c0 -167 46 -232 154 -232c105 0 151 61 151 219c0 165 -46 229 -154 229z" />
    <glyph glyph-name="ohornacute" unicode="&#x1edb;" horiz-adv-x="495" 
d="M343 723l48 -72l-2 -13c-70 -43 -131 -81 -195 -118l-13 1l-32 50c64 51 122 98 181 153zM472 598c33 0 67 -35 67 -84c0 -68 -55 -123 -115 -124c27 -38 39 -89 39 -150c0 -162 -79 -250 -222 -250c-139 0 -212 82 -212 236c0 160 79 248 225 248c63 0 97 -24 132 -24
c32 0 50 18 50 46c0 23 -12 42 -32 61l3 11c22 18 44 30 65 30zM245 384c-63 0 -91 -42 -91 -141c0 -120 28 -164 95 -164c63 0 90 40 90 141c0 118 -28 164 -94 164z" />
    <glyph glyph-name="Ohorngrave" unicode="&#x1edc;" horiz-adv-x="650" 
d="M232 887l12 3c69 -41 135 -76 208 -113l-22 -55l-13 -4c-70 24 -138 48 -215 78l-4 12zM592 776c36 0 69 -40 69 -94c0 -68 -51 -112 -117 -121c47 -55 71 -131 71 -229c0 -213 -110 -342 -303 -342c-183 0 -284 118 -284 323c0 218 114 340 294 340
c89 0 132 -32 175 -32c35 0 60 20 60 53c0 23 -11 47 -31 66l2 10c19 14 43 26 64 26zM320 543c-107 0 -151 -61 -151 -216c0 -167 46 -232 154 -232c105 0 151 61 151 219c0 165 -46 229 -154 229z" />
    <glyph glyph-name="ohorngrave" unicode="&#x1edd;" horiz-adv-x="495" 
d="M144 723l13 1c59 -55 116 -102 181 -153l-32 -50l-13 -1c-64 37 -125 75 -195 118l-2 13zM472 598c33 0 67 -35 67 -84c0 -68 -55 -123 -115 -124c27 -38 39 -89 39 -150c0 -162 -79 -250 -222 -250c-139 0 -212 82 -212 236c0 160 79 248 225 248c63 0 97 -24 132 -24
c32 0 50 18 50 46c0 23 -12 42 -32 61l3 11c22 18 44 30 65 30zM245 384c-63 0 -91 -42 -91 -141c0 -120 28 -164 95 -164c63 0 90 40 90 141c0 118 -28 164 -94 164z" />
    <glyph glyph-name="Ohornhookabove" unicode="&#x1ede;" horiz-adv-x="650" 
d="M313 919c45 0 80 -30 80 -71c0 -27 -15 -48 -55 -83l23 -39l-49 -28l-42 66c33 24 52 52 52 71c0 15 -12 22 -28 22c-19 0 -44 -9 -64 -25l-22 36c30 31 68 51 105 51zM592 776c36 0 69 -40 69 -94c0 -68 -51 -112 -117 -121c47 -55 71 -131 71 -229
c0 -213 -110 -342 -303 -342c-183 0 -284 118 -284 323c0 218 114 340 294 340c89 0 132 -32 175 -32c35 0 60 20 60 53c0 23 -11 47 -31 66l2 10c19 14 43 26 64 26zM320 543c-107 0 -151 -61 -151 -216c0 -167 46 -232 154 -232c105 0 151 61 151 219
c0 165 -46 229 -154 229z" />
    <glyph glyph-name="ohornhookabove" unicode="&#x1edf;" horiz-adv-x="495" 
d="M237 740c45 0 80 -30 80 -71c0 -27 -15 -48 -55 -83l23 -39l-49 -28l-42 66c33 24 52 52 52 71c0 15 -12 22 -28 22c-19 0 -44 -9 -64 -25l-22 36c30 31 68 51 105 51zM472 598c33 0 67 -35 67 -84c0 -68 -55 -123 -115 -124c27 -38 39 -89 39 -150
c0 -162 -79 -250 -222 -250c-139 0 -212 82 -212 236c0 160 79 248 225 248c63 0 97 -24 132 -24c32 0 50 18 50 46c0 23 -12 42 -32 61l3 11c22 18 44 30 65 30zM245 384c-63 0 -91 -42 -91 -141c0 -120 28 -164 95 -164c63 0 90 40 90 141c0 118 -28 164 -94 164z" />
    <glyph glyph-name="Ohorntilde" unicode="&#x1ee0;" horiz-adv-x="650" 
d="M497 841v-11l-70 -89l-13 -5c-46 6 -128 35 -154 35c-20 0 -38 -25 -62 -51h-12l-40 39v11l71 89l12 5c47 -6 129 -35 154 -35c21 0 39 24 63 51h12zM592 776c36 0 69 -40 69 -94c0 -68 -51 -112 -117 -121c47 -55 71 -131 71 -229c0 -213 -110 -342 -303 -342
c-183 0 -284 118 -284 323c0 218 114 340 294 340c89 0 132 -32 175 -32c35 0 60 20 60 53c0 23 -11 47 -31 66l2 10c19 14 43 26 64 26zM320 543c-107 0 -151 -61 -151 -216c0 -167 46 -232 154 -232c105 0 151 61 151 219c0 165 -46 229 -154 229z" />
    <glyph glyph-name="ohorntilde" unicode="&#x1ee1;" horiz-adv-x="495" 
d="M421 662v-11l-70 -89l-13 -5c-46 6 -128 35 -154 35c-20 0 -38 -25 -62 -51h-12l-40 39v11l71 89l12 5c47 -6 129 -35 154 -35c21 0 39 24 63 51h12zM472 598c33 0 67 -35 67 -84c0 -68 -55 -123 -115 -124c27 -38 39 -89 39 -150c0 -162 -79 -250 -222 -250
c-139 0 -212 82 -212 236c0 160 79 248 225 248c63 0 97 -24 132 -24c32 0 50 18 50 46c0 23 -12 42 -32 61l3 11c22 18 44 30 65 30zM245 384c-63 0 -91 -42 -91 -141c0 -120 28 -164 95 -164c63 0 90 40 90 141c0 118 -28 164 -94 164z" />
    <glyph glyph-name="Ohorndotbelow" unicode="&#x1ee2;" horiz-adv-x="650" 
d="M592 776c36 0 69 -40 69 -94c0 -68 -51 -112 -117 -121c47 -55 71 -131 71 -229c0 -213 -110 -342 -303 -342c-183 0 -284 118 -284 323c0 218 114 340 294 340c89 0 132 -32 175 -32c35 0 60 20 60 53c0 23 -11 47 -31 66l2 10c19 14 43 26 64 26zM320 543
c-107 0 -151 -61 -151 -216c0 -167 46 -232 154 -232c105 0 151 61 151 219c0 165 -46 229 -154 229zM327 -52c42 0 66 -25 66 -68c0 -45 -27 -74 -71 -74s-68 25 -68 69s28 73 73 73z" />
    <glyph glyph-name="ohorndotbelow" unicode="&#x1ee3;" horiz-adv-x="495" 
d="M472 598c33 0 67 -35 67 -84c0 -68 -55 -123 -115 -124c27 -38 39 -89 39 -150c0 -162 -79 -250 -222 -250c-139 0 -212 82 -212 236c0 160 79 248 225 248c63 0 97 -24 132 -24c32 0 50 18 50 46c0 23 -12 42 -32 61l3 11c22 18 44 30 65 30zM245 384
c-63 0 -91 -42 -91 -141c0 -120 28 -164 95 -164c63 0 90 40 90 141c0 118 -28 164 -94 164zM257 -52c42 0 66 -25 66 -68c0 -45 -27 -74 -71 -74s-68 25 -68 69s28 73 73 73z" />
    <glyph glyph-name="Udotbelow" unicode="&#x1ee4;" horiz-adv-x="638" 
d="M573 317l-1 -85c2 -154 -93 -241 -262 -241c-162 0 -251 84 -248 236l2 93l-3 324h136l-7 -399c-1 -97 41 -143 128 -143c86 0 129 44 128 136l-6 406h137zM319 -52c42 0 66 -25 66 -68c0 -45 -27 -74 -71 -74s-68 25 -68 69s28 73 73 73z" />
    <glyph glyph-name="udotbelow" unicode="&#x1ee5;" horiz-adv-x="522" 
d="M456 467l-9 -346c0 -22 7 -30 23 -30c7 0 14 1 26 4l10 -8l-12 -70c-20 -13 -43 -22 -73 -25c-41 4 -68 31 -80 75h-9c-39 -37 -77 -61 -118 -73c-101 0 -155 48 -155 134l3 118l-5 210l129 11l-3 -295c-1 -46 19 -71 59 -71c30 0 59 14 87 39v316zM265 -52
c42 0 66 -25 66 -68c0 -45 -27 -74 -71 -74s-68 25 -68 69s28 73 73 73z" />
    <glyph glyph-name="Uhookabove" unicode="&#x1ee6;" horiz-adv-x="638" 
d="M312 919c45 0 80 -30 80 -71c0 -27 -15 -48 -55 -83l23 -39l-49 -28l-42 66c33 24 52 52 52 71c0 15 -12 22 -28 22c-19 0 -44 -9 -64 -25l-22 36c30 31 68 51 105 51zM573 317l-1 -85c2 -154 -93 -241 -262 -241c-162 0 -251 84 -248 236l2 93l-3 324h136l-7 -399
c-1 -97 41 -143 128 -143c86 0 129 44 128 136l-6 406h137z" />
    <glyph glyph-name="uhookabove" unicode="&#x1ee7;" horiz-adv-x="522" 
d="M250 740c45 0 80 -30 80 -71c0 -27 -15 -48 -55 -83l23 -39l-49 -28l-42 66c33 24 52 52 52 71c0 15 -12 22 -28 22c-19 0 -44 -9 -64 -25l-22 36c30 31 68 51 105 51zM456 467l-9 -346c0 -22 7 -30 23 -30c7 0 14 1 26 4l10 -8l-12 -70c-20 -13 -43 -22 -73 -25
c-41 4 -68 31 -80 75h-9c-39 -37 -77 -61 -118 -73c-101 0 -155 48 -155 134l3 118l-5 210l129 11l-3 -295c-1 -46 19 -71 59 -71c30 0 59 14 87 39v316z" />
    <glyph glyph-name="Uhornacute" unicode="&#x1ee8;" horiz-adv-x="648" 
d="M238 721l-22 55c73 37 139 72 208 113l12 -3l34 -79l-4 -12c-77 -30 -145 -54 -215 -78zM669 705c0 -51 -36 -94 -93 -115l-3 -273l-1 -85c2 -154 -93 -241 -262 -241c-162 0 -251 84 -248 236l2 93l-3 324h136l-7 -399c-1 -97 41 -143 128 -143c86 0 129 44 128 136
l-6 406h64c42 0 62 16 62 49c0 22 -10 41 -32 60l3 10c20 15 43 26 64 26c35 0 68 -36 68 -84z" />
    <glyph glyph-name="uhornacute" unicode="&#x1ee9;" horiz-adv-x="531" 
d="M339 723l48 -72l-2 -13c-70 -43 -131 -81 -195 -118l-13 1l-32 50c64 51 122 98 181 153zM480 616c33 0 66 -35 66 -83c0 -53 -38 -96 -92 -115l-7 -296c0 -22 7 -30 24 -30c7 0 14 1 26 4l10 -8l-13 -71c-21 -14 -45 -23 -72 -24c-45 2 -72 26 -85 72h-8
c-37 -36 -75 -59 -115 -71c-101 0 -155 48 -155 134l3 118l-5 210l129 11l-3 -295c-1 -46 19 -71 60 -71c29 0 58 14 86 39v316l45 6c47 7 68 23 68 53c0 20 -10 41 -30 60l2 11c22 18 45 30 66 30z" />
    <glyph glyph-name="Uhorngrave" unicode="&#x1eea;" horiz-adv-x="648" 
d="M428 722l-13 -4c-70 24 -138 48 -215 78l-4 12l34 79l12 3c69 -41 135 -76 208 -113zM669 705c0 -51 -36 -94 -93 -115l-3 -273l-1 -85c2 -154 -93 -241 -262 -241c-162 0 -251 84 -248 236l2 93l-3 324h136l-7 -399c-1 -97 41 -143 128 -143c86 0 129 44 128 136l-6 406
h64c42 0 62 16 62 49c0 22 -10 41 -32 60l3 10c20 15 43 26 64 26c35 0 68 -36 68 -84z" />
    <glyph glyph-name="uhorngrave" unicode="&#x1eeb;" horiz-adv-x="531" 
d="M169 723l13 1c59 -55 117 -102 181 -153l-32 -50l-13 -1c-64 37 -125 75 -195 118l-2 13zM480 616c33 0 66 -35 66 -83c0 -53 -38 -96 -92 -115l-7 -296c0 -22 7 -30 24 -30c7 0 14 1 26 4l10 -8l-13 -71c-21 -14 -45 -23 -72 -24c-45 2 -72 26 -85 72h-8
c-37 -36 -75 -59 -115 -71c-101 0 -155 48 -155 134l3 118l-5 210l129 11l-3 -295c-1 -46 19 -71 60 -71c29 0 58 14 86 39v316l45 6c47 7 68 23 68 53c0 20 -10 41 -30 60l2 11c22 18 45 30 66 30z" />
    <glyph glyph-name="Uhornhookabove" unicode="&#x1eec;" horiz-adv-x="648" 
d="M293 858c-19 0 -44 -9 -64 -25l-22 36c30 31 68 51 105 51c45 0 80 -30 80 -71c0 -27 -15 -48 -55 -83l23 -39l-49 -28l-42 66c33 24 52 52 52 71c0 15 -12 22 -28 22zM669 705c0 -51 -36 -94 -93 -115l-3 -273l-1 -85c2 -154 -93 -241 -262 -241
c-162 0 -251 84 -248 236l2 93l-3 324h136l-7 -399c-1 -97 41 -143 128 -143c86 0 129 44 128 136l-6 406h64c42 0 62 16 62 49c0 22 -10 41 -32 60l3 10c20 15 43 26 64 26c35 0 68 -36 68 -84z" />
    <glyph glyph-name="uhornhookabove" unicode="&#x1eed;" horiz-adv-x="531" 
d="M233 740c45 0 80 -30 80 -71c0 -27 -15 -48 -55 -83l23 -39l-49 -28l-42 66c33 24 52 52 52 71c0 15 -12 22 -28 22c-19 0 -44 -9 -64 -25l-22 36c30 31 68 51 105 51zM480 616c33 0 66 -35 66 -83c0 -53 -38 -96 -92 -115l-7 -296c0 -22 7 -30 24 -30c7 0 14 1 26 4
l10 -8l-13 -71c-21 -14 -45 -23 -72 -24c-45 2 -72 26 -85 72h-8c-37 -36 -75 -59 -115 -71c-101 0 -155 48 -155 134l3 118l-5 210l129 11l-3 -295c-1 -46 19 -71 60 -71c29 0 58 14 86 39v316l45 6c47 7 68 23 68 53c0 20 -10 41 -30 60l2 11c22 18 45 30 66 30z" />
    <glyph glyph-name="Uhorntilde" unicode="&#x1eee;" horiz-adv-x="648" 
d="M184 720l-40 39v11l71 89l12 5c47 -6 129 -35 154 -35c21 0 39 24 63 51h12l39 -39v-11l-70 -89l-13 -5c-46 6 -128 35 -154 35c-20 0 -38 -25 -62 -51h-12zM669 705c0 -51 -36 -94 -93 -115l-3 -273l-1 -85c2 -154 -93 -241 -262 -241c-162 0 -251 84 -248 236l2 93
l-3 324h136l-7 -399c-1 -97 41 -143 128 -143c86 0 129 44 128 136l-6 406h64c42 0 62 16 62 49c0 22 -10 41 -32 60l3 10c20 15 43 26 64 26c35 0 68 -36 68 -84z" />
    <glyph glyph-name="uhorntilde" unicode="&#x1eef;" horiz-adv-x="531" 
d="M416 662v-11l-70 -89l-13 -5c-46 6 -128 35 -154 35c-20 0 -38 -25 -62 -51h-12l-40 39v11l71 89l12 5c47 -6 129 -35 154 -35c21 0 39 24 63 51h12zM480 616c33 0 66 -35 66 -83c0 -53 -38 -96 -92 -115l-7 -296c0 -22 7 -30 24 -30c7 0 14 1 26 4l10 -8l-13 -71
c-21 -14 -45 -23 -72 -24c-45 2 -72 26 -85 72h-8c-37 -36 -75 -59 -115 -71c-101 0 -155 48 -155 134l3 118l-5 210l129 11l-3 -295c-1 -46 19 -71 60 -71c29 0 58 14 86 39v316l45 6c47 7 68 23 68 53c0 20 -10 41 -30 60l2 11c22 18 45 30 66 30z" />
    <glyph glyph-name="Uhorndotbelow" unicode="&#x1ef0;" horiz-adv-x="648" 
d="M669 705c0 -51 -36 -94 -93 -115l-3 -273l-1 -85c2 -154 -93 -241 -262 -241c-162 0 -251 84 -248 236l2 93l-3 324h136l-7 -399c-1 -97 41 -143 128 -143c86 0 129 44 128 136l-6 406h64c42 0 62 16 62 49c0 22 -10 41 -32 60l3 10c20 15 43 26 64 26
c35 0 68 -36 68 -84zM321 -52c42 0 66 -25 66 -68c0 -45 -27 -74 -71 -74s-68 25 -68 69s28 73 73 73z" />
    <glyph glyph-name="uhorndotbelow" unicode="&#x1ef1;" horiz-adv-x="531" 
d="M480 616c33 0 66 -35 66 -83c0 -53 -38 -96 -92 -115l-7 -296c0 -22 7 -30 24 -30c7 0 14 1 26 4l10 -8l-13 -71c-21 -14 -45 -23 -72 -24c-45 2 -72 26 -85 72h-8c-37 -36 -75 -59 -115 -71c-101 0 -155 48 -155 134l3 118l-5 210l129 11l-3 -295c-1 -46 19 -71 60 -71
c29 0 58 14 86 39v316l45 6c47 7 68 23 68 53c0 20 -10 41 -30 60l2 11c22 18 45 30 66 30zM263 -52c42 0 66 -25 66 -68c0 -45 -27 -74 -71 -74s-68 25 -68 69s28 73 73 73z" />
    <glyph glyph-name="Ygrave" unicode="&#x1ef2;" horiz-adv-x="558" 
d="M383 722l-13 -4c-70 24 -138 48 -215 78l-4 12l34 79l12 3c69 -41 135 -76 208 -113zM333 179l6 -179h-136l8 179l-1 36l-206 429h143l15 -45l109 -245h9l122 241l18 49h140l-225 -425z" />
    <glyph glyph-name="ygrave" unicode="&#x1ef3;" horiz-adv-x="447" 
d="M155 723l13 1c59 -55 117 -102 181 -153l-32 -50l-13 -1c-64 37 -125 75 -195 118l-2 13zM143 394l82 -259h9l81 247l16 83h116l-151 -433c-44 -126 -110 -186 -246 -224l-10 1c-26 24 -45 51 -60 80l5 14c82 14 138 43 185 97l-170 462l128 6z" />
    <glyph glyph-name="Ydotbelow" unicode="&#x1ef4;" horiz-adv-x="558" 
d="M210 215l-206 429h143l15 -45l109 -245h9l122 241l18 49h140l-225 -425l-2 -40l6 -179h-136l8 179zM274 -52c42 0 66 -25 66 -68c0 -45 -27 -74 -71 -74s-68 25 -68 69s28 73 73 73z" />
    <glyph glyph-name="ydotbelow" unicode="&#x1ef5;" horiz-adv-x="460" 
d="M143 394l82 -259h9l81 247l16 83h116l-151 -433c-44 -126 -110 -186 -246 -224l-10 1c-26 24 -45 51 -60 80l5 14c82 14 138 43 185 97l-170 462l128 6zM351 -43c40 0 63 -24 63 -64c0 -42 -26 -69 -68 -69c-41 0 -63 23 -63 64c0 42 26 69 68 69z" />
    <glyph glyph-name="Yhookabove" unicode="&#x1ef6;" horiz-adv-x="558" 
d="M248 857c-19 0 -44 -9 -64 -25l-22 36c30 31 68 51 105 51c45 0 80 -30 80 -71c0 -27 -15 -48 -55 -83l23 -39l-49 -28l-42 66c33 24 52 52 52 71c0 15 -12 22 -28 22zM333 179l6 -179h-136l8 179l-1 36l-206 429h143l15 -45l109 -245h9l122 241l18 49h140l-225 -425z
" />
    <glyph glyph-name="yhookabove" unicode="&#x1ef7;" horiz-adv-x="447" 
d="M219 740c45 0 80 -30 80 -71c0 -27 -15 -48 -55 -83l23 -39l-49 -28l-42 66c33 24 52 52 52 71c0 15 -12 22 -28 22c-19 0 -44 -9 -64 -25l-22 36c30 31 68 51 105 51zM143 394l82 -259h9l81 247l16 83h116l-151 -433c-44 -126 -110 -186 -246 -224l-10 1
c-26 24 -45 51 -60 80l5 14c82 14 138 43 185 97l-170 462l128 6z" />
    <glyph glyph-name="endash" unicode="&#x2013;" horiz-adv-x="466" 
d="M481 293l-6 -80h-481l-9 9l7 81h480z" />
    <glyph glyph-name="emdash" unicode="&#x2014;" horiz-adv-x="889" 
d="M906 293l-6 -80h-909l-8 9l6 81h908z" />
    <glyph glyph-name="quoteleft" unicode="&#x2018;" horiz-adv-x="207" 
d="M90 392c-39 20 -56 50 -56 94c0 52 30 105 92 164l46 -31l2 -9c-28 -30 -41 -58 -41 -86c0 -31 11 -53 41 -70v-11c-25 -20 -53 -38 -84 -51z" />
    <glyph glyph-name="quoteright" unicode="&#x2019;" horiz-adv-x="207" 
d="M118 650c39 -21 57 -50 57 -94c0 -52 -30 -105 -92 -164l-46 30l-2 10c27 30 40 58 40 85c0 31 -10 53 -40 71v11c25 19 53 37 83 51z" />
    <glyph glyph-name="quotesinglbase" unicode="&#x201a;" horiz-adv-x="229" 
d="M138 132c30 -24 45 -51 45 -86c0 -59 -39 -115 -121 -173l-43 38l-1 10c37 31 56 63 56 98c0 23 -11 42 -32 60v11c30 18 62 32 96 42z" />
    <glyph glyph-name="quotedblleft" unicode="&#x201c;" horiz-adv-x="367" 
d="M87 392c-39 21 -57 50 -57 94c0 52 30 105 92 164l46 -30l2 -10c-27 -30 -40 -58 -40 -85c0 -31 10 -53 40 -71v-11c-25 -19 -53 -37 -83 -51zM253 392c-39 21 -57 50 -57 94c0 52 30 105 92 164l46 -30l2 -10c-27 -30 -40 -58 -40 -85c0 -31 10 -53 40 -71v-11
c-25 -19 -53 -37 -83 -51z" />
    <glyph glyph-name="quotedblright" unicode="&#x201d;" horiz-adv-x="365" 
d="M117 650c39 -21 56 -50 56 -94c0 -52 -29 -105 -92 -164l-46 30l-2 10c28 30 41 58 41 85c0 31 -11 53 -41 71v11c25 19 53 37 84 51zM276 650c39 -21 57 -50 57 -94c0 -52 -30 -105 -92 -164l-47 30l-2 10c28 30 41 58 41 85c0 31 -10 53 -40 71v11c24 19 53 37 83 51z
" />
    <glyph glyph-name="quotedblbase" unicode="&#x201e;" horiz-adv-x="394" 
d="M138 132c30 -24 45 -51 45 -86c0 -59 -39 -115 -121 -173l-43 38l-1 10c37 31 56 63 56 98c0 23 -11 42 -32 60v11c30 18 62 32 96 42zM303 132c30 -24 45 -51 45 -86c0 -59 -39 -115 -121 -173l-43 38l-1 10c37 31 56 63 56 98c0 23 -11 42 -32 60v11c30 18 62 32 96 42
z" />
    <glyph glyph-name="dagger" unicode="&#x2020;" horiz-adv-x="502" 
d="M456 323h-162v-34v-377l-82 -6l-9 10v365v42h-155l-8 9l7 80h156l1 173l84 6l8 -7l-1 -172h158l10 -9z" />
    <glyph glyph-name="daggerdbl" unicode="&#x2021;" horiz-adv-x="502" 
d="M453 158l10 -10l-7 -79h-162v-157l-82 -6l-9 10v153h-155l-8 9l7 80h156v123v53h-155l-8 9l7 80h156l1 162l84 6l8 -7l-1 -161h158l10 -9l-7 -80h-162v-45v-131h159z" />
    <glyph glyph-name="bullet" unicode="&#x2022;" horiz-adv-x="277" 
d="M141 333c53 0 83 -31 83 -84c0 -56 -35 -92 -89 -92s-84 31 -84 85c0 56 35 91 90 91z" />
    <glyph glyph-name="onedotenleader" unicode="&#x2024;" horiz-adv-x="229" 
d="M117 135c42 0 66 -25 66 -68c0 -45 -28 -74 -72 -74c-43 0 -67 25 -67 69s28 73 73 73z" />
    <glyph glyph-name="twodotenleader" unicode="&#x2025;" horiz-adv-x="430" 
d="M112 135c42 0 67 -25 67 -68c0 -45 -28 -74 -72 -74c-43 0 -67 25 -67 69s28 73 72 73zM314 135c42 0 66 -25 66 -68c0 -45 -28 -74 -72 -74c-43 0 -67 25 -67 69s28 73 73 73z" />
    <glyph glyph-name="ellipsis" unicode="&#x2026;" horiz-adv-x="631" 
d="M112 135c42 0 67 -25 67 -68c0 -45 -28 -74 -72 -74c-43 0 -67 25 -67 69s28 73 72 73zM314 135c42 0 66 -25 66 -68c0 -45 -28 -74 -72 -74c-43 0 -67 25 -67 69s28 73 73 73zM514 135c42 0 67 -25 67 -68c0 -45 -28 -74 -72 -74c-43 0 -67 25 -67 69s27 73 72 73z" />
    <glyph glyph-name="perthousand" unicode="&#x2030;" horiz-adv-x="1229" 
d="M666 653l8 -19l-466 -726l-57 34l-6 14l467 730zM195 650c96 0 148 -62 148 -175c0 -122 -57 -188 -162 -188c-97 0 -150 62 -150 175c0 121 58 188 164 188zM186 562c-49 0 -71 -29 -71 -93c0 -69 22 -102 72 -102c51 0 73 32 73 97c0 68 -23 98 -74 98zM674 358
c96 0 148 -63 148 -175c0 -122 -57 -189 -162 -189c-97 0 -150 62 -150 175c0 122 58 189 164 189zM1049 358c95 0 148 -63 148 -175c0 -122 -57 -189 -162 -189c-97 0 -150 62 -150 175c0 122 58 189 164 189zM665 270c-49 0 -71 -29 -71 -94c0 -68 22 -101 72 -101
c51 0 73 32 73 96c0 68 -23 99 -74 99zM1040 270c-49 0 -71 -29 -71 -94c0 -68 22 -101 72 -101c51 0 73 32 73 96c0 68 -23 99 -74 99z" />
    <glyph glyph-name="minute" unicode="&#x2032;" horiz-adv-x="205" 
d="M165 633l-35 -220l-62 -9l-11 9l-2 222l102 7z" />
    <glyph glyph-name="second" unicode="&#x2033;" horiz-adv-x="358" 
d="M165 633l-35 -220l-62 -9l-11 9l-2 222l102 7zM319 633l-35 -220l-62 -9l-11 9l-2 222l102 7z" />
    <glyph glyph-name="guilsinglleft" unicode="&#x2039;" horiz-adv-x="244" 
d="M22 215v21l136 179l63 -34l2 -13l-104 -140l104 -140l-2 -13l-63 -34z" />
    <glyph glyph-name="guilsinglright" unicode="&#x203a;" horiz-adv-x="246" 
d="M226 243v-22l-136 -178l-63 33l-2 13l104 141l-104 140l2 13l63 34z" />
    <glyph glyph-name="fraction" unicode="&#x2044;" horiz-adv-x="104" 
d="M292 653l7 -19l-466 -726l-57 34l-6 14l468 730z" />
    <glyph glyph-name="zerosuperior" unicode="&#x2070;" horiz-adv-x="375" 
d="M195 707c96 0 148 -68 148 -191c0 -134 -57 -206 -162 -206c-97 0 -150 68 -150 191c0 133 58 206 164 206zM186 611c-49 0 -71 -32 -71 -102c0 -75 22 -111 72 -111c51 0 73 35 73 105c0 75 -23 108 -74 108z" />
    <glyph glyph-name="foursuperior" unicode="&#x2074;" horiz-adv-x="367" 
d="M335 399l-53 2l5 -79l-6 -7l-83 -4l-6 5l2 86h-101l-66 -3l-7 9v65l165 228h98l-3 -221h54l6 -9zM112 480h84l-1 108h-6z" />
    <glyph glyph-name="fivesuperior" unicode="&#x2075;" horiz-adv-x="320" 
d="M288 698l-10 -77l-7 -7l-65 7h-72l-1 -59l42 -10c76 -16 111 -49 111 -107c0 -83 -72 -136 -178 -136c-24 0 -56 3 -81 8l-6 72l7 8c28 -8 54 -11 80 -11c48 0 75 18 75 49c0 24 -16 37 -56 45l-70 12l-6 8l1 190l11 12l41 -1h106l72 3z" />
    <glyph glyph-name="sixsuperior" unicode="&#x2076;" horiz-adv-x="350" 
d="M207 556c76 0 116 -54 116 -115c0 -69 -47 -132 -149 -132c-92 0 -147 56 -147 148c0 106 73 195 197 250h6l67 -45v-10c-85 -32 -132 -61 -155 -105l5 -6c18 9 39 15 60 15zM176 374c33 0 51 19 51 57c0 36 -17 54 -51 54c-17 0 -35 -5 -52 -13v-13c0 -54 11 -85 52 -85
z" />
    <glyph glyph-name="sevensuperior" unicode="&#x2077;" horiz-adv-x="311" 
d="M107 701h145l35 1v-75l-101 -213l-42 -106l-86 22l-6 16l131 270h-94l-67 -6l-6 9l8 84z" />
    <glyph glyph-name="eightsuperior" unicode="&#x2078;" horiz-adv-x="360" 
d="M189 706c78 0 123 -38 123 -96c0 -40 -22 -66 -60 -88v-5c38 -18 70 -42 70 -91c0 -74 -60 -117 -152 -117c-88 0 -135 41 -135 99c0 46 29 73 76 91v4c-36 18 -65 44 -65 92c0 69 58 111 143 111zM182 637c-31 0 -47 -15 -47 -39c0 -28 25 -41 56 -54c21 14 37 29 37 54
c0 24 -18 39 -46 39zM171 473c-28 -9 -48 -23 -48 -51s20 -46 56 -46c38 0 57 20 57 42c0 30 -30 42 -65 55z" />
    <glyph glyph-name="ninesuperior" unicode="&#x2079;" horiz-adv-x="351" 
d="M178 708c92 0 147 -57 147 -151c0 -105 -73 -194 -198 -248h-6l-66 44v10c85 32 132 62 155 105l-5 6c-18 -9 -40 -14 -61 -14c-74 0 -116 54 -116 115c0 68 48 133 150 133zM176 531c17 0 34 4 52 14v11c0 55 -11 86 -52 86c-34 0 -52 -20 -52 -57c0 -36 17 -54 52 -54z
" />
    <glyph glyph-name="franc" unicode="&#x20a3;" horiz-adv-x="406" 
d="M188 418l-3 -126h80l96 2l6 -9l-7 -80l-104 2h-72l-1 -47l1 -21h111l5 -7l-4 -46h-111l3 -86h-112l3 86h-60l-4 6l3 47h63v11l-5 353h329l7 -9l-8 -80l-132 4h-84z" />
    <glyph glyph-name="Euro" unicode="&#x20ac;" horiz-adv-x="467" 
d="M10 270l-4 8l4 59h71c29 112 113 175 241 175c47 0 92 -11 130 -27l-21 -99l-10 -5c-29 18 -70 29 -104 29c-54 0 -90 -24 -105 -73h142l6 -6l-5 -61h-345zM320 94c33 0 78 10 110 26l11 -6l-10 -98c-39 -17 -80 -23 -118 -23c-133 0 -211 58 -234 168h-69l-4 7l4 60h344
l6 -7l-5 -60h-140c18 -45 53 -67 105 -67z" />
    <glyph glyph-name="literSign" unicode="&#x2113;" horiz-adv-x="263" 
d="M191 205l7 -205h-133l7 193l-6 499l133 10z" />
    <glyph glyph-name="trademark" unicode="&#x2122;" horiz-adv-x="590" 
d="M216 642l3 -5l-3 -48l-50 2h-12l-2 -110l3 -76h-66l3 70l-1 116h-12l-51 -2l-4 5l4 48h188zM541 405h-59l-3 71l-7 68h-4l-49 -117h-52l-43 117h-4l-7 -61l-5 -78h-57l26 237h78l9 -34l31 -93h4l34 91l10 36h77z" />
    <glyph glyph-name="Ohm" unicode="&#x2126;" horiz-adv-x="754" 
d="M384 653c192 0 288 -121 288 -275c0 -95 -37 -192 -115 -272l3 -4h77l85 8l7 -8l-16 -108l-115 6h-141l-37 -2l-7 5v86c79 70 118 163 118 266c0 114 -48 189 -156 189c-107 0 -152 -73 -152 -184c0 -105 40 -200 116 -271v-86l-6 -5l-38 2h-164l-98 -4l-8 9l16 104
l92 -8l60 1l2 4c-79 79 -114 170 -114 261c0 160 105 286 303 286z" />
    <glyph glyph-name="estimated" unicode="&#x212e;" horiz-adv-x="788" 
d="M405 650c202 0 366 -148 366 -331v-7h-595c-3 0 -7 -1 -7 -5v-181c0 -9 5 -16 10 -22c56 -58 137 -95 227 -95c97 0 184 42 243 107h45c-67 -77 -173 -127 -289 -127c-203 0 -368 148 -368 330c0 183 165 331 368 331zM406 630c-90 0 -169 -36 -226 -94
c-7 -6 -11 -15 -11 -24v-175c0 -4 3 -6 7 -6h458c3 0 6 2 6 6v179c0 10 -5 17 -11 23c-57 56 -136 91 -223 91z" />
    <glyph glyph-name="oneeighth" unicode="&#x215b;" horiz-adv-x="760" 
d="M587 653l7 -19l-466 -726l-57 34l-6 14l468 730zM201 639l-5 -242l4 -138h-108l4 126v149l-79 -18l-7 5v83l176 46zM588 391c78 0 123 -38 123 -96c0 -40 -22 -66 -60 -88v-5c38 -18 70 -42 70 -91c0 -74 -60 -117 -152 -117c-88 0 -135 41 -135 99c0 46 29 73 76 91v4
c-36 18 -65 44 -65 92c0 69 58 111 143 111zM581 322c-31 0 -47 -15 -47 -39c0 -28 25 -41 56 -54c21 14 37 29 37 54c0 24 -18 39 -46 39zM570 158c-28 -9 -48 -23 -48 -51s20 -46 56 -46c38 0 57 20 57 42c0 30 -30 42 -65 55z" />
    <glyph glyph-name="threeeighths" unicode="&#x215c;" horiz-adv-x="798" 
d="M625 653l7 -19l-466 -726l-57 34l-6 14l468 730zM151 650c76 0 126 -37 126 -93c0 -30 -15 -67 -61 -91v-4c48 -14 72 -44 72 -90c0 -71 -71 -119 -178 -119c-24 0 -53 3 -76 8l-7 74l8 7c28 -8 53 -11 77 -11c47 0 73 16 73 44c0 24 -17 38 -50 38h-52l-5 7l1 69l31 1
c31 1 59 19 59 47c0 21 -14 31 -42 31c-24 0 -48 -9 -78 -25h-11l-16 70c39 24 85 37 129 37zM626 391c78 0 123 -38 123 -96c0 -40 -22 -66 -60 -88v-5c38 -18 70 -42 70 -91c0 -74 -60 -117 -152 -117c-88 0 -135 41 -135 99c0 46 29 73 76 91v4c-36 18 -65 44 -65 92
c0 69 58 111 143 111zM619 322c-31 0 -47 -15 -47 -39c0 -28 25 -41 56 -54c21 14 37 29 37 54c0 24 -18 39 -46 39zM608 158c-28 -9 -48 -23 -48 -51s20 -46 56 -46c38 0 57 20 57 42c0 30 -30 42 -65 55z" />
    <glyph glyph-name="fiveeighths" unicode="&#x215d;" horiz-adv-x="780" 
d="M607 653l7 -19l-466 -726l-57 34l-6 14l468 730zM288 642l-10 -77l-7 -7l-65 7h-72l-1 -59l42 -10c76 -16 111 -49 111 -107c0 -83 -72 -136 -178 -136c-24 0 -56 3 -81 8l-6 72l7 8c28 -8 54 -11 80 -11c48 0 75 18 75 49c0 24 -16 37 -56 45l-70 12l-6 8l1 190l11 12
l41 -1h106l72 3zM609 391c78 0 123 -38 123 -96c0 -40 -22 -66 -60 -88v-5c38 -18 70 -42 70 -91c0 -74 -60 -117 -152 -117c-88 0 -135 41 -135 99c0 46 29 73 76 91v4c-36 18 -65 44 -65 92c0 69 58 111 143 111zM602 322c-31 0 -47 -15 -47 -39c0 -28 25 -41 56 -54
c21 14 37 29 37 54c0 24 -18 39 -46 39zM591 158c-28 -9 -48 -23 -48 -51s20 -46 56 -46c38 0 57 20 57 42c0 30 -30 42 -65 55z" />
    <glyph glyph-name="seveneighths" unicode="&#x215e;" horiz-adv-x="757" 
d="M584 653l7 -19l-466 -726l-57 34l-6 14l468 730zM107 645h145l35 1v-75l-101 -213l-42 -106l-86 22l-6 16l131 270h-94l-67 -6l-6 9l8 84zM585 391c78 0 123 -38 123 -96c0 -40 -22 -66 -60 -88v-5c38 -18 70 -42 70 -91c0 -74 -60 -117 -152 -117c-88 0 -135 41 -135 99
c0 46 29 73 76 91v4c-36 18 -65 44 -65 92c0 69 58 111 143 111zM578 322c-31 0 -47 -15 -47 -39c0 -28 25 -41 56 -54c21 14 37 29 37 54c0 24 -18 39 -46 39zM567 158c-28 -9 -48 -23 -48 -51s20 -46 56 -46c38 0 57 20 57 42c0 30 -30 42 -65 55z" />
    <glyph glyph-name="arrowleft" unicode="&#x2190;" horiz-adv-x="532" 
d="M500 190l-338 6l132 -138v-18l-73 -17l-197 203v20l197 204l73 -17v-18l-131 -138l333 6l9 -9z" />
    <glyph glyph-name="arrowup" unicode="&#x2191;" horiz-adv-x="532" 
d="M480 284l-17 -73h-18l-138 131l6 -333l-10 -9l-83 5l6 338l-138 -132h-18l-17 73l203 197h20z" />
    <glyph glyph-name="arrowright" unicode="&#x2192;" horiz-adv-x="532" 
d="M507 248v-20l-197 -204l-73 17v18l132 138l-334 -6l-9 9l5 84l337 -6l-131 138v18l73 17z" />
    <glyph glyph-name="arrowdown" unicode="&#x2193;" horiz-adv-x="532" 
d="M479 190l-203 -197h-20l-203 197l17 72h17l138 -131l-6 334l10 8l83 -5l-6 -338l139 132h17z" />
    <glyph glyph-name="arrowupleft" unicode="&#x2196;" horiz-adv-x="532" 
d="M469 109v-13l-63 -55l-234 243l-5 -191l-13 -13l-63 40l4 282l14 15l284 4l39 -63l-13 -13l-189 -5z" />
    <glyph glyph-name="arrowupright" unicode="&#x2197;" horiz-adv-x="532" 
d="M440 124l-63 -40l-13 13l-5 191l-231 -241l-13 1l-56 62l244 234l-192 5l-12 13l39 63l283 -4l14 -14z" />
    <glyph glyph-name="arrowdownright" unicode="&#x2198;" horiz-adv-x="532" 
d="M439 349l-4 -282l-14 -15l-283 -4l-40 63l13 13l190 5l-240 231l1 13l62 55l234 -243l5 191l13 13z" />
    <glyph glyph-name="arrowdownleft" unicode="&#x2199;" horiz-adv-x="532" 
d="M420 128l12 -13l-39 -63l-283 4l-14 14l-4 283l63 40l12 -13l5 -191l232 241l13 -1l55 -62l-243 -234z" />
    <glyph glyph-name="partialdiff" unicode="&#x2202;" horiz-adv-x="519" 
d="M146 718h9c214 -96 338 -247 338 -453c0 -169 -87 -275 -241 -275c-152 0 -225 99 -225 223c0 121 72 221 201 221c35 -1 69 -13 101 -32l10 9c-43 106 -138 178 -287 228v12zM256 84c74 0 110 57 110 173c0 13 0 26 -1 38c-36 26 -71 40 -106 40
c-70 0 -107 -41 -107 -123c0 -83 36 -128 104 -128z" />
    <glyph glyph-name="increment" unicode="&#x2206;" horiz-adv-x="600" 
d="M584 0h-576l217 644h162zM298 517l-135 -413h261l-116 413h-10z" />
    <glyph glyph-name="product" unicode="&#x220f;" horiz-adv-x="695" 
d="M591 536l-5 -332l5 -204h-136l8 192l-6 346h-224l-5 -334l5 -204h-136l7 192l-5 344l-51 -2l-9 11l9 99h600l9 -11l-9 -99z" />
    <glyph glyph-name="summation" unicode="&#x2211;" horiz-adv-x="515" 
d="M490 634l-8 -99l-104 6h-184l183 -207v-21l-184 -211h176l117 8l9 -11l-9 -100l-364 1l-92 -2v95l200 231l-198 219v101l450 1z" />
    <glyph glyph-name="minus" unicode="&#x2212;" horiz-adv-x="480" 
d="M457 296l-7 -81h-418l-9 9l7 81h418z" />
    <glyph glyph-name="divisionslash" unicode="&#x2215;" horiz-adv-x="284" 
d="M306 668l-206 -783h-92l-8 11l206 784h90z" />
    <glyph glyph-name="bulletoperator" unicode="&#x2219;" horiz-adv-x="277" 
d="M141 334c52 0 83 -32 83 -84c0 -57 -35 -92 -89 -92s-84 31 -84 85c0 55 34 91 90 91z" />
    <glyph glyph-name="radical" unicode="&#x221a;" horiz-adv-x="503" 
d="M311 0h-143l-101 373h-92l-5 6l4 86h180l5 -6l88 -343h9l190 585l11 9h89z" />
    <glyph glyph-name="infinity" unicode="&#x221e;" horiz-adv-x="480" 
d="M357 413c83 0 131 -63 131 -153c0 -97 -54 -149 -128 -149c-51 0 -85 27 -115 76c-25 -44 -65 -76 -124 -76c-83 0 -131 60 -131 151c0 96 51 151 128 151c54 0 87 -30 116 -74c21 36 59 74 123 74zM125 330c-39 0 -61 -25 -61 -67s22 -66 57 -66c41 0 62 35 80 77
c-18 33 -39 56 -76 56zM356 327c-44 0 -63 -38 -79 -76c19 -34 40 -59 77 -59c36 0 59 24 59 68c0 41 -21 67 -57 67z" />
    <glyph glyph-name="integral" unicode="&#x222b;" horiz-adv-x="295" 
d="M277 712c26 0 53 -3 80 -9l-8 -94l-10 -6c-32 13 -58 18 -76 18c-40 0 -59 -21 -60 -64l2 -503c1 -96 -32 -150 -128 -207l-57 56v11c47 38 68 72 67 136l-5 486c0 113 72 176 195 176z" />
    <glyph glyph-name="approxequal" unicode="&#x2248;" horiz-adv-x="480" 
d="M162 332c-22 0 -44 -27 -73 -56h-12l-36 43v12l82 93l13 6c54 -10 175 -53 208 -53c21 0 42 25 72 56h12l35 -44v-12l-82 -93l-12 -4c-55 7 -175 52 -207 52zM162 143c-22 0 -44 -26 -73 -55h-12l-36 43v12l82 93l13 6c54 -10 175 -53 208 -53c21 0 42 25 72 55h12
l35 -43v-12l-82 -93l-12 -5c-55 8 -175 52 -207 52z" />
    <glyph glyph-name="notequal" unicode="&#x2260;" horiz-adv-x="480" 
d="M448 210l9 -9l-7 -81h-203l-34 -142h-83l-7 10l31 132h-122l-9 9l7 81h145l23 99h-166l-9 9l7 81h189l33 140h82l9 -10l-31 -130h136l9 -9l-7 -81h-159l-23 -99h180z" />
    <glyph glyph-name="lessequal" unicode="&#x2264;" horiz-adv-x="480" 
d="M445 395l-6 -10l-311 -118v-7l312 -114l-19 -74l-12 -9l-375 143v108l9 12l373 145zM457 -35l-7 -81h-418l-9 9l7 81h418z" />
    <glyph glyph-name="greaterequal" unicode="&#x2265;" horiz-adv-x="480" 
d="M437 326l9 -12v-108l-376 -143l-12 9l-18 74l311 114v7l-311 118l-5 10l28 76zM457 -35l-7 -81h-418l-9 9l7 81h418z" />
    <glyph glyph-name="lozenge" unicode="&#x25ca;" horiz-adv-x="513" 
d="M313 642l157 -342l-1 -38l-156 -345l-101 -4l-11 6l-156 341v36l156 346l103 5zM251 551l-119 -276l124 -265h6l120 271l-125 270h-6z" />
    <glyph glyph-name="dieresisacute" unicode="&#xf6d7;" 
d="M299 840l20 -83l-7 -12c-80 -15 -151 -28 -225 -38l-12 5l-11 59c77 23 148 46 223 75zM110 660c37 0 58 -22 58 -60c0 -39 -24 -65 -63 -65c-38 0 -59 22 -59 61s24 64 64 64zM284 660c37 0 58 -22 58 -60c0 -39 -24 -65 -63 -65c-38 0 -59 22 -59 61s24 64 64 64z" />
    <glyph glyph-name="dieresisgrave" unicode="&#xf6d8;" 
d="M83 840l12 6c75 -29 146 -52 224 -75l-12 -59l-12 -5c-73 10 -145 23 -225 38l-6 12zM110 660c37 0 58 -22 58 -60c0 -39 -24 -65 -63 -65c-38 0 -59 22 -59 61s24 64 64 64zM284 660c37 0 58 -22 58 -60c0 -39 -24 -65 -63 -65c-38 0 -59 22 -59 61s24 64 64 64z" />
    <glyph glyph-name="Iacute_J.loclNLD" horiz-adv-x="630" 
d="M262 886l34 -79l-4 -12c-77 -30 -145 -54 -215 -78l-13 4l-22 55c73 37 139 72 208 113zM592 807l-4 -12c-77 -30 -145 -54 -215 -78l-13 4l-22 55c73 37 139 72 208 113l12 -3zM216 644l-7 -440l6 -204h-137l8 192l-8 452h138zM553 644l-7 -432l2 -91
c0 -111 -50 -172 -197 -227l-41 72v12c81 42 113 77 113 145v76l-6 345l-106 -3l-10 10l7 93h245z" />
    <glyph glyph-name="Q.corta" horiz-adv-x="649" 
d="M655 -82l6 -14c-18 -35 -38 -65 -65 -89l-10 -5c-97 55 -181 112 -255 180h-19c-182 0 -284 118 -284 324c0 217 110 339 305 339c181 0 283 -114 283 -319c0 -156 -58 -266 -162 -315c59 -38 125 -72 201 -101zM169 329c0 -168 46 -234 154 -234c104 0 151 62 151 217
c0 167 -46 231 -154 231c-106 0 -151 -61 -151 -214z" />
    <glyph glyph-name="C.ss01" horiz-adv-x="454" 
d="M283 404c-77 0 -117 -43 -117 -143c0 -106 42 -159 123 -159c37 0 82 12 115 30l11 -6l-8 -77h147v-49h-654v49h219c-53 41 -80 109 -80 200c0 94 31 165 89 207h-228v49h654v-49h-133l-16 -81l-11 -5c-29 21 -71 34 -111 34z" />
    <glyph glyph-name="D.ss01" horiz-adv-x="570" 
d="M670 456h-221c52 -38 80 -101 80 -186c0 -101 -32 -176 -93 -221h234v-49h-770v49h182l4 103l-4 304h-182v49h770v-49zM197 164l2 -63c29 -4 71 -7 88 -7c73 0 116 42 116 148c0 116 -36 160 -118 160c-16 0 -55 -1 -83 -3z" />
    <glyph glyph-name="I.ss01" horiz-adv-x="279" 
d="M194 162l4 -113h181v-49h-479v49h175l3 101l-4 306h-174v49h479v-49h-179z" />
    <glyph glyph-name="L.ss01" horiz-adv-x="400" 
d="M197 456l-6 -292l1 -57h172l7 -10l-4 -48h133v-49h-600v49h174l4 103l-5 304h-173v49h600v-49h-303z" />
    <glyph glyph-name="M.ss01" horiz-adv-x="686" 
d="M580 456l37 -407h169v-49h-886v49h163l43 407h-206v49h886v-49h-206zM430 456h-172l9 -29l70 -185h8l74 183zM513 49l-5 122l-14 155h-8l-106 -238h-92l-96 238h-7l-16 -146l-7 -131h351z" />
    <glyph glyph-name="X.ss01" horiz-adv-x="536" 
d="M343 266l141 -217h152v-49h-736v49h161l139 200l-139 207h-161v49h736v-49h-164zM205 434l70 -99l74 103l9 18h-164zM340 74l-74 104l-83 -109l-10 -20h179z" />
    <glyph glyph-name="V.ss01" horiz-adv-x="519" 
d="M484 456l-141 -407h276v-49h-719v49h270l-128 407h-142v49h719v-49h-135zM373 456h-214l6 -31l90 -306h7l104 299z" />
    <glyph glyph-name="idotaccent" horiz-adv-x="254" 
d="M132 693c42 0 66 -25 66 -68c0 -45 -27 -74 -71 -74s-68 25 -68 69s28 73 73 73zM186 205l7 -205h-133l7 192l-6 264l133 11z" />
    <glyph glyph-name="germandbls.calt" horiz-adv-x="668" 
d="M339 652c91 0 170 -25 260 -67l6 -20l-144 -188c123 -60 188 -101 188 -199c0 -124 -100 -187 -219 -187c-58 0 -122 14 -176 41l19 126l15 8c50 -45 107 -71 151 -71c46 0 76 28 76 68c0 51 -55 89 -212 151l-5 21l139 185c-39 16 -72 23 -108 23
c-91 0 -135 -44 -135 -128l-3 -210l6 -205h-137l8 190l-4 225c-1 142 97 237 275 237z" />
    <glyph glyph-name="f.f" horiz-adv-x="323" 
d="M224 381l-3 -176l7 -205h-133l8 193l-2 188h-70l-5 7l7 73h67l-1 41c-1 121 72 188 200 188c28 0 53 -3 81 -9l-8 -95l-9 -6c-33 13 -56 17 -75 17c-41 0 -61 -23 -62 -71l-1 -65h240l4 -7l-6 -73h-239z" />
    <glyph glyph-name="iacute_j.loclNLD" horiz-adv-x="539" 
d="M226 723l48 -72l-2 -13c-70 -43 -131 -81 -195 -118l-13 1l-32 50c64 51 122 98 181 153zM491 723l48 -72l-2 -13c-70 -43 -131 -81 -195 -118l-13 1l-32 50c64 51 122 98 181 153zM474 465l-8 -260l6 -178c0 -106 -48 -170 -163 -222l-46 59v12c60 34 83 75 83 147
l2 169l-4 189h-81l-8 8l7 72h84l124 7zM186 205l7 -205h-133l7 192l-6 264l133 11z" />
    <glyph glyph-name="f.l" horiz-adv-x="349" 
d="M314 710c52 0 103 -8 161 -25l-27 -96l-10 -6c-53 24 -95 33 -130 33c-49 0 -81 -22 -82 -83l-1 -72h113l4 -7l-6 -73h-112l-3 -177l7 -204h-133l8 192l-3 189h-69l-5 7l7 73h66l-1 52c0 129 78 197 216 197z" />
    <glyph glyph-name="a.sups" horiz-adv-x="340" 
d="M176 652c75 0 117 -34 117 -92c0 -21 -6 -123 -6 -139c0 -15 4 -22 13 -22c5 0 11 0 16 4l7 -6l-10 -55c-16 -12 -31 -17 -50 -17c-34 0 -49 13 -58 48h-4c-20 -24 -46 -41 -72 -49c-64 1 -104 38 -104 98c0 45 24 73 73 81l99 16l1 21c0 28 -12 40 -40 40
c-26 0 -56 -11 -96 -34l-7 3l-11 67c39 22 87 36 132 36zM197 471l-54 -10c-16 -3 -25 -12 -25 -30c0 -22 12 -36 33 -36c14 0 31 9 45 24z" />
    <glyph glyph-name="b.sups" horiz-adv-x="363" 
d="M217 648c77 0 122 -57 122 -153c0 -112 -61 -172 -158 -172c-27 0 -57 5 -85 15l-46 -14l-9 10l4 125l-4 337l104 6l-4 -203h3c21 25 46 43 73 49zM174 389c43 0 69 25 69 93c0 56 -19 85 -58 85c-16 0 -30 -6 -45 -18l-1 -77l1 -77c13 -4 25 -6 34 -6z" />
    <glyph glyph-name="c.sups" horiz-adv-x="265" 
d="M178 652c30 0 60 -8 83 -19l-18 -79l-8 -4c-20 11 -38 18 -57 18c-37 0 -57 -25 -57 -75c0 -58 22 -88 63 -88c19 0 40 5 64 14l8 -6l-11 -76c-26 -9 -55 -14 -86 -14c-86 0 -136 60 -136 160c0 107 58 169 155 169z" />
    <glyph glyph-name="zero.lf" horiz-adv-x="521" 
d="M269 594c136 0 211 -105 211 -293c0 -199 -80 -310 -227 -310c-137 0 -213 104 -213 293c0 199 82 310 229 310zM259 469c-79 0 -116 -58 -116 -176c0 -124 38 -185 117 -185s117 59 117 178c0 123 -38 183 -118 183z" />
    <glyph glyph-name="zero.dnom" horiz-adv-x="375" 
d="M195 391c96 0 148 -68 148 -191c0 -134 -57 -206 -162 -206c-97 0 -150 68 -150 191c0 133 58 206 164 206zM186 295c-49 0 -71 -32 -71 -102c0 -75 22 -111 72 -111c51 0 73 35 73 105c0 75 -23 108 -74 108z" />
    <glyph glyph-name="one.dnom" horiz-adv-x="276" 
d="M201 380l-5 -242l4 -138h-108l4 126v149l-79 -18l-7 5v83l176 46z" />
    <glyph glyph-name="one.lf" horiz-adv-x="374" 
d="M272 580l-8 -372l6 -208h-134l6 194l-1 248l-126 -29l-9 7v106l246 68z" />
    <glyph glyph-name="d.sups" horiz-adv-x="367" 
d="M322 802l-4 -382c0 -14 4 -21 14 -21c4 0 9 0 15 4l8 -6l-11 -55c-17 -12 -36 -17 -57 -17c-30 0 -47 11 -58 46h-4c-20 -23 -44 -40 -69 -45c-82 0 -133 60 -133 156c0 111 63 169 162 169c10 0 22 -2 36 -5l-2 150zM183 580c-43 0 -64 -23 -64 -85c0 -64 21 -93 55 -93
c17 0 34 9 50 25l-3 148c-12 3 -25 5 -38 5z" />
    <glyph glyph-name="e.sups" horiz-adv-x="328" 
d="M177 651c85 0 132 -48 132 -130c0 -11 -1 -28 -3 -40l-7 -11h-179c5 -48 27 -71 75 -71c28 0 62 6 97 20l7 -6l-10 -72c-31 -11 -70 -18 -104 -18c-103 0 -162 61 -162 164s59 164 154 164zM120 519l99 1c1 7 1 9 1 14c0 32 -19 49 -46 49c-31 0 -49 -22 -54 -64z" />
    <glyph glyph-name="two.lf" horiz-adv-x="498" 
d="M253 594c93 0 164 -52 164 -139c0 -61 -36 -128 -118 -232l-87 -114l2 -4h155l96 8l7 -10l-15 -109l-127 6h-243l-39 -2l-7 5v82l140 165c63 77 105 129 105 173c0 32 -22 58 -66 58s-97 -28 -141 -74h-14l-23 104c66 52 138 83 211 83z" />
    <glyph glyph-name="two.dnom" horiz-adv-x="361" 
d="M184 390c67 0 120 -33 120 -94c0 -39 -24 -81 -81 -149l-51 -64l2 -2h91l67 4l5 -7l-11 -82l-94 4h-167l-26 -1l-6 3v62l94 102c42 48 70 79 70 106c0 18 -13 33 -40 33c-28 0 -65 -18 -94 -46h-12l-18 79c49 33 100 52 151 52z" />
    <glyph glyph-name="three.dnom" horiz-adv-x="321" 
d="M151 391c76 0 126 -37 126 -93c0 -30 -15 -67 -61 -91v-4c48 -14 72 -44 72 -90c0 -71 -71 -119 -178 -119c-24 0 -53 3 -76 8l-7 74l8 7c28 -8 53 -11 77 -11c47 0 73 16 73 44c0 24 -17 38 -50 38h-52l-5 7l1 69l31 1c31 1 59 19 59 47c0 21 -14 31 -42 31
c-24 0 -48 -9 -78 -25h-11l-16 70c39 24 85 37 129 37z" />
    <glyph glyph-name="f.sups" horiz-adv-x="212" 
d="M218 804c19 0 38 -2 59 -6l-6 -75l-8 -6c-24 11 -42 14 -56 14c-23 0 -38 -11 -38 -41v-48h73l3 -5l-4 -56h-73l-1 -112l4 -139h-103l5 128l-2 123h-46l-3 6l4 55h44v30c0 86 54 132 148 132z" />
    <glyph glyph-name="three.lf" horiz-adv-x="440" 
d="M205 596c105 0 175 -55 175 -137c0 -48 -24 -105 -94 -143v-4c74 -21 110 -65 110 -133c0 -112 -100 -187 -250 -187c-34 0 -75 4 -107 10l-8 104l9 8c38 -14 75 -21 111 -21c73 0 118 31 118 83c0 44 -31 69 -91 71h-70l-7 8l3 92l44 1c47 1 97 33 97 83
c0 37 -25 57 -68 57c-39 0 -75 -17 -118 -47h-14l-20 97c56 39 118 58 180 58z" />
    <glyph glyph-name="g.sups" horiz-adv-x="346" 
d="M358 661v-65c-18 -4 -31 -6 -48 -7l-1 -1c7 -13 11 -28 11 -43c0 -70 -55 -111 -142 -111c-14 0 -28 1 -40 3c-6 -6 -8 -10 -8 -15c0 -43 201 8 201 -110c0 -67 -63 -113 -159 -113c-87 0 -134 36 -134 87c9 21 31 37 55 51v3c-28 11 -48 29 -48 65c13 16 30 29 49 42v4
c-34 18 -53 48 -53 89c0 69 53 111 141 111c27 0 52 -5 72 -14c33 6 67 18 96 30zM180 494c31 0 49 16 49 48c0 31 -16 45 -48 45c-33 0 -49 -15 -49 -45c0 -32 15 -48 48 -48zM242 294c0 28 -49 28 -98 35c-15 -11 -23 -21 -23 -35c0 -23 21 -38 60 -38c36 0 61 13 61 38z
" />
    <glyph glyph-name="four.dnom" horiz-adv-x="367" 
d="M335 84l-53 2l5 -79l-6 -7l-83 -4l-6 5l2 86h-101l-66 -3l-7 9v65l165 228h98l-3 -221h54l6 -9zM112 165h84l-1 108h-6z" />
    <glyph glyph-name="four.lf" horiz-adv-x="504" 
d="M467 140l-82 1l5 -131l-7 -10l-103 -7l-7 9l3 140h-159l-87 -2l-8 11v85l242 350h123l-3 -342h81l8 -11zM136 244h142l-1 192h-8z" />
    <glyph glyph-name="five.lf" horiz-adv-x="438" 
d="M399 583l-13 -103l-9 -9l-92 10h-115l-3 -110l62 -13c120 -25 165 -77 165 -160c0 -125 -103 -207 -254 -207c-34 0 -76 5 -111 12l-8 103l10 10c42 -16 80 -23 119 -23c74 0 118 34 118 88c0 44 -28 69 -98 82l-96 17l-9 10l2 283l16 16l58 -3h146l104 6z" />
    <glyph glyph-name="five.dnom" horiz-adv-x="320" 
d="M288 383l-10 -77l-7 -7l-65 7h-72l-1 -59l42 -10c76 -16 111 -49 111 -107c0 -83 -72 -136 -178 -136c-24 0 -56 3 -81 8l-6 72l7 8c28 -8 54 -11 80 -11c48 0 75 18 75 49c0 24 -16 37 -56 45l-70 12l-6 8l1 190l11 12l41 -1h106l72 3z" />
    <glyph glyph-name="six.lf" horiz-adv-x="481" 
d="M283 361c107 0 166 -78 166 -174c0 -105 -72 -197 -212 -197c-133 0 -205 85 -205 225c0 163 107 300 291 381h7l92 -59v-13c-139 -52 -214 -104 -247 -182l7 -9c29 18 64 28 101 28zM243 77c54 0 87 33 87 94c0 63 -30 97 -86 97c-30 0 -61 -11 -91 -30v-21
c0 -91 22 -140 90 -140z" />
    <glyph glyph-name="h.sups" horiz-adv-x="366" 
d="M226 330l6 187c0 33 -16 49 -42 49c-15 0 -31 -6 -48 -18l-1 -79l4 -139h-104l5 129l-4 337l103 6l-2 -204h2c25 25 51 44 84 49c64 0 100 -30 99 -88l-3 -90l4 -139h-103z" />
    <glyph glyph-name="i.sups" horiz-adv-x="183" 
d="M97 805c32 0 49 -20 49 -53c0 -34 -20 -56 -54 -56c-32 0 -50 19 -50 53c0 33 21 56 55 56zM141 469l4 -139h-104l6 129l-4 179l102 8z" />
    <glyph glyph-name="seven.lf" horiz-adv-x="426" 
d="M136 586h214l49 1v-96l-158 -353l-57 -149l-107 30l-8 20l201 437h-156l-91 -8l-7 11l9 110z" />
    <glyph glyph-name="six.dnom" horiz-adv-x="350" 
d="M207 241c76 0 116 -54 116 -115c0 -69 -47 -132 -149 -132c-92 0 -147 56 -147 148c0 106 73 195 197 250h6l67 -45v-10c-85 -32 -132 -61 -155 -105l5 -6c18 9 39 15 60 15zM176 59c33 0 51 19 51 57c0 36 -17 54 -51 54c-17 0 -35 -5 -52 -13v-13c0 -54 11 -85 52 -85z
" />
    <glyph glyph-name="j.sups" horiz-adv-x="207" 
d="M95 805c32 0 50 -20 50 -53c0 -34 -21 -56 -53 -56c-33 0 -52 19 -52 53c0 33 22 56 55 56zM151 645l-5 -176l4 -119c0 -71 -32 -116 -105 -151l-35 46v9c30 21 43 48 43 93v112l-1 106l-42 -2l-5 7l5 72h43l96 5z" />
    <glyph glyph-name="eight.lf" horiz-adv-x="493" 
d="M258 595c108 0 172 -56 172 -146c0 -63 -37 -104 -94 -135v-7c59 -27 111 -63 111 -141c0 -109 -86 -175 -214 -175c-124 0 -192 64 -192 151c0 74 48 115 116 142v6c-53 27 -97 66 -97 140c0 103 80 165 198 165zM249 503c-51 0 -80 -27 -80 -69c0 -48 42 -70 89 -89
c37 20 68 44 68 89c0 43 -29 69 -77 69zM235 250c-47 -17 -83 -39 -83 -91c0 -47 34 -79 92 -79c61 0 93 34 93 76c0 51 -49 72 -102 94z" />
    <glyph glyph-name="seven.dnom" horiz-adv-x="311" 
d="M107 386h145l35 1v-75l-101 -213l-42 -106l-86 22l-6 16l131 270h-94l-67 -6l-6 9l8 84z" />
    <glyph glyph-name="eight.dnom" horiz-adv-x="360" 
d="M189 391c78 0 123 -38 123 -96c0 -40 -22 -66 -60 -88v-5c38 -18 70 -42 70 -91c0 -74 -60 -117 -152 -117c-88 0 -135 41 -135 99c0 46 29 73 76 91v4c-36 18 -65 44 -65 92c0 69 58 111 143 111zM182 322c-31 0 -47 -15 -47 -39c0 -28 25 -41 56 -54c21 14 37 29 37 54
c0 24 -18 39 -46 39zM171 158c-28 -9 -48 -23 -48 -51s20 -46 56 -46c38 0 57 20 57 42c0 30 -30 42 -65 55z" />
    <glyph glyph-name="k.sups" horiz-adv-x="342" 
d="M332 645l-93 -141c30 -53 65 -104 100 -156l-1 -11c-32 -7 -63 -10 -96 -14l-11 5c-34 54 -65 108 -91 165v-24l5 -139h-104l5 129l-4 337l103 6l-5 -300l71 108l15 35h106z" />
    <glyph glyph-name="nine.lf" horiz-adv-x="480" 
d="M247 596c133 0 205 -84 205 -224c0 -164 -107 -301 -291 -381h-7l-91 59v13c138 51 213 103 246 182l-7 8c-29 -17 -64 -28 -101 -28c-106 0 -166 78 -166 174c0 105 72 197 212 197zM240 319c30 0 61 11 91 30v21c0 91 -22 139 -90 139c-54 0 -86 -32 -86 -94
s29 -96 85 -96z" />
    <glyph glyph-name="nine.dnom" horiz-adv-x="351" 
d="M178 393c92 0 147 -57 147 -151c0 -105 -73 -194 -198 -248h-6l-66 44v10c85 32 132 62 155 105l-5 6c-18 -9 -40 -14 -61 -14c-74 0 -116 54 -116 115c0 68 48 133 150 133zM176 216c17 0 34 4 52 14v11c0 55 -11 86 -52 86c-34 0 -52 -20 -52 -57c0 -36 17 -54 52 -54z
" />
    <glyph glyph-name="l.sups" horiz-adv-x="183" 
d="M140 469l4 -139h-103l5 129l-4 337l102 6z" />
    <glyph glyph-name="zero.sinf" horiz-adv-x="375" 
d="M195 271c96 0 148 -68 148 -191c0 -134 -57 -206 -162 -206c-97 0 -150 68 -150 191c0 133 58 206 164 206zM186 175c-49 0 -71 -32 -71 -102c0 -75 22 -111 72 -111c51 0 73 35 73 105c0 75 -23 108 -74 108z" />
    <glyph glyph-name="m.sups" horiz-adv-x="555" 
d="M416 330l5 188c0 33 -15 50 -42 50c-16 0 -32 -7 -49 -19l-3 -80l4 -139h-102l5 188c0 33 -15 50 -43 50c-17 0 -34 -7 -52 -21v-78l4 -139h-102l5 129l-4 179l97 8v-48h5c25 25 53 44 86 49c49 0 81 -17 94 -50h3c25 26 57 45 91 50c64 0 100 -30 99 -88l-1 -90l2 -139
h-102z" />
    <glyph glyph-name="zero.numr" horiz-adv-x="375" 
d="M195 650c96 0 148 -68 148 -191c0 -134 -57 -206 -162 -206c-97 0 -150 68 -150 191c0 133 58 206 164 206zM186 554c-49 0 -71 -32 -71 -102c0 -75 22 -111 72 -111c51 0 73 35 73 105c0 75 -23 108 -74 108z" />
    <glyph glyph-name="one.sinf" horiz-adv-x="276" 
d="M201 260l-5 -242l4 -138h-108l4 126v149l-79 -18l-7 5v83l176 46z" />
    <glyph glyph-name="one.numr" horiz-adv-x="276" 
d="M201 639l-5 -242l4 -138h-108l4 126v149l-79 -18l-7 5v83l176 46z" />
    <glyph glyph-name="two.sinf" horiz-adv-x="361" 
d="M184 270c67 0 120 -33 120 -94c0 -39 -24 -81 -81 -149l-51 -64l2 -2h91l67 4l5 -7l-11 -82l-94 4h-167l-26 -1l-6 3v62l94 102c42 48 70 79 70 106c0 18 -13 33 -40 33c-28 0 -65 -18 -94 -46h-12l-18 79c49 33 100 52 151 52z" />
    <glyph glyph-name="n.sups" horiz-adv-x="366" 
d="M225 330l6 187c0 33 -14 49 -42 49c-14 0 -31 -6 -48 -18v-79l4 -139h-104l5 129l-4 179l99 8v-48h4c24 25 52 44 85 49c63 0 99 -30 98 -88l-2 -90l3 -139h-104z" />
    <glyph glyph-name="o.sups" horiz-adv-x="347" 
d="M179 652c95 0 145 -55 145 -159c0 -111 -54 -170 -156 -170c-95 0 -145 55 -145 159c0 111 54 170 156 170zM173 581c-38 0 -52 -24 -52 -88c0 -75 15 -101 54 -101c38 0 53 23 53 89c0 74 -16 100 -55 100z" />
    <glyph glyph-name="three.sinf" horiz-adv-x="321" 
d="M151 271c76 0 126 -37 126 -93c0 -30 -15 -67 -61 -91v-4c48 -14 72 -44 72 -90c0 -71 -71 -119 -178 -119c-24 0 -53 3 -76 8l-7 74l8 7c28 -8 53 -11 77 -11c47 0 73 16 73 44c0 24 -17 38 -50 38h-52l-5 7l1 69l31 1c31 1 59 19 59 47c0 21 -14 31 -42 31
c-24 0 -48 -9 -78 -25h-11l-16 70c39 24 85 37 129 37z" />
    <glyph glyph-name="two.numr" horiz-adv-x="361" 
d="M184 649c67 0 120 -33 120 -94c0 -39 -24 -81 -81 -149l-51 -64l2 -2h91l67 4l5 -7l-11 -82l-94 4h-167l-26 -1l-6 3v62l94 102c42 48 70 79 70 106c0 18 -13 33 -40 33c-28 0 -65 -18 -94 -46h-12l-18 79c49 33 100 52 151 52z" />
    <glyph glyph-name="three.numr" horiz-adv-x="321" 
d="M151 650c76 0 126 -37 126 -93c0 -30 -15 -67 -61 -91v-4c48 -14 72 -44 72 -90c0 -71 -71 -119 -178 -119c-24 0 -53 3 -76 8l-7 74l8 7c28 -8 53 -11 77 -11c47 0 73 16 73 44c0 24 -17 38 -50 38h-52l-5 7l1 69l31 1c31 1 59 19 59 47c0 21 -14 31 -42 31
c-24 0 -48 -9 -78 -25h-11l-16 70c39 24 85 37 129 37z" />
    <glyph glyph-name="p.sups" horiz-adv-x="370" 
d="M216 648c77 0 122 -56 122 -152c0 -113 -61 -173 -158 -173c-13 0 -26 1 -39 3l1 -120h-101l3 253l-3 179l98 8v-47h4c21 25 45 43 73 49zM173 389c43 0 68 25 68 93c0 56 -18 84 -57 84c-16 0 -31 -5 -45 -17v-80l1 -74c12 -4 23 -6 33 -6z" />
    <glyph glyph-name="four.sinf" horiz-adv-x="367" 
d="M335 -36l-53 2l5 -79l-6 -7l-83 -4l-6 5l2 86h-101l-66 -3l-7 9v65l165 228h98l-3 -221h54l6 -9zM112 45h84l-1 108h-6z" />
    <glyph glyph-name="five.sinf" horiz-adv-x="320" 
d="M288 263l-10 -77l-7 -7l-65 7h-72l-1 -59l42 -10c76 -16 111 -49 111 -107c0 -83 -72 -136 -178 -136c-24 0 -56 3 -81 8l-6 72l7 8c28 -8 54 -11 80 -11c48 0 75 18 75 49c0 24 -16 37 -56 45l-70 12l-6 8l1 190l11 12l41 -1h106l72 3z" />
    <glyph glyph-name="q.sups" horiz-adv-x="356" 
d="M312 652l7 -6l-3 -180l2 -260h-101l5 145v14h-5c-18 -19 -38 -35 -62 -39c-83 0 -132 60 -132 156c0 111 64 169 157 169c28 0 56 -7 83 -15zM181 580c-42 0 -62 -23 -62 -85c0 -64 20 -93 53 -93c18 0 34 9 49 24v147c-14 6 -28 7 -40 7z" />
    <glyph glyph-name="four.numr" horiz-adv-x="367" 
d="M335 343l-53 2l5 -79l-6 -7l-83 -4l-6 5l2 86h-101l-66 -3l-7 9v65l165 228h98l-3 -221h54l6 -9zM112 424h84l-1 108h-6z" />
    <glyph glyph-name="five.numr" horiz-adv-x="320" 
d="M288 642l-10 -77l-7 -7l-65 7h-72l-1 -59l42 -10c76 -16 111 -49 111 -107c0 -83 -72 -136 -178 -136c-24 0 -56 3 -81 8l-6 72l7 8c28 -8 54 -11 80 -11c48 0 75 18 75 49c0 24 -16 37 -56 45l-70 12l-6 8l1 190l11 12l41 -1h106l72 3z" />
    <glyph glyph-name="six.sinf" horiz-adv-x="350" 
d="M207 121c76 0 116 -54 116 -115c0 -69 -47 -132 -149 -132c-92 0 -147 56 -147 148c0 106 73 195 197 250h6l67 -45v-10c-85 -32 -132 -61 -155 -105l5 -6c18 9 39 15 60 15zM176 -61c33 0 51 19 51 57c0 36 -17 54 -51 54c-17 0 -35 -5 -52 -13v-13c0 -54 11 -85 52 -85
z" />
    <glyph glyph-name="r.sups" horiz-adv-x="243" 
d="M223 645c4 0 9 0 16 -1v-90l-11 -4c-8 2 -16 3 -22 3c-25 0 -45 -11 -66 -37v-47l5 -139h-104l5 129l-4 179l98 8v-63h5c19 40 44 62 78 62z" />
    <glyph glyph-name="s.sups" horiz-adv-x="274" 
d="M154 651c32 0 63 -7 89 -16l-13 -73l-12 -4c-29 17 -60 27 -76 27c-20 0 -30 -11 -30 -25c0 -43 137 -33 137 -132c0 -53 -38 -106 -128 -106c-32 0 -68 7 -105 20l12 77l9 7c31 -24 69 -38 94 -38c21 0 32 11 32 24c0 45 -138 35 -138 134c0 60 48 105 129 105z" />
    <glyph glyph-name="seven.sinf" horiz-adv-x="311" 
d="M107 266h145l35 1v-75l-101 -213l-42 -106l-86 22l-6 16l131 270h-94l-67 -6l-6 9l8 84z" />
    <glyph glyph-name="six.numr" horiz-adv-x="350" 
d="M207 500c76 0 116 -54 116 -115c0 -69 -47 -132 -149 -132c-92 0 -147 56 -147 148c0 106 73 195 197 250h6l67 -45v-10c-85 -32 -132 -61 -155 -105l5 -6c18 9 39 15 60 15zM176 318c33 0 51 19 51 57c0 36 -17 54 -51 54c-17 0 -35 -5 -52 -13v-13c0 -54 11 -85 52 -85
z" />
    </font>
</defs>
</svg>
