<?xml version="1.0" standalone="no"?>
<!DOCTYPE svg PUBLIC "-//W3C//DTD SVG 1.1//EN" "http://www.w3.org/Graphics/SVG/1.1/DTD/svg11.dtd" >
<svg>
<metadata>
Created by FontForge 20120731 at Fri Aug  1 16:50:16 2014
 By Alfred Xing
Copyright (c) 2013 by Juan Pablo del Peral (huertatipografica.com.ar)
</metadata>
<defs>
<font id="AlegreyaSans-ExtraBoldItalic" horiz-adv-x="390" >
  <font-face 
    font-family="Alegreya Sans ExtraBold"
    font-weight="800"
    font-style="italic"
    font-stretch="normal"
    units-per-em="1000"
    panose-1="0 0 9 0 0 0 0 0 0 0"
    ascent="800"
    descent="-200"
    x-height="472"
    cap-height="645"
    bbox="-261 -289 1216 1076"
    underline-thickness="66"
    underline-position="-109"
    slope="-7"
    stemh="103"
    stemv="146"
    unicode-range="U+0020-FB02"
  />
<missing-glyph horiz-adv-x="146" 
 />
    <glyph glyph-name="Idieresis" unicode="&#xa8;I" horiz-adv-x="304" 
d="M141 871c42 0 67 -25 67 -69c0 -46 -28 -75 -73 -75c-44 0 -68 25 -68 69c0 46 28 75 74 75zM305 871c42 0 67 -25 67 -69c0 -46 -28 -75 -73 -75c-44 0 -68 25 -68 69c0 46 28 75 74 75zM220 206l-19 -206h-159l32 191l48 454h161z" />
    <glyph glyph-name="Odieresis" unicode="&#xa8;O" horiz-adv-x="642" 
d="M303 872c42 0 67 -26 67 -69c0 -46 -28 -75 -73 -75c-44 0 -68 25 -68 69c0 46 28 75 74 75zM485 871c42 0 67 -25 67 -68c0 -47 -28 -76 -73 -76c-44 0 -68 25 -68 70c0 46 28 74 74 74zM373 655c162 0 260 -90 260 -275c0 -231 -121 -391 -342 -391
c-161 0 -259 93 -259 279c0 231 121 387 341 387zM355 527c-100 0 -158 -62 -158 -258c0 -114 28 -160 110 -160c98 0 158 63 158 260c0 113 -28 158 -110 158z" />
    <glyph glyph-name="Yacute" unicode="&#xb4;Y" horiz-adv-x="563" 
d="M249 719l-24 64c76 39 143 75 213 117l14 -4l40 -92l-5 -14c-80 -29 -151 -52 -223 -75zM345 213l-6 -37l-14 -176h-159l30 176l3 39l-148 430h165l9 -48l65 -227h11l132 222l26 53h164z" />
    <glyph glyph-name="idieresis" unicode="&#xa8;i" horiz-adv-x="245" 
d="M89 693c42 0 67 -25 67 -69c0 -46 -28 -75 -73 -75c-44 0 -68 25 -68 69c0 46 28 75 74 75zM253 693c42 0 67 -25 67 -69c0 -46 -28 -75 -73 -75c-44 0 -68 25 -68 69c0 46 28 75 74 75zM173 114l-5 -108l-144 -10l49 358l4 108l143 10z" />
    <glyph glyph-name="odieresis" unicode="&#xa8;o" horiz-adv-x="449" 
d="M191 694c42 0 67 -26 67 -69c0 -46 -28 -75 -73 -75c-44 0 -68 25 -68 69c0 46 28 75 74 75zM373 693c42 0 67 -25 67 -68c0 -47 -28 -76 -73 -76c-44 0 -68 25 -68 70c0 46 28 74 74 74zM279 478l14 -1c83 -18 136 -72 136 -172c0 -189 -98 -306 -258 -316l-14 2
c-86 19 -137 74 -137 181c0 178 99 297 259 306zM251 366c-73 0 -94 -65 -94 -197c0 -52 10 -71 41 -71c71 0 92 66 92 198c0 52 -10 70 -39 70z" />
    <glyph glyph-name="yacute" unicode="&#xb4;y" horiz-adv-x="458" 
d="M175 521l-37 58c68 53 128 102 188 156l15 -1l55 -84l-3 -15c-73 -42 -137 -79 -204 -115zM309 455l133 19c11 -26 16 -52 16 -79c0 -47 -16 -96 -46 -154l-98 -186c-99 -189 -177 -252 -282 -252c-31 0 -64 6 -96 17l-7 119l13 13c29 -9 58 -14 84 -14
c41 0 82 14 116 42l-103 483l144 9l9 -88l33 -230h16l50 113c18 41 29 77 29 110c0 23 -6 43 -17 63z" />
    <glyph glyph-name="Itilde" unicode="&#x7e;I" horiz-adv-x="304" 
d="M381 846v-13l-66 -97l-13 -5c-43 7 -106 34 -127 34s-37 -26 -56 -53h-13l-45 45v13l66 96l13 6c42 -7 105 -34 126 -34c22 0 37 26 57 53h13zM220 206l-19 -206h-159l32 191l48 454h161z" />
    <glyph glyph-name="itilde" unicode="&#x7e;i" horiz-adv-x="245" 
d="M329 668v-13l-66 -97l-13 -5c-43 7 -106 34 -127 34s-37 -26 -56 -53h-13l-45 45v13l66 96l13 6c42 -7 105 -34 126 -34c22 0 37 26 57 53h13zM173 114l-5 -108l-144 -10l49 358l4 108l143 10z" />
    <glyph glyph-name="Utilde" unicode="&#x7e;U" horiz-adv-x="634" 
d="M570 849v-13l-74 -98l-14 -5c-48 6 -128 35 -154 35c-22 0 -41 -27 -64 -54h-14l-46 45v13l74 97l14 5c49 -6 128 -34 154 -34c22 0 41 26 65 54h13zM585 318l-12 -92c-18 -151 -114 -236 -285 -236c-146 0 -235 66 -235 186c0 14 1 30 3 47l14 97l36 325h158l-56 -401
c-1 -12 -2 -23 -2 -33c0 -64 30 -93 95 -93c77 0 117 38 126 122l43 405h160z" />
    <glyph glyph-name="utilde" unicode="&#x7e;u" horiz-adv-x="499" 
d="M481 671v-13l-74 -98l-14 -5c-48 6 -128 35 -154 35c-22 0 -41 -27 -64 -54h-14l-46 45v13l74 97l14 5c49 -6 128 -34 154 -34c22 0 41 26 65 54h13zM330 462l144 10l-49 -358l-3 -108l-145 -10l21 155h-11c-43 -67 -81 -114 -127 -154l-12 -1c-71 10 -118 48 -118 101
l2 18l38 237l6 110l146 9l-46 -286l-1 -16c0 -17 6 -24 18 -24c24 0 67 49 126 156l7 53z" />
    <glyph glyph-name="Etilde" unicode="&#x7e;E" horiz-adv-x="514" 
d="M209 714l-46 45v13l74 97l14 5c49 -6 128 -34 154 -34c22 0 41 26 65 54h13l46 -45v-13l-74 -98l-14 -5c-48 6 -128 35 -154 35c-22 0 -41 -27 -64 -54h-14zM265 520l-19 -132l104 -1l103 3l7 -11l-24 -117l-112 3l-96 -1l-8 -58l-8 -82l106 -1l158 6l7 -12l-24 -117
h-417l32 191l48 454h423l7 -12l-25 -117l-153 5z" />
    <glyph glyph-name="etilde" unicode="&#x7e;e" horiz-adv-x="416" 
d="M441 671v-13l-74 -98l-14 -5c-48 6 -128 35 -154 35c-22 0 -41 -27 -64 -54h-14l-46 45v13l74 97l14 5c49 -6 128 -34 154 -34c22 0 41 26 65 54h13zM400 361c0 -78 -68 -136 -244 -184c5 -54 22 -74 56 -74c37 0 72 26 101 73l18 -3l47 -60c-51 -64 -112 -105 -177 -123
h-15c-119 13 -167 77 -167 183c0 175 99 297 258 305l14 -1c66 -13 109 -50 109 -116zM156 262c79 21 116 47 116 90c0 22 -9 32 -33 32c-46 0 -75 -42 -83 -122z" />
    <glyph glyph-name="Ytilde" unicode="&#x7e;Y" horiz-adv-x="563" 
d="M215 714l-46 45v13l74 97l14 5c49 -6 128 -34 154 -34c22 0 41 26 65 54h13l46 -45v-13l-74 -98l-14 -5c-48 6 -128 35 -154 35c-22 0 -41 -27 -64 -54h-14zM345 213l-6 -37l-14 -176h-159l30 176l3 39l-148 430h165l9 -48l65 -227h11l132 222l26 53h164z" />
    <glyph glyph-name="ytilde" unicode="&#x7e;y" horiz-adv-x="458" 
d="M129 536l-46 45v13l74 97l14 5c49 -6 128 -34 154 -34c22 0 41 26 65 54h13l46 -45v-13l-74 -98l-14 -5c-48 6 -128 35 -154 35c-22 0 -41 -27 -64 -54h-14zM309 455l133 19c11 -26 16 -52 16 -79c0 -47 -16 -96 -46 -154l-98 -186c-99 -189 -177 -252 -282 -252
c-31 0 -64 6 -96 17l-7 119l13 13c29 -9 58 -14 84 -14c41 0 82 14 116 42l-103 483l144 9l9 -88l33 -230h16l50 113c18 41 29 77 29 110c0 23 -6 43 -17 63z" />
    <glyph glyph-name="fi" unicode="fi" horiz-adv-x="563" 
d="M537 467l-47 -353l-5 -108l-144 -10l49 358l1 20h-148l-24 -168l-27 -203l-4 -108l-145 -10l42 305l21 184h-64l-7 9l10 75h71l3 25c20 145 100 220 240 220l128 -23l5 -9l-36 -104l-19 -6c-44 26 -75 38 -101 38c-39 0 -64 -26 -73 -82l-8 -59h171l104 16z" />
    <glyph glyph-name="fl" unicode="fl" horiz-adv-x="566" 
d="M573 704l-81 -590l-3 -108l-145 -10l81 589c-35 14 -61 20 -85 20c-40 0 -66 -25 -76 -81l-9 -66h98l10 -12l-11 -72h-109l-24 -168l-27 -203l-4 -108l-144 -10l41 305l22 184h-65l-7 9l10 75h72l4 31c18 145 101 220 246 220l100 -12z" />
    <glyph glyph-name="f_j" unicode="fj" horiz-adv-x="570" 
d="M536 467l-47 -353l-8 -86c-14 -106 -67 -172 -181 -224l-45 65l1 14c53 30 81 70 89 138l45 333l1 20h-148l-24 -168l-27 -203l-4 -108l-145 -10l42 305l21 184h-64l-7 9l10 75h71l3 25c20 145 100 220 240 220l128 -23l5 -9l-36 -104l-19 -6c-45 26 -75 38 -102 38
c-38 0 -63 -26 -72 -82l-8 -59h171l104 16z" />
    <glyph glyph-name="Gtilde" unicode="&#x7e;G" horiz-adv-x="590" 
d="M569 849v-13l-74 -98l-14 -5c-48 6 -128 35 -154 35c-22 0 -41 -27 -64 -54h-14l-46 45v13l74 97l14 5c49 -6 128 -34 154 -34c22 0 41 26 65 54h13zM410 654c68 0 137 -12 190 -35l-52 -143h-14c-58 34 -100 50 -159 50c-113 0 -178 -62 -178 -268
c0 -106 39 -146 130 -146c22 0 38 4 65 11l7 47l10 103l147 10l-13 -87l-19 -164c-79 -29 -144 -42 -216 -42c-181 0 -277 98 -277 264c0 256 134 400 379 400z" />
    <glyph glyph-name="gtilde" unicode="&#x7e;g" horiz-adv-x="468" 
d="M471 671v-13l-74 -98l-14 -5c-48 6 -128 35 -154 35c-22 0 -41 -27 -64 -54h-14l-46 45v13l74 97l14 5c49 -6 128 -34 154 -34c22 0 41 26 65 54h13zM432 478l11 -7l-47 -347l-5 -78c-21 -158 -131 -243 -258 -243c-113 0 -172 67 -186 158l4 11l135 64l1 10
c-39 30 -53 74 -53 129c0 129 76 258 228 299h5l83 -19zM303 354l-63 19c-55 0 -83 -59 -83 -149c0 -60 12 -80 24 -80c19 0 65 62 119 186zM160 -95c49 0 88 32 96 100l21 151h-14c-30 -54 -66 -100 -106 -137l-48 -38c-11 -9 -14 -16 -14 -25c0 -24 21 -51 65 -51z" />
    <glyph glyph-name=".notdef" horiz-adv-x="146" 
 />
    <glyph glyph-name="space" unicode=" " horiz-adv-x="134" 
 />
    <glyph glyph-name="exclam" unicode="!" horiz-adv-x="278" 
d="M285 649l-92 -404l-89 -13l-14 16l38 394l15 18l126 8zM127 155c49 0 76 -29 76 -78c0 -52 -31 -85 -82 -85c-49 0 -77 29 -77 78c0 52 32 85 83 85z" />
    <glyph glyph-name="quotedbl" unicode="&#x22;" horiz-adv-x="383" 
d="M232 633l-69 -234l-73 -12l-11 10l24 239l121 7zM394 633l-69 -234l-72 -12l-11 10l24 239l121 7z" />
    <glyph glyph-name="numbersign" unicode="#" horiz-adv-x="563" 
d="M436 353l-18 -100h83l9 -9l-6 -79h-103l-24 -134h-89l-7 11l22 123h-97l-24 -134h-89l-8 11l22 123h-78l-9 10l7 78h97l18 100h-81l-9 9l6 79h100l24 132h86l10 -11l-22 -121h97l24 132h87l10 -11l-22 -121h81l9 -10l-7 -78h-99zM337 353h-97l-18 -100h97z" />
    <glyph glyph-name="dollar" unicode="$" horiz-adv-x="455" 
d="M206 369c0 -62 196 -52 196 -197c0 -71 -45 -148 -151 -174l-15 -134h-77l-10 11l13 115c-44 2 -101 10 -153 30l35 133l15 10c44 -41 104 -67 144 -67c30 0 51 18 51 40c0 62 -197 52 -197 198c0 84 61 157 167 177l15 133h75l13 -13l-14 -116c41 -3 80 -12 112 -25
l-35 -127l-22 -5c-41 32 -85 48 -115 48s-47 -17 -47 -37z" />
    <glyph glyph-name="percent" unicode="%" horiz-adv-x="874" 
d="M729 651l7 -21l-555 -723l-61 40l-4 15l556 727zM249 651c85 0 132 -51 132 -142c0 -140 -70 -225 -195 -225c-87 0 -133 52 -133 144c0 138 71 223 196 223zM227 553c-50 0 -79 -31 -79 -109c0 -47 18 -69 56 -69c63 0 81 44 81 111c0 46 -18 67 -58 67zM709 361
c86 0 132 -52 132 -143c0 -139 -70 -224 -195 -224c-86 0 -133 51 -133 143c0 139 71 224 196 224zM687 263c-50 0 -78 -31 -78 -111c0 -45 17 -68 55 -68c63 0 81 44 81 111c0 46 -18 68 -58 68z" />
    <glyph glyph-name="ampersand" unicode="&#x26;" horiz-adv-x="646" 
d="M344 656c52 0 99 -9 162 -30l-36 -114l-18 -5c-49 28 -92 45 -134 45c-57 0 -90 -27 -90 -83c0 -62 30 -91 83 -92l224 13l122 16l14 -15l-24 -98l-134 -4l-4 -6c14 -23 20 -53 20 -84c0 -103 -80 -210 -263 -210c-141 0 -225 64 -225 168c0 69 46 126 136 165v4
c-47 33 -74 79 -74 142c0 112 89 188 241 188zM379 284l-122 -5c-51 -27 -78 -63 -78 -108c0 -55 37 -86 104 -86c86 0 130 45 130 118c0 34 -12 63 -34 81z" />
    <glyph glyph-name="quotesingle" unicode="'" horiz-adv-x="221" 
d="M232 633l-69 -234l-73 -12l-11 10l24 239l121 7z" />
    <glyph glyph-name="parenleft" unicode="(" horiz-adv-x="300" 
d="M338 614l-2 -13c-128 -109 -155 -333 -155 -456c0 -101 20 -170 72 -225l-2 -12l-61 -46h-14c-83 67 -119 155 -119 288c0 163 41 391 217 510h14z" />
    <glyph glyph-name="parenright" unicode=")" horiz-adv-x="300" 
d="M-31 -92l2 12c128 109 155 334 155 457c0 100 -21 170 -72 224l2 13l61 46h14c83 -67 119 -155 119 -289c0 -162 -41 -390 -218 -509h-13z" />
    <glyph glyph-name="asterisk" unicode="*" horiz-adv-x="387" 
d="M293 736l-32 -124l-45 -5l-8 7l-4 117c25 9 55 14 84 14zM196 602l-8 -45l-10 -5l-109 31c-1 26 3 57 11 85l11 3zM276 603l107 40c15 -21 29 -48 39 -76l-6 -7l-124 -8l-21 41zM287 534l70 -92c-15 -23 -36 -42 -59 -61l-10 3l-44 121l32 30zM224 513l2 -10l-62 -98
c-25 8 -52 22 -78 38l1 10l97 81z" />
    <glyph glyph-name="plus" unicode="+" horiz-adv-x="477" 
d="M320 469l-20 -158h157l9 -11l-19 -94h-160l-19 -160l-95 -8l-10 10l20 158h-158l-8 11l19 94h160l19 160l95 8z" />
    <glyph glyph-name="comma" unicode="," horiz-adv-x="229" 
d="M130 150c31 -26 46 -56 46 -93c0 -66 -42 -126 -132 -189l-49 43l-2 11c38 32 56 65 56 102c0 26 -10 46 -32 66v13c36 20 73 36 113 47z" />
    <glyph glyph-name="hyphen" unicode="-" horiz-adv-x="302" 
d="M285 315l-11 -96l-242 -37l-10 12l11 96l242 36z" />
    <glyph glyph-name="period" unicode="." horiz-adv-x="230" 
d="M98 155c49 0 76 -29 76 -78c0 -52 -31 -85 -82 -85c-49 0 -77 29 -77 78c0 52 32 85 83 85z" />
    <glyph glyph-name="slash" unicode="/" horiz-adv-x="283" 
d="M340 668l-262 -784h-107l-9 12l262 785h105z" />
    <glyph glyph-name="zero" unicode="0" horiz-adv-x="522" 
d="M297 517c124 0 195 -71 195 -223c0 -178 -98 -304 -262 -304c-125 0 -195 74 -195 223c0 175 97 304 262 304zM276 373c-85 0 -119 -52 -119 -140c0 -72 23 -107 92 -107c82 0 120 51 120 140c0 75 -26 107 -93 107z" />
    <glyph glyph-name="one" unicode="1" horiz-adv-x="367" 
d="M309 499l-44 -290l-19 -209h-157l30 193l18 145l-109 -26l-10 8l15 125l255 70z" />
    <glyph glyph-name="two" unicode="2" horiz-adv-x="478" 
d="M268 515c92 0 163 -44 163 -123c0 -55 -39 -106 -140 -204l-66 -65l3 -5h113l93 9l8 -10l-34 -124l-128 7h-228l-37 -3l-7 6l12 95l145 125c66 58 106 97 106 128c0 19 -15 33 -45 33c-40 0 -92 -22 -137 -57h-17l-11 121c69 42 137 67 207 67z" />
    <glyph glyph-name="three" unicode="3" horiz-adv-x="439" 
d="M233 517c106 0 178 -53 178 -129c0 -52 -37 -120 -112 -156v-5c57 -25 89 -58 89 -120c0 -117 -113 -201 -278 -201c-36 0 -85 4 -118 11l6 119l12 10c39 -14 76 -22 112 -22c73 0 115 28 115 76c0 32 -21 50 -68 51h-75l-6 10l17 107l55 2c38 1 88 34 88 78
c0 28 -19 43 -54 43c-37 0 -76 -16 -121 -42h-16l-9 110c62 38 122 58 185 58z" />
    <glyph glyph-name="four" unicode="4" horiz-adv-x="512" 
d="M457 44l-78 3l-9 -124l-10 -11l-122 -8l-7 10l21 134h-150l-97 -4l-8 13l12 99l284 353h144l-45 -343h77l8 -13zM145 166h125l21 169h-9z" />
    <glyph glyph-name="five" unicode="5" horiz-adv-x="437" 
d="M438 505l-29 -119l-12 -11l-97 12h-102l-13 -94l60 -13c97 -21 145 -68 145 -147c0 -133 -121 -229 -285 -229c-37 0 -82 5 -118 12l6 117l11 11c42 -15 80 -22 120 -22c72 0 116 34 116 85c0 34 -23 54 -73 62l-103 18l-9 12l37 296l19 17l59 -3h152l109 6z" />
    <glyph glyph-name="six" unicode="6" horiz-adv-x="489" 
d="M466 528l-2 -16c-134 -40 -213 -94 -256 -158l6 -9c29 14 53 22 82 22c101 0 161 -80 161 -167c0 -93 -68 -211 -229 -211c-131 0 -204 79 -204 203c0 154 112 310 338 405h8zM250 258c-26 0 -55 -9 -84 -26c-1 -13 -2 -26 -2 -39c0 -64 15 -101 70 -101
c60 0 81 44 81 94c0 47 -21 72 -65 72z" />
    <glyph glyph-name="seven" unicode="7" horiz-adv-x="439" 
d="M178 509h217l52 2l-13 -114l-194 -333l-82 -163l-120 36l-7 24l250 419h-143l-100 -10l-7 13l26 130z" />
    <glyph glyph-name="eight" unicode="8" horiz-adv-x="502" 
d="M289 596c112 0 180 -54 180 -141c0 -67 -43 -111 -102 -143l-1 -7c50 -29 88 -64 88 -135c0 -106 -87 -180 -221 -180c-127 0 -204 58 -204 146c0 76 48 116 123 146l1 7c-42 26 -76 62 -76 130c0 105 84 177 212 177zM280 490c-47 0 -76 -27 -76 -63
c0 -40 30 -59 75 -77c38 22 66 47 66 85c0 35 -23 55 -65 55zM240 241c-49 -18 -81 -38 -81 -82c0 -42 26 -66 77 -66c58 0 91 32 91 68c0 41 -38 60 -87 80z" />
    <glyph glyph-name="nine" unicode="9" horiz-adv-x="489" 
d="M266 519c131 0 204 -79 204 -203c0 -154 -112 -310 -338 -405h-8l-96 69l2 16c134 40 213 94 256 158l-6 9c-29 -14 -53 -22 -82 -22c-101 0 -161 80 -161 167c0 93 68 211 229 211zM244 250c26 0 55 9 84 26c1 13 2 26 2 39c0 64 -15 101 -70 101c-60 0 -81 -44 -81 -94
c0 -47 21 -72 65 -72z" />
    <glyph glyph-name="colon" unicode=":" horiz-adv-x="230" 
d="M131 415c48 0 76 -29 76 -78c0 -52 -32 -84 -82 -84s-77 28 -77 77c0 52 32 85 83 85zM99 155c48 0 76 -29 76 -78c0 -52 -32 -85 -82 -85s-77 29 -77 78c0 52 31 85 83 85z" />
    <glyph glyph-name="semicolon" unicode=";" horiz-adv-x="229" 
d="M126 415c48 0 76 -29 76 -78c0 -52 -32 -84 -82 -84s-77 28 -77 77c0 52 32 85 83 85zM126 150c31 -26 46 -56 46 -93c0 -66 -42 -126 -132 -189l-49 43l-1 11c37 32 55 65 55 102c0 26 -10 46 -32 66l1 13c35 20 72 36 112 47z" />
    <glyph glyph-name="less" unicode="&#x3c;" horiz-adv-x="494" 
d="M468 386l-8 -11l-311 -109l-1 -8l285 -105l-31 -87l-16 -10l-354 140l15 125l12 14l387 139z" />
    <glyph glyph-name="equal" unicode="=" horiz-adv-x="478" 
d="M476 398l-8 -94h-422l-10 11l8 94h422zM452 201l-8 -94h-422l-10 11l8 94h422z" />
    <glyph glyph-name="greater" unicode="&#x3e;" horiz-adv-x="503" 
d="M464 335l9 -14l-15 -125l-390 -140l-12 10l-10 87l311 105l1 8l-286 109l-4 11l43 88z" />
    <glyph glyph-name="question" unicode="?" horiz-adv-x="345" 
d="M118 664l15 8c171 -9 265 -61 265 -151c0 -60 -41 -116 -112 -153l-72 -38l-2 -6l-4 -79l-110 -16l-10 11l5 129l7 10l93 43c39 18 62 42 62 74c0 42 -44 65 -165 73l-9 15zM146 155c48 0 76 -29 76 -78c0 -52 -32 -85 -83 -85c-49 0 -76 29 -76 78c0 52 31 85 83 85z
" />
    <glyph glyph-name="at" unicode="@" horiz-adv-x="852" 
d="M835 317c0 -202 -142 -314 -392 -317l19 138h-14c-29 -53 -62 -102 -101 -144h-20c-84 27 -111 81 -111 159c0 122 73 263 231 307h6l83 -18l82 21l11 -6l-47 -344v-8c94 17 152 97 152 207c0 147 -106 241 -273 235c-202 -6 -334 -149 -334 -345
c0 -211 152 -332 380 -332l5 -14l-41 -72c-268 2 -446 145 -446 400c0 262 180 459 454 459c214 0 356 -123 356 -326zM365 125c20 0 65 61 120 190l3 24l-63 19c-54 0 -84 -61 -84 -153c0 -60 11 -80 24 -80z" />
    <glyph glyph-name="A" unicode="A" horiz-adv-x="600" 
d="M558 0h-160l-5 92l-5 40l-113 2l-98 -3l-13 -30l-31 -101h-156l285 645h190zM373 251l-32 248h-10l-104 -247l72 -2z" />
    <glyph glyph-name="B" unicode="B" horiz-adv-x="591" 
d="M451 333c76 -28 107 -67 107 -135c0 -133 -99 -204 -324 -204c-45 0 -133 3 -191 6l32 191l48 454l240 1c123 0 204 -48 204 -145c0 -73 -39 -134 -116 -168zM240 376l84 -3c53 14 79 46 79 99c0 47 -24 64 -103 64l-37 -1zM272 104c78 0 125 35 125 95
c0 40 -23 60 -68 70l-104 -2l-9 -61l-9 -98c25 -2 50 -4 65 -4z" />
    <glyph glyph-name="C" unicode="C" horiz-adv-x="511" 
d="M384 654c61 0 121 -13 166 -34l-43 -130l-13 -6c-34 25 -80 40 -126 40c-114 0 -166 -80 -166 -238c0 -110 42 -163 124 -163c44 0 98 13 141 35l12 -8l-29 -131c-52 -21 -95 -29 -145 -29c-176 0 -273 98 -273 270c0 246 127 394 352 394z" />
    <glyph glyph-name="D" unicode="D" horiz-adv-x="651" 
d="M122 645l259 4c165 0 262 -91 262 -253c0 -250 -127 -404 -365 -404c-55 0 -167 4 -235 8h-1l32 191zM314 113c99 0 161 76 161 259c0 107 -37 152 -114 152c-20 0 -63 -2 -96 -5l-46 -313l-7 -85c35 -5 82 -8 102 -8z" />
    <glyph glyph-name="E" unicode="E" horiz-adv-x="514" 
d="M265 520l-19 -132l104 -1l103 3l8 -11l-25 -117l-112 3l-96 -1l-8 -58l-8 -82l105 -1l159 6l7 -12l-24 -117h-417l31 191l49 454h422l8 -12l-26 -117l-152 5z" />
    <glyph glyph-name="F" unicode="F" horiz-adv-x="458" 
d="M265 520l-22 -152l79 -1l111 3l8 -12l-25 -117l-120 3h-71l-5 -38l-19 -206h-159l31 191l49 454h395l8 -12l-26 -118l-152 6z" />
    <glyph glyph-name="G" unicode="G" horiz-adv-x="590" 
d="M410 654c67 0 137 -12 190 -35l-52 -143h-14c-58 34 -100 50 -159 50c-113 0 -178 -62 -178 -268c0 -106 39 -146 130 -146c22 0 38 4 65 11l7 47l10 103l147 10l-13 -87l-20 -164c-78 -29 -143 -42 -215 -42c-181 0 -277 98 -277 264c0 256 134 400 379 400z" />
    <glyph glyph-name="H" unicode="H" horiz-adv-x="692" 
d="M672 645l-64 -439l-19 -206h-159l33 191l7 66l-129 2l-115 -3l-7 -50l-18 -206h-159l32 191l48 454h161l-38 -257l121 -3l117 2l27 258h162z" />
    <glyph glyph-name="I" unicode="I" horiz-adv-x="304" 
d="M219 206l-18 -206h-159l32 191l48 454h161z" />
    <glyph glyph-name="J" unicode="J" horiz-adv-x="342" 
d="M317 645l-63 -432l-8 -91c-16 -115 -73 -177 -233 -230l-35 83l1 13c80 39 112 74 120 138l9 71l36 333l-95 -2l-9 11l20 106h257z" />
    <glyph glyph-name="K" unicode="K" horiz-adv-x="593" 
d="M637 645l-247 -312c57 -103 122 -203 190 -300l-5 -17c-54 -13 -106 -22 -160 -27l-16 10c-57 105 -112 210 -164 320l-16 -113l-19 -206h-159l33 191l48 454h161l-42 -290l182 225l44 65h170z" />
    <glyph glyph-name="L" unicode="L" horiz-adv-x="434" 
d="M419 119l-25 -119h-356l32 191l48 454h161l-63 -439l-7 -75h203z" />
    <glyph glyph-name="M" unicode="M" horiz-adv-x="788" 
d="M719 0h-141l17 196l9 217h-10l-170 -348h-121l-69 348h-10l-45 -203l-38 -210h-133l143 645h183l12 -94l47 -280h10l123 277l38 97h180z" />
    <glyph glyph-name="N" unicode="N" horiz-adv-x="691" 
d="M608 203l-18 -203h-172l-176 404h-10l-23 -178l-22 -226h-145l32 190l48 455h171l177 -404h10l45 398l148 9z" />
    <glyph glyph-name="O" unicode="O" horiz-adv-x="642" 
d="M373 655c162 0 260 -90 260 -275c0 -231 -121 -391 -342 -391c-161 0 -259 93 -259 279c0 231 121 387 341 387zM355 527c-99 0 -158 -62 -158 -258c0 -114 28 -160 110 -160c99 0 158 63 158 260c0 113 -28 158 -110 158z" />
    <glyph glyph-name="P" unicode="P" horiz-adv-x="561" 
d="M122 645l256 1c123 0 200 -60 200 -174c0 -160 -116 -274 -295 -274h-64l-18 -198h-159l32 191zM236 316l86 -4c58 20 88 66 88 135c0 55 -26 82 -89 85l-55 -3z" />
    <glyph glyph-name="Q" unicode="Q" horiz-adv-x="644" 
d="M690 -83l4 -16c-24 -40 -51 -73 -84 -101l-12 -5c-113 48 -214 113 -300 194h-9c-161 0 -257 93 -257 279c0 231 122 387 343 387c162 0 258 -90 258 -275c0 -168 -65 -298 -185 -357c74 -46 155 -82 242 -106zM197 269c0 -114 28 -160 110 -160c99 0 158 63 158 260
c0 113 -28 158 -110 158c-99 0 -158 -62 -158 -258z" />
    <glyph glyph-name="R" unicode="R" horiz-adv-x="596" 
d="M579 479c0 -95 -52 -176 -139 -226c37 -73 77 -145 120 -216l-3 -17c-54 -17 -107 -27 -161 -31l-14 13c-28 68 -55 137 -78 207h-85v-3l-18 -206h-159l32 191l48 454l257 1c124 0 200 -60 200 -167zM237 328l87 -4c60 22 86 64 86 129c0 52 -29 76 -89 79l-55 -3z" />
    <glyph glyph-name="S" unicode="S" horiz-adv-x="502" 
d="M333 655c48 0 109 -9 171 -34l-41 -133l-24 -10c-46 34 -97 53 -134 53c-48 0 -77 -27 -77 -58c0 -87 243 -93 243 -266c0 -119 -110 -217 -270 -217c-63 0 -133 14 -197 40l39 143l17 9c54 -49 123 -73 168 -73c55 0 81 29 81 60c0 93 -241 92 -241 267
c0 123 112 219 265 219z" />
    <glyph glyph-name="T" unicode="T" horiz-adv-x="501" 
d="M539 633l-24 -117l-122 6h-28l-44 -316l-19 -206h-159l33 191l36 331h-29l-126 -6l-8 12l24 117h459z" />
    <glyph glyph-name="U" unicode="U" horiz-adv-x="634" 
d="M585 318l-12 -92c-18 -151 -114 -236 -285 -236c-146 0 -235 66 -235 186c0 14 1 30 3 47l14 97l36 325h158l-56 -401c-1 -12 -2 -23 -2 -33c0 -64 30 -93 95 -93c77 0 117 38 126 122l43 405h160z" />
    <glyph glyph-name="V" unicode="V" horiz-adv-x="588" 
d="M355 0h-190l-107 645h161l5 -93l53 -407h9l167 398l31 102h155z" />
    <glyph glyph-name="W" unicode="W" horiz-adv-x="892" 
d="M660 0h-167l-46 281h-9l-114 -281h-169l-86 645h155l-1 -87l43 -396h10l134 329l-22 154h162l1 -103l49 -380h9l155 387l29 96h147z" />
    <glyph glyph-name="X" unicode="X" horiz-adv-x="610" 
d="M419 331l154 -331h-186l-22 70l-69 144l-116 -153l-37 -61h-162l235 324l-154 321h187l23 -71l65 -137l105 145l36 63h166z" />
    <glyph glyph-name="Y" unicode="Y" horiz-adv-x="563" 
d="M345 213l-6 -37l-15 -176h-158l30 176l3 39l-148 430h165l8 -48l66 -227h10l133 222l26 53h164z" />
    <glyph glyph-name="Z" unicode="Z" horiz-adv-x="547" 
d="M550 531l-348 -412h191l113 9l4 -8l-27 -124l-156 4h-241l-86 -5l14 114l352 416h-182l-112 -9l-5 7l27 124l135 -2h269l67 1z" />
    <glyph glyph-name="bracketleft" unicode="[" horiz-adv-x="298" 
d="M348 640l-9 -69l-105 -14l-72 -591l101 -14l-9 -70l-7 -7l-221 10l55 377l38 376l223 10z" />
    <glyph glyph-name="backslash" unicode="\" horiz-adv-x="392" 
d="M161 681l207 -785l-10 -12h-107l-207 784l12 13h105z" />
    <glyph glyph-name="bracketright" unicode="]" horiz-adv-x="298" 
d="M-43 -117l9 69l104 14l72 592l-100 13l8 70l8 7l220 -10l-54 -376l-38 -377l-224 -10z" />
    <glyph glyph-name="asciicircum" unicode="^" horiz-adv-x="448" 
d="M423 152l-12 -14l-89 -20l-71 273h-8l-142 -273l-13 -7l-84 33l182 346l15 8h125z" />
    <glyph glyph-name="underscore" unicode="_" horiz-adv-x="442" 
d="M416 -100l-18 -87h-455l-8 11l18 86h455z" />
    <glyph glyph-name="grave" unicode="`" 
d="M168 734l14 1c61 -54 120 -103 188 -156l-36 -58l-14 -1c-67 36 -132 73 -205 115l-3 15z" />
    <glyph glyph-name="a" unicode="a" horiz-adv-x="471" 
d="M445 471l-48 -357l-4 -108l-144 -10l19 139h-14c-29 -53 -62 -102 -101 -145h-20c-89 28 -117 85 -117 165c0 126 75 273 239 319h6l86 -19l88 23zM173 128c22 0 66 64 121 198l3 20l-66 20c-53 0 -82 -62 -82 -155c0 -62 11 -83 24 -83z" />
    <glyph glyph-name="b" unicode="b" horiz-adv-x="473" 
d="M319 474h21c85 -27 116 -81 116 -165c0 -129 -77 -275 -235 -319h-6l-89 17l-97 17l77 563l3 107l144 10l-51 -377h14c30 53 64 104 103 147zM175 116l70 -18c51 0 79 66 79 157c0 63 -11 85 -23 85c-21 0 -67 -65 -123 -193z" />
    <glyph glyph-name="c" unicode="c" horiz-adv-x="363" 
d="M365 451l4 -15l-41 -108l-31 -1c-22 27 -35 38 -59 38c-55 0 -82 -57 -82 -163c0 -63 13 -88 43 -88c22 0 43 14 74 70l19 -1l46 -58c-43 -74 -87 -110 -156 -134h-20c-104 16 -144 72 -144 183c0 159 81 302 266 302z" />
    <glyph glyph-name="d" unicode="d" horiz-adv-x="471" 
d="M477 704l-80 -590l-4 -108l-145 -10l19 140h-11c-30 -53 -65 -103 -104 -146h-20c-89 28 -117 84 -117 164c0 126 76 275 242 320h6l49 -11l17 124l3 107zM171 127c21 0 66 61 121 188l4 32l-64 19c-55 0 -85 -62 -85 -157c0 -61 12 -82 24 -82z" />
    <glyph glyph-name="e" unicode="e" horiz-adv-x="416" 
d="M332 173l46 -60c-50 -64 -112 -105 -176 -123h-15c-119 13 -168 77 -168 183c0 175 100 297 258 305l14 -1c66 -13 109 -50 109 -116c0 -78 -69 -136 -244 -184c5 -54 22 -74 56 -74c37 0 73 26 101 73zM240 384c-46 0 -76 -42 -84 -122c80 21 117 47 117 90
c0 22 -10 32 -33 32z" />
    <glyph glyph-name="f" unicode="f" horiz-adv-x="318" 
d="M471 677l-39 -99l-19 -6c-34 19 -62 27 -82 27c-36 0 -60 -26 -68 -82l-8 -59h98l10 -12l-11 -72h-109l-24 -168l-27 -203l-4 -108l-144 -10l41 305l22 184h-65l-7 9l10 75h72l3 25c17 145 98 220 237 220l107 -15z" />
    <glyph glyph-name="g" unicode="g" horiz-adv-x="468" 
d="M443 471l-48 -347l-4 -78c-21 -158 -131 -243 -258 -243c-113 0 -172 67 -186 158l4 11l134 64l1 11c-39 30 -52 73 -52 128c0 129 76 258 228 299h5l82 -19l83 23zM303 354l-63 19c-55 0 -83 -59 -83 -149c0 -60 12 -80 24 -80c19 0 64 61 118 183zM159 -95
c50 0 89 32 96 100l21 151h-13c-30 -54 -66 -100 -106 -137l-48 -38c-12 -9 -14 -16 -14 -25c0 -24 20 -51 64 -51z" />
    <glyph glyph-name="h" unicode="h" horiz-adv-x="508" 
d="M347 470l12 1c70 -13 117 -50 116 -103l-1 -13l-39 -240l-5 -109l-147 -10l46 290l2 11c0 16 -5 23 -17 23c-26 0 -75 -52 -136 -167l-5 -39l-3 -108l-145 -10l81 591l3 107l145 10l-54 -394h14c46 70 87 119 133 160z" />
    <glyph glyph-name="i" unicode="i" horiz-adv-x="245" 
d="M172 708c48 0 76 -29 76 -78c0 -52 -32 -85 -82 -85s-77 29 -77 78c0 52 32 85 83 85zM173 114l-5 -108l-144 -10l49 358l4 108l143 10z" />
    <glyph glyph-name="j" unicode="j" horiz-adv-x="268" 
d="M179 708c48 0 76 -29 76 -78c0 -52 -32 -85 -82 -85s-77 29 -77 78c0 52 32 85 83 85zM241 467l-50 -352l-8 -86c-13 -106 -68 -171 -186 -224l-46 65l2 14c56 31 85 70 94 138l45 329v23h-67l-7 9l11 75h71l137 13z" />
    <glyph glyph-name="k" unicode="k" horiz-adv-x="515" 
d="M490 354c0 -68 -49 -126 -119 -173c28 -56 59 -112 91 -165l-7 -11l-121 -17l-14 7c-28 58 -54 118 -75 178l5 19c57 36 94 77 94 109c0 15 -8 21 -17 21c-30 0 -83 -49 -149 -171l-5 -37l-3 -108l-145 -10l81 591l3 107l145 10l-54 -391h15c48 64 95 117 145 157l13 1
c69 -13 117 -49 117 -117z" />
    <glyph glyph-name="l" unicode="l" horiz-adv-x="247" 
d="M173 114l-3 -108l-145 -10l81 591l3 107l145 10z" />
    <glyph glyph-name="m" unicode="m" horiz-adv-x="771" 
d="M609 470l12 1c70 -13 117 -50 116 -103l-1 -13l-39 -240l-4 -109l-148 -10l47 290l1 11c0 16 -5 23 -17 23c-27 0 -75 -53 -137 -170l-6 -35l-4 -109l-148 -10l47 290l1 11c0 16 -5 23 -17 23c-25 0 -72 -51 -133 -163l-6 -43l-4 -108l-145 -10l50 358l4 108l143 10
l-22 -162h14c46 70 86 119 132 160l13 1c70 -13 116 -50 115 -103l-1 -13l-7 -45h12c45 70 86 119 132 160z" />
    <glyph glyph-name="n" unicode="n" horiz-adv-x="506" 
d="M345 470l12 1c63 -13 117 -50 116 -103l-1 -13l-39 -240l-5 -109l-148 -10l48 290l1 11c0 16 -5 23 -17 23c-26 0 -73 -50 -133 -163l-6 -43l-4 -108l-145 -10l50 358l4 108l143 10l-22 -162h13c46 70 87 119 133 160z" />
    <glyph glyph-name="o" unicode="o" horiz-adv-x="449" 
d="M279 478l14 -1c83 -18 136 -72 136 -172c0 -189 -98 -306 -258 -316l-14 2c-86 19 -137 74 -137 181c0 178 99 297 259 306zM251 366c-73 0 -94 -65 -94 -197c0 -52 10 -71 41 -71c71 0 92 66 92 198c0 52 -10 70 -39 70z" />
    <glyph glyph-name="p" unicode="p" horiz-adv-x="472" 
d="M321 474h20c85 -27 116 -81 116 -165c0 -129 -78 -275 -236 -319h-6l-57 11l-10 -77l-4 -109l-145 -10l75 549l4 108l143 10l-19 -145h15c30 53 64 104 104 147zM174 117l72 -19c51 0 79 66 79 157c0 63 -11 85 -23 85c-23 0 -69 -67 -125 -200z" />
    <glyph glyph-name="q" unicode="q" horiz-adv-x="472" 
d="M446 471l-73 -548l-4 -108l-145 -10l45 331h-14c-30 -53 -64 -103 -103 -146h-20c-89 28 -117 84 -117 164c0 126 76 275 241 320h6l86 -19l88 23zM171 127c22 0 68 65 124 199l3 21l-66 19c-55 0 -85 -62 -85 -157c0 -60 12 -82 24 -82z" />
    <glyph glyph-name="r" unicode="r" horiz-adv-x="366" 
d="M382 467l-24 -180l-13 -6l-26 5c-50 -5 -86 -29 -137 -114l-8 -58l-4 -108l-145 -10l49 358l4 108l144 10l-21 -155h14c38 64 78 112 139 154z" />
    <glyph glyph-name="s" unicode="s" horiz-adv-x="362" 
d="M250 475c38 -5 73 -13 109 -25l-35 -116l-20 -7c-33 35 -71 53 -97 53c-23 0 -39 -17 -39 -36c0 -55 158 -66 158 -190c0 -95 -91 -164 -210 -164c-44 5 -85 14 -126 29l34 122l16 8c35 -43 81 -67 115 -67c28 0 42 19 42 36c0 55 -162 74 -160 190
c2 104 101 168 213 167z" />
    <glyph glyph-name="t" unicode="t" horiz-adv-x="351" 
d="M203 151l-1 -12c0 -9 4 -16 16 -16c14 0 30 14 51 45l19 -1l41 -52c-36 -51 -75 -91 -120 -122l-16 -1c-85 10 -128 37 -129 106l2 25l36 234l2 17h-63l-8 9l9 75h70l10 100l138 37l11 -8l-20 -129h105l11 -12l-10 -72h-119z" />
    <glyph glyph-name="u" unicode="u" horiz-adv-x="499" 
d="M473 472l-48 -358l-4 -108l-144 -10l21 155h-11c-44 -67 -82 -114 -127 -154l-12 -1c-71 10 -118 48 -118 101l2 18l38 237l5 110l146 9l-45 -286l-1 -16c-1 -17 6 -24 18 -24c24 0 67 49 125 154l7 55l4 108z" />
    <glyph glyph-name="v" unicode="v" horiz-adv-x="450" 
d="M301 455l133 19c11 -26 16 -52 16 -79c0 -45 -16 -91 -45 -145l-140 -250h-164l-56 463l144 9l1 -88l14 -235h12l68 137c18 36 28 66 28 94c0 21 -6 40 -17 60z" />
    <glyph glyph-name="w" unicode="w" horiz-adv-x="723" 
d="M550 0h-158l-20 274h-12l-104 -274h-158l-53 463l142 9v-79l12 -231h12l86 222l26 84h153l1 -75l13 -231h12l57 124c17 37 28 66 28 94c0 21 -6 40 -17 60l6 15l133 19c11 -26 16 -52 16 -79c0 -45 -17 -91 -45 -145z" />
    <glyph glyph-name="x" unicode="x" horiz-adv-x="482" 
d="M434 4l-161 -12l-14 63l-36 93l-61 -90l-26 -58h-157l165 241l-94 222l156 13l13 -51l38 -91l58 87l23 47h152l-163 -235z" />
    <glyph glyph-name="y" unicode="y" horiz-adv-x="458" 
d="M309 455l133 19c11 -26 16 -52 16 -79c0 -47 -16 -96 -46 -154l-98 -186c-99 -189 -177 -252 -282 -252c-31 0 -64 6 -96 17l-7 119l13 13c29 -9 58 -14 84 -14c41 0 82 14 116 42l-103 483l144 9l9 -88l33 -230h16l50 113c18 41 29 77 29 110c0 23 -6 43 -17 63z" />
    <glyph glyph-name="z" unicode="z" horiz-adv-x="433" 
d="M426 445l-252 -321l27 7c10 0 46 -8 57 -8c43 0 60 14 67 81l18 7l59 -19c-3 -150 -60 -202 -143 -202c-63 0 -114 33 -160 33c-23 0 -38 -8 -62 -30h-17l-43 40l244 315l-90 -2l-76 -13l-11 10l25 126l14 9l91 -7l175 -5l35 20z" />
    <glyph glyph-name="braceleft" unicode="{" horiz-adv-x="298" 
d="M268 658c26 0 47 -4 69 -11l4 -10l-21 -78c-12 3 -23 5 -34 5c-40 0 -60 -25 -60 -72c0 -30 10 -69 10 -100c0 -52 -29 -94 -82 -117l-1 -6c38 -19 57 -53 57 -90c0 -51 -42 -105 -42 -152c0 -31 16 -47 46 -47c12 0 22 2 35 5l3 -78l-7 -11c-24 -7 -47 -10 -72 -10
c-85 0 -130 38 -130 104c0 68 42 132 42 179c0 32 -18 55 -55 67l8 71c50 15 75 44 75 94c0 29 -6 70 -6 107c0 99 58 150 161 150z" />
    <glyph glyph-name="bar" unicode="|" horiz-adv-x="305" 
d="M282 795l-66 -503l-65 -542l-107 -8l-10 13l129 1042l109 9z" />
    <glyph glyph-name="braceright" unicode="}" horiz-adv-x="298" 
d="M39 -114c-25 0 -46 4 -68 10l-5 11l22 78c12 -3 22 -5 34 -5c39 0 59 25 59 71c0 30 -10 70 -10 101c0 52 29 94 82 117l1 6c-38 19 -57 53 -57 90c0 51 42 105 42 152c0 31 -15 47 -45 47c-12 0 -23 -2 -36 -5l-3 78l8 10c24 7 46 11 71 11c86 0 130 -39 130 -104
c0 -68 -41 -133 -41 -179c0 -32 18 -55 55 -67l-9 -71c-50 -16 -74 -44 -74 -94c0 -29 5 -70 5 -107c0 -99 -57 -150 -161 -150z" />
    <glyph glyph-name="asciitilde" unicode="~" horiz-adv-x="480" 
d="M149 228c-23 0 -49 -28 -81 -58h-13l-35 51l1 13l99 100l14 7c55 -10 171 -55 204 -55c23 0 48 27 81 58h14l33 -51l-1 -13l-97 -101l-15 -5c-55 8 -171 54 -204 54z" />
    <glyph glyph-name="nbspace" unicode="&#xa0;" horiz-adv-x="134" 
 />
    <glyph glyph-name="exclamdown" unicode="&#xa1;" horiz-adv-x="278" 
d="M159 316c-49 0 -76 29 -76 78c0 52 31 85 82 85c49 0 77 -29 77 -78c0 -52 -32 -85 -83 -85zM1 -178l92 404l89 13l14 -16l-38 -394l-15 -18l-126 -8z" />
    <glyph glyph-name="cent" unicode="&#xa2;" horiz-adv-x="387" 
d="M308 215l43 -53c-36 -59 -73 -93 -122 -115l-26 -171h-77l-9 11l22 151c-80 21 -116 75 -116 179c0 133 58 251 188 286l23 154h75l12 -12l-20 -134l75 -22l6 -14l-35 -96l-29 -1c-24 25 -41 35 -65 35c-69 0 -106 -60 -106 -171c0 -71 18 -100 55 -100c26 0 54 16 89 74
z" />
    <glyph glyph-name="sterling" unicode="&#xa3;" horiz-adv-x="460" 
d="M357 596c38 0 75 -5 115 -15l-20 -109l-11 -7c-44 23 -78 32 -108 32c-43 0 -72 -20 -78 -68l-11 -82h126l4 -8l-16 -75h-125l-9 -66c-6 -46 -19 -69 -50 -91v-4h136l104 8l4 -8l-23 -107l-135 4h-265l-5 8l16 85c53 12 79 41 85 96l9 75h-73l-3 7l15 76h71l7 58
c13 124 101 191 240 191z" />
    <glyph glyph-name="currency" unicode="&#xa4;" horiz-adv-x="435" 
d="M461 497l-2 -14l-77 -61c8 -18 12 -40 12 -61c0 -32 -11 -59 -27 -85l63 -57l1 -14l-76 -71h-13l-52 70c-25 -14 -52 -22 -80 -22c-25 0 -49 7 -69 19l-65 -70l-15 -1l-62 66l3 14l76 60c-8 17 -12 39 -12 60c0 32 10 61 28 87l-63 58v14l76 70h13l53 -70
c23 12 50 19 77 19c25 0 47 -6 66 -17l68 71l15 2zM240 426c-53 0 -92 -37 -92 -90c0 -43 27 -71 72 -71c53 0 92 37 92 91c0 42 -28 70 -72 70z" />
    <glyph glyph-name="yen" unicode="&#xa5;" horiz-adv-x="565" 
d="M533 315l5 -6l-13 -64h-137l-47 -68h174l6 -7l-12 -63h-188l-9 -107h-134l19 107h-170l-4 7l11 63h163l-27 68h-126l-4 8l12 62h91l-76 191h141l9 -39l65 -170h8l118 166l23 43h137l-132 -191h97z" />
    <glyph glyph-name="brokenbar" unicode="&#xa6;" horiz-adv-x="305" 
d="M282 795l-54 -416l-108 -14l-9 10l52 422l109 9zM199 147l-48 -397l-106 -8l-11 13l49 394l105 12z" />
    <glyph glyph-name="section" unicode="&#xa7;" horiz-adv-x="450" 
d="M228 517c0 -58 204 -76 204 -210c0 -63 -45 -120 -114 -152c27 -23 47 -52 47 -92c0 -89 -94 -161 -214 -161c-46 0 -110 12 -155 30l31 113l14 9c41 -37 94 -60 134 -60s61 23 61 42c0 59 -204 77 -204 211c0 64 45 122 113 155c-26 22 -45 51 -45 90
c0 88 93 162 213 162c41 0 92 -9 129 -24l-29 -109l-18 -5c-41 28 -82 42 -110 42c-35 0 -57 -22 -57 -41zM162 285c0 -36 39 -58 83 -83c40 19 57 42 57 67c0 37 -39 59 -82 84c-38 -19 -58 -43 -58 -68z" />
    <glyph glyph-name="dieresis" unicode="&#xa8;" 
d="M155 694c42 0 67 -26 67 -69c0 -46 -28 -75 -73 -75c-44 0 -68 25 -68 69c0 46 28 75 74 75zM337 693c42 0 67 -25 67 -68c0 -47 -28 -76 -73 -76c-44 0 -68 25 -68 70c0 46 28 74 74 74z" />
    <glyph glyph-name="copyright" unicode="&#xa9;" horiz-adv-x="694" 
d="M354 598c181 0 301 -122 301 -305s-120 -305 -301 -305s-301 122 -301 305s120 305 301 305zM354 546c-149 0 -249 -101 -249 -253s100 -253 249 -253s249 101 249 253s-100 253 -249 253zM379 464c31 0 60 -5 87 -13l-19 -81l-6 -4c-19 9 -46 15 -66 15
c-46 0 -66 -21 -66 -77c0 -63 22 -92 71 -92c20 0 48 4 68 10l8 -4l-8 -81c-25 -7 -52 -9 -75 -9c-115 0 -171 58 -171 165c0 108 63 171 177 171z" />
    <glyph glyph-name="ordfeminine" unicode="&#xaa;" horiz-adv-x="329" 
d="M340 645l-33 -243l-4 -74l-94 -6l14 107h-10c-22 -42 -46 -80 -75 -110h-13c-63 19 -80 55 -80 110c0 91 52 188 163 218h5l61 -10l58 13zM151 404c13 0 47 48 87 139l3 22v4l-46 10c-40 -1 -62 -47 -62 -113c0 -45 9 -62 18 -62z" />
    <glyph glyph-name="guillemetleft" unicode="&#xab;" horiz-adv-x="443" 
d="M31 221l3 23l154 174l68 -38l1 -14l-112 -137l78 -137l-4 -14l-78 -39zM223 221l3 23l154 174l68 -38l1 -14l-112 -137l78 -137l-4 -14l-78 -39z" />
    <glyph glyph-name="logicalnot" unicode="&#xac;" horiz-adv-x="480" 
d="M443 302l-31 -256l-95 -8l-10 10l20 158h-300l-9 11l19 94h401z" />
    <glyph glyph-name="softhyphen" unicode="&#xad;" horiz-adv-x="302" 
d="M285 315l-11 -96l-242 -37l-10 12l11 96l242 36z" />
    <glyph glyph-name="registered" unicode="&#xae;" horiz-adv-x="449" 
d="M224 703c114 0 189 -76 189 -188c0 -114 -75 -189 -189 -189c-112 0 -188 75 -188 189c0 112 76 188 188 188zM225 362c91 0 152 61 152 153c0 91 -61 151 -152 151s-152 -60 -152 -151c0 -92 61 -153 152 -153zM310 558c0 -23 -13 -45 -37 -59c16 -21 32 -43 50 -64
l-1 -6c-16 -6 -35 -8 -53 -10l-7 5c-12 20 -23 40 -33 60h-29l3 -61h-54l2 57l-2 138l90 1c46 0 71 -22 71 -61zM254 553c0 18 -10 25 -34 26l-17 -1l-2 -54l30 -2c15 7 23 15 23 31z" />
    <glyph glyph-name="macron" unicode="&#xaf;" 
d="M391 661l-8 -86h-279l-9 10l7 86h279z" />
    <glyph glyph-name="degree" unicode="&#xb0;" horiz-adv-x="293" 
d="M198 655c68 0 117 -52 117 -118c0 -80 -70 -145 -149 -145c-68 0 -117 52 -117 118c0 80 70 145 149 145zM190 590c-42 0 -75 -32 -75 -74c0 -34 24 -59 59 -59c41 0 75 32 75 74c0 34 -24 59 -59 59z" />
    <glyph glyph-name="plusminus" unicode="&#xb1;" horiz-adv-x="478" 
d="M320 469l-19 -158h156l10 -11l-20 -94h-159l-20 -160l-94 -8l-10 10l20 158h-159l-8 11l19 94h160l20 160l94 8zM422 -33l-8 -93h-422l-10 10l8 94h422z" />
    <glyph glyph-name="twosuperior" unicode="&#xb2;" horiz-adv-x="366" 
d="M233 705c66 0 118 -32 118 -88c0 -42 -28 -84 -99 -157l-54 -56l2 -2h80l70 5l5 -8l-24 -92l-98 5h-169l-26 -2l-6 5l9 69l105 97c48 46 80 77 80 103c0 15 -11 25 -32 25c-27 0 -66 -16 -99 -43h-13l-10 88c57 33 110 51 161 51z" />
    <glyph glyph-name="threesuperior" unicode="&#xb3;" horiz-adv-x="327" 
d="M210 706c75 0 127 -35 127 -88c0 -30 -15 -71 -73 -98l-1 -4c41 -13 61 -39 61 -79c0 -79 -82 -132 -202 -132c-25 0 -56 3 -79 8l3 84l9 7c29 -8 54 -12 79 -12c49 0 75 14 75 41c0 19 -14 28 -41 28h-55l-5 7l11 78l32 1c32 1 61 18 61 43c0 17 -12 25 -36 25
s-50 -9 -81 -24h-12l-10 78c45 24 91 37 137 37z" />
    <glyph glyph-name="acute" unicode="&#xb4;" 
d="M315 734l55 -84l-3 -15c-73 -42 -137 -79 -204 -115l-14 1l-37 58c68 53 128 102 188 156z" />
    <glyph glyph-name="micro" unicode="&#xb5;" horiz-adv-x="508" 
d="M482 471l-48 -357l-4 -108l-143 -10l21 157h-12c-44 -68 -83 -116 -129 -156l-9 -1l-10 -71l-4 -109l-143 -10l74 548l4 108l142 9l-40 -300v-2c-2 -18 6 -26 18 -26c25 0 70 51 130 163l7 48l4 108z" />
    <glyph glyph-name="paragraph" unicode="&#xb6;" horiz-adv-x="538" 
d="M573 634l-24 -108h-64l-46 -324l-6 -63c-13 -106 -71 -171 -234 -228l-32 71l2 14c76 38 109 76 117 137l6 52l37 342h-41c-50 -12 -79 -58 -79 -122c0 -49 21 -93 61 -122l-64 -79c-106 27 -164 97 -164 196c0 153 108 245 288 245h234z" />
    <glyph glyph-name="periodcentered" unicode="&#xb7;" horiz-adv-x="230" 
d="M121 336c48 0 76 -28 76 -77c0 -52 -32 -85 -82 -85s-77 28 -77 78c0 52 32 84 83 84z" />
    <glyph glyph-name="cedilla" unicode="&#xb8;" 
d="M164 -46l34 -19c32 -18 42 -37 42 -61c0 -45 -38 -78 -100 -78c-34 0 -62 11 -85 27l10 63l7 2c19 -18 41 -29 58 -29c14 0 22 7 22 19c0 8 -6 13 -15 18l-50 28l23 104h71z" />
    <glyph glyph-name="onesuperior" unicode="&#xb9;" horiz-adv-x="283" 
d="M270 694l-35 -244l-12 -138h-122l20 127l17 136l-83 -15l-7 5l11 92l196 49z" />
    <glyph glyph-name="ordmasculine" unicode="&#xba;" horiz-adv-x="314" 
d="M222 650l10 -1c57 -11 93 -47 93 -115c0 -129 -67 -210 -177 -216l-8 2c-59 10 -94 48 -94 121c0 122 68 203 176 209zM206 580c-51 0 -69 -49 -69 -140c0 -40 8 -54 30 -54c50 0 67 48 67 141c0 39 -7 53 -28 53z" />
    <glyph glyph-name="guillemetright" unicode="&#xbb;" horiz-adv-x="441" 
d="M221 239l-4 -23l-153 -174l-68 38l-1 14l112 137l-79 137l5 14l77 39zM413 239l-3 -23l-154 -174l-68 38l-1 14l112 137l-79 137l5 14l78 39z" />
    <glyph glyph-name="onequarter" unicode="&#xbc;" horiz-adv-x="765" 
d="M656 630l-554 -723l-61 40l-4 15l556 727l57 -38zM49 505l-7 5l11 92l196 49l15 -12l-35 -244l-12 -138h-122l20 127l17 136zM717 80l-50 1l-4 -73l-8 -8l-95 -5l-5 7l12 80h-97l-72 -2l-6 9l8 72l194 227h111l-30 -219h52l5 -10zM504 169h76l11 94h-7z" />
    <glyph glyph-name="onehalf" unicode="&#xbd;" horiz-adv-x="794" 
d="M650 651l6 -21l-554 -723l-61 40l-4 15l556 727zM264 639l-35 -244l-12 -138h-122l20 127l17 136l-83 -15l-7 5l11 92l196 49zM631 393c66 0 118 -32 118 -88c0 -42 -28 -84 -99 -157l-54 -56l2 -2h80l70 5l5 -8l-24 -92l-98 5h-169l-26 -2l-6 5l9 69l105 97
c48 46 80 77 80 103c0 15 -11 25 -32 25c-27 0 -66 -16 -99 -43h-13l-10 88c57 33 110 51 161 51z" />
    <glyph glyph-name="threequarters" unicode="&#xbe;" horiz-adv-x="805" 
d="M696 630l-554 -723l-61 40l-4 15l556 727l57 -38zM315 382c0 -79 -82 -132 -202 -132c-25 0 -56 3 -79 8l3 84l9 7c29 -8 54 -12 79 -12c49 0 75 14 75 41c0 19 -14 28 -41 28h-55l-5 7l11 78l32 1c32 1 61 18 61 43c0 17 -12 25 -36 25s-50 -9 -81 -24h-12l-10 78
c45 24 91 37 137 37c75 0 127 -35 127 -88c0 -30 -15 -71 -73 -98l-1 -4c41 -13 61 -39 61 -79zM757 80l-50 1l-4 -73l-8 -8l-95 -5l-5 7l12 80h-97l-72 -2l-6 9l8 72l194 227h111l-30 -219h52l5 -10zM544 169h76l11 94h-7z" />
    <glyph glyph-name="questiondown" unicode="&#xbf;" horiz-adv-x="344" 
d="M204 316c-48 0 -76 29 -76 78c0 52 32 85 83 85c49 0 76 -29 76 -78c0 -52 -31 -85 -83 -85zM232 -193l-15 -8c-171 9 -265 61 -265 151c0 60 41 116 112 153l72 38l2 6l4 79l110 16l10 -11l-5 -129l-7 -10l-93 -43c-39 -18 -62 -42 -62 -74c0 -42 44 -65 165 -73l9 -15z
" />
    <glyph glyph-name="Agrave" unicode="&#xc0;" horiz-adv-x="600" 
d="M481 720l-14 -4c-73 23 -144 46 -223 75l-5 14l39 92l14 4c70 -42 138 -78 214 -116zM559 0h-161l-5 92l-5 40l-113 2l-98 -3l-13 -30l-30 -101h-156l285 645h190zM373 251l-31 248h-10l-104 -247l71 -2z" />
    <glyph glyph-name="Aacute" unicode="&#xc1;" horiz-adv-x="600" 
d="M269 719l-24 64c76 39 143 75 213 117l14 -4l40 -92l-5 -14c-80 -29 -151 -52 -223 -75zM559 0h-161l-5 92l-5 40l-113 2l-98 -3l-13 -30l-30 -101h-156l285 645h190zM373 251l-31 248h-10l-104 -247l71 -2z" />
    <glyph glyph-name="Acircumflex" unicode="&#xc2;" horiz-adv-x="600" 
d="M238 725l-21 61c54 36 103 72 148 109h30c39 -37 84 -73 133 -109l-35 -61h-15l-103 62c-39 -21 -82 -41 -122 -62h-15zM559 0h-161l-5 92l-5 40l-113 2l-98 -3l-13 -30l-30 -101h-156l285 645h190zM373 251l-31 248h-10l-104 -247l71 -2z" />
    <glyph glyph-name="Atilde" unicode="&#xc3;" horiz-adv-x="600" 
d="M235 714l-46 45v13l74 97l14 5c49 -6 128 -34 154 -34c22 0 41 26 65 54h13l46 -45v-13l-74 -98l-14 -5c-48 6 -128 35 -154 35c-22 0 -41 -27 -64 -54h-14zM559 0h-161l-5 92l-5 40l-113 2l-98 -3l-13 -30l-30 -101h-156l285 645h190zM373 251l-31 248h-10l-104 -247
l71 -2z" />
    <glyph glyph-name="Adieresis" unicode="&#xc4;" horiz-adv-x="600" 
d="M278 728c-44 0 -68 25 -68 69c0 46 28 75 74 75c42 0 67 -26 67 -69c0 -46 -28 -75 -73 -75zM460 727c-44 0 -68 25 -68 70c0 46 28 74 74 74c42 0 67 -25 67 -68c0 -47 -28 -76 -73 -76zM559 0h-161l-5 92l-5 40l-113 2l-98 -3l-13 -30l-30 -101h-156l285 645h190z
M373 251l-31 248h-10l-104 -247l71 -2z" />
    <glyph glyph-name="Aring" unicode="&#xc5;" horiz-adv-x="600" 
d="M369 714c-62 0 -97 34 -97 98c0 65 36 102 103 102c66 0 98 -35 98 -96c0 -67 -38 -104 -104 -104zM372 849c-27 0 -38 -11 -38 -34c0 -27 13 -38 39 -38s38 10 38 35s-12 37 -39 37zM559 0h-161l-5 92l-5 40l-113 2l-98 -3l-13 -30l-30 -101h-156l285 645h190zM373 251
l-31 248h-10l-104 -247l71 -2z" />
    <glyph glyph-name="AE" unicode="&#xc6;" horiz-adv-x="814" 
d="M795 117l-25 -117h-400l7 92l2 112l-200 -55l-27 -48l-42 -101h-157l370 645h463l8 -12l-25 -117l-150 5h-81l-4 -156l188 51l10 -9v-111l-201 -51l-3 -122h97l162 6zM381 323l3 176h-10l-117 -210z" />
    <glyph glyph-name="Ccedilla" unicode="&#xc7;" horiz-adv-x="511" 
d="M383 654c62 0 122 -13 167 -34l-44 -130l-12 -6c-34 25 -80 40 -126 40c-114 0 -166 -80 -166 -238c0 -110 42 -163 124 -163c43 0 98 13 140 35l13 -8l-29 -131c-42 -17 -79 -26 -118 -28l-8 -36l34 -19c32 -18 42 -37 42 -61c0 -45 -38 -78 -100 -78
c-34 0 -62 11 -85 27l10 63l7 2c19 -18 41 -29 58 -29c14 0 22 7 22 19c0 8 -6 13 -15 18l-50 28l15 67c-150 15 -230 111 -230 268c0 246 126 394 351 394z" />
    <glyph glyph-name="Egrave" unicode="&#xc8;" horiz-adv-x="514" 
d="M456 720l-14 -4c-73 23 -144 46 -223 75l-5 14l39 92l14 4c70 -42 138 -78 214 -116zM265 520l-19 -132l104 -1l103 3l7 -11l-24 -117l-112 3l-96 -1l-8 -58l-8 -82l106 -1l158 6l7 -12l-24 -117h-417l32 191l48 454h423l7 -12l-25 -117l-153 5z" />
    <glyph glyph-name="Eacute" unicode="&#xc9;" horiz-adv-x="514" 
d="M243 719l-24 64c76 39 143 75 213 117l14 -4l40 -92l-5 -14c-80 -29 -151 -52 -223 -75zM265 520l-19 -132l104 -1l103 3l7 -11l-24 -117l-112 3l-96 -1l-8 -58l-8 -82l106 -1l158 6l7 -12l-24 -117h-417l32 191l48 454h423l7 -12l-25 -117l-153 5z" />
    <glyph glyph-name="Ecircumflex" unicode="&#xca;" horiz-adv-x="514" 
d="M213 725l-21 61c54 36 103 72 148 109h30c39 -37 84 -73 133 -109l-35 -61h-15l-103 62c-39 -21 -82 -41 -122 -62h-15zM265 520l-19 -132l104 -1l103 3l7 -11l-24 -117l-112 3l-96 -1l-8 -58l-8 -82l106 -1l158 6l7 -12l-24 -117h-417l32 191l48 454h423l7 -12l-25 -117
l-153 5z" />
    <glyph glyph-name="Edieresis" unicode="&#xcb;" horiz-adv-x="514" 
d="M253 728c-44 0 -68 25 -68 69c0 46 28 75 74 75c42 0 67 -26 67 -69c0 -46 -28 -75 -73 -75zM435 727c-44 0 -68 25 -68 70c0 46 28 74 74 74c42 0 67 -25 67 -68c0 -47 -28 -76 -73 -76zM265 520l-19 -132l104 -1l103 3l7 -11l-24 -117l-112 3l-96 -1l-8 -58l-8 -82
l106 -1l158 6l7 -12l-24 -117h-417l32 191l48 454h423l7 -12l-25 -117l-153 5z" />
    <glyph glyph-name="Igrave" unicode="&#xcc;" horiz-adv-x="304" 
d="M126 897l14 4c70 -42 138 -78 214 -116l-25 -65l-14 -4c-73 23 -144 46 -223 75l-5 14zM220 206l-19 -206h-159l32 191l48 454h161z" />
    <glyph glyph-name="Iacute" unicode="&#xcd;" horiz-adv-x="304" 
d="M320 896l40 -92l-5 -14c-80 -29 -151 -52 -223 -75l-15 4l-24 64c76 39 143 75 213 117zM220 206l-19 -206h-159l32 191l48 454h161z" />
    <glyph glyph-name="Icircumflex" unicode="&#xce;" horiz-adv-x="304" 
d="M86 725l-21 61c54 36 103 72 148 109h30c39 -37 84 -73 133 -109l-35 -61h-15l-103 62c-39 -21 -82 -41 -122 -62h-15zM220 206l-19 -206h-159l32 191l48 454h161z" />
    <glyph glyph-name="Eth" unicode="&#xd0;" horiz-adv-x="680" 
d="M151 645l259 4c165 0 262 -91 262 -253c0 -250 -128 -404 -365 -404c-55 0 -167 4 -236 8l32 191l8 74h-82l-6 11l13 94h86l28 275h1zM342 113c100 0 161 76 161 259c0 107 -36 152 -114 152c-19 0 -63 -2 -96 -5l-21 -149h103l6 -11l-14 -94h-111l-8 -59l-7 -85
c35 -5 81 -8 101 -8z" />
    <glyph glyph-name="Ntilde" unicode="&#xd1;" horiz-adv-x="691" 
d="M599 849v-13l-74 -98l-14 -5c-48 6 -128 35 -154 35c-22 0 -41 -27 -64 -54h-14l-46 45v13l74 97l14 5c49 -6 128 -34 154 -34c22 0 41 26 65 54h13zM608 203l-19 -203h-171l-176 404h-10l-23 -178l-22 -226h-145l32 190l48 455h171l177 -404h10l45 398l147 9z" />
    <glyph glyph-name="Ograve" unicode="&#xd2;" horiz-adv-x="642" 
d="M297 897l14 4c70 -42 138 -78 214 -116l-25 -65l-14 -4c-73 23 -144 46 -223 75l-5 14zM373 655c162 0 260 -90 260 -275c0 -231 -121 -391 -342 -391c-161 0 -259 93 -259 279c0 231 121 387 341 387zM355 527c-100 0 -158 -62 -158 -258c0 -114 28 -160 110 -160
c98 0 158 63 158 260c0 113 -28 158 -110 158z" />
    <glyph glyph-name="Oacute" unicode="&#xd3;" horiz-adv-x="642" 
d="M491 896l40 -92l-5 -14c-80 -29 -151 -52 -223 -75l-15 4l-24 64c76 39 143 75 213 117zM373 655c162 0 260 -90 260 -275c0 -231 -121 -391 -342 -391c-161 0 -259 93 -259 279c0 231 121 387 341 387zM355 527c-100 0 -158 -62 -158 -258c0 -114 28 -160 110 -160
c98 0 158 63 158 260c0 113 -28 158 -110 158z" />
    <glyph glyph-name="Ocircumflex" unicode="&#xd4;" horiz-adv-x="642" 
d="M257 725l-21 61c54 36 103 72 148 109h30c39 -37 84 -73 133 -109l-35 -61h-15l-103 62c-39 -21 -82 -41 -122 -62h-15zM373 655c162 0 260 -90 260 -275c0 -231 -121 -391 -342 -391c-161 0 -259 93 -259 279c0 231 121 387 341 387zM355 527c-100 0 -158 -62 -158 -258
c0 -114 28 -160 110 -160c98 0 158 63 158 260c0 113 -28 158 -110 158z" />
    <glyph glyph-name="Otilde" unicode="&#xd5;" horiz-adv-x="642" 
d="M573 849v-13l-74 -98l-14 -5c-48 6 -128 35 -154 35c-22 0 -41 -27 -64 -54h-14l-46 45v13l74 97l14 5c49 -6 128 -34 154 -34c22 0 41 26 65 54h13zM373 655c162 0 260 -90 260 -275c0 -231 -121 -391 -342 -391c-161 0 -259 93 -259 279c0 231 121 387 341 387z
M355 527c-100 0 -158 -62 -158 -258c0 -114 28 -160 110 -160c98 0 158 63 158 260c0 113 -28 158 -110 158z" />
    <glyph glyph-name="multiply" unicode="&#xd7;" horiz-adv-x="481" 
d="M444 385l-1 -15l-125 -111l97 -112l-2 -15l-79 -61l-99 113l-128 -113l-64 61l2 14l126 113l-98 111l1 15l79 61l100 -114l127 114z" />
    <glyph glyph-name="Oslash" unicode="&#xd8;" horiz-adv-x="642" 
d="M612 690l-57 -95c50 -46 78 -117 78 -215c0 -231 -121 -391 -342 -391c-32 0 -62 4 -89 11l-74 -124l-80 37l-5 14l71 119c-53 47 -82 120 -82 222c0 231 121 387 341 387c35 0 66 -4 95 -12l59 99l78 -36zM307 109c98 0 158 63 158 260c0 113 -28 158 -110 158
c-100 0 -158 -62 -158 -258c0 -114 28 -160 110 -160z" />
    <glyph glyph-name="Ugrave" unicode="&#xd9;" horiz-adv-x="634" 
d="M294 897l14 4c70 -42 138 -78 214 -116l-25 -65l-14 -4c-73 23 -144 46 -223 75l-5 14zM585 318l-12 -92c-18 -151 -114 -236 -285 -236c-146 0 -235 66 -235 186c0 14 1 30 3 47l14 97l36 325h158l-56 -401c-1 -12 -2 -23 -2 -33c0 -64 30 -93 95 -93
c77 0 117 38 126 122l43 405h160z" />
    <glyph glyph-name="Uacute" unicode="&#xda;" horiz-adv-x="634" 
d="M487 896l40 -92l-5 -14c-80 -29 -151 -52 -223 -75l-15 4l-24 64c76 39 143 75 213 117zM585 318l-12 -92c-18 -151 -114 -236 -285 -236c-146 0 -235 66 -235 186c0 14 1 30 3 47l14 97l36 325h158l-56 -401c-1 -12 -2 -23 -2 -33c0 -64 30 -93 95 -93
c77 0 117 38 126 122l43 405h160z" />
    <glyph glyph-name="Ucircumflex" unicode="&#xdb;" horiz-adv-x="634" 
d="M253 725l-21 61c54 36 103 72 148 109h30c39 -37 84 -73 133 -109l-35 -61h-15l-103 62c-39 -21 -82 -41 -122 -62h-15zM585 318l-12 -92c-18 -151 -114 -236 -285 -236c-146 0 -235 66 -235 186c0 14 1 30 3 47l14 97l36 325h158l-56 -401c-1 -12 -2 -23 -2 -33
c0 -64 30 -93 95 -93c77 0 117 38 126 122l43 405h160z" />
    <glyph glyph-name="Udieresis" unicode="&#xdc;" horiz-adv-x="634" 
d="M299 872c42 0 67 -26 67 -69c0 -46 -28 -75 -73 -75c-44 0 -68 25 -68 69c0 46 28 75 74 75zM481 871c42 0 67 -25 67 -68c0 -47 -28 -76 -73 -76c-44 0 -68 25 -68 70c0 46 28 74 74 74zM585 318l-12 -92c-18 -151 -114 -236 -285 -236c-146 0 -235 66 -235 186
c0 14 1 30 3 47l14 97l36 325h158l-56 -401c-1 -12 -2 -23 -2 -33c0 -64 30 -93 95 -93c77 0 117 38 126 122l43 405h160z" />
    <glyph glyph-name="Thorn" unicode="&#xde;" horiz-adv-x="569" 
d="M270 547h105c121 0 197 -58 197 -171c0 -158 -115 -271 -291 -271h-69l-10 -105h-160l32 191l48 454h162zM223 222l96 -4c58 19 88 66 88 133c0 55 -26 81 -88 84l-66 -4z" />
    <glyph glyph-name="germandbls" unicode="&#xdf;" horiz-adv-x="607" 
d="M440 356c0 -69 151 -81 151 -204c0 -94 -89 -162 -207 -162c-45 5 -85 14 -126 29l32 120l15 7c36 -42 80 -66 115 -66c29 0 45 19 45 39c1 55 -152 78 -152 206c0 115 109 137 109 216c0 35 -21 53 -65 53c-47 0 -85 -20 -95 -80l-43 -308l-27 -203l-4 -108l-144 -10
l41 305l22 184h-65l-7 9l11 75h71l4 29c17 136 108 217 252 217c121 0 183 -57 183 -136c0 -110 -116 -141 -116 -212z" />
    <glyph glyph-name="agrave" unicode="&#xe0;" horiz-adv-x="471" 
d="M356 521l-14 -1c-67 36 -132 73 -205 115l-3 15l56 84l14 1c61 -54 120 -103 188 -156zM445 471l-48 -357l-4 -108l-144 -10l19 139h-14c-29 -53 -62 -102 -101 -145h-20c-90 28 -117 85 -117 165c0 126 74 273 238 319h6l87 -19l88 23zM172 128c22 0 68 65 123 201l2 17
l-67 20c-53 0 -81 -62 -81 -155c0 -62 11 -83 23 -83z" />
    <glyph glyph-name="aacute" unicode="&#xe1;" horiz-adv-x="471" 
d="M187 521l-37 58c68 53 128 102 188 156l15 -1l55 -84l-3 -15c-73 -42 -137 -79 -204 -115zM445 471l-48 -357l-4 -108l-144 -10l19 139h-14c-29 -53 -62 -102 -101 -145h-20c-90 28 -117 85 -117 165c0 126 74 273 238 319h6l87 -19l88 23zM172 128c22 0 68 65 123 201
l2 17l-67 20c-53 0 -81 -62 -81 -155c0 -62 11 -83 23 -83z" />
    <glyph glyph-name="acircumflex" unicode="&#xe2;" horiz-adv-x="471" 
d="M146 527l-30 59c50 40 105 91 163 144h31c38 -47 86 -98 132 -144l-45 -59h-15c-38 31 -74 61 -100 88c-32 -27 -75 -57 -121 -88h-15zM445 471l-48 -357l-4 -108l-144 -10l19 139h-14c-29 -53 -62 -102 -101 -145h-20c-90 28 -117 85 -117 165c0 126 74 273 238 319h6
l87 -19l88 23zM172 128c22 0 68 65 123 201l2 17l-67 20c-53 0 -81 -62 -81 -155c0 -62 11 -83 23 -83z" />
    <glyph glyph-name="atilde" unicode="&#xe3;" horiz-adv-x="471" 
d="M461 671v-13l-74 -98l-14 -5c-48 6 -128 35 -154 35c-22 0 -41 -27 -64 -54h-14l-46 45v13l74 97l14 5c49 -6 128 -34 154 -34c22 0 41 26 65 54h13zM435 478l10 -7l-48 -357l-4 -108l-144 -10l19 139h-14c-29 -53 -62 -102 -101 -145h-20c-90 28 -117 85 -117 165
c0 126 74 273 238 319h6l87 -19zM172 128c22 0 68 65 123 201l2 17l-67 20c-53 0 -81 -62 -81 -155c0 -62 11 -83 23 -83z" />
    <glyph glyph-name="adieresis" unicode="&#xe4;" horiz-adv-x="471" 
d="M184 550c-44 0 -68 25 -68 69c0 46 28 75 74 75c42 0 67 -26 67 -69c0 -46 -28 -75 -73 -75zM366 549c-44 0 -68 25 -68 70c0 46 28 74 74 74c42 0 67 -25 67 -68c0 -47 -28 -76 -73 -76zM445 471l-48 -357l-4 -108l-144 -10l19 139h-14c-29 -53 -62 -102 -101 -145h-20
c-90 28 -117 85 -117 165c0 126 74 273 238 319h6l87 -19l88 23zM172 128c22 0 68 65 123 201l2 17l-67 20c-53 0 -81 -62 -81 -155c0 -62 11 -83 23 -83z" />
    <glyph glyph-name="aring" unicode="&#xe5;" horiz-adv-x="471" 
d="M276 536c-62 0 -97 34 -97 98c0 65 36 102 103 102c66 0 98 -35 98 -96c0 -67 -38 -104 -104 -104zM279 671c-27 0 -38 -11 -38 -34c0 -27 13 -38 39 -38s38 10 38 35s-12 37 -39 37zM445 471l-48 -357l-4 -108l-144 -10l19 139h-14c-29 -53 -62 -102 -101 -145h-20
c-90 28 -117 85 -117 165c0 126 74 273 238 319h6l87 -19l88 23zM172 128c22 0 68 65 123 201l2 17l-67 20c-53 0 -81 -62 -81 -155c0 -62 11 -83 23 -83z" />
    <glyph glyph-name="ae" unicode="&#xe6;" horiz-adv-x="659" 
d="M265 474l138 -32c36 21 78 34 126 36l14 -1c64 -12 110 -48 110 -115c0 -78 -67 -136 -246 -185c0 -5 1 -9 2 -15c6 -42 22 -60 53 -60c40 0 76 26 104 73l19 -2l46 -60c-51 -64 -113 -105 -177 -123h-15c-108 12 -149 64 -163 149c-1 3 -3 10 -3 13
c-34 -58 -73 -114 -118 -162h-20c-91 28 -116 89 -116 164c0 129 76 275 239 320h7zM492 385c-48 0 -78 -44 -86 -125c83 22 121 51 121 93c0 22 -11 32 -35 32zM309 344l-74 23c-55 0 -85 -63 -85 -158c0 -62 11 -82 24 -82c21 0 68 64 121 189c7 17 7 15 14 28z" />
    <glyph glyph-name="ccedilla" unicode="&#xe7;" horiz-adv-x="363" 
d="M292 183l46 -58c-38 -65 -77 -101 -133 -125l-10 -45l34 -19c32 -18 42 -37 42 -61c0 -45 -38 -78 -100 -78c-34 0 -62 11 -85 27l10 63l7 2c19 -18 41 -29 58 -29c14 0 22 7 22 19c0 8 -6 13 -15 18l-50 28l16 72c-83 21 -116 77 -116 177c0 159 81 302 266 302l81 -25
l4 -15l-41 -108l-31 -1c-22 27 -35 38 -59 38c-55 0 -82 -57 -82 -163c0 -63 13 -88 43 -88c22 0 43 14 74 70z" />
    <glyph glyph-name="egrave" unicode="&#xe8;" horiz-adv-x="416" 
d="M336 521l-14 -1c-67 36 -132 73 -205 115l-3 15l56 84l14 1c61 -54 120 -103 188 -156zM331 173l47 -60c-51 -64 -112 -105 -177 -123h-15c-119 13 -167 77 -167 183c0 175 99 297 258 305l14 -1c66 -13 109 -50 109 -116c0 -78 -68 -136 -244 -184c5 -54 22 -74 56 -74
c37 0 72 26 101 73zM239 384c-46 0 -75 -42 -83 -122c79 21 116 47 116 90c0 22 -9 32 -33 32z" />
    <glyph glyph-name="eacute" unicode="&#xe9;" horiz-adv-x="416" 
d="M167 521l-37 58c68 53 128 102 188 156l15 -1l55 -84l-3 -15c-73 -42 -137 -79 -204 -115zM331 173l47 -60c-51 -64 -112 -105 -177 -123h-15c-119 13 -167 77 -167 183c0 175 99 297 258 305l14 -1c66 -13 109 -50 109 -116c0 -78 -68 -136 -244 -184
c5 -54 22 -74 56 -74c37 0 72 26 101 73zM239 384c-46 0 -75 -42 -83 -122c79 21 116 47 116 90c0 22 -9 32 -33 32z" />
    <glyph glyph-name="ecircumflex" unicode="&#xea;" horiz-adv-x="416" 
d="M126 527l-30 59c50 40 105 91 163 144h31c38 -47 86 -98 132 -144l-45 -59h-15c-38 31 -74 61 -100 88c-32 -27 -75 -57 -121 -88h-15zM400 361c0 -78 -68 -136 -244 -184c5 -54 22 -74 56 -74c37 0 72 26 101 73l18 -3l47 -60c-51 -64 -112 -105 -177 -123h-15
c-119 13 -167 77 -167 183c0 175 99 297 258 305l14 -1c66 -13 109 -50 109 -116zM156 262c79 21 116 47 116 90c0 22 -9 32 -33 32c-46 0 -75 -42 -83 -122z" />
    <glyph glyph-name="edieresis" unicode="&#xeb;" horiz-adv-x="416" 
d="M165 550c-44 0 -68 25 -68 69c0 46 28 75 74 75c42 0 67 -26 67 -69c0 -46 -28 -75 -73 -75zM347 549c-44 0 -68 25 -68 70c0 46 28 74 74 74c42 0 67 -25 67 -68c0 -47 -28 -76 -73 -76zM400 361c0 -78 -68 -136 -244 -184c5 -54 22 -74 56 -74c37 0 72 26 101 73l18 -3
l47 -60c-51 -64 -112 -105 -177 -123h-15c-119 13 -167 77 -167 183c0 175 99 297 258 305l14 -1c66 -13 109 -50 109 -116zM156 262c79 21 116 47 116 90c0 22 -9 32 -33 32c-46 0 -75 -42 -83 -122z" />
    <glyph glyph-name="igrave" unicode="&#xec;" horiz-adv-x="245" 
d="M80 734l14 1c61 -54 120 -103 188 -156l-36 -58l-14 -1c-67 36 -132 73 -205 115l-3 15zM173 114l-5 -108l-144 -10l49 358l4 108l143 10z" />
    <glyph glyph-name="iacute" unicode="&#xed;" horiz-adv-x="245" 
d="M243 734l55 -84l-3 -15c-73 -42 -137 -79 -204 -115l-14 1l-37 58c68 53 128 102 188 156zM173 114l-5 -108l-144 -10l49 358l4 108l143 10z" />
    <glyph glyph-name="icircumflex" unicode="&#xee;" horiz-adv-x="245" 
d="M36 527l-30 59c50 40 105 91 163 144h31c38 -47 86 -98 132 -144l-45 -59h-15c-38 31 -74 61 -100 88c-32 -27 -75 -57 -121 -88h-15zM173 114l-5 -108l-144 -10l49 358l4 108l143 10z" />
    <glyph glyph-name="eth" unicode="&#xf0;" horiz-adv-x="474" 
d="M426 647l-95 -52c77 -84 114 -183 111 -290c0 -188 -97 -306 -256 -316l-14 2c-85 19 -136 73 -136 179c0 169 90 281 233 296c-14 23 -32 44 -54 64l-124 -69l-11 4l-23 58l96 54c-25 15 -54 31 -86 46l3 17l102 70h8c36 -20 68 -41 97 -64l114 63l12 -4zM212 93
c73 0 96 70 97 204c0 17 -1 34 -2 49c-9 16 -22 23 -41 23c-73 0 -98 -67 -98 -202c0 -54 12 -74 44 -74z" />
    <glyph glyph-name="ntilde" unicode="&#xf1;" horiz-adv-x="506" 
d="M485 671v-13l-74 -98l-14 -5c-48 6 -128 35 -154 35c-22 0 -41 -27 -64 -54h-14l-46 45v13l74 97l14 5c49 -6 128 -34 154 -34c22 0 41 26 65 54h13zM345 470l12 1c64 -13 117 -50 116 -103l-1 -13l-39 -240l-4 -109l-148 -10l47 290l1 11c0 16 -5 23 -17 23
c-26 0 -73 -50 -133 -163l-6 -43l-4 -108l-145 -10l49 358l4 108l144 10l-22 -162h13c47 70 87 119 133 160z" />
    <glyph glyph-name="ograve" unicode="&#xf2;" horiz-adv-x="449" 
d="M190 734l14 1c61 -54 120 -103 188 -156l-36 -58l-14 -1c-67 36 -132 73 -205 115l-3 15zM279 478l14 -1c83 -18 136 -72 136 -172c0 -189 -98 -306 -258 -316l-14 2c-86 19 -137 74 -137 181c0 178 99 297 259 306zM251 366c-73 0 -94 -65 -94 -197c0 -52 10 -71 41 -71
c71 0 92 66 92 198c0 52 -10 70 -39 70z" />
    <glyph glyph-name="oacute" unicode="&#xf3;" horiz-adv-x="449" 
d="M353 734l55 -84l-3 -15c-73 -42 -137 -79 -204 -115l-14 1l-37 58c68 53 128 102 188 156zM279 478l14 -1c83 -18 136 -72 136 -172c0 -189 -98 -306 -258 -316l-14 2c-86 19 -137 74 -137 181c0 178 99 297 259 306zM251 366c-73 0 -94 -65 -94 -197
c0 -52 10 -71 41 -71c71 0 92 66 92 198c0 52 -10 70 -39 70z" />
    <glyph glyph-name="ocircumflex" unicode="&#xf4;" horiz-adv-x="449" 
d="M146 527l-30 59c50 40 105 91 163 144h31c38 -47 86 -98 132 -144l-45 -59h-15c-38 31 -74 61 -100 88c-32 -27 -75 -57 -121 -88h-15zM279 478l14 -1c83 -18 136 -72 136 -172c0 -189 -98 -306 -258 -316l-14 2c-86 19 -137 74 -137 181c0 178 99 297 259 306zM251 366
c-73 0 -94 -65 -94 -197c0 -52 10 -71 41 -71c71 0 92 66 92 198c0 52 -10 70 -39 70z" />
    <glyph glyph-name="otilde" unicode="&#xf5;" horiz-adv-x="449" 
d="M461 671v-13l-74 -98l-14 -5c-48 6 -128 35 -154 35c-22 0 -41 -27 -64 -54h-14l-46 45v13l74 97l14 5c49 -6 128 -34 154 -34c22 0 41 26 65 54h13zM279 478l14 -1c83 -18 136 -72 136 -172c0 -189 -98 -306 -258 -316l-14 2c-86 19 -137 74 -137 181
c0 178 99 297 259 306zM251 366c-73 0 -94 -65 -94 -197c0 -52 10 -71 41 -71c71 0 92 66 92 198c0 52 -10 70 -39 70z" />
    <glyph glyph-name="divide" unicode="&#xf7;" horiz-adv-x="478" 
d="M265 496c41 0 65 -25 65 -67c0 -44 -27 -72 -70 -72s-67 24 -67 67c0 44 28 72 72 72zM463 300l-8 -94h-422l-10 11l7 94h422zM224 162c42 0 65 -24 65 -66c0 -45 -27 -73 -70 -73s-66 24 -66 67c0 44 27 72 71 72z" />
    <glyph glyph-name="oslash" unicode="&#xf8;" horiz-adv-x="449" 
d="M449 524l-58 -101c24 -28 38 -67 38 -118c0 -189 -98 -306 -258 -316l-14 2l-8 2l-70 -120l-74 42l-4 13l64 110c-29 31 -45 74 -45 134c0 178 99 297 259 306l14 -1l17 -4l62 106l70 -41zM198 98c71 0 92 66 92 198c0 52 -10 70 -39 70c-73 0 -94 -65 -94 -197
c0 -52 10 -71 41 -71z" />
    <glyph glyph-name="ugrave" unicode="&#xf9;" horiz-adv-x="499" 
d="M376 521l-14 -1c-67 36 -132 73 -205 115l-3 15l56 84l14 1c61 -54 120 -103 188 -156zM474 472l-49 -358l-3 -108l-145 -10l21 155h-11c-43 -67 -81 -114 -127 -154l-12 -1c-71 10 -118 48 -118 101l2 18l38 237l6 110l146 9l-46 -286l-1 -16c0 -17 6 -24 18 -24
c24 0 67 49 126 156l7 53l4 108z" />
    <glyph glyph-name="uacute" unicode="&#xfa;" horiz-adv-x="499" 
d="M207 521l-37 58c68 53 128 102 188 156l15 -1l55 -84l-3 -15c-73 -42 -137 -79 -204 -115zM474 472l-49 -358l-3 -108l-145 -10l21 155h-11c-43 -67 -81 -114 -127 -154l-12 -1c-71 10 -118 48 -118 101l2 18l38 237l6 110l146 9l-46 -286l-1 -16c0 -17 6 -24 18 -24
c24 0 67 49 126 156l7 53l4 108z" />
    <glyph glyph-name="ucircumflex" unicode="&#xfb;" horiz-adv-x="499" 
d="M165 527l-30 59c50 40 105 91 163 144h31c38 -47 86 -98 132 -144l-45 -59h-15c-38 31 -74 61 -100 88c-32 -27 -75 -57 -121 -88h-15zM474 472l-49 -358l-3 -108l-145 -10l21 155h-11c-43 -67 -81 -114 -127 -154l-12 -1c-71 10 -118 48 -118 101l2 18l38 237l6 110
l146 9l-46 -286l-1 -16c0 -17 6 -24 18 -24c24 0 67 49 126 156l7 53l4 108z" />
    <glyph glyph-name="udieresis" unicode="&#xfc;" horiz-adv-x="499" 
d="M204 550c-44 0 -68 25 -68 69c0 46 28 75 74 75c42 0 67 -26 67 -69c0 -46 -28 -75 -73 -75zM386 549c-44 0 -68 25 -68 70c0 46 28 74 74 74c42 0 67 -25 67 -68c0 -47 -28 -76 -73 -76zM474 472l-49 -358l-3 -108l-145 -10l21 155h-11c-43 -67 -81 -114 -127 -154
l-12 -1c-71 10 -118 48 -118 101l2 18l38 237l6 110l146 9l-46 -286l-1 -16c0 -17 6 -24 18 -24c24 0 67 49 126 156l7 53l4 108z" />
    <glyph glyph-name="thorn" unicode="&#xfe;" horiz-adv-x="476" 
d="M322 474h20c85 -27 116 -81 116 -165c0 -129 -77 -275 -235 -319h-7l-57 11l-10 -76l-4 -110l-144 -10l106 781l4 108l143 10l-51 -378h15c30 53 64 105 104 148zM175 117l72 -19c51 0 79 66 79 157c0 63 -11 85 -23 85c-23 0 -69 -67 -125 -199z" />
    <glyph glyph-name="ydieresis" unicode="&#xff;" horiz-adv-x="458" 
d="M172 550c-44 0 -68 25 -68 69c0 46 28 75 74 75c42 0 67 -26 67 -69c0 -46 -28 -75 -73 -75zM354 549c-44 0 -68 25 -68 70c0 46 28 74 74 74c42 0 67 -25 67 -68c0 -47 -28 -76 -73 -76zM309 455l133 19c11 -26 16 -52 16 -79c0 -47 -16 -96 -46 -154l-98 -186
c-99 -189 -177 -252 -282 -252c-31 0 -64 6 -96 17l-7 119l13 13c29 -9 58 -14 84 -14c41 0 82 14 116 42l-103 483l144 9l9 -88l33 -230h16l50 113c18 41 29 77 29 110c0 23 -6 43 -17 63z" />
    <glyph glyph-name="Amacron" unicode="&#x100;" horiz-adv-x="600" 
d="M233 753l-9 10l7 86h279l10 -10l-8 -86h-279zM559 0h-161l-5 92l-5 40l-113 2l-98 -3l-13 -30l-30 -101h-156l285 645h190zM373 251l-31 248h-10l-104 -247l71 -2z" />
    <glyph glyph-name="amacron" unicode="&#x101;" horiz-adv-x="471" 
d="M139 575l-9 10l7 86h279l10 -10l-8 -86h-279zM445 471l-48 -357l-4 -108l-144 -10l19 139h-14c-29 -53 -62 -102 -101 -145h-20c-90 28 -117 85 -117 165c0 126 74 273 238 319h6l87 -19l88 23zM172 128c22 0 68 65 123 201l2 17l-67 20c-53 0 -81 -62 -81 -155
c0 -62 11 -83 23 -83z" />
    <glyph glyph-name="Abreve" unicode="&#x102;" horiz-adv-x="600" 
d="M367 719c-80 0 -136 40 -155 113l40 48h22c16 -35 53 -53 100 -53s86 19 109 53h22l27 -48c-33 -73 -88 -113 -165 -113zM559 0h-161l-5 92l-5 40l-113 2l-98 -3l-13 -30l-30 -101h-156l285 645h190zM373 251l-31 248h-10l-104 -247l71 -2z" />
    <glyph glyph-name="abreve" unicode="&#x103;" horiz-adv-x="471" 
d="M267 532c-98 0 -139 63 -149 129l39 51h22c12 -47 48 -72 96 -72c49 0 90 25 113 72h22l27 -51c-26 -69 -82 -129 -170 -129zM445 471l-48 -357l-4 -108l-144 -10l19 139h-14c-29 -53 -62 -102 -101 -145h-20c-90 28 -117 85 -117 165c0 126 74 273 238 319h6l87 -19
l88 23zM172 128c22 0 68 65 123 201l2 17l-67 20c-53 0 -81 -62 -81 -155c0 -62 11 -83 23 -83z" />
    <glyph glyph-name="Aogonek" unicode="&#x104;" horiz-adv-x="600" 
d="M539 -86l3 -63c-39 -32 -71 -48 -105 -48c-52 0 -84 34 -84 88c0 30 10 58 45 109l-5 92l-5 40l-113 2l-98 -3l-13 -30l-30 -101h-156l285 645h190l106 -645h-77c-35 -45 -43 -68 -43 -85c0 -19 10 -28 28 -28c20 0 41 10 64 27h8zM373 251l-31 248h-10l-104 -247l71 -2z
" />
    <glyph glyph-name="aogonek" unicode="&#x105;" horiz-adv-x="475" 
d="M445 471l-48 -357l-4 -108l-59 -4c-46 -48 -58 -67 -58 -86c0 -17 12 -30 34 -30c17 0 35 9 53 26h8l13 -62c-33 -30 -60 -47 -98 -47c-54 0 -91 36 -91 91c0 33 14 61 55 108l18 133h-14c-29 -53 -62 -102 -101 -145h-20c-90 28 -117 85 -117 165c0 126 74 273 238 319
h6l87 -19l88 23zM172 128c22 0 68 65 123 201l2 17l-67 20c-53 0 -81 -62 -81 -155c0 -62 11 -83 23 -83z" />
    <glyph glyph-name="Cacute" unicode="&#x106;" horiz-adv-x="511" 
d="M461 896l40 -92l-5 -14c-80 -29 -151 -52 -223 -75l-15 4l-24 64c76 39 143 75 213 117zM383 654c62 0 122 -13 167 -34l-44 -130l-12 -6c-34 25 -80 40 -126 40c-114 0 -166 -80 -166 -238c0 -110 42 -163 124 -163c43 0 98 13 140 35l13 -8l-29 -131
c-52 -21 -95 -29 -145 -29c-177 0 -273 98 -273 270c0 246 126 394 351 394z" />
    <glyph glyph-name="cacute" unicode="&#x107;" horiz-adv-x="363" 
d="M335 734l55 -84l-3 -15c-73 -42 -137 -79 -204 -115l-14 1l-37 58c68 53 128 102 188 156zM365 451l4 -15l-41 -108l-31 -1c-22 27 -35 38 -59 38c-55 0 -82 -57 -82 -163c0 -63 13 -88 43 -88c22 0 43 14 74 70l19 -1l46 -58c-43 -74 -87 -110 -156 -134h-20
c-104 16 -144 72 -144 183c0 159 81 302 266 302z" />
    <glyph glyph-name="Ccircumflex" unicode="&#x108;" horiz-adv-x="511" 
d="M227 725l-21 61c54 36 103 72 148 109h30c39 -37 84 -73 133 -109l-35 -61h-15l-103 62c-39 -21 -82 -41 -122 -62h-15zM383 654c62 0 122 -13 167 -34l-44 -130l-12 -6c-34 25 -80 40 -126 40c-114 0 -166 -80 -166 -238c0 -110 42 -163 124 -163c43 0 98 13 140 35
l13 -8l-29 -131c-52 -21 -95 -29 -145 -29c-177 0 -273 98 -273 270c0 246 126 394 351 394z" />
    <glyph glyph-name="ccircumflex" unicode="&#x109;" horiz-adv-x="363" 
d="M127 527l-30 59c50 40 105 91 163 144h31c38 -47 86 -98 132 -144l-45 -59h-15c-38 31 -74 61 -100 88c-32 -27 -75 -57 -121 -88h-15zM365 451l4 -15l-41 -108l-31 -1c-22 27 -35 38 -59 38c-55 0 -82 -57 -82 -163c0 -63 13 -88 43 -88c22 0 43 14 74 70l19 -1l46 -58
c-43 -74 -87 -110 -156 -134h-20c-104 16 -144 72 -144 183c0 159 81 302 266 302z" />
    <glyph glyph-name="Cdotaccent" unicode="&#x10a;" horiz-adv-x="511" 
d="M364 886c48 0 76 -29 76 -78c0 -52 -32 -85 -82 -85s-77 29 -77 78c0 52 32 85 83 85zM383 654c62 0 122 -13 167 -34l-44 -130l-12 -6c-34 25 -80 40 -126 40c-114 0 -166 -80 -166 -238c0 -110 42 -163 124 -163c43 0 98 13 140 35l13 -8l-29 -131
c-52 -21 -95 -29 -145 -29c-177 0 -273 98 -273 270c0 246 126 394 351 394z" />
    <glyph glyph-name="cdotaccent" unicode="&#x10b;" horiz-adv-x="363" 
d="M264 708c48 0 76 -29 76 -78c0 -52 -32 -85 -82 -85s-77 29 -77 78c0 52 32 85 83 85zM365 451l4 -15l-41 -108l-31 -1c-22 27 -35 38 -59 38c-55 0 -82 -57 -82 -163c0 -63 13 -88 43 -88c22 0 43 14 74 70l19 -1l46 -58c-43 -74 -87 -110 -156 -134h-20
c-104 16 -144 72 -144 183c0 159 81 302 266 302z" />
    <glyph glyph-name="Ccaron" unicode="&#x10c;" horiz-adv-x="511" 
d="M495 887l20 -61c-54 -35 -103 -71 -147 -109h-30c-39 38 -85 74 -134 109l36 61h15c34 -20 68 -41 102 -62c40 21 82 42 123 62h15zM383 654c62 0 122 -13 167 -34l-44 -130l-12 -6c-34 25 -80 40 -126 40c-114 0 -166 -80 -166 -238c0 -110 42 -163 124 -163
c43 0 98 13 140 35l13 -8l-29 -131c-52 -21 -95 -29 -145 -29c-177 0 -273 98 -273 270c0 246 126 394 351 394z" />
    <glyph glyph-name="ccaron" unicode="&#x10d;" horiz-adv-x="363" 
d="M393 727l30 -58c-49 -40 -104 -91 -162 -144h-31c-38 47 -87 98 -133 144l45 58h15c38 -31 72 -60 98 -87c33 27 77 56 122 87h16zM365 451l4 -15l-41 -108l-31 -1c-22 27 -35 38 -59 38c-55 0 -82 -57 -82 -163c0 -63 13 -88 43 -88c22 0 43 14 74 70l19 -1l46 -58
c-43 -74 -87 -110 -156 -134h-20c-104 16 -144 72 -144 183c0 159 81 302 266 302z" />
    <glyph glyph-name="Dcaron" unicode="&#x10e;" horiz-adv-x="651" 
d="M371 717h-30c-39 38 -85 74 -134 109l36 61h15c34 -20 68 -41 102 -62c40 21 82 42 123 62h15l20 -61c-54 -35 -103 -71 -147 -109zM123 645l259 4c165 0 262 -91 262 -253c0 -250 -128 -404 -365 -404c-55 0 -167 4 -236 8h-1l32 191l48 454h1zM314 113
c100 0 161 76 161 259c0 107 -36 152 -114 152c-19 0 -64 -2 -96 -5l-46 -313l-7 -85c35 -5 82 -8 102 -8z" />
    <glyph glyph-name="dcaron" unicode="&#x10f;" horiz-adv-x="575" 
d="M332 694l145 10l-80 -590l-4 -108l-145 -10l19 140h-12c-30 -53 -64 -103 -103 -146h-21c-89 28 -116 84 -116 164c0 126 76 275 241 320h7l49 -11l17 124zM640 632l-63 -211l-68 -11l-9 9l21 216l112 7zM171 127c21 0 66 61 121 189l4 31l-64 19c-55 0 -85 -62 -85 -157
c0 -61 12 -82 24 -82z" />
    <glyph glyph-name="Dcroat" unicode="&#x110;" horiz-adv-x="680" 
d="M151 645l259 4c165 0 262 -91 262 -253c0 -250 -128 -404 -365 -404c-55 0 -167 4 -236 8l32 191l8 74h-82l-6 11l13 94h86l28 275h1zM342 113c100 0 161 76 161 259c0 107 -36 152 -114 152c-19 0 -63 -2 -96 -5l-21 -149h103l6 -11l-14 -94h-111l-8 -59l-7 -85
c35 -5 81 -8 101 -8z" />
    <glyph glyph-name="dcroat" unicode="&#x111;" horiz-adv-x="482" 
d="M532 536h-78l-57 -422l-4 -108l-145 -10l19 140h-12c-30 -53 -64 -103 -103 -146h-21c-89 28 -116 84 -116 164c0 126 76 275 241 320h7l49 -11l10 73h-111l-10 10l6 72h123l2 76l145 10l-12 -86h63l10 -10zM171 127c21 0 66 61 121 189l4 31l-64 19
c-55 0 -85 -62 -85 -157c0 -61 12 -82 24 -82z" />
    <glyph glyph-name="Emacron" unicode="&#x112;" horiz-adv-x="514" 
d="M208 753l-9 10l7 86h279l10 -10l-8 -86h-279zM265 520l-19 -132l104 -1l103 3l7 -11l-24 -117l-112 3l-96 -1l-8 -58l-8 -82l106 -1l158 6l7 -12l-24 -117h-417l32 191l48 454h423l7 -12l-25 -117l-153 5z" />
    <glyph glyph-name="emacron" unicode="&#x113;" horiz-adv-x="416" 
d="M120 575l-9 10l7 86h279l10 -10l-8 -86h-279zM400 361c0 -78 -68 -136 -244 -184c5 -54 22 -74 56 -74c37 0 72 26 101 73l18 -3l47 -60c-51 -64 -112 -105 -177 -123h-15c-119 13 -167 77 -167 183c0 175 99 297 258 305l14 -1c66 -13 109 -50 109 -116zM156 262
c79 21 116 47 116 90c0 22 -9 32 -33 32c-46 0 -75 -42 -83 -122z" />
    <glyph glyph-name="Ebreve" unicode="&#x114;" horiz-adv-x="514" 
d="M341 719c-80 0 -136 40 -155 113l40 48h22c16 -35 53 -53 100 -53s86 19 109 53h22l27 -48c-33 -73 -88 -113 -165 -113zM265 520l-19 -132l104 -1l103 3l7 -11l-24 -117l-112 3l-96 -1l-8 -58l-8 -82l106 -1l158 6l7 -12l-24 -117h-417l32 191l48 454h423l7 -12
l-25 -117l-153 5z" />
    <glyph glyph-name="ebreve" unicode="&#x115;" horiz-adv-x="416" 
d="M247 532c-98 0 -139 63 -149 129l39 51h22c12 -47 48 -72 96 -72c49 0 90 25 113 72h22l27 -51c-26 -69 -82 -129 -170 -129zM400 361c0 -78 -68 -136 -244 -184c5 -54 22 -74 56 -74c37 0 72 26 101 73l18 -3l47 -60c-51 -64 -112 -105 -177 -123h-15
c-119 13 -167 77 -167 183c0 175 99 297 258 305l14 -1c66 -13 109 -50 109 -116zM156 262c79 21 116 47 116 90c0 22 -9 32 -33 32c-46 0 -75 -42 -83 -122z" />
    <glyph glyph-name="Edotaccent" unicode="&#x116;" horiz-adv-x="514" 
d="M344 723c-50 0 -77 29 -77 78c0 52 32 85 83 85c48 0 76 -29 76 -78c0 -52 -32 -85 -82 -85zM265 520l-19 -132l104 -1l103 3l7 -11l-24 -117l-112 3l-96 -1l-8 -58l-8 -82l106 -1l158 6l7 -12l-24 -117h-417l32 191l48 454h423l7 -12l-25 -117l-153 5z" />
    <glyph glyph-name="edotaccent" unicode="&#x117;" horiz-adv-x="416" 
d="M256 545c-50 0 -77 29 -77 78c0 52 32 85 83 85c48 0 76 -29 76 -78c0 -52 -32 -85 -82 -85zM331 173l47 -60c-51 -64 -112 -105 -177 -123h-15c-119 13 -167 77 -167 183c0 175 99 297 258 305l14 -1c66 -13 109 -50 109 -116c0 -78 -68 -136 -244 -184
c5 -54 22 -74 56 -74c37 0 72 26 101 73zM239 384c-46 0 -75 -42 -83 -122c79 21 116 47 116 90c0 22 -9 32 -33 32z" />
    <glyph glyph-name="Eogonek" unicode="&#x118;" horiz-adv-x="514" 
d="M265 520l-19 -132l104 -1l103 3l7 -11l-24 -117l-112 3l-96 -1l-8 -58l-8 -82l106 -1l158 6l7 -12l-24 -117h-68l-22 -33c-10 -16 -16 -31 -16 -45c0 -21 12 -36 37 -36c20 0 42 10 64 26h8l11 -61c-38 -33 -70 -48 -106 -48c-59 0 -95 40 -95 91c0 27 9 56 30 85l15 21
h-275l32 191l48 454h423l7 -12l-25 -117l-153 5z" />
    <glyph glyph-name="eogonek" unicode="&#x119;" horiz-adv-x="416" 
d="M287 29l-41 -62c-10 -16 -16 -31 -16 -45c0 -21 12 -36 37 -36c20 0 42 10 64 26h8l11 -61c-38 -33 -70 -48 -106 -48c-59 0 -95 40 -95 91c0 27 9 56 30 85l7 11c-119 13 -167 77 -167 183c0 175 99 297 258 305l14 -1c66 -13 109 -50 109 -116
c0 -78 -68 -136 -244 -184c5 -54 22 -74 56 -74c37 0 72 26 101 73l18 -3l47 -60c-28 -35 -58 -63 -91 -84zM239 384c-46 0 -75 -42 -83 -122c79 21 116 47 116 90c0 22 -9 32 -33 32z" />
    <glyph glyph-name="Ecaron" unicode="&#x11a;" horiz-adv-x="514" 
d="M354 717h-30c-39 38 -85 74 -134 109l36 61h15c34 -20 68 -41 102 -62c40 21 82 42 123 62h15l20 -61c-54 -35 -103 -71 -147 -109zM265 520l-19 -132l104 -1l103 3l7 -11l-24 -117l-112 3l-96 -1l-8 -58l-8 -82l106 -1l158 6l7 -12l-24 -117h-417l32 191l48 454h423
l7 -12l-25 -117l-153 5z" />
    <glyph glyph-name="ecaron" unicode="&#x11b;" horiz-adv-x="416" 
d="M260 525h-31c-38 47 -87 98 -133 144l45 58h15c38 -31 72 -60 98 -87c33 27 77 56 122 87h16l30 -58c-49 -40 -104 -91 -162 -144zM400 361c0 -78 -68 -136 -244 -184c5 -54 22 -74 56 -74c37 0 72 26 101 73l18 -3l47 -60c-51 -64 -112 -105 -177 -123h-15
c-119 13 -167 77 -167 183c0 175 99 297 258 305l14 -1c66 -13 109 -50 109 -116zM156 262c79 21 116 47 116 90c0 22 -9 32 -33 32c-46 0 -75 -42 -83 -122z" />
    <glyph glyph-name="Gcircumflex" unicode="&#x11c;" horiz-adv-x="590" 
d="M252 725l-21 61c54 36 103 72 148 109h30c39 -37 84 -73 133 -109l-35 -61h-15l-103 62c-39 -21 -82 -41 -122 -62h-15zM410 654c68 0 137 -12 190 -35l-52 -143h-14c-58 34 -100 50 -159 50c-113 0 -178 -62 -178 -268c0 -106 39 -146 130 -146c22 0 38 4 65 11l7 47
l10 103l147 10l-13 -87l-19 -164c-79 -29 -144 -42 -216 -42c-181 0 -277 98 -277 264c0 256 134 400 379 400z" />
    <glyph glyph-name="gcircumflex" unicode="&#x11d;" horiz-adv-x="468" 
d="M156 527l-30 59c50 40 105 91 163 144h31c38 -47 86 -98 132 -144l-45 -59h-15c-38 31 -74 61 -100 88c-32 -27 -75 -57 -121 -88h-15zM432 478l11 -7l-47 -347l-5 -78c-21 -158 -131 -243 -258 -243c-113 0 -172 67 -186 158l4 11l135 64l1 10c-39 30 -53 74 -53 129
c0 129 76 258 228 299h5l83 -19zM303 354l-63 19c-55 0 -83 -59 -83 -149c0 -60 12 -80 24 -80c19 0 65 62 119 186zM160 -95c49 0 88 32 96 100l21 151h-14c-30 -54 -66 -100 -106 -137l-48 -38c-11 -9 -14 -16 -14 -25c0 -24 21 -51 65 -51z" />
    <glyph glyph-name="Gbreve" unicode="&#x11e;" horiz-adv-x="590" 
d="M519 880l27 -48c-33 -73 -88 -113 -165 -113c-80 0 -136 40 -155 113l40 48h22c16 -35 53 -53 100 -53s86 19 109 53h22zM410 654c68 0 137 -12 190 -35l-52 -143h-14c-58 34 -100 50 -159 50c-113 0 -178 -62 -178 -268c0 -106 39 -146 130 -146c22 0 38 4 65 11l7 47
l10 103l147 10l-13 -87l-19 -164c-79 -29 -144 -42 -216 -42c-181 0 -277 98 -277 264c0 256 134 400 379 400z" />
    <glyph glyph-name="gbreve" unicode="&#x11f;" horiz-adv-x="468" 
d="M277 532c-98 0 -139 63 -149 129l39 51h22c12 -47 48 -72 96 -72c49 0 90 25 113 72h22l27 -51c-26 -69 -82 -129 -170 -129zM432 478l11 -7l-47 -347l-5 -78c-21 -158 -131 -243 -258 -243c-113 0 -172 67 -186 158l4 11l135 64l1 10c-39 30 -53 74 -53 129
c0 129 76 258 228 299h5l83 -19zM303 354l-63 19c-55 0 -83 -59 -83 -149c0 -60 12 -80 24 -80c19 0 65 62 119 186zM160 -95c49 0 88 32 96 100l21 151h-14c-30 -54 -66 -100 -106 -137l-48 -38c-11 -9 -14 -16 -14 -25c0 -24 21 -51 65 -51z" />
    <glyph glyph-name="Gdotaccent" unicode="&#x120;" horiz-adv-x="590" 
d="M390 886c48 0 76 -29 76 -78c0 -52 -32 -85 -82 -85s-77 29 -77 78c0 52 32 85 83 85zM410 654c68 0 137 -12 190 -35l-52 -143h-14c-58 34 -100 50 -159 50c-113 0 -178 -62 -178 -268c0 -106 39 -146 130 -146c22 0 38 4 65 11l7 47l10 103l147 10l-13 -87l-19 -164
c-79 -29 -144 -42 -216 -42c-181 0 -277 98 -277 264c0 256 134 400 379 400z" />
    <glyph glyph-name="gdotaccent" unicode="&#x121;" horiz-adv-x="468" 
d="M286 545c-50 0 -77 29 -77 78c0 52 32 85 83 85c48 0 76 -29 76 -78c0 -52 -32 -85 -82 -85zM443 471l-47 -347l-5 -78c-21 -158 -131 -243 -258 -243c-113 0 -172 67 -186 158l4 11l135 64l1 10c-39 30 -53 74 -53 129c0 129 76 258 228 299h5l83 -19l82 23zM303 354
l-63 19c-55 0 -83 -59 -83 -149c0 -60 12 -80 24 -80c19 0 65 62 119 186zM160 -95c49 0 88 32 96 100l21 151h-14c-30 -54 -66 -100 -106 -137l-48 -38c-11 -9 -14 -16 -14 -25c0 -24 21 -51 65 -51z" />
    <glyph glyph-name="Gcommaaccent" unicode="&#x122;" horiz-adv-x="590" 
d="M410 654c68 0 137 -12 190 -35l-52 -143h-14c-58 34 -100 50 -159 50c-113 0 -178 -62 -178 -268c0 -106 39 -146 130 -146c22 0 38 4 65 11l7 47l10 103l147 10l-13 -87l-19 -164c-79 -29 -144 -42 -216 -42c-181 0 -277 98 -277 264c0 256 134 400 379 400zM337 -41
c26 -23 40 -49 40 -81c0 -58 -37 -111 -116 -166l-43 38l-1 10c33 27 49 56 49 89c0 22 -9 40 -28 58v11c31 18 63 32 99 41z" />
    <glyph glyph-name="gcommaaccent" unicode="&#x123;" horiz-adv-x="468" 
d="M294 517c-37 22 -53 51 -53 94c0 53 30 106 92 164l49 -32l2 -9c-25 -28 -37 -54 -37 -80c0 -31 10 -53 38 -71v-12c-27 -21 -58 -40 -91 -54zM443 471l-47 -347l-5 -78c-21 -158 -131 -243 -258 -243c-113 0 -172 67 -186 158l4 11l135 64l1 10c-39 30 -53 74 -53 129
c0 129 76 258 228 299h5l83 -19l82 23zM303 354l-63 19c-55 0 -83 -59 -83 -149c0 -60 12 -80 24 -80c19 0 65 62 119 186zM160 -95c49 0 88 32 96 100l21 151h-14c-30 -54 -66 -100 -106 -137l-48 -38c-11 -9 -14 -16 -14 -25c0 -24 21 -51 65 -51z" />
    <glyph glyph-name="Hcircumflex" unicode="&#x124;" horiz-adv-x="692" 
d="M282 725l-21 61c54 36 103 72 148 109h30c39 -37 84 -73 133 -109l-35 -61h-15l-103 62c-39 -21 -82 -41 -122 -62h-15zM671 645l-63 -439l-19 -206h-159l32 191l7 66l-128 2l-114 -3l-7 -50l-19 -206h-159l32 191l48 454h161l-37 -257l121 -3l116 2l27 258h161z" />
    <glyph glyph-name="hcircumflex" unicode="&#x125;" horiz-adv-x="508" 
d="M61 780l-21 61c54 36 103 72 148 109h30c39 -37 84 -73 133 -109l-35 -61h-15l-103 62c-39 -21 -82 -41 -122 -62h-15zM347 470l12 1c71 -13 117 -50 116 -103l-1 -13l-39 -240l-4 -109l-148 -10l47 290l1 11c0 16 -5 23 -17 23c-26 0 -74 -51 -134 -165l-6 -41l-4 -108
l-145 -10l82 591l2 107l145 10l-53 -394h13c47 70 87 119 133 160z" />
    <glyph glyph-name="Hbar" unicode="&#x126;" horiz-adv-x="723" 
d="M733 474h-71l-38 -268l-20 -206h-158l32 191l7 66l-129 2l-114 -3l-7 -50l-19 -206h-159l32 191l30 283h-58l-6 8l5 78h68l9 85h161l-12 -85h230l9 85h162l-12 -85h56l7 -9zM507 474h-234l-12 -86l120 -3l117 2z" />
    <glyph glyph-name="hbar" unicode="&#x127;" horiz-adv-x="551" 
d="M387 470l12 1c71 -13 117 -50 116 -103l-1 -13l-39 -240l-4 -109l-148 -10l47 290l1 11c0 16 -5 23 -17 23c-26 0 -75 -52 -136 -167l-5 -39l-3 -108l-145 -10l75 540h-68l-10 10l6 72h80l1 76l145 10l-12 -86h107l10 -10l-6 -72h-122l-31 -226h15c46 70 86 119 132 160z
" />
    <glyph glyph-name="Imacron" unicode="&#x12a;" horiz-adv-x="304" 
d="M343 839l-7 -86h-230l-10 10l8 86h229zM220 206l-19 -206h-159l32 191l48 454h161z" />
    <glyph glyph-name="imacron" unicode="&#x12b;" horiz-adv-x="245" 
d="M291 661l-7 -86h-230l-10 10l8 86h229zM173 114l-5 -108l-144 -10l49 358l4 108l143 10z" />
    <glyph glyph-name="Ibreve" unicode="&#x12c;" horiz-adv-x="304" 
d="M353 880l27 -48c-33 -73 -88 -113 -165 -113c-80 0 -136 40 -155 113l40 48h22c16 -35 53 -53 100 -53s86 19 109 53h22zM220 206l-19 -206h-159l32 191l48 454h161z" />
    <glyph glyph-name="ibreve" unicode="&#x12d;" horiz-adv-x="245" 
d="M300 712l27 -51c-26 -69 -82 -129 -170 -129c-98 0 -139 63 -149 129l39 51h22c12 -47 48 -72 96 -72c49 0 90 25 113 72h22zM173 114l-5 -108l-144 -10l49 358l4 108l143 10z" />
    <glyph glyph-name="Iogonek" unicode="&#x12e;" horiz-adv-x="305" 
d="M283 645l-63 -439l-19 -206h-82c-34 -43 -43 -66 -43 -84s11 -30 33 -30c18 0 42 9 62 27h8l13 -62c-37 -32 -69 -48 -105 -48c-56 0 -92 38 -92 90c0 31 11 59 47 109l32 189l48 454h161z" />
    <glyph glyph-name="iogonek" unicode="&#x12f;" horiz-adv-x="245" 
d="M172 708c48 0 76 -29 76 -78c0 -52 -32 -85 -82 -85s-77 29 -77 78c0 52 32 85 83 85zM168 6l-62 -4c-35 -45 -44 -68 -44 -86s11 -30 33 -30c18 0 42 9 62 27h8l13 -62c-37 -32 -69 -48 -105 -48c-56 0 -92 38 -92 90c0 30 10 57 43 103l49 358l4 108l143 10l-47 -358z
" />
    <glyph glyph-name="Idotaccent" unicode="&#x130;" horiz-adv-x="304" 
d="M224 886c48 0 76 -29 76 -78c0 -52 -32 -85 -82 -85s-77 29 -77 78c0 52 32 85 83 85zM220 206l-19 -206h-159l32 191l48 454h161z" />
    <glyph glyph-name="dotlessi" unicode="&#x131;" horiz-adv-x="245" 
d="M173 114l-4 -108l-145 -10l49 358l4 108l144 10z" />
    <glyph glyph-name="IJ" unicode="&#x132;" horiz-adv-x="646" 
d="M283 645l-63 -439l-19 -206h-159l32 191l48 454h161zM621 645l-63 -432l-8 -91c-16 -115 -73 -177 -233 -230l-35 83l1 13c80 39 112 74 120 138l9 71l36 333l-95 -2l-9 11l20 106h257z" />
    <glyph glyph-name="ij" unicode="&#x133;" horiz-adv-x="513" 
d="M172 708c48 0 76 -29 76 -78c0 -52 -32 -85 -82 -85s-77 29 -77 78c0 52 32 85 83 85zM424 708c48 0 76 -29 76 -78c0 -52 -32 -85 -82 -85s-77 29 -77 78c0 52 32 85 83 85zM173 114l-5 -108l-144 -10l49 358l4 108l143 10zM485 467l-49 -352l-9 -86
c-13 -106 -68 -171 -186 -224l-46 65l2 14c57 31 85 70 95 138l44 329v23h-67l-6 9l10 75h72l136 13z" />
    <glyph glyph-name="Jcircumflex" unicode="&#x134;" horiz-adv-x="342" 
d="M211 895h30c39 -37 84 -73 133 -109l-35 -61h-15l-103 62c-39 -21 -82 -41 -122 -62h-15l-21 61c54 36 103 72 148 109zM318 645l-64 -432l-8 -91c-16 -115 -73 -177 -233 -230l-35 83l2 13c79 39 111 74 120 138l9 71l35 333l-95 -2l-9 11l20 106h258z" />
    <glyph glyph-name="jcircumflex" unicode="&#x135;" horiz-adv-x="268" 
d="M43 527l-30 59c50 40 105 91 163 144h31c38 -47 86 -98 132 -144l-45 -59h-15c-38 31 -74 61 -100 88c-32 -27 -75 -57 -121 -88h-15zM241 467l-50 -352l-8 -86c-13 -106 -68 -171 -186 -224l-46 65l2 14c56 31 85 70 94 138l45 329v23h-67l-7 9l11 75h71l137 13z" />
    <glyph glyph-name="Kcommaaccent" unicode="&#x136;" horiz-adv-x="593" 
d="M637 645l-247 -312c57 -103 122 -203 190 -300l-5 -17c-54 -13 -106 -22 -160 -27l-16 10c-57 105 -112 210 -164 320l-16 -113l-19 -206h-159l33 191l47 454h161l-42 -291l183 226l44 65h170zM319 -41c26 -23 40 -49 40 -81c0 -58 -37 -111 -116 -166l-43 38l-1 10
c33 27 49 56 49 89c0 22 -9 40 -28 58v11c31 18 63 32 99 41z" />
    <glyph glyph-name="kcommaaccent" unicode="&#x137;" horiz-adv-x="515" 
d="M489 354c0 -68 -48 -126 -118 -173c28 -56 59 -112 91 -165l-7 -11l-122 -17l-13 7c-28 58 -54 118 -76 178l5 19c58 36 95 77 95 109c0 15 -8 21 -18 21c-29 0 -82 -49 -148 -171l-5 -37l-3 -108l-145 -10l82 591l2 107l145 10l-54 -391h15c48 64 94 117 144 157l13 1
c69 -13 117 -49 117 -117zM268 -41c26 -23 40 -49 40 -81c0 -58 -37 -111 -116 -166l-43 38l-1 10c33 27 49 56 49 89c0 22 -9 40 -28 58v11c31 18 63 32 99 41z" />
    <glyph glyph-name="kgreenlandic" unicode="&#x138;" horiz-adv-x="514" 
d="M490 354c0 -68 -50 -126 -120 -173c28 -56 60 -112 93 -165l-7 -11l-121 -17l-15 7c-28 58 -54 118 -77 178l5 19c58 36 97 77 97 109c0 15 -9 21 -19 21c-30 0 -82 -47 -147 -165l-6 -43l-5 -108l-144 -10l49 358l4 108l143 10l-21 -161h13c49 65 96 119 147 159l13 1
c70 -13 118 -49 118 -117z" />
    <glyph glyph-name="Lacute" unicode="&#x139;" horiz-adv-x="434" 
d="M111 719l-24 64c76 39 143 75 213 117l14 -4l40 -92l-5 -14c-80 -29 -151 -52 -223 -75zM419 119l-25 -119h-356l32 191l48 454h161l-63 -439l-7 -75h203z" />
    <glyph glyph-name="lacute" unicode="&#x13a;" horiz-adv-x="247" 
d="M297 951l40 -92l-5 -14c-80 -29 -151 -52 -223 -75l-15 4l-24 64c76 39 143 75 213 117zM173 114l-3 -108l-145 -10l82 591l2 107l145 10z" />
    <glyph glyph-name="Lcommaaccent" unicode="&#x13b;" horiz-adv-x="434" 
d="M419 119l-25 -119h-356l32 191l48 454h161l-63 -439l-7 -75h203zM226 -41c26 -23 40 -49 40 -81c0 -58 -37 -111 -116 -166l-43 38l-1 10c33 27 49 56 49 89c0 22 -9 40 -28 58v11c31 18 63 32 99 41z" />
    <glyph glyph-name="lcommaaccent" unicode="&#x13c;" horiz-adv-x="247" 
d="M173 114l-3 -108l-145 -10l82 591l2 107l145 10zM115 -41c26 -23 40 -49 40 -81c0 -58 -37 -111 -116 -166l-43 38l-1 10c33 27 49 56 49 89c0 22 -9 40 -28 58v11c31 18 63 32 99 41z" />
    <glyph glyph-name="Lcaron" unicode="&#x13d;" horiz-adv-x="457" 
d="M412 131l7 -12l-25 -119h-356l32 191l48 454h161l-63 -439l-7 -75h203zM496 585l-62 -211l-69 -11l-9 9l22 216l111 6z" />
    <glyph glyph-name="lcaron" unicode="&#x13e;" horiz-adv-x="331" 
d="M173 114l-3 -108l-145 -10l82 591l2 107l145 10zM404 632l-63 -212l-68 -10l-9 8l21 217l112 6z" />
    <glyph glyph-name="Ldot" unicode="&#x13f;" horiz-adv-x="467" 
d="M418 131l7 -12l-24 -119h-357l32 191l48 454h161l-62 -439l-7 -75h202zM396 475c49 0 76 -29 76 -78c0 -52 -31 -85 -82 -85c-49 0 -77 29 -77 78c0 52 32 85 83 85z" />
    <glyph glyph-name="ldot" unicode="&#x140;" horiz-adv-x="344" 
d="M173 114l-3 -108l-145 -10l82 591l2 107l145 10zM306 386c49 0 76 -29 76 -78c0 -52 -31 -85 -82 -85c-49 0 -77 29 -77 78c0 52 32 85 83 85z" />
    <glyph glyph-name="Lslash" unicode="&#x141;" horiz-adv-x="442" 
d="M426 119l-24 -119h-356l32 191l4 39l-58 -28l-12 8l-17 92l100 48l30 295h161l-31 -216l93 45l13 -7l18 -91l-141 -69l-14 -101l-7 -75h202z" />
    <glyph glyph-name="lslash" unicode="&#x142;" horiz-adv-x="306" 
d="M228 331l-30 -217l-3 -108l-145 -10l39 283l-61 -29l-7 2l-20 88l104 50l27 197l2 107l146 10l-36 -261l64 31l7 -4l20 -87z" />
    <glyph glyph-name="Nacute" unicode="&#x143;" horiz-adv-x="691" 
d="M516 896l40 -92l-5 -14c-80 -29 -151 -52 -223 -75l-15 4l-24 64c76 39 143 75 213 117zM608 203l-19 -203h-171l-176 404h-10l-23 -178l-22 -226h-145l32 190l48 455h171l177 -404h10l45 398l147 9z" />
    <glyph glyph-name="nacute" unicode="&#x144;" horiz-adv-x="506" 
d="M211 521l-37 58c68 53 128 102 188 156l15 -1l55 -84l-3 -15c-73 -42 -137 -79 -204 -115zM345 470l12 1c64 -13 117 -50 116 -103l-1 -13l-39 -240l-4 -109l-148 -10l47 290l1 11c0 16 -5 23 -17 23c-26 0 -73 -50 -133 -163l-6 -43l-4 -108l-145 -10l49 358l4 108
l144 10l-22 -162h13c47 70 87 119 133 160z" />
    <glyph glyph-name="Ncommaaccent" unicode="&#x145;" horiz-adv-x="691" 
d="M608 203l-19 -203h-171l-176 404h-10l-23 -178l-22 -226h-145l32 190l48 455h171l177 -404h10l45 398l147 9zM336 -41c26 -23 40 -49 40 -81c0 -58 -37 -111 -116 -166l-43 38l-1 10c33 27 49 56 49 89c0 22 -9 40 -28 58v11c31 18 63 32 99 41z" />
    <glyph glyph-name="ncommaaccent" unicode="&#x146;" horiz-adv-x="506" 
d="M345 470l12 1c64 -13 117 -50 116 -103l-1 -13l-39 -240l-4 -109l-148 -10l47 290l1 11c0 16 -5 23 -17 23c-26 0 -73 -50 -133 -163l-6 -43l-4 -108l-145 -10l49 358l4 108l144 10l-22 -162h13c47 70 87 119 133 160zM243 -41c26 -23 40 -49 40 -81
c0 -58 -37 -111 -116 -166l-43 38l-1 10c33 27 49 56 49 89c0 22 -9 40 -28 58v11c31 18 63 32 99 41z" />
    <glyph glyph-name="Ncaron" unicode="&#x147;" horiz-adv-x="691" 
d="M551 887l20 -61c-54 -35 -103 -71 -147 -109h-30c-39 38 -85 74 -134 109l36 61h15c34 -20 68 -41 102 -62c40 21 82 42 123 62h15zM608 203l-19 -203h-171l-176 404h-10l-23 -178l-22 -226h-145l32 190l48 455h171l177 -404h10l45 398l147 9z" />
    <glyph glyph-name="ncaron" unicode="&#x148;" horiz-adv-x="506" 
d="M303 525h-31c-38 47 -87 98 -133 144l45 58h15c38 -31 72 -60 98 -87c33 27 77 56 122 87h16l30 -58c-49 -40 -104 -91 -162 -144zM345 470l12 1c64 -13 117 -50 116 -103l-1 -13l-39 -240l-4 -109l-148 -10l47 290l1 11c0 16 -5 23 -17 23c-26 0 -73 -50 -133 -163
l-6 -43l-4 -108l-145 -10l49 358l4 108l144 10l-22 -162h13c47 70 87 119 133 160z" />
    <glyph glyph-name="Eng" unicode="&#x14a;" horiz-adv-x="697" 
d="M609 203l-13 -148c-14 -115 -73 -176 -233 -230l-35 83l1 14c51 25 83 48 102 78l-189 404h-11l-22 -178l-22 -226h-145l33 190l48 455h171l179 -391h10l43 385l147 9z" />
    <glyph glyph-name="eng" unicode="&#x14b;" horiz-adv-x="517" 
d="M346 470l12 1c63 -13 116 -50 115 -103l-1 -13l-40 -241l-11 -86c-15 -106 -70 -172 -185 -224l-43 65l1 14c54 30 82 70 92 138l42 262l1 11c0 19 -6 26 -17 26c-25 0 -72 -50 -132 -165l-6 -41l-4 -108l-145 -10l49 358l4 108l144 10l-22 -162h13c46 70 86 119 133 160
z" />
    <glyph glyph-name="Omacron" unicode="&#x14c;" horiz-adv-x="642" 
d="M539 839l-8 -86h-279l-9 10l7 86h279zM373 655c162 0 260 -90 260 -275c0 -231 -121 -391 -342 -391c-161 0 -259 93 -259 279c0 231 121 387 341 387zM355 527c-100 0 -158 -62 -158 -258c0 -114 28 -160 110 -160c98 0 158 63 158 260c0 113 -28 158 -110 158z" />
    <glyph glyph-name="omacron" unicode="&#x14d;" horiz-adv-x="449" 
d="M427 661l-8 -86h-279l-9 10l7 86h279zM279 478l14 -1c83 -18 136 -72 136 -172c0 -189 -98 -306 -258 -316l-14 2c-86 19 -137 74 -137 181c0 178 99 297 259 306zM251 366c-73 0 -94 -65 -94 -197c0 -52 10 -71 41 -71c71 0 92 66 92 198c0 52 -10 70 -39 70z" />
    <glyph glyph-name="Obreve" unicode="&#x14e;" horiz-adv-x="642" 
d="M523 880l27 -48c-33 -73 -88 -113 -165 -113c-80 0 -136 40 -155 113l40 48h22c16 -35 53 -53 100 -53s86 19 109 53h22zM373 655c162 0 260 -90 260 -275c0 -231 -121 -391 -342 -391c-161 0 -259 93 -259 279c0 231 121 387 341 387zM355 527
c-100 0 -158 -62 -158 -258c0 -114 28 -160 110 -160c98 0 158 63 158 260c0 113 -28 158 -110 158z" />
    <glyph glyph-name="obreve" unicode="&#x14f;" horiz-adv-x="449" 
d="M410 712l27 -51c-26 -69 -82 -129 -170 -129c-98 0 -139 63 -149 129l39 51h22c12 -47 48 -72 96 -72c49 0 90 25 113 72h22zM279 478l14 -1c83 -18 136 -72 136 -172c0 -189 -98 -306 -258 -316l-14 2c-86 19 -137 74 -137 181c0 178 99 297 259 306zM251 366
c-73 0 -94 -65 -94 -197c0 -52 10 -71 41 -71c71 0 92 66 92 198c0 52 -10 70 -39 70z" />
    <glyph glyph-name="Ohungarumlaut" unicode="&#x150;" horiz-adv-x="642" 
d="M265 714l-48 38c36 46 71 92 103 140l12 2l71 -46l2 -12c-41 -41 -83 -80 -126 -118zM425 714l-48 38c35 46 70 92 103 140l11 2l72 -46l2 -12c-41 -41 -84 -80 -127 -118zM373 655c162 0 260 -90 260 -275c0 -231 -121 -391 -342 -391c-161 0 -259 93 -259 279
c0 231 121 387 341 387zM355 527c-100 0 -158 -62 -158 -258c0 -114 28 -160 110 -160c98 0 158 63 158 260c0 113 -28 158 -110 158z" />
    <glyph glyph-name="ohungarumlaut" unicode="&#x151;" horiz-adv-x="449" 
d="M170 521l-47 38c41 59 81 118 120 179l11 2l71 -50l2 -12c-47 -53 -96 -104 -145 -154zM327 521l-47 38c41 59 81 118 120 179l11 2l71 -50l2 -12c-47 -53 -96 -104 -145 -154zM279 478l14 -1c83 -18 136 -72 136 -172c0 -189 -98 -306 -258 -316l-14 2
c-86 19 -137 74 -137 181c0 178 99 297 259 306zM251 366c-73 0 -94 -65 -94 -197c0 -52 10 -71 41 -71c71 0 92 66 92 198c0 52 -10 70 -39 70z" />
    <glyph glyph-name="OE" unicode="&#x152;" horiz-adv-x="864" 
d="M399 657c72 0 129 -12 186 -12h308l9 -12l-26 -117l-151 5h-111l-18 -133l102 -1l106 3l7 -11l-25 -117l-114 3l-96 -1l-6 -59l-8 -81l102 -1l162 6l7 -12l-24 -117h-303c-62 2 -137 -12 -213 -12c-168 0 -262 101 -262 274c0 245 142 395 368 395zM369 529
c-112 0 -171 -67 -171 -264c0 -108 37 -157 124 -157c35 0 63 5 75 13c14 8 21 22 23 47l33 301c2 26 1 39 -7 45c-10 9 -37 15 -77 15z" />
    <glyph glyph-name="oe" unicode="&#x153;" horiz-adv-x="683" 
d="M608 173l47 -60c-51 -64 -113 -105 -177 -123h-15c-62 7 -102 33 -125 73c-41 -44 -97 -70 -163 -74l-14 2c-87 19 -139 74 -139 181c0 178 100 297 261 306l13 -1c46 -9 79 -31 99 -65c41 39 95 63 159 66l13 -1c67 -13 110 -50 110 -116c0 -78 -68 -136 -245 -184
c5 -54 22 -74 56 -74c38 0 74 26 102 73zM516 384c-46 0 -76 -42 -84 -122c80 21 117 47 117 90c0 22 -9 32 -33 32zM202 97c72 0 94 66 94 200c0 52 -11 70 -41 70c-74 0 -96 -65 -96 -198c0 -53 12 -72 43 -72z" />
    <glyph glyph-name="Racute" unicode="&#x154;" horiz-adv-x="596" 
d="M277 699l-37 58c68 53 128 102 188 156l15 -1l55 -84l-3 -15c-73 -42 -137 -79 -204 -115zM579 479c0 -95 -52 -176 -138 -226c37 -73 76 -145 120 -216l-4 -17c-53 -17 -107 -27 -161 -31l-14 13c-27 68 -54 137 -78 207h-84v-3l-19 -206h-159l32 191l48 454l257 1
c123 0 200 -60 200 -167zM238 328l86 -4c60 22 86 64 86 129c0 52 -29 76 -89 79l-55 -3z" />
    <glyph glyph-name="racute" unicode="&#x155;" horiz-adv-x="366" 
d="M385 650l-3 -15c-73 -42 -137 -79 -204 -115l-14 1l-37 58c68 53 128 102 188 156l15 -1zM201 317h14c38 64 79 112 139 154l28 -4l-24 -180l-13 -6l-25 5c-51 -5 -86 -29 -138 -114l-8 -58l-4 -108l-145 -10l49 358l4 108l144 10z" />
    <glyph glyph-name="Rcommaaccent" unicode="&#x156;" horiz-adv-x="596" 
d="M579 479c0 -95 -52 -176 -138 -226c37 -73 76 -145 120 -216l-4 -17c-53 -17 -107 -27 -161 -31l-14 13c-27 68 -54 137 -78 207h-84v-3l-19 -206h-159l32 191l48 454l257 1c123 0 200 -60 200 -167zM238 328l86 -4c60 22 86 64 86 129c0 52 -29 76 -89 79l-55 -3z
M288 -41c26 -23 40 -49 40 -81c0 -58 -37 -111 -116 -166l-43 38l-1 10c33 27 49 56 49 89c0 22 -9 40 -28 58v11c31 18 63 32 99 41z" />
    <glyph glyph-name="rcommaaccent" unicode="&#x157;" horiz-adv-x="366" 
d="M382 467l-24 -180l-13 -6l-25 5c-51 -5 -86 -29 -138 -114l-8 -58l-4 -108l-145 -10l49 358l4 108l144 10l-21 -155h14c38 64 79 112 139 154zM133 -41c26 -23 40 -49 40 -81c0 -58 -37 -111 -116 -166l-43 38l-1 10c33 27 49 56 49 89c0 22 -9 40 -28 58v11
c31 18 63 32 99 41z" />
    <glyph glyph-name="Rcaron" unicode="&#x158;" horiz-adv-x="596" 
d="M370 703h-31c-38 47 -87 98 -133 144l45 58h15c38 -31 72 -60 98 -87c33 27 77 56 122 87h16l30 -58c-49 -40 -104 -91 -162 -144zM579 479c0 -95 -52 -176 -138 -226c37 -73 76 -145 120 -216l-4 -17c-53 -17 -107 -27 -161 -31l-14 13c-27 68 -54 137 -78 207h-84v-3
l-19 -206h-159l32 191l48 454l257 1c123 0 200 -60 200 -167zM238 328l86 -4c60 22 86 64 86 129c0 52 -29 76 -89 79l-55 -3z" />
    <glyph glyph-name="rcaron" unicode="&#x159;" horiz-adv-x="366" 
d="M256 525h-31c-38 47 -87 98 -133 144l45 58h15c38 -31 72 -60 98 -87c33 27 77 56 122 87h16l30 -58c-49 -40 -104 -91 -162 -144zM201 317h14c38 64 79 112 139 154l28 -4l-24 -180l-13 -6l-25 5c-51 -5 -86 -29 -138 -114l-8 -58l-4 -108l-145 -10l49 358l4 108l144 10
z" />
    <glyph glyph-name="Sacute" unicode="&#x15a;" horiz-adv-x="502" 
d="M399 912l55 -84l-3 -15c-73 -42 -137 -79 -204 -115l-14 1l-37 58c68 53 128 102 188 156zM333 655c47 0 109 -9 170 -34l-40 -133l-24 -10c-46 34 -97 53 -134 53c-48 0 -78 -27 -78 -58c0 -87 244 -93 244 -266c0 -119 -110 -217 -270 -217c-63 0 -133 14 -197 40
l39 143l17 9c53 -49 122 -73 168 -73c54 0 81 29 81 60c0 93 -241 92 -241 267c0 123 112 219 265 219z" />
    <glyph glyph-name="sacute" unicode="&#x15b;" horiz-adv-x="362" 
d="M314 734l55 -84l-3 -15c-73 -42 -137 -79 -204 -115l-14 1l-37 58c68 53 128 102 188 156zM250 475c38 -5 73 -13 109 -25l-35 -116l-19 -7c-34 35 -72 53 -98 53c-23 0 -39 -17 -39 -36c0 -55 158 -66 158 -190c0 -95 -90 -164 -209 -164c-44 5 -85 14 -127 29l35 122
l16 8c35 -43 81 -67 115 -67c27 0 42 19 42 36c0 55 -162 74 -161 190c3 104 101 168 213 167z" />
    <glyph glyph-name="Scircumflex" unicode="&#x15c;" horiz-adv-x="502" 
d="M192 705l-30 59c50 40 105 91 163 144h31c38 -47 86 -98 132 -144l-45 -59h-15c-38 31 -74 61 -100 88c-32 -27 -75 -57 -121 -88h-15zM333 655c47 0 109 -9 170 -34l-40 -133l-24 -10c-46 34 -97 53 -134 53c-48 0 -78 -27 -78 -58c0 -87 244 -93 244 -266
c0 -119 -110 -217 -270 -217c-63 0 -133 14 -197 40l39 143l17 9c53 -49 122 -73 168 -73c54 0 81 29 81 60c0 93 -241 92 -241 267c0 123 112 219 265 219z" />
    <glyph glyph-name="scircumflex" unicode="&#x15d;" horiz-adv-x="362" 
d="M107 527l-30 59c50 40 105 91 163 144h31c38 -47 86 -98 132 -144l-45 -59h-15c-38 31 -74 61 -100 88c-32 -27 -75 -57 -121 -88h-15zM250 475c38 -5 73 -13 109 -25l-35 -116l-19 -7c-34 35 -72 53 -98 53c-23 0 -39 -17 -39 -36c0 -55 158 -66 158 -190
c0 -95 -90 -164 -209 -164c-44 5 -85 14 -127 29l35 122l16 8c35 -43 81 -67 115 -67c27 0 42 19 42 36c0 55 -162 74 -161 190c3 104 101 168 213 167z" />
    <glyph glyph-name="Scedilla" unicode="&#x15e;" horiz-adv-x="502" 
d="M227 473c0 -87 244 -93 244 -266c0 -109 -93 -201 -233 -215l-8 -37l34 -19c32 -18 42 -37 42 -61c0 -45 -38 -78 -100 -78c-34 0 -62 11 -85 27l10 63l7 2c19 -18 41 -29 58 -29c14 0 22 7 22 19c0 8 -6 13 -15 18l-50 28l15 66c-54 4 -111 18 -164 39l39 143l17 9
c53 -49 122 -73 168 -73c54 0 81 29 81 60c0 93 -241 92 -241 267c0 123 112 219 265 219c47 0 109 -9 170 -34l-40 -133l-24 -10c-46 34 -97 53 -134 53c-48 0 -78 -27 -78 -58z" />
    <glyph glyph-name="scedilla" unicode="&#x15f;" horiz-adv-x="362" 
d="M168 344c0 -55 158 -66 158 -190c0 -78 -61 -139 -150 -158l-9 -41l34 -19c32 -18 42 -37 42 -61c0 -45 -38 -78 -100 -78c-34 0 -62 11 -85 27l10 63l7 2c19 -18 41 -29 58 -29c14 0 22 7 22 19c0 8 -6 13 -15 18l-50 28l15 67c-40 5 -77 13 -115 27l35 122l16 8
c35 -43 81 -67 115 -67c27 0 42 19 42 36c0 55 -162 74 -161 190c3 104 101 168 213 167c38 -5 73 -13 109 -25l-35 -116l-19 -7c-34 35 -72 53 -98 53c-23 0 -39 -17 -39 -36z" />
    <glyph glyph-name="Scaron" unicode="&#x160;" horiz-adv-x="502" 
d="M458 905l30 -58c-49 -40 -104 -91 -162 -144h-31c-38 47 -87 98 -133 144l45 58h15c38 -31 72 -60 98 -87c33 27 77 56 122 87h16zM333 655c47 0 109 -9 170 -34l-40 -133l-24 -10c-46 34 -97 53 -134 53c-48 0 -78 -27 -78 -58c0 -87 244 -93 244 -266
c0 -119 -110 -217 -270 -217c-63 0 -133 14 -197 40l39 143l17 9c53 -49 122 -73 168 -73c54 0 81 29 81 60c0 93 -241 92 -241 267c0 123 112 219 265 219z" />
    <glyph glyph-name="scaron" unicode="&#x161;" horiz-adv-x="362" 
d="M373 727l30 -58c-49 -40 -104 -91 -162 -144h-31c-38 47 -87 98 -133 144l45 58h15c38 -31 72 -60 98 -87c33 27 77 56 122 87h16zM250 475c38 -5 73 -13 109 -25l-35 -116l-19 -7c-34 35 -72 53 -98 53c-23 0 -39 -17 -39 -36c0 -55 158 -66 158 -190
c0 -95 -90 -164 -209 -164c-44 5 -85 14 -127 29l35 122l16 8c35 -43 81 -67 115 -67c27 0 42 19 42 36c0 55 -162 74 -161 190c3 104 101 168 213 167z" />
    <glyph glyph-name="Tcedilla" unicode="&#x162;" horiz-adv-x="501" 
d="M539 633l-23 -117l-122 6h-30l-44 -316l-18 -206h-46l-10 -44l32 -19c30 -17 40 -35 40 -58c0 -44 -37 -76 -95 -76c-32 0 -59 12 -81 26l10 60l6 3c19 -18 39 -29 56 -29c13 0 20 7 20 18c0 9 -5 14 -14 19l-47 27l16 73h-46l33 191l35 331h-28l-126 -6l-8 12l24 117
h459z" />
    <glyph glyph-name="tcedilla" unicode="&#x163;" horiz-adv-x="351" 
d="M203 151l-1 -12c0 -9 4 -16 16 -16c14 0 31 14 51 45l20 -1l40 -52c-36 -51 -74 -91 -120 -122h-6l-9 -38l34 -19c32 -18 42 -37 42 -61c0 -45 -38 -78 -100 -78c-34 0 -62 11 -85 27l10 63l7 2c19 -18 41 -29 58 -29c14 0 22 7 22 19c0 8 -6 13 -15 18l-50 28l17 79
c-45 15 -69 43 -70 94l2 25l36 234l2 17h-63l-8 9l9 75h71l10 100l137 37l11 -8l-20 -129h105l10 -12l-9 -72h-119z" />
    <glyph glyph-name="Tcaron" unicode="&#x164;" horiz-adv-x="501" 
d="M322 703h-31c-38 47 -87 98 -133 144l45 58h15c38 -31 72 -60 98 -87c33 27 77 56 122 87h16l30 -58c-49 -40 -104 -91 -162 -144zM539 633l-23 -117l-122 6h-30l-44 -316l-18 -206h-159l33 191l35 331h-28l-126 -6l-8 12l24 117h459z" />
    <glyph glyph-name="tcaron" unicode="&#x165;" horiz-adv-x="351" 
d="M440 719l-63 -211l-68 -11l-9 9l21 216l111 6zM356 458l10 -12l-9 -72h-119l-35 -223l-1 -12c0 -9 4 -16 16 -16c14 0 31 14 51 45l20 -1l40 -52c-36 -51 -74 -91 -120 -122l-16 -1c-85 10 -127 37 -129 106l2 25l36 234l2 17h-63l-8 9l9 75h71l10 100l137 37l11 -8
l-20 -129h105z" />
    <glyph glyph-name="Tbar" unicode="&#x166;" horiz-adv-x="501" 
d="M364 522l-25 -183h86l10 -11l-6 -73h-102l-7 -49l-18 -206h-159l33 191l7 64h-82l-10 11l6 73h95l19 183h-28l-126 -6l-8 12l24 117h459l7 -12l-23 -117l-122 6h-30z" />
    <glyph glyph-name="tbar" unicode="&#x167;" horiz-adv-x="357" 
d="M241 374l-11 -72h100l9 -10l-7 -72h-114l-11 -69l-2 -12c0 -9 4 -16 16 -16c15 0 31 14 51 45l20 -1l40 -52c-36 -51 -74 -91 -120 -122l-16 -1c-85 10 -127 37 -129 106l2 25l15 97h-57l-9 10l8 72h71l8 55l2 17h-63l-7 9l9 75h70l10 100l137 37l11 -8l-20 -129h106
l10 -12l-9 -72h-120z" />
    <glyph glyph-name="Umacron" unicode="&#x16a;" horiz-adv-x="634" 
d="M535 839l-8 -86h-279l-9 10l7 86h279zM585 318l-12 -92c-18 -151 -114 -236 -285 -236c-146 0 -235 66 -235 186c0 14 1 30 3 47l14 97l36 325h158l-56 -401c-1 -12 -2 -23 -2 -33c0 -64 30 -93 95 -93c77 0 117 38 126 122l43 405h160z" />
    <glyph glyph-name="umacron" unicode="&#x16b;" horiz-adv-x="499" 
d="M159 575l-9 10l7 86h279l10 -10l-8 -86h-279zM474 472l-49 -358l-3 -108l-145 -10l21 155h-11c-43 -67 -81 -114 -127 -154l-12 -1c-71 10 -118 48 -118 101l2 18l38 237l6 110l146 9l-46 -286l-1 -16c0 -17 6 -24 18 -24c24 0 67 49 126 156l7 53l4 108z" />
    <glyph glyph-name="Ubreve" unicode="&#x16c;" horiz-adv-x="634" 
d="M519 890l27 -51c-26 -69 -82 -129 -170 -129c-98 0 -139 63 -149 129l39 51h22c12 -47 48 -72 96 -72c49 0 90 25 113 72h22zM585 318l-12 -92c-18 -151 -114 -236 -285 -236c-146 0 -235 66 -235 186c0 14 1 30 3 47l14 97l36 325h158l-56 -401c-1 -12 -2 -23 -2 -33
c0 -64 30 -93 95 -93c77 0 117 38 126 122l43 405h160z" />
    <glyph glyph-name="ubreve" unicode="&#x16d;" horiz-adv-x="499" 
d="M287 532c-98 0 -139 63 -149 129l39 51h22c12 -47 48 -72 96 -72c49 0 90 25 113 72h22l27 -51c-26 -69 -82 -129 -170 -129zM474 472l-49 -358l-3 -108l-145 -10l21 155h-11c-43 -67 -81 -114 -127 -154l-12 -1c-71 10 -118 48 -118 101l2 18l38 237l6 110l146 9
l-46 -286l-1 -16c0 -17 6 -24 18 -24c24 0 67 49 126 156l7 53l4 108z" />
    <glyph glyph-name="Uring" unicode="&#x16e;" horiz-adv-x="634" 
d="M391 914c66 0 98 -35 98 -96c0 -67 -38 -104 -104 -104c-62 0 -97 34 -97 98c0 65 36 102 103 102zM388 849c-27 0 -38 -11 -38 -34c0 -27 13 -38 39 -38s38 10 38 35s-12 37 -39 37zM585 318l-12 -92c-18 -151 -114 -236 -285 -236c-146 0 -235 66 -235 186
c0 14 1 30 3 47l14 97l36 325h158l-56 -401c-1 -12 -2 -23 -2 -33c0 -64 30 -93 95 -93c77 0 117 38 126 122l43 405h160z" />
    <glyph glyph-name="uring" unicode="&#x16f;" horiz-adv-x="499" 
d="M295 536c-62 0 -97 34 -97 98c0 65 36 102 103 102c66 0 98 -35 98 -96c0 -67 -38 -104 -104 -104zM298 671c-27 0 -38 -11 -38 -34c0 -27 13 -38 39 -38s38 10 38 35s-12 37 -39 37zM474 472l-49 -358l-3 -108l-145 -10l21 155h-11c-43 -67 -81 -114 -127 -154l-12 -1
c-71 10 -118 48 -118 101l2 18l38 237l6 110l146 9l-46 -286l-1 -16c0 -17 6 -24 18 -24c24 0 67 49 126 156l7 53l4 108z" />
    <glyph glyph-name="Uhungarumlaut" unicode="&#x170;" horiz-adv-x="634" 
d="M262 714l-48 38c36 46 71 92 103 140l12 2l71 -46l2 -12c-41 -41 -83 -80 -126 -118zM422 714l-48 38c35 46 70 92 103 140l11 2l72 -46l2 -12c-41 -41 -84 -80 -127 -118zM585 318l-12 -92c-18 -151 -114 -236 -285 -236c-146 0 -235 66 -235 186c0 14 1 30 3 47l14 97
l36 325h158l-56 -401c-1 -12 -2 -23 -2 -33c0 -64 30 -93 95 -93c77 0 117 38 126 122l43 405h160z" />
    <glyph glyph-name="uhungarumlaut" unicode="&#x171;" horiz-adv-x="499" 
d="M189 521l-47 38c41 59 81 118 120 179l11 2l71 -50l2 -12c-47 -53 -96 -104 -145 -154zM346 521l-47 38c41 59 81 118 120 179l11 2l71 -50l2 -12c-47 -53 -96 -104 -145 -154zM330 462l144 10l-49 -358l-3 -108l-145 -10l21 155h-11c-43 -67 -81 -114 -127 -154l-12 -1
c-71 10 -118 48 -118 101l2 18l38 237l6 110l146 9l-46 -286l-1 -16c0 -17 6 -24 18 -24c24 0 67 49 126 156l7 53z" />
    <glyph glyph-name="Uogonek" unicode="&#x172;" horiz-adv-x="634" 
d="M630 645l-45 -327l-12 -92c-10 -84 -44 -148 -102 -187l-45 -74c-11 -16 -17 -32 -17 -46c0 -20 11 -33 36 -33c19 0 42 9 63 26h8l12 -60c-38 -33 -69 -49 -105 -49c-58 0 -94 39 -94 91c0 26 9 54 29 82l15 22c-26 -5 -54 -8 -85 -8c-146 0 -235 66 -235 186
c0 14 1 30 3 47l14 97l36 325h158l-56 -401c-1 -12 -2 -23 -2 -33c0 -64 30 -93 95 -93c77 0 117 38 126 122l43 405h160z" />
    <glyph glyph-name="uogonek" unicode="&#x173;" horiz-adv-x="500" 
d="M474 472l-49 -358l-3 -108l-65 -4c-45 -48 -57 -67 -57 -86c0 -17 12 -30 34 -30c17 0 35 9 53 26h8l13 -62c-33 -30 -60 -47 -98 -47c-54 0 -91 36 -91 91c0 34 15 63 60 113l19 144h-11c-43 -67 -81 -114 -127 -154l-12 -1c-71 10 -118 48 -118 101l2 18l38 237l6 110
l146 9l-46 -286l-1 -16c0 -17 6 -24 18 -24c24 0 67 49 126 156l7 53l4 108z" />
    <glyph glyph-name="Wcircumflex" unicode="&#x174;" horiz-adv-x="892" 
d="M361 725l-21 61c54 36 103 72 148 109h30c39 -37 84 -73 133 -109l-35 -61h-15l-103 62c-39 -21 -82 -41 -122 -62h-15zM660 0h-167l-46 281h-9l-114 -281h-169l-86 645h155l-1 -87l43 -396h10l133 329l-21 154h162l1 -103l49 -380h9l155 387l29 96h147z" />
    <glyph glyph-name="wcircumflex" unicode="&#x175;" horiz-adv-x="723" 
d="M278 527l-30 59c50 40 105 91 163 144h31c38 -47 86 -98 132 -144l-45 -59h-15c-38 31 -74 61 -100 88c-32 -27 -75 -57 -121 -88h-15zM550 0h-158l-19 274h-13l-104 -274h-157l-54 463l142 9l1 -79l11 -231h12l87 222l25 84h153l2 -75l12 -231h12l58 124
c16 37 27 66 27 94c0 21 -6 40 -17 60l6 15l133 19c11 -26 17 -52 17 -79c0 -45 -17 -91 -46 -145z" />
    <glyph glyph-name="Ycircumflex" unicode="&#x176;" horiz-adv-x="563" 
d="M218 725l-21 61c54 36 103 72 148 109h30c39 -37 84 -73 133 -109l-35 -61h-15l-103 62c-39 -21 -82 -41 -122 -62h-15zM345 213l-6 -37l-14 -176h-159l30 176l3 39l-148 430h165l9 -48l65 -227h11l132 222l26 53h164z" />
    <glyph glyph-name="ycircumflex" unicode="&#x177;" horiz-adv-x="458" 
d="M134 527l-30 59c50 40 105 91 163 144h31c38 -47 86 -98 132 -144l-45 -59h-15c-38 31 -74 61 -100 88c-32 -27 -75 -57 -121 -88h-15zM309 455l133 19c11 -26 16 -52 16 -79c0 -47 -16 -96 -46 -154l-98 -186c-99 -189 -177 -252 -282 -252c-31 0 -64 6 -96 17l-7 119
l13 13c29 -9 58 -14 84 -14c41 0 82 14 116 42l-103 483l144 9l9 -88l33 -230h16l50 113c18 41 29 77 29 110c0 23 -6 43 -17 63z" />
    <glyph glyph-name="Ydieresis" unicode="&#x178;" horiz-adv-x="563" 
d="M258 728c-44 0 -68 25 -68 69c0 46 28 75 74 75c42 0 67 -26 67 -69c0 -46 -28 -75 -73 -75zM440 727c-44 0 -68 25 -68 70c0 46 28 74 74 74c42 0 67 -25 67 -68c0 -47 -28 -76 -73 -76zM345 213l-6 -37l-14 -176h-159l30 176l3 39l-148 430h165l9 -48l65 -227h11
l132 222l26 53h164z" />
    <glyph glyph-name="Zacute" unicode="&#x179;" horiz-adv-x="547" 
d="M402 896l40 -92l-5 -14c-80 -29 -151 -52 -223 -75l-15 4l-24 64c76 39 143 75 213 117zM550 531l-348 -412h191l113 9l5 -8l-28 -124l-155 4h-242l-86 -5l14 114l352 416h-182l-112 -9l-5 7l27 124l135 -2h269l67 1z" />
    <glyph glyph-name="zacute" unicode="&#x17a;" horiz-adv-x="433" 
d="M340 734l55 -84l-3 -15c-73 -42 -137 -79 -204 -115l-14 1l-37 58c68 53 128 102 188 156zM427 445l-252 -321l27 7c10 0 46 -8 57 -8c43 0 60 14 67 81l18 7l59 -19c-3 -150 -60 -202 -143 -202c-63 0 -115 33 -160 33c-23 0 -38 -8 -62 -30h-17l-43 40l244 315l-90 -2
l-76 -13l-11 10l25 126l14 9l91 -7l175 -5l35 20z" />
    <glyph glyph-name="Zdotaccent" unicode="&#x17b;" horiz-adv-x="547" 
d="M305 886c48 0 76 -29 76 -78c0 -52 -32 -85 -82 -85s-77 29 -77 78c0 52 32 85 83 85zM550 531l-348 -412h191l113 9l5 -8l-28 -124l-155 4h-242l-86 -5l14 114l352 416h-182l-112 -9l-5 7l27 124l135 -2h269l67 1z" />
    <glyph glyph-name="zdotaccent" unicode="&#x17c;" horiz-adv-x="433" 
d="M269 708c48 0 76 -29 76 -78c0 -52 -32 -85 -82 -85s-77 29 -77 78c0 52 32 85 83 85zM427 445l-252 -321l27 7c10 0 46 -8 57 -8c43 0 60 14 67 81l18 7l59 -19c-3 -150 -60 -202 -143 -202c-63 0 -115 33 -160 33c-23 0 -38 -8 -62 -30h-17l-43 40l244 315l-90 -2
l-76 -13l-11 10l25 126l14 9l91 -7l175 -5l35 20z" />
    <glyph glyph-name="Zcaron" unicode="&#x17d;" horiz-adv-x="547" 
d="M436 887l20 -61c-54 -35 -103 -71 -147 -109h-30c-39 38 -85 74 -134 109l36 61h15c34 -20 68 -41 102 -62c40 21 82 42 123 62h15zM550 531l-348 -412h191l113 9l5 -8l-28 -124l-155 4h-242l-86 -5l14 114l352 416h-182l-112 -9l-5 7l27 124l135 -2h269l67 1z" />
    <glyph glyph-name="zcaron" unicode="&#x17e;" horiz-adv-x="433" 
d="M399 727l30 -58c-49 -40 -104 -91 -162 -144h-31c-38 47 -87 98 -133 144l45 58h15c38 -31 72 -60 98 -87c33 27 77 56 122 87h16zM427 445l-252 -321l27 7c10 0 46 -8 57 -8c43 0 60 14 67 81l18 7l59 -19c-3 -150 -60 -202 -143 -202c-63 0 -115 33 -160 33
c-23 0 -38 -8 -62 -30h-17l-43 40l244 315l-90 -2l-76 -13l-11 10l25 126l14 9l91 -7l175 -5l35 20z" />
    <glyph glyph-name="florin" unicode="&#x192;" horiz-adv-x="333" 
d="M338 622c27 0 54 -3 83 -9l-21 -103l-11 -6c-33 14 -58 19 -76 19c-38 0 -60 -19 -65 -58l-10 -76h98l4 -9l-8 -76h-106l-15 -118l-14 -128c-11 -97 -49 -153 -148 -209l-63 63l1 11c50 35 70 69 79 132l13 116l14 133h-66l-4 8l8 77h71l7 52c13 117 98 181 229 181z" />
    <glyph glyph-name="Ohorn" unicode="&#x1a0;" horiz-adv-x="647" 
d="M660 781c37 0 63 -34 63 -84c0 -74 -59 -129 -134 -142c30 -47 43 -101 43 -174c0 -230 -127 -392 -342 -392c-165 0 -258 96 -258 285c0 230 137 381 335 381c88 0 131 -29 174 -29c36 0 60 20 60 56c0 20 -8 42 -23 57l4 12c23 15 52 30 78 30zM354 527
c-98 0 -157 -65 -157 -254c0 -114 25 -164 113 -164c96 0 156 65 156 256c0 112 -24 162 -112 162z" />
    <glyph glyph-name="ohorn" unicode="&#x1a1;" horiz-adv-x="464" 
d="M537 518c0 -63 -61 -120 -120 -129c11 -23 17 -50 17 -83c0 -190 -98 -307 -260 -317l-13 2c-87 19 -139 74 -139 181c0 178 100 297 261 306l13 -1c26 -6 58 -22 80 -22c25 0 39 17 39 43c0 23 -11 41 -30 58l3 13c26 21 52 35 77 35c37 0 72 -35 72 -86zM201 97
c72 0 94 66 94 200c0 52 -11 70 -40 70c-74 0 -96 -65 -96 -198c0 -53 12 -72 42 -72z" />
    <glyph glyph-name="Uhorn" unicode="&#x1af;" horiz-adv-x="646" 
d="M708 708c0 -50 -33 -94 -86 -118l-37 -272l-12 -92c-18 -151 -114 -236 -285 -236c-146 0 -235 66 -235 186c0 14 1 30 3 47l14 97l36 325h158l-56 -401c-1 -12 -2 -23 -2 -33c0 -64 30 -93 95 -93c77 0 117 38 126 122l43 405h59c41 0 59 15 59 49c0 22 -10 42 -30 59
l3 12c23 16 49 30 75 30c39 0 72 -37 72 -87z" />
    <glyph glyph-name="uhorn" unicode="&#x1b0;" horiz-adv-x="512" 
d="M566 540c0 -55 -43 -102 -101 -129l-40 -297l-4 -108l-144 -10l21 156h-11c-44 -68 -81 -115 -127 -155l-12 -1c-71 10 -118 48 -118 101l2 18l38 237l5 110l146 9l-45 -286l-1 -13c0 -19 7 -27 17 -27c24 0 66 46 127 159l7 50l4 108l51 7c44 5 64 21 64 49
c0 21 -11 41 -30 58l3 13c25 21 52 35 77 35c37 0 71 -35 71 -84z" />
    <glyph glyph-name="Acaron" unicode="&#x1cd;" horiz-adv-x="600" 
d="M380 717h-30c-39 38 -85 74 -134 109l36 61h15c34 -20 68 -41 102 -62c40 21 82 42 123 62h15l20 -61c-54 -35 -103 -71 -147 -109zM559 0h-161l-5 92l-5 40l-113 2l-98 -3l-13 -30l-30 -101h-156l285 645h190zM373 251l-31 248h-10l-104 -247l71 -2z" />
    <glyph glyph-name="acaron" unicode="&#x1ce;" horiz-adv-x="471" 
d="M280 525h-31c-38 47 -87 98 -133 144l45 58h15c38 -31 72 -60 98 -87c33 27 77 56 122 87h16l30 -58c-49 -40 -104 -91 -162 -144zM445 471l-48 -357l-4 -108l-144 -10l19 139h-14c-29 -53 -62 -102 -101 -145h-20c-90 28 -117 85 -117 165c0 126 74 273 238 319h6
l87 -19l88 23zM172 128c22 0 68 65 123 201l2 17l-67 20c-53 0 -81 -62 -81 -155c0 -62 11 -83 23 -83z" />
    <glyph glyph-name="Icaron" unicode="&#x1cf;" horiz-adv-x="304" 
d="M355 887l20 -61c-54 -35 -103 -71 -147 -109h-30c-39 38 -85 74 -134 109l36 61h15c34 -20 68 -41 102 -62c40 21 82 42 123 62h15zM220 206l-19 -206h-159l32 191l48 454h161z" />
    <glyph glyph-name="icaron" unicode="&#x1d0;" horiz-adv-x="245" 
d="M302 727l30 -58c-49 -40 -104 -91 -162 -144h-31c-38 47 -87 98 -133 144l45 58h15c38 -31 72 -60 98 -87c33 27 77 56 122 87h16zM173 114l-5 -108l-144 -10l49 358l4 108l143 10z" />
    <glyph glyph-name="Ocaron" unicode="&#x1d1;" horiz-adv-x="642" 
d="M525 887l20 -61c-54 -35 -103 -71 -147 -109h-30c-39 38 -85 74 -134 109l36 61h15c34 -20 68 -41 102 -62c40 21 82 42 123 62h15zM373 655c162 0 260 -90 260 -275c0 -231 -121 -391 -342 -391c-161 0 -259 93 -259 279c0 231 121 387 341 387zM355 527
c-100 0 -158 -62 -158 -258c0 -114 28 -160 110 -160c98 0 158 63 158 260c0 113 -28 158 -110 158z" />
    <glyph glyph-name="ocaron" unicode="&#x1d2;" horiz-adv-x="449" 
d="M412 727l30 -58c-49 -40 -104 -91 -162 -144h-31c-38 47 -87 98 -133 144l45 58h15c38 -31 72 -60 98 -87c33 27 77 56 122 87h16zM279 478l14 -1c83 -18 136 -72 136 -172c0 -189 -98 -306 -258 -316l-14 2c-86 19 -137 74 -137 181c0 178 99 297 259 306zM251 366
c-73 0 -94 -65 -94 -197c0 -52 10 -71 41 -71c71 0 92 66 92 198c0 52 -10 70 -39 70z" />
    <glyph glyph-name="Ucaron" unicode="&#x1d3;" horiz-adv-x="634" 
d="M521 905l30 -58c-49 -40 -104 -91 -162 -144h-31c-38 47 -87 98 -133 144l45 58h15c38 -31 72 -60 98 -87c33 27 77 56 122 87h16zM585 318l-12 -92c-18 -151 -114 -236 -285 -236c-146 0 -235 66 -235 186c0 14 1 30 3 47l14 97l36 325h158l-56 -401
c-1 -12 -2 -23 -2 -33c0 -64 30 -93 95 -93c77 0 117 38 126 122l43 405h160z" />
    <glyph glyph-name="ucaron" unicode="&#x1d4;" horiz-adv-x="499" 
d="M299 525h-31c-38 47 -87 98 -133 144l45 58h15c38 -31 72 -60 98 -87c33 27 77 56 122 87h16l30 -58c-49 -40 -104 -91 -162 -144zM474 472l-49 -358l-3 -108l-145 -10l21 155h-11c-43 -67 -81 -114 -127 -154l-12 -1c-71 10 -118 48 -118 101l2 18l38 237l6 110l146 9
l-46 -286l-1 -16c0 -17 6 -24 18 -24c24 0 67 49 126 156l7 53l4 108z" />
    <glyph glyph-name="Udieresismacron" unicode="&#x1d5;" horiz-adv-x="634" 
d="M557 991l-9 -86h-287l-11 11l8 86h288zM305 851c42 0 66 -25 66 -67c0 -46 -27 -75 -71 -75s-68 25 -68 69c0 45 28 73 73 73zM486 851c42 0 66 -25 66 -67c0 -46 -27 -75 -72 -75c-43 0 -67 25 -67 69c0 45 28 73 73 73zM585 318l-12 -92c-18 -151 -114 -236 -285 -236
c-146 0 -235 66 -235 186c0 14 1 30 3 47l14 97l36 325h158l-56 -401c-1 -12 -2 -23 -2 -33c0 -64 30 -93 95 -93c77 0 117 38 126 122l43 405h160z" />
    <glyph glyph-name="udieresismacron" unicode="&#x1d6;" horiz-adv-x="499" 
d="M171 727l-11 11l8 86h288l11 -11l-9 -86h-287zM210 531c-44 0 -68 25 -68 69c0 45 28 73 73 73c42 0 66 -25 66 -67c0 -46 -27 -75 -71 -75zM396 673c42 0 66 -25 66 -67c0 -46 -27 -75 -72 -75c-43 0 -67 25 -67 69c0 45 28 73 73 73zM474 472l-49 -358l-3 -108
l-145 -10l21 155h-11c-43 -67 -81 -114 -127 -154l-12 -1c-71 10 -118 48 -118 101l2 18l38 237l6 110l146 9l-46 -286l-1 -16c0 -17 6 -24 18 -24c24 0 67 49 126 156l7 53l4 108z" />
    <glyph glyph-name="Udieresisacute" unicode="&#x1d7;" horiz-adv-x="634" 
d="M505 1040l23 -98l-7 -13c-84 -14 -158 -25 -233 -34l-13 6l-14 68c82 24 155 48 231 77zM300 851c42 0 66 -25 66 -67c0 -46 -27 -75 -72 -75c-43 0 -67 25 -67 69c0 45 27 73 73 73zM480 851c42 0 66 -25 66 -67c0 -46 -27 -75 -71 -75c-43 0 -68 25 -68 69
c0 45 28 73 73 73zM585 318l-12 -92c-18 -151 -114 -236 -285 -236c-146 0 -235 66 -235 186c0 14 1 30 3 47l14 97l36 325h158l-56 -401c-1 -12 -2 -23 -2 -33c0 -64 30 -93 95 -93c77 0 117 38 126 122l43 405h160z" />
    <glyph glyph-name="udieresisacute" unicode="&#x1d8;" horiz-adv-x="499" 
d="M185 723l-14 68c82 24 155 48 231 77l13 -6l23 -98l-7 -13c-84 -14 -158 -25 -233 -34zM204 531c-43 0 -67 25 -67 69c0 45 27 73 73 73c42 0 66 -25 66 -67c0 -46 -27 -75 -72 -75zM317 600c0 45 28 73 73 73c42 0 66 -25 66 -67c0 -46 -27 -75 -71 -75
c-43 0 -68 25 -68 69zM474 472l-49 -358l-3 -108l-145 -10l21 155h-11c-43 -67 -81 -114 -127 -154l-12 -1c-71 10 -118 48 -118 101l2 18l38 237l6 110l146 9l-46 -286l-1 -16c0 -17 6 -24 18 -24c24 0 67 49 126 156l7 53l4 108z" />
    <glyph glyph-name="Udieresiscaron" unicode="&#x1d9;" horiz-adv-x="634" 
d="M534 1032l21 -62c-55 -35 -104 -71 -148 -109h-30c-39 38 -85 74 -133 109l35 62h15c34 -21 68 -41 103 -62c39 21 81 41 122 62h15zM305 851c41 0 66 -25 66 -67c0 -46 -27 -75 -72 -75c-43 0 -67 25 -67 69c0 45 27 73 73 73zM485 851c42 0 66 -25 66 -67
c0 -46 -27 -75 -71 -75s-68 25 -68 69c0 45 28 73 73 73zM585 318l-12 -92c-18 -151 -114 -236 -285 -236c-146 0 -235 66 -235 186c0 14 1 30 3 47l14 97l36 325h158l-56 -401c-1 -12 -2 -23 -2 -33c0 -64 30 -93 95 -93c77 0 117 38 126 122l43 405h160z" />
    <glyph glyph-name="udieresiscaron" unicode="&#x1da;" horiz-adv-x="499" 
d="M317 683h-30c-39 38 -85 74 -133 109l35 62h15c34 -21 68 -41 103 -62c39 21 81 41 122 62h15l21 -62c-55 -35 -104 -71 -148 -109zM209 531c-43 0 -67 25 -67 69c0 45 27 73 73 73c41 0 66 -25 66 -67c0 -46 -27 -75 -72 -75zM322 600c0 45 28 73 73 73
c42 0 66 -25 66 -67c0 -46 -27 -75 -71 -75s-68 25 -68 69zM474 472l-49 -358l-3 -108l-145 -10l21 155h-11c-43 -67 -81 -114 -127 -154l-12 -1c-71 10 -118 48 -118 101l2 18l38 237l6 110l146 9l-46 -286l-1 -16c0 -17 6 -24 18 -24c24 0 67 49 126 156l7 53l4 108z" />
    <glyph glyph-name="Udieresisgrave" unicode="&#x1db;" horiz-adv-x="634" 
d="M302 1040l14 6c72 -29 143 -53 221 -77l-21 -68l-15 -6c-73 9 -146 20 -227 34l-7 13zM295 851c41 0 64 -24 64 -65c0 -47 -28 -77 -74 -77c-42 0 -65 24 -65 67c0 45 29 75 75 75zM475 851c41 0 65 -24 65 -65c0 -47 -28 -77 -74 -77c-43 0 -66 24 -66 67
c0 45 29 75 75 75zM585 318l-12 -92c-18 -151 -114 -236 -285 -236c-146 0 -235 66 -235 186c0 14 1 30 3 47l14 97l36 325h158l-56 -401c-1 -12 -2 -23 -2 -33c0 -64 30 -93 95 -93c77 0 117 38 126 122l43 405h160z" />
    <glyph glyph-name="udieresisgrave" unicode="&#x1dc;" horiz-adv-x="499" 
d="M427 723l-15 -6c-73 9 -146 20 -227 34l-7 13l35 98l14 6c72 -29 143 -53 221 -77zM196 531c-42 0 -65 24 -65 67c0 45 29 75 75 75c41 0 64 -24 64 -65c0 -47 -28 -77 -74 -77zM386 673c41 0 65 -24 65 -65c0 -47 -28 -77 -74 -77c-43 0 -66 24 -66 67c0 45 29 75 75 75
zM474 472l-49 -358l-3 -108l-145 -10l21 155h-11c-43 -67 -81 -114 -127 -154l-12 -1c-71 10 -118 48 -118 101l2 18l38 237l6 110l146 9l-46 -286l-1 -16c0 -17 6 -24 18 -24c24 0 67 49 126 156l7 53l4 108z" />
    <glyph glyph-name="Oogonek" unicode="&#x1ea;" horiz-adv-x="642" 
d="M459 28l-40 -61c-10 -16 -16 -31 -16 -45c0 -21 12 -36 37 -36c20 0 42 10 64 26h8l11 -61c-38 -33 -70 -48 -106 -48c-59 0 -95 40 -95 91c0 27 9 56 30 85l12 16c-23 -4 -47 -6 -73 -6c-161 0 -259 93 -259 279c0 231 121 387 341 387c162 0 260 -90 260 -275
c0 -163 -60 -291 -174 -352zM197 269c0 -114 28 -160 110 -160c98 0 158 63 158 260c0 113 -28 158 -110 158c-100 0 -158 -62 -158 -258z" />
    <glyph glyph-name="oogonek" unicode="&#x1eb;" horiz-adv-x="457" 
d="M347 -88l12 -61c-39 -33 -70 -48 -106 -48c-60 0 -96 39 -96 91c0 27 9 56 30 85l9 13c-8 -2 -16 -2 -25 -3l-14 2c-86 19 -137 74 -137 181c0 178 99 297 259 306l14 -1c83 -18 136 -72 136 -172c0 -136 -50 -234 -138 -283l-36 -55c-11 -16 -17 -31 -17 -46
c0 -20 12 -35 38 -35c19 0 42 9 63 26h8zM157 169c0 -52 10 -71 41 -71c71 0 92 66 92 198c0 52 -10 70 -39 70c-73 0 -94 -65 -94 -197z" />
    <glyph glyph-name="Aringacute" unicode="&#x1fa;" horiz-adv-x="621" 
d="M285 800l-14 67c80 27 152 53 228 84l13 -5l26 -98l-7 -12c-83 -17 -157 -30 -232 -42zM579 0h-161l-5 89l-5 40l-114 2l-98 -3l-13 -30l-29 -98h-156l292 626c-8 14 -12 32 -12 54c0 65 36 101 104 101c65 0 98 -35 98 -96c0 -26 -6 -48 -18 -64zM378 717
c-27 0 -38 -11 -38 -35c0 -26 13 -38 39 -38s38 11 38 36s-11 37 -39 37zM392 245l-32 241h-10l-104 -241l72 -2z" />
    <glyph glyph-name="aringacute" unicode="&#x1fb;" horiz-adv-x="471" 
d="M185 733l-15 67c81 27 152 53 228 84l14 -5l25 -98l-7 -12c-83 -17 -156 -30 -231 -42zM177 613c0 65 37 102 104 102c65 0 98 -35 98 -96c0 -67 -39 -104 -104 -104c-62 0 -98 34 -98 98zM317 613c0 25 -12 37 -40 37c-26 0 -37 -11 -37 -34c0 -27 12 -38 39 -38
c25 0 38 10 38 35zM445 471l-48 -357l-4 -108l-144 -10l19 139h-14c-29 -53 -62 -102 -101 -145h-20c-90 28 -117 85 -117 165c0 126 74 273 238 319h6l87 -19l88 23zM172 128c22 0 68 65 123 201l2 17l-67 20c-53 0 -81 -62 -81 -155c0 -62 11 -83 23 -83z" />
    <glyph glyph-name="AEacute" unicode="&#x1fc;" horiz-adv-x="814" 
d="M460 719l-24 64c76 39 143 75 213 117l14 -4l40 -92l-5 -14c-80 -29 -151 -52 -223 -75zM796 117l-25 -117h-400l6 92l2 112l-199 -55l-27 -48l-43 -101h-156l370 645h463l8 -12l-25 -117l-150 5h-81l-4 -156l187 51l10 -9v-111l-200 -51l-3 -122h97l162 6zM382 323
l3 176h-10l-117 -209z" />
    <glyph glyph-name="aeacute" unicode="&#x1fd;" horiz-adv-x="659" 
d="M465 734l55 -84l-3 -15c-73 -42 -137 -79 -204 -115l-14 1l-37 58c68 53 128 102 188 156zM265 474l138 -32c37 21 79 34 127 36l14 -1c63 -12 109 -48 109 -115c0 -78 -67 -136 -246 -185c1 -5 1 -9 3 -15c5 -42 21 -60 53 -60c39 0 76 26 103 73l19 -2l46 -60
c-51 -64 -112 -105 -177 -123h-15c-108 12 -148 64 -163 149c0 3 -2 10 -3 13c-33 -58 -73 -114 -117 -162h-20c-91 28 -117 89 -117 164c0 129 76 275 240 320h6zM492 385c-48 0 -78 -44 -86 -125c83 22 121 51 121 93c0 22 -11 32 -35 32zM310 344l-74 23
c-56 0 -86 -63 -86 -158c0 -62 11 -82 24 -82c22 0 68 64 121 189c7 17 8 15 15 28z" />
    <glyph glyph-name="Oslashacute" unicode="&#x1fe;" horiz-adv-x="642" 
d="M274 721l-24 64c76 39 143 75 213 117l14 -4l40 -92l-5 -14c-80 -29 -151 -52 -223 -75zM612 690l-57 -95c50 -46 78 -117 78 -215c0 -231 -121 -391 -342 -391c-32 0 -62 4 -89 11l-74 -124l-80 37l-5 14l71 119c-53 47 -82 120 -82 222c0 231 121 387 341 387
c35 0 66 -4 95 -12l59 99l78 -36zM307 109c98 0 158 63 158 260c0 113 -28 158 -110 158c-100 0 -158 -62 -158 -258c0 -114 28 -160 110 -160z" />
    <glyph glyph-name="oslashacute" unicode="&#x1ff;" horiz-adv-x="449" 
d="M169 521l-37 58c68 53 128 102 188 156l15 -1l55 -84l-3 -15c-73 -42 -137 -79 -204 -115zM449 524l-58 -101c24 -28 38 -67 38 -118c0 -189 -98 -306 -258 -316l-14 2l-8 2l-70 -120l-74 42l-4 13l64 110c-29 31 -45 74 -45 134c0 178 99 297 259 306l14 -1l17 -4
l62 106l70 -41zM198 98c71 0 92 66 92 198c0 52 -10 70 -39 70c-73 0 -94 -65 -94 -197c0 -52 10 -71 41 -71z" />
    <glyph glyph-name="Scommaaccent" unicode="&#x218;" horiz-adv-x="502" 
d="M333 655c47 0 109 -9 170 -34l-40 -133l-24 -10c-46 34 -97 53 -134 53c-48 0 -78 -27 -78 -58c0 -87 244 -93 244 -266c0 -119 -110 -217 -270 -217c-63 0 -133 14 -197 40l39 143l17 9c53 -49 122 -73 168 -73c54 0 81 29 81 60c0 93 -241 92 -241 267
c0 123 112 219 265 219zM241 -41c26 -23 40 -49 40 -81c0 -58 -37 -111 -116 -166l-43 38l-1 10c33 27 49 56 49 89c0 22 -9 40 -28 58v11c31 18 63 32 99 41z" />
    <glyph glyph-name="scommaaccent" unicode="&#x219;" horiz-adv-x="362" 
d="M250 475c38 -5 73 -13 109 -25l-35 -116l-19 -7c-34 35 -72 53 -98 53c-23 0 -39 -17 -39 -36c0 -55 158 -66 158 -190c0 -95 -90 -164 -209 -164c-44 5 -85 14 -127 29l35 122l16 8c35 -43 81 -67 115 -67c27 0 42 19 42 36c0 55 -162 74 -161 190
c3 104 101 168 213 167zM178 -41c26 -23 40 -49 40 -81c0 -58 -37 -111 -116 -166l-43 38l-1 10c33 27 49 56 49 89c0 22 -9 40 -28 58v11c31 18 63 32 99 41z" />
    <glyph glyph-name="Tcommaaccent" unicode="&#x21a;" horiz-adv-x="501" 
d="M539 633l-23 -117l-122 6h-30l-44 -316l-18 -206h-159l33 191l35 331h-28l-126 -6l-8 12l24 117h459zM240 -41c26 -23 40 -49 40 -81c0 -58 -37 -111 -116 -166l-43 38l-1 10c33 27 49 56 49 89c0 22 -9 40 -28 58v11c31 18 63 32 99 41z" />
    <glyph glyph-name="tcommaaccent" unicode="&#x21b;" horiz-adv-x="351" 
d="M203 151l-1 -12c0 -9 4 -16 16 -16c14 0 31 14 51 45l20 -1l40 -52c-36 -51 -74 -91 -120 -122l-16 -1c-85 10 -127 37 -129 106l2 25l36 234l2 17h-63l-8 9l9 75h71l10 100l137 37l11 -8l-20 -129h105l10 -12l-9 -72h-119zM206 -41c26 -23 40 -49 40 -81
c0 -58 -37 -111 -116 -166l-43 38l-1 10c33 27 49 56 49 89c0 22 -9 40 -28 58v11c31 18 63 32 99 41z" />
    <glyph glyph-name="dotlessj" unicode="&#x237;" horiz-adv-x="268" 
d="M240 467l-49 -352l-9 -86c-13 -106 -68 -171 -186 -224l-46 65l2 14c57 31 85 70 95 138l44 329v23h-67l-6 9l10 75h72l136 13z" />
    <glyph glyph-name="circumflex" unicode="&#x2c6;" 
d="M105 527l-30 59c50 40 105 91 163 144h31c38 -47 86 -98 132 -144l-45 -59h-15c-38 31 -74 61 -100 88c-32 -27 -75 -57 -121 -88h-15z" />
    <glyph glyph-name="caron" unicode="&#x2c7;" 
d="M381 727l30 -58c-49 -40 -104 -91 -162 -144h-31c-38 47 -87 98 -133 144l45 58h15c38 -31 72 -60 98 -87c33 27 77 56 122 87h16z" />
    <glyph glyph-name="firsttonechinese" unicode="&#x2c9;" 
d="M391 661l-8 -86h-279l-9 10l7 86h279z" />
    <glyph glyph-name="breve" unicode="&#x2d8;" 
d="M379 712l27 -51c-26 -69 -82 -129 -170 -129c-98 0 -139 63 -149 129l39 51h22c12 -47 48 -72 96 -72c49 0 90 25 113 72h22z" />
    <glyph glyph-name="dotaccent" unicode="&#x2d9;" 
d="M246 708c48 0 76 -29 76 -78c0 -52 -32 -85 -82 -85s-77 29 -77 78c0 52 32 85 83 85z" />
    <glyph glyph-name="ring" unicode="&#x2da;" 
d="M247 736c66 0 98 -35 98 -96c0 -67 -38 -104 -104 -104c-62 0 -97 34 -97 98c0 65 36 102 103 102zM244 671c-27 0 -38 -11 -38 -34c0 -27 13 -38 39 -38s38 10 38 35s-12 37 -39 37z" />
    <glyph glyph-name="ogonek" unicode="&#x2db;" 
d="M215 70l-68 -103c-10 -16 -16 -31 -16 -45c0 -21 12 -36 37 -36c20 0 42 10 64 26h8l11 -61c-38 -33 -70 -48 -106 -48c-59 0 -95 40 -95 91c0 27 9 56 30 85l66 91h69z" />
    <glyph glyph-name="tilde" unicode="&#x2dc;" 
d="M425 671v-13l-74 -98l-14 -5c-48 6 -128 35 -154 35c-22 0 -41 -27 -64 -54h-14l-46 45v13l74 97l14 5c49 -6 128 -34 154 -34c22 0 41 26 65 54h13z" />
    <glyph glyph-name="hungarumlaut" unicode="&#x2dd;" 
d="M108 521l-47 38c41 59 81 118 120 179l11 2l71 -50l2 -12c-47 -53 -96 -104 -145 -154zM265 521l-47 38c41 59 81 118 120 179l11 2l71 -50l2 -12c-47 -53 -96 -104 -145 -154z" />
    <glyph glyph-name="tildecomb" unicode="&#x303;" horiz-adv-x="0" 
d="M425 671v-13l-75 -98l-13 -5c-49 6 -128 35 -154 35c-22 0 -41 -27 -64 -54h-14l-46 45v13l75 97l14 6c48 -7 127 -35 153 -35c22 0 41 26 65 54h13z" />
    <glyph glyph-name="dotbelowcomb" unicode="&#x323;" horiz-adv-x="0" 
d="M153 -48c48 0 76 -29 76 -77c0 -52 -32 -85 -82 -85s-77 28 -77 78c0 52 32 84 83 84z" />
    <glyph glyph-name="commaaccent" unicode="&#x326;" horiz-adv-x="0" 
d="M181 -42c26 -23 40 -49 40 -81c0 -58 -37 -111 -116 -166l-43 38l-1 10c33 27 49 56 49 89c0 22 -9 40 -28 58v11c31 18 63 32 99 41z" />
    <glyph glyph-name="Delta" unicode="&#x394;" horiz-adv-x="600" 
d="M558 0h-581l285 645h190zM330 499l-159 -381h218l-48 381h-11z" />
    <glyph glyph-name="Omega" unicode="&#x3a9;" horiz-adv-x="746" 
d="M420 655c177 0 270 -99 270 -244c0 -97 -43 -194 -137 -288l3 -5h66l84 9l7 -9l-33 -125l-119 7h-143l-37 -3l-7 6l12 94c100 92 136 191 136 288c0 86 -27 143 -115 143c-96 0 -152 -68 -152 -210c0 -89 24 -163 71 -221l-11 -94l-8 -6l-36 3h-170l-102 -5l-7 10l33 120
l91 -7h47l2 5c-51 66 -73 143 -73 218c0 175 117 314 328 314z" />
    <glyph glyph-name="mu" unicode="&#x3bc;" horiz-adv-x="508" 
d="M482 471l-49 -357l-4 -108l-142 -10l21 157h-11c-45 -68 -84 -116 -130 -156l-9 -1l-10 -71l-4 -109l-143 -10l74 548l4 108l142 9l-40 -300v-2c-2 -18 6 -26 18 -26c25 0 69 51 130 161l7 50l4 108z" />
    <glyph glyph-name="pi" unicode="&#x3c0;" horiz-adv-x="686" 
d="M577 383l-36 -249c-3 -22 2 -32 16 -32c9 0 20 3 32 7l9 -8l-26 -83c-33 -17 -61 -26 -80 -26c-56 0 -103 29 -92 120l34 272h-113l-22 -177l-31 -295h-151l40 279l20 193h-8c-31 0 -64 -44 -105 -82h-16l-39 58l2 16l112 123l18 8h413l116 3l7 -12l-24 -116z" />
    <glyph glyph-name="Wgrave" unicode="&#x1e80;" horiz-adv-x="892" 
d="M401 897l14 4c70 -42 138 -78 214 -116l-25 -65l-14 -4c-73 23 -144 46 -223 75l-5 14zM660 0h-167l-46 281h-9l-114 -281h-169l-86 645h155l-1 -87l43 -396h10l133 329l-21 154h162l1 -103l49 -380h9l155 387l29 96h147z" />
    <glyph glyph-name="wgrave" unicode="&#x1e81;" horiz-adv-x="723" 
d="M322 734l14 1c61 -54 120 -103 188 -156l-36 -58l-14 -1c-67 36 -132 73 -205 115l-3 15zM550 0h-158l-19 274h-13l-104 -274h-157l-54 463l142 9l1 -79l11 -231h12l87 222l25 84h153l2 -75l12 -231h12l58 124c16 37 27 66 27 94c0 21 -6 40 -17 60l6 15l133 19
c11 -26 17 -52 17 -79c0 -45 -17 -91 -46 -145z" />
    <glyph glyph-name="Wacute" unicode="&#x1e82;" horiz-adv-x="892" 
d="M595 896l40 -92l-5 -14c-80 -29 -151 -52 -223 -75l-15 4l-24 64c76 39 143 75 213 117zM660 0h-167l-46 281h-9l-114 -281h-169l-86 645h155l-1 -87l43 -396h10l133 329l-21 154h162l1 -103l49 -380h9l155 387l29 96h147z" />
    <glyph glyph-name="wacute" unicode="&#x1e83;" horiz-adv-x="723" 
d="M485 734l55 -84l-3 -15c-73 -42 -137 -79 -204 -115l-14 1l-37 58c68 53 128 102 188 156zM550 0h-158l-19 274h-13l-104 -274h-157l-54 463l142 9l1 -79l11 -231h12l87 222l25 84h153l2 -75l12 -231h12l58 124c16 37 27 66 27 94c0 21 -6 40 -17 60l6 15l133 19
c11 -26 17 -52 17 -79c0 -45 -17 -91 -46 -145z" />
    <glyph glyph-name="Wdieresis" unicode="&#x1e84;" horiz-adv-x="892" 
d="M407 872c42 0 67 -26 67 -69c0 -46 -28 -75 -73 -75c-44 0 -68 25 -68 69c0 46 28 75 74 75zM589 871c42 0 67 -25 67 -68c0 -47 -28 -76 -73 -76c-44 0 -68 25 -68 70c0 46 28 74 74 74zM660 0h-167l-46 281h-9l-114 -281h-169l-86 645h155l-1 -87l43 -396h10l133 329
l-21 154h162l1 -103l49 -380h9l155 387l29 96h147z" />
    <glyph glyph-name="wdieresis" unicode="&#x1e85;" horiz-adv-x="723" 
d="M322 694c42 0 67 -26 67 -69c0 -46 -28 -75 -73 -75c-44 0 -68 25 -68 69c0 46 28 75 74 75zM504 693c42 0 67 -25 67 -68c0 -47 -28 -76 -73 -76c-44 0 -68 25 -68 70c0 46 28 74 74 74zM550 0h-158l-19 274h-13l-104 -274h-157l-54 463l142 9l1 -79l11 -231h12l87 222
l25 84h153l2 -75l12 -231h12l58 124c16 37 27 66 27 94c0 21 -6 40 -17 60l6 15l133 19c11 -26 17 -52 17 -79c0 -45 -17 -91 -46 -145z" />
    <glyph glyph-name="Germandbls" unicode="&#x1e9e;" horiz-adv-x="675" 
d="M395 655c94 0 169 -26 257 -70l4 -21l-151 -182c99 -64 150 -101 150 -184c0 -137 -117 -208 -248 -208c-58 0 -121 14 -171 40l39 143l18 9c47 -46 98 -72 138 -72c38 0 63 23 63 57c0 40 -43 77 -182 145l-1 22l143 175c-30 13 -56 19 -88 19c-82 0 -121 -39 -131 -117
l-29 -204l-19 -207h-159l32 190l24 221c15 147 126 244 311 244z" />
    <glyph glyph-name="Adotbelow" unicode="&#x1ea0;" horiz-adv-x="600" 
d="M559 0h-161l-5 92l-5 40l-113 2l-98 -3l-13 -30l-30 -101h-156l285 645h190zM373 251l-31 248h-10l-104 -247l71 -2zM264 -48c48 0 76 -29 76 -77c0 -52 -32 -85 -82 -85s-77 28 -77 78c0 52 32 84 83 84z" />
    <glyph glyph-name="adotbelow" unicode="&#x1ea1;" horiz-adv-x="471" 
d="M445 471l-48 -357l-4 -108l-144 -10l19 139h-14c-29 -53 -62 -102 -101 -145h-20c-90 28 -117 85 -117 165c0 126 74 273 238 319h6l87 -19l88 23zM172 128c22 0 68 65 123 201l2 17l-67 20c-53 0 -81 -62 -81 -155c0 -62 11 -83 23 -83zM219 -48c48 0 76 -29 76 -77
c0 -52 -32 -85 -82 -85s-77 28 -77 78c0 52 32 84 83 84z" />
    <glyph glyph-name="Ahookabove" unicode="&#x1ea2;" horiz-adv-x="600" 
d="M328 861c-20 0 -46 -9 -66 -25l-25 40c31 33 73 54 113 54c49 0 87 -31 87 -77c0 -27 -14 -48 -57 -86l24 -40l-54 -32l-46 71c33 24 53 53 53 72c0 16 -13 23 -29 23zM559 0h-161l-5 92l-5 40l-113 2l-98 -3l-13 -30l-30 -101h-156l285 645h190zM373 251l-31 248h-10
l-104 -247l71 -2z" />
    <glyph glyph-name="ahookabove" unicode="&#x1ea3;" horiz-adv-x="471" 
d="M234 683c-20 0 -46 -9 -66 -25l-25 40c31 33 73 54 113 54c49 0 87 -31 87 -77c0 -27 -14 -48 -57 -86l24 -40l-54 -32l-46 71c33 24 53 53 53 72c0 16 -13 23 -29 23zM445 471l-48 -357l-4 -108l-144 -10l19 139h-14c-29 -53 -62 -102 -101 -145h-20
c-90 28 -117 85 -117 165c0 126 74 273 238 319h6l87 -19l88 23zM172 128c22 0 68 65 123 201l2 17l-67 20c-53 0 -81 -62 -81 -155c0 -62 11 -83 23 -83z" />
    <glyph glyph-name="Acircumflexacute" unicode="&#x1ea4;" horiz-adv-x="600" 
d="M484 839l-52 39l70 133l10 5l78 -34l4 -11l-101 -132h-9zM235 706l-21 61c54 36 103 72 147 109h30c40 -37 85 -73 134 -109l-35 -61h-15c-36 21 -68 41 -103 62c-39 -21 -82 -41 -122 -62h-15zM453 645l106 -645h-161l-5 92l-5 40l-113 2l-98 -3l-13 -30l-30 -101h-156
l285 645h190zM373 251l-31 248h-10l-104 -247l71 -2z" />
    <glyph glyph-name="acircumflexacute" unicode="&#x1ea5;" horiz-adv-x="471" 
d="M391 661l-52 39l70 133l10 5l78 -34l4 -11l-101 -132h-9zM142 528l-21 61c54 36 103 72 147 109h30c40 -37 85 -73 134 -109l-35 -61h-15c-36 21 -68 41 -103 62c-39 -21 -82 -41 -122 -62h-15zM435 478l10 -7l-48 -357l-4 -108l-144 -10l19 139h-14
c-29 -53 -62 -102 -101 -145h-20c-90 28 -117 85 -117 165c0 126 74 273 238 319h6l87 -19zM172 128c22 0 68 65 123 201l2 17l-67 20c-53 0 -81 -62 -81 -155c0 -62 11 -83 23 -83z" />
    <glyph glyph-name="Acircumflexgrave" unicode="&#x1ea6;" horiz-adv-x="600" 
d="M478 839l-100 132l3 11l78 34l10 -5l70 -133l-51 -39h-10zM232 705l-20 61c54 36 103 72 147 109h30c39 -37 84 -73 133 -109l-35 -61h-15l-103 62c-39 -21 -82 -41 -122 -62h-15zM559 0h-161l-5 92l-5 40l-113 2l-98 -3l-13 -30l-30 -101h-156l285 645h190zM373 251
l-31 248h-10l-104 -247l71 -2z" />
    <glyph glyph-name="acircumflexgrave" unicode="&#x1ea7;" horiz-adv-x="471" 
d="M385 661l-100 132l3 11l78 34l10 -5l70 -133l-51 -39h-10zM139 527l-20 61c54 36 103 72 147 109h30c39 -37 84 -73 133 -109l-35 -61h-15l-103 62c-39 -21 -82 -41 -122 -62h-15zM435 478l10 -7l-48 -357l-4 -108l-144 -10l19 139h-14c-29 -53 -62 -102 -101 -145h-20
c-90 28 -117 85 -117 165c0 126 74 273 238 319h6l87 -19zM172 128c22 0 68 65 123 201l2 17l-67 20c-53 0 -81 -62 -81 -155c0 -62 11 -83 23 -83z" />
    <glyph glyph-name="Acircumflexhookabove" unicode="&#x1ea8;" horiz-adv-x="600" 
d="M449 997c-19 0 -43 -10 -63 -25l-23 38c29 32 69 52 108 52c46 0 83 -30 83 -74c0 -25 -15 -45 -55 -81l23 -38l-52 -31l-44 68c32 22 50 50 50 69c0 15 -11 22 -27 22zM232 706l-21 61c54 36 103 72 148 109h30c39 -37 84 -73 133 -109l-35 -61h-15l-103 62
c-39 -21 -82 -41 -122 -62h-15zM559 0h-161l-5 92l-5 40l-113 2l-98 -3l-13 -30l-30 -101h-156l285 645h190zM373 251l-31 248h-10l-104 -247l71 -2z" />
    <glyph glyph-name="acircumflexhookabove" unicode="&#x1ea9;" horiz-adv-x="471" 
d="M356 819c-19 0 -43 -10 -63 -25l-23 38c29 32 69 52 108 52c46 0 83 -30 83 -74c0 -25 -15 -45 -55 -81l23 -38l-52 -31l-44 68c32 22 50 50 50 69c0 15 -11 22 -27 22zM139 528l-21 61c54 36 103 72 148 109h30c39 -37 84 -73 133 -109l-35 -61h-15l-103 62
c-39 -21 -82 -41 -122 -62h-15zM435 478l10 -7l-48 -357l-4 -108l-144 -10l19 139h-14c-29 -53 -62 -102 -101 -145h-20c-90 28 -117 85 -117 165c0 126 74 273 238 319h6l87 -19zM172 128c22 0 68 65 123 201l2 17l-67 20c-53 0 -81 -62 -81 -155c0 -62 11 -83 23 -83z" />
    <glyph glyph-name="Acircumflextilde" unicode="&#x1eaa;" horiz-adv-x="600" 
d="M573 1001v-12l-68 -91l-12 -4c-45 5 -118 32 -142 32c-21 0 -38 -24 -59 -50h-12l-42 42v12l68 90l12 5c45 -7 118 -33 142 -33c20 0 37 24 59 51h13zM378 769c-40 -21 -82 -42 -122 -63h-15l-21 62c54 35 103 71 147 109h30c39 -38 84 -74 134 -109l-35 -62h-15
c-36 21 -68 42 -103 63zM453 645l106 -645h-161l-5 92l-5 40l-113 2l-98 -3l-13 -30l-30 -101h-156l285 645h190zM373 251l-31 248h-10l-104 -247l71 -2z" />
    <glyph glyph-name="acircumflextilde" unicode="&#x1eab;" horiz-adv-x="471" 
d="M480 823v-12l-68 -91l-12 -4c-45 5 -118 32 -142 32c-21 0 -38 -24 -59 -50h-12l-42 42v12l68 90l12 5c45 -7 118 -33 142 -33c20 0 37 24 59 51h13zM285 591c-40 -21 -82 -42 -122 -63h-15l-21 62c54 35 103 71 147 109h30c39 -38 84 -74 134 -109l-35 -62h-15
c-36 21 -68 42 -103 63zM435 478l10 -7l-48 -357l-4 -108l-144 -10l19 139h-14c-29 -53 -62 -102 -101 -145h-20c-90 28 -117 85 -117 165c0 126 74 273 238 319h6l87 -19zM172 128c22 0 68 65 123 201l2 17l-67 20c-53 0 -81 -62 -81 -155c0 -62 11 -83 23 -83z" />
    <glyph glyph-name="Acircumflexdotbelow" unicode="&#x1eac;" horiz-adv-x="600" 
d="M238 725l-21 61c54 36 103 72 148 109h30c39 -37 84 -73 133 -109l-35 -61h-15l-103 62c-39 -21 -82 -41 -122 -62h-15zM559 0h-161l-5 92l-5 40l-113 2l-98 -3l-13 -30l-30 -101h-156l285 645h190zM373 251l-31 248h-10l-104 -247l71 -2zM264 -48c48 0 76 -29 76 -77
c0 -52 -32 -85 -82 -85s-77 28 -77 78c0 52 32 84 83 84z" />
    <glyph glyph-name="acircumflexdotbelow" unicode="&#x1ead;" horiz-adv-x="471" 
d="M149 527l-30 59c50 40 105 91 163 144h31c38 -47 86 -98 132 -144l-45 -59h-15c-38 31 -74 61 -100 88c-32 -27 -75 -57 -121 -88h-15zM435 478l10 -7l-48 -357l-4 -108l-144 -10l19 139h-14c-29 -53 -62 -102 -101 -145h-20c-90 28 -117 85 -117 165
c0 126 74 273 238 319h6l87 -19zM172 128c22 0 68 65 123 201l2 17l-67 20c-53 0 -81 -62 -81 -155c0 -62 11 -83 23 -83zM219 -48c48 0 76 -29 76 -77c0 -52 -32 -85 -82 -85s-77 28 -77 78c0 52 32 84 83 84z" />
    <glyph glyph-name="Abreveacute" unicode="&#x1eae;" horiz-adv-x="600" 
d="M367 846l-47 38c32 43 63 87 94 132l11 3l71 -46l2 -12c-39 -38 -78 -75 -118 -111zM370 699c-80 0 -136 40 -155 113l40 48h22c15 -35 53 -53 99 -53c48 0 87 19 109 53h22l28 -48c-34 -73 -89 -113 -165 -113zM559 0h-161l-5 92l-5 40l-113 2l-98 -3l-13 -30l-30 -101
h-156l285 645h190zM373 251l-31 248h-10l-104 -247l71 -2z" />
    <glyph glyph-name="abreveacute" unicode="&#x1eaf;" horiz-adv-x="471" 
d="M274 668l-47 38c32 43 63 87 94 132l11 3l71 -46l2 -12c-39 -38 -78 -75 -118 -111zM277 521c-80 0 -136 40 -155 113l40 48h22c15 -35 53 -53 99 -53c48 0 87 19 109 53h22l28 -48c-34 -73 -89 -113 -165 -113zM445 471l-48 -357l-4 -108l-144 -10l19 139h-14
c-29 -53 -62 -102 -101 -145h-20c-90 28 -117 85 -117 165c0 126 74 273 238 319h6l87 -19l88 23zM172 128c22 0 68 65 123 201l2 17l-67 20c-53 0 -81 -62 -81 -155c0 -62 11 -83 23 -83z" />
    <glyph glyph-name="Abrevegrave" unicode="&#x1eb0;" horiz-adv-x="600" 
d="M385 846l-13 4c-40 36 -79 73 -118 111l2 12l71 46l11 -3c31 -45 62 -89 94 -132zM370 699c-80 0 -136 40 -155 112l40 49h22c16 -35 53 -54 100 -54s86 20 109 54h22l27 -49c-33 -72 -88 -112 -165 -112zM559 0h-161l-5 92l-5 40l-113 2l-98 -3l-13 -30l-30 -101h-156
l285 645h190zM373 251l-31 248h-10l-104 -247l71 -2z" />
    <glyph glyph-name="abrevegrave" unicode="&#x1eb1;" horiz-adv-x="471" 
d="M292 668l-13 4c-40 36 -79 73 -118 111l2 12l71 46l11 -3c31 -45 62 -89 94 -132zM277 521c-80 0 -136 40 -155 112l40 49h22c16 -35 53 -54 100 -54s86 20 109 54h22l27 -49c-33 -72 -88 -112 -165 -112zM445 471l-48 -357l-4 -108l-144 -10l19 139h-14
c-29 -53 -62 -102 -101 -145h-20c-90 28 -117 85 -117 165c0 126 74 273 238 319h6l87 -19l88 23zM172 128c22 0 68 65 123 201l2 17l-67 20c-53 0 -81 -62 -81 -155c0 -62 11 -83 23 -83z" />
    <glyph glyph-name="Abrevehookabove" unicode="&#x1eb2;" horiz-adv-x="600" 
d="M348 1007c-20 0 -46 -9 -66 -25l-25 40c31 33 73 54 113 54c49 0 87 -31 87 -77c0 -28 -14 -49 -57 -86l24 -40l-54 -32l-46 71c33 24 53 53 53 72c0 16 -13 23 -29 23zM370 700c-80 0 -136 40 -155 112l40 49h22c15 -36 53 -54 99 -54c48 0 87 20 109 54h22l28 -49
c-34 -72 -89 -112 -165 -112zM559 0h-161l-5 92l-5 40l-113 2l-98 -3l-13 -30l-30 -101h-156l285 645h190zM373 251l-31 248h-10l-104 -247l71 -2z" />
    <glyph glyph-name="abrevehookabove" unicode="&#x1eb3;" horiz-adv-x="471" 
d="M255 829c-20 0 -46 -9 -66 -25l-25 40c31 33 73 54 113 54c49 0 87 -31 87 -77c0 -28 -14 -49 -57 -86l24 -40l-54 -32l-46 71c33 24 53 53 53 72c0 16 -13 23 -29 23zM277 522c-80 0 -136 40 -155 112l40 49h22c15 -36 53 -54 99 -54c48 0 87 20 109 54h22l28 -49
c-34 -72 -89 -112 -165 -112zM445 471l-48 -357l-4 -108l-144 -10l19 139h-14c-29 -53 -62 -102 -101 -145h-20c-90 28 -117 85 -117 165c0 126 74 273 238 319h6l87 -19l88 23zM172 128c22 0 68 65 123 201l2 17l-67 20c-53 0 -81 -62 -81 -155c0 -62 11 -83 23 -83z" />
    <glyph glyph-name="Abrevetilde" unicode="&#x1eb4;" horiz-adv-x="600" 
d="M567 1004v-12l-67 -91l-13 -4c-45 5 -117 33 -142 33c-20 0 -37 -25 -59 -51h-12l-42 42v12l68 90l13 5c44 -7 117 -33 141 -33c21 0 37 24 60 51h12zM496 850l26 -45c-32 -68 -84 -106 -156 -106c-75 0 -128 38 -147 106l39 45h20c15 -33 50 -50 94 -50
c45 0 82 18 103 50h21zM453 645l106 -645h-161l-5 92l-5 40l-113 2l-98 -3l-13 -30l-30 -101h-156l285 645h190zM373 251l-31 248h-10l-104 -247l71 -2z" />
    <glyph glyph-name="abrevetilde" unicode="&#x1eb5;" horiz-adv-x="471" 
d="M474 826v-12l-67 -91l-13 -4c-45 5 -117 33 -142 33c-20 0 -37 -25 -59 -51h-12l-42 42v12l68 90l13 5c44 -7 117 -33 141 -33c21 0 37 24 60 51h12zM403 672l26 -45c-32 -68 -84 -106 -156 -106c-75 0 -128 38 -147 106l39 45h20c15 -33 50 -50 94 -50
c45 0 82 18 103 50h21zM435 478l10 -7l-48 -357l-4 -108l-144 -10l19 139h-14c-29 -53 -62 -102 -101 -145h-20c-90 28 -117 85 -117 165c0 126 74 273 238 319h6l87 -19zM172 128c22 0 68 65 123 201l2 17l-67 20c-53 0 -81 -62 -81 -155c0 -62 11 -83 23 -83z" />
    <glyph glyph-name="Abrevedotbelow" unicode="&#x1eb6;" horiz-adv-x="600" 
d="M367 719c-80 0 -136 40 -155 113l40 48h22c16 -35 53 -53 100 -53s86 19 109 53h22l27 -48c-33 -73 -88 -113 -165 -113zM559 0h-161l-5 92l-5 40l-113 2l-98 -3l-13 -30l-30 -101h-156l285 645h190zM373 251l-31 248h-10l-104 -247l71 -2zM264 -48c48 0 76 -29 76 -77
c0 -52 -32 -85 -82 -85s-77 28 -77 78c0 52 32 84 83 84z" />
    <glyph glyph-name="abrevedotbelow" unicode="&#x1eb7;" horiz-adv-x="471" 
d="M270 532c-98 0 -139 63 -149 129l39 51h22c12 -47 48 -72 96 -72c49 0 90 25 113 72h22l27 -51c-26 -69 -82 -129 -170 -129zM445 471l-48 -357l-4 -108l-144 -10l19 139h-14c-29 -53 -62 -102 -101 -145h-20c-90 28 -117 85 -117 165c0 126 74 273 238 319h6l87 -19
l88 23zM172 128c22 0 68 65 123 201l2 17l-67 20c-53 0 -81 -62 -81 -155c0 -62 11 -83 23 -83zM219 -48c48 0 76 -29 76 -77c0 -52 -32 -85 -82 -85s-77 28 -77 78c0 52 32 84 83 84z" />
    <glyph glyph-name="Edotbelow" unicode="&#x1eb8;" horiz-adv-x="514" 
d="M265 520l-19 -132l104 -1l103 3l7 -11l-24 -117l-112 3l-96 -1l-8 -58l-8 -82l106 -1l158 6l7 -12l-24 -117h-417l32 191l48 454h423l7 -12l-25 -117l-153 5zM276 -48c48 0 76 -29 76 -77c0 -52 -32 -85 -82 -85s-77 28 -77 78c0 52 32 84 83 84z" />
    <glyph glyph-name="edotbelow" unicode="&#x1eb9;" horiz-adv-x="416" 
d="M331 173l47 -60c-51 -64 -112 -105 -177 -123h-15c-119 13 -167 77 -167 183c0 175 99 297 258 305l14 -1c66 -13 109 -50 109 -116c0 -78 -68 -136 -244 -184c5 -54 22 -74 56 -74c37 0 72 26 101 73zM239 384c-46 0 -75 -42 -83 -122c79 21 116 47 116 90
c0 22 -9 32 -33 32zM186 -48c48 0 76 -29 76 -77c0 -52 -32 -85 -82 -85s-77 28 -77 78c0 52 32 84 83 84z" />
    <glyph glyph-name="Ehookabove" unicode="&#x1eba;" horiz-adv-x="514" 
d="M302 861c-20 0 -46 -9 -66 -25l-25 40c31 33 73 54 113 54c49 0 87 -31 87 -77c0 -27 -14 -48 -57 -86l24 -40l-54 -32l-46 71c33 24 53 53 53 72c0 16 -13 23 -29 23zM265 520l-19 -132l104 -1l103 3l7 -11l-24 -117l-112 3l-96 -1l-8 -58l-8 -82l106 -1l158 6l7 -12
l-24 -117h-417l32 191l48 454h423l7 -12l-25 -117l-153 5z" />
    <glyph glyph-name="ehookabove" unicode="&#x1ebb;" horiz-adv-x="416" 
d="M214 683c-20 0 -46 -9 -66 -25l-25 40c31 33 73 54 113 54c49 0 87 -31 87 -77c0 -27 -14 -48 -57 -86l24 -40l-54 -32l-46 71c33 24 53 53 53 72c0 16 -13 23 -29 23zM331 173l47 -60c-51 -64 -112 -105 -177 -123h-15c-119 13 -167 77 -167 183c0 175 99 297 258 305
l14 -1c66 -13 109 -50 109 -116c0 -78 -68 -136 -244 -184c5 -54 22 -74 56 -74c37 0 72 26 101 73zM239 384c-46 0 -75 -42 -83 -122c79 21 116 47 116 90c0 22 -9 32 -33 32z" />
    <glyph glyph-name="Ecircumflexacute" unicode="&#x1ebe;" horiz-adv-x="514" 
d="M459 839l-52 39l70 133l10 5l78 -34l4 -11l-101 -132h-9zM210 706l-21 61c54 36 103 72 147 109h30c40 -37 85 -73 134 -109l-35 -61h-15c-36 21 -68 41 -103 62c-39 -21 -82 -41 -122 -62h-15zM545 645l7 -12l-25 -117l-153 5l-109 -1l-19 -132l104 -1l103 3l7 -11
l-24 -117l-112 3l-96 -1l-8 -58l-8 -82l106 -1l158 6l7 -12l-24 -117h-417l32 191l48 454h423z" />
    <glyph glyph-name="ecircumflexacute" unicode="&#x1ebf;" horiz-adv-x="416" 
d="M371 661l-52 39l70 133l10 5l78 -34l4 -11l-101 -132h-9zM248 698h30c40 -37 85 -73 134 -109l-35 -61h-15c-36 21 -68 41 -103 62c-39 -21 -82 -41 -122 -62h-15l-21 61c54 36 103 72 147 109zM400 361c0 -78 -68 -136 -244 -184c5 -54 22 -74 56 -74c37 0 72 26 101 73
l18 -3l47 -60c-51 -64 -112 -105 -177 -123h-15c-119 13 -167 77 -167 183c0 175 99 297 258 305l14 -1c66 -13 109 -50 109 -116zM156 262c79 21 116 47 116 90c0 22 -9 32 -33 32c-46 0 -75 -42 -83 -122z" />
    <glyph glyph-name="Ecircumflexgrave" unicode="&#x1ec0;" horiz-adv-x="514" 
d="M453 839l-100 132l3 11l78 34l10 -5l70 -133l-51 -39h-10zM207 705l-20 61c54 36 103 72 147 109h30c39 -37 84 -73 133 -109l-35 -61h-15l-103 62c-39 -21 -82 -41 -122 -62h-15zM265 520l-19 -132l104 -1l103 3l7 -11l-24 -117l-112 3l-96 -1l-8 -58l-8 -82l106 -1
l158 6l7 -12l-24 -117h-417l32 191l48 454h423l7 -12l-25 -117l-153 5z" />
    <glyph glyph-name="ecircumflexgrave" unicode="&#x1ec1;" horiz-adv-x="416" 
d="M365 661l-100 132l3 11l78 34l10 -5l70 -133l-51 -39h-10zM246 697h30c39 -37 84 -73 133 -109l-35 -61h-15l-103 62c-39 -21 -82 -41 -122 -62h-15l-20 61c54 36 103 72 147 109zM400 361c0 -78 -68 -136 -244 -184c5 -54 22 -74 56 -74c37 0 72 26 101 73l18 -3l47 -60
c-51 -64 -112 -105 -177 -123h-15c-119 13 -167 77 -167 183c0 175 99 297 258 305l14 -1c66 -13 109 -50 109 -116zM156 262c79 21 116 47 116 90c0 22 -9 32 -33 32c-46 0 -75 -42 -83 -122z" />
    <glyph glyph-name="Ecircumflexhookabove" unicode="&#x1ec2;" horiz-adv-x="514" 
d="M424 997c-19 0 -43 -10 -63 -25l-23 38c29 32 69 52 108 52c46 0 83 -30 83 -74c0 -25 -15 -45 -55 -81l23 -38l-52 -31l-44 68c32 22 50 50 50 69c0 15 -11 22 -27 22zM207 706l-21 61c54 36 103 72 148 109h30c39 -37 84 -73 133 -109l-35 -61h-15l-103 62
c-39 -21 -82 -41 -122 -62h-15zM265 520l-19 -132l104 -1l103 3l7 -11l-24 -117l-112 3l-96 -1l-8 -58l-8 -82l106 -1l158 6l7 -12l-24 -117h-417l32 191l48 454h423l7 -12l-25 -117l-153 5z" />
    <glyph glyph-name="ecircumflexhookabove" unicode="&#x1ec3;" horiz-adv-x="416" 
d="M441 810c0 -25 -15 -45 -55 -81l23 -38l-52 -31l-44 68c32 22 50 50 50 69c0 15 -11 22 -27 22c-19 0 -43 -10 -63 -25l-23 38c29 32 69 52 108 52c46 0 83 -30 83 -74zM246 698h30c39 -37 84 -73 133 -109l-35 -61h-15l-103 62c-39 -21 -82 -41 -122 -62h-15l-21 61
c54 36 103 72 148 109zM400 361c0 -78 -68 -136 -244 -184c5 -54 22 -74 56 -74c37 0 72 26 101 73l18 -3l47 -60c-51 -64 -112 -105 -177 -123h-15c-119 13 -167 77 -167 183c0 175 99 297 258 305l14 -1c66 -13 109 -50 109 -116zM156 262c79 21 116 47 116 90
c0 22 -9 32 -33 32c-46 0 -75 -42 -83 -122z" />
    <glyph glyph-name="Ecircumflextilde" unicode="&#x1ec4;" horiz-adv-x="514" 
d="M453 839l-100 132l3 11l78 34l10 -5l70 -133l-51 -39h-10zM207 705l-20 61c54 36 103 72 147 109h30c39 -37 84 -73 133 -109l-35 -61h-15l-103 62c-39 -21 -82 -41 -122 -62h-15zM265 520l-19 -132l104 -1l103 3l7 -11l-24 -117l-112 3l-96 -1l-8 -58l-8 -82l106 -1
l158 6l7 -12l-24 -117h-417l32 191l48 454h423l7 -12l-25 -117l-153 5z" />
    <glyph glyph-name="ecircumflextilde" unicode="&#x1ec5;" horiz-adv-x="416" 
d="M460 823v-12l-68 -91l-12 -4c-45 5 -118 32 -142 32c-21 0 -38 -24 -59 -50h-12l-42 42v12l68 90l12 5c45 -7 118 -33 142 -33c20 0 37 24 59 51h13zM254 699h30c39 -38 84 -74 134 -109l-35 -62h-15c-36 21 -68 42 -103 63c-40 -21 -82 -42 -122 -63h-15l-21 62
c54 35 103 71 147 109zM400 361c0 -78 -68 -136 -244 -184c5 -54 22 -74 56 -74c37 0 72 26 101 73l18 -3l47 -60c-51 -64 -112 -105 -177 -123h-15c-119 13 -167 77 -167 183c0 175 99 297 258 305l14 -1c66 -13 109 -50 109 -116zM156 262c79 21 116 47 116 90
c0 22 -9 32 -33 32c-46 0 -75 -42 -83 -122z" />
    <glyph glyph-name="Ecircumflexdotbelow" unicode="&#x1ec6;" horiz-adv-x="514" 
d="M213 725l-21 61c54 36 103 72 148 109h30c39 -37 84 -73 133 -109l-35 -61h-15l-103 62c-39 -21 -82 -41 -122 -62h-15zM265 520l-19 -132l104 -1l103 3l7 -11l-24 -117l-112 3l-96 -1l-8 -58l-8 -82l106 -1l158 6l7 -12l-24 -117h-417l32 191l48 454h423l7 -12l-25 -117
l-153 5zM276 -48c48 0 76 -29 76 -77c0 -52 -32 -85 -82 -85s-77 28 -77 78c0 52 32 84 83 84z" />
    <glyph glyph-name="ecircumflexdotbelow" unicode="&#x1ec7;" horiz-adv-x="416" 
d="M126 527l-30 59c50 40 105 91 163 144h31c38 -47 86 -98 132 -144l-45 -59h-15c-38 31 -74 61 -100 88c-32 -27 -75 -57 -121 -88h-15zM400 361c0 -78 -68 -136 -244 -184c5 -54 22 -74 56 -74c37 0 72 26 101 73l18 -3l47 -60c-51 -64 -112 -105 -177 -123h-15
c-119 13 -167 77 -167 183c0 175 99 297 258 305l14 -1c66 -13 109 -50 109 -116zM156 262c79 21 116 47 116 90c0 22 -9 32 -33 32c-46 0 -75 -42 -83 -122zM186 -48c48 0 76 -29 76 -77c0 -52 -32 -85 -82 -85s-77 28 -77 78c0 52 32 84 83 84z" />
    <glyph glyph-name="Ihookabove" unicode="&#x1ec8;" horiz-adv-x="304" 
d="M198 930c49 0 87 -31 87 -77c0 -27 -14 -48 -57 -86l24 -40l-54 -32l-46 71c33 24 53 53 53 72c0 16 -13 23 -29 23c-20 0 -46 -9 -66 -25l-25 40c31 33 73 54 113 54zM220 206l-19 -206h-159l32 191l48 454h161z" />
    <glyph glyph-name="ihookabove" unicode="&#x1ec9;" horiz-adv-x="245" 
d="M146 752c49 0 87 -31 87 -77c0 -27 -14 -48 -57 -86l24 -40l-54 -32l-46 71c33 24 53 53 53 72c0 16 -13 23 -29 23c-20 0 -46 -9 -66 -25l-25 40c31 33 73 54 113 54zM173 114l-5 -108l-144 -10l49 358l4 108l143 10z" />
    <glyph glyph-name="Idotbelow" unicode="&#x1eca;" horiz-adv-x="304" 
d="M220 206l-19 -206h-159l32 191l48 454h161zM114 -48c48 0 76 -29 76 -77c0 -52 -32 -85 -82 -85s-77 28 -77 78c0 52 32 84 83 84z" />
    <glyph glyph-name="idotbelow" unicode="&#x1ecb;" horiz-adv-x="245" 
d="M172 708c48 0 76 -29 76 -78c0 -52 -32 -85 -82 -85s-77 29 -77 78c0 52 32 85 83 85zM173 114l-5 -108l-144 -10l49 358l4 108l143 10zM89 -48c48 0 76 -29 76 -77c0 -52 -32 -85 -82 -85s-77 28 -77 78c0 52 32 84 83 84z" />
    <glyph glyph-name="Odotbelow" unicode="&#x1ecc;" horiz-adv-x="642" 
d="M373 655c162 0 260 -90 260 -275c0 -231 -121 -391 -342 -391c-161 0 -259 93 -259 279c0 231 121 387 341 387zM355 527c-100 0 -158 -62 -158 -258c0 -114 28 -160 110 -160c98 0 158 63 158 260c0 113 -28 158 -110 158zM308 -48c48 0 76 -29 76 -77
c0 -52 -32 -85 -82 -85s-77 28 -77 78c0 52 32 84 83 84z" />
    <glyph glyph-name="odotbelow" unicode="&#x1ecd;" horiz-adv-x="449" 
d="M279 478l14 -1c83 -18 136 -72 136 -172c0 -189 -98 -306 -258 -316l-14 2c-86 19 -137 74 -137 181c0 178 99 297 259 306zM251 366c-73 0 -94 -65 -94 -197c0 -52 10 -71 41 -71c71 0 92 66 92 198c0 52 -10 70 -39 70zM183 -48c48 0 76 -29 76 -77
c0 -52 -32 -85 -82 -85s-77 28 -77 78c0 52 32 84 83 84z" />
    <glyph glyph-name="Ohookabove" unicode="&#x1ece;" horiz-adv-x="642" 
d="M368 930c49 0 87 -31 87 -77c0 -27 -14 -48 -57 -86l24 -40l-54 -32l-46 71c33 24 53 53 53 72c0 16 -13 23 -29 23c-20 0 -46 -9 -66 -25l-25 40c31 33 73 54 113 54zM373 655c162 0 260 -90 260 -275c0 -231 -121 -391 -342 -391c-161 0 -259 93 -259 279
c0 231 121 387 341 387zM355 527c-100 0 -158 -62 -158 -258c0 -114 28 -160 110 -160c98 0 158 63 158 260c0 113 -28 158 -110 158z" />
    <glyph glyph-name="ohookabove" unicode="&#x1ecf;" horiz-adv-x="449" 
d="M256 752c49 0 87 -31 87 -77c0 -27 -14 -48 -57 -86l24 -40l-54 -32l-46 71c33 24 53 53 53 72c0 16 -13 23 -29 23c-20 0 -46 -9 -66 -25l-25 40c31 33 73 54 113 54zM279 478l14 -1c83 -18 136 -72 136 -172c0 -189 -98 -306 -258 -316l-14 2c-86 19 -137 74 -137 181
c0 178 99 297 259 306zM251 366c-73 0 -94 -65 -94 -197c0 -52 10 -71 41 -71c71 0 92 66 92 198c0 52 -10 70 -39 70z" />
    <glyph glyph-name="Ocircumflexacute" unicode="&#x1ed0;" horiz-adv-x="642" 
d="M609 982l4 -11l-101 -132h-9l-52 39l70 133l10 5zM380 876h30c40 -37 85 -73 134 -109l-35 -61h-15c-36 21 -68 41 -103 62c-39 -21 -82 -41 -122 -62h-15l-21 61c54 36 103 72 147 109zM373 655c162 0 260 -90 260 -275c0 -231 -121 -391 -342 -391
c-161 0 -259 93 -259 279c0 231 121 387 341 387zM355 527c-100 0 -158 -62 -158 -258c0 -114 28 -160 110 -160c98 0 158 63 158 260c0 113 -28 158 -110 158z" />
    <glyph glyph-name="ocircumflexacute" unicode="&#x1ed1;" horiz-adv-x="449" 
d="M497 804l4 -11l-101 -132h-9l-52 39l70 133l10 5zM268 698h30c40 -37 85 -73 134 -109l-35 -61h-15c-36 21 -68 41 -103 62c-39 -21 -82 -41 -122 -62h-15l-21 61c54 36 103 72 147 109zM279 478l14 -1c83 -18 136 -72 136 -172c0 -189 -98 -306 -258 -316l-14 2
c-86 19 -137 74 -137 181c0 178 99 297 259 306zM251 366c-73 0 -94 -65 -94 -197c0 -52 10 -71 41 -71c71 0 92 66 92 198c0 52 -10 70 -39 70z" />
    <glyph glyph-name="Ocircumflexgrave" unicode="&#x1ed2;" horiz-adv-x="642" 
d="M488 1011l70 -133l-51 -39h-10l-100 132l3 11l78 34zM378 875h30c39 -37 84 -73 133 -109l-35 -61h-15l-103 62c-39 -21 -82 -41 -122 -62h-15l-20 61c54 36 103 72 147 109zM373 655c162 0 260 -90 260 -275c0 -231 -121 -391 -342 -391c-161 0 -259 93 -259 279
c0 231 121 387 341 387zM355 527c-100 0 -158 -62 -158 -258c0 -114 28 -160 110 -160c98 0 158 63 158 260c0 113 -28 158 -110 158z" />
    <glyph glyph-name="ocircumflexgrave" unicode="&#x1ed3;" horiz-adv-x="449" 
d="M376 833l70 -133l-51 -39h-10l-100 132l3 11l78 34zM266 697h30c39 -37 84 -73 133 -109l-35 -61h-15l-103 62c-39 -21 -82 -41 -122 -62h-15l-20 61c54 36 103 72 147 109zM279 478l14 -1c83 -18 136 -72 136 -172c0 -189 -98 -306 -258 -316l-14 2
c-86 19 -137 74 -137 181c0 178 99 297 259 306zM251 366c-73 0 -94 -65 -94 -197c0 -52 10 -71 41 -71c71 0 92 66 92 198c0 52 -10 70 -39 70z" />
    <glyph glyph-name="Ocircumflexhookabove" unicode="&#x1ed4;" horiz-adv-x="642" 
d="M490 1062c46 0 83 -30 83 -74c0 -25 -15 -45 -55 -81l23 -38l-52 -31l-44 68c32 22 50 50 50 69c0 15 -11 22 -27 22c-19 0 -43 -10 -63 -25l-23 38c29 32 69 52 108 52zM378 876h30c39 -37 84 -73 133 -109l-35 -61h-15l-103 62c-39 -21 -82 -41 -122 -62h-15l-21 61
c54 36 103 72 148 109zM373 655c162 0 260 -90 260 -275c0 -231 -121 -391 -342 -391c-161 0 -259 93 -259 279c0 231 121 387 341 387zM355 527c-100 0 -158 -62 -158 -258c0 -114 28 -160 110 -160c98 0 158 63 158 260c0 113 -28 158 -110 158z" />
    <glyph glyph-name="ocircumflexhookabove" unicode="&#x1ed5;" horiz-adv-x="449" 
d="M378 884c46 0 83 -30 83 -74c0 -25 -15 -45 -55 -81l23 -38l-52 -31l-44 68c32 22 50 50 50 69c0 15 -11 22 -27 22c-19 0 -43 -10 -63 -25l-23 38c29 32 69 52 108 52zM266 698h30c39 -37 84 -73 133 -109l-35 -61h-15l-103 62c-39 -21 -82 -41 -122 -62h-15l-21 61
c54 36 103 72 148 109zM279 478l14 -1c83 -18 136 -72 136 -172c0 -189 -98 -306 -258 -316l-14 2c-86 19 -137 74 -137 181c0 178 99 297 259 306zM251 366c-73 0 -94 -65 -94 -197c0 -52 10 -71 41 -71c71 0 92 66 92 198c0 52 -10 70 -39 70z" />
    <glyph glyph-name="Ocircumflextilde" unicode="&#x1ed6;" horiz-adv-x="642" 
d="M592 1001v-12l-68 -91l-12 -4c-45 5 -118 32 -142 32c-21 0 -38 -24 -59 -50h-12l-42 42v12l68 90l12 5c45 -7 118 -33 142 -33c20 0 37 24 59 51h13zM386 877h30c39 -38 84 -74 134 -109l-35 -62h-15c-36 21 -68 42 -103 63c-40 -21 -82 -42 -122 -63h-15l-21 62
c54 35 103 71 147 109zM373 655c162 0 260 -90 260 -275c0 -231 -121 -391 -342 -391c-161 0 -259 93 -259 279c0 231 121 387 341 387zM355 527c-100 0 -158 -62 -158 -258c0 -114 28 -160 110 -160c98 0 158 63 158 260c0 113 -28 158 -110 158z" />
    <glyph glyph-name="ocircumflextilde" unicode="&#x1ed7;" horiz-adv-x="449" 
d="M480 823v-12l-68 -91l-12 -4c-45 5 -118 32 -142 32c-21 0 -38 -24 -59 -50h-12l-42 42v12l68 90l12 5c45 -7 118 -33 142 -33c20 0 37 24 59 51h13zM274 699h30c39 -38 84 -74 134 -109l-35 -62h-15c-36 21 -68 42 -103 63c-40 -21 -82 -42 -122 -63h-15l-21 62
c54 35 103 71 147 109zM279 478l14 -1c83 -18 136 -72 136 -172c0 -189 -98 -306 -258 -316l-14 2c-86 19 -137 74 -137 181c0 178 99 297 259 306zM251 366c-73 0 -94 -65 -94 -197c0 -52 10 -71 41 -71c71 0 92 66 92 198c0 52 -10 70 -39 70z" />
    <glyph glyph-name="Ocircumflexdotbelow" unicode="&#x1ed8;" horiz-adv-x="642" 
d="M257 725l-21 61c54 36 103 72 148 109h30c39 -37 84 -73 133 -109l-35 -61h-15l-103 62c-39 -21 -82 -41 -122 -62h-15zM373 655c162 0 260 -90 260 -275c0 -231 -121 -391 -342 -391c-161 0 -259 93 -259 279c0 231 121 387 341 387zM355 527c-100 0 -158 -62 -158 -258
c0 -114 28 -160 110 -160c98 0 158 63 158 260c0 113 -28 158 -110 158zM308 -48c48 0 76 -29 76 -77c0 -52 -32 -85 -82 -85s-77 28 -77 78c0 52 32 84 83 84z" />
    <glyph glyph-name="ocircumflexdotbelow" unicode="&#x1ed9;" horiz-adv-x="449" 
d="M150 527l-30 59c50 40 105 91 163 144h31c38 -47 86 -98 132 -144l-45 -59h-15c-38 31 -74 61 -100 88c-32 -27 -75 -57 -121 -88h-15zM279 478l14 -1c83 -18 136 -72 136 -172c0 -189 -98 -306 -258 -316l-14 2c-86 19 -137 74 -137 181c0 178 99 297 259 306zM251 366
c-73 0 -94 -65 -94 -197c0 -52 10 -71 41 -71c71 0 92 66 92 198c0 52 -10 70 -39 70zM183 -48c48 0 76 -29 76 -77c0 -52 -32 -85 -82 -85s-77 28 -77 78c0 52 32 84 83 84z" />
    <glyph glyph-name="Ohornacute" unicode="&#x1eda;" horiz-adv-x="647" 
d="M491 896l40 -92l-5 -14c-80 -29 -151 -52 -223 -75l-15 4l-24 64c76 39 143 75 213 117zM660 781c37 0 63 -34 63 -84c0 -74 -58 -129 -134 -142c30 -47 43 -101 43 -174c0 -230 -126 -392 -341 -392c-165 0 -259 96 -259 285c0 230 138 381 336 381
c88 0 131 -29 173 -29c36 0 60 20 60 56c0 20 -8 42 -22 57l4 12c22 15 52 30 77 30zM354 527c-98 0 -157 -65 -157 -254c0 -114 24 -164 112 -164c97 0 157 65 157 256c0 112 -24 162 -112 162z" />
    <glyph glyph-name="ohornacute" unicode="&#x1edb;" horiz-adv-x="464" 
d="M171 521l-37 58c68 53 128 102 188 156l15 -1l55 -84l-3 -15c-73 -42 -137 -79 -204 -115zM537 518c0 -63 -61 -120 -120 -129c11 -23 17 -50 17 -83c0 -190 -98 -307 -260 -317l-13 2c-88 19 -139 74 -139 181c0 178 99 297 260 306l14 -1c26 -6 58 -22 80 -22
c25 0 39 17 39 43c0 23 -11 41 -30 58l3 13c26 21 52 35 77 35c37 0 72 -35 72 -86zM201 97c72 0 94 66 94 200c0 52 -11 70 -41 70c-73 0 -95 -65 -95 -198c0 -53 11 -72 42 -72z" />
    <glyph glyph-name="Ohorngrave" unicode="&#x1edc;" horiz-adv-x="647" 
d="M297 897l14 4c70 -42 138 -78 214 -116l-25 -65l-14 -4c-73 23 -144 46 -223 75l-5 14zM660 781c37 0 63 -34 63 -84c0 -74 -58 -129 -134 -142c30 -47 43 -101 43 -174c0 -230 -126 -392 -341 -392c-165 0 -259 96 -259 285c0 230 138 381 336 381c88 0 131 -29 173 -29
c36 0 60 20 60 56c0 20 -8 42 -22 57l4 12c22 15 52 30 77 30zM354 527c-98 0 -157 -65 -157 -254c0 -114 24 -164 112 -164c97 0 157 65 157 256c0 112 -24 162 -112 162z" />
    <glyph glyph-name="ohorngrave" unicode="&#x1edd;" horiz-adv-x="464" 
d="M339 521l-14 -1c-67 36 -132 73 -205 115l-3 15l56 84l14 1c61 -54 120 -103 188 -156zM537 518c0 -63 -61 -120 -120 -129c11 -23 17 -50 17 -83c0 -190 -98 -307 -260 -317l-13 2c-88 19 -139 74 -139 181c0 178 99 297 260 306l14 -1c26 -6 58 -22 80 -22
c25 0 39 17 39 43c0 23 -11 41 -30 58l3 13c26 21 52 35 77 35c37 0 72 -35 72 -86zM201 97c72 0 94 66 94 200c0 52 -11 70 -41 70c-73 0 -95 -65 -95 -198c0 -53 11 -72 42 -72z" />
    <glyph glyph-name="Ohornhookabove" unicode="&#x1ede;" horiz-adv-x="647" 
d="M368 930c49 0 87 -31 87 -77c0 -27 -14 -48 -57 -86l24 -40l-54 -32l-46 71c33 24 53 53 53 72c0 16 -13 23 -29 23c-20 0 -46 -9 -66 -25l-25 40c31 33 73 54 113 54zM660 781c37 0 63 -34 63 -84c0 -74 -58 -129 -134 -142c30 -47 43 -101 43 -174
c0 -230 -126 -392 -341 -392c-165 0 -259 96 -259 285c0 230 138 381 336 381c88 0 131 -29 173 -29c36 0 60 20 60 56c0 20 -8 42 -22 57l4 12c22 15 52 30 77 30zM354 527c-98 0 -157 -65 -157 -254c0 -114 24 -164 112 -164c97 0 157 65 157 256c0 112 -24 162 -112 162z
" />
    <glyph glyph-name="ohornhookabove" unicode="&#x1edf;" horiz-adv-x="464" 
d="M218 683c-20 0 -46 -9 -66 -25l-25 40c31 33 73 54 113 54c49 0 87 -31 87 -77c0 -27 -14 -48 -57 -86l24 -40l-54 -32l-46 71c33 24 53 53 53 72c0 16 -13 23 -29 23zM537 518c0 -63 -61 -120 -120 -129c11 -23 17 -50 17 -83c0 -190 -98 -307 -260 -317l-13 2
c-88 19 -139 74 -139 181c0 178 99 297 260 306l14 -1c26 -6 58 -22 80 -22c25 0 39 17 39 43c0 23 -11 41 -30 58l3 13c26 21 52 35 77 35c37 0 72 -35 72 -86zM201 97c72 0 94 66 94 200c0 52 -11 70 -41 70c-73 0 -95 -65 -95 -198c0 -53 11 -72 42 -72z" />
    <glyph glyph-name="Ohorntilde" unicode="&#x1ee0;" horiz-adv-x="647" 
d="M573 849v-13l-74 -98l-14 -5c-48 6 -128 35 -154 35c-22 0 -41 -27 -64 -54h-14l-46 45v13l74 97l14 5c49 -6 128 -34 154 -34c22 0 41 26 65 54h13zM660 781c37 0 63 -34 63 -84c0 -74 -58 -129 -134 -142c30 -47 43 -101 43 -174c0 -230 -126 -392 -341 -392
c-165 0 -259 96 -259 285c0 230 138 381 336 381c88 0 131 -29 173 -29c36 0 60 20 60 56c0 20 -8 42 -22 57l4 12c22 15 52 30 77 30zM354 527c-98 0 -157 -65 -157 -254c0 -114 24 -164 112 -164c97 0 157 65 157 256c0 112 -24 162 -112 162z" />
    <glyph glyph-name="ohorntilde" unicode="&#x1ee1;" horiz-adv-x="464" 
d="M148 534l-45 45v13l66 96l13 6c42 -7 105 -34 126 -34c22 0 37 26 57 53h13l45 -45v-13l-66 -97l-13 -5c-43 7 -106 34 -127 34s-37 -26 -56 -53h-13zM537 518c0 -63 -61 -120 -120 -129c11 -23 17 -50 17 -83c0 -190 -98 -307 -260 -317l-13 2c-88 19 -139 74 -139 181
c0 178 99 297 260 306l14 -1c26 -6 58 -22 80 -22c25 0 39 17 39 43c0 23 -11 41 -30 58l3 13c26 21 52 35 77 35c37 0 72 -35 72 -86zM201 97c72 0 94 66 94 200c0 52 -11 70 -41 70c-73 0 -95 -65 -95 -198c0 -53 11 -72 42 -72z" />
    <glyph glyph-name="Ohorndotbelow" unicode="&#x1ee2;" horiz-adv-x="647" 
d="M660 781c37 0 63 -34 63 -84c0 -74 -58 -129 -134 -142c30 -47 43 -101 43 -174c0 -230 -126 -392 -341 -392c-165 0 -259 96 -259 285c0 230 138 381 336 381c88 0 131 -29 173 -29c36 0 60 20 60 56c0 20 -8 42 -22 57l4 12c22 15 52 30 77 30zM354 527
c-98 0 -157 -65 -157 -254c0 -114 24 -164 112 -164c97 0 157 65 157 256c0 112 -24 162 -112 162zM308 -48c48 0 76 -29 76 -77c0 -52 -32 -85 -82 -85s-77 28 -77 78c0 52 32 84 83 84z" />
    <glyph glyph-name="ohorndotbelow" unicode="&#x1ee3;" horiz-adv-x="464" 
d="M537 518c0 -63 -61 -120 -120 -129c11 -23 17 -50 17 -83c0 -190 -98 -307 -260 -317l-13 2c-88 19 -139 74 -139 181c0 178 99 297 260 306l14 -1c26 -6 58 -22 80 -22c25 0 39 17 39 43c0 23 -11 41 -30 58l3 13c26 21 52 35 77 35c37 0 72 -35 72 -86zM201 97
c72 0 94 66 94 200c0 52 -11 70 -41 70c-73 0 -95 -65 -95 -198c0 -53 11 -72 42 -72zM183 -48c48 0 76 -29 76 -77c0 -52 -32 -85 -82 -85s-77 28 -77 78c0 52 32 84 83 84z" />
    <glyph glyph-name="Udotbelow" unicode="&#x1ee4;" horiz-adv-x="634" 
d="M585 318l-12 -92c-18 -151 -114 -236 -285 -236c-146 0 -235 66 -235 186c0 14 1 30 3 47l14 97l36 325h158l-56 -401c-1 -12 -2 -23 -2 -33c0 -64 30 -93 95 -93c77 0 117 38 126 122l43 405h160zM284 -48c48 0 76 -29 76 -77c0 -52 -32 -85 -82 -85s-77 28 -77 78
c0 52 32 84 83 84z" />
    <glyph glyph-name="udotbelow" unicode="&#x1ee5;" horiz-adv-x="499" 
d="M474 472l-49 -358l-3 -108l-145 -10l21 155h-11c-43 -67 -81 -114 -127 -154l-12 -1c-71 10 -118 48 -118 101l2 18l38 237l6 110l146 9l-46 -286l-1 -16c0 -17 6 -24 18 -24c24 0 67 49 126 156l7 53l4 108zM206 -48c48 0 76 -29 76 -77c0 -52 -32 -85 -82 -85
s-77 28 -77 78c0 52 32 84 83 84z" />
    <glyph glyph-name="Uhookabove" unicode="&#x1ee6;" horiz-adv-x="634" 
d="M365 930c49 0 87 -31 87 -77c0 -27 -14 -48 -57 -86l24 -40l-54 -32l-46 71c33 24 53 53 53 72c0 16 -13 23 -29 23c-20 0 -46 -9 -66 -25l-25 40c31 33 73 54 113 54zM585 318l-12 -92c-18 -151 -114 -236 -285 -236c-146 0 -235 66 -235 186c0 14 1 30 3 47l14 97
l36 325h158l-56 -401c-1 -12 -2 -23 -2 -33c0 -64 30 -93 95 -93c77 0 117 38 126 122l43 405h160z" />
    <glyph glyph-name="uhookabove" unicode="&#x1ee7;" horiz-adv-x="499" 
d="M254 683c-20 0 -46 -9 -66 -25l-25 40c31 33 73 54 113 54c49 0 87 -31 87 -77c0 -27 -14 -48 -57 -86l24 -40l-54 -32l-46 71c33 24 53 53 53 72c0 16 -13 23 -29 23zM474 472l-49 -358l-3 -108l-145 -10l21 155h-11c-43 -67 -81 -114 -127 -154l-12 -1
c-71 10 -118 48 -118 101l2 18l38 237l6 110l146 9l-46 -286l-1 -16c0 -17 6 -24 18 -24c24 0 67 49 126 156l7 53l4 108z" />
    <glyph glyph-name="Uhornacute" unicode="&#x1ee8;" horiz-adv-x="646" 
d="M268 719l-24 64c76 39 143 75 213 117l14 -4l40 -92l-5 -14c-80 -29 -151 -52 -223 -75zM708 708c0 -50 -33 -94 -86 -118l-37 -272l-12 -92c-18 -151 -114 -236 -285 -236c-146 0 -235 66 -235 186c0 14 1 30 3 47l14 97l36 325h158l-56 -401c-1 -12 -2 -23 -2 -33
c0 -64 30 -93 95 -93c77 0 117 38 126 122l43 405h59c41 0 59 15 59 49c0 22 -10 42 -30 59l3 12c23 16 49 30 75 30c39 0 72 -37 72 -87z" />
    <glyph glyph-name="uhornacute" unicode="&#x1ee9;" horiz-adv-x="512" 
d="M191 521l-37 58c68 53 128 102 188 156l15 -1l55 -84l-3 -15c-73 -42 -137 -79 -204 -115zM567 540c0 -55 -43 -102 -102 -129l-40 -297l-4 -108l-144 -10l21 156h-10c-44 -68 -82 -115 -128 -155l-12 -1c-71 10 -118 48 -118 101l2 18l38 237l6 110l146 9l-46 -286
l-1 -13c0 -19 7 -27 17 -27c25 0 66 45 127 157l7 52l4 108l51 7c44 5 64 21 64 49c0 21 -10 41 -30 58l3 13c26 21 52 35 77 35c37 0 72 -35 72 -84z" />
    <glyph glyph-name="Uhorngrave" unicode="&#x1eea;" horiz-adv-x="646" 
d="M481 720l-14 -4c-73 23 -144 46 -223 75l-5 14l39 92l14 4c70 -42 138 -78 214 -116zM708 708c0 -50 -33 -94 -86 -118l-37 -272l-12 -92c-18 -151 -114 -236 -285 -236c-146 0 -235 66 -235 186c0 14 1 30 3 47l14 97l36 325h158l-56 -401c-1 -12 -2 -23 -2 -33
c0 -64 30 -93 95 -93c77 0 117 38 126 122l43 405h59c41 0 59 15 59 49c0 22 -10 42 -30 59l3 12c23 16 49 30 75 30c39 0 72 -37 72 -87z" />
    <glyph glyph-name="uhorngrave" unicode="&#x1eeb;" horiz-adv-x="512" 
d="M360 521l-14 -1c-67 36 -132 73 -205 115l-3 15l56 84l14 1c61 -54 120 -103 188 -156zM567 540c0 -55 -43 -102 -102 -129l-40 -297l-4 -108l-144 -10l21 156h-10c-44 -68 -82 -115 -128 -155l-12 -1c-71 10 -118 48 -118 101l2 18l38 237l6 110l146 9l-46 -286l-1 -13
c0 -19 7 -27 17 -27c25 0 66 45 127 157l7 52l4 108l51 7c44 5 64 21 64 49c0 21 -10 41 -30 58l3 13c26 21 52 35 77 35c37 0 72 -35 72 -84z" />
    <glyph glyph-name="Uhornhookabove" unicode="&#x1eec;" horiz-adv-x="646" 
d="M327 861c-20 0 -46 -9 -66 -25l-25 40c31 33 73 54 113 54c49 0 87 -31 87 -77c0 -27 -14 -48 -57 -86l24 -40l-54 -32l-46 71c33 24 53 53 53 72c0 16 -13 23 -29 23zM708 708c0 -50 -33 -94 -86 -118l-37 -272l-12 -92c-18 -151 -114 -236 -285 -236
c-146 0 -235 66 -235 186c0 14 1 30 3 47l14 97l36 325h158l-56 -401c-1 -12 -2 -23 -2 -33c0 -64 30 -93 95 -93c77 0 117 38 126 122l43 405h59c41 0 59 15 59 49c0 22 -10 42 -30 59l3 12c23 16 49 30 75 30c39 0 72 -37 72 -87z" />
    <glyph glyph-name="uhornhookabove" unicode="&#x1eed;" horiz-adv-x="512" 
d="M238 683c-20 0 -46 -9 -66 -25l-25 40c31 33 73 54 113 54c49 0 87 -31 87 -77c0 -27 -14 -48 -57 -86l24 -40l-54 -32l-46 71c33 24 53 53 53 72c0 16 -13 23 -29 23zM567 540c0 -55 -43 -102 -102 -129l-40 -297l-4 -108l-144 -10l21 156h-10
c-44 -68 -82 -115 -128 -155l-12 -1c-71 10 -118 48 -118 101l2 18l38 237l6 110l146 9l-46 -286l-1 -13c0 -19 7 -27 17 -27c25 0 66 45 127 157l7 52l4 108l51 7c44 5 64 21 64 49c0 21 -10 41 -30 58l3 13c26 21 52 35 77 35c37 0 72 -35 72 -84z" />
    <glyph glyph-name="Uhorntilde" unicode="&#x1eee;" horiz-adv-x="646" 
d="M234 714l-46 45v13l74 97l14 5c49 -6 128 -34 154 -34c22 0 41 26 65 54h13l46 -45v-13l-74 -98l-14 -5c-48 6 -128 35 -154 35c-22 0 -41 -27 -64 -54h-14zM708 708c0 -50 -33 -94 -86 -118l-37 -272l-12 -92c-18 -151 -114 -236 -285 -236c-146 0 -235 66 -235 186
c0 14 1 30 3 47l14 97l36 325h158l-56 -401c-1 -12 -2 -23 -2 -33c0 -64 30 -93 95 -93c77 0 117 38 126 122l43 405h59c41 0 59 15 59 49c0 22 -10 42 -30 59l3 12c23 16 49 30 75 30c39 0 72 -37 72 -87z" />
    <glyph glyph-name="uhorntilde" unicode="&#x1eef;" horiz-adv-x="512" 
d="M168 534l-45 45v13l66 96l13 6c42 -7 105 -34 126 -34c22 0 37 26 57 53h13l45 -45v-13l-66 -97l-13 -5c-43 7 -106 34 -127 34s-37 -26 -56 -53h-13zM567 540c0 -55 -43 -102 -102 -129l-40 -297l-4 -108l-144 -10l21 156h-10c-44 -68 -82 -115 -128 -155l-12 -1
c-71 10 -118 48 -118 101l2 18l38 237l6 110l146 9l-46 -286l-1 -13c0 -19 7 -27 17 -27c25 0 66 45 127 157l7 52l4 108l51 7c44 5 64 21 64 49c0 21 -10 41 -30 58l3 13c26 21 52 35 77 35c37 0 72 -35 72 -84z" />
    <glyph glyph-name="Uhorndotbelow" unicode="&#x1ef0;" horiz-adv-x="646" 
d="M708 708c0 -50 -33 -94 -86 -118l-37 -272l-12 -92c-18 -151 -114 -236 -285 -236c-146 0 -235 66 -235 186c0 14 1 30 3 47l14 97l36 325h158l-56 -401c-1 -12 -2 -23 -2 -33c0 -64 30 -93 95 -93c77 0 117 38 126 122l43 405h59c41 0 59 15 59 49c0 22 -10 42 -30 59
l3 12c23 16 49 30 75 30c39 0 72 -37 72 -87zM291 -48c48 0 76 -29 76 -77c0 -52 -32 -85 -82 -85s-77 28 -77 78c0 52 32 84 83 84z" />
    <glyph glyph-name="uhorndotbelow" unicode="&#x1ef1;" horiz-adv-x="512" 
d="M567 540c0 -55 -43 -102 -102 -129l-40 -297l-4 -108l-144 -10l21 156h-10c-44 -68 -82 -115 -128 -155l-12 -1c-71 10 -118 48 -118 101l2 18l38 237l6 110l146 9l-46 -286l-1 -13c0 -19 7 -27 17 -27c25 0 66 45 127 157l7 52l4 108l51 7c44 5 64 21 64 49
c0 21 -10 41 -30 58l3 13c26 21 52 35 77 35c37 0 72 -35 72 -84zM206 -48c48 0 76 -29 76 -77c0 -52 -32 -85 -82 -85s-77 28 -77 78c0 52 32 84 83 84z" />
    <glyph glyph-name="Ygrave" unicode="&#x1ef2;" horiz-adv-x="563" 
d="M461 720l-14 -4c-73 23 -144 46 -223 75l-5 14l39 92l14 4c70 -42 138 -78 214 -116zM345 213l-6 -37l-14 -176h-159l30 176l3 39l-148 430h165l9 -48l65 -227h11l132 222l26 53h164z" />
    <glyph glyph-name="ygrave" unicode="&#x1ef3;" horiz-adv-x="458" 
d="M344 521l-14 -1c-67 36 -132 73 -205 115l-3 15l56 84l14 1c61 -54 120 -103 188 -156zM309 455l133 19c11 -26 16 -52 16 -79c0 -47 -16 -96 -46 -154l-98 -186c-99 -189 -177 -252 -282 -252c-31 0 -64 6 -96 17l-7 119l13 13c29 -9 58 -14 84 -14c41 0 82 14 116 42
l-103 483l144 9l9 -88l33 -230h16l50 113c18 41 29 77 29 110c0 23 -6 43 -17 63z" />
    <glyph glyph-name="Ydotbelow" unicode="&#x1ef4;" horiz-adv-x="563" 
d="M345 213l-6 -37l-14 -176h-159l30 176l3 39l-148 430h165l9 -48l65 -227h11l132 222l26 53h164zM238 -48c48 0 76 -29 76 -77c0 -52 -32 -85 -82 -85s-77 28 -77 78c0 52 32 84 83 84z" />
    <glyph glyph-name="ydotbelow" unicode="&#x1ef5;" horiz-adv-x="469" 
d="M309 455l132 19c11 -26 17 -52 17 -79c0 -47 -16 -96 -46 -154l-98 -186c-100 -189 -178 -252 -282 -252c-32 0 -65 6 -96 17l-7 119l12 13c30 -9 58 -14 85 -14c41 0 82 14 116 42l-103 483l144 9l8 -88l34 -230h15l50 113c18 41 29 77 29 110c0 23 -5 43 -16 63z
M340 -44c45 0 70 -27 70 -73c0 -48 -29 -78 -76 -78c-46 0 -71 26 -71 72c0 48 29 79 77 79z" />
    <glyph glyph-name="Yhookabove" unicode="&#x1ef6;" horiz-adv-x="563" 
d="M308 861c-20 0 -46 -9 -66 -25l-25 40c31 33 73 54 113 54c49 0 87 -31 87 -77c0 -27 -14 -48 -57 -86l24 -40l-54 -32l-46 71c33 24 53 53 53 72c0 16 -13 23 -29 23zM345 213l-6 -37l-14 -176h-159l30 176l3 39l-148 430h165l9 -48l65 -227h11l132 222l26 53h164z" />
    <glyph glyph-name="yhookabove" unicode="&#x1ef7;" horiz-adv-x="458" 
d="M222 683c-20 0 -46 -9 -66 -25l-25 40c31 33 73 54 113 54c49 0 87 -31 87 -77c0 -27 -14 -48 -57 -86l24 -40l-54 -32l-46 71c33 24 53 53 53 72c0 16 -13 23 -29 23zM309 455l133 19c11 -26 16 -52 16 -79c0 -47 -16 -96 -46 -154l-98 -186
c-99 -189 -177 -252 -282 -252c-31 0 -64 6 -96 17l-7 119l13 13c29 -9 58 -14 84 -14c41 0 82 14 116 42l-103 483l144 9l9 -88l33 -230h16l50 113c18 41 29 77 29 110c0 23 -6 43 -17 63z" />
    <glyph glyph-name="endash" unicode="&#x2013;" horiz-adv-x="460" 
d="M483 300l-18 -94h-473l-9 11l19 94h473z" />
    <glyph glyph-name="emdash" unicode="&#x2014;" horiz-adv-x="871" 
d="M898 300l-19 -94h-890l-9 11l19 94h890z" />
    <glyph glyph-name="quoteleft" unicode="&#x2018;" horiz-adv-x="223" 
d="M122 374c-40 23 -58 55 -58 102c0 57 33 114 100 177l53 -35l2 -10c-27 -30 -40 -58 -40 -87c0 -33 11 -57 41 -76v-13c-29 -22 -62 -43 -98 -58z" />
    <glyph glyph-name="quoteright" unicode="&#x2019;" horiz-adv-x="223" 
d="M163 653c40 -23 58 -55 58 -102c0 -57 -33 -113 -100 -177l-53 35l-2 10c27 30 40 59 40 87c0 33 -11 57 -41 76v13c29 22 62 43 98 58z" />
    <glyph glyph-name="quotesinglbase" unicode="&#x201a;" horiz-adv-x="228" 
d="M126 150c30 -26 45 -56 45 -93c0 -66 -42 -126 -132 -189l-49 43l-1 11c37 32 55 65 55 102c0 26 -10 46 -32 66l1 13c35 20 72 36 113 47z" />
    <glyph glyph-name="quotedblleft" unicode="&#x201c;" horiz-adv-x="399" 
d="M120 374c-40 23 -58 55 -58 102c0 57 33 113 100 177l53 -35l2 -10c-27 -30 -40 -59 -40 -87c0 -33 11 -57 41 -76v-13c-29 -22 -62 -43 -98 -58zM299 374c-40 23 -58 55 -58 102c0 57 33 113 100 177l53 -35l2 -10c-27 -30 -40 -59 -40 -87c0 -33 11 -57 41 -76v-13
c-29 -22 -62 -43 -98 -58z" />
    <glyph glyph-name="quotedblright" unicode="&#x201d;" horiz-adv-x="395" 
d="M162 653c40 -23 58 -55 58 -102c0 -57 -33 -113 -100 -177l-53 35l-3 10c28 30 41 59 41 87c0 33 -11 57 -41 76v13c29 22 62 43 98 58zM334 653c40 -23 58 -55 58 -102c0 -57 -33 -113 -100 -177l-53 35l-2 10c27 30 40 59 40 87c0 33 -11 57 -41 76v13
c29 22 62 43 98 58z" />
    <glyph glyph-name="quotedblbase" unicode="&#x201e;" horiz-adv-x="408" 
d="M126 150c30 -26 45 -56 45 -93c0 -66 -42 -126 -132 -189l-49 43l-1 11c37 32 55 65 55 102c0 26 -10 46 -32 66l1 13c35 20 72 36 113 47zM305 150c31 -26 46 -56 46 -93c0 -66 -43 -126 -132 -189l-50 43l-1 11c37 32 56 65 56 102c0 26 -11 46 -33 66l1 13
c35 20 72 36 113 47z" />
    <glyph glyph-name="dagger" unicode="&#x2020;" horiz-adv-x="510" 
d="M474 313h-161l-3 -23l-45 -377l-96 -7l-8 11l44 363l4 33h-151l-9 10l20 92h153l21 169l99 8l8 -9l-23 -168h157l9 -10z" />
    <glyph glyph-name="daggerdbl" unicode="&#x2021;" horiz-adv-x="510" 
d="M311 290l-15 -125h157l9 -10l-19 -93h-160l-18 -149l-96 -7l-8 11l18 145h-152l-8 11l19 92h153l14 115l6 46h-151l-9 10l19 92h154l19 156l99 8l7 -9l-20 -155h156l9 -10l-19 -92h-159z" />
    <glyph glyph-name="bullet" unicode="&#x2022;" horiz-adv-x="299" 
d="M155 353c62 0 98 -38 98 -100c0 -68 -41 -110 -106 -110c-64 0 -99 37 -99 101c0 66 41 109 107 109z" />
    <glyph glyph-name="onedotenleader" unicode="&#x2024;" horiz-adv-x="230" 
d="M98 155c48 0 76 -29 76 -78c0 -52 -32 -85 -82 -85s-77 29 -77 78c0 52 32 85 83 85z" />
    <glyph glyph-name="twodotenleader" unicode="&#x2025;" horiz-adv-x="441" 
d="M94 155c48 0 76 -29 76 -78c0 -52 -32 -85 -82 -85s-77 29 -77 78c0 52 31 85 83 85zM305 155c48 0 76 -29 76 -78c0 -52 -32 -85 -82 -85s-77 29 -77 78c0 52 32 85 83 85z" />
    <glyph glyph-name="ellipsis" unicode="&#x2026;" horiz-adv-x="653" 
d="M75 155c48 0 76 -29 76 -78c0 -52 -32 -85 -82 -85s-77 29 -77 78c0 52 32 85 83 85zM286 155c49 0 76 -29 76 -78c0 -52 -31 -85 -82 -85c-49 0 -77 29 -77 78c0 52 32 85 83 85zM498 155c48 0 75 -29 75 -78c0 -52 -31 -85 -82 -85c-49 0 -77 29 -77 78
c0 52 32 85 84 85z" />
    <glyph glyph-name="perthousand" unicode="&#x2030;" horiz-adv-x="1249" 
d="M729 651l7 -21l-555 -723l-61 40l-4 15l556 727zM249 651c85 0 132 -51 132 -142c0 -140 -70 -225 -195 -225c-87 0 -133 52 -133 144c0 138 71 223 196 223zM227 553c-50 0 -79 -31 -79 -109c0 -47 18 -69 56 -69c63 0 81 44 81 111c0 46 -18 67 -58 67zM709 361
c86 0 132 -52 132 -143c0 -139 -70 -224 -195 -224c-86 0 -133 51 -133 143c0 139 71 224 196 224zM1084 361c86 0 132 -52 132 -143c0 -139 -70 -224 -194 -224c-87 0 -134 51 -134 143c0 139 72 224 196 224zM687 263c-50 0 -78 -31 -78 -111c0 -45 17 -68 55 -68
c63 0 81 44 81 111c0 46 -18 68 -58 68zM1062 263c-50 0 -78 -31 -78 -111c0 -45 17 -68 56 -68c63 0 81 44 81 111c0 46 -19 68 -59 68z" />
    <glyph glyph-name="minute" unicode="&#x2032;" horiz-adv-x="221" 
d="M232 633l-69 -234l-73 -12l-11 10l24 239l121 7z" />
    <glyph glyph-name="second" unicode="&#x2033;" 
d="M232 633l-69 -234l-73 -12l-11 10l24 239l121 7zM401 633l-69 -234l-73 -12l-11 10l25 239l120 7z" />
    <glyph glyph-name="guilsinglleft" unicode="&#x2039;" horiz-adv-x="250" 
d="M28 221l4 23l153 174l68 -38l1 -14l-112 -137l79 -137l-5 -14l-77 -39z" />
    <glyph glyph-name="guilsinglright" unicode="&#x203a;" horiz-adv-x="252" 
d="M233 239l-3 -23l-154 -174l-68 38l-1 14l112 137l-78 137l4 14l78 39z" />
    <glyph glyph-name="fraction" unicode="&#x2044;" horiz-adv-x="116" 
d="M352 651l6 -21l-554 -723l-61 40l-4 15l556 727z" />
    <glyph glyph-name="zerosuperior" unicode="&#x2070;" horiz-adv-x="379" 
d="M255 707c85 0 132 -56 132 -156c0 -152 -70 -245 -195 -245c-87 0 -133 56 -133 157c0 151 71 244 196 244zM233 600c-50 0 -79 -34 -79 -120c0 -51 18 -75 56 -75c63 0 81 48 81 121c0 51 -18 74 -58 74z" />
    <glyph glyph-name="foursuperior" unicode="&#x2074;" horiz-adv-x="373" 
d="M363 392l-50 1l-4 -73l-8 -8l-95 -5l-5 7l12 80h-97l-72 -2l-6 9l8 72l194 227h111l-30 -219h52l5 -10zM150 481h76l11 94h-7z" />
    <glyph glyph-name="fivesuperior" unicode="&#x2075;" horiz-adv-x="327" 
d="M355 697l-22 -86l-9 -8l-70 8h-67l-7 -50l42 -9c68 -15 101 -45 101 -95c0 -91 -85 -152 -205 -152c-25 0 -59 4 -84 8l3 82l9 8c28 -8 55 -11 83 -11c49 0 77 16 77 45c0 19 -15 29 -48 35l-72 12l-6 8l24 197l14 13l43 -2h110l78 4z" />
    <glyph glyph-name="sixsuperior" unicode="&#x2076;" horiz-adv-x="355" 
d="M249 557c78 0 116 -56 110 -117c-6 -68 -60 -135 -168 -135c-96 0 -149 57 -141 151c9 105 90 194 223 251h6l71 -50l-1 -11c-85 -31 -133 -57 -160 -96l4 -5c17 7 37 12 56 12zM250 428c3 33 -11 50 -43 50c-15 0 -30 -3 -46 -10l-1 -10c-5 -51 0 -81 39 -81
c30 0 48 18 51 51z" />
    <glyph glyph-name="sevensuperior" unicode="&#x2077;" horiz-adv-x="316" 
d="M169 700h145l38 1l-10 -83l-122 -201l-59 -113l-93 25l-5 18l160 259h-86l-72 -7l-5 9l20 94z" />
    <glyph glyph-name="eightsuperior" unicode="&#x2078;" horiz-adv-x="370" 
d="M242 706c80 0 129 -36 129 -91c0 -44 -29 -71 -72 -94l-1 -5c37 -20 60 -42 60 -85c0 -76 -64 -126 -166 -126c-87 0 -139 38 -139 96c0 45 31 75 87 94l1 4c-33 18 -55 43 -55 85c0 75 62 122 156 122zM234 629c-31 0 -48 -15 -48 -37c0 -23 22 -35 49 -46
c23 15 39 30 39 52c0 19 -14 31 -40 31zM204 467c-33 -10 -51 -25 -51 -50c0 -23 17 -38 49 -38c38 0 58 20 58 42c0 23 -29 35 -56 46z" />
    <glyph glyph-name="ninesuperior" unicode="&#x2079;" horiz-adv-x="356" 
d="M232 707c96 0 149 -57 141 -151c-9 -105 -90 -195 -222 -251h-7l-71 50l1 11c85 31 134 57 161 96l-5 5c-17 -7 -36 -12 -55 -12c-79 0 -116 56 -111 117c6 68 60 135 168 135zM217 534c14 0 29 3 45 10l1 10c5 51 0 80 -39 80c-31 0 -48 -17 -51 -51
c-2 -32 11 -49 44 -49z" />
    <glyph glyph-name="franc" unicode="&#x20a3;" horiz-adv-x="426" 
d="M223 406l-15 -106h72l99 2l7 -9l-20 -95l-107 2h-66l-5 -38l-2 -24h108l5 -7l-10 -51h-109l-7 -80h-132l13 80h-56l-4 7l10 51h59l2 11l39 357h346l6 -10l-21 -94l-134 4h-78z" />
    <glyph glyph-name="Euro" unicode="&#x20ac;" horiz-adv-x="466" 
d="M356 513c46 0 92 -9 128 -25l-36 -105l-10 -6c-26 18 -65 28 -98 28c-48 0 -83 -19 -104 -62h133l6 -6l-13 -67h-345l-4 8l12 65h72c43 109 131 170 259 170zM307 100c32 0 77 10 110 24l10 -6l-23 -104c-40 -16 -79 -22 -115 -22c-133 0 -205 58 -218 165h-67l-5 7
l12 66h344l5 -7l-12 -66h-130c13 -39 43 -57 89 -57z" />
    <glyph glyph-name="literSign" unicode="&#x2113;" horiz-adv-x="247" 
d="M173 114l-3 -108l-145 -10l82 591l2 107l145 10z" />
    <glyph glyph-name="trademark" unicode="&#x2122;" horiz-adv-x="593" 
d="M273 638l-11 -56l-52 3h-6l-15 -103l-7 -78h-76l13 70l12 111h-8l-52 -3l-5 6l12 55h192zM578 643l-10 -239h-67l6 73l2 55h-5l-56 -106h-58l-24 106h-4l-12 -48l-13 -80h-65l55 239h89l3 -34l14 -83h5l38 80l14 37h88z" />
    <glyph glyph-name="Ohm" unicode="&#x2126;" horiz-adv-x="746" 
d="M420 655c177 0 270 -99 270 -244c0 -97 -42 -194 -137 -288l3 -5h66l84 9l8 -9l-33 -125l-120 7h-143l-37 -3l-6 6l11 94c100 92 136 191 136 288c0 86 -27 143 -115 143c-96 0 -152 -68 -152 -210c0 -89 24 -163 71 -221l-11 -94l-8 -6l-36 3h-170l-101 -5l-8 10l33 120
l92 -7h46l2 5c-50 66 -73 143 -73 218c0 175 117 314 328 314z" />
    <glyph glyph-name="estimated" unicode="&#x212e;" horiz-adv-x="792" 
d="M417 651c203 0 368 -148 368 -332v-8h-597c-3 0 -5 -1 -5 -4v-181c0 -8 4 -15 9 -21c56 -60 137 -97 226 -97c95 0 180 42 237 109h54c-67 -78 -174 -129 -292 -129c-203 0 -369 148 -369 331c0 184 166 332 369 332zM418 631c-89 0 -168 -37 -225 -96
c-6 -6 -10 -14 -10 -23v-178c0 -3 2 -5 5 -5h458c3 0 5 2 5 5v182c0 9 -4 16 -10 22c-57 57 -136 93 -223 93z" />
    <glyph glyph-name="arrowleft" unicode="&#x2190;" horiz-adv-x="538" 
d="M505 185l-322 7l124 -132v-20l-84 -19l-199 205v23l199 206l84 -18v-20l-123 -132l317 7l9 -11z" />
    <glyph glyph-name="arrowup" unicode="&#x2191;" horiz-adv-x="538" 
d="M487 288l-19 -85h-20l-131 124l7 -317l-11 -10l-96 5l7 323l-132 -125h-20l-19 85l205 198h23z" />
    <glyph glyph-name="arrowright" unicode="&#x2192;" horiz-adv-x="538" 
d="M513 251v-23l-198 -206l-85 19v20l125 131l-318 -7l-10 11l5 97l323 -7l-125 131v20l85 19z" />
    <glyph glyph-name="arrowdown" unicode="&#x2193;" horiz-adv-x="538" 
d="M486 189l-205 -198h-23l-206 198l19 85h20l131 -125l-7 318l11 10l97 -5l-7 -323l132 125h20z" />
    <glyph glyph-name="arrowupleft" unicode="&#x2196;" horiz-adv-x="538" 
d="M476 116l-1 -15l-72 -64l-223 233l-5 -182l-14 -14l-73 47l5 285l16 16l286 6l47 -73l-15 -14l-181 -5z" />
    <glyph glyph-name="arrowupright" unicode="&#x2197;" horiz-adv-x="538" 
d="M449 125l-73 -46l-14 14l-5 180l-220 -229l-14 1l-65 72l233 223l-181 5l-14 14l46 73l286 -5l16 -16z" />
    <glyph glyph-name="arrowdownright" unicode="&#x2198;" horiz-adv-x="538" 
d="M449 351l-5 -285l-16 -16l-286 -6l-47 73l15 15l180 5l-229 219l1 15l72 64l223 -233l5 182l14 14z" />
    <glyph glyph-name="arrowdownleft" unicode="&#x2199;" horiz-adv-x="538" 
d="M428 137l14 -15l-46 -73l-286 5l-16 16l-5 286l73 47l14 -14l5 -181l220 229h14l65 -72l-233 -224z" />
    <glyph glyph-name="partialdiff" unicode="&#x2202;" horiz-adv-x="524" 
d="M218 719h10c188 -93 291 -236 282 -423c-7 -185 -114 -307 -285 -307c-147 0 -211 95 -205 209c6 124 92 241 230 241c30 0 57 -10 84 -25l9 8c-33 95 -115 159 -247 206l1 12zM243 97c77 0 111 75 117 191v6c-28 20 -56 31 -85 31c-70 0 -105 -43 -109 -124
c-4 -66 22 -104 77 -104z" />
    <glyph glyph-name="increment" unicode="&#x2206;" horiz-adv-x="600" 
d="M559 0h-581l284 645h190zM331 499l-160 -381h219l-49 381h-10z" />
    <glyph glyph-name="product" unicode="&#x220f;" horiz-adv-x="707" 
d="M698 517l-56 2l-45 -313l-19 -206h-159l32 191l35 331h-197l-45 -316l-19 -206h-159l32 191l35 328l-56 -2l-8 12l24 116h622l7 -12z" />
    <glyph glyph-name="summation" unicode="&#x2211;" horiz-adv-x="526" 
d="M548 635l-24 -115l-105 6h-164l155 -191l-3 -23l-201 -194h155l122 8l9 -13l-25 -115l-154 2h-216l-97 -2l13 110l223 215l-170 205l15 118l90 -1l369 1z" />
    <glyph glyph-name="minus" unicode="&#x2212;" horiz-adv-x="478" 
d="M462 300l-8 -94h-422l-10 11l8 94h422z" />
    <glyph glyph-name="divisionslash" unicode="&#x2215;" horiz-adv-x="283" 
d="M340 668l-261 -784h-108l-8 12l262 785h104z" />
    <glyph glyph-name="bulletoperator" unicode="&#x2219;" horiz-adv-x="284" 
d="M150 353c62 0 98 -38 98 -100c0 -68 -41 -110 -106 -110c-64 0 -99 37 -99 101c0 66 41 109 107 109z" />
    <glyph glyph-name="radical" unicode="&#x221a;" horiz-adv-x="500" 
d="M296 0h-167l-48 361h-93l-4 6l16 100h188l5 -6l37 -327h9l244 566l13 10h112z" />
    <glyph glyph-name="infinity" unicode="&#x221e;" horiz-adv-x="482" 
d="M378 417c76 0 117 -54 117 -133c0 -116 -68 -180 -153 -180c-46 0 -77 23 -103 71c-30 -41 -74 -71 -132 -71c-75 0 -117 52 -117 132c0 113 64 181 152 181c51 0 81 -26 105 -69c26 34 69 69 131 69zM139 322c-40 0 -62 -28 -62 -70c0 -31 16 -48 43 -48
c37 0 60 31 82 71c-14 28 -32 47 -63 47zM365 317c-39 0 -61 -34 -80 -70c14 -29 31 -49 62 -49c37 0 61 27 61 71c0 30 -15 48 -43 48z" />
    <glyph glyph-name="integral" unicode="&#x222b;" horiz-adv-x="303" 
d="M345 711c28 0 55 -3 82 -9l-22 -109l-11 -7c-34 14 -61 19 -79 19c-32 0 -51 -15 -57 -53l-58 -497c-11 -98 -55 -156 -165 -211l-59 66l1 12c50 33 75 67 82 129l54 475c14 120 100 185 232 185z" />
    <glyph glyph-name="approxequal" unicode="&#x2248;" horiz-adv-x="481" 
d="M176 327c-24 0 -50 -28 -81 -58h-14l-35 51l1 13l99 101l14 6c55 -10 171 -55 204 -55c23 0 48 27 81 58h14l34 -51l-2 -13l-97 -101l-15 -5c-55 8 -171 54 -203 54zM152 130c-24 0 -50 -28 -81 -58h-14l-35 51l2 13l98 101l14 6c55 -10 171 -55 204 -55
c23 0 49 27 82 58h13l34 -51l-2 -13l-97 -101l-15 -5c-55 8 -171 54 -203 54z" />
    <glyph glyph-name="notequal" unicode="&#x2260;" horiz-adv-x="478" 
d="M307 304l-33 -92h166l10 -11l-8 -94h-205l-50 -140h-97l-6 11l46 129h-110l-10 11l8 94h149l33 92h-155l-10 11l8 94h195l49 138h95l8 -10l-46 -128h121l10 -11l-8 -94h-160z" />
    <glyph glyph-name="lessequal" unicode="&#x2264;" horiz-adv-x="484" 
d="M470 386l-7 -11l-312 -109v-8l285 -105l-32 -87l-15 -10l-355 140l15 125l12 14l388 139zM423 -33l-7 -93h-423l-9 10l7 94h422z" />
    <glyph glyph-name="greaterequal" unicode="&#x2265;" horiz-adv-x="493" 
d="M467 335l8 -14l-15 -125l-389 -140l-13 10l-10 87l312 105v8l-285 109l-5 11l43 88zM423 -33l-7 -93h-423l-9 10l7 94h422z" />
    <glyph glyph-name="lozenge" unicode="&#x25ca;" horiz-adv-x="520" 
d="M378 643l113 -341l-6 -42l-197 -344l-120 -5l-11 6l-112 340l5 41l197 345l121 5zM293 539l-146 -265l88 -254h7l145 260l-87 259h-7z" />
    <glyph glyph-name="dieresisacute" unicode="&#xf6d7;" 
d="M358 862l23 -98l-7 -13c-84 -14 -158 -25 -233 -34l-13 6l-14 68c82 24 155 48 231 77zM153 673c42 0 66 -25 66 -67c0 -46 -27 -75 -72 -75c-43 0 -67 25 -67 69c0 45 27 73 73 73zM333 673c42 0 66 -25 66 -67c0 -46 -27 -75 -71 -75c-43 0 -68 25 -68 69
c0 45 28 73 73 73z" />
    <glyph glyph-name="dieresisgrave" unicode="&#xf6d8;" 
d="M161 862l14 6c72 -29 143 -53 221 -77l-21 -68l-15 -6c-73 9 -146 20 -227 34l-7 13zM154 673c41 0 64 -24 64 -65c0 -47 -28 -77 -74 -77c-42 0 -65 24 -65 67c0 45 29 75 75 75zM334 673c41 0 65 -24 65 -65c0 -47 -28 -77 -74 -77c-43 0 -66 24 -66 67
c0 45 29 75 75 75z" />
    <glyph glyph-name="Iacute_J.loclNLD" horiz-adv-x="646" 
d="M117 719l-24 64c76 39 143 75 213 117l14 -4l40 -92l-5 -14c-80 -29 -151 -52 -223 -75zM662 804l-5 -14c-80 -29 -151 -52 -223 -75l-15 4l-24 64c76 39 143 75 213 117l14 -4zM283 645l-63 -439l-19 -206h-159l32 191l48 454h161zM621 645l-63 -432l-8 -91
c-16 -115 -73 -177 -233 -230l-35 83l1 13c80 39 112 74 120 138l9 71l36 333l-95 -2l-9 11l20 106h257z" />
    <glyph glyph-name="Q.corta" horiz-adv-x="644" 
d="M448 22c51 -33 107 -63 168 -89l4 -15c-25 -41 -53 -75 -88 -103l-12 -6c-83 56 -159 114 -223 180h-6c-161 0 -259 93 -259 279c0 231 121 387 341 387c162 0 260 -90 260 -275c0 -169 -64 -299 -185 -358zM197 269c0 -114 28 -160 110 -160c99 0 158 63 158 260
c0 113 -28 158 -110 158c-99 0 -158 -62 -158 -258z" />
    <glyph glyph-name="C.ss01" horiz-adv-x="444" 
d="M302 390c-84 0 -119 -48 -119 -158c0 -77 31 -113 94 -113c32 0 76 9 107 22l11 -7l-17 -80h142l-6 -54h-641l7 54h209c-37 35 -56 87 -56 155c0 111 39 195 109 244h-212l6 55h640l-7 -55h-129l-28 -86l-11 -5c-26 17 -64 28 -99 28z" />
    <glyph glyph-name="D.ss01" horiz-adv-x="562" 
d="M688 453h-209c37 -33 56 -82 56 -146c0 -114 -40 -201 -113 -253h216l-6 -54h-759l7 54h173l16 98l31 301h-170l6 55h758zM200 166l-4 -51c25 -4 59 -7 75 -7c70 0 114 46 114 176c0 76 -27 105 -83 105c-16 0 -45 -1 -69 -3z" />
    <glyph glyph-name="I.ss01" horiz-adv-x="284" 
d="M196 164l-9 -110h173l-6 -54h-481l7 54h165l16 95l31 304h-162l6 55h480l-6 -55h-171z" />
    <glyph glyph-name="L.ss01" horiz-adv-x="385" 
d="M194 170l-6 -47h163l-11 -69h121l-6 -54h-583l7 54h164l17 101l32 298h-164l7 55h583l-6 -55h-277z" />
    <glyph glyph-name="M.ss01" horiz-adv-x="676" 
d="M607 453l-15 -399h160l-6 -54h-873l7 54h154l90 399h-194l6 55h873l-7 -55h-195zM434 453h-134l3 -24l34 -160h8l77 157zM471 54l12 119l5 129h-8l-116 -212h-106l-53 212h-8l-26 -118l-21 -130h321z" />
    <glyph glyph-name="V.ss01" horiz-adv-x="517" 
d="M514 453l-181 -399h261l-7 -54h-714l7 54h256l-68 399h-138l6 55h714l-7 -55h-129zM383 453h-179l2 -33l36 -284h9l119 275z" />
    <glyph glyph-name="X.ss01" horiz-adv-x="534" 
d="M359 265l105 -211h146l-6 -54h-731l7 54h156l155 197l-106 202h-155l6 55h730l-6 -55h-158zM238 453l8 -25l45 -82l68 89l10 18h-131zM312 54l-9 28l-46 86l-77 -92l-13 -22h145z" />
    <glyph glyph-name="idotaccent" horiz-adv-x="245" 
d="M172 708c48 0 76 -29 76 -78c0 -52 -32 -85 -82 -85s-77 29 -77 78c0 52 32 85 83 85zM173 114l-5 -108l-144 -10l49 358l4 108l143 10z" />
    <glyph glyph-name="a.sups" horiz-adv-x="329" 
d="M339 645l-32 -243l-4 -74l-94 -6l14 107h-10c-22 -42 -46 -80 -75 -110h-13c-63 19 -80 55 -80 110c0 91 52 188 163 218h5l61 -10l58 13zM151 404c13 0 46 47 86 136l3 25v4l-45 10c-40 -1 -62 -47 -62 -113c0 -45 9 -62 18 -62z" />
    <glyph glyph-name="germandbls.calt" horiz-adv-x="675" 
d="M395 655c94 0 169 -26 257 -70l3 -21l-150 -182c99 -64 150 -101 150 -184c0 -137 -118 -208 -248 -208c-58 0 -121 14 -171 40l39 143l18 9c46 -46 98 -72 138 -72c38 0 63 23 63 57c0 40 -43 77 -182 145l-1 22l143 175c-30 13 -56 19 -88 19c-82 0 -121 -39 -131 -117
l-29 -204l-19 -207h-159l32 190l24 221c15 147 126 244 311 244z" />
    <glyph glyph-name="f.f" horiz-adv-x="317" 
d="M488 374h-245l-24 -168l-27 -203l-4 -108l-144 -10l41 305l22 184h-65l-7 9l10 75h72l1 11c16 144 98 220 237 220l101 -15l7 -11l-44 -99l-19 -6c-29 19 -53 27 -71 27c-36 0 -60 -26 -68 -82l-6 -45h234l10 -12z" />
    <glyph glyph-name="zero.lf" horiz-adv-x="523" 
d="M306 595c120 0 191 -81 191 -244c0 -212 -100 -361 -266 -361c-124 0 -194 83 -194 244c0 210 99 361 269 361zM284 450c-89 0 -123 -75 -123 -194c0 -86 22 -130 86 -130c87 0 126 74 126 196c0 88 -25 128 -89 128z" />
    <glyph glyph-name="b.sups" horiz-adv-x="330" 
d="M253 646h14c60 -18 80 -51 80 -108c0 -95 -55 -191 -163 -219h-4l-53 10l-75 12l52 392l4 73l95 6l-37 -278h9c23 43 49 82 78 112zM148 400l50 -13c40 0 61 49 61 113c0 47 -10 63 -17 63c-14 0 -49 -47 -90 -135z" />
    <glyph glyph-name="c.sups" horiz-adv-x="253" 
d="M287 632l4 -10l-26 -67l-21 -1c-14 16 -25 24 -41 24c-43 0 -65 -40 -65 -116c0 -46 10 -65 34 -65c17 0 34 12 56 49h12l31 -38c-30 -51 -61 -74 -108 -88h-13c-73 10 -103 46 -103 125c0 109 56 203 184 203z" />
    <glyph glyph-name="three.dnom" horiz-adv-x="327" 
d="M169 394c75 0 127 -35 127 -88c0 -30 -15 -71 -73 -98l-1 -4c41 -13 61 -39 61 -79c0 -79 -82 -132 -202 -132c-25 0 -56 3 -79 8l3 84l9 7c29 -8 54 -12 79 -12c49 0 75 14 75 41c0 19 -14 28 -41 28h-55l-5 7l11 78l32 1c32 1 61 18 61 43c0 17 -12 25 -36 25
s-50 -9 -81 -24h-12l-10 78c45 24 91 37 137 37z" />
    <glyph glyph-name="one.lf" horiz-adv-x="381" 
d="M330 578l-54 -369l-18 -209h-158l31 193l27 224l-124 -26l-10 8l15 125l271 71z" />
    <glyph glyph-name="iacute_j.loclNLD" horiz-adv-x="514" 
d="M243 734l55 -84l-3 -15c-73 -42 -137 -79 -204 -115l-14 1l-37 58c68 53 128 102 188 156zM495 734l55 -84l-3 -15c-73 -42 -137 -79 -204 -115l-14 1l-37 58c68 53 128 102 188 156zM173 114l-5 -108l-144 -10l49 358l4 108l143 10zM485 467l-49 -352l-9 -86
c-13 -106 -68 -171 -186 -224l-46 65l2 14c57 31 85 70 95 138l44 329v23h-67l-6 9l10 75h72l136 13z" />
    <glyph glyph-name="two.lf" horiz-adv-x="500" 
d="M284 595c98 0 171 -58 171 -145c0 -61 -37 -114 -141 -226l-90 -97l3 -5h130l98 9l7 -11l-34 -127l-132 7h-241l-39 -3l-6 6l11 96l164 165c61 64 110 113 110 156c0 24 -15 43 -50 43c-41 0 -96 -26 -146 -70h-17l-11 121c66 50 141 81 213 81z" />
    <glyph glyph-name="four.dnom" horiz-adv-x="373" 
d="M325 80l-50 1l-4 -73l-8 -8l-95 -5l-5 7l12 80h-97l-72 -2l-6 9l8 72l194 227h111l-30 -219h52l5 -10zM112 169h76l11 94h-7z" />
    <glyph glyph-name="d.sups" horiz-adv-x="327" 
d="M360 812l-54 -410l-4 -74l-95 -6l14 108h-7c-22 -42 -48 -81 -77 -111h-13c-63 18 -80 54 -80 108c0 92 53 191 166 219h5l35 -5l12 92l2 73zM149 403c14 0 46 45 86 131l5 36l-44 9c-42 0 -65 -48 -65 -116c0 -43 10 -60 18 -60z" />
    <glyph glyph-name="f.l" horiz-adv-x="319" 
d="M504 682l-35 -101l-19 -6c-48 21 -81 30 -110 30c-40 0 -67 -25 -76 -81l-9 -66h98l10 -12l-11 -72h-109l-24 -168l-27 -203l-4 -108l-144 -10l41 305l22 184h-65l-7 9l10 75h72l4 31c18 145 101 220 245 220l131 -16z" />
    <glyph glyph-name="e.sups" horiz-adv-x="282" 
d="M261 437l30 -37c-33 -44 -75 -70 -120 -81h-10c-83 9 -114 55 -114 128c0 119 69 197 175 203l10 -1c45 -8 75 -33 75 -76c0 -54 -48 -94 -170 -127c3 -41 15 -57 41 -57s50 16 71 50zM199 590c-33 0 -56 -32 -62 -91c58 18 86 38 86 68c0 15 -7 23 -24 23z" />
    <glyph glyph-name="five.dnom" horiz-adv-x="327" 
d="M317 385l-22 -86l-9 -8l-70 8h-67l-7 -50l42 -9c68 -15 101 -45 101 -95c0 -91 -85 -152 -205 -152c-25 0 -59 4 -84 8l3 82l9 8c28 -8 55 -11 83 -11c49 0 77 16 77 45c0 19 -15 29 -48 35l-72 12l-6 8l24 197l14 13l43 -2h110l78 4z" />
    <glyph glyph-name="three.lf" horiz-adv-x="445" 
d="M248 597c105 0 178 -52 178 -127c0 -52 -37 -119 -113 -155v-5c58 -25 89 -58 89 -119c0 -116 -112 -200 -277 -200c-36 0 -85 5 -118 11l6 120l12 10c39 -15 76 -22 113 -22c72 0 114 28 114 74c0 32 -22 49 -68 50h-75l-5 10l17 107l53 2c38 1 88 33 88 76
c0 27 -19 42 -54 42c-37 0 -75 -15 -120 -41h-16l-10 110c62 37 122 57 186 57z" />
    <glyph glyph-name="four.lf" horiz-adv-x="509" 
d="M463 128l-77 2l-9 -122l-10 -11l-122 -7l-7 9l21 132h-150l-96 -3l-9 12l12 99l284 347h143l-45 -337h78l8 -14zM152 249h125l21 164h-10z" />
    <glyph glyph-name="six.dnom" horiz-adv-x="355" 
d="M210 245c78 0 116 -56 110 -117c-6 -68 -60 -135 -168 -135c-96 0 -149 57 -141 151c9 105 90 194 223 251h6l71 -50l-1 -11c-85 -31 -133 -57 -160 -96l4 -5c17 7 37 12 56 12zM211 116c3 33 -11 50 -43 50c-15 0 -30 -3 -46 -10l-1 -10c-5 -51 0 -81 39 -81
c30 0 48 18 51 51z" />
    <glyph glyph-name="f.sups" horiz-adv-x="218" 
d="M338 795l-17 -63l-13 -4c-24 11 -40 16 -54 16c-24 0 -39 -18 -44 -58l-7 -48h67l7 -8l-7 -45h-74l-17 -121l-19 -148l-4 -74l-96 -6l29 218l15 131h-43l-5 6l7 47h46l3 23c12 97 68 150 156 150l67 -9z" />
    <glyph glyph-name="g.sups" horiz-adv-x="330" 
d="M337 645l-31 -229l-4 -59c-13 -110 -85 -165 -178 -165c-74 0 -115 43 -125 103l3 7l95 47v7c-28 20 -37 50 -37 89c0 86 51 175 156 202h4l55 -9l55 12zM245 576l-41 8c-41 0 -64 -45 -64 -111c0 -40 9 -55 18 -55c13 0 45 43 84 129l3 24v5zM142 256c37 0 66 24 72 75
l15 114h-9c-22 -41 -50 -77 -77 -106l-40 -30c-6 -7 -8 -10 -8 -15c0 -4 1 -9 5 -15c6 -15 20 -23 42 -23z" />
    <glyph glyph-name="seven.dnom" horiz-adv-x="316" 
d="M130 388h145l38 1l-10 -83l-122 -201l-59 -113l-93 25l-5 18l160 259h-86l-72 -7l-5 9l20 94z" />
    <glyph glyph-name="five.lf" horiz-adv-x="444" 
d="M449 583l-29 -119l-12 -11l-97 11h-102l-12 -91l60 -13c97 -20 144 -68 144 -146c0 -130 -120 -226 -285 -226c-36 0 -81 5 -117 12l5 117l11 11c42 -15 80 -22 120 -22c72 0 116 33 116 83c0 33 -23 53 -72 60l-104 18l-8 12l36 293l18 17l60 -3h152l108 7z" />
    <glyph glyph-name="eight.dnom" horiz-adv-x="370" 
d="M204 394c80 0 129 -36 129 -91c0 -44 -29 -71 -72 -94l-1 -5c37 -20 60 -42 60 -85c0 -76 -64 -126 -166 -126c-87 0 -139 38 -139 96c0 45 31 75 87 94l1 4c-33 18 -55 43 -55 85c0 75 62 122 156 122zM196 317c-31 0 -48 -15 -48 -37c0 -23 22 -35 49 -46
c23 15 39 30 39 52c0 19 -14 31 -40 31zM166 155c-33 -10 -51 -25 -51 -50c0 -23 17 -38 49 -38c38 0 58 20 58 42c0 23 -29 35 -56 46z" />
    <glyph glyph-name="h.sups" horiz-adv-x="352" 
d="M268 645l9 1c47 -8 77 -36 76 -71v-9l-27 -163l-4 -75l-97 -6l32 199l1 8c0 14 -7 22 -14 22c-16 0 -49 -35 -91 -109l-5 -40l-4 -74l-95 -6l55 411l3 73l95 6l-37 -282h9c31 49 62 88 94 115z" />
    <glyph glyph-name="six.lf" horiz-adv-x="489" 
d="M465 528l-1 -16c-134 -40 -213 -94 -256 -158l6 -9c29 14 53 22 82 22c101 0 161 -80 161 -167c0 -93 -68 -211 -229 -211c-131 0 -204 79 -204 203c0 154 111 310 338 405h8zM249 258c-25 0 -55 -8 -83 -26c-1 -13 -2 -26 -2 -39c0 -64 15 -101 70 -101
c60 0 80 44 80 94c0 47 -20 72 -65 72z" />
    <glyph glyph-name="seven.lf" horiz-adv-x="429" 
d="M183 586h214l53 2l-14 -113l-191 -328l-81 -162l-120 35l-7 25l247 413h-141l-99 -11l-7 13l26 130z" />
    <glyph glyph-name="i.sups" horiz-adv-x="168" 
d="M153 810c30 0 47 -17 47 -43c0 -37 -22 -62 -58 -62c-29 0 -48 17 -48 42c0 38 23 63 59 63zM147 402l-4 -74l-95 -6l32 245l4 72l94 6z" />
    <glyph glyph-name="nine.dnom" horiz-adv-x="356" 
d="M194 395c96 0 149 -57 141 -151c-9 -105 -90 -195 -222 -251h-7l-71 50l1 11c85 31 134 57 161 96l-5 5c-17 -7 -36 -12 -55 -12c-79 0 -116 56 -111 117c6 68 60 135 168 135zM179 222c14 0 29 3 45 10l1 10c5 51 0 80 -39 80c-31 0 -48 -17 -51 -51
c-2 -32 11 -49 44 -49z" />
    <glyph glyph-name="zero.numr" horiz-adv-x="379" 
d="M247 651c85 0 132 -56 132 -156c0 -152 -70 -245 -195 -245c-87 0 -133 56 -133 157c0 151 71 244 196 244zM225 544c-50 0 -79 -34 -79 -120c0 -51 18 -75 56 -75c63 0 81 48 81 121c0 51 -18 74 -58 74z" />
    <glyph glyph-name="eight.lf" horiz-adv-x="502" 
d="M289 596c112 0 179 -54 179 -141c0 -67 -42 -111 -101 -143l-1 -7c50 -29 88 -64 88 -135c0 -106 -87 -180 -221 -180c-127 0 -204 58 -204 146c0 76 48 116 123 146l1 7c-43 26 -76 62 -76 130c0 105 84 177 212 177zM280 490c-48 0 -76 -27 -76 -63
c0 -40 30 -59 75 -77c38 22 65 47 65 85c0 35 -22 55 -64 55zM239 241c-48 -18 -80 -38 -80 -82c0 -42 26 -66 77 -66c58 0 90 32 90 68c0 41 -37 60 -87 80z" />
    <glyph glyph-name="j.sups" horiz-adv-x="191" 
d="M154 810c32 0 51 -19 51 -50c0 -34 -21 -55 -55 -55c-33 0 -52 18 -52 50c0 35 22 55 56 55zM194 642l-32 -242l-6 -54c-9 -74 -46 -118 -122 -154l-31 41l2 9c36 22 54 49 60 96l30 227v20h-42l-5 6l8 47h48l88 7z" />
    <glyph glyph-name="k.sups" horiz-adv-x="352" 
d="M363 569c0 -47 -35 -87 -84 -120c20 -39 42 -78 65 -114l-4 -7l-80 -11l-9 5c-20 40 -39 81 -56 121l4 13c41 24 68 54 68 77c0 13 -7 20 -15 20c-20 0 -54 -35 -98 -111l-5 -40l-5 -74l-94 -6l55 411l3 73l95 6l-37 -282h9c33 50 66 89 100 115h9c46 -8 79 -31 79 -76z
" />
    <glyph glyph-name="nine.lf" horiz-adv-x="489" 
d="M275 597c131 0 204 -79 204 -203c0 -154 -111 -310 -338 -405h-8l-95 69l1 16c134 40 213 94 256 158l-6 9c-29 -14 -53 -22 -82 -22c-101 0 -161 80 -161 167c0 93 68 211 229 211zM254 328c25 0 55 8 83 26c1 13 2 26 2 39c0 64 -15 101 -70 101c-60 0 -80 -44 -80 -94
c0 -47 20 -72 65 -72z" />
    <glyph glyph-name="one.numr" horiz-adv-x="283" 
d="M264 639l-35 -244l-12 -138h-122l20 127l17 136l-83 -15l-7 5l11 92l196 49z" />
    <glyph glyph-name="two.numr" horiz-adv-x="366" 
d="M234 650c66 0 118 -32 118 -88c0 -42 -28 -84 -99 -157l-54 -56l2 -2h80l70 5l5 -8l-24 -92l-98 5h-169l-26 -2l-6 5l9 69l105 97c48 46 80 77 80 103c0 15 -11 25 -32 25c-27 0 -66 -16 -99 -43h-13l-10 88c57 33 110 51 161 51z" />
    <glyph glyph-name="zero.sinf" horiz-adv-x="379" 
d="M202 274c85 0 132 -56 132 -156c0 -152 -70 -245 -195 -245c-87 0 -133 56 -133 157c0 151 71 244 196 244zM180 167c-50 0 -79 -34 -79 -120c0 -51 18 -75 56 -75c63 0 81 48 81 121c0 51 -18 74 -58 74z" />
    <glyph glyph-name="l.sups" horiz-adv-x="167" 
d="M145 402l-4 -74l-95 -6l55 411l3 73l95 6z" />
    <glyph glyph-name="one.sinf" horiz-adv-x="283" 
d="M221 262l-35 -244l-12 -138h-122l20 127l17 136l-83 -15l-7 5l11 92l196 49z" />
    <glyph glyph-name="three.numr" horiz-adv-x="327" 
d="M201 651c75 0 127 -35 127 -88c0 -30 -15 -71 -73 -98l-1 -4c41 -13 61 -39 61 -79c0 -79 -82 -132 -202 -132c-25 0 -56 3 -79 8l3 84l9 7c29 -8 54 -12 79 -12c49 0 75 14 75 41c0 19 -14 28 -41 28h-55l-5 7l11 78l32 1c32 1 61 18 61 43c0 17 -12 25 -36 25
s-50 -9 -81 -24h-12l-10 78c45 24 91 37 137 37z" />
    <glyph glyph-name="m.sups" horiz-adv-x="539" 
d="M454 645l8 1c49 -8 79 -36 78 -71v-9l-27 -163l-4 -75l-98 -6l32 199l2 8c0 14 -7 22 -14 22c-17 0 -53 -38 -97 -118l-5 -30l-4 -75l-98 -6l33 199l1 8c0 14 -7 22 -15 22c-15 0 -48 -36 -91 -111l-5 -38l-4 -74l-95 -6l32 245l3 72l95 6l-15 -115h10
c33 49 62 88 94 115l9 1c49 -8 79 -36 78 -71v-9l-6 -36h8c32 49 63 88 95 115z" />
    <glyph glyph-name="n.sups" horiz-adv-x="352" 
d="M269 645l8 1c42 -8 78 -36 77 -71l-1 -9l-27 -163l-3 -75l-98 -6l33 199l1 8c0 14 -7 22 -15 22c-16 0 -48 -35 -90 -109l-5 -40l-4 -74l-95 -6l32 245l3 72l95 6l-15 -115h9c32 49 61 88 95 115z" />
    <glyph glyph-name="four.numr" horiz-adv-x="373" 
d="M357 337l-50 1l-4 -73l-8 -8l-95 -5l-5 7l12 80h-97l-72 -2l-6 9l8 72l194 227h111l-30 -219h52l5 -10zM144 426h76l11 94h-7z" />
    <glyph glyph-name="two.sinf" horiz-adv-x="366" 
d="M179 273c66 0 118 -32 118 -88c0 -42 -28 -84 -99 -157l-54 -56l2 -2h80l70 5l5 -8l-24 -92l-98 5h-169l-26 -2l-6 5l9 69l105 97c48 46 80 77 80 103c0 15 -11 25 -32 25c-27 0 -66 -16 -99 -43h-13l-10 88c57 33 110 51 161 51z" />
    <glyph glyph-name="three.sinf" horiz-adv-x="327" 
d="M149 274c75 0 127 -35 127 -88c0 -30 -15 -71 -73 -98l-1 -4c41 -13 61 -39 61 -79c0 -79 -82 -132 -202 -132c-25 0 -56 3 -79 8l3 84l9 7c29 -8 54 -12 79 -12c49 0 75 14 75 41c0 19 -14 28 -41 28h-55l-5 7l11 78l32 1c32 1 61 18 61 43c0 17 -12 25 -36 25
s-50 -9 -81 -24h-12l-10 78c45 24 91 37 137 37z" />
    <glyph glyph-name="five.numr" horiz-adv-x="327" 
d="M348 642l-22 -86l-9 -8l-70 8h-67l-7 -50l42 -9c68 -15 101 -45 101 -95c0 -91 -85 -152 -205 -152c-25 0 -59 4 -84 8l3 82l9 8c28 -8 55 -11 83 -11c49 0 77 16 77 45c0 19 -15 29 -48 35l-72 12l-6 8l24 197l14 13l43 -2h110l78 4z" />
    <glyph glyph-name="o.sups" horiz-adv-x="314" 
d="M222 650l10 -1c57 -11 93 -47 93 -115c0 -129 -67 -210 -177 -216l-8 2c-59 10 -94 48 -94 121c0 122 68 203 176 209zM206 580c-52 0 -69 -49 -69 -140c0 -40 8 -54 30 -54c49 0 66 48 66 141c0 39 -6 53 -27 53z" />
    <glyph glyph-name="p.sups" horiz-adv-x="329" 
d="M251 646h14c59 -18 78 -51 78 -107c0 -96 -54 -192 -160 -220h-4l-40 7l-7 -53l-4 -74l-96 -6l50 374l3 72l95 6l-14 -111h10c21 43 47 82 75 112zM148 400l49 -13c38 0 59 50 59 114c0 46 -9 62 -17 62c-14 0 -46 -47 -87 -135z" />
    <glyph glyph-name="six.numr" horiz-adv-x="355" 
d="M242 502c78 0 116 -56 110 -117c-6 -68 -60 -135 -168 -135c-96 0 -149 57 -141 151c9 105 90 194 223 251h6l71 -50l-1 -11c-85 -31 -133 -57 -160 -96l4 -5c17 7 37 12 56 12zM243 373c3 33 -11 50 -43 50c-15 0 -30 -3 -46 -10l-1 -10c-5 -51 0 -81 39 -81
c30 0 48 18 51 51z" />
    <glyph glyph-name="four.sinf" horiz-adv-x="373" 
d="M306 -41l-50 1l-4 -73l-8 -8l-95 -5l-5 7l12 80h-97l-72 -2l-6 9l8 72l194 227h111l-30 -219h52l5 -10zM93 48h76l11 94h-7z" />
    <glyph glyph-name="five.sinf" horiz-adv-x="327" 
d="M301 265l-22 -86l-9 -8l-70 8h-67l-7 -50l42 -9c68 -15 101 -45 101 -95c0 -91 -85 -152 -205 -152c-25 0 -59 4 -84 8l3 82l9 8c28 -8 55 -11 83 -11c49 0 77 16 77 45c0 19 -15 29 -48 35l-72 12l-6 8l24 197l14 13l43 -2h110l78 4z" />
    <glyph glyph-name="seven.numr" horiz-adv-x="316" 
d="M162 645h145l38 1l-10 -83l-122 -201l-59 -113l-93 25l-5 18l160 259h-86l-72 -7l-5 9l20 94z" />
    <glyph glyph-name="q.sups" horiz-adv-x="329" 
d="M336 645l-49 -372l-4 -74l-94 -6l31 237h-10c-22 -42 -46 -81 -75 -111h-13c-62 18 -79 54 -79 107c0 92 53 192 164 220h5l58 -9l59 13zM148 403c13 0 45 46 86 135l3 27v5l-43 9c-41 0 -63 -48 -63 -116c0 -43 9 -60 17 -60z" />
    <glyph glyph-name="r.sups" horiz-adv-x="247" 
d="M291 641l-15 -109l-8 -3l-20 3c-29 0 -57 -26 -93 -80l-6 -50l-4 -74l-96 -6l33 245l3 72l95 6l-14 -112h10c31 58 63 96 98 111z" />
    <glyph glyph-name="six.sinf" horiz-adv-x="355" 
d="M190 126c78 0 116 -56 110 -117c-6 -68 -60 -135 -168 -135c-96 0 -149 57 -141 151c9 105 90 194 223 251h6l71 -50l-1 -11c-85 -31 -133 -57 -160 -96l4 -5c17 7 37 12 56 12zM191 -3c3 33 -11 50 -43 50c-15 0 -30 -3 -46 -10l-1 -10c-5 -51 0 -81 39 -81
c30 0 48 18 51 51z" />
    <glyph glyph-name="eight.numr" horiz-adv-x="370" 
d="M235 651c80 0 129 -36 129 -91c0 -44 -29 -71 -72 -94l-1 -5c37 -20 60 -42 60 -85c0 -76 -64 -126 -166 -126c-87 0 -139 38 -139 96c0 45 31 75 87 94l1 4c-33 18 -55 43 -55 85c0 75 62 122 156 122zM227 574c-31 0 -48 -15 -48 -37c0 -23 22 -35 49 -46
c23 15 39 30 39 52c0 19 -14 31 -40 31zM197 412c-33 -10 -51 -25 -51 -50c0 -23 17 -38 49 -38c38 0 58 20 58 42c0 23 -29 35 -56 46z" />
    <glyph glyph-name="nine.numr" horiz-adv-x="356" 
d="M226 652c96 0 149 -57 141 -151c-9 -105 -90 -195 -222 -251h-7l-71 50l1 11c85 31 134 57 161 96l-5 5c-17 -7 -36 -12 -55 -12c-79 0 -116 56 -111 117c6 68 60 135 168 135zM211 479c14 0 29 3 45 10l1 10c5 51 0 80 -39 80c-31 0 -48 -17 -51 -51
c-2 -32 11 -49 44 -49z" />
    <glyph glyph-name="seven.sinf" horiz-adv-x="316" 
d="M120 268h145l38 1l-10 -83l-122 -201l-59 -113l-93 25l-5 18l160 259h-86l-72 -7l-5 9l20 94z" />
    <glyph glyph-name="s.sups" horiz-adv-x="255" 
d="M201 647c27 -2 51 -8 75 -16l-21 -70l-13 -5c-23 21 -49 32 -66 32c-20 0 -31 -14 -31 -29c0 -40 112 -48 112 -134c0 -61 -59 -106 -140 -106c-31 3 -59 8 -86 18l21 75l9 6c25 -26 56 -42 80 -42c22 0 35 16 34 31c-4 39 -114 54 -115 129c1 70 66 112 141 111z" />
    <glyph glyph-name="t.sups" horiz-adv-x="243" 
d="M168 419l-2 -8c1 -9 5 -14 13 -14c13 0 23 12 34 38l14 -1l26 -32c-22 -38 -47 -64 -78 -81l-11 -1c-62 2 -89 19 -89 68l2 21l24 160l2 16h-43l-6 6l6 47h49l9 72l90 21l7 -5l-13 -88h76l7 -8l-6 -45h-86z" />
    <glyph glyph-name="eight.sinf" horiz-adv-x="370" 
d="M186 274c80 0 129 -36 129 -91c0 -44 -29 -71 -72 -94l-1 -5c37 -20 60 -42 60 -85c0 -76 -64 -126 -166 -126c-87 0 -139 38 -139 96c0 45 31 75 87 94l1 4c-33 18 -55 43 -55 85c0 75 62 122 156 122zM178 197c-31 0 -48 -15 -48 -37c0 -23 22 -35 49 -46
c23 15 39 30 39 52c0 19 -14 31 -40 31zM148 35c-33 -10 -51 -25 -51 -50c0 -23 17 -38 49 -38c38 0 58 20 58 42c0 23 -29 35 -56 46z" />
    <glyph glyph-name="nine.sinf" horiz-adv-x="356" 
d="M180 275c96 0 149 -57 141 -151c-9 -105 -90 -195 -222 -251h-7l-71 50l1 11c85 31 134 57 161 96l-5 5c-17 -7 -36 -12 -55 -12c-79 0 -116 56 -111 117c6 68 60 135 168 135zM165 102c14 0 29 3 45 10l1 10c5 51 0 80 -39 80c-31 0 -48 -17 -51 -51
c-2 -32 11 -49 44 -49z" />
    <glyph glyph-name="u.sups" horiz-adv-x="346" 
d="M353 645l-31 -243l-5 -74l-95 -6l15 111h-7c-30 -47 -58 -84 -90 -112h-8c-49 6 -80 34 -79 70l1 12l26 161l4 74l97 6l-31 -198l-1 -9c0 -14 5 -23 14 -23c15 0 44 35 86 105l6 48l3 72z" />
    <glyph glyph-name="v.sups" horiz-adv-x="310" 
d="M235 630l89 17c8 -18 12 -35 12 -53c0 -30 -10 -61 -30 -98l-96 -171h-108l-38 315l94 5l2 -58l9 -167h8l49 99c12 28 19 50 19 71c0 14 -3 27 -10 40z" />
    <glyph glyph-name="zero.tf" horiz-adv-x="481" 
d="M287 595c113 0 180 -80 180 -241c0 -213 -97 -364 -256 -364c-117 0 -183 82 -183 241c0 211 95 364 259 364zM263 450c-82 0 -112 -77 -112 -198c0 -83 19 -126 77 -126c81 0 116 75 116 199c0 86 -23 125 -81 125z" />
    <glyph glyph-name="one.tf" horiz-adv-x="475" 
d="M379 578l-54 -369l-18 -209h-158l31 193l27 224l-150 -26l-9 8l15 125l296 71z" />
    <glyph glyph-name="w.sups" horiz-adv-x="501" 
d="M424 630l89 17c9 -20 14 -38 14 -57c0 -28 -10 -58 -29 -94l-90 -171h-105l-15 195h-8l-75 -195h-104l-37 315l94 5v-50l9 -167h9l62 160l18 54h101l1 -47l10 -167h8l42 91c11 26 17 48 17 67c0 15 -4 30 -11 44z" />
    <glyph glyph-name="two.tf" horiz-adv-x="476" 
d="M272 595c96 0 167 -58 167 -145c0 -61 -35 -114 -137 -226l-84 -97l3 -5h120l95 9l7 -11l-34 -127l-129 7h-233l-37 -3l-7 6l12 96l159 165c57 64 105 113 105 156c0 24 -15 43 -47 43c-39 0 -92 -26 -140 -70h-17l-10 121c64 50 137 81 207 81z" />
    <glyph glyph-name="x.sups" horiz-adv-x="333" 
d="M327 328l-107 -8l-8 42l-28 70l-44 -70l-19 -37h-103l114 165l-65 150l102 9l10 -34l28 -65l43 62l14 30h100l-111 -157z" />
    <glyph glyph-name="three.tf" horiz-adv-x="475" 
d="M262 597c106 0 179 -52 179 -127c0 -52 -37 -119 -113 -155v-5c58 -25 90 -58 90 -119c0 -116 -113 -200 -279 -200c-36 0 -85 5 -118 11l6 120l12 10c39 -15 76 -22 113 -22c74 0 115 28 115 74c0 32 -21 49 -68 50h-75l-6 10l17 107l53 2c39 1 89 33 89 76
c0 27 -19 42 -54 42c-37 0 -76 -15 -121 -41h-16l-10 110c63 37 123 57 186 57z" />
    <glyph glyph-name="y.sups" horiz-adv-x="316" 
d="M241 630l89 17c8 -17 12 -34 12 -53c0 -33 -13 -71 -44 -126l-57 -108c-70 -126 -122 -169 -193 -169c-22 0 -44 4 -66 12l-5 78l9 9c20 -6 39 -9 58 -9c30 0 59 10 84 32l-72 327l95 5l6 -58l25 -162h11l38 85c13 32 20 58 20 79c0 15 -3 28 -10 41z" />
    <glyph glyph-name="four.tf" horiz-adv-x="475" 
d="M437 132l-74 2l-10 -127l-9 -10l-115 -7l-6 9l21 136h-146l-90 -3l-8 12l12 93l273 349h134l-45 -339h75l8 -13zM139 247h122l21 175h-9z" />
    <glyph glyph-name="z.sups" horiz-adv-x="300" 
d="M321 629l-176 -224l17 4c8 0 35 -7 43 -7c31 0 44 14 50 62l12 3l38 -11c-3 -102 -41 -138 -98 -138c-44 0 -80 23 -111 23c-15 0 -25 -6 -42 -20h-12l-28 25l171 221l-70 -2l-47 -7l-7 7l16 78l9 7l62 -5l121 -3l23 14z" />
    </font>
</defs>
</svg>
