<?xml version="1.0" standalone="no"?>
<!DOCTYPE svg PUBLIC "-//W3C//DTD SVG 1.1//EN" "http://www.w3.org/Graphics/SVG/1.1/DTD/svg11.dtd" >
<svg version="1.1" xmlns="http://www.w3.org/2000/svg">
<metadata>
Created by FontForge 20120731 at Fri Aug  1 16:50:16 2014

Copyright (c) 2013 by Juan Pablo del Peral (huertatipografica.com.ar)
</metadata>
<defs>
<font id="alegreyasans" horiz-adv-x="390" >
  <font-face 
    font-family="Alegreya Sans Black"
    font-weight="900"
    font-style="italic"
    font-stretch="normal"
    units-per-em="1000"
    panose-1="0 0 10 0 0 0 0 0 0 0"
    ascent="800"
    descent="-200"
    x-height="476"
    cap-height="647"
    bbox="-255 -311 1246 1115"
    underline-thickness="80"
    underline-position="-90"
    slope="-7"
    stemh="127"
    stemv="183"
    unicode-range="U+0020-FB02"
  />
<missing-glyph horiz-adv-x="135" 
 />
    <glyph glyph-name="Idieresis" unicode="&#xa8;I" horiz-adv-x="327" 
d="M142 890c51 0 81 -30 81 -82c0 -55 -34 -90 -88 -90c-52 0 -81 29 -81 82c0 56 33 90 88 90zM326 890c50 0 80 -30 80 -82c0 -55 -34 -90 -87 -90s-82 29 -82 82c0 56 34 90 89 90zM249 210l-18 -210h-200l34 190l46 457h203z" />
    <glyph glyph-name="Odieresis" unicode="&#xa8;O" horiz-adv-x="658" 
d="M305 890c51 0 81 -29 81 -81c0 -56 -34 -91 -88 -91c-53 0 -81 30 -81 83c0 56 33 89 88 89zM499 890c51 0 80 -30 80 -81c0 -56 -33 -91 -87 -91c-53 0 -82 30 -82 83c0 56 34 89 89 89zM380 659c169 0 274 -88 274 -285c0 -222 -126 -386 -355 -386
c-170 0 -275 90 -275 288c0 222 126 383 356 383zM357 500c-71 0 -124 -35 -124 -227c0 -102 15 -138 87 -138c70 0 124 35 124 227c0 102 -16 138 -87 138z" />
    <glyph glyph-name="Yacute" unicode="&#xb4;Y" horiz-adv-x="594" 
d="M256 716l-30 79c83 41 154 80 225 122l17 -4l49 -116l-6 -16c-86 -27 -161 -49 -238 -69zM379 204l-6 -34l-12 -170h-199l30 170l3 37l-152 440h208l9 -54l49 -196h12l109 189l30 61h204z" />
    <glyph glyph-name="idieresis" unicode="&#xa8;i" horiz-adv-x="259" 
d="M87 715c51 0 81 -30 81 -82c0 -55 -34 -90 -88 -90c-52 0 -81 29 -81 82c0 56 33 90 88 90zM271 715c50 0 80 -30 80 -82c0 -55 -34 -90 -87 -90s-82 29 -82 82c0 56 34 90 89 90zM197 116l-5 -109l-177 -11l47 356l4 113l177 11z" />
    <glyph glyph-name="odieresis" unicode="&#xa8;o" horiz-adv-x="468" 
d="M193 715c51 0 81 -29 81 -81c0 -56 -34 -91 -88 -91c-53 0 -81 30 -81 83c0 56 33 89 88 89zM387 715c51 0 80 -30 80 -81c0 -56 -33 -91 -87 -91c-53 0 -82 30 -82 83c0 56 34 89 89 89zM289 484l16 -2c90 -20 151 -78 151 -181c0 -192 -107 -304 -278 -313l-16 2
c-92 21 -150 82 -150 193c0 178 107 291 277 301zM255 348c-65 0 -73 -48 -73 -169c0 -45 7 -59 31 -59c63 0 71 48 71 170c0 44 -6 58 -29 58z" />
    <glyph glyph-name="yacute" unicode="&#xb4;y" horiz-adv-x="483" 
d="M191 522l-44 72c75 55 138 106 201 160l17 -1l69 -106l-3 -17c-81 -41 -151 -76 -223 -109zM312 459l163 20c9 -26 14 -52 14 -78c0 -48 -15 -96 -44 -154l-92 -181c-101 -200 -182 -264 -294 -264c-35 0 -71 6 -105 18l-9 144l15 16c31 -8 61 -13 90 -13
c31 0 62 7 88 19l-107 480l178 10l7 -91l27 -200h14l35 87c16 39 26 76 26 110c0 22 -5 42 -14 60z" />
    <glyph glyph-name="Itilde" unicode="&#x7e;I" horiz-adv-x="327" 
d="M402 858v-16l-72 -111l-15 -6c-45 7 -102 32 -123 32c-25 0 -42 -28 -60 -56h-16l-56 55v16l72 110l15 6c45 -7 102 -32 123 -32c25 0 42 28 60 56h16zM249 210l-18 -210h-200l34 190l46 457h203z" />
    <glyph glyph-name="itilde" unicode="&#x7e;i" horiz-adv-x="259" 
d="M347 683v-16l-72 -111l-15 -6c-45 7 -102 32 -123 32c-25 0 -42 -28 -60 -56h-16l-56 55v16l72 110l15 6c45 -7 102 -32 123 -32c25 0 42 28 60 56h16zM197 116l-5 -109l-177 -11l47 356l4 113l177 11z" />
    <glyph glyph-name="Utilde" unicode="&#x7e;U" horiz-adv-x="653" 
d="M593 861v-16l-81 -113l-16 -6c-52 7 -127 34 -153 34s-46 -29 -69 -58h-16l-57 55v16l81 112l16 6c52 -7 127 -34 153 -34s46 29 69 58h16zM610 319l-13 -103c-19 -147 -120 -228 -300 -228c-157 0 -252 65 -252 185c0 13 1 28 3 43l15 103l34 328h200l-58 -404
c-1 -10 -2 -19 -2 -27c0 -50 23 -71 76 -71c64 0 94 29 101 98l40 404h203z" />
    <glyph glyph-name="utilde" unicode="&#x7e;u" horiz-adv-x="514" 
d="M502 686v-16l-81 -113l-16 -6c-52 7 -127 34 -153 34s-46 -29 -69 -58h-16l-57 55v16l81 112l16 6c52 -7 127 -34 153 -34s46 29 69 58h16zM321 465l177 11l-47 -360l-4 -109l-177 -11l16 121h-13c-33 -45 -65 -83 -105 -120l-13 -1c-84 10 -137 52 -137 109l2 20l37 226
l4 112l181 11l-42 -262l-1 -13c0 -16 6 -23 18 -23c17 0 47 29 89 95l11 81z" />
    <glyph glyph-name="Etilde" unicode="&#x7e;E" horiz-adv-x="540" 
d="M218 702l-57 55v16l81 112l16 6c52 -7 127 -34 153 -34s46 29 69 58h16l57 -54v-16l-81 -113l-16 -6c-52 7 -127 34 -153 34s-46 -29 -69 -58h-16zM291 494l-13 -92h99l105 3l9 -14l-30 -146l-115 3h-91l-6 -38l-5 -57h97l167 6l9 -14l-30 -145h-456l33 190l47 457h464
l8 -14l-30 -145l-158 6h-104z" />
    <glyph glyph-name="etilde" unicode="&#x7e;e" horiz-adv-x="436" 
d="M458 686v-16l-81 -113l-16 -6c-52 7 -127 34 -153 34s-46 -29 -69 -58h-16l-57 55v16l81 112l16 6c52 -7 127 -34 153 -34s46 29 69 58h16zM424 354c0 -79 -65 -132 -243 -176c6 -40 22 -54 52 -54c34 0 63 20 92 63l22 -3l57 -72c-53 -64 -120 -104 -187 -123h-16
c-136 15 -189 83 -189 194c0 174 104 291 275 301l15 -2c73 -14 122 -55 122 -128zM179 276c62 13 89 30 89 67c0 20 -8 28 -27 28c-37 0 -57 -29 -62 -95z" />
    <glyph glyph-name="Ytilde" unicode="&#x7e;Y" horiz-adv-x="594" 
d="M229 702l-57 55v16l81 112l16 6c52 -7 127 -34 153 -34s46 29 69 58h16l57 -54v-16l-81 -113l-16 -6c-52 7 -127 34 -153 34s-46 -29 -69 -58h-16zM379 204l-6 -34l-12 -170h-199l30 170l3 37l-152 440h208l9 -54l49 -196h12l109 189l30 61h204z" />
    <glyph glyph-name="ytilde" unicode="&#x7e;y" horiz-adv-x="483" 
d="M151 527l-57 55v16l81 112l16 6c52 -7 127 -34 153 -34s46 29 69 58h16l57 -54v-16l-81 -113l-16 -6c-52 7 -127 34 -153 34s-46 -29 -69 -58h-16zM312 459l163 20c9 -26 14 -52 14 -78c0 -48 -15 -96 -44 -154l-92 -181c-101 -200 -182 -264 -294 -264
c-35 0 -71 6 -105 18l-9 144l15 16c31 -8 61 -13 90 -13c31 0 62 7 88 19l-107 480l178 10l7 -91l27 -200h14l35 87c16 39 26 76 26 110c0 22 -5 42 -14 60z" />
    <glyph glyph-name="fi" unicode="fi" horiz-adv-x="595" 
d="M579 471l-45 -355l-5 -109l-177 -11l47 356v10h-133l-22 -152l-25 -198l-4 -109l-177 -11l39 298l18 172h-62l-8 11l12 90h69v3c20 158 116 236 270 236l137 -22l6 -11l-45 -124l-22 -8c-50 27 -80 38 -103 38c-34 0 -54 -20 -62 -67l-6 -45h173l118 16z" />
    <glyph glyph-name="fl" unicode="fl" horiz-adv-x="596" 
d="M613 704l-79 -588l-3 -109l-178 -11l76 564c-36 15 -60 21 -79 21c-34 0 -54 -19 -62 -67l-7 -51h93l12 -14l-13 -87h-107l-22 -152l-25 -198l-4 -109l-177 -11l39 298l18 172h-62l-8 11l12 90h69l1 9c18 158 116 236 273 236l99 -12z" />
    <glyph glyph-name="f_j" unicode="fj" horiz-adv-x="605" 
d="M579 471l-45 -355l-8 -82c-13 -107 -76 -179 -202 -231l-54 80l2 16c49 25 77 64 85 125l42 328v10h-133l-22 -152l-25 -198l-4 -109l-177 -11l39 298l18 172h-62l-8 11l12 90h69v3c20 158 116 236 270 236l137 -22l6 -11l-45 -124l-22 -8c-50 27 -80 38 -103 38
c-34 0 -54 -20 -62 -67l-6 -45h173l118 16z" />
    <glyph glyph-name="Gtilde" unicode="&#x7e;G" horiz-adv-x="599" 
d="M592 861v-16l-81 -113l-16 -6c-52 7 -127 34 -153 34s-46 -29 -69 -58h-16l-57 55v16l81 112l16 6c52 -7 127 -34 153 -34s46 29 69 58h16zM425 658c70 0 146 -11 194 -30l-64 -176h-16c-58 31 -100 47 -160 47c-89 0 -146 -36 -146 -239c0 -93 31 -122 109 -122
c17 0 26 2 37 4l4 33l10 109l184 13l-14 -88l-22 -177c-82 -30 -152 -44 -225 -44c-189 0 -292 100 -292 270c0 256 141 400 401 400z" />
    <glyph glyph-name="gtilde" unicode="&#x7e;g" horiz-adv-x="481" 
d="M491 686v-16l-81 -113l-16 -6c-52 7 -127 34 -153 34s-46 -29 -69 -58h-16l-57 55v16l81 112l16 6c52 -7 127 -34 153 -34s46 29 69 58h16zM455 484l11 -8l-46 -343l-3 -83c-21 -163 -137 -246 -270 -246c-128 0 -186 75 -199 165l4 11l132 55l1 12
c-44 32 -58 79 -58 132c0 124 77 250 231 300h6l92 -16zM296 343l-63 15c-38 0 -57 -41 -57 -118c0 -54 9 -73 22 -73c20 0 51 48 95 150zM178 -73c38 0 68 22 72 72l18 135h-13c-26 -44 -55 -83 -88 -117l-23 -20c-13 -11 -16 -20 -16 -29c0 -19 12 -41 50 -41z" />
    <glyph glyph-name=".notdef" horiz-adv-x="135" 
 />
    <glyph glyph-name="space" unicode=" " horiz-adv-x="127" 
 />
    <glyph glyph-name="exclam" unicode="!" horiz-adv-x="286" 
d="M310 649l-100 -390l-110 -16l-17 18l30 378l19 22l158 11zM134 189c59 0 92 -35 92 -94c0 -64 -38 -104 -100 -104c-61 0 -94 34 -94 95c0 63 39 103 102 103z" />
    <glyph glyph-name="quotedbl" unicode="&#x22;" horiz-adv-x="436" 
d="M262 634l-81 -261l-88 -14l-14 11l23 267l151 9zM448 634l-80 -261l-89 -14l-14 11l23 267l151 9z" />
    <glyph glyph-name="numbersign" unicode="#" horiz-adv-x="587" 
d="M467 346l-14 -90h72l11 -12l-8 -96h-92l-19 -117h-111l-8 12l17 105h-92l-19 -117h-110l-9 12l17 105h-71l-11 11l8 97h91l14 90h-72l-11 12l8 97h92l19 117h108l12 -13l-17 -104h91l19 117h107l12 -13l-17 -104h71l11 -12l-8 -97h-91zM346 346h-91l-15 -90h92z" />
    <glyph glyph-name="dollar" unicode="$" horiz-adv-x="469" 
d="M235 371c0 -47 193 -39 193 -187c0 -74 -45 -156 -156 -185l-15 -139h-96l-11 14l12 114c-46 2 -104 9 -162 28l44 160l18 13c49 -42 114 -71 154 -71c17 0 26 7 26 19c0 46 -194 38 -194 188c0 90 63 166 173 190l14 130h95l14 -14l-12 -109c45 -4 87 -14 120 -26
l-43 -153l-26 -7c-46 33 -100 51 -126 51c-15 0 -22 -6 -22 -16z" />
    <glyph glyph-name="percent" unicode="%" horiz-adv-x="896" 
d="M746 647l7 -24l-551 -717l-75 50l-4 17l552 721zM253 655c88 0 136 -52 136 -145c0 -142 -75 -229 -205 -229c-90 0 -138 52 -138 146c0 141 76 228 207 228zM225 535c-38 0 -62 -18 -62 -90c0 -37 12 -54 44 -54c57 0 65 38 65 91c0 38 -14 53 -47 53zM734 367
c88 0 136 -52 136 -146c0 -141 -75 -228 -205 -228c-89 0 -137 52 -137 145c0 142 75 229 206 229zM706 247c-38 0 -62 -18 -62 -91c0 -37 12 -53 44 -53c57 0 66 38 66 91c0 38 -14 53 -48 53z" />
    <glyph glyph-name="ampersand" unicode="&#x26;" horiz-adv-x="649" 
d="M347 659c50 0 98 -7 164 -26l-42 -138l-21 -6c-51 28 -93 46 -132 46c-46 0 -71 -22 -71 -67c0 -61 27 -83 74 -83l197 12l134 18l18 -16l-29 -119l-113 -3l-5 -6c11 -21 15 -47 15 -73c0 -97 -78 -210 -271 -210c-146 0 -232 65 -232 174c0 66 45 120 129 157v4
c-43 36 -69 80 -69 142c0 115 94 194 254 194zM367 272l-110 -4c-38 -24 -58 -55 -58 -91c0 -49 30 -75 86 -75c73 0 111 35 111 102c0 29 -10 52 -29 68z" />
    <glyph glyph-name="quotesingle" unicode="'" horiz-adv-x="249" 
d="M262 634l-81 -261l-88 -14l-14 11l23 267l151 9z" />
    <glyph glyph-name="parenleft" unicode="(" horiz-adv-x="307" 
d="M348 602l-2 -15c-112 -107 -138 -329 -138 -447c0 -91 19 -157 58 -205l-2 -15l-76 -57h-17c-79 64 -117 155 -117 285c0 168 42 392 215 511h17z" />
    <glyph glyph-name="parenright" unicode=")" horiz-adv-x="307" 
d="M-35 -80l2 15c112 107 138 329 138 447c0 91 -19 157 -58 205l2 15l76 57h17c79 -64 117 -155 117 -285c0 -168 -42 -392 -215 -511h-17z" />
    <glyph glyph-name="asterisk" unicode="*" horiz-adv-x="394" 
d="M301 741l-36 -127l-51 -6l-9 8l-6 118c28 10 63 16 97 17zM193 605l-9 -51l-11 -5l-114 30c-1 30 4 64 13 97l12 3zM279 606l112 42c17 -24 33 -54 45 -87l-7 -8l-132 -4l-23 46zM293 533l75 -93c-18 -25 -42 -48 -69 -70l-10 4l-45 125l37 35zM225 509l2 -11l-64 -100
c-29 8 -60 24 -89 42l1 12l104 81z" />
    <glyph glyph-name="plus" unicode="+" horiz-adv-x="477" 
d="M332 469l-18 -149h147l11 -13l-24 -117h-150l-19 -152l-118 -9l-12 12l19 149h-149l-10 13l23 117h152l18 152l118 9z" />
    <glyph glyph-name="comma" unicode="," horiz-adv-x="229" 
d="M147 182c32 -31 47 -64 47 -106c0 -77 -47 -146 -151 -218l-61 53l-2 14c38 33 56 67 56 109c0 29 -10 52 -33 74l1 16c45 25 92 45 143 58z" />
    <glyph glyph-name="hyphen" unicode="-" horiz-adv-x="300" 
d="M284 326l-13 -120l-240 -38l-12 14l14 120l239 38z" />
    <glyph glyph-name="period" unicode="." horiz-adv-x="230" 
d="M101 189c59 0 92 -35 92 -94c0 -64 -38 -104 -100 -104c-61 0 -94 34 -94 95c0 63 39 103 102 103z" />
    <glyph glyph-name="slash" unicode="/" horiz-adv-x="280" 
d="M353 667l-263 -785h-135l-10 15l263 786h131z" />
    <glyph glyph-name="zero" unicode="0" horiz-adv-x="517" 
d="M296 524c125 0 197 -73 197 -225c0 -182 -102 -311 -267 -311c-127 0 -198 77 -198 226c0 178 101 310 268 310zM269 343c-69 0 -88 -36 -88 -103c0 -56 13 -82 69 -82c65 0 90 37 90 105c0 59 -17 80 -71 80z" />
    <glyph glyph-name="one" unicode="1" horiz-adv-x="379" 
d="M335 502l-46 -292l-18 -210h-197l32 190l13 110l-96 -20l-11 9l19 157l278 76z" />
    <glyph glyph-name="two" unicode="2" horiz-adv-x="490" 
d="M274 522c101 0 180 -45 180 -131c0 -54 -35 -104 -131 -192l-50 -47l3 -5h78l98 10l8 -12l-40 -153l-143 8h-230l-37 -3l-8 7l15 117l140 111c59 46 97 80 97 104c0 14 -11 22 -33 22c-36 0 -88 -20 -133 -50h-21l-14 151c76 40 148 63 221 63z" />
    <glyph glyph-name="three" unicode="3" horiz-adv-x="453" 
d="M244 524c112 0 192 -55 192 -133c0 -52 -37 -122 -108 -156v-6c52 -29 79 -60 79 -118c0 -120 -115 -204 -293 -204c-38 0 -91 4 -126 11l7 143l15 12c43 -13 81 -20 119 -20c62 0 91 18 91 51c0 20 -12 30 -43 30h-84l-6 12l21 134l60 3c28 1 63 25 63 54
c0 21 -13 30 -41 30c-34 0 -71 -13 -115 -33h-20l-12 135c66 35 133 55 201 55z" />
    <glyph glyph-name="four" unicode="4" horiz-adv-x="528" 
d="M473 28l-69 2l-6 -103l-12 -13l-153 -9l-8 12l19 115h-130l-113 -4l-10 16l15 123l279 347h179l-45 -333h69l9 -17zM175 181h92l15 120h-11z" />
    <glyph glyph-name="five" unicode="5" horiz-adv-x="448" 
d="M456 510l-36 -147l-15 -14l-109 15h-80l-8 -62l59 -13c94 -21 140 -67 140 -145c0 -141 -125 -239 -301 -239c-39 0 -89 6 -127 14l7 139l13 13c44 -13 84 -19 127 -19c58 0 93 21 93 57c0 24 -18 37 -56 43l-107 18l-10 14l39 314l21 20l63 -4h161l117 8z" />
    <glyph glyph-name="six" unicode="6" horiz-adv-x="500" 
d="M311 376c105 0 163 -86 163 -174c0 -103 -80 -214 -242 -214c-137 0 -217 80 -217 210c0 163 126 306 334 400h9l113 -86l-2 -18c-107 -31 -178 -70 -222 -122l5 -7c21 8 38 11 59 11zM239 112c39 0 58 30 58 73c0 38 -15 56 -50 56c-16 0 -34 -3 -56 -10
c-1 -11 -1 -22 -1 -34c0 -60 12 -85 49 -85z" />
    <glyph glyph-name="seven" unicode="7" horiz-adv-x="450" 
d="M193 514h210l58 2l-18 -141l-167 -287l-93 -185l-149 43l-9 30l228 378h-110l-113 -12l-7 15l32 162z" />
    <glyph glyph-name="eight" unicode="8" horiz-adv-x="516" 
d="M297 598c121 0 192 -57 192 -145c0 -59 -33 -104 -95 -140l-1 -8c48 -29 81 -66 81 -132c0 -110 -91 -185 -231 -185c-138 0 -219 59 -219 147c0 70 39 111 117 140l1 8c-42 26 -74 65 -74 132c0 109 90 183 229 183zM283 467c-37 0 -56 -20 -56 -44c0 -29 24 -46 66 -63
c28 22 42 43 42 65c0 27 -18 42 -52 42zM243 225c-41 -15 -57 -33 -57 -60c0 -32 19 -50 61 -50c47 0 68 25 68 47c0 30 -32 47 -72 63z" />
    <glyph glyph-name="nine" unicode="9" horiz-adv-x="500" 
d="M273 525c137 0 217 -80 217 -210c0 -163 -126 -306 -334 -400h-9l-113 86l2 18c107 31 178 70 222 122l-5 7c-21 -8 -38 -11 -59 -11c-105 0 -163 86 -163 174c0 103 80 214 242 214zM258 272c16 0 34 3 56 10c1 11 1 22 1 34c0 60 -12 85 -49 85c-39 0 -58 -30 -58 -73
c0 -38 15 -56 50 -56z" />
    <glyph glyph-name="colon" unicode=":" horiz-adv-x="230" 
d="M134 444c59 0 92 -35 92 -94c0 -64 -38 -104 -100 -104c-61 0 -94 34 -94 95c0 63 39 103 102 103zM102 189c59 0 92 -35 92 -94c0 -64 -38 -104 -100 -104c-61 0 -94 34 -94 95c0 63 39 103 102 103z" />
    <glyph glyph-name="semicolon" unicode=";" horiz-adv-x="229" 
d="M127 444c59 0 93 -35 93 -94c0 -64 -39 -104 -101 -104c-61 0 -93 34 -93 95c0 63 38 103 101 103zM142 182c33 -31 48 -64 48 -106c0 -77 -48 -146 -152 -218l-61 53l-2 14c38 33 56 67 56 109c0 29 -10 52 -33 74l1 16c45 25 92 45 143 58z" />
    <glyph glyph-name="less" unicode="&#x3c;" horiz-adv-x="492" 
d="M471 369l-9 -12l-288 -93l-1 -9l265 -91l-39 -108l-18 -13l-350 135l19 155l14 17l381 130z" />
    <glyph glyph-name="equal" unicode="=" horiz-adv-x="478" 
d="M481 413l-9 -117h-430l-12 13l9 117h430zM455 200l-9 -116h-430l-12 13l9 116h430z" />
    <glyph glyph-name="greater" unicode="&#x3e;" horiz-adv-x="503" 
d="M461 350l10 -17l-19 -155l-383 -135l-15 13l-12 108l288 91l1 9l-267 93l-5 12l53 111z" />
    <glyph glyph-name="question" unicode="?" horiz-adv-x="352" 
d="M119 668l18 9c180 -8 281 -61 281 -154c0 -62 -43 -120 -118 -156l-62 -30l-3 -6l-2 -71l-138 -20l-11 12l4 136l8 11l88 36c35 14 55 32 55 59c0 33 -36 50 -154 58l-12 17zM158 189c58 0 92 -35 92 -94c0 -64 -39 -104 -100 -104s-94 34 -94 95c0 63 39 103 102 103z
" />
    <glyph glyph-name="at" unicode="@" horiz-adv-x="866" 
d="M855 327c0 -210 -151 -325 -419 -325l14 104h-15c-20 -39 -42 -77 -71 -111h-21c-104 26 -130 82 -130 159c0 114 69 249 227 302h6l91 -15l103 21l11 -8l-43 -322c76 18 123 94 123 189c0 139 -103 226 -264 219c-195 -8 -322 -148 -322 -336c0 -206 152 -323 379 -323
l6 -17l-49 -89c-278 0 -462 143 -462 408c0 267 186 476 472 476c219 0 364 -123 364 -332zM388 149c19 0 46 47 87 147l3 22l-64 16c-31 0 -46 -38 -46 -111c0 -53 7 -74 20 -74z" />
    <glyph glyph-name="A" unicode="A" horiz-adv-x="626" 
d="M587 0h-202l-4 107v4l-99 2l-83 -4l-31 -109h-195l276 647h241zM368 256l-18 213h-12l-83 -213l57 -1z" />
    <glyph glyph-name="B" unicode="B" horiz-adv-x="630" 
d="M497 333c76 -31 104 -68 104 -137c0 -132 -102 -203 -350 -203c-58 0 -149 4 -218 7l33 190l46 457l278 1c134 0 225 -49 225 -151c0 -66 -38 -129 -118 -164zM268 383l75 -3c45 13 66 39 66 80c0 42 -21 56 -104 56h-17zM299 124c62 0 100 29 100 76c0 31 -17 44 -51 56
l-99 -2l-6 -44l-7 -82c25 -2 48 -4 63 -4z" />
    <glyph glyph-name="C" unicode="C" horiz-adv-x="516" 
d="M396 658c60 0 122 -10 168 -27l-53 -159l-14 -7c-33 19 -81 31 -119 31c-103 0 -139 -64 -139 -201c0 -97 35 -141 109 -141c37 0 89 8 127 21l14 -9l-35 -158c-49 -15 -87 -19 -132 -19c-193 0 -297 98 -297 274c0 246 131 395 371 395z" />
    <glyph glyph-name="D" unicode="D" horiz-adv-x="668" 
d="M111 647l283 4c170 0 271 -91 271 -254c0 -252 -132 -406 -380 -406c-65 0 -176 4 -253 9l33 190zM331 139c74 0 123 60 123 229c0 93 -27 128 -87 128c-19 0 -47 -1 -76 -4l-42 -282l-5 -63c30 -4 66 -8 87 -8z" />
    <glyph glyph-name="E" unicode="E" horiz-adv-x="540" 
d="M291 494l-13 -92h98l105 3l9 -14l-30 -146l-115 3h-90l-6 -38l-5 -57h96l167 6l9 -14l-30 -145h-455l33 190l47 457h463l9 -14l-31 -145l-158 6h-103z" />
    <glyph glyph-name="F" unicode="F" horiz-adv-x="480" 
d="M291 494l-17 -117h67l117 3l9 -14l-30 -145l-127 3h-59l-2 -14l-18 -210h-200l33 190l47 457h431l9 -14l-31 -145l-158 6h-71z" />
    <glyph glyph-name="G" unicode="G" horiz-adv-x="599" 
d="M426 658c69 0 145 -11 193 -30l-64 -176h-16c-58 31 -100 47 -160 47c-89 0 -146 -36 -146 -239c0 -93 31 -122 110 -122c16 0 25 2 36 4l4 33l10 109l184 13l-14 -88l-22 -177c-81 -30 -152 -44 -225 -44c-189 0 -292 100 -292 270c0 256 141 400 402 400z" />
    <glyph glyph-name="H" unicode="H" horiz-adv-x="711" 
d="M700 647l-65 -437l-18 -210h-200l34 190l5 50l-108 2l-95 -3l-4 -29l-18 -210h-200l34 190l46 457h203l-36 -245l101 -2l93 2l25 245h203z" />
    <glyph glyph-name="I" unicode="I" horiz-adv-x="327" 
d="M249 210l-18 -210h-200l34 190l46 457h203z" />
    <glyph glyph-name="J" unicode="J" horiz-adv-x="362" 
d="M348 647l-66 -434l-8 -89c-17 -123 -77 -186 -251 -236l-40 103l2 15c71 34 98 66 105 124l8 63l33 314l-83 -3l-9 13l24 130h285z" />
    <glyph glyph-name="K" unicode="K" horiz-adv-x="629" 
d="M677 647l-229 -317c53 -99 112 -194 174 -288l-5 -22c-69 -15 -135 -26 -203 -32l-21 12c-45 98 -89 196 -131 298l-13 -88l-18 -210h-200l34 190l46 457h203l-40 -271l149 201l43 70h211z" />
    <glyph glyph-name="L" unicode="L" horiz-adv-x="452" 
d="M441 149l-29 -149h-385l33 190l46 457h203l-64 -437l-4 -47h191z" />
    <glyph glyph-name="M" unicode="M" horiz-adv-x="806" 
d="M746 0h-176l20 196l9 165h-12l-143 -300h-150l-50 300h-12l-33 -146l-35 -215h-167l142 647h231l8 -92l29 -236h12l91 229l36 99h227z" />
    <glyph glyph-name="N" unicode="N" horiz-adv-x="710" 
d="M636 211l-18 -211h-217l-140 348h-12l-15 -114l-21 -234h-181l33 190l46 457h217l141 -348h12l36 341l184 11z" />
    <glyph glyph-name="O" unicode="O" horiz-adv-x="658" 
d="M380 659c170 0 274 -88 274 -285c0 -222 -125 -386 -355 -386c-170 0 -275 90 -275 288c0 222 126 383 356 383zM357 500c-71 0 -124 -35 -124 -227c0 -102 15 -138 87 -138c70 0 124 35 124 227c0 102 -16 138 -87 138z" />
    <glyph glyph-name="P" unicode="P" horiz-adv-x="593" 
d="M111 647l296 1c132 0 213 -64 213 -177c0 -170 -125 -288 -314 -288h-58l-16 -183h-200l33 190zM267 327l74 -4c49 25 67 60 67 115c0 47 -25 69 -78 72l-36 -3z" />
    <glyph glyph-name="Q" unicode="Q" horiz-adv-x="662" 
d="M698 -61l6 -18c-31 -48 -66 -90 -111 -126l-14 -7c-105 56 -198 122 -280 200h-3c-170 0 -272 90 -272 288c0 222 129 383 359 383c170 0 271 -88 271 -285c0 -151 -59 -274 -168 -339c67 -38 138 -70 212 -96zM233 273c0 -102 15 -138 87 -138c70 0 124 35 124 227
c0 102 -16 138 -87 138s-124 -35 -124 -227z" />
    <glyph glyph-name="R" unicode="R" horiz-adv-x="630" 
d="M622 475c0 -91 -49 -172 -132 -225c36 -68 74 -136 116 -203l-5 -22c-68 -20 -136 -33 -205 -37l-17 16c-21 62 -43 125 -63 189h-68l-17 -193h-200l34 190l46 457l296 1c132 0 215 -62 215 -173zM408 442c0 45 -24 65 -78 68l-37 -3l-25 -168l73 -4c50 21 67 55 67 107z
" />
    <glyph glyph-name="S" unicode="S" horiz-adv-x="528" 
d="M350 659c53 0 119 -9 185 -35l-50 -162l-28 -12c-53 35 -110 56 -143 56c-34 0 -54 -16 -54 -36c0 -71 244 -74 244 -248c0 -127 -119 -234 -296 -234c-68 0 -140 13 -211 38l48 173l21 12c60 -50 135 -76 179 -76c43 0 55 19 55 36c0 76 -241 73 -241 249
c0 134 123 239 291 239z" />
    <glyph glyph-name="T" unicode="T" horiz-adv-x="518" 
d="M560 633l-28 -145l-131 6h-13l-40 -284l-18 -210h-199l34 190l32 304h-13l-134 -6l-10 14l29 145h482z" />
    <glyph glyph-name="U" unicode="U" horiz-adv-x="653" 
d="M610 319l-13 -103c-19 -147 -120 -228 -300 -228c-157 0 -252 65 -252 185c0 13 1 28 3 43l15 103l34 328h200l-58 -404c-1 -10 -2 -19 -2 -27c0 -50 23 -71 77 -71c63 0 93 29 100 98l40 404h203z" />
    <glyph glyph-name="V" unicode="V" horiz-adv-x="615" 
d="M394 0h-241l-98 647h202l5 -107l32 -362h11l135 350l34 119h195z" />
    <glyph glyph-name="W" unicode="W" horiz-adv-x="914" 
d="M694 0h-212l-32 234h-11l-86 -234h-213l-72 647h194l-2 -100l21 -346h11l111 296l-16 150h203l-1 -121l28 -325h11l120 334l32 112h184z" />
    <glyph glyph-name="X" unicode="X" horiz-adv-x="634" 
d="M459 332l150 -332h-235l-24 79l-45 106l-89 -116l-41 -69h-202l230 321l-153 326h236l25 -81l44 -103l80 114l39 70h208z" />
    <glyph glyph-name="Y" unicode="Y" horiz-adv-x="594" 
d="M379 204l-6 -34l-12 -170h-199l30 170l3 37l-152 440h208l9 -54l49 -196h12l109 189l30 61h204z" />
    <glyph glyph-name="Z" unicode="Z" horiz-adv-x="569" 
d="M570 505l-319 -358h161l124 9l5 -9l-35 -152l-176 5h-230l-102 -6l18 142l325 364h-158l-121 -10l-6 8l33 152l150 -3h274l75 1z" />
    <glyph glyph-name="bracketleft" unicode="[" horiz-adv-x="302" 
d="M361 640l-11 -86l-97 -14l-67 -554l93 -15l-11 -85l-8 -9l-244 10l57 376l36 376l246 10z" />
    <glyph glyph-name="backslash" unicode="\" horiz-adv-x="455" 
d="M203 683l208 -786l-11 -15h-134l-208 785l15 16h130z" />
    <glyph glyph-name="bracketright" unicode="]" horiz-adv-x="302" 
d="M-52 -114l11 85l96 15l68 554l-93 14l11 86l8 9l244 -10l-57 -376l-36 -376l-246 -10z" />
    <glyph glyph-name="asciicircum" unicode="^" horiz-adv-x="460" 
d="M440 161l-15 -16l-111 -26l-60 252h-9l-124 -253l-14 -7l-105 40l172 340l18 11h155z" />
    <glyph glyph-name="underscore" unicode="_" horiz-adv-x="438" 
d="M411 -104l-22 -106h-447l-10 13l22 106h447z" />
    <glyph glyph-name="grave" unicode="`" 
d="M167 753l17 1c63 -54 126 -105 201 -160l-44 -72l-17 -1c-72 33 -142 68 -223 109l-3 17z" />
    <glyph glyph-name="a" unicode="a" horiz-adv-x="488" 
d="M472 476l-47 -360l-4 -109l-177 -11l15 110h-16c-21 -42 -44 -81 -74 -117h-23c-111 27 -138 87 -138 168c0 121 73 265 240 321h7l97 -17l109 23zM193 152c21 0 50 51 93 157l3 22l-68 17c-33 0 -49 -40 -49 -117c0 -57 8 -79 21 -79z" />
    <glyph glyph-name="b" unicode="b" horiz-adv-x="490" 
d="M322 478h23c104 -26 136 -81 136 -167c0 -127 -77 -269 -235 -322h-7l-109 19l-111 19l73 553l4 113l177 11l-46 -347h16c22 42 49 84 79 121zM198 138l75 -20c31 0 45 47 45 120c0 60 -9 83 -20 83c-21 0 -51 -53 -96 -154z" />
    <glyph glyph-name="c" unicode="c" horiz-adv-x="379" 
d="M382 455l4 -18l-51 -129l-39 -1c-20 26 -30 39 -54 39c-45 0 -61 -43 -61 -130c0 -53 10 -75 35 -75c20 0 34 13 61 60l23 -1l56 -70c-43 -75 -87 -113 -162 -140h-23c-119 18 -161 83 -161 191c0 156 86 300 283 300z" />
    <glyph glyph-name="d" unicode="d" horiz-adv-x="486" 
d="M501 704l-78 -588l-4 -109l-177 -11l15 112h-13c-22 -42 -47 -83 -77 -119h-23c-110 27 -137 86 -137 166c0 122 75 267 244 323h7l47 -8l15 110l4 113zM191 150c20 0 49 47 91 145l5 37l-64 17c-35 0 -53 -42 -53 -122c0 -55 9 -77 21 -77z" />
    <glyph glyph-name="e" unicode="e" horiz-adv-x="436" 
d="M348 184l56 -72c-53 -64 -120 -104 -186 -123h-16c-137 15 -190 83 -190 194c0 174 104 291 275 301l16 -2c72 -14 121 -55 121 -128c0 -79 -65 -132 -243 -176c6 -40 22 -54 52 -54c34 0 64 20 93 63zM241 371c-36 0 -57 -29 -62 -95c62 13 89 30 89 67
c0 20 -8 28 -27 28z" />
    <glyph glyph-name="f" unicode="f" horiz-adv-x="336" 
d="M492 674l-47 -120l-23 -8c-40 21 -64 29 -83 29c-28 0 -45 -20 -52 -67l-6 -45h93l12 -14l-13 -87h-107l-22 -152l-25 -198l-4 -109l-177 -11l39 298l18 172h-62l-8 11l12 90h69v3c17 158 112 236 264 236l113 -14z" />
    <glyph glyph-name="g" unicode="g" horiz-adv-x="481" 
d="M466 476l-46 -343l-3 -83c-21 -163 -137 -246 -270 -246c-128 0 -186 75 -199 165l4 11l132 55l1 12c-44 32 -58 79 -58 132c0 124 77 250 231 300h6l92 -16l99 21zM296 343l-63 15c-37 0 -57 -41 -57 -118c0 -54 10 -73 22 -73c20 0 51 48 95 150zM177 -73
c39 0 69 22 73 72l18 135h-13c-26 -44 -55 -83 -88 -117l-23 -20c-13 -11 -16 -20 -16 -29c0 -19 12 -41 49 -41z" />
    <glyph glyph-name="h" unicode="h" horiz-adv-x="527" 
d="M357 473l13 1c83 -14 135 -56 134 -111l-1 -14l-38 -230l-4 -112l-181 -11l42 264l2 10c0 16 -6 22 -17 22c-19 0 -55 -33 -103 -111l-9 -65l-3 -109l-178 -11l79 584l3 113l178 11l-48 -359h17c37 48 74 90 114 128z" />
    <glyph glyph-name="i" unicode="i" horiz-adv-x="259" 
d="M180 730c59 0 92 -34 92 -94c0 -64 -38 -104 -100 -104c-61 0 -94 34 -94 95c0 64 39 103 102 103zM197 116l-5 -109l-177 -11l47 356l4 113l177 11z" />
    <glyph glyph-name="j" unicode="j" horiz-adv-x="286" 
d="M184 730c59 0 92 -34 92 -94c0 -64 -38 -104 -100 -104c-61 0 -94 34 -94 95c0 64 39 103 102 103zM267 472l-49 -354l-8 -82c-13 -107 -77 -179 -206 -231l-56 80l2 16c53 25 82 64 91 125l43 321l-2 15h-63l-7 11l13 90h73l165 13z" />
    <glyph glyph-name="k" unicode="k" horiz-adv-x="540" 
d="M515 349c0 -68 -47 -125 -106 -169c24 -54 52 -108 80 -160l-9 -13l-149 -19l-17 8c-22 58 -44 116 -60 174l6 23c42 25 75 62 75 85c0 10 -7 17 -16 17c-24 0 -65 -33 -115 -113l-9 -66l-3 -109l-178 -11l79 584l3 113l178 11l-48 -359h17c39 48 83 90 126 128l13 1
c78 -14 133 -52 133 -125z" />
    <glyph glyph-name="l" unicode="l" horiz-adv-x="258" 
d="M195 116l-3 -109l-178 -11l79 584l3 113l178 11z" />
    <glyph glyph-name="m" unicode="m" horiz-adv-x="798" 
d="M626 473l13 1c84 -14 136 -56 135 -111l-1 -14l-38 -230l-3 -112l-182 -11l43 264l1 10c0 16 -6 22 -16 22c-20 0 -58 -33 -105 -113l-10 -60l-3 -112l-182 -11l43 264l1 10c0 16 -6 22 -16 22c-19 0 -54 -32 -101 -107l-9 -69l-4 -109l-177 -11l47 356l4 113l177 11
l-17 -131h16c37 48 74 90 114 128l13 1c83 -14 134 -56 133 -111l-1 -14l-1 -4h14c36 48 73 90 112 128z" />
    <glyph glyph-name="n" unicode="n" horiz-adv-x="525" 
d="M355 473l13 1c72 -14 135 -56 134 -111l-1 -14l-38 -230l-4 -112l-182 -11l44 264l1 10c0 16 -6 22 -17 22c-19 0 -53 -31 -100 -105l-9 -71l-4 -109l-177 -11l47 356l4 113l177 11l-17 -131h15c37 48 74 90 114 128z" />
    <glyph glyph-name="o" unicode="o" horiz-adv-x="468" 
d="M290 484l16 -2c89 -20 150 -78 150 -181c0 -192 -107 -304 -278 -313l-16 2c-92 21 -150 82 -150 193c0 178 107 291 278 301zM255 348c-64 0 -73 -48 -73 -169c0 -45 7 -59 32 -59c62 0 70 48 70 170c0 44 -6 58 -29 58z" />
    <glyph glyph-name="p" unicode="p" horiz-adv-x="490" 
d="M324 478h23c103 -26 135 -81 135 -167c0 -127 -77 -269 -235 -322h-7l-59 11l-10 -76l-4 -109l-177 -11l72 548l4 113l177 11l-16 -119h18c22 42 48 84 79 121zM199 138l76 -20c30 0 45 47 45 120c0 60 -9 83 -21 83c-21 0 -52 -54 -97 -158z" />
    <glyph glyph-name="q" unicode="q" horiz-adv-x="490" 
d="M474 476l-72 -552l-4 -109l-177 -11l40 304h-17c-22 -42 -47 -83 -77 -119h-23c-110 27 -137 86 -137 166c0 122 75 267 244 323h7l97 -17l108 23zM191 150c21 0 52 51 97 158l3 24l-67 17c-36 0 -54 -42 -54 -122c0 -53 9 -77 21 -77z" />
    <glyph glyph-name="r" unicode="r" horiz-adv-x="385" 
d="M398 470l-28 -216l-16 -7l-36 7c-44 -3 -72 -15 -111 -51l-11 -87l-4 -109l-177 -11l47 356l4 113l177 11l-16 -124h17c36 55 72 93 125 123z" />
    <glyph glyph-name="s" unicode="s" horiz-adv-x="385" 
d="M265 480c41 -4 81 -12 121 -24l-41 -138l-23 -9c-37 37 -80 56 -106 56c-15 0 -24 -8 -24 -19c0 -47 162 -55 162 -183c0 -102 -100 -174 -227 -174c-48 5 -94 13 -140 26l42 145l18 9c39 -45 91 -69 125 -69c19 0 26 11 26 19c0 41 -168 65 -166 181
c4 115 112 180 233 180z" />
    <glyph glyph-name="t" unicode="t" horiz-adv-x="366" 
d="M231 166l-1 -9c0 -4 2 -9 10 -9c10 0 19 8 32 30l23 -1l49 -61c-32 -48 -68 -90 -114 -124l-18 -2c-104 11 -151 38 -154 117l3 30l32 218l1 7h-62l-9 11l11 90h70l10 97l169 38l12 -10l-19 -125h98l12 -14l-11 -87h-114z" />
    <glyph glyph-name="u" unicode="u" horiz-adv-x="514" 
d="M498 476l-47 -360l-4 -109l-177 -11l16 121h-13c-33 -45 -65 -83 -104 -120l-13 -1c-85 10 -138 52 -138 109l2 20l37 226l4 112l181 11l-42 -262l-1 -13c0 -16 6 -23 18 -23c17 0 47 29 89 95l11 81l4 113z" />
    <glyph glyph-name="v" unicode="v" horiz-adv-x="471" 
d="M300 459l162 20c9 -26 14 -52 14 -78c0 -48 -16 -97 -47 -154l-134 -247h-204l-60 466l177 10v-91l11 -203h14l47 109c16 37 25 67 25 95c0 19 -4 38 -13 56z" />
    <glyph glyph-name="w" unicode="w" horiz-adv-x="743" 
d="M580 0h-197l-11 234h-15l-78 -234h-194l-54 466l175 10v-87l3 -191h15l60 179l27 95h188l1 -83l5 -190h14l36 92c15 37 25 67 25 95c0 19 -4 38 -13 56l8 17l162 20c9 -26 14 -52 14 -78c0 -48 -17 -97 -46 -154z" />
    <glyph glyph-name="x" unicode="x" horiz-adv-x="502" 
d="M460 4l-200 -13l-12 69l-21 69l-38 -64l-27 -65h-193l160 242l-89 225l193 15l13 -56l25 -70l37 66l22 50h186l-160 -239z" />
    <glyph glyph-name="y" unicode="y" horiz-adv-x="483" 
d="M312 459l162 20c9 -26 14 -52 14 -78c0 -48 -15 -96 -44 -154l-91 -181c-101 -200 -182 -264 -295 -264c-35 0 -71 6 -104 18l-9 144l14 16c31 -8 61 -13 90 -13c31 0 62 7 89 19l-107 480l178 10l7 -91l27 -200h14l35 87c16 39 25 76 25 110c0 22 -4 42 -13 60z" />
    <glyph glyph-name="z" unicode="z" horiz-adv-x="446" 
d="M447 442l-237 -296l25 7h38c35 0 48 5 57 60l21 6l69 -18c-2 -163 -61 -211 -145 -211c-69 0 -121 33 -167 33c-23 0 -36 -8 -62 -31h-22l-52 49l225 285l-70 -3l-76 -15l-14 12l30 153l17 11l105 -8l167 -6l41 23z" />
    <glyph glyph-name="braceleft" unicode="{" horiz-adv-x="303" 
d="M271 659c28 0 53 -4 78 -12l5 -13l-26 -95c-11 3 -22 5 -33 5c-34 0 -52 -23 -52 -57c0 -28 12 -63 12 -94c0 -45 -29 -88 -83 -112l-1 -7c39 -20 58 -55 58 -91c0 -49 -41 -90 -41 -131c0 -26 14 -41 42 -41c11 0 22 2 34 5l3 -95l-9 -13c-27 -8 -53 -12 -81 -12
c-95 0 -145 41 -145 109s41 121 41 166c0 27 -16 49 -47 63l11 87c42 17 64 43 64 83c0 29 -7 67 -7 106c0 96 64 149 177 149z" />
    <glyph glyph-name="bar" unicode="|" horiz-adv-x="300" 
d="M295 797l-67 -503l-65 -539l-133 -11l-13 16l65 519l64 520l137 11z" />
    <glyph glyph-name="braceright" unicode="}" horiz-adv-x="302" 
d="M42 -104c-28 0 -53 4 -78 12l-5 13l26 95c11 -3 22 -5 33 -5c34 0 52 22 52 57c0 28 -13 63 -13 94c0 45 29 88 83 112l1 7c-39 20 -58 55 -58 91c0 49 41 89 41 130c0 27 -14 42 -41 42c-11 0 -22 -2 -34 -5l-3 95l9 13c27 8 53 12 81 12c95 0 145 -41 145 -109
s-41 -121 -41 -166c0 -27 16 -49 47 -63l-11 -87c-42 -17 -64 -43 -64 -83c0 -29 6 -67 6 -106c0 -96 -63 -149 -176 -149z" />
    <glyph glyph-name="asciitilde" unicode="~" horiz-adv-x="480" 
d="M148 212c-27 0 -55 -30 -85 -60h-16l-44 62l2 16l107 115l16 7c59 -11 176 -57 210 -57c26 0 53 30 85 61h16l42 -63l-2 -16l-105 -115l-17 -5c-59 8 -176 55 -209 55z" />
    <glyph glyph-name="nbspace" unicode="&#xa0;" horiz-adv-x="127" 
 />
    <glyph glyph-name="exclamdown" unicode="&#xa1;" horiz-adv-x="286" 
d="M164 286c-59 0 -92 35 -92 94c0 64 38 104 100 104c61 0 94 -34 94 -95c0 -63 -39 -103 -102 -103zM-12 -174l100 390l110 16l17 -18l-30 -378l-19 -22l-158 -11z" />
    <glyph glyph-name="cent" unicode="&#xa2;" horiz-adv-x="384" 
d="M311 231l54 -65c-35 -59 -70 -94 -121 -119l-25 -174h-97l-11 14l21 152c-85 26 -119 86 -119 185c0 127 58 243 188 280l22 156h94l15 -14l-19 -134l73 -20l6 -17l-45 -118l-36 -1c-22 25 -36 37 -60 37c-55 0 -81 -45 -81 -137c0 -62 14 -88 47 -88c23 0 43 14 73 64z
" />
    <glyph glyph-name="sterling" unicode="&#xa3;" horiz-adv-x="479" 
d="M381 597c40 0 78 -4 119 -13l-25 -134l-14 -8c-48 23 -82 32 -111 32c-35 0 -60 -13 -65 -51l-10 -70h126l4 -9l-19 -95h-125l-5 -33c-5 -44 -17 -64 -47 -85v-5h120l111 8l4 -8l-28 -131l-154 5h-272l-5 9l20 107c54 14 78 40 84 91l5 42h-74l-3 9l18 95h71l4 39
c15 133 115 205 271 205z" />
    <glyph glyph-name="currency" unicode="&#xa4;" horiz-adv-x="434" 
d="M474 490l-2 -16l-79 -61c6 -17 9 -38 9 -57c0 -31 -9 -57 -22 -82l65 -55l1 -17l-95 -88h-16l-50 71c-25 -13 -51 -19 -78 -19c-23 0 -46 6 -66 15l-62 -70l-18 -3l-78 83l3 16l77 59c-6 16 -9 37 -9 56c0 31 8 58 23 85l-63 55v17l94 89l16 -1l51 -71c23 10 48 16 74 16
c23 0 44 -5 63 -13l66 72l18 3zM237 411c-50 0 -82 -32 -82 -82c0 -39 23 -62 64 -62c50 0 82 32 82 82c0 39 -24 62 -64 62z" />
    <glyph glyph-name="yen" unicode="&#xa5;" horiz-adv-x="585" 
d="M553 326l7 -7l-16 -79h-129l-38 -55h158l7 -7l-14 -79h-182l-7 -99h-169l19 99h-164l-5 9l14 77h150l-22 55h-120l-5 9l15 77h77l-72 185h178l9 -45l51 -145h10l96 139l26 51h173l-127 -185h80z" />
    <glyph glyph-name="brokenbar" unicode="&#xa6;" horiz-adv-x="300" 
d="M295 797l-55 -415l-135 -17l-11 11l52 423l137 11zM210 145l-47 -390l-133 -11l-13 16l48 386l132 15z" />
    <glyph glyph-name="section" unicode="&#xa7;" horiz-adv-x="465" 
d="M247 517c0 -46 208 -55 208 -193c0 -65 -46 -125 -117 -158c29 -22 51 -51 51 -94c0 -94 -100 -168 -229 -168c-48 0 -119 11 -169 28l37 135l17 11c45 -38 105 -62 144 -62c30 0 42 14 42 25c0 46 -208 54 -208 193c0 65 45 126 113 160c-28 22 -48 51 -48 93
c0 94 102 171 233 171c46 0 102 -10 140 -25l-34 -129l-22 -7c-44 29 -90 43 -118 43c-25 0 -40 -12 -40 -23zM182 281c0 -28 27 -46 62 -64c34 17 51 38 51 60c0 29 -28 47 -63 64c-33 -16 -50 -38 -50 -60z" />
    <glyph glyph-name="dieresis" unicode="&#xa8;" 
d="M150 715c51 0 81 -29 81 -81c0 -56 -34 -91 -88 -91c-53 0 -81 30 -81 83c0 56 33 89 88 89zM344 715c51 0 80 -30 80 -81c0 -56 -33 -91 -87 -91c-53 0 -82 30 -82 83c0 56 34 89 89 89z" />
    <glyph glyph-name="copyright" unicode="&#xa9;" horiz-adv-x="695" 
d="M354 598c183 0 305 -122 305 -305s-122 -305 -305 -305c-182 0 -304 122 -304 305s122 305 304 305zM354 537c-144 0 -242 -98 -242 -244s98 -244 242 -244c145 0 243 98 243 244s-98 244 -243 244zM384 464c31 0 58 -4 84 -9l-22 -100l-7 -5c-17 8 -43 12 -60 12
c-34 0 -47 -12 -47 -55c0 -53 16 -76 56 -76c16 0 41 2 58 5l10 -6l-10 -99c-24 -4 -47 -2 -68 -2c-121 0 -179 57 -179 163c0 108 67 172 185 172z" />
    <glyph glyph-name="ordfeminine" unicode="&#xaa;" horiz-adv-x="337" 
d="M350 646l-33 -247l-3 -75l-110 -7l12 95h-10c-19 -37 -40 -71 -66 -99h-15c-71 19 -89 58 -89 114c0 88 52 187 168 221h5l67 -11l66 14zM155 411c14 0 42 42 78 125l3 22l-48 11c-33 0 -50 -38 -50 -98c0 -44 8 -60 17 -60z" />
    <glyph glyph-name="guillemetleft" unicode="&#xab;" horiz-adv-x="466" 
d="M29 221l4 27l147 177l85 -47l2 -17l-96 -131l64 -130l-6 -17l-96 -47zM234 221l4 27l147 177l85 -47l2 -17l-96 -131l64 -130l-6 -17l-96 -47z" />
    <glyph glyph-name="logicalnot" unicode="&#xac;" horiz-adv-x="481" 
d="M450 311l-34 -273l-117 -9l-12 12l19 149h-284l-11 13l24 117h410z" />
    <glyph glyph-name="softhyphen" unicode="&#xad;" horiz-adv-x="300" 
d="M284 326l-13 -120l-240 -38l-12 14l14 120l239 38z" />
    <glyph glyph-name="registered" unicode="&#xae;" horiz-adv-x="454" 
d="M227 703c115 0 192 -77 192 -192s-77 -192 -192 -192s-192 77 -192 192s77 192 192 192zM227 361c90 0 150 60 150 150s-60 150 -150 150s-150 -60 -150 -150s60 -150 150 -150zM320 553c0 -23 -13 -44 -36 -58c15 -21 31 -42 48 -62l-1 -7c-19 -7 -40 -9 -62 -11l-8 5
c-10 18 -20 37 -29 56h-25l3 -57h-64l3 56l-3 140l100 1c47 0 74 -23 74 -63zM253 548c0 15 -8 21 -30 22l-13 -1l-2 -48l27 -2c12 7 18 14 18 29z" />
    <glyph glyph-name="macron" unicode="&#xaf;" 
d="M392 678l-9 -107h-276l-12 13l9 106h276z" />
    <glyph glyph-name="degree" unicode="&#xb0;" horiz-adv-x="293" 
d="M198 659c70 0 120 -53 120 -121c0 -82 -72 -149 -153 -149c-69 0 -119 53 -119 121c0 82 72 149 152 149zM189 580c-38 0 -64 -26 -64 -63c0 -30 19 -49 50 -49c36 0 63 25 63 63c0 29 -19 49 -49 49z" />
    <glyph glyph-name="plusminus" unicode="&#xb1;" horiz-adv-x="479" 
d="M333 469l-18 -149h147l11 -13l-24 -117h-150l-19 -152l-118 -9l-12 12l19 149h-149l-10 13l23 117h152l18 152l118 9zM427 -28l-9 -116h-430l-12 12l9 117h430z" />
    <glyph glyph-name="twosuperior" unicode="&#xb2;" horiz-adv-x="375" 
d="M250 707c70 0 125 -32 125 -92c0 -42 -26 -84 -97 -156l-40 -41l2 -3h57l72 7l6 -9l-29 -112l-108 6h-170l-26 -2l-6 5l10 84l101 89c43 39 75 66 75 88c0 11 -8 18 -24 18c-24 0 -63 -15 -96 -40h-16l-12 108c63 32 122 50 176 50z" />
    <glyph glyph-name="threesuperior" unicode="&#xb3;" horiz-adv-x="337" 
d="M218 708c82 0 135 -37 135 -92c0 -27 -11 -69 -73 -100v-4c39 -13 58 -39 58 -77c0 -83 -88 -136 -217 -136c-28 0 -60 3 -85 8l3 102l11 8c32 -9 58 -13 86 -13c42 0 61 8 61 26c0 11 -9 15 -26 15h-62l-6 8l13 95l33 2c30 1 51 11 51 30c0 12 -9 16 -29 16
c-23 0 -49 -8 -80 -19h-15l-12 95c48 23 104 36 154 36z" />
    <glyph glyph-name="acute" unicode="&#xb4;" 
d="M316 753l69 -106l-3 -17c-81 -41 -151 -76 -223 -109l-17 1l-44 72c75 55 138 106 201 160z" />
    <glyph glyph-name="micro" unicode="&#xb5;" horiz-adv-x="522" 
d="M506 476l-47 -360l-4 -109l-177 -11l16 121h-13c-31 -43 -62 -79 -99 -114l-10 -77l-4 -109l-177 -11l72 546l4 113l177 11l-36 -277l-1 -8c1 -10 8 -15 18 -15c17 0 47 29 89 95l11 81l4 113z" />
    <glyph glyph-name="paragraph" unicode="&#xb6;" horiz-adv-x="564" 
d="M605 634l-29 -134h-59l-43 -287l-6 -69c-14 -115 -77 -182 -260 -239l-39 89l2 16c74 34 104 67 112 127l7 56l31 308h-32c-31 -14 -49 -54 -49 -105c0 -37 12 -77 34 -109l-81 -97c-105 30 -162 103 -162 201c0 161 111 256 304 256h260z" />
    <glyph glyph-name="periodcentered" unicode="&#xb7;" horiz-adv-x="230" 
d="M122 359c59 0 92 -34 92 -94c0 -64 -38 -104 -100 -104c-61 0 -94 34 -94 95c0 64 39 103 102 103z" />
    <glyph glyph-name="cedilla" unicode="&#xb8;" 
d="M170 -43l34 -19c34 -18 44 -39 44 -63c0 -48 -41 -84 -110 -84c-35 0 -65 9 -92 24l11 75l8 3c21 -18 46 -28 60 -28c11 0 16 5 16 14c0 7 -4 11 -12 15l-50 27l22 112h83z" />
    <glyph glyph-name="onesuperior" unicode="&#xb9;" horiz-adv-x="295" 
d="M292 692l-37 -244l-11 -141h-149l21 127l14 114l-81 -12l-9 6l14 112l219 52z" />
    <glyph glyph-name="ordmasculine" unicode="&#xba;" horiz-adv-x="323" 
d="M227 651l11 -1c61 -12 101 -51 101 -121c0 -131 -71 -211 -189 -217l-10 2c-63 12 -102 52 -102 128c0 123 73 203 189 209zM207 570c-50 0 -63 -41 -63 -129c0 -38 7 -50 28 -50c48 0 61 41 61 130c0 37 -6 49 -26 49z" />
    <glyph glyph-name="guillemetright" unicode="&#xbb;" horiz-adv-x="466" 
d="M232 243l-4 -27l-147 -177l-85 47l-2 17l96 131l-64 130l6 17l96 47zM437 243l-4 -27l-147 -177l-84 47l-2 17l96 131l-64 130l6 17l96 47z" />
    <glyph glyph-name="onequarter" unicode="&#xbc;" horiz-adv-x="796" 
d="M679 623l-551 -717l-75 50l-4 17l552 721l71 -47zM125 495l-81 -12l-9 6l14 112l219 52l19 -14l-37 -244l-11 -141h-149l21 127zM752 69l-46 1l-3 -61l-9 -9l-115 -6l-7 8l11 70h-86l-84 -3l-7 11l10 88l194 225h135l-30 -215h49l6 -12zM541 178h58l7 65h-8z" />
    <glyph glyph-name="onehalf" unicode="&#xbd;" horiz-adv-x="834" 
d="M672 647l7 -24l-551 -717l-75 50l-4 17l552 721zM287 639l-37 -244l-11 -141h-149l21 127l14 114l-81 -12l-9 6l14 112l219 52zM672 400c70 0 125 -32 125 -92c0 -42 -26 -84 -97 -156l-40 -41l2 -3h57l72 7l6 -9l-29 -112l-108 6h-170l-26 -2l-6 5l10 84l101 89
c43 39 75 66 75 88c0 11 -8 18 -24 18c-24 0 -63 -15 -96 -40h-16l-12 108c63 32 122 50 176 50z" />
    <glyph glyph-name="threequarters" unicode="&#xbe;" horiz-adv-x="838" 
d="M721 623l-551 -717l-75 50l-4 17l552 721l71 -47zM333 382c0 -83 -88 -136 -217 -136c-28 0 -60 3 -85 8l3 102l11 8c32 -9 58 -13 86 -13c42 0 61 8 61 26c0 11 -9 15 -26 15h-62l-6 8l13 95l33 2c30 1 51 11 51 30c0 12 -9 16 -29 16c-23 0 -49 -8 -80 -19h-15l-12 95
c48 23 104 36 154 36c82 0 135 -37 135 -92c0 -27 -11 -69 -73 -100v-4c39 -13 58 -39 58 -77zM794 69l-46 1l-3 -61l-9 -9l-115 -6l-7 8l11 70h-86l-84 -3l-7 11l10 88l194 225h135l-30 -215h49l6 -12zM583 178h58l7 65h-8z" />
    <glyph glyph-name="questiondown" unicode="&#xbf;" horiz-adv-x="351" 
d="M199 286c-58 0 -92 35 -92 94c0 64 39 104 100 104s94 -34 94 -95c0 -63 -39 -103 -102 -103zM238 -193l-18 -9c-180 8 -281 61 -281 154c0 62 43 120 118 156l62 30l3 6l2 71l138 20l11 -12l-4 -136l-8 -11l-88 -36c-35 -14 -55 -32 -55 -59c0 -33 36 -50 154 -58
l12 -17z" />
    <glyph glyph-name="Agrave" unicode="&#xc0;" horiz-adv-x="626" 
d="M501 716l-17 -4c-77 20 -152 42 -238 69l-6 16l49 116l17 4c71 -42 142 -80 225 -122zM588 0h-202l-4 107v4l-101 2l-81 -4l-31 -109h-195l276 647h241zM369 256l-18 213h-12l-83 -213l55 -1z" />
    <glyph glyph-name="Aacute" unicode="&#xc1;" horiz-adv-x="626" 
d="M273 716l-30 79c83 41 154 80 225 122l17 -4l49 -116l-6 -16c-86 -27 -161 -49 -238 -69zM588 0h-202l-4 107v4l-101 2l-81 -4l-31 -109h-195l276 647h241zM369 256l-18 213h-12l-83 -213l55 -1z" />
    <glyph glyph-name="Acircumflex" unicode="&#xc2;" horiz-adv-x="626" 
d="M241 720l-25 76c58 39 111 77 158 118h34c43 -41 92 -79 148 -118l-43 -76h-18c-37 20 -71 40 -108 60c-41 -20 -87 -40 -128 -60h-18zM588 0h-202l-4 107v4l-101 2l-81 -4l-31 -109h-195l276 647h241zM369 256l-18 213h-12l-83 -213l55 -1z" />
    <glyph glyph-name="Atilde" unicode="&#xc3;" horiz-adv-x="626" 
d="M246 702l-57 55v16l81 112l16 6c52 -7 127 -34 153 -34s46 29 69 58h16l57 -54v-16l-81 -113l-16 -6c-52 7 -127 34 -153 34s-46 -29 -69 -58h-16zM588 0h-202l-4 107v4l-101 2l-81 -4l-31 -109h-195l276 647h241zM369 256l-18 213h-12l-83 -213l55 -1z" />
    <glyph glyph-name="Adieresis" unicode="&#xc4;" horiz-adv-x="626" 
d="M284 718c-53 0 -81 30 -81 83c0 56 33 89 88 89c51 0 81 -29 81 -81c0 -56 -34 -91 -88 -91zM478 718c-53 0 -82 30 -82 83c0 56 34 89 89 89c51 0 80 -30 80 -81c0 -56 -33 -91 -87 -91zM588 0h-202l-4 107v4l-101 2l-81 -4l-31 -109h-195l276 647h241zM369 256l-18 213
h-12l-83 -213l55 -1z" />
    <glyph glyph-name="Aring" unicode="&#xc5;" horiz-adv-x="626" 
d="M382 713c-70 0 -106 36 -106 107c0 72 39 110 114 110c71 0 106 -35 106 -103c0 -73 -39 -114 -114 -114zM385 853c-25 0 -34 -8 -34 -30c0 -25 10 -34 36 -34c25 0 34 8 34 31c0 24 -10 33 -36 33zM588 0h-202l-4 107v4l-101 2l-81 -4l-31 -109h-195l276 647h241z
M369 256l-18 213h-12l-83 -213l55 -1z" />
    <glyph glyph-name="AE" unicode="&#xc6;" horiz-adv-x="838" 
d="M817 159l10 -14l-30 -145h-435l8 107l3 67l-178 -52l-1 -3l-48 -119h-195l355 647h518l9 -14l-30 -145l-149 6h-75l-6 -114l175 53l13 -11l1 -138l-197 -55l-4 -76h91zM379 322l6 147h-12l-90 -175z" />
    <glyph glyph-name="Ccedilla" unicode="&#xc7;" horiz-adv-x="516" 
d="M395 658c61 0 122 -10 168 -27l-52 -159l-14 -7c-33 19 -81 31 -119 31c-103 0 -139 -64 -139 -201c0 -97 35 -141 109 -141c36 0 88 8 127 21l14 -9l-35 -158c-40 -12 -73 -17 -108 -19l-6 -31l34 -19c34 -18 44 -39 44 -63c0 -48 -41 -84 -110 -84c-35 0 -65 9 -92 24
l11 75l8 3c21 -18 46 -28 60 -28c11 0 16 5 16 14c0 7 -4 11 -12 15l-50 27l14 70c-155 19 -238 114 -238 271c0 246 131 395 370 395z" />
    <glyph glyph-name="Egrave" unicode="&#xc8;" horiz-adv-x="540" 
d="M473 716l-17 -4c-77 20 -152 42 -238 69l-6 16l49 116l17 4c71 -42 142 -80 225 -122zM291 494l-13 -92h99l105 3l9 -14l-30 -146l-115 3h-91l-6 -38l-5 -57h97l167 6l9 -14l-30 -145h-456l33 190l47 457h464l8 -14l-30 -145l-158 6h-104z" />
    <glyph glyph-name="Eacute" unicode="&#xc9;" horiz-adv-x="540" 
d="M245 716l-30 79c83 41 154 80 225 122l17 -4l49 -116l-6 -16c-86 -27 -161 -49 -238 -69zM291 494l-13 -92h99l105 3l9 -14l-30 -146l-115 3h-91l-6 -38l-5 -57h97l167 6l9 -14l-30 -145h-456l33 190l47 457h464l8 -14l-30 -145l-158 6h-104z" />
    <glyph glyph-name="Ecircumflex" unicode="&#xca;" horiz-adv-x="540" 
d="M213 720l-25 76c58 39 111 77 158 118h34c43 -41 92 -79 148 -118l-43 -76h-18c-37 20 -71 40 -108 60c-41 -20 -87 -40 -128 -60h-18zM291 494l-13 -92h99l105 3l9 -14l-30 -146l-115 3h-91l-6 -38l-5 -57h97l167 6l9 -14l-30 -145h-456l33 190l47 457h464l8 -14
l-30 -145l-158 6h-104z" />
    <glyph glyph-name="Edieresis" unicode="&#xcb;" horiz-adv-x="540" 
d="M256 718c-53 0 -81 30 -81 83c0 56 33 89 88 89c51 0 81 -29 81 -81c0 -56 -34 -91 -88 -91zM450 718c-53 0 -82 30 -82 83c0 56 34 89 89 89c51 0 80 -30 80 -81c0 -56 -33 -91 -87 -91zM291 494l-13 -92h99l105 3l9 -14l-30 -146l-115 3h-91l-6 -38l-5 -57h97l167 6
l9 -14l-30 -145h-456l33 190l47 457h464l8 -14l-30 -145l-158 6h-104z" />
    <glyph glyph-name="Igrave" unicode="&#xcc;" horiz-adv-x="327" 
d="M135 913l17 4c71 -42 142 -80 225 -122l-30 -79l-17 -4c-77 20 -152 42 -238 69l-6 16zM249 210l-18 -210h-200l34 190l46 457h203z" />
    <glyph glyph-name="Iacute" unicode="&#xcd;" horiz-adv-x="327" 
d="M331 913l49 -116l-6 -16c-86 -27 -161 -49 -238 -69l-17 4l-30 79c83 41 154 80 225 122zM249 210l-18 -210h-200l34 190l46 457h203z" />
    <glyph glyph-name="Icircumflex" unicode="&#xce;" horiz-adv-x="327" 
d="M87 720l-25 76c58 39 111 77 158 118h34c43 -41 92 -79 148 -118l-43 -76h-18c-37 20 -71 40 -108 60c-41 -20 -87 -40 -128 -60h-18zM249 210l-18 -210h-200l34 190l46 457h203z" />
    <glyph glyph-name="Eth" unicode="&#xd0;" horiz-adv-x="698" 
d="M142 647l283 4c170 0 271 -91 271 -254c0 -252 -132 -406 -380 -406c-65 0 -176 4 -253 9l33 190l6 59h-76l-8 13l18 117h79zM361 139c75 0 124 60 124 229c0 93 -27 128 -87 128c-19 0 -47 -1 -76 -4l-17 -113h76l7 -13l-17 -117h-85l-6 -39l-5 -63c30 -4 65 -8 86 -8z
" />
    <glyph glyph-name="Ntilde" unicode="&#xd1;" horiz-adv-x="710" 
d="M622 861v-16l-81 -113l-16 -6c-52 7 -127 34 -153 34s-46 -29 -69 -58h-16l-57 55v16l81 112l16 6c52 -7 127 -34 153 -34s46 29 69 58h16zM636 211l-18 -211h-217l-140 348h-12l-15 -114l-21 -234h-181l33 190l46 457h217l141 -348h12l36 341l184 11z" />
    <glyph glyph-name="Ograve" unicode="&#xd2;" horiz-adv-x="658" 
d="M303 913l17 4c71 -42 142 -80 225 -122l-30 -79l-17 -4c-77 20 -152 42 -238 69l-6 16zM380 659c169 0 274 -88 274 -285c0 -222 -126 -386 -355 -386c-170 0 -275 90 -275 288c0 222 126 383 356 383zM357 500c-71 0 -124 -35 -124 -227c0 -102 15 -138 87 -138
c70 0 124 35 124 227c0 102 -16 138 -87 138z" />
    <glyph glyph-name="Oacute" unicode="&#xd3;" horiz-adv-x="658" 
d="M499 913l49 -116l-6 -16c-86 -27 -161 -49 -238 -69l-17 4l-30 79c83 41 154 80 225 122zM380 659c169 0 274 -88 274 -285c0 -222 -126 -386 -355 -386c-170 0 -275 90 -275 288c0 222 126 383 356 383zM357 500c-71 0 -124 -35 -124 -227c0 -102 15 -138 87 -138
c70 0 124 35 124 227c0 102 -16 138 -87 138z" />
    <glyph glyph-name="Ocircumflex" unicode="&#xd4;" horiz-adv-x="658" 
d="M255 720l-25 76c58 39 111 77 158 118h34c43 -41 92 -79 148 -118l-43 -76h-18c-37 20 -71 40 -108 60c-41 -20 -87 -40 -128 -60h-18zM380 659c169 0 274 -88 274 -285c0 -222 -126 -386 -355 -386c-170 0 -275 90 -275 288c0 222 126 383 356 383zM357 500
c-71 0 -124 -35 -124 -227c0 -102 15 -138 87 -138c70 0 124 35 124 227c0 102 -16 138 -87 138z" />
    <glyph glyph-name="Otilde" unicode="&#xd5;" horiz-adv-x="658" 
d="M595 861v-16l-81 -113l-16 -6c-52 7 -127 34 -153 34s-46 -29 -69 -58h-16l-57 55v16l81 112l16 6c52 -7 127 -34 153 -34s46 29 69 58h16zM380 659c169 0 274 -88 274 -285c0 -222 -126 -386 -355 -386c-170 0 -275 90 -275 288c0 222 126 383 356 383zM357 500
c-71 0 -124 -35 -124 -227c0 -102 15 -138 87 -138c70 0 124 35 124 227c0 102 -16 138 -87 138z" />
    <glyph glyph-name="multiply" unicode="&#xd7;" horiz-adv-x="481" 
d="M455 378l-1 -18l-118 -105l91 -105l-2 -18l-99 -76l-93 108l-122 -109l-79 77l2 17l119 106l-93 105l2 18l98 76l95 -107l120 107z" />
    <glyph glyph-name="Oslash" unicode="&#xd8;" horiz-adv-x="658" 
d="M633 687l-56 -93c49 -47 77 -119 77 -220c0 -222 -126 -386 -355 -386c-30 0 -57 3 -83 8l-79 -131l-97 47l-6 17l73 120c-53 47 -83 122 -83 227c0 222 126 383 356 383c32 0 61 -3 88 -10l62 103l94 -46zM320 135c70 0 124 35 124 227c0 102 -16 138 -87 138
s-124 -35 -124 -227c0 -102 15 -138 87 -138z" />
    <glyph glyph-name="Ugrave" unicode="&#xd9;" horiz-adv-x="653" 
d="M301 913l17 4c71 -42 142 -80 225 -122l-30 -79l-17 -4c-77 20 -152 42 -238 69l-6 16zM610 319l-13 -103c-19 -147 -120 -228 -300 -228c-157 0 -252 65 -252 185c0 13 1 28 3 43l15 103l34 328h200l-58 -404c-1 -10 -2 -19 -2 -27c0 -50 23 -71 76 -71
c64 0 94 29 101 98l40 404h203z" />
    <glyph glyph-name="Uacute" unicode="&#xda;" horiz-adv-x="653" 
d="M497 913l49 -116l-6 -16c-86 -27 -161 -49 -238 -69l-17 4l-30 79c83 41 154 80 225 122zM610 319l-13 -103c-19 -147 -120 -228 -300 -228c-157 0 -252 65 -252 185c0 13 1 28 3 43l15 103l34 328h200l-58 -404c-1 -10 -2 -19 -2 -27c0 -50 23 -71 76 -71
c64 0 94 29 101 98l40 404h203z" />
    <glyph glyph-name="Ucircumflex" unicode="&#xdb;" horiz-adv-x="653" 
d="M253 720l-25 76c58 39 111 77 158 118h34c43 -41 92 -79 148 -118l-43 -76h-18c-37 20 -71 40 -108 60c-41 -20 -87 -40 -128 -60h-18zM610 319l-13 -103c-19 -147 -120 -228 -300 -228c-157 0 -252 65 -252 185c0 13 1 28 3 43l15 103l34 328h200l-58 -404
c-1 -10 -2 -19 -2 -27c0 -50 23 -71 76 -71c64 0 94 29 101 98l40 404h203z" />
    <glyph glyph-name="Udieresis" unicode="&#xdc;" horiz-adv-x="653" 
d="M303 890c51 0 81 -29 81 -81c0 -56 -34 -91 -88 -91c-53 0 -81 30 -81 83c0 56 33 89 88 89zM497 890c51 0 80 -30 80 -81c0 -56 -33 -91 -87 -91c-53 0 -82 30 -82 83c0 56 34 89 89 89zM610 319l-13 -103c-19 -147 -120 -228 -300 -228c-157 0 -252 65 -252 185
c0 13 1 28 3 43l15 103l34 328h200l-58 -404c-1 -10 -2 -19 -2 -27c0 -50 23 -71 76 -71c64 0 94 29 101 98l40 404h203z" />
    <glyph glyph-name="Thorn" unicode="&#xde;" horiz-adv-x="603" 
d="M302 556h105c130 0 209 -62 209 -173c0 -167 -123 -282 -308 -282h-66l-9 -101h-202l34 190l46 457h205zM256 242l86 -5c49 24 66 60 66 114c0 46 -24 66 -76 69l-50 -4z" />
    <glyph glyph-name="germandbls" unicode="&#xdf;" horiz-adv-x="636" 
d="M478 359c0 -67 154 -70 154 -198c0 -102 -99 -172 -226 -172c-48 5 -90 13 -136 26l38 144l18 9c40 -45 89 -70 122 -70c21 0 30 12 30 21c1 43 -157 63 -157 199c0 110 102 136 102 206c0 31 -18 46 -57 46s-73 -15 -81 -73l-41 -287l-25 -198l-4 -109l-177 -11l39 298
l18 172h-62l-8 11l12 90h69v4c19 147 120 237 281 237c135 0 202 -64 202 -144c0 -102 -111 -139 -111 -201z" />
    <glyph glyph-name="agrave" unicode="&#xe0;" horiz-adv-x="488" 
d="M367 522l-17 -1c-72 33 -142 68 -223 109l-3 17l69 106l17 1c63 -54 126 -105 201 -160zM472 476l-47 -360l-4 -109l-177 -11l15 110h-16c-21 -42 -44 -81 -75 -117h-23c-110 27 -137 87 -137 168c0 121 73 265 240 321h7l97 -17l109 23zM193 152c21 0 50 51 93 157l3 22
l-68 17c-34 0 -49 -40 -49 -117c0 -57 8 -79 21 -79z" />
    <glyph glyph-name="aacute" unicode="&#xe1;" horiz-adv-x="488" 
d="M187 522l-44 72c75 55 138 106 201 160l17 -1l69 -106l-3 -17c-81 -41 -151 -76 -223 -109zM472 476l-47 -360l-4 -109l-177 -11l15 110h-16c-21 -42 -44 -81 -75 -117h-23c-110 27 -137 87 -137 168c0 121 73 265 240 321h7l97 -17l109 23zM193 152c21 0 50 51 93 157
l3 22l-68 17c-34 0 -49 -40 -49 -117c0 -57 8 -79 21 -79z" />
    <glyph glyph-name="acircumflex" unicode="&#xe2;" horiz-adv-x="488" 
d="M145 530l-38 72c54 41 115 94 178 149h34c41 -47 96 -101 147 -149l-56 -72h-18c-40 28 -79 56 -105 78c-31 -22 -77 -50 -124 -78h-18zM472 476l-47 -360l-4 -109l-177 -11l15 110h-16c-21 -42 -44 -81 -75 -117h-23c-110 27 -137 87 -137 168c0 121 73 265 240 321h7
l97 -17l109 23zM193 152c21 0 50 51 93 157l3 22l-68 17c-34 0 -49 -40 -49 -117c0 -57 8 -79 21 -79z" />
    <glyph glyph-name="atilde" unicode="&#xe3;" horiz-adv-x="488" 
d="M482 686v-16l-81 -113l-16 -6c-52 7 -127 34 -153 34s-46 -29 -69 -58h-16l-57 55v16l81 112l16 6c52 -7 127 -34 153 -34s46 29 69 58h16zM461 484l11 -8l-47 -360l-4 -109l-177 -11l15 110h-16c-21 -42 -44 -81 -75 -117h-23c-110 27 -137 87 -137 168
c0 121 73 265 240 321h7l97 -17zM193 152c21 0 50 51 93 157l3 22l-68 17c-34 0 -49 -40 -49 -117c0 -57 8 -79 21 -79z" />
    <glyph glyph-name="adieresis" unicode="&#xe4;" horiz-adv-x="488" 
d="M185 543c-53 0 -81 30 -81 83c0 56 33 89 88 89c51 0 81 -29 81 -81c0 -56 -34 -91 -88 -91zM379 543c-53 0 -82 30 -82 83c0 56 34 89 89 89c51 0 80 -30 80 -81c0 -56 -33 -91 -87 -91zM472 476l-47 -360l-4 -109l-177 -11l15 110h-16c-21 -42 -44 -81 -75 -117h-23
c-110 27 -137 87 -137 168c0 121 73 265 240 321h7l97 -17l109 23zM193 152c21 0 50 51 93 157l3 22l-68 17c-34 0 -49 -40 -49 -117c0 -57 8 -79 21 -79z" />
    <glyph glyph-name="aring" unicode="&#xe5;" horiz-adv-x="488" 
d="M283 538c-70 0 -106 36 -106 107c0 72 39 110 114 110c71 0 106 -35 106 -103c0 -73 -39 -114 -114 -114zM286 678c-25 0 -34 -8 -34 -30c0 -25 10 -34 36 -34c25 0 34 8 34 31c0 24 -10 33 -36 33zM472 476l-47 -360l-4 -109l-177 -11l15 110h-16
c-21 -42 -44 -81 -75 -117h-23c-110 27 -137 87 -137 168c0 121 73 265 240 321h7l97 -17l109 23zM193 152c21 0 50 51 93 157l3 22l-68 17c-34 0 -49 -40 -49 -117c0 -57 8 -79 21 -79z" />
    <glyph glyph-name="ae" unicode="&#xe6;" horiz-adv-x="682" 
d="M256 478l156 -27c38 19 81 30 130 33l16 -2c68 -13 121 -53 121 -127c0 -78 -62 -132 -245 -177l4 -17c7 -26 20 -39 48 -39c36 0 67 20 96 64l21 -3l56 -71c-53 -64 -120 -104 -187 -123h-16c-113 13 -158 60 -181 137l-4 17c-29 -54 -63 -106 -103 -154h-23
c-113 27 -137 93 -137 165c0 128 75 269 241 324h7zM497 372c-39 0 -60 -31 -65 -98c68 15 94 34 94 70c0 20 -9 28 -29 28zM297 330l-74 19c-36 0 -54 -42 -54 -121c0 -57 9 -78 22 -78c22 0 54 56 96 160c7 18 4 7 10 20z" />
    <glyph glyph-name="ccedilla" unicode="&#xe7;" horiz-adv-x="379" 
d="M300 200l56 -70c-38 -66 -78 -104 -138 -130l-8 -42l34 -19c34 -18 44 -39 44 -63c0 -48 -41 -84 -110 -84c-35 0 -65 9 -92 24l11 75l8 3c21 -18 46 -28 60 -28c11 0 16 5 16 14c0 7 -4 11 -12 15l-50 27l15 76c-91 25 -124 87 -124 183c0 156 86 300 283 300l88 -26
l4 -18l-50 -129l-39 -1c-20 26 -30 39 -54 39c-46 0 -61 -43 -61 -130c0 -53 10 -75 35 -75c19 0 34 13 61 60z" />
    <glyph glyph-name="egrave" unicode="&#xe8;" horiz-adv-x="436" 
d="M343 522l-17 -1c-72 33 -142 68 -223 109l-3 17l69 106l17 1c63 -54 126 -105 201 -160zM347 184l57 -72c-53 -64 -120 -104 -187 -123h-16c-136 15 -189 83 -189 194c0 174 104 291 275 301l15 -2c73 -14 122 -55 122 -128c0 -79 -65 -132 -243 -176
c6 -40 22 -54 52 -54c34 0 63 20 92 63zM241 371c-37 0 -57 -29 -62 -95c62 13 89 30 89 67c0 20 -8 28 -27 28z" />
    <glyph glyph-name="eacute" unicode="&#xe9;" horiz-adv-x="436" 
d="M163 522l-44 72c75 55 138 106 201 160l17 -1l69 -106l-3 -17c-81 -41 -151 -76 -223 -109zM347 184l57 -72c-53 -64 -120 -104 -187 -123h-16c-136 15 -189 83 -189 194c0 174 104 291 275 301l15 -2c73 -14 122 -55 122 -128c0 -79 -65 -132 -243 -176
c6 -40 22 -54 52 -54c34 0 63 20 92 63zM241 371c-37 0 -57 -29 -62 -95c62 13 89 30 89 67c0 20 -8 28 -27 28z" />
    <glyph glyph-name="ecircumflex" unicode="&#xea;" horiz-adv-x="436" 
d="M121 530l-38 72c54 41 115 94 178 149h34c41 -47 96 -101 147 -149l-56 -72h-18c-40 28 -79 56 -105 78c-31 -22 -77 -50 -124 -78h-18zM424 354c0 -79 -65 -132 -243 -176c6 -40 22 -54 52 -54c34 0 63 20 92 63l22 -3l57 -72c-53 -64 -120 -104 -187 -123h-16
c-136 15 -189 83 -189 194c0 174 104 291 275 301l15 -2c73 -14 122 -55 122 -128zM179 276c62 13 89 30 89 67c0 20 -8 28 -27 28c-37 0 -57 -29 -62 -95z" />
    <glyph glyph-name="edieresis" unicode="&#xeb;" horiz-adv-x="436" 
d="M161 543c-53 0 -81 30 -81 83c0 56 33 89 88 89c51 0 81 -29 81 -81c0 -56 -34 -91 -88 -91zM355 543c-53 0 -82 30 -82 83c0 56 34 89 89 89c51 0 80 -30 80 -81c0 -56 -33 -91 -87 -91zM424 354c0 -79 -65 -132 -243 -176c6 -40 22 -54 52 -54c34 0 63 20 92 63l22 -3
l57 -72c-53 -64 -120 -104 -187 -123h-16c-136 15 -189 83 -189 194c0 174 104 291 275 301l15 -2c73 -14 122 -55 122 -128zM179 276c62 13 89 30 89 67c0 20 -8 28 -27 28c-37 0 -57 -29 -62 -95z" />
    <glyph glyph-name="igrave" unicode="&#xec;" horiz-adv-x="259" 
d="M83 753l17 1c63 -54 126 -105 201 -160l-44 -72l-17 -1c-72 33 -142 68 -223 109l-3 17zM197 116l-5 -109l-177 -11l47 356l4 113l177 11z" />
    <glyph glyph-name="iacute" unicode="&#xed;" horiz-adv-x="259" 
d="M251 753l69 -106l-3 -17c-81 -41 -151 -76 -223 -109l-17 1l-44 72c75 55 138 106 201 160zM197 116l-5 -109l-177 -11l47 356l4 113l177 11z" />
    <glyph glyph-name="icircumflex" unicode="&#xee;" horiz-adv-x="259" 
d="M35 530l-38 72c54 41 115 94 178 149h34c41 -47 96 -101 147 -149l-56 -72h-18c-40 28 -79 56 -105 78c-31 -22 -77 -50 -124 -78h-18zM197 116l-5 -109l-177 -11l47 356l4 113l177 11z" />
    <glyph glyph-name="eth" unicode="&#xf0;" horiz-adv-x="492" 
d="M444 648l-90 -52c81 -87 118 -189 115 -295c0 -191 -105 -304 -274 -313l-16 2c-90 21 -147 81 -147 190c0 161 87 266 226 287c-12 17 -27 33 -44 48l-125 -72l-13 4l-28 66l92 54c-21 13 -46 26 -73 39l3 20l127 86h9c31 -18 59 -37 85 -57l111 65l14 -4zM229 115
c64 0 75 52 75 176c0 13 0 26 -1 38c-7 15 -17 21 -31 21c-64 0 -77 -49 -77 -174c0 -46 9 -61 34 -61z" />
    <glyph glyph-name="ntilde" unicode="&#xf1;" horiz-adv-x="525" 
d="M508 686v-16l-81 -113l-16 -6c-52 7 -127 34 -153 34s-46 -29 -69 -58h-16l-57 55v16l81 112l16 6c52 -7 127 -34 153 -34s46 29 69 58h16zM354 473l13 1c73 -14 136 -56 135 -111l-1 -14l-38 -230l-4 -112l-182 -11l44 264l1 10c0 16 -6 22 -17 22
c-18 0 -54 -31 -100 -104l-9 -72l-4 -109l-177 -11l47 356l4 113l177 11l-17 -131h15c37 48 73 90 113 128z" />
    <glyph glyph-name="ograve" unicode="&#xf2;" horiz-adv-x="468" 
d="M194 753l17 1c63 -54 126 -105 201 -160l-44 -72l-17 -1c-72 33 -142 68 -223 109l-3 17zM289 484l16 -2c90 -20 151 -78 151 -181c0 -192 -107 -304 -278 -313l-16 2c-92 21 -150 82 -150 193c0 178 107 291 277 301zM255 348c-65 0 -73 -48 -73 -169
c0 -45 7 -59 31 -59c63 0 71 48 71 170c0 44 -6 58 -29 58z" />
    <glyph glyph-name="oacute" unicode="&#xf3;" horiz-adv-x="468" 
d="M362 753l69 -106l-3 -17c-81 -41 -151 -76 -223 -109l-17 1l-44 72c75 55 138 106 201 160zM289 484l16 -2c90 -20 151 -78 151 -181c0 -192 -107 -304 -278 -313l-16 2c-92 21 -150 82 -150 193c0 178 107 291 277 301zM255 348c-65 0 -73 -48 -73 -169
c0 -45 7 -59 31 -59c63 0 71 48 71 170c0 44 -6 58 -29 58z" />
    <glyph glyph-name="ocircumflex" unicode="&#xf4;" horiz-adv-x="468" 
d="M146 530l-38 72c54 41 115 94 178 149h34c41 -47 96 -101 147 -149l-56 -72h-18c-40 28 -79 56 -105 78c-31 -22 -77 -50 -124 -78h-18zM289 484l16 -2c90 -20 151 -78 151 -181c0 -192 -107 -304 -278 -313l-16 2c-92 21 -150 82 -150 193c0 178 107 291 277 301z
M255 348c-65 0 -73 -48 -73 -169c0 -45 7 -59 31 -59c63 0 71 48 71 170c0 44 -6 58 -29 58z" />
    <glyph glyph-name="otilde" unicode="&#xf5;" horiz-adv-x="468" 
d="M483 686v-16l-81 -113l-16 -6c-52 7 -127 34 -153 34s-46 -29 -69 -58h-16l-57 55v16l81 112l16 6c52 -7 127 -34 153 -34s46 29 69 58h16zM289 484l16 -2c90 -20 151 -78 151 -181c0 -192 -107 -304 -278 -313l-16 2c-92 21 -150 82 -150 193c0 178 107 291 277 301z
M255 348c-65 0 -73 -48 -73 -169c0 -45 7 -59 31 -59c63 0 71 48 71 170c0 44 -6 58 -29 58z" />
    <glyph glyph-name="divide" unicode="&#xf7;" horiz-adv-x="478" 
d="M265 497c48 0 75 -28 75 -77c0 -52 -31 -85 -82 -85c-50 0 -76 28 -76 78c0 52 31 84 83 84zM468 307l-9 -117h-430l-12 13l9 117h430zM225 172c48 0 75 -28 75 -77c0 -52 -31 -85 -82 -85c-50 0 -77 28 -77 77c0 53 32 85 84 85z" />
    <glyph glyph-name="oslash" unicode="&#xf8;" horiz-adv-x="468" 
d="M480 525l-64 -105c25 -29 40 -69 40 -119c0 -192 -107 -304 -278 -313l-16 2l-6 1l-75 -123l-90 53l-4 16l69 112c-28 32 -44 76 -44 134c0 178 107 291 277 301l16 -2l11 -3l70 115l85 -52zM213 120c63 0 71 48 71 170c0 44 -6 58 -29 58c-65 0 -73 -48 -73 -169
c0 -45 7 -59 31 -59z" />
    <glyph glyph-name="ugrave" unicode="&#xf9;" horiz-adv-x="514" 
d="M387 522l-17 -1c-72 33 -142 68 -223 109l-3 17l69 106l17 1c63 -54 126 -105 201 -160zM498 476l-47 -360l-4 -109l-177 -11l16 121h-13c-33 -45 -65 -83 -105 -120l-13 -1c-84 10 -137 52 -137 109l2 20l37 226l4 112l181 11l-42 -262l-1 -13c0 -16 6 -23 18 -23
c17 0 47 29 89 95l11 81l4 113z" />
    <glyph glyph-name="uacute" unicode="&#xfa;" horiz-adv-x="514" 
d="M207 522l-44 72c75 55 138 106 201 160l17 -1l69 -106l-3 -17c-81 -41 -151 -76 -223 -109zM498 476l-47 -360l-4 -109l-177 -11l16 121h-13c-33 -45 -65 -83 -105 -120l-13 -1c-84 10 -137 52 -137 109l2 20l37 226l4 112l181 11l-42 -262l-1 -13c0 -16 6 -23 18 -23
c17 0 47 29 89 95l11 81l4 113z" />
    <glyph glyph-name="ucircumflex" unicode="&#xfb;" horiz-adv-x="514" 
d="M165 530l-38 72c54 41 115 94 178 149h34c41 -47 96 -101 147 -149l-56 -72h-18c-40 28 -79 56 -105 78c-31 -22 -77 -50 -124 -78h-18zM498 476l-47 -360l-4 -109l-177 -11l16 121h-13c-33 -45 -65 -83 -105 -120l-13 -1c-84 10 -137 52 -137 109l2 20l37 226l4 112
l181 11l-42 -262l-1 -13c0 -16 6 -23 18 -23c17 0 47 29 89 95l11 81l4 113z" />
    <glyph glyph-name="udieresis" unicode="&#xfc;" horiz-adv-x="514" 
d="M205 543c-53 0 -81 30 -81 83c0 56 33 89 88 89c51 0 81 -29 81 -81c0 -56 -34 -91 -88 -91zM399 543c-53 0 -82 30 -82 83c0 56 34 89 89 89c51 0 80 -30 80 -81c0 -56 -33 -91 -87 -91zM498 476l-47 -360l-4 -109l-177 -11l16 121h-13c-33 -45 -65 -83 -105 -120
l-13 -1c-84 10 -137 52 -137 109l2 20l37 226l4 112l181 11l-42 -262l-1 -13c0 -16 6 -23 18 -23c17 0 47 29 89 95l11 81l4 113z" />
    <glyph glyph-name="thorn" unicode="&#xfe;" horiz-adv-x="491" 
d="M324 478h23c103 -26 135 -81 135 -167c0 -127 -77 -269 -235 -322h-7l-59 11l-10 -76l-4 -109l-177 -11l103 776l4 113l177 11l-46 -347h17c22 42 48 84 79 121zM199 138l76 -20c30 0 45 47 45 120c0 60 -9 83 -21 83c-21 0 -51 -54 -96 -157z" />
    <glyph glyph-name="ydieresis" unicode="&#xff;" horiz-adv-x="483" 
d="M189 543c-53 0 -81 30 -81 83c0 56 33 89 88 89c51 0 81 -29 81 -81c0 -56 -34 -91 -88 -91zM383 543c-53 0 -82 30 -82 83c0 56 34 89 89 89c51 0 80 -30 80 -81c0 -56 -33 -91 -87 -91zM312 459l163 20c9 -26 14 -52 14 -78c0 -48 -15 -96 -44 -154l-92 -181
c-101 -200 -182 -264 -294 -264c-35 0 -71 6 -105 18l-9 144l15 16c31 -8 61 -13 90 -13c31 0 62 7 88 19l-107 480l178 10l7 -91l27 -200h14l35 87c16 39 26 76 26 110c0 22 -5 42 -14 60z" />
    <glyph glyph-name="Amacron" unicode="&#x100;" horiz-adv-x="626" 
d="M248 746l-12 13l9 106h276l12 -12l-9 -107h-276zM588 0h-202l-4 107v4l-101 2l-81 -4l-31 -109h-195l276 647h241zM369 256l-18 213h-12l-83 -213l55 -1z" />
    <glyph glyph-name="amacron" unicode="&#x101;" horiz-adv-x="488" 
d="M149 571l-12 13l9 106h276l12 -12l-9 -107h-276zM472 476l-47 -360l-4 -109l-177 -11l15 110h-16c-21 -42 -44 -81 -75 -117h-23c-110 27 -137 87 -137 168c0 121 73 265 240 321h7l97 -17l109 23zM193 152c21 0 50 51 93 157l3 22l-68 17c-34 0 -49 -40 -49 -117
c0 -57 8 -79 21 -79z" />
    <glyph glyph-name="Abreve" unicode="&#x102;" horiz-adv-x="626" 
d="M379 716c-87 0 -149 44 -172 124l48 59h27c19 -34 61 -50 107 -50c49 0 90 18 114 50h27l32 -59c-37 -80 -97 -124 -183 -124zM588 0h-202l-4 107v4l-101 2l-81 -4l-31 -109h-195l276 647h241zM369 256l-18 213h-12l-83 -213l55 -1z" />
    <glyph glyph-name="abreve" unicode="&#x103;" horiz-adv-x="488" 
d="M274 535c-109 0 -154 72 -166 136l47 61h27c16 -40 56 -63 104 -63c49 0 94 23 118 63h27l31 -61c-27 -68 -89 -136 -188 -136zM472 476l-47 -360l-4 -109l-177 -11l15 110h-16c-21 -42 -44 -81 -75 -117h-23c-110 27 -137 87 -137 168c0 121 73 265 240 321h7l97 -17
l109 23zM193 152c21 0 50 51 93 157l3 22l-68 17c-34 0 -49 -40 -49 -117c0 -57 8 -79 21 -79z" />
    <glyph glyph-name="Aogonek" unicode="&#x104;" horiz-adv-x="626" 
d="M562 -79l3 -72c-45 -32 -79 -46 -115 -46c-60 0 -94 39 -94 100c0 30 8 57 29 97h1l-4 107v4l-101 2l-81 -4l-31 -109h-195l276 647h241l97 -647h-107c-18 -35 -24 -57 -24 -70c0 -18 10 -29 31 -29c19 0 41 7 64 20h10zM369 256l-18 213h-12l-83 -213l55 -1z" />
    <glyph glyph-name="aogonek" unicode="&#x105;" horiz-adv-x="488" 
d="M472 476l-47 -360l-4 -109l-76 -5c-38 -37 -47 -53 -47 -70c0 -16 11 -31 35 -31c16 0 34 7 52 20h10l12 -72c-36 -30 -64 -46 -103 -46c-62 0 -102 41 -102 101c0 32 12 60 43 97l14 105h-16c-21 -42 -44 -81 -75 -117h-23c-110 27 -137 87 -137 168
c0 121 73 265 240 321h7l97 -17l109 23zM193 152c21 0 50 51 93 157l3 22l-68 17c-34 0 -49 -40 -49 -117c0 -57 8 -79 21 -79z" />
    <glyph glyph-name="Cacute" unicode="&#x106;" horiz-adv-x="516" 
d="M464 913l49 -116l-6 -16c-86 -27 -161 -49 -238 -69l-17 4l-30 79c83 41 154 80 225 122zM395 658c61 0 122 -10 168 -27l-52 -159l-14 -7c-33 19 -81 31 -119 31c-103 0 -139 -64 -139 -201c0 -97 35 -141 109 -141c36 0 88 8 127 21l14 -9l-35 -158
c-49 -15 -88 -19 -132 -19c-193 0 -297 98 -297 274c0 246 131 395 370 395z" />
    <glyph glyph-name="cacute" unicode="&#x107;" horiz-adv-x="379" 
d="M340 753l69 -106l-3 -17c-81 -41 -151 -76 -223 -109l-17 1l-44 72c75 55 138 106 201 160zM381 455l4 -18l-50 -129l-39 -1c-20 26 -30 39 -54 39c-46 0 -61 -43 -61 -130c0 -53 10 -75 35 -75c19 0 34 13 61 60l23 -1l56 -70c-43 -75 -88 -113 -163 -140h-22
c-119 18 -161 83 -161 191c0 156 86 300 283 300z" />
    <glyph glyph-name="Ccircumflex" unicode="&#x108;" horiz-adv-x="516" 
d="M220 720l-25 76c58 39 111 77 158 118h34c43 -41 92 -79 148 -118l-43 -76h-18c-37 20 -71 40 -108 60c-41 -20 -87 -40 -128 -60h-18zM395 658c61 0 122 -10 168 -27l-52 -159l-14 -7c-33 19 -81 31 -119 31c-103 0 -139 -64 -139 -201c0 -97 35 -141 109 -141
c36 0 88 8 127 21l14 -9l-35 -158c-49 -15 -88 -19 -132 -19c-193 0 -297 98 -297 274c0 246 131 395 370 395z" />
    <glyph glyph-name="ccircumflex" unicode="&#x109;" horiz-adv-x="379" 
d="M124 530l-38 72c54 41 115 94 178 149h34c41 -47 96 -101 147 -149l-56 -72h-18c-40 28 -79 56 -105 78c-31 -22 -77 -50 -124 -78h-18zM381 455l4 -18l-50 -129l-39 -1c-20 26 -30 39 -54 39c-46 0 -61 -43 -61 -130c0 -53 10 -75 35 -75c19 0 34 13 61 60l23 -1l56 -70
c-43 -75 -88 -113 -163 -140h-22c-119 18 -161 83 -161 191c0 156 86 300 283 300z" />
    <glyph glyph-name="Cdotaccent" unicode="&#x10a;" horiz-adv-x="516" 
d="M368 905c59 0 92 -34 92 -94c0 -64 -38 -104 -100 -104c-61 0 -94 34 -94 95c0 64 39 103 102 103zM395 658c61 0 122 -10 168 -27l-52 -159l-14 -7c-33 19 -81 31 -119 31c-103 0 -139 -64 -139 -201c0 -97 35 -141 109 -141c36 0 88 8 127 21l14 -9l-35 -158
c-49 -15 -88 -19 -132 -19c-193 0 -297 98 -297 274c0 246 131 395 370 395z" />
    <glyph glyph-name="cdotaccent" unicode="&#x10b;" horiz-adv-x="379" 
d="M269 730c59 0 92 -34 92 -94c0 -64 -38 -104 -100 -104c-61 0 -94 34 -94 95c0 64 39 103 102 103zM381 455l4 -18l-50 -129l-39 -1c-20 26 -30 39 -54 39c-46 0 -61 -43 -61 -130c0 -53 10 -75 35 -75c19 0 34 13 61 60l23 -1l56 -70c-43 -75 -88 -113 -163 -140h-22
c-119 18 -161 83 -161 191c0 156 86 300 283 300z" />
    <glyph glyph-name="Ccaron" unicode="&#x10c;" horiz-adv-x="516" 
d="M509 906l25 -75c-59 -39 -111 -78 -158 -119h-34c-43 41 -93 80 -148 119l43 75h18c36 -20 71 -40 108 -60c41 20 86 40 128 60h18zM395 658c61 0 122 -10 168 -27l-52 -159l-14 -7c-33 19 -81 31 -119 31c-103 0 -139 -64 -139 -201c0 -97 35 -141 109 -141
c36 0 88 8 127 21l14 -9l-35 -158c-49 -15 -88 -19 -132 -19c-193 0 -297 98 -297 274c0 246 131 395 370 395z" />
    <glyph glyph-name="ccaron" unicode="&#x10d;" horiz-adv-x="379" 
d="M407 747l38 -71c-54 -41 -115 -95 -178 -150h-34c-41 47 -96 101 -147 150l56 71h18c40 -28 77 -56 103 -78c31 22 79 50 126 78h18zM381 455l4 -18l-50 -129l-39 -1c-20 26 -30 39 -54 39c-46 0 -61 -43 -61 -130c0 -53 10 -75 35 -75c19 0 34 13 61 60l23 -1l56 -70
c-43 -75 -88 -113 -163 -140h-22c-119 18 -161 83 -161 191c0 156 86 300 283 300z" />
    <glyph glyph-name="Dcaron" unicode="&#x10e;" horiz-adv-x="668" 
d="M384 712h-34c-43 41 -93 80 -148 119l43 75h18c36 -20 71 -40 108 -60c41 20 86 40 128 60h18l25 -75c-59 -39 -111 -78 -158 -119zM111 647l282 4c171 0 272 -91 272 -254c0 -252 -132 -406 -380 -406c-65 0 -176 4 -253 9l33 190zM330 139c75 0 123 60 123 229
c0 93 -26 128 -86 128c-19 0 -47 -1 -76 -4l-42 -282l-5 -63c30 -4 65 -8 86 -8z" />
    <glyph glyph-name="dcaron" unicode="&#x10f;" horiz-adv-x="609" 
d="M324 693l177 11l-78 -588l-4 -109l-177 -11l15 112h-13c-22 -42 -47 -83 -78 -119h-23c-109 27 -136 86 -136 166c0 122 75 267 244 323h7l47 -8l15 110zM677 624l-72 -231l-83 -13l-11 10l19 237l139 8zM191 150c20 0 49 47 91 145l5 37l-64 17c-36 0 -53 -42 -53 -122
c0 -55 9 -77 21 -77z" />
    <glyph glyph-name="Dcroat" unicode="&#x110;" horiz-adv-x="698" 
d="M142 647l283 4c170 0 271 -91 271 -254c0 -252 -132 -406 -380 -406c-65 0 -176 4 -253 9l33 190l6 59h-76l-8 13l18 117h79zM361 139c75 0 124 60 124 229c0 93 -27 128 -87 128c-19 0 -47 -1 -76 -4l-17 -113h76l7 -13l-17 -117h-85l-6 -39l-5 -63c30 -4 65 -8 86 -8z
" />
    <glyph glyph-name="dcroat" unicode="&#x111;" horiz-adv-x="497" 
d="M553 524h-76l-54 -408l-4 -109l-177 -11l15 112h-13c-22 -42 -47 -83 -78 -119h-23c-109 27 -136 86 -136 166c0 122 75 267 244 323h7l47 -8l8 54h-108l-12 13l7 88h122l2 68l177 11l-10 -79h57l12 -13zM191 150c20 0 49 47 91 145l5 37l-64 17c-36 0 -53 -42 -53 -122
c0 -55 9 -77 21 -77z" />
    <glyph glyph-name="Emacron" unicode="&#x112;" horiz-adv-x="540" 
d="M220 746l-12 13l9 106h276l12 -12l-9 -107h-276zM291 494l-13 -92h99l105 3l9 -14l-30 -146l-115 3h-91l-6 -38l-5 -57h97l167 6l9 -14l-30 -145h-456l33 190l47 457h464l8 -14l-30 -145l-158 6h-104z" />
    <glyph glyph-name="emacron" unicode="&#x113;" horiz-adv-x="436" 
d="M125 571l-12 13l9 106h276l12 -12l-9 -107h-276zM347 184l57 -72c-53 -64 -120 -104 -187 -123h-16c-136 15 -189 83 -189 194c0 174 104 291 275 301l15 -2c73 -14 122 -55 122 -128c0 -79 -65 -132 -243 -176c6 -40 22 -54 52 -54c34 0 63 20 92 63zM241 371
c-37 0 -57 -29 -62 -95c62 13 89 30 89 67c0 20 -8 28 -27 28z" />
    <glyph glyph-name="Ebreve" unicode="&#x114;" horiz-adv-x="540" 
d="M351 716c-87 0 -149 44 -172 124l48 59h27c19 -34 61 -50 107 -50c49 0 90 18 114 50h27l32 -59c-37 -80 -97 -124 -183 -124zM291 494l-13 -92h99l105 3l9 -14l-30 -146l-115 3h-91l-6 -38l-5 -57h97l167 6l9 -14l-30 -145h-456l33 190l47 457h464l8 -14l-30 -145
l-158 6h-104z" />
    <glyph glyph-name="ebreve" unicode="&#x115;" horiz-adv-x="436" 
d="M250 535c-109 0 -154 72 -166 136l47 61h27c16 -40 56 -63 104 -63c49 0 94 23 118 63h27l31 -61c-27 -68 -89 -136 -188 -136zM424 354c0 -79 -65 -132 -243 -176c6 -40 22 -54 52 -54c34 0 63 20 92 63l22 -3l57 -72c-53 -64 -120 -104 -187 -123h-16
c-136 15 -189 83 -189 194c0 174 104 291 275 301l15 -2c73 -14 122 -55 122 -128zM179 276c62 13 89 30 89 67c0 20 -8 28 -27 28c-37 0 -57 -29 -62 -95z" />
    <glyph glyph-name="Edotaccent" unicode="&#x116;" horiz-adv-x="540" 
d="M353 707c-61 0 -94 34 -94 95c0 64 39 103 102 103c59 0 92 -34 92 -94c0 -64 -38 -104 -100 -104zM291 494l-13 -92h99l105 3l9 -14l-30 -146l-115 3h-91l-6 -38l-5 -57h97l167 6l9 -14l-30 -145h-456l33 190l47 457h464l8 -14l-30 -145l-158 6h-104z" />
    <glyph glyph-name="edotaccent" unicode="&#x117;" horiz-adv-x="436" 
d="M258 532c-61 0 -94 34 -94 95c0 64 39 103 102 103c59 0 92 -34 92 -94c0 -64 -38 -104 -100 -104zM347 184l57 -72c-53 -64 -120 -104 -187 -123h-16c-136 15 -189 83 -189 194c0 174 104 291 275 301l15 -2c73 -14 122 -55 122 -128c0 -79 -65 -132 -243 -176
c6 -40 22 -54 52 -54c34 0 63 20 92 63zM241 371c-37 0 -57 -29 -62 -95c62 13 89 30 89 67c0 20 -8 28 -27 28z" />
    <glyph glyph-name="Eogonek" unicode="&#x118;" horiz-adv-x="540" 
d="M291 494l-13 -92h99l105 3l9 -14l-30 -146l-115 3h-91l-6 -38l-5 -57h97l167 6l9 -14l-30 -145h-72l-15 -22c-10 -15 -16 -30 -16 -44c0 -19 11 -33 36 -33c18 0 40 7 61 20h10l12 -72c-42 -32 -74 -46 -111 -46c-65 0 -104 43 -104 97c0 29 10 60 33 91l7 9h-297l33 190
l47 457h464l8 -14l-30 -145l-158 6h-104z" />
    <glyph glyph-name="eogonek" unicode="&#x119;" horiz-adv-x="436" 
d="M347 184l57 -72c-30 -36 -65 -65 -101 -86l-32 -48c-10 -15 -16 -30 -16 -44c0 -19 11 -33 36 -33c18 0 40 7 61 20h10l12 -72c-42 -32 -74 -46 -111 -46c-65 0 -104 43 -104 97c0 29 10 59 32 90c-129 17 -179 85 -179 193c0 174 104 291 275 301l15 -2
c73 -14 122 -55 122 -128c0 -79 -65 -132 -243 -176c6 -40 22 -54 52 -54c34 0 63 20 92 63zM241 371c-37 0 -57 -29 -62 -95c62 13 89 30 89 67c0 20 -8 28 -27 28z" />
    <glyph glyph-name="Ecaron" unicode="&#x11a;" horiz-adv-x="540" 
d="M369 712h-34c-43 41 -93 80 -148 119l43 75h18c36 -20 71 -40 108 -60c41 20 86 40 128 60h18l25 -75c-59 -39 -111 -78 -158 -119zM291 494l-13 -92h99l105 3l9 -14l-30 -146l-115 3h-91l-6 -38l-5 -57h97l167 6l9 -14l-30 -145h-456l33 190l47 457h464l8 -14l-30 -145
l-158 6h-104z" />
    <glyph glyph-name="ecaron" unicode="&#x11b;" horiz-adv-x="436" 
d="M264 526h-34c-41 47 -96 101 -147 150l56 71h18c40 -28 77 -56 103 -78c31 22 79 50 126 78h18l38 -71c-54 -41 -115 -95 -178 -150zM424 354c0 -79 -65 -132 -243 -176c6 -40 22 -54 52 -54c34 0 63 20 92 63l22 -3l57 -72c-53 -64 -120 -104 -187 -123h-16
c-136 15 -189 83 -189 194c0 174 104 291 275 301l15 -2c73 -14 122 -55 122 -128zM179 276c62 13 89 30 89 67c0 20 -8 28 -27 28c-37 0 -57 -29 -62 -95z" />
    <glyph glyph-name="Gcircumflex" unicode="&#x11c;" horiz-adv-x="599" 
d="M252 720l-25 76c58 39 111 77 158 118h34c43 -41 92 -79 148 -118l-43 -76h-18c-37 20 -71 40 -108 60c-41 -20 -87 -40 -128 -60h-18zM425 658c70 0 146 -11 194 -30l-64 -176h-16c-58 31 -100 47 -160 47c-89 0 -146 -36 -146 -239c0 -93 31 -122 109 -122
c17 0 26 2 37 4l4 33l10 109l184 13l-14 -88l-22 -177c-82 -30 -152 -44 -225 -44c-189 0 -292 100 -292 270c0 256 141 400 401 400z" />
    <glyph glyph-name="gcircumflex" unicode="&#x11d;" horiz-adv-x="481" 
d="M154 530l-38 72c54 41 115 94 178 149h34c41 -47 96 -101 147 -149l-56 -72h-18c-40 28 -79 56 -105 78c-31 -22 -77 -50 -124 -78h-18zM455 484l11 -8l-46 -343l-3 -83c-21 -163 -137 -246 -270 -246c-128 0 -186 75 -199 165l4 11l132 55l1 12c-44 32 -58 79 -58 132
c0 124 77 250 231 300h6l92 -16zM296 343l-63 15c-38 0 -57 -41 -57 -118c0 -54 9 -73 22 -73c20 0 51 48 95 150zM178 -73c38 0 68 22 72 72l18 135h-13c-26 -44 -55 -83 -88 -117l-23 -20c-13 -11 -16 -20 -16 -29c0 -19 12 -41 50 -41z" />
    <glyph glyph-name="Gbreve" unicode="&#x11e;" horiz-adv-x="599" 
d="M541 899l32 -59c-37 -80 -97 -124 -183 -124c-87 0 -149 44 -172 124l48 59h27c19 -34 61 -50 107 -50c49 0 90 18 114 50h27zM425 658c70 0 146 -11 194 -30l-64 -176h-16c-58 31 -100 47 -160 47c-89 0 -146 -36 -146 -239c0 -93 31 -122 109 -122c17 0 26 2 37 4l4 33
l10 109l184 13l-14 -88l-22 -177c-82 -30 -152 -44 -225 -44c-189 0 -292 100 -292 270c0 256 141 400 401 400z" />
    <glyph glyph-name="gbreve" unicode="&#x11f;" horiz-adv-x="481" 
d="M283 535c-109 0 -154 72 -166 136l47 61h27c16 -40 56 -63 104 -63c49 0 94 23 118 63h27l31 -61c-27 -68 -89 -136 -188 -136zM455 484l11 -8l-46 -343l-3 -83c-21 -163 -137 -246 -270 -246c-128 0 -186 75 -199 165l4 11l132 55l1 12c-44 32 -58 79 -58 132
c0 124 77 250 231 300h6l92 -16zM296 343l-63 15c-38 0 -57 -41 -57 -118c0 -54 9 -73 22 -73c20 0 51 48 95 150zM178 -73c38 0 68 22 72 72l18 135h-13c-26 -44 -55 -83 -88 -117l-23 -20c-13 -11 -16 -20 -16 -29c0 -19 12 -41 50 -41z" />
    <glyph glyph-name="Gdotaccent" unicode="&#x120;" horiz-adv-x="599" 
d="M400 905c59 0 92 -34 92 -94c0 -64 -38 -104 -100 -104c-61 0 -94 34 -94 95c0 64 39 103 102 103zM425 658c70 0 146 -11 194 -30l-64 -176h-16c-58 31 -100 47 -160 47c-89 0 -146 -36 -146 -239c0 -93 31 -122 109 -122c17 0 26 2 37 4l4 33l10 109l184 13l-14 -88
l-22 -177c-82 -30 -152 -44 -225 -44c-189 0 -292 100 -292 270c0 256 141 400 401 400z" />
    <glyph glyph-name="gdotaccent" unicode="&#x121;" horiz-adv-x="481" 
d="M291 532c-61 0 -94 34 -94 95c0 64 39 103 102 103c59 0 92 -34 92 -94c0 -64 -38 -104 -100 -104zM466 476l-46 -343l-3 -83c-21 -163 -137 -246 -270 -246c-128 0 -186 75 -199 165l4 11l132 55l1 12c-44 32 -58 79 -58 132c0 124 77 250 231 300h6l92 -16l99 21z
M296 343l-63 15c-38 0 -57 -41 -57 -118c0 -54 9 -73 22 -73c20 0 51 48 95 150zM178 -73c38 0 68 22 72 72l18 135h-13c-26 -44 -55 -83 -88 -117l-23 -20c-13 -11 -16 -20 -16 -29c0 -19 12 -41 50 -41z" />
    <glyph glyph-name="Gcommaaccent" unicode="&#x122;" horiz-adv-x="599" 
d="M425 658c70 0 146 -11 194 -30l-64 -176h-16c-58 31 -100 47 -160 47c-89 0 -146 -36 -146 -239c0 -93 31 -122 109 -122c17 0 26 2 37 4l4 33l10 109l184 13l-14 -88l-22 -177c-82 -30 -152 -44 -225 -44c-189 0 -292 100 -292 270c0 256 141 400 401 400zM353 -33
c28 -27 41 -55 41 -91c0 -67 -41 -126 -131 -187l-52 45l-2 12c33 28 48 57 48 93c0 25 -8 45 -28 65l1 13c38 22 79 39 123 50z" />
    <glyph glyph-name="gcommaaccent" unicode="&#x123;" horiz-adv-x="481" 
d="M295 517c-39 26 -56 59 -56 107c0 61 34 119 105 185l60 -39l3 -11c-24 -27 -36 -54 -36 -82c0 -35 9 -59 39 -81v-14c-35 -25 -74 -49 -115 -65zM466 476l-46 -343l-3 -83c-21 -163 -137 -246 -270 -246c-128 0 -186 75 -199 165l4 11l132 55l1 12
c-44 32 -58 79 -58 132c0 124 77 250 231 300h6l92 -16l99 21zM296 343l-63 15c-38 0 -57 -41 -57 -118c0 -54 9 -73 22 -73c20 0 51 48 95 150zM178 -73c38 0 68 22 72 72l18 135h-13c-26 -44 -55 -83 -88 -117l-23 -20c-13 -11 -16 -20 -16 -29c0 -19 12 -41 50 -41z" />
    <glyph glyph-name="Hcircumflex" unicode="&#x124;" horiz-adv-x="711" 
d="M282 720l-25 76c58 39 111 77 158 118h34c43 -41 92 -79 148 -118l-43 -76h-18c-37 20 -71 40 -108 60c-41 -20 -87 -40 -128 -60h-18zM700 647l-65 -437l-18 -210h-200l34 190l5 50l-109 2l-94 -3l-4 -29l-18 -210h-200l34 190l46 457h203l-36 -245l100 -2l94 2l25 245
h203z" />
    <glyph glyph-name="hcircumflex" unicode="&#x125;" horiz-adv-x="527" 
d="M54 773l-25 76c58 39 111 77 158 118h34c43 -41 92 -79 148 -118l-43 -76h-18c-37 20 -71 40 -108 60c-41 -20 -87 -40 -128 -60h-18zM356 473l13 1c84 -14 136 -56 135 -111l-1 -14l-38 -230l-4 -112l-181 -11l42 264l2 10c0 16 -6 22 -17 22c-19 0 -56 -33 -103 -110
l-9 -66l-3 -109l-178 -11l79 584l3 113l178 11l-48 -359h17c37 48 73 90 113 128z" />
    <glyph glyph-name="Hbar" unicode="&#x126;" horiz-adv-x="745" 
d="M764 472h-73l-39 -262l-18 -210h-200l34 190l5 50l-108 2l-95 -3l-4 -29l-18 -210h-200l34 190l28 282h-56l-8 10l6 91h69l7 74h203l-11 -74h187l7 74h203l-11 -74h55l8 -10zM496 472h-191l-10 -70l101 -2l93 2z" />
    <glyph glyph-name="hbar" unicode="&#x127;" horiz-adv-x="563" 
d="M397 473l13 1c83 -14 135 -56 134 -111l-1 -14l-38 -230l-4 -112l-181 -11l42 264l2 10c0 16 -6 22 -17 22c-19 0 -55 -33 -103 -111l-9 -65l-3 -109l-178 -11l71 528h-64l-12 13l7 88h78l2 68l178 11l-11 -79h101l12 -13l-7 -88h-119l-24 -179h17c37 48 74 90 114 128z
" />
    <glyph glyph-name="Imacron" unicode="&#x12a;" horiz-adv-x="327" 
d="M359 853l-9 -107h-236l-12 13l9 106h236zM249 210l-18 -210h-200l34 190l46 457h203z" />
    <glyph glyph-name="imacron" unicode="&#x12b;" horiz-adv-x="259" 
d="M304 678l-9 -107h-236l-12 13l9 106h236zM197 116l-5 -109l-177 -11l47 356l4 113l177 11z" />
    <glyph glyph-name="Ibreve" unicode="&#x12c;" horiz-adv-x="327" 
d="M376 899l32 -59c-37 -80 -97 -124 -183 -124c-87 0 -149 44 -172 124l48 59h27c19 -34 61 -50 107 -50c49 0 90 18 114 50h27zM249 210l-18 -210h-200l34 190l46 457h203z" />
    <glyph glyph-name="ibreve" unicode="&#x12d;" horiz-adv-x="259" 
d="M321 732l31 -61c-27 -68 -89 -136 -188 -136c-109 0 -154 72 -166 136l47 61h27c16 -40 56 -63 104 -63c49 0 94 23 118 63h27zM197 116l-5 -109l-177 -11l47 356l4 113l177 11z" />
    <glyph glyph-name="Iogonek" unicode="&#x12e;" horiz-adv-x="327" 
d="M314 647l-65 -437l-18 -210h-109c-20 -31 -26 -52 -26 -68c0 -17 10 -31 35 -31c18 0 43 7 64 23h10l12 -73c-41 -34 -76 -48 -113 -48c-65 0 -104 43 -104 99c0 31 8 60 32 98h-1l34 190l46 457h203z" />
    <glyph glyph-name="iogonek" unicode="&#x12f;" horiz-adv-x="259" 
d="M180 730c59 0 92 -34 92 -94c0 -64 -38 -104 -100 -104c-61 0 -94 34 -94 95c0 64 39 103 102 103zM192 7l-83 -5c-20 -32 -27 -54 -27 -70c0 -17 10 -31 35 -31c18 0 43 7 64 23h10l12 -73c-41 -34 -76 -48 -113 -48c-65 0 -104 43 -104 99c0 30 7 58 29 94l47 356
l4 113l177 11l-46 -360z" />
    <glyph glyph-name="Idotaccent" unicode="&#x130;" horiz-adv-x="327" 
d="M235 905c59 0 92 -34 92 -94c0 -64 -38 -104 -100 -104c-61 0 -94 34 -94 95c0 64 39 103 102 103zM249 210l-18 -210h-200l34 190l46 457h203z" />
    <glyph glyph-name="dotlessi" unicode="&#x131;" horiz-adv-x="259" 
d="M197 116l-5 -109l-177 -11l47 356l4 113l177 11z" />
    <glyph glyph-name="IJ" unicode="&#x132;" horiz-adv-x="690" 
d="M314 647l-65 -437l-18 -210h-200l34 190l46 457h203zM675 647l-66 -434l-8 -89c-17 -123 -77 -186 -251 -236l-40 103l2 15c71 34 98 66 105 124l8 63l33 314l-83 -3l-9 13l24 130h285z" />
    <glyph glyph-name="ij" unicode="&#x133;" horiz-adv-x="545" 
d="M180 730c59 0 92 -34 92 -94c0 -64 -38 -104 -100 -104c-61 0 -94 34 -94 95c0 64 39 103 102 103zM443 730c59 0 92 -34 92 -94c0 -64 -38 -104 -100 -104c-61 0 -94 34 -94 95c0 64 39 103 102 103zM197 116l-5 -109l-177 -11l47 356l4 113l177 11zM525 472l-49 -354
l-8 -82c-13 -107 -77 -179 -206 -231l-56 80l2 16c53 25 82 64 91 125l43 321l-2 15h-63l-7 11l13 90h73l165 13z" />
    <glyph glyph-name="Jcircumflex" unicode="&#x134;" horiz-adv-x="362" 
d="M219 914h34c43 -41 92 -79 148 -118l-43 -76h-18c-37 20 -71 40 -108 60c-41 -20 -87 -40 -128 -60h-18l-25 76c58 39 111 77 158 118zM348 647l-66 -434l-8 -89c-17 -123 -77 -186 -251 -236l-40 103l2 15c71 34 98 66 105 124l8 63l33 314l-83 -3l-9 13l24 130h285z
" />
    <glyph glyph-name="jcircumflex" unicode="&#x135;" horiz-adv-x="286" 
d="M39 530l-38 72c54 41 115 94 178 149h34c41 -47 96 -101 147 -149l-56 -72h-18c-40 28 -79 56 -105 78c-31 -22 -77 -50 -124 -78h-18zM267 472l-49 -354l-8 -82c-13 -107 -77 -179 -206 -231l-56 80l2 16c53 25 82 64 91 125l43 321l-2 15h-63l-7 11l13 90h73l165 13z
" />
    <glyph glyph-name="Kcommaaccent" unicode="&#x136;" horiz-adv-x="629" 
d="M676 647l-228 -317c53 -99 111 -194 173 -288l-5 -22c-68 -15 -135 -26 -202 -32l-21 12c-46 98 -90 196 -131 297l-13 -87l-18 -210h-200l34 190l46 457h203l-40 -271l149 201l43 70h210zM341 -33c28 -27 41 -55 41 -91c0 -67 -41 -126 -131 -187l-52 45l-2 12
c33 28 48 57 48 93c0 25 -8 45 -28 65l1 13c38 22 79 39 123 50z" />
    <glyph glyph-name="kcommaaccent" unicode="&#x137;" horiz-adv-x="540" 
d="M515 349c0 -68 -47 -125 -106 -169c24 -54 52 -108 80 -160l-9 -13l-149 -19l-17 8c-22 58 -44 116 -61 174l6 23c43 25 76 62 76 85c0 10 -7 17 -16 17c-24 0 -66 -33 -115 -113l-9 -66l-3 -109l-178 -11l79 584l3 113l178 11l-48 -359h17c39 48 82 90 125 128l13 1
c79 -14 134 -52 134 -125zM291 -33c28 -27 41 -55 41 -91c0 -67 -41 -126 -131 -187l-52 45l-2 12c33 28 48 57 48 93c0 25 -8 45 -28 65l1 13c38 22 79 39 123 50z" />
    <glyph glyph-name="kgreenlandic" unicode="&#x138;" horiz-adv-x="537" 
d="M515 349c0 -68 -48 -125 -108 -169c25 -54 53 -108 82 -160l-9 -13l-149 -19l-17 8c-23 58 -45 116 -63 174l6 23c44 25 78 62 78 85c0 10 -7 17 -17 17c-23 0 -64 -30 -111 -104l-10 -75l-5 -109l-177 -11l47 356l4 113l177 11l-17 -131h14c40 48 83 90 127 128l13 1
c80 -14 135 -52 135 -125z" />
    <glyph glyph-name="Lacute" unicode="&#x139;" horiz-adv-x="452" 
d="M110 716l-30 79c83 41 154 80 225 122l17 -4l49 -116l-6 -16c-86 -27 -161 -49 -238 -69zM442 149l-30 -149h-385l33 190l46 457h203l-64 -437l-4 -47h192z" />
    <glyph glyph-name="lacute" unicode="&#x13a;" horiz-adv-x="258" 
d="M300 966l49 -116l-6 -16c-86 -27 -161 -49 -238 -69l-17 4l-30 79c83 41 154 80 225 122zM195 116l-3 -109l-178 -11l79 584l3 113l178 11z" />
    <glyph glyph-name="Lcommaaccent" unicode="&#x13b;" horiz-adv-x="452" 
d="M442 149l-30 -149h-385l33 190l46 457h203l-64 -437l-4 -47h192zM239 -33c28 -27 41 -55 41 -91c0 -67 -41 -126 -131 -187l-52 45l-2 12c33 28 48 57 48 93c0 25 -8 45 -28 65l1 13c38 22 79 39 123 50z" />
    <glyph glyph-name="lcommaaccent" unicode="&#x13c;" horiz-adv-x="258" 
d="M195 116l-3 -109l-178 -11l79 584l3 113l178 11zM129 -33c28 -27 41 -55 41 -91c0 -67 -41 -126 -131 -187l-52 45l-2 12c33 28 48 57 48 93c0 25 -8 45 -28 65l1 13c38 22 79 39 123 50z" />
    <glyph glyph-name="Lcaron" unicode="&#x13d;" horiz-adv-x="484" 
d="M433 163l9 -14l-30 -149h-385l33 190l46 457h203l-64 -437l-4 -47h192zM536 590l-72 -232l-83 -12l-11 9l19 238l139 8z" />
    <glyph glyph-name="lcaron" unicode="&#x13e;" horiz-adv-x="375" 
d="M195 116l-3 -109l-178 -11l79 584l3 113l178 11zM445 628l-72 -231l-83 -13l-11 10l19 237l139 8z" />
    <glyph glyph-name="Ldot" unicode="&#x13f;" horiz-adv-x="504" 
d="M442 163l9 -14l-30 -149h-384l33 190l46 457h203l-64 -437l-4 -47h191zM430 500c59 0 92 -35 92 -94c0 -64 -38 -104 -100 -104c-61 0 -94 34 -94 95c0 63 39 103 102 103z" />
    <glyph glyph-name="ldot" unicode="&#x140;" horiz-adv-x="398" 
d="M195 116l-3 -109l-178 -11l79 584l3 113l178 11zM340 416c59 0 92 -34 92 -94c0 -64 -38 -104 -100 -104c-61 0 -94 34 -94 95c0 64 39 103 102 103z" />
    <glyph glyph-name="Lslash" unicode="&#x141;" horiz-adv-x="459" 
d="M448 149l-29 -149h-385l33 190l1 11l-49 -23l-15 9l-21 114l100 48l30 298h203l-30 -202l73 35l15 -9l22 -113l-132 -63l-12 -85l-4 -47h191z" />
    <glyph glyph-name="lslash" unicode="&#x142;" horiz-adv-x="338" 
d="M259 317l-27 -201l-3 -109l-178 -11l35 261l-62 -29l-10 2l-24 104l114 54l26 192l3 113l178 11l-34 -256l64 31l9 -4l24 -104z" />
    <glyph glyph-name="Nacute" unicode="&#x143;" horiz-adv-x="710" 
d="M526 913l49 -116l-6 -16c-86 -27 -161 -49 -238 -69l-17 4l-30 79c83 41 154 80 225 122zM636 211l-18 -211h-217l-140 348h-12l-15 -114l-21 -234h-181l33 190l46 457h217l141 -348h12l36 341l184 11z" />
    <glyph glyph-name="nacute" unicode="&#x144;" horiz-adv-x="525" 
d="M213 522l-44 72c75 55 138 106 201 160l17 -1l69 -106l-3 -17c-81 -41 -151 -76 -223 -109zM354 473l13 1c73 -14 136 -56 135 -111l-1 -14l-38 -230l-4 -112l-182 -11l44 264l1 10c0 16 -6 22 -17 22c-18 0 -54 -31 -100 -104l-9 -72l-4 -109l-177 -11l47 356l4 113
l177 11l-17 -131h15c37 48 73 90 113 128z" />
    <glyph glyph-name="Ncommaaccent" unicode="&#x145;" horiz-adv-x="710" 
d="M636 211l-18 -211h-217l-140 348h-12l-15 -114l-21 -234h-181l33 190l46 457h217l141 -348h12l36 341l184 11zM354 -33c28 -27 41 -55 41 -91c0 -67 -41 -126 -131 -187l-52 45l-2 12c33 28 48 57 48 93c0 25 -8 45 -28 65l1 13c38 22 79 39 123 50z" />
    <glyph glyph-name="ncommaaccent" unicode="&#x146;" horiz-adv-x="525" 
d="M354 473l13 1c73 -14 136 -56 135 -111l-1 -14l-38 -230l-4 -112l-182 -11l44 264l1 10c0 16 -6 22 -17 22c-18 0 -54 -31 -100 -104l-9 -72l-4 -109l-177 -11l47 356l4 113l177 11l-17 -131h15c37 48 73 90 113 128zM261 -33c28 -27 41 -55 41 -91
c0 -67 -41 -126 -131 -187l-52 45l-2 12c33 28 48 57 48 93c0 25 -8 45 -28 65l1 13c38 22 79 39 123 50z" />
    <glyph glyph-name="Ncaron" unicode="&#x147;" horiz-adv-x="710" 
d="M571 906l25 -75c-59 -39 -111 -78 -158 -119h-34c-43 41 -93 80 -148 119l43 75h18c36 -20 71 -40 108 -60c41 20 86 40 128 60h18zM636 211l-18 -211h-217l-140 348h-12l-15 -114l-21 -234h-181l33 190l46 457h217l141 -348h12l36 341l184 11z" />
    <glyph glyph-name="ncaron" unicode="&#x148;" horiz-adv-x="525" 
d="M314 526h-34c-41 47 -96 101 -147 150l56 71h18c40 -28 77 -56 103 -78c31 22 79 50 126 78h18l38 -71c-54 -41 -115 -95 -178 -150zM354 473l13 1c73 -14 136 -56 135 -111l-1 -14l-38 -230l-4 -112l-182 -11l44 264l1 10c0 16 -6 22 -17 22c-18 0 -54 -31 -100 -104
l-9 -72l-4 -109l-177 -11l47 356l4 113l177 11l-17 -131h15c37 48 73 90 113 128z" />
    <glyph glyph-name="Eng" unicode="&#x14a;" horiz-adv-x="715" 
d="M636 211l-13 -157c-15 -123 -77 -186 -253 -236l-39 103l1 16c43 19 70 38 87 63l-158 348h-12l-15 -114l-21 -234h-181l34 190l46 457h217l143 -328h12l33 321l184 11z" />
    <glyph glyph-name="eng" unicode="&#x14b;" horiz-adv-x="539" 
d="M355 473l13 1c72 -14 135 -56 134 -111l-1 -14l-39 -233l-10 -82c-15 -107 -79 -179 -205 -231l-53 80l2 16c49 25 78 64 87 125l38 236l1 10c0 16 -6 22 -17 22c-19 0 -53 -31 -100 -105l-9 -71l-4 -109l-177 -11l47 356l4 113l177 11l-17 -131h15c37 48 74 90 114 128z
" />
    <glyph glyph-name="Omacron" unicode="&#x14c;" horiz-adv-x="658" 
d="M547 853l-9 -107h-276l-12 13l9 106h276zM380 659c169 0 274 -88 274 -285c0 -222 -126 -386 -355 -386c-170 0 -275 90 -275 288c0 222 126 383 356 383zM357 500c-71 0 -124 -35 -124 -227c0 -102 15 -138 87 -138c70 0 124 35 124 227c0 102 -16 138 -87 138z" />
    <glyph glyph-name="omacron" unicode="&#x14d;" horiz-adv-x="468" 
d="M435 678l-9 -107h-276l-12 13l9 106h276zM289 484l16 -2c90 -20 151 -78 151 -181c0 -192 -107 -304 -278 -313l-16 2c-92 21 -150 82 -150 193c0 178 107 291 277 301zM255 348c-65 0 -73 -48 -73 -169c0 -45 7 -59 31 -59c63 0 71 48 71 170c0 44 -6 58 -29 58z" />
    <glyph glyph-name="Obreve" unicode="&#x14e;" horiz-adv-x="658" 
d="M544 899l32 -59c-37 -80 -97 -124 -183 -124c-87 0 -149 44 -172 124l48 59h27c19 -34 61 -50 107 -50c49 0 90 18 114 50h27zM380 659c169 0 274 -88 274 -285c0 -222 -126 -386 -355 -386c-170 0 -275 90 -275 288c0 222 126 383 356 383zM357 500
c-71 0 -124 -35 -124 -227c0 -102 15 -138 87 -138c70 0 124 35 124 227c0 102 -16 138 -87 138z" />
    <glyph glyph-name="obreve" unicode="&#x14f;" horiz-adv-x="468" 
d="M432 732l31 -61c-27 -68 -89 -136 -188 -136c-109 0 -154 72 -166 136l47 61h27c16 -40 56 -63 104 -63c49 0 94 23 118 63h27zM289 484l16 -2c90 -20 151 -78 151 -181c0 -192 -107 -304 -278 -313l-16 2c-92 21 -150 82 -150 193c0 178 107 291 277 301zM255 348
c-65 0 -73 -48 -73 -169c0 -45 7 -59 31 -59c63 0 71 48 71 170c0 44 -6 58 -29 58z" />
    <glyph glyph-name="Ohungarumlaut" unicode="&#x150;" horiz-adv-x="658" 
d="M271 711l-59 46c34 49 68 98 99 149l14 3l90 -57l3 -14c-42 -42 -86 -83 -131 -122zM440 711l-59 46c33 49 67 98 99 149l13 3l91 -57l3 -14c-43 -42 -87 -83 -132 -122zM380 659c169 0 274 -88 274 -285c0 -222 -126 -386 -355 -386c-170 0 -275 90 -275 288
c0 222 126 383 356 383zM357 500c-71 0 -124 -35 -124 -227c0 -102 15 -138 87 -138c70 0 124 35 124 227c0 102 -16 138 -87 138z" />
    <glyph glyph-name="ohungarumlaut" unicode="&#x151;" horiz-adv-x="468" 
d="M174 522l-58 46c39 63 76 126 113 190l12 4l90 -62l3 -14c-47 -55 -96 -108 -145 -159zM339 522l-58 46c39 63 76 126 112 190l13 4l90 -62l3 -14c-47 -55 -96 -108 -145 -159zM289 484l16 -2c90 -20 151 -78 151 -181c0 -192 -107 -304 -278 -313l-16 2
c-92 21 -150 82 -150 193c0 178 107 291 277 301zM255 348c-65 0 -73 -48 -73 -169c0 -45 7 -59 31 -59c63 0 71 48 71 170c0 44 -6 58 -29 58z" />
    <glyph glyph-name="OE" unicode="&#x152;" horiz-adv-x="890" 
d="M402 659c79 0 141 -12 200 -12h321l10 -14l-31 -145l-159 6h-103l-13 -92h99l105 3l9 -14l-30 -146l-116 3h-91l-4 -38l-5 -57h96l167 6l9 -14l-30 -145h-313c-64 3 -146 -12 -230 -12c-173 0 -269 100 -269 274c0 247 147 397 378 397zM365 500
c-84 0 -131 -41 -131 -236c0 -92 26 -129 94 -129c36 0 57 5 68 15c10 9 17 26 19 54l23 231c2 26 1 41 -5 49c-9 11 -29 16 -68 16z" />
    <glyph glyph-name="oe" unicode="&#x153;" horiz-adv-x="701" 
d="M624 184l56 -72c-53 -64 -120 -104 -186 -123h-16c-60 7 -103 32 -130 68c-44 -41 -101 -66 -169 -69l-16 2c-93 21 -151 82 -151 193c0 178 107 291 279 301l16 -2c42 -9 75 -29 96 -58c43 36 97 56 160 60l16 -2c72 -14 121 -55 121 -128c0 -79 -65 -132 -243 -176
c6 -40 22 -54 52 -54c34 0 64 20 93 63zM517 371c-36 0 -57 -29 -62 -95c62 13 89 30 89 67c0 20 -8 28 -27 28zM215 119c62 0 71 48 71 172c0 44 -7 58 -30 58c-64 0 -74 -48 -74 -171c0 -45 8 -59 33 -59z" />
    <glyph glyph-name="Racute" unicode="&#x154;" horiz-adv-x="630" 
d="M287 697l-44 72c75 55 138 106 201 160l17 -1l69 -106l-3 -17c-81 -41 -151 -76 -223 -109zM621 475c0 -91 -48 -171 -131 -225c36 -68 74 -136 116 -203l-5 -22c-68 -20 -136 -33 -205 -37l-17 16c-21 62 -43 125 -63 189h-68l-17 -193h-200l34 190l46 457l296 1
c132 0 214 -62 214 -173zM408 442c0 45 -24 65 -79 68l-36 -3l-25 -168l73 -4c49 21 67 55 67 107z" />
    <glyph glyph-name="racute" unicode="&#x155;" horiz-adv-x="385" 
d="M402 647l-3 -17c-81 -41 -151 -76 -223 -109l-17 1l-44 72c75 55 138 106 201 160l17 -1zM227 352h17c36 55 72 93 124 123l29 -5l-28 -216l-16 -7l-35 7c-44 -3 -72 -15 -111 -51l-11 -87l-4 -109l-177 -11l47 356l4 113l177 11z" />
    <glyph glyph-name="Rcommaaccent" unicode="&#x156;" horiz-adv-x="630" 
d="M621 475c0 -91 -48 -171 -131 -225c36 -68 74 -136 116 -203l-5 -22c-68 -20 -136 -33 -205 -37l-17 16c-21 62 -43 125 -63 189h-68l-17 -193h-200l34 190l46 457l296 1c132 0 214 -62 214 -173zM408 442c0 45 -24 65 -79 68l-36 -3l-25 -168l73 -4c49 21 67 55 67 107z
M314 -33c28 -27 41 -55 41 -91c0 -67 -41 -126 -131 -187l-52 45l-2 12c33 28 48 57 48 93c0 25 -8 45 -28 65l1 13c38 22 79 39 123 50z" />
    <glyph glyph-name="rcommaaccent" unicode="&#x157;" horiz-adv-x="385" 
d="M397 470l-28 -216l-16 -7l-35 7c-44 -3 -72 -15 -111 -51l-11 -87l-4 -109l-177 -11l47 356l4 113l177 11l-16 -124h17c36 55 72 93 124 123zM157 -33c28 -27 41 -55 41 -91c0 -67 -41 -126 -131 -187l-52 45l-2 12c33 28 48 57 48 93c0 25 -8 45 -28 65l1 13
c38 22 79 39 123 50z" />
    <glyph glyph-name="Rcaron" unicode="&#x158;" horiz-adv-x="630" 
d="M388 701h-34c-41 47 -96 101 -147 150l56 71h18c40 -28 77 -56 103 -78c31 22 79 50 126 78h18l38 -71c-54 -41 -115 -95 -178 -150zM621 475c0 -91 -48 -171 -131 -225c36 -68 74 -136 116 -203l-5 -22c-68 -20 -136 -33 -205 -37l-17 16c-21 62 -43 125 -63 189h-68
l-17 -193h-200l34 190l46 457l296 1c132 0 214 -62 214 -173zM408 442c0 45 -24 65 -79 68l-36 -3l-25 -168l73 -4c49 21 67 55 67 107z" />
    <glyph glyph-name="rcaron" unicode="&#x159;" horiz-adv-x="385" 
d="M260 526h-34c-41 47 -96 101 -147 150l56 71h18c40 -28 77 -56 103 -78c31 22 79 50 126 78h18l38 -71c-54 -41 -115 -95 -178 -150zM227 352h17c36 55 72 93 124 123l29 -5l-28 -216l-16 -7l-35 7c-44 -3 -72 -15 -111 -51l-11 -87l-4 -109l-177 -11l47 356l4 113
l177 11z" />
    <glyph glyph-name="Sacute" unicode="&#x15a;" horiz-adv-x="528" 
d="M414 928l69 -106l-3 -17c-81 -41 -151 -76 -223 -109l-17 1l-44 72c75 55 138 106 201 160zM351 659c53 0 119 -9 185 -35l-50 -162l-29 -12c-52 35 -109 56 -142 56c-34 0 -54 -16 -54 -36c0 -71 244 -74 244 -248c0 -127 -119 -234 -296 -234c-68 0 -140 13 -211 38
l48 173l21 12c59 -50 135 -76 178 -76c44 0 56 19 56 36c0 76 -241 73 -241 249c0 134 123 239 291 239z" />
    <glyph glyph-name="sacute" unicode="&#x15b;" horiz-adv-x="385" 
d="M329 753l69 -106l-3 -17c-81 -41 -151 -76 -223 -109l-17 1l-44 72c75 55 138 106 201 160zM266 480c41 -4 81 -12 121 -24l-41 -138l-23 -9c-37 37 -80 56 -106 56c-16 0 -24 -8 -24 -19c0 -47 162 -55 162 -183c0 -102 -100 -174 -227 -174c-48 5 -94 13 -140 26
l42 145l18 9c39 -45 90 -69 124 -69c20 0 27 11 27 19c0 41 -168 65 -166 181c4 115 112 180 233 180z" />
    <glyph glyph-name="Scircumflex" unicode="&#x15c;" horiz-adv-x="528" 
d="M198 705l-38 72c54 41 115 94 178 149h34c41 -47 96 -101 147 -149l-56 -72h-18c-40 28 -79 56 -105 78c-31 -22 -77 -50 -124 -78h-18zM351 659c53 0 119 -9 185 -35l-50 -162l-29 -12c-52 35 -109 56 -142 56c-34 0 -54 -16 -54 -36c0 -71 244 -74 244 -248
c0 -127 -119 -234 -296 -234c-68 0 -140 13 -211 38l48 173l21 12c59 -50 135 -76 178 -76c44 0 56 19 56 36c0 76 -241 73 -241 249c0 134 123 239 291 239z" />
    <glyph glyph-name="scircumflex" unicode="&#x15d;" horiz-adv-x="385" 
d="M113 530l-38 72c54 41 115 94 178 149h34c41 -47 96 -101 147 -149l-56 -72h-18c-40 28 -79 56 -105 78c-31 -22 -77 -50 -124 -78h-18zM266 480c41 -4 81 -12 121 -24l-41 -138l-23 -9c-37 37 -80 56 -106 56c-16 0 -24 -8 -24 -19c0 -47 162 -55 162 -183
c0 -102 -100 -174 -227 -174c-48 5 -94 13 -140 26l42 145l18 9c39 -45 90 -69 124 -69c20 0 27 11 27 19c0 41 -168 65 -166 181c4 115 112 180 233 180z" />
    <glyph glyph-name="Scedilla" unicode="&#x15e;" horiz-adv-x="528" 
d="M261 470c0 -71 244 -74 244 -248c0 -116 -99 -215 -250 -232l-6 -32l34 -19c34 -18 44 -39 44 -63c0 -48 -41 -84 -110 -84c-35 0 -65 9 -92 24l11 75l8 3c21 -18 46 -28 60 -28c11 0 16 5 16 14c0 7 -4 11 -12 15l-50 27l13 67c-56 4 -115 17 -173 37l48 173l21 12
c59 -50 135 -76 178 -76c44 0 56 19 56 36c0 76 -241 73 -241 249c0 134 123 239 291 239c53 0 119 -9 185 -35l-50 -162l-29 -12c-52 35 -109 56 -142 56c-34 0 -54 -16 -54 -36z" />
    <glyph glyph-name="scedilla" unicode="&#x15f;" horiz-adv-x="385" 
d="M193 346c0 -47 162 -55 162 -183c0 -84 -68 -147 -162 -167l-7 -38l34 -19c34 -18 44 -39 44 -63c0 -48 -41 -84 -110 -84c-35 0 -65 9 -92 24l11 75l8 3c21 -18 46 -28 60 -28c11 0 16 5 16 14c0 7 -4 11 -12 15l-50 27l14 69c-41 5 -81 13 -121 24l42 145l18 9
c39 -45 90 -69 124 -69c20 0 27 11 27 19c0 41 -168 65 -166 181c4 115 112 180 233 180c41 -4 81 -12 121 -24l-41 -138l-23 -9c-37 37 -80 56 -106 56c-16 0 -24 -8 -24 -19z" />
    <glyph glyph-name="Scaron" unicode="&#x160;" horiz-adv-x="528" 
d="M481 922l38 -71c-54 -41 -115 -95 -178 -150h-34c-41 47 -96 101 -147 150l56 71h18c40 -28 77 -56 103 -78c31 22 79 50 126 78h18zM351 659c53 0 119 -9 185 -35l-50 -162l-29 -12c-52 35 -109 56 -142 56c-34 0 -54 -16 -54 -36c0 -71 244 -74 244 -248
c0 -127 -119 -234 -296 -234c-68 0 -140 13 -211 38l48 173l21 12c59 -50 135 -76 178 -76c44 0 56 19 56 36c0 76 -241 73 -241 249c0 134 123 239 291 239z" />
    <glyph glyph-name="scaron" unicode="&#x161;" horiz-adv-x="385" 
d="M396 747l38 -71c-54 -41 -115 -95 -178 -150h-34c-41 47 -96 101 -147 150l56 71h18c40 -28 77 -56 103 -78c31 22 79 50 126 78h18zM266 480c41 -4 81 -12 121 -24l-41 -138l-23 -9c-37 37 -80 56 -106 56c-16 0 -24 -8 -24 -19c0 -47 162 -55 162 -183
c0 -102 -100 -174 -227 -174c-48 5 -94 13 -140 26l42 145l18 9c39 -45 90 -69 124 -69c20 0 27 11 27 19c0 41 -168 65 -166 181c4 115 112 180 233 180z" />
    <glyph glyph-name="Tcedilla" unicode="&#x162;" horiz-adv-x="518" 
d="M560 633l-29 -145l-130 6h-13l-40 -284l-18 -210h-59l-8 -41l33 -18c32 -18 42 -38 42 -61c0 -47 -39 -82 -106 -82c-34 0 -63 9 -89 23l11 73l7 3c21 -17 45 -27 59 -27c10 0 15 5 15 13c0 7 -4 11 -11 15l-49 26l15 76h-59l34 190l32 304h-13l-134 -6l-10 14l29 145
h482z" />
    <glyph glyph-name="tcedilla" unicode="&#x163;" horiz-adv-x="366" 
d="M231 166l-1 -9c0 -4 2 -9 10 -9c9 0 19 8 32 30l23 -1l48 -61c-31 -48 -67 -90 -113 -124l-16 -2l-6 -32l34 -19c34 -18 44 -39 44 -63c0 -48 -41 -84 -110 -84c-35 0 -65 9 -92 24l11 75l8 3c21 -18 46 -28 60 -28c11 0 16 5 16 14c0 7 -4 11 -12 15l-50 27l16 83
c-49 17 -73 47 -75 102l3 30l32 218l1 7h-62l-9 11l11 90h70l10 97l169 38l12 -10l-19 -125h98l12 -14l-11 -87h-114z" />
    <glyph glyph-name="Tcaron" unicode="&#x164;" horiz-adv-x="518" 
d="M331 701h-34c-41 47 -96 101 -147 150l56 71h18c40 -28 77 -56 103 -78c31 22 79 50 126 78h18l38 -71c-54 -41 -115 -95 -178 -150zM560 633l-29 -145l-130 6h-13l-40 -284l-18 -210h-199l34 190l32 304h-13l-134 -6l-10 14l29 145h482z" />
    <glyph glyph-name="tcaron" unicode="&#x165;" horiz-adv-x="366" 
d="M483 743l-72 -231l-84 -13l-11 10l19 237l140 8zM374 463l12 -14l-11 -87h-114l-30 -196l-1 -9c0 -4 2 -9 10 -9c9 0 19 8 32 30l23 -1l48 -61c-31 -48 -67 -90 -113 -124l-18 -2c-104 11 -151 38 -154 117l3 30l32 218l1 7h-62l-9 11l11 90h70l10 97l169 38l12 -10
l-19 -125h98z" />
    <glyph glyph-name="Tbar" unicode="&#x166;" horiz-adv-x="518" 
d="M388 494l-22 -159h81l12 -13l-7 -87h-100l-4 -25l-18 -210h-199l34 190l5 45h-78l-12 13l7 87h93l17 159h-13l-134 -6l-10 14l29 145h482l9 -14l-29 -145l-130 6h-13z" />
    <glyph glyph-name="tbar" unicode="&#x167;" horiz-adv-x="371" 
d="M264 362l-8 -53h96l11 -13l-10 -87h-112l-7 -43l-1 -9c0 -4 2 -9 10 -9c10 0 19 8 32 30l23 -1l49 -61c-32 -48 -68 -90 -114 -124l-18 -2c-104 11 -151 38 -154 117l3 30l11 72h-52l-11 13l10 87h67l7 46l1 7h-62l-9 11l11 90h70l10 97l169 38l12 -10l-19 -125h98
l12 -14l-11 -87h-114z" />
    <glyph glyph-name="Umacron" unicode="&#x16a;" horiz-adv-x="653" 
d="M545 853l-9 -107h-276l-12 13l9 106h276zM610 319l-13 -103c-19 -147 -120 -228 -300 -228c-157 0 -252 65 -252 185c0 13 1 28 3 43l15 103l34 328h200l-58 -404c-1 -10 -2 -19 -2 -27c0 -50 23 -71 76 -71c64 0 94 29 101 98l40 404h203z" />
    <glyph glyph-name="umacron" unicode="&#x16b;" horiz-adv-x="514" 
d="M169 571l-12 13l9 106h276l12 -12l-9 -107h-276zM498 476l-47 -360l-4 -109l-177 -11l16 121h-13c-33 -45 -65 -83 -105 -120l-13 -1c-84 10 -137 52 -137 109l2 20l37 226l4 112l181 11l-42 -262l-1 -13c0 -16 6 -23 18 -23c17 0 47 29 89 95l11 81l4 113z" />
    <glyph glyph-name="Ubreve" unicode="&#x16c;" horiz-adv-x="653" 
d="M542 907l31 -61c-27 -68 -89 -136 -188 -136c-109 0 -154 72 -166 136l47 61h27c16 -40 56 -63 104 -63c49 0 94 23 118 63h27zM610 319l-13 -103c-19 -147 -120 -228 -300 -228c-157 0 -252 65 -252 185c0 13 1 28 3 43l15 103l34 328h200l-58 -404
c-1 -10 -2 -19 -2 -27c0 -50 23 -71 76 -71c64 0 94 29 101 98l40 404h203z" />
    <glyph glyph-name="ubreve" unicode="&#x16d;" horiz-adv-x="514" 
d="M294 535c-109 0 -154 72 -166 136l47 61h27c16 -40 56 -63 104 -63c49 0 94 23 118 63h27l31 -61c-27 -68 -89 -136 -188 -136zM498 476l-47 -360l-4 -109l-177 -11l16 121h-13c-33 -45 -65 -83 -105 -120l-13 -1c-84 10 -137 52 -137 109l2 20l37 226l4 112l181 11
l-42 -262l-1 -13c0 -16 6 -23 18 -23c17 0 47 29 89 95l11 81l4 113z" />
    <glyph glyph-name="Uring" unicode="&#x16e;" horiz-adv-x="653" 
d="M402 930c71 0 106 -35 106 -103c0 -73 -39 -114 -114 -114c-70 0 -106 36 -106 107c0 72 39 110 114 110zM397 853c-25 0 -34 -8 -34 -30c0 -25 10 -34 36 -34c25 0 34 8 34 31c0 24 -10 33 -36 33zM610 319l-13 -103c-19 -147 -120 -228 -300 -228
c-157 0 -252 65 -252 185c0 13 1 28 3 43l15 103l34 328h200l-58 -404c-1 -10 -2 -19 -2 -27c0 -50 23 -71 76 -71c64 0 94 29 101 98l40 404h203z" />
    <glyph glyph-name="uring" unicode="&#x16f;" horiz-adv-x="514" 
d="M303 538c-70 0 -106 36 -106 107c0 72 39 110 114 110c71 0 106 -35 106 -103c0 -73 -39 -114 -114 -114zM306 678c-25 0 -34 -8 -34 -30c0 -25 10 -34 36 -34c25 0 34 8 34 31c0 24 -10 33 -36 33zM498 476l-47 -360l-4 -109l-177 -11l16 121h-13
c-33 -45 -65 -83 -105 -120l-13 -1c-84 10 -137 52 -137 109l2 20l37 226l4 112l181 11l-42 -262l-1 -13c0 -16 6 -23 18 -23c17 0 47 29 89 95l11 81l4 113z" />
    <glyph glyph-name="Uhungarumlaut" unicode="&#x170;" horiz-adv-x="653" 
d="M269 711l-59 46c34 49 68 98 99 149l14 3l90 -57l3 -14c-42 -42 -86 -83 -131 -122zM438 711l-59 46c33 49 67 98 99 149l13 3l91 -57l3 -14c-43 -42 -87 -83 -132 -122zM610 319l-13 -103c-19 -147 -120 -228 -300 -228c-157 0 -252 65 -252 185c0 13 1 28 3 43l15 103
l34 328h200l-58 -404c-1 -10 -2 -19 -2 -27c0 -50 23 -71 76 -71c64 0 94 29 101 98l40 404h203z" />
    <glyph glyph-name="uhungarumlaut" unicode="&#x171;" horiz-adv-x="514" 
d="M193 522l-58 46c39 63 76 126 113 190l12 4l90 -62l3 -14c-47 -55 -96 -108 -145 -159zM358 522l-58 46c39 63 76 126 112 190l13 4l90 -62l3 -14c-47 -55 -96 -108 -145 -159zM321 465l177 11l-47 -360l-4 -109l-177 -11l16 121h-13c-33 -45 -65 -83 -105 -120l-13 -1
c-84 10 -137 52 -137 109l2 20l37 226l4 112l181 11l-42 -262l-1 -13c0 -16 6 -23 18 -23c17 0 47 29 89 95l11 81z" />
    <glyph glyph-name="Uogonek" unicode="&#x172;" horiz-adv-x="653" 
d="M657 647l-47 -328l-13 -103c-10 -76 -42 -135 -96 -174l-41 -64c-10 -15 -16 -30 -16 -44c0 -19 11 -33 36 -33c18 0 40 7 61 20h10l12 -72c-42 -32 -74 -46 -111 -46c-65 0 -104 43 -104 97c0 29 11 60 33 91l3 4c-26 -5 -56 -7 -87 -7c-157 0 -252 65 -252 185
c0 13 1 28 3 43l15 103l34 328h200l-58 -404c-1 -10 -2 -19 -2 -27c0 -50 23 -71 76 -71c64 0 94 29 101 98l40 404h203z" />
    <glyph glyph-name="uogonek" unicode="&#x173;" horiz-adv-x="514" 
d="M498 476l-47 -360l-4 -109l-81 -5c-37 -37 -46 -53 -46 -70c0 -16 11 -31 35 -31c16 0 34 7 52 20h10l12 -72c-36 -30 -64 -46 -103 -46c-62 0 -102 41 -102 101c0 34 13 62 47 103l15 110h-13c-33 -45 -65 -83 -105 -120l-13 -1c-84 10 -137 52 -137 109l2 20l37 226
l4 112l181 11l-42 -262l-1 -13c0 -16 6 -23 18 -23c17 0 47 29 89 95l11 81l4 113z" />
    <glyph glyph-name="Wcircumflex" unicode="&#x174;" horiz-adv-x="914" 
d="M363 720l-25 76c58 39 111 77 158 118h34c43 -41 92 -79 148 -118l-43 -76h-18c-37 20 -71 40 -108 60c-41 -20 -87 -40 -128 -60h-18zM694 0h-212l-32 234h-11l-86 -234h-213l-72 647h194l-2 -100l21 -346h11l111 296l-16 150h203l-1 -121l28 -325h11l120 334l32 112
h184z" />
    <glyph glyph-name="wcircumflex" unicode="&#x175;" horiz-adv-x="743" 
d="M280 530l-38 72c54 41 115 94 178 149h34c41 -47 96 -101 147 -149l-56 -72h-18c-40 28 -79 56 -105 78c-31 -22 -77 -50 -124 -78h-18zM580 0h-197l-11 234h-15l-78 -234h-194l-54 466l175 10v-87l2 -191h15l61 179l27 95h188l1 -83l4 -190h14l37 92c15 37 25 67 25 95
c0 19 -4 38 -13 56l8 17l162 20c9 -26 14 -52 14 -78c0 -48 -17 -97 -46 -154z" />
    <glyph glyph-name="Ycircumflex" unicode="&#x176;" horiz-adv-x="594" 
d="M224 720l-25 76c58 39 111 77 158 118h34c43 -41 92 -79 148 -118l-43 -76h-18c-37 20 -71 40 -108 60c-41 -20 -87 -40 -128 -60h-18zM379 204l-6 -34l-12 -170h-199l30 170l3 37l-152 440h208l9 -54l49 -196h12l109 189l30 61h204z" />
    <glyph glyph-name="ycircumflex" unicode="&#x177;" horiz-adv-x="483" 
d="M149 530l-38 72c54 41 115 94 178 149h34c41 -47 96 -101 147 -149l-56 -72h-18c-40 28 -79 56 -105 78c-31 -22 -77 -50 -124 -78h-18zM312 459l163 20c9 -26 14 -52 14 -78c0 -48 -15 -96 -44 -154l-92 -181c-101 -200 -182 -264 -294 -264c-35 0 -71 6 -105 18l-9 144
l15 16c31 -8 61 -13 90 -13c31 0 62 7 88 19l-107 480l178 10l7 -91l27 -200h14l35 87c16 39 26 76 26 110c0 22 -5 42 -14 60z" />
    <glyph glyph-name="Ydieresis" unicode="&#x178;" horiz-adv-x="594" 
d="M267 718c-53 0 -81 30 -81 83c0 56 33 89 88 89c51 0 81 -29 81 -81c0 -56 -34 -91 -88 -91zM461 718c-53 0 -82 30 -82 83c0 56 34 89 89 89c51 0 80 -30 80 -81c0 -56 -33 -91 -87 -91zM379 204l-6 -34l-12 -170h-199l30 170l3 37l-152 440h208l9 -54l49 -196h12
l109 189l30 61h204z" />
    <glyph glyph-name="Zacute" unicode="&#x179;" horiz-adv-x="569" 
d="M409 913l49 -116l-6 -16c-86 -27 -161 -49 -238 -69l-17 4l-30 79c83 41 154 80 225 122zM571 505l-319 -358h161l124 9l5 -9l-35 -152l-176 5h-230l-102 -6l18 142l325 364h-158l-121 -10l-6 8l33 152l150 -3h274l75 1z" />
    <glyph glyph-name="zacute" unicode="&#x17a;" horiz-adv-x="446" 
d="M348 753l69 -106l-3 -17c-81 -41 -151 -76 -223 -109l-17 1l-44 72c75 55 138 106 201 160zM448 442l-237 -296l25 7h37c36 0 49 5 58 60l21 6l69 -18c-2 -163 -62 -211 -146 -211c-68 0 -120 33 -166 33c-23 0 -36 -8 -62 -31h-22l-52 49l225 285l-70 -3l-76 -15l-14 12
l30 153l17 11l104 -8l168 -6l41 23z" />
    <glyph glyph-name="Zdotaccent" unicode="&#x17b;" horiz-adv-x="569" 
d="M313 905c59 0 92 -34 92 -94c0 -64 -38 -104 -100 -104c-61 0 -94 34 -94 95c0 64 39 103 102 103zM571 505l-319 -358h161l124 9l5 -9l-35 -152l-176 5h-230l-102 -6l18 142l325 364h-158l-121 -10l-6 8l33 152l150 -3h274l75 1z" />
    <glyph glyph-name="zdotaccent" unicode="&#x17c;" horiz-adv-x="446" 
d="M277 730c59 0 92 -34 92 -94c0 -64 -38 -104 -100 -104c-61 0 -94 34 -94 95c0 64 39 103 102 103zM448 442l-237 -296l25 7h37c36 0 49 5 58 60l21 6l69 -18c-2 -163 -62 -211 -146 -211c-68 0 -120 33 -166 33c-23 0 -36 -8 -62 -31h-22l-52 49l225 285l-70 -3l-76 -15
l-14 12l30 153l17 11l104 -8l168 -6l41 23z" />
    <glyph glyph-name="Zcaron" unicode="&#x17d;" horiz-adv-x="569" 
d="M454 906l25 -75c-59 -39 -111 -78 -158 -119h-34c-43 41 -93 80 -148 119l43 75h18c36 -20 71 -40 108 -60c41 20 86 40 128 60h18zM571 505l-319 -358h161l124 9l5 -9l-35 -152l-176 5h-230l-102 -6l18 142l325 364h-158l-121 -10l-6 8l33 152l150 -3h274l75 1z" />
    <glyph glyph-name="zcaron" unicode="&#x17e;" horiz-adv-x="446" 
d="M415 747l38 -71c-54 -41 -115 -95 -178 -150h-34c-41 47 -96 101 -147 150l56 71h18c40 -28 77 -56 103 -78c31 22 79 50 126 78h18zM448 442l-237 -296l25 7h37c36 0 49 5 58 60l21 6l69 -18c-2 -163 -62 -211 -146 -211c-68 0 -120 33 -166 33c-23 0 -36 -8 -62 -31
h-22l-52 49l225 285l-70 -3l-76 -15l-14 12l30 153l17 11l104 -8l168 -6l41 23z" />
    <glyph glyph-name="florin" unicode="&#x192;" horiz-adv-x="360" 
d="M356 626c30 0 59 -3 89 -9l-26 -130l-12 -8c-38 16 -64 22 -83 22c-26 0 -44 -10 -48 -40l-9 -64h91l4 -10l-10 -97h-100l-13 -104l-13 -122c-12 -100 -55 -163 -162 -215l-80 79l2 13c44 27 64 61 73 119l12 107l12 123h-66l-4 9l10 98h71l4 32c15 127 111 197 258 197z
" />
    <glyph glyph-name="Ohorn" unicode="&#x1a0;" horiz-adv-x="664" 
d="M681 789c44 0 73 -36 73 -89c0 -75 -59 -137 -138 -155c25 -45 37 -95 37 -164c0 -230 -131 -393 -355 -393c-174 0 -274 99 -274 289c0 233 149 382 349 382c87 0 136 -28 177 -28c35 0 52 20 52 51c0 21 -8 42 -22 56l5 14c27 18 64 37 96 37zM356 500
c-71 0 -123 -36 -123 -228c0 -96 13 -137 90 -137c68 0 122 34 122 229c0 94 -13 136 -89 136z" />
    <glyph glyph-name="ohorn" unicode="&#x1a1;" horiz-adv-x="479" 
d="M560 526c0 -63 -65 -128 -121 -138c12 -24 19 -53 19 -87c0 -192 -106 -304 -279 -313l-16 2c-93 21 -151 82 -151 193c0 178 107 291 279 301l16 -2c18 -3 57 -20 75 -20s28 17 28 39c0 23 -11 39 -29 55l3 14c31 27 64 44 95 44c44 0 81 -35 81 -88zM215 119
c62 0 71 48 71 172c0 44 -7 58 -30 58c-64 0 -74 -48 -74 -171c0 -45 8 -59 33 -59z" />
    <glyph glyph-name="Uhorn" unicode="&#x1af;" horiz-adv-x="669" 
d="M736 713c0 -52 -33 -99 -88 -129l-38 -265l-13 -103c-19 -147 -120 -228 -300 -228c-157 0 -252 65 -252 185c0 13 1 28 3 43l15 103l34 328h200l-58 -404c-1 -10 -2 -19 -2 -27c0 -50 23 -71 76 -71c64 0 94 29 101 98l40 404h75c41 0 57 14 57 48c0 24 -11 44 -29 59
l3 14c28 20 61 37 93 37c48 0 83 -38 83 -92z" />
    <glyph glyph-name="uhorn" unicode="&#x1b0;" horiz-adv-x="532" 
d="M592 543c0 -57 -47 -111 -104 -141l-37 -286l-4 -109l-177 -11l16 121h-13c-33 -45 -65 -83 -104 -120l-13 -1c-85 10 -138 52 -138 109l2 20l37 226l4 112l181 11l-42 -262l-1 -13c0 -16 7 -23 17 -23c18 0 45 24 90 95l11 81l4 113l61 7c41 4 60 18 60 45
c0 21 -11 40 -29 55l3 14c31 27 64 44 95 44c44 0 81 -35 81 -87z" />
    <glyph glyph-name="Acaron" unicode="&#x1cd;" horiz-adv-x="626" 
d="M397 712h-34c-43 41 -93 80 -148 119l43 75h18c36 -20 71 -40 108 -60c41 20 86 40 128 60h18l25 -75c-59 -39 -111 -78 -158 -119zM588 0h-202l-4 107v4l-101 2l-81 -4l-31 -109h-195l276 647h241zM369 256l-18 213h-12l-83 -213l55 -1z" />
    <glyph glyph-name="acaron" unicode="&#x1ce;" horiz-adv-x="488" 
d="M288 526h-34c-41 47 -96 101 -147 150l56 71h18c40 -28 77 -56 103 -78c31 22 79 50 126 78h18l38 -71c-54 -41 -115 -95 -178 -150zM472 476l-47 -360l-4 -109l-177 -11l15 110h-16c-21 -42 -44 -81 -75 -117h-23c-110 27 -137 87 -137 168c0 121 73 265 240 321h7
l97 -17l109 23zM193 152c21 0 50 51 93 157l3 22l-68 17c-34 0 -49 -40 -49 -117c0 -57 8 -79 21 -79z" />
    <glyph glyph-name="Icaron" unicode="&#x1cf;" horiz-adv-x="327" 
d="M376 906l25 -75c-59 -39 -111 -78 -158 -119h-34c-43 41 -93 80 -148 119l43 75h18c36 -20 71 -40 108 -60c41 20 86 40 128 60h18zM249 210l-18 -210h-200l34 190l46 457h203z" />
    <glyph glyph-name="icaron" unicode="&#x1d0;" horiz-adv-x="259" 
d="M318 747l38 -71c-54 -41 -115 -95 -178 -150h-34c-41 47 -96 101 -147 150l56 71h18c40 -28 77 -56 103 -78c31 22 79 50 126 78h18zM197 116l-5 -109l-177 -11l47 356l4 113l177 11z" />
    <glyph glyph-name="Ocaron" unicode="&#x1d1;" horiz-adv-x="658" 
d="M544 906l25 -75c-59 -39 -111 -78 -158 -119h-34c-43 41 -93 80 -148 119l43 75h18c36 -20 71 -40 108 -60c41 20 86 40 128 60h18zM380 659c169 0 274 -88 274 -285c0 -222 -126 -386 -355 -386c-170 0 -275 90 -275 288c0 222 126 383 356 383zM357 500
c-71 0 -124 -35 -124 -227c0 -102 15 -138 87 -138c70 0 124 35 124 227c0 102 -16 138 -87 138z" />
    <glyph glyph-name="ocaron" unicode="&#x1d2;" horiz-adv-x="468" 
d="M429 747l38 -71c-54 -41 -115 -95 -178 -150h-34c-41 47 -96 101 -147 150l56 71h18c40 -28 77 -56 103 -78c31 22 79 50 126 78h18zM289 484l16 -2c90 -20 151 -78 151 -181c0 -192 -107 -304 -278 -313l-16 2c-92 21 -150 82 -150 193c0 178 107 291 277 301zM255 348
c-65 0 -73 -48 -73 -169c0 -45 7 -59 31 -59c63 0 71 48 71 170c0 44 -6 58 -29 58z" />
    <glyph glyph-name="Ucaron" unicode="&#x1d3;" horiz-adv-x="653" 
d="M539 922l38 -71c-54 -41 -115 -95 -178 -150h-34c-41 47 -96 101 -147 150l56 71h18c40 -28 77 -56 103 -78c31 22 79 50 126 78h18zM610 319l-13 -103c-19 -147 -120 -228 -300 -228c-157 0 -252 65 -252 185c0 13 1 28 3 43l15 103l34 328h200l-58 -404
c-1 -10 -2 -19 -2 -27c0 -50 23 -71 76 -71c64 0 94 29 101 98l40 404h203z" />
    <glyph glyph-name="ucaron" unicode="&#x1d4;" horiz-adv-x="514" 
d="M308 526h-34c-41 47 -96 101 -147 150l56 71h18c40 -28 77 -56 103 -78c31 22 79 50 126 78h18l38 -71c-54 -41 -115 -95 -178 -150zM498 476l-47 -360l-4 -109l-177 -11l16 121h-13c-33 -45 -65 -83 -105 -120l-13 -1c-84 10 -137 52 -137 109l2 20l37 226l4 112l181 11
l-42 -262l-1 -13c0 -16 6 -23 18 -23c17 0 47 29 89 95l11 81l4 113z" />
    <glyph glyph-name="Udieresismacron" unicode="&#x1d5;" horiz-adv-x="653" 
d="M571 1025l-10 -106h-303l-13 12l10 107h303zM305 871c51 0 80 -30 80 -81c0 -56 -33 -91 -87 -91c-52 0 -81 30 -81 83c0 55 34 89 88 89zM498 871c51 0 80 -30 80 -81c0 -56 -33 -91 -87 -91c-53 0 -82 30 -82 83c0 55 34 89 89 89zM610 319l-13 -103
c-19 -147 -120 -228 -300 -228c-157 0 -252 65 -252 185c0 13 1 28 3 43l15 103l34 328h200l-58 -404c-1 -10 -2 -19 -2 -27c0 -50 23 -71 76 -71c64 0 94 29 101 98l40 404h203z" />
    <glyph glyph-name="udieresismacron" unicode="&#x1d6;" horiz-adv-x="514" 
d="M167 744l-13 12l10 107h303l13 -13l-10 -106h-303zM207 524c-52 0 -81 30 -81 83c0 55 34 89 88 89c51 0 80 -30 80 -81c0 -56 -33 -91 -87 -91zM407 696c51 0 80 -30 80 -81c0 -56 -33 -91 -87 -91c-53 0 -82 30 -82 83c0 55 34 89 89 89zM498 476l-47 -360l-4 -109
l-177 -11l16 121h-13c-33 -45 -65 -83 -105 -120l-13 -1c-84 10 -137 52 -137 109l2 20l37 226l4 112l181 11l-42 -262l-1 -13c0 -16 6 -23 18 -23c17 0 47 29 89 95l11 81l4 113z" />
    <glyph glyph-name="Udieresisacute" unicode="&#x1d7;" horiz-adv-x="653" 
d="M520 1075l28 -123l-9 -15c-89 -11 -167 -20 -246 -27l-16 7l-16 83c89 27 166 53 243 82zM305 871c51 0 80 -30 80 -81c0 -56 -33 -91 -87 -91c-53 0 -81 30 -81 83c0 55 33 89 88 89zM498 871c51 0 79 -30 79 -81c0 -56 -32 -91 -86 -91c-53 0 -82 30 -82 83
c0 55 34 89 89 89zM610 319l-13 -103c-19 -147 -120 -228 -300 -228c-157 0 -252 65 -252 185c0 13 1 28 3 43l15 103l34 328h200l-58 -404c-1 -10 -2 -19 -2 -27c0 -50 23 -71 76 -71c64 0 94 29 101 98l40 404h203z" />
    <glyph glyph-name="udieresisacute" unicode="&#x1d8;" horiz-adv-x="514" 
d="M186 742l-16 83c89 27 166 53 243 82l16 -7l28 -123l-9 -15c-89 -11 -167 -20 -246 -27zM207 524c-53 0 -81 30 -81 83c0 55 33 89 88 89c51 0 80 -30 80 -81c0 -56 -33 -91 -87 -91zM318 607c0 55 34 89 89 89c51 0 79 -30 79 -81c0 -56 -32 -91 -86 -91
c-53 0 -82 30 -82 83zM498 476l-47 -360l-4 -109l-177 -11l16 121h-13c-33 -45 -65 -83 -105 -120l-13 -1c-84 10 -137 52 -137 109l2 20l37 226l4 112l181 11l-42 -262l-1 -13c0 -16 6 -23 18 -23c17 0 47 29 89 95l11 81l4 113z" />
    <glyph glyph-name="Udieresiscaron" unicode="&#x1d9;" horiz-adv-x="653" 
d="M552 1069l25 -76c-59 -39 -111 -78 -158 -118h-34c-43 40 -93 79 -148 118l43 76h18c36 -20 71 -40 108 -60c41 20 86 40 128 60h18zM311 871c51 0 80 -30 80 -81c0 -56 -33 -91 -87 -91c-53 0 -81 30 -81 83c0 55 33 89 88 89zM504 871c50 0 79 -30 79 -81
c0 -56 -32 -91 -86 -91c-53 0 -82 30 -82 83c0 55 34 89 89 89zM610 319l-13 -103c-19 -147 -120 -228 -300 -228c-157 0 -252 65 -252 185c0 13 1 28 3 43l15 103l34 328h200l-58 -404c-1 -10 -2 -19 -2 -27c0 -50 23 -71 76 -71c64 0 94 29 101 98l40 404h203z" />
    <glyph glyph-name="udieresiscaron" unicode="&#x1da;" horiz-adv-x="514" 
d="M328 700h-34c-43 40 -93 79 -148 118l43 76h18c36 -20 71 -40 108 -60c41 20 86 40 128 60h18l25 -76c-59 -39 -111 -78 -158 -118zM213 524c-53 0 -81 30 -81 83c0 55 33 89 88 89c51 0 80 -30 80 -81c0 -56 -33 -91 -87 -91zM413 696c50 0 79 -30 79 -81
c0 -56 -32 -91 -86 -91c-53 0 -82 30 -82 83c0 55 34 89 89 89zM498 476l-47 -360l-4 -109l-177 -11l16 121h-13c-33 -45 -65 -83 -105 -120l-13 -1c-84 10 -137 52 -137 109l2 20l37 226l4 112l181 11l-42 -262l-1 -13c0 -16 6 -23 18 -23c17 0 47 29 89 95l11 81l4 113z
" />
    <glyph glyph-name="Udieresisgrave" unicode="&#x1db;" horiz-adv-x="653" 
d="M309 1075l16 7c74 -29 148 -55 233 -82l-26 -83l-17 -7c-78 7 -155 16 -242 27l-8 15zM298 871c51 0 80 -29 80 -81c0 -56 -33 -91 -87 -91c-53 0 -81 30 -81 83c0 54 33 89 88 89zM491 871c51 0 79 -29 79 -81c0 -56 -32 -91 -86 -91c-53 0 -82 30 -82 83
c0 54 34 89 89 89zM610 319l-13 -103c-19 -147 -120 -228 -300 -228c-157 0 -252 65 -252 185c0 13 1 28 3 43l15 103l34 328h200l-58 -404c-1 -10 -2 -19 -2 -27c0 -50 23 -71 76 -71c64 0 94 29 101 98l40 404h203z" />
    <glyph glyph-name="udieresisgrave" unicode="&#x1dc;" horiz-adv-x="514" 
d="M441 742l-17 -7c-78 7 -155 16 -242 27l-8 15l44 123l16 7c74 -29 148 -55 233 -82zM200 524c-53 0 -81 30 -81 83c0 54 33 89 88 89c51 0 80 -29 80 -81c0 -56 -33 -91 -87 -91zM400 696c51 0 79 -29 79 -81c0 -56 -32 -91 -86 -91c-53 0 -82 30 -82 83
c0 54 34 89 89 89zM498 476l-47 -360l-4 -109l-177 -11l16 121h-13c-33 -45 -65 -83 -105 -120l-13 -1c-84 10 -137 52 -137 109l2 20l37 226l4 112l181 11l-42 -262l-1 -13c0 -16 6 -23 18 -23c17 0 47 29 89 95l11 81l4 113z" />
    <glyph glyph-name="Oogonek" unicode="&#x1ea;" horiz-adv-x="658" 
d="M538 -79l12 -72c-42 -32 -74 -46 -111 -46c-65 0 -104 43 -104 97c0 29 10 60 33 91l2 3c-22 -4 -46 -6 -71 -6c-170 0 -275 90 -275 288c0 222 126 383 356 383c169 0 274 -88 274 -285c0 -152 -59 -277 -170 -341l-37 -55c-10 -15 -16 -30 -16 -44c0 -19 11 -33 36 -33
c18 0 40 7 61 20h10zM233 273c0 -102 15 -138 87 -138c70 0 124 35 124 227c0 102 -16 138 -87 138s-124 -35 -124 -227z" />
    <glyph glyph-name="oogonek" unicode="&#x1eb;" horiz-adv-x="471" 
d="M371 -79l12 -72c-42 -32 -74 -46 -111 -46c-65 0 -104 43 -104 97c0 29 10 59 32 90l-22 -2l-16 2c-92 21 -150 82 -150 193c0 178 107 291 277 301l16 -2c90 -20 151 -78 151 -181c0 -137 -54 -233 -148 -280l-28 -43c-10 -15 -16 -30 -16 -44c0 -19 11 -33 36 -33
c18 0 40 7 61 20h10zM182 179c0 -45 7 -59 31 -59c63 0 71 48 71 170c0 44 -6 58 -29 58c-65 0 -73 -48 -73 -169z" />
    <glyph glyph-name="Aringacute" unicode="&#x1fa;" horiz-adv-x="657" 
d="M301 806l-18 81c87 30 162 59 239 91l16 -6l32 -122l-8 -15c-89 -15 -166 -26 -245 -35zM618 0h-202l-5 103v4l-100 2l-82 -4l-30 -105h-195l292 638c-3 12 -5 25 -5 40c0 73 39 111 113 111c71 0 106 -35 106 -104c0 -19 -3 -36 -8 -50zM399 711c-25 0 -34 -8 -34 -30
c0 -25 10 -34 36 -34c25 0 34 8 34 31c0 24 -10 33 -36 33zM397 247l-19 204h-12l-81 -204l55 -1z" />
    <glyph glyph-name="aringacute" unicode="&#x1fb;" horiz-adv-x="488" 
d="M187 751l-18 82c88 30 163 59 240 91l16 -6l32 -122l-8 -15c-89 -15 -166 -26 -245 -36zM177 624c0 72 39 110 114 110c71 0 106 -35 106 -103c0 -73 -39 -114 -114 -114c-70 0 -106 36 -106 107zM322 624c0 24 -10 33 -36 33c-25 0 -34 -8 -34 -30c0 -25 10 -34 36 -34
c25 0 34 8 34 31zM472 476l-47 -360l-4 -109l-177 -11l15 110h-16c-21 -42 -44 -81 -75 -117h-23c-110 27 -137 87 -137 168c0 121 73 265 240 321h7l97 -17l109 23zM193 152c21 0 50 51 93 157l3 22l-68 17c-34 0 -49 -40 -49 -117c0 -57 8 -79 21 -79z" />
    <glyph glyph-name="AEacute" unicode="&#x1fc;" horiz-adv-x="838" 
d="M463 716l-30 79c83 41 154 80 225 122l17 -4l49 -116l-6 -16c-86 -27 -161 -49 -238 -69zM818 159l10 -14l-30 -145h-435l8 107l3 67l-177 -52l-2 -3l-48 -119h-195l355 647h518l9 -14l-30 -145l-149 6h-75l-6 -114l174 53l13 -11l1 -138l-196 -54l-4 -77h91zM380 322
l6 147h-12l-90 -175z" />
    <glyph glyph-name="aeacute" unicode="&#x1fd;" horiz-adv-x="682" 
d="M477 753l69 -106l-3 -17c-81 -41 -151 -76 -223 -109l-17 1l-44 72c75 55 138 106 201 160zM256 478l155 -27c38 19 81 30 130 33l16 -2c69 -13 122 -53 122 -127c0 -78 -62 -132 -245 -177l4 -17c7 -26 20 -39 48 -39c36 0 66 20 95 64l22 -3l56 -71
c-53 -64 -120 -104 -187 -123h-16c-114 13 -159 60 -181 137l-4 17c-29 -54 -64 -106 -104 -154h-23c-112 27 -136 93 -136 165c0 128 75 269 241 324h7zM497 372c-40 0 -60 -31 -65 -98c67 15 94 34 94 70c0 20 -9 28 -29 28zM297 330l-74 19c-37 0 -54 -42 -54 -121
c0 -57 9 -78 22 -78c21 0 53 56 96 160c7 18 4 7 10 20z" />
    <glyph glyph-name="Oslashacute" unicode="&#x1fe;" horiz-adv-x="658" 
d="M273 719l-30 79c83 41 154 80 225 122l17 -4l49 -116l-6 -16c-86 -27 -161 -49 -238 -69zM633 687l-56 -93c49 -47 77 -119 77 -220c0 -222 -126 -386 -355 -386c-30 0 -57 3 -83 8l-79 -131l-97 47l-6 17l73 120c-53 47 -83 122 -83 227c0 222 126 383 356 383
c32 0 61 -3 88 -10l62 103l94 -46zM320 135c70 0 124 35 124 227c0 102 -16 138 -87 138s-124 -35 -124 -227c0 -102 15 -138 87 -138z" />
    <glyph glyph-name="oslashacute" unicode="&#x1ff;" horiz-adv-x="468" 
d="M159 522l-44 72c75 55 138 106 201 160l17 -1l69 -106l-3 -17c-81 -41 -151 -76 -223 -109zM480 525l-64 -105c25 -29 40 -69 40 -119c0 -192 -107 -304 -278 -313l-16 2l-6 1l-75 -123l-90 53l-4 16l69 112c-28 32 -44 76 -44 134c0 178 107 291 277 301l16 -2l11 -3
l70 115l85 -52zM213 120c63 0 71 48 71 170c0 44 -6 58 -29 58c-65 0 -73 -48 -73 -169c0 -45 7 -59 31 -59z" />
    <glyph glyph-name="Scommaaccent" unicode="&#x218;" horiz-adv-x="528" 
d="M351 659c53 0 119 -9 185 -35l-50 -162l-29 -12c-52 35 -109 56 -142 56c-34 0 -54 -16 -54 -36c0 -71 244 -74 244 -248c0 -127 -119 -234 -296 -234c-68 0 -140 13 -211 38l48 173l21 12c59 -50 135 -76 178 -76c44 0 56 19 56 36c0 76 -241 73 -241 249
c0 134 123 239 291 239zM263 -33c28 -27 41 -55 41 -91c0 -67 -41 -126 -131 -187l-52 45l-2 12c33 28 48 57 48 93c0 25 -8 45 -28 65l1 13c38 22 79 39 123 50z" />
    <glyph glyph-name="scommaaccent" unicode="&#x219;" horiz-adv-x="385" 
d="M266 480c41 -4 81 -12 121 -24l-41 -138l-23 -9c-37 37 -80 56 -106 56c-16 0 -24 -8 -24 -19c0 -47 162 -55 162 -183c0 -102 -100 -174 -227 -174c-48 5 -94 13 -140 26l42 145l18 9c39 -45 90 -69 124 -69c20 0 27 11 27 19c0 41 -168 65 -166 181
c4 115 112 180 233 180zM200 -33c28 -27 41 -55 41 -91c0 -67 -41 -126 -131 -187l-52 45l-2 12c33 28 48 57 48 93c0 25 -8 45 -28 65l1 13c38 22 79 39 123 50z" />
    <glyph glyph-name="Tcommaaccent" unicode="&#x21a;" horiz-adv-x="518" 
d="M560 633l-29 -145l-130 6h-13l-40 -284l-18 -210h-199l34 190l32 304h-13l-134 -6l-10 14l29 145h482zM257 -33c28 -27 41 -55 41 -91c0 -67 -41 -126 -131 -187l-52 45l-2 12c33 28 48 57 48 93c0 25 -8 45 -28 65l1 13c38 22 79 39 123 50z" />
    <glyph glyph-name="tcommaaccent" unicode="&#x21b;" horiz-adv-x="366" 
d="M231 166l-1 -9c0 -4 2 -9 10 -9c9 0 19 8 32 30l23 -1l48 -61c-31 -48 -67 -90 -113 -124l-18 -2c-104 11 -151 38 -154 117l3 30l32 218l1 7h-62l-9 11l11 90h70l10 97l169 38l12 -10l-19 -125h98l12 -14l-11 -87h-114zM222 -33c28 -27 41 -55 41 -91
c0 -67 -41 -126 -131 -187l-52 45l-2 12c33 28 48 57 48 93c0 25 -8 45 -28 65l1 13c38 22 79 39 123 50z" />
    <glyph glyph-name="dotlessj" unicode="&#x237;" horiz-adv-x="286" 
d="M266 472l-49 -354l-8 -82c-13 -107 -77 -179 -206 -231l-56 80l2 16c53 25 82 64 91 125l43 321l-2 15h-63l-7 11l13 90h73l165 13z" />
    <glyph glyph-name="circumflex" unicode="&#x2c6;" 
d="M98 530l-38 72c54 41 115 94 178 149h34c41 -47 96 -101 147 -149l-56 -72h-18c-40 28 -79 56 -105 78c-31 -22 -77 -50 -124 -78h-18z" />
    <glyph glyph-name="caron" unicode="&#x2c7;" 
d="M390 747l38 -71c-54 -41 -115 -95 -178 -150h-34c-41 47 -96 101 -147 150l56 71h18c40 -28 77 -56 103 -78c31 22 79 50 126 78h18z" />
    <glyph glyph-name="firsttonechinese" unicode="&#x2c9;" 
d="M392 678l-9 -107h-276l-12 13l9 106h276z" />
    <glyph glyph-name="breve" unicode="&#x2d8;" 
d="M393 732l31 -61c-27 -68 -89 -136 -188 -136c-109 0 -154 72 -166 136l47 61h27c16 -40 56 -63 104 -63c49 0 94 23 118 63h27z" />
    <glyph glyph-name="dotaccent" unicode="&#x2d9;" 
d="M247 730c59 0 92 -34 92 -94c0 -64 -38 -104 -100 -104c-61 0 -94 34 -94 95c0 64 39 103 102 103z" />
    <glyph glyph-name="ring" unicode="&#x2da;" 
d="M250 755c71 0 106 -35 106 -103c0 -73 -39 -114 -114 -114c-70 0 -106 36 -106 107c0 72 39 110 114 110zM245 678c-25 0 -34 -8 -34 -30c0 -25 10 -34 36 -34c25 0 34 8 34 31c0 24 -10 33 -36 33z" />
    <glyph glyph-name="ogonek" unicode="&#x2db;" 
d="M224 82l-69 -104c-10 -15 -16 -30 -16 -44c0 -19 11 -33 36 -33c18 0 40 7 61 20h10l12 -72c-42 -32 -74 -46 -111 -46c-65 0 -104 43 -104 97c0 29 10 60 33 91l68 91h80z" />
    <glyph glyph-name="tilde" unicode="&#x2dc;" 
d="M439 686v-16l-81 -113l-16 -6c-52 7 -127 34 -153 34s-46 -29 -69 -58h-16l-57 55v16l81 112l16 6c52 -7 127 -34 153 -34s46 29 69 58h16z" />
    <glyph glyph-name="hungarumlaut" unicode="&#x2dd;" 
d="M108 522l-58 46c39 63 76 126 113 190l12 4l90 -62l3 -14c-47 -55 -96 -108 -145 -159zM273 522l-58 46c39 63 76 126 112 190l13 4l90 -62l3 -14c-47 -55 -96 -108 -145 -159z" />
    <glyph glyph-name="tildecomb" unicode="&#x303;" horiz-adv-x="0" 
d="M439 686v-16l-81 -113l-16 -6c-52 7 -127 34 -153 34s-46 -29 -69 -58h-16l-57 55v16l81 112l16 6c52 -7 127 -34 153 -34s46 29 69 58h16z" />
    <glyph glyph-name="dotbelowcomb" unicode="&#x323;" horiz-adv-x="0" 
d="M153 -35c59 0 93 -35 93 -95c0 -64 -39 -103 -101 -103c-61 0 -93 34 -93 94c0 64 38 104 101 104z" />
    <glyph glyph-name="commaaccent" unicode="&#x326;" horiz-adv-x="0" 
d="M190 -33c28 -27 41 -55 41 -91c0 -67 -41 -126 -131 -187l-52 45l-2 12c33 28 48 57 48 93c0 25 -8 45 -28 65l1 13c38 22 79 39 123 50z" />
    <glyph glyph-name="Delta" unicode="&#x394;" horiz-adv-x="626" 
d="M587 0h-614l275 647h241zM337 469l-125 -325h165l-28 325h-12z" />
    <glyph glyph-name="Omega" unicode="&#x3a9;" horiz-adv-x="765" 
d="M428 659c182 0 284 -90 284 -243c0 -88 -34 -167 -119 -264l3 -5h51l88 10l9 -12l-41 -153l-132 8h-152l-37 -3l-8 7l13 108c94 97 113 180 113 266c0 78 -16 122 -89 122c-71 0 -119 -40 -119 -187c0 -87 17 -145 53 -201l-13 -108l-9 -7l-35 3h-186l-111 -6l-9 12
l41 148l97 -8l26 1l3 5c-44 68 -62 132 -62 200c0 178 123 307 341 307z" />
    <glyph glyph-name="mu" unicode="&#x3bc;" horiz-adv-x="522" 
d="M506 476l-47 -360l-4 -109l-177 -11l16 121h-13c-32 -44 -63 -80 -100 -116l-10 -75l-4 -109l-177 -11l72 546l4 113l177 11l-36 -277c-2 -16 6 -23 18 -23c17 0 47 29 89 95l11 81l4 113z" />
    <glyph glyph-name="pi" unicode="&#x3c0;" horiz-adv-x="722" 
d="M620 357l-32 -206c-2 -17 2 -24 13 -24c7 0 16 2 28 4l10 -10l-32 -101c-39 -19 -70 -29 -91 -29c-62 0 -117 30 -105 131l29 237h-84l-19 -149l-30 -295h-189l40 275l16 168c-34 -5 -68 -53 -106 -90h-19l-49 73l2 18l124 143l20 10h440l117 3l9 -14l-30 -145z" />
    <glyph glyph-name="Wgrave" unicode="&#x1e80;" horiz-adv-x="914" 
d="M411 913l17 4c71 -42 142 -80 225 -122l-30 -79l-17 -4c-77 20 -152 42 -238 69l-6 16zM694 0h-212l-32 234h-11l-86 -234h-213l-72 647h194l-2 -100l21 -346h11l111 296l-16 150h203l-1 -121l28 -325h11l120 334l32 112h184z" />
    <glyph glyph-name="wgrave" unicode="&#x1e81;" horiz-adv-x="743" 
d="M328 753l17 1c63 -54 126 -105 201 -160l-44 -72l-17 -1c-72 33 -142 68 -223 109l-3 17zM580 0h-197l-11 234h-15l-78 -234h-194l-54 466l175 10v-87l2 -191h15l61 179l27 95h188l1 -83l4 -190h14l37 92c15 37 25 67 25 95c0 19 -4 38 -13 56l8 17l162 20
c9 -26 14 -52 14 -78c0 -48 -17 -97 -46 -154z" />
    <glyph glyph-name="Wacute" unicode="&#x1e82;" horiz-adv-x="914" 
d="M607 913l49 -116l-6 -16c-86 -27 -161 -49 -238 -69l-17 4l-30 79c83 41 154 80 225 122zM694 0h-212l-32 234h-11l-86 -234h-213l-72 647h194l-2 -100l21 -346h11l111 296l-16 150h203l-1 -121l28 -325h11l120 334l32 112h184z" />
    <glyph glyph-name="wacute" unicode="&#x1e83;" horiz-adv-x="743" 
d="M496 753l69 -106l-3 -17c-81 -41 -151 -76 -223 -109l-17 1l-44 72c75 55 138 106 201 160zM580 0h-197l-11 234h-15l-78 -234h-194l-54 466l175 10v-87l2 -191h15l61 179l27 95h188l1 -83l4 -190h14l37 92c15 37 25 67 25 95c0 19 -4 38 -13 56l8 17l162 20
c9 -26 14 -52 14 -78c0 -48 -17 -97 -46 -154z" />
    <glyph glyph-name="Wdieresis" unicode="&#x1e84;" horiz-adv-x="914" 
d="M413 890c51 0 81 -29 81 -81c0 -56 -34 -91 -88 -91c-53 0 -81 30 -81 83c0 56 33 89 88 89zM607 890c51 0 80 -30 80 -81c0 -56 -33 -91 -87 -91c-53 0 -82 30 -82 83c0 56 34 89 89 89zM694 0h-212l-32 234h-11l-86 -234h-213l-72 647h194l-2 -100l21 -346h11l111 296
l-16 150h203l-1 -121l28 -325h11l120 334l32 112h184z" />
    <glyph glyph-name="wdieresis" unicode="&#x1e85;" horiz-adv-x="743" 
d="M327 715c51 0 81 -29 81 -81c0 -56 -34 -91 -88 -91c-53 0 -81 30 -81 83c0 56 33 89 88 89zM521 715c51 0 80 -30 80 -81c0 -56 -33 -91 -87 -91c-53 0 -82 30 -82 83c0 56 34 89 89 89zM580 0h-197l-11 234h-15l-78 -234h-194l-54 466l175 10v-87l2 -191h15l61 179
l27 95h188l1 -83l4 -190h14l37 92c15 37 25 67 25 95c0 19 -4 38 -13 56l8 17l162 20c9 -26 14 -52 14 -78c0 -48 -17 -97 -46 -154z" />
    <glyph glyph-name="Germandbls" unicode="&#x1e9e;" horiz-adv-x="711" 
d="M413 659c102 0 179 -25 278 -73l5 -23l-137 -171c92 -74 140 -109 140 -187c0 -149 -129 -217 -269 -217c-62 0 -126 14 -178 38l49 173l22 12c49 -48 101 -75 137 -75c25 0 37 12 37 29c0 25 -38 61 -176 143l-2 24l123 158c-22 8 -41 12 -68 12
c-72 0 -100 -30 -108 -98l-29 -194l-18 -210h-200l34 190l22 214c16 154 132 255 338 255z" />
    <glyph glyph-name="Adotbelow" unicode="&#x1ea0;" horiz-adv-x="626" 
d="M588 0h-202l-4 107v4l-101 2l-81 -4l-31 -109h-195l276 647h241zM369 256l-18 213h-12l-83 -213l55 -1zM280 -35c59 0 93 -35 93 -95c0 -64 -39 -103 -101 -103c-61 0 -93 34 -93 94c0 64 38 104 101 104z" />
    <glyph glyph-name="adotbelow" unicode="&#x1ea1;" horiz-adv-x="488" 
d="M472 476l-47 -360l-4 -109l-177 -11l15 110h-16c-21 -42 -44 -81 -75 -117h-23c-110 27 -137 87 -137 168c0 121 73 265 240 321h7l97 -17l109 23zM193 152c21 0 50 51 93 157l3 22l-68 17c-34 0 -49 -40 -49 -117c0 -57 8 -79 21 -79zM233 -35c59 0 93 -35 93 -95
c0 -64 -39 -103 -101 -103c-61 0 -93 34 -93 94c0 64 38 104 101 104z" />
    <glyph glyph-name="Ahookabove" unicode="&#x1ea2;" horiz-adv-x="626" 
d="M328 866c-21 0 -49 -10 -70 -26l-29 47c34 37 81 60 127 60c56 0 100 -34 100 -87c0 -29 -14 -50 -61 -92l27 -43l-64 -39l-54 80c34 24 54 55 54 76c0 17 -13 24 -30 24zM588 0h-202l-4 107v4l-101 2l-81 -4l-31 -109h-195l276 647h241zM369 256l-18 213h-12l-83 -213
l55 -1z" />
    <glyph glyph-name="ahookabove" unicode="&#x1ea3;" horiz-adv-x="488" 
d="M229 691c-21 0 -49 -10 -70 -26l-29 47c34 37 81 60 127 60c56 0 100 -34 100 -87c0 -29 -14 -50 -61 -92l27 -43l-64 -39l-54 80c34 24 54 55 54 76c0 17 -13 24 -30 24zM472 476l-47 -360l-4 -109l-177 -11l15 110h-16c-21 -42 -44 -81 -75 -117h-23
c-110 27 -137 87 -137 168c0 121 73 265 240 321h7l97 -17l109 23zM193 152c21 0 50 51 93 157l3 22l-68 17c-34 0 -49 -40 -49 -117c0 -57 8 -79 21 -79z" />
    <glyph glyph-name="Acircumflexacute" unicode="&#x1ea4;" horiz-adv-x="626" 
d="M517 849l-63 46l70 149l12 7l97 -41l5 -13l-110 -148h-11zM242 701l-25 76c58 39 111 77 158 118h34c43 -41 92 -79 147 -118l-42 -76h-18c-37 20 -71 40 -108 60c-41 -20 -87 -40 -128 -60h-18zM491 647l97 -647h-202l-4 107v4l-101 2l-81 -4l-31 -109h-195l276 647h241
zM369 256l-18 213h-12l-83 -213l55 -1z" />
    <glyph glyph-name="acircumflexacute" unicode="&#x1ea5;" horiz-adv-x="488" 
d="M418 674l-63 46l70 149l12 7l97 -41l5 -13l-110 -148h-11zM143 526l-25 76c58 39 111 77 158 118h34c43 -41 92 -79 147 -118l-42 -76h-18c-37 20 -71 40 -108 60c-41 -20 -87 -40 -128 -60h-18zM461 484l11 -8l-47 -360l-4 -109l-177 -11l15 110h-16
c-21 -42 -44 -81 -75 -117h-23c-110 27 -137 87 -137 168c0 121 73 265 240 321h7l97 -17zM193 152c21 0 50 51 93 157l3 22l-68 17c-34 0 -49 -40 -49 -117c0 -57 8 -79 21 -79z" />
    <glyph glyph-name="Acircumflexgrave" unicode="&#x1ea6;" horiz-adv-x="626" 
d="M496 849l-110 148l5 13l98 41l11 -7l70 -149l-63 -46h-11zM235 700l-25 76c58 39 111 77 158 118h34c43 -41 92 -79 148 -118l-43 -76h-18c-37 20 -71 40 -108 60c-41 -20 -87 -40 -128 -60h-18zM588 0h-202l-4 107v4l-101 2l-81 -4l-31 -109h-195l276 647h241zM369 256
l-18 213h-12l-83 -213l55 -1z" />
    <glyph glyph-name="acircumflexgrave" unicode="&#x1ea7;" horiz-adv-x="488" 
d="M397 674l-110 148l5 13l98 41l11 -7l70 -149l-63 -46h-11zM136 525l-25 76c58 39 111 77 158 118h34c43 -41 92 -79 148 -118l-43 -76h-18c-37 20 -71 40 -108 60c-41 -20 -87 -40 -128 -60h-18zM472 476l-47 -360l-4 -109l-177 -11l15 110h-16c-21 -42 -44 -81 -75 -117
h-23c-110 27 -137 87 -137 168c0 121 73 265 240 321h7l97 -17l109 23zM193 152c21 0 50 51 93 157l3 22l-68 17c-34 0 -49 -40 -49 -117c0 -57 8 -79 21 -79z" />
    <glyph glyph-name="Acircumflexhookabove" unicode="&#x1ea8;" horiz-adv-x="626" 
d="M462 1022c-20 0 -47 -10 -67 -25l-27 45c32 35 77 58 121 58c53 0 95 -33 95 -84c0 -27 -14 -47 -58 -87l25 -41l-61 -37l-51 76c32 22 51 52 51 72c0 16 -12 23 -28 23zM236 701l-25 76c58 39 111 77 158 118h34c43 -41 92 -79 148 -118l-43 -76h-18
c-37 20 -71 40 -108 60c-41 -20 -87 -40 -128 -60h-18zM588 0h-202l-4 107v4l-101 2l-81 -4l-31 -109h-195l276 647h241zM369 256l-18 213h-12l-83 -213l55 -1z" />
    <glyph glyph-name="acircumflexhookabove" unicode="&#x1ea9;" horiz-adv-x="488" 
d="M363 847c-20 0 -47 -10 -67 -25l-27 45c32 35 77 58 121 58c53 0 95 -33 95 -84c0 -27 -14 -47 -58 -87l25 -41l-61 -37l-51 76c32 22 51 52 51 72c0 16 -12 23 -28 23zM137 526l-25 76c58 39 111 77 158 118h34c43 -41 92 -79 148 -118l-43 -76h-18
c-37 20 -71 40 -108 60c-41 -20 -87 -40 -128 -60h-18zM461 484l11 -8l-47 -360l-4 -109l-177 -11l15 110h-16c-21 -42 -44 -81 -75 -117h-23c-110 27 -137 87 -137 168c0 121 73 265 240 321h7l97 -17zM193 152c21 0 50 51 93 157l3 22l-68 17c-34 0 -49 -40 -49 -117
c0 -57 8 -79 21 -79z" />
    <glyph glyph-name="Acircumflextilde" unicode="&#x1eaa;" horiz-adv-x="626" 
d="M596 1030v-15l-73 -102l-15 -5c-47 6 -115 31 -139 31s-42 -27 -63 -53h-14l-52 49v15l74 102l14 6c47 -7 116 -31 139 -31c24 0 42 26 63 53h15zM389 762c-41 -20 -87 -40 -128 -60h-18l-25 76c58 39 111 77 158 118h34c43 -41 92 -79 147 -118l-42 -76h-18
c-37 20 -71 40 -108 60zM491 647l97 -647h-202l-4 107v4l-101 2l-81 -4l-31 -109h-195l276 647h241zM369 256l-18 213h-12l-83 -213l55 -1z" />
    <glyph glyph-name="acircumflextilde" unicode="&#x1eab;" horiz-adv-x="488" 
d="M497 855v-15l-73 -102l-15 -5c-47 6 -115 31 -139 31s-42 -27 -63 -53h-14l-52 49v15l74 102l14 6c47 -7 116 -31 139 -31c24 0 42 26 63 53h15zM290 587c-41 -20 -87 -40 -128 -60h-18l-25 76c58 39 111 77 158 118h34c43 -41 92 -79 147 -118l-42 -76h-18
c-37 20 -71 40 -108 60zM461 484l11 -8l-47 -360l-4 -109l-177 -11l15 110h-16c-21 -42 -44 -81 -75 -117h-23c-110 27 -137 87 -137 168c0 121 73 265 240 321h7l97 -17zM193 152c21 0 50 51 93 157l3 22l-68 17c-34 0 -49 -40 -49 -117c0 -57 8 -79 21 -79z" />
    <glyph glyph-name="Acircumflexdotbelow" unicode="&#x1eac;" horiz-adv-x="626" 
d="M241 720l-25 76c58 39 111 77 158 118h34c43 -41 92 -79 148 -118l-43 -76h-18c-37 20 -71 40 -108 60c-41 -20 -87 -40 -128 -60h-18zM588 0h-202l-4 107v4l-101 2l-81 -4l-31 -109h-195l276 647h241zM369 256l-18 213h-12l-83 -213l55 -1zM280 -35c59 0 93 -35 93 -95
c0 -64 -39 -103 -101 -103c-61 0 -93 34 -93 94c0 64 38 104 101 104z" />
    <glyph glyph-name="acircumflexdotbelow" unicode="&#x1ead;" horiz-adv-x="488" 
d="M145 530l-38 72c54 41 115 94 178 149h34c41 -47 96 -101 147 -149l-56 -72h-18c-40 28 -79 56 -105 78c-31 -22 -77 -50 -124 -78h-18zM472 476l-47 -360l-4 -109l-177 -11l15 110h-16c-21 -42 -44 -81 -75 -117h-23c-110 27 -137 87 -137 168c0 121 73 265 240 321h7
l97 -17l109 23zM193 152c21 0 50 51 93 157l3 22l-68 17c-34 0 -49 -40 -49 -117c0 -57 8 -79 21 -79zM233 -35c59 0 93 -35 93 -95c0 -64 -39 -103 -101 -103c-61 0 -93 34 -93 94c0 64 38 104 101 104z" />
    <glyph glyph-name="Abreveacute" unicode="&#x1eae;" horiz-adv-x="626" 
d="M385 861l-58 44c33 48 66 96 97 146l13 4l89 -57l2 -14c-41 -41 -84 -81 -128 -119zM383 696c-87 0 -149 44 -172 124l48 59h27c19 -34 61 -50 107 -50c49 0 90 18 114 50h27l32 -59c-37 -80 -97 -124 -183 -124zM588 0h-202l-4 107v4l-101 2l-81 -4l-31 -109h-195
l276 647h241zM369 256l-18 213h-12l-83 -213l55 -1z" />
    <glyph glyph-name="abreveacute" unicode="&#x1eaf;" horiz-adv-x="488" 
d="M286 686l-58 44c33 48 66 96 97 146l13 4l89 -57l2 -14c-41 -41 -84 -81 -128 -119zM284 521c-87 0 -149 44 -172 124l48 59h27c19 -34 61 -50 107 -50c49 0 90 18 114 50h27l32 -59c-37 -80 -97 -124 -183 -124zM472 476l-47 -360l-4 -109l-177 -11l15 110h-16
c-21 -42 -44 -81 -75 -117h-23c-110 27 -137 87 -137 168c0 121 73 265 240 321h7l97 -17l109 23zM193 152c21 0 50 51 93 157l3 22l-68 17c-34 0 -49 -40 -49 -117c0 -57 8 -79 21 -79z" />
    <glyph glyph-name="Abrevegrave" unicode="&#x1eb0;" horiz-adv-x="626" 
d="M397 861l-15 4c-44 38 -87 78 -129 119l3 14l89 57l13 -4c31 -50 64 -98 97 -146zM383 696c-87 0 -149 44 -172 124l48 59h27c19 -34 61 -50 107 -50c49 0 90 18 114 50h27l32 -59c-37 -80 -97 -124 -183 -124zM588 0h-202l-4 107v4l-101 2l-81 -4l-31 -109h-195l276 647
h241zM369 256l-18 213h-12l-83 -213l55 -1z" />
    <glyph glyph-name="abrevegrave" unicode="&#x1eb1;" horiz-adv-x="488" 
d="M298 686l-15 4c-44 38 -87 78 -129 119l3 14l89 57l13 -4c31 -50 64 -98 97 -146zM284 521c-87 0 -149 44 -172 124l48 59h27c19 -34 61 -50 107 -50c49 0 90 18 114 50h27l32 -59c-37 -80 -97 -124 -183 -124zM472 476l-47 -360l-4 -109l-177 -11l15 110h-16
c-21 -42 -44 -81 -75 -117h-23c-110 27 -137 87 -137 168c0 121 73 265 240 321h7l97 -17l109 23zM193 152c21 0 50 51 93 157l3 22l-68 17c-34 0 -49 -40 -49 -117c0 -57 8 -79 21 -79z" />
    <glyph glyph-name="Abrevehookabove" unicode="&#x1eb2;" horiz-adv-x="626" 
d="M353 1033c-21 0 -49 -10 -70 -26l-29 47c34 37 81 61 127 61c56 0 100 -35 100 -88c0 -29 -14 -50 -61 -92l27 -43l-64 -38l-54 79c34 24 54 55 54 76c0 17 -13 24 -30 24zM383 696c-87 0 -149 44 -172 124l48 59h27c19 -34 61 -50 107 -50c49 0 90 18 114 50h27l32 -59
c-37 -80 -97 -124 -183 -124zM588 0h-202l-4 107v4l-101 2l-81 -4l-31 -109h-195l276 647h241zM369 256l-18 213h-12l-83 -213l55 -1z" />
    <glyph glyph-name="abrevehookabove" unicode="&#x1eb3;" horiz-adv-x="488" 
d="M254 858c-21 0 -49 -10 -70 -26l-29 47c34 37 81 61 127 61c56 0 100 -35 100 -88c0 -29 -14 -50 -61 -92l27 -43l-64 -38l-54 79c34 24 54 55 54 76c0 17 -13 24 -30 24zM284 521c-87 0 -149 44 -172 124l48 59h27c19 -34 61 -50 107 -50c49 0 90 18 114 50h27l32 -59
c-37 -80 -97 -124 -183 -124zM472 476l-47 -360l-4 -109l-177 -11l15 110h-16c-21 -42 -44 -81 -75 -117h-23c-110 27 -137 87 -137 168c0 121 73 265 240 321h7l97 -17l109 23zM193 152c21 0 50 51 93 157l3 22l-68 17c-34 0 -49 -40 -49 -117c0 -57 8 -79 21 -79z" />
    <glyph glyph-name="Abrevetilde" unicode="&#x1eb4;" horiz-adv-x="626" 
d="M598 1035v-15l-73 -103l-15 -5c-47 6 -115 32 -139 32s-42 -27 -63 -53h-14l-52 49v15l74 102l14 6c47 -7 116 -31 139 -31c24 0 42 26 63 53h15zM383 695c-80 0 -138 41 -160 115l45 55h25c18 -31 57 -46 100 -46c45 0 83 16 106 46h25l30 -55
c-35 -74 -91 -115 -171 -115zM491 647l97 -647h-202l-4 107v4l-101 2l-81 -4l-31 -109h-195l276 647h241zM369 256l-18 213h-12l-83 -213l55 -1z" />
    <glyph glyph-name="abrevetilde" unicode="&#x1eb5;" horiz-adv-x="488" 
d="M499 860v-15l-73 -103l-15 -5c-47 6 -115 32 -139 32s-42 -27 -63 -53h-14l-52 49v15l74 102l14 6c47 -7 116 -31 139 -31c24 0 42 26 63 53h15zM425 690l30 -55c-35 -74 -91 -115 -171 -115s-138 41 -160 115l45 55h25c18 -31 57 -46 100 -46c45 0 83 16 106 46h25z
M461 484l11 -8l-47 -360l-4 -109l-177 -11l15 110h-16c-21 -42 -44 -81 -75 -117h-23c-110 27 -137 87 -137 168c0 121 73 265 240 321h7l97 -17zM193 152c21 0 50 51 93 157l3 22l-68 17c-34 0 -49 -40 -49 -117c0 -57 8 -79 21 -79z" />
    <glyph glyph-name="Abrevedotbelow" unicode="&#x1eb6;" horiz-adv-x="626" 
d="M379 716c-87 0 -149 44 -172 124l48 59h27c19 -34 61 -50 107 -50c49 0 90 18 114 50h27l32 -59c-37 -80 -97 -124 -183 -124zM588 0h-202l-4 107v4l-101 2l-81 -4l-31 -109h-195l276 647h241zM369 256l-18 213h-12l-83 -213l55 -1zM280 -35c59 0 93 -35 93 -95
c0 -64 -39 -103 -101 -103c-61 0 -93 34 -93 94c0 64 38 104 101 104z" />
    <glyph glyph-name="abrevedotbelow" unicode="&#x1eb7;" horiz-adv-x="488" 
d="M274 535c-109 0 -154 72 -166 136l47 61h27c16 -40 56 -63 104 -63c49 0 94 23 118 63h27l31 -61c-27 -68 -89 -136 -188 -136zM472 476l-47 -360l-4 -109l-177 -11l15 110h-16c-21 -42 -44 -81 -75 -117h-23c-110 27 -137 87 -137 168c0 121 73 265 240 321h7l97 -17
l109 23zM193 152c21 0 50 51 93 157l3 22l-68 17c-34 0 -49 -40 -49 -117c0 -57 8 -79 21 -79zM233 -35c59 0 93 -35 93 -95c0 -64 -39 -103 -101 -103c-61 0 -93 34 -93 94c0 64 38 104 101 104z" />
    <glyph glyph-name="Edotbelow" unicode="&#x1eb8;" horiz-adv-x="540" 
d="M291 494l-13 -92h99l105 3l9 -14l-30 -146l-115 3h-91l-6 -38l-5 -57h97l167 6l9 -14l-30 -145h-456l33 190l47 457h464l8 -14l-30 -145l-158 6h-104zM286 -35c59 0 93 -35 93 -95c0 -64 -39 -103 -101 -103c-61 0 -93 34 -93 94c0 64 38 104 101 104z" />
    <glyph glyph-name="edotbelow" unicode="&#x1eb9;" horiz-adv-x="436" 
d="M347 184l57 -72c-53 -64 -120 -104 -187 -123h-16c-136 15 -189 83 -189 194c0 174 104 291 275 301l15 -2c73 -14 122 -55 122 -128c0 -79 -65 -132 -243 -176c6 -40 22 -54 52 -54c34 0 63 20 92 63zM241 371c-37 0 -57 -29 -62 -95c62 13 89 30 89 67
c0 20 -8 28 -27 28zM202 -35c59 0 93 -35 93 -95c0 -64 -39 -103 -101 -103c-61 0 -93 34 -93 94c0 64 38 104 101 104z" />
    <glyph glyph-name="Ehookabove" unicode="&#x1eba;" horiz-adv-x="540" 
d="M300 866c-21 0 -49 -10 -70 -26l-29 47c34 37 81 60 127 60c56 0 100 -34 100 -87c0 -29 -14 -50 -61 -92l27 -43l-64 -39l-54 80c34 24 54 55 54 76c0 17 -13 24 -30 24zM291 494l-13 -92h99l105 3l9 -14l-30 -146l-115 3h-91l-6 -38l-5 -57h97l167 6l9 -14l-30 -145
h-456l33 190l47 457h464l8 -14l-30 -145l-158 6h-104z" />
    <glyph glyph-name="ehookabove" unicode="&#x1ebb;" horiz-adv-x="436" 
d="M205 691c-21 0 -49 -10 -70 -26l-29 47c34 37 81 60 127 60c56 0 100 -34 100 -87c0 -29 -14 -50 -61 -92l27 -43l-64 -39l-54 80c34 24 54 55 54 76c0 17 -13 24 -30 24zM347 184l57 -72c-53 -64 -120 -104 -187 -123h-16c-136 15 -189 83 -189 194
c0 174 104 291 275 301l15 -2c73 -14 122 -55 122 -128c0 -79 -65 -132 -243 -176c6 -40 22 -54 52 -54c34 0 63 20 92 63zM241 371c-37 0 -57 -29 -62 -95c62 13 89 30 89 67c0 20 -8 28 -27 28z" />
    <glyph glyph-name="Ecircumflexacute" unicode="&#x1ebe;" horiz-adv-x="540" 
d="M489 849l-63 46l70 149l12 7l97 -41l5 -13l-110 -148h-11zM214 701l-25 76c58 39 111 77 158 118h34c43 -41 92 -79 147 -118l-42 -76h-18c-37 20 -71 40 -108 60c-41 -20 -87 -40 -128 -60h-18zM575 647l8 -14l-30 -145l-158 6h-104l-13 -92h99l105 3l9 -14l-30 -146
l-115 3h-91l-6 -38l-5 -57h97l167 6l9 -14l-30 -145h-456l33 190l47 457h464z" />
    <glyph glyph-name="ecircumflexacute" unicode="&#x1ebf;" horiz-adv-x="436" 
d="M394 674l-63 46l70 149l12 7l97 -41l5 -13l-110 -148h-11zM252 720h34c43 -41 92 -79 147 -118l-42 -76h-18c-37 20 -71 40 -108 60c-41 -20 -87 -40 -128 -60h-18l-25 76c58 39 111 77 158 118zM424 354c0 -79 -65 -132 -243 -176c6 -40 22 -54 52 -54c34 0 63 20 92 63
l22 -3l57 -72c-53 -64 -120 -104 -187 -123h-16c-136 15 -189 83 -189 194c0 174 104 291 275 301l15 -2c73 -14 122 -55 122 -128zM179 276c62 13 89 30 89 67c0 20 -8 28 -27 28c-37 0 -57 -29 -62 -95z" />
    <glyph glyph-name="Ecircumflexgrave" unicode="&#x1ec0;" horiz-adv-x="540" 
d="M468 849l-110 148l5 13l98 41l11 -7l70 -149l-63 -46h-11zM207 700l-25 76c58 39 111 77 158 118h34c43 -41 92 -79 148 -118l-43 -76h-18c-37 20 -71 40 -108 60c-41 -20 -87 -40 -128 -60h-18zM291 494l-13 -92h99l105 3l9 -14l-30 -146l-115 3h-91l-6 -38l-5 -57h97
l167 6l9 -14l-30 -145h-456l33 190l47 457h464l8 -14l-30 -145l-158 6h-104z" />
    <glyph glyph-name="ecircumflexgrave" unicode="&#x1ec1;" horiz-adv-x="436" 
d="M373 674l-110 148l5 13l98 41l11 -7l70 -149l-63 -46h-11zM245 719h34c43 -41 92 -79 148 -118l-43 -76h-18c-37 20 -71 40 -108 60c-41 -20 -87 -40 -128 -60h-18l-25 76c58 39 111 77 158 118zM424 354c0 -79 -65 -132 -243 -176c6 -40 22 -54 52 -54c34 0 63 20 92 63
l22 -3l57 -72c-53 -64 -120 -104 -187 -123h-16c-136 15 -189 83 -189 194c0 174 104 291 275 301l15 -2c73 -14 122 -55 122 -128zM179 276c62 13 89 30 89 67c0 20 -8 28 -27 28c-37 0 -57 -29 -62 -95z" />
    <glyph glyph-name="Ecircumflexhookabove" unicode="&#x1ec2;" horiz-adv-x="540" 
d="M434 1022c-20 0 -47 -10 -67 -25l-27 45c32 35 77 58 121 58c53 0 95 -33 95 -84c0 -27 -14 -47 -58 -87l25 -41l-61 -37l-51 76c32 22 51 52 51 72c0 16 -12 23 -28 23zM208 701l-25 76c58 39 111 77 158 118h34c43 -41 92 -79 148 -118l-43 -76h-18
c-37 20 -71 40 -108 60c-41 -20 -87 -40 -128 -60h-18zM291 494l-13 -92h99l105 3l9 -14l-30 -146l-115 3h-91l-6 -38l-5 -57h97l167 6l9 -14l-30 -145h-456l33 190l47 457h464l8 -14l-30 -145l-158 6h-104z" />
    <glyph glyph-name="ecircumflexhookabove" unicode="&#x1ec3;" horiz-adv-x="436" 
d="M461 841c0 -27 -14 -47 -58 -87l25 -41l-61 -37l-51 76c32 22 51 52 51 72c0 16 -12 23 -28 23c-20 0 -47 -10 -67 -25l-27 45c32 35 77 58 121 58c53 0 95 -33 95 -84zM246 720h34c43 -41 92 -79 148 -118l-43 -76h-18c-37 20 -71 40 -108 60c-41 -20 -87 -40 -128 -60
h-18l-25 76c58 39 111 77 158 118zM424 354c0 -79 -65 -132 -243 -176c6 -40 22 -54 52 -54c34 0 63 20 92 63l22 -3l57 -72c-53 -64 -120 -104 -187 -123h-16c-136 15 -189 83 -189 194c0 174 104 291 275 301l15 -2c73 -14 122 -55 122 -128zM179 276c62 13 89 30 89 67
c0 20 -8 28 -27 28c-37 0 -57 -29 -62 -95z" />
    <glyph glyph-name="Ecircumflextilde" unicode="&#x1ec4;" horiz-adv-x="540" 
d="M468 849l-110 148l5 13l98 41l11 -7l70 -149l-63 -46h-11zM207 700l-25 76c58 39 111 77 158 118h34c43 -41 92 -79 148 -118l-43 -76h-18c-37 20 -71 40 -108 60c-41 -20 -87 -40 -128 -60h-18zM291 494l-13 -92h99l105 3l9 -14l-30 -146l-115 3h-91l-6 -38l-5 -57h97
l167 6l9 -14l-30 -145h-456l33 190l47 457h464l8 -14l-30 -145l-158 6h-104z" />
    <glyph glyph-name="ecircumflextilde" unicode="&#x1ec5;" horiz-adv-x="436" 
d="M473 855v-15l-73 -102l-15 -5c-47 6 -115 31 -139 31s-42 -27 -63 -53h-14l-52 49v15l74 102l14 6c47 -7 116 -31 139 -31c24 0 42 26 63 53h15zM253 721h34c43 -41 92 -79 147 -118l-42 -76h-18c-37 20 -71 40 -108 60c-41 -20 -87 -40 -128 -60h-18l-25 76
c58 39 111 77 158 118zM424 354c0 -79 -65 -132 -243 -176c6 -40 22 -54 52 -54c34 0 63 20 92 63l22 -3l57 -72c-53 -64 -120 -104 -187 -123h-16c-136 15 -189 83 -189 194c0 174 104 291 275 301l15 -2c73 -14 122 -55 122 -128zM179 276c62 13 89 30 89 67
c0 20 -8 28 -27 28c-37 0 -57 -29 -62 -95z" />
    <glyph glyph-name="Ecircumflexdotbelow" unicode="&#x1ec6;" horiz-adv-x="540" 
d="M213 720l-25 76c58 39 111 77 158 118h34c43 -41 92 -79 148 -118l-43 -76h-18c-37 20 -71 40 -108 60c-41 -20 -87 -40 -128 -60h-18zM291 494l-13 -92h99l105 3l9 -14l-30 -146l-115 3h-91l-6 -38l-5 -57h97l167 6l9 -14l-30 -145h-456l33 190l47 457h464l8 -14
l-30 -145l-158 6h-104zM286 -35c59 0 93 -35 93 -95c0 -64 -39 -103 -101 -103c-61 0 -93 34 -93 94c0 64 38 104 101 104z" />
    <glyph glyph-name="ecircumflexdotbelow" unicode="&#x1ec7;" horiz-adv-x="436" 
d="M121 530l-38 72c54 41 115 94 178 149h34c41 -47 96 -101 147 -149l-56 -72h-18c-40 28 -79 56 -105 78c-31 -22 -77 -50 -124 -78h-18zM424 354c0 -79 -65 -132 -243 -176c6 -40 22 -54 52 -54c34 0 63 20 92 63l22 -3l57 -72c-53 -64 -120 -104 -187 -123h-16
c-136 15 -189 83 -189 194c0 174 104 291 275 301l15 -2c73 -14 122 -55 122 -128zM179 276c62 13 89 30 89 67c0 20 -8 28 -27 28c-37 0 -57 -29 -62 -95zM202 -35c59 0 93 -35 93 -95c0 -64 -39 -103 -101 -103c-61 0 -93 34 -93 94c0 64 38 104 101 104z" />
    <glyph glyph-name="Ihookabove" unicode="&#x1ec8;" horiz-adv-x="327" 
d="M202 947c56 0 100 -34 100 -87c0 -29 -14 -50 -61 -92l27 -43l-64 -39l-54 80c34 24 54 55 54 76c0 17 -13 24 -30 24c-21 0 -49 -10 -70 -26l-29 47c34 37 81 60 127 60zM249 210l-18 -210h-200l34 190l46 457h203z" />
    <glyph glyph-name="ihookabove" unicode="&#x1ec9;" horiz-adv-x="259" 
d="M147 772c56 0 100 -34 100 -87c0 -29 -14 -50 -61 -92l27 -43l-64 -39l-54 80c34 24 54 55 54 76c0 17 -13 24 -30 24c-21 0 -49 -10 -70 -26l-29 47c34 37 81 60 127 60zM197 116l-5 -109l-177 -11l47 356l4 113l177 11z" />
    <glyph glyph-name="Idotbelow" unicode="&#x1eca;" horiz-adv-x="327" 
d="M249 210l-18 -210h-200l34 190l46 457h203zM125 -35c59 0 93 -35 93 -95c0 -64 -39 -103 -101 -103c-61 0 -93 34 -93 94c0 64 38 104 101 104z" />
    <glyph glyph-name="idotbelow" unicode="&#x1ecb;" horiz-adv-x="259" 
d="M180 730c59 0 92 -34 92 -94c0 -64 -38 -104 -100 -104c-61 0 -94 34 -94 95c0 64 39 103 102 103zM197 116l-5 -109l-177 -11l47 356l4 113l177 11zM97 -35c59 0 93 -35 93 -95c0 -64 -39 -103 -101 -103c-61 0 -93 34 -93 94c0 64 38 104 101 104z" />
    <glyph glyph-name="Odotbelow" unicode="&#x1ecc;" horiz-adv-x="658" 
d="M380 659c169 0 274 -88 274 -285c0 -222 -126 -386 -355 -386c-170 0 -275 90 -275 288c0 222 126 383 356 383zM357 500c-71 0 -124 -35 -124 -227c0 -102 15 -138 87 -138c70 0 124 35 124 227c0 102 -16 138 -87 138zM315 -35c59 0 93 -35 93 -95
c0 -64 -39 -103 -101 -103c-61 0 -93 34 -93 94c0 64 38 104 101 104z" />
    <glyph glyph-name="odotbelow" unicode="&#x1ecd;" horiz-adv-x="468" 
d="M289 484l16 -2c90 -20 151 -78 151 -181c0 -192 -107 -304 -278 -313l-16 2c-92 21 -150 82 -150 193c0 178 107 291 277 301zM255 348c-65 0 -73 -48 -73 -169c0 -45 7 -59 31 -59c63 0 71 48 71 170c0 44 -6 58 -29 58zM196 -35c59 0 93 -35 93 -95
c0 -64 -39 -103 -101 -103c-61 0 -93 34 -93 94c0 64 38 104 101 104z" />
    <glyph glyph-name="Ohookabove" unicode="&#x1ece;" horiz-adv-x="658" 
d="M370 947c56 0 100 -34 100 -87c0 -29 -14 -50 -61 -92l27 -43l-64 -39l-54 80c34 24 54 55 54 76c0 17 -13 24 -30 24c-21 0 -49 -10 -70 -26l-29 47c34 37 81 60 127 60zM380 659c169 0 274 -88 274 -285c0 -222 -126 -386 -355 -386c-170 0 -275 90 -275 288
c0 222 126 383 356 383zM357 500c-71 0 -124 -35 -124 -227c0 -102 15 -138 87 -138c70 0 124 35 124 227c0 102 -16 138 -87 138z" />
    <glyph glyph-name="ohookabove" unicode="&#x1ecf;" horiz-adv-x="468" 
d="M258 772c56 0 100 -34 100 -87c0 -29 -14 -50 -61 -92l27 -43l-64 -39l-54 80c34 24 54 55 54 76c0 17 -13 24 -30 24c-21 0 -49 -10 -70 -26l-29 47c34 37 81 60 127 60zM289 484l16 -2c90 -20 151 -78 151 -181c0 -192 -107 -304 -278 -313l-16 2
c-92 21 -150 82 -150 193c0 178 107 291 277 301zM255 348c-65 0 -73 -48 -73 -169c0 -45 7 -59 31 -59c63 0 71 48 71 170c0 44 -6 58 -29 58z" />
    <glyph glyph-name="Ocircumflexacute" unicode="&#x1ed0;" horiz-adv-x="658" 
d="M647 1010l5 -13l-110 -148h-11l-63 46l70 149l12 7zM389 895h34c43 -41 92 -79 147 -118l-42 -76h-18c-37 20 -71 40 -108 60c-41 -20 -87 -40 -128 -60h-18l-25 76c58 39 111 77 158 118zM380 659c169 0 274 -88 274 -285c0 -222 -126 -386 -355 -386
c-170 0 -275 90 -275 288c0 222 126 383 356 383zM357 500c-71 0 -124 -35 -124 -227c0 -102 15 -138 87 -138c70 0 124 35 124 227c0 102 -16 138 -87 138z" />
    <glyph glyph-name="ocircumflexacute" unicode="&#x1ed1;" horiz-adv-x="468" 
d="M535 835l5 -13l-110 -148h-11l-63 46l70 149l12 7zM277 720h34c43 -41 92 -79 147 -118l-42 -76h-18c-37 20 -71 40 -108 60c-41 -20 -87 -40 -128 -60h-18l-25 76c58 39 111 77 158 118zM289 484l16 -2c90 -20 151 -78 151 -181c0 -192 -107 -304 -278 -313l-16 2
c-92 21 -150 82 -150 193c0 178 107 291 277 301zM255 348c-65 0 -73 -48 -73 -169c0 -45 7 -59 31 -59c63 0 71 48 71 170c0 44 -6 58 -29 58z" />
    <glyph glyph-name="Ocircumflexgrave" unicode="&#x1ed2;" horiz-adv-x="658" 
d="M514 1044l70 -149l-63 -46h-11l-110 148l5 13l98 41zM382 894h34c43 -41 92 -79 148 -118l-43 -76h-18c-37 20 -71 40 -108 60c-41 -20 -87 -40 -128 -60h-18l-25 76c58 39 111 77 158 118zM380 659c169 0 274 -88 274 -285c0 -222 -126 -386 -355 -386
c-170 0 -275 90 -275 288c0 222 126 383 356 383zM357 500c-71 0 -124 -35 -124 -227c0 -102 15 -138 87 -138c70 0 124 35 124 227c0 102 -16 138 -87 138z" />
    <glyph glyph-name="ocircumflexgrave" unicode="&#x1ed3;" horiz-adv-x="468" 
d="M402 869l70 -149l-63 -46h-11l-110 148l5 13l98 41zM270 719h34c43 -41 92 -79 148 -118l-43 -76h-18c-37 20 -71 40 -108 60c-41 -20 -87 -40 -128 -60h-18l-25 76c58 39 111 77 158 118zM289 484l16 -2c90 -20 151 -78 151 -181c0 -192 -107 -304 -278 -313l-16 2
c-92 21 -150 82 -150 193c0 178 107 291 277 301zM255 348c-65 0 -73 -48 -73 -169c0 -45 7 -59 31 -59c63 0 71 48 71 170c0 44 -6 58 -29 58z" />
    <glyph glyph-name="Ocircumflexhookabove" unicode="&#x1ed4;" horiz-adv-x="658" 
d="M503 1100c53 0 95 -33 95 -84c0 -27 -14 -47 -58 -87l25 -41l-61 -37l-51 76c32 22 51 52 51 72c0 16 -12 23 -28 23c-20 0 -47 -10 -67 -25l-27 45c32 35 77 58 121 58zM383 895h34c43 -41 92 -79 148 -118l-43 -76h-18c-37 20 -71 40 -108 60c-41 -20 -87 -40 -128 -60
h-18l-25 76c58 39 111 77 158 118zM380 659c169 0 274 -88 274 -285c0 -222 -126 -386 -355 -386c-170 0 -275 90 -275 288c0 222 126 383 356 383zM357 500c-71 0 -124 -35 -124 -227c0 -102 15 -138 87 -138c70 0 124 35 124 227c0 102 -16 138 -87 138z" />
    <glyph glyph-name="ocircumflexhookabove" unicode="&#x1ed5;" horiz-adv-x="468" 
d="M391 925c53 0 95 -33 95 -84c0 -27 -14 -47 -58 -87l25 -41l-61 -37l-51 76c32 22 51 52 51 72c0 16 -12 23 -28 23c-20 0 -47 -10 -67 -25l-27 45c32 35 77 58 121 58zM271 720h34c43 -41 92 -79 148 -118l-43 -76h-18c-37 20 -71 40 -108 60c-41 -20 -87 -40 -128 -60
h-18l-25 76c58 39 111 77 158 118zM289 484l16 -2c90 -20 151 -78 151 -181c0 -192 -107 -304 -278 -313l-16 2c-92 21 -150 82 -150 193c0 178 107 291 277 301zM255 348c-65 0 -73 -48 -73 -169c0 -45 7 -59 31 -59c63 0 71 48 71 170c0 44 -6 58 -29 58z" />
    <glyph glyph-name="Ocircumflextilde" unicode="&#x1ed6;" horiz-adv-x="658" 
d="M610 1030v-15l-73 -102l-15 -5c-47 6 -115 31 -139 31s-42 -27 -63 -53h-14l-52 49v15l74 102l14 6c47 -7 116 -31 139 -31c24 0 42 26 63 53h15zM390 896h34c43 -41 92 -79 147 -118l-42 -76h-18c-37 20 -71 40 -108 60c-41 -20 -87 -40 -128 -60h-18l-25 76
c58 39 111 77 158 118zM380 659c169 0 274 -88 274 -285c0 -222 -126 -386 -355 -386c-170 0 -275 90 -275 288c0 222 126 383 356 383zM357 500c-71 0 -124 -35 -124 -227c0 -102 15 -138 87 -138c70 0 124 35 124 227c0 102 -16 138 -87 138z" />
    <glyph glyph-name="ocircumflextilde" unicode="&#x1ed7;" horiz-adv-x="468" 
d="M498 855v-15l-73 -102l-15 -5c-47 6 -115 31 -139 31s-42 -27 -63 -53h-14l-52 49v15l74 102l14 6c47 -7 116 -31 139 -31c24 0 42 26 63 53h15zM278 721h34c43 -41 92 -79 147 -118l-42 -76h-18c-37 20 -71 40 -108 60c-41 -20 -87 -40 -128 -60h-18l-25 76
c58 39 111 77 158 118zM289 484l16 -2c90 -20 151 -78 151 -181c0 -192 -107 -304 -278 -313l-16 2c-92 21 -150 82 -150 193c0 178 107 291 277 301zM255 348c-65 0 -73 -48 -73 -169c0 -45 7 -59 31 -59c63 0 71 48 71 170c0 44 -6 58 -29 58z" />
    <glyph glyph-name="Ocircumflexdotbelow" unicode="&#x1ed8;" horiz-adv-x="658" 
d="M255 720l-25 76c58 39 111 77 158 118h34c43 -41 92 -79 148 -118l-43 -76h-18c-37 20 -71 40 -108 60c-41 -20 -87 -40 -128 -60h-18zM380 659c169 0 274 -88 274 -285c0 -222 -126 -386 -355 -386c-170 0 -275 90 -275 288c0 222 126 383 356 383zM357 500
c-71 0 -124 -35 -124 -227c0 -102 15 -138 87 -138c70 0 124 35 124 227c0 102 -16 138 -87 138zM315 -35c59 0 93 -35 93 -95c0 -64 -39 -103 -101 -103c-61 0 -93 34 -93 94c0 64 38 104 101 104z" />
    <glyph glyph-name="ocircumflexdotbelow" unicode="&#x1ed9;" horiz-adv-x="468" 
d="M147 530l-38 72c54 41 115 94 178 149h34c41 -47 96 -101 147 -149l-56 -72h-18c-40 28 -79 56 -105 78c-31 -22 -77 -50 -124 -78h-18zM289 484l16 -2c90 -20 151 -78 151 -181c0 -192 -107 -304 -278 -313l-16 2c-92 21 -150 82 -150 193c0 178 107 291 277 301z
M255 348c-65 0 -73 -48 -73 -169c0 -45 7 -59 31 -59c63 0 71 48 71 170c0 44 -6 58 -29 58zM196 -35c59 0 93 -35 93 -95c0 -64 -39 -103 -101 -103c-61 0 -93 34 -93 94c0 64 38 104 101 104z" />
    <glyph glyph-name="Ohornacute" unicode="&#x1eda;" horiz-adv-x="664" 
d="M499 913l49 -116l-6 -16c-86 -27 -161 -49 -238 -69l-17 4l-30 79c83 41 154 80 225 122zM681 789c44 0 73 -36 73 -89c0 -75 -59 -137 -138 -155c25 -45 37 -95 37 -164c0 -230 -132 -393 -355 -393c-174 0 -274 99 -274 289c0 233 149 382 349 382
c87 0 135 -28 177 -28c35 0 52 20 52 51c0 21 -8 42 -22 56l5 14c27 18 63 37 96 37zM356 500c-71 0 -123 -36 -123 -228c0 -96 13 -137 90 -137c68 0 122 34 122 229c0 94 -13 136 -89 136z" />
    <glyph glyph-name="ohornacute" unicode="&#x1edb;" horiz-adv-x="479" 
d="M157 522l-44 72c75 55 138 106 201 160l17 -1l69 -106l-3 -17c-81 -41 -151 -76 -223 -109zM561 526c0 -64 -66 -128 -122 -138c12 -24 19 -53 19 -87c0 -192 -107 -304 -279 -313l-16 2c-93 21 -151 82 -151 193c0 178 107 291 278 301l16 -2l3 -1l-2 1
c18 -3 57 -20 75 -20s28 17 28 39c0 23 -11 39 -29 55l3 14c31 27 64 44 95 44c45 0 82 -35 82 -88zM214 119c63 0 72 48 72 172c0 44 -7 58 -30 58c-65 0 -74 -48 -74 -171c0 -45 8 -59 32 -59z" />
    <glyph glyph-name="Ohorngrave" unicode="&#x1edc;" horiz-adv-x="664" 
d="M303 913l17 4c71 -42 142 -80 225 -122l-30 -79l-17 -4c-77 20 -152 42 -238 69l-6 16zM681 789c44 0 73 -36 73 -89c0 -75 -59 -137 -138 -155c25 -45 37 -95 37 -164c0 -230 -132 -393 -355 -393c-174 0 -274 99 -274 289c0 233 149 382 349 382c87 0 135 -28 177 -28
c35 0 52 20 52 51c0 21 -8 42 -22 56l5 14c27 18 63 37 96 37zM356 500c-71 0 -123 -36 -123 -228c0 -96 13 -137 90 -137c68 0 122 34 122 229c0 94 -13 136 -89 136z" />
    <glyph glyph-name="ohorngrave" unicode="&#x1edd;" horiz-adv-x="479" 
d="M337 522l-17 -1c-72 33 -142 68 -223 109l-3 17l69 106l17 1c63 -54 126 -105 201 -160zM561 526c0 -64 -66 -128 -122 -138c12 -24 19 -53 19 -87c0 -192 -107 -304 -279 -313l-16 2c-93 21 -151 82 -151 193c0 178 107 291 278 301l16 -2l3 -1l-2 1
c18 -3 57 -20 75 -20s28 17 28 39c0 23 -11 39 -29 55l3 14c31 27 64 44 95 44c45 0 82 -35 82 -88zM214 119c63 0 72 48 72 172c0 44 -7 58 -30 58c-65 0 -74 -48 -74 -171c0 -45 8 -59 32 -59z" />
    <glyph glyph-name="Ohornhookabove" unicode="&#x1ede;" horiz-adv-x="664" 
d="M370 947c56 0 100 -34 100 -87c0 -29 -14 -50 -61 -92l27 -43l-64 -39l-54 80c34 24 54 55 54 76c0 17 -13 24 -30 24c-21 0 -49 -10 -70 -26l-29 47c34 37 81 60 127 60zM681 789c44 0 73 -36 73 -89c0 -75 -59 -137 -138 -155c25 -45 37 -95 37 -164
c0 -230 -132 -393 -355 -393c-174 0 -274 99 -274 289c0 233 149 382 349 382c87 0 135 -28 177 -28c35 0 52 20 52 51c0 21 -8 42 -22 56l5 14c27 18 63 37 96 37zM356 500c-71 0 -123 -36 -123 -228c0 -96 13 -137 90 -137c68 0 122 34 122 229c0 94 -13 136 -89 136z" />
    <glyph glyph-name="ohornhookabove" unicode="&#x1edf;" horiz-adv-x="479" 
d="M199 691c-21 0 -49 -10 -70 -26l-29 47c34 37 81 60 127 60c56 0 100 -34 100 -87c0 -29 -14 -50 -61 -92l27 -43l-64 -39l-54 80c34 24 54 55 54 76c0 17 -13 24 -30 24zM561 526c0 -64 -66 -128 -122 -138c12 -24 19 -53 19 -87c0 -192 -107 -304 -279 -313l-16 2
c-93 21 -151 82 -151 193c0 178 107 291 278 301l16 -2l3 -1l-2 1c18 -3 57 -20 75 -20s28 17 28 39c0 23 -11 39 -29 55l3 14c31 27 64 44 95 44c45 0 82 -35 82 -88zM214 119c63 0 72 48 72 172c0 44 -7 58 -30 58c-65 0 -74 -48 -74 -171c0 -45 8 -59 32 -59z" />
    <glyph glyph-name="Ohorntilde" unicode="&#x1ee0;" horiz-adv-x="664" 
d="M595 861v-16l-81 -113l-16 -6c-52 7 -127 34 -153 34s-46 -29 -69 -58h-16l-57 55v16l81 112l16 6c52 -7 127 -34 153 -34s46 29 69 58h16zM681 789c44 0 73 -36 73 -89c0 -75 -59 -137 -138 -155c25 -45 37 -95 37 -164c0 -230 -132 -393 -355 -393
c-174 0 -274 99 -274 289c0 233 149 382 349 382c87 0 135 -28 177 -28c35 0 52 20 52 51c0 21 -8 42 -22 56l5 14c27 18 63 37 96 37zM356 500c-71 0 -123 -36 -123 -228c0 -96 13 -137 90 -137c68 0 122 34 122 229c0 94 -13 136 -89 136z" />
    <glyph glyph-name="ohorntilde" unicode="&#x1ee1;" horiz-adv-x="479" 
d="M141 526l-56 55v16l72 110l15 6c45 -7 102 -32 123 -32c25 0 42 28 60 56h16l56 -54v-16l-72 -111l-15 -6c-45 7 -102 32 -123 32c-25 0 -42 -28 -60 -56h-16zM561 526c0 -64 -66 -128 -122 -138c12 -24 19 -53 19 -87c0 -192 -107 -304 -279 -313l-16 2
c-93 21 -151 82 -151 193c0 178 107 291 278 301l16 -2l3 -1l-2 1c18 -3 57 -20 75 -20s28 17 28 39c0 23 -11 39 -29 55l3 14c31 27 64 44 95 44c45 0 82 -35 82 -88zM214 119c63 0 72 48 72 172c0 44 -7 58 -30 58c-65 0 -74 -48 -74 -171c0 -45 8 -59 32 -59z" />
    <glyph glyph-name="Ohorndotbelow" unicode="&#x1ee2;" horiz-adv-x="664" 
d="M681 789c44 0 73 -36 73 -89c0 -75 -59 -137 -138 -155c25 -45 37 -95 37 -164c0 -230 -132 -393 -355 -393c-174 0 -274 99 -274 289c0 233 149 382 349 382c87 0 135 -28 177 -28c35 0 52 20 52 51c0 21 -8 42 -22 56l5 14c27 18 63 37 96 37zM356 500
c-71 0 -123 -36 -123 -228c0 -96 13 -137 90 -137c68 0 122 34 122 229c0 94 -13 136 -89 136zM315 -35c59 0 93 -35 93 -95c0 -64 -39 -103 -101 -103c-61 0 -93 34 -93 94c0 64 38 104 101 104z" />
    <glyph glyph-name="ohorndotbelow" unicode="&#x1ee3;" horiz-adv-x="479" 
d="M561 526c0 -64 -66 -128 -122 -138c12 -24 19 -53 19 -87c0 -192 -107 -304 -279 -313l-16 2c-93 21 -151 82 -151 193c0 178 107 291 278 301l16 -2l3 -1l-2 1c18 -3 57 -20 75 -20s28 17 28 39c0 23 -11 39 -29 55l3 14c31 27 64 44 95 44c45 0 82 -35 82 -88zM214 119
c63 0 72 48 72 172c0 44 -7 58 -30 58c-65 0 -74 -48 -74 -171c0 -45 8 -59 32 -59zM196 -35c59 0 93 -35 93 -95c0 -64 -39 -103 -101 -103c-61 0 -93 34 -93 94c0 64 38 104 101 104z" />
    <glyph glyph-name="Udotbelow" unicode="&#x1ee4;" horiz-adv-x="653" 
d="M610 319l-13 -103c-19 -147 -120 -228 -300 -228c-157 0 -252 65 -252 185c0 13 1 28 3 43l15 103l34 328h200l-58 -404c-1 -10 -2 -19 -2 -27c0 -50 23 -71 76 -71c64 0 94 29 101 98l40 404h203zM288 -35c59 0 93 -35 93 -95c0 -64 -39 -103 -101 -103
c-61 0 -93 34 -93 94c0 64 38 104 101 104z" />
    <glyph glyph-name="udotbelow" unicode="&#x1ee5;" horiz-adv-x="514" 
d="M498 476l-47 -360l-4 -109l-177 -11l16 121h-13c-33 -45 -65 -83 -105 -120l-13 -1c-84 10 -137 52 -137 109l2 20l37 226l4 112l181 11l-42 -262l-1 -13c0 -16 6 -23 18 -23c17 0 47 29 89 95l11 81l4 113zM214 -35c59 0 93 -35 93 -95c0 -64 -39 -103 -101 -103
c-61 0 -93 34 -93 94c0 64 38 104 101 104z" />
    <glyph glyph-name="Uhookabove" unicode="&#x1ee6;" horiz-adv-x="653" 
d="M368 947c56 0 100 -34 100 -87c0 -29 -14 -50 -61 -92l27 -43l-64 -39l-54 80c34 24 54 55 54 76c0 17 -13 24 -30 24c-21 0 -49 -10 -70 -26l-29 47c34 37 81 60 127 60zM610 319l-13 -103c-19 -147 -120 -228 -300 -228c-157 0 -252 65 -252 185c0 13 1 28 3 43l15 103
l34 328h200l-58 -404c-1 -10 -2 -19 -2 -27c0 -50 23 -71 76 -71c64 0 94 29 101 98l40 404h203z" />
    <glyph glyph-name="uhookabove" unicode="&#x1ee7;" horiz-adv-x="514" 
d="M249 691c-21 0 -49 -10 -70 -26l-29 47c34 37 81 60 127 60c56 0 100 -34 100 -87c0 -29 -14 -50 -61 -92l27 -43l-64 -39l-54 80c34 24 54 55 54 76c0 17 -13 24 -30 24zM498 476l-47 -360l-4 -109l-177 -11l16 121h-13c-33 -45 -65 -83 -105 -120l-13 -1
c-84 10 -137 52 -137 109l2 20l37 226l4 112l181 11l-42 -262l-1 -13c0 -16 6 -23 18 -23c17 0 47 29 89 95l11 81l4 113z" />
    <glyph glyph-name="Uhornacute" unicode="&#x1ee8;" horiz-adv-x="669" 
d="M265 716l-30 79c83 41 154 80 225 122l17 -4l49 -116l-6 -16c-86 -27 -161 -49 -238 -69zM736 713c0 -52 -33 -99 -88 -129l-38 -265l-13 -103c-19 -147 -120 -228 -300 -228c-157 0 -252 65 -252 185c0 13 1 28 3 43l15 103l34 328h200l-58 -404c-1 -10 -2 -19 -2 -27
c0 -50 23 -71 76 -71c64 0 94 29 101 98l40 404h75c41 0 57 14 57 48c0 24 -11 44 -29 59l3 14c28 20 61 37 93 37c48 0 83 -38 83 -92z" />
    <glyph glyph-name="uhornacute" unicode="&#x1ee9;" horiz-adv-x="532" 
d="M181 522l-44 72c75 55 138 106 201 160l17 -1l69 -106l-3 -17c-81 -41 -151 -76 -223 -109zM592 543c0 -57 -47 -111 -104 -141l-37 -286l-4 -109l-177 -11l16 121h-13c-33 -45 -65 -83 -105 -120l-13 -1c-84 10 -137 52 -137 109l2 20l37 226l4 112l181 11l-42 -262
l-1 -13c0 -16 7 -23 17 -23c18 0 45 24 90 95l11 81l4 113l61 7c41 4 60 18 60 45c0 21 -11 40 -29 55l3 14c31 27 63 44 94 44c45 0 82 -35 82 -87z" />
    <glyph glyph-name="Uhorngrave" unicode="&#x1eea;" horiz-adv-x="669" 
d="M493 716l-17 -4c-77 20 -152 42 -238 69l-6 16l49 116l17 4c71 -42 142 -80 225 -122zM736 713c0 -52 -33 -99 -88 -129l-38 -265l-13 -103c-19 -147 -120 -228 -300 -228c-157 0 -252 65 -252 185c0 13 1 28 3 43l15 103l34 328h200l-58 -404c-1 -10 -2 -19 -2 -27
c0 -50 23 -71 76 -71c64 0 94 29 101 98l40 404h75c41 0 57 14 57 48c0 24 -11 44 -29 59l3 14c28 20 61 37 93 37c48 0 83 -38 83 -92z" />
    <glyph glyph-name="uhorngrave" unicode="&#x1eeb;" horiz-adv-x="532" 
d="M361 522l-17 -1c-72 33 -142 68 -223 109l-3 17l69 106l17 1c63 -54 126 -105 201 -160zM592 543c0 -57 -47 -111 -104 -141l-37 -286l-4 -109l-177 -11l16 121h-13c-33 -45 -65 -83 -105 -120l-13 -1c-84 10 -137 52 -137 109l2 20l37 226l4 112l181 11l-42 -262l-1 -13
c0 -16 7 -23 17 -23c18 0 45 24 90 95l11 81l4 113l61 7c41 4 60 18 60 45c0 21 -11 40 -29 55l3 14c31 27 63 44 94 44c45 0 82 -35 82 -87z" />
    <glyph glyph-name="Uhornhookabove" unicode="&#x1eec;" horiz-adv-x="669" 
d="M320 866c-21 0 -49 -10 -70 -26l-29 47c34 37 81 60 127 60c56 0 100 -34 100 -87c0 -29 -14 -50 -61 -92l27 -43l-64 -39l-54 80c34 24 54 55 54 76c0 17 -13 24 -30 24zM736 713c0 -52 -33 -99 -88 -129l-38 -265l-13 -103c-19 -147 -120 -228 -300 -228
c-157 0 -252 65 -252 185c0 13 1 28 3 43l15 103l34 328h200l-58 -404c-1 -10 -2 -19 -2 -27c0 -50 23 -71 76 -71c64 0 94 29 101 98l40 404h75c41 0 57 14 57 48c0 24 -11 44 -29 59l3 14c28 20 61 37 93 37c48 0 83 -38 83 -92z" />
    <glyph glyph-name="uhornhookabove" unicode="&#x1eed;" horiz-adv-x="532" 
d="M223 691c-21 0 -49 -10 -70 -26l-29 47c34 37 81 60 127 60c56 0 100 -34 100 -87c0 -29 -14 -50 -61 -92l27 -43l-64 -39l-54 80c34 24 54 55 54 76c0 17 -13 24 -30 24zM592 543c0 -57 -47 -111 -104 -141l-37 -286l-4 -109l-177 -11l16 121h-13
c-33 -45 -65 -83 -105 -120l-13 -1c-84 10 -137 52 -137 109l2 20l37 226l4 112l181 11l-42 -262l-1 -13c0 -16 7 -23 17 -23c18 0 45 24 90 95l11 81l4 113l61 7c41 4 60 18 60 45c0 21 -11 40 -29 55l3 14c31 27 63 44 94 44c45 0 82 -35 82 -87z" />
    <glyph glyph-name="Uhorntilde" unicode="&#x1eee;" horiz-adv-x="669" 
d="M238 702l-57 55v16l81 112l16 6c52 -7 127 -34 153 -34s46 29 69 58h16l57 -54v-16l-81 -113l-16 -6c-52 7 -127 34 -153 34s-46 -29 -69 -58h-16zM736 713c0 -52 -33 -99 -88 -129l-38 -265l-13 -103c-19 -147 -120 -228 -300 -228c-157 0 -252 65 -252 185
c0 13 1 28 3 43l15 103l34 328h200l-58 -404c-1 -10 -2 -19 -2 -27c0 -50 23 -71 76 -71c64 0 94 29 101 98l40 404h75c41 0 57 14 57 48c0 24 -11 44 -29 59l3 14c28 20 61 37 93 37c48 0 83 -38 83 -92z" />
    <glyph glyph-name="uhorntilde" unicode="&#x1eef;" horiz-adv-x="532" 
d="M165 526l-56 55v16l72 110l15 6c45 -7 102 -32 123 -32c25 0 42 28 60 56h16l56 -54v-16l-72 -111l-15 -6c-45 7 -102 32 -123 32c-25 0 -42 -28 -60 -56h-16zM592 543c0 -57 -47 -111 -104 -141l-37 -286l-4 -109l-177 -11l16 121h-13c-33 -45 -65 -83 -105 -120l-13 -1
c-84 10 -137 52 -137 109l2 20l37 226l4 112l181 11l-42 -262l-1 -13c0 -16 7 -23 17 -23c18 0 45 24 90 95l11 81l4 113l61 7c41 4 60 18 60 45c0 21 -11 40 -29 55l3 14c31 27 63 44 94 44c45 0 82 -35 82 -87z" />
    <glyph glyph-name="Uhorndotbelow" unicode="&#x1ef0;" horiz-adv-x="669" 
d="M736 713c0 -52 -33 -99 -88 -129l-38 -265l-13 -103c-19 -147 -120 -228 -300 -228c-157 0 -252 65 -252 185c0 13 1 28 3 43l15 103l34 328h200l-58 -404c-1 -10 -2 -19 -2 -27c0 -50 23 -71 76 -71c64 0 94 29 101 98l40 404h75c41 0 57 14 57 48c0 24 -11 44 -29 59
l3 14c28 20 61 37 93 37c48 0 83 -38 83 -92zM303 -35c59 0 93 -35 93 -95c0 -64 -39 -103 -101 -103c-61 0 -93 34 -93 94c0 64 38 104 101 104z" />
    <glyph glyph-name="uhorndotbelow" unicode="&#x1ef1;" horiz-adv-x="532" 
d="M592 543c0 -57 -47 -111 -104 -141l-37 -286l-4 -109l-177 -11l16 121h-13c-33 -45 -65 -83 -105 -120l-13 -1c-84 10 -137 52 -137 109l2 20l37 226l4 112l181 11l-42 -262l-1 -13c0 -16 7 -23 17 -23c18 0 45 24 90 95l11 81l4 113l61 7c41 4 60 18 60 45
c0 21 -11 40 -29 55l3 14c31 27 63 44 94 44c45 0 82 -35 82 -87zM214 -35c59 0 93 -35 93 -95c0 -64 -39 -103 -101 -103c-61 0 -93 34 -93 94c0 64 38 104 101 104z" />
    <glyph glyph-name="Ygrave" unicode="&#x1ef2;" horiz-adv-x="594" 
d="M484 716l-17 -4c-77 20 -152 42 -238 69l-6 16l49 116l17 4c71 -42 142 -80 225 -122zM379 204l-6 -34l-12 -170h-199l30 170l3 37l-152 440h208l9 -54l49 -196h12l109 189l30 61h204z" />
    <glyph glyph-name="ygrave" unicode="&#x1ef3;" horiz-adv-x="483" 
d="M371 522l-17 -1c-72 33 -142 68 -223 109l-3 17l69 106l17 1c63 -54 126 -105 201 -160zM312 459l163 20c9 -26 14 -52 14 -78c0 -48 -15 -96 -44 -154l-92 -181c-101 -200 -182 -264 -294 -264c-35 0 -71 6 -105 18l-9 144l15 16c31 -8 61 -13 90 -13c31 0 62 7 88 19
l-107 480l178 10l7 -91l27 -200h14l35 87c16 39 26 76 26 110c0 22 -5 42 -14 60z" />
    <glyph glyph-name="Ydotbelow" unicode="&#x1ef4;" horiz-adv-x="594" 
d="M379 204l-6 -34l-12 -170h-199l30 170l3 37l-152 440h208l9 -54l49 -196h12l109 189l30 61h204zM254 -35c59 0 93 -35 93 -95c0 -64 -39 -103 -101 -103c-61 0 -93 34 -93 94c0 64 38 104 101 104z" />
    <glyph glyph-name="ydotbelow" unicode="&#x1ef5;" horiz-adv-x="494" 
d="M444 247l-91 -181c-101 -200 -182 -264 -295 -264c-35 0 -71 6 -105 18l-8 144l14 16c31 -8 61 -13 90 -13c31 0 62 7 89 19l-107 480l178 10l7 -91l27 -200h14l35 87c16 39 25 76 25 110c0 22 -4 42 -13 60l8 17l162 20c9 -26 14 -52 14 -78c0 -48 -15 -96 -44 -154z
M385 -32c53 0 84 -32 84 -86c0 -58 -35 -94 -91 -94s-86 31 -86 86c0 58 36 94 93 94z" />
    <glyph glyph-name="Yhookabove" unicode="&#x1ef6;" horiz-adv-x="594" 
d="M311 866c-21 0 -49 -10 -70 -26l-29 47c34 37 81 60 127 60c56 0 100 -34 100 -87c0 -29 -14 -50 -61 -92l27 -43l-64 -39l-54 80c34 24 54 55 54 76c0 17 -13 24 -30 24zM379 204l-6 -34l-12 -170h-199l30 170l3 37l-152 440h208l9 -54l49 -196h12l109 189l30 61h204z
" />
    <glyph glyph-name="yhookabove" unicode="&#x1ef7;" horiz-adv-x="483" 
d="M234 691c-21 0 -49 -10 -70 -26l-29 47c34 37 81 60 127 60c56 0 100 -34 100 -87c0 -29 -14 -50 -61 -92l27 -43l-64 -39l-54 80c34 24 54 55 54 76c0 17 -13 24 -30 24zM312 459l163 20c9 -26 14 -52 14 -78c0 -48 -15 -96 -44 -154l-92 -181
c-101 -200 -182 -264 -294 -264c-35 0 -71 6 -105 18l-9 144l15 16c31 -8 61 -13 90 -13c31 0 62 7 88 19l-107 480l178 10l7 -91l27 -200h14l35 87c16 39 26 76 26 110c0 22 -5 42 -14 60z" />
    <glyph glyph-name="endash" unicode="&#x2013;" horiz-adv-x="451" 
d="M475 312l-23 -117h-460l-11 13l24 117h460z" />
    <glyph glyph-name="emdash" unicode="&#x2014;" horiz-adv-x="842" 
d="M870 312l-23 -117h-859l-11 13l24 117h859z" />
    <glyph glyph-name="quoteleft" unicode="&#x2018;" horiz-adv-x="252" 
d="M125 343c-42 28 -60 64 -60 115c0 66 37 129 114 200l64 -42l3 -12c-26 -29 -39 -58 -39 -88c0 -38 10 -64 42 -88v-14c-38 -28 -79 -54 -124 -71z" />
    <glyph glyph-name="quoteright" unicode="&#x2019;" horiz-adv-x="252" 
d="M188 659c42 -28 60 -64 60 -116c0 -66 -37 -128 -113 -199l-65 42l-3 12c26 29 39 58 39 88c0 37 -10 63 -42 87v15c38 28 80 54 124 71z" />
    <glyph glyph-name="quotesinglbase" unicode="&#x201a;" horiz-adv-x="228" 
d="M142 182c32 -31 47 -64 47 -106c0 -77 -47 -146 -151 -218l-61 53l-2 14c38 33 56 67 56 109c0 29 -10 52 -33 74l1 16c45 25 92 45 143 58z" />
    <glyph glyph-name="quotedblleft" unicode="&#x201c;" horiz-adv-x="457" 
d="M125 343c-42 28 -60 64 -60 116c0 66 37 128 113 199l65 -42l3 -12c-26 -29 -39 -58 -39 -88c0 -37 10 -63 42 -87v-15c-38 -28 -80 -54 -124 -71zM329 343c-42 28 -60 64 -60 116c0 66 37 128 113 199l65 -42l3 -12c-26 -29 -39 -58 -39 -88c0 -37 10 -63 42 -87v-15
c-38 -28 -80 -54 -124 -71z" />
    <glyph glyph-name="quotedblright" unicode="&#x201d;" horiz-adv-x="447" 
d="M188 659c42 -28 60 -64 60 -116c0 -66 -37 -128 -113 -199l-65 42l-3 12c26 29 39 58 39 88c0 37 -10 63 -42 87v15c38 28 80 54 124 71zM383 659c42 -28 60 -64 60 -116c0 -66 -37 -128 -114 -199l-65 42l-3 12c26 29 39 58 39 88c0 37 -10 63 -42 87v15
c38 28 80 54 125 71z" />
    <glyph glyph-name="quotedblbase" unicode="&#x201e;" horiz-adv-x="432" 
d="M142 182c32 -31 47 -64 47 -106c0 -77 -47 -146 -151 -218l-61 53l-2 14c38 33 56 67 56 109c0 29 -10 52 -33 74l1 16c45 25 92 45 143 58zM346 182c33 -31 48 -64 48 -106c0 -77 -48 -146 -152 -218l-60 53l-2 14c38 33 56 67 56 109c0 29 -10 52 -33 74l1 16
c44 25 91 45 142 58z" />
    <glyph glyph-name="dagger" unicode="&#x2020;" horiz-adv-x="524" 
d="M486 295h-157l-1 -4l-45 -376l-119 -9l-10 13l44 360l2 16h-144l-11 12l24 115h147l20 162l124 9l8 -11l-22 -160h153l10 -13z" />
    <glyph glyph-name="daggerdbl" unicode="&#x2021;" horiz-adv-x="524" 
d="M329 291l-14 -112h154l10 -13l-23 -115h-156l-17 -136l-119 -9l-10 13l16 132h-144l-10 13l23 115h147l12 100l4 32h-144l-10 13l23 115h147l19 145l123 9l8 -11l-19 -143h152l10 -13l-23 -115h-156z" />
    <glyph glyph-name="bullet" unicode="&#x2022;" horiz-adv-x="321" 
d="M169 394c81 0 127 -48 127 -130c0 -88 -53 -143 -138 -143c-84 0 -129 47 -129 130c0 88 54 143 140 143z" />
    <glyph glyph-name="onedotenleader" unicode="&#x2024;" horiz-adv-x="230" 
d="M101 189c59 0 93 -35 93 -94c0 -64 -39 -104 -100 -104s-94 34 -94 95c0 63 39 103 101 103z" />
    <glyph glyph-name="twodotenleader" unicode="&#x2025;" horiz-adv-x="459" 
d="M96 189c59 0 92 -35 92 -94c0 -64 -38 -104 -100 -104c-61 0 -94 34 -94 95c0 63 39 103 102 103zM325 189c59 0 93 -35 93 -94c0 -64 -39 -104 -101 -104c-60 0 -93 34 -93 95c0 63 39 103 101 103z" />
    <glyph glyph-name="ellipsis" unicode="&#x2026;" horiz-adv-x="689" 
d="M79 189c59 0 92 -35 92 -94c0 -64 -38 -104 -100 -104c-61 0 -94 34 -94 95c0 63 39 103 102 103zM308 189c59 0 93 -35 93 -94c0 -64 -39 -104 -101 -104c-60 0 -93 34 -93 95c0 63 39 103 101 103zM538 189c59 0 92 -35 92 -94c0 -64 -38 -104 -100 -104
c-61 0 -94 34 -94 95c0 63 39 103 102 103z" />
    <glyph glyph-name="perthousand" unicode="&#x2030;" horiz-adv-x="1272" 
d="M746 647l7 -24l-551 -717l-75 50l-4 17l552 721zM253 655c88 0 136 -52 136 -145c0 -142 -75 -229 -205 -229c-90 0 -138 52 -138 146c0 141 76 228 207 228zM225 535c-38 0 -62 -18 -62 -90c0 -37 12 -54 44 -54c57 0 65 38 65 91c0 38 -14 53 -47 53zM734 367
c88 0 136 -52 136 -146c0 -141 -75 -228 -205 -228c-89 0 -137 52 -137 145c0 142 75 229 206 229zM1110 367c88 0 136 -52 136 -146c0 -141 -75 -228 -205 -228c-89 0 -137 52 -137 145c0 142 75 229 206 229zM706 247c-38 0 -62 -18 -62 -91c0 -37 12 -53 44 -53
c57 0 66 38 66 91c0 38 -14 53 -48 53zM1082 247c-38 0 -62 -18 -62 -91c0 -37 12 -53 44 -53c57 0 66 38 66 91c0 38 -14 53 -48 53z" />
    <glyph glyph-name="minute" unicode="&#x2032;" horiz-adv-x="249" 
d="M262 634l-81 -261l-88 -14l-14 11l23 267l151 9z" />
    <glyph glyph-name="second" unicode="&#x2033;" horiz-adv-x="447" 
d="M262 634l-81 -261l-88 -14l-14 11l23 267l151 9zM459 634l-80 -261l-89 -14l-14 11l23 267l151 9z" />
    <glyph glyph-name="guilsinglleft" unicode="&#x2039;" horiz-adv-x="260" 
d="M28 221l4 27l147 177l85 -47l2 -17l-97 -131l65 -130l-6 -17l-97 -47z" />
    <glyph glyph-name="guilsinglright" unicode="&#x203a;" horiz-adv-x="260" 
d="M244 243l-4 -27l-147 -177l-85 47l-2 17l96 131l-64 130l6 17l96 47z" />
    <glyph glyph-name="fraction" unicode="&#x2044;" horiz-adv-x="137" 
d="M368 647l7 -24l-551 -717l-75 50l-4 17l552 721z" />
    <glyph glyph-name="zerosuperior" unicode="&#x2070;" horiz-adv-x="380" 
d="M258 709c88 0 136 -57 136 -159c0 -155 -75 -250 -205 -250c-90 0 -138 57 -138 159c0 155 76 250 207 250zM230 578c-38 0 -62 -20 -62 -99c0 -40 12 -59 44 -59c57 0 65 42 65 100c0 41 -14 58 -47 58z" />
    <glyph glyph-name="foursuperior" unicode="&#x2074;" horiz-adv-x="384" 
d="M377 376l-46 1l-3 -61l-9 -9l-115 -6l-7 8l11 70h-86l-84 -3l-7 11l10 88l194 225h135l-30 -215h49l6 -12zM166 485h58l7 65h-8z" />
    <glyph glyph-name="fivesuperior" unicode="&#x2075;" horiz-adv-x="339" 
d="M371 697l-27 -105l-11 -10l-81 10h-53l-3 -30l42 -9c68 -14 100 -44 100 -96c0 -95 -89 -158 -216 -158c-29 0 -67 4 -94 9l4 100l10 8c32 -9 61 -12 93 -12c39 0 60 9 60 28c0 14 -11 20 -36 24l-79 12l-7 10l25 210l16 14l46 -2h117l86 5z" />
    <glyph glyph-name="sixsuperior" unicode="&#x2076;" horiz-adv-x="365" 
d="M261 561c83 0 121 -62 115 -122c-6 -66 -63 -140 -180 -140c-103 0 -161 60 -153 156c9 103 92 193 226 253h7l89 -61l-2 -14c-76 -28 -121 -48 -148 -76l1 -1c14 3 31 5 45 5zM242 425c2 27 -7 40 -34 40c-9 0 -19 -1 -31 -4v-4c-4 -44 -5 -70 29 -70c22 0 34 13 36 38z
" />
    <glyph glyph-name="sevensuperior" unicode="&#x2077;" horiz-adv-x="324" 
d="M177 700h145l41 1l-12 -101l-108 -173l-66 -128l-114 30l-7 22l150 234h-67l-81 -8l-6 10l24 116z" />
    <glyph glyph-name="eightsuperior" unicode="&#x2078;" horiz-adv-x="384" 
d="M248 708c90 0 142 -39 142 -96c0 -40 -26 -68 -67 -92l-1 -6c37 -21 55 -44 55 -85c0 -78 -66 -130 -176 -130c-95 0 -152 39 -152 99c0 40 26 70 84 90l1 5c-34 18 -53 45 -53 87c0 78 66 128 167 128zM239 614c-25 0 -37 -10 -37 -25c0 -18 20 -29 45 -39
c18 15 26 28 26 41c0 14 -11 23 -34 23zM209 454c-30 -9 -38 -21 -38 -35c0 -19 14 -30 41 -30c32 0 45 15 45 28c0 18 -26 29 -48 37z" />
    <glyph glyph-name="ninesuperior" unicode="&#x2079;" horiz-adv-x="366" 
d="M237 708c103 0 161 -60 153 -156c-9 -103 -92 -193 -226 -253h-7l-89 61l2 14c76 28 120 48 147 75l-1 2c-14 -3 -30 -5 -44 -5c-83 0 -121 62 -115 122c6 66 63 140 180 140zM225 542c9 0 18 1 30 4v4c4 44 6 70 -28 70c-22 0 -34 -13 -36 -38c-3 -27 7 -40 34 -40z" />
    <glyph glyph-name="franc" unicode="&#x20a3;" horiz-adv-x="441" 
d="M243 386l-11 -72h62l103 3l8 -11l-24 -120l-113 3h-55l-3 -23l-2 -28h104l6 -9l-11 -59h-105l-6 -70h-166l12 70h-51l-5 8l12 60h56l2 11l37 361h374l7 -11l-24 -119l-140 6h-67z" />
    <glyph glyph-name="Euro" unicode="&#x20ac;" horiz-adv-x="451" 
d="M357 519c46 0 91 -7 126 -19l-44 -133l-12 -7c-24 15 -61 24 -90 24s-51 -9 -67 -29h102l6 -7l-14 -80h-353l-5 9l14 78h71c46 105 137 164 266 164zM315 126c26 0 69 7 97 16l11 -7l-28 -132c-38 -10 -71 -12 -103 -12c-140 0 -217 57 -232 164h-63l-5 8l14 79h352l6 -8
l-14 -79h-100c13 -20 34 -29 65 -29z" />
    <glyph glyph-name="literSign" unicode="&#x2113;" horiz-adv-x="258" 
d="M195 116l-3 -109l-178 -11l79 584l3 113l178 11z" />
    <glyph glyph-name="trademark" unicode="&#x2122;" horiz-adv-x="598" 
d="M266 571l-54 3l-14 -91l-6 -79h-93l14 70l10 100l-55 -3l-6 7l14 67h199l4 -6zM590 645l-11 -241h-83l8 73l2 35h-5l-44 -88h-70l-14 88h-5l-6 -26l-13 -82h-79l55 241h109l1 -34l5 -66h6l23 62l13 38h108z" />
    <glyph glyph-name="Ohm" unicode="&#x2126;" horiz-adv-x="765" 
d="M428 659c182 0 285 -90 285 -243c0 -88 -34 -167 -119 -264l3 -5h51l88 10l9 -12l-41 -153l-133 8h-151l-37 -3l-8 7l13 108c94 97 112 180 112 266c0 78 -15 122 -88 122c-71 0 -119 -40 -119 -187c0 -87 17 -145 53 -201l-13 -108l-10 -7l-35 3h-185l-111 -6l-9 12
l41 148l97 -8l26 1l3 5c-44 68 -62 132 -62 200c0 178 123 307 340 307z" />
    <glyph glyph-name="estimated" unicode="&#x212e;" horiz-adv-x="790" 
d="M416 651c203 0 368 -148 368 -332v-8h-597c-3 0 -5 -1 -5 -4v-181c0 -8 4 -15 9 -21c56 -60 137 -97 226 -97c95 0 180 42 237 109h54c-67 -78 -174 -129 -292 -129c-203 0 -369 148 -369 331c0 184 166 332 369 332zM417 631c-89 0 -168 -37 -225 -96
c-6 -6 -10 -14 -10 -23v-178c0 -3 2 -5 5 -5h458c3 0 5 2 5 5v182c0 9 -4 16 -10 22c-57 57 -136 93 -223 93z" />
    <glyph glyph-name="arrowleft" unicode="&#x2190;" horiz-adv-x="550" 
d="M515 175l-295 8l111 -119v-24l-105 -22l-201 209v29l201 210l105 -22v-24l-111 -119l289 8l12 -14z" />
    <glyph glyph-name="arrowup" unicode="&#x2191;" horiz-adv-x="550" 
d="M501 295l-22 -106h-24l-120 112l8 -289l-13 -12l-120 6l8 294l-119 -111h-24l-22 106l209 201h29z" />
    <glyph glyph-name="arrowright" unicode="&#x2192;" horiz-adv-x="550" 
d="M525 257v-29l-201 -210l-106 22v24l111 119l-288 -8l-12 14l6 120l294 -8l-111 119v24l106 22z" />
    <glyph glyph-name="arrowdown" unicode="&#x2193;" horiz-adv-x="550" 
d="M499 189l-209 -201h-29l-210 201l22 105h24l119 -111l-8 289l14 12l119 -6l-8 -296l120 112h24z" />
    <glyph glyph-name="arrowupleft" unicode="&#x2196;" horiz-adv-x="550" 
d="M488 128l-1 -18l-89 -81l-203 216l-5 -165l-17 -16l-90 59l6 289l20 21l290 6l59 -90l-16 -17l-165 -5z" />
    <glyph glyph-name="arrowupright" unicode="&#x2197;" horiz-adv-x="550" 
d="M466 127l-90 -59l-17 17l-5 164l-199 -210l-19 1l-80 89l214 202l-163 6l-17 17l59 90l290 -6l21 -20z" />
    <glyph glyph-name="arrowdownright" unicode="&#x2198;" horiz-adv-x="550" 
d="M466 355l-6 -289l-20 -21l-291 -6l-59 90l17 17l164 5l-211 199l2 18l88 80l203 -215l6 164l17 17z" />
    <glyph glyph-name="arrowdownleft" unicode="&#x2199;" horiz-adv-x="550" 
d="M442 152l17 -17l-59 -90l-289 6l-21 20l-6 290l90 59l17 -16l5 -165l199 211l18 -1l80 -89l-215 -203z" />
    <glyph glyph-name="partialdiff" unicode="&#x2202;" horiz-adv-x="531" 
d="M239 720h11c178 -93 280 -230 279 -404c0 -194 -114 -328 -299 -328c-152 0 -217 98 -217 204c0 122 88 256 231 256c22 0 41 -4 62 -14l7 6c-37 76 -112 127 -229 168l2 14zM252 121c64 0 86 69 89 168c-22 11 -40 18 -62 18c-58 0 -83 -38 -83 -110
c0 -47 18 -76 56 -76z" />
    <glyph glyph-name="increment" unicode="&#x2206;" horiz-adv-x="626" 
d="M588 0h-614l275 647h241zM337 469l-125 -325h166l-29 325h-12z" />
    <glyph glyph-name="product" unicode="&#x220f;" horiz-adv-x="729" 
d="M724 488l-59 3l-42 -281l-18 -210h-200l34 190l31 304h-149l-42 -284l-18 -210h-200l34 190l30 301l-59 -3l-10 14l29 145h659l9 -14z" />
    <glyph glyph-name="summation" unicode="&#x2211;" horiz-adv-x="546" 
d="M564 635l-29 -140l-109 7h-129l148 -164l-3 -28l-186 -165h121l127 9l10 -15l-29 -141l-169 2h-211l-107 -3l16 137l213 189l-168 178l19 148l95 -2h252l129 2z" />
    <glyph glyph-name="minus" unicode="&#x2212;" horiz-adv-x="478" 
d="M467 307l-9 -117h-430l-12 13l9 117h430z" />
    <glyph glyph-name="divisionslash" unicode="&#x2215;" horiz-adv-x="280" 
d="M353 667l-263 -785h-134l-10 15l263 786h130z" />
    <glyph glyph-name="bulletoperator" unicode="&#x2219;" horiz-adv-x="299" 
d="M146 394c81 0 127 -48 127 -130c0 -88 -53 -143 -138 -143c-84 0 -129 47 -129 130c0 88 54 143 140 143z" />
    <glyph glyph-name="radical" unicode="&#x221a;" horiz-adv-x="494" 
d="M319 0h-208l-35 341h-95l-4 7l20 124h213l5 -7l22 -301h11l212 534l16 12h139z" />
    <glyph glyph-name="infinity" unicode="&#x221e;" horiz-adv-x="482" 
d="M375 424c80 0 123 -56 123 -140c0 -125 -73 -192 -161 -192c-40 0 -72 16 -99 61c-29 -36 -74 -61 -130 -61c-79 0 -122 55 -122 140c0 121 68 192 159 192c45 0 75 -18 101 -60c27 32 70 60 129 60zM142 306c-32 0 -49 -21 -49 -54c0 -24 12 -36 32 -36
c28 0 48 25 66 60c-13 21 -29 30 -49 30zM359 300c-30 0 -48 -28 -65 -60c12 -21 28 -31 49 -31c29 0 47 21 47 56c0 23 -12 35 -31 35z" />
    <glyph glyph-name="integral" unicode="&#x222b;" horiz-adv-x="319" 
d="M363 710c29 0 57 -3 87 -9l-27 -137l-14 -9c-39 17 -67 23 -86 23s-34 -6 -38 -35l-57 -487c-11 -101 -62 -166 -184 -217l-73 83l1 15c45 24 72 57 78 114l50 458c16 130 113 201 263 201z" />
    <glyph glyph-name="approxequal" unicode="&#x2248;" horiz-adv-x="480" 
d="M173 318c-27 0 -55 -31 -85 -61h-16l-44 63l2 16l107 115l16 6c59 -10 176 -56 210 -56c26 0 53 29 85 60h16l42 -62l-2 -16l-105 -115l-17 -6c-59 9 -176 56 -209 56zM147 106c-27 0 -55 -31 -85 -61h-16l-43 62l2 16l106 115l16 7c59 -11 176 -57 210 -57
c26 0 53 30 85 61h16l42 -63l-2 -16l-105 -114l-17 -6c-59 9 -176 56 -209 56z" />
    <glyph glyph-name="notequal" unicode="&#x2260;" horiz-adv-x="479" 
d="M317 296l-30 -83h156l12 -13l-9 -117h-205l-48 -135h-120l-7 13l43 122h-93l-12 13l9 117h143l29 83h-143l-12 13l9 117h192l49 137h117l10 -13l-44 -124h106l12 -13l-9 -117h-155z" />
    <glyph glyph-name="lessequal" unicode="&#x2264;" horiz-adv-x="479" 
d="M473 369l-9 -12l-288 -93l-1 -9l265 -91l-39 -108l-18 -13l-350 135l19 155l14 17l381 130zM428 -28l-9 -116h-430l-12 12l9 117h430z" />
    <glyph glyph-name="greaterequal" unicode="&#x2265;" horiz-adv-x="488" 
d="M463 350l10 -17l-19 -155l-383 -135l-15 13l-12 108l288 91l1 9l-267 93l-5 12l53 111zM428 -28l-9 -116h-430l-12 12l9 117h430z" />
    <glyph glyph-name="lozenge" unicode="&#x25ca;" horiz-adv-x="531" 
d="M402 644l112 -338l-7 -51l-195 -341l-151 -7l-14 7l-110 338l6 49l195 343l152 7zM297 520l-133 -248l81 -234h8l133 242l-81 240h-8z" />
    <glyph glyph-name="dieresisacute" unicode="&#xf6d7;" 
d="M364 900l28 -123l-9 -15c-89 -11 -167 -20 -246 -27l-16 7l-16 83c89 27 166 53 243 82zM149 696c51 0 80 -30 80 -81c0 -56 -33 -91 -87 -91c-53 0 -81 30 -81 83c0 55 33 89 88 89zM342 696c51 0 79 -30 79 -81c0 -56 -32 -91 -86 -91c-53 0 -82 30 -82 83
c0 55 34 89 89 89z" />
    <glyph glyph-name="dieresisgrave" unicode="&#xf6d8;" 
d="M159 900l16 7c74 -29 148 -55 233 -82l-26 -83l-17 -7c-78 7 -155 16 -242 27l-8 15zM148 696c51 0 80 -29 80 -81c0 -56 -33 -91 -87 -91c-53 0 -81 30 -81 83c0 54 33 89 88 89zM341 696c51 0 79 -29 79 -81c0 -56 -32 -91 -86 -91c-53 0 -82 30 -82 83
c0 54 34 89 89 89z" />
    <glyph glyph-name="Iacute_J.loclNLD" horiz-adv-x="690" 
d="M119 716l-30 79c83 41 154 80 225 122l17 -4l49 -116l-6 -16c-86 -27 -161 -49 -238 -69zM706 797l-6 -16c-86 -27 -161 -49 -238 -69l-17 4l-30 79c83 41 154 80 225 122l17 -4zM314 647l-65 -437l-18 -210h-200l34 190l46 457h203zM675 647l-66 -434l-8 -89
c-17 -123 -77 -186 -251 -236l-40 103l2 15c71 34 98 66 105 124l8 63l33 314l-83 -3l-9 13l24 130h285z" />
    <glyph glyph-name="Q.corta" horiz-adv-x="661" 
d="M488 36c50 -28 100 -54 152 -77l5 -18c-31 -48 -65 -90 -110 -126l-15 -7c-77 57 -153 116 -221 180c-170 0 -275 90 -275 288c0 222 126 383 356 383c170 0 274 -88 274 -285c0 -150 -57 -274 -166 -338zM233 273c0 -102 15 -138 87 -138c70 0 124 35 124 227
c0 102 -16 138 -87 138s-124 -35 -124 -227z" />
    <glyph glyph-name="C.ss01" horiz-adv-x="448" 
d="M310 367c-73 0 -96 -34 -96 -125c0 -67 26 -95 82 -95c26 0 66 4 94 11l13 -9l-19 -84h142l-7 -65h-647l7 65h197c-33 35 -50 85 -50 147c0 105 37 185 104 236h-203l7 65h647l-7 -65h-128l-31 -95l-13 -7c-25 13 -64 21 -92 21z" />
    <glyph glyph-name="D.ss01" horiz-adv-x="576" 
d="M702 448h-196c32 -33 48 -79 48 -138c0 -108 -36 -192 -103 -245h203l-7 -65h-775l7 65h167l16 87l29 296h-164l7 65h775zM225 170l-2 -30c22 -4 47 -8 63 -8c47 0 81 31 81 150c0 64 -19 85 -59 85c-16 0 -32 0 -52 -2z" />
    <glyph glyph-name="I.ss01" horiz-adv-x="303" 
d="M222 168l-7 -103h166l-7 -65h-502l7 65h158l15 84l29 299h-154l7 65h502l-7 -65h-164z" />
    <glyph glyph-name="L.ss01" horiz-adv-x="403" 
d="M218 171l-2 -18h154l-13 -88h123l-7 -65h-601l7 65h155l16 87l29 296h-152l7 65h601l-6 -65h-269z" />
    <glyph glyph-name="M.ss01" horiz-adv-x="692" 
d="M629 448l-16 -383h157l-7 -65h-891l7 65h149l86 383h-187l7 65h891l-7 -65h-189zM415 448h-84l1 -15l17 -116h10l48 110zM463 65l13 113l6 81h-9l-92 -166h-131l-36 166h-10l-14 -67l-19 -127h292z" />
    <glyph glyph-name="V.ss01" horiz-adv-x="540" 
d="M534 448l-166 -383h250l-7 -65h-739l7 65h246l-60 383h-138l7 65h739l-7 -65h-132zM371 448h-135l2 -38l19 -244h11l89 233z" />
    <glyph glyph-name="X.ss01" horiz-adv-x="555" 
d="M391 269l98 -204h144l-7 -65h-754l7 65h160l144 185l-101 198h-155l7 65h754l-7 -65h-156zM270 448l10 -29l27 -51l44 60l11 20h-92zM301 65l-10 32l-25 51l-52 -59l-14 -24h101z" />
    <glyph glyph-name="idotaccent" horiz-adv-x="259" 
d="M180 730c59 0 92 -34 92 -94c0 -64 -38 -104 -100 -104c-61 0 -94 34 -94 95c0 64 39 103 102 103zM197 116l-5 -109l-177 -11l47 356l4 113l177 11z" />
    <glyph glyph-name="germandbls.calt" horiz-adv-x="711" 
d="M413 659c102 0 179 -25 278 -73l5 -23l-137 -171c91 -74 139 -109 139 -187c0 -149 -128 -217 -268 -217c-62 0 -126 14 -179 38l50 173l22 12c49 -48 101 -75 137 -75c24 0 37 12 37 29c0 25 -38 61 -176 143l-2 24l123 158c-22 8 -41 12 -68 12
c-73 0 -100 -30 -108 -98l-29 -194l-18 -210h-200l34 190l22 214c16 154 132 255 338 255z" />
    <glyph glyph-name="a.sups" horiz-adv-x="337" 
d="M350 646l-33 -247l-3 -75l-110 -7l12 95h-10c-19 -37 -40 -71 -66 -99h-15c-71 19 -89 58 -89 114c0 88 52 187 168 221h5l67 -11l66 14zM155 411c14 0 42 42 78 125l3 22l-48 11c-33 0 -50 -38 -50 -98c0 -44 8 -60 17 -60z" />
    <glyph glyph-name="f.f" horiz-adv-x="338" 
d="M513 362h-247l-22 -152l-25 -198l-4 -109l-177 -11l39 298l18 172h-62l-8 11l12 90h68c19 152 114 227 263 227l104 -14l8 -14l-55 -120l-23 -8c-31 21 -50 29 -65 29c-28 0 -45 -20 -52 -67l-5 -33h234l12 -14z" />
    <glyph glyph-name="b.sups" horiz-adv-x="338" 
d="M253 647h15c67 -18 89 -54 89 -112c0 -93 -55 -190 -166 -222h-5l-89 16l-53 8l52 393l3 76l110 7l-35 -266h10c20 37 43 72 69 100zM155 404l52 -13c32 0 48 42 48 100c0 45 -8 61 -16 61c-14 0 -43 -42 -80 -122z" />
    <glyph glyph-name="iacute_j.loclNLD" horiz-adv-x="545" 
d="M251 753l69 -106l-3 -17c-81 -41 -151 -76 -223 -109l-17 1l-44 72c75 55 138 106 201 160zM514 753l69 -106l-3 -17c-81 -41 -151 -76 -223 -109l-17 1l-44 72c75 55 138 106 201 160zM197 116l-5 -109l-177 -11l47 356l4 113l177 11zM525 472l-49 -354l-8 -82
c-13 -107 -77 -179 -206 -231l-56 80l2 16c53 25 82 64 91 125l43 321l-2 15h-63l-7 11l13 90h73l165 13z" />
    <glyph glyph-name="f.l" horiz-adv-x="339" 
d="M526 677l-44 -122l-23 -8c-53 25 -85 34 -109 34c-33 0 -54 -19 -62 -67l-7 -51h93l12 -14l-13 -87h-107l-22 -152l-25 -198l-4 -109l-177 -11l39 298l18 172h-62l-8 11l12 90h69l1 9c18 158 116 236 274 236l136 -17z" />
    <glyph glyph-name="c.sups" horiz-adv-x="259" 
d="M294 632l4 -11l-30 -77l-24 -1c-15 17 -25 25 -42 25c-39 0 -57 -34 -57 -102c0 -44 9 -62 32 -62c16 0 31 10 52 45h14l36 -42c-30 -52 -62 -77 -113 -93h-15c-81 11 -112 52 -112 132c0 108 59 203 194 203z" />
    <glyph glyph-name="zero.lf" horiz-adv-x="516" 
d="M303 597c123 0 196 -79 196 -250c0 -205 -104 -359 -275 -359c-125 0 -198 82 -198 251c0 201 104 358 277 358zM275 416c-75 0 -95 -59 -95 -152c0 -71 12 -106 67 -106c71 0 98 59 98 154c0 75 -16 104 -70 104z" />
    <glyph glyph-name="d.sups" horiz-adv-x="335" 
d="M371 813l-55 -414l-3 -75l-110 -7l13 95h-9c-20 -36 -42 -71 -68 -99h-15c-71 19 -89 57 -89 112c0 89 54 189 171 222h5l35 -5l12 88l2 76zM153 410c14 0 42 40 78 120l4 30l-45 10c-35 0 -54 -40 -54 -102c0 -42 9 -58 17 -58z" />
    <glyph glyph-name="three.dnom" horiz-adv-x="337" 
d="M181 401c82 0 135 -37 135 -92c0 -27 -11 -69 -73 -100v-4c39 -13 58 -39 58 -77c0 -83 -88 -136 -217 -136c-28 0 -60 3 -85 8l3 102l11 8c32 -9 58 -13 86 -13c42 0 61 8 61 26c0 11 -9 15 -26 15h-62l-6 8l13 95l33 2c30 1 51 11 51 30c0 12 -9 16 -29 16
c-23 0 -49 -8 -80 -19h-15l-12 95c48 23 104 36 154 36z" />
    <glyph glyph-name="e.sups" horiz-adv-x="291" 
d="M267 439l35 -42c-36 -45 -81 -72 -128 -84h-10c-91 10 -126 59 -126 134c0 120 72 198 187 204l10 -1c49 -9 82 -35 82 -82c0 -54 -48 -93 -175 -125c4 -36 17 -49 41 -49c26 0 49 15 70 47zM197 583c-31 0 -50 -27 -55 -80c53 14 78 30 78 58c0 15 -7 22 -23 22z" />
    <glyph glyph-name="one.lf" horiz-adv-x="394" 
d="M358 575l-55 -365l-18 -210h-197l32 190l22 183l-115 -20l-11 9l19 157l297 76z" />
    <glyph glyph-name="four.dnom" horiz-adv-x="384" 
d="M340 69l-46 1l-3 -61l-9 -9l-115 -6l-7 8l11 70h-86l-84 -3l-7 11l10 88l194 225h135l-30 -215h49l6 -12zM129 178h58l7 65h-8z" />
    <glyph glyph-name="two.lf" horiz-adv-x="505" 
d="M288 597c105 0 183 -60 183 -151c0 -59 -34 -112 -136 -220l-64 -69l3 -5h89l100 10l8 -13l-41 -157l-145 8h-237l-37 -3l-8 7l14 118l159 155c48 47 94 88 94 125c0 17 -10 30 -36 30c-33 0 -88 -24 -138 -62h-21l-14 151c71 46 152 76 227 76z" />
    <glyph glyph-name="f.sups" horiz-adv-x="227" 
d="M353 795l-20 -73l-15 -5c-26 13 -43 18 -57 18c-23 0 -37 -16 -42 -53l-6 -44h68l8 -9l-8 -52h-77l-16 -114l-19 -148l-3 -75l-111 -6l29 217l14 126h-45l-5 7l7 54h49l2 14c12 103 74 160 171 160l72 -10z" />
    <glyph glyph-name="five.dnom" horiz-adv-x="339" 
d="M334 390l-27 -105l-11 -10l-81 10h-53l-3 -30l42 -9c68 -14 100 -44 100 -96c0 -95 -89 -158 -216 -158c-29 0 -67 4 -94 9l4 100l10 8c32 -9 61 -12 93 -12c39 0 60 9 60 28c0 14 -11 20 -36 24l-79 12l-7 10l25 210l16 14l46 -2h117l86 5z" />
    <glyph glyph-name="g.sups" horiz-adv-x="338" 
d="M352 646l-32 -234l-3 -59c-14 -111 -90 -168 -188 -168c-80 0 -124 46 -134 109l3 7l96 43l1 8c-30 22 -40 53 -40 92c0 83 52 173 162 204h4l61 -10l62 13zM246 567l-44 9c-35 0 -54 -38 -54 -99c0 -39 8 -53 17 -53c14 0 42 38 77 117zM150 259c33 0 59 20 64 64
l14 106h-9c-21 -37 -46 -69 -72 -96l-31 -23c-7 -9 -9 -12 -9 -17c0 -4 1 -9 4 -14c5 -12 18 -20 39 -20z" />
    <glyph glyph-name="three.lf" horiz-adv-x="453" 
d="M257 598c112 0 192 -54 192 -131c0 -51 -37 -120 -108 -154v-6c52 -29 79 -59 79 -116c0 -118 -114 -201 -292 -201c-38 0 -91 4 -126 11l7 143l15 12c43 -13 81 -20 119 -20c62 0 90 18 90 48c0 19 -12 29 -42 29h-84l-6 12l21 133l59 3c28 1 64 24 64 52
c0 20 -14 28 -42 28c-34 0 -71 -12 -114 -31h-20l-13 134c66 34 133 54 201 54z" />
    <glyph glyph-name="six.dnom" horiz-adv-x="365" 
d="M222 254c83 0 121 -62 115 -122c-6 -66 -63 -140 -180 -140c-103 0 -161 60 -153 156c9 103 92 193 226 253h7l89 -61l-2 -14c-76 -28 -121 -48 -148 -76l1 -1c14 3 31 5 45 5zM203 118c2 27 -7 40 -34 40c-9 0 -19 -1 -31 -4v-4c-4 -44 -5 -70 29 -70c22 0 34 13 36 38z
" />
    <glyph glyph-name="four.lf" horiz-adv-x="519" 
d="M476 108l-68 2l-6 -101l-12 -13l-153 -9l-8 12l19 113h-130l-113 -4l-10 15l15 122l278 341h179l-45 -327h70l9 -17zM179 259h92l14 114h-11z" />
    <glyph glyph-name="h.sups" horiz-adv-x="361" 
d="M273 645l9 1c54 -9 88 -37 87 -74v-10l-27 -162l-4 -76l-112 -7l31 193l1 7c0 13 -6 20 -14 20c-14 0 -45 -29 -84 -94l-6 -44l-3 -75l-110 -7l55 413l3 76l110 7l-36 -272h10c30 42 59 77 90 104z" />
    <glyph glyph-name="seven.dnom" horiz-adv-x="324" 
d="M138 393h145l41 1l-12 -101l-108 -173l-66 -128l-114 30l-7 22l150 234h-67l-81 -8l-6 10l24 116z" />
    <glyph glyph-name="i.sups" horiz-adv-x="174" 
d="M156 819c35 0 55 -19 55 -49c0 -43 -26 -70 -67 -70c-35 0 -56 19 -56 48c0 43 26 71 68 71zM155 399l-3 -75l-111 -7l33 247l3 75l110 7z" />
    <glyph glyph-name="eight.dnom" horiz-adv-x="384" 
d="M210 401c90 0 142 -39 142 -96c0 -40 -26 -68 -67 -92l-1 -6c37 -21 55 -44 55 -85c0 -78 -66 -130 -176 -130c-95 0 -152 39 -152 99c0 40 26 70 84 90l1 5c-34 18 -53 45 -53 87c0 78 66 128 167 128zM201 307c-25 0 -37 -10 -37 -25c0 -18 20 -29 45 -39
c18 15 26 28 26 41c0 14 -11 23 -34 23zM171 147c-30 -9 -38 -21 -38 -35c0 -19 14 -30 41 -30c32 0 45 15 45 28c0 18 -26 29 -48 37z" />
    <glyph glyph-name="five.lf" horiz-adv-x="455" 
d="M467 582l-36 -147l-15 -14l-109 15h-79l-8 -58l59 -13c94 -20 140 -66 140 -143c0 -138 -125 -234 -301 -234c-38 0 -88 5 -126 13l6 139l13 13c44 -13 84 -19 127 -19c58 0 93 20 93 54c0 23 -18 36 -56 41l-107 18l-10 14l38 309l21 20l63 -4h161l117 8z" />
    <glyph glyph-name="six.lf" horiz-adv-x="500" 
d="M310 376c106 0 164 -86 164 -174c0 -103 -80 -214 -242 -214c-137 0 -217 80 -217 210c0 163 126 306 334 400h9l113 -86l-2 -18c-107 -31 -178 -70 -222 -122l5 -7c21 8 38 11 58 11zM239 112c39 0 57 30 57 73c0 38 -14 56 -49 56c-15 0 -35 -3 -56 -10
c-1 -11 -1 -22 -1 -34c0 -60 12 -85 49 -85z" />
    <glyph glyph-name="nine.dnom" horiz-adv-x="366" 
d="M199 401c103 0 161 -60 153 -156c-9 -103 -92 -193 -226 -253h-7l-89 61l2 14c76 28 120 48 147 75l-1 2c-14 -3 -30 -5 -44 -5c-83 0 -121 62 -115 122c6 66 63 140 180 140zM187 235c9 0 18 1 30 4v4c4 44 6 70 -28 70c-22 0 -34 -13 -36 -38c-3 -27 7 -40 34 -40z" />
    <glyph glyph-name="j.sups" horiz-adv-x="201" 
d="M159 820c37 0 59 -22 59 -58c0 -38 -25 -62 -63 -62c-39 0 -60 20 -60 57c0 39 25 63 64 63zM208 643l-33 -245l-6 -56c-9 -74 -50 -121 -134 -157l-35 47l2 10c36 20 56 47 62 93l30 227l-1 15h-43l-5 7l8 54h50l102 8z" />
    <glyph glyph-name="zero.numr" horiz-adv-x="380" 
d="M251 655c88 0 136 -57 136 -159c0 -155 -75 -250 -205 -250c-90 0 -138 57 -138 159c0 155 76 250 207 250zM223 524c-38 0 -62 -20 -62 -99c0 -40 12 -59 44 -59c57 0 65 42 65 100c0 41 -14 58 -47 58z" />
    <glyph glyph-name="seven.lf" horiz-adv-x="435" 
d="M195 586h206l58 2l-18 -141l-163 -278l-92 -184l-149 43l-9 30l223 368h-106l-112 -12l-7 15l32 162z" />
    <glyph glyph-name="k.sups" horiz-adv-x="366" 
d="M379 564c0 -47 -35 -87 -83 -119c20 -39 42 -77 65 -113l-5 -8l-93 -12l-11 5c-19 40 -37 81 -53 122l4 14c38 21 65 49 65 69c0 11 -7 16 -15 16c-19 0 -52 -29 -93 -95l-6 -44l-3 -75l-110 -7l55 413l3 76l110 7l-36 -272h10c32 43 65 78 99 104h9c52 -9 88 -33 88 -81
z" />
    <glyph glyph-name="one.numr" horiz-adv-x="295" 
d="M287 639l-37 -244l-11 -141h-149l21 127l14 114l-81 -12l-9 6l14 112l219 52z" />
    <glyph glyph-name="l.sups" horiz-adv-x="172" 
d="M153 399l-3 -75l-111 -7l56 413l2 76l111 7z" />
    <glyph glyph-name="eight.lf" horiz-adv-x="516" 
d="M297 598c121 0 192 -57 192 -145c0 -59 -33 -104 -95 -140l-1 -8c48 -29 81 -66 81 -132c0 -110 -92 -185 -231 -185c-138 0 -219 59 -219 147c0 70 39 111 117 140l1 8c-42 26 -74 65 -74 132c0 109 90 183 229 183zM283 467c-38 0 -56 -20 -56 -44c0 -29 23 -46 65 -63
c29 22 43 43 43 65c0 27 -18 42 -52 42zM243 225c-42 -15 -57 -33 -57 -60c0 -32 19 -50 60 -50c48 0 69 25 69 47c0 30 -32 47 -72 63z" />
    <glyph glyph-name="nine.lf" horiz-adv-x="500" 
d="M276 598c137 0 217 -80 217 -210c0 -163 -126 -306 -334 -400h-9l-113 86l2 18c107 31 178 70 222 122l-5 7c-21 -8 -38 -11 -58 -11c-106 0 -164 86 -164 174c0 103 80 214 242 214zM261 345c15 0 35 3 56 10c1 11 1 22 1 34c0 60 -12 85 -49 85c-39 0 -57 -30 -57 -73
c0 -38 14 -56 49 -56z" />
    <glyph glyph-name="m.sups" horiz-adv-x="554" 
d="M465 645l9 1c54 -9 87 -37 86 -74v-10l-27 -162l-3 -76l-112 -7l31 193l1 7c0 13 -6 20 -13 20c-16 0 -48 -31 -88 -100l-6 -37l-3 -76l-114 -7l32 193l1 7c0 13 -6 20 -14 20c-15 0 -45 -30 -85 -96l-5 -42l-3 -75l-110 -7l32 247l3 75l110 7l-14 -105h11
c31 42 59 77 90 104l9 1c55 -9 88 -37 87 -74v-10l-3 -21h8c30 42 59 77 90 104z" />
    <glyph glyph-name="two.numr" horiz-adv-x="375" 
d="M243 654c70 0 125 -32 125 -92c0 -42 -26 -84 -97 -156l-40 -41l2 -3h57l72 7l6 -9l-29 -112l-108 6h-170l-26 -2l-6 5l10 84l101 89c43 39 75 66 75 88c0 11 -8 18 -24 18c-24 0 -63 -15 -96 -40h-16l-12 108c63 32 122 50 176 50z" />
    <glyph glyph-name="three.numr" horiz-adv-x="337" 
d="M213 655c82 0 135 -37 135 -92c0 -27 -11 -69 -73 -100v-4c39 -13 58 -39 58 -77c0 -83 -88 -136 -217 -136c-28 0 -60 3 -85 8l3 102l11 8c32 -9 58 -13 86 -13c42 0 61 8 61 26c0 11 -9 15 -26 15h-62l-6 8l13 95l33 2c30 1 51 11 51 30c0 12 -9 16 -29 16
c-23 0 -49 -8 -80 -19h-15l-12 95c48 23 104 36 154 36z" />
    <glyph glyph-name="n.sups" horiz-adv-x="362" 
d="M274 645l9 1c47 -9 88 -37 87 -74l-1 -10l-27 -162l-3 -76l-113 -7l32 193l1 7c0 13 -6 20 -14 20c-15 0 -45 -29 -84 -94l-6 -44l-3 -75l-110 -7l32 247l3 75l110 7l-14 -105h10c31 42 59 77 91 104z" />
    <glyph glyph-name="zero.sinf" horiz-adv-x="380" 
d="M206 281c88 0 136 -57 136 -159c0 -155 -75 -250 -205 -250c-90 0 -138 57 -138 159c0 155 76 250 207 250zM178 150c-38 0 -62 -20 -62 -99c0 -40 12 -59 44 -59c57 0 65 42 65 100c0 41 -14 58 -47 58z" />
    <glyph glyph-name="one.sinf" horiz-adv-x="295" 
d="M239 265l-37 -244l-11 -141h-149l21 127l14 114l-81 -12l-9 6l14 112l219 52z" />
    <glyph glyph-name="o.sups" horiz-adv-x="323" 
d="M227 651l11 -1c62 -12 102 -51 102 -121c0 -131 -72 -211 -190 -217l-10 2c-63 12 -102 52 -102 128c0 123 73 203 189 209zM207 570c-50 0 -63 -41 -63 -129c0 -38 7 -50 28 -50c48 0 61 41 61 130c0 37 -6 49 -26 49z" />
    <glyph glyph-name="four.numr" horiz-adv-x="384" 
d="M372 323l-46 1l-3 -61l-9 -9l-115 -6l-7 8l11 70h-86l-84 -3l-7 11l10 88l194 225h135l-30 -215h49l6 -12zM161 432h58l7 65h-8z" />
    <glyph glyph-name="five.numr" horiz-adv-x="339" 
d="M365 644l-27 -105l-11 -10l-81 10h-53l-3 -30l42 -9c68 -14 100 -44 100 -96c0 -95 -89 -158 -216 -158c-29 0 -67 4 -94 9l4 100l10 8c32 -9 61 -12 93 -12c39 0 60 9 60 28c0 14 -11 20 -36 24l-79 12l-7 10l25 210l16 14l46 -2h117l86 5z" />
    <glyph glyph-name="two.sinf" horiz-adv-x="375" 
d="M196 280c70 0 125 -32 125 -92c0 -42 -26 -84 -97 -156l-40 -41l2 -3h57l72 7l6 -9l-29 -112l-108 6h-170l-26 -2l-6 5l10 84l101 89c43 39 75 66 75 88c0 11 -8 18 -24 18c-24 0 -63 -15 -96 -40h-16l-12 108c63 32 122 50 176 50z" />
    <glyph glyph-name="p.sups" horiz-adv-x="338" 
d="M254 647h15c67 -18 88 -54 88 -112c0 -93 -55 -190 -166 -222h-4l-42 8l-7 -53l-3 -75l-111 -7l50 378l3 75l110 7l-13 -99h12c19 37 42 72 68 100zM156 404l52 -13c31 0 48 42 48 100c0 45 -8 61 -17 61c-15 0 -43 -43 -80 -124z" />
    <glyph glyph-name="q.sups" horiz-adv-x="338" 
d="M351 646l-50 -378l-3 -75l-110 -7l29 226h-10c-20 -36 -42 -71 -68 -99h-15c-71 19 -89 57 -89 112c0 89 54 189 171 222h5l65 -10l67 14zM153 410c15 0 43 41 80 124l4 26l-47 10c-35 0 -53 -40 -53 -102c0 -41 8 -58 16 -58z" />
    <glyph glyph-name="three.sinf" horiz-adv-x="337" 
d="M166 281c82 0 135 -37 135 -92c0 -27 -11 -69 -73 -100v-4c39 -13 58 -39 58 -77c0 -83 -88 -136 -217 -136c-28 0 -60 3 -85 8l3 102l11 8c32 -9 58 -13 86 -13c42 0 61 8 61 26c0 11 -9 15 -26 15h-62l-6 8l13 95l33 2c30 1 51 11 51 30c0 12 -9 16 -29 16
c-23 0 -49 -8 -80 -19h-15l-12 95c48 23 104 36 154 36z" />
    <glyph glyph-name="six.numr" horiz-adv-x="365" 
d="M253 508c83 0 121 -62 115 -122c-6 -66 -63 -140 -180 -140c-103 0 -161 60 -153 156c9 103 92 193 226 253h7l89 -61l-2 -14c-76 -28 -121 -48 -148 -76l1 -1c14 3 31 5 45 5zM234 372c2 27 -7 40 -34 40c-9 0 -19 -1 -31 -4v-4c-4 -44 -5 -70 29 -70c22 0 34 13 36 38z
" />
    <glyph glyph-name="seven.numr" horiz-adv-x="324" 
d="M170 647h145l41 1l-12 -101l-108 -173l-66 -128l-114 30l-7 22l150 234h-67l-81 -8l-6 10l24 116z" />
    <glyph glyph-name="four.sinf" horiz-adv-x="384" 
d="M326 -52l-46 1l-3 -61l-9 -9l-115 -6l-7 8l11 70h-86l-84 -3l-7 11l10 88l194 225h135l-30 -215h49l6 -12zM115 57h58l7 65h-8z" />
    <glyph glyph-name="r.sups" horiz-adv-x="256" 
d="M300 642l-17 -128l-9 -3l-23 3c-30 0 -55 -18 -89 -60l-7 -55l-3 -75l-111 -7l33 247l3 75l110 7l-13 -101h11c30 50 60 83 96 100z" />
    <glyph glyph-name="five.sinf" horiz-adv-x="339" 
d="M319 270l-27 -105l-11 -10l-81 10h-53l-3 -30l42 -9c68 -14 100 -44 100 -96c0 -95 -89 -158 -216 -158c-29 0 -67 4 -94 9l4 100l10 8c32 -9 61 -12 93 -12c39 0 60 9 60 28c0 14 -11 20 -36 24l-79 12l-7 10l25 210l16 14l46 -2h117l86 5z" />
    <glyph glyph-name="eight.numr" horiz-adv-x="384" 
d="M241 655c90 0 142 -39 142 -96c0 -40 -26 -68 -67 -92l-1 -6c37 -21 55 -44 55 -85c0 -78 -66 -130 -176 -130c-95 0 -152 39 -152 99c0 40 26 70 84 90l1 5c-34 18 -53 45 -53 87c0 78 66 128 167 128zM232 561c-25 0 -37 -10 -37 -25c0 -18 20 -29 45 -39
c18 15 26 28 26 41c0 14 -11 23 -34 23zM202 401c-30 -9 -38 -21 -38 -35c0 -19 14 -30 41 -30c32 0 45 15 45 28c0 18 -26 29 -48 37z" />
    <glyph glyph-name="s.sups" horiz-adv-x="265" 
d="M208 648c28 -2 55 -8 81 -16l-23 -81l-15 -6c-26 23 -54 35 -72 35c-17 0 -27 -10 -27 -22c0 -38 119 -45 119 -133c0 -65 -65 -112 -152 -112c-33 3 -64 9 -94 19l24 86l11 6c27 -29 61 -45 86 -45c20 0 30 13 29 25c-5 34 -120 50 -121 127c1 74 72 118 154 117z" />
    <glyph glyph-name="t.sups" horiz-adv-x="249" 
d="M177 421l-1 -6c0 -7 4 -11 11 -11c11 0 19 10 30 32l15 -1l30 -36c-22 -36 -48 -64 -80 -84l-12 -1c-70 2 -100 20 -100 74l2 21l23 157l1 11h-44l-6 7l7 54h50l8 71l105 23l8 -6l-14 -88h76l8 -9l-7 -52h-86z" />
    <glyph glyph-name="six.sinf" horiz-adv-x="365" 
d="M207 135c83 0 121 -62 115 -122c-6 -66 -63 -140 -180 -140c-103 0 -161 60 -153 156c9 103 92 193 226 253h7l89 -61l-2 -14c-76 -28 -121 -48 -148 -76l1 -1c14 3 31 5 45 5zM188 -1c2 27 -7 40 -34 40c-9 0 -19 -1 -31 -4v-4c-4 -44 -5 -70 29 -70c22 0 34 13 36 38z
" />
    <glyph glyph-name="nine.numr" horiz-adv-x="366" 
d="M230 655c103 0 161 -60 153 -156c-9 -103 -92 -193 -226 -253h-7l-89 61l2 14c76 28 120 48 147 75l-1 2c-14 -3 -30 -5 -44 -5c-83 0 -121 62 -115 122c6 66 63 140 180 140zM218 489c9 0 18 1 30 4v4c4 44 6 70 -28 70c-22 0 -34 -13 -36 -38c-3 -27 7 -40 34 -40z" />
    <glyph glyph-name="u.sups" horiz-adv-x="355" 
d="M368 646l-32 -247l-4 -75l-110 -7l13 100h-8c-28 -41 -54 -73 -85 -100l-9 -1c-55 7 -89 35 -89 73l1 13l26 160l4 76l113 7l-31 -192l-1 -9c0 -13 5 -20 14 -20c15 0 41 29 78 88l7 52l3 75z" />
    <glyph glyph-name="seven.sinf" horiz-adv-x="324" 
d="M123 273h145l41 1l-12 -101l-108 -173l-66 -128l-114 30l-7 22l150 234h-67l-81 -8l-6 10l24 116z" />
    <glyph glyph-name="v.sups" horiz-adv-x="322" 
d="M236 629l104 19c8 -18 12 -36 12 -54c0 -31 -11 -64 -32 -102l-98 -172h-126l-43 320l110 6l1 -61l10 -156h9l44 89c12 28 19 50 19 71c0 14 -3 27 -10 40z" />
    <glyph glyph-name="w.sups" horiz-adv-x="515" 
d="M428 629l103 19c9 -20 13 -39 13 -58c0 -30 -10 -61 -28 -98l-91 -172h-122l-13 182h-9l-68 -182h-120l-40 320l109 6v-55l7 -152h10l54 145l19 59h117l1 -52l8 -152h9l35 79c11 26 17 48 17 67c0 15 -4 30 -11 44z" />
    <glyph glyph-name="eight.sinf" horiz-adv-x="384" 
d="M196 281c90 0 142 -39 142 -96c0 -40 -26 -68 -67 -92l-1 -6c37 -21 55 -44 55 -85c0 -78 -66 -130 -176 -130c-95 0 -152 39 -152 99c0 40 26 70 84 90l1 5c-34 18 -53 45 -53 87c0 78 66 128 167 128zM187 187c-25 0 -37 -10 -37 -25c0 -18 20 -29 45 -39
c18 15 26 28 26 41c0 14 -11 23 -34 23zM157 27c-30 -9 -38 -21 -38 -35c0 -19 14 -30 41 -30c32 0 45 15 45 28c0 18 -26 29 -48 37z" />
    <glyph glyph-name="x.sups" horiz-adv-x="345" 
d="M342 323l-124 -9l-9 45l-23 62l-38 -60l-19 -41h-120l116 169l-66 151l119 10l10 -36l24 -57l37 54l15 32h116l-114 -160z" />
    <glyph glyph-name="nine.sinf" horiz-adv-x="366" 
d="M183 281c103 0 161 -60 153 -156c-9 -103 -92 -193 -226 -253h-7l-89 61l2 14c76 28 120 48 147 75l-1 2c-14 -3 -30 -5 -44 -5c-83 0 -121 62 -115 122c6 66 63 140 180 140zM171 115c9 0 18 1 30 4v4c4 44 6 70 -28 70c-22 0 -34 -13 -36 -38c-3 -27 7 -40 34 -40z" />
    <glyph glyph-name="y.sups" horiz-adv-x="329" 
d="M244 629l103 19c8 -17 12 -34 12 -53c0 -35 -14 -76 -47 -136l-54 -99c-72 -131 -126 -176 -202 -176c-23 0 -47 4 -70 12l-6 91l9 10c22 -6 42 -9 62 -9c27 0 53 7 76 21l-76 331l111 6l6 -61l23 -152h11l32 74c13 34 20 60 20 82c0 15 -3 27 -10 40z" />
    <glyph glyph-name="zero.tf" horiz-adv-x="481" 
d="M287 597c118 0 188 -78 188 -247c0 -207 -102 -362 -267 -362c-120 0 -190 81 -190 248c0 203 101 361 269 361zM258 416c-70 0 -86 -61 -86 -156c0 -68 10 -102 60 -102c65 0 89 60 89 157c0 73 -15 101 -63 101z" />
    <glyph glyph-name="one.tf" horiz-adv-x="475" 
d="M400 575l-55 -365l-18 -210h-196l32 190l22 183l-138 -20l-11 9l19 157l320 76z" />
    <glyph glyph-name="z.sups" horiz-adv-x="307" 
d="M333 626l-176 -216l18 4c5 0 31 -4 37 -4c29 0 41 10 47 53l13 4l44 -12c-2 -107 -43 -142 -102 -142c-47 0 -84 23 -116 23c-17 0 -26 -6 -44 -21h-14l-32 29l168 212l-62 -2l-51 -9l-8 8l18 91l10 7l69 -5l122 -4l27 15z" />
    <glyph glyph-name="f.t" horiz-adv-x="337" 
d="M553 362h-287l-22 -152l-25 -198l-4 -109l-177 -11l39 298l18 172h-62l-8 11l12 90h69v3c17 158 112 236 264 236l97 -10l9 -14l-48 -120l-23 -8c-32 18 -51 25 -66 25c-28 0 -45 -20 -52 -67l-6 -45h273l12 -14z" />
    <glyph glyph-name="two.tf" horiz-adv-x="476" 
d="M273 597c102 0 178 -60 178 -151c0 -59 -31 -112 -130 -220l-57 -69l3 -5h76l97 10l8 -13l-43 -157l-140 8h-226l-36 -3l-8 7l15 118l152 155c43 47 87 88 87 125c0 17 -9 30 -32 30c-30 0 -82 -24 -130 -62h-21l-13 151c69 46 148 76 220 76z" />
    </font>
</defs>
</svg>
