<?xml version="1.0" standalone="no"?>
<!DOCTYPE svg PUBLIC "-//W3C//DTD SVG 1.1//EN" "http://www.w3.org/Graphics/SVG/1.1/DTD/svg11.dtd" >
<svg>
<metadata>
Created by FontForge 20120731 at Fri Aug  1 16:50:18 2014
 By Alfred Xing
Font software Copyright (c) 2012 Intel Corporation. Licensed under the Apache License, Version 2.0.  http://www.apache.org/licenses/LICENSE-2.0
</metadata>
<defs>
<font id="ClearSans" horiz-adv-x="1085" >
  <font-face 
    font-family="Clear Sans"
    font-weight="400"
    font-stretch="normal"
    units-per-em="2048"
    panose-1="2 11 5 3 3 2 2 2 3 4"
    ascent="1489"
    descent="-559"
    x-height="1049"
    cap-height="1384"
    bbox="-377 -629 2673 2068"
    underline-thickness="102"
    underline-position="-103"
    unicode-range="U+000D-FEFF"
  />
<missing-glyph horiz-adv-x="1024" 
d="M25 1362h972v-1362h-972v1362zM512 768l330 498h-662zM123 186l330 496l-330 496v-992zM569 682l332 -498v994zM512 594l-332 -496h662z" />
    <glyph glyph-name="f_f" unicode="ff" horiz-adv-x="1266" 
d="M1309 1333q-29 15 -73 26t-79 11q-87 0 -121 -44.5t-34 -174.5v-102h233v-144h-233v-905h-172v905h-154v144h154v102q0 190 71.5 279.5t251.5 89.5q113 0 203 -39zM676 1333q-29 15 -73 26t-79 11q-87 0 -121 -44.5t-34 -174.5v-102h233v-144h-233v-905h-172v905h-154
v144h154v102q0 190 71.5 279.5t251.5 89.5q113 0 203 -39z" />
    <glyph glyph-name="fi" unicode="fi" horiz-adv-x="1143" 
d="M676 1333q-29 15 -73 26t-79 11q-87 0 -121 -44.5t-34 -174.5v-102h233v-144h-233v-905h-172v905h-154v144h154v102q0 190 71.5 279.5t251.5 89.5q113 0 203 -39zM1000 1315q0 -60 -27 -81.5t-86 -21.5q-63 0 -87 27t-24 76q0 53 26 77.5t85 24.5q61 0 87 -23.5t26 -78.5
zM801 0v1049h172v-1049h-172z" />
    <glyph glyph-name="fl" unicode="fl" horiz-adv-x="1159" 
d="M676 1333q-29 15 -73 26t-79 11q-87 0 -121 -44.5t-34 -174.5v-102h233v-144h-233v-905h-172v905h-154v144h154v102q0 190 71.5 279.5t251.5 89.5q113 0 203 -39zM809 0v1489h172v-1489h-172z" />
    <glyph glyph-name="f_f_i" unicode="ffi" horiz-adv-x="1776" 
d="M1309 1333q-29 15 -73 26t-79 11q-87 0 -121 -44.5t-34 -174.5v-102h233v-144h-233v-905h-172v905h-154v144h154v102q0 190 71.5 279.5t251.5 89.5q113 0 203 -39zM676 1333q-29 15 -73 26t-79 11q-87 0 -121 -44.5t-34 -174.5v-102h233v-144h-233v-905h-172v905h-154
v144h154v102q0 190 71.5 279.5t251.5 89.5q113 0 203 -39zM1633 1315q0 -60 -27 -81.5t-86 -21.5q-63 0 -87 27t-24 76q0 53 26 77.5t85 24.5q61 0 87 -23.5t26 -78.5zM1434 0v1049h172v-1049h-172z" />
    <glyph glyph-name="f_f_l" unicode="ffl" horiz-adv-x="1792" 
d="M1309 1333q-29 15 -73 26t-79 11q-87 0 -121 -44.5t-34 -174.5v-102h233v-144h-233v-905h-172v905h-154v144h154v102q0 190 71.5 279.5t251.5 89.5q113 0 203 -39zM676 1333q-29 15 -73 26t-79 11q-87 0 -121 -44.5t-34 -174.5v-102h233v-144h-233v-905h-172v905h-154
v144h154v102q0 190 71.5 279.5t251.5 89.5q113 0 203 -39zM1442 0v1489h172v-1489h-172z" />
    <glyph glyph-name=".notdef" horiz-adv-x="1024" 
d="M25 1362h972v-1362h-972v1362zM512 768l330 498h-662zM123 186l330 496l-330 496v-992zM569 682l332 -498v994zM512 594l-332 -496h662z" />
    <glyph glyph-name=".null" horiz-adv-x="0" 
 />
    <glyph glyph-name="nonmarkingreturn" unicode="&#xd;" horiz-adv-x="553" 
 />
    <glyph glyph-name="NULL" horiz-adv-x="0" 
 />
    <glyph glyph-name="NULL" horiz-adv-x="0" 
 />
    <glyph glyph-name="space" unicode=" " horiz-adv-x="553" 
 />
    <glyph glyph-name="exclam" unicode="!" horiz-adv-x="555" 
d="M352 399h-145l-29 985h199zM399 98q0 -63 -29.5 -87.5t-93.5 -24.5q-71 0 -95.5 29.5t-24.5 82.5q0 60 27.5 86.5t92.5 26.5q68 0 95.5 -26.5t27.5 -86.5z" />
    <glyph glyph-name="quotedbl" unicode="&#x22;" horiz-adv-x="924" 
d="M709 834h-127l-41 550h209zM342 834h-127l-41 550h209z" />
    <glyph glyph-name="numbersign" unicode="#" horiz-adv-x="1446" 
d="M1057 868l-94 -352h264v-123h-299l-105 -393h-129l103 393h-310l-104 -393h-129l104 393h-256v123h289l96 352h-268v125h301l105 391h129l-105 -391h309l107 391h129l-104 -391h253v-125h-286zM616 868l-96 -352h311l97 352h-312z" />
    <glyph glyph-name="dollar" unicode="$" horiz-adv-x="1264" 
d="M1108 422q0 -151 -103.5 -244t-293.5 -102v-209h-129v209q-271 13 -408 237l139 82q92 -159 269 -178v426q-217 49 -299 124.5t-82 209.5q0 148 105 236.5t276 95.5v104h129v-104q89 -4 159.5 -31t123.5 -71t106 -128l-142 -82q-87 157 -247 170v-391q219 -52 308 -134.5
t89 -219.5zM582 1167q-207 -15 -207 -184q0 -76 59.5 -115t147.5 -61v360zM936 412q0 77 -53.5 123.5t-171.5 78.5v-397q103 10 164 60.5t61 134.5z" />
    <glyph glyph-name="percent" unicode="%" horiz-adv-x="2089" 
d="M1610 -31q-367 0 -367 441q0 442 367 442q194 0 280 -115.5t86 -324.5q0 -443 -366 -443zM580 -51l778 1487h166l-781 -1487h-163zM479 530q-194 0 -280 116t-86 325q0 442 366 442q193 0 281 -118.5t88 -323.5q0 -207 -89 -324t-280 -117zM1610 102q69 0 110.5 31
t60.5 92t19 187q0 125 -19.5 185.5t-61 91t-109.5 30.5q-100 0 -145.5 -68.5t-45.5 -240.5t45.5 -240t145.5 -68zM479 664q101 0 146 67t45 240q0 174 -46 241.5t-145 67.5q-69 0 -110.5 -31t-59.5 -94t-18 -184q0 -126 18 -185.5t59 -90.5t111 -31z" />
    <glyph glyph-name="ampersand" unicode="&#x26;" horiz-adv-x="1425" 
d="M1120 0l-94 111q-102 -79 -197 -109.5t-204 -30.5q-228 0 -358 106t-130 283q0 89 28 154.5t88.5 123t205.5 142.5q-68 78 -115 158t-47 160q0 315 371 315q163 0 252.5 -75.5t89.5 -192.5q0 -111 -72 -205.5t-229 -189.5l331 -392q92 108 131 271l156 -39
q-63 -231 -180 -359l196 -231h-223zM834 1143q0 59 -43 98t-129 39q-94 0 -141.5 -45t-47.5 -129q0 -53 41 -113.5t94 -124.5q106 59 166 130.5t60 144.5zM561 662q-104 -68 -151.5 -111.5t-66.5 -85.5t-19 -109q0 -105 84.5 -170t220.5 -65q116 0 188 37t111 69z" />
    <glyph glyph-name="quotesingle" unicode="'" horiz-adv-x="557" 
d="M342 834h-127l-41 550h209z" />
    <glyph glyph-name="parenleft" unicode="(" horiz-adv-x="797" 
d="M520 -395q-190 218 -278 448.5t-88 507.5q0 283 88 510.5t278 448.5h195q-195 -188 -297.5 -433t-102.5 -526q0 -284 104 -526.5t296 -429.5h-195z" />
    <glyph glyph-name="parenright" unicode=")" horiz-adv-x="797" 
d="M82 -395q196 193 297.5 434.5t101.5 521.5q0 256 -93 504t-306 455h194q189 -218 278 -446t89 -513q0 -275 -85.5 -501t-281.5 -455h-194z" />
    <glyph glyph-name="asterisk" unicode="*" horiz-adv-x="948" 
d="M799 905l-271 158l2 -268h-112l2 268l-270 -160l-58 98l285 156l-285 156l58 96l270 -158l-2 269h112l-4 -269l273 158l57 -98l-285 -154l285 -156z" />
    <glyph glyph-name="plus" unicode="+" horiz-adv-x="1427" 
d="M784 514v-477h-143v477h-477v143h477v480h143v-480h480v-143h-480z" />
    <glyph glyph-name="comma" unicode="," horiz-adv-x="555" 
d="M182 -293q37 46 60.5 125.5t23.5 153.5q-59 0 -84.5 26.5t-25.5 85.5q0 56 27.5 84.5t92.5 28.5q66 0 94.5 -34t28.5 -99q0 -123 -36.5 -223.5t-75.5 -147.5h-105z" />
    <glyph glyph-name="hyphen" unicode="-" horiz-adv-x="827" 
d="M102 440v172h623v-172h-623z" />
    <glyph glyph-name="period" unicode="." horiz-adv-x="555" 
d="M399 98q0 -63 -29.5 -87.5t-93.5 -24.5q-71 0 -95.5 29.5t-24.5 82.5q0 60 27.5 86.5t92.5 26.5q68 0 95.5 -26.5t27.5 -86.5z" />
    <glyph glyph-name="slash" unicode="/" horiz-adv-x="991" 
d="M174 -299h-166l715 1819h168z" />
    <glyph glyph-name="zero" unicode="0" horiz-adv-x="1264" 
d="M1139 690q0 -371 -124 -546t-384 -175t-383 174t-123 545t123 545t383 174q262 0 385 -173t123 -544zM944 690q0 289 -75.5 423t-237.5 134q-160 0 -236 -135t-76 -424t76 -424t236 -135q162 0 237.5 135t75.5 426z" />
    <glyph glyph-name="one" unicode="1" horiz-adv-x="1264" 
d="M616 0v989h-335v129q136 8 205.5 32t108.5 73t69 161h133v-1384h-181z" />
    <glyph glyph-name="two" unicode="2" horiz-adv-x="1188" 
d="M139 0v195q245 208 355 312.5t182 186t111.5 159t39.5 169.5q0 103 -68 165t-181 62q-107 0 -174.5 -47t-114.5 -123l-154 99q72 124 185 179.5t266 55.5q201 0 318.5 -99.5t117.5 -281.5q0 -92 -26 -172.5t-81.5 -153.5t-149 -167t-417.5 -371h719v-168h-928z" />
    <glyph glyph-name="three" unicode="3" horiz-adv-x="1188" 
d="M1024 395q0 -213 -129 -318.5t-365 -105.5q-141 0 -257.5 55.5t-170.5 147.5l154 98q37 -57 107.5 -98t164.5 -41q156 0 228.5 66.5t72.5 208.5q0 247 -317 247h-102v160h86q143 0 226 61.5t83 174.5q0 102 -67.5 151t-178.5 49q-190 0 -289 -153l-155 98q62 109 179 163
t277 54q134 0 231 -41t147 -116.5t50 -176.5q0 -139 -68.5 -219t-209.5 -115q131 -10 217 -98t86 -252z" />
    <glyph glyph-name="four" unicode="4" horiz-adv-x="1264" 
d="M956 307v-307h-178v307h-712v178l720 899h170v-917h191v-160h-191zM778 1120l-530 -653h530v653z" />
    <glyph glyph-name="five" unicode="5" horiz-adv-x="1188" 
d="M1044 442q0 -217 -125.5 -344t-373.5 -127q-160 0 -270.5 59.5t-161.5 143.5l153 100q35 -55 104.5 -98t170.5 -43q155 0 233 83t78 226q0 125 -80 198t-229 73t-258 -72h-90l75 743h725v-167h-573l-43 -396q43 23 102.5 35t116.5 12q213 0 329.5 -108t116.5 -318z" />
    <glyph glyph-name="six" unicode="6" horiz-adv-x="1188" 
d="M606 -29q-251 0 -367 176.5t-116 518.5q0 356 144 551.5t399 195.5q118 0 204 -33.5t158 -99.5l-115 -143q-59 57 -114.5 86.5t-132.5 29.5q-304 0 -342 -473q57 41 144 74t189 33q191 0 305.5 -107.5t114.5 -330.5q0 -232 -125 -355t-346 -123zM614 131q138 0 207.5 80
t69.5 231q0 283 -281 283q-78 0 -156.5 -27.5t-131.5 -60.5q0 -266 71.5 -386t220.5 -120z" />
    <glyph glyph-name="seven" unicode="7" horiz-adv-x="1264" 
d="M578 0h-205l547 1217h-781v167h967v-172z" />
    <glyph glyph-name="eight" unicode="8" horiz-adv-x="1188" 
d="M1079 356q0 -194 -131 -289.5t-352 -95.5q-240 0 -362.5 98.5t-122.5 286.5q0 267 299 379q-116 57 -163 98.5t-75.5 96.5t-28.5 129q0 168 115 261t338 93q219 0 335 -90t116 -262q0 -72 -30 -129.5t-80 -101.5t-159 -95q158 -69 229.5 -159t71.5 -220zM862 1057
q0 94 -66.5 151.5t-199.5 57.5q-141 0 -204.5 -57.5t-63.5 -145.5q0 -54 25 -90.5t79.5 -73.5t163.5 -88q125 51 195.5 108.5t70.5 137.5zM895 356q0 62 -28 111t-84.5 91t-186.5 101q-128 -53 -183 -94t-86.5 -93t-31.5 -118q0 -106 73.5 -169.5t227.5 -63.5
q156 0 227.5 65.5t71.5 169.5z" />
    <glyph glyph-name="nine" unicode="9" horiz-adv-x="1188" 
d="M254 248q59 -58 120.5 -87.5t139.5 -29.5q158 0 244 113.5t106 359.5q-59 -41 -146 -73.5t-186 -32.5q-192 0 -306.5 106.5t-114.5 331.5q0 229 124.5 353t342.5 124q260 0 373.5 -173t113.5 -501q0 -247 -61 -416.5t-184 -260.5t-306 -91q-228 0 -373 135zM578 659
q77 0 156 28t132 61q0 189 -28.5 288t-90 158t-169.5 59q-138 0 -210.5 -80.5t-72.5 -230.5q0 -283 283 -283z" />
    <glyph glyph-name="colon" unicode=":" horiz-adv-x="555" 
d="M399 936q0 -64 -29.5 -88.5t-93.5 -24.5q-71 0 -95.5 30t-24.5 83q0 59 27.5 86t92.5 27q68 0 95.5 -27t27.5 -86zM399 98q0 -63 -29.5 -87.5t-93.5 -24.5q-71 0 -95.5 29.5t-24.5 82.5q0 60 27.5 86.5t92.5 26.5q68 0 95.5 -26.5t27.5 -86.5z" />
    <glyph glyph-name="semicolon" unicode=";" horiz-adv-x="555" 
d="M399 936q0 -64 -29.5 -88.5t-93.5 -24.5q-71 0 -95.5 30t-24.5 83q0 59 27.5 86t92.5 27q68 0 95.5 -27t27.5 -86zM399 78q0 -123 -36.5 -223.5t-75.5 -147.5h-105q36 46 60 128t24 151q-59 0 -84.5 26.5t-25.5 85.5q0 56 27.5 84.5t92.5 28.5q68 0 95.5 -34t27.5 -99z
" />
    <glyph glyph-name="less" unicode="&#x3c;" horiz-adv-x="1427" 
d="M164 524v125l1100 463v-156l-902 -370l902 -369v-156z" />
    <glyph glyph-name="equal" unicode="=" horiz-adv-x="1427" 
d="M164 745v144h1100v-144h-1100zM164 283v143h1100v-143h-1100z" />
    <glyph glyph-name="greater" unicode="&#x3e;" horiz-adv-x="1427" 
d="M164 61v156l899 369l-899 370v156l1100 -463v-125z" />
    <glyph glyph-name="question" unicode="?" horiz-adv-x="1049" 
d="M356 379v274q223 106 306 190.5t83 186.5q0 103 -66.5 161t-191.5 58q-108 0 -170.5 -41t-97.5 -100l-151 98q51 92 151 149.5t266 57.5q208 0 331.5 -94.5t123.5 -267.5q0 -96 -40.5 -172t-115 -140t-254.5 -161v-199h-174zM567 98q0 -63 -29.5 -87.5t-93.5 -24.5
q-71 0 -95.5 29.5t-24.5 82.5q0 60 27.5 86.5t92.5 26.5q68 0 95.5 -26.5t27.5 -86.5z" />
    <glyph glyph-name="at" unicode="@" horiz-adv-x="1935" 
d="M1815 569q0 -266 -102 -409.5t-281 -143.5q-107 0 -165.5 31t-78.5 111q-146 -115 -297 -115q-120 0 -202 58t-125.5 167t-43.5 248q0 240 111 373t309 133q124 0 240 -82v53h170v-723q0 -65 21.5 -88.5t74.5 -23.5q97 0 156 108.5t59 294.5q0 343 -175.5 527t-502.5 184
q-201 0 -364 -93t-254 -260t-91 -368q0 -327 188.5 -523t516.5 -196q241 0 428 45l33 -143q-185 -43 -463 -43q-256 0 -450 105.5t-300 302t-106 454.5q0 239 110 437t309 310.5t441 112.5q396 0 615 -224.5t219 -619.5zM1178 791q-123 79 -211 79q-148 0 -210.5 -89
t-62.5 -261q0 -317 236 -317q101 0 248 106v482z" />
    <glyph glyph-name="A" unicode="A" horiz-adv-x="1288" 
d="M51 0l473 1384h240l473 -1384h-195l-120 360h-564l-118 -360h-189zM414 528h450l-225 674z" />
    <glyph glyph-name="B" unicode="B" horiz-adv-x="1272" 
d="M1157 406q0 -213 -136 -309.5t-388 -96.5h-451v1384h410q254 0 366.5 -72.5t112.5 -242.5q0 -139 -61.5 -212t-153.5 -101q137 -19 219 -101t82 -249zM881 1028q0 106 -66 149.5t-235 43.5h-213v-412h204q166 0 238 53t72 166zM965 414q0 86 -33.5 135.5t-103.5 72.5
t-226 23h-235v-477h188q176 0 255 23.5t117 77t38 145.5z" />
    <glyph glyph-name="C" unicode="C" horiz-adv-x="1321" 
d="M1243 242q-66 -106 -134.5 -160.5t-159.5 -82.5t-214 -28q-311 0 -458.5 179.5t-147.5 541.5q0 361 146.5 541t451.5 180q121 0 216 -30t160.5 -82.5t119.5 -147.5l-152 -100q-44 74 -89 112.5t-108 61t-147 22.5q-208 0 -305.5 -138.5t-97.5 -418.5q0 -276 96 -416.5
t309 -140.5q118 0 205 46.5t156 160.5z" />
    <glyph glyph-name="D" unicode="D" horiz-adv-x="1292" 
d="M1174 692q0 -254 -65.5 -404t-202 -219t-384.5 -69h-352v1384h348q242 0 382 -69.5t207 -220.5t67 -402zM979 694q0 198 -44 310t-145 162.5t-282 50.5h-154v-1049h154q182 0 281.5 50.5t144.5 162t45 313.5z" />
    <glyph glyph-name="E" unicode="E" horiz-adv-x="1153" 
d="M182 0v1384h846v-167h-661v-404h565v-168h-565v-477h661v-168h-846z" />
    <glyph glyph-name="F" unicode="F" horiz-adv-x="1108" 
d="M367 1217v-404h555v-168h-555v-645h-185v1384h838v-167h-653z" />
    <glyph glyph-name="G" unicode="G" horiz-adv-x="1391" 
d="M1075 1051q-49 90 -130 144t-218 54q-209 0 -306 -138t-97 -423q0 -291 105 -422t312 -131q80 0 148.5 18.5t148.5 53.5v328h-336v167h521v-596q-113 -63 -224.5 -99t-257.5 -36q-312 0 -462 179t-150 540q0 366 150.5 544.5t449.5 178.5q170 0 293.5 -60t202.5 -200z
" />
    <glyph glyph-name="H" unicode="H" horiz-adv-x="1364" 
d="M997 0v633h-630v-633h-185v1384h185v-583h630v583h185v-1384h-185z" />
    <glyph glyph-name="I" unicode="I" horiz-adv-x="770" 
d="M668 0h-566v160h191v1067h-191v157h566v-157h-191v-1067h191v-160z" />
    <glyph glyph-name="J" unicode="J" horiz-adv-x="885" 
d="M700 377q0 -203 -89 -305.5t-300 -102.5q-59 0 -133 14.5t-127 36.5l68 158q32 -16 92 -30.5t98 -14.5q81 0 125 28t63 92.5t19 199.5v931h184v-1007z" />
    <glyph glyph-name="K" unicode="K" horiz-adv-x="1264" 
d="M975 0l-477 614l-131 -147v-467h-185v1384h185v-679l585 679h230l-566 -636l594 -748h-235z" />
    <glyph glyph-name="L" unicode="L" horiz-adv-x="1038" 
d="M182 0v1384h185v-1216h626v-168h-811z" />
    <glyph glyph-name="M" unicode="M" horiz-adv-x="1593" 
d="M1235 0v1147l-383 -770h-115l-379 770v-1147h-176v1384h250l367 -753l370 753h242v-1384h-176z" />
    <glyph glyph-name="N" unicode="N" horiz-adv-x="1386" 
d="M985 0l-625 1188v-1188h-178v1384h271l573 -1087v1087h178v-1384h-219z" />
    <glyph glyph-name="O" unicode="O" horiz-adv-x="1364" 
d="M1245 692q0 -373 -140.5 -547t-422.5 -174q-286 0 -424.5 177t-138.5 544q0 364 137 542.5t426 178.5q285 0 424 -175t139 -546zM1051 692q0 287 -86.5 422t-282.5 135t-282.5 -135t-86.5 -422q0 -289 87.5 -423t281.5 -134q193 0 281 133t88 424z" />
    <glyph glyph-name="P" unicode="P" horiz-adv-x="1182" 
d="M1083 942q0 -250 -117.5 -361.5t-381.5 -111.5h-217v-469h-185v1384h410q259 0 375 -107t116 -335zM889 938q0 145 -72 212t-246 67h-204v-580h178q146 0 213.5 28.5t99 92t31.5 180.5z" />
    <glyph glyph-name="Q" unicode="Q" horiz-adv-x="1364" 
d="M1249 -293q-103 -35 -225 -35q-190 0 -290.5 80t-141.5 223q-246 27 -359.5 205t-113.5 512q0 371 139 546t426 175q281 0 421 -175.5t140 -545.5q0 -327 -108.5 -502.5t-335.5 -212.5q20 -65 71.5 -104t159.5 -39q31 0 78 7t82 18zM1051 692q0 273 -82 415t-285 142
q-194 0 -282.5 -133.5t-88.5 -423.5q0 -292 89 -424.5t282 -132.5q192 0 279.5 134t87.5 423z" />
    <glyph glyph-name="R" unicode="R" horiz-adv-x="1237" 
d="M961 0l-353 565h-241v-565h-185v1384h430q258 0 370 -95t112 -294q0 -170 -68.5 -269t-222.5 -132l375 -594h-217zM903 981q0 137 -69.5 188.5t-223.5 51.5h-243v-492h231q116 0 182.5 24.5t94.5 78t28 149.5z" />
    <glyph glyph-name="S" unicode="S" horiz-adv-x="1227" 
d="M1112 379q0 -194 -127.5 -301t-372.5 -107q-187 0 -312 66t-204 205l150 100q117 -207 362 -207q147 0 231.5 61.5t84.5 168.5q0 61 -27 103t-71 70.5t-101 46t-119 33.5q-102 25 -190 51.5t-152.5 68.5t-101.5 107.5t-37 168.5q0 184 118.5 291.5t354.5 107.5
q188 0 300 -69.5t177 -178.5l-147 -104q-54 90 -131.5 139t-198.5 49q-135 0 -210 -59.5t-75 -159.5q0 -53 22.5 -89t64.5 -60.5t104.5 -42t142.5 -37.5q94 -25 179 -52.5t148.5 -72.5t100.5 -116t37 -181z" />
    <glyph glyph-name="T" unicode="T" horiz-adv-x="1184" 
d="M684 1217v-1217h-184v1217h-459v167h1102v-167h-459z" />
    <glyph glyph-name="U" unicode="U" horiz-adv-x="1405" 
d="M1223 578q0 -227 -51 -358t-160.5 -191t-306.5 -60q-196 0 -309 61t-163.5 193t-50.5 355v806h185v-786q0 -182 33 -280.5t104.5 -141.5t197.5 -43q127 0 199 42.5t104.5 135.5t32.5 283v790h185v-806z" />
    <glyph glyph-name="V" unicode="V" horiz-adv-x="1225" 
d="M733 0h-248l-434 1384h193l370 -1206l371 1206h189z" />
    <glyph glyph-name="W" unicode="W" horiz-adv-x="1757" 
d="M1356 0h-221l-261 1108l-262 -1108h-217l-327 1384h184l258 -1118l262 1118h209l266 -1126l262 1126h181z" />
    <glyph glyph-name="X" unicode="X" horiz-adv-x="1208" 
d="M53 0l449 694l-436 690h217l327 -546l338 546h207l-442 -684l442 -700h-217l-336 557l-342 -557h-207z" />
    <glyph glyph-name="Y" unicode="Y" horiz-adv-x="1147" 
d="M666 535v-535h-187v526l-438 858h209l325 -673l332 673h199z" />
    <glyph glyph-name="Z" unicode="Z" horiz-adv-x="1163" 
d="M92 0v176l729 1041h-698v167h917v-165l-737 -1051h754v-168h-965z" />
    <glyph glyph-name="bracketleft" unicode="[" horiz-adv-x="805" 
d="M195 -395v1884h487v-133h-330v-1618h330v-133h-487z" />
    <glyph glyph-name="backslash" unicode="\" horiz-adv-x="991" 
d="M817 -299l-717 1819h168l715 -1819h-166z" />
    <glyph glyph-name="bracketright" unicode="]" horiz-adv-x="805" 
d="M123 -395v133h330v1618h-330v133h487v-1884h-487z" />
    <glyph glyph-name="asciicircum" unicode="^" horiz-adv-x="1243" 
d="M948 594l-325 637l-328 -637h-152l404 790h149l404 -790h-152z" />
    <glyph glyph-name="underscore" unicode="_" horiz-adv-x="1024" 
d="M-10 -256v102h1044v-102h-1044z" />
    <glyph glyph-name="grave" unicode="`" 
d="M541 1208l-273 361h236l178 -361h-141z" />
    <glyph glyph-name="a" unicode="a" horiz-adv-x="1100" 
d="M766 0v131q-80 -70 -161 -116t-183 -46q-150 0 -231.5 91.5t-81.5 234.5q0 108 42.5 179.5t123 113t233.5 59.5l258 23v51q0 121 -67.5 165t-186.5 44q-106 0 -163.5 -37t-82.5 -80l-141 86q48 87 146.5 133.5t244.5 46.5q226 0 324 -82t98 -284v-713h-172zM766 532
l-168 -16q-171 -15 -241 -66.5t-70 -150.5q0 -94 47 -135t141 -41q39 0 77 14.5t75 36t71.5 49t67.5 53.5v256z" />
    <glyph glyph-name="b" unicode="b" horiz-adv-x="1174" 
d="M1057 532q0 -265 -108.5 -414t-303.5 -149q-84 0 -164 34t-139 83v-86h-172v1489h172v-545q59 57 142 96t178 39q194 0 294.5 -142t100.5 -405zM879 528q0 210 -64 304t-186 94q-80 0 -155 -41t-132 -94v-555q57 -48 132 -80.5t147 -32.5q116 0 187 98t71 307z" />
    <glyph glyph-name="c" unicode="c" horiz-adv-x="1030" 
d="M958 162q-49 -84 -136 -138.5t-240 -54.5q-231 0 -348 139.5t-117 413.5t116 415.5t342 141.5q259 0 369 -192l-141 -86q-39 61 -91.5 95t-138.5 34q-151 0 -214.5 -109.5t-63.5 -302.5q0 -147 30 -229t93.5 -126t161.5 -44q84 0 137 31.5t100 97.5z" />
    <glyph glyph-name="d" unicode="d" horiz-adv-x="1174" 
d="M831 0v104q-59 -57 -142 -96t-177 -39q-189 0 -292 142.5t-103 404.5q0 257 112 410t310 153q159 0 292 -116v526h173v-1489h-173zM831 813q-137 113 -270 113q-117 0 -191.5 -98.5t-74.5 -307.5q0 -397 250 -397q82 0 156.5 41t129.5 94v555z" />
    <glyph glyph-name="e" unicode="e" horiz-adv-x="1081" 
d="M295 504q0 -208 71 -296.5t228 -88.5q70 0 123 29.5t102 95.5l142 -88q-60 -90 -146 -138.5t-233 -48.5q-234 0 -349.5 136t-115.5 411q0 288 112.5 425.5t339.5 137.5q204 0 306 -117.5t102 -361.5v-96h-682zM809 639q-2 141 -59.5 219t-186.5 78q-123 0 -184.5 -70.5
t-81.5 -226.5h512z" />
    <glyph glyph-name="f" unicode="f" horiz-adv-x="633" 
d="M676 1333q-29 15 -73 26t-79 11q-87 0 -121 -44.5t-34 -174.5v-102h233v-144h-233v-905h-172v905h-154v144h154v102q0 190 71.5 279.5t251.5 89.5q113 0 203 -39z" />
    <glyph glyph-name="g" unicode="g" horiz-adv-x="1174" 
d="M1004 23q0 -211 -104.5 -314.5t-346.5 -103.5q-231 0 -381 98l64 139q135 -94 317 -94q147 0 212.5 61.5t65.5 202.5v123q-59 -57 -141 -96t-178 -39q-193 0 -294 137.5t-101 397.5q0 256 113 400t309 144q159 0 292 -116v86h173v-1026zM831 813q-137 113 -270 113
q-131 0 -198.5 -102t-67.5 -285q0 -202 63 -293.5t187 -91.5q144 0 286 135v524z" />
    <glyph glyph-name="h" unicode="h" horiz-adv-x="1163" 
d="M829 0v618q0 150 -14.5 199.5t-48.5 72.5t-100 23t-154 -50t-170 -122v-741h-172v1489h172v-596q73 73 170 129.5t195 56.5q152 0 223 -86.5t71 -292.5v-700h-172z" />
    <glyph glyph-name="i" unicode="i" horiz-adv-x="512" 
d="M369 1315q0 -60 -27 -81.5t-86 -21.5q-63 0 -87 27t-24 76q0 53 26 77.5t85 24.5q61 0 87 -23.5t26 -78.5zM170 0v1049h172v-1049h-172z" />
    <glyph glyph-name="j" unicode="j" horiz-adv-x="537" 
d="M385 1315q0 -60 -26.5 -81.5t-86.5 -21.5q-63 0 -86.5 27t-23.5 76q0 53 25.5 77.5t84.5 24.5q62 0 87.5 -23.5t25.5 -78.5zM358 -45q0 -190 -74 -270t-239 -80q-100 0 -188 30l43 142q73 -29 151 -29q84 0 109.5 58.5t25.5 168.5v1074h172v-1094z" />
    <glyph glyph-name="k" unicode="k" horiz-adv-x="1049" 
d="M788 0l-333 471l-113 -125v-346h-172v1489h172v-930l426 490h211l-418 -459l440 -590h-213z" />
    <glyph glyph-name="l" unicode="l" horiz-adv-x="528" 
d="M178 0v1489h172v-1489h-172z" />
    <glyph glyph-name="m" unicode="m" horiz-adv-x="1712" 
d="M1378 0v618q0 156 -12 206t-42 69.5t-91 19.5q-52 0 -117 -37t-170 -135v-741h-172v618q0 148 -12 200t-41 73.5t-90 21.5q-56 0 -131 -44.5t-158 -127.5v-741h-172v1049h172v-156q68 74 152 130t180 56q106 0 169.5 -49t84.5 -156q82 87 167 146t189 59q96 0 154 -40.5
t85 -117t27 -221.5v-700h-172z" />
    <glyph glyph-name="n" unicode="n" horiz-adv-x="1163" 
d="M829 0v618q0 150 -15 200t-49 72.5t-99 22.5q-66 0 -154 -50t-170 -122v-741h-172v1049h172v-156q73 73 170 129.5t195 56.5q152 0 223 -86.5t71 -292.5v-700h-172z" />
    <glyph glyph-name="o" unicode="o" horiz-adv-x="1157" 
d="M1040 522q0 -273 -117.5 -413t-342.5 -140t-344 138.5t-119 414.5q0 281 119.5 419t343.5 138q226 0 343 -140.5t117 -416.5zM862 522q0 214 -70.5 311t-211.5 97q-145 0 -215 -97.5t-70 -310.5q0 -205 67.5 -304t217.5 -99q143 0 212.5 98t69.5 305z" />
    <glyph glyph-name="p" unicode="p" horiz-adv-x="1174" 
d="M1057 532q0 -258 -112.5 -410.5t-309.5 -152.5q-157 0 -293 117v-481h-172v1444h172v-105q59 57 142 96t178 39q187 0 291 -141.5t104 -405.5zM879 528q0 398 -250 398q-82 0 -157 -41t-130 -94v-555q134 -113 270 -113q117 0 192 98t75 307z" />
    <glyph glyph-name="q" unicode="q" horiz-adv-x="1174" 
d="M831 -395v499q-59 -57 -142 -96t-177 -39q-191 0 -293 139t-102 408q0 265 108 414t303 149q84 0 164 -33.5t139 -82.5v86h173v-1444h-173zM831 813q-57 47 -131.5 80t-146.5 33q-117 0 -187.5 -98.5t-70.5 -307.5t63 -303t187 -94q141 0 286 135v555z" />
    <glyph glyph-name="r" unicode="r" horiz-adv-x="811" 
d="M737 879q-28 12 -80 12q-77 0 -148.5 -35.5t-166.5 -130.5v-725h-172v1049h172v-170q72 73 151.5 129.5t176.5 56.5q65 0 104 -21z" />
    <glyph glyph-name="s" unicode="s" horiz-adv-x="991" 
d="M887 283q0 -147 -104 -230.5t-296 -83.5q-131 0 -235 49.5t-152 139.5l138 84q79 -127 254 -127q114 0 170.5 43.5t56.5 117.5q0 44 -20 71.5t-62 48t-172 55.5q-187 43 -263.5 119t-76.5 202q0 139 100 223t277 84q137 0 230 -54t136 -130l-137 -84q-82 123 -233 123
q-86 0 -145.5 -38t-59.5 -118q0 -71 52 -103t163 -59q178 -46 246 -86t100.5 -98.5t32.5 -148.5z" />
    <glyph glyph-name="t" unicode="t" horiz-adv-x="729" 
d="M694 0q-100 -31 -198 -31q-160 0 -229.5 84t-69.5 264v588h-150v144h150v292h172v-292h266v-144h-266v-555q0 -127 25.5 -182t113.5 -55q76 0 141 28z" />
    <glyph glyph-name="u" unicode="u" horiz-adv-x="1163" 
d="M821 0v156q-80 -80 -176 -133.5t-188 -53.5q-105 0 -170.5 39.5t-95 119t-29.5 220.5v701h172v-619q0 -150 15.5 -200t49.5 -72.5t99 -22.5t153 50.5t170 121.5v742h172v-1049h-172z" />
    <glyph glyph-name="v" unicode="v" horiz-adv-x="1008" 
d="M588 0h-170l-367 1049h185l272 -824l270 824h178z" />
    <glyph glyph-name="w" unicode="w" horiz-adv-x="1475" 
d="M1153 0h-160l-256 803l-256 -803h-157l-261 1049h179l178 -799l250 799h143l256 -799l170 799h172z" />
    <glyph glyph-name="x" unicode="x" horiz-adv-x="1012" 
d="M741 0l-241 399l-250 -399h-195l348 518l-344 531h211l242 -398l248 398h196l-348 -519l348 -530h-215z" />
    <glyph glyph-name="y" unicode="y" horiz-adv-x="1040" 
d="M39 -223q65 -29 151 -29q121 0 205 219l35 90l-383 992h186l289 -768l291 768h180l-448 -1129q-71 -173 -152 -244t-211 -71q-47 0 -100 9t-86 21z" />
    <glyph glyph-name="z" unicode="z" horiz-adv-x="934" 
d="M82 0v131l547 774h-535v144h742v-125l-549 -779h565v-145h-770z" />
    <glyph glyph-name="braceleft" unicode="{" horiz-adv-x="977" 
d="M805 -395q-180 0 -286.5 98t-106.5 283v147q0 178 -74.5 267t-216.5 89h-19v148h19q291 0 291 356v146q0 188 107.5 284.5t285.5 96.5h69v-134h-51q-131 0 -192.5 -65.5t-61.5 -198.5v-172q0 -157 -73.5 -249.5t-206.5 -139.5q280 -95 280 -387v-172q0 -133 61.5 -198.5
t192.5 -65.5h51v-133h-69z" />
    <glyph glyph-name="bar" unicode="|" horiz-adv-x="852" 
d="M348 -395v1915h156v-1915h-156z" />
    <glyph glyph-name="braceright" unicode="}" horiz-adv-x="977" 
d="M102 -395v133h52q131 0 192.5 65.5t61.5 198.5v172q0 292 280 387q-133 47 -206.5 139.5t-73.5 249.5v172q0 133 -61.5 198.5t-192.5 65.5h-52v134h70q193 0 293 -98.5t100 -282.5v-146q0 -356 291 -356h18v-148h-18q-142 0 -216.5 -89t-74.5 -267v-147
q0 -185 -105.5 -283t-287.5 -98h-70z" />
    <glyph glyph-name="asciitilde" unicode="~" horiz-adv-x="1427" 
d="M164 774q100 80 178 103.5t127 23.5q61 0 125.5 -24.5t129 -54t126 -54.5t117.5 -25q47 0 91.5 16t84.5 38.5t121 89.5v-160q-17 -12 -45.5 -32.5t-66.5 -42t-85 -37t-96 -15.5q-62 0 -130.5 24.5t-136 54.5t-130 54.5t-109.5 24.5q-66 0 -144 -37.5t-157 -106.5v160z
" />
    <glyph glyph-name="uni00A0" unicode="&#xa0;" horiz-adv-x="553" 
 />
    <glyph glyph-name="exclamdown" unicode="&#xa1;" horiz-adv-x="555" 
d="M399 967q0 -60 -27.5 -86.5t-92.5 -26.5q-68 0 -95.5 26.5t-27.5 86.5q0 63 29.5 87.5t93.5 24.5q71 0 95.5 -29.5t24.5 -82.5zM178 -395l25 1087h145l29 -1087h-199z" />
    <glyph glyph-name="cent" unicode="&#xa2;" horiz-adv-x="1030" 
d="M346 -260l55 256q-153 51 -218.5 190.5t-65.5 335.5q0 274 116 415.5t342 141.5q32 0 64 -4l47 213h119l-53 -237q125 -43 192 -164l-141 -86q-41 61 -86 90l-168 -772h31q84 0 137 31.5t100 97.5l141 -86q-49 -84 -136 -138.5t-240 -54.5q-34 0 -66 4l-51 -233h-119z
M295 518q0 -129 29.5 -225t111.5 -141l170 776l-16 2h-17q-151 0 -214.5 -109.5t-63.5 -302.5z" />
    <glyph glyph-name="sterling" unicode="&#xa3;" horiz-adv-x="1264" 
d="M113 0v156q69 14 107 70.5t55.5 135t17.5 226.5h-156v131h150l-10 49q-44 159 -44 276q0 173 127 271t342 98q306 0 443 -219l-154 -90q-45 72 -118.5 115t-170.5 43q-135 0 -206.5 -64.5t-71.5 -181.5q0 -76 24 -172q25 -104 27 -125h381v-131h-373q0 -175 -41 -276.5
t-120 -155.5h837v-156h-1046z" />
    <glyph glyph-name="currency" unicode="&#xa4;" horiz-adv-x="1264" 
d="M211 74l-92 90l194 198q-71 100 -71 224q0 135 69 225l-192 195l92 92l192 -191q100 76 228 76q133 0 229 -74l193 189l90 -92l-187 -191q74 -96 74 -229q0 -115 -76 -228l189 -194l-90 -90l-195 190q-59 -41 -113.5 -55t-113.5 -14q-127 0 -223 71zM885 586
q0 109 -73.5 183.5t-180.5 74.5q-106 0 -175 -75.5t-69 -182.5q0 -66 31 -124t88.5 -93t124.5 -35q109 0 181.5 74t72.5 178z" />
    <glyph glyph-name="yen" unicode="&#xa5;" horiz-adv-x="1264" 
d="M823 760h303v-121h-374l-29 -45v-105h403v-120h-403v-369h-184v369h-402v120h402v97l-33 53h-369v121h299l-370 624h208l361 -624l364 624h199z" />
    <glyph glyph-name="brokenbar" unicode="&#xa6;" horiz-adv-x="852" 
d="M348 883v637h156v-637h-156zM348 -395v637h156v-637h-156z" />
    <glyph glyph-name="section" unicode="&#xa7;" horiz-adv-x="1081" 
d="M973 500q0 -101 -59.5 -170.5t-182.5 -145.5q100 -67 142 -127.5t42 -124.5q0 -151 -108.5 -225t-286.5 -74q-263 0 -383 148l127 96q95 -102 252 -102q115 0 167 36.5t52 112.5q0 53 -50.5 97.5t-195.5 119.5q-161 87 -230.5 142.5t-109.5 118t-40 143.5q0 104 68.5 179
t174.5 138q-92 64 -136 123t-44 131q0 135 98.5 216t296.5 81q270 0 383 -147l-127 -97q-87 101 -252 101q-219 0 -219 -146q0 -59 55.5 -103t172.5 -110q173 -96 248 -156.5t110 -122.5t35 -132zM805 492q0 42 -30 83t-88.5 84.5t-203.5 124.5q-90 -55 -148.5 -110.5
t-58.5 -122.5q0 -55 60.5 -116t164.5 -117l101 -56q90 60 146.5 108t56.5 122z" />
    <glyph glyph-name="dieresis" unicode="&#xa8;" 
d="M852 1315q0 -60 -24.5 -83.5t-84.5 -23.5q-63 0 -84.5 29t-21.5 78q0 53 23.5 79.5t82.5 26.5q62 0 85.5 -25.5t23.5 -80.5zM457 1315q0 -60 -24.5 -83.5t-84.5 -23.5q-63 0 -84.5 29t-21.5 78q0 53 23.5 79.5t82.5 26.5q62 0 85.5 -25.5t23.5 -80.5z" />
    <glyph glyph-name="copyright" unicode="&#xa9;" horiz-adv-x="1855" 
d="M928 -197q-220 0 -405.5 107.5t-292.5 294t-107 405.5q0 221 106 405.5t293.5 291t405.5 106.5q221 0 405.5 -106t291 -293.5t106.5 -403.5q0 -221 -106.5 -408t-292 -293t-404.5 -106zM928 -68q179 0 335.5 90.5t246 247.5t89.5 340t-90.5 340t-246 246.5t-334.5 89.5
q-181 0 -336.5 -90.5t-245.5 -247.5t-90 -338q0 -183 89 -339t245 -247.5t338 -91.5zM952 170q-204 0 -299.5 109.5t-95.5 332.5q0 224 94 334.5t297 110.5q123 0 200 -49.5t118 -126.5l-119 -74q-29 51 -73 89t-128 38q-135 0 -189.5 -81t-54.5 -241q0 -163 58.5 -241
t187.5 -78q136 0 211 133l119 -72q-57 -96 -136 -140t-190 -44z" />
    <glyph glyph-name="ordfeminine" unicode="&#xaa;" horiz-adv-x="780" 
d="M518 817v72q-47 -39 -98 -64.5t-115 -25.5q-102 0 -157.5 60.5t-55.5 154.5q0 104 62.5 160.5t205.5 72.5l158 13v24q0 72 -39 96.5t-114 24.5q-113 0 -158 -78l-109 66q31 51 91.5 89t177.5 38q147 0 215.5 -52.5t68.5 -189.5v-461h-133zM518 1153l-98 -10
q-92 -8 -142.5 -33t-50.5 -94q0 -53 28 -77t85 -24q47 0 91 29t87 64v145z" />
    <glyph glyph-name="guillemotleft" unicode="&#xab;" horiz-adv-x="1225" 
d="M954 53l-393 471l393 471h197l-393 -471l393 -471h-197zM465 53l-393 471l393 471h197l-394 -471l394 -471h-197z" />
    <glyph glyph-name="logicalnot" unicode="&#xac;" horiz-adv-x="1427" 
d="M1120 367v460h-956v144h1100v-604h-144z" />
    <glyph glyph-name="uni00AD" unicode="&#xad;" horiz-adv-x="827" 
d="M102 440v172h623v-172h-623z" />
    <glyph glyph-name="registered" unicode="&#xae;" horiz-adv-x="1855" 
d="M928 -197q-220 0 -405.5 107.5t-292.5 294t-107 405.5q0 221 106 405.5t293.5 291t405.5 106.5q221 0 405.5 -106t291 -293.5t106.5 -403.5q0 -221 -106.5 -408t-292 -293t-404.5 -106zM928 -68q179 0 335.5 90.5t246 247.5t89.5 340t-90.5 340t-246 246.5t-334.5 89.5
q-181 0 -336.5 -90.5t-245.5 -247.5t-90 -338q0 -183 89 -339t245 -247.5t338 -91.5zM643 201v850h275q151 0 232 -52.5t81 -193.5q0 -111 -46 -168t-124 -80l233 -356h-164l-217 336h-131v-336h-139zM782 657h129q103 0 138.5 32t35.5 110q0 73 -36.5 103t-130.5 30h-136
v-275z" />
    <glyph glyph-name="macron" unicode="&#xaf;" 
d="M238 1255v140h610v-140h-610z" />
    <glyph glyph-name="degree" unicode="&#xb0;" horiz-adv-x="864" 
d="M713 1241q0 -76 -39 -143t-103 -103.5t-137 -36.5q-119 0 -200.5 84t-81.5 199q0 112 80 195.5t200 83.5q116 0 198.5 -81.5t82.5 -197.5zM594 1239q0 68 -46 115t-114 47q-72 0 -118 -48t-46 -112q0 -67 47.5 -115.5t116.5 -48.5q68 0 114 48.5t46 113.5z" />
    <glyph glyph-name="plusminus" unicode="&#xb1;" horiz-adv-x="1427" 
d="M784 809v-479h-143v479h-477v143h477v478h143v-478h480v-143h-480zM164 0v143h1100v-143h-1100z" />
    <glyph glyph-name="twosuperior" unicode="&#xb2;" horiz-adv-x="889" 
d="M115 655v138q74 52 208.5 161t195 180t56.5 142q0 59 -44 89t-103 30q-108 0 -188 -111l-134 78q106 162 326 162q148 0 230.5 -63.5t82.5 -180.5q0 -85 -38.5 -147t-122.5 -137t-260 -210h450v-131h-659z" />
    <glyph glyph-name="threesuperior" unicode="&#xb3;" horiz-adv-x="889" 
d="M745 905q0 -133 -92 -200.5t-258 -67.5q-102 0 -186 39t-125 102l133 74q27 -35 73 -60.5t103 -25.5q94 0 137 36t43 109q0 70 -48 100.5t-140 30.5h-90v127h78q86 0 136 32t50 91q0 54 -40 79.5t-105 25.5q-117 0 -187 -99l-133 76q40 56 82.5 85.5t105.5 47t142 17.5
q160 0 233.5 -63.5t73.5 -151.5q0 -140 -139 -193q67 -24 110 -78.5t43 -132.5z" />
    <glyph glyph-name="acute" unicode="&#xb4;" 
d="M623 1208h-142l178 361h236z" />
    <glyph glyph-name="mu" unicode="&#xb5;" horiz-adv-x="1169" 
d="M1018 0h-166l-10 119q-60 -76 -123.5 -113t-147.5 -37q-75 0 -132.5 15.5t-125.5 66.5v-446h-174v1444h174v-793q43 -53 113 -85t143 -32q153 0 273 144v766h176v-1049z" />
    <glyph glyph-name="paragraph" unicode="&#xb6;" horiz-adv-x="1257" 
d="M1004 1356v-1751h-160v1751h-195v-1751h-160v1040q-120 0 -219 51.5t-155 148t-56 224.5q0 191 132.5 305.5t347.5 114.5h657v-133h-192z" />
    <glyph glyph-name="periodcentered" unicode="&#xb7;" horiz-adv-x="555" 
d="M399 745q0 -63 -29.5 -87.5t-93.5 -24.5q-71 0 -95.5 29.5t-24.5 82.5q0 60 27.5 86.5t92.5 26.5q68 0 95.5 -26.5t27.5 -86.5z" />
    <glyph glyph-name="cedilla" unicode="&#xb8;" 
d="M739 -215q0 -86 -68.5 -133t-187.5 -47q-77 0 -147 17.5t-92 29.5l51 100q29 -10 85 -21.5t107 -11.5q121 0 121 78q0 40 -42.5 68t-133.5 35l62 118h106l-25 -49q87 -22 125.5 -73.5t38.5 -110.5z" />
    <glyph glyph-name="onesuperior" unicode="&#xb9;" horiz-adv-x="889" 
d="M406 655v586h-224v107q129 4 182.5 37.5t77.5 119.5h125v-850h-161z" />
    <glyph glyph-name="ordmasculine" unicode="&#xba;" horiz-adv-x="825" 
d="M723 1157q0 -176 -79.5 -267t-229.5 -91q-154 0 -233 91.5t-79 266.5q0 180 80 271.5t232 91.5q151 0 230 -93.5t79 -269.5zM588 1157q0 113 -37 180.5t-137 67.5q-91 0 -132.5 -58.5t-41.5 -189.5q0 -129 41.5 -186.5t132.5 -57.5q100 0 137 67t37 177z" />
    <glyph glyph-name="guillemotright" unicode="&#xbb;" horiz-adv-x="1225" 
d="M760 53h-197l393 471l-393 471h197l393 -471zM270 53h-196l393 471l-393 471h196l394 -471z" />
    <glyph glyph-name="onequarter" unicode="&#xbc;" horiz-adv-x="1946" 
d="M645 -51h-164l779 1487h166zM385 540v586h-224v107q129 4 182.5 37.5t77.5 119.5h125v-850h-161zM1737 174v-183h-160v183h-477v125l496 542h141v-542h127v-125h-127zM1577 624l-299 -325h299v325z" />
    <glyph glyph-name="onehalf" unicode="&#xbd;" horiz-adv-x="1946" 
d="M561 -51h-164l779 1487h166zM308 540v586h-224v107q129 4 182.5 37.5t77.5 119.5h125v-850h-161zM1141 -11v138q74 52 208.5 161t195 180t56.5 142q0 59 -44 89t-103 30q-108 0 -188 -111l-134 78q106 162 326 162q148 0 230.5 -63.5t82.5 -180.5q0 -85 -38.5 -147
t-122.5 -137t-260 -210h450v-131h-659z" />
    <glyph glyph-name="threequarters" unicode="&#xbe;" horiz-adv-x="1946" 
d="M749 -51h-164l779 1487h166zM1737 172v-183h-160v183h-477v125l496 542h141v-542h127v-125h-127zM1577 622l-299 -325h299v325zM765 790q0 -133 -92 -200.5t-258 -67.5q-102 0 -186 39t-125 102l133 74q27 -35 73 -60.5t103 -25.5q94 0 137 36t43 109q0 70 -48 100.5
t-140 30.5h-90v127h78q86 0 136 32t50 91q0 54 -40 79.5t-105 25.5q-117 0 -187 -99l-133 76q40 56 82.5 85.5t105.5 47t142 17.5q160 0 233.5 -63.5t73.5 -151.5q0 -140 -139 -193q67 -24 110 -78.5t43 -132.5z" />
    <glyph glyph-name="questiondown" unicode="&#xbf;" horiz-adv-x="1049" 
d="M725 967q0 -60 -27.5 -86.5t-93.5 -26.5q-67 0 -95 26.5t-28 86.5q0 63 30 87.5t93 24.5q72 0 96.5 -29.5t24.5 -82.5zM981 -188q-114 -207 -418 -207q-211 0 -332.5 98t-121.5 283q0 102 40 184t115 152t254 174v196h174v-272q-179 -106 -252.5 -166t-105 -118.5
t-31.5 -135.5q0 -113 66.5 -172t191.5 -59q109 0 171.5 40.5t96.5 100.5z" />
    <glyph glyph-name="Agrave" unicode="&#xc0;" horiz-adv-x="1288" 
d="M51 0l473 1384h240l473 -1384h-195l-120 360h-564l-118 -360h-189zM414 528h450l-225 674zM637 1544l-273 361h236l178 -361h-141z" />
    <glyph glyph-name="Aacute" unicode="&#xc1;" horiz-adv-x="1288" 
d="M51 0l473 1384h240l473 -1384h-195l-120 360h-564l-118 -360h-189zM414 528h450l-225 674zM662 1544h-142l178 361h236z" />
    <glyph glyph-name="Acircumflex" unicode="&#xc2;" horiz-adv-x="1288" 
d="M51 0l473 1384h240l473 -1384h-195l-120 360h-564l-118 -360h-189zM414 528h450l-225 674zM827 1544l-184 238l-185 -238h-149l229 361h211l228 -361h-150z" />
    <glyph glyph-name="Atilde" unicode="&#xc3;" horiz-adv-x="1288" 
d="M51 0l473 1384h240l473 -1384h-195l-120 360h-564l-118 -360h-189zM414 528h450l-225 674zM266 1557q6 125 67.5 193.5t161.5 68.5q56 0 96.5 -22.5t75.5 -48.5t66 -48.5t67 -22.5q88 0 97 129h121q-19 -262 -232 -262q-65 0 -105 22.5t-71 50.5t-58.5 50.5t-68.5 22.5
q-51 0 -71.5 -36t-24.5 -97h-121z" />
    <glyph glyph-name="Adieresis" unicode="&#xc4;" horiz-adv-x="1288" 
d="M51 0l473 1384h240l473 -1384h-195l-120 360h-564l-118 -360h-189zM414 528h450l-225 674zM952 1651q0 -60 -24.5 -83.5t-84.5 -23.5q-63 0 -84.5 29t-21.5 78q0 53 23.5 79.5t82.5 26.5q62 0 85.5 -25.5t23.5 -80.5zM557 1651q0 -60 -24.5 -83.5t-84.5 -23.5
q-63 0 -84.5 29t-21.5 78q0 53 23.5 79.5t82.5 26.5q62 0 85.5 -25.5t23.5 -80.5z" />
    <glyph glyph-name="Aring" unicode="&#xc5;" horiz-adv-x="1288" 
d="M51 0l473 1384h240l473 -1384h-195l-120 360h-564l-118 -360h-189zM414 528h450l-225 674zM841 1692q0 -90 -48 -143.5t-150 -53.5q-105 0 -151 55.5t-46 141.5q0 88 47 142t150 54q104 0 151 -53t47 -143zM741 1692q0 100 -98 100q-97 0 -97 -100q0 -101 97 -101
q98 0 98 101z" />
    <glyph glyph-name="AE" unicode="&#xc6;" horiz-adv-x="1747" 
d="M834 0v383h-453l-145 -383h-191l533 1384h1044v-167h-604v-408h526v-168h-526v-473h604v-168h-788zM834 1217h-140l-252 -666h392v666z" />
    <glyph glyph-name="Ccedilla" unicode="&#xc7;" horiz-adv-x="1321" 
d="M979 -215q0 -86 -68.5 -133t-187.5 -47q-78 0 -147.5 17.5t-92.5 29.5l52 100q28 -10 84.5 -21.5t107.5 -11.5q121 0 121 78q0 40 -42.5 68t-133.5 35l37 71q-297 9 -438.5 188t-141.5 533q0 361 146.5 541t451.5 180q121 0 216 -30t160.5 -82.5t119.5 -147.5l-152 -100
q-44 74 -89 112.5t-108 61t-147 22.5q-208 0 -305.5 -138.5t-97.5 -418.5q0 -276 96 -416.5t309 -140.5q118 0 205 46.5t156 160.5l153 -100q-78 -131 -180.5 -191.5t-245.5 -75.5l-2 -6q86 -22 125 -73.5t39 -110.5z" />
    <glyph glyph-name="Egrave" unicode="&#xc8;" horiz-adv-x="1153" 
d="M182 0v1384h846v-167h-661v-404h565v-168h-565v-477h661v-168h-846zM613 1544l-273 361h236l178 -361h-141z" />
    <glyph glyph-name="Eacute" unicode="&#xc9;" horiz-adv-x="1153" 
d="M182 0v1384h846v-167h-661v-404h565v-168h-565v-477h661v-168h-846zM623 1544h-142l178 361h236z" />
    <glyph glyph-name="Ecircumflex" unicode="&#xca;" horiz-adv-x="1153" 
d="M182 0v1384h846v-167h-661v-404h565v-168h-565v-477h661v-168h-846zM788 1544l-184 238l-185 -238h-149l229 361h211l228 -361h-150z" />
    <glyph glyph-name="Edieresis" unicode="&#xcb;" horiz-adv-x="1153" 
d="M182 0v1384h846v-167h-661v-404h565v-168h-565v-477h661v-168h-846zM897 1651q0 -60 -24.5 -83.5t-84.5 -23.5q-63 0 -84.5 29t-21.5 78q0 53 23.5 79.5t82.5 26.5q62 0 85.5 -25.5t23.5 -80.5zM502 1651q0 -60 -24.5 -83.5t-84.5 -23.5q-63 0 -84.5 29t-21.5 78
q0 53 23.5 79.5t82.5 26.5q62 0 85.5 -25.5t23.5 -80.5z" />
    <glyph glyph-name="Igrave" unicode="&#xcc;" horiz-adv-x="770" 
d="M668 0h-566v160h191v1067h-191v157h566v-157h-191v-1067h191v-160zM365 1544l-273 361h236l178 -361h-141z" />
    <glyph glyph-name="Iacute" unicode="&#xcd;" horiz-adv-x="770" 
d="M668 0h-566v160h191v1067h-191v157h566v-157h-191v-1067h191v-160zM437 1544h-142l178 361h236z" />
    <glyph glyph-name="Icircumflex" unicode="&#xce;" horiz-adv-x="770" 
d="M668 0h-566v160h191v1067h-191v157h566v-157h-191v-1067h191v-160zM575 1544l-184 238l-185 -238h-149l229 361h211l228 -361h-150z" />
    <glyph glyph-name="Idieresis" unicode="&#xcf;" horiz-adv-x="770" 
d="M668 0h-566v160h191v1067h-191v157h566v-157h-191v-1067h191v-160zM700 1651q0 -60 -24.5 -83.5t-84.5 -23.5q-63 0 -84.5 29t-21.5 78q0 53 23.5 79.5t82.5 26.5q62 0 85.5 -25.5t23.5 -80.5zM305 1651q0 -60 -24.5 -83.5t-84.5 -23.5q-63 0 -84.5 29t-21.5 78
q0 53 23.5 79.5t82.5 26.5q62 0 85.5 -25.5t23.5 -80.5z" />
    <glyph glyph-name="Eth" unicode="&#xd0;" horiz-adv-x="1378" 
d="M1249 692q0 -254 -70 -404t-217 -219t-413 -69h-367v627h-119v141h119v616h365q261 0 410.5 -70.5t220.5 -222.5t71 -399zM1055 694q0 292 -115 407.5t-401 115.5h-172v-449h335v-141h-335v-459h172q198 0 307 50.5t159 164t50 311.5z" />
    <glyph glyph-name="Ntilde" unicode="&#xd1;" horiz-adv-x="1386" 
d="M985 0l-625 1188v-1188h-178v1384h271l573 -1087v1087h178v-1384h-219zM297 1557q6 125 67.5 193.5t161.5 68.5q56 0 96.5 -22.5t75.5 -48.5t66 -48.5t67 -22.5q88 0 97 129h121q-19 -262 -232 -262q-65 0 -105 22.5t-71 50.5t-58.5 50.5t-68.5 22.5q-51 0 -71.5 -36
t-24.5 -97h-121z" />
    <glyph glyph-name="Ograve" unicode="&#xd2;" horiz-adv-x="1364" 
d="M1245 692q0 -373 -140.5 -547t-422.5 -174q-286 0 -424.5 177t-138.5 544q0 364 137 542.5t426 178.5q285 0 424 -175t139 -546zM1051 692q0 287 -86.5 422t-282.5 135t-282.5 -135t-86.5 -422q0 -289 87.5 -423t281.5 -134q193 0 281 133t88 424zM717 1544l-273 361h236
l178 -361h-141z" />
    <glyph glyph-name="Oacute" unicode="&#xd3;" horiz-adv-x="1364" 
d="M1245 692q0 -373 -140.5 -547t-422.5 -174q-286 0 -424.5 177t-138.5 544q0 364 137 542.5t426 178.5q285 0 424 -175t139 -546zM1051 692q0 287 -86.5 422t-282.5 135t-282.5 -135t-86.5 -422q0 -289 87.5 -423t281.5 -134q193 0 281 133t88 424zM727 1544h-142l178 361
h236z" />
    <glyph glyph-name="Ocircumflex" unicode="&#xd4;" horiz-adv-x="1364" 
d="M1245 692q0 -373 -140.5 -547t-422.5 -174q-286 0 -424.5 177t-138.5 544q0 364 137 542.5t426 178.5q285 0 424 -175t139 -546zM1051 692q0 287 -86.5 422t-282.5 135t-282.5 -135t-86.5 -422q0 -289 87.5 -423t281.5 -134q193 0 281 133t88 424zM866 1544l-184 238
l-185 -238h-149l229 361h211l228 -361h-150z" />
    <glyph glyph-name="Otilde" unicode="&#xd5;" horiz-adv-x="1364" 
d="M1245 692q0 -373 -140.5 -547t-422.5 -174q-286 0 -424.5 177t-138.5 544q0 364 137 542.5t426 178.5q285 0 424 -175t139 -546zM1051 692q0 287 -86.5 422t-282.5 135t-282.5 -135t-86.5 -422q0 -289 87.5 -423t281.5 -134q193 0 281 133t88 424zM305 1557
q6 125 67.5 193.5t161.5 68.5q56 0 96.5 -22.5t75.5 -48.5t66 -48.5t67 -22.5q88 0 97 129h121q-19 -262 -232 -262q-65 0 -105 22.5t-71 50.5t-58.5 50.5t-68.5 22.5q-51 0 -71.5 -36t-24.5 -97h-121z" />
    <glyph glyph-name="Odieresis" unicode="&#xd6;" horiz-adv-x="1364" 
d="M1245 692q0 -373 -140.5 -547t-422.5 -174q-286 0 -424.5 177t-138.5 544q0 364 137 542.5t426 178.5q285 0 424 -175t139 -546zM1051 692q0 287 -86.5 422t-282.5 135t-282.5 -135t-86.5 -422q0 -289 87.5 -423t281.5 -134q193 0 281 133t88 424zM991 1651
q0 -60 -24.5 -83.5t-84.5 -23.5q-63 0 -84.5 29t-21.5 78q0 53 23.5 79.5t82.5 26.5q62 0 85.5 -25.5t23.5 -80.5zM596 1651q0 -60 -24.5 -83.5t-84.5 -23.5q-63 0 -84.5 29t-21.5 78q0 53 23.5 79.5t82.5 26.5q62 0 85.5 -25.5t23.5 -80.5z" />
    <glyph glyph-name="multiply" unicode="&#xd7;" horiz-adv-x="1427" 
d="M1120 78l-407 407l-406 -407l-102 102l407 406l-407 407l102 101l406 -406l407 406l101 -101l-406 -407l406 -406z" />
    <glyph glyph-name="Oslash" unicode="&#xd8;" horiz-adv-x="1364" 
d="M68 -115l184 271q-133 170 -133 536q0 364 137 542.5t426 178.5q225 0 360 -110l129 186h150l-195 -283q119 -177 119 -514q0 -373 -140.5 -547t-422.5 -174q-213 0 -340 97l-125 -183h-149zM1051 692q0 211 -47 338l-560 -813q84 -82 238 -82q193 0 281 133t88 424z
M313 692q0 -237 58 -366l565 823q-88 100 -254 100q-196 0 -282.5 -135t-86.5 -422z" />
    <glyph glyph-name="Ugrave" unicode="&#xd9;" horiz-adv-x="1405" 
d="M1223 578q0 -227 -51 -358t-160.5 -191t-306.5 -60q-196 0 -309 61t-163.5 193t-50.5 355v806h185v-786q0 -182 33 -280.5t104.5 -141.5t197.5 -43q127 0 199 42.5t104.5 135.5t32.5 283v790h185v-806zM707 1544l-273 361h236l178 -361h-141z" />
    <glyph glyph-name="Uacute" unicode="&#xda;" horiz-adv-x="1405" 
d="M1223 578q0 -227 -51 -358t-160.5 -191t-306.5 -60q-196 0 -309 61t-163.5 193t-50.5 355v806h185v-786q0 -182 33 -280.5t104.5 -141.5t197.5 -43q127 0 199 42.5t104.5 135.5t32.5 283v790h185v-806zM748 1544h-142l178 361h236z" />
    <glyph glyph-name="Ucircumflex" unicode="&#xdb;" horiz-adv-x="1405" 
d="M1223 578q0 -227 -51 -358t-160.5 -191t-306.5 -60q-196 0 -309 61t-163.5 193t-50.5 355v806h185v-786q0 -182 33 -280.5t104.5 -141.5t197.5 -43q127 0 199 42.5t104.5 135.5t32.5 283v790h185v-806zM887 1544l-184 238l-185 -238h-149l229 361h211l228 -361h-150z" />
    <glyph glyph-name="Udieresis" unicode="&#xdc;" horiz-adv-x="1405" 
d="M1223 578q0 -227 -51 -358t-160.5 -191t-306.5 -60q-196 0 -309 61t-163.5 193t-50.5 355v806h185v-786q0 -182 33 -280.5t104.5 -141.5t197.5 -43q127 0 199 42.5t104.5 135.5t32.5 283v790h185v-806zM1012 1651q0 -60 -24.5 -83.5t-84.5 -23.5q-63 0 -84.5 29t-21.5 78
q0 53 23.5 79.5t82.5 26.5q62 0 85.5 -25.5t23.5 -80.5zM617 1651q0 -60 -24.5 -83.5t-84.5 -23.5q-63 0 -84.5 29t-21.5 78q0 53 23.5 79.5t82.5 26.5q62 0 85.5 -25.5t23.5 -80.5z" />
    <glyph glyph-name="Yacute" unicode="&#xdd;" horiz-adv-x="1147" 
d="M666 535v-535h-187v526l-438 858h209l325 -673l332 673h199zM623 1544h-142l178 361h236z" />
    <glyph glyph-name="Thorn" unicode="&#xde;" horiz-adv-x="1182" 
d="M1083 727q0 -250 -117.5 -361.5t-381.5 -111.5h-217v-254h-185v1384h185v-215h225q259 0 375 -107t116 -335zM889 723q0 144 -71.5 211t-246.5 67h-204v-579h178q146 0 213.5 28.5t99 92t31.5 180.5z" />
    <glyph glyph-name="germandbls" unicode="&#xdf;" horiz-adv-x="1171" 
d="M170 0v1034q0 261 102 373.5t308 112.5q170 0 274 -78t104 -246q0 -140 -64.5 -222t-188.5 -102q174 -20 262 -130.5t88 -282.5q0 -490 -408 -490q-74 0 -190 31v162q99 -41 184 -41q127 0 181.5 88t54.5 258q0 113 -43 181.5t-122.5 99t-232.5 30.5v152
q160 0 232.5 61.5t72.5 186.5q0 192 -209 192q-121 0 -177 -75t-56 -253v-1042h-172z" />
    <glyph glyph-name="agrave" unicode="&#xe0;" horiz-adv-x="1100" 
d="M766 0v131q-80 -70 -161 -116t-183 -46q-150 0 -231.5 91.5t-81.5 234.5q0 108 42.5 179.5t123 113t233.5 59.5l258 23v51q0 121 -67.5 165t-186.5 44q-106 0 -163.5 -37t-82.5 -80l-141 86q48 87 146.5 133.5t244.5 46.5q226 0 324 -82t98 -284v-713h-172zM766 532
l-168 -16q-171 -15 -241 -66.5t-70 -150.5q0 -94 47 -135t141 -41q39 0 77 14.5t75 36t71.5 49t67.5 53.5v256zM535 1208l-273 361h236l178 -361h-141z" />
    <glyph glyph-name="aacute" unicode="&#xe1;" horiz-adv-x="1100" 
d="M766 0v131q-80 -70 -161 -116t-183 -46q-150 0 -231.5 91.5t-81.5 234.5q0 108 42.5 179.5t123 113t233.5 59.5l258 23v51q0 121 -67.5 165t-186.5 44q-106 0 -163.5 -37t-82.5 -80l-141 86q48 87 146.5 133.5t244.5 46.5q226 0 324 -82t98 -284v-713h-172zM766 532
l-168 -16q-171 -15 -241 -66.5t-70 -150.5q0 -94 47 -135t141 -41q39 0 77 14.5t75 36t71.5 49t67.5 53.5v256zM566 1208h-142l178 361h236z" />
    <glyph glyph-name="acircumflex" unicode="&#xe2;" horiz-adv-x="1100" 
d="M766 0v131q-80 -70 -161 -116t-183 -46q-150 0 -231.5 91.5t-81.5 234.5q0 108 42.5 179.5t123 113t233.5 59.5l258 23v51q0 121 -67.5 165t-186.5 44q-106 0 -163.5 -37t-82.5 -80l-141 86q48 87 146.5 133.5t244.5 46.5q226 0 324 -82t98 -284v-713h-172zM766 532
l-168 -16q-171 -15 -241 -66.5t-70 -150.5q0 -94 47 -135t141 -41q39 0 77 14.5t75 36t71.5 49t67.5 53.5v256zM704 1208l-184 238l-185 -238h-149l229 361h211l228 -361h-150z" />
    <glyph glyph-name="atilde" unicode="&#xe3;" horiz-adv-x="1100" 
d="M766 0v131q-80 -70 -161 -116t-183 -46q-150 0 -231.5 91.5t-81.5 234.5q0 108 42.5 179.5t123 113t233.5 59.5l258 23v51q0 121 -67.5 165t-186.5 44q-106 0 -163.5 -37t-82.5 -80l-141 86q48 87 146.5 133.5t244.5 46.5q226 0 324 -82t98 -284v-713h-172zM766 532
l-168 -16q-171 -15 -241 -66.5t-70 -150.5q0 -94 47 -135t141 -41q39 0 77 14.5t75 36t71.5 49t67.5 53.5v256zM156 1221q6 125 67.5 193.5t161.5 68.5q56 0 96.5 -22.5t75.5 -48.5t66 -48.5t67 -22.5q88 0 97 129h121q-19 -262 -232 -262q-65 0 -105 22.5t-71 50.5
t-58.5 50.5t-68.5 22.5q-51 0 -71.5 -36t-24.5 -97h-121z" />
    <glyph glyph-name="adieresis" unicode="&#xe4;" horiz-adv-x="1100" 
d="M766 0v131q-80 -70 -161 -116t-183 -46q-150 0 -231.5 91.5t-81.5 234.5q0 108 42.5 179.5t123 113t233.5 59.5l258 23v51q0 121 -67.5 165t-186.5 44q-106 0 -163.5 -37t-82.5 -80l-141 86q48 87 146.5 133.5t244.5 46.5q226 0 324 -82t98 -284v-713h-172zM766 532
l-168 -16q-171 -15 -241 -66.5t-70 -150.5q0 -94 47 -135t141 -41q39 0 77 14.5t75 36t71.5 49t67.5 53.5v256zM829 1315q0 -60 -24.5 -83.5t-84.5 -23.5q-63 0 -84.5 29t-21.5 78q0 53 23.5 79.5t82.5 26.5q62 0 85.5 -25.5t23.5 -80.5zM434 1315q0 -60 -24.5 -83.5
t-84.5 -23.5q-63 0 -84.5 29t-21.5 78q0 53 23.5 79.5t82.5 26.5q62 0 85.5 -25.5t23.5 -80.5z" />
    <glyph glyph-name="aring" unicode="&#xe5;" horiz-adv-x="1100" 
d="M766 0v131q-80 -70 -161 -116t-183 -46q-150 0 -231.5 91.5t-81.5 234.5q0 108 42.5 179.5t123 113t233.5 59.5l258 23v51q0 121 -67.5 165t-186.5 44q-106 0 -163.5 -37t-82.5 -80l-141 86q48 87 146.5 133.5t244.5 46.5q226 0 324 -82t98 -284v-713h-172zM766 532
l-168 -16q-171 -15 -241 -66.5t-70 -150.5q0 -94 47 -135t141 -41q39 0 77 14.5t75 36t71.5 49t67.5 53.5v256zM718 1354q0 -90 -48 -143.5t-150 -53.5q-105 0 -151 55.5t-46 141.5q0 88 47 142t150 54q104 0 151 -53t47 -143zM618 1354q0 100 -98 100q-97 0 -97 -100
q0 -101 97 -101q98 0 98 101z" />
    <glyph glyph-name="ae" unicode="&#xe6;" horiz-adv-x="1724" 
d="M414 -31q-140 0 -222.5 90.5t-82.5 241.5q0 152 95 238.5t304 107.5l258 23v51q0 121 -67.5 165t-186.5 44q-106 0 -163.5 -37t-82.5 -80l-141 86q103 180 401 180q123 0 217.5 -32.5t137.5 -116.5q49 71 126.5 110t200.5 39q208 0 310 -117.5t102 -361.5v-96h-682
q0 -200 68.5 -292.5t218.5 -92.5q84 0 135 29.5t102 95.5l142 -88q-60 -90 -144 -138.5t-225 -48.5q-129 0 -232.5 44t-158.5 139q-95 -81 -213 -132t-217 -51zM463 123q86 0 165 42t163 107q-16 51 -20.5 95.5t-4.5 164.5l-168 -16q-126 -11 -187 -35.5t-92.5 -70
t-31.5 -113.5q0 -92 49 -133t127 -41zM1452 639q-2 141 -58.5 219t-189.5 78q-121 0 -187.5 -70.5t-76.5 -226.5h512z" />
    <glyph glyph-name="ccedilla" unicode="&#xe7;" horiz-adv-x="1030" 
d="M815 -215q0 -86 -68.5 -133t-187.5 -47q-78 0 -147.5 17.5t-92.5 29.5l52 100q28 -10 84.5 -21.5t107.5 -11.5q121 0 121 78q0 40 -42.5 68t-133.5 35l37 71q-212 11 -320 149.5t-108 401.5q0 274 116 415.5t342 141.5q259 0 369 -192l-141 -86q-39 61 -91.5 95
t-138.5 34q-151 0 -214.5 -109.5t-63.5 -302.5q0 -147 30 -229t93.5 -126t161.5 -44q84 0 137 31.5t100 97.5l141 -86q-43 -74 -114.5 -125t-190.5 -64l-2 -4q86 -22 125 -73.5t39 -110.5z" />
    <glyph glyph-name="egrave" unicode="&#xe8;" horiz-adv-x="1081" 
d="M295 504q0 -208 71 -296.5t228 -88.5q70 0 123 29.5t102 95.5l142 -88q-60 -90 -146 -138.5t-233 -48.5q-234 0 -349.5 136t-115.5 411q0 288 112.5 425.5t339.5 137.5q204 0 306 -117.5t102 -361.5v-96h-682zM809 639q-2 141 -59.5 219t-186.5 78q-123 0 -184.5 -70.5
t-81.5 -226.5h512zM553 1208l-273 361h236l178 -361h-141z" />
    <glyph glyph-name="eacute" unicode="&#xe9;" horiz-adv-x="1081" 
d="M295 504q0 -208 71 -296.5t228 -88.5q70 0 123 29.5t102 95.5l142 -88q-60 -90 -146 -138.5t-233 -48.5q-234 0 -349.5 136t-115.5 411q0 288 112.5 425.5t339.5 137.5q204 0 306 -117.5t102 -361.5v-96h-682zM809 639q-2 141 -59.5 219t-186.5 78q-123 0 -184.5 -70.5
t-81.5 -226.5h512zM586 1208h-142l178 361h236z" />
    <glyph glyph-name="ecircumflex" unicode="&#xea;" horiz-adv-x="1081" 
d="M295 504q0 -208 71 -296.5t228 -88.5q70 0 123 29.5t102 95.5l142 -88q-60 -90 -146 -138.5t-233 -48.5q-234 0 -349.5 136t-115.5 411q0 288 112.5 425.5t339.5 137.5q204 0 306 -117.5t102 -361.5v-96h-682zM809 639q-2 141 -59.5 219t-186.5 78q-123 0 -184.5 -70.5
t-81.5 -226.5h512zM743 1208l-184 238l-185 -238h-149l229 361h211l228 -361h-150z" />
    <glyph glyph-name="edieresis" unicode="&#xeb;" horiz-adv-x="1081" 
d="M295 504q0 -208 71 -296.5t228 -88.5q70 0 123 29.5t102 95.5l142 -88q-60 -90 -146 -138.5t-233 -48.5q-234 0 -349.5 136t-115.5 411q0 288 112.5 425.5t339.5 137.5q204 0 306 -117.5t102 -361.5v-96h-682zM809 639q-2 141 -59.5 219t-186.5 78q-123 0 -184.5 -70.5
t-81.5 -226.5h512zM868 1315q0 -60 -24.5 -83.5t-84.5 -23.5q-63 0 -84.5 29t-21.5 78q0 53 23.5 79.5t82.5 26.5q62 0 85.5 -25.5t23.5 -80.5zM473 1315q0 -60 -24.5 -83.5t-84.5 -23.5q-63 0 -84.5 29t-21.5 78q0 53 23.5 79.5t82.5 26.5q62 0 85.5 -25.5t23.5 -80.5z" />
    <glyph glyph-name="igrave" unicode="&#xec;" horiz-adv-x="512" 
d="M242 1208l-273 361h236l178 -361h-141zM170 0v1049h172v-1049h-172z" />
    <glyph glyph-name="iacute" unicode="&#xed;" horiz-adv-x="512" 
d="M283 1208h-142l178 361h236zM170 0v1049h172v-1049h-172z" />
    <glyph glyph-name="icircumflex" unicode="&#xee;" horiz-adv-x="512" 
d="M170 0v1049h172v-1049h-172zM442 1208l-184 238l-185 -238h-149l229 361h211l228 -361h-150z" />
    <glyph glyph-name="idieresis" unicode="&#xef;" horiz-adv-x="512" 
d="M547 1315q0 -60 -24.5 -83.5t-84.5 -23.5q-63 0 -84.5 29t-21.5 78q0 53 23.5 79.5t82.5 26.5q62 0 85.5 -25.5t23.5 -80.5zM152 1315q0 -60 -24.5 -83.5t-84.5 -23.5q-63 0 -84.5 29t-21.5 78q0 53 23.5 79.5t82.5 26.5q62 0 85.5 -25.5t23.5 -80.5zM170 0v1049h172
v-1049h-172z" />
    <glyph glyph-name="eth" unicode="&#xf0;" horiz-adv-x="1157" 
d="M1040 510q0 -264 -117 -402.5t-343 -138.5q-228 0 -345.5 138.5t-117.5 400.5q0 253 110.5 397t311.5 144q126 0 235 -80q-20 65 -81 159t-136 168l-195 -112l-53 84l183 104q-73 84 -175 148h166q80 -47 117 -84l148 84l57 -82l-125 -72q360 -360 360 -856zM862 510
q0 202 -70 295.5t-214 93.5q-148 0 -215.5 -92t-67.5 -299q0 -198 69 -293.5t216 -95.5q142 0 212 93t70 298z" />
    <glyph glyph-name="ntilde" unicode="&#xf1;" horiz-adv-x="1163" 
d="M829 0v618q0 150 -15 200t-49 72.5t-99 22.5q-66 0 -154 -50t-170 -122v-741h-172v1049h172v-156q73 73 170 129.5t195 56.5q152 0 223 -86.5t71 -292.5v-700h-172zM219 1221q6 125 67.5 193.5t161.5 68.5q56 0 96.5 -22.5t75.5 -48.5t66 -48.5t67 -22.5q88 0 97 129h121
q-19 -262 -232 -262q-65 0 -105 22.5t-71 50.5t-58.5 50.5t-68.5 22.5q-51 0 -71.5 -36t-24.5 -97h-121z" />
    <glyph glyph-name="ograve" unicode="&#xf2;" horiz-adv-x="1157" 
d="M1040 522q0 -273 -117.5 -413t-342.5 -140t-344 138.5t-119 414.5q0 281 119.5 419t343.5 138q226 0 343 -140.5t117 -416.5zM862 522q0 214 -70.5 311t-211.5 97q-145 0 -215 -97.5t-70 -310.5q0 -205 67.5 -304t217.5 -99q143 0 212.5 98t69.5 305zM559 1208l-273 361
h236l178 -361h-141z" />
    <glyph glyph-name="oacute" unicode="&#xf3;" horiz-adv-x="1157" 
d="M1040 522q0 -273 -117.5 -413t-342.5 -140t-344 138.5t-119 414.5q0 281 119.5 419t343.5 138q226 0 343 -140.5t117 -416.5zM862 522q0 214 -70.5 311t-211.5 97q-145 0 -215 -97.5t-70 -310.5q0 -205 67.5 -304t217.5 -99q143 0 212.5 98t69.5 305zM596 1208h-142
l178 361h236z" />
    <glyph glyph-name="ocircumflex" unicode="&#xf4;" horiz-adv-x="1157" 
d="M1040 522q0 -273 -117.5 -413t-342.5 -140t-344 138.5t-119 414.5q0 281 119.5 419t343.5 138q226 0 343 -140.5t117 -416.5zM862 522q0 214 -70.5 311t-211.5 97q-145 0 -215 -97.5t-70 -310.5q0 -205 67.5 -304t217.5 -99q143 0 212.5 98t69.5 305zM764 1208l-184 238
l-185 -238h-149l229 361h211l228 -361h-150z" />
    <glyph glyph-name="otilde" unicode="&#xf5;" horiz-adv-x="1157" 
d="M1040 522q0 -273 -117.5 -413t-342.5 -140t-344 138.5t-119 414.5q0 281 119.5 419t343.5 138q226 0 343 -140.5t117 -416.5zM862 522q0 214 -70.5 311t-211.5 97q-145 0 -215 -97.5t-70 -310.5q0 -205 67.5 -304t217.5 -99q143 0 212.5 98t69.5 305zM203 1221
q6 125 67.5 193.5t161.5 68.5q56 0 96.5 -22.5t75.5 -48.5t66 -48.5t67 -22.5q88 0 97 129h121q-19 -262 -232 -262q-65 0 -105 22.5t-71 50.5t-58.5 50.5t-68.5 22.5q-51 0 -71.5 -36t-24.5 -97h-121z" />
    <glyph glyph-name="odieresis" unicode="&#xf6;" horiz-adv-x="1157" 
d="M1040 522q0 -273 -117.5 -413t-342.5 -140t-344 138.5t-119 414.5q0 281 119.5 419t343.5 138q226 0 343 -140.5t117 -416.5zM862 522q0 214 -70.5 311t-211.5 97q-145 0 -215 -97.5t-70 -310.5q0 -205 67.5 -304t217.5 -99q143 0 212.5 98t69.5 305zM889 1315
q0 -60 -24.5 -83.5t-84.5 -23.5q-63 0 -84.5 29t-21.5 78q0 53 23.5 79.5t82.5 26.5q62 0 85.5 -25.5t23.5 -80.5zM494 1315q0 -60 -24.5 -83.5t-84.5 -23.5q-63 0 -84.5 29t-21.5 78q0 53 23.5 79.5t82.5 26.5q62 0 85.5 -25.5t23.5 -80.5z" />
    <glyph glyph-name="divide" unicode="&#xf7;" horiz-adv-x="1427" 
d="M623 948v180h180v-180h-180zM164 514v143h1100v-143h-1100zM623 43v180h180v-180h-180z" />
    <glyph glyph-name="oslash" unicode="&#xf8;" horiz-adv-x="1157" 
d="M102 -76l129 189q-114 137 -114 409q0 281 119.5 419t343.5 138q161 0 268 -71l80 116h141l-137 -198q108 -145 108 -404q0 -273 -117.5 -413t-342.5 -140q-158 0 -261 66l-75 -111h-142zM295 522q0 -164 41 -258l420 608q-68 58 -176 58q-145 0 -215 -97.5t-70 -310.5z
M862 522q0 158 -37 248l-415 -602q63 -49 170 -49q143 0 212.5 98t69.5 305z" />
    <glyph glyph-name="ugrave" unicode="&#xf9;" horiz-adv-x="1163" 
d="M821 0v156q-80 -80 -176 -133.5t-188 -53.5q-105 0 -170.5 39.5t-95 119t-29.5 220.5v701h172v-619q0 -150 15.5 -200t49.5 -72.5t99 -22.5t153 50.5t170 121.5v742h172v-1049h-172zM576 1208l-273 361h236l178 -361h-141z" />
    <glyph glyph-name="uacute" unicode="&#xfa;" horiz-adv-x="1163" 
d="M821 0v156q-80 -80 -176 -133.5t-188 -53.5q-105 0 -170.5 39.5t-95 119t-29.5 220.5v701h172v-619q0 -150 15.5 -200t49.5 -72.5t99 -22.5t153 50.5t170 121.5v742h172v-1049h-172zM609 1208h-142l178 361h236z" />
    <glyph glyph-name="ucircumflex" unicode="&#xfb;" horiz-adv-x="1163" 
d="M821 0v156q-80 -80 -176 -133.5t-188 -53.5q-105 0 -170.5 39.5t-95 119t-29.5 220.5v701h172v-619q0 -150 15.5 -200t49.5 -72.5t99 -22.5t153 50.5t170 121.5v742h172v-1049h-172zM766 1208l-184 238l-185 -238h-149l229 361h211l228 -361h-150z" />
    <glyph glyph-name="udieresis" unicode="&#xfc;" horiz-adv-x="1163" 
d="M821 0v156q-80 -80 -176 -133.5t-188 -53.5q-105 0 -170.5 39.5t-95 119t-29.5 220.5v701h172v-619q0 -150 15.5 -200t49.5 -72.5t99 -22.5t153 50.5t170 121.5v742h172v-1049h-172zM887 1315q0 -60 -24.5 -83.5t-84.5 -23.5q-63 0 -84.5 29t-21.5 78q0 53 23.5 79.5
t82.5 26.5q62 0 85.5 -25.5t23.5 -80.5zM492 1315q0 -60 -24.5 -83.5t-84.5 -23.5q-63 0 -84.5 29t-21.5 78q0 53 23.5 79.5t82.5 26.5q62 0 85.5 -25.5t23.5 -80.5z" />
    <glyph glyph-name="yacute" unicode="&#xfd;" horiz-adv-x="1040" 
d="M39 -223q65 -29 151 -29q121 0 205 219l35 90l-383 992h186l289 -768l291 768h180l-448 -1129q-71 -173 -152 -244t-211 -71q-47 0 -100 9t-86 21zM547 1208h-142l178 361h236z" />
    <glyph glyph-name="thorn" unicode="&#xfe;" horiz-adv-x="1174" 
d="M1057 532q0 -258 -112.5 -410.5t-309.5 -152.5q-157 0 -293 117v-481h-172v1884h172v-545q59 57 142 96t178 39q187 0 291 -141.5t104 -405.5zM879 528q0 398 -250 398q-82 0 -157 -41t-130 -94v-555q134 -113 270 -113q117 0 192 98t75 307z" />
    <glyph glyph-name="ydieresis" unicode="&#xff;" horiz-adv-x="1040" 
d="M39 -223q65 -29 151 -29q121 0 205 219l35 90l-383 992h186l289 -768l291 768h180l-448 -1129q-71 -173 -152 -244t-211 -71q-47 0 -100 9t-86 21zM831 1315q0 -60 -24.5 -83.5t-84.5 -23.5q-63 0 -84.5 29t-21.5 78q0 53 23.5 79.5t82.5 26.5q62 0 85.5 -25.5
t23.5 -80.5zM436 1315q0 -60 -24.5 -83.5t-84.5 -23.5q-63 0 -84.5 29t-21.5 78q0 53 23.5 79.5t82.5 26.5q62 0 85.5 -25.5t23.5 -80.5z" />
    <glyph glyph-name="Amacron" unicode="&#x100;" horiz-adv-x="1288" 
d="M51 0l473 1384h240l473 -1384h-195l-120 360h-564l-118 -360h-189zM414 528h450l-225 674zM340 1591v140h610v-140h-610z" />
    <glyph glyph-name="amacron" unicode="&#x101;" horiz-adv-x="1100" 
d="M766 0v131q-80 -70 -161 -116t-183 -46q-150 0 -231.5 91.5t-81.5 234.5q0 108 42.5 179.5t123 113t233.5 59.5l258 23v51q0 121 -67.5 165t-186.5 44q-106 0 -163.5 -37t-82.5 -80l-141 86q48 87 146.5 133.5t244.5 46.5q226 0 324 -82t98 -284v-713h-172zM766 532
l-168 -16q-171 -15 -241 -66.5t-70 -150.5q0 -94 47 -135t141 -41q39 0 77 14.5t75 36t71.5 49t67.5 53.5v256zM226 1255v140h610v-140h-610z" />
    <glyph glyph-name="Abreve" unicode="&#x102;" horiz-adv-x="1288" 
d="M51 0l473 1384h240l473 -1384h-195l-120 360h-564l-118 -360h-189zM414 528h450l-225 674zM974 1804q0 -124 -86 -203.5t-243 -79.5q-152 0 -239 81t-87 202h127q14 -64 66.5 -94.5t130.5 -30.5q102 0 147 30.5t57 94.5h127z" />
    <glyph glyph-name="abreve" unicode="&#x103;" horiz-adv-x="1100" 
d="M766 0v131q-80 -70 -161 -116t-183 -46q-150 0 -231.5 91.5t-81.5 234.5q0 108 42.5 179.5t123 113t233.5 59.5l258 23v51q0 121 -67.5 165t-186.5 44q-106 0 -163.5 -37t-82.5 -80l-141 86q48 87 146.5 133.5t244.5 46.5q226 0 324 -82t98 -284v-713h-172zM766 532
l-168 -16q-171 -15 -241 -66.5t-70 -150.5q0 -94 47 -135t141 -41q39 0 77 14.5t75 36t71.5 49t67.5 53.5v256zM862 1489q0 -124 -86 -203.5t-243 -79.5q-152 0 -239 81t-87 202h127q14 -64 66.5 -94.5t130.5 -30.5q102 0 147 30.5t57 94.5h127z" />
    <glyph glyph-name="Aogonek" unicode="&#x104;" horiz-adv-x="1288" 
d="M1235 -326q-53 -34 -99 -51.5t-100 -17.5q-90 0 -142 45.5t-52 138.5q0 153 190 240l-110 331h-564l-118 -360h-189l473 1384h240l473 -1384q-128 -40 -191 -82t-63 -102q0 -35 19.5 -53.5t54.5 -18.5t63.5 11.5t59.5 27.5zM414 528h450l-225 674z" />
    <glyph glyph-name="aogonek" unicode="&#x105;" horiz-adv-x="1100" 
d="M936 -326q-53 -34 -99 -51.5t-100 -17.5q-90 0 -142 45.5t-52 138.5q0 164 223 254v88q-80 -70 -161 -116t-183 -46q-150 0 -231.5 91.5t-81.5 234.5q0 108 42.5 179.5t123 113t233.5 59.5l258 23v51q0 121 -67.5 165t-186.5 44q-106 0 -163.5 -37t-82.5 -80l-141 86
q48 87 146.5 133.5t244.5 46.5q226 0 324 -82t98 -284v-713q-128 -40 -191 -82t-63 -102q0 -35 19.5 -53.5t54.5 -18.5t63.5 11.5t59.5 27.5zM766 532l-168 -16q-171 -15 -241 -66.5t-70 -150.5q0 -94 47 -135t141 -41q39 0 77 14.5t75 36t71.5 49t67.5 53.5v256z" />
    <glyph glyph-name="Cacute" unicode="&#x106;" horiz-adv-x="1321" 
d="M1243 242q-66 -106 -134.5 -160.5t-159.5 -82.5t-214 -28q-311 0 -458.5 179.5t-147.5 541.5q0 361 146.5 541t451.5 180q121 0 216 -30t160.5 -82.5t119.5 -147.5l-152 -100q-44 74 -89 112.5t-108 61t-147 22.5q-208 0 -305.5 -138.5t-97.5 -418.5q0 -276 96 -416.5
t309 -140.5q118 0 205 46.5t156 160.5zM729 1544h-142l178 361h236z" />
    <glyph glyph-name="cacute" unicode="&#x107;" horiz-adv-x="1030" 
d="M958 162q-49 -84 -136 -138.5t-240 -54.5q-231 0 -348 139.5t-117 413.5t116 415.5t342 141.5q259 0 369 -192l-141 -86q-39 61 -91.5 95t-138.5 34q-151 0 -214.5 -109.5t-63.5 -302.5q0 -147 30 -229t93.5 -126t161.5 -44q84 0 137 31.5t100 97.5zM594 1208h-142
l178 361h236z" />
    <glyph glyph-name="Ccircumflex" unicode="&#x108;" horiz-adv-x="1321" 
d="M1243 242q-66 -106 -134.5 -160.5t-159.5 -82.5t-214 -28q-311 0 -458.5 179.5t-147.5 541.5q0 361 146.5 541t451.5 180q121 0 216 -30t160.5 -82.5t119.5 -147.5l-152 -100q-44 74 -89 112.5t-108 61t-147 22.5q-208 0 -305.5 -138.5t-97.5 -418.5q0 -276 96 -416.5
t309 -140.5q118 0 205 46.5t156 160.5zM909 1544l-184 238l-185 -238h-149l229 361h211l228 -361h-150z" />
    <glyph glyph-name="ccircumflex" unicode="&#x109;" horiz-adv-x="1030" 
d="M958 162q-49 -84 -136 -138.5t-240 -54.5q-231 0 -348 139.5t-117 413.5t116 415.5t342 141.5q259 0 369 -192l-141 -86q-39 61 -91.5 95t-138.5 34q-151 0 -214.5 -109.5t-63.5 -302.5q0 -147 30 -229t93.5 -126t161.5 -44q84 0 137 31.5t100 97.5zM766 1208l-184 238
l-185 -238h-149l229 361h211l228 -361h-150z" />
    <glyph glyph-name="Cdotaccent" unicode="&#x10a;" horiz-adv-x="1321" 
d="M1243 242q-66 -106 -134.5 -160.5t-159.5 -82.5t-214 -28q-311 0 -458.5 179.5t-147.5 541.5q0 361 146.5 541t451.5 180q121 0 216 -30t160.5 -82.5t119.5 -147.5l-152 -100q-44 74 -89 112.5t-108 61t-147 22.5q-208 0 -305.5 -138.5t-97.5 -418.5q0 -276 96 -416.5
t309 -140.5q118 0 205 46.5t156 160.5zM821 1659q0 -63 -26.5 -89t-89.5 -26q-70 0 -92.5 31t-22.5 84q0 59 24.5 87t90.5 28q65 0 90.5 -28t25.5 -87z" />
    <glyph glyph-name="cdotaccent" unicode="&#x10b;" horiz-adv-x="1030" 
d="M958 162q-49 -84 -136 -138.5t-240 -54.5q-231 0 -348 139.5t-117 413.5t116 415.5t342 141.5q259 0 369 -192l-141 -86q-39 61 -91.5 95t-138.5 34q-151 0 -214.5 -109.5t-63.5 -302.5q0 -147 30 -229t93.5 -126t161.5 -44q84 0 137 31.5t100 97.5zM694 1323
q0 -63 -26.5 -89t-89.5 -26q-70 0 -92.5 31t-22.5 84q0 59 24.5 87t90.5 28q65 0 90.5 -28t25.5 -87z" />
    <glyph glyph-name="Ccaron" unicode="&#x10c;" horiz-adv-x="1321" 
d="M1243 242q-66 -106 -134.5 -160.5t-159.5 -82.5t-214 -28q-311 0 -458.5 179.5t-147.5 541.5q0 361 146.5 541t451.5 180q121 0 216 -30t160.5 -82.5t119.5 -147.5l-152 -100q-44 74 -89 112.5t-108 61t-147 22.5q-208 0 -305.5 -138.5t-97.5 -418.5q0 -276 96 -416.5
t309 -140.5q118 0 205 46.5t156 160.5zM809 1544h-211l-227 361h149l185 -238l184 238h150z" />
    <glyph glyph-name="ccaron" unicode="&#x10d;" horiz-adv-x="1030" 
d="M958 162q-49 -84 -136 -138.5t-240 -54.5q-231 0 -348 139.5t-117 413.5t116 415.5t342 141.5q259 0 369 -192l-141 -86q-39 61 -91.5 95t-138.5 34q-151 0 -214.5 -109.5t-63.5 -302.5q0 -147 30 -229t93.5 -126t161.5 -44q84 0 137 31.5t100 97.5zM682 1208h-211
l-227 361h149l185 -238l184 238h150z" />
    <glyph glyph-name="Dcaron" unicode="&#x10e;" horiz-adv-x="1292" 
d="M1174 692q0 -254 -65.5 -404t-202 -219t-384.5 -69h-352v1384h348q242 0 382 -69.5t207 -220.5t67 -402zM979 694q0 198 -44 310t-145 162.5t-282 50.5h-154v-1049h154q182 0 281.5 50.5t144.5 162t45 313.5zM721 1544h-211l-227 361h149l185 -238l184 238h150z" />
    <glyph glyph-name="dcaron" unicode="&#x10f;" horiz-adv-x="1251" 
d="M1202 1128h-119l64 361h215zM831 0v104q-59 -57 -142 -96t-177 -39q-189 0 -292 142.5t-103 404.5q0 257 112 410t310 153q159 0 292 -116v526h173v-1489h-173zM831 813q-137 113 -270 113q-117 0 -191.5 -98.5t-74.5 -307.5q0 -397 250 -397q82 0 156.5 41t129.5 94v555
z" />
    <glyph glyph-name="Dcroat" unicode="&#x110;" horiz-adv-x="1378" 
d="M1249 692q0 -254 -70 -404t-217 -219t-413 -69h-367v627h-119v141h119v616h365q261 0 410.5 -70.5t220.5 -222.5t71 -399zM1055 694q0 292 -115 407.5t-401 115.5h-172v-449h335v-141h-335v-459h172q198 0 307 50.5t159 164t50 311.5z" />
    <glyph glyph-name="dcroat" unicode="&#x111;" horiz-adv-x="1174" 
d="M831 0v104q-59 -57 -142 -96t-177 -39q-189 0 -292 142.5t-103 404.5q0 257 112 410t310 153q159 0 292 -116v231h-301v139h301v156h173v-156h137v-139h-137v-1194h-173zM831 813q-137 113 -270 113q-117 0 -191.5 -98.5t-74.5 -307.5q0 -397 250 -397q82 0 156.5 41
t129.5 94v555z" />
    <glyph glyph-name="Emacron" unicode="&#x112;" horiz-adv-x="1153" 
d="M182 0v1384h846v-167h-661v-404h565v-168h-565v-477h661v-168h-846zM304 1591v140h610v-140h-610z" />
    <glyph glyph-name="emacron" unicode="&#x113;" horiz-adv-x="1081" 
d="M295 504q0 -208 71 -296.5t228 -88.5q70 0 123 29.5t102 95.5l142 -88q-60 -90 -146 -138.5t-233 -48.5q-234 0 -349.5 136t-115.5 411q0 288 112.5 425.5t339.5 137.5q204 0 306 -117.5t102 -361.5v-96h-682zM809 639q-2 141 -59.5 219t-186.5 78q-123 0 -184.5 -70.5
t-81.5 -226.5h512zM285 1255v140h610v-140h-610z" />
    <glyph glyph-name="Ebreve" unicode="&#x114;" horiz-adv-x="1153" 
d="M182 0v1384h846v-167h-661v-404h565v-168h-565v-477h661v-168h-846zM974 1825q0 -124 -86 -203.5t-243 -79.5q-152 0 -239 81t-87 202h127q14 -64 66.5 -94.5t130.5 -30.5q102 0 147 30.5t57 94.5h127z" />
    <glyph glyph-name="ebreve" unicode="&#x115;" horiz-adv-x="1081" 
d="M295 504q0 -208 71 -296.5t228 -88.5q70 0 123 29.5t102 95.5l142 -88q-60 -90 -146 -138.5t-233 -48.5q-234 0 -349.5 136t-115.5 411q0 288 112.5 425.5t339.5 137.5q204 0 306 -117.5t102 -361.5v-96h-682zM809 639q-2 141 -59.5 219t-186.5 78q-123 0 -184.5 -70.5
t-81.5 -226.5h512zM901 1489q0 -124 -86 -203.5t-243 -79.5q-152 0 -239 81t-87 202h127q14 -64 66.5 -94.5t130.5 -30.5q102 0 147 30.5t57 94.5h127z" />
    <glyph glyph-name="Edotaccent" unicode="&#x116;" horiz-adv-x="1153" 
d="M182 0v1384h846v-167h-661v-404h565v-168h-565v-477h661v-168h-846zM714 1659q0 -63 -26.5 -89t-89.5 -26q-70 0 -92.5 31t-22.5 84q0 59 24.5 87t90.5 28q65 0 90.5 -28t25.5 -87z" />
    <glyph glyph-name="edotaccent" unicode="&#x117;" horiz-adv-x="1081" 
d="M295 504q0 -208 71 -296.5t228 -88.5q70 0 123 29.5t102 95.5l142 -88q-60 -90 -146 -138.5t-233 -48.5q-234 0 -349.5 136t-115.5 411q0 288 112.5 425.5t339.5 137.5q204 0 306 -117.5t102 -361.5v-96h-682zM809 639q-2 141 -59.5 219t-186.5 78q-123 0 -184.5 -70.5
t-81.5 -226.5h512zM675 1323q0 -63 -26.5 -89t-89.5 -26q-70 0 -92.5 31t-22.5 84q0 59 24.5 87t90.5 28q65 0 90.5 -28t25.5 -87z" />
    <glyph glyph-name="Eogonek" unicode="&#x118;" horiz-adv-x="1153" 
d="M1026 -326q-53 -34 -99 -51.5t-100 -17.5q-92 0 -143 47.5t-51 136.5q0 127 137 211h-588v1384h846v-167h-661v-404h565v-168h-565v-477h661v-168q-131 -41 -192.5 -83.5t-61.5 -100.5q0 -35 19.5 -53.5t54.5 -18.5t63.5 11.5t59.5 27.5z" />
    <glyph glyph-name="eogonek" unicode="&#x119;" horiz-adv-x="1081" 
d="M977 504h-682q0 -208 71 -296.5t228 -88.5q70 0 123 29.5t102 95.5l142 -88q-42 -62 -74 -88q-162 -160 -162 -263q0 -61 74 -61q35 0 63.5 11.5t59.5 27.5l55 -109q-53 -34 -99.5 -51.5t-99.5 -17.5q-78 0 -136 40t-58 130q0 61 21 105t69 93q-38 -4 -78 -4
q-240 0 -359.5 133.5t-119.5 413.5q0 288 112.5 425.5t339.5 137.5q204 0 306 -117.5t102 -361.5v-96zM809 639q-2 141 -59.5 219t-186.5 78q-123 0 -184.5 -70.5t-81.5 -226.5h512z" />
    <glyph glyph-name="Ecaron" unicode="&#x11a;" horiz-adv-x="1153" 
d="M182 0v1384h846v-167h-661v-404h565v-168h-565v-477h661v-168h-846zM682 1544h-211l-227 361h149l185 -238l184 238h150z" />
    <glyph glyph-name="ecaron" unicode="&#x11b;" horiz-adv-x="1081" 
d="M295 504q0 -208 71 -296.5t228 -88.5q70 0 123 29.5t102 95.5l142 -88q-60 -90 -146 -138.5t-233 -48.5q-234 0 -349.5 136t-115.5 411q0 288 112.5 425.5t339.5 137.5q204 0 306 -117.5t102 -361.5v-96h-682zM809 639q-2 141 -59.5 219t-186.5 78q-123 0 -184.5 -70.5
t-81.5 -226.5h512zM663 1208h-211l-227 361h149l185 -238l184 238h150z" />
    <glyph glyph-name="Gcircumflex" unicode="&#x11c;" horiz-adv-x="1391" 
d="M1075 1051q-49 90 -130 144t-218 54q-209 0 -306 -138t-97 -423q0 -291 105 -422t312 -131q80 0 148.5 18.5t148.5 53.5v328h-336v167h521v-596q-113 -63 -224.5 -99t-257.5 -36q-312 0 -462 179t-150 540q0 366 150.5 544.5t449.5 178.5q170 0 293.5 -60t202.5 -200z
M909 1544l-184 238l-185 -238h-149l229 361h211l228 -361h-150z" />
    <glyph glyph-name="gcircumflex" unicode="&#x11d;" horiz-adv-x="1174" 
d="M1004 23q0 -211 -104.5 -314.5t-346.5 -103.5q-231 0 -381 98l64 139q135 -94 317 -94q147 0 212.5 61.5t65.5 202.5v123q-59 -57 -141 -96t-178 -39q-193 0 -294 137.5t-101 397.5q0 256 113 400t309 144q159 0 292 -116v86h173v-1026zM831 813q-137 113 -270 113
q-131 0 -198.5 -102t-67.5 -285q0 -202 63 -293.5t187 -91.5q144 0 286 135v524zM776 1208l-184 238l-185 -238h-149l229 361h211l228 -361h-150z" />
    <glyph glyph-name="Gbreve" unicode="&#x11e;" horiz-adv-x="1391" 
d="M1075 1051q-49 90 -130 144t-218 54q-209 0 -306 -138t-97 -423q0 -291 105 -422t312 -131q80 0 148.5 18.5t148.5 53.5v328h-336v167h521v-596q-113 -63 -224.5 -99t-257.5 -36q-312 0 -462 179t-150 540q0 366 150.5 544.5t449.5 178.5q170 0 293.5 -60t202.5 -200z
M1056 1825q0 -124 -86 -203.5t-243 -79.5q-152 0 -239 81t-87 202h127q14 -64 66.5 -94.5t130.5 -30.5q102 0 147 30.5t57 94.5h127z" />
    <glyph glyph-name="gbreve" unicode="&#x11f;" horiz-adv-x="1174" 
d="M1004 23q0 -211 -104.5 -314.5t-346.5 -103.5q-231 0 -381 98l64 139q135 -94 317 -94q147 0 212.5 61.5t65.5 202.5v123q-59 -57 -141 -96t-178 -39q-193 0 -294 137.5t-101 397.5q0 256 113 400t309 144q159 0 292 -116v86h173v-1026zM831 813q-137 113 -270 113
q-131 0 -198.5 -102t-67.5 -285q0 -202 63 -293.5t187 -91.5q144 0 286 135v524zM888 1489q0 -124 -86 -203.5t-243 -79.5q-152 0 -239 81t-87 202h127q14 -64 66.5 -94.5t130.5 -30.5q102 0 147 30.5t57 94.5h127z" />
    <glyph glyph-name="Gdotaccent" unicode="&#x120;" horiz-adv-x="1391" 
d="M1075 1051q-49 90 -130 144t-218 54q-209 0 -306 -138t-97 -423q0 -291 105 -422t312 -131q80 0 148.5 18.5t148.5 53.5v328h-336v167h521v-596q-113 -63 -224.5 -99t-257.5 -36q-312 0 -462 179t-150 540q0 366 150.5 544.5t449.5 178.5q170 0 293.5 -60t202.5 -200z
M825 1659q0 -63 -26.5 -89t-89.5 -26q-70 0 -92.5 31t-22.5 84q0 59 24.5 87t90.5 28q65 0 90.5 -28t25.5 -87z" />
    <glyph glyph-name="gdotaccent" unicode="&#x121;" horiz-adv-x="1174" 
d="M1004 23q0 -211 -104.5 -314.5t-346.5 -103.5q-231 0 -381 98l64 139q135 -94 317 -94q147 0 212.5 61.5t65.5 202.5v123q-59 -57 -141 -96t-178 -39q-193 0 -294 137.5t-101 397.5q0 256 113 400t309 144q159 0 292 -116v86h173v-1026zM831 813q-137 113 -270 113
q-131 0 -198.5 -102t-67.5 -285q0 -202 63 -293.5t187 -91.5q144 0 286 135v524zM673 1323q0 -63 -26.5 -89t-89.5 -26q-70 0 -92.5 31t-22.5 84q0 59 24.5 87t90.5 28q65 0 90.5 -28t25.5 -87z" />
    <glyph glyph-name="Gcommaaccent" unicode="&#x122;" horiz-adv-x="1391" 
d="M1075 1051q-49 90 -130 144t-218 54q-209 0 -306 -138t-97 -423q0 -291 105 -422t312 -131q80 0 148.5 18.5t148.5 53.5v328h-336v167h521v-596q-113 -63 -224.5 -99t-257.5 -36q-312 0 -462 179t-150 540q0 366 150.5 544.5t449.5 178.5q170 0 293.5 -60t202.5 -200z
M661 -530q29 38 55.5 79t26.5 82q-59 0 -85.5 26t-26.5 85q0 55 26.5 85t91.5 30q66 0 95.5 -33t29.5 -98q0 -91 -35.5 -151t-72.5 -105h-105z" />
    <glyph glyph-name="gcommaaccent" unicode="&#x123;" horiz-adv-x="1174" 
d="M1004 23q0 -211 -104.5 -314.5t-346.5 -103.5q-231 0 -381 98l64 139q135 -94 317 -94q147 0 212.5 61.5t65.5 202.5v123q-59 -57 -141 -96t-178 -39q-193 0 -294 137.5t-101 397.5q0 256 113 400t309 144q159 0 292 -116v86h173v-1026zM831 813q-137 113 -270 113
q-131 0 -198.5 -102t-67.5 -285q0 -202 63 -293.5t187 -91.5q144 0 286 135v524zM645 1552q-29 -39 -55.5 -79.5t-26.5 -81.5q59 0 85.5 -26t26.5 -85q0 -55 -26.5 -85t-91.5 -30q-66 0 -95.5 33t-29.5 98q0 62 22.5 120.5t85.5 135.5h105z" />
    <glyph glyph-name="Hcircumflex" unicode="&#x124;" horiz-adv-x="1364" 
d="M997 0v633h-630v-633h-185v1384h185v-583h630v583h185v-1384h-185zM870 1544l-184 238l-185 -238h-149l229 361h211l228 -361h-150z" />
    <glyph glyph-name="hcircumflex" unicode="&#x125;" horiz-adv-x="1163" 
d="M829 0v618q0 150 -14.5 199.5t-48.5 72.5t-100 23t-154 -50t-170 -122v-741h-172v1489h172v-596q73 73 170 129.5t195 56.5q152 0 223 -86.5t71 -292.5v-700h-172zM815 1544l-184 238l-185 -238h-149l229 361h211l228 -361h-150z" />
    <glyph glyph-name="Hbar" unicode="&#x126;" horiz-adv-x="1364" 
d="M997 0v633h-630v-633h-185v1022h-151v143h151v219h185v-219h630v219h185v-219h151v-143h-151v-1022h-185zM997 801v221h-630v-221h630z" />
    <glyph glyph-name="hbar" unicode="&#x127;" horiz-adv-x="1163" 
d="M829 0v618q0 150 -14.5 199.5t-48.5 72.5t-100 23t-154 -50t-170 -122v-741h-172v1194h-168v139h168v156h172v-156h270v-139h-270v-301q73 73 170 129.5t195 56.5q152 0 223 -86.5t71 -292.5v-700h-172z" />
    <glyph glyph-name="Itilde" unicode="&#x128;" horiz-adv-x="770" 
d="M668 0h-566v160h191v1067h-191v157h566v-157h-191v-1067h191v-160zM10 1557q6 125 67.5 193.5t161.5 68.5q56 0 96.5 -22.5t75.5 -48.5t66 -48.5t67 -22.5q88 0 97 129h121q-19 -262 -232 -262q-65 0 -105 22.5t-71 50.5t-58.5 50.5t-68.5 22.5q-51 0 -71.5 -36
t-24.5 -97h-121z" />
    <glyph glyph-name="itilde" unicode="&#x129;" horiz-adv-x="512" 
d="M-117 1221q6 125 67.5 193.5t161.5 68.5q56 0 96.5 -22.5t75.5 -48.5t66 -48.5t67 -22.5q88 0 97 129h121q-19 -262 -232 -262q-65 0 -105 22.5t-71 50.5t-58.5 50.5t-68.5 22.5q-51 0 -71.5 -36t-24.5 -97h-121zM170 0v1049h172v-1049h-172z" />
    <glyph glyph-name="Imacron" unicode="&#x12a;" horiz-adv-x="770" 
d="M668 0h-566v160h191v1067h-191v157h566v-157h-191v-1067h191v-160zM88 1591v140h610v-140h-610z" />
    <glyph glyph-name="imacron" unicode="&#x12b;" horiz-adv-x="512" 
d="M-47 1255v140h610v-140h-610zM170 0v1049h172v-1049h-172z" />
    <glyph glyph-name="Ibreve" unicode="&#x12c;" horiz-adv-x="770" 
d="M668 0h-566v160h191v1067h-191v157h566v-157h-191v-1067h191v-160zM716 1825q0 -124 -86 -203.5t-243 -79.5q-152 0 -239 81t-87 202h127q14 -64 66.5 -94.5t130.5 -30.5q102 0 147 30.5t57 94.5h127z" />
    <glyph glyph-name="ibreve" unicode="&#x12d;" horiz-adv-x="512" 
d="M585 1489q0 -124 -86 -203.5t-243 -79.5q-152 0 -239 81t-87 202h127q14 -64 66.5 -94.5t130.5 -30.5q102 0 147 30.5t57 94.5h127zM170 0v1049h172v-1049h-172z" />
    <glyph glyph-name="Iogonek" unicode="&#x12e;" horiz-adv-x="770" 
d="M666 -326q-54 -34 -100 -51.5t-99 -17.5q-93 0 -144 47t-51 137q0 127 138 211h-308v160h191v1067h-191v157h566v-157h-191v-1067h191v-160q-131 -41 -192.5 -82.5t-61.5 -101.5q0 -35 19.5 -53.5t53.5 -18.5q50 0 123 39z" />
    <glyph glyph-name="iogonek" unicode="&#x12f;" horiz-adv-x="512" 
d="M342 0q-111 -33 -162 -86t-51 -98q0 -35 19.5 -53.5t54.5 -18.5t63.5 11.5t59.5 27.5l55 -109q-53 -34 -99 -51.5t-100 -17.5q-90 0 -142 45.5t-52 138.5q0 74 48 136.5t134 103.5v1020h172v-1049zM369 1315q0 -60 -27 -81.5t-86 -21.5q-63 0 -87 27t-24 76q0 53 26 77.5
t85 24.5q61 0 87 -23.5t26 -78.5z" />
    <glyph glyph-name="Idotaccent" unicode="&#x130;" horiz-adv-x="770" 
d="M668 0h-566v160h191v1067h-191v157h566v-157h-191v-1067h191v-160zM507 1659q0 -63 -26.5 -89t-89.5 -26q-70 0 -92.5 31t-22.5 84q0 59 24.5 87t90.5 28q65 0 90.5 -28t25.5 -87z" />
    <glyph glyph-name="dotlessi" unicode="&#x131;" horiz-adv-x="512" 
d="M170 0v1049h172v-1049h-172z" />
    <glyph glyph-name="IJ" unicode="&#x132;" horiz-adv-x="1593" 
d="M668 0h-566v160h191v1067h-191v157h566v-157h-191v-1067h191v-160zM1409 377q0 -203 -89 -305.5t-300 -102.5q-59 0 -133 14.5t-127 36.5l68 158q32 -16 92 -30.5t98 -14.5q81 0 125 28t63 92.5t19 199.5v931h184v-1007z" />
    <glyph glyph-name="ij" unicode="&#x133;" horiz-adv-x="1049" 
d="M369 1315q0 -60 -27 -81.5t-86 -21.5q-63 0 -87 27t-24 76q0 53 26 77.5t85 24.5q61 0 87 -23.5t26 -78.5zM170 0v1049h172v-1049h-172zM895 1315q0 -60 -26.5 -81.5t-86.5 -21.5q-63 0 -86.5 27t-23.5 76q0 53 25.5 77.5t84.5 24.5q62 0 87.5 -23.5t25.5 -78.5zM868 -45
q0 -190 -74 -270t-239 -80q-100 0 -188 30l43 142q73 -29 151 -29q84 0 109.5 58.5t25.5 168.5v1074h172v-1094z" />
    <glyph glyph-name="Jcircumflex" unicode="&#x134;" horiz-adv-x="885" 
d="M700 377q0 -203 -89 -305.5t-300 -102.5q-59 0 -133 14.5t-127 36.5l68 158q32 -16 92 -30.5t98 -14.5q81 0 125 28t63 92.5t19 199.5v931h184v-1007zM793 1544l-184 238l-185 -238h-149l229 361h211l228 -361h-150z" />
    <glyph glyph-name="jcircumflex" unicode="&#x135;" horiz-adv-x="537" 
d="M358 -45q0 -190 -74 -270t-239 -80q-100 0 -188 30l43 142q73 -29 151 -29q84 0 109.5 58.5t25.5 168.5v1074h172v-1094zM461 1208l-184 238l-185 -238h-149l229 361h211l228 -361h-150z" />
    <glyph glyph-name="Kcommaaccent" unicode="&#x136;" horiz-adv-x="1264" 
d="M975 0l-477 614l-131 -147v-467h-185v1384h185v-679l585 679h230l-566 -636l594 -748h-235zM538 -530q29 38 55.5 79t26.5 82q-59 0 -85.5 26t-26.5 85q0 55 26.5 85t91.5 30q66 0 95.5 -33t29.5 -98q0 -91 -35.5 -151t-72.5 -105h-105z" />
    <glyph glyph-name="kcommaaccent" unicode="&#x137;" horiz-adv-x="1049" 
d="M788 0l-333 471l-113 -125v-346h-172v1489h172v-930l426 490h211l-418 -459l440 -590h-213zM432 -530q29 38 55.5 79t26.5 82q-59 0 -85.5 26t-26.5 85q0 55 26.5 85t91.5 30q66 0 95.5 -33t29.5 -98q0 -91 -35.5 -151t-72.5 -105h-105z" />
    <glyph glyph-name="kgreenlandic" unicode="&#x138;" horiz-adv-x="1049" 
d="M788 0l-333 471l-113 -125v-346h-172v1047h172v-488l377 434q52 69 135 72q60 0 129 -16l-47 -142q-20 8 -47 8q-21 0 -33 -8t-27 -22l-268 -295l440 -590h-213z" />
    <glyph glyph-name="Lacute" unicode="&#x139;" horiz-adv-x="1038" 
d="M182 0v1384h185v-1216h626v-168h-811zM551 1544h-142l178 361h236z" />
    <glyph glyph-name="lacute" unicode="&#x13a;" horiz-adv-x="528" 
d="M178 0v1489h172v-1489h-172zM281 1546h-142l178 361h236z" />
    <glyph glyph-name="Lcommaaccent" unicode="&#x13b;" horiz-adv-x="1038" 
d="M182 0v1384h185v-1216h626v-168h-811zM516 -530q29 38 55.5 79t26.5 82q-59 0 -85.5 26t-26.5 85q0 55 26.5 85t91.5 30q66 0 95.5 -33t29.5 -98q0 -91 -35.5 -151t-72.5 -105h-105z" />
    <glyph glyph-name="lcommaaccent" unicode="&#x13c;" horiz-adv-x="528" 
d="M178 0v1489h172v-1489h-172zM174 -530q29 38 55.5 79t26.5 82q-59 0 -85.5 26t-26.5 85q0 55 26.5 85t91.5 30q66 0 95.5 -33t29.5 -98q0 -91 -35.5 -151t-72.5 -105h-105z" />
    <glyph glyph-name="Lcaron" unicode="&#x13d;" horiz-adv-x="1038" 
d="M182 0v1384h185v-1216h626v-168h-811zM637 1026h-121l66 361h215z" />
    <glyph glyph-name="lcaron" unicode="&#x13e;" horiz-adv-x="608" 
d="M178 0v1489h172v-1489h-172zM553 1128h-121l66 361h215z" />
    <glyph glyph-name="Ldot" unicode="&#x13f;" horiz-adv-x="1038" 
d="M182 0v1384h185v-1216h626v-168h-811zM892 750q0 -63 -26.5 -89t-89.5 -26q-70 0 -92.5 31t-22.5 84q0 59 24.5 87t90.5 28q65 0 90.5 -28t25.5 -87z" />
    <glyph glyph-name="ldot" unicode="&#x140;" horiz-adv-x="717" 
d="M178 0v1489h172v-1489h-172zM729 750q0 -63 -26.5 -89t-89.5 -26q-70 0 -92.5 31t-22.5 84q0 59 24.5 87t90.5 28q65 0 90.5 -28t25.5 -87z" />
    <glyph glyph-name="Lslash" unicode="&#x141;" horiz-adv-x="1038" 
d="M182 0v505l-151 -122v174l151 122v705h185v-556l249 202v-174l-249 -202v-486h626v-168h-811z" />
    <glyph glyph-name="lslash" unicode="&#x142;" horiz-adv-x="528" 
d="M350 741v-741h-172v596l-147 -127v170l147 125v725h172v-578l148 127v-170z" />
    <glyph glyph-name="Nacute" unicode="&#x143;" horiz-adv-x="1386" 
d="M985 0l-625 1188v-1188h-178v1384h271l573 -1087v1087h178v-1384h-219zM719 1544h-142l178 361h236z" />
    <glyph glyph-name="nacute" unicode="&#x144;" horiz-adv-x="1163" 
d="M829 0v618q0 150 -15 200t-49 72.5t-99 22.5q-66 0 -154 -50t-170 -122v-741h-172v1049h172v-156q73 73 170 129.5t195 56.5q152 0 223 -86.5t71 -292.5v-700h-172zM623 1208h-142l178 361h236z" />
    <glyph glyph-name="Ncommaaccent" unicode="&#x145;" horiz-adv-x="1386" 
d="M985 0l-625 1188v-1188h-178v1384h271l573 -1087v1087h178v-1384h-219zM626 -530q29 38 55.5 79t26.5 82q-59 0 -85.5 26t-26.5 85q0 55 26.5 85t91.5 30q66 0 95.5 -33t29.5 -98q0 -91 -35.5 -151t-72.5 -105h-105z" />
    <glyph glyph-name="ncommaaccent" unicode="&#x146;" horiz-adv-x="1163" 
d="M829 0v618q0 150 -15 200t-49 72.5t-99 22.5q-66 0 -154 -50t-170 -122v-741h-172v1049h172v-156q73 73 170 129.5t195 56.5q152 0 223 -86.5t71 -292.5v-700h-172zM489 -530q29 38 55.5 79t26.5 82q-59 0 -85.5 26t-26.5 85q0 55 26.5 85t91.5 30q66 0 95.5 -33
t29.5 -98q0 -91 -35.5 -151t-72.5 -105h-105z" />
    <glyph glyph-name="Ncaron" unicode="&#x147;" horiz-adv-x="1386" 
d="M985 0l-625 1188v-1188h-178v1384h271l573 -1087v1087h178v-1384h-219zM788 1544h-211l-227 361h149l185 -238l184 238h150z" />
    <glyph glyph-name="ncaron" unicode="&#x148;" horiz-adv-x="1163" 
d="M829 0v618q0 150 -15 200t-49 72.5t-99 22.5q-66 0 -154 -50t-170 -122v-741h-172v1049h172v-156q73 73 170 129.5t195 56.5q152 0 223 -86.5t71 -292.5v-700h-172zM698 1208h-211l-227 361h149l185 -238l184 238h150z" />
    <glyph glyph-name="napostrophe" unicode="&#x149;" horiz-adv-x="1280" 
d="M946 0v618q0 150 -15 200t-49 72.5t-99 22.5q-66 0 -154 -50t-170 -122v-741h-172v1049h172v-156q73 73 170 129.5t195 56.5q152 0 223 -86.5t71 -292.5v-700h-172zM225 1280q0 -123 -36.5 -223.5t-75.5 -147.5h-105q35 44 59.5 130t24.5 149q-59 0 -84.5 26.5
t-25.5 85.5q0 56 27.5 84.5t92.5 28.5q68 0 95.5 -33.5t27.5 -99.5z" />
    <glyph glyph-name="Eng" unicode="&#x14a;" horiz-adv-x="1386" 
d="M739 -223q74 -29 152 -29q86 0 110.5 59.5t24.5 192.5l-666 1188v-1188h-178v1384h271l573 -1046v1046h178v-1429q0 -185 -75 -267.5t-244 -82.5q-101 0 -189 30z" />
    <glyph glyph-name="eng" unicode="&#x14b;" horiz-adv-x="1163" 
d="M170 0v1049h172v-156q73 73 170 129.5t195 56.5q152 0 223 -86.5t71 -292.5v-745q0 -190 -74 -270t-239 -80q-100 0 -188 30l43 142q73 -29 151 -29q84 0 109.5 58.5t25.5 168.5v643q0 150 -15 200t-49 72.5t-99 22.5q-66 0 -154 -50t-170 -122v-741h-172z" />
    <glyph glyph-name="Omacron" unicode="&#x14c;" horiz-adv-x="1364" 
d="M1245 692q0 -373 -140.5 -547t-422.5 -174q-286 0 -424.5 177t-138.5 544q0 364 137 542.5t426 178.5q285 0 424 -175t139 -546zM1051 692q0 287 -86.5 422t-282.5 135t-282.5 -135t-86.5 -422q0 -289 87.5 -423t281.5 -134q193 0 281 133t88 424zM375 1591v140h610v-140
h-610z" />
    <glyph glyph-name="omacron" unicode="&#x14d;" horiz-adv-x="1157" 
d="M1040 522q0 -273 -117.5 -413t-342.5 -140t-344 138.5t-119 414.5q0 281 119.5 419t343.5 138q226 0 343 -140.5t117 -416.5zM862 522q0 214 -70.5 311t-211.5 97q-145 0 -215 -97.5t-70 -310.5q0 -205 67.5 -304t217.5 -99q143 0 212.5 98t69.5 305zM271 1255v140h610
v-140h-610z" />
    <glyph glyph-name="Obreve" unicode="&#x14e;" horiz-adv-x="1364" 
d="M1245 692q0 -373 -140.5 -547t-422.5 -174q-286 0 -424.5 177t-138.5 544q0 364 137 542.5t426 178.5q285 0 424 -175t139 -546zM1051 692q0 287 -86.5 422t-282.5 135t-282.5 -135t-86.5 -422q0 -289 87.5 -423t281.5 -134q193 0 281 133t88 424zM1005 1825
q0 -124 -86 -203.5t-243 -79.5q-152 0 -239 81t-87 202h127q14 -64 66.5 -94.5t130.5 -30.5q102 0 147 30.5t57 94.5h127z" />
    <glyph glyph-name="obreve" unicode="&#x14f;" horiz-adv-x="1157" 
d="M1040 522q0 -273 -117.5 -413t-342.5 -140t-344 138.5t-119 414.5q0 281 119.5 419t343.5 138q226 0 343 -140.5t117 -416.5zM862 522q0 214 -70.5 311t-211.5 97q-145 0 -215 -97.5t-70 -310.5q0 -205 67.5 -304t217.5 -99q143 0 212.5 98t69.5 305zM911 1489
q0 -124 -86 -203.5t-243 -79.5q-152 0 -239 81t-87 202h127q14 -64 66.5 -94.5t130.5 -30.5q102 0 147 30.5t57 94.5h127z" />
    <glyph glyph-name="Ohungarumlaut" unicode="&#x150;" horiz-adv-x="1364" 
d="M1245 692q0 -373 -140.5 -547t-422.5 -174q-286 0 -424.5 177t-138.5 544q0 364 137 542.5t426 178.5q285 0 424 -175t139 -546zM1051 692q0 287 -86.5 422t-282.5 135t-282.5 -135t-86.5 -422q0 -289 87.5 -423t281.5 -134q193 0 281 133t88 424zM905 1544h-142l179 361
h235zM557 1544h-142l178 361h236z" />
    <glyph glyph-name="ohungarumlaut" unicode="&#x151;" horiz-adv-x="1157" 
d="M1040 522q0 -273 -117.5 -413t-342.5 -140t-344 138.5t-119 414.5q0 281 119.5 419t343.5 138q226 0 343 -140.5t117 -416.5zM862 522q0 214 -70.5 311t-211.5 97q-145 0 -215 -97.5t-70 -310.5q0 -205 67.5 -304t217.5 -99q143 0 212.5 98t69.5 305zM803 1208h-142
l179 361h235zM455 1208h-142l178 361h236z" />
    <glyph glyph-name="OE" unicode="&#x152;" horiz-adv-x="1849" 
d="M952 0q-102 -29 -225 -29q-305 0 -451.5 177t-146.5 544q0 366 145.5 543.5t452.5 177.5q124 0 223 -29h774v-167h-604v-408h525v-168h-525v-473h604v-168h-772zM934 1206q-84 43 -205 43q-216 0 -310.5 -135.5t-94.5 -421.5q0 -288 95.5 -422.5t309.5 -134.5
q121 0 205 43v1028z" />
    <glyph glyph-name="oe" unicode="&#x153;" horiz-adv-x="1821" 
d="M1034 504v-21q0 -188 74 -276t225 -88q72 0 124 29.5t102 95.5l141 -88q-60 -90 -145 -138.5t-220 -48.5q-274 0 -389 193q-121 -193 -366 -193q-225 0 -344 138.5t-119 414.5q0 281 119.5 419t343.5 138q120 0 217.5 -51t148.5 -141q51 94 144.5 143t218.5 49
q203 0 305 -117t102 -362v-96h-682zM1548 639q-2 141 -59 219t-186 78q-123 0 -188.5 -68.5t-78.5 -228.5h512zM862 516q0 153 -29.5 237.5t-91 130.5t-161.5 46q-145 0 -215 -97.5t-70 -310.5q0 -205 67.5 -304t217.5 -99q139 0 210.5 96.5t71.5 300.5z" />
    <glyph glyph-name="Racute" unicode="&#x154;" horiz-adv-x="1237" 
d="M961 0l-353 565h-241v-565h-185v1384h430q258 0 370 -95t112 -294q0 -170 -68.5 -269t-222.5 -132l375 -594h-217zM903 981q0 137 -69.5 188.5t-223.5 51.5h-243v-492h231q116 0 182.5 24.5t94.5 78t28 149.5zM633 1544h-142l178 361h236z" />
    <glyph glyph-name="racute" unicode="&#x155;" horiz-adv-x="811" 
d="M737 879q-28 12 -80 12q-77 0 -148.5 -35.5t-166.5 -130.5v-725h-172v1049h172v-170q72 73 151.5 129.5t176.5 56.5q65 0 104 -21zM422 1208h-142l178 361h236z" />
    <glyph glyph-name="Rcommaaccent" unicode="&#x156;" horiz-adv-x="1237" 
d="M961 0l-353 565h-241v-565h-185v1384h430q258 0 370 -95t112 -294q0 -170 -68.5 -269t-222.5 -132l375 -594h-217zM903 981q0 137 -69.5 188.5t-223.5 51.5h-243v-492h231q116 0 182.5 24.5t94.5 78t28 149.5zM546 -530q29 38 55.5 79t26.5 82q-59 0 -85.5 26t-26.5 85
q0 55 26.5 85t91.5 30q66 0 95.5 -33t29.5 -98q0 -91 -35.5 -151t-72.5 -105h-105z" />
    <glyph glyph-name="rcommaaccent" unicode="&#x157;" horiz-adv-x="811" 
d="M737 879q-28 12 -80 12q-77 0 -148.5 -35.5t-166.5 -130.5v-725h-172v1049h172v-170q72 73 151.5 129.5t176.5 56.5q65 0 104 -21zM170 -530q29 38 55.5 79t26.5 82q-59 0 -85.5 26t-26.5 85q0 55 26.5 85t91.5 30q66 0 95.5 -33t29.5 -98q0 -91 -35.5 -151t-72.5 -105
h-105z" />
    <glyph glyph-name="Rcaron" unicode="&#x158;" horiz-adv-x="1237" 
d="M961 0l-353 565h-241v-565h-185v1384h430q258 0 370 -95t112 -294q0 -170 -68.5 -269t-222.5 -132l375 -594h-217zM903 981q0 137 -69.5 188.5t-223.5 51.5h-243v-492h231q116 0 182.5 24.5t94.5 78t28 149.5zM713 1544h-211l-227 361h149l185 -238l184 238h150z" />
    <glyph glyph-name="rcaron" unicode="&#x159;" horiz-adv-x="811" 
d="M737 879q-28 12 -80 12q-77 0 -148.5 -35.5t-166.5 -130.5v-725h-172v1049h172v-170q72 73 151.5 129.5t176.5 56.5q65 0 104 -21zM563 1208h-211l-227 361h149l185 -238l184 238h150z" />
    <glyph glyph-name="Sacute" unicode="&#x15a;" horiz-adv-x="1227" 
d="M1112 379q0 -194 -127.5 -301t-372.5 -107q-187 0 -312 66t-204 205l150 100q117 -207 362 -207q147 0 231.5 61.5t84.5 168.5q0 61 -27 103t-71 70.5t-101 46t-119 33.5q-102 25 -190 51.5t-152.5 68.5t-101.5 107.5t-37 168.5q0 184 118.5 291.5t354.5 107.5
q188 0 300 -69.5t177 -178.5l-147 -104q-54 90 -131.5 139t-198.5 49q-135 0 -210 -59.5t-75 -159.5q0 -53 22.5 -89t64.5 -60.5t104.5 -42t142.5 -37.5q94 -25 179 -52.5t148.5 -72.5t100.5 -116t37 -181zM627 1544h-142l178 361h236z" />
    <glyph glyph-name="sacute" unicode="&#x15b;" horiz-adv-x="991" 
d="M887 283q0 -147 -104 -230.5t-296 -83.5q-131 0 -235 49.5t-152 139.5l138 84q79 -127 254 -127q114 0 170.5 43.5t56.5 117.5q0 44 -20 71.5t-62 48t-172 55.5q-187 43 -263.5 119t-76.5 202q0 139 100 223t277 84q137 0 230 -54t136 -130l-137 -84q-82 123 -233 123
q-86 0 -145.5 -38t-59.5 -118q0 -71 52 -103t163 -59q178 -46 246 -86t100.5 -98.5t32.5 -148.5zM533 1208h-142l178 361h236z" />
    <glyph glyph-name="Scircumflex" unicode="&#x15c;" horiz-adv-x="1227" 
d="M1112 379q0 -194 -127.5 -301t-372.5 -107q-187 0 -312 66t-204 205l150 100q117 -207 362 -207q147 0 231.5 61.5t84.5 168.5q0 61 -27 103t-71 70.5t-101 46t-119 33.5q-102 25 -190 51.5t-152.5 68.5t-101.5 107.5t-37 168.5q0 184 118.5 291.5t354.5 107.5
q188 0 300 -69.5t177 -178.5l-147 -104q-54 90 -131.5 139t-198.5 49q-135 0 -210 -59.5t-75 -159.5q0 -53 22.5 -89t64.5 -60.5t104.5 -42t142.5 -37.5q94 -25 179 -52.5t148.5 -72.5t100.5 -116t37 -181zM786 1544l-184 238l-185 -238h-149l229 361h211l228 -361h-150z
" />
    <glyph glyph-name="scircumflex" unicode="&#x15d;" horiz-adv-x="991" 
d="M887 283q0 -147 -104 -230.5t-296 -83.5q-131 0 -235 49.5t-152 139.5l138 84q79 -127 254 -127q114 0 170.5 43.5t56.5 117.5q0 44 -20 71.5t-62 48t-172 55.5q-187 43 -263.5 119t-76.5 202q0 139 100 223t277 84q137 0 230 -54t136 -130l-137 -84q-82 123 -233 123
q-86 0 -145.5 -38t-59.5 -118q0 -71 52 -103t163 -59q178 -46 246 -86t100.5 -98.5t32.5 -148.5zM686 1208l-184 238l-185 -238h-149l229 361h211l228 -361h-150z" />
    <glyph glyph-name="Scedilla" unicode="&#x15e;" horiz-adv-x="1227" 
d="M850 -215q0 -86 -68.5 -133t-187.5 -47q-78 0 -147.5 17.5t-92.5 29.5l52 100q28 -10 84.5 -21.5t107.5 -11.5q121 0 121 78q0 40 -42.5 68t-133.5 35l37 73q-339 7 -484 269l150 100q117 -207 362 -207q147 0 231.5 61.5t84.5 168.5q0 61 -27 103t-71 70.5t-101 46
t-119 33.5q-102 25 -190 51.5t-152.5 68.5t-101.5 107.5t-37 168.5q0 184 118.5 291.5t354.5 107.5q188 0 300 -69.5t177 -178.5l-147 -104q-54 90 -131.5 139t-198.5 49q-135 0 -210 -59.5t-75 -159.5q0 -53 22.5 -89t64.5 -60.5t104.5 -42t142.5 -37.5q94 -25 179 -52.5
t148.5 -72.5t100.5 -116t37 -181q0 -180 -108 -283.5t-316 -120.5l-2 -6q86 -22 125 -73.5t39 -110.5z" />
    <glyph glyph-name="scedilla" unicode="&#x15f;" horiz-adv-x="991" 
d="M725 -215q0 -86 -68.5 -133t-187.5 -47q-78 0 -147.5 17.5t-92.5 29.5l52 100q28 -10 84.5 -21.5t107.5 -11.5q121 0 121 78q0 40 -42.5 68t-133.5 35l37 71q-146 6 -233 62.5t-122 124.5l138 84q79 -127 254 -127q114 0 170.5 43.5t56.5 117.5q0 44 -20 71.5t-62 48
t-172 55.5q-187 43 -263.5 119t-76.5 202q0 139 100 223t277 84q137 0 230 -54t136 -130l-137 -84q-82 123 -233 123q-86 0 -145.5 -38t-59.5 -118q0 -71 52 -103t163 -59q178 -46 246 -86t100.5 -98.5t32.5 -148.5q0 -131 -81 -209.5t-243 -100.5l-2 -4q86 -22 125 -73.5
t39 -110.5z" />
    <glyph glyph-name="Scaron" unicode="&#x160;" horiz-adv-x="1227" 
d="M1112 379q0 -194 -127.5 -301t-372.5 -107q-187 0 -312 66t-204 205l150 100q117 -207 362 -207q147 0 231.5 61.5t84.5 168.5q0 61 -27 103t-71 70.5t-101 46t-119 33.5q-102 25 -190 51.5t-152.5 68.5t-101.5 107.5t-37 168.5q0 184 118.5 291.5t354.5 107.5
q188 0 300 -69.5t177 -178.5l-147 -104q-54 90 -131.5 139t-198.5 49q-135 0 -210 -59.5t-75 -159.5q0 -53 22.5 -89t64.5 -60.5t104.5 -42t142.5 -37.5q94 -25 179 -52.5t148.5 -72.5t100.5 -116t37 -181zM706 1544h-211l-227 361h149l185 -238l184 238h150z" />
    <glyph glyph-name="scaron" unicode="&#x161;" horiz-adv-x="991" 
d="M887 283q0 -147 -104 -230.5t-296 -83.5q-131 0 -235 49.5t-152 139.5l138 84q79 -127 254 -127q114 0 170.5 43.5t56.5 117.5q0 44 -20 71.5t-62 48t-172 55.5q-187 43 -263.5 119t-76.5 202q0 139 100 223t277 84q137 0 230 -54t136 -130l-137 -84q-82 123 -233 123
q-86 0 -145.5 -38t-59.5 -118q0 -71 52 -103t163 -59q178 -46 246 -86t100.5 -98.5t32.5 -148.5zM612 1208h-211l-227 361h149l185 -238l184 238h150z" />
    <glyph glyph-name="uni0162" unicode="&#x162;" horiz-adv-x="1184" 
d="M807 -215q0 -86 -68.5 -133t-187.5 -47q-78 0 -147.5 17.5t-92.5 29.5l51 100q29 -10 85.5 -21.5t107.5 -11.5q121 0 121 78q0 40 -42.5 68t-133.5 35l51 100h-51v1217h-459v167h1102v-167h-459v-1217h-27l-14 -31q86 -22 125 -73.5t39 -110.5z" />
    <glyph glyph-name="uni0163" unicode="&#x163;" horiz-adv-x="729" 
d="M659 -215q0 -86 -68.5 -133t-187.5 -47q-77 0 -147 17.5t-92 29.5l51 100q29 -10 85 -21.5t108 -11.5q120 0 120 78q0 41 -43.5 68.5t-132.5 34.5l41 80q-104 24 -150 107t-46 230v588h-150v144h150v292h172v-292h266v-144h-266v-555q0 -127 25.5 -182t113.5 -55
q76 0 141 28l45 -141q-100 -31 -198 -31q86 -22 124.5 -73.5t38.5 -110.5z" />
    <glyph glyph-name="Tcaron" unicode="&#x164;" horiz-adv-x="1184" 
d="M684 1217v-1217h-184v1217h-459v167h1102v-167h-459zM696 1544h-211l-227 361h149l185 -238l184 238h150z" />
    <glyph glyph-name="tcaron" unicode="&#x165;" horiz-adv-x="729" 
d="M596 1128h-121l66 361h215zM694 0q-100 -31 -198 -31q-160 0 -229.5 84t-69.5 264v588h-150v144h150v292h172v-292h266v-144h-266v-555q0 -127 25.5 -182t113.5 -55q76 0 141 28z" />
    <glyph glyph-name="Tbar" unicode="&#x166;" horiz-adv-x="1184" 
d="M684 1217v-412h213v-139h-213v-666h-184v666h-213v139h213v412h-459v167h1102v-167h-459z" />
    <glyph glyph-name="tbar" unicode="&#x167;" horiz-adv-x="729" 
d="M369 580v-230q0 -127 25.5 -182t113.5 -55q76 0 141 28l45 -141q-100 -31 -198 -31q-160 0 -229.5 84t-69.5 264v263h-166v139h166v186h-150v144h150v292h172v-292h266v-144h-266v-186h272v-139h-272z" />
    <glyph glyph-name="Utilde" unicode="&#x168;" horiz-adv-x="1405" 
d="M1223 578q0 -227 -51 -358t-160.5 -191t-306.5 -60q-196 0 -309 61t-163.5 193t-50.5 355v806h185v-786q0 -182 33 -280.5t104.5 -141.5t197.5 -43q127 0 199 42.5t104.5 135.5t32.5 283v790h185v-806zM334 1557q6 125 67.5 193.5t161.5 68.5q56 0 96.5 -22.5t75.5 -48.5
t66 -48.5t67 -22.5q88 0 97 129h121q-19 -262 -232 -262q-65 0 -105 22.5t-71 50.5t-58.5 50.5t-68.5 22.5q-51 0 -71.5 -36t-24.5 -97h-121z" />
    <glyph glyph-name="utilde" unicode="&#x169;" horiz-adv-x="1163" 
d="M821 0v156q-80 -80 -176 -133.5t-188 -53.5q-105 0 -170.5 39.5t-95 119t-29.5 220.5v701h172v-619q0 -150 15.5 -200t49.5 -72.5t99 -22.5t153 50.5t170 121.5v742h172v-1049h-172zM197 1221q6 125 67.5 193.5t161.5 68.5q56 0 96.5 -22.5t75.5 -48.5t66 -48.5t67 -22.5
q88 0 97 129h121q-19 -262 -232 -262q-65 0 -105 22.5t-71 50.5t-58.5 50.5t-68.5 22.5q-51 0 -71.5 -36t-24.5 -97h-121z" />
    <glyph glyph-name="Umacron" unicode="&#x16a;" horiz-adv-x="1405" 
d="M1223 578q0 -227 -51 -358t-160.5 -191t-306.5 -60q-196 0 -309 61t-163.5 193t-50.5 355v806h185v-786q0 -182 33 -280.5t104.5 -141.5t197.5 -43q127 0 199 42.5t104.5 135.5t32.5 283v790h185v-806zM398 1591v140h610v-140h-610z" />
    <glyph glyph-name="umacron" unicode="&#x16b;" horiz-adv-x="1163" 
d="M821 0v156q-80 -80 -176 -133.5t-188 -53.5q-105 0 -170.5 39.5t-95 119t-29.5 220.5v701h172v-619q0 -150 15.5 -200t49.5 -72.5t99 -22.5t153 50.5t170 121.5v742h172v-1049h-172zM277 1255v140h610v-140h-610z" />
    <glyph glyph-name="Ubreve" unicode="&#x16c;" horiz-adv-x="1405" 
d="M1223 578q0 -227 -51 -358t-160.5 -191t-306.5 -60q-196 0 -309 61t-163.5 193t-50.5 355v806h185v-786q0 -182 33 -280.5t104.5 -141.5t197.5 -43q127 0 199 42.5t104.5 135.5t32.5 283v790h185v-806zM1034 1825q0 -124 -86 -203.5t-243 -79.5q-152 0 -239 81t-87 202
h127q14 -64 66.5 -94.5t130.5 -30.5q102 0 147 30.5t57 94.5h127z" />
    <glyph glyph-name="ubreve" unicode="&#x16d;" horiz-adv-x="1163" 
d="M821 0v156q-80 -80 -176 -133.5t-188 -53.5q-105 0 -170.5 39.5t-95 119t-29.5 220.5v701h172v-619q0 -150 15.5 -200t49.5 -72.5t99 -22.5t153 50.5t170 121.5v742h172v-1049h-172zM911 1489q0 -124 -86 -203.5t-243 -79.5q-152 0 -239 81t-87 202h127
q14 -64 66.5 -94.5t130.5 -30.5q102 0 147 30.5t57 94.5h127z" />
    <glyph glyph-name="Uring" unicode="&#x16e;" horiz-adv-x="1405" 
d="M1223 578q0 -227 -51 -358t-160.5 -191t-306.5 -60q-196 0 -309 61t-163.5 193t-50.5 355v806h185v-786q0 -182 33 -280.5t104.5 -141.5t197.5 -43q127 0 199 42.5t104.5 135.5t32.5 283v790h185v-806zM901 1692q0 -90 -48 -143.5t-150 -53.5q-105 0 -151 55.5t-46 141.5
q0 88 47 142t150 54q104 0 151 -53t47 -143zM801 1692q0 100 -98 100q-97 0 -97 -100q0 -101 97 -101q98 0 98 101z" />
    <glyph glyph-name="uring" unicode="&#x16f;" horiz-adv-x="1163" 
d="M821 0v156q-80 -80 -176 -133.5t-188 -53.5q-105 0 -170.5 39.5t-95 119t-29.5 220.5v701h172v-619q0 -150 15.5 -200t49.5 -72.5t99 -22.5t153 50.5t170 121.5v742h172v-1049h-172zM749 1356q0 -90 -48 -143.5t-150 -53.5q-105 0 -151 55.5t-46 141.5q0 88 47 142
t150 54q104 0 151 -53t47 -143zM649 1356q0 100 -98 100q-97 0 -97 -100q0 -101 97 -101q98 0 98 101z" />
    <glyph glyph-name="Uhungarumlaut" unicode="&#x170;" horiz-adv-x="1405" 
d="M1223 578q0 -227 -51 -358t-160.5 -191t-306.5 -60q-196 0 -309 61t-163.5 193t-50.5 355v806h185v-786q0 -182 33 -280.5t104.5 -141.5t197.5 -43q127 0 199 42.5t104.5 135.5t32.5 283v790h185v-806zM926 1544h-142l179 361h235zM578 1544h-142l178 361h236z" />
    <glyph glyph-name="uhungarumlaut" unicode="&#x171;" horiz-adv-x="1163" 
d="M821 0v156q-80 -80 -176 -133.5t-188 -53.5q-105 0 -170.5 39.5t-95 119t-29.5 220.5v701h172v-619q0 -150 15.5 -200t49.5 -72.5t99 -22.5t153 50.5t170 121.5v742h172v-1049h-172zM805 1208h-142l179 361h235zM457 1208h-142l178 361h236z" />
    <glyph glyph-name="Uogonek" unicode="&#x172;" horiz-adv-x="1405" 
d="M1223 578q0 -316 -103 -453q-149 -197 -149 -320q0 -61 73 -61q50 0 123 39l56 -109q-54 -34 -100 -51.5t-99 -17.5q-78 0 -136.5 40t-58.5 130q0 59 20.5 109t55.5 106q-82 -21 -200 -21q-196 0 -309 61t-163.5 193t-50.5 355v806h185v-786q0 -182 33 -280.5
t104.5 -141.5t197.5 -43q127 0 199 42.5t104.5 135.5t32.5 283v790h185v-806z" />
    <glyph glyph-name="uogonek" unicode="&#x173;" horiz-adv-x="1163" 
d="M991 -326q-53 -34 -99 -51.5t-99 -17.5q-93 0 -144 47t-51 137q0 164 223 254v113q-80 -80 -176 -133.5t-188 -53.5q-105 0 -170.5 39.5t-95 119t-29.5 220.5v701h172v-619q0 -150 15.5 -200t49.5 -72.5t99 -22.5t153 50.5t170 121.5v742h172v-1049
q-131 -41 -192.5 -83.5t-61.5 -100.5q0 -35 19.5 -53.5t54.5 -18.5t63.5 11.5t59.5 27.5z" />
    <glyph glyph-name="Wcircumflex" unicode="&#x174;" horiz-adv-x="1757" 
d="M1356 0h-221l-261 1108l-262 -1108h-217l-327 1384h184l258 -1118l262 1118h209l266 -1126l262 1126h181zM1063 1544l-184 238l-185 -238h-149l229 361h211l228 -361h-150z" />
    <glyph glyph-name="wcircumflex" unicode="&#x175;" horiz-adv-x="1475" 
d="M1153 0h-160l-256 803l-256 -803h-157l-261 1049h179l178 -799l250 799h143l256 -799l170 799h172zM930 1208l-184 238l-185 -238h-149l229 361h211l228 -361h-150z" />
    <glyph glyph-name="Ycircumflex" unicode="&#x176;" horiz-adv-x="1147" 
d="M666 535v-535h-187v526l-438 858h209l325 -673l332 673h199zM760 1544l-184 238l-185 -238h-149l229 361h211l228 -361h-150z" />
    <glyph glyph-name="ycircumflex" unicode="&#x177;" horiz-adv-x="1040" 
d="M39 -223q65 -29 151 -29q121 0 205 219l35 90l-383 992h186l289 -768l291 768h180l-448 -1129q-71 -173 -152 -244t-211 -71q-47 0 -100 9t-86 21zM706 1208l-184 238l-185 -238h-149l229 361h211l228 -361h-150z" />
    <glyph glyph-name="Ydieresis" unicode="&#x178;" horiz-adv-x="1147" 
d="M666 535v-535h-187v526l-438 858h209l325 -673l332 673h199zM885 1651q0 -60 -24.5 -83.5t-84.5 -23.5q-63 0 -84.5 29t-21.5 78q0 53 23.5 79.5t82.5 26.5q62 0 85.5 -25.5t23.5 -80.5zM490 1651q0 -60 -24.5 -83.5t-84.5 -23.5q-63 0 -84.5 29t-21.5 78q0 53 23.5 79.5
t82.5 26.5q62 0 85.5 -25.5t23.5 -80.5z" />
    <glyph glyph-name="Zacute" unicode="&#x179;" horiz-adv-x="1163" 
d="M92 0v176l729 1041h-698v167h917v-165l-737 -1051h754v-168h-965zM574 1542h-142l178 361h236z" />
    <glyph glyph-name="zacute" unicode="&#x17a;" horiz-adv-x="934" 
d="M82 0v131l547 774h-535v144h742v-125l-549 -779h565v-145h-770zM484 1208h-142l178 361h236z" />
    <glyph glyph-name="Zdotaccent" unicode="&#x17b;" horiz-adv-x="1163" 
d="M92 0v176l729 1041h-698v167h917v-165l-737 -1051h754v-168h-965zM645 1657q0 -63 -26.5 -89t-89.5 -26q-70 0 -92.5 31t-22.5 84q0 59 24.5 87t90.5 28q65 0 90.5 -28t25.5 -87z" />
    <glyph glyph-name="zdotaccent" unicode="&#x17c;" horiz-adv-x="934" 
d="M82 0v131l547 774h-535v144h742v-125l-549 -779h565v-145h-770zM555 1323q0 -63 -26.5 -89t-89.5 -26q-70 0 -92.5 31t-22.5 84q0 59 24.5 87t90.5 28q65 0 90.5 -28t25.5 -87z" />
    <glyph glyph-name="Zcaron" unicode="&#x17d;" horiz-adv-x="1163" 
d="M92 0v176l729 1041h-698v167h917v-165l-737 -1051h754v-168h-965zM651 1542h-211l-227 361h149l185 -238l184 238h150z" />
    <glyph glyph-name="zcaron" unicode="&#x17e;" horiz-adv-x="934" 
d="M82 0v131l547 774h-535v144h742v-125l-549 -779h565v-145h-770zM559 1208h-211l-227 361h149l185 -238l184 238h150z" />
    <glyph glyph-name="longs" unicode="&#x17f;" horiz-adv-x="592" 
d="M676 1333q-29 15 -73 26t-79 11q-87 0 -121 -44.5t-34 -174.5v-1151h-172v905h-134v144h134v102q0 190 71.5 279.5t251.5 89.5q113 0 203 -39z" />
    <glyph glyph-name="florin" unicode="&#x192;" horiz-adv-x="1100" 
d="M1022 1333q-47 17 -84 27t-80 10q-45 0 -66.5 -18t-38.5 -58.5t-32 -109.5l-31 -135h209l-29 -144h-211l-219 -1022q-20 -98 -53.5 -154t-89 -91t-139.5 -35q-119 0 -224 39l35 137q94 -27 162 -27q65 0 95 41t65 199l194 913h-172l31 144h172l33 143q39 174 108.5 251
t204.5 77q68 0 120 -14.5t87 -24.5z" />
    <glyph glyph-name="Ohorn" unicode="&#x1a0;" horiz-adv-x="1487" 
d="M1520 1446v-182q0 -167 -71 -243.5t-212 -76.5h-12q20 -114 20 -252q0 -373 -140.5 -547t-422.5 -174q-286 0 -424.5 177t-138.5 544q0 364 137 542.5t426 178.5q207 0 329 -87t179 -247h37q71 0 102 41t31 144v182h160zM1051 692q0 287 -86.5 422t-282.5 135
t-282.5 -135t-86.5 -422q0 -289 87.5 -423t281.5 -134q193 0 281 133t88 424z" />
    <glyph glyph-name="ohorn" unicode="&#x1a1;" horiz-adv-x="1249" 
d="M1040 522q0 -273 -117.5 -413t-342.5 -140t-344 138.5t-119 414.5q0 281 119.5 419t343.5 138q317 0 417 -274q68 2 96.5 44t28.5 140v141h160v-141q0 -305 -252 -319q10 -87 10 -148zM862 522q0 214 -70.5 311t-211.5 97q-145 0 -215 -97.5t-70 -310.5q0 -205 67.5 -304
t217.5 -99q143 0 212.5 98t69.5 305z" />
    <glyph glyph-name="Uhorn" unicode="&#x1af;" horiz-adv-x="1524" 
d="M1223 1079h41q71 0 102 41t31 144v182h159v-182q0 -170 -71.5 -245t-210.5 -75h-51v-366q0 -227 -51 -358t-160.5 -191t-306.5 -60q-196 0 -309 61t-163.5 193t-50.5 355v806h185v-786q0 -182 33 -280.5t104.5 -141.5t197.5 -43q127 0 199 42.5t104.5 135.5t32.5 283v790
h185v-305z" />
    <glyph glyph-name="uhorn" unicode="&#x1b0;" horiz-adv-x="1286" 
d="M821 0v156q-80 -80 -176 -133.5t-188 -53.5q-105 0 -170.5 39.5t-95 119t-29.5 220.5v701h172v-619q0 -150 15.5 -200t49.5 -72.5t99 -22.5t153 50.5t170 121.5v742h172v-244h33q72 0 102.5 41t30.5 143v141h160v-141q0 -166 -69.5 -242.5t-213.5 -76.5h-43v-670h-172z
" />
    <glyph glyph-name="Acaron" unicode="&#x1cd;" horiz-adv-x="1288" 
d="M51 0l473 1384h240l473 -1384h-195l-120 360h-564l-118 -360h-189zM414 528h450l-225 674zM751 1544h-211l-227 361h149l185 -238l184 238h150z" />
    <glyph glyph-name="acaron" unicode="&#x1ce;" horiz-adv-x="1100" 
d="M766 0v131q-80 -70 -161 -116t-183 -46q-150 0 -231.5 91.5t-81.5 234.5q0 108 42.5 179.5t123 113t233.5 59.5l258 23v51q0 121 -67.5 165t-186.5 44q-106 0 -163.5 -37t-82.5 -80l-141 86q48 87 146.5 133.5t244.5 46.5q226 0 324 -82t98 -284v-713h-172zM766 532
l-168 -16q-171 -15 -241 -66.5t-70 -150.5q0 -94 47 -135t141 -41q39 0 77 14.5t75 36t71.5 49t67.5 53.5v256zM653 1208h-211l-227 361h149l185 -238l184 238h150z" />
    <glyph glyph-name="Icaron" unicode="&#x1cf;" horiz-adv-x="770" 
d="M668 0h-566v160h191v1067h-191v157h566v-157h-191v-1067h191v-160zM491 1544h-211l-227 361h149l185 -238l184 238h150z" />
    <glyph glyph-name="icaron" unicode="&#x1d0;" horiz-adv-x="512" 
d="M170 0v1049h172v-1049h-172zM362 1208h-211l-227 361h149l185 -238l184 238h150z" />
    <glyph glyph-name="Ocaron" unicode="&#x1d1;" horiz-adv-x="1364" 
d="M1245 692q0 -373 -140.5 -547t-422.5 -174q-286 0 -424.5 177t-138.5 544q0 364 137 542.5t426 178.5q285 0 424 -175t139 -546zM1051 692q0 287 -86.5 422t-282.5 135t-282.5 -135t-86.5 -422q0 -289 87.5 -423t281.5 -134q193 0 281 133t88 424zM786 1544h-211
l-227 361h149l185 -238l184 238h150z" />
    <glyph glyph-name="ocaron" unicode="&#x1d2;" horiz-adv-x="1157" 
d="M1040 522q0 -273 -117.5 -413t-342.5 -140t-344 138.5t-119 414.5q0 281 119.5 419t343.5 138q226 0 343 -140.5t117 -416.5zM862 522q0 214 -70.5 311t-211.5 97q-145 0 -215 -97.5t-70 -310.5q0 -205 67.5 -304t217.5 -99q143 0 212.5 98t69.5 305zM682 1208h-211
l-227 361h149l185 -238l184 238h150z" />
    <glyph glyph-name="Ucaron" unicode="&#x1d3;" horiz-adv-x="1405" 
d="M1223 578q0 -227 -51 -358t-160.5 -191t-306.5 -60q-196 0 -309 61t-163.5 193t-50.5 355v806h185v-786q0 -182 33 -280.5t104.5 -141.5t197.5 -43q127 0 199 42.5t104.5 135.5t32.5 283v790h185v-806zM807 1544h-211l-227 361h149l185 -238l184 238h150z" />
    <glyph glyph-name="ucaron" unicode="&#x1d4;" horiz-adv-x="1163" 
d="M821 0v156q-80 -80 -176 -133.5t-188 -53.5q-105 0 -170.5 39.5t-95 119t-29.5 220.5v701h172v-619q0 -150 15.5 -200t49.5 -72.5t99 -22.5t153 50.5t170 121.5v742h172v-1049h-172zM686 1208h-211l-227 361h149l185 -238l184 238h150z" />
    <glyph glyph-name="Udieresismacron" unicode="&#x1d5;" horiz-adv-x="1405" 
d="M1223 578q0 -227 -51 -358t-160.5 -191t-306.5 -60q-196 0 -309 61t-163.5 193t-50.5 355v806h185v-786q0 -182 33 -280.5t104.5 -141.5t197.5 -43q127 0 199 42.5t104.5 135.5t32.5 283v790h185v-806zM1010 1610q0 -60 -24.5 -83.5t-84.5 -23.5q-63 0 -84.5 29t-21.5 78
q0 53 23.5 79.5t82.5 26.5q62 0 85.5 -25.5t23.5 -80.5zM615 1610q0 -60 -24.5 -83.5t-84.5 -23.5q-63 0 -84.5 29t-21.5 78q0 53 23.5 79.5t82.5 26.5q62 0 85.5 -25.5t23.5 -80.5zM396 1794v139h610v-139h-610z" />
    <glyph glyph-name="udieresismacron" unicode="&#x1d6;" horiz-adv-x="1163" 
d="M821 0v156q-80 -80 -176 -133.5t-188 -53.5q-105 0 -170.5 39.5t-95 119t-29.5 220.5v701h172v-619q0 -150 15.5 -200t49.5 -72.5t99 -22.5t153 50.5t170 121.5v742h172v-1049h-172zM889 1274q0 -60 -24.5 -83.5t-84.5 -23.5q-63 0 -84.5 29t-21.5 78q0 53 23.5 79.5
t82.5 26.5q62 0 85.5 -25.5t23.5 -80.5zM494 1274q0 -60 -24.5 -83.5t-84.5 -23.5q-63 0 -84.5 29t-21.5 78q0 53 23.5 79.5t82.5 26.5q62 0 85.5 -25.5t23.5 -80.5zM275 1458v139h610v-139h-610z" />
    <glyph glyph-name="Udieresisacute" unicode="&#x1d7;" horiz-adv-x="1405" 
d="M1223 578q0 -227 -51 -358t-160.5 -191t-306.5 -60q-196 0 -309 61t-163.5 193t-50.5 355v806h185v-786q0 -182 33 -280.5t104.5 -141.5t197.5 -43q127 0 199 42.5t104.5 135.5t32.5 283v790h185v-806zM1008 1610q0 -60 -24.5 -83.5t-84.5 -23.5q-63 0 -84.5 29t-21.5 78
q0 53 23.5 79.5t82.5 26.5q62 0 85.5 -25.5t23.5 -80.5zM613 1610q0 -60 -24.5 -83.5t-84.5 -23.5q-63 0 -84.5 29t-21.5 78q0 53 23.5 79.5t82.5 26.5q62 0 85.5 -25.5t23.5 -80.5zM619 1737l123 311h235l-217 -311h-141z" />
    <glyph glyph-name="udieresisacute" unicode="&#x1d8;" horiz-adv-x="1163" 
d="M821 0v156q-80 -80 -176 -133.5t-188 -53.5q-105 0 -170.5 39.5t-95 119t-29.5 220.5v701h172v-619q0 -150 15.5 -200t49.5 -72.5t99 -22.5t153 50.5t170 121.5v742h172v-1049h-172zM887 1274q0 -60 -24.5 -83.5t-84.5 -23.5q-63 0 -84.5 29t-21.5 78q0 53 23.5 79.5
t82.5 26.5q62 0 85.5 -25.5t23.5 -80.5zM492 1274q0 -60 -24.5 -83.5t-84.5 -23.5q-63 0 -84.5 29t-21.5 78q0 53 23.5 79.5t82.5 26.5q62 0 85.5 -25.5t23.5 -80.5zM498 1401l123 311h235l-217 -311h-141z" />
    <glyph glyph-name="Udieresiscaron" unicode="&#x1d9;" horiz-adv-x="1405" 
d="M1223 578q0 -227 -51 -358t-160.5 -191t-306.5 -60q-196 0 -309 61t-163.5 193t-50.5 355v806h185v-786q0 -182 33 -280.5t104.5 -141.5t197.5 -43q127 0 199 42.5t104.5 135.5t32.5 283v790h185v-806zM1012 1610q0 -60 -24.5 -83.5t-84.5 -23.5q-63 0 -84.5 29t-21.5 78
q0 53 23.5 79.5t82.5 26.5q62 0 85.5 -25.5t23.5 -80.5zM617 1610q0 -60 -24.5 -83.5t-84.5 -23.5q-63 0 -84.5 29t-21.5 78q0 53 23.5 79.5t82.5 26.5q62 0 85.5 -25.5t23.5 -80.5zM518 2048l185 -172l184 172h150l-230 -289h-211l-227 289h149z" />
    <glyph glyph-name="udieresiscaron" unicode="&#x1da;" horiz-adv-x="1163" 
d="M821 0v156q-80 -80 -176 -133.5t-188 -53.5q-105 0 -170.5 39.5t-95 119t-29.5 220.5v701h172v-619q0 -150 15.5 -200t49.5 -72.5t99 -22.5t153 50.5t170 121.5v742h172v-1049h-172zM891 1274q0 -60 -24.5 -83.5t-84.5 -23.5q-63 0 -84.5 29t-21.5 78q0 53 23.5 79.5
t82.5 26.5q62 0 85.5 -25.5t23.5 -80.5zM496 1274q0 -60 -24.5 -83.5t-84.5 -23.5q-63 0 -84.5 29t-21.5 78q0 53 23.5 79.5t82.5 26.5q62 0 85.5 -25.5t23.5 -80.5zM397 1712l185 -172l184 172h150l-230 -289h-211l-227 289h149z" />
    <glyph glyph-name="Udieresisgrave" unicode="&#x1db;" horiz-adv-x="1405" 
d="M1223 578q0 -227 -51 -358t-160.5 -191t-306.5 -60q-196 0 -309 61t-163.5 193t-50.5 355v806h185v-786q0 -182 33 -280.5t104.5 -141.5t197.5 -43q127 0 199 42.5t104.5 135.5t32.5 283v790h185v-806zM1008 1610q0 -60 -24.5 -83.5t-84.5 -23.5q-63 0 -84.5 29t-21.5 78
q0 53 23.5 79.5t82.5 26.5q62 0 85.5 -25.5t23.5 -80.5zM613 1610q0 -60 -24.5 -83.5t-84.5 -23.5q-63 0 -84.5 29t-21.5 78q0 53 23.5 79.5t82.5 26.5q62 0 85.5 -25.5t23.5 -80.5zM643 1737l-217 311h236l123 -311h-142z" />
    <glyph glyph-name="udieresisgrave" unicode="&#x1dc;" horiz-adv-x="1163" 
d="M821 0v156q-80 -80 -176 -133.5t-188 -53.5q-105 0 -170.5 39.5t-95 119t-29.5 220.5v701h172v-619q0 -150 15.5 -200t49.5 -72.5t99 -22.5t153 50.5t170 121.5v742h172v-1049h-172zM887 1274q0 -60 -24.5 -83.5t-84.5 -23.5q-63 0 -84.5 29t-21.5 78q0 53 23.5 79.5
t82.5 26.5q62 0 85.5 -25.5t23.5 -80.5zM492 1274q0 -60 -24.5 -83.5t-84.5 -23.5q-63 0 -84.5 29t-21.5 78q0 53 23.5 79.5t82.5 26.5q62 0 85.5 -25.5t23.5 -80.5zM522 1401l-217 311h236l123 -311h-142z" />
    <glyph glyph-name="Aringacute" unicode="&#x1fa;" horiz-adv-x="1288" 
d="M840 1497q0 -104 -62 -156l459 -1341h-195l-120 360h-564l-118 -360h-189l457 1339q-64 49 -64 158q0 88 47.5 142.5t149.5 54.5q104 0 151.5 -53.5t47.5 -143.5zM414 528h450l-225 674zM739 1497q0 100 -98 100q-96 0 -96 -100t96 -100q98 0 98 100zM700 1749h-141
l125 276h236z" />
    <glyph glyph-name="aringacute" unicode="&#x1fb;" horiz-adv-x="1100" 
d="M766 0v131q-80 -70 -161 -116t-183 -46q-150 0 -231.5 91.5t-81.5 234.5q0 108 42.5 179.5t123 113t233.5 59.5l258 23v51q0 121 -67.5 165t-186.5 44q-106 0 -163.5 -37t-82.5 -80l-141 86q48 87 146.5 133.5t244.5 46.5q226 0 324 -82t98 -284v-713h-172zM766 532
l-168 -16q-171 -15 -241 -66.5t-70 -150.5q0 -94 47 -135t141 -41q39 0 77 14.5t75 36t71.5 49t67.5 53.5v256zM718 1354q0 -90 -48 -143.5t-150 -53.5q-105 0 -151 55.5t-46 141.5q0 88 47 142t150 54q104 0 151 -53t47 -143zM618 1354q0 100 -98 100q-97 0 -97 -100
q0 -101 97 -101q98 0 98 101zM549 1605h-142l178 361h236z" />
    <glyph glyph-name="AEacute" unicode="&#x1fc;" horiz-adv-x="1747" 
d="M834 0v383h-453l-145 -383h-191l533 1384h1044v-167h-604v-408h526v-168h-526v-473h604v-168h-788zM834 1217h-140l-252 -666h392v666zM992 1544h-142l178 361h236z" />
    <glyph glyph-name="aeacute" unicode="&#x1fd;" horiz-adv-x="1724" 
d="M414 -31q-140 0 -222.5 90.5t-82.5 241.5q0 152 95 238.5t304 107.5l258 23v51q0 121 -67.5 165t-186.5 44q-106 0 -163.5 -37t-82.5 -80l-141 86q103 180 401 180q123 0 217.5 -32.5t137.5 -116.5q49 71 126.5 110t200.5 39q208 0 310 -117.5t102 -361.5v-96h-682
q0 -200 68.5 -292.5t218.5 -92.5q84 0 135 29.5t102 95.5l142 -88q-60 -90 -144 -138.5t-225 -48.5q-129 0 -232.5 44t-158.5 139q-95 -81 -213 -132t-217 -51zM463 123q86 0 165 42t163 107q-16 51 -20.5 95.5t-4.5 164.5l-168 -16q-126 -11 -187 -35.5t-92.5 -70
t-31.5 -113.5q0 -92 49 -133t127 -41zM1452 639q-2 141 -58.5 219t-189.5 78q-121 0 -187.5 -70.5t-76.5 -226.5h512zM881 1208h-142l178 361h236z" />
    <glyph glyph-name="Oslashacute" unicode="&#x1fe;" horiz-adv-x="1364" 
d="M727 1544h-142l178 361h236zM68 -115l184 271q-133 170 -133 536q0 364 137 542.5t426 178.5q225 0 360 -110l129 186h150l-195 -283q119 -177 119 -514q0 -373 -140.5 -547t-422.5 -174q-213 0 -340 97l-125 -183h-149zM1051 692q0 211 -47 338l-560 -813
q84 -82 238 -82q193 0 281 133t88 424zM313 692q0 -237 58 -366l565 823q-88 100 -254 100q-196 0 -282.5 -135t-86.5 -422z" />
    <glyph glyph-name="oslashacute" unicode="&#x1ff;" horiz-adv-x="1157" 
d="M596 1208h-142l178 361h236zM102 -76l129 189q-114 137 -114 409q0 281 119.5 419t343.5 138q161 0 268 -71l80 116h141l-137 -198q108 -145 108 -404q0 -273 -117.5 -413t-342.5 -140q-158 0 -261 66l-75 -111h-142zM295 522q0 -164 41 -258l420 608q-68 58 -176 58
q-145 0 -215 -97.5t-70 -310.5zM862 522q0 158 -37 248l-415 -602q63 -49 170 -49q143 0 212.5 98t69.5 305z" />
    <glyph glyph-name="Scommaaccent" unicode="&#x218;" horiz-adv-x="1227" 
d="M1112 379q0 -194 -127.5 -301t-372.5 -107q-187 0 -312 66t-204 205l150 100q117 -207 362 -207q147 0 231.5 61.5t84.5 168.5q0 61 -27 103t-71 70.5t-101 46t-119 33.5q-102 25 -190 51.5t-152.5 68.5t-101.5 107.5t-37 168.5q0 184 118.5 291.5t354.5 107.5
q188 0 300 -69.5t177 -178.5l-147 -104q-54 90 -131.5 139t-198.5 49q-135 0 -210 -59.5t-75 -159.5q0 -53 22.5 -89t64.5 -60.5t104.5 -42t142.5 -37.5q94 -25 179 -52.5t148.5 -72.5t100.5 -116t37 -181zM553 -530q29 38 55.5 79t26.5 82q-59 0 -85.5 26t-26.5 85
q0 55 26.5 85t91.5 30q66 0 95.5 -33t29.5 -98q0 -91 -35.5 -151t-72.5 -105h-105z" />
    <glyph glyph-name="scommaaccent" unicode="&#x219;" horiz-adv-x="991" 
d="M887 283q0 -147 -104 -230.5t-296 -83.5q-131 0 -235 49.5t-152 139.5l138 84q79 -127 254 -127q114 0 170.5 43.5t56.5 117.5q0 44 -20 71.5t-62 48t-172 55.5q-187 43 -263.5 119t-76.5 202q0 139 100 223t277 84q137 0 230 -54t136 -130l-137 -84q-82 123 -233 123
q-86 0 -145.5 -38t-59.5 -118q0 -71 52 -103t163 -59q178 -46 246 -86t100.5 -98.5t32.5 -148.5zM428 -530q29 38 55.5 79t26.5 82q-59 0 -85.5 26t-26.5 85q0 55 26.5 85t91.5 30q66 0 95.5 -33t29.5 -98q0 -91 -35.5 -151t-72.5 -105h-105z" />
    <glyph glyph-name="uni021A" unicode="&#x21a;" horiz-adv-x="1184" 
d="M684 1217v-1217h-184v1217h-459v167h1102v-167h-459zM510 -530q29 38 55.5 79t26.5 82q-59 0 -85.5 26t-26.5 85q0 55 26.5 85t91.5 30q66 0 95.5 -33t29.5 -98q0 -91 -35.5 -151t-72.5 -105h-105z" />
    <glyph glyph-name="uni021B" unicode="&#x21b;" horiz-adv-x="729" 
d="M694 0q-100 -31 -198 -31q-160 0 -229.5 84t-69.5 264v588h-150v144h150v292h172v-292h266v-144h-266v-555q0 -127 25.5 -182t113.5 -55q76 0 141 28zM362 -530q29 38 55.5 79t26.5 82q-59 0 -85.5 26t-26.5 85q0 55 26.5 85t91.5 30q66 0 95.5 -33t29.5 -98
q0 -91 -35.5 -151t-72.5 -105h-105z" />
    <glyph glyph-name="dotlessj" unicode="&#x237;" horiz-adv-x="537" 
d="M358 -45q0 -190 -74 -270t-239 -80q-100 0 -188 30l43 142q73 -29 151 -29q84 0 109.5 58.5t25.5 168.5v1074h172v-1094z" />
    <glyph glyph-name="uni02C0" unicode="&#x2c0;" horiz-adv-x="991" 
d="M299 0v586q175 95 251 155.5t112 125t36 139.5q0 112 -71.5 180.5t-196.5 68.5q-108 0 -170.5 -40.5t-97.5 -100.5l-152 92q51 92 151.5 149.5t266.5 57.5q212 0 333.5 -104.5t121.5 -286.5q0 -103 -39.5 -184.5t-112 -150t-258.5 -177.5v-510h-174z" />
    <glyph glyph-name="circumflex" unicode="&#x2c6;" 
d="M727 1208l-184 238l-185 -238h-149l229 361h211l228 -361h-150z" />
    <glyph glyph-name="caron" unicode="&#x2c7;" 
d="M647 1208h-211l-227 361h149l185 -238l184 238h150z" />
    <glyph glyph-name="uni02C9" unicode="&#x2c9;" 
d="M238 1255v140h610v-140h-610z" />
    <glyph glyph-name="breve" unicode="&#x2d8;" 
d="M870 1489q0 -124 -86 -203.5t-243 -79.5q-152 0 -239 81t-87 202h127q14 -64 66.5 -94.5t130.5 -30.5q102 0 147 30.5t57 94.5h127z" />
    <glyph glyph-name="dotaccent" unicode="&#x2d9;" 
d="M659 1323q0 -63 -26.5 -89t-89.5 -26q-70 0 -92.5 31t-22.5 84q0 59 24.5 87t90.5 28q65 0 90.5 -28t25.5 -87z" />
    <glyph glyph-name="ring" unicode="&#x2da;" 
d="M739 1354q0 -90 -48 -143.5t-150 -53.5q-105 0 -151 55.5t-46 141.5q0 88 47 142t150 54q104 0 151 -53t47 -143zM639 1354q0 100 -98 100q-97 0 -97 -100q0 -101 97 -101q98 0 98 101z" />
    <glyph glyph-name="ogonek" unicode="&#x2db;" horiz-adv-x="930" 
d="M698 -326q-53 -34 -99 -51.5t-99 -17.5q-93 0 -144 47t-51 137q0 92 79 167t245 120l71 -76q-133 -42 -193.5 -84t-60.5 -100q0 -35 19.5 -53.5t54.5 -18.5t63.5 11.5t59.5 27.5z" />
    <glyph glyph-name="tilde" unicode="&#x2dc;" 
d="M166 1221q6 125 67.5 193.5t161.5 68.5q56 0 96.5 -22.5t75.5 -48.5t66 -48.5t67 -22.5q88 0 97 129h121q-19 -262 -232 -262q-65 0 -105 22.5t-71 50.5t-58.5 50.5t-68.5 22.5q-51 0 -71.5 -36t-24.5 -97h-121z" />
    <glyph glyph-name="hungarumlaut" unicode="&#x2dd;" 
d="M715 1208h-142l179 361h235zM367 1208h-142l178 361h236z" />
    <glyph glyph-name="gravecomb" unicode="&#x300;" horiz-adv-x="0" 
d="M-2 1208l-272 361h235l178 -361h-141z" />
    <glyph glyph-name="acutecomb" unicode="&#x301;" horiz-adv-x="0" 
d="M80 1208h-141l178 361h235z" />
    <glyph glyph-name="uni0302" unicode="&#x302;" horiz-adv-x="0" 
d="M184 1208l-184 238l-184 -238h-150l230 361h210l228 -361h-150z" />
    <glyph glyph-name="tildecomb" unicode="&#x303;" horiz-adv-x="0" 
d="M-377 1221q6 125 67.5 193.5t162.5 68.5q55 0 96 -22.5t75.5 -48.5t65.5 -48.5t68 -22.5q87 0 96 129h121q-8 -122 -64.5 -192t-167.5 -70q-65 0 -105 22.5t-70.5 50.5t-58.5 50.5t-69 22.5q-51 0 -71.5 -36t-24.5 -97h-121z" />
    <glyph glyph-name="uni0304" unicode="&#x304;" horiz-adv-x="0" 
d="M-305 1255v140h610v-140h-610z" />
    <glyph glyph-name="uni0306" unicode="&#x306;" horiz-adv-x="0" 
d="M328 1489q0 -125 -87.5 -204t-242.5 -79q-152 0 -239 81t-87 202h127q29 -125 197 -125q102 0 147 30.5t58 94.5h127z" />
    <glyph glyph-name="uni0307" unicode="&#x307;" horiz-adv-x="0" 
d="M117 1323q0 -63 -27 -89t-90 -26q-70 0 -92.5 31t-22.5 84q0 59 24.5 87t90.5 28t91.5 -28t25.5 -87z" />
    <glyph glyph-name="uni0308" unicode="&#x308;" horiz-adv-x="0" 
d="M305 1315q0 -60 -24.5 -83.5t-83.5 -23.5q-64 0 -85.5 29t-21.5 78q0 53 23.5 79.5t83.5 26.5q61 0 84.5 -25.5t23.5 -80.5zM-90 1315q0 -60 -24.5 -83.5t-84.5 -23.5q-63 0 -84.5 29t-21.5 78q0 53 23.5 79.5t82.5 26.5q62 0 85.5 -25.5t23.5 -80.5z" />
    <glyph glyph-name="hookabovecomb" unicode="&#x309;" horiz-adv-x="0" 
d="M-182 1438q22 20 69 36.5t107 16.5q90 0 138 -38t48 -99q0 -137 -147 -156v-37h-99v113h25q74 0 74 55q0 27 -15.5 41t-54.5 14q-20 0 -49 -8t-51 -24z" />
    <glyph glyph-name="uni030A" unicode="&#x30a;" horiz-adv-x="0" 
d="M188 1346q0 -86 -46 -137.5t-144 -51.5q-100 0 -144 53.5t-44 135.5q0 86 45 137t143 51t144 -51t46 -137zM102 1346q0 106 -104 106q-102 0 -102 -106q0 -107 102 -107q104 0 104 107z" />
    <glyph glyph-name="uni030C" unicode="&#x30c;" horiz-adv-x="0" 
d="M104 1208h-210l-228 361h150l184 -238l184 238h150z" />
    <glyph glyph-name="dotbelowcomb" unicode="&#x323;" 
d="M659 -258q0 -64 -26.5 -89.5t-89.5 -25.5q-70 0 -92.5 31t-22.5 84q0 59 24.5 87t90.5 28q65 0 90.5 -28t25.5 -87z" />
    <glyph glyph-name="uni0374" unicode="&#x374;" horiz-adv-x="420" 
d="M203 1128h-121l65 361h215z" />
    <glyph glyph-name="uni0375" unicode="&#x375;" horiz-adv-x="420" 
d="M227 129h121l-65 -360h-215z" />
    <glyph glyph-name="uni037E" unicode="&#x37e;" horiz-adv-x="555" 
d="M399 936q0 -64 -29.5 -88.5t-93.5 -24.5q-71 0 -95.5 30t-24.5 83q0 59 27.5 86t92.5 27q68 0 95.5 -27t27.5 -86zM399 78q0 -123 -36.5 -223.5t-75.5 -147.5h-105q36 46 60 128t24 151q-59 0 -84.5 26.5t-25.5 85.5q0 56 27.5 84.5t92.5 28.5q68 0 95.5 -34t27.5 -99z
" />
    <glyph glyph-name="tonos" unicode="&#x384;" horiz-adv-x="414" 
d="M141 1208h-141l178 361h236z" />
    <glyph glyph-name="dieresistonos" unicode="&#x385;" horiz-adv-x="0" 
d="M1071 1300q0 -57 -24.5 -78.5t-81.5 -21.5q-62 0 -82.5 26.5t-20.5 73.5q0 54 21.5 79.5t81.5 25.5q59 0 82.5 -25.5t23.5 -79.5zM451 1300q0 -57 -25 -78.5t-82 -21.5q-61 0 -81.5 26.5t-20.5 73.5q0 54 21.5 79.5t80.5 25.5t83 -25.5t24 -79.5zM887 1569l-213 -361
h-139l122 361h230z" />
    <glyph glyph-name="Alphatonos" unicode="&#x386;" horiz-adv-x="1288" 
d="M51 0l473 1384h240l473 -1384h-195l-120 360h-564l-118 -360h-189zM414 528h450l-225 674zM401 1384l-213 -360h-147l123 360h237z" />
    <glyph glyph-name="anoteleia" unicode="&#x387;" horiz-adv-x="555" 
d="M399 745q0 -63 -29.5 -87.5t-93.5 -24.5q-71 0 -95.5 29.5t-24.5 82.5q0 60 27.5 86.5t92.5 26.5q68 0 95.5 -26.5t27.5 -86.5z" />
    <glyph glyph-name="Epsilontonos" unicode="&#x388;" horiz-adv-x="1393" 
d="M422 0v1384h846v-167h-661v-404h565v-168h-565v-477h661v-168h-846zM362 1384l-213 -360h-147l123 360h237z" />
    <glyph glyph-name="Etatonos" unicode="&#x389;" horiz-adv-x="1604" 
d="M1237 0v633h-630v-633h-185v1384h185v-583h630v583h185v-1384h-185zM362 1384l-213 -360h-147l123 360h237z" />
    <glyph glyph-name="Iotatonos" unicode="&#x38a;" horiz-adv-x="1059" 
d="M957 0h-566v160h191v1067h-191v157h566v-157h-191v-1067h191v-160zM362 1384l-213 -360h-147l123 360h237z" />
    <glyph glyph-name="Omicrontonos" unicode="&#x38c;" horiz-adv-x="1554" 
d="M1435 692q0 -373 -140.5 -547t-422.5 -174q-286 0 -424.5 177t-138.5 544q0 364 137 542.5t426 178.5q285 0 424 -175t139 -546zM1241 692q0 287 -86.5 422t-282.5 135t-282.5 -135t-86.5 -422q0 -289 87.5 -423t281.5 -134q193 0 281 133t88 424zM362 1384l-213 -360
h-147l123 360h237z" />
    <glyph glyph-name="Upsilontonos" unicode="&#x38e;" horiz-adv-x="1497" 
d="M1016 535v-535h-187v526l-438 858h209l325 -673l332 673h199zM362 1384l-213 -360h-147l123 360h237z" />
    <glyph glyph-name="Omegatonos" unicode="&#x38f;" horiz-adv-x="1657" 
d="M854 1413q295 0 434 -151.5t139 -450.5q0 -266 -80 -408.5t-241 -183.5v-51h290v-168h-454v322q109 12 170 63.5t91 150t30 261.5q0 239 -91.5 345.5t-287.5 106.5q-180 0 -269.5 -110.5t-89.5 -341.5q0 -159 26 -251.5t83.5 -144.5t181.5 -79v-322h-454v168h290v51
q-164 45 -242.5 186.5t-78.5 405.5q0 183 65 319.5t189.5 209.5t298.5 73zM362 1384l-213 -360h-147l123 360h237z" />
    <glyph glyph-name="iotadieresistonos" unicode="&#x390;" horiz-adv-x="614" 
d="M592 -8q-78 -23 -172 -23q-140 0 -196 76.5t-56 255.5v748h174v-744q0 -106 20.5 -151t88.5 -45q53 0 100 18zM674 1300q0 -57 -24.5 -78.5t-81.5 -21.5q-62 0 -82.5 26.5t-20.5 73.5q0 54 21.5 79.5t81.5 25.5q59 0 82.5 -25.5t23.5 -79.5zM54 1300q0 -57 -25 -78.5
t-82 -21.5q-61 0 -81.5 26.5t-20.5 73.5q0 54 21.5 79.5t80.5 25.5t83 -25.5t24 -79.5zM490 1569l-213 -361h-139l122 361h230z" />
    <glyph glyph-name="Alpha" unicode="&#x391;" horiz-adv-x="1288" 
d="M51 0l473 1384h240l473 -1384h-195l-120 360h-564l-118 -360h-189zM414 528h450l-225 674z" />
    <glyph glyph-name="Beta" unicode="&#x392;" horiz-adv-x="1272" 
d="M1157 406q0 -213 -136 -309.5t-388 -96.5h-451v1384h410q254 0 366.5 -72.5t112.5 -242.5q0 -139 -61.5 -212t-153.5 -101q137 -19 219 -101t82 -249zM881 1028q0 106 -66 149.5t-235 43.5h-213v-412h204q166 0 238 53t72 166zM965 414q0 86 -33.5 135.5t-103.5 72.5
t-226 23h-235v-477h188q176 0 255 23.5t117 77t38 145.5z" />
    <glyph glyph-name="Gamma" unicode="&#x393;" horiz-adv-x="1067" 
d="M367 1223v-1223h-185v1384h844v-161h-659z" />
    <glyph glyph-name="uni0394" unicode="&#x394;" horiz-adv-x="1260" 
d="M1208 0h-1157v88q115 313 231.5 648t233.5 648h234q110 -313 227 -648t231 -648v-88zM981 160l-303 887q-16 46 -53 172h-4l-24 -87l-28 -88l-303 -884h715z" />
    <glyph glyph-name="Epsilon" unicode="&#x395;" horiz-adv-x="1153" 
d="M182 0v1384h846v-167h-661v-404h565v-168h-565v-477h661v-168h-846z" />
    <glyph glyph-name="Zeta" unicode="&#x396;" horiz-adv-x="1163" 
d="M92 0v176l729 1041h-698v167h917v-165l-737 -1051h754v-168h-965z" />
    <glyph glyph-name="Eta" unicode="&#x397;" horiz-adv-x="1364" 
d="M997 0v633h-630v-633h-185v1384h185v-583h630v583h185v-1384h-185z" />
    <glyph glyph-name="Theta" unicode="&#x398;" horiz-adv-x="1446" 
d="M1327 692q0 -372 -148 -546.5t-456 -174.5q-305 0 -454.5 175t-149.5 546q0 370 147 545.5t457 175.5q308 0 456 -175.5t148 -545.5zM1133 692q0 292 -98.5 427.5t-311.5 135.5q-214 0 -312 -135.5t-98 -427.5q0 -294 99 -428.5t311 -134.5q211 0 310.5 134.5t99.5 428.5
zM483 618v177h478v-177h-478z" />
    <glyph glyph-name="Iota" unicode="&#x399;" horiz-adv-x="770" 
d="M668 0h-566v160h191v1067h-191v157h566v-157h-191v-1067h191v-160z" />
    <glyph glyph-name="Kappa" unicode="&#x39a;" horiz-adv-x="1264" 
d="M975 0l-477 614l-131 -147v-467h-185v1384h185v-679l585 679h230l-566 -636l594 -748h-235z" />
    <glyph glyph-name="Lambda" unicode="&#x39b;" horiz-adv-x="1229" 
d="M51 0l447 1384h237l443 -1384h-193l-373 1204l-374 -1204h-187z" />
    <glyph glyph-name="Mu" unicode="&#x39c;" horiz-adv-x="1593" 
d="M1235 0v1147l-383 -770h-115l-379 770v-1147h-176v1384h250l367 -753l370 753h242v-1384h-176z" />
    <glyph glyph-name="Nu" unicode="&#x39d;" horiz-adv-x="1386" 
d="M985 0l-625 1188v-1188h-178v1384h271l573 -1087v1087h178v-1384h-219z" />
    <glyph glyph-name="Xi" unicode="&#x39e;" horiz-adv-x="1102" 
d="M125 1217v167h852v-167h-852zM184 645v168h731v-168h-731zM125 0v168h852v-168h-852z" />
    <glyph glyph-name="Omicron" unicode="&#x39f;" horiz-adv-x="1364" 
d="M1245 692q0 -373 -140.5 -547t-422.5 -174q-286 0 -424.5 177t-138.5 544q0 364 137 542.5t426 178.5q285 0 424 -175t139 -546zM1051 692q0 287 -86.5 422t-282.5 135t-282.5 -135t-86.5 -422q0 -289 87.5 -423t281.5 -134q193 0 281 133t88 424z" />
    <glyph glyph-name="Pi" unicode="&#x3a0;" horiz-adv-x="1327" 
d="M182 0v1384h963v-1384h-184v1217h-594v-1217h-185z" />
    <glyph glyph-name="Rho" unicode="&#x3a1;" horiz-adv-x="1182" 
d="M1083 942q0 -250 -117.5 -361.5t-381.5 -111.5h-217v-469h-185v1384h410q259 0 375 -107t116 -335zM889 938q0 145 -72 212t-246 67h-204v-580h178q146 0 213.5 28.5t99 92t31.5 180.5z" />
    <glyph glyph-name="Sigma" unicode="&#x3a3;" horiz-adv-x="1108" 
d="M74 0v170l512 535l-512 518v161h911v-165h-674l482 -494v-39l-500 -520h723v-166h-942z" />
    <glyph glyph-name="Tau" unicode="&#x3a4;" horiz-adv-x="1184" 
d="M684 1217v-1217h-184v1217h-459v167h1102v-167h-459z" />
    <glyph glyph-name="Upsilon" unicode="&#x3a5;" horiz-adv-x="1147" 
d="M666 535v-535h-187v526l-438 858h209l325 -673l332 673h199z" />
    <glyph glyph-name="Phi" unicode="&#x3a6;" horiz-adv-x="1499" 
d="M834 -49h-179v139q-272 21 -404 165t-132 435q0 293 131 437.5t405 164.5v144h179v-142q280 -18 413 -163.5t133 -440.5t-133 -439.5t-413 -160.5v-139zM1188 690q0 203 -80 316.5t-274 132.5v-893q192 18 273 130.5t81 313.5zM313 690q0 -201 77 -311.5t265 -132.5v893
q-188 -23 -265 -135.5t-77 -313.5z" />
    <glyph glyph-name="Chi" unicode="&#x3a7;" horiz-adv-x="1208" 
d="M53 0l449 694l-436 690h217l327 -546l338 546h207l-442 -684l442 -700h-217l-336 557l-342 -557h-207z" />
    <glyph glyph-name="Psi" unicode="&#x3a8;" horiz-adv-x="1493" 
d="M1362 801q0 -260 -128.5 -391.5t-397.5 -149.5v-305h-179v305q-268 18 -397 150t-129 391v583h184v-563q0 -177 87.5 -282.5t254.5 -124.5v970h179v-970q165 18 254.5 124t89.5 279v567h182v-583z" />
    <glyph glyph-name="uni03A9" unicode="&#x3a9;" horiz-adv-x="1364" 
d="M672 1413q295 0 434 -151.5t139 -450.5q0 -266 -80 -408.5t-241 -183.5v-51h290v-168h-454v322q109 12 170 63.5t91 150t30 261.5q0 239 -91.5 345.5t-287.5 106.5q-180 0 -269.5 -110.5t-89.5 -341.5q0 -159 26 -251.5t83.5 -144.5t181.5 -79v-322h-454v168h290v51
q-164 45 -242.5 186.5t-78.5 405.5q0 183 65 319.5t189.5 209.5t298.5 73z" />
    <glyph glyph-name="Iotadieresis" unicode="&#x3aa;" horiz-adv-x="770" 
d="M668 0h-566v160h191v1067h-191v157h566v-157h-191v-1067h191v-160zM700 1651q0 -60 -24.5 -83.5t-84.5 -23.5q-63 0 -84.5 29t-21.5 78q0 53 23.5 79.5t82.5 26.5q62 0 85.5 -25.5t23.5 -80.5zM305 1651q0 -60 -24.5 -83.5t-84.5 -23.5q-63 0 -84.5 29t-21.5 78
q0 53 23.5 79.5t82.5 26.5q62 0 85.5 -25.5t23.5 -80.5z" />
    <glyph glyph-name="Upsilondieresis" unicode="&#x3ab;" horiz-adv-x="1147" 
d="M666 535v-535h-187v526l-438 858h209l325 -673l332 673h199zM885 1651q0 -60 -24.5 -83.5t-84.5 -23.5q-63 0 -84.5 29t-21.5 78q0 53 23.5 79.5t82.5 26.5q62 0 85.5 -25.5t23.5 -80.5zM490 1651q0 -60 -24.5 -83.5t-84.5 -23.5q-63 0 -84.5 29t-21.5 78q0 53 23.5 79.5
t82.5 26.5q62 0 85.5 -25.5t23.5 -80.5z" />
    <glyph glyph-name="alphatonos" unicode="&#x3ac;" horiz-adv-x="1219" 
d="M1208 -8q-60 -23 -159 -23q-121 0 -168 65.5t-54 207.5q-41 -142 -127 -207.5t-194 -65.5q-189 0 -289 143.5t-100 409.5q0 172 52 297.5t147.5 192.5t220.5 67q84 0 161.5 -28.5t143.5 -108.5q6 82 10 107h174q-32 -224 -39.5 -312t-7.5 -162v-270q0 -116 20 -156
t80 -40q43 0 88 18zM524 131q280 0 307 639q-53 74 -119.5 117t-138.5 43q-276 0 -276 -414q0 -385 227 -385zM624 1208h-141l178 361h236z" />
    <glyph glyph-name="epsilontonos" unicode="&#x3ad;" horiz-adv-x="1044" 
d="M587 1208h-141l178 361h236zM946 162q-49 -84 -138 -138.5t-243 -54.5q-214 0 -325 83t-111 235q0 88 47 147.5t115 87.5q-68 29 -115 89.5t-47 140.5q0 102 52 175.5t149.5 112.5t218.5 39q141 0 234.5 -47t148.5 -145l-141 -86q-39 61 -94.5 98t-147.5 37
q-109 0 -175.5 -47t-66.5 -139q0 -52 26 -82t77 -44t161 -14h222v-143h-232q-131 0 -192.5 -40t-61.5 -130q0 -88 71.5 -136t186.5 -48q86 0 141.5 34.5t98.5 100.5z" />
    <glyph glyph-name="etatonos" unicode="&#x3ae;" horiz-adv-x="1169" 
d="M1008 -395h-174v1013q0 116 -16.5 180.5t-52.5 92t-110 27.5q-59 0 -141 -47.5t-170 -127.5v-743h-174v1049h174v-158q188 188 350 188q164 0 239 -99t75 -300v-1075zM624 1208h-141l178 361h236z" />
    <glyph glyph-name="iotatonos" unicode="&#x3af;" horiz-adv-x="614" 
d="M592 -8q-78 -23 -172 -23q-140 0 -196 76.5t-56 255.5v748h174v-744q0 -106 20.5 -151t88.5 -45q53 0 100 18zM274 1208h-141l178 361h236z" />
    <glyph glyph-name="upsilondieresistonos" unicode="&#x3b0;" horiz-adv-x="1143" 
d="M162 1049h176v-689q0 -110 65.5 -177.5t171.5 -67.5q121 0 196 99t75 325q0 174 -27.5 303t-52.5 207h184q24 -56 50 -207.5t26 -282.5q0 -298 -109 -444t-348 -146q-207 0 -307 99t-100 286v695zM985 1300q0 -57 -24.5 -78.5t-81.5 -21.5q-62 0 -82.5 26.5t-20.5 73.5
q0 54 21.5 79.5t81.5 25.5q59 0 82.5 -25.5t23.5 -79.5zM365 1300q0 -57 -25 -78.5t-82 -21.5q-61 0 -81.5 26.5t-20.5 73.5q0 54 21.5 79.5t80.5 25.5t83 -25.5t24 -79.5zM801 1569l-213 -361h-139l122 361h230z" />
    <glyph glyph-name="alpha" unicode="&#x3b1;" horiz-adv-x="1219" 
d="M1208 -8q-60 -23 -159 -23q-121 0 -168 65.5t-54 207.5q-41 -142 -127 -207.5t-194 -65.5q-189 0 -289 143.5t-100 409.5q0 172 52 297.5t147.5 192.5t220.5 67q84 0 161.5 -28.5t143.5 -108.5q6 82 10 107h174q-32 -224 -39.5 -312t-7.5 -162v-270q0 -116 20 -156
t80 -40q43 0 88 18zM524 131q280 0 307 639q-53 74 -119.5 117t-138.5 43q-276 0 -276 -414q0 -385 227 -385z" />
    <glyph glyph-name="beta" unicode="&#x3b2;" horiz-adv-x="1176" 
d="M1063 434q0 -133 -52 -239t-149 -166t-221 -60q-113 0 -190.5 38t-114.5 69v-473h-174v1431q0 243 105 364.5t306 121.5q175 0 279 -91.5t104 -250.5q0 -140 -73.5 -226t-182.5 -108q166 -17 264.5 -127.5t98.5 -282.5zM336 213q39 -29 117.5 -62.5t183.5 -33.5
q113 0 180.5 90t67.5 235q0 314 -418 314v145q313 0 313 258q0 113 -53 164t-158 51q-120 0 -176.5 -77.5t-56.5 -254.5v-829z" />
    <glyph glyph-name="gamma" unicode="&#x3b3;" horiz-adv-x="1065" 
d="M238 1049l280 -848q80 112 145.5 252.5t105.5 286.5t40 274v35h182v-43q0 -152 -59 -332t-153.5 -349.5t-196.5 -285.5v-434h-174v434l-357 1010h187z" />
    <glyph glyph-name="delta" unicode="&#x3b4;" horiz-adv-x="1200" 
d="M895 1309q-61 28 -142 54t-186 26q-71 0 -100 -27t-29 -59q0 -49 20.5 -83.5t68.5 -72.5t132 -86q160 -94 244 -176.5t132 -181.5t48 -220q0 -159 -59 -275t-170.5 -177.5t-255.5 -61.5q-226 0 -353.5 131t-127.5 355q0 130 53 239.5t140.5 180.5t193.5 96
q-111 74 -154.5 117.5t-66.5 89.5t-23 106q0 105 74 170.5t237 65.5q146 0 245 -28t140 -50zM903 477q0 126 -61.5 225t-210.5 193q-31 -6 -86.5 -29.5t-110.5 -73t-96 -132t-41 -207.5q0 -156 84 -247t231 -91q127 0 209 96t82 266z" />
    <glyph glyph-name="epsilon" unicode="&#x3b5;" horiz-adv-x="1044" 
d="M946 162q-49 -84 -138 -138.5t-243 -54.5q-214 0 -325 83t-111 235q0 88 47 147.5t115 87.5q-68 29 -115 89.5t-47 140.5q0 102 52 175.5t149.5 112.5t218.5 39q141 0 234.5 -47t148.5 -145l-141 -86q-39 61 -94.5 98t-147.5 37q-109 0 -175.5 -47t-66.5 -139
q0 -52 26 -82t77 -44t161 -14h222v-143h-232q-131 0 -192.5 -40t-61.5 -130q0 -88 71.5 -136t186.5 -48q86 0 141.5 34.5t98.5 100.5z" />
    <glyph glyph-name="zeta" unicode="&#x3b6;" horiz-adv-x="909" 
d="M168 1489h657v-125q-139 -92 -256.5 -241t-187.5 -325t-70 -335q0 -100 27 -164.5t77.5 -104t145.5 -63.5l109 -26q100 -24 146 -82.5t46 -161.5q0 -48 -20.5 -120t-46.5 -136h-179q32 63 54 125.5t22 103.5q0 100 -125 127l-78 19q-146 30 -214 82t-107 145t-39 242
q0 75 21.5 184.5t76 232.5t143.5 248t224 227h-426v148z" />
    <glyph glyph-name="eta" unicode="&#x3b7;" horiz-adv-x="1169" 
d="M1008 -395h-174v1013q0 116 -16.5 180.5t-52.5 92t-110 27.5q-59 0 -141 -47.5t-170 -127.5v-743h-174v1049h174v-158q188 188 350 188q164 0 239 -99t75 -300v-1075z" />
    <glyph glyph-name="theta" unicode="&#x3b8;" horiz-adv-x="1169" 
d="M858 838q-4 229 -31.5 331.5t-84.5 154.5t-156 52q-147 0 -211 -117t-64 -421h547zM586 1522q166 0 264 -79t143 -231.5t45 -463.5q0 -333 -44 -479.5t-141 -223t-267 -76.5q-172 0 -269.5 77t-141.5 224.5t-44 477.5q0 308 45 461.5t143 233t267 79.5zM311 698
q0 -247 26 -358t84 -168t161 -57q104 0 163 58.5t86 170t27 354.5h-547z" />
    <glyph glyph-name="iota" unicode="&#x3b9;" horiz-adv-x="614" 
d="M592 -8q-78 -23 -172 -23q-140 0 -196 76.5t-56 255.5v748h174v-744q0 -106 20.5 -151t88.5 -45q53 0 100 18z" />
    <glyph glyph-name="kappa" unicode="&#x3ba;" horiz-adv-x="1057" 
d="M1010 0h-209l-342 487l-115 -131v-356h-174v1049h174v-504l436 504h207l-412 -461z" />
    <glyph glyph-name="lambda" unicode="&#x3bb;" horiz-adv-x="1092" 
d="M975 133q27 0 47 8l47 -141q-69 -16 -145 -16q-71 0 -113 31.5t-76.5 104.5t-60.5 187l-131 545l-299 -852h-193l422 1055q-45 159 -80 239t-96 80q-41 0 -78 -12t-59 -29l-41 142q33 16 87 31.5t101 15.5q85 0 135 -27.5t86 -93.5t72 -199l256 -915q25 -88 54.5 -121
t64.5 -33z" />
    <glyph glyph-name="uni03BC" unicode="&#x3bc;" horiz-adv-x="1169" 
d="M1018 0h-166l-10 119q-60 -76 -123.5 -113t-147.5 -37q-75 0 -132.5 15.5t-125.5 66.5v-446h-174v1444h174v-793q43 -53 113 -85t143 -32q153 0 273 144v766h176v-1049z" />
    <glyph glyph-name="nu" unicode="&#x3bd;" horiz-adv-x="1024" 
d="M240 1049l268 -865q119 190 201 422t82 402v41h182v-35q0 -148 -55.5 -326.5t-156.5 -368.5t-206 -319h-160l-344 1049h189z" />
    <glyph glyph-name="xi" unicode="&#x3be;" horiz-adv-x="911" 
d="M143 1354v135h654v-141h-49q-149 0 -224 -25.5t-111 -84.5t-36 -159q0 -97 58 -155t159 -58h176v-145h-197q-100 0 -182 -86.5t-82 -204.5q0 -86 25.5 -137t66.5 -83t93.5 -48.5t105.5 -30.5q153 -37 208.5 -100t55.5 -170q0 -50 -18.5 -120t-46.5 -136h-168
q44 100 57.5 146.5t13.5 82.5q0 58 -41.5 93.5t-152.5 64.5q-62 16 -129.5 38.5t-122.5 66.5t-91 120t-36 199q0 135 67.5 227t176.5 133q-72 41 -123 117t-51 184q0 90 40 165t138 112h-234z" />
    <glyph glyph-name="omicron" unicode="&#x3bf;" horiz-adv-x="1157" 
d="M1040 522q0 -273 -117.5 -413t-342.5 -140t-344 138.5t-119 414.5q0 281 119.5 419t343.5 138q226 0 343 -140.5t117 -416.5zM862 522q0 214 -70.5 311t-211.5 97q-145 0 -215 -97.5t-70 -310.5q0 -205 67.5 -304t217.5 -99q143 0 212.5 98t69.5 305z" />
    <glyph glyph-name="pi" unicode="&#x3c0;" horiz-adv-x="1331" 
d="M1274 6q-80 -22 -174 -22q-102 0 -155.5 29t-79 96t-25.5 192v608h-357v-622q0 -97 -4 -166.5t-20 -120.5h-201q49 142 49 299v610q-41 0 -117 -12.5t-127 -36.5l-53 125q45 23 127 43.5t189 20.5h946v-140h-258v-604q0 -106 20.5 -144t89.5 -38q60 0 107 18z" />
    <glyph glyph-name="rho" unicode="&#x3c1;" horiz-adv-x="1178" 
d="M139 -395v930q0 544 463 544q227 0 343 -144t116 -390q0 -182 -52 -312.5t-147.5 -197t-224.5 -66.5q-113 0 -195 45t-129 111v-520h-174zM313 301q52 -78 128.5 -128t162.5 -50q126 0 201.5 104t75.5 299q0 205 -72.5 306.5t-204.5 101.5q-105 0 -165.5 -45.5t-93 -143
t-32.5 -256.5v-188z" />
    <glyph glyph-name="sigma1" unicode="&#x3c2;" horiz-adv-x="981" 
d="M813 801q-39 63 -92 98t-139 35q-152 0 -218.5 -109.5t-66.5 -302.5q0 -106 27.5 -172.5t71.5 -107.5t99.5 -64.5t110.5 -42.5q117 -38 160.5 -70t68.5 -81t25 -123q0 -50 -18.5 -120t-46.5 -136h-177q38 83 55 135.5t17 93.5q0 64 -41 94.5t-104 53.5
q-66 22 -140.5 47.5t-138 80t-106.5 151.5t-43 261q0 557 469 557q258 0 368 -192z" />
    <glyph glyph-name="sigma" unicode="&#x3c3;" horiz-adv-x="1245" 
d="M1171 1049v-146h-264q82 -74 120 -179.5t38 -223.5q0 -258 -125 -394.5t-356 -136.5q-226 0 -346.5 136.5t-120.5 386.5q0 286 118.5 421.5t385.5 135.5h550zM588 903q-106 0 -169 -43t-92.5 -125.5t-29.5 -249.5q0 -175 74 -272.5t209 -97.5q151 0 229 97t78 277
q0 279 -139 414h-160z" />
    <glyph glyph-name="tau" unicode="&#x3c4;" horiz-adv-x="997" 
d="M944 905h-362v-600q0 -106 20.5 -144t85.5 -38q55 0 96 18l41 -135q-71 -22 -168 -22q-140 0 -194.5 69.5t-54.5 247.5v604h-97q-141 0 -239 -49l-54 127q123 66 304 66h622v-144z" />
    <glyph glyph-name="upsilon" unicode="&#x3c5;" horiz-adv-x="1143" 
d="M162 1049h176v-689q0 -110 65.5 -177.5t171.5 -67.5q121 0 196 99t75 325q0 174 -27.5 303t-52.5 207h184q24 -56 50 -207.5t26 -282.5q0 -298 -109 -444t-348 -146q-207 0 -307 99t-100 286v695z" />
    <glyph glyph-name="phi" unicode="&#x3c6;" horiz-adv-x="1366" 
d="M602 -395v368q-260 19 -372.5 152t-112.5 397q0 274 115 405.5t370 147.5v414h168v-414q246 -17 362.5 -148t116.5 -405q0 -271 -115.5 -400.5t-363.5 -148.5v-368h-168zM297 522q0 -201 70.5 -296.5t234.5 -114.5v825q-158 -18 -231.5 -111t-73.5 -303zM1071 522
q0 189 -66.5 291t-234.5 123v-823q168 20 234.5 120.5t66.5 288.5z" />
    <glyph glyph-name="chi" unicode="&#x3c7;" horiz-adv-x="1069" 
d="M449 346l-196 484q-20 52 -41.5 75t-53.5 23q-26 0 -60 -13l-43 134q87 30 135 30q76 0 128.5 -41t93.5 -149l143 -400l238 560h188l-350 -697l168 -401q39 -101 71.5 -148t79.5 -47q18 0 49 13l48 -138q-70 -26 -146 -26q-72 0 -119 40t-94.5 138t-159.5 424l-268 -592
h-188z" />
    <glyph glyph-name="psi" unicode="&#x3c8;" horiz-adv-x="1378" 
d="M786 1491v-1374q136 22 212.5 131.5t76.5 290.5q0 174 -24.5 302t-46.5 208h184q30 -95 52 -239t22 -251q0 -266 -119 -414t-357 -170v-370h-170v366q-233 13 -343.5 123.5t-110.5 321.5v633h174v-629q0 -127 69.5 -209t210.5 -98v1378h170z" />
    <glyph glyph-name="omega" unicode="&#x3c9;" horiz-adv-x="1636" 
d="M1327 1047q82 -114 137.5 -298.5t55.5 -347.5q0 -221 -103.5 -326.5t-273.5 -105.5q-123 0 -207 68.5t-119 189.5q-33 -121 -117 -189.5t-206 -68.5q-170 0 -273.5 103.5t-103.5 322.5q0 149 57 345.5t137 306.5l187 -35q-86 -120 -139.5 -287t-53.5 -303
q0 -305 199 -305q92 0 158.5 100t66.5 318v274h180v-274q0 -201 61 -309.5t163 -108.5q198 0 198 305q0 141 -53.5 304.5t-136.5 285.5z" />
    <glyph glyph-name="iotadieresis" unicode="&#x3ca;" horiz-adv-x="614" 
d="M592 -8q-78 -23 -172 -23q-140 0 -196 76.5t-56 255.5v748h174v-744q0 -106 20.5 -151t88.5 -45q53 0 100 18zM541 1315q0 -60 -24.5 -83.5t-84.5 -23.5q-63 0 -84.5 29t-21.5 78q0 53 23.5 79.5t82.5 26.5q62 0 85.5 -25.5t23.5 -80.5zM146 1315q0 -60 -24.5 -83.5
t-84.5 -23.5q-63 0 -84.5 29t-21.5 78q0 53 23.5 79.5t82.5 26.5q62 0 85.5 -25.5t23.5 -80.5z" />
    <glyph glyph-name="upsilondieresis" unicode="&#x3cb;" horiz-adv-x="1143" 
d="M162 1049h176v-689q0 -110 65.5 -177.5t171.5 -67.5q121 0 196 99t75 325q0 174 -27.5 303t-52.5 207h184q24 -56 50 -207.5t26 -282.5q0 -298 -109 -444t-348 -146q-207 0 -307 99t-100 286v695zM852 1315q0 -60 -24.5 -83.5t-84.5 -23.5q-63 0 -84.5 29t-21.5 78
q0 53 23.5 79.5t82.5 26.5q62 0 85.5 -25.5t23.5 -80.5zM457 1315q0 -60 -24.5 -83.5t-84.5 -23.5q-63 0 -84.5 29t-21.5 78q0 53 23.5 79.5t82.5 26.5q62 0 85.5 -25.5t23.5 -80.5z" />
    <glyph glyph-name="omicrontonos" unicode="&#x3cc;" horiz-adv-x="1157" 
d="M1040 522q0 -273 -117.5 -413t-342.5 -140t-344 138.5t-119 414.5q0 281 119.5 419t343.5 138q226 0 343 -140.5t117 -416.5zM862 522q0 214 -70.5 311t-211.5 97q-145 0 -215 -97.5t-70 -310.5q0 -205 67.5 -304t217.5 -99q143 0 212.5 98t69.5 305zM624 1208h-141
l178 361h236z" />
    <glyph glyph-name="upsilontonos" unicode="&#x3cd;" horiz-adv-x="1143" 
d="M585 1208h-141l178 361h236zM162 1049h176v-689q0 -110 65.5 -177.5t171.5 -67.5q121 0 196 99t75 325q0 174 -27.5 303t-52.5 207h184q24 -56 50 -207.5t26 -282.5q0 -298 -109 -444t-348 -146q-207 0 -307 99t-100 286v695z" />
    <glyph glyph-name="omegatonos" unicode="&#x3ce;" horiz-adv-x="1636" 
d="M1327 1047q82 -114 137.5 -298.5t55.5 -347.5q0 -221 -103.5 -326.5t-273.5 -105.5q-123 0 -207 68.5t-119 189.5q-33 -121 -117 -189.5t-206 -68.5q-170 0 -273.5 103.5t-103.5 322.5q0 149 57 345.5t137 306.5l187 -35q-86 -120 -139.5 -287t-53.5 -303
q0 -305 199 -305q92 0 158.5 100t66.5 318v274h180v-274q0 -201 61 -309.5t163 -108.5q198 0 198 305q0 141 -53.5 304.5t-136.5 285.5zM870 1208h-141l178 361h236z" />
    <glyph glyph-name="uni0400" unicode="&#x400;" horiz-adv-x="1153" 
d="M182 0v1384h846v-167h-661v-404h565v-168h-565v-477h661v-168h-846zM613 1544l-273 361h236l178 -361h-141z" />
    <glyph glyph-name="uni0401" unicode="&#x401;" horiz-adv-x="1153" 
d="M182 0v1384h846v-167h-661v-404h565v-168h-565v-477h661v-168h-846zM897 1651q0 -60 -24.5 -83.5t-84.5 -23.5q-63 0 -84.5 29t-21.5 78q0 53 23.5 79.5t82.5 26.5q62 0 85.5 -25.5t23.5 -80.5zM502 1651q0 -60 -24.5 -83.5t-84.5 -23.5q-63 0 -84.5 29t-21.5 78
q0 53 23.5 79.5t82.5 26.5q62 0 85.5 -25.5t23.5 -80.5z" />
    <glyph glyph-name="uni0402" unicode="&#x402;" horiz-adv-x="1360" 
d="M831 1229h-313v-422h211q295 0 424 -96.5t129 -313.5q0 -202 -138.5 -299.5t-438.5 -97.5v154q145 0 226 23.5t118.5 75.5t37.5 148q0 123 -75.5 185.5t-257.5 62.5h-236v-649h-184v1229h-318v155h815v-155z" />
    <glyph glyph-name="uni0403" unicode="&#x403;" horiz-adv-x="1067" 
d="M367 1223v-1223h-185v1384h844v-161h-659zM578 1544h-142l178 361h236z" />
    <glyph glyph-name="uni0404" unicode="&#x404;" horiz-adv-x="1321" 
d="M1243 242q-66 -106 -134.5 -160.5t-159.5 -82.5t-214 -28q-311 0 -458.5 179.5t-147.5 541.5q0 361 146.5 541t451.5 180q121 0 216 -30t160.5 -82.5t119.5 -147.5l-152 -100q-44 74 -89 112.5t-108 61t-147 22.5q-201 0 -294 -125t-107 -344h673v-168h-673
q12 -235 108 -356t295 -121q118 0 205 46.5t156 160.5z" />
    <glyph glyph-name="uni0405" unicode="&#x405;" horiz-adv-x="1227" 
d="M1112 379q0 -194 -127.5 -301t-372.5 -107q-187 0 -312 66t-204 205l150 100q117 -207 362 -207q147 0 231.5 61.5t84.5 168.5q0 61 -27 103t-71 70.5t-101 46t-119 33.5q-102 25 -190 51.5t-152.5 68.5t-101.5 107.5t-37 168.5q0 184 118.5 291.5t354.5 107.5
q188 0 300 -69.5t177 -178.5l-147 -104q-54 90 -131.5 139t-198.5 49q-135 0 -210 -59.5t-75 -159.5q0 -53 22.5 -89t64.5 -60.5t104.5 -42t142.5 -37.5q94 -25 179 -52.5t148.5 -72.5t100.5 -116t37 -181z" />
    <glyph glyph-name="uni0406" unicode="&#x406;" horiz-adv-x="770" 
d="M668 0h-566v160h191v1067h-191v157h566v-157h-191v-1067h191v-160z" />
    <glyph glyph-name="uni0407" unicode="&#x407;" horiz-adv-x="770" 
d="M668 0h-566v160h191v1067h-191v157h566v-157h-191v-1067h191v-160zM700 1651q0 -60 -24.5 -83.5t-84.5 -23.5q-63 0 -84.5 29t-21.5 78q0 53 23.5 79.5t82.5 26.5q62 0 85.5 -25.5t23.5 -80.5zM305 1651q0 -60 -24.5 -83.5t-84.5 -23.5q-63 0 -84.5 29t-21.5 78
q0 53 23.5 79.5t82.5 26.5q62 0 85.5 -25.5t23.5 -80.5z" />
    <glyph glyph-name="uni0408" unicode="&#x408;" horiz-adv-x="885" 
d="M700 377q0 -203 -89 -305.5t-300 -102.5q-59 0 -133 14.5t-127 36.5l68 158q32 -16 92 -30.5t98 -14.5q81 0 125 28t63 92.5t19 199.5v931h184v-1007z" />
    <glyph glyph-name="uni0409" unicode="&#x409;" horiz-adv-x="1944" 
d="M580 1223v-84q0 -528 -116 -841.5t-325 -313.5q-65 0 -123 20l33 148q22 -9 45 -9q152 0 226.5 277.5t74.5 789.5v174h735v-530h218q276 0 400 -105.5t124 -334.5q0 -217 -132 -315.5t-386 -98.5h-410v1223h-364zM1130 692v-530h213q158 0 247 58.5t89 197.5
q0 104 -34.5 163t-107 85t-218.5 26h-189z" />
    <glyph glyph-name="uni040A" unicode="&#x40a;" horiz-adv-x="1978" 
d="M979 0v672h-612v-672h-185v1384h185v-550h612v550h186v-550h215q277 0 402 -96.5t125 -323.5q0 -217 -133.5 -315.5t-387.5 -98.5h-407zM1165 672v-510h213q158 0 247 58.5t89 197.5t-76 196.5t-284 57.5h-189z" />
    <glyph glyph-name="uni040B" unicode="&#x40b;" horiz-adv-x="1380" 
d="M827 1229h-321v-412q184 62 354 62q215 0 307.5 -108t92.5 -339v-432h-185v348q0 166 -21 239.5t-73 103.5t-176 30q-47 0 -128 -12.5t-171 -38.5v-670h-184v1229h-306v155h811v-155z" />
    <glyph glyph-name="uni040C" unicode="&#x40c;" horiz-adv-x="1247" 
d="M668 1544h-142l178 361h236zM367 1384v-600h223q77 0 132.5 61.5t106 192.5t101.5 346h192q-70 -313 -154.5 -473.5t-211.5 -201.5q92 -33 152.5 -88.5t104.5 -139.5t77.5 -202.5t74.5 -278.5h-194q-83 314 -131 420t-110.5 153.5t-158.5 47.5h-204v-621h-185v1384h185z
" />
    <glyph glyph-name="uni040D" unicode="&#x40d;" horiz-adv-x="1391" 
d="M693 1544l-273 361h236l178 -361h-141zM182 0v1384h176v-1142l584 1142h266v-1384h-176v1194l-618 -1194h-232z" />
    <glyph glyph-name="uni040E" unicode="&#x40e;" horiz-adv-x="1196" 
d="M614 557l361 827h190l-518 -1167q-55 -127 -142.5 -186.5t-232.5 -59.5q-97 0 -202 35l57 154q31 -15 76 -23t80 -8q145 0 202 143l27 66l-461 1046h199zM946 1776q0 -71 -39.5 -130.5t-113.5 -91.5t-176 -32q-98 0 -172 33t-114 93t-40 128h158q12 -74 56 -111t110 -37
q88 0 125.5 37t48.5 111h157z" />
    <glyph glyph-name="uni040F" unicode="&#x40f;" horiz-adv-x="1399" 
d="M1217 0h-424v-262h-187v262h-424v1384h191v-1216h653v1216h191v-1384z" />
    <glyph glyph-name="uni0410" unicode="&#x410;" horiz-adv-x="1288" 
d="M51 0l473 1384h240l473 -1384h-195l-120 360h-564l-118 -360h-189zM414 528h450l-225 674z" />
    <glyph glyph-name="uni0411" unicode="&#x411;" horiz-adv-x="1239" 
d="M367 807h254q278 0 401 -92t123 -301q0 -219 -137.5 -316.5t-376.5 -97.5h-449v1384h879v-157h-694v-420zM952 410q0 86 -35.5 139t-103.5 76.5t-213 23.5h-233v-487h194q160 0 236.5 25t115.5 78.5t39 144.5z" />
    <glyph glyph-name="uni0412" unicode="&#x412;" horiz-adv-x="1272" 
d="M1157 406q0 -213 -136 -309.5t-388 -96.5h-451v1384h410q254 0 366.5 -72.5t112.5 -242.5q0 -139 -61.5 -212t-153.5 -101q137 -19 219 -101t82 -249zM881 1028q0 106 -66 149.5t-235 43.5h-213v-412h204q166 0 238 53t72 166zM965 414q0 86 -33.5 135.5t-103.5 72.5
t-226 23h-235v-477h188q176 0 255 23.5t117 77t38 145.5z" />
    <glyph glyph-name="uni0413" unicode="&#x413;" horiz-adv-x="1067" 
d="M367 1223v-1223h-185v1384h844v-161h-659z" />
    <glyph glyph-name="uni0414" unicode="&#x414;" horiz-adv-x="1313" 
d="M27 -262v424h116q69 132 127.5 333t90.5 423t34 466h723v-1222h168v-424h-180v262h-899v-262h-180zM934 1223h-359q-15 -293 -82.5 -581t-168.5 -480h610v1061z" />
    <glyph glyph-name="uni0415" unicode="&#x415;" horiz-adv-x="1153" 
d="M182 0v1384h846v-167h-661v-404h565v-168h-565v-477h661v-168h-846z" />
    <glyph glyph-name="uni0416" unicode="&#x416;" horiz-adv-x="1817" 
d="M1001 784h160q76 0 130 59.5t104 189t102 351.5h195q-71 -316 -156 -475t-211 -200q92 -33 153.5 -88.5t104.5 -139.5t77 -202.5t75 -278.5h-195q-83 313 -131.5 419.5t-109.5 154t-156 47.5h-142v-621h-184v621h-141q-103 0 -167.5 -55t-117 -180.5t-115.5 -385.5h-194
q74 304 123 420t115.5 183.5t171.5 105.5q-129 43 -213 201.5t-154 473.5h194q76 -323 155 -461.5t183 -138.5h160v600h184v-600z" />
    <glyph glyph-name="uni0417" unicode="&#x417;" horiz-adv-x="1169" 
d="M190 305q54 -80 144.5 -128t191.5 -48q336 0 336 270q0 113 -67.5 177.5t-210.5 64.5h-260v160h247q129 0 200 52t71 177q0 111 -72 169t-201 58q-104 0 -193 -28.5t-175 -106.5l-111 142q80 67 191.5 108t293.5 41q219 0 341 -98t122 -285q0 -231 -215 -311
q119 -39 175.5 -133t56.5 -203q0 -116 -63.5 -210.5t-182.5 -148t-285 -53.5q-155 0 -279 55.5t-200 172.5z" />
    <glyph glyph-name="uni0418" unicode="&#x418;" horiz-adv-x="1391" 
d="M182 0v1384h176v-1142l584 1142h266v-1384h-176v1194l-618 -1194h-232z" />
    <glyph glyph-name="uni0419" unicode="&#x419;" horiz-adv-x="1391" 
d="M182 0v1384h176v-1142l584 1142h266v-1384h-176v1194l-618 -1194h-232zM1032 1776q0 -71 -39.5 -130.5t-113.5 -91.5t-176 -32q-98 0 -172 33t-114 93t-40 128h158q12 -74 56 -111t110 -37q88 0 125.5 37t48.5 111h157z" />
    <glyph glyph-name="uni041A" unicode="&#x41a;" horiz-adv-x="1247" 
d="M367 1384v-600h223q77 0 132.5 61.5t106 192.5t101.5 346h192q-70 -313 -154.5 -473.5t-211.5 -201.5q92 -33 152.5 -88.5t104.5 -139.5t77.5 -202.5t74.5 -278.5h-194q-83 314 -131 420t-110.5 153.5t-158.5 47.5h-204v-621h-185v1384h185z" />
    <glyph glyph-name="uni041B" unicode="&#x41b;" horiz-adv-x="1337" 
d="M580 1223v-84q0 -528 -116 -841.5t-325 -313.5q-65 0 -123 20l33 148q22 -9 45 -9q152 0 226.5 277.5t74.5 789.5v174h760v-1384h-184v1223h-391z" />
    <glyph glyph-name="uni041C" unicode="&#x41c;" horiz-adv-x="1593" 
d="M1235 0v1147l-383 -770h-115l-379 770v-1147h-176v1384h250l367 -753l370 753h242v-1384h-176z" />
    <glyph glyph-name="uni041D" unicode="&#x41d;" horiz-adv-x="1364" 
d="M997 0v633h-630v-633h-185v1384h185v-583h630v583h185v-1384h-185z" />
    <glyph glyph-name="uni041E" unicode="&#x41e;" horiz-adv-x="1364" 
d="M1245 692q0 -373 -140.5 -547t-422.5 -174q-286 0 -424.5 177t-138.5 544q0 364 137 542.5t426 178.5q285 0 424 -175t139 -546zM1051 692q0 287 -86.5 422t-282.5 135t-282.5 -135t-86.5 -422q0 -289 87.5 -423t281.5 -134q193 0 281 133t88 424z" />
    <glyph glyph-name="uni041F" unicode="&#x41f;" horiz-adv-x="1327" 
d="M182 0v1384h963v-1384h-184v1217h-594v-1217h-185z" />
    <glyph glyph-name="uni0420" unicode="&#x420;" horiz-adv-x="1182" 
d="M1083 942q0 -250 -117.5 -361.5t-381.5 -111.5h-217v-469h-185v1384h410q259 0 375 -107t116 -335zM889 938q0 145 -72 212t-246 67h-204v-580h178q146 0 213.5 28.5t99 92t31.5 180.5z" />
    <glyph glyph-name="uni0421" unicode="&#x421;" horiz-adv-x="1321" 
d="M1243 242q-66 -106 -134.5 -160.5t-159.5 -82.5t-214 -28q-311 0 -458.5 179.5t-147.5 541.5q0 361 146.5 541t451.5 180q121 0 216 -30t160.5 -82.5t119.5 -147.5l-152 -100q-44 74 -89 112.5t-108 61t-147 22.5q-208 0 -305.5 -138.5t-97.5 -418.5q0 -276 96 -416.5
t309 -140.5q118 0 205 46.5t156 160.5z" />
    <glyph glyph-name="uni0422" unicode="&#x422;" horiz-adv-x="1184" 
d="M684 1217v-1217h-184v1217h-459v167h1102v-167h-459z" />
    <glyph glyph-name="uni0423" unicode="&#x423;" horiz-adv-x="1196" 
d="M614 557l361 827h190l-518 -1167q-55 -127 -142.5 -186.5t-232.5 -59.5q-97 0 -202 35l57 154q31 -15 76 -23t80 -8q145 0 202 143l27 66l-461 1046h199z" />
    <glyph glyph-name="uni0424" unicode="&#x424;" horiz-adv-x="1503" 
d="M672 -47v197q-301 14 -447.5 143t-146.5 401q0 273 147.5 403t446.5 146v191h164v-191q301 -14 445 -144t144 -405q0 -272 -146 -401t-443 -143v-197h-164zM268 694q0 -186 91.5 -282.5t312.5 -108.5v787q-210 -13 -307 -103.5t-97 -292.5zM1237 694q0 187 -92 284
t-309 112v-787q217 12 309 108.5t92 282.5z" />
    <glyph glyph-name="uni0425" unicode="&#x425;" horiz-adv-x="1208" 
d="M53 0l449 694l-436 690h217l327 -546l338 546h207l-442 -684l442 -700h-217l-336 557l-342 -557h-207z" />
    <glyph glyph-name="uni0426" unicode="&#x426;" horiz-adv-x="1346" 
d="M182 0v1384h185v-1216h602v1216h182v-1222h168v-424h-180v262h-957z" />
    <glyph glyph-name="uni0427" unicode="&#x427;" horiz-adv-x="1253" 
d="M80 1384h184v-348q0 -169 21.5 -241.5t73 -102.5t169.5 -30q151 0 357 55v667h186v-1384h-186v563q-242 -59 -402 -59q-211 0 -307 104.5t-96 343.5v432z" />
    <glyph glyph-name="uni0428" unicode="&#x428;" horiz-adv-x="1898" 
d="M1532 162v1222h184v-1384h-1534v1384h185v-1222h491v1222h182v-1222h492z" />
    <glyph glyph-name="uni0429" unicode="&#x429;" horiz-adv-x="1911" 
d="M182 0v1384h185v-1222h491v1222h182v-1222h492v1222h184v-1222h168v-424h-180v262h-1522z" />
    <glyph glyph-name="uni042A" unicode="&#x42a;" horiz-adv-x="1434" 
d="M41 1223v161h567v-530h228q276 0 401 -104.5t125 -333.5q0 -217 -133 -316.5t-387 -99.5h-418v1223h-383zM608 692v-530h223q158 0 247 58.5t89 197.5q0 105 -33 163t-106 84.5t-221 26.5h-199z" />
    <glyph glyph-name="uni042B" unicode="&#x42b;" horiz-adv-x="1714" 
d="M1348 1384h184v-1384h-184v1384zM182 0v1384h185v-530h227q276 0 401 -104.5t125 -333.5q0 -219 -134 -317.5t-386 -98.5h-418zM926 418q0 105 -33 163t-105.5 84.5t-222.5 26.5h-198v-530h225q158 0 246 58.5t88 197.5z" />
    <glyph glyph-name="uni042C" unicode="&#x42c;" horiz-adv-x="1192" 
d="M182 0v1384h185v-530h227q276 0 401 -104.5t125 -333.5q0 -219 -134 -317.5t-386 -98.5h-418zM926 418q0 105 -33 163t-105.5 84.5t-222.5 26.5h-198v-530h225q158 0 246 58.5t88 197.5z" />
    <glyph glyph-name="uni042D" unicode="&#x42d;" horiz-adv-x="1321" 
d="M150 1153q75 137 199.5 198.5t295.5 61.5q305 0 451.5 -180t146.5 -541q0 -362 -147.5 -541.5t-458.5 -179.5q-178 0 -301 64t-207 207l154 100q64 -109 152 -158t208 -49q199 0 295 121t109 356h-674v168h674q-15 234 -113 351.5t-289 117.5q-81 0 -142.5 -21.5
t-106 -57t-95.5 -117.5z" />
    <glyph glyph-name="uni042E" unicode="&#x42e;" horiz-adv-x="1894" 
d="M367 0h-185v1384h185v-614h280q13 319 150 481t411 162q293 0 430.5 -176.5t137.5 -544.5q0 -365 -141.5 -543t-426.5 -178q-272 0 -410 159.5t-151 477.5h-280v-608zM1583 692q0 296 -89 429.5t-286 133.5q-194 0 -281 -134.5t-87 -428.5q0 -292 90 -427.5t278 -135.5
q196 0 285.5 133t89.5 430z" />
    <glyph glyph-name="uni042F" unicode="&#x42f;" horiz-adv-x="1237" 
d="M59 0l375 594q-153 33 -222 132t-69 269q0 198 112 293.5t370 95.5h430v-1384h-185v565h-241l-353 -565h-217zM334 981q0 -146 69.5 -199t235.5 -53h231v492h-243q-154 0 -223.5 -51.5t-69.5 -188.5z" />
    <glyph glyph-name="uni0430" unicode="&#x430;" horiz-adv-x="1100" 
d="M766 0v131q-80 -70 -161 -116t-183 -46q-150 0 -231.5 91.5t-81.5 234.5q0 108 42.5 179.5t123 113t233.5 59.5l258 23v51q0 121 -67.5 165t-186.5 44q-106 0 -163.5 -37t-82.5 -80l-141 86q48 87 146.5 133.5t244.5 46.5q226 0 324 -82t98 -284v-713h-172zM766 532
l-168 -16q-171 -15 -241 -66.5t-70 -150.5q0 -94 47 -135t141 -41q39 0 77 14.5t75 36t71.5 49t67.5 53.5v256z" />
    <glyph glyph-name="uni0431" unicode="&#x431;" horiz-adv-x="1114" 
d="M1034 522q0 -258 -115.5 -405.5t-326.5 -147.5q-248 0 -370 175t-122 509q0 193 20.5 328t63.5 227t110.5 147.5t163 87.5t220.5 48t283 31v-164q-168 -12 -295 -28.5t-213 -66t-129 -143.5t-43 -258q65 64 157 101.5t191 37.5q405 0 405 -479zM856 514q0 172 -63.5 258
t-202.5 86q-81 0 -165 -45t-144 -117l-2 -43v-43q0 -239 82.5 -369t232.5 -130q123 0 192.5 114.5t69.5 288.5z" />
    <glyph glyph-name="uni0432" unicode="&#x432;" horiz-adv-x="1098" 
d="M995 319q0 -169 -114.5 -244t-335.5 -75h-375v1049h371q226 0 316.5 -55t90.5 -191q0 -183 -162 -248q108 -24 158.5 -80t50.5 -156zM776 776q0 88 -59.5 113.5t-181.5 25.5h-197v-311h184q254 0 254 172zM819 315q0 91 -59.5 122.5t-204.5 31.5h-217v-332h147
q166 0 250 34t84 144z" />
    <glyph glyph-name="uni0433" unicode="&#x433;" horiz-adv-x="881" 
d="M170 1049h694v-142h-520v-907h-174v1049z" />
    <glyph glyph-name="uni0434" unicode="&#x434;" horiz-adv-x="1100" 
d="M23 -231v368h98q96 189 146 430t50 482h592v-912h168v-368h-164v231h-727v-231h-163zM741 911h-262q-12 -214 -60.5 -412.5t-131.5 -361.5h454v774z" />
    <glyph glyph-name="uni0435" unicode="&#x435;" horiz-adv-x="1081" 
d="M295 504q0 -208 71 -296.5t228 -88.5q70 0 123 29.5t102 95.5l142 -88q-60 -90 -146 -138.5t-233 -48.5q-234 0 -349.5 136t-115.5 411q0 288 112.5 425.5t339.5 137.5q204 0 306 -117.5t102 -361.5v-96h-682zM809 639q-2 141 -59.5 219t-186.5 78q-123 0 -184.5 -70.5
t-81.5 -226.5h512z" />
    <glyph glyph-name="uni0436" unicode="&#x436;" horiz-adv-x="1493" 
d="M831 1049v-447h117q85 0 143.5 101t118.5 346h172q-37 -169 -78.5 -277.5t-83.5 -163.5t-104 -71q64 -19 107 -58t75.5 -103.5t59 -156.5t61.5 -219h-174q-35 123 -62.5 209t-60 140t-77 80t-113.5 26h-101v-455h-169v455h-103q-67 0 -111.5 -24.5t-77 -80t-60 -141.5
t-62.5 -209h-174q56 223 94 316t85 144.5t124 76.5q-63 15 -105 69.5t-83.5 162.5t-79.5 280h174q36 -156 77.5 -257t84 -145.5t100.5 -44.5h117v447h169z" />
    <glyph glyph-name="uni0437" unicode="&#x437;" horiz-adv-x="961" 
d="M244 618h219q117 0 172 33t55 107q0 172 -254 172q-86 0 -138 -34t-91 -95l-141 86q110 192 368 192q211 0 317.5 -85t106.5 -230q0 -94 -49 -153.5t-115 -80.5q62 -22 112 -83.5t50 -167.5q0 -310 -428 -310q-154 0 -241 54.5t-136 138.5l142 86q47 -66 100 -97.5
t137 -31.5q113 0 185.5 44t72.5 134q0 180 -215 180h-229v141z" />
    <glyph glyph-name="uni0438" unicode="&#x438;" horiz-adv-x="1190" 
d="M352 0h-182v1049h162v-828l514 828h174v-1049h-162v811z" />
    <glyph glyph-name="uni0439" unicode="&#x439;" horiz-adv-x="1190" 
d="M352 0h-182v1049h162v-828l514 828h174v-1049h-162v811zM929 1442q0 -72 -40.5 -131.5t-114 -91t-174.5 -31.5q-97 0 -170.5 32t-114.5 92t-41 130h158q12 -74 56 -111t110 -37q88 0 125.5 37t48.5 111h157z" />
    <glyph glyph-name="uni043A" unicode="&#x43a;" horiz-adv-x="997" 
d="M338 1049v-447h147q59 0 100 42t81.5 141.5t78.5 263.5h175q-38 -171 -80.5 -281t-84 -163t-104.5 -68q75 -22 122 -71t86 -146.5t95 -319.5h-174q-35 123 -62.5 210t-60 141.5t-76.5 79t-112 24.5h-131v-455h-168v1049h168z" />
    <glyph glyph-name="uni043B" unicode="&#x43b;" horiz-adv-x="1090" 
d="M475 907v-73q0 -255 -43.5 -451.5t-123 -297.5t-187.5 -101q-25 0 -59.5 6t-51.5 12l33 150q37 -7 63 -7q205 0 205 748v156h609v-1049h-168v907h-277z" />
    <glyph glyph-name="uni043C" unicode="&#x43c;" horiz-adv-x="1311" 
d="M1141 0h-162v799l-285 -523h-86l-276 523v-799h-162v1049h180l305 -539l308 539h178v-1049z" />
    <glyph glyph-name="uni043D" unicode="&#x43d;" horiz-adv-x="1186" 
d="M1016 0h-168v471h-510v-471h-168v1049h168v-439h510v439h168v-1049z" />
    <glyph glyph-name="uni043E" unicode="&#x43e;" horiz-adv-x="1157" 
d="M1040 522q0 -273 -117.5 -413t-342.5 -140t-344 138.5t-119 414.5q0 281 119.5 419t343.5 138q226 0 343 -140.5t117 -416.5zM862 522q0 214 -70.5 311t-211.5 97q-145 0 -215 -97.5t-70 -310.5q0 -205 67.5 -304t217.5 -99q143 0 212.5 98t69.5 305z" />
    <glyph glyph-name="uni043F" unicode="&#x43f;" horiz-adv-x="1169" 
d="M827 0v907h-485v-907h-172v1049h829v-1049h-172z" />
    <glyph glyph-name="uni0440" unicode="&#x440;" horiz-adv-x="1174" 
d="M1057 532q0 -258 -112.5 -410.5t-309.5 -152.5q-157 0 -293 117v-481h-172v1444h172v-105q59 57 142 96t178 39q187 0 291 -141.5t104 -405.5zM879 528q0 398 -250 398q-82 0 -157 -41t-130 -94v-555q134 -113 270 -113q117 0 192 98t75 307z" />
    <glyph glyph-name="uni0441" unicode="&#x441;" horiz-adv-x="1030" 
d="M958 162q-49 -84 -136 -138.5t-240 -54.5q-231 0 -348 139.5t-117 413.5t116 415.5t342 141.5q259 0 369 -192l-141 -86q-39 61 -91.5 95t-138.5 34q-151 0 -214.5 -109.5t-63.5 -302.5q0 -147 30 -229t93.5 -126t161.5 -44q84 0 137 31.5t100 97.5z" />
    <glyph glyph-name="uni0442" unicode="&#x442;" horiz-adv-x="872" 
d="M856 911h-336v-911h-168v911h-336v138h840v-138z" />
    <glyph glyph-name="uni0443" unicode="&#x443;" horiz-adv-x="1040" 
d="M39 -223q65 -29 151 -29q121 0 205 219l35 90l-383 992h186l289 -768l291 768h180l-448 -1129q-71 -173 -152 -244t-211 -71q-47 0 -100 9t-86 21z" />
    <glyph glyph-name="uni0444" unicode="&#x444;" horiz-adv-x="1360" 
d="M604 -395v368q-242 13 -364.5 140t-122.5 409q0 274 117 406.5t370 148.5v414h156v-414q250 -17 366.5 -150.5t116.5 -404.5q0 -266 -113 -398t-370 -151v-368h-156zM291 522q0 -190 68.5 -290.5t244.5 -116.5v817q-178 -17 -245.5 -117t-67.5 -293zM1069 522
q0 193 -67.5 293t-241.5 117v-815q174 16 241.5 115.5t67.5 289.5z" />
    <glyph glyph-name="uni0445" unicode="&#x445;" horiz-adv-x="1012" 
d="M741 0l-241 399l-250 -399h-195l348 518l-344 531h211l242 -398l248 398h196l-348 -519l348 -530h-215z" />
    <glyph glyph-name="uni0446" unicode="&#x446;" horiz-adv-x="1202" 
d="M170 0v1049h174v-908h500v908h174v-912h162v-368h-160v231h-850z" />
    <glyph glyph-name="uni0447" unicode="&#x447;" horiz-adv-x="1059" 
d="M82 1049h168v-269q0 -126 15 -190.5t49.5 -90.5t103.5 -26q113 0 303 76v500h168v-1049h-168v401l-83 -30q-159 -60 -257 -60q-155 0 -227 101t-72 307v330z" />
    <glyph glyph-name="uni0448" unicode="&#x448;" horiz-adv-x="1618" 
d="M1311 137v912h168v-1049h-1309v1049h168v-912h403v912h168v-912h402z" />
    <glyph glyph-name="uni0449" unicode="&#x449;" horiz-adv-x="1669" 
d="M170 0v1049h168v-912h403v912h168v-912h402v912h168v-912h168v-368h-164v231h-1313z" />
    <glyph glyph-name="uni044A" unicode="&#x44a;" horiz-adv-x="1108" 
d="M16 911v138h445v-396h164q227 0 327.5 -79.5t100.5 -260.5q0 -178 -109.5 -245.5t-312.5 -67.5h-338v911h-277zM877 315q0 77 -24 120t-79 62t-174 19h-139v-379h160q137 0 196.5 41t59.5 137z" />
    <glyph glyph-name="uni044B" unicode="&#x44b;" horiz-adv-x="1421" 
d="M1083 0v1049h168v-1049h-168zM338 653h164q227 0 328.5 -79.5t101.5 -260.5q0 -161 -98.5 -237t-325.5 -76h-338v1049h168v-396zM756 315q0 82 -27 123.5t-86.5 59.5t-165.5 18h-139v-379h164q141 0 197.5 43t56.5 135z" />
    <glyph glyph-name="uni044C" unicode="&#x44c;" horiz-adv-x="987" 
d="M338 653h164q227 0 328.5 -79.5t101.5 -260.5q0 -161 -98.5 -237t-325.5 -76h-338v1049h168v-396zM756 315q0 82 -27 123.5t-86.5 59.5t-165.5 18h-139v-379h164q141 0 197.5 43t56.5 135z" />
    <glyph glyph-name="uni044D" unicode="&#x44d;" horiz-adv-x="1030" 
d="M86 887q111 192 369 192q229 0 343.5 -142.5t114.5 -414.5q0 -274 -117.5 -413.5t-346.5 -139.5q-154 0 -241 54.5t-136 138.5l141 86q47 -66 100.5 -97.5t137.5 -31.5q130 0 201 78.5t81 259.5h-512v141h512q-12 158 -76.5 245t-199.5 87q-86 0 -138.5 -34t-91.5 -95z
" />
    <glyph glyph-name="uni044E" unicode="&#x44e;" horiz-adv-x="1565" 
d="M334 0h-164v1049h164v-459h196q31 489 459 489q228 0 343.5 -141.5t115.5 -415.5q0 -268 -115 -410.5t-344 -142.5q-208 0 -326 120t-133 372h-196v-461zM1278 522q0 203 -71.5 311.5t-217.5 108.5q-145 0 -218 -107.5t-73 -312.5q0 -202 73.5 -307.5t217.5 -105.5
q141 0 215 106t74 307z" />
    <glyph glyph-name="uni044F" unicode="&#x44f;" horiz-adv-x="1053" 
d="M53 0l272 445q-106 29 -162.5 108.5t-56.5 206.5q0 160 97.5 224.5t306.5 64.5h373v-1049h-168v428h-219l-252 -428h-191zM276 750q0 -78 24.5 -115t79.5 -53.5t161 -16.5h174v350h-185q-148 0 -201 -35t-53 -130z" />
    <glyph glyph-name="uni0450" unicode="&#x450;" horiz-adv-x="1081" 
d="M295 504q0 -208 71 -296.5t228 -88.5q70 0 123 29.5t102 95.5l142 -88q-60 -90 -146 -138.5t-233 -48.5q-234 0 -349.5 136t-115.5 411q0 288 112.5 425.5t339.5 137.5q204 0 306 -117.5t102 -361.5v-96h-682zM809 639q-2 141 -59.5 219t-186.5 78q-123 0 -184.5 -70.5
t-81.5 -226.5h512zM594 1208l-273 361h236l178 -361h-141z" />
    <glyph glyph-name="uni0451" unicode="&#x451;" horiz-adv-x="1081" 
d="M295 504q0 -208 71 -296.5t228 -88.5q70 0 123 29.5t102 95.5l142 -88q-60 -90 -146 -138.5t-233 -48.5q-234 0 -349.5 136t-115.5 411q0 288 112.5 425.5t339.5 137.5q204 0 306 -117.5t102 -361.5v-96h-682zM809 639q-2 141 -59.5 219t-186.5 78q-123 0 -184.5 -70.5
t-81.5 -226.5h512zM868 1315q0 -60 -24.5 -83.5t-84.5 -23.5q-63 0 -84.5 29t-21.5 78q0 53 23.5 79.5t82.5 26.5q62 0 85.5 -25.5t23.5 -80.5zM473 1315q0 -60 -24.5 -83.5t-84.5 -23.5q-63 0 -84.5 29t-21.5 78q0 53 23.5 79.5t82.5 26.5q62 0 85.5 -25.5t23.5 -80.5z" />
    <glyph glyph-name="uni0452" unicode="&#x452;" horiz-adv-x="1104" 
d="M604 1217h-295v-324q83 83 176 134.5t172 51.5q189 0 277 -139t88 -408q0 -421 -122 -654.5t-347 -264.5l-29 137q122 29 189 108.5t100 229t33 377.5q0 240 -50 344t-173 104q-56 0 -140.5 -46t-173.5 -126v-741h-172v1217h-114v133h114v141h172v-141h295v-133z" />
    <glyph glyph-name="uni0453" unicode="&#x453;" horiz-adv-x="881" 
d="M512 1208h-142l178 361h236zM170 1049h694v-142h-520v-907h-174v1049z" />
    <glyph glyph-name="uni0454" unicode="&#x454;" horiz-adv-x="1030" 
d="M958 162q-49 -84 -136 -138.5t-240 -54.5q-231 0 -348 139.5t-117 413.5t116 415.5t342 141.5q259 0 369 -192l-141 -86q-39 61 -91.5 95t-138.5 34q-135 0 -199.5 -87t-76.5 -245h512v-141h-512q10 -180 80.5 -259t202.5 -79q84 0 137 31.5t100 97.5z" />
    <glyph glyph-name="uni0455" unicode="&#x455;" horiz-adv-x="991" 
d="M887 283q0 -147 -104 -230.5t-296 -83.5q-131 0 -235 49.5t-152 139.5l138 84q79 -127 254 -127q114 0 170.5 43.5t56.5 117.5q0 44 -20 71.5t-62 48t-172 55.5q-187 43 -263.5 119t-76.5 202q0 139 100 223t277 84q137 0 230 -54t136 -130l-137 -84q-82 123 -233 123
q-86 0 -145.5 -38t-59.5 -118q0 -71 52 -103t163 -59q178 -46 246 -86t100.5 -98.5t32.5 -148.5z" />
    <glyph glyph-name="uni0456" unicode="&#x456;" horiz-adv-x="512" 
d="M369 1315q0 -60 -27 -81.5t-86 -21.5q-63 0 -87 27t-24 76q0 53 26 77.5t85 24.5q61 0 87 -23.5t26 -78.5zM170 0v1049h172v-1049h-172z" />
    <glyph glyph-name="uni0457" unicode="&#x457;" horiz-adv-x="512" 
d="M547 1315q0 -60 -24.5 -83.5t-84.5 -23.5q-63 0 -84.5 29t-21.5 78q0 53 23.5 79.5t82.5 26.5q62 0 85.5 -25.5t23.5 -80.5zM152 1315q0 -60 -24.5 -83.5t-84.5 -23.5q-63 0 -84.5 29t-21.5 78q0 53 23.5 79.5t82.5 26.5q62 0 85.5 -25.5t23.5 -80.5zM170 0v1049h172
v-1049h-172z" />
    <glyph glyph-name="uni0458" unicode="&#x458;" horiz-adv-x="537" 
d="M385 1315q0 -60 -26.5 -81.5t-86.5 -21.5q-63 0 -86.5 27t-23.5 76q0 53 25.5 77.5t84.5 24.5q62 0 87.5 -23.5t25.5 -78.5zM358 -45q0 -190 -74 -270t-239 -80q-100 0 -188 30l43 142q73 -29 151 -29q84 0 109.5 58.5t25.5 168.5v1074h172v-1094z" />
    <glyph glyph-name="uni0459" unicode="&#x459;" horiz-adv-x="1567" 
d="M311 1049h609v-396h161q228 0 329 -79.5t101 -260.5q0 -164 -99 -238.5t-325 -74.5h-335v907h-277v-73q0 -255 -43.5 -451.5t-123 -297.5t-187.5 -101q-25 0 -59.5 6t-51.5 12l33 150q37 -7 63 -7q205 0 205 748v156zM1335 315q0 77 -23.5 119.5t-77 62t-175.5 19.5h-139
v-379h161q121 0 187.5 36t66.5 142z" />
    <glyph glyph-name="uni045A" unicode="&#x45a;" horiz-adv-x="1665" 
d="M848 0v487h-510v-487h-168v1049h168v-420h510v420h168v-420h164q227 0 328.5 -75t101.5 -241q0 -163 -99 -238t-325 -75h-338zM1434 315q0 99 -57.5 135.5t-221.5 36.5h-139v-350h162q137 0 196.5 41t59.5 137z" />
    <glyph glyph-name="uni045B" unicode="&#x45b;" horiz-adv-x="1096" 
d="M309 893q73 73 170 129.5t195 56.5q153 0 224 -88.5t71 -290.5v-700h-172v618q0 145 -14.5 197.5t-50 75t-99.5 22.5q-66 0 -154 -50t-170 -122v-741h-172v1217h-121v133h121v139h172v-139h291v-133h-291v-324z" />
    <glyph glyph-name="uni045C" unicode="&#x45c;" horiz-adv-x="997" 
d="M545 1208h-142l178 361h236zM338 1049v-447h147q59 0 100 42t81.5 141.5t78.5 263.5h175q-38 -171 -80.5 -281t-84 -163t-104.5 -68q75 -22 122 -71t86 -146.5t95 -319.5h-174q-35 123 -62.5 210t-60 141.5t-76.5 79t-112 24.5h-131v-455h-168v1049h168z" />
    <glyph glyph-name="uni045D" unicode="&#x45d;" horiz-adv-x="1190" 
d="M586 1208l-273 361h236l178 -361h-141zM352 0h-182v1049h162v-828l514 828h174v-1049h-162v811z" />
    <glyph glyph-name="uni045E" unicode="&#x45e;" horiz-adv-x="1040" 
d="M39 -223q65 -29 151 -29q121 0 205 219l35 90l-383 992h186l289 -768l291 768h180l-448 -1129q-71 -173 -152 -244t-211 -71q-47 0 -100 9t-86 21zM854 1442q0 -72 -40.5 -131.5t-114 -91t-174.5 -31.5q-97 0 -170.5 32t-114.5 92t-41 130h158q12 -74 56 -111t110 -37
q88 0 125.5 37t48.5 111h157z" />
    <glyph glyph-name="uni045F" unicode="&#x45f;" horiz-adv-x="1128" 
d="M989 0h-340v-285h-170v285h-340v1049h174v-908h502v908h174v-1049z" />
    <glyph glyph-name="uni0490" unicode="&#x490;" horiz-adv-x="1055" 
d="M834 1634h180v-417h-641v-1217h-191v1384h652v250z" />
    <glyph glyph-name="uni0491" unicode="&#x491;" horiz-adv-x="850" 
d="M139 0v1049h527v307h168v-449h-521v-907h-174z" />
    <glyph glyph-name="Wgrave" unicode="&#x1e80;" horiz-adv-x="1757" 
d="M1356 0h-221l-261 1108l-262 -1108h-217l-327 1384h184l258 -1118l262 1118h209l266 -1126l262 1126h181zM863 1544l-273 361h236l178 -361h-141z" />
    <glyph glyph-name="wgrave" unicode="&#x1e81;" horiz-adv-x="1475" 
d="M1153 0h-160l-256 803l-256 -803h-157l-261 1049h179l178 -799l250 799h143l256 -799l170 799h172zM709 1208l-273 361h236l178 -361h-141z" />
    <glyph glyph-name="Wacute" unicode="&#x1e82;" horiz-adv-x="1757" 
d="M1356 0h-221l-261 1108l-262 -1108h-217l-327 1384h184l258 -1118l262 1118h209l266 -1126l262 1126h181zM924 1544h-142l178 361h236z" />
    <glyph glyph-name="wacute" unicode="&#x1e83;" horiz-adv-x="1475" 
d="M1153 0h-160l-256 803l-256 -803h-157l-261 1049h179l178 -799l250 799h143l256 -799l170 799h172zM791 1208h-142l178 361h236z" />
    <glyph glyph-name="Wdieresis" unicode="&#x1e84;" horiz-adv-x="1757" 
d="M1356 0h-221l-261 1108l-262 -1108h-217l-327 1384h184l258 -1118l262 1118h209l266 -1126l262 1126h181zM1188 1651q0 -60 -24.5 -83.5t-84.5 -23.5q-63 0 -84.5 29t-21.5 78q0 53 23.5 79.5t82.5 26.5q62 0 85.5 -25.5t23.5 -80.5zM793 1651q0 -60 -24.5 -83.5
t-84.5 -23.5q-63 0 -84.5 29t-21.5 78q0 53 23.5 79.5t82.5 26.5q62 0 85.5 -25.5t23.5 -80.5z" />
    <glyph glyph-name="wdieresis" unicode="&#x1e85;" horiz-adv-x="1475" 
d="M1153 0h-160l-256 803l-256 -803h-157l-261 1049h179l178 -799l250 799h143l256 -799l170 799h172zM1055 1315q0 -60 -24.5 -83.5t-84.5 -23.5q-63 0 -84.5 29t-21.5 78q0 53 23.5 79.5t82.5 26.5q62 0 85.5 -25.5t23.5 -80.5zM660 1315q0 -60 -24.5 -83.5t-84.5 -23.5
q-63 0 -84.5 29t-21.5 78q0 53 23.5 79.5t82.5 26.5q62 0 85.5 -25.5t23.5 -80.5z" />
    <glyph glyph-name="Eszett" unicode="&#x1e9e;" horiz-adv-x="1405" 
d="M993 1249q-133 0 -198.5 -57t-65.5 -162q0 -95 49.5 -146t171.5 -93q183 -64 270 -160t87 -252q0 -190 -115 -299t-318 -109q-311 0 -423 271l157 86q39 -92 103.5 -142.5t167.5 -50.5q100 0 169.5 56.5t69.5 173.5q0 90 -55 153.5t-195 110.5q-182 61 -252.5 158.5
t-70.5 226.5q0 84 29.5 139t84.5 98q-162 0 -227 -73.5t-65 -266.5v-911h-185v889q0 268 120 397t380 129q102 0 170 -7t141 -24v-135z" />
    <glyph glyph-name="Adotbelow" unicode="&#x1ea0;" horiz-adv-x="1288" 
d="M51 0l473 1384h240l473 -1384h-195l-120 360h-564l-118 -360h-189zM414 528h450l-225 674zM759 -258q0 -64 -26.5 -89.5t-89.5 -25.5q-70 0 -92.5 31t-22.5 84q0 59 24.5 87t90.5 28q65 0 90.5 -28t25.5 -87z" />
    <glyph glyph-name="adotbelow" unicode="&#x1ea1;" horiz-adv-x="1100" 
d="M766 0v131q-80 -70 -161 -116t-183 -46q-150 0 -231.5 91.5t-81.5 234.5q0 108 42.5 179.5t123 113t233.5 59.5l258 23v51q0 121 -67.5 165t-186.5 44q-106 0 -163.5 -37t-82.5 -80l-141 86q48 87 146.5 133.5t244.5 46.5q226 0 324 -82t98 -284v-713h-172zM766 532
l-168 -16q-171 -15 -241 -66.5t-70 -150.5q0 -94 47 -135t141 -41q39 0 77 14.5t75 36t71.5 49t67.5 53.5v256zM614 -258q0 -64 -26.5 -89.5t-89.5 -25.5q-70 0 -92.5 31t-22.5 84q0 59 24.5 87t90.5 28q65 0 90.5 -28t25.5 -87z" />
    <glyph glyph-name="Ahookabove" unicode="&#x1ea2;" horiz-adv-x="1288" 
d="M51 0l473 1384h240l473 -1384h-195l-120 360h-564l-118 -360h-189zM414 528h450l-225 674zM448 1774q23 20 70 36.5t107 16.5q90 0 138 -38t48 -99q0 -138 -148 -156v-37h-98v113h25q73 0 73 55q0 27 -15 41t-54 14q-21 0 -49.5 -8t-50.5 -24z" />
    <glyph glyph-name="ahookabove" unicode="&#x1ea3;" horiz-adv-x="1100" 
d="M766 0v131q-80 -70 -161 -116t-183 -46q-150 0 -231.5 91.5t-81.5 234.5q0 108 42.5 179.5t123 113t233.5 59.5l258 23v51q0 121 -67.5 165t-186.5 44q-106 0 -163.5 -37t-82.5 -80l-141 86q48 87 146.5 133.5t244.5 46.5q226 0 324 -82t98 -284v-713h-172zM766 532
l-168 -16q-171 -15 -241 -66.5t-70 -150.5q0 -94 47 -135t141 -41q39 0 77 14.5t75 36t71.5 49t67.5 53.5v256zM350 1438q23 20 70 36.5t107 16.5q90 0 138 -38t48 -99q0 -137 -148 -156v-37h-98v113h25q73 0 73 55q0 27 -15 41t-54 14q-21 0 -49.5 -8t-50.5 -24z" />
    <glyph glyph-name="Acircumflexacute" unicode="&#x1ea4;" horiz-adv-x="1288" 
d="M51 0l473 1384h240l473 -1384h-195l-120 360h-564l-118 -360h-189zM414 528h450l-225 674zM829 1503l-184 162l-185 -162h-149l229 279h211l228 -279h-150zM827 1733l123 274h235l-217 -274h-141z" />
    <glyph glyph-name="acircumflexacute" unicode="&#x1ea5;" horiz-adv-x="1100" 
d="M766 0v131q-80 -70 -161 -116t-183 -46q-150 0 -231.5 91.5t-81.5 234.5q0 108 42.5 179.5t123 113t233.5 59.5l258 23v51q0 121 -67.5 165t-186.5 44q-106 0 -163.5 -37t-82.5 -80l-141 86q48 87 146.5 133.5t244.5 46.5q226 0 324 -82t98 -284v-713h-172zM766 532
l-168 -16q-171 -15 -241 -66.5t-70 -150.5q0 -94 47 -135t141 -41q39 0 77 14.5t75 36t71.5 49t67.5 53.5v256zM719 1167l-184 162l-185 -162h-149l229 279h211l228 -279h-150zM717 1397l123 274h235l-217 -274h-141z" />
    <glyph glyph-name="Acircumflexgrave" unicode="&#x1ea6;" horiz-adv-x="1288" 
d="M51 0l473 1384h240l473 -1384h-195l-120 360h-564l-118 -360h-189zM414 528h450l-225 674zM829 1503l-184 162l-185 -162h-149l229 279h211l228 -279h-150zM321 1733l-217 274h236l122 -274h-141z" />
    <glyph glyph-name="acircumflexgrave" unicode="&#x1ea7;" horiz-adv-x="1100" 
d="M766 0v131q-80 -70 -161 -116t-183 -46q-150 0 -231.5 91.5t-81.5 234.5q0 108 42.5 179.5t123 113t233.5 59.5l258 23v51q0 121 -67.5 165t-186.5 44q-106 0 -163.5 -37t-82.5 -80l-141 86q48 87 146.5 133.5t244.5 46.5q226 0 324 -82t98 -284v-713h-172zM766 532
l-168 -16q-171 -15 -241 -66.5t-70 -150.5q0 -94 47 -135t141 -41q39 0 77 14.5t75 36t71.5 49t67.5 53.5v256zM719 1167l-184 162l-185 -162h-149l229 279h211l228 -279h-150zM211 1397l-217 274h236l122 -274h-141z" />
    <glyph glyph-name="Acircumflexhookabove" unicode="&#x1ea8;" horiz-adv-x="1288" 
d="M51 0l473 1384h240l473 -1384h-195l-120 360h-564l-118 -360h-189zM414 528h450l-225 674zM829 1503l-184 162l-185 -162h-149l229 279h211l228 -279h-150zM761 1954q23 20 70 36.5t107 16.5q90 0 138 -38t48 -99q0 -137 -148 -156v-37h-98v113h25q73 0 73 55
q0 27 -15 41.5t-54 14.5q-21 0 -49.5 -8.5t-50.5 -24.5z" />
    <glyph glyph-name="acircumflexhookabove" unicode="&#x1ea9;" horiz-adv-x="1100" 
d="M766 0v131q-80 -70 -161 -116t-183 -46q-150 0 -231.5 91.5t-81.5 234.5q0 108 42.5 179.5t123 113t233.5 59.5l258 23v51q0 121 -67.5 165t-186.5 44q-106 0 -163.5 -37t-82.5 -80l-141 86q48 87 146.5 133.5t244.5 46.5q226 0 324 -82t98 -284v-713h-172zM766 532
l-168 -16q-171 -15 -241 -66.5t-70 -150.5q0 -94 47 -135t141 -41q39 0 77 14.5t75 36t71.5 49t67.5 53.5v256zM719 1167l-184 162l-185 -162h-149l229 279h211l228 -279h-150zM651 1618q23 20 70 36.5t107 16.5q90 0 138 -38t48 -99q0 -137 -148 -156v-37h-98v113h25
q73 0 73 55q0 27 -15 41.5t-54 14.5q-21 0 -49.5 -8.5t-50.5 -24.5z" />
    <glyph glyph-name="Acircumflextilde" unicode="&#x1eaa;" horiz-adv-x="1288" 
d="M51 0l473 1384h240l473 -1384h-195l-120 360h-564l-118 -360h-189zM414 528h450l-225 674zM829 1503l-184 142l-185 -142h-149l229 258h211l228 -258h-150zM268 1823q6 104 67.5 162.5t161.5 58.5q47 0 87 -15.5t77 -35t71 -34.5t70 -15q88 0 97 88h121
q-19 -222 -232 -222q-59 0 -98 16.5t-71 36t-62.5 36t-71.5 16.5q-51 0 -71.5 -24.5t-24.5 -67.5h-121z" />
    <glyph glyph-name="acircumflextilde" unicode="&#x1eab;" horiz-adv-x="1100" 
d="M766 0v131q-80 -70 -161 -116t-183 -46q-150 0 -231.5 91.5t-81.5 234.5q0 108 42.5 179.5t123 113t233.5 59.5l258 23v51q0 121 -67.5 165t-186.5 44q-106 0 -163.5 -37t-82.5 -80l-141 86q48 87 146.5 133.5t244.5 46.5q226 0 324 -82t98 -284v-713h-172zM766 532
l-168 -16q-171 -15 -241 -66.5t-70 -150.5q0 -94 47 -135t141 -41q39 0 77 14.5t75 36t71.5 49t67.5 53.5v256zM719 1167l-184 162l-185 -162h-149l229 279h211l228 -279h-150zM158 1507q6 105 67.5 163.5t161.5 58.5q47 0 87 -15.5t77 -35t71 -35t70 -15.5q88 0 97 88h121
q-19 -221 -232 -221q-59 0 -98 16.5t-71 36t-62.5 35.5t-71.5 16q-51 0 -71.5 -24.5t-24.5 -67.5h-121z" />
    <glyph glyph-name="Acircumflexdotbelow" unicode="&#x1eac;" horiz-adv-x="1288" 
d="M51 0l473 1384h240l473 -1384h-195l-120 360h-564l-118 -360h-189zM414 528h450l-225 674zM829 1544l-184 238l-185 -238h-149l229 361h211l228 -361h-150zM759 -258q0 -64 -26.5 -89.5t-89.5 -25.5q-70 0 -92.5 31t-22.5 84q0 59 24.5 87t90.5 28q65 0 90.5 -28
t25.5 -87z" />
    <glyph glyph-name="acircumflexdotbelow" unicode="&#x1ead;" horiz-adv-x="1100" 
d="M766 0v131q-80 -70 -161 -116t-183 -46q-150 0 -231.5 91.5t-81.5 234.5q0 108 42.5 179.5t123 113t233.5 59.5l258 23v51q0 121 -67.5 165t-186.5 44q-106 0 -163.5 -37t-82.5 -80l-141 86q48 87 146.5 133.5t244.5 46.5q226 0 324 -82t98 -284v-713h-172zM766 532
l-168 -16q-171 -15 -241 -66.5t-70 -150.5q0 -94 47 -135t141 -41q39 0 77 14.5t75 36t71.5 49t67.5 53.5v256zM719 1208l-184 238l-185 -238h-149l229 361h211l228 -361h-150zM614 -258q0 -64 -26.5 -89.5t-89.5 -25.5q-70 0 -92.5 31t-22.5 84q0 59 24.5 87t90.5 28
q65 0 90.5 -28t25.5 -87z" />
    <glyph glyph-name="Abreveacute" unicode="&#x1eae;" horiz-adv-x="1288" 
d="M51 0l473 1384h240l473 -1384h-195l-120 360h-564l-118 -360h-189zM414 528h450l-225 674zM970 1784q0 -124 -86 -203.5t-243 -79.5q-152 0 -239 81t-87 202h127q14 -64 66.5 -94.5t130.5 -30.5q102 0 147 30.5t57 94.5h127zM549 1733l122 274h236l-217 -274h-141z" />
    <glyph glyph-name="abreveacute" unicode="&#x1eaf;" horiz-adv-x="1100" 
d="M766 0v131q-80 -70 -161 -116t-183 -46q-150 0 -231.5 91.5t-81.5 234.5q0 108 42.5 179.5t123 113t233.5 59.5l258 23v51q0 121 -67.5 165t-186.5 44q-106 0 -163.5 -37t-82.5 -80l-141 86q48 87 146.5 133.5t244.5 46.5q226 0 324 -82t98 -284v-713h-172zM766 532
l-168 -16q-171 -15 -241 -66.5t-70 -150.5q0 -94 47 -135t141 -41q39 0 77 14.5t75 36t71.5 49t67.5 53.5v256zM862 1489q0 -124 -86 -203.5t-243 -79.5q-152 0 -239 81t-87 202h127q14 -64 66.5 -94.5t130.5 -30.5q102 0 147 30.5t57 94.5h127zM441 1438l122 274h236
l-217 -274h-141z" />
    <glyph glyph-name="Abrevegrave" unicode="&#x1eb0;" horiz-adv-x="1288" 
d="M51 0l473 1384h240l473 -1384h-195l-120 360h-564l-118 -360h-189zM414 528h450l-225 674zM972 1784q0 -124 -86 -203.5t-243 -79.5q-152 0 -239 81t-87 202h127q14 -64 66.5 -94.5t130.5 -30.5q102 0 147 30.5t57 94.5h127zM598 1733l-217 274h235l123 -274h-141z" />
    <glyph glyph-name="abrevegrave" unicode="&#x1eb1;" horiz-adv-x="1100" 
d="M766 0v131q-80 -70 -161 -116t-183 -46q-150 0 -231.5 91.5t-81.5 234.5q0 108 42.5 179.5t123 113t233.5 59.5l258 23v51q0 121 -67.5 165t-186.5 44q-106 0 -163.5 -37t-82.5 -80l-141 86q48 87 146.5 133.5t244.5 46.5q226 0 324 -82t98 -284v-713h-172zM766 532
l-168 -16q-171 -15 -241 -66.5t-70 -150.5q0 -94 47 -135t141 -41q39 0 77 14.5t75 36t71.5 49t67.5 53.5v256zM862 1489q0 -124 -86 -203.5t-243 -79.5q-152 0 -239 81t-87 202h127q14 -64 66.5 -94.5t130.5 -30.5q102 0 147 30.5t57 94.5h127zM488 1438l-217 274h235
l123 -274h-141z" />
    <glyph glyph-name="Abrevehookabove" unicode="&#x1eb2;" horiz-adv-x="1288" 
d="M51 0l473 1384h240l473 -1384h-195l-120 360h-564l-118 -360h-189zM414 528h450l-225 674zM972 1784q0 -124 -86 -203.5t-243 -79.5q-152 0 -239 81t-87 202h127q14 -64 66.5 -94.5t130.5 -30.5q102 0 147 30.5t57 94.5h127zM450 2015q23 21 70 37t106 16
q90 0 138.5 -37.5t48.5 -99.5q0 -137 -148 -155v-37h-98v112h24q74 0 74 56q0 55 -69 55q-56 0 -101 -33z" />
    <glyph glyph-name="abrevehookabove" unicode="&#x1eb3;" horiz-adv-x="1100" 
d="M766 0v131q-80 -70 -161 -116t-183 -46q-150 0 -231.5 91.5t-81.5 234.5q0 108 42.5 179.5t123 113t233.5 59.5l258 23v51q0 121 -67.5 165t-186.5 44q-106 0 -163.5 -37t-82.5 -80l-141 86q48 87 146.5 133.5t244.5 46.5q226 0 324 -82t98 -284v-713h-172zM766 532
l-168 -16q-171 -15 -241 -66.5t-70 -150.5q0 -94 47 -135t141 -41q39 0 77 14.5t75 36t71.5 49t67.5 53.5v256zM862 1489q0 -124 -86 -203.5t-243 -79.5q-152 0 -239 81t-87 202h127q14 -64 66.5 -94.5t130.5 -30.5q102 0 147 30.5t57 94.5h127zM340 1720q23 21 70 37.5
t106 16.5q90 0 138.5 -38t48.5 -100q0 -137 -148 -155v-37h-98v112h24q74 0 74 56q0 55 -69 55q-56 0 -101 -33z" />
    <glyph glyph-name="Abrevetilde" unicode="&#x1eb4;" horiz-adv-x="1288" 
d="M51 0l473 1384h240l473 -1384h-195l-120 360h-564l-118 -360h-189zM414 528h450l-225 674zM972 1784q0 -124 -86 -203.5t-243 -79.5q-152 0 -239 81t-87 202h127q14 -64 66.5 -94.5t130.5 -30.5q102 0 147 30.5t57 94.5h127zM268 1843q6 105 67.5 163t161.5 58
q47 0 87 -15t77 -34.5t71 -35t70 -15.5q88 0 97 88h121q-19 -221 -232 -221q-59 0 -98 16.5t-71 36t-62.5 35.5t-71.5 16q-51 0 -71.5 -24.5t-24.5 -67.5h-121z" />
    <glyph glyph-name="abrevetilde" unicode="&#x1eb5;" horiz-adv-x="1100" 
d="M766 0v131q-80 -70 -161 -116t-183 -46q-150 0 -231.5 91.5t-81.5 234.5q0 108 42.5 179.5t123 113t233.5 59.5l258 23v51q0 121 -67.5 165t-186.5 44q-106 0 -163.5 -37t-82.5 -80l-141 86q48 87 146.5 133.5t244.5 46.5q226 0 324 -82t98 -284v-713h-172zM766 532
l-168 -16q-171 -15 -241 -66.5t-70 -150.5q0 -94 47 -135t141 -41q39 0 77 14.5t75 36t71.5 49t67.5 53.5v256zM862 1489q0 -124 -86 -203.5t-243 -79.5q-152 0 -239 81t-87 202h127q14 -64 66.5 -94.5t130.5 -30.5q102 0 147 30.5t57 94.5h127zM158 1548q6 105 67.5 163
t161.5 58q47 0 87 -15t77 -34.5t71 -35t70 -15.5q88 0 97 88h121q-19 -221 -232 -221q-59 0 -98 16.5t-71 36t-62.5 35.5t-71.5 16q-51 0 -71.5 -24.5t-24.5 -67.5h-121z" />
    <glyph glyph-name="Abrevedotbelow" unicode="&#x1eb6;" horiz-adv-x="1288" 
d="M51 0l473 1384h240l473 -1384h-195l-120 360h-564l-118 -360h-189zM414 528h450l-225 674zM972 1804q0 -123 -86.5 -202.5t-242.5 -79.5q-152 0 -239 81t-87 201h127q14 -63 66.5 -94t130.5 -31q102 0 147 31t57 94h127zM761 -258q0 -64 -26.5 -89.5t-89.5 -25.5
q-70 0 -92.5 31t-22.5 84q0 59 24.5 87t90.5 28q65 0 90.5 -28t25.5 -87z" />
    <glyph glyph-name="abrevedotbelow" unicode="&#x1eb7;" horiz-adv-x="1100" 
d="M766 0v131q-80 -70 -161 -116t-183 -46q-150 0 -231.5 91.5t-81.5 234.5q0 108 42.5 179.5t123 113t233.5 59.5l258 23v51q0 121 -67.5 165t-186.5 44q-106 0 -163.5 -37t-82.5 -80l-141 86q48 87 146.5 133.5t244.5 46.5q226 0 324 -82t98 -284v-713h-172zM766 532
l-168 -16q-171 -15 -241 -66.5t-70 -150.5q0 -94 47 -135t141 -41q39 0 77 14.5t75 36t71.5 49t67.5 53.5v256zM862 1489q0 -124 -86 -203.5t-243 -79.5q-152 0 -239 81t-87 202h127q14 -64 66.5 -94.5t130.5 -30.5q102 0 147 30.5t57 94.5h127zM614 -258q0 -64 -26.5 -89.5
t-89.5 -25.5q-70 0 -92.5 31t-22.5 84q0 59 24.5 87t90.5 28q65 0 90.5 -28t25.5 -87z" />
    <glyph glyph-name="Edotbelow" unicode="&#x1eb8;" horiz-adv-x="1153" 
d="M182 0v1384h846v-167h-661v-404h565v-168h-565v-477h661v-168h-846zM710 -258q0 -64 -26.5 -89.5t-89.5 -25.5q-70 0 -92.5 31t-22.5 84q0 59 24.5 87t90.5 28q65 0 90.5 -28t25.5 -87z" />
    <glyph glyph-name="edotbelow" unicode="&#x1eb9;" horiz-adv-x="1081" 
d="M295 504q0 -208 71 -296.5t228 -88.5q70 0 123 29.5t102 95.5l142 -88q-60 -90 -146 -138.5t-233 -48.5q-234 0 -349.5 136t-115.5 411q0 288 112.5 425.5t339.5 137.5q204 0 306 -117.5t102 -361.5v-96h-682zM809 639q-2 141 -59.5 219t-186.5 78q-123 0 -184.5 -70.5
t-81.5 -226.5h512zM679 -258q0 -64 -26.5 -89.5t-89.5 -25.5q-70 0 -92.5 31t-22.5 84q0 59 24.5 87t90.5 28q65 0 90.5 -28t25.5 -87z" />
    <glyph glyph-name="Ehookabove" unicode="&#x1eba;" horiz-adv-x="1153" 
d="M182 0v1384h846v-167h-661v-404h565v-168h-565v-477h661v-168h-846zM426 1774q23 20 70 36.5t107 16.5q90 0 138 -38t48 -99q0 -138 -148 -156v-37h-98v113h25q73 0 73 55q0 27 -15 41t-54 14q-21 0 -49.5 -8t-50.5 -24z" />
    <glyph glyph-name="ehookabove" unicode="&#x1ebb;" horiz-adv-x="1081" 
d="M295 504q0 -208 71 -296.5t228 -88.5q70 0 123 29.5t102 95.5l142 -88q-60 -90 -146 -138.5t-233 -48.5q-234 0 -349.5 136t-115.5 411q0 288 112.5 425.5t339.5 137.5q204 0 306 -117.5t102 -361.5v-96h-682zM809 639q-2 141 -59.5 219t-186.5 78q-123 0 -184.5 -70.5
t-81.5 -226.5h512zM380 1438q23 20 70 36.5t107 16.5q90 0 138 -38t48 -99q0 -137 -148 -156v-37h-98v113h25q73 0 73 55q0 27 -15 41t-54 14q-21 0 -49.5 -8t-50.5 -24z" />
    <glyph glyph-name="Etilde" unicode="&#x1ebc;" horiz-adv-x="1153" 
d="M182 0v1384h846v-167h-661v-404h565v-168h-565v-477h661v-168h-846zM242 1556q6 125 67.5 194t161.5 69q56 0 96.5 -22.5t75.5 -48.5t66 -48.5t67 -22.5q88 0 97 129h121q-19 -262 -232 -262q-65 0 -105 22.5t-71 50.5t-58.5 50.5t-68.5 22.5q-51 0 -71.5 -36t-24.5 -98
h-121z" />
    <glyph glyph-name="etilde" unicode="&#x1ebd;" horiz-adv-x="1081" 
d="M295 504q0 -208 71 -296.5t228 -88.5q70 0 123 29.5t102 95.5l142 -88q-60 -90 -146 -138.5t-233 -48.5q-234 0 -349.5 136t-115.5 411q0 288 112.5 425.5t339.5 137.5q204 0 306 -117.5t102 -361.5v-96h-682zM809 639q-2 141 -59.5 219t-186.5 78q-123 0 -184.5 -70.5
t-81.5 -226.5h512zM186 1221q6 125 67.5 193.5t161.5 68.5q56 0 96.5 -22.5t75.5 -48.5t66 -48.5t67 -22.5q88 0 97 129h121q-19 -262 -232 -262q-65 0 -105 22.5t-71 50.5t-58.5 50.5t-68.5 22.5q-51 0 -71.5 -36t-24.5 -97h-121z" />
    <glyph glyph-name="Ecircumflexacute" unicode="&#x1ebe;" horiz-adv-x="1153" 
d="M182 0v1384h846v-167h-661v-404h565v-168h-565v-477h661v-168h-846zM788 1503l-184 162l-185 -162h-149l229 279h211l228 -279h-150zM786 1733l123 274h235l-217 -274h-141z" />
    <glyph glyph-name="ecircumflexacute" unicode="&#x1ebf;" horiz-adv-x="1081" 
d="M295 504q0 -208 71 -296.5t228 -88.5q70 0 123 29.5t102 95.5l142 -88q-60 -90 -146 -138.5t-233 -48.5q-234 0 -349.5 136t-115.5 411q0 288 112.5 425.5t339.5 137.5q204 0 306 -117.5t102 -361.5v-96h-682zM809 639q-2 141 -59.5 219t-186.5 78q-123 0 -184.5 -70.5
t-81.5 -226.5h512zM758 1167l-184 162l-185 -162h-149l229 279h211l228 -279h-150zM756 1397l123 274h235l-217 -274h-141z" />
    <glyph glyph-name="Ecircumflexgrave" unicode="&#x1ec0;" horiz-adv-x="1153" 
d="M182 0v1384h846v-167h-661v-404h565v-168h-565v-477h661v-168h-846zM788 1503l-184 162l-185 -162h-149l229 279h211l228 -279h-150zM280 1733l-217 274h236l122 -274h-141z" />
    <glyph glyph-name="ecircumflexgrave" unicode="&#x1ec1;" horiz-adv-x="1081" 
d="M295 504q0 -208 71 -296.5t228 -88.5q70 0 123 29.5t102 95.5l142 -88q-60 -90 -146 -138.5t-233 -48.5q-234 0 -349.5 136t-115.5 411q0 288 112.5 425.5t339.5 137.5q204 0 306 -117.5t102 -361.5v-96h-682zM809 639q-2 141 -59.5 219t-186.5 78q-123 0 -184.5 -70.5
t-81.5 -226.5h512zM758 1167l-184 162l-185 -162h-149l229 279h211l228 -279h-150zM250 1397l-217 274h236l122 -274h-141z" />
    <glyph glyph-name="Ecircumflexhookabove" unicode="&#x1ec2;" horiz-adv-x="1153" 
d="M182 0v1384h846v-167h-661v-404h565v-168h-565v-477h661v-168h-846zM788 1503l-184 162l-185 -162h-149l229 279h211l228 -279h-150zM720 1954q23 20 70 36.5t107 16.5q90 0 138 -38t48 -99q0 -137 -148 -156v-37h-98v113h25q73 0 73 55q0 27 -15 41.5t-54 14.5
q-21 0 -49.5 -8.5t-50.5 -24.5z" />
    <glyph glyph-name="ecircumflexhookabove" unicode="&#x1ec3;" horiz-adv-x="1081" 
d="M295 504q0 -208 71 -296.5t228 -88.5q70 0 123 29.5t102 95.5l142 -88q-60 -90 -146 -138.5t-233 -48.5q-234 0 -349.5 136t-115.5 411q0 288 112.5 425.5t339.5 137.5q204 0 306 -117.5t102 -361.5v-96h-682zM809 639q-2 141 -59.5 219t-186.5 78q-123 0 -184.5 -70.5
t-81.5 -226.5h512zM756 1167l-184 162l-185 -162h-149l229 279h211l228 -279h-150zM688 1618q23 20 70 36.5t107 16.5q90 0 138 -38t48 -99q0 -137 -148 -156v-37h-98v113h25q73 0 73 55q0 27 -15 41.5t-54 14.5q-21 0 -49.5 -8.5t-50.5 -24.5z" />
    <glyph glyph-name="Ecircumflextilde" unicode="&#x1ec4;" horiz-adv-x="1153" 
d="M182 0v1384h846v-167h-661v-404h565v-168h-565v-477h661v-168h-846zM788 1503l-184 142l-185 -142h-149l229 258h211l228 -258h-150zM227 1823q6 104 67.5 162.5t161.5 58.5q47 0 87 -15.5t77 -35t71 -34.5t70 -15q88 0 97 88h121q-19 -222 -232 -222q-59 0 -98 16.5
t-71 36t-62.5 36t-71.5 16.5q-51 0 -71.5 -24.5t-24.5 -67.5h-121z" />
    <glyph glyph-name="ecircumflextilde" unicode="&#x1ec5;" horiz-adv-x="1081" 
d="M295 504q0 -208 71 -296.5t228 -88.5q70 0 123 29.5t102 95.5l142 -88q-60 -90 -146 -138.5t-233 -48.5q-234 0 -349.5 136t-115.5 411q0 288 112.5 425.5t339.5 137.5q204 0 306 -117.5t102 -361.5v-96h-682zM809 639q-2 141 -59.5 219t-186.5 78q-123 0 -184.5 -70.5
t-81.5 -226.5h512zM758 1167l-184 162l-185 -162h-149l229 279h211l228 -279h-150zM197 1507q6 105 67.5 163.5t161.5 58.5q47 0 87 -15.5t77 -35t71 -35t70 -15.5q88 0 97 88h121q-19 -221 -232 -221q-59 0 -98 16.5t-71 36t-62.5 35.5t-71.5 16q-51 0 -71.5 -24.5
t-24.5 -67.5h-121z" />
    <glyph glyph-name="Ecircumflexdotbelow" unicode="&#x1ec6;" horiz-adv-x="1153" 
d="M182 0v1384h846v-167h-661v-404h565v-168h-565v-477h661v-168h-846zM788 1544l-184 238l-185 -238h-149l229 361h211l228 -361h-150zM710 -258q0 -64 -26.5 -89.5t-89.5 -25.5q-70 0 -92.5 31t-22.5 84q0 59 24.5 87t90.5 28q65 0 90.5 -28t25.5 -87z" />
    <glyph glyph-name="ecircumflexdotbelow" unicode="&#x1ec7;" horiz-adv-x="1081" 
d="M295 504q0 -208 71 -296.5t228 -88.5q70 0 123 29.5t102 95.5l142 -88q-60 -90 -146 -138.5t-233 -48.5q-234 0 -349.5 136t-115.5 411q0 288 112.5 425.5t339.5 137.5q204 0 306 -117.5t102 -361.5v-96h-682zM809 639q-2 141 -59.5 219t-186.5 78q-123 0 -184.5 -70.5
t-81.5 -226.5h512zM758 1208l-184 238l-185 -238h-149l229 361h211l228 -361h-150zM690 -258q0 -64 -26.5 -89.5t-89.5 -25.5q-70 0 -92.5 31t-22.5 84q0 59 24.5 87t90.5 28q65 0 90.5 -28t25.5 -87z" />
    <glyph glyph-name="Ihookabove" unicode="&#x1ec8;" horiz-adv-x="770" 
d="M668 0h-566v160h191v1067h-191v157h566v-157h-191v-1067h191v-160zM206 1774q23 20 70 36.5t107 16.5q90 0 138 -38t48 -99q0 -138 -148 -156v-37h-98v113h25q73 0 73 55q0 27 -15 41t-54 14q-21 0 -49.5 -8t-50.5 -24z" />
    <glyph glyph-name="ihookabove" unicode="&#x1ec9;" horiz-adv-x="512" 
d="M170 0v1049h172v-1049h-172zM77 1438q23 20 70 36.5t107 16.5q90 0 138 -38t48 -99q0 -137 -148 -156v-37h-98v113h25q73 0 73 55q0 27 -15 41t-54 14q-21 0 -49.5 -8t-50.5 -24z" />
    <glyph glyph-name="Idotbelow" unicode="&#x1eca;" horiz-adv-x="770" 
d="M668 0h-566v160h191v1067h-191v157h566v-157h-191v-1067h191v-160zM503 -258q0 -64 -26.5 -89.5t-89.5 -25.5q-70 0 -92.5 31t-22.5 84q0 59 24.5 87t90.5 28q65 0 90.5 -28t25.5 -87z" />
    <glyph glyph-name="idotbelow" unicode="&#x1ecb;" horiz-adv-x="512" 
d="M369 1315q0 -60 -27 -81.5t-86 -21.5q-63 0 -87 27t-24 76q0 53 26 77.5t85 24.5q61 0 87 -23.5t26 -78.5zM170 0v1049h172v-1049h-172zM374 -258q0 -64 -26.5 -89.5t-89.5 -25.5q-70 0 -92.5 31t-22.5 84q0 59 24.5 87t90.5 28q65 0 90.5 -28t25.5 -87z" />
    <glyph glyph-name="Odotbelow" unicode="&#x1ecc;" horiz-adv-x="1364" 
d="M1245 692q0 -373 -140.5 -547t-422.5 -174q-286 0 -424.5 177t-138.5 544q0 364 137 542.5t426 178.5q285 0 424 -175t139 -546zM1051 692q0 287 -86.5 422t-282.5 135t-282.5 -135t-86.5 -422q0 -289 87.5 -423t281.5 -134q193 0 281 133t88 424zM796 -258
q0 -64 -26.5 -89.5t-89.5 -25.5q-70 0 -92.5 31t-22.5 84q0 59 24.5 87t90.5 28q65 0 90.5 -28t25.5 -87z" />
    <glyph glyph-name="odotbelow" unicode="&#x1ecd;" horiz-adv-x="1157" 
d="M1040 522q0 -273 -117.5 -413t-342.5 -140t-344 138.5t-119 414.5q0 281 119.5 419t343.5 138q226 0 343 -140.5t117 -416.5zM862 522q0 214 -70.5 311t-211.5 97q-145 0 -215 -97.5t-70 -310.5q0 -205 67.5 -304t217.5 -99q143 0 212.5 98t69.5 305zM694 -258
q0 -64 -26.5 -89.5t-89.5 -25.5q-70 0 -92.5 31t-22.5 84q0 59 24.5 87t90.5 28q65 0 90.5 -28t25.5 -87z" />
    <glyph glyph-name="Ohookabove" unicode="&#x1ece;" horiz-adv-x="1364" 
d="M1245 692q0 -373 -140.5 -547t-422.5 -174q-286 0 -424.5 177t-138.5 544q0 364 137 542.5t426 178.5q285 0 424 -175t139 -546zM1051 692q0 287 -86.5 422t-282.5 135t-282.5 -135t-86.5 -422q0 -289 87.5 -423t281.5 -134q193 0 281 133t88 424zM499 1774
q23 20 70 36.5t107 16.5q90 0 138 -38t48 -99q0 -138 -148 -156v-37h-98v113h25q73 0 73 55q0 27 -15 41t-54 14q-21 0 -49.5 -8t-50.5 -24z" />
    <glyph glyph-name="ohookabove" unicode="&#x1ecf;" horiz-adv-x="1157" 
d="M1040 522q0 -273 -117.5 -413t-342.5 -140t-344 138.5t-119 414.5q0 281 119.5 419t343.5 138q226 0 343 -140.5t117 -416.5zM862 522q0 214 -70.5 311t-211.5 97q-145 0 -215 -97.5t-70 -310.5q0 -205 67.5 -304t217.5 -99q143 0 212.5 98t69.5 305zM397 1438
q23 20 70 36.5t107 16.5q90 0 138 -38t48 -99q0 -137 -148 -156v-37h-98v113h25q73 0 73 55q0 27 -15 41t-54 14q-21 0 -49.5 -8t-50.5 -24z" />
    <glyph glyph-name="Ocircumflexacute" unicode="&#x1ed0;" horiz-adv-x="1364" 
d="M1245 692q0 -373 -140.5 -547t-422.5 -174q-286 0 -424.5 177t-138.5 544q0 364 137 542.5t426 178.5q285 0 424 -175t139 -546zM1051 692q0 287 -86.5 422t-282.5 135t-282.5 -135t-86.5 -422q0 -289 87.5 -423t281.5 -134q193 0 281 133t88 424zM860 1503l-184 162
l-185 -162h-149l229 279h211l228 -279h-150zM858 1733l123 274h235l-217 -274h-141z" />
    <glyph glyph-name="ocircumflexacute" unicode="&#x1ed1;" horiz-adv-x="1157" 
d="M1040 522q0 -273 -117.5 -413t-342.5 -140t-344 138.5t-119 414.5q0 281 119.5 419t343.5 138q226 0 343 -140.5t117 -416.5zM862 522q0 214 -70.5 311t-211.5 97q-145 0 -215 -97.5t-70 -310.5q0 -205 67.5 -304t217.5 -99q143 0 212.5 98t69.5 305zM758 1167l-184 162
l-185 -162h-149l229 279h211l228 -279h-150zM756 1397l123 274h235l-217 -274h-141z" />
    <glyph glyph-name="Ocircumflexgrave" unicode="&#x1ed2;" horiz-adv-x="1364" 
d="M1245 692q0 -373 -140.5 -547t-422.5 -174q-286 0 -424.5 177t-138.5 544q0 364 137 542.5t426 178.5q285 0 424 -175t139 -546zM1051 692q0 287 -86.5 422t-282.5 135t-282.5 -135t-86.5 -422q0 -289 87.5 -423t281.5 -134q193 0 281 133t88 424zM860 1503l-184 162
l-185 -162h-149l229 279h211l228 -279h-150zM352 1733l-217 274h236l122 -274h-141z" />
    <glyph glyph-name="ocircumflexgrave" unicode="&#x1ed3;" horiz-adv-x="1157" 
d="M1040 522q0 -273 -117.5 -413t-342.5 -140t-344 138.5t-119 414.5q0 281 119.5 419t343.5 138q226 0 343 -140.5t117 -416.5zM862 522q0 214 -70.5 311t-211.5 97q-145 0 -215 -97.5t-70 -310.5q0 -205 67.5 -304t217.5 -99q143 0 212.5 98t69.5 305zM758 1167l-184 162
l-185 -162h-149l229 279h211l228 -279h-150zM250 1397l-217 274h236l122 -274h-141z" />
    <glyph glyph-name="Ocircumflexhookabove" unicode="&#x1ed4;" horiz-adv-x="1364" 
d="M1245 692q0 -373 -140.5 -547t-422.5 -174q-286 0 -424.5 177t-138.5 544q0 364 137 542.5t426 178.5q285 0 424 -175t139 -546zM1051 692q0 287 -86.5 422t-282.5 135t-282.5 -135t-86.5 -422q0 -289 87.5 -423t281.5 -134q193 0 281 133t88 424zM860 1503l-184 162
l-185 -162h-149l229 279h211l228 -279h-150zM792 1954q23 20 70 36.5t107 16.5q90 0 138 -38t48 -99q0 -137 -148 -156v-37h-98v113h25q73 0 73 55q0 27 -15 41.5t-54 14.5q-21 0 -49.5 -8.5t-50.5 -24.5z" />
    <glyph glyph-name="ocircumflexhookabove" unicode="&#x1ed5;" horiz-adv-x="1157" 
d="M1040 522q0 -273 -117.5 -413t-342.5 -140t-344 138.5t-119 414.5q0 281 119.5 419t343.5 138q226 0 343 -140.5t117 -416.5zM862 522q0 214 -70.5 311t-211.5 97q-145 0 -215 -97.5t-70 -310.5q0 -205 67.5 -304t217.5 -99q143 0 212.5 98t69.5 305zM758 1167l-184 162
l-185 -162h-149l229 279h211l228 -279h-150zM690 1618q23 20 70 36.5t107 16.5q90 0 138 -38t48 -99q0 -137 -148 -156v-37h-98v113h25q73 0 73 55q0 27 -15 41.5t-54 14.5q-21 0 -49.5 -8.5t-50.5 -24.5z" />
    <glyph glyph-name="Ocircumflextilde" unicode="&#x1ed6;" horiz-adv-x="1364" 
d="M1245 692q0 -373 -140.5 -547t-422.5 -174q-286 0 -424.5 177t-138.5 544q0 364 137 542.5t426 178.5q285 0 424 -175t139 -546zM1051 692q0 287 -86.5 422t-282.5 135t-282.5 -135t-86.5 -422q0 -289 87.5 -423t281.5 -134q193 0 281 133t88 424zM860 1503l-184 142
l-185 -142h-149l229 258h211l228 -258h-150zM299 1823q6 104 67.5 162.5t161.5 58.5q47 0 87 -15.5t77 -35t71 -34.5t70 -15q88 0 97 88h121q-19 -222 -232 -222q-59 0 -98 16.5t-71 36t-62.5 36t-71.5 16.5q-51 0 -71.5 -24.5t-24.5 -67.5h-121z" />
    <glyph glyph-name="ocircumflextilde" unicode="&#x1ed7;" horiz-adv-x="1157" 
d="M1040 522q0 -273 -117.5 -413t-342.5 -140t-344 138.5t-119 414.5q0 281 119.5 419t343.5 138q226 0 343 -140.5t117 -416.5zM862 522q0 214 -70.5 311t-211.5 97q-145 0 -215 -97.5t-70 -310.5q0 -205 67.5 -304t217.5 -99q143 0 212.5 98t69.5 305zM758 1167l-184 162
l-185 -162h-149l229 279h211l228 -279h-150zM197 1507q6 105 67.5 163.5t161.5 58.5q47 0 87 -15.5t77 -35t71 -35t70 -15.5q88 0 97 88h121q-19 -221 -232 -221q-59 0 -98 16.5t-71 36t-62.5 35.5t-71.5 16q-51 0 -71.5 -24.5t-24.5 -67.5h-121z" />
    <glyph glyph-name="Ocircumflexdotbelow" unicode="&#x1ed8;" horiz-adv-x="1364" 
d="M1245 692q0 -373 -140.5 -547t-422.5 -174q-286 0 -424.5 177t-138.5 544q0 364 137 542.5t426 178.5q285 0 424 -175t139 -546zM1051 692q0 287 -86.5 422t-282.5 135t-282.5 -135t-86.5 -422q0 -289 87.5 -423t281.5 -134q193 0 281 133t88 424zM866 1544l-184 238
l-185 -238h-149l229 361h211l228 -361h-150zM796 -258q0 -64 -26.5 -89.5t-89.5 -25.5q-70 0 -92.5 31t-22.5 84q0 59 24.5 87t90.5 28q65 0 90.5 -28t25.5 -87z" />
    <glyph glyph-name="ocircumflexdotbelow" unicode="&#x1ed9;" horiz-adv-x="1157" 
d="M1040 522q0 -273 -117.5 -413t-342.5 -140t-344 138.5t-119 414.5q0 281 119.5 419t343.5 138q226 0 343 -140.5t117 -416.5zM862 522q0 214 -70.5 311t-211.5 97q-145 0 -215 -97.5t-70 -310.5q0 -205 67.5 -304t217.5 -99q143 0 212.5 98t69.5 305zM762 1208l-184 238
l-185 -238h-149l229 361h211l228 -361h-150zM694 -258q0 -64 -26.5 -89.5t-89.5 -25.5q-70 0 -92.5 31t-22.5 84q0 59 24.5 87t90.5 28q65 0 90.5 -28t25.5 -87z" />
    <glyph glyph-name="Ohornacute" unicode="&#x1eda;" horiz-adv-x="1487" 
d="M1520 1446v-182q0 -167 -71 -243.5t-212 -76.5h-12q20 -114 20 -252q0 -373 -140.5 -547t-422.5 -174q-286 0 -424.5 177t-138.5 544q0 364 137 542.5t426 178.5q207 0 329 -87t179 -247h37q71 0 102 41t31 144v182h160zM1051 692q0 287 -86.5 422t-282.5 135
t-282.5 -135t-86.5 -422q0 -289 87.5 -423t281.5 -134q193 0 281 133t88 424zM699 1544h-142l178 361h236z" />
    <glyph glyph-name="ohornacute" unicode="&#x1edb;" horiz-adv-x="1249" 
d="M1040 522q0 -273 -117.5 -413t-342.5 -140t-344 138.5t-119 414.5q0 281 119.5 419t343.5 138q317 0 417 -274q68 2 96.5 44t28.5 140v141h160v-141q0 -305 -252 -319q10 -87 10 -148zM862 522q0 214 -70.5 311t-211.5 97q-145 0 -215 -97.5t-70 -310.5q0 -205 67.5 -304
t217.5 -99q143 0 212.5 98t69.5 305zM602 1208h-142l178 361h236z" />
    <glyph glyph-name="Ohorngrave" unicode="&#x1edc;" horiz-adv-x="1487" 
d="M1520 1446v-182q0 -167 -71 -243.5t-212 -76.5h-12q20 -114 20 -252q0 -373 -140.5 -547t-422.5 -174q-286 0 -424.5 177t-138.5 544q0 364 137 542.5t426 178.5q207 0 329 -87t179 -247h37q71 0 102 41t31 144v182h160zM1051 692q0 287 -86.5 422t-282.5 135
t-282.5 -135t-86.5 -422q0 -289 87.5 -423t281.5 -134q193 0 281 133t88 424zM674 1544l-273 361h236l178 -361h-141z" />
    <glyph glyph-name="ohorngrave" unicode="&#x1edd;" horiz-adv-x="1249" 
d="M1040 522q0 -273 -117.5 -413t-342.5 -140t-344 138.5t-119 414.5q0 281 119.5 419t343.5 138q317 0 417 -274q68 2 96.5 44t28.5 140v141h160v-141q0 -305 -252 -319q10 -87 10 -148zM862 522q0 214 -70.5 311t-211.5 97q-145 0 -215 -97.5t-70 -310.5q0 -205 67.5 -304
t217.5 -99q143 0 212.5 98t69.5 305zM578 1208l-273 361h236l178 -361h-141z" />
    <glyph glyph-name="Ohornhookabove" unicode="&#x1ede;" horiz-adv-x="1487" 
d="M1520 1446v-182q0 -167 -71 -243.5t-212 -76.5h-12q20 -114 20 -252q0 -373 -140.5 -547t-422.5 -174q-286 0 -424.5 177t-138.5 544q0 364 137 542.5t426 178.5q207 0 329 -87t179 -247h37q71 0 102 41t31 144v182h160zM1051 692q0 287 -86.5 422t-282.5 135
t-282.5 -135t-86.5 -422q0 -289 87.5 -423t281.5 -134q193 0 281 133t88 424zM516 1774q23 20 70 36.5t107 16.5q90 0 138 -38t48 -99q0 -138 -148 -156v-37h-98v113h25q73 0 73 55q0 27 -15 41t-54 14q-21 0 -49.5 -8t-50.5 -24z" />
    <glyph glyph-name="ohornhookabove" unicode="&#x1edf;" horiz-adv-x="1249" 
d="M1040 522q0 -273 -117.5 -413t-342.5 -140t-344 138.5t-119 414.5q0 281 119.5 419t343.5 138q317 0 417 -274q68 2 96.5 44t28.5 140v141h160v-141q0 -305 -252 -319q10 -87 10 -148zM862 522q0 214 -70.5 311t-211.5 97q-145 0 -215 -97.5t-70 -310.5q0 -205 67.5 -304
t217.5 -99q143 0 212.5 98t69.5 305zM413 1438q23 20 70 36.5t107 16.5q90 0 138 -38t48 -99q0 -137 -148 -156v-37h-98v113h25q73 0 73 55q0 27 -15 41t-54 14q-21 0 -49.5 -8t-50.5 -24z" />
    <glyph glyph-name="Ohorntilde" unicode="&#x1ee0;" horiz-adv-x="1487" 
d="M1520 1446v-182q0 -167 -71 -243.5t-212 -76.5h-12q20 -114 20 -252q0 -373 -140.5 -547t-422.5 -174q-286 0 -424.5 177t-138.5 544q0 364 137 542.5t426 178.5q207 0 329 -87t179 -247h37q71 0 102 41t31 144v182h160zM1051 692q0 287 -86.5 422t-282.5 135
t-282.5 -135t-86.5 -422q0 -289 87.5 -423t281.5 -134q193 0 281 133t88 424zM305 1556q6 125 67.5 194t161.5 69q56 0 96.5 -22.5t75.5 -48.5t66 -48.5t67 -22.5q88 0 97 129h121q-19 -262 -232 -262q-65 0 -105 22.5t-71 50.5t-58.5 50.5t-68.5 22.5q-51 0 -71.5 -36
t-24.5 -98h-121z" />
    <glyph glyph-name="ohorntilde" unicode="&#x1ee1;" horiz-adv-x="1249" 
d="M1040 522q0 -273 -117.5 -413t-342.5 -140t-344 138.5t-119 414.5q0 281 119.5 419t343.5 138q317 0 417 -274q68 2 96.5 44t28.5 140v141h160v-141q0 -305 -252 -319q10 -87 10 -148zM862 522q0 214 -70.5 311t-211.5 97q-145 0 -215 -97.5t-70 -310.5q0 -205 67.5 -304
t217.5 -99q143 0 212.5 98t69.5 305zM197 1221q6 125 67.5 193.5t161.5 68.5q56 0 96.5 -22.5t75.5 -48.5t66 -48.5t67 -22.5q88 0 97 129h121q-19 -262 -232 -262q-65 0 -105 22.5t-71 50.5t-58.5 50.5t-68.5 22.5q-51 0 -71.5 -36t-24.5 -97h-121z" />
    <glyph glyph-name="Ohorndotbelow" unicode="&#x1ee2;" horiz-adv-x="1487" 
d="M1520 1446v-182q0 -167 -71 -243.5t-212 -76.5h-12q20 -114 20 -252q0 -373 -140.5 -547t-422.5 -174q-286 0 -424.5 177t-138.5 544q0 364 137 542.5t426 178.5q207 0 329 -87t179 -247h37q71 0 102 41t31 144v182h160zM1051 692q0 287 -86.5 422t-282.5 135
t-282.5 -135t-86.5 -422q0 -289 87.5 -423t281.5 -134q193 0 281 133t88 424zM796 -258q0 -64 -26.5 -89.5t-89.5 -25.5q-70 0 -92.5 31t-22.5 84q0 59 24.5 87t90.5 28q65 0 90.5 -28t25.5 -87z" />
    <glyph glyph-name="ohorndotbelow" unicode="&#x1ee3;" horiz-adv-x="1249" 
d="M1040 522q0 -273 -117.5 -413t-342.5 -140t-344 138.5t-119 414.5q0 281 119.5 419t343.5 138q317 0 417 -274q68 2 96.5 44t28.5 140v141h160v-141q0 -305 -252 -319q10 -87 10 -148zM862 522q0 214 -70.5 311t-211.5 97q-145 0 -215 -97.5t-70 -310.5q0 -205 67.5 -304
t217.5 -99q143 0 212.5 98t69.5 305zM690 -258q0 -64 -26.5 -89.5t-89.5 -25.5q-70 0 -92.5 31t-22.5 84q0 59 24.5 87t90.5 28q65 0 90.5 -28t25.5 -87z" />
    <glyph glyph-name="Udotbelow" unicode="&#x1ee4;" horiz-adv-x="1405" 
d="M1223 578q0 -227 -51 -358t-160.5 -191t-306.5 -60q-196 0 -309 61t-163.5 193t-50.5 355v806h185v-786q0 -182 33 -280.5t104.5 -141.5t197.5 -43q127 0 199 42.5t104.5 135.5t32.5 283v790h185v-806zM817 -258q0 -64 -26.5 -89.5t-89.5 -25.5q-70 0 -92.5 31t-22.5 84
q0 59 24.5 87t90.5 28q65 0 90.5 -28t25.5 -87z" />
    <glyph glyph-name="udotbelow" unicode="&#x1ee5;" horiz-adv-x="1163" 
d="M821 0v156q-80 -80 -176 -133.5t-188 -53.5q-105 0 -170.5 39.5t-95 119t-29.5 220.5v701h172v-619q0 -150 15.5 -200t49.5 -72.5t99 -22.5t153 50.5t170 121.5v742h172v-1049h-172zM663 -258q0 -64 -26.5 -89.5t-89.5 -25.5q-70 0 -92.5 31t-22.5 84q0 59 24.5 87
t90.5 28q65 0 90.5 -28t25.5 -87z" />
    <glyph glyph-name="Uhookabove" unicode="&#x1ee6;" horiz-adv-x="1405" 
d="M1223 578q0 -227 -51 -358t-160.5 -191t-306.5 -60q-196 0 -309 61t-163.5 193t-50.5 355v806h185v-786q0 -182 33 -280.5t104.5 -141.5t197.5 -43q127 0 199 42.5t104.5 135.5t32.5 283v790h185v-806zM520 1774q23 20 70 36.5t107 16.5q90 0 138 -38t48 -99
q0 -138 -148 -156v-37h-98v113h25q73 0 73 55q0 27 -15 41t-54 14q-21 0 -49.5 -8t-50.5 -24z" />
    <glyph glyph-name="uhookabove" unicode="&#x1ee7;" horiz-adv-x="1163" 
d="M821 0v156q-80 -80 -176 -133.5t-188 -53.5q-105 0 -170.5 39.5t-95 119t-29.5 220.5v701h172v-619q0 -150 15.5 -200t49.5 -72.5t99 -22.5t153 50.5t170 121.5v742h172v-1049h-172zM391 1438q23 20 70 36.5t107 16.5q90 0 138 -38t48 -99q0 -137 -148 -156v-37h-98v113
h25q73 0 73 55q0 27 -15 41t-54 14q-21 0 -49.5 -8t-50.5 -24z" />
    <glyph glyph-name="Uhornacute" unicode="&#x1ee8;" horiz-adv-x="1524" 
d="M1223 1079h41q71 0 102 41t31 144v182h159v-182q0 -170 -71.5 -245t-210.5 -75h-51v-366q0 -227 -51 -358t-160.5 -191t-306.5 -60q-196 0 -309 61t-163.5 193t-50.5 355v806h185v-786q0 -182 33 -280.5t104.5 -141.5t197.5 -43q127 0 199 42.5t104.5 135.5t32.5 283v790
h185v-305zM725 1544h-142l178 361h236z" />
    <glyph glyph-name="uhornacute" unicode="&#x1ee9;" horiz-adv-x="1286" 
d="M821 0v156q-80 -80 -176 -133.5t-188 -53.5q-105 0 -170.5 39.5t-95 119t-29.5 220.5v701h172v-619q0 -150 15.5 -200t49.5 -72.5t99 -22.5t153 50.5t170 121.5v742h172v-244h33q72 0 102.5 41t30.5 143v141h160v-141q0 -166 -69.5 -242.5t-213.5 -76.5h-43v-670h-172z
M615 1208h-142l178 361h236z" />
    <glyph glyph-name="Uhorngrave" unicode="&#x1eea;" horiz-adv-x="1524" 
d="M1223 1079h41q71 0 102 41t31 144v182h159v-182q0 -170 -71.5 -245t-210.5 -75h-51v-366q0 -227 -51 -358t-160.5 -191t-306.5 -60q-196 0 -309 61t-163.5 193t-50.5 355v806h185v-786q0 -182 33 -280.5t104.5 -141.5t197.5 -43q127 0 199 42.5t104.5 135.5t32.5 283v790
h185v-305zM674 1544l-273 361h236l178 -361h-141z" />
    <glyph glyph-name="uhorngrave" unicode="&#x1eeb;" horiz-adv-x="1286" 
d="M821 0v156q-80 -80 -176 -133.5t-188 -53.5q-105 0 -170.5 39.5t-95 119t-29.5 220.5v701h172v-619q0 -150 15.5 -200t49.5 -72.5t99 -22.5t153 50.5t170 121.5v742h172v-244h33q72 0 102.5 41t30.5 143v141h160v-141q0 -166 -69.5 -242.5t-213.5 -76.5h-43v-670h-172z
M555 1208l-273 361h236l178 -361h-141z" />
    <glyph glyph-name="Uhornhookabove" unicode="&#x1eec;" horiz-adv-x="1524" 
d="M1223 1079h41q71 0 102 41t31 144v182h159v-182q0 -170 -71.5 -245t-210.5 -75h-51v-366q0 -227 -51 -358t-160.5 -191t-306.5 -60q-196 0 -309 61t-163.5 193t-50.5 355v806h185v-786q0 -182 33 -280.5t104.5 -141.5t197.5 -43q127 0 199 42.5t104.5 135.5t32.5 283v790
h185v-305zM518 1774q23 20 70 36.5t107 16.5q90 0 138 -38t48 -99q0 -138 -148 -156v-37h-98v113h25q73 0 73 55q0 27 -15 41t-54 14q-21 0 -49.5 -8t-50.5 -24z" />
    </font>
</defs>
</svg>
