<?xml version="1.0" standalone="no"?>
<!DOCTYPE svg PUBLIC "-//W3C//DTD SVG 1.1//EN" "http://www.w3.org/Graphics/SVG/1.1/DTD/svg11.dtd" >
<svg version="1.1" xmlns="http://www.w3.org/2000/svg">
<metadata>
Created by FontForge 20120731 at Fri Aug  1 16:50:18 2014

Font software Copyright (c) 2012 Intel Corporation. Licensed under the Apache License, Version 2.0.  http://www.apache.org/licenses/LICENSE-2.0
</metadata>
<defs>
<font id="clearsans" horiz-adv-x="1063" >
  <font-face 
    font-family="Clear Sans"
    font-weight="400"
    font-style="italic"
    font-stretch="normal"
    units-per-em="2048"
    panose-1="2 11 5 3 3 2 2 9 3 4"
    ascent="1489"
    descent="-559"
    x-height="1049"
    cap-height="1384"
    bbox="-461 -629 2607 2114"
    underline-thickness="102"
    underline-position="-103"
    slope="-12"
    unicode-range="U+000D-FEFF"
  />
<missing-glyph horiz-adv-x="1024" 
d="M57 1362h973v-1362h-973v1362zM545 768l329 498h-661zM156 186l14 21l37 55.5t52.5 79t60.5 91.5q72 109 165 249l-329 496v-992zM602 682l332 -498v994zM545 594l-332 -496h661z" />
    <glyph glyph-name="f_f" unicode="ff" horiz-adv-x="1241" 
d="M844 1329q-26 17 -61.5 29t-77.5 12t-75.5 -10.5t-58.5 -33.5t-43 -61.5t-30 -93.5l-27 -122h229l-28 -144h-230l-192 -905h-168l192 905h-149l29 144h149l23 102q21 97 50.5 166.5t74.5 114.5t109.5 66.5t156.5 21.5q52 0 100 -13t88 -34zM1465 1329q-26 17 -61.5 29
t-77.5 12t-75.5 -10.5t-58.5 -33.5t-43 -61.5t-30 -93.5l-27 -122h229l-28 -144h-230l-192 -905h-168l192 905h-149l29 144h149l23 102q21 97 50.5 166.5t74.5 114.5t109.5 66.5t156.5 21.5q52 0 100 -13t88 -34z" />
    <glyph glyph-name="fi" unicode="fi" horiz-adv-x="1120" 
d="M844 1329q-26 17 -61.5 29t-77.5 12t-75.5 -10.5t-58.5 -33.5t-43 -61.5t-30 -93.5l-27 -122h229l-28 -144h-230l-192 -905h-168l192 905h-149l29 144h149l23 102q21 97 50.5 166.5t74.5 114.5t109.5 66.5t156.5 21.5q52 0 100 -13t88 -34zM673 0l221 1049h170
l-221 -1049h-170zM915 1278q0 71 32 105t101 34q50 0 71 -19t21 -48q0 -62 -29.5 -100t-99.5 -38q-29 0 -48 5t-29.5 13.5t-14.5 20.5t-4 27z" />
    <glyph glyph-name="fl" unicode="fl" horiz-adv-x="1137" 
d="M844 1329q-26 17 -61.5 29t-77.5 12t-75.5 -10.5t-58.5 -33.5t-43 -61.5t-30 -93.5l-27 -122h229l-28 -144h-230l-192 -905h-168l192 905h-149l29 144h149l23 102q21 97 50.5 166.5t74.5 114.5t109.5 66.5t156.5 21.5q52 0 100 -13t88 -34zM681 0l316 1489h170
l-316 -1489h-170z" />
    <glyph glyph-name="f_f_i" unicode="ffi" horiz-adv-x="1741" 
d="M844 1329q-26 17 -61.5 29t-77.5 12t-75.5 -10.5t-58.5 -33.5t-43 -61.5t-30 -93.5l-27 -122h229l-28 -144h-230l-192 -905h-168l192 905h-149l29 144h149l23 102q21 97 50.5 166.5t74.5 114.5t109.5 66.5t156.5 21.5q52 0 100 -13t88 -34zM1462 1329q-26 17 -61.5 29
t-77.5 12t-75.5 -10.5t-58.5 -33.5t-43 -61.5t-30 -93.5l-27 -122h229l-28 -144h-230l-192 -905h-168l192 905h-149l29 144h149l23 102q21 97 50.5 166.5t74.5 114.5t109.5 66.5t156.5 21.5q52 0 100 -13t88 -34zM1294 0l221 1049h170l-221 -1049h-170zM1536 1278
q0 71 32 105t101 34q50 0 71 -19t21 -48q0 -62 -29.5 -100t-99.5 -38q-29 0 -48 5t-29.5 13.5t-14.5 20.5t-4 27z" />
    <glyph glyph-name="f_f_l" unicode="ffl" horiz-adv-x="1757" 
d="M844 1329q-26 17 -61.5 29t-77.5 12t-75.5 -10.5t-58.5 -33.5t-43 -61.5t-30 -93.5l-27 -122h229l-28 -144h-230l-192 -905h-168l192 905h-149l29 144h149l23 102q21 97 50.5 166.5t74.5 114.5t109.5 66.5t156.5 21.5q52 0 100 -13t88 -34zM1462 1329q-26 17 -61.5 29
t-77.5 12t-75.5 -10.5t-58.5 -33.5t-43 -61.5t-30 -93.5l-27 -122h229l-28 -144h-230l-192 -905h-168l192 905h-149l29 144h149l23 102q21 97 50.5 166.5t74.5 114.5t109.5 66.5t156.5 21.5q52 0 100 -13t88 -34zM1302 0l316 1489h170l-316 -1489h-170z" />
    <glyph glyph-name=".notdef" horiz-adv-x="1024" 
d="M57 1362h973v-1362h-973v1362zM545 768l329 498h-661zM156 186l14 21l37 55.5t52.5 79t60.5 91.5q72 109 165 249l-329 496v-992zM602 682l332 -498v994zM545 594l-332 -496h661z" />
    <glyph glyph-name=".null" horiz-adv-x="0" 
 />
    <glyph glyph-name="nonmarkingreturn" unicode="&#xd;" horiz-adv-x="543" 
 />
    <glyph glyph-name="NULL" horiz-adv-x="0" 
 />
    <glyph glyph-name="NULL" horiz-adv-x="0" 
 />
    <glyph glyph-name="space" unicode=" " horiz-adv-x="543" 
 />
    <glyph glyph-name="exclam" unicode="!" horiz-adv-x="545" 
d="M319 399h-143l180 985h195zM305 137q0 -25 -7 -50.5t-15 -39.5q-19 -34 -50 -47.5t-77 -13.5q-56 0 -78.5 18.5t-22.5 52.5q0 20 5.5 40.5t13.5 41.5q15 38 45.5 55t83.5 17q54 0 78 -18t24 -56z" />
    <glyph glyph-name="quotedbl" unicode="&#x22;" horiz-adv-x="905" 
d="M758 834h-125l78 550h204zM399 834h-125l76 550h205z" />
    <glyph glyph-name="numbersign" unicode="#" horiz-adv-x="1346" 
d="M1020 868l-86 -352h258l-29 -123h-262l-98 -393h-119l94 393h-286l-97 -393h-121l97 393h-252l31 123h251l91 352h-265l31 125h264l96 391h121l-98 -391h289l98 391h121l-98 -391h252l-31 -125h-252zM612 868l-90 -352h289l90 352h-289z" />
    <glyph glyph-name="dollar" unicode="$" horiz-adv-x="1239" 
d="M842 1300q112 -17 192 -78.5t115 -148.5l-141 -86q-31 68 -81 111t-116 55l-84 -379q76 -27 132 -58.5t92.5 -70.5t54.5 -86t18 -104q0 -164 -114 -263t-330 -116l-41 -207h-125l45 209q-69 6 -123 25.5t-94 49.5t-67.5 69.5t-43.5 86.5l150 84q7 -28 22.5 -55
t40.5 -49.5t60 -39t83 -22.5l91 422q-78 27 -132 58.5t-87.5 69t-48.5 81t-15 94.5q0 64 21 125.5t70.5 110t130.5 80t200 37.5l20 106h127zM854 430q0 33 -7.5 59.5t-26 48.5t-49.5 40t-77 34l-82 -387q65 5 111 21t75 42t42.5 61.5t13.5 80.5zM465 975q0 -31 5.5 -54
t21 -42t44.5 -35.5t76 -34.5l74 348q-63 -5 -105.5 -21.5t-68 -41t-36.5 -55.5t-11 -64z" />
    <glyph glyph-name="percent" unicode="%" horiz-adv-x="2048" 
d="M426 -55l1079 1489h162l-1079 -1489h-162zM475 520q-78 0 -134.5 21t-92.5 57.5t-53 87.5t-17 111q0 36 4.5 77.5t13 85.5t21.5 89t31 88q54 130 148 198t241 68q151 0 226 -75t75 -208q0 -47 -8.5 -104t-24 -115t-37 -112t-47.5 -95q-60 -93 -146.5 -133.5t-199.5 -40.5
zM492 653q78 0 124.5 37t77.5 105q14 31 26.5 69.5t22.5 81t15.5 87t5.5 87.5q0 35 -7 63t-23.5 47.5t-43.5 29.5t-67 10q-78 0 -127.5 -43.5t-81.5 -124.5q-14 -34 -25.5 -72.5t-19.5 -78.5t-12.5 -79t-4.5 -73q0 -71 31.5 -108.5t108.5 -37.5zM1462 -31q-78 0 -134.5 21
t-92.5 57.5t-53 87.5t-17 111q0 36 4.5 77.5t13 85.5t21.5 89t31 88q54 130 148.5 198t240.5 68q151 0 226 -74.5t75 -208.5q0 -47 -8.5 -104t-24 -115t-37 -112t-47.5 -95q-60 -93 -146.5 -133.5t-199.5 -40.5zM1479 102q78 0 124.5 37t77.5 105q14 31 26.5 69.5t22.5 81
t15.5 87t5.5 87.5q0 71 -31 110.5t-110 39.5q-78 0 -127.5 -43.5t-81.5 -124.5q-14 -34 -25.5 -72.5t-19.5 -78.5t-12.5 -79t-4.5 -73q0 -71 31.5 -108.5t108.5 -37.5z" />
    <glyph glyph-name="ampersand" unicode="&#x26;" horiz-adv-x="1298" 
d="M86 303q0 84 28 150.5t79 122.5t123.5 105.5t162.5 100.5q-26 48 -43 85.5t-27 72.5t-14 70t-4 77q0 59 24 117t70.5 104t115 74.5t157.5 28.5q148 0 227.5 -62.5t79.5 -193.5q0 -53 -17.5 -101t-59.5 -97.5t-111 -103t-172 -116.5l202 -364q50 60 92 130.5t84 151.5
l146 -67q-48 -103 -108.5 -198t-129.5 -169l127 -221h-196l-62 104q-87 -65 -185 -99t-216 -34q-188 0 -280.5 87t-92.5 245zM463 129q178 0 317 115l-227 407q-89 -54 -145.5 -96t-88.5 -80t-43.5 -75t-11.5 -81q0 -86 51 -138t148 -52zM559 1083q0 -75 43 -157l29 -56
q77 45 128 82t81 69t42.5 62.5t12.5 63.5q0 62 -34.5 92.5t-112.5 30.5q-48 0 -83.5 -16t-59 -42.5t-35 -60t-11.5 -68.5z" />
    <glyph glyph-name="quotesingle" unicode="'" horiz-adv-x="547" 
d="M399 834h-125l76 550h205z" />
    <glyph glyph-name="parenleft" unicode="(" horiz-adv-x="780" 
d="M315 -395q-48 76 -84.5 152.5t-61 159.5t-36.5 175.5t-12 200.5q0 165 42.5 332.5t121 326t189.5 303.5t247 265h190q-146 -122 -262 -270t-197 -307.5t-124 -325t-43 -322.5q0 -202 54.5 -376.5t158.5 -313.5h-183z" />
    <glyph glyph-name="parenright" unicode=")" horiz-adv-x="780" 
d="M481 1520q48 -76 84.5 -153t61 -160t37 -175.5t12.5 -200.5q0 -165 -43 -332.5t-121.5 -326t-189 -303t-246.5 -264.5h-191q146 122 262 269.5t197 307t124.5 325t43.5 322.5q0 203 -55 377t-158 314h182z" />
    <glyph glyph-name="asterisk" unicode="*" horiz-adv-x="930" 
d="M854 905l-231 158l-56 -268h-110l61 274l-270 -156l-49 105l295 145l-242 154l74 92l229 -158l55 269h111l-62 -269l267 144l53 -99l-301 -145l248 -156z" />
    <glyph glyph-name="plus" unicode="+" horiz-adv-x="1427" 
d="M805 514v-477h-143v477h-478v143h478v480h143v-480h479v-143h-479z" />
    <glyph glyph-name="comma" unicode="," horiz-adv-x="545" 
d="M4 -293q29 29 53 68t42 79t29.5 75t16.5 57q-46 0 -67 17t-21 54q0 38 17 78q15 37 42.5 56.5t78.5 19.5q58 0 83 -21.5t25 -64.5q0 -21 -6 -49t-15.5 -58.5t-21.5 -61t-24 -56.5q-31 -65 -65 -115t-65 -78h-102z" />
    <glyph glyph-name="hyphen" unicode="-" horiz-adv-x="811" 
d="M82 440l37 172h610l-37 -172h-610z" />
    <glyph glyph-name="period" unicode="." horiz-adv-x="545" 
d="M305 139q0 -23 -5 -46.5t-17 -45.5q-19 -34 -50 -47.5t-77 -13.5q-56 0 -78.5 18.5t-22.5 52.5q0 20 5.5 43t15.5 43q15 35 45.5 51.5t81.5 16.5q54 0 78 -17.5t24 -54.5z" />
    <glyph glyph-name="slash" unicode="/" horiz-adv-x="971" 
d="M2 -299h-166l1077 1819h170z" />
    <glyph glyph-name="zero" unicode="0" horiz-adv-x="1239" 
d="M1190 975q0 -65 -10 -143t-27 -159t-41.5 -160.5t-52.5 -147.5q-46 -113 -103 -189t-126.5 -122t-151.5 -65.5t-178 -19.5q-197 0 -289 111.5t-92 325.5q0 59 8.5 128t23 141.5t34.5 145t44 137.5q42 114 95 198.5t122 140t158 83t203 27.5q91 0 162 -26.5t120 -80
t75 -134.5t26 -191zM889 440q20 48 39 113.5t34 137t24 144t9 134.5q0 75 -13 128t-40.5 86t-70 48.5t-101.5 15.5q-65 0 -118 -20t-96.5 -60.5t-78.5 -102t-65 -144.5q-20 -53 -37.5 -119t-31.5 -134.5t-22 -135.5t-8 -123q0 -147 48 -213t147 -66q68 0 123 17.5t101 55
t84 96.5t73 142z" />
    <glyph glyph-name="one" unicode="1" horiz-adv-x="1239" 
d="M494 0l208 989h-329l28 129q99 6 166 21t115 45.5t83 79t69 120.5h129l-293 -1384h-176z" />
    <glyph glyph-name="two" unicode="2" horiz-adv-x="1163" 
d="M27 0l41 195q57 42 119.5 88t125.5 94t125 97t119 96t106.5 91.5t88.5 83.5q39 42 70.5 80.5t54 78t35 81t12.5 88.5q0 82 -47.5 129t-157.5 47q-91 0 -168 -41.5t-150 -128.5l-127 111q44 52 92.5 93.5t105.5 70t125 44t151 15.5q181 0 276.5 -84t95.5 -256
q0 -56 -17 -112.5t-48.5 -111.5t-75.5 -108.5t-98 -103.5q-36 -34 -71 -64t-73 -61.5t-82 -65.5t-99.5 -74.5t-124 -90.5t-155.5 -113h695l-35 -168h-909z" />
    <glyph glyph-name="three" unicode="3" horiz-adv-x="1163" 
d="M463 815h84q82 0 148.5 21t113.5 57t72.5 84t25.5 102q0 92 -55.5 132t-149.5 40q-99 0 -174.5 -39t-140.5 -114l-131 98q35 45 80 85t102 69t126 46t153 17q97 0 169 -23t119 -65t70 -100.5t23 -128.5q0 -62 -20 -117t-62 -101t-107 -81.5t-155 -57.5q49 -7 93 -30
t77 -61t52 -90t19 -116q0 -84 -35.5 -168.5t-107 -151.5t-179.5 -109t-253 -42q-150 0 -249 53.5t-144 149.5l161 98q12 -28 34.5 -53.5t54 -44.5t71.5 -30t86 -11q102 0 171.5 29.5t112 76t61 103t18.5 109.5q0 55 -18 94t-52 63.5t-83.5 35.5t-113.5 11h-100z" />
    <glyph glyph-name="four" unicode="4" horiz-adv-x="1239" 
d="M891 307l-64 -307h-176l64 307h-699l39 178l897 899h168l-194 -917h186l-35 -160h-186zM887 1110l-645 -643h508z" />
    <glyph glyph-name="five" unicode="5" horiz-adv-x="1163" 
d="M1020 526q0 -114 -44 -219.5t-124 -185.5q-77 -78 -187 -114t-247 -36q-78 0 -142 16t-112 44t-80 64.5t-47 78.5l153 98q11 -27 34 -52.5t56 -44.5t75 -30.5t91 -11.5q42 0 82.5 8t77.5 22t68.5 34.5t54.5 46.5q22 24 40 55.5t30.5 66t19 69.5t6.5 67q0 104 -53.5 157.5
t-179.5 53.5q-85 0 -156 -19t-133 -53h-88l231 743h711l-35 -167h-561l-127 -396q48 22 111 34.5t129 12.5q74 0 137.5 -17.5t110 -58t72.5 -106t26 -160.5z" />
    <glyph glyph-name="six" unicode="6" horiz-adv-x="1163" 
d="M510 -29q-200 0 -293.5 104t-93.5 314q0 121 26 245t68 245q42 125 98.5 224t130.5 168t167.5 105.5t207.5 36.5q69 0 122 -9.5t94.5 -27t74 -43.5t59.5 -59l-129 -131q-46 57 -97.5 83.5t-127.5 26.5q-86 0 -154 -37t-121.5 -101t-93 -150.5t-67.5 -184.5
q74 56 158 81.5t161 25.5q187 0 275 -85.5t88 -248.5q0 -65 -13.5 -134t-41.5 -133.5t-72 -122t-105.5 -100t-141 -67.5t-179.5 -25zM526 131q88 0 153 35.5t108 92.5t64 129.5t21 146.5q0 49 -14.5 85t-41 59t-63 34.5t-81.5 11.5q-47 0 -92.5 -7.5t-87 -20t-78.5 -28.5
t-66 -32q-15 -74 -24 -137.5t-9 -114.5q0 -74 13.5 -123t40 -78t66 -41t91.5 -12z" />
    <glyph glyph-name="seven" unicode="7" horiz-adv-x="1239" 
d="M475 0h-221l780 1217h-749l34 167h947l-37 -172z" />
    <glyph glyph-name="eight" unicode="8" horiz-adv-x="1163" 
d="M801 733q57 -29 100 -61.5t72 -70.5t44 -83.5t15 -101.5q0 -95 -39.5 -176t-112 -141t-174.5 -94t-227 -34q-209 0 -313.5 77t-104.5 243q0 73 28 140t79.5 124t123.5 103.5t161 80.5q-101 54 -153 119.5t-52 163.5q0 84 32.5 156t96.5 124t158.5 81.5t218.5 29.5
q199 0 298 -76.5t99 -228.5q0 -62 -25.5 -115.5t-71.5 -100.5t-110.5 -86.5t-142.5 -72.5zM645 811q48 18 104 42.5t104.5 57.5t81 76t32.5 100q0 96 -58 137.5t-182 41.5q-72 0 -127 -18.5t-92.5 -49t-56.5 -70t-19 -81.5q0 -35 10 -64t34.5 -56.5t65.5 -55.5t103 -60z
M612 659q-82 -30 -149.5 -65t-115.5 -78.5t-74.5 -96.5t-26.5 -120q0 -82 60.5 -130t191.5 -48q60 0 122.5 17.5t113 52.5t82.5 89t32 126q0 46 -19 82t-51.5 66t-75 55.5t-90.5 49.5z" />
    <glyph glyph-name="nine" unicode="9" horiz-adv-x="1163" 
d="M733 1413q199 0 293 -103.5t94 -314.5q0 -120 -27 -244t-67 -245q-42 -125 -99 -224.5t-131 -168.5t-167 -105.5t-207 -36.5q-68 0 -121 9.5t-95 27.5t-74.5 44t-59.5 59l129 131q46 -57 98 -84t127 -27q86 0 154 37t121.5 101t92.5 150.5t68 184.5q-74 -56 -158 -81
t-161 -25q-188 0 -275.5 85t-87.5 248q0 66 13.5 134.5t41.5 133t72 122t105.5 100t141 67.5t179.5 25zM717 1253q-88 0 -153 -35.5t-108 -92.5t-64 -129t-21 -146q0 -49 14.5 -85t41 -59.5t63.5 -35t81 -11.5q47 0 92.5 8t87 20.5t78.5 28.5t66 32q15 74 24 137t9 114
q0 74 -13.5 123t-40 78t-66 41t-91.5 12z" />
    <glyph glyph-name="colon" unicode=":" horiz-adv-x="545" 
d="M305 139q0 -23 -5 -46.5t-17 -45.5q-19 -34 -50 -47.5t-77 -13.5q-56 0 -78.5 18.5t-22.5 52.5q0 20 5.5 43t15.5 43q15 35 45.5 51.5t81.5 16.5q54 0 78 -17.5t24 -54.5zM483 977q0 -23 -5 -47t-17 -45q-19 -34 -50 -48t-77 -14q-56 0 -78.5 19t-22.5 53q0 20 6 43
t15 43q15 35 45.5 51.5t81.5 16.5q54 0 78 -17.5t24 -54.5z" />
    <glyph glyph-name="semicolon" unicode=";" horiz-adv-x="545" 
d="M483 977q0 -23 -5 -47t-17 -45q-19 -34 -50 -48t-77 -14q-56 0 -78.5 19t-22.5 53q0 20 6 43t15 43q15 35 45.5 51.5t81.5 16.5q54 0 78 -17.5t24 -54.5zM4 -293q29 29 53 68t42 79t29.5 75t16.5 57q-46 0 -67 17t-21 54q0 38 17 78q15 37 42.5 56.5t78.5 19.5
q58 0 83 -21.5t25 -64.5q0 -21 -6 -49t-15.5 -58.5t-21.5 -61t-24 -56.5q-31 -65 -65 -115t-65 -78h-102z" />
    <glyph glyph-name="less" unicode="&#x3c;" horiz-adv-x="1427" 
d="M184 524v125l1100 463v-156l-901 -370l901 -369v-156z" />
    <glyph glyph-name="equal" unicode="=" horiz-adv-x="1427" 
d="M193 745v144h1099v-144h-1099zM193 283v143h1099v-143h-1099z" />
    <glyph glyph-name="greater" unicode="&#x3e;" horiz-adv-x="1427" 
d="M195 61v156l899 369l-899 370v156l1099 -463v-125z" />
    <glyph glyph-name="question" unicode="?" horiz-adv-x="1028" 
d="M317 369l62 284q111 55 198 102.5t147 98t91 109t31 133.5t-54 114t-159 39q-52 0 -95.5 -11t-79.5 -29.5t-64.5 -44.5t-51.5 -56l-131 104q33 45 76 82t96.5 63.5t118 41t141.5 14.5q93 0 167 -19t125.5 -57.5t79 -95.5t27.5 -133q0 -89 -34.5 -162.5t-100.5 -138
t-161 -123.5t-216 -117l-43 -198h-170zM471 137q0 -25 -7 -50.5t-15 -39.5q-19 -34 -50 -47.5t-77 -13.5q-56 0 -78.5 18.5t-22.5 52.5q0 20 5.5 40.5t13.5 41.5q15 38 45.5 55t83.5 17q54 0 78 -18t24 -56z" />
    <glyph glyph-name="at" unicode="@" horiz-adv-x="1896" 
d="M1808 745q0 -94 -17 -184.5t-49 -171.5t-78 -149.5t-103.5 -118t-125.5 -77.5t-145 -28q-105 0 -154.5 45t-52.5 125q-41 -32 -79.5 -58.5t-77 -45.5t-78.5 -29t-82 -10q-78 0 -131.5 25t-86.5 70.5t-48 109t-15 139.5q0 27 5.5 67.5t16.5 88t28 97.5t40 95q35 67 77 120
t95.5 90t121 57t153.5 20q36 0 68 -7.5t59.5 -19.5t50 -26.5t39.5 -28.5l10 53h168l-153 -723q-3 -15 -5 -27.5t-2 -23.5q0 -34 18 -47.5t58 -13.5q39 0 78 21.5t75 60t67.5 93t54.5 120t36 141t13 156.5q0 126 -33 223t-103.5 163.5t-181 101t-264.5 34.5
q-131 0 -243.5 -35.5t-204.5 -98.5t-163 -149.5t-119.5 -188.5t-73.5 -215t-25 -229q0 -123 38.5 -220.5t111 -165t176.5 -103t235 -35.5q121 0 225 10t205 35v-143q-102 -23 -222 -33t-241 -10q-156 0 -282 42.5t-214.5 126.5t-136 209t-47.5 289q0 127 29 254.5t86.5 245
t141.5 218.5t194.5 176t245.5 118t294 43q171 0 305 -41t227 -124t142 -208.5t49 -294.5zM1204 791q-49 42 -98 60.5t-105 18.5q-89 0 -154 -44t-116 -150q-18 -37 -31.5 -76t-22.5 -76t-13.5 -70.5t-4.5 -58.5q0 -46 6.5 -82t21.5 -60.5t40.5 -37t63.5 -12.5
q48 0 90.5 10.5t81 28.5t73.5 42.5t70 53.5z" />
    <glyph glyph-name="A" unicode="A" horiz-adv-x="1262" 
d="M-47 0l747 1384h236l176 -1384h-188l-43 360h-539l-197 -360h-192zM426 528h434l-78 674z" />
    <glyph glyph-name="B" unicode="B" horiz-adv-x="1247" 
d="M889 756q51 -9 95.5 -31t77.5 -58t52 -86.5t19 -115.5q0 -92 -31.5 -176.5t-100.5 -148.5t-179 -102t-267 -38h-487l292 1384h396q124 0 205.5 -19.5t129.5 -55.5t67.5 -87.5t19.5 -115.5q0 -127 -73 -216t-216 -134zM621 809q173 0 264.5 65.5t91.5 196.5
q0 46 -16.5 75.5t-46.5 46t-73.5 22.5t-97.5 6h-237l-86 -412h201zM539 168q95 0 168.5 16.5t123.5 52t75.5 92t25.5 136.5q0 57 -21 92.5t-61.5 55t-99.5 26t-134 6.5h-231l-102 -477h256z" />
    <glyph glyph-name="C" unicode="C" horiz-adv-x="1280" 
d="M1141 236q-45 -56 -97 -104.5t-117.5 -84t-148 -56t-188.5 -20.5q-121 0 -210 33t-147.5 96t-87 154.5t-28.5 208.5q0 63 8 132.5t24 141t39.5 143t55.5 138.5q39 83 96 155t132 125.5t169 84t207 30.5q96 0 170 -18t130 -52.5t95.5 -84t67.5 -111.5l-162 -94
q-21 49 -50 86t-68.5 61.5t-90.5 36.5t-117 12q-71 0 -132 -22.5t-112 -62.5t-91.5 -94t-69.5 -118q-26 -55 -46 -116t-34 -124t-21.5 -126.5t-7.5 -124.5q0 -156 73 -241t206 -85q74 0 135 15t112 43t95 68t84 89z" />
    <glyph glyph-name="D" unicode="D" horiz-adv-x="1266" 
d="M1219 926q0 -49 -6 -111t-19 -130t-33 -139t-48.5 -138.5t-66.5 -127.5t-85 -106q-50 -48 -111 -81.5t-130 -54t-144.5 -29.5t-155.5 -9h-365l293 1384h342q131 0 230 -22.5t165.5 -76t100 -141.5t33.5 -218zM422 168q136 0 234.5 29t166.5 98q45 45 82.5 119.5
t63.5 161.5t40.5 178t14.5 170q0 82 -17.5 138t-61 90.5t-116.5 49.5t-184 15h-149l-224 -1049h150z" />
    <glyph glyph-name="E" unicode="E" horiz-adv-x="1130" 
d="M68 0l292 1384h830l-35 -167h-649l-86 -404h555l-35 -168h-555l-102 -477h649l-35 -168h-829z" />
    <glyph glyph-name="F" unicode="F" horiz-adv-x="1085" 
d="M506 1217l-86 -404h545l-35 -168h-545l-137 -645h-180l292 1384h822l-35 -167h-641z" />
    <glyph glyph-name="G" unicode="G" horiz-adv-x="1362" 
d="M1153 1051q-21 54 -50 92t-66.5 61.5t-83.5 34t-103 10.5q-86 0 -155 -31t-123.5 -82.5t-95 -118.5t-68.5 -140q-23 -59 -39 -118t-26 -114t-14.5 -103t-4.5 -83q0 -81 17.5 -142t55.5 -101.5t99.5 -60.5t148.5 -20q39 0 76 6t74 16.5t75.5 25t81.5 32.5l68 320h-330
l35 167h510l-125 -596q-62 -31 -120.5 -56t-117.5 -42.5t-119.5 -27t-125.5 -9.5q-124 0 -217 28.5t-155.5 88.5t-94 153.5t-31.5 223.5q0 105 23.5 226.5t72.5 240.5q40 96 98.5 183t137 153.5t178 105.5t221.5 39q178 0 291.5 -66.5t173.5 -209.5z" />
    <glyph glyph-name="H" unicode="H" horiz-adv-x="1337" 
d="M866 0l133 633h-618l-133 -633h-180l292 1384h181l-123 -583h618l123 583h180l-292 -1384h-181z" />
    <glyph glyph-name="I" unicode="I" horiz-adv-x="754" 
d="M543 0h-553l33 160h186l227 1067h-186l33 157h553l-33 -157h-187l-227 -1067h186z" />
    <glyph glyph-name="J" unicode="J" horiz-adv-x="866" 
d="M655 377q-24 -112 -60 -190t-89.5 -126.5t-127 -70t-171.5 -21.5q-72 0 -133.5 15t-106.5 36l72 156q34 -20 82.5 -31.5t97.5 -11.5q63 0 106.5 17.5t74 56t52 99.5t40.5 147l196 931h180z" />
    <glyph glyph-name="K" unicode="K" horiz-adv-x="1239" 
d="M856 0l-338 625l-172 -158l-98 -467h-180l292 1384h181l-138 -653l695 653h235l-680 -641l422 -743h-219z" />
    <glyph glyph-name="L" unicode="L" horiz-adv-x="1018" 
d="M68 0l292 1384h181l-258 -1216h614l-35 -168h-794z" />
    <glyph glyph-name="M" unicode="M" horiz-adv-x="1561" 
d="M1100 0l243 1147l-538 -770h-113l-207 770l-243 -1147h-174l292 1384h238l199 -753l524 753h244l-293 -1384h-172z" />
    <glyph glyph-name="N" unicode="N" horiz-adv-x="1358" 
d="M870 0l-376 1188l-252 -1188h-174l292 1384h250l346 -1087l232 1087h174l-293 -1384h-199z" />
    <glyph glyph-name="O" unicode="O" horiz-adv-x="1337" 
d="M582 -29q-132 0 -221 35.5t-143 100.5t-77.5 157t-23.5 205q0 53 6 112.5t18 122.5t31 127.5t45 126.5q40 94 93.5 177t127 145t171.5 97.5t227 35.5q222 0 338 -124t116 -365q0 -79 -14 -185t-49 -219q-36 -116 -90 -216t-131.5 -174t-182 -116.5t-241.5 -42.5zM311 465
q0 -92 15.5 -155t49.5 -102t87.5 -56t128.5 -17q163 0 270.5 105.5t175.5 322.5q15 49 26 99.5t18 98.5t10.5 91t3.5 78q0 161 -65 240t-214 79q-81 0 -144 -24t-113 -68.5t-89 -108.5t-72 -145q-23 -57 -39.5 -117t-27.5 -117t-16 -109.5t-5 -94.5z" />
    <glyph glyph-name="P" unicode="P" horiz-adv-x="1157" 
d="M1167 1069q0 -123 -30 -232t-97.5 -191t-175.5 -129.5t-264 -47.5h-254l-98 -469h-180l292 1384h408q94 0 168.5 -16t125.5 -52.5t78 -97t27 -149.5zM618 637q69 0 122 17t92.5 46t66 68.5t42.5 85.5t23 95t7 98q0 43 -10.5 75t-37 53t-70.5 31.5t-110 10.5h-237
l-123 -580h235z" />
    <glyph glyph-name="Q" unicode="Q" horiz-adv-x="1337" 
d="M823 -328q-91 0 -156.5 18.5t-108.5 57t-66 96.5t-29 136q-97 14 -163 55t-106.5 104.5t-58.5 147t-18 182.5q0 53 6 112.5t18 122.5t31 127.5t45 126.5q40 94 93.5 177t127 145t171.5 97.5t227 35.5q222 0 338 -124t116 -365q0 -79 -14 -185t-49 -219q-33 -107 -81 -200
t-115.5 -164.5t-157 -117.5t-205.5 -58q4 -39 15.5 -66.5t34 -45t58 -26t88.5 -8.5q15 0 35.5 2t42.5 5t44 7.5t40 10.5l25 -152q-28 -9 -58 -15.5t-60 -11t-58 -6.5t-52 -2zM311 465q0 -92 15.5 -155t49.5 -102t87.5 -56t128.5 -17q163 0 270.5 111t175.5 327
q31 99 44.5 193.5t13.5 163.5q0 161 -65 240t-214 79q-81 0 -144 -24t-113.5 -68.5t-90 -108.5t-72.5 -145q-23 -57 -39 -117t-26.5 -117t-15.5 -109.5t-5 -94.5z" />
    <glyph glyph-name="R" unicode="R" horiz-adv-x="1212" 
d="M838 0l-228 565h-243l-119 -565h-180l292 1384h410q100 0 178 -14.5t130.5 -51t80 -97.5t27.5 -154q0 -35 -8.5 -82t-26.5 -98t-46 -100.5t-67 -88.5q-24 -23 -52.5 -41t-60 -31.5t-64.5 -23t-66 -16.5l247 -586h-204zM629 729q97 0 162.5 17t107.5 59q24 23 41.5 54
t28.5 65.5t16.5 71t5.5 71.5q0 44 -15 73.5t-45.5 47.5t-77 25.5t-108.5 7.5h-239l-105 -492h228z" />
    <glyph glyph-name="S" unicode="S" horiz-adv-x="1202" 
d="M203 334q13 -39 36 -75t61 -63.5t94.5 -44t137.5 -16.5q71 0 133.5 17.5t109.5 49t74.5 76.5t27.5 101q0 43 -9 77.5t-36 63t-76.5 53.5t-130.5 50q-122 37 -201 72.5t-125 77.5t-64 93.5t-18 120.5q0 77 30.5 153t95 137t164 98.5t238.5 37.5q89 0 159 -16.5t124.5 -49
t94.5 -80.5t69 -112l-160 -90q-32 85 -109 134.5t-198 49.5q-84 0 -143.5 -21t-97 -54.5t-55 -77t-17.5 -88.5q0 -35 7.5 -61.5t35.5 -50t82 -47t147 -52.5q113 -36 187.5 -73.5t119 -83t62.5 -102.5t18 -130q0 -114 -46.5 -196.5t-123.5 -136t-176.5 -79t-204.5 -25.5
q-120 0 -204 23t-141 61.5t-90.5 90t-53.5 108.5z" />
    <glyph glyph-name="T" unicode="T" horiz-adv-x="1159" 
d="M817 1217l-258 -1217h-180l258 1217h-449l35 167h1080l-35 -167h-451z" />
    <glyph glyph-name="U" unicode="U" horiz-adv-x="1376" 
d="M1210 578q-38 -182 -90.5 -299.5t-126.5 -186.5t-174 -96t-233 -27q-115 0 -196 24t-132 70t-74.5 114t-23.5 157q0 111 35 266l165 784h181l-166 -786q-8 -35 -14 -66.5t-10.5 -63t-6.5 -64.5t-2 -70q0 -99 60 -150t190 -51q98 0 168 22t121 77t87 146.5t66 231.5
l166 774h180z" />
    <glyph glyph-name="V" unicode="V" horiz-adv-x="1200" 
d="M608 0h-243l-132 1384h181l106 -1206l619 1206h194z" />
    <glyph glyph-name="W" unicode="W" horiz-adv-x="1722" 
d="M1219 0h-218l-22 1108l-492 -1108h-211l-28 1384h176l14 -1122l494 1122h205l22 -1122l496 1122h184z" />
    <glyph glyph-name="X" unicode="X" horiz-adv-x="1184" 
d="M-57 0l592 715l-289 669h200l218 -534l436 534h215l-586 -690l293 -694h-201l-223 559l-442 -559h-213z" />
    <glyph glyph-name="Y" unicode="Y" horiz-adv-x="1124" 
d="M655 535l-112 -535h-185l111 526l-246 858h189l180 -673l463 673h211z" />
    <glyph glyph-name="Z" unicode="Z" horiz-adv-x="1141" 
d="M-20 0l36 176l926 1041h-674l35 167h899l-35 -165l-936 -1051h730l-35 -168h-946z" />
    <glyph glyph-name="bracketleft" unicode="[" horiz-adv-x="788" 
d="M-4 -395l399 1884h477l-28 -133h-322l-344 -1618h322l-27 -133h-477z" />
    <glyph glyph-name="backslash" unicode="\" horiz-adv-x="971" 
d="M633 -299l-324 1819h158l321 -1819h-155z" />
    <glyph glyph-name="bracketright" unicode="]" horiz-adv-x="788" 
d="M-72 -395l27 133h321l345 1618h-324l29 133h477l-400 -1884h-475z" />
    <glyph glyph-name="asciicircum" unicode="^" horiz-adv-x="1133" 
d="M907 649l-174 592l-422 -592h-145l524 735h135l211 -735h-129z" />
    <glyph glyph-name="underscore" unicode="_" horiz-adv-x="1024" 
d="M-195 -256l23 102h1063l-23 -102h-1063z" />
    <glyph glyph-name="grave" unicode="`" 
d="M692 1208l-209 361h217l113 -361h-121z" />
    <glyph glyph-name="a" unicode="a" horiz-adv-x="1151" 
d="M92 342q0 70 13.5 151.5t41 163.5t71 158t103 135t136.5 94t172 35q96 0 162.5 -30.5t115.5 -85.5l19 86h170l-222 -1049h-169l26 125q-37 -32 -75 -60t-78.5 -49.5t-85 -34t-93.5 -12.5q-83 0 -141.5 24.5t-95 72t-53.5 117t-17 159.5zM877 813q-50 54 -108 83.5
t-144 29.5q-62 0 -112.5 -27t-90.5 -73t-69.5 -106t-48.5 -125t-28.5 -131.5t-9.5 -125.5q0 -116 40.5 -165.5t127.5 -49.5q45 0 89 12.5t86 34t81 49.5t74 60z" />
    <glyph glyph-name="b" unicode="b" horiz-adv-x="1151" 
d="M225 0h-170l316 1489h170l-115 -545q34 28 71 53t77.5 43t84.5 28.5t93 10.5q83 0 142 -24.5t96.5 -72t55 -116.5t17.5 -159q0 -59 -11 -129.5t-33 -143.5t-55.5 -144.5t-78.5 -131.5q-69 -91 -164 -140t-217 -49q-82 0 -146.5 30.5t-113.5 86.5zM274 236
q50 -54 106.5 -83.5t133.5 -29.5q69 0 130.5 35.5t111.5 109.5q31 45 54.5 98.5t39.5 110.5t24.5 116.5t8.5 117.5q0 115 -40 165t-126 50q-45 0 -89.5 -11.5t-85.5 -30t-79 -43t-70 -50.5z" />
    <glyph glyph-name="c" unicode="c" horiz-adv-x="1010" 
d="M862 162q-33 -42 -73 -77t-89 -61t-107 -40.5t-128 -14.5q-100 0 -171 27t-116.5 77.5t-66.5 122t-21 160.5q0 68 13.5 148t42.5 160t74.5 155t109.5 133t147.5 92.5t188.5 34.5q125 0 212 -47.5t126 -144.5l-152 -82q-25 62 -73 93.5t-130 31.5q-65 0 -119 -26.5
t-96.5 -71t-74 -103t-52.5 -123t-31 -131.5t-10 -127q0 -51 11 -93.5t36.5 -72.5t66.5 -46.5t101 -16.5q41 0 76 9.5t67 27t61.5 43.5t59.5 59z" />
    <glyph glyph-name="d" unicode="d" horiz-adv-x="1151" 
d="M88 342q0 59 11 129.5t33 143.5t55.5 144t78.5 132q69 91 164 139.5t217 48.5q82 0 146.5 -30.5t113.5 -85.5l111 526h170l-314 -1489h-169l20 104q-35 -28 -71.5 -52.5t-77 -43t-84.5 -29t-93 -10.5q-83 0 -142 24.5t-96.5 72t-55 117t-17.5 159.5zM395 780
q-31 -45 -54.5 -98.5t-39.5 -110.5t-24.5 -116t-8.5 -117q0 -116 39.5 -165.5t126.5 -49.5q45 0 89.5 11t85.5 30t79 43.5t70 50.5l119 555q-50 54 -106.5 83.5t-133.5 29.5q-69 0 -130.5 -35.5t-111.5 -110.5z" />
    <glyph glyph-name="e" unicode="e" horiz-adv-x="1059" 
d="M285 504q-10 -47 -15.5 -88t-5.5 -78q0 -63 13.5 -105t42 -67.5t72 -36t104.5 -10.5q68 0 134 35t128 100l106 -98q-78 -89 -171.5 -138t-217.5 -49q-189 0 -288 91t-99 280q0 61 10 129t30 136.5t49 133.5t67 121q67 101 168 160t250 59q82 0 144 -23.5t103.5 -66
t62.5 -103t21 -134.5q0 -10 -1.5 -29t-3.5 -41t-5 -44t-6 -38l-21 -96h-671zM817 639q12 58 12 109q0 91 -45 139.5t-145 48.5q-71 0 -125.5 -24t-97.5 -76q-57 -71 -101 -197h502z" />
    <glyph glyph-name="f" unicode="f" horiz-adv-x="621" 
d="M844 1329q-26 17 -61.5 29t-77.5 12t-75.5 -10.5t-58.5 -33.5t-43 -61.5t-30 -93.5l-27 -122h229l-28 -144h-230l-192 -905h-168l192 905h-149l29 144h149l23 102q21 97 50.5 166.5t74.5 114.5t109.5 66.5t156.5 21.5q52 0 100 -13t88 -34z" />
    <glyph glyph-name="g" unicode="g" horiz-adv-x="1151" 
d="M870 -8q-23 -108 -63 -181.5t-101.5 -119.5t-148 -66t-201.5 -20q-128 0 -217 27.5t-145 70.5l86 131q56 -40 123 -63t159 -23q79 0 136.5 12.5t98.5 44.5t68.5 86.5t45.5 139.5l22 104q-35 -29 -75 -53.5t-82.5 -42.5t-85.5 -28.5t-84 -10.5q-87 0 -147.5 27.5t-98 77
t-54 118t-16.5 150.5q0 77 16 159t48 160.5t79 148.5t109 123t138 84t167 31q31 0 66 -8t69.5 -23t67 -36.5t57.5 -48.5l19 86h168zM877 813q-50 54 -109 83.5t-131 29.5q-62 0 -113.5 -26.5t-92 -70.5t-71 -101.5t-50.5 -119.5t-30 -124t-10 -115q0 -113 39 -164t131 -51
q46 0 89.5 10.5t84.5 29t79 43t73 52.5z" />
    <glyph glyph-name="h" unicode="h" horiz-adv-x="1141" 
d="M702 0l132 618q12 57 19 105t7 94q0 48 -22.5 76.5t-83.5 28.5q-36 0 -80 -12.5t-92 -35.5t-98.5 -57t-100.5 -76l-158 -741h-170l316 1489h170l-127 -596q44 40 90.5 74.5t94 59t96.5 38.5t98 14q67 0 112.5 -18t73.5 -50t40.5 -76t12.5 -95q0 -37 -8.5 -93t-24.5 -129
l-129 -618h-168z" />
    <glyph glyph-name="i" unicode="i" horiz-adv-x="502" 
d="M55 0l221 1049h170l-221 -1049h-170zM297 1278q0 71 32 105t101 34q50 0 71 -19t21 -48q0 -62 -29.5 -100t-99.5 -38q-29 0 -48 5t-29.5 13.5t-14.5 20.5t-4 27z" />
    <glyph glyph-name="j" unicode="j" horiz-adv-x="526" 
d="M231 -45q-18 -87 -47 -152.5t-73 -109.5t-107.5 -66t-150.5 -22q-36 0 -86 7.5t-95 22.5l72 142q32 -14 66.5 -21.5t76.5 -7.5q39 0 67.5 15t49.5 43.5t35.5 71t26.5 97.5l227 1074h170zM324 1282q0 68 34 101.5t99 33.5q49 0 70.5 -19.5t21.5 -51.5q0 -65 -33 -99.5
t-96 -34.5q-29 0 -48 5t-29.5 14t-14.5 22t-4 29z" />
    <glyph glyph-name="k" unicode="k" horiz-adv-x="1028" 
d="M678 0l-238 477l-141 -131l-74 -346h-170l316 1489h170l-195 -914l504 474h219l-502 -463l303 -586h-192z" />
    <glyph glyph-name="l" unicode="l" horiz-adv-x="518" 
d="M63 0l316 1489h170l-316 -1489h-170z" />
    <glyph glyph-name="m" unicode="m" horiz-adv-x="1677" 
d="M1241 0l131 618q14 66 22.5 114t8.5 83q0 53 -22.5 80t-71.5 27q-41 0 -84 -16.5t-86 -42.5t-85 -58.5t-79 -63.5l-158 -741h-170l131 618q14 67 22.5 116t8.5 83q0 54 -24 79.5t-76 25.5q-38 0 -80.5 -17.5t-85.5 -44t-84.5 -58.5t-75.5 -61l-158 -741h-170l221 1049
h170l-32 -156q40 40 84.5 74.5t88.5 59t86.5 38.5t78.5 14q64 0 108.5 -15t71.5 -42t39 -65t12 -83q99 96 191.5 150.5t173.5 54.5q67 0 111 -17.5t70 -48t36 -71.5t10 -88q0 -76 -23 -176l-143 -678h-168z" />
    <glyph glyph-name="n" unicode="n" horiz-adv-x="1141" 
d="M702 0l132 618q12 57 19 105t7 96q0 47 -25.5 75t-80.5 28q-79 0 -175 -48t-196 -133l-158 -741h-170l221 1049h170l-32 -156q44 40 90.5 74.5t94 59t96.5 38.5t98 14q67 0 112.5 -18t73.5 -50t40.5 -76t12.5 -95q0 -37 -8.5 -93t-24.5 -129l-129 -618h-168z" />
    <glyph glyph-name="o" unicode="o" horiz-adv-x="1135" 
d="M92 379q0 54 10.5 121t33.5 138.5t59.5 141.5t89.5 129q33 38 72.5 69t87 53.5t102.5 35t119 12.5q179 0 277.5 -101t98.5 -306q0 -62 -11.5 -135.5t-37 -148.5t-66 -146.5t-98.5 -128.5q-65 -65 -151.5 -104.5t-200.5 -39.5q-105 0 -178.5 26.5t-119 78t-66.5 128
t-21 177.5zM266 369q0 -65 12 -112.5t38.5 -78t68.5 -45t102 -14.5q72 0 129.5 29.5t102.5 80.5q35 40 63 93t47 112t29 120.5t10 117.5q0 133 -53.5 195.5t-165.5 62.5q-81 0 -144 -37.5t-108 -97.5q-31 -41 -55 -93t-41 -108t-26 -114t-9 -111z" />
    <glyph glyph-name="p" unicode="p" horiz-adv-x="1151" 
d="M141 -395h-170l305 1444h170l-20 -105q34 28 71 53t77.5 43t84.5 28.5t93 10.5q83 0 142 -24.5t96.5 -72t55 -116.5t17.5 -159q0 -68 -13 -149.5t-41 -163.5t-71.5 -158.5t-104 -136t-139 -95t-176.5 -35.5q-93 0 -159 30.5t-115 86.5zM274 236q50 -54 106.5 -83.5
t133.5 -29.5q61 0 112.5 27.5t92.5 73.5t71.5 106t51.5 125.5t31 131.5t10 124q0 115 -40 165t-126 50q-45 0 -89.5 -11.5t-85.5 -30t-79 -43t-70 -50.5z" />
    <glyph glyph-name="q" unicode="q" horiz-adv-x="1151" 
d="M725 104q-35 -28 -71.5 -52.5t-77 -43t-84.5 -29t-93 -10.5q-83 0 -142 24.5t-96.5 72t-55 117t-17.5 159.5q0 66 13 146.5t40.5 162t70.5 159t103 137t137.5 96t174.5 36.5t164 -30.5t116 -85.5l19 86h170l-305 -1444h-170zM877 813q-50 54 -107.5 83.5t-140.5 29.5
q-65 0 -117 -29t-92 -76.5t-69 -109t-47.5 -126.5t-27 -129.5t-8.5 -117.5q0 -116 39.5 -165.5t126.5 -49.5q45 0 89.5 11t85.5 30t79 43.5t70 50.5z" />
    <glyph glyph-name="r" unicode="r" horiz-adv-x="795" 
d="M799 877q-13 6 -34.5 10t-41.5 4q-52 0 -98.5 -14.5t-89 -38t-81 -53t-75.5 -60.5l-154 -725h-170l221 1049h170l-34 -170q51 48 95.5 83t85 58t78.5 34t77 11q77 0 120 -23z" />
    <glyph glyph-name="s" unicode="s" horiz-adv-x="971" 
d="M168 238q26 -57 78 -90t147 -33q44 0 90.5 8.5t84.5 28.5t62.5 52.5t24.5 80.5q0 24 -6 45t-27 41.5t-62 41t-111 44.5q-83 27 -137 55.5t-86 61.5t-45 72.5t-13 90.5q0 71 27.5 133t80 108.5t128.5 73.5t174 27q75 0 131.5 -14t98 -38.5t70 -58t48.5 -73.5l-144 -84
q-8 18 -22.5 39.5t-40.5 40t-64.5 31t-93.5 12.5q-51 0 -92.5 -13t-71 -35.5t-45.5 -53.5t-16 -66q0 -23 7 -45t26 -42.5t52 -39t85 -33.5q92 -28 154 -56.5t99 -63.5t52.5 -79.5t15.5 -103.5q0 -69 -29 -130t-85 -106t-139.5 -71.5t-192.5 -26.5q-87 0 -150 16t-106.5 42.5
t-68.5 60.5t-36 70z" />
    <glyph glyph-name="t" unicode="t" horiz-adv-x="715" 
d="M563 0q-46 -14 -95 -22.5t-91 -8.5q-65 0 -110.5 16t-75 44.5t-43 68t-13.5 86.5q0 34 4.5 75t14.5 81l120 565h-145l29 144h145l64 292h168l-64 -292h262l-28 -144h-263l-118 -555q-10 -42 -15.5 -76.5t-5.5 -60.5q0 -53 25 -76.5t82 -23.5q18 0 38 2t40.5 6t40 9
t34.5 11v-141z" />
    <glyph glyph-name="u" unicode="u" horiz-adv-x="1141" 
d="M436 1049l-129 -619q-12 -57 -20 -103.5t-8 -88.5q0 -60 25 -85.5t79 -25.5q80 0 176.5 47.5t196.5 132.5l157 742h170l-221 -1049h-170l33 156q-45 -41 -91 -75.5t-94 -59t-96.5 -38.5t-97.5 -14q-67 0 -112.5 18t-74 50.5t-41 76.5t-12.5 95q0 37 9 93t24 128l129 619
h168z" />
    <glyph glyph-name="v" unicode="v" horiz-adv-x="987" 
d="M465 0h-166l-137 1049h172l96 -824l434 824h185z" />
    <glyph glyph-name="w" unicode="w" horiz-adv-x="1446" 
d="M1020 0h-160l-80 803l-422 -803h-151l-35 1049h166l6 -799l412 799h141l84 -799l334 799h178z" />
    <glyph glyph-name="x" unicode="x" horiz-adv-x="991" 
d="M637 0l-166 397l-317 -397h-209l452 537l-229 512h190l164 -385l318 385h209l-457 -527l235 -522h-190z" />
    <glyph glyph-name="y" unicode="y" horiz-adv-x="1020" 
d="M-121 -227q22 -11 50.5 -18t60.5 -7q37 0 70.5 12t66 39t66.5 71.5t73 109.5l56 90l-164 979h172l119 -783l448 783h186l-677 -1129q-53 -87 -98.5 -147t-93.5 -97.5t-103.5 -54t-126.5 -16.5q-23 0 -46.5 2.5t-45.5 6.5t-41.5 9.5t-34.5 11.5z" />
    <glyph glyph-name="z" unicode="z" horiz-adv-x="915" 
d="M-31 0l27 131l692 774h-514l29 144h727l-27 -125l-692 -779h545l-31 -145h-756z" />
    <glyph glyph-name="braceleft" unicode="{" horiz-adv-x="956" 
d="M594 -395q-75 0 -134 18t-100 53t-62.5 86.5t-21.5 118.5q0 25 3.5 51t9.5 54l30 147q8 35 14.5 71.5t6.5 86.5q0 41 -13.5 77t-41.5 63t-71 42.5t-103 15.5h-19l33 148h18q78 0 137 22.5t102.5 67t73 111t48.5 155.5l31 146q38 185 150.5 283t293.5 98h88l-29 -134h-69
q-113 0 -185 -65.5t-100 -198.5l-37 -172q-19 -92 -47 -158.5t-69.5 -112.5t-100 -74.5t-139.5 -43.5q97 -37 151 -104.5t54 -175.5q0 -51 -13 -107l-37 -172q-5 -25 -9.5 -50t-4.5 -61q0 -80 49.5 -116.5t157.5 -36.5h49l-26 -133h-68z" />
    <glyph glyph-name="bar" unicode="|" horiz-adv-x="852" 
d="M381 -395v1915h156v-1915h-156z" />
    <glyph glyph-name="braceright" unicode="}" horiz-adv-x="956" 
d="M379 1520q150 0 233.5 -71.5t83.5 -205.5q0 -49 -12 -104l-31 -148q-8 -35 -14 -71.5t-6 -85.5q0 -42 13.5 -78t41 -63t71 -42.5t103.5 -15.5h19l-33 -148h-19q-78 0 -137 -22t-102 -66.5t-72.5 -111.5t-48.5 -156l-31 -145q-38 -186 -151 -283.5t-293 -97.5h-88l28 133
h70q113 0 185 65.5t100 198.5l37 172q19 92 47 158.5t69.5 112.5t100 74.5t139.5 43.5q-97 37 -151 105t-54 176q0 47 12 106l37 172q5 25 10 50.5t5 60.5q0 80 -49.5 116.5t-157.5 36.5h-49l26 134h68z" />
    <glyph glyph-name="asciitilde" unicode="~" horiz-adv-x="1399" 
d="M213 774q78 62 154 94.5t147 32.5q69 0 132.5 -24.5t123 -54.5t115.5 -54.5t110 -24.5q72 0 154.5 38t167.5 106l-35 -160q-26 -21 -59.5 -43.5t-73 -41t-82.5 -30.5t-88 -12q-64 0 -128.5 24.5t-126 54.5t-117.5 54.5t-103 24.5q-43 0 -82 -8t-78 -25.5t-79.5 -44.5
t-86.5 -66z" />
    <glyph glyph-name="uni00A0" unicode="&#xa0;" horiz-adv-x="543" 
 />
    <glyph glyph-name="exclamdown" unicode="&#xa1;" horiz-adv-x="545" 
d="M233 694h144l-203 -1089h-194zM242 928q0 25 7 50.5t15 39.5q19 34 50 47.5t77 13.5q56 0 78.5 -18.5t22.5 -52.5q0 -20 -5.5 -40.5t-13.5 -41.5q-15 -39 -45.5 -55.5t-83.5 -16.5q-54 0 -78 18t-24 56z" />
    <glyph glyph-name="cent" unicode="&#xa2;" horiz-adv-x="1024" 
d="M862 162q-33 -42 -73 -77t-89 -60.5t-107 -39.5t-128 -14h-45l-78 -231h-117l84 252q-57 18 -98.5 50.5t-68.5 79t-39.5 105.5t-12.5 129t13.5 150.5t43 161t76 154.5t111.5 131.5t150 91.5t192 34l72 209h116l-76 -223q78 -20 133 -63.5t83 -114.5l-152 -82
q-17 42 -44.5 69t-68.5 41l-270 -796q46 1 84 10.5t71 27.5t62.5 43.5t58.5 57.5zM266 348q0 -74 21.5 -127.5t72.5 -79.5l265 787q-61 -5 -112 -33.5t-90.5 -73.5t-69 -102.5t-49 -120.5t-29 -127.5t-9.5 -122.5z" />
    <glyph glyph-name="sterling" unicode="&#xa3;" horiz-adv-x="1239" 
d="M43 0l33 162q41 10 74.5 36t60 62t46.5 78.5t34.5 86.5t24 85t14.5 74h-144l29 137h131q6 28 7 61t1 86q0 132 36.5 233.5t102 170.5t156.5 104t199 35q80 0 141 -16t107.5 -45.5t80.5 -71t60 -92.5l-160 -92q-25 72 -88.5 114.5t-157.5 42.5q-68 0 -123.5 -23.5
t-94.5 -68.5t-60 -110t-21 -148q0 -45 -2.5 -89.5t-7.5 -90.5h352l-28 -137h-338q-12 -59 -29 -118t-42.5 -114t-63.5 -103.5t-92 -86.5h747l-31 -162h-954z" />
    <glyph glyph-name="currency" unicode="&#xa4;" horiz-adv-x="1239" 
d="M209 74l-92 90l194 198q-37 51 -54 109t-17 115q0 59 15.5 116.5t53.5 108.5l-192 195l92 92l192 -191q54 41 112.5 58.5t115.5 17.5q59 0 117 -16.5t112 -57.5l193 189l90 -92l-187 -191q41 -54 57.5 -112t16.5 -117t-18.5 -115t-57.5 -113l189 -194l-90 -90l-195 190
q-59 -41 -114 -55t-113 -14q-57 0 -114 16.5t-109 54.5zM883 586q0 51 -18 98t-51.5 82.5t-80.5 56.5t-104 21q-55 0 -100 -21t-77 -56t-49.5 -82t-17.5 -99q0 -51 18.5 -97t51 -80.5t77 -54.5t97.5 -20q55 0 101.5 19.5t80.5 54t53 80t19 98.5z" />
    <glyph glyph-name="yen" unicode="&#xa5;" horiz-adv-x="1239" 
d="M752 635l-33 -43q-5 -26 -11.5 -49t-11.5 -49h363l-23 -127h-364q-19 -93 -39.5 -183.5t-38.5 -183.5h-174l78 367h-365l25 127h362l21 92l-17 49h-334l25 127h268q-51 153 -101 311.5t-101 310.5h184l197 -618l448 618h205l-471 -622h272l-24 -127h-340z" />
    <glyph glyph-name="brokenbar" unicode="&#xa6;" horiz-adv-x="852" 
d="M381 883v637h156v-637h-156zM381 -395v637h156v-637h-156z" />
    <glyph glyph-name="section" unicode="&#xa7;" horiz-adv-x="985" 
d="M897 545q0 -51 -16 -95.5t-50.5 -87t-89.5 -85.5t-133 -91q58 -53 85.5 -107.5t27.5 -129.5q0 -68 -31 -125.5t-86 -99.5t-130.5 -65.5t-164.5 -23.5q-70 0 -125.5 11.5t-97.5 32.5t-70.5 49t-44.5 61l144 98q19 -30 42 -49.5t49 -31.5t54 -16.5t57 -4.5q37 0 77.5 8.5
t74.5 28t56 51.5t22 80q0 49 -46.5 93.5t-131.5 100.5q-76 52 -127.5 93.5t-83 83t-45 86t-13.5 102.5q0 54 24.5 102.5t65 92t93.5 82t110 73.5q-29 25 -50 50.5t-34.5 54t-20.5 62t-7 75.5q0 60 27.5 115.5t80 98t128.5 68t173 25.5q67 0 116.5 -10.5t89 -30t72 -48.5
t64.5 -65l-131 -100q-18 18 -39.5 36.5t-48 33.5t-59 24t-72.5 9q-56 0 -99 -11.5t-72 -32t-43.5 -48t-14.5 -58.5q0 -29 11 -54.5t31.5 -49.5t51 -48.5t69.5 -52.5q82 -59 136 -105.5t86 -87.5t45.5 -81t13.5 -86zM502 270q45 23 86.5 53.5t72.5 63.5t49.5 67t18.5 66
q0 34 -18 65.5t-49 63t-72.5 63t-87.5 64.5q-51 -32 -94.5 -63t-75 -62t-49 -62t-17.5 -63q0 -24 6.5 -46.5t30.5 -50.5t71 -66t128 -93z" />
    <glyph glyph-name="dieresis" unicode="&#xa8;" 
d="M623 1354q0 -9 -2 -21.5t-5 -25t-7.5 -23.5t-8.5 -18q-17 -32 -42 -45t-69 -13q-52 0 -71 17.5t-19 48.5q0 6 1.5 16.5t4.5 22.5t6.5 24t8.5 21q14 32 39 47.5t73 15.5q51 0 71 -16.5t20 -50.5zM1010 1354q0 -9 -2 -21.5t-5 -25t-7.5 -23.5t-8.5 -18q-17 -32 -42 -45
t-68 -13q-53 0 -72 17.5t-19 48.5q0 6 1.5 16.5t4.5 22.5t6.5 24t8.5 21q14 32 39.5 47.5t73.5 15.5q51 0 70.5 -16.5t19.5 -50.5z" />
    <glyph glyph-name="copyright" unicode="&#xa9;" horiz-adv-x="1855" 
d="M948 -195q-113 0 -216.5 28.5t-192.5 81t-161.5 126t-123.5 163t-79 192t-28 214.5q0 114 28.5 217.5t80.5 192.5t125 161t162 123.5t191.5 79t213.5 27.5q114 0 217.5 -28.5t192.5 -80.5t161 -125t123.5 -162t79 -191.5t27.5 -213.5q0 -114 -28.5 -218.5t-80.5 -194
t-125 -162t-162 -123.5t-191.5 -79t-213.5 -28zM948 -59q92 0 177 24t159 67.5t134.5 104.5t103.5 135t66.5 159.5t23.5 178.5q0 92 -23.5 177t-66.5 159t-103.5 134.5t-134.5 104t-159 67.5t-177 24t-176.5 -24t-157.5 -67.5t-133.5 -104t-103.5 -134.5t-66.5 -159
t-23.5 -177t23.5 -178t66.5 -160t103.5 -135t133.5 -104.5t157.5 -67.5t176.5 -24zM973 168q-203 0 -298 111.5t-95 332.5t93.5 333t295.5 112q61 0 111 -13.5t89.5 -37.5t69.5 -57t51 -72l-127 -78q-13 25 -30 48t-40 40.5t-54 28t-72 10.5q-65 0 -110.5 -19.5t-74 -59
t-41 -98.5t-12.5 -137q0 -161 57 -237t183 -76q38 0 69 10.5t56.5 28.5t45.5 42t36 52l127 -74q-24 -40 -54 -74.5t-69 -60t-90 -40.5t-117 -15z" />
    <glyph glyph-name="ordfeminine" unicode="&#xaa;" horiz-adv-x="780" 
d="M180 936q0 47 9 101t27.5 107t47.5 102t68.5 86.5t90.5 60t114 22.5q61 0 105.5 -20.5t76.5 -57.5l12 58h131l-143 -682h-131l16 82q-24 -21 -49.5 -39.5t-52.5 -33t-56 -22.5t-61 -8q-109 0 -157 62.5t-48 181.5zM696 1231q-31 35 -67.5 52t-91.5 17q-58 0 -100 -35
t-69.5 -89t-41 -118t-13.5 -122q0 -75 26.5 -102t82.5 -27q57 0 109 28t96 68z" />
    <glyph glyph-name="guillemotleft" unicode="&#xab;" horiz-adv-x="1200" 
d="M354 53l-284 471l485 471h199l-492 -481l283 -461h-191zM834 53l-285 471l485 471h199l-492 -481l283 -461h-190z" />
    <glyph glyph-name="logicalnot" unicode="&#xac;" horiz-adv-x="1427" 
d="M1141 367v460h-957v144h1100v-604h-143z" />
    <glyph glyph-name="uni00AD" unicode="&#xad;" horiz-adv-x="811" 
d="M82 440l37 172h610l-37 -172h-610z" />
    <glyph glyph-name="registered" unicode="&#xae;" horiz-adv-x="1855" 
d="M948 -195q-113 0 -216.5 28.5t-192.5 81t-161.5 126t-123.5 163t-79 192t-28 214.5q0 114 28.5 217.5t80.5 192.5t125 161t162 123.5t191.5 79t213.5 27.5q114 0 217.5 -28.5t192.5 -80.5t161 -125t123.5 -162t79 -191.5t27.5 -213.5q0 -114 -28.5 -218.5t-80.5 -194
t-125 -162t-162 -123.5t-191.5 -79t-213.5 -28zM948 -59q92 0 177 24t159 67.5t134.5 104.5t103.5 135t66.5 159.5t23.5 178.5q0 92 -23.5 177t-66.5 159t-103.5 134.5t-134.5 104t-159 67.5t-177 24t-176.5 -24t-157.5 -67.5t-133.5 -104t-103.5 -134.5t-66.5 -159
t-23.5 -177t23.5 -178t66.5 -160t103.5 -135t133.5 -104.5t157.5 -67.5t176.5 -24zM662 199v852h276q75 0 134 -12t99 -40.5t61 -76.5t21 -119q0 -56 -11 -97.5t-32 -71.5t-51.5 -49t-68.5 -30l231 -356h-172l-217 333h-123v-333h-147zM809 659h123q50 0 82.5 7t52 23.5
t27.5 42.5t8 65q0 36 -8.5 60.5t-27.5 39t-50.5 21t-77.5 6.5h-129v-265z" />
    <glyph glyph-name="macron" unicode="&#xaf;" 
d="M389 1255l29 140h598l-29 -140h-598z" />
    <glyph glyph-name="degree" unicode="&#xb0;" horiz-adv-x="864" 
d="M846 1241q0 -59 -22.5 -111t-61 -90t-89 -60t-106.5 -22q-57 0 -108.5 22t-90 60t-61 90t-22.5 111q0 58 22.5 109t61 89t89 59.5t107.5 21.5q59 0 110.5 -22t89.5 -60.5t59.5 -89t21.5 -107.5zM727 1239q0 34 -12.5 63.5t-34 51.5t-50.5 34.5t-63 12.5q-35 0 -65 -13
t-52 -35.5t-34.5 -51.5t-12.5 -60q0 -34 12.5 -63.5t35 -52t52 -35.5t64.5 -13q34 0 63 13t50.5 35t34 51.5t12.5 62.5z" />
    <glyph glyph-name="plusminus" unicode="&#xb1;" horiz-adv-x="1427" 
d="M815 809v-479h-143v479h-477v143h477v478h143v-478h479v-143h-479zM195 0v143h1099v-143h-1099z" />
    <glyph glyph-name="twosuperior" unicode="&#xb2;" horiz-adv-x="881" 
d="M127 655l29 138q59 37 125 80.5t129 87.5t118.5 85.5t94.5 75.5q49 44 72.5 86t23.5 80q0 54 -28.5 78.5t-90.5 24.5q-66 0 -117.5 -29.5t-97.5 -77.5l-117 78q60 74 148 118t196 44q283 0 283 -217q0 -81 -36.5 -144t-110.5 -123q-57 -46 -153 -111t-220 -143h434
l-29 -131h-653z" />
    <glyph glyph-name="threesuperior" unicode="&#xb3;" horiz-adv-x="881" 
d="M819 930q0 -58 -23.5 -111t-71.5 -93.5t-121 -64.5t-173 -24q-114 0 -186.5 41t-98.5 104l129 78q9 -17 25 -33.5t37 -30t46 -22t54 -8.5q55 0 94.5 13t65 35.5t37.5 52t12 61.5q0 63 -38.5 88.5t-119.5 25.5h-88l27 127h76q48 0 88 9.5t68.5 27.5t44.5 43.5t16 57.5
q0 48 -34.5 69t-88.5 21q-65 0 -115 -24.5t-96 -74.5l-115 76q23 28 55 55t74 48t94 34t117 13q79 0 132.5 -16t86 -44t46.5 -66t14 -81q0 -35 -9.5 -64.5t-31 -54t-56 -44.5t-85.5 -38q54 -26 83 -73t29 -113z" />
    <glyph glyph-name="acute" unicode="&#xb4;" 
d="M766 1208h-150l240 361h242z" />
    <glyph glyph-name="mu" unicode="&#xb5;" horiz-adv-x="1147" 
d="M887 0h-162l14 119q-75 -76 -146 -113t-153 -37q-74 0 -128.5 22.5t-102.5 71.5l-96 -458h-168l303 1444h170l-168 -793q31 -53 85.5 -85t139.5 -32q72 0 149.5 35.5t149.5 108.5l162 766h172z" />
    <glyph glyph-name="paragraph" unicode="&#xb6;" horiz-adv-x="1233" 
d="M1139 1251l-351 -1646h-155l350 1646h-190l-351 -1646h-157l200 936q-68 0 -130.5 20t-110 64t-75.5 115t-28 173q0 91 35.5 176t107 150.5t178.5 105t251 39.5h643l-29 -133h-188z" />
    <glyph glyph-name="periodcentered" unicode="&#xb7;" horiz-adv-x="545" 
d="M424 786q0 -23 -5 -46.5t-17 -45.5q-19 -34 -50 -47.5t-77 -13.5q-56 0 -78.5 18.5t-22.5 52.5q0 20 5.5 43t15.5 43q15 35 45.5 51.5t81.5 16.5q54 0 78 -17.5t24 -54.5z" />
    <glyph glyph-name="cedilla" unicode="&#xb8;" 
d="M571 -190q0 -101 -77.5 -153t-214.5 -52q-38 0 -74.5 5t-67 12t-53 15.5t-31.5 14.5l72 100q15 -7 36 -13t43.5 -10.5t45.5 -7t43 -2.5q25 0 52 4t49 14.5t36 28.5t14 46q0 37 -39 60t-114 28l84 118h104l-35 -49q66 -20 96.5 -60.5t30.5 -98.5z" />
    <glyph glyph-name="onesuperior" unicode="&#xb9;" horiz-adv-x="881" 
d="M426 655l123 586h-221l22 107q67 3 113 12t78.5 27.5t56 47t45.5 70.5h123l-180 -850h-160z" />
    <glyph glyph-name="ordmasculine" unicode="&#xba;" horiz-adv-x="768" 
d="M817 1159q0 -35 -4.5 -75.5t-15 -82t-28.5 -82.5t-44 -77q-57 -81 -128.5 -114.5t-164.5 -33.5q-68 0 -116 17t-78 49t-44 79t-14 107q0 59 15 128.5t49 137.5q46 94 126.5 148.5t188.5 54.5q71 0 120 -17t80 -50t44.5 -80.5t13.5 -108.5zM606 895q35 56 55.5 125.5
t20.5 140.5q0 37 -6 63.5t-21 43t-40.5 24.5t-63.5 8q-68 0 -110 -31.5t-68 -88.5q-25 -53 -41.5 -113.5t-16.5 -122.5q0 -65 29.5 -100t101.5 -35q57 0 94.5 22t65.5 64z" />
    <glyph glyph-name="guillemotright" unicode="&#xbb;" horiz-adv-x="1200" 
d="M846 995l284 -471l-485 -471h-199l492 482l-283 460h191zM367 995l284 -471l-485 -471h-199l492 482l-283 460h191z" />
    <glyph glyph-name="onequarter" unicode="&#xbc;" horiz-adv-x="1907" 
d="M465 -55h-172l1063 1489h176zM339 537l123 586h-221l22 107q67 3 113 12t78.5 27.5t56 47t45.5 70.5h123l-180 -850h-160zM1538 173l-36 -183h-160l37 183h-471l26 125l606 542h142l-117 -542h125l-27 -125h-125zM1475 623l-365 -325h295z" />
    <glyph glyph-name="onehalf" unicode="&#xbd;" horiz-adv-x="1907" 
d="M383 -55h-172l1063 1489h176zM321 539l123 586h-221l22 107q67 3 113 12t78.5 27.5t56 47t45.5 70.5h123l-180 -850h-160zM922 -12l29 138q59 37 125 80.5t129 87.5t118.5 85.5t94.5 75.5q49 44 72.5 86t23.5 80q0 54 -28.5 78.5t-90.5 24.5q-66 0 -117.5 -29.5
t-97.5 -77.5l-117 78q60 74 148 118t196 44q283 0 283 -217q0 -81 -36.5 -144t-110.5 -123q-57 -46 -153 -111t-220 -143h434l-29 -131h-653z" />
    <glyph glyph-name="threequarters" unicode="&#xbe;" horiz-adv-x="1907" 
d="M629 -55h-172l1063 1489h176zM1667 171l-36 -183h-160l37 183h-471l26 125l606 542h142l-117 -542h125l-27 -125h-125zM1604 621l-365 -325h295zM773 814q0 -58 -23.5 -111t-71.5 -93.5t-121 -64.5t-173 -24q-114 0 -186.5 41t-98.5 104l129 78q9 -17 25 -33.5t37 -30
t46 -22t54 -8.5q55 0 94.5 13t65 35.5t37.5 52t12 61.5q0 63 -38.5 88.5t-119.5 25.5h-88l27 127h76q48 0 88 9.5t68.5 27.5t44.5 43.5t16 57.5q0 48 -34.5 69t-88.5 21q-65 0 -115 -24.5t-96 -74.5l-115 76q23 28 55 55t74 48t94 34t117 13q79 0 132.5 -16t86 -44t46.5 -66
t14 -81q0 -35 -9.5 -64.5t-31 -54t-56 -44.5t-85.5 -38q54 -26 83 -73t29 -113z" />
    <glyph glyph-name="questiondown" unicode="&#xbf;" horiz-adv-x="1028" 
d="M713 692l-60 -282q-114 -59 -202.5 -110t-149 -105.5t-92 -117t-31.5 -143.5t54 -123t159 -42q52 0 95.5 11t79.5 29.5t64.5 44.5t51.5 56l131 -105q-33 -44 -76 -81t-96.5 -63.5t-118 -41t-141.5 -14.5q-93 0 -167 20t-125.5 60.5t-79 100.5t-27.5 140q0 93 35 170.5
t101.5 146t163 130t220.5 123.5l41 196h170zM561 928q0 25 7.5 50.5t15.5 39.5q18 34 49 47.5t78 13.5q55 0 77.5 -18.5t22.5 -52.5q0 -20 -5 -40.5t-13 -41.5q-16 -39 -46.5 -55.5t-82.5 -16.5q-54 0 -78.5 18t-24.5 56z" />
    <glyph glyph-name="Agrave" unicode="&#xc0;" horiz-adv-x="1262" 
d="M-47 0l747 1384h236l176 -1384h-188l-43 360h-539l-197 -360h-192zM426 528h434l-78 674zM833 1544l-209 361h217l113 -361h-121z" />
    <glyph glyph-name="Aacute" unicode="&#xc1;" horiz-adv-x="1262" 
d="M-47 0l747 1384h236l176 -1384h-188l-43 360h-539l-197 -360h-192zM426 528h434l-78 674zM887 1544h-150l240 361h242z" />
    <glyph glyph-name="Acircumflex" unicode="&#xc2;" horiz-adv-x="1262" 
d="M-47 0l747 1384h236l176 -1384h-188l-43 360h-539l-197 -360h-192zM426 528h434l-78 674zM1020 1544l-129 238l-231 -238h-154l301 361h207l146 -361h-140z" />
    <glyph glyph-name="Atilde" unicode="&#xc3;" horiz-adv-x="1262" 
d="M-47 0l747 1384h236l176 -1384h-188l-43 360h-539l-197 -360h-192zM426 528h434l-78 674zM485 1557q34 131 103.5 196.5t160.5 65.5q58 0 95.5 -22t66 -49t54.5 -49t61 -22q49 0 83 37t48 92h119q-31 -124 -98 -193t-175 -69q-46 0 -77.5 10.5t-55 26.5t-40 34t-32 34
t-32.5 26.5t-39 10.5q-42 0 -74 -33.5t-49 -95.5h-119z" />
    <glyph glyph-name="Adieresis" unicode="&#xc4;" horiz-adv-x="1262" 
d="M-47 0l747 1384h236l176 -1384h-188l-43 360h-539l-197 -360h-192zM426 528h434l-78 674zM793 1690q0 -9 -2 -21.5t-5 -25t-7.5 -23.5t-8.5 -18q-17 -32 -42 -45t-69 -13q-52 0 -71 17.5t-19 48.5q0 6 1.5 16.5t4.5 22.5t6.5 24t8.5 21q14 32 39 47.5t73 15.5
q51 0 71 -16.5t20 -50.5zM1180 1690q0 -9 -2 -21.5t-5 -25t-7.5 -23.5t-8.5 -18q-17 -32 -42 -45t-68 -13q-53 0 -72 17.5t-19 48.5q0 6 1.5 16.5t4.5 22.5t6.5 24t8.5 21q14 32 39.5 47.5t73.5 15.5q51 0 70.5 -16.5t19.5 -50.5z" />
    <glyph glyph-name="Aring" unicode="&#xc5;" horiz-adv-x="1262" 
d="M-47 0l747 1384h236l176 -1384h-188l-43 360h-539l-197 -360h-192zM426 528h434l-78 674zM1077 1718q0 -42 -14 -82t-41.5 -71.5t-69.5 -50.5t-98 -19q-45 0 -76 13t-49.5 35t-26.5 50t-8 58q0 44 16 84t44.5 70.5t69 48.5t89.5 18q79 0 121.5 -41t42.5 -113zM868 1577
q54 0 88.5 35.5t34.5 97.5q0 37 -21 58.5t-67 21.5q-30 0 -53 -12t-38.5 -30.5t-23.5 -42t-8 -46.5q0 -38 18.5 -60t69.5 -22z" />
    <glyph glyph-name="AE" unicode="&#xc6;" horiz-adv-x="1712" 
d="M707 0l79 383h-438l-219 -383h-192l811 1384h1024l-35 -167h-592l-86 -404h516l-37 -168h-516l-100 -477h591l-34 -168h-772zM965 1217h-138l-381 -666h377z" />
    <glyph glyph-name="Ccedilla" unicode="&#xc7;" horiz-adv-x="1280" 
d="M805 -190q0 -101 -78 -153t-215 -52q-38 0 -74 5t-67 12t-53 15.5t-31 14.5l71 100q15 -7 36 -13t43.5 -10.5t45.5 -7t43 -2.5q25 0 52 4t49.5 14.5t36.5 28.5t14 46q0 37 -39 60t-115 28l49 71q-117 2 -202.5 36t-142 96.5t-84 153t-27.5 206.5q0 94 16 201t51.5 212.5
t92 202.5t138 171.5t189 118.5t244.5 44q96 0 170 -18t130 -52.5t95.5 -84t67.5 -111.5l-162 -94q-21 49 -50 86t-68.5 61.5t-90.5 36.5t-117 12q-89 0 -161.5 -34.5t-130 -93.5t-99 -137.5t-69 -166t-41 -179.5t-13.5 -177q0 -156 73 -241t206 -85q74 0 135 15t112 43
t95 68t84 89l127 -114q-40 -50 -85 -94t-100 -78t-122.5 -57t-151.5 -32q-2 -2 -2 -3t-2 -3q66 -20 96.5 -60.5t30.5 -98.5z" />
    <glyph glyph-name="Egrave" unicode="&#xc8;" horiz-adv-x="1130" 
d="M68 0l292 1384h830l-35 -167h-649l-86 -404h555l-35 -168h-555l-102 -477h649l-35 -168h-829zM768 1544l-209 361h217l113 -361h-121z" />
    <glyph glyph-name="Eacute" unicode="&#xc9;" horiz-adv-x="1130" 
d="M68 0l292 1384h830l-35 -167h-649l-86 -404h555l-35 -168h-555l-102 -477h649l-35 -168h-829zM836 1544h-150l240 361h242z" />
    <glyph glyph-name="Ecircumflex" unicode="&#xca;" horiz-adv-x="1130" 
d="M68 0l292 1384h830l-35 -167h-649l-86 -404h555l-35 -168h-555l-102 -477h649l-35 -168h-829zM981 1544l-129 238l-231 -238h-154l301 361h207l146 -361h-140z" />
    <glyph glyph-name="Edieresis" unicode="&#xcb;" horiz-adv-x="1130" 
d="M68 0l292 1384h830l-35 -167h-649l-86 -404h555l-35 -168h-555l-102 -477h649l-35 -168h-829zM725 1690q0 -9 -2 -21.5t-5 -25t-7.5 -23.5t-8.5 -18q-17 -32 -42 -45t-69 -13q-52 0 -71 17.5t-19 48.5q0 6 1.5 16.5t4.5 22.5t6.5 24t8.5 21q14 32 39 47.5t73 15.5
q51 0 71 -16.5t20 -50.5zM1112 1690q0 -9 -2 -21.5t-5 -25t-7.5 -23.5t-8.5 -18q-17 -32 -42 -45t-68 -13q-53 0 -72 17.5t-19 48.5q0 6 1.5 16.5t4.5 22.5t6.5 24t8.5 21q14 32 39.5 47.5t73.5 15.5q51 0 70.5 -16.5t19.5 -50.5z" />
    <glyph glyph-name="Igrave" unicode="&#xcc;" horiz-adv-x="754" 
d="M543 0h-553l33 160h186l227 1067h-186l33 157h553l-33 -157h-187l-227 -1067h186zM558 1544l-209 361h217l113 -361h-121z" />
    <glyph glyph-name="Iacute" unicode="&#xcd;" horiz-adv-x="754" 
d="M543 0h-553l33 160h186l227 1067h-186l33 157h553l-33 -157h-187l-227 -1067h186zM652 1544h-150l240 361h242z" />
    <glyph glyph-name="Icircumflex" unicode="&#xce;" horiz-adv-x="754" 
d="M543 0h-553l33 160h186l227 1067h-186l33 157h553l-33 -157h-187l-227 -1067h186zM783 1544l-129 238l-231 -238h-154l301 361h207l146 -361h-140z" />
    <glyph glyph-name="Idieresis" unicode="&#xcf;" horiz-adv-x="754" 
d="M543 0h-553l33 160h186l227 1067h-186l33 157h553l-33 -157h-187l-227 -1067h186zM542 1690q0 -9 -2 -21.5t-5 -25t-7.5 -23.5t-8.5 -18q-17 -32 -42 -45t-69 -13q-52 0 -71 17.5t-19 48.5q0 6 1.5 16.5t4.5 22.5t6.5 24t8.5 21q14 32 39 47.5t73 15.5q51 0 71 -16.5
t20 -50.5zM929 1690q0 -9 -2 -21.5t-5 -25t-7.5 -23.5t-8.5 -18q-17 -32 -42 -45t-68 -13q-53 0 -72 17.5t-19 48.5q0 6 1.5 16.5t4.5 22.5t6.5 24t8.5 21q14 32 39.5 47.5t73.5 15.5q51 0 70.5 -16.5t19.5 -50.5z" />
    <glyph glyph-name="Eth" unicode="&#xd0;" horiz-adv-x="1266" 
d="M1219 926q0 -49 -6 -111t-19 -130t-33 -139t-48.5 -138.5t-66.5 -127.5t-85 -106q-50 -48 -111 -81.5t-130 -54t-144.5 -29.5t-155.5 -9h-365l131 627h-133l29 141h135l131 616h342q131 0 230 -22.5t165.5 -76t100 -141.5t33.5 -218zM422 168q136 0 234.5 29t166.5 98
q45 45 82.5 119.5t63.5 161.5t40.5 178t14.5 170q0 82 -17.5 138t-61 90.5t-116.5 49.5t-184 15h-149l-97 -449h330l-29 -141h-331l-97 -459h150z" />
    <glyph glyph-name="Ntilde" unicode="&#xd1;" horiz-adv-x="1358" 
d="M870 0l-376 1188l-252 -1188h-174l292 1384h250l346 -1087l232 1087h174l-293 -1384h-199zM506 1557q34 131 103.5 196.5t160.5 65.5q58 0 95.5 -22t66 -49t54.5 -49t61 -22q49 0 83 37t48 92h119q-31 -124 -98 -193t-175 -69q-46 0 -77.5 10.5t-55 26.5t-40 34t-32 34
t-32.5 26.5t-39 10.5q-42 0 -74 -33.5t-49 -95.5h-119z" />
    <glyph glyph-name="Ograve" unicode="&#xd2;" horiz-adv-x="1337" 
d="M582 -29q-132 0 -221 35.5t-143 100.5t-77.5 157t-23.5 205q0 53 6 112.5t18 122.5t31 127.5t45 126.5q40 94 93.5 177t127 145t171.5 97.5t227 35.5q222 0 338 -124t116 -365q0 -79 -14 -185t-49 -219q-36 -116 -90 -216t-131.5 -174t-182 -116.5t-241.5 -42.5zM311 465
q0 -92 15.5 -155t49.5 -102t87.5 -56t128.5 -17q163 0 270.5 105.5t175.5 322.5q15 49 26 99.5t18 98.5t10.5 91t3.5 78q0 161 -65 240t-214 79q-81 0 -144 -24t-113 -68.5t-89 -108.5t-72 -145q-23 -57 -39.5 -117t-27.5 -117t-16 -109.5t-5 -94.5zM897 1544l-209 361h217
l113 -361h-121z" />
    <glyph glyph-name="Oacute" unicode="&#xd3;" horiz-adv-x="1337" 
d="M582 -29q-132 0 -221 35.5t-143 100.5t-77.5 157t-23.5 205q0 53 6 112.5t18 122.5t31 127.5t45 126.5q40 94 93.5 177t127 145t171.5 97.5t227 35.5q222 0 338 -124t116 -365q0 -79 -14 -185t-49 -219q-36 -116 -90 -216t-131.5 -174t-182 -116.5t-241.5 -42.5zM311 465
q0 -92 15.5 -155t49.5 -102t87.5 -56t128.5 -17q163 0 270.5 105.5t175.5 322.5q15 49 26 99.5t18 98.5t10.5 91t3.5 78q0 161 -65 240t-214 79q-81 0 -144 -24t-113 -68.5t-89 -108.5t-72 -145q-23 -57 -39.5 -117t-27.5 -117t-16 -109.5t-5 -94.5zM889 1544h-150l240 361
h242z" />
    <glyph glyph-name="Ocircumflex" unicode="&#xd4;" horiz-adv-x="1337" 
d="M582 -29q-132 0 -221 35.5t-143 100.5t-77.5 157t-23.5 205q0 53 6 112.5t18 122.5t31 127.5t45 126.5q40 94 93.5 177t127 145t171.5 97.5t227 35.5q222 0 338 -124t116 -365q0 -79 -14 -185t-49 -219q-36 -116 -90 -216t-131.5 -174t-182 -116.5t-241.5 -42.5zM311 465
q0 -92 15.5 -155t49.5 -102t87.5 -56t128.5 -17q163 0 270.5 105.5t175.5 322.5q15 49 26 99.5t18 98.5t10.5 91t3.5 78q0 161 -65 240t-214 79q-81 0 -144 -24t-113 -68.5t-89 -108.5t-72 -145q-23 -57 -39.5 -117t-27.5 -117t-16 -109.5t-5 -94.5zM1048 1544l-129 238
l-231 -238h-154l301 361h207l146 -361h-140z" />
    <glyph glyph-name="Otilde" unicode="&#xd5;" horiz-adv-x="1337" 
d="M582 -29q-132 0 -221 35.5t-143 100.5t-77.5 157t-23.5 205q0 53 6 112.5t18 122.5t31 127.5t45 126.5q40 94 93.5 177t127 145t171.5 97.5t227 35.5q222 0 338 -124t116 -365q0 -79 -14 -185t-49 -219q-36 -116 -90 -216t-131.5 -174t-182 -116.5t-241.5 -42.5zM311 465
q0 -92 15.5 -155t49.5 -102t87.5 -56t128.5 -17q163 0 270.5 105.5t175.5 322.5q15 49 26 99.5t18 98.5t10.5 91t3.5 78q0 161 -65 240t-214 79q-81 0 -144 -24t-113 -68.5t-89 -108.5t-72 -145q-23 -57 -39.5 -117t-27.5 -117t-16 -109.5t-5 -94.5zM504 1557
q34 131 103.5 196.5t160.5 65.5q58 0 95.5 -22t66 -49t54.5 -49t61 -22q49 0 83 37t48 92h119q-31 -124 -98 -193t-175 -69q-46 0 -77.5 10.5t-55 26.5t-40 34t-32 34t-32.5 26.5t-39 10.5q-42 0 -74 -33.5t-49 -95.5h-119z" />
    <glyph glyph-name="Odieresis" unicode="&#xd6;" horiz-adv-x="1337" 
d="M582 -29q-132 0 -221 35.5t-143 100.5t-77.5 157t-23.5 205q0 53 6 112.5t18 122.5t31 127.5t45 126.5q40 94 93.5 177t127 145t171.5 97.5t227 35.5q222 0 338 -124t116 -365q0 -79 -14 -185t-49 -219q-36 -116 -90 -216t-131.5 -174t-182 -116.5t-241.5 -42.5zM311 465
q0 -92 15.5 -155t49.5 -102t87.5 -56t128.5 -17q163 0 270.5 105.5t175.5 322.5q15 49 26 99.5t18 98.5t10.5 91t3.5 78q0 161 -65 240t-214 79q-81 0 -144 -24t-113 -68.5t-89 -108.5t-72 -145q-23 -57 -39.5 -117t-27.5 -117t-16 -109.5t-5 -94.5zM813 1690q0 -9 -2 -21.5
t-5 -25t-7.5 -23.5t-8.5 -18q-17 -32 -42 -45t-69 -13q-52 0 -71 17.5t-19 48.5q0 6 1.5 16.5t4.5 22.5t6.5 24t8.5 21q14 32 39 47.5t73 15.5q51 0 71 -16.5t20 -50.5zM1200 1690q0 -9 -2 -21.5t-5 -25t-7.5 -23.5t-8.5 -18q-17 -32 -42 -45t-68 -13q-53 0 -72 17.5
t-19 48.5q0 6 1.5 16.5t4.5 22.5t6.5 24t8.5 21q14 32 39.5 47.5t73.5 15.5q51 0 70.5 -16.5t19.5 -50.5z" />
    <glyph glyph-name="multiply" unicode="&#xd7;" horiz-adv-x="1427" 
d="M1141 78l-408 407l-405 -407l-103 102l408 406l-408 407l103 101l405 -406l408 406l100 -101l-405 -407l405 -406z" />
    <glyph glyph-name="Oslash" unicode="&#xd8;" horiz-adv-x="1337" 
d="M-68 -115l246 281q-34 60 -47.5 136t-13.5 167q0 88 16 192t51 209t90.5 203t135.5 173.5t185.5 121t240.5 45.5q218 0 331 -115l166 191h166l-258 -295q49 -110 49 -270q0 -59 -7.5 -131t-24.5 -150t-45 -158.5t-68 -155t-94 -140t-123.5 -114t-155.5 -76.5t-190 -28
q-112 0 -191 24.5t-135 72.5l-158 -183h-166zM602 135q95 0 169 41.5t129 109.5t93 153.5t61 174t33.5 171.5t10.5 145q0 48 -6 92l-711 -811q70 -76 221 -76zM311 465q0 -35 3 -69.5t10 -63.5l718 823q-66 94 -225 94q-98 0 -173.5 -40.5t-131.5 -106.5t-94.5 -150.5
t-62 -171.5t-34 -169.5t-10.5 -145.5z" />
    <glyph glyph-name="Ugrave" unicode="&#xd9;" horiz-adv-x="1376" 
d="M1210 578q-38 -182 -90.5 -299.5t-126.5 -186.5t-174 -96t-233 -27q-115 0 -196 24t-132 70t-74.5 114t-23.5 157q0 111 35 266l165 784h181l-166 -786q-8 -35 -14 -66.5t-10.5 -63t-6.5 -64.5t-2 -70q0 -99 60 -150t190 -51q98 0 168 22t121 77t87 146.5t66 231.5
l166 774h180zM870 1544l-209 361h217l113 -361h-121z" />
    <glyph glyph-name="Uacute" unicode="&#xda;" horiz-adv-x="1376" 
d="M1210 578q-38 -182 -90.5 -299.5t-126.5 -186.5t-174 -96t-233 -27q-115 0 -196 24t-132 70t-74.5 114t-23.5 157q0 111 35 266l165 784h181l-166 -786q-8 -35 -14 -66.5t-10.5 -63t-6.5 -64.5t-2 -70q0 -99 60 -150t190 -51q98 0 168 22t121 77t87 146.5t66 231.5
l166 774h180zM905 1544h-150l240 361h242z" />
    <glyph glyph-name="Ucircumflex" unicode="&#xdb;" horiz-adv-x="1376" 
d="M1210 578q-38 -182 -90.5 -299.5t-126.5 -186.5t-174 -96t-233 -27q-115 0 -196 24t-132 70t-74.5 114t-23.5 157q0 111 35 266l165 784h181l-166 -786q-8 -35 -14 -66.5t-10.5 -63t-6.5 -64.5t-2 -70q0 -99 60 -150t190 -51q98 0 168 22t121 77t87 146.5t66 231.5
l166 774h180zM1087 1544l-129 238l-231 -238h-154l301 361h207l146 -361h-140z" />
    <glyph glyph-name="Udieresis" unicode="&#xdc;" horiz-adv-x="1376" 
d="M1210 578q-38 -182 -90.5 -299.5t-126.5 -186.5t-174 -96t-233 -27q-115 0 -196 24t-132 70t-74.5 114t-23.5 157q0 111 35 266l165 784h181l-166 -786q-8 -35 -14 -66.5t-10.5 -63t-6.5 -64.5t-2 -70q0 -99 60 -150t190 -51q98 0 168 22t121 77t87 146.5t66 231.5
l166 774h180zM846 1690q0 -9 -2 -21.5t-5 -25t-7.5 -23.5t-8.5 -18q-17 -32 -42 -45t-69 -13q-52 0 -71 17.5t-19 48.5q0 6 1.5 16.5t4.5 22.5t6.5 24t8.5 21q14 32 39 47.5t73 15.5q51 0 71 -16.5t20 -50.5zM1233 1690q0 -9 -2 -21.5t-5 -25t-7.5 -23.5t-8.5 -18
q-17 -32 -42 -45t-68 -13q-53 0 -72 17.5t-19 48.5q0 6 1.5 16.5t4.5 22.5t6.5 24t8.5 21q14 32 39.5 47.5t73.5 15.5q51 0 70.5 -16.5t19.5 -50.5z" />
    <glyph glyph-name="Yacute" unicode="&#xdd;" horiz-adv-x="1124" 
d="M655 535l-112 -535h-185l111 526l-246 858h189l180 -673l463 673h211zM793 1544h-150l240 361h242z" />
    <glyph glyph-name="Thorn" unicode="&#xde;" horiz-adv-x="1157" 
d="M1122 854q0 -123 -30 -232t-97.5 -191t-175.5 -129.5t-264 -47.5h-254l-53 -254h-180l292 1384h181l-45 -215h227q94 0 168.5 -16t125.5 -52.5t78 -97t27 -149.5zM573 422q69 0 122 17t92.5 46t66 68.5t42.5 85t23 94.5t7 98q0 43 -11 75t-37 53t-70 31.5t-110 10.5h-237
l-123 -579h235z" />
    <glyph glyph-name="germandbls" unicode="&#xdf;" horiz-adv-x="1149" 
d="M55 0l226 1061q23 109 61 194.5t95 144t134 89.5t177 31q177 0 261.5 -73t84.5 -216q0 -65 -22 -121.5t-64 -103t-103.5 -81t-140.5 -53.5q136 -17 203 -94t67 -200q0 -81 -20 -169.5t-58 -168.5q-62 -131 -169.5 -201t-270.5 -70q-42 0 -90 9.5t-88 21.5l33 162
q37 -19 81 -30t91 -11q88 0 146.5 44t98.5 132q28 59 47 129t19 139q0 67 -25 109t-69.5 65t-105 31t-132.5 8l33 152q70 0 136 17.5t116 54t80.5 93t30.5 134.5q0 74 -45 107.5t-130 33.5q-65 0 -113 -20t-83 -60.5t-59 -102.5t-42 -145l-221 -1042h-170z" />
    <glyph glyph-name="agrave" unicode="&#xe0;" horiz-adv-x="1151" 
d="M92 342q0 70 13.5 151.5t41 163.5t71 158t103 135t136.5 94t172 35q96 0 162.5 -30.5t115.5 -85.5l19 86h170l-222 -1049h-169l26 125q-37 -32 -75 -60t-78.5 -49.5t-85 -34t-93.5 -12.5q-83 0 -141.5 24.5t-95 72t-53.5 117t-17 159.5zM877 813q-50 54 -108 83.5
t-144 29.5q-62 0 -112.5 -27t-90.5 -73t-69.5 -106t-48.5 -125t-28.5 -131.5t-9.5 -125.5q0 -116 40.5 -165.5t127.5 -49.5q45 0 89 12.5t86 34t81 49.5t74 60zM644 1208l-209 361h217l113 -361h-121z" />
    <glyph glyph-name="aacute" unicode="&#xe1;" horiz-adv-x="1151" 
d="M92 342q0 70 13.5 151.5t41 163.5t71 158t103 135t136.5 94t172 35q96 0 162.5 -30.5t115.5 -85.5l19 86h170l-222 -1049h-169l26 125q-37 -32 -75 -60t-78.5 -49.5t-85 -34t-93.5 -12.5q-83 0 -141.5 24.5t-95 72t-53.5 117t-17 159.5zM877 813q-50 54 -108 83.5
t-144 29.5q-62 0 -112.5 -27t-90.5 -73t-69.5 -106t-48.5 -125t-28.5 -131.5t-9.5 -125.5q0 -116 40.5 -165.5t127.5 -49.5q45 0 89 12.5t86 34t81 49.5t74 60zM710 1208h-150l240 361h242z" />
    <glyph glyph-name="acircumflex" unicode="&#xe2;" horiz-adv-x="1151" 
d="M92 342q0 70 13.5 151.5t41 163.5t71 158t103 135t136.5 94t172 35q96 0 162.5 -30.5t115.5 -85.5l19 86h170l-222 -1049h-169l26 125q-37 -32 -75 -60t-78.5 -49.5t-85 -34t-93.5 -12.5q-83 0 -141.5 24.5t-95 72t-53.5 117t-17 159.5zM877 813q-50 54 -108 83.5
t-144 29.5q-62 0 -112.5 -27t-90.5 -73t-69.5 -106t-48.5 -125t-28.5 -131.5t-9.5 -125.5q0 -116 40.5 -165.5t127.5 -49.5q45 0 89 12.5t86 34t81 49.5t74 60zM870 1208l-129 238l-231 -238h-154l301 361h207l146 -361h-140z" />
    <glyph glyph-name="atilde" unicode="&#xe3;" horiz-adv-x="1151" 
d="M92 342q0 70 13.5 151.5t41 163.5t71 158t103 135t136.5 94t172 35q96 0 162.5 -30.5t115.5 -85.5l19 86h170l-222 -1049h-169l26 125q-37 -32 -75 -60t-78.5 -49.5t-85 -34t-93.5 -12.5q-83 0 -141.5 24.5t-95 72t-53.5 117t-17 159.5zM877 813q-50 54 -108 83.5
t-144 29.5q-62 0 -112.5 -27t-90.5 -73t-69.5 -106t-48.5 -125t-28.5 -131.5t-9.5 -125.5q0 -116 40.5 -165.5t127.5 -49.5q45 0 89 12.5t86 34t81 49.5t74 60zM315 1221q34 131 103.5 196.5t160.5 65.5q58 0 95.5 -22t66 -49t54.5 -49t61 -22q49 0 83 37t48 92h119
q-31 -124 -98 -193t-175 -69q-46 0 -77.5 10.5t-55 26.5t-40 34t-32 34t-32.5 26.5t-39 10.5q-42 0 -74 -33.5t-49 -95.5h-119z" />
    <glyph glyph-name="adieresis" unicode="&#xe4;" horiz-adv-x="1151" 
d="M92 342q0 70 13.5 151.5t41 163.5t71 158t103 135t136.5 94t172 35q96 0 162.5 -30.5t115.5 -85.5l19 86h170l-222 -1049h-169l26 125q-37 -32 -75 -60t-78.5 -49.5t-85 -34t-93.5 -12.5q-83 0 -141.5 24.5t-95 72t-53.5 117t-17 159.5zM877 813q-50 54 -108 83.5
t-144 29.5q-62 0 -112.5 -27t-90.5 -73t-69.5 -106t-48.5 -125t-28.5 -131.5t-9.5 -125.5q0 -116 40.5 -165.5t127.5 -49.5q45 0 89 12.5t86 34t81 49.5t74 60zM622 1354q0 -9 -2 -21.5t-5 -25t-7.5 -23.5t-8.5 -18q-17 -32 -42 -45t-69 -13q-52 0 -71 17.5t-19 48.5
q0 6 1.5 16.5t4.5 22.5t6.5 24t8.5 21q14 32 39 47.5t73 15.5q51 0 71 -16.5t20 -50.5zM1009 1354q0 -9 -2 -21.5t-5 -25t-7.5 -23.5t-8.5 -18q-17 -32 -42 -45t-68 -13q-53 0 -72 17.5t-19 48.5q0 6 1.5 16.5t4.5 22.5t6.5 24t8.5 21q14 32 39.5 47.5t73.5 15.5
q51 0 70.5 -16.5t19.5 -50.5z" />
    <glyph glyph-name="aring" unicode="&#xe5;" horiz-adv-x="1151" 
d="M92 342q0 70 13.5 151.5t41 163.5t71 158t103 135t136.5 94t172 35q96 0 162.5 -30.5t115.5 -85.5l19 86h170l-222 -1049h-169l26 125q-37 -32 -75 -60t-78.5 -49.5t-85 -34t-93.5 -12.5q-83 0 -141.5 24.5t-95 72t-53.5 117t-17 159.5zM877 813q-50 54 -108 83.5
t-144 29.5q-62 0 -112.5 -27t-90.5 -73t-69.5 -106t-48.5 -125t-28.5 -131.5t-9.5 -125.5q0 -116 40.5 -165.5t127.5 -49.5q45 0 89 12.5t86 34t81 49.5t74 60zM896 1382q0 -42 -14 -82t-41.5 -71.5t-69.5 -50.5t-98 -19q-45 0 -76 13t-49.5 35t-26.5 50t-8 58q0 44 16 84
t44.5 70.5t69 48.5t89.5 18q79 0 121.5 -41t42.5 -113zM687 1241q54 0 88.5 35.5t34.5 97.5q0 37 -21 58.5t-67 21.5q-30 0 -53 -12t-38.5 -30.5t-23.5 -42t-8 -46.5q0 -38 18.5 -60t69.5 -22z" />
    <glyph glyph-name="ae" unicode="&#xe6;" horiz-adv-x="1690" 
d="M915 504q-9 -47 -14.5 -88t-5.5 -78q0 -63 13.5 -105t41.5 -67.5t72 -36t104 -10.5q69 0 135 35t128 100l106 -98q-39 -45 -81.5 -79.5t-91.5 -58.5t-106 -36.5t-124 -12.5q-127 0 -213.5 45.5t-126.5 141.5q-127 -94 -241 -140.5t-216 -46.5q-122 0 -185 68t-63 196
q0 93 36.5 166t100.5 125.5t151.5 83.5t188.5 39l258 23l11 51q6 36 6 65q0 41 -14 68.5t-40 44.5t-62 24t-81 7q-96 0 -167 -32t-113 -85l-119 86q63 83 161.5 131.5t239.5 48.5q152 0 231.5 -39t104.5 -120q31 37 66 67t77.5 50t94 31t114.5 11q82 0 144 -23.5t104 -66
t63 -103t21 -134.5q0 -10 -1.5 -29t-3.5 -41t-5 -44t-6 -38l-21 -96h-672zM721 334q0 34 8 85.5t25 112.5l-170 -16q-63 -5 -126.5 -19t-115 -44t-83.5 -81t-32 -130q0 -62 35 -90.5t92 -28.5q39 0 80 9t85.5 27.5t94.5 47.5t109 69q-2 14 -2 28v30zM1448 639q12 58 12 109
q0 91 -45 139.5t-145 48.5q-71 0 -125.5 -24t-97.5 -76q-57 -71 -101 -197h502z" />
    <glyph glyph-name="ccedilla" unicode="&#xe7;" horiz-adv-x="1010" 
d="M647 -190q0 -101 -77.5 -153t-215.5 -52q-38 0 -74 5t-66.5 12t-53 15.5t-31.5 14.5l72 100q15 -7 36 -13t43.5 -10.5t45.5 -7t43 -2.5q25 0 52 4t49 14.5t36 28.5t14 46q0 37 -39 60t-114 28l49 71q-87 6 -149 36t-101 79.5t-57.5 117.5t-18.5 152q0 68 13.5 148
t42.5 160t74.5 155t109.5 133t147.5 92.5t188.5 34.5q125 0 212 -47.5t126 -144.5l-152 -82q-25 62 -73 93.5t-130 31.5q-65 0 -119 -26.5t-96.5 -71t-74 -103t-52.5 -123t-31 -131.5t-10 -127q0 -51 11 -93.5t36.5 -72.5t66.5 -46.5t101 -16.5q41 0 76 9.5t67 27t61.5 43.5
t59.5 59l117 -96q-60 -77 -142.5 -128t-199.5 -65q66 -20 96.5 -60.5t30.5 -98.5z" />
    <glyph glyph-name="egrave" unicode="&#xe8;" horiz-adv-x="1059" 
d="M285 504q-10 -47 -15.5 -88t-5.5 -78q0 -63 13.5 -105t42 -67.5t72 -36t104.5 -10.5q68 0 134 35t128 100l106 -98q-78 -89 -171.5 -138t-217.5 -49q-189 0 -288 91t-99 280q0 61 10 129t30 136.5t49 133.5t67 121q67 101 168 160t250 59q82 0 144 -23.5t103.5 -66
t62.5 -103t21 -134.5q0 -10 -1.5 -29t-3.5 -41t-5 -44t-6 -38l-21 -96h-671zM817 639q12 58 12 109q0 91 -45 139.5t-145 48.5q-71 0 -125.5 -24t-97.5 -76q-57 -71 -101 -197h502zM712 1208l-209 361h217l113 -361h-121z" />
    <glyph glyph-name="eacute" unicode="&#xe9;" horiz-adv-x="1059" 
d="M285 504q-10 -47 -15.5 -88t-5.5 -78q0 -63 13.5 -105t42 -67.5t72 -36t104.5 -10.5q68 0 134 35t128 100l106 -98q-78 -89 -171.5 -138t-217.5 -49q-189 0 -288 91t-99 280q0 61 10 129t30 136.5t49 133.5t67 121q67 101 168 160t250 59q82 0 144 -23.5t103.5 -66
t62.5 -103t21 -134.5q0 -10 -1.5 -29t-3.5 -41t-5 -44t-6 -38l-21 -96h-671zM817 639q12 58 12 109q0 91 -45 139.5t-145 48.5q-71 0 -125.5 -24t-97.5 -76q-57 -71 -101 -197h502zM718 1208h-150l240 361h242z" />
    <glyph glyph-name="ecircumflex" unicode="&#xea;" horiz-adv-x="1059" 
d="M285 504q-10 -47 -15.5 -88t-5.5 -78q0 -63 13.5 -105t42 -67.5t72 -36t104.5 -10.5q68 0 134 35t128 100l106 -98q-78 -89 -171.5 -138t-217.5 -49q-189 0 -288 91t-99 280q0 61 10 129t30 136.5t49 133.5t67 121q67 101 168 160t250 59q82 0 144 -23.5t103.5 -66
t62.5 -103t21 -134.5q0 -10 -1.5 -29t-3.5 -41t-5 -44t-6 -38l-21 -96h-671zM817 639q12 58 12 109q0 91 -45 139.5t-145 48.5q-71 0 -125.5 -24t-97.5 -76q-57 -71 -101 -197h502zM861 1208l-129 238l-231 -238h-154l301 361h207l146 -361h-140z" />
    <glyph glyph-name="edieresis" unicode="&#xeb;" horiz-adv-x="1059" 
d="M285 504q-10 -47 -15.5 -88t-5.5 -78q0 -63 13.5 -105t42 -67.5t72 -36t104.5 -10.5q68 0 134 35t128 100l106 -98q-78 -89 -171.5 -138t-217.5 -49q-189 0 -288 91t-99 280q0 61 10 129t30 136.5t49 133.5t67 121q67 101 168 160t250 59q82 0 144 -23.5t103.5 -66
t62.5 -103t21 -134.5q0 -10 -1.5 -29t-3.5 -41t-5 -44t-6 -38l-21 -96h-671zM817 639q12 58 12 109q0 91 -45 139.5t-145 48.5q-71 0 -125.5 -24t-97.5 -76q-57 -71 -101 -197h502zM639 1354q0 -9 -2 -21.5t-5 -25t-7.5 -23.5t-8.5 -18q-17 -32 -42 -45t-69 -13
q-52 0 -71 17.5t-19 48.5q0 6 1.5 16.5t4.5 22.5t6.5 24t8.5 21q14 32 39 47.5t73 15.5q51 0 71 -16.5t20 -50.5zM1026 1354q0 -9 -2 -21.5t-5 -25t-7.5 -23.5t-8.5 -18q-17 -32 -42 -45t-68 -13q-53 0 -72 17.5t-19 48.5q0 6 1.5 16.5t4.5 22.5t6.5 24t8.5 21
q14 32 39.5 47.5t73.5 15.5q51 0 70.5 -16.5t19.5 -50.5z" />
    <glyph glyph-name="igrave" unicode="&#xec;" horiz-adv-x="502" 
d="M55 0l221 1049h170l-221 -1049h-170zM378 1208l-209 361h217l113 -361h-121z" />
    <glyph glyph-name="iacute" unicode="&#xed;" horiz-adv-x="502" 
d="M55 0l221 1049h170l-221 -1049h-170zM431 1208h-150l240 361h242z" />
    <glyph glyph-name="icircumflex" unicode="&#xee;" horiz-adv-x="502" 
d="M55 0l221 1049h170l-221 -1049h-170zM564 1208l-129 238l-231 -238h-154l301 361h207l146 -361h-140z" />
    <glyph glyph-name="idieresis" unicode="&#xef;" horiz-adv-x="502" 
d="M55 0l221 1049h170l-221 -1049h-170zM323 1354q0 -9 -2 -21.5t-5 -25t-7.5 -23.5t-8.5 -18q-17 -32 -42 -45t-69 -13q-52 0 -71 17.5t-19 48.5q0 6 1.5 16.5t4.5 22.5t6.5 24t8.5 21q14 32 39 47.5t73 15.5q51 0 71 -16.5t20 -50.5zM710 1354q0 -9 -2 -21.5t-5 -25
t-7.5 -23.5t-8.5 -18q-17 -32 -42 -45t-68 -13q-53 0 -72 17.5t-19 48.5q0 6 1.5 16.5t4.5 22.5t6.5 24t8.5 21q14 32 39.5 47.5t73.5 15.5q51 0 70.5 -16.5t19.5 -50.5z" />
    <glyph glyph-name="eth" unicode="&#xf0;" horiz-adv-x="1135" 
d="M850 967q-7 42 -22.5 90t-35 93t-40.5 83.5t-39 62.5l-209 -108l-41 80l199 102q-15 20 -33 41.5t-36.5 41.5t-36 37.5t-32.5 29.5h172q22 -16 46 -40t42 -44l160 80l41 -78l-139 -72q45 -56 82 -125.5t64 -150.5t42 -172.5t15 -190.5t-20.5 -210t-74.5 -226
q-32 -68 -75 -126.5t-103 -102t-139.5 -68.5t-185.5 -25q-181 0 -270 102.5t-89 303.5q0 27 4 63.5t12.5 78.5t22 88.5t33.5 92.5q34 80 81 145t106 110.5t131.5 70.5t158.5 25q59 0 111.5 -19.5t97.5 -62.5zM266 356q0 -56 10.5 -100t35.5 -74.5t67 -46.5t104 -16
q104 0 184.5 58.5t125.5 158.5q32 75 51.5 161.5t19.5 174.5q0 103 -52.5 165t-164.5 62q-54 0 -101 -16.5t-87 -47t-71.5 -73t-53.5 -94.5q-31 -75 -49.5 -151t-18.5 -161z" />
    <glyph glyph-name="ntilde" unicode="&#xf1;" horiz-adv-x="1141" 
d="M702 0l132 618q12 57 19 105t7 96q0 47 -25.5 75t-80.5 28q-79 0 -175 -48t-196 -133l-158 -741h-170l221 1049h170l-32 -156q44 40 90.5 74.5t94 59t96.5 38.5t98 14q67 0 112.5 -18t73.5 -50t40.5 -76t12.5 -95q0 -37 -8.5 -93t-24.5 -129l-129 -618h-168zM340 1221
q34 131 103.5 196.5t160.5 65.5q58 0 95.5 -22t66 -49t54.5 -49t61 -22q49 0 83 37t48 92h119q-31 -124 -98 -193t-175 -69q-46 0 -77.5 10.5t-55 26.5t-40 34t-32 34t-32.5 26.5t-39 10.5q-42 0 -74 -33.5t-49 -95.5h-119z" />
    <glyph glyph-name="ograve" unicode="&#xf2;" horiz-adv-x="1135" 
d="M92 379q0 54 10.5 121t33.5 138.5t59.5 141.5t89.5 129q33 38 72.5 69t87 53.5t102.5 35t119 12.5q179 0 277.5 -101t98.5 -306q0 -62 -11.5 -135.5t-37 -148.5t-66 -146.5t-98.5 -128.5q-65 -65 -151.5 -104.5t-200.5 -39.5q-105 0 -178.5 26.5t-119 78t-66.5 128
t-21 177.5zM266 369q0 -65 12 -112.5t38.5 -78t68.5 -45t102 -14.5q72 0 129.5 29.5t102.5 80.5q35 40 63 93t47 112t29 120.5t10 117.5q0 133 -53.5 195.5t-165.5 62.5q-81 0 -144 -37.5t-108 -97.5q-31 -41 -55 -93t-41 -108t-26 -114t-9 -111zM683 1208l-209 361h217
l113 -361h-121z" />
    <glyph glyph-name="oacute" unicode="&#xf3;" horiz-adv-x="1135" 
d="M92 379q0 54 10.5 121t33.5 138.5t59.5 141.5t89.5 129q33 38 72.5 69t87 53.5t102.5 35t119 12.5q179 0 277.5 -101t98.5 -306q0 -62 -11.5 -135.5t-37 -148.5t-66 -146.5t-98.5 -128.5q-65 -65 -151.5 -104.5t-200.5 -39.5q-105 0 -178.5 26.5t-119 78t-66.5 128
t-21 177.5zM266 369q0 -65 12 -112.5t38.5 -78t68.5 -45t102 -14.5q72 0 129.5 29.5t102.5 80.5q35 40 63 93t47 112t29 120.5t10 117.5q0 133 -53.5 195.5t-165.5 62.5q-81 0 -144 -37.5t-108 -97.5q-31 -41 -55 -93t-41 -108t-26 -114t-9 -111zM726 1208h-150l240 361h242
z" />
    <glyph glyph-name="ocircumflex" unicode="&#xf4;" horiz-adv-x="1135" 
d="M92 379q0 54 10.5 121t33.5 138.5t59.5 141.5t89.5 129q33 38 72.5 69t87 53.5t102.5 35t119 12.5q179 0 277.5 -101t98.5 -306q0 -62 -11.5 -135.5t-37 -148.5t-66 -146.5t-98.5 -128.5q-65 -65 -151.5 -104.5t-200.5 -39.5q-105 0 -178.5 26.5t-119 78t-66.5 128
t-21 177.5zM266 369q0 -65 12 -112.5t38.5 -78t68.5 -45t102 -14.5q72 0 129.5 29.5t102.5 80.5q35 40 63 93t47 112t29 120.5t10 117.5q0 133 -53.5 195.5t-165.5 62.5q-81 0 -144 -37.5t-108 -97.5q-31 -41 -55 -93t-41 -108t-26 -114t-9 -111zM880 1208l-129 238
l-231 -238h-154l301 361h207l146 -361h-140z" />
    <glyph glyph-name="otilde" unicode="&#xf5;" horiz-adv-x="1135" 
d="M92 379q0 54 10.5 121t33.5 138.5t59.5 141.5t89.5 129q33 38 72.5 69t87 53.5t102.5 35t119 12.5q179 0 277.5 -101t98.5 -306q0 -62 -11.5 -135.5t-37 -148.5t-66 -146.5t-98.5 -128.5q-65 -65 -151.5 -104.5t-200.5 -39.5q-105 0 -178.5 26.5t-119 78t-66.5 128
t-21 177.5zM266 369q0 -65 12 -112.5t38.5 -78t68.5 -45t102 -14.5q72 0 129.5 29.5t102.5 80.5q35 40 63 93t47 112t29 120.5t10 117.5q0 133 -53.5 195.5t-165.5 62.5q-81 0 -144 -37.5t-108 -97.5q-31 -41 -55 -93t-41 -108t-26 -114t-9 -111zM336 1221
q34 131 103.5 196.5t160.5 65.5q58 0 95.5 -22t66 -49t54.5 -49t61 -22q49 0 83 37t48 92h119q-31 -124 -98 -193t-175 -69q-46 0 -77.5 10.5t-55 26.5t-40 34t-32 34t-32.5 26.5t-39 10.5q-42 0 -74 -33.5t-49 -95.5h-119z" />
    <glyph glyph-name="odieresis" unicode="&#xf6;" horiz-adv-x="1135" 
d="M92 379q0 54 10.5 121t33.5 138.5t59.5 141.5t89.5 129q33 38 72.5 69t87 53.5t102.5 35t119 12.5q179 0 277.5 -101t98.5 -306q0 -62 -11.5 -135.5t-37 -148.5t-66 -146.5t-98.5 -128.5q-65 -65 -151.5 -104.5t-200.5 -39.5q-105 0 -178.5 26.5t-119 78t-66.5 128
t-21 177.5zM266 369q0 -65 12 -112.5t38.5 -78t68.5 -45t102 -14.5q72 0 129.5 29.5t102.5 80.5q35 40 63 93t47 112t29 120.5t10 117.5q0 133 -53.5 195.5t-165.5 62.5q-81 0 -144 -37.5t-108 -97.5q-31 -41 -55 -93t-41 -108t-26 -114t-9 -111zM648 1354q0 -9 -2 -21.5
t-5 -25t-7.5 -23.5t-8.5 -18q-17 -32 -42 -45t-69 -13q-52 0 -71 17.5t-19 48.5q0 6 1.5 16.5t4.5 22.5t6.5 24t8.5 21q14 32 39 47.5t73 15.5q51 0 71 -16.5t20 -50.5zM1035 1354q0 -9 -2 -21.5t-5 -25t-7.5 -23.5t-8.5 -18q-17 -32 -42 -45t-68 -13q-53 0 -72 17.5
t-19 48.5q0 6 1.5 16.5t4.5 22.5t6.5 24t8.5 21q14 32 39.5 47.5t73.5 15.5q51 0 70.5 -16.5t19.5 -50.5z" />
    <glyph glyph-name="divide" unicode="&#xf7;" horiz-adv-x="1427" 
d="M643 948v180h180v-180h-180zM184 514v143h1100v-143h-1100zM643 43v180h180v-180h-180z" />
    <glyph glyph-name="oslash" unicode="&#xf8;" horiz-adv-x="1135" 
d="M-27 -76l172 197q-53 96 -53 258q0 58 12 132.5t39.5 152.5t71.5 152.5t108 133t149 94t194 35.5q77 0 139 -19.5t110 -60.5l109 125h152l-187 -213q25 -48 39 -107.5t14 -131.5q0 -64 -12.5 -141t-40.5 -155t-72 -151.5t-107 -130t-145.5 -91t-187.5 -34.5
q-83 0 -146 17t-108 49l-98 -111h-152zM868 672q0 25 -1.5 47.5t-6.5 44.5l-526 -602q49 -43 149 -43q64 0 117.5 24.5t96 66t75 96.5t54 116.5t32 125.5t10.5 124zM266 369q0 -28 1.5 -53.5t6.5 -47.5l531 606q-26 26 -64 41t-88 15q-69 0 -124.5 -27t-98.5 -71.5
t-74 -102.5t-51 -120.5t-29.5 -124.5t-9.5 -115z" />
    <glyph glyph-name="ugrave" unicode="&#xf9;" horiz-adv-x="1141" 
d="M436 1049l-129 -619q-12 -57 -20 -103.5t-8 -88.5q0 -60 25 -85.5t79 -25.5q80 0 176.5 47.5t196.5 132.5l157 742h170l-221 -1049h-170l33 156q-45 -41 -91 -75.5t-94 -59t-96.5 -38.5t-97.5 -14q-67 0 -112.5 18t-74 50.5t-41 76.5t-12.5 95q0 37 9 93t24 128l129 619
h168zM673 1208l-209 361h217l113 -361h-121z" />
    <glyph glyph-name="uacute" unicode="&#xfa;" horiz-adv-x="1141" 
d="M436 1049l-129 -619q-12 -57 -20 -103.5t-8 -88.5q0 -60 25 -85.5t79 -25.5q80 0 176.5 47.5t196.5 132.5l157 742h170l-221 -1049h-170l33 156q-45 -41 -91 -75.5t-94 -59t-96.5 -38.5t-97.5 -14q-67 0 -112.5 18t-74 50.5t-41 76.5t-12.5 95q0 37 9 93t24 128l129 619
h168zM720 1208h-150l240 361h242z" />
    <glyph glyph-name="ucircumflex" unicode="&#xfb;" horiz-adv-x="1141" 
d="M436 1049l-129 -619q-12 -57 -20 -103.5t-8 -88.5q0 -60 25 -85.5t79 -25.5q80 0 176.5 47.5t196.5 132.5l157 742h170l-221 -1049h-170l33 156q-45 -41 -91 -75.5t-94 -59t-96.5 -38.5t-97.5 -14q-67 0 -112.5 18t-74 50.5t-41 76.5t-12.5 95q0 37 9 93t24 128l129 619
h168zM882 1208l-129 238l-231 -238h-154l301 361h207l146 -361h-140z" />
    <glyph glyph-name="udieresis" unicode="&#xfc;" horiz-adv-x="1141" 
d="M436 1049l-129 -619q-12 -57 -20 -103.5t-8 -88.5q0 -60 25 -85.5t79 -25.5q80 0 176.5 47.5t196.5 132.5l157 742h170l-221 -1049h-170l33 156q-45 -41 -91 -75.5t-94 -59t-96.5 -38.5t-97.5 -14q-67 0 -112.5 18t-74 50.5t-41 76.5t-12.5 95q0 37 9 93t24 128l129 619
h168zM641 1354q0 -9 -2 -21.5t-5 -25t-7.5 -23.5t-8.5 -18q-17 -32 -42 -45t-69 -13q-52 0 -71 17.5t-19 48.5q0 6 1.5 16.5t4.5 22.5t6.5 24t8.5 21q14 32 39 47.5t73 15.5q51 0 71 -16.5t20 -50.5zM1028 1354q0 -9 -2 -21.5t-5 -25t-7.5 -23.5t-8.5 -18q-17 -32 -42 -45
t-68 -13q-53 0 -72 17.5t-19 48.5q0 6 1.5 16.5t4.5 22.5t6.5 24t8.5 21q14 32 39.5 47.5t73.5 15.5q51 0 70.5 -16.5t19.5 -50.5z" />
    <glyph glyph-name="yacute" unicode="&#xfd;" horiz-adv-x="1020" 
d="M-121 -227q22 -11 50.5 -18t60.5 -7q37 0 70.5 12t66 39t66.5 71.5t73 109.5l56 90l-164 979h172l119 -783l448 783h186l-677 -1129q-53 -87 -98.5 -147t-93.5 -97.5t-103.5 -54t-126.5 -16.5q-23 0 -46.5 2.5t-45.5 6.5t-41.5 9.5t-34.5 11.5zM691 1208h-150l240 361
h242z" />
    <glyph glyph-name="thorn" unicode="&#xfe;" horiz-adv-x="1151" 
d="M141 -395h-170l400 1884h170l-115 -545q34 28 71 53t77.5 43t84.5 28.5t93 10.5q83 0 142 -24.5t96.5 -72t55 -116.5t17.5 -159q0 -68 -13 -149.5t-41 -163.5t-71.5 -158.5t-104 -136t-139 -95t-176.5 -35.5q-93 0 -159 30.5t-115 86.5zM274 236q50 -54 106.5 -83.5
t133.5 -29.5q61 0 112.5 27.5t92.5 73.5t71.5 106t51.5 125.5t31 131.5t10 124q0 115 -40 165t-126 50q-45 0 -89.5 -11.5t-85.5 -30t-79 -43t-70 -50.5z" />
    <glyph glyph-name="ydieresis" unicode="&#xff;" horiz-adv-x="1020" 
d="M-121 -227q22 -11 50.5 -18t60.5 -7q37 0 70.5 12t66 39t66.5 71.5t73 109.5l56 90l-164 979h172l119 -783l448 783h186l-677 -1129q-53 -87 -98.5 -147t-93.5 -97.5t-103.5 -54t-126.5 -16.5q-23 0 -46.5 2.5t-45.5 6.5t-41.5 9.5t-34.5 11.5zM601 1354q0 -9 -2 -21.5
t-5 -25t-7.5 -23.5t-8.5 -18q-17 -32 -42 -45t-69 -13q-52 0 -71 17.5t-19 48.5q0 6 1.5 16.5t4.5 22.5t6.5 24t8.5 21q14 32 39 47.5t73 15.5q51 0 71 -16.5t20 -50.5zM988 1354q0 -9 -2 -21.5t-5 -25t-7.5 -23.5t-8.5 -18q-17 -32 -42 -45t-68 -13q-53 0 -72 17.5
t-19 48.5q0 6 1.5 16.5t4.5 22.5t6.5 24t8.5 21q14 32 39.5 47.5t73.5 15.5q51 0 70.5 -16.5t19.5 -50.5z" />
    <glyph glyph-name="Amacron" unicode="&#x100;" horiz-adv-x="1262" 
d="M-47 0l747 1384h236l176 -1384h-188l-43 360h-539l-197 -360h-192zM426 528h434l-78 674zM559 1591l29 140h598l-29 -140h-598z" />
    <glyph glyph-name="amacron" unicode="&#x101;" horiz-adv-x="1151" 
d="M92 342q0 70 13.5 151.5t41 163.5t71 158t103 135t136.5 94t172 35q96 0 162.5 -30.5t115.5 -85.5l19 86h170l-222 -1049h-169l26 125q-37 -32 -75 -60t-78.5 -49.5t-85 -34t-93.5 -12.5q-83 0 -141.5 24.5t-95 72t-53.5 117t-17 159.5zM877 813q-50 54 -108 83.5
t-144 29.5q-62 0 -112.5 -27t-90.5 -73t-69.5 -106t-48.5 -125t-28.5 -131.5t-9.5 -125.5q0 -116 40.5 -165.5t127.5 -49.5q45 0 89 12.5t86 34t81 49.5t74 60zM407 1255l29 140h598l-29 -140h-598z" />
    <glyph glyph-name="Abreve" unicode="&#x102;" horiz-adv-x="1262" 
d="M-47 0l747 1384h236l176 -1384h-188l-43 360h-539l-197 -360h-192zM426 528h434l-78 674zM1207 1804q-12 -58 -38.5 -109.5t-70.5 -89.5t-107.5 -60.5t-150.5 -22.5q-75 0 -128.5 17.5t-87.5 47.5t-50 70.5t-16 85.5q0 31 6 61h125q0 -63 39 -94t127 -31q48 0 84.5 8.5
t63 24.5t44 39t29.5 53h131z" />
    <glyph glyph-name="abreve" unicode="&#x103;" horiz-adv-x="1151" 
d="M92 342q0 70 13.5 151.5t41 163.5t71 158t103 135t136.5 94t172 35q96 0 162.5 -30.5t115.5 -85.5l19 86h170l-222 -1049h-169l26 125q-37 -32 -75 -60t-78.5 -49.5t-85 -34t-93.5 -12.5q-83 0 -141.5 24.5t-95 72t-53.5 117t-17 159.5zM877 813q-50 54 -108 83.5
t-144 29.5q-62 0 -112.5 -27t-90.5 -73t-69.5 -106t-48.5 -125t-28.5 -131.5t-9.5 -125.5q0 -116 40.5 -165.5t127.5 -49.5q45 0 89 12.5t86 34t81 49.5t74 60zM1057 1468q-12 -58 -38.5 -109.5t-70.5 -89.5t-107.5 -60.5t-150.5 -22.5q-75 0 -128.5 17.5t-87.5 47.5
t-50 70.5t-16 85.5q0 31 6 61h125q0 -63 39 -94t127 -31q48 0 84.5 8.5t63 24.5t44 39t29.5 53h131z" />
    <glyph glyph-name="Aogonek" unicode="&#x104;" horiz-adv-x="1262" 
d="M1044 -332q-42 -31 -93.5 -47t-100.5 -16q-176 0 -176 164q0 39 13.5 75t42.5 69t76 62.5t114 55.5l-39 329h-539l-197 -360h-192l747 1384h236l176 -1384q-90 -31 -146.5 -57t-89 -50.5t-44 -48.5t-11.5 -49t16 -38t44 -13q34 0 66.5 8t66.5 25zM426 528h434l-78 674z
" />
    <glyph glyph-name="aogonek" unicode="&#x105;" horiz-adv-x="1151" 
d="M907 -332q-42 -31 -93.5 -47t-100.5 -16q-176 0 -176 164q0 66 40 130.5t132 116.5l22 109q-37 -32 -75 -60t-78.5 -49.5t-85 -34t-93.5 -12.5q-83 0 -141.5 24.5t-95 72t-53.5 117t-17 159.5q0 70 13.5 151.5t41 163.5t71 158t103 135t136.5 94t172 35q96 0 162.5 -30.5
t115.5 -85.5l19 86h170l-222 -1049q-59 -24 -96 -50.5t-58 -53.5t-28.5 -53t-7.5 -48q0 -25 16 -38t43 -13q34 0 66.5 8t67.5 25zM877 813q-50 54 -106.5 83.5t-133.5 29.5q-65 0 -118 -28.5t-94 -75.5t-71 -108t-49.5 -126.5t-29 -130t-9.5 -119.5q0 -116 40.5 -165.5
t127.5 -49.5q45 0 89 12.5t86 34t81 49.5t74 60z" />
    <glyph glyph-name="Cacute" unicode="&#x106;" horiz-adv-x="1280" 
d="M1141 236q-45 -56 -97 -104.5t-117.5 -84t-148 -56t-188.5 -20.5q-121 0 -210 33t-147.5 96t-87 154.5t-28.5 208.5q0 63 8 132.5t24 141t39.5 143t55.5 138.5q39 83 96 155t132 125.5t169 84t207 30.5q96 0 170 -18t130 -52.5t95.5 -84t67.5 -111.5l-162 -94
q-21 49 -50 86t-68.5 61.5t-90.5 36.5t-117 12q-71 0 -132 -22.5t-112 -62.5t-91.5 -94t-69.5 -118q-26 -55 -46 -116t-34 -124t-21.5 -126.5t-7.5 -124.5q0 -156 73 -241t206 -85q74 0 135 15t112 43t95 68t84 89zM903 1544h-150l240 361h242z" />
    <glyph glyph-name="cacute" unicode="&#x107;" horiz-adv-x="1010" 
d="M862 162q-33 -42 -73 -77t-89 -61t-107 -40.5t-128 -14.5q-100 0 -171 27t-116.5 77.5t-66.5 122t-21 160.5q0 68 13.5 148t42.5 160t74.5 155t109.5 133t147.5 92.5t188.5 34.5q125 0 212 -47.5t126 -144.5l-152 -82q-25 62 -73 93.5t-130 31.5q-65 0 -119 -26.5
t-96.5 -71t-74 -103t-52.5 -123t-31 -131.5t-10 -127q0 -51 11 -93.5t36.5 -72.5t66.5 -46.5t101 -16.5q41 0 76 9.5t67 27t61.5 43.5t59.5 59zM732 1208h-150l240 361h242z" />
    <glyph glyph-name="Ccircumflex" unicode="&#x108;" horiz-adv-x="1280" 
d="M1141 236q-45 -56 -97 -104.5t-117.5 -84t-148 -56t-188.5 -20.5q-121 0 -210 33t-147.5 96t-87 154.5t-28.5 208.5q0 63 8 132.5t24 141t39.5 143t55.5 138.5q39 83 96 155t132 125.5t169 84t207 30.5q96 0 170 -18t130 -52.5t95.5 -84t67.5 -111.5l-162 -94
q-21 49 -50 86t-68.5 61.5t-90.5 36.5t-117 12q-71 0 -132 -22.5t-112 -62.5t-91.5 -94t-69.5 -118q-26 -55 -46 -116t-34 -124t-21.5 -126.5t-7.5 -124.5q0 -156 73 -241t206 -85q74 0 135 15t112 43t95 68t84 89zM1065 1544l-129 238l-231 -238h-154l301 361h207l146 -361
h-140z" />
    <glyph glyph-name="ccircumflex" unicode="&#x109;" horiz-adv-x="1010" 
d="M862 162q-33 -42 -73 -77t-89 -61t-107 -40.5t-128 -14.5q-100 0 -171 27t-116.5 77.5t-66.5 122t-21 160.5q0 68 13.5 148t42.5 160t74.5 155t109.5 133t147.5 92.5t188.5 34.5q125 0 212 -47.5t126 -144.5l-152 -82q-25 62 -73 93.5t-130 31.5q-65 0 -119 -26.5
t-96.5 -71t-74 -103t-52.5 -123t-31 -131.5t-10 -127q0 -51 11 -93.5t36.5 -72.5t66.5 -46.5t101 -16.5q41 0 76 9.5t67 27t61.5 43.5t59.5 59zM882 1208l-129 238l-231 -238h-154l301 361h207l146 -361h-140z" />
    <glyph glyph-name="Cdotaccent" unicode="&#x10a;" horiz-adv-x="1280" 
d="M1141 236q-45 -56 -97 -104.5t-117.5 -84t-148 -56t-188.5 -20.5q-121 0 -210 33t-147.5 96t-87 154.5t-28.5 208.5q0 63 8 132.5t24 141t39.5 143t55.5 138.5q39 83 96 155t132 125.5t169 84t207 30.5q96 0 170 -18t130 -52.5t95.5 -84t67.5 -111.5l-162 -94
q-21 49 -50 86t-68.5 61.5t-90.5 36.5t-117 12q-71 0 -132 -22.5t-112 -62.5t-91.5 -94t-69.5 -118q-26 -55 -46 -116t-34 -124t-21.5 -126.5t-7.5 -124.5q0 -156 73 -241t206 -85q74 0 135 15t112 43t95 68t84 89zM1024 1700q0 -10 -2 -23t-5 -26t-7 -24.5t-8 -18.5
q-20 -37 -49 -50.5t-74 -13.5q-56 0 -76 20t-20 54q0 20 4.5 43t13.5 43q16 35 45 52.5t80 17.5q54 0 76 -18.5t22 -55.5z" />
    <glyph glyph-name="cdotaccent" unicode="&#x10b;" horiz-adv-x="1010" 
d="M862 162q-33 -42 -73 -77t-89 -61t-107 -40.5t-128 -14.5q-100 0 -171 27t-116.5 77.5t-66.5 122t-21 160.5q0 68 13.5 148t42.5 160t74.5 155t109.5 133t147.5 92.5t188.5 34.5q125 0 212 -47.5t126 -144.5l-152 -82q-25 62 -73 93.5t-130 31.5q-65 0 -119 -26.5
t-96.5 -71t-74 -103t-52.5 -123t-31 -131.5t-10 -127q0 -51 11 -93.5t36.5 -72.5t66.5 -46.5t101 -16.5q41 0 76 9.5t67 27t61.5 43.5t59.5 59zM831 1364q0 -10 -2 -23t-5 -26t-7 -24.5t-8 -18.5q-20 -37 -49 -50.5t-74 -13.5q-56 0 -76 20t-20 54q0 20 4.5 43t13.5 43
q16 35 45 52.5t80 17.5q54 0 76 -18.5t22 -55.5z" />
    <glyph glyph-name="Ccaron" unicode="&#x10c;" horiz-adv-x="1280" 
d="M1141 236q-45 -56 -97 -104.5t-117.5 -84t-148 -56t-188.5 -20.5q-121 0 -210 33t-147.5 96t-87 154.5t-28.5 208.5q0 63 8 132.5t24 141t39.5 143t55.5 138.5q39 83 96 155t132 125.5t169 84t207 30.5q96 0 170 -18t130 -52.5t95.5 -84t67.5 -111.5l-162 -94
q-21 49 -50 86t-68.5 61.5t-90.5 36.5t-117 12q-71 0 -132 -22.5t-112 -62.5t-91.5 -94t-69.5 -118q-26 -55 -46 -116t-34 -124t-21.5 -126.5t-7.5 -124.5q0 -156 73 -241t206 -85q74 0 135 15t112 43t95 68t84 89zM770 1905l129 -238l232 238h153l-301 -361h-207l-145 361
h139z" />
    <glyph glyph-name="ccaron" unicode="&#x10d;" horiz-adv-x="1010" 
d="M862 162q-33 -42 -73 -77t-89 -61t-107 -40.5t-128 -14.5q-100 0 -171 27t-116.5 77.5t-66.5 122t-21 160.5q0 68 13.5 148t42.5 160t74.5 155t109.5 133t147.5 92.5t188.5 34.5q125 0 212 -47.5t126 -144.5l-152 -82q-25 62 -73 93.5t-130 31.5q-65 0 -119 -26.5
t-96.5 -71t-74 -103t-52.5 -123t-31 -131.5t-10 -127q0 -51 11 -93.5t36.5 -72.5t66.5 -46.5t101 -16.5q41 0 76 9.5t67 27t61.5 43.5t59.5 59zM583 1569l129 -238l232 238h153l-301 -361h-207l-145 361h139z" />
    <glyph glyph-name="Dcaron" unicode="&#x10e;" horiz-adv-x="1266" 
d="M1219 926q0 -49 -6 -111t-19 -130t-33 -139t-48.5 -138.5t-66.5 -127.5t-85 -106q-50 -48 -111 -81.5t-130 -54t-144.5 -29.5t-155.5 -9h-365l293 1384h342q131 0 230 -22.5t165.5 -76t100 -141.5t33.5 -218zM422 168q136 0 234.5 29t166.5 98q45 45 82.5 119.5
t63.5 161.5t40.5 178t14.5 170q0 82 -17.5 138t-61 90.5t-116.5 49.5t-184 15h-149l-224 -1049h150zM661 1905l129 -238l232 238h153l-301 -361h-207l-145 361h139z" />
    <glyph glyph-name="dcaron" unicode="&#x10f;" horiz-adv-x="1227" 
d="M88 342q0 59 11 129.5t33 143.5t55.5 144t78.5 132q69 91 164 139.5t217 48.5q82 0 146.5 -30.5t113.5 -85.5l111 526h170l-314 -1489h-169l20 104q-35 -28 -71.5 -52.5t-77 -43t-84.5 -29t-93 -10.5q-83 0 -142 24.5t-96.5 72t-55 117t-17.5 159.5zM395 780
q-31 -45 -54.5 -98.5t-39.5 -110.5t-24.5 -116t-8.5 -117q0 -116 39.5 -165.5t126.5 -49.5q45 0 89.5 11t85.5 30t79 43.5t70 50.5l119 555q-50 54 -106.5 83.5t-133.5 29.5q-69 0 -130.5 -35.5t-111.5 -110.5zM1321 1128h-129l133 361h219z" />
    <glyph glyph-name="Dcroat" unicode="&#x110;" horiz-adv-x="1266" 
d="M1219 926q0 -49 -6 -111t-19 -130t-33 -139t-48.5 -138.5t-66.5 -127.5t-85 -106q-50 -48 -111 -81.5t-130 -54t-144.5 -29.5t-155.5 -9h-365l131 627h-133l29 141h135l131 616h342q131 0 230 -22.5t165.5 -76t100 -141.5t33.5 -218zM422 168q136 0 234.5 29t166.5 98
q45 45 82.5 119.5t63.5 161.5t40.5 178t14.5 170q0 82 -17.5 138t-61 90.5t-116.5 49.5t-184 15h-149l-97 -449h330l-29 -141h-331l-97 -459h150z" />
    <glyph glyph-name="dcroat" unicode="&#x111;" horiz-adv-x="1151" 
d="M88 342q0 59 11 129.5t33 143.5t55.5 144t78.5 132q69 91 164 139.5t217 48.5q82 0 146.5 -30.5t113.5 -85.5l47 231h-292l30 139h293l33 156h170l-33 -156h135l-30 -139h-136l-250 -1194h-169l20 104q-35 -28 -71.5 -52.5t-77 -43t-84.5 -29t-93 -10.5q-83 0 -142 24.5
t-96.5 72t-55 117t-17.5 159.5zM395 780q-31 -45 -54.5 -98.5t-39.5 -110.5t-24.5 -116t-8.5 -117q0 -116 39.5 -165.5t126.5 -49.5q45 0 89.5 11t85.5 30t79 43.5t70 50.5l119 555q-50 54 -106.5 83.5t-133.5 29.5q-69 0 -130.5 -35.5t-111.5 -110.5z" />
    <glyph glyph-name="Emacron" unicode="&#x112;" horiz-adv-x="1130" 
d="M68 0l292 1384h830l-35 -167h-649l-86 -404h555l-35 -168h-555l-102 -477h649l-35 -168h-829zM520 1591l29 140h598l-29 -140h-598z" />
    <glyph glyph-name="emacron" unicode="&#x113;" horiz-adv-x="1059" 
d="M285 504q-10 -47 -15.5 -88t-5.5 -78q0 -63 13.5 -105t42 -67.5t72 -36t104.5 -10.5q68 0 134 35t128 100l106 -98q-78 -89 -171.5 -138t-217.5 -49q-189 0 -288 91t-99 280q0 61 10 129t30 136.5t49 133.5t67 121q67 101 168 160t250 59q82 0 144 -23.5t103.5 -66
t62.5 -103t21 -134.5q0 -10 -1.5 -29t-3.5 -41t-5 -44t-6 -38l-21 -96h-671zM817 639q12 58 12 109q0 91 -45 139.5t-145 48.5q-71 0 -125.5 -24t-97.5 -76q-57 -71 -101 -197h502zM403 1255l29 140h598l-29 -140h-598z" />
    <glyph glyph-name="Ebreve" unicode="&#x114;" horiz-adv-x="1130" 
d="M68 0l292 1384h830l-35 -167h-649l-86 -404h555l-35 -168h-555l-102 -477h649l-35 -168h-829zM1155 1804q-12 -58 -38.5 -109.5t-70.5 -89.5t-107.5 -60.5t-150.5 -22.5q-75 0 -128.5 17.5t-87.5 47.5t-50 70.5t-16 85.5q0 31 6 61h125q0 -63 39 -94t127 -31
q48 0 84.5 8.5t63 24.5t44 39t29.5 53h131z" />
    <glyph glyph-name="ebreve" unicode="&#x115;" horiz-adv-x="1059" 
d="M285 504q-10 -47 -15.5 -88t-5.5 -78q0 -63 13.5 -105t42 -67.5t72 -36t104.5 -10.5q68 0 134 35t128 100l106 -98q-78 -89 -171.5 -138t-217.5 -49q-189 0 -288 91t-99 280q0 61 10 129t30 136.5t49 133.5t67 121q67 101 168 160t250 59q82 0 144 -23.5t103.5 -66
t62.5 -103t21 -134.5q0 -10 -1.5 -29t-3.5 -41t-5 -44t-6 -38l-21 -96h-671zM817 639q12 58 12 109q0 91 -45 139.5t-145 48.5q-71 0 -125.5 -24t-97.5 -76q-57 -71 -101 -197h502zM1048 1468q-12 -58 -38.5 -109.5t-70.5 -89.5t-107.5 -60.5t-150.5 -22.5
q-75 0 -128.5 17.5t-87.5 47.5t-50 70.5t-16 85.5q0 31 6 61h125q0 -63 39 -94t127 -31q48 0 84.5 8.5t63 24.5t44 39t29.5 53h131z" />
    <glyph glyph-name="Edotaccent" unicode="&#x116;" horiz-adv-x="1130" 
d="M68 0l292 1384h830l-35 -167h-649l-86 -404h555l-35 -168h-555l-102 -477h649l-35 -168h-829zM927 1700q0 -10 -2 -23t-5 -26t-7 -24.5t-8 -18.5q-20 -37 -49 -50.5t-74 -13.5q-56 0 -76 20t-20 54q0 20 4.5 43t13.5 43q16 35 45 52.5t80 17.5q54 0 76 -18.5t22 -55.5z
" />
    <glyph glyph-name="edotaccent" unicode="&#x117;" horiz-adv-x="1059" 
d="M285 504q-10 -47 -15.5 -88t-5.5 -78q0 -63 13.5 -105t42 -67.5t72 -36t104.5 -10.5q68 0 134 35t128 100l106 -98q-78 -89 -171.5 -138t-217.5 -49q-189 0 -288 91t-99 280q0 61 10 129t30 136.5t49 133.5t67 121q67 101 168 160t250 59q82 0 144 -23.5t103.5 -66
t62.5 -103t21 -134.5q0 -10 -1.5 -29t-3.5 -41t-5 -44t-6 -38l-21 -96h-671zM817 639q12 58 12 109q0 91 -45 139.5t-145 48.5q-71 0 -125.5 -24t-97.5 -76q-57 -71 -101 -197h502zM841 1364q0 -10 -2 -23t-5 -26t-7 -24.5t-8 -18.5q-20 -37 -49 -50.5t-74 -13.5
q-56 0 -76 20t-20 54q0 20 4.5 43t13.5 43q16 35 45 52.5t80 17.5q54 0 76 -18.5t22 -55.5z" />
    <glyph glyph-name="Eogonek" unicode="&#x118;" horiz-adv-x="1130" 
d="M829 -332q-42 -31 -93.5 -47t-100.5 -16q-176 0 -176 164q0 67 40.5 125.5t135.5 105.5h-567l292 1384h830l-35 -167h-649l-86 -404h555l-35 -168h-555l-102 -477h649l-35 -168q-90 -31 -146.5 -57t-89 -50.5t-44 -48.5t-11.5 -49t16 -38t44 -13q34 0 66.5 8t66.5 25z
" />
    <glyph glyph-name="eogonek" unicode="&#x119;" horiz-adv-x="1059" 
d="M795 -332q-42 -31 -93.5 -47t-101.5 -16q-176 0 -176 164q0 49 18.5 97t69.5 105q-9 -2 -18.5 -2h-18.5q-189 0 -288 91t-99 280q0 61 10 129t30 136.5t49 133.5t67 121q67 101 168 160t250 59q82 0 144 -23.5t103.5 -66t62.5 -103t21 -134.5q0 -10 -1.5 -29t-3.5 -41
t-5 -44t-6 -38l-21 -96h-671q-10 -47 -15.5 -88t-5.5 -78q0 -63 13.5 -105t42 -67.5t72 -36t104.5 -10.5q68 0 134 35t128 100l106 -98q-28 -32 -57.5 -59.5t-61.5 -49.5q-65 -45 -100 -80.5t-51.5 -64.5t-19.5 -54t-3 -47q0 -29 16 -43t44 -14q34 0 66.5 8t66.5 25z
M817 639q12 58 12 109q0 91 -45 139.5t-145 48.5q-71 0 -125.5 -24t-97.5 -76q-57 -71 -101 -197h502z" />
    <glyph glyph-name="Ecaron" unicode="&#x11a;" horiz-adv-x="1130" 
d="M68 0l292 1384h830l-35 -167h-649l-86 -404h555l-35 -168h-555l-102 -477h649l-35 -168h-829zM671 1905l129 -238l232 238h153l-301 -361h-207l-145 361h139z" />
    <glyph glyph-name="ecaron" unicode="&#x11b;" horiz-adv-x="1059" 
d="M285 504q-10 -47 -15.5 -88t-5.5 -78q0 -63 13.5 -105t42 -67.5t72 -36t104.5 -10.5q68 0 134 35t128 100l106 -98q-78 -89 -171.5 -138t-217.5 -49q-189 0 -288 91t-99 280q0 61 10 129t30 136.5t49 133.5t67 121q67 101 168 160t250 59q82 0 144 -23.5t103.5 -66
t62.5 -103t21 -134.5q0 -10 -1.5 -29t-3.5 -41t-5 -44t-6 -38l-21 -96h-671zM817 639q12 58 12 109q0 91 -45 139.5t-145 48.5q-71 0 -125.5 -24t-97.5 -76q-57 -71 -101 -197h502zM566 1569l129 -238l232 238h153l-301 -361h-207l-145 361h139z" />
    <glyph glyph-name="Gcircumflex" unicode="&#x11c;" horiz-adv-x="1362" 
d="M1153 1051q-21 54 -50 92t-66.5 61.5t-83.5 34t-103 10.5q-86 0 -155 -31t-123.5 -82.5t-95 -118.5t-68.5 -140q-23 -59 -39 -118t-26 -114t-14.5 -103t-4.5 -83q0 -81 17.5 -142t55.5 -101.5t99.5 -60.5t148.5 -20q39 0 76 6t74 16.5t75.5 25t81.5 32.5l68 320h-330
l35 167h510l-125 -596q-62 -31 -120.5 -56t-117.5 -42.5t-119.5 -27t-125.5 -9.5q-124 0 -217 28.5t-155.5 88.5t-94 153.5t-31.5 223.5q0 105 23.5 226.5t72.5 240.5q40 96 98.5 183t137 153.5t178 105.5t221.5 39q178 0 291.5 -66.5t173.5 -209.5zM1110 1544l-129 238
l-231 -238h-154l301 361h207l146 -361h-140z" />
    <glyph glyph-name="gcircumflex" unicode="&#x11d;" horiz-adv-x="1151" 
d="M870 -8q-23 -108 -63 -181.5t-101.5 -119.5t-148 -66t-201.5 -20q-128 0 -217 27.5t-145 70.5l86 131q56 -40 123 -63t159 -23q79 0 136.5 12.5t98.5 44.5t68.5 86.5t45.5 139.5l22 104q-35 -29 -75 -53.5t-82.5 -42.5t-85.5 -28.5t-84 -10.5q-87 0 -147.5 27.5t-98 77
t-54 118t-16.5 150.5q0 77 16 159t48 160.5t79 148.5t109 123t138 84t167 31q31 0 66 -8t69.5 -23t67 -36.5t57.5 -48.5l19 86h168zM877 813q-50 54 -109 83.5t-131 29.5q-62 0 -113.5 -26.5t-92 -70.5t-71 -101.5t-50.5 -119.5t-30 -124t-10 -115q0 -113 39 -164t131 -51
q46 0 89.5 10.5t84.5 29t79 43t73 52.5zM882 1208l-129 238l-231 -238h-154l301 361h207l146 -361h-140z" />
    <glyph glyph-name="Gbreve" unicode="&#x11e;" horiz-adv-x="1362" 
d="M1153 1051q-21 54 -50 92t-66.5 61.5t-83.5 34t-103 10.5q-86 0 -155 -31t-123.5 -82.5t-95 -118.5t-68.5 -140q-23 -59 -39 -118t-26 -114t-14.5 -103t-4.5 -83q0 -81 17.5 -142t55.5 -101.5t99.5 -60.5t148.5 -20q39 0 76 6t74 16.5t75.5 25t81.5 32.5l68 320h-330
l35 167h510l-125 -596q-62 -31 -120.5 -56t-117.5 -42.5t-119.5 -27t-125.5 -9.5q-124 0 -217 28.5t-155.5 88.5t-94 153.5t-31.5 223.5q0 105 23.5 226.5t72.5 240.5q40 96 98.5 183t137 153.5t178 105.5t221.5 39q178 0 291.5 -66.5t173.5 -209.5zM1290 1804
q-12 -58 -38.5 -109.5t-70.5 -89.5t-107.5 -60.5t-150.5 -22.5q-75 0 -128.5 17.5t-87.5 47.5t-50 70.5t-16 85.5q0 31 6 61h125q0 -63 39 -94t127 -31q48 0 84.5 8.5t63 24.5t44 39t29.5 53h131z" />
    <glyph glyph-name="gbreve" unicode="&#x11f;" horiz-adv-x="1151" 
d="M870 -8q-23 -108 -63 -181.5t-101.5 -119.5t-148 -66t-201.5 -20q-128 0 -217 27.5t-145 70.5l86 131q56 -40 123 -63t159 -23q79 0 136.5 12.5t98.5 44.5t68.5 86.5t45.5 139.5l22 104q-35 -29 -75 -53.5t-82.5 -42.5t-85.5 -28.5t-84 -10.5q-87 0 -147.5 27.5t-98 77
t-54 118t-16.5 150.5q0 77 16 159t48 160.5t79 148.5t109 123t138 84t167 31q31 0 66 -8t69.5 -23t67 -36.5t57.5 -48.5l19 86h168zM877 813q-50 54 -109 83.5t-131 29.5q-62 0 -113.5 -26.5t-92 -70.5t-71 -101.5t-50.5 -119.5t-30 -124t-10 -115q0 -113 39 -164t131 -51
q46 0 89.5 10.5t84.5 29t79 43t73 52.5zM1075 1468q-12 -58 -38.5 -109.5t-70.5 -89.5t-107.5 -60.5t-150.5 -22.5q-75 0 -128.5 17.5t-87.5 47.5t-50 70.5t-16 85.5q0 31 6 61h125q0 -63 39 -94t127 -31q48 0 84.5 8.5t63 24.5t44 39t29.5 53h131z" />
    <glyph glyph-name="Gdotaccent" unicode="&#x120;" horiz-adv-x="1362" 
d="M1153 1051q-21 54 -50 92t-66.5 61.5t-83.5 34t-103 10.5q-86 0 -155 -31t-123.5 -82.5t-95 -118.5t-68.5 -140q-23 -59 -39 -118t-26 -114t-14.5 -103t-4.5 -83q0 -81 17.5 -142t55.5 -101.5t99.5 -60.5t148.5 -20q39 0 76 6t74 16.5t75.5 25t81.5 32.5l68 320h-330
l35 167h510l-125 -596q-62 -31 -120.5 -56t-117.5 -42.5t-119.5 -27t-125.5 -9.5q-124 0 -217 28.5t-155.5 88.5t-94 153.5t-31.5 223.5q0 105 23.5 226.5t72.5 240.5q40 96 98.5 183t137 153.5t178 105.5t221.5 39q178 0 291.5 -66.5t173.5 -209.5zM1034 1700q0 -10 -2 -23
t-5 -26t-7 -24.5t-8 -18.5q-20 -37 -49 -50.5t-74 -13.5q-56 0 -76 20t-20 54q0 20 4.5 43t13.5 43q16 35 45 52.5t80 17.5q54 0 76 -18.5t22 -55.5z" />
    <glyph glyph-name="gdotaccent" unicode="&#x121;" horiz-adv-x="1151" 
d="M870 -8q-23 -108 -63 -181.5t-101.5 -119.5t-148 -66t-201.5 -20q-128 0 -217 27.5t-145 70.5l86 131q56 -40 123 -63t159 -23q79 0 136.5 12.5t98.5 44.5t68.5 86.5t45.5 139.5l22 104q-35 -29 -75 -53.5t-82.5 -42.5t-85.5 -28.5t-84 -10.5q-87 0 -147.5 27.5t-98 77
t-54 118t-16.5 150.5q0 77 16 159t48 160.5t79 148.5t109 123t138 84t167 31q31 0 66 -8t69.5 -23t67 -36.5t57.5 -48.5l19 86h168zM877 813q-50 54 -109 83.5t-131 29.5q-62 0 -113.5 -26.5t-92 -70.5t-71 -101.5t-50.5 -119.5t-30 -124t-10 -115q0 -113 39 -164t131 -51
q46 0 89.5 10.5t84.5 29t79 43t73 52.5zM820 1364q0 -10 -2 -23t-5 -26t-7 -24.5t-8 -18.5q-20 -37 -49 -50.5t-74 -13.5q-56 0 -76 20t-20 54q0 20 4.5 43t13.5 43q16 35 45 52.5t80 17.5q54 0 76 -18.5t22 -55.5z" />
    <glyph glyph-name="Gcommaaccent" unicode="&#x122;" horiz-adv-x="1362" 
d="M1153 1051q-21 54 -50 92t-66.5 61.5t-83.5 34t-103 10.5q-86 0 -155 -31t-123.5 -82.5t-95 -118.5t-68.5 -140q-23 -59 -39 -118t-26 -114t-14.5 -103t-4.5 -83q0 -81 17.5 -142t55.5 -101.5t99.5 -60.5t148.5 -20q39 0 76 6t74 16.5t75.5 25t81.5 32.5l68 320h-330
l35 167h510l-125 -596q-62 -31 -120.5 -56t-117.5 -42.5t-119.5 -27t-125.5 -9.5q-124 0 -217 28.5t-155.5 88.5t-94 153.5t-31.5 223.5q0 105 23.5 226.5t72.5 240.5q40 96 98.5 183t137 153.5t178 105.5t221.5 39q178 0 291.5 -66.5t173.5 -209.5zM424 -510q37 38 69 81
t46 81q-47 0 -69.5 16t-22.5 53q0 39 12.5 73.5t40.5 55.5q31 27 92 27q53 0 77.5 -21.5t24.5 -64.5q0 -38 -12.5 -75t-32.5 -72q-18 -31 -49.5 -71t-73.5 -83h-102z" />
    <glyph glyph-name="gcommaaccent" unicode="&#x123;" horiz-adv-x="1151" 
d="M870 -8q-23 -108 -63 -181.5t-101.5 -119.5t-148 -66t-201.5 -20q-128 0 -217 27.5t-145 70.5l86 131q56 -40 123 -63t159 -23q79 0 136.5 12.5t98.5 44.5t68.5 86.5t45.5 139.5l22 104q-35 -29 -75 -53.5t-82.5 -42.5t-85.5 -28.5t-84 -10.5q-87 0 -147.5 27.5t-98 77
t-54 118t-16.5 150.5q0 77 16 159t48 160.5t79 148.5t109 123t138 84t167 31q31 0 66 -8t69.5 -23t67 -36.5t57.5 -48.5l19 86h168zM877 813q-50 54 -109 83.5t-131 29.5q-62 0 -113.5 -26.5t-92 -70.5t-71 -101.5t-50.5 -119.5t-30 -124t-10 -115q0 -113 39 -164t131 -51
q46 0 89.5 10.5t84.5 29t79 43t73 52.5zM859 1552q-38 -38 -69.5 -80.5t-45.5 -80.5q46 0 69 -16.5t23 -53.5q0 -38 -12.5 -72.5t-40.5 -56.5q-35 -27 -92 -27q-103 0 -103 86q0 39 12.5 76t32.5 72q19 31 50 70.5t73 82.5h103z" />
    <glyph glyph-name="Hcircumflex" unicode="&#x124;" horiz-adv-x="1337" 
d="M866 0l133 633h-618l-133 -633h-180l292 1384h181l-123 -583h618l123 583h180l-292 -1384h-181zM1073 1544l-129 238l-231 -238h-154l301 361h207l146 -361h-140z" />
    <glyph glyph-name="hcircumflex" unicode="&#x125;" horiz-adv-x="1141" 
d="M702 0l132 618q12 57 19 105t7 94q0 48 -22.5 76.5t-83.5 28.5q-36 0 -80 -12.5t-92 -35.5t-98.5 -57t-100.5 -76l-158 -741h-170l316 1489h170l-127 -596q44 40 90.5 74.5t94 59t96.5 38.5t98 14q67 0 112.5 -18t73.5 -50t40.5 -76t12.5 -95q0 -37 -8.5 -93t-24.5 -129
l-129 -618h-168zM1018 1544l-129 238l-231 -238h-154l301 361h207l146 -361h-140z" />
    <glyph glyph-name="Hbar" unicode="&#x126;" horiz-adv-x="1337" 
d="M866 0l133 633h-618l-133 -633h-180l215 1022h-148l31 143h147l47 219h181l-47 -219h618l47 219h180l-47 -219h148l-31 -143h-147l-215 -1022h-181zM1036 801l45 221h-618l-45 -221h618z" />
    <glyph glyph-name="hbar" unicode="&#x127;" horiz-adv-x="1141" 
d="M477 1194l-63 -301q44 40 90.5 74.5t94 59t96.5 38.5t98 14q67 0 112.5 -18t73.5 -50t40.5 -76t12.5 -95q0 -37 -8.5 -93t-24.5 -129l-129 -618h-168l132 618q12 57 19 105t7 94q0 48 -26.5 72t-88.5 24q-72 0 -167 -43.5t-195 -128.5l-158 -741h-170l252 1194h-164
l31 139h164l33 156h170l-33 -156h264l-31 -139h-264z" />
    <glyph glyph-name="Itilde" unicode="&#x128;" horiz-adv-x="754" 
d="M543 0h-553l33 160h186l227 1067h-186l33 157h553l-33 -157h-187l-227 -1067h186zM226 1557q34 131 103.5 196.5t160.5 65.5q58 0 95.5 -22t66 -49t54.5 -49t61 -22q49 0 83 37t48 92h119q-31 -124 -98 -193t-175 -69q-46 0 -77.5 10.5t-55 26.5t-40 34t-32 34
t-32.5 26.5t-39 10.5q-42 0 -74 -33.5t-49 -95.5h-119z" />
    <glyph glyph-name="itilde" unicode="&#x129;" horiz-adv-x="502" 
d="M55 0l221 1049h170l-221 -1049h-170zM31 1221q34 131 103.5 196.5t160.5 65.5q58 0 95.5 -22t66 -49t54.5 -49t61 -22q49 0 83 37t48 92h119q-31 -124 -98 -193t-175 -69q-46 0 -77.5 10.5t-55 26.5t-40 34t-32 34t-32.5 26.5t-39 10.5q-42 0 -74 -33.5t-49 -95.5h-119z
" />
    <glyph glyph-name="Imacron" unicode="&#x12a;" horiz-adv-x="754" 
d="M543 0h-553l33 160h186l227 1067h-186l33 157h553l-33 -157h-187l-227 -1067h186zM304 1591l29 140h598l-29 -140h-598z" />
    <glyph glyph-name="imacron" unicode="&#x12b;" horiz-adv-x="502" 
d="M55 0l221 1049h170l-221 -1049h-170zM109 1255l29 140h598l-29 -140h-598z" />
    <glyph glyph-name="Ibreve" unicode="&#x12c;" horiz-adv-x="754" 
d="M543 0h-553l33 160h186l227 1067h-186l33 157h553l-33 -157h-187l-227 -1067h186zM976 1804q-12 -58 -38.5 -109.5t-70.5 -89.5t-107.5 -60.5t-150.5 -22.5q-75 0 -128.5 17.5t-87.5 47.5t-50 70.5t-16 85.5q0 31 6 61h125q0 -63 39 -94t127 -31q48 0 84.5 8.5t63 24.5
t44 39t29.5 53h131z" />
    <glyph glyph-name="ibreve" unicode="&#x12d;" horiz-adv-x="502" 
d="M55 0l221 1049h170l-221 -1049h-170zM747 1468q-12 -58 -38.5 -109.5t-70.5 -89.5t-107.5 -60.5t-150.5 -22.5q-75 0 -128.5 17.5t-87.5 47.5t-50 70.5t-16 85.5q0 31 6 61h125q0 -63 39 -94t127 -31q48 0 84.5 8.5t63 24.5t44 39t29.5 53h131z" />
    <glyph glyph-name="Iogonek" unicode="&#x12e;" horiz-adv-x="754" 
d="M475 -332q-42 -31 -93.5 -47t-100.5 -16q-177 0 -177 164q0 67 41 125.5t136 105.5h-291l33 160h186l227 1067h-186l33 157h553l-33 -157h-187l-227 -1067h186l-32 -160q-90 -31 -146.5 -57t-89 -50.5t-44 -48.5t-11.5 -49t15.5 -38t43.5 -13q34 0 66.5 8t66.5 25z" />
    <glyph glyph-name="iogonek" unicode="&#x12f;" horiz-adv-x="502" 
d="M225 0q-59 -24 -96 -50.5t-58 -53.5t-28.5 -53t-7.5 -48q0 -25 15.5 -38t43.5 -13q34 0 66.5 8t66.5 25l31 -109q-42 -31 -93.5 -47t-101.5 -16q-176 0 -176 164q0 66 40.5 130.5t129.5 116.5l219 1033h170zM297 1278q0 71 32 105t101 34q50 0 71 -19t21 -48
q0 -62 -29.5 -100t-99.5 -38q-29 0 -48 5t-29.5 13.5t-14.5 20.5t-4 27z" />
    <glyph glyph-name="Idotaccent" unicode="&#x130;" horiz-adv-x="754" 
d="M543 0h-553l33 160h186l227 1067h-186l33 157h553l-33 -157h-187l-227 -1067h186zM740 1700q0 -10 -2 -23t-5 -26t-7 -24.5t-8 -18.5q-20 -37 -49 -50.5t-74 -13.5q-56 0 -76 20t-20 54q0 20 4.5 43t13.5 43q16 35 45 52.5t80 17.5q54 0 76 -18.5t22 -55.5z" />
    <glyph glyph-name="dotlessi" unicode="&#x131;" horiz-adv-x="502" 
d="M55 0l221 1049h170l-221 -1049h-170z" />
    <glyph glyph-name="IJ" unicode="&#x132;" horiz-adv-x="1559" 
d="M543 0h-553l33 160h186l227 1067h-186l33 157h553l-33 -157h-187l-227 -1067h186zM1347 377q-24 -112 -60 -190t-89.5 -126.5t-127 -70t-171.5 -21.5q-72 0 -133.5 15t-106.5 36l72 156q34 -20 82.5 -31.5t97.5 -11.5q63 0 106.5 17.5t74 56t52 99.5t40.5 147l196 931
h180z" />
    <glyph glyph-name="ij" unicode="&#x133;" horiz-adv-x="1028" 
d="M55 0l221 1049h170l-221 -1049h-170zM297 1278q0 71 32 105t101 34q50 0 71 -19t21 -48q0 -62 -29.5 -100t-99.5 -38q-29 0 -48 5t-29.5 13.5t-14.5 20.5t-4 27zM733 -45q-18 -87 -47 -152.5t-73 -109.5t-107.5 -66t-150.5 -22q-36 0 -86 7.5t-95 22.5l72 142
q32 -14 66.5 -21.5t76.5 -7.5q39 0 67.5 15t49.5 43.5t35.5 71t26.5 97.5l227 1074h170zM826 1282q0 68 34 101.5t99 33.5q49 0 70.5 -19.5t21.5 -51.5q0 -65 -33 -99.5t-96 -34.5q-29 0 -48 5t-29.5 14t-14.5 22t-4 29z" />
    <glyph glyph-name="Jcircumflex" unicode="&#x134;" horiz-adv-x="866" 
d="M655 377q-24 -112 -60 -190t-89.5 -126.5t-127 -70t-171.5 -21.5q-72 0 -133.5 15t-106.5 36l72 156q34 -20 82.5 -31.5t97.5 -11.5q63 0 106.5 17.5t74 56t52 99.5t40.5 147l196 931h180zM985 1544l-129 238l-231 -238h-154l301 361h207l146 -361h-140z" />
    <glyph glyph-name="jcircumflex" unicode="&#x135;" horiz-adv-x="526" 
d="M231 -45q-18 -87 -47 -152.5t-73 -109.5t-107.5 -66t-150.5 -22q-36 0 -86 7.5t-95 22.5l72 142q32 -14 66.5 -21.5t76.5 -7.5q39 0 67.5 15t49.5 43.5t35.5 71t26.5 97.5l227 1074h170zM582 1208l-129 238l-231 -238h-154l301 361h207l146 -361h-140z" />
    <glyph glyph-name="Kcommaaccent" unicode="&#x136;" horiz-adv-x="1239" 
d="M856 0l-338 625l-172 -158l-98 -467h-180l292 1384h181l-138 -653l695 653h235l-680 -641l422 -743h-219zM336 -510q37 38 69 81t46 81q-47 0 -69.5 16t-22.5 53q0 39 12.5 73.5t40.5 55.5q31 27 92 27q53 0 77.5 -21.5t24.5 -64.5q0 -38 -12.5 -75t-32.5 -72
q-18 -31 -49.5 -71t-73.5 -83h-102z" />
    <glyph glyph-name="kcommaaccent" unicode="&#x137;" horiz-adv-x="1028" 
d="M678 0l-238 477l-141 -131l-74 -346h-170l316 1489h170l-195 -914l504 474h219l-502 -463l303 -586h-192zM262 -510q37 38 69 81t46 81q-47 0 -69.5 16t-22.5 53q0 39 12.5 73.5t40.5 55.5q31 27 92 27q53 0 77.5 -21.5t24.5 -64.5q0 -38 -12.5 -75t-32.5 -72
q-18 -31 -49.5 -71t-73.5 -83h-102z" />
    <glyph glyph-name="kgreenlandic" unicode="&#x138;" horiz-adv-x="1028" 
d="M678 0l-238 477l-141 -131l-74 -346h-170l221 1049h170l-100 -474l445 418q19 18 37.5 31.5t38 22.5t42 13.5t49.5 4.5q22 0 46 -2.5t55 -13.5l-58 -144q-9 3 -20 5.5t-25 2.5q-18 0 -33 -7.5t-32 -22.5l-324 -295l303 -588h-192z" />
    <glyph glyph-name="Lacute" unicode="&#x139;" horiz-adv-x="1018" 
d="M68 0l292 1384h181l-258 -1216h614l-35 -168h-794zM765 1544h-150l240 361h242z" />
    <glyph glyph-name="lacute" unicode="&#x13a;" horiz-adv-x="518" 
d="M63 0l316 1489h170l-316 -1489h-170zM509 1587h-150l240 361h242z" />
    <glyph glyph-name="Lcommaaccent" unicode="&#x13b;" horiz-adv-x="1018" 
d="M68 0l292 1384h181l-258 -1216h614l-35 -168h-794zM283 -510q37 38 69 81t46 81q-47 0 -69.5 16t-22.5 53q0 39 12.5 73.5t40.5 55.5q31 27 92 27q53 0 77.5 -21.5t24.5 -64.5q0 -38 -12.5 -75t-32.5 -72q-18 -31 -49.5 -71t-73.5 -83h-102z" />
    <glyph glyph-name="lcommaaccent" unicode="&#x13c;" horiz-adv-x="518" 
d="M63 0l316 1489h170l-316 -1489h-170zM-52 -510q37 38 69 81t46 81q-47 0 -69.5 16t-22.5 53q0 39 12.5 73.5t40.5 55.5q31 27 92 27q53 0 77.5 -21.5t24.5 -64.5q0 -38 -12.5 -75t-32.5 -72q-18 -31 -49.5 -71t-73.5 -83h-102z" />
    <glyph glyph-name="Lcaron" unicode="&#x13d;" horiz-adv-x="1018" 
d="M68 0l292 1384h181l-258 -1216h614l-35 -168h-794zM712 1025h-129l133 361h219z" />
    <glyph glyph-name="lcaron" unicode="&#x13e;" horiz-adv-x="596" 
d="M63 0l316 1489h170l-316 -1489h-170zM683 1128h-129l133 361h219z" />
    <glyph glyph-name="Ldot" unicode="&#x13f;" horiz-adv-x="1018" 
d="M68 0l292 1384h181l-258 -1216h614l-35 -168h-794zM929 790q0 -10 -2 -23t-5 -26t-7 -24.5t-8 -18.5q-20 -37 -49 -50.5t-74 -13.5q-56 0 -76 20t-20 54q0 20 4.5 43t13.5 43q16 35 45 52.5t80 17.5q54 0 76 -18.5t22 -55.5z" />
    <glyph glyph-name="ldot" unicode="&#x140;" horiz-adv-x="702" 
d="M63 0l316 1489h170l-316 -1489h-170zM781 790q0 -10 -2 -23t-5 -26t-7 -24.5t-8 -18.5q-20 -37 -49 -50.5t-74 -13.5q-56 0 -76 20t-20 54q0 20 4.5 43t13.5 43q16 35 45 52.5t80 17.5q54 0 76 -18.5t22 -55.5z" />
    <glyph glyph-name="Lslash" unicode="&#x141;" horiz-adv-x="1018" 
d="M385 653l-102 -485h614l-35 -168h-794l108 518l-174 -123l37 174l174 121l147 694h181l-119 -557l289 203l-37 -174z" />
    <glyph glyph-name="lslash" unicode="&#x142;" horiz-adv-x="518" 
d="M63 0l130 606l-175 -127l37 170l172 127l152 713h170l-125 -588l172 127l-35 -170l-172 -127l-156 -731h-170z" />
    <glyph glyph-name="Nacute" unicode="&#x143;" horiz-adv-x="1358" 
d="M870 0l-376 1188l-252 -1188h-174l292 1384h250l346 -1087l232 1087h174l-293 -1384h-199zM928 1544h-150l240 361h242z" />
    <glyph glyph-name="nacute" unicode="&#x144;" horiz-adv-x="1141" 
d="M702 0l132 618q12 57 19 105t7 96q0 47 -25.5 75t-80.5 28q-79 0 -175 -48t-196 -133l-158 -741h-170l221 1049h170l-32 -156q44 40 90.5 74.5t94 59t96.5 38.5t98 14q67 0 112.5 -18t73.5 -50t40.5 -76t12.5 -95q0 -37 -8.5 -93t-24.5 -129l-129 -618h-168zM734 1208
h-150l240 361h242z" />
    <glyph glyph-name="Ncommaaccent" unicode="&#x145;" horiz-adv-x="1358" 
d="M870 0l-376 1188l-252 -1188h-174l292 1384h250l346 -1087l232 1087h174l-293 -1384h-199zM391 -510q37 38 69 81t46 81q-47 0 -69.5 16t-22.5 53q0 39 12.5 73.5t40.5 55.5q31 27 92 27q53 0 77.5 -21.5t24.5 -64.5q0 -38 -12.5 -75t-32.5 -72q-18 -31 -49.5 -71
t-73.5 -83h-102z" />
    <glyph glyph-name="ncommaaccent" unicode="&#x146;" horiz-adv-x="1141" 
d="M702 0l132 618q12 57 19 105t7 96q0 47 -25.5 75t-80.5 28q-79 0 -175 -48t-196 -133l-158 -741h-170l221 1049h170l-32 -156q44 40 90.5 74.5t94 59t96.5 38.5t98 14q67 0 112.5 -18t73.5 -50t40.5 -76t12.5 -95q0 -37 -8.5 -93t-24.5 -129l-129 -618h-168zM266 -510
q37 38 69 81t46 81q-47 0 -69.5 16t-22.5 53q0 39 12.5 73.5t40.5 55.5q31 27 92 27q53 0 77.5 -21.5t24.5 -64.5q0 -38 -12.5 -75t-32.5 -72q-18 -31 -49.5 -71t-73.5 -83h-102z" />
    <glyph glyph-name="Ncaron" unicode="&#x147;" horiz-adv-x="1358" 
d="M870 0l-376 1188l-252 -1188h-174l292 1384h250l346 -1087l232 1087h174l-293 -1384h-199zM766 1905l129 -238l232 238h153l-301 -361h-207l-145 361h139z" />
    <glyph glyph-name="ncaron" unicode="&#x148;" horiz-adv-x="1141" 
d="M702 0l132 618q12 57 19 105t7 96q0 47 -25.5 75t-80.5 28q-79 0 -175 -48t-196 -133l-158 -741h-170l221 1049h170l-32 -156q44 40 90.5 74.5t94 59t96.5 38.5t98 14q67 0 112.5 -18t73.5 -50t40.5 -76t12.5 -95q0 -37 -8.5 -93t-24.5 -129l-129 -618h-168zM630 1569
l129 -238l232 238h153l-301 -361h-207l-145 361h139z" />
    <glyph glyph-name="napostrophe" unicode="&#x149;" horiz-adv-x="1243" 
d="M804 0l132 618q12 57 19 105t7 96q0 47 -25.5 75t-80.5 28q-79 0 -175 -48t-196 -133l-158 -741h-170l221 1049h170l-32 -156q44 40 90.5 74.5t94 59t96.5 38.5t98 14q67 0 112.5 -18t73.5 -50t40.5 -76t12.5 -95q0 -37 -8.5 -93t-24.5 -129l-129 -618h-168zM337 1327
q0 -73 -55 -201q-31 -72 -70.5 -129t-71.5 -88h-102q29 29 53.5 70.5t43 83t30 76t14.5 49.5q-46 0 -68 16t-22 53q0 10 2 23t5.5 26.5t7.5 25t8 18.5q7 15 16.5 26.5t23 19.5t33 12.5t47.5 4.5q56 0 80.5 -22t24.5 -64z" />
    <glyph glyph-name="Eng" unicode="&#x14a;" horiz-adv-x="1358" 
d="M1059 -45q-24 -113 -63.5 -181.5t-91 -106t-112 -50t-126.5 -12.5t-121.5 14.5t-95.5 36.5l71 156q29 -20 70.5 -31.5t83.5 -11.5q47 0 82 12t61 40t44 72t30 109l-397 1186l-252 -1188h-174l292 1384h250l355 -1048l223 1048h174z" />
    <glyph glyph-name="eng" unicode="&#x14b;" horiz-adv-x="1141" 
d="M225 0h-170l221 1049h170l-32 -156q44 40 90.5 74.5t94 59t96.5 38.5t98 14q67 0 112.5 -18t73.5 -50t40.5 -76t12.5 -95q0 -37 -8.5 -93t-24.5 -129l-137 -655q-18 -87 -47 -153.5t-74 -112t-108.5 -69t-151.5 -23.5q-18 0 -40 2t-45.5 5.5t-48 9t-46.5 13.5l72 142
q32 -14 66.5 -21.5t76.5 -7.5q39 0 68.5 15.5t51 45.5t36.5 73.5t26 99.5l136 636q12 57 19 105t7 96q0 47 -25.5 75t-80.5 28q-79 0 -175 -48t-196 -133z" />
    <glyph glyph-name="Omacron" unicode="&#x14c;" horiz-adv-x="1337" 
d="M582 -29q-132 0 -221 35.5t-143 100.5t-77.5 157t-23.5 205q0 53 6 112.5t18 122.5t31 127.5t45 126.5q40 94 93.5 177t127 145t171.5 97.5t227 35.5q222 0 338 -124t116 -365q0 -79 -14 -185t-49 -219q-36 -116 -90 -216t-131.5 -174t-182 -116.5t-241.5 -42.5zM311 465
q0 -92 15.5 -155t49.5 -102t87.5 -56t128.5 -17q163 0 270.5 105.5t175.5 322.5q15 49 26 99.5t18 98.5t10.5 91t3.5 78q0 161 -65 240t-214 79q-81 0 -144 -24t-113 -68.5t-89 -108.5t-72 -145q-23 -57 -39.5 -117t-27.5 -117t-16 -109.5t-5 -94.5zM567 1591l29 140h598
l-29 -140h-598z" />
    <glyph glyph-name="omacron" unicode="&#x14d;" horiz-adv-x="1135" 
d="M92 379q0 54 10.5 121t33.5 138.5t59.5 141.5t89.5 129q33 38 72.5 69t87 53.5t102.5 35t119 12.5q179 0 277.5 -101t98.5 -306q0 -62 -11.5 -135.5t-37 -148.5t-66 -146.5t-98.5 -128.5q-65 -65 -151.5 -104.5t-200.5 -39.5q-105 0 -178.5 26.5t-119 78t-66.5 128
t-21 177.5zM266 369q0 -65 12 -112.5t38.5 -78t68.5 -45t102 -14.5q72 0 129.5 29.5t102.5 80.5q35 40 63 93t47 112t29 120.5t10 117.5q0 133 -53.5 195.5t-165.5 62.5q-81 0 -144 -37.5t-108 -97.5q-31 -41 -55 -93t-41 -108t-26 -114t-9 -111zM403 1255l29 140h598
l-29 -140h-598z" />
    <glyph glyph-name="Obreve" unicode="&#x14e;" horiz-adv-x="1337" 
d="M582 -29q-132 0 -221 35.5t-143 100.5t-77.5 157t-23.5 205q0 53 6 112.5t18 122.5t31 127.5t45 126.5q40 94 93.5 177t127 145t171.5 97.5t227 35.5q222 0 338 -124t116 -365q0 -79 -14 -185t-49 -219q-36 -116 -90 -216t-131.5 -174t-182 -116.5t-241.5 -42.5zM311 465
q0 -92 15.5 -155t49.5 -102t87.5 -56t128.5 -17q163 0 270.5 105.5t175.5 322.5q15 49 26 99.5t18 98.5t10.5 91t3.5 78q0 161 -65 240t-214 79q-81 0 -144 -24t-113 -68.5t-89 -108.5t-72 -145q-23 -57 -39.5 -117t-27.5 -117t-16 -109.5t-5 -94.5zM1258 1804
q-12 -58 -38.5 -109.5t-70.5 -89.5t-107.5 -60.5t-150.5 -22.5q-75 0 -128.5 17.5t-87.5 47.5t-50 70.5t-16 85.5q0 31 6 61h125q0 -63 39 -94t127 -31q48 0 84.5 8.5t63 24.5t44 39t29.5 53h131z" />
    <glyph glyph-name="obreve" unicode="&#x14f;" horiz-adv-x="1135" 
d="M92 379q0 54 10.5 121t33.5 138.5t59.5 141.5t89.5 129q33 38 72.5 69t87 53.5t102.5 35t119 12.5q179 0 277.5 -101t98.5 -306q0 -62 -11.5 -135.5t-37 -148.5t-66 -146.5t-98.5 -128.5q-65 -65 -151.5 -104.5t-200.5 -39.5q-105 0 -178.5 26.5t-119 78t-66.5 128
t-21 177.5zM266 369q0 -65 12 -112.5t38.5 -78t68.5 -45t102 -14.5q72 0 129.5 29.5t102.5 80.5q35 40 63 93t47 112t29 120.5t10 117.5q0 133 -53.5 195.5t-165.5 62.5q-81 0 -144 -37.5t-108 -97.5q-31 -41 -55 -93t-41 -108t-26 -114t-9 -111zM1067 1468
q-12 -58 -38.5 -109.5t-70.5 -89.5t-107.5 -60.5t-150.5 -22.5q-75 0 -128.5 17.5t-87.5 47.5t-50 70.5t-16 85.5q0 31 6 61h125q0 -63 39 -94t127 -31q48 0 84.5 8.5t63 24.5t44 39t29.5 53h131z" />
    <glyph glyph-name="Ohungarumlaut" unicode="&#x150;" horiz-adv-x="1337" 
d="M582 -29q-132 0 -221 35.5t-143 100.5t-77.5 157t-23.5 205q0 53 6 112.5t18 122.5t31 127.5t45 126.5q40 94 93.5 177t127 145t171.5 97.5t227 35.5q222 0 338 -124t116 -365q0 -79 -14 -185t-49 -219q-36 -116 -90 -216t-131.5 -174t-182 -116.5t-241.5 -42.5zM311 465
q0 -92 15.5 -155t49.5 -102t87.5 -56t128.5 -17q163 0 270.5 105.5t175.5 322.5q15 49 26 99.5t18 98.5t10.5 91t3.5 78q0 161 -65 240t-214 79q-81 0 -144 -24t-113 -68.5t-89 -108.5t-72 -145q-23 -57 -39.5 -117t-27.5 -117t-16 -109.5t-5 -94.5zM1081 1544h-151l237 361
h244zM741 1544h-151l235 361h246z" />
    <glyph glyph-name="ohungarumlaut" unicode="&#x151;" horiz-adv-x="1135" 
d="M92 379q0 54 10.5 121t33.5 138.5t59.5 141.5t89.5 129q33 38 72.5 69t87 53.5t102.5 35t119 12.5q179 0 277.5 -101t98.5 -306q0 -62 -11.5 -135.5t-37 -148.5t-66 -146.5t-98.5 -128.5q-65 -65 -151.5 -104.5t-200.5 -39.5q-105 0 -178.5 26.5t-119 78t-66.5 128
t-21 177.5zM266 369q0 -65 12 -112.5t38.5 -78t68.5 -45t102 -14.5q72 0 129.5 29.5t102.5 80.5q35 40 63 93t47 112t29 120.5t10 117.5q0 133 -53.5 195.5t-165.5 62.5q-81 0 -144 -37.5t-108 -97.5q-31 -41 -55 -93t-41 -108t-26 -114t-9 -111zM932 1208h-151l237 361h244
zM592 1208h-151l235 361h246z" />
    <glyph glyph-name="OE" unicode="&#x152;" horiz-adv-x="1794" 
d="M840 1413q62 0 131 -9t125 -20h757l-34 -167h-598l-86 -404h520l-35 -168h-520l-103 -477h598l-34 -168h-756q-26 -7 -51 -12.5t-51 -9t-55.5 -5.5t-65.5 -2q-132 0 -221 35.5t-143 100.5t-77.5 157t-23.5 205q0 88 16 192t51.5 209t92 203t136.5 173.5t186 121t241 45.5
zM592 135q62 0 119.5 8t105.5 27l225 1047q-18 10 -43.5 16t-55.5 9.5t-62.5 5t-63.5 1.5q-98 0 -173.5 -40.5t-131.5 -106.5t-94.5 -150.5t-62 -171.5t-34 -169.5t-10.5 -145.5q0 -84 14 -146.5t47 -103t87 -60.5t133 -20z" />
    <glyph glyph-name="oe" unicode="&#x153;" horiz-adv-x="1784" 
d="M92 379q0 58 12 132.5t39.5 152.5t71.5 152.5t108 133t149 94t194 35.5q121 0 203 -49t120 -149q33 46 72.5 83t88.5 62.5t107 39t129 13.5q82 0 144.5 -23.5t104 -66t62.5 -103t21 -134.5q0 -10 -1.5 -29t-3.5 -41t-5 -44t-6 -38l-21 -96h-671q-10 -47 -15.5 -88
t-5.5 -78q0 -63 13.5 -105t42 -67.5t72 -36t104.5 -10.5q68 0 134 35t128 100l106 -98q-78 -89 -171.5 -138t-217.5 -49q-137 0 -224 47t-124 146q-34 -43 -74.5 -78.5t-87.5 -61t-100.5 -39.5t-112.5 -14q-103 0 -176 26.5t-119.5 78t-68 128t-21.5 177.5zM266 369
q0 -62 11.5 -108.5t37.5 -78t67 -47.5t101 -16q64 0 117.5 24.5t96 66t75 96.5t54 116.5t32 125.5t10.5 124q0 125 -51.5 191.5t-163.5 66.5q-69 0 -124.5 -27t-98.5 -71.5t-74 -102.5t-51 -120.5t-29.5 -124.5t-9.5 -115zM1542 639q12 58 12 109q0 91 -45 139.5t-145 48.5
q-71 0 -125.5 -24t-97.5 -76q-57 -71 -101 -197h502z" />
    <glyph glyph-name="Racute" unicode="&#x154;" horiz-adv-x="1212" 
d="M838 0l-228 565h-243l-119 -565h-180l292 1384h410q100 0 178 -14.5t130.5 -51t80 -97.5t27.5 -154q0 -35 -8.5 -82t-26.5 -98t-46 -100.5t-67 -88.5q-24 -23 -52.5 -41t-60 -31.5t-64.5 -23t-66 -16.5l247 -586h-204zM629 729q97 0 162.5 17t107.5 59q24 23 41.5 54
t28.5 65.5t16.5 71t5.5 71.5q0 44 -15 73.5t-45.5 47.5t-77 25.5t-108.5 7.5h-239l-105 -492h228zM844 1544h-150l240 361h242z" />
    <glyph glyph-name="racute" unicode="&#x155;" horiz-adv-x="795" 
d="M799 877q-13 6 -34.5 10t-41.5 4q-52 0 -98.5 -14.5t-89 -38t-81 -53t-75.5 -60.5l-154 -725h-170l221 1049h170l-34 -170q51 48 95.5 83t85 58t78.5 34t77 11q77 0 120 -23zM609 1208h-150l240 361h242z" />
    <glyph glyph-name="Rcommaaccent" unicode="&#x156;" horiz-adv-x="1212" 
d="M838 0l-228 565h-243l-119 -565h-180l292 1384h410q100 0 178 -14.5t130.5 -51t80 -97.5t27.5 -154q0 -35 -8.5 -82t-26.5 -98t-46 -100.5t-67 -88.5q-24 -23 -52.5 -41t-60 -31.5t-64.5 -23t-66 -16.5l247 -586h-204zM629 729q97 0 162.5 17t107.5 59q24 23 41.5 54
t28.5 65.5t16.5 71t5.5 71.5q0 44 -15 73.5t-45.5 47.5t-77 25.5t-108.5 7.5h-239l-105 -492h228zM334 -510q37 38 69 81t46 81q-47 0 -69.5 16t-22.5 53q0 39 12.5 73.5t40.5 55.5q31 27 92 27q53 0 77.5 -21.5t24.5 -64.5q0 -38 -12.5 -75t-32.5 -72q-18 -31 -49.5 -71
t-73.5 -83h-102z" />
    <glyph glyph-name="rcommaaccent" unicode="&#x157;" horiz-adv-x="795" 
d="M799 877q-13 6 -34.5 10t-41.5 4q-52 0 -98.5 -14.5t-89 -38t-81 -53t-75.5 -60.5l-154 -725h-170l221 1049h170l-34 -170q51 48 95.5 83t85 58t78.5 34t77 11q77 0 120 -23zM-56 -510q37 38 69 81t46 81q-47 0 -69.5 16t-22.5 53q0 39 12.5 73.5t40.5 55.5q31 27 92 27
q53 0 77.5 -21.5t24.5 -64.5q0 -38 -12.5 -75t-32.5 -72q-18 -31 -49.5 -71t-73.5 -83h-102z" />
    <glyph glyph-name="Rcaron" unicode="&#x158;" horiz-adv-x="1212" 
d="M838 0l-228 565h-243l-119 -565h-180l292 1384h410q100 0 178 -14.5t130.5 -51t80 -97.5t27.5 -154q0 -35 -8.5 -82t-26.5 -98t-46 -100.5t-67 -88.5q-24 -23 -52.5 -41t-60 -31.5t-64.5 -23t-66 -16.5l247 -586h-204zM629 729q97 0 162.5 17t107.5 59q24 23 41.5 54
t28.5 65.5t16.5 71t5.5 71.5q0 44 -15 73.5t-45.5 47.5t-77 25.5t-108.5 7.5h-239l-105 -492h228zM682 1905l129 -238l232 238h153l-301 -361h-207l-145 361h139z" />
    <glyph glyph-name="rcaron" unicode="&#x159;" horiz-adv-x="795" 
d="M799 877q-13 6 -34.5 10t-41.5 4q-52 0 -98.5 -14.5t-89 -38t-81 -53t-75.5 -60.5l-154 -725h-170l221 1049h170l-34 -170q51 48 95.5 83t85 58t78.5 34t77 11q77 0 120 -23zM447 1569l129 -238l232 238h153l-301 -361h-207l-145 361h139z" />
    <glyph glyph-name="Sacute" unicode="&#x15a;" horiz-adv-x="1202" 
d="M203 334q13 -39 36 -75t61 -63.5t94.5 -44t137.5 -16.5q71 0 133.5 17.5t109.5 49t74.5 76.5t27.5 101q0 43 -9 77.5t-36 63t-76.5 53.5t-130.5 50q-122 37 -201 72.5t-125 77.5t-64 93.5t-18 120.5q0 77 30.5 153t95 137t164 98.5t238.5 37.5q89 0 159 -16.5t124.5 -49
t94.5 -80.5t69 -112l-160 -90q-32 85 -109 134.5t-198 49.5q-84 0 -143.5 -21t-97 -54.5t-55 -77t-17.5 -88.5q0 -35 7.5 -61.5t35.5 -50t82 -47t147 -52.5q113 -36 187.5 -73.5t119 -83t62.5 -102.5t18 -130q0 -114 -46.5 -196.5t-123.5 -136t-176.5 -79t-204.5 -25.5
q-120 0 -204 23t-141 61.5t-90.5 90t-53.5 108.5zM817 1544h-150l240 361h242z" />
    <glyph glyph-name="sacute" unicode="&#x15b;" horiz-adv-x="971" 
d="M168 238q26 -57 78 -90t147 -33q44 0 90.5 8.5t84.5 28.5t62.5 52.5t24.5 80.5q0 24 -6 45t-27 41.5t-62 41t-111 44.5q-83 27 -137 55.5t-86 61.5t-45 72.5t-13 90.5q0 71 27.5 133t80 108.5t128.5 73.5t174 27q75 0 131.5 -14t98 -38.5t70 -58t48.5 -73.5l-144 -84
q-8 18 -22.5 39.5t-40.5 40t-64.5 31t-93.5 12.5q-51 0 -92.5 -13t-71 -35.5t-45.5 -53.5t-16 -66q0 -23 7 -45t26 -42.5t52 -39t85 -33.5q92 -28 154 -56.5t99 -63.5t52.5 -79.5t15.5 -103.5q0 -69 -29 -130t-85 -106t-139.5 -71.5t-192.5 -26.5q-87 0 -150 16t-106.5 42.5
t-68.5 60.5t-36 70zM656 1208h-150l240 361h242z" />
    <glyph glyph-name="Scircumflex" unicode="&#x15c;" horiz-adv-x="1202" 
d="M203 334q13 -39 36 -75t61 -63.5t94.5 -44t137.5 -16.5q71 0 133.5 17.5t109.5 49t74.5 76.5t27.5 101q0 43 -9 77.5t-36 63t-76.5 53.5t-130.5 50q-122 37 -201 72.5t-125 77.5t-64 93.5t-18 120.5q0 77 30.5 153t95 137t164 98.5t238.5 37.5q89 0 159 -16.5t124.5 -49
t94.5 -80.5t69 -112l-160 -90q-32 85 -109 134.5t-198 49.5q-84 0 -143.5 -21t-97 -54.5t-55 -77t-17.5 -88.5q0 -35 7.5 -61.5t35.5 -50t82 -47t147 -52.5q113 -36 187.5 -73.5t119 -83t62.5 -102.5t18 -130q0 -114 -46.5 -196.5t-123.5 -136t-176.5 -79t-204.5 -25.5
q-120 0 -204 23t-141 61.5t-90.5 90t-53.5 108.5zM989 1544l-129 238l-231 -238h-154l301 361h207l146 -361h-140z" />
    <glyph glyph-name="scircumflex" unicode="&#x15d;" horiz-adv-x="971" 
d="M168 238q26 -57 78 -90t147 -33q44 0 90.5 8.5t84.5 28.5t62.5 52.5t24.5 80.5q0 24 -6 45t-27 41.5t-62 41t-111 44.5q-83 27 -137 55.5t-86 61.5t-45 72.5t-13 90.5q0 71 27.5 133t80 108.5t128.5 73.5t174 27q75 0 131.5 -14t98 -38.5t70 -58t48.5 -73.5l-144 -84
q-8 18 -22.5 39.5t-40.5 40t-64.5 31t-93.5 12.5q-51 0 -92.5 -13t-71 -35.5t-45.5 -53.5t-16 -66q0 -23 7 -45t26 -42.5t52 -39t85 -33.5q92 -28 154 -56.5t99 -63.5t52.5 -79.5t15.5 -103.5q0 -69 -29 -130t-85 -106t-139.5 -71.5t-192.5 -26.5q-87 0 -150 16t-106.5 42.5
t-68.5 60.5t-36 70zM822 1208l-129 238l-231 -238h-154l301 361h207l146 -361h-140z" />
    <glyph glyph-name="Scedilla" unicode="&#x15e;" horiz-adv-x="1202" 
d="M684 -190q0 -101 -78 -153t-215 -52q-38 0 -74 5t-67 12t-53 15.5t-31 14.5l72 100q15 -7 36 -13t43.5 -10.5t45.5 -7t43 -2.5q25 0 52 4t49 14.5t36 28.5t14 46q0 37 -39 60t-115 28l52 73q-102 6 -174.5 31t-121.5 63t-79.5 86t-48.5 101l172 80q13 -39 36 -75
t61 -63.5t94.5 -44t137.5 -16.5q71 0 133.5 17.5t109.5 49t74.5 76.5t27.5 101q0 43 -9 77.5t-36 63t-76.5 53.5t-130.5 50q-122 37 -201 72.5t-125 77.5t-64 93.5t-18 120.5q0 77 30.5 153t95 137t164 98.5t238.5 37.5q89 0 159 -16.5t124.5 -49t94.5 -80.5t69 -112
l-160 -90q-32 85 -109 134.5t-198 49.5q-84 0 -143.5 -21t-97 -54.5t-55 -77t-17.5 -88.5q0 -35 7.5 -61.5t35.5 -50t82 -47t147 -52.5q113 -36 187.5 -73.5t119 -83t62.5 -102.5t18 -130q0 -108 -42.5 -188t-113.5 -133t-163.5 -81t-192.5 -33l-2 -4q66 -20 96.5 -60.5
t30.5 -98.5z" />
    <glyph glyph-name="scedilla" unicode="&#x15f;" horiz-adv-x="971" 
d="M563 -190q0 -101 -77.5 -153t-215.5 -52q-38 0 -74 5t-66.5 12t-53 15.5t-31.5 14.5l72 100q15 -7 36 -13t43.5 -10.5t45.5 -7t43 -2.5q25 0 52 4t49 14.5t36 28.5t14 46q0 37 -39 60t-114 28l49 71q-74 5 -128 22.5t-91.5 43t-60 57t-32.5 64.5l148 80q26 -57 78 -90
t147 -33q44 0 90.5 8.5t84.5 28.5t62.5 52.5t24.5 80.5q0 24 -6 45t-27 41.5t-62 41t-111 44.5q-83 27 -137 55.5t-86 61.5t-45 72.5t-13 90.5q0 71 27.5 133t80 108.5t128.5 73.5t174 27q75 0 131.5 -14t98 -38.5t70 -58t48.5 -73.5l-144 -84q-8 18 -22.5 39.5t-40.5 40
t-64.5 31t-93.5 12.5q-51 0 -92.5 -13t-71 -35.5t-45.5 -53.5t-16 -66q0 -23 7 -45t26 -42.5t52 -39t85 -33.5q92 -28 154 -56.5t99 -63.5t52.5 -79.5t15.5 -103.5q0 -65 -25 -122t-74.5 -101.5t-122.5 -73t-169 -35.5v-2q66 -20 96.5 -60.5t30.5 -98.5z" />
    <glyph glyph-name="Scaron" unicode="&#x160;" horiz-adv-x="1202" 
d="M203 334q13 -39 36 -75t61 -63.5t94.5 -44t137.5 -16.5q71 0 133.5 17.5t109.5 49t74.5 76.5t27.5 101q0 43 -9 77.5t-36 63t-76.5 53.5t-130.5 50q-122 37 -201 72.5t-125 77.5t-64 93.5t-18 120.5q0 77 30.5 153t95 137t164 98.5t238.5 37.5q89 0 159 -16.5t124.5 -49
t94.5 -80.5t69 -112l-160 -90q-32 85 -109 134.5t-198 49.5q-84 0 -143.5 -21t-97 -54.5t-55 -77t-17.5 -88.5q0 -35 7.5 -61.5t35.5 -50t82 -47t147 -52.5q113 -36 187.5 -73.5t119 -83t62.5 -102.5t18 -130q0 -114 -46.5 -196.5t-123.5 -136t-176.5 -79t-204.5 -25.5
q-120 0 -204 23t-141 61.5t-90.5 90t-53.5 108.5zM663 1905l129 -238l232 238h153l-301 -361h-207l-145 361h139z" />
    <glyph glyph-name="scaron" unicode="&#x161;" horiz-adv-x="971" 
d="M168 238q26 -57 78 -90t147 -33q44 0 90.5 8.5t84.5 28.5t62.5 52.5t24.5 80.5q0 24 -6 45t-27 41.5t-62 41t-111 44.5q-83 27 -137 55.5t-86 61.5t-45 72.5t-13 90.5q0 71 27.5 133t80 108.5t128.5 73.5t174 27q75 0 131.5 -14t98 -38.5t70 -58t48.5 -73.5l-144 -84
q-8 18 -22.5 39.5t-40.5 40t-64.5 31t-93.5 12.5q-51 0 -92.5 -13t-71 -35.5t-45.5 -53.5t-16 -66q0 -23 7 -45t26 -42.5t52 -39t85 -33.5q92 -28 154 -56.5t99 -63.5t52.5 -79.5t15.5 -103.5q0 -69 -29 -130t-85 -106t-139.5 -71.5t-192.5 -26.5q-87 0 -150 16t-106.5 42.5
t-68.5 60.5t-36 70zM502 1569l129 -238l232 238h153l-301 -361h-207l-145 361h139z" />
    <glyph glyph-name="uni0162" unicode="&#x162;" horiz-adv-x="1159" 
d="M637 -190q0 -101 -78 -153t-215 -52q-38 0 -74 5t-67 12t-53 15.5t-31 14.5l71 100q15 -7 36 -13t43.5 -10.5t45.5 -7t43 -2.5q25 0 52 4t49.5 14.5t36.5 28.5t14 46q0 37 -39 60t-115 28l70 100h-47l258 1217h-449l35 167h1080l-35 -167h-451l-258 -1217h-29l-20 -31
q66 -20 96.5 -60.5t30.5 -98.5z" />
    <glyph glyph-name="uni0163" unicode="&#x163;" horiz-adv-x="715" 
d="M494 -190q0 -101 -78 -153t-215 -52q-38 0 -74.5 5t-67 12t-53 15.5t-31.5 14.5l72 100q15 -7 36 -13t43.5 -10.5t45.5 -7t43 -2.5q25 0 52 4t49.5 14.5t36.5 28.5t14 46q0 37 -39.5 60t-114.5 28l57 82q-69 21 -102 74.5t-33 127.5q0 34 4.5 75t14.5 81l120 565h-145
l29 144h145l64 292h168l-64 -292h262l-28 -144h-263l-118 -555q-10 -42 -15.5 -76.5t-5.5 -60.5q0 -53 25 -76.5t82 -23.5q18 0 38 2t40.5 6t40 9t34.5 11v-141q-43 -12 -91 -20.5t-99 -10.5q63 -20 92 -61t29 -98z" />
    <glyph glyph-name="Tcaron" unicode="&#x164;" horiz-adv-x="1159" 
d="M817 1217l-258 -1217h-180l258 1217h-449l35 167h1080l-35 -167h-451zM686 1905l129 -238l232 238h153l-301 -361h-207l-145 361h139z" />
    <glyph glyph-name="tcaron" unicode="&#x165;" horiz-adv-x="715" 
d="M563 0q-46 -14 -95 -22.5t-91 -8.5q-65 0 -110.5 16t-75 44.5t-43 68t-13.5 86.5q0 34 4.5 75t14.5 81l120 565h-145l29 144h145l64 292h168l-64 -292h262l-28 -144h-263l-118 -555q-10 -42 -15.5 -76.5t-5.5 -60.5q0 -53 25 -76.5t82 -23.5q18 0 38 2t40.5 6t40 9
t34.5 11v-141zM723 1128h-129l133 361h219z" />
    <glyph glyph-name="Tbar" unicode="&#x166;" horiz-adv-x="1159" 
d="M700 666l-141 -666h-180l141 666h-209l29 139h209l88 412h-449l35 167h1080l-35 -167h-451l-88 -412h209l-29 -139h-209z" />
    <glyph glyph-name="tbar" unicode="&#x167;" horiz-adv-x="715" 
d="M373 580l-49 -230q-10 -42 -15.5 -76.5t-5.5 -60.5q0 -53 25 -76.5t82 -23.5q18 0 38 2t40.5 6t40 9t34.5 11v-141q-46 -14 -95 -22.5t-91 -8.5q-65 0 -110.5 16t-75 44.5t-43 68t-13.5 86.5q0 34 4.5 75t14.5 81l51 240h-162l29 139h161l41 186h-145l29 144h145l64 292
h168l-64 -292h262l-28 -144h-263l-41 -186h269l-29 -139h-268z" />
    <glyph glyph-name="Utilde" unicode="&#x168;" horiz-adv-x="1376" 
d="M1210 578q-38 -182 -90.5 -299.5t-126.5 -186.5t-174 -96t-233 -27q-115 0 -196 24t-132 70t-74.5 114t-23.5 157q0 111 35 266l165 784h181l-166 -786q-8 -35 -14 -66.5t-10.5 -63t-6.5 -64.5t-2 -70q0 -99 60 -150t190 -51q98 0 168 22t121 77t87 146.5t66 231.5
l166 774h180zM540 1557q34 131 103.5 196.5t160.5 65.5q58 0 95.5 -22t66 -49t54.5 -49t61 -22q49 0 83 37t48 92h119q-31 -124 -98 -193t-175 -69q-46 0 -77.5 10.5t-55 26.5t-40 34t-32 34t-32.5 26.5t-39 10.5q-42 0 -74 -33.5t-49 -95.5h-119z" />
    <glyph glyph-name="utilde" unicode="&#x169;" horiz-adv-x="1141" 
d="M436 1049l-129 -619q-12 -57 -20 -103.5t-8 -88.5q0 -60 25 -85.5t79 -25.5q80 0 176.5 47.5t196.5 132.5l157 742h170l-221 -1049h-170l33 156q-45 -41 -91 -75.5t-94 -59t-96.5 -38.5t-97.5 -14q-67 0 -112.5 18t-74 50.5t-41 76.5t-12.5 95q0 37 9 93t24 128l129 619
h168zM340 1221q34 131 103.5 196.5t160.5 65.5q58 0 95.5 -22t66 -49t54.5 -49t61 -22q49 0 83 37t48 92h119q-31 -124 -98 -193t-175 -69q-46 0 -77.5 10.5t-55 26.5t-40 34t-32 34t-32.5 26.5t-39 10.5q-42 0 -74 -33.5t-49 -95.5h-119z" />
    <glyph glyph-name="Umacron" unicode="&#x16a;" horiz-adv-x="1376" 
d="M1210 578q-38 -182 -90.5 -299.5t-126.5 -186.5t-174 -96t-233 -27q-115 0 -196 24t-132 70t-74.5 114t-23.5 157q0 111 35 266l165 784h181l-166 -786q-8 -35 -14 -66.5t-10.5 -63t-6.5 -64.5t-2 -70q0 -99 60 -150t190 -51q98 0 168 22t121 77t87 146.5t66 231.5
l166 774h180zM606 1591l29 140h598l-29 -140h-598z" />
    <glyph glyph-name="umacron" unicode="&#x16b;" horiz-adv-x="1141" 
d="M436 1049l-129 -619q-12 -57 -20 -103.5t-8 -88.5q0 -60 25 -85.5t79 -25.5q80 0 176.5 47.5t196.5 132.5l157 742h170l-221 -1049h-170l33 156q-45 -41 -91 -75.5t-94 -59t-96.5 -38.5t-97.5 -14q-67 0 -112.5 18t-74 50.5t-41 76.5t-12.5 95q0 37 9 93t24 128l129 619
h168zM416 1255l29 140h598l-29 -140h-598z" />
    <glyph glyph-name="Ubreve" unicode="&#x16c;" horiz-adv-x="1376" 
d="M1210 578q-38 -182 -90.5 -299.5t-126.5 -186.5t-174 -96t-233 -27q-115 0 -196 24t-132 70t-74.5 114t-23.5 157q0 111 35 266l165 784h181l-166 -786q-8 -35 -14 -66.5t-10.5 -63t-6.5 -64.5t-2 -70q0 -99 60 -150t190 -51q98 0 168 22t121 77t87 146.5t66 231.5
l166 774h180zM1258 1804q-12 -58 -38.5 -109.5t-70.5 -89.5t-107.5 -60.5t-150.5 -22.5q-75 0 -128.5 17.5t-87.5 47.5t-50 70.5t-16 85.5q0 31 6 61h125q0 -63 39 -94t127 -31q48 0 84.5 8.5t63 24.5t44 39t29.5 53h131z" />
    <glyph glyph-name="ubreve" unicode="&#x16d;" horiz-adv-x="1141" 
d="M436 1049l-129 -619q-12 -57 -20 -103.5t-8 -88.5q0 -60 25 -85.5t79 -25.5q80 0 176.5 47.5t196.5 132.5l157 742h170l-221 -1049h-170l33 156q-45 -41 -91 -75.5t-94 -59t-96.5 -38.5t-97.5 -14q-67 0 -112.5 18t-74 50.5t-41 76.5t-12.5 95q0 37 9 93t24 128l129 619
h168zM1077 1468q-12 -58 -38.5 -109.5t-70.5 -89.5t-107.5 -60.5t-150.5 -22.5q-75 0 -128.5 17.5t-87.5 47.5t-50 70.5t-16 85.5q0 31 6 61h125q0 -63 39 -94t127 -31q48 0 84.5 8.5t63 24.5t44 39t29.5 53h131z" />
    <glyph glyph-name="Uring" unicode="&#x16e;" horiz-adv-x="1376" 
d="M1210 578q-38 -182 -90.5 -299.5t-126.5 -186.5t-174 -96t-233 -27q-115 0 -196 24t-132 70t-74.5 114t-23.5 157q0 111 35 266l165 784h181l-166 -786q-8 -35 -14 -66.5t-10.5 -63t-6.5 -64.5t-2 -70q0 -99 60 -150t190 -51q98 0 168 22t121 77t87 146.5t66 231.5
l166 774h180zM1104 1718q0 -42 -14 -82t-41.5 -71.5t-69.5 -50.5t-98 -19q-45 0 -76 13t-49.5 35t-26.5 50t-8 58q0 44 16 84t44.5 70.5t69 48.5t89.5 18q79 0 121.5 -41t42.5 -113zM895 1577q54 0 88.5 35.5t34.5 97.5q0 37 -21 58.5t-67 21.5q-30 0 -53 -12t-38.5 -30.5
t-23.5 -42t-8 -46.5q0 -38 18.5 -60t69.5 -22z" />
    <glyph glyph-name="uring" unicode="&#x16f;" horiz-adv-x="1141" 
d="M436 1049l-129 -619q-12 -57 -20 -103.5t-8 -88.5q0 -60 25 -85.5t79 -25.5q80 0 176.5 47.5t196.5 132.5l157 742h170l-221 -1049h-170l33 156q-45 -41 -91 -75.5t-94 -59t-96.5 -38.5t-97.5 -14q-67 0 -112.5 18t-74 50.5t-41 76.5t-12.5 95q0 37 9 93t24 128l129 619
h168zM907 1382q0 -42 -14 -82t-41.5 -71.5t-69.5 -50.5t-98 -19q-45 0 -76 13t-49.5 35t-26.5 50t-8 58q0 44 16 84t44.5 70.5t69 48.5t89.5 18q79 0 121.5 -41t42.5 -113zM698 1241q54 0 88.5 35.5t34.5 97.5q0 37 -21 58.5t-67 21.5q-30 0 -53 -12t-38.5 -30.5t-23.5 -42
t-8 -46.5q0 -38 18.5 -60t69.5 -22z" />
    <glyph glyph-name="Uhungarumlaut" unicode="&#x170;" horiz-adv-x="1376" 
d="M1210 578q-38 -182 -90.5 -299.5t-126.5 -186.5t-174 -96t-233 -27q-115 0 -196 24t-132 70t-74.5 114t-23.5 157q0 111 35 266l165 784h181l-166 -786q-8 -35 -14 -66.5t-10.5 -63t-6.5 -64.5t-2 -70q0 -99 60 -150t190 -51q98 0 168 22t121 77t87 146.5t66 231.5
l166 774h180zM1122 1544h-151l237 361h244zM782 1544h-151l235 361h246z" />
    <glyph glyph-name="uhungarumlaut" unicode="&#x171;" horiz-adv-x="1141" 
d="M436 1049l-129 -619q-12 -57 -20 -103.5t-8 -88.5q0 -60 25 -85.5t79 -25.5q80 0 176.5 47.5t196.5 132.5l157 742h170l-221 -1049h-170l33 156q-45 -41 -91 -75.5t-94 -59t-96.5 -38.5t-97.5 -14q-67 0 -112.5 18t-74 50.5t-41 76.5t-12.5 95q0 37 9 93t24 128l129 619
h168zM944 1208h-151l237 361h244zM604 1208h-151l235 361h246z" />
    <glyph glyph-name="Uogonek" unicode="&#x172;" horiz-adv-x="1376" 
d="M897 -332q-42 -31 -93.5 -47t-101.5 -16q-176 0 -176 164q0 52 22.5 103t67.5 97h-30q-115 0 -196 24t-132 70t-74.5 114t-23.5 157q0 111 35 266l165 784h181l-166 -786q-8 -35 -14 -66.5t-10.5 -63t-6.5 -64.5t-2 -70q0 -99 60 -150t190 -51q98 0 168 22t121 77
t87 146.5t66 231.5l166 774h180l-170 -806q-27 -128 -60.5 -223.5t-76 -164t-97 -113t-124.5 -71.5q-51 -20 -85.5 -45t-55 -52.5t-29 -56.5t-8.5 -57q0 -25 15.5 -38t43.5 -13q34 0 66.5 8t66.5 25z" />
    <glyph glyph-name="uogonek" unicode="&#x173;" horiz-adv-x="1141" 
d="M895 -332q-42 -31 -93.5 -47t-101.5 -16q-176 0 -176 164q0 66 39.5 130.5t130.5 116.5l31 140q-45 -41 -91 -75.5t-94 -59t-96.5 -38.5t-97.5 -14q-67 0 -112.5 18t-74 50.5t-41 76.5t-12.5 95q0 37 9 93t24 128l129 619h168l-129 -619q-12 -57 -20 -103.5t-8 -88.5
q0 -60 25 -85.5t79 -25.5q80 0 176.5 47.5t196.5 132.5l157 742h170l-221 -1049q-59 -24 -96 -50.5t-58 -53.5t-28.5 -53t-7.5 -48q0 -25 15.5 -38t43.5 -13q34 0 66.5 8t66.5 25z" />
    <glyph glyph-name="Wcircumflex" unicode="&#x174;" horiz-adv-x="1722" 
d="M1219 0h-218l-22 1108l-492 -1108h-211l-28 1384h176l14 -1122l494 1122h205l22 -1122l496 1122h184zM1261 1544l-129 238l-231 -238h-154l301 361h207l146 -361h-140z" />
    <glyph glyph-name="wcircumflex" unicode="&#x175;" horiz-adv-x="1446" 
d="M1020 0h-160l-80 803l-422 -803h-151l-35 1049h166l6 -799l412 799h141l84 -799l334 799h178zM1061 1208l-129 238l-231 -238h-154l301 361h207l146 -361h-140z" />
    <glyph glyph-name="Ycircumflex" unicode="&#x176;" horiz-adv-x="1124" 
d="M655 535l-112 -535h-185l111 526l-246 858h189l180 -673l463 673h211zM964 1544l-129 238l-231 -238h-154l301 361h207l146 -361h-140z" />
    <glyph glyph-name="ycircumflex" unicode="&#x177;" horiz-adv-x="1020" 
d="M-121 -227q22 -11 50.5 -18t60.5 -7q37 0 70.5 12t66 39t66.5 71.5t73 109.5l56 90l-164 979h172l119 -783l448 783h186l-677 -1129q-53 -87 -98.5 -147t-93.5 -97.5t-103.5 -54t-126.5 -16.5q-23 0 -46.5 2.5t-45.5 6.5t-41.5 9.5t-34.5 11.5zM842 1208l-129 238
l-231 -238h-154l301 361h207l146 -361h-140z" />
    <glyph glyph-name="Ydieresis" unicode="&#x178;" horiz-adv-x="1124" 
d="M655 535l-112 -535h-185l111 526l-246 858h189l180 -673l463 673h211zM723 1690q0 -9 -2 -21.5t-5 -25t-7.5 -23.5t-8.5 -18q-17 -32 -42 -45t-69 -13q-52 0 -71 17.5t-19 48.5q0 6 1.5 16.5t4.5 22.5t6.5 24t8.5 21q14 32 39 47.5t73 15.5q51 0 71 -16.5t20 -50.5z
M1110 1690q0 -9 -2 -21.5t-5 -25t-7.5 -23.5t-8.5 -18q-17 -32 -42 -45t-68 -13q-53 0 -72 17.5t-19 48.5q0 6 1.5 16.5t4.5 22.5t6.5 24t8.5 21q14 32 39.5 47.5t73.5 15.5q51 0 70.5 -16.5t19.5 -50.5z" />
    <glyph glyph-name="Zacute" unicode="&#x179;" horiz-adv-x="1141" 
d="M-20 0l36 176l926 1041h-674l35 167h899l-35 -165l-936 -1051h730l-35 -168h-946zM784 1542h-150l240 361h242z" />
    <glyph glyph-name="zacute" unicode="&#x17a;" horiz-adv-x="915" 
d="M-31 0l27 131l692 774h-514l29 144h727l-27 -125l-692 -779h545l-31 -145h-756zM628 1208h-150l240 361h242z" />
    <glyph glyph-name="Zdotaccent" unicode="&#x17b;" horiz-adv-x="1141" 
d="M-20 0l36 176l926 1041h-674l35 167h899l-35 -165l-936 -1051h730l-35 -168h-946zM878 1698q0 -10 -2 -23t-5 -26t-7 -24.5t-8 -18.5q-20 -37 -49 -50.5t-74 -13.5q-56 0 -76 20t-20 54q0 20 4.5 43t13.5 43q16 35 45 52.5t80 17.5q54 0 76 -18.5t22 -55.5z" />
    <glyph glyph-name="zdotaccent" unicode="&#x17c;" horiz-adv-x="915" 
d="M-31 0l27 131l692 774h-514l29 144h727l-27 -125l-692 -779h545l-31 -145h-756zM722 1364q0 -10 -2 -23t-5 -26t-7 -24.5t-8 -18.5q-20 -37 -49 -50.5t-74 -13.5q-56 0 -76 20t-20 54q0 20 4.5 43t13.5 43q16 35 45 52.5t80 17.5q54 0 76 -18.5t22 -55.5z" />
    <glyph glyph-name="Zcaron" unicode="&#x17d;" horiz-adv-x="1141" 
d="M-20 0l36 176l926 1041h-674l35 167h899l-35 -165l-936 -1051h730l-35 -168h-946zM622 1903l129 -238l232 238h153l-301 -361h-207l-145 361h139z" />
    <glyph glyph-name="zcaron" unicode="&#x17e;" horiz-adv-x="915" 
d="M-31 0l27 131l692 774h-514l29 144h727l-27 -125l-692 -779h545l-31 -145h-756zM466 1569l129 -238l232 238h153l-301 -361h-207l-145 361h139z" />
    <glyph glyph-name="longs" unicode="&#x17f;" horiz-adv-x="532" 
d="M823 1329q-26 17 -61.5 29t-77.5 12t-75.5 -10.5t-59 -33.5t-43 -61.5t-29.5 -93.5l-248 -1171h-168l193 905h-109l29 144h109l22 102q21 97 51 166.5t75 114.5t109.5 66.5t155.5 21.5q53 0 100.5 -13t88.5 -34z" />
    <glyph glyph-name="florin" unicode="&#x192;" horiz-adv-x="1239" 
d="M1090 1333q-48 16 -84.5 26.5t-79.5 10.5q-24 0 -43 -5t-35.5 -23.5t-30.5 -56t-29 -101.5l-30 -135h209l-29 -144h-211l-219 -1022q-5 -21 -12.5 -50t-20.5 -60t-33 -61.5t-49.5 -54.5t-71 -39t-96.5 -15q-71 0 -129.5 13t-93.5 26l35 137q35 -11 73 -19t89 -8
q33 0 56 9t40.5 35.5t32 73.5t30.5 122l195 913h-172l31 144h172l32 143q20 87 46.5 149t63.5 101.5t86.5 58.5t117.5 19t120.5 -13.5t86.5 -25.5z" />
    <glyph glyph-name="Ohorn" unicode="&#x1a0;" horiz-adv-x="1460" 
d="M582 -29q-132 0 -221 35.5t-143 100.5t-77.5 157t-23.5 205q0 53 6 112.5t18 122.5t31 127.5t45 126.5q40 94 93.5 177t127 145t171.5 97.5t227 35.5q182 0 293.5 -85t146.5 -249h20q36 0 64 10t48.5 31.5t35 57t24.5 86.5l37 182h160l-37 -182q-15 -71 -36.5 -130
t-57.5 -101t-91 -65.5t-136 -23.5h-17v-20q0 -79 -14 -185t-49 -219q-36 -116 -90 -216t-131.5 -174t-182 -116.5t-241.5 -42.5zM311 465q0 -92 15.5 -155t49.5 -102t87.5 -56t128.5 -17q163 0 270.5 105.5t175.5 322.5q15 49 26 99.5t18 98.5t10.5 91t3.5 78q0 161 -65 240
t-214 79q-81 0 -144 -24t-113 -68.5t-89 -108.5t-72 -145q-23 -57 -39.5 -117t-27.5 -117t-16 -109.5t-5 -94.5z" />
    <glyph glyph-name="ohorn" unicode="&#x1a1;" horiz-adv-x="1257" 
d="M92 379q0 59 12.5 133.5t40 152.5t72 152.5t108.5 132.5t148.5 93.5t192.5 35.5q148 0 240.5 -67.5t121.5 -206.5q34 1 60.5 11t46.5 32t34.5 56.5t24.5 84.5l29 141h159l-28 -141q-15 -70 -36.5 -128t-57 -100t-89 -66t-131.5 -25q0 -20 -0.5 -42.5t-3.5 -45.5
q-7 -64 -25.5 -134.5t-49.5 -139t-75 -130t-104 -108t-135.5 -74t-169.5 -27.5q-105 0 -178.5 26.5t-119 78t-66.5 128t-21 177.5zM266 369q0 -123 51 -186.5t170 -63.5q64 0 117 24.5t95.5 66t74 96.5t52.5 116.5t31.5 125.5t10.5 124q0 125 -53.5 191.5t-165.5 66.5
q-69 0 -124 -27t-98 -71.5t-73 -102.5t-50 -120.5t-29 -124.5t-9 -115z" />
    <glyph glyph-name="Uhorn" unicode="&#x1af;" horiz-adv-x="1522" 
d="M1315 1079h43q36 0 63.5 10t48.5 31.5t35.5 57t24.5 86.5l37 182h159l-36 -182q-15 -71 -36.5 -130t-58 -101t-91.5 -65.5t-136 -23.5h-82l-76 -366q-38 -182 -90.5 -299.5t-126.5 -186.5t-174 -96t-233 -27q-115 0 -196 24t-132 70t-74.5 114t-23.5 157q0 111 35 266
l165 784h181l-166 -786q-8 -35 -14 -66.5t-10.5 -63t-6.5 -64.5t-2 -70q0 -99 60 -150t190 -51q98 0 168 22t121 77t87 146.5t66 231.5l166 774h180z" />
    <glyph glyph-name="uhorn" unicode="&#x1b0;" horiz-adv-x="1298" 
d="M436 1049l-129 -619q-12 -57 -20 -103.5t-8 -88.5q0 -60 25 -85.5t79 -25.5q80 0 176.5 47.5t196.5 132.5l157 742h170l-51 -244h31q36 0 63.5 10t48.5 31.5t35.5 56.5t24.5 86l29 141h159l-28 -141q-15 -71 -36.5 -129.5t-58 -100.5t-91.5 -65.5t-136 -23.5h-69
l-142 -670h-170l33 156q-45 -41 -91 -75.5t-94 -59t-96.5 -38.5t-97.5 -14q-67 0 -112.5 18t-74 50.5t-41 76.5t-12.5 95q0 37 9 93t24 128l129 619h168z" />
    <glyph glyph-name="Acaron" unicode="&#x1cd;" horiz-adv-x="1262" 
d="M-47 0l747 1384h236l176 -1384h-188l-43 360h-539l-197 -360h-192zM426 528h434l-78 674zM720 1905l129 -238l232 238h153l-301 -361h-206l-146 361h139z" />
    <glyph glyph-name="acaron" unicode="&#x1ce;" horiz-adv-x="1151" 
d="M92 342q0 70 13.5 151.5t41 163.5t71 158t103 135t136.5 94t172 35q96 0 162.5 -30.5t115.5 -85.5l19 86h170l-222 -1049h-169l26 125q-37 -32 -75 -60t-78.5 -49.5t-85 -34t-93.5 -12.5q-83 0 -141.5 24.5t-95 72t-53.5 117t-17 159.5zM877 813q-50 54 -108 83.5
t-144 29.5q-62 0 -112.5 -27t-90.5 -73t-69.5 -106t-48.5 -125t-28.5 -131.5t-9.5 -125.5q0 -116 40.5 -165.5t127.5 -49.5q45 0 89 12.5t86 34t81 49.5t74 60zM568 1569l129 -238l232 238h153l-301 -361h-207l-145 361h139z" />
    <glyph glyph-name="Icaron" unicode="&#x1cf;" horiz-adv-x="754" 
d="M543 0h-553l33 160h186l227 1067h-186l33 157h553l-33 -157h-187l-227 -1067h186zM472 1905l129 -238l232 238h153l-301 -361h-206l-146 361h139z" />
    <glyph glyph-name="icaron" unicode="&#x1d0;" horiz-adv-x="502" 
d="M55 0l221 1049h170l-221 -1049h-170zM269 1569l129 -238l232 238h153l-301 -361h-207l-145 361h139z" />
    <glyph glyph-name="Ocaron" unicode="&#x1d1;" horiz-adv-x="1337" 
d="M582 -29q-132 0 -221 35.5t-143 100.5t-77.5 157t-23.5 205q0 53 6 112.5t18 122.5t31 127.5t45 126.5q40 94 93.5 177t127 145t171.5 97.5t227 35.5q222 0 338 -124t116 -365q0 -79 -14 -185t-49 -219q-36 -116 -90 -216t-131.5 -174t-182 -116.5t-241.5 -42.5zM311 465
q0 -92 15.5 -155t49.5 -102t87.5 -56t128.5 -17q163 0 270.5 105.5t175.5 322.5q15 49 26 99.5t18 98.5t10.5 91t3.5 78q0 161 -65 240t-214 79q-81 0 -144 -24t-113 -68.5t-89 -108.5t-72 -145q-23 -57 -39.5 -117t-27.5 -117t-16 -109.5t-5 -94.5zM735 1905l129 -238
l232 238h153l-301 -361h-206l-146 361h139z" />
    <glyph glyph-name="ocaron" unicode="&#x1d2;" horiz-adv-x="1135" 
d="M92 379q0 54 10.5 121t33.5 138.5t59.5 141.5t89.5 129q33 38 72.5 69t87 53.5t102.5 35t119 12.5q179 0 277.5 -101t98.5 -306q0 -62 -11.5 -135.5t-37 -148.5t-66 -146.5t-98.5 -128.5q-65 -65 -151.5 -104.5t-200.5 -39.5q-105 0 -178.5 26.5t-119 78t-66.5 128
t-21 177.5zM266 369q0 -65 12 -112.5t38.5 -78t68.5 -45t102 -14.5q72 0 129.5 29.5t102.5 80.5q35 40 63 93t47 112t29 120.5t10 117.5q0 133 -53.5 195.5t-165.5 62.5q-81 0 -144 -37.5t-108 -97.5q-31 -41 -55 -93t-41 -108t-26 -114t-9 -111zM571 1569l129 -238l232 238
h153l-301 -361h-207l-145 361h139z" />
    <glyph glyph-name="Ucaron" unicode="&#x1d3;" horiz-adv-x="1376" 
d="M1210 578q-38 -182 -90.5 -299.5t-126.5 -186.5t-174 -96t-233 -27q-115 0 -196 24t-132 70t-74.5 114t-23.5 157q0 111 35 266l165 784h181l-166 -786q-8 -35 -14 -66.5t-10.5 -63t-6.5 -64.5t-2 -70q0 -99 60 -150t190 -51q98 0 168 22t121 77t87 146.5t66 231.5
l166 774h180zM759 1905l129 -238l232 238h153l-301 -361h-206l-146 361h139z" />
    <glyph glyph-name="ucaron" unicode="&#x1d4;" horiz-adv-x="1141" 
d="M436 1049l-129 -619q-12 -57 -20 -103.5t-8 -88.5q0 -60 25 -85.5t79 -25.5q80 0 176.5 47.5t196.5 132.5l157 742h170l-221 -1049h-170l33 156q-45 -41 -91 -75.5t-94 -59t-96.5 -38.5t-97.5 -14q-67 0 -112.5 18t-74 50.5t-41 76.5t-12.5 95q0 37 9 93t24 128l129 619
h168zM579 1569l129 -238l232 238h153l-301 -361h-207l-145 361h139z" />
    <glyph glyph-name="Udieresismacron" unicode="&#x1d5;" horiz-adv-x="1376" 
d="M1210 578q-38 -182 -90.5 -299.5t-126.5 -186.5t-174 -96t-233 -27q-115 0 -196 24t-132 70t-74.5 114t-23.5 157q0 111 35 266l165 784h181l-166 -786q-8 -35 -14 -66.5t-10.5 -63t-6.5 -64.5t-2 -70q0 -99 60 -150t190 -51q98 0 168 22t121 77t87 146.5t66 231.5
l166 774h180zM834 1649q0 -9 -2 -21.5t-5 -25t-7 -23.5t-8 -18q-17 -32 -42.5 -45t-68.5 -13q-53 0 -71.5 17.5t-18.5 48.5q0 6 1.5 16.5t4 22.5t6 24t8.5 21q14 32 39.5 47.5t73.5 15.5q51 0 70.5 -16.5t19.5 -50.5zM1221 1649q0 -9 -2 -21.5t-5 -25t-7 -23.5t-8 -18
q-19 -31 -43.5 -44.5t-67.5 -13.5q-53 0 -71.5 17.5t-18.5 48.5q0 6 1.5 16.5t4 22.5t6 24t8.5 21q14 32 39.5 47.5t73.5 15.5q51 0 70.5 -16.5t19.5 -50.5zM652 1794l28 139h598l-28 -139h-598z" />
    <glyph glyph-name="udieresismacron" unicode="&#x1d6;" horiz-adv-x="1141" 
d="M436 1049l-129 -619q-12 -57 -20 -103.5t-8 -88.5q0 -60 25 -85.5t79 -25.5q80 0 176.5 47.5t196.5 132.5l157 742h170l-221 -1049h-170l33 156q-45 -41 -91 -75.5t-94 -59t-96.5 -38.5t-97.5 -14q-67 0 -112.5 18t-74 50.5t-41 76.5t-12.5 95q0 37 9 93t24 128l129 619
h168zM632 1313q0 -9 -2 -21.5t-5 -25t-7 -23.5t-8 -18q-17 -32 -42 -45t-69 -13q-52 0 -71 17.5t-19 48.5q0 6 1.5 16.5t4 22.5t6.5 24t9 21q14 32 39 47.5t73 15.5q51 0 70.5 -16.5t19.5 -50.5zM1019 1313q0 -9 -2 -21.5t-5 -25t-7 -23.5t-8 -18q-19 -31 -43 -44.5
t-68 -13.5q-52 0 -71 17.5t-19 48.5q0 6 1.5 16.5t4 22.5t6.5 24t9 21q14 32 39 47.5t73 15.5q51 0 70.5 -16.5t19.5 -50.5zM450 1458l29 139h598l-29 -139h-598z" />
    <glyph glyph-name="Udieresisacute" unicode="&#x1d7;" horiz-adv-x="1376" 
d="M1210 578q-38 -182 -90.5 -299.5t-126.5 -186.5t-174 -96t-233 -27q-115 0 -196 24t-132 70t-74.5 114t-23.5 157q0 111 35 266l165 784h181l-166 -786q-8 -35 -14 -66.5t-10.5 -63t-6.5 -64.5t-2 -70q0 -99 60 -150t190 -51q98 0 168 22t121 77t87 146.5t66 231.5
l166 774h180zM969 1737h-140l176 311h232zM815 1649q0 -9 -2 -21.5t-5 -25t-7 -23.5t-9 -18q-17 -32 -42 -45t-68 -13q-53 0 -71.5 17.5t-18.5 48.5q0 6 1.5 16.5t4 22.5t6 24t8.5 21q14 32 39.5 47.5t73.5 15.5q51 0 70.5 -16.5t19.5 -50.5zM1202 1649q0 -9 -2 -21.5
t-5 -25t-7 -23.5t-8 -18q-19 -31 -43.5 -44.5t-67.5 -13.5q-53 0 -71.5 17.5t-18.5 48.5q0 6 1.5 16.5t4 22.5t6 24t8.5 21q14 32 39.5 47.5t73.5 15.5q51 0 70.5 -16.5t19.5 -50.5z" />
    <glyph glyph-name="udieresisacute" unicode="&#x1d8;" horiz-adv-x="1141" 
d="M436 1049l-129 -619q-12 -57 -20 -103.5t-8 -88.5q0 -60 25 -85.5t79 -25.5q80 0 176.5 47.5t196.5 132.5l157 742h170l-221 -1049h-170l33 156q-45 -41 -91 -75.5t-94 -59t-96.5 -38.5t-97.5 -14q-67 0 -112.5 18t-74 50.5t-41 76.5t-12.5 95q0 37 9 93t24 128l129 619
h168zM786 1401h-139l176 311h231zM632 1313q0 -9 -2 -21.5t-5 -25t-7 -23.5t-8 -18q-17 -32 -42 -45t-69 -13q-52 0 -71 17.5t-19 48.5q0 6 1.5 16.5t4 22.5t6.5 24t9 21q14 32 39 47.5t73 15.5q51 0 70.5 -16.5t19.5 -50.5zM1019 1313q0 -9 -2 -21.5t-5 -25t-7 -23.5
t-8 -18q-19 -31 -43 -44.5t-68 -13.5q-52 0 -71 17.5t-19 48.5q0 6 1.5 16.5t4 22.5t6.5 24t9 21q14 32 39 47.5t73 15.5q51 0 70.5 -16.5t19.5 -50.5z" />
    <glyph glyph-name="Udieresiscaron" unicode="&#x1d9;" horiz-adv-x="1376" 
d="M1210 578q-38 -182 -90.5 -299.5t-126.5 -186.5t-174 -96t-233 -27q-115 0 -196 24t-132 70t-74.5 114t-23.5 157q0 111 35 266l165 784h181l-166 -786q-8 -35 -14 -66.5t-10.5 -63t-6.5 -64.5t-2 -70q0 -99 60 -150t190 -51q98 0 168 22t121 77t87 146.5t66 231.5
l166 774h180zM815 1649q0 -9 -2 -21.5t-5 -25t-7 -23.5t-9 -18q-17 -32 -42 -45t-68 -13q-53 0 -71.5 17.5t-18.5 48.5q0 6 1.5 16.5t4 22.5t6 24t8.5 21q14 32 39.5 47.5t73.5 15.5q51 0 70.5 -16.5t19.5 -50.5zM1202 1649q0 -9 -2 -21.5t-5 -25t-7 -23.5t-8 -18
q-17 -32 -42.5 -45t-68.5 -13q-53 0 -71.5 17.5t-18.5 48.5q0 6 1.5 16.5t4 22.5t6 24t8.5 21q14 32 39.5 47.5t73.5 15.5q51 0 70.5 -16.5t19.5 -50.5zM813 2048l131 -178l229 178h154l-297 -289h-207l-149 289h139z" />
    <glyph glyph-name="udieresiscaron" unicode="&#x1da;" horiz-adv-x="1141" 
d="M436 1049l-129 -619q-12 -57 -20 -103.5t-8 -88.5q0 -60 25 -85.5t79 -25.5q80 0 176.5 47.5t196.5 132.5l157 742h170l-221 -1049h-170l33 156q-45 -41 -91 -75.5t-94 -59t-96.5 -38.5t-97.5 -14q-67 0 -112.5 18t-74 50.5t-41 76.5t-12.5 95q0 37 9 93t24 128l129 619
h168zM626 1313q0 -9 -2 -21.5t-5 -25t-7 -23.5t-8 -18q-17 -32 -42 -45t-69 -13q-52 0 -71 17.5t-19 48.5q0 6 1.5 16.5t4 22.5t6.5 24t9 21q14 32 39 47.5t73 15.5q51 0 70.5 -16.5t19.5 -50.5zM1013 1313q0 -9 -2 -21.5t-5 -25t-7 -23.5t-8 -18q-17 -32 -42 -45t-69 -13
q-52 0 -71 17.5t-19 48.5q0 6 1.5 16.5t4 22.5t6.5 24t9 21q14 32 39 47.5t73 15.5q51 0 70.5 -16.5t19.5 -50.5zM624 1712l131 -178l230 178h153l-297 -289h-206l-150 289h139z" />
    <glyph glyph-name="Udieresisgrave" unicode="&#x1db;" horiz-adv-x="1376" 
d="M1210 578q-38 -182 -90.5 -299.5t-126.5 -186.5t-174 -96t-233 -27q-115 0 -196 24t-132 70t-74.5 114t-23.5 157q0 111 35 266l165 784h181l-166 -786q-8 -35 -14 -66.5t-10.5 -63t-6.5 -64.5t-2 -70q0 -99 60 -150t190 -51q98 0 168 22t121 77t87 146.5t66 231.5
l166 774h180zM872 1737l-174 311h217l78 -311h-121zM823 1649q0 -9 -2 -21.5t-5 -25t-7 -23.5t-9 -18q-17 -32 -42 -45t-68 -13q-53 0 -71.5 17.5t-18.5 48.5q0 6 1.5 16.5t4 22.5t6 24t8.5 21q14 32 39.5 47.5t73.5 15.5q51 0 70.5 -16.5t19.5 -50.5zM1210 1649
q0 -9 -2 -21.5t-5 -25t-7 -23.5t-8 -18q-17 -32 -42.5 -45t-68.5 -13q-53 0 -71.5 17.5t-18.5 48.5q0 6 1.5 16.5t4 22.5t6 24t8.5 21q14 32 39.5 47.5t73.5 15.5q51 0 70.5 -16.5t19.5 -50.5z" />
    <glyph glyph-name="udieresisgrave" unicode="&#x1dc;" horiz-adv-x="1141" 
d="M436 1049l-129 -619q-12 -57 -20 -103.5t-8 -88.5q0 -60 25 -85.5t79 -25.5q80 0 176.5 47.5t196.5 132.5l157 742h170l-221 -1049h-170l33 156q-45 -41 -91 -75.5t-94 -59t-96.5 -38.5t-97.5 -14q-67 0 -112.5 18t-74 50.5t-41 76.5t-12.5 95q0 37 9 93t24 128l129 619
h168zM676 1401l-175 311h218l77 -311h-120zM626 1313q0 -9 -2 -21.5t-5 -25t-7 -23.5t-8 -18q-17 -32 -42 -45t-69 -13q-52 0 -71 17.5t-19 48.5q0 6 1.5 16.5t4 22.5t6.5 24t9 21q14 32 39 47.5t73 15.5q51 0 70.5 -16.5t19.5 -50.5zM1013 1313q0 -9 -2 -21.5t-5 -25
t-7 -23.5t-8 -18q-17 -32 -42 -45t-69 -13q-52 0 -71 17.5t-19 48.5q0 6 1.5 16.5t4 22.5t6.5 24t9 21q14 32 39 47.5t73 15.5q51 0 70.5 -16.5t19.5 -50.5z" />
    <glyph glyph-name="Aringacute" unicode="&#x1fa;" horiz-adv-x="1262" 
d="M1032 1534q0 -56 -23 -105t-69 -81l172 -1348h-188l-43 360h-539l-197 -360h-192l731 1356q-20 21 -27.5 50t-7.5 60q0 44 16 84t44.5 71t69 49t89.5 18q79 0 121.5 -41.5t42.5 -112.5zM426 528h434l-78 674zM942 1747h-149l178 278h241zM823 1393q54 0 88.5 35.5
t34.5 97.5q0 37 -20.5 58.5t-67.5 21.5q-30 0 -53 -12t-38.5 -30.5t-23.5 -42t-8 -46.5q0 -39 18.5 -60.5t69.5 -21.5z" />
    <glyph glyph-name="aringacute" unicode="&#x1fb;" horiz-adv-x="1151" 
d="M92 342q0 70 13.5 151.5t41 163.5t71 158t103 135t136.5 94t172 35q96 0 162.5 -30.5t115.5 -85.5l19 86h170l-222 -1049h-169l26 125q-37 -32 -75 -60t-78.5 -49.5t-85 -34t-93.5 -12.5q-83 0 -141.5 24.5t-95 72t-53.5 117t-17 159.5zM877 813q-50 54 -108 83.5
t-144 29.5q-62 0 -112.5 -27t-90.5 -73t-69.5 -106t-48.5 -125t-28.5 -131.5t-9.5 -125.5q0 -116 40.5 -165.5t127.5 -49.5q45 0 89 12.5t86 34t81 49.5t74 60zM892 1380q0 -42 -14 -82t-41.5 -71.5t-69.5 -50.5t-98 -19q-45 0 -76 13t-49.5 35t-26.5 50t-8 58q0 44 16 84
t44.5 70.5t69 48.5t89.5 18q79 0 121.5 -41t42.5 -113zM683 1239q54 0 88.5 35.5t34.5 97.5q0 37 -21 58.5t-67 21.5q-30 0 -53 -12t-38.5 -30.5t-23.5 -42t-8 -46.5q0 -38 18.5 -60t69.5 -22zM803 1593h-150l240 361h242z" />
    <glyph glyph-name="AEacute" unicode="&#x1fc;" horiz-adv-x="1712" 
d="M707 0l79 383h-438l-219 -383h-192l811 1384h1024l-35 -167h-592l-86 -404h516l-37 -168h-516l-100 -477h591l-34 -168h-772zM965 1217h-138l-381 -666h377zM1155 1544h-150l240 361h242z" />
    <glyph glyph-name="aeacute" unicode="&#x1fd;" horiz-adv-x="1690" 
d="M915 504q-9 -47 -14.5 -88t-5.5 -78q0 -63 13.5 -105t41.5 -67.5t72 -36t104 -10.5q69 0 135 35t128 100l106 -98q-39 -45 -81.5 -79.5t-91.5 -58.5t-106 -36.5t-124 -12.5q-127 0 -213.5 45.5t-126.5 141.5q-127 -94 -241 -140.5t-216 -46.5q-122 0 -185 68t-63 196
q0 93 36.5 166t100.5 125.5t151.5 83.5t188.5 39l258 23l11 51q6 36 6 65q0 41 -14 68.5t-40 44.5t-62 24t-81 7q-96 0 -167 -32t-113 -85l-119 86q63 83 161.5 131.5t239.5 48.5q152 0 231.5 -39t104.5 -120q31 37 66 67t77.5 50t94 31t114.5 11q82 0 144 -23.5t104 -66
t63 -103t21 -134.5q0 -10 -1.5 -29t-3.5 -41t-5 -44t-6 -38l-21 -96h-672zM721 334q0 34 8 85.5t25 112.5l-170 -16q-63 -5 -126.5 -19t-115 -44t-83.5 -81t-32 -130q0 -62 35 -90.5t92 -28.5q39 0 80 9t85.5 27.5t94.5 47.5t109 69q-2 14 -2 28v30zM1448 639q12 58 12 109
q0 91 -45 139.5t-145 48.5q-71 0 -125.5 -24t-97.5 -76q-57 -71 -101 -197h502zM1020 1208h-150l240 361h242z" />
    <glyph glyph-name="Oslashacute" unicode="&#x1fe;" horiz-adv-x="1337" 
d="M-68 -115l246 281q-34 60 -47.5 136t-13.5 167q0 88 16 192t51 209t90.5 203t135.5 173.5t185.5 121t240.5 45.5q218 0 331 -115l166 191h166l-258 -295q49 -110 49 -270q0 -59 -7.5 -131t-24.5 -150t-45 -158.5t-68 -155t-94 -140t-123.5 -114t-155.5 -76.5t-190 -28
q-112 0 -191 24.5t-135 72.5l-158 -183h-166zM602 135q95 0 169 41.5t129 109.5t93 153.5t61 174t33.5 171.5t10.5 145q0 48 -6 92l-711 -811q70 -76 221 -76zM311 465q0 -35 3 -69.5t10 -63.5l718 823q-66 94 -225 94q-98 0 -173.5 -40.5t-131.5 -106.5t-94.5 -150.5
t-62 -171.5t-34 -169.5t-10.5 -145.5zM895 1544h-150l240 361h242z" />
    <glyph glyph-name="oslashacute" unicode="&#x1ff;" horiz-adv-x="1135" 
d="M-27 -76l172 197q-53 96 -53 258q0 58 12 132.5t39.5 152.5t71.5 152.5t108 133t149 94t194 35.5q77 0 139 -19.5t110 -60.5l109 125h152l-187 -213q25 -48 39 -107.5t14 -131.5q0 -64 -12.5 -141t-40.5 -155t-72 -151.5t-107 -130t-145.5 -91t-187.5 -34.5
q-83 0 -146 17t-108 49l-98 -111h-152zM868 672q0 25 -1.5 47.5t-6.5 44.5l-526 -602q49 -43 149 -43q64 0 117.5 24.5t96 66t75 96.5t54 116.5t32 125.5t10.5 124zM266 369q0 -28 1.5 -53.5t6.5 -47.5l531 606q-26 26 -64 41t-88 15q-69 0 -124.5 -27t-98.5 -71.5
t-74 -102.5t-51 -120.5t-29.5 -124.5t-9.5 -115zM726 1208h-150l240 361h242z" />
    <glyph glyph-name="Scommaaccent" unicode="&#x218;" horiz-adv-x="1202" 
d="M203 334q13 -39 36 -75t61 -63.5t94.5 -44t137.5 -16.5q71 0 133.5 17.5t109.5 49t74.5 76.5t27.5 101q0 43 -9 77.5t-36 63t-76.5 53.5t-130.5 50q-122 37 -201 72.5t-125 77.5t-64 93.5t-18 120.5q0 77 30.5 153t95 137t164 98.5t238.5 37.5q89 0 159 -16.5t124.5 -49
t94.5 -80.5t69 -112l-160 -90q-32 85 -109 134.5t-198 49.5q-84 0 -143.5 -21t-97 -54.5t-55 -77t-17.5 -88.5q0 -35 7.5 -61.5t35.5 -50t82 -47t147 -52.5q113 -36 187.5 -73.5t119 -83t62.5 -102.5t18 -130q0 -114 -46.5 -196.5t-123.5 -136t-176.5 -79t-204.5 -25.5
q-120 0 -204 23t-141 61.5t-90.5 90t-53.5 108.5zM317 -510q37 38 69 81t46 81q-47 0 -69.5 16t-22.5 53q0 39 12.5 73.5t40.5 55.5q31 27 92 27q53 0 77.5 -21.5t24.5 -64.5q0 -38 -12.5 -75t-32.5 -72q-18 -31 -49.5 -71t-73.5 -83h-102z" />
    <glyph glyph-name="scommaaccent" unicode="&#x219;" horiz-adv-x="971" 
d="M168 238q26 -57 78 -90t147 -33q44 0 90.5 8.5t84.5 28.5t62.5 52.5t24.5 80.5q0 24 -6 45t-27 41.5t-62 41t-111 44.5q-83 27 -137 55.5t-86 61.5t-45 72.5t-13 90.5q0 71 27.5 133t80 108.5t128.5 73.5t174 27q75 0 131.5 -14t98 -38.5t70 -58t48.5 -73.5l-144 -84
q-8 18 -22.5 39.5t-40.5 40t-64.5 31t-93.5 12.5q-51 0 -92.5 -13t-71 -35.5t-45.5 -53.5t-16 -66q0 -23 7 -45t26 -42.5t52 -39t85 -33.5q92 -28 154 -56.5t99 -63.5t52.5 -79.5t15.5 -103.5q0 -69 -29 -130t-85 -106t-139.5 -71.5t-192.5 -26.5q-87 0 -150 16t-106.5 42.5
t-68.5 60.5t-36 70zM197 -510q37 38 69 81t46 81q-47 0 -69.5 16t-22.5 53q0 39 12.5 73.5t40.5 55.5q31 27 92 27q53 0 77.5 -21.5t24.5 -64.5q0 -38 -12.5 -75t-32.5 -72q-18 -31 -49.5 -71t-73.5 -83h-102z" />
    <glyph glyph-name="uni021A" unicode="&#x21a;" horiz-adv-x="1159" 
d="M817 1217l-258 -1217h-180l258 1217h-449l35 167h1080l-35 -167h-451zM276 -510q37 38 69 81t46 81q-47 0 -69.5 16t-22.5 53q0 39 12.5 73.5t40.5 55.5q31 27 92 27q53 0 77.5 -21.5t24.5 -64.5q0 -38 -12.5 -75t-32.5 -72q-18 -31 -49.5 -71t-73.5 -83h-102z" />
    <glyph glyph-name="uni021B" unicode="&#x21b;" horiz-adv-x="715" 
d="M563 0q-46 -14 -95 -22.5t-91 -8.5q-65 0 -110.5 16t-75 44.5t-43 68t-13.5 86.5q0 34 4.5 75t14.5 81l120 565h-145l29 144h145l64 292h168l-64 -292h262l-28 -144h-263l-118 -555q-10 -42 -15.5 -76.5t-5.5 -60.5q0 -53 25 -76.5t82 -23.5q18 0 38 2t40.5 6t40 9
t34.5 11v-141zM131 -510q37 38 69 81t46 81q-47 0 -69.5 16t-22.5 53q0 39 12.5 73.5t40.5 55.5q31 27 92 27q53 0 77.5 -21.5t24.5 -64.5q0 -38 -12.5 -75t-32.5 -72q-18 -31 -49.5 -71t-73.5 -83h-102z" />
    <glyph glyph-name="dotlessj" unicode="&#x237;" horiz-adv-x="526" 
d="M231 -45q-18 -87 -47 -152.5t-73 -109.5t-107.5 -66t-150.5 -22q-36 0 -86 7.5t-95 22.5l72 142q32 -14 66.5 -21.5t76.5 -7.5q39 0 67.5 15t49.5 43.5t35.5 71t26.5 97.5l227 1074h170z" />
    <glyph glyph-name="uni02C0" unicode="&#x2c0;" horiz-adv-x="975" 
d="M229 0l125 598q114 58 196.5 109.5t135 106t77.5 116.5t25 143q0 82 -53.5 124t-159.5 42q-52 0 -95.5 -11t-79 -29.5t-64 -44.5t-51.5 -56l-131 104q33 45 76 82t96.5 63.5t118 41t141.5 14.5q93 0 167 -20.5t125.5 -61t79 -100.5t27.5 -140q0 -93 -28.5 -170
t-87.5 -145.5t-149 -130.5t-214 -123l-107 -512h-170z" />
    <glyph glyph-name="circumflex" unicode="&#x2c6;" 
d="M864 1208l-129 238l-231 -238h-154l301 361h207l146 -361h-140z" />
    <glyph glyph-name="caron" unicode="&#x2c7;" 
d="M569 1569l129 -238l232 238h153l-301 -361h-207l-145 361h139z" />
    <glyph glyph-name="uni02C9" unicode="&#x2c9;" 
d="M389 1255l29 140h598l-29 -140h-598z" />
    <glyph glyph-name="breve" unicode="&#x2d8;" 
d="M1057 1468q-12 -58 -38.5 -109.5t-70.5 -89.5t-107.5 -60.5t-150.5 -22.5q-75 0 -128.5 17.5t-87.5 47.5t-50 70.5t-16 85.5q0 31 6 61h125q0 -63 39 -94t127 -31q48 0 84.5 8.5t63 24.5t44 39t29.5 53h131z" />
    <glyph glyph-name="dotaccent" unicode="&#x2d9;" 
d="M825 1364q0 -10 -2 -23t-5 -26t-7 -24.5t-8 -18.5q-20 -37 -49 -50.5t-74 -13.5q-56 0 -76 20t-20 54q0 20 4.5 43t13.5 43q16 35 45 52.5t80 17.5q54 0 76 -18.5t22 -55.5z" />
    <glyph glyph-name="ring" unicode="&#x2da;" 
d="M897 1380q0 -42 -14 -82t-41.5 -71.5t-69.5 -50.5t-98 -19q-45 0 -76 13t-49.5 35t-26.5 50t-8 58q0 44 16 84t44.5 70.5t69 48.5t89.5 18q79 0 121.5 -41t42.5 -113zM688 1239q54 0 88.5 35.5t34.5 97.5q0 37 -21 58.5t-67 21.5q-30 0 -53 -12t-38.5 -30.5t-23.5 -42
t-8 -46.5q0 -38 18.5 -60t69.5 -22z" />
    <glyph glyph-name="ogonek" unicode="&#x2db;" horiz-adv-x="911" 
d="M508 -332q-42 -31 -93.5 -47t-101.5 -16q-176 0 -176 164q0 48 20.5 91t66 81.5t118.5 72t178 62.5l55 -76q-90 -31 -146.5 -57t-88.5 -50.5t-43.5 -48.5t-11.5 -49t15.5 -38t43.5 -13q34 0 66.5 8t66.5 25z" />
    <glyph glyph-name="tilde" unicode="&#x2dc;" 
d="M309 1221q34 131 103.5 196.5t160.5 65.5q58 0 95.5 -22t66 -49t54.5 -49t61 -22q49 0 83 37t48 92h119q-31 -124 -98 -193t-175 -69q-46 0 -77.5 10.5t-55 26.5t-40 34t-32 34t-32.5 26.5t-39 10.5q-42 0 -74 -33.5t-49 -95.5h-119z" />
    <glyph glyph-name="hungarumlaut" unicode="&#x2dd;" 
d="M858 1208h-151l237 361h244zM518 1208h-151l235 361h246z" />
    <glyph glyph-name="gravecomb" unicode="&#x300;" horiz-adv-x="0" 
d="M168 1208l-209 361h217l113 -361h-121z" />
    <glyph glyph-name="acutecomb" unicode="&#x301;" horiz-adv-x="0" 
d="M160 1208h-150l240 361h242z" />
    <glyph glyph-name="uni0302" unicode="&#x302;" horiz-adv-x="0" 
d="M340 1208l-129 238l-231 -238h-154l301 361h207l145 -361h-139z" />
    <glyph glyph-name="tildecomb" unicode="&#x303;" horiz-adv-x="0" 
d="M-215 1221q34 131 103.5 196.5t160.5 65.5q39 0 68 -10.5t52 -26.5t41.5 -34t36 -34t36.5 -26.5t43 -10.5q49 0 83 37t48 92h118q-30 -124 -97.5 -193t-174.5 -69q-45 0 -77 10.5t-55.5 26.5t-40 34t-32 34t-32.5 26.5t-39 10.5q-42 0 -74 -33.5t-49 -95.5h-119z" />
    <glyph glyph-name="uni0304" unicode="&#x304;" horiz-adv-x="0" 
d="M-154 1255l29 140h598l-29 -140h-598z" />
    <glyph glyph-name="uni0306" unicode="&#x306;" horiz-adv-x="0" 
d="M543 1530q-12 -59 -38.5 -110.5t-70.5 -89.5t-107.5 -60.5t-150.5 -22.5q-75 0 -128.5 17.5t-87.5 48t-50 70.5t-16 85q0 30 6 62h125q0 -63 38.5 -94t126.5 -31q97 0 148 32.5t74 92.5h131z" />
    <glyph glyph-name="uni0307" unicode="&#x307;" horiz-adv-x="0" 
d="M301 1364q0 -10 -2 -23t-5 -26t-7 -24.5t-8 -18.5q-20 -37 -49 -50.5t-74 -13.5q-56 0 -76.5 20t-20.5 54q0 43 19 86q15 35 44.5 52.5t80.5 17.5q54 0 76 -18.5t22 -55.5z" />
    <glyph glyph-name="uni0308" unicode="&#x308;" horiz-adv-x="0" 
d="M98 1354q0 -9 -2 -21.5t-5 -25t-7 -23.5t-8 -18q-17 -32 -42 -45t-69 -13q-52 0 -71 17.5t-19 48.5q0 6 1.5 16.5t4 22.5t6.5 24t9 21q14 32 39 47.5t73 15.5q51 0 70.5 -16.5t19.5 -50.5zM485 1354q0 -9 -2 -21.5t-5 -25t-7 -23.5t-8 -18q-17 -32 -42 -45t-69 -13
q-52 0 -71 17.5t-19 48.5q0 6 1.5 16.5t4 22.5t6.5 24t9 21q14 32 39 47.5t73 15.5q51 0 70.5 -16.5t19.5 -50.5z" />
    <glyph glyph-name="hookabovecomb" unicode="&#x309;" horiz-adv-x="0" 
d="M18 1440q26 20 65 35.5t99 15.5q47 0 81.5 -10.5t57.5 -29.5t34.5 -44t11.5 -53q0 -27 -8.5 -51.5t-28 -45t-51.5 -35t-78 -20.5l-8 -41h-105l25 113h30q38 0 60 15t22 40t-15.5 40t-57.5 15q-22 0 -47.5 -8.5t-45.5 -23.5z" />
    <glyph glyph-name="uni030A" unicode="&#x30a;" horiz-adv-x="0" 
d="M373 1380q0 -42 -14 -82t-41.5 -71.5t-69.5 -50.5t-98 -19q-45 0 -76 13t-49.5 35t-26.5 50t-8 58q0 44 16 84t44.5 70.5t69 48.5t89.5 18q78 0 121 -41t43 -113zM164 1239q54 0 88.5 35.5t34.5 97.5q0 37 -21 58.5t-67 21.5q-30 0 -53 -12t-38.5 -30.5t-23.5 -42
t-8 -46.5q0 -38 18.5 -60t69.5 -22z" />
    <glyph glyph-name="uni030C" unicode="&#x30c;" horiz-adv-x="0" 
d="M45 1569l129 -238l232 238h153l-301 -361h-207l-145 361h139z" />
    <glyph glyph-name="dotbelowcomb" unicode="&#x323;" horiz-adv-x="0" 
d="M182 -217q0 -10 -2 -23t-5 -26t-7 -24.5t-8 -18.5q-20 -37 -49 -50.5t-74 -13.5q-56 0 -76 20t-20 54q0 20 4.5 43t13.5 43q16 35 45 52.5t80 17.5q54 0 76 -18.5t22 -55.5z" />
    <glyph glyph-name="uni0374" unicode="&#x374;" horiz-adv-x="412" 
d="M328 1128h-119l141 361h209z" />
    <glyph glyph-name="uni0375" unicode="&#x375;" horiz-adv-x="412" 
d="M139 129h119l-141 -360h-209z" />
    <glyph glyph-name="uni037E" unicode="&#x37e;" horiz-adv-x="545" 
d="M483 977q0 -23 -5 -47t-17 -45q-19 -34 -50 -48t-77 -14q-56 0 -78.5 19t-22.5 53q0 20 6 43t15 43q15 35 45.5 51.5t81.5 16.5q54 0 78 -17.5t24 -54.5zM4 -293q29 29 53 68t42 79t29.5 75t16.5 57q-46 0 -67 17t-21 54q0 38 17 78q15 37 42.5 56.5t78.5 19.5
q58 0 83 -21.5t25 -64.5q0 -21 -6 -49t-15.5 -58.5t-21.5 -61t-24 -56.5q-31 -65 -65 -115t-65 -78h-102z" />
    <glyph glyph-name="tonos" unicode="&#x384;" horiz-adv-x="406" 
d="M293 1208h-148l242 361h240z" />
    <glyph glyph-name="dieresistonos" unicode="&#x385;" 
d="M958 1569l-276 -361h-143l188 361h231zM500 1354q0 -9 -2 -21.5t-5 -25t-7.5 -23.5t-8.5 -18q-17 -32 -42 -45t-68 -13q-53 0 -72 17.5t-19 48.5q0 6 1.5 16.5t4.5 22.5t6.5 24t8.5 21q14 32 39.5 47.5t73.5 15.5q51 0 70.5 -16.5t19.5 -50.5zM1110 1354q0 -9 -2 -21.5
t-5 -25t-7 -23.5t-9 -18q-18 -31 -42.5 -44.5t-67.5 -13.5q-53 0 -71.5 17.5t-18.5 48.5q0 6 1.5 16.5t4 22.5t6 24t8.5 21q14 32 39.5 47.5t73.5 15.5q51 0 70.5 -16.5t19.5 -50.5z" />
    <glyph glyph-name="Alphatonos" unicode="&#x386;" horiz-adv-x="1262" 
d="M-47 0l747 1384h236l176 -1384h-188l-43 360h-539l-197 -360h-192zM426 528h434l-78 674zM546 1384l-285 -360h-143l197 360h231z" />
    <glyph glyph-name="anoteleia" unicode="&#x387;" horiz-adv-x="545" 
d="M424 786q0 -23 -5 -46.5t-17 -45.5q-19 -34 -50 -47.5t-77 -13.5q-56 0 -78.5 18.5t-22.5 52.5q0 20 5.5 43t15.5 43q15 35 45.5 51.5t81.5 16.5q54 0 78 -17.5t24 -54.5z" />
    <glyph glyph-name="Epsilontonos" unicode="&#x388;" horiz-adv-x="1257" 
d="M195 0l292 1384h830l-35 -167h-649l-86 -404h555l-35 -168h-555l-102 -477h649l-35 -168h-829zM429 1384l-285 -360h-143l197 360h231z" />
    <glyph glyph-name="Etatonos" unicode="&#x389;" horiz-adv-x="1464" 
d="M993 0l133 633h-618l-133 -633h-180l292 1384h181l-123 -583h618l123 583h180l-292 -1384h-181zM429 1384l-285 -360h-143l197 360h231z" />
    <glyph glyph-name="Iotatonos" unicode="&#x38a;" horiz-adv-x="930" 
d="M719 0h-553l33 160h186l227 1067h-186l33 157h553l-33 -157h-187l-227 -1067h186zM429 1384l-285 -360h-143l197 360h231z" />
    <glyph glyph-name="Omicrontonos" unicode="&#x38c;" horiz-adv-x="1458" 
d="M703 -29q-132 0 -221 35.5t-143 100.5t-77.5 157t-23.5 205q0 53 6 112.5t18 122.5t31 127.5t45 126.5q40 94 93.5 177t127 145t171.5 97.5t227 35.5q222 0 338 -124t116 -365q0 -79 -14 -185t-49 -219q-36 -116 -90 -216t-131.5 -174t-182 -116.5t-241.5 -42.5zM432 465
q0 -92 15.5 -155t49.5 -102t87.5 -56t128.5 -17q163 0 270.5 105.5t175.5 322.5q15 49 26 99.5t18 98.5t10.5 91t3.5 78q0 161 -65 240t-214 79q-81 0 -144 -24t-113 -68.5t-89 -108.5t-72 -145q-23 -57 -39.5 -117t-27.5 -117t-16 -109.5t-5 -94.5zM429 1384l-285 -360
h-143l197 360h231z" />
    <glyph glyph-name="Upsilontonos" unicode="&#x38e;" horiz-adv-x="1362" 
d="M893 535l-112 -535h-185l111 526l-246 858h189l180 -673l463 673h211zM429 1384l-285 -360h-143l197 360h231z" />
    <glyph glyph-name="Omegatonos" unicode="&#x38f;" horiz-adv-x="1479" 
d="M944 1413q134 0 227 -27.5t151.5 -81.5t85 -134.5t26.5 -186.5q0 -85 -13.5 -172.5t-40 -169t-65 -154.5t-88.5 -129q-29 -32 -59 -54t-63.5 -38t-71 -27t-79.5 -20l-10 -51h283l-35 -168h-447l68 322q79 9 145.5 39.5t120.5 93.5q48 55 81 134.5t59 198.5
q11 51 15.5 100t4.5 87q0 142 -72.5 208t-226.5 66q-103 0 -181 -34t-138 -109q-45 -56 -76.5 -134t-52.5 -175q-31 -149 -31 -240q0 -59 10.5 -100t35.5 -68t65.5 -42.5t99.5 -24.5l-68 -322h-444l35 168h280l10 51q-48 14 -88.5 40t-69.5 67t-45 99t-16 136q0 75 14 163.5
t41 176.5t67 169t93 142q87 101 204 151t259 50zM429 1384l-285 -360h-143l197 360h231z" />
    <glyph glyph-name="iotadieresistonos" unicode="&#x390;" horiz-adv-x="602" 
d="M467 -8q-13 -4 -33 -8t-43.5 -7.5t-48.5 -5.5t-49 -2q-104 0 -148.5 51.5t-44.5 143.5q0 32 6 70t15 83l153 732h172l-157 -744q-8 -37 -12.5 -66t-4.5 -51q0 -43 18.5 -61t63.5 -18q23 0 52 5t51 13zM691 1569l-276 -361h-143l188 361h231zM233 1354q0 -9 -2 -21.5
t-5 -25t-7.5 -23.5t-8.5 -18q-17 -32 -42 -45t-68 -13q-53 0 -72 17.5t-19 48.5q0 6 1.5 16.5t4.5 22.5t6.5 24t8.5 21q14 32 39.5 47.5t73.5 15.5q51 0 70.5 -16.5t19.5 -50.5zM843 1354q0 -9 -2 -21.5t-5 -25t-7 -23.5t-9 -18q-18 -31 -42.5 -44.5t-67.5 -13.5
q-53 0 -71.5 17.5t-18.5 48.5q0 6 1.5 16.5t4 22.5t6 24t8.5 21q14 32 39.5 47.5t73.5 15.5q51 0 70.5 -16.5t19.5 -50.5z" />
    <glyph glyph-name="Alpha" unicode="&#x391;" horiz-adv-x="1262" 
d="M-47 0l747 1384h236l176 -1384h-188l-43 360h-539l-197 -360h-192zM426 528h434l-78 674z" />
    <glyph glyph-name="Beta" unicode="&#x392;" horiz-adv-x="1247" 
d="M889 756q51 -9 95.5 -31t77.5 -58t52 -86.5t19 -115.5q0 -92 -31.5 -176.5t-100.5 -148.5t-179 -102t-267 -38h-487l292 1384h396q124 0 205.5 -19.5t129.5 -55.5t67.5 -87.5t19.5 -115.5q0 -127 -73 -216t-216 -134zM621 809q173 0 264.5 65.5t91.5 196.5
q0 46 -16.5 75.5t-46.5 46t-73.5 22.5t-97.5 6h-237l-86 -412h201zM539 168q95 0 168.5 16.5t123.5 52t75.5 92t25.5 136.5q0 57 -21 92.5t-61.5 55t-99.5 26t-134 6.5h-231l-102 -477h256z" />
    <glyph glyph-name="Gamma" unicode="&#x393;" horiz-adv-x="1047" 
d="M506 1223l-258 -1223h-180l292 1384h828l-35 -161h-647z" />
    <glyph glyph-name="uni0394" unicode="&#x394;" horiz-adv-x="1235" 
d="M1073 0h-1130l18 88q88 156 179 319.5t183 328.5t183.5 328.5t181.5 319.5h230q21 -156 42 -319.5t43 -328.5t44 -328.5t45 -319.5zM895 160l-109 887q-5 40 -8.5 85.5t-5.5 86.5h-4q-17 -41 -41 -87t-47 -88l-485 -884h700z" />
    <glyph glyph-name="Epsilon" unicode="&#x395;" horiz-adv-x="1130" 
d="M68 0l292 1384h830l-35 -167h-649l-86 -404h555l-35 -168h-555l-102 -477h649l-35 -168h-829z" />
    <glyph glyph-name="Zeta" unicode="&#x396;" horiz-adv-x="1141" 
d="M-20 0l36 176l926 1041h-674l35 167h899l-35 -165l-936 -1051h730l-35 -168h-946z" />
    <glyph glyph-name="Eta" unicode="&#x397;" horiz-adv-x="1337" 
d="M866 0l133 633h-618l-133 -633h-180l292 1384h181l-123 -583h618l123 583h180l-292 -1384h-181z" />
    <glyph glyph-name="Theta" unicode="&#x398;" horiz-adv-x="1384" 
d="M602 -29q-137 0 -230 35.5t-149.5 100.5t-81 157t-24.5 205q0 53 5.5 112.5t17.5 122.5t31 127.5t46 126.5q41 94 96.5 177t132.5 145t179.5 97.5t236.5 35.5q233 0 354 -124t121 -365q0 -79 -14 -185t-49 -219q-38 -116 -94 -216t-137 -174t-189.5 -116.5t-251.5 -42.5z
M311 465q0 -92 17 -155t53 -102t92.5 -56t136.5 -17q174 0 289 105.5t186 322.5q16 49 27 99.5t18 98.5t10 91t3 78q0 161 -69.5 240t-227.5 79q-86 0 -154 -23.5t-122 -68t-95.5 -109t-75.5 -145.5q-24 -57 -40.5 -117t-27 -117t-15.5 -109.5t-5 -94.5zM477 618l37 177h469
l-37 -177h-469z" />
    <glyph glyph-name="Iota" unicode="&#x399;" horiz-adv-x="754" 
d="M543 0h-553l33 160h186l227 1067h-186l33 157h553l-33 -157h-187l-227 -1067h186z" />
    <glyph glyph-name="Kappa" unicode="&#x39a;" horiz-adv-x="1239" 
d="M856 0l-338 625l-172 -158l-98 -467h-180l292 1384h181l-138 -653l695 653h235l-680 -641l422 -743h-219z" />
    <glyph glyph-name="Lambda" unicode="&#x39b;" horiz-adv-x="1200" 
d="M666 1384h243l131 -1384h-180l-106 1206l-619 -1206h-194z" />
    <glyph glyph-name="Mu" unicode="&#x39c;" horiz-adv-x="1561" 
d="M1100 0l243 1147l-538 -770h-113l-207 770l-243 -1147h-174l292 1384h238l199 -753l524 753h244l-293 -1384h-172z" />
    <glyph glyph-name="Nu" unicode="&#x39d;" horiz-adv-x="1358" 
d="M870 0l-376 1188l-252 -1188h-174l292 1384h250l346 -1087l232 1087h174l-293 -1384h-199z" />
    <glyph glyph-name="Xi" unicode="&#x39e;" horiz-adv-x="1079" 
d="M270 1217l35 167h834l-35 -167h-834zM207 645l35 168h716l-34 -168h-717zM12 0l35 168h834l-35 -168h-834z" />
    <glyph glyph-name="Omicron" unicode="&#x39f;" horiz-adv-x="1337" 
d="M582 -29q-132 0 -221 35.5t-143 100.5t-77.5 157t-23.5 205q0 53 6 112.5t18 122.5t31 127.5t45 126.5q40 94 93.5 177t127 145t171.5 97.5t227 35.5q222 0 338 -124t116 -365q0 -79 -14 -185t-49 -219q-36 -116 -90 -216t-131.5 -174t-182 -116.5t-241.5 -42.5zM311 465
q0 -92 15.5 -155t49.5 -102t87.5 -56t128.5 -17q163 0 270.5 105.5t175.5 322.5q15 49 26 99.5t18 98.5t10.5 91t3.5 78q0 161 -65 240t-214 79q-81 0 -144 -24t-113 -68.5t-89 -108.5t-72 -145q-23 -57 -39.5 -117t-27.5 -117t-16 -109.5t-5 -94.5z" />
    <glyph glyph-name="Pi" unicode="&#x3a0;" horiz-adv-x="1300" 
d="M68 0l292 1384h945l-293 -1384h-181l259 1217h-584l-258 -1217h-180z" />
    <glyph glyph-name="Rho" unicode="&#x3a1;" horiz-adv-x="1157" 
d="M1167 1069q0 -123 -30 -232t-97.5 -191t-175.5 -129.5t-264 -47.5h-254l-98 -469h-180l292 1384h408q94 0 168.5 -16t125.5 -52.5t78 -97t27 -149.5zM618 637q69 0 122 17t92.5 46t66 68.5t42.5 85.5t23 95t7 98q0 43 -10.5 75t-37 53t-70.5 31.5t-110 10.5h-237
l-123 -580h235z" />
    <glyph glyph-name="Sigma" unicode="&#x3a3;" horiz-adv-x="1085" 
d="M-37 0l33 170l618 549l-395 504l35 161h893l-35 -165h-676l387 -494l-8 -39l-584 -520h689l-35 -166h-922z" />
    <glyph glyph-name="Tau" unicode="&#x3a4;" horiz-adv-x="1159" 
d="M817 1217l-258 -1217h-180l258 1217h-449l35 167h1080l-35 -167h-451z" />
    <glyph glyph-name="Upsilon" unicode="&#x3a5;" horiz-adv-x="1124" 
d="M655 535l-112 -535h-185l111 526l-246 858h189l180 -673l463 673h211z" />
    <glyph glyph-name="Phi" unicode="&#x3a6;" horiz-adv-x="1468" 
d="M694 -49h-174l31 139q-106 9 -185.5 37t-132.5 79t-79.5 126t-26.5 176q0 45 8.5 105.5t24 125t37.5 126.5t49 110q43 76 95 133t119.5 96t153 61t193.5 27l31 144h174l-31 -144q108 -8 189 -35.5t135 -80t81 -131t27 -187.5q0 -55 -9 -120t-28 -133.5t-48.5 -137
t-70.5 -129.5q-42 -64 -94 -109t-117 -75t-144.5 -45t-176.5 -19zM1104 434q28 48 49.5 102.5t36 110.5t22 110t7.5 101q0 68 -14.5 119t-47 85.5t-84 53t-125.5 21.5l-190 -891q122 3 208.5 51.5t137.5 136.5zM414 905q-22 -41 -38.5 -89.5t-28 -99t-17.5 -99.5t-6 -91
q0 -71 13 -122t43 -84.5t80 -51.5t124 -22l190 891q-129 -5 -218 -66.5t-142 -165.5z" />
    <glyph glyph-name="Chi" unicode="&#x3a7;" horiz-adv-x="1184" 
d="M-57 0l592 715l-289 669h200l218 -534l436 534h215l-586 -690l293 -694h-201l-223 559l-442 -559h-213z" />
    <glyph glyph-name="Psi" unicode="&#x3a8;" horiz-adv-x="1466" 
d="M1395 801q-31 -144 -80 -243.5t-124 -162.5t-180 -94.5t-247 -40.5l-66 -305h-174l66 305q-97 6 -174.5 32.5t-131.5 75t-83 119.5t-29 166q0 39 5 80.5t16 89.5l118 561h181l-119 -563q-8 -34 -13.5 -81t-5.5 -89q0 -51 16 -93.5t49 -73.5t84 -49.5t120 -20.5l204 970
h174l-204 -970q93 10 161.5 34t118 69.5t83.5 118.5t57 181l120 567h181z" />
    <glyph glyph-name="uni03A9" unicode="&#x3a9;" horiz-adv-x="1352" 
d="M817 1413q134 0 227 -27.5t151.5 -81.5t85 -134.5t26.5 -186.5q0 -85 -13.5 -172.5t-40 -169t-65 -154.5t-88.5 -129q-29 -32 -59 -54t-63.5 -38t-71 -27t-79.5 -20l-10 -51h283l-35 -168h-447l68 322q79 9 145.5 39.5t120.5 93.5q48 55 81 134.5t59 198.5
q11 51 15.5 100t4.5 87q0 142 -72.5 208t-226.5 66q-103 0 -181 -34t-138 -109q-45 -56 -76.5 -134t-52.5 -175q-31 -149 -31 -240q0 -59 10.5 -100t35.5 -68t65.5 -42.5t99.5 -24.5l-68 -322h-444l35 168h280l10 51q-48 14 -88.5 40t-69.5 67t-45 99t-16 136q0 75 14 163.5
t41 176.5t67 169t93 142q87 101 204 151t259 50z" />
    <glyph glyph-name="Iotadieresis" unicode="&#x3aa;" horiz-adv-x="754" 
d="M543 0h-553l33 160h186l227 1067h-186l33 157h553l-33 -157h-187l-227 -1067h186zM542 1690q0 -9 -2 -21.5t-5 -25t-7.5 -23.5t-8.5 -18q-17 -32 -42 -45t-69 -13q-52 0 -71 17.5t-19 48.5q0 6 1.5 16.5t4.5 22.5t6.5 24t8.5 21q14 32 39 47.5t73 15.5q51 0 71 -16.5
t20 -50.5zM929 1690q0 -9 -2 -21.5t-5 -25t-7.5 -23.5t-8.5 -18q-17 -32 -42 -45t-68 -13q-53 0 -72 17.5t-19 48.5q0 6 1.5 16.5t4.5 22.5t6.5 24t8.5 21q14 32 39.5 47.5t73.5 15.5q51 0 70.5 -16.5t19.5 -50.5z" />
    <glyph glyph-name="Upsilondieresis" unicode="&#x3ab;" horiz-adv-x="1124" 
d="M655 535l-112 -535h-185l111 526l-246 858h189l180 -673l463 673h211zM703 1690q0 -9 -2 -21.5t-5 -25t-7.5 -23.5t-8.5 -18q-17 -32 -42 -45t-69 -13q-52 0 -71 17.5t-19 48.5q0 6 1.5 16.5t4.5 22.5t6.5 24t8.5 21q14 32 39 47.5t73 15.5q51 0 71 -16.5t20 -50.5z
M1090 1690q0 -9 -2 -21.5t-5 -25t-7.5 -23.5t-8.5 -18q-17 -32 -42 -45t-68 -13q-53 0 -72 17.5t-19 48.5q0 6 1.5 16.5t4.5 22.5t6.5 24t8.5 21q14 32 39.5 47.5t73.5 15.5q51 0 70.5 -16.5t19.5 -50.5z" />
    <glyph glyph-name="alphatonos" unicode="&#x3ac;" horiz-adv-x="1194" 
d="M1071 -8q-14 -5 -32.5 -9t-37.5 -7t-37 -5t-30 -2q-102 0 -148.5 43.5t-46.5 128.5q0 14 3 41.5t10 59.5q-65 -131 -158 -202t-209 -71q-78 0 -134 24.5t-92 71.5t-52.5 115.5t-16.5 157.5q0 49 7 106.5t21.5 117.5t37 120.5t53.5 116.5q78 143 181.5 211.5t234.5 68.5
q100 0 175 -35.5t113 -101.5q8 29 16.5 57t16.5 50h170q-25 -71 -48.5 -140t-43 -131t-34 -114t-21.5 -89l-58 -270q-8 -38 -12 -67.5t-4 -51.5q0 -47 19.5 -62t54.5 -15q20 0 45 5t47 13zM412 131q83 0 151.5 49.5t124.5 137.5t100.5 208t79.5 260q-35 75 -95 109.5
t-140 34.5q-94 0 -159.5 -53.5t-113.5 -149.5q-23 -46 -40 -97.5t-28.5 -102.5t-17.5 -99t-6 -88q0 -113 36 -161t108 -48zM723 1208h-148l242 361h240z" />
    <glyph glyph-name="epsilontonos" unicode="&#x3ad;" horiz-adv-x="1024" 
d="M850 162q-33 -42 -74 -77t-92 -61t-113 -40.5t-137 -14.5q-81 0 -148 14.5t-115.5 48.5t-75.5 88.5t-27 135.5q0 36 14.5 75t42 76t69 68t95.5 51q-26 15 -48 33.5t-38 43t-24.5 58t-8.5 78.5q0 70 32.5 132t91 108t141 73t183.5 27q83 0 143 -13.5t103 -39t71.5 -62.5
t49.5 -83l-151 -80q-12 31 -30 56t-44.5 42.5t-63.5 27t-88 9.5q-63 0 -112 -15.5t-83 -42t-51.5 -62t-17.5 -75.5q0 -45 18.5 -71t50 -39.5t74.5 -17t91 -3.5h217l-31 -143h-225q-80 0 -135.5 -14.5t-90 -40t-50 -60.5t-15.5 -76q0 -44 16.5 -75t43.5 -50.5t61.5 -28.5
t70.5 -9q51 0 92.5 9.5t77 28t65.5 44.5t58 59zM688 1208h-148l242 361h240z" />
    <glyph glyph-name="etatonos" unicode="&#x3ae;" horiz-adv-x="1141" 
d="M618 -395l216 1013q12 57 19 105t7 96q0 47 -25.5 75t-80.5 28q-79 0 -175 -48t-196 -133l-158 -741h-170l221 1049h170l-32 -156q44 40 90.5 74.5t94 59t96.5 38.5t98 14q67 0 112.5 -18t73.5 -50t40.5 -76t12.5 -95q0 -37 -8.5 -93t-24.5 -129l-213 -1013h-168z
M723 1208h-148l242 361h240z" />
    <glyph glyph-name="iotatonos" unicode="&#x3af;" horiz-adv-x="602" 
d="M467 -8q-13 -4 -33 -8t-43.5 -7.5t-48.5 -5.5t-49 -2q-104 0 -148.5 51.5t-44.5 143.5q0 32 6 70t15 83l153 732h172l-157 -744q-8 -37 -12.5 -66t-4.5 -51q0 -43 18.5 -61t63.5 -18q23 0 52 5t51 13zM422 1208h-148l242 361h240z" />
    <glyph glyph-name="upsilondieresistonos" unicode="&#x3b0;" horiz-adv-x="1120" 
d="M262 1049h174l-141 -670q-4 -18 -6.5 -31t-4 -25t-2.5 -24.5t-1 -28.5q0 -32 10.5 -60.5t31 -49.5t51 -33t70.5 -12q72 0 131.5 21.5t107 69.5t83 124.5t59.5 187.5q12 52 19.5 103t12 95.5t6 80.5t1.5 57q0 75 -2.5 119.5t-5.5 75.5h180q1 -7 2.5 -20t2 -34.5t1 -54
t0.5 -78.5q0 -12 -1.5 -46t-5.5 -79t-10.5 -97t-16.5 -101q-34 -163 -89 -272.5t-128.5 -175.5t-164 -94t-194.5 -28q-76 0 -137 20.5t-103.5 58.5t-65 91.5t-22.5 120.5q0 51 15 119zM974 1569l-276 -361h-143l188 361h231zM516 1354q0 -9 -2 -21.5t-5 -25t-7.5 -23.5
t-8.5 -18q-17 -32 -42 -45t-68 -13q-53 0 -72 17.5t-19 48.5q0 6 1.5 16.5t4.5 22.5t6.5 24t8.5 21q14 32 39.5 47.5t73.5 15.5q51 0 70.5 -16.5t19.5 -50.5zM1126 1354q0 -9 -2 -21.5t-5 -25t-7 -23.5t-9 -18q-18 -31 -42.5 -44.5t-67.5 -13.5q-53 0 -71.5 17.5t-18.5 48.5
q0 6 1.5 16.5t4 22.5t6 24t8.5 21q14 32 39.5 47.5t73.5 15.5q51 0 70.5 -16.5t19.5 -50.5z" />
    <glyph glyph-name="alpha" unicode="&#x3b1;" horiz-adv-x="1194" 
d="M1071 -8q-14 -5 -32.5 -9t-37.5 -7t-37 -5t-30 -2q-102 0 -148.5 43.5t-46.5 128.5q0 14 3 41.5t10 59.5q-65 -131 -158 -202t-209 -71q-78 0 -134 24.5t-92 71.5t-52.5 115.5t-16.5 157.5q0 49 7 106.5t21.5 117.5t37 120.5t53.5 116.5q78 143 181.5 211.5t234.5 68.5
q100 0 175 -35.5t113 -101.5q8 29 16.5 57t16.5 50h170q-25 -71 -48.5 -140t-43 -131t-34 -114t-21.5 -89l-58 -270q-8 -38 -12 -67.5t-4 -51.5q0 -47 19.5 -62t54.5 -15q20 0 45 5t47 13zM412 131q83 0 151.5 49.5t124.5 137.5t100.5 208t79.5 260q-35 75 -95 109.5
t-140 34.5q-94 0 -159.5 -53.5t-113.5 -149.5q-23 -46 -40 -97.5t-28.5 -102.5t-17.5 -99t-6 -88q0 -113 36 -161t108 -48z" />
    <glyph glyph-name="beta" unicode="&#x3b2;" horiz-adv-x="1153" 
d="M1036 524q0 -59 -14.5 -123t-43.5 -125.5t-71.5 -117t-98 -97.5t-124 -67t-149.5 -25q-57 0 -104 9.5t-84.5 24.5t-66 34t-47.5 39l-100 -473h-170l311 1472q22 105 59.5 188t93.5 140t134.5 87t183.5 30q87 0 151.5 -21.5t106.5 -60.5t63 -94.5t21 -122.5
q0 -61 -21 -119.5t-62.5 -108.5t-104 -89t-145.5 -60q59 -6 110.5 -28.5t89.5 -62t60 -96.5t22 -133zM264 213q16 -14 41.5 -30.5t57.5 -31t71 -24.5t82 -10q63 0 113 21.5t88 56t64.5 78.5t43 89.5t24 88.5t7.5 75q0 68 -27.5 112.5t-75 70.5t-111 36.5t-136.5 10.5l31 145
q74 1 141.5 20.5t118.5 57.5t81.5 96t30.5 137q0 81 -43.5 121.5t-142.5 40.5q-64 0 -111.5 -24t-82 -68t-56 -105t-33.5 -135z" />
    <glyph glyph-name="gamma" unicode="&#x3b3;" horiz-adv-x="1044" 
d="M340 1049l98 -840q75 80 147.5 175t134 199t108 213.5t69.5 217.5l6 35h178l-8 -43q-18 -85 -53 -174.5t-82.5 -178.5t-104 -175t-118 -165t-125 -148.5t-123.5 -125.5l-92 -434h-170l92 434l-135 1010h178z" />
    <glyph glyph-name="delta" unicode="&#x3b4;" horiz-adv-x="1176" 
d="M596 971q-52 45 -88.5 83t-59 74t-32.5 72t-10 76q0 51 21 95.5t65.5 77.5t112.5 52t163 19q72 0 131 -8t105 -19.5t78 -25t51 -25.5l-91 -133q-27 15 -66 28.5t-79 24t-76 16.5t-57 6q-81 0 -127.5 -23t-46.5 -77q0 -32 9.5 -59.5t30.5 -55t53.5 -55.5t78.5 -59
q75 -51 131 -102.5t93.5 -109t56 -125.5t18.5 -153q0 -62 -16 -130.5t-48 -134.5t-80 -126t-112 -105.5t-144 -72.5t-176 -27q-190 0 -292.5 94t-102.5 275q0 99 37 198t104 185t160 152t205 98zM711 887q-92 -22 -173 -74.5t-141 -125.5t-94.5 -161.5t-34.5 -181.5
q0 -45 11.5 -86t38 -73t70 -51t108.5 -19q81 0 152 41t123 107t82 149.5t30 169.5q0 57 -13.5 101t-36.5 80t-54.5 66t-67.5 58z" />
    <glyph glyph-name="epsilon" unicode="&#x3b5;" horiz-adv-x="1024" 
d="M850 162q-33 -42 -74 -77t-92 -61t-113 -40.5t-137 -14.5q-81 0 -148 14.5t-115.5 48.5t-75.5 88.5t-27 135.5q0 36 14.5 75t42 76t69 68t95.5 51q-26 15 -48 33.5t-38 43t-24.5 58t-8.5 78.5q0 70 32.5 132t91 108t141 73t183.5 27q83 0 143 -13.5t103 -39t71.5 -62.5
t49.5 -83l-151 -80q-12 31 -30 56t-44.5 42.5t-63.5 27t-88 9.5q-63 0 -112 -15.5t-83 -42t-51.5 -62t-17.5 -75.5q0 -45 18.5 -71t50 -39.5t74.5 -17t91 -3.5h217l-31 -143h-225q-80 0 -135.5 -14.5t-90 -40t-50 -60.5t-15.5 -76q0 -44 16.5 -75t43.5 -50.5t61.5 -28.5
t70.5 -9q51 0 92.5 9.5t77 28t65.5 44.5t58 59z" />
    <glyph glyph-name="zeta" unicode="&#x3b6;" horiz-adv-x="891" 
d="M369 1489h645l-27 -125q-68 -40 -138.5 -95.5t-138.5 -122.5t-131 -143t-116 -157q-82 -125 -133 -262.5t-51 -292.5q0 -32 7.5 -56t28 -42.5t57 -33.5t95.5 -28q71 -16 119 -33t76.5 -38.5t40.5 -51t12 -69.5q0 -85 -62 -209q-14 -27 -26 -50t-22 -40q-11 -19 -21 -35
h-174q14 20 28 44q12 20 27 47.5t29 57.5q20 42 29 72.5t9 56.5q0 16 -7 30.5t-26 28t-52 25t-85 21.5q-65 12 -115 32t-84.5 55t-52.5 87.5t-18 130.5q0 79 18 159t49.5 158.5t74.5 154.5t92 148q39 57 86.5 116.5t100.5 115.5t110 106.5t116 89.5h-401z" />
    <glyph glyph-name="eta" unicode="&#x3b7;" horiz-adv-x="1141" 
d="M618 -395l216 1013q12 57 19 105t7 96q0 47 -25.5 75t-80.5 28q-79 0 -175 -48t-196 -133l-158 -741h-170l221 1049h170l-32 -156q44 40 90.5 74.5t94 59t96.5 38.5t98 14q67 0 112.5 -18t73.5 -50t40.5 -76t12.5 -95q0 -37 -8.5 -93t-24.5 -129l-213 -1013h-168z" />
    <glyph glyph-name="theta" unicode="&#x3b8;" horiz-adv-x="1147" 
d="M909 838q17 86 28 163t11 142q0 54 -9.5 97t-32 73t-60 46.5t-92.5 16.5q-78 0 -136.5 -33t-103 -100t-78.5 -168t-63 -237h536zM756 1522q192 0 278 -101t86 -293q0 -35 -4 -78t-11.5 -91.5t-17.5 -102t-22 -108.5q-41 -191 -89 -337t-116 -244t-163 -148t-230 -50
q-182 0 -267 93.5t-85 291.5q0 34 5 78.5t13 95.5t19.5 106.5t23.5 113.5q42 200 92.5 346t118.5 241t157.5 141t211.5 46zM342 698q-22 -102 -36.5 -191t-14.5 -163q0 -52 9.5 -94.5t32 -72.5t58.5 -46t90 -16q79 0 139.5 36.5t107.5 109.5t83 182.5t68 254.5h-537z" />
    <glyph glyph-name="iota" unicode="&#x3b9;" horiz-adv-x="602" 
d="M467 -8q-13 -4 -33 -8t-43.5 -7.5t-48.5 -5.5t-49 -2q-104 0 -148.5 51.5t-44.5 143.5q0 32 6 70t15 83l153 732h172l-157 -744q-8 -37 -12.5 -66t-4.5 -51q0 -43 18.5 -61t63.5 -18q23 0 52 5t51 13z" />
    <glyph glyph-name="kappa" unicode="&#x3ba;" horiz-adv-x="1036" 
d="M686 0l-240 481l-147 -135l-74 -346h-170l224 1049h170l-103 -474l512 474h219l-502 -463l304 -586h-193z" />
    <glyph glyph-name="lambda" unicode="&#x3bb;" horiz-adv-x="1069" 
d="M788 270q3 -44 10 -70.5t17.5 -41.5t24 -20t30.5 -5q14 0 27 2.5t23 5.5l18 -141q-46 -11 -75 -13.5t-42 -2.5q-42 0 -77 10.5t-60.5 42.5t-41 89.5t-19.5 152.5l-25 552l-469 -831h-186l641 1075l-6 101q-4 65 -12 104t-21 60t-31 27.5t-43 6.5q-15 0 -34.5 -3.5
t-39.5 -9t-38 -13t-31 -15.5l-9 142q100 47 177 47q65 0 108 -16t69.5 -56.5t40 -108.5t19.5 -172z" />
    <glyph glyph-name="uni03BC" unicode="&#x3bc;" horiz-adv-x="1147" 
d="M887 0h-162l14 119q-75 -76 -146 -113t-153 -37q-74 0 -128.5 22.5t-102.5 71.5l-96 -458h-168l303 1444h170l-168 -793q31 -53 85.5 -85t139.5 -32q72 0 149.5 35.5t149.5 108.5l162 766h172z" />
    <glyph glyph-name="nu" unicode="&#x3bd;" horiz-adv-x="1004" 
d="M338 1049l80 -865q42 52 88.5 115t92.5 132.5t89 143.5t79.5 148.5t63.5 146.5t41 138l9 41h184l-6 -35q-19 -85 -56 -177.5t-87 -186t-110 -185t-123.5 -176t-127 -158t-121.5 -131.5h-158l-114 1049h176z" />
    <glyph glyph-name="xi" unicode="&#x3be;" horiz-adv-x="893" 
d="M317 1354l29 135h639l-31 -141h-47q-84 0 -144.5 -9t-103 -25t-69 -38t-43.5 -49q-31 -48 -48.5 -103t-17.5 -104q0 -45 11 -74.5t33 -47t54 -25t74 -7.5h172l-30 -145h-193q-81 0 -140 -36t-104 -95q-38 -51 -62 -114.5t-24 -141.5q0 -61 19.5 -95.5t52 -54t74 -30
t86.5 -23.5q40 -12 78 -25.5t67.5 -35.5t47.5 -55t18 -83q0 -43 -12 -87t-33 -89q-14 -30 -28.5 -57.5t-26.5 -48.5q-14 -25 -27 -45h-164q18 18 39 50.5t39 70.5t30.5 75.5t12.5 65.5t-9.5 46.5t-29.5 32t-50 24t-71 22.5q-79 23 -135 47.5t-91.5 60.5t-52 88.5
t-16.5 130.5q0 36 7 78.5t22.5 86.5t40 87.5t59.5 81.5q40 44 96 79.5t115 53.5q-62 31 -94.5 85t-32.5 133q0 71 22 130t64 113q26 34 66 62t90 45h-228z" />
    <glyph glyph-name="omicron" unicode="&#x3bf;" horiz-adv-x="1135" 
d="M92 379q0 54 10.5 121t33.5 138.5t59.5 141.5t89.5 129q33 38 72.5 69t87 53.5t102.5 35t119 12.5q179 0 277.5 -101t98.5 -306q0 -62 -11.5 -135.5t-37 -148.5t-66 -146.5t-98.5 -128.5q-65 -65 -151.5 -104.5t-200.5 -39.5q-105 0 -178.5 26.5t-119 78t-66.5 128
t-21 177.5zM266 369q0 -65 12 -112.5t38.5 -78t68.5 -45t102 -14.5q72 0 129.5 29.5t102.5 80.5q35 40 63 93t47 112t29 120.5t10 117.5q0 133 -53.5 195.5t-165.5 62.5q-81 0 -144 -37.5t-108 -97.5q-31 -41 -55 -93t-41 -108t-26 -114t-9 -111z" />
    <glyph glyph-name="pi" unicode="&#x3c0;" horiz-adv-x="1296" 
d="M1145 6q-15 -4 -35.5 -8t-43.5 -7t-48 -5t-49 -2q-56 0 -95 12t-63.5 35.5t-35.5 57.5t-11 79q0 31 5.5 67.5t14.5 81.5l127 592h-350l-133 -622q-8 -39 -18.5 -79.5t-22 -78t-24 -71t-25.5 -58.5h-191q22 37 38.5 71t29.5 68.5t24 73t21 86.5l129 610q-23 0 -56 -3.5
t-68.5 -10t-69 -15.5t-56.5 -20l-24 125q24 11 57.5 22.5t74.5 20.5t89 15t100 6h928l-29 -140h-254l-129 -604q-8 -34 -11 -61t-3 -47q0 -42 19 -58t65 -16q26 0 56.5 5t51.5 13z" />
    <glyph glyph-name="rho" unicode="&#x3c1;" horiz-adv-x="1153" 
d="M-55 -395l194 930q27 128 73 229t113 171t156 107t203 37q101 0 173.5 -27t118.5 -77t67.5 -120.5t21.5 -156.5q0 -51 -8.5 -110t-25 -120.5t-40.5 -123.5t-55 -117q-40 -72 -89.5 -121.5t-106.5 -79.5t-119.5 -43.5t-128.5 -13.5q-50 0 -92.5 12t-76.5 33t-59.5 49.5
t-40.5 61.5l-110 -520h-168zM260 301q16 -39 40.5 -71.5t56 -56.5t69.5 -37t80 -13q74 0 147.5 43.5t128.5 140.5q24 42 43 90t31.5 98.5t19.5 102t7 100.5q0 52 -11 95t-35.5 74.5t-64 49t-96.5 17.5q-70 0 -127 -19.5t-102 -67t-80 -126.5t-60 -197z" />
    <glyph glyph-name="sigma1" unicode="&#x3c2;" horiz-adv-x="961" 
d="M424 -395q65 105 93 168t28 94q0 28 -9.5 46.5t-29.5 32t-50 24t-71 22.5q-79 23 -134 53.5t-89.5 74t-50 102t-15.5 136.5q0 65 14 143.5t43 159t75 155.5t109 133.5t145 94t184 35.5q125 0 212 -47.5t126 -144.5l-152 -82q-25 62 -73 93.5t-130 31.5q-62 0 -114.5 -27
t-94.5 -72t-73.5 -103.5t-52.5 -122.5t-31.5 -129t-10.5 -122q0 -51 12 -85t39 -58t71.5 -42.5t109.5 -37.5q40 -12 78 -25.5t67.5 -35.5t47.5 -55t18 -83q0 -43 -12 -87t-33 -89q-14 -30 -28.5 -57.5t-26.5 -48.5q-14 -25 -27 -45h-164v0z" />
    <glyph glyph-name="sigma" unicode="&#x3c3;" horiz-adv-x="1221" 
d="M1260 1049l-31 -146h-260q45 -51 65.5 -118t20.5 -142q0 -52 -7.5 -108.5t-22.5 -112.5t-38.5 -110.5t-54.5 -102.5q-35 -55 -82 -99t-106 -75.5t-129.5 -48.5t-153.5 -17q-102 0 -173 29t-115.5 79t-64.5 117.5t-20 145.5q0 87 26 190.5t72 202.5q75 158 200 237t314 79
h560zM690 903q-74 0 -129.5 -15.5t-96 -44t-68.5 -68t-48 -87.5q-32 -74 -57 -164t-25 -192q0 -46 13 -85.5t39 -69t64 -46t89 -16.5q110 0 182.5 42.5t118.5 110.5q28 42 49 90.5t35 101t20.5 107t6.5 107.5q0 75 -18 131t-52 98h-123z" />
    <glyph glyph-name="tau" unicode="&#x3c4;" horiz-adv-x="938" 
d="M969 905h-357l-129 -600q-8 -35 -11 -61.5t-3 -46.5q0 -21 3 -35t12 -23t24.5 -12.5t40.5 -3.5q9 0 22 1.5t27 4t27 5.5t22 7l12 -135q-37 -12 -71 -17t-76 -5q-61 0 -102 11.5t-66 34.5t-36 57t-11 79q0 31 5.5 68.5t14.5 82.5l125 588h-94q-50 0 -89 -6.5t-69 -15.5
t-51 -18.5t-35 -16.5l-26 135q23 12 52.5 23.5t67 21t84.5 15.5t105 6h610z" />
    <glyph glyph-name="upsilon" unicode="&#x3c5;" horiz-adv-x="1120" 
d="M262 1049h174l-141 -670q-4 -18 -6.5 -31t-4 -25t-2.5 -24.5t-1 -28.5q0 -32 10.5 -60.5t31 -49.5t51 -33t70.5 -12q72 0 131.5 21.5t107 69.5t83 124.5t59.5 187.5q12 52 19.5 103t12 95.5t6 80.5t1.5 57q0 75 -2.5 119.5t-5.5 75.5h180q1 -7 2.5 -20t2 -34.5t1 -54
t0.5 -78.5q0 -12 -1.5 -46t-5.5 -79t-10.5 -97t-16.5 -101q-34 -163 -89 -272.5t-128.5 -175.5t-164 -94t-194.5 -28q-76 0 -137 20.5t-103.5 58.5t-65 91.5t-22.5 120.5q0 51 15 119z" />
    <glyph glyph-name="phi" unicode="&#x3c6;" horiz-adv-x="1339" 
d="M395 -395l78 368q-90 6 -161 30t-119.5 70t-74.5 116t-26 169q0 39 5.5 86t16 96.5t26 101t36.5 99.5q37 85 93 147.5t124.5 103.5t148 61.5t165.5 21.5l88 414h163l-88 -414q89 -6 159 -30t118.5 -70.5t74 -118t25.5 -172.5q0 -44 -7 -97.5t-21 -110t-35 -114
t-49 -108.5q-77 -143 -201.5 -208t-296.5 -73l-78 -368h-164zM678 936q-64 -1 -116 -18.5t-93 -49t-72.5 -76t-54.5 -98.5q-32 -75 -52 -162.5t-20 -175.5q0 -54 13 -98t41.5 -75.5t72 -49.5t105.5 -22zM666 113q102 5 182.5 57.5t128.5 138.5q23 40 40.5 86t29.5 94.5
t18 98.5t6 98q0 55 -13 101t-41 79t-71 51t-104 19z" />
    <glyph glyph-name="chi" unicode="&#x3c7;" horiz-adv-x="1049" 
d="M406 373l-76 442q-6 35 -13.5 57t-17.5 34.5t-22.5 17t-30.5 4.5q-13 0 -33 -4t-33 -9l-22 134q32 14 73.5 22t73.5 8q37 0 66 -9.5t50.5 -32t36.5 -58.5t23 -90l58 -350l335 510h197l-489 -705l86 -469q6 -35 14.5 -58t20.5 -36.5t28 -19t37 -5.5q9 0 23 4t28 9l23 -138
q-14 -5 -31.5 -10t-36 -8.5t-35.5 -5.5t-30 -2q-44 0 -77.5 13.5t-58.5 43t-42 75t-27 109.5l-55 338l-377 -569h-193z" />
    <glyph glyph-name="psi" unicode="&#x3c8;" horiz-adv-x="1352" 
d="M975 1491l-291 -1374q90 3 171.5 60.5t139.5 162.5q29 53 50 121t34.5 145t20 159.5t6.5 164.5q0 34 -1 64t-3 55h172q3 -14 4.5 -45t1.5 -76q0 -79 -4.5 -164.5t-19 -172t-41 -169.5t-70.5 -158q-45 -77 -100.5 -130.5t-118.5 -87.5t-132 -51t-141 -20l-78 -370h-165
l77 366q-86 6 -154 27.5t-115 61t-72 98t-25 137.5q0 31 5 64.5t13 70.5l129 619h172l-133 -629q-5 -22 -9.5 -55t-4.5 -70q0 -38 12 -70t38.5 -55.5t69 -38t103.5 -18.5l293 1378h166z" />
    <glyph glyph-name="omega" unicode="&#x3c9;" horiz-adv-x="1604" 
d="M1403 1047q35 -70 59.5 -182.5t24.5 -258.5q0 -156 -34 -275t-94.5 -199.5t-145.5 -121.5t-187 -41q-71 0 -123 19.5t-87 54t-54.5 81.5t-24.5 103q-60 -131 -153.5 -194.5t-202.5 -63.5q-161 0 -235 84.5t-74 245.5q0 56 13.5 120.5t37.5 132.5t57 137.5t71 134
t80 121.5t85 102l176 -35q-72 -78 -132.5 -169.5t-104.5 -187t-68.5 -188.5t-24.5 -174q0 -87 33.5 -131.5t95.5 -44.5q51 0 99.5 24.5t91 76t77 130.5t58.5 187l59 274h176l-59 -274q-12 -54 -17.5 -100.5t-5.5 -86.5q0 -60 11.5 -103.5t32 -72t48.5 -42t62 -13.5
q61 0 111.5 33t87 95t57 150t20.5 199q0 124 -19.5 230.5t-57.5 187.5z" />
    <glyph glyph-name="iotadieresis" unicode="&#x3ca;" horiz-adv-x="602" 
d="M467 -8q-13 -4 -33 -8t-43.5 -7.5t-48.5 -5.5t-49 -2q-104 0 -148.5 51.5t-44.5 143.5q0 32 6 70t15 83l153 732h172l-157 -744q-8 -37 -12.5 -66t-4.5 -51q0 -43 18.5 -61t63.5 -18q23 0 52 5t51 13zM317 1354q0 -9 -2 -21.5t-5 -25t-7.5 -23.5t-8.5 -18
q-17 -32 -42 -45t-69 -13q-52 0 -71 17.5t-19 48.5q0 6 1.5 16.5t4.5 22.5t6.5 24t8.5 21q14 32 39 47.5t73 15.5q51 0 71 -16.5t20 -50.5zM704 1354q0 -9 -2 -21.5t-5 -25t-7.5 -23.5t-8.5 -18q-17 -32 -42 -45t-68 -13q-53 0 -72 17.5t-19 48.5q0 6 1.5 16.5t4.5 22.5
t6.5 24t8.5 21q14 32 39.5 47.5t73.5 15.5q51 0 70.5 -16.5t19.5 -50.5z" />
    <glyph glyph-name="upsilondieresis" unicode="&#x3cb;" horiz-adv-x="1120" 
d="M262 1049h174l-141 -670q-4 -18 -6.5 -31t-4 -25t-2.5 -24.5t-1 -28.5q0 -32 10.5 -60.5t31 -49.5t51 -33t70.5 -12q72 0 131.5 21.5t107 69.5t83 124.5t59.5 187.5q12 52 19.5 103t12 95.5t6 80.5t1.5 57q0 75 -2.5 119.5t-5.5 75.5h180q1 -7 2.5 -20t2 -34.5t1 -54
t0.5 -78.5q0 -12 -1.5 -46t-5.5 -79t-10.5 -97t-16.5 -101q-34 -163 -89 -272.5t-128.5 -175.5t-164 -94t-194.5 -28q-76 0 -137 20.5t-103.5 58.5t-65 91.5t-22.5 120.5q0 51 15 119zM622 1354q0 -9 -2 -21.5t-5 -25t-7.5 -23.5t-8.5 -18q-17 -32 -42 -45t-69 -13
q-52 0 -71 17.5t-19 48.5q0 6 1.5 16.5t4.5 22.5t6.5 24t8.5 21q14 32 39 47.5t73 15.5q51 0 71 -16.5t20 -50.5zM1009 1354q0 -9 -2 -21.5t-5 -25t-7.5 -23.5t-8.5 -18q-17 -32 -42 -45t-68 -13q-53 0 -72 17.5t-19 48.5q0 6 1.5 16.5t4.5 22.5t6.5 24t8.5 21
q14 32 39.5 47.5t73.5 15.5q51 0 70.5 -16.5t19.5 -50.5z" />
    <glyph glyph-name="omicrontonos" unicode="&#x3cc;" horiz-adv-x="1135" 
d="M92 379q0 54 10.5 121t33.5 138.5t59.5 141.5t89.5 129q33 38 72.5 69t87 53.5t102.5 35t119 12.5q179 0 277.5 -101t98.5 -306q0 -62 -11.5 -135.5t-37 -148.5t-66 -146.5t-98.5 -128.5q-65 -65 -151.5 -104.5t-200.5 -39.5q-105 0 -178.5 26.5t-119 78t-66.5 128
t-21 177.5zM266 369q0 -65 12 -112.5t38.5 -78t68.5 -45t102 -14.5q72 0 129.5 29.5t102.5 80.5q35 40 63 93t47 112t29 120.5t10 117.5q0 133 -53.5 195.5t-165.5 62.5q-81 0 -144 -37.5t-108 -97.5q-31 -41 -55 -93t-41 -108t-26 -114t-9 -111zM764 1208h-148l242 361h240
z" />
    <glyph glyph-name="upsilontonos" unicode="&#x3cd;" horiz-adv-x="1120" 
d="M262 1049h174l-141 -670q-4 -18 -6.5 -31t-4 -25t-2.5 -24.5t-1 -28.5q0 -32 10.5 -60.5t31 -49.5t51 -33t70.5 -12q72 0 131.5 21.5t107 69.5t83 124.5t59.5 187.5q12 52 19.5 103t12 95.5t6 80.5t1.5 57q0 75 -2.5 119.5t-5.5 75.5h180q1 -7 2.5 -20t2 -34.5t1 -54
t0.5 -78.5q0 -12 -1.5 -46t-5.5 -79t-10.5 -97t-16.5 -101q-34 -163 -89 -272.5t-128.5 -175.5t-164 -94t-194.5 -28q-76 0 -137 20.5t-103.5 58.5t-65 91.5t-22.5 120.5q0 51 15 119zM719 1208h-148l242 361h240z" />
    <glyph glyph-name="omegatonos" unicode="&#x3ce;" horiz-adv-x="1604" 
d="M1403 1047q35 -70 59.5 -182.5t24.5 -258.5q0 -156 -34 -275t-94.5 -199.5t-145.5 -121.5t-187 -41q-71 0 -123 19.5t-87 54t-54.5 81.5t-24.5 103q-60 -131 -153.5 -194.5t-202.5 -63.5q-161 0 -235 84.5t-74 245.5q0 56 13.5 120.5t37.5 132.5t57 137.5t71 134
t80 121.5t85 102l176 -35q-72 -78 -132.5 -169.5t-104.5 -187t-68.5 -188.5t-24.5 -174q0 -87 33.5 -131.5t95.5 -44.5q51 0 99.5 24.5t91 76t77 130.5t58.5 187l59 274h176l-59 -274q-12 -54 -17.5 -100.5t-5.5 -86.5q0 -60 11.5 -103.5t32 -72t48.5 -42t62 -13.5
q61 0 111.5 33t87 95t57 150t20.5 199q0 124 -19.5 230.5t-57.5 187.5zM1006 1208h-148l242 361h240z" />
    <glyph glyph-name="uni0400" unicode="&#x400;" horiz-adv-x="1130" 
d="M68 0l292 1384h830l-35 -167h-649l-86 -404h555l-35 -168h-555l-102 -477h649l-35 -168h-829zM768 1544l-209 361h217l113 -361h-121z" />
    <glyph glyph-name="uni0401" unicode="&#x401;" horiz-adv-x="1130" 
d="M68 0l292 1384h830l-35 -167h-649l-86 -404h555l-35 -168h-555l-102 -477h649l-35 -168h-829zM725 1690q0 -9 -2 -21.5t-5 -25t-7.5 -23.5t-8.5 -18q-17 -32 -42 -45t-69 -13q-52 0 -71 17.5t-19 48.5q0 6 1.5 16.5t4.5 22.5t6.5 24t8.5 21q14 32 39 47.5t73 15.5
q51 0 71 -16.5t20 -50.5zM1112 1690q0 -9 -2 -21.5t-5 -25t-7.5 -23.5t-8.5 -18q-17 -32 -42 -45t-68 -13q-53 0 -72 17.5t-19 48.5q0 6 1.5 16.5t4.5 22.5t6.5 24t8.5 21q14 32 39.5 47.5t73.5 15.5q51 0 70.5 -16.5t19.5 -50.5z" />
    <glyph glyph-name="uni0402" unicode="&#x402;" horiz-adv-x="1333" 
d="M958 1229h-313l-90 -422h211q120 0 210 -16.5t150 -55.5t90.5 -104t30.5 -162q0 -98 -35 -183.5t-114.5 -149t-208.5 -100t-318 -36.5l31 154q100 1 182 15.5t140.5 49.5t90.5 94.5t32 149.5q0 45 -13.5 80t-46.5 58.5t-89 35.5t-140 12h-236l-137 -649h-184l260 1229
h-271l33 155h768z" />
    <glyph glyph-name="uni0403" unicode="&#x403;" horiz-adv-x="1047" 
d="M506 1223l-258 -1223h-180l292 1384h828l-35 -161h-647zM789 1544h-150l240 361h242z" />
    <glyph glyph-name="uni0404" unicode="&#x404;" horiz-adv-x="1280" 
d="M1141 236q-45 -56 -97 -104.5t-117.5 -84t-148 -56t-188.5 -20.5q-121 0 -210 33t-147.5 96t-87 154.5t-28.5 208.5q0 63 8 132.5t24 141t39.5 143t55.5 138.5q39 83 96 155t132 125.5t169 84t207 30.5q96 0 170 -18t130 -52.5t95.5 -84t67.5 -111.5l-162 -94
q-21 49 -50 86t-68.5 61.5t-90.5 36.5t-117 12q-71 0 -132 -22.5t-112 -62.5t-91.5 -94t-69.5 -118q-19 -42 -35 -84.5t-29 -87.5h660l-37 -168h-658q-6 -38 -8 -76t-2 -75q0 -156 73 -241t206 -85q74 0 135 15t112 43t95 68t84 89z" />
    <glyph glyph-name="uni0405" unicode="&#x405;" horiz-adv-x="1202" 
d="M203 334q13 -39 36 -75t61 -63.5t94.5 -44t137.5 -16.5q71 0 133.5 17.5t109.5 49t74.5 76.5t27.5 101q0 43 -9 77.5t-36 63t-76.5 53.5t-130.5 50q-122 37 -201 72.5t-125 77.5t-64 93.5t-18 120.5q0 77 30.5 153t95 137t164 98.5t238.5 37.5q89 0 159 -16.5t124.5 -49
t94.5 -80.5t69 -112l-160 -90q-32 85 -109 134.5t-198 49.5q-84 0 -143.5 -21t-97 -54.5t-55 -77t-17.5 -88.5q0 -35 7.5 -61.5t35.5 -50t82 -47t147 -52.5q113 -36 187.5 -73.5t119 -83t62.5 -102.5t18 -130q0 -114 -46.5 -196.5t-123.5 -136t-176.5 -79t-204.5 -25.5
q-120 0 -204 23t-141 61.5t-90.5 90t-53.5 108.5z" />
    <glyph glyph-name="uni0406" unicode="&#x406;" horiz-adv-x="754" 
d="M543 0h-553l33 160h186l227 1067h-186l33 157h553l-33 -157h-187l-227 -1067h186z" />
    <glyph glyph-name="uni0407" unicode="&#x407;" horiz-adv-x="754" 
d="M543 0h-553l33 160h186l227 1067h-186l33 157h553l-33 -157h-187l-227 -1067h186zM542 1690q0 -9 -2 -21.5t-5 -25t-7.5 -23.5t-8.5 -18q-17 -32 -42 -45t-69 -13q-52 0 -71 17.5t-19 48.5q0 6 1.5 16.5t4.5 22.5t6.5 24t8.5 21q14 32 39 47.5t73 15.5q51 0 71 -16.5
t20 -50.5zM929 1690q0 -9 -2 -21.5t-5 -25t-7.5 -23.5t-8.5 -18q-17 -32 -42 -45t-68 -13q-53 0 -72 17.5t-19 48.5q0 6 1.5 16.5t4.5 22.5t6.5 24t8.5 21q14 32 39.5 47.5t73.5 15.5q51 0 70.5 -16.5t19.5 -50.5z" />
    <glyph glyph-name="uni0408" unicode="&#x408;" horiz-adv-x="866" 
d="M655 377q-24 -112 -60 -190t-89.5 -126.5t-127 -70t-171.5 -21.5q-72 0 -133.5 15t-106.5 36l72 156q34 -20 82.5 -31.5t97.5 -11.5q63 0 106.5 17.5t74 56t52 99.5t40.5 147l196 931h180z" />
    <glyph glyph-name="uni0409" unicode="&#x409;" horiz-adv-x="1915" 
d="M815 0l258 1223h-358l-19 -84q-35 -160 -75 -307.5t-86 -276t-99 -233.5t-114 -180.5t-131 -116.5t-150 -41q-83 0 -133 20l53 150q11 -5 28 -8t31 -3q70 0 138.5 72t134 209t125.5 335.5t114 450.5l37 174h719l-112 -530h223q113 0 196 -18t137 -57.5t80.5 -103.5
t26.5 -155q0 -20 -3.5 -48t-10.5 -60t-17.5 -66.5t-25.5 -66.5q-34 -76 -86 -129t-122 -86.5t-157.5 -48.5t-191.5 -15h-410zM1612 348q15 37 24 79t9 87q0 51 -14 85t-47 54.5t-87 29.5t-133 9h-223l-113 -530h221q67 0 124 10t103 32.5t80.5 57.5t55.5 86z" />
    <glyph glyph-name="uni040A" unicode="&#x40a;" horiz-adv-x="1935" 
d="M1202 834h217q113 0 196 -17t137.5 -55.5t81 -100.5t26.5 -151q0 -20 -3.5 -48t-11 -59.5t-18 -65.5t-25.5 -65q-34 -74 -86 -126t-121.5 -84.5t-157 -47t-192.5 -14.5h-399l141 672h-598l-141 -672h-180l292 1384h181l-117 -550h598l117 550h180zM1167 672l-108 -510
h211q67 0 124 9.5t103 31t80 56t55 83.5q16 35 24.5 75.5t8.5 84.5q0 49 -14 82t-47 52.5t-87 27.5t-133 8h-217z" />
    <glyph glyph-name="uni040B" unicode="&#x40b;" horiz-adv-x="1366" 
d="M645 1229l-86 -408q102 28 189.5 44t164.5 16q88 0 147.5 -19.5t96 -58.5t52.5 -97.5t16 -136.5q0 -38 -5 -81t-16 -93l-82 -395h-180l74 348q15 69 23 123t8 94q0 45 -11.5 75.5t-36.5 49t-65.5 26t-97.5 7.5q-33 0 -71 -4.5t-78.5 -12t-81 -17.5t-79.5 -21l-141 -668
h-184l260 1229h-271l33 155h768l-33 -155h-313z" />
    <glyph glyph-name="uni040C" unicode="&#x40c;" horiz-adv-x="1223" 
d="M541 1384l-127 -600h198q48 0 97.5 25.5t106.5 92t123.5 183t147.5 299.5h195q-55 -128 -103.5 -224.5t-91.5 -167.5t-82.5 -120t-77 -81t-74 -51t-73.5 -31q84 -33 131.5 -87.5t72.5 -139.5t33.5 -203.5t14.5 -278.5h-180q-9 187 -23 307t-41.5 190t-74.5 97t-123 27
h-211l-131 -621h-180l292 1384h181zM838 1544h-150l240 361h242z" />
    <glyph glyph-name="uni040D" unicode="&#x40d;" horiz-adv-x="1362" 
d="M68 0l292 1384h175l-232 -1095l803 1095h260l-293 -1384h-172l248 1171l-854 -1171h-227zM821 1544l-209 361h217l113 -361h-121z" />
    <glyph glyph-name="uni040E" unicode="&#x40e;" horiz-adv-x="1171" 
d="M606 555l524 829h205l-743 -1146q-56 -86 -104.5 -138t-98 -81t-105 -38.5t-124.5 -9.5q-23 0 -49 4t-51.5 10t-48.5 13t-38 14l84 148q13 -7 31.5 -13t38.5 -10t40 -6t36 -2q24 0 52 7t57.5 24.5t59 47.5t58.5 75l41 65l-227 1036h182zM1145 1776q-13 -62 -39 -109
t-68.5 -79.5t-102 -49t-140.5 -16.5q-77 0 -131 18t-88.5 51t-50 80t-15.5 105h174q0 -78 27.5 -113t95.5 -35q69 0 106.5 36.5t57.5 111.5h174z" />
    <glyph glyph-name="uni040F" unicode="&#x40f;" horiz-adv-x="1370" 
d="M1081 0h-415l-58 -262h-182l57 262h-415l292 1384h187l-258 -1216h641l258 1216h186z" />
    <glyph glyph-name="uni0410" unicode="&#x410;" horiz-adv-x="1262" 
d="M-47 0l747 1384h236l176 -1384h-188l-43 360h-539l-197 -360h-192zM426 528h434l-78 674z" />
    <glyph glyph-name="uni0411" unicode="&#x411;" horiz-adv-x="1214" 
d="M418 807h250q118 0 202 -18t138 -57t79 -101t25 -150q0 -54 -13 -111t-42 -110.5t-74 -100.5t-109 -82.5t-148.5 -56t-190.5 -20.5h-467l292 1384h863l-33 -157h-682zM520 162q41 0 87 4.5t90 17.5t84 35.5t70.5 57.5t48.5 84.5t18 117.5q0 47 -14 79.5t-45.5 52.5
t-83 29t-126.5 9h-264l-104 -487h239z" />
    <glyph glyph-name="uni0412" unicode="&#x412;" horiz-adv-x="1247" 
d="M889 756q51 -9 95.5 -31t77.5 -58t52 -86.5t19 -115.5q0 -92 -31.5 -176.5t-100.5 -148.5t-179 -102t-267 -38h-487l292 1384h396q124 0 205.5 -19.5t129.5 -55.5t67.5 -87.5t19.5 -115.5q0 -127 -73 -216t-216 -134zM621 809q173 0 264.5 65.5t91.5 196.5
q0 46 -16.5 75.5t-46.5 46t-73.5 22.5t-97.5 6h-237l-86 -412h201zM539 168q95 0 168.5 16.5t123.5 52t75.5 92t25.5 136.5q0 57 -21 92.5t-61.5 55t-99.5 26t-134 6.5h-231l-102 -477h256z" />
    <glyph glyph-name="uni0413" unicode="&#x413;" horiz-adv-x="1047" 
d="M506 1223l-258 -1223h-180l292 1384h828l-35 -161h-647z" />
    <glyph glyph-name="uni0414" unicode="&#x414;" horiz-adv-x="1286" 
d="M-139 -262l90 424h112q56 78 123.5 193.5t136 268.5t132.5 343t114 417h709l-260 -1222h164l-90 -424h-177l58 262h-881l-57 -262h-174zM1063 1223h-356q-51 -194 -110.5 -360.5t-120 -301.5t-118 -236t-104.5 -163h584z" />
    <glyph glyph-name="uni0415" unicode="&#x415;" horiz-adv-x="1130" 
d="M68 0l292 1384h830l-35 -167h-649l-86 -404h555l-35 -168h-555l-102 -477h649l-35 -168h-829z" />
    <glyph glyph-name="uni0416" unicode="&#x416;" horiz-adv-x="1780" 
d="M1036 784h152q31 0 62 10.5t64 36.5t68.5 70t75.5 111t85.5 158.5t98.5 213.5h197q-54 -128 -101.5 -224.5t-90.5 -167.5t-82 -119.5t-76.5 -80.5t-75 -51.5t-76.5 -31.5q85 -33 133 -87.5t72.5 -139.5t33 -203.5t13.5 -278.5h-186q-7 166 -16.5 283.5t-35 192.5t-74 110
t-132.5 35h-144l-131 -621h-180l131 621h-135q-76 0 -137 -31t-120 -103.5t-122 -191.5t-143 -295h-195q49 107 90.5 195t81 159.5t79.5 127.5t85 99t97.5 74.5t117.5 53.5q-28 11 -55 30t-51 51t-43.5 80.5t-34 120t-23 168t-8.5 225.5h178q3 -125 10.5 -218.5t19.5 -160
t29 -109.5t38.5 -68t48 -34.5t57.5 -9.5h170l127 600h180z" />
    <glyph glyph-name="uni0417" unicode="&#x417;" horiz-adv-x="1147" 
d="M139 305q15 -30 39.5 -61.5t60.5 -57t83.5 -41.5t109.5 -16q82 0 153 19.5t123.5 58.5t82.5 97t30 136q0 101 -54 151t-177 50h-248l35 160h241q67 0 125 17t101 50.5t67.5 83.5t24.5 117q0 48 -17.5 83.5t-49 59t-76 34.5t-99.5 11q-54 0 -108 -10t-104.5 -28t-96 -43
t-82.5 -54l-78 142q46 34 97 61.5t110 47t127 30t148 10.5q210 0 318 -85.5t108 -252.5q0 -56 -18.5 -109t-55 -99t-89.5 -84t-122 -64q80 -28 125 -100.5t45 -184.5q0 -92 -36.5 -176t-110.5 -148t-185.5 -101.5t-261.5 -37.5q-173 0 -279 60t-155 176z" />
    <glyph glyph-name="uni0418" unicode="&#x418;" horiz-adv-x="1362" 
d="M68 0l292 1384h175l-232 -1095l803 1095h260l-293 -1384h-172l248 1171l-854 -1171h-227z" />
    <glyph glyph-name="uni0419" unicode="&#x419;" horiz-adv-x="1362" 
d="M68 0l292 1384h175l-232 -1095l803 1095h260l-293 -1384h-172l248 1171l-854 -1171h-227zM1200 1776q-13 -62 -39 -109t-68.5 -79.5t-102 -49t-140.5 -16.5q-77 0 -131 18t-88.5 51t-50 80t-15.5 105h174q0 -78 27.5 -113t95.5 -35q69 0 106.5 36.5t57.5 111.5h174z" />
    <glyph glyph-name="uni041A" unicode="&#x41a;" horiz-adv-x="1223" 
d="M541 1384l-127 -600h198q48 0 97.5 25.5t106.5 92t123.5 183t147.5 299.5h195q-55 -128 -103.5 -224.5t-91.5 -167.5t-82.5 -120t-77 -81t-74 -51t-73.5 -31q84 -33 131.5 -87.5t72.5 -139.5t33.5 -203.5t14.5 -278.5h-180q-9 187 -23 307t-41.5 190t-74.5 97t-123 27
h-211l-131 -621h-180l292 1384h181z" />
    <glyph glyph-name="uni041B" unicode="&#x41b;" horiz-adv-x="1311" 
d="M715 1223l-19 -84q-35 -160 -75 -307.5t-86 -276t-99 -233.5t-114 -180.5t-131 -116.5t-150 -41q-83 0 -133 20l53 150q11 -5 28 -8t31 -3q70 0 138.5 72t134 209t125.5 335.5t114 450.5l37 174h746l-293 -1384h-180l258 1223h-385z" />
    <glyph glyph-name="uni041C" unicode="&#x41c;" horiz-adv-x="1561" 
d="M1100 0l243 1147l-538 -770h-113l-207 770l-243 -1147h-174l292 1384h238l199 -753l524 753h244l-293 -1384h-172z" />
    <glyph glyph-name="uni041D" unicode="&#x41d;" horiz-adv-x="1337" 
d="M866 0l133 633h-618l-133 -633h-180l292 1384h181l-123 -583h618l123 583h180l-292 -1384h-181z" />
    <glyph glyph-name="uni041E" unicode="&#x41e;" horiz-adv-x="1337" 
d="M582 -29q-132 0 -221 35.5t-143 100.5t-77.5 157t-23.5 205q0 53 6 112.5t18 122.5t31 127.5t45 126.5q40 94 93.5 177t127 145t171.5 97.5t227 35.5q222 0 338 -124t116 -365q0 -79 -14 -185t-49 -219q-36 -116 -90 -216t-131.5 -174t-182 -116.5t-241.5 -42.5zM311 465
q0 -92 15.5 -155t49.5 -102t87.5 -56t128.5 -17q163 0 270.5 105.5t175.5 322.5q15 49 26 99.5t18 98.5t10.5 91t3.5 78q0 161 -65 240t-214 79q-81 0 -144 -24t-113 -68.5t-89 -108.5t-72 -145q-23 -57 -39.5 -117t-27.5 -117t-16 -109.5t-5 -94.5z" />
    <glyph glyph-name="uni041F" unicode="&#x41f;" horiz-adv-x="1300" 
d="M68 0l292 1384h945l-293 -1384h-181l259 1217h-584l-258 -1217h-180z" />
    <glyph glyph-name="uni0420" unicode="&#x420;" horiz-adv-x="1157" 
d="M1167 1069q0 -123 -30 -232t-97.5 -191t-175.5 -129.5t-264 -47.5h-254l-98 -469h-180l292 1384h408q94 0 168.5 -16t125.5 -52.5t78 -97t27 -149.5zM618 637q69 0 122 17t92.5 46t66 68.5t42.5 85.5t23 95t7 98q0 43 -10.5 75t-37 53t-70.5 31.5t-110 10.5h-237
l-123 -580h235z" />
    <glyph glyph-name="uni0421" unicode="&#x421;" horiz-adv-x="1280" 
d="M1141 236q-45 -56 -97 -104.5t-117.5 -84t-148 -56t-188.5 -20.5q-121 0 -210 33t-147.5 96t-87 154.5t-28.5 208.5q0 63 8 132.5t24 141t39.5 143t55.5 138.5q39 83 96 155t132 125.5t169 84t207 30.5q96 0 170 -18t130 -52.5t95.5 -84t67.5 -111.5l-162 -94
q-21 49 -50 86t-68.5 61.5t-90.5 36.5t-117 12q-71 0 -132 -22.5t-112 -62.5t-91.5 -94t-69.5 -118q-26 -55 -46 -116t-34 -124t-21.5 -126.5t-7.5 -124.5q0 -156 73 -241t206 -85q74 0 135 15t112 43t95 68t84 89z" />
    <glyph glyph-name="uni0422" unicode="&#x422;" horiz-adv-x="1159" 
d="M817 1217l-258 -1217h-180l258 1217h-449l35 167h1080l-35 -167h-451z" />
    <glyph glyph-name="uni0423" unicode="&#x423;" horiz-adv-x="1171" 
d="M606 555l524 829h205l-743 -1146q-56 -86 -104.5 -138t-98 -81t-105 -38.5t-124.5 -9.5q-23 0 -49 4t-51.5 10t-48.5 13t-38 14l84 148q13 -7 31.5 -13t38.5 -10t40 -6t36 -2q24 0 52 7t57.5 24.5t59 47.5t58.5 75l41 65l-227 1036h182z" />
    <glyph glyph-name="uni0424" unicode="&#x424;" horiz-adv-x="1473" 
d="M535 -47l40 197q-131 7 -222 39t-148 86.5t-83 130.5t-26 172q0 26 7 73t21 102.5t35 112t50 101.5q44 69 103 119t133.5 83t165 51t198.5 23l39 191h162l-39 -191q119 -7 208.5 -35.5t149.5 -81t90.5 -129.5t30.5 -182q0 -41 -7.5 -92t-24 -107t-42.5 -113.5t-63 -109.5
q-89 -123 -232.5 -178.5t-343.5 -64.5l-41 -197h-161zM776 1090q-81 -5 -144.5 -18.5t-113 -37.5t-86.5 -60t-65 -87q-39 -68 -60.5 -151t-21.5 -165q0 -60 13 -108t48.5 -82.5t98.5 -54.5t163 -23zM770 303q70 4 127 14.5t104 31t85.5 52t70.5 76.5q50 69 77.5 159
t27.5 181q0 63 -16 112t-53.5 83.5t-99.5 54t-155 23.5z" />
    <glyph glyph-name="uni0425" unicode="&#x425;" horiz-adv-x="1184" 
d="M-57 0l592 715l-289 669h200l218 -534l436 534h215l-586 -690l293 -694h-201l-223 559l-442 -559h-213z" />
    </font>
</defs>
</svg>
