<?xml version="1.0" standalone="no"?>
<!DOCTYPE svg PUBLIC "-//W3C//DTD SVG 1.1//EN" "http://www.w3.org/Graphics/SVG/1.1/DTD/svg11.dtd" >
<svg>
<metadata>
Created by FontForge 20120731 at Fri Aug  1 16:50:18 2014
 By Alfred Xing
Font software Copyright (c) 2012 Intel Corporation. Licensed under the Apache License, Version 2.0.  http://www.apache.org/licenses/LICENSE-2.0
</metadata>
<defs>
<font id="ClearSans-MediumItalic" horiz-adv-x="1450" >
  <font-face 
    font-family="Clear Sans Medium"
    font-weight="500"
    font-style="italic"
    font-stretch="normal"
    units-per-em="2048"
    panose-1="2 11 6 3 3 2 2 9 3 4"
    ascent="1489"
    descent="-559"
    x-height="1049"
    cap-height="1384"
    bbox="-481 -629 2705 2157"
    underline-thickness="102"
    underline-position="-103"
    slope="-12"
    unicode-range="U+000D-FEFF"
  />
<missing-glyph horiz-adv-x="1024" 
d="M57 1362h973v-1362h-973v1362zM545 768l329 498h-661zM156 186l329 496l-329 496v-992zM602 682l332 -498v994zM545 594l-332 -496h661z" />
    <glyph glyph-name="f_f" unicode="ff" horiz-adv-x="1241" 
d="M842 1296q-29 16 -62 25.5t-71 9.5q-39 0 -69 -9t-52.5 -29t-38 -52.5t-25.5 -79.5l-24 -112h219l-37 -175h-219l-184 -874h-211l184 874h-139l37 175h139l22 102q20 91 50.5 160.5t78 115.5t115.5 69.5t164 23.5q59 0 109.5 -11.5t91.5 -29.5zM1460 1296
q-29 16 -62 25.5t-71 9.5q-39 0 -69 -9t-52.5 -29t-38 -52.5t-25.5 -79.5l-24 -112h219l-37 -175h-219l-184 -874h-211l184 874h-139l37 175h139l22 102q20 91 50.5 160.5t78 115.5t115.5 69.5t164 23.5q59 0 109.5 -11.5t91.5 -29.5z" />
    <glyph glyph-name="fi" unicode="fi" horiz-adv-x="1120" 
d="M842 1296q-29 16 -62 25.5t-71 9.5q-39 0 -69 -9t-52.5 -29t-38 -52.5t-25.5 -79.5l-24 -112h219l-37 -175h-219l-184 -874h-211l184 874h-139l37 175h139l22 102q20 91 50.5 160.5t78 115.5t115.5 69.5t164 23.5q59 0 109.5 -11.5t91.5 -29.5zM659 0l221 1049h211
l-221 -1049h-211zM911 1288q0 28 7.5 56t25 49.5t46.5 35t72 13.5q59 0 84 -22.5t25 -59.5q0 -28 -7.5 -55t-25 -48.5t-46 -35t-70.5 -13.5q-65 0 -88 21.5t-23 58.5z" />
    <glyph glyph-name="fl" unicode="fl" horiz-adv-x="1137" 
d="M842 1296q-29 16 -62 25.5t-71 9.5q-39 0 -69 -9t-52.5 -29t-38 -52.5t-25.5 -79.5l-24 -112h219l-37 -175h-219l-184 -874h-211l184 874h-139l37 175h139l22 102q20 91 50.5 160.5t78 115.5t115.5 69.5t164 23.5q59 0 109.5 -11.5t91.5 -29.5zM663 0l315 1489h211
l-315 -1489h-211z" />
    <glyph glyph-name="f_f_i" unicode="ffi" horiz-adv-x="1741" 
d="M842 1296q-29 16 -62 25.5t-71 9.5q-39 0 -69 -9t-52.5 -29t-38 -52.5t-25.5 -79.5l-24 -112h219l-37 -175h-219l-184 -874h-211l184 874h-139l37 175h139l22 102q20 91 50.5 160.5t78 115.5t115.5 69.5t164 23.5q59 0 109.5 -11.5t91.5 -29.5zM1460 1296
q-29 16 -62 25.5t-71 9.5q-39 0 -69 -9t-52.5 -29t-38 -52.5t-25.5 -79.5l-24 -112h219l-37 -175h-219l-184 -874h-211l184 874h-139l37 175h139l22 102q20 91 50.5 160.5t78 115.5t115.5 69.5t164 23.5q59 0 109.5 -11.5t91.5 -29.5zM1280 0l221 1049h211l-221 -1049h-211z
M1532 1288q0 28 7.5 56t25 49.5t46.5 35t72 13.5q59 0 84 -22.5t25 -59.5q0 -28 -7.5 -55t-25 -48.5t-46 -35t-70.5 -13.5q-65 0 -88 21.5t-23 58.5z" />
    <glyph glyph-name="f_f_l" unicode="ffl" horiz-adv-x="1757" 
d="M842 1296q-29 16 -62 25.5t-71 9.5q-39 0 -69 -9t-52.5 -29t-38 -52.5t-25.5 -79.5l-24 -112h219l-37 -175h-219l-184 -874h-211l184 874h-139l37 175h139l22 102q20 91 50.5 160.5t78 115.5t115.5 69.5t164 23.5q59 0 109.5 -11.5t91.5 -29.5zM1460 1296
q-29 16 -62 25.5t-71 9.5q-39 0 -69 -9t-52.5 -29t-38 -52.5t-25.5 -79.5l-24 -112h219l-37 -175h-219l-184 -874h-211l184 874h-139l37 175h139l22 102q20 91 50.5 160.5t78 115.5t115.5 69.5t164 23.5q59 0 109.5 -11.5t91.5 -29.5zM1284 0l315 1489h211l-315 -1489h-211z
" />
    <glyph glyph-name=".notdef" horiz-adv-x="1024" 
d="M57 1362h973v-1362h-973v1362zM545 768l329 498h-661zM156 186l329 496l-329 496v-992zM602 682l332 -498v994zM545 594l-332 -496h661z" />
    <glyph glyph-name=".null" horiz-adv-x="0" 
 />
    <glyph glyph-name="nonmarkingreturn" unicode="&#xd;" horiz-adv-x="543" 
 />
    <glyph glyph-name="NULL" horiz-adv-x="0" 
 />
    <glyph glyph-name="NULL" horiz-adv-x="0" 
 />
    <glyph glyph-name="space" unicode=" " horiz-adv-x="543" 
 />
    <glyph glyph-name="exclam" unicode="!" horiz-adv-x="557" 
d="M346 420h-176l174 964h234zM338 166q0 -29 -8 -59t-19 -50q-21 -38 -57 -54.5t-92 -16.5q-63 0 -90 20.5t-27 61.5q0 24 6.5 48.5t16.5 49.5q18 46 53.5 66t97.5 20t90.5 -20.5t28.5 -65.5z" />
    <glyph glyph-name="quotedbl" unicode="&#x22;" horiz-adv-x="930" 
d="M793 803h-152l80 581h237zM403 803h-151l80 581h237z" />
    <glyph glyph-name="numbersign" unicode="#" horiz-adv-x="1325" 
d="M1022 844l-74 -305h248l-37 -152h-250l-98 -387h-149l96 387h-258l-97 -387h-151l98 387h-246l37 152h246l78 305h-252l37 153h252l98 387h150l-99 -387h260l99 387h149l-98 -387h244l-37 -153h-246zM614 844l-77 -305h260l77 305h-260z" />
    <glyph glyph-name="dollar" unicode="$" horiz-adv-x="1247" 
d="M850 1298q121 -20 199 -79.5t118 -141.5l-172 -110q-29 55 -75 93.5t-109 53.5l-72 -328q84 -28 143 -61t96.5 -73t55 -88t17.5 -107q0 -87 -32.5 -155.5t-92.5 -117.5t-146 -78t-192 -36l-41 -203h-144l43 205q-69 7 -125 26.5t-98.5 49.5t-72 68.5t-44.5 82.5l183 113
q20 -56 65.5 -99t128.5 -57l80 373q-87 29 -144.5 61.5t-92 71t-48.5 85t-14 103.5q0 61 23 122t75.5 111t137 83t207.5 39l22 106h145zM838 426q0 27 -6 49t-22 41t-43.5 35.5t-70.5 32.5l-69 -330q99 9 155 52t56 120zM477 971q0 -25 4.5 -44.5t18.5 -36.5t39.5 -31.5
t66.5 -29.5l62 291q-53 -5 -89.5 -19t-59 -34t-32.5 -45t-10 -51z" />
    <glyph glyph-name="percent" unicode="%" horiz-adv-x="2083" 
d="M436 -55l1063 1489h199l-1065 -1489h-197zM479 514q-84 0 -143 21.5t-96 60t-53.5 92t-16.5 117.5q0 30 4 68t12 80t20.5 86t29.5 87q53 136 149.5 206.5t247.5 70.5q84 0 143.5 -20.5t97.5 -59t56 -94t18 -125.5q0 -45 -9 -100t-24 -110t-34.5 -105.5t-40.5 -86.5
q-63 -103 -152 -145.5t-209 -42.5zM496 670q62 0 103.5 29t72.5 92q31 65 51 149t20 168q0 72 -29.5 104.5t-95.5 32.5q-63 0 -107 -35t-75 -112q-28 -66 -44.5 -144t-16.5 -149q0 -69 29 -102t92 -33zM1503 -31q-85 0 -144.5 21.5t-96.5 60t-53.5 92t-16.5 117.5q0 30 4 68
t12 80t20 86.5t29 87.5q54 135 150.5 205.5t247.5 70.5q84 0 144.5 -20.5t98.5 -59t56 -94t18 -125.5q0 -45 -9 -100t-24.5 -110t-35.5 -105.5t-41 -85.5q-31 -52 -68.5 -88t-82.5 -58.5t-97 -32.5t-111 -10zM1520 125q62 0 103.5 29t72.5 92q31 65 50 149.5t19 167.5
q0 72 -28.5 104.5t-94.5 32.5q-63 0 -108 -35t-76 -112q-13 -33 -24 -69.5t-18.5 -74.5t-12 -76t-4.5 -73q0 -69 29 -102t92 -33z" />
    <glyph glyph-name="ampersand" unicode="&#x26;" horiz-adv-x="1294" 
d="M68 307q0 77 26.5 141.5t76.5 121.5t121.5 109.5t160.5 104.5q-26 46 -42.5 82.5t-27 70t-14.5 67.5t-4 75q0 63 24 122.5t72 106t120 75t167 28.5q163 0 243 -68t80 -188q0 -56 -18.5 -106.5t-60 -100.5t-108 -102t-163.5 -111l184 -329q44 55 83 120.5t77 141.5
l170 -72q-46 -103 -104 -196t-127 -169l131 -231h-238l-55 94q-87 -59 -183 -91t-210 -32q-191 0 -286 87.5t-95 248.5zM461 154q78 0 151 24t138 74l-209 379q-75 -46 -125 -85t-80 -75t-42.5 -72.5t-12.5 -76.5q0 -79 48 -123.5t132 -44.5zM569 1077q0 -35 11 -71t34 -78
l19 -37q67 41 112 74t71 61.5t37 56t11 58.5q0 52 -30.5 78t-98.5 26q-41 0 -72 -14t-52 -37t-31.5 -53.5t-10.5 -63.5z" />
    <glyph glyph-name="quotesingle" unicode="'" horiz-adv-x="543" 
d="M403 803h-151l80 581h237z" />
    <glyph glyph-name="parenleft" unicode="(" horiz-adv-x="809" 
d="M319 -395q-55 82 -95.5 162.5t-67 165.5t-39.5 178t-13 200q0 165 44 330t125 321t195 297.5t255 260.5h238q-142 -116 -262 -256t-207 -295.5t-136 -321.5t-49 -334q0 -210 65.5 -385.5t178.5 -322.5h-232z" />
    <glyph glyph-name="parenright" unicode=")" horiz-adv-x="809" 
d="M506 1520q55 -83 95.5 -163t67 -165t39.5 -178t13 -201q0 -164 -44 -329t-125 -321t-195 -298t-255 -260h-237q142 116 262 255.5t207 295t135.5 321.5t48.5 334q0 105 -17 201.5t-48.5 184.5t-77 168.5t-101.5 154.5h232z" />
    <glyph glyph-name="asterisk" unicode="*" horiz-adv-x="911" 
d="M850 866l-229 166l-52 -268h-141l66 266l-267 -151l-57 129l293 139l-242 147l90 119l228 -158l49 265h141l-63 -265l262 146l63 -125l-299 -141l248 -150z" />
    <glyph glyph-name="plus" unicode="+" horiz-adv-x="1427" 
d="M821 496v-478h-174v478h-479v174h479v479h174v-479h477v-174h-477z" />
    <glyph glyph-name="comma" unicode="," horiz-adv-x="557" 
d="M-14 -293q30 34 56 74.5t46 79.5t34 72.5t19 54.5q-49 2 -71.5 21.5t-22.5 60.5q0 24 5.5 47.5t15.5 48.5q17 43 50.5 67.5t98.5 24.5q63 0 91 -26.5t28 -75.5q0 -26 -6 -56t-16 -61t-22.5 -62t-25.5 -59q-32 -66 -70 -121t-73 -90h-137z" />
    <glyph glyph-name="hyphen" unicode="-" horiz-adv-x="791" 
d="M68 420l45 213h610l-45 -213h-610z" />
    <glyph glyph-name="period" unicode="." horiz-adv-x="557" 
d="M338 170q0 -26 -5.5 -54.5t-21.5 -56.5q-21 -40 -57 -56.5t-92 -16.5q-63 0 -89 21.5t-26 62.5q0 24 6 51.5t17 52.5q18 43 53.5 63.5t95.5 20.5q63 0 91 -21.5t28 -66.5z" />
    <glyph glyph-name="slash" unicode="/" horiz-adv-x="993" 
d="M37 -299h-211l1063 1819h215z" />
    <glyph glyph-name="zero" unicode="0" horiz-adv-x="1247" 
d="M1208 958q0 -60 -9 -134t-26.5 -153t-41.5 -158t-54 -151q-48 -113 -106.5 -188.5t-128 -121t-151 -64.5t-175.5 -19q-212 0 -311 111t-99 338q0 57 8 124.5t23 138.5t36 143t46 139q44 117 100 201t127 138.5t159 80.5t196 26q407 0 407 -451zM866 459q20 51 38.5 112
t32.5 126t22 131t8 126q0 70 -12 118.5t-37 78.5t-63 43.5t-89 13.5q-62 0 -110 -19t-87 -57.5t-70 -95.5t-59 -133q-18 -51 -35 -111.5t-29.5 -124.5t-20 -129t-7.5 -126q0 -132 46.5 -187t140.5 -55q55 0 102 15t87.5 49t75.5 89t66 136z" />
    <glyph glyph-name="one" unicode="1" horiz-adv-x="1247" 
d="M477 0l203 958h-330l35 160q98 6 167 21t118.5 45.5t86 79t70.5 120.5h170l-292 -1384h-228z" />
    <glyph glyph-name="two" unicode="2" horiz-adv-x="1171" 
d="M10 0l45 215q84 61 177.5 131.5t183 141t168.5 137.5t135 123q33 34 64 70.5t55 75t38.5 79t14.5 82.5q0 71 -40.5 111t-131.5 40q-97 0 -170 -44.5t-135 -117.5l-156 142q45 53 95 95t109.5 71.5t130 45t155.5 15.5q93 0 165 -20.5t122 -62.5t76 -106.5t26 -152.5
q0 -57 -18.5 -115t-51 -114t-77 -108.5t-95.5 -100.5t-108 -95t-123 -97.5t-143.5 -106.5t-168.5 -121h643l-45 -213h-940z" />
    <glyph glyph-name="three" unicode="3" horiz-adv-x="1171" 
d="M455 829h94q64 0 122 16.5t102 46.5t70.5 72.5t26.5 94.5q0 71 -44 109t-134 38q-93 0 -165.5 -35.5t-129.5 -103.5l-155 135q40 48 88 86.5t106.5 66.5t128.5 43t154 15q100 0 174 -22.5t123 -64t72.5 -101.5t23.5 -135q0 -59 -20.5 -113t-62.5 -100.5t-107.5 -83
t-155.5 -58.5q51 -8 95.5 -31t77.5 -59.5t52 -87t19 -111.5q0 -98 -36 -184t-109 -151t-183.5 -102.5t-259.5 -37.5q-83 0 -151 15.5t-119.5 43.5t-87.5 67t-54 87l201 127q12 -28 33 -52.5t50.5 -42.5t67.5 -28t84 -10q88 0 148.5 24t98 62t54.5 85t17 93q0 99 -61.5 143
t-180.5 44h-110z" />
    <glyph glyph-name="four" unicode="4" horiz-adv-x="1247" 
d="M918 268l-56 -268h-221l55 268h-690l47 219l877 897h225l-194 -915h176l-43 -201h-176zM866 1057l-581 -588h454z" />
    <glyph glyph-name="five" unicode="5" horiz-adv-x="1171" 
d="M1049 535q0 -131 -47.5 -234.5t-124.5 -177.5q-79 -75 -194 -113.5t-261 -38.5q-83 0 -149.5 15.5t-118 43.5t-88 68t-58.5 88l201 127q22 -58 82.5 -96.5t154.5 -38.5q82 0 152 23.5t115 68.5q21 21 38 49t29 59t18.5 63t6.5 61q0 94 -50 143t-165 49
q-82 0 -152.5 -20.5t-118.5 -52.5h-139l238 763h751l-45 -213h-565l-104 -319q46 19 103.5 31t123.5 12q84 0 152 -21t116 -65.5t73.5 -112.5t25.5 -161z" />
    <glyph glyph-name="six" unicode="6" horiz-adv-x="1171" 
d="M514 -29q-209 0 -308.5 106t-99.5 312q0 116 26.5 239t68.5 246q88 269 238.5 404t379.5 135q65 0 118 -8.5t97 -25.5t80 -42t68 -59l-158 -168q-43 51 -92.5 76.5t-124.5 25.5q-76 0 -136 -30.5t-107 -85t-82.5 -130.5t-63.5 -167q146 100 303 100q179 0 268.5 -87.5
t89.5 -258.5q0 -72 -15.5 -143.5t-46 -136t-77.5 -120t-109.5 -96t-141.5 -63.5t-175 -23zM537 172q73 0 130 29.5t96 78t59 111t20 129.5q0 84 -48 131t-139 47q-42 0 -82.5 -7.5t-76.5 -19t-67 -26t-54 -29.5q-13 -57 -22 -113.5t-9 -107.5q0 -112 44.5 -167.5
t148.5 -55.5z" />
    <glyph glyph-name="seven" unicode="7" horiz-adv-x="1247" 
d="M498 0h-273l752 1171h-717l45 213h983l-37 -172z" />
    <glyph glyph-name="eight" unicode="8" horiz-adv-x="1171" 
d="M831 733q52 -28 93 -58t69.5 -68t44 -85.5t15.5 -109.5q0 -93 -39.5 -173.5t-113 -140t-178 -93.5t-235.5 -34q-218 0 -328 79.5t-110 254.5q0 67 25 129.5t72 118t115.5 102t154.5 82.5q-45 24 -79.5 51.5t-58 61t-35.5 74.5t-12 92q0 80 32 152t96.5 126.5t163 86.5
t231.5 32q413 0 413 -319q0 -111 -83.5 -199.5t-252.5 -161.5zM649 823q42 16 92.5 38t93.5 53t72 71.5t29 93.5q0 75 -49.5 112.5t-157.5 37.5q-68 0 -118.5 -16.5t-83.5 -44t-49.5 -63.5t-16.5 -75q0 -26 7.5 -50.5t28.5 -49.5t57.5 -51.5t94.5 -55.5zM612 645
q-77 -31 -138 -63.5t-103.5 -71.5t-65 -86.5t-22.5 -108.5q0 -72 54.5 -114.5t170.5 -42.5q62 0 118.5 16t99 47.5t68 78t25.5 108.5q0 40 -15 73t-42 61.5t-65 53.5t-85 49z" />
    <glyph glyph-name="nine" unicode="9" horiz-adv-x="1171" 
d="M731 1413q209 0 308.5 -106.5t99.5 -311.5q0 -117 -27 -240t-68 -245q-89 -269 -239 -404t-379 -135q-65 0 -118 8.5t-97 25.5t-80.5 42t-67.5 59l158 166q43 -49 92.5 -74.5t124.5 -25.5q76 0 136 30.5t107 85t83 130.5t63 168q-74 -53 -149.5 -78t-153.5 -25
q-179 0 -268.5 87.5t-89.5 260.5q0 108 34.5 212t104.5 186.5t176 133t250 50.5zM709 1212q-74 0 -131 -29.5t-96 -78t-59 -112t-20 -130.5q0 -81 48 -129.5t139 -48.5q42 0 82.5 7.5t76.5 19.5t67 26.5t54 28.5q13 59 22 115.5t9 105.5q0 115 -44.5 170t-147.5 55z" />
    <glyph glyph-name="colon" unicode=":" horiz-adv-x="557" 
d="M338 170q0 -26 -5.5 -54.5t-21.5 -56.5q-21 -40 -57 -56.5t-92 -16.5q-63 0 -89 21.5t-26 62.5q0 24 6 51.5t17 52.5q18 43 53.5 63.5t95.5 20.5q63 0 91 -21.5t28 -66.5zM506 961q0 -26 -5.5 -54.5t-21.5 -56.5q-21 -40 -57.5 -57t-91.5 -17q-63 0 -89 22t-26 62
q0 25 6 52.5t17 52.5q18 43 53.5 63.5t95.5 20.5q63 0 91 -21.5t28 -66.5z" />
    <glyph glyph-name="semicolon" unicode=";" horiz-adv-x="557" 
d="M506 961q0 -26 -5.5 -54.5t-21.5 -56.5q-21 -40 -57.5 -57t-91.5 -17q-63 0 -89 22t-26 62q0 25 6 52.5t17 52.5q18 43 53.5 63.5t95.5 20.5q63 0 91 -21.5t28 -66.5zM-14 -293q30 34 56 74.5t46 79.5t34 72.5t19 54.5q-49 2 -71.5 21.5t-22.5 60.5q0 24 5.5 47.5
t15.5 48.5q17 43 50.5 67.5t98.5 24.5q63 0 91 -26.5t28 -75.5q0 -26 -6 -56t-16 -61t-22.5 -62t-25.5 -59q-32 -66 -70 -121t-73 -90h-137z" />
    <glyph glyph-name="less" unicode="&#x3c;" horiz-adv-x="1427" 
d="M168 502v164l1130 471v-191l-882 -362l882 -361v-190z" />
    <glyph glyph-name="equal" unicode="=" horiz-adv-x="1427" 
d="M176 735v174h1131v-174h-1131zM176 258v174h1131v-174h-1131z" />
    <glyph glyph-name="greater" unicode="&#x3e;" horiz-adv-x="1427" 
d="M172 33v190l883 361l-883 362v191l1133 -471v-164z" />
    <glyph glyph-name="question" unicode="?" horiz-adv-x="1038" 
d="M309 393l62 283q117 53 202.5 98t141 90.5t82 95.5t26.5 113q0 68 -45.5 102.5t-142.5 34.5q-95 0 -161 -40t-118 -107l-166 125q80 109 191 167t268 58q202 0 311 -77.5t109 -235.5q0 -88 -35 -161t-100 -136.5t-158.5 -120t-210.5 -111.5l-39 -178h-217zM510 166
q0 -29 -8 -59t-19 -50q-21 -38 -57 -54.5t-92 -16.5q-65 0 -91 20.5t-26 61.5q0 24 5.5 48.5t15.5 49.5q18 46 53.5 66t97.5 20q63 0 92 -20.5t29 -65.5z" />
    <glyph glyph-name="at" unicode="@" horiz-adv-x="1903" 
d="M1823 721q0 -90 -16.5 -177t-48 -165.5t-77.5 -145t-105 -114.5t-130 -75.5t-152 -27.5q-102 0 -153.5 42.5t-59.5 117.5q-80 -62 -154 -97.5t-157 -35.5q-81 0 -137 26t-90.5 72t-50 109.5t-15.5 138.5q0 31 6 73.5t17 89t28 94t39 89.5q36 67 81 120t100.5 90t122.5 57
t147 20q66 0 119 -22.5t96 -53.5l8 47h191l-152 -710q-6 -32 -6 -52q2 -32 19 -42.5t48 -10.5q41 0 79 20.5t72 57t62.5 87t49 111t32 128.5t11.5 139q0 127 -33.5 225.5t-103.5 166t-178.5 103t-258.5 35.5q-126 0 -235 -33.5t-199 -94t-160.5 -143.5t-118.5 -182
t-73 -209.5t-25 -226.5q0 -120 37.5 -215t109 -160t174 -99.5t232.5 -34.5q61 0 116.5 2t109 7.5t106.5 14t108 21.5v-162q-112 -26 -234 -35.5t-243 -9.5q-158 0 -286 43t-218 128t-139 211t-49 292q0 129 29.5 257t87.5 244t143 216.5t195.5 173.5t246.5 115t295 42
q172 0 309 -42t233 -128t147 -216t51 -306zM1194 774q-48 37 -95.5 55.5t-97.5 18.5q-87 0 -150.5 -41.5t-109.5 -136.5q-16 -35 -28.5 -71.5t-21 -72t-13 -68t-4.5 -57.5q0 -47 6.5 -80.5t22 -55.5t40.5 -32t62 -10q44 0 83 9.5t75.5 26.5t71 40t69.5 51z" />
    <glyph glyph-name="A" unicode="A" horiz-adv-x="1286" 
d="M-66 0l744 1384h299l166 -1384h-232l-37 319h-528l-174 -319h-238zM453 528h399l-70 623z" />
    <glyph glyph-name="B" unicode="B" horiz-adv-x="1260" 
d="M897 750q57 -8 105 -30t83 -58t54.5 -86t19.5 -113q0 -95 -34 -179.5t-104.5 -147.5t-177.5 -99.5t-253 -36.5h-539l293 1384h424q124 0 208 -17.5t135 -52.5t73 -88.5t22 -125.5q0 -61 -18 -115.5t-56 -100t-96 -80t-139 -54.5zM639 825q67 0 125 12.5t101 39.5t68 69.5
t25 102.5q0 75 -54 103t-167 28h-207l-75 -355h184zM547 209q68 0 133 9.5t116 36.5t82 75.5t31 126.5q0 51 -17.5 83t-53.5 50t-90 24.5t-127 6.5h-209l-88 -412h223z" />
    <glyph glyph-name="C" unicode="C" horiz-adv-x="1282" 
d="M1159 231q-48 -57 -104 -104.5t-124 -82t-151 -54t-186 -19.5q-249 0 -370.5 127t-121.5 379q0 55 7 120t21 134t36.5 139.5t54.5 137.5q40 83 97.5 156.5t134 129t172.5 87.5t215 32q98 0 174.5 -19t134.5 -53.5t99.5 -84.5t70.5 -111l-203 -121q-21 48 -47.5 82
t-62 56.5t-81 33t-104.5 10.5q-68 0 -125.5 -20.5t-104.5 -57t-84 -87t-63 -109.5q-25 -58 -44 -117.5t-31.5 -117.5t-18.5 -113.5t-6 -104.5q0 -78 19 -135t52.5 -94t80.5 -54.5t104 -17.5q66 0 121 12.5t102.5 37t90 61.5t83.5 86z" />
    <glyph glyph-name="D" unicode="D" horiz-adv-x="1276" 
d="M1243 924q0 -52 -6 -115t-18.5 -131t-33 -138.5t-49 -136.5t-66 -125t-85.5 -104q-51 -48 -113 -81.5t-132.5 -54t-149 -29.5t-162.5 -9h-389l293 1384h368q135 0 236.5 -23t169.5 -76.5t102.5 -142t34.5 -218.5zM440 213q65 0 120.5 5.5t102.5 18t85 33.5t69 52
q42 42 76 112t58 151.5t37 166.5t13 157q0 75 -18 125t-58 80.5t-104 43.5t-157 13h-148l-203 -958h127z" />
    <glyph glyph-name="E" unicode="E" horiz-adv-x="1128" 
d="M51 0l293 1384h856l-45 -208h-627l-73 -351h532l-43 -209h-532l-88 -403h626l-43 -213h-856z" />
    <glyph glyph-name="F" unicode="F" horiz-adv-x="1083" 
d="M528 1171l-75 -352h522l-43 -209h-522l-129 -610h-230l293 1384h848l-45 -213h-619z" />
    <glyph glyph-name="G" unicode="G" horiz-adv-x="1374" 
d="M1147 1024q-42 96 -114 139t-175 43q-87 0 -152.5 -25.5t-115.5 -70.5t-87 -106.5t-67 -133.5q-22 -54 -37.5 -109t-25.5 -106.5t-14.5 -98t-4.5 -83.5q0 -78 15.5 -134t51 -92t92.5 -52.5t140 -16.5q75 0 144 19t141 53l57 264h-297l43 209h527l-127 -604
q-118 -68 -241.5 -108t-266.5 -40q-131 0 -228.5 28t-162 88t-97 154t-32.5 226q0 106 23.5 228t74.5 241q42 96 99 182.5t136.5 152t185 104t242.5 38.5q181 0 297 -65t185 -197z" />
    <glyph glyph-name="H" unicode="H" horiz-adv-x="1358" 
d="M856 0l129 610h-575l-129 -610h-230l293 1384h229l-118 -561h575l119 561h229l-293 -1384h-229z" />
    <glyph glyph-name="I" unicode="I" horiz-adv-x="803" 
d="M592 0h-602l39 188h186l215 1008h-186l39 188h602l-39 -188h-187l-215 -1008h187z" />
    <glyph glyph-name="J" unicode="J" horiz-adv-x="885" 
d="M688 377q-22 -108 -59 -185t-93.5 -126.5t-135.5 -73t-185 -23.5q-74 0 -143 14t-121 37l90 201q34 -20 83 -32.5t101 -12.5q58 0 98.5 14t69 46.5t48 85.5t36.5 131l197 931h227z" />
    <glyph glyph-name="K" unicode="K" horiz-adv-x="1247" 
d="M823 0l-297 608l-145 -135l-100 -473h-230l293 1384h229l-122 -579l608 579h293l-656 -622l400 -762h-273z" />
    <glyph glyph-name="L" unicode="L" horiz-adv-x="1018" 
d="M51 0l293 1384h229l-249 -1171h591l-43 -213h-821z" />
    <glyph glyph-name="M" unicode="M" horiz-adv-x="1597" 
d="M1104 0l221 1038l-494 -673h-137l-202 673l-220 -1038h-221l293 1384h270l207 -706l510 706h285l-293 -1384h-219z" />
    <glyph glyph-name="N" unicode="N" horiz-adv-x="1370" 
d="M840 0l-336 1087l-230 -1087h-223l293 1384h297l311 -1011l215 1011h224l-293 -1384h-258z" />
    <glyph glyph-name="O" unicode="O" horiz-adv-x="1337" 
d="M588 -29q-135 0 -228 36.5t-150.5 101.5t-82.5 156t-25 200q0 54 5.5 115t18 124t31.5 127.5t46 126.5q40 96 94.5 179t129.5 144.5t172.5 96.5t225.5 35q114 0 203.5 -32t151 -95t93.5 -157.5t32 -219.5q0 -36 -3.5 -80.5t-11.5 -94.5t-20.5 -104.5t-30.5 -109.5
q-38 -121 -94 -222t-135 -173.5t-183.5 -113t-238.5 -40.5zM342 475q0 -81 14.5 -138t46 -92t79.5 -51t116 -16q151 0 249.5 99t158.5 288q29 90 43 180t14 158q0 157 -61 230t-197 73q-71 0 -127.5 -21t-102 -61.5t-82 -98.5t-67.5 -132q-21 -53 -37 -108.5t-26.5 -110
t-15.5 -105.5t-5 -94z" />
    <glyph glyph-name="P" unicode="P" horiz-adv-x="1186" 
d="M1202 1053q0 -74 -12 -147.5t-38.5 -140.5t-70 -124.5t-106 -100t-146.5 -67t-192 -24.5h-262l-94 -449h-230l293 1384h459q95 0 169.5 -17.5t125.5 -56.5t77.5 -102t26.5 -155zM633 655q98 0 161 31t99.5 82.5t50.5 117.5t14 136q0 40 -10.5 69t-34.5 48.5t-63 29
t-96 9.5h-224l-110 -523h213z" />
    <glyph glyph-name="Q" unicode="Q" horiz-adv-x="1337" 
d="M809 -338q-99 0 -168 22t-112.5 63.5t-64.5 101.5t-24 137q-93 18 -157 60t-104.5 104t-58.5 142t-18 173q0 54 5.5 115t18 124t31.5 127.5t46 126.5q39 94 94 176.5t130 144.5t173.5 98t224.5 36q114 0 203.5 -32t151 -95t93.5 -157.5t32 -219.5q0 -36 -3.5 -80.5
t-11.5 -94.5t-20.5 -104.5t-30.5 -109.5q-31 -98 -77.5 -188.5t-113 -162.5t-154.5 -121.5t-202 -65.5q3 -32 12 -55t28 -38t49.5 -22.5t76.5 -7.5q19 0 43 2t49 5.5t49.5 8.5t44.5 10l19 -188q-28 -9 -62 -16t-68.5 -11t-67 -6t-56.5 -2zM342 475q0 -81 14.5 -138t46 -92
t79.5 -51t116 -16q78 0 141 27.5t113.5 78.5t89 123t66.5 160q29 90 42 177.5t13 158.5q0 157 -61 230t-197 73q-72 0 -130 -23t-104.5 -64.5t-82.5 -99t-64 -126.5q-21 -53 -36.5 -108.5t-25.5 -110t-15 -105.5t-5 -94z" />
    <glyph glyph-name="R" unicode="R" horiz-adv-x="1235" 
d="M821 0l-225 545h-201l-114 -545h-230l293 1384h447q109 0 189.5 -16t134 -54.5t80 -102t26.5 -158.5q0 -40 -9.5 -89t-28.5 -99t-47.5 -98t-66.5 -85q-49 -48 -112 -75t-126 -40l248 -567h-258zM653 750q90 0 148.5 15t95.5 52q20 20 35 46.5t25 56.5t15 60.5t5 57.5
q0 80 -50.5 111t-160.5 31h-236l-92 -430h215z" />
    <glyph glyph-name="S" unicode="S" horiz-adv-x="1202" 
d="M225 365q16 -39 39 -73t59 -59.5t87.5 -40t124.5 -14.5q63 0 119 14.5t98 41t67 63.5t25 82q0 40 -7.5 70t-33.5 56t-77.5 50t-139.5 53q-107 33 -181 67t-119.5 76.5t-66 98.5t-20.5 133q0 79 33 156t100.5 138t170 98.5t240.5 37.5q174 0 286 -64t181 -188l-204 -129
q-36 80 -106.5 127t-186.5 47q-67 0 -117.5 -16t-84.5 -43t-51.5 -63t-17.5 -76q0 -35 10.5 -60.5t39 -47t79 -42t129.5 -45.5q110 -35 184.5 -73.5t120.5 -86t65.5 -106.5t19.5 -135q0 -107 -44.5 -189t-122 -138t-182 -85t-223.5 -29q-111 0 -195 20t-145 55.5t-101 85.5
t-63 110z" />
    <glyph glyph-name="T" unicode="T" horiz-adv-x="1169" 
d="M836 1171l-248 -1171h-228l248 1171h-434l45 213h1096l-45 -213h-434z" />
    <glyph glyph-name="U" unicode="U" horiz-adv-x="1393" 
d="M1239 563q-37 -174 -91.5 -288.5t-131.5 -182.5t-180.5 -95.5t-237.5 -27.5q-232 0 -341.5 97t-109.5 292q0 47 8 108.5t23 133.5l166 784h229l-165 -786q-14 -62 -21.5 -119t-7.5 -112q0 -102 58.5 -146.5t176.5 -44.5q84 0 147 19t111 67t82.5 130.5t61.5 209.5
l168 782h227z" />
    <glyph glyph-name="V" unicode="V" horiz-adv-x="1208" 
d="M633 0h-285l-127 1384h221l97 -1126l571 1126h244z" />
    <glyph glyph-name="W" unicode="W" horiz-adv-x="1759" 
d="M1255 0h-249l-29 1012l-457 -1012h-246l-38 1384h223l20 -1015l453 1015h239l29 -1015l455 1015h233z" />
    <glyph glyph-name="X" unicode="X" horiz-adv-x="1221" 
d="M-70 0l598 717l-288 667h247l203 -497l406 497h268l-588 -690l295 -694h-248l-211 524l-415 -524h-267z" />
    <glyph glyph-name="Y" unicode="Y" horiz-adv-x="1143" 
d="M688 530l-113 -530h-231l111 524l-244 860h238l159 -632l428 632h260z" />
    <glyph glyph-name="Z" unicode="Z" horiz-adv-x="1133" 
d="M-31 0l43 207l860 964h-624l45 213h911l-41 -196l-870 -975h678l-43 -213h-959z" />
    <glyph glyph-name="bracketleft" unicode="[" horiz-adv-x="768" 
d="M-25 -395l400 1884h508l-37 -170h-311l-330 -1544h313l-35 -170h-508z" />
    <glyph glyph-name="backslash" unicode="\" horiz-adv-x="993" 
d="M623 -299l-314 1819h201l311 -1819h-198z" />
    <glyph glyph-name="bracketright" unicode="]" horiz-adv-x="768" 
d="M-102 -395l34 170h312l327 1544h-313l37 170h508l-400 -1884h-505z" />
    <glyph glyph-name="asciicircum" unicode="^" horiz-adv-x="1157" 
d="M911 649l-172 555l-407 -555h-176l538 735h152l225 -735h-160z" />
    <glyph glyph-name="underscore" unicode="_" horiz-adv-x="1024" 
d="M-180 -256l22 102h1053l-23 -102h-1052z" />
    <glyph glyph-name="grave" unicode="`" horiz-adv-x="1042" 
d="M666 1208l-220 361h259l116 -361h-155z" />
    <glyph glyph-name="a" unicode="a" horiz-adv-x="1171" 
d="M78 342q0 74 14.5 157.5t44 165.5t74 157t105 132t136.5 91t169 34q94 0 162 -29t116 -83l19 82h208l-219 -1049h-190l16 127q-45 -38 -86 -67t-82 -49.5t-83.5 -31t-90.5 -10.5q-158 0 -235.5 91.5t-77.5 281.5zM862 784q-42 47 -97.5 76t-129.5 29q-57 0 -104 -25
t-84 -66.5t-64.5 -95.5t-45.5 -113t-27 -119t-9 -112q0 -105 36 -151.5t114 -46.5q42 0 83.5 12t81.5 32t76 45.5t68 51.5z" />
    <glyph glyph-name="b" unicode="b" horiz-adv-x="1171" 
d="M227 0h-184l315 1489h211l-112 -535q71 56 151.5 90.5t163.5 34.5q164 0 244 -91.5t80 -282.5q0 -66 -12 -138.5t-35 -144.5t-56.5 -140t-77.5 -126q-69 -91 -164 -139t-216 -48q-90 0 -156.5 32.5t-116.5 88.5zM309 262q42 -45 97 -73.5t124 -28.5q59 0 116.5 30.5
t105.5 98.5q27 38 48.5 85.5t37 99.5t24 106.5t8.5 107.5q0 106 -37.5 153.5t-121.5 47.5q-39 0 -78 -9.5t-76.5 -26t-72 -38t-64.5 -45.5z" />
    <glyph glyph-name="c" unicode="c" horiz-adv-x="1024" 
d="M887 156q-72 -85 -176 -136t-238 -51q-106 0 -181 27.5t-122.5 80t-69.5 128t-22 172.5q0 63 13 139.5t42 154.5t75 151.5t111 130.5t150.5 91.5t194.5 34.5q139 0 227.5 -47t136.5 -141l-182 -109q-26 56 -72 82.5t-125 26.5q-62 0 -112 -25t-89 -66t-67 -94.5
t-46.5 -111.5t-27 -116t-8.5 -107t9.5 -89t32 -68t60.5 -43t95 -15q74 0 133.5 32t113.5 91z" />
    <glyph glyph-name="d" unicode="d" horiz-adv-x="1171" 
d="M76 342q0 66 11.5 138t34.5 144t56.5 140t77.5 127q69 91 164 139.5t217 48.5q81 0 147.5 -29t114.5 -83l111 522h211l-314 -1489h-200l20 102q-75 -58 -156.5 -95.5t-171.5 -37.5q-164 0 -243.5 91.5t-79.5 281.5zM420 760q-27 -39 -49 -86.5t-37.5 -100t-24 -107.5
t-8.5 -108q0 -105 37.5 -151.5t122.5 -46.5q38 0 77.5 9.5t77.5 26t73 38t65 45.5l108 505q-42 47 -97 76t-124 29q-59 0 -116 -30.5t-105 -98.5z" />
    <glyph glyph-name="e" unicode="e" horiz-adv-x="1090" 
d="M311 479q-8 -34 -11 -65.5t-3 -59.5q0 -109 51 -153.5t156 -44.5q80 0 144.5 30.5t121.5 87.5l125 -131q-38 -41 -80 -73.5t-91.5 -55t-109 -34t-131.5 -11.5q-105 0 -181.5 27t-127 77t-74.5 121t-24 160q0 64 10 130.5t30.5 132.5t50.5 129t69 120q33 48 75.5 87.5
t95 67.5t116.5 43t139 15q93 0 162 -24t114.5 -68.5t67.5 -108.5t22 -145q0 -11 -1 -27.5t-3 -36t-4.5 -39.5t-5.5 -36l-25 -115h-678zM811 637q5 26 7.5 50.5t2.5 45.5q0 85 -40.5 128.5t-135.5 43.5q-71 0 -122 -24t-89 -72q-26 -32 -48.5 -76.5t-39.5 -95.5h465z" />
    <glyph glyph-name="f" unicode="f" horiz-adv-x="633" 
d="M842 1296q-29 16 -62 25.5t-71 9.5q-39 0 -69 -9t-52.5 -29t-38 -52.5t-25.5 -79.5l-24 -112h219l-37 -175h-219l-184 -874h-211l184 874h-139l37 175h139l22 102q20 91 50.5 160.5t78 115.5t115.5 69.5t164 23.5q59 0 109.5 -11.5t91.5 -29.5z" />
    <glyph glyph-name="g" unicode="g" horiz-adv-x="1171" 
d="M907 6q-23 -107 -63 -183t-105.5 -124.5t-159 -71t-223.5 -22.5q-128 0 -227.5 25.5t-161.5 68.5l101 170q62 -37 135.5 -58.5t163.5 -21.5q78 0 134.5 12t96 40t64 74.5t38.5 115.5l21 94q-35 -27 -73.5 -50t-78 -39.5t-80 -26t-77.5 -9.5q-89 0 -152 25.5t-103 74.5
t-58.5 121t-18.5 166q0 79 16.5 161.5t48.5 159.5t80 144.5t111 118t140 79.5t169 29q35 0 72 -9t72 -25t66 -38.5t54 -50.5l37 93h180zM860 784q-45 51 -99.5 78t-123.5 27q-56 0 -102 -23.5t-83 -62.5t-64.5 -90t-46 -106.5t-27.5 -111t-9 -104.5q0 -107 35.5 -154
t124.5 -47q75 0 149 32t146 87z" />
    <glyph glyph-name="h" unicode="h" horiz-adv-x="1165" 
d="M698 0l127 598q11 56 18 100.5t7 87.5q0 50 -23 75.5t-77 25.5q-37 0 -79 -12.5t-86.5 -35t-89 -53t-87.5 -65.5l-154 -721h-211l315 1489h211l-125 -586q42 37 87 69t92.5 56t97 37.5t100.5 13.5q69 0 116.5 -19.5t76 -52.5t41 -77.5t12.5 -95.5q0 -42 -7 -93t-18 -102
l-135 -639h-209z" />
    <glyph glyph-name="i" unicode="i" horiz-adv-x="520" 
d="M43 0l221 1049h211l-221 -1049h-211zM295 1288q0 28 7.5 56t25 49.5t46.5 35t72 13.5q59 0 84 -22.5t25 -59.5q0 -28 -7.5 -55t-25 -48.5t-46 -35t-70.5 -13.5q-65 0 -88 21.5t-23 58.5z" />
    <glyph glyph-name="j" unicode="j" horiz-adv-x="539" 
d="M260 -45q-19 -91 -50.5 -157t-79.5 -109t-114.5 -63.5t-156.5 -20.5q-18 0 -42 2t-50 5.5t-53 9t-50 13.5l86 183q32 -14 67 -21.5t77 -7.5q38 0 64 13t44.5 40t31 68t23.5 96l222 1043h213zM315 1290q0 28 8 55t26 48.5t47 35t71 13.5q59 0 83.5 -23t24.5 -61
q0 -29 -8 -56t-25.5 -48t-46 -33.5t-69.5 -12.5q-32 0 -53.5 5.5t-34.5 16t-18 26t-5 34.5z" />
    <glyph glyph-name="k" unicode="k" horiz-adv-x="1053" 
d="M672 0l-211 459l-135 -123l-72 -336h-211l315 1489h211l-184 -875l457 435h264l-488 -455l289 -594h-235z" />
    <glyph glyph-name="l" unicode="l" horiz-adv-x="528" 
d="M47 0l315 1489h211l-315 -1489h-211z" />
    <glyph glyph-name="m" unicode="m" horiz-adv-x="1716" 
d="M1247 0l131 618q13 57 20 99.5t7 73.5q0 96 -90 96q-35 0 -73.5 -14t-78 -37.5t-78.5 -53.5t-75 -61l-154 -721h-211l131 618q13 59 19 101t6 65q0 51 -19.5 77t-72.5 26q-35 0 -74 -15.5t-79 -39.5t-78 -53.5t-70 -57.5l-154 -721h-211l221 1049h211l-31 -146
q42 40 86.5 72.5t88 55.5t86 35.5t81.5 12.5q121 0 177.5 -51.5t58.5 -144.5q105 93 194 144.5t170 51.5q69 0 115 -17.5t73.5 -48.5t38.5 -73.5t11 -91.5q0 -37 -5.5 -79.5t-16.5 -90.5l-144 -678h-211z" />
    <glyph glyph-name="n" unicode="n" horiz-adv-x="1165" 
d="M698 0l127 598q11 56 18 101t7 92q0 46 -24.5 71t-73.5 25q-39 0 -82 -12.5t-87 -35t-88 -53t-87 -65.5l-154 -721h-211l221 1049h211l-31 -146q42 37 87 69t92 56t96 37.5t100 13.5q70 0 117.5 -19.5t76.5 -52.5t41.5 -77.5t12.5 -95.5q0 -42 -7 -93t-18 -102l-135 -639
h-209z" />
    <glyph glyph-name="o" unicode="o" horiz-adv-x="1149" 
d="M80 379q0 54 10 122t32.5 139.5t59 142t90.5 128.5q71 77 168 122.5t232 45.5q93 0 166.5 -26t125 -78t78.5 -131t27 -185q0 -55 -11 -125t-36 -144t-65.5 -145.5t-98.5 -129.5q-37 -37 -77.5 -64.5t-86.5 -45.5t-99.5 -27t-115.5 -9q-109 0 -185 27.5t-123.5 80
t-69 128.5t-21.5 174zM299 373q0 -55 10.5 -95.5t34 -67.5t61.5 -40.5t93 -13.5q68 0 121.5 28t95.5 76q31 36 56.5 85t42.5 102.5t26.5 108t9.5 101.5q0 234 -201 234q-72 0 -128.5 -32.5t-98.5 -86.5q-29 -37 -51.5 -85t-38.5 -101.5t-24.5 -108t-8.5 -104.5z" />
    <glyph glyph-name="p" unicode="p" horiz-adv-x="1171" 
d="M170 -395h-209l303 1444h201l-21 -105q76 60 157 97.5t171 37.5q164 0 244 -91.5t80 -282.5q0 -66 -13 -146t-40.5 -161.5t-71 -159t-105 -137t-142 -96t-181.5 -36.5q-88 0 -155.5 29.5t-115.5 83.5zM309 262q42 -45 97 -73.5t124 -28.5q57 0 104.5 24.5t85 66t66 95.5
t47 113t28 118t9.5 111q0 106 -37.5 153.5t-121.5 47.5q-39 0 -78 -9.5t-77 -26t-73 -38t-65 -45.5z" />
    <glyph glyph-name="q" unicode="q" horiz-adv-x="1171" 
d="M713 94q-81 -62 -155.5 -93.5t-158.5 -31.5q-163 0 -243 93t-80 290q0 69 14 149.5t43 161t72.5 156t103.5 133t136 92.5t169 35q99 0 171 -30.5t124 -92.5l37 93h182l-305 -1444h-211zM862 784q-42 47 -97.5 76t-127.5 29q-63 0 -112.5 -27t-86.5 -71.5t-63.5 -101
t-42.5 -115.5t-23.5 -115.5t-7.5 -100.5q0 -105 37.5 -151.5t122.5 -46.5q38 0 77.5 9.5t77.5 26t73 38t65 45.5z" />
    <glyph glyph-name="r" unicode="r" horiz-adv-x="809" 
d="M809 836q-14 6 -38 12t-50 6q-44 0 -84.5 -12t-79.5 -32.5t-77 -48.5t-77 -59l-149 -702h-211l221 1049h211l-33 -160q94 88 172.5 132t153.5 44q38 0 72 -6.5t53 -16.5z" />
    <glyph glyph-name="s" unicode="s" horiz-adv-x="987" 
d="M188 262q31 -60 84.5 -87.5t135.5 -27.5q49 0 92 8.5t74.5 26.5t50 44.5t18.5 62.5q0 23 -6 42t-27 36.5t-60.5 35t-105.5 37.5q-85 25 -141.5 54t-90 63.5t-47 77t-13.5 96.5q0 71 28 134t82.5 110.5t135.5 75.5t186 28q144 0 233 -47t141 -135l-180 -111
q-10 22 -27.5 42.5t-43.5 36.5t-62 26t-82 10q-48 0 -85 -11.5t-62 -30.5t-38 -43.5t-13 -49.5q0 -22 6 -41.5t24 -36.5t50 -32.5t83 -30.5q94 -26 157.5 -55t102 -65t54.5 -82t16 -106q0 -73 -30 -136.5t-88.5 -110.5t-145 -74t-199.5 -27q-87 0 -151.5 14t-111 38.5
t-77 58.5t-49.5 74z" />
    <glyph glyph-name="t" unicode="t" horiz-adv-x="719" 
d="M582 0q-48 -15 -102 -23t-99 -8q-70 0 -119 16.5t-80.5 47t-46 73t-14.5 95.5q0 31 4 68t12 75l113 530h-137l37 175h137l63 292h211l-63 -292h250l-35 -175h-252l-111 -524q-8 -32 -12 -59.5t-4 -48.5q0 -51 23.5 -73t68.5 -22q35 0 78.5 7.5t77.5 19.5v-174z" />
    <glyph glyph-name="u" unicode="u" horiz-adv-x="1165" 
d="M467 1049l-125 -598q-12 -56 -19.5 -101t-7.5 -80q0 -60 24.5 -84t74.5 -24q39 0 81.5 12.5t86.5 34.5t88.5 52.5t87.5 66.5l153 721h211l-221 -1049h-211l31 145q-42 -38 -87 -70t-91.5 -55.5t-94.5 -37t-96 -13.5q-72 0 -120.5 19.5t-78.5 52.5t-42.5 77.5t-12.5 94.5
q0 42 7 93t18 102l135 641h209z" />
    <glyph glyph-name="v" unicode="v" horiz-adv-x="1004" 
d="M489 0h-200l-139 1049h208l91 -762l399 762h227z" />
    <glyph glyph-name="w" unicode="w" horiz-adv-x="1489" 
d="M1071 0h-197l-83 735l-398 -735h-192l-47 1049h208l13 -738l391 738h166l88 -736l315 736h219z" />
    <glyph glyph-name="x" unicode="x" horiz-adv-x="1024" 
d="M637 0l-158 367l-291 -367h-256l459 541l-233 508h231l154 -357l293 357h256l-461 -531l241 -518h-235z" />
    <glyph glyph-name="y" unicode="y" horiz-adv-x="1040" 
d="M-119 -184q31 -14 65 -20.5t66 -6.5q33 0 63 11t60 35.5t62 65.5t69 101l45 76l-164 971h211l111 -730l418 730h229l-680 -1125q-51 -86 -98 -146.5t-97.5 -99t-110 -56t-136.5 -17.5q-47 0 -97 9.5t-92 23.5z" />
    <glyph glyph-name="z" unicode="z" horiz-adv-x="913" 
d="M-43 0l33 160l649 714h-485l36 175h750l-33 -156l-651 -719h514l-37 -174h-776z" />
    <glyph glyph-name="braceleft" unicode="{" horiz-adv-x="926" 
d="M584 -395q-164 0 -246 68.5t-82 201.5q0 35 5 68t11 65l29 133q6 32 12 67t6 77q0 41 -11.5 75.5t-36.5 59t-63 38t-91 13.5h-29l41 184h29q70 0 123 20.5t91.5 61.5t64.5 102.5t44 143.5l29 143q21 97 57 170.5t90.5 123t129.5 75t174 25.5h96l-35 -170h-55
q-114 0 -176.5 -58t-88.5 -182l-36 -168q-19 -87 -46.5 -153t-68 -112.5t-96 -75.5t-129.5 -44q91 -32 140.5 -99t49.5 -161q0 -29 -4 -61t-10 -60l-33 -164q-5 -24 -9.5 -49t-4.5 -59q0 -66 42.5 -97.5t127.5 -31.5h61l-35 -170h-67z" />
    <glyph glyph-name="bar" unicode="|" horiz-adv-x="825" 
d="M358 -395v1915h197v-1915h-197z" />
    <glyph glyph-name="braceright" unicode="}" horiz-adv-x="926" 
d="M354 1520q164 0 246 -70t82 -203q0 -34 -5 -66.5t-11 -66.5l-29 -133q-6 -32 -12.5 -66.5t-6.5 -76.5q0 -41 12 -75t36.5 -58.5t63 -38t91.5 -13.5h29l-41 -184h-29q-71 0 -123.5 -20.5t-91 -61.5t-64.5 -103t-44 -145l-29 -141q-21 -97 -57 -170.5t-90.5 -123
t-129.5 -74.5t-174 -25h-96l35 170h55q114 0 176.5 56t88.5 181l36 170q19 87 46.5 152t68 111.5t96 75.5t129.5 44q-91 34 -140.5 100t-49.5 162q0 28 4 60.5t10 60.5l33 162q5 26 9.5 51.5t4.5 57.5q0 68 -42.5 99.5t-127.5 31.5h-61l35 170h67z" />
    <glyph glyph-name="asciitilde" unicode="~" horiz-adv-x="1378" 
d="M207 791q50 38 94.5 62.5t83 38t71 18.5t58.5 5q72 0 134 -24.5t119 -54t109.5 -54t104.5 -24.5q74 0 156 38t172 107l-41 -190q-32 -24 -68 -47t-75.5 -41.5t-80.5 -29.5t-81 -11q-70 0 -134 24.5t-122.5 54t-110.5 54t-98 24.5q-88 0 -167.5 -38.5t-164.5 -106.5z" />
    <glyph glyph-name="uni00A0" unicode="&#xa0;" horiz-adv-x="543" 
 />
    <glyph glyph-name="exclamdown" unicode="&#xa1;" horiz-adv-x="557" 
d="M221 674h176l-196 -1069h-234zM221 897q0 29 8 59t19 50q21 40 57.5 56.5t91.5 16.5q65 0 91 -21t26 -63q0 -23 -5.5 -48t-14.5 -50q-19 -45 -54.5 -64.5t-97.5 -19.5q-63 0 -92 19.5t-29 64.5z" />
    <glyph glyph-name="cent" unicode="&#xa2;" horiz-adv-x="1034" 
d="M887 156q-72 -85 -176 -136t-238 -51h-37l-78 -229h-141l84 254q-119 38 -171 136t-52 247q0 63 13 140t42 155t75 151.5t111.5 130t152 91t196.5 34.5l71 209h142l-76 -225q78 -20 133.5 -62t89.5 -110l-182 -109q-17 35 -42 58.5t-63 36.5l-243 -721q80 5 137 36
t108 87zM299 371q0 -65 14.5 -112.5t53.5 -72.5l235 699q-53 -9 -96.5 -37.5t-77 -70t-58 -93t-40.5 -105.5t-23.5 -108t-7.5 -100z" />
    <glyph glyph-name="sterling" unicode="&#xa3;" horiz-adv-x="1247" 
d="M39 0l39 193q40 9 72.5 31.5t58.5 54t45.5 69.5t33.5 77t23.5 76.5t14.5 69.5h-146l35 168h125q3 25 2.5 55t-0.5 80q0 127 37 227t104 168t161 104t208 36q78 0 139.5 -14.5t110 -43.5t86 -72.5t67.5 -100.5l-194 -113q-23 69 -82.5 110.5t-149.5 41.5q-65 0 -116 -23
t-85.5 -65t-52.5 -100t-18 -128q0 -40 -1 -80t-1 -82h352l-35 -168h-329q-11 -51 -27 -101t-40 -97.5t-57.5 -90t-78.5 -77.5h723l-41 -205h-983z" />
    <glyph glyph-name="currency" unicode="&#xa4;" horiz-adv-x="1260" 
d="M236 115l-109 106l168 168q-37 56 -54.5 114t-17.5 113q0 56 17 115t55 113l-168 166l109 108l165 -164q57 41 117.5 57.5t114.5 16.5q59 0 119 -17.5t114 -56.5l166 164l109 -108l-166 -164q42 -57 58 -116.5t16 -113.5q0 -55 -18 -112.5t-56 -116.5l166 -166l-109 -106
l-168 164q-55 -39 -113 -54.5t-118 -15.5q-54 0 -114 15.5t-116 56.5zM887 616q0 53 -20 99.5t-54 81t-80 54t-98 19.5q-55 0 -101 -20.5t-79 -55t-51.5 -80.5t-18.5 -98q0 -51 19 -97t52.5 -80t79 -54t97.5 -20q54 0 100 20t80.5 54t54 80t19.5 97z" />
    <glyph glyph-name="yen" unicode="&#xa5;" horiz-adv-x="1247" 
d="M784 651l-45 -61q-3 -14 -8 -33t-8 -33h346l-31 -151h-344q-3 -15 -9 -44.5t-14 -66t-16.5 -76.5t-16.5 -76t-14.5 -65.5t-9.5 -44.5h-217l80 373h-346l31 151h346l12 60l-20 67h-310l31 152h232q-9 25 -23.5 71t-32 102t-37 117.5t-37 117.5t-32 101.5t-23.5 71.5h226
l172 -583l417 583h246l-434 -581h233l-32 -152h-312z" />
    <glyph glyph-name="brokenbar" unicode="&#xa6;" horiz-adv-x="852" 
d="M381 883v637h156v-637h-156zM381 -395v637h156v-637h-156z" />
    <glyph glyph-name="section" unicode="&#xa7;" horiz-adv-x="997" 
d="M918 545q0 -53 -19 -100.5t-54.5 -91t-87.5 -84t-118 -79.5q53 -49 78.5 -103t25.5 -128q0 -70 -29.5 -129.5t-86 -103t-137.5 -68.5t-183 -25q-70 0 -125 12.5t-97 33.5t-71 50t-47 62l164 115q32 -50 82.5 -72t118.5 -22q39 0 75 9t64 26.5t44.5 43t16.5 58.5
q0 21 -8 40.5t-29.5 43.5t-60.5 55.5t-100 77.5q-63 45 -108.5 84t-74.5 78.5t-43 84.5t-14 103q0 50 23 97t61 90.5t88.5 82t106.5 70.5q-26 24 -45 48.5t-32 52.5t-19.5 60.5t-6.5 72.5q0 63 27.5 121t80.5 102.5t131 71t179 26.5q72 0 126 -11t96 -31.5t74.5 -49
t62.5 -64.5l-158 -116q-18 19 -38.5 36t-46.5 30t-58 20.5t-72 7.5q-51 0 -88 -11t-61 -29t-35 -40.5t-11 -46.5q0 -26 8.5 -48t30 -46.5t59 -55t95.5 -73.5q71 -54 118.5 -97.5t76 -82.5t40 -77t11.5 -81zM512 293q44 21 81 48t64 56t42.5 59t15.5 58t-14.5 54.5t-42 54.5
t-67 59.5t-89.5 69.5q-103 -60 -155 -114t-52 -108q0 -27 15 -54t43 -55.5t68 -60t91 -67.5z" />
    <glyph glyph-name="dieresis" unicode="&#xa8;" horiz-adv-x="1042" 
d="M610 1348q0 -20 -5.5 -46t-16.5 -45q-19 -37 -49.5 -51t-81.5 -14q-59 0 -80 19.5t-21 54.5q0 14 4.5 39t14.5 47q15 38 46 55.5t85 17.5q57 0 80.5 -19.5t23.5 -57.5zM1016 1348q0 -20 -5.5 -46t-15.5 -45q-20 -37 -50.5 -51t-80.5 -14q-59 0 -80.5 19.5t-21.5 54.5
q0 14 4.5 39t13.5 47q17 38 48 55.5t85 17.5q57 0 80 -19.5t23 -57.5z" />
    <glyph glyph-name="copyright" unicode="&#xa9;" horiz-adv-x="1829" 
d="M924 -197q-113 0 -216.5 28.5t-193 81t-162 126t-124 163t-79.5 193t-28 215.5q0 113 28.5 216t80.5 192t125 161.5t162 124t192 79.5t215 28t215.5 -28.5t192.5 -80.5t161.5 -125t124.5 -162t80 -191.5t28 -213.5q0 -113 -28.5 -217t-80.5 -194t-125 -163t-162 -125
t-192 -80t-214 -28zM924 -51q91 0 175 23.5t156.5 67t131.5 103.5t101.5 133.5t65.5 158t23 175.5q0 90 -23 174t-65.5 156.5t-101.5 132.5t-131.5 103t-156.5 66.5t-175 23.5t-174.5 -23.5t-156 -66.5t-131.5 -103t-101.5 -132.5t-65.5 -156.5t-23 -174q0 -137 51 -257
t139 -210t207 -142t255 -52zM948 168q-209 0 -308 113t-99 331t98 331.5t305 113.5q64 0 114.5 -13.5t91 -38t71.5 -59.5t57 -78l-152 -88q-15 25 -31 46.5t-37.5 37.5t-49.5 25.5t-66 9.5q-59 0 -101 -17t-68 -52.5t-38 -89.5t-12 -128q0 -76 13 -130t40 -88.5t69 -51
t99 -16.5q36 0 64.5 9t51.5 25t42 38t37 48l153 -86q-28 -40 -59.5 -75t-72 -61t-92.5 -41t-120 -15z" />
    <glyph glyph-name="ordfeminine" unicode="&#xaa;" horiz-adv-x="799" 
d="M174 936q0 49 9.5 104t28.5 108t48.5 101.5t69 85t90 58.5t112.5 22t107 -20.5t76 -55.5l12 56h156l-144 -682h-143l10 82q-29 -25 -56 -44t-54 -32t-55.5 -20t-59.5 -7q-103 0 -155 59.5t-52 184.5zM688 1212q-25 29 -60 47.5t-83 18.5q-53 0 -92 -31.5t-64 -79.5
t-37 -105.5t-12 -109.5q0 -68 22.5 -95.5t71.5 -27.5q27 0 53 7.5t51 20t47 28.5t42 33z" />
    <glyph glyph-name="guillemotleft" unicode="&#xab;" horiz-adv-x="1303" 
d="M365 53l-302 471l496 471h250l-502 -481l297 -461h-239zM885 53l-301 471l495 471h250l-502 -481l297 -461h-239z" />
    <glyph glyph-name="logicalnot" unicode="&#xac;" horiz-adv-x="1427" 
d="M1114 344v469h-956v174h1130v-643h-174z" />
    <glyph glyph-name="uni00AD" unicode="&#xad;" horiz-adv-x="791" 
d="M68 420l45 213h610l-45 -213h-610z" />
    <glyph glyph-name="registered" unicode="&#xae;" horiz-adv-x="1829" 
d="M924 -197q-113 0 -216.5 28.5t-193 81t-162 126t-124 163t-79.5 193t-28 215.5q0 113 28.5 216t80.5 192t125 161.5t162 124t192 79.5t215 28t215.5 -28.5t192.5 -80.5t161.5 -125t124.5 -162t80 -191.5t28 -213.5q0 -113 -28.5 -217t-80.5 -194t-125 -163t-162 -125
t-192 -80t-214 -28zM924 -51q91 0 175 23.5t156.5 67t131.5 103.5t101.5 133.5t65.5 158t23 175.5q0 90 -23 174t-65.5 156.5t-101.5 132.5t-131.5 103t-156.5 66.5t-175 23.5t-174.5 -23.5t-156 -66.5t-131.5 -103t-101.5 -132.5t-65.5 -156.5t-23 -174q0 -137 51 -257
t139 -210t207 -142t255 -52zM625 199v852h290q75 0 136 -12t103.5 -41.5t65.5 -78.5t23 -122q0 -105 -40.5 -163.5t-112.5 -84.5l235 -350h-211l-215 321h-98v-321h-176zM801 670h108q48 0 77.5 6.5t46 20.5t22.5 36.5t6 54.5q0 30 -6.5 51t-22.5 34.5t-43.5 19.5t-70.5 6
h-117v-229z" />
    <glyph glyph-name="macron" unicode="&#xaf;" horiz-adv-x="1042" 
d="M362 1255l35 162h629l-35 -162h-629z" />
    <glyph glyph-name="degree" unicode="&#xb0;" horiz-adv-x="866" 
d="M864 1241q0 -62 -24 -116.5t-64.5 -95t-94 -64t-112.5 -23.5q-60 0 -114 23.5t-94.5 64t-64.5 95t-24 116.5q0 61 23.5 114.5t64 93.5t94 62.5t113.5 22.5q62 0 116.5 -23.5t94.5 -63t63 -93t23 -113.5zM715 1239q0 31 -11.5 57.5t-31 46t-46 30.5t-57.5 11
q-32 0 -59 -11.5t-46.5 -31.5t-30.5 -46t-11 -54q0 -31 11 -58t31 -47.5t46.5 -32t58.5 -11.5q31 0 57.5 11.5t46 32t31 47t11.5 56.5z" />
    <glyph glyph-name="plusminus" unicode="&#xb1;" horiz-adv-x="1427" 
d="M825 819v-479h-174v479h-477v174h477v477h174v-477h480v-174h-480zM174 0v174h1131v-174h-1131z" />
    <glyph glyph-name="twosuperior" unicode="&#xb2;" horiz-adv-x="903" 
d="M119 651l35 160q59 34 124.5 75.5t128.5 84t117.5 83t91.5 72.5q36 32 60 69.5t24 72.5q0 42 -22 63t-78 21q-60 0 -110 -27.5t-91 -69.5l-143 99q75 83 165 125.5t200 42.5q81 0 138 -15.5t93 -44.5t53 -70t17 -92q0 -81 -42 -145t-116 -123q-26 -20 -62.5 -45.5
t-80.5 -54t-92.5 -59t-96.5 -58.5h414l-35 -164h-692z" />
    <glyph glyph-name="threesuperior" unicode="&#xb3;" horiz-adv-x="903" 
d="M848 922q0 -60 -26 -112.5t-77 -92t-126.5 -62t-174.5 -22.5q-65 0 -116 12t-89.5 33t-64.5 50t-39 63l168 90q9 -18 23.5 -34t34 -28.5t44.5 -20t56 -7.5q85 0 128.5 37.5t43.5 91.5q0 55 -33.5 78.5t-105.5 23.5h-101l31 152h88q90 0 143.5 27.5t53.5 84.5q0 40 -29 60
t-82 20q-62 0 -108.5 -22.5t-88.5 -65.5l-137 90q31 32 67 60t79.5 49t96 33t116.5 12q81 0 137 -15.5t91 -43t51 -66t16 -84.5q0 -72 -44 -121.5t-151 -81.5q63 -23 94 -68.5t31 -119.5z" />
    <glyph glyph-name="acute" unicode="&#xb4;" horiz-adv-x="1042" 
d="M733 1208h-182l242 361h284z" />
    <glyph glyph-name="mu" unicode="&#xb5;" horiz-adv-x="1161" 
d="M911 0h-196l16 115q-69 -73 -136.5 -109.5t-145.5 -36.5q-67 0 -115 20t-90 62l-94 -446h-209l303 1444h211l-164 -773q25 -44 75.5 -76t122.5 -32q142 0 275 133l158 748h211z" />
    <glyph glyph-name="paragraph" unicode="&#xb6;" horiz-adv-x="1264" 
d="M1174 1214l-343 -1609h-192l342 1609h-174l-342 -1609h-195l195 915q-72 4 -133.5 27t-106.5 68.5t-70.5 115.5t-25.5 168q0 91 33.5 178t105 155t183 110t268.5 42h678l-37 -170h-186z" />
    <glyph glyph-name="periodcentered" unicode="&#xb7;" horiz-adv-x="557" 
d="M447 793q0 -26 -5.5 -54.5t-21.5 -56.5q-21 -40 -57 -56.5t-92 -16.5q-63 0 -89 21.5t-26 62.5q0 24 6 51.5t17 52.5q18 43 53.5 63.5t95.5 20.5q63 0 91 -21.5t28 -66.5z" />
    <glyph glyph-name="cedilla" unicode="&#xb8;" horiz-adv-x="1042" 
d="M578 -184q0 -107 -81.5 -159t-224.5 -52q-44 0 -82 5.5t-68.5 13.5t-52.5 16.5t-34 15.5l80 117q38 -19 83.5 -29t86.5 -10q24 0 48 3.5t43 12.5t30.5 23.5t11.5 36.5q0 30 -35.5 52t-120.5 25l100 142h127l-40 -56q57 -17 93 -55.5t36 -101.5z" />
    <glyph glyph-name="onesuperior" unicode="&#xb9;" horiz-adv-x="903" 
d="M422 651l119 570h-224l27 129q69 2 117 11t82 26.5t58.5 46t45.5 69.5h160l-180 -852h-205z" />
    <glyph glyph-name="ordmasculine" unicode="&#xba;" horiz-adv-x="776" 
d="M829 1159q0 -37 -4.5 -78t-15.5 -83t-29 -83t-45 -77q-57 -78 -129 -111t-168 -33q-141 0 -202.5 66t-61.5 192q0 56 15 125t49 137q48 94 130 147.5t197 53.5q137 0 200.5 -66.5t63.5 -189.5zM594 901q35 51 54.5 117.5t19.5 132.5q0 68 -25.5 96.5t-91.5 28.5
q-106 0 -158 -100q-25 -48 -40 -106.5t-15 -115.5q0 -60 25.5 -91.5t87.5 -31.5q48 0 82.5 17.5t60.5 52.5z" />
    <glyph glyph-name="guillemotright" unicode="&#xbb;" horiz-adv-x="1303" 
d="M936 995l301 -471l-496 -471h-249l501 482l-297 460h240zM416 995l301 -471l-496 -471h-250l502 482l-297 460h240z" />
    <glyph glyph-name="onequarter" unicode="&#xbc;" horiz-adv-x="1966" 
d="M506 -53h-211l1044 1489h215zM314 533l119 570h-224l27 129q69 2 117 11t82 26.5t58.5 46t45.5 69.5h160l-180 -852h-205zM1599 156l-35 -170h-194l35 170h-476l31 146l602 536h185l-115 -532h119l-31 -150h-121zM1501 601l-332 -295h268z" />
    <glyph glyph-name="onehalf" unicode="&#xbd;" horiz-adv-x="1966" 
d="M441 -53h-211l1044 1489h215zM304 535l119 570h-224l27 129q69 2 117 11t82 26.5t58.5 46t45.5 69.5h160l-180 -852h-205zM963 -16l35 160q59 34 124.5 75.5t128.5 84t117.5 83t91.5 72.5q36 32 60 69.5t24 72.5q0 42 -22 63t-78 21q-60 0 -110 -27.5t-91 -69.5l-143 99
q75 83 165 125.5t200 42.5q81 0 138 -15.5t93 -44.5t53 -70t17 -92q0 -81 -42 -145t-116 -123q-26 -20 -62.5 -45.5t-80.5 -54t-92.5 -59t-96.5 -58.5h414l-35 -164h-692z" />
    <glyph glyph-name="threequarters" unicode="&#xbe;" horiz-adv-x="1966" 
d="M676 -53h-211l1044 1489h215zM1730 154l-35 -170h-194l35 170h-476l31 146l602 536h185l-115 -532h119l-31 -150h-121zM1632 599l-332 -295h268zM802 806q0 -60 -26 -112.5t-77 -92t-126.5 -62t-174.5 -22.5q-65 0 -116 12t-89.5 33t-64.5 50t-39 63l168 90
q9 -18 23.5 -34t34 -28.5t44.5 -20t56 -7.5q85 0 128.5 37.5t43.5 91.5q0 55 -33.5 78.5t-105.5 23.5h-101l31 152h88q90 0 143.5 27.5t53.5 84.5q0 40 -29 60t-82 20q-62 0 -108.5 -22.5t-88.5 -65.5l-137 90q31 32 67 60t79.5 49t96 33t116.5 12q81 0 137 -15.5t91 -43
t51 -66t16 -84.5q0 -72 -44 -121.5t-151 -81.5q63 -23 94 -68.5t31 -119.5z" />
    <glyph glyph-name="questiondown" unicode="&#xbf;" horiz-adv-x="1038" 
d="M731 672l-61 -287q-121 -57 -208 -105.5t-143.5 -98t-83 -104t-26.5 -122.5q0 -74 45.5 -111t142.5 -37q48 0 87.5 10.5t73.5 29.5t63 46t55 60l166 -123q-80 -110 -191 -167.5t-268 -57.5q-201 0 -310.5 81t-109.5 248q0 92 35 169t101 144t161 126t215 116l39 183h217z
M532 897q0 29 8 59t19 50q22 40 58 56.5t92 16.5q65 0 90.5 -21t25.5 -63q0 -23 -5.5 -48t-14.5 -50q-19 -45 -54.5 -64.5t-97.5 -19.5q-63 0 -92 19.5t-29 64.5z" />
    <glyph glyph-name="Agrave" unicode="&#xc0;" horiz-adv-x="1286" 
d="M-66 0l744 1384h299l166 -1384h-232l-37 319h-528l-174 -319h-238zM453 528h399l-70 623zM838 1544l-220 361h259l116 -361h-155z" />
    <glyph glyph-name="Aacute" unicode="&#xc1;" horiz-adv-x="1286" 
d="M-66 0l744 1384h299l166 -1384h-232l-37 319h-528l-174 -319h-238zM453 528h399l-70 623zM868 1544h-182l242 361h284z" />
    <glyph glyph-name="Acircumflex" unicode="&#xc2;" horiz-adv-x="1286" 
d="M-66 0l744 1384h299l166 -1384h-232l-37 319h-528l-174 -319h-238zM453 528h399l-70 623zM1010 1544l-117 205l-207 -205h-182l303 361h223l150 -361h-170z" />
    <glyph glyph-name="Atilde" unicode="&#xc3;" horiz-adv-x="1286" 
d="M-66 0l744 1384h299l166 -1384h-232l-37 319h-528l-174 -319h-238zM453 528h399l-70 623zM465 1561q17 66 43 119.5t61 92t80.5 59t101.5 20.5q62 0 101 -22t67.5 -49t52.5 -49t56 -22q46 0 73.5 35.5t43.5 91.5h147q-16 -66 -41 -119.5t-60 -92t-82 -59t-108 -20.5
q-46 0 -79 10.5t-56.5 26.5t-40.5 35t-32.5 35t-31 26.5t-36.5 10.5q-42 0 -69 -34.5t-44 -94.5h-147z" />
    <glyph glyph-name="Adieresis" unicode="&#xc4;" horiz-adv-x="1286" 
d="M-66 0l744 1384h299l166 -1384h-232l-37 319h-528l-174 -319h-238zM453 528h399l-70 623zM792 1684q0 -20 -5.5 -46t-16.5 -45q-19 -37 -49.5 -51t-81.5 -14q-59 0 -80 19.5t-21 54.5q0 14 4.5 39t14.5 47q15 38 46 55.5t85 17.5q57 0 80.5 -19.5t23.5 -57.5zM1198 1684
q0 -20 -5.5 -46t-15.5 -45q-20 -37 -50.5 -51t-80.5 -14q-59 0 -80.5 19.5t-21.5 54.5q0 14 4.5 39t13.5 47q17 38 48 55.5t85 17.5q57 0 80 -19.5t23 -57.5z" />
    <glyph glyph-name="Aring" unicode="&#xc5;" horiz-adv-x="1286" 
d="M-66 0l744 1384h299l166 -1384h-232l-37 319h-528l-174 -319h-238zM453 528h399l-70 623zM1087 1727q0 -42 -14.5 -83.5t-44 -75t-73.5 -54.5t-103 -21q-48 0 -80.5 13t-53 35.5t-29.5 54t-9 69.5q0 42 15.5 83t45 73.5t73 52.5t99.5 20q87 0 130.5 -45t43.5 -122z
M864 1595q53 0 85 35t32 90q0 34 -20 53t-60 19q-27 0 -48.5 -10.5t-36 -27.5t-22.5 -39.5t-8 -47.5q0 -34 17.5 -53t60.5 -19z" />
    <glyph glyph-name="AE" unicode="&#xc6;" horiz-adv-x="1743" 
d="M719 0l78 371h-412l-217 -371h-244l821 1384h1070l-46 -208h-573l-74 -351h488l-45 -209h-488l-86 -403h574l-43 -213h-803zM969 1176h-119l-342 -596h334z" />
    <glyph glyph-name="Ccedilla" unicode="&#xc7;" horiz-adv-x="1282" 
d="M815 -184q0 -53 -21.5 -93t-61 -66t-96.5 -39t-128 -13q-45 0 -82.5 5.5t-68 13.5t-52.5 16.5t-35 15.5l82 117q37 -19 83.5 -29t86.5 -10q25 0 48.5 3.5t42.5 12.5t30.5 23.5t11.5 36.5q0 30 -36 52t-119 25l57 84q-230 10 -342.5 136t-112.5 370q0 63 8 136.5t26 151
t47.5 155.5t71.5 150t98.5 134.5t128.5 109t161 73t197 26.5q98 0 174.5 -19t134.5 -53.5t99.5 -84.5t70.5 -111l-203 -121q-21 48 -47.5 82t-62 56.5t-81 33t-104.5 10.5q-89 0 -159.5 -36t-123.5 -95t-90 -135t-60 -157t-33.5 -160t-10.5 -144q0 -78 19 -135t52.5 -94
t80.5 -54.5t104 -17.5q66 0 121 12.5t102.5 37t90 61.5t83.5 86l162 -144q-42 -50 -90 -93t-105.5 -76.5t-125.5 -55.5t-150 -31l-2 -4q57 -17 93 -54.5t36 -100.5z" />
    <glyph glyph-name="Egrave" unicode="&#xc8;" horiz-adv-x="1128" 
d="M51 0l293 1384h856l-45 -208h-627l-73 -351h532l-43 -209h-532l-88 -403h626l-43 -213h-856zM746 1544l-220 361h259l116 -361h-155z" />
    <glyph glyph-name="Eacute" unicode="&#xc9;" horiz-adv-x="1128" 
d="M51 0l293 1384h856l-45 -208h-627l-73 -351h532l-43 -209h-532l-88 -403h626l-43 -213h-856zM827 1544h-182l242 361h284z" />
    <glyph glyph-name="Ecircumflex" unicode="&#xca;" horiz-adv-x="1128" 
d="M51 0l293 1384h856l-45 -208h-627l-73 -351h532l-43 -209h-532l-88 -403h626l-43 -213h-856zM959 1544l-117 205l-207 -205h-182l303 361h223l150 -361h-170z" />
    <glyph glyph-name="Edieresis" unicode="&#xcb;" horiz-adv-x="1128" 
d="M51 0l293 1384h856l-45 -208h-627l-73 -351h532l-43 -209h-532l-88 -403h626l-43 -213h-856zM723 1684q0 -20 -5.5 -46t-16.5 -45q-19 -37 -49.5 -51t-81.5 -14q-59 0 -80 19.5t-21 54.5q0 14 4.5 39t14.5 47q15 38 46 55.5t85 17.5q57 0 80.5 -19.5t23.5 -57.5z
M1129 1684q0 -20 -5.5 -46t-15.5 -45q-20 -37 -50.5 -51t-80.5 -14q-59 0 -80.5 19.5t-21.5 54.5q0 14 4.5 39t13.5 47q17 38 48 55.5t85 17.5q57 0 80 -19.5t23 -57.5z" />
    <glyph glyph-name="Igrave" unicode="&#xcc;" horiz-adv-x="803" 
d="M592 0h-602l39 188h186l215 1008h-186l39 188h602l-39 -188h-187l-215 -1008h187zM563 1544l-220 361h259l116 -361h-155z" />
    <glyph glyph-name="Iacute" unicode="&#xcd;" horiz-adv-x="803" 
d="M592 0h-602l39 188h186l215 1008h-186l39 188h602l-39 -188h-187l-215 -1008h187zM660 1544h-182l242 361h284z" />
    <glyph glyph-name="Icircumflex" unicode="&#xce;" horiz-adv-x="803" 
d="M592 0h-602l39 188h186l215 1008h-186l39 188h602l-39 -188h-187l-215 -1008h187zM786 1544l-117 205l-207 -205h-182l303 361h223l150 -361h-170z" />
    <glyph glyph-name="Idieresis" unicode="&#xcf;" horiz-adv-x="803" 
d="M592 0h-602l39 188h186l215 1008h-186l39 188h602l-39 -188h-187l-215 -1008h187zM560 1684q0 -20 -5.5 -46t-16.5 -45q-19 -37 -49.5 -51t-81.5 -14q-59 0 -80 19.5t-21 54.5q0 14 4.5 39t14.5 47q15 38 46 55.5t85 17.5q57 0 80.5 -19.5t23.5 -57.5zM966 1684
q0 -20 -5.5 -46t-15.5 -45q-20 -37 -50.5 -51t-80.5 -14q-59 0 -80.5 19.5t-21.5 54.5q0 14 4.5 39t13.5 47q17 38 48 55.5t85 17.5q57 0 80 -19.5t23 -57.5z" />
    <glyph glyph-name="Eth" unicode="&#xd0;" horiz-adv-x="1276" 
d="M1243 924q0 -52 -6 -115t-18.5 -131t-33 -138.5t-49 -136.5t-66 -125t-85.5 -104q-51 -48 -113 -81.5t-132.5 -54t-149 -29.5t-162.5 -9h-389l127 602h-127l37 184h129l127 598h368q135 0 236.5 -23t169.5 -76.5t102.5 -142t34.5 -218.5zM440 213q65 0 120.5 5.5
t102.5 18t85 33.5t69 52q42 42 76 112t58 151.5t37 166.5t13 157q0 75 -18 125t-58 80.5t-104 43.5t-157 13h-148l-82 -385h309l-38 -184h-310l-82 -389h127z" />
    <glyph glyph-name="Ntilde" unicode="&#xd1;" horiz-adv-x="1370" 
d="M840 0l-336 1087l-230 -1087h-223l293 1384h297l311 -1011l215 1011h224l-293 -1384h-258zM496 1561q17 66 43 119.5t61 92t80.5 59t101.5 20.5q62 0 101 -22t67.5 -49t52.5 -49t56 -22q46 0 73.5 35.5t43.5 91.5h147q-16 -66 -41 -119.5t-60 -92t-82 -59t-108 -20.5
q-46 0 -79 10.5t-56.5 26.5t-40.5 35t-32.5 35t-31 26.5t-36.5 10.5q-42 0 -69 -34.5t-44 -94.5h-147z" />
    <glyph glyph-name="Ograve" unicode="&#xd2;" horiz-adv-x="1337" 
d="M588 -29q-135 0 -228 36.5t-150.5 101.5t-82.5 156t-25 200q0 54 5.5 115t18 124t31.5 127.5t46 126.5q40 96 94.5 179t129.5 144.5t172.5 96.5t225.5 35q114 0 203.5 -32t151 -95t93.5 -157.5t32 -219.5q0 -36 -3.5 -80.5t-11.5 -94.5t-20.5 -104.5t-30.5 -109.5
q-38 -121 -94 -222t-135 -173.5t-183.5 -113t-238.5 -40.5zM342 475q0 -81 14.5 -138t46 -92t79.5 -51t116 -16q151 0 249.5 99t158.5 288q29 90 43 180t14 158q0 157 -61 230t-197 73q-71 0 -127.5 -21t-102 -61.5t-82 -98.5t-67.5 -132q-21 -53 -37 -108.5t-26.5 -110
t-15.5 -105.5t-5 -94zM871 1544l-220 361h259l116 -361h-155z" />
    <glyph glyph-name="Oacute" unicode="&#xd3;" horiz-adv-x="1337" 
d="M588 -29q-135 0 -228 36.5t-150.5 101.5t-82.5 156t-25 200q0 54 5.5 115t18 124t31.5 127.5t46 126.5q40 96 94.5 179t129.5 144.5t172.5 96.5t225.5 35q114 0 203.5 -32t151 -95t93.5 -157.5t32 -219.5q0 -36 -3.5 -80.5t-11.5 -94.5t-20.5 -104.5t-30.5 -109.5
q-38 -121 -94 -222t-135 -173.5t-183.5 -113t-238.5 -40.5zM342 475q0 -81 14.5 -138t46 -92t79.5 -51t116 -16q151 0 249.5 99t158.5 288q29 90 43 180t14 158q0 157 -61 230t-197 73q-71 0 -127.5 -21t-102 -61.5t-82 -98.5t-67.5 -132q-21 -53 -37 -108.5t-26.5 -110
t-15.5 -105.5t-5 -94zM889 1544h-182l242 361h284z" />
    <glyph glyph-name="Ocircumflex" unicode="&#xd4;" horiz-adv-x="1337" 
d="M588 -29q-135 0 -228 36.5t-150.5 101.5t-82.5 156t-25 200q0 54 5.5 115t18 124t31.5 127.5t46 126.5q40 96 94.5 179t129.5 144.5t172.5 96.5t225.5 35q114 0 203.5 -32t151 -95t93.5 -157.5t32 -219.5q0 -36 -3.5 -80.5t-11.5 -94.5t-20.5 -104.5t-30.5 -109.5
q-38 -121 -94 -222t-135 -173.5t-183.5 -113t-238.5 -40.5zM342 475q0 -81 14.5 -138t46 -92t79.5 -51t116 -16q151 0 249.5 99t158.5 288q29 90 43 180t14 158q0 157 -61 230t-197 73q-71 0 -127.5 -21t-102 -61.5t-82 -98.5t-67.5 -132q-21 -53 -37 -108.5t-26.5 -110
t-15.5 -105.5t-5 -94zM1029 1544l-117 205l-207 -205h-182l303 361h223l150 -361h-170z" />
    <glyph glyph-name="Otilde" unicode="&#xd5;" horiz-adv-x="1337" 
d="M588 -29q-135 0 -228 36.5t-150.5 101.5t-82.5 156t-25 200q0 54 5.5 115t18 124t31.5 127.5t46 126.5q40 96 94.5 179t129.5 144.5t172.5 96.5t225.5 35q114 0 203.5 -32t151 -95t93.5 -157.5t32 -219.5q0 -36 -3.5 -80.5t-11.5 -94.5t-20.5 -104.5t-30.5 -109.5
q-38 -121 -94 -222t-135 -173.5t-183.5 -113t-238.5 -40.5zM342 475q0 -81 14.5 -138t46 -92t79.5 -51t116 -16q151 0 249.5 99t158.5 288q29 90 43 180t14 158q0 157 -61 230t-197 73q-71 0 -127.5 -21t-102 -61.5t-82 -98.5t-67.5 -132q-21 -53 -37 -108.5t-26.5 -110
t-15.5 -105.5t-5 -94zM484 1561q17 66 43 119.5t61 92t80.5 59t101.5 20.5q62 0 101 -22t67.5 -49t52.5 -49t56 -22q46 0 73.5 35.5t43.5 91.5h147q-16 -66 -41 -119.5t-60 -92t-82 -59t-108 -20.5q-46 0 -79 10.5t-56.5 26.5t-40.5 35t-32.5 35t-31 26.5t-36.5 10.5
q-42 0 -69 -34.5t-44 -94.5h-147z" />
    <glyph glyph-name="Odieresis" unicode="&#xd6;" horiz-adv-x="1337" 
d="M588 -29q-135 0 -228 36.5t-150.5 101.5t-82.5 156t-25 200q0 54 5.5 115t18 124t31.5 127.5t46 126.5q40 96 94.5 179t129.5 144.5t172.5 96.5t225.5 35q114 0 203.5 -32t151 -95t93.5 -157.5t32 -219.5q0 -36 -3.5 -80.5t-11.5 -94.5t-20.5 -104.5t-30.5 -109.5
q-38 -121 -94 -222t-135 -173.5t-183.5 -113t-238.5 -40.5zM342 475q0 -81 14.5 -138t46 -92t79.5 -51t116 -16q151 0 249.5 99t158.5 288q29 90 43 180t14 158q0 157 -61 230t-197 73q-71 0 -127.5 -21t-102 -61.5t-82 -98.5t-67.5 -132q-21 -53 -37 -108.5t-26.5 -110
t-15.5 -105.5t-5 -94zM807 1684q0 -20 -5.5 -46t-16.5 -45q-19 -37 -49.5 -51t-81.5 -14q-59 0 -80 19.5t-21 54.5q0 14 4.5 39t14.5 47q15 38 46 55.5t85 17.5q57 0 80.5 -19.5t23.5 -57.5zM1213 1684q0 -20 -5.5 -46t-15.5 -45q-20 -37 -50.5 -51t-80.5 -14
q-59 0 -80.5 19.5t-21.5 54.5q0 14 4.5 39t13.5 47q17 38 48 55.5t85 17.5q57 0 80 -19.5t23 -57.5z" />
    <glyph glyph-name="multiply" unicode="&#xd7;" horiz-adv-x="1427" 
d="M1161 39l-424 422l-422 -422l-122 123l421 422l-421 422l122 122l422 -421l424 421l123 -122l-422 -422l422 -422z" />
    <glyph glyph-name="Oslash" unicode="&#xd8;" horiz-adv-x="1337" 
d="M-88 -115l252 289q-34 59 -48 132.5t-14 158.5q0 90 16 195t51 210.5t91 203.5t136.5 173.5t186.5 120.5t242 45q210 0 328 -104l156 180h190l-254 -293q29 -57 44.5 -128.5t15.5 -158.5q0 -53 -7.5 -121.5t-24.5 -144.5t-45 -155.5t-68.5 -154t-95 -140.5t-124.5 -115.5
t-157.5 -78t-194.5 -28.5q-112 0 -192.5 23t-137.5 69l-156 -178h-190zM602 178q87 0 155 36t119 95.5t87 136t58 157t32 158.5t10 142q0 22 -1 41.5t-3 38.5l-647 -743q31 -32 78 -47t112 -15zM342 475q0 -23 1.5 -46.5t6.5 -43.5l649 748q-61 73 -194 73q-87 0 -155.5 -36
t-120 -96t-87 -137t-58 -158t-32.5 -160.5t-10 -143.5z" />
    <glyph glyph-name="Ugrave" unicode="&#xd9;" horiz-adv-x="1393" 
d="M1239 563q-37 -174 -91.5 -288.5t-131.5 -182.5t-180.5 -95.5t-237.5 -27.5q-232 0 -341.5 97t-109.5 292q0 47 8 108.5t23 133.5l166 784h229l-165 -786q-14 -62 -21.5 -119t-7.5 -112q0 -102 58.5 -146.5t176.5 -44.5q84 0 147 19t111 67t82.5 130.5t61.5 209.5
l168 782h227zM854 1544l-220 361h259l116 -361h-155z" />
    <glyph glyph-name="Uacute" unicode="&#xda;" horiz-adv-x="1393" 
d="M1239 563q-37 -174 -91.5 -288.5t-131.5 -182.5t-180.5 -95.5t-237.5 -27.5q-232 0 -341.5 97t-109.5 292q0 47 8 108.5t23 133.5l166 784h229l-165 -786q-14 -62 -21.5 -119t-7.5 -112q0 -102 58.5 -146.5t176.5 -44.5q84 0 147 19t111 67t82.5 130.5t61.5 209.5
l168 782h227zM930 1544h-182l242 361h284z" />
    <glyph glyph-name="Ucircumflex" unicode="&#xdb;" horiz-adv-x="1393" 
d="M1239 563q-37 -174 -91.5 -288.5t-131.5 -182.5t-180.5 -95.5t-237.5 -27.5q-232 0 -341.5 97t-109.5 292q0 47 8 108.5t23 133.5l166 784h229l-165 -786q-14 -62 -21.5 -119t-7.5 -112q0 -102 58.5 -146.5t176.5 -44.5q84 0 147 19t111 67t82.5 130.5t61.5 209.5
l168 782h227zM1067 1544l-117 205l-207 -205h-182l303 361h223l150 -361h-170z" />
    <glyph glyph-name="Udieresis" unicode="&#xdc;" horiz-adv-x="1393" 
d="M1239 563q-37 -174 -91.5 -288.5t-131.5 -182.5t-180.5 -95.5t-237.5 -27.5q-232 0 -341.5 97t-109.5 292q0 47 8 108.5t23 133.5l166 784h229l-165 -786q-14 -62 -21.5 -119t-7.5 -112q0 -102 58.5 -146.5t176.5 -44.5q84 0 147 19t111 67t82.5 130.5t61.5 209.5
l168 782h227zM846 1684q0 -20 -5.5 -46t-16.5 -45q-19 -37 -49.5 -51t-81.5 -14q-59 0 -80 19.5t-21 54.5q0 14 4.5 39t14.5 47q15 38 46 55.5t85 17.5q57 0 80.5 -19.5t23.5 -57.5zM1252 1684q0 -20 -5.5 -46t-15.5 -45q-20 -37 -50.5 -51t-80.5 -14q-59 0 -80.5 19.5
t-21.5 54.5q0 14 4.5 39t13.5 47q17 38 48 55.5t85 17.5q57 0 80 -19.5t23 -57.5z" />
    <glyph glyph-name="Yacute" unicode="&#xdd;" horiz-adv-x="1143" 
d="M688 530l-113 -530h-231l111 524l-244 860h238l159 -632l428 632h260zM805 1544h-182l242 361h284z" />
    <glyph glyph-name="Thorn" unicode="&#xde;" horiz-adv-x="1186" 
d="M1159 844q0 -73 -12 -146.5t-39 -140.5t-70.5 -125t-106.5 -100.5t-147 -67t-192 -24.5h-262l-49 -240h-230l293 1384h229l-45 -208h230q96 0 170.5 -17.5t126 -56.5t78 -102.5t26.5 -155.5zM590 446q97 0 160 31t99 83t50 118t14 137q0 39 -10.5 68t-34 48t-62 28.5
t-95.5 9.5h-226l-110 -523h215z" />
    <glyph glyph-name="germandbls" unicode="&#xdf;" horiz-adv-x="1169" 
d="M43 0l225 1057q23 110 62.5 196t99 145.5t141 90.5t189.5 31q99 0 169 -21t115 -60t65.5 -94.5t20.5 -125.5q0 -119 -75 -210.5t-215 -136.5q114 -20 171.5 -96.5t57.5 -191.5q0 -84 -21.5 -173.5t-58.5 -170.5q-32 -67 -72 -118t-93 -85t-120.5 -51t-152.5 -17
q-21 0 -45.5 2.5t-49 7t-46.5 10t-39 11.5l41 195q29 -14 68.5 -25.5t88.5 -11.5q75 0 125.5 37.5t87.5 117.5q13 28 24.5 61t19.5 67.5t13 68.5t5 65q0 55 -19 90.5t-56.5 56t-92.5 28.5t-127 8l41 186q63 0 121 14t102.5 45t71 79.5t26.5 117.5q0 66 -41.5 99.5
t-121.5 33.5q-59 0 -102.5 -17.5t-76.5 -54.5t-56 -93t-40 -134l-219 -1034h-211z" />
    <glyph glyph-name="agrave" unicode="&#xe0;" horiz-adv-x="1171" 
d="M78 342q0 74 14.5 157.5t44 165.5t74 157t105 132t136.5 91t169 34q94 0 162 -29t116 -83l19 82h208l-219 -1049h-190l16 127q-45 -38 -86 -67t-82 -49.5t-83.5 -31t-90.5 -10.5q-158 0 -235.5 91.5t-77.5 281.5zM862 784q-42 47 -97.5 76t-129.5 29q-57 0 -104 -25
t-84 -66.5t-64.5 -95.5t-45.5 -113t-27 -119t-9 -112q0 -105 36 -151.5t114 -46.5q42 0 83.5 12t81.5 32t76 45.5t68 51.5zM622 1208l-220 361h259l116 -361h-155z" />
    <glyph glyph-name="aacute" unicode="&#xe1;" horiz-adv-x="1171" 
d="M78 342q0 74 14.5 157.5t44 165.5t74 157t105 132t136.5 91t169 34q94 0 162 -29t116 -83l19 82h208l-219 -1049h-190l16 127q-45 -38 -86 -67t-82 -49.5t-83.5 -31t-90.5 -10.5q-158 0 -235.5 91.5t-77.5 281.5zM862 784q-42 47 -97.5 76t-129.5 29q-57 0 -104 -25
t-84 -66.5t-64.5 -95.5t-45.5 -113t-27 -119t-9 -112q0 -105 36 -151.5t114 -46.5q42 0 83.5 12t81.5 32t76 45.5t68 51.5zM718 1208h-182l242 361h284z" />
    <glyph glyph-name="acircumflex" unicode="&#xe2;" horiz-adv-x="1171" 
d="M78 342q0 74 14.5 157.5t44 165.5t74 157t105 132t136.5 91t169 34q94 0 162 -29t116 -83l19 82h208l-219 -1049h-190l16 127q-45 -38 -86 -67t-82 -49.5t-83.5 -31t-90.5 -10.5q-158 0 -235.5 91.5t-77.5 281.5zM862 784q-42 47 -97.5 76t-129.5 29q-57 0 -104 -25
t-84 -66.5t-64.5 -95.5t-45.5 -113t-27 -119t-9 -112q0 -105 36 -151.5t114 -46.5q42 0 83.5 12t81.5 32t76 45.5t68 51.5zM850 1208l-117 205l-207 -205h-182l303 361h223l150 -361h-170z" />
    <glyph glyph-name="atilde" unicode="&#xe3;" horiz-adv-x="1171" 
d="M78 342q0 74 14.5 157.5t44 165.5t74 157t105 132t136.5 91t169 34q94 0 162 -29t116 -83l19 82h208l-219 -1049h-190l16 127q-45 -38 -86 -67t-82 -49.5t-83.5 -31t-90.5 -10.5q-158 0 -235.5 91.5t-77.5 281.5zM862 784q-42 47 -97.5 76t-129.5 29q-57 0 -104 -25
t-84 -66.5t-64.5 -95.5t-45.5 -113t-27 -119t-9 -112q0 -105 36 -151.5t114 -46.5q42 0 83.5 12t81.5 32t76 45.5t68 51.5zM305 1225q17 66 43 119.5t61 92t80.5 59t101.5 20.5q62 0 101 -22t67.5 -49t52.5 -49t56 -22q46 0 73.5 35.5t43.5 91.5h147q-16 -66 -41 -119.5
t-60 -92t-82 -59t-108 -20.5q-46 0 -79 10.5t-56.5 26.5t-40.5 35t-32.5 35t-31 26.5t-36.5 10.5q-42 0 -69 -34.5t-44 -94.5h-147z" />
    <glyph glyph-name="adieresis" unicode="&#xe4;" horiz-adv-x="1171" 
d="M78 342q0 74 14.5 157.5t44 165.5t74 157t105 132t136.5 91t169 34q94 0 162 -29t116 -83l19 82h208l-219 -1049h-190l16 127q-45 -38 -86 -67t-82 -49.5t-83.5 -31t-90.5 -10.5q-158 0 -235.5 91.5t-77.5 281.5zM862 784q-42 47 -97.5 76t-129.5 29q-57 0 -104 -25
t-84 -66.5t-64.5 -95.5t-45.5 -113t-27 -119t-9 -112q0 -105 36 -151.5t114 -46.5q42 0 83.5 12t81.5 32t76 45.5t68 51.5zM622 1348q0 -20 -5.5 -46t-16.5 -45q-19 -37 -49.5 -51t-81.5 -14q-59 0 -80 19.5t-21 54.5q0 14 4.5 39t14.5 47q15 38 46 55.5t85 17.5
q57 0 80.5 -19.5t23.5 -57.5zM1028 1348q0 -20 -5.5 -46t-15.5 -45q-20 -37 -50.5 -51t-80.5 -14q-59 0 -80.5 19.5t-21.5 54.5q0 14 4.5 39t13.5 47q17 38 48 55.5t85 17.5q57 0 80 -19.5t23 -57.5z" />
    <glyph glyph-name="aring" unicode="&#xe5;" horiz-adv-x="1171" 
d="M78 342q0 74 14.5 157.5t44 165.5t74 157t105 132t136.5 91t169 34q94 0 162 -29t116 -83l19 82h208l-219 -1049h-190l16 127q-45 -38 -86 -67t-82 -49.5t-83.5 -31t-90.5 -10.5q-158 0 -235.5 91.5t-77.5 281.5zM862 784q-42 47 -97.5 76t-129.5 29q-57 0 -104 -25
t-84 -66.5t-64.5 -95.5t-45.5 -113t-27 -119t-9 -112q0 -105 36 -151.5t114 -46.5q42 0 83.5 12t81.5 32t76 45.5t68 51.5zM909 1391q0 -42 -14.5 -83.5t-44 -75t-73.5 -54.5t-103 -21q-48 0 -80.5 13t-53 35.5t-29.5 54t-9 69.5q0 42 15.5 83t45 73.5t73 52.5t99.5 20
q87 0 130.5 -45t43.5 -122zM686 1259q53 0 85 35t32 90q0 34 -20 53t-60 19q-27 0 -48.5 -10.5t-36 -27.5t-22.5 -39.5t-8 -47.5q0 -34 17.5 -53t60.5 -19z" />
    <glyph glyph-name="ae" unicode="&#xe6;" horiz-adv-x="1720" 
d="M942 479q-8 -34 -11 -65.5t-3 -59.5q0 -54 12.5 -92t38.5 -61.5t64.5 -34t91.5 -10.5q80 0 144.5 30.5t121.5 87.5l125 -131q-39 -41 -81 -73.5t-92.5 -55t-111 -34t-135.5 -11.5q-137 0 -222.5 47t-125.5 134q-61 -45 -122 -78.5t-118 -56.5t-108 -34.5t-93 -11.5
q-145 0 -213.5 69t-68.5 206q0 93 39 165t106.5 122.5t157.5 80t192 37.5l242 23l8 49q6 30 6 55q0 35 -13 59t-37 38.5t-58.5 21t-77.5 6.5q-96 0 -162 -31.5t-104 -81.5l-146 109q30 39 69 72.5t90 57.5t115.5 38t145.5 14q148 0 230 -36t114 -105q60 66 140.5 103.5
t199.5 37.5q94 0 163 -24t114.5 -68.5t67.5 -108.5t22 -145q0 -11 -1 -27.5t-3 -36t-4.5 -39.5t-5.5 -36l-25 -115h-678zM721 338q0 34 5 78t17 94l-157 -14q-64 -6 -123 -20t-104 -40.5t-72 -69t-27 -106.5q0 -63 33.5 -88t89.5 -25q68 0 154.5 34t185.5 102q-2 14 -2 26.5
v28.5zM1442 637q5 26 7.5 50.5t2.5 45.5q0 85 -40.5 128.5t-135.5 43.5q-71 0 -122 -24t-89 -72q-26 -32 -48.5 -76.5t-39.5 -95.5h465z" />
    <glyph glyph-name="ccedilla" unicode="&#xe7;" horiz-adv-x="1024" 
d="M668 -184q0 -53 -21.5 -93t-61 -66t-96.5 -39t-129 -13q-44 0 -82 5.5t-68 13.5t-52 16.5t-35 15.5l82 117q37 -19 83.5 -29t86.5 -10q24 0 48 3.5t43 12.5t30.5 23.5t11.5 36.5q0 30 -36 52t-120 25l58 84q-89 8 -152 39t-103 82.5t-58.5 123.5t-18.5 161q0 63 13 139.5
t42 154.5t75 151.5t111 130.5t150.5 91.5t194.5 34.5q139 0 227.5 -47t136.5 -141l-182 -109q-26 56 -72 82.5t-125 26.5q-62 0 -112 -25t-89 -66t-67 -94.5t-46.5 -111.5t-27 -116t-8.5 -107t9.5 -89t32 -68t60.5 -43t95 -15q74 0 133.5 32t113.5 91l144 -123
q-63 -76 -149 -123.5t-195 -61.5q55 -17 90 -55t35 -100z" />
    <glyph glyph-name="egrave" unicode="&#xe8;" horiz-adv-x="1090" 
d="M311 479q-8 -34 -11 -65.5t-3 -59.5q0 -109 51 -153.5t156 -44.5q80 0 144.5 30.5t121.5 87.5l125 -131q-38 -41 -80 -73.5t-91.5 -55t-109 -34t-131.5 -11.5q-105 0 -181.5 27t-127 77t-74.5 121t-24 160q0 64 10 130.5t30.5 132.5t50.5 129t69 120q33 48 75.5 87.5
t95 67.5t116.5 43t139 15q93 0 162 -24t114.5 -68.5t67.5 -108.5t22 -145q0 -11 -1 -27.5t-3 -36t-4.5 -39.5t-5.5 -36l-25 -115h-678zM811 637q5 26 7.5 50.5t2.5 45.5q0 85 -40.5 128.5t-135.5 43.5q-71 0 -122 -24t-89 -72q-26 -32 -48.5 -76.5t-39.5 -95.5h465z
M686 1208l-220 361h259l116 -361h-155z" />
    <glyph glyph-name="eacute" unicode="&#xe9;" horiz-adv-x="1090" 
d="M311 479q-8 -34 -11 -65.5t-3 -59.5q0 -109 51 -153.5t156 -44.5q80 0 144.5 30.5t121.5 87.5l125 -131q-38 -41 -80 -73.5t-91.5 -55t-109 -34t-131.5 -11.5q-105 0 -181.5 27t-127 77t-74.5 121t-24 160q0 64 10 130.5t30.5 132.5t50.5 129t69 120q33 48 75.5 87.5
t95 67.5t116.5 43t139 15q93 0 162 -24t114.5 -68.5t67.5 -108.5t22 -145q0 -11 -1 -27.5t-3 -36t-4.5 -39.5t-5.5 -36l-25 -115h-678zM811 637q5 26 7.5 50.5t2.5 45.5q0 85 -40.5 128.5t-135.5 43.5q-71 0 -122 -24t-89 -72q-26 -32 -48.5 -76.5t-39.5 -95.5h465z
M699 1208h-182l242 361h284z" />
    <glyph glyph-name="ecircumflex" unicode="&#xea;" horiz-adv-x="1090" 
d="M311 479q-8 -34 -11 -65.5t-3 -59.5q0 -109 51 -153.5t156 -44.5q80 0 144.5 30.5t121.5 87.5l125 -131q-38 -41 -80 -73.5t-91.5 -55t-109 -34t-131.5 -11.5q-105 0 -181.5 27t-127 77t-74.5 121t-24 160q0 64 10 130.5t30.5 132.5t50.5 129t69 120q33 48 75.5 87.5
t95 67.5t116.5 43t139 15q93 0 162 -24t114.5 -68.5t67.5 -108.5t22 -145q0 -11 -1 -27.5t-3 -36t-4.5 -39.5t-5.5 -36l-25 -115h-678zM811 637q5 26 7.5 50.5t2.5 45.5q0 85 -40.5 128.5t-135.5 43.5q-71 0 -122 -24t-89 -72q-26 -32 -48.5 -76.5t-39.5 -95.5h465z
M850 1208l-117 205l-207 -205h-182l303 361h223l150 -361h-170z" />
    <glyph glyph-name="edieresis" unicode="&#xeb;" horiz-adv-x="1090" 
d="M311 479q-8 -34 -11 -65.5t-3 -59.5q0 -109 51 -153.5t156 -44.5q80 0 144.5 30.5t121.5 87.5l125 -131q-38 -41 -80 -73.5t-91.5 -55t-109 -34t-131.5 -11.5q-105 0 -181.5 27t-127 77t-74.5 121t-24 160q0 64 10 130.5t30.5 132.5t50.5 129t69 120q33 48 75.5 87.5
t95 67.5t116.5 43t139 15q93 0 162 -24t114.5 -68.5t67.5 -108.5t22 -145q0 -11 -1 -27.5t-3 -36t-4.5 -39.5t-5.5 -36l-25 -115h-678zM811 637q5 26 7.5 50.5t2.5 45.5q0 85 -40.5 128.5t-135.5 43.5q-71 0 -122 -24t-89 -72q-26 -32 -48.5 -76.5t-39.5 -95.5h465z
M635 1348q0 -20 -5.5 -46t-16.5 -45q-19 -37 -49.5 -51t-81.5 -14q-59 0 -80 19.5t-21 54.5q0 14 4.5 39t14.5 47q15 38 46 55.5t85 17.5q57 0 80.5 -19.5t23.5 -57.5zM1041 1348q0 -20 -5.5 -46t-15.5 -45q-20 -37 -50.5 -51t-80.5 -14q-59 0 -80.5 19.5t-21.5 54.5
q0 14 4.5 39t13.5 47q17 38 48 55.5t85 17.5q57 0 80 -19.5t23 -57.5z" />
    <glyph glyph-name="igrave" unicode="&#xec;" horiz-adv-x="520" 
d="M43 0l221 1049h211l-221 -1049h-211zM362 1208l-220 361h259l116 -361h-155z" />
    <glyph glyph-name="iacute" unicode="&#xed;" horiz-adv-x="520" 
d="M43 0l221 1049h211l-221 -1049h-211zM451 1208h-182l242 361h284z" />
    <glyph glyph-name="icircumflex" unicode="&#xee;" horiz-adv-x="520" 
d="M43 0l221 1049h211l-221 -1049h-211zM554 1208l-117 205l-207 -205h-182l303 361h223l150 -361h-170z" />
    <glyph glyph-name="idieresis" unicode="&#xef;" horiz-adv-x="520" 
d="M43 0l221 1049h211l-221 -1049h-211zM335 1348q0 -20 -5.5 -46t-16.5 -45q-19 -37 -49.5 -51t-81.5 -14q-59 0 -80 19.5t-21 54.5q0 14 4.5 39t14.5 47q15 38 46 55.5t85 17.5q57 0 80.5 -19.5t23.5 -57.5zM741 1348q0 -20 -5.5 -46t-15.5 -45q-20 -37 -50.5 -51
t-80.5 -14q-59 0 -80.5 19.5t-21.5 54.5q0 14 4.5 39t13.5 47q17 38 48 55.5t85 17.5q57 0 80 -19.5t23 -57.5z" />
    <glyph glyph-name="eth" unicode="&#xf0;" horiz-adv-x="1149" 
d="M831 977q-7 35 -20 75.5t-29 79.5t-34 73.5t-35 58.5l-217 -99l-45 113l194 88q-12 17 -29.5 38.5t-37 43.5t-39.5 41t-35 31h221q20 -16 42.5 -39t41.5 -43l178 80l47 -111l-147 -66q85 -114 135.5 -271t50.5 -353q0 -43 -4 -93.5t-14 -104.5t-27.5 -110.5t-44.5 -111.5
q-35 -72 -82 -132t-111 -103.5t-146.5 -68t-186.5 -24.5q-189 0 -283 102.5t-94 301.5q0 28 4 66.5t13 81.5t23 89t34 90q34 79 82.5 143.5t109.5 110t135 70.5t160 25q53 0 101.5 -17.5t88.5 -54.5zM301 369q0 -51 10 -90.5t33.5 -67t61 -41.5t92.5 -14q96 0 167 52.5
t113 143.5q31 66 49.5 143.5t18.5 157.5q0 47 -11.5 85.5t-35.5 66t-62 42.5t-92 15q-51 0 -94 -15.5t-79 -44t-64 -67.5t-48 -86q-27 -65 -43 -135t-16 -145z" />
    <glyph glyph-name="ntilde" unicode="&#xf1;" horiz-adv-x="1165" 
d="M698 0l127 598q11 56 18 101t7 92q0 46 -24.5 71t-73.5 25q-39 0 -82 -12.5t-87 -35t-88 -53t-87 -65.5l-154 -721h-211l221 1049h211l-31 -146q42 37 87 69t92 56t96 37.5t100 13.5q70 0 117.5 -19.5t76.5 -52.5t41.5 -77.5t12.5 -95.5q0 -42 -7 -93t-18 -102l-135 -639
h-209zM330 1225q17 66 43 119.5t61 92t80.5 59t101.5 20.5q62 0 101 -22t67.5 -49t52.5 -49t56 -22q46 0 73.5 35.5t43.5 91.5h147q-16 -66 -41 -119.5t-60 -92t-82 -59t-108 -20.5q-46 0 -79 10.5t-56.5 26.5t-40.5 35t-32.5 35t-31 26.5t-36.5 10.5q-42 0 -69 -34.5
t-44 -94.5h-147z" />
    <glyph glyph-name="ograve" unicode="&#xf2;" horiz-adv-x="1149" 
d="M80 379q0 54 10 122t32.5 139.5t59 142t90.5 128.5q71 77 168 122.5t232 45.5q93 0 166.5 -26t125 -78t78.5 -131t27 -185q0 -55 -11 -125t-36 -144t-65.5 -145.5t-98.5 -129.5q-37 -37 -77.5 -64.5t-86.5 -45.5t-99.5 -27t-115.5 -9q-109 0 -185 27.5t-123.5 80
t-69 128.5t-21.5 174zM299 373q0 -55 10.5 -95.5t34 -67.5t61.5 -40.5t93 -13.5q68 0 121.5 28t95.5 76q31 36 56.5 85t42.5 102.5t26.5 108t9.5 101.5q0 234 -201 234q-72 0 -128.5 -32.5t-98.5 -86.5q-29 -37 -51.5 -85t-38.5 -101.5t-24.5 -108t-8.5 -104.5zM670 1208
l-220 361h259l116 -361h-155z" />
    <glyph glyph-name="oacute" unicode="&#xf3;" horiz-adv-x="1149" 
d="M80 379q0 54 10 122t32.5 139.5t59 142t90.5 128.5q71 77 168 122.5t232 45.5q93 0 166.5 -26t125 -78t78.5 -131t27 -185q0 -55 -11 -125t-36 -144t-65.5 -145.5t-98.5 -129.5q-37 -37 -77.5 -64.5t-86.5 -45.5t-99.5 -27t-115.5 -9q-109 0 -185 27.5t-123.5 80
t-69 128.5t-21.5 174zM299 373q0 -55 10.5 -95.5t34 -67.5t61.5 -40.5t93 -13.5q68 0 121.5 28t95.5 76q31 36 56.5 85t42.5 102.5t26.5 108t9.5 101.5q0 234 -201 234q-72 0 -128.5 -32.5t-98.5 -86.5q-29 -37 -51.5 -85t-38.5 -101.5t-24.5 -108t-8.5 -104.5zM730 1208
h-182l242 361h284z" />
    <glyph glyph-name="ocircumflex" unicode="&#xf4;" horiz-adv-x="1149" 
d="M80 379q0 54 10 122t32.5 139.5t59 142t90.5 128.5q71 77 168 122.5t232 45.5q93 0 166.5 -26t125 -78t78.5 -131t27 -185q0 -55 -11 -125t-36 -144t-65.5 -145.5t-98.5 -129.5q-37 -37 -77.5 -64.5t-86.5 -45.5t-99.5 -27t-115.5 -9q-109 0 -185 27.5t-123.5 80
t-69 128.5t-21.5 174zM299 373q0 -55 10.5 -95.5t34 -67.5t61.5 -40.5t93 -13.5q68 0 121.5 28t95.5 76q31 36 56.5 85t42.5 102.5t26.5 108t9.5 101.5q0 234 -201 234q-72 0 -128.5 -32.5t-98.5 -86.5q-29 -37 -51.5 -85t-38.5 -101.5t-24.5 -108t-8.5 -104.5zM861 1208
l-117 205l-207 -205h-182l303 361h223l150 -361h-170z" />
    <glyph glyph-name="otilde" unicode="&#xf5;" horiz-adv-x="1149" 
d="M80 379q0 54 10 122t32.5 139.5t59 142t90.5 128.5q71 77 168 122.5t232 45.5q93 0 166.5 -26t125 -78t78.5 -131t27 -185q0 -55 -11 -125t-36 -144t-65.5 -145.5t-98.5 -129.5q-37 -37 -77.5 -64.5t-86.5 -45.5t-99.5 -27t-115.5 -9q-109 0 -185 27.5t-123.5 80
t-69 128.5t-21.5 174zM299 373q0 -55 10.5 -95.5t34 -67.5t61.5 -40.5t93 -13.5q68 0 121.5 28t95.5 76q31 36 56.5 85t42.5 102.5t26.5 108t9.5 101.5q0 234 -201 234q-72 0 -128.5 -32.5t-98.5 -86.5q-29 -37 -51.5 -85t-38.5 -101.5t-24.5 -108t-8.5 -104.5zM316 1225
q17 66 43 119.5t61 92t80.5 59t101.5 20.5q62 0 101 -22t67.5 -49t52.5 -49t56 -22q46 0 73.5 35.5t43.5 91.5h147q-16 -66 -41 -119.5t-60 -92t-82 -59t-108 -20.5q-46 0 -79 10.5t-56.5 26.5t-40.5 35t-32.5 35t-31 26.5t-36.5 10.5q-42 0 -69 -34.5t-44 -94.5h-147z" />
    <glyph glyph-name="odieresis" unicode="&#xf6;" horiz-adv-x="1149" 
d="M80 379q0 54 10 122t32.5 139.5t59 142t90.5 128.5q71 77 168 122.5t232 45.5q93 0 166.5 -26t125 -78t78.5 -131t27 -185q0 -55 -11 -125t-36 -144t-65.5 -145.5t-98.5 -129.5q-37 -37 -77.5 -64.5t-86.5 -45.5t-99.5 -27t-115.5 -9q-109 0 -185 27.5t-123.5 80
t-69 128.5t-21.5 174zM299 373q0 -55 10.5 -95.5t34 -67.5t61.5 -40.5t93 -13.5q68 0 121.5 28t95.5 76q31 36 56.5 85t42.5 102.5t26.5 108t9.5 101.5q0 234 -201 234q-72 0 -128.5 -32.5t-98.5 -86.5q-29 -37 -51.5 -85t-38.5 -101.5t-24.5 -108t-8.5 -104.5zM641 1348
q0 -20 -5.5 -46t-16.5 -45q-19 -37 -49.5 -51t-81.5 -14q-59 0 -80 19.5t-21 54.5q0 14 4.5 39t14.5 47q15 38 46 55.5t85 17.5q57 0 80.5 -19.5t23.5 -57.5zM1047 1348q0 -20 -5.5 -46t-15.5 -45q-20 -37 -50.5 -51t-80.5 -14q-59 0 -80.5 19.5t-21.5 54.5q0 14 4.5 39
t13.5 47q17 38 48 55.5t85 17.5q57 0 80 -19.5t23 -57.5z" />
    <glyph glyph-name="divide" unicode="&#xf7;" horiz-adv-x="1427" 
d="M623 930v215h213v-215h-213zM164 496v174h1130v-174h-1130zM623 23v215h213v-215h-213z" />
    <glyph glyph-name="oslash" unicode="&#xf8;" horiz-adv-x="1149" 
d="M-25 -76l166 193q-32 49 -46.5 114.5t-14.5 147.5q0 58 12 132.5t39.5 152.5t72.5 152.5t110.5 133t154 94t203.5 35.5q148 0 243 -65l97 110h170l-176 -204q31 -51 47 -117t16 -150q0 -55 -12 -127t-39 -148t-71.5 -149.5t-109.5 -131t-152.5 -93t-201.5 -35.5
q-80 0 -141 15t-106 43l-91 -103h-170zM850 657q0 41 -6 74l-471 -545q42 -30 125 -30q59 0 108 23t88.5 62t68.5 90.5t48.5 107t29 112t9.5 106.5zM299 373q0 -19 1 -35.5t3 -32.5l473 547q-44 39 -123 39q-61 0 -111 -23.5t-89.5 -63t-68.5 -92t-48 -110t-28 -116.5
t-9 -113z" />
    <glyph glyph-name="ugrave" unicode="&#xf9;" horiz-adv-x="1165" 
d="M467 1049l-125 -598q-12 -56 -19.5 -101t-7.5 -80q0 -60 24.5 -84t74.5 -24q39 0 81.5 12.5t86.5 34.5t88.5 52.5t87.5 66.5l153 721h211l-221 -1049h-211l31 145q-42 -38 -87 -70t-91.5 -55.5t-94.5 -37t-96 -13.5q-72 0 -120.5 19.5t-78.5 52.5t-42.5 77.5t-12.5 94.5
q0 42 7 93t18 102l135 641h209zM661 1208l-220 361h259l116 -361h-155z" />
    <glyph glyph-name="uacute" unicode="&#xfa;" horiz-adv-x="1165" 
d="M467 1049l-125 -598q-12 -56 -19.5 -101t-7.5 -80q0 -60 24.5 -84t74.5 -24q39 0 81.5 12.5t86.5 34.5t88.5 52.5t87.5 66.5l153 721h211l-221 -1049h-211l31 145q-42 -38 -87 -70t-91.5 -55.5t-94.5 -37t-96 -13.5q-72 0 -120.5 19.5t-78.5 52.5t-42.5 77.5t-12.5 94.5
q0 42 7 93t18 102l135 641h209zM758 1208h-182l242 361h284z" />
    <glyph glyph-name="ucircumflex" unicode="&#xfb;" horiz-adv-x="1165" 
d="M467 1049l-125 -598q-12 -56 -19.5 -101t-7.5 -80q0 -60 24.5 -84t74.5 -24q39 0 81.5 12.5t86.5 34.5t88.5 52.5t87.5 66.5l153 721h211l-221 -1049h-211l31 145q-42 -38 -87 -70t-91.5 -55.5t-94.5 -37t-96 -13.5q-72 0 -120.5 19.5t-78.5 52.5t-42.5 77.5t-12.5 94.5
q0 42 7 93t18 102l135 641h209zM863 1208l-117 205l-207 -205h-182l303 361h223l150 -361h-170z" />
    <glyph glyph-name="udieresis" unicode="&#xfc;" horiz-adv-x="1165" 
d="M467 1049l-125 -598q-12 -56 -19.5 -101t-7.5 -80q0 -60 24.5 -84t74.5 -24q39 0 81.5 12.5t86.5 34.5t88.5 52.5t87.5 66.5l153 721h211l-221 -1049h-211l31 145q-42 -38 -87 -70t-91.5 -55.5t-94.5 -37t-96 -13.5q-72 0 -120.5 19.5t-78.5 52.5t-42.5 77.5t-12.5 94.5
q0 42 7 93t18 102l135 641h209zM659 1348q0 -20 -5.5 -46t-16.5 -45q-19 -37 -49.5 -51t-81.5 -14q-59 0 -80 19.5t-21 54.5q0 14 4.5 39t14.5 47q15 38 46 55.5t85 17.5q57 0 80.5 -19.5t23.5 -57.5zM1065 1348q0 -20 -5.5 -46t-15.5 -45q-20 -37 -50.5 -51t-80.5 -14
q-59 0 -80.5 19.5t-21.5 54.5q0 14 4.5 39t13.5 47q17 38 48 55.5t85 17.5q57 0 80 -19.5t23 -57.5z" />
    <glyph glyph-name="yacute" unicode="&#xfd;" horiz-adv-x="1040" 
d="M-119 -184q31 -14 65 -20.5t66 -6.5q33 0 63 11t60 35.5t62 65.5t69 101l45 76l-164 971h211l111 -730l418 730h229l-680 -1125q-51 -86 -98 -146.5t-97.5 -99t-110 -56t-136.5 -17.5q-47 0 -97 9.5t-92 23.5zM679 1208h-182l242 361h284z" />
    <glyph glyph-name="thorn" unicode="&#xfe;" horiz-adv-x="1171" 
d="M170 -395h-209l397 1884h211l-114 -539q75 58 151.5 93.5t165.5 35.5q164 0 244 -91.5t80 -282.5q0 -66 -13 -146t-40.5 -161.5t-71 -159t-105 -137t-142 -96t-181.5 -36.5q-88 0 -155.5 29.5t-115.5 83.5zM309 262q42 -45 97 -73.5t124 -28.5q57 0 104.5 24.5t85 66
t66 95.5t47 113t28 118t9.5 111q0 106 -37.5 153.5t-121.5 47.5q-39 0 -78 -9.5t-77 -26t-73 -38t-65 -45.5z" />
    <glyph glyph-name="ydieresis" unicode="&#xff;" horiz-adv-x="1040" 
d="M-119 -184q31 -14 65 -20.5t66 -6.5q33 0 63 11t60 35.5t62 65.5t69 101l45 76l-164 971h211l111 -730l418 730h229l-680 -1125q-51 -86 -98 -146.5t-97.5 -99t-110 -56t-136.5 -17.5q-47 0 -97 9.5t-92 23.5zM603 1348q0 -20 -5.5 -46t-16.5 -45q-19 -37 -49.5 -51
t-81.5 -14q-59 0 -80 19.5t-21 54.5q0 14 4.5 39t14.5 47q15 38 46 55.5t85 17.5q57 0 80.5 -19.5t23.5 -57.5zM1009 1348q0 -20 -5.5 -46t-15.5 -45q-20 -37 -50.5 -51t-80.5 -14q-59 0 -80.5 19.5t-21.5 54.5q0 14 4.5 39t13.5 47q17 38 48 55.5t85 17.5q57 0 80 -19.5
t23 -57.5z" />
    <glyph glyph-name="Amacron" unicode="&#x100;" horiz-adv-x="1286" 
d="M-66 0l744 1384h299l166 -1384h-232l-37 319h-528l-174 -319h-238zM453 528h399l-70 623zM544 1591l35 162h629l-35 -162h-629z" />
    <glyph glyph-name="amacron" unicode="&#x101;" horiz-adv-x="1171" 
d="M78 342q0 74 14.5 157.5t44 165.5t74 157t105 132t136.5 91t169 34q94 0 162 -29t116 -83l19 82h208l-219 -1049h-190l16 127q-45 -38 -86 -67t-82 -49.5t-83.5 -31t-90.5 -10.5q-158 0 -235.5 91.5t-77.5 281.5zM862 784q-42 47 -97.5 76t-129.5 29q-57 0 -104 -25
t-84 -66.5t-64.5 -95.5t-45.5 -113t-27 -119t-9 -112q0 -105 36 -151.5t114 -46.5q42 0 83.5 12t81.5 32t76 45.5t68 51.5zM385 1255l35 162h629l-35 -162h-629z" />
    <glyph glyph-name="Abreve" unicode="&#x102;" horiz-adv-x="1286" 
d="M-66 0l744 1384h299l166 -1384h-232l-37 319h-528l-174 -319h-238zM453 528h399l-70 623zM1231 1825q-13 -67 -42.5 -122.5t-76.5 -95.5t-113 -62.5t-153 -22.5q-78 0 -133.5 19t-91.5 51t-53 75.5t-17 91.5q0 17 1.5 33t4.5 33h156q2 -60 37.5 -89.5t115.5 -29.5
q45 0 79 8t58.5 23.5t41.5 37.5t28 50h158z" />
    <glyph glyph-name="abreve" unicode="&#x103;" horiz-adv-x="1171" 
d="M78 342q0 74 14.5 157.5t44 165.5t74 157t105 132t136.5 91t169 34q94 0 162 -29t116 -83l19 82h208l-219 -1049h-190l16 127q-45 -38 -86 -67t-82 -49.5t-83.5 -31t-90.5 -10.5q-158 0 -235.5 91.5t-77.5 281.5zM862 784q-42 47 -97.5 76t-129.5 29q-57 0 -104 -25
t-84 -66.5t-64.5 -95.5t-45.5 -113t-27 -119t-9 -112q0 -105 36 -151.5t114 -46.5q42 0 83.5 12t81.5 32t76 45.5t68 51.5zM1069 1489q-13 -67 -42.5 -122.5t-76.5 -95.5t-113 -62.5t-153 -22.5q-78 0 -133.5 19t-91.5 51t-53 75.5t-17 91.5q0 17 1.5 33t4.5 33h156
q2 -60 37.5 -89.5t115.5 -29.5q45 0 79 8t58.5 23.5t41.5 37.5t28 50h158z" />
    <glyph glyph-name="Aogonek" unicode="&#x104;" horiz-adv-x="1286" 
d="M1073 -332q-51 -31 -106.5 -47t-106.5 -16q-96 0 -142 39.5t-46 124.5q0 80 58.5 144.5t178.5 111.5l-35 294h-528l-174 -319h-238l744 1384h299l166 -1384q-84 -24 -139.5 -46t-88.5 -44.5t-46 -45.5t-13 -48q0 -23 14.5 -35t38.5 -12q25 0 56.5 7.5t62.5 24.5zM453 528
h399l-70 623z" />
    <glyph glyph-name="aogonek" unicode="&#x105;" horiz-adv-x="1171" 
d="M934 -332q-51 -31 -105.5 -47t-105.5 -16q-96 0 -142 39.5t-46 124.5q0 71 45.5 135t138.5 112l14 111q-45 -38 -86 -67t-82 -49.5t-83.5 -31t-90.5 -10.5q-158 0 -235.5 91.5t-77.5 281.5q0 74 14.5 157.5t44 165.5t74 157t105 132t136.5 91t169 34q94 0 162 -29
t116 -83l19 82h208l-219 -1049q-57 -19 -93.5 -42t-58 -47.5t-30 -49t-8.5 -45.5q0 -23 15 -35t38 -12q25 0 57 7.5t64 24.5zM862 784q-42 47 -97 76t-124 29q-59 0 -107 -25.5t-85.5 -67.5t-65.5 -97t-46 -114t-27 -118t-9 -109q0 -105 36 -151.5t114 -46.5q42 0 83.5 12
t81.5 32t76 45.5t68 51.5z" />
    <glyph glyph-name="Cacute" unicode="&#x106;" horiz-adv-x="1282" 
d="M1159 231q-48 -57 -104 -104.5t-124 -82t-151 -54t-186 -19.5q-249 0 -370.5 127t-121.5 379q0 55 7 120t21 134t36.5 139.5t54.5 137.5q40 83 97.5 156.5t134 129t172.5 87.5t215 32q98 0 174.5 -19t134.5 -53.5t99.5 -84.5t70.5 -111l-203 -121q-21 48 -47.5 82
t-62 56.5t-81 33t-104.5 10.5q-68 0 -125.5 -20.5t-104.5 -57t-84 -87t-63 -109.5q-25 -58 -44 -117.5t-31.5 -117.5t-18.5 -113.5t-6 -104.5q0 -78 19 -135t52.5 -94t80.5 -54.5t104 -17.5q66 0 121 12.5t102.5 37t90 61.5t83.5 86zM893 1544h-182l242 361h284z" />
    <glyph glyph-name="cacute" unicode="&#x107;" horiz-adv-x="1024" 
d="M887 156q-72 -85 -176 -136t-238 -51q-106 0 -181 27.5t-122.5 80t-69.5 128t-22 172.5q0 63 13 139.5t42 154.5t75 151.5t111 130.5t150.5 91.5t194.5 34.5q139 0 227.5 -47t136.5 -141l-182 -109q-26 56 -72 82.5t-125 26.5q-62 0 -112 -25t-89 -66t-67 -94.5
t-46.5 -111.5t-27 -116t-8.5 -107t9.5 -89t32 -68t60.5 -43t95 -15q74 0 133.5 32t113.5 91zM716 1208h-182l242 361h284z" />
    <glyph glyph-name="Ccircumflex" unicode="&#x108;" horiz-adv-x="1282" 
d="M1159 231q-48 -57 -104 -104.5t-124 -82t-151 -54t-186 -19.5q-249 0 -370.5 127t-121.5 379q0 55 7 120t21 134t36.5 139.5t54.5 137.5q40 83 97.5 156.5t134 129t172.5 87.5t215 32q98 0 174.5 -19t134.5 -53.5t99.5 -84.5t70.5 -111l-203 -121q-21 48 -47.5 82
t-62 56.5t-81 33t-104.5 10.5q-68 0 -125.5 -20.5t-104.5 -57t-84 -87t-63 -109.5q-25 -58 -44 -117.5t-31.5 -117.5t-18.5 -113.5t-6 -104.5q0 -78 19 -135t52.5 -94t80.5 -54.5t104 -17.5q66 0 121 12.5t102.5 37t90 61.5t83.5 86zM1051 1544l-117 205l-207 -205h-182
l303 361h223l150 -361h-170z" />
    <glyph glyph-name="ccircumflex" unicode="&#x109;" horiz-adv-x="1024" 
d="M887 156q-72 -85 -176 -136t-238 -51q-106 0 -181 27.5t-122.5 80t-69.5 128t-22 172.5q0 63 13 139.5t42 154.5t75 151.5t111 130.5t150.5 91.5t194.5 34.5q139 0 227.5 -47t136.5 -141l-182 -109q-26 56 -72 82.5t-125 26.5q-62 0 -112 -25t-89 -66t-67 -94.5
t-46.5 -111.5t-27 -116t-8.5 -107t9.5 -89t32 -68t60.5 -43t95 -15q74 0 133.5 32t113.5 91zM863 1208l-117 205l-207 -205h-182l303 361h223l150 -361h-170z" />
    <glyph glyph-name="Cdotaccent" unicode="&#x10a;" horiz-adv-x="1282" 
d="M1159 231q-48 -57 -104 -104.5t-124 -82t-151 -54t-186 -19.5q-249 0 -370.5 127t-121.5 379q0 55 7 120t21 134t36.5 139.5t54.5 137.5q40 83 97.5 156.5t134 129t172.5 87.5t215 32q98 0 174.5 -19t134.5 -53.5t99.5 -84.5t70.5 -111l-203 -121q-21 48 -47.5 82
t-62 56.5t-81 33t-104.5 10.5q-68 0 -125.5 -20.5t-104.5 -57t-84 -87t-63 -109.5q-25 -58 -44 -117.5t-31.5 -117.5t-18.5 -113.5t-6 -104.5q0 -78 19 -135t52.5 -94t80.5 -54.5t104 -17.5q66 0 121 12.5t102.5 37t90 61.5t83.5 86zM1034 1708q0 -22 -6.5 -51t-17.5 -49
q-22 -37 -55 -51.5t-82 -14.5q-59 0 -83 20.5t-24 55.5q0 23 5 48t16 46q18 38 50.5 57t86.5 19q60 0 85 -20t25 -60z" />
    <glyph glyph-name="cdotaccent" unicode="&#x10b;" horiz-adv-x="1024" 
d="M887 156q-72 -85 -176 -136t-238 -51q-106 0 -181 27.5t-122.5 80t-69.5 128t-22 172.5q0 63 13 139.5t42 154.5t75 151.5t111 130.5t150.5 91.5t194.5 34.5q139 0 227.5 -47t136.5 -141l-182 -109q-26 56 -72 82.5t-125 26.5q-62 0 -112 -25t-89 -66t-67 -94.5
t-46.5 -111.5t-27 -116t-8.5 -107t9.5 -89t32 -68t60.5 -43t95 -15q74 0 133.5 32t113.5 91zM847 1372q0 -22 -6.5 -51t-17.5 -49q-22 -37 -55 -51.5t-82 -14.5q-59 0 -83 20.5t-24 55.5q0 23 5 48t16 46q18 38 50.5 57t86.5 19q60 0 85 -20t25 -60z" />
    <glyph glyph-name="Ccaron" unicode="&#x10c;" horiz-adv-x="1282" 
d="M1159 231q-48 -57 -104 -104.5t-124 -82t-151 -54t-186 -19.5q-249 0 -370.5 127t-121.5 379q0 55 7 120t21 134t36.5 139.5t54.5 137.5q40 83 97.5 156.5t134 129t172.5 87.5t215 32q98 0 174.5 -19t134.5 -53.5t99.5 -84.5t70.5 -111l-203 -121q-21 48 -47.5 82
t-62 56.5t-81 33t-104.5 10.5q-68 0 -125.5 -20.5t-104.5 -57t-84 -87t-63 -109.5q-25 -58 -44 -117.5t-31.5 -117.5t-18.5 -113.5t-6 -104.5q0 -78 19 -135t52.5 -94t80.5 -54.5t104 -17.5q66 0 121 12.5t102.5 37t90 61.5t83.5 86zM782 1905l117 -207l209 207h182
l-305 -361h-223l-149 361h169z" />
    <glyph glyph-name="ccaron" unicode="&#x10d;" horiz-adv-x="1024" 
d="M887 156q-72 -85 -176 -136t-238 -51q-106 0 -181 27.5t-122.5 80t-69.5 128t-22 172.5q0 63 13 139.5t42 154.5t75 151.5t111 130.5t150.5 91.5t194.5 34.5q139 0 227.5 -47t136.5 -141l-182 -109q-26 56 -72 82.5t-125 26.5q-62 0 -112 -25t-89 -66t-67 -94.5
t-46.5 -111.5t-27 -116t-8.5 -107t9.5 -89t32 -68t60.5 -43t95 -15q74 0 133.5 32t113.5 91zM600 1569l117 -207l209 207h182l-305 -361h-223l-149 361h169z" />
    <glyph glyph-name="Dcaron" unicode="&#x10e;" horiz-adv-x="1276" 
d="M1243 924q0 -52 -6 -115t-18.5 -131t-33 -138.5t-49 -136.5t-66 -125t-85.5 -104q-51 -48 -113 -81.5t-132.5 -54t-149 -29.5t-162.5 -9h-389l293 1384h368q135 0 236.5 -23t169.5 -76.5t102.5 -142t34.5 -218.5zM440 213q65 0 120.5 5.5t102.5 18t85 33.5t69 52
q42 42 76 112t58 151.5t37 166.5t13 157q0 75 -18 125t-58 80.5t-104 43.5t-157 13h-148l-203 -958h127zM677 1905l117 -207l209 207h182l-305 -361h-223l-149 361h169z" />
    <glyph glyph-name="dcaron" unicode="&#x10f;" horiz-adv-x="1272" 
d="M76 342q0 66 11.5 138t34.5 144t56.5 140t77.5 127q69 91 164 139.5t217 48.5q81 0 147.5 -29t114.5 -83l111 522h211l-314 -1489h-200l20 102q-75 -58 -156.5 -95.5t-171.5 -37.5q-164 0 -243.5 91.5t-79.5 281.5zM420 760q-27 -39 -49 -86.5t-37.5 -100t-24 -107.5
t-8.5 -108q0 -105 37.5 -151.5t122.5 -46.5q38 0 77.5 9.5t77.5 26t73 38t65 45.5l108 505q-42 47 -97 76t-124 29q-59 0 -116 -30.5t-105 -98.5zM1372 1128h-150l127 361h248z" />
    <glyph glyph-name="Dcroat" unicode="&#x110;" horiz-adv-x="1276" 
d="M1243 924q0 -52 -6 -115t-18.5 -131t-33 -138.5t-49 -136.5t-66 -125t-85.5 -104q-51 -48 -113 -81.5t-132.5 -54t-149 -29.5t-162.5 -9h-389l127 602h-127l37 184h129l127 598h368q135 0 236.5 -23t169.5 -76.5t102.5 -142t34.5 -218.5zM440 213q65 0 120.5 5.5
t102.5 18t85 33.5t69 52q42 42 76 112t58 151.5t37 166.5t13 157q0 75 -18 125t-58 80.5t-104 43.5t-157 13h-148l-82 -385h309l-38 -184h-310l-82 -389h127z" />
    <glyph glyph-name="dcroat" unicode="&#x111;" horiz-adv-x="1171" 
d="M76 342q0 66 11.5 138t34.5 144t56.5 140t77.5 127q69 91 164 139.5t217 48.5q81 0 147.5 -29t114.5 -83l47 229h-282l34 162h285l27 131h211l-29 -131h135l-35 -162h-135l-250 -1196h-200l20 102q-75 -58 -156.5 -95.5t-171.5 -37.5q-164 0 -243.5 91.5t-79.5 281.5z
M420 760q-27 -39 -49 -86.5t-37.5 -100t-24 -107.5t-8.5 -108q0 -105 37.5 -151.5t122.5 -46.5q38 0 77.5 9.5t77.5 26t73 38t65 45.5l108 505q-42 47 -97 76t-124 29q-59 0 -116 -30.5t-105 -98.5z" />
    <glyph glyph-name="Emacron" unicode="&#x112;" horiz-adv-x="1128" 
d="M51 0l293 1384h856l-45 -208h-627l-73 -351h532l-43 -209h-532l-88 -403h626l-43 -213h-856zM493 1591l35 162h629l-35 -162h-629z" />
    <glyph glyph-name="emacron" unicode="&#x113;" horiz-adv-x="1090" 
d="M311 479q-8 -34 -11 -65.5t-3 -59.5q0 -109 51 -153.5t156 -44.5q80 0 144.5 30.5t121.5 87.5l125 -131q-38 -41 -80 -73.5t-91.5 -55t-109 -34t-131.5 -11.5q-105 0 -181.5 27t-127 77t-74.5 121t-24 160q0 64 10 130.5t30.5 132.5t50.5 129t69 120q33 48 75.5 87.5
t95 67.5t116.5 43t139 15q93 0 162 -24t114.5 -68.5t67.5 -108.5t22 -145q0 -11 -1 -27.5t-3 -36t-4.5 -39.5t-5.5 -36l-25 -115h-678zM811 637q5 26 7.5 50.5t2.5 45.5q0 85 -40.5 128.5t-135.5 43.5q-71 0 -122 -24t-89 -72q-26 -32 -48.5 -76.5t-39.5 -95.5h465z
M393 1255l35 162h629l-35 -162h-629z" />
    <glyph glyph-name="Ebreve" unicode="&#x114;" horiz-adv-x="1128" 
d="M51 0l293 1384h856l-45 -208h-627l-73 -351h532l-43 -209h-532l-88 -403h626l-43 -213h-856zM1163 1825q-13 -67 -42.5 -122.5t-76.5 -95.5t-113 -62.5t-153 -22.5q-78 0 -133.5 19t-91.5 51t-53 75.5t-17 91.5q0 17 1.5 33t4.5 33h156q2 -60 37.5 -89.5t115.5 -29.5
q45 0 79 8t58.5 23.5t41.5 37.5t28 50h158z" />
    <glyph glyph-name="ebreve" unicode="&#x115;" horiz-adv-x="1090" 
d="M311 479q-8 -34 -11 -65.5t-3 -59.5q0 -109 51 -153.5t156 -44.5q80 0 144.5 30.5t121.5 87.5l125 -131q-38 -41 -80 -73.5t-91.5 -55t-109 -34t-131.5 -11.5q-105 0 -181.5 27t-127 77t-74.5 121t-24 160q0 64 10 130.5t30.5 132.5t50.5 129t69 120q33 48 75.5 87.5
t95 67.5t116.5 43t139 15q93 0 162 -24t114.5 -68.5t67.5 -108.5t22 -145q0 -11 -1 -27.5t-3 -36t-4.5 -39.5t-5.5 -36l-25 -115h-678zM811 637q5 26 7.5 50.5t2.5 45.5q0 85 -40.5 128.5t-135.5 43.5q-71 0 -122 -24t-89 -72q-26 -32 -48.5 -76.5t-39.5 -95.5h465z
M1075 1489q-13 -67 -42.5 -122.5t-76.5 -95.5t-113 -62.5t-153 -22.5q-78 0 -133.5 19t-91.5 51t-53 75.5t-17 91.5q0 17 1.5 33t4.5 33h156q2 -60 37.5 -89.5t115.5 -29.5q45 0 79 8t58.5 23.5t41.5 37.5t28 50h158z" />
    <glyph glyph-name="Edotaccent" unicode="&#x116;" horiz-adv-x="1128" 
d="M51 0l293 1384h856l-45 -208h-627l-73 -351h532l-43 -209h-532l-88 -403h626l-43 -213h-856zM940 1708q0 -22 -6.5 -51t-17.5 -49q-22 -37 -55 -51.5t-82 -14.5q-59 0 -83 20.5t-24 55.5q0 23 5 48t16 46q18 38 50.5 57t86.5 19q60 0 85 -20t25 -60z" />
    <glyph glyph-name="edotaccent" unicode="&#x117;" horiz-adv-x="1090" 
d="M311 479q-8 -34 -11 -65.5t-3 -59.5q0 -109 51 -153.5t156 -44.5q80 0 144.5 30.5t121.5 87.5l125 -131q-38 -41 -80 -73.5t-91.5 -55t-109 -34t-131.5 -11.5q-105 0 -181.5 27t-127 77t-74.5 121t-24 160q0 64 10 130.5t30.5 132.5t50.5 129t69 120q33 48 75.5 87.5
t95 67.5t116.5 43t139 15q93 0 162 -24t114.5 -68.5t67.5 -108.5t22 -145q0 -11 -1 -27.5t-3 -36t-4.5 -39.5t-5.5 -36l-25 -115h-678zM811 637q5 26 7.5 50.5t2.5 45.5q0 85 -40.5 128.5t-135.5 43.5q-71 0 -122 -24t-89 -72q-26 -32 -48.5 -76.5t-39.5 -95.5h465z
M843 1372q0 -22 -6.5 -51t-17.5 -49q-22 -37 -55 -51.5t-82 -14.5q-59 0 -83 20.5t-24 55.5q0 23 5 48t16 46q18 38 50.5 57t86.5 19q60 0 85 -20t25 -60z" />
    <glyph glyph-name="Eogonek" unicode="&#x118;" horiz-adv-x="1128" 
d="M838 -332q-51 -31 -106.5 -47t-106.5 -16q-96 0 -142.5 39.5t-46.5 124.5q0 142 178 231h-563l293 1384h856l-45 -208h-627l-73 -351h532l-43 -209h-532l-88 -403h626l-43 -213q-84 -24 -139.5 -46t-88 -44.5t-45.5 -45.5t-13 -48q0 -23 14 -35t39 -12t56.5 7.5
t62.5 24.5z" />
    <glyph glyph-name="eogonek" unicode="&#x119;" horiz-adv-x="1090" 
d="M821 -332q-51 -31 -105.5 -47t-105.5 -16q-96 0 -142 39.5t-46 124.5q0 55 24 104t76 98q-9 -2 -19 -2h-20q-105 0 -181.5 27t-127 77t-74.5 121t-24 160q0 64 10 130.5t30.5 132.5t50.5 129t69 120q33 48 75.5 87.5t95 67.5t116.5 43t139 15q93 0 162 -24t114.5 -68.5
t67.5 -108.5t22 -145q0 -11 -1 -27.5t-3 -36t-4.5 -39.5t-5.5 -36l-25 -115h-678q-8 -34 -11 -65.5t-3 -59.5q0 -109 51 -153.5t156 -44.5q80 0 144.5 30.5t121.5 87.5l125 -131q-26 -29 -53 -52.5t-56 -43.5q-61 -41 -97 -73.5t-55 -60t-24.5 -50t-5.5 -43.5
q0 -26 16 -38.5t42 -12.5q21 0 52.5 7.5t63.5 24.5zM811 637q5 26 7.5 50.5t2.5 45.5q0 85 -40.5 128.5t-135.5 43.5q-71 0 -122 -24t-89 -72q-26 -32 -48.5 -76.5t-39.5 -95.5h465z" />
    <glyph glyph-name="Ecaron" unicode="&#x11a;" horiz-adv-x="1128" 
d="M51 0l293 1384h856l-45 -208h-627l-73 -351h532l-43 -209h-532l-88 -403h626l-43 -213h-856zM684 1905l117 -207l209 207h182l-305 -361h-223l-149 361h169z" />
    <glyph glyph-name="ecaron" unicode="&#x11b;" horiz-adv-x="1090" 
d="M311 479q-8 -34 -11 -65.5t-3 -59.5q0 -109 51 -153.5t156 -44.5q80 0 144.5 30.5t121.5 87.5l125 -131q-38 -41 -80 -73.5t-91.5 -55t-109 -34t-131.5 -11.5q-105 0 -181.5 27t-127 77t-74.5 121t-24 160q0 64 10 130.5t30.5 132.5t50.5 129t69 120q33 48 75.5 87.5
t95 67.5t116.5 43t139 15q93 0 162 -24t114.5 -68.5t67.5 -108.5t22 -145q0 -11 -1 -27.5t-3 -36t-4.5 -39.5t-5.5 -36l-25 -115h-678zM811 637q5 26 7.5 50.5t2.5 45.5q0 85 -40.5 128.5t-135.5 43.5q-71 0 -122 -24t-89 -72q-26 -32 -48.5 -76.5t-39.5 -95.5h465z
M581 1569l117 -207l209 207h182l-305 -361h-223l-149 361h169z" />
    <glyph glyph-name="Gcircumflex" unicode="&#x11c;" horiz-adv-x="1374" 
d="M1147 1024q-42 96 -114 139t-175 43q-87 0 -152.5 -25.5t-115.5 -70.5t-87 -106.5t-67 -133.5q-22 -54 -37.5 -109t-25.5 -106.5t-14.5 -98t-4.5 -83.5q0 -78 15.5 -134t51 -92t92.5 -52.5t140 -16.5q75 0 144 19t141 53l57 264h-297l43 209h527l-127 -604
q-118 -68 -241.5 -108t-266.5 -40q-131 0 -228.5 28t-162 88t-97 154t-32.5 226q0 106 23.5 228t74.5 241q42 96 99 182.5t136.5 152t185 104t242.5 38.5q181 0 297 -65t185 -197zM1080 1544l-117 205l-207 -205h-182l303 361h223l150 -361h-170z" />
    <glyph glyph-name="gcircumflex" unicode="&#x11d;" horiz-adv-x="1171" 
d="M907 6q-23 -107 -63 -183t-105.5 -124.5t-159 -71t-223.5 -22.5q-128 0 -227.5 25.5t-161.5 68.5l101 170q62 -37 135.5 -58.5t163.5 -21.5q78 0 134.5 12t96 40t64 74.5t38.5 115.5l21 94q-35 -27 -73.5 -50t-78 -39.5t-80 -26t-77.5 -9.5q-89 0 -152 25.5t-103 74.5
t-58.5 121t-18.5 166q0 79 16.5 161.5t48.5 159.5t80 144.5t111 118t140 79.5t169 29q35 0 72 -9t72 -25t66 -38.5t54 -50.5l37 93h180zM860 784q-45 51 -99.5 78t-123.5 27q-56 0 -102 -23.5t-83 -62.5t-64.5 -90t-46 -106.5t-27.5 -111t-9 -104.5q0 -107 35.5 -154
t124.5 -47q75 0 149 32t146 87zM867 1208l-117 205l-207 -205h-182l303 361h223l150 -361h-170z" />
    <glyph glyph-name="Gbreve" unicode="&#x11e;" horiz-adv-x="1374" 
d="M1147 1024q-42 96 -114 139t-175 43q-87 0 -152.5 -25.5t-115.5 -70.5t-87 -106.5t-67 -133.5q-22 -54 -37.5 -109t-25.5 -106.5t-14.5 -98t-4.5 -83.5q0 -78 15.5 -134t51 -92t92.5 -52.5t140 -16.5q75 0 144 19t141 53l57 264h-297l43 209h527l-127 -604
q-118 -68 -241.5 -108t-266.5 -40q-131 0 -228.5 28t-162 88t-97 154t-32.5 226q0 106 23.5 228t74.5 241q42 96 99 182.5t136.5 152t185 104t242.5 38.5q181 0 297 -65t185 -197zM1298 1825q-13 -67 -42.5 -122.5t-76.5 -95.5t-113 -62.5t-153 -22.5q-78 0 -133.5 19
t-91.5 51t-53 75.5t-17 91.5q0 17 1.5 33t4.5 33h156q2 -60 37.5 -89.5t115.5 -29.5q45 0 79 8t58.5 23.5t41.5 37.5t28 50h158z" />
    <glyph glyph-name="gbreve" unicode="&#x11f;" horiz-adv-x="1171" 
d="M907 6q-23 -107 -63 -183t-105.5 -124.5t-159 -71t-223.5 -22.5q-128 0 -227.5 25.5t-161.5 68.5l101 170q62 -37 135.5 -58.5t163.5 -21.5q78 0 134.5 12t96 40t64 74.5t38.5 115.5l21 94q-35 -27 -73.5 -50t-78 -39.5t-80 -26t-77.5 -9.5q-89 0 -152 25.5t-103 74.5
t-58.5 121t-18.5 166q0 79 16.5 161.5t48.5 159.5t80 144.5t111 118t140 79.5t169 29q35 0 72 -9t72 -25t66 -38.5t54 -50.5l37 93h180zM860 784q-45 51 -99.5 78t-123.5 27q-56 0 -102 -23.5t-83 -62.5t-64.5 -90t-46 -106.5t-27.5 -111t-9 -104.5q0 -107 35.5 -154
t124.5 -47q75 0 149 32t146 87zM1083 1489q-13 -67 -42.5 -122.5t-76.5 -95.5t-113 -62.5t-153 -22.5q-78 0 -133.5 19t-91.5 51t-53 75.5t-17 91.5q0 17 1.5 33t4.5 33h156q2 -60 37.5 -89.5t115.5 -29.5q45 0 79 8t58.5 23.5t41.5 37.5t28 50h158z" />
    <glyph glyph-name="Gdotaccent" unicode="&#x120;" horiz-adv-x="1374" 
d="M1147 1024q-42 96 -114 139t-175 43q-87 0 -152.5 -25.5t-115.5 -70.5t-87 -106.5t-67 -133.5q-22 -54 -37.5 -109t-25.5 -106.5t-14.5 -98t-4.5 -83.5q0 -78 15.5 -134t51 -92t92.5 -52.5t140 -16.5q75 0 144 19t141 53l57 264h-297l43 209h527l-127 -604
q-118 -68 -241.5 -108t-266.5 -40q-131 0 -228.5 28t-162 88t-97 154t-32.5 226q0 106 23.5 228t74.5 241q42 96 99 182.5t136.5 152t185 104t242.5 38.5q181 0 297 -65t185 -197zM1046 1708q0 -22 -6.5 -51t-17.5 -49q-22 -37 -55 -51.5t-82 -14.5q-59 0 -83 20.5t-24 55.5
q0 23 5 48t16 46q18 38 50.5 57t86.5 19q60 0 85 -20t25 -60z" />
    <glyph glyph-name="gdotaccent" unicode="&#x121;" horiz-adv-x="1171" 
d="M907 6q-23 -107 -63 -183t-105.5 -124.5t-159 -71t-223.5 -22.5q-128 0 -227.5 25.5t-161.5 68.5l101 170q62 -37 135.5 -58.5t163.5 -21.5q78 0 134.5 12t96 40t64 74.5t38.5 115.5l21 94q-35 -27 -73.5 -50t-78 -39.5t-80 -26t-77.5 -9.5q-89 0 -152 25.5t-103 74.5
t-58.5 121t-18.5 166q0 79 16.5 161.5t48.5 159.5t80 144.5t111 118t140 79.5t169 29q35 0 72 -9t72 -25t66 -38.5t54 -50.5l37 93h180zM860 784q-45 51 -99.5 78t-123.5 27q-56 0 -102 -23.5t-83 -62.5t-64.5 -90t-46 -106.5t-27.5 -111t-9 -104.5q0 -107 35.5 -154
t124.5 -47q75 0 149 32t146 87zM831 1372q0 -22 -6.5 -51t-17.5 -49q-22 -37 -55 -51.5t-82 -14.5q-59 0 -83 20.5t-24 55.5q0 23 5 48t16 46q18 38 50.5 57t86.5 19q60 0 85 -20t25 -60z" />
    <glyph glyph-name="Gcommaaccent" unicode="&#x122;" horiz-adv-x="1374" 
d="M1147 1024q-42 96 -114 139t-175 43q-87 0 -152.5 -25.5t-115.5 -70.5t-87 -106.5t-67 -133.5q-22 -54 -37.5 -109t-25.5 -106.5t-14.5 -98t-4.5 -83.5q0 -78 15.5 -134t51 -92t92.5 -52.5t140 -16.5q75 0 144 19t141 53l57 264h-297l43 209h527l-127 -604
q-118 -68 -241.5 -108t-266.5 -40q-131 0 -228.5 28t-162 88t-97 154t-32.5 226q0 106 23.5 228t74.5 241q42 96 99 182.5t136.5 152t185 104t242.5 38.5q181 0 297 -65t185 -197zM412 -537q46 47 74.5 88.5t42.5 79.5q-97 3 -97 82q0 22 4.5 45.5t13 44.5t21 38.5
t27.5 29.5q21 17 48 24t62 7q60 0 86.5 -26.5t26.5 -76.5q0 -43 -12.5 -84t-34.5 -82q-22 -42 -55 -84t-76 -86h-131z" />
    <glyph glyph-name="gcommaaccent" unicode="&#x123;" horiz-adv-x="1171" 
d="M907 6q-23 -107 -63 -183t-105.5 -124.5t-159 -71t-223.5 -22.5q-128 0 -227.5 25.5t-161.5 68.5l101 170q62 -37 135.5 -58.5t163.5 -21.5q78 0 134.5 12t96 40t64 74.5t38.5 115.5l21 94q-35 -27 -73.5 -50t-78 -39.5t-80 -26t-77.5 -9.5q-89 0 -152 25.5t-103 74.5
t-58.5 121t-18.5 166q0 79 16.5 161.5t48.5 159.5t80 144.5t111 118t140 79.5t169 29q35 0 72 -9t72 -25t66 -38.5t54 -50.5l37 93h180zM860 784q-45 51 -99.5 78t-123.5 27q-56 0 -102 -23.5t-83 -62.5t-64.5 -90t-46 -106.5t-27.5 -111t-9 -104.5q0 -107 35.5 -154
t124.5 -47q75 0 149 32t146 87zM891 1604q-46 -48 -75 -89t-41 -79q94 -3 94 -84q0 -45 -17.5 -89t-48.5 -69q-20 -17 -47 -23t-61 -6q-60 0 -87.5 25.5t-27.5 75.5q0 43 12.5 85t34.5 83q23 40 56 83t75 87h133z" />
    <glyph glyph-name="Hcircumflex" unicode="&#x124;" horiz-adv-x="1358" 
d="M856 0l129 610h-575l-129 -610h-230l293 1384h229l-118 -561h575l119 561h229l-293 -1384h-229zM1057 1544l-117 205l-207 -205h-182l303 361h223l150 -361h-170z" />
    <glyph glyph-name="hcircumflex" unicode="&#x125;" horiz-adv-x="1165" 
d="M698 0l127 598q11 56 18 100.5t7 87.5q0 50 -23 75.5t-77 25.5q-37 0 -79 -12.5t-86.5 -35t-89 -53t-87.5 -65.5l-154 -721h-211l315 1489h211l-125 -586q42 37 87 69t92.5 56t97 37.5t100.5 13.5q69 0 116.5 -19.5t76 -52.5t41 -77.5t12.5 -95.5q0 -42 -7 -93t-18 -102
l-135 -639h-209zM988 1544l-117 205l-207 -205h-182l303 361h223l150 -361h-170z" />
    <glyph glyph-name="Hbar" unicode="&#x126;" horiz-adv-x="1358" 
d="M856 0l125 598h-575l-125 -598h-230l213 1006h-143l39 174h141l43 204h229l-45 -204h576l45 204h229l-45 -204h142l-37 -174h-142l-211 -1006h-229zM1026 811l41 195h-575l-41 -195h575z" />
    <glyph glyph-name="hbar" unicode="&#x127;" horiz-adv-x="1165" 
d="M506 1196l-62 -293q42 37 87 69t92.5 56t97 37.5t100.5 13.5q69 0 116.5 -19.5t76 -52.5t41 -77.5t12.5 -95.5q0 -42 -7 -93t-18 -102l-135 -639h-209l127 598q11 56 18 100.5t7 87.5q0 50 -25.5 73.5t-79.5 23.5q-37 0 -78 -12t-84.5 -33.5t-87.5 -51.5t-87 -65
l-154 -721h-211l254 1196h-154l35 162h154l26 131h211l-26 -131h264l-35 -162h-266z" />
    <glyph glyph-name="Itilde" unicode="&#x128;" horiz-adv-x="803" 
d="M592 0h-602l39 188h186l215 1008h-186l39 188h602l-39 -188h-187l-215 -1008h187zM233 1561q17 66 43 119.5t61 92t80.5 59t101.5 20.5q62 0 101 -22t67.5 -49t52.5 -49t56 -22q46 0 73.5 35.5t43.5 91.5h147q-16 -66 -41 -119.5t-60 -92t-82 -59t-108 -20.5
q-46 0 -79 10.5t-56.5 26.5t-40.5 35t-32.5 35t-31 26.5t-36.5 10.5q-42 0 -69 -34.5t-44 -94.5h-147z" />
    <glyph glyph-name="itilde" unicode="&#x129;" horiz-adv-x="520" 
d="M43 0l221 1049h211l-221 -1049h-211zM18 1225q17 66 43 119.5t61 92t80.5 59t101.5 20.5q62 0 101 -22t67.5 -49t52.5 -49t56 -22q46 0 73.5 35.5t43.5 91.5h147q-16 -66 -41 -119.5t-60 -92t-82 -59t-108 -20.5q-46 0 -79 10.5t-56.5 26.5t-40.5 35t-32.5 35t-31 26.5
t-36.5 10.5q-42 0 -69 -34.5t-44 -94.5h-147z" />
    <glyph glyph-name="Imacron" unicode="&#x12a;" horiz-adv-x="803" 
d="M592 0h-602l39 188h186l215 1008h-186l39 188h602l-39 -188h-187l-215 -1008h187zM308 1591l35 162h629l-35 -162h-629z" />
    <glyph glyph-name="imacron" unicode="&#x12b;" horiz-adv-x="520" 
d="M43 0l221 1049h211l-221 -1049h-211zM99 1255l35 162h629l-35 -162h-629z" />
    <glyph glyph-name="Ibreve" unicode="&#x12c;" horiz-adv-x="803" 
d="M592 0h-602l39 188h186l215 1008h-186l39 188h602l-39 -188h-187l-215 -1008h187zM1005 1825q-13 -67 -42.5 -122.5t-76.5 -95.5t-113 -62.5t-153 -22.5q-78 0 -133.5 19t-91.5 51t-53 75.5t-17 91.5q0 17 1.5 33t4.5 33h156q2 -60 37.5 -89.5t115.5 -29.5q45 0 79 8
t58.5 23.5t41.5 37.5t28 50h158z" />
    <glyph glyph-name="ibreve" unicode="&#x12d;" horiz-adv-x="520" 
d="M43 0l221 1049h211l-221 -1049h-211zM773 1489q-13 -67 -42.5 -122.5t-76.5 -95.5t-113 -62.5t-153 -22.5q-78 0 -133.5 19t-91.5 51t-53 75.5t-17 91.5q0 17 1.5 33t4.5 33h156q2 -60 37.5 -89.5t115.5 -29.5q45 0 79 8t58.5 23.5t41.5 37.5t28 50h158z" />
    <glyph glyph-name="Iogonek" unicode="&#x12e;" horiz-adv-x="803" 
d="M522 -332q-51 -31 -105.5 -47t-105.5 -16q-96 0 -142 39.5t-46 124.5q0 71 43.5 128.5t134.5 102.5h-311l39 188h186l215 1008h-186l39 188h602l-39 -188h-187l-215 -1008h187l-39 -188q-84 -24 -139 -46t-88 -44.5t-46.5 -45.5t-13.5 -48q0 -23 15 -35t38 -12
q25 0 57 7.5t64 24.5z" />
    <glyph glyph-name="iogonek" unicode="&#x12f;" horiz-adv-x="520" 
d="M254 0q-56 -19 -92.5 -42t-57.5 -47.5t-29.5 -49t-8.5 -45.5q0 -23 14 -35t39 -12t56.5 7.5t62.5 24.5l45 -133q-51 -31 -106.5 -47t-106.5 -16q-96 0 -142.5 39.5t-46.5 124.5q0 66 41.5 128t122.5 111l219 1041h211zM295 1288q0 28 7.5 56t25 49.5t46.5 35t72 13.5
q59 0 84 -22.5t25 -59.5q0 -28 -7.5 -55t-25 -48.5t-46 -35t-70.5 -13.5q-65 0 -88 21.5t-23 58.5z" />
    <glyph glyph-name="Idotaccent" unicode="&#x130;" horiz-adv-x="803" 
d="M592 0h-602l39 188h186l215 1008h-186l39 188h602l-39 -188h-187l-215 -1008h187zM771 1708q0 -22 -6.5 -51t-17.5 -49q-22 -37 -55 -51.5t-82 -14.5q-59 0 -83 20.5t-24 55.5q0 23 5 48t16 46q18 38 50.5 57t86.5 19q60 0 85 -20t25 -60z" />
    <glyph glyph-name="dotlessi" unicode="&#x131;" horiz-adv-x="520" 
d="M43 0l221 1049h211l-221 -1049h-211z" />
    <glyph glyph-name="IJ" unicode="&#x132;" horiz-adv-x="1628" 
d="M592 0h-602l39 188h186l215 1008h-186l39 188h602l-39 -188h-187l-215 -1008h187zM1429 377q-22 -108 -59 -185t-93.5 -126.5t-135.5 -73t-185 -23.5q-74 0 -143 14t-121 37l90 201q34 -20 83 -32.5t101 -12.5q58 0 98.5 14t69 46.5t48 85.5t36.5 131l197 931h227z" />
    <glyph glyph-name="ij" unicode="&#x133;" horiz-adv-x="1059" 
d="M43 0l221 1049h211l-221 -1049h-211zM295 1288q0 28 7.5 56t25 49.5t46.5 35t72 13.5q59 0 84 -22.5t25 -59.5q0 -28 -7.5 -55t-25 -48.5t-46 -35t-70.5 -13.5q-65 0 -88 21.5t-23 58.5zM780 -45q-19 -91 -50.5 -157t-79.5 -109t-114.5 -63.5t-156.5 -20.5q-18 0 -42 2
t-50 5.5t-53 9t-50 13.5l86 183q32 -14 67 -21.5t77 -7.5q38 0 64 13t44.5 40t31 68t23.5 96l222 1043h213zM835 1290q0 28 8 55t26 48.5t47 35t71 13.5q59 0 83.5 -23t24.5 -61q0 -29 -8 -56t-25.5 -48t-46 -33.5t-69.5 -12.5q-32 0 -53.5 5.5t-34.5 16t-18 26t-5 34.5z
" />
    <glyph glyph-name="Jcircumflex" unicode="&#x134;" horiz-adv-x="885" 
d="M688 377q-22 -108 -59 -185t-93.5 -126.5t-135.5 -73t-185 -23.5q-74 0 -143 14t-121 37l90 201q34 -20 83 -32.5t101 -12.5q58 0 98.5 14t69 46.5t48 85.5t36.5 131l197 931h227zM973 1544l-117 205l-207 -205h-182l303 361h223l150 -361h-170z" />
    <glyph glyph-name="jcircumflex" unicode="&#x135;" horiz-adv-x="539" 
d="M260 -45q-19 -91 -50.5 -157t-79.5 -109t-114.5 -63.5t-156.5 -20.5q-18 0 -42 2t-50 5.5t-53 9t-50 13.5l86 183q32 -14 67 -21.5t77 -7.5q38 0 64 13t44.5 40t31 68t23.5 96l222 1043h213zM573 1208l-117 205l-207 -205h-182l303 361h223l150 -361h-170z" />
    <glyph glyph-name="Kcommaaccent" unicode="&#x136;" horiz-adv-x="1247" 
d="M823 0l-297 608l-145 -135l-100 -473h-230l293 1384h229l-122 -579l608 579h293l-656 -622l400 -762h-273zM324 -537q46 47 74.5 88.5t42.5 79.5q-97 3 -97 82q0 22 4.5 45.5t13 44.5t21 38.5t27.5 29.5q21 17 48 24t62 7q60 0 86.5 -26.5t26.5 -76.5q0 -43 -12.5 -84
t-34.5 -82q-22 -42 -55 -84t-76 -86h-131z" />
    <glyph glyph-name="kcommaaccent" unicode="&#x137;" horiz-adv-x="1053" 
d="M672 0l-211 459l-135 -123l-72 -336h-211l315 1489h211l-184 -875l457 435h264l-488 -455l289 -594h-235zM246 -537q46 47 74.5 88.5t42.5 79.5q-97 3 -97 82q0 22 4.5 45.5t13 44.5t21 38.5t27.5 29.5q21 17 48 24t62 7q60 0 86.5 -26.5t26.5 -76.5q0 -43 -12.5 -84
t-34.5 -82q-22 -42 -55 -84t-76 -86h-131z" />
    <glyph glyph-name="kgreenlandic" unicode="&#x138;" horiz-adv-x="1053" 
d="M672 0l-211 461l-135 -125l-72 -336h-211l221 1049h211l-90 -435l403 383q42 42 84 58t93 16q23 0 53.5 -4t68.5 -18l-69 -170q-14 6 -26.5 8t-24.5 2q-17 0 -31.5 -7.5t-30.5 -21.5l-287 -266l289 -594h-235z" />
    <glyph glyph-name="Lacute" unicode="&#x139;" horiz-adv-x="1018" 
d="M51 0l293 1384h229l-249 -1171h591l-43 -213h-821zM732 1544h-182l242 361h284z" />
    <glyph glyph-name="lacute" unicode="&#x13a;" horiz-adv-x="528" 
d="M47 0l315 1489h211l-315 -1489h-211zM519 1587h-182l242 361h284z" />
    <glyph glyph-name="Lcommaaccent" unicode="&#x13b;" horiz-adv-x="1018" 
d="M51 0l293 1384h229l-249 -1171h591l-43 -213h-821zM271 -537q46 47 74.5 88.5t42.5 79.5q-97 3 -97 82q0 22 4.5 45.5t13 44.5t21 38.5t27.5 29.5q21 17 48 24t62 7q60 0 86.5 -26.5t26.5 -76.5q0 -43 -12.5 -84t-34.5 -82q-22 -42 -55 -84t-76 -86h-131z" />
    <glyph glyph-name="lcommaaccent" unicode="&#x13c;" horiz-adv-x="528" 
d="M47 0l315 1489h211l-315 -1489h-211zM-64 -537q46 47 74.5 88.5t42.5 79.5q-97 3 -97 82q0 22 4.5 45.5t13 44.5t21 38.5t27.5 29.5q21 17 48 24t62 7q60 0 86.5 -26.5t26.5 -76.5q0 -43 -12.5 -84t-34.5 -82q-22 -42 -55 -84t-76 -86h-131z" />
    <glyph glyph-name="Lcaron" unicode="&#x13d;" horiz-adv-x="1018" 
d="M51 0l293 1384h229l-249 -1171h591l-43 -213h-821zM766 1025h-150l127 361h248z" />
    <glyph glyph-name="lcaron" unicode="&#x13e;" horiz-adv-x="627" 
d="M47 0l315 1489h211l-315 -1489h-211zM728 1128h-150l127 361h248z" />
    <glyph glyph-name="Ldot" unicode="&#x13f;" horiz-adv-x="1018" 
d="M51 0l293 1384h229l-249 -1171h591l-43 -213h-821zM931 798q0 -22 -6.5 -51t-17.5 -49q-22 -37 -55 -51.5t-82 -14.5q-59 0 -83 20.5t-24 55.5q0 23 5 48t16 46q18 38 50.5 57t86.5 19q60 0 85 -20t25 -60z" />
    <glyph glyph-name="ldot" unicode="&#x140;" horiz-adv-x="702" 
d="M47 0l315 1489h211l-315 -1489h-211zM797 798q0 -22 -6.5 -51t-17.5 -49q-22 -37 -55 -51.5t-82 -14.5q-59 0 -83 20.5t-24 55.5q0 23 5 48t16 46q18 38 50.5 57t86.5 19q60 0 85 -20t25 -60z" />
    <glyph glyph-name="Lslash" unicode="&#x141;" horiz-adv-x="1018" 
d="M424 686l-100 -473h591l-43 -213h-821l109 518l-166 -117l47 222l166 114l137 647h229l-102 -477l274 189l-47 -222z" />
    <glyph glyph-name="lslash" unicode="&#x142;" horiz-adv-x="528" 
d="M47 0l121 563l-172 -129l43 201l170 127l153 727h211l-118 -557l170 129l-41 -201l-170 -129l-156 -731h-211z" />
    <glyph glyph-name="Nacute" unicode="&#x143;" horiz-adv-x="1370" 
d="M840 0l-336 1087l-230 -1087h-223l293 1384h297l311 -1011l215 1011h224l-293 -1384h-258zM926 1544h-182l242 361h284z" />
    <glyph glyph-name="nacute" unicode="&#x144;" horiz-adv-x="1165" 
d="M698 0l127 598q11 56 18 101t7 92q0 46 -24.5 71t-73.5 25q-39 0 -82 -12.5t-87 -35t-88 -53t-87 -65.5l-154 -721h-211l221 1049h211l-31 -146q42 37 87 69t92 56t96 37.5t100 13.5q70 0 117.5 -19.5t76.5 -52.5t41.5 -77.5t12.5 -95.5q0 -42 -7 -93t-18 -102l-135 -639
h-209zM751 1208h-182l242 361h284z" />
    <glyph glyph-name="Ncommaaccent" unicode="&#x145;" horiz-adv-x="1370" 
d="M840 0l-336 1087l-230 -1087h-223l293 1384h297l311 -1011l215 1011h224l-293 -1384h-258zM379 -537q46 47 74.5 88.5t42.5 79.5q-97 3 -97 82q0 22 4.5 45.5t13 44.5t21 38.5t27.5 29.5q21 17 48 24t62 7q60 0 86.5 -26.5t26.5 -76.5q0 -43 -12.5 -84t-34.5 -82
q-22 -42 -55 -84t-76 -86h-131z" />
    <glyph glyph-name="ncommaaccent" unicode="&#x146;" horiz-adv-x="1165" 
d="M698 0l127 598q11 56 18 101t7 92q0 46 -24.5 71t-73.5 25q-39 0 -82 -12.5t-87 -35t-88 -53t-87 -65.5l-154 -721h-211l221 1049h211l-31 -146q42 37 87 69t92 56t96 37.5t100 13.5q70 0 117.5 -19.5t76.5 -52.5t41.5 -77.5t12.5 -95.5q0 -42 -7 -93t-18 -102l-135 -639
h-209zM262 -537q46 47 74.5 88.5t42.5 79.5q-97 3 -97 82q0 22 4.5 45.5t13 44.5t21 38.5t27.5 29.5q21 17 48 24t62 7q60 0 86.5 -26.5t26.5 -76.5q0 -43 -12.5 -84t-34.5 -82q-22 -42 -55 -84t-76 -86h-131z" />
    <glyph glyph-name="Ncaron" unicode="&#x147;" horiz-adv-x="1370" 
d="M840 0l-336 1087l-230 -1087h-223l293 1384h297l311 -1011l215 1011h224l-293 -1384h-258zM776 1905l117 -207l209 207h182l-305 -361h-223l-149 361h169z" />
    <glyph glyph-name="ncaron" unicode="&#x148;" horiz-adv-x="1165" 
d="M698 0l127 598q11 56 18 101t7 92q0 46 -24.5 71t-73.5 25q-39 0 -82 -12.5t-87 -35t-88 -53t-87 -65.5l-154 -721h-211l221 1049h211l-31 -146q42 37 87 69t92 56t96 37.5t100 13.5q70 0 117.5 -19.5t76.5 -52.5t41.5 -77.5t12.5 -95.5q0 -42 -7 -93t-18 -102l-135 -639
h-209zM636 1569l117 -207l209 207h182l-305 -361h-223l-149 361h169z" />
    <glyph glyph-name="napostrophe" unicode="&#x149;" horiz-adv-x="1325" 
d="M856 0l127 598q11 56 18 101t7 92q0 46 -24.5 71t-73.5 25q-39 0 -82 -12.5t-87 -35t-88 -53t-87 -65.5l-154 -721h-211l221 1049h211l-31 -146q42 37 87 69t92 56t96 37.5t100 13.5q70 0 117.5 -19.5t76.5 -52.5t41.5 -77.5t12.5 -95.5q0 -42 -7 -93t-18 -102l-135 -639
h-209zM384 1311q0 -42 -14 -94t-43 -117q-32 -76 -74 -138t-80 -100h-145q34 36 61.5 78t48.5 81t34 71.5t18 50.5q-48 2 -71 21t-23 61q0 11 2 25.5t5.5 29.5t8.5 28.5t10 24.5q9 18 21.5 33t29.5 25.5t39.5 16t53.5 5.5q65 0 91.5 -26.5t26.5 -75.5z" />
    <glyph glyph-name="Eng" unicode="&#x14a;" horiz-adv-x="1370" 
d="M1090 -31q-22 -102 -58 -171.5t-88 -112.5t-119 -61.5t-151 -18.5q-66 0 -127 14t-109 37l80 199q29 -19 70.5 -31t85.5 -12q41 0 73 9.5t56 32t40 58.5t27 90l-366 1085l-230 -1087h-223l293 1384h297l324 -952l202 952h224z" />
    <glyph glyph-name="eng" unicode="&#x14b;" horiz-adv-x="1165" 
d="M254 0h-211l221 1049h211l-31 -146q42 37 87 69t92 56t96 37.5t100 13.5q70 0 117.5 -19.5t76.5 -52.5t41.5 -77.5t12.5 -95.5q0 -42 -7 -93t-18 -102l-143 -680q-18 -91 -49.5 -157.5t-79.5 -110t-115 -65t-157 -21.5q-17 0 -41 2t-50.5 5.5t-53.5 9t-50 13.5l86 183
q32 -14 66.5 -21.5t76.5 -7.5q39 0 65.5 13.5t45.5 41t32.5 68.5t24.5 96l125 590q11 56 18 101t7 92q0 46 -24.5 71t-73.5 25q-39 0 -82 -12.5t-87 -35t-88 -53t-87 -65.5z" />
    <glyph glyph-name="Omacron" unicode="&#x14c;" horiz-adv-x="1337" 
d="M588 -29q-135 0 -228 36.5t-150.5 101.5t-82.5 156t-25 200q0 54 5.5 115t18 124t31.5 127.5t46 126.5q40 96 94.5 179t129.5 144.5t172.5 96.5t225.5 35q114 0 203.5 -32t151 -95t93.5 -157.5t32 -219.5q0 -36 -3.5 -80.5t-11.5 -94.5t-20.5 -104.5t-30.5 -109.5
q-38 -121 -94 -222t-135 -173.5t-183.5 -113t-238.5 -40.5zM342 475q0 -81 14.5 -138t46 -92t79.5 -51t116 -16q151 0 249.5 99t158.5 288q29 90 43 180t14 158q0 157 -61 230t-197 73q-71 0 -127.5 -21t-102 -61.5t-82 -98.5t-67.5 -132q-21 -53 -37 -108.5t-26.5 -110
t-15.5 -105.5t-5 -94zM567 1591l35 162h629l-35 -162h-629z" />
    <glyph glyph-name="omacron" unicode="&#x14d;" horiz-adv-x="1149" 
d="M80 379q0 54 10 122t32.5 139.5t59 142t90.5 128.5q71 77 168 122.5t232 45.5q93 0 166.5 -26t125 -78t78.5 -131t27 -185q0 -55 -11 -125t-36 -144t-65.5 -145.5t-98.5 -129.5q-37 -37 -77.5 -64.5t-86.5 -45.5t-99.5 -27t-115.5 -9q-109 0 -185 27.5t-123.5 80
t-69 128.5t-21.5 174zM299 373q0 -55 10.5 -95.5t34 -67.5t61.5 -40.5t93 -13.5q68 0 121.5 28t95.5 76q31 36 56.5 85t42.5 102.5t26.5 108t9.5 101.5q0 234 -201 234q-72 0 -128.5 -32.5t-98.5 -86.5q-29 -37 -51.5 -85t-38.5 -101.5t-24.5 -108t-8.5 -104.5zM401 1255
l35 162h629l-35 -162h-629z" />
    <glyph glyph-name="Obreve" unicode="&#x14e;" horiz-adv-x="1337" 
d="M588 -29q-135 0 -228 36.5t-150.5 101.5t-82.5 156t-25 200q0 54 5.5 115t18 124t31.5 127.5t46 126.5q40 96 94.5 179t129.5 144.5t172.5 96.5t225.5 35q114 0 203.5 -32t151 -95t93.5 -157.5t32 -219.5q0 -36 -3.5 -80.5t-11.5 -94.5t-20.5 -104.5t-30.5 -109.5
q-38 -121 -94 -222t-135 -173.5t-183.5 -113t-238.5 -40.5zM342 475q0 -81 14.5 -138t46 -92t79.5 -51t116 -16q151 0 249.5 99t158.5 288q29 90 43 180t14 158q0 157 -61 230t-197 73q-71 0 -127.5 -21t-102 -61.5t-82 -98.5t-67.5 -132q-21 -53 -37 -108.5t-26.5 -110
t-15.5 -105.5t-5 -94zM1266 1825q-13 -67 -42.5 -122.5t-76.5 -95.5t-113 -62.5t-153 -22.5q-78 0 -133.5 19t-91.5 51t-53 75.5t-17 91.5q0 17 1.5 33t4.5 33h156q2 -60 37.5 -89.5t115.5 -29.5q45 0 79 8t58.5 23.5t41.5 37.5t28 50h158z" />
    <glyph glyph-name="obreve" unicode="&#x14f;" horiz-adv-x="1149" 
d="M80 379q0 54 10 122t32.5 139.5t59 142t90.5 128.5q71 77 168 122.5t232 45.5q93 0 166.5 -26t125 -78t78.5 -131t27 -185q0 -55 -11 -125t-36 -144t-65.5 -145.5t-98.5 -129.5q-37 -37 -77.5 -64.5t-86.5 -45.5t-99.5 -27t-115.5 -9q-109 0 -185 27.5t-123.5 80
t-69 128.5t-21.5 174zM299 373q0 -55 10.5 -95.5t34 -67.5t61.5 -40.5t93 -13.5q68 0 121.5 28t95.5 76q31 36 56.5 85t42.5 102.5t26.5 108t9.5 101.5q0 234 -201 234q-72 0 -128.5 -32.5t-98.5 -86.5q-29 -37 -51.5 -85t-38.5 -101.5t-24.5 -108t-8.5 -104.5zM1090 1489
q-13 -67 -42.5 -122.5t-76.5 -95.5t-113 -62.5t-153 -22.5q-78 0 -133.5 19t-91.5 51t-53 75.5t-17 91.5q0 17 1.5 33t4.5 33h156q2 -60 37.5 -89.5t115.5 -29.5q45 0 79 8t58.5 23.5t41.5 37.5t28 50h158z" />
    <glyph glyph-name="Ohungarumlaut" unicode="&#x150;" horiz-adv-x="1337" 
d="M588 -29q-135 0 -228 36.5t-150.5 101.5t-82.5 156t-25 200q0 54 5.5 115t18 124t31.5 127.5t46 126.5q40 96 94.5 179t129.5 144.5t172.5 96.5t225.5 35q114 0 203.5 -32t151 -95t93.5 -157.5t32 -219.5q0 -36 -3.5 -80.5t-11.5 -94.5t-20.5 -104.5t-30.5 -109.5
q-38 -121 -94 -222t-135 -173.5t-183.5 -113t-238.5 -40.5zM342 475q0 -81 14.5 -138t46 -92t79.5 -51t116 -16q151 0 249.5 99t158.5 288q29 90 43 180t14 158q0 157 -61 230t-197 73q-71 0 -127.5 -21t-102 -61.5t-82 -98.5t-67.5 -132q-21 -53 -37 -108.5t-26.5 -110
t-15.5 -105.5t-5 -94zM1137 1544h-183l242 361h285zM762 1544h-180l239 361h285z" />
    <glyph glyph-name="ohungarumlaut" unicode="&#x151;" horiz-adv-x="1149" 
d="M80 379q0 54 10 122t32.5 139.5t59 142t90.5 128.5q71 77 168 122.5t232 45.5q93 0 166.5 -26t125 -78t78.5 -131t27 -185q0 -55 -11 -125t-36 -144t-65.5 -145.5t-98.5 -129.5q-37 -37 -77.5 -64.5t-86.5 -45.5t-99.5 -27t-115.5 -9q-109 0 -185 27.5t-123.5 80
t-69 128.5t-21.5 174zM299 373q0 -55 10.5 -95.5t34 -67.5t61.5 -40.5t93 -13.5q68 0 121.5 28t95.5 76q31 36 56.5 85t42.5 102.5t26.5 108t9.5 101.5q0 234 -201 234q-72 0 -128.5 -32.5t-98.5 -86.5q-29 -37 -51.5 -85t-38.5 -101.5t-24.5 -108t-8.5 -104.5zM977 1208
h-183l242 361h285zM602 1208h-180l239 361h285z" />
    <glyph glyph-name="OE" unicode="&#x152;" horiz-adv-x="1808" 
d="M829 1413q62 0 126.5 -8t123.5 -21h801l-43 -208h-577l-74 -351h489l-45 -209h-487l-88 -403h577l-45 -213h-778q-27 -7 -52.5 -12.5t-51.5 -9t-54.5 -5.5t-62.5 -2q-135 0 -228 36.5t-150.5 101.5t-82.5 156t-25 200q0 90 16 195t52 210.5t92.5 203.5t137 173.5
t187 120.5t242.5 45zM596 178q69 0 123.5 8t109.5 31l203 948q-38 20 -97 30.5t-130 10.5q-87 0 -155.5 -36t-120 -96t-87 -137t-58 -158t-32.5 -160.5t-10 -143.5q0 -78 14 -134t44 -92t78.5 -53.5t117.5 -17.5z" />
    <glyph glyph-name="oe" unicode="&#x153;" horiz-adv-x="1810" 
d="M80 379q0 58 12 132.5t39.5 152.5t72.5 152.5t110.5 133t154 94t203.5 35.5q117 0 198 -45.5t123 -138.5q33 42 71.5 76t86 58t104.5 37t127 13q94 0 163 -24t114.5 -68.5t67.5 -108.5t22 -145q0 -11 -1 -27.5t-3 -36t-4.5 -39.5t-5.5 -36l-25 -115h-678
q-8 -34 -11 -65.5t-3 -59.5q0 -54 12.5 -92t38.5 -61.5t64.5 -34t91.5 -10.5q80 0 144.5 30.5t121.5 87.5l125 -131q-39 -41 -81 -73.5t-91.5 -55t-108.5 -34t-131 -11.5q-137 0 -221.5 43.5t-124.5 128.5q-66 -77 -159.5 -124.5t-215.5 -47.5q-108 0 -184.5 27t-125 79.5
t-71 129t-22.5 174.5zM299 373q0 -53 10 -93t33 -68t61.5 -42t94.5 -14q59 0 108 23t88.5 62t68.5 90.5t48.5 107t29 112t9.5 106.5q0 113 -47.5 173.5t-149.5 60.5q-61 0 -111 -23.5t-89.5 -63t-68.5 -92t-48 -110t-28 -116.5t-9 -113zM1532 637q5 26 7.5 50.5t2.5 45.5
q0 85 -40.5 128.5t-135.5 43.5q-71 0 -122 -24t-89 -72q-26 -32 -48.5 -76.5t-39.5 -95.5h465z" />
    <glyph glyph-name="Racute" unicode="&#x154;" horiz-adv-x="1235" 
d="M821 0l-225 545h-201l-114 -545h-230l293 1384h447q109 0 189.5 -16t134 -54.5t80 -102t26.5 -158.5q0 -40 -9.5 -89t-28.5 -99t-47.5 -98t-66.5 -85q-49 -48 -112 -75t-126 -40l248 -567h-258zM653 750q90 0 148.5 15t95.5 52q20 20 35 46.5t25 56.5t15 60.5t5 57.5
q0 80 -50.5 111t-160.5 31h-236l-92 -430h215zM831 1544h-182l242 361h284z" />
    <glyph glyph-name="racute" unicode="&#x155;" horiz-adv-x="809" 
d="M809 836q-14 6 -38 12t-50 6q-44 0 -84.5 -12t-79.5 -32.5t-77 -48.5t-77 -59l-149 -702h-211l221 1049h211l-33 -160q94 88 172.5 132t153.5 44q38 0 72 -6.5t53 -16.5zM617 1208h-182l242 361h284z" />
    <glyph glyph-name="Rcommaaccent" unicode="&#x156;" horiz-adv-x="1235" 
d="M821 0l-225 545h-201l-114 -545h-230l293 1384h447q109 0 189.5 -16t134 -54.5t80 -102t26.5 -158.5q0 -40 -9.5 -89t-28.5 -99t-47.5 -98t-66.5 -85q-49 -48 -112 -75t-126 -40l248 -567h-258zM653 750q90 0 148.5 15t95.5 52q20 20 35 46.5t25 56.5t15 60.5t5 57.5
q0 80 -50.5 111t-160.5 31h-236l-92 -430h215zM301 -537q46 47 74.5 88.5t42.5 79.5q-97 3 -97 82q0 22 4.5 45.5t13 44.5t21 38.5t27.5 29.5q21 17 48 24t62 7q60 0 86.5 -26.5t26.5 -76.5q0 -43 -12.5 -84t-34.5 -82q-22 -42 -55 -84t-76 -86h-131z" />
    <glyph glyph-name="rcommaaccent" unicode="&#x157;" horiz-adv-x="809" 
d="M809 836q-14 6 -38 12t-50 6q-44 0 -84.5 -12t-79.5 -32.5t-77 -48.5t-77 -59l-149 -702h-211l221 1049h211l-33 -160q94 88 172.5 132t153.5 44q38 0 72 -6.5t53 -16.5zM-68 -537q46 47 74.5 88.5t42.5 79.5q-97 3 -97 82q0 22 4.5 45.5t13 44.5t21 38.5t27.5 29.5
q21 17 48 24t62 7q60 0 86.5 -26.5t26.5 -76.5q0 -43 -12.5 -84t-34.5 -82q-22 -42 -55 -84t-76 -86h-131z" />
    <glyph glyph-name="Rcaron" unicode="&#x158;" horiz-adv-x="1235" 
d="M821 0l-225 545h-201l-114 -545h-230l293 1384h447q109 0 189.5 -16t134 -54.5t80 -102t26.5 -158.5q0 -40 -9.5 -89t-28.5 -99t-47.5 -98t-66.5 -85q-49 -48 -112 -75t-126 -40l248 -567h-258zM653 750q90 0 148.5 15t95.5 52q20 20 35 46.5t25 56.5t15 60.5t5 57.5
q0 80 -50.5 111t-160.5 31h-236l-92 -430h215zM688 1905l117 -207l209 207h182l-305 -361h-223l-149 361h169z" />
    <glyph glyph-name="rcaron" unicode="&#x159;" horiz-adv-x="809" 
d="M809 836q-14 6 -38 12t-50 6q-44 0 -84.5 -12t-79.5 -32.5t-77 -48.5t-77 -59l-149 -702h-211l221 1049h211l-33 -160q94 88 172.5 132t153.5 44q38 0 72 -6.5t53 -16.5zM474 1569l117 -207l209 207h182l-305 -361h-223l-149 361h169z" />
    <glyph glyph-name="Sacute" unicode="&#x15a;" horiz-adv-x="1202" 
d="M225 365q16 -39 39 -73t59 -59.5t87.5 -40t124.5 -14.5q63 0 119 14.5t98 41t67 63.5t25 82q0 40 -7.5 70t-33.5 56t-77.5 50t-139.5 53q-107 33 -181 67t-119.5 76.5t-66 98.5t-20.5 133q0 79 33 156t100.5 138t170 98.5t240.5 37.5q174 0 286 -64t181 -188l-204 -129
q-36 80 -106.5 127t-186.5 47q-67 0 -117.5 -16t-84.5 -43t-51.5 -63t-17.5 -76q0 -35 10.5 -60.5t39 -47t79 -42t129.5 -45.5q110 -35 184.5 -73.5t120.5 -86t65.5 -106.5t19.5 -135q0 -107 -44.5 -189t-122 -138t-182 -85t-223.5 -29q-111 0 -195 20t-145 55.5t-101 85.5
t-63 110zM805 1544h-182l242 361h284z" />
    <glyph glyph-name="sacute" unicode="&#x15b;" horiz-adv-x="987" 
d="M188 262q31 -60 84.5 -87.5t135.5 -27.5q49 0 92 8.5t74.5 26.5t50 44.5t18.5 62.5q0 23 -6 42t-27 36.5t-60.5 35t-105.5 37.5q-85 25 -141.5 54t-90 63.5t-47 77t-13.5 96.5q0 71 28 134t82.5 110.5t135.5 75.5t186 28q144 0 233 -47t141 -135l-180 -111
q-10 22 -27.5 42.5t-43.5 36.5t-62 26t-82 10q-48 0 -85 -11.5t-62 -30.5t-38 -43.5t-13 -49.5q0 -22 6 -41.5t24 -36.5t50 -32.5t83 -30.5q94 -26 157.5 -55t102 -65t54.5 -82t16 -106q0 -73 -30 -136.5t-88.5 -110.5t-145 -74t-199.5 -27q-87 0 -151.5 14t-111 38.5
t-77 58.5t-49.5 74zM644 1208h-182l242 361h284z" />
    <glyph glyph-name="Scircumflex" unicode="&#x15c;" horiz-adv-x="1202" 
d="M225 365q16 -39 39 -73t59 -59.5t87.5 -40t124.5 -14.5q63 0 119 14.5t98 41t67 63.5t25 82q0 40 -7.5 70t-33.5 56t-77.5 50t-139.5 53q-107 33 -181 67t-119.5 76.5t-66 98.5t-20.5 133q0 79 33 156t100.5 138t170 98.5t240.5 37.5q174 0 286 -64t181 -188l-204 -129
q-36 80 -106.5 127t-186.5 47q-67 0 -117.5 -16t-84.5 -43t-51.5 -63t-17.5 -76q0 -35 10.5 -60.5t39 -47t79 -42t129.5 -45.5q110 -35 184.5 -73.5t120.5 -86t65.5 -106.5t19.5 -135q0 -107 -44.5 -189t-122 -138t-182 -85t-223.5 -29q-111 0 -195 20t-145 55.5t-101 85.5
t-63 110zM959 1544l-117 205l-207 -205h-182l303 361h223l150 -361h-170z" />
    <glyph glyph-name="scircumflex" unicode="&#x15d;" horiz-adv-x="987" 
d="M188 262q31 -60 84.5 -87.5t135.5 -27.5q49 0 92 8.5t74.5 26.5t50 44.5t18.5 62.5q0 23 -6 42t-27 36.5t-60.5 35t-105.5 37.5q-85 25 -141.5 54t-90 63.5t-47 77t-13.5 96.5q0 71 28 134t82.5 110.5t135.5 75.5t186 28q144 0 233 -47t141 -135l-180 -111
q-10 22 -27.5 42.5t-43.5 36.5t-62 26t-82 10q-48 0 -85 -11.5t-62 -30.5t-38 -43.5t-13 -49.5q0 -22 6 -41.5t24 -36.5t50 -32.5t83 -30.5q94 -26 157.5 -55t102 -65t54.5 -82t16 -106q0 -73 -30 -136.5t-88.5 -110.5t-145 -74t-199.5 -27q-87 0 -151.5 14t-111 38.5
t-77 58.5t-49.5 74zM792 1208l-117 205l-207 -205h-182l303 361h223l150 -361h-170z" />
    <glyph glyph-name="Scedilla" unicode="&#x15e;" horiz-adv-x="1202" 
d="M690 -184q0 -53 -21.5 -93t-61 -66t-96.5 -39t-128 -13q-45 0 -82.5 5.5t-68 13.5t-52.5 16.5t-35 15.5l82 117q37 -19 83.5 -29t86.5 -10q25 0 48.5 3.5t42.5 12.5t30.5 23.5t11.5 36.5q0 30 -36 51t-119 24l63 88q-92 7 -162 29.5t-121 57.5t-85.5 81t-55.5 101
l211 123q16 -39 39 -73t59 -59.5t87.5 -40t124.5 -14.5q63 0 119 14.5t98 41t67 63.5t25 82q0 40 -7.5 70t-33.5 56t-77.5 50t-139.5 53q-107 33 -181 67t-119.5 76.5t-66 98.5t-20.5 133q0 79 33 156t100.5 138t170 98.5t240.5 37.5q174 0 286 -64t181 -188l-204 -129
q-36 80 -106.5 127t-186.5 47q-67 0 -117.5 -16t-84.5 -43t-51.5 -63t-17.5 -76q0 -35 10.5 -60.5t39 -47t79 -42t129.5 -45.5q110 -35 184.5 -73.5t120.5 -86t65.5 -106.5t19.5 -135q0 -102 -40.5 -181t-111.5 -134.5t-167.5 -86.5t-207.5 -37l-2 -4q57 -17 93 -53.5
t36 -99.5z" />
    <glyph glyph-name="scedilla" unicode="&#x15f;" horiz-adv-x="987" 
d="M588 -184q0 -53 -21 -93t-60.5 -66t-96 -39t-127.5 -13q-45 0 -83 5.5t-68.5 13.5t-52.5 16.5t-34 15.5l80 117q38 -19 84 -29t86 -10q24 0 48 3.5t43 12.5t30.5 23.5t11.5 36.5q0 30 -35.5 52t-120.5 25l62 84q-72 5 -125.5 20.5t-92.5 39.5t-65.5 55.5t-44.5 67.5
l182 108q31 -60 84.5 -87.5t135.5 -27.5q49 0 92 8.5t74.5 26.5t50 44.5t18.5 62.5q0 23 -6 42t-27 36.5t-60.5 35t-105.5 37.5q-85 25 -141.5 54t-90 63.5t-47 77t-13.5 96.5q0 71 28 134t82.5 110.5t135.5 75.5t186 28q144 0 233 -47t141 -135l-180 -111
q-10 22 -27.5 42.5t-43.5 36.5t-62 26t-82 10q-48 0 -85 -11.5t-62 -30.5t-38 -43.5t-13 -49.5q0 -22 6 -41.5t24 -36.5t50 -32.5t83 -30.5q94 -26 157.5 -55t102 -65t54.5 -82t16 -106q0 -68 -25.5 -127t-75.5 -105t-124.5 -75.5t-171.5 -38.5l-2 -2q57 -17 93 -53.5
t36 -99.5z" />
    <glyph glyph-name="Scaron" unicode="&#x160;" horiz-adv-x="1202" 
d="M225 365q16 -39 39 -73t59 -59.5t87.5 -40t124.5 -14.5q63 0 119 14.5t98 41t67 63.5t25 82q0 40 -7.5 70t-33.5 56t-77.5 50t-139.5 53q-107 33 -181 67t-119.5 76.5t-66 98.5t-20.5 133q0 79 33 156t100.5 138t170 98.5t240.5 37.5q174 0 286 -64t181 -188l-204 -129
q-36 80 -106.5 127t-186.5 47q-67 0 -117.5 -16t-84.5 -43t-51.5 -63t-17.5 -76q0 -35 10.5 -60.5t39 -47t79 -42t129.5 -45.5q110 -35 184.5 -73.5t120.5 -86t65.5 -106.5t19.5 -135q0 -107 -44.5 -189t-122 -138t-182 -85t-223.5 -29q-111 0 -195 20t-145 55.5t-101 85.5
t-63 110zM684 1905l117 -207l209 207h182l-305 -361h-223l-149 361h169z" />
    <glyph glyph-name="scaron" unicode="&#x161;" horiz-adv-x="987" 
d="M188 262q31 -60 84.5 -87.5t135.5 -27.5q49 0 92 8.5t74.5 26.5t50 44.5t18.5 62.5q0 23 -6 42t-27 36.5t-60.5 35t-105.5 37.5q-85 25 -141.5 54t-90 63.5t-47 77t-13.5 96.5q0 71 28 134t82.5 110.5t135.5 75.5t186 28q144 0 233 -47t141 -135l-180 -111
q-10 22 -27.5 42.5t-43.5 36.5t-62 26t-82 10q-48 0 -85 -11.5t-62 -30.5t-38 -43.5t-13 -49.5q0 -22 6 -41.5t24 -36.5t50 -32.5t83 -30.5q94 -26 157.5 -55t102 -65t54.5 -82t16 -106q0 -73 -30 -136.5t-88.5 -110.5t-145 -74t-199.5 -27q-87 0 -151.5 14t-111 38.5
t-77 58.5t-49.5 74zM523 1569l117 -207l209 207h182l-305 -361h-223l-149 361h169z" />
    <glyph glyph-name="uni0162" unicode="&#x162;" horiz-adv-x="1169" 
d="M643 -184q0 -53 -21 -93t-60.5 -66t-96 -39t-127.5 -13q-45 0 -83 5.5t-68.5 13.5t-52.5 16.5t-34 15.5l80 117q38 -19 84 -29t86 -10q25 0 48.5 3.5t42.5 12.5t30.5 23.5t11.5 36.5q0 30 -35.5 52t-119.5 25l80 113h-48l248 1171h-434l45 213h1096l-45 -213h-434
l-248 -1171h-56l-18 -27q57 -17 93 -55.5t36 -101.5z" />
    <glyph glyph-name="uni0163" unicode="&#x163;" horiz-adv-x="719" 
d="M500 -184q0 -53 -21 -93t-60.5 -66t-96 -39t-127.5 -13q-45 0 -83 5.5t-68.5 13.5t-52.5 16.5t-34 15.5l80 117q38 -19 84 -29t86 -10q24 0 48 3.5t43 12.5t30.5 23.5t11.5 36.5q0 30 -35.5 52t-120.5 25l70 101q-69 23 -101 78.5t-32 134.5q0 31 4 68t12 75l113 530
h-137l37 175h137l63 292h211l-63 -292h250l-35 -175h-252l-111 -524q-8 -32 -12 -59.5t-4 -48.5q0 -51 23.5 -73t68.5 -22q35 0 78.5 7.5t77.5 19.5v-174q-45 -14 -96 -21.5t-99 -9.5q53 -18 83 -56t30 -97z" />
    <glyph glyph-name="Tcaron" unicode="&#x164;" horiz-adv-x="1169" 
d="M836 1171l-248 -1171h-228l248 1171h-434l45 213h1096l-45 -213h-434zM700 1905l117 -207l209 207h182l-305 -361h-223l-149 361h169z" />
    <glyph glyph-name="tcaron" unicode="&#x165;" horiz-adv-x="719" 
d="M582 0q-48 -15 -102 -23t-99 -8q-70 0 -119 16.5t-80.5 47t-46 73t-14.5 95.5q0 31 4 68t12 75l113 530h-137l37 175h137l63 292h211l-63 -292h250l-35 -175h-252l-111 -524q-8 -32 -12 -59.5t-4 -48.5q0 -51 23.5 -73t68.5 -22q35 0 78.5 7.5t77.5 19.5v-174zM761 1128
h-150l127 361h248z" />
    <glyph glyph-name="Tbar" unicode="&#x166;" horiz-adv-x="1169" 
d="M729 668l-141 -668h-228l142 668h-201l33 161h201l73 342h-434l45 213h1096l-45 -213h-434l-72 -342h201l-35 -161h-201z" />
    <glyph glyph-name="tbar" unicode="&#x167;" horiz-adv-x="719" 
d="M393 557l-43 -207q-8 -32 -12 -59.5t-4 -48.5q0 -51 23.5 -73t68.5 -22q35 0 78.5 7.5t77.5 19.5v-174q-48 -15 -102 -23t-99 -8q-70 0 -119 16.5t-80.5 47t-46 73t-14.5 95.5q0 31 4 68t12 75l45 213h-155l34 162h156l33 155h-137l37 175h137l63 292h211l-63 -292h250
l-35 -175h-252l-33 -155h260l-33 -162h-262z" />
    <glyph glyph-name="Utilde" unicode="&#x168;" horiz-adv-x="1393" 
d="M1239 563q-37 -174 -91.5 -288.5t-131.5 -182.5t-180.5 -95.5t-237.5 -27.5q-232 0 -341.5 97t-109.5 292q0 47 8 108.5t23 133.5l166 784h229l-165 -786q-14 -62 -21.5 -119t-7.5 -112q0 -102 58.5 -146.5t176.5 -44.5q84 0 147 19t111 67t82.5 130.5t61.5 209.5
l168 782h227zM516 1561q17 66 43 119.5t61 92t80.5 59t101.5 20.5q62 0 101 -22t67.5 -49t52.5 -49t56 -22q46 0 73.5 35.5t43.5 91.5h147q-16 -66 -41 -119.5t-60 -92t-82 -59t-108 -20.5q-46 0 -79 10.5t-56.5 26.5t-40.5 35t-32.5 35t-31 26.5t-36.5 10.5
q-42 0 -69 -34.5t-44 -94.5h-147z" />
    <glyph glyph-name="utilde" unicode="&#x169;" horiz-adv-x="1165" 
d="M467 1049l-125 -598q-12 -56 -19.5 -101t-7.5 -80q0 -60 24.5 -84t74.5 -24q39 0 81.5 12.5t86.5 34.5t88.5 52.5t87.5 66.5l153 721h211l-221 -1049h-211l31 145q-42 -38 -87 -70t-91.5 -55.5t-94.5 -37t-96 -13.5q-72 0 -120.5 19.5t-78.5 52.5t-42.5 77.5t-12.5 94.5
q0 42 7 93t18 102l135 641h209zM326 1225q17 66 43 119.5t61 92t80.5 59t101.5 20.5q62 0 101 -22t67.5 -49t52.5 -49t56 -22q46 0 73.5 35.5t43.5 91.5h147q-16 -66 -41 -119.5t-60 -92t-82 -59t-108 -20.5q-46 0 -79 10.5t-56.5 26.5t-40.5 35t-32.5 35t-31 26.5
t-36.5 10.5q-42 0 -69 -34.5t-44 -94.5h-147z" />
    <glyph glyph-name="Umacron" unicode="&#x16a;" horiz-adv-x="1393" 
d="M1239 563q-37 -174 -91.5 -288.5t-131.5 -182.5t-180.5 -95.5t-237.5 -27.5q-232 0 -341.5 97t-109.5 292q0 47 8 108.5t23 133.5l166 784h229l-165 -786q-14 -62 -21.5 -119t-7.5 -112q0 -102 58.5 -146.5t176.5 -44.5q84 0 147 19t111 67t82.5 130.5t61.5 209.5
l168 782h227zM598 1591l35 162h629l-35 -162h-629z" />
    <glyph glyph-name="umacron" unicode="&#x16b;" horiz-adv-x="1165" 
d="M467 1049l-125 -598q-12 -56 -19.5 -101t-7.5 -80q0 -60 24.5 -84t74.5 -24q39 0 81.5 12.5t86.5 34.5t88.5 52.5t87.5 66.5l153 721h211l-221 -1049h-211l31 145q-42 -38 -87 -70t-91.5 -55.5t-94.5 -37t-96 -13.5q-72 0 -120.5 19.5t-78.5 52.5t-42.5 77.5t-12.5 94.5
q0 42 7 93t18 102l135 641h209zM409 1255l35 162h629l-35 -162h-629z" />
    <glyph glyph-name="Ubreve" unicode="&#x16c;" horiz-adv-x="1393" 
d="M1239 563q-37 -174 -91.5 -288.5t-131.5 -182.5t-180.5 -95.5t-237.5 -27.5q-232 0 -341.5 97t-109.5 292q0 47 8 108.5t23 133.5l166 784h229l-165 -786q-14 -62 -21.5 -119t-7.5 -112q0 -102 58.5 -146.5t176.5 -44.5q84 0 147 19t111 67t82.5 130.5t61.5 209.5
l168 782h227zM1278 1825q-13 -67 -42.5 -122.5t-76.5 -95.5t-113 -62.5t-153 -22.5q-78 0 -133.5 19t-91.5 51t-53 75.5t-17 91.5q0 17 1.5 33t4.5 33h156q2 -60 37.5 -89.5t115.5 -29.5q45 0 79 8t58.5 23.5t41.5 37.5t28 50h158z" />
    <glyph glyph-name="ubreve" unicode="&#x16d;" horiz-adv-x="1165" 
d="M467 1049l-125 -598q-12 -56 -19.5 -101t-7.5 -80q0 -60 24.5 -84t74.5 -24q39 0 81.5 12.5t86.5 34.5t88.5 52.5t87.5 66.5l153 721h211l-221 -1049h-211l31 145q-42 -38 -87 -70t-91.5 -55.5t-94.5 -37t-96 -13.5q-72 0 -120.5 19.5t-78.5 52.5t-42.5 77.5t-12.5 94.5
q0 42 7 93t18 102l135 641h209zM1096 1489q-13 -67 -42.5 -122.5t-76.5 -95.5t-113 -62.5t-153 -22.5q-78 0 -133.5 19t-91.5 51t-53 75.5t-17 91.5q0 17 1.5 33t4.5 33h156q2 -60 37.5 -89.5t115.5 -29.5q45 0 79 8t58.5 23.5t41.5 37.5t28 50h158z" />
    <glyph glyph-name="Uring" unicode="&#x16e;" horiz-adv-x="1393" 
d="M1239 563q-37 -174 -91.5 -288.5t-131.5 -182.5t-180.5 -95.5t-237.5 -27.5q-232 0 -341.5 97t-109.5 292q0 47 8 108.5t23 133.5l166 784h229l-165 -786q-14 -62 -21.5 -119t-7.5 -112q0 -102 58.5 -146.5t176.5 -44.5q84 0 147 19t111 67t82.5 130.5t61.5 209.5
l168 782h227zM1118 1727q0 -42 -14.5 -83.5t-44 -75t-73.5 -54.5t-103 -21q-48 0 -80.5 13t-53 35.5t-29.5 54t-9 69.5q0 42 15.5 83t45 73.5t73 52.5t99.5 20q87 0 130.5 -45t43.5 -122zM895 1595q53 0 85 35t32 90q0 34 -20 53t-60 19q-27 0 -48.5 -10.5t-36 -27.5
t-22.5 -39.5t-8 -47.5q0 -34 17.5 -53t60.5 -19z" />
    <glyph glyph-name="uring" unicode="&#x16f;" horiz-adv-x="1165" 
d="M467 1049l-125 -598q-12 -56 -19.5 -101t-7.5 -80q0 -60 24.5 -84t74.5 -24q39 0 81.5 12.5t86.5 34.5t88.5 52.5t87.5 66.5l153 721h211l-221 -1049h-211l31 145q-42 -38 -87 -70t-91.5 -55.5t-94.5 -37t-96 -13.5q-72 0 -120.5 19.5t-78.5 52.5t-42.5 77.5t-12.5 94.5
q0 42 7 93t18 102l135 641h209zM938 1391q0 -42 -14.5 -83.5t-44 -75t-73.5 -54.5t-103 -21q-48 0 -80.5 13t-53 35.5t-29.5 54t-9 69.5q0 42 15.5 83t45 73.5t73 52.5t99.5 20q87 0 130.5 -45t43.5 -122zM715 1259q53 0 85 35t32 90q0 34 -20 53t-60 19q-27 0 -48.5 -10.5
t-36 -27.5t-22.5 -39.5t-8 -47.5q0 -34 17.5 -53t60.5 -19z" />
    <glyph glyph-name="Uhungarumlaut" unicode="&#x170;" horiz-adv-x="1393" 
d="M1239 563q-37 -174 -91.5 -288.5t-131.5 -182.5t-180.5 -95.5t-237.5 -27.5q-232 0 -341.5 97t-109.5 292q0 47 8 108.5t23 133.5l166 784h229l-165 -786q-14 -62 -21.5 -119t-7.5 -112q0 -102 58.5 -146.5t176.5 -44.5q84 0 147 19t111 67t82.5 130.5t61.5 209.5
l168 782h227zM1168 1544h-183l242 361h285zM793 1544h-180l239 361h285z" />
    <glyph glyph-name="uhungarumlaut" unicode="&#x171;" horiz-adv-x="1165" 
d="M467 1049l-125 -598q-12 -56 -19.5 -101t-7.5 -80q0 -60 24.5 -84t74.5 -24q39 0 81.5 12.5t86.5 34.5t88.5 52.5t87.5 66.5l153 721h211l-221 -1049h-211l31 145q-42 -38 -87 -70t-91.5 -55.5t-94.5 -37t-96 -13.5q-72 0 -120.5 19.5t-78.5 52.5t-42.5 77.5t-12.5 94.5
q0 42 7 93t18 102l135 641h209zM969 1208h-183l242 361h285zM594 1208h-180l239 361h285z" />
    <glyph glyph-name="Uogonek" unicode="&#x172;" horiz-adv-x="1393" 
d="M936 -332q-51 -31 -105.5 -47t-105.5 -16q-96 0 -142 39.5t-46 124.5q0 52 21 103t65 97h-25q-232 0 -341.5 97t-109.5 292q0 47 8 108.5t23 133.5l166 784h229l-165 -786q-14 -62 -21.5 -119t-7.5 -112q0 -102 58.5 -146.5t176.5 -44.5q84 0 147 19t111 67t82.5 130.5
t61.5 209.5l168 782h227l-172 -821q-26 -120 -59.5 -211t-76.5 -157.5t-97.5 -111t-122.5 -71.5q-48 -19 -80 -43t-50.5 -50t-26 -52.5t-7.5 -50.5q0 -23 15 -35t38 -12q25 0 57 7.5t64 24.5z" />
    <glyph glyph-name="uogonek" unicode="&#x173;" horiz-adv-x="1165" 
d="M928 -332q-51 -31 -105.5 -47t-105.5 -16q-96 0 -142.5 39.5t-46.5 124.5q0 66 40.5 128t121.5 111l31 137q-42 -38 -87 -70t-91.5 -55.5t-94.5 -37t-96 -13.5q-72 0 -120.5 19.5t-78.5 52.5t-42.5 77.5t-12.5 94.5q0 42 7 93t18 102l135 641h209l-125 -598
q-12 -56 -19.5 -101t-7.5 -80q0 -60 24.5 -84t74.5 -24q39 0 81.5 12.5t86.5 34.5t88.5 52.5t87.5 66.5l153 721h211l-221 -1049q-57 -19 -93.5 -42t-58 -47.5t-30 -49t-8.5 -45.5q0 -23 15 -35t38 -12q25 0 57 7.5t64 24.5z" />
    <glyph glyph-name="Wcircumflex" unicode="&#x174;" horiz-adv-x="1759" 
d="M1255 0h-249l-29 1012l-457 -1012h-246l-38 1384h223l20 -1015l453 1015h239l29 -1015l455 1015h233zM1252 1544l-117 205l-207 -205h-182l303 361h223l150 -361h-170z" />
    <glyph glyph-name="wcircumflex" unicode="&#x175;" horiz-adv-x="1489" 
d="M1071 0h-197l-83 735l-398 -735h-192l-47 1049h208l13 -738l391 738h166l88 -736l315 736h219zM1051 1208l-117 205l-207 -205h-182l303 361h223l150 -361h-170z" />
    <glyph glyph-name="Ycircumflex" unicode="&#x176;" horiz-adv-x="1143" 
d="M688 530l-113 -530h-231l111 524l-244 860h238l159 -632l428 632h260zM934 1544l-117 205l-207 -205h-182l303 361h223l150 -361h-170z" />
    <glyph glyph-name="ycircumflex" unicode="&#x177;" horiz-adv-x="1040" 
d="M-119 -184q31 -14 65 -20.5t66 -6.5q33 0 63 11t60 35.5t62 65.5t69 101l45 76l-164 971h211l111 -730l418 730h229l-680 -1125q-51 -86 -98 -146.5t-97.5 -99t-110 -56t-136.5 -17.5q-47 0 -97 9.5t-92 23.5zM812 1208l-117 205l-207 -205h-182l303 361h223l150 -361
h-170z" />
    <glyph glyph-name="Ydieresis" unicode="&#x178;" horiz-adv-x="1143" 
d="M688 530l-113 -530h-231l111 524l-244 860h238l159 -632l428 632h260zM710 1684q0 -20 -5.5 -46t-16.5 -45q-19 -37 -49.5 -51t-81.5 -14q-59 0 -80 19.5t-21 54.5q0 14 4.5 39t14.5 47q15 38 46 55.5t85 17.5q57 0 80.5 -19.5t23.5 -57.5zM1116 1684q0 -20 -5.5 -46
t-15.5 -45q-20 -37 -50.5 -51t-80.5 -14q-59 0 -80.5 19.5t-21.5 54.5q0 14 4.5 39t13.5 47q17 38 48 55.5t85 17.5q57 0 80 -19.5t23 -57.5z" />
    <glyph glyph-name="Zacute" unicode="&#x179;" horiz-adv-x="1133" 
d="M-31 0l43 207l860 964h-624l45 213h911l-41 -196l-870 -975h678l-43 -213h-959zM782 1542h-182l242 361h284z" />
    <glyph glyph-name="zacute" unicode="&#x17a;" horiz-adv-x="913" 
d="M-43 0l33 160l649 714h-485l36 175h750l-33 -156l-651 -719h514l-37 -174h-776zM625 1208h-182l242 361h284z" />
    <glyph glyph-name="Zdotaccent" unicode="&#x17b;" horiz-adv-x="1133" 
d="M-31 0l43 207l860 964h-624l45 213h911l-41 -196l-870 -975h678l-43 -213h-959zM880 1706q0 -22 -6.5 -51t-17.5 -49q-22 -37 -55 -51.5t-82 -14.5q-59 0 -83 20.5t-24 55.5q0 23 5 48t16 46q18 38 50.5 57t86.5 19q60 0 85 -20t25 -60z" />
    <glyph glyph-name="zdotaccent" unicode="&#x17c;" horiz-adv-x="913" 
d="M-43 0l33 160l649 714h-485l36 175h750l-33 -156l-651 -719h514l-37 -174h-776zM724 1372q0 -22 -6.5 -51t-17.5 -49q-22 -37 -55 -51.5t-82 -14.5q-59 0 -83 20.5t-24 55.5q0 23 5 48t16 46q18 38 50.5 57t86.5 19q60 0 85 -20t25 -60z" />
    <glyph glyph-name="Zcaron" unicode="&#x17d;" horiz-adv-x="1133" 
d="M-31 0l43 207l860 964h-624l45 213h911l-41 -196l-870 -975h678l-43 -213h-959zM628 1903l117 -207l209 207h182l-305 -361h-223l-149 361h169z" />
    <glyph glyph-name="zcaron" unicode="&#x17e;" horiz-adv-x="913" 
d="M-43 0l33 160l649 714h-485l36 175h750l-33 -156l-651 -719h514l-37 -174h-776zM472 1569l117 -207l209 207h182l-305 -361h-223l-149 361h169z" />
    <glyph glyph-name="longs" unicode="&#x17f;" horiz-adv-x="559" 
d="M831 1296q-29 16 -61.5 25.5t-71.5 9.5q-78 0 -121 -38t-63 -132l-246 -1161h-211l185 874h-103l35 175h105l22 102q20 91 50 160.5t77.5 115.5t116 69.5t164.5 23.5q58 0 109 -11.5t91 -29.5z" />
    <glyph glyph-name="florin" unicode="&#x192;" horiz-adv-x="1247" 
d="M1112 1296q-48 16 -87 25.5t-79 9.5q-31 0 -54 -6t-40 -24t-30.5 -50t-24.5 -84l-25 -118h205l-33 -175h-207l-194 -946q-12 -60 -36 -118.5t-66 -104.5t-104.5 -74t-152.5 -28q-71 0 -133 11t-100 24l61 184q42 -14 81.5 -22.5t84.5 -8.5q35 0 60 8.5t43.5 30t31.5 58.5
t25 94l182 892h-151l34 175h152l27 122q19 88 49 153.5t74.5 109t106 65t142.5 21.5q72 0 130.5 -11.5t97.5 -23.5z" />
    <glyph glyph-name="Ohorn" unicode="&#x1a0;" horiz-adv-x="1491" 
d="M588 -29q-135 0 -228 36.5t-150.5 101.5t-82.5 156t-25 200q0 54 5.5 115t18 124t31.5 127.5t46 126.5q40 96 94.5 179t129.5 144.5t172.5 96.5t225.5 35q181 0 297 -79.5t158 -235.5h18q39 0 68.5 9.5t51 30.5t36 54.5t23.5 81.5l34 172h185l-33 -172
q-17 -84 -43 -146.5t-65.5 -103t-96.5 -60.5t-135 -20h-20q2 -9 2 -17v-18q0 -36 -3.5 -80.5t-11.5 -94.5t-20.5 -104.5t-30.5 -109.5q-38 -121 -94 -222t-135 -173.5t-183.5 -113t-238.5 -40.5zM342 475q0 -81 14.5 -138t46 -92t79.5 -51t116 -16q151 0 249.5 99t158.5 288
q29 90 43 180t14 158q0 157 -61 230t-197 73q-71 0 -127.5 -21t-102 -61.5t-82 -98.5t-67.5 -132q-21 -53 -37 -108.5t-26.5 -110t-15.5 -105.5t-5 -94z" />
    <glyph glyph-name="ohorn" unicode="&#x1a1;" horiz-adv-x="1288" 
d="M80 379q0 59 11.5 134t39 153t72 152t110.5 132t154.5 93.5t204.5 35.5q148 0 243.5 -63t131.5 -193q71 3 109 43.5t56 132.5l25 131h186l-26 -131q-15 -75 -39 -134.5t-62.5 -102t-94 -66t-132.5 -26.5v-30t-2 -32q-4 -57 -19 -126.5t-44.5 -140.5t-74.5 -138
t-108.5 -119t-147.5 -83.5t-190 -31.5q-109 0 -185.5 27t-125 79.5t-70.5 129t-22 174.5zM299 373q0 -53 10.5 -93t34 -68t61.5 -42t93 -14q60 0 109.5 23t88.5 62t68 90.5t48 107t28.5 112t9.5 106.5q0 113 -49.5 173.5t-151.5 60.5q-61 0 -111 -23.5t-89 -63t-67.5 -92
t-46.5 -110t-27 -116.5t-9 -113z" />
    <glyph glyph-name="Uhorn" unicode="&#x1af;" horiz-adv-x="1573" 
d="M1350 1098h30q39 0 68.5 9.5t51 30.5t36 54.5t23.5 81.5l34 172h185l-33 -172q-15 -78 -41 -139t-67 -103.5t-100.5 -65t-143.5 -22.5h-76l-78 -381q-37 -174 -91.5 -288.5t-131.5 -182.5t-180.5 -95.5t-237.5 -27.5q-232 0 -341.5 97t-109.5 292q0 47 8 108.5t23 133.5
l166 784h229l-165 -786q-14 -62 -21.5 -119t-7.5 -112q0 -102 58.5 -146.5t176.5 -44.5q84 0 147 19t111 67t82.5 130.5t61.5 209.5l168 782h227z" />
    <glyph glyph-name="uhorn" unicode="&#x1b0;" horiz-adv-x="1346" 
d="M467 1049l-125 -598q-12 -56 -19.5 -101t-7.5 -80q0 -60 24.5 -84t74.5 -24q39 0 81.5 12.5t86.5 34.5t88.5 52.5t87.5 66.5l153 721h211l-49 -226h27q70 0 109.5 40.5t58.5 135.5l26 131h185l-25 -131q-15 -77 -41 -138t-68 -103.5t-103 -65t-148 -22.5h-52l-141 -670
h-211l31 145q-42 -38 -87 -70t-91.5 -55.5t-94.5 -37t-96 -13.5q-72 0 -120.5 19.5t-78.5 52.5t-42.5 77.5t-12.5 94.5q0 42 7 93t18 102l135 641h209z" />
    <glyph glyph-name="Acaron" unicode="&#x1cd;" horiz-adv-x="1286" 
d="M-66 0l744 1384h299l166 -1384h-232l-37 319h-528l-174 -319h-238zM453 528h399l-70 623zM752 1905l116 -207l209 207h182l-305 -361h-223l-149 361h170z" />
    <glyph glyph-name="acaron" unicode="&#x1ce;" horiz-adv-x="1171" 
d="M78 342q0 74 14.5 157.5t44 165.5t74 157t105 132t136.5 91t169 34q94 0 162 -29t116 -83l19 82h208l-219 -1049h-190l16 127q-45 -38 -86 -67t-82 -49.5t-83.5 -31t-90.5 -10.5q-158 0 -235.5 91.5t-77.5 281.5zM862 784q-42 47 -97.5 76t-129.5 29q-57 0 -104 -25
t-84 -66.5t-64.5 -95.5t-45.5 -113t-27 -119t-9 -112q0 -105 36 -151.5t114 -46.5q42 0 83.5 12t81.5 32t76 45.5t68 51.5zM577 1569l117 -207l209 207h182l-305 -361h-223l-149 361h169z" />
    <glyph glyph-name="Icaron" unicode="&#x1cf;" horiz-adv-x="803" 
d="M592 0h-602l39 188h186l215 1008h-186l39 188h602l-39 -188h-187l-215 -1008h187zM511 1905l116 -207l209 207h182l-305 -361h-223l-149 361h170z" />
    <glyph glyph-name="icaron" unicode="&#x1d0;" horiz-adv-x="520" 
d="M43 0l221 1049h211l-221 -1049h-211zM300 1569l117 -207l209 207h182l-305 -361h-223l-149 361h169z" />
    <glyph glyph-name="Ocaron" unicode="&#x1d1;" horiz-adv-x="1337" 
d="M588 -29q-135 0 -228 36.5t-150.5 101.5t-82.5 156t-25 200q0 54 5.5 115t18 124t31.5 127.5t46 126.5q40 96 94.5 179t129.5 144.5t172.5 96.5t225.5 35q114 0 203.5 -32t151 -95t93.5 -157.5t32 -219.5q0 -36 -3.5 -80.5t-11.5 -94.5t-20.5 -104.5t-30.5 -109.5
q-38 -121 -94 -222t-135 -173.5t-183.5 -113t-238.5 -40.5zM342 475q0 -81 14.5 -138t46 -92t79.5 -51t116 -16q151 0 249.5 99t158.5 288q29 90 43 180t14 158q0 157 -61 230t-197 73q-71 0 -127.5 -21t-102 -61.5t-82 -98.5t-67.5 -132q-21 -53 -37 -108.5t-26.5 -110
t-15.5 -105.5t-5 -94zM752 1905l116 -207l209 207h182l-305 -361h-223l-149 361h170z" />
    <glyph glyph-name="ocaron" unicode="&#x1d2;" horiz-adv-x="1149" 
d="M80 379q0 54 10 122t32.5 139.5t59 142t90.5 128.5q71 77 168 122.5t232 45.5q93 0 166.5 -26t125 -78t78.5 -131t27 -185q0 -55 -11 -125t-36 -144t-65.5 -145.5t-98.5 -129.5q-37 -37 -77.5 -64.5t-86.5 -45.5t-99.5 -27t-115.5 -9q-109 0 -185 27.5t-123.5 80
t-69 128.5t-21.5 174zM299 373q0 -55 10.5 -95.5t34 -67.5t61.5 -40.5t93 -13.5q68 0 121.5 28t95.5 76q31 36 56.5 85t42.5 102.5t26.5 108t9.5 101.5q0 234 -201 234q-72 0 -128.5 -32.5t-98.5 -86.5q-29 -37 -51.5 -85t-38.5 -101.5t-24.5 -108t-8.5 -104.5zM595 1569
l117 -207l209 207h182l-305 -361h-223l-149 361h169z" />
    <glyph glyph-name="Ucaron" unicode="&#x1d3;" horiz-adv-x="1393" 
d="M1239 563q-37 -174 -91.5 -288.5t-131.5 -182.5t-180.5 -95.5t-237.5 -27.5q-232 0 -341.5 97t-109.5 292q0 47 8 108.5t23 133.5l166 784h229l-165 -786q-14 -62 -21.5 -119t-7.5 -112q0 -102 58.5 -146.5t176.5 -44.5q84 0 147 19t111 67t82.5 130.5t61.5 209.5
l168 782h227zM791 1905l116 -207l209 207h182l-305 -361h-223l-149 361h170z" />
    <glyph glyph-name="ucaron" unicode="&#x1d4;" horiz-adv-x="1165" 
d="M467 1049l-125 -598q-12 -56 -19.5 -101t-7.5 -80q0 -60 24.5 -84t74.5 -24q39 0 81.5 12.5t86.5 34.5t88.5 52.5t87.5 66.5l153 721h211l-221 -1049h-211l31 145q-42 -38 -87 -70t-91.5 -55.5t-94.5 -37t-96 -13.5q-72 0 -120.5 19.5t-78.5 52.5t-42.5 77.5t-12.5 94.5
q0 42 7 93t18 102l135 641h209zM610 1569l117 -207l209 207h182l-305 -361h-223l-149 361h169z" />
    <glyph glyph-name="Udieresismacron" unicode="&#x1d5;" horiz-adv-x="1393" 
d="M1239 563q-37 -174 -91.5 -288.5t-131.5 -182.5t-180.5 -95.5t-237.5 -27.5q-232 0 -341.5 97t-109.5 292q0 47 8 108.5t23 133.5l166 784h229l-165 -786q-14 -62 -21.5 -119t-7.5 -112q0 -102 58.5 -146.5t176.5 -44.5q84 0 147 19t111 67t82.5 130.5t61.5 209.5
l168 782h227zM842 1642q0 -20 -6 -45.5t-17 -44.5q-18 -37 -49 -51t-82 -14q-29 0 -48.5 5t-31 14t-16 23t-4.5 32q0 14 4.5 39t13.5 47q16 38 46.5 55.5t84.5 17.5q57 0 81 -19.5t24 -58.5zM1247 1642q0 -20 -5.5 -45.5t-14.5 -44.5q-20 -35 -51 -50t-80 -15q-59 0 -81 19
t-22 55q0 14 4.5 39t14.5 47q17 38 48 55.5t85 17.5q57 0 79.5 -19.5t22.5 -58.5zM639 1794l33 162h628l-32 -162h-629z" />
    <glyph glyph-name="udieresismacron" unicode="&#x1d6;" horiz-adv-x="1165" 
d="M467 1049l-125 -598q-12 -56 -19.5 -101t-7.5 -80q0 -60 24.5 -84t74.5 -24q39 0 81.5 12.5t86.5 34.5t88.5 52.5t87.5 66.5l153 721h211l-221 -1049h-211l31 145q-42 -38 -87 -70t-91.5 -55.5t-94.5 -37t-96 -13.5q-72 0 -120.5 19.5t-78.5 52.5t-42.5 77.5t-12.5 94.5
q0 42 7 93t18 102l135 641h209zM651 1307q0 -20 -5.5 -46t-16.5 -44q-19 -38 -49.5 -52t-81.5 -14q-59 0 -80 19.5t-21 54.5q0 14 4.5 39t14.5 47q15 38 46 55.5t85 17.5q57 0 80.5 -19.5t23.5 -57.5zM1057 1307q0 -20 -6 -46t-15 -44q-20 -36 -50.5 -51t-80.5 -15
q-59 0 -80.5 19.5t-21.5 54.5q0 14 4.5 39t13.5 47q17 38 48 55.5t85 17.5q57 0 80 -19.5t23 -57.5zM448 1458l33 162h629l-33 -162h-629z" />
    <glyph glyph-name="Udieresisacute" unicode="&#x1d7;" horiz-adv-x="1393" 
d="M1239 563q-37 -174 -91.5 -288.5t-131.5 -182.5t-180.5 -95.5t-237.5 -27.5q-232 0 -341.5 97t-109.5 292q0 47 8 108.5t23 133.5l166 784h229l-165 -786q-14 -62 -21.5 -119t-7.5 -112q0 -102 58.5 -146.5t176.5 -44.5q84 0 147 19t111 67t82.5 130.5t61.5 209.5
l168 782h227zM1010 1747h-166l172 301h266zM836 1642q0 -20 -6 -45.5t-17 -44.5q-18 -37 -49 -51t-82 -14q-29 0 -48.5 5t-31 14t-16 23t-4.5 32q0 14 4.5 39t13.5 47q16 38 46.5 55.5t84.5 17.5q57 0 81 -19.5t24 -58.5zM1241 1642q0 -20 -5.5 -45.5t-14.5 -44.5
q-20 -35 -51 -50t-80 -15q-59 0 -81 19t-22 55q0 14 5 39t14 47q17 38 48 55.5t85 17.5q57 0 79.5 -19.5t22.5 -58.5z" />
    <glyph glyph-name="udieresisacute" unicode="&#x1d8;" horiz-adv-x="1165" 
d="M467 1049l-125 -598q-12 -56 -19.5 -101t-7.5 -80q0 -60 24.5 -84t74.5 -24q39 0 81.5 12.5t86.5 34.5t88.5 52.5t87.5 66.5l153 721h211l-221 -1049h-211l31 145q-42 -38 -87 -70t-91.5 -55.5t-94.5 -37t-96 -13.5q-72 0 -120.5 19.5t-78.5 52.5t-42.5 77.5t-12.5 94.5
q0 42 7 93t18 102l135 641h209zM825 1411h-166l172 301h267zM651 1307q0 -20 -5.5 -46t-16.5 -44q-19 -38 -49.5 -52t-81.5 -14q-59 0 -80 19.5t-21 54.5q0 14 4.5 39t14.5 47q15 38 46 55.5t85 17.5q57 0 80.5 -19.5t23.5 -57.5zM1057 1307q0 -20 -5.5 -46t-15.5 -44
q-20 -36 -50.5 -51t-80.5 -15q-59 0 -80.5 19.5t-21.5 54.5q0 14 4.5 39t13.5 47q17 38 48 55.5t85 17.5q57 0 80 -19.5t23 -57.5z" />
    <glyph glyph-name="Udieresiscaron" unicode="&#x1d9;" horiz-adv-x="1393" 
d="M1239 563q-37 -174 -91.5 -288.5t-131.5 -182.5t-180.5 -95.5t-237.5 -27.5q-232 0 -341.5 97t-109.5 292q0 47 8 108.5t23 133.5l166 784h229l-165 -786q-14 -62 -21.5 -119t-7.5 -112q0 -102 58.5 -146.5t176.5 -44.5q84 0 147 19t111 67t82.5 130.5t61.5 209.5
l168 782h227zM834 1642q0 -20 -6 -45.5t-17 -44.5q-18 -37 -49 -51t-82 -14q-29 0 -48.5 5t-31 14t-16 23t-4.5 32q0 14 4.5 39t13.5 47q16 38 46.5 55.5t84.5 17.5q57 0 81 -19.5t24 -58.5zM1239 1642q0 -20 -5.5 -45.5t-14.5 -44.5q-20 -37 -51 -51t-80 -14q-59 0 -81 19
t-22 55q0 14 5 39t14 47q17 38 48 55.5t85 17.5q57 0 79.5 -19.5t22.5 -58.5zM844 2048l117 -156l209 156h182l-301 -289h-223l-154 289h170z" />
    <glyph glyph-name="udieresiscaron" unicode="&#x1da;" horiz-adv-x="1165" 
d="M467 1049l-125 -598q-12 -56 -19.5 -101t-7.5 -80q0 -60 24.5 -84t74.5 -24q39 0 81.5 12.5t86.5 34.5t88.5 52.5t87.5 66.5l153 721h211l-221 -1049h-211l31 145q-42 -38 -87 -70t-91.5 -55.5t-94.5 -37t-96 -13.5q-72 0 -120.5 19.5t-78.5 52.5t-42.5 77.5t-12.5 94.5
q0 42 7 93t18 102l135 641h209zM641 1307q0 -20 -5.5 -46t-16.5 -44q-19 -38 -49.5 -52t-81.5 -14q-59 0 -80 19.5t-21 54.5q0 14 4.5 39t14.5 47q15 38 46 55.5t85 17.5q57 0 80.5 -19.5t23.5 -57.5zM1047 1307q0 -20 -5.5 -46t-15.5 -44q-20 -38 -50.5 -52t-80.5 -14
q-59 0 -80.5 19.5t-21.5 54.5q0 14 4.5 39t13.5 47q17 38 48 55.5t85 17.5q57 0 80 -19.5t23 -57.5zM652 1712l116 -156l209 156h182l-301 -289h-223l-153 289h170z" />
    <glyph glyph-name="Udieresisgrave" unicode="&#x1db;" horiz-adv-x="1393" 
d="M1239 563q-37 -174 -91.5 -288.5t-131.5 -182.5t-180.5 -95.5t-237.5 -27.5q-232 0 -341.5 97t-109.5 292q0 47 8 108.5t23 133.5l166 784h229l-165 -786q-14 -62 -21.5 -119t-7.5 -112q0 -102 58.5 -146.5t176.5 -44.5q84 0 147 19t111 67t82.5 130.5t61.5 209.5
l168 782h227zM875 1747l-172 301h250l69 -301h-147zM840 1642q0 -20 -6 -45.5t-17 -44.5q-18 -37 -49 -51t-82 -14q-29 0 -48.5 5t-31 14t-16 23t-4.5 32q0 14 4.5 39t13.5 47q16 38 46.5 55.5t84.5 17.5q57 0 81 -19.5t24 -58.5zM1245 1642q0 -20 -5.5 -45.5t-14.5 -44.5
q-20 -37 -51 -51t-80 -14q-59 0 -81 19t-22 55q0 14 5 39t14 47q17 38 48 55.5t85 17.5q57 0 79.5 -19.5t22.5 -58.5z" />
    <glyph glyph-name="udieresisgrave" unicode="&#x1dc;" horiz-adv-x="1165" 
d="M467 1049l-125 -598q-12 -56 -19.5 -101t-7.5 -80q0 -60 24.5 -84t74.5 -24q39 0 81.5 12.5t86.5 34.5t88.5 52.5t87.5 66.5l153 721h211l-221 -1049h-211l31 145q-42 -38 -87 -70t-91.5 -55.5t-94.5 -37t-96 -13.5q-72 0 -120.5 19.5t-78.5 52.5t-42.5 77.5t-12.5 94.5
q0 42 7 93t18 102l135 641h209zM680 1411l-172 301h250l70 -301h-148zM645 1307q0 -20 -5.5 -46t-16.5 -44q-19 -38 -49.5 -52t-81.5 -14q-59 0 -80 19.5t-21 54.5q0 14 4.5 39t14.5 47q15 38 46 55.5t85 17.5q57 0 80.5 -19.5t23.5 -57.5zM1051 1307q0 -20 -5.5 -46
t-15.5 -44q-20 -38 -50.5 -52t-80.5 -14q-59 0 -80.5 19.5t-21.5 54.5q0 14 4.5 39t13.5 47q17 38 48 55.5t85 17.5q57 0 80 -19.5t23 -57.5z" />
    <glyph glyph-name="Aringacute" unicode="&#x1fa;" horiz-adv-x="1286" 
d="M1051 1524q0 -47 -18.5 -91.5t-53.5 -76.5l164 -1356h-232l-37 319h-528l-174 -319h-238l732 1362q-13 20 -18 45.5t-5 54.5q0 42 15.5 83t45.5 73.5t73.5 53t99.5 20.5q86 0 130 -45.5t44 -122.5zM453 528h399l-70 623zM963 1747h-179l183 278h278zM827 1393
q53 0 85 34.5t32 90.5q0 34 -19.5 52.5t-60.5 18.5q-27 0 -48 -10.5t-35.5 -27.5t-22.5 -39.5t-8 -47.5q0 -34 17 -52.5t60 -18.5z" />
    <glyph glyph-name="aringacute" unicode="&#x1fb;" horiz-adv-x="1171" 
d="M78 342q0 74 14.5 157.5t44 165.5t74 157t105 132t136.5 91t169 34q94 0 162 -29t116 -83l19 82h208l-219 -1049h-190l16 127q-45 -38 -86 -67t-82 -49.5t-83.5 -31t-90.5 -10.5q-158 0 -235.5 91.5t-77.5 281.5zM862 784q-42 47 -97.5 76t-129.5 29q-57 0 -104 -25
t-84 -66.5t-64.5 -95.5t-45.5 -113t-27 -119t-9 -112q0 -105 36 -151.5t114 -46.5q42 0 83.5 12t81.5 32t76 45.5t68 51.5zM901 1389q0 -42 -14.5 -83.5t-44 -75t-73.5 -54.5t-103 -21q-48 0 -80.5 13t-53 35.5t-29.5 54t-9 69.5q0 42 15.5 83t45 73.5t73 52.5t99.5 20
q87 0 130.5 -45t43.5 -122zM678 1257q53 0 85 35t32 90q0 34 -20 53t-60 19q-27 0 -48.5 -10.5t-36 -27.5t-22.5 -39.5t-8 -47.5q0 -34 17.5 -53t60.5 -19zM831 1614h-182l242 361h284z" />
    <glyph glyph-name="AEacute" unicode="&#x1fc;" horiz-adv-x="1743" 
d="M719 0l78 371h-412l-217 -371h-244l821 1384h1070l-46 -208h-573l-74 -351h488l-45 -209h-488l-86 -403h574l-43 -213h-803zM969 1176h-119l-342 -596h334zM1190 1544h-182l242 361h284z" />
    <glyph glyph-name="aeacute" unicode="&#x1fd;" horiz-adv-x="1720" 
d="M942 479q-8 -34 -11 -65.5t-3 -59.5q0 -54 12.5 -92t38.5 -61.5t64.5 -34t91.5 -10.5q80 0 144.5 30.5t121.5 87.5l125 -131q-39 -41 -81 -73.5t-92.5 -55t-111 -34t-135.5 -11.5q-137 0 -222.5 47t-125.5 134q-61 -45 -122 -78.5t-118 -56.5t-108 -34.5t-93 -11.5
q-145 0 -213.5 69t-68.5 206q0 93 39 165t106.5 122.5t157.5 80t192 37.5l242 23l8 49q6 30 6 55q0 35 -13 59t-37 38.5t-58.5 21t-77.5 6.5q-96 0 -162 -31.5t-104 -81.5l-146 109q30 39 69 72.5t90 57.5t115.5 38t145.5 14q148 0 230 -36t114 -105q60 66 140.5 103.5
t199.5 37.5q94 0 163 -24t114.5 -68.5t67.5 -108.5t22 -145q0 -11 -1 -27.5t-3 -36t-4.5 -39.5t-5.5 -36l-25 -115h-678zM721 338q0 34 5 78t17 94l-157 -14q-64 -6 -123 -20t-104 -40.5t-72 -69t-27 -106.5q0 -63 33.5 -88t89.5 -25q68 0 154.5 34t185.5 102q-2 14 -2 26.5
v28.5zM1442 637q5 26 7.5 50.5t2.5 45.5q0 85 -40.5 128.5t-135.5 43.5q-71 0 -122 -24t-89 -72q-26 -32 -48.5 -76.5t-39.5 -95.5h465zM1024 1208h-182l242 361h284z" />
    <glyph glyph-name="Oslashacute" unicode="&#x1fe;" horiz-adv-x="1337" 
d="M-88 -115l252 289q-34 59 -48 132.5t-14 158.5q0 90 16 195t51 210.5t91 203.5t136.5 173.5t186.5 120.5t242 45q210 0 328 -104l156 180h190l-254 -293q29 -57 44.5 -128.5t15.5 -158.5q0 -53 -7.5 -121.5t-24.5 -144.5t-45 -155.5t-68.5 -154t-95 -140.5t-124.5 -115.5
t-157.5 -78t-194.5 -28.5q-112 0 -192.5 23t-137.5 69l-156 -178h-190zM602 178q87 0 155 36t119 95.5t87 136t58 157t32 158.5t10 142q0 22 -1 41.5t-3 38.5l-647 -743q31 -32 78 -47t112 -15zM342 475q0 -23 1.5 -46.5t6.5 -43.5l649 748q-61 73 -194 73q-87 0 -155.5 -36
t-120 -96t-87 -137t-58 -158t-32.5 -160.5t-10 -143.5zM893 1544h-182l242 361h284z" />
    <glyph glyph-name="oslashacute" unicode="&#x1ff;" horiz-adv-x="1149" 
d="M-25 -76l166 193q-32 49 -46.5 114.5t-14.5 147.5q0 58 12 132.5t39.5 152.5t72.5 152.5t110.5 133t154 94t203.5 35.5q148 0 243 -65l97 110h170l-176 -204q31 -51 47 -117t16 -150q0 -55 -12 -127t-39 -148t-71.5 -149.5t-109.5 -131t-152.5 -93t-201.5 -35.5
q-80 0 -141 15t-106 43l-91 -103h-170zM850 657q0 41 -6 74l-471 -545q42 -30 125 -30q59 0 108 23t88.5 62t68.5 90.5t48.5 107t29 112t9.5 106.5zM299 373q0 -19 1 -35.5t3 -32.5l473 547q-44 39 -123 39q-61 0 -111 -23.5t-89.5 -63t-68.5 -92t-48 -110t-28 -116.5
t-9 -113zM730 1208h-182l242 361h284z" />
    <glyph glyph-name="Scommaaccent" unicode="&#x218;" horiz-adv-x="1202" 
d="M225 365q16 -39 39 -73t59 -59.5t87.5 -40t124.5 -14.5q63 0 119 14.5t98 41t67 63.5t25 82q0 40 -7.5 70t-33.5 56t-77.5 50t-139.5 53q-107 33 -181 67t-119.5 76.5t-66 98.5t-20.5 133q0 79 33 156t100.5 138t170 98.5t240.5 37.5q174 0 286 -64t181 -188l-204 -129
q-36 80 -106.5 127t-186.5 47q-67 0 -117.5 -16t-84.5 -43t-51.5 -63t-17.5 -76q0 -35 10.5 -60.5t39 -47t79 -42t129.5 -45.5q110 -35 184.5 -73.5t120.5 -86t65.5 -106.5t19.5 -135q0 -107 -44.5 -189t-122 -138t-182 -85t-223.5 -29q-111 0 -195 20t-145 55.5t-101 85.5
t-63 110zM305 -537q46 47 74.5 88.5t42.5 79.5q-97 3 -97 82q0 22 4.5 45.5t13 44.5t21 38.5t27.5 29.5q21 17 48 24t62 7q60 0 86.5 -26.5t26.5 -76.5q0 -43 -12.5 -84t-34.5 -82q-22 -42 -55 -84t-76 -86h-131z" />
    <glyph glyph-name="scommaaccent" unicode="&#x219;" horiz-adv-x="987" 
d="M188 262q31 -60 84.5 -87.5t135.5 -27.5q49 0 92 8.5t74.5 26.5t50 44.5t18.5 62.5q0 23 -6 42t-27 36.5t-60.5 35t-105.5 37.5q-85 25 -141.5 54t-90 63.5t-47 77t-13.5 96.5q0 71 28 134t82.5 110.5t135.5 75.5t186 28q144 0 233 -47t141 -135l-180 -111
q-10 22 -27.5 42.5t-43.5 36.5t-62 26t-82 10q-48 0 -85 -11.5t-62 -30.5t-38 -43.5t-13 -49.5q0 -22 6 -41.5t24 -36.5t50 -32.5t83 -30.5q94 -26 157.5 -55t102 -65t54.5 -82t16 -106q0 -73 -30 -136.5t-88.5 -110.5t-145 -74t-199.5 -27q-87 0 -151.5 14t-111 38.5
t-77 58.5t-49.5 74zM185 -537q46 47 74.5 88.5t42.5 79.5q-97 3 -97 82q0 22 4.5 45.5t13 44.5t21 38.5t27.5 29.5q21 17 48 24t62 7q60 0 86.5 -26.5t26.5 -76.5q0 -43 -12.5 -84t-34.5 -82q-22 -42 -55 -84t-76 -86h-131z" />
    <glyph glyph-name="uni021A" unicode="&#x21a;" horiz-adv-x="1169" 
d="M836 1171l-248 -1171h-228l248 1171h-434l45 213h1096l-45 -213h-434zM264 -537q46 47 74.5 88.5t42.5 79.5q-97 3 -97 82q0 22 4.5 45.5t13 44.5t21 38.5t27.5 29.5q21 17 48 24t62 7q60 0 86.5 -26.5t26.5 -76.5q0 -43 -12.5 -84t-34.5 -82q-22 -42 -55 -84t-76 -86
h-131z" />
    <glyph glyph-name="uni021B" unicode="&#x21b;" horiz-adv-x="719" 
d="M582 0q-48 -15 -102 -23t-99 -8q-70 0 -119 16.5t-80.5 47t-46 73t-14.5 95.5q0 31 4 68t12 75l113 530h-137l37 175h137l63 292h211l-63 -292h250l-35 -175h-252l-111 -524q-8 -32 -12 -59.5t-4 -48.5q0 -51 23.5 -73t68.5 -22q35 0 78.5 7.5t77.5 19.5v-174zM119 -537
q46 47 74.5 88.5t42.5 79.5q-97 3 -97 82q0 22 4.5 45.5t13 44.5t21 38.5t27.5 29.5q21 17 48 24t62 7q60 0 86.5 -26.5t26.5 -76.5q0 -43 -12.5 -84t-34.5 -82q-22 -42 -55 -84t-76 -86h-131z" />
    <glyph glyph-name="dotlessj" unicode="&#x237;" horiz-adv-x="539" 
d="M260 -45q-19 -91 -50.5 -157t-79.5 -109t-114.5 -63.5t-156.5 -20.5q-18 0 -42 2t-50 5.5t-53 9t-50 13.5l86 183q32 -14 67 -21.5t77 -7.5q38 0 64 13t44.5 40t31 68t23.5 96l222 1043h213z" />
    <glyph glyph-name="uni02C0" unicode="&#x2c0;" horiz-adv-x="999" 
d="M221 0l129 623q121 57 202.5 105.5t130 97.5t69 103.5t20.5 123.5q0 147 -188 147q-48 0 -88 -10.5t-74 -29t-63 -45.5t-56 -60l-166 123q82 110 195.5 167.5t273.5 57.5q195 0 302.5 -81.5t107.5 -248.5q0 -92 -28.5 -169t-87 -144t-146.5 -126t-207 -116l-109 -518
h-217z" />
    <glyph glyph-name="circumflex" unicode="&#x2c6;" horiz-adv-x="1042" 
d="M834 1208l-117 205l-207 -205h-182l303 361h223l150 -361h-170z" />
    <glyph glyph-name="caron" unicode="&#x2c7;" horiz-adv-x="1042" 
d="M575 1569l117 -207l209 207h182l-305 -361h-223l-149 361h169z" />
    <glyph glyph-name="uni02C9" unicode="&#x2c9;" horiz-adv-x="1042" 
d="M362 1255l35 162h629l-35 -162h-629z" />
    <glyph glyph-name="breve" unicode="&#x2d8;" horiz-adv-x="1042" 
d="M1065 1489q-13 -67 -42.5 -122.5t-76.5 -95.5t-113 -62.5t-153 -22.5q-78 0 -133.5 19t-91.5 51t-53 75.5t-17 91.5q0 17 1.5 33t4.5 33h156q2 -60 37.5 -89.5t115.5 -29.5q45 0 79 8t58.5 23.5t41.5 37.5t28 50h158z" />
    <glyph glyph-name="dotaccent" unicode="&#x2d9;" horiz-adv-x="1042" 
d="M827 1372q0 -22 -6.5 -51t-17.5 -49q-22 -37 -55 -51.5t-82 -14.5q-59 0 -83 20.5t-24 55.5q0 23 5 48t16 46q18 38 50.5 57t86.5 19q60 0 85 -20t25 -60z" />
    <glyph glyph-name="ring" unicode="&#x2da;" horiz-adv-x="1042" 
d="M901 1389q0 -42 -14.5 -83.5t-44 -75t-73.5 -54.5t-103 -21q-48 0 -80.5 13t-53 35.5t-29.5 54t-9 69.5q0 42 15.5 83t45 73.5t73 52.5t99.5 20q87 0 130.5 -45t43.5 -122zM678 1257q53 0 85 35t32 90q0 34 -20 53t-60 19q-27 0 -48.5 -10.5t-36 -27.5t-22.5 -39.5
t-8 -47.5q0 -34 17.5 -53t60.5 -19z" />
    <glyph glyph-name="ogonek" unicode="&#x2db;" horiz-adv-x="967" 
d="M571 -332q-51 -31 -106.5 -47t-106.5 -16q-96 0 -142 39.5t-46 124.5q0 106 101.5 183t303.5 122l66 -74q-84 -24 -139.5 -46t-88.5 -44.5t-46 -45.5t-13 -48q0 -23 14.5 -35t39.5 -12q24 0 55.5 7.5t62.5 24.5z" />
    <glyph glyph-name="tilde" unicode="&#x2dc;" horiz-adv-x="1042" 
d="M285 1225q17 66 43 119.5t61 92t80.5 59t101.5 20.5q62 0 101 -22t67.5 -49t52.5 -49t56 -22q46 0 73.5 35.5t43.5 91.5h147q-16 -66 -41 -119.5t-60 -92t-82 -59t-108 -20.5q-46 0 -79 10.5t-56.5 26.5t-40.5 35t-32.5 35t-31 26.5t-36.5 10.5q-42 0 -69 -34.5
t-44 -94.5h-147z" />
    <glyph glyph-name="hungarumlaut" unicode="&#x2dd;" horiz-adv-x="1042" 
d="M883 1208h-183l242 361h285zM508 1208h-180l239 361h285z" />
    <glyph glyph-name="gravecomb" unicode="&#x300;" horiz-adv-x="0" 
d="M141 1208l-219 361h258l117 -361h-156z" />
    <glyph glyph-name="acutecomb" unicode="&#x301;" horiz-adv-x="0" 
d="M176 1208h-182l242 361h284z" />
    <glyph glyph-name="uni0302" unicode="&#x302;" horiz-adv-x="0" 
d="M309 1208l-116 205l-207 -205h-183l303 361h224l149 -361h-170z" />
    <glyph glyph-name="tildecomb" unicode="&#x303;" horiz-adv-x="0" 
d="M-240 1225q17 66 43 119.5t61.5 92t81 59t101.5 20.5q62 0 101 -22t67.5 -49t52.5 -49t56 -22q46 0 73.5 35.5t42.5 91.5h148q-16 -66 -41 -119.5t-60 -92t-82 -59t-108 -20.5q-47 0 -79.5 10.5t-56.5 26.5t-41 35t-32 35t-31 26.5t-37 10.5q-42 0 -68.5 -34.5
t-43.5 -94.5h-148z" />
    <glyph glyph-name="uni0304" unicode="&#x304;" horiz-adv-x="0" 
d="M-166 1255l35 162h629l-35 -162h-629z" />
    <glyph glyph-name="uni0306" unicode="&#x306;" horiz-adv-x="0" 
d="M549 1540q-13 -67 -42.5 -122.5t-76.5 -95.5t-113 -62.5t-153 -22.5q-78 0 -133.5 19t-91.5 51.5t-53 76t-17 91.5q0 32 6 65h156q2 -60 37.5 -89.5t115.5 -29.5q45 0 79 8t58.5 23.5t41 37.5t28.5 50h158z" />
    <glyph glyph-name="uni0307" unicode="&#x307;" horiz-adv-x="0" 
d="M303 1372q0 -22 -6.5 -51t-17.5 -49q-22 -37 -55 -51.5t-83 -14.5q-59 0 -82.5 20.5t-23.5 55.5q0 23 4.5 48t15.5 46q19 38 51.5 57t86.5 19q60 0 85 -20t25 -60z" />
    <glyph glyph-name="uni0308" unicode="&#x308;" horiz-adv-x="0" 
d="M86 1348q0 -20 -6 -46t-17 -45q-18 -37 -49 -51t-82 -14q-58 0 -79 19.5t-21 54.5q0 14 4.5 39t13.5 47q16 38 47 55.5t85 17.5q57 0 80.5 -19.5t23.5 -57.5zM492 1348q0 -20 -6 -46t-15 -45q-20 -37 -50.5 -51t-80.5 -14q-59 0 -80.5 19.5t-21.5 54.5q0 14 4.5 39
t13.5 47q17 38 48 55.5t85 17.5q57 0 80 -19.5t23 -57.5z" />
    <glyph glyph-name="hookabovecomb" unicode="&#x309;" horiz-adv-x="0" 
d="M-4 1460q28 22 71.5 37.5t102.5 15.5q97 0 147 -41t50 -106q0 -69 -42.5 -112t-131.5 -52l-9 -41h-116l28 123h23q40 0 62 16t22 43q0 52 -70 52q-23 0 -45 -7.5t-41 -21.5z" />
    <glyph glyph-name="uni030A" unicode="&#x30a;" horiz-adv-x="0" 
d="M377 1389q0 -42 -14.5 -84t-44 -75.5t-74 -54t-103.5 -20.5q-48 0 -80.5 12.5t-53 35t-29.5 53t-9 65.5q0 43 15.5 84.5t45.5 74t73.5 52.5t99.5 20q86 0 130 -44.5t44 -118.5zM154 1255q52 0 84 35t32 90q0 34 -19.5 53t-60.5 19q-27 0 -48 -10.5t-35.5 -27.5
t-22.5 -39.5t-8 -47.5q0 -34 17 -53t61 -19z" />
    <glyph glyph-name="uni030C" unicode="&#x30c;" horiz-adv-x="0" 
d="M51 1569l117 -207l209 207h182l-305 -361h-223l-150 361h170z" />
    <glyph glyph-name="dotbelowcomb" unicode="&#x323;" horiz-adv-x="0" 
d="M162 -209q0 -23 -7 -52.5t-18 -47.5q-21 -38 -54 -53t-83 -15q-59 0 -82.5 20.5t-23.5 57.5q0 22 4.5 46.5t15.5 47.5q19 38 51 56t86 18q60 0 85.5 -19t25.5 -59z" />
    <glyph glyph-name="uni0374" unicode="&#x374;" horiz-adv-x="420" 
d="M342 1128h-139l137 361h235z" />
    <glyph glyph-name="uni0375" unicode="&#x375;" horiz-adv-x="420" 
d="M137 129h137l-135 -360h-237z" />
    <glyph glyph-name="uni037E" unicode="&#x37e;" horiz-adv-x="557" 
d="M506 961q0 -26 -5.5 -54.5t-21.5 -56.5q-21 -40 -57.5 -57t-91.5 -17q-63 0 -89 22t-26 62q0 25 6 52.5t17 52.5q18 43 53.5 63.5t95.5 20.5q63 0 91 -21.5t28 -66.5zM-14 -293q30 34 56 74.5t46 79.5t34 72.5t19 54.5q-49 2 -71.5 21.5t-22.5 60.5q0 24 5.5 47.5
t15.5 48.5q17 43 50.5 67.5t98.5 24.5q63 0 91 -26.5t28 -75.5q0 -26 -6 -56t-16 -61t-22.5 -62t-25.5 -59q-32 -66 -70 -121t-73 -90h-137z" />
    <glyph glyph-name="tonos" unicode="&#x384;" horiz-adv-x="449" 
d="M326 1208h-181l244 361h281z" />
    <glyph glyph-name="dieresistonos" unicode="&#x385;" horiz-adv-x="1042" 
d="M938 1569l-254 -361h-168l166 361h256zM487 1366q0 -20 -5.5 -46t-16.5 -44q-19 -37 -49.5 -51.5t-81.5 -14.5q-59 0 -80 19.5t-21 54.5q0 14 5 39t14 47q15 38 46 56t85 18q57 0 80.5 -20t23.5 -58zM1128 1366q0 -20 -5.5 -46t-16.5 -44q-20 -35 -50 -50.5t-81 -15.5
q-59 0 -80 19.5t-21 54.5q0 14 5 39t14 47q15 38 46 56t85 18q57 0 80.5 -20t23.5 -58z" />
    <glyph glyph-name="Alphatonos" unicode="&#x386;" horiz-adv-x="1286" 
d="M-66 0l744 1384h299l166 -1384h-232l-37 319h-528l-174 -319h-238zM453 528h399l-70 623zM519 1384l-285 -360h-162l197 360h250z" />
    <glyph glyph-name="anoteleia" unicode="&#x387;" horiz-adv-x="557" 
d="M451 793q0 -26 -5.5 -54.5t-21.5 -56.5q-21 -40 -57 -56.5t-92 -16.5q-63 0 -89 21.5t-26 62.5q0 24 6 51.5t17 52.5q18 43 53.5 63.5t95.5 20.5q63 0 91 -21.5t28 -66.5z" />
    <glyph glyph-name="Epsilontonos" unicode="&#x388;" horiz-adv-x="1284" 
d="M207 0l293 1384h856l-45 -208h-627l-73 -351h532l-43 -209h-532l-88 -403h626l-43 -213h-856zM448 1384l-285 -360h-162l197 360h250z" />
    <glyph glyph-name="Etatonos" unicode="&#x389;" horiz-adv-x="1513" 
d="M1012 0l129 610h-575l-129 -610h-230l293 1384h229l-118 -561h575l119 561h229l-293 -1384h-229zM448 1384l-285 -360h-162l197 360h250z" />
    <glyph glyph-name="Iotatonos" unicode="&#x38a;" horiz-adv-x="1008" 
d="M797 0h-602l39 188h186l215 1008h-186l39 188h602l-39 -188h-187l-215 -1008h187zM448 1384l-285 -360h-162l197 360h250z" />
    <glyph glyph-name="Omicrontonos" unicode="&#x38c;" horiz-adv-x="1466" 
d="M717 -29q-135 0 -228 36.5t-150.5 101.5t-82.5 156t-25 200q0 54 5.5 115t18 124t31.5 127.5t46 126.5q40 96 94.5 179t129.5 144.5t172.5 96.5t225.5 35q114 0 203.5 -32t151 -95t93.5 -157.5t32 -219.5q0 -36 -3.5 -80.5t-11.5 -94.5t-20.5 -104.5t-30.5 -109.5
q-38 -121 -94 -222t-135 -173.5t-183.5 -113t-238.5 -40.5zM471 475q0 -81 14.5 -138t46 -92t79.5 -51t116 -16q151 0 249.5 99t158.5 288q29 90 43 180t14 158q0 157 -61 230t-197 73q-71 0 -127.5 -21t-102 -61.5t-82 -98.5t-67.5 -132q-21 -53 -37 -108.5t-26.5 -110
t-15.5 -105.5t-5 -94zM448 1384l-285 -360h-162l197 360h250z" />
    <glyph glyph-name="Upsilontonos" unicode="&#x38e;" horiz-adv-x="1399" 
d="M944 530l-113 -530h-231l111 524l-244 860h238l159 -632l428 632h260zM448 1384l-285 -360h-162l197 360h250z" />
    <glyph glyph-name="Omegatonos" unicode="&#x38f;" horiz-adv-x="1491" 
d="M956 1413q134 0 230 -29t157.5 -84.5t90 -136.5t28.5 -186q0 -72 -13 -154t-37 -161t-58.5 -149.5t-78.5 -121.5q-49 -59 -109 -90t-132 -51l-10 -41h262l-43 -209h-467l76 360q65 10 122.5 38.5t104.5 86.5q78 103 119 289q12 60 17 103t5 77q-2 132 -67.5 192
t-204.5 60q-104 0 -174 -33t-125 -106q-18 -22 -34 -51.5t-30.5 -63.5t-26 -72t-20.5 -77q-15 -72 -24 -129.5t-9 -108.5q0 -50 9 -86t30 -60t55.5 -38.5t86.5 -20.5l-76 -360h-465l43 209h264l10 41q-46 18 -83 45.5t-63 67.5t-40 93t-14 122q0 78 14.5 164t42 170
t66.5 160t88 134q88 103 209.5 155t273.5 52zM448 1384l-285 -360h-162l197 360h250z" />
    <glyph glyph-name="iotadieresistonos" unicode="&#x390;" horiz-adv-x="635" 
d="M504 -4q-40 -12 -93 -19.5t-106 -7.5q-60 0 -101 15t-66.5 43t-36.5 66.5t-11 86.5q0 31 4.5 68.5t14.5 79.5l151 721h211l-154 -727q-6 -32 -10 -58t-4 -45q0 -42 18.5 -60t61.5 -18q25 0 55.5 5.5t53.5 13.5zM681 1569l-254 -361h-168l166 361h256zM230 1366
q0 -20 -5.5 -46t-16.5 -44q-19 -37 -49.5 -51.5t-81.5 -14.5q-59 0 -80 19.5t-21 54.5q0 14 5 39t14 47q15 38 46 56t85 18q57 0 80.5 -20t23.5 -58zM871 1366q0 -20 -5.5 -46t-16.5 -44q-20 -35 -50 -50.5t-81 -15.5q-59 0 -80 19.5t-21 54.5q0 14 5 39t14 47q15 38 46 56
t85 18q57 0 80.5 -20t23.5 -58z" />
    <glyph glyph-name="Alpha" unicode="&#x391;" horiz-adv-x="1286" 
d="M-66 0l744 1384h299l166 -1384h-232l-37 319h-528l-174 -319h-238zM453 528h399l-70 623z" />
    <glyph glyph-name="Beta" unicode="&#x392;" horiz-adv-x="1260" 
d="M897 750q57 -8 105 -30t83 -58t54.5 -86t19.5 -113q0 -95 -34 -179.5t-104.5 -147.5t-177.5 -99.5t-253 -36.5h-539l293 1384h424q124 0 208 -17.5t135 -52.5t73 -88.5t22 -125.5q0 -61 -18 -115.5t-56 -100t-96 -80t-139 -54.5zM639 825q67 0 125 12.5t101 39.5t68 69.5
t25 102.5q0 75 -54 103t-167 28h-207l-75 -355h184zM547 209q68 0 133 9.5t116 36.5t82 75.5t31 126.5q0 51 -17.5 83t-53.5 50t-90 24.5t-127 6.5h-209l-88 -412h223z" />
    <glyph glyph-name="Gamma" unicode="&#x393;" horiz-adv-x="1044" 
d="M520 1186l-252 -1186h-227l293 1384h852l-41 -198h-625z" />
    <glyph glyph-name="uni0394" unicode="&#x394;" horiz-adv-x="1251" 
d="M1108 0h-1167l20 100q86 154 175.5 316.5t180 326t181 325.5t178.5 316h285q20 -154 41 -316t42 -325.5t42 -326t42 -316.5zM885 197l-99 825q-5 35 -7.5 72.5t-2.5 68.5h-6q-11 -29 -29 -67t-36 -72l-453 -827h633z" />
    <glyph glyph-name="Epsilon" unicode="&#x395;" horiz-adv-x="1128" 
d="M51 0l293 1384h856l-45 -208h-627l-73 -351h532l-43 -209h-532l-88 -403h626l-43 -213h-856z" />
    <glyph glyph-name="Zeta" unicode="&#x396;" horiz-adv-x="1133" 
d="M-31 0l43 207l860 964h-624l45 213h911l-41 -196l-870 -975h678l-43 -213h-959z" />
    <glyph glyph-name="Eta" unicode="&#x397;" horiz-adv-x="1358" 
d="M856 0l129 610h-575l-129 -610h-230l293 1384h229l-118 -561h575l119 561h229l-293 -1384h-229z" />
    <glyph glyph-name="Theta" unicode="&#x398;" horiz-adv-x="1393" 
d="M612 -29q-142 0 -239.5 36.5t-157.5 101.5t-86.5 156t-26.5 200q0 54 5.5 115t17.5 124t31 127.5t47 126.5q40 94 98 176.5t137.5 144.5t183 98t234.5 36q121 0 214.5 -32t158 -95t98 -157.5t33.5 -219.5q0 -36 -3.5 -80.5t-11 -94.5t-19.5 -104.5t-30 -109.5
q-36 -108 -92.5 -207.5t-139.5 -175.5t-194.5 -121t-257.5 -45zM342 475q0 -81 16 -138t50 -92t86 -51t124 -16q85 0 154.5 27t124.5 76.5t96.5 120.5t71.5 159q29 90 41 180.5t12 161.5q0 157 -65.5 230t-212.5 73q-78 0 -141.5 -23t-114.5 -64t-90.5 -98.5t-69.5 -127.5
q-22 -53 -37.5 -108.5t-25.5 -110t-14.5 -105.5t-4.5 -94zM475 600l43 199h469l-41 -199h-471z" />
    <glyph glyph-name="Iota" unicode="&#x399;" horiz-adv-x="803" 
d="M592 0h-602l39 188h186l215 1008h-186l39 188h602l-39 -188h-187l-215 -1008h187z" />
    <glyph glyph-name="Kappa" unicode="&#x39a;" horiz-adv-x="1247" 
d="M823 0l-297 608l-145 -135l-100 -473h-230l293 1384h229l-122 -579l608 579h293l-656 -622l400 -762h-273z" />
    <glyph glyph-name="Lambda" unicode="&#x39b;" horiz-adv-x="1208" 
d="M655 1384h285l129 -1384h-223l-96 1124l-572 -1124h-241z" />
    <glyph glyph-name="Mu" unicode="&#x39c;" horiz-adv-x="1597" 
d="M1104 0l221 1038l-494 -673h-137l-202 673l-220 -1038h-221l293 1384h270l207 -706l510 706h285l-293 -1384h-219z" />
    <glyph glyph-name="Nu" unicode="&#x39d;" horiz-adv-x="1370" 
d="M840 0l-336 1087l-230 -1087h-223l293 1384h297l311 -1011l215 1011h224l-293 -1384h-258z" />
    <glyph glyph-name="Xi" unicode="&#x39e;" horiz-adv-x="1075" 
d="M248 1176l45 208h854l-43 -208h-856zM188 616l43 209h740l-43 -209h-740zM0 0l43 213h856l-45 -213h-854z" />
    <glyph glyph-name="Omicron" unicode="&#x39f;" horiz-adv-x="1337" 
d="M588 -29q-135 0 -228 36.5t-150.5 101.5t-82.5 156t-25 200q0 54 5.5 115t18 124t31.5 127.5t46 126.5q40 96 94.5 179t129.5 144.5t172.5 96.5t225.5 35q114 0 203.5 -32t151 -95t93.5 -157.5t32 -219.5q0 -36 -3.5 -80.5t-11.5 -94.5t-20.5 -104.5t-30.5 -109.5
q-38 -121 -94 -222t-135 -173.5t-183.5 -113t-238.5 -40.5zM342 475q0 -81 14.5 -138t46 -92t79.5 -51t116 -16q151 0 249.5 99t158.5 288q29 90 43 180t14 158q0 157 -61 230t-197 73q-71 0 -127.5 -21t-102 -61.5t-82 -98.5t-67.5 -132q-21 -53 -37 -108.5t-26.5 -110
t-15.5 -105.5t-5 -94z" />
    <glyph glyph-name="Pi" unicode="&#x3a0;" horiz-adv-x="1343" 
d="M51 0l293 1384h1020l-293 -1384h-231l250 1180h-558l-249 -1180h-232z" />
    <glyph glyph-name="Rho" unicode="&#x3a1;" horiz-adv-x="1186" 
d="M1202 1053q0 -74 -12 -147.5t-38.5 -140.5t-70 -124.5t-106 -100t-146.5 -67t-192 -24.5h-262l-94 -449h-230l293 1384h459q95 0 169.5 -17.5t125.5 -56.5t77.5 -102t26.5 -155zM633 655q98 0 161 31t99.5 82.5t50.5 117.5t14 136q0 40 -10.5 69t-34.5 48.5t-63 29
t-96 9.5h-224l-110 -523h213z" />
    <glyph glyph-name="Sigma" unicode="&#x3a3;" horiz-adv-x="1116" 
d="M-39 0l37 190l584 521l-369 489l39 184h926l-41 -196h-633l323 -430l-22 -107l-510 -454h663l-40 -197h-957z" />
    <glyph glyph-name="Tau" unicode="&#x3a4;" horiz-adv-x="1169" 
d="M836 1171l-248 -1171h-228l248 1171h-434l45 213h1096l-45 -213h-434z" />
    <glyph glyph-name="Upsilon" unicode="&#x3a5;" horiz-adv-x="1143" 
d="M688 530l-113 -530h-231l111 524l-244 860h238l159 -632l428 632h260z" />
    <glyph glyph-name="Phi" unicode="&#x3a6;" horiz-adv-x="1462" 
d="M717 -63h-223l32 159q-111 12 -189 45t-128 85.5t-73 123.5t-23 160q0 48 7.5 107t21.5 120.5t34 120.5t45 107q39 72 89 128.5t117 96t154 63t199 29.5l35 166h223l-34 -166q111 -11 190 -43.5t129.5 -85.5t74 -126.5t23.5 -166.5q0 -57 -9 -122t-26.5 -131.5
t-44.5 -132t-63 -122.5q-39 -60 -89.5 -105t-115 -76.5t-145 -50t-178.5 -24.5zM1077 457q24 44 43 94.5t31.5 101.5t19.5 100t7 91q0 61 -11 105.5t-36.5 74.5t-66.5 47t-101 23l-172 -805q201 12 286 168zM438 891q-18 -35 -33 -80.5t-26 -93.5t-17 -94t-6 -82
q0 -59 11 -104t36 -76.5t65.5 -49.5t98.5 -22l172 805q-108 -10 -180.5 -59.5t-120.5 -143.5z" />
    <glyph glyph-name="Chi" unicode="&#x3a7;" horiz-adv-x="1221" 
d="M-70 0l598 717l-288 667h247l203 -497l406 497h268l-588 -690l295 -694h-248l-211 524l-415 -524h-267z" />
    <glyph glyph-name="Psi" unicode="&#x3a8;" horiz-adv-x="1460" 
d="M1401 778q-29 -137 -78 -232.5t-123 -157.5t-176 -94t-238 -40l-63 -289h-225l63 289q-102 8 -178.5 38.5t-127 80t-76 117t-25.5 149.5q0 38 4.5 80t15.5 90l123 575h227l-121 -577q-8 -31 -13 -72t-5 -80q0 -89 54.5 -142t162.5 -56l197 927h225l-197 -929
q73 5 129 24.5t98.5 60t73 107t52.5 166.5l120 571h228z" />
    <glyph glyph-name="uni03A9" unicode="&#x3a9;" horiz-adv-x="1346" 
d="M811 1413q134 0 230 -29t157.5 -84.5t90 -136.5t28.5 -186q0 -72 -13 -154t-37 -161t-58.5 -149.5t-78.5 -121.5q-49 -59 -109 -90t-132 -51l-10 -41h262l-43 -209h-467l76 360q65 10 122.5 38.5t104.5 86.5q78 103 119 289q12 60 17 103t5 77q-2 132 -67.5 192
t-204.5 60q-104 0 -174 -33t-125 -106q-18 -22 -34 -51.5t-30.5 -63.5t-26 -72t-20.5 -77q-15 -72 -24 -129.5t-9 -108.5q0 -50 9 -86t30 -60t55.5 -38.5t86.5 -20.5l-76 -360h-465l43 209h264l10 41q-46 18 -83 45.5t-63 67.5t-40 93t-14 122q0 78 14.5 164t42 170
t66.5 160t88 134q88 103 209.5 155t273.5 52z" />
    <glyph glyph-name="Iotadieresis" unicode="&#x3aa;" horiz-adv-x="803" 
d="M592 0h-602l39 188h186l215 1008h-186l39 188h602l-39 -188h-187l-215 -1008h187zM560 1684q0 -20 -5.5 -46t-16.5 -45q-19 -37 -49.5 -51t-81.5 -14q-59 0 -80 19.5t-21 54.5q0 14 4.5 39t14.5 47q15 38 46 55.5t85 17.5q57 0 80.5 -19.5t23.5 -57.5zM966 1684
q0 -20 -5.5 -46t-15.5 -45q-20 -37 -50.5 -51t-80.5 -14q-59 0 -80.5 19.5t-21.5 54.5q0 14 4.5 39t13.5 47q17 38 48 55.5t85 17.5q57 0 80 -19.5t23 -57.5z" />
    <glyph glyph-name="Upsilondieresis" unicode="&#x3ab;" horiz-adv-x="1143" 
d="M688 530l-113 -530h-231l111 524l-244 860h238l159 -632l428 632h260zM700 1684q0 -20 -5.5 -46t-16.5 -45q-19 -37 -49.5 -51t-81.5 -14q-59 0 -80 19.5t-21 54.5q0 14 4.5 39t14.5 47q15 38 46 55.5t85 17.5q57 0 80.5 -19.5t23.5 -57.5zM1106 1684q0 -20 -5.5 -46
t-15.5 -45q-20 -37 -50.5 -51t-80.5 -14q-59 0 -80.5 19.5t-21.5 54.5q0 14 4.5 39t13.5 47q17 38 48 55.5t85 17.5q57 0 80 -19.5t23 -57.5z" />
    <glyph glyph-name="alphatonos" unicode="&#x3ac;" horiz-adv-x="1247" 
d="M1126 -4q-19 -6 -41 -11t-44 -8.5t-42.5 -5.5t-35.5 -2q-58 0 -98 12.5t-65 36t-36.5 56t-11.5 73.5q0 14 1.5 34.5t4.5 43.5q-68 -127 -161 -191.5t-206 -64.5q-161 0 -237 95.5t-76 285.5q0 45 7.5 100.5t22 114.5t37 119t52.5 115q81 144 194.5 212t247.5 68
q94 0 167 -31.5t120 -97.5q9 28 16.5 53.5t15.5 45.5h213q-61 -147 -101.5 -271.5t-57.5 -202.5l-54 -253q-6 -32 -10 -61t-4 -52q0 -38 19.5 -53t56.5 -15q18 0 45 5.5t47 13.5zM442 156q72 0 135 47t117.5 130t99.5 196.5t80 246.5q-40 66 -98.5 95.5t-126.5 29.5
q-85 0 -149.5 -45.5t-112.5 -142.5q-21 -42 -37 -88t-27 -92.5t-16.5 -92.5t-5.5 -88q0 -56 9 -93.5t27 -60.5t44 -32.5t61 -9.5zM756 1208h-181l244 361h281z" />
    <glyph glyph-name="epsilontonos" unicode="&#x3ad;" horiz-adv-x="1032" 
d="M885 156q-40 -44 -84.5 -78.5t-97.5 -58.5t-117 -37t-142 -13q-87 0 -159.5 15t-124.5 49.5t-80.5 90.5t-28.5 138q0 35 14 74t41 75t67.5 66.5t94.5 48.5q-25 12 -46.5 28.5t-37.5 40.5t-25 57.5t-9 78.5q0 70 35.5 133t99.5 111t153 76t195 28q84 0 146 -12.5
t108 -36.5t79 -59.5t60 -81.5l-178 -103q-13 28 -31 51t-44.5 39t-63.5 24.5t-88 8.5q-61 0 -108 -14.5t-79 -38.5t-48.5 -55.5t-16.5 -65.5q0 -39 15 -61.5t43.5 -34.5t68.5 -15t90 -3h219l-37 -166h-227q-59 0 -108.5 -10t-84.5 -31t-54.5 -52.5t-19.5 -74.5
q1 -42 17.5 -70t42.5 -45.5t57 -25t60 -7.5q54 0 98 8.5t81 24.5t67.5 39.5t58.5 54.5zM701 1208h-181l244 361h281z" />
    <glyph glyph-name="etatonos" unicode="&#x3ae;" horiz-adv-x="1165" 
d="M612 -393l213 991q11 56 18 101t7 92q0 46 -24.5 71t-73.5 25q-39 0 -82 -12.5t-87 -35t-88 -53t-87 -65.5l-154 -721h-211l221 1049h211l-31 -146q42 37 87 69t92 56t96 37.5t100 13.5q70 0 117.5 -19.5t76.5 -52.5t41.5 -77.5t12.5 -95.5q0 -42 -7 -93t-18 -102
l-219 -1032h-211zM756 1208h-181l244 361h281z" />
    <glyph glyph-name="iotatonos" unicode="&#x3af;" horiz-adv-x="635" 
d="M504 -4q-40 -12 -93 -19.5t-106 -7.5q-60 0 -101 15t-66.5 43t-36.5 66.5t-11 86.5q0 31 4.5 68.5t14.5 79.5l151 721h211l-154 -727q-6 -32 -10 -58t-4 -45q0 -42 18.5 -60t61.5 -18q25 0 55.5 5.5t53.5 13.5zM439 1208h-181l244 361h281z" />
    <glyph glyph-name="upsilondieresistonos" unicode="&#x3b0;" horiz-adv-x="1153" 
d="M254 1049h213l-143 -674q-3 -13 -5 -23.5t-3.5 -20t-2 -20t-0.5 -24.5q0 -29 9 -54.5t28.5 -45t49 -31t71.5 -11.5q66 0 122 22t101 68.5t78.5 118.5t54.5 172q11 52 18 102.5t11.5 96t6 83t1.5 62.5q0 68 -1.5 109t-4.5 70h215q3 -22 6.5 -68t3.5 -127q0 -22 -1.5 -56.5
t-5.5 -76t-10 -86.5t-15 -88q-33 -161 -88.5 -271.5t-131.5 -178.5t-170 -98t-204 -30q-92 0 -159.5 22.5t-111.5 62.5t-66 95.5t-22 122.5q0 26 3.5 54.5t11.5 60.5zM975 1569l-254 -361h-168l166 361h256zM524 1366q0 -20 -5.5 -46t-16.5 -44q-19 -37 -49.5 -51.5
t-81.5 -14.5q-59 0 -80 19.5t-21 54.5q0 14 5 39t14 47q15 38 46 56t85 18q57 0 80.5 -20t23.5 -58zM1165 1366q0 -20 -5.5 -46t-16.5 -44q-20 -35 -50 -50.5t-81 -15.5q-59 0 -80 19.5t-21 54.5q0 14 5 39t14 47q15 38 46 56t85 18q57 0 80.5 -20t23.5 -58z" />
    <glyph glyph-name="alpha" unicode="&#x3b1;" horiz-adv-x="1247" 
d="M1126 -4q-19 -6 -41 -11t-44 -8.5t-42.5 -5.5t-35.5 -2q-58 0 -98 12.5t-65 36t-36.5 56t-11.5 73.5q0 14 1.5 34.5t4.5 43.5q-68 -127 -161 -191.5t-206 -64.5q-161 0 -237 95.5t-76 285.5q0 45 7.5 100.5t22 114.5t37 119t52.5 115q81 144 194.5 212t247.5 68
q94 0 167 -31.5t120 -97.5q9 28 16.5 53.5t15.5 45.5h213q-61 -147 -101.5 -271.5t-57.5 -202.5l-54 -253q-6 -32 -10 -61t-4 -52q0 -38 19.5 -53t56.5 -15q18 0 45 5.5t47 13.5zM442 156q72 0 135 47t117.5 130t99.5 196.5t80 246.5q-40 66 -98.5 95.5t-126.5 29.5
q-85 0 -149.5 -45.5t-112.5 -142.5q-21 -42 -37 -88t-27 -92.5t-16.5 -92.5t-5.5 -88q0 -56 9 -93.5t27 -60.5t44 -32.5t61 -9.5z" />
    <glyph glyph-name="beta" unicode="&#x3b2;" horiz-adv-x="1188" 
d="M1079 530q0 -62 -15 -127.5t-44.5 -128t-73 -118t-101 -97t-128.5 -66t-154 -24.5q-55 0 -101.5 7.5t-84 19.5t-66.5 27.5t-49 31.5l-94 -446h-211l309 1466q22 100 59 182t95.5 140.5t141 90.5t196.5 32q88 0 157 -20.5t116 -59.5t72 -95.5t25 -127.5q0 -59 -21.5 -116
t-63.5 -105t-105 -84.5t-147 -55.5q66 -11 119 -36t90.5 -65.5t58 -96.5t20.5 -128zM299 227q18 -13 42.5 -27.5t56 -26.5t69 -20t80.5 -8q55 0 99 18.5t78 49.5t58.5 70.5t40.5 80.5t23.5 81.5t7.5 72.5q0 70 -24 115t-66 70.5t-100 35t-125 9.5l36 176q64 1 123.5 18
t106 51.5t74.5 86.5t28 122q0 66 -40.5 105t-127.5 39q-62 0 -107 -22t-76.5 -62.5t-51.5 -97.5t-33 -128z" />
    <glyph glyph-name="gamma" unicode="&#x3b3;" horiz-adv-x="1087" 
d="M371 1049l104 -793q78 88 149 185t128 195.5t98 194.5t59 183l6 35h215l-8 -45q-25 -119 -85.5 -246.5t-143 -252.5t-181 -242t-198.5 -216l-94 -440h-211l94 440l-149 1002h217z" />
    <glyph glyph-name="delta" unicode="&#x3b4;" horiz-adv-x="1208" 
d="M575 973q-49 38 -83 72.5t-55 68.5t-30.5 69t-9.5 74q0 59 23.5 107.5t70 83t116.5 53.5t163 19q72 0 135 -9.5t113.5 -23.5t87 -30.5t57.5 -31.5l-108 -168q-35 20 -76 38t-82.5 31.5t-80 21.5t-66.5 8q-129 0 -129 -82q0 -27 7.5 -50.5t26 -46.5t49 -48t76.5 -56
q65 -43 124 -90.5t104 -107t71.5 -135t26.5 -173.5q0 -65 -17 -134.5t-51 -136t-85 -126t-118 -104.5t-150.5 -71t-182.5 -26q-108 0 -187.5 26t-132 75t-78.5 119.5t-26 160.5q0 94 35 188t100 177t156.5 150t205.5 108zM715 874q-84 -24 -159 -75t-131.5 -119.5t-90 -151
t-33.5 -170.5q0 -41 11 -79.5t35.5 -68t65.5 -47.5t101 -18q75 0 142.5 38t117.5 99.5t79.5 140.5t29.5 161q0 52 -12 94.5t-34.5 78t-53.5 64.5t-68 53z" />
    <glyph glyph-name="epsilon" unicode="&#x3b5;" horiz-adv-x="1032" 
d="M885 156q-40 -44 -84.5 -78.5t-97.5 -58.5t-117 -37t-142 -13q-87 0 -159.5 15t-124.5 49.5t-80.5 90.5t-28.5 138q0 35 14 74t41 75t67.5 66.5t94.5 48.5q-25 12 -46.5 28.5t-37.5 40.5t-25 57.5t-9 78.5q0 70 35.5 133t99.5 111t153 76t195 28q84 0 146 -12.5
t108 -36.5t79 -59.5t60 -81.5l-178 -103q-13 28 -31 51t-44.5 39t-63.5 24.5t-88 8.5q-61 0 -108 -14.5t-79 -38.5t-48.5 -55.5t-16.5 -65.5q0 -39 15 -61.5t43.5 -34.5t68.5 -15t90 -3h219l-37 -166h-227q-59 0 -108.5 -10t-84.5 -31t-54.5 -52.5t-19.5 -74.5
q1 -42 17.5 -70t42.5 -45.5t57 -25t60 -7.5q54 0 98 8.5t81 24.5t67.5 39.5t58.5 54.5z" />
    <glyph glyph-name="zeta" unicode="&#x3b6;" horiz-adv-x="922" 
d="M356 1489h695l-31 -141q-69 -39 -140.5 -93.5t-140 -120t-131.5 -139.5t-116 -153q-82 -122 -132.5 -252.5t-50.5 -267.5q0 -33 7 -57.5t29 -43.5t62 -34.5t105 -30.5q58 -13 103.5 -28.5t76 -38t46.5 -55.5t16 -81q0 -45 -16.5 -97.5t-45.5 -111.5q-14 -29 -28 -54
t-25 -44q-13 -22 -25 -41h-211q16 24 33 51q14 23 30.5 53t31.5 62q14 29 23 60t9 54q0 17 -7 31.5t-27.5 27.5t-57 24.5t-94.5 23.5q-72 15 -122.5 38.5t-82.5 60.5t-46.5 90.5t-14.5 129.5q0 75 18.5 152t50 153.5t74.5 151t92 145.5q39 55 86 110.5t99.5 108t108.5 100.5
t114 87h-399z" />
    <glyph glyph-name="eta" unicode="&#x3b7;" horiz-adv-x="1165" 
d="M612 -393l213 991q11 56 18 101t7 92q0 46 -24.5 71t-73.5 25q-39 0 -82 -12.5t-87 -35t-88 -53t-87 -65.5l-154 -721h-211l221 1049h211l-31 -146q42 37 87 69t92 56t96 37.5t100 13.5q70 0 117.5 -19.5t76.5 -52.5t41.5 -77.5t12.5 -95.5q0 -42 -7 -93t-18 -102
l-219 -1032h-211z" />
    <glyph glyph-name="theta" unicode="&#x3b8;" horiz-adv-x="1176" 
d="M911 848q16 78 25.5 148t9.5 137q0 46 -9 85t-30.5 66.5t-57 43t-87.5 15.5q-75 0 -129.5 -28.5t-95.5 -89t-73 -154t-61 -223.5h508zM770 1520q104 0 177.5 -26t120.5 -77t69 -125t22 -170q0 -71 -15.5 -168.5t-37.5 -205.5q-45 -210 -97 -358t-122.5 -241.5
t-166 -136.5t-226.5 -43q-108 0 -182 26t-119.5 77t-66 125.5t-20.5 171.5q0 34 4.5 77t12.5 91.5t18.5 101.5t22.5 109q43 202 94 348t121.5 240.5t165 139t225.5 44.5zM369 684q-20 -93 -33.5 -175t-13.5 -155q0 -51 9 -90t30.5 -65.5t56.5 -40t86 -13.5q71 0 126.5 30.5
t99.5 96t79 167.5t65 245h-505z" />
    <glyph glyph-name="iota" unicode="&#x3b9;" horiz-adv-x="635" 
d="M504 -4q-40 -12 -93 -19.5t-106 -7.5q-60 0 -101 15t-66.5 43t-36.5 66.5t-11 86.5q0 31 4.5 68.5t14.5 79.5l151 721h211l-154 -727q-6 -32 -10 -58t-4 -45q0 -42 18.5 -60t61.5 -18q25 0 55.5 5.5t53.5 13.5z" />
    <glyph glyph-name="kappa" unicode="&#x3ba;" horiz-adv-x="1075" 
d="M692 0l-227 461l-139 -125l-72 -336h-211l223 1049h211l-92 -435l467 435h264l-493 -455l305 -594h-236z" />
    <glyph glyph-name="lambda" unicode="&#x3bb;" horiz-adv-x="1120" 
d="M840 276q3 -38 9 -61.5t14.5 -36.5t20 -17.5t25.5 -4.5q13 0 30.5 3t33.5 9l18 -168q-45 -12 -85 -18.5t-64 -6.5q-47 0 -83 12t-61 44t-40 87t-19 142l-29 508l-444 -768h-232l656 1061l-8 110q-4 52 -12 85t-20.5 52t-31.5 26t-45 7q-15 0 -33.5 -3.5t-38.5 -9
t-39.5 -13t-35.5 -15.5l-13 166q53 26 103 40t98 14q65 0 111.5 -15.5t78 -53t48.5 -101t24 -158.5z" />
    <glyph glyph-name="uni03BC" unicode="&#x3bc;" horiz-adv-x="1161" 
d="M911 0h-196l16 115q-69 -73 -136.5 -109.5t-145.5 -36.5q-67 0 -115 20t-90 62l-94 -446h-209l303 1444h211l-164 -773q25 -44 75.5 -76t122.5 -32q142 0 275 133l158 748h211z" />
    <glyph glyph-name="nu" unicode="&#x3bd;" horiz-adv-x="1067" 
d="M371 1049l90 -826q66 81 133.5 175t126 193.5t103 201.5t65.5 200l10 56h223l-10 -50q-18 -83 -54.5 -172.5t-86 -180t-109 -180t-123.5 -173t-130 -158t-128 -135.5h-186l-141 1049h217z" />
    <glyph glyph-name="xi" unicode="&#x3be;" horiz-adv-x="893" 
d="M299 1327l35 162h688l-35 -168h-67q-76 0 -132 -7t-97 -21t-69 -34.5t-47 -46.5q-29 -40 -47 -88t-18 -104q0 -43 13.5 -71t36 -44t51.5 -22t61 -6h194l-35 -170h-215q-75 0 -133 -32.5t-100 -86.5q-35 -47 -57.5 -107t-22.5 -137q0 -48 14.5 -77.5t43 -49.5t70 -33
t95.5 -28q43 -12 84.5 -26.5t74.5 -37.5t53 -57.5t20 -87.5q0 -45 -13 -89t-34 -89q-15 -32 -30.5 -61.5t-28.5 -52.5q-15 -27 -29 -50h-203q16 20 38 54.5t41.5 73.5t33.5 77.5t14 66.5q0 26 -11 43.5t-32 30.5t-50 22.5t-65 20.5q-84 24 -143.5 50.5t-97 64t-55 90
t-17.5 127.5q0 37 7.5 80t23.5 88t41.5 89t62.5 83q43 43 98 75.5t117 49.5q-68 27 -102.5 82t-34.5 131q0 65 19.5 122t60.5 105q26 32 63.5 56.5t83.5 39.5h-217z" />
    <glyph glyph-name="omicron" unicode="&#x3bf;" horiz-adv-x="1149" 
d="M80 379q0 54 10 122t32.5 139.5t59 142t90.5 128.5q71 77 168 122.5t232 45.5q93 0 166.5 -26t125 -78t78.5 -131t27 -185q0 -55 -11 -125t-36 -144t-65.5 -145.5t-98.5 -129.5q-37 -37 -77.5 -64.5t-86.5 -45.5t-99.5 -27t-115.5 -9q-109 0 -185 27.5t-123.5 80
t-69 128.5t-21.5 174zM299 373q0 -55 10.5 -95.5t34 -67.5t61.5 -40.5t93 -13.5q68 0 121.5 28t95.5 76q31 36 56.5 85t42.5 102.5t26.5 108t9.5 101.5q0 234 -201 234q-72 0 -128.5 -32.5t-98.5 -86.5q-29 -37 -51.5 -85t-38.5 -101.5t-24.5 -108t-8.5 -104.5z" />
    <glyph glyph-name="pi" unicode="&#x3c0;" horiz-adv-x="1325" 
d="M1180 12q-16 -5 -38.5 -10.5t-48 -10t-53 -7t-53.5 -2.5q-111 0 -164 51t-53 153q0 28 4 60t12 69l121 568h-313l-125 -590q-19 -85 -41 -160.5t-51 -132.5h-236q41 72 69.5 145t47.5 160l123 576q-24 -3 -55 -8t-64 -12t-64.5 -16.5t-56.5 -21.5l-28 154q27 12 63.5 25
t80.5 23.5t93.5 17t102.5 6.5h936l-35 -166h-236l-119 -559q-6 -28 -8 -51t-2 -40q0 -46 20.5 -63.5t63.5 -17.5q23 0 48.5 4t45.5 12z" />
    <glyph glyph-name="rho" unicode="&#x3c1;" horiz-adv-x="1190" 
d="M-61 -393l194 928q28 130 75 231t116 170.5t161.5 106t212.5 36.5q109 0 187.5 -27t128.5 -77.5t74 -123.5t24 -165q0 -54 -9.5 -115t-26.5 -122t-40 -118t-49 -104q-42 -72 -91 -121.5t-106 -79.5t-122 -43.5t-140 -13.5q-96 0 -166 37t-108 94l-107 -493h-208zM295 295
q40 -65 102 -104t140 -39q74 0 141 40t117 130q45 80 68.5 175t23.5 185q0 51 -10.5 91.5t-34.5 69.5t-63 44.5t-95 15.5q-63 0 -115.5 -18t-95 -60.5t-74.5 -112.5t-53 -173z" />
    <glyph glyph-name="sigma1" unicode="&#x3c2;" horiz-adv-x="997" 
d="M623 -395h-203q24 37 46.5 76.5t40.5 75.5t29 67.5t11 52.5q0 26 -11 43.5t-32 30.5t-50 22.5t-65 20.5q-87 24 -145.5 56.5t-94 78.5t-50.5 107.5t-15 144.5q0 60 13.5 135.5t42.5 153t75 151t110.5 131t148.5 92.5t190 35q139 0 227.5 -47t136.5 -141l-182 -109
q-26 56 -72 82.5t-125 26.5q-59 0 -107.5 -24.5t-87 -66t-66.5 -94.5t-46.5 -110t-27.5 -113.5t-9 -103.5q0 -43 10.5 -76t36 -59t68 -46t106.5 -38q43 -12 84.5 -27t74.5 -39t53 -59t20 -88q0 -45 -13 -89t-34 -89q-15 -32 -30.5 -61.5t-28.5 -52.5q-15 -27 -29 -50z" />
    <glyph glyph-name="sigma" unicode="&#x3c3;" horiz-adv-x="1251" 
d="M1303 1049l-35 -168h-264q46 -54 66 -120.5t20 -129.5q0 -58 -8.5 -117t-25 -116t-41.5 -110t-57 -98q-75 -106 -192 -163.5t-289 -57.5q-107 0 -182.5 28t-123.5 79t-70.5 122t-22.5 156q0 41 6.5 88.5t19 98t30.5 101.5t40 99q76 157 209.5 232.5t331.5 75.5h588z
M684 881q-66 0 -115.5 -15.5t-86.5 -42.5t-63.5 -64.5t-45.5 -82.5q-29 -69 -51.5 -149.5t-22.5 -168.5q0 -99 49.5 -156t143.5 -57q54 0 97.5 10.5t78 30t61 46.5t47.5 59q26 38 45.5 83t32 92t19 94t6.5 91q0 78 -15.5 133t-44.5 97h-135z" />
    <glyph glyph-name="tau" unicode="&#x3c4;" horiz-adv-x="971" 
d="M1004 881h-353l-121 -559q-6 -28 -8 -51.5t-2 -43.5q0 -40 17.5 -57.5t62.5 -17.5q19 0 46.5 4t45.5 12l10 -156q-40 -15 -84 -22.5t-88 -7.5q-61 0 -104 14t-70 40.5t-39 63.5t-12 82q0 37 4.5 71t12.5 73l118 555h-86q-48 0 -88 -6.5t-72 -15.5t-56.5 -19.5
t-41.5 -18.5l-28 156q26 13 59 26t73.5 23t90 16.5t108.5 6.5h639z" />
    <glyph glyph-name="upsilon" unicode="&#x3c5;" horiz-adv-x="1153" 
d="M254 1049h213l-143 -674q-3 -13 -5 -23.5t-3.5 -20t-2 -20t-0.5 -24.5q0 -29 9 -54.5t28.5 -45t49 -31t71.5 -11.5q66 0 122 22t101 68.5t78.5 118.5t54.5 172q11 52 18 102.5t11.5 96t6 83t1.5 62.5q0 68 -1.5 109t-4.5 70h215q3 -22 6.5 -68t3.5 -127q0 -22 -1.5 -56.5
t-5.5 -76t-10 -86.5t-15 -88q-33 -161 -88.5 -271.5t-131.5 -178.5t-170 -98t-204 -30q-92 0 -159.5 22.5t-111.5 62.5t-66 95.5t-22 122.5q0 26 3.5 54.5t11.5 60.5z" />
    <glyph glyph-name="phi" unicode="&#x3c6;" horiz-adv-x="1372" 
d="M391 -393l78 368q-200 19 -293.5 118t-93.5 284q0 34 5 77.5t15 90t24.5 94.5t33.5 92q69 159 206.5 248.5t335.5 95.5l89 414h202l-88 -414q198 -18 291.5 -119.5t93.5 -291.5q0 -38 -6.5 -87t-19.5 -102t-32 -106.5t-44 -100.5q-74 -137 -200.5 -210t-315.5 -83
l-78 -368h-203zM668 909q-56 -2 -102 -19t-83 -47t-65 -71t-49 -90q-29 -69 -47.5 -150t-18.5 -161q0 -98 46.5 -158t154.5 -74zM707 139q94 6 164.5 57t113.5 132q20 36 35.5 77.5t26.5 86t16.5 90t5.5 90.5q0 100 -46.5 163t-152.5 74z" />
    <glyph glyph-name="chi" unicode="&#x3c7;" horiz-adv-x="1087" 
d="M401 387l-73 375q-9 43 -17 70t-18.5 42t-24 20t-32.5 5q-14 0 -36 -4t-40 -10l-21 153q18 9 40 16.5t45 13t45 8.5t40 3q41 0 73.5 -9t57 -31.5t42 -61t28.5 -96.5l53 -295l320 463h237l-502 -695l87 -432q7 -36 15 -60.5t19.5 -40t28 -22t39.5 -6.5q12 0 29.5 4
t37.5 10l21 -161q-18 -8 -39.5 -15t-43.5 -12.5t-41.5 -8.5t-33.5 -3q-49 0 -86 12.5t-64 40t-45 71t-30 105.5l-61 320l-369 -543h-229z" />
    <glyph glyph-name="psi" unicode="&#x3c8;" horiz-adv-x="1425" 
d="M1028 1483l-283 -1333q84 9 161 58t132 142q31 51 51.5 114t33 133t17.5 144t5 146q0 48 -2.5 88t-5.5 74h213q5 -23 8.5 -69t3.5 -106q0 -74 -5.5 -153.5t-21 -159t-42 -156.5t-68.5 -145q-47 -77 -106 -129t-126 -85t-139 -49t-145 -22l-78 -368h-207l78 366
q-389 29 -389 340q0 28 4 60.5t12 66.5l127 609h213l-129 -611q-5 -21 -8.5 -47.5t-3.5 -54.5q0 -86 48.5 -132t162.5 -57l284 1336h205z" />
    <glyph glyph-name="omega" unicode="&#x3c9;" horiz-adv-x="1642" 
d="M1456 1055q37 -81 60.5 -192.5t23.5 -241.5q0 -163 -36 -285.5t-100.5 -204t-154.5 -122t-198 -40.5q-69 0 -121 17t-88.5 47.5t-58.5 73t-29 94.5q-60 -115 -151.5 -173.5t-207.5 -58.5q-89 0 -152 23t-103.5 67.5t-59.5 110t-19 149.5q0 56 13.5 119.5t37 130t56 134
t71.5 130.5t82.5 119.5t88.5 102.5l202 -41q-68 -81 -126.5 -170.5t-101.5 -180.5t-67 -180t-24 -168q0 -83 32 -126.5t91 -43.5q48 0 93 23t83.5 71t70 122.5t54.5 177.5l61 282h215l-61 -282q-11 -54 -16 -99t-5 -90q0 -105 39.5 -155t102.5 -50q57 0 105 32t83.5 92.5
t55.5 146.5t20 194q0 112 -20.5 214.5t-55.5 189.5z" />
    <glyph glyph-name="iotadieresis" unicode="&#x3ca;" horiz-adv-x="635" 
d="M504 -4q-40 -12 -93 -19.5t-106 -7.5q-60 0 -101 15t-66.5 43t-36.5 66.5t-11 86.5q0 31 4.5 68.5t14.5 79.5l151 721h211l-154 -727q-6 -32 -10 -58t-4 -45q0 -42 18.5 -60t61.5 -18q25 0 55.5 5.5t53.5 13.5zM326 1348q0 -20 -5.5 -46t-16.5 -45q-19 -37 -49.5 -51
t-81.5 -14q-59 0 -80 19.5t-21 54.5q0 14 4.5 39t14.5 47q15 38 46 55.5t85 17.5q57 0 80.5 -19.5t23.5 -57.5zM732 1348q0 -20 -5.5 -46t-15.5 -45q-20 -37 -50.5 -51t-80.5 -14q-59 0 -80.5 19.5t-21.5 54.5q0 14 4.5 39t13.5 47q17 38 48 55.5t85 17.5q57 0 80 -19.5
t23 -57.5z" />
    <glyph glyph-name="upsilondieresis" unicode="&#x3cb;" horiz-adv-x="1153" 
d="M254 1049h213l-143 -674q-3 -13 -5 -23.5t-3.5 -20t-2 -20t-0.5 -24.5q0 -29 9 -54.5t28.5 -45t49 -31t71.5 -11.5q66 0 122 22t101 68.5t78.5 118.5t54.5 172q11 52 18 102.5t11.5 96t6 83t1.5 62.5q0 68 -1.5 109t-4.5 70h215q3 -22 6.5 -68t3.5 -127q0 -22 -1.5 -56.5
t-5.5 -76t-10 -86.5t-15 -88q-33 -161 -88.5 -271.5t-131.5 -178.5t-170 -98t-204 -30q-92 0 -159.5 22.5t-111.5 62.5t-66 95.5t-22 122.5q0 26 3.5 54.5t11.5 60.5zM633 1348q0 -20 -5.5 -46t-16.5 -45q-19 -37 -49.5 -51t-81.5 -14q-59 0 -80 19.5t-21 54.5q0 14 4.5 39
t14.5 47q15 38 46 55.5t85 17.5q57 0 80.5 -19.5t23.5 -57.5zM1039 1348q0 -20 -5.5 -46t-15.5 -45q-20 -37 -50.5 -51t-80.5 -14q-59 0 -80.5 19.5t-21.5 54.5q0 14 4.5 39t13.5 47q17 38 48 55.5t85 17.5q57 0 80 -19.5t23 -57.5z" />
    <glyph glyph-name="omicrontonos" unicode="&#x3cc;" horiz-adv-x="1149" 
d="M80 379q0 54 10 122t32.5 139.5t59 142t90.5 128.5q71 77 168 122.5t232 45.5q93 0 166.5 -26t125 -78t78.5 -131t27 -185q0 -55 -11 -125t-36 -144t-65.5 -145.5t-98.5 -129.5q-37 -37 -77.5 -64.5t-86.5 -45.5t-99.5 -27t-115.5 -9q-109 0 -185 27.5t-123.5 80
t-69 128.5t-21.5 174zM299 373q0 -55 10.5 -95.5t34 -67.5t61.5 -40.5t93 -13.5q68 0 121.5 28t95.5 76q31 36 56.5 85t42.5 102.5t26.5 108t9.5 101.5q0 234 -201 234q-72 0 -128.5 -32.5t-98.5 -86.5q-29 -37 -51.5 -85t-38.5 -101.5t-24.5 -108t-8.5 -104.5zM777 1208
h-181l244 361h281z" />
    <glyph glyph-name="upsilontonos" unicode="&#x3cd;" horiz-adv-x="1153" 
d="M254 1049h213l-143 -674q-3 -13 -5 -23.5t-3.5 -20t-2 -20t-0.5 -24.5q0 -29 9 -54.5t28.5 -45t49 -31t71.5 -11.5q66 0 122 22t101 68.5t78.5 118.5t54.5 172q11 52 18 102.5t11.5 96t6 83t1.5 62.5q0 68 -1.5 109t-4.5 70h215q3 -22 6.5 -68t3.5 -127q0 -22 -1.5 -56.5
t-5.5 -76t-10 -86.5t-15 -88q-33 -161 -88.5 -271.5t-131.5 -178.5t-170 -98t-204 -30q-92 0 -159.5 22.5t-111.5 62.5t-66 95.5t-22 122.5q0 26 3.5 54.5t11.5 60.5zM736 1208h-181l244 361h281z" />
    <glyph glyph-name="omegatonos" unicode="&#x3ce;" horiz-adv-x="1642" 
d="M1456 1055q37 -81 60.5 -192.5t23.5 -241.5q0 -163 -36 -285.5t-100.5 -204t-154.5 -122t-198 -40.5q-69 0 -121 17t-88.5 47.5t-58.5 73t-29 94.5q-60 -115 -151.5 -173.5t-207.5 -58.5q-89 0 -152 23t-103.5 67.5t-59.5 110t-19 149.5q0 56 13.5 119.5t37 130t56 134
t71.5 130.5t82.5 119.5t88.5 102.5l202 -41q-68 -81 -126.5 -170.5t-101.5 -180.5t-67 -180t-24 -168q0 -83 32 -126.5t91 -43.5q48 0 93 23t83.5 71t70 122.5t54.5 177.5l61 282h215l-61 -282q-11 -54 -16 -99t-5 -90q0 -105 39.5 -155t102.5 -50q57 0 105 32t83.5 92.5
t55.5 146.5t20 194q0 112 -20.5 214.5t-55.5 189.5zM1018 1208h-181l244 361h281z" />
    <glyph glyph-name="uni0400" unicode="&#x400;" horiz-adv-x="1128" 
d="M51 0l293 1384h856l-45 -208h-627l-73 -351h532l-43 -209h-532l-88 -403h626l-43 -213h-856zM742 1544l-220 361h259l116 -361h-155z" />
    <glyph glyph-name="uni0401" unicode="&#x401;" horiz-adv-x="1128" 
d="M51 0l293 1384h856l-45 -208h-627l-73 -351h532l-43 -209h-532l-88 -403h626l-43 -213h-856zM727 1684q0 -20 -5.5 -46t-16.5 -45q-19 -37 -49.5 -51t-81.5 -14q-59 0 -80 19.5t-21 54.5q0 14 4.5 39t14.5 47q15 38 46 55.5t85 17.5q57 0 80.5 -19.5t23.5 -57.5z
M1133 1684q0 -20 -5.5 -46t-15.5 -45q-20 -37 -50.5 -51t-80.5 -14q-59 0 -80.5 19.5t-21.5 54.5q0 14 4.5 39t13.5 47q17 38 48 55.5t85 17.5q57 0 80 -19.5t23 -57.5z" />
    <glyph glyph-name="uni0402" unicode="&#x402;" horiz-adv-x="1333" 
d="M924 1188h-283l-78 -363h213q119 0 209.5 -18t151.5 -58.5t92 -106.5t31 -163t-33 -184t-113 -152.5t-213 -104t-334 -38.5l39 193q82 1 155.5 12.5t128.5 42t87.5 83t32.5 134.5q0 42 -13 73.5t-43 52t-78 30.5t-118 10h-236l-133 -631h-233l252 1188h-230l41 196h746z
" />
    <glyph glyph-name="uni0403" unicode="&#x403;" horiz-adv-x="1044" 
d="M520 1186l-252 -1186h-227l293 1384h852l-41 -198h-625zM786 1544h-182l242 361h284z" />
    <glyph glyph-name="uni0404" unicode="&#x404;" horiz-adv-x="1282" 
d="M1159 231q-48 -57 -104 -104.5t-124 -82t-151 -54t-186 -19.5q-249 0 -370.5 127t-121.5 379q0 55 7 120t21 134t36.5 139.5t54.5 137.5q40 83 97.5 156.5t134 129t172.5 87.5t215 32q98 0 174.5 -19t134.5 -53.5t99.5 -84.5t70.5 -111l-203 -121q-21 48 -47.5 82
t-62 56.5t-81 33t-104.5 10.5q-68 0 -125.5 -20.5t-104.5 -57t-84 -87t-63 -109.5q-14 -32 -26.5 -64.5t-22.5 -64.5h613l-45 -209h-613q-6 -62 -6 -115q0 -78 19 -135t52.5 -94t80.5 -54.5t104 -17.5q66 0 121 12.5t102.5 37t90 61.5t83.5 86z" />
    <glyph glyph-name="uni0405" unicode="&#x405;" horiz-adv-x="1202" 
d="M225 365q16 -39 39 -73t59 -59.5t87.5 -40t124.5 -14.5q63 0 119 14.5t98 41t67 63.5t25 82q0 40 -7.5 70t-33.5 56t-77.5 50t-139.5 53q-107 33 -181 67t-119.5 76.5t-66 98.5t-20.5 133q0 79 33 156t100.5 138t170 98.5t240.5 37.5q174 0 286 -64t181 -188l-204 -129
q-36 80 -106.5 127t-186.5 47q-67 0 -117.5 -16t-84.5 -43t-51.5 -63t-17.5 -76q0 -35 10.5 -60.5t39 -47t79 -42t129.5 -45.5q110 -35 184.5 -73.5t120.5 -86t65.5 -106.5t19.5 -135q0 -107 -44.5 -189t-122 -138t-182 -85t-223.5 -29q-111 0 -195 20t-145 55.5t-101 85.5
t-63 110z" />
    <glyph glyph-name="uni0406" unicode="&#x406;" horiz-adv-x="803" 
d="M592 0h-602l39 188h186l215 1008h-186l39 188h602l-39 -188h-187l-215 -1008h187z" />
    <glyph glyph-name="uni0407" unicode="&#x407;" horiz-adv-x="803" 
d="M592 0h-602l39 188h186l215 1008h-186l39 188h602l-39 -188h-187l-215 -1008h187zM560 1684q0 -20 -5.5 -46t-16.5 -45q-19 -37 -49.5 -51t-81.5 -14q-59 0 -80 19.5t-21 54.5q0 14 4.5 39t14.5 47q15 38 46 55.5t85 17.5q57 0 80.5 -19.5t23.5 -57.5zM966 1684
q0 -20 -5.5 -46t-15.5 -45q-20 -37 -50.5 -51t-80.5 -14q-59 0 -80.5 19.5t-21.5 54.5q0 14 4.5 39t13.5 47q17 38 48 55.5t85 17.5q57 0 80 -19.5t23 -57.5z" />
    <glyph glyph-name="uni0408" unicode="&#x408;" horiz-adv-x="885" 
d="M688 377q-22 -108 -59 -185t-93.5 -126.5t-135.5 -73t-185 -23.5q-74 0 -143 14t-121 37l90 201q34 -20 83 -32.5t101 -12.5q58 0 98.5 14t69 46.5t48 85.5t36.5 131l197 931h227z" />
    <glyph glyph-name="uni0409" unicode="&#x409;" horiz-adv-x="1974" 
d="M825 0l250 1186h-317l-31 -142q-34 -158 -72 -299t-81.5 -260t-94 -213.5t-110.5 -160.5t-130 -101t-153 -35q-63 0 -105.5 13t-68.5 28l92 187q17 -10 37.5 -14.5t36.5 -4.5q63 0 121.5 58.5t113.5 177.5t108 300t105 427l49 237h771l-109 -512h217q115 0 199 -18.5
t138.5 -59t80.5 -104.5t26 -155q0 -25 -4 -55.5t-11.5 -63t-18 -65.5t-23.5 -62q-35 -79 -87 -134t-124 -89.5t-164 -50t-206 -15.5h-435zM1626 375q12 31 20.5 66t8.5 73q0 42 -12 72t-40 48.5t-73 27t-111 8.5h-225l-98 -465h207q121 0 203.5 39t119.5 131z" />
    <glyph glyph-name="uni040A" unicode="&#x40a;" horiz-adv-x="1956" 
d="M1223 862h213q115 0 199 -18t138.5 -58t80.5 -103t26 -153q0 -24 -4 -54.5t-11.5 -63t-18 -65t-23.5 -60.5q-35 -79 -87.5 -134t-124.5 -89t-164 -49t-206 -15h-430l139 659h-530l-139 -659h-230l293 1384h229l-110 -522h530l111 522h229zM1180 659l-99 -454h203
q122 0 204.5 38t119.5 128q12 31 20 65.5t8 71.5q0 41 -12 70t-39.5 47t-72.5 26t-111 8h-221z" />
    <glyph glyph-name="uni040B" unicode="&#x40b;" horiz-adv-x="1354" 
d="M639 1188l-74 -352q94 24 177 36.5t157 12.5q90 0 152 -19.5t101 -58.5t56 -97t17 -135q0 -74 -23 -184l-82 -391h-229l74 342q12 62 19 109.5t7 85.5q0 40 -9 68t-30 45t-55 24.5t-84 7.5q-69 0 -144.5 -14.5t-144.5 -34.5l-135 -633h-231l252 1188h-232l41 196h746
l-41 -196h-285z" />
    <glyph glyph-name="uni040C" unicode="&#x40c;" horiz-adv-x="1241" 
d="M573 1384l-122 -583h172q40 0 83.5 23.5t95 87.5t114 178t141.5 294h246q-77 -177 -140.5 -296.5t-119.5 -196t-108.5 -118.5t-107.5 -64q73 -37 115 -94.5t64 -142.5t30.5 -201.5t14.5 -270.5h-226q-8 166 -19 280.5t-35 185.5t-66.5 102.5t-114.5 31.5h-182l-127 -600
h-230l293 1384h229zM856 1544h-182l242 361h284z" />
    <glyph glyph-name="uni040D" unicode="&#x40d;" horiz-adv-x="1368" 
d="M51 0l293 1384h217l-215 -1011l752 1011h291l-293 -1384h-215l227 1081l-795 -1081h-262zM805 1544l-220 361h259l116 -361h-155z" />
    <glyph glyph-name="uni040E" unicode="&#x40e;" horiz-adv-x="1204" 
d="M645 631l473 753h256l-741 -1138q-58 -89 -107.5 -143t-99 -83t-103 -39t-120.5 -10q-28 0 -58.5 4t-61 10.5t-59 15.5t-51.5 19l107 185q16 -9 36.5 -17t41.5 -13t40.5 -8t34.5 -3q25 0 49.5 7t50 26t53 51t58.5 82l39 59l-247 995h231zM1186 1788q-14 -65 -42.5 -115
t-74 -83.5t-109.5 -50.5t-149 -17q-89 0 -147 19.5t-93 54.5t-49 84t-14 108h205q0 -81 25 -115.5t85 -34.5t97.5 35.5t56.5 114.5h209z" />
    <glyph glyph-name="uni040F" unicode="&#x40f;" horiz-adv-x="1350" 
d="M1077 0h-397l-57 -262h-230l58 262h-400l293 1384h231l-249 -1171h565l248 1171h231z" />
    <glyph glyph-name="uni0410" unicode="&#x410;" horiz-adv-x="1286" 
d="M-66 0l744 1384h299l166 -1384h-232l-37 319h-528l-174 -319h-238zM453 528h399l-70 623z" />
    <glyph glyph-name="uni0411" unicode="&#x411;" horiz-adv-x="1245" 
d="M455 827h219q120 0 207 -19.5t144 -61.5t84.5 -106.5t27.5 -154.5q0 -96 -34 -184t-106.5 -154.5t-186 -106.5t-271.5 -40h-488l293 1384h893l-41 -194h-664zM539 197q64 0 128 11.5t114.5 42.5t82 84t31.5 136q0 48 -16 79.5t-47.5 50t-77.5 25.5t-107 7h-233l-92 -436
h217z" />
    <glyph glyph-name="uni0412" unicode="&#x412;" horiz-adv-x="1260" 
d="M897 750q57 -8 105 -30t83 -58t54.5 -86t19.5 -113q0 -95 -34 -179.5t-104.5 -147.5t-177.5 -99.5t-253 -36.5h-539l293 1384h424q124 0 208 -17.5t135 -52.5t73 -88.5t22 -125.5q0 -61 -18 -115.5t-56 -100t-96 -80t-139 -54.5zM639 825q67 0 125 12.5t101 39.5t68 69.5
t25 102.5q0 75 -54 103t-167 28h-207l-75 -355h184zM547 209q68 0 133 9.5t116 36.5t82 75.5t31 126.5q0 51 -17.5 83t-53.5 50t-90 24.5t-127 6.5h-209l-88 -412h223z" />
    <glyph glyph-name="uni0413" unicode="&#x413;" horiz-adv-x="1044" 
d="M520 1186l-252 -1186h-227l293 1384h852l-41 -198h-625z" />
    <glyph glyph-name="uni0414" unicode="&#x414;" horiz-adv-x="1311" 
d="M-139 -262l96 459h119q54 78 116.5 189t125.5 257.5t123 330.5t108 410h756l-252 -1187h161l-98 -459h-227l57 262h-805l-57 -262h-223zM1034 1186h-313q-45 -177 -98.5 -329t-108 -276.5t-106.5 -221t-95 -160.5h510z" />
    <glyph glyph-name="uni0415" unicode="&#x415;" horiz-adv-x="1128" 
d="M51 0l293 1384h856l-45 -208h-627l-73 -351h532l-43 -209h-532l-88 -403h626l-43 -213h-856z" />
    <glyph glyph-name="uni0416" unicode="&#x416;" horiz-adv-x="1806" 
d="M1077 801h121q42 0 83.5 24.5t90.5 89t109.5 178t138.5 291.5h246q-75 -177 -139 -296.5t-121 -196t-109 -118.5t-104 -64q73 -37 115 -94.5t64 -142.5t30.5 -201.5t13.5 -270.5h-230q-8 159 -17 272.5t-31.5 186.5t-65 107t-117.5 34h-121l-127 -600h-229l127 600h-109
q-67 0 -122 -29t-110 -98t-115.5 -184.5t-137.5 -288.5h-242q71 155 128.5 271.5t115.5 201.5t124 142.5t155 93.5q-39 22 -72.5 64t-59 118.5t-40 196t-15.5 296.5h230q2 -123 9 -214t17.5 -155.5t25.5 -106t34 -65.5t42 -33t50 -9h135l123 583h229z" />
    <glyph glyph-name="uni0417" unicode="&#x417;" horiz-adv-x="1169" 
d="M176 346q15 -37 39.5 -70t58 -58t76 -39.5t94.5 -14.5q79 0 145.5 18.5t114.5 54.5t74.5 87.5t26.5 117.5q0 44 -10.5 77t-34.5 55t-64 33t-98 11h-264l43 197h272q54 0 103 15t85.5 44.5t58.5 73t22 101.5q0 44 -17 76.5t-47 53.5t-71.5 31.5t-90.5 10.5
q-103 0 -199 -34.5t-180 -94.5l-90 178q99 68 223 105.5t283 37.5q218 0 328 -91t110 -261q0 -51 -19 -103t-55 -98t-88 -84.5t-118 -62.5q78 -31 123 -98.5t45 -176.5q0 -101 -42.5 -187t-121.5 -148t-191 -97t-251 -35q-100 0 -176 18.5t-132.5 52t-95 81.5t-63.5 108z
" />
    <glyph glyph-name="uni0418" unicode="&#x418;" horiz-adv-x="1368" 
d="M51 0l293 1384h217l-215 -1011l752 1011h291l-293 -1384h-215l227 1081l-795 -1081h-262z" />
    <glyph glyph-name="uni0419" unicode="&#x419;" horiz-adv-x="1368" 
d="M51 0l293 1384h217l-215 -1011l752 1011h291l-293 -1384h-215l227 1081l-795 -1081h-262zM1231 1788q-14 -65 -42.5 -115t-74 -83.5t-109.5 -50.5t-149 -17q-89 0 -147 19.5t-93 54.5t-49 84t-14 108h205q0 -81 25 -115.5t85 -34.5t97.5 35.5t56.5 114.5h209z" />
    <glyph glyph-name="uni041A" unicode="&#x41a;" horiz-adv-x="1241" 
d="M573 1384l-122 -583h172q40 0 83.5 23.5t95 87.5t114 178t141.5 294h246q-77 -177 -140.5 -296.5t-119.5 -196t-108.5 -118.5t-107.5 -64q73 -37 115 -94.5t64 -142.5t30.5 -201.5t14.5 -270.5h-226q-8 166 -19 280.5t-35 185.5t-66.5 102.5t-114.5 31.5h-182l-127 -600
h-230l293 1384h229z" />
    <glyph glyph-name="uni041B" unicode="&#x41b;" horiz-adv-x="1366" 
d="M758 1186l-31 -142q-34 -158 -72 -299t-81.5 -260t-94 -213.5t-110.5 -160.5t-130 -101t-153 -35q-63 0 -105.5 13t-68.5 28l92 187q17 -10 37.5 -14.5t36.5 -4.5q63 0 121.5 58.5t113.5 177.5t108 300t105 427l49 237h811l-292 -1384h-228l250 1186h-358z" />
    <glyph glyph-name="uni041C" unicode="&#x41c;" horiz-adv-x="1597" 
d="M1104 0l221 1038l-494 -673h-137l-202 673l-220 -1038h-221l293 1384h270l207 -706l510 706h285l-293 -1384h-219z" />
    <glyph glyph-name="uni041D" unicode="&#x41d;" horiz-adv-x="1358" 
d="M856 0l129 610h-575l-129 -610h-230l293 1384h229l-118 -561h575l119 561h229l-293 -1384h-229z" />
    <glyph glyph-name="uni041E" unicode="&#x41e;" horiz-adv-x="1337" 
d="M588 -29q-135 0 -228 36.5t-150.5 101.5t-82.5 156t-25 200q0 54 5.5 115t18 124t31.5 127.5t46 126.5q40 96 94.5 179t129.5 144.5t172.5 96.5t225.5 35q114 0 203.5 -32t151 -95t93.5 -157.5t32 -219.5q0 -36 -3.5 -80.5t-11.5 -94.5t-20.5 -104.5t-30.5 -109.5
q-38 -121 -94 -222t-135 -173.5t-183.5 -113t-238.5 -40.5zM342 475q0 -81 14.5 -138t46 -92t79.5 -51t116 -16q151 0 249.5 99t158.5 288q29 90 43 180t14 158q0 157 -61 230t-197 73q-71 0 -127.5 -21t-102 -61.5t-82 -98.5t-67.5 -132q-21 -53 -37 -108.5t-26.5 -110
t-15.5 -105.5t-5 -94z" />
    <glyph glyph-name="uni041F" unicode="&#x41f;" horiz-adv-x="1343" 
d="M51 0l293 1384h1020l-293 -1384h-231l250 1180h-558l-249 -1180h-232z" />
    <glyph glyph-name="uni0420" unicode="&#x420;" horiz-adv-x="1186" 
d="M1202 1053q0 -74 -12 -147.5t-38.5 -140.5t-70 -124.5t-106 -100t-146.5 -67t-192 -24.5h-262l-94 -449h-230l293 1384h459q95 0 169.5 -17.5t125.5 -56.5t77.5 -102t26.5 -155zM633 655q98 0 161 31t99.5 82.5t50.5 117.5t14 136q0 40 -10.5 69t-34.5 48.5t-63 29
t-96 9.5h-224l-110 -523h213z" />
    <glyph glyph-name="uni0421" unicode="&#x421;" horiz-adv-x="1282" 
d="M1159 231q-48 -57 -104 -104.5t-124 -82t-151 -54t-186 -19.5q-249 0 -370.5 127t-121.5 379q0 55 7 120t21 134t36.5 139.5t54.5 137.5q40 83 97.5 156.5t134 129t172.5 87.5t215 32q98 0 174.5 -19t134.5 -53.5t99.5 -84.5t70.5 -111l-203 -121q-21 48 -47.5 82
t-62 56.5t-81 33t-104.5 10.5q-68 0 -125.5 -20.5t-104.5 -57t-84 -87t-63 -109.5q-25 -58 -44 -117.5t-31.5 -117.5t-18.5 -113.5t-6 -104.5q0 -78 19 -135t52.5 -94t80.5 -54.5t104 -17.5q66 0 121 12.5t102.5 37t90 61.5t83.5 86z" />
    <glyph glyph-name="uni0422" unicode="&#x422;" horiz-adv-x="1169" 
d="M836 1171l-248 -1171h-228l248 1171h-434l45 213h1096l-45 -213h-434z" />
    <glyph glyph-name="uni0423" unicode="&#x423;" horiz-adv-x="1204" 
d="M645 631l473 753h256l-741 -1138q-58 -89 -107.5 -143t-99 -83t-103 -39t-120.5 -10q-28 0 -58.5 4t-61 10.5t-59 15.5t-51.5 19l107 185q16 -9 36.5 -17t41.5 -13t40.5 -8t34.5 -3q25 0 49.5 7t50 26t53 51t58.5 82l39 59l-247 995h231z" />
    <glyph glyph-name="uni0424" unicode="&#x424;" horiz-adv-x="1495" 
d="M522 -47l41 192q-127 11 -215.5 44t-144.5 88t-81.5 132t-25.5 175q0 28 6.5 73t19.5 97.5t33 106.5t48 100q81 135 227 202t367 82l39 187h211l-39 -187q120 -10 208 -41t145.5 -84.5t85.5 -130.5t28 -178q0 -38 -7 -88.5t-22 -105.5t-38.5 -111t-57.5 -105
q-85 -122 -227.5 -182t-350.5 -74l-39 -192h-211zM758 1055q-65 -4 -118 -16t-96 -33.5t-76 -54t-58 -77.5q-36 -61 -56 -138t-20 -152q0 -56 12 -100.5t43 -76t83 -49.5t132 -22zM813 336q114 6 194 41.5t136 114.5q45 65 69.5 148t24.5 167q0 57 -14 101t-46 75t-83.5 49
t-126.5 23z" />
    <glyph glyph-name="uni0425" unicode="&#x425;" horiz-adv-x="1221" 
d="M-70 0l598 717l-288 667h247l203 -497l406 497h268l-588 -690l295 -694h-248l-211 524l-415 -524h-267z" />
    <glyph glyph-name="uni0426" unicode="&#x426;" horiz-adv-x="1352" 
d="M51 0l293 1384h229l-249 -1171h546l248 1171h228l-250 -1175h161l-100 -471h-225l57 262h-938z" />
    <glyph glyph-name="uni0427" unicode="&#x427;" horiz-adv-x="1245" 
d="M264 1384h228l-74 -352q-14 -63 -21.5 -111t-7.5 -83q0 -41 10 -69t32 -45t57 -24.5t85 -7.5q76 0 162 13.5t164 33.5l135 645h232l-293 -1384h-232l115 539q-204 -52 -369 -52q-90 0 -152.5 20t-101.5 59t-57 97t-18 134q0 40 5.5 85.5t16.5 98.5z" />
    <glyph glyph-name="uni0428" unicode="&#x428;" horiz-adv-x="1845" 
d="M1386 209l250 1175h230l-293 -1384h-1522l293 1384h229l-249 -1175h417l250 1175h228l-250 -1175h417z" />
    <glyph glyph-name="uni0429" unicode="&#x429;" horiz-adv-x="1870" 
d="M51 0l293 1384h229l-249 -1175h417l250 1175h228l-250 -1175h417l250 1175h230l-250 -1177h162l-101 -469h-229l57 262h-1454z" />
    <glyph glyph-name="uni042A" unicode="&#x42a;" horiz-adv-x="1466" 
d="M219 1384h619l-109 -512h217q115 0 199 -18.5t138.5 -59t81 -104.5t26.5 -155q0 -25 -4 -55.5t-11.5 -63t-18.5 -65.5t-24 -62q-35 -79 -87 -134t-124 -89.5t-164 -50t-206 -15.5h-435l250 1186h-389zM1118 375q13 31 21 66t8 73q0 42 -12 72t-40 48.5t-73 27t-111 8.5
h-225l-98 -465h207q121 0 203.5 39t119.5 131z" />
    </font>
</defs>
</svg>
