<?xml version="1.0" standalone="no"?>
<!DOCTYPE svg PUBLIC "-//W3C//DTD SVG 1.1//EN" "http://www.w3.org/Graphics/SVG/1.1/DTD/svg11.dtd" >
<svg>
<metadata>
Created by FontForge 20120731 at Fri Aug  1 16:50:30 2014
 By Alfred Xing
Copyright \(c\) 2011-2012, Julieta Ulanovsky \(julieta.ulanovsky@gmail.com\), with Reserved Font Names 'Montserrat'
</metadata>
<defs>
<font id="Montserrat-Regular" horiz-adv-x="274" >
  <font-face 
    font-family="Montserrat"
    font-weight="400"
    font-stretch="normal"
    units-per-em="1000"
    panose-1="2 0 5 5 0 0 0 2 0 4"
    ascent="800"
    descent="-200"
    x-height="530"
    cap-height="699"
    bbox="-110 -250 1130 932"
    underline-thickness="50"
    underline-position="-50"
    stemh="98"
    stemv="112"
    unicode-range="U+000D-FB02"
  />
<missing-glyph 
 />
    <glyph glyph-name=".notdef" 
 />
    <glyph glyph-name="NULL" horiz-adv-x="0" 
 />
    <glyph glyph-name="NULL" horiz-adv-x="0" 
 />
    <glyph glyph-name="CR" unicode="&#xd;" 
 />
    <glyph glyph-name="space" unicode=" " 
 />
    <glyph glyph-name="exclam" unicode="!" horiz-adv-x="295" 
d="M78 716h140v-129l-30 -361h-80l-30 361v129zM74 66c0 41 34 75 74 75c41 0 75 -34 75 -75c0 -40 -34 -74 -75 -74c-40 0 -74 34 -74 74z" />
    <glyph glyph-name="quotedbl" unicode="&#x22;" horiz-adv-x="374" 
d="M77 453v246h78v-246h-78zM219 453v246h78v-246h-78z" />
    <glyph glyph-name="numbersign" unicode="#" horiz-adv-x="735" 
d="M671 436h-108l-29 -166h123l-22 -110h-119l-28 -160h-111l28 160h-147l-28 -160h-112l28 160h-103l22 110h100l29 166h-114l22 110h111l29 170h111l-29 -170h147l29 170h112l-31 -170h112zM453 436h-147l-30 -166h147z" />
    <glyph glyph-name="dollar" unicode="$" horiz-adv-x="619" 
d="M283 -72v73c-90 9 -174 46 -246 109l73 87c54 -47 108 -77 173 -87v194c-140 33 -218 80 -218 203c0 115 90 193 218 200v50h64v-51c78 -6 143 -31 208 -75l-65 -92c-47 33 -96 51 -143 58v-188h3c147 -35 223 -88 223 -202c0 -125 -92 -200 -226 -207v-72h-64zM451 195
c0 42 -21 67 -104 92v-180c64 6 104 39 104 88zM187 518c0 -44 20 -67 96 -91v173c-62 -5 -96 -40 -96 -82z" />
    <glyph glyph-name="percent" unicode="%" horiz-adv-x="786" 
d="M346 557c0 -87 -64 -160 -152 -160c-87 0 -150 72 -150 159s64 160 152 160c87 0 150 -72 150 -159zM710 699l-512 -699h-129l512 699h129zM252 555c0 40 -27 71 -58 71c-33 0 -57 -31 -57 -71s27 -71 58 -71c33 0 57 31 57 71zM743 152c0 -87 -64 -160 -152 -160
c-87 0 -150 72 -150 159s64 160 152 160c87 0 150 -72 150 -159zM651 148c0 40 -27 71 -58 71c-33 0 -57 -31 -57 -71s27 -71 58 -71c33 0 57 31 57 71z" />
    <glyph glyph-name="ampersand" unicode="&#x26;" horiz-adv-x="694" 
d="M547 330l82 -58c-18 -48 -38 -88 -59 -121c29 -29 61 -60 102 -99l-75 -70l-92 91c-72 -66 -151 -81 -220 -81c-123 0 -236 72 -236 204c0 80 61 146 164 201c-46 53 -74 86 -74 153c0 112 95 166 207 166c84 0 183 -50 183 -156c0 -75 -62 -133 -160 -187
c36 -44 63 -80 130 -150c21 31 37 67 48 107zM292 89c46 0 96 21 141 58c-76 80 -132 144 -160 178c-65 -35 -113 -81 -113 -134c0 -61 59 -102 132 -102zM250 552c0 -33 20 -60 60 -108c79 39 113 71 113 104c0 57 -46 79 -89 79c-38 0 -84 -28 -84 -75z" />
    <glyph glyph-name="quotesingle" unicode="'" horiz-adv-x="232" 
d="M77 453v246h78v-246h-78z" />
    <glyph glyph-name="parenleft" unicode="(" horiz-adv-x="332" 
d="M161 312c0 -158 64 -341 138 -445h-119c-58 80 -130 266 -130 445s72 365 130 445h119c-74 -104 -138 -287 -138 -445z" />
    <glyph glyph-name="parenright" unicode=")" horiz-adv-x="332" 
d="M171 312c0 158 -64 341 -138 445h119c58 -80 130 -266 130 -445s-72 -365 -130 -445h-119c74 104 138 287 138 445z" />
    <glyph glyph-name="asterisk" unicode="*" horiz-adv-x="432" 
d="M337 430l-95 64l8 -114h-68l8 115l-95 -64l-34 58l102 51l-102 50l34 59l94 -63l-7 113h68l-7 -113l94 62l34 -58l-103 -50l103 -51z" />
    <glyph glyph-name="plus" unicode="+" horiz-adv-x="568" 
d="M239 150v190h-191v94h191v188h90v-188h191v-94h-191v-190h-90z" />
    <glyph glyph-name="comma" unicode="," horiz-adv-x="281" 
d="M70 -105l37 104c-24 11 -41 36 -41 66c0 44 35 75 73 75c41 0 76 -31 76 -75c0 -26 -12 -47 -27 -71l-60 -99h-58z" />
    <glyph glyph-name="hyphen" unicode="-" horiz-adv-x="476" 
d="M72 246v105h332v-105h-332z" />
    <glyph glyph-name="period" unicode="." horiz-adv-x="280" 
d="M66 67c0 41 33 74 74 74c42 0 75 -33 75 -74s-34 -75 -75 -75s-74 33 -74 75z" />
    <glyph glyph-name="slash" unicode="/" horiz-adv-x="587" 
d="M461 811h100l-433 -928h-100z" />
    <glyph glyph-name="zero" unicode="0" horiz-adv-x="688" 
d="M173 354c0 -145 47 -261 171 -261s169 116 169 261s-45 261 -169 261s-171 -116 -171 -261zM59 354c0 208 86 362 285 362s285 -154 285 -362s-86 -362 -285 -362s-285 154 -285 362z" />
    <glyph glyph-name="one" unicode="1" horiz-adv-x="381" 
d="M29 699h254v-699h-112v594h-142v105z" />
    <glyph glyph-name="two" unicode="2" horiz-adv-x="589" 
d="M401 503c0 65 -48 107 -113 107c-72 0 -114 -43 -143 -88l-95 55c57 86 124 139 239 139c118 0 225 -74 225 -207c0 -71 -30 -126 -131 -229l-164 -167h317v-113h-478v100l212 213c85 86 131 139 131 190z" />
    <glyph glyph-name="three" unicode="3" horiz-adv-x="578" 
d="M330 594h-253v105h409v-92l-169 -189c135 -4 204 -98 204 -198c0 -148 -115 -229 -253 -229c-74 0 -156 24 -229 73l50 95c53 -37 121 -60 180 -60c74 0 140 33 140 115c0 63 -58 113 -166 113c-23 0 -49 -3 -75 -11v90z" />
    <glyph glyph-name="four" unicode="4" horiz-adv-x="572" 
d="M170 283h167v128h112v-128h84v-107h-84v-176h-112v176h-300v104l257 419h129z" />
    <glyph glyph-name="five" unicode="5" horiz-adv-x="579" 
d="M486 700v-107h-295v-172c35 19 67 24 100 24c123 0 240 -78 240 -220c0 -135 -113 -233 -256 -233c-131 0 -201 67 -225 94l63 86s68 -67 159 -67c75 0 142 37 142 117c0 82 -71 121 -151 121c-43 0 -89 -11 -129 -33l-50 54v336h402z" />
    <glyph glyph-name="six" unicode="6" horiz-adv-x="620" 
d="M543 641l-59 -87s-62 52 -130 52c-130 0 -181 -99 -182 -233c26 30 92 77 176 77c122 0 221 -88 221 -227c0 -144 -106 -231 -241 -231c-201 0 -268 168 -268 356c0 265 135 364 282 364c103 0 161 -40 201 -71zM191 223c0 -67 58 -128 134 -128c83 0 140 52 140 122
c0 69 -48 129 -134 129c-75 0 -140 -45 -140 -123z" />
    <glyph glyph-name="seven" unicode="7" horiz-adv-x="566" 
d="M46 498v201h492v-105l-296 -594h-130l289 592h-248v-94h-107z" />
    <glyph glyph-name="eight" unicode="8" horiz-adv-x="636" 
d="M318 713c133 0 235 -77 235 -189c0 -66 -36 -108 -75 -140c58 -37 101 -95 101 -180c0 -117 -102 -212 -261 -212s-261 95 -261 212c0 85 43 143 101 180c-39 32 -75 74 -75 140c0 112 102 189 235 189zM318 94c59 0 144 34 144 112c0 83 -79 117 -144 117
s-144 -34 -144 -117c0 -78 85 -112 144 -112zM318 411c65 0 126 43 126 108c0 56 -58 102 -126 102s-126 -46 -126 -102c0 -65 61 -108 126 -108z" />
    <glyph glyph-name="nine" unicode="9" horiz-adv-x="619" 
d="M77 63l59 87s62 -52 130 -52c130 0 181 99 182 233c-26 -30 -92 -77 -176 -77c-122 0 -221 88 -221 227c0 144 106 231 241 231c201 0 268 -168 268 -356c0 -265 -135 -364 -282 -364c-103 0 -161 40 -201 71zM429 481c0 67 -58 128 -134 128c-83 0 -137 -52 -137 -122
c0 -69 45 -129 131 -129c75 0 140 45 140 123z" />
    <glyph glyph-name="colon" unicode=":" horiz-adv-x="293" 
d="M72 67c0 41 33 74 74 74c42 0 75 -33 75 -74s-34 -75 -75 -75s-74 33 -74 75zM72 312c0 41 33 74 74 74c42 0 75 -33 75 -74s-34 -75 -75 -75s-74 33 -74 75z" />
    <glyph glyph-name="semicolon" unicode=";" horiz-adv-x="296" 
d="M77 -105l37 104c-23 12 -41 37 -41 67c0 44 35 75 73 75c42 0 77 -31 77 -75c0 -26 -13 -48 -27 -72l-61 -99h-58zM73 312c0 41 33 74 74 74c42 0 75 -33 75 -74s-34 -75 -75 -75s-74 33 -74 75z" />
    <glyph glyph-name="less" unicode="&#x3c;" horiz-adv-x="592" 
d="M45 334v126l471 218v-114l-352 -159v-11l352 -163v-114z" />
    <glyph glyph-name="equal" unicode="=" horiz-adv-x="624" 
d="M60 528h504v-94h-504v94zM60 340h504v-94h-504v94z" />
    <glyph glyph-name="greater" unicode="&#x3e;" horiz-adv-x="592" 
d="M547 460v-126l-471 -217v114l352 163v11l-352 159v114z" />
    <glyph glyph-name="question" unicode="?" horiz-adv-x="508" 
d="M302 217h-113v61c0 56 12 71 51 111l73 73c15 16 23 38 23 61c0 50 -36 87 -85 87c-53 0 -89 -35 -94 -86h-121c14 120 99 190 220 190c112 0 199 -65 199 -184c0 -82 -48 -122 -103 -173c-34 -34 -50 -46 -50 -95v-45zM170 68c0 41 35 75 77 75c41 0 77 -32 77 -73
s-35 -75 -77 -75c-40 0 -77 32 -77 73z" />
    <glyph glyph-name="at" unicode="@" horiz-adv-x="904" 
d="M630 -22l22 -37c-48 -41 -135 -67 -206 -67c-224 0 -395 168 -395 391c0 226 182 408 407 408c224 0 399 -182 399 -411c0 -144 -59 -241 -150 -241c-65 0 -106 46 -109 129c-42 -96 -111 -129 -179 -129c-109 0 -217 97 -217 245c0 135 86 249 226 249
c63 0 123 -39 146 -81v67h96v-349c0 -51 24 -70 55 -70c38 0 82 60 82 165c0 206 -135 382 -349 382c-199 0 -363 -164 -363 -364c0 -198 152 -347 351 -347c64 0 139 18 184 60zM436 418c-81 0 -133 -69 -133 -146c0 -83 49 -158 134 -158c90 0 138 73 138 157
c0 81 -52 147 -139 147z" />
    <glyph glyph-name="A" unicode="A" horiz-adv-x="742" 
d="M196 159l-70 -159h-126l308 699h126l308 -699h-126l-70 159h-350zM498 268l-127 288l-127 -288h254z" />
    <glyph glyph-name="B" unicode="B" horiz-adv-x="706" 
d="M403 0h-306v699h272c201 0 247 -106 247 -185c0 -107 -69 -135 -103 -151c86 -18 142 -80 142 -169c0 -86 -51 -194 -252 -194zM215 409h150c74 0 128 22 128 87c0 69 -43 94 -127 94h-151v-181zM215 109h185c78 0 134 17 134 98c0 69 -67 93 -149 93h-170v-191z" />
    <glyph glyph-name="C" unicode="C" horiz-adv-x="736" 
d="M416 107c86 0 137 30 197 86l76 -78c-58 -64 -142 -123 -273 -123c-205 0 -364 150 -364 362c0 207 163 362 368 362c134 0 221 -56 279 -120l-75 -82c-67 64 -120 86 -199 86c-138 0 -250 -96 -250 -248c0 -137 112 -245 241 -245z" />
    <glyph glyph-name="D" unicode="D" horiz-adv-x="782" 
d="M727 350c0 -202 -117 -350 -398 -350h-232v699h240c253 0 390 -130 390 -349zM608 350c0 149 -83 240 -275 240h-118v-479h131c168 0 262 81 262 239z" />
    <glyph glyph-name="E" unicode="E" horiz-adv-x="654" 
d="M588 699v-111h-373v-185h335v-105h-335v-187h385v-111h-503v699h491z" />
    <glyph glyph-name="F" unicode="F" horiz-adv-x="604" 
d="M563 699l-1 -110h-347v-192h310v-109h-310v-288h-118v699h466z" />
    <glyph glyph-name="G" unicode="G" horiz-adv-x="757" 
d="M581 340h118v-239c-58 -64 -152 -109 -283 -109c-205 0 -364 150 -364 362c0 207 163 362 368 362c111 0 190 -38 247 -88l-63 -90c-57 49 -109 62 -179 62c-138 0 -250 -96 -250 -248c0 -154 110 -247 242 -247c61 0 117 13 164 43v192z" />
    <glyph glyph-name="H" unicode="H" horiz-adv-x="777" 
d="M97 0v699h118v-303h347v303h118v-699h-118v286h-347v-286h-118z" />
    <glyph glyph-name="I" unicode="I" horiz-adv-x="312" 
d="M97 699h118v-699h-118v699z" />
    <glyph glyph-name="J" unicode="J" horiz-adv-x="551" 
d="M120 593v106h340v-461c0 -172 -101 -244 -221 -244c-75 0 -148 26 -208 86l67 93c40 -38 83 -65 133 -65c56 0 111 36 111 124v361h-222z" />
    <glyph glyph-name="K" unicode="K" horiz-adv-x="704" 
d="M97 699h118v-341l320 341h150l-281 -306l285 -393h-140l-232 306l-102 -110v-196h-118v699z" />
    <glyph glyph-name="L" unicode="L" horiz-adv-x="566" 
d="M97 0v699h118v-587h319v-112h-437z" />
    <glyph glyph-name="M" unicode="M" horiz-adv-x="983" 
d="M458 61l-243 485v-546h-118v699h184l211 -439l211 439h183v-699h-118v546l-244 -485h-66z" />
    <glyph glyph-name="N" unicode="N" horiz-adv-x="836" 
d="M621 177v522h118v-699h-128l-396 510v-510h-118v699h118z" />
    <glyph glyph-name="O" unicode="O" horiz-adv-x="840" 
d="M420 608c-140 0 -247 -114 -247 -254c0 -139 107 -253 247 -253s247 114 247 253c0 140 -107 254 -247 254zM420 -7c-207 0 -368 155 -368 362c0 206 161 361 368 361s368 -155 368 -361c0 -207 -161 -362 -368 -362z" />
    <glyph glyph-name="P" unicode="P" horiz-adv-x="684" 
d="M642 457c0 -182 -103 -252 -303 -252h-124v-205h-118v699h240c217 0 305 -86 305 -242zM521 457c0 104 -63 135 -186 135h-120v-280h137c141 0 169 63 169 145z" />
    <glyph glyph-name="Q" unicode="Q" horiz-adv-x="840" 
d="M420 -7c-207 0 -368 155 -368 362c0 206 161 361 368 361s368 -155 368 -361c0 -159 -94 -286 -231 -338c21 -28 53 -45 86 -45c50 0 104 29 130 72l67 -93c-58 -61 -131 -92 -199 -92c-80 0 -172 47 -206 135c-5 0 -10 -1 -15 -1zM420 608c-140 0 -247 -114 -247 -254
c0 -139 107 -253 247 -253s247 114 247 253c0 140 -107 254 -247 254z" />
    <glyph glyph-name="R" unicode="R" horiz-adv-x="728" 
d="M655 472c0 -124 -54 -189 -151 -218l183 -254h-150l-167 235h-31h-124v-235h-118v699h260c217 0 298 -71 298 -227zM534 472c0 94 -44 120 -169 120h-150v-250h147c141 0 172 46 172 130z" />
    <glyph glyph-name="S" unicode="S" horiz-adv-x="630" 
d="M191 522c0 -55 32 -79 165 -111c148 -36 225 -90 225 -207c0 -133 -103 -212 -250 -212c-106 0 -207 38 -291 113l74 89c67 -58 134 -92 220 -92c76 0 124 36 124 90c0 51 -28 77 -157 108c-149 35 -233 81 -233 211c0 141 116 205 245 205c87 0 181 -29 247 -84l-63 -89
c-42 38 -121 64 -188 64c-64 0 -118 -24 -118 -85z" />
    <glyph glyph-name="T" unicode="T" horiz-adv-x="604" 
d="M361 591v-591h-118v591h-212v108h542v-108h-212z" />
    <glyph glyph-name="U" unicode="U" horiz-adv-x="768" 
d="M384 104c109 0 178 79 178 208v387h118v-392c0 -209 -131 -314 -296 -314s-296 105 -296 314v392h118v-387c0 -129 69 -208 178 -208z" />
    <glyph glyph-name="V" unicode="V" horiz-adv-x="700" 
d="M416 0h-132l-281 699h132l215 -522l215 522h132z" />
    <glyph glyph-name="W" unicode="W" horiz-adv-x="1048" 
d="M315 196l156 503h106l156 -503l176 503h127l-244 -699h-117l-147 479h-8l-147 -479h-117l-244 699h127z" />
    <glyph glyph-name="X" unicode="X" horiz-adv-x="673" 
d="M511 0l-172 263h-5l-172 -263h-147l240 359l-223 340h146l156 -236h5l156 236h146l-223 -340l240 -359h-147z" />
    <glyph glyph-name="Y" unicode="Y" horiz-adv-x="624" 
d="M372 0h-120v276l-260 423h129l191 -318l191 318h129l-260 -423v-276z" />
    <glyph glyph-name="Z" unicode="Z" horiz-adv-x="675" 
d="M454 591h-394v108h558v-92l-406 -495v-3h412v-109h-577v91l407 497v3z" />
    <glyph glyph-name="bracketleft" unicode="[" horiz-adv-x="355" 
d="M314 757v-84h-138v-729h138v-84h-226v897h226z" />
    <glyph glyph-name="backslash" unicode="\" horiz-adv-x="522" 
d="M28 757h100l364 -757h-100z" />
    <glyph glyph-name="bracketright" unicode="]" horiz-adv-x="355" 
d="M41 673v84h226v-897h-226v84h138v729h-138z" />
    <glyph glyph-name="asciicircum" unicode="^" horiz-adv-x="394" 
d="M273 742l-77 83l-77 -83h-97l122 156h102l121 -156h-94z" />
    <glyph glyph-name="underscore" unicode="_" horiz-adv-x="722" 
d="M72 -138v57h578v-57h-578z" />
    <glyph glyph-name="grave" unicode="`" horiz-adv-x="833" 
d="M540 600h-102l-122 96l118 49z" />
    <glyph glyph-name="a" unicode="a" horiz-adv-x="587" 
d="M512 0h-102v71c-36 -43 -97 -79 -177 -79c-108 0 -192 67 -192 171c0 111 89 158 215 158h145v20c0 80 -53 106 -118 106c-58 0 -102 -19 -154 -54l-50 70c73 58 143 77 220 77c113 0 213 -51 213 -197v-343zM400 198v45h-126c-65 0 -121 -17 -121 -76
c0 -54 48 -80 107 -80c78 0 140 42 140 111z" />
    <glyph glyph-name="b" unicode="b" horiz-adv-x="672" 
d="M625 266c0 -166 -123 -274 -251 -274c-64 0 -128 30 -181 88v-80h-112v742h112v-303c47 72 113 101 179 101c126 0 253 -97 253 -274zM348 92c85 0 165 67 165 173c0 102 -74 177 -165 177c-84 0 -157 -73 -157 -179c0 -101 73 -171 157 -171z" />
    <glyph glyph-name="c" unicode="c" horiz-adv-x="576" 
d="M541 90c-66 -67 -147 -98 -224 -98c-142 0 -271 105 -271 273c0 169 135 275 281 275c72 0 152 -26 209 -83l-66 -81c-37 32 -79 60 -140 60c-88 0 -172 -64 -172 -169c0 -95 77 -173 174 -173c59 0 105 29 143 68z" />
    <glyph glyph-name="d" unicode="d" horiz-adv-x="672" 
d="M47 266c0 177 130 274 256 274c66 0 130 -26 176 -90v292h112v-742h-112v80c-45 -64 -117 -88 -181 -88c-128 0 -251 105 -251 274zM324 91c84 0 157 70 157 171c0 107 -73 180 -157 180c-91 0 -165 -75 -165 -178c0 -106 80 -173 165 -173z" />
    <glyph glyph-name="e" unicode="e" horiz-adv-x="618" 
d="M576 217h-417c6 -81 85 -129 165 -129c55 0 114 17 152 63l64 -70c-69 -71 -149 -89 -224 -89c-143 0 -269 102 -269 273c0 179 134 275 267 275c140 0 262 -87 262 -246v-77zM159 305h305c0 95 -70 139 -144 139c-78 0 -161 -49 -161 -139z" />
    <glyph glyph-name="f" unicode="f" horiz-adv-x="386" 
d="M219 576v-44h140v-90h-140v-442h-112v442h-67v90h67v41c0 117 82 183 171 183c45 0 92 -17 132 -53l-46 -79c-18 19 -42 35 -72 35c-44 0 -73 -33 -73 -83z" />
    <glyph glyph-name="g" unicode="g" horiz-adv-x="654" 
d="M573 532v-464c0 -200 -127 -282 -268 -282c-76 0 -157 25 -222 75l53 85c49 -37 109 -59 163 -59c89 0 167 44 167 172v68c-32 -60 -96 -103 -176 -103c-142 0 -242 110 -242 262c0 138 97 254 242 254c78 0 136 -41 171 -87v79h112zM309 126c90 0 152 70 152 160
s-62 164 -152 164c-99 0 -151 -83 -151 -164s52 -160 151 -160z" />
    <glyph glyph-name="h" unicode="h" horiz-adv-x="646" 
d="M193 288v-288h-112v741h112v-306c32 66 104 105 177 105c115 0 201 -70 201 -214v-326h-112v292c0 102 -45 147 -122 147c-70 0 -144 -45 -144 -151z" />
    <glyph glyph-name="i" unicode="i" 
d="M193 0h-112v532h112v-532zM67 688c0 39 32 71 71 71s71 -32 71 -71s-32 -71 -71 -71s-71 32 -71 71z" />
    <glyph glyph-name="j" unicode="j" 
d="M81 -25v557h112v-561c0 -117 -82 -183 -171 -183c-45 0 -92 17 -132 53l52 84c24 -23 52 -33 74 -33c37 0 65 29 65 83zM65 688c0 39 32 71 71 71s71 -32 71 -71s-32 -71 -71 -71s-71 32 -71 71z" />
    <glyph glyph-name="k" unicode="k" horiz-adv-x="581" 
d="M351 321l217 -321h-136l-158 233l-81 -82v-151h-112v742h112v-436l216 226h144z" />
    <glyph glyph-name="l" unicode="l" 
d="M193 0h-112v742h112v-742z" />
    <glyph glyph-name="m" unicode="m" horiz-adv-x="1014" 
d="M193 288v-288h-112v532h112v-97c32 66 104 105 177 105c80 0 141 -34 171 -104c56 74 121 104 197 104c115 0 201 -70 201 -214v-326h-112v292c0 102 -45 147 -122 147c-69 0 -141 -43 -144 -143v-296h-112v292c0 102 -35 147 -112 147c-70 0 -144 -45 -144 -151z" />
    <glyph glyph-name="n" unicode="n" horiz-adv-x="646" 
d="M193 288v-288h-112v532h112v-97c36 66 104 105 177 105c115 0 201 -70 201 -214v-326h-112v292c0 102 -45 147 -122 147c-70 0 -144 -45 -144 -151z" />
    <glyph glyph-name="o" unicode="o" horiz-adv-x="652" 
d="M326 92c97 0 168 71 168 174s-71 174 -168 174s-168 -71 -168 -174s71 -174 168 -174zM326 -8c-162 0 -280 122 -280 274s118 274 280 274s280 -122 280 -274s-118 -274 -280 -274z" />
    <glyph glyph-name="p" unicode="p" horiz-adv-x="672" 
d="M625 266c0 -166 -123 -274 -251 -274c-68 0 -128 30 -181 88v-274h-112v726h112v-93c47 72 113 101 179 101c126 0 253 -97 253 -274zM348 92c85 0 165 67 165 173c0 102 -74 177 -165 177c-84 0 -157 -73 -157 -179c0 -101 73 -171 157 -171z" />
    <glyph glyph-name="q" unicode="q" horiz-adv-x="672" 
d="M47 266c0 177 127 274 253 274c66 0 132 -29 179 -101v93h112v-726h-112v274c-53 -58 -113 -88 -181 -88c-128 0 -251 108 -251 274zM324 92c84 0 157 70 157 171c0 106 -73 179 -157 179c-91 0 -165 -75 -165 -177c0 -106 80 -173 165 -173z" />
    <glyph glyph-name="r" unicode="r" horiz-adv-x="397" 
d="M365 540l1 -113c-121 3 -173 -85 -173 -199v-228h-112v532h112v-107c35 65 101 113 172 115z" />
    <glyph glyph-name="s" unicode="s" horiz-adv-x="506" 
d="M460 164c0 -111 -86 -172 -196 -172c-75 0 -165 28 -231 80l54 87c57 -43 126 -70 180 -70c52 0 82 27 82 62c0 43 -56 57 -118 76c-66 18 -166 56 -166 150c0 102 92 163 197 163c66 0 128 -17 184 -54l-42 -83c-42 28 -96 43 -141 43c-51 0 -90 -18 -90 -58
c0 -47 61 -48 123 -68c77 -24 164 -57 164 -156z" />
    <glyph glyph-name="t" unicode="t" horiz-adv-x="418" 
d="M219 442v-270c0 -50 29 -83 73 -83c30 0 54 16 72 35l46 -79c-40 -36 -87 -53 -132 -53c-89 0 -171 66 -171 183v267h-67v90h67v167h112v-167h140v-90h-140z" />
    <glyph glyph-name="u" unicode="u" horiz-adv-x="646" 
d="M453 244v288h112v-532h-112v97c-36 -66 -104 -105 -177 -105c-115 0 -201 70 -201 214v326h112v-292c0 -102 45 -147 122 -147c70 0 144 45 144 151z" />
    <glyph glyph-name="v" unicode="v" horiz-adv-x="572" 
d="M222 0l-214 532h116l162 -402l162 402h116l-214 -532h-128z" />
    <glyph glyph-name="w" unicode="w" horiz-adv-x="912" 
d="M330 0h-128l-184 532h116l132 -402l132 402h116l132 -402l132 402h116l-184 -532h-128l-126 364z" />
    <glyph glyph-name="x" unicode="x" horiz-adv-x="558" 
d="M166 532l114 -175l118 175h133l-186 -260l194 -272h-138l-127 177l-124 -177h-131l189 271l-179 261h137z" />
    <glyph glyph-name="y" unicode="y" horiz-adv-x="574" 
d="M567 532l-258 -632c-31 -70 -92 -112 -161 -112c-45 0 -92 17 -132 53l51 91c20 -19 50 -33 78 -33c44 0 79 45 79 86c0 8 1 12 -215 547h120l159 -392l159 392h120z" />
    <glyph glyph-name="z" unicode="z" horiz-adv-x="541" 
d="M335 434h-271v96h416v-101l-299 -332h315v-97h-452v109z" />
    <glyph glyph-name="braceleft" unicode="{" horiz-adv-x="336" 
d="M284 -146h-34c-63 0 -136 20 -136 132v216c0 46 -17 60 -50 60h-24v93h24c33 0 50 15 50 62v208c0 112 73 132 136 132h34v-93s-70 13 -70 -56v-217c0 -55 -29 -75 -66 -82c37 -6 66 -28 66 -81v-235c0 -34 14 -46 70 -46v-93z" />
    <glyph glyph-name="bar" unicode="|" horiz-adv-x="257" 
d="M87 -153v935h83v-935h-83z" />
    <glyph glyph-name="braceright" unicode="}" horiz-adv-x="336" 
d="M86 -146h-34v93c56 0 70 12 70 46v235c0 53 29 75 66 81c-37 7 -66 27 -66 82v217c0 69 -70 56 -70 56v93h34c63 0 136 -20 136 -132v-208c0 -47 17 -62 50 -62h24v-93h-24c-33 0 -50 -14 -50 -60v-216c0 -112 -73 -132 -136 -132z" />
    <glyph glyph-name="asciitilde" unicode="~" horiz-adv-x="565" 
d="M286 329c-25 11 -72 41 -102 41c-26 0 -42 -18 -47 -65l-87 25c8 97 62 141 135 141c33 0 55 -9 94 -26c24 -11 71 -41 101 -41c26 0 42 19 47 65l88 -25c-8 -96 -62 -142 -136 -142c-32 0 -56 9 -93 27z" />
    <glyph glyph-name="exclamdown" unicode="&#xa1;" horiz-adv-x="294" 
d="M216 -8h-139v126l30 361h80l29 -361v-126zM73 639c0 40 34 74 74 74c41 0 75 -34 75 -74c0 -41 -34 -75 -75 -75c-40 0 -74 34 -74 75z" />
    <glyph glyph-name="cent" unicode="&#xa2;" horiz-adv-x="586" 
d="M289 -122v116c-129 14 -240 115 -240 271c0 153 110 254 240 272v119h64v-117c65 -5 135 -31 186 -82l-66 -81c-33 28 -70 53 -120 58v-339c50 5 91 32 125 67l66 -72c-57 -58 -124 -89 -191 -96v-116h-64zM161 267c0 -80 53 -147 128 -167v330
c-70 -17 -128 -76 -128 -163z" />
    <glyph glyph-name="sterling" unicode="&#xa3;" horiz-adv-x="616" 
d="M263 516v-131h167v-98h-167v-182h298v-105h-498v105h82v182h-86v98h86v125c0 172 101 232 221 232c89 0 155 -41 197 -112l-83 -66c-24 40 -58 68 -106 68c-56 0 -111 -28 -111 -116z" />
    <glyph glyph-name="currency" unicode="&#xa4;" horiz-adv-x="755" 
d="M60 62l90 90c-34 46 -53 103 -53 165c0 60 18 116 51 161l-88 88l71 70l90 -89c43 28 97 44 156 44s113 -17 157 -45l90 90l71 -70l-89 -89c32 -45 51 -100 51 -160c0 -62 -20 -118 -54 -164l92 -91l-70 -70l-95 93c-43 -27 -95 -42 -153 -42s-110 15 -153 42l-94 -93z
M377 149c93 0 162 69 162 168s-69 167 -162 167s-162 -68 -162 -167s69 -168 162 -168z" />
    <glyph glyph-name="yen" unicode="&#xa5;" horiz-adv-x="715" 
d="M102 212h190v54l-4 6h-186v88h134l-201 339h129l189 -321h7l196 321h127l-208 -339h131v-88h-185l-3 -6v-54h188v-88h-189v-124h-125v124h-190v88z" />
    <glyph glyph-name="brokenbar" unicode="&#xa6;" horiz-adv-x="276" 
d="M91 430v327h94v-327h-94zM91 -24v327h94v-327h-94z" />
    <glyph glyph-name="section" unicode="&#xa7;" horiz-adv-x="610" 
d="M145 317c0 -63 87 -109 208 -109c68 0 121 31 121 81c0 78 -142 102 -220 102c-56 0 -109 -24 -109 -74zM202 575c0 -48 28 -69 145 -97c149 -36 220 -78 220 -179c0 -60 -34 -124 -132 -147c67 -24 92 -81 92 -124c0 -88 -80 -166 -215 -166c-92 0 -180 33 -253 98
l64 76c59 -49 116 -81 192 -81c66 0 107 21 107 68c0 44 -42 67 -152 99c-125 36 -219 77 -219 191c0 60 42 123 125 139c-55 22 -81 65 -81 113c0 106 88 177 208 177c88 0 147 -21 214 -69l-57 -80c-55 41 -103 55 -159 55c-63 0 -99 -33 -99 -73z" />
    <glyph glyph-name="dieresis" unicode="&#xa8;" horiz-adv-x="610" 
d="M166 663c0 34 27 61 61 61c35 0 62 -27 62 -61s-28 -62 -62 -62s-61 27 -61 62zM351 663c0 34 28 61 61 61c35 0 62 -27 62 -61s-28 -62 -62 -62c-33 0 -61 27 -61 62z" />
    <glyph glyph-name="copyright" unicode="&#xa9;" horiz-adv-x="832" 
d="M778 351c0 -198 -160 -363 -363 -363s-361 163 -361 361s160 363 363 363c199 0 361 -162 361 -361zM734 350c0 174 -138 317 -316 317c-179 0 -317 -145 -317 -319s137 -317 315 -317c179 0 318 145 318 319zM583 224c-48 -50 -107 -71 -162 -71
c-103 0 -196 76 -196 197c0 124 97 200 204 200c53 0 111 -18 151 -60l-48 -59c-27 23 -58 44 -101 44c-65 0 -126 -46 -126 -122c0 -69 57 -126 128 -126c41 0 76 21 102 49z" />
    <glyph glyph-name="ordfeminine" unicode="&#xaa;" horiz-adv-x="352" 
d="M277 466h-47v33c-17 -20 -45 -37 -82 -37c-50 0 -89 31 -89 80c0 51 41 73 99 73h68v9c0 37 -25 49 -55 49c-27 0 -47 -9 -71 -25l-23 33c33 26 66 35 101 35c53 0 99 -23 99 -91v-159zM225 558v21h-58c-30 0 -56 -8 -56 -36c0 -25 22 -37 49 -37c36 0 65 20 65 52z" />
    <glyph glyph-name="guillemotleft" unicode="&#xab;" horiz-adv-x="547" 
d="M283 416l-115 -176l115 -176h-108l-119 176l119 176h108zM481 416l-115 -176l115 -176h-108l-119 176l119 176h108z" />
    <glyph glyph-name="logicalnot" unicode="&#xac;" horiz-adv-x="828" 
d="M67 445h669v-357h-82v269h-587v88z" />
    <glyph glyph-name="registered" unicode="&#xae;" horiz-adv-x="832" 
d="M778 351c0 -198 -160 -363 -363 -363s-361 163 -361 361s160 363 363 363c199 0 361 -162 361 -361zM734 350c0 174 -138 317 -316 317c-179 0 -317 -145 -317 -319s137 -317 315 -317c179 0 318 145 318 319zM591 420c0 -70 -30 -106 -85 -122l104 -141h-84l-94 131h-17
h-69v-131h-68v391h147c120 0 166 -39 166 -128zM524 420c0 52 -25 69 -95 69h-83v-141h81c79 0 97 25 97 72z" />
    <glyph glyph-name="macron" unicode="&#xaf;" horiz-adv-x="424" 
d="M366 687v-87h-307v87h307z" />
    <glyph glyph-name="degree" unicode="&#xb0;" horiz-adv-x="416" 
d="M208 715c85 0 154 -69 154 -154s-69 -153 -154 -153s-154 68 -154 153s69 154 154 154zM207 459c57 0 102 45 102 103c0 55 -45 100 -102 100c-56 0 -101 -45 -101 -100c0 -58 45 -103 101 -103z" />
    <glyph glyph-name="plusminus" unicode="&#xb1;" horiz-adv-x="568" 
d="M239 276v135h-191v94h191v133h90v-133h191v-94h-191v-135h-90zM48 220h472v-84h-472v84z" />
    <glyph glyph-name="twosuperior" unicode="&#xb2;" horiz-adv-x="419" 
d="M271 592c0 38 -28 62 -66 62c-42 0 -67 -25 -84 -51l-55 32c33 50 72 81 140 81s131 -43 131 -121c0 -41 -18 -73 -77 -134l-95 -97h185v-66h-279v58l123 125c50 50 77 81 77 111z" />
    <glyph glyph-name="threesuperior" unicode="&#xb3;" horiz-adv-x="396" 
d="M226 637h-149v62h242v-55l-100 -112c80 -2 120 -58 120 -117c0 -87 -68 -135 -149 -135c-44 0 -93 14 -136 43l30 56c31 -22 71 -35 106 -35c44 0 83 19 83 68c0 37 -34 67 -98 67c-14 0 -29 -2 -45 -7v53z" />
    <glyph glyph-name="acute" unicode="&#xb4;" horiz-adv-x="833" 
d="M440 628h-102l106 145l118 -49z" />
    <glyph glyph-name="mu" unicode="&#xb5;" horiz-adv-x="642" 
d="M86 -194v726h112v-292c0 -102 45 -147 122 -147c70 0 144 45 144 151v288h112v-532h-112v97c-36 -66 -104 -105 -177 -105c-33 0 -63 6 -89 17v-203h-112z" />
    <glyph glyph-name="paragraph" unicode="&#xb6;" horiz-adv-x="671" 
d="M35 556c0 102 66 201 238 201h299v-869h-93v774h-112v-774h-90v479c-16 -2 -32 -3 -46 -3c-156 0 -196 117 -196 192z" />
    <glyph glyph-name="periodcentered" unicode="&#xb7;" horiz-adv-x="291" 
d="M71 319c0 41 33 74 74 74c42 0 75 -33 75 -74s-34 -75 -75 -75s-74 33 -74 75z" />
    <glyph glyph-name="cedilla" unicode="&#xb8;" horiz-adv-x="281" 
d="M185 0l-20 -38c45 -6 70 -34 70 -79c0 -47 -39 -95 -118 -95c-23 0 -49 6 -75 22l26 57c13 -7 27 -10 39 -10c27 0 41 19 41 39s-15 41 -43 41c-8 0 -17 -1 -27 -5l36 68h71z" />
    <glyph glyph-name="onesuperior" unicode="&#xb9;" horiz-adv-x="268" 
d="M41 699h148v-409h-65v348h-83v61z" />
    <glyph glyph-name="ordmasculine" unicode="&#xba;" horiz-adv-x="378" 
d="M189 504c46 0 80 33 80 82s-34 83 -80 83s-80 -34 -80 -83s34 -82 80 -82zM189 456c-77 0 -133 58 -133 130s56 130 133 130s133 -58 133 -130s-56 -130 -133 -130z" />
    <glyph glyph-name="guillemotright" unicode="&#xbb;" horiz-adv-x="547" 
d="M379 240l-115 176h108l119 -176l-119 -176h-108zM181 240l-115 176h108l119 -176l-119 -176h-108z" />
    <glyph glyph-name="onequarter" unicode="&#xbc;" horiz-adv-x="863" 
d="M591 757h72l-373 -765h-72zM611 166h98v75h65v-75h50v-63h-50v-103h-65v103h-175v61l149 245h76zM35 699h148v-409h-65v348h-83v61z" />
    <glyph glyph-name="onehalf" unicode="&#xbd;" horiz-adv-x="928" 
d="M623 757h72l-373 -765h-72zM805 294c0 37 -28 62 -66 62c-42 0 -66 -25 -84 -51l-54 32c33 50 72 81 139 81c68 0 132 -43 132 -121c0 -41 -18 -74 -77 -134l-96 -97h185v-66h-279v58l124 125c49 50 76 81 76 111zM35 699h148v-409h-65v348h-83v61z" />
    <glyph glyph-name="threequarters" unicode="&#xbe;" horiz-adv-x="901" 
d="M632 757h72l-373 -765h-72zM652 166h98v75h65v-75h50v-63h-50v-103h-65v103h-175v61l149 245h76zM212 637h-149v62h242v-55l-100 -112c80 -2 120 -58 120 -117c0 -87 -68 -135 -149 -135c-44 0 -93 14 -136 43l30 56c31 -22 71 -35 106 -35c44 0 83 19 83 68
c0 37 -34 67 -98 67c-14 0 -29 -2 -45 -7v53z" />
    <glyph glyph-name="questiondown" unicode="&#xbf;" horiz-adv-x="508" 
d="M206 490h113v-61c0 -56 -12 -71 -51 -111l-73 -73c-15 -16 -23 -38 -23 -61c0 -50 36 -87 85 -87c53 0 89 35 94 86h121c-14 -120 -99 -190 -220 -190c-112 0 -199 65 -199 184c0 82 48 122 103 173c34 34 50 46 50 95v45zM338 639c0 -41 -35 -75 -77 -75
c-41 0 -77 32 -77 73s35 75 77 75c40 0 77 -32 77 -73z" />
    <glyph glyph-name="Agrave" unicode="&#xc0;" horiz-adv-x="730" 
d="M422 699l308 -699h-130l-71 159h-335l-68 -159h-126l308 699h114zM482 268l-120 269l-119 -269h239zM420 757h-102l-122 96l118 49z" />
    <glyph glyph-name="Aacute" unicode="&#xc1;" horiz-adv-x="742" 
d="M196 159l-70 -159h-126l308 699h126l308 -699h-126l-70 159h-350zM498 268l-127 288l-127 -288h254zM425 758h-102l106 145l118 -49z" />
    <glyph glyph-name="Acircumflex" unicode="&#xc2;" horiz-adv-x="730" 
d="M422 699l308 -699h-130l-71 159h-335l-68 -159h-126l308 699h114zM482 268l-120 269l-119 -269h239zM309 891h104l122 -134h-97l-77 56l-77 -56h-97z" />
    <glyph glyph-name="Atilde" unicode="&#xc3;" horiz-adv-x="730" 
d="M422 699l308 -699h-130l-71 159h-335l-68 -159h-126l308 699h114zM482 268l-120 269l-119 -269h239zM530 884c-2 -78 -29 -130 -92 -130c-48 0 -101 47 -132 47c-18 0 -33 -8 -34 -44h-74c0 76 32 130 89 130c50 0 104 -47 138 -47c19 0 30 11 30 44h75z" />
    <glyph glyph-name="Adieresis" unicode="&#xc4;" horiz-adv-x="730" 
d="M422 699l308 -699h-130l-71 159h-335l-68 -159h-126l308 699h114zM482 268l-120 269l-119 -269h239zM211 815c0 34 27 61 61 61c35 0 62 -27 62 -61s-28 -62 -62 -62s-61 27 -61 62zM396 815c0 34 28 61 61 61c35 0 62 -27 62 -61s-28 -62 -62 -62c-33 0 -61 27 -61 62z
" />
    <glyph glyph-name="Aring" unicode="&#xc5;" horiz-adv-x="730" 
d="M474 771c0 -35 -19 -66 -47 -85l303 -686h-130l-71 159h-335l-68 -159h-126l302 687c-27 19 -45 50 -45 84c0 57 51 105 108 105s109 -48 109 -105zM482 268l-120 269l-119 -269h239zM420 771c0 33 -22 56 -55 56c-32 0 -55 -23 -55 -56c0 -32 23 -55 55 -55
c33 0 55 23 55 55z" />
    <glyph glyph-name="AE" unicode="&#xc6;" horiz-adv-x="1040" 
d="M974 699v-110h-373v-192h335v-103h-335v-184h385v-110h-514v159h-253l-85 -159h-145l366 699h619zM472 272v317h-29l-167 -317h196z" />
    <glyph glyph-name="Ccedilla" unicode="&#xc7;" horiz-adv-x="736" 
d="M416 107c86 0 137 30 197 86l76 -78c-55 -61 -134 -117 -254 -122l-16 -31c45 -6 70 -34 70 -79c0 -47 -39 -95 -118 -95c-23 0 -49 6 -75 22l26 57c13 -7 27 -10 39 -10c27 0 41 19 41 39s-15 41 -43 41c-8 0 -17 -1 -27 -5l33 63c-180 22 -313 164 -313 359
c0 207 163 362 368 362c134 0 221 -56 279 -120l-75 -82c-67 64 -120 86 -199 86c-138 0 -250 -96 -250 -248c0 -137 112 -245 241 -245z" />
    <glyph glyph-name="Egrave" unicode="&#xc8;" horiz-adv-x="654" 
d="M421 757h-102l-122 96l118 49zM588 699v-111h-373v-185h335v-105h-335v-187h385v-111h-503v699h491z" />
    <glyph glyph-name="Eacute" unicode="&#xc9;" horiz-adv-x="654" 
d="M588 699v-111h-373v-185h335v-105h-335v-187h385v-111h-503v699h491zM396 757h-102l106 145l118 -49z" />
    <glyph glyph-name="Ecircumflex" unicode="&#xca;" horiz-adv-x="654" 
d="M291 891h104l122 -134h-97l-77 56l-77 -56h-97zM588 699v-111h-373v-185h335v-105h-335v-187h385v-111h-503v699h491z" />
    <glyph glyph-name="Edieresis" unicode="&#xcb;" horiz-adv-x="654" 
d="M190 815c0 34 27 61 61 61c35 0 62 -27 62 -61s-28 -62 -62 -62s-61 27 -61 62zM375 815c0 34 28 61 61 61c35 0 62 -27 62 -61s-28 -62 -62 -62c-33 0 -61 27 -61 62zM588 699v-111h-373v-185h335v-105h-335v-187h385v-111h-503v699h491z" />
    <glyph glyph-name="Igrave" unicode="&#xcc;" horiz-adv-x="312" 
d="M209 757h-102l-122 96l118 49zM97 699h118v-699h-118v699z" />
    <glyph glyph-name="Iacute" unicode="&#xcd;" horiz-adv-x="312" 
d="M97 699h118v-699h-118v699zM205 757h-102l106 145l118 -49z" />
    <glyph glyph-name="Icircumflex" unicode="&#xce;" horiz-adv-x="312" 
d="M97 699h118v-699h-118v699zM115 891h104l122 -134h-97l-77 56l-77 -56h-97z" />
    <glyph glyph-name="Idieresis" unicode="&#xcf;" horiz-adv-x="312" 
d="M3 815c0 34 27 61 61 61c35 0 62 -27 62 -61s-28 -62 -62 -62s-61 27 -61 62zM188 815c0 34 28 61 61 61c35 0 62 -27 62 -61s-28 -62 -62 -62c-33 0 -61 27 -61 62zM97 699h118v-699h-118v699z" />
    <glyph glyph-name="Eth" unicode="&#xd0;" horiz-adv-x="790" 
d="M26 294v105h79v300h240c253 0 390 -130 390 -349c0 -202 -117 -350 -398 -350h-232v294h-79zM616 350c0 149 -83 240 -275 240h-118v-191h250v-105h-250v-183h131c168 0 262 81 262 239z" />
    <glyph glyph-name="Ntilde" unicode="&#xd1;" horiz-adv-x="836" 
d="M621 177v522h118v-699h-128l-396 510v-510h-118v699h118zM581 884c-2 -78 -29 -130 -92 -130c-48 0 -101 47 -132 47c-18 0 -33 -8 -34 -44h-74c0 76 32 130 89 130c50 0 104 -47 138 -47c19 0 30 11 30 44h75z" />
    <glyph glyph-name="Ograve" unicode="&#xd2;" horiz-adv-x="840" 
d="M496 757h-102l-122 96l118 49zM420 608c-140 0 -247 -114 -247 -254c0 -139 107 -253 247 -253s247 114 247 253c0 140 -107 254 -247 254zM420 -7c-207 0 -368 155 -368 362c0 206 161 361 368 361s368 -155 368 -361c0 -207 -161 -362 -368 -362z" />
    <glyph glyph-name="Oacute" unicode="&#xd3;" horiz-adv-x="840" 
d="M420 608c-140 0 -247 -114 -247 -254c0 -139 107 -253 247 -253s247 114 247 253c0 140 -107 254 -247 254zM420 -7c-207 0 -368 155 -368 362c0 206 161 361 368 361s368 -155 368 -361c0 -207 -161 -362 -368 -362zM438 757h-102l106 145l118 -49z" />
    <glyph glyph-name="Ocircumflex" unicode="&#xd4;" horiz-adv-x="840" 
d="M420 608c-140 0 -247 -114 -247 -254c0 -139 107 -253 247 -253s247 114 247 253c0 140 -107 254 -247 254zM420 -7c-207 0 -368 155 -368 362c0 206 161 361 368 361s368 -155 368 -361c0 -207 -161 -362 -368 -362zM366 891h104l122 -134h-97l-77 56l-77 -56h-97z" />
    <glyph glyph-name="Otilde" unicode="&#xd5;" horiz-adv-x="840" 
d="M420 608c-140 0 -247 -114 -247 -254c0 -139 107 -253 247 -253s247 114 247 253c0 140 -107 254 -247 254zM420 -7c-207 0 -368 155 -368 362c0 206 161 361 368 361s368 -155 368 -361c0 -207 -161 -362 -368 -362zM584 884c-2 -78 -29 -130 -92 -130
c-48 0 -101 47 -132 47c-18 0 -33 -8 -34 -44h-74c0 76 32 130 89 130c50 0 104 -47 138 -47c19 0 30 11 30 44h75z" />
    <glyph glyph-name="Odieresis" unicode="&#xd6;" horiz-adv-x="840" 
d="M261 815c0 34 27 61 61 61c35 0 62 -27 62 -61s-28 -62 -62 -62s-61 27 -61 62zM446 815c0 34 28 61 61 61c35 0 62 -27 62 -61s-28 -62 -62 -62c-33 0 -61 27 -61 62zM420 608c-140 0 -247 -114 -247 -254c0 -139 107 -253 247 -253s247 114 247 253
c0 140 -107 254 -247 254zM420 -7c-207 0 -368 155 -368 362c0 206 161 361 368 361s368 -155 368 -361c0 -207 -161 -362 -368 -362z" />
    <glyph glyph-name="multiply" unicode="&#xd7;" horiz-adv-x="565" 
d="M283 443l170 171l63 -64l-169 -169l170 -171l-63 -64l-171 171l-171 -171l-64 64l171 171l-170 169l64 64z" />
    <glyph glyph-name="Oslash" unicode="&#xd8;" horiz-adv-x="840" 
d="M595 811h100l-71 -153c99 -63 164 -173 164 -303c0 -207 -161 -362 -368 -362c-35 0 -69 4 -101 12l-57 -122h-100l73 156c-111 61 -183 177 -183 316c0 206 161 361 368 361c42 0 83 -7 121 -19zM420 608c-140 0 -247 -114 -247 -254c0 -88 43 -166 110 -212l212 454
c-24 8 -49 12 -75 12zM667 354c0 80 -36 152 -92 199l-209 -447c17 -3 35 -5 54 -5c140 0 247 114 247 253z" />
    <glyph glyph-name="Ugrave" unicode="&#xd9;" horiz-adv-x="768" 
d="M473 757h-102l-122 96l118 49zM384 104c109 0 178 79 178 208v387h118v-392c0 -209 -131 -314 -296 -314s-296 105 -296 314v392h118v-387c0 -129 69 -208 178 -208z" />
    <glyph glyph-name="Uacute" unicode="&#xda;" horiz-adv-x="768" 
d="M384 104c109 0 178 79 178 208v387h118v-392c0 -209 -131 -314 -296 -314s-296 105 -296 314v392h118v-387c0 -129 69 -208 178 -208zM416 758h-102l106 145l118 -49z" />
    <glyph glyph-name="Ucircumflex" unicode="&#xdb;" horiz-adv-x="768" 
d="M384 104c109 0 178 79 178 208v387h118v-392c0 -209 -131 -314 -296 -314s-296 105 -296 314v392h118v-387c0 -129 69 -208 178 -208zM336 891h104l122 -134h-97l-77 56l-77 -56h-97z" />
    <glyph glyph-name="Udieresis" unicode="&#xdc;" horiz-adv-x="768" 
d="M232 815c0 34 27 61 61 61c35 0 62 -27 62 -61s-28 -62 -62 -62s-61 27 -61 62zM417 815c0 34 28 61 61 61c35 0 62 -27 62 -61s-28 -62 -62 -62c-33 0 -61 27 -61 62zM384 104c109 0 178 79 178 208v387h118v-392c0 -209 -131 -314 -296 -314s-296 105 -296 314v392h118
v-387c0 -129 69 -208 178 -208z" />
    <glyph glyph-name="Yacute" unicode="&#xdd;" horiz-adv-x="624" 
d="M372 0h-120v276l-260 423h129l191 -318l191 318h129l-260 -423v-276zM389 742h-102l106 145l118 -49z" />
    <glyph glyph-name="Thorn" unicode="&#xde;" horiz-adv-x="686" 
d="M642 369c0 -182 -113 -252 -313 -252h-114v-117h-118v699h118v-88h112c217 0 315 -86 315 -242zM521 369c0 104 -73 135 -196 135h-110v-280h127c141 0 179 63 179 145z" />
    <glyph glyph-name="germandbls" unicode="&#xdf;" horiz-adv-x="651" 
d="M305 322v93c100 15 142 66 142 131c0 44 -26 106 -110 106c-107 0 -138 -71 -138 -186v-466h-118v456c0 78 0 301 245 301c192 0 235 -124 235 -203c0 -65 -27 -120 -104 -168c106 -12 148 -99 148 -180c0 -121 -86 -206 -255 -206h-41v98h22c92 0 156 24 156 108
c0 83 -62 117 -147 117c-11 0 -23 0 -35 -1z" />
    <glyph glyph-name="agrave" unicode="&#xe0;" horiz-adv-x="587" 
d="M512 0h-102v71c-36 -43 -97 -79 -177 -79c-108 0 -192 67 -192 171c0 111 89 158 215 158h145v20c0 80 -53 106 -118 106c-58 0 -102 -19 -154 -54l-50 70c73 58 143 77 220 77c113 0 213 -51 213 -197v-343zM400 198v45h-126c-65 0 -121 -17 -121 -76
c0 -54 48 -80 107 -80c78 0 140 42 140 111zM384 600h-102l-122 96l118 49z" />
    <glyph glyph-name="aacute" unicode="&#xe1;" horiz-adv-x="587" 
d="M512 0h-102v71c-36 -43 -97 -79 -177 -79c-108 0 -192 67 -192 171c0 111 89 158 215 158h145v20c0 80 -53 106 -118 106c-58 0 -102 -19 -154 -54l-50 70c73 58 143 77 220 77c113 0 213 -51 213 -197v-343zM400 198v45h-126c-65 0 -121 -17 -121 -76
c0 -54 48 -80 107 -80c78 0 140 42 140 111zM351 600h-102l106 145l118 -49z" />
    <glyph glyph-name="acircumflex" unicode="&#xe2;" horiz-adv-x="587" 
d="M512 0h-102v71c-36 -43 -97 -79 -177 -79c-108 0 -192 67 -192 171c0 111 89 158 215 158h145v20c0 80 -53 106 -118 106c-58 0 -102 -19 -154 -54l-50 70c73 58 143 77 220 77c113 0 213 -51 213 -197v-343zM400 198v45h-126c-65 0 -121 -17 -121 -76
c0 -54 48 -80 107 -80c78 0 140 42 140 111zM239 734h104l122 -134h-97l-77 56l-77 -56h-97z" />
    <glyph glyph-name="atilde" unicode="&#xe3;" horiz-adv-x="587" 
d="M512 0h-102v71c-36 -43 -97 -79 -177 -79c-108 0 -192 67 -192 171c0 111 89 158 215 158h145v20c0 80 -53 106 -118 106c-58 0 -102 -19 -154 -54l-50 70c73 58 143 77 220 77c113 0 213 -51 213 -197v-343zM400 198v45h-126c-65 0 -121 -17 -121 -76
c0 -54 48 -80 107 -80c78 0 140 42 140 111zM457 727c-2 -78 -29 -130 -92 -130c-48 0 -101 47 -132 47c-18 0 -33 -8 -34 -44h-74c0 76 32 130 89 130c50 0 104 -47 138 -47c19 0 30 11 30 44h75z" />
    <glyph glyph-name="adieresis" unicode="&#xe4;" horiz-adv-x="587" 
d="M512 0h-102v71c-36 -43 -97 -79 -177 -79c-108 0 -192 67 -192 171c0 111 89 158 215 158h145v20c0 80 -53 106 -118 106c-58 0 -102 -19 -154 -54l-50 70c73 58 143 77 220 77c113 0 213 -51 213 -197v-343zM400 198v45h-126c-65 0 -121 -17 -121 -76
c0 -54 48 -80 107 -80c78 0 140 42 140 111zM139 662c0 34 27 61 61 61c35 0 62 -27 62 -61s-28 -62 -62 -62s-61 27 -61 62zM324 662c0 34 28 61 61 61c35 0 62 -27 62 -61s-28 -62 -62 -62c-33 0 -61 27 -61 62z" />
    <glyph glyph-name="aring" unicode="&#xe5;" horiz-adv-x="587" 
d="M512 0h-102v71c-36 -43 -97 -79 -177 -79c-108 0 -192 67 -192 171c0 111 89 158 215 158h145v20c0 80 -53 106 -118 106c-58 0 -102 -19 -154 -54l-50 70c73 58 143 77 220 77c113 0 213 -51 213 -197v-343zM403 687c0 -57 -52 -104 -109 -104s-108 47 -108 104
s51 105 108 105s109 -48 109 -105zM400 198v45h-126c-65 0 -121 -17 -121 -76c0 -54 48 -80 107 -80c78 0 140 42 140 111zM349 687c0 33 -22 56 -55 56c-32 0 -55 -23 -55 -56c0 -32 23 -55 55 -55c33 0 55 23 55 55z" />
    <glyph glyph-name="ae" unicode="&#xe6;" horiz-adv-x="952" 
d="M910 230h-397c1 -89 75 -142 155 -142c55 0 104 17 142 63l64 -70c-69 -71 -139 -89 -214 -89c-83 0 -157 34 -204 96c-65 -78 -143 -96 -213 -96c-108 0 -202 67 -202 171c0 111 89 154 215 154h145v24c0 80 -53 106 -118 106c-58 0 -102 -19 -154 -54l-50 70
c73 58 143 77 220 77c72 0 138 -21 177 -74c48 49 114 74 182 74c140 0 252 -87 252 -246v-64zM400 198v32h-126c-65 0 -121 -4 -121 -63c0 -54 48 -80 107 -80c78 0 140 42 140 111zM514 317l284 -1c-5 87 -63 128 -134 128c-74 0 -143 -45 -150 -127z" />
    <glyph glyph-name="ccedilla" unicode="&#xe7;" horiz-adv-x="577" 
d="M542 90c-56 -56 -121 -87 -186 -95l-17 -33c45 -6 70 -34 70 -79c0 -47 -39 -95 -118 -95c-23 0 -49 6 -75 22l26 57c13 -7 27 -10 39 -10c27 0 41 19 41 39s-15 41 -43 41c-8 0 -17 -1 -27 -5l33 62c-129 15 -238 116 -238 271c0 169 135 275 281 275
c72 0 152 -26 209 -83l-66 -81c-37 32 -79 60 -140 60c-88 0 -172 -64 -172 -169c0 -95 77 -173 174 -173c59 0 105 29 143 68z" />
    <glyph glyph-name="egrave" unicode="&#xe8;" horiz-adv-x="618" 
d="M412 600h-102l-122 96l118 49zM576 217h-417c6 -81 85 -129 165 -129c55 0 114 17 152 63l64 -70c-69 -71 -149 -89 -224 -89c-143 0 -269 102 -269 273c0 179 134 275 267 275c140 0 262 -87 262 -246v-77zM159 305h305c0 95 -70 139 -144 139c-78 0 -161 -49 -161 -139
z" />
    <glyph glyph-name="eacute" unicode="&#xe9;" horiz-adv-x="618" 
d="M576 217h-417c6 -81 85 -129 165 -129c55 0 114 17 152 63l64 -70c-69 -71 -149 -89 -224 -89c-143 0 -269 102 -269 273c0 179 134 275 267 275c140 0 262 -87 262 -246v-77zM159 305h305c0 95 -70 139 -144 139c-78 0 -161 -49 -161 -139zM376 602h-102l106 145
l118 -49z" />
    <glyph glyph-name="ecircumflex" unicode="&#xea;" horiz-adv-x="618" 
d="M576 217h-417c6 -81 85 -129 165 -129c55 0 114 17 152 63l64 -70c-69 -71 -149 -89 -224 -89c-143 0 -269 102 -269 273c0 179 134 275 267 275c140 0 262 -87 262 -246v-77zM159 305h305c0 95 -70 139 -144 139c-78 0 -161 -49 -161 -139zM265 734h104l122 -134h-97
l-77 56l-77 -56h-97z" />
    <glyph glyph-name="edieresis" unicode="&#xeb;" horiz-adv-x="618" 
d="M162 662c0 34 27 61 61 61c35 0 62 -27 62 -61s-28 -62 -62 -62s-61 27 -61 62zM347 662c0 34 28 61 61 61c35 0 62 -27 62 -61s-28 -62 -62 -62c-33 0 -61 27 -61 62zM576 217h-417c6 -81 85 -129 165 -129c55 0 114 17 152 63l64 -70c-69 -71 -149 -89 -224 -89
c-143 0 -269 102 -269 273c0 179 134 275 267 275c140 0 262 -87 262 -246v-77zM159 305h305c0 95 -70 139 -144 139c-78 0 -161 -49 -161 -139z" />
    <glyph glyph-name="igrave" unicode="&#xec;" 
d="M200 600h-102l-122 96l118 49zM81 532h112v-532h-112v532z" />
    <glyph glyph-name="iacute" unicode="&#xed;" 
d="M190 600h-94l106 140l110 -49zM81 532h112v-532h-112v532z" />
    <glyph glyph-name="icircumflex" unicode="&#xee;" 
d="M81 532h112v-532h-112v532zM90 734h104l122 -134h-97l-77 56l-77 -56h-97z" />
    <glyph glyph-name="idieresis" unicode="&#xef;" 
d="M-8 662c0 34 27 61 61 61c35 0 62 -27 62 -61s-28 -62 -62 -62s-61 27 -61 62zM177 662c0 34 28 61 61 61c35 0 62 -27 62 -61s-28 -62 -62 -62c-33 0 -61 27 -61 62zM81 532h112v-532h-112v532z" />
    <glyph glyph-name="eth" unicode="&#xf0;" horiz-adv-x="596" 
d="M400 748l59 -54l-88 -57c92 -100 176 -227 176 -370c0 -159 -85 -275 -249 -275c-138 0 -248 96 -248 240c0 143 110 240 239 240c42 0 81 -10 108 -37l2 2c-32 53 -75 99 -120 145l-3 3l-93 -59l-57 54l94 60c-17 18 -54 46 -73 62l95 55c34 -27 59 -50 73 -63zM298 90
c87 0 140 67 140 142c0 74 -53 142 -140 142c-86 0 -139 -68 -139 -142c0 -75 53 -142 139 -142z" />
    <glyph glyph-name="ntilde" unicode="&#xf1;" horiz-adv-x="646" 
d="M193 288v-288h-112v532h112v-97c36 66 104 105 177 105c115 0 201 -70 201 -214v-326h-112v292c0 102 -45 147 -122 147c-70 0 -144 -45 -144 -151zM497 727c-2 -78 -29 -130 -92 -130c-48 0 -101 47 -132 47c-18 0 -33 -8 -34 -44h-74c0 76 32 130 89 130
c50 0 104 -47 138 -47c19 0 30 11 30 44h75z" />
    <glyph glyph-name="ograve" unicode="&#xf2;" horiz-adv-x="652" 
d="M395 600h-102l-122 96l118 49zM326 92c97 0 168 71 168 174s-71 174 -168 174s-168 -71 -168 -174s71 -174 168 -174zM326 -8c-162 0 -280 122 -280 274s118 274 280 274s280 -122 280 -274s-118 -274 -280 -274z" />
    <glyph glyph-name="oacute" unicode="&#xf3;" horiz-adv-x="652" 
d="M326 92c97 0 168 71 168 174s-71 174 -168 174s-168 -71 -168 -174s71 -174 168 -174zM326 -8c-162 0 -280 122 -280 274s118 274 280 274s280 -122 280 -274s-118 -274 -280 -274zM377 600h-102l106 145l118 -49z" />
    <glyph glyph-name="ocircumflex" unicode="&#xf4;" horiz-adv-x="652" 
d="M326 92c97 0 168 71 168 174s-71 174 -168 174s-168 -71 -168 -174s71 -174 168 -174zM326 -8c-162 0 -280 122 -280 274s118 274 280 274s280 -122 280 -274s-118 -274 -280 -274zM275 734h104l122 -134h-97l-77 56l-77 -56h-97z" />
    <glyph glyph-name="otilde" unicode="&#xf5;" horiz-adv-x="652" 
d="M326 92c97 0 168 71 168 174s-71 174 -168 174s-168 -71 -168 -174s71 -174 168 -174zM326 -8c-162 0 -280 122 -280 274s118 274 280 274s280 -122 280 -274s-118 -274 -280 -274zM492 727c-2 -78 -29 -130 -92 -130c-48 0 -101 47 -132 47c-18 0 -33 -8 -34 -44h-74
c0 76 32 130 89 130c50 0 104 -47 138 -47c19 0 30 11 30 44h75z" />
    <glyph glyph-name="odieresis" unicode="&#xf6;" horiz-adv-x="652" 
d="M168 662c0 34 27 61 61 61c35 0 62 -27 62 -61s-28 -62 -62 -62s-61 27 -61 62zM353 662c0 34 28 61 61 61c35 0 62 -27 62 -61s-28 -62 -62 -62c-33 0 -61 27 -61 62zM326 92c97 0 168 71 168 174s-71 174 -168 174s-168 -71 -168 -174s71 -174 168 -174zM326 -8
c-162 0 -280 122 -280 274s118 274 280 274s280 -122 280 -274s-118 -274 -280 -274z" />
    <glyph glyph-name="divide" unicode="&#xf7;" horiz-adv-x="568" 
d="M210 211c0 41 33 74 74 74c42 0 75 -33 75 -74s-34 -75 -75 -75s-74 33 -74 75zM210 566c0 41 33 74 74 74c42 0 75 -33 75 -74s-34 -75 -75 -75s-74 33 -74 75zM48 434h472v-94h-472v94z" />
    <glyph glyph-name="oslash" unicode="&#xf8;" horiz-adv-x="652" 
d="M326 -8c-23 0 -44 3 -65 7l-48 -104h-100l64 137c-81 48 -131 134 -131 234c0 152 118 274 280 274c29 0 57 -4 83 -12l44 94h100l-62 -132c71 -50 115 -131 115 -224c0 -152 -118 -274 -280 -274zM158 266c0 -60 24 -109 63 -140l145 310c-13 3 -26 4 -40 4
c-97 0 -168 -71 -168 -174zM326 92c97 0 168 71 168 174c0 52 -18 96 -49 126l-140 -299c7 -1 14 -1 21 -1z" />
    <glyph glyph-name="ugrave" unicode="&#xf9;" horiz-adv-x="646" 
d="M393 600h-102l-122 96l118 49zM453 244v288h112v-532h-112v97c-36 -66 -104 -105 -177 -105c-115 0 -201 70 -201 214v326h112v-292c0 -102 45 -147 122 -147c70 0 144 45 144 151z" />
    <glyph glyph-name="uacute" unicode="&#xfa;" horiz-adv-x="646" 
d="M453 244v288h112v-532h-112v97c-36 -66 -104 -105 -177 -105c-115 0 -201 70 -201 214v326h112v-292c0 -102 45 -147 122 -147c70 0 144 45 144 151zM350 602h-102l106 145l118 -49z" />
    <glyph glyph-name="ucircumflex" unicode="&#xfb;" horiz-adv-x="646" 
d="M453 244v288h112v-532h-112v97c-36 -66 -104 -105 -177 -105c-115 0 -201 70 -201 214v326h112v-292c0 -102 45 -147 122 -147c70 0 144 45 144 151zM270 734h104l122 -134h-97l-77 56l-77 -56h-97z" />
    <glyph glyph-name="udieresis" unicode="&#xfc;" horiz-adv-x="646" 
d="M162 662c0 34 27 61 61 61c35 0 62 -27 62 -61s-28 -62 -62 -62s-61 27 -61 62zM347 662c0 34 28 61 61 61c35 0 62 -27 62 -61s-28 -62 -62 -62c-33 0 -61 27 -61 62zM453 244v288h112v-532h-112v97c-36 -66 -104 -105 -177 -105c-115 0 -201 70 -201 214v326h112v-292
c0 -102 45 -147 122 -147c70 0 144 45 144 151z" />
    <glyph glyph-name="yacute" unicode="&#xfd;" horiz-adv-x="574" 
d="M567 532l-258 -632c-31 -70 -92 -112 -161 -112c-45 0 -92 17 -132 53l51 91c20 -19 50 -33 78 -33c44 0 79 45 79 86c0 8 1 12 -215 547h120l159 -392l159 392h120zM332 628h-102l106 145l118 -49z" />
    <glyph glyph-name="thorn" unicode="&#xfe;" horiz-adv-x="672" 
d="M625 266c0 -160 -102 -274 -262 -274c-115 0 -170 81 -170 81v-267h-112v936h112v-283s63 81 172 81c156 0 260 -118 260 -274zM505 266c0 93 -67 176 -160 176s-154 -83 -154 -176s61 -175 154 -175c91 0 160 84 160 175z" />
    <glyph glyph-name="ydieresis" unicode="&#xff;" horiz-adv-x="574" 
d="M138 662c0 34 27 61 61 61c35 0 62 -27 62 -61s-28 -62 -62 -62s-61 27 -61 62zM323 662c0 34 28 61 61 61c35 0 62 -27 62 -61s-28 -62 -62 -62c-33 0 -61 27 -61 62zM567 532l-258 -632c-31 -70 -92 -112 -161 -112c-45 0 -92 17 -132 53l51 91c20 -19 50 -33 78 -33
c44 0 79 45 79 86c0 8 1 12 -215 547h120l159 -392l159 392h120z" />
    <glyph glyph-name="hbar" unicode="&#x127;" horiz-adv-x="646" 
d="M351 661v-87h-158v-139c32 66 104 105 177 105c115 0 201 -70 201 -214v-326h-112v292c0 102 -45 147 -122 147c-70 0 -144 -45 -144 -151v-288h-112v574h-37v87h37v80h112v-80h158z" />
    <glyph glyph-name="Itilde" unicode="&#x128;" horiz-adv-x="312" 
d="M97 699h118v-699h-118v699zM320 884c-2 -78 -29 -130 -92 -130c-48 0 -101 47 -132 47c-18 0 -33 -8 -34 -44h-74c0 76 32 130 89 130c50 0 104 -47 138 -47c19 0 30 11 30 44h75z" />
    <glyph glyph-name="itilde" unicode="&#x129;" 
d="M81 532h112v-532h-112v532zM312 727c-2 -78 -29 -130 -92 -130c-48 0 -101 47 -132 47c-18 0 -33 -8 -34 -44h-74c0 76 32 130 89 130c50 0 104 -47 138 -47c19 0 30 11 30 44h75z" />
    <glyph glyph-name="dotlessi" unicode="&#x131;" 
d="M81 532h112v-532h-112v532z" />
    <glyph glyph-name="ij" unicode="&#x133;" horiz-adv-x="603" 
d="M193 0h-112v532h112v-532zM67 688c0 39 32 71 71 71s71 -32 71 -71s-32 -71 -71 -71s-71 32 -71 71zM410 -25v557h112v-561c0 -117 -82 -183 -171 -183c-45 0 -92 17 -132 53l52 84c24 -23 52 -33 74 -33c37 0 65 29 65 83zM394 688c0 39 32 71 71 71s71 -32 71 -71
s-32 -71 -71 -71s-71 32 -71 71z" />
    <glyph glyph-name="Jcircumflex" unicode="&#x134;" horiz-adv-x="551" 
d="M120 593v106h340v-461c0 -172 -101 -244 -221 -244c-75 0 -148 26 -208 86l67 93c40 -38 83 -65 133 -65c56 0 111 36 111 124v361h-222zM240 891h104l122 -134h-97l-77 56l-77 -56h-97z" />
    <glyph glyph-name="jcircumflex" unicode="&#x135;" 
d="M81 -25v557h112v-561c0 -117 -82 -183 -171 -183c-45 0 -92 17 -132 53l52 84c24 -23 52 -33 74 -33c37 0 65 29 65 83zM88 734h104l122 -134h-97l-77 56l-77 -56h-97z" />
    <glyph glyph-name="kcedilla" unicode="&#x137;" horiz-adv-x="581" 
d="M351 321l217 -321h-136l-158 233l-81 -82v-151h-112v742h112v-436l216 226h144zM351 0l-20 -38c45 -6 70 -34 70 -79c0 -47 -39 -95 -118 -95c-23 0 -49 6 -75 22l26 57c13 -7 27 -10 39 -10c27 0 41 19 41 39s-15 41 -43 41c-8 0 -17 -1 -27 -5l36 68h71z" />
    <glyph glyph-name="kgreenlandic" unicode="&#x138;" horiz-adv-x="581" 
d="M351 321l217 -321h-136l-158 233l-81 -82v-151h-112v532h112v-226l216 226h144z" />
    <glyph glyph-name="ldot" unicode="&#x140;" horiz-adv-x="403" 
d="M193 0h-112v742h112v-742zM264 319c0 41 33 74 74 74c42 0 75 -33 75 -74s-34 -75 -75 -75s-74 33 -74 75z" />
    <glyph glyph-name="Lslash" unicode="&#x141;" horiz-adv-x="578" 
d="M30 196v105l79 24v374h118v-337l219 68v-105l-219 -68v-145h319v-112h-437v220z" />
    <glyph glyph-name="lslash" unicode="&#x142;" horiz-adv-x="320" 
d="M22 216v105l82 23v355h112v-324l75 22v-105l-75 -22v-270h-112v239z" />
    <glyph glyph-name="Nacute" unicode="&#x143;" horiz-adv-x="836" 
d="M621 177v522h118v-699h-128l-396 510v-510h-118v699h118zM471 787h-102l106 145l118 -49z" />
    <glyph glyph-name="nacute" unicode="&#x144;" horiz-adv-x="646" 
d="M193 288v-288h-112v532h112v-97c36 66 104 105 177 105c115 0 201 -70 201 -214v-326h-112v292c0 102 -45 147 -122 147c-70 0 -144 -45 -144 -151zM365 628h-102l106 145l118 -49z" />
    <glyph glyph-name="OE" unicode="&#x152;" horiz-adv-x="1066" 
d="M1000 699v-111h-373v-185h335v-105h-335v-187h385v-111h-603c-201 0 -356 150 -356 350s155 349 356 349h591zM181 350c0 -135 104 -247 239 -247h89v493h-89c-135 0 -239 -111 -239 -246z" />
    <glyph glyph-name="oe" unicode="&#x153;" horiz-adv-x="1066" 
d="M1024 217h-417c6 -81 85 -129 165 -129c55 0 114 17 152 63l64 -70c-69 -71 -149 -89 -224 -89c-86 0 -166 37 -216 104c-50 -64 -129 -104 -222 -104c-162 0 -280 122 -280 274s118 274 280 274c93 0 172 -41 222 -105c51 69 133 105 214 105c140 0 262 -87 262 -246
v-77zM326 92c97 0 168 71 168 174s-71 174 -168 174s-168 -71 -168 -174s71 -174 168 -174zM607 305h305c0 95 -70 139 -144 139c-78 0 -161 -49 -161 -139z" />
    <glyph glyph-name="Racute" unicode="&#x154;" horiz-adv-x="728" 
d="M655 472c0 -124 -54 -189 -151 -218l183 -254h-150l-167 235h-31h-124v-235h-118v699h260c217 0 298 -71 298 -227zM534 472c0 94 -44 120 -169 120h-150v-250h147c141 0 172 46 172 130zM372 787h-102l106 145l118 -49z" />
    <glyph glyph-name="Rcommaaccent" unicode="&#x156;" horiz-adv-x="728" 
d="M655 472c0 -124 -54 -189 -151 -218l183 -254h-150l-167 235h-31h-124v-235h-118v699h260c217 0 298 -71 298 -227zM534 472c0 94 -44 120 -169 120h-150v-250h147c141 0 172 46 172 130zM261 -250l65 195h111l-80 -195h-96z" />
    <glyph glyph-name="rcommaaccent" unicode="&#x157;" horiz-adv-x="397" 
d="M41 -250l65 195h111l-80 -195h-96zM365 540l1 -113c-121 3 -173 -85 -173 -199v-228h-112v532h112v-107c35 65 101 113 172 115z" />
    <glyph glyph-name="Rcaron" unicode="&#x158;" horiz-adv-x="728" 
d="M655 472c0 -124 -54 -189 -151 -218l183 -254h-150l-167 235h-31h-124v-235h-118v699h260c217 0 298 -71 298 -227zM534 472c0 94 -44 120 -169 120h-150v-250h147c141 0 172 46 172 130zM396 760h-104l-122 134h97l77 -56l77 56h97z" />
    <glyph glyph-name="rcaron" unicode="&#x159;" horiz-adv-x="397" 
d="M365 540l1 -113c-121 3 -173 -85 -173 -199v-228h-112v532h112v-107c35 65 101 113 172 115zM268 600h-104l-122 134h97l77 -56l77 56h97z" />
    <glyph glyph-name="Scaron" unicode="&#x160;" horiz-adv-x="634" 
d="M192 525c0 -55 32 -80 166 -112c149 -36 226 -90 226 -208c0 -134 -103 -213 -251 -213c-107 0 -208 38 -293 114l75 89c67 -58 134 -92 221 -92c76 0 125 36 125 90c0 51 -29 77 -158 109c-150 35 -235 81 -235 212c0 142 117 206 247 206c87 0 182 -29 248 -84l-63 -90
c-42 38 -122 64 -189 64c-65 0 -119 -24 -119 -85zM368 760h-104l-122 134h97l77 -56l77 56h97z" />
    <glyph glyph-name="scaron" unicode="&#x161;" horiz-adv-x="506" 
d="M460 164c0 -111 -86 -172 -196 -172c-75 0 -165 28 -231 80l54 87c57 -43 126 -70 180 -70c52 0 82 27 82 62c0 43 -56 57 -118 76c-66 18 -166 56 -166 150c0 102 92 163 197 163c66 0 128 -17 184 -54l-42 -83c-42 28 -96 43 -141 43c-51 0 -90 -18 -90 -58
c0 -47 61 -48 123 -68c77 -24 164 -57 164 -156zM304 600h-104l-122 134h97l77 -56l77 56h97z" />
    <glyph glyph-name="Zcaron" unicode="&#x17d;" horiz-adv-x="675" 
d="M454 591h-394v108h558v-92l-406 -495v-3h412v-109h-577v91l407 497v3zM399 760h-104l-122 134h97l77 -56l77 56h97z" />
    <glyph glyph-name="zcaron" unicode="&#x17e;" horiz-adv-x="541" 
d="M335 434h-271v96h416v-101l-299 -332h315v-97h-452v109zM325 600h-104l-122 134h97l77 -56l77 56h97z" />
    <glyph glyph-name="florin" unicode="&#x192;" horiz-adv-x="674" 
d="M399 325l-51 -361c-13 -89 -72 -176 -188 -176c-45 0 -92 17 -132 53l50 84c20 -19 50 -36 78 -36c44 0 73 45 79 86l49 350h-69l12 93h69l21 156c16 117 108 183 197 183c45 0 94 -17 129 -53l-58 -79c-15 19 -37 35 -67 35c-44 0 -78 -33 -85 -83l-22 -159h143l-12 -93
h-143z" />
    <glyph glyph-name="circumflex" unicode="&#x2c6;" horiz-adv-x="674" 
d="M288 734h104l122 -134h-97l-77 56l-77 -56h-97z" />
    <glyph glyph-name="caron" unicode="&#x2c7;" horiz-adv-x="548" 
d="M326 760h-104l-122 134h97l77 -56l77 56h97z" />
    <glyph glyph-name="breve" unicode="&#x2d8;" horiz-adv-x="542" 
d="M442 726c-7 -94 -75 -148 -171 -148s-164 54 -171 148h83c12 -38 37 -63 88 -63s76 25 88 63h83z" />
    <glyph glyph-name="dotaccent" unicode="&#x2d9;" horiz-adv-x="329" 
d="M112 686c0 41 33 74 74 74c42 0 75 -33 75 -74s-34 -75 -75 -75s-74 33 -74 75z" />
    <glyph glyph-name="ring" unicode="&#x2da;" horiz-adv-x="377" 
d="M297 687c0 -57 -52 -104 -109 -104s-108 47 -108 104s51 105 108 105s109 -48 109 -105zM243 687c0 33 -22 56 -55 56c-32 0 -55 -23 -55 -56c0 -32 23 -55 55 -55c33 0 55 23 55 55z" />
    <glyph glyph-name="ogonek" unicode="&#x2db;" horiz-adv-x="215" 
d="M71 -8h63l-25 -41c-18 -30 -23 -53 -23 -66c0 -20 10 -31 26 -31c18 0 31 13 37 24l48 -34c-17 -28 -44 -56 -91 -56c-46 0 -88 34 -88 85c0 29 14 63 32 89z" />
    <glyph glyph-name="tilde" unicode="&#x2dc;" horiz-adv-x="519" 
d="M427 869c-2 -78 -29 -130 -92 -130c-48 0 -101 47 -132 47c-18 0 -33 -8 -34 -44h-74c0 76 32 130 89 130c50 0 104 -47 138 -47c19 0 30 11 30 44h75z" />
    <glyph glyph-name="hungarumlaut" unicode="&#x2dd;" horiz-adv-x="506" 
d="M154 601h-102l106 145l118 -49zM348 601h-102l106 145l118 -49z" />
    <glyph glyph-name="pi" unicode="&#x3c0;" horiz-adv-x="746" 
d="M135 322l-84 -35c-14 28 -21 57 -21 86c0 89 56 159 173 159h516v-100h-116v-432h-112v432h-153c-5 -120 -34 -335 -71 -432h-111c37 111 67 311 70 432h-16c-50 0 -83 -29 -83 -73c0 -13 3 -26 8 -37z" />
    <glyph glyph-name="endash" unicode="&#x2013;" horiz-adv-x="538" 
d="M82 226v67h374v-67h-374z" />
    <glyph glyph-name="emdash" unicode="&#x2014;" horiz-adv-x="725" 
d="M82 227v66h561v-66h-561z" />
    <glyph glyph-name="quoteleft" unicode="&#x2018;" horiz-adv-x="216" 
d="M173 705l-39 -86c19 -12 28 -31 28 -51c0 -37 -27 -63 -64 -63c-33 0 -63 23 -63 63c0 20 7 36 18 52l59 85h61z" />
    <glyph glyph-name="quoteright" unicode="&#x2019;" horiz-adv-x="217" 
d="M96 500h-61l38 86c-18 11 -27 30 -27 51c0 37 27 63 64 63c33 0 63 -23 63 -63c0 -20 -7 -36 -18 -52z" />
    <glyph glyph-name="quotesinglbase" unicode="&#x201a;" horiz-adv-x="217" 
d="M96 -81h-61l38 86c-18 11 -27 30 -27 51c0 37 27 63 64 63c33 0 63 -23 63 -63c0 -20 -7 -36 -18 -52z" />
    <glyph glyph-name="quotedblleft" unicode="&#x201c;" horiz-adv-x="370" 
d="M173 705l-39 -86c19 -12 28 -31 28 -51c0 -37 -27 -63 -64 -63c-33 0 -63 23 -63 63c0 20 7 36 18 52l59 85h61zM326 705l-39 -86c19 -12 28 -31 28 -51c0 -37 -27 -63 -64 -63c-33 0 -63 23 -63 63c0 20 7 36 18 52l59 85h61z" />
    <glyph glyph-name="quotedblright" unicode="&#x201d;" horiz-adv-x="369" 
d="M96 500h-61l38 86c-18 11 -27 30 -27 51c0 37 27 63 64 63c33 0 63 -23 63 -63c0 -20 -7 -36 -18 -52zM248 500h-61l38 86c-18 11 -27 30 -27 51c0 37 27 63 64 63c33 0 63 -23 63 -63c0 -20 -7 -36 -18 -52z" />
    <glyph glyph-name="quotedblbase" unicode="&#x201e;" horiz-adv-x="369" 
d="M96 -81h-61l38 86c-18 11 -27 30 -27 51c0 37 27 63 64 63c33 0 63 -23 63 -63c0 -20 -7 -36 -18 -52zM248 -81h-61l38 86c-18 11 -27 30 -27 51c0 37 27 63 64 63c33 0 63 -23 63 -63c0 -20 -7 -36 -18 -52z" />
    <glyph glyph-name="dagger" unicode="&#x2020;" horiz-adv-x="523" 
d="M206 -194v586h-170v102h170v207h106v-207h176v-102h-176v-586h-106z" />
    <glyph glyph-name="daggerdbl" unicode="&#x2021;" horiz-adv-x="517" 
d="M310 392v-235h107v-82h-107v-269h-106v269h-110v82h110v235h-166v102h166v207h106v-207h170v-102h-170z" />
    <glyph glyph-name="bullet" unicode="&#x2022;" horiz-adv-x="428" 
d="M85 316c0 71 58 129 129 129s129 -58 129 -129s-58 -129 -129 -129s-129 58 -129 129z" />
    <glyph glyph-name="ellipsis" unicode="&#x2026;" horiz-adv-x="698" 
d="M66 67c0 41 33 74 74 74c42 0 75 -33 75 -74s-34 -75 -75 -75s-74 33 -74 75zM275 67c0 41 33 74 74 74c42 0 75 -33 75 -74s-34 -75 -75 -75s-74 33 -74 75zM484 67c0 41 33 74 74 74c42 0 75 -33 75 -74s-34 -75 -75 -75s-74 33 -74 75z" />
    <glyph glyph-name="perthousand" unicode="&#x2030;" horiz-adv-x="1166" 
d="M350 554c0 -87 -64 -160 -152 -160c-87 0 -150 72 -150 159s64 160 152 160c87 0 150 -72 150 -159zM714 699l-512 -699h-129l512 699h129zM256 552c0 40 -27 71 -58 71c-33 0 -57 -31 -57 -71s27 -71 58 -71c33 0 57 31 57 71zM747 152c0 -87 -64 -160 -152 -160
c-87 0 -150 72 -150 159s64 160 152 160c87 0 150 -72 150 -159zM655 148c0 40 -27 71 -58 71c-33 0 -57 -31 -57 -71s27 -71 58 -71c33 0 57 31 57 71zM1130 152c0 -87 -64 -160 -152 -160c-87 0 -150 72 -150 159s64 160 152 160c87 0 150 -72 150 -159zM1038 148
c0 40 -27 71 -58 71c-33 0 -57 -31 -57 -71s27 -71 58 -71c33 0 57 31 57 71z" />
    <glyph glyph-name="guilsinglleft" unicode="&#x2039;" horiz-adv-x="349" 
d="M283 416l-115 -176l115 -176h-108l-119 176l119 176h108z" />
    <glyph glyph-name="guilsinglright" unicode="&#x203a;" horiz-adv-x="349" 
d="M181 240l-115 176h108l119 -176l-119 -176h-108z" />
    <glyph glyph-name="fraction" unicode="&#x2044;" horiz-adv-x="635" 
d="M639 699l-512 -699h-129l512 699h129z" />
    <glyph glyph-name="Euro" unicode="&#x20ac;" horiz-adv-x="761" 
d="M52 393v86h104c44 141 164 237 308 237c119 0 201 -52 252 -115l-71 -90c-59 63 -106 85 -176 85c-84 0 -148 -42 -179 -117h238v-86h-259c-1 -12 -1 -23 -1 -35c0 -17 1 -33 3 -48h257v-86h-230c33 -64 91 -104 163 -104c76 0 121 30 174 85l71 -86
c-51 -63 -129 -115 -245 -115c-139 0 -253 86 -300 220h-109v86h90c-2 16 -3 33 -3 50c0 11 0 22 1 33h-88z" />
    <glyph glyph-name="trademark" unicode="&#x2122;" horiz-adv-x="1000" 
d="M252 636v-346h-69v346h-124v63h317v-63h-124zM664 325l-142 284v-319h-69v409h108l123 -257l124 257h107v-409h-69v319l-143 -284h-39z" />
    <glyph glyph-name="Omega" unicode="&#x2126;" horiz-adv-x="906" 
d="M453 716c207 0 368 -155 368 -361c0 -85 -34 -171 -117 -244h148v-111h-334v110c107 29 182 127 182 244c0 140 -107 254 -247 254s-247 -114 -247 -254c0 -117 75 -215 182 -244v-110h-334v111h148c-83 73 -117 159 -117 244c0 206 161 361 368 361z" />
    <glyph glyph-name="partialdiff" unicode="&#x2202;" horiz-adv-x="617" 
d="M143 569l-62 77c39 29 96 67 193 67c148 0 283 -97 283 -354c0 -194 -67 -367 -269 -367c-137 0 -240 106 -240 250c0 139 125 203 218 203c86 0 148 -38 173 -69c0 12 0 18 -1 30c-11 106 -35 207 -176 207c-68 0 -119 -44 -119 -44zM435 246l2 26
c-44 49 -94 74 -159 74c-64 0 -120 -45 -119 -117c1 -78 48 -128 128 -128c81 0 137 60 148 145z" />
    <glyph glyph-name="Delta" unicode="&#x2206;" horiz-adv-x="790" 
d="M452 699l308 -699h-730l308 699h114zM206 111l378 -2l-189 426z" />
    <glyph glyph-name="product" unicode="&#x220f;" horiz-adv-x="801" 
d="M709 -212h-124v887h-369v-887h-124v1000h617v-1000z" />
    <glyph glyph-name="summation" unicode="&#x2211;" horiz-adv-x="703" 
d="M663 -212h-626v89l303 417l-290 405v89h593v-113h-414l267 -380l-286 -394h453v-113z" />
    <glyph glyph-name="minus" unicode="&#x2212;" horiz-adv-x="568" 
d="M48 434h472v-94h-472v94z" />
    <glyph glyph-name="radical" unicode="&#x221a;" horiz-adv-x="717" 
d="M24 311v99h183l139 -435l253 782h113l-299 -913h-136l-152 467h-101z" />
    <glyph glyph-name="infinity" unicode="&#x221e;" horiz-adv-x="868" 
d="M434 322c52 62 109 119 196 119c104 0 167 -79 167 -179c0 -102 -66 -180 -171 -180c-86 0 -137 53 -192 111c-55 -58 -106 -111 -192 -111c-105 0 -171 78 -171 180c0 100 63 179 167 179c87 0 144 -57 196 -119zM376 259c-33 35 -87 92 -138 92c-47 0 -76 -39 -76 -87
c0 -49 30 -89 79 -89c51 0 103 48 135 84zM492 259c32 -36 84 -84 135 -84c49 0 79 40 79 89c0 48 -29 87 -76 87c-51 0 -105 -57 -138 -92z" />
    <glyph glyph-name="integral" unicode="&#x222b;" horiz-adv-x="388" 
d="M372 855l-13 -90c-10 5 -24 10 -39 10c-82 0 -83 -84 -83 -184c0 -162 15 -318 15 -493c0 -144 -28 -268 -163 -268c-30 0 -62 9 -76 17l16 93c10 -5 27 -12 47 -12c73 0 79 80 79 185c0 177 -16 321 -16 489c0 151 32 266 172 266c24 0 50 -7 61 -13z" />
    <glyph glyph-name="approxequal" unicode="&#x2248;" horiz-adv-x="692" 
d="M603 602c0 -123 -62 -188 -145 -188c-54 0 -83 17 -155 61c-19 11 -38 19 -54 19c-30 0 -47 -19 -54 -76h-106c0 123 62 188 145 188c53 0 82 -16 155 -61c18 -11 39 -19 54 -19c30 0 47 19 54 76h106zM603 378c0 -123 -62 -188 -145 -188c-54 0 -83 17 -155 61
c-19 11 -38 19 -54 19c-30 0 -47 -19 -54 -76h-106c0 123 62 188 145 188c53 0 82 -16 155 -61c18 -11 39 -19 54 -19c30 0 47 19 54 76h106z" />
    <glyph glyph-name="notequal" unicode="&#x2260;" horiz-adv-x="635" 
d="M64 333h190l46 99h-236v108h286l75 160h100l-75 -160h118v-108h-168l-46 -99h214v-108h-265l-74 -160h-100l74 160h-139v108z" />
    <glyph glyph-name="lessequal" unicode="&#x2264;" horiz-adv-x="615" 
d="M67 334v126l471 218v-114l-352 -159v-11l352 -163v-114zM67 46h472v-98h-472v98z" />
    <glyph glyph-name="greaterequal" unicode="&#x2265;" horiz-adv-x="615" 
d="M548 460v-126l-471 -217v114l352 163v11l-352 159v114zM76 46h472v-98h-472v98z" />
    <glyph glyph-name="lozenge" unicode="&#x25ca;" horiz-adv-x="650" 
d="M91 33v435h468v-435h-468z" />
    <glyph glyph-name="fi" unicode="&#xfb01;" horiz-adv-x="660" 
d="M219 576v-44h140v-90h-140v-442h-112v442h-67v90h67v41c0 117 82 183 171 183c45 0 92 -17 132 -53l-46 -79c-18 19 -42 35 -72 35c-44 0 -73 -33 -73 -83zM579 0h-112v532h112v-532zM453 688c0 39 32 71 71 71s71 -32 71 -71s-32 -71 -71 -71s-71 32 -71 71z" />
    <glyph glyph-name="fl" unicode="&#xfb02;" horiz-adv-x="660" 
d="M219 576v-44h140v-90h-140v-442h-112v442h-67v90h67v41c0 117 82 183 171 183c45 0 92 -17 132 -53l-46 -79c-18 19 -42 35 -72 35c-44 0 -73 -33 -73 -83zM579 0h-112v742h112v-742z" />
    </font>
</defs>
</svg>
