<?xml version="1.0" standalone="no"?>
<!DOCTYPE svg PUBLIC "-//W3C//DTD SVG 1.1//EN" "http://www.w3.org/Graphics/SVG/1.1/DTD/svg11.dtd" >
<svg version="1.1" xmlns="http://www.w3.org/2000/svg">
<metadata>
Created by FontForge 20120731 at Fri Aug  1 16:50:30 2014
 By Alfred Xing
Copyright \(c\) 2011-2012, Julieta Ulanovsky \(julieta.ulanovsky@gmail.com\), with Reserved Font Names 'Montserrat'
</metadata>
<defs>
<font id="montserrat" horiz-adv-x="292" >
  <font-face 
    font-family="Montserrat"
    font-weight="700"
    font-stretch="normal"
    units-per-em="1000"
    panose-1="2 0 5 5 0 0 0 2 0 4"
    ascent="800"
    descent="-200"
    x-height="538"
    cap-height="699"
    bbox="-111 -250 1083 948"
    underline-thickness="50"
    underline-position="-50"
    stemh="176"
    stemv="156"
    unicode-range="U+000D-FB02"
  />
<missing-glyph horiz-adv-x="264" 
 />
    <glyph glyph-name=".notdef" horiz-adv-x="264" 
 />
    <glyph glyph-name="NULL" horiz-adv-x="0" 
 />
    <glyph glyph-name="NULL" horiz-adv-x="0" 
 />
    <glyph glyph-name="CR" unicode="&#xd;" horiz-adv-x="264" 
 />
    <glyph glyph-name="space" unicode=" " horiz-adv-x="264" 
 />
    <glyph glyph-name="exclam" unicode="!" horiz-adv-x="315" 
d="M69 699h177v-124l-30 -360h-118l-29 360v124zM69 80c0 49 39 88 88 88s88 -39 88 -88s-39 -88 -88 -88s-88 39 -88 88z" />
    <glyph glyph-name="quotedbl" unicode="&#x22;" horiz-adv-x="433" 
d="M71 431v268h119v-268h-119zM243 431v268h119v-268h-119z" />
    <glyph glyph-name="numbersign" unicode="#" horiz-adv-x="747" 
d="M677 415h-101l-21 -125h115l-27 -138h-111l-26 -152h-150l26 152h-91l-26 -152h-151l26 152h-96l27 138h93l21 125h-107l27 138h103l27 162h151l-27 -162h90l27 162h152l-29 -162h105zM427 415h-91l-22 -125h91c8 44 13 77 22 125z" />
    <glyph glyph-name="dollar" unicode="$" horiz-adv-x="635" 
d="M270 -69v73c-83 13 -163 52 -234 115l93 113c49 -43 94 -73 141 -87v149c-131 34 -203 83 -203 205c0 113 83 191 203 206v49h106v-51c71 -10 133 -37 199 -83l-82 -118c-42 30 -81 50 -117 60v-144c139 -36 211 -91 211 -205c0 -121 -85 -198 -211 -212v-70h-106z
M427 202c0 27 -11 44 -51 61v-123c32 10 51 32 51 62zM227 509c0 -26 10 -43 43 -59v116c-28 -10 -43 -32 -43 -57z" />
    <glyph glyph-name="percent" unicode="%" horiz-adv-x="819" 
d="M743 699l-501 -699h-172l502 699h171zM605 83c24 0 42 19 42 49s-18 51 -42 51c-23 0 -41 -21 -41 -51s18 -49 41 -49zM605 -8c-85 0 -147 63 -147 140c0 78 62 141 147 141c86 0 148 -63 148 -141c0 -77 -62 -140 -148 -140zM211 492c24 0 42 19 42 49s-18 51 -42 51
c-23 0 -41 -21 -41 -51s18 -49 41 -49zM211 401c-85 0 -147 63 -147 140c0 78 62 141 147 141c86 0 148 -63 148 -141c0 -77 -62 -140 -148 -140z" />
    <glyph glyph-name="ampersand" unicode="&#x26;" horiz-adv-x="700" 
d="M520 364l117 -84c-17 -46 -36 -84 -56 -117l99 -98l-99 -94l-87 89c-68 -55 -140 -68 -204 -68c-127 0 -243 74 -243 211c0 77 54 141 147 195c-38 46 -63 82 -63 142c0 118 99 175 216 175c89 0 194 -53 194 -165c0 -73 -55 -130 -143 -182c24 -30 46 -59 84 -101
c16 29 29 61 38 97zM297 117c32 0 68 16 102 44c-57 60 -100 109 -126 140c-45 -28 -77 -64 -77 -103c0 -48 45 -81 101 -81zM281 542c0 -25 13 -45 40 -79c52 28 75 52 75 75c0 42 -31 59 -60 59c-25 0 -55 -21 -55 -55z" />
    <glyph glyph-name="quotesingle" unicode="'" horiz-adv-x="261" 
d="M71 431v268h119v-268h-119z" />
    <glyph glyph-name="parenleft" unicode="(" horiz-adv-x="362" 
d="M194 313c0 -148 67 -331 143 -440h-162c-58 82 -130 267 -130 440s72 359 130 441h162c-76 -110 -143 -292 -143 -441z" />
    <glyph glyph-name="parenright" unicode=")" horiz-adv-x="362" 
d="M168 313c0 149 -67 331 -143 441h162c58 -82 130 -268 130 -441s-72 -358 -130 -440h-162c76 109 143 292 143 440z" />
    <glyph glyph-name="asterisk" unicode="*" horiz-adv-x="456" 
d="M278 447l6 -84h-112l6 84l-71 -49l-51 91l84 42l-85 42l52 89l71 -47l-6 84h112l-6 -84l71 47l52 -89l-85 -42l84 -42l-51 -91z" />
    <glyph glyph-name="plus" unicode="+" horiz-adv-x="584" 
d="M223 109v180h-175v123h175v180h138v-180h175v-123h-175v-180h-138z" />
    <glyph glyph-name="comma" unicode="," horiz-adv-x="297" 
d="M53 -99l38 111c-21 15 -35 40 -35 68c0 51 43 88 91 88c51 0 94 -37 94 -88c0 -28 -13 -50 -29 -76l-60 -103h-99z" />
    <glyph glyph-name="hyphen" unicode="-" horiz-adv-x="490" 
d="M67 234v133h356v-133h-356z" />
    <glyph glyph-name="period" unicode="." horiz-adv-x="288" 
d="M56 80c0 49 39 88 88 88s88 -39 88 -88s-39 -88 -88 -88s-88 39 -88 88z" />
    <glyph glyph-name="slash" unicode="/" horiz-adv-x="614" 
d="M446 805h142l-420 -917h-141z" />
    <glyph glyph-name="zero" unicode="0" horiz-adv-x="690" 
d="M209 353c0 -129 37 -233 136 -233s136 104 136 233s-37 233 -136 233s-136 -104 -136 -233zM56 353c0 208 87 362 289 362s289 -154 289 -362c0 -207 -87 -361 -289 -361s-289 154 -289 361z" />
    <glyph glyph-name="one" unicode="1" horiz-adv-x="403" 
d="M31 699h283v-699h-150v566h-133v133z" />
    <glyph glyph-name="two" unicode="2" horiz-adv-x="605" 
d="M378 495c0 52 -35 86 -82 86c-55 0 -95 -46 -125 -94l-125 74c61 95 132 154 251 154c122 0 233 -77 233 -214c0 -71 -29 -126 -129 -230l-126 -131h276v-140h-493v116l205 210c75 77 115 125 115 169z" />
    <glyph glyph-name="three" unicode="3" horiz-adv-x="591" 
d="M294 566h-219v133h428v-108l-143 -163c116 -19 176 -107 176 -201c0 -152 -118 -235 -260 -235c-74 0 -160 27 -240 82l64 124c61 -43 128 -70 177 -70c57 0 108 26 108 93c0 51 -46 91 -132 91c-19 0 -49 -5 -93 -19v115z" />
    <glyph glyph-name="four" unicode="4" horiz-adv-x="588" 
d="M218 302h99v122h150v-122h79v-135h-79v-167h-150v167h-281v119l249 413h170z" />
    <glyph glyph-name="five" unicode="5" horiz-adv-x="596" 
d="M506 699v-135h-276v-117c24 7 46 9 71 9c126 0 247 -80 247 -226c0 -138 -116 -238 -262 -238c-134 0 -210 75 -237 105l82 114s78 -78 152 -78c58 0 109 30 109 94c0 67 -55 99 -117 99c-36 0 -80 -13 -126 -38l-65 70v341h422z" />
    <glyph glyph-name="six" unicode="6" horiz-adv-x="630" 
d="M557 633l-74 -110s-57 58 -129 58c-91 0 -134 -68 -144 -162c34 22 82 42 138 42c127 0 229 -90 229 -233c0 -147 -109 -236 -248 -236c-205 0 -273 168 -273 356c0 264 137 367 286 367c106 0 170 -46 215 -82zM224 228c0 -55 45 -105 103 -105c63 0 107 42 107 100
c0 57 -36 106 -102 106c-58 0 -108 -37 -108 -101z" />
    <glyph glyph-name="seven" unicode="7" horiz-adv-x="579" 
d="M47 475v224h505v-118l-283 -581h-170l270 565h-176v-90h-146z" />
    <glyph glyph-name="eight" unicode="8" horiz-adv-x="642" 
d="M321 715c137 0 242 -80 242 -197c0 -59 -28 -100 -62 -132c51 -39 87 -98 87 -176c0 -120 -105 -218 -267 -218c-163 0 -267 98 -267 218c0 78 36 137 87 176c-34 32 -63 73 -63 132c0 117 106 197 243 197zM321 122c46 0 111 27 111 90c0 68 -61 95 -111 95
s-111 -27 -111 -95c0 -63 65 -90 111 -90zM321 427c49 0 95 34 95 86c0 45 -44 81 -95 81s-95 -36 -95 -81c0 -52 46 -86 95 -86z" />
    <glyph glyph-name="nine" unicode="9" horiz-adv-x="629" 
d="M72 73l78 110s60 -57 125 -57c91 0 134 68 144 162c-34 -23 -82 -43 -138 -43c-127 0 -229 91 -229 233c0 148 109 237 248 237c205 0 273 -168 273 -356c0 -264 -137 -367 -286 -367c-106 0 -170 46 -215 81zM405 478c0 55 -45 106 -103 106c-63 0 -104 -43 -104 -100
s34 -106 99 -106c58 0 108 36 108 100z" />
    <glyph glyph-name="colon" unicode=":" horiz-adv-x="310" 
d="M67 80c0 49 39 88 88 88s88 -39 88 -88s-39 -88 -88 -88s-88 39 -88 88zM67 343c0 49 39 88 88 88s88 -39 88 -88s-39 -88 -88 -88s-88 39 -88 88z" />
    <glyph glyph-name="semicolon" unicode=";" horiz-adv-x="315" 
d="M64 -101l39 111c-22 16 -36 41 -36 69c0 51 43 88 91 88c52 0 95 -37 95 -88c0 -27 -14 -51 -29 -77l-62 -103h-98zM67 343c0 49 39 88 88 88s88 -39 88 -88s-39 -88 -88 -88s-88 39 -88 88z" />
    <glyph glyph-name="less" unicode="&#x3c;" horiz-adv-x="601" 
d="M41 326v137l486 229v-147l-321 -148l321 -152v-148z" />
    <glyph glyph-name="equal" unicode="=" horiz-adv-x="587" 
d="M50 538h487v-123h-487v123zM50 289h487v-123h-487v123z" />
    <glyph glyph-name="greater" unicode="&#x3e;" horiz-adv-x="601" 
d="M560 463v-137l-486 -229v148l321 152l-321 148v147z" />
    <glyph glyph-name="question" unicode="?" horiz-adv-x="524" 
d="M331 208h-152v75c0 58 13 74 55 117l68 70c9 11 15 27 15 46c0 38 -24 67 -57 67c-36 0 -61 -34 -66 -82h-159c15 135 104 214 230 214c118 0 209 -68 209 -192c0 -84 -50 -123 -110 -183c-23 -22 -33 -34 -33 -72v-60zM169 80c0 49 39 88 88 88s88 -39 88 -88
s-39 -88 -88 -88s-88 39 -88 88z" />
    <glyph glyph-name="at" unicode="@" horiz-adv-x="891" 
d="M688 122c35 0 68 62 68 151c0 182 -109 326 -304 326c-174 0 -316 -149 -316 -331c0 -179 132 -314 304 -314c54 0 124 22 178 74l41 -71c-54 -47 -147 -78 -219 -78c-222 0 -392 168 -392 389c0 225 181 406 404 406c222 0 391 -171 391 -398c0 -147 -66 -243 -165 -243
c-51 0 -97 34 -113 81c-40 -52 -92 -71 -142 -71c-104 0 -207 90 -207 228c0 125 79 232 205 232c70 0 112 -53 112 -53v41h125v-319c0 -34 12 -50 30 -50zM436 389c-56 0 -92 -53 -92 -113c0 -64 35 -122 93 -122c64 0 97 56 97 121c0 62 -36 114 -98 114z" />
    <glyph glyph-name="A" unicode="A" horiz-adv-x="745" 
d="M584 0l-65 151h-293l-65 -151h-166l302 699h151l302 -699h-166zM373 491l-88 -203h175z" />
    <glyph glyph-name="B" unicode="B" horiz-adv-x="689" 
d="M392 0h-306v699h272c201 0 247 -106 247 -185c0 -107 -69 -135 -103 -151c86 -18 142 -80 142 -169c0 -86 -51 -194 -252 -194zM242 416h74c74 0 128 8 128 73c0 69 -43 78 -127 78h-75v-151zM242 132h107c78 0 134 11 134 82c0 69 -56 79 -149 79h-92v-161z" />
    <glyph glyph-name="C" unicode="C" horiz-adv-x="732" 
d="M407 138c72 0 138 29 188 91l100 -103c-62 -70 -155 -134 -288 -134c-204 0 -363 150 -363 361c0 207 163 362 367 362c141 0 226 -61 288 -131l-97 -110c-51 63 -118 92 -184 92c-110 0 -213 -75 -213 -215c0 -131 94 -213 202 -213z" />
    <glyph glyph-name="D" unicode="D" horiz-adv-x="769" 
d="M720 350c0 -202 -116 -350 -395 -350h-239v699h247c251 0 387 -130 387 -349zM563 350c0 132 -71 213 -234 213h-87v-425h99c142 0 222 73 222 212z" />
    <glyph glyph-name="E" unicode="E" horiz-adv-x="654" 
d="M590 699v-139h-348v-144h313v-133h-313v-145h359v-138h-515v699h504z" />
    <glyph glyph-name="F" unicode="F" horiz-adv-x="612" 
d="M566 699v-137h-324v-151h308v-137h-308v-274h-156v699h480z" />
    <glyph glyph-name="G" unicode="G" horiz-adv-x="750" 
d="M540 356h157v-248c-61 -68 -157 -116 -288 -116c-204 0 -363 150 -363 361c0 207 163 362 367 362c112 0 195 -43 258 -99l-81 -117c-66 57 -114 72 -172 72c-116 0 -211 -85 -211 -220c0 -136 93 -218 203 -218c48 0 92 9 130 31v192z" />
    <glyph glyph-name="H" unicode="H" horiz-adv-x="762" 
d="M520 699h156v-699h-156v275h-278v-275h-156v699h156v-292h278v292z" />
    <glyph glyph-name="I" unicode="I" horiz-adv-x="328" 
d="M86 699h156v-699h-156v699z" />
    <glyph glyph-name="J" unicode="J" horiz-adv-x="556" 
d="M112 565v134h364v-456c0 -176 -105 -249 -230 -249c-77 0 -154 29 -220 97l81 112c42 -45 85 -68 132 -68c40 0 80 30 80 102v328h-207z" />
    <glyph glyph-name="K" unicode="K" horiz-adv-x="710" 
d="M86 699h156v-287l264 287h193l-278 -309c88 -123 191 -269 278 -390h-182l-205 276l-70 -78v-198h-156v699z" />
    <glyph glyph-name="L" unicode="L" horiz-adv-x="568" 
d="M86 0v699h156v-560h298v-139h-454z" />
    <glyph glyph-name="M" unicode="M" horiz-adv-x="954" 
d="M430 58l-188 382v-440h-156v699h211l180 -384l181 384h210v-699h-156v440c-63 -127 -127 -258 -189 -382h-93z" />
    <glyph glyph-name="N" unicode="N" horiz-adv-x="817" 
d="M575 249v450h156v-699h-156l-333 438v-438h-156v699h146z" />
    <glyph glyph-name="O" unicode="O" horiz-adv-x="826" 
d="M413 579c-117 0 -207 -101 -207 -226c0 -123 90 -224 207 -224c118 0 208 101 208 224c0 125 -90 226 -208 226zM413 -7c-206 0 -367 155 -367 361s161 361 367 361s367 -155 367 -361s-161 -361 -367 -361z" />
    <glyph glyph-name="P" unicode="P" horiz-adv-x="677" 
d="M641 451c0 -185 -104 -256 -306 -256h-93v-195h-156v699h247c219 0 308 -88 308 -248zM481 451c0 87 -51 114 -150 114h-89v-235h105c112 0 134 53 134 121z" />
    <glyph glyph-name="Q" unicode="Q" horiz-adv-x="827" 
d="M780 354c0 -148 -82 -269 -205 -326c12 -21 43 -36 66 -36c84 0 113 63 113 63l81 -97c-64 -68 -145 -91 -215 -91c-76 0 -164 43 -207 126c-206 0 -367 155 -367 361s161 361 367 361s367 -155 367 -361zM413 579c-117 0 -207 -101 -207 -226c0 -123 90 -224 207 -224
c118 0 208 101 208 224c0 125 -90 226 -208 226z" />
    <glyph glyph-name="R" unicode="R" horiz-adv-x="727" 
d="M653 467c0 -118 -47 -185 -133 -217l177 -250h-192l-155 223h-108v-223h-156v699h265c220 0 302 -72 302 -232zM494 467c0 76 -36 98 -135 98h-117v-207h114c113 0 138 39 138 109z" />
    <glyph glyph-name="S" unicode="S" horiz-adv-x="638" 
d="M227 513c0 -43 27 -62 137 -89c149 -37 227 -93 227 -214c0 -137 -105 -218 -256 -218c-106 0 -210 41 -299 123l93 114c71 -62 136 -99 209 -99c57 0 92 27 92 69c0 40 -23 61 -129 87c-150 36 -235 83 -235 217c0 146 118 212 250 212c92 0 191 -32 262 -92l-79 -114
c-70 53 -135 69 -188 69s-84 -29 -84 -65z" />
    <glyph glyph-name="T" unicode="T" horiz-adv-x="608" 
d="M382 564v-564h-156v564h-198v135h552v-135h-198z" />
    <glyph glyph-name="U" unicode="U" horiz-adv-x="751" 
d="M376 132c87 0 143 69 143 181v386h156v-391c0 -210 -132 -315 -299 -315s-300 105 -300 315v391h156v-386c0 -112 56 -181 144 -181z" />
    <glyph glyph-name="V" unicode="V" horiz-adv-x="688" 
d="M344 254l178 445h169l-281 -699h-132l-281 699h169z" />
    <glyph glyph-name="W" unicode="W" horiz-adv-x="1019" 
d="M304 297l124 402h163l123 -402l139 402h169l-244 -699h-116l-153 486l-152 -486h-116l-244 699h169z" />
    <glyph glyph-name="X" unicode="X" horiz-adv-x="695" 
d="M479 699h188l-218 -337l236 -362h-190l-149 230l-148 -230h-188l235 358l-219 341h187l133 -207z" />
    <glyph glyph-name="Y" unicode="Y" horiz-adv-x="618" 
d="M158 699l151 -260l151 260h169l-242 -423v-276h-156v276l-242 423h169z" />
    <glyph glyph-name="Z" unicode="Z" horiz-adv-x="681" 
d="M46 0v107l366 457h-354v135h567v-108l-365 -455h371v-136h-585z" />
    <glyph glyph-name="bracketleft" unicode="[" horiz-adv-x="374" 
d="M334 757v-113h-129v-665h129v-113h-257v891h257z" />
    <glyph glyph-name="backslash" unicode="\" horiz-adv-x="572" 
d="M28 757h151l364 -757h-151z" />
    <glyph glyph-name="bracketright" unicode="]" horiz-adv-x="374" 
d="M40 -134v113h129v665h-129v113h257v-891h-257z" />
    <glyph glyph-name="asciicircum" unicode="^" horiz-adv-x="483" 
d="M165 771h-143l137 177h165l137 -177h-143l-77 85z" />
    <glyph glyph-name="underscore" unicode="_" horiz-adv-x="720" 
d="M67 -132v87h586v-87h-586z" />
    <glyph glyph-name="grave" unicode="`" horiz-adv-x="382" 
d="M332 769h-143l-139 112l154 66z" />
    <glyph glyph-name="a" unicode="a" horiz-adv-x="594" 
d="M528 0h-141v65c-36 -45 -79 -73 -142 -73c-114 0 -203 70 -203 179c0 118 93 167 224 167h112v3c0 64 -41 86 -91 86c-53 0 -118 -25 -156 -54l-67 97c85 62 164 77 242 77c118 0 222 -53 222 -204v-343zM377 205v26h-94c-48 0 -90 -12 -90 -56c0 -40 34 -60 77 -60
c60 0 107 34 107 90z" />
    <glyph glyph-name="b" unicode="b" horiz-adv-x="666" 
d="M625 269c0 -157 -122 -277 -245 -277c-56 0 -113 21 -159 79v-71h-150v742h150v-264c43 48 103 69 160 69c123 0 244 -103 244 -278zM343 120c67 0 131 58 131 148c0 88 -59 153 -131 153c-66 0 -124 -63 -124 -154c0 -87 58 -147 124 -147z" />
    <glyph glyph-name="c" unicode="c" horiz-adv-x="582" 
d="M464 200l89 -100c-73 -76 -153 -108 -232 -108c-145 0 -281 106 -281 276c0 172 137 279 285 279c74 0 159 -30 222 -95l-78 -102c-36 43 -90 65 -138 65c-73 0 -144 -49 -144 -145c0 -98 72 -145 142 -145c82 0 135 75 135 75z" />
    <glyph glyph-name="d" unicode="d" horiz-adv-x="666" 
d="M41 269c0 175 121 278 244 278c57 0 117 -21 160 -69v264h150v-742h-150v71c-46 -58 -103 -79 -159 -79c-123 0 -245 120 -245 277zM323 120c66 0 124 60 124 147c0 91 -58 154 -124 154c-72 0 -131 -65 -131 -153c0 -90 64 -148 131 -148z" />
    <glyph glyph-name="e" unicode="e" horiz-adv-x="618" 
d="M453 169l84 -91c-73 -69 -150 -86 -222 -86c-146 0 -274 103 -274 276c0 182 137 279 272 279c143 0 268 -89 268 -251v-80h-392c10 -60 70 -100 134 -100c39 0 89 10 130 53zM193 323h236c-7 68 -57 100 -110 100c-57 0 -117 -35 -126 -100z" />
    <glyph glyph-name="f" unicode="f" horiz-adv-x="402" 
d="M250 569v-36h130v-108h-130v-425h-151v425h-63v108h63v33c0 122 87 191 183 191c48 0 100 -16 148 -60l-54 -101c-24 28 -48 38 -73 38c-29 0 -53 -20 -53 -65z" />
    <glyph glyph-name="g" unicode="g" horiz-adv-x="667" 
d="M324 419c-67 0 -131 -48 -131 -138c0 -88 59 -143 131 -143c66 0 124 53 124 144c0 87 -58 137 -124 137zM469 91c-43 -48 -106 -79 -183 -79c-123 0 -244 93 -244 268c0 157 122 267 245 267c56 0 113 -21 159 -79v71h150v-469c0 -200 -147 -282 -288 -282
c-76 0 -167 25 -232 75l58 113c49 -37 111 -56 165 -56c89 0 170 43 170 171z" />
    <glyph glyph-name="h" unicode="h" horiz-adv-x="639" 
d="M221 290v-290h-150v742h150v-264c46 47 102 69 156 69c103 0 197 -81 197 -220v-327h-150v294c0 86 -34 124 -91 124c-54 0 -112 -38 -112 -128z" />
    <glyph glyph-name="i" unicode="i" 
d="M221 0h-150v538h150v-538zM58 669c0 49 39 88 88 88s88 -39 88 -88s-39 -88 -88 -88s-88 39 -88 88z" />
    <glyph glyph-name="j" unicode="j" horiz-adv-x="343" 
d="M122 -10v549h150v-561c0 -122 -87 -190 -182 -190c-49 0 -102 20 -150 64l69 111c19 -22 44 -35 67 -35c25 0 46 18 46 62zM109 669c0 49 39 88 88 88s88 -39 88 -88s-39 -88 -88 -88s-88 39 -88 88z" />
    <glyph glyph-name="k" unicode="k" horiz-adv-x="595" 
d="M372 321l213 -321h-178l-137 206l-49 -51v-155h-150v742h150v-381l167 178h189z" />
    <glyph glyph-name="l" unicode="l" 
d="M221 0h-150v742h150v-742z" />
    <glyph glyph-name="m" unicode="m" horiz-adv-x="983" 
d="M565 290v-290h-151v294c0 86 -25 124 -81 124c-54 0 -112 -38 -112 -128v-290h-150v538h150v-61c38 43 90 70 142 70c73 0 130 -51 155 -103c43 68 122 103 189 103c121 0 211 -72 211 -220v-327h-151v294c0 86 -33 124 -91 124c-54 0 -111 -38 -111 -128z" />
    <glyph glyph-name="n" unicode="n" horiz-adv-x="639" 
d="M221 300v-300h-150v538h150v-60c49 50 103 69 157 69c103 0 196 -81 196 -220v-327h-150v304c0 86 -34 124 -91 124c-54 0 -112 -38 -112 -128z" />
    <glyph glyph-name="o" unicode="o" horiz-adv-x="649" 
d="M324 120c78 0 134 61 134 149c0 89 -56 150 -134 150c-77 0 -133 -61 -133 -150c0 -88 56 -149 133 -149zM324 -8c-164 0 -284 123 -284 277s120 278 284 278c165 0 285 -124 285 -278s-120 -277 -285 -277z" />
    <glyph glyph-name="p" unicode="p" horiz-adv-x="666" 
d="M625 269c0 -159 -116 -277 -248 -277c-56 0 -114 24 -156 79v-265h-150v732h150v-60c48 48 104 69 159 69c125 0 245 -111 245 -278zM343 120c67 0 131 58 131 148c0 88 -59 153 -131 153c-66 0 -124 -63 -124 -154c0 -87 58 -147 124 -147z" />
    <glyph glyph-name="q" unicode="q" horiz-adv-x="666" 
d="M41 269c0 168 123 278 248 278c65 0 110 -24 155 -69v60h151v-732h-151v237c-43 -34 -91 -51 -146 -51c-131 0 -257 109 -257 277zM323 120c66 0 123 60 123 147c0 91 -57 154 -123 154c-73 0 -131 -65 -131 -153c0 -90 63 -148 131 -148z" />
    <glyph glyph-name="r" unicode="r" horiz-adv-x="411" 
d="M382 547l1 -141h-29c-93 0 -133 -75 -133 -173v-233h-150v538h150v-71c36 40 97 78 161 80z" />
    <glyph glyph-name="s" unicode="s" horiz-adv-x="520" 
d="M476 172c0 -116 -91 -180 -207 -180c-75 0 -169 26 -242 85l66 94c63 -49 135 -65 179 -65c40 0 63 17 63 41c0 27 -30 46 -102 69c-69 22 -172 60 -172 159c0 108 96 172 207 172c67 0 133 -20 198 -64l-56 -100c-51 35 -102 48 -138 48c-45 0 -71 -12 -71 -38
c0 -31 35 -42 105 -64c81 -25 170 -52 170 -157z" />
    <glyph glyph-name="t" unicode="t" horiz-adv-x="440" 
d="M250 430v-241c0 -44 26 -66 54 -66c24 0 52 13 71 38l56 -105c-48 -44 -101 -64 -149 -64c-96 0 -183 68 -183 190v248h-63v108h63v161h151v-161h130v-108h-130z" />
    <glyph glyph-name="u" unicode="u" horiz-adv-x="640" 
d="M418 248v290h151v-538h-151v71c-38 -54 -93 -79 -149 -79c-101 0 -204 64 -204 220v326h151v-293c0 -86 33 -124 91 -124c54 0 111 38 111 127z" />
    <glyph glyph-name="v" unicode="v" horiz-adv-x="586" 
d="M216 0l-213 539h156l134 -339l134 339h156l-213 -539h-154z" />
    <glyph glyph-name="w" unicode="w" horiz-adv-x="902" 
d="M351 0h-155l-183 538h155l105 -325l105 325h145l105 -325l105 325h156l-183 -538h-156l-99 293z" />
    <glyph glyph-name="x" unicode="x" horiz-adv-x="585" 
d="M202 538l92 -144l95 144h176l-185 -263l192 -275h-179l-105 148l-102 -148h-173l188 274l-178 264h179z" />
    <glyph glyph-name="y" unicode="y" horiz-adv-x="590" 
d="M586 538l-250 -634c-30 -74 -97 -116 -172 -116c-48 0 -101 20 -149 64l68 111c29 -28 60 -37 78 -37c29 0 51 34 51 66c0 6 1 18 -208 546h160l131 -335l131 335h160z" />
    <glyph glyph-name="z" unicode="z" horiz-adv-x="553" 
d="M296 414h-235v124h434v-117l-261 -296h276v-125h-468v124z" />
    <glyph glyph-name="braceleft" unicode="{" horiz-adv-x="360" 
d="M311 -140h-55c-69 0 -150 22 -150 143v205c0 32 -8 41 -23 41h-46v122h46c15 0 23 10 23 42v201c0 121 81 143 150 143h55v-122c-7 0 -14 1 -21 1c-23 0 -44 -6 -44 -39v-209c0 -39 -15 -63 -37 -78c22 -14 37 -39 37 -77v-218c0 -20 13 -33 65 -33v-122z" />
    <glyph glyph-name="bar" unicode="|" horiz-adv-x="276" 
d="M76 -146v923h124v-923h-124z" />
    <glyph glyph-name="braceright" unicode="}" horiz-adv-x="360" 
d="M49 757h55c69 0 150 -22 150 -143v-205c0 -32 8 -41 23 -41h46v-122h-46c-15 0 -23 -10 -23 -42v-201c0 -121 -81 -143 -150 -143h-55v122c7 0 14 -1 21 -1c23 0 44 6 44 39v209c0 39 15 63 37 78c-22 14 -37 39 -37 77v218c0 20 -13 33 -65 33v122z" />
    <glyph glyph-name="asciitilde" unicode="~" horiz-adv-x="535" 
d="M368 289c-63 0 -135 65 -182 65c-20 0 -43 -22 -42 -73l-119 36c9 111 69 161 150 161c67 0 133 -64 182 -64c30 0 37 32 30 65l120 -32c-8 -119 -70 -158 -139 -158z" />
    <glyph glyph-name="exclamdown" unicode="&#xa1;" horiz-adv-x="318" 
d="M248 0h-177v132l29 360h118l30 -360v-132zM71 627c0 49 39 88 88 88s88 -39 88 -88s-39 -88 -88 -88s-88 39 -88 88z" />
    <glyph glyph-name="cent" unicode="&#xa2;" horiz-adv-x="598" 
d="M470 200l89 -100c-58 -61 -120 -93 -183 -103v-114h-96v113c-126 20 -234 120 -234 272s107 253 234 274v115h96v-114c62 -9 126 -39 177 -91l-78 -102c-27 31 -63 52 -99 60v-279c58 18 94 69 94 69zM193 270c0 -72 39 -117 87 -135v269c-49 -19 -87 -64 -87 -134z" />
    <glyph glyph-name="sterling" unicode="&#xa3;" horiz-adv-x="628" 
d="M295 508v-109h156v-126h-156v-140h278v-133h-511v133h76v140h-80v126h80v103c0 176 105 237 230 237c93 0 164 -46 210 -126l-111 -90c-22 51 -58 79 -92 79c-40 0 -80 -23 -80 -94z" />
    <glyph glyph-name="currency" unicode="&#xa4;" horiz-adv-x="761" 
d="M56 75l86 88c-30 44 -46 97 -46 155c0 56 15 108 44 152l-84 85l94 95l89 -89c41 22 89 35 141 35c53 0 101 -13 142 -36l89 90l94 -95l-84 -86c28 -43 44 -95 44 -151c0 -57 -17 -111 -47 -155l87 -88l-93 -95l-93 94c-41 -21 -88 -34 -139 -34s-98 12 -138 34l-93 -94z
M380 174c74 0 128 59 128 144s-54 143 -128 143s-128 -58 -128 -143s54 -144 128 -144z" />
    <glyph glyph-name="yen" unicode="&#xa5;" horiz-adv-x="741" 
d="M108 224h178v55h-178v96h114l-188 323h170l165 -285l171 285h169l-194 -323h110v-96h-176v-55h176v-96h-176v-128h-163v128h-178v96z" />
    <glyph glyph-name="brokenbar" unicode="&#xa6;" horiz-adv-x="294" 
d="M80 409v345h134v-345h-134zM80 -23v344h134v-344h-134z" />
    <glyph glyph-name="section" unicode="&#xa7;" horiz-adv-x="622" 
d="M237 564c0 -37 22 -53 117 -77c152 -37 224 -80 224 -186c0 -55 -27 -112 -102 -143c46 -31 64 -78 64 -115c0 -93 -83 -175 -224 -175c-92 0 -184 37 -263 109l84 101c63 -53 119 -88 182 -88c48 0 77 15 77 48s-35 52 -125 78c-126 37 -221 80 -221 198
c0 54 32 110 95 137c-37 26 -54 63 -54 103c0 111 92 185 217 185c89 0 152 -24 227 -79l-75 -107c-63 48 -108 64 -154 64c-44 0 -69 -24 -69 -53zM183 318c0 -50 72 -87 172 -87c50 0 90 23 90 60c0 62 -118 81 -183 81c-40 0 -79 -18 -79 -54z" />
    <glyph glyph-name="dieresis" unicode="&#xa8;" horiz-adv-x="531" 
d="M95 691c0 41 33 74 74 74s74 -33 74 -74s-33 -74 -74 -74s-74 33 -74 74zM288 691c0 41 33 74 74 74s74 -33 74 -74s-33 -74 -74 -74s-74 33 -74 74z" />
    <glyph glyph-name="copyright" unicode="&#xa9;" horiz-adv-x="824" 
d="M773 350c0 -197 -159 -362 -362 -362c-202 0 -360 163 -360 360c0 198 160 363 362 363c199 0 360 -162 360 -361zM699 350c0 157 -129 286 -286 286c-160 0 -288 -131 -288 -288c0 -156 125 -286 286 -286c162 0 288 132 288 288zM530 302l62 -75
c-54 -57 -117 -81 -176 -81c-108 0 -206 79 -206 205c0 129 103 208 213 208c55 0 118 -22 165 -71l-60 -75c-27 32 -65 48 -101 48c-54 0 -104 -36 -104 -108c0 -70 52 -109 107 -109c37 0 76 18 100 58z" />
    <glyph glyph-name="ordfeminine" unicode="&#xaa;" horiz-adv-x="358" 
d="M289 458h-74v31c-14 -22 -43 -34 -71 -34c-46 0 -93 31 -93 83c0 54 45 78 109 78h51v3c0 32 -17 43 -38 43c-37 0 -72 -19 -72 -19l-24 44s43 28 103 28c58 0 109 -24 109 -95v-162zM210 554v15h-44c-21 0 -36 -10 -36 -30c0 -19 14 -30 32 -30c27 0 48 17 48 45z" />
    <glyph glyph-name="guillemotleft" unicode="&#xab;" horiz-adv-x="604" 
d="M321 429l-118 -184l118 -185h-151l-122 185l122 184h151zM546 429l-118 -184l118 -185h-151l-122 185l122 184h151z" />
    <glyph glyph-name="logicalnot" unicode="&#xac;" horiz-adv-x="817" 
d="M63 445h669v-357h-112v239h-557v118z" />
    <glyph glyph-name="registered" unicode="&#xae;" horiz-adv-x="824" 
d="M773 350c0 -197 -159 -362 -362 -362c-202 0 -360 163 -360 360c0 198 160 363 362 363c199 0 360 -162 360 -361zM699 350c0 157 -129 286 -286 286c-160 0 -288 -131 -288 -288c0 -156 125 -286 286 -286c82 0 154 33 206 87h-116l-87 125h-44v-125h-110v406h161
c129 0 178 -43 178 -139c0 -66 -35 -104 -81 -124l101 -141c50 52 80 123 80 199zM490 416c0 37 -17 49 -65 49h-55v-101h53c55 0 67 18 67 52z" />
    <glyph glyph-name="macron" unicode="&#xaf;" horiz-adv-x="442" 
d="M388 687v-116h-333v116h333z" />
    <glyph glyph-name="degree" unicode="&#xb0;" horiz-adv-x="428" 
d="M214 714c92 0 167 -74 167 -164s-75 -162 -167 -162s-167 72 -167 162s75 164 167 164zM213 470c41 0 72 35 72 81c0 44 -31 79 -72 79c-39 0 -71 -35 -71 -79c0 -46 32 -81 71 -81z" />
    <glyph glyph-name="plusminus" unicode="&#xb1;" horiz-adv-x="581" 
d="M221 652h138v-144h174v-117h-174v-139h-138v139h-173v117h173v144zM48 202h485v-113h-485v113z" />
    <glyph glyph-name="twosuperior" unicode="&#xb2;" horiz-adv-x="439" 
d="M255 580c0 26 -16 43 -39 43c-27 0 -51 -29 -70 -59l-87 52c39 61 83 99 158 99c76 0 146 -47 146 -132c0 -43 -19 -76 -79 -139l-62 -65h153v-96h-307v77l122 126c42 43 65 70 65 94z" />
    <glyph glyph-name="threesuperior" unicode="&#xb3;" horiz-adv-x="436" 
d="M198 607h-122v92h272v-73l-79 -91c65 -16 98 -69 98 -124c0 -93 -74 -145 -163 -145c-46 0 -101 18 -153 54l46 83c40 -30 67 -43 107 -43c29 0 55 14 55 49c0 33 -36 48 -75 48c-20 0 -42 -4 -59 -12v75z" />
    <glyph glyph-name="acute" unicode="&#xb4;" horiz-adv-x="382" 
d="M193 771h-143l127 177l155 -65z" />
    <glyph glyph-name="mu" unicode="&#xb5;" horiz-adv-x="647" 
d="M79 -185v723h151v-293c0 -86 33 -124 91 -124c54 0 111 38 111 127v290h151v-538h-151v45c-38 -34 -88 -53 -142 -53c-21 0 -42 2 -60 7v-184h-151z" />
    <glyph glyph-name="paragraph" unicode="&#xb6;" horiz-adv-x="712" 
d="M34 548c0 105 68 208 245 208h342v-861h-133v737h-98v-737h-130v453h-20c-164 0 -206 122 -206 200z" />
    <glyph glyph-name="periodcentered" unicode="&#xb7;" horiz-adv-x="298" 
d="M61 318c0 49 39 88 88 88s88 -39 88 -88s-39 -88 -88 -88s-88 39 -88 88z" />
    <glyph glyph-name="cedilla" unicode="&#xb8;" horiz-adv-x="281" 
d="M207 0l-28 -51c39 -13 65 -33 65 -76c0 -53 -45 -107 -134 -107c-26 0 -58 8 -96 32l38 86c16 -14 30 -19 42 -19c20 0 33 15 33 30c0 19 -17 36 -42 36c-10 0 -21 -3 -34 -9l41 78h115z" />
    <glyph glyph-name="onesuperior" unicode="&#xb9;" horiz-adv-x="298" 
d="M40 699h185v-423h-107v332h-78v91z" />
    <glyph glyph-name="ordmasculine" unicode="&#xba;" horiz-adv-x="393" 
d="M196 513c30 0 52 24 52 61s-22 63 -52 63c-29 0 -51 -26 -51 -63s22 -61 51 -61zM196 434c-85 0 -147 63 -147 140c0 78 62 141 147 141c86 0 148 -63 148 -141c0 -77 -62 -140 -148 -140z" />
    <glyph glyph-name="guillemotright" unicode="&#xbb;" horiz-adv-x="604" 
d="M401 245l-118 184h151l122 -184l-122 -185h-151zM176 245l-118 184h151l122 -184l-122 -185h-151z" />
    <glyph glyph-name="onequarter" unicode="&#xbc;" horiz-adv-x="855" 
d="M562 754h115l-364 -762h-115zM36 698h184v-422h-107v331h-77v91zM681 262h91v-84h46v-80h-46v-98h-91v98h-179v77l147 247h110l-146 -244h68v84z" />
    <glyph glyph-name="onehalf" unicode="&#xbd;" horiz-adv-x="878" 
d="M551 754h116l-364 -762h-116zM36 699h184v-423h-107v332h-77v91zM715 297c0 26 -16 43 -39 43c-27 0 -51 -29 -70 -59l-87 52c39 61 83 99 158 99c76 0 146 -47 146 -132c0 -43 -19 -76 -79 -139l-62 -65h153v-96h-307v77l122 126c42 43 65 70 65 94z" />
    <glyph glyph-name="threequarters" unicode="&#xbe;" horiz-adv-x="901" 
d="M607 754h115l-364 -762h-115zM186 607h-122v92h272v-73l-79 -91c65 -16 98 -69 98 -124c0 -93 -74 -145 -163 -145c-46 0 -101 18 -153 54l46 83c40 -30 67 -43 107 -43c29 0 55 14 55 49c0 33 -36 48 -75 48c-20 0 -42 -4 -59 -12v75zM728 262h91v-84h46v-80h-46v-98
h-91v98h-179v77l147 247h110l-146 -244h68v84z" />
    <glyph glyph-name="questiondown" unicode="&#xbf;" horiz-adv-x="526" 
d="M195 499h152v-75c0 -58 -13 -74 -55 -117l-68 -70c-9 -11 -15 -27 -15 -46c0 -38 24 -67 57 -67c36 0 61 34 66 82h159c-15 -135 -104 -214 -230 -214c-118 0 -209 68 -209 192c0 84 50 123 110 183c23 22 33 34 33 72v60zM357 627c0 -49 -39 -88 -88 -88s-88 39 -88 88
s39 88 88 88s88 -39 88 -88z" />
    <glyph glyph-name="Agrave" unicode="&#xc0;" horiz-adv-x="745" 
d="M584 0l-65 151h-293l-65 -151h-166l302 699h151l302 -699h-166zM373 491l-88 -203h175zM448 769h-143l-139 112l154 66z" />
    <glyph glyph-name="Aacute" unicode="&#xc1;" horiz-adv-x="745" 
d="M584 0l-65 151h-293l-65 -151h-166l302 699h151l302 -699h-166zM373 491l-88 -203h175zM439 771h-143l127 177l155 -65z" />
    <glyph glyph-name="Acircumflex" unicode="&#xc2;" horiz-adv-x="745" 
d="M584 0l-65 151h-293l-65 -151h-166l302 699h151l302 -699h-166zM373 491l-88 -203h175zM283 769h-123l113 158h187l113 -158h-123l-84 81z" />
    <glyph glyph-name="Atilde" unicode="&#xc3;" horiz-adv-x="745" 
d="M584 0l-65 151h-293l-65 -151h-166l302 699h151l302 -699h-166zM373 491l-88 -203h175zM365 793c-19 11 -43 28 -56 28c-12 0 -31 -8 -30 -52h-106c0 102 50 161 116 161c31 0 50 -11 76 -27c20 -12 44 -28 57 -28c12 0 31 8 30 52h106c0 -103 -50 -161 -116 -161
c-31 0 -50 11 -77 27z" />
    <glyph glyph-name="Adieresis" unicode="&#xc4;" horiz-adv-x="745" 
d="M584 0l-65 151h-293l-65 -151h-166l302 699h151l302 -699h-166zM373 491l-88 -203h175zM205 847c0 41 33 74 74 74s74 -33 74 -74s-33 -74 -74 -74s-74 33 -74 74zM398 847c0 41 33 74 74 74s74 -33 74 -74s-33 -74 -74 -74s-74 33 -74 74z" />
    <glyph glyph-name="Aring" unicode="&#xc5;" horiz-adv-x="745" 
d="M584 0l-65 151h-293l-65 -151h-166l301 698c-19 20 -30 46 -30 75c0 59 48 107 107 107s107 -48 107 -107c0 -30 -12 -56 -32 -76l302 -697h-166zM373 491l-88 -203h175zM338 773c0 -19 16 -35 35 -35s35 16 35 35s-16 35 -35 35s-35 -16 -35 -35z" />
    <glyph glyph-name="AE" unicode="&#xc6;" horiz-adv-x="1023" 
d="M960 699v-137h-349v-151h313v-131h-313v-143h360v-137h-526v151h-198l-79 -151h-184l359 699h617zM445 292v246l-127 -246h127z" />
    <glyph glyph-name="Ccedilla" unicode="&#xc7;" horiz-adv-x="732" 
d="M407 138c72 0 138 29 188 91l100 -103c-55 -62 -133 -118 -242 -131l-26 -48c39 -13 65 -33 65 -76c0 -53 -45 -107 -134 -107c-26 0 -58 8 -96 32l38 86c16 -14 30 -19 42 -19c20 0 33 15 33 30c0 19 -17 36 -42 36c-10 0 -21 -3 -34 -9l41 78
c-171 29 -296 168 -296 355c0 207 163 362 367 362c141 0 226 -61 288 -131l-97 -110c-51 63 -118 92 -184 92c-110 0 -213 -75 -213 -215c0 -131 94 -213 202 -213z" />
    <glyph glyph-name="Egrave" unicode="&#xc8;" horiz-adv-x="654" 
d="M590 699v-139h-348v-144h313v-133h-313v-145h359v-138h-515v699h504zM404 769h-143l-139 112l154 66z" />
    <glyph glyph-name="Eacute" unicode="&#xc9;" horiz-adv-x="654" 
d="M590 699v-139h-348v-144h313v-133h-313v-145h359v-138h-515v699h504zM395 771h-143l127 177l155 -65z" />
    <glyph glyph-name="Ecircumflex" unicode="&#xca;" horiz-adv-x="654" 
d="M590 699v-139h-348v-144h313v-133h-313v-145h359v-138h-515v699h504zM239 769h-123l113 158h187l113 -158h-123l-84 81z" />
    <glyph glyph-name="Edieresis" unicode="&#xcb;" horiz-adv-x="654" 
d="M590 699v-139h-348v-144h313v-133h-313v-145h359v-138h-515v699h504zM170 847c0 41 33 74 74 74s74 -33 74 -74s-33 -74 -74 -74s-74 33 -74 74zM363 847c0 41 33 74 74 74s74 -33 74 -74s-33 -74 -74 -74s-74 33 -74 74z" />
    <glyph glyph-name="Igrave" unicode="&#xcc;" horiz-adv-x="328" 
d="M86 699h156v-699h-156v699zM245 769h-143l-139 112l154 66z" />
    <glyph glyph-name="Iacute" unicode="&#xcd;" horiz-adv-x="328" 
d="M86 699h156v-699h-156v699zM236 771h-143l127 177l155 -65z" />
    <glyph glyph-name="Icircumflex" unicode="&#xce;" horiz-adv-x="328" 
d="M86 699h156v-699h-156v699zM81 770h-123l113 158h187l113 -158h-123l-84 81z" />
    <glyph glyph-name="Idieresis" unicode="&#xcf;" horiz-adv-x="328" 
d="M86 699h156v-699h-156v699zM-7 847c0 41 33 74 74 74s74 -33 74 -74s-33 -74 -74 -74s-74 33 -74 74zM186 847c0 41 33 74 74 74s74 -33 74 -74s-33 -74 -74 -74s-74 33 -74 74z" />
    <glyph glyph-name="Eth" unicode="&#xd0;" horiz-adv-x="784" 
d="M26 280v133h74v286h247c251 0 387 -130 387 -349c0 -202 -116 -350 -395 -350h-239v280h-74zM577 350c0 132 -71 213 -234 213h-87v-150h234v-133h-234v-142h99c142 0 222 73 222 212z" />
    <glyph glyph-name="Ntilde" unicode="&#xd1;" horiz-adv-x="817" 
d="M575 249v450h156v-699h-156l-333 438v-438h-156v699h146zM406 792c-19 11 -43 28 -56 28c-12 0 -31 -8 -30 -52h-106c0 102 50 161 116 161c31 0 50 -11 76 -27c20 -12 44 -28 57 -28c12 0 31 8 30 52h106c0 -103 -50 -161 -116 -161c-31 0 -50 11 -77 27z" />
    <glyph glyph-name="Ograve" unicode="&#xd2;" horiz-adv-x="826" 
d="M413 579c-117 0 -207 -101 -207 -226c0 -123 90 -224 207 -224c118 0 208 101 208 224c0 125 -90 226 -208 226zM413 -7c-206 0 -367 155 -367 361s161 361 367 361s367 -155 367 -361s-161 -361 -367 -361zM494 769h-143l-139 112l154 66z" />
    <glyph glyph-name="Oacute" unicode="&#xd3;" horiz-adv-x="826" 
d="M413 579c-117 0 -207 -101 -207 -226c0 -123 90 -224 207 -224c118 0 208 101 208 224c0 125 -90 226 -208 226zM413 -7c-206 0 -367 155 -367 361s161 361 367 361s367 -155 367 -361s-161 -361 -367 -361zM485 771h-143l127 177l155 -65z" />
    <glyph glyph-name="Ocircumflex" unicode="&#xd4;" horiz-adv-x="826" 
d="M413 579c-117 0 -207 -101 -207 -226c0 -123 90 -224 207 -224c118 0 208 101 208 224c0 125 -90 226 -208 226zM413 -7c-206 0 -367 155 -367 361s161 361 367 361s367 -155 367 -361s-161 -361 -367 -361zM329 769h-123l113 158h187l113 -158h-123l-84 81z" />
    <glyph glyph-name="Otilde" unicode="&#xd5;" horiz-adv-x="826" 
d="M413 579c-117 0 -207 -101 -207 -226c0 -123 90 -224 207 -224c118 0 208 101 208 224c0 125 -90 226 -208 226zM413 -7c-206 0 -367 155 -367 361s161 361 367 361s367 -155 367 -361s-161 -361 -367 -361zM411 792c-19 11 -43 28 -56 28c-12 0 -31 -8 -30 -52h-106
c0 102 50 161 116 161c31 0 50 -11 76 -27c20 -12 44 -28 57 -28c12 0 31 8 30 52h106c0 -103 -50 -161 -116 -161c-31 0 -50 11 -77 27z" />
    <glyph glyph-name="Odieresis" unicode="&#xd6;" horiz-adv-x="826" 
d="M413 579c-117 0 -207 -101 -207 -226c0 -123 90 -224 207 -224c118 0 208 101 208 224c0 125 -90 226 -208 226zM413 -7c-206 0 -367 155 -367 361s161 361 367 361s367 -155 367 -361s-161 -361 -367 -361zM241 847c0 41 33 74 74 74s74 -33 74 -74s-33 -74 -74 -74
s-74 33 -74 74zM434 847c0 41 33 74 74 74s74 -33 74 -74s-33 -74 -74 -74s-74 33 -74 74z" />
    <glyph glyph-name="multiply" unicode="&#xd7;" horiz-adv-x="589" 
d="M295 451l159 163l86 -89l-157 -161l158 -163l-86 -89l-160 163l-159 -163l-88 89l160 163l-159 161l88 89z" />
    <glyph glyph-name="Oslash" unicode="&#xd8;" horiz-adv-x="826" 
d="M560 805h142l-72 -157c91 -64 150 -170 150 -294c0 -206 -161 -361 -367 -361c-27 0 -54 3 -79 8l-52 -113h-141l73 160c-102 63 -168 174 -168 306c0 206 161 361 367 361c35 0 68 -5 100 -13zM413 579c-117 0 -207 -101 -207 -226c0 -67 26 -128 70 -169l179 390
c-14 3 -28 5 -42 5zM621 353c0 60 -21 114 -56 155l-172 -378c6 -1 13 -1 20 -1c118 0 208 101 208 224z" />
    <glyph glyph-name="Ugrave" unicode="&#xd9;" horiz-adv-x="751" 
d="M376 132c87 0 143 69 143 181v386h156v-391c0 -210 -132 -315 -299 -315s-300 105 -300 315v391h156v-386c0 -112 56 -181 144 -181zM455 769h-143l-139 112l154 66z" />
    <glyph glyph-name="Uacute" unicode="&#xda;" horiz-adv-x="751" 
d="M376 132c87 0 143 69 143 181v386h156v-391c0 -210 -132 -315 -299 -315s-300 105 -300 315v391h156v-386c0 -112 56 -181 144 -181zM447 771h-143l127 177l155 -65z" />
    <glyph glyph-name="Ucircumflex" unicode="&#xdb;" horiz-adv-x="751" 
d="M376 132c87 0 143 69 143 181v386h156v-391c0 -210 -132 -315 -299 -315s-300 105 -300 315v391h156v-386c0 -112 56 -181 144 -181zM291 769h-123l113 158h187l113 -158h-123l-84 81z" />
    <glyph glyph-name="Udieresis" unicode="&#xdc;" horiz-adv-x="751" 
d="M376 132c87 0 143 69 143 181v386h156v-391c0 -210 -132 -315 -299 -315s-300 105 -300 315v391h156v-386c0 -112 56 -181 144 -181zM204 847c0 41 33 74 74 74s74 -33 74 -74s-33 -74 -74 -74s-74 33 -74 74zM397 847c0 41 33 74 74 74s74 -33 74 -74s-33 -74 -74 -74
s-74 33 -74 74z" />
    <glyph glyph-name="Yacute" unicode="&#xdd;" horiz-adv-x="618" 
d="M158 699l151 -260l151 260h169l-242 -423v-276h-156v276l-242 423h169zM361 771h-143l127 177l155 -65z" />
    <glyph glyph-name="Thorn" unicode="&#xde;" horiz-adv-x="685" 
d="M641 368c0 -186 -114 -257 -316 -257h-83v-111h-156v699h156v-84h81c219 0 318 -88 318 -247zM481 368c0 86 -59 112 -160 112h-79v-234h95c114 0 144 53 144 122z" />
    <glyph glyph-name="germandbls" unicode="&#xdf;" horiz-adv-x="647" 
d="M279 304v121c93 14 132 60 132 114c0 35 -19 85 -79 85c-82 0 -106 -62 -106 -161v-463h-156v450c0 79 0 307 251 307c199 0 243 -129 243 -210c0 -57 -21 -110 -77 -156c84 -27 118 -105 118 -179c0 -125 -88 -212 -261 -212h-62v126h44c72 0 123 19 123 86
c0 68 -48 95 -115 95c-10 0 -21 0 -55 -3z" />
    <glyph glyph-name="agrave" unicode="&#xe0;" horiz-adv-x="594" 
d="M528 0h-141v65c-36 -45 -79 -73 -142 -73c-114 0 -203 70 -203 179c0 118 93 167 224 167h112v3c0 64 -41 86 -91 86c-53 0 -118 -25 -156 -54l-67 97c85 62 164 77 242 77c118 0 222 -53 222 -204v-343zM377 205v26h-94c-48 0 -90 -12 -90 -56c0 -40 34 -60 77 -60
c60 0 107 34 107 90zM412 611h-143l-139 112l154 66z" />
    <glyph glyph-name="aacute" unicode="&#xe1;" horiz-adv-x="594" 
d="M528 0h-141v65c-36 -45 -79 -73 -142 -73c-114 0 -203 70 -203 179c0 118 93 167 224 167h112v3c0 64 -41 86 -91 86c-53 0 -118 -25 -156 -54l-67 97c85 62 164 77 242 77c118 0 222 -53 222 -204v-343zM377 205v26h-94c-48 0 -90 -12 -90 -56c0 -40 34 -60 77 -60
c60 0 107 34 107 90zM348 611h-143l127 177l155 -65z" />
    <glyph glyph-name="acircumflex" unicode="&#xe2;" horiz-adv-x="594" 
d="M528 0h-141v65c-36 -45 -79 -73 -142 -73c-114 0 -203 70 -203 179c0 118 93 167 224 167h112v3c0 64 -41 86 -91 86c-53 0 -118 -25 -156 -54l-67 97c85 62 164 77 242 77c118 0 222 -53 222 -204v-343zM377 205v26h-94c-48 0 -90 -12 -90 -56c0 -40 34 -60 77 -60
c60 0 107 34 107 90zM217 611h-123l113 158h187l113 -158h-123l-84 81z" />
    <glyph glyph-name="atilde" unicode="&#xe3;" horiz-adv-x="594" 
d="M528 0h-141v65c-36 -45 -79 -73 -142 -73c-114 0 -203 70 -203 179c0 118 93 167 224 167h112v3c0 64 -41 86 -91 86c-53 0 -118 -25 -156 -54l-67 97c85 62 164 77 242 77c118 0 222 -53 222 -204v-343zM377 205v26h-94c-48 0 -90 -12 -90 -56c0 -40 34 -60 77 -60
c60 0 107 34 107 90zM289 635c-19 11 -43 28 -56 28c-12 0 -31 -8 -30 -52h-106c0 102 50 161 116 161c31 0 50 -11 76 -27c20 -12 44 -28 57 -28c12 0 31 8 30 52h106c0 -103 -50 -161 -116 -161c-31 0 -50 11 -77 27z" />
    <glyph glyph-name="adieresis" unicode="&#xe4;" horiz-adv-x="594" 
d="M528 0h-141v65c-36 -45 -79 -73 -142 -73c-114 0 -203 70 -203 179c0 118 93 167 224 167h112v3c0 64 -41 86 -91 86c-53 0 -118 -25 -156 -54l-67 97c85 62 164 77 242 77c118 0 222 -53 222 -204v-343zM377 205v26h-94c-48 0 -90 -12 -90 -56c0 -40 34 -60 77 -60
c60 0 107 34 107 90zM130 691c0 41 33 74 74 74s74 -33 74 -74s-33 -74 -74 -74s-74 33 -74 74zM323 691c0 41 33 74 74 74s74 -33 74 -74s-33 -74 -74 -74s-74 33 -74 74z" />
    <glyph glyph-name="aring" unicode="&#xe5;" horiz-adv-x="594" 
d="M528 0h-141v65c-36 -45 -79 -73 -142 -73c-114 0 -203 70 -203 179c0 118 93 167 224 167h112v3c0 64 -41 86 -91 86c-53 0 -118 -25 -156 -54l-67 97c85 62 164 77 242 77c118 0 222 -53 222 -204v-343zM377 205v26h-94c-48 0 -90 -12 -90 -56c0 -40 34 -60 77 -60
c60 0 107 34 107 90zM199 703c0 59 48 107 107 107s107 -48 107 -107s-48 -107 -107 -107s-107 48 -107 107zM271 703c0 -19 16 -35 35 -35s35 16 35 35s-16 35 -35 35s-35 -16 -35 -35z" />
    <glyph glyph-name="ae" unicode="&#xe6;" horiz-adv-x="936" 
d="M895 219h-369v-5c11 -61 63 -98 120 -98c43 0 87 20 132 75l88 -98c-77 -81 -150 -101 -228 -101c-74 0 -141 27 -189 76c-62 -61 -133 -76 -197 -76c-113 0 -212 70 -212 179c0 118 93 163 224 163h112v7c0 64 -39 84 -87 84c-47 0 -92 -21 -150 -62l-67 97
c81 65 154 87 232 87c65 0 126 -16 168 -56c46 37 104 56 165 56c143 0 258 -89 258 -251v-77zM375 205v14h-94c-48 0 -90 -3 -90 -44c0 -40 34 -60 77 -60c60 0 107 34 107 90zM528 334h214c-9 60 -50 89 -100 89c-52 0 -101 -32 -114 -89z" />
    <glyph glyph-name="ccedilla" unicode="&#xe7;" horiz-adv-x="583" 
d="M465 200l89 -100c-57 -59 -117 -91 -178 -103l-27 -50c39 -13 65 -33 65 -76c0 -53 -45 -107 -134 -107c-26 0 -58 8 -96 32l38 86c16 -14 30 -19 42 -19c20 0 33 15 33 30c0 19 -17 36 -42 36c-10 0 -21 -3 -34 -9l41 78c-121 25 -221 124 -221 270
c0 172 137 279 285 279c74 0 159 -30 222 -95l-78 -102c-36 43 -90 65 -138 65c-73 0 -144 -49 -144 -145c0 -98 72 -145 142 -145c82 0 135 75 135 75z" />
    <glyph glyph-name="egrave" unicode="&#xe8;" horiz-adv-x="618" 
d="M453 169l84 -91c-73 -69 -150 -86 -222 -86c-146 0 -274 103 -274 276c0 182 137 279 272 279c143 0 268 -89 268 -251v-80h-392c10 -60 70 -100 134 -100c39 0 89 10 130 53zM193 323h236c-7 68 -57 100 -110 100c-57 0 -117 -35 -126 -100zM405 611h-143l-139 112
l154 66z" />
    <glyph glyph-name="eacute" unicode="&#xe9;" horiz-adv-x="618" 
d="M453 169l84 -91c-73 -69 -150 -86 -222 -86c-146 0 -274 103 -274 276c0 182 137 279 272 279c143 0 268 -89 268 -251v-80h-392c10 -60 70 -100 134 -100c39 0 89 10 130 53zM193 323h236c-7 68 -57 100 -110 100c-57 0 -117 -35 -126 -100zM361 611h-143l127 177
l155 -65z" />
    <glyph glyph-name="ecircumflex" unicode="&#xea;" horiz-adv-x="618" 
d="M453 169l84 -91c-73 -69 -150 -86 -222 -86c-146 0 -274 103 -274 276c0 182 137 279 272 279c143 0 268 -89 268 -251v-80h-392c10 -60 70 -100 134 -100c39 0 89 10 130 53zM193 323h236c-7 68 -57 100 -110 100c-57 0 -117 -35 -126 -100zM225 611h-123l113 158h187
l113 -158h-123l-84 81z" />
    <glyph glyph-name="edieresis" unicode="&#xeb;" horiz-adv-x="618" 
d="M453 169l84 -91c-73 -69 -150 -86 -222 -86c-146 0 -274 103 -274 276c0 182 137 279 272 279c143 0 268 -89 268 -251v-80h-392c10 -60 70 -100 134 -100c39 0 89 10 130 53zM193 323h236c-7 68 -57 100 -110 100c-57 0 -117 -35 -126 -100zM145 691c0 41 33 74 74 74
s74 -33 74 -74s-33 -74 -74 -74s-74 33 -74 74zM338 691c0 41 33 74 74 74s74 -33 74 -74s-33 -74 -74 -74s-74 33 -74 74z" />
    <glyph glyph-name="igrave" unicode="&#xec;" 
d="M71 538h150v-538h-150v538zM223 611h-143l-139 112l154 66z" />
    <glyph glyph-name="iacute" unicode="&#xed;" 
d="M71 538h150v-538h-150v538zM219 611h-143l127 177l155 -65z" />
    <glyph glyph-name="icircumflex" unicode="&#xee;" 
d="M145 682l-73 -71h-113l113 158h147l113 -158h-113zM71 538h150v-538h-150v538z" />
    <glyph glyph-name="idieresis" unicode="&#xef;" 
d="M71 538h150v-538h-150v538zM-24 691c0 41 33 74 74 74s74 -33 74 -74s-33 -74 -74 -74s-74 33 -74 74zM169 691c0 41 33 74 74 74s74 -33 74 -74s-33 -74 -74 -74s-74 33 -74 74z" />
    <glyph glyph-name="eth" unicode="&#xf0;" horiz-adv-x="597" 
d="M396 753l83 -78l-83 -55c84 -96 158 -216 158 -350c0 -161 -87 -278 -256 -278c-141 0 -254 98 -254 245c0 146 113 245 246 245c16 0 31 -1 46 -4c-20 25 -41 48 -62 71l-86 -56l-81 78l88 57c-11 10 -23 20 -33 28l-37 31l123 73c32 -26 56 -47 69 -59zM298 118
c67 0 108 56 108 119c0 62 -41 119 -108 119c-66 0 -106 -57 -106 -119c0 -63 40 -119 106 -119z" />
    <glyph glyph-name="ntilde" unicode="&#xf1;" horiz-adv-x="639" 
d="M221 300v-300h-150v538h150v-60c49 50 103 69 157 69c103 0 196 -81 196 -220v-327h-150v304c0 86 -34 124 -91 124c-54 0 -112 -38 -112 -128zM324 635c-19 11 -43 28 -56 28c-12 0 -31 -8 -30 -52h-106c0 102 50 161 116 161c31 0 50 -11 76 -27c20 -12 44 -28 57 -28
c12 0 31 8 30 52h106c0 -103 -50 -161 -116 -161c-31 0 -50 11 -77 27z" />
    <glyph glyph-name="ograve" unicode="&#xf2;" horiz-adv-x="648" 
d="M324 120c78 0 134 61 134 149c0 89 -56 150 -134 150c-77 0 -133 -61 -133 -150c0 -88 56 -149 133 -149zM324 -8c-164 0 -284 123 -284 277s120 278 284 278c165 0 285 -124 285 -278s-120 -277 -285 -277zM405 611h-143l-139 112l154 66z" />
    <glyph glyph-name="oacute" unicode="&#xf3;" horiz-adv-x="648" 
d="M324 120c78 0 134 61 134 149c0 89 -56 150 -134 150c-77 0 -133 -61 -133 -150c0 -88 56 -149 133 -149zM324 -8c-164 0 -284 123 -284 277s120 278 284 278c165 0 285 -124 285 -278s-120 -277 -285 -277zM381 611h-143l127 177l155 -65z" />
    <glyph glyph-name="ocircumflex" unicode="&#xf4;" horiz-adv-x="648" 
d="M324 120c78 0 134 61 134 149c0 89 -56 150 -134 150c-77 0 -133 -61 -133 -150c0 -88 56 -149 133 -149zM324 -8c-164 0 -284 123 -284 277s120 278 284 278c165 0 285 -124 285 -278s-120 -277 -285 -277zM245 611h-123l113 158h187l113 -158h-123l-84 81z" />
    <glyph glyph-name="otilde" unicode="&#xf5;" horiz-adv-x="648" 
d="M324 120c78 0 134 61 134 149c0 89 -56 150 -134 150c-77 0 -133 -61 -133 -150c0 -88 56 -149 133 -149zM324 -8c-164 0 -284 123 -284 277s120 278 284 278c165 0 285 -124 285 -278s-120 -277 -285 -277zM325 635c-19 11 -43 28 -56 28c-12 0 -31 -8 -30 -52h-106
c0 102 50 161 116 161c31 0 50 -11 76 -27c20 -12 44 -28 57 -28c12 0 31 8 30 52h106c0 -103 -50 -161 -116 -161c-31 0 -50 11 -77 27z" />
    <glyph glyph-name="odieresis" unicode="&#xf6;" horiz-adv-x="648" 
d="M324 120c78 0 134 61 134 149c0 89 -56 150 -134 150c-77 0 -133 -61 -133 -150c0 -88 56 -149 133 -149zM324 -8c-164 0 -284 123 -284 277s120 278 284 278c165 0 285 -124 285 -278s-120 -277 -285 -277zM154 691c0 41 33 74 74 74s74 -33 74 -74s-33 -74 -74 -74
s-74 33 -74 74zM347 691c0 41 33 74 74 74s74 -33 74 -74s-33 -74 -74 -74s-74 33 -74 74z" />
    <glyph glyph-name="divide" unicode="&#xf7;" horiz-adv-x="582" 
d="M203 160c0 49 39 88 88 88s88 -39 88 -88s-39 -88 -88 -88s-88 39 -88 88zM203 539c0 49 39 88 88 88s88 -39 88 -88s-39 -88 -88 -88s-88 39 -88 88zM48 411h486v-123h-486v123z" />
    <glyph glyph-name="oslash" unicode="&#xf8;" horiz-adv-x="648" 
d="M324 -8c-15 0 -30 1 -45 3l-44 -96h-141l65 142c-74 50 -119 134 -119 228c0 154 120 278 284 278c22 0 43 -2 64 -7l38 85h142l-63 -138c64 -51 104 -129 104 -218c0 -154 -120 -277 -285 -277zM191 269c0 -38 10 -71 28 -96l113 246h-8c-77 0 -133 -61 -133 -150z
M458 269c0 30 -6 56 -17 78l-104 -226c71 6 121 65 121 148z" />
    <glyph glyph-name="ugrave" unicode="&#xf9;" horiz-adv-x="640" 
d="M418 248v290h151v-538h-151v71c-38 -54 -93 -79 -149 -79c-101 0 -204 64 -204 220v326h151v-293c0 -86 33 -124 91 -124c54 0 111 38 111 127zM403 611h-143l-139 112l154 66z" />
    <glyph glyph-name="uacute" unicode="&#xfa;" horiz-adv-x="640" 
d="M418 248v290h151v-538h-151v71c-38 -54 -93 -79 -149 -79c-101 0 -204 64 -204 220v326h151v-293c0 -86 33 -124 91 -124c54 0 111 38 111 127zM379 611h-143l127 177l155 -65z" />
    <glyph glyph-name="ucircumflex" unicode="&#xfb;" horiz-adv-x="640" 
d="M418 248v290h151v-538h-151v71c-38 -54 -93 -79 -149 -79c-101 0 -204 64 -204 220v326h151v-293c0 -86 33 -124 91 -124c54 0 111 38 111 127zM236 611h-123l113 158h187l113 -158h-123l-84 81z" />
    <glyph glyph-name="udieresis" unicode="&#xfc;" horiz-adv-x="640" 
d="M418 248v290h151v-538h-151v71c-38 -54 -93 -79 -149 -79c-101 0 -204 64 -204 220v326h151v-293c0 -86 33 -124 91 -124c54 0 111 38 111 127zM143 691c0 41 33 74 74 74s74 -33 74 -74s-33 -74 -74 -74s-74 33 -74 74zM336 691c0 41 33 74 74 74s74 -33 74 -74
s-33 -74 -74 -74s-74 33 -74 74z" />
    <glyph glyph-name="yacute" unicode="&#xfd;" horiz-adv-x="590" 
d="M586 538l-250 -634c-30 -74 -97 -116 -172 -116c-48 0 -101 20 -149 64l68 111c29 -28 60 -37 78 -37c29 0 51 34 51 66c0 6 1 18 -208 546h160l131 -335l131 335h160zM350 611h-143l127 177l155 -65z" />
    <glyph glyph-name="thorn" unicode="&#xfe;" horiz-adv-x="666" 
d="M625 269c0 -168 -126 -277 -258 -277c-54 0 -102 17 -146 51v-237h-150v936h150v-249c42 38 93 54 144 54c130 0 260 -98 260 -278zM343 120c67 0 131 58 131 148c0 88 -59 153 -131 153c-66 0 -124 -63 -124 -154c0 -87 58 -147 124 -147z" />
    <glyph glyph-name="ydieresis" unicode="&#xff;" horiz-adv-x="590" 
d="M586 538l-250 -634c-30 -74 -97 -116 -172 -116c-48 0 -101 20 -149 64l68 111c29 -28 60 -37 78 -37c29 0 51 34 51 66c0 6 1 18 -208 546h160l131 -335l131 335h160zM124 691c0 41 33 74 74 74s74 -33 74 -74s-33 -74 -74 -74s-74 33 -74 74zM317 691c0 41 33 74 74 74
s74 -33 74 -74s-33 -74 -74 -74s-74 33 -74 74z" />
    <glyph glyph-name="hbar" unicode="&#x127;" horiz-adv-x="639" 
d="M221 290v-290h-150v574h-47v87h47v81h150v-81h110v-87h-110v-96c46 47 102 69 156 69c103 0 197 -81 197 -220v-327h-150v294c0 86 -34 124 -91 124c-54 0 -112 -38 -112 -128z" />
    <glyph glyph-name="Itilde" unicode="&#x128;" horiz-adv-x="328" 
d="M86 699h156v-699h-156v699zM162 793c-19 11 -43 28 -56 28c-12 0 -31 -8 -30 -52h-106c0 102 50 161 116 161c31 0 50 -11 76 -27c20 -12 44 -28 57 -28c12 0 31 8 30 52h106c0 -103 -50 -161 -116 -161c-31 0 -50 11 -77 27z" />
    <glyph glyph-name="itilde" unicode="&#x129;" 
d="M71 538h150v-538h-150v538zM145 635c-19 11 -43 28 -56 28c-12 0 -31 -8 -30 -52h-106c0 102 50 161 116 161c31 0 50 -11 76 -27c20 -12 44 -28 57 -28c12 0 31 8 30 52h106c0 -103 -50 -161 -116 -161c-31 0 -50 11 -77 27z" />
    <glyph glyph-name="dotlessi" unicode="&#x131;" 
d="M71 538h150v-538h-150v538z" />
    <glyph glyph-name="ij" unicode="&#x133;" horiz-adv-x="599" 
d="M221 0h-150v538h150v-538zM378 -8v546h150v-550c0 -122 -87 -190 -182 -190c-49 0 -102 20 -150 64l70 115c34 -33 60 -47 74 -47c22 0 38 22 38 62zM59 668c0 49 39 88 88 88s88 -39 88 -88s-39 -88 -88 -88s-88 39 -88 88zM364 668c0 49 39 88 88 88s88 -39 88 -88
s-39 -88 -88 -88s-88 39 -88 88z" />
    <glyph glyph-name="Jcircumflex" unicode="&#x134;" horiz-adv-x="556" 
d="M112 565v134h364v-456c0 -176 -105 -249 -230 -249c-77 0 -154 29 -220 97l81 112c42 -45 85 -68 132 -68c40 0 80 30 80 102v328h-207zM214 769h-123l113 158h187l113 -158h-123l-84 81z" />
    <glyph glyph-name="jcircumflex" unicode="&#x135;" 
d="M71 -10v548h150v-560c0 -122 -87 -190 -182 -190c-49 0 -102 20 -150 64l69 111c19 -22 44 -35 67 -35c25 0 46 18 46 62zM62 611h-123l113 158h187l113 -158h-123l-84 81z" />
    <glyph glyph-name="kcedilla" unicode="&#x137;" horiz-adv-x="595" 
d="M372 321l213 -321h-178l-137 206l-49 -51v-155h-150v742h150v-381l167 178h189zM374 0l-28 -51c39 -13 65 -33 65 -76c0 -53 -45 -107 -134 -107c-26 0 -58 8 -96 32l38 86c16 -14 30 -19 42 -19c20 0 33 15 33 30c0 19 -17 36 -42 36c-10 0 -21 -3 -34 -9l41 78h115z
" />
    <glyph glyph-name="kgreenlandic" unicode="&#x138;" horiz-adv-x="595" 
d="M372 321l213 -321h-178l-137 206l-49 -51v-155h-150v538h150v-177l167 177h189z" />
    <glyph glyph-name="ldot" unicode="&#x140;" horiz-adv-x="398" 
d="M221 0h-150v742h150v-742zM257 320c0 49 39 88 88 88s88 -39 88 -88s-39 -88 -88 -88s-88 39 -88 88z" />
    <glyph glyph-name="Lslash" unicode="&#x141;" horiz-adv-x="584" 
d="M28 178v135l74 24v361h156v-312l205 65v-136l-205 -65v-111h298v-139h-454v201z" />
    <glyph glyph-name="lslash" unicode="&#x142;" horiz-adv-x="363" 
d="M36 197v136l77 22v343h151v-300l70 21v-136l-70 -20v-263h-151v220z" />
    <glyph glyph-name="Nacute" unicode="&#x143;" horiz-adv-x="817" 
d="M575 249v450h156v-699h-156l-333 438v-438h-156v699h146zM471 771h-143l127 177l155 -65z" />
    <glyph glyph-name="nacute" unicode="&#x144;" horiz-adv-x="639" 
d="M221 300v-300h-150v538h150v-60c49 50 103 69 157 69c103 0 196 -81 196 -220v-327h-150v304c0 86 -34 124 -91 124c-54 0 -112 -38 -112 -128zM379 611h-143l127 177l155 -65z" />
    <glyph glyph-name="OE" unicode="&#x152;" horiz-adv-x="1042" 
d="M978 698v-138h-348v-144h312v-133h-312v-145h359v-138h-586c-201 0 -356 149 -356 349s155 349 356 349h575zM213 349c0 -119 87 -218 200 -218h60v436h-60c-113 0 -200 -98 -200 -218z" />
    <glyph glyph-name="oe" unicode="&#x153;" horiz-adv-x="1035" 
d="M870 169l84 -91c-73 -69 -150 -86 -222 -86c-78 0 -151 29 -202 83c-50 -51 -123 -83 -206 -83c-164 0 -284 123 -284 277s120 278 284 278c84 0 156 -32 207 -84c52 55 126 84 199 84c143 0 268 -89 268 -251v-80h-392c10 -60 70 -100 134 -100c39 0 89 10 130 53z
M324 120c76 0 131 58 134 142v6v1c0 89 -56 150 -134 150c-77 0 -133 -61 -133 -150c0 -88 56 -149 133 -149zM610 323h236c-7 68 -57 100 -110 100c-57 0 -117 -35 -126 -100z" />
    <glyph glyph-name="Racute" unicode="&#x154;" horiz-adv-x="727" 
d="M653 467c0 -118 -47 -185 -133 -217l177 -250h-192l-155 223h-108v-223h-156v699h265c220 0 302 -72 302 -232zM494 467c0 76 -36 98 -135 98h-117v-207h114c113 0 138 39 138 109zM347 771h-143l127 177l155 -65z" />
    <glyph glyph-name="Rcommaaccent" unicode="&#x156;" horiz-adv-x="727" 
d="M246 -250l65 195h141l-80 -195h-126zM653 467c0 -118 -47 -185 -133 -217l177 -250h-192l-155 223h-108v-223h-156v699h265c220 0 302 -72 302 -232zM494 467c0 76 -36 98 -135 98h-117v-207h114c113 0 138 39 138 109z" />
    <glyph glyph-name="rcommaaccent" unicode="&#x157;" horiz-adv-x="411" 
d="M16 -250l65 195h141l-80 -195h-126zM382 548l1 -142h-29c-93 0 -133 -75 -133 -173v-233h-150v539h150v-72c36 40 97 79 161 81z" />
    <glyph glyph-name="Rcaron" unicode="&#x158;" horiz-adv-x="727" 
d="M653 467c0 -118 -47 -185 -133 -217l177 -250h-192l-155 223h-108v-223h-156v699h265c220 0 302 -72 302 -232zM494 467c0 76 -36 98 -135 98h-117v-207h114c113 0 138 39 138 109zM130 927h123l83 -81l84 81h123l-113 -158h-187z" />
    <glyph glyph-name="rcaron" unicode="&#x159;" horiz-adv-x="411" 
d="M382 547l1 -141h-29c-93 0 -133 -75 -133 -173v-233h-150v538h150v-71c36 40 97 78 161 80zM7 769h123l83 -81l84 81h123l-113 -158h-187z" />
    <glyph glyph-name="Scaron" unicode="&#x160;" horiz-adv-x="638" 
d="M227 513c0 -43 27 -62 137 -89c149 -37 227 -93 227 -214c0 -137 -105 -218 -256 -218c-106 0 -210 41 -299 123l93 114c71 -62 136 -99 209 -99c57 0 92 27 92 69c0 40 -23 61 -129 87c-150 36 -235 83 -235 217c0 146 118 212 250 212c92 0 191 -32 262 -92l-79 -114
c-70 53 -135 69 -188 69s-84 -29 -84 -65zM101 927h123l83 -81l84 81h123l-113 -158h-187z" />
    <glyph glyph-name="scaron" unicode="&#x161;" horiz-adv-x="520" 
d="M476 172c0 -116 -91 -180 -207 -180c-75 0 -169 26 -242 85l66 94c63 -49 135 -65 179 -65c40 0 63 17 63 41c0 27 -30 46 -102 69c-69 22 -172 60 -172 159c0 108 96 172 207 172c67 0 133 -20 198 -64l-56 -100c-51 35 -102 48 -138 48c-45 0 -71 -12 -71 -38
c0 -31 35 -42 105 -64c81 -25 170 -52 170 -157zM58 769h123l83 -81l84 81h123l-113 -158h-187z" />
    <glyph glyph-name="Zcaron" unicode="&#x17d;" horiz-adv-x="681" 
d="M46 0v107l366 457h-354v135h567v-108l-365 -455h371v-136h-585zM127 927h123l83 -81l84 81h123l-113 -158h-187z" />
    <glyph glyph-name="zcaron" unicode="&#x17e;" horiz-adv-x="553" 
d="M296 414h-235v124h434v-117l-261 -296h276v-125h-468v124zM73 769h123l83 -81l84 81h123l-113 -158h-187z" />
    <glyph glyph-name="florin" unicode="&#x192;" horiz-adv-x="707" 
d="M224 316l13 108h65l20 144c17 128 112 189 206 189c49 0 107 -17 149 -62l-72 -111c-16 26 -43 35 -66 35c-29 0 -57 -22 -65 -66l-18 -129h133l-13 -108h-135l-44 -319c-16 -115 -87 -199 -210 -199c-49 0 -112 20 -160 64l66 109c27 -26 52 -41 88 -41
c33 0 57 21 63 68l43 318h-63z" />
    <glyph glyph-name="circumflex" unicode="&#x2c6;" horiz-adv-x="483" 
d="M158 771h-123l113 158h187l113 -158h-123l-84 81z" />
    <glyph glyph-name="caron" unicode="&#x2c7;" horiz-adv-x="613" 
d="M100 918h123l83 -81l84 81h123l-113 -158h-187z" />
    <glyph glyph-name="breve" unicode="&#x2d8;" horiz-adv-x="568" 
d="M284 666c33 0 52 24 63 60h121c-9 -110 -82 -174 -184 -174s-175 64 -184 174h121c11 -36 30 -60 63 -60z" />
    <glyph glyph-name="dotaccent" unicode="&#x2d9;" horiz-adv-x="311" 
d="M55 682c0 56 45 101 101 101s101 -45 101 -101s-45 -101 -101 -101s-101 45 -101 101z" />
    <glyph glyph-name="ring" unicode="&#x2da;" horiz-adv-x="414" 
d="M100 703c0 59 48 107 107 107s107 -48 107 -107s-48 -107 -107 -107s-107 48 -107 107zM172 703c0 -19 16 -35 35 -35s35 16 35 35s-16 35 -35 35s-35 -16 -35 -35z" />
    <glyph glyph-name="ogonek" unicode="&#x2db;" horiz-adv-x="215" 
d="M71 -8h73c-26 -34 -46 -72 -46 -96c0 -15 8 -25 27 -25c25 0 41 29 41 29l51 -33c-17 -28 -44 -79 -111 -79c-54 0 -88 38 -88 89c0 52 53 115 53 115z" />
    <glyph glyph-name="tilde" unicode="&#x2dc;" horiz-adv-x="585" 
d="M299 635c-19 11 -43 28 -56 28c-12 0 -31 -8 -30 -52h-106c0 102 50 161 116 161c31 0 50 -11 76 -27c20 -12 44 -28 57 -28c12 0 31 8 30 52h106c0 -103 -50 -161 -116 -161c-31 0 -50 11 -77 27z" />
    <glyph glyph-name="hungarumlaut" unicode="&#x2dd;" horiz-adv-x="506" 
d="M149 611h-133l127 177l145 -65zM371 611h-143l137 177l145 -65z" />
    <glyph glyph-name="pi" unicode="&#x3c0;" horiz-adv-x="744" 
d="M168 322l-124 -35c-14 28 -21 57 -21 86c0 89 76 165 193 165h496v-131h-96v-407h-150v407h-104c-5 -120 -34 -310 -71 -407h-142c37 111 67 286 70 407c-46 0 -64 -19 -64 -42c0 -22 13 -43 13 -43z" />
    <glyph glyph-name="endash" unicode="&#x2013;" horiz-adv-x="543" 
d="M74 215v97h395v-97h-395z" />
    <glyph glyph-name="emdash" unicode="&#x2014;" horiz-adv-x="697" 
d="M64 216v96h569v-96h-569z" />
    <glyph glyph-name="quoteleft" unicode="&#x2018;" horiz-adv-x="240" 
d="M213 703l-45 -107c22 -15 33 -39 33 -65c0 -48 -35 -82 -83 -82c-44 0 -82 29 -82 82c0 25 9 46 22 66l73 106h82z" />
    <glyph glyph-name="quoteright" unicode="&#x2019;" horiz-adv-x="240" 
d="M109 446h-82l45 107c-23 15 -33 39 -33 65c0 48 35 82 83 82c44 0 82 -29 82 -82c0 -25 -9 -46 -22 -66z" />
    <glyph glyph-name="quotesinglbase" unicode="&#x201a;" horiz-adv-x="240" 
d="M109 -96h-82l45 107c-23 15 -33 39 -33 65c0 48 35 82 83 82c44 0 82 -29 82 -82c0 -25 -9 -46 -22 -66z" />
    <glyph glyph-name="quotedblleft" unicode="&#x201c;" horiz-adv-x="425" 
d="M213 703l-45 -107c22 -15 33 -39 33 -65c0 -48 -35 -82 -83 -82c-44 0 -82 29 -82 82c0 25 9 46 22 66l73 106h82zM398 703l-45 -107c22 -15 33 -39 33 -65c0 -48 -35 -82 -83 -82c-44 0 -82 29 -82 82c0 25 9 46 22 66l73 106h82z" />
    <glyph glyph-name="quotedblright" unicode="&#x201d;" horiz-adv-x="425" 
d="M109 446h-82l45 107c-23 15 -33 39 -33 65c0 48 35 82 83 82c44 0 82 -29 82 -82c0 -25 -9 -46 -22 -66zM294 446h-82l45 107c-23 15 -33 39 -33 65c0 48 35 82 83 82c44 0 82 -29 82 -82c0 -25 -9 -46 -22 -66z" />
    <glyph glyph-name="quotedblbase" unicode="&#x201e;" horiz-adv-x="425" 
d="M109 -96h-82l45 107c-23 15 -33 39 -33 65c0 48 35 82 83 82c44 0 82 -29 82 -82c0 -25 -9 -46 -22 -66zM294 -96h-82l45 107c-23 15 -33 39 -33 65c0 48 35 82 83 82c44 0 82 -29 82 -82c0 -25 -9 -46 -22 -66z" />
    <glyph glyph-name="dagger" unicode="&#x2020;" horiz-adv-x="538" 
d="M193 -185v558h-158v130h158v196h145v-196h165v-130h-165v-558h-145z" />
    <glyph glyph-name="daggerdbl" unicode="&#x2021;" horiz-adv-x="534" 
d="M339 373v-191h99v-111h-99v-256h-146v256h-102v111h102v191h-155v130h155v196h146v-196h158v-130h-158z" />
    <glyph glyph-name="bullet" unicode="&#x2022;" horiz-adv-x="438" 
d="M80 317c0 77 62 139 139 139s139 -62 139 -139s-62 -139 -139 -139s-139 62 -139 139z" />
    <glyph glyph-name="ellipsis" unicode="&#x2026;" horiz-adv-x="701" 
d="M468 79c0 49 39 88 88 88s88 -39 88 -88s-39 -88 -88 -88s-88 39 -88 88zM262 79c0 49 39 88 88 88s88 -39 88 -88s-39 -88 -88 -88s-88 39 -88 88zM57 79c0 49 39 88 88 88s88 -39 88 -88s-39 -88 -88 -88s-88 39 -88 88z" />
    <glyph glyph-name="perthousand" unicode="&#x2030;" horiz-adv-x="1117" 
d="M724 699l-501 -699h-172l502 699h171zM586 83c24 0 42 19 42 49s-18 51 -42 51c-23 0 -41 -21 -41 -51s18 -49 41 -49zM586 -8c-85 0 -147 63 -147 140c0 78 62 141 147 141c86 0 148 -63 148 -141c0 -77 -62 -140 -148 -140zM192 492c24 0 42 19 42 49s-18 51 -42 51
c-23 0 -41 -21 -41 -51s18 -49 41 -49zM192 401c-85 0 -147 63 -147 140c0 78 62 141 147 141c86 0 148 -63 148 -141c0 -77 -62 -140 -148 -140zM935 83c24 0 42 19 42 49s-18 51 -42 51c-23 0 -41 -21 -41 -51s18 -49 41 -49zM935 -8c-85 0 -147 63 -147 140
c0 78 62 141 147 141c86 0 148 -63 148 -141c0 -77 -62 -140 -148 -140z" />
    <glyph glyph-name="guilsinglleft" unicode="&#x2039;" horiz-adv-x="379" 
d="M321 429l-118 -184l118 -185h-151l-122 185l122 184h151z" />
    <glyph glyph-name="guilsinglright" unicode="&#x203a;" horiz-adv-x="379" 
d="M176 245l-118 184h151l122 -184l-122 -185h-151z" />
    <glyph glyph-name="fraction" unicode="&#x2044;" horiz-adv-x="662" 
d="M668 698l-502 -698h-171l501 698h172z" />
    <glyph glyph-name="Euro" unicode="&#x20ac;" horiz-adv-x="766" 
d="M46 380v84h97c39 148 155 251 320 251c119 0 195 -51 257 -121l-89 -116c-50 61 -108 89 -172 89c-66 0 -125 -31 -155 -103h233v-84h-251c-1 -10 -1 -19 -1 -29c0 -11 0 -21 1 -30h251v-84h-228c33 -65 93 -97 157 -97c58 0 119 25 162 79l92 -102
c-76 -88 -177 -125 -265 -125c-152 0 -271 97 -312 245h-97v84h84c-1 9 -1 19 -1 29s0 20 1 30h-84z" />
    <glyph glyph-name="trademark" unicode="&#x2122;" horiz-adv-x="990" 
d="M289 596v-319h-110v319h-116v103h342v-103h-116zM635 310l-94 191v-224h-110v422h140l99 -210l99 210h139v-422h-110v224l-94 -191h-69z" />
    <glyph glyph-name="Omega" unicode="&#x2126;" horiz-adv-x="900" 
d="M450 715c222 0 365 -159 365 -342c0 -82 -35 -166 -116 -235h147v-138h-358v132c112 36 181 147 181 245c0 111 -79 202 -219 202s-219 -91 -219 -202c0 -98 69 -209 181 -245v-132h-358v138h147c-81 69 -116 153 -116 235c0 183 143 342 365 342z" />
    <glyph glyph-name="partialdiff" unicode="&#x2202;" horiz-adv-x="609" 
d="M154 553l-71 98c61 44 128 65 192 65c147 0 278 -113 278 -357c0 -194 -67 -367 -269 -367c-137 0 -240 106 -240 250c0 137 115 203 224 203c55 0 108 -16 145 -48c0 12 0 18 -1 30c-10 103 -71 162 -148 162c-34 0 -74 -12 -110 -36zM398 260c-33 36 -70 55 -119 55
c-48 0 -89 -30 -89 -87c0 -59 35 -97 96 -97s109 46 112 129z" />
    <glyph glyph-name="Delta" unicode="&#x2206;" horiz-adv-x="803" 
d="M472 698l301 -698h-743l301 698h141zM255 136h292l-146 335z" />
    <glyph glyph-name="product" unicode="&#x220f;" horiz-adv-x="788" 
d="M705 -212h-162v860h-298v-860h-162v1000h622v-1000z" />
    <glyph glyph-name="summation" unicode="&#x2211;" horiz-adv-x="710" 
d="M669 -195h-631v104l281 387l-268 382v105h599v-140h-382l238 -346l-256 -352h419v-140z" />
    <glyph glyph-name="minus" unicode="&#x2212;" horiz-adv-x="582" 
d="M48 411h486v-123h-486v123z" />
    <glyph glyph-name="radical" unicode="&#x221a;" horiz-adv-x="722" 
d="M24 296v127h213l111 -356l219 690h153l-293 -913h-160l-144 452h-99z" />
    <glyph glyph-name="infinity" unicode="&#x221e;" horiz-adv-x="857" 
d="M245 453c82 0 136 -45 183 -99c47 54 101 99 183 99c112 0 179 -83 179 -187c0 -107 -70 -188 -183 -188c-82 0 -131 42 -179 93c-48 -51 -97 -93 -179 -93c-112 0 -183 81 -183 188c0 104 68 187 179 187zM248 199c33 0 71 34 99 64c-29 31 -70 71 -102 71
c-29 0 -48 -30 -48 -66c0 -38 20 -69 51 -69zM611 334c-31 0 -72 -40 -101 -71c27 -30 65 -64 98 -64c32 0 51 31 51 69c0 36 -18 66 -48 66z" />
    <glyph glyph-name="integral" unicode="&#x222b;" horiz-adv-x="436" 
d="M423 838l-17 -118c-22 7 -36 10 -51 10c-49 0 -69 -32 -69 -151c0 -76 4 -149 7 -225c4 -79 7 -160 7 -245c0 -146 -40 -271 -185 -271c-33 0 -84 13 -105 25l21 119c24 -12 43 -17 60 -17c54 0 73 55 73 159c0 85 -4 162 -8 238c-4 74 -7 149 -7 228
c0 153 34 269 183 269c34 0 73 -11 91 -21z" />
    <glyph glyph-name="approxequal" unicode="&#x2248;" horiz-adv-x="672" 
d="M337 226c-26 15 -58 37 -75 37c-16 0 -41 -10 -40 -69h-141c0 136 67 214 155 214c41 0 66 -14 101 -36c26 -16 58 -37 75 -37c16 0 42 11 40 69h141c0 -137 -66 -214 -154 -214c-41 0 -66 15 -102 36zM337 467c-26 15 -58 37 -75 37c-16 0 -41 -10 -40 -69h-141
c0 136 67 214 155 214c41 0 66 -14 101 -36c26 -16 58 -37 75 -37c16 0 42 11 40 69h141c0 -137 -66 -214 -154 -214c-41 0 -66 15 -102 36z" />
    <glyph glyph-name="notequal" unicode="&#x2260;" horiz-adv-x="645" 
d="M63 426v121h262l70 152h142l-70 -152h113v-121h-168l-42 -91h210v-121h-265l-70 -153h-141l70 153h-111v121h166l41 91h-207z" />
    <glyph glyph-name="lessequal" unicode="&#x2264;" horiz-adv-x="621" 
d="M62 326v137l486 229v-147l-321 -148l321 -152v-148zM62 -70v121h487v-121h-487z" />
    <glyph glyph-name="greaterequal" unicode="&#x2265;" horiz-adv-x="621" 
d="M559 463v-137l-486 -229v148l321 152l-321 148v147zM559 51v-121h-487v121h487z" />
    <glyph glyph-name="lozenge" unicode="&#x25ca;" horiz-adv-x="636" 
d="M84 33v435h468v-435h-468z" />
    <glyph glyph-name="fi" unicode="&#xfb01;" horiz-adv-x="694" 
d="M250 569v-36h130v-108h-130v-425h-151v425h-63v108h63v33c0 122 87 191 183 191c48 0 100 -16 148 -60l-54 -101c-24 28 -48 38 -73 38c-29 0 -53 -20 -53 -65zM623 0h-150v538h150v-538zM460 669c0 49 39 88 88 88s88 -39 88 -88s-39 -88 -88 -88s-88 39 -88 88z" />
    <glyph glyph-name="fl" unicode="&#xfb02;" horiz-adv-x="694" 
d="M250 569v-36h130v-108h-130v-425h-151v425h-63v108h63v33c0 122 87 191 183 191c48 0 100 -16 148 -60l-54 -101c-24 28 -48 38 -73 38c-29 0 -53 -20 -53 -65zM623 0h-150v742h150v-742z" />
    </font>
</defs>
</svg>
