<?xml version="1.0" standalone="no"?>
<!DOCTYPE svg PUBLIC "-//W3C//DTD SVG 1.1//EN" "http://www.w3.org/Graphics/SVG/1.1/DTD/svg11.dtd" >
<svg version="1.1" xmlns="http://www.w3.org/2000/svg">
<metadata>
Created by FontForge 20120731 at Fri Aug  1 16:50:35 2014

Copyright (c) 2010 - 2013, Matt McInerney (matt@pixelspread.com), Pablo Impallari (impallari@gmail.com), Rodrigo Fuenzalida (hello@rfuenzalida.com) with Reserved Font Name "Raleway"
</metadata>
<defs>
<font id="raleway" horiz-adv-x="576" >
  <font-face 
    font-family="Raleway"
    font-weight="100"
    font-stretch="normal"
    units-per-em="1000"
    panose-1="2 11 2 3 3 1 1 6 0 3"
    ascent="800"
    descent="-200"
    x-height="519"
    cap-height="710"
    bbox="-227 -223 1306 940"
    underline-thickness="50"
    underline-position="-50"
    unicode-range="U+000D-FB06"
  />
<missing-glyph horiz-adv-x="0" 
 />
    <glyph glyph-name="f_f" unicode="ff" horiz-adv-x="537" 
d="M477 720q-42 0 -70 -16.5t-45 -43t-24.5 -58.5t-7.5 -62v-21h185v-20h-185v-499h-20v499h-187v-499h-20v499h-75v20h75v11q0 30 7.5 60.5t25 55t45 39.5t68.5 15q34 0 60.5 -9t37.5 -17q20 30 50 48t77 18q25 0 42 -5t27.5 -11t14.5 -11.5t4 -6.5l-16 -12q-2 3 -6.5 7
t-12.5 8.5t-20 7.5t-30 3zM310 519q0 44 6.5 77t20.5 60q-18 15 -44.5 19.5t-42.5 4.5q-38 0 -63 -15t-39 -37.5t-19.5 -49t-5.5 -48.5v-11h187z" />
    <glyph glyph-name="f_i" unicode="fi" horiz-adv-x="452" 
d="M103 499h-75v20h75v21q0 31 8 66.5t27 65t50 49t77 19.5q27 0 49 -5t38 -11t24.5 -11.5t8.5 -6.5l-16 -12q-9 9 -37.5 17.5t-66.5 8.5q-39 0 -66 -16.5t-44 -42.5t-24.5 -58t-7.5 -63v-21h245v-519h-20v499h-225v-499h-20v499z" />
    <glyph glyph-name="f_l" unicode="fl" horiz-adv-x="528" 
d="M529 4l-6.5 -1.5t-16.5 -3t-22.5 -3t-25.5 -1.5q-38 0 -58.5 24.5t-20.5 57.5v536q0 20 -7 39t-22 34t-38.5 24.5t-56.5 9.5q-36 0 -61 -16t-40.5 -42t-23 -58t-7.5 -64v-21h125v-20h-125v-499h-20v499h-75v20h75v21q0 41 8 77.5t26 63.5t47 43t71 16q34 0 61 -10
t45.5 -27t28 -40t9.5 -49v-537q0 -22 15.5 -42.5t44.5 -20.5q10 0 20.5 1.5t19.5 3t15 3l6 1.5z" />
    <glyph glyph-name="f_f_i" unicode="ffi" horiz-adv-x="659" 
d="M103 499h-75v20h75v10q0 30 7.5 60.5t25 55t45.5 40t69 15.5q33 0 59.5 -9t37.5 -17q20 30 50 48t77 18q25 0 47 -5t37.5 -11t24.5 -11.5t9 -6.5l-16 -12q-4 4 -14 9t-23.5 8.5t-29.5 6t-32 2.5q-42 0 -70 -16.5t-45 -42.5t-24.5 -58t-7.5 -63v-21h245v-519h-20v499h-225
v-499h-20v499h-187v-499h-20v499zM310 519q0 43 6.5 76.5t20.5 60.5q-18 15 -44.5 19.5t-42.5 4.5q-38 0 -63 -15.5t-39 -38t-19.5 -49t-5.5 -48.5v-10h187z" />
    <glyph glyph-name="f_f_l" unicode="ffl" horiz-adv-x="740" 
d="M676 -5q-44 0 -64.5 24.5t-20.5 57.5v536q0 21 -7.5 40.5t-22.5 34t-37 23.5t-51 9q-39 0 -65.5 -16t-42.5 -41.5t-23 -58t-7 -64.5v-21h125v-20h-125v-499h-20v499h-192v-499h-20v499h-75v20h75v9q0 37 9.5 68.5t28.5 54.5t48.5 36t68.5 13q35 0 56 -8.5t32 -16.5
q18 30 47.5 47.5t74.5 17.5q34 0 60.5 -10t45 -27t28 -40t9.5 -49v-537q0 -21 15 -42t48 -21q17 0 36.5 4.5t21.5 4.5l9 -19l-6.5 -1.5t-16.5 -3t-21 -3t-21 -1.5zM315 519q0 48 5 80.5t16 57.5q-17 14 -38.5 18.5t-38.5 4.5q-38 0 -64 -13.5t-42 -35t-23 -49t-7 -54.5v-9
h192z" />
    <glyph glyph-name=".notdef" horiz-adv-x="0" 
 />
    <glyph glyph-name=".null" horiz-adv-x="0" 
 />
    <glyph glyph-name="nonmarkingreturn" unicode="&#xd;" horiz-adv-x="0" 
 />
    <glyph glyph-name="NULL" horiz-adv-x="0" 
 />
    <glyph glyph-name="NULL" horiz-adv-x="0" 
 />
    <glyph glyph-name="space" unicode=" " horiz-adv-x="261" 
 />
    <glyph glyph-name="exclam" unicode="!" horiz-adv-x="228" 
d="M104 200v517h20v-517h-20zM104 0v84h20v-84h-20z" />
    <glyph glyph-name="quotedbl" unicode="&#x22;" horiz-adv-x="216" 
d="M73 570v140h20v-140h-20zM123 570v140h20v-140h-20z" />
    <glyph glyph-name="numbersign" unicode="#" horiz-adv-x="650" 
d="M612 481h-118l-58 -240h136v-20h-141l-53 -221h-21l54 221h-240l-53 -221h-21l54 221h-113v20h118l58 240h-136v20h141l51 209h21l-52 -209h240l51 209h21l-52 -209h113v-20zM416 241l58 240h-240l-58 -240h240z" />
    <glyph glyph-name="dollar" unicode="$" horiz-adv-x="613" 
d="M516 616q-42 46 -87.5 63t-108.5 17v-333q58 -12 104.5 -25.5t79.5 -34.5t50.5 -52t17.5 -77q0 -87 -66.5 -133t-183.5 -46h-2v-88h-20v89q-78 3 -139 29.5t-115 79.5l15 13q51 -52 108.5 -77t130.5 -29v337q-56 11 -98.5 23.5t-72 32t-44.5 48t-15 71.5q0 89 62 137.5
t168 52.5v101h20v-100q67 -1 117 -20.5t92 -64.5zM552 171q0 39 -14 67t-42.5 47.5t-72 33.5t-103.5 26v-333h3q106 0 167.5 39.5t61.5 119.5zM90 526q0 -37 12 -62t37.5 -42.5t65 -29.5t95.5 -24v327q-56 -2 -95.5 -15t-65 -35t-37.5 -52t-12 -67z" />
    <glyph glyph-name="percent" unicode="%" horiz-adv-x="670" 
d="M186 444q-29 0 -54 11t-43.5 29.5t-29.5 43.5t-11 54q0 28 11 53.5t29.5 44t43.5 29.5t54 11q28 0 53.5 -11t44 -29.5t29.5 -44t11 -53.5q0 -29 -11 -54t-29.5 -43.5t-44 -29.5t-53.5 -11zM186 464q25 0 46.5 9.5t37.5 26t25 38t9 44.5q0 25 -9.5 46.5t-26 37.5t-38 25
t-44.5 9q-25 0 -46.5 -9.5t-37.5 -26t-25 -38t-9 -44.5q0 -25 9.5 -46.5t25.5 -37.5t37.5 -25t45.5 -9zM485 -10q-29 0 -54 10.5t-43.5 29.5t-29.5 44t-11 54q0 28 11 53.5t29.5 44t43.5 29.5t54 11q28 0 53.5 -11t44 -29.5t29.5 -44t11 -53.5q0 -29 -11 -54t-29.5 -44
t-44 -29.5t-53.5 -10.5zM485 10q25 0 46.5 9.5t37.5 26t25 37.5t9 45t-9.5 45.5t-26 37.5t-38 25.5t-44.5 9.5q-25 0 -46.5 -9.5t-37.5 -26t-25 -38t-9 -44.5q0 -25 9.5 -46.5t25.5 -37.5t37.5 -25t45.5 -9zM48 11l558 700l16 -12l-558 -700z" />
    <glyph glyph-name="ampersand" unicode="&#x26;" horiz-adv-x="635" 
d="M598 0l-106 110q-38 -54 -94 -87t-128 -33q-41 0 -79.5 11.5t-69.5 34.5t-49.5 56.5t-18.5 77.5q0 37 13.5 67t36.5 56t54 50t66 48q-32 33 -53.5 59t-34.5 47.5t-19 40t-6 36.5q0 28 13 54.5t35.5 46.5t53 32t65.5 12q33 0 60 -10.5t47 -28t31 -40.5t11 -49
q0 -31 -15 -57.5t-39.5 -51t-56 -47.5t-65.5 -46l240 -249q25 42 38.5 91.5t13.5 101.5h20q0 -55 -15 -108.5t-44 -98.5l122 -126h-27zM273 8q66 0 118.5 32t87.5 84l-244 255q-32 -23 -61.5 -45.5t-52 -48t-35.5 -54.5t-13 -63q0 -41 18.5 -71t47 -50t64 -29.5t70.5 -9.5z
M130 573q0 -14 4 -29t16 -35t33 -46t55 -62q39 26 70 49t52.5 45t33.5 45t12 49q0 48 -36.5 79t-93.5 31q-31 0 -57.5 -10t-46 -27t-31 -40t-11.5 -49z" />
    <glyph glyph-name="quotesingle" unicode="'" horiz-adv-x="166" 
d="M73 569v141h20v-141h-20z" />
    <glyph glyph-name="parenleft" unicode="(" horiz-adv-x="234" 
d="M50 345q0 51 10.5 99.5t28.5 96t42.5 93.5t51.5 92l16 -12q-24 -35 -47.5 -80.5t-41.5 -95t-29.5 -100.5t-11.5 -96q0 -38 8.5 -82t25 -90t41 -93t55.5 -91l-16 -12q-65 95 -99 187.5t-34 183.5z" />
    <glyph glyph-name="parenright" unicode=")" horiz-adv-x="233" 
d="M184 345q0 -91 -34 -183.5t-99 -187.5l-16 12q31 44 55.5 91t41 93t25 90t8.5 82q0 45 -11.5 96t-29.5 100.5t-41.5 95t-47.5 80.5l16 12q27 -46 51.5 -92t42.5 -93.5t28.5 -96t10.5 -99.5z" />
    <glyph glyph-name="asterisk" unicode="*" horiz-adv-x="302" 
d="M94 564l41 57l-67 22l6 19l67 -22v70h20v-70l67 22l6 -19l-67 -22l42 -57l-17 -12l-41 57l-41 -57z" />
    <glyph glyph-name="plus" unicode="+" horiz-adv-x="412" 
d="M356 365v-20h-140v-150h-20v150h-140v20h140v150h20v-150h140z" />
    <glyph glyph-name="comma" unicode="," horiz-adv-x="260" 
d="M116 -81l10 71h-9v74h26v-74l-13 -71h-14z" />
    <glyph glyph-name="hyphen" unicode="-" horiz-adv-x="421" 
d="M69 261v20h283v-20h-283z" />
    <glyph glyph-name="period" unicode="." horiz-adv-x="158" 
d="M69 0v64h20v-64h-20z" />
    <glyph glyph-name="slash" unicode="/" horiz-adv-x="536" 
d="M508 710l-456 -710h-25l455 710h26z" />
    <glyph glyph-name="zero" unicode="0" horiz-adv-x="608" 
d="M549 293q0 -66 -18.5 -121.5t-51 -96t-77.5 -63t-98 -22.5t-98 22.5t-77.5 63t-51 96t-18.5 121.5t18.5 121.5t51 96t77.5 63.5t98 23t98 -23t77.5 -63.5t51 -96t18.5 -121.5zM529 293q0 63 -16.5 115t-46 89.5t-71 58.5t-91.5 21t-91.5 -21t-71 -58.5t-46 -89.5
t-16.5 -115t16.5 -115t46 -89.5t71 -58t91.5 -20.5t91.5 20.5t71 58t46 89.5t16.5 115z" />
    <glyph glyph-name="one" unicode="1" horiz-adv-x="375" 
d="M357 20v-20h-289v20h142v518q-8 -12 -27.5 -26.5t-43 -28t-49 -22.5t-45.5 -9v24q27 0 56 14.5t53 31.5t39.5 32t16.5 17h20v-551h127z" />
    <glyph glyph-name="two" unicode="2" horiz-adv-x="486" 
d="M47 0q0 18 4 52t21 72.5t51.5 76t94.5 62.5q28 12 60.5 25t61 32t47.5 46.5t19 66.5q0 23 -10 46t-30 41t-50.5 29.5t-71.5 11.5q-38 0 -68 -12t-51.5 -27t-34.5 -29t-17 -19l-16 12l13 15t37 33t58.5 32.5t78.5 14.5q45 0 79 -13t57 -34t34.5 -47.5t11.5 -53.5
q0 -45 -20.5 -76t-51.5 -52t-66 -35t-63 -26q-52 -23 -83 -55.5t-48 -65.5t-22.5 -61.5t-5.5 -41.5h371v-20h-390z" />
    <glyph glyph-name="three" unicode="3" horiz-adv-x="521" 
d="M308 236q72 -10 115 -61.5t43 -126.5q0 -44 -15.5 -79.5t-44 -61.5t-67.5 -40t-85 -14q-75 0 -131 34.5t-77 93.5l19 7q9 -26 26.5 -47t42.5 -36t56 -23.5t66 -8.5q43 0 78 12.5t60 36t38.5 56t13.5 73.5q0 81 -52 128.5t-143 47.5h-22v20h23q88 0 135 37.5t47 105.5
q0 37 -13.5 67.5t-37.5 52.5t-57 34t-72 12q-63 0 -111 -31t-68 -82l-18 7q10 28 29 51.5t45 40t57 25.5t66 9q43 0 79.5 -13.5t63.5 -38t42 -57.5t15 -72q0 -64 -39.5 -107.5t-106.5 -51.5z" />
    <glyph glyph-name="four" unicode="4" horiz-adv-x="518" 
d="M384 -127v199h-365v17l371 482h14v-479h88v-20h-88v-199h-20zM47 92h337v442z" />
    <glyph glyph-name="five" unicode="5" horiz-adv-x="537" 
d="M268 306q47 0 89 -16.5t73.5 -46t49.5 -71t18 -90.5q0 -52 -19 -94.5t-51.5 -73t-75 -47t-89.5 -16.5q-38 0 -72 10.5t-63 30t-51.5 46t-37.5 59.5h22q27 -57 81 -91.5t121 -34.5q45 0 84 15.5t68 43.5t46 66.5t17 85.5q0 45 -16.5 82.5t-45 64.5t-66.5 42t-82 15
q-57 0 -108 -25t-84 -73h-24q2 9 6.5 30t10.5 49.5t12.5 62t13.5 67.5q16 79 35 174h337v-20h-320l-65 -325q36 39 84.5 59.5t101.5 20.5z" />
    <glyph glyph-name="six" unicode="6" horiz-adv-x="595" 
d="M552 232q0 -50 -19 -94t-52.5 -77t-78.5 -52t-96 -19q-53 0 -98.5 19t-79.5 55t-53 87t-19 115q0 117 18.5 201.5t52 139.5t79.5 81.5t102 26.5q73 0 128.5 -39.5t77.5 -107.5l-19 -7q-9 30 -27.5 54.5t-43 42.5t-54 27.5t-61.5 9.5q-52 0 -94.5 -26t-73 -75.5
t-47 -121.5t-16.5 -164q12 37 34.5 68t53.5 53t67.5 34t76.5 12q50 0 94 -19t77 -52t52 -77.5t19 -94.5zM308 10q46 0 87 17.5t71.5 47.5t48 70.5t17.5 85.5q0 46 -18 86.5t-49 71t-71.5 48.5t-86.5 18t-87 -18t-71.5 -48.5t-48.5 -71t-18 -85.5t18 -85.5t49 -71t72 -48
t87 -17.5z" />
    <glyph glyph-name="seven" unicode="7" horiz-adv-x="535" 
d="M477 563h-427v20h460l-364 -710h-23z" />
    <glyph glyph-name="eight" unicode="8" horiz-adv-x="581" 
d="M528 188q0 -45 -19.5 -81t-53 -61.5t-77 -39t-91.5 -13.5q-54 0 -97 16.5t-73.5 43.5t-47 62.5t-16.5 74.5q0 37 14 68.5t37.5 56t53 41.5t59.5 25q-28 10 -53 25t-44 35t-30 45t-11 55q0 41 18.5 72.5t48.5 53t68 32.5t77 11t77 -11t67.5 -32.5t48 -53t18.5 -72.5
q0 -30 -11.5 -55t-30.5 -45t-44 -35t-53 -25q35 -10 65 -28t52.5 -43t35 -55.5t12.5 -66.5zM508 191q0 43 -20 76.5t-52 56.5t-71 35t-76 12q-39 0 -77.5 -13t-69.5 -37t-50 -57.5t-19 -74.5q0 -43 20 -76t52 -56t70.5 -35t76.5 -12q39 0 77.5 12.5t69 36t50 57t19.5 75.5z
M99 539q0 -36 17.5 -63.5t45.5 -46t61.5 -28.5t66.5 -10t67 10t62 29.5t45.5 47t17.5 63.5t-16.5 63.5t-43.5 46.5t-62 29t-71 10t-70.5 -10t-61 -29.5t-42.5 -47.5t-16 -64z" />
    <glyph glyph-name="nine" unicode="9" horiz-adv-x="579" 
d="M37 329q0 50 19 94t52.5 77t78.5 52t96 19q53 0 98.5 -19t79.5 -55t53 -87t19 -115q0 -117 -18.5 -201.5t-52 -139.5t-80 -81.5t-101.5 -26.5q-73 0 -128.5 39.5t-77.5 107.5l19 7q9 -30 27.5 -54.5t43 -42.5t54 -27.5t61.5 -9.5q52 0 94.5 26t73 75.5t47 121.5t16.5 164
q-12 -37 -34.5 -68t-53.5 -53t-67.5 -34t-76.5 -12q-50 0 -94 19t-77 52t-52 77.5t-19 94.5zM281 551q-46 0 -87 -17.5t-71.5 -47.5t-48 -70.5t-17.5 -85.5q0 -46 18 -86.5t48.5 -71t71.5 -48.5t87 -18t87 18t71.5 48.5t48.5 71t18 85.5t-18 85.5t-49 71t-72 48t-87 17.5z
" />
    <glyph glyph-name="colon" unicode=":" horiz-adv-x="158" 
d="M69 453v64h20v-64h-20zM69 0v64h20v-64h-20z" />
    <glyph glyph-name="semicolon" unicode=";" horiz-adv-x="168" 
d="M73 453v64h20v-64h-20zM70 -81l10 71h-9v74h26v-74l-13 -71h-14z" />
    <glyph glyph-name="less" unicode="&#x3c;" horiz-adv-x="502" 
d="M34 268l417 249v-22l-388 -236l388 -237v-22l-417 250v18z" />
    <glyph glyph-name="equal" unicode="=" horiz-adv-x="435" 
d="M71 231v20h293v-20h-293zM71 301v20h293v-20h-293z" />
    <glyph glyph-name="greater" unicode="&#x3e;" horiz-adv-x="502" 
d="M468 250l-417 -250v22l388 237l-388 236v22l417 -249v-18z" />
    <glyph glyph-name="question" unicode="?" horiz-adv-x="468" 
d="M178 179q0 48 6.5 79.5t18 52.5t27.5 33.5t34 21.5q24 12 49.5 24t47 30t35.5 45t14 70t-14 74t-37.5 51t-53.5 29.5t-61 9.5q-30 0 -59 -8t-54 -23.5t-45 -37t-33 -48.5l-18 8q14 31 36.5 55t50 40.5t59 25t62.5 8.5q36 0 70 -12t60 -35.5t41.5 -58.5t15.5 -81
q0 -45 -14.5 -74.5t-37.5 -49t-51 -33t-55 -28.5q-16 -9 -29.5 -19.5t-23.5 -29t-15.5 -47t-5.5 -72.5h-20zM178 0v84h20v-84h-20z" />
    <glyph glyph-name="at" unicode="@" horiz-adv-x="830" 
d="M413 603q74 0 139 -30t113 -81.5t76 -121t28 -148.5q0 -14 -1.5 -37.5t-6.5 -50t-14 -53.5t-24.5 -48.5t-38.5 -35t-55 -13.5q-24 0 -38 7.5t-21.5 21t-10.5 32t-5 39.5q-26 -29 -70.5 -50.5t-96.5 -21.5q-33 0 -60 9.5t-46 26.5t-29.5 40.5t-10.5 51.5q0 36 16 60
t42 38.5t58.5 20.5t64.5 6q45 0 82 -8.5t54 -14.5q0 41 -6 75.5t-21 59t-40.5 38.5t-64.5 14q-38 0 -75 -12.5t-69 -35.5l-12 16q35 23 73.5 37.5t83.5 14.5q49 0 78.5 -17.5t45.5 -46t21 -64.5t5 -73v-153q0 -45 9.5 -68t43.5 -23t57 22.5t37 55.5t19.5 71t5.5 70
q0 75 -26.5 140.5t-72 114t-107 77t-130.5 28.5q-67 0 -129 -26.5t-109.5 -73.5t-76 -111.5t-28.5 -141.5q0 -74 27 -139t73.5 -113t108.5 -76t133 -28q39 0 77.5 9t74.5 29l10 -18q-77 -40 -162 -40q-74 0 -140 29t-115.5 80t-78 119.5t-28.5 147.5q0 82 30.5 150.5
t80.5 118t115.5 77t136.5 27.5zM484 55q25 12 39.5 26t22 29.5t9.5 32t2 31.5v47q-6 0 -18 3.5t-29.5 8t-41 8.5t-51.5 4q-29 0 -56.5 -5t-50 -17t-36 -32.5t-13.5 -50.5q0 -26 10.5 -46.5t28 -34t40 -20.5t47.5 -7q26 0 52 7t45 16z" />
    <glyph glyph-name="A" unicode="A" horiz-adv-x="674" 
d="M328 710h18l309 -710h-22l-111 254h-371l-111 -254h-22zM513 274l-176 407l-178 -407h354z" />
    <glyph glyph-name="B" unicode="B" horiz-adv-x="655" 
d="M605 184q0 -37 -14 -70t-38 -58.5t-56.5 -40.5t-68.5 -15h-329v710h314q37 0 67 -16t51 -41.5t32.5 -58t11.5 -65.5q0 -54 -27.5 -99t-74.5 -66q30 -9 54.5 -27t42 -42t26.5 -52.5t9 -58.5zM585 184q0 32 -11.5 61.5t-31.5 52.5t-47.5 36.5t-59.5 13.5h-316v-328h309
q33 0 61.5 14t50 37t33.5 52.5t12 60.5zM119 690v-322h288q33 0 60 14t46.5 37t30.5 51.5t11 58.5q0 32 -10.5 61t-29 51.5t-45 35.5t-57.5 13h-294z" />
    <glyph glyph-name="C" unicode="C" horiz-adv-x="697" 
d="M48 360q0 64 22.5 127t65 113.5t105 82t142.5 31.5q95 0 161 -43.5t98 -111.5l-19 -6q-21 39 -48.5 66t-60 43.5t-67 24t-68.5 7.5q-74 0 -132 -29.5t-98 -77.5t-60.5 -108.5t-20.5 -121.5q0 -68 24.5 -130t67 -109.5t99.5 -75.5t123 -28q35 0 72 9t71.5 27t64 46.5
t50.5 67.5l19 -5q-18 -40 -49 -71t-69 -52t-80.5 -31.5t-82.5 -10.5q-72 0 -133 32t-104.5 83.5t-68 117t-24.5 133.5z" />
    <glyph glyph-name="D" unicode="D" horiz-adv-x="711" 
d="M99 0v710h228q84 0 146.5 -28t104 -76t62 -112.5t20.5 -137.5q0 -81 -23.5 -146.5t-66.5 -112t-105 -72t-138 -25.5h-228zM640 356q0 73 -20.5 134t-60.5 105.5t-98.5 69.5t-133.5 25h-208v-670h208q77 0 135.5 25.5t98 70.5t59.5 106.5t20 133.5z" />
    <glyph glyph-name="E" unicode="E" horiz-adv-x="617" 
d="M565 20v-20h-466v710h457v-20h-437v-317h383v-20h-383v-333h446z" />
    <glyph glyph-name="F" unicode="F" horiz-adv-x="602" 
d="M99 0v710h457v-20h-437v-316h373v-20h-373v-354h-20z" />
    <glyph glyph-name="G" unicode="G" horiz-adv-x="720" 
d="M639 121q-111 -126 -256 -126q-74 0 -135.5 31.5t-106 82.5t-69 115.5t-24.5 130.5q0 69 24 134t66.5 115.5t102 80.5t130.5 30q55 0 98 -11.5t76 -32t56.5 -49t40.5 -62.5l-19 -6q-41 75 -105 108t-147 33q-70 0 -126 -29.5t-95.5 -77.5t-60.5 -109t-21 -124
q0 -67 24.5 -128.5t67.5 -108.5t100 -75t123 -28q70 0 133 32t123 102v169h-167v20h187v-338h-20v121z" />
    <glyph glyph-name="H" unicode="H" horiz-adv-x="731" 
d="M632 710v-710h-20v353h-493v-353h-20v710h20v-337h493v337h20z" />
    <glyph glyph-name="I" unicode="I" horiz-adv-x="218" 
d="M99 0v710h20v-710h-20z" />
    <glyph glyph-name="J" unicode="J" horiz-adv-x="473" 
d="M30 49q58 -40 143 -40q64 0 101.5 23.5t57 67t25.5 106.5t6 143v361h20v-361q0 -81 -6.5 -147.5t-28.5 -113.5t-63.5 -73t-111.5 -26q-90 0 -154 44z" />
    <glyph glyph-name="K" unicode="K" horiz-adv-x="621" 
d="M99 0v710h20v-461l452 461h29l-303 -310l317 -400h-26l-306 386l-163 -165v-221h-20z" />
    <glyph glyph-name="L" unicode="L" horiz-adv-x="579" 
d="M99 0v710h20v-690h446v-20h-466z" />
    <glyph glyph-name="M" unicode="M" horiz-adv-x="884" 
d="M765 0v666l-315 -526h-16l-315 526v-666h-20v710h16l327 -546l327 546h16v-710h-20z" />
    <glyph glyph-name="N" unicode="N" horiz-adv-x="776" 
d="M119 671v-671h-20v710h15l543 -681v681h20v-710h-23z" />
    <glyph glyph-name="O" unicode="O" horiz-adv-x="757" 
d="M379 -5q-74 0 -134.5 31t-104.5 81t-68 115t-24 133q0 71 25.5 136t70 115t105 79.5t130.5 29.5q73 0 134 -31.5t104.5 -82.5t67.5 -115.5t24 -130.5q0 -72 -25.5 -137t-70 -114.5t-104.5 -79t-130 -29.5zM68 355q0 -66 23.5 -127.5t64.5 -109t98 -75.5t125 -28
q69 0 126.5 29.5t98 77.5t63 109t22.5 124q0 66 -23.5 127.5t-65.5 109t-98.5 75.5t-122.5 28q-69 0 -126.5 -29.5t-98.5 -77.5t-63.5 -109t-22.5 -124z" />
    <glyph glyph-name="P" unicode="P" horiz-adv-x="619" 
d="M99 0v710h289q43 0 80 -18.5t63.5 -49t41.5 -69t15 -78.5q0 -42 -14 -81t-39.5 -69t-61 -48t-78.5 -18h-276v-279h-20zM119 299h276q40 0 72.5 17t54.5 45t34 63t12 71q0 38 -14 73t-38.5 62t-57.5 43.5t-70 16.5h-269v-391z" />
    <glyph glyph-name="Q" unicode="Q" horiz-adv-x="757" 
d="M586 76q-42 -38 -94.5 -59.5t-112.5 -21.5q-74 0 -134.5 31t-104.5 81t-68 115t-24 133q0 71 25.5 136t70 115t105 79.5t130.5 29.5q73 0 134 -31.5t104.5 -82.5t67.5 -115.5t24 -130.5q0 -78 -29 -146.5t-80 -119.5l72 -89h-25zM379 15q58 0 107 21t88 56l-75 94h25
l64 -81q48 50 74.5 115.5t26.5 134.5q0 66 -23.5 127.5t-65.5 109t-98.5 75.5t-122.5 28q-69 0 -126.5 -29.5t-98.5 -77.5t-63.5 -109t-22.5 -124q0 -66 23.5 -127.5t64.5 -109t98 -75.5t125 -28z" />
    <glyph glyph-name="R" unicode="R" horiz-adv-x="642" 
d="M99 0v710h289q43 0 80 -18.5t63.5 -49t41.5 -69t15 -78.5q0 -41 -13 -79t-37 -67.5t-57.5 -48t-73.5 -21.5l180 -279h-24l-180 279h-264v-279h-20zM119 299h276q40 0 72 17t54.5 44.5t34.5 62.5t12 72q0 38 -14 73t-38.5 62t-57.5 43.5t-70 16.5h-269v-391z" />
    <glyph glyph-name="S" unicode="S" horiz-adv-x="602" 
d="M509 616q-42 46 -87.5 63t-108.5 17q-61 0 -104.5 -12t-71.5 -34.5t-41 -53.5t-13 -70q0 -38 13 -63.5t40 -43t69.5 -30t101.5 -24.5t107 -26t81.5 -35t51.5 -52t18 -78q0 -87 -66.5 -133t-183.5 -46q-86 0 -152.5 26.5t-123.5 83.5l15 13q54 -56 117.5 -81t144.5 -25
q106 0 167.5 39.5t61.5 119.5q0 40 -14 67.5t-43 47.5t-74 34t-106 26q-59 11 -104.5 23.5t-77 32t-47.5 49t-16 73.5q0 46 17.5 81.5t50 60t78 37t102.5 12.5q68 0 118.5 -19.5t92.5 -65.5z" />
    <glyph glyph-name="T" unicode="T" horiz-adv-x="600" 
d="M582 690h-272v-690h-20v690h-272v20h564v-20z" />
    <glyph glyph-name="U" unicode="U" horiz-adv-x="756" 
d="M378 15q80 0 132.5 30t83 78t43 109t12.5 123v355h20v-355q0 -71 -14.5 -136t-48.5 -114.5t-89.5 -79.5t-137.5 -30q-84 0 -140 31t-89.5 82t-47.5 115.5t-14 131.5v355h20v-355q0 -64 12.5 -125t43.5 -109t83 -77t131 -29z" />
    <glyph glyph-name="V" unicode="V" horiz-adv-x="678" 
d="M40 710l299 -685l298 685h22l-309 -710h-22l-309 710h21z" />
    <glyph glyph-name="W" unicode="W" horiz-adv-x="1038" 
d="M381 704h22l115 -266l116 266h22l-127 -290l170 -389l298 685h22l-309 -710h-22l-169 389l-169 -389h-22l-309 710h22l298 -685l169 389z" />
    <glyph glyph-name="X" unicode="X" horiz-adv-x="621" 
d="M37 710l274 -344l274 344h25l-287 -360l279 -350h-25l-266 334l-266 -334h-26l279 350l-287 360h26z" />
    <glyph glyph-name="Y" unicode="Y" horiz-adv-x="641" 
d="M46 710l274 -412l275 412h23l-288 -435v-275h-20v277l-287 433h23z" />
    <glyph glyph-name="Z" unicode="Z" horiz-adv-x="624" 
d="M28 20l542 670h-537v20h562v-20l-542 -670h538v-20h-563v20z" />
    <glyph glyph-name="bracketleft" unicode="[" horiz-adv-x="228" 
d="M97 -40v780h70v-20h-50v-740h50v-20h-70z" />
    <glyph glyph-name="backslash" unicode="\" horiz-adv-x="514" 
d="M53 710l435 -710h-25l-436 710h26z" />
    <glyph glyph-name="bracketright" unicode="]" horiz-adv-x="228" 
d="M61 -40v20h50v740h-50v20h70v-780h-70z" />
    <glyph glyph-name="asciicircum" unicode="^" horiz-adv-x="505" 
d="M46 303l198 407h18l197 -407h-23l-183 378l-186 -378h-21z" />
    <glyph glyph-name="underscore" unicode="_" horiz-adv-x="531" 
d="M69 -20v20h393v-20h-393z" />
    <glyph glyph-name="grave" unicode="`" horiz-adv-x="198" 
d="M50 730h33l65 -73l-16 -12z" />
    <glyph glyph-name="a" unicode="a" horiz-adv-x="524" 
d="M207 -10q-35 0 -66 12.5t-53.5 34t-35.5 50.5t-13 62t15.5 60t44 46.5t68 30.5t86.5 11q45 0 91 -7.5t83 -21.5v59q0 40 -12 73.5t-34.5 57t-54 36.5t-69.5 13t-81 -16.5t-87 -47.5l-12 16q100 68 180 68q43 0 78.5 -14t60 -40t38 -63t13.5 -83v-287q0 -20 16 -20v-20
q-11 0 -14 2q-10 4 -16 14.5t-6 23.5v48q-36 -47 -94 -72.5t-126 -25.5zM207 10q67 0 122.5 25t82.5 67q15 21 15 41v103q-80 31 -174 31q-44 0 -79.5 -9t-61 -26t-39.5 -40.5t-14 -52.5t11.5 -54.5t31.5 -44.5t47 -29.5t58 -10.5z" />
    <glyph glyph-name="b" unicode="b" horiz-adv-x="603" 
d="M307 -10q-31 0 -60.5 9t-56 25t-49 37.5t-37.5 46.5v-108h-20v730h20v-332q40 56 92 92.5t120 36.5q57 0 102 -24t75.5 -62.5t47 -86.5t16.5 -96q0 -53 -19 -101.5t-53 -85.5t-79.5 -59t-98.5 -22zM307 10q50 0 92.5 21.5t73 56.5t47.5 79.5t17 90.5q0 48 -16 93
t-45.5 79.5t-70 55.5t-89.5 21q-37 0 -69.5 -12.5t-59 -33.5t-47.5 -48t-36 -57v-189q2 -32 22.5 -60.5t50.5 -50t65 -34t65 -12.5z" />
    <glyph glyph-name="c" unicode="c" horiz-adv-x="538" 
d="M46 262q0 56 19 104.5t53 84t79.5 56t98.5 20.5q66 0 117.5 -30.5t77.5 -85.5l-20 -7q-26 48 -73.5 75.5t-104.5 27.5q-48 0 -89 -19t-72 -52t-48.5 -78t-17.5 -96t18 -97t49.5 -80.5t72.5 -54.5t88 -20q30 0 60.5 9t56 24t43.5 35t24 41l20 -6q-9 -26 -28.5 -48.5
t-46.5 -39t-59.5 -26t-66.5 -9.5q-51 0 -97 21.5t-80 58.5t-54 86.5t-20 105.5z" />
    <glyph glyph-name="d" unicode="d" horiz-adv-x="604" 
d="M296 -10q-54 0 -100 23t-79.5 61t-52 86t-18.5 98q0 54 18 102.5t50.5 85.5t76.5 59t96 22q36 0 67.5 -10.5t58.5 -28t48.5 -41t37.5 -49.5v332h20v-690q0 -20 16 -20v-20q-9 0 -13 2q-11 5 -17 15.5t-6 22.5v68q-17 -26 -39.5 -47.5t-49 -37.5t-55.5 -24.5t-59 -8.5z
M296 10q30 0 65 13t65 34.5t50.5 50.5t22.5 61v187q-11 31 -34 58.5t-52 48t-62 32.5t-64 12q-51 0 -91.5 -21.5t-69.5 -56.5t-44.5 -80t-15.5 -91q0 -49 18 -93.5t49 -79t73 -55t90 -20.5z" />
    <glyph glyph-name="e" unicode="e" 
d="M296 -10q-51 0 -96.5 21.5t-79.5 59t-54 87t-20 105.5q0 55 19 103t52.5 84t78 56.5t95.5 20.5q52 0 97.5 -21t79 -57t53.5 -85t20 -105v-11h-475q4 -50 23.5 -93.5t50.5 -75.5t71.5 -50.5t85.5 -18.5q30 0 58.5 8t53.5 22.5t44 34.5t30 44l19 -5q-11 -27 -31.5 -49.5
t-48 -39t-60 -26t-66.5 -9.5zM520 268q-3 52 -22 96t-49.5 75.5t-70.5 49.5t-86 18t-86 -18t-70.5 -50t-48.5 -76t-21 -95h454z" />
    <glyph glyph-name="f" unicode="f" horiz-adv-x="299" 
d="M103 0v499h-75v20h75v21q0 95 36 147.5t101 52.5q29 0 55 -9.5t40 -24.5l-16 -12q-12 12 -33.5 19.5t-44.5 7.5q-57 0 -87.5 -46.5t-30.5 -134.5v-21h155v-20h-155v-499h-20z" />
    <glyph glyph-name="g" unicode="g" horiz-adv-x="603" 
d="M296 -10q-54 0 -100 23t-79.5 61t-52 86t-18.5 98q0 52 17.5 100.5t49.5 86t76.5 60t97.5 22.5q35 0 65.5 -10t57 -27.5t48.5 -41t41 -50.5v121h20v-541q0 -51 -19 -89t-51 -63t-73.5 -37t-85.5 -12q-92 0 -144 34t-81 90l19 6q32 -59 87.5 -84.5t118.5 -25.5
q43 0 81 11.5t66.5 34.5t45 56.5t16.5 78.5v130q-17 -26 -39.5 -47.5t-49 -37.5t-55.5 -24.5t-59 -8.5zM296 10q37 0 72.5 14.5t63.5 37.5t46.5 51t20.5 56v187q-12 33 -34.5 60.5t-50.5 47.5t-61 31.5t-66 11.5q-53 0 -94 -22.5t-69 -58t-43 -80t-15 -88.5q0 -49 18 -93.5
t49 -79t73 -55t90 -20.5z" />
    <glyph glyph-name="h" unicode="h" horiz-adv-x="565" 
d="M487 0h-20v289q0 218 -144 218q-36 0 -71 -14t-64.5 -38t-51.5 -56.5t-32 -70.5v-328h-20v730h20v-345q16 32 39.5 58.5t52 45t61 28.5t65.5 10q81 0 123 -60t42 -178v-289z" />
    <glyph glyph-name="i" unicode="i" horiz-adv-x="188" 
d="M84 0v519h20v-519h-20zM84 653v77h20v-77h-20z" />
    <glyph glyph-name="j" unicode="j" horiz-adv-x="196" 
d="M-21 -170q-29 0 -54.5 7t-45.5 27l16 12q18 -16 40 -21t43 -5t41 9t36.5 24t26.5 36t10 45v555h20v-555q0 -29 -12 -53.5t-31 -42.5t-43 -28t-47 -10zM92 653v77h20v-77h-20z" />
    <glyph glyph-name="k" unicode="k" horiz-adv-x="508" 
d="M466 0l-221 297l-141 -128v-169h-20v730h20v-534l354 321h27l-225 -206l230 -311h-24z" />
    <glyph glyph-name="l" unicode="l" horiz-adv-x="238" 
d="M90 730h20v-653q0 -29 18 -46t48 -17q11 0 26.5 2.5t28.5 6.5l7 -16q-14 -5 -34.5 -8.5t-34.5 -3.5q-35 0 -57 22.5t-22 59.5v653z" />
    <glyph glyph-name="m" unicode="m" horiz-adv-x="908" 
d="M830 0h-20v289q0 112 -33.5 165t-105.5 53q-37 0 -69.5 -13.5t-59 -37.5t-46 -57t-29.5 -72v-327h-20v289q0 113 -33 165.5t-105 52.5q-36 0 -68.5 -13t-59 -36.5t-46.5 -56.5t-31 -73v-328h-20v519h20v-134q34 68 86.5 105t114.5 37q66 0 108 -41t50 -110
q78 151 208 151q81 0 120 -58.5t39 -179.5v-289z" />
    <glyph glyph-name="n" unicode="n" horiz-adv-x="565" 
d="M487 0h-20v289q0 114 -31.5 166t-101.5 52q-38 0 -74.5 -13.5t-67.5 -37.5t-54 -57t-34 -71v-328h-20v519h20v-134q16 31 41 57.5t55 45t64 29t69 10.5q80 0 117 -57.5t37 -180.5v-289z" />
    <glyph glyph-name="o" unicode="o" horiz-adv-x="586" 
d="M293 -10q-51 0 -96 21.5t-78.5 58t-53 85.5t-19.5 103q0 55 19.5 103.5t53.5 85.5t79 58.5t95 21.5t95 -21.5t78.5 -58.5t53.5 -85.5t20 -103.5q0 -54 -19.5 -103t-53 -85.5t-78.5 -58t-96 -21.5zM66 256q0 -50 18 -95t48.5 -78.5t71.5 -53t88 -19.5q46 0 87.5 20t73 54
t49.5 79t18 96q0 50 -18 95t-49 79t-72.5 54t-87.5 20t-87.5 -20t-72.5 -54.5t-49 -80t-18 -96.5z" />
    <glyph glyph-name="p" unicode="p" horiz-adv-x="603" 
d="M316 -10q-35 0 -66 10.5t-58 28t-49 41t-39 49.5v-332h-20v732h20v-110q16 26 39 47.5t49.5 37.5t55.5 24.5t59 8.5q55 0 101 -23.5t79 -61.5t51.5 -86t18.5 -98q0 -53 -17.5 -101.5t-49 -85.5t-76 -59t-98.5 -22zM316 10q51 0 91.5 21.5t69.5 56.5t44.5 79.5t15.5 90.5
q0 49 -18 94t-49 79.5t-73 55t-90 20.5q-30 0 -65 -13t-65 -35t-50.5 -51t-22.5 -60v-187q14 -32 36 -59.5t49.5 -47.5t59.5 -32t67 -12z" />
    <glyph glyph-name="q" unicode="q" horiz-adv-x="603" 
d="M287 -10q-55 0 -99.5 23t-76 60.5t-48.5 85.5t-17 99q0 53 19.5 101.5t53.5 86t79.5 59.5t97.5 22q31 0 60.5 -9t56 -25t49 -37.5t37.5 -46.5v110h20v-692q0 -20 16 -20v-20q-10 0 -14 2q-11 5 -16.5 15.5t-5.5 22.5v292q-44 -63 -97.5 -96t-114.5 -33zM287 10
q37 0 69 12.5t59 33.5t48 48t36 57v187q-3 31 -23 60t-49 51t-63.5 35t-67.5 13q-51 0 -93 -21.5t-72.5 -57t-47.5 -80t-17 -90.5q0 -49 16.5 -94t46 -79t70 -54.5t88.5 -20.5z" />
    <glyph glyph-name="r" unicode="r" horiz-adv-x="323" 
d="M306 499q-74 -3 -127.5 -48t-74.5 -123v-328h-20v519h20v-134q27 55 72.5 90.5t96.5 41.5q10 1 18.5 1.5t14.5 0.5v-20z" />
    <glyph glyph-name="s" unicode="s" horiz-adv-x="471" 
d="M235 -10q-121 0 -198 84l15 13q40 -39 83.5 -58t99.5 -19q77 0 125 33t48 93q0 28 -12 46.5t-35 32t-57 23t-77 19.5q-42 10 -73 18.5t-51.5 21.5t-31 32.5t-10.5 50.5q0 39 15 66.5t40 45.5t58 26.5t70 8.5q63 0 107.5 -21.5t61.5 -53.5l-18 -8q-19 31 -62 47t-93 16
q-32 0 -61 -7t-51 -22t-34.5 -38.5t-12.5 -56.5q0 -26 8.5 -42.5t26.5 -27.5t46 -19t66 -17q46 -11 83.5 -21t63 -25t39.5 -36.5t14 -55.5t-14 -61.5t-39 -47t-61 -30t-79 -10.5z" />
    <glyph glyph-name="t" unicode="t" horiz-adv-x="295" 
d="M286 24l-7.5 -5t-20 -10t-29.5 -9.5t-38 -4.5q-36 0 -63 22t-27 58v424h-75v20h75v181h20v-181h125v-20h-125v-424q2 -29 23 -44.5t47 -15.5q17 0 32 3.5t26.5 8t18 8.5t7.5 5z" />
    <glyph glyph-name="u" unicode="u" 
d="M245 -10q-167 0 -167 238v291h20v-291q0 -218 147 -218q37 0 73 13.5t66 37t52.5 56.5t34.5 72v330h20v-479q0 -20 16 -20v-20q-11 0 -14 2q-10 4 -16 14.5t-6 23.5v92q-34 -66 -95 -104t-131 -38z" />
    <glyph glyph-name="v" unicode="v" horiz-adv-x="520" 
d="M251 0l-226 519h22l213 -490l213 490h22l-226 -519h-18z" />
    <glyph glyph-name="w" unicode="w" horiz-adv-x="794" 
d="M747 519h22l-227 -519h-18l-127 291l-127 -291h-18l-227 519h22l214 -490l125 287l-87 202h21l77 -176l77 176h21l-87 -202l125 -287z" />
    <glyph glyph-name="x" unicode="x" horiz-adv-x="482" 
d="M46 519l187 -234l8 -12l8 12l187 234h26l-208 -261l206 -258h-26l-185 232l-8 12l-8 -12l-185 -232h-26l206 258l-208 261h26z" />
    <glyph glyph-name="y" unicode="y" horiz-adv-x="536" 
d="M128 -203q17 0 29.5 1.5t17.5 8.5q3 3 7 11.5t13 29t25 57t42 95.5l-241 519h22l229 -494l217 494h22l-309 -705q-12 -26 -33 -32q-20 -5 -41 -5v20z" />
    <glyph glyph-name="z" unicode="z" horiz-adv-x="488" 
d="M33 20l396 479h-391v20h416v-20l-395 -479h391v-20h-417v20z" />
    <glyph glyph-name="braceleft" unicode="{" horiz-adv-x="229" 
d="M118 720v-304q0 -3 -0.5 -9t-2.5 -14.5t-6 -17t-12 -15.5q16 -14 18.5 -32.5t2.5 -23.5v-315h55v-20h-52q-8 0 -15.5 6.5t-7.5 23.5v305q0 15 -6 30t-24 17v20q10 0 16 6t9 13.5t4 15t1 10.5v294q0 20 9.5 25t13.5 5h52v-20h-55z" />
    <glyph glyph-name="bar" unicode="|" horiz-adv-x="210" 
d="M95 -130v905h20v-905h-20z" />
    <glyph glyph-name="braceright" unicode="}" horiz-adv-x="229" 
d="M56 720v20h52q4 0 13.5 -5t9.5 -25v-294q0 -3 0.5 -10.5t3.5 -15t9 -13.5t17 -6v-20q-18 -2 -24 -17t-6 -30v-305q0 -17 -7.5 -23.5t-15.5 -6.5h-52v20h55v315q0 5 2.5 23.5t18.5 32.5q-8 7 -12 15.5t-6 17t-2.5 14.5t-0.5 9v304h-55z" />
    <glyph glyph-name="asciitilde" unicode="~" horiz-adv-x="462" 
d="M70 251q0 1 4.5 14t15 28t26 27t38.5 12q20 0 38.5 -9.5t36.5 -21t36 -21t38 -9.5q18 0 31 7.5t22 17.5t13 18.5t4 10.5l20 -1q-8 -21 -20 -37q-11 -14 -27.5 -25t-42.5 -11q-24 0 -44 9.5t-38 21t-34.5 21t-32.5 9.5q-15 0 -27 -9.5t-20.5 -20.5t-12.5 -20.5t-4 -10.5
h-20v0z" />
    <glyph glyph-name="uni00A0" unicode="&#xa0;" horiz-adv-x="261" 
 />
    <glyph glyph-name="exclamdown" unicode="&#xa1;" horiz-adv-x="228" 
d="M124 517v-517h-20v517h20zM124 717v-84h-20v84h20z" />
    <glyph glyph-name="cent" unicode="&#xa2;" horiz-adv-x="541" 
d="M276 -120v111q-51 4 -93 28.5t-72.5 61.5t-47.5 83t-17 94q0 51 17 98t47 84.5t72.5 60.5t93.5 26v118h20v-118q78 -2 123.5 -34t70.5 -82l-19 -7q-29 52 -74 76.5t-101 26.5v-497q24 0 53.5 7.5t55.5 22t46.5 34.5t26.5 45l20 -6q-10 -30 -32 -53t-50.5 -38.5t-60 -23.5
t-59.5 -8v-110h-20zM66 258q0 -46 16 -89t44.5 -76.5t66.5 -55.5t83 -26v496q-50 -3 -89 -26t-66 -58t-41 -78.5t-14 -86.5z" />
    <glyph glyph-name="sterling" unicode="&#xa3;" horiz-adv-x="467" 
d="M48 366h109q-12 23 -26 45t-25.5 44t-19 45t-7.5 50q0 34 13 64t35 52.5t52 35.5t63 13q50 0 93 -28.5t69 -76.5l-17 -12q-24 45 -63 71t-84 26q-29 0 -54 -11t-44 -30.5t-30 -45.5t-11 -56q0 -26 8 -48.5t20 -45t26 -45t26 -47.5h173v-20h-164q10 -23 16.5 -49t6.5 -55
q0 -27 -6 -52t-20 -51t-36.5 -55.5t-55.5 -65.5q17 3 35 5t36 2q23 0 42 -3t36 -7t34 -7t36 -3q21 0 44.5 5t54.5 16l6 -19q-54 -22 -106 -22q-22 0 -40 3t-35.5 7t-36.5 7t-41 3t-47.5 -3.5t-46.5 -8.5l-10 17q40 43 66.5 75t42 58t21.5 49t6 49q0 30 -7 56t-18 49h-119v20
z" />
    <glyph glyph-name="currency" unicode="&#xa4;" horiz-adv-x="533" 
d="M146 467q23 23 53.5 35.5t65.5 12.5q36 0 67.5 -13.5t54.5 -36.5l70 69l15 -14l-71 -70q19 -24 30 -53.5t11 -61.5t-11.5 -62t-31.5 -54l73 -71l-15 -14l-72 71q-24 -23 -54.5 -35.5t-65.5 -12.5t-64.5 12t-52.5 33l-69 -68l-15 14l70 69q-44 50 -44 118q0 33 11 63
t31 54l-68 68l15 14zM111 334q0 -33 12 -62t33 -50.5t49 -34t60 -12.5t60.5 13t49.5 35t33.5 51t12.5 62t-12.5 62.5t-33.5 51t-49.5 34t-60.5 12.5q-31 0 -59 -12.5t-49 -34.5t-33.5 -51.5t-12.5 -63.5z" />
    <glyph glyph-name="yen" unicode="&#xa5;" horiz-adv-x="651" 
d="M379 341h93v-20h-106l-31 -46v-24h137v-20h-137v-231h-20v231h-136v20h136v26l-29 44h-107v20h94l-245 369h23l274 -412l275 412h23z" />
    <glyph glyph-name="brokenbar" unicode="&#xa6;" horiz-adv-x="214" 
d="M117 285v-415h-20v415h20zM117 775v-415h-20v415h20z" />
    <glyph glyph-name="section" unicode="&#xa7;" horiz-adv-x="481" 
d="M385 181q29 -16 41.5 -42.5t12.5 -64.5q0 -39 -17 -69.5t-44 -51t-60 -31t-65 -10.5q-65 0 -109 24t-78 58l15 13q41 -38 81.5 -56.5t90.5 -18.5q30 0 59.5 9.5t53 28t38.5 45t15 59.5q0 36 -14.5 58.5t-37 35t-51.5 17t-57 5.5q-37 1 -71 10t-59.5 27t-40.5 46.5
t-15 67.5q0 26 9 52t23 42q-27 17 -43 49t-16 73q0 38 17 67.5t43.5 49.5t59 30.5t64.5 10.5q66 0 103 -19.5t62 -55.5l-18 -8q-10 19 -27 31.5t-37 19.5t-42 9.5t-41 2.5q-29 0 -58.5 -9.5t-53 -27.5t-38 -43.5t-14.5 -57.5q0 -36 12.5 -61t34.5 -40.5t52.5 -22.5t66.5 -7
q35 0 69 -8t61 -25.5t43.5 -45.5t16.5 -67q0 -29 -10 -55.5t-27 -43.5zM93 341q0 -40 14 -64.5t37.5 -38.5t52.5 -20t59.5 -9.5t59 -7t49.5 -11.5q17 14 27 39t10 51q0 36 -16 60.5t-41 39t-55 20.5t-58 6q-29 0 -57 4.5t-51 14.5q-14 -14 -22.5 -37t-8.5 -47z" />
    <glyph glyph-name="dieresis" unicode="&#xa8;" horiz-adv-x="236" 
d="M50 653v77h20v-77h-20zM166 653v77h20v-77h-20z" />
    <glyph glyph-name="copyright" unicode="&#xa9;" horiz-adv-x="824" 
d="M412 -7q-78 0 -144 27.5t-114 76t-75.5 114.5t-27.5 144q0 77 27.5 143t75.5 114t114 75.5t144 27.5t144 -27.5t114 -75.5t75.5 -114t27.5 -143q0 -78 -27.5 -144t-75.5 -114.5t-114 -76t-144 -27.5zM413 13q72 0 133.5 24.5t107.5 69.5t72 107.5t26 137.5
q0 74 -25.5 137t-71 108.5t-107.5 71.5t-135 26q-74 0 -136 -25.5t-108 -71.5t-71.5 -108.5t-25.5 -135.5t25.5 -135.5t71 -108t108 -71.5t136.5 -26zM419 127q-38 0 -77 15t-70.5 44.5t-51.5 72t-20 96.5q0 40 12.5 81t38 74.5t65.5 54.5t95 21q56 0 103 -24t67 -75l-19 -7
q-12 27 -30.5 44t-40 26.5t-43 12.5t-37.5 3q-50 0 -86 -19.5t-59 -50t-34.5 -68t-11.5 -73.5q0 -50 18.5 -88.5t47 -65t63 -40.5t66.5 -14q22 0 45.5 6.5t45.5 18t39.5 28.5t26.5 38l19 -5q-4 -13 -18 -31.5t-36.5 -35t-52.5 -28t-65 -11.5z" />
    <glyph glyph-name="ordfeminine" unicode="&#xaa;" horiz-adv-x="425" 
d="M170 351q-25 0 -46.5 8.5t-37.5 22.5t-25 33.5t-9 42.5q0 22 11 41t31 32.5t47 21t60 7.5q30 0 60.5 -5t54.5 -14v35q0 49 -30 78.5t-81 29.5q-54 0 -116 -41l-13 20q70 46 131 46q65 0 102.5 -36t37.5 -100v-171q0 -16 14 -16v-29q-13 0 -18 1q-23 5 -23 29l-1 29
q-25 -31 -64.5 -48t-84.5 -17zM176 377q42 0 76.5 14.5t52.5 38.5q11 14 11 27v61q-26 11 -54 15t-57 4q-55 0 -89 -21t-34 -57q0 -35 27 -58.5t67 -23.5z" />
    <glyph glyph-name="guillemotleft" unicode="&#xab;" horiz-adv-x="518" 
d="M42 268l237 169v-22l-218 -156l218 -157v-22l-237 170v18zM212 268l237 169v-22l-218 -156l218 -157v-22l-237 170v18z" />
    <glyph glyph-name="logicalnot" unicode="&#xac;" horiz-adv-x="561" 
d="M490 338v-198h-20v178h-383v20h403z" />
    <glyph glyph-name="uni00AD" unicode="&#xad;" horiz-adv-x="541" 
d="M69 261v20h403v-20h-403z" />
    <glyph glyph-name="registered" unicode="&#xae;" horiz-adv-x="824" 
d="M412 -7q-78 0 -144 27.5t-114 76t-75.5 114.5t-27.5 144q0 77 27.5 143t75.5 114t114 75.5t144 27.5t144 -27.5t114 -75.5t75.5 -114t27.5 -143q0 -78 -27.5 -144t-75.5 -114.5t-114 -76t-144 -27.5zM412 13q72 0 134 24.5t108 69.5t72 108t26 140q0 73 -25.5 135
t-71 107.5t-108 71.5t-135.5 26t-135.5 -26t-108 -71.5t-71 -107.5t-25.5 -135q0 -74 25.5 -136.5t71 -108t107.5 -71.5t136 -26zM267 583h188q28 0 52 -12t41.5 -32t27 -45t9.5 -51q0 -27 -8.5 -51.5t-24 -43.5t-37.5 -31t-48 -14l117 -182h-24l-116 182h-156v-182h-21v462
zM460 323q26 0 45.5 9.5t33 26t20 38.5t6.5 46t-8 46t-22.5 38t-35 25.5t-44.5 9.5h-167v-239h172z" />
    <glyph glyph-name="macron" unicode="&#xaf;" horiz-adv-x="380" 
d="M50 686v20h280v-20h-280z" />
    <glyph glyph-name="degree" unicode="&#xb0;" horiz-adv-x="252" 
d="M57 655q0 29 20 49t49 20t49 -20t20 -49t-20 -49t-49 -20t-49 20t-20 49zM91 690q-14 -14 -14 -35q0 -22 14 -34q15 -15 35 -15t35 15q14 14 14 34q0 11 -4 19.5t-10 15.5q-14 14 -35 14t-35 -14z" />
    <glyph glyph-name="plusminus" unicode="&#xb1;" horiz-adv-x="470" 
d="M85 85v20h300v-20h-300zM385 365v-20h-140v-150h-20v150h-140v20h140v150h20v-150h140z" />
    <glyph glyph-name="twosuperior" unicode="&#xb2;" horiz-adv-x="369" 
d="M40 423q0 74 33 113t90 60q22 8 47 16t45.5 19.5t34 28.5t13.5 43q0 17 -7 33t-21 28.5t-35 20t-50 7.5q-27 0 -48.5 -6.5t-37.5 -15.5t-27 -19.5t-17 -18.5l-15 12q1 2 10.5 12.5t27.5 22.5t45.5 22t63.5 10q34 0 58.5 -9t41 -24t24.5 -35t8 -41q0 -30 -15 -49.5
t-37 -32.5t-47.5 -21.5l-46.5 -15.5q-39 -14 -62 -32t-34 -37t-14 -38t-3 -34h260v-19h-285z" />
    <glyph glyph-name="threesuperior" unicode="&#xb3;" horiz-adv-x="380" 
d="M190 418q-31 0 -57.5 7t-46.5 20t-32 30.5t-13 38.5l16 7q1 -17 11.5 -32t28.5 -26.5t42 -18.5t51 -7t50 6.5t40.5 17.5t27 27t9.5 34q0 40 -41 63.5t-108 23.5h-22v18h22q66 0 101 19.5t35 57.5q0 39 -34.5 64t-87.5 25q-42 0 -74 -17t-45 -43l-15 12q15 30 51.5 48
t82.5 18q31 0 57 -8t45 -22.5t30 -34t11 -41.5q0 -67 -89 -87q46 -8 73.5 -34.5t27.5 -63.5q0 -22 -11.5 -41t-31.5 -32.5t-46.5 -21t-57.5 -7.5z" />
    <glyph glyph-name="acute" unicode="&#xb4;" horiz-adv-x="198" 
d="M66 645l-16 12l64 73h34z" />
    <glyph glyph-name="mu" unicode="&#xb5;" horiz-adv-x="602" 
d="M91 519h20v-291q0 -218 147 -218q37 0 73 13.5t66 37t52.5 56.5t34.5 72v330h20v-479q0 -20 16 -20v-20q-11 0 -14 2q-10 4 -16 14.5t-6 23.5v92q-34 -66 -95 -104t-131 -38q-109 0 -147 104v-306h-20v731z" />
    <glyph glyph-name="paragraph" unicode="&#xb6;" horiz-adv-x="565" 
d="M32 479q0 54 19 96.5t55.5 72.5t89 46t118.5 16h201v-20h-70v-770h-20v328h-91v-328h-20v328q-66 1 -118 17t-88.5 45.5t-56 72t-19.5 96.5zM52 479q0 -55 21 -94t57 -64.5t83.5 -38t100.5 -14.5v422q-128 0 -195 -55.5t-67 -155.5zM425 690h-91v-422h91v422z" />
    <glyph glyph-name="periodcentered" unicode="&#xb7;" horiz-adv-x="158" 
d="M69 250v83h20v-83h-20z" />
    <glyph glyph-name="cedilla" unicode="&#xb8;" horiz-adv-x="252" 
d="M33 -125q15 -7 38 -12.5t49 -5.5q58 0 58 38q0 21 -13.5 29.5t-34.5 8.5t-44 -5.5t-37 -10.5l54 94l18 -11l-33 -57q10 4 22 5t20 1q68 0 68 -54q0 -30 -21.5 -43.5t-59.5 -13.5q-26 0 -50.5 5.5t-43.5 13.5z" />
    <glyph glyph-name="onesuperior" unicode="&#xb9;" horiz-adv-x="252" 
d="M230 441v-19h-181v19h83v344q-5 -6 -16.5 -14.5t-25 -15.5t-28.5 -12t-27 -5v19q16 0 33 8t31 18t23 18.5t10 9.5h20v-370h78z" />
    <glyph glyph-name="ordmasculine" unicode="&#xba;" horiz-adv-x="450" 
d="M224 351q-37 0 -69 14.5t-55.5 39t-37 56.5t-13.5 68q0 37 13.5 69.5t37 57t55.5 39t69 14.5t69.5 -14.5t56.5 -39t37.5 -57t13.5 -69.5q0 -36 -13.5 -68t-37.5 -56.5t-56.5 -39t-69.5 -14.5zM71 528q0 -33 12 -61.5t33 -50t48.5 -34t59.5 -12.5t60 13t49 34.5t33.5 50.5
t12.5 62t-12.5 62t-33.5 50.5t-49 34t-60 12.5q-31 0 -59 -12.5t-49 -34.5t-33 -51.5t-12 -62.5z" />
    <glyph glyph-name="guillemotright" unicode="&#xbb;" horiz-adv-x="518" 
d="M476 250l-237 -170v22l218 157l-218 156v22l237 -169v-18zM306 250l-237 -170v22l218 157l-218 156v22l237 -169v-18z" />
    <glyph glyph-name="onequarter" unicode="&#xbc;" horiz-adv-x="745" 
d="M98 11l558 700l16 -12l-558 -700zM241 361v-19h-181v19h83v344q-5 -6 -16.5 -14.5t-25 -15.5t-28.5 -12t-27 -5v19q16 0 33 8t31 18t23 18.5t10 9.5h20v-370h78zM634 0v110h-233v17l239 256h14v-254h55v-19h-55v-110h-20zM429 129h205v219z" />
    <glyph glyph-name="onehalf" unicode="&#xbd;" horiz-adv-x="796" 
d="M71 11l558 700l16 -12l-558 -700zM245 361v-19h-181v19h83v344q-5 -6 -16.5 -14.5t-25 -15.5t-28.5 -12t-27 -5v19q16 0 33 8t31 18t23 18.5t10 9.5h20v-370h78zM467 0q0 74 33 113t90 60q22 8 47 16t45.5 19.5t34 28.5t13.5 43q0 17 -7 33t-21 28.5t-35 20t-50 7.5
q-27 0 -48.5 -6.5t-37.5 -15.5t-27 -19.5t-17 -18.5l-15 12q1 2 10.5 12.5t27.5 22.5t45.5 22t63.5 10q34 0 58.5 -9t41 -24t24.5 -35t8 -41q0 -30 -15 -49.5t-37 -32.5t-47.5 -21.5l-46.5 -15.5q-39 -14 -62 -32t-34 -37t-14 -38t-3 -34h260v-19h-285z" />
    <glyph glyph-name="threequarters" unicode="&#xbe;" horiz-adv-x="766" 
d="M137 11l558 700l16 -12l-558 -700zM649 0v110h-233v17l239 256h14v-254h55v-19h-55v-110h-20zM444 129h205v219zM194 338q-31 0 -57.5 7t-46.5 20t-32 30.5t-13 38.5l16 7q1 -17 11.5 -32t28.5 -26.5t42 -18.5t51 -7t50 6.5t40.5 17.5t27 27t9.5 34q0 40 -41 63.5
t-108 23.5h-22v18h22q66 0 101 19.5t35 57.5q0 39 -34.5 64t-87.5 25q-42 0 -74 -17t-45 -43l-15 12q15 30 51.5 48t82.5 18q31 0 57 -8t45 -22.5t30 -34t11 -41.5q0 -67 -89 -87q46 -8 73.5 -34.5t27.5 -63.5q0 -22 -11.5 -41t-31.5 -32.5t-46.5 -21t-57.5 -7.5z" />
    <glyph glyph-name="questiondown" unicode="&#xbf;" horiz-adv-x="461" 
d="M286 327q0 -48 -6.5 -79.5t-18 -52.5t-27.5 -33.5t-34 -21.5q-24 -12 -49.5 -24t-47 -30t-35.5 -45t-14 -70t14 -74t37.5 -51t53 -29.5t61.5 -9.5q30 0 59 8t54 23.5t45 37t33 48.5l18 -8q-14 -31 -36.5 -55t-50.5 -40.5t-59 -25t-62 -8.5q-36 0 -70 12t-60 35.5
t-41.5 58.5t-15.5 81q0 45 14.5 74.5t37.5 49t51 33t55 28.5q16 9 29.5 19.5t23.5 29t15.5 47t5.5 72.5h20zM286 506v-84h-20v84h20z" />
    <glyph glyph-name="Agrave" unicode="&#xc0;" horiz-adv-x="674" 
d="M328 710h18l309 -710h-22l-111 254h-371l-111 -254h-22zM513 274l-176 407l-178 -407h354zM269 918h33l65 -73l-16 -12z" />
    <glyph glyph-name="Aacute" unicode="&#xc1;" horiz-adv-x="674" 
d="M328 710h18l309 -710h-22l-111 254h-371l-111 -254h-22zM513 274l-176 407l-178 -407h354zM323 833l-16 12l64 73h34z" />
    <glyph glyph-name="Acircumflex" unicode="&#xc2;" horiz-adv-x="674" 
d="M328 710h18l309 -710h-22l-111 254h-371l-111 -254h-22zM513 274l-176 407l-178 -407h354zM236 844l93 74h16l93 -74l-16 -12l-85 63l-85 -63z" />
    <glyph glyph-name="Atilde" unicode="&#xc3;" horiz-adv-x="674" 
d="M328 710h18l309 -710h-22l-111 254h-371l-111 -254h-22zM513 274l-176 407l-178 -407h354zM398 851q-22 0 -38.5 6t-30.5 13t-27.5 13t-28.5 6q-16 0 -26 -6.5t-15.5 -15t-7.5 -16.5t-2 -10h-20q0 2 2 13t9.5 23t22 21.5t39.5 9.5q19 0 34 -6t29 -13t28.5 -13t33.5 -6
q21 0 32.5 7t17.5 15.5t7.5 16t1.5 9.5h20q0 -3 -2.5 -14t-10.5 -23t-24.5 -21t-43.5 -9z" />
    <glyph glyph-name="Adieresis" unicode="&#xc4;" horiz-adv-x="674" 
d="M328 710h18l309 -710h-22l-111 254h-371l-111 -254h-22zM513 274l-176 407l-178 -407h354zM269 841v77h20v-77h-20zM385 841v77h20v-77h-20z" />
    <glyph glyph-name="Aring" unicode="&#xc5;" horiz-adv-x="674" 
d="M328 710h18l309 -710h-22l-111 254h-371l-111 -254h-22zM513 274l-176 407l-178 -407h354zM280 861q0 24 16.5 40.5t40.5 16.5t40.5 -16.5t16.5 -40.5t-16.5 -40.5t-40.5 -16.5t-40.5 16.5t-16.5 40.5zM337 902q-17 0 -29 -11t-12 -30q0 -17 12 -29t29 -12q15 0 28 11.5
t13 29.5q0 19 -12 30t-29 11z" />
    <glyph glyph-name="AE" unicode="&#xc6;" horiz-adv-x="962" 
d="M439 710h462v-20h-437v-317h383v-20h-383v-333h446v-20h-466v254h-281l-167 -254h-25zM444 274v404l-269 -404h269z" />
    <glyph glyph-name="Ccedilla" unicode="&#xc7;" horiz-adv-x="693" 
d="M306 -125q15 -7 38 -12.5t49 -5.5q58 0 58 38q0 21 -13.5 29.5t-34.5 8.5t-44 -5.5t-37 -10.5l44 78q-71 1 -130 33.5t-102 84t-66.5 116t-23.5 131.5q0 64 22.5 127t65 113.5t105 82t142.5 31.5q95 0 161 -43.5t98 -111.5l-19 -6q-21 39 -48.5 66t-60 43.5t-67 24
t-68.5 7.5q-74 0 -132 -29.5t-98 -77.5t-60.5 -108.5t-20.5 -121.5q0 -68 24.5 -130t67 -109.5t99.5 -75.5t123 -28q35 0 72 9t71.5 27t64 46.5t50.5 67.5l19 -5q-18 -38 -46.5 -68t-64 -50.5t-75 -32t-78.5 -13.5l-30 -52q10 4 22 5t20 1q68 0 68 -54q0 -30 -21.5 -43.5
t-59.5 -13.5q-26 0 -50.5 5.5t-43.5 13.5z" />
    <glyph glyph-name="Egrave" unicode="&#xc8;" horiz-adv-x="617" 
d="M565 20v-20h-466v710h457v-20h-437v-317h383v-20h-383v-333h446zM276 918h33l65 -73l-16 -12z" />
    <glyph glyph-name="Eacute" unicode="&#xc9;" horiz-adv-x="617" 
d="M565 20v-20h-466v710h457v-20h-437v-317h383v-20h-383v-333h446zM330 833l-16 12l64 73h34z" />
    <glyph glyph-name="Ecircumflex" unicode="&#xca;" horiz-adv-x="617" 
d="M565 20v-20h-466v710h457v-20h-437v-317h383v-20h-383v-333h446zM243 844l93 74h16l93 -74l-16 -12l-85 63l-85 -63z" />
    <glyph glyph-name="Edieresis" unicode="&#xcb;" horiz-adv-x="617" 
d="M565 20v-20h-466v710h457v-20h-437v-317h383v-20h-383v-333h446zM276 841v77h20v-77h-20zM392 841v77h20v-77h-20z" />
    <glyph glyph-name="Igrave" unicode="&#xcc;" horiz-adv-x="218" 
d="M99 0v710h20v-710h-20zM41 918h33l65 -73l-16 -12z" />
    <glyph glyph-name="Iacute" unicode="&#xcd;" horiz-adv-x="218" 
d="M99 0v710h20v-710h-20zM95 833l-16 12l64 73h34z" />
    <glyph glyph-name="Icircumflex" unicode="&#xce;" horiz-adv-x="218" 
d="M99 0v710h20v-710h-20zM8 844l93 74h16l93 -74l-16 -12l-85 63l-85 -63z" />
    <glyph glyph-name="Idieresis" unicode="&#xcf;" horiz-adv-x="218" 
d="M99 0v710h20v-710h-20zM41 841v77h20v-77h-20zM157 841v77h20v-77h-20z" />
    <glyph glyph-name="Eth" unicode="&#xd0;" horiz-adv-x="718" 
d="M106 0v347h-71v20h71v343h228q84 0 146.5 -28t104 -76t62 -112.5t20.5 -137.5q0 -81 -23.5 -146.5t-66.5 -112t-105 -72t-138 -25.5h-228zM647 356q0 73 -20.5 134t-60.5 105.5t-98.5 69.5t-133.5 25h-208v-323h192v-20h-192v-327h208q77 0 135.5 25.5t98 70.5
t59.5 106.5t20 133.5z" />
    <glyph glyph-name="Ntilde" unicode="&#xd1;" horiz-adv-x="776" 
d="M119 671v-671h-20v710h15l543 -681v681h20v-710h-23zM454 851q-22 0 -38.5 6t-30.5 13t-27.5 13t-28.5 6q-16 0 -26 -6.5t-15.5 -15t-7.5 -16.5t-2 -10h-20q0 2 2 13t9.5 23t22 21.5t39.5 9.5q19 0 34 -6t29 -13t28.5 -13t33.5 -6q21 0 32.5 7t17.5 15.5t7.5 16t1.5 9.5
h20q0 -3 -2.5 -14t-10.5 -23t-24.5 -21t-43.5 -9z" />
    <glyph glyph-name="Ograve" unicode="&#xd2;" horiz-adv-x="757" 
d="M379 -5q-74 0 -134.5 31t-104.5 81t-68 115t-24 133q0 71 25.5 136t70 115t105 79.5t130.5 29.5q73 0 134 -31.5t104.5 -82.5t67.5 -115.5t24 -130.5q0 -72 -25.5 -137t-70 -114.5t-104.5 -79t-130 -29.5zM68 355q0 -66 23.5 -127.5t64.5 -109t98 -75.5t125 -28
q69 0 126.5 29.5t98 77.5t63 109t22.5 124q0 66 -23.5 127.5t-65.5 109t-98.5 75.5t-122.5 28q-69 0 -126.5 -29.5t-98.5 -77.5t-63.5 -109t-22.5 -124zM311 918h33l65 -73l-16 -12z" />
    <glyph glyph-name="Oacute" unicode="&#xd3;" horiz-adv-x="757" 
d="M379 -5q-74 0 -134.5 31t-104.5 81t-68 115t-24 133q0 71 25.5 136t70 115t105 79.5t130.5 29.5q73 0 134 -31.5t104.5 -82.5t67.5 -115.5t24 -130.5q0 -72 -25.5 -137t-70 -114.5t-104.5 -79t-130 -29.5zM68 355q0 -66 23.5 -127.5t64.5 -109t98 -75.5t125 -28
q69 0 126.5 29.5t98 77.5t63 109t22.5 124q0 66 -23.5 127.5t-65.5 109t-98.5 75.5t-122.5 28q-69 0 -126.5 -29.5t-98.5 -77.5t-63.5 -109t-22.5 -124zM365 833l-16 12l64 73h34z" />
    <glyph glyph-name="Ocircumflex" unicode="&#xd4;" horiz-adv-x="757" 
d="M379 -5q-74 0 -134.5 31t-104.5 81t-68 115t-24 133q0 71 25.5 136t70 115t105 79.5t130.5 29.5q73 0 134 -31.5t104.5 -82.5t67.5 -115.5t24 -130.5q0 -72 -25.5 -137t-70 -114.5t-104.5 -79t-130 -29.5zM68 355q0 -66 23.5 -127.5t64.5 -109t98 -75.5t125 -28
q69 0 126.5 29.5t98 77.5t63 109t22.5 124q0 66 -23.5 127.5t-65.5 109t-98.5 75.5t-122.5 28q-69 0 -126.5 -29.5t-98.5 -77.5t-63.5 -109t-22.5 -124zM278 844l93 74h16l93 -74l-16 -12l-85 63l-85 -63z" />
    <glyph glyph-name="Otilde" unicode="&#xd5;" horiz-adv-x="757" 
d="M379 -5q-74 0 -134.5 31t-104.5 81t-68 115t-24 133q0 71 25.5 136t70 115t105 79.5t130.5 29.5q73 0 134 -31.5t104.5 -82.5t67.5 -115.5t24 -130.5q0 -72 -25.5 -137t-70 -114.5t-104.5 -79t-130 -29.5zM68 355q0 -66 23.5 -127.5t64.5 -109t98 -75.5t125 -28
q69 0 126.5 29.5t98 77.5t63 109t22.5 124q0 66 -23.5 127.5t-65.5 109t-98.5 75.5t-122.5 28q-69 0 -126.5 -29.5t-98.5 -77.5t-63.5 -109t-22.5 -124zM440 851q-22 0 -38.5 6t-30.5 13t-27.5 13t-28.5 6q-16 0 -26 -6.5t-15.5 -15t-7.5 -16.5t-2 -10h-20q0 2 2 13t9.5 23
t22 21.5t39.5 9.5q19 0 34 -6t29 -13t28.5 -13t33.5 -6q21 0 32.5 7t17.5 15.5t7.5 16t1.5 9.5h20q0 -3 -2.5 -14t-10.5 -23t-24.5 -21t-43.5 -9z" />
    <glyph glyph-name="Odieresis" unicode="&#xd6;" horiz-adv-x="757" 
d="M379 -5q-74 0 -134.5 31t-104.5 81t-68 115t-24 133q0 71 25.5 136t70 115t105 79.5t130.5 29.5q73 0 134 -31.5t104.5 -82.5t67.5 -115.5t24 -130.5q0 -72 -25.5 -137t-70 -114.5t-104.5 -79t-130 -29.5zM68 355q0 -66 23.5 -127.5t64.5 -109t98 -75.5t125 -28
q69 0 126.5 29.5t98 77.5t63 109t22.5 124q0 66 -23.5 127.5t-65.5 109t-98.5 75.5t-122.5 28q-69 0 -126.5 -29.5t-98.5 -77.5t-63.5 -109t-22.5 -124zM311 841v77h20v-77h-20zM427 841v77h20v-77h-20z" />
    <glyph glyph-name="multiply" unicode="&#xd7;" horiz-adv-x="440" 
d="M370 135l-15 -14l-135 135l-135 -135l-14 15l134 134l-135 136l15 14l135 -135l136 136l14 -15l-136 -136z" />
    <glyph glyph-name="Oslash" unicode="&#xd8;" horiz-adv-x="757" 
d="M619 710l-43 -68q31 -26 55.5 -59t42 -70t26.5 -77.5t9 -80.5q0 -72 -25.5 -137t-70 -114.5t-104.5 -79t-130 -29.5q-52 1 -97.5 16.5t-83.5 42.5l-35 -54h-25l43 67q-63 51 -98 127.5t-35 160.5q0 71 25.5 136t70 115t105 79.5t130.5 29.5q51 0 96 -15.5t83 -43.5l35 54
h26zM689 355q0 79 -33.5 150.5t-90.5 119.5l-357 -554q36 -26 79 -41t92 -15q69 0 126.5 29.5t98 77.5t63 109t22.5 124zM68 355q0 -80 33 -151.5t90 -119.5l356 555q-36 26 -78 41t-90 15q-69 0 -126.5 -29.5t-98.5 -77.5t-63.5 -109t-22.5 -124z" />
    <glyph glyph-name="Ugrave" unicode="&#xd9;" horiz-adv-x="756" 
d="M378 15q80 0 132.5 30t83 78t43 109t12.5 123v355h20v-355q0 -71 -14.5 -136t-48.5 -114.5t-89.5 -79.5t-137.5 -30q-84 0 -140 31t-89.5 82t-47.5 115.5t-14 131.5v355h20v-355q0 -64 12.5 -125t43.5 -109t83 -77t131 -29zM311 918h33l65 -73l-16 -12z" />
    <glyph glyph-name="Uacute" unicode="&#xda;" horiz-adv-x="756" 
d="M378 15q80 0 132.5 30t83 78t43 109t12.5 123v355h20v-355q0 -71 -14.5 -136t-48.5 -114.5t-89.5 -79.5t-137.5 -30q-84 0 -140 31t-89.5 82t-47.5 115.5t-14 131.5v355h20v-355q0 -64 12.5 -125t43.5 -109t83 -77t131 -29zM365 833l-16 12l64 73h34z" />
    <glyph glyph-name="Ucircumflex" unicode="&#xdb;" horiz-adv-x="756" 
d="M378 15q80 0 132.5 30t83 78t43 109t12.5 123v355h20v-355q0 -71 -14.5 -136t-48.5 -114.5t-89.5 -79.5t-137.5 -30q-84 0 -140 31t-89.5 82t-47.5 115.5t-14 131.5v355h20v-355q0 -64 12.5 -125t43.5 -109t83 -77t131 -29zM278 844l93 74h16l93 -74l-16 -12l-85 63
l-85 -63z" />
    <glyph glyph-name="Udieresis" unicode="&#xdc;" horiz-adv-x="756" 
d="M378 15q80 0 132.5 30t83 78t43 109t12.5 123v355h20v-355q0 -71 -14.5 -136t-48.5 -114.5t-89.5 -79.5t-137.5 -30q-84 0 -140 31t-89.5 82t-47.5 115.5t-14 131.5v355h20v-355q0 -64 12.5 -125t43.5 -109t83 -77t131 -29zM311 841v77h20v-77h-20zM427 841v77h20v-77
h-20z" />
    <glyph glyph-name="Yacute" unicode="&#xdd;" horiz-adv-x="641" 
d="M46 710l274 -412l275 412h23l-288 -435v-275h-20v277l-287 433h23zM306 833l-16 12l64 73h34z" />
    <glyph glyph-name="Thorn" unicode="&#xde;" horiz-adv-x="599" 
d="M368 560q43 0 80 -18.5t63.5 -49t41.5 -69t15 -78.5q0 -42 -14 -81t-39.5 -69t-61 -48t-78.5 -18h-256v-129h-20v710h20v-150h249zM375 149q40 0 72.5 17t54.5 45t34 63t12 71q0 38 -14 73t-38.5 62t-57.5 43.5t-70 16.5h-249v-391h256z" />
    <glyph glyph-name="germandbls" unicode="&#xdf;" horiz-adv-x="546" 
d="M230 13q121 2 185.5 51t64.5 138q0 43 -15 78t-42 60t-64.5 39t-83.5 14h-17v20h16q33 0 61 10.5t49 29.5t32.5 44t11.5 55t-12.5 56t-34 45t-51 30t-63.5 11q-75 0 -119 -50t-44 -135v-509h-20v509q0 46 13.5 84t37.5 65t58 41.5t75 14.5q38 0 71 -12t57 -33t38 -50
t14 -62q0 -27 -9.5 -52.5t-25.5 -46.5t-38 -35t-47 -19q83 -17 127.5 -69.5t44.5 -131.5q0 -97 -69 -150.5t-201 -58.5v19z" />
    <glyph glyph-name="agrave" unicode="&#xe0;" horiz-adv-x="524" 
d="M207 -10q-35 0 -66 12.5t-53.5 34t-35.5 50.5t-13 62t15.5 60t44 46.5t68 30.5t86.5 11q45 0 91 -7.5t83 -21.5v59q0 40 -12 73.5t-34.5 57t-54 36.5t-69.5 13t-81 -16.5t-87 -47.5l-12 16q100 68 180 68q43 0 78.5 -14t60 -40t38 -63t13.5 -83v-287q0 -20 16 -20v-20
q-11 0 -14 2q-10 4 -16 14.5t-6 23.5v48q-36 -47 -94 -72.5t-126 -25.5zM207 10q67 0 122.5 25t82.5 67q15 21 15 41v103q-80 31 -174 31q-44 0 -79.5 -9t-61 -26t-39.5 -40.5t-14 -52.5t11.5 -54.5t31.5 -44.5t47 -29.5t58 -10.5zM189 730h33l65 -73l-16 -12z" />
    <glyph glyph-name="aacute" unicode="&#xe1;" horiz-adv-x="524" 
d="M207 -10q-35 0 -66 12.5t-53.5 34t-35.5 50.5t-13 62t15.5 60t44 46.5t68 30.5t86.5 11q45 0 91 -7.5t83 -21.5v59q0 40 -12 73.5t-34.5 57t-54 36.5t-69.5 13t-81 -16.5t-87 -47.5l-12 16q100 68 180 68q43 0 78.5 -14t60 -40t38 -63t13.5 -83v-287q0 -20 16 -20v-20
q-11 0 -14 2q-10 4 -16 14.5t-6 23.5v48q-36 -47 -94 -72.5t-126 -25.5zM207 10q67 0 122.5 25t82.5 67q15 21 15 41v103q-80 31 -174 31q-44 0 -79.5 -9t-61 -26t-39.5 -40.5t-14 -52.5t11.5 -54.5t31.5 -44.5t47 -29.5t58 -10.5zM243 645l-16 12l64 73h34z" />
    <glyph glyph-name="acircumflex" unicode="&#xe2;" horiz-adv-x="524" 
d="M207 -10q-35 0 -66 12.5t-53.5 34t-35.5 50.5t-13 62t15.5 60t44 46.5t68 30.5t86.5 11q45 0 91 -7.5t83 -21.5v59q0 40 -12 73.5t-34.5 57t-54 36.5t-69.5 13t-81 -16.5t-87 -47.5l-12 16q100 68 180 68q43 0 78.5 -14t60 -40t38 -63t13.5 -83v-287q0 -20 16 -20v-20
q-11 0 -14 2q-10 4 -16 14.5t-6 23.5v48q-36 -47 -94 -72.5t-126 -25.5zM207 10q67 0 122.5 25t82.5 67q15 21 15 41v103q-80 31 -174 31q-44 0 -79.5 -9t-61 -26t-39.5 -40.5t-14 -52.5t11.5 -54.5t31.5 -44.5t47 -29.5t58 -10.5zM156 656l93 74h16l93 -74l-16 -12l-85 63
l-85 -63z" />
    <glyph glyph-name="atilde" unicode="&#xe3;" horiz-adv-x="524" 
d="M207 -10q-35 0 -66 12.5t-53.5 34t-35.5 50.5t-13 62t15.5 60t44 46.5t68 30.5t86.5 11q45 0 91 -7.5t83 -21.5v59q0 40 -12 73.5t-34.5 57t-54 36.5t-69.5 13t-81 -16.5t-87 -47.5l-12 16q100 68 180 68q43 0 78.5 -14t60 -40t38 -63t13.5 -83v-287q0 -20 16 -20v-20
q-11 0 -14 2q-10 4 -16 14.5t-6 23.5v48q-36 -47 -94 -72.5t-126 -25.5zM207 10q67 0 122.5 25t82.5 67q15 21 15 41v103q-80 31 -174 31q-44 0 -79.5 -9t-61 -26t-39.5 -40.5t-14 -52.5t11.5 -54.5t31.5 -44.5t47 -29.5t58 -10.5zM318 663q-22 0 -38.5 6t-30.5 13t-27.5 13
t-28.5 6q-16 0 -26 -6.5t-15.5 -15t-7.5 -16.5t-2 -10h-20q0 2 2 13t9.5 23t22 21.5t39.5 9.5q19 0 34 -6t29 -13t28.5 -13t33.5 -6q21 0 32.5 7t17.5 15.5t7.5 16t1.5 9.5h20q0 -3 -2.5 -14t-10.5 -23t-24.5 -21t-43.5 -9z" />
    <glyph glyph-name="adieresis" unicode="&#xe4;" horiz-adv-x="524" 
d="M207 -10q-35 0 -66 12.5t-53.5 34t-35.5 50.5t-13 62t15.5 60t44 46.5t68 30.5t86.5 11q45 0 91 -7.5t83 -21.5v59q0 40 -12 73.5t-34.5 57t-54 36.5t-69.5 13t-81 -16.5t-87 -47.5l-12 16q100 68 180 68q43 0 78.5 -14t60 -40t38 -63t13.5 -83v-287q0 -20 16 -20v-20
q-11 0 -14 2q-10 4 -16 14.5t-6 23.5v48q-36 -47 -94 -72.5t-126 -25.5zM207 10q67 0 122.5 25t82.5 67q15 21 15 41v103q-80 31 -174 31q-44 0 -79.5 -9t-61 -26t-39.5 -40.5t-14 -52.5t11.5 -54.5t31.5 -44.5t47 -29.5t58 -10.5zM189 653v77h20v-77h-20zM305 653v77h20
v-77h-20z" />
    <glyph glyph-name="aring" unicode="&#xe5;" horiz-adv-x="524" 
d="M207 -10q-35 0 -66 12.5t-53.5 34t-35.5 50.5t-13 62t15.5 60t44 46.5t68 30.5t86.5 11q45 0 91 -7.5t83 -21.5v59q0 40 -12 73.5t-34.5 57t-54 36.5t-69.5 13t-81 -16.5t-87 -47.5l-12 16q100 68 180 68q43 0 78.5 -14t60 -40t38 -63t13.5 -83v-287q0 -20 16 -20v-20
q-11 0 -14 2q-10 4 -16 14.5t-6 23.5v48q-36 -47 -94 -72.5t-126 -25.5zM207 10q67 0 122.5 25t82.5 67q15 21 15 41v103q-80 31 -174 31q-44 0 -79.5 -9t-61 -26t-39.5 -40.5t-14 -52.5t11.5 -54.5t31.5 -44.5t47 -29.5t58 -10.5zM200 673q0 24 16.5 40.5t40.5 16.5
t40.5 -16.5t16.5 -40.5t-16.5 -40.5t-40.5 -16.5t-40.5 16.5t-16.5 40.5zM257 714q-17 0 -29 -11t-12 -30q0 -17 12 -29t29 -12q15 0 28 11.5t13 29.5q0 19 -12 30t-29 11z" />
    <glyph glyph-name="ae" unicode="&#xe6;" horiz-adv-x="928" 
d="M207 -10q-35 0 -66 12.5t-53.5 34t-35.5 50.5t-13 62t15.5 60t44 46.5t68 30.5t86.5 11q36 0 74 -5.5t71 -14.5q3 51 23 99q-13 60 -56.5 95.5t-107.5 35.5q-38 0 -81 -16.5t-87 -47.5l-12 16q100 68 180 68q67 0 113 -32.5t65 -91.5q32 56 87 90t121 34q52 0 97.5 -21
t79 -57t53.5 -85t20 -105v-11h-475q4 -50 23.5 -93.5t50.5 -75.5t71.5 -50.5t85.5 -18.5q30 0 58.5 8t53.5 22.5t44 34.5t30 44l19 -5q-11 -27 -31.5 -49.5t-48 -39t-60 -26t-66.5 -9.5q-65 0 -119 33t-88 88q-16 -32 -42.5 -55t-58.5 -37.5t-66.5 -21.5t-66.5 -7zM207 10
q67 0 122.5 25t82.5 67q12 18 15 35q-28 55 -29 119q-69 21 -145 21q-44 0 -79.5 -9t-61 -26t-39.5 -40.5t-14 -52.5t11.5 -54.5t31.5 -44.5t47 -29.5t58 -10.5zM872 268q-3 52 -22 96t-49.5 75.5t-70.5 49.5t-86 18t-86 -18t-70.5 -50t-48.5 -76t-21 -95h454z" />
    <glyph glyph-name="ccedilla" unicode="&#xe7;" horiz-adv-x="538" 
d="M46 262q0 56 19 104.5t53 84t79.5 56t98.5 20.5q66 0 117.5 -30.5t77.5 -85.5l-20 -7q-26 48 -73.5 75.5t-104.5 27.5q-48 0 -89 -19t-72 -52t-48.5 -78t-17.5 -96t18 -97t49.5 -80.5t72.5 -54.5t88 -20q30 0 60.5 9t56 24t43.5 35t24 41l20 -6q-9 -26 -28 -48t-45 -38.5
t-57.5 -26t-64.5 -10.5l-27 -47q10 4 22 5t20 1q68 0 68 -54q0 -30 -21.5 -43.5t-59.5 -13.5q-26 0 -50.5 5.5t-43.5 13.5l10 18q15 -7 38 -12.5t49 -5.5q58 0 58 38q0 21 -13.5 29.5t-34.5 8.5t-44 -5.5t-37 -10.5l42 74q-48 3 -90.5 26t-74 59.5t-50 84t-18.5 101.5z" />
    <glyph glyph-name="egrave" unicode="&#xe8;" 
d="M296 -10q-51 0 -96.5 21.5t-79.5 59t-54 87t-20 105.5q0 55 19 103t52.5 84t78 56.5t95.5 20.5q52 0 97.5 -21t79 -57t53.5 -85t20 -105v-11h-475q4 -50 23.5 -93.5t50.5 -75.5t71.5 -50.5t85.5 -18.5q30 0 58.5 8t53.5 22.5t44 34.5t30 44l19 -5q-11 -27 -31.5 -49.5
t-48 -39t-60 -26t-66.5 -9.5zM520 268q-3 52 -22 96t-49.5 75.5t-70.5 49.5t-86 18t-86 -18t-70.5 -50t-48.5 -76t-21 -95h454zM224 730h33l65 -73l-16 -12z" />
    <glyph glyph-name="eacute" unicode="&#xe9;" 
d="M296 -10q-51 0 -96.5 21.5t-79.5 59t-54 87t-20 105.5q0 55 19 103t52.5 84t78 56.5t95.5 20.5q52 0 97.5 -21t79 -57t53.5 -85t20 -105v-11h-475q4 -50 23.5 -93.5t50.5 -75.5t71.5 -50.5t85.5 -18.5q30 0 58.5 8t53.5 22.5t44 34.5t30 44l19 -5q-11 -27 -31.5 -49.5
t-48 -39t-60 -26t-66.5 -9.5zM520 268q-3 52 -22 96t-49.5 75.5t-70.5 49.5t-86 18t-86 -18t-70.5 -50t-48.5 -76t-21 -95h454zM278 645l-16 12l64 73h34z" />
    <glyph glyph-name="ecircumflex" unicode="&#xea;" 
d="M296 -10q-51 0 -96.5 21.5t-79.5 59t-54 87t-20 105.5q0 55 19 103t52.5 84t78 56.5t95.5 20.5q52 0 97.5 -21t79 -57t53.5 -85t20 -105v-11h-475q4 -50 23.5 -93.5t50.5 -75.5t71.5 -50.5t85.5 -18.5q30 0 58.5 8t53.5 22.5t44 34.5t30 44l19 -5q-11 -27 -31.5 -49.5
t-48 -39t-60 -26t-66.5 -9.5zM520 268q-3 52 -22 96t-49.5 75.5t-70.5 49.5t-86 18t-86 -18t-70.5 -50t-48.5 -76t-21 -95h454zM191 656l93 74h16l93 -74l-16 -12l-85 63l-85 -63z" />
    <glyph glyph-name="edieresis" unicode="&#xeb;" 
d="M296 -10q-51 0 -96.5 21.5t-79.5 59t-54 87t-20 105.5q0 55 19 103t52.5 84t78 56.5t95.5 20.5q52 0 97.5 -21t79 -57t53.5 -85t20 -105v-11h-475q4 -50 23.5 -93.5t50.5 -75.5t71.5 -50.5t85.5 -18.5q30 0 58.5 8t53.5 22.5t44 34.5t30 44l19 -5q-11 -27 -31.5 -49.5
t-48 -39t-60 -26t-66.5 -9.5zM520 268q-3 52 -22 96t-49.5 75.5t-70.5 49.5t-86 18t-86 -18t-70.5 -50t-48.5 -76t-21 -95h454zM224 653v77h20v-77h-20zM340 653v77h20v-77h-20z" />
    <glyph glyph-name="igrave" unicode="&#xec;" horiz-adv-x="188" 
d="M84 0v519h20v-519h-20zM26 730h33l65 -73l-16 -12z" />
    <glyph glyph-name="iacute" unicode="&#xed;" horiz-adv-x="188" 
d="M84 0v519h20v-519h-20zM80 645l-16 12l64 73h34z" />
    <glyph glyph-name="icircumflex" unicode="&#xee;" horiz-adv-x="188" 
d="M84 0v519h20v-519h-20zM-7 656l93 74h16l93 -74l-16 -12l-85 63l-85 -63z" />
    <glyph glyph-name="idieresis" unicode="&#xef;" horiz-adv-x="188" 
d="M84 0v519h20v-519h-20zM26 653v77h20v-77h-20zM142 653v77h20v-77h-20z" />
    <glyph glyph-name="eth" unicode="&#xf0;" horiz-adv-x="593" 
d="M471 699l-93 -61q54 -47 86 -94.5t49.5 -96.5t23 -99t5.5 -102t-19.5 -98.5t-53 -81.5t-78.5 -55.5t-96 -20.5t-96 19.5t-78.5 52.5t-53 77t-19.5 93t19.5 93.5t53.5 77.5t79 52.5t95 19.5q39 0 74.5 -10.5t65 -30t52 -46t35.5 -58.5q-4 36 -12.5 72.5t-26.5 74t-47 75.5
t-72 77l-124 -82l-10 14l120 79q-54 46 -130 90h29q66 -39 115 -81l97 64zM68 230q0 -45 18 -85t48.5 -70t71.5 -47.5t88 -17.5q46 0 87.5 19t73 51.5t49.5 75.5t18 91q0 42 -18 80t-49 66.5t-72.5 45t-87.5 16.5t-87.5 -18t-72.5 -49t-49 -71.5t-18 -86.5z" />
    <glyph glyph-name="ntilde" unicode="&#xf1;" horiz-adv-x="565" 
d="M487 0h-20v289q0 114 -31.5 166t-101.5 52q-38 0 -74.5 -13.5t-67.5 -37.5t-54 -57t-34 -71v-328h-20v519h20v-134q16 31 41 57.5t55 45t64 29t69 10.5q80 0 117 -57.5t37 -180.5v-289zM341 663q-22 0 -38.5 6t-30.5 13t-27.5 13t-28.5 6q-16 0 -26 -6.5t-15.5 -15
t-7.5 -16.5t-2 -10h-20q0 2 2 13t9.5 23t22 21.5t39.5 9.5q19 0 34 -6t29 -13t28.5 -13t33.5 -6q21 0 32.5 7t17.5 15.5t7.5 16t1.5 9.5h20q0 -3 -2.5 -14t-10.5 -23t-24.5 -21t-43.5 -9z" />
    <glyph glyph-name="ograve" unicode="&#xf2;" horiz-adv-x="586" 
d="M293 -10q-51 0 -96 21.5t-78.5 58t-53 85.5t-19.5 103q0 55 19.5 103.5t53.5 85.5t79 58.5t95 21.5t95 -21.5t78.5 -58.5t53.5 -85.5t20 -103.5q0 -54 -19.5 -103t-53 -85.5t-78.5 -58t-96 -21.5zM66 256q0 -50 18 -95t48.5 -78.5t71.5 -53t88 -19.5q46 0 87.5 20t73 54
t49.5 79t18 96q0 50 -18 95t-49 79t-72.5 54t-87.5 20t-87.5 -20t-72.5 -54.5t-49 -80t-18 -96.5zM225 730h33l65 -73l-16 -12z" />
    <glyph glyph-name="oacute" unicode="&#xf3;" horiz-adv-x="586" 
d="M293 -10q-51 0 -96 21.5t-78.5 58t-53 85.5t-19.5 103q0 55 19.5 103.5t53.5 85.5t79 58.5t95 21.5t95 -21.5t78.5 -58.5t53.5 -85.5t20 -103.5q0 -54 -19.5 -103t-53 -85.5t-78.5 -58t-96 -21.5zM66 256q0 -50 18 -95t48.5 -78.5t71.5 -53t88 -19.5q46 0 87.5 20t73 54
t49.5 79t18 96q0 50 -18 95t-49 79t-72.5 54t-87.5 20t-87.5 -20t-72.5 -54.5t-49 -80t-18 -96.5zM279 645l-16 12l64 73h34z" />
    <glyph glyph-name="ocircumflex" unicode="&#xf4;" horiz-adv-x="586" 
d="M293 -10q-51 0 -96 21.5t-78.5 58t-53 85.5t-19.5 103q0 55 19.5 103.5t53.5 85.5t79 58.5t95 21.5t95 -21.5t78.5 -58.5t53.5 -85.5t20 -103.5q0 -54 -19.5 -103t-53 -85.5t-78.5 -58t-96 -21.5zM66 256q0 -50 18 -95t48.5 -78.5t71.5 -53t88 -19.5q46 0 87.5 20t73 54
t49.5 79t18 96q0 50 -18 95t-49 79t-72.5 54t-87.5 20t-87.5 -20t-72.5 -54.5t-49 -80t-18 -96.5zM192 656l93 74h16l93 -74l-16 -12l-85 63l-85 -63z" />
    <glyph glyph-name="otilde" unicode="&#xf5;" horiz-adv-x="586" 
d="M293 -10q-51 0 -96 21.5t-78.5 58t-53 85.5t-19.5 103q0 55 19.5 103.5t53.5 85.5t79 58.5t95 21.5t95 -21.5t78.5 -58.5t53.5 -85.5t20 -103.5q0 -54 -19.5 -103t-53 -85.5t-78.5 -58t-96 -21.5zM66 256q0 -50 18 -95t48.5 -78.5t71.5 -53t88 -19.5q46 0 87.5 20t73 54
t49.5 79t18 96q0 50 -18 95t-49 79t-72.5 54t-87.5 20t-87.5 -20t-72.5 -54.5t-49 -80t-18 -96.5zM354 663q-22 0 -38.5 6t-30.5 13t-27.5 13t-28.5 6q-16 0 -26 -6.5t-15.5 -15t-7.5 -16.5t-2 -10h-20q0 2 2 13t9.5 23t22 21.5t39.5 9.5q19 0 34 -6t29 -13t28.5 -13
t33.5 -6q21 0 32.5 7t17.5 15.5t7.5 16t1.5 9.5h20q0 -3 -2.5 -14t-10.5 -23t-24.5 -21t-43.5 -9z" />
    <glyph glyph-name="odieresis" unicode="&#xf6;" horiz-adv-x="586" 
d="M293 -10q-51 0 -96 21.5t-78.5 58t-53 85.5t-19.5 103q0 55 19.5 103.5t53.5 85.5t79 58.5t95 21.5t95 -21.5t78.5 -58.5t53.5 -85.5t20 -103.5q0 -54 -19.5 -103t-53 -85.5t-78.5 -58t-96 -21.5zM66 256q0 -50 18 -95t48.5 -78.5t71.5 -53t88 -19.5q46 0 87.5 20t73 54
t49.5 79t18 96q0 50 -18 95t-49 79t-72.5 54t-87.5 20t-87.5 -20t-72.5 -54.5t-49 -80t-18 -96.5zM225 653v77h20v-77h-20zM341 653v77h20v-77h-20z" />
    <glyph glyph-name="divide" unicode="&#xf7;" horiz-adv-x="546" 
d="M263 385v64h20v-64h-20zM263 92v64h20v-64h-20zM72 261v20h403v-20h-403z" />
    <glyph glyph-name="oslash" unicode="&#xf8;" horiz-adv-x="586" 
d="M123 0l25 41q-47 38 -74.5 94.5t-27.5 122.5q0 55 19.5 103.5t53.5 85.5t79 58.5t95 21.5q35 0 67 -10.5t60 -29.5l20 32h26l-28 -45q46 -38 74 -94t28 -122q0 -54 -19.5 -103t-53 -85.5t-78.5 -58t-96 -21.5q-35 0 -67.5 10t-60.5 29l-17 -29h-25zM66 256q0 -60 25 -112
t67 -86l252 412q-26 17 -55.5 27t-61.5 10q-46 0 -87.5 -20t-72.5 -54.5t-49 -80t-18 -96.5zM292 10q46 0 87.5 20t73 54t49.5 79t18 96q0 60 -25 111t-67 86l-252 -410q53 -36 116 -36z" />
    <glyph glyph-name="ugrave" unicode="&#xf9;" 
d="M245 -10q-167 0 -167 238v291h20v-291q0 -218 147 -218q37 0 73 13.5t66 37t52.5 56.5t34.5 72v330h20v-479q0 -20 16 -20v-20q-11 0 -14 2q-10 4 -16 14.5t-6 23.5v92q-34 -66 -95 -104t-131 -38zM214 730h33l65 -73l-16 -12z" />
    <glyph glyph-name="uacute" unicode="&#xfa;" 
d="M245 -10q-167 0 -167 238v291h20v-291q0 -218 147 -218q37 0 73 13.5t66 37t52.5 56.5t34.5 72v330h20v-479q0 -20 16 -20v-20q-11 0 -14 2q-10 4 -16 14.5t-6 23.5v92q-34 -66 -95 -104t-131 -38zM268 645l-16 12l64 73h34z" />
    <glyph glyph-name="ucircumflex" unicode="&#xfb;" 
d="M245 -10q-167 0 -167 238v291h20v-291q0 -218 147 -218q37 0 73 13.5t66 37t52.5 56.5t34.5 72v330h20v-479q0 -20 16 -20v-20q-11 0 -14 2q-10 4 -16 14.5t-6 23.5v92q-34 -66 -95 -104t-131 -38zM181 656l93 74h16l93 -74l-16 -12l-85 63l-85 -63z" />
    <glyph glyph-name="udieresis" unicode="&#xfc;" 
d="M245 -10q-167 0 -167 238v291h20v-291q0 -218 147 -218q37 0 73 13.5t66 37t52.5 56.5t34.5 72v330h20v-479q0 -20 16 -20v-20q-11 0 -14 2q-10 4 -16 14.5t-6 23.5v92q-34 -66 -95 -104t-131 -38zM214 653v77h20v-77h-20zM330 653v77h20v-77h-20z" />
    <glyph glyph-name="yacute" unicode="&#xfd;" horiz-adv-x="536" 
d="M128 -203q17 0 29.5 1.5t17.5 8.5q3 3 7 11.5t13 29t25 57t42 95.5l-241 519h22l229 -494l217 494h22l-309 -705q-12 -26 -33 -32q-20 -5 -41 -5v20zM258 645l-16 12l64 73h34z" />
    <glyph glyph-name="thorn" unicode="&#xfe;" horiz-adv-x="603" 
d="M557 258q-2 -53 -21 -101.5t-52.5 -85.5t-78.5 -59t-98 -22q-31 0 -60.5 9t-56 25t-49 37.5t-37.5 46.5v-321h-20v923h20v-312q40 56 92 92.5t120 36.5q57 0 102 -24t75.5 -62.5t47 -86.5t16.5 -96zM537 258q0 48 -16 93t-45.5 79.5t-70 55.5t-89.5 21q-37 0 -69.5 -12.5
t-59 -33.5t-47.5 -48t-36 -57v-187q0 -32 20.5 -61t51 -50.5t66 -34.5t65.5 -13q50 0 92.5 21.5t73 56.5t47.5 79.5t17 90.5z" />
    <glyph glyph-name="ydieresis" unicode="&#xff;" horiz-adv-x="536" 
d="M128 -203q17 0 29.5 1.5t17.5 8.5q3 3 7 11.5t13 29t25 57t42 95.5l-241 519h22l229 -494l217 494h22l-309 -705q-12 -26 -33 -32q-20 -5 -41 -5v20zM204 653v77h20v-77h-20zM320 653v77h20v-77h-20z" />
    <glyph glyph-name="Amacron" unicode="&#x100;" horiz-adv-x="674" 
d="M328 710h18l309 -710h-22l-111 254h-371l-111 -254h-22zM513 274l-176 407l-178 -407h354zM197 874v20h280v-20h-280z" />
    <glyph glyph-name="amacron" unicode="&#x101;" horiz-adv-x="524" 
d="M207 -10q-35 0 -66 12.5t-53.5 34t-35.5 50.5t-13 62t15.5 60t44 46.5t68 30.5t86.5 11q45 0 91 -7.5t83 -21.5v59q0 40 -12 73.5t-34.5 57t-54 36.5t-69.5 13t-81 -16.5t-87 -47.5l-12 16q100 68 180 68q43 0 78.5 -14t60 -40t38 -63t13.5 -83v-287q0 -20 16 -20v-20
q-11 0 -14 2q-10 4 -16 14.5t-6 23.5v48q-36 -47 -94 -72.5t-126 -25.5zM207 10q67 0 122.5 25t82.5 67q15 21 15 41v103q-80 31 -174 31q-44 0 -79.5 -9t-61 -26t-39.5 -40.5t-14 -52.5t11.5 -54.5t31.5 -44.5t47 -29.5t58 -10.5zM117 686v20h280v-20h-280z" />
    <glyph glyph-name="Abreve" unicode="&#x102;" horiz-adv-x="674" 
d="M328 710h18l309 -710h-22l-111 254h-371l-111 -254h-22zM513 274l-176 407l-178 -407h354zM337 858q20 0 36.5 17.5t19.5 42.5h18q0 -15 -6 -29t-16.5 -24.5t-23.5 -17t-28 -6.5t-28 6.5t-23.5 17t-16.5 24.5t-6 29h19q0 -23 17 -41.5t38 -18.5z" />
    <glyph glyph-name="abreve" unicode="&#x103;" horiz-adv-x="524" 
d="M207 -10q-35 0 -66 12.5t-53.5 34t-35.5 50.5t-13 62t15.5 60t44 46.5t68 30.5t86.5 11q45 0 91 -7.5t83 -21.5v59q0 40 -12 73.5t-34.5 57t-54 36.5t-69.5 13t-81 -16.5t-87 -47.5l-12 16q100 68 180 68q43 0 78.5 -14t60 -40t38 -63t13.5 -83v-287q0 -20 16 -20v-20
q-11 0 -14 2q-10 4 -16 14.5t-6 23.5v48q-36 -47 -94 -72.5t-126 -25.5zM207 10q67 0 122.5 25t82.5 67q15 21 15 41v103q-80 31 -174 31q-44 0 -79.5 -9t-61 -26t-39.5 -40.5t-14 -52.5t11.5 -54.5t31.5 -44.5t47 -29.5t58 -10.5zM257 670q20 0 36.5 17.5t19.5 42.5h18
q0 -15 -6 -29t-16.5 -24.5t-23.5 -17t-28 -6.5t-28 6.5t-23.5 17t-16.5 24.5t-6 29h19q0 -23 17 -41.5t38 -18.5z" />
    <glyph glyph-name="Aogonek" unicode="&#x104;" horiz-adv-x="673" 
d="M605 -159q-25 6 -38.5 22t-13.5 39q0 25 17.5 48.5t59.5 54.5l-109 249h-371l-111 -254h-22l310 710h18l309 -710q-45 -31 -63 -51.5t-18 -43.5q0 -38 44 -47zM512 274l-176 407l-178 -407h354z" />
    <glyph glyph-name="aogonek" unicode="&#x105;" horiz-adv-x="524" 
d="M414 -159q-25 6 -38.5 22t-13.5 39q0 25 18 49t61 55q-14 12 -14 34v48q-36 -47 -94 -72.5t-126 -25.5q-35 0 -66 12.5t-53.5 34t-35.5 50.5t-13 62t15.5 60t44 46.5t68 30.5t86.5 11q45 0 91 -7.5t83 -21.5v59q0 40 -12 73.5t-34.5 57t-54 36.5t-69.5 13t-81 -16.5
t-87 -47.5l-12 16q100 68 180 68q43 0 78.5 -14t60 -40t38 -63t13.5 -83v-287q0 -20 16 -20v-20q-45 -31 -63 -51.5t-18 -43.5q0 -38 44 -47zM207 10q67 0 122.5 25t82.5 67q15 21 15 41v103q-80 31 -174 31q-44 0 -79.5 -9t-61 -26t-39.5 -40.5t-14 -52.5t11.5 -54.5
t31.5 -44.5t47 -29.5t58 -10.5z" />
    <glyph glyph-name="Cacute" unicode="&#x106;" horiz-adv-x="697" 
d="M48 360q0 64 22.5 127t65 113.5t105 82t142.5 31.5q95 0 161 -43.5t98 -111.5l-19 -6q-21 39 -48.5 66t-60 43.5t-67 24t-68.5 7.5q-74 0 -132 -29.5t-98 -77.5t-60.5 -108.5t-20.5 -121.5q0 -68 24.5 -130t67 -109.5t99.5 -75.5t123 -28q35 0 72 9t71.5 27t64 46.5
t50.5 67.5l19 -5q-18 -40 -49 -71t-69 -52t-80.5 -31.5t-82.5 -10.5q-72 0 -133 32t-104.5 83.5t-68 117t-24.5 133.5zM367 833l-16 12l64 73h34z" />
    <glyph glyph-name="cacute" unicode="&#x107;" horiz-adv-x="538" 
d="M46 262q0 56 19 104.5t53 84t79.5 56t98.5 20.5q66 0 117.5 -30.5t77.5 -85.5l-20 -7q-26 48 -73.5 75.5t-104.5 27.5q-48 0 -89 -19t-72 -52t-48.5 -78t-17.5 -96t18 -97t49.5 -80.5t72.5 -54.5t88 -20q30 0 60.5 9t56 24t43.5 35t24 41l20 -6q-9 -26 -28.5 -48.5
t-46.5 -39t-59.5 -26t-66.5 -9.5q-51 0 -97 21.5t-80 58.5t-54 86.5t-20 105.5zM279 645l-16 12l64 73h34z" />
    <glyph glyph-name="Ccircumflex" unicode="&#x108;" horiz-adv-x="697" 
d="M48 360q0 64 22.5 127t65 113.5t105 82t142.5 31.5q95 0 161 -43.5t98 -111.5l-19 -6q-21 39 -48.5 66t-60 43.5t-67 24t-68.5 7.5q-74 0 -132 -29.5t-98 -77.5t-60.5 -108.5t-20.5 -121.5q0 -68 24.5 -130t67 -109.5t99.5 -75.5t123 -28q35 0 72 9t71.5 27t64 46.5
t50.5 67.5l19 -5q-18 -40 -49 -71t-69 -52t-80.5 -31.5t-82.5 -10.5q-72 0 -133 32t-104.5 83.5t-68 117t-24.5 133.5zM280 844l93 74h16l93 -74l-16 -12l-85 63l-85 -63z" />
    <glyph glyph-name="ccircumflex" unicode="&#x109;" horiz-adv-x="538" 
d="M46 262q0 56 19 104.5t53 84t79.5 56t98.5 20.5q66 0 117.5 -30.5t77.5 -85.5l-20 -7q-26 48 -73.5 75.5t-104.5 27.5q-48 0 -89 -19t-72 -52t-48.5 -78t-17.5 -96t18 -97t49.5 -80.5t72.5 -54.5t88 -20q30 0 60.5 9t56 24t43.5 35t24 41l20 -6q-9 -26 -28.5 -48.5
t-46.5 -39t-59.5 -26t-66.5 -9.5q-51 0 -97 21.5t-80 58.5t-54 86.5t-20 105.5zM192 656l93 74h16l93 -74l-16 -12l-85 63l-85 -63z" />
    <glyph glyph-name="Cdotaccent" unicode="&#x10a;" horiz-adv-x="697" 
d="M48 360q0 64 22.5 127t65 113.5t105 82t142.5 31.5q95 0 161 -43.5t98 -111.5l-19 -6q-21 39 -48.5 66t-60 43.5t-67 24t-68.5 7.5q-74 0 -132 -29.5t-98 -77.5t-60.5 -108.5t-20.5 -121.5q0 -68 24.5 -130t67 -109.5t99.5 -75.5t123 -28q35 0 72 9t71.5 27t64 46.5
t50.5 67.5l19 -5q-18 -40 -49 -71t-69 -52t-80.5 -31.5t-82.5 -10.5q-72 0 -133 32t-104.5 83.5t-68 117t-24.5 133.5zM371 841v77h20v-77h-20z" />
    <glyph glyph-name="cdotaccent" unicode="&#x10b;" horiz-adv-x="538" 
d="M46 262q0 56 19 104.5t53 84t79.5 56t98.5 20.5q66 0 117.5 -30.5t77.5 -85.5l-20 -7q-26 48 -73.5 75.5t-104.5 27.5q-48 0 -89 -19t-72 -52t-48.5 -78t-17.5 -96t18 -97t49.5 -80.5t72.5 -54.5t88 -20q30 0 60.5 9t56 24t43.5 35t24 41l20 -6q-9 -26 -28.5 -48.5
t-46.5 -39t-59.5 -26t-66.5 -9.5q-51 0 -97 21.5t-80 58.5t-54 86.5t-20 105.5zM283 653v77h20v-77h-20z" />
    <glyph glyph-name="Ccaron" unicode="&#x10c;" horiz-adv-x="697" 
d="M48 360q0 64 22.5 127t65 113.5t105 82t142.5 31.5q95 0 161 -43.5t98 -111.5l-19 -6q-21 39 -48.5 66t-60 43.5t-67 24t-68.5 7.5q-74 0 -132 -29.5t-98 -77.5t-60.5 -108.5t-20.5 -121.5q0 -68 24.5 -130t67 -109.5t99.5 -75.5t123 -28q35 0 72 9t71.5 27t64 46.5
t50.5 67.5l19 -5q-18 -40 -49 -71t-69 -52t-80.5 -31.5t-82.5 -10.5q-72 0 -133 32t-104.5 83.5t-68 117t-24.5 133.5zM296 918l85 -63l85 63l16 -12l-93 -74h-16l-93 74z" />
    <glyph glyph-name="ccaron" unicode="&#x10d;" horiz-adv-x="538" 
d="M46 262q0 56 19 104.5t53 84t79.5 56t98.5 20.5q66 0 117.5 -30.5t77.5 -85.5l-20 -7q-26 48 -73.5 75.5t-104.5 27.5q-48 0 -89 -19t-72 -52t-48.5 -78t-17.5 -96t18 -97t49.5 -80.5t72.5 -54.5t88 -20q30 0 60.5 9t56 24t43.5 35t24 41l20 -6q-9 -26 -28.5 -48.5
t-46.5 -39t-59.5 -26t-66.5 -9.5q-51 0 -97 21.5t-80 58.5t-54 86.5t-20 105.5zM208 730l85 -63l85 63l16 -12l-93 -74h-16l-93 74z" />
    <glyph glyph-name="Dcaron" unicode="&#x10e;" horiz-adv-x="711" 
d="M99 0v710h228q84 0 146.5 -28t104 -76t62 -112.5t20.5 -137.5q0 -81 -23.5 -146.5t-66.5 -112t-105 -72t-138 -25.5h-228zM640 356q0 73 -20.5 134t-60.5 105.5t-98.5 69.5t-133.5 25h-208v-670h208q77 0 135.5 25.5t98 70.5t59.5 106.5t20 133.5zM268 918l85 -63l85 63
l16 -12l-93 -74h-16l-93 74z" />
    <glyph glyph-name="dcaron" unicode="&#x10f;" horiz-adv-x="604" 
d="M296 -10q-54 0 -100 23t-79.5 61t-52 86t-18.5 98q0 54 18 102.5t50.5 85.5t76.5 59t96 22q36 0 67.5 -10.5t58.5 -28t48.5 -41t37.5 -49.5v332h20v-690q0 -20 16 -20v-20q-9 0 -13 2q-11 5 -17 15.5t-6 22.5v68q-17 -26 -39.5 -47.5t-49 -37.5t-55.5 -24.5t-59 -8.5z
M296 10q30 0 65 13t65 34.5t50.5 50.5t22.5 61v187q-11 31 -34 58.5t-52 48t-62 32.5t-64 12q-51 0 -91.5 -21.5t-69.5 -56.5t-44.5 -80t-15.5 -91q0 -49 18 -93.5t49 -79t73 -55t90 -20.5zM578 645l-16 12l64 73h34z" />
    <glyph glyph-name="Dcroat" unicode="&#x110;" horiz-adv-x="718" 
d="M106 0v347h-71v20h71v343h228q84 0 146.5 -28t104 -76t62 -112.5t20.5 -137.5q0 -81 -23.5 -146.5t-66.5 -112t-105 -72t-138 -25.5h-228zM647 356q0 73 -20.5 134t-60.5 105.5t-98.5 69.5t-133.5 25h-208v-323h192v-20h-192v-327h208q77 0 135.5 25.5t98 70.5
t59.5 106.5t20 133.5z" />
    <glyph glyph-name="dcroat" unicode="&#x111;" horiz-adv-x="604" 
d="M296 -10q-54 0 -100 23t-79.5 61t-52 86t-18.5 98q0 54 18 102.5t50.5 85.5t76.5 59t96 22q36 0 67.5 -10.5t58.5 -28t48.5 -41t37.5 -49.5v235h-124v20h124v77h20v-77h76v-20h-76v-593q0 -20 16 -20v-20q-9 0 -13 2q-11 5 -17 15.5t-6 22.5v68q-17 -26 -39.5 -47.5
t-49 -37.5t-55.5 -24.5t-59 -8.5zM296 10q30 0 65 13t65 34.5t50.5 50.5t22.5 61v187q-11 31 -34 58.5t-52 48t-62 32.5t-64 12q-51 0 -91.5 -21.5t-69.5 -56.5t-44.5 -80t-15.5 -91q0 -49 18 -93.5t49 -79t73 -55t90 -20.5z" />
    <glyph glyph-name="Emacron" unicode="&#x112;" horiz-adv-x="617" 
d="M565 20v-20h-466v710h457v-20h-437v-317h383v-20h-383v-333h446zM204 874v20h280v-20h-280z" />
    <glyph glyph-name="emacron" unicode="&#x113;" 
d="M296 -10q-51 0 -96.5 21.5t-79.5 59t-54 87t-20 105.5q0 55 19 103t52.5 84t78 56.5t95.5 20.5q52 0 97.5 -21t79 -57t53.5 -85t20 -105v-11h-475q4 -50 23.5 -93.5t50.5 -75.5t71.5 -50.5t85.5 -18.5q30 0 58.5 8t53.5 22.5t44 34.5t30 44l19 -5q-11 -27 -31.5 -49.5
t-48 -39t-60 -26t-66.5 -9.5zM520 268q-3 52 -22 96t-49.5 75.5t-70.5 49.5t-86 18t-86 -18t-70.5 -50t-48.5 -76t-21 -95h454zM152 686v20h280v-20h-280z" />
    <glyph glyph-name="Ebreve" unicode="&#x114;" horiz-adv-x="617" 
d="M565 20v-20h-466v710h457v-20h-437v-317h383v-20h-383v-333h446zM344 858q20 0 36.5 17.5t19.5 42.5h18q0 -15 -6 -29t-16.5 -24.5t-23.5 -17t-28 -6.5t-28 6.5t-23.5 17t-16.5 24.5t-6 29h19q0 -23 17 -41.5t38 -18.5z" />
    <glyph glyph-name="ebreve" unicode="&#x115;" 
d="M296 -10q-51 0 -96.5 21.5t-79.5 59t-54 87t-20 105.5q0 55 19 103t52.5 84t78 56.5t95.5 20.5q52 0 97.5 -21t79 -57t53.5 -85t20 -105v-11h-475q4 -50 23.5 -93.5t50.5 -75.5t71.5 -50.5t85.5 -18.5q30 0 58.5 8t53.5 22.5t44 34.5t30 44l19 -5q-11 -27 -31.5 -49.5
t-48 -39t-60 -26t-66.5 -9.5zM520 268q-3 52 -22 96t-49.5 75.5t-70.5 49.5t-86 18t-86 -18t-70.5 -50t-48.5 -76t-21 -95h454zM292 670q20 0 36.5 17.5t19.5 42.5h18q0 -15 -6 -29t-16.5 -24.5t-23.5 -17t-28 -6.5t-28 6.5t-23.5 17t-16.5 24.5t-6 29h19q0 -23 17 -41.5
t38 -18.5z" />
    <glyph glyph-name="Edotaccent" unicode="&#x116;" horiz-adv-x="617" 
d="M565 20v-20h-466v710h457v-20h-437v-317h383v-20h-383v-333h446zM334 841v77h20v-77h-20z" />
    <glyph glyph-name="edotaccent" unicode="&#x117;" 
d="M296 -10q-51 0 -96.5 21.5t-79.5 59t-54 87t-20 105.5q0 55 19 103t52.5 84t78 56.5t95.5 20.5q52 0 97.5 -21t79 -57t53.5 -85t20 -105v-11h-475q4 -50 23.5 -93.5t50.5 -75.5t71.5 -50.5t85.5 -18.5q30 0 58.5 8t53.5 22.5t44 34.5t30 44l19 -5q-11 -27 -31.5 -49.5
t-48 -39t-60 -26t-66.5 -9.5zM520 268q-3 52 -22 96t-49.5 75.5t-70.5 49.5t-86 18t-86 -18t-70.5 -50t-48.5 -76t-21 -95h454zM282 653v77h20v-77h-20z" />
    <glyph glyph-name="Eogonek" unicode="&#x118;" horiz-adv-x="617" 
d="M516 -159q-25 6 -38.5 22t-13.5 39q0 24 16 46.5t54 51.5h-435v710h457v-20h-437v-317h383v-20h-383v-333h446v-20q-45 -31 -63 -51.5t-18 -43.5q0 -38 44 -47l-12 -17v0z" />
    <glyph glyph-name="eogonek" unicode="&#x119;" 
d="M267 -168q-25 6 -38.5 22t-13.5 39t16 45.5t53 51.5q-50 3 -93 25.5t-75.5 59.5t-51 85.5t-18.5 102.5q0 55 19 103t52.5 84t78 56.5t95.5 20.5q52 0 97.5 -21t79 -57t53.5 -85t20 -105v-11h-475q4 -50 23.5 -93.5t50.5 -75.5t71.5 -50.5t85.5 -18.5q30 0 58.5 8
t53.5 22.5t44 34.5t30 44l19 -5q-10 -25 -28.5 -46t-43 -37.5t-54 -26.5t-60.5 -13q-45 -31 -63 -51.5t-18 -43.5q0 -38 44 -47zM520 268q-3 52 -22 96t-49.5 75.5t-70.5 49.5t-86 18t-86 -18t-70.5 -50t-48.5 -76t-21 -95h454z" />
    <glyph glyph-name="Ecaron" unicode="&#x11a;" horiz-adv-x="617" 
d="M565 20v-20h-466v710h457v-20h-437v-317h383v-20h-383v-333h446zM259 918l85 -63l85 63l16 -12l-93 -74h-16l-93 74z" />
    <glyph glyph-name="ecaron" unicode="&#x11b;" 
d="M296 -10q-51 0 -96.5 21.5t-79.5 59t-54 87t-20 105.5q0 55 19 103t52.5 84t78 56.5t95.5 20.5q52 0 97.5 -21t79 -57t53.5 -85t20 -105v-11h-475q4 -50 23.5 -93.5t50.5 -75.5t71.5 -50.5t85.5 -18.5q30 0 58.5 8t53.5 22.5t44 34.5t30 44l19 -5q-11 -27 -31.5 -49.5
t-48 -39t-60 -26t-66.5 -9.5zM520 268q-3 52 -22 96t-49.5 75.5t-70.5 49.5t-86 18t-86 -18t-70.5 -50t-48.5 -76t-21 -95h454zM207 730l85 -63l85 63l16 -12l-93 -74h-16l-93 74z" />
    <glyph glyph-name="Gcircumflex" unicode="&#x11c;" horiz-adv-x="720" 
d="M639 121q-111 -126 -256 -126q-74 0 -135.5 31.5t-106 82.5t-69 115.5t-24.5 130.5q0 69 24 134t66.5 115.5t102 80.5t130.5 30q55 0 98 -11.5t76 -32t56.5 -49t40.5 -62.5l-19 -6q-41 75 -105 108t-147 33q-70 0 -126 -29.5t-95.5 -77.5t-60.5 -109t-21 -124
q0 -67 24.5 -128.5t67.5 -108.5t100 -75t123 -28q70 0 133 32t123 102v169h-167v20h187v-338h-20v121zM269 844l93 74h16l93 -74l-16 -12l-85 63l-85 -63z" />
    <glyph glyph-name="gcircumflex" unicode="&#x11d;" horiz-adv-x="603" 
d="M296 -10q-54 0 -100 23t-79.5 61t-52 86t-18.5 98q0 52 17.5 100.5t49.5 86t76.5 60t97.5 22.5q35 0 65.5 -10t57 -27.5t48.5 -41t41 -50.5v121h20v-541q0 -51 -19 -89t-51 -63t-73.5 -37t-85.5 -12q-92 0 -144 34t-81 90l19 6q32 -59 87.5 -84.5t118.5 -25.5
q43 0 81 11.5t66.5 34.5t45 56.5t16.5 78.5v130q-17 -26 -39.5 -47.5t-49 -37.5t-55.5 -24.5t-59 -8.5zM296 10q37 0 72.5 14.5t63.5 37.5t46.5 51t20.5 56v187q-12 33 -34.5 60.5t-50.5 47.5t-61 31.5t-66 11.5q-53 0 -94 -22.5t-69 -58t-43 -80t-15 -88.5q0 -49 18 -93.5
t49 -79t73 -55t90 -20.5zM213 656l93 74h16l93 -74l-16 -12l-85 63l-85 -63z" />
    <glyph glyph-name="Gbreve" unicode="&#x11e;" horiz-adv-x="720" 
d="M639 121q-111 -126 -256 -126q-74 0 -135.5 31.5t-106 82.5t-69 115.5t-24.5 130.5q0 69 24 134t66.5 115.5t102 80.5t130.5 30q55 0 98 -11.5t76 -32t56.5 -49t40.5 -62.5l-19 -6q-41 75 -105 108t-147 33q-70 0 -126 -29.5t-95.5 -77.5t-60.5 -109t-21 -124
q0 -67 24.5 -128.5t67.5 -108.5t100 -75t123 -28q70 0 133 32t123 102v169h-167v20h187v-338h-20v121zM370 858q20 0 36.5 17.5t19.5 42.5h18q0 -15 -6 -29t-16.5 -24.5t-23.5 -17t-28 -6.5t-28 6.5t-23.5 17t-16.5 24.5t-6 29h19q0 -23 17 -41.5t38 -18.5z" />
    <glyph glyph-name="gbreve" unicode="&#x11f;" horiz-adv-x="603" 
d="M296 -10q-54 0 -100 23t-79.5 61t-52 86t-18.5 98q0 52 17.5 100.5t49.5 86t76.5 60t97.5 22.5q35 0 65.5 -10t57 -27.5t48.5 -41t41 -50.5v121h20v-541q0 -51 -19 -89t-51 -63t-73.5 -37t-85.5 -12q-92 0 -144 34t-81 90l19 6q32 -59 87.5 -84.5t118.5 -25.5
q43 0 81 11.5t66.5 34.5t45 56.5t16.5 78.5v130q-17 -26 -39.5 -47.5t-49 -37.5t-55.5 -24.5t-59 -8.5zM296 10q37 0 72.5 14.5t63.5 37.5t46.5 51t20.5 56v187q-12 33 -34.5 60.5t-50.5 47.5t-61 31.5t-66 11.5q-53 0 -94 -22.5t-69 -58t-43 -80t-15 -88.5q0 -49 18 -93.5
t49 -79t73 -55t90 -20.5zM314 670q20 0 36.5 17.5t19.5 42.5h18q0 -15 -6 -29t-16.5 -24.5t-23.5 -17t-28 -6.5t-28 6.5t-23.5 17t-16.5 24.5t-6 29h19q0 -23 17 -41.5t38 -18.5z" />
    <glyph glyph-name="Gdotaccent" unicode="&#x120;" horiz-adv-x="720" 
d="M639 121q-111 -126 -256 -126q-74 0 -135.5 31.5t-106 82.5t-69 115.5t-24.5 130.5q0 69 24 134t66.5 115.5t102 80.5t130.5 30q55 0 98 -11.5t76 -32t56.5 -49t40.5 -62.5l-19 -6q-41 75 -105 108t-147 33q-70 0 -126 -29.5t-95.5 -77.5t-60.5 -109t-21 -124
q0 -67 24.5 -128.5t67.5 -108.5t100 -75t123 -28q70 0 133 32t123 102v169h-167v20h187v-338h-20v121zM360 841v77h20v-77h-20z" />
    <glyph glyph-name="gdotaccent" unicode="&#x121;" horiz-adv-x="603" 
d="M296 -10q-54 0 -100 23t-79.5 61t-52 86t-18.5 98q0 52 17.5 100.5t49.5 86t76.5 60t97.5 22.5q35 0 65.5 -10t57 -27.5t48.5 -41t41 -50.5v121h20v-541q0 -51 -19 -89t-51 -63t-73.5 -37t-85.5 -12q-92 0 -144 34t-81 90l19 6q32 -59 87.5 -84.5t118.5 -25.5
q43 0 81 11.5t66.5 34.5t45 56.5t16.5 78.5v130q-17 -26 -39.5 -47.5t-49 -37.5t-55.5 -24.5t-59 -8.5zM296 10q37 0 72.5 14.5t63.5 37.5t46.5 51t20.5 56v187q-12 33 -34.5 60.5t-50.5 47.5t-61 31.5t-66 11.5q-53 0 -94 -22.5t-69 -58t-43 -80t-15 -88.5q0 -49 18 -93.5
t49 -79t73 -55t90 -20.5zM304 653v77h20v-77h-20z" />
    <glyph glyph-name="Gcommaaccent" unicode="&#x122;" horiz-adv-x="720" 
d="M639 121q-111 -126 -256 -126q-74 0 -135.5 31.5t-106 82.5t-69 115.5t-24.5 130.5q0 69 24 134t66.5 115.5t102 80.5t130.5 30q55 0 98 -11.5t76 -32t56.5 -49t40.5 -62.5l-19 -6q-41 75 -105 108t-147 33q-70 0 -126 -29.5t-95.5 -77.5t-60.5 -109t-21 -124
q0 -67 24.5 -128.5t67.5 -108.5t100 -75t123 -28q70 0 133 32t123 102v169h-167v20h187v-338h-20v121zM365 -167l10 58h-9v59h26v-59l-13 -58h-14z" />
    <glyph glyph-name="gcommaaccent" unicode="&#x123;" horiz-adv-x="603" 
d="M296 -10q-54 0 -100 23t-79.5 61t-52 86t-18.5 98q0 52 17.5 100.5t49.5 86t76.5 60t97.5 22.5q35 0 65.5 -10t57 -27.5t48.5 -41t41 -50.5v121h20v-541q0 -51 -19 -89t-51 -63t-73.5 -37t-85.5 -12q-92 0 -144 34t-81 90l19 6q32 -59 87.5 -84.5t118.5 -25.5
q43 0 81 11.5t66.5 34.5t45 56.5t16.5 78.5v130q-17 -26 -39.5 -47.5t-49 -37.5t-55.5 -24.5t-59 -8.5zM296 10q37 0 72.5 14.5t63.5 37.5t46.5 51t20.5 56v187q-12 33 -34.5 60.5t-50.5 47.5t-61 31.5t-66 11.5q-53 0 -94 -22.5t-69 -58t-43 -80t-15 -88.5q0 -49 18 -93.5
t49 -79t73 -55t90 -20.5zM303 730l-10 -58h9v-59h-26v59l13 58h14z" />
    <glyph glyph-name="Hcircumflex" unicode="&#x124;" horiz-adv-x="731" 
d="M632 710v-710h-20v353h-493v-353h-20v710h20v-337h493v337h20zM266 844l93 74h16l93 -74l-16 -12l-85 63l-85 -63z" />
    <glyph glyph-name="hcircumflex" unicode="&#x125;" horiz-adv-x="565" 
d="M487 0h-20v289q0 218 -144 218q-36 0 -71 -14t-64.5 -38t-51.5 -56.5t-32 -70.5v-328h-20v730h20v-345q16 32 39.5 58.5t52 45t61 28.5t65.5 10q81 0 123 -60t42 -178v-289zM201 655l93 74h16l93 -74l-16 -12l-85 63l-85 -63z" />
    <glyph glyph-name="Hbar" unicode="&#x126;" horiz-adv-x="741" 
d="M637 710v-136h50v-20h-50v-554h-20v353h-493v-353h-20v554h-50v20h50v136h20v-136h493v136h20zM617 373v181h-493v-181h493z" />
    <glyph glyph-name="hbar" unicode="&#x127;" horiz-adv-x="565" 
d="M487 0h-20v289q0 218 -144 218q-36 0 -71 -14t-64.5 -38t-51.5 -56.5t-32 -70.5v-328h-20v633h-74v20h74v77h20v-77h126v-20h-126v-248q16 32 39.5 58.5t52 45t61 28.5t65.5 10q81 0 123 -60t42 -178v-289z" />
    <glyph glyph-name="Itilde" unicode="&#x128;" horiz-adv-x="218" 
d="M99 0v710h20v-710h-20zM170 851q-22 0 -38.5 6t-30.5 13t-27.5 13t-28.5 6q-16 0 -26 -6.5t-15.5 -15t-7.5 -16.5t-2 -10h-20q0 2 2 13t9.5 23t22 21.5t39.5 9.5q19 0 34 -6t29 -13t28.5 -13t33.5 -6q21 0 32.5 7t17.5 15.5t7.5 16t1.5 9.5h20q0 -3 -2.5 -14t-10.5 -23
t-24.5 -21t-43.5 -9z" />
    <glyph glyph-name="itilde" unicode="&#x129;" horiz-adv-x="188" 
d="M84 0v519h20v-519h-20zM155 663q-22 0 -38.5 6t-30.5 13t-27.5 13t-28.5 6q-16 0 -26 -6.5t-15.5 -15t-7.5 -16.5t-2 -10h-20q0 2 2 13t9.5 23t22 21.5t39.5 9.5q19 0 34 -6t29 -13t28.5 -13t33.5 -6q21 0 32.5 7t17.5 15.5t7.5 16t1.5 9.5h20q0 -3 -2.5 -14t-10.5 -23
t-24.5 -21t-43.5 -9z" />
    <glyph glyph-name="Imacron" unicode="&#x12a;" horiz-adv-x="218" 
d="M99 0v710h20v-710h-20zM-31 874v20h280v-20h-280z" />
    <glyph glyph-name="imacron" unicode="&#x12b;" horiz-adv-x="188" 
d="M84 0v519h20v-519h-20zM-46 686v20h280v-20h-280z" />
    <glyph glyph-name="Ibreve" unicode="&#x12c;" horiz-adv-x="218" 
d="M99 0v710h20v-710h-20zM109 858q20 0 36.5 17.5t19.5 42.5h18q0 -15 -6 -29t-16.5 -24.5t-23.5 -17t-28 -6.5t-28 6.5t-23.5 17t-16.5 24.5t-6 29h19q0 -23 17 -41.5t38 -18.5z" />
    <glyph glyph-name="ibreve" unicode="&#x12d;" horiz-adv-x="188" 
d="M84 0v519h20v-519h-20zM94 670q20 0 36.5 17.5t19.5 42.5h18q0 -15 -6 -29t-16.5 -24.5t-23.5 -17t-28 -6.5t-28 6.5t-23.5 17t-16.5 24.5t-6 29h19q0 -23 17 -41.5t38 -18.5z" />
    <glyph glyph-name="Iogonek" unicode="&#x12e;" horiz-adv-x="218" 
d="M70 -159q-25 6 -38.5 22t-13.5 39q0 26 18.5 50t62.5 56v702h20v-710q-45 -31 -63 -51.5t-18 -43.5q0 -38 44 -47l-12 -17v0z" />
    <glyph glyph-name="iogonek" unicode="&#x12f;" horiz-adv-x="189" 
d="M56 -159q-25 6 -38.5 22t-13.5 39q0 26 18.5 50t62.5 56v511h20v-519q-45 -31 -63 -51.5t-18 -43.5q0 -38 44 -47zM85 653v77h20v-77h-20z" />
    <glyph glyph-name="Idotaccent" unicode="&#x130;" horiz-adv-x="218" 
d="M99 0v710h20v-710h-20zM99 841v77h20v-77h-20z" />
    <glyph glyph-name="dotlessi" unicode="&#x131;" horiz-adv-x="188" 
d="M84 0v519h20v-519h-20z" />
    <glyph glyph-name="IJ" unicode="&#x132;" horiz-adv-x="691" 
d="M99 0v710h20v-710h-20zM248 49q58 -40 143 -40q64 0 101.5 23.5t57 67t25.5 106.5t6 143v361h20v-361q0 -81 -6.5 -147.5t-28.5 -113.5t-63.5 -73t-111.5 -26q-90 0 -154 44z" />
    <glyph glyph-name="ij" unicode="&#x133;" horiz-adv-x="384" 
d="M84 0v519h20v-519h-20zM84 653v77h20v-77h-20zM167 -170q-29 0 -54.5 7t-45.5 27l16 12q18 -16 40 -21t43 -5t41 9t36.5 24t26.5 36t10 45v555h20v-555q0 -29 -12 -53.5t-31 -42.5t-43 -28t-47 -10zM280 653v77h20v-77h-20z" />
    <glyph glyph-name="Jcircumflex" unicode="&#x134;" horiz-adv-x="473" 
d="M30 49q58 -40 143 -40q64 0 101.5 23.5t57 67t25.5 106.5t6 143v361h20v-361q0 -81 -6.5 -147.5t-28.5 -113.5t-63.5 -73t-111.5 -26q-90 0 -154 44zM272 844l93 74h16l93 -74l-16 -12l-85 63l-85 -63z" />
    <glyph glyph-name="jcircumflex" unicode="&#x135;" horiz-adv-x="188" 
d="M-29 -170q-29 0 -54.5 7t-45.5 27l16 12q18 -16 40 -21t43 -5t41 9t36.5 24t26.5 36t10 45v555h20v-555q0 -29 -12 -53.5t-31 -42.5t-43 -28t-47 -10zM-7 656l93 74h16l93 -74l-16 -12l-85 63l-85 -63z" />
    <glyph glyph-name="Kcommaaccent" unicode="&#x136;" horiz-adv-x="621" 
d="M99 0v710h20v-461l452 461h29l-303 -310l317 -400h-26l-306 386l-163 -165v-221h-20zM297 -167l10 58h-9v59h26v-59l-13 -58h-14z" />
    <glyph glyph-name="kcommaaccent" unicode="&#x137;" horiz-adv-x="508" 
d="M466 0l-221 297l-141 -128v-169h-20v730h20v-534l354 321h27l-225 -206l230 -311h-24zM248 -167l10 58h-9v59h26v-59l-13 -58h-14z" />
    <glyph glyph-name="kgreenlandic" unicode="&#x138;" horiz-adv-x="508" 
d="M466 0l-221 297l-141 -128v-169h-20v519h20v-323l354 321h27l-225 -206l230 -311h-24z" />
    <glyph glyph-name="Lacute" unicode="&#x139;" horiz-adv-x="579" 
d="M99 0v710h20v-690h446v-20h-466zM317 833l-16 12l64 73h34z" />
    <glyph glyph-name="lacute" unicode="&#x13a;" horiz-adv-x="238" 
d="M90 730h20v-653q0 -29 18 -46t48 -17q11 0 26.5 2.5t28.5 6.5l7 -16q-14 -5 -34.5 -8.5t-34.5 -3.5q-35 0 -57 22.5t-22 59.5v653zM76 779l-16 12l64 73h34z" />
    <glyph glyph-name="Lcommaaccent" unicode="&#x13b;" horiz-adv-x="579" 
d="M99 0v710h20v-690h446v-20h-466zM314 -167l10 58h-9v59h26v-59l-13 -58h-14z" />
    <glyph glyph-name="lcommaaccent" unicode="&#x13c;" horiz-adv-x="238" 
d="M90 730h20v-653q0 -29 18 -46t48 -17q11 0 26.5 2.5t28.5 6.5l7 -16q-14 -5 -34.5 -8.5t-34.5 -3.5q-35 0 -57 22.5t-22 59.5v653zM145 -167l10 58h-9v59h26v-59l-13 -58h-14z" />
    <glyph glyph-name="Lcaron" unicode="&#x13d;" horiz-adv-x="579" 
d="M99 0v710h20v-690h446v-20h-466zM356 645l-16 12l64 73h34z" />
    <glyph glyph-name="lcaron" unicode="&#x13e;" horiz-adv-x="238" 
d="M90 730h20v-653q0 -29 18 -46t48 -17q11 0 26.5 2.5t28.5 6.5l7 -16q-14 -5 -34.5 -8.5t-34.5 -3.5q-35 0 -57 22.5t-22 59.5v653zM176 645l-16 12l64 73h34z" />
    <glyph glyph-name="Ldot" unicode="&#x13f;" horiz-adv-x="579" 
d="M99 0v710h20v-690h446v-20h-466zM366 360v83h20v-83h-20z" />
    <glyph glyph-name="ldot" unicode="&#x140;" horiz-adv-x="255" 
d="M90 730h20v-653q0 -29 18 -46t48 -17q11 0 26.5 2.5t28.5 6.5l7 -16q-14 -5 -34.5 -8.5t-34.5 -3.5q-35 0 -57 22.5t-22 59.5v653zM216 250v83h20v-83h-20z" />
    <glyph glyph-name="Lslash" unicode="&#x141;" horiz-adv-x="586" 
d="M106 0v284l-63 -63l-14 15l77 77v397h20v-377l188 188l14 -15l-202 -202v-284h446v-20h-466z" />
    <glyph glyph-name="lslash" unicode="&#x142;" horiz-adv-x="253" 
d="M104 377l-73 -73l-15 14l88 88v324h20v-304l92 92l15 -14l-107 -107v-320q0 -29 18 -46t48 -17q11 0 26.5 2.5t28.5 6.5l7 -16q-14 -5 -34.5 -8.5t-34.5 -3.5q-35 0 -57 22.5t-22 59.5v300z" />
    <glyph glyph-name="Nacute" unicode="&#x143;" horiz-adv-x="776" 
d="M119 671v-671h-20v710h15l543 -681v681h20v-710h-23zM379 833l-16 12l64 73h34z" />
    <glyph glyph-name="nacute" unicode="&#x144;" horiz-adv-x="565" 
d="M487 0h-20v289q0 114 -31.5 166t-101.5 52q-38 0 -74.5 -13.5t-67.5 -37.5t-54 -57t-34 -71v-328h-20v519h20v-134q16 31 41 57.5t55 45t64 29t69 10.5q80 0 117 -57.5t37 -180.5v-289zM266 645l-16 12l64 73h34z" />
    <glyph glyph-name="Ncommaaccent" unicode="&#x145;" horiz-adv-x="776" 
d="M119 671v-671h-20v710h15l543 -681v681h20v-710h-23zM377 -167l10 58h-9v59h26v-59l-13 -58h-14z" />
    <glyph glyph-name="ncommaaccent" unicode="&#x146;" horiz-adv-x="565" 
d="M487 0h-20v289q0 114 -31.5 166t-101.5 52q-38 0 -74.5 -13.5t-67.5 -37.5t-54 -57t-34 -71v-328h-20v519h20v-134q16 31 41 57.5t55 45t64 29t69 10.5q80 0 117 -57.5t37 -180.5v-289zM263 -167l10 58h-9v59h26v-59l-13 -58h-14z" />
    <glyph glyph-name="Ncaron" unicode="&#x147;" horiz-adv-x="776" 
d="M119 671v-671h-20v710h15l543 -681v681h20v-710h-23zM308 918l85 -63l85 63l16 -12l-93 -74h-16l-93 74z" />
    <glyph glyph-name="ncaron" unicode="&#x148;" horiz-adv-x="565" 
d="M487 0h-20v289q0 114 -31.5 166t-101.5 52q-38 0 -74.5 -13.5t-67.5 -37.5t-54 -57t-34 -71v-328h-20v519h20v-134q16 31 41 57.5t55 45t64 29t69 10.5q80 0 117 -57.5t37 -180.5v-289zM195 730l85 -63l85 63l16 -12l-93 -74h-16l-93 74z" />
    <glyph glyph-name="napostrophe" unicode="&#x149;" horiz-adv-x="565" 
d="M487 0h-20v289q0 114 -31.5 166t-101.5 52q-38 0 -74.5 -13.5t-67.5 -37.5t-54 -57t-34 -71v-328h-20v519h20v-134q16 31 41 57.5t55 45t64 29t69 10.5q80 0 117 -57.5t37 -180.5v-289zM26 645l-16 12l41 47l3 26h54z" />
    <glyph glyph-name="Eng" unicode="&#x14a;" horiz-adv-x="776" 
d="M119 671v-671h-20v710h15l543 -681v680h20v-745q0 -29 -12 -53.5t-31 -42.5t-43 -28t-47 -10q-29 0 -54.5 7t-45.5 27l16 12q18 -16 40 -21t43 -5t41 9t36.5 24t26.5 36t10 45v32z" />
    <glyph glyph-name="eng" unicode="&#x14b;" horiz-adv-x="565" 
d="M354 -170q-29 0 -54.5 7t-45.5 27l16 12q18 -16 40 -21t43 -5t41 9t36.5 24t26.5 36t10 45v325q0 114 -31.5 166t-101.5 52q-38 0 -74.5 -13.5t-67.5 -37.5t-54 -57t-34 -71v-328h-20v519h20v-134q16 31 41 57.5t55 45t64 29t69 10.5q80 0 117 -57.5t37 -180.5v-325
q0 -29 -12 -53.5t-31 -42.5t-43 -28t-47 -10z" />
    <glyph glyph-name="Omacron" unicode="&#x14c;" horiz-adv-x="757" 
d="M379 -5q-74 0 -134.5 31t-104.5 81t-68 115t-24 133q0 71 25.5 136t70 115t105 79.5t130.5 29.5q73 0 134 -31.5t104.5 -82.5t67.5 -115.5t24 -130.5q0 -72 -25.5 -137t-70 -114.5t-104.5 -79t-130 -29.5zM68 355q0 -66 23.5 -127.5t64.5 -109t98 -75.5t125 -28
q69 0 126.5 29.5t98 77.5t63 109t22.5 124q0 66 -23.5 127.5t-65.5 109t-98.5 75.5t-122.5 28q-69 0 -126.5 -29.5t-98.5 -77.5t-63.5 -109t-22.5 -124zM239 874v20h280v-20h-280z" />
    <glyph glyph-name="omacron" unicode="&#x14d;" horiz-adv-x="586" 
d="M293 -10q-51 0 -96 21.5t-78.5 58t-53 85.5t-19.5 103q0 55 19.5 103.5t53.5 85.5t79 58.5t95 21.5t95 -21.5t78.5 -58.5t53.5 -85.5t20 -103.5q0 -54 -19.5 -103t-53 -85.5t-78.5 -58t-96 -21.5zM66 256q0 -50 18 -95t48.5 -78.5t71.5 -53t88 -19.5q46 0 87.5 20t73 54
t49.5 79t18 96q0 50 -18 95t-49 79t-72.5 54t-87.5 20t-87.5 -20t-72.5 -54.5t-49 -80t-18 -96.5zM153 686v20h280v-20h-280z" />
    <glyph glyph-name="Obreve" unicode="&#x14e;" horiz-adv-x="757" 
d="M379 -5q-74 0 -134.5 31t-104.5 81t-68 115t-24 133q0 71 25.5 136t70 115t105 79.5t130.5 29.5q73 0 134 -31.5t104.5 -82.5t67.5 -115.5t24 -130.5q0 -72 -25.5 -137t-70 -114.5t-104.5 -79t-130 -29.5zM68 355q0 -66 23.5 -127.5t64.5 -109t98 -75.5t125 -28
q69 0 126.5 29.5t98 77.5t63 109t22.5 124q0 66 -23.5 127.5t-65.5 109t-98.5 75.5t-122.5 28q-69 0 -126.5 -29.5t-98.5 -77.5t-63.5 -109t-22.5 -124zM379 858q20 0 36.5 17.5t19.5 42.5h18q0 -15 -6 -29t-16.5 -24.5t-23.5 -17t-28 -6.5t-28 6.5t-23.5 17t-16.5 24.5
t-6 29h19q0 -23 17 -41.5t38 -18.5z" />
    <glyph glyph-name="obreve" unicode="&#x14f;" horiz-adv-x="586" 
d="M293 -10q-51 0 -96 21.5t-78.5 58t-53 85.5t-19.5 103q0 55 19.5 103.5t53.5 85.5t79 58.5t95 21.5t95 -21.5t78.5 -58.5t53.5 -85.5t20 -103.5q0 -54 -19.5 -103t-53 -85.5t-78.5 -58t-96 -21.5zM66 256q0 -50 18 -95t48.5 -78.5t71.5 -53t88 -19.5q46 0 87.5 20t73 54
t49.5 79t18 96q0 50 -18 95t-49 79t-72.5 54t-87.5 20t-87.5 -20t-72.5 -54.5t-49 -80t-18 -96.5zM293 670q20 0 36.5 17.5t19.5 42.5h18q0 -15 -6 -29t-16.5 -24.5t-23.5 -17t-28 -6.5t-28 6.5t-23.5 17t-16.5 24.5t-6 29h19q0 -23 17 -41.5t38 -18.5z" />
    <glyph glyph-name="Ohungarumlaut" unicode="&#x150;" horiz-adv-x="757" 
d="M379 -5q-74 0 -134.5 31t-104.5 81t-68 115t-24 133q0 71 25.5 136t70 115t105 79.5t130.5 29.5q73 0 134 -31.5t104.5 -82.5t67.5 -115.5t24 -130.5q0 -72 -25.5 -137t-70 -114.5t-104.5 -79t-130 -29.5zM68 355q0 -66 23.5 -127.5t64.5 -109t98 -75.5t125 -28
q69 0 126.5 29.5t98 77.5t63 109t22.5 124q0 66 -23.5 127.5t-65.5 109t-98.5 75.5t-122.5 28q-69 0 -126.5 -29.5t-98.5 -77.5t-63.5 -109t-22.5 -124zM315 833l-16 12l64 73h34zM415 833l-16 12l64 73h34z" />
    <glyph glyph-name="ohungarumlaut" unicode="&#x151;" horiz-adv-x="586" 
d="M293 -10q-51 0 -96 21.5t-78.5 58t-53 85.5t-19.5 103q0 55 19.5 103.5t53.5 85.5t79 58.5t95 21.5t95 -21.5t78.5 -58.5t53.5 -85.5t20 -103.5q0 -54 -19.5 -103t-53 -85.5t-78.5 -58t-96 -21.5zM66 256q0 -50 18 -95t48.5 -78.5t71.5 -53t88 -19.5q46 0 87.5 20t73 54
t49.5 79t18 96q0 50 -18 95t-49 79t-72.5 54t-87.5 20t-87.5 -20t-72.5 -54.5t-49 -80t-18 -96.5zM229 645l-16 12l64 73h34zM329 645l-16 12l64 73h34z" />
    <glyph glyph-name="OE" unicode="&#x152;" horiz-adv-x="1207" 
d="M1155 20v-20h-466v234q-17 -50 -47 -94t-70 -76t-88.5 -50.5t-102.5 -18.5q-74 0 -135 30.5t-105 81t-68.5 115.5t-24.5 133q0 71 25.5 136t70 115t105 79.5t130.5 29.5q57 0 106 -19t89 -52t69 -76.5t46 -92.5v235h457v-20h-437v-317h383v-20h-383v-333h446zM379 15
q69 0 126.5 29.5t98 77.5t63 109.5t22.5 124.5q0 66 -23.5 127t-65.5 108.5t-98.5 75.5t-122.5 28q-69 0 -126.5 -29.5t-98.5 -77.5t-63.5 -109t-22.5 -124q0 -66 23.5 -127.5t64.5 -109t98 -75.5t125 -28z" />
    <glyph glyph-name="oe" unicode="&#x153;" horiz-adv-x="1050" 
d="M291 -10q-51 0 -95.5 21t-78 57t-52.5 84.5t-19 104.5t19.5 105t53 86t79 58t97.5 21q41 0 78.5 -14t68.5 -39.5t53 -61.5t33 -80q10 45 32 81t53 61.5t70 39t83 13.5q52 0 95 -18.5t75 -53.5t52 -84.5t26 -111.5l1 -11h-475q4 -50 24.5 -93.5t52.5 -75.5t74.5 -50.5
t89.5 -18.5q31 0 60.5 8t54 22.5t43 34.5t28.5 44l19 -5q-11 -27 -32.5 -50t-49 -39.5t-60 -25.5t-65.5 -9q-42 0 -81.5 14.5t-73 40.5t-58 62t-36.5 78q-12 -44 -35 -80t-54.5 -61.5t-69.5 -39.5t-80 -14zM292 10q47 0 88.5 19.5t72.5 53t49 79t18 96.5t-18 96.5
t-48.5 79.5t-72 53.5t-87.5 19.5q-47 0 -88.5 -20t-72.5 -54.5t-49 -80t-18 -97.5q0 -51 17.5 -95.5t48.5 -78t72 -52.5t88 -19zM994 268q-3 52 -22 96t-49.5 75.5t-70.5 49.5t-86 18t-86 -18t-70.5 -50t-48.5 -76t-21 -95h454z" />
    <glyph glyph-name="Racute" unicode="&#x154;" horiz-adv-x="642" 
d="M99 0v710h289q43 0 80 -18.5t63.5 -49t41.5 -69t15 -78.5q0 -41 -13 -79t-37 -67.5t-57.5 -48t-73.5 -21.5l180 -279h-24l-180 279h-264v-279h-20zM119 299h276q40 0 72 17t54.5 44.5t34.5 62.5t12 72q0 38 -14 73t-38.5 62t-57.5 43.5t-70 16.5h-269v-391zM302 836
l-16 12l64 73h34z" />
    <glyph glyph-name="racute" unicode="&#x155;" horiz-adv-x="323" 
d="M306 499q-74 -3 -127.5 -48t-74.5 -123v-328h-20v519h20v-134q27 55 72.5 90.5t96.5 41.5q10 1 18.5 1.5t14.5 0.5v-20zM162 645l-16 12l64 73h34z" />
    <glyph glyph-name="Rcommaaccent" unicode="&#x156;" horiz-adv-x="642" 
d="M99 0v710h289q43 0 80 -18.5t63.5 -49t41.5 -69t15 -78.5q0 -41 -13 -79t-37 -67.5t-57.5 -48t-73.5 -21.5l180 -279h-24l-180 279h-264v-279h-20zM119 299h276q40 0 72 17t54.5 44.5t34.5 62.5t12 72q0 38 -14 73t-38.5 62t-57.5 43.5t-70 16.5h-269v-391zM299 -167
l10 58h-9v59h26v-59l-13 -58h-14z" />
    <glyph glyph-name="rcommaaccent" unicode="&#x157;" horiz-adv-x="323" 
d="M306 499q-74 -3 -127.5 -48t-74.5 -123v-328h-20v519h20v-134q27 55 72.5 90.5t96.5 41.5q10 1 18.5 1.5t14.5 0.5v-20zM77 -167l10 58h-9v59h26v-59l-13 -58h-14z" />
    <glyph glyph-name="Rcaron" unicode="&#x158;" horiz-adv-x="642" 
d="M99 0v710h289q43 0 80 -18.5t63.5 -49t41.5 -69t15 -78.5q0 -41 -13 -79t-37 -67.5t-57.5 -48t-73.5 -21.5l180 -279h-24l-180 279h-264v-279h-20zM119 299h276q40 0 72 17t54.5 44.5t34.5 62.5t12 72q0 38 -14 73t-38.5 62t-57.5 43.5t-70 16.5h-269v-391zM231 921
l85 -63l85 63l16 -12l-93 -74h-16l-93 74z" />
    <glyph glyph-name="rcaron" unicode="&#x159;" horiz-adv-x="323" 
d="M306 499q-74 -3 -127.5 -48t-74.5 -123v-328h-20v519h20v-134q27 55 72.5 90.5t96.5 41.5q10 1 18.5 1.5t14.5 0.5v-20zM91 730l85 -63l85 63l16 -12l-93 -74h-16l-93 74z" />
    <glyph glyph-name="Sacute" unicode="&#x15a;" horiz-adv-x="602" 
d="M509 616q-42 46 -87.5 63t-108.5 17q-61 0 -104.5 -12t-71.5 -34.5t-41 -53.5t-13 -70q0 -38 13 -63.5t40 -43t69.5 -30t101.5 -24.5t107 -26t81.5 -35t51.5 -52t18 -78q0 -87 -66.5 -133t-183.5 -46q-86 0 -152.5 26.5t-123.5 83.5l15 13q54 -56 117.5 -81t144.5 -25
q106 0 167.5 39.5t61.5 119.5q0 40 -14 67.5t-43 47.5t-74 34t-106 26q-59 11 -104.5 23.5t-77 32t-47.5 49t-16 73.5q0 46 17.5 81.5t50 60t78 37t102.5 12.5q68 0 118.5 -19.5t92.5 -65.5zM294 855l-16 12l64 73h34z" />
    <glyph glyph-name="sacute" unicode="&#x15b;" horiz-adv-x="471" 
d="M235 -10q-121 0 -198 84l15 13q40 -39 83.5 -58t99.5 -19q77 0 125 33t48 93q0 28 -12 46.5t-35 32t-57 23t-77 19.5q-42 10 -73 18.5t-51.5 21.5t-31 32.5t-10.5 50.5q0 39 15 66.5t40 45.5t58 26.5t70 8.5q63 0 107.5 -21.5t61.5 -53.5l-18 -8q-19 31 -62 47t-93 16
q-32 0 -61 -7t-51 -22t-34.5 -38.5t-12.5 -56.5q0 -26 8.5 -42.5t26.5 -27.5t46 -19t66 -17q46 -11 83.5 -21t63 -25t39.5 -36.5t14 -55.5t-14 -61.5t-39 -47t-61 -30t-79 -10.5zM226 645l-16 12l64 73h34z" />
    <glyph glyph-name="Scircumflex" unicode="&#x15c;" horiz-adv-x="602" 
d="M509 616q-42 46 -87.5 63t-108.5 17q-61 0 -104.5 -12t-71.5 -34.5t-41 -53.5t-13 -70q0 -38 13 -63.5t40 -43t69.5 -30t101.5 -24.5t107 -26t81.5 -35t51.5 -52t18 -78q0 -87 -66.5 -133t-183.5 -46q-86 0 -152.5 26.5t-123.5 83.5l15 13q54 -56 117.5 -81t144.5 -25
q106 0 167.5 39.5t61.5 119.5q0 40 -14 67.5t-43 47.5t-74 34t-106 26q-59 11 -104.5 23.5t-77 32t-47.5 49t-16 73.5q0 46 17.5 81.5t50 60t78 37t102.5 12.5q68 0 118.5 -19.5t92.5 -65.5zM207 866l93 74h16l93 -74l-16 -12l-85 63l-85 -63z" />
    <glyph glyph-name="scircumflex" unicode="&#x15d;" horiz-adv-x="471" 
d="M235 -10q-121 0 -198 84l15 13q40 -39 83.5 -58t99.5 -19q77 0 125 33t48 93q0 28 -12 46.5t-35 32t-57 23t-77 19.5q-42 10 -73 18.5t-51.5 21.5t-31 32.5t-10.5 50.5q0 39 15 66.5t40 45.5t58 26.5t70 8.5q63 0 107.5 -21.5t61.5 -53.5l-18 -8q-19 31 -62 47t-93 16
q-32 0 -61 -7t-51 -22t-34.5 -38.5t-12.5 -56.5q0 -26 8.5 -42.5t26.5 -27.5t46 -19t66 -17q46 -11 83.5 -21t63 -25t39.5 -36.5t14 -55.5t-14 -61.5t-39 -47t-61 -30t-79 -10.5zM139 656l93 74h16l93 -74l-16 -12l-85 63l-85 -63z" />
    <glyph glyph-name="uni015E" unicode="&#x15e;" horiz-adv-x="604" 
d="M242 -125q15 -7 38 -12.5t49 -5.5q58 0 58 38q0 21 -13.5 29.5t-34.5 8.5t-44 -5.5t-37 -10.5l45 78q-81 2 -144.5 29t-118.5 81l15 13q54 -56 117.5 -81t144.5 -25q106 0 167.5 39.5t61.5 119.5q0 40 -14 67.5t-43 47.5t-74 34t-106 26q-59 11 -104.5 23.5t-77 32
t-47.5 49t-16 73.5q0 46 17.5 81.5t50 60t78 37t102.5 12.5q68 0 118.5 -19.5t92.5 -65.5l-13 -14q-42 46 -87.5 63t-108.5 17q-61 0 -104.5 -12t-71.5 -34.5t-41 -53.5t-13 -70q0 -38 13 -63.5t40 -43t69.5 -30t101.5 -24.5t107 -26t81.5 -35t51.5 -52t18 -78
q0 -85 -63.5 -131t-175.5 -48l-30 -52q10 4 22 5t20 1q68 0 68 -54q0 -30 -21.5 -43.5t-59.5 -13.5q-26 0 -50.5 5.5t-43.5 13.5z" />
    <glyph glyph-name="uni015F" unicode="&#x15f;" horiz-adv-x="472" 
d="M159 -127q15 -7 38 -12.5t49 -5.5q58 0 58 38q0 21 -13.5 29.5t-34.5 8.5t-44 -5.5t-37 -10.5l43 76q-110 5 -181 83l15 13q40 -39 83.5 -58t99.5 -19q77 0 125 33t48 93q0 28 -12 46.5t-35 32t-57 23t-77 19.5q-42 10 -73 18.5t-51.5 21.5t-31 32.5t-10.5 50.5
q0 39 15 66.5t40 45.5t58 26.5t70 8.5q63 0 107.5 -21.5t61.5 -53.5l-18 -8q-19 31 -62 47t-93 16q-32 0 -61 -7t-51 -22t-34.5 -38.5t-12.5 -56.5q0 -26 8.5 -42.5t26.5 -27.5t46 -19t66 -17q46 -11 83.5 -21t63 -25t39.5 -36.5t14 -55.5q0 -33 -13.5 -60t-37.5 -46.5
t-58.5 -30.5t-76.5 -12l-28 -49q10 4 22 5t20 1q68 0 68 -54q0 -30 -21.5 -43.5t-59.5 -13.5q-26 0 -50.5 5.5t-43.5 13.5z" />
    <glyph glyph-name="Scaron" unicode="&#x160;" horiz-adv-x="602" 
d="M509 616q-42 46 -87.5 63t-108.5 17q-61 0 -104.5 -12t-71.5 -34.5t-41 -53.5t-13 -70q0 -38 13 -63.5t40 -43t69.5 -30t101.5 -24.5t107 -26t81.5 -35t51.5 -52t18 -78q0 -87 -66.5 -133t-183.5 -46q-86 0 -152.5 26.5t-123.5 83.5l15 13q54 -56 117.5 -81t144.5 -25
q106 0 167.5 39.5t61.5 119.5q0 40 -14 67.5t-43 47.5t-74 34t-106 26q-59 11 -104.5 23.5t-77 32t-47.5 49t-16 73.5q0 46 17.5 81.5t50 60t78 37t102.5 12.5q68 0 118.5 -19.5t92.5 -65.5zM223 940l85 -63l85 63l16 -12l-93 -74h-16l-93 74z" />
    <glyph glyph-name="scaron" unicode="&#x161;" horiz-adv-x="471" 
d="M235 -10q-121 0 -198 84l15 13q40 -39 83.5 -58t99.5 -19q77 0 125 33t48 93q0 28 -12 46.5t-35 32t-57 23t-77 19.5q-42 10 -73 18.5t-51.5 21.5t-31 32.5t-10.5 50.5q0 39 15 66.5t40 45.5t58 26.5t70 8.5q63 0 107.5 -21.5t61.5 -53.5l-18 -8q-19 31 -62 47t-93 16
q-32 0 -61 -7t-51 -22t-34.5 -38.5t-12.5 -56.5q0 -26 8.5 -42.5t26.5 -27.5t46 -19t66 -17q46 -11 83.5 -21t63 -25t39.5 -36.5t14 -55.5t-14 -61.5t-39 -47t-61 -30t-79 -10.5zM155 730l85 -63l85 63l16 -12l-93 -74h-16l-93 74z" />
    <glyph glyph-name="uni0162" unicode="&#x162;" horiz-adv-x="599" 
d="M221 -125q15 -7 38 -12.5t49 -5.5q58 0 58 38q0 21 -13.5 29.5t-34.5 8.5t-44 -5.5t-37 -10.5l52 90v683h-272v20h564v-20h-272v-690l-33 -57q10 4 22 5t20 1q68 0 68 -54q0 -30 -21.5 -43.5t-59.5 -13.5q-26 0 -50.5 5.5t-43.5 13.5z" />
    <glyph glyph-name="uni0163" unicode="&#x163;" horiz-adv-x="295" 
d="M115 -125q15 -7 38 -12.5t49 -5.5q58 0 58 38q0 21 -13.5 29.5t-34.5 8.5t-44 -5.5t-37 -10.5l45 79q-31 5 -53 26t-22 53v424h-75v20h75v181h20v-181h125v-20h-125v-424q2 -29 23 -44.5t47 -15.5q17 0 32 3.5t26.5 8t18 8.5t7.5 5l11 -16l-6.5 -4.5t-18 -9.5t-27 -9.5
t-34.5 -5.5l-30 -52q10 4 22 5t20 1q68 0 68 -54q0 -30 -21.5 -43.5t-59.5 -13.5q-26 0 -50.5 5.5t-43.5 13.5z" />
    <glyph glyph-name="Tcaron" unicode="&#x164;" horiz-adv-x="600" 
d="M582 690h-272v-690h-20v690h-272v20h564v-20zM215 918l85 -63l85 63l16 -12l-93 -74h-16l-93 74z" />
    <glyph glyph-name="tcaron" unicode="&#x165;" horiz-adv-x="295" 
d="M286 24l-7.5 -5t-20 -10t-29.5 -9.5t-38 -4.5q-36 0 -63 22t-27 58v424h-75v20h75v181h20v-181h125v-20h-125v-424q2 -29 23 -44.5t47 -15.5q17 0 32 3.5t26.5 8t18 8.5t7.5 5zM216 645l-16 12l64 73h34z" />
    <glyph glyph-name="Tbar" unicode="&#x166;" horiz-adv-x="640" 
d="M602 690h-272v-266h242v-20h-242v-404h-20v404h-242v20h242v266h-272v20h564v-20z" />
    <glyph glyph-name="tbar" unicode="&#x167;" horiz-adv-x="297" 
d="M287 24l-7.5 -5t-20 -10t-29.5 -9.5t-38 -4.5q-36 0 -63 22t-27 58v264h-75v20h75v140h-75v20h75v181h20v-181h125v-20h-125v-140h125v-20h-125v-264q2 -29 23 -44.5t47 -15.5q17 0 32 3.5t26.5 8t18 8.5t7.5 5z" />
    <glyph glyph-name="Utilde" unicode="&#x168;" horiz-adv-x="756" 
d="M378 15q80 0 132.5 30t83 78t43 109t12.5 123v355h20v-355q0 -71 -14.5 -136t-48.5 -114.5t-89.5 -79.5t-137.5 -30q-84 0 -140 31t-89.5 82t-47.5 115.5t-14 131.5v355h20v-355q0 -64 12.5 -125t43.5 -109t83 -77t131 -29zM440 851q-22 0 -38.5 6t-30.5 13t-27.5 13
t-28.5 6q-16 0 -26 -6.5t-15.5 -15t-7.5 -16.5t-2 -10h-20q0 2 2 13t9.5 23t22 21.5t39.5 9.5q19 0 34 -6t29 -13t28.5 -13t33.5 -6q21 0 32.5 7t17.5 15.5t7.5 16t1.5 9.5h20q0 -3 -2.5 -14t-10.5 -23t-24.5 -21t-43.5 -9z" />
    <glyph glyph-name="utilde" unicode="&#x169;" 
d="M245 -10q-167 0 -167 238v291h20v-291q0 -218 147 -218q37 0 73 13.5t66 37t52.5 56.5t34.5 72v330h20v-479q0 -20 16 -20v-20q-11 0 -14 2q-10 4 -16 14.5t-6 23.5v92q-34 -66 -95 -104t-131 -38zM343 663q-22 0 -38.5 6t-30.5 13t-27.5 13t-28.5 6q-16 0 -26 -6.5
t-15.5 -15t-7.5 -16.5t-2 -10h-20q0 2 2 13t9.5 23t22 21.5t39.5 9.5q19 0 34 -6t29 -13t28.5 -13t33.5 -6q21 0 32.5 7t17.5 15.5t7.5 16t1.5 9.5h20q0 -3 -2.5 -14t-10.5 -23t-24.5 -21t-43.5 -9z" />
    <glyph glyph-name="Umacron" unicode="&#x16a;" horiz-adv-x="756" 
d="M378 15q80 0 132.5 30t83 78t43 109t12.5 123v355h20v-355q0 -71 -14.5 -136t-48.5 -114.5t-89.5 -79.5t-137.5 -30q-84 0 -140 31t-89.5 82t-47.5 115.5t-14 131.5v355h20v-355q0 -64 12.5 -125t43.5 -109t83 -77t131 -29zM239 874v20h280v-20h-280z" />
    <glyph glyph-name="umacron" unicode="&#x16b;" 
d="M245 -10q-167 0 -167 238v291h20v-291q0 -218 147 -218q37 0 73 13.5t66 37t52.5 56.5t34.5 72v330h20v-479q0 -20 16 -20v-20q-11 0 -14 2q-10 4 -16 14.5t-6 23.5v92q-34 -66 -95 -104t-131 -38zM142 686v20h280v-20h-280z" />
    <glyph glyph-name="Ubreve" unicode="&#x16c;" horiz-adv-x="756" 
d="M378 15q80 0 132.5 30t83 78t43 109t12.5 123v355h20v-355q0 -71 -14.5 -136t-48.5 -114.5t-89.5 -79.5t-137.5 -30q-84 0 -140 31t-89.5 82t-47.5 115.5t-14 131.5v355h20v-355q0 -64 12.5 -125t43.5 -109t83 -77t131 -29zM379 858q20 0 36.5 17.5t19.5 42.5h18
q0 -15 -6 -29t-16.5 -24.5t-23.5 -17t-28 -6.5t-28 6.5t-23.5 17t-16.5 24.5t-6 29h19q0 -23 17 -41.5t38 -18.5z" />
    <glyph glyph-name="ubreve" unicode="&#x16d;" 
d="M245 -10q-167 0 -167 238v291h20v-291q0 -218 147 -218q37 0 73 13.5t66 37t52.5 56.5t34.5 72v330h20v-479q0 -20 16 -20v-20q-11 0 -14 2q-10 4 -16 14.5t-6 23.5v92q-34 -66 -95 -104t-131 -38zM282 670q20 0 36.5 17.5t19.5 42.5h18q0 -15 -6 -29t-16.5 -24.5
t-23.5 -17t-28 -6.5t-28 6.5t-23.5 17t-16.5 24.5t-6 29h19q0 -23 17 -41.5t38 -18.5z" />
    <glyph glyph-name="Uring" unicode="&#x16e;" horiz-adv-x="756" 
d="M378 15q80 0 132.5 30t83 78t43 109t12.5 123v355h20v-355q0 -71 -14.5 -136t-48.5 -114.5t-89.5 -79.5t-137.5 -30q-84 0 -140 31t-89.5 82t-47.5 115.5t-14 131.5v355h20v-355q0 -64 12.5 -125t43.5 -109t83 -77t131 -29zM322 861q0 24 16.5 40.5t40.5 16.5t40.5 -16.5
t16.5 -40.5t-16.5 -40.5t-40.5 -16.5t-40.5 16.5t-16.5 40.5zM379 902q-17 0 -29 -11t-12 -30q0 -17 12 -29t29 -12q15 0 28 11.5t13 29.5q0 19 -12 30t-29 11z" />
    <glyph glyph-name="uring" unicode="&#x16f;" 
d="M245 -10q-167 0 -167 238v291h20v-291q0 -218 147 -218q37 0 73 13.5t66 37t52.5 56.5t34.5 72v330h20v-479q0 -20 16 -20v-20q-11 0 -14 2q-10 4 -16 14.5t-6 23.5v92q-34 -66 -95 -104t-131 -38zM225 673q0 24 16.5 40.5t40.5 16.5t40.5 -16.5t16.5 -40.5t-16.5 -40.5
t-40.5 -16.5t-40.5 16.5t-16.5 40.5zM282 714q-17 0 -29 -11t-12 -30q0 -17 12 -29t29 -12q15 0 28 11.5t13 29.5q0 19 -12 30t-29 11z" />
    <glyph glyph-name="Uhungarumlaut" unicode="&#x170;" horiz-adv-x="756" 
d="M378 15q80 0 132.5 30t83 78t43 109t12.5 123v355h20v-355q0 -71 -14.5 -136t-48.5 -114.5t-89.5 -79.5t-137.5 -30q-84 0 -140 31t-89.5 82t-47.5 115.5t-14 131.5v355h20v-355q0 -64 12.5 -125t43.5 -109t83 -77t131 -29zM315 833l-16 12l64 73h34zM415 833l-16 12
l64 73h34z" />
    <glyph glyph-name="uhungarumlaut" unicode="&#x171;" 
d="M245 -10q-167 0 -167 238v291h20v-291q0 -218 147 -218q37 0 73 13.5t66 37t52.5 56.5t34.5 72v330h20v-479q0 -20 16 -20v-20q-11 0 -14 2q-10 4 -16 14.5t-6 23.5v92q-34 -66 -95 -104t-131 -38zM218 645l-16 12l64 73h34zM318 645l-16 12l64 73h34z" />
    <glyph glyph-name="Uogonek" unicode="&#x172;" horiz-adv-x="757" 
d="M354 -163q-25 6 -38.5 22t-13.5 39t16 45.5t53 51.5q-82 1 -136.5 33t-87 82.5t-46 114.5t-13.5 130v355h20v-355q0 -64 12.5 -125t43.5 -109t83 -77t131 -29q80 0 132.5 30t83 78t43 109t12.5 123v355h20v-355q0 -68 -13.5 -131t-45 -112t-82 -80.5t-125.5 -35.5
q-45 -31 -63 -51.5t-18 -43.5q0 -38 44 -47l-12 -17v0z" />
    <glyph glyph-name="uogonek" unicode="&#x173;" 
d="M458 -159q-25 6 -38.5 22t-13.5 39q0 25 18 49t61 55q-14 12 -14 34v92q-34 -66 -95 -104t-131 -38q-167 0 -167 238v291h20v-291q0 -218 147 -218q37 0 73 13.5t66 37t52.5 56.5t34.5 72v330h20v-479q0 -20 16 -20v-20q-45 -31 -63 -51.5t-18 -43.5q0 -38 44 -47
l-12 -17v0z" />
    <glyph glyph-name="Wcircumflex" unicode="&#x174;" horiz-adv-x="1038" 
d="M381 704h22l115 -266l116 266h22l-127 -290l170 -389l298 685h22l-309 -710h-22l-169 389l-169 -389h-22l-309 710h22l298 -685l169 389zM417 844l93 74h16l93 -74l-16 -12l-85 63l-85 -63z" />
    <glyph glyph-name="wcircumflex" unicode="&#x175;" horiz-adv-x="794" 
d="M747 519h22l-227 -519h-18l-127 291l-127 -291h-18l-227 519h22l214 -490l125 287l-87 202h21l77 -176l77 176h21l-87 -202l125 -287zM296 656l93 74h16l93 -74l-16 -12l-85 63l-85 -63z" />
    <glyph glyph-name="Ycircumflex" unicode="&#x176;" horiz-adv-x="641" 
d="M46 710l274 -412l275 412h23l-288 -435v-275h-20v277l-287 433h23zM219 844l93 74h16l93 -74l-16 -12l-85 63l-85 -63z" />
    <glyph glyph-name="ycircumflex" unicode="&#x177;" horiz-adv-x="536" 
d="M128 -203q17 0 29.5 1.5t17.5 8.5q3 3 7 11.5t13 29t25 57t42 95.5l-241 519h22l229 -494l217 494h22l-309 -705q-12 -26 -33 -32q-20 -5 -41 -5v20zM171 656l93 74h16l93 -74l-16 -12l-85 63l-85 -63z" />
    <glyph glyph-name="Ydieresis" unicode="&#x178;" horiz-adv-x="641" 
d="M46 710l274 -412l275 412h23l-288 -435v-275h-20v277l-287 433h23zM252 841v77h20v-77h-20zM368 841v77h20v-77h-20z" />
    <glyph glyph-name="Zacute" unicode="&#x179;" horiz-adv-x="624" 
d="M28 20l542 670h-537v20h562v-20l-542 -670h538v-20h-563v20zM316 833l-16 12l64 73h34z" />
    <glyph glyph-name="zacute" unicode="&#x17a;" horiz-adv-x="488" 
d="M33 20l396 479h-391v20h416v-20l-395 -479h391v-20h-417v20zM245 645l-16 12l64 73h34z" />
    <glyph glyph-name="Zdotaccent" unicode="&#x17b;" horiz-adv-x="624" 
d="M28 20l542 670h-537v20h562v-20l-542 -670h538v-20h-563v20zM320 841v77h20v-77h-20z" />
    <glyph glyph-name="zdotaccent" unicode="&#x17c;" horiz-adv-x="488" 
d="M33 20l396 479h-391v20h416v-20l-395 -479h391v-20h-417v20zM249 653v77h20v-77h-20z" />
    <glyph glyph-name="Zcaron" unicode="&#x17d;" horiz-adv-x="624" 
d="M28 20l542 670h-537v20h562v-20l-542 -670h538v-20h-563v20zM245 918l85 -63l85 63l16 -12l-93 -74h-16l-93 74z" />
    <glyph glyph-name="zcaron" unicode="&#x17e;" horiz-adv-x="488" 
d="M33 20l396 479h-391v20h416v-20l-395 -479h391v-20h-417v20zM174 730l85 -63l85 63l16 -12l-93 -74h-16l-93 74z" />
    <glyph glyph-name="Schwa" unicode="&#x18f;" horiz-adv-x="739" 
d="M366 -10q-71 0 -131.5 28.5t-105.5 77.5t-70.5 115t-25.5 141v10h636q-5 71 -31 132t-68 105.5t-97 69.5t-116 25q-40 0 -78.5 -11t-72.5 -31.5t-60 -49t-40 -63.5l-20 9q14 36 41.5 66.5t64 53t79.5 35t88 12.5q68 0 128.5 -29.5t105.5 -79.5t71.5 -117t26.5 -143
q0 -74 -25.5 -139t-69.5 -113t-103.5 -76t-126.5 -28zM364 12q62 0 116.5 25t95 68.5t65.5 103.5t28 131h-613q5 -72 30 -132t66 -103.5t95 -68t117 -24.5z" />
    <glyph glyph-name="florin" unicode="&#x192;" horiz-adv-x="508" 
d="M130 -170q-29 0 -54.5 7t-45.5 27l16 12q18 -16 40 -21t43 -5t41 9t36.5 24t26.5 36t10 45v474h-75v20h75v82q0 95 36 147.5t101 52.5q29 0 55 -9.5t40 -24.5l-16 -12q-12 12 -33.5 19.5t-44.5 7.5q-57 0 -87.5 -46.5t-30.5 -134.5v-82h155v-20h-155v-474
q0 -29 -12 -53.5t-31 -42.5t-43 -28t-47 -10z" />
    <glyph glyph-name="uni01C4" unicode="&#x1c4;" horiz-adv-x="1335" 
d="M99 0v710h228q84 0 146.5 -28t104 -76t62 -112.5t20.5 -137.5q0 -81 -23.5 -146.5t-66.5 -112t-105 -72t-138 -25.5h-228zM640 356q0 73 -20.5 134t-60.5 105.5t-98.5 69.5t-133.5 25h-208v-670h208q77 0 135.5 25.5t98 70.5t59.5 106.5t20 133.5zM739 20l542 670h-537
v20h562v-20l-542 -670h538v-20h-563v20zM956 918l85 -63l85 63l16 -12l-93 -74h-16l-93 74z" />
    <glyph glyph-name="uni01C5" unicode="&#x1c5;" horiz-adv-x="1199" 
d="M99 0v710h228q84 0 146.5 -28t104 -76t62 -112.5t20.5 -137.5q0 -81 -23.5 -146.5t-66.5 -112t-105 -72t-138 -25.5h-228zM640 356q0 73 -20.5 134t-60.5 105.5t-98.5 69.5t-133.5 25h-208v-670h208q77 0 135.5 25.5t98 70.5t59.5 106.5t20 133.5zM744 20l396 479h-391
v20h416v-20l-395 -479h391v-20h-417v20zM885 730l85 -63l85 63l16 -12l-93 -74h-16l-93 74z" />
    <glyph glyph-name="uni01C6" unicode="&#x1c6;" horiz-adv-x="1092" 
d="M296 -10q-54 0 -100 23t-79.5 61t-52 86t-18.5 98q0 54 18 102.5t50.5 85.5t76.5 59t96 22q36 0 67.5 -10.5t58.5 -28t48.5 -41t37.5 -49.5v332h20v-690q0 -20 16 -20v-20q-9 0 -13 2q-11 5 -17 15.5t-6 22.5v68q-17 -26 -39.5 -47.5t-49 -37.5t-55.5 -24.5t-59 -8.5z
M296 10q30 0 65 13t65 34.5t50.5 50.5t22.5 61v187q-11 31 -34 58.5t-52 48t-62 32.5t-64 12q-51 0 -91.5 -21.5t-69.5 -56.5t-44.5 -80t-15.5 -91q0 -49 18 -93.5t49 -79t73 -55t90 -20.5zM637 20l396 479h-391v20h416v-20l-395 -479h391v-20h-417v20zM778 730l85 -63
l85 63l16 -12l-93 -74h-16l-93 74z" />
    <glyph glyph-name="uni01C7" unicode="&#x1c7;" horiz-adv-x="1052" 
d="M99 0v710h20v-690h446v-20h-466zM609 49q58 -40 143 -40q64 0 101.5 23.5t57 67t25.5 106.5t6 143v361h20v-361q0 -81 -6.5 -147.5t-28.5 -113.5t-63.5 -73t-111.5 -26q-90 0 -154 44z" />
    <glyph glyph-name="uni01C8" unicode="&#x1c8;" horiz-adv-x="775" 
d="M99 0v710h20v-690h446v-20h-466zM558 -170q-29 0 -54.5 7t-45.5 27l16 12q18 -16 40 -21t43 -5t41 9t36.5 24t26.5 36t10 45v555h20v-555q0 -29 -12 -53.5t-31 -42.5t-43 -28t-47 -10zM671 653v77h20v-77h-20z" />
    <glyph glyph-name="uni01C9" unicode="&#x1c9;" horiz-adv-x="434" 
d="M90 730h20v-653q0 -29 18 -46t48 -17q11 0 26.5 2.5t28.5 6.5l7 -16q-14 -5 -34.5 -8.5t-34.5 -3.5q-35 0 -57 22.5t-22 59.5v653zM217 -170q-29 0 -54.5 7t-45.5 27l16 12q18 -16 40 -21t43 -5t41 9t36.5 24t26.5 36t10 45v555h20v-555q0 -29 -12 -53.5t-31 -42.5
t-43 -28t-47 -10zM330 653v77h20v-77h-20z" />
    <glyph glyph-name="uni01CA" unicode="&#x1ca;" horiz-adv-x="1249" 
d="M119 671v-671h-20v710h15l543 -681v681h20v-710h-23zM806 49q58 -40 143 -40q64 0 101.5 23.5t57 67t25.5 106.5t6 143v361h20v-361q0 -81 -6.5 -147.5t-28.5 -113.5t-63.5 -73t-111.5 -26q-90 0 -154 44z" />
    <glyph glyph-name="uni01CB" unicode="&#x1cb;" horiz-adv-x="972" 
d="M119 671v-671h-20v710h15l543 -681v681h20v-710h-23zM755 -170q-29 0 -54.5 7t-45.5 27l16 12q18 -16 40 -21t43 -5t41 9t36.5 24t26.5 36t10 45v555h20v-555q0 -29 -12 -53.5t-31 -42.5t-43 -28t-47 -10zM868 653v77h20v-77h-20z" />
    <glyph glyph-name="uni01CC" unicode="&#x1cc;" horiz-adv-x="761" 
d="M487 0h-20v289q0 114 -31.5 166t-101.5 52q-38 0 -74.5 -13.5t-67.5 -37.5t-54 -57t-34 -71v-328h-20v519h20v-134q16 31 41 57.5t55 45t64 29t69 10.5q80 0 117 -57.5t37 -180.5v-289zM544 -170q-29 0 -54.5 7t-45.5 27l16 12q18 -16 40 -21t43 -5t41 9t36.5 24t26.5 36
t10 45v555h20v-555q0 -29 -12 -53.5t-31 -42.5t-43 -28t-47 -10zM657 653v77h20v-77h-20z" />
    <glyph glyph-name="Oogonek" unicode="&#x1ea;" horiz-adv-x="757" 
d="M349 -163q-25 6 -38.5 22t-13.5 39t16 46t53 52q-71 3 -129.5 34.5t-100.5 81.5t-65 113t-23 130q0 71 25.5 136t70 115t105 79.5t130.5 29.5q73 0 134 -31.5t104.5 -82.5t67.5 -115.5t24 -130.5q0 -69 -24 -132.5t-66 -112.5t-99 -79.5t-123 -34.5q-45 -31 -62.5 -51.5
t-17.5 -43.5q0 -38 44 -47zM68 355q0 -66 23.5 -127.5t64.5 -109t98 -75.5t125 -28q69 0 126.5 29.5t98 77.5t63 109t22.5 124q0 66 -23.5 127.5t-65.5 109t-98.5 75.5t-122.5 28q-69 0 -126.5 -29.5t-98.5 -77.5t-63.5 -109t-22.5 -124z" />
    <glyph glyph-name="oogonek" unicode="&#x1eb;" horiz-adv-x="586" 
d="M266 -168q-25 6 -38.5 22t-13.5 39t16 45.5t53 51.5q-50 2 -93 24.5t-75 58.5t-50.5 84t-18.5 101q0 55 19.5 103.5t53.5 85.5t79 58.5t95 21.5t95 -21.5t78.5 -58.5t53.5 -85.5t20 -103.5q0 -51 -17.5 -97.5t-48 -82.5t-71.5 -59.5t-88 -27.5q-45 -31 -63 -51.5
t-18 -43.5q0 -38 44 -47zM66 256q0 -50 18 -95t48.5 -78.5t71.5 -53t88 -19.5q46 0 87.5 20t73 54t49.5 79t18 96q0 50 -18 95t-49 79t-72.5 54t-87.5 20t-87.5 -20t-72.5 -54.5t-49 -80t-18 -96.5z" />
    <glyph glyph-name="uni01F1" unicode="&#x1f1;" horiz-adv-x="1317" 
d="M99 0v710h228q84 0 146.5 -28t104 -76t62 -112.5t20.5 -137.5q0 -81 -23.5 -146.5t-66.5 -112t-105 -72t-138 -25.5h-228zM640 356q0 73 -20.5 134t-60.5 105.5t-98.5 69.5t-133.5 25h-208v-670h208q77 0 135.5 25.5t98 70.5t59.5 106.5t20 133.5zM721 20l542 670h-537
v20h562v-20l-542 -670h538v-20h-563v20z" />
    <glyph glyph-name="uni01F2" unicode="&#x1f2;" horiz-adv-x="1199" 
d="M99 0v710h228q84 0 146.5 -28t104 -76t62 -112.5t20.5 -137.5q0 -81 -23.5 -146.5t-66.5 -112t-105 -72t-138 -25.5h-228zM640 356q0 73 -20.5 134t-60.5 105.5t-98.5 69.5t-133.5 25h-208v-670h208q77 0 135.5 25.5t98 70.5t59.5 106.5t20 133.5zM744 20l396 479h-391
v20h416v-20l-395 -479h391v-20h-417v20z" />
    <glyph glyph-name="uni01F3" unicode="&#x1f3;" horiz-adv-x="1092" 
d="M296 -10q-54 0 -100 23t-79.5 61t-52 86t-18.5 98q0 54 18 102.5t50.5 85.5t76.5 59t96 22q36 0 67.5 -10.5t58.5 -28t48.5 -41t37.5 -49.5v332h20v-690q0 -20 16 -20v-20q-9 0 -13 2q-11 5 -17 15.5t-6 22.5v68q-17 -26 -39.5 -47.5t-49 -37.5t-55.5 -24.5t-59 -8.5z
M296 10q30 0 65 13t65 34.5t50.5 50.5t22.5 61v187q-11 31 -34 58.5t-52 48t-62 32.5t-64 12q-51 0 -91.5 -21.5t-69.5 -56.5t-44.5 -80t-15.5 -91q0 -49 18 -93.5t49 -79t73 -55t90 -20.5zM637 20l396 479h-391v20h416v-20l-395 -479h391v-20h-417v20z" />
    <glyph glyph-name="Gacute" unicode="&#x1f4;" horiz-adv-x="720" 
d="M639 121q-111 -126 -256 -126q-74 0 -135.5 31.5t-106 82.5t-69 115.5t-24.5 130.5q0 69 24 134t66.5 115.5t102 80.5t130.5 30q55 0 98 -11.5t76 -32t56.5 -49t40.5 -62.5l-19 -6q-41 75 -105 108t-147 33q-70 0 -126 -29.5t-95.5 -77.5t-60.5 -109t-21 -124
q0 -67 24.5 -128.5t67.5 -108.5t100 -75t123 -28q70 0 133 32t123 102v169h-167v20h187v-338h-20v121zM355 833l-16 12l64 73h34z" />
    <glyph glyph-name="gacute" unicode="&#x1f5;" horiz-adv-x="603" 
d="M296 -10q-54 0 -100 23t-79.5 61t-52 86t-18.5 98q0 52 17.5 100.5t49.5 86t76.5 60t97.5 22.5q35 0 65.5 -10t57 -27.5t48.5 -41t41 -50.5v121h20v-541q0 -51 -19 -89t-51 -63t-73.5 -37t-85.5 -12q-92 0 -144 34t-81 90l19 6q32 -59 87.5 -84.5t118.5 -25.5
q43 0 81 11.5t66.5 34.5t45 56.5t16.5 78.5v130q-17 -26 -39.5 -47.5t-49 -37.5t-55.5 -24.5t-59 -8.5zM296 10q37 0 72.5 14.5t63.5 37.5t46.5 51t20.5 56v187q-12 33 -34.5 60.5t-50.5 47.5t-61 31.5t-66 11.5q-53 0 -94 -22.5t-69 -58t-43 -80t-15 -88.5q0 -49 18 -93.5
t49 -79t73 -55t90 -20.5zM280 645l-16 12l64 73h34z" />
    <glyph glyph-name="Aringacute" unicode="&#x1fa;" horiz-adv-x="674" 
d="M280 751q0 24 16.5 40.5t40.5 16.5t40.5 -16.5t16.5 -40.5q0 -20 -12 -35t-30 -20l303 -696h-22l-111 254h-371l-111 -254h-22l304 696q-19 5 -30.5 20t-11.5 35zM513 274l-176 407l-178 -407h354zM337 792q-17 0 -29 -11t-12 -30q0 -17 10.5 -28.5t26.5 -12.5h7
q14 1 26 12.5t12 28.5q0 19 -12 30t-29 11zM323 833l-16 12l64 73h34z" />
    <glyph glyph-name="aringacute" unicode="&#x1fb;" horiz-adv-x="524" 
d="M207 -10q-35 0 -66 12.5t-53.5 34t-35.5 50.5t-13 62t15.5 60t44 46.5t68 30.5t86.5 11q45 0 91 -7.5t83 -21.5v59q0 40 -12 73.5t-34.5 57t-54 36.5t-69.5 13t-81 -16.5t-87 -47.5l-12 16q100 68 180 68q43 0 78.5 -14t60 -40t38 -63t13.5 -83v-287q0 -20 16 -20v-20
q-11 0 -14 2q-10 4 -16 14.5t-6 23.5v48q-36 -47 -94 -72.5t-126 -25.5zM207 10q67 0 122.5 25t82.5 67q15 21 15 41v103q-80 31 -174 31q-44 0 -79.5 -9t-61 -26t-39.5 -40.5t-14 -52.5t11.5 -54.5t31.5 -44.5t47 -29.5t58 -10.5zM200 673q0 24 16.5 40.5t40.5 16.5
t40.5 -16.5t16.5 -40.5t-16.5 -40.5t-40.5 -16.5t-40.5 16.5t-16.5 40.5zM257 714q-17 0 -29 -11t-12 -30q0 -17 12 -29t29 -12q15 0 28 11.5t13 29.5q0 19 -12 30t-29 11zM243 780l-16 12l64 73h34z" />
    <glyph glyph-name="AEacute" unicode="&#x1fc;" horiz-adv-x="962" 
d="M439 710h462v-20h-437v-317h383v-20h-383v-333h446v-20h-466v254h-281l-167 -254h-25zM444 274v404l-269 -404h269zM450 833l-16 12l64 73h34z" />
    <glyph glyph-name="aeacute" unicode="&#x1fd;" horiz-adv-x="928" 
d="M207 -10q-35 0 -66 12.5t-53.5 34t-35.5 50.5t-13 62t15.5 60t44 46.5t68 30.5t86.5 11q36 0 74 -5.5t71 -14.5q3 51 23 99q-13 60 -56.5 95.5t-107.5 35.5q-38 0 -81 -16.5t-87 -47.5l-12 16q100 68 180 68q67 0 113 -32.5t65 -91.5q32 56 87 90t121 34q52 0 97.5 -21
t79 -57t53.5 -85t20 -105v-11h-475q4 -50 23.5 -93.5t50.5 -75.5t71.5 -50.5t85.5 -18.5q30 0 58.5 8t53.5 22.5t44 34.5t30 44l19 -5q-11 -27 -31.5 -49.5t-48 -39t-60 -26t-66.5 -9.5q-65 0 -119 33t-88 88q-16 -32 -42.5 -55t-58.5 -37.5t-66.5 -21.5t-66.5 -7zM207 10
q67 0 122.5 25t82.5 67q12 18 15 35q-28 55 -29 119q-69 21 -145 21q-44 0 -79.5 -9t-61 -26t-39.5 -40.5t-14 -52.5t11.5 -54.5t31.5 -44.5t47 -29.5t58 -10.5zM872 268q-3 52 -22 96t-49.5 75.5t-70.5 49.5t-86 18t-86 -18t-70.5 -50t-48.5 -76t-21 -95h454zM422 645
l-16 12l64 73h34z" />
    <glyph glyph-name="Oslashacute" unicode="&#x1fe;" horiz-adv-x="757" 
d="M619 710l-43 -68q31 -26 55.5 -59t42 -70t26.5 -77.5t9 -80.5q0 -72 -25.5 -137t-70 -114.5t-104.5 -79t-130 -29.5q-52 1 -97.5 16.5t-83.5 42.5l-35 -54h-25l43 67q-63 51 -98 127.5t-35 160.5q0 71 25.5 136t70 115t105 79.5t130.5 29.5q51 0 96 -15.5t83 -43.5l35 54
h26zM689 355q0 79 -33.5 150.5t-90.5 119.5l-357 -554q36 -26 79 -41t92 -15q69 0 126.5 29.5t98 77.5t63 109t22.5 124zM68 355q0 -80 33 -151.5t90 -119.5l356 555q-36 26 -78 41t-90 15q-69 0 -126.5 -29.5t-98.5 -77.5t-63.5 -109t-22.5 -124zM365 833l-16 12l64 73h34z
" />
    <glyph glyph-name="oslashacute" unicode="&#x1ff;" horiz-adv-x="586" 
d="M279 645l-16 12l64 73h34zM123 0l25 41q-47 38 -74.5 94.5t-27.5 122.5q0 55 19.5 103.5t53.5 85.5t79 58.5t95 21.5q35 0 67 -10.5t60 -29.5l20 32h26l-28 -45q46 -38 74 -94t28 -122q0 -54 -19.5 -103t-53 -85.5t-78.5 -58t-96 -21.5q-35 0 -67.5 10t-60.5 29l-17 -29
h-25zM66 256q0 -60 25 -112t67 -86l252 412q-26 17 -55.5 27t-61.5 10q-46 0 -87.5 -20t-72.5 -54.5t-49 -80t-18 -96.5zM292 10q46 0 87.5 20t73 54t49.5 79t18 96q0 60 -25 111t-67 86l-252 -410q53 -36 116 -36z" />
    <glyph glyph-name="Adblgrave" unicode="&#x200;" horiz-adv-x="674" 
d="M328 710h18l309 -710h-22l-111 254h-371l-111 -254h-22zM513 274l-176 407l-178 -407h354zM301 918h34l64 -73l-16 -12zM201 918h34l64 -73l-16 -12z" />
    <glyph glyph-name="adblgrave" unicode="&#x201;" horiz-adv-x="524" 
d="M207 -10q-35 0 -66 12.5t-53.5 34t-35.5 50.5t-13 62t15.5 60t44 46.5t68 30.5t86.5 11q45 0 91 -7.5t83 -21.5v59q0 40 -12 73.5t-34.5 57t-54 36.5t-69.5 13t-81 -16.5t-87 -47.5l-12 16q100 68 180 68q43 0 78.5 -14t60 -40t38 -63t13.5 -83v-287q0 -20 16 -20v-20
q-11 0 -14 2q-10 4 -16 14.5t-6 23.5v48q-36 -47 -94 -72.5t-126 -25.5zM207 10q67 0 122.5 25t82.5 67q15 21 15 41v103q-80 31 -174 31q-44 0 -79.5 -9t-61 -26t-39.5 -40.5t-14 -52.5t11.5 -54.5t31.5 -44.5t47 -29.5t58 -10.5zM226 730h34l64 -73l-16 -12zM126 730h34
l64 -73l-16 -12z" />
    <glyph glyph-name="Ainvertedbreve" unicode="&#x202;" horiz-adv-x="674" 
d="M328 710h18l309 -710h-22l-111 254h-371l-111 -254h-22zM513 274l-176 407l-178 -407h354zM337 901q-21 0 -38 -18.5t-17 -41.5h-19q0 15 6 29t16.5 24.5t23.5 17t28 6.5t28 -6.5t23.5 -17t16.5 -24.5t6 -29h-18q-3 25 -19.5 42.5t-36.5 17.5z" />
    <glyph glyph-name="ainvertedbreve" unicode="&#x203;" horiz-adv-x="524" 
d="M207 -10q-35 0 -66 12.5t-53.5 34t-35.5 50.5t-13 62t15.5 60t44 46.5t68 30.5t86.5 11q45 0 91 -7.5t83 -21.5v59q0 40 -12 73.5t-34.5 57t-54 36.5t-69.5 13t-81 -16.5t-87 -47.5l-12 16q100 68 180 68q43 0 78.5 -14t60 -40t38 -63t13.5 -83v-287q0 -20 16 -20v-20
q-11 0 -14 2q-10 4 -16 14.5t-6 23.5v48q-36 -47 -94 -72.5t-126 -25.5zM207 10q67 0 122.5 25t82.5 67q15 21 15 41v103q-80 31 -174 31q-44 0 -79.5 -9t-61 -26t-39.5 -40.5t-14 -52.5t11.5 -54.5t31.5 -44.5t47 -29.5t58 -10.5zM255 713q-21 0 -38 -18.5t-17 -41.5h-19
q0 15 6 29t16.5 24.5t23.5 17t28 6.5t28 -6.5t23.5 -17t16.5 -24.5t6 -29h-18q-3 25 -19.5 42.5t-36.5 17.5z" />
    <glyph glyph-name="Edblgrave" unicode="&#x204;" horiz-adv-x="617" 
d="M565 20v-20h-466v710h457v-20h-437v-317h383v-20h-383v-333h446zM304 918h34l64 -73l-16 -12zM204 918h34l64 -73l-16 -12z" />
    <glyph glyph-name="edblgrave" unicode="&#x205;" 
d="M296 -10q-51 0 -96.5 21.5t-79.5 59t-54 87t-20 105.5q0 55 19 103t52.5 84t78 56.5t95.5 20.5q52 0 97.5 -21t79 -57t53.5 -85t20 -105v-11h-475q4 -50 23.5 -93.5t50.5 -75.5t71.5 -50.5t85.5 -18.5q30 0 58.5 8t53.5 22.5t44 34.5t30 44l19 -5q-11 -27 -31.5 -49.5
t-48 -39t-60 -26t-66.5 -9.5zM520 268q-3 52 -22 96t-49.5 75.5t-70.5 49.5t-86 18t-86 -18t-70.5 -50t-48.5 -76t-21 -95h454zM260 730h34l64 -73l-16 -12zM160 730h34l64 -73l-16 -12z" />
    <glyph glyph-name="Einvertedbreve" unicode="&#x206;" horiz-adv-x="617" 
d="M565 20v-20h-466v710h457v-20h-437v-317h383v-20h-383v-333h446zM329 901q-21 0 -38 -18.5t-17 -41.5h-19q0 15 6 29t16.5 24.5t23.5 17t28 6.5t28 -6.5t23.5 -17t16.5 -24.5t6 -29h-18q-3 25 -19.5 42.5t-36.5 17.5z" />
    <glyph glyph-name="einvertedbreve" unicode="&#x207;" 
d="M296 -10q-51 0 -96.5 21.5t-79.5 59t-54 87t-20 105.5q0 55 19 103t52.5 84t78 56.5t95.5 20.5q52 0 97.5 -21t79 -57t53.5 -85t20 -105v-11h-475q4 -50 23.5 -93.5t50.5 -75.5t71.5 -50.5t85.5 -18.5q30 0 58.5 8t53.5 22.5t44 34.5t30 44l19 -5q-11 -27 -31.5 -49.5
t-48 -39t-60 -26t-66.5 -9.5zM520 268q-3 52 -22 96t-49.5 75.5t-70.5 49.5t-86 18t-86 -18t-70.5 -50t-48.5 -76t-21 -95h454zM290 713q-21 0 -38 -18.5t-17 -41.5h-19q0 15 6 29t16.5 24.5t23.5 17t28 6.5t28 -6.5t23.5 -17t16.5 -24.5t6 -29h-18q-3 25 -19.5 42.5
t-36.5 17.5z" />
    <glyph glyph-name="Idblgrave" unicode="&#x208;" horiz-adv-x="218" 
d="M99 0v710h20v-710h-20zM81 918h34l64 -73l-16 -12zM-19 918h34l64 -73l-16 -12z" />
    <glyph glyph-name="idblgrave" unicode="&#x209;" horiz-adv-x="188" 
d="M84 0v519h20v-519h-20zM65 730h34l64 -73l-16 -12zM-35 730h34l64 -73l-16 -12z" />
    <glyph glyph-name="Iinvertedbreve" unicode="&#x20a;" horiz-adv-x="218" 
d="M99 0v710h20v-710h-20zM109 901q-21 0 -38 -18.5t-17 -41.5h-19q0 15 6 29t16.5 24.5t23.5 17t28 6.5t28 -6.5t23.5 -17t16.5 -24.5t6 -29h-18q-3 25 -19.5 42.5t-36.5 17.5z" />
    <glyph glyph-name="iinvertedbreve" unicode="&#x20b;" horiz-adv-x="188" 
d="M84 0v519h20v-519h-20zM93 713q-21 0 -38 -18.5t-17 -41.5h-19q0 15 6 29t16.5 24.5t23.5 17t28 6.5t28 -6.5t23.5 -17t16.5 -24.5t6 -29h-18q-3 25 -19.5 42.5t-36.5 17.5z" />
    <glyph glyph-name="Odblgrave" unicode="&#x20c;" horiz-adv-x="757" 
d="M379 -5q-74 0 -134.5 31t-104.5 81t-68 115t-24 133q0 71 25.5 136t70 115t105 79.5t130.5 29.5q73 0 134 -31.5t104.5 -82.5t67.5 -115.5t24 -130.5q0 -72 -25.5 -137t-70 -114.5t-104.5 -79t-130 -29.5zM68 355q0 -66 23.5 -127.5t64.5 -109t98 -75.5t125 -28
q69 0 126.5 29.5t98 77.5t63 109t22.5 124q0 66 -23.5 127.5t-65.5 109t-98.5 75.5t-122.5 28q-69 0 -126.5 -29.5t-98.5 -77.5t-63.5 -109t-22.5 -124zM352 918h34l64 -73l-16 -12zM252 918h34l64 -73l-16 -12z" />
    <glyph glyph-name="odblgrave" unicode="&#x20d;" horiz-adv-x="586" 
d="M293 -10q-51 0 -96 21.5t-78.5 58t-53 85.5t-19.5 103q0 55 19.5 103.5t53.5 85.5t79 58.5t95 21.5t95 -21.5t78.5 -58.5t53.5 -85.5t20 -103.5q0 -54 -19.5 -103t-53 -85.5t-78.5 -58t-96 -21.5zM66 256q0 -50 18 -95t48.5 -78.5t71.5 -53t88 -19.5q46 0 87.5 20t73 54
t49.5 79t18 96q0 50 -18 95t-49 79t-72.5 54t-87.5 20t-87.5 -20t-72.5 -54.5t-49 -80t-18 -96.5zM269 730h34l64 -73l-16 -12zM169 730h34l64 -73l-16 -12z" />
    <glyph glyph-name="Oinvertedbreve" unicode="&#x20e;" horiz-adv-x="757" 
d="M379 -5q-74 0 -134.5 31t-104.5 81t-68 115t-24 133q0 71 25.5 136t70 115t105 79.5t130.5 29.5q73 0 134 -31.5t104.5 -82.5t67.5 -115.5t24 -130.5q0 -72 -25.5 -137t-70 -114.5t-104.5 -79t-130 -29.5zM68 355q0 -66 23.5 -127.5t64.5 -109t98 -75.5t125 -28
q69 0 126.5 29.5t98 77.5t63 109t22.5 124q0 66 -23.5 127.5t-65.5 109t-98.5 75.5t-122.5 28q-69 0 -126.5 -29.5t-98.5 -77.5t-63.5 -109t-22.5 -124zM376 901q-21 0 -38 -18.5t-17 -41.5h-19q0 15 6 29t16.5 24.5t23.5 17t28 6.5t28 -6.5t23.5 -17t16.5 -24.5t6 -29h-18
q-3 25 -19.5 42.5t-36.5 17.5z" />
    <glyph glyph-name="oinvertedbreve" unicode="&#x20f;" horiz-adv-x="586" 
d="M293 -10q-51 0 -96 21.5t-78.5 58t-53 85.5t-19.5 103q0 55 19.5 103.5t53.5 85.5t79 58.5t95 21.5t95 -21.5t78.5 -58.5t53.5 -85.5t20 -103.5q0 -54 -19.5 -103t-53 -85.5t-78.5 -58t-96 -21.5zM66 256q0 -50 18 -95t48.5 -78.5t71.5 -53t88 -19.5q46 0 87.5 20t73 54
t49.5 79t18 96q0 50 -18 95t-49 79t-72.5 54t-87.5 20t-87.5 -20t-72.5 -54.5t-49 -80t-18 -96.5zM289 713q-21 0 -38 -18.5t-17 -41.5h-19q0 15 6 29t16.5 24.5t23.5 17t28 6.5t28 -6.5t23.5 -17t16.5 -24.5t6 -29h-18q-3 25 -19.5 42.5t-36.5 17.5z" />
    <glyph glyph-name="Rdblgrave" unicode="&#x210;" horiz-adv-x="642" 
d="M99 0v710h289q43 0 80 -18.5t63.5 -49t41.5 -69t15 -78.5q0 -41 -13 -79t-37 -67.5t-57.5 -48t-73.5 -21.5l180 -279h-24l-180 279h-264v-279h-20zM119 299h276q40 0 72 17t54.5 44.5t34.5 62.5t12 72q0 38 -14 73t-38.5 62t-57.5 43.5t-70 16.5h-269v-391zM298 918h34
l64 -73l-16 -12zM198 918h34l64 -73l-16 -12z" />
    <glyph glyph-name="rdblgrave" unicode="&#x211;" horiz-adv-x="323" 
d="M306 499q-74 -3 -127.5 -48t-74.5 -123v-328h-20v519h20v-134q27 55 72.5 90.5t96.5 41.5q10 1 18.5 1.5t14.5 0.5v-20zM159 730h34l64 -73l-16 -12zM59 730h34l64 -73l-16 -12z" />
    <glyph glyph-name="Rinvertedbreve" unicode="&#x212;" horiz-adv-x="642" 
d="M99 0v710h289q43 0 80 -18.5t63.5 -49t41.5 -69t15 -78.5q0 -41 -13 -79t-37 -67.5t-57.5 -48t-73.5 -21.5l180 -279h-24l-180 279h-264v-279h-20zM119 299h276q40 0 72 17t54.5 44.5t34.5 62.5t12 72q0 38 -14 73t-38.5 62t-57.5 43.5t-70 16.5h-269v-391zM320 901
q-21 0 -38 -18.5t-17 -41.5h-19q0 15 6 29t16.5 24.5t23.5 17t28 6.5t28 -6.5t23.5 -17t16.5 -24.5t6 -29h-18q-3 25 -19.5 42.5t-36.5 17.5z" />
    <glyph glyph-name="rinvertedbreve" unicode="&#x213;" horiz-adv-x="323" 
d="M306 499q-74 -3 -127.5 -48t-74.5 -123v-328h-20v519h20v-134q27 55 72.5 90.5t96.5 41.5q10 1 18.5 1.5t14.5 0.5v-20zM185 713q-21 0 -38 -18.5t-17 -41.5h-19q0 15 6 29t16.5 24.5t23.5 17t28 6.5t28 -6.5t23.5 -17t16.5 -24.5t6 -29h-18q-3 25 -19.5 42.5t-36.5 17.5
z" />
    <glyph glyph-name="Udblgrave" unicode="&#x214;" horiz-adv-x="756" 
d="M378 15q80 0 132.5 30t83 78t43 109t12.5 123v355h20v-355q0 -71 -14.5 -136t-48.5 -114.5t-89.5 -79.5t-137.5 -30q-84 0 -140 31t-89.5 82t-47.5 115.5t-14 131.5v355h20v-355q0 -64 12.5 -125t43.5 -109t83 -77t131 -29zM360 918h34l64 -73l-16 -12zM260 918h34
l64 -73l-16 -12z" />
    <glyph glyph-name="udblgrave" unicode="&#x215;" 
d="M245 -10q-167 0 -167 238v291h20v-291q0 -218 147 -218q37 0 73 13.5t66 37t52.5 56.5t34.5 72v330h20v-479q0 -20 16 -20v-20q-11 0 -14 2q-10 4 -16 14.5t-6 23.5v92q-34 -66 -95 -104t-131 -38zM251 730h34l64 -73l-16 -12zM151 730h34l64 -73l-16 -12z" />
    <glyph glyph-name="Uinvertedbreve" unicode="&#x216;" horiz-adv-x="756" 
d="M378 15q80 0 132.5 30t83 78t43 109t12.5 123v355h20v-355q0 -71 -14.5 -136t-48.5 -114.5t-89.5 -79.5t-137.5 -30q-84 0 -140 31t-89.5 82t-47.5 115.5t-14 131.5v355h20v-355q0 -64 12.5 -125t43.5 -109t83 -77t131 -29zM378 901q-21 0 -38 -18.5t-17 -41.5h-19
q0 15 6 29t16.5 24.5t23.5 17t28 6.5t28 -6.5t23.5 -17t16.5 -24.5t6 -29h-18q-3 25 -19.5 42.5t-36.5 17.5z" />
    <glyph glyph-name="uinvertedbreve" unicode="&#x217;" 
d="M245 -10q-167 0 -167 238v291h20v-291q0 -218 147 -218q37 0 73 13.5t66 37t52.5 56.5t34.5 72v330h20v-479q0 -20 16 -20v-20q-11 0 -14 2q-10 4 -16 14.5t-6 23.5v92q-34 -66 -95 -104t-131 -38zM280 713q-21 0 -38 -18.5t-17 -41.5h-19q0 15 6 29t16.5 24.5t23.5 17
t28 6.5t28 -6.5t23.5 -17t16.5 -24.5t6 -29h-18q-3 25 -19.5 42.5t-36.5 17.5z" />
    <glyph glyph-name="uni0218" unicode="&#x218;" horiz-adv-x="602" 
d="M509 616q-42 46 -87.5 63t-108.5 17q-61 0 -104.5 -12t-71.5 -34.5t-41 -53.5t-13 -70q0 -38 13 -63.5t40 -43t69.5 -30t101.5 -24.5t107 -26t81.5 -35t51.5 -52t18 -78q0 -87 -66.5 -133t-183.5 -46q-86 0 -152.5 26.5t-123.5 83.5l15 13q54 -56 117.5 -81t144.5 -25
q106 0 167.5 39.5t61.5 119.5q0 40 -14 67.5t-43 47.5t-74 34t-106 26q-59 11 -104.5 23.5t-77 32t-47.5 49t-16 73.5q0 46 17.5 81.5t50 60t78 37t102.5 12.5q68 0 118.5 -19.5t92.5 -65.5zM299 -167l10 58h-9v59h26v-59l-13 -58h-14z" />
    <glyph glyph-name="uni0219" unicode="&#x219;" horiz-adv-x="471" 
d="M235 -10q-121 0 -198 84l15 13q40 -39 83.5 -58t99.5 -19q77 0 125 33t48 93q0 28 -12 46.5t-35 32t-57 23t-77 19.5q-42 10 -73 18.5t-51.5 21.5t-31 32.5t-10.5 50.5q0 39 15 66.5t40 45.5t58 26.5t70 8.5q63 0 107.5 -21.5t61.5 -53.5l-18 -8q-19 31 -62 47t-93 16
q-32 0 -61 -7t-51 -22t-34.5 -38.5t-12.5 -56.5q0 -26 8.5 -42.5t26.5 -27.5t46 -19t66 -17q46 -11 83.5 -21t63 -25t39.5 -36.5t14 -55.5t-14 -61.5t-39 -47t-61 -30t-79 -10.5zM218 -167l10 58h-9v59h26v-59l-13 -58h-14z" />
    <glyph glyph-name="uni021A" unicode="&#x21a;" horiz-adv-x="600" 
d="M582 690h-272v-690h-20v690h-272v20h564v-20zM283 -167l10 58h-9v59h26v-59l-13 -58h-14z" />
    <glyph glyph-name="uni021B" unicode="&#x21b;" horiz-adv-x="295" 
d="M286 24l-7.5 -5t-20 -10t-29.5 -9.5t-38 -4.5q-36 0 -63 22t-27 58v424h-75v20h75v181h20v-181h125v-20h-125v-424q2 -29 23 -44.5t47 -15.5q17 0 32 3.5t26.5 8t18 8.5t7.5 5zM174 -167l10 58h-9v59h26v-59l-13 -58h-14z" />
    <glyph glyph-name="dotlessj" unicode="&#x237;" horiz-adv-x="188" 
d="M-29 -170q-29 0 -54.5 7t-45.5 27l16 12q18 -16 40 -21t43 -5t41 9t36.5 24t26.5 36t10 45v555h20v-555q0 -29 -12 -53.5t-31 -42.5t-43 -28t-47 -10z" />
    <glyph glyph-name="schwa" unicode="&#x259;" 
d="M285 -10q-52 0 -97.5 21t-79 57t-53.5 85t-20 105v11h475q-4 50 -23.5 93.5t-50.5 75.5t-71.5 50.5t-85.5 18.5q-30 0 -58.5 -8t-53.5 -22.5t-44 -34.5t-30 -44l-19 5q10 27 31 49.5t48.5 39t60 26t66.5 9.5q51 0 96.5 -21.5t79.5 -59t54 -87t20 -105.5q0 -55 -19 -103
t-52.5 -84t-78 -56.5t-95.5 -20.5zM284 10q46 0 86 18t70.5 50t48.5 76t21 95h-454q3 -52 22 -96t49.5 -75.5t70.5 -49.5t86 -18z" />
    <glyph glyph-name="apostrophe" unicode="&#x2bc;" horiz-adv-x="548" 
d="M251 645l-16 12l41 47l3 26h54z" />
    <glyph glyph-name="circumflex" unicode="&#x2c6;" horiz-adv-x="302" 
d="M50 656l93 74h16l93 -74l-16 -12l-85 63l-85 -63z" />
    <glyph glyph-name="caron" unicode="&#x2c7;" horiz-adv-x="302" 
d="M66 730l85 -63l85 63l16 -12l-93 -74h-16l-93 74z" />
    <glyph glyph-name="uni02C9" unicode="&#x2c9;" horiz-adv-x="380" 
d="M50 686v20h280v-20h-280z" />
    <glyph glyph-name="breve" unicode="&#x2d8;" horiz-adv-x="248" 
d="M124 670q20 0 36.5 17.5t19.5 42.5h18q0 -15 -6 -29t-16.5 -24.5t-23.5 -17t-28 -6.5t-28 6.5t-23.5 17t-16.5 24.5t-6 29h19q0 -23 17 -41.5t38 -18.5z" />
    <glyph glyph-name="dotaccent" unicode="&#x2d9;" horiz-adv-x="120" 
d="M50 653v77h20v-77h-20z" />
    <glyph glyph-name="ring" unicode="&#x2da;" horiz-adv-x="238" 
d="M62 673q0 24 16.5 40.5t40.5 16.5t40.5 -16.5t16.5 -40.5t-16.5 -40.5t-40.5 -16.5t-40.5 16.5t-16.5 40.5zM119 714q-17 0 -29 -11t-12 -30q0 -17 12 -29t29 -12q15 0 28 11.5t13 29.5q0 19 -12 30t-29 11z" />
    <glyph glyph-name="ogonek" unicode="&#x2db;" horiz-adv-x="203" 
d="M100 -159q-25 6 -38.5 22t-13.5 39q0 26 20.5 51.5t68.5 60.5l12 -14q-45 -31 -63 -51.5t-18 -43.5q0 -38 44 -47l-12 -17v0z" />
    <glyph glyph-name="tilde" unicode="&#x2dc;" horiz-adv-x="383" 
d="M249 663q-22 0 -38.5 6t-30.5 13t-27.5 13t-28.5 6q-16 0 -26 -6.5t-15.5 -15t-7.5 -16.5t-2 -10h-20q0 2 2 13t9.5 23t22 21.5t39.5 9.5q19 0 34 -6t29 -13t28.5 -13t33.5 -6q21 0 32.5 7t17.5 15.5t7.5 16t1.5 9.5h20q0 -3 -2.5 -14t-10.5 -23t-24.5 -21t-43.5 -9z" />
    <glyph glyph-name="hungarumlaut" unicode="&#x2dd;" horiz-adv-x="298" 
d="M66 645l-16 12l64 73h34zM166 645l-16 12l64 73h34z" />
    <glyph glyph-name="uni030F" unicode="&#x30f;" horiz-adv-x="298" 
d="M150 730h34l64 -73l-16 -12zM50 730h34l64 -73l-16 -12z" />
    <glyph glyph-name="uni0311" unicode="&#x311;" horiz-adv-x="248" 
d="M124 713q-21 0 -38 -18.5t-17 -41.5h-19q0 15 6 29t16.5 24.5t23.5 17t28 6.5t28 -6.5t23.5 -17t16.5 -24.5t6 -29h-18q-3 25 -19.5 42.5t-36.5 17.5z" />
    <glyph glyph-name="uni0394" unicode="&#x394;" horiz-adv-x="647" 
d="M623 20v-20h-598l-1 20l291 690h18zM601 20l-277 661l-278 -661h555z" />
    <glyph glyph-name="uni03A9" unicode="&#x3a9;" horiz-adv-x="770" 
d="M49 21h219q-50 22 -90 58t-67.5 81t-42 97.5t-14.5 107.5q0 69 25 132.5t69 111.5t104.5 77t132.5 29t132.5 -29t104.5 -77t69 -111.5t25 -132.5q0 -55 -14.5 -107.5t-42 -97.5t-67.5 -81t-90 -58h219v-21h-289v21q64 13 113.5 48t82.5 83t50 103.5t17 109.5
q0 61 -21.5 120t-61.5 105t-97.5 74.5t-129.5 28.5t-129.5 -28.5t-97.5 -74.5t-61.5 -105t-21.5 -120q0 -54 17 -109.5t50 -103.5t82 -83t114 -48v-21h-289v21z" />
    <glyph glyph-name="uni03BC" unicode="&#x3bc;" horiz-adv-x="582" 
d="M84 519h20v-291q0 -218 147 -218q37 0 73 13.5t66 37t52.5 56.5t34.5 72v330h20v-479q0 -20 16 -20v-20q-11 0 -14 2q-10 4 -16 14.5t-6 23.5v92q-34 -66 -95 -104t-131 -38q-109 0 -147 104v-306h-20v731z" />
    <glyph glyph-name="pi" unicode="&#x3c0;" horiz-adv-x="541" 
d="M125 499v-499h-20v499h-80v20h476v-20h-110v-422q0 -29 18 -46t48 -17q11 0 26.5 2.5t28.5 6.5l7 -16q-14 -5 -34.5 -8.5t-34.5 -3.5q-35 0 -57 22.5t-22 59.5v422h-246z" />
    <glyph glyph-name="uni0400" unicode="&#x400;" horiz-adv-x="616" 
d="M565 20v-20h-466v710h457v-20h-437v-317h383v-20h-383v-333h446zM276 918h33l65 -73l-16 -12z" />
    <glyph glyph-name="uni0401" unicode="&#x401;" horiz-adv-x="616" 
d="M565 20v-20h-466v710h457v-20h-437v-317h383v-20h-383v-333h446zM276 841v77h20v-77h-20zM392 841v77h20v-77h-20z" />
    <glyph glyph-name="uni0402" unicode="&#x402;" horiz-adv-x="677" 
d="M208 690h-192v20h490v-20h-278v-321q69 70 185 70q113 0 173 -57t60 -166q0 -111 -57.5 -168.5t-167.5 -57.5q-29 0 -49 4.5t-46 17.5l8 22q14 -7 25 -11.5t21 -7t20 -3.5t23 -1q97 0 149.5 53t52.5 152q0 97 -55 149t-158 52q-57 0 -101.5 -18.5t-82.5 -56.5v-342h-20
v690z" />
    <glyph glyph-name="uni0403" unicode="&#x403;" horiz-adv-x="532" 
d="M278 833l-16 12l64 73h34zM508 690h-389v-690h-20v710h409v-20z" />
    <glyph glyph-name="uni0404" unicode="&#x404;" horiz-adv-x="697" 
d="M659 159q-18 -40 -49 -71t-69 -52t-80.5 -31.5t-82.5 -10.5q-72 0 -133 32t-104.5 83.5t-68 117t-24.5 133.5q0 64 22.5 127t65 113.5t105 82t142.5 31.5q95 0 161 -43.5t98 -111.5l-19 -6q-21 39 -48.5 66t-60 43.5t-67 24t-68.5 7.5q-72 0 -128.5 -28t-96.5 -73
t-61.5 -102.5t-24.5 -117.5h385v-20h-385q1 -68 25.5 -129t67 -108t99.5 -74.5t122 -27.5q35 0 72 9t71.5 27t64 46.5t50.5 67.5z" />
    <glyph glyph-name="uni0405" unicode="&#x405;" horiz-adv-x="602" 
d="M509 616q-42 46 -87.5 63t-108.5 17q-61 0 -104.5 -12t-71.5 -34.5t-41 -53.5t-13 -70q0 -38 13 -63.5t40 -43t69.5 -30t101.5 -24.5t107 -26t81.5 -35t51.5 -52t18 -78q0 -87 -66.5 -133t-183.5 -46q-86 0 -152.5 26.5t-123.5 83.5l15 13q54 -56 117.5 -81t144.5 -25
q106 0 167.5 39.5t61.5 119.5q0 40 -14 67.5t-43 47.5t-74 34t-106 26q-59 11 -104.5 23.5t-77 32t-47.5 49t-16 73.5q0 46 17.5 81.5t50 60t78 37t102.5 12.5q68 0 118.5 -19.5t92.5 -65.5z" />
    <glyph glyph-name="uni0406" unicode="&#x406;" horiz-adv-x="218" 
d="M99 0v710h20v-710h-20z" />
    <glyph glyph-name="uni0407" unicode="&#x407;" horiz-adv-x="218" 
d="M99 0v710h20v-710h-20zM41 841v77h20v-77h-20zM157 841v77h20v-77h-20z" />
    <glyph glyph-name="uni0408" unicode="&#x408;" horiz-adv-x="473" 
d="M30 49q58 -40 143 -40q64 0 101.5 23.5t57 67t25.5 106.5t6 143v361h20v-361q0 -81 -6.5 -147.5t-28.5 -113.5t-63.5 -73t-111.5 -26q-90 0 -154 44z" />
    <glyph glyph-name="uni0409" unicode="&#x409;" horiz-adv-x="988" 
d="M5 20q18 0 36 8t36 30t34.5 60t31.5 97.5t27.5 143t22.5 197.5l13 154h327v-322h205q57 0 98.5 -14t68.5 -39.5t40 -60t13 -75.5q0 -39 -13 -75t-40 -63.5t-68 -44t-96 -16.5h-228v690h-289l-12 -144q-12 -150 -30.5 -254t-44 -169t-58.5 -94t-74 -29v20zM741 20
q53 0 90.5 15.5t61 40.5t34.5 57t11 66q0 33 -9 63.5t-32 54t-61.5 37.5t-97.5 14h-205v-348h208z" />
    <glyph glyph-name="uni040A" unicode="&#x40a;" horiz-adv-x="1037" 
d="M542 368h-423v-368h-20v710h20v-322h423v322h20v-322h225q57 0 98.5 -14t68.5 -39.5t40 -60t13 -75.5q0 -39 -13 -75t-40 -63.5t-68 -44t-96 -16.5h-248v368zM790 20q53 0 90.5 15.5t61 40.5t34.5 57t11 66q0 33 -9 63.5t-32 54t-61.5 37.5t-97.5 14h-225v-348h228z" />
    <glyph glyph-name="uni040B" unicode="&#x40b;" horiz-adv-x="685" 
d="M624 180q0 119 -48 172.5t-154 53.5q-53 0 -106.5 -12.5t-87.5 -31.5v-362h-20v690h-192v20h490v-20h-278v-306q43 20 90 31t96 11q120 0 174.5 -58.5t54.5 -185.5v-182h-19v180z" />
    <glyph glyph-name="uni040C" unicode="&#x40c;" horiz-adv-x="560" 
d="M291 833l-16 12l64 73h34zM119 381h151l229 329h26l-241 -339l274 -371h-26l-264 361h-149v-361h-20v710h20v-329z" />
    <glyph glyph-name="uni040D" unicode="&#x40d;" horiz-adv-x="747" 
d="M317 918h33l65 -73l-16 -12zM119 27l510 683h19v-710h-20v673l-504 -673h-25v710h20v-683z" />
    <glyph glyph-name="uni040E" unicode="&#x40e;" horiz-adv-x="618" 
d="M160 -8q-21 0 -37.5 4t-32.5 17v22q29 -23 68 -23q20 0 36 7.5t32 24.5t33 45.5t40 70.5l-274 550h23l262 -525l262 525h23l-274 -550q-26 -51 -46 -83.5t-38.5 -51.5t-37 -26t-39.5 -7zM311 839q-69 0 -101.5 23t-32.5 54h19q0 -23 32 -41.5t83 -18.5t83.5 16.5
t32.5 43.5h18q0 -31 -32.5 -54t-101.5 -23z" />
    <glyph glyph-name="uni040F" unicode="&#x40f;" horiz-adv-x="687" 
d="M99 710h20v-690h449v690h20v-710h-235v-186h-20v186h-234v710z" />
    <glyph glyph-name="uni0410" unicode="&#x410;" horiz-adv-x="674" 
d="M328 710h18l309 -710h-22l-111 254h-371l-111 -254h-22zM513 274l-176 407l-178 -407h354z" />
    <glyph glyph-name="uni0411" unicode="&#x411;" horiz-adv-x="641" 
d="M99 710h449v-20h-429v-302h266q57 0 98.5 -14t68.5 -39.5t40 -60t13 -75.5q0 -39 -13 -75t-40 -63.5t-68 -44t-96 -16.5h-289v710zM388 20q53 0 90.5 15.5t61 40.5t34.5 57t11 66q0 33 -9 63.5t-32 54t-61.5 37.5t-97.5 14h-266v-348h269z" />
    <glyph glyph-name="uni0412" unicode="&#x412;" horiz-adv-x="655" 
d="M605 184q0 -37 -14 -70t-38 -58.5t-56.5 -40.5t-68.5 -15h-329v710h314q37 0 67 -16t51 -41.5t32.5 -58t11.5 -65.5q0 -54 -27.5 -99t-74.5 -66q30 -9 54.5 -27t42 -42t26.5 -52.5t9 -58.5zM585 184q0 32 -11.5 61.5t-31.5 52.5t-47.5 36.5t-59.5 13.5h-316v-328h309
q33 0 61.5 14t50 37t33.5 52.5t12 60.5zM119 690v-322h288q33 0 60 14t46.5 37t30.5 51.5t11 58.5q0 32 -10.5 61t-29 51.5t-45 35.5t-57.5 13h-294z" />
    <glyph glyph-name="uni0413" unicode="&#x413;" horiz-adv-x="532" 
d="M508 690h-389v-690h-20v710h409v-20z" />
    <glyph glyph-name="uni0414" unicode="&#x414;" horiz-adv-x="681" 
d="M16 20h30q17 5 32.5 14.5t29 30.5t25.5 57t23 94t21 141t19 199l13 154h364v-690h80v-205h-20v185h-597v-185h-20v205zM553 20v670h-326l-12 -144q-11 -127 -22 -220.5t-25.5 -157.5t-34 -100t-46.5 -48h466z" />
    <glyph glyph-name="uni0415" unicode="&#x415;" horiz-adv-x="617" 
d="M565 20v-20h-466v710h457v-20h-437v-317h383v-20h-383v-333h446z" />
    <glyph glyph-name="uni0416" unicode="&#x416;" horiz-adv-x="880" 
d="M249 371l-210 339h26l199 -329h166v329h20v-329h166l199 329h26l-211 -339l244 -371h-26l-234 361h-164v-361h-20v361h-164l-234 -361h-26z" />
    <glyph glyph-name="uni0417" unicode="&#x417;" horiz-adv-x="534" 
d="M67 627q11 17 30.5 33t45 28t55.5 19.5t62 7.5q91 0 142.5 -43t51.5 -120q0 -62 -31.5 -101.5t-102.5 -56.5q41 -8 71.5 -26.5t51 -45t31 -60t10.5 -70.5q0 -45 -16 -81t-45.5 -62t-70.5 -40t-92 -14q-38 0 -72.5 9t-64.5 24.5t-53 37.5t-38 48l17 14q12 -25 34.5 -45.5
t51 -35.5t61.5 -23.5t68 -8.5q91 0 145.5 47t54.5 132q0 89 -61.5 140t-173.5 51h-35v20h35q101 0 153 38.5t52 110.5q0 69 -46 105t-128 36q-30 0 -57.5 -6.5t-50.5 -18t-41 -26t-28 -29.5z" />
    <glyph glyph-name="uni0418" unicode="&#x418;" horiz-adv-x="747" 
d="M119 27l510 683h19v-710h-20v673l-504 -673h-25v710h20v-683z" />
    <glyph glyph-name="uni0419" unicode="&#x419;" horiz-adv-x="747" 
d="M498 916q0 -31 -32.5 -54t-101.5 -23t-101.5 23t-32.5 54h19q0 -23 32 -41.5t83 -18.5t83.5 16.5t32.5 43.5h18zM119 27l510 683h19v-710h-20v673l-504 -673h-25v710h20v-683z" />
    <glyph glyph-name="uni041A" unicode="&#x41a;" horiz-adv-x="560" 
d="M119 381h151l229 329h26l-241 -339l274 -371h-26l-264 361h-149v-361h-20v710h20v-329z" />
    <glyph glyph-name="uni041B" unicode="&#x41b;" horiz-adv-x="632" 
d="M212 546q-12 -150 -30.5 -254t-44 -169t-58.5 -94t-74 -29v20q18 0 36 8t36 30t34.5 60t31.5 97.5t27.5 143t22.5 197.5l13 154h327v-710h-20v690h-289z" />
    <glyph glyph-name="uni041C" unicode="&#x41c;" horiz-adv-x="884" 
d="M765 0v666l-315 -526h-16l-315 526v-666h-20v710h16l327 -546l327 546h16v-710h-20z" />
    <glyph glyph-name="uni041D" unicode="&#x41d;" horiz-adv-x="731" 
d="M632 710v-710h-20v353h-493v-353h-20v710h20v-337h493v337h20z" />
    <glyph glyph-name="uni041E" unicode="&#x41e;" horiz-adv-x="757" 
d="M379 -5q-74 0 -134.5 31t-104.5 81t-68 115t-24 133q0 71 25.5 136t70 115t105 79.5t130.5 29.5q73 0 134 -31.5t104.5 -82.5t67.5 -115.5t24 -130.5q0 -72 -25.5 -137t-70 -114.5t-104.5 -79t-130 -29.5zM68 355q0 -66 23.5 -127.5t64.5 -109t98 -75.5t125 -28
q69 0 126.5 29.5t98 77.5t63 109t22.5 124q0 66 -23.5 127.5t-65.5 109t-98.5 75.5t-122.5 28q-69 0 -126.5 -29.5t-98.5 -77.5t-63.5 -109t-22.5 -124z" />
    <glyph glyph-name="uni041F" unicode="&#x41f;" horiz-adv-x="704" 
d="M99 710h506v-710h-20v690h-466v-690h-20v710z" />
    <glyph glyph-name="uni0420" unicode="&#x420;" horiz-adv-x="619" 
d="M99 0v710h289q43 0 80 -18.5t63.5 -49t41.5 -69t15 -78.5q0 -42 -14 -81t-39.5 -69t-61 -48t-78.5 -18h-276v-279h-20zM119 299h276q40 0 72.5 17t54.5 45t34 63t12 71q0 38 -14 73t-38.5 62t-57.5 43.5t-70 16.5h-269v-391z" />
    <glyph glyph-name="uni0421" unicode="&#x421;" horiz-adv-x="698" 
d="M48 360q0 64 22.5 127t65 113.5t105 82t142.5 31.5q95 0 161 -43.5t98 -111.5l-19 -6q-21 39 -48.5 66t-60 43.5t-67 24t-68.5 7.5q-74 0 -132 -29.5t-98 -77.5t-60.5 -108.5t-20.5 -121.5q0 -68 24.5 -130t67 -109.5t99.5 -75.5t123 -28q35 0 72 9t71.5 27t64 46.5
t50.5 67.5l19 -5q-18 -40 -49 -71t-69 -52t-80.5 -31.5t-82.5 -10.5q-72 0 -133 32t-104.5 83.5t-68 117t-24.5 133.5z" />
    <glyph glyph-name="uni0422" unicode="&#x422;" horiz-adv-x="598" 
d="M581 690h-272v-690h-20v690h-272v20h564v-20z" />
    <glyph glyph-name="uni0423" unicode="&#x423;" horiz-adv-x="618" 
d="M160 -8q-21 0 -37.5 4t-32.5 17v22q29 -23 68 -23q20 0 36 7.5t32 24.5t33 45.5t40 70.5l-274 550h23l262 -525l262 525h23l-274 -550q-26 -51 -46 -83.5t-38.5 -51.5t-37 -26t-39.5 -7z" />
    <glyph glyph-name="uni0424" unicode="&#x424;" horiz-adv-x="730" 
d="M354 87q-69 1 -128 22t-102 60t-67.5 93.5t-24.5 123.5q0 65 23 119.5t65.5 94.5t102 62.5t131.5 24.5v113h20v-113q73 -2 132.5 -24.5t102 -62.5t66 -94.5t23.5 -119.5q0 -69 -24.5 -123.5t-67.5 -93t-102.5 -60t-129.5 -22.5v-117h-20v117zM374 108q66 1 121.5 21.5
t96 56.5t63 87t22.5 114q0 62 -22 112.5t-62 87t-96 56.5t-123 22v-557zM354 665q-67 -2 -122.5 -22t-95 -56.5t-61.5 -87t-22 -112.5q0 -63 22.5 -114t62.5 -87t95.5 -56.5t120.5 -21.5v557z" />
    <glyph glyph-name="uni0425" unicode="&#x425;" horiz-adv-x="621" 
d="M37 710l274 -344l274 344h25l-287 -360l279 -350h-25l-266 334l-266 -334h-26l279 350l-287 360h26z" />
    <glyph glyph-name="uni0426" unicode="&#x426;" horiz-adv-x="696" 
d="M648 0h-549v710h20v-690h449v690h20v-690h80v-205h-20v185z" />
    <glyph glyph-name="uni0427" unicode="&#x427;" horiz-adv-x="602" 
d="M483 710h20v-710h-20v330q-97 -46 -205 -46q-120 0 -174.5 58t-54.5 186v182h19v-180q0 -119 47.5 -172.5t154.5 -53.5q30 0 60.5 3.5t59 10.5t52.5 15.5t41 19.5v357z" />
    <glyph glyph-name="uni0428" unicode="&#x428;" horiz-adv-x="898" 
d="M799 710v-710h-700v710h20v-690h320v690h20v-690h320v690h20z" />
    <glyph glyph-name="uni0429" unicode="&#x429;" horiz-adv-x="907" 
d="M859 0h-760v710h20v-690h320v690h20v-690h320v690h20v-690h80v-205h-20v185z" />
    <glyph glyph-name="uni042A" unicode="&#x42a;" horiz-adv-x="703" 
d="M15 710h231v-292h205q57 0 98.5 -15.5t68.5 -43.5t40 -66.5t13 -83.5q0 -41 -13 -79t-40 -67t-68 -46t-96 -17h-228v690h-211v20zM246 20h208q53 0 90.5 16t61 42.5t34.5 60.5t11 70q0 37 -9 71t-32 60t-61.5 42t-97.5 16h-205v-378z" />
    <glyph glyph-name="uni042B" unicode="&#x42b;" horiz-adv-x="799" 
d="M99 710h20v-292h205q57 0 98.5 -15.5t68.5 -43.5t40 -66.5t13 -83.5q0 -41 -13 -79t-40 -67t-68 -46t-96 -17h-228v710zM119 20h208q53 0 90.5 16t61 42.5t34.5 60.5t11 70q0 37 -9 71t-32 60t-61.5 42t-97.5 16h-205v-378zM680 0v709h20v-709h-20z" />
    <glyph glyph-name="uni042C" unicode="&#x42c;" 
d="M99 710h20v-292h205q57 0 98.5 -15.5t68.5 -43.5t40 -66.5t13 -83.5q0 -41 -13 -79t-40 -67t-68 -46t-96 -17h-228v710zM119 20h208q53 0 90.5 16t61 42.5t34.5 60.5t11 70q0 37 -9 71t-32 60t-61.5 42t-97.5 16h-205v-378z" />
    <glyph glyph-name="uni042D" unicode="&#x42d;" horiz-adv-x="697" 
d="M319 -6q-41 0 -83 10.5t-80 31.5t-69 52t-49 71l19 5q21 -39 50.5 -67.5t64 -46.5t71.5 -27t72 -9q65 0 122 27.5t99.5 74.5t67 108t25.5 129h-385v20h384q-3 60 -24.5 117.5t-61.5 102.5t-96 73t-128 28q-34 0 -68.5 -7.5t-67 -24t-60 -43.5t-48.5 -66l-19 6
q32 68 98 111.5t161 43.5q80 0 142.5 -31.5t105 -82t65 -113.5t22.5 -127q0 -68 -24.5 -133.5t-68 -117t-104.5 -83.5t-133 -32z" />
    <glyph glyph-name="uni042E" unicode="&#x42e;" horiz-adv-x="960" 
d="M590 -5q-68 0 -124.5 26t-97.5 72t-64.5 110t-24.5 142h-160v-345h-20v710h20v-345h160q1 80 25.5 144.5t66.5 110.5t98 70.5t121 24.5q71 0 130 -27t101 -75t65.5 -114t23.5 -144q0 -83 -24.5 -149.5t-68 -113.5t-102 -72t-125.5 -25zM299 355q0 -78 22 -140.5
t60.5 -107t92 -68.5t116.5 -24q67 0 122.5 25.5t95 70.5t61 107.5t21.5 136.5q0 78 -23 140.5t-63.5 107t-95 68.5t-118.5 24q-65 0 -118.5 -25.5t-92 -70.5t-59.5 -107.5t-21 -136.5z" />
    <glyph glyph-name="uni042F" unicode="&#x42f;" horiz-adv-x="621" 
d="M502 0v309h-196q-31 0 -54 4l-191 -313h-25l195 318q-72 20 -110 73t-38 124q0 40 15.5 75.5t45.5 62t72.5 42t96.5 15.5h209v-710h-20zM502 690h-189q-48 0 -87 -13t-66 -36.5t-42 -55.5t-15 -70t12.5 -71.5t38 -59t63.5 -40.5t89 -15h196v361z" />
    <glyph glyph-name="uni0430" unicode="&#x430;" horiz-adv-x="524" 
d="M207 -10q-35 0 -66 12.5t-53.5 34t-35.5 50.5t-13 62t15.5 60t44 46.5t68 30.5t86.5 11q45 0 91 -7.5t83 -21.5v59q0 40 -12 73.5t-34.5 57t-54 36.5t-69.5 13t-81 -16.5t-87 -47.5l-12 16q100 68 180 68q43 0 78.5 -14t60 -40t38 -63t13.5 -83v-287q0 -20 16 -20v-20
q-11 0 -14 2q-10 4 -16 14.5t-6 23.5v48q-36 -47 -94 -72.5t-126 -25.5zM207 10q67 0 122.5 25t82.5 67q15 21 15 41v103q-80 31 -174 31q-44 0 -79.5 -9t-61 -26t-39.5 -40.5t-14 -52.5t11.5 -54.5t31.5 -44.5t47 -29.5t58 -10.5z" />
    <glyph glyph-name="uni0431" unicode="&#x431;" horiz-adv-x="558" 
d="M344 691q-110 -23 -178.5 -105.5t-78.5 -233.5q23 62 71.5 98.5t127.5 36.5q107 0 164 -64t57 -182q0 -54 -14.5 -100t-43.5 -79.5t-72 -52.5t-100 -19q-52 0 -92 19.5t-67 55t-41 84.5t-14 108q0 115 21.5 196t59 134.5t89.5 83t113 42.5l133 28l5 -20zM85 239
q0 -48 12.5 -90t37 -73t61.5 -48.5t86 -17.5t87.5 18t64.5 49.5t39.5 74t13.5 90.5q0 109 -51 166.5t-151 57.5q-44 0 -80.5 -14.5t-63 -43t-41.5 -71t-15 -98.5z" />
    <glyph glyph-name="uni0432" unicode="&#x432;" horiz-adv-x="512" 
d="M321 519q28 0 50 -11.5t38 -29.5t24.5 -41t8.5 -47q0 -40 -20.5 -74t-55.5 -50q45 -13 71.5 -49.5t26.5 -81.5q0 -27 -10.5 -51.5t-29 -43t-43 -29.5t-51.5 -11h-246v519h237zM314 271q24 0 43.5 10.5t33.5 27t22 37.5t8 43t-7.5 42t-21 35.5t-32.5 24.5t-41 9h-215v-229
h210zM330 19q24 0 45 10t36 26.5t24 37.5t9 43t-8.5 43t-23 37.5t-34.5 26t-43 9.5h-231v-233h226z" />
    <glyph glyph-name="uni0433" unicode="&#x433;" horiz-adv-x="392" 
d="M368 500h-264v-500h-20v519h284v-19z" />
    <glyph glyph-name="uni0434" unicode="&#x434;" horiz-adv-x="541" 
d="M18 19h31q18 4 34 24t30 62.5t27.5 111.5t27.5 171l17 131h258v-500h68v-174h-20v155h-453v-155h-20v174zM423 19v481h-219l-15 -122q-20 -163 -46.5 -252.5t-57.5 -106.5h338z" />
    <glyph glyph-name="uni0435" unicode="&#x435;" 
d="M296 -10q-51 0 -96.5 21.5t-79.5 59t-54 87t-20 105.5q0 55 19 103t52.5 84t78 56.5t95.5 20.5q52 0 97.5 -21t79 -57t53.5 -85t20 -105v-11h-475q4 -50 23.5 -93.5t50.5 -75.5t71.5 -50.5t85.5 -18.5q30 0 58.5 8t53.5 22.5t44 34.5t30 44l19 -5q-11 -27 -31.5 -49.5
t-48 -39t-60 -26t-66.5 -9.5zM520 268q-3 52 -22 96t-49.5 75.5t-70.5 49.5t-86 18t-86 -18t-70.5 -50t-48.5 -76t-21 -95h454z" />
    <glyph glyph-name="uni0436" unicode="&#x436;" horiz-adv-x="732" 
d="M65 520l151 -240h140v239h21v-239h140l150 240h25l-160 -249l184 -271h-25l-174 261h-140v-261h-21v261h-140l-175 -261h-25l184 271l-160 249h25z" />
    <glyph glyph-name="uni0437" unicode="&#x437;" horiz-adv-x="408" 
d="M54 462q26 34 64 49.5t80 15.5q66 0 102.5 -32.5t36.5 -85.5q0 -47 -23.5 -77.5t-66.5 -41.5q25 -4 46.5 -17t36.5 -32.5t23.5 -44t8.5 -51.5q0 -33 -12 -61.5t-34.5 -49t-54.5 -32.5t-71 -12q-58 0 -94.5 21t-59.5 54l15 15q26 -35 58.5 -52.5t82.5 -17.5q36 0 64 11
t47 29.5t29 44t10 54.5q0 63 -41 97t-113 34h-35v19h35q63 0 96 27.5t33 81.5q0 47 -31 73t-89 26q-37 0 -68.5 -13t-59.5 -44z" />
    <glyph glyph-name="uni0438" unicode="&#x438;" horiz-adv-x="581" 
d="M104 28l375 491h18v-519h-20v483l-370 -483h-23v518h20v-490z" />
    <glyph glyph-name="uni0439" unicode="&#x439;" horiz-adv-x="581" 
d="M395 682q0 -24 -24.5 -42.5t-82.5 -18.5q-59 0 -83.5 18.5t-24.5 42.5h17q0 -17 20 -31t71 -14q25 0 41.5 3.5t26.5 9.5t15 14.5t8 17.5h16zM104 28l375 491h18v-519h-20v483l-370 -483h-23v518h20v-490z" />
    <glyph glyph-name="uni043A" unicode="&#x43a;" horiz-adv-x="444" 
d="M383 519h25l-180 -248l204 -271h-25l-196 261h-107v-261h-20v519h20v-239h108z" />
    <glyph glyph-name="uni043B" unicode="&#x43b;" horiz-adv-x="505" 
d="M12 20q19 0 38.5 16.5t37 58.5t33 113t27.5 180l14 131h259v-519h-20v500h-220l-13 -122q-12 -109 -27.5 -181.5t-35 -116t-43 -62t-50.5 -18.5v20z" />
    <glyph glyph-name="uni043C" unicode="&#x43c;" horiz-adv-x="680" 
d="M340 119l239 400h17v-519h-20v477l-228 -384h-15l-229 384v-477h-20v519h18z" />
    <glyph glyph-name="uni043D" unicode="&#x43d;" horiz-adv-x="568" 
d="M104 275h360v244h20v-519h-20v256h-360v-256h-20v519h20v-244z" />
    <glyph glyph-name="uni043E" unicode="&#x43e;" horiz-adv-x="586" 
d="M293 -10q-51 0 -96 21.5t-78.5 58t-53 85.5t-19.5 103q0 55 19.5 103.5t53.5 85.5t79 58.5t95 21.5t95 -21.5t78.5 -58.5t53.5 -85.5t20 -103.5q0 -54 -19.5 -103t-53 -85.5t-78.5 -58t-96 -21.5zM66 256q0 -50 18 -95t48.5 -78.5t71.5 -53t88 -19.5q46 0 87.5 20t73 54
t49.5 79t18 96q0 50 -18 95t-49 79t-72.5 54t-87.5 20t-87.5 -20t-72.5 -54.5t-49 -80t-18 -96.5z" />
    <glyph glyph-name="uni043F" unicode="&#x43f;" horiz-adv-x="552" 
d="M468 0h-20v500h-344v-500h-20v519h384v-519z" />
    <glyph glyph-name="uni0440" unicode="&#x440;" horiz-adv-x="603" 
d="M316 -10q-35 0 -66 10.5t-58 28t-49 41t-39 49.5v-332h-20v732h20v-110q16 26 39 47.5t49.5 37.5t55.5 24.5t59 8.5q55 0 101 -23.5t79 -61.5t51.5 -86t18.5 -98q0 -53 -17.5 -101.5t-49 -85.5t-76 -59t-98.5 -22zM316 10q51 0 91.5 21.5t69.5 56.5t44.5 79.5t15.5 90.5
q0 49 -18 94t-49 79.5t-73 55t-90 20.5q-30 0 -65 -13t-65 -35t-50.5 -51t-22.5 -60v-187q14 -32 36 -59.5t49.5 -47.5t59.5 -32t67 -12z" />
    <glyph glyph-name="uni0441" unicode="&#x441;" horiz-adv-x="538" 
d="M46 262q0 56 19 104.5t53 84t79.5 56t98.5 20.5q66 0 117.5 -30.5t77.5 -85.5l-20 -7q-26 48 -73.5 75.5t-104.5 27.5q-48 0 -89 -19t-72 -52t-48.5 -78t-17.5 -96t18 -97t49.5 -80.5t72.5 -54.5t88 -20q30 0 60.5 9t56 24t43.5 35t24 41l20 -6q-9 -26 -28.5 -48.5
t-46.5 -39t-59.5 -26t-66.5 -9.5q-51 0 -97 21.5t-80 58.5t-54 86.5t-20 105.5z" />
    <glyph glyph-name="uni0442" unicode="&#x442;" horiz-adv-x="463" 
d="M242 0h-20v500h-201v19h421v-19h-200v-500z" />
    <glyph glyph-name="uni0443" unicode="&#x443;" horiz-adv-x="536" 
d="M86 -185q19 -16 47 -16q15 0 27 7.5t26 29t32 61t44 103.5l-241 519h22l229 -494l217 494h22l-280 -639q-24 -54 -46.5 -77t-51.5 -23q-16 0 -31 4.5t-24 12.5z" />
    <glyph glyph-name="uni0444" unicode="&#x444;" horiz-adv-x="678" 
d="M348 526q64 -2 116 -22t89.5 -55.5t58 -84.5t20.5 -107q0 -62 -21.5 -110.5t-59.5 -82.5t-90 -53t-113 -21v-203h-20v203q-60 1 -111.5 20t-89.5 53.5t-59.5 83t-21.5 110.5q0 58 20.5 106.5t57.5 84t89 56t115 22.5v204h20v-204zM328 504q-58 -2 -106 -20t-82.5 -50
t-53.5 -76.5t-19 -99.5q0 -56 19.5 -101t54.5 -77.5t83 -50.5t104 -19v494zM348 10q57 1 105 19t83.5 50.5t55 77.5t19.5 101q0 55 -19 99.5t-54 76.5t-83.5 50t-106.5 20v-494z" />
    <glyph glyph-name="uni0445" unicode="&#x445;" horiz-adv-x="482" 
d="M46 519l187 -234l8 -12l8 12l187 234h26l-208 -261l206 -258h-26l-185 232l-8 12l-8 -12l-185 -232h-26l206 258l-208 261h26z" />
    <glyph glyph-name="uni0446" unicode="&#x446;" horiz-adv-x="549" 
d="M84 519h20v-500h327v500h20v-500h68v-174h-19v155h-416v519z" />
    <glyph glyph-name="uni0447" unicode="&#x447;" horiz-adv-x="472" 
d="M388 0h-21v239q-68 -33 -150 -33q-90 0 -130 44t-40 138v131h20v-129q0 -88 34.5 -126.5t111.5 -38.5q45 0 87.5 10.5t66.5 25.5v258h21v-519z" />
    <glyph glyph-name="uni0448" unicode="&#x448;" horiz-adv-x="755" 
d="M84 0v519h20v-500h263v500h21v-500h263v500h20v-519h-587z" />
    <glyph glyph-name="uni0449" unicode="&#x449;" horiz-adv-x="769" 
d="M84 519h20v-500h263v500h21v-500h263v500h20v-500h68v-174h-19v155h-636v519z" />
    <glyph glyph-name="uni044A" unicode="&#x44a;" horiz-adv-x="559" 
d="M215 321h146q83 0 123 -44t40 -113q0 -33 -10 -63t-30.5 -52.5t-50.5 -35.5t-70 -13h-168v500h-175v19h195v-198zM363 19q38 0 64.5 12t43.5 32.5t25 46.5t8 54q0 27 -6.5 52t-23 44t-44 30.5t-69.5 11.5h-146v-283h148z" />
    <glyph glyph-name="uni044B" unicode="&#x44b;" horiz-adv-x="614" 
d="M84 519h20v-198h146q83 0 123 -44t40 -113q0 -33 -10 -63t-30.5 -52.5t-50.5 -35.5t-70 -13h-168v519zM510 518h20v-518h-20v518zM252 19q38 0 64.5 12t43.5 32.5t25 46.5t8 54q0 27 -6.5 52t-23 44t-44 30.5t-69.5 11.5h-146v-283h148z" />
    <glyph glyph-name="uni044C" unicode="&#x44c;" horiz-adv-x="448" 
d="M84 519h20v-198h146q83 0 123 -44t40 -113q0 -33 -10 -63t-30.5 -52.5t-50.5 -35.5t-70 -13h-168v519zM252 19q38 0 64.5 12t43.5 32.5t25 46.5t8 54q0 27 -6.5 52t-23 44t-44 30.5t-69.5 11.5h-146v-283h148z" />
    <glyph glyph-name="uni044D" unicode="&#x44d;" horiz-adv-x="540" 
d="M247 -9q-31 0 -62.5 8t-60 23.5t-51.5 38t-36 52.5l18 7q15 -29 36.5 -49.5t47 -34t52.5 -20t53 -6.5q48 0 89.5 20t72 54t49 78.5t19.5 93.5h-285v19h284q-2 43 -18 84.5t-45 74.5t-70.5 53t-93.5 20q-50 0 -99 -23t-80 -80l-18 7q25 51 73.5 83.5t120.5 32.5
q60 0 106.5 -23.5t79 -61t49 -84.5t16.5 -95q0 -50 -18 -99t-51 -87.5t-78.5 -62t-99.5 -23.5z" />
    <glyph glyph-name="uni044E" unicode="&#x44e;" horiz-adv-x="742" 
d="M224 269q1 59 19.5 106.5t50 81.5t73 52t89.5 18q53 0 97 -20t75.5 -56t49 -85.5t17.5 -107.5q0 -62 -18.5 -111.5t-50.5 -84t-75.5 -53.5t-94.5 -19t-93 19t-72.5 53.5t-48 82.5t-18.5 105h-120v-250h-20v519h20v-250h120zM244 258q0 -57 16 -102.5t44 -78t67 -50
t85 -17.5q49 0 89.5 18.5t69 51.5t44.5 78.5t16 99.5q0 57 -17 103t-46 78.5t-69.5 50t-86.5 17.5q-47 0 -86 -18.5t-67 -51.5t-43.5 -78.5t-15.5 -100.5z" />
    <glyph glyph-name="uni044F" unicode="&#x44f;" horiz-adv-x="487" 
d="M210 219q-57 5 -94 44t-37 109q0 30 11 56.5t32 46.5t50.5 32t67.5 12h163v-519h-20v218h-149l-171 -218h-25zM383 237v263h-143q-64 0 -102 -36.5t-38 -91.5q0 -27 7.5 -51.5t22.5 -43t38 -29.5t55 -11h160z" />
    <glyph glyph-name="uni0450" unicode="&#x450;" 
d="M296 -10q-51 0 -96.5 21.5t-79.5 59t-54 87t-20 105.5q0 55 19 103t52.5 84t78 56.5t95.5 20.5q52 0 97.5 -21t79 -57t53.5 -85t20 -105v-11h-475q4 -50 23.5 -93.5t50.5 -75.5t71.5 -50.5t85.5 -18.5q30 0 58.5 8t53.5 22.5t44 34.5t30 44l19 -5q-11 -27 -31.5 -49.5
t-48 -39t-60 -26t-66.5 -9.5zM520 268q-3 52 -22 96t-49.5 75.5t-70.5 49.5t-86 18t-86 -18t-70.5 -50t-48.5 -76t-21 -95h454zM224 730h33l65 -73l-16 -12z" />
    <glyph glyph-name="uni0451" unicode="&#x451;" 
d="M296 -10q-51 0 -96.5 21.5t-79.5 59t-54 87t-20 105.5q0 55 19 103t52.5 84t78 56.5t95.5 20.5q52 0 97.5 -21t79 -57t53.5 -85t20 -105v-11h-475q4 -50 23.5 -93.5t50.5 -75.5t71.5 -50.5t85.5 -18.5q30 0 58.5 8t53.5 22.5t44 34.5t30 44l19 -5q-11 -27 -31.5 -49.5
t-48 -39t-60 -26t-66.5 -9.5zM520 268q-3 52 -22 96t-49.5 75.5t-70.5 49.5t-86 18t-86 -18t-70.5 -50t-48.5 -76t-21 -95h454zM224 653v77h20v-77h-20zM340 653v77h20v-77h-20z" />
    <glyph glyph-name="uni0452" unicode="&#x452;" horiz-adv-x="565" 
d="M487 -36q0 -29 -12 -53.5t-31 -42.5t-43 -28t-47 -10q-29 0 -54.5 7t-45.5 27l16 12q18 -16 40 -21t43 -5t41 9t36.5 24t26.5 36t10 45v295q0 108 -35 163t-119 55q-39 0 -72.5 -16t-60.5 -44t-46.5 -66t-29.5 -83v-268h-20v603h-74v20h74v107h20v-107h246v-20h-246v-278
q26 78 81.5 125t126.5 47q94 0 134.5 -60t40.5 -178v-295z" />
    <glyph glyph-name="uni0453" unicode="&#x453;" horiz-adv-x="392" 
d="M210 645l-16 12l64 73h34zM368 500h-264v-500h-20v519h284v-19z" />
    <glyph glyph-name="uni0454" unicode="&#x454;" horiz-adv-x="540" 
d="M293 -9q-54 0 -99.5 23.5t-78.5 62t-51 87.5t-18 99q0 48 16.5 95t49 84.5t79 61t106.5 23.5q72 0 120.5 -32.5t73.5 -83.5l-18 -7q-31 57 -80 80t-99 23q-53 0 -94.5 -20t-70.5 -53t-45 -74.5t-18 -84.5h285v-19h-285q1 -49 19 -93.5t49 -78.5t72.5 -54t89.5 -20
q26 0 53 6.5t52.5 20t47 34t36.5 49.5l18 -7q-14 -30 -36.5 -52.5t-51 -38t-60 -23.5t-62.5 -8z" />
    <glyph glyph-name="uni0455" unicode="&#x455;" horiz-adv-x="470" 
d="M234 -10q-121 0 -198 84l15 13q40 -39 83.5 -58t99.5 -19q77 0 125 33t48 93q0 28 -12 46.5t-35 32t-57 23t-77 19.5q-42 10 -73 18.5t-51.5 21.5t-31 32.5t-10.5 50.5q0 39 15 66.5t40 45.5t58 26.5t70 8.5q63 0 107.5 -21.5t61.5 -53.5l-18 -8q-19 31 -62 47t-93 16
q-32 0 -61 -7t-51 -22t-34.5 -38.5t-12.5 -56.5q0 -26 8.5 -42.5t26.5 -27.5t46 -19t66 -17q46 -11 83.5 -21t63 -25t39.5 -36.5t14 -55.5t-14 -61.5t-39 -47t-61 -30t-79 -10.5z" />
    <glyph glyph-name="uni0456" unicode="&#x456;" horiz-adv-x="188" 
d="M84 0v519h20v-519h-20zM84 653v77h20v-77h-20z" />
    <glyph glyph-name="uni0457" unicode="&#x457;" horiz-adv-x="188" 
d="M84 0v519h20v-519h-20zM26 653v77h20v-77h-20zM142 653v77h20v-77h-20z" />
    <glyph glyph-name="uni0458" unicode="&#x458;" horiz-adv-x="196" 
d="M-21 -170q-29 0 -54.5 7t-45.5 27l16 12q18 -16 40 -21t43 -5t41 9t36.5 24t26.5 36t10 45v555h20v-555q0 -29 -12 -53.5t-31 -42.5t-43 -28t-47 -10zM92 653v77h20v-77h-20z" />
    <glyph glyph-name="uni0459" unicode="&#x459;" horiz-adv-x="775" 
d="M12 20q19 0 38.5 16.5t37 58.5t33 113t27.5 180l14 131h259v-228h152q83 0 123 -39.5t40 -102.5q0 -30 -10 -57.5t-30.5 -47.5t-50.5 -32t-70 -12h-174v500h-220l-13 -122q-12 -109 -27.5 -181.5t-35 -116t-43 -62t-50.5 -18.5v20zM575 19q38 0 64.5 11t43.5 29t25 41.5
t8 48.5q0 24 -6.5 46t-23 39.5t-44 27.5t-69.5 10h-152v-253h154z" />
    <glyph glyph-name="uni045A" unicode="&#x45a;" horiz-adv-x="801" 
d="M84 519h20v-228h309v228h20v-228h166q83 0 123 -39.5t40 -102.5q0 -30 -10 -57.5t-30.5 -47.5t-50.5 -32t-70 -12h-188v272h-309v-272h-20v519zM601 19q38 0 64.5 11t43.5 29t25 41.5t8 48.5q0 24 -6.5 46t-23 39.5t-44 27.5t-69.5 10h-166v-253h168z" />
    <glyph glyph-name="uni045B" unicode="&#x45b;" horiz-adv-x="565" 
d="M467 259q0 108 -35 163t-119 55q-39 0 -72.5 -16t-60.5 -44t-46.5 -66t-29.5 -83v-268h-20v603h-74v20h74v107h20v-107h246v-20h-246v-278q26 78 81.5 125t126.5 47q94 0 134.5 -60t40.5 -178v-259h-20v259z" />
    <glyph glyph-name="uni045C" unicode="&#x45c;" horiz-adv-x="444" 
d="M383 519h25l-180 -248l204 -271h-25l-196 261h-107v-261h-20v519h20v-239h108zM200 645l-16 12l64 73h34z" />
    <glyph glyph-name="uni045D" unicode="&#x45d;" horiz-adv-x="581" 
d="M104 28l375 491h18v-519h-20v483l-370 -483h-23v518h20v-490zM221 730h33l65 -73l-16 -12z" />
    <glyph glyph-name="uni045E" unicode="&#x45e;" horiz-adv-x="536" 
d="M372 682q0 -24 -24.5 -42.5t-82.5 -18.5q-59 0 -83.5 18.5t-24.5 42.5h17q0 -17 20 -31t71 -14q25 0 41.5 3.5t26.5 9.5t15 14.5t8 17.5h16zM128 -203q17 0 30 2.5t17 7.5q1 2 5.5 10t14 29t25.5 58t42 96l-241 519h22l229 -494l217 494h22l-309 -705q-12 -28 -33 -32
q-20 -5 -41 -5v20z" />
    <glyph glyph-name="uni045F" unicode="&#x45f;" horiz-adv-x="535" 
d="M257 0h-173v519h20v-500h327v500h20v-519h-174v-155h-20v155z" />
    <glyph glyph-name="uni0490" unicode="&#x490;" horiz-adv-x="532" 
d="M99 710h389l6 185h14v-205h-389v-690h-20v710z" />
    <glyph glyph-name="uni0491" unicode="&#x491;" horiz-adv-x="424" 
d="M84 518h295l6 155h14v-174h-295v-499h-20v518z" />
    <glyph glyph-name="uni04B0" unicode="&#x4b0;" horiz-adv-x="635" 
d="M464 251v-20h-137v-231h-20v231h-136v20h136v26l-287 433h23l274 -412l275 412h23l-288 -435v-24h137z" />
    <glyph glyph-name="uni04B1" unicode="&#x4b1;" horiz-adv-x="561" 
d="M270 0h-106v20h106v4l-250 495h23l237 -474l238 474h23l-251 -495v-4h107v-20h-107v-213h-20v213z" />
    <glyph glyph-name="Ddotbelow" unicode="&#x1e0c;" horiz-adv-x="711" 
d="M99 0v710h228q84 0 146.5 -28t104 -76t62 -112.5t20.5 -137.5q0 -81 -23.5 -146.5t-66.5 -112t-105 -72t-138 -25.5h-228zM640 356q0 73 -20.5 134t-60.5 105.5t-98.5 69.5t-133.5 25h-208v-670h208q77 0 135.5 25.5t98 70.5t59.5 106.5t20 133.5zM328 -127v77h20v-77
h-20z" />
    <glyph glyph-name="ddotbelow" unicode="&#x1e0d;" horiz-adv-x="604" 
d="M296 -10q-54 0 -100 23t-79.5 61t-52 86t-18.5 98q0 54 18 102.5t50.5 85.5t76.5 59t96 22q36 0 67.5 -10.5t58.5 -28t48.5 -41t37.5 -49.5v332h20v-690q0 -20 16 -20v-20q-9 0 -13 2q-11 5 -17 15.5t-6 22.5v68q-17 -26 -39.5 -47.5t-49 -37.5t-55.5 -24.5t-59 -8.5z
M296 10q30 0 65 13t65 34.5t50.5 50.5t22.5 61v187q-11 31 -34 58.5t-52 48t-62 32.5t-64 12q-51 0 -91.5 -21.5t-69.5 -56.5t-44.5 -80t-15.5 -91q0 -49 18 -93.5t49 -79t73 -55t90 -20.5zM283 -127v77h20v-77h-20z" />
    <glyph glyph-name="Hdotbelow" unicode="&#x1e24;" horiz-adv-x="731" 
d="M632 710v-710h-20v353h-493v-353h-20v710h20v-337h493v337h20zM362 -127v77h20v-77h-20z" />
    <glyph glyph-name="hdotbelow" unicode="&#x1e25;" horiz-adv-x="565" 
d="M487 0h-20v289q0 218 -144 218q-36 0 -71 -14t-64.5 -38t-51.5 -56.5t-32 -70.5v-328h-20v730h20v-345q16 32 39.5 58.5t52 45t61 28.5t65.5 10q81 0 123 -60t42 -178v-289zM278 -127v77h20v-77h-20z" />
    <glyph glyph-name="Ndotaccent" unicode="&#x1e44;" horiz-adv-x="776" 
d="M119 671v-671h-20v710h15l543 -681v681h20v-710h-23zM383 841v77h20v-77h-20z" />
    <glyph glyph-name="ndotaccent" unicode="&#x1e45;" horiz-adv-x="565" 
d="M487 0h-20v289q0 114 -31.5 166t-101.5 52q-38 0 -74.5 -13.5t-67.5 -37.5t-54 -57t-34 -71v-328h-20v519h20v-134q16 31 41 57.5t55 45t64 29t69 10.5q80 0 117 -57.5t37 -180.5v-289zM270 653v77h20v-77h-20z" />
    <glyph glyph-name="Rdotbelow" unicode="&#x1e5a;" horiz-adv-x="642" 
d="M99 0v710h289q43 0 80 -18.5t63.5 -49t41.5 -69t15 -78.5q0 -41 -13 -79t-37 -67.5t-57.5 -48t-73.5 -21.5l180 -279h-24l-180 279h-264v-279h-20zM119 299h276q40 0 72 17t54.5 44.5t34.5 62.5t12 72q0 38 -14 73t-38.5 62t-57.5 43.5t-70 16.5h-269v-391zM314 -127v77
h20v-77h-20z" />
    <glyph glyph-name="rdotbelow" unicode="&#x1e5b;" horiz-adv-x="323" 
d="M306 499q-74 -3 -127.5 -48t-74.5 -123v-328h-20v519h20v-134q27 55 72.5 90.5t96.5 41.5q10 1 18.5 1.5t14.5 0.5v-20zM84 -127v77h20v-77h-20z" />
    <glyph glyph-name="Sdotbelow" unicode="&#x1e62;" horiz-adv-x="602" 
d="M509 616q-42 46 -87.5 63t-108.5 17q-61 0 -104.5 -12t-71.5 -34.5t-41 -53.5t-13 -70q0 -38 13 -63.5t40 -43t69.5 -30t101.5 -24.5t107 -26t81.5 -35t51.5 -52t18 -78q0 -87 -66.5 -133t-183.5 -46q-86 0 -152.5 26.5t-123.5 83.5l15 13q54 -56 117.5 -81t144.5 -25
q106 0 167.5 39.5t61.5 119.5q0 40 -14 67.5t-43 47.5t-74 34t-106 26q-59 11 -104.5 23.5t-77 32t-47.5 49t-16 73.5q0 46 17.5 81.5t50 60t78 37t102.5 12.5q68 0 118.5 -19.5t92.5 -65.5zM304 -127v77h20v-77h-20z" />
    <glyph glyph-name="sdotbelow" unicode="&#x1e63;" horiz-adv-x="471" 
d="M235 -10q-121 0 -198 84l15 13q40 -39 83.5 -58t99.5 -19q77 0 125 33t48 93q0 28 -12 46.5t-35 32t-57 23t-77 19.5q-42 10 -73 18.5t-51.5 21.5t-31 32.5t-10.5 50.5q0 39 15 66.5t40 45.5t58 26.5t70 8.5q63 0 107.5 -21.5t61.5 -53.5l-18 -8q-19 31 -62 47t-93 16
q-32 0 -61 -7t-51 -22t-34.5 -38.5t-12.5 -56.5q0 -26 8.5 -42.5t26.5 -27.5t46 -19t66 -17q46 -11 83.5 -21t63 -25t39.5 -36.5t14 -55.5t-14 -61.5t-39 -47t-61 -30t-79 -10.5zM225 -127v77h20v-77h-20z" />
    <glyph glyph-name="Tdotbelow" unicode="&#x1e6c;" horiz-adv-x="600" 
d="M582 690h-272v-690h-20v690h-272v20h564v-20zM290 -127v77h20v-77h-20z" />
    <glyph glyph-name="tdotbelow" unicode="&#x1e6d;" horiz-adv-x="295" 
d="M286 24l-7.5 -5t-20 -10t-29.5 -9.5t-38 -4.5q-36 0 -63 22t-27 58v424h-75v20h75v181h20v-181h125v-20h-125v-424q2 -29 23 -44.5t47 -15.5q17 0 32 3.5t26.5 8t18 8.5t7.5 5zM174 -127v77h20v-77h-20z" />
    <glyph glyph-name="Wgrave" unicode="&#x1e80;" horiz-adv-x="1038" 
d="M381 704h22l115 -266l116 266h22l-127 -290l170 -389l298 685h22l-309 -710h-22l-169 389l-169 -389h-22l-309 710h22l298 -685l169 389zM450 918h33l65 -73l-16 -12z" />
    <glyph glyph-name="wgrave" unicode="&#x1e81;" horiz-adv-x="794" 
d="M747 519h22l-227 -519h-18l-127 291l-127 -291h-18l-227 519h22l214 -490l125 287l-87 202h21l77 -176l77 176h21l-87 -202l125 -287zM329 730h33l65 -73l-16 -12z" />
    <glyph glyph-name="Wacute" unicode="&#x1e82;" horiz-adv-x="1038" 
d="M381 704h22l115 -266l116 266h22l-127 -290l170 -389l298 685h22l-309 -710h-22l-169 389l-169 -389h-22l-309 710h22l298 -685l169 389zM504 833l-16 12l64 73h34z" />
    <glyph glyph-name="wacute" unicode="&#x1e83;" horiz-adv-x="794" 
d="M747 519h22l-227 -519h-18l-127 291l-127 -291h-18l-227 519h22l214 -490l125 287l-87 202h21l77 -176l77 176h21l-87 -202l125 -287zM383 645l-16 12l64 73h34z" />
    <glyph glyph-name="Wdieresis" unicode="&#x1e84;" horiz-adv-x="1038" 
d="M381 704h22l115 -266l116 266h22l-127 -290l170 -389l298 685h22l-309 -710h-22l-169 389l-169 -389h-22l-309 710h22l298 -685l169 389zM450 841v77h20v-77h-20zM566 841v77h20v-77h-20z" />
    <glyph glyph-name="wdieresis" unicode="&#x1e85;" horiz-adv-x="794" 
d="M747 519h22l-227 -519h-18l-127 291l-127 -291h-18l-227 519h22l214 -490l125 287l-87 202h21l77 -176l77 176h21l-87 -202l125 -287zM329 653v77h20v-77h-20zM445 653v77h20v-77h-20z" />
    <glyph glyph-name="Zdotbelow" unicode="&#x1e92;" horiz-adv-x="624" 
d="M28 20l542 670h-537v20h562v-20l-542 -670h538v-20h-563v20zM307 -127v77h20v-77h-20z" />
    <glyph glyph-name="zdotbelow" unicode="&#x1e93;" horiz-adv-x="488" 
d="M33 20l396 479h-391v20h416v-20l-395 -479h391v-20h-417v20zM237 -127v77h20v-77h-20z" />
    <glyph glyph-name="Edotbelow" unicode="&#x1eb8;" horiz-adv-x="617" 
d="M565 20v-20h-466v710h457v-20h-437v-317h383v-20h-383v-333h446zM329 -127v77h20v-77h-20z" />
    <glyph glyph-name="edotbelow" unicode="&#x1eb9;" 
d="M296 -10q-51 0 -96.5 21.5t-79.5 59t-54 87t-20 105.5q0 55 19 103t52.5 84t78 56.5t95.5 20.5q52 0 97.5 -21t79 -57t53.5 -85t20 -105v-11h-475q4 -50 23.5 -93.5t50.5 -75.5t71.5 -50.5t85.5 -18.5q30 0 58.5 8t53.5 22.5t44 34.5t30 44l19 -5q-11 -27 -31.5 -49.5
t-48 -39t-60 -26t-66.5 -9.5zM520 268q-3 52 -22 96t-49.5 75.5t-70.5 49.5t-86 18t-86 -18t-70.5 -50t-48.5 -76t-21 -95h454zM284 -127v77h20v-77h-20z" />
    <glyph glyph-name="Etilde" unicode="&#x1ebc;" horiz-adv-x="617" 
d="M565 20v-20h-466v710h457v-20h-437v-317h383v-20h-383v-333h446zM405 851q-22 0 -38.5 6t-30.5 13t-27.5 13t-28.5 6q-16 0 -26 -6.5t-15.5 -15t-7.5 -16.5t-2 -10h-20q0 2 2 13t9.5 23t22 21.5t39.5 9.5q19 0 34 -6t29 -13t28.5 -13t33.5 -6q21 0 32.5 7t17.5 15.5
t7.5 16t1.5 9.5h20q0 -3 -2.5 -14t-10.5 -23t-24.5 -21t-43.5 -9z" />
    <glyph glyph-name="etilde" unicode="&#x1ebd;" 
d="M296 -10q-51 0 -96.5 21.5t-79.5 59t-54 87t-20 105.5q0 55 19 103t52.5 84t78 56.5t95.5 20.5q52 0 97.5 -21t79 -57t53.5 -85t20 -105v-11h-475q4 -50 23.5 -93.5t50.5 -75.5t71.5 -50.5t85.5 -18.5q30 0 58.5 8t53.5 22.5t44 34.5t30 44l19 -5q-11 -27 -31.5 -49.5
t-48 -39t-60 -26t-66.5 -9.5zM520 268q-3 52 -22 96t-49.5 75.5t-70.5 49.5t-86 18t-86 -18t-70.5 -50t-48.5 -76t-21 -95h454zM353 663q-22 0 -38.5 6t-30.5 13t-27.5 13t-28.5 6q-16 0 -26 -6.5t-15.5 -15t-7.5 -16.5t-2 -10h-20q0 2 2 13t9.5 23t22 21.5t39.5 9.5
q19 0 34 -6t29 -13t28.5 -13t33.5 -6q21 0 32.5 7t17.5 15.5t7.5 16t1.5 9.5h20q0 -3 -2.5 -14t-10.5 -23t-24.5 -21t-43.5 -9z" />
    <glyph glyph-name="Idotbelow" unicode="&#x1eca;" horiz-adv-x="218" 
d="M99 0v710h20v-710h-20zM99 -127v77h20v-77h-20z" />
    <glyph glyph-name="idotbelow" unicode="&#x1ecb;" horiz-adv-x="188" 
d="M84 0v519h20v-519h-20zM84 653v77h20v-77h-20zM84 -127v77h20v-77h-20z" />
    <glyph glyph-name="Odotbelow" unicode="&#x1ecc;" horiz-adv-x="757" 
d="M379 -5q-74 0 -134.5 31t-104.5 81t-68 115t-24 133q0 71 25.5 136t70 115t105 79.5t130.5 29.5q73 0 134 -31.5t104.5 -82.5t67.5 -115.5t24 -130.5q0 -72 -25.5 -137t-70 -114.5t-104.5 -79t-130 -29.5zM68 355q0 -66 23.5 -127.5t64.5 -109t98 -75.5t125 -28
q69 0 126.5 29.5t98 77.5t63 109t22.5 124q0 66 -23.5 127.5t-65.5 109t-98.5 75.5t-122.5 28q-69 0 -126.5 -29.5t-98.5 -77.5t-63.5 -109t-22.5 -124zM368 -127v77h20v-77h-20z" />
    <glyph glyph-name="odotbelow" unicode="&#x1ecd;" horiz-adv-x="586" 
d="M293 -10q-51 0 -96 21.5t-78.5 58t-53 85.5t-19.5 103q0 55 19.5 103.5t53.5 85.5t79 58.5t95 21.5t95 -21.5t78.5 -58.5t53.5 -85.5t20 -103.5q0 -54 -19.5 -103t-53 -85.5t-78.5 -58t-96 -21.5zM66 256q0 -50 18 -95t48.5 -78.5t71.5 -53t88 -19.5q46 0 87.5 20t73 54
t49.5 79t18 96q0 50 -18 95t-49 79t-72.5 54t-87.5 20t-87.5 -20t-72.5 -54.5t-49 -80t-18 -96.5zM278 -127v77h20v-77h-20z" />
    <glyph glyph-name="Udotbelow" unicode="&#x1ee4;" horiz-adv-x="756" 
d="M378 15q80 0 132.5 30t83 78t43 109t12.5 123v355h20v-355q0 -71 -14.5 -136t-48.5 -114.5t-89.5 -79.5t-137.5 -30q-84 0 -140 31t-89.5 82t-47.5 115.5t-14 131.5v355h20v-355q0 -64 12.5 -125t43.5 -109t83 -77t131 -29zM373 -127v77h20v-77h-20z" />
    <glyph glyph-name="udotbelow" unicode="&#x1ee5;" 
d="M245 -10q-167 0 -167 238v291h20v-291q0 -218 147 -218q37 0 73 13.5t66 37t52.5 56.5t34.5 72v330h20v-479q0 -20 16 -20v-20q-11 0 -14 2q-10 4 -16 14.5t-6 23.5v92q-34 -66 -95 -104t-131 -38zM269 -127v77h20v-77h-20z" />
    <glyph glyph-name="Ygrave" unicode="&#x1ef2;" horiz-adv-x="641" 
d="M46 710l274 -412l275 412h23l-288 -435v-275h-20v277l-287 433h23zM252 918h33l65 -73l-16 -12z" />
    <glyph glyph-name="ygrave" unicode="&#x1ef3;" horiz-adv-x="536" 
d="M128 -203q17 0 29.5 1.5t17.5 8.5q3 3 7 11.5t13 29t25 57t42 95.5l-241 519h22l229 -494l217 494h22l-309 -705q-12 -26 -33 -32q-20 -5 -41 -5v20zM204 730h33l65 -73l-16 -12z" />
    <glyph glyph-name="Ytilde" unicode="&#x1ef8;" horiz-adv-x="641" 
d="M46 710l274 -412l275 412h23l-288 -435v-275h-20v277l-287 433h23zM381 851q-22 0 -38.5 6t-30.5 13t-27.5 13t-28.5 6q-16 0 -26 -6.5t-15.5 -15t-7.5 -16.5t-2 -10h-20q0 2 2 13t9.5 23t22 21.5t39.5 9.5q19 0 34 -6t29 -13t28.5 -13t33.5 -6q21 0 32.5 7t17.5 15.5
t7.5 16t1.5 9.5h20q0 -3 -2.5 -14t-10.5 -23t-24.5 -21t-43.5 -9z" />
    <glyph glyph-name="ytilde" unicode="&#x1ef9;" horiz-adv-x="536" 
d="M128 -203q17 0 29.5 1.5t17.5 8.5q3 3 7 11.5t13 29t25 57t42 95.5l-241 519h22l229 -494l217 494h22l-309 -705q-12 -26 -33 -32q-20 -5 -41 -5v20zM333 663q-22 0 -38.5 6t-30.5 13t-27.5 13t-28.5 6q-16 0 -26 -6.5t-15.5 -15t-7.5 -16.5t-2 -10h-20q0 2 2 13t9.5 23
t22 21.5t39.5 9.5q19 0 34 -6t29 -13t28.5 -13t33.5 -6q21 0 32.5 7t17.5 15.5t7.5 16t1.5 9.5h20q0 -3 -2.5 -14t-10.5 -23t-24.5 -21t-43.5 -9z" />
    <glyph glyph-name="enspace" unicode="&#x2002;" horiz-adv-x="563" 
 />
    <glyph glyph-name="emspace" unicode="&#x2003;" horiz-adv-x="906" 
 />
    <glyph glyph-name="endash" unicode="&#x2013;" horiz-adv-x="541" 
d="M69 261v20h403v-20h-403z" />
    <glyph glyph-name="emdash" unicode="&#x2014;" horiz-adv-x="877" 
d="M69 261v20h739v-20h-739z" />
    <glyph glyph-name="quoteleft" unicode="&#x2018;" horiz-adv-x="168" 
d="M97 730l-10 -86h9v-74h-26v74l13 86h14z" />
    <glyph glyph-name="quoteright" unicode="&#x2019;" horiz-adv-x="165" 
d="M71 570l10 86h-9v74h26v-74l-13 -86h-14z" />
    <glyph glyph-name="quotesinglbase" unicode="&#x201a;" horiz-adv-x="260" 
d="M116 -76l10 76h-9v74h26v-74l-13 -76h-14z" />
    <glyph glyph-name="quotedblleft" unicode="&#x201c;" horiz-adv-x="248" 
d="M97 730l-10 -86h9v-74h-26v74l13 86h14zM177 730l-10 -86h9v-74h-26v74l13 86h14z" />
    <glyph glyph-name="quotedblright" unicode="&#x201d;" horiz-adv-x="245" 
d="M71 570l10 86h-9v74h26v-74l-13 -86h-14zM151 570l10 86h-9v74h26v-74l-13 -86h-14z" />
    <glyph glyph-name="quotedblbase" unicode="&#x201e;" horiz-adv-x="330" 
d="M116 -76l10 76h-9v74h26v-74l-13 -76h-14zM186 -76l10 76h-9v74h26v-74l-13 -76h-14z" />
    <glyph glyph-name="dagger" unicode="&#x2020;" horiz-adv-x="371" 
d="M176 -130v391h-132v20h132v494h20v-494h131v-20h-131v-391h-20z" />
    <glyph glyph-name="daggerdbl" unicode="&#x2021;" horiz-adv-x="379" 
d="M180 -130v331h-132v20h132v110h-132v20h132v424h20v-424h131v-20h-131v-110h131v-20h-131v-331h-20z" />
    <glyph glyph-name="bullet" unicode="&#x2022;" horiz-adv-x="340" 
d="M248 343q0 -33 -22.5 -56t-55.5 -23q-32 0 -55.5 23t-23.5 56q0 16 6.5 30t17 24.5t25 17t30.5 6.5q33 0 55.5 -23t22.5 -55z" />
    <glyph glyph-name="ellipsis" unicode="&#x2026;" horiz-adv-x="348" 
d="M69 0v64h20v-64h-20zM164 0v64h20v-64h-20zM259 0v64h20v-64h-20z" />
    <glyph glyph-name="perthousand" unicode="&#x2030;" horiz-adv-x="994" 
d="M192 444q-29 0 -54 11t-43.5 29.5t-29.5 43.5t-11 54q0 28 11 53.5t29.5 44t43.5 29.5t54 11q28 0 53.5 -11t44 -29.5t29.5 -44t11 -53.5q0 -29 -11 -54t-29.5 -43.5t-44 -29.5t-53.5 -11zM192 464q25 0 46.5 9.5t37.5 26t25 38t9 44.5q0 25 -9.5 46.5t-26 37.5t-38 25
t-44.5 9q-25 0 -46.5 -9.5t-37.5 -26t-25 -38t-9 -44.5q0 -25 9.5 -46.5t25.5 -37.5t37.5 -25t45.5 -9zM491 -10q-29 0 -54 10.5t-43.5 29.5t-29.5 44t-11 54q0 28 11 53.5t29.5 44t43.5 29.5t54 11q28 0 53.5 -11t44 -29.5t29.5 -44t11 -53.5q0 -29 -11 -54t-29.5 -44
t-44 -29.5t-53.5 -10.5zM491 10q25 0 46.5 9.5t37.5 26t25 37.5t9 45t-9.5 45.5t-26 37.5t-38 25.5t-44.5 9.5q-25 0 -46.5 -9.5t-37.5 -26t-25 -38t-9 -44.5q0 -25 9.5 -46.5t25.5 -37.5t37.5 -25t45.5 -9zM822 -10q-29 0 -54 10.5t-43.5 29.5t-29.5 44t-11 54
q0 28 11 53.5t29.5 44t43.5 29.5t54 11q28 0 53.5 -11t44 -29.5t29.5 -44t11 -53.5q0 -29 -11 -54t-29.5 -44t-44 -29.5t-53.5 -10.5zM822 10q25 0 46.5 9.5t37.5 26t25 37.5t9 45t-9.5 45.5t-26 37.5t-38 25.5t-44.5 9.5q-25 0 -46.5 -9.5t-37.5 -26t-25 -38t-9 -44.5
q0 -25 9.5 -46.5t25.5 -37.5t37.5 -25t45.5 -9zM54 11l558 700l16 -12l-558 -700z" />
    <glyph glyph-name="guilsinglleft" unicode="&#x2039;" horiz-adv-x="348" 
d="M42 268l237 169v-22l-218 -156l218 -157v-22l-237 170v18z" />
    <glyph glyph-name="guilsinglright" unicode="&#x203a;" horiz-adv-x="348" 
d="M306 250l-237 -170v22l218 157l-218 156v22l237 -169v-18z" />
    <glyph glyph-name="fraction" unicode="&#x2044;" horiz-adv-x="120" 
d="M-227 11l558 700l16 -12l-558 -700z" />
    <glyph glyph-name="zerosuperior" unicode="&#x2070;" horiz-adv-x="437" 
d="M219 422q-44 0 -77 18.5t-55.5 46.5t-33.5 62.5t-11 66.5q0 34 12.5 69t35.5 62.5t55.5 45t73.5 17.5q43 0 76 -18.5t55.5 -47t33.5 -63t11 -65.5q0 -35 -12 -70t-35 -62.5t-55.5 -44.5t-73.5 -17zM62 616q0 -31 10.5 -62t30.5 -56t49 -41t67 -16q39 0 68 17t48.5 43
t29.5 56.5t10 58.5q0 31 -10.5 62t-31 56t-49.5 41t-65 16q-39 0 -68.5 -17t-49 -43t-29.5 -56.5t-10 -58.5z" />
    <glyph glyph-name="foursuperior" unicode="&#x2074;" horiz-adv-x="366" 
d="M259 427v110h-233v17l239 256h14v-254h55v-19h-55v-110h-20zM54 556h205v219z" />
    <glyph glyph-name="fivesuperior" unicode="&#x2075;" horiz-adv-x="361" 
d="M180 668q30 0 56 -9t45.5 -24.5t31 -38t11.5 -49.5q0 -28 -12 -51t-32 -39.5t-47 -25.5t-57 -9q-47 0 -84 21t-55 56l17 6q17 -29 49.5 -47t73.5 -18q27 0 50 8t40.5 22t27 33.5t9.5 42.5q0 25 -11 44t-29 32t-40.5 20t-46.5 7q-34 0 -63.5 -13t-47.5 -36h-21
q3 12 10.5 45t16 69t15.5 64.5t7 31.5h210v-19h-194l-38 -162q21 20 49 29.5t59 9.5z" />
    <glyph glyph-name="sixsuperior" unicode="&#x2076;" horiz-adv-x="389" 
d="M353 550q0 -27 -12 -51t-32.5 -42t-48.5 -28t-60 -10q-33 0 -61.5 10.5t-49.5 30.5t-33 48t-12 64q0 122 44 180t114 58q45 0 79.5 -20.5t48.5 -55.5l-15 -10q-12 30 -43 49t-70 19q-62 0 -99.5 -50.5t-38.5 -144.5q14 38 52.5 60.5t86.5 22.5q31 0 58.5 -10t47.5 -28
t32 -41.5t12 -50.5zM201 437q27 0 51.5 9t42.5 24t28.5 35.5t10.5 43.5t-10.5 44t-29 36.5t-43 24.5t-51.5 9t-51.5 -9t-42.5 -24.5t-28.5 -36t-10.5 -43.5t10.5 -43.5t29 -36t43 -24.5t51.5 -9z" />
    <glyph glyph-name="sevensuperior" unicode="&#x2077;" horiz-adv-x="331" 
d="M286 791h-258v19h290l-225 -383h-23z" />
    <glyph glyph-name="eightsuperior" unicode="&#x2078;" horiz-adv-x="382" 
d="M339 530q0 -24 -12 -44t-33 -34t-48 -21.5t-57 -7.5q-33 0 -60.5 9t-46.5 24t-29.5 34.5t-10.5 41.5q0 19 8.5 35.5t22.5 29.5t31.5 22t35.5 14q-33 11 -57.5 32t-24.5 52q0 22 11.5 39.5t30.5 29.5t43 18t48 6t48 -6t42.5 -18t30 -29.5t11.5 -39.5q0 -31 -24.5 -52.5
t-58.5 -31.5q42 -11 70.5 -38t28.5 -65zM319 532q0 22 -12 39t-30.5 29t-41.5 18t-45 6q-23 0 -46 -6.5t-41 -19t-29.5 -29.5t-11.5 -38t12 -38t30.5 -28.5t41.5 -17.5t45 -6q23 0 46 6.5t41 18t29.5 28.5t11.5 38zM78 716q0 -18 10.5 -32t26.5 -23.5t36 -14.5t39 -5t39.5 5
t36.5 15t26.5 24t10.5 32t-9.5 31.5t-25.5 23.5t-36.5 15t-41.5 5q-22 0 -42 -5.5t-35.5 -15t-25 -23.5t-9.5 -32z" />
    <glyph glyph-name="ninesuperior" unicode="&#x2079;" horiz-adv-x="389" 
d="M36 679q0 27 12 51t32.5 42t48.5 28t60 10q33 0 61.5 -10.5t49.5 -30.5t33 -48t12 -64q0 -62 -11.5 -106.5t-32.5 -74t-50 -43.5t-64 -14q-45 0 -79.5 20.5t-48.5 55.5l15 10q12 -31 43 -49.5t70 -18.5q62 0 100 50.5t38 143.5q-14 -37 -53 -60t-86 -23q-31 0 -58.5 10.5
t-47.5 28t-32 41.5t-12 51zM188 792q-27 0 -51 -9t-42 -24t-28.5 -35.5t-10.5 -43.5t10.5 -44t29 -36.5t42.5 -24.5t51 -9t51.5 9t42.5 24.5t28.5 36t10.5 43.5t-10.5 43.5t-29 36t-43 24.5t-51.5 9z" />
    <glyph glyph-name="zeroinferior" unicode="&#x2080;" horiz-adv-x="437" 
d="M219 -85q-44 0 -77 18.5t-55.5 46.5t-33.5 62.5t-11 66.5q0 34 12.5 69t35.5 62.5t55.5 45t73.5 17.5q43 0 76 -18.5t55.5 -47t33.5 -63t11 -65.5q0 -35 -12 -70t-35 -62.5t-55.5 -44.5t-73.5 -17zM62 109q0 -31 10.5 -62t30.5 -56t49 -41t67 -16q39 0 68 17t48.5 43
t29.5 56.5t10 58.5q0 31 -10.5 62t-31 56t-49.5 41t-65 16q-39 0 -68.5 -17t-49 -43t-29.5 -56.5t-10 -58.5z" />
    <glyph glyph-name="oneinferior" unicode="&#x2081;" horiz-adv-x="252" 
d="M230 -61v-19h-181v19h83v344q-5 -6 -16.5 -14.5t-25 -15.5t-28.5 -12t-27 -5v19q16 0 33 8t31 18t23 18.5t10 9.5h20v-370h78z" />
    <glyph glyph-name="twoinferior" unicode="&#x2082;" horiz-adv-x="369" 
d="M40 -80q0 74 33 113t90 60q22 8 47 16t45.5 19.5t34 28.5t13.5 43q0 17 -7 33t-21 28.5t-35 20t-50 7.5q-27 0 -48.5 -6.5t-37.5 -15.5t-27 -19.5t-17 -18.5l-15 12q1 2 10.5 12.5t27.5 22.5t45.5 22t63.5 10q34 0 58.5 -9t41 -24t24.5 -35t8 -41q0 -30 -15 -49.5
t-37 -32.5t-47.5 -21.5l-46.5 -15.5q-39 -14 -62 -32t-34 -37t-14 -38t-3 -34h260v-19h-285z" />
    <glyph glyph-name="threeinferior" unicode="&#x2083;" horiz-adv-x="380" 
d="M190 -85q-31 0 -57.5 7t-46.5 20t-32 30.5t-13 38.5l16 7q1 -17 11.5 -32t28.5 -26.5t42 -18.5t51 -7t50 6.5t40.5 17.5t27 27t9.5 34q0 40 -41 63.5t-108 23.5h-22v18h22q66 0 101 19.5t35 57.5q0 39 -34.5 64t-87.5 25q-42 0 -74 -17t-45 -43l-15 12q15 30 51.5 48
t82.5 18q31 0 57 -8t45 -22.5t30 -34t11 -41.5q0 -67 -89 -87q46 -8 73.5 -34.5t27.5 -63.5q0 -22 -11.5 -41t-31.5 -32.5t-46.5 -21t-57.5 -7.5z" />
    <glyph glyph-name="fourinferior" unicode="&#x2084;" horiz-adv-x="366" 
d="M259 -80v110h-233v17l239 256h14v-254h55v-19h-55v-110h-20zM54 49h205v219z" />
    <glyph glyph-name="fiveinferior" unicode="&#x2085;" horiz-adv-x="361" 
d="M180 161q30 0 56 -9t45.5 -24.5t31 -38t11.5 -49.5q0 -28 -12 -51t-32 -39.5t-47 -25.5t-57 -9q-47 0 -84 21t-55 56l17 6q17 -29 49.5 -47t73.5 -18q27 0 50 8t40.5 22t27 33.5t9.5 42.5q0 25 -11 44t-29 32t-40.5 20t-46.5 7q-34 0 -63.5 -13t-47.5 -36h-21
q3 12 10.5 45t16 69t15.5 64.5t7 31.5h210v-19h-194l-38 -162q21 20 49 29.5t59 9.5z" />
    <glyph glyph-name="sixinferior" unicode="&#x2086;" horiz-adv-x="389" 
d="M353 46q0 -27 -12 -51t-32.5 -42t-48.5 -28t-60 -10q-33 0 -61.5 10.5t-49.5 30.5t-33 48t-12 64q0 122 44 180t114 58q45 0 79.5 -20.5t48.5 -55.5l-15 -10q-12 30 -43 49t-70 19q-62 0 -99.5 -50.5t-38.5 -144.5q14 38 52.5 60.5t86.5 22.5q31 0 58.5 -10t47.5 -28
t32 -41.5t12 -50.5zM201 -67q27 0 51.5 9t42.5 24t28.5 35.5t10.5 43.5t-10.5 44t-29 36.5t-43 24.5t-51.5 9t-51.5 -9t-42.5 -24.5t-28.5 -36t-10.5 -43.5t10.5 -43.5t29 -36t43 -24.5t51.5 -9z" />
    <glyph glyph-name="seveninferior" unicode="&#x2087;" horiz-adv-x="330" 
d="M286 284h-258v19h290l-225 -383h-23z" />
    <glyph glyph-name="eightinferior" unicode="&#x2088;" horiz-adv-x="382" 
d="M339 23q0 -24 -12 -44t-33 -34t-48 -21.5t-57 -7.5q-33 0 -60.5 9t-46.5 24t-29.5 34.5t-10.5 41.5q0 19 8.5 35.5t22.5 29.5t31.5 22t35.5 14q-33 11 -57.5 32t-24.5 52q0 22 11.5 39.5t30.5 29.5t43 18t48 6t48 -6t42.5 -18t30 -29.5t11.5 -39.5q0 -31 -24.5 -52.5
t-58.5 -31.5q42 -11 70.5 -38t28.5 -65zM319 25q0 22 -12 39t-30.5 29t-41.5 18t-45 6q-23 0 -46 -6.5t-41 -19t-29.5 -29.5t-11.5 -38t12 -38t30.5 -28.5t41.5 -17.5t45 -6q23 0 46 6.5t41 18t29.5 28.5t11.5 38zM78 209q0 -18 10.5 -32t26.5 -23.5t36 -14.5t39 -5t39.5 5
t36.5 15t26.5 24t10.5 32t-9.5 31.5t-25.5 23.5t-36.5 15t-41.5 5q-22 0 -42 -5.5t-35.5 -15t-25 -23.5t-9.5 -32z" />
    <glyph glyph-name="nineinferior" unicode="&#x2089;" horiz-adv-x="389" 
d="M36 175q0 27 12 51t32.5 42t48.5 28t60 10q33 0 61.5 -10.5t49.5 -30.5t33 -48t12 -64q0 -62 -11.5 -106.5t-32.5 -74t-50 -43.5t-64 -14q-45 0 -79.5 20.5t-48.5 55.5l15 10q12 -31 43 -49.5t70 -18.5q62 0 100 50.5t38 143.5q-14 -37 -53 -60t-86 -23q-31 0 -58.5 10.5
t-47.5 28t-32 41.5t-12 51zM188 288q-27 0 -51 -9t-42 -24t-28.5 -35.5t-10.5 -43.5t10.5 -44t29 -36.5t42.5 -24.5t51 -9t51.5 9t42.5 24.5t28.5 36t10.5 43.5t-10.5 43.5t-29 36t-43 24.5t-51.5 9z" />
    <glyph glyph-name="colonmonetary" unicode="&#x20a1;" horiz-adv-x="537" 
d="M232 -1q-41 11 -75 36t-59.5 59.5t-39.5 77.5t-14 90t14 89t39 76t59.5 57.5t75.5 34.5v126h20v-122q17 4 42 4q7 0 14 -0.5t14 -1.5v120h20v-123q49 -10 87 -38t60 -73l-20 -7q-26 48 -73.5 75.5t-104.5 27.5q-48 0 -89 -19t-72 -52t-48.5 -78t-17.5 -96t18 -97
t49.5 -80.5t72.5 -54.5t88 -20q30 0 60.5 9t56 24t43.5 35t24 41l20 -6q-14 -44 -57 -75.5t-97 -42.5v-115h-20v112q-7 -1 -13.5 -1.5t-13.5 -0.5q-11 0 -21.5 1t-21.5 3v-114h-20v119z" />
    <glyph glyph-name="franc" unicode="&#x20a3;" horiz-adv-x="613" 
d="M122 0v151h-94v20h94v539h457v-20h-437v-316h373v-20h-373v-183h169v-20h-169v-151h-20z" />
    <glyph glyph-name="lira" unicode="&#x20a4;" horiz-adv-x="460" 
d="M44 366h109q-12 23 -26 45t-25.5 44t-19 45t-7.5 50q0 34 13 64t35 52.5t52 35.5t63 13q50 0 93 -28.5t69 -76.5l-17 -12q-24 45 -63 71t-84 26q-29 0 -54 -11t-44 -30.5t-30 -45.5t-11 -56q0 -26 8 -48.5t20 -45t26 -45t26 -47.5h173v-20h-164q14 -31 20 -65h164v-20
h-162q0 -5 0.5 -9.5t0.5 -9.5q0 -27 -6 -52t-20 -51t-36.5 -55.5t-55.5 -65.5q17 3 35 5t36 2q23 0 42 -3t36 -7t34 -7t36 -3q21 0 44.5 5t54.5 16l6 -19q-54 -22 -106 -22q-22 0 -40 3t-35.5 7t-36.5 7t-41 3t-47.5 -3.5t-46.5 -8.5l-10 17q40 43 66.5 75t42 58t21.5 49
t6 49q0 5 -0.5 10t-0.5 10h-100v20h97q-3 17 -8.5 33.5t-12.5 31.5h-119v20z" />
    <glyph glyph-name="uni20A6" unicode="&#x20a6;" horiz-adv-x="816" 
d="M778 376h-81v-70h81v-20h-81v-286h-23l-228 286h-307v-286h-20v286h-81v20h81v70h-81v20h81v314h15l250 -314h293v314h20v-314h81v-20zM139 396h219l-219 275v-275zM677 29v257h-205zM139 306h291l-56 70h-235v-70zM456 306h221v70h-277z" />
    <glyph glyph-name="uni20A9" unicode="&#x20a9;" horiz-adv-x="1074" 
d="M47 369h138l-30 70h-108v20h99l-109 251h22l109 -251h338l-107 245h22l115 -266l116 266h22l-107 -245h338l110 251h22l-110 -251h100v-20h-108l-31 -70h139v-20h-147l-152 -349h-22l-169 389l-169 -389h-22l-152 349h-147v20zM717 25l141 324h-283zM357 25l141 324h-283
zM547 414l19 -45h300l31 70h-339zM515 439h-339l31 -70h299l20 45z" />
    <glyph glyph-name="Euro" unicode="&#x20ac;" horiz-adv-x="817" 
d="M151 401q7 59 32 115t67.5 100t101 71t132.5 27q95 0 161 -43.5t98 -111.5l-19 -6q-21 39 -48.5 66t-60 43.5t-67 24t-68.5 7.5q-68 0 -122 -25t-93 -66t-62.5 -93.5t-30.5 -108.5h394l-10 -20h-386q-1 -6 -1 -12v-12q0 -24 3 -46h354l-10 -20h-341q11 -57 39 -107.5
t68.5 -88t91.5 -59.5t109 -22q35 0 72 9t71.5 27t64 46.5t50.5 67.5l19 -5q-18 -40 -49 -71t-69 -52t-80.5 -31.5t-82.5 -10.5q-63 0 -117.5 24.5t-96.5 65.5t-70 94.5t-39 112.5h-123l10 20h109q-3 24 -3 49v21h-76l10 20h68z" />
    <glyph glyph-name="uni20B9" unicode="&#x20b9;" horiz-adv-x="411" 
d="M371 600h-89q28 -51 28 -105q0 -41 -13 -79t-37 -67.5t-57.5 -48t-73.5 -21.5l180 -279h-24l-193 299h25q40 0 72 17t54.5 44.5t34.5 62.5t12 72q0 28 -8 55t-22 50h-214v20h200q-23 30 -56.5 49t-72.5 21h-71v20h325v-20h-178q23 -12 42.5 -30t34.5 -40h101v-20z" />
    <glyph glyph-name="uni2113" unicode="&#x2113;" horiz-adv-x="262" 
d="M169 13q13 0 28.5 4.5t30.5 10.5l7 -16q-17 -8 -35.5 -12.5t-36.5 -4.5q-38 0 -59.5 22.5t-21.5 69.5v523q0 28 6 51.5t16 41t24 27.5t31 10q34 0 55 -36t21 -94q0 -39 -11 -81t-29.5 -82.5t-42.5 -78t-50 -65.5v-227q0 -29 18 -46t49 -17zM214 604q0 56 -14 86t-40 30
t-42 -30.5t-16 -79.5v-280q22 27 42.5 62.5t36 73t24.5 73.5t9 65z" />
    <glyph glyph-name="afii61352" unicode="&#x2116;" horiz-adv-x="1098" 
d="M119 671v-671h-20v710h15l543 -681v680h20v-709h-23zM901 357q-37 0 -69 14.5t-55.5 39t-37 56.5t-13.5 68q0 37 13.5 69.5t37 57t55.5 39t69 14.5t69.5 -14.5t56.5 -39t37.5 -57t13.5 -69.5q0 -36 -13.5 -68t-37.5 -56.5t-56.5 -39t-69.5 -14.5zM748 534q0 -33 12 -61.5
t33 -50t48.5 -34t59.5 -12.5t60 13t49 34.5t33.5 50.5t12.5 62t-12.5 62t-33.5 50.5t-49 34t-60 12.5q-31 0 -59 -12.5t-49 -34.5t-33 -51.5t-12 -62.5z" />
    <glyph glyph-name="servicemark" unicode="&#x2120;" horiz-adv-x="660" 
d="M563 710h22v-277h-20v239l-98 -197h-17l-98 197v-239h-20v277h21l105 -209zM235 664q-14 18 -30 24.5t-37 6.5q-42 0 -60.5 -14.5t-18.5 -40.5q0 -27 18 -37t59 -19q23 -5 42 -11t32.5 -15t20.5 -23t7 -34q0 -35 -26.5 -53t-72.5 -18q-65 0 -109 44l11 17
q21 -23 44 -32.5t55 -9.5q36 0 57 12.5t21 38.5q0 29 -19.5 42t-62.5 22q-47 10 -72 24t-25 51t27 56.5t72 19.5q26 0 46 -7.5t37 -26.5z" />
    <glyph glyph-name="trademark" unicode="&#x2122;" horiz-adv-x="648" 
d="M269 692h-95v-259h-20v259h-95v20h210v-20zM546 710h22v-277h-20v239l-98 -197h-17l-98 197v-239h-20v277h21l105 -209z" />
    <glyph glyph-name="Omega" unicode="&#x2126;" horiz-adv-x="770" 
d="M49 21h219q-50 22 -90 58t-67.5 81t-42 97.5t-14.5 107.5q0 69 25 132.5t69 111.5t104.5 77t132.5 29t132.5 -29t104.5 -77t69 -111.5t25 -132.5q0 -55 -14.5 -107.5t-42 -97.5t-67.5 -81t-90 -58h219v-21h-289v21q64 13 113.5 48t82.5 83t50 103.5t17 109.5
q0 61 -21.5 120t-61.5 105t-97.5 74.5t-129.5 28.5t-129.5 -28.5t-97.5 -74.5t-61.5 -105t-21.5 -120q0 -54 17 -109.5t50 -103.5t82 -83t114 -48v-21h-289v21z" />
    <glyph glyph-name="estimated" unicode="&#x212e;" horiz-adv-x="612" 
d="M310 10q69 0 121 22t81 56l13 -15q-35 -35 -87.5 -59t-127.5 -24q-59 0 -107.5 22t-83 59t-53.5 86t-19 103q0 55 19.5 104t54 86t83 59t106.5 22t107 -22t83.5 -59.5t54 -87.5t19.5 -107h-455v-150q33 -44 82.5 -69.5t108.5 -25.5zM310 511q-59 0 -108.5 -26t-82.5 -71
v-139h384v138q-34 45 -85 71.5t-108 26.5z" />
    <glyph glyph-name="onethird" unicode="&#x2153;" horiz-adv-x="788" 
d="M77 11l558 700l16 -12l-558 -700zM244 361v-19h-181v19h83v344q-5 -6 -16.5 -14.5t-25 -15.5t-28.5 -12t-27 -5v19q16 0 33 8t31 18t23 18.5t10 9.5h20v-370h78zM605 -5q-31 0 -57.5 7t-46.5 20t-32 30.5t-13 38.5l16 7q1 -17 11.5 -32t28.5 -26.5t42 -18.5t51 -7t50 6.5
t40.5 17.5t27 27t9.5 34q0 40 -41 63.5t-108 23.5h-22v18h22q66 0 101 19.5t35 57.5q0 39 -34.5 64t-87.5 25q-42 0 -74 -17t-45 -43l-15 12q15 30 51.5 48t82.5 18q31 0 57 -8t45 -22.5t30 -34t11 -41.5q0 -67 -89 -87q46 -8 73.5 -34.5t27.5 -63.5q0 -22 -11.5 -41
t-31.5 -32.5t-46.5 -21t-57.5 -7.5z" />
    <glyph glyph-name="twothirds" unicode="&#x2154;" horiz-adv-x="804" 
d="M131 11l558 700l16 -12l-558 -700zM618 -5q-31 0 -57.5 7t-46.5 20t-32 30.5t-13 38.5l16 7q1 -17 11.5 -32t28.5 -26.5t42 -18.5t51 -7t50 6.5t40.5 17.5t27 27t9.5 34q0 40 -41 63.5t-108 23.5h-22v18h22q66 0 101 19.5t35 57.5q0 39 -34.5 64t-87.5 25q-42 0 -74 -17
t-45 -43l-15 12q15 30 51.5 48t82.5 18q31 0 57 -8t45 -22.5t30 -34t11 -41.5q0 -67 -89 -87q46 -8 73.5 -34.5t27.5 -63.5q0 -22 -11.5 -41t-31.5 -32.5t-46.5 -21t-57.5 -7.5zM48 343q0 74 33 113t90 60q22 8 47 16t45.5 19.5t34 28.5t13.5 43q0 17 -7 33t-21 28.5t-35 20
t-50 7.5q-27 0 -48.5 -6.5t-37.5 -15.5t-27 -19.5t-17 -18.5l-15 12q1 2 10.5 12.5t27.5 22.5t45.5 22t63.5 10q34 0 58.5 -9t41 -24t24.5 -35t8 -41q0 -30 -15 -49.5t-37 -32.5t-47.5 -21.5l-46.5 -15.5q-39 -14 -62 -32t-34 -37t-14 -38t-3 -34h260v-19h-285z" />
    <glyph glyph-name="oneeighth" unicode="&#x215b;" horiz-adv-x="787" 
d="M87 11l558 700l16 -12l-558 -700zM242 361v-19h-181v19h83v344q-5 -6 -16.5 -14.5t-25 -15.5t-28.5 -12t-27 -5v19q16 0 33 8t31 18t23 18.5t10 9.5h20v-370h78zM752 103q0 -24 -12 -44t-33 -34t-48 -21.5t-57 -7.5q-33 0 -60.5 9t-46.5 24t-29.5 34.5t-10.5 41.5
q0 19 8.5 35.5t22.5 29.5t31.5 22t35.5 14q-33 11 -57.5 32t-24.5 52q0 22 11.5 39.5t30.5 29.5t43 18t48 6t48 -6t42.5 -18t30 -29.5t11.5 -39.5q0 -31 -24.5 -52.5t-58.5 -31.5q42 -11 70.5 -38t28.5 -65zM732 105q0 22 -12 39t-30.5 29t-41.5 18t-45 6q-23 0 -46 -6.5
t-41 -19t-29.5 -29.5t-11.5 -38t12 -38t30.5 -28.5t41.5 -17.5t45 -6q23 0 46 6.5t41 18t29.5 28.5t11.5 38zM491 289q0 -18 10.5 -32t26.5 -23.5t36 -14.5t39 -5t39.5 5t36.5 15t26.5 24t10.5 32t-9.5 31.5t-25.5 23.5t-36.5 15t-41.5 5q-22 0 -42 -5.5t-35.5 -15
t-25 -23.5t-9.5 -32z" />
    <glyph glyph-name="threeeighths" unicode="&#x215c;" horiz-adv-x="793" 
d="M110 11l558 700l16 -12l-558 -700zM756 103q0 -24 -12 -44t-33 -34t-48 -21.5t-57 -7.5q-33 0 -60.5 9t-46.5 24t-29.5 34.5t-10.5 41.5q0 19 8.5 35.5t22.5 29.5t31.5 22t35.5 14q-33 11 -57.5 32t-24.5 52q0 22 11.5 39.5t30.5 29.5t43 18t48 6t48 -6t42.5 -18
t30 -29.5t11.5 -39.5q0 -31 -24.5 -52.5t-58.5 -31.5q42 -11 70.5 -38t28.5 -65zM736 105q0 22 -12 39t-30.5 29t-41.5 18t-45 6q-23 0 -46 -6.5t-41 -19t-29.5 -29.5t-11.5 -38t12 -38t30.5 -28.5t41.5 -17.5t45 -6q23 0 46 6.5t41 18t29.5 28.5t11.5 38zM495 289
q0 -18 10.5 -32t26.5 -23.5t36 -14.5t39 -5t39.5 5t36.5 15t26.5 24t10.5 32t-9.5 31.5t-25.5 23.5t-36.5 15t-41.5 5q-22 0 -42 -5.5t-35.5 -15t-25 -23.5t-9.5 -32zM195 338q-31 0 -57.5 7t-46.5 20t-32 30.5t-13 38.5l16 7q1 -17 11.5 -32t28.5 -26.5t42 -18.5t51 -7
t50 6.5t40.5 17.5t27 27t9.5 34q0 40 -41 63.5t-108 23.5h-22v18h22q66 0 101 19.5t35 57.5q0 39 -34.5 64t-87.5 25q-42 0 -74 -17t-45 -43l-15 12q15 30 51.5 48t82.5 18q31 0 57 -8t45 -22.5t30 -34t11 -41.5q0 -67 -89 -87q46 -8 73.5 -34.5t27.5 -63.5q0 -22 -11.5 -41
t-31.5 -32.5t-46.5 -21t-57.5 -7.5z" />
    <glyph glyph-name="fiveeighths" unicode="&#x215d;" horiz-adv-x="788" 
d="M98 11l558 700l16 -12l-558 -700zM752 103q0 -24 -12 -44t-33 -34t-48 -21.5t-57 -7.5q-33 0 -60.5 9t-46.5 24t-29.5 34.5t-10.5 41.5q0 19 8.5 35.5t22.5 29.5t31.5 22t35.5 14q-33 11 -57.5 32t-24.5 52q0 22 11.5 39.5t30.5 29.5t43 18t48 6t48 -6t42.5 -18t30 -29.5
t11.5 -39.5q0 -31 -24.5 -52.5t-58.5 -31.5q42 -11 70.5 -38t28.5 -65zM732 105q0 22 -12 39t-30.5 29t-41.5 18t-45 6q-23 0 -46 -6.5t-41 -19t-29.5 -29.5t-11.5 -38t12 -38t30.5 -28.5t41.5 -17.5t45 -6q23 0 46 6.5t41 18t29.5 28.5t11.5 38zM491 289q0 -18 10.5 -32
t26.5 -23.5t36 -14.5t39 -5t39.5 5t36.5 15t26.5 24t10.5 32t-9.5 31.5t-25.5 23.5t-36.5 15t-41.5 5q-22 0 -42 -5.5t-35.5 -15t-25 -23.5t-9.5 -32zM183 588q30 0 56 -9t45.5 -24.5t31 -38t11.5 -49.5q0 -28 -12 -51t-32 -39.5t-47 -25.5t-57 -9q-47 0 -84 21t-55 56l17 6
q17 -29 49.5 -47t73.5 -18q27 0 50 8t40.5 22t27 33.5t9.5 42.5q0 25 -11 44t-29 32t-40.5 20t-46.5 7q-34 0 -63.5 -13t-47.5 -36h-21q3 12 10.5 45t16 69t15.5 64.5t7 31.5h210v-19h-194l-38 -162q21 20 49 29.5t59 9.5z" />
    <glyph glyph-name="seveneighths" unicode="&#x215e;" horiz-adv-x="790" 
d="M49 11l558 700l16 -12l-558 -700zM756 103q0 -24 -12 -44t-33 -34t-48 -21.5t-57 -7.5q-33 0 -60.5 9t-46.5 24t-29.5 34.5t-10.5 41.5q0 19 8.5 35.5t22.5 29.5t31.5 22t35.5 14q-33 11 -57.5 32t-24.5 52q0 22 11.5 39.5t30.5 29.5t43 18t48 6t48 -6t42.5 -18t30 -29.5
t11.5 -39.5q0 -31 -24.5 -52.5t-58.5 -31.5q42 -11 70.5 -38t28.5 -65zM736 105q0 22 -12 39t-30.5 29t-41.5 18t-45 6q-23 0 -46 -6.5t-41 -19t-29.5 -29.5t-11.5 -38t12 -38t30.5 -28.5t41.5 -17.5t45 -6q23 0 46 6.5t41 18t29.5 28.5t11.5 38zM495 289q0 -18 10.5 -32
t26.5 -23.5t36 -14.5t39 -5t39.5 5t36.5 15t26.5 24t10.5 32t-9.5 31.5t-25.5 23.5t-36.5 15t-41.5 5q-22 0 -42 -5.5t-35.5 -15t-25 -23.5t-9.5 -32zM304 711h-258v19h290l-225 -383h-23z" />
    <glyph glyph-name="partialdiff" unicode="&#x2202;" horiz-adv-x="575" 
d="M252 -10q-48 0 -88 16t-69.5 43.5t-45.5 65t-16 80.5q0 48 20 91t53.5 76t78.5 52.5t96 19.5q37 0 71.5 -11.5t62 -34t46.5 -55t27 -75.5q3 13 5 32t3.5 41t2.5 43.5t1 39.5q0 78 -14.5 132t-40.5 87t-63 47.5t-82 14.5q-59 0 -106.5 -20t-73.5 -51l-13 12q33 41 84.5 60
t108.5 19q109 0 164.5 -74t55.5 -242q0 -101 -19.5 -177.5t-55 -128t-84.5 -77.5t-109 -26zM250 11q55 0 97 22t69.5 55.5t41.5 72.5t14 73q0 36 -15 68.5t-41 57t-61 39.5t-76 15q-45 0 -85.5 -17.5t-72 -47.5t-50 -70t-18.5 -84q0 -38 14.5 -71.5t40.5 -58.5t62 -39.5
t80 -14.5z" />
    <glyph glyph-name="Delta" unicode="&#x2206;" horiz-adv-x="605" 
d="M602 20v-20h-598l-1 20l291 690h18zM580 20l-277 661l-278 -661h555z" />
    <glyph glyph-name="product" unicode="&#x220f;" horiz-adv-x="610" 
d="M478 690h-341v-780h-20v780h-90v20h551v-20h-80v-780h-20v780z" />
    <glyph glyph-name="summation" unicode="&#x2211;" horiz-adv-x="487" 
d="M437 690h-378v-4l231 -317l-231 -340v-4h393v-25h-420v23l233 348l-230 317v22h402v-20z" />
    <glyph glyph-name="minus" unicode="&#x2212;" horiz-adv-x="545" 
d="M71 261v20h403v-20h-403z" />
    <glyph glyph-name="uni2215" unicode="&#x2215;" horiz-adv-x="561" 
d="M-7 11l558 700l16 -12l-558 -700z" />
    <glyph glyph-name="uni2219" unicode="&#x2219;" horiz-adv-x="158" 
d="M69 250v83h20v-83h-20z" />
    <glyph glyph-name="radical" unicode="&#x221a;" horiz-adv-x="406" 
d="M14 365h97l93 -338l132 763h21l-136 -790h-31l-97 345h-79v20z" />
    <glyph glyph-name="infinity" unicode="&#x221e;" horiz-adv-x="702" 
d="M201 517q30 0 53 -11t40.5 -29t31 -42t25.5 -50q12 26 25.5 50t31 42t40.5 29t53 11q34 0 61.5 -13t47 -35.5t30 -53t10.5 -64.5t-11.5 -64t-31.5 -52.5t-47.5 -35.5t-59.5 -13q-29 0 -51.5 11t-40 29.5t-31 42.5t-24.5 50q-11 -26 -24.5 -50t-31.5 -42.5t-41.5 -29.5
t-54.5 -11q-32 0 -59.5 13t-47.5 35.5t-31.5 53t-11.5 64.5t11.5 64t31.5 52.5t47.5 35.5t59.5 13zM201 206q27 0 48 11.5t37.5 31t30 46t25.5 55.5q-12 30 -25.5 56.5t-30 47t-37.5 32t-48 11.5q-23 0 -46.5 -9t-42 -27t-30 -45.5t-11.5 -63.5q0 -35 11.5 -62.5t30 -46
t42 -28t46.5 -9.5zM501 206q23 0 46 9.5t41.5 28t30 46t11.5 62.5q0 36 -11.5 63t-30 45t-41.5 27t-46 9q-28 0 -49 -12t-37.5 -32.5t-29 -48t-23.5 -57.5q12 -29 25 -54t29.5 -44.5t37 -30.5t47.5 -11z" />
    <glyph glyph-name="integral" unicode="&#x222b;" horiz-adv-x="260" 
d="M99 710q-3 48 18 79t58 31q17 0 38 -6t38 -15l-7 -17q-7 4 -16 7.5t-19 6.5t-18.5 4.5t-14.5 1.5q-29 0 -44.5 -24.5t-13.5 -70.5l42 -764q3 -53 -17.5 -81.5t-57.5 -28.5q-17 0 -37.5 6t-37.5 15l6 17q16 -8 35 -14t33 -6q29 0 45 23.5t13 74.5z" />
    <glyph glyph-name="approxequal" unicode="&#x2248;" horiz-adv-x="425" 
d="M355 297q-12 -7 -26.5 -11t-32.5 -4q-27 0 -50 6.5t-43.5 14t-39 14t-36.5 6.5q-25 0 -45 -15l-13 16q10 8 25 13.5t33 5.5q23 0 44 -6.5t41 -14t40.5 -14t43.5 -6.5q14 0 25.5 1.5t21.5 9.5zM355 228q-12 -7 -26.5 -11t-32.5 -4q-27 0 -50 6.5t-43.5 14t-39 14
t-36.5 6.5q-25 0 -45 -15l-13 16q10 8 25 13.5t33 5.5q23 0 44 -6.5t41 -14t40.5 -14t43.5 -6.5q14 0 25.5 1.5t21.5 9.5z" />
    <glyph glyph-name="notequal" unicode="&#x2260;" horiz-adv-x="435" 
d="M70 321h159l65 102h26l-65 -102h108v-20h-121l-32 -50h153v-20h-166l-65 -103h-25l65 103h-102v20h115l31 50h-146v20z" />
    <glyph glyph-name="lessequal" unicode="&#x2264;" horiz-adv-x="449" 
d="M76 85v20h300v-20h-300zM76 365l290 149v-22l-261 -136l261 -137v-22l-290 150v18z" />
    <glyph glyph-name="greaterequal" unicode="&#x2265;" horiz-adv-x="449" 
d="M73 85v20h300v-20h-300zM373 347l-290 -150v22l261 137l-261 136v22l290 -149v-18z" />
    <glyph glyph-name="lozenge" unicode="&#x25ca;" horiz-adv-x="466" 
d="M245 730l186 -364l-186 -366h-24l-186 366l186 364h24zM403 354l-175 356l-165 -335l174 -350z" />
    <glyph glyph-name="commaaccent" unicode="&#xf6c3;" horiz-adv-x="120" 
d="M53 -167l10 58h-9v59h26v-59l-13 -58h-14z" />
    <glyph glyph-name="s_t" unicode="&#xfb06;" horiz-adv-x="769" 
d="M760 24q0 -1 -8 -5.5t-20.5 -10t-29 -9.5t-34.5 -4q-40 0 -66.5 22t-26.5 58v424h-75v20h75q0 65 -3.5 106.5t-15 65.5t-32 33t-54.5 9q-37 0 -61.5 -8.5t-39.5 -23t-21 -34.5t-6 -43q0 -35 10 -66t21.5 -54.5t20.5 -37.5t8 -14l-18 -8q-12 19 -29 31.5t-36 19.5
t-39.5 9.5t-39.5 2.5q-30 0 -60 -6t-54 -20t-38.5 -37.5t-14.5 -58.5q0 -39 18 -62t43.5 -34.5t54 -15.5t50.5 -5q27 -2 61.5 -6.5t65.5 -18t52 -39t21 -69.5q0 -41 -18.5 -68.5t-47 -44.5t-63.5 -24.5t-67 -7.5q-65 0 -114 24t-83 58l15 13q81 -75 184 -75q29 0 59.5 6.5
t56 21t42 38.5t16.5 59q0 39 -19.5 61t-48 33t-59.5 14t-53 5q-33 2 -66 8t-59.5 20t-43.5 39.5t-17 67.5t17 69.5t44 44t60 23.5t66 7q38 0 68 -8t52 -22q-7 16 -13.5 30t-12 28t-9 30t-3.5 36q0 27 7 51t24 42t45 28.5t70 10.5q46 0 72 -14.5t38 -43.5t14.5 -73t2.5 -103
h125v-20h-125v-424q0 -29 22 -44.5t51 -15.5q15 0 29.5 3.5t25.5 8t18 8.5t8 5z" />
    <glyph glyph-name="R.sc" horiz-adv-x="555" 
d="M95 0v540h238q36 0 66 -14.5t52 -37.5t34.5 -53t12.5 -60q0 -31 -10.5 -59t-30 -50.5t-46.5 -36.5t-60 -17l147 -212h-24l-146 210h-213v-210h-20zM115 230h223q32 0 57.5 12.5t43.5 32.5t28 46.5t10 53.5q0 28 -11 54t-30.5 46.5t-46 32.5t-57.5 12h-217v-290z" />
    <glyph glyph-name="eight.denominator" horiz-adv-x="382" 
d="M339 103q0 -24 -12 -44t-33 -34t-48 -21.5t-57 -7.5q-33 0 -60.5 9t-46.5 24t-29.5 34.5t-10.5 41.5q0 19 8.5 35.5t22.5 29.5t31.5 22t35.5 14q-33 11 -57.5 32t-24.5 52q0 22 11.5 39.5t30.5 29.5t43 18t48 6t48 -6t42.5 -18t30 -29.5t11.5 -39.5q0 -31 -24.5 -52.5
t-58.5 -31.5q42 -11 70.5 -38t28.5 -65zM319 105q0 22 -12 39t-30.5 29t-41.5 18t-45 6q-23 0 -46 -6.5t-41 -19t-29.5 -29.5t-11.5 -38t12 -38t30.5 -28.5t41.5 -17.5t45 -6q23 0 46 6.5t41 18t29.5 28.5t11.5 38zM78 289q0 -18 10.5 -32t26.5 -23.5t36 -14.5t39 -5t39.5 5
t36.5 15t26.5 24t10.5 32t-9.5 31.5t-25.5 23.5t-36.5 15t-41.5 5q-22 0 -42 -5.5t-35.5 -15t-25 -23.5t-9.5 -32z" />
    <glyph glyph-name="eight.lnum" horiz-adv-x="581" 
d="M528 188q0 -45 -19.5 -81t-53 -61.5t-77 -39t-91.5 -13.5q-54 0 -97 16.5t-73.5 43.5t-47 62.5t-16.5 74.5q0 37 14 68.5t37.5 56t53 41.5t59.5 25q-28 10 -53 25t-44 35t-30 45t-11 55q0 41 18.5 72.5t48.5 53t68 32.5t77 11t77 -11t67.5 -32.5t48 -53t18.5 -72.5
q0 -30 -11.5 -55t-30.5 -45t-44 -35t-53 -25q35 -10 65 -28t52.5 -43t35 -55.5t12.5 -66.5zM508 191q0 43 -20 76.5t-52 56.5t-71 35t-76 12q-39 0 -77.5 -13t-69.5 -37t-50 -57.5t-19 -74.5q0 -43 20 -76t52 -56t70.5 -35t76.5 -12q39 0 77.5 12.5t69 36t50 57t19.5 75.5z
M99 539q0 -36 17.5 -63.5t45.5 -46t61.5 -28.5t66.5 -10t67 10t62 29.5t45.5 47t17.5 63.5t-16.5 63.5t-43.5 46.5t-62 29t-71 10t-70.5 -10t-61 -29.5t-42.5 -47.5t-16 -64z" />
    <glyph glyph-name="eight.numerator" horiz-adv-x="382" 
d="M339 450q0 -24 -12 -44t-33 -34t-48 -21.5t-57 -7.5q-33 0 -60.5 9t-46.5 24t-29.5 34.5t-10.5 41.5q0 19 8.5 35.5t22.5 29.5t31.5 22t35.5 14q-33 11 -57.5 32t-24.5 52q0 22 11.5 39.5t30.5 29.5t43 18t48 6t48 -6t42.5 -18t30 -29.5t11.5 -39.5q0 -31 -24.5 -52.5
t-58.5 -31.5q42 -11 70.5 -38t28.5 -65zM319 452q0 22 -12 39t-30.5 29t-41.5 18t-45 6q-23 0 -46 -6.5t-41 -19t-29.5 -29.5t-11.5 -38t12 -38t30.5 -28.5t41.5 -17.5t45 -6q23 0 46 6.5t41 18t29.5 28.5t11.5 38zM78 636q0 -18 10.5 -32t26.5 -23.5t36 -14.5t39 -5t39.5 5
t36.5 15t26.5 24t10.5 32t-9.5 31.5t-25.5 23.5t-36.5 15t-41.5 5q-22 0 -42 -5.5t-35.5 -15t-25 -23.5t-9.5 -32z" />
    <glyph glyph-name="S.sc" horiz-adv-x="524" 
d="M433 464q-34 35 -71.5 48t-89.5 13q-98 0 -141.5 -34t-43.5 -92q0 -28 10.5 -47t32.5 -32t56.5 -22.5t82.5 -18.5t87 -19.5t66.5 -26.5t42 -40t14.5 -60q0 -67 -54.5 -102t-150.5 -35q-70 0 -124.5 20.5t-102.5 62.5l14 14q43 -41 95 -60.5t119 -19.5q83 0 133.5 29
t50.5 89q0 29 -11.5 49.5t-35 35.5t-60 25.5t-86.5 19.5q-48 9 -85.5 18.5t-62.5 25t-38 38t-13 56.5q0 70 55.5 107t148.5 37q56 0 97.5 -14.5t76.5 -49.5z" />
    <glyph glyph-name="I.sc" horiz-adv-x="210" 
d="M95 0v539h20v-539h-20z" />
    <glyph glyph-name="w.alt" horiz-adv-x="798" 
d="M564 0l-165 493l-165 -493h-18l-186 519h22l173 -489l163 489h22l163 -489l173 489h22l-186 -519h-18z" />
    <glyph glyph-name="y.alt" horiz-adv-x="535" 
d="M510 519l-319 -732h-18l88 213l-241 519h22l229 -494l217 494h22z" />
    <glyph glyph-name="E.sc" horiz-adv-x="532" 
d="M478 19v-19h-383v540h376v-20h-356v-235h312v-19h-312v-247h363z" />
    <glyph glyph-name="zero.denominator" horiz-adv-x="437" 
d="M219 -5q-44 0 -77 18.5t-55.5 46.5t-33.5 62.5t-11 66.5q0 34 12.5 69t35.5 62.5t55.5 45t73.5 17.5q43 0 76 -18.5t55.5 -47t33.5 -63t11 -65.5q0 -35 -12 -70t-35 -62.5t-55.5 -44.5t-73.5 -17zM62 189q0 -31 10.5 -62t30.5 -56t49 -41t67 -16q39 0 68 17t48.5 43
t29.5 56.5t10 58.5q0 31 -10.5 62t-31 56t-49.5 41t-65 16q-39 0 -68.5 -17t-49 -43t-29.5 -56.5t-10 -58.5z" />
    <glyph glyph-name="zero.lnum" horiz-adv-x="668" 
d="M334 -10q-70 2 -122.5 36t-88 86t-53.5 115t-18 123q0 64 19.5 128.5t56 116t89 83.5t117.5 32q70 0 122.5 -34.5t88 -87.5t53.5 -116.5t18 -121.5q0 -65 -19.5 -129t-56 -115t-89 -83t-117.5 -33zM72 350q2 -60 20 -120.5t51 -109t80.5 -79.5t110.5 -31q65 0 114 33
t82 83t49.5 110t16.5 114q0 60 -18 120.5t-52 109t-82.5 79.5t-109.5 31q-65 0 -114 -33t-82 -83.5t-49.5 -110t-16.5 -113.5z" />
    <glyph glyph-name="zero.numerator" horiz-adv-x="437" 
d="M219 342q-44 0 -77 18.5t-55.5 46.5t-33.5 62.5t-11 66.5q0 34 12.5 69t35.5 62.5t55.5 45t73.5 17.5q43 0 76 -18.5t55.5 -47t33.5 -63t11 -65.5q0 -35 -12 -70t-35 -62.5t-55.5 -44.5t-73.5 -17zM62 536q0 -31 10.5 -62t30.5 -56t49 -41t67 -16q39 0 68 17t48.5 43
t29.5 56.5t10 58.5q0 31 -10.5 62t-31 56t-49.5 41t-65 16q-39 0 -68.5 -17t-49 -43t-29.5 -56.5t-10 -58.5z" />
    <glyph glyph-name="T.sc" horiz-adv-x="515" 
d="M489 520h-221v-520h-20v520h-222v20h463v-20z" />
    <glyph glyph-name="five.denominator" horiz-adv-x="361" 
d="M180 241q30 0 56 -9t45.5 -24.5t31 -38t11.5 -49.5q0 -28 -12 -51t-32 -39.5t-47 -25.5t-57 -9q-47 0 -84 21t-55 56l17 6q17 -29 49.5 -47t73.5 -18q27 0 50 8t40.5 22t27 33.5t9.5 42.5q0 25 -11 44t-29 32t-40.5 20t-46.5 7q-34 0 -63.5 -13t-47.5 -36h-21
q3 12 10.5 45t16 69t15.5 64.5t7 31.5h210v-19h-194l-38 -162q21 20 49 29.5t59 9.5z" />
    <glyph glyph-name="five.lnum" horiz-adv-x="550" 
d="M275 445q47 0 89 -16.5t73.5 -46t49.5 -71t18 -90.5q0 -52 -19 -94.5t-51.5 -73t-75 -47t-89.5 -16.5q-38 0 -72 10.5t-63 30t-51.5 46t-37.5 59.5h22q27 -57 81 -91.5t121 -34.5q45 0 84 15.5t68 43.5t46 66.5t17 85.5q0 45 -16.5 82.5t-45 64.5t-66.5 42t-82 15
q-57 0 -108 -25t-84 -73h-24q2 9 6.5 30t10.5 49.5t12.5 62t13.5 67.5q16 79 35 174h337v-20h-320l-65 -325q36 39 84.5 59.5t101.5 20.5z" />
    </font>
</defs>
</svg>
