<?xml version="1.0" standalone="no"?>
<!DOCTYPE svg PUBLIC "-//W3C//DTD SVG 1.1//EN" "http://www.w3.org/Graphics/SVG/1.1/DTD/svg11.dtd" >
<svg xmlns="http://www.w3.org/2000/svg" xmlns:xlink="http://www.w3.org/1999/xlink" version="1.1">
<metadata>
Created by FontForge 20141127 at Wed Dec 24 10:27:39 2014
 By Dylan Frankland
Copyright (c) 2012, Impallari Type (www.impallari.com), with Reserved Font Name Encode Sans.
</metadata>
<defs>
<font id="EncodeSansNormal-ExtraLight" horiz-adv-x="537" >
  <font-face 
    font-family="Encode Sans Normal"
    font-weight="200"
    font-stretch="normal"
    units-per-em="1000"
    panose-1="2 0 0 0 0 0 0 0 0 0"
    ascent="800"
    descent="-200"
    x-height="540"
    cap-height="740"
    bbox="-89 -220 1552 1030"
    underline-thickness="55"
    underline-position="-57"
    unicode-range="U+000D-FB04"
  />
<missing-glyph horiz-adv-x="746" 
d="M102 1030h541v-1250h-541v1250zM592 -171v1153h-439v-1153h439z" />
    <glyph glyph-name="f_b" unicode="fb" horiz-adv-x="940" 
d="M133 493h-116v47h117v28q0 72 9 117.5t33 72.5t66.5 39t110.5 15l2 -40q-54 -4 -87.5 -12.5t-52 -28t-25 -52.5t-6.5 -86v-53h143v-47h-143v-493h-51v493zM633 -10q-45 0 -94.5 5t-96.5 13v800h51v-330q32 35 75 53.5t99 18.5q106 0 163.5 -67.5t57.5 -209.5
q0 -138 -67 -210t-188 -73zM634 34q97 0 149 56.5t52 181.5q0 123 -43.5 177.5t-131.5 54.5q-31 0 -61 -8.5t-53.5 -24t-38 -37.5t-14.5 -48v-341q29 -5 65.5 -8t75.5 -3z" />
    <glyph glyph-name="f_f" unicode="ff" horiz-adv-x="689" 
d="M132 493h-116v47h117v28q0 72 9 117.5t33 72.5t66.5 39t110.5 15l2 -40q-54 -4 -87.5 -12.5t-52 -28t-25 -52.5t-6.5 -86v-53h143v-47h-143v-493h-51v493zM481 493h-116v47h117v28q0 72 9 117.5t33 72.5t66.5 39t110.5 15l2 -40q-54 -4 -87.5 -12.5t-52 -28t-25 -52.5
t-6.5 -86v-53h143v-47h-143v-493h-51v493z" />
    <glyph glyph-name="f_f_b" unicode="ffb" horiz-adv-x="1288" 
d="M482 493h-116v47h117v28q0 72 9 117.5t33 72.5t66.5 39t110.5 15l2 -40q-54 -4 -87.5 -12.5t-52 -28t-25 -52.5t-6.5 -86v-53h143v-47h-143v-493h-51v493zM982 -10q-45 0 -94.5 5t-96.5 13v800h51v-330q32 35 75 53.5t99 18.5q106 0 163.5 -67.5t57.5 -209.5
q0 -138 -67 -210t-188 -73zM983 34q97 0 149 56.5t52 181.5q0 123 -43.5 177.5t-131.5 54.5q-31 0 -61 -8.5t-53.5 -24t-38 -37.5t-14.5 -48v-341q29 -5 65.5 -8t75.5 -3zM133 493h-116v47h117v28q0 72 9 117.5t33 72.5t66.5 39t110.5 15l2 -40q-54 -4 -87.5 -12.5t-52 -28
t-25 -52.5t-6.5 -86v-53h143v-47h-143v-493h-51v493z" />
    <glyph glyph-name="f_f_h" unicode="ffh" horiz-adv-x="1288" 
d="M790 808h51v-332q40 20 72.5 34t60 23t51.5 13t48 4q68 0 102.5 -35t34.5 -112v-403h-51v386q0 63 -24 90t-75 27q-44 0 -99.5 -19t-119.5 -51v-433h-51v808zM481 493h-116v47h117v28q0 72 9 117.5t33 72.5t66.5 39t110.5 15l2 -40q-54 -4 -87.5 -12.5t-52 -28t-25 -52.5
t-6.5 -86v-53h143v-47h-143v-493h-51v493zM132 493h-116v47h117v28q0 72 9 117.5t33 72.5t66.5 39t110.5 15l2 -40q-54 -4 -87.5 -12.5t-52 -28t-25 -52.5t-6.5 -86v-53h143v-47h-143v-493h-51v493z" />
    <glyph glyph-name="f_f_i" unicode="ffi" horiz-adv-x="924" 
d="M816 668q-37 0 -37 36q0 37 37 37q38 0 38 -37q0 -36 -38 -36zM790 540h51v-540h-51v540zM481 493h-116v47h117v28q0 72 9 117.5t33 72.5t66.5 39t110.5 15l2 -40q-54 -4 -87.5 -12.5t-52 -28t-25 -52.5t-6.5 -86v-53h143v-47h-143v-493h-51v493zM132 493h-116v47h117v28
q0 72 9 117.5t33 72.5t66.5 39t110.5 15l2 -40q-54 -4 -87.5 -12.5t-52 -28t-25 -52.5t-6.5 -86v-53h143v-47h-143v-493h-51v493z" />
    <glyph glyph-name="f_f_j" unicode="ffj" horiz-adv-x="927" 
d="M481 493h-116v47h117v28q0 72 9 117.5t33 72.5t66.5 39t110.5 15l2 -40q-54 -4 -87.5 -12.5t-52 -28t-25 -52.5t-6.5 -86v-53h143v-47h-143v-493h-51v493zM719 -200q19 34 33.5 69.5t24 74t14 81t4.5 91.5v424h50v-449q0 -84 -23.5 -163t-66.5 -148zM817 668
q-37 0 -37 36q0 37 37 37q38 0 38 -37q0 -36 -38 -36zM132 493h-116v47h117v28q0 72 9 117.5t33 72.5t66.5 39t110.5 15l2 -40q-54 -4 -87.5 -12.5t-52 -28t-25 -52.5t-6.5 -86v-53h143v-47h-143v-493h-51v493z" />
    <glyph glyph-name="f_f_k" unicode="ffk" horiz-adv-x="1231" 
d="M790 808h51v-510h108l202 242h60l-211 -253l-15 -9v-3l16 -10l226 -265h-60l-220 256h-106v-256h-51v808zM481 493h-116v47h117v28q0 72 9 117.5t33 72.5t66.5 39t110.5 15l2 -40q-54 -4 -87.5 -12.5t-52 -28t-25 -52.5t-6.5 -86v-53h143v-47h-143v-493h-51v493zM132 493
h-116v47h117v28q0 72 9 117.5t33 72.5t66.5 39t110.5 15l2 -40q-54 -4 -87.5 -12.5t-52 -28t-25 -52.5t-6.5 -86v-53h143v-47h-143v-493h-51v493z" />
    <glyph glyph-name="f_f_l" unicode="ffl" horiz-adv-x="926" 
d="M481 493h-116v47h117v28q0 72 9 117.5t33 72.5t66.5 39t110.5 15l2 -40q-54 -4 -87.5 -12.5t-52 -28t-25 -52.5t-6.5 -86v-53h143v-47h-143v-493h-51v493zM790 808h51v-808h-51v808zM132 493h-116v47h117v28q0 72 9 117.5t33 72.5t66.5 39t110.5 15l2 -40
q-54 -4 -87.5 -12.5t-52 -28t-25 -52.5t-6.5 -86v-53h143v-47h-143v-493h-51v493z" />
    <glyph glyph-name="f_f_t" unicode="fft" horiz-adv-x="1070" 
d="M482 493h-116v47h117v28q0 72 9 117.5t33 72.5t66.5 39t110.5 15l2 -40q-54 -4 -87.5 -12.5t-52 -28t-25 -52.5t-6.5 -86v-53h143v-47h-143v-493h-51v493zM970 -7q-141 0 -141 144v355h-119v48h121l8 125l41 7v-132h170v-48h-170v-346q0 -108 100 -108q34 0 75 12v-46
q-49 -11 -85 -11zM133 493h-116v47h117v28q0 72 9 117.5t33 72.5t66.5 39t110.5 15l2 -40q-54 -4 -87.5 -12.5t-52 -28t-25 -52.5t-6.5 -86v-53h143v-47h-143v-493h-51v493z" />
    <glyph glyph-name="f_h" unicode="fh" horiz-adv-x="940" 
d="M442 808h51v-332q40 20 72.5 34t60 23t51.5 13t48 4q68 0 102.5 -35t34.5 -112v-403h-51v386q0 63 -24 90t-75 27q-44 0 -99.5 -19t-119.5 -51v-433h-51v808zM132 493h-116v47h117v28q0 72 9 117.5t33 72.5t66.5 39t110.5 15l2 -40q-54 -4 -87.5 -12.5t-52 -28t-25 -52.5
t-6.5 -86v-53h143v-47h-143v-493h-51v493z" />
    <glyph glyph-name="f_i" unicode="fi" horiz-adv-x="576" 
d="M467 668q-37 0 -37 36q0 37 37 37q38 0 38 -37q0 -36 -38 -36zM441 540h51v-540h-51v540zM132 493h-116v47h117v28q0 72 9 117.5t33 72.5t66.5 39t110.5 15l2 -40q-54 -4 -87.5 -12.5t-52 -28t-25 -52.5t-6.5 -86v-53h143v-47h-143v-493h-51v493z" />
    <glyph glyph-name="f_j" unicode="fj" horiz-adv-x="579" 
d="M132 493h-116v47h117v28q0 72 9 117.5t33 72.5t66.5 39t110.5 15l2 -40q-54 -4 -87.5 -12.5t-52 -28t-25 -52.5t-6.5 -86v-53h143v-47h-143v-493h-51v493zM371 -200q19 34 33.5 69.5t24 74t14 81t4.5 91.5v424h50v-449q0 -84 -23.5 -163t-66.5 -148zM469 668
q-37 0 -37 36q0 37 37 37q38 0 38 -37q0 -36 -38 -36z" />
    <glyph glyph-name="f_k" unicode="fk" horiz-adv-x="882" 
d="M442 808h51v-510h108l202 242h60l-211 -253l-15 -9v-3l16 -10l226 -265h-60l-220 256h-106v-256h-51v808zM132 493h-116v47h117v28q0 72 9 117.5t33 72.5t66.5 39t110.5 15l2 -40q-54 -4 -87.5 -12.5t-52 -28t-25 -52.5t-6.5 -86v-53h143v-47h-143v-493h-51v493z" />
    <glyph glyph-name="f_l" unicode="fl" horiz-adv-x="578" 
d="M132 493h-116v47h117v28q0 72 9 117.5t33 72.5t66.5 39t110.5 15l2 -40q-54 -4 -87.5 -12.5t-52 -28t-25 -52.5t-6.5 -86v-53h143v-47h-143v-493h-51v493zM441 808h51v-808h-51v808z" />
    <glyph glyph-name="f_t" unicode="ft" horiz-adv-x="722" 
d="M133 493h-116v47h117v28q0 72 9 117.5t33 72.5t66.5 39t110.5 15l2 -40q-54 -4 -87.5 -12.5t-52 -28t-25 -52.5t-6.5 -86v-53h143v-47h-143v-493h-51v493zM622 -7q-141 0 -141 144v355h-119v48h121l8 125l41 7v-132h170v-48h-170v-346q0 -108 100 -108q34 0 75 12v-46
q-49 -11 -85 -11z" />
    <glyph glyph-name=".notdef" horiz-adv-x="746" 
d="M102 1030h541v-1250h-541v1250zM592 -171v1153h-439v-1153h439z" />
    <glyph glyph-name="NULL" horiz-adv-x="0" 
 />
    <glyph glyph-name="NULL" horiz-adv-x="0" 
 />
    <glyph glyph-name="nonmarkingreturn" unicode="&#xd;" horiz-adv-x="285" 
 />
    <glyph glyph-name="space" unicode=" " horiz-adv-x="244" 
 />
    <glyph glyph-name="AE.sc" horiz-adv-x="752" 
d="M20 5l260 572h413v-43h-290l11 -221h253v-41h-250l12 -229h273v-43h-324l-8 181h-217l-83 -181h-50v5zM172 223h196l-14 312h-38z" />
    <glyph glyph-name="AEacute" unicode="&#x1fc;" horiz-adv-x="841" 
d="M481 805l77 127h55l-89 -133zM10 6l301 734h471v-47h-339l13 -294h295v-47h-293l15 -305h318v-47h-369l-10 240h-253l-99 -240h-50v6zM179 287h231l-16 407h-46z" />
    <glyph glyph-name="acute.cap" horiz-adv-x="339" 
d="M144 805l77 127h55l-89 -133z" />
    <glyph glyph-name="AEacute.sc" horiz-adv-x="752" 
d="M20 5l260 572h413v-43h-290l11 -221h253v-41h-250l12 -229h273v-43h-324l-8 181h-217l-83 -181h-50v5zM368 223l-14 312h-38l-144 -312h196zM426 629l66 103h54l-78 -107z" />
    <glyph glyph-name="Aacute" unicode="&#xc1;" horiz-adv-x="653" 
d="M10 6l277 734h79l277 -734v-6h-52l-91 240h-348l-90 -240h-52v6zM484 287l-110 290l-45 122h-5l-45 -122l-110 -290h315zM300 805l77 127h55l-89 -133z" />
    <glyph glyph-name="Aacute.sc" horiz-adv-x="587" 
d="M17 5l238 572h77l238 -572v-5h-51l-76 181h-299l-76 -181h-51v5zM427 224l-92 220l-40 95h-5l-38 -95l-94 -220h269zM269 629l65 103h53l-77 -107z" />
    <glyph glyph-name="Abreve" unicode="&#x102;" horiz-adv-x="653" 
d="M10 6l277 734h79l277 -734v-6h-52l-91 240h-348l-90 -240h-52v6zM484 287l-110 290l-45 122h-5l-45 -122l-110 -290h315zM327 815q-79 0 -121.5 37t-42.5 100h44q0 -45 31.5 -71t88.5 -26q58 0 89.5 26t31.5 71h45q0 -63 -43.5 -100t-122.5 -37z" />
    <glyph glyph-name="breve.cap" horiz-adv-x="440" 
d="M219 815q-79 0 -121.5 37t-42.5 100h44q0 -45 31.5 -71t88.5 -26q58 0 89.5 26t31.5 71h45q0 -63 -43.5 -100t-122.5 -37z" />
    <glyph glyph-name="Abreve.sc" horiz-adv-x="587" 
d="M294 635q-71 0 -108 30t-37 81h41q0 -36 26.5 -56t77.5 -20q50 0 77 20t27 56h41q0 -51 -37.5 -81t-107.5 -30zM17 5l238 572h77l238 -572v-5h-51l-76 181h-299l-76 -181h-51v5zM427 224l-92 220l-40 95h-5l-38 -95l-94 -220h269z" />
    <glyph glyph-name="Acircumflex" unicode="&#xc2;" horiz-adv-x="653" 
d="M10 6l277 734h79l277 -734v-6h-52l-91 240h-348l-90 -240h-52v6zM484 287l-110 290l-45 122h-5l-45 -122l-110 -290h315zM177 867l151 73l150 -73v-50l-150 72l-151 -72v50z" />
    <glyph glyph-name="circumflex.cap" horiz-adv-x="423" 
d="M60 867l151 73l150 -73v-50l-150 72l-151 -72v50z" />
    <glyph glyph-name="Acircumflex.sc" horiz-adv-x="587" 
d="M17 5l238 572h77l238 -572v-5h-51l-76 181h-299l-76 -181h-51v5zM427 224l-92 220l-40 95h-5l-38 -95l-94 -220h269zM162 680l132 58l133 -58v-44l-133 56l-132 -56v44z" />
    <glyph glyph-name="Adblgrave" unicode="&#x200;" horiz-adv-x="653" 
d="M10 6l277 734h79l277 -734v-6h-52l-91 240h-348l-90 -240h-52v6zM484 287l-110 290l-45 122h-5l-45 -122l-110 -290h315zM239 793l-89 132h53l78 -119zM376 793l-89 132h54l77 -119z" />
    <glyph glyph-name="uni030F.cap" horiz-adv-x="519" 
d="M183 793l-89 132h53l78 -119zM320 793l-89 132h54l77 -119z" />
    <glyph glyph-name="Adblgrave.sc" horiz-adv-x="587" 
d="M17 5l238 572h77l238 -572v-5h-51l-76 181h-299l-76 -181h-51v5zM427 224l-92 220l-40 95h-5l-38 -95l-94 -220h269zM136 727h52l65 -97l-40 -11zM257 727h52l66 -97l-40 -11z" />
    <glyph glyph-name="Adieresis" unicode="&#xc4;" horiz-adv-x="653" 
d="M10 6l277 734h79l277 -734v-6h-52l-91 240h-348l-90 -240h-52v6zM484 287l-110 290l-45 122h-5l-45 -122l-110 -290h315zM203 826q-18 0 -28.5 9.5t-10.5 29.5q0 21 10.5 30.5t28.5 9.5q17 0 29 -9.5t12 -30.5t-12 -30t-29 -9zM451 826q-40 0 -40 39q0 40 40 40
q17 0 28.5 -9.5t11.5 -30.5t-11.5 -30t-28.5 -9z" />
    <glyph glyph-name="dieresis.cap" horiz-adv-x="396" 
d="M74 826q-18 0 -28.5 9.5t-10.5 29.5q0 21 10.5 30.5t28.5 9.5q17 0 29 -9.5t12 -30.5t-12 -30t-29 -9zM322 826q-40 0 -40 39q0 40 40 40q17 0 28.5 -9.5t11.5 -30.5t-11.5 -30t-28.5 -9z" />
    <glyph glyph-name="Adieresis.sc" horiz-adv-x="587" 
d="M185 643q-37 0 -37 36q0 35 37 35q17 0 27.5 -8.5t10.5 -26.5q0 -19 -10.5 -27.5t-27.5 -8.5zM402 643q-37 0 -37 36q0 35 37 35q17 0 27.5 -8.5t10.5 -26.5q0 -19 -10.5 -27.5t-27.5 -8.5zM17 5l238 572h77l238 -572v-5h-51l-76 181h-299l-76 -181h-51v5zM427 224
l-92 220l-40 95h-5l-38 -95l-94 -220h269z" />
    <glyph glyph-name="Agrave" unicode="&#xc0;" horiz-adv-x="653" 
d="M10 6l277 734h79l277 -734v-6h-52l-91 240h-348l-90 -240h-52v6zM484 287l-110 290l-45 122h-5l-45 -122l-110 -290h315zM306 799l-89 133h55l78 -119z" />
    <glyph glyph-name="grave.cap" horiz-adv-x="339" 
d="M151 799l-89 133h55l78 -119z" />
    <glyph glyph-name="Agrave.sc" horiz-adv-x="587" 
d="M17 5l238 572h77l238 -572v-5h-51l-76 181h-299l-76 -181h-51v5zM427 224l-92 220l-40 95h-5l-38 -95l-94 -220h269zM274 625l-79 107h54l65 -97z" />
    <glyph glyph-name="Ainvertedbreve" unicode="&#x202;" horiz-adv-x="653" 
d="M10 6l277 734h79l277 -734v-6h-52l-91 240h-348l-90 -240h-52v6zM484 287l-110 290l-45 122h-5l-45 -122l-110 -290h315zM448 818q0 46 -31.5 72t-89.5 26q-57 0 -89 -26t-32 -72h-44q0 64 43 101t122 37t122 -37t43 -101h-44z" />
    <glyph glyph-name="uni0311.cap" horiz-adv-x="440" 
d="M340 818q0 46 -31.5 72t-89.5 26q-57 0 -89 -26t-32 -72h-44q0 64 43 101t122 37t122 -37t43 -101h-44z" />
    <glyph glyph-name="Ainvertedbreve.sc" horiz-adv-x="587" 
d="M148 638q0 51 37.5 81t108.5 30q70 0 107.5 -30t37.5 -81h-42q0 36 -26.5 55.5t-76.5 19.5q-51 0 -77.5 -19.5t-26.5 -55.5h-42zM17 5l238 572h77l238 -572v-5h-51l-76 181h-299l-76 -181h-51v5zM427 224l-92 220l-40 95h-5l-38 -95l-94 -220h269z" />
    <glyph glyph-name="Amacron" unicode="&#x100;" horiz-adv-x="653" 
d="M10 6l277 734h79l277 -734v-6h-52l-91 240h-348l-90 -240h-52v6zM484 287l-110 290l-45 122h-5l-45 -122l-110 -290h315zM181 886h290v-44h-290v44z" />
    <glyph glyph-name="macron.cap" horiz-adv-x="418" 
d="M64 886h290v-44h-290v44z" />
    <glyph glyph-name="Amacron.sc" horiz-adv-x="587" 
d="M17 5l238 572h77l238 -572v-5h-51l-76 181h-299l-76 -181h-51v5zM427 224l-92 220l-40 95h-5l-38 -95l-94 -220h269zM164 697h257v-40h-257v40z" />
    <glyph glyph-name="Aogonek" unicode="&#x104;" horiz-adv-x="652" 
d="M574 -220q-89 0 -89 78q0 40 25.5 72t90.5 70h-10l-91 240h-348l-90 -240h-52v6l277 734h79l277 -734v-27q-61 -29 -88 -57.5t-27 -61.5q0 -42 52 -42q14 0 30 2.5t32 7.5v-36q-14 -5 -32 -8.5t-36 -3.5zM484 287l-110 290l-45 122h-5l-45 -122l-110 -290h315z" />
    <glyph glyph-name="ogonek" unicode="&#x2db;" horiz-adv-x="286" 
d="M152 -220q-89 0 -89 78q0 40 25.5 72t90.5 70h42v-21q-61 -29 -88 -57.5t-27 -61.5q0 -42 52 -42q14 0 30 2.5t32 7.5v-36q-14 -5 -32 -8.5t-36 -3.5z" />
    <glyph glyph-name="Aogonek.sc" horiz-adv-x="586" 
d="M507 -169q-78 0 -78 62q0 30 20 53.5t72 53.5h-4l-75 181h-299l-76 -181h-51v5l238 572h77l238 -572v-18q-48 -20 -74 -41.5t-26 -48.5q0 -18 11.5 -25t31.5 -7q14 0 28.5 2t27.5 7v-33q-28 -10 -61 -10zM426 224l-92 224l-40 91h-5l-38 -91l-94 -224h269z" />
    <glyph glyph-name="Aring" unicode="&#xc5;" horiz-adv-x="653" 
d="M10 6l277 734h79l277 -734v-6h-52l-91 240h-348l-90 -240h-52v6zM484 287l-110 290l-45 122h-5l-45 -122l-110 -290h315zM328 781q-51 0 -82.5 30t-31.5 75q0 22 8.5 41.5t23.5 34t36 22.5t46 8t46 -8t36 -22.5t23.5 -34t8.5 -41.5q0 -23 -8.5 -42t-23.5 -33t-36 -22
t-46 -8zM328 818q35 0 55 18t20 50t-20 50.5t-55 18.5q-36 0 -55.5 -18.5t-19.5 -50.5t20 -50t55 -18z" />
    <glyph glyph-name="ring.cap" horiz-adv-x="415" 
d="M208 799q-51 0 -82.5 30t-31.5 75q0 22 8.5 41.5t23.5 34t36 22.5t46 8t46 -8t36 -22.5t23.5 -34t8.5 -41.5q0 -23 -8.5 -42t-23.5 -33t-36 -22t-46 -8zM208 836q35 0 55 18t20 50t-20 50.5t-55 18.5q-36 0 -55.5 -18.5t-19.5 -50.5t20 -50t55 -18z" />
    <glyph glyph-name="Aring.sc" horiz-adv-x="587" 
d="M17 5l238 572h77l238 -572v-5h-51l-76 181h-299l-76 -181h-51v5zM427 224l-92 220l-40 95h-5l-38 -95l-94 -220h269zM295 625q-44 0 -72.5 23.5t-28.5 59.5q0 35 28.5 59.5t72.5 24.5q43 0 71 -24.5t28 -59.5q0 -36 -28 -59.5t-71 -23.5zM295 656q31 0 47.5 14t16.5 38
t-16.5 38.5t-47.5 14.5q-32 0 -49 -14.5t-17 -38.5t17 -38t49 -14z" />
    <glyph glyph-name="Aringacute" unicode="&#x1fa;" horiz-adv-x="654" 
d="M11 6l246 651q-24 14 -38 37t-14 52q0 43 27.5 73t72.5 36l67 100h55l-69 -103q39 -9 63 -38t24 -68q0 -28 -12.5 -50.5t-35.5 -36.5l246 -653v-6h-51l-91 240h-348l-90 -240h-52v6zM326 678q35 0 55.5 18.5t20.5 49.5q0 32 -20.5 51.5t-55.5 19.5q-37 0 -57.5 -19.5
t-20.5 -51.5q0 -31 21 -49.5t57 -18.5zM484 287l-109 290l-23 62l-50 -1l-23 -61l-109 -290h314z" />
    <glyph glyph-name="Aringacute.sc" horiz-adv-x="587" 
d="M18 5l211 509q-20 12 -32 30t-12 40q0 35 24 58.5t65 28.5l56 80h53l-60 -82q35 -8 56 -30.5t21 -54.5q0 -22 -11 -39.5t-31 -28.5l212 -511v-5h-50l-77 181h-299l-76 -181h-50v5zM293 531q31 0 48.5 14.5t17.5 38.5q0 25 -17.5 39.5t-48.5 14.5q-32 0 -50 -14.5
t-18 -39.5q0 -24 18 -38.5t50 -14.5zM428 224l-93 220l-21 52h-41l-20 -52l-94 -220h269z" />
    <glyph glyph-name="Atilde" unicode="&#xc3;" horiz-adv-x="653" 
d="M10 6l277 734h79l277 -734v-6h-52l-91 240h-348l-90 -240h-52v6zM484 287l-110 290l-45 122h-5l-45 -122l-110 -290h315zM147 863q26 26 54.5 40.5t57.5 14.5q23 0 42.5 -6.5t38 -14.5t37 -14.5t39.5 -6.5q45 0 86 38l25 -24q-23 -26 -54 -41.5t-63 -15.5
q-21 0 -40.5 6.5t-38 14.5t-37.5 14.5t-38 6.5q-45 0 -85 -37z" />
    <glyph glyph-name="tilde.cap" horiz-adv-x="446" 
d="M42 863q26 26 54.5 40.5t57.5 14.5q23 0 42.5 -6.5t38 -14.5t37 -14.5t39.5 -6.5q45 0 86 38l25 -24q-23 -26 -54 -41.5t-63 -15.5q-21 0 -40.5 6.5t-38 14.5t-37.5 14.5t-38 6.5q-45 0 -85 -37z" />
    <glyph glyph-name="Atilde.sc" horiz-adv-x="587" 
d="M17 5l238 572h77l238 -572v-5h-51l-76 181h-299l-76 -181h-51v5zM427 224l-92 220l-40 95h-5l-38 -95l-94 -220h269zM136 673q46 49 99 49q20 0 37.5 -5t33.5 -11.5t32 -11.5t34 -5q41 0 77 30l21 -20q-21 -23 -48 -36t-56 -13q-18 0 -35 5t-34 11t-33.5 11t-32.5 5
q-40 0 -75 -29z" />
    <glyph glyph-name="B" unicode="B" horiz-adv-x="642" 
d="M312 -10q-48 0 -103.5 3.5t-112.5 11.5v730q35 4 64 6.5t54 4t47 2.5t44 1q69 0 118.5 -11t80.5 -35t45.5 -61.5t14.5 -89.5q0 -69 -34.5 -116t-93.5 -58v-4q75 -14 114 -60.5t39 -121.5q0 -202 -277 -202zM312 34q115 1 170 39.5t55 120.5q0 159 -209 159h-181v-308
q26 -5 69.5 -8t95.5 -3zM325 397q101 0 144.5 35.5t43.5 118.5q0 41 -11.5 70t-36 47.5t-64 27t-95.5 8.5q-50 0 -87.5 -2t-71.5 -7v-298h178z" />
    <glyph glyph-name="B.sc" horiz-adv-x="574" 
d="M280 -8q-42 0 -90.5 3t-99.5 9v569q61 6 103 8.5t80 2.5q121 0 174 -36t53 -118q0 -53 -30 -89.5t-81 -45.5v-3q64 -11 98 -47t34 -95q0 -158 -241 -158zM279 33q98 0 144.5 29.5t46.5 90.5t-42.5 90.5t-132.5 29.5h-156v-231q23 -5 59 -7t81 -2zM292 312
q85 0 121.5 26.5t36.5 89.5q0 62 -40.5 88.5t-135.5 26.5q-42 0 -74 -1.5t-61 -6.5v-223h153z" />
    <glyph glyph-name="C" unicode="C" horiz-adv-x="581" 
d="M375 -8q-318 0 -318 376q0 381 322 381q33 0 77.5 -5t83.5 -13v-48q-43 9 -84 14t-73 5q-274 0 -274 -333q0 -165 66.5 -247.5t198.5 -82.5q16 0 38 1.5t45 4.5t45 7t38 8v-46q-17 -5 -38 -9t-43 -7t-44 -4.5t-40 -1.5z" />
    <glyph glyph-name="C.sc" horiz-adv-x="521" 
d="M332 -7q-275 2 -275 294q0 297 278 297q30 0 68.5 -3.5t73.5 -10.5v-45q-38 7 -74 11t-64 4q-231 0 -231 -252q0 -249 224 -249q14 0 33.5 1.5t39.5 3.5t39 4.5t33 5.5v-43q-15 -3 -33.5 -6.5t-38 -6t-39 -4t-34.5 -1.5z" />
    <glyph glyph-name="A.sc" horiz-adv-x="587" 
d="M17 5l238 572h77l238 -572v-5h-51l-76 181h-299l-76 -181h-51v5zM427 223l-92 221l-40 95h-5l-38 -95l-94 -221h269z" />
    <glyph glyph-name="Cacute" unicode="&#x106;" horiz-adv-x="581" 
d="M375 -8q-318 0 -318 376q0 381 322 381q33 0 77.5 -5t83.5 -13v-48q-43 9 -84 14t-73 5q-274 0 -274 -333q0 -165 66.5 -247.5t198.5 -82.5q16 0 38 1.5t45 4.5t45 7t38 8v-46q-17 -5 -38 -9t-43 -7t-44 -4.5t-40 -1.5zM319 805l77 127h55l-89 -133z" />
    <glyph glyph-name="Cacute.sc" horiz-adv-x="521" 
d="M332 -7q-275 2 -275 294q0 297 278 297q29 0 68 -3.5t74 -10.5v-45q-40 7 -75.5 11t-62.5 4q-231 0 -231 -252q0 -249 224 -249q13 0 32.5 1.5t40 3.5t39.5 4.5t33 5.5v-43q-15 -3 -34 -6.5t-38.5 -6t-38.5 -4t-34 -1.5zM281 629l66 103h53l-78 -107z" />
    <glyph glyph-name="Ccaron" unicode="&#x10c;" horiz-adv-x="581" 
d="M375 -8q-318 0 -318 376q0 381 322 381q33 0 77.5 -5t83.5 -13v-48q-43 9 -84 14t-73 5q-274 0 -274 -333q0 -165 66.5 -247.5t198.5 -82.5q16 0 38 1.5t45 4.5t45 7t38 8v-46q-17 -5 -38 -9t-43 -7t-44 -4.5t-40 -1.5zM197 935l151 -72l150 72v-50l-151 -73l-150 73v50z
" />
    <glyph glyph-name="caron.cap" horiz-adv-x="420" 
d="M60 935l151 -72l150 72v-50l-151 -73l-150 73v50z" />
    <glyph glyph-name="Ccaron.sc" horiz-adv-x="521" 
d="M332 -7q-275 2 -275 294q0 297 278 297q29 0 68 -3.5t74 -10.5v-45q-40 7 -75.5 11t-62.5 4q-231 0 -231 -252q0 -249 224 -249q13 0 32.5 1.5t40 3.5t39.5 4.5t33 5.5v-43q-15 -3 -34 -6.5t-38.5 -6t-38.5 -4t-34 -1.5zM176 735l132 -57l132 57v-45l-132 -57l-132 57v45
z" />
    <glyph glyph-name="Ccedilla" unicode="&#xc7;" horiz-adv-x="581" 
d="M300 -220q-17 0 -38 3t-41 9v42q20 -6 35.5 -8.5t31.5 -2.5q45 0 63.5 17t18.5 55q0 23 -7 45t-25 54q-141 10 -211 103.5t-70 270.5q0 381 322 381q33 0 77.5 -5t83.5 -13v-48q-43 9 -84 14t-73 5q-274 0 -274 -333q0 -165 66.5 -247.5t198.5 -82.5q16 0 38 1.5t45 4.5
t45 7t38 8v-46q-15 -4 -34.5 -7.5t-40.5 -6.5t-41.5 -5t-38.5 -3q19 -35 25.5 -56t6.5 -42q0 -55 -30 -84.5t-87 -29.5z" />
    <glyph glyph-name="cedilla" unicode="&#xb8;" horiz-adv-x="306" 
d="M115 -220q-17 0 -38 3t-41 9v42q20 -6 35.5 -8.5t31.5 -2.5q45 0 63.5 17t18.5 55q0 26 -9 51t-33 65h47q12 -23 20.5 -39.5t13 -30t6.5 -24.5t2 -23q0 -55 -30 -84.5t-87 -29.5z" />
    <glyph glyph-name="Ccedilla.sc" horiz-adv-x="521" 
d="M270 -172q-15 0 -33.5 2.5t-37.5 7.5v37q14 -4 27.5 -6t30.5 -2q39 0 54.5 13.5t15.5 44.5q0 14 -5.5 28.5t-20.5 40.5q-244 15 -244 293q0 297 278 297q29 0 68 -3.5t74 -10.5v-45q-40 7 -75.5 11t-62.5 4q-231 0 -231 -252q0 -249 224 -249q14 0 33.5 1.5t39.5 3.5
t39 4.5t33 5.5v-43q-27 -7 -65 -11.5t-68 -5.5q14 -27 20 -43.5t6 -32.5q0 -44 -25.5 -67t-74.5 -23z" />
    <glyph glyph-name="Ccircumflex" unicode="&#x108;" horiz-adv-x="581" 
d="M375 -8q-318 0 -318 376q0 381 322 381q33 0 77.5 -5t83.5 -13v-48q-43 9 -84 14t-73 5q-274 0 -274 -333q0 -165 66.5 -247.5t198.5 -82.5q16 0 38 1.5t45 4.5t45 7t38 8v-46q-17 -5 -38 -9t-43 -7t-44 -4.5t-40 -1.5zM196 867l151 73l150 -73v-50l-150 72l-151 -72v50z
" />
    <glyph glyph-name="Ccircumflex.sc" horiz-adv-x="521" 
d="M332 -7q-275 2 -275 294q0 297 278 297q29 0 68 -3.5t74 -10.5v-45q-40 7 -75.5 11t-62.5 4q-231 0 -231 -252q0 -249 224 -249q13 0 32.5 1.5t40 3.5t39.5 4.5t33 5.5v-43q-15 -3 -34 -6.5t-38.5 -6t-38.5 -4t-34 -1.5zM174 680l133 58l133 -58v-44l-133 56l-133 -56v44
z" />
    <glyph glyph-name="Cdotaccent" unicode="&#x10a;" horiz-adv-x="581" 
d="M348 818q-18 0 -28.5 9.5t-10.5 30.5q0 20 10.5 30t28.5 10q17 0 29 -9.5t12 -30.5t-12 -30.5t-29 -9.5zM375 -8q-318 0 -318 376q0 381 322 381q33 0 77.5 -5t83.5 -13v-48q-43 9 -84 14t-73 5q-274 0 -274 -333q0 -165 66.5 -247.5t198.5 -82.5q16 0 38 1.5t45 4.5
t45 7t38 8v-46q-17 -5 -38 -9t-43 -7t-44 -4.5t-40 -1.5z" />
    <glyph glyph-name="dotaccent.cap" horiz-adv-x="333" 
d="M166 818q-18 0 -28.5 9.5t-10.5 30.5q0 20 10.5 30t28.5 10q17 0 29 -9.5t12 -30.5t-12 -30.5t-29 -9.5z" />
    <glyph glyph-name="Cdotaccent.sc" horiz-adv-x="521" 
d="M332 -7q-275 2 -275 294q0 297 278 297q29 0 68 -3.5t74 -10.5v-45q-40 7 -75.5 11t-62.5 4q-231 0 -231 -252q0 -249 224 -249q13 0 32.5 1.5t40 3.5t39.5 4.5t33 5.5v-43q-15 -3 -34 -6.5t-38.5 -6t-38.5 -4t-34 -1.5zM310 638q-18 0 -27.5 8t-9.5 28q0 35 37 35
q17 0 27 -8.5t10 -26.5q0 -19 -10 -27.5t-27 -8.5z" />
    <glyph glyph-name="D" unicode="D" horiz-adv-x="708" 
d="M271 -11q-57 0 -104.5 3.5t-70.5 11.5v733q20 3 45.5 5t51.5 3.5t50 2.5t42 1q189 0 278 -92t89 -287q0 -98 -22.5 -170t-69.5 -119t-118.5 -69.5t-170.5 -22.5zM280 36q163 0 241 81.5t78 252.5q0 172 -75.5 251.5t-236.5 79.5q-14 0 -32 -0.5t-37 -2t-37 -3t-33 -2.5
v-648q40 -5 68.5 -7t63.5 -2z" />
    <glyph glyph-name="D.sc" horiz-adv-x="633" 
d="M249 -8q-52 0 -95 3t-64 9v572q18 1 40 2.5t45 3t44.5 2t36.5 0.5q166 0 243.5 -71t77.5 -224q0 -154 -79.5 -225.5t-248.5 -71.5zM256 36q139 0 204 61t65 192q0 130 -63.5 190t-202.5 60q-23 0 -58 -2t-61 -4v-490q18 -2 32 -3.5t27.5 -2l27 -1t29.5 -0.5z" />
    <glyph glyph-name="Dcaron" unicode="&#x10e;" horiz-adv-x="708" 
d="M172 935l151 -72l150 72v-50l-151 -73l-150 73v50zM271 -11q-57 0 -104.5 3.5t-70.5 11.5v733q20 3 45.5 5t51.5 3.5t50 2.5t42 1q189 0 278 -92t89 -287q0 -98 -22.5 -170t-69.5 -119t-118.5 -69.5t-170.5 -22.5zM280 36q163 0 241 81.5t78 252.5q0 172 -75.5 251.5
t-236.5 79.5q-14 0 -32 -0.5t-37 -2t-37 -3t-33 -2.5v-648q40 -5 68.5 -7t63.5 -2z" />
    <glyph glyph-name="Dcaron.sc" horiz-adv-x="633" 
d="M249 -8q-52 0 -95 3t-64 9v572q18 1 40 2.5t45 3t44.5 2t36.5 0.5q166 0 243.5 -71t77.5 -224q0 -154 -79.5 -225.5t-248.5 -71.5zM256 36q139 0 204 61t65 192q0 130 -63.5 190t-202.5 60q-23 0 -58 -2t-61 -4v-490q18 -2 32 -3.5t27.5 -2l27 -1t29.5 -0.5zM158 690v45
l132 -57l133 57v-45l-133 -57z" />
    <glyph glyph-name="Dcroat" unicode="&#x110;" horiz-adv-x="716" 
d="M5 392h98v345q20 3 45.5 5t51.5 3.5t50 2.5t42 1q189 0 278 -92t89 -287q0 -98 -22.5 -170t-69.5 -119t-118.5 -69.5t-170.5 -22.5q-57 0 -104.5 3.5t-70.5 11.5v342h-98v46zM287 36q163 0 241 81.5t78 252.5q0 172 -75.5 251.5t-236.5 79.5q-14 0 -32 -0.5t-37 -2
t-37 -3t-33 -2.5v-301h205v-46h-205v-301q40 -5 68.5 -7t63.5 -2z" />
    <glyph glyph-name="Dcroat.sc" horiz-adv-x="641" 
d="M13 309h85v267q18 1 40 2.5t45 3t44.5 2t36.5 0.5q165 0 242.5 -71.5t77.5 -223.5q0 -77 -19.5 -133t-60 -92.5t-103.5 -54t-149 -17.5q-51 0 -92.5 3t-61.5 9v262h-85v43zM263 36q139 0 204 61t65 192q0 130 -63.5 190t-201.5 60q-24 0 -58.5 -2t-60.5 -4v-224h174v-43
h-174v-223q35 -4 59.5 -5.5t55.5 -1.5z" />
    <glyph glyph-name="Ddotbelow" unicode="&#x1e0c;" horiz-adv-x="708" 
d="M333 -172q-19 0 -30 9t-11 32q0 22 11 31.5t30 9.5t30.5 -9t11.5 -32t-11.5 -32t-30.5 -9zM271 -11q-57 0 -104.5 3.5t-70.5 11.5v733q20 3 45.5 5t51.5 3.5t50 2.5t42 1q189 0 278 -92t89 -287q0 -98 -22.5 -170t-69.5 -119t-118.5 -69.5t-170.5 -22.5zM280 36
q163 0 241 81.5t78 252.5q0 172 -75.5 251.5t-236.5 79.5q-14 0 -32 -0.5t-37 -2t-37 -3t-33 -2.5v-648q40 -5 68.5 -7t63.5 -2z" />
    <glyph glyph-name="dotbelow" horiz-adv-x="224" 
d="M111 -172q-19 0 -30 9t-11 32q0 22 11 31.5t30 9.5t30.5 -9t11.5 -32t-11.5 -32t-30.5 -9z" />
    <glyph glyph-name="Ddotbelow.sc" horiz-adv-x="633" 
d="M249 -8q-52 0 -95 3t-64 9v572q18 1 40 2.5t45 3t44.5 2t36.5 0.5q166 0 243.5 -71t77.5 -224q0 -154 -79.5 -225.5t-248.5 -71.5zM256 36q139 0 204 61t65 192q0 130 -63.5 190t-202.5 60q-23 0 -58 -2t-61 -4v-490q18 -2 32 -3.5t27.5 -2l27 -1t29.5 -0.5zM300 -138
q-38 0 -38 35t38 35q17 0 27 -8t10 -27t-10 -27t-27 -8z" />
    <glyph glyph-name="Delta" unicode="&#x2206;" horiz-adv-x="708" 
d="M322 740h64l296 -740h-656zM612 46l-258 645l-259 -645h517z" />
    <glyph glyph-name="E" unicode="E" horiz-adv-x="598" 
d="M96 740h440v-47h-388v-293h365v-47h-365v-306h396v-47h-448v740z" />
    <glyph glyph-name="E.sc" 
d="M91 577h385v-43h-335v-219h315v-42h-315v-230h342v-43h-392v577z" />
    <glyph glyph-name="Eacute" unicode="&#xc9;" horiz-adv-x="598" 
d="M290 805l77 127h55l-89 -133zM96 740h440v-47h-388v-293h365v-47h-365v-306h396v-47h-448v740z" />
    <glyph glyph-name="Eacute.sc" horiz-adv-x="536" 
d="M91 577h385v-43h-335v-219h315v-42h-315v-230h342v-43h-392v577zM259 629l65 103h54l-78 -107z" />
    <glyph glyph-name="Ebreve" unicode="&#x114;" horiz-adv-x="598" 
d="M317 815q-79 0 -121.5 37t-42.5 100h44q0 -45 31.5 -71t88.5 -26q58 0 89.5 26t31.5 71h45q0 -63 -43.5 -100t-122.5 -37zM96 740h440v-47h-388v-293h365v-47h-365v-306h396v-47h-448v740z" />
    <glyph glyph-name="Ebreve.sc" horiz-adv-x="536" 
d="M284 635q-70 0 -107.5 30t-37.5 81h42q0 -36 26.5 -56t76.5 -20t77 20t27 56h42q0 -51 -37.5 -81t-108.5 -30zM91 577h385v-43h-335v-219h315v-42h-315v-230h342v-43h-392v577z" />
    <glyph glyph-name="Ecaron" unicode="&#x11a;" horiz-adv-x="598" 
d="M169 935l151 -72l150 72v-50l-151 -73l-150 73v50zM96 740h440v-47h-388v-293h365v-47h-365v-306h396v-47h-448v740z" />
    <glyph glyph-name="Ecaron.sc" horiz-adv-x="536" 
d="M91 577h385v-43h-335v-219h315v-42h-315v-230h342v-43h-392v577zM154 690v45l132 -57l132 57v-45l-132 -57z" />
    <glyph glyph-name="Ecircumflex" unicode="&#xca;" horiz-adv-x="598" 
d="M96 740h440v-47h-388v-293h365v-47h-365v-306h396v-47h-448v740zM169 867l151 73l150 -73v-50l-150 72l-151 -72v50z" />
    <glyph glyph-name="Ecircumflex.sc" horiz-adv-x="536" 
d="M91 577h385v-43h-335v-219h315v-42h-315v-230h342v-43h-392v577zM155 680l132 58l133 -58v-44l-133 56l-132 -56v44z" />
    <glyph glyph-name="Edblgrave" unicode="&#x204;" horiz-adv-x="598" 
d="M96 740h440v-47h-388v-293h365v-47h-365v-306h396v-47h-448v740zM230 793l-89 132h53l78 -119zM367 793l-89 132h54l77 -119z" />
    <glyph glyph-name="Edblgrave.sc" horiz-adv-x="536" 
d="M91 577h385v-43h-335v-219h315v-42h-315v-230h342v-43h-392v577zM128 727h52l66 -97l-41 -11zM249 727h52l66 -97l-41 -11z" />
    <glyph glyph-name="Edieresis" unicode="&#xcb;" horiz-adv-x="598" 
d="M195 826q-18 0 -28.5 9.5t-10.5 29.5q0 21 10.5 30.5t28.5 9.5q17 0 29 -9.5t12 -30.5t-12 -30t-29 -9zM443 826q-40 0 -40 39q0 40 40 40q17 0 28.5 -9.5t11.5 -30.5t-11.5 -30t-28.5 -9zM96 740h440v-47h-388v-293h365v-47h-365v-306h396v-47h-448v740z" />
    <glyph glyph-name="Edieresis.sc" horiz-adv-x="536" 
d="M178 643q-17 0 -27.5 8.5t-10.5 27.5q0 18 10.5 26.5t27.5 8.5q16 0 26.5 -8.5t10.5 -26.5q0 -19 -10.5 -27.5t-26.5 -8.5zM395 643q-37 0 -37 36q0 35 37 35q17 0 27 -8.5t10 -26.5q0 -19 -10 -27.5t-27 -8.5zM91 577h385v-43h-335v-219h315v-42h-315v-230h342v-43h-392
v577z" />
    <glyph glyph-name="Edotaccent" unicode="&#x116;" horiz-adv-x="598" 
d="M317 818q-18 0 -28.5 9.5t-10.5 30.5q0 20 10.5 30t28.5 10q17 0 29 -9.5t12 -30.5t-12 -30.5t-29 -9.5zM96 740h440v-47h-388v-293h365v-47h-365v-306h396v-47h-448v740z" />
    <glyph glyph-name="Edotaccent.sc" horiz-adv-x="536" 
d="M285 638q-17 0 -27 8t-10 28q0 35 37 35q16 0 26.5 -8.5t10.5 -26.5q0 -19 -10.5 -27.5t-26.5 -8.5zM91 577h385v-43h-335v-219h315v-42h-315v-230h342v-43h-392v577z" />
    <glyph glyph-name="Edotbelow" unicode="&#x1eb8;" horiz-adv-x="598" 
d="M96 740h440v-47h-388v-293h365v-47h-365v-306h396v-47h-448v740zM336 -172q-19 0 -30 9t-11 32q0 22 11 31.5t30 9.5t30.5 -9t11.5 -32t-11.5 -32t-30.5 -9z" />
    <glyph glyph-name="Edotbelow.sc" horiz-adv-x="536" 
d="M301 -138q-37 0 -37 35t37 35q17 0 27.5 -8t10.5 -27t-10.5 -27t-27.5 -8zM91 577h385v-43h-335v-219h315v-42h-315v-230h342v-43h-392v577z" />
    <glyph glyph-name="Egrave" unicode="&#xc8;" horiz-adv-x="598" 
d="M300 799l-89 133h55l78 -119zM96 740h440v-47h-388v-293h365v-47h-365v-306h396v-47h-448v740z" />
    <glyph glyph-name="Egrave.sc" horiz-adv-x="536" 
d="M91 577h385v-43h-335v-219h315v-42h-315v-230h342v-43h-392v577zM192 732h53l66 -97l-42 -10z" />
    <glyph glyph-name="Einvertedbreve" unicode="&#x206;" horiz-adv-x="598" 
d="M96 740h440v-47h-388v-293h365v-47h-365v-306h396v-47h-448v740zM438 818q0 46 -31.5 72t-89.5 26q-57 0 -89 -26t-32 -72h-44q0 64 43 101t122 37t122 -37t43 -101h-44z" />
    <glyph glyph-name="Einvertedbreve.sc" horiz-adv-x="536" 
d="M140 638q0 51 37 81t108 30q70 0 107.5 -30t37.5 -81h-41q0 36 -26.5 55.5t-77.5 19.5t-77.5 -19.5t-26.5 -55.5h-41zM91 577h385v-43h-335v-219h315v-42h-315v-230h342v-43h-392v577z" />
    <glyph glyph-name="Emacron" unicode="&#x112;" horiz-adv-x="598" 
d="M172 886h290v-44h-290v44zM96 740h440v-47h-388v-293h365v-47h-365v-306h396v-47h-448v740z" />
    <glyph glyph-name="Emacron.sc" horiz-adv-x="536" 
d="M91 577h385v-43h-335v-219h315v-42h-315v-230h342v-43h-392v577zM156 697h257v-40h-257v40z" />
    <glyph glyph-name="Eng" unicode="&#x14a;" horiz-adv-x="765" 
d="M542 -173q12 22 23 47t20 50t15.5 48t9.5 42l-403 558l-57 85h-5v-657h-49v740h48l411 -569l60 -89h5v658h49v-668q0 -28 -6.5 -61.5t-18.5 -68t-28 -67.5t-34 -59z" />
    <glyph glyph-name="Eng.sc" horiz-adv-x="679" 
d="M475 -135q21 36 37 77t21 70l-341 420l-49 67h-5v-499h-47v577h45l348 -429l52 -71l5 1v499h47v-516q0 -23 -5.5 -50t-15.5 -54.5t-24 -54t-30 -48.5z" />
    <glyph glyph-name="Eogonek" unicode="&#x118;" horiz-adv-x="598" 
d="M96 740h440v-47h-388v-293h365v-47h-365v-306h396v-68q-61 -29 -88 -57.5t-27 -61.5q0 -42 52 -42q14 0 30 2.5t32 7.5v-36q-14 -5 -32 -8.5t-36 -3.5q-89 0 -89 78q0 40 25.5 72t90.5 70h-406v740z" />
    <glyph glyph-name="Eogonek.sc" horiz-adv-x="536" 
d="M422 -172q-79 0 -79 63q0 15 4.5 28t16 26t30 26t46.5 29h-349v577h385v-43h-335v-219h315v-42h-315v-230h342v-59q-48 -20 -74 -41.5t-26 -48.5q0 -18 11.5 -25t32.5 -7q13 0 27.5 2.5t27.5 6.5v-33q-12 -5 -27.5 -7.5t-32.5 -2.5z" />
    <glyph glyph-name="Eth" unicode="&#xd0;" horiz-adv-x="716" 
d="M5 392h98v345q20 3 45.5 5t51.5 3.5t50 2.5t42 1q189 0 278 -92t89 -287q0 -98 -22.5 -170t-69.5 -119t-118.5 -69.5t-170.5 -22.5q-57 0 -104.5 3.5t-70.5 11.5v342h-98v46zM287 36q163 0 241 81.5t78 252.5q0 172 -75.5 251.5t-236.5 79.5q-14 0 -32 -0.5t-37 -2
t-37 -3t-33 -2.5v-301h205v-46h-205v-301q40 -5 68.5 -7t63.5 -2z" />
    <glyph glyph-name="Eth.sc" horiz-adv-x="641" 
d="M13 309h85v267q17 1 39.5 2.5t45.5 3t44.5 2t36.5 0.5q165 0 242.5 -71.5t77.5 -223.5q0 -77 -19.5 -133t-60 -92.5t-103.5 -54t-149 -17.5q-51 0 -92.5 3t-61.5 9v262h-85v43zM263 36q139 0 204 61t65 192q0 130 -63.5 190t-201.5 60q-25 0 -59 -2t-60 -4v-224h174v-43
h-174v-223q35 -4 59 -5.5t56 -1.5z" />
    <glyph glyph-name="Etilde" unicode="&#x1ebc;" horiz-adv-x="598" 
d="M138 863q26 26 54.5 40.5t57.5 14.5q23 0 42.5 -6.5t38 -14.5t37 -14.5t39.5 -6.5q45 0 86 38l25 -24q-23 -26 -54 -41.5t-63 -15.5q-21 0 -40.5 6.5t-38 14.5t-37.5 14.5t-38 6.5q-45 0 -85 -37zM96 740h440v-47h-388v-293h365v-47h-365v-306h396v-47h-448v740z" />
    <glyph glyph-name="Etilde.sc" horiz-adv-x="536" 
d="M127 673q46 49 100 49q20 0 37 -5t33 -11.5t32.5 -11.5t34.5 -5q40 0 76 30l21 -20q-20 -23 -47.5 -36t-56.5 -13q-18 0 -35 5t-33.5 11t-33 11t-33.5 5q-40 0 -75 -29zM91 577h385v-43h-335v-219h315v-42h-315v-230h342v-43h-392v577z" />
    <glyph glyph-name="Euro" unicode="&#x20ac;" horiz-adv-x="602" 
d="M48 474h91q9 73 34 125t67 85.5t102 49t140 15.5q26 0 43 -1t34 -3l-21 -47q-8 1 -19.5 2t-28.5 1q-71 0 -123.5 -12.5t-88.5 -39.5t-57 -70.5t-30 -104.5h281l-17 -41h-268q-2 -15 -2 -30.5v-32.5t0.5 -32.5t1.5 -30.5h247l-18 -41h-224q18 -120 88 -174t206 -54
q8 0 23.5 0.5t32.5 2.5v-48q-10 -2 -23 -2.5t-34 -0.5q-158 2 -242 67.5t-103 208.5h-92v41h87q-1 15 -1.5 30.5t-0.5 32.5v32.5t2 30.5h-87v41z" />
    <glyph glyph-name="Euro.tab" 
d="M23 474h88q9 73 33 125.5t64.5 85.5t98.5 48.5t135 15.5q26 0 42.5 -1t33.5 -3l-21 -47q-8 1 -19 2t-27 1q-68 0 -118 -12.5t-85 -40t-55.5 -70.5t-28.5 -104h270l-16 -41h-259q-1 -14 -1.5 -30t-0.5 -33t0.5 -33t1.5 -30h238l-17 -41h-216q18 -119 85.5 -173.5
t197.5 -54.5q8 0 23 0.5t32 2.5v-48q-10 -2 -23 -2.5t-34 -0.5q-153 2 -233.5 67.5t-99.5 208.5h-89v41h84q-1 14 -1.5 30t-0.5 33q0 16 0.5 32.5t1.5 30.5h-84v41z" />
    <glyph glyph-name="F" unicode="F" horiz-adv-x="567" 
d="M96 740h435v-47h-383v-295h351v-47h-351v-351h-52v740z" />
    <glyph glyph-name="F.sc" horiz-adv-x="510" 
d="M91 577h382v-44h-332v-222h303v-42h-303v-269h-50v577z" />
    <glyph glyph-name="F_B.sc" horiz-adv-x="1064" 
d="M91 577h382v-44h-332v-222h303v-42h-303v-269h-50v577zM770 -8q-42 0 -90.5 3t-99.5 9v569q61 6 103 8.5t80 2.5q121 0 174 -36t53 -118q0 -53 -30 -89.5t-81 -45.5v-3q64 -11 98 -47t34 -95q0 -158 -241 -158zM769 33q98 0 144.5 29.5t46.5 90.5t-42.5 90.5t-132.5 29.5
h-156v-231q23 -5 59 -7t81 -2zM782 312q85 0 121.5 26.5t36.5 89.5q0 62 -40.5 88.5t-135.5 26.5q-42 0 -74 -1.5t-61 -6.5v-223h153z" />
    <glyph glyph-name="F_F.sc" horiz-adv-x="999" 
d="M91 577h382v-44h-332v-222h303v-42h-303v-269h-50v577zM580 577h382v-44h-332v-222h303v-42h-303v-269h-50v577z" />
    <glyph glyph-name="F_F_B.sc" horiz-adv-x="1553" 
d="M91 577h382v-44h-332v-222h303v-42h-303v-269h-50v577zM580 577h382v-44h-332v-222h303v-42h-303v-269h-50v577zM1258 -8q-42 0 -90.5 3t-99.5 9v569q61 6 103 8.5t80 2.5q121 0 174 -36t53 -118q0 -53 -30 -89.5t-81 -45.5v-3q64 -11 98 -47t34 -95q0 -158 -241 -158z
M1257 33q98 0 144.5 29.5t46.5 90.5t-42.5 90.5t-132.5 29.5h-156v-231q23 -5 59 -7t81 -2zM1270 312q85 0 121.5 26.5t36.5 89.5q0 62 -40.5 88.5t-135.5 26.5q-42 0 -74 -1.5t-61 -6.5v-223h153z" />
    <glyph glyph-name="F_F_H.sc" horiz-adv-x="1643" 
d="M91 577h382v-44h-332v-222h303v-42h-303v-269h-50v577zM580 577h382v-44h-332v-222h303v-42h-303v-269h-50v577zM1068 577h50v-259h383v259h51v-577h-51v274h-383v-274h-50v577z" />
    <glyph glyph-name="H.sc" horiz-adv-x="666" 
d="M91 577h50v-259h383v259h51v-577h-51v274h-383v-274h-50v577z" />
    <glyph glyph-name="F_F_I.sc" horiz-adv-x="1210" 
d="M91 577h382v-44h-332v-222h303v-42h-303v-269h-50v577zM580 577h382v-44h-332v-222h303v-42h-303v-269h-50v577zM1068 577h50v-577h-50v577z" />
    <glyph glyph-name="I.sc" horiz-adv-x="233" 
d="M91 577h50v-577h-50v577z" />
    <glyph glyph-name="F_F_J.sc" horiz-adv-x="1218" 
d="M91 577h382v-44h-332v-222h303v-42h-303v-269h-50v577zM580 577h382v-44h-332v-222h303v-42h-303v-269h-50v577zM1011 -125q20 37 33 69t21 63t11 64t3 72v434h50v-436q0 -39 -4 -72t-13.5 -66t-25 -68t-38.5 -78z" />
    <glyph glyph-name="J.sc" horiz-adv-x="232" 
d="M25 -125q20 37 33 69t21 63t11 64t3 72v434h50v-436q0 -39 -4 -72t-13.5 -66t-25 -68t-38.5 -78z" />
    <glyph glyph-name="F_F_K.sc" horiz-adv-x="1551" 
d="M91 577h382v-44h-332v-222h303v-42h-303v-269h-50v577zM580 577h382v-44h-332v-222h303v-42h-303v-269h-50v577zM1068 577h50v-261h135l207 261h60l-205 -259l-25 -19v-5l27 -19l218 -275h-59l-217 272h-141v-272h-50v577z" />
    <glyph glyph-name="K.sc" horiz-adv-x="574" 
d="M91 577h50v-261h135l207 261h60l-205 -259l-25 -19v-5l27 -19l218 -275h-59l-217 272h-141v-272h-50v577z" />
    <glyph glyph-name="F_F_L.sc" horiz-adv-x="1437" 
d="M1068 577h50v-533h300v-44h-350v577zM91 577h382v-44h-332v-222h303v-42h-303v-269h-50v577zM580 577h382v-44h-332v-222h303v-42h-303v-269h-50v577z" />
    <glyph glyph-name="L.sc" horiz-adv-x="459" 
d="M91 577h50v-533h300v-44h-350v577z" />
    <glyph glyph-name="F_F_T.sc" horiz-adv-x="1491" 
d="M1207 533h-215v44h479v-44h-214v-533h-50v533zM91 577h382v-44h-332v-222h303v-42h-303v-269h-50v577zM580 577h382v-44h-332v-222h303v-42h-303v-269h-50v577z" />
    <glyph glyph-name="T.sc" horiz-adv-x="519" 
d="M235 533h-215v44h479v-44h-214v-533h-50v533z" />
    <glyph glyph-name="F_H.sc" horiz-adv-x="1154" 
d="M91 577h382v-44h-332v-222h303v-42h-303v-269h-50v577zM580 577h50v-259h383v259h51v-577h-51v274h-383v-274h-50v577z" />
    <glyph glyph-name="F_I.sc" horiz-adv-x="721" 
d="M91 577h382v-44h-332v-222h303v-42h-303v-269h-50v577zM580 577h50v-577h-50v577z" />
    <glyph glyph-name="F_J.sc" horiz-adv-x="730" 
d="M91 577h382v-44h-332v-222h303v-42h-303v-269h-50v577zM522 -125q20 37 33 69t21 63t11 64t3 72v434h50v-436q0 -39 -4 -72t-13.5 -66t-25 -68t-38.5 -78z" />
    <glyph glyph-name="F_K.sc" horiz-adv-x="1062" 
d="M91 577h382v-44h-332v-222h303v-42h-303v-269h-50v577zM580 577h50v-261h135l207 261h60l-205 -259l-25 -19v-5l27 -19l218 -275h-59l-217 272h-141v-272h-50v577z" />
    <glyph glyph-name="F_L.sc" horiz-adv-x="948" 
d="M580 577h50v-533h300v-44h-350v577zM91 577h382v-44h-332v-222h303v-42h-303v-269h-50v577z" />
    <glyph glyph-name="F_T.sc" horiz-adv-x="1002" 
d="M718 533h-215v44h479v-44h-214v-533h-50v533zM91 577h382v-44h-332v-222h303v-42h-303v-269h-50v577z" />
    <glyph glyph-name="G" unicode="G" horiz-adv-x="643" 
d="M385 -8q-328 0 -328 376q0 381 336 381q81 0 177 -24v-48q-29 7 -52.5 12t-44 8t-39 4t-38.5 1q-287 0 -287 -333q0 -165 69 -247.5t206 -82.5q13 0 30.5 1.5t36.5 3.5t38 5.5t36 6.5v320h49v-355q-45 -14 -97 -21.5t-92 -7.5z" />
    <glyph glyph-name="G.sc" horiz-adv-x="575" 
d="M340 -7q-283 2 -283 294q0 297 291 297q35 0 74 -4.5t81 -14.5v-45q-51 11 -84.5 15.5t-67.5 4.5q-243 0 -243 -252q0 -249 233 -249q11 0 26 1t31.5 2.5t32.5 4t29 5.5v241h48v-276q-20 -5 -42 -9.5t-44 -7.5t-43 -5t-39 -2z" />
    <glyph glyph-name="Gacute" unicode="&#x1f4;" horiz-adv-x="643" 
d="M327 805l77 127h55l-89 -133zM385 -8q-328 0 -328 376q0 381 336 381q81 0 177 -24v-48q-29 7 -52.5 12t-44 8t-39 4t-38.5 1q-287 0 -287 -333q0 -165 69 -247.5t206 -82.5q13 0 30.5 1.5t36.5 3.5t38 5.5t36 6.5v320h49v-355q-45 -14 -97 -21.5t-92 -7.5z" />
    <glyph glyph-name="Gacute.sc" horiz-adv-x="575" 
d="M340 -7q-283 2 -283 294q0 297 291 297q35 0 74 -4.5t81 -14.5v-45q-51 11 -84.5 15.5t-67.5 4.5q-243 0 -243 -252q0 -249 233 -249q11 0 26 1t31.5 2.5t32.5 4t29 5.5v241h48v-276q-20 -5 -42 -9.5t-44 -7.5t-43 -5t-39 -2zM289 629l65 103h53l-77 -107z" />
    <glyph glyph-name="Gbreve" unicode="&#x11e;" horiz-adv-x="643" 
d="M355 815q-79 0 -121.5 37t-42.5 100h44q0 -45 31.5 -71t88.5 -26q58 0 89.5 26t31.5 71h45q0 -63 -43.5 -100t-122.5 -37zM385 -8q-328 0 -328 376q0 381 336 381q81 0 177 -24v-48q-29 7 -52.5 12t-44 8t-39 4t-38.5 1q-287 0 -287 -333q0 -165 69 -247.5t206 -82.5
q13 0 30.5 1.5t36.5 3.5t38 5.5t36 6.5v320h49v-355q-45 -14 -97 -21.5t-92 -7.5z" />
    <glyph glyph-name="Gbreve.sc" horiz-adv-x="575" 
d="M340 -7q-283 2 -283 294q0 297 291 297q35 0 74 -4.5t81 -14.5v-45q-51 11 -84.5 15.5t-67.5 4.5q-243 0 -243 -252q0 -249 233 -249q11 0 26 1t31.5 2.5t32.5 4t29 5.5v241h48v-276q-20 -5 -42 -9.5t-44 -7.5t-43 -5t-39 -2zM316 635q-70 0 -107.5 30t-37.5 81h41
q0 -36 26.5 -56t77.5 -20q50 0 76.5 20t26.5 56h42q0 -51 -37.5 -81t-107.5 -30z" />
    <glyph glyph-name="Gcircumflex" unicode="&#x11c;" horiz-adv-x="643" 
d="M385 -8q-328 0 -328 376q0 381 336 381q81 0 177 -24v-48q-29 7 -52.5 12t-44 8t-39 4t-38.5 1q-287 0 -287 -333q0 -165 69 -247.5t206 -82.5q13 0 30.5 1.5t36.5 3.5t38 5.5t36 6.5v320h49v-355q-45 -14 -97 -21.5t-92 -7.5zM205 867l151 73l150 -73v-50l-150 72
l-151 -72v50z" />
    <glyph glyph-name="Gcircumflex.sc" horiz-adv-x="575" 
d="M340 -7q-283 2 -283 294q0 297 291 297q35 0 74 -4.5t81 -14.5v-45q-51 11 -84.5 15.5t-67.5 4.5q-243 0 -243 -252q0 -249 233 -249q11 0 26 1t31.5 2.5t32.5 4t29 5.5v241h48v-276q-20 -5 -42 -9.5t-44 -7.5t-43 -5t-39 -2zM182 680l132 58l133 -58v-44l-132 56
l-133 -56v44z" />
    <glyph glyph-name="Gcommaaccent" unicode="&#x122;" horiz-adv-x="643" 
d="M340 -69h54l-58 -151h-47zM385 -8q-328 0 -328 376q0 381 336 381q81 0 177 -24v-48q-29 7 -52.5 12t-44 8t-39 4t-38.5 1q-287 0 -287 -333q0 -165 69 -247.5t206 -82.5q13 0 30.5 1.5t36.5 3.5t38 5.5t36 6.5v320h49v-355q-45 -14 -97 -21.5t-92 -7.5z" />
    <glyph glyph-name="commaaccent" unicode="&#xf6c3;" horiz-adv-x="226" 
d="M111 -69h54l-58 -151h-47z" />
    <glyph glyph-name="Gcommaaccent.sc" horiz-adv-x="575" 
d="M340 -7q-283 2 -283 294q0 297 291 297q35 0 74 -4.5t81 -14.5v-45q-51 11 -84.5 15.5t-67.5 4.5q-243 0 -243 -252q0 -249 233 -249q11 0 26 1t31.5 2.5t32.5 4t29 5.5v241h48v-276q-20 -5 -42 -9.5t-44 -7.5t-43 -5t-39 -2zM298 -54h53l-51 -118h-44z" />
    <glyph glyph-name="Gdotaccent" unicode="&#x120;" horiz-adv-x="643" 
d="M356 818q-18 0 -28.5 9.5t-10.5 30.5q0 20 10.5 30t28.5 10q17 0 29 -9.5t12 -30.5t-12 -30.5t-29 -9.5zM385 -8q-328 0 -328 376q0 381 336 381q81 0 177 -24v-48q-29 7 -52.5 12t-44 8t-39 4t-38.5 1q-287 0 -287 -333q0 -165 69 -247.5t206 -82.5q13 0 30.5 1.5
t36.5 3.5t38 5.5t36 6.5v320h49v-355q-45 -14 -97 -21.5t-92 -7.5z" />
    <glyph glyph-name="Gdotaccent.sc" horiz-adv-x="575" 
d="M340 -7q-283 2 -283 294q0 297 291 297q35 0 74 -4.5t81 -14.5v-45q-51 11 -84.5 15.5t-67.5 4.5q-243 0 -243 -252q0 -249 233 -249q11 0 26 1t31.5 2.5t32.5 4t29 5.5v241h48v-276q-20 -5 -42 -9.5t-44 -7.5t-43 -5t-39 -2zM317 638q-17 0 -27.5 8t-10.5 28
q0 18 10.5 26.5t27.5 8.5q16 0 26.5 -8.5t10.5 -26.5q0 -19 -10.5 -27.5t-26.5 -8.5z" />
    <glyph glyph-name="H" unicode="H" horiz-adv-x="745" 
d="M96 740h52v-337h449v337h51v-740h-51v356h-449v-356h-52v740z" />
    <glyph glyph-name="Hbar" unicode="&#x126;" horiz-adv-x="761" 
d="M7 587h97v153h52v-153h449v153h51v-153h98v-38h-98v-549h-51v356h-449v-356h-52v549h-97v38zM605 403v146h-449v-146h449z" />
    <glyph glyph-name="Hbar.sc" horiz-adv-x="678" 
d="M15 461h82v116h50v-116h383v116h51v-116h83v-34h-83v-427h-51v273h-383v-273h-50v427h-82v34zM530 316v111h-383v-111h383z" />
    <glyph glyph-name="Hcircumflex" unicode="&#x124;" horiz-adv-x="745" 
d="M96 740h52v-337h449v337h51v-740h-51v356h-449v-356h-52v740zM214 867l151 73l150 -73v-50l-150 72l-151 -72v50z" />
    <glyph glyph-name="Hcircumflex.sc" horiz-adv-x="666" 
d="M91 577h50v-259h383v259h51v-577h-51v274h-383v-274h-50v577zM194 680l132 58l133 -58v-44l-132 56l-133 -56v44z" />
    <glyph glyph-name="Hdotbelow" unicode="&#x1e24;" horiz-adv-x="745" 
d="M96 740h52v-337h449v337h51v-740h-51v356h-449v-356h-52v740zM382 -172q-19 0 -30 9t-11 32q0 22 11 31.5t30 9.5t30.5 -9t11.5 -32t-11.5 -32t-30.5 -9z" />
    <glyph glyph-name="Hdotbelow.sc" horiz-adv-x="666" 
d="M91 577h50v-259h383v259h51v-577h-51v274h-383v-274h-50v577zM341 -138q-36 0 -36 35t36 35q17 0 27.5 -8t10.5 -27t-10.5 -27t-27.5 -8z" />
    <glyph glyph-name="I" unicode="I" horiz-adv-x="244" 
d="M96 740h52v-740h-52v740z" />
    <glyph glyph-name="IJ" unicode="&#x132;" horiz-adv-x="488" 
d="M96 740h52v-740h-52v740zM262 -160q23 48 38.5 88.5t24.5 80t13 81t4 92.5v558h52v-560q0 -49 -4.5 -91.5t-15.5 -84t-29 -86t-45 -98.5z" />
    <glyph glyph-name="J" unicode="J" horiz-adv-x="244" 
d="M18 -160q23 48 38.5 88.5t24.5 80t13 81t4 92.5v558h52v-560q0 -49 -4.5 -91.5t-15.5 -84t-29 -86t-45 -98.5z" />
    <glyph glyph-name="Iacute" unicode="&#xcd;" horiz-adv-x="244" 
d="M96 740h52v-740h-52v740zM96 805l77 127h55l-89 -133z" />
    <glyph glyph-name="Iacute.sc" horiz-adv-x="233" 
d="M91 577h50v-577h-50v577zM91 629l66 103h53l-77 -107z" />
    <glyph glyph-name="Ibreve" unicode="&#x12c;" horiz-adv-x="244" 
d="M96 740h52v-740h-52v740zM122 815q-79 0 -121.5 37t-42.5 100h44q0 -45 31.5 -71t88.5 -26q58 0 89.5 26t31.5 71h45q0 -63 -43.5 -100t-122.5 -37z" />
    <glyph glyph-name="Ibreve.sc" horiz-adv-x="233" 
d="M91 577h50v-577h-50v577zM117 635q-71 0 -108 30t-37 81h41q0 -36 27 -56t77 -20t77 20t27 56h41q0 -51 -37.5 -81t-107.5 -30z" />
    <glyph glyph-name="Icircumflex" unicode="&#xce;" horiz-adv-x="244" 
d="M96 740h52v-740h-52v740zM-27 867l151 73l150 -73v-50l-150 72l-151 -72v50z" />
    <glyph glyph-name="Icircumflex.sc" horiz-adv-x="233" 
d="M91 577h50v-577h-50v577zM-15 680l133 58l131 -58v-44l-131 56l-133 -56v44z" />
    <glyph glyph-name="Idblgrave" unicode="&#x208;" horiz-adv-x="244" 
d="M96 740h52v-740h-52v740zM37 793l-89 132h53l78 -119zM174 793l-89 132h54l77 -119z" />
    <glyph glyph-name="Idblgrave.sc" horiz-adv-x="233" 
d="M91 577h50v-577h-50v577zM39 619l-77 108h52l66 -97zM161 619l-78 108h52l66 -97z" />
    <glyph glyph-name="Idieresis" unicode="&#xcf;" horiz-adv-x="244" 
d="M96 740h52v-740h-52v740zM-1 826q-18 0 -28.5 9.5t-10.5 29.5q0 21 10.5 30.5t28.5 9.5q17 0 29 -9.5t12 -30.5t-12 -30t-29 -9zM247 826q-40 0 -40 39q0 40 40 40q17 0 28.5 -9.5t11.5 -30.5t-11.5 -30t-28.5 -9z" />
    <glyph glyph-name="Idieresis.sc" horiz-adv-x="233" 
d="M91 577h50v-577h-50v577zM9 643q-37 0 -37 36q0 35 37 35q17 0 27 -8.5t10 -26.5q0 -19 -10 -27.5t-27 -8.5zM226 643q-37 0 -37 36q0 35 37 35q17 0 27 -8.5t10 -26.5q0 -19 -10 -27.5t-27 -8.5z" />
    <glyph glyph-name="Idotaccent" unicode="&#x130;" horiz-adv-x="244" 
d="M96 740h52v-740h-52v740zM123 818q-18 0 -28.5 9.5t-10.5 30.5q0 20 10.5 30t28.5 10q17 0 29 -9.5t12 -30.5t-12 -30.5t-29 -9.5z" />
    <glyph glyph-name="Idotaccent.sc" horiz-adv-x="233" 
d="M91 577h50v-577h-50v577zM117 638q-17 0 -27 8t-10 28q0 35 37 35q17 0 27.5 -8.5t10.5 -26.5q0 -19 -10.5 -27.5t-27.5 -8.5z" />
    <glyph glyph-name="Idotbelow" unicode="&#x1eca;" horiz-adv-x="244" 
d="M96 740h52v-740h-52v740zM123 -172q-19 0 -30 9t-11 32q0 22 11 31.5t30 9.5t30.5 -9t11.5 -32t-11.5 -32t-30.5 -9z" />
    <glyph glyph-name="Idotbelow.sc" horiz-adv-x="233" 
d="M91 577h50v-577h-50v577zM117 -138q-36 0 -36 35t36 35q17 0 27.5 -8t10.5 -27t-10.5 -27t-27.5 -8z" />
    <glyph glyph-name="Igrave" unicode="&#xcc;" horiz-adv-x="244" 
d="M96 740h52v-740h-52v740zM105 799l-89 133h55l78 -119z" />
    <glyph glyph-name="Igrave.sc" horiz-adv-x="233" 
d="M91 577h51v-577h-51v577zM100 625l-77 107h53l65 -97z" />
    <glyph glyph-name="Iinvertedbreve" unicode="&#x20a;" horiz-adv-x="244" 
d="M96 740h52v-740h-52v740zM244 818q0 46 -31.5 72t-89.5 26q-57 0 -89 -26t-32 -72h-44q0 64 43 101t122 37t122 -37t43 -101h-44z" />
    <glyph glyph-name="Iinvertedbreve.sc" horiz-adv-x="233" 
d="M91 577h50v-577h-50v577zM221 638q0 36 -26.5 55.5t-77.5 19.5q-50 0 -77 -19.5t-27 -55.5h-41q0 51 37 81t108 30t108 -30t37 -81h-41z" />
    <glyph glyph-name="Imacron" unicode="&#x12a;" horiz-adv-x="244" 
d="M96 740h52v-740h-52v740zM-23 886h290v-44h-290v44z" />
    <glyph glyph-name="Imacron.sc" horiz-adv-x="233" 
d="M91 577h50v-577h-50v577zM-12 697h257v-40h-257v40z" />
    <glyph glyph-name="Iogonek" unicode="&#x12e;" horiz-adv-x="244" 
d="M96 740h52v-761q-61 -29 -88 -57.5t-27 -61.5q0 -42 52 -42q14 0 30 2.5t32 7.5v-36q-14 -5 -32 -8.5t-36 -3.5q-89 0 -89 78q0 40 25.5 72t90.5 70h-10v740z" />
    <glyph glyph-name="Iogonek.sc" horiz-adv-x="233" 
d="M91 577h50v-593q-48 -20 -74 -41.5t-26 -48.5q0 -18 11.5 -25t32.5 -7q14 0 28 2.5t27 6.5v-33q-12 -5 -27.5 -7.5t-32.5 -2.5q-79 0 -79 63q0 15 4.5 28t16 25.5t30 26t46.5 29.5h-7v577z" />
    <glyph glyph-name="Itilde" unicode="&#x128;" horiz-adv-x="244" 
d="M96 740h52v-740h-52v740zM-57 863q26 26 54.5 40.5t57.5 14.5q23 0 42.5 -6.5t38 -14.5t37 -14.5t39.5 -6.5q45 0 86 38l25 -24q-23 -26 -54 -41.5t-63 -15.5q-21 0 -40.5 6.5t-38 14.5t-37.5 14.5t-38 6.5q-45 0 -85 -37z" />
    <glyph glyph-name="Itilde.sc" horiz-adv-x="233" 
d="M91 577h50v-577h-50v577zM-42 673q47 49 100 49q20 0 37 -5t33 -11.5t32.5 -11.5t34.5 -5q39 0 77 30l20 -20q-20 -23 -47.5 -36t-55.5 -13q-18 0 -35 5t-34 11t-33.5 11t-33.5 5q-39 0 -75 -29z" />
    <glyph glyph-name="Jcircumflex" unicode="&#x134;" horiz-adv-x="244" 
d="M18 -160q23 48 38.5 88.5t24.5 80t13 81t4 92.5v558h52v-560q0 -49 -4.5 -91.5t-15.5 -84t-29 -86t-45 -98.5zM-26 867l151 73l150 -73v-50l-150 72l-151 -72v50z" />
    <glyph glyph-name="Jcircumflex.sc" horiz-adv-x="232" 
d="M24 -125q20 37 33 69t21 63t11 64t3 72v434h51v-436q0 -39 -4 -72t-13.5 -66t-25.5 -68t-39 -78zM-14 680l133 58l132 -58v-44l-132 56l-133 -56v44z" />
    <glyph glyph-name="K" unicode="K" horiz-adv-x="640" 
d="M96 740h52v-339h157l246 339h62l-243 -333l-27 -25v-5l29 -24l258 -353h-61l-258 354h-163v-354h-52v740z" />
    <glyph glyph-name="Kcommaaccent" unicode="&#x136;" horiz-adv-x="640" 
d="M314 -69h54l-58 -151h-47zM96 740h52v-339h157l246 339h62l-243 -333l-27 -25v-5l29 -24l258 -353h-61l-258 354h-163v-354h-52v740z" />
    <glyph glyph-name="Kcommaaccent.sc" horiz-adv-x="574" 
d="M91 577h50v-261h135l207 261h60l-205 -259l-25 -19v-5l27 -19l218 -275h-59l-217 272h-141v-272h-50v577zM281 -54h53l-51 -118h-44z" />
    <glyph glyph-name="L" unicode="L" horiz-adv-x="509" 
d="M96 740h52v-694h347v-46h-399v740z" />
    <glyph glyph-name="Lacute" unicode="&#x139;" horiz-adv-x="509" 
d="M101 805l77 127h55l-89 -133zM96 740h52v-694h347v-46h-399v740z" />
    <glyph glyph-name="Lacute.sc" horiz-adv-x="460" 
d="M91 577h50v-533h301v-44h-351v577zM96 629l65 103h54l-78 -107z" />
    <glyph glyph-name="Lcaron" unicode="&#x13d;" horiz-adv-x="512" 
d="M388 746h46l-23 -228h-23v228zM96 740h52v-694h347v-46h-399v740z" />
    <glyph glyph-name="caron.alt" horiz-adv-x="208" 
d="M72 808h46l-23 -228h-23v228z" />
    <glyph glyph-name="Lcaron.sc" horiz-adv-x="462" 
d="M91 577h50v-533h300v-44h-350v577zM346 586h44l-20 -178h-24v178z" />
    <glyph glyph-name="Lcommaaccent" unicode="&#x13b;" horiz-adv-x="509" 
d="M279 -69h54l-58 -151h-47zM96 740h52v-694h347v-46h-399v740z" />
    <glyph glyph-name="Lcommaaccent.sc" horiz-adv-x="460" 
d="M91 577h50v-533h300v-44h-350v577zM247 -54h53l-51 -118h-44z" />
    <glyph glyph-name="Ldot" unicode="&#x13f;" horiz-adv-x="514" 
d="M96 740h52v-694h347v-46h-399v740zM414 332q-18 0 -28.5 9.5t-10.5 30.5t10.5 30.5t28.5 9.5q17 0 29 -9.5t12 -30.5t-12 -30.5t-29 -9.5z" />
    <glyph glyph-name="periodcentered" unicode="&#xb7;" horiz-adv-x="222" 
d="M110 330q-18 0 -28.5 9.5t-10.5 30.5t10.5 30.5t28.5 9.5q17 0 29 -9.5t12 -30.5t-12 -30.5t-29 -9.5z" />
    <glyph glyph-name="Ldot.sc" horiz-adv-x="464" 
d="M91 577h50v-533h300v-44h-350v577zM373 257q-37 0 -37 35t37 35q17 0 27.5 -8t10.5 -27t-10.5 -27t-27.5 -8z" />
    <glyph glyph-name="Lslash" unicode="&#x141;" horiz-adv-x="531" 
d="M16 276l102 69v395h52v-360l169 114v-51l-169 -115v-282h347v-46h-399v293l-102 -69v52z" />
    <glyph glyph-name="Lslash.sc" horiz-adv-x="479" 
d="M23 222l87 53v302h51v-276l147 89v-46l-147 -88v-212h300v-44h-351v229l-87 -54v47z" />
    <glyph glyph-name="M" unicode="M" horiz-adv-x="900" 
d="M96 740h71l213 -494l67 -162h5l68 162l213 494h71v-740h-49v663h-5l-90 -211l-183 -424h-54l-183 424l-90 211h-5v-663h-49v740z" />
    <glyph glyph-name="M.sc" horiz-adv-x="799" 
d="M91 577h68l180 -372l58 -127h5l59 127l180 372h67v-577h-47v509l-4 1l-80 -171l-152 -316h-51l-152 316l-79 171l-4 -1v-509h-48v577z" />
    <glyph glyph-name="N" unicode="N" horiz-adv-x="765" 
d="M96 740h49l410 -569l61 -89h4v658h49v-740h-49l-414 572l-56 84h-5v-656h-49v740z" />
    <glyph glyph-name="N.sc" horiz-adv-x="680" 
d="M91 577h45l348 -430l52 -70h5v500h47v-577h-45l-351 432l-49 67h-5v-499h-47v577z" />
    <glyph glyph-name="A" unicode="A" horiz-adv-x="653" 
d="M10 6l277 734h79l277 -734v-6h-52l-91 240h-348l-90 -240h-52v6zM484 287l-110 290l-45 122h-5l-45 -122l-110 -290h315z" />
    <glyph glyph-name="Nacute" unicode="&#x143;" horiz-adv-x="765" 
d="M354 805l77 127h55l-89 -133zM96 740h49l410 -569l61 -89h4v658h49v-740h-49l-414 572l-56 84h-5v-656h-49v740z" />
    <glyph glyph-name="Nacute.sc" horiz-adv-x="680" 
d="M91 577h45l348 -430l52 -70h5v500h47v-577h-45l-351 432l-49 67h-5v-499h-47v577zM312 629l65 103h53l-77 -107z" />
    <glyph glyph-name="Ncaron" unicode="&#x147;" horiz-adv-x="765" 
d="M234 935l151 -72l150 72v-50l-151 -73l-150 73v50zM96 740h49l410 -569l61 -89h4v658h49v-740h-49l-414 572l-56 84h-5v-656h-49v740z" />
    <glyph glyph-name="Ncaron.sc" horiz-adv-x="680" 
d="M91 577h45l348 -430l52 -70h5v500h47v-577h-45l-351 432l-49 67h-5v-499h-47v577zM208 690v45l133 -57l132 57v-45l-132 -57z" />
    <glyph glyph-name="Ncommaaccent" unicode="&#x145;" horiz-adv-x="765" 
d="M375 -69h54l-58 -151h-47zM96 740h49l410 -569l61 -89h4v658h49v-740h-49l-414 572l-56 84h-5v-656h-49v740z" />
    <glyph glyph-name="Ncommaaccent.sc" horiz-adv-x="680" 
d="M91 577h45l348 -430l52 -70h5v500h47v-577h-45l-351 432l-49 67h-5v-499h-47v577zM329 -54h53l-52 -118h-44z" />
    <glyph glyph-name="Ndotaccent" unicode="&#x1e44;" horiz-adv-x="765" 
d="M383 818q-18 0 -28.5 9.5t-10.5 30.5q0 20 10.5 30t28.5 10q17 0 29 -9.5t12 -30.5t-12 -30.5t-29 -9.5zM96 740h49l410 -569l61 -89h4v658h49v-740h-49l-414 572l-56 84h-5v-656h-49v740z" />
    <glyph glyph-name="Ndotaccent.sc" horiz-adv-x="680" 
d="M91 577h45l348 -430l52 -70h5v500h47v-577h-45l-351 432l-49 67h-5v-499h-47v577zM340 638q-17 0 -27 8t-10 28q0 35 37 35q17 0 27.5 -8.5t10.5 -26.5q0 -19 -10.5 -27.5t-27.5 -8.5z" />
    <glyph glyph-name="Ntilde" unicode="&#xd1;" horiz-adv-x="765" 
d="M203 863q26 26 54.5 40.5t57.5 14.5q23 0 42.5 -6.5t38 -14.5t37 -14.5t39.5 -6.5q45 0 86 38l25 -24q-23 -26 -54 -41.5t-63 -15.5q-21 0 -40.5 6.5t-38 14.5t-37.5 14.5t-38 6.5q-45 0 -85 -37zM96 740h49l410 -569l61 -89h4v658h49v-740h-49l-414 572l-56 84h-5v-656
h-49v740z" />
    <glyph glyph-name="Ntilde.sc" horiz-adv-x="680" 
d="M182 673q22 24 47.5 36.5t51.5 12.5q20 0 37.5 -5t33.5 -11.5t32 -11.5t34 -5q39 0 77 30l21 -20q-21 -23 -48.5 -36t-55.5 -13q-18 0 -35 5t-34 11t-33.5 11t-32.5 5q-40 0 -75 -29zM91 577h45l348 -430l52 -70h5v500h47v-577h-45l-351 432l-49 67h-5v-499h-47v577z" />
    <glyph glyph-name="O" unicode="O" horiz-adv-x="726" 
d="M363 -10q-147 0 -226.5 95.5t-79.5 283.5t79.5 284.5t226.5 96.5t226.5 -96.5t79.5 -284.5q0 -187 -80 -283t-226 -96zM363 37q125 0 189.5 84.5t64.5 247.5q0 165 -64.5 249.5t-189.5 84.5t-189.5 -84.5t-64.5 -249.5q0 -164 64.5 -248t189.5 -84z" />
    <glyph glyph-name="O.sc" horiz-adv-x="648" 
d="M324 -8q-128 0 -198 75t-70 221t70 221.5t198 75.5t197.5 -75.5t69.5 -221.5t-69.5 -221t-197.5 -75zM324 36q106 0 161.5 64t55.5 188q0 125 -55.5 189t-161.5 64q-107 0 -162 -64t-55 -189t55 -188.5t162 -63.5z" />
    <glyph glyph-name="OE" unicode="&#x152;" horiz-adv-x="936" 
d="M366 -8q-149 0 -229.5 95.5t-80.5 281.5q0 187 81 283t229 96q27 0 51 -1.5t47 -6.5h408v-47h-358v-293h336v-46h-336v-307h367v-47h-417q-21 -4 -46.5 -6t-51.5 -2zM367 39q26 0 50.5 2t45.5 8v642q-22 6 -46 8t-50 2q-128 0 -193.5 -83.5t-65.5 -248.5
q0 -163 66 -246.5t193 -83.5z" />
    <glyph glyph-name="OE.sc" horiz-adv-x="834" 
d="M327 -7q-129 0 -199.5 74.5t-70.5 220.5t70.5 221t199.5 75q48 0 86 -7h360v-43h-311v-219h292v-42h-292v-230h317v-43h-366q-19 -3 -41 -5t-45 -2zM328 38q23 0 44 1.5t40 6.5v485q-19 5 -40 6.5t-44 1.5q-109 0 -165 -63t-56 -188t56 -187.5t165 -62.5z" />
    <glyph glyph-name="Oacute" unicode="&#xd3;" horiz-adv-x="726" 
d="M336 805l77 127h55l-89 -133zM363 -10q-147 0 -226.5 95.5t-79.5 283.5t79.5 284.5t226.5 96.5t226.5 -96.5t79.5 -284.5q0 -187 -80 -283t-226 -96zM363 37q125 0 189.5 84.5t64.5 247.5q0 165 -64.5 249.5t-189.5 84.5t-189.5 -84.5t-64.5 -249.5q0 -164 64.5 -248
t189.5 -84z" />
    <glyph glyph-name="Oacute.sc" horiz-adv-x="648" 
d="M324 -8q-128 0 -197.5 75t-69.5 221t69.5 221.5t197.5 75.5t197.5 -75.5t69.5 -221.5t-69.5 -221t-197.5 -75zM324 36q106 0 161.5 64t55.5 188q0 125 -55.5 189t-161.5 64q-107 0 -162 -64t-55 -189t55 -188.5t162 -63.5zM298 629l66 103h53l-77 -107z" />
    <glyph glyph-name="Obreve" unicode="&#x14e;" horiz-adv-x="726" 
d="M362 815q-79 0 -121.5 37t-42.5 100h44q0 -45 31.5 -71t88.5 -26q58 0 89.5 26t31.5 71h45q0 -63 -43.5 -100t-122.5 -37zM363 -10q-147 0 -226.5 95.5t-79.5 283.5t79.5 284.5t226.5 96.5t226.5 -96.5t79.5 -284.5q0 -187 -80 -283t-226 -96zM363 37q125 0 189.5 84.5
t64.5 247.5q0 165 -64.5 249.5t-189.5 84.5t-189.5 -84.5t-64.5 -249.5q0 -164 64.5 -248t189.5 -84z" />
    <glyph glyph-name="Obreve.sc" horiz-adv-x="648" 
d="M324 -8q-128 0 -197.5 75t-69.5 221t69.5 221.5t197.5 75.5t197.5 -75.5t69.5 -221.5t-69.5 -221t-197.5 -75zM324 36q106 0 161.5 64t55.5 188q0 125 -55.5 189t-161.5 64q-107 0 -162 -64t-55 -189t55 -188.5t162 -63.5zM324 635q-69 0 -107 29.5t-38 81.5h41
q0 -36 27 -56t77 -20q49 0 76 20t27 56h41q0 -52 -37.5 -81.5t-106.5 -29.5z" />
    <glyph glyph-name="Ocircumflex" unicode="&#xd4;" horiz-adv-x="726" 
d="M363 -10q-147 0 -226.5 95.5t-79.5 283.5t79.5 284.5t226.5 96.5t226.5 -96.5t79.5 -284.5q0 -187 -80 -283t-226 -96zM363 37q125 0 189.5 84.5t64.5 247.5q0 165 -64.5 249.5t-189.5 84.5t-189.5 -84.5t-64.5 -249.5q0 -164 64.5 -248t189.5 -84zM212 867l151 73
l150 -73v-50l-150 72l-151 -72v50z" />
    <glyph glyph-name="Ocircumflex.sc" horiz-adv-x="648" 
d="M324 -8q-128 0 -197.5 75t-69.5 221t69.5 221.5t197.5 75.5t197.5 -75.5t69.5 -221.5t-69.5 -221t-197.5 -75zM324 36q106 0 161.5 64t55.5 188q0 125 -55.5 189t-161.5 64q-107 0 -162 -64t-55 -189t55 -188.5t162 -63.5zM192 680l131 58l133 -58v-44l-132 56l-132 -56
v44z" />
    <glyph glyph-name="Odblgrave" unicode="&#x20c;" horiz-adv-x="726" 
d="M363 -10q-147 0 -226.5 95.5t-79.5 283.5t79.5 284.5t226.5 96.5t226.5 -96.5t79.5 -284.5q0 -187 -80 -283t-226 -96zM363 37q125 0 189.5 84.5t64.5 247.5q0 165 -64.5 249.5t-189.5 84.5t-189.5 -84.5t-64.5 -249.5q0 -164 64.5 -248t189.5 -84zM275 793l-89 132h53
l78 -119zM412 793l-89 132h54l77 -119z" />
    <glyph glyph-name="Odblgrave.sc" horiz-adv-x="648" 
d="M324 -8q-128 0 -197.5 75t-69.5 221t69.5 221.5t197.5 75.5t197.5 -75.5t69.5 -221.5t-69.5 -221t-197.5 -75zM324 36q106 0 161.5 64t55.5 188q0 125 -55.5 189t-161.5 64q-107 0 -162 -64t-55 -189t55 -188.5t162 -63.5zM244 619l-78 108h53l65 -97zM365 619l-78 108
h53l65 -97z" />
    <glyph glyph-name="Odieresis" unicode="&#xd6;" horiz-adv-x="726" 
d="M238 826q-18 0 -28.5 9.5t-10.5 29.5q0 21 10.5 30.5t28.5 9.5q17 0 29 -9.5t12 -30.5t-12 -30t-29 -9zM486 826q-40 0 -40 39q0 40 40 40q17 0 28.5 -9.5t11.5 -30.5t-11.5 -30t-28.5 -9zM363 -10q-147 0 -226.5 95.5t-79.5 283.5t79.5 284.5t226.5 96.5t226.5 -96.5
t79.5 -284.5q0 -187 -80 -283t-226 -96zM363 37q125 0 189.5 84.5t64.5 247.5q0 165 -64.5 249.5t-189.5 84.5t-189.5 -84.5t-64.5 -249.5q0 -164 64.5 -248t189.5 -84z" />
    <glyph glyph-name="Odieresis.sc" horiz-adv-x="648" 
d="M324 -8q-128 0 -197.5 75t-69.5 221t69.5 221.5t197.5 75.5t197.5 -75.5t69.5 -221.5t-69.5 -221t-197.5 -75zM324 36q106 0 161.5 64t55.5 188q0 125 -55.5 189t-161.5 64q-107 0 -162 -64t-55 -189t55 -188.5t162 -63.5zM214 643q-37 0 -37 36q0 35 37 35q17 0 27.5 -8
t10.5 -27q0 -20 -10.5 -28t-27.5 -8zM431 643q-36 0 -36 36q0 35 36 35q17 0 27.5 -8t10.5 -27q0 -20 -10.5 -28t-27.5 -8z" />
    <glyph glyph-name="Odotbelow" unicode="&#x1ecc;" horiz-adv-x="726" 
d="M363 -172q-19 0 -30 9t-11 32q0 22 11 31.5t30 9.5t30.5 -9t11.5 -32t-11.5 -32t-30.5 -9zM363 -10q-147 0 -226.5 95.5t-79.5 283.5t79.5 284.5t226.5 96.5t226.5 -96.5t79.5 -284.5q0 -187 -80 -283t-226 -96zM363 37q125 0 189.5 84.5t64.5 247.5q0 165 -64.5 249.5
t-189.5 84.5t-189.5 -84.5t-64.5 -249.5q0 -164 64.5 -248t189.5 -84z" />
    <glyph glyph-name="Odotbelow.sc" horiz-adv-x="648" 
d="M324 -8q-128 0 -198 75t-70 221t70 221.5t198 75.5t197.5 -75.5t69.5 -221.5t-69.5 -221t-197.5 -75zM324 36q106 0 161.5 64t55.5 188q0 125 -55.5 189t-161.5 64t-161.5 -63.5t-55.5 -189.5q0 -125 55.5 -188.5t161.5 -63.5zM325 -138q-37 0 -37 35t37 35q17 0 27 -8
t10 -27t-10 -27t-27 -8z" />
    <glyph glyph-name="Ograve" unicode="&#xd2;" horiz-adv-x="726" 
d="M342 799l-89 133h55l78 -119zM363 -10q-147 0 -226.5 95.5t-79.5 283.5t79.5 284.5t226.5 96.5t226.5 -96.5t79.5 -284.5q0 -187 -80 -283t-226 -96zM363 37q125 0 189.5 84.5t64.5 247.5q0 165 -64.5 249.5t-189.5 84.5t-189.5 -84.5t-64.5 -249.5q0 -164 64.5 -248
t189.5 -84z" />
    <glyph glyph-name="Ograve.sc" horiz-adv-x="648" 
d="M324 -8q-128 0 -198 75t-70 221t70 221.5t198 75.5t197.5 -75.5t69.5 -221.5t-69.5 -221t-197.5 -75zM324 36q106 0 161.5 64t55.5 188q0 125 -55.5 189t-161.5 64t-161.5 -63.5t-55.5 -189.5q0 -125 55.5 -188.5t161.5 -63.5zM303 625l-77 107h53l66 -97z" />
    <glyph glyph-name="Ohungarumlaut" unicode="&#x150;" horiz-adv-x="726" 
d="M363 -10q-147 0 -226.5 95.5t-79.5 283.5t79.5 284.5t226.5 96.5t226.5 -96.5t79.5 -284.5q0 -187 -80 -283t-226 -96zM363 37q125 0 189.5 84.5t64.5 247.5q0 165 -64.5 249.5t-189.5 84.5t-189.5 -84.5t-64.5 -249.5q0 -164 64.5 -248t189.5 -84zM264 806l77 119h54
l-89 -132zM401 806l77 119h54l-89 -132z" />
    <glyph glyph-name="hungarumlaut.cap" horiz-adv-x="521" 
d="M159 806l77 119h54l-89 -132zM296 806l77 119h54l-89 -132z" />
    <glyph glyph-name="Ohungarumlaut.sc" horiz-adv-x="648" 
d="M324 -8q-128 0 -198 75t-70 221t70 221.5t198 75.5t197.5 -75.5t69.5 -221.5t-69.5 -221t-197.5 -75zM324 36q106 0 161.5 64t55.5 188q0 125 -55.5 189t-161.5 64t-161.5 -63.5t-55.5 -189.5q0 -125 55.5 -188.5t161.5 -63.5zM235 630l66 97h52l-79 -108zM356 630l66 97
h51l-77 -108z" />
    <glyph glyph-name="Oinvertedbreve" unicode="&#x20e;" horiz-adv-x="726" 
d="M363 -10q-147 0 -226.5 95.5t-79.5 283.5t79.5 284.5t226.5 96.5t226.5 -96.5t79.5 -284.5q0 -187 -80 -283t-226 -96zM363 37q125 0 189.5 84.5t64.5 247.5q0 165 -64.5 249.5t-189.5 84.5t-189.5 -84.5t-64.5 -249.5q0 -164 64.5 -248t189.5 -84zM483 818
q0 46 -31.5 72t-89.5 26q-57 0 -89 -26t-32 -72h-44q0 64 43 101t122 37t122 -37t43 -101h-44z" />
    <glyph glyph-name="Oinvertedbreve.sc" horiz-adv-x="648" 
d="M324 -8q-128 0 -198 75t-70 221t70 221.5t198 75.5t197.5 -75.5t69.5 -221.5t-69.5 -221t-197.5 -75zM324 36q106 0 161.5 64t55.5 188q0 125 -55.5 189t-161.5 64t-161.5 -63.5t-55.5 -189.5q0 -125 55.5 -188.5t161.5 -63.5zM427 638q0 36 -27 55.5t-76 19.5
q-51 0 -77.5 -19.5t-26.5 -55.5h-42q0 51 37.5 81t108.5 30q70 0 107 -30t37 -81h-41z" />
    <glyph glyph-name="Omacron" unicode="&#x14c;" horiz-adv-x="726" 
d="M216 886h290v-44h-290v44zM363 -10q-147 0 -226.5 95.5t-79.5 283.5t79.5 284.5t226.5 96.5t226.5 -96.5t79.5 -284.5q0 -187 -80 -283t-226 -96zM363 37q125 0 189.5 84.5t64.5 247.5q0 165 -64.5 249.5t-189.5 84.5t-189.5 -84.5t-64.5 -249.5q0 -164 64.5 -248
t189.5 -84z" />
    <glyph glyph-name="Omacron.sc" horiz-adv-x="648" 
d="M324 -8q-128 0 -198 75t-70 221t70 221.5t198 75.5t197.5 -75.5t69.5 -221.5t-69.5 -221t-197.5 -75zM324 36q106 0 161.5 64t55.5 188q0 125 -55.5 189t-161.5 64t-161.5 -63.5t-55.5 -189.5q0 -125 55.5 -188.5t161.5 -63.5zM194 697h257v-40h-257v40z" />
    <glyph glyph-name="Omega" unicode="&#x2126;" horiz-adv-x="772" 
d="M55 46l208 -2q-44 28 -80 64t-62 81t-40.5 98t-14.5 115q0 79 23 143t65 109.5t101 70.5t131 25t131 -25t101 -70.5t65 -109.5t23 -143q0 -62 -14.5 -115t-40.5 -98t-62.5 -81t-79.5 -64l208 2v-46h-273v41q45 27 84 62t67.5 79t44.5 98t16 120q0 68 -19.5 124
t-54.5 95.5t-85 61.5t-111 22t-110.5 -22t-85 -61.5t-54.5 -95.5t-19 -124q0 -88 24 -150t58 -104t70 -66.5t59 -38.5v-41h-273v46z" />
    <glyph glyph-name="Oogonek" unicode="&#x1ea;" horiz-adv-x="726" 
d="M346 -205q-89 0 -89 78q0 34 17.5 61.5t60.5 56.5q-134 9 -206 104t-72 274q0 188 79.5 284.5t226.5 96.5t226.5 -96.5t79.5 -284.5q0 -171 -66.5 -265.5t-189.5 -110.5q-60 -29 -86.5 -57t-26.5 -61q0 -42 52 -42q14 0 30 2.5t32 7.5v-36q-14 -5 -32 -8.5t-36 -3.5z
M363 37q125 0 189.5 84.5t64.5 247.5q0 165 -64.5 249.5t-189.5 84.5t-189.5 -84.5t-64.5 -249.5q0 -164 64.5 -248t189.5 -84z" />
    <glyph glyph-name="Oogonek.sc" horiz-adv-x="648" 
d="M310 -161q-79 0 -79 62q0 26 15 47t53 45q-117 7 -179.5 81t-62.5 214q0 146 69.5 221.5t197.5 75.5t197.5 -75.5t69.5 -221.5q0 -75 -18 -128t-48 -88.5t-70 -53.5t-84 -22q-48 -20 -73.5 -42t-25.5 -50q0 -18 11.5 -25t31.5 -7q14 0 28 2.5t28 6.5v-33q-12 -5 -28 -7
t-33 -2zM324 36q106 0 161.5 64t55.5 188q0 125 -55.5 189t-161.5 64t-161.5 -63.5t-55.5 -189.5q0 -125 55.5 -188.5t161.5 -63.5z" />
    <glyph glyph-name="Oslash" unicode="&#xd8;" horiz-adv-x="729" 
d="M127 101q-68 95 -68 268q0 188 79.5 284.5t226.5 96.5q130 0 208 -78l53 68h53l-79 -100q35 -48 53 -115.5t18 -155.5q0 -187 -80 -283t-226 -96q-135 0 -211 79l-54 -69h-52zM365 37q124 0 189 84.5t65 247.5q0 144 -52 228l-382 -488q64 -72 180 -72zM110 369
q0 -142 50 -225l381 488q-63 71 -176 71q-125 0 -190 -84.5t-65 -249.5z" />
    <glyph glyph-name="Oslash.sc" horiz-adv-x="650" 
d="M118 79q-60 75 -60 209q0 146 69.5 221.5t198.5 75.5q111 0 179 -60l45 52h49l-68 -78q30 -38 46 -90.5t16 -120.5q0 -146 -69.5 -221t-197.5 -75q-115 0 -182 61l-46 -53h-49zM326 36q106 0 161 64t55 188q0 108 -46 172l-319 -370q56 -54 149 -54zM109 288
q0 -108 44 -170l319 370q-55 53 -146 53q-106 0 -161.5 -63.5t-55.5 -189.5z" />
    <glyph glyph-name="Oslashacute" unicode="&#x1fe;" horiz-adv-x="729" 
d="M127 101q-68 95 -68 268q0 188 79.5 284.5t226.5 96.5q130 0 208 -78l53 68h53l-79 -100q35 -48 53 -115.5t18 -155.5q0 -187 -80 -283t-226 -96q-135 0 -211 79l-54 -69h-52zM365 37q124 0 189 84.5t65 247.5q0 144 -52 228l-382 -488q64 -72 180 -72zM110 369
q0 -142 50 -225l381 488q-63 71 -176 71q-125 0 -190 -84.5t-65 -249.5zM335 805l77 127h55l-89 -133z" />
    <glyph glyph-name="Oslashacute.sc" horiz-adv-x="650" 
d="M118 79q-60 75 -60 209q0 146 69.5 221.5t198.5 75.5q111 0 179 -60l45 52h49l-68 -78q30 -38 46 -90.5t16 -120.5q0 -146 -69.5 -221t-197.5 -75q-115 0 -182 61l-46 -53h-49zM326 36q106 0 161 64t55 188q0 108 -46 172l-319 -370q56 -54 149 -54zM298 629l66 103h53
l-77 -107zM109 288q0 -108 44 -170l319 370q-55 53 -146 53q-106 0 -161.5 -63.5t-55.5 -189.5z" />
    <glyph glyph-name="Otilde" unicode="&#xd5;" horiz-adv-x="726" 
d="M183 863q26 26 54.5 40.5t57.5 14.5q23 0 42.5 -6.5t38 -14.5t37 -14.5t39.5 -6.5q45 0 86 38l25 -24q-23 -26 -54 -41.5t-63 -15.5q-21 0 -40.5 6.5t-38 14.5t-37.5 14.5t-38 6.5q-45 0 -85 -37zM363 -10q-147 0 -226.5 95.5t-79.5 283.5t79.5 284.5t226.5 96.5
t226.5 -96.5t79.5 -284.5q0 -187 -80 -283t-226 -96zM363 37q125 0 189.5 84.5t64.5 247.5q0 165 -64.5 249.5t-189.5 84.5t-189.5 -84.5t-64.5 -249.5q0 -164 64.5 -248t189.5 -84z" />
    <glyph glyph-name="Otilde.sc" horiz-adv-x="648" 
d="M324 -8q-128 0 -198 75t-70 221t70 221.5t198 75.5t197.5 -75.5t69.5 -221.5t-69.5 -221t-197.5 -75zM324 36q106 0 161.5 64t55.5 188q0 125 -55.5 189t-161.5 64t-161.5 -63.5t-55.5 -189.5q0 -125 55.5 -188.5t161.5 -63.5zM165 673q47 49 100 49q20 0 37 -5t33 -11.5
t32.5 -11.5t34.5 -5q40 0 76 30l21 -20q-20 -23 -47.5 -36t-56.5 -13q-18 0 -35 5t-33.5 11t-33 11t-33.5 5q-18 0 -37 -7t-37 -22z" />
    <glyph glyph-name="P" unicode="P" horiz-adv-x="621" 
d="M96 735q90 15 169 15q164 0 240 -60.5t76 -190.5q0 -132 -74.5 -192t-237.5 -60q-26 0 -55 1.5t-66 6.5v-255h-52v735zM275 294q68 0 116.5 11.5t79 36t44.5 63.5t14 94q0 108 -61.5 156.5t-197.5 48.5q-30 0 -63.5 -2.5t-58.5 -7.5v-390q9 -2 23.5 -3.5t32 -3t36 -2.5
t35.5 -1z" />
    <glyph glyph-name="P.sc" horiz-adv-x="558" 
d="M90 573q78 12 148 12q145 0 211 -47t66 -150t-65 -150.5t-207 -47.5q-41 0 -102 6v-196h-51v573zM249 233q117 0 166.5 36t49.5 119q0 81 -52 117.5t-168 36.5q-26 0 -54.5 -2t-49.5 -6v-293q7 -2 19.5 -3t27.5 -2.5t31 -2t30 -0.5z" />
    <glyph glyph-name="Q" unicode="Q" horiz-adv-x="723" 
d="M648 -102q-168 23 -281.5 56.5t-183 87.5t-99.5 133.5t-30 193.5q0 185 79 283t228 98q148 0 227 -98t79 -283q0 -180 -79 -275t-227 -94v-5q76 -20 145.5 -30.5t150.5 -16.5zM361 37q124 0 189 85t65 247q0 164 -65 249t-189 85q-125 0 -190 -84.5t-65 -249.5
q0 -163 65 -247.5t190 -84.5z" />
    <glyph glyph-name="Q.sc" horiz-adv-x="646" 
d="M572 -84q-146 19 -245 46.5t-159.5 70.5t-86.5 104.5t-26 150.5q0 144 69 220.5t199 76.5t198.5 -77t68.5 -220q0 -139 -67.5 -211.5t-196.5 -73.5v-4q35 -8 66.5 -14t62 -10.5t61.5 -7.5t65 -5zM323 36q106 0 161.5 64.5t55.5 187.5q0 125 -55.5 189t-161.5 64
t-161.5 -64t-55.5 -189q0 -124 55.5 -188t161.5 -64z" />
    <glyph glyph-name="R" unicode="R" horiz-adv-x="641" 
d="M362 290q-21 -3 -44 -4t-49 -1t-56.5 1.5t-64.5 5.5v-292h-52v735q88 15 169 15q165 0 240.5 -55.5t75.5 -177.5q0 -91 -40.5 -144t-127.5 -74l188 -299h-58zM275 330q68 0 116.5 10.5t79 33t44.5 58t14 85.5q0 99 -61 143t-198 44q-29 0 -62.5 -2.5t-59.5 -7.5v-354
q17 -4 53.5 -7t73.5 -3z" />
    <glyph glyph-name="R.sc" horiz-adv-x="573" 
d="M324 223q-17 -3 -37 -4t-42 -1q-23 0 -48.5 2t-55.5 5v-225h-51v573q78 12 148 12q145 0 211 -43.5t66 -139.5q0 -70 -34 -112t-107 -59l160 -231h-57zM248 261q59 0 100 8t67 24.5t38 43t12 64.5q0 75 -52 108t-168 33q-26 0 -54.5 -2t-49.5 -5v-266q13 -4 45 -6t62 -2z
" />
    <glyph glyph-name="Racute" unicode="&#x154;" horiz-adv-x="641" 
d="M362 290q-21 -3 -44 -4t-49 -1t-56.5 1.5t-64.5 5.5v-292h-52v735q88 15 169 15q165 0 240.5 -55.5t75.5 -177.5q0 -91 -40.5 -144t-127.5 -74l188 -299h-58zM275 330q68 0 116.5 10.5t79 33t44.5 58t14 85.5q0 99 -61 143t-198 44q-29 0 -62.5 -2.5t-59.5 -7.5v-354
q17 -4 53.5 -7t73.5 -3zM295 805l77 127h55l-89 -133z" />
    <glyph glyph-name="Racute.sc" horiz-adv-x="573" 
d="M90 573q78 12 148 12q145 0 211 -43.5t66 -139.5q0 -70 -34 -112t-107 -59l160 -231h-57l-153 223q-17 -3 -37 -4t-42 -1q-23 0 -48.5 2t-55.5 5v-225h-51v573zM248 261q59 0 100 8t67 24.5t38 43t12 64.5q0 75 -52 108t-168 33q-26 0 -54.5 -2t-49.5 -5v-266
q14 -4 45 -6t62 -2zM262 629l66 103h53l-77 -107z" />
    <glyph glyph-name="Rcaron" unicode="&#x158;" horiz-adv-x="641" 
d="M173 935l151 -72l150 72v-50l-151 -73l-150 73v50zM362 290q-21 -3 -44 -4t-49 -1t-56.5 1.5t-64.5 5.5v-292h-52v735q88 15 169 15q165 0 240.5 -55.5t75.5 -177.5q0 -91 -40.5 -144t-127.5 -74l188 -299h-58zM275 330q68 0 116.5 10.5t79 33t44.5 58t14 85.5
q0 99 -61 143t-198 44q-29 0 -62.5 -2.5t-59.5 -7.5v-354q17 -4 53.5 -7t73.5 -3z" />
    <glyph glyph-name="Rcaron.sc" horiz-adv-x="573" 
d="M90 573q78 12 148 12q145 0 211 -43.5t66 -139.5q0 -70 -34 -112t-107 -59l160 -231h-57l-153 223q-17 -3 -37 -4t-42 -1q-23 0 -48.5 2t-55.5 5v-225h-51v573zM248 261q59 0 100 8t67 24.5t38 43t12 64.5q0 75 -52 108t-168 33q-26 0 -54.5 -2t-49.5 -5v-266
q14 -4 45 -6t62 -2zM157 690v45l132 -57l133 57v-45l-133 -57z" />
    <glyph glyph-name="Rcommaaccent" unicode="&#x156;" horiz-adv-x="641" 
d="M313 -69h54l-58 -151h-47zM362 290q-21 -3 -44 -4t-49 -1t-56.5 1.5t-64.5 5.5v-292h-52v735q88 15 169 15q165 0 240.5 -55.5t75.5 -177.5q0 -91 -40.5 -144t-127.5 -74l188 -299h-58zM275 330q68 0 116.5 10.5t79 33t44.5 58t14 85.5q0 99 -61 143t-198 44
q-29 0 -62.5 -2.5t-59.5 -7.5v-354q17 -4 53.5 -7t73.5 -3z" />
    <glyph glyph-name="Rcommaaccent.sc" horiz-adv-x="573" 
d="M324 223q-17 -3 -37 -4t-42 -1q-23 0 -48.5 2t-55.5 5v-225h-51v573q78 12 148 12q145 0 211 -43.5t66 -139.5q0 -70 -34 -112t-107 -59l160 -231h-57zM277 -54h53l-52 -118h-44zM248 261q59 0 100 8t67 24.5t38 43t12 64.5q0 75 -52 108t-168 33q-26 0 -54.5 -2
t-49.5 -5v-266q13 -4 45 -6t62 -2z" />
    <glyph glyph-name="Rdblgrave" unicode="&#x210;" horiz-adv-x="641" 
d="M362 290q-21 -3 -44 -4t-49 -1t-56.5 1.5t-64.5 5.5v-292h-52v735q88 15 169 15q165 0 240.5 -55.5t75.5 -177.5q0 -91 -40.5 -144t-127.5 -74l188 -299h-58zM275 330q68 0 116.5 10.5t79 33t44.5 58t14 85.5q0 99 -61 143t-198 44q-29 0 -62.5 -2.5t-59.5 -7.5v-354
q17 -4 53.5 -7t73.5 -3zM235 793l-89 132h53l78 -119zM372 793l-89 132h54l77 -119z" />
    <glyph glyph-name="Rdblgrave.sc" horiz-adv-x="573" 
d="M90 573q78 12 148 12q145 0 211 -43.5t66 -139.5q0 -70 -34 -112t-107 -59l160 -231h-57l-153 223q-17 -3 -37 -4t-42 -1q-23 0 -48.5 2t-55.5 5v-225h-51v573zM248 261q59 0 100 8t67 24.5t38 43t12 64.5q0 75 -52 108t-168 33q-26 0 -54.5 -2t-49.5 -5v-266
q14 -4 45 -6t62 -2zM134 727h51l67 -97l-41 -11zM255 727h51l66 -97l-40 -11z" />
    <glyph glyph-name="Rdotbelow" unicode="&#x1e5a;" horiz-adv-x="641" 
d="M362 290q-21 -3 -44 -4t-49 -1t-56.5 1.5t-64.5 5.5v-292h-52v735q88 15 169 15q165 0 240.5 -55.5t75.5 -177.5q0 -91 -40.5 -144t-127.5 -74l188 -299h-58zM275 330q68 0 116.5 10.5t79 33t44.5 58t14 85.5q0 99 -61 143t-198 44q-29 0 -62.5 -2.5t-59.5 -7.5v-354
q17 -4 53.5 -7t73.5 -3zM326 -172q-19 0 -30 9t-11 32q0 22 11 31.5t30 9.5t30.5 -9t11.5 -32t-11.5 -32t-30.5 -9z" />
    <glyph glyph-name="Rdotbelow.sc" horiz-adv-x="573" 
d="M90 573q78 12 148 12q145 0 211 -43.5t66 -139.5q0 -70 -34 -112t-107 -59l160 -231h-57l-153 223q-17 -3 -37 -4t-42 -1q-23 0 -48.5 2t-55.5 5v-225h-51v573zM248 261q59 0 100 8t67 24.5t38 43t12 64.5q0 75 -52 108t-168 33q-26 0 -54.5 -2t-49.5 -5v-266
q14 -4 45 -6t62 -2zM291 -138q-37 0 -37 35t37 35q38 0 38 -35t-38 -35z" />
    <glyph glyph-name="Rinvertedbreve" unicode="&#x212;" horiz-adv-x="641" 
d="M362 290q-21 -3 -44 -4t-49 -1t-56.5 1.5t-64.5 5.5v-292h-52v735q88 15 169 15q165 0 240.5 -55.5t75.5 -177.5q0 -91 -40.5 -144t-127.5 -74l188 -299h-58zM275 330q68 0 116.5 10.5t79 33t44.5 58t14 85.5q0 99 -61 143t-198 44q-29 0 -62.5 -2.5t-59.5 -7.5v-354
q17 -4 53.5 -7t73.5 -3zM443 818q0 46 -31.5 72t-89.5 26q-57 0 -89 -26t-32 -72h-44q0 64 43 101t122 37t122 -37t43 -101h-44z" />
    <glyph glyph-name="Rinvertedbreve.sc" horiz-adv-x="573" 
d="M90 573q78 12 148 12q145 0 211 -43.5t66 -139.5q0 -70 -34 -112t-107 -59l160 -231h-57l-153 223q-17 -3 -37 -4t-42 -1q-23 0 -48.5 2t-55.5 5v-225h-51v573zM143 638q0 51 37.5 81t108.5 30q70 0 107.5 -30t37.5 -81h-42q0 36 -26.5 55.5t-76.5 19.5
q-51 0 -77.5 -19.5t-26.5 -55.5h-42zM248 261q59 0 100 8t67 24.5t38 43t12 64.5q0 75 -52 108t-168 33q-26 0 -54.5 -2t-49.5 -5v-266q14 -4 45 -6t62 -2z" />
    <glyph glyph-name="S" unicode="S" horiz-adv-x="555" 
d="M263 -11q-46 0 -105 8.5t-113 22.5l2 47q53 -14 112 -22.5t105 -8.5q93 0 144 38t51 108q0 39 -14.5 66.5t-40 46.5t-60 32t-73.5 25q-58 17 -98 36.5t-65 44t-36.5 55.5t-11.5 72q0 44 17 80.5t48 62t74.5 39.5t97.5 14q78 0 181 -23l-2 -48q-47 12 -93 18t-84 6
q-85 0 -135.5 -40.5t-50.5 -108.5q0 -30 9 -53.5t30 -43t55.5 -35.5t85.5 -31q46 -14 86 -30t69.5 -39.5t46.5 -58t17 -85.5q0 -94 -64.5 -144.5t-184.5 -50.5z" />
    <glyph glyph-name="S.sc" horiz-adv-x="500" 
d="M238 -9q-41 0 -92 7t-99 18l2 44q47 -11 98 -18t89 -7q81 0 125 28.5t44 81.5q0 30 -12.5 50t-34.5 33.5t-51 23.5t-62 19q-51 13 -86.5 28t-57 34t-31.5 44t-10 57q0 35 15 63.5t42 49t65 31.5t85 11q70 0 159 -18l-1 -45q-41 10 -81.5 15t-73.5 5q-73 0 -116 -30
t-43 -81q0 -23 8 -41t26.5 -32t48 -26t72.5 -23q39 -11 74 -23t60.5 -30.5t40.5 -46t15 -67.5q0 -75 -56 -115t-162 -40z" />
    <glyph glyph-name="Sacute" unicode="&#x15a;" horiz-adv-x="555" 
d="M263 -11q-46 0 -105 8.5t-113 22.5l2 47q53 -14 112 -22.5t105 -8.5q93 0 144 38t51 108q0 39 -14.5 66.5t-40 46.5t-60 32t-73.5 25q-58 17 -98 36.5t-65 44t-36.5 55.5t-11.5 72q0 44 17 80.5t48 62t74.5 39.5t97.5 14q78 0 181 -23l-2 -48q-47 12 -93 18t-84 6
q-85 0 -135.5 -40.5t-50.5 -108.5q0 -30 9 -53.5t30 -43t55.5 -35.5t85.5 -31q46 -14 86 -30t69.5 -39.5t46.5 -58t17 -85.5q0 -94 -64.5 -144.5t-184.5 -50.5zM257 805l77 127h55l-89 -133z" />
    <glyph glyph-name="Sacute.sc" horiz-adv-x="500" 
d="M238 -9q-41 0 -92 7t-99 18l2 44q47 -11 98 -18t89 -7q81 0 125 28.5t44 81.5q0 30 -12.5 50t-34.5 33.5t-51 23.5t-62 19q-51 13 -86.5 28t-57 34t-31.5 44t-10 57q0 35 15 63.5t42 49t65 31.5t85 11q70 0 159 -18l-1 -45q-41 10 -81.5 15t-73.5 5q-73 0 -116 -30
t-43 -81q0 -23 8 -41t26.5 -32t48 -26t72.5 -23q39 -11 74 -23t60.5 -30.5t40.5 -46t15 -67.5q0 -75 -56 -115t-162 -40zM230 629l66 103h53l-78 -107z" />
    <glyph glyph-name="Scaron" unicode="&#x160;" horiz-adv-x="555" 
d="M263 -11q-46 0 -105 8.5t-113 22.5l2 47q53 -14 112 -22.5t105 -8.5q93 0 144 38t51 108q0 39 -14.5 66.5t-40 46.5t-60 32t-73.5 25q-58 17 -98 36.5t-65 44t-36.5 55.5t-11.5 72q0 44 17 80.5t48 62t74.5 39.5t97.5 14q78 0 181 -23l-2 -48q-47 12 -93 18t-84 6
q-85 0 -135.5 -40.5t-50.5 -108.5q0 -30 9 -53.5t30 -43t55.5 -35.5t85.5 -31q46 -14 86 -30t69.5 -39.5t46.5 -58t17 -85.5q0 -94 -64.5 -144.5t-184.5 -50.5zM136 935l151 -72l150 72v-50l-151 -73l-150 73v50z" />
    <glyph glyph-name="Scaron.sc" horiz-adv-x="500" 
d="M238 -9q-41 0 -92 7t-99 18l2 44q47 -11 98 -18t89 -7q81 0 125 28.5t44 81.5q0 30 -12.5 50t-34.5 33.5t-51 23.5t-62 19q-51 13 -86.5 28t-57 34t-31.5 44t-10 57q0 35 15 63.5t42 49t65 31.5t85 11q70 0 159 -18l-1 -45q-41 10 -81.5 15t-73.5 5q-73 0 -116 -30
t-43 -81q0 -23 8 -41t26.5 -32t48 -26t72.5 -23q39 -11 74 -23t60.5 -30.5t40.5 -46t15 -67.5q0 -75 -56 -115t-162 -40zM125 735l132 -57l133 57v-45l-133 -57l-132 57v45z" />
    <glyph glyph-name="Schwa" unicode="&#x18f;" horiz-adv-x="665" 
d="M51 323q0 25 1.5 46t3.5 36h500q-5 154 -66.5 226.5t-185.5 72.5q-48 0 -104 -9.5t-117 -29.5q0 1 -1 8t-2 15.5t-1.5 15t-0.5 7.5q20 9 47.5 16.5t57.5 13t61 8.5t59 3q152 0 228.5 -91.5t76.5 -274.5q0 -189 -75 -292.5t-214 -103.5q-63 0 -112.5 22.5t-84 65.5
t-53 105t-18.5 140zM316 37q115 0 176.5 81.5t64.5 241.5h-455q-8 -155 47 -239t167 -84z" />
    <glyph glyph-name="Schwa.sc" horiz-adv-x="593" 
d="M52 252q0 41 5 66h427q-5 115 -56.5 169t-156.5 54q-43 0 -92.5 -8t-100.5 -22l-0.5 7t-1.5 15t-1.5 15l-0.5 7q18 7 41.5 12.5t50 9.5t53.5 6.5t52 2.5q266 0 266 -285q0 -148 -66 -228.5t-187 -80.5q-109 0 -170.5 68.5t-61.5 191.5zM284 36q96 0 147.5 61.5
t53.5 181.5h-383q-7 -115 40.5 -179t141.5 -64z" />
    <glyph glyph-name="Scircumflex" unicode="&#x15c;" horiz-adv-x="555" 
d="M263 -11q-46 0 -105 8.5t-113 22.5l2 47q53 -14 112 -22.5t105 -8.5q93 0 144 38t51 108q0 39 -14.5 66.5t-40 46.5t-60 32t-73.5 25q-58 17 -98 36.5t-65 44t-36.5 55.5t-11.5 72q0 44 17 80.5t48 62t74.5 39.5t97.5 14q78 0 181 -23l-2 -48q-47 12 -93 18t-84 6
q-85 0 -135.5 -40.5t-50.5 -108.5q0 -30 9 -53.5t30 -43t55.5 -35.5t85.5 -31q46 -14 86 -30t69.5 -39.5t46.5 -58t17 -85.5q0 -94 -64.5 -144.5t-184.5 -50.5zM135 867l151 73l150 -73v-50l-150 72l-151 -72v50z" />
    <glyph glyph-name="Scircumflex.sc" horiz-adv-x="500" 
d="M238 -9q-41 0 -92 7t-99 18l2 44q47 -11 98 -18t89 -7q81 0 125 28.5t44 81.5q0 30 -12.5 50t-34.5 33.5t-51 23.5t-62 19q-51 13 -86.5 28t-57 34t-31.5 44t-10 57q0 35 15 63.5t42 49t65 31.5t85 11q70 0 159 -18l-1 -45q-41 10 -81.5 15t-73.5 5q-73 0 -116 -30
t-43 -81q0 -23 8 -41t26.5 -32t48 -26t72.5 -23q39 -11 74 -23t60.5 -30.5t40.5 -46t15 -67.5q0 -75 -56 -115t-162 -40zM125 680l132 58l132 -58v-44l-132 56l-132 -56v44z" />
    <glyph glyph-name="Sdotbelow" unicode="&#x1e62;" horiz-adv-x="555" 
d="M263 -11q-46 0 -105 8.5t-113 22.5l2 47q53 -14 112 -22.5t105 -8.5q93 0 144 38t51 108q0 39 -14.5 66.5t-40 46.5t-60 32t-73.5 25q-58 17 -98 36.5t-65 44t-36.5 55.5t-11.5 72q0 44 17 80.5t48 62t74.5 39.5t97.5 14q78 0 181 -23l-2 -48q-47 12 -93 18t-84 6
q-85 0 -135.5 -40.5t-50.5 -108.5q0 -30 9 -53.5t30 -43t55.5 -35.5t85.5 -31q46 -14 86 -30t69.5 -39.5t46.5 -58t17 -85.5q0 -94 -64.5 -144.5t-184.5 -50.5zM264 -172q-19 0 -30 9t-11 32q0 22 11 31.5t30 9.5t30.5 -9t11.5 -32t-11.5 -32t-30.5 -9z" />
    <glyph glyph-name="Sdotbelow.sc" horiz-adv-x="500" 
d="M238 -9q-41 0 -92 7t-99 18l2 44q47 -11 98 -18t89 -7q81 0 125 28.5t44 81.5q0 30 -12.5 50t-34.5 33.5t-51 23.5t-62 19q-51 13 -86.5 28t-57 34t-31.5 44t-10 57q0 35 15 63.5t42 49t65 31.5t85 11q70 0 159 -18l-1 -45q-41 10 -81.5 15t-73.5 5q-73 0 -116 -30
t-43 -81q0 -23 8 -41t26.5 -32t48 -26t72.5 -23q39 -11 74 -23t60.5 -30.5t40.5 -46t15 -67.5q0 -75 -56 -115t-162 -40zM239 -138q-37 0 -37 35t37 35t37 -35t-37 -35z" />
    <glyph glyph-name="T" unicode="T" horiz-adv-x="581" 
d="M265 693h-249v47h549v-47h-249v-693h-51v693z" />
    <glyph glyph-name="Tbar" unicode="&#x166;" horiz-adv-x="591" 
d="M137 407h132v286h-249v47h549v-47h-249v-286h140v-41h-140v-366h-51v366h-132v41z" />
    <glyph glyph-name="Tbar.sc" horiz-adv-x="528" 
d="M125 319h114v214h-215v44h479v-44h-214v-214h120v-37h-120v-282h-50v282h-114v37z" />
    <glyph glyph-name="Tcaron" unicode="&#x164;" horiz-adv-x="581" 
d="M142 935l151 -72l150 72v-50l-151 -73l-150 73v50zM265 693h-249v47h549v-47h-249v-693h-51v693z" />
    <glyph glyph-name="Tcaron.sc" horiz-adv-x="519" 
d="M235 533h-215v44h479v-44h-214v-533h-50v533zM128 735l133 -57l133 57v-45l-133 -57l-133 57v45z" />
    <glyph glyph-name="Tdotbelow" unicode="&#x1e6c;" horiz-adv-x="581" 
d="M291 -172q-19 0 -30 9t-11 32q0 22 11 31.5t30 9.5t30.5 -9t11.5 -32t-11.5 -32t-30.5 -9zM265 693h-249v47h549v-47h-249v-693h-51v693z" />
    <glyph glyph-name="Tdotbelow.sc" horiz-adv-x="519" 
d="M235 533h-215v44h479v-44h-214v-533h-50v533zM261 -138q-38 0 -38 35t38 35q17 0 27 -8t10 -27t-10 -27t-27 -8z" />
    <glyph glyph-name="Thorn" unicode="&#xde;" horiz-adv-x="625" 
d="M96 741h52v-127q31 4 60 6t58 2q164 0 239.5 -60t75.5 -190q0 -132 -74 -191.5t-238 -59.5q-26 0 -56 2t-65 6v-129h-52v741zM273 169q69 0 118 11t80 35.5t45 63t14 93.5q0 54 -15 92t-46.5 62.5t-81.5 36t-119 11.5q-29 0 -62.5 -2t-57.5 -7v-386q8 -2 22.5 -3.5t32 -3
t36 -2.5t34.5 -1z" />
    <glyph glyph-name="Thorn.sc" horiz-adv-x="562" 
d="M91 578h50v-97q51 6 99 6q144 0 210 -47t66 -150q0 -104 -64.5 -150.5t-207.5 -46.5q-21 0 -46.5 1t-56.5 5v-99h-50v578zM250 136q117 0 166.5 35.5t49.5 118.5q0 81 -52 117t-169 36q-26 0 -54 -2t-50 -5v-292q7 -2 20 -3t28 -2.5t31 -2t30 -0.5z" />
    <glyph glyph-name="U" unicode="U" horiz-adv-x="735" 
d="M368 -10q-72 0 -124.5 17.5t-87 54.5t-51 95t-16.5 140v442h51v-438q0 -72 14.5 -122.5t43 -82t71 -45.5t99.5 -14q56 0 98.5 14t71 45.5t43 82t14.5 122.5v438h52v-442q0 -82 -16.5 -140t-51 -95t-87 -54.5t-124.5 -17.5z" />
    <glyph glyph-name="U.sc" horiz-adv-x="655" 
d="M328 -8q-125 0 -184.5 56t-59.5 185v344h51v-342q0 -109 49 -153.5t144 -44.5q94 0 143.5 44.5t49.5 153.5v342h50v-344q0 -129 -59 -185t-184 -56z" />
    <glyph glyph-name="Uacute" unicode="&#xda;" horiz-adv-x="735" 
d="M336 805l77 127h55l-89 -133zM368 -10q-72 0 -124.5 17.5t-87 54.5t-51 95t-16.5 140v442h51v-438q0 -72 14.5 -122.5t43 -82t71 -45.5t99.5 -14q56 0 98.5 14t71 45.5t43 82t14.5 122.5v438h52v-442q0 -82 -16.5 -140t-51 -95t-87 -54.5t-124.5 -17.5z" />
    <glyph glyph-name="Uacute.sc" horiz-adv-x="655" 
d="M328 -8q-126 0 -185 56.5t-59 184.5v344h51v-342q0 -108 48.5 -153t144.5 -45t144.5 45t48.5 153v342h50v-344q0 -128 -58.5 -184.5t-184.5 -56.5zM298 629l65 103h54l-78 -107z" />
    <glyph glyph-name="Ubreve" unicode="&#x16c;" horiz-adv-x="735" 
d="M365 815q-79 0 -121.5 37t-42.5 100h44q0 -45 31.5 -71t88.5 -26q58 0 89.5 26t31.5 71h45q0 -63 -43.5 -100t-122.5 -37zM368 -10q-72 0 -124.5 17.5t-87 54.5t-51 95t-16.5 140v442h51v-438q0 -72 14.5 -122.5t43 -82t71 -45.5t99.5 -14q56 0 98.5 14t71 45.5t43 82
t14.5 122.5v438h52v-442q0 -82 -16.5 -140t-51 -95t-87 -54.5t-124.5 -17.5z" />
    <glyph glyph-name="Ubreve.sc" horiz-adv-x="655" 
d="M328 -8q-126 0 -185 56.5t-59 184.5v344h51v-342q0 -108 48.5 -153t144.5 -45t144.5 45t48.5 153v342h50v-344q0 -128 -58.5 -184.5t-184.5 -56.5zM326 635q-71 0 -108 30t-37 81h41q0 -36 26.5 -56t77.5 -20q50 0 76.5 20t26.5 56h41q0 -51 -37 -81t-107 -30z" />
    <glyph glyph-name="Ucircumflex" unicode="&#xdb;" horiz-adv-x="735" 
d="M368 -10q-72 0 -124.5 17.5t-87 54.5t-51 95t-16.5 140v442h51v-438q0 -72 14.5 -122.5t43 -82t71 -45.5t99.5 -14q56 0 98.5 14t71 45.5t43 82t14.5 122.5v438h52v-442q0 -82 -16.5 -140t-51 -95t-87 -54.5t-124.5 -17.5zM215 867l151 73l150 -73v-50l-150 72l-151 -72
v50z" />
    <glyph glyph-name="Ucircumflex.sc" horiz-adv-x="655" 
d="M328 -8q-126 0 -185 56.5t-59 184.5v344h51v-342q0 -108 48.5 -153t144.5 -45t144.5 45t48.5 153v342h50v-344q0 -128 -58.5 -184.5t-184.5 -56.5zM193 680l132 58l133 -58v-44l-133 56l-132 -56v44z" />
    <glyph glyph-name="Udblgrave" unicode="&#x214;" horiz-adv-x="735" 
d="M368 -10q-72 0 -124.5 17.5t-87 54.5t-51 95t-16.5 140v442h51v-438q0 -72 14.5 -122.5t43 -82t71 -45.5t99.5 -14q56 0 98.5 14t71 45.5t43 82t14.5 122.5v438h52v-442q0 -82 -16.5 -140t-51 -95t-87 -54.5t-124.5 -17.5zM277 793l-89 132h53l78 -119zM414 793l-89 132
h54l77 -119z" />
    <glyph glyph-name="Udblgrave.sc" horiz-adv-x="655" 
d="M328 -8q-126 0 -185 56.5t-59 184.5v344h51v-342q0 -108 48.5 -153t144.5 -45t144.5 45t48.5 153v342h50v-344q0 -128 -58.5 -184.5t-184.5 -56.5zM246 619l-78 108h53l65 -97zM367 619l-78 108h53l65 -97z" />
    <glyph glyph-name="Udieresis" unicode="&#xdc;" horiz-adv-x="735" 
d="M241 826q-18 0 -28.5 9.5t-10.5 29.5q0 21 10.5 30.5t28.5 9.5q17 0 29 -9.5t12 -30.5t-12 -30t-29 -9zM489 826q-40 0 -40 39q0 40 40 40q17 0 28.5 -9.5t11.5 -30.5t-11.5 -30t-28.5 -9zM368 -10q-72 0 -124.5 17.5t-87 54.5t-51 95t-16.5 140v442h51v-438
q0 -72 14.5 -122.5t43 -82t71 -45.5t99.5 -14q56 0 98.5 14t71 45.5t43 82t14.5 122.5v438h52v-442q0 -82 -16.5 -140t-51 -95t-87 -54.5t-124.5 -17.5z" />
    <glyph glyph-name="Udieresis.sc" horiz-adv-x="655" 
d="M328 -8q-126 0 -185 56.5t-59 184.5v344h51v-342q0 -108 48.5 -153t144.5 -45t144.5 45t48.5 153v342h50v-344q0 -128 -58.5 -184.5t-184.5 -56.5zM217 643q-17 0 -27.5 8.5t-10.5 27.5q0 18 10.5 26.5t27.5 8.5q16 0 26.5 -8.5t10.5 -26.5q0 -19 -10.5 -27.5t-26.5 -8.5
zM434 643q-37 0 -37 36q0 35 37 35q17 0 27.5 -8.5t10.5 -26.5q0 -19 -10.5 -27.5t-27.5 -8.5z" />
    <glyph glyph-name="Udotbelow" unicode="&#x1ee4;" horiz-adv-x="735" 
d="M368 -10q-72 0 -124.5 17.5t-87 54.5t-51 95t-16.5 140v442h51v-438q0 -72 14.5 -122.5t43 -82t71 -45.5t99.5 -14q56 0 98.5 14t71 45.5t43 82t14.5 122.5v438h52v-442q0 -82 -16.5 -140t-51 -95t-87 -54.5t-124.5 -17.5zM364 -172q-19 0 -30 9t-11 32q0 22 11 31.5
t30 9.5t30.5 -9t11.5 -32t-11.5 -32t-30.5 -9z" />
    <glyph glyph-name="Udotbelow.sc" horiz-adv-x="655" 
d="M328 -8q-126 0 -185 56.5t-59 184.5v344h51v-342q0 -108 48.5 -153t144.5 -45t144.5 45t48.5 153v342h50v-344q0 -128 -58.5 -184.5t-184.5 -56.5zM325 -138q-37 0 -37 35t37 35t37 -35t-37 -35z" />
    <glyph glyph-name="Ugrave" unicode="&#xd9;" horiz-adv-x="735" 
d="M345 799l-89 133h55l78 -119zM368 -10q-72 0 -124.5 17.5t-87 54.5t-51 95t-16.5 140v442h51v-438q0 -72 14.5 -122.5t43 -82t71 -45.5t99.5 -14q56 0 98.5 14t71 45.5t43 82t14.5 122.5v438h52v-442q0 -82 -16.5 -140t-51 -95t-87 -54.5t-124.5 -17.5z" />
    <glyph glyph-name="Ugrave.sc" horiz-adv-x="655" 
d="M328 -8q-126 0 -185 56.5t-59 184.5v344h51v-342q0 -108 48.5 -153t144.5 -45t144.5 45t48.5 153v342h50v-344q0 -128 -58.5 -184.5t-184.5 -56.5zM307 625l-78 107h53l65 -97z" />
    <glyph glyph-name="Uhungarumlaut" unicode="&#x170;" horiz-adv-x="735" 
d="M368 -10q-72 0 -124.5 17.5t-87 54.5t-51 95t-16.5 140v442h51v-438q0 -72 14.5 -122.5t43 -82t71 -45.5t99.5 -14q56 0 98.5 14t71 45.5t43 82t14.5 122.5v438h52v-442q0 -82 -16.5 -140t-51 -95t-87 -54.5t-124.5 -17.5zM267 806l77 119h54l-89 -132zM404 806l77 119
h54l-89 -132z" />
    <glyph glyph-name="Uhungarumlaut.sc" horiz-adv-x="655" 
d="M328 -8q-126 0 -185 56.5t-59 184.5v344h51v-342q0 -108 48.5 -153t144.5 -45t144.5 45t48.5 153v342h50v-344q0 -128 -58.5 -184.5t-184.5 -56.5zM238 630l66 97h52l-78 -108zM360 630l65 97h52l-78 -108z" />
    <glyph glyph-name="Uinvertedbreve" unicode="&#x216;" horiz-adv-x="735" 
d="M368 -10q-72 0 -124.5 17.5t-87 54.5t-51 95t-16.5 140v442h51v-438q0 -72 14.5 -122.5t43 -82t71 -45.5t99.5 -14q56 0 98.5 14t71 45.5t43 82t14.5 122.5v438h52v-442q0 -82 -16.5 -140t-51 -95t-87 -54.5t-124.5 -17.5zM485 818q0 46 -31.5 72t-89.5 26q-57 0 -89 -26
t-32 -72h-44q0 64 43 101t122 37t122 -37t43 -101h-44z" />
    <glyph glyph-name="Uinvertedbreve.sc" horiz-adv-x="655" 
d="M328 -8q-126 0 -185 56.5t-59 184.5v344h51v-342q0 -108 48.5 -153t144.5 -45t144.5 45t48.5 153v342h50v-344q0 -128 -58.5 -184.5t-184.5 -56.5zM428 638q0 36 -26.5 55.5t-77.5 19.5q-49 0 -76.5 -19.5t-27.5 -55.5h-40q0 51 37 81t107 30q71 0 108.5 -30t37.5 -81
h-42z" />
    <glyph glyph-name="Umacron" unicode="&#x16a;" horiz-adv-x="735" 
d="M218 886h290v-44h-290v44zM368 -10q-72 0 -124.5 17.5t-87 54.5t-51 95t-16.5 140v442h51v-438q0 -72 14.5 -122.5t43 -82t71 -45.5t99.5 -14q56 0 98.5 14t71 45.5t43 82t14.5 122.5v438h52v-442q0 -82 -16.5 -140t-51 -95t-87 -54.5t-124.5 -17.5z" />
    <glyph glyph-name="Umacron.sc" horiz-adv-x="655" 
d="M328 -8q-126 0 -185 56.5t-59 184.5v344h51v-342q0 -108 48.5 -153t144.5 -45t144.5 45t48.5 153v342h50v-344q0 -128 -58.5 -184.5t-184.5 -56.5zM195 697h257v-40h-257v40z" />
    <glyph glyph-name="Uogonek" unicode="&#x172;" horiz-adv-x="735" 
d="M349 -207q-89 0 -89 78q0 34 17.5 61.5t62.5 58.5q-130 6 -190.5 78t-60.5 228v442h51v-438q0 -72 14.5 -122.5t43 -82t71 -45.5t99.5 -14q56 0 98.5 14t71 45.5t43 82t14.5 122.5v438h52v-442q0 -149 -55.5 -221.5t-173.5 -83.5q-61 -29 -88 -57.5t-27 -61.5
q0 -42 52 -42q14 0 30 2.5t32 7.5v-36q-14 -5 -32 -8.5t-36 -3.5z" />
    <glyph glyph-name="Uogonek.sc" horiz-adv-x="656" 
d="M314 -162q-79 0 -79 63q0 26 14.5 47t53.5 45q-113 5 -165.5 61.5t-52.5 178.5v344h50v-342q0 -108 48.5 -153t144.5 -45t144.5 45t48.5 153v342h50v-344q0 -117 -47.5 -174t-150.5 -65q-48 -20 -73.5 -41.5t-25.5 -48.5q0 -19 12 -25.5t32 -6.5q27 0 56 8v-33
q-12 -4 -28 -6.5t-32 -2.5z" />
    <glyph glyph-name="Uring" unicode="&#x16e;" horiz-adv-x="735" 
d="M368 -10q-72 0 -124.5 17.5t-87 54.5t-51 95t-16.5 140v442h51v-438q0 -72 14.5 -122.5t43 -82t71 -45.5t99.5 -14q56 0 98.5 14t71 45.5t43 82t14.5 122.5v438h52v-442q0 -82 -16.5 -140t-51 -95t-87 -54.5t-124.5 -17.5zM366 799q-51 0 -82.5 30t-31.5 75
q0 22 8.5 41.5t23.5 34t36 22.5t46 8t46 -8t36 -22.5t23.5 -34t8.5 -41.5q0 -23 -8.5 -42t-23.5 -33t-36 -22t-46 -8zM366 836q35 0 55 18t20 50t-20 50.5t-55 18.5q-36 0 -55.5 -18.5t-19.5 -50.5t20 -50t55 -18z" />
    <glyph glyph-name="Uring.sc" horiz-adv-x="655" 
d="M328 -8q-126 0 -185 56.5t-59 184.5v344h51v-342q0 -108 48.5 -153t144.5 -45t144.5 45t48.5 153v342h50v-344q0 -128 -58.5 -184.5t-184.5 -56.5zM326 623q-44 0 -72 23.5t-28 58.5q0 36 28 60t72 24t72 -24t28 -60q0 -35 -28 -58.5t-72 -23.5zM326 653q31 0 47.5 14
t16.5 38q0 25 -16.5 39t-47.5 14t-48 -14t-17 -39q0 -24 17 -38t48 -14z" />
    <glyph glyph-name="Utilde" unicode="&#x168;" horiz-adv-x="735" 
d="M185 863q26 26 54.5 40.5t57.5 14.5q23 0 42.5 -6.5t38 -14.5t37 -14.5t39.5 -6.5q45 0 86 38l25 -24q-23 -26 -54 -41.5t-63 -15.5q-21 0 -40.5 6.5t-38 14.5t-37.5 14.5t-38 6.5q-45 0 -85 -37zM368 -10q-72 0 -124.5 17.5t-87 54.5t-51 95t-16.5 140v442h51v-438
q0 -72 14.5 -122.5t43 -82t71 -45.5t99.5 -14q56 0 98.5 14t71 45.5t43 82t14.5 122.5v438h52v-442q0 -82 -16.5 -140t-51 -95t-87 -54.5t-124.5 -17.5z" />
    <glyph glyph-name="Utilde.sc" horiz-adv-x="655" 
d="M328 -8q-126 0 -185 56.5t-59 184.5v344h51v-342q0 -108 48.5 -153t144.5 -45t144.5 45t48.5 153v342h50v-344q0 -128 -58.5 -184.5t-184.5 -56.5zM167 673q47 49 100 49q20 0 37 -5t33 -11.5t32.5 -11.5t34.5 -5q40 0 76 30l21 -20q-20 -23 -47.5 -36t-56.5 -13
q-18 0 -35 5t-33.5 11t-33 11t-33.5 5q-39 0 -75 -29z" />
    <glyph glyph-name="V" unicode="V" horiz-adv-x="653" 
d="M12 740h54l207 -548l51 -138h5l51 138l208 548h54l-280 -740h-70z" />
    <glyph glyph-name="V.sc" horiz-adv-x="586" 
d="M18 577h54l175 -419l45 -110h2l44 110l176 419h54l-241 -577h-68z" />
    <glyph glyph-name="W" unicode="W" horiz-adv-x="982" 
d="M23 740h53l149 -535l39 -145h5l41 145l154 535h56l151 -535l40 -145h5l40 145l152 535h53l-213 -740h-69l-155 545l-30 117h-5l-31 -118l-157 -544h-70z" />
    <glyph glyph-name="W.sc" horiz-adv-x="869" 
d="M28 577h53l125 -408l33 -113h5l34 113l131 408h53l127 -408l35 -113h4l34 113l128 408h53l-182 -577h-68l-129 409l-27 96h-4l-28 -98l-130 -407h-68z" />
    <glyph glyph-name="Wacute" unicode="&#x1e82;" horiz-adv-x="982" 
d="M464 805l77 127h55l-89 -133zM23 740h53l149 -535l39 -145h5l41 145l154 535h56l151 -535l40 -145h5l40 145l152 535h53l-213 -740h-69l-155 545l-30 117h-5l-31 -118l-157 -544h-70z" />
    <glyph glyph-name="Wacute.sc" horiz-adv-x="869" 
d="M28 577h53l125 -408l33 -113h5l34 113l131 408h53l127 -408l35 -113h4l34 113l128 408h53l-182 -577h-68l-129 409l-27 96h-4l-28 -98l-130 -407h-68zM409 629l66 103h53l-78 -107z" />
    <glyph glyph-name="Wcircumflex" unicode="&#x174;" horiz-adv-x="982" 
d="M23 740h53l149 -535l39 -145h5l41 145l154 535h56l151 -535l40 -145h5l40 145l152 535h53l-213 -740h-69l-155 545l-30 117h-5l-31 -118l-157 -544h-70zM341 867l151 73l150 -73v-50l-150 72l-151 -72v50z" />
    <glyph glyph-name="Wcircumflex.sc" horiz-adv-x="869" 
d="M28 577h53l125 -408l33 -113h5l34 113l131 408h53l127 -408l35 -113h4l34 113l128 408h53l-182 -577h-68l-129 409l-27 96h-4l-28 -98l-130 -407h-68zM302 680l133 58l133 -58v-44l-133 56l-133 -56v44z" />
    <glyph glyph-name="Wdieresis" unicode="&#x1e84;" horiz-adv-x="982" 
d="M367 826q-18 0 -28.5 9.5t-10.5 29.5q0 21 10.5 30.5t28.5 9.5q17 0 29 -9.5t12 -30.5t-12 -30t-29 -9zM615 826q-40 0 -40 39q0 40 40 40q17 0 28.5 -9.5t11.5 -30.5t-11.5 -30t-28.5 -9zM23 740h53l149 -535l39 -145h5l41 145l154 535h56l151 -535l40 -145h5l40 145
l152 535h53l-213 -740h-69l-155 545l-30 117h-5l-31 -118l-157 -544h-70z" />
    <glyph glyph-name="Wdieresis.sc" horiz-adv-x="869" 
d="M28 577h53l125 -408l33 -113h5l34 113l131 408h53l127 -408l35 -113h4l34 113l128 408h53l-182 -577h-68l-129 409l-27 96h-4l-28 -98l-130 -407h-68zM326 643q-37 0 -37 36q0 35 37 35q17 0 27.5 -8.5t10.5 -26.5q0 -19 -10.5 -27.5t-27.5 -8.5zM543 643q-37 0 -37 36
q0 35 37 35q17 0 27.5 -8.5t10.5 -26.5q0 -19 -10.5 -27.5t-27.5 -8.5z" />
    <glyph glyph-name="Wgrave" unicode="&#x1e80;" horiz-adv-x="982" 
d="M470 799l-89 133h55l78 -119zM23 740h53l149 -535l39 -145h5l41 145l154 535h56l151 -535l40 -145h5l40 145l152 535h53l-213 -740h-69l-155 545l-30 117h-5l-31 -118l-157 -544h-70z" />
    <glyph glyph-name="Wgrave.sc" horiz-adv-x="869" 
d="M28 577h53l125 -408l33 -113h5l34 113l131 408h53l127 -408l35 -113h4l34 113l128 408h53l-182 -577h-68l-129 409l-27 96h-4l-28 -98l-130 -407h-68zM414 625l-78 107h54l66 -97z" />
    <glyph glyph-name="X" unicode="X" horiz-adv-x="643" 
d="M288 380l-264 360h61l225 -309l10 -17h5l9 17l224 309h61l-265 -363l279 -377h-62l-239 326l-9 16h-5l-9 -16l-237 -326h-62z" />
    <glyph glyph-name="X.sc" horiz-adv-x="574" 
d="M252 297l-224 280h60l190 -234l9 -14h3l8 14l189 234h60l-226 -282l238 -295h-61l-202 249l-8 13h-3l-9 -13l-200 -249h-61z" />
    <glyph glyph-name="Y" unicode="Y" horiz-adv-x="598" 
d="M273 252l-266 488h57l202 -373l30 -62h5l30 62l202 373h57l-265 -486v-254h-52v252z" />
    <glyph glyph-name="Y.sc" horiz-adv-x="538" 
d="M244 197l-229 380h56l171 -283l25 -49h4l25 49l171 283h57l-229 -380v-197h-51v197z" />
    <glyph glyph-name="Yacute" unicode="&#xdd;" horiz-adv-x="598" 
d="M273 252l-266 488h57l202 -373l30 -62h5l30 62l202 373h57l-265 -486v-254h-52v252zM272 805l77 127h55l-89 -133z" />
    <glyph glyph-name="Yacute.sc" horiz-adv-x="538" 
d="M244 197l-229 380h56l171 -283l25 -49h4l25 49l171 283h57l-229 -380v-197h-51v197zM245 629l65 103h54l-78 -107z" />
    <glyph glyph-name="Ycircumflex" unicode="&#x176;" horiz-adv-x="598" 
d="M273 252l-266 488h57l202 -373l30 -62h5l30 62l202 373h57l-265 -486v-254h-52v252zM149 867l151 73l150 -73v-50l-150 72l-151 -72v50z" />
    <glyph glyph-name="Ycircumflex.sc" horiz-adv-x="538" 
d="M244 197l-229 380h56l171 -283l25 -49h4l25 49l171 283h57l-229 -380v-197h-51v197zM137 680l132 58l133 -58v-44l-132 56l-133 -56v44z" />
    <glyph glyph-name="Ydieresis" unicode="&#x178;" horiz-adv-x="598" 
d="M273 252l-266 488h57l202 -373l30 -62h5l30 62l202 373h57l-265 -486v-254h-52v252zM175 826q-18 0 -28.5 9.5t-10.5 29.5q0 21 10.5 30.5t28.5 9.5q17 0 29 -9.5t12 -30.5t-12 -30t-29 -9zM423 826q-40 0 -40 39q0 40 40 40q17 0 28.5 -9.5t11.5 -30.5t-11.5 -30
t-28.5 -9z" />
    <glyph glyph-name="Ydieresis.sc" horiz-adv-x="538" 
d="M160 643q-36 0 -36 36q0 35 36 35q17 0 27.5 -8.5t10.5 -26.5q0 -19 -10.5 -27.5t-27.5 -8.5zM378 643q-37 0 -37 36q0 35 37 35q17 0 27 -8.5t10 -26.5q0 -19 -10 -27.5t-27 -8.5zM244 197l-229 380h56l171 -283l25 -49h4l25 49l171 283h57l-229 -380v-197h-51v197z" />
    <glyph glyph-name="Ygrave" unicode="&#x1ef2;" horiz-adv-x="598" 
d="M273 252l-266 488h57l202 -373l30 -62h5l30 62l202 373h57l-265 -486v-254h-52v252zM279 799l-89 133h55l78 -119z" />
    <glyph glyph-name="Ygrave.sc" horiz-adv-x="538" 
d="M244 197l-229 380h56l171 -283l25 -49h4l25 49l171 283h57l-229 -380v-197h-51v197zM172 732h54l66 -97l-42 -10z" />
    <glyph glyph-name="Ytilde" unicode="&#x1ef8;" horiz-adv-x="598" 
d="M273 252l-266 488h57l202 -373l30 -62h5l30 62l202 373h57l-265 -486v-254h-52v252zM119 863q26 26 54.5 40.5t57.5 14.5q23 0 42.5 -6.5t38 -14.5t37 -14.5t39.5 -6.5q45 0 86 38l25 -24q-23 -26 -54 -41.5t-63 -15.5q-21 0 -40.5 6.5t-38 14.5t-37.5 14.5t-38 6.5
q-45 0 -85 -37z" />
    <glyph glyph-name="Ytilde.sc" horiz-adv-x="538" 
d="M244 197l-229 380h56l171 -283l25 -49h4l25 49l171 283h57l-229 -380v-197h-51v197zM110 673q47 49 100 49q20 0 37.5 -5t33.5 -11.5t32.5 -11.5t34.5 -5q40 0 76 30l21 -20q-21 -23 -48 -36t-56 -13q-18 0 -35 5t-33.5 11t-33 11t-33.5 5q-19 0 -38 -7t-36 -22z" />
    <glyph glyph-name="Z" unicode="Z" horiz-adv-x="557" 
d="M34 40l413 648v5h-401v47h467v-38l-412 -650v-5h420v-47h-487v40z" />
    <glyph glyph-name="Z.sc" horiz-adv-x="503" 
d="M39 39l354 491v3h-344v44h408v-37l-353 -493v-3h361v-44h-426v39z" />
    <glyph glyph-name="Zacute" unicode="&#x179;" horiz-adv-x="557" 
d="M34 40l413 648v5h-401v47h467v-38l-412 -650v-5h420v-47h-487v40zM259 805l77 127h55l-89 -133z" />
    <glyph glyph-name="Zacute.sc" horiz-adv-x="504" 
d="M39 39l354 491v3h-344v44h408v-37l-354 -493v-3h362v-44h-426v39zM233 629l66 103h54l-78 -107z" />
    <glyph glyph-name="Zcaron" unicode="&#x17d;" horiz-adv-x="557" 
d="M136 935l151 -72l150 72v-50l-151 -73l-150 73v50zM34 40l413 648v5h-401v47h467v-38l-412 -650v-5h420v-47h-487v40z" />
    <glyph glyph-name="Zcaron.sc" horiz-adv-x="504" 
d="M39 39l354 491v3h-344v44h408v-37l-354 -493v-3h362v-44h-426v39zM126 735l133 -57l132 57v-45l-133 -57l-132 57v45z" />
    <glyph glyph-name="Zdotaccent" unicode="&#x17b;" horiz-adv-x="557" 
d="M285 818q-18 0 -28.5 9.5t-10.5 30.5q0 20 10.5 30t28.5 10q17 0 29 -9.5t12 -30.5t-12 -30.5t-29 -9.5zM34 40l413 648v5h-401v47h467v-38l-412 -650v-5h420v-47h-487v40z" />
    <glyph glyph-name="Zdotaccent.sc" horiz-adv-x="504" 
d="M39 39l354 491v3h-344v44h408v-37l-354 -493v-3h362v-44h-426v39zM257 638q-17 0 -26.5 8t-9.5 28q0 18 9.5 26.5t26.5 8.5t27.5 -8.5t10.5 -26.5q0 -19 -10.5 -27.5t-27.5 -8.5z" />
    <glyph glyph-name="Zdotbelow" unicode="&#x1e92;" horiz-adv-x="557" 
d="M34 40l413 648v5h-401v47h467v-38l-412 -650v-5h420v-47h-487v40zM276 -172q-19 0 -30 9t-11 32q0 22 11 31.5t30 9.5t30.5 -9t11.5 -32t-11.5 -32t-30.5 -9z" />
    <glyph glyph-name="Zdotbelow.sc" horiz-adv-x="504" 
d="M39 39l354 491v3h-344v44h408v-37l-354 -493v-3h362v-44h-426v39zM250 -138q-37 0 -37 35t37 35t37 -35t-37 -35z" />
    <glyph glyph-name="a" unicode="a" horiz-adv-x="508" 
d="M183 -5q-69 0 -104 34.5t-35 100.5q0 78 48.5 117t156.5 49l131 11v56q0 38 -7.5 64.5t-24 43t-43.5 23.5t-66 7q-35 0 -72 -4.5t-85 -13.5l-5 44q51 10 90.5 14t78.5 4q95 0 140 -42t45 -131v-372h-43l-7 69h-4q-54 -35 -102 -54.5t-92 -19.5zM194 40q42 0 89.5 19.5
t96.5 51.5v158l-119 -11q-46 -5 -77.5 -13.5t-51 -23.5t-28 -36.5t-8.5 -51.5q0 -93 98 -93z" />
    <glyph glyph-name="aacute" unicode="&#xe1;" horiz-adv-x="508" 
d="M183 -5q-69 0 -104 34.5t-35 100.5q0 78 48.5 117t156.5 49l131 11v56q0 38 -7.5 64.5t-24 43t-43.5 23.5t-66 7q-35 0 -72 -4.5t-85 -13.5l-5 44q51 10 90.5 14t78.5 4q95 0 140 -42t45 -131v-372h-43l-7 69h-4q-54 -35 -102 -54.5t-92 -19.5zM194 40q42 0 89.5 19.5
t96.5 51.5v158l-119 -11q-46 -5 -77.5 -13.5t-51 -23.5t-28 -36.5t-8.5 -51.5q0 -93 98 -93zM239 616l74 183h53l-91 -189z" />
    <glyph glyph-name="acute" unicode="&#xb4;" horiz-adv-x="229" 
d="M51 616l74 183h53l-91 -189z" />
    <glyph glyph-name="abreve" unicode="&#x103;" horiz-adv-x="508" 
d="M183 -5q-69 0 -104 34.5t-35 100.5q0 78 48.5 117t156.5 49l131 11v56q0 38 -7.5 64.5t-24 43t-43.5 23.5t-66 7q-35 0 -72 -4.5t-85 -13.5l-5 44q51 10 90.5 14t78.5 4q95 0 140 -42t45 -131v-372h-43l-7 69h-4q-54 -35 -102 -54.5t-92 -19.5zM194 40q42 0 89.5 19.5
t96.5 51.5v158l-119 -11q-46 -5 -77.5 -13.5t-51 -23.5t-28 -36.5t-8.5 -51.5q0 -93 98 -93zM257 620q-85 0 -125.5 38t-41.5 105h44q0 -57 32 -81.5t91 -24.5q57 0 89.5 24.5t32.5 81.5h44q0 -67 -40.5 -105t-125.5 -38z" />
    <glyph glyph-name="breve" unicode="&#x2d8;" horiz-adv-x="465" 
d="M231 620q-85 0 -125.5 38t-41.5 105h44q0 -57 32 -81.5t91 -24.5q57 0 89.5 24.5t32.5 81.5h44q0 -67 -40.5 -105t-125.5 -38z" />
    <glyph glyph-name="acircumflex" unicode="&#xe2;" horiz-adv-x="508" 
d="M183 -5q-69 0 -104 34.5t-35 100.5q0 78 48.5 117t156.5 49l131 11v56q0 38 -7.5 64.5t-24 43t-43.5 23.5t-66 7q-35 0 -72 -4.5t-85 -13.5l-5 44q51 10 90.5 14t78.5 4q95 0 140 -42t45 -131v-372h-43l-7 69h-4q-54 -35 -102 -54.5t-92 -19.5zM194 40q42 0 89.5 19.5
t96.5 51.5v158l-119 -11q-46 -5 -77.5 -13.5t-51 -23.5t-28 -36.5t-8.5 -51.5q0 -93 98 -93zM106 689l151 73l150 -73v-50l-150 73l-151 -73v50z" />
    <glyph glyph-name="circumflex" unicode="&#x2c6;" horiz-adv-x="432" 
d="M63 689l151 73l150 -73v-50l-150 73l-151 -73v50z" />
    <glyph glyph-name="adblgrave" unicode="&#x201;" horiz-adv-x="508" 
d="M183 -5q-69 0 -104 34.5t-35 100.5q0 78 48.5 117t156.5 49l131 11v56q0 38 -7.5 64.5t-24 43t-43.5 23.5t-66 7q-35 0 -72 -4.5t-85 -13.5l-5 44q51 10 90.5 14t78.5 4q95 0 140 -42t45 -131v-372h-43l-7 69h-4q-54 -35 -102 -54.5t-92 -19.5zM194 40q42 0 89.5 19.5
t96.5 51.5v158l-119 -11q-46 -5 -77.5 -13.5t-51 -23.5t-28 -36.5t-8.5 -51.5q0 -93 98 -93zM157 617l-92 189h57l73 -179zM328 617l-93 189h58l73 -179z" />
    <glyph glyph-name="uni030F" unicode="&#x30f;" horiz-adv-x="407" 
d="M136 617l-92 189h57l73 -179zM307 617l-93 189h58l73 -179z" />
    <glyph glyph-name="adieresis" unicode="&#xe4;" horiz-adv-x="508" 
d="M183 -5q-69 0 -104 34.5t-35 100.5q0 78 48.5 117t156.5 49l131 11v56q0 38 -7.5 64.5t-24 43t-43.5 23.5t-66 7q-35 0 -72 -4.5t-85 -13.5l-5 44q51 10 90.5 14t78.5 4q95 0 140 -42t45 -131v-372h-43l-7 69h-4q-54 -35 -102 -54.5t-92 -19.5zM194 40q42 0 89.5 19.5
t96.5 51.5v158l-119 -11q-46 -5 -77.5 -13.5t-51 -23.5t-28 -36.5t-8.5 -51.5q0 -93 98 -93zM143 661q-37 0 -37 36t37 36q16 0 26.5 -8.5t10.5 -27.5t-10.5 -27.5t-26.5 -8.5zM369 661q-17 0 -26.5 8.5t-9.5 27.5q0 18 9.5 27t26.5 9q16 0 26.5 -8.5t10.5 -27.5
t-10.5 -27.5t-26.5 -8.5z" />
    <glyph glyph-name="dieresis" unicode="&#xa8;" horiz-adv-x="454" 
d="M105 661q-37 0 -37 36t37 36q16 0 26.5 -8.5t10.5 -27.5t-10.5 -27.5t-26.5 -8.5zM331 661q-17 0 -26.5 8.5t-9.5 27.5q0 18 9.5 27t26.5 9q16 0 26.5 -8.5t10.5 -27.5t-10.5 -27.5t-26.5 -8.5z" />
    <glyph glyph-name="ae" unicode="&#xe6;" horiz-adv-x="851" 
d="M619 -9q-71 0 -120.5 25t-77.5 73l-3 1q-43 -27 -77 -45t-62 -29t-51.5 -16t-44.5 -5q-69 0 -104 34.5t-35 100.5q0 77 48.5 116.5t156.5 49.5l131 11v58q0 75 -31.5 105.5t-109.5 30.5q-35 0 -72.5 -4.5t-83.5 -13.5l-6 44q51 10 91 14t78 4q146 0 170 -109h5
q26 54 74 83.5t117 29.5q92 0 140.5 -61t48.5 -176q0 -45 -4 -64h-365q5 -212 192 -212q36 0 73.5 7t80.5 23l5 -44q-37 -14 -81.5 -22.5t-82.5 -8.5zM194 39q41 0 87.5 19t103.5 56q-2 3 -2.5 26t-1.5 50t-1 50.5v28.5l-119 -11q-46 -4 -77.5 -13t-51 -24t-28 -36.5
t-8.5 -51.5q0 -94 98 -94zM751 289q-2 115 -35 165t-105 50q-85 0 -130 -54.5t-49 -160.5h319z" />
    <glyph glyph-name="aeacute" unicode="&#x1fd;" horiz-adv-x="851" 
d="M415 616l74 183h53l-91 -189zM619 -9q-71 0 -120.5 25t-77.5 73l-3 1q-43 -27 -77 -45t-62 -29t-51.5 -16t-44.5 -5q-69 0 -104 34.5t-35 100.5q0 77 48.5 116.5t156.5 49.5l131 11v58q0 75 -31.5 105.5t-109.5 30.5q-35 0 -72.5 -4.5t-83.5 -13.5l-6 44q51 10 91 14
t78 4q146 0 170 -109h5q26 54 74 83.5t117 29.5q92 0 140.5 -61t48.5 -176q0 -45 -4 -64h-365q5 -212 192 -212q36 0 73.5 7t80.5 23l5 -44q-37 -14 -81.5 -22.5t-82.5 -8.5zM194 39q41 0 87.5 19t103.5 56q-2 3 -2.5 26t-1.5 50t-1 50.5v28.5l-119 -11q-46 -4 -77.5 -13
t-51 -24t-28 -36.5t-8.5 -51.5q0 -94 98 -94zM751 289q-2 115 -35 165t-105 50q-85 0 -130 -54.5t-49 -160.5h319z" />
    <glyph glyph-name="agrave" unicode="&#xe0;" horiz-adv-x="508" 
d="M183 -5q-69 0 -104 34.5t-35 100.5q0 78 48.5 117t156.5 49l131 11v56q0 38 -7.5 64.5t-24 43t-43.5 23.5t-66 7q-35 0 -72 -4.5t-85 -13.5l-5 44q51 10 90.5 14t78.5 4q95 0 140 -42t45 -131v-372h-43l-7 69h-4q-54 -35 -102 -54.5t-92 -19.5zM194 40q42 0 89.5 19.5
t96.5 51.5v158l-119 -11q-46 -5 -77.5 -13.5t-51 -23.5t-28 -36.5t-8.5 -51.5q0 -93 98 -93zM235 617l-91 189h59l72 -179z" />
    <glyph glyph-name="grave" unicode="`" horiz-adv-x="238" 
d="M136 617l-91 189h59l72 -179z" />
    <glyph glyph-name="ainvertedbreve" unicode="&#x203;" horiz-adv-x="508" 
d="M183 -5q-69 0 -104 34.5t-35 100.5q0 78 48.5 117t156.5 49l131 11v56q0 38 -7.5 64.5t-24 43t-43.5 23.5t-66 7q-35 0 -72 -4.5t-85 -13.5l-5 44q51 10 90.5 14t78.5 4q95 0 140 -42t45 -131v-372h-43l-7 69h-4q-54 -35 -102 -54.5t-92 -19.5zM194 40q42 0 89.5 19.5
t96.5 51.5v158l-119 -11q-46 -5 -77.5 -13.5t-51 -23.5t-28 -36.5t-8.5 -51.5q0 -93 98 -93zM92 628q1 68 41.5 105.5t125.5 37.5t125.5 -37.5t40.5 -105.5h-44q0 57 -32.5 82t-89.5 25q-58 0 -90.5 -24.5t-32.5 -82.5h-44z" />
    <glyph glyph-name="uni0311" unicode="&#x311;" horiz-adv-x="465" 
d="M61 628q1 68 41.5 105.5t125.5 37.5t125.5 -37.5t40.5 -105.5h-44q0 57 -32.5 82t-89.5 25q-58 0 -90.5 -24.5t-32.5 -82.5h-44v0z" />
    <glyph glyph-name="amacron" unicode="&#x101;" horiz-adv-x="508" 
d="M183 -5q-69 0 -104 34.5t-35 100.5q0 78 48.5 117t156.5 49l131 11v56q0 38 -7.5 64.5t-24 43t-43.5 23.5t-66 7q-35 0 -72 -4.5t-85 -13.5l-5 44q51 10 90.5 14t78.5 4q95 0 140 -42t45 -131v-372h-43l-7 69h-4q-54 -35 -102 -54.5t-92 -19.5zM194 40q42 0 89.5 19.5
t96.5 51.5v158l-119 -11q-46 -5 -77.5 -13.5t-51 -23.5t-28 -36.5t-8.5 -51.5q0 -93 98 -93zM114 695h295v-44h-295v44z" />
    <glyph glyph-name="macron" unicode="&#xaf;" horiz-adv-x="452" 
d="M67 695h295v-44h-295v44z" />
    <glyph glyph-name="ampersand" unicode="&#x26;" horiz-adv-x="704" 
d="M314 -12q-60 0 -108 15t-81.5 43.5t-51.5 68.5t-18 91q0 139 131 195q-26 35 -36.5 72.5t-10.5 84.5q0 97 54.5 146t160.5 49q38 0 80 -8.5t94 -28.5v-6l-14 -35h-6q-46 18 -82 26t-70 8q-166 0 -166 -153q0 -40 12 -74t39 -66t70 -63.5t105 -66.5l137 -77q15 57 15 133
v69h49v-69q0 -89 -20 -157l83 -46v-7l-23 -33h-8l-69 39q-68 -150 -266 -150zM387 247q-114 64 -171 119q-109 -49 -109 -159q0 -81 55.5 -127.5t153.5 -46.5q165 0 221 129z" />
    <glyph glyph-name="ampersand.sc" horiz-adv-x="629" 
d="M282 -9q-106 0 -166.5 45.5t-60.5 124.5q0 54 28.5 92.5t85.5 59.5q-23 27 -32.5 57t-9.5 65q0 75 48 113.5t141 38.5q34 0 70 -6.5t81 -21.5l1 -5l-12 -34h-6q-39 14 -70.5 20t-60.5 6q-142 0 -142 -113q0 -30 10 -55.5t33 -49.5t60.5 -48.5t91.5 -51.5l113 -57
q7 21 10 47t3 55v49h48v-55q0 -66 -17 -119l72 -36v-5l-22 -34h-6l-64 32q-60 -114 -227 -114zM283 32q137 0 185 95l-124 64q-48 26 -83 47.5t-60 44.5q-95 -37 -95 -121q0 -60 47.5 -95t129.5 -35z" />
    <glyph glyph-name="aogonek" unicode="&#x105;" horiz-adv-x="508" 
d="M362 -220q-89 0 -89 78q0 40 25 72t90 70l-7 69h-4q-54 -35 -102 -54.5t-92 -19.5q-69 0 -104 34.5t-35 100.5q0 78 48.5 117t156.5 49l131 11v56q0 38 -7.5 64.5t-24 43t-43.5 23.5t-66 7q-35 0 -72 -4.5t-85 -13.5l-5 44q51 10 90.5 14t78.5 4q95 0 140 -42t45 -131
v-393q-61 -29 -88 -57.5t-27 -61.5q0 -42 52 -42q14 0 30 2.5t32 7.5v-36q-14 -5 -32 -8.5t-36 -3.5zM194 40q42 0 89.5 19.5t96.5 51.5v158l-119 -11q-46 -5 -77.5 -13.5t-51 -23.5t-28 -36.5t-8.5 -51.5q0 -93 98 -93z" />
    <glyph glyph-name="apostrophe" unicode="&#x2bc;" horiz-adv-x="208" 
d="M131 808v-4l-26 -224h-24v228h50z" />
    <glyph glyph-name="approxequal" unicode="&#x2248;" horiz-adv-x="520" 
d="M74 478q25 8 49.5 16.5t55.5 8.5q22 0 42 -5.5t39.5 -12t39 -12t42.5 -5.5q30 0 54.5 8t49.5 19v-42q-25 -8 -49.5 -18t-54.5 -10q-23 0 -42.5 5.5t-39 12t-39.5 12t-42 5.5q-31 0 -55.5 -7.5t-49.5 -18.5v44zM74 267q25 8 49.5 16.5t55.5 8.5q22 0 42 -5.5t39.5 -12
t39 -12t42.5 -5.5q30 0 54.5 8t49.5 19v-42q-25 -8 -49.5 -18t-54.5 -10q-23 0 -42.5 5.5t-39 12t-39.5 12t-42 5.5q-31 0 -55.5 -7.5t-49.5 -18.5v44z" />
    <glyph glyph-name="aring" unicode="&#xe5;" horiz-adv-x="508" 
d="M183 -5q-69 0 -104 34.5t-35 100.5q0 78 48.5 117t156.5 49l131 11v56q0 38 -7.5 64.5t-24 43t-43.5 23.5t-66 7q-35 0 -72 -4.5t-85 -13.5l-5 44q51 10 90.5 14t78.5 4q95 0 140 -42t45 -131v-372h-43l-7 69h-4q-54 -35 -102 -54.5t-92 -19.5zM194 40q42 0 89.5 19.5
t96.5 51.5v158l-119 -11q-46 -5 -77.5 -13.5t-51 -23.5t-28 -36.5t-8.5 -51.5q0 -93 98 -93zM257 606q-25 0 -46 8t-36.5 22.5t-24 33.5t-8.5 42q0 45 32 75.5t83 30.5q25 0 45.5 -8t35.5 -22.5t23.5 -34t8.5 -41.5q0 -45 -31.5 -75.5t-81.5 -30.5zM257 644q35 0 54.5 18
t19.5 50t-19.5 50.5t-54.5 18.5q-36 0 -56 -18.5t-20 -50.5t20 -50t56 -18z" />
    <glyph glyph-name="ring" unicode="&#x2da;" horiz-adv-x="348" 
d="M173 606q-25 0 -46 8t-36.5 22.5t-24 33.5t-8.5 42q0 45 32 75.5t83 30.5q25 0 45.5 -8t35.5 -22.5t23.5 -34t8.5 -41.5q0 -45 -31.5 -75.5t-81.5 -30.5zM173 644q35 0 54.5 18t19.5 50t-19.5 50.5t-54.5 18.5q-36 0 -56 -18.5t-20 -50.5t20 -50t56 -18z" />
    <glyph glyph-name="aringacute" unicode="&#x1fb;" horiz-adv-x="508" 
d="M183 -5q-69 0 -104 34.5t-35 100.5q0 78 48.5 117t156.5 49l131 11v56q0 38 -7.5 64.5t-24 43t-43.5 23.5t-66 7q-35 0 -72 -4.5t-85 -13.5l-5 44q51 10 90.5 14t78.5 4q95 0 140 -42t45 -131v-372h-43l-7 69h-4q-54 -35 -102 -54.5t-92 -19.5zM194 40q42 0 89.5 19.5
t96.5 51.5v158l-119 -11q-46 -5 -77.5 -13.5t-51 -23.5t-28 -36.5t-8.5 -51.5q0 -93 98 -93zM257 606q-25 0 -46 8t-36.5 22.5t-24 33.5t-8.5 42q0 45 31.5 75t82.5 31l64 158h53l-79 -164q35 -11 55.5 -37.5t20.5 -62.5q0 -45 -31.5 -75.5t-81.5 -30.5zM257 644
q35 0 54.5 18t19.5 50t-19.5 50.5t-54.5 18.5q-36 0 -56 -18.5t-20 -50.5t20 -50t56 -18z" />
    <glyph glyph-name="arrowdown" unicode="&#x2193;" horiz-adv-x="634" 
d="M30 374l30 30l239 -250l-5 549h46l-6 -549l240 250l30 -30l-282 -280h-10z" />
    <glyph glyph-name="arrowleft" unicode="&#x2190;" horiz-adv-x="695" 
d="M31 399v9l279 282l31 -29l-251 -240l550 6v-46l-550 5l251 -240l-31 -29z" />
    <glyph glyph-name="arrowright" unicode="&#x2192;" horiz-adv-x="695" 
d="M355 146l250 240l-549 -5v46l549 -6l-250 240l30 29l280 -282v-9l-280 -282z" />
    <glyph glyph-name="arrowup" unicode="&#x2191;" horiz-adv-x="636" 
d="M301 643l-240 -250l-30 31l283 279h9l282 -279l-30 -31l-239 250l5 -549h-46z" />
    <glyph glyph-name="asciicircum" unicode="^" horiz-adv-x="452" 
d="M207 789h38l156 -308h-42l-131 257h-4l-131 -257h-42z" />
    <glyph glyph-name="asciitilde" unicode="~" horiz-adv-x="623" 
d="M72 292q24 24 43.5 40t37.5 26t36 14t38 4q29 0 51 -11.5t41.5 -26t39.5 -26t44 -11.5q33 0 65 18.5t46 45.5l38 -20q-11 -18 -27 -34.5t-35.5 -28.5t-41 -19.5t-43.5 -7.5q-32 0 -56 11.5t-44.5 26t-38.5 26t-37 11.5q-30 0 -58.5 -15t-68.5 -53z" />
    <glyph glyph-name="asterisk" unicode="*" horiz-adv-x="493" 
d="M113 481l49 68l69 77l-101 20l-79 25l13 39l80 -24l93 -43l-11 103v83h41v-83l-12 -103l94 43l80 24l13 -39l-79 -25l-101 -20l69 -77l49 -68l-33 -24l-49 67l-52 93l-51 -93l-49 -67z" />
    <glyph glyph-name="at" unicode="@" horiz-adv-x="884" 
d="M428 -136q-83 0 -151.5 25.5t-118 75.5t-76.5 124t-27 172q0 97 28 174t80 130.5t126.5 81.5t166.5 28q89 0 157.5 -25t114.5 -72.5t69.5 -116t23.5 -155.5q0 -121 -44 -187t-129 -66q-100 0 -110 91h-5q-29 -40 -75.5 -62.5t-89.5 -22.5q-67 0 -102 47t-35 125
q0 57 18 105.5t51 83t79 54t102 19.5q61 0 142 -30l-38 -212q-5 -23 -8 -43t-3 -37q0 -39 17.5 -58.5t57.5 -19.5q63 0 95.5 55.5t32.5 157.5q0 156 -80.5 241.5t-240.5 85.5q-82 0 -148.5 -25t-113 -73t-72 -117t-25.5 -157t24 -154.5t67.5 -111t104.5 -67t135 -22.5
q45 0 94.5 8.5t102.5 24.5l16 -40q-57 -16 -111 -25.5t-102 -9.5zM371 99q28 0 56 11t51.5 31t41 49.5t23.5 67.5l32 179q-57 17 -94 17q-46 0 -84 -16.5t-65.5 -46.5t-42.5 -71t-15 -89q0 -60 24.5 -96t72.5 -36z" />
    <glyph glyph-name="atilde" unicode="&#xe3;" horiz-adv-x="508" 
d="M183 -5q-69 0 -104 34.5t-35 100.5q0 78 48.5 117t156.5 49l131 11v56q0 38 -7.5 64.5t-24 43t-43.5 23.5t-66 7q-35 0 -72 -4.5t-85 -13.5l-5 44q51 10 90.5 14t78.5 4q95 0 140 -42t45 -131v-372h-43l-7 69h-4q-54 -35 -102 -54.5t-92 -19.5zM194 40q42 0 89.5 19.5
t96.5 51.5v158l-119 -11q-46 -5 -77.5 -13.5t-51 -23.5t-28 -36.5t-8.5 -51.5q0 -93 98 -93zM66 680q51 56 112 56q23 0 42.5 -6.5t37.5 -15t36.5 -15t39.5 -6.5q45 0 86 38l25 -24q-23 -26 -54 -41.5t-63 -15.5q-21 0 -40 6.5t-38 15t-37.5 15t-37.5 6.5q-44 0 -85 -38z
" />
    <glyph glyph-name="tilde" unicode="&#x2dc;" horiz-adv-x="488" 
d="M46 680q51 56 112 56q23 0 42.5 -6.5t37.5 -15t36.5 -15t39.5 -6.5q45 0 86 38l25 -24q-23 -26 -54 -41.5t-63 -15.5q-21 0 -40 6.5t-38 15t-37.5 15t-37.5 6.5q-44 0 -85 -38z" />
    <glyph glyph-name="b" unicode="b" horiz-adv-x="579" 
d="M272 -10q-45 0 -94.5 5t-96.5 13v800h51v-330q32 35 75 53.5t99 18.5q106 0 163.5 -67.5t57.5 -209.5q0 -138 -67 -210t-188 -73zM273 34q97 0 149 56.5t52 181.5q0 123 -43.5 177.5t-131.5 54.5q-31 0 -61 -8.5t-53.5 -24t-38 -37.5t-14.5 -48v-341q29 -5 65.5 -8
t75.5 -3z" />
    <glyph glyph-name="backslash" unicode="\" horiz-adv-x="361" 
d="M34 740h46l246 -860h-46z" />
    <glyph glyph-name="bar" unicode="|" horiz-adv-x="234" 
d="M142 808v-1028h-50v1028h50z" />
    <glyph glyph-name="bar.tab" horiz-adv-x="268" 
d="M159 808v-1028h-51v1028h51z" />
    <glyph glyph-name="braceleft" unicode="{" horiz-adv-x="362" 
d="M36 380q36 0 57.5 28t21.5 82v257q0 67 23.5 94t83.5 27q9 0 25 -0.5t32 -1.5t29 -1.5t18 -1.5v-38h-116q-26 0 -37 -10.5t-11 -35.5v-300q0 -46 -19 -81t-53 -43q34 -7 53 -41t19 -80v-302q0 -25 11 -35.5t37 -10.5h116v-38q-5 -1 -18 -2t-28.5 -1.5l-31 -1t-25.5 -0.5
q-60 0 -84 27t-24 94v259q0 54 -21.5 81.5t-57.5 27.5v48z" />
    <glyph glyph-name="braceleft.sc" horiz-adv-x="341" 
d="M46 300q30 0 48 21t18 63v197q0 53 20.5 74.5t71.5 21.5q8 0 21.5 -0.5t27.5 -1t25 -1t15 -1.5v-36h-95q-23 0 -32 -8t-9 -26v-229q0 -37 -17 -64t-46 -33q29 -5 46 -32t17 -63v-231q0 -18 9 -26.5t32 -8.5h95v-35q-4 -1 -15 -1.5t-24.5 -1l-27 -1t-21.5 -0.5
q-52 0 -72.5 21.5t-20.5 74.5v198q0 42 -18 63t-48 21v45z" />
    <glyph glyph-name="braceright" unicode="}" horiz-adv-x="361" 
d="M326 332q-36 0 -57.5 -27.5t-21.5 -81.5v-259q0 -67 -24 -94t-85 -27q-9 0 -25 0.5t-31.5 1t-28.5 1.5t-17 2v38h116q26 0 37 10.5t11 35.5v302q0 46 18.5 80t53.5 41q-35 8 -53.5 43t-18.5 81v300q0 25 -11 35.5t-37 10.5h-116v38q4 1 17 1.5t29 1.5t32 1.5t26 0.5
q60 0 83.5 -27t23.5 -94v-257q0 -54 21.5 -82t57.5 -28v-48z" />
    <glyph glyph-name="braceright.sc" horiz-adv-x="341" 
d="M296 255q-31 0 -49 -21t-18 -63v-198q0 -53 -20.5 -74.5t-72.5 -21.5q-8 0 -21.5 0.5l-27 1t-24.5 1t-15 1.5v35h96q23 0 32 8.5t9 26.5v231q0 36 16.5 63t45.5 32q-29 6 -45.5 33t-16.5 64v229q0 18 -9 26t-32 8h-96v36q4 1 15.5 1.5t25 1t27.5 1t22 0.5q51 0 71 -21.5
t20 -74.5v-197q0 -42 18 -63t49 -21v-45z" />
    <glyph glyph-name="bracketleft" unicode="[" horiz-adv-x="303" 
d="M92 868h176v-43h-130v-942h130v-43h-176v1028z" />
    <glyph glyph-name="bracketleft.sc" horiz-adv-x="304" 
d="M100 677h156v-40h-111v-722h111v-40h-156v802z" />
    <glyph glyph-name="bracketright" unicode="]" horiz-adv-x="302" 
d="M35 -160v43h129v942h-129v43h175v-1028h-175z" />
    <glyph glyph-name="bracketright.sc" horiz-adv-x="303" 
d="M48 -125v40h111v722h-111v40h154v-802h-154z" />
    <glyph glyph-name="brokenbar" unicode="&#xa6;" horiz-adv-x="232" 
d="M91 203h50v-423h-50v423zM91 808h50v-423h-50v423z" />
    <glyph glyph-name="bullet" unicode="&#x2022;" horiz-adv-x="314" 
d="M157 304q-26 0 -46 14t-20 52t20 52t46 14t45.5 -14t19.5 -52t-19.5 -52t-45.5 -14z" />
    <glyph glyph-name="c" unicode="c" horiz-adv-x="455" 
d="M300 -9q-248 0 -248 278q0 280 248 280q24 0 54 -3.5t57 -9.5v-47q-26 7 -52.5 10t-53.5 3q-200 0 -200 -233q0 -121 47.5 -176t150.5 -55q28 0 53 2.5t55 9.5v-46q-20 -6 -51 -9.5t-60 -3.5z" />
    <glyph glyph-name="cacute" unicode="&#x107;" horiz-adv-x="455" 
d="M249 616l74 183h53l-91 -189zM300 -9q-248 0 -248 278q0 280 248 280q24 0 54 -3.5t57 -9.5v-47q-26 7 -52.5 10t-53.5 3q-200 0 -200 -233q0 -121 47.5 -176t150.5 -55q28 0 53 2.5t55 9.5v-46q-20 -6 -51 -9.5t-60 -3.5z" />
    <glyph glyph-name="caron" unicode="&#x2c7;" horiz-adv-x="400" 
d="M49 752l150 -73l150 73v-51l-150 -72l-150 72v51z" />
    <glyph glyph-name="ccaron" unicode="&#x10d;" horiz-adv-x="455" 
d="M116 752l150 -73l150 73v-51l-150 -72l-150 72v51zM300 -9q-248 0 -248 278q0 280 248 280q24 0 54 -3.5t57 -9.5v-47q-26 7 -52.5 10t-53.5 3q-200 0 -200 -233q0 -121 47.5 -176t150.5 -55q28 0 53 2.5t55 9.5v-46q-20 -6 -51 -9.5t-60 -3.5z" />
    <glyph glyph-name="ccedilla" unicode="&#xe7;" horiz-adv-x="455" 
d="M211 -220q-17 0 -38 3t-41 9v42q20 -6 35.5 -8.5t31.5 -2.5q45 0 63.5 17t18.5 55q0 23 -7 45.5t-25 54.5q-197 26 -197 274q0 280 248 280q24 0 54 -3.5t57 -9.5v-47q-26 7 -52.5 10t-53.5 3q-200 0 -200 -233q0 -121 47.5 -176t150.5 -55q28 0 53 2.5t55 9.5v-46
q-20 -6 -51.5 -9.5t-62.5 -3.5q18 -35 24.5 -55.5t6.5 -41.5q0 -55 -30 -84.5t-87 -29.5z" />
    <glyph glyph-name="ccircumflex" unicode="&#x109;" horiz-adv-x="455" 
d="M114 689l151 73l150 -73v-50l-150 73l-151 -73v50zM300 -9q-248 0 -248 278q0 280 248 280q24 0 54 -3.5t57 -9.5v-47q-26 7 -52.5 10t-53.5 3q-200 0 -200 -233q0 -121 47.5 -176t150.5 -55q28 0 53 2.5t55 9.5v-46q-20 -6 -51 -9.5t-60 -3.5z" />
    <glyph glyph-name="cdotaccent" unicode="&#x10b;" horiz-adv-x="455" 
d="M300 -9q-248 0 -248 278q0 280 248 280q24 0 54 -3.5t57 -9.5v-47q-26 7 -52.5 10t-53.5 3q-200 0 -200 -233q0 -121 47.5 -176t150.5 -55q28 0 53 2.5t55 9.5v-46q-20 -6 -51 -9.5t-60 -3.5zM264 658q-18 0 -28.5 9.5t-10.5 29.5q0 21 10.5 30.5t28.5 9.5q17 0 29 -9.5
t12 -30.5t-12 -30t-29 -9z" />
    <glyph glyph-name="dotaccent" unicode="&#x2d9;" horiz-adv-x="233" 
d="M108 658q-18 0 -28.5 9.5t-10.5 29.5q0 21 10.5 30.5t28.5 9.5q17 0 29 -9.5t12 -30.5t-12 -30t-29 -9z" />
    <glyph glyph-name="cent" unicode="&#xa2;" horiz-adv-x="477" 
d="M263 -7q-210 19 -210 276t210 278v113h43v-111q23 -1 51.5 -4.5t54.5 -8.5v-47q-26 7 -52.5 10t-53.5 3q-200 0 -200 -233q0 -121 47.5 -176t150.5 -55q28 0 53 2.5t55 9.5v-46q-20 -5 -49 -8.5t-57 -4.5v-111h-43v113z" />
    <glyph glyph-name="cent.tab" 
d="M296 -7q-225 19 -225 276q0 258 225 278v113h44v-111q27 -1 57 -4t57 -9v-47q-52 13 -113 13q-216 0 -216 -233q0 -121 51 -176t163 -55q30 0 56 2.5t58 9.5l1 -46q-20 -5 -51 -8.5t-63 -4.5v-111h-44v113z" />
    <glyph glyph-name="colon" unicode=":" horiz-adv-x="222" 
d="M110 -2q-38 0 -38 39t38 39q19 0 30 -10.5t11 -28.5q0 -19 -11 -29t-30 -10zM110 465q-38 0 -38 39t38 39q19 0 30 -10.5t11 -28.5q0 -19 -11 -29t-30 -10z" />
    <glyph glyph-name="period" unicode="." horiz-adv-x="217" 
d="M108 -2q-38 0 -38 39t38 39q19 0 30 -10.5t11 -28.5q0 -19 -11 -29t-30 -10z" />
    <glyph glyph-name="colon.tab" horiz-adv-x="268" 
d="M133 -2q-19 0 -30 10t-11 29t11 29t30 10t30.5 -10.5t11.5 -28.5q0 -19 -11.5 -29t-30.5 -10zM133 465q-19 0 -30 10t-11 29t11 29t30 10t30.5 -10.5t11.5 -28.5q0 -19 -11.5 -29t-30.5 -10z" />
    <glyph glyph-name="colonmonetary" unicode="&#x20a1;" horiz-adv-x="592" 
d="M375 -8q-71 0 -126 18l-17 -61h-42l22 78q-155 80 -155 341q0 381 322 381q8 0 17.5 -0.5t19.5 -1.5l18 62h42l-19 -65q21 -2 42 -5.5t41 -7.5v-48q-25 5 -49 9t-47 6l-181 -640q47 -19 111 -19q16 0 38 1.5t45 4.5t45 7t38 8v-46q-17 -5 -38 -9t-43 -7t-44 -4.5
t-40 -1.5zM109 369q0 -219 117 -292l177 624q-5 1 -10 1h-10q-274 0 -274 -333z" />
    <glyph glyph-name="comma" unicode="," horiz-adv-x="211" 
d="M36 -145l47 219h54l-60 -229z" />
    <glyph glyph-name="comma.tab" horiz-adv-x="268" 
d="M77 -145l50 219h56l-65 -229z" />
    <glyph glyph-name="copyright" unicode="&#xa9;" horiz-adv-x="855" 
d="M443 163q-83 0 -133 50t-50 152q0 105 50 156t133 51q22 0 43 -2.5t41 -6.5v-41q-19 4 -39.5 6.5t-40.5 2.5q-66 0 -104.5 -41t-38.5 -124q0 -84 39.5 -123t102.5 -39q20 0 41 2.5t42 6.5v-39q-41 -11 -86 -11zM428 -11q-84 0 -152.5 27.5t-117.5 77.5t-75.5 120
t-26.5 156t26.5 156t75.5 120t117.5 77.5t152.5 27.5t152 -27.5t117 -77.5t75.5 -120t26.5 -156t-26.5 -156t-75.5 -120t-117 -77.5t-152 -27.5zM428 29q75 0 136 24.5t104.5 69t67 107.5t23.5 140t-23.5 140t-67 107.5t-104.5 69t-136 24.5t-136.5 -24.5t-105 -69
t-67 -107.5t-23.5 -140t23.5 -140t67 -107.5t105 -69t136.5 -24.5z" />
    <glyph glyph-name="currency" unicode="&#xa4;" horiz-adv-x="610" 
d="M63 163l54 54l53 39q-31 46 -31 114q0 67 31 114l-53 39l-54 54l34 35l55 -55l37 -51q21 22 50.5 34t65.5 12q35 0 64 -12t51 -34l37 51l55 55l34 -35l-55 -54l-53 -39q15 -23 23.5 -51.5t8.5 -62.5t-8.5 -63t-23.5 -52l53 -38l55 -54l-34 -35l-55 55l-37 50
q-22 -22 -51 -34t-64 -12q-73 0 -117 46l-36 -50l-55 -55zM182 370q0 -67 33.5 -104t89.5 -37t89 36.5t33 104.5q0 65 -32 102.5t-90 37.5q-56 0 -89.5 -36.5t-33.5 -103.5z" />
    <glyph glyph-name="currency.ss01" horiz-adv-x="629" 
d="M311 -10q-13 0 -26.5 0.5t-27.5 0.5v-141h-49v144q-28 2 -56 4.5t-57 6.5v730q33 4 61 6t52 4v145h49v-142q12 0 23.5 0.5t23.5 0.5q31 0 60 -3v144h51v-151q78 -16 113 -61t35 -126q0 -69 -34.5 -116t-93.5 -58v-4q75 -14 114 -60.5t39 -121.5q0 -160 -173 -193v-149
h-51v142q-13 -1 -26 -1.5t-27 -0.5zM311 34q115 1 170 39.5t55 120.5q0 159 -209 159h-181v-308q26 -5 69.5 -8t95.5 -3zM324 397q101 0 144.5 35.5t43.5 118.5q0 41 -11.5 70t-36 47.5t-64 27t-95.5 8.5q-50 0 -87.5 -2t-71.5 -7v-298h178z" />
    <glyph glyph-name="d" unicode="d" horiz-adv-x="579" 
d="M274 -10q-108 0 -165 67.5t-57 211.5q0 71 18 124t51 88t79.5 52t103.5 17q41 0 77 -4t66 -7v269h50v-808h-44l-5 66h-5q-29 -37 -71 -56.5t-98 -19.5zM280 36q31 0 61.5 9t53.5 25.5t37.5 39.5t14.5 51v333q-30 5 -66.5 8t-76.5 3q-96 0 -147.5 -56t-51.5 -179
t43.5 -178.5t131.5 -55.5z" />
    <glyph glyph-name="dagger" unicode="&#x2020;" horiz-adv-x="497" 
d="M222 265v80l14 179l-155 -12h-47v50h47l155 -12l-14 179v79h52v-79l-13 -179l155 12h46v-50h-46l-155 12l13 -179v-80l-13 -200h-25z" />
    <glyph glyph-name="daggerdbl" unicode="&#x2021;" horiz-adv-x="552" 
d="M250 -119l13 179l-154 -12h-47v50h47l154 -13l-14 180v81l14 178l-154 -12h-47v50h47l154 -12l-14 179v79h52v-79l-13 -179l155 12h47v-50h-47l-155 12l14 -179v-80l-14 -180l155 13h47v-50h-47l-155 12l14 -179v-80h-52v80z" />
    <glyph glyph-name="dcaron" unicode="&#x10f;" horiz-adv-x="579" 
d="M574 808h46l-23 -228h-23v228zM274 -10q-108 0 -165 67.5t-57 211.5q0 71 18 124t51 88t79.5 52t103.5 17q41 0 77 -4t66 -7v269h50v-808h-44l-5 66h-5q-29 -37 -71 -56.5t-98 -19.5zM280 36q31 0 61.5 9t53.5 25.5t37.5 39.5t14.5 51v333q-30 5 -66.5 8t-76.5 3
q-96 0 -147.5 -56t-51.5 -179t43.5 -178.5t131.5 -55.5z" />
    <glyph glyph-name="dcroat" unicode="&#x111;" horiz-adv-x="579" 
d="M251 693h196v115h50v-115h80v-39h-80v-654h-44l-5 66h-5q-29 -37 -71 -56.5t-98 -19.5q-108 0 -165 67.5t-57 211.5q0 71 18 124t51 88t79.5 52t103.5 17q41 0 77 -4t66 -7v115h-196v39zM280 36q31 0 61.5 9t53.5 25.5t37.5 39.5t14.5 51v333q-30 5 -66.5 8t-76.5 3
q-96 0 -147.5 -56t-51.5 -179t43.5 -178.5t131.5 -55.5z" />
    <glyph glyph-name="ddotbelow" unicode="&#x1e0d;" horiz-adv-x="579" 
d="M281 -172q-19 0 -30 9t-11 32q0 22 11 31.5t30 9.5t30.5 -9t11.5 -32t-11.5 -32t-30.5 -9zM274 -10q-108 0 -165 67.5t-57 211.5q0 71 18 124t51 88t79.5 52t103.5 17q41 0 77 -4t66 -7v269h50v-808h-44l-5 66h-5q-29 -37 -71 -56.5t-98 -19.5zM280 36q31 0 61.5 9
t53.5 25.5t37.5 39.5t14.5 51v333q-30 5 -66.5 8t-76.5 3q-96 0 -147.5 -56t-51.5 -179t43.5 -178.5t131.5 -55.5z" />
    <glyph glyph-name="degree" unicode="&#xb0;" horiz-adv-x="453" 
d="M227 377q-38 0 -70 14.5t-56 39t-37.5 58t-13.5 72.5t13.5 72t37.5 58t56 39t70 14q37 0 69 -14t55.5 -39t37 -58t13.5 -72t-13.5 -72.5t-37 -58t-55.5 -39t-69 -14.5zM227 418q29 0 53.5 11t42 30t27.5 45.5t10 56.5t-10 56.5t-27.5 45.5t-42 30t-53.5 11
q-30 0 -54.5 -11t-42.5 -30t-28 -45.5t-10 -56.5t10 -56.5t28 -45.5t42.5 -30t54.5 -11z" />
    <glyph glyph-name="degree.tab" 
d="M268 377q-40 0 -74 14.5t-59 39t-39.5 58t-14.5 72.5t14.5 72t39.5 58t59 39t74 14t74 -14t59 -39t39.5 -58t14.5 -72t-14.5 -72.5t-39.5 -58t-59 -39t-74 -14.5zM268 418q31 0 57.5 11t45.5 30t29.5 45.5t10.5 56.5t-10.5 56.5t-29.5 45.5t-45.5 30t-57.5 11
q-32 0 -58 -11t-45 -30t-29.5 -45.5t-10.5 -56.5t10.5 -56.5t29.5 -45.5t45 -30t58 -11z" />
    <glyph glyph-name="divide" unicode="&#xf7;" horiz-adv-x="519" 
d="M263 180q-17 0 -26.5 9.5t-9.5 26.5t9.5 27t26.5 10q16 0 26 -10t10 -27t-10 -26.5t-26 -9.5zM73 392h374v-44h-374v44zM263 480q-17 0 -26.5 9.5t-9.5 26.5t9.5 27t26.5 10q16 0 26 -10t10 -27t-10 -26.5t-26 -9.5z" />
    <glyph glyph-name="divide.tab" 
d="M272 180q-18 0 -28.5 9.5t-10.5 26.5t10.5 27t28.5 10t29 -10t11 -27t-11 -26.5t-29 -9.5zM60 392h417v-44h-417v44zM272 480q-18 0 -28.5 9.5t-10.5 26.5t10.5 27t28.5 10t29 -10t11 -27t-11 -26.5t-29 -9.5z" />
    <glyph glyph-name="dollar" unicode="$" horiz-adv-x="555" 
d="M267 -11q-48 0 -107.5 8.5t-113.5 22.5l2 47q53 -14 112 -22.5t105 -8.5q93 0 144 38t51 108q0 39 -14.5 66.5t-40 46.5t-60 32t-73.5 25q-58 17 -98 36.5t-65 44t-36.5 55.5t-11.5 72q0 81 53.5 132t144.5 61v137h52v-134q73 -1 168 -23l-2 -48q-47 12 -93 18t-84 6
q-85 0 -135.5 -40.5t-50.5 -108.5q0 -30 9 -53.5t30 -43t55.5 -35.5t85.5 -31q46 -14 86 -30t69.5 -39.5t46.5 -58t17 -85.5q0 -82 -50 -131.5t-144 -60.5v-142h-52v139v0z" />
    <glyph glyph-name="dollar.tab" 
d="M257 -11q-53 1 -109.5 9t-107.5 22l2 47q52 -14 110 -22.5t101 -8.5q94 0 144.5 38t50.5 108q0 39 -14.5 66t-39 46t-58.5 32.5t-73 25.5q-57 17 -97 36.5t-65 44t-36 55.5t-11 72q0 81 53 132.5t142 60.5v137h52v-134q36 -1 78 -7t87 -16l-1 -48q-47 12 -92 18t-83 6
q-84 0 -134 -40.5t-50 -108.5q0 -30 9.5 -53.5t30.5 -43t55 -35.5t84 -31q45 -14 84.5 -30t68.5 -39.5t45.5 -58t16.5 -85.5q0 -82 -49.5 -131t-141.5 -60v-143h-52v139z" />
    <glyph glyph-name="dotlessi" unicode="&#x131;" horiz-adv-x="218" 
d="M83 540h51v-540h-51v540z" />
    <glyph glyph-name="dotlessj" unicode="&#x237;" horiz-adv-x="215" 
d="M7 -201q39 70 57.5 145t18.5 173v423h50v-449q0 -84 -23 -163t-67 -148z" />
    <glyph glyph-name="e" unicode="e" horiz-adv-x="523" 
d="M291 -9q-117 0 -177.5 68.5t-60.5 200.5q0 141 59 215t171 74q93 0 141.5 -60.5t48.5 -177.5q0 -44 -4 -63h-365q6 -211 192 -211q36 0 73.5 7t80.5 23l5 -44q-37 -15 -81.5 -23.5t-82.5 -8.5zM282 504q-84 0 -128.5 -54.5t-49.5 -160.5h320q-3 115 -36 165t-106 50z" />
    <glyph glyph-name="eacute" unicode="&#xe9;" horiz-adv-x="523" 
d="M259 616l74 183h53l-91 -189zM291 -9q-117 0 -177.5 68.5t-60.5 200.5q0 141 59 215t171 74q93 0 141.5 -60.5t48.5 -177.5q0 -44 -4 -63h-365q6 -211 192 -211q36 0 73.5 7t80.5 23l5 -44q-37 -15 -81.5 -23.5t-82.5 -8.5zM282 504q-84 0 -128.5 -54.5t-49.5 -160.5h320
q-3 115 -36 165t-106 50z" />
    <glyph glyph-name="ebreve" unicode="&#x115;" horiz-adv-x="523" 
d="M291 -9q-117 0 -177.5 68.5t-60.5 200.5q0 141 59 215t171 74q93 0 141.5 -60.5t48.5 -177.5q0 -44 -4 -63h-365q6 -211 192 -211q36 0 73.5 7t80.5 23l5 -44q-37 -15 -81.5 -23.5t-82.5 -8.5zM282 504q-84 0 -128.5 -54.5t-49.5 -160.5h320q-3 115 -36 165t-106 50z
M273 620q-85 0 -125.5 38t-41.5 105h44q0 -57 32 -81.5t91 -24.5q57 0 89.5 24.5t32.5 81.5h44q0 -67 -40.5 -105t-125.5 -38z" />
    <glyph glyph-name="ecaron" unicode="&#x11b;" horiz-adv-x="523" 
d="M124 752l150 -73l150 73v-51l-150 -72l-150 72v51zM291 -9q-117 0 -177.5 68.5t-60.5 200.5q0 141 59 215t171 74q93 0 141.5 -60.5t48.5 -177.5q0 -44 -4 -63h-365q6 -211 192 -211q36 0 73.5 7t80.5 23l5 -44q-37 -15 -81.5 -23.5t-82.5 -8.5zM282 504
q-84 0 -128.5 -54.5t-49.5 -160.5h320q-3 115 -36 165t-106 50z" />
    <glyph glyph-name="ecircumflex" unicode="&#xea;" horiz-adv-x="523" 
d="M123 689l151 73l150 -73v-50l-150 73l-151 -73v50zM291 -9q-117 0 -177.5 68.5t-60.5 200.5q0 141 59 215t171 74q93 0 141.5 -60.5t48.5 -177.5q0 -44 -4 -63h-365q6 -211 192 -211q36 0 73.5 7t80.5 23l5 -44q-37 -15 -81.5 -23.5t-82.5 -8.5zM282 504
q-84 0 -128.5 -54.5t-49.5 -160.5h320q-3 115 -36 165t-106 50z" />
    <glyph glyph-name="edblgrave" unicode="&#x205;" horiz-adv-x="523" 
d="M170 617l-92 189h57l73 -179zM341 617l-93 189h58l73 -179zM291 -9q-117 0 -177.5 68.5t-60.5 200.5q0 141 59 215t171 74q93 0 141.5 -60.5t48.5 -177.5q0 -44 -4 -63h-365q6 -211 192 -211q36 0 73.5 7t80.5 23l5 -44q-37 -15 -81.5 -23.5t-82.5 -8.5zM282 504
q-84 0 -128.5 -54.5t-49.5 -160.5h320q-3 115 -36 165t-106 50z" />
    <glyph glyph-name="edieresis" unicode="&#xeb;" horiz-adv-x="523" 
d="M160 661q-37 0 -37 36t37 36q16 0 26.5 -8.5t10.5 -27.5t-10.5 -27.5t-26.5 -8.5zM386 661q-17 0 -26.5 8.5t-9.5 27.5q0 18 9.5 27t26.5 9q16 0 26.5 -8.5t10.5 -27.5t-10.5 -27.5t-26.5 -8.5zM291 -9q-117 0 -177.5 68.5t-60.5 200.5q0 141 59 215t171 74
q93 0 141.5 -60.5t48.5 -177.5q0 -44 -4 -63h-365q6 -211 192 -211q36 0 73.5 7t80.5 23l5 -44q-37 -15 -81.5 -23.5t-82.5 -8.5zM282 504q-84 0 -128.5 -54.5t-49.5 -160.5h320q-3 115 -36 165t-106 50z" />
    <glyph glyph-name="edotaccent" unicode="&#x117;" horiz-adv-x="523" 
d="M291 -9q-117 0 -177.5 68.5t-60.5 200.5q0 141 59 215t171 74q93 0 141.5 -60.5t48.5 -177.5q0 -44 -4 -63h-365q6 -211 192 -211q36 0 73.5 7t80.5 23l5 -44q-37 -15 -81.5 -23.5t-82.5 -8.5zM282 504q-84 0 -128.5 -54.5t-49.5 -160.5h320q-3 115 -36 165t-106 50z
M273 658q-18 0 -28.5 9.5t-10.5 29.5q0 21 10.5 30.5t28.5 9.5q17 0 29 -9.5t12 -30.5t-12 -30t-29 -9z" />
    <glyph glyph-name="edotbelow" unicode="&#x1eb9;" horiz-adv-x="523" 
d="M291 -9q-117 0 -177.5 68.5t-60.5 200.5q0 141 59 215t171 74q93 0 141.5 -60.5t48.5 -177.5q0 -44 -4 -63h-365q6 -211 192 -211q36 0 73.5 7t80.5 23l5 -44q-37 -15 -81.5 -23.5t-82.5 -8.5zM282 504q-84 0 -128.5 -54.5t-49.5 -160.5h320q-3 115 -36 165t-106 50z
M288 -172q-19 0 -30 9t-11 32q0 22 11 31.5t30 9.5t30.5 -9t11.5 -32t-11.5 -32t-30.5 -9z" />
    <glyph glyph-name="egrave" unicode="&#xe8;" horiz-adv-x="523" 
d="M291 -9q-117 0 -177.5 68.5t-60.5 200.5q0 141 59 215t171 74q93 0 141.5 -60.5t48.5 -177.5q0 -44 -4 -63h-365q6 -211 192 -211q36 0 73.5 7t80.5 23l5 -44q-37 -15 -81.5 -23.5t-82.5 -8.5zM282 504q-84 0 -128.5 -54.5t-49.5 -160.5h320q-3 115 -36 165t-106 50z
M249 617l-91 189h59l72 -179z" />
    <glyph glyph-name="eight" unicode="8" horiz-adv-x="590" 
d="M295 -4q-111 0 -174.5 48t-63.5 146q0 46 14 80t34.5 58t44.5 39t44 24q-50 24 -82 63.5t-32 109.5q0 46 16 81t44.5 58.5t68 35t87.5 11.5q47 0 86 -11.5t67 -34.5t43.5 -58t15.5 -83q0 -42 -12 -73.5t-30 -54.5t-39.5 -38.5t-40.5 -25.5q31 -12 58.5 -27.5t47 -37.5
t31 -50.5t11.5 -67.5q0 -93 -65 -142.5t-174 -49.5zM298 353q-30 8 -56 18q-14 -6 -37 -17.5t-45 -32t-37.5 -52t-15.5 -77.5q0 -77 51.5 -114.5t136.5 -37.5q84 0 136.5 38t52.5 109q0 39 -14.5 65.5t-40 45.5t-59.5 31.5t-72 23.5zM129 563q0 -39 15 -66.5t41 -46.5
t60.5 -32t72.5 -24q9 -4 17 -5q13 6 34.5 18t41 32.5t34 50.5t14.5 72q0 74 -46 108.5t-118 34.5t-119 -35t-47 -107z" />
    <glyph glyph-name="eight.denominator" horiz-adv-x="455" 
d="M228 -3q-83 0 -131 36t-48 110q0 30 7.5 53.5t20.5 41t29.5 30t33.5 21.5q-35 18 -55.5 47t-20.5 77q0 71 45.5 106t118.5 35q71 0 115.5 -35t44.5 -106q0 -28 -7 -49.5t-18 -38.5t-25.5 -29t-29.5 -21q43 -18 71.5 -49t28.5 -84q0 -71 -49.5 -108t-130.5 -37zM228 39
q60 0 96 26.5t36 76.5q0 27 -10 45t-27.5 30.5t-42 21.5t-53.5 18l-37 12q-13 -5 -29 -14t-30.5 -23.5t-24.5 -35.5t-10 -51q0 -53 36 -79.5t96 -26.5zM255 292q12 5 26.5 14.5t28 24t22.5 34.5t9 47q0 51 -31.5 75t-81.5 24q-51 0 -83.5 -24t-32.5 -74q0 -27 10 -45.5
t27.5 -31.5t40.5 -22t49 -17z" />
    <glyph glyph-name="eight.numerator" horiz-adv-x="455" 
d="M228 197q-83 0 -131 36t-48 110q0 30 7.5 53.5t20.5 41t29.5 30t33.5 21.5q-35 18 -55.5 47t-20.5 77q0 71 45.5 106t118.5 35q71 0 115.5 -35t44.5 -106q0 -28 -7 -49.5t-18 -38.5t-25.5 -29t-29.5 -21q43 -18 71.5 -49t28.5 -84q0 -71 -49.5 -108t-130.5 -37zM228 239
q60 0 96 26.5t36 76.5q0 27 -10 45t-27.5 30.5t-42 21.5t-53.5 18l-37 12q-13 -5 -29 -14t-30.5 -23.5t-24.5 -35.5t-10 -51q0 -53 36 -79.5t96 -26.5zM255 492q12 5 26.5 14.5t28 24t22.5 34.5t9 47q0 51 -31.5 75t-81.5 24q-51 0 -83.5 -24t-32.5 -74q0 -27 10 -45.5
t27.5 -31.5t40.5 -22t49 -17z" />
    <glyph glyph-name="eight.osf" horiz-adv-x="588" 
d="M293 -4q-115 0 -176 45.5t-61 132.5q0 63 36 112.5t97 74.5q-60 28 -85 65.5t-25 92.5q0 81 56.5 126t159.5 45q101 0 156.5 -45t55.5 -127q0 -57 -32 -103.5t-87 -72.5q78 -29 111.5 -69t33.5 -100q0 -84 -63.5 -130.5t-176.5 -46.5zM297 325q-15 4 -29 8t-27 8
q-63 -20 -99 -63.5t-36 -101.5q0 -66 48.5 -101t138.5 -35q89 0 139.5 34.5t50.5 97.5q0 29 -9.5 51.5t-31.5 40.5t-57.5 32.5t-87.5 28.5zM128 517q0 -36 15 -60t40.5 -40.5t59 -28t71.5 -22.5l24 -7q53 19 86.5 62t33.5 95q0 63 -42.5 96.5t-122.5 33.5
q-78 0 -121.5 -33.5t-43.5 -95.5z" />
    <glyph glyph-name="eight.tf" 
d="M266 -4q-102 0 -161.5 48t-59.5 147q0 43 11 75.5t29 57t40 41t45 27.5q-47 25 -75.5 64.5t-28.5 107.5q0 46 15 81t42 58.5t64 35t82 11.5q44 0 80.5 -11.5t63 -34.5t41 -58t14.5 -83q0 -41 -10 -72.5t-26.5 -54.5t-36.5 -39t-39 -26q30 -13 55 -29t43 -38t28 -50.5
t10 -65.5q0 -94 -60 -143t-166 -49zM266 40q80 0 128.5 38t48.5 110q0 47 -21 76.5t-53.5 49t-72.5 32t-77 25.5q-14 -6 -35 -17.5t-41 -32t-34.5 -51.5t-14.5 -75q0 -80 47.5 -117.5t124.5 -37.5zM269 705q-68 0 -111.5 -35t-43.5 -106q0 -42 16.5 -70.5t43 -47.5t61 -32
t70.5 -25q13 6 33 18.5t38 33t31 50t13 70.5q0 74 -42.5 109t-108.5 35z" />
    <glyph glyph-name="eight.tosf" 
d="M266 -4q-107 0 -164 46t-57 131q0 64 33 113.5t92 75.5q-57 27 -80.5 64.5t-23.5 90.5q0 83 53.5 128t148.5 45q96 0 148 -44.5t52 -124.5q0 -62 -30 -107.5t-81 -71.5q72 -29 103.5 -69.5t31.5 -98.5q0 -85 -59 -131.5t-167 -46.5zM267 40q82 0 128.5 34.5t46.5 98.5
q0 42 -21 69.5t-53.5 45.5t-71.5 29.5t-74 23.5q-59 -19 -93.5 -62.5t-34.5 -102.5q0 -66 45 -101t128 -35zM267 646q-72 0 -112 -33.5t-40 -95.5q0 -36 14.5 -60t40 -42t61 -31t77.5 -26q23 9 43.5 24.5t35.5 36t24 45.5t9 54q0 61 -40 94.5t-113 33.5z" />
    <glyph glyph-name="eightinferior" unicode="&#x2088;" horiz-adv-x="455" 
d="M228 -103q-83 0 -131 36t-48 110q0 30 7.5 53.5t20.5 41t29.5 30t33.5 21.5q-35 18 -55.5 47t-20.5 77q0 71 45.5 106t118.5 35q71 0 115.5 -35t44.5 -106q0 -28 -7 -49.5t-18 -38.5t-25.5 -29t-29.5 -21q43 -18 71.5 -49t28.5 -84q0 -71 -49.5 -108t-130.5 -37zM228 -61
q60 0 96 26.5t36 76.5q0 27 -10 45t-27.5 30.5t-42 21.5t-53.5 18l-37 12q-13 -5 -29 -14t-30.5 -23.5t-24.5 -35.5t-10 -51q0 -53 36 -79.5t96 -26.5zM255 192q12 5 26.5 14.5t28 24t22.5 34.5t9 47q0 51 -31.5 75t-81.5 24q-51 0 -83.5 -24t-32.5 -74q0 -27 10 -45.5
t27.5 -31.5t40.5 -22t49 -17z" />
    <glyph glyph-name="eightsuperior" unicode="&#x2078;" horiz-adv-x="455" 
d="M228 297q-83 0 -131 36t-48 110q0 30 7.5 53.5t20.5 41t29.5 30t33.5 21.5q-35 18 -55.5 47t-20.5 77q0 71 45.5 106t118.5 35q71 0 115.5 -35t44.5 -106q0 -28 -7 -49.5t-18 -38.5t-25.5 -29t-29.5 -21q43 -18 71.5 -49t28.5 -84q0 -71 -49.5 -108t-130.5 -37zM228 339
q60 0 96 26.5t36 76.5q0 27 -10 45t-27.5 30.5t-42 21.5t-53.5 18l-37 12q-13 -5 -29 -14t-30.5 -23.5t-24.5 -35.5t-10 -51q0 -53 36 -79.5t96 -26.5zM255 592q12 5 26.5 14.5t28 24t22.5 34.5t9 47q0 51 -31.5 75t-81.5 24q-51 0 -83.5 -24t-32.5 -74q0 -27 10 -45.5
t27.5 -31.5t40.5 -22t49 -17z" />
    <glyph glyph-name="einvertedbreve" unicode="&#x207;" horiz-adv-x="523" 
d="M107 628q1 68 41.5 105.5t125.5 37.5t125.5 -37.5t40.5 -105.5h-44q0 57 -32.5 82t-89.5 25q-58 0 -90.5 -24.5t-32.5 -82.5h-44zM291 -9q-117 0 -177.5 68.5t-60.5 200.5q0 141 59 215t171 74q93 0 141.5 -60.5t48.5 -177.5q0 -44 -4 -63h-365q6 -211 192 -211
q36 0 73.5 7t80.5 23l5 -44q-37 -15 -81.5 -23.5t-82.5 -8.5zM282 504q-84 0 -128.5 -54.5t-49.5 -160.5h320q-3 115 -36 165t-106 50z" />
    <glyph glyph-name="ellipsis" unicode="&#x2026;" horiz-adv-x="596" 
d="M108 -2q-38 0 -38 39t38 39q19 0 30 -10.5t11 -28.5q0 -19 -11 -29t-30 -10zM302 -2q-38 0 -38 39t38 39q19 0 30 -10.5t11 -28.5q0 -19 -11 -29t-30 -10zM487 -2q-38 0 -38 39t38 39q19 0 30 -10.5t11 -28.5q0 -19 -11 -29t-30 -10z" />
    <glyph glyph-name="emacron" unicode="&#x113;" horiz-adv-x="523" 
d="M291 -9q-117 0 -177.5 68.5t-60.5 200.5q0 141 59 215t171 74q93 0 141.5 -60.5t48.5 -177.5q0 -44 -4 -63h-365q6 -211 192 -211q36 0 73.5 7t80.5 23l5 -44q-37 -15 -81.5 -23.5t-82.5 -8.5zM282 504q-84 0 -128.5 -54.5t-49.5 -160.5h320q-3 115 -36 165t-106 50z
M129 695h295v-44h-295v44z" />
    <glyph glyph-name="emdash" unicode="&#x2014;" horiz-adv-x="759" 
d="M74 304h611v-48h-611v48z" />
    <glyph glyph-name="endash" unicode="&#x2013;" horiz-adv-x="588" 
d="M74 304h440v-48h-440v48z" />
    <glyph glyph-name="eng" unicode="&#x14b;" horiz-adv-x="579" 
d="M381 -204q15 29 28 64.5t22 73.5t14.5 76.5t5.5 73.5v298q0 63 -23 90.5t-76 27.5q-85 0 -219 -68v-432h-51v540h42l5 -63h4q42 20 75 34t60.5 22.5t50.5 12.5t46 4q69 0 103 -36t34 -111v-328q0 -37 -6.5 -78.5t-17.5 -81t-25.5 -74.5t-30.5 -59z" />
    <glyph glyph-name="eogonek" unicode="&#x119;" horiz-adv-x="524" 
d="M291 -9q-117 0 -177.5 68.5t-60.5 200.5q0 141 59 215t171 74q93 0 141.5 -60.5t48.5 -177.5q0 -44 -4 -63h-365q6 -211 192 -211q36 0 73.5 7t80.5 23l5 -44v-21q-61 -29 -88 -57.5t-27 -61.5q0 -42 52 -42q14 0 30 2.5t32 7.5v-36q-14 -5 -32 -8.5t-36 -3.5
q-89 0 -89 78q0 34 17.5 61.5t61.5 57.5q-44 -9 -85 -9zM282 504q-84 0 -128.5 -54.5t-49.5 -160.5h320q-3 115 -36 165t-106 50z" />
    <glyph glyph-name="equal" unicode="=" horiz-adv-x="520" 
d="M74 273h372v-43h-372v43zM74 485h372v-43h-372v43z" />
    <glyph glyph-name="equal.tab" 
d="M64 273h408v-43h-408v43zM64 485h408v-43h-408v43z" />
    <glyph glyph-name="estimated" unicode="&#x212e;" horiz-adv-x="681" 
d="M347 1q-62 0 -114.5 23.5t-90.5 65.5t-60 99t-22 124q0 69 21 126.5t59 99t91 64.5t116 23t114.5 -22t89 -63t59.5 -98.5t25 -129.5h-447v-205q64 -66 159 -66q140 0 218 136l40 -24q-56 -80 -118 -116.5t-140 -36.5zM507 354v164q-71 68 -161 68q-93 0 -158 -68v-164
h319z" />
    <glyph glyph-name="eth" unicode="&#xf0;" horiz-adv-x="582" 
d="M223 675l147 18q-17 30 -37 58.5t-43 56.5h58q39 -49 71 -109l139 17v-43l-119 -15q36 -79 57 -170.5t21 -193.5q0 -148 -60 -226t-173 -78q-112 0 -172 72t-60 208t59.5 208t171.5 72q62 0 103.5 -25t68.5 -79q-18 112 -64 206l-168 -21v44zM285 36q179 0 179 254
q0 42 -11 80.5t-33 68t-56 47.5t-80 18q-179 0 -179 -234q0 -118 44 -176t136 -58z" />
    <glyph glyph-name="etilde" unicode="&#x1ebd;" horiz-adv-x="523" 
d="M291 -9q-117 0 -177.5 68.5t-60.5 200.5q0 141 59 215t171 74q93 0 141.5 -60.5t48.5 -177.5q0 -44 -4 -63h-365q6 -211 192 -211q36 0 73.5 7t80.5 23l5 -44q-37 -15 -81.5 -23.5t-82.5 -8.5zM282 504q-84 0 -128.5 -54.5t-49.5 -160.5h320q-3 115 -36 165t-106 50z
M82 680q51 56 112 56q23 0 42.5 -6.5t37.5 -15t36.5 -15t39.5 -6.5q45 0 86 38l25 -24q-23 -26 -54 -41.5t-63 -15.5q-21 0 -40 6.5t-38 15t-37.5 15t-37.5 6.5q-44 0 -85 -38z" />
    <glyph glyph-name="exclam" unicode="!" horiz-adv-x="235" 
d="M120 4q-17 0 -26.5 9.5t-9.5 26.5t9.5 27t26.5 10t27 -10t10 -27t-10 -26.5t-27 -9.5zM100 173l-9 557v10h51v-10l-8 -557v-14h-34v14z" />
    <glyph glyph-name="exclamdown" unicode="&#xa1;" horiz-adv-x="220" 
d="M113 536q17 0 27 -9.5t10 -26.5t-10 -27t-27 -10t-26.5 10t-9.5 27t9.5 26.5t26.5 9.5zM93 381h34v-14l8 -557v-10h-51v10l9 557v14z" />
    <glyph glyph-name="f" unicode="f" horiz-adv-x="341" 
d="M133 493h-116v47h117v28q0 72 9 117.5t33 72.5t66.5 39t110.5 15l2 -40q-54 -4 -87.5 -12.5t-52 -28t-25 -52.5t-6.5 -86v-53h143v-47h-143v-493h-51v493z" />
    <glyph glyph-name="f.calt" horiz-adv-x="341" 
d="M133 493h-116v47h117v28q0 72 9 117.5t33 72.5t66.5 39t110.5 15l2 -40q-54 -4 -87.5 -12.5t-52 -28t-25 -52.5t-6.5 -86v-53h143v-47h-143v-493h-51v493z" />
    <glyph glyph-name="h" unicode="h" horiz-adv-x="580" 
d="M82 808h51v-332q40 20 72.5 34t60 23t51.5 13t48 4q68 0 102.5 -35t34.5 -112v-403h-51v386q0 63 -24 90t-75 27q-44 0 -99.5 -19t-119.5 -51v-433h-51v808z" />
    <glyph glyph-name="i" unicode="i" horiz-adv-x="218" 
d="M109 668q-37 0 -37 36q0 37 37 37q38 0 38 -37q0 -36 -38 -36zM83 540h51v-540h-51v540z" />
    <glyph glyph-name="j" unicode="j" horiz-adv-x="215" 
d="M7 -200q19 34 33.5 69.5t24 74t14 81t4.5 91.5v424h50v-449q0 -84 -23.5 -163t-66.5 -148zM105 668q-37 0 -37 36q0 37 37 37q38 0 38 -37q0 -36 -38 -36z" />
    <glyph glyph-name="k" unicode="k" horiz-adv-x="522" 
d="M82 808h51v-510h108l202 242h60l-211 -253l-15 -9v-3l16 -10l226 -265h-60l-220 256h-106v-256h-51v808z" />
    <glyph glyph-name="l" unicode="l" horiz-adv-x="221" 
d="M85 808h51v-808h-51v808z" />
    <glyph glyph-name="t" unicode="t" horiz-adv-x="376" 
d="M276 -7q-141 0 -141 144v355h-119v48h121l8 125l41 7v-132h170v-48h-170v-346q0 -108 100 -108q34 0 75 12v-46q-49 -11 -85 -11z" />
    <glyph glyph-name="five" unicode="5" horiz-adv-x="507" 
d="M197 -11q-33 0 -69.5 3.5t-72.5 11.5v45h9q35 -7 67 -10.5t63 -3.5q106 0 158 41.5t52 137.5q0 44 -15 75t-45.5 50.5t-78 28.5t-111.5 10l-74 2l-6 5l27 355h327v-47h-285l-18 -268q87 -1 150 -12t103.5 -36t59.5 -65t19 -98q0 -118 -67.5 -171.5t-192.5 -53.5z" />
    <glyph glyph-name="five.denominator" horiz-adv-x="393" 
d="M156 -8q-25 0 -53 3t-57 9v43h12q49 -10 95 -10q75 0 112 28.5t37 94.5q0 62 -42 88t-133 28l-59 1l-8 7l20 262h249v-44h-208l-13 -184q129 -2 186 -37.5t57 -120.5q0 -88 -51 -128t-144 -40z" />
    <glyph glyph-name="five.numerator" horiz-adv-x="393" 
d="M156 192q-25 0 -53 3.5t-57 8.5v43h12q49 -10 95 -10q75 0 112 28.5t37 94.5q0 62 -42 88t-133 28l-59 1l-8 7l20 262h249v-44h-208l-13 -184q129 -2 186 -37.5t57 -120.5q0 -88 -51 -128t-144 -40z" />
    <glyph glyph-name="five.osf" horiz-adv-x="492" 
d="M190 -167q-34 0 -70.5 3.5t-72.5 10.5v46h10q70 -14 129 -14q106 0 158 41.5t52 137.5q0 88 -60 125t-190 39l-74 2l-6 5l27 355h328v-47h-286l-17 -269q87 -1 149.5 -12t103 -36t59.5 -65t19 -98q0 -118 -67.5 -171t-191.5 -53z" />
    <glyph glyph-name="five.tf" 
d="M209 -11q-34 0 -71.5 3.5t-74.5 11.5v45h9q36 -7 69 -10.5t65 -3.5q109 0 163.5 41.5t54.5 137.5q0 88 -63 125.5t-196 39.5l-77 2l-5 5l27 354h337v-47h-294l-18 -268q90 -1 154.5 -12t106 -36t61.5 -65t20 -98q0 -118 -69.5 -171.5t-198.5 -53.5z" />
    <glyph glyph-name="five.tosf" 
d="M209 -167q-70 0 -146 14v46h9q36 -7 69 -10.5t65 -3.5q109 0 163.5 41.5t54.5 137.5q0 44 -15.5 75t-47.5 50.5t-80.5 28.5t-115.5 10l-77 2l-5 5l27 355h337v-47h-294l-18 -269q90 -1 154.5 -12t106 -36t61.5 -65t20 -98q0 -118 -70 -171t-198 -53z" />
    <glyph glyph-name="fiveeighths" unicode="&#x215d;" horiz-adv-x="1016" 
d="M168 192q-25 0 -53 3.5t-57 8.5v43h12q49 -10 95 -10q75 0 112 28.5t37 94.5q0 62 -42 88t-133 28l-59 1l-8 7l20 262h249v-44h-208l-13 -184q129 -2 186 -37.5t57 -120.5q0 -88 -51 -128t-144 -40zM633 740h51l-345 -740h-51zM789 -3q-83 0 -131 36t-48 110
q0 30 7.5 53.5t20.5 41t29.5 30t33.5 21.5q-35 18 -55.5 47t-20.5 77q0 71 45.5 106t118.5 35q71 0 115.5 -35t44.5 -106q0 -28 -7 -49.5t-18 -38.5t-25.5 -29t-29.5 -21q43 -18 71.5 -49t28.5 -84q0 -71 -49.5 -108t-130.5 -37zM789 39q60 0 96 26.5t36 76.5q0 27 -10 45
t-27.5 30.5t-42 21.5t-53.5 18l-37 12q-13 -5 -29 -14t-30.5 -23.5t-24.5 -35.5t-10 -51q0 -53 36 -79.5t96 -26.5zM816 292q12 5 26.5 14.5t28 24t22.5 34.5t9 47q0 51 -31.5 75t-81.5 24q-51 0 -83.5 -24t-32.5 -74q0 -27 10 -45.5t27.5 -31.5t40.5 -22t49 -17z" />
    <glyph glyph-name="fraction" unicode="&#x2044;" horiz-adv-x="218" 
d="M256 740h51l-345 -740h-51z" />
    <glyph glyph-name="fiveinferior" unicode="&#x2085;" horiz-adv-x="393" 
d="M156 -108q-25 0 -53 3t-57 9v43h12q49 -10 95 -10q75 0 112 28.5t37 94.5q0 62 -42 88t-133 28l-59 1l-8 7l20 262h249v-44h-208l-13 -184q129 -2 186 -37.5t57 -120.5q0 -88 -51 -128t-144 -40z" />
    <glyph glyph-name="fivesuperior" unicode="&#x2075;" horiz-adv-x="393" 
d="M156 292q-25 0 -53 3.5t-57 8.5v43h12q49 -10 95 -10q75 0 112 28.5t37 94.5q0 62 -42 88t-133 28l-59 1l-8 7l20 262h249v-44h-208l-13 -184q129 -2 186 -37.5t57 -120.5q0 -88 -51 -128t-144 -40z" />
    <glyph glyph-name="florin" unicode="&#x192;" horiz-adv-x="370" 
d="M146 493h-116v47h117v28q0 72 9 117.5t33 72.5t66.5 39t110.5 15l3 -40q-54 -4 -88 -12.5t-52.5 -28t-25 -52.5t-6.5 -86v-53h143v-47h-143v-680l-51 -33v713z" />
    <glyph glyph-name="four" unicode="4" horiz-adv-x="576" 
d="M26 215v5l249 530h5l40 -11l1 -5l-233 -497v-5h295l16 271h34v-271h112v-45h-112v-187h-50v187h-339z" />
    <glyph glyph-name="four.denominator" horiz-adv-x="442" 
d="M284 136h-244l-16 29l184 388l8 1l33 -9l1 -10l-169 -357h205l12 197h33v-197h81v-42h-81v-136h-47v136z" />
    <glyph glyph-name="four.numerator" horiz-adv-x="442" 
d="M284 336h-244l-16 29l184 388l8 1l33 -9l1 -10l-169 -357h205l12 197h33v-197h81v-42h-81v-136h-47v136z" />
    <glyph glyph-name="four.osf" horiz-adv-x="576" 
d="M26 57v5l249 528h4l41 -10l1 -6l-234 -494v-5h295v20l17 250h34v-270h111v-46h-111v-190h-51v190h-338z" />
    <glyph glyph-name="four.tf" 
d="M17 215v5l239 530h5l40 -11l2 -5l-226 -497v-5h284l15 271h34v-271h107v-45h-107v-187h-51v187h-325z" />
    <glyph glyph-name="four.tosf" 
d="M15 57v5l240 528h4l41 -10l2 -6l-226 -494v-5h283l1 30l14 240h34v-270h107v-46h-107v-190h-50v190h-326z" />
    <glyph glyph-name="fourinferior" unicode="&#x2084;" horiz-adv-x="442" 
d="M284 36h-244l-16 29l184 388l8 1l33 -9l1 -10l-169 -357h205l12 197h33v-197h81v-42h-81v-136h-47v136z" />
    <glyph glyph-name="foursuperior" unicode="&#x2074;" horiz-adv-x="442" 
d="M284 436h-244l-16 29l184 388l8 1l33 -9l1 -10l-169 -357h205l12 197h33v-197h81v-42h-81v-136h-47v136z" />
    <glyph glyph-name="franc" unicode="&#x20a3;" horiz-adv-x="629" 
d="M35 172h111v568h435v-47h-383v-293h351v-47h-351v-181h119v-43h-119v-129h-52v129h-111v43z" />
    <glyph glyph-name="g" unicode="g" horiz-adv-x="579" 
d="M254 -219q-42 0 -84.5 6t-78.5 17l4 46q38 -11 78.5 -17.5t79.5 -6.5q44 0 79.5 10.5t61 35.5t40 66.5t14.5 103.5v28h-4q-29 -38 -71.5 -57.5t-98.5 -19.5q-109 0 -165.5 66.5t-56.5 210.5q0 71 18 123.5t51 87.5t79.5 52t103.5 17q47 0 99 -5.5t95 -16.5v-480
q0 -80 -19 -131.5t-52 -81.5t-77.5 -42t-95.5 -12zM280 38q31 0 61.5 9t53.5 25.5t37.5 40t14.5 51.5v330q-31 5 -67 8t-76 3q-95 0 -147 -56t-52 -178q0 -123 43.5 -178t131.5 -55z" />
    <glyph glyph-name="gacute" unicode="&#x1f5;" horiz-adv-x="579" 
d="M284 616l74 183h53l-91 -189zM254 -219q-42 0 -84.5 6t-78.5 17l4 46q38 -11 78.5 -17.5t79.5 -6.5q44 0 79.5 10.5t61 35.5t40 66.5t14.5 103.5v28h-4q-29 -38 -71.5 -57.5t-98.5 -19.5q-109 0 -165.5 66.5t-56.5 210.5q0 71 18 123.5t51 87.5t79.5 52t103.5 17
q47 0 99 -5.5t95 -16.5v-480q0 -80 -19 -131.5t-52 -81.5t-77.5 -42t-95.5 -12zM280 38q31 0 61.5 9t53.5 25.5t37.5 40t14.5 51.5v330q-31 5 -67 8t-76 3q-95 0 -147 -56t-52 -178q0 -123 43.5 -178t131.5 -55z" />
    <glyph glyph-name="gbreve" unicode="&#x11f;" horiz-adv-x="579" 
d="M254 -219q-42 0 -84.5 6t-78.5 17l4 46q38 -11 78.5 -17.5t79.5 -6.5q44 0 79.5 10.5t61 35.5t40 66.5t14.5 103.5v28h-4q-29 -38 -71.5 -57.5t-98.5 -19.5q-109 0 -165.5 66.5t-56.5 210.5q0 71 18 123.5t51 87.5t79.5 52t103.5 17q47 0 99 -5.5t95 -16.5v-480
q0 -80 -19 -131.5t-52 -81.5t-77.5 -42t-95.5 -12zM280 38q31 0 61.5 9t53.5 25.5t37.5 40t14.5 51.5v330q-31 5 -67 8t-76 3q-95 0 -147 -56t-52 -178q0 -123 43.5 -178t131.5 -55zM301 620q-85 0 -125.5 38t-41.5 105h44q0 -57 32 -81.5t91 -24.5q57 0 89.5 24.5
t32.5 81.5h44q0 -67 -40.5 -105t-125.5 -38z" />
    <glyph glyph-name="gcircumflex" unicode="&#x11d;" horiz-adv-x="579" 
d="M151 689l151 73l150 -73v-50l-150 73l-151 -73v50zM254 -219q-42 0 -84.5 6t-78.5 17l4 46q38 -11 78.5 -17.5t79.5 -6.5q44 0 79.5 10.5t61 35.5t40 66.5t14.5 103.5v28h-4q-29 -38 -71.5 -57.5t-98.5 -19.5q-109 0 -165.5 66.5t-56.5 210.5q0 71 18 123.5t51 87.5
t79.5 52t103.5 17q47 0 99 -5.5t95 -16.5v-480q0 -80 -19 -131.5t-52 -81.5t-77.5 -42t-95.5 -12zM280 38q31 0 61.5 9t53.5 25.5t37.5 40t14.5 51.5v330q-31 5 -67 8t-76 3q-95 0 -147 -56t-52 -178q0 -123 43.5 -178t131.5 -55z" />
    <glyph glyph-name="gcommaaccent" unicode="&#x123;" horiz-adv-x="579" 
d="M409 800l-50 -150h-54l58 150h46zM254 -219q-42 0 -84.5 6t-78.5 17l4 46q38 -11 78.5 -17.5t79.5 -6.5q44 0 79.5 10.5t61 35.5t40 66.5t14.5 103.5v28h-4q-29 -38 -71.5 -57.5t-98.5 -19.5q-109 0 -165.5 66.5t-56.5 210.5q0 71 18 123.5t51 87.5t79.5 52t103.5 17
q47 0 99 -5.5t95 -16.5v-480q0 -80 -19 -131.5t-52 -81.5t-77.5 -42t-95.5 -12zM280 38q31 0 61.5 9t53.5 25.5t37.5 40t14.5 51.5v330q-31 5 -67 8t-76 3q-95 0 -147 -56t-52 -178q0 -123 43.5 -178t131.5 -55z" />
    <glyph glyph-name="gdotaccent" unicode="&#x121;" horiz-adv-x="579" 
d="M254 -219q-42 0 -84.5 6t-78.5 17l4 46q38 -11 78.5 -17.5t79.5 -6.5q44 0 79.5 10.5t61 35.5t40 66.5t14.5 103.5v28h-4q-29 -38 -71.5 -57.5t-98.5 -19.5q-109 0 -165.5 66.5t-56.5 210.5q0 71 18 123.5t51 87.5t79.5 52t103.5 17q47 0 99 -5.5t95 -16.5v-480
q0 -80 -19 -131.5t-52 -81.5t-77.5 -42t-95.5 -12zM280 38q31 0 61.5 9t53.5 25.5t37.5 40t14.5 51.5v330q-31 5 -67 8t-76 3q-95 0 -147 -56t-52 -178q0 -123 43.5 -178t131.5 -55zM300 658q-18 0 -28.5 9.5t-10.5 29.5q0 21 10.5 30.5t28.5 9.5q17 0 29 -9.5t12 -30.5
t-12 -30t-29 -9z" />
    <glyph glyph-name="germandbls" unicode="&#xdf;" horiz-adv-x="601" 
d="M82 599q0 113 52.5 162t157.5 49q106 0 158.5 -50t52.5 -161v-91h-95q-66 0 -100.5 -26t-34.5 -75q0 -29 11 -47.5t29.5 -30t42.5 -18.5t51 -13q32 -8 61 -18t50.5 -27.5t34 -43.5t12.5 -66q0 -72 -49 -113t-134 -41q-16 0 -32 1t-35.5 4t-43.5 7.5l-56 10.5v45
q90 -24 165 -24q65 0 99.5 28.5t34.5 79.5q0 28 -9.5 47t-26 31.5t-38.5 20.5t-48 14q-30 6 -60.5 14t-54.5 24t-39.5 43t-15.5 72q0 69 49 107.5t134 38.5h47v46q0 89 -38.5 126.5t-120.5 37.5q-83 0 -121.5 -37.5t-38.5 -126.5v-599h-51v599z" />
    <glyph glyph-name="germandbls.sc" horiz-adv-x="1000" 
d="M238 -9q-41 0 -92 7t-99 18l2 44q47 -11 98 -18t89 -7q81 0 125 28.5t44 81.5q0 30 -12.5 50t-34.5 33.5t-51 23.5t-62 19q-51 13 -86.5 28t-57 34t-31.5 44t-10 57q0 35 15 63.5t42 49t65 31.5t85 11q70 0 159 -18l-1 -45q-41 10 -81.5 15t-73.5 5q-73 0 -116 -30
t-43 -81q0 -23 8 -41t26.5 -32t48 -26t72.5 -23q39 -11 74 -23t60.5 -30.5t40.5 -46t15 -67.5q0 -75 -56 -115t-162 -40zM738 -9q-41 0 -92 7t-99 18l2 44q47 -11 98 -18t89 -7q81 0 125 28.5t44 81.5q0 30 -12.5 50t-34.5 33.5t-51 23.5t-62 19q-51 13 -86.5 28t-57 34
t-31.5 44t-10 57q0 35 15 63.5t42 49t65 31.5t85 11q70 0 159 -18l-1 -45q-41 10 -81.5 15t-73.5 5q-73 0 -116 -30t-43 -81q0 -23 8 -41t26.5 -32t48 -26t72.5 -23q39 -11 74 -23t60.5 -30.5t40.5 -46t15 -67.5q0 -75 -56 -115t-162 -40z" />
    <glyph glyph-name="greater" unicode="&#x3e;" horiz-adv-x="500" 
d="M77 227l314 139l-317 140v48l377 -168v-39l-374 -168v48z" />
    <glyph glyph-name="greater.tab" 
d="M79 227l341 140l-344 139v48l409 -168v-39l-406 -168v48z" />
    <glyph glyph-name="greaterequal" unicode="&#x2265;" horiz-adv-x="527" 
d="M82 557l376 -164v-39l-374 -164v48l317 135l-319 136v48zM71 126h375v-43h-375v43z" />
    <glyph glyph-name="guillemotleft" unicode="&#xab;" horiz-adv-x="564" 
d="M37 268v4l180 238h57l-180 -238v-4l180 -238h-57zM277 268v4l180 238h57l-180 -238v-4l180 -238h-57z" />
    <glyph glyph-name="guilsinglleft" unicode="&#x2039;" horiz-adv-x="324" 
d="M37 268v4l180 238h57l-180 -238v-4l180 -238h-57z" />
    <glyph glyph-name="guillemotright" unicode="&#xbb;" horiz-adv-x="564" 
d="M108 30h-57l180 238v4l-180 238h57l180 -238v-4zM347 30h-57l180 238v4l-180 238h57l180 -238v-4z" />
    <glyph glyph-name="guilsinglright" unicode="&#x203a;" horiz-adv-x="324" 
d="M107 30h-57l180 238v4l-180 238h57l180 -238v-4z" />
    <glyph glyph-name="hbar" unicode="&#x127;" horiz-adv-x="580" 
d="M-17 693h99v115h51v-115h177v-39h-177v-178q40 20 72.5 34t60 23t51.5 13t48 4q68 0 102.5 -35t34.5 -112v-403h-51v386q0 63 -24 90t-75 27q-44 0 -99.5 -19t-119.5 -51v-433h-51v654h-99v39z" />
    <glyph glyph-name="hcircumflex" unicode="&#x125;" horiz-adv-x="580" 
d="M156 890l151 73l150 -73v-50l-150 73l-151 -73v50zM82 808h51v-332q40 20 72.5 34t60 23t51.5 13t48 4q68 0 102.5 -35t34.5 -112v-403h-51v386q0 63 -24 90t-75 27q-44 0 -99.5 -19t-119.5 -51v-433h-51v808z" />
    <glyph glyph-name="hdotbelow" unicode="&#x1e25;" horiz-adv-x="580" 
d="M82 808h51v-332q40 20 72.5 34t60 23t51.5 13t48 4q68 0 102.5 -35t34.5 -112v-403h-51v386q0 63 -24 90t-75 27q-44 0 -99.5 -19t-119.5 -51v-433h-51v808zM292 -172q-19 0 -30 9t-11 32q0 22 11 31.5t30 9.5t30.5 -9t11.5 -32t-11.5 -32t-30.5 -9z" />
    <glyph glyph-name="hungarumlaut" unicode="&#x2dd;" horiz-adv-x="399" 
d="M53 627l73 179h58l-92 -189zM224 627l73 179h57l-92 -189z" />
    <glyph glyph-name="hyphen" unicode="-" horiz-adv-x="434" 
d="M72 304h290v-48h-290v48z" />
    <glyph glyph-name="iacute" unicode="&#xed;" horiz-adv-x="218" 
d="M93 616l74 183h53l-91 -189zM83 540h51v-540h-51v540z" />
    <glyph glyph-name="ibreve" unicode="&#x12d;" horiz-adv-x="218" 
d="M110 620q-81 0 -121 38t-40 105h41q0 -57 31.5 -81.5t88.5 -24.5t88.5 24.5t31.5 81.5h41q0 -67 -39.5 -105t-121.5 -38zM83 540h51v-540h-51v540z" />
    <glyph glyph-name="icircumflex" unicode="&#xee;" horiz-adv-x="218" 
d="M-39 689l149 73l149 -73v-50l-149 73l-149 -73v50zM83 540h51v-540h-51v540z" />
    <glyph glyph-name="idblgrave" unicode="&#x209;" horiz-adv-x="218" 
d="M9 617l-92 189h57l73 -179zM180 617l-93 189h58l73 -179zM83 540h51v-540h-51v540z" />
    <glyph glyph-name="idieresis" unicode="&#xef;" horiz-adv-x="218" 
d="M-2 661q-37 0 -37 36t37 36q16 0 26.5 -8.5t10.5 -27.5t-10.5 -27.5t-26.5 -8.5zM221 661q-36 0 -36 36t36 36q16 0 26.5 -8.5t10.5 -27.5t-10.5 -27.5t-26.5 -8.5zM83 540h51v-540h-51v540z" />
    <glyph glyph-name="idotbelow" unicode="&#x1ecb;" horiz-adv-x="218" 
d="M109 668q-37 0 -37 36q0 37 37 37q38 0 38 -37q0 -36 -38 -36zM83 540h51v-540h-51v540zM109 -172q-19 0 -30 9t-11 32q0 22 11 31.5t30 9.5t30.5 -9t11.5 -32t-11.5 -32t-30.5 -9z" />
    <glyph glyph-name="igrave" unicode="&#xec;" horiz-adv-x="218" 
d="M83 540h51v-540h-51v540zM87 617l-91 189h59l72 -179z" />
    <glyph glyph-name="iinvertedbreve" unicode="&#x20b;" horiz-adv-x="218" 
d="M-49 628q0 68 40 105.5t121 37.5q82 0 122 -37.5t40 -105.5h-41q-1 57 -32.5 82t-88.5 25t-88.5 -24.5t-31.5 -82.5h-41zM83 540h51v-540h-51v540z" />
    <glyph glyph-name="ij" unicode="&#x133;" horiz-adv-x="432" 
d="M109 668q-37 0 -37 36q0 37 37 37q38 0 38 -37q0 -36 -38 -36zM83 540h51v-540h-51v540zM225 -200q19 34 33.5 69.5t24 74t14 81t4.5 91.5v424h50v-449q0 -84 -23.5 -163t-66.5 -148zM323 668q-37 0 -37 36q0 37 37 37q38 0 38 -37q0 -36 -38 -36z" />
    <glyph glyph-name="imacron" unicode="&#x12b;" horiz-adv-x="218" 
d="M83 540h51v-540h-51v540zM-33 695h295v-44h-295v44z" />
    <glyph glyph-name="infinity" unicode="&#x221e;" horiz-adv-x="894" 
d="M235 144q-39 0 -72 12.5t-56.5 35t-36.5 53.5t-13 69q0 34 13.5 63.5t37.5 51.5t56.5 34t70.5 12q59 0 113.5 -31.5t98.5 -91.5q45 58 98.5 90.5t114.5 32.5q38 0 70.5 -12t56 -34t37 -51.5t13.5 -63.5q0 -38 -13 -69t-36.5 -53.5t-56 -35t-71.5 -12.5q-28 0 -52.5 6.5
t-49 22.5t-51.5 42.5t-60 65.5q-23 -27 -46 -52t-48 -44t-53.5 -30t-64.5 -11zM237 186q21 0 40.5 6.5t41 21.5t46 40t55.5 62q-81 117 -183 117q-29 0 -53 -9t-42 -25t-28 -38t-10 -47q0 -57 37 -92.5t96 -35.5zM658 186q59 0 95.5 35.5t36.5 92.5q0 25 -10 47t-28 38
t-42 25t-52 9q-51 0 -98.5 -29.5t-85.5 -88.5q31 -36 55.5 -61t46 -40t41.5 -21.5t41 -6.5z" />
    <glyph glyph-name="integral" unicode="&#x222b;" horiz-adv-x="313" 
d="M92 -200q-18 0 -36 2.5t-35 7.5l8 38q31 -6 57 -6q33 0 54.5 14.5t21.5 58.5v13l-53 695q-1 5 -1 9.5v9.5q0 61 29 89t77 28q18 0 37 -2.5t40 -9.5l-6 -36q-35 11 -60 11q-29 0 -49.5 -17t-20.5 -64v-8t1 -8l52 -699q0 -4 0.5 -8t0.5 -8q0 -32 -9.5 -53t-25.5 -34
t-37 -18t-45 -5z" />
    <glyph glyph-name="iogonek" unicode="&#x12f;" horiz-adv-x="218" 
d="M83 540h51v-561q-61 -29 -88 -57.5t-27 -61.5q0 -42 52 -42q14 0 30 2.5t32 7.5v-36q-14 -5 -32 -8.5t-36 -3.5q-89 0 -89 78q0 40 25.5 72t90.5 70h-9v540zM109 668q-37 0 -37 36q0 37 37 37q38 0 38 -37q0 -36 -38 -36z" />
    <glyph glyph-name="itilde" unicode="&#x129;" horiz-adv-x="218" 
d="M-79 680q51 56 111 56q23 0 42 -6.5t37 -15t36.5 -15t39.5 -6.5q45 0 85 38l25 -24q-23 -26 -53.5 -41.5t-62.5 -15.5q-20 0 -39 6.5t-38 15t-37.5 15t-37.5 6.5q-44 0 -84 -38zM83 540h51v-540h-51v540z" />
    <glyph glyph-name="jcircumflex" unicode="&#x135;" horiz-adv-x="214" 
d="M-42 693l149 73l149 -73v-50l-149 73l-149 -73v50zM7 -201q39 70 57.5 145t18.5 173v423h50v-449q0 -84 -23 -163t-67 -148z" />
    <glyph glyph-name="kcommaaccent" unicode="&#x137;" horiz-adv-x="522" 
d="M273 -69h54l-58 -151h-47zM82 808h51v-510h108l202 242h60l-211 -253l-15 -9v-3l16 -10l226 -265h-60l-220 256h-106v-256h-51v808z" />
    <glyph glyph-name="kgreenlandic" unicode="&#x138;" horiz-adv-x="528" 
d="M82 540h51v-242h150l161 242h58l-171 -253l-15 -9v-3l16 -10l187 -265h-58l-180 256h-148v-256h-51v540z" />
    <glyph glyph-name="lacute" unicode="&#x13a;" horiz-adv-x="221" 
d="M94 846l74 183h53l-91 -189zM85 808h51v-808h-51v808z" />
    <glyph glyph-name="lcaron" unicode="&#x13e;" horiz-adv-x="221" 
d="M212 808h46l-23 -228h-23v228zM85 808h51v-808h-51v808z" />
    <glyph glyph-name="lcommaaccent" unicode="&#x13c;" horiz-adv-x="221" 
d="M96 -69h54l-58 -151h-47zM85 808h51v-808h-51v808z" />
    <glyph glyph-name="ldot" unicode="&#x140;" horiz-adv-x="252" 
d="M85 808h51v-808h-51v808zM236 330q-18 0 -28.5 9.5t-10.5 30.5t10.5 30.5t28.5 9.5q17 0 29 -9.5t12 -30.5t-12 -30.5t-29 -9.5z" />
    <glyph glyph-name="less" unicode="&#x3c;" horiz-adv-x="500" 
d="M49 347v39l377 168v-48l-318 -140l315 -139v-48z" />
    <glyph glyph-name="less.tab" 
d="M53 347v39l406 168v-48l-343 -139l340 -140v-48z" />
    <glyph glyph-name="lessequal" unicode="&#x2264;" horiz-adv-x="528" 
d="M75 393l377 164v-48l-319 -136l316 -135v-48l-374 164v39zM75 126h375v-43h-375v43z" />
    <glyph glyph-name="lira" unicode="&#x20a4;" horiz-adv-x="620" 
d="M64 470h152v57q0 111 44.5 164.5t148.5 53.5q33 0 72.5 -7t87.5 -22l-10 -45q-87 26 -146 26q-80 0 -113 -40t-33 -131v-56h214l-6 -41h-208v-127h203l-7 -40h-196v-214h288v-48h-491v48h152v214h-152v40h152v127h-152v41z" />
    <glyph glyph-name="logicalnot" unicode="&#xac;" horiz-adv-x="790" 
d="M71 422h641v-303h-51v256h-590v47z" />
    <glyph glyph-name="lozenge" unicode="&#x25ca;" horiz-adv-x="527" 
d="M38 366v9l192 365h67l193 -365v-9l-193 -366h-67zM438 370l-174 334l-176 -334l176 -335z" />
    <glyph glyph-name="lslash" unicode="&#x142;" horiz-adv-x="286" 
d="M25 311l93 63v434h51v-399l99 68v-49l-99 -68v-360h-51v326l-93 -63v48z" />
    <glyph glyph-name="m" unicode="m" horiz-adv-x="872" 
d="M82 540h41l6 -63h4q33 19 60 33t50 23t43.5 13t40.5 4q100 0 126 -75h4q35 21 63 35.5t51.5 23t44 12.5t40.5 4q68 0 102.5 -35t34.5 -112v-403h-51v386q0 63 -24 90t-75 27q-36 0 -80 -18t-99 -50v-435h-51v386q0 63 -24 90t-75 27q-38 0 -83.5 -18.5t-97.5 -50.5v-434
h-51v540z" />
    <glyph glyph-name="minus" unicode="&#x2212;" horiz-adv-x="522" 
d="M74 392h374v-44h-374v44z" />
    <glyph glyph-name="minus.tab" 
d="M85 392h366v-44h-366v44z" />
    <glyph glyph-name="mu" unicode="&#xb5;" horiz-adv-x="605" 
d="M90 540h51v-387q0 -61 22 -89t70 -28q54 0 106.5 20.5t119.5 52.5v431h51v-540h-42l-5 67h-4q-42 -20 -74 -34.5t-59 -24t-52 -14t-54 -4.5q-48 0 -79 20v-230h-51v760z" />
    <glyph glyph-name="multiply" unicode="&#xd7;" horiz-adv-x="460" 
d="M67 238l133 133l-133 133l30 31l133 -134l133 134l31 -31l-133 -133l133 -133l-30 -31l-134 133l-133 -133z" />
    <glyph glyph-name="multiply.tab" 
d="M84 238l150 133l-150 133l32 31l152 -135l152 135l33 -31l-151 -133l151 -133l-33 -31l-152 134l-152 -134z" />
    <glyph glyph-name="n" unicode="n" horiz-adv-x="580" 
d="M82 540h42l5 -63h5q40 19 73 33t60.5 23t51 13t46.5 4q68 0 102.5 -35t34.5 -112v-403h-51v386q0 63 -24 90t-75 27q-44 0 -100 -19t-119 -51v-433h-51v540z" />
    <glyph glyph-name="nacute" unicode="&#x144;" horiz-adv-x="580" 
d="M279 616l74 183h53l-91 -189zM82 540h42l5 -63h5q40 19 73 33t60.5 23t51 13t46.5 4q68 0 102.5 -35t34.5 -112v-403h-51v386q0 63 -24 90t-75 27q-44 0 -100 -19t-119 -51v-433h-51v540z" />
    <glyph glyph-name="napostrophe" unicode="&#x149;" horiz-adv-x="641" 
d="M92 808v-4l-26 -224h-24v228h50zM143 540h42l5 -63h5q40 19 73 33t60.5 23t51 13t46.5 4q68 0 102.5 -35t34.5 -112v-403h-51v386q0 63 -24 90t-75 27q-44 0 -100 -19t-119 -51v-433h-51v540z" />
    <glyph glyph-name="ncaron" unicode="&#x148;" horiz-adv-x="580" 
d="M145 752l150 -73l150 73v-51l-150 -72l-150 72v51zM82 540h42l5 -63h5q40 19 73 33t60.5 23t51 13t46.5 4q68 0 102.5 -35t34.5 -112v-403h-51v386q0 63 -24 90t-75 27q-44 0 -100 -19t-119 -51v-433h-51v540z" />
    <glyph glyph-name="ncommaaccent" unicode="&#x146;" horiz-adv-x="580" 
d="M274 -69h54l-58 -151h-47zM82 540h42l5 -63h5q40 19 73 33t60.5 23t51 13t46.5 4q68 0 102.5 -35t34.5 -112v-403h-51v386q0 63 -24 90t-75 27q-44 0 -100 -19t-119 -51v-433h-51v540z" />
    <glyph glyph-name="ndotaccent" unicode="&#x1e45;" horiz-adv-x="580" 
d="M295 658q-18 0 -28.5 9.5t-10.5 29.5q0 21 10.5 30.5t28.5 9.5q17 0 29 -9.5t12 -30.5t-12 -30t-29 -9zM82 540h42l5 -63h5q40 19 73 33t60.5 23t51 13t46.5 4q68 0 102.5 -35t34.5 -112v-403h-51v386q0 63 -24 90t-75 27q-44 0 -100 -19t-119 -51v-433h-51v540z" />
    <glyph glyph-name="nine" unicode="9" horiz-adv-x="593" 
d="M282 752q125 0 188.5 -84.5t63.5 -252.5q0 -101 -21.5 -180.5t-62 -134.5t-99.5 -83.5t-135 -28.5q-29 0 -58.5 4t-63.5 13l2 47q35 -10 62.5 -14t56.5 -4q121 0 190 89t77 252q-45 -39 -98.5 -61t-110.5 -22q-50 0 -91.5 14t-71.5 41.5t-47 68t-17 92.5q0 54 17 99
t48 77.5t74.5 50t96.5 17.5zM282 335q50 0 104.5 23t96.5 62q-1 146 -50.5 216t-150.5 70q-42 0 -75.5 -14t-57.5 -40.5t-37 -63.5t-13 -82q0 -81 48 -126t135 -45z" />
    <glyph glyph-name="six" unicode="6" horiz-adv-x="592" 
d="M311 -12q-125 0 -188.5 84.5t-63.5 252.5q0 101 21.5 180.5t62 134t99.5 83.5t135 29q29 0 58.5 -4t63.5 -13l-2 -47q-35 10 -62.5 14t-56.5 4q-121 0 -190 -89t-77 -252q45 39 98.5 61t110.5 22q49 0 91 -14t72 -41.5t47 -68t17 -92.5q0 -54 -17 -99t-48 -77.5
t-74.5 -50t-96.5 -17.5zM311 405q-50 0 -104.5 -23t-96.5 -62q1 -146 50.5 -216t150.5 -70q42 0 75.5 14t57.5 40.5t37 63.5t13 82q0 81 -48 126t-135 45z" />
    <glyph glyph-name="nine.denominator" horiz-adv-x="456" 
d="M169 -8q-40 0 -95 13l3 45q29 -8 49.5 -11t41.5 -3q83 0 132.5 60t57.5 169q-35 -26 -73 -39.5t-72 -13.5q-80 0 -126.5 42.5t-46.5 117.5q0 41 12.5 75t36 58t56 37t72.5 13q94 0 141.5 -62.5t47.5 -186.5q0 -150 -61.5 -232t-175.5 -82zM218 253q33 0 71 16.5t70 42.5
q-1 199 -142 199q-59 0 -94 -38t-35 -101q0 -56 34 -87.5t96 -31.5z" />
    <glyph glyph-name="nine.numerator" horiz-adv-x="456" 
d="M169 192q-40 0 -95 13l3 45q29 -8 49.5 -11t41.5 -3q83 0 132.5 60t57.5 169q-35 -26 -73 -39.5t-72 -13.5q-80 0 -126.5 42.5t-46.5 117.5q0 41 12.5 75t36 58t56 37t72.5 13q94 0 141.5 -62.5t47.5 -186.5q0 -150 -61.5 -232t-175.5 -82zM218 453q33 0 71 16.5t70 42.5
q-1 199 -142 199q-59 0 -94 -38t-35 -101q0 -56 34 -87.5t96 -31.5z" />
    <glyph glyph-name="nine.osf" horiz-adv-x="579" 
d="M275 590q253 0 253 -319q0 -92 -21.5 -163.5t-62 -121t-99.5 -75.5t-135 -26q-57 0 -122 16l2 47q35 -9 62.5 -13t56.5 -4q120 0 189.5 82.5t77.5 233.5q-48 -38 -101.5 -58t-108.5 -20q-105 0 -165.5 53t-60.5 145q0 49 17 90.5t48 70.5t74 45.5t96 16.5zM276 212
q50 0 104.5 20t96.5 52v1q0 134 -49.5 196.5t-152.5 62.5q-42 0 -75.5 -13t-57 -36.5t-36.5 -56.5t-13 -74q0 -72 48 -112t135 -40z" />
    <glyph glyph-name="six.osf" horiz-adv-x="590" 
d="M310 -13q-253 0 -253 319q0 92 21.5 163.5t62 121t99.5 75.5t135 26q57 0 122 -16l-2 -47q-35 9 -62.5 13t-56.5 4q-120 0 -189.5 -82.5t-77.5 -233.5q48 38 101.5 58t108.5 20q105 0 165.5 -53t60.5 -145q0 -50 -17 -91t-48 -70t-74.5 -45.5t-95.5 -16.5zM309 365
q-50 0 -104.5 -20t-96.5 -52v-1q0 -134 49.5 -196.5t152.5 -62.5q42 0 75.5 13t57 36.5t36.5 56.5t13 74q0 72 -48 112t-135 40z" />
    <glyph glyph-name="nine.tf" 
d="M255 752q115 0 173 -84.5t58 -252.5q0 -101 -19.5 -180.5t-56.5 -134.5t-91.5 -83.5t-123.5 -28.5q-27 0 -54.5 4t-58.5 13l3 47q32 -10 57 -14t51 -4q108 0 170.5 88t70.5 248q-42 -37 -90.5 -57.5t-94.5 -20.5q-48 0 -87 15t-66.5 42.5t-42.5 67t-15 89.5
q0 55 15.5 100.5t44 78t68.5 50t89 17.5zM255 335q44 0 93 23t87 61q-1 147 -45 217t-135 70q-38 0 -68 -14t-51.5 -40.5t-33 -63t-11.5 -81.5q0 -81 43 -126.5t121 -45.5z" />
    <glyph glyph-name="nine.tosf" 
d="M255 590q232 0 232 -318q0 -92 -19.5 -164t-56.5 -121.5t-91.5 -75.5t-123.5 -26q-52 0 -113 16l3 47q32 -8 57 -12.5t51 -4.5q109 0 171.5 82t69.5 231q-41 -35 -89.5 -55t-95.5 -20q-97 0 -154 52t-57 143q0 51 15.5 92.5t44 71t68.5 46t88 16.5zM256 212q45 0 93.5 19
t87.5 51q-1 138 -45.5 200t-135.5 62q-75 0 -119.5 -49t-44.5 -131q0 -72 43 -112t121 -40z" />
    <glyph glyph-name="nineinferior" unicode="&#x2089;" horiz-adv-x="456" 
d="M169 -108q-21 0 -43.5 3t-51.5 9l3 46q29 -8 49.5 -11t41.5 -3q83 0 132.5 60t57.5 169q-35 -26 -73 -39.5t-72 -13.5q-80 0 -126.5 42.5t-46.5 117.5q0 41 12.5 75t36 58t56 37t72.5 13q94 0 141.5 -62.5t47.5 -186.5q0 -150 -61.5 -232t-175.5 -82zM218 153
q33 0 71 16.5t70 42.5q-1 199 -142 199q-59 0 -94 -38t-35 -101q0 -56 34 -87.5t96 -31.5z" />
    <glyph glyph-name="ninesuperior" unicode="&#x2079;" horiz-adv-x="456" 
d="M169 292q-40 0 -95 13l3 45q29 -8 49.5 -11t41.5 -3q83 0 132.5 60t57.5 169q-35 -26 -73 -39.5t-72 -13.5q-80 0 -126.5 42.5t-46.5 117.5q0 41 12.5 75t36 58t56 37t72.5 13q94 0 141.5 -62.5t47.5 -186.5q0 -150 -61.5 -232t-175.5 -82zM218 553q33 0 71 16.5t70 42.5
q-1 199 -142 199q-59 0 -94 -38t-35 -101q0 -56 34 -87.5t96 -31.5z" />
    <glyph glyph-name="notequal" unicode="&#x2260;" horiz-adv-x="460" 
d="M44 485h200l26 98l41 -11l-24 -87h128v-43h-139l-45 -169h184v-43h-196l-27 -104l-41 11l25 93h-132v43h143l45 169h-188v43z" />
    <glyph glyph-name="ntilde" unicode="&#xf1;" horiz-adv-x="580" 
d="M82 540h42l5 -63h5q40 19 73 33t60.5 23t51 13t46.5 4q68 0 102.5 -35t34.5 -112v-403h-51v386q0 63 -24 90t-75 27q-44 0 -100 -19t-119 -51v-433h-51v540zM105 680q51 56 112 56q23 0 42.5 -6.5t37.5 -15t36.5 -15t39.5 -6.5q45 0 86 38l25 -24q-23 -26 -54 -41.5
t-63 -15.5q-21 0 -40 6.5t-38 15t-37.5 15t-37.5 6.5q-44 0 -85 -38z" />
    <glyph glyph-name="numbersign" unicode="#" horiz-adv-x="541" 
d="M323 239h-139l-19 -239h-45l19 239h-86v43h90l14 176h-104v43h108l20 239h44l-20 -239h140l20 239h44l-20 -239h99v-43h-102l-14 -176h115v-43h-119l-19 -239h-45zM188 282h139l14 176h-139z" />
    <glyph glyph-name="numbersign.tab" 
d="M323 239h-143l-20 -239h-45l20 239h-90v43h93l15 176h-108v43h112l21 239h44l-20 -239h144l20 239h45l-20 -239h101v-43h-105l-15 -176h119v-43h-122l-20 -239h-46zM184 282h143l15 176h-144z" />
    <glyph glyph-name="o" unicode="o" horiz-adv-x="569" 
d="M285 -10q-113 0 -173 72t-60 208t60 208t173 72q112 0 172 -72t60 -208t-60 -208t-172 -72zM285 36q91 0 135 57.5t44 176.5t-44 176.5t-135 57.5t-135.5 -57.5t-44.5 -176.5q0 -234 180 -234z" />
    <glyph glyph-name="oacute" unicode="&#xf3;" horiz-adv-x="569" 
d="M264 616l74 183h53l-91 -189zM285 -10q-113 0 -173 72t-60 208t60 208t173 72q112 0 172 -72t60 -208t-60 -208t-172 -72zM285 36q91 0 135 57.5t44 176.5t-44 176.5t-135 57.5t-135.5 -57.5t-44.5 -176.5q0 -234 180 -234z" />
    <glyph glyph-name="obreve" unicode="&#x14f;" horiz-adv-x="569" 
d="M285 -10q-113 0 -173 72t-60 208t60 208t173 72q112 0 172 -72t60 -208t-60 -208t-172 -72zM285 36q91 0 135 57.5t44 176.5t-44 176.5t-135 57.5t-135.5 -57.5t-44.5 -176.5q0 -234 180 -234zM282 620q-85 0 -125.5 38t-41.5 105h44q0 -57 32 -81.5t91 -24.5
q57 0 89.5 24.5t32.5 81.5h44q0 -67 -40.5 -105t-125.5 -38z" />
    <glyph glyph-name="ocircumflex" unicode="&#xf4;" horiz-adv-x="569" 
d="M131 689l151 73l150 -73v-50l-150 73l-151 -73v50zM285 -10q-113 0 -173 72t-60 208t60 208t173 72q112 0 172 -72t60 -208t-60 -208t-172 -72zM285 36q91 0 135 57.5t44 176.5t-44 176.5t-135 57.5t-135.5 -57.5t-44.5 -176.5q0 -234 180 -234z" />
    <glyph glyph-name="odblgrave" unicode="&#x20d;" horiz-adv-x="569" 
d="M180 617l-92 189h57l73 -179zM351 617l-93 189h58l73 -179zM285 -10q-113 0 -173 72t-60 208t60 208t173 72q112 0 172 -72t60 -208t-60 -208t-172 -72zM285 36q91 0 135 57.5t44 176.5t-44 176.5t-135 57.5t-135.5 -57.5t-44.5 -176.5q0 -234 180 -234z" />
    <glyph glyph-name="odieresis" unicode="&#xf6;" horiz-adv-x="569" 
d="M168 661q-37 0 -37 36t37 36q16 0 26.5 -8.5t10.5 -27.5t-10.5 -27.5t-26.5 -8.5zM394 661q-17 0 -26.5 8.5t-9.5 27.5q0 18 9.5 27t26.5 9q16 0 26.5 -8.5t10.5 -27.5t-10.5 -27.5t-26.5 -8.5zM285 -10q-113 0 -173 72t-60 208t60 208t173 72q112 0 172 -72t60 -208
t-60 -208t-172 -72zM285 36q91 0 135 57.5t44 176.5t-44 176.5t-135 57.5t-135.5 -57.5t-44.5 -176.5q0 -234 180 -234z" />
    <glyph glyph-name="odotbelow" unicode="&#x1ecd;" horiz-adv-x="569" 
d="M285 -172q-19 0 -30 9t-11 32q0 22 11 31.5t30 9.5t30.5 -9t11.5 -32t-11.5 -32t-30.5 -9zM285 -10q-113 0 -173 72t-60 208t60 208t173 72q112 0 172 -72t60 -208t-60 -208t-172 -72zM285 36q91 0 135 57.5t44 176.5t-44 176.5t-135 57.5t-135.5 -57.5t-44.5 -176.5
q0 -234 180 -234z" />
    <glyph glyph-name="oe" unicode="&#x153;" horiz-adv-x="937" 
d="M704 -9q-83 0 -136 36t-75 103h-5q-23 -67 -74 -103.5t-129 -36.5q-113 0 -173 72t-60 208t60 208t173 72q78 0 130 -38t74 -107h5q23 69 74 106.5t129 37.5q92 0 140.5 -61t48.5 -176q0 -44 -4 -63h-365q6 -212 192 -212q36 0 73.5 7t80.5 23l5 -44q-37 -15 -81.5 -23.5
t-82.5 -8.5zM285 36q91 0 135 57.5t44 176.5t-44 176.5t-135 57.5t-135.5 -57.5t-44.5 -176.5q0 -234 180 -234zM837 289q-3 115 -36 165t-105 50q-84 0 -129 -54.5t-50 -160.5h320z" />
    <glyph glyph-name="ograve" unicode="&#xf2;" horiz-adv-x="569" 
d="M285 -10q-113 0 -173 72t-60 208t60 208t173 72q112 0 172 -72t60 -208t-60 -208t-172 -72zM285 36q91 0 135 57.5t44 176.5t-44 176.5t-135 57.5t-135.5 -57.5t-44.5 -176.5q0 -234 180 -234zM258 617l-91 189h59l72 -179z" />
    <glyph glyph-name="ohungarumlaut" unicode="&#x151;" horiz-adv-x="569" 
d="M175 627l73 179h58l-92 -189zM346 627l73 179h57l-92 -189zM285 -10q-113 0 -173 72t-60 208t60 208t173 72q112 0 172 -72t60 -208t-60 -208t-172 -72zM285 36q91 0 135 57.5t44 176.5t-44 176.5t-135 57.5t-135.5 -57.5t-44.5 -176.5q0 -234 180 -234z" />
    <glyph glyph-name="oinvertedbreve" unicode="&#x20f;" horiz-adv-x="569" 
d="M117 628q1 68 41.5 105.5t125.5 37.5t125.5 -37.5t40.5 -105.5h-44q0 57 -32.5 82t-89.5 25q-58 0 -90.5 -24.5t-32.5 -82.5h-44zM285 -10q-113 0 -173 72t-60 208t60 208t173 72q112 0 172 -72t60 -208t-60 -208t-172 -72zM285 36q91 0 135 57.5t44 176.5t-44 176.5
t-135 57.5t-135.5 -57.5t-44.5 -176.5q0 -234 180 -234z" />
    <glyph glyph-name="omacron" unicode="&#x14d;" horiz-adv-x="569" 
d="M139 695h295v-44h-295v44zM285 -10q-113 0 -173 72t-60 208t60 208t173 72q112 0 172 -72t60 -208t-60 -208t-172 -72zM285 36q91 0 135 57.5t44 176.5t-44 176.5t-135 57.5t-135.5 -57.5t-44.5 -176.5q0 -234 180 -234z" />
    <glyph glyph-name="one" unicode="1" horiz-adv-x="376" 
d="M223 673h-4l-176 -99h-7l-9 32v5l209 129h39v-740h-52v673z" />
    <glyph glyph-name="one.denominator" horiz-adv-x="301" 
d="M170 487l-127 -70h-9l-8 26v8l157 95h34v-546h-47v487z" />
    <glyph glyph-name="one.numerator" horiz-adv-x="301" 
d="M170 687l-127 -70h-9l-8 26v8l157 95h34v-546h-47v487z" />
    <glyph glyph-name="one.osf" horiz-adv-x="367" 
d="M227 513h-4l-176 -92h-7l-10 32v4l210 122h38v-579h-51v513z" />
    <glyph glyph-name="one.tf" 
d="M330 673h-4l-224 -99h-8l-12 32v5l262 129h39v-740h-53v673z" />
    <glyph glyph-name="one.tosf" 
d="M338 513h-5l-223 -92h-9l-12 32l1 4l262 122h39v-579h-53v513z" />
    <glyph glyph-name="oneeighth" unicode="&#x215b;" horiz-adv-x="949" 
d="M721 -3q-83 0 -131 36t-48 110q0 30 7.5 53.5t20.5 41t29.5 30t33.5 21.5q-35 18 -55.5 47t-20.5 77q0 71 45.5 106t118.5 35q71 0 115.5 -35t44.5 -106q0 -28 -7 -49.5t-18 -38.5t-25.5 -29t-29.5 -21q43 -18 71.5 -49t28.5 -84q0 -71 -49.5 -108t-130.5 -37zM721 39
q60 0 96 26.5t36 76.5q0 27 -10 45t-27.5 30.5t-42 21.5t-53.5 18l-37 12q-13 -5 -29 -14t-30.5 -23.5t-24.5 -35.5t-10 -51q0 -53 36 -79.5t96 -26.5zM748 292q12 5 26.5 14.5t28 24t22.5 34.5t9 47q0 51 -31.5 75t-81.5 24q-51 0 -83.5 -24t-32.5 -74q0 -27 10 -45.5
t27.5 -31.5t40.5 -22t49 -17zM552 740h51l-345 -740h-51zM174 687l-127 -70h-9l-8 26v8l157 95h34v-546h-47v487z" />
    <glyph glyph-name="onehalf" unicode="&#xbd;" horiz-adv-x="945" 
d="M577 74q0 32 8 59t26 51.5t47 47.5t71 48q31 18 52.5 34t35 31t19 31t5.5 34q0 97 -111 97q-28 0 -60.5 -5t-69.5 -14l-8 43q79 21 141 21q155 0 155 -140q0 -26 -6.5 -47t-21.5 -40.5t-40.5 -39.5t-63.5 -42q-36 -22 -60 -41t-39 -37.5t-21.5 -39t-6.5 -45.5v-34h262
v-44h-314v72zM552 740h51l-345 -740h-51zM174 687l-127 -70h-9l-8 26v8l157 95h34v-546h-47v487z" />
    <glyph glyph-name="two.denominator" horiz-adv-x="406" 
d="M44 74q0 32 8 59t26 51.5t47 47.5t71 48q31 18 52.5 34t35 31t19 31t5.5 34q0 97 -111 97q-28 0 -60.5 -5t-69.5 -14l-8 43q79 21 141 21q155 0 155 -140q0 -26 -6.5 -47t-21.5 -40.5t-40.5 -39.5t-63.5 -42q-36 -22 -60 -41t-39 -37.5t-21.5 -39t-6.5 -45.5v-34h262v-44
h-314v72z" />
    <glyph glyph-name="oneinferior" unicode="&#x2081;" horiz-adv-x="301" 
d="M170 387l-127 -70h-9l-8 26v8l157 95h34v-546h-47v487z" />
    <glyph glyph-name="onequarter" unicode="&#xbc;" horiz-adv-x="907" 
d="M747 136h-244l-16 29l184 388l8 1l33 -9l1 -10l-169 -357h205l12 197h33v-197h81v-42h-81v-136h-47v136zM552 740h51l-345 -740h-51zM174 687l-127 -70h-9l-8 26v8l157 95h34v-546h-47v487z" />
    <glyph glyph-name="onesuperior" unicode="&#xb9;" horiz-adv-x="301" 
d="M170 787l-127 -70h-9l-8 26v8l157 95h34v-546h-47v487z" />
    <glyph glyph-name="onethird" unicode="&#x2153;" horiz-adv-x="917" 
d="M552 740h51l-345 -740h-51zM174 687l-127 -70h-9l-8 26v8l157 95h34v-546h-47v487zM682 -7q-24 0 -51 3t-53 8v43h8q17 -4 44.5 -6.5t47.5 -2.5q69 0 105 30t36 85q0 51 -33.5 78t-99.5 27h-52v41h51q58 0 88.5 27t30.5 78t-30.5 78t-91.5 27q-17 0 -41.5 -2.5
t-53.5 -7.5h-9l-2 43q26 6 54 9t54 3q81 0 125 -39t44 -111q0 -45 -20.5 -76.5t-58.5 -46.5q45 -13 69 -47t24 -86q0 -75 -47.5 -115t-137.5 -40z" />
    <glyph glyph-name="three.denominator" horiz-adv-x="387" 
d="M154 -7q-24 0 -51 3t-53 8v43h8q17 -4 44.5 -6.5t47.5 -2.5q69 0 105 30t36 85q0 51 -33.5 78t-99.5 27h-52v41h51q58 0 88.5 27t30.5 78t-30.5 78t-91.5 27q-17 0 -41.5 -2.5t-53.5 -7.5h-9l-2 43q26 6 54 9t54 3q81 0 125 -39t44 -111q0 -45 -20.5 -76.5t-58.5 -46.5
q45 -13 69 -47t24 -86q0 -75 -47.5 -115t-137.5 -40z" />
    <glyph glyph-name="oogonek" unicode="&#x1eb;" horiz-adv-x="569" 
d="M279 -202q-89 0 -89 78q0 32 16.5 59t56.5 56q-103 7 -157 78.5t-54 200.5q0 136 60 208t173 72q112 0 172 -72t60 -208q0 -116 -44 -185.5t-127 -87.5q-60 -29 -86.5 -57.5t-26.5 -61.5q0 -42 52 -42q14 0 30 2.5t32 7.5v-36q-14 -5 -32 -8.5t-36 -3.5zM285 36
q91 0 135 57.5t44 176.5t-44 176.5t-135 57.5t-135.5 -57.5t-44.5 -176.5q0 -234 180 -234z" />
    <glyph glyph-name="ordfeminine" unicode="&#xaa;" horiz-adv-x="426" 
d="M164 348q-50 0 -81.5 28t-31.5 73q0 49 39.5 79t117.5 38l99 9v40q0 46 -24 65.5t-86 19.5q-14 0 -37.5 -1.5t-65.5 -8.5l-7 44q43 7 73 9.5t52 2.5q76 0 108.5 -29.5t32.5 -94.5v-270h-40l-5 47h-4q-45 -26 -77 -38.5t-63 -12.5zM172 389q26 0 56 10t79 33v104l-54 -3
q-44 -3 -73.5 -8.5t-47.5 -14.5t-25.5 -23t-7.5 -33q0 -65 73 -65z" />
    <glyph glyph-name="ordmasculine" unicode="&#xba;" horiz-adv-x="461" 
d="M231 387q27 0 50.5 8t41 26.5t27.5 49t10 75.5t-10 75.5t-27.5 49t-41 26.5t-50.5 8t-50.5 -8t-41 -26.5t-28 -49t-10.5 -75.5t10.5 -75.5t28 -49t41 -26.5t50.5 -8zM231 345q-82 0 -129.5 49.5t-47.5 151.5t47.5 151.5t129.5 49.5q81 0 128.5 -49.5t47.5 -151.5
t-47.5 -151.5t-128.5 -49.5z" />
    <glyph glyph-name="oslash" unicode="&#xf8;" horiz-adv-x="575" 
d="M102 80q-47 71 -47 190q0 135 59.5 207.5t172.5 72.5q100 0 158 -58l40 48h54l-67 -80q48 -69 48 -190q0 -135 -59.5 -207.5t-173.5 -72.5q-99 0 -158 57l-40 -47h-54zM107 270q0 -95 28 -150l280 336q-45 48 -128 48q-93 0 -136.5 -58t-43.5 -176zM287 36q93 0 136.5 58
t43.5 176q0 94 -28 150l-280 -336q45 -48 128 -48z" />
    <glyph glyph-name="oslashacute" unicode="&#x1ff;" horiz-adv-x="575" 
d="M102 80q-47 71 -47 190q0 135 59.5 207.5t172.5 72.5q100 0 158 -58l40 48h54l-67 -80q48 -69 48 -190q0 -135 -59.5 -207.5t-173.5 -72.5q-99 0 -158 57l-40 -47h-54zM107 270q0 -95 28 -150l280 336q-45 48 -128 48q-93 0 -136.5 -58t-43.5 -176zM287 36q93 0 136.5 58
t43.5 176q0 94 -28 150l-280 -336q45 -48 128 -48zM271 616l74 183h53l-91 -189z" />
    <glyph glyph-name="otilde" unicode="&#xf5;" horiz-adv-x="569" 
d="M285 -10q-113 0 -173 72t-60 208t60 208t173 72q112 0 172 -72t60 -208t-60 -208t-172 -72zM285 36q91 0 135 57.5t44 176.5t-44 176.5t-135 57.5t-135.5 -57.5t-44.5 -176.5q0 -234 180 -234zM91 680q51 56 112 56q23 0 42.5 -6.5t37.5 -15t36.5 -15t39.5 -6.5
q45 0 86 38l25 -24q-23 -26 -54 -41.5t-63 -15.5q-21 0 -40 6.5t-38 15t-37.5 15t-37.5 6.5q-44 0 -85 -38z" />
    <glyph glyph-name="p" unicode="p" horiz-adv-x="580" 
d="M82 540h44l5 -63h5q29 35 71.5 54t98.5 19q108 0 164.5 -67t56.5 -210q0 -138 -66.5 -210.5t-187.5 -72.5q-40 0 -76 4t-64 7v-221h-51v760zM274 34q96 0 148 57t52 181q0 123 -43.5 177.5t-131.5 54.5q-32 0 -61.5 -9t-53 -25t-37.5 -38.5t-14 -49.5v-336q29 -5 66 -8.5
t75 -3.5z" />
    <glyph glyph-name="paragraph" unicode="&#xb6;" horiz-adv-x="569" 
d="M363 0h-40v266q-9 -1 -22 -1h-21q-54 0 -98 12.5t-75 40.5t-48 74t-17 113t17 113t48 74t75.5 40.5t98.5 12.5q21 0 40 -2.5t42 -7.5v-735zM467 0h-44v735h44v-735z" />
    <glyph glyph-name="paragraph.tab" 
d="M343 0h-40v266q-9 -1 -21.5 -1h-20.5q-52 0 -94 12.5t-71.5 40.5t-45.5 74t-16 113t16 113t46 74t72 40.5t94 12.5q21 0 39.5 -2.5t41.5 -7.5v-735zM443 0h-44v735h44v-735z" />
    <glyph glyph-name="parenleft" unicode="(" horiz-adv-x="279" 
d="M207 -160q-77 110 -117 242t-40 272q0 141 40 272.5t117 241.5h48v-4q-77 -109 -117.5 -238.5t-40.5 -271.5q0 -143 40.5 -272t117.5 -238v-4h-48v0z" />
    <glyph glyph-name="parenleft.sc" horiz-adv-x="278" 
d="M192 -125q-65 86 -99.5 189t-34.5 212q0 110 34.5 212.5t99.5 188.5h47v-3q-66 -85 -101 -186.5t-35 -211.5q0 -111 35 -212t101 -186v-3h-47v0z" />
    <glyph glyph-name="parenright" unicode=")" horiz-adv-x="279" 
d="M24 -160v4q77 109 117 238t40 272q0 142 -40 271.5t-117 238.5v4h48q77 -110 117 -241.5t40 -272.5q0 -140 -40 -272t-117 -242h-48z" />
    <glyph glyph-name="parenright.sc" horiz-adv-x="278" 
d="M39 -125v3q66 85 100.5 186t34.5 212q0 110 -34.5 211.5t-100.5 186.5v3h46q66 -86 100 -188.5t34 -212.5q0 -109 -34 -212t-100 -189h-46z" />
    <glyph glyph-name="partialdiff" unicode="&#x2202;" horiz-adv-x="563" 
d="M274 -4q-51 0 -92 20.5t-70 55.5t-44.5 82.5t-15.5 101.5q0 52 16 95.5t44.5 75t68.5 49t88 17.5q51 0 93.5 -20.5t79.5 -55.5q-12 134 -62 208.5t-130 74.5q-18 0 -38.5 -5t-41 -14t-39.5 -20.5t-32 -24.5l-24 28q15 16 36.5 30.5t45.5 25.5t48.5 17.5t46.5 6.5
q57 0 102 -28.5t76.5 -81.5t48 -130t16.5 -174q0 -81 -16 -143.5t-45 -104.5t-69.5 -64t-90.5 -22zM273 41q81 0 127 72t46 215v18.5t-1 19.5q-35 38 -76.5 60.5t-94.5 22.5q-38 0 -69.5 -14.5t-54 -40t-35.5 -61t-13 -77.5q0 -45 12 -84t34 -68.5t53.5 -46t71.5 -16.5z" />
    <glyph glyph-name="percent" unicode="%" horiz-adv-x="908" 
d="M211 279q-82 0 -124.5 59.5t-42.5 176.5q0 116 42.5 175.5t124.5 59.5q83 0 125 -59.5t42 -175.5q0 -117 -42 -176.5t-125 -59.5zM211 322q122 0 122 193q0 192 -122 192t-122 -192q0 -193 122 -193zM697 -11q-82 0 -124.5 59t-42.5 177q0 116 42.5 175.5t124.5 59.5
q83 0 125 -59.5t42 -175.5q0 -236 -167 -236zM697 32q122 0 122 193q0 95 -31 143.5t-91 48.5t-91 -48.5t-31 -143.5q0 -193 122 -193zM601 740h51l-345 -740h-52z" />
    <glyph glyph-name="percent.tab" 
d="M81 281q-63 0 -95 59t-32 175q0 115 32 174t95 59t95.5 -59t32.5 -174q0 -116 -32.5 -175t-95.5 -59zM81 322q89 0 89 193q0 192 -89 192q-88 0 -88 -192q0 -193 88 -193zM456 -9q-128 0 -128 234q0 115 32.5 174t95.5 59t95 -59t32 -174q0 -116 -32 -175t-95 -59z
M456 32q88 0 88 193q0 95 -22 143.5t-66 48.5q-45 0 -67 -48.5t-22 -143.5q0 -193 89 -193zM375 740h44l-257 -740h-46z" />
    <glyph glyph-name="period.tab" horiz-adv-x="268" 
d="M133 -2q-19 0 -30 10t-11 29t11 29t30 10t30.5 -10.5t11.5 -28.5q0 -19 -11.5 -29t-30.5 -10z" />
    <glyph glyph-name="periodcentered.tab" horiz-adv-x="268" 
d="M133 330q-19 0 -30 9.5t-11 30.5t11 30.5t30 9.5q18 0 30.5 -9.5t12.5 -30.5t-12.5 -30.5t-30.5 -9.5z" />
    <glyph glyph-name="perthousand" unicode="&#x2030;" horiz-adv-x="1306" 
d="M211 279q-82 0 -124.5 59.5t-42.5 176.5q0 116 42.5 175.5t124.5 59.5q83 0 125 -59.5t42 -175.5q0 -117 -42 -176.5t-125 -59.5zM211 322q122 0 122 193q0 192 -122 192t-122 -192q0 -193 122 -193zM697 -11q-82 0 -124.5 59t-42.5 177q0 116 42.5 175.5t124.5 59.5
q83 0 125 -59.5t42 -175.5q0 -236 -167 -236zM697 32q122 0 122 193q0 95 -31 143.5t-91 48.5t-91 -48.5t-31 -143.5q0 -193 122 -193zM1095 -11q-82 0 -124.5 59t-42.5 177q0 116 42.5 175.5t124.5 59.5q83 0 125 -59.5t42 -175.5q0 -117 -42 -176.5t-125 -59.5zM1095 32
q122 0 122 193q0 95 -31 143.5t-91 48.5t-91 -48.5t-31 -143.5q0 -193 122 -193zM601 740h51l-345 -740h-52z" />
    <glyph glyph-name="pi" unicode="&#x3c0;" horiz-adv-x="726" 
d="M204 494h-28q-51 0 -78.5 -19.5t-39.5 -63.5l-41 17q16 58 54 85t101 27h509l20 -19v-27h-147v-373q0 -35 20.5 -55.5t52.5 -20.5h10t10 1v-46q-2 -1 -12.5 -1h-13.5q-56 0 -87 30t-31 87v378h-248v-596h-51v596z" />
    <glyph glyph-name="plus" unicode="+" horiz-adv-x="479" 
d="M52 392h166v173h43v-173h165v-44h-165v-173h-43v173h-166v44z" />
    <glyph glyph-name="plus.tab" 
d="M57 392h188v173h47v-173h188v-44h-188v-173h-47v173h-188v44z" />
    <glyph glyph-name="plusminus" unicode="&#xb1;" horiz-adv-x="531" 
d="M79 451h165v173h43v-173h164v-43h-164v-172h-43v172h-165v43zM79 149h373v-43h-373v43z" />
    <glyph glyph-name="plusminus.tab" 
d="M65 451h180v173h45v-173h180v-43h-180v-172h-45v172h-180v43zM65 149h405v-43h-405v43z" />
    <glyph glyph-name="product" unicode="&#x220f;" horiz-adv-x="742" 
d="M100 740h543v-843h-51v797h-442v-797h-50v843z" />
    <glyph glyph-name="q" unicode="q" horiz-adv-x="579" 
d="M448 66q-62 -76 -174 -76q-222 0 -222 279q0 136 65.5 208.5t187.5 72.5q24 0 50.5 -1.5t52 -4t48.5 -6t41 -7.5v-751h-49v286zM280 36q34 0 64.5 9.5t53 26.5t35.5 40t13 50v332q-43 6 -77 8.5t-65 2.5q-199 0 -199 -235q0 -121 42 -177.5t133 -56.5z" />
    <glyph glyph-name="question" unicode="?" horiz-adv-x="436" 
d="M147 374q31 8 66 19.5t65 31.5t50 50.5t20 77.5q0 44 -14 73t-36.5 46.5t-51 25t-56.5 7.5q-38 0 -73.5 -7t-71.5 -18l-12 43q35 12 76.5 20t85.5 8q37 0 73 -9.5t64.5 -32t46.5 -60.5t18 -94q0 -54 -19.5 -91t-49.5 -61t-66 -38.5t-69 -23.5v-180h-43zM173 1
q-36 0 -36 35q0 37 36 37q17 0 27 -10t10 -27t-10 -26t-27 -9z" />
    <glyph glyph-name="questiondown" unicode="&#xbf;" horiz-adv-x="429" 
d="M286 172q-31 -8 -66 -19.5t-65 -31.5t-50 -51t-20 -77q0 -44 14 -73t36.5 -46.5t51 -25t56.5 -7.5q38 0 73.5 7t71.5 18l12 -43q-35 -12 -76.5 -20t-85.5 -8q-37 0 -73 9.5t-64.5 32t-46.5 60.5t-18 94q0 54 19.5 91t49.5 61t66 38.5t69 23.5v180h43zM260 545
q36 0 36 -35q0 -37 -36 -37q-17 0 -27 10t-10 27t10 26t27 9z" />
    <glyph glyph-name="quotedbl" unicode="&#x22;" horiz-adv-x="349" 
d="M124 808v-4l-25 -324h-25v328h50zM287 808v-4l-25 -324h-25v328h50z" />
    <glyph glyph-name="quotesingle" unicode="'" horiz-adv-x="185" 
d="M124 808v-4l-25 -324h-25v328h50z" />
    <glyph glyph-name="quotedbl.tab" horiz-adv-x="268" 
d="M62 808v-4l-32 -324h-24v328h56zM279 808v-4l-32 -324h-25v328h57z" />
    <glyph glyph-name="quotedblbase" unicode="&#x201e;" horiz-adv-x="407" 
d="M111 153q7 -21 10.5 -45t3.5 -55q0 -47 -13.5 -98t-36.5 -87l-29 7q16 39 25 85t9 87q0 43 -17 96zM317 153q7 -21 10.5 -45t3.5 -55q0 -47 -13.5 -98t-36.5 -87l-29 7q16 39 25 85t9 87q0 43 -17 96z" />
    <glyph glyph-name="quoteright" unicode="&#x2019;" horiz-adv-x="193" 
d="M121 811q7 -21 10.5 -45t3.5 -55q0 -47 -13.5 -98t-36.5 -87l-29 7q16 39 25 85t9 87q0 43 -17 96z" />
    <glyph glyph-name="quotedblleft" unicode="&#x201c;" horiz-adv-x="399" 
d="M75 526q-13 40 -13 99q0 48 13 99t36 87l29 -8q-15 -38 -24 -84t-9 -87q0 -46 16 -97zM281 526q-13 40 -13 99q0 48 13 99t36 87l29 -8q-15 -38 -24 -84t-9 -87q0 -46 16 -97z" />
    <glyph glyph-name="quoteleft" unicode="&#x2018;" horiz-adv-x="193" 
d="M75 526q-13 40 -13 99q0 48 13 99t36 87l29 -8q-15 -38 -24 -84t-9 -87q0 -46 16 -97l-48 -9v0z" />
    <glyph glyph-name="quotedblright" unicode="&#x201d;" horiz-adv-x="399" 
d="M121 811q7 -21 10.5 -45t3.5 -55q0 -47 -13.5 -98t-36.5 -87l-29 7q16 39 25 85t9 87q0 43 -17 96zM327 811q7 -21 10.5 -45t3.5 -55q0 -47 -13.5 -98t-36.5 -87l-29 7q16 39 25 85t9 87q0 43 -17 96z" />
    <glyph glyph-name="quotesinglbase" unicode="&#x201a;" horiz-adv-x="200" 
d="M111 153q7 -21 10.5 -45t3.5 -55q0 -47 -13.5 -98t-36.5 -87l-29 7q16 39 25 85t9 87q0 43 -17 96z" />
    <glyph glyph-name="quotesingle.tab" horiz-adv-x="268" 
d="M167 808v-4l-27 -324h-25v328h52z" />
    <glyph glyph-name="r" unicode="r" horiz-adv-x="363" 
d="M82 540h42l5 -72h4q63 32 110 53t91 28h17v-52h-18q-47 -6 -98 -26.5t-102 -46.5v-424h-51v540z" />
    <glyph glyph-name="racute" unicode="&#x155;" horiz-adv-x="363" 
d="M193 616l74 183h53l-91 -189zM82 540h42l5 -72h4q63 32 110 53t91 28h17v-52h-18q-47 -6 -98 -26.5t-102 -46.5v-424h-51v540z" />
    <glyph glyph-name="radical" unicode="&#x221a;" horiz-adv-x="673" 
d="M132 428l-93 -42l-19 41l138 61l214 -449l236 810h50l-249 -849h-70z" />
    <glyph glyph-name="rcaron" unicode="&#x159;" horiz-adv-x="363" 
d="M61 752l150 -73l150 73v-51l-150 -72l-150 72v51zM82 540h42l5 -72h4q63 32 110 53t91 28h17v-52h-18q-47 -6 -98 -26.5t-102 -46.5v-424h-51v540z" />
    <glyph glyph-name="rcommaaccent" unicode="&#x157;" horiz-adv-x="363" 
d="M91 -69h54l-58 -151h-47zM82 540h42l5 -72h4q63 32 110 53t91 28h17v-52h-18q-47 -6 -98 -26.5t-102 -46.5v-424h-51v540z" />
    <glyph glyph-name="rdblgrave" unicode="&#x211;" horiz-adv-x="363" 
d="M109 617l-92 189h57l73 -179zM280 617l-93 189h58l73 -179zM82 540h42l5 -72h4q63 32 110 53t91 28h17v-52h-18q-47 -6 -98 -26.5t-102 -46.5v-424h-51v540z" />
    <glyph glyph-name="rdotbelow" unicode="&#x1e5b;" horiz-adv-x="363" 
d="M82 540h42l5 -72h4q63 32 110 53t91 28h17v-52h-18q-47 -6 -98 -26.5t-102 -46.5v-424h-51v540zM107 -172q-19 0 -30 9t-11 32q0 22 11 31.5t30 9.5t30.5 -9t11.5 -32t-11.5 -32t-30.5 -9z" />
    <glyph glyph-name="registered" unicode="&#xae;" horiz-adv-x="732" 
d="M253 621q27 3 50 5t43 2q81 0 118.5 -26t37.5 -83q0 -78 -76 -100l-1 -4l90 -137h-45l-85 132h-94v-132h-38v343zM350 445q114 0 114 74q0 39 -27 56t-87 17q-12 0 -26 -1t-33 -3v-141q11 -1 27 -1.5t32 -0.5zM366 139q-67 0 -123 23t-97 63.5t-64 97t-23 122.5
q0 67 23 123.5t64 97.5t97 64t123 23q66 0 122.5 -23t98 -64t64.5 -97.5t23 -123.5q0 -66 -23 -122.5t-64.5 -97t-98 -63.5t-122.5 -23zM366 177q58 0 107.5 20t85.5 55.5t56 84.5t20 108q0 58 -20 107.5t-56 85.5t-85.5 56.5t-107.5 20.5q-59 0 -108.5 -20.5t-85 -56.5
t-55.5 -85.5t-20 -107.5q0 -59 20 -108t55.5 -84.5t85 -55.5t108.5 -20z" />
    <glyph glyph-name="rinvertedbreve" unicode="&#x213;" horiz-adv-x="364" 
d="M46 628q1 68 41.5 105.5t125.5 37.5t125.5 -37.5t40.5 -105.5h-44q0 57 -32.5 82t-89.5 25q-58 0 -90.5 -24.5t-32.5 -82.5h-44zM82 540h42l5 -72h4q63 32 110 53t91 28h17v-52h-18q-47 -6 -98 -26.5t-102 -46.5v-424h-51v540z" />
    <glyph glyph-name="s" unicode="s" horiz-adv-x="443" 
d="M215 -11q-16 0 -32 1t-35.5 4t-43.5 7.5l-56 10.5v47q45 -12 86.5 -18.5t77.5 -6.5q66 0 100.5 28t34.5 79q0 28 -9.5 47t-26 31.5t-38.5 20.5t-48 14q-30 6 -60 14t-54.5 24t-40 43t-15.5 72q0 69 49 107.5t134 38.5q15 0 28 -1t29 -3t36 -5.5t47 -9.5l-3 -47
q-47 11 -77 15.5t-57 4.5q-66 0 -100 -25.5t-34 -74.5q0 -29 10.5 -47t29 -30t42.5 -19t51 -13q32 -8 61 -18t50.5 -27.5t34 -43.5t12.5 -66q0 -72 -49 -113t-134 -41z" />
    <glyph glyph-name="sacute" unicode="&#x15b;" horiz-adv-x="443" 
d="M201 616l74 183h53l-91 -189zM215 -11q-16 0 -32 1t-35.5 4t-43.5 7.5l-56 10.5v47q45 -12 86.5 -18.5t77.5 -6.5q66 0 100.5 28t34.5 79q0 28 -9.5 47t-26 31.5t-38.5 20.5t-48 14q-30 6 -60 14t-54.5 24t-40 43t-15.5 72q0 69 49 107.5t134 38.5q15 0 28 -1t29 -3
t36 -5.5t47 -9.5l-3 -47q-47 11 -77 15.5t-57 4.5q-66 0 -100 -25.5t-34 -74.5q0 -29 10.5 -47t29 -30t42.5 -19t51 -13q32 -8 61 -18t50.5 -27.5t34 -43.5t12.5 -66q0 -72 -49 -113t-134 -41z" />
    <glyph glyph-name="scaron" unicode="&#x161;" horiz-adv-x="443" 
d="M71 752l150 -73l150 73v-51l-150 -72l-150 72v51zM215 -11q-16 0 -32 1t-35.5 4t-43.5 7.5l-56 10.5v47q45 -12 86.5 -18.5t77.5 -6.5q66 0 100.5 28t34.5 79q0 28 -9.5 47t-26 31.5t-38.5 20.5t-48 14q-30 6 -60 14t-54.5 24t-40 43t-15.5 72q0 69 49 107.5t134 38.5
q15 0 28 -1t29 -3t36 -5.5t47 -9.5l-3 -47q-47 11 -77 15.5t-57 4.5q-66 0 -100 -25.5t-34 -74.5q0 -29 10.5 -47t29 -30t42.5 -19t51 -13q32 -8 61 -18t50.5 -27.5t34 -43.5t12.5 -66q0 -72 -49 -113t-134 -41z" />
    <glyph glyph-name="schwa" unicode="&#x259;" horiz-adv-x="523" 
d="M232 549q117 0 177.5 -68.5t60.5 -200.5q0 -141 -59 -215t-172 -74q-93 0 -141 61t-48 178q0 43 4 62h366q-7 211 -193 211q-36 0 -72.5 -7t-81.5 -23l-5 44q37 15 81.5 23.5t82.5 8.5zM241 36q169 0 178 214h-320q2 -115 35 -164.5t107 -49.5z" />
    <glyph glyph-name="scircumflex" unicode="&#x15d;" horiz-adv-x="443" 
d="M69 689l151 73l150 -73v-50l-150 73l-151 -73v50zM215 -11q-16 0 -32 1t-35.5 4t-43.5 7.5l-56 10.5v47q45 -12 86.5 -18.5t77.5 -6.5q66 0 100.5 28t34.5 79q0 28 -9.5 47t-26 31.5t-38.5 20.5t-48 14q-30 6 -60 14t-54.5 24t-40 43t-15.5 72q0 69 49 107.5t134 38.5
q15 0 28 -1t29 -3t36 -5.5t47 -9.5l-3 -47q-47 11 -77 15.5t-57 4.5q-66 0 -100 -25.5t-34 -74.5q0 -29 10.5 -47t29 -30t42.5 -19t51 -13q32 -8 61 -18t50.5 -27.5t34 -43.5t12.5 -66q0 -72 -49 -113t-134 -41z" />
    <glyph glyph-name="sdotbelow" unicode="&#x1e63;" horiz-adv-x="443" 
d="M215 -11q-16 0 -32 1t-35.5 4t-43.5 7.5l-56 10.5v47q45 -12 86.5 -18.5t77.5 -6.5q66 0 100.5 28t34.5 79q0 28 -9.5 47t-26 31.5t-38.5 20.5t-48 14q-30 6 -60 14t-54.5 24t-40 43t-15.5 72q0 69 49 107.5t134 38.5q15 0 28 -1t29 -3t36 -5.5t47 -9.5l-3 -47
q-47 11 -77 15.5t-57 4.5q-66 0 -100 -25.5t-34 -74.5q0 -29 10.5 -47t29 -30t42.5 -19t51 -13q32 -8 61 -18t50.5 -27.5t34 -43.5t12.5 -66q0 -72 -49 -113t-134 -41zM225 -172q-19 0 -30 9t-11 32q0 22 11 31.5t30 9.5t30.5 -9t11.5 -32t-11.5 -32t-30.5 -9z" />
    <glyph glyph-name="section" unicode="&#xa7;" horiz-adv-x="472" 
d="M229 -11q-16 0 -32 1t-35.5 4t-43.5 7.5l-56 10.5v45q90 -24 165 -24q65 0 99.5 28.5t34.5 79.5q0 28 -9.5 47t-26 31.5t-38.5 20.5t-48 14q-30 6 -60 14t-54.5 24t-40 43t-15.5 72q0 32 11.5 57.5t31.5 43.5q-20 16 -31.5 41t-11.5 63q0 69 49 107.5t134 38.5
q15 0 28.5 -1t29 -3t35.5 -5.5t48 -9.5l-4 -45q-48 11 -77.5 15t-56.5 4q-66 0 -100.5 -26t-34.5 -74q0 -29 11 -47.5t29.5 -30.5t42.5 -19t51 -13q32 -8 61 -18t50.5 -27.5t34 -43.5t12.5 -66q0 -62 -39 -103q19 -17 29 -42t10 -60q0 -72 -49 -113t-134 -41zM331 269
q30 27 30 76q0 28 -9 47.5t-25 32.5t-38 21t-47 14q-21 5 -43.5 10.5t-41.5 14.5q-37 -27 -37 -76q0 -30 10.5 -49t28.5 -31t41.5 -19t49.5 -13q21 -5 42.5 -12t38.5 -16z" />
    <glyph glyph-name="section.tab" 
d="M261 -11q-17 0 -34.5 1t-38 4t-46.5 7.5t-60 10.5v45q96 -24 177 -24q70 0 107 28.5t37 79.5q0 28 -10 47t-27.5 31.5t-41.5 20.5t-52 14q-32 6 -64.5 14t-58.5 24t-42.5 43t-16.5 72q0 32 12 57.5t33 43.5q-20 16 -32.5 41t-12.5 63q0 69 52 107.5t144 38.5
q15 0 29.5 -1t31 -3t37.5 -5.5t51 -9.5l-4 -45q-52 11 -83 15t-60 4q-71 0 -109 -26t-38 -74q0 -29 12 -47.5t32 -30.5t46 -19t55 -13q35 -8 65.5 -18t53.5 -27.5t36.5 -43.5t13.5 -66q0 -63 -42 -103q20 -17 31 -42t11 -60q0 -72 -51.5 -113t-142.5 -41zM371 269
q33 28 33 76q0 28 -10 47.5t-27.5 32.5t-41 21t-51.5 14q-23 5 -47.5 10.5t-45.5 14.5q-40 -28 -40 -76q0 -30 12 -49t31.5 -31t45 -19t53.5 -13q23 -5 46 -12t42 -16z" />
    <glyph glyph-name="semicolon" unicode=";" horiz-adv-x="254" 
d="M63 -145l47 219h54l-60 -229zM132 465q-38 0 -38 39t38 39q19 0 30 -10.5t11 -28.5q0 -19 -11 -29t-30 -10z" />
    <glyph glyph-name="semicolon.tab" horiz-adv-x="268" 
d="M59 -145l58 219h56l-71 -229zM139 465q-19 0 -30.5 10t-11.5 29t11.5 29t30.5 10q20 0 32 -10.5t12 -28.5q0 -19 -12 -29t-32 -10z" />
    <glyph glyph-name="servicemark" unicode="&#x2120;" horiz-adv-x="908" 
d="M199 312q-26 0 -61 5t-67 14l2 41q32 -9 66.5 -14t57.5 -5q48 0 74.5 18.5t26.5 53.5q0 20 -7.5 34.5t-20.5 24.5t-30.5 17t-38.5 13q-68 20 -95 46.5t-27 71.5q0 52 37.5 83.5t100.5 31.5q46 0 106 -15l-2 -41q-29 7 -56 11t-47 4q-43 0 -69 -20t-26 -54q0 -29 20.5 -46
t72.5 -32q27 -8 50 -17.5t40 -23.5t26.5 -35t9.5 -52q0 -55 -37 -84.5t-106 -29.5zM427 740h50l150 -349l151 349h50v-420h-42v340l-138 -323h-41l-138 322v-339h-42v420z" />
    <glyph glyph-name="seven" unicode="7" horiz-adv-x="465" 
d="M160 -11l-42 11v12l272 680h-358l-5 43l2 5h399l13 -27v-28l-268 -687z" />
    <glyph glyph-name="seven.denominator" horiz-adv-x="354" 
d="M123 -11l-34 10l-2 13l194 483h-250l-3 39l3 5h285l12 -21v-30l-192 -490z" />
    <glyph glyph-name="seven.numerator" horiz-adv-x="354" 
d="M123 189l-34 10l-2 13l194 483h-250l-3 39l3 5h285l12 -21v-30l-192 -490z" />
    <glyph glyph-name="seven.osf" horiz-adv-x="456" 
d="M154 -167l-41 11v12l271 680h-357l-5 42l2 6h399l13 -27v-28l-268 -687z" />
    <glyph glyph-name="seven.tf" 
d="M186 -11l-42 11v12l298 680h-391l-6 43l2 5h433l14 -27v-28l-294 -687z" />
    <glyph glyph-name="seven.tosf" 
d="M185 -167l-41 11v12l298 680h-391l-6 42l2 6h433l14 -27v-28l-294 -687z" />
    <glyph glyph-name="seveneighths" unicode="&#x215e;" horiz-adv-x="944" 
d="M545 740h51l-345 -740h-51zM717 -3q-83 0 -131 36t-48 110q0 30 7.5 53.5t20.5 41t29.5 30t33.5 21.5q-35 18 -55.5 47t-20.5 77q0 71 45.5 106t118.5 35q71 0 115.5 -35t44.5 -106q0 -28 -7 -49.5t-18 -38.5t-25.5 -29t-29.5 -21q43 -18 71.5 -49t28.5 -84
q0 -71 -49.5 -108t-130.5 -37zM717 39q60 0 96 26.5t36 76.5q0 27 -10 45t-27.5 30.5t-42 21.5t-53.5 18l-37 12q-13 -5 -29 -14t-30.5 -23.5t-24.5 -35.5t-10 -51q0 -53 36 -79.5t96 -26.5zM744 292q12 5 26.5 14.5t28 24t22.5 34.5t9 47q0 51 -31.5 75t-81.5 24
q-51 0 -83.5 -24t-32.5 -74q0 -27 10 -45.5t27.5 -31.5t40.5 -22t49 -17zM127 189l-34 10l-2 13l194 483h-250l-3 39l3 5h285l12 -21v-30l-192 -490z" />
    <glyph glyph-name="seveninferior" unicode="&#x2087;" horiz-adv-x="354" 
d="M123 -111l-34 10l-2 13l194 483h-250l-3 39l3 5h285l12 -21v-30l-192 -490z" />
    <glyph glyph-name="sevensuperior" unicode="&#x2077;" horiz-adv-x="354" 
d="M123 289l-34 10l-2 13l194 483h-250l-3 39l3 5h285l12 -21v-30l-192 -490z" />
    <glyph glyph-name="six.denominator" horiz-adv-x="457" 
d="M240 -8q-190 0 -190 249q0 149 61.5 231.5t175.5 82.5q43 0 95 -13l-2 -45q-28 8 -49.5 11t-42.5 3q-83 0 -132.5 -60t-57.5 -169q34 25 72.5 39t73.5 14q80 0 126.5 -42.5t46.5 -117.5q0 -41 -13 -75t-36 -58t-55.5 -37t-72.5 -13zM240 36q59 0 93.5 37.5t34.5 100.5
q0 57 -33.5 88t-95.5 31q-34 0 -72 -15.5t-70 -42.5q2 -102 36.5 -150.5t106.5 -48.5z" />
    <glyph glyph-name="six.numerator" horiz-adv-x="457" 
d="M240 192q-190 0 -190 249q0 149 61.5 231.5t175.5 82.5q43 0 95 -13l-2 -45q-28 8 -49.5 11t-42.5 3q-83 0 -132.5 -60t-57.5 -169q34 25 72.5 39t73.5 14q80 0 126.5 -42.5t46.5 -117.5q0 -41 -13 -75t-36 -58t-55.5 -37t-72.5 -13zM240 236q59 0 93.5 37.5t34.5 100.5
q0 57 -33.5 88t-95.5 31q-34 0 -72 -15.5t-70 -42.5q2 -102 36.5 -150.5t106.5 -48.5z" />
    <glyph glyph-name="six.tf" 
d="M283 -12q-118 0 -177.5 84.5t-59.5 252.5q0 101 20 180.5t58 134t93.5 83.5t126.5 29q28 0 55.5 -4t59.5 -13l-3 -47q-32 10 -57.5 14t-53.5 4q-55 0 -99 -23t-75.5 -66.5t-49.5 -106t-22 -141.5q42 36 91.5 57.5t97.5 21.5q100 0 158 -57t58 -157q0 -56 -16 -101
t-45 -77.5t-70 -50t-90 -17.5zM282 405q-45 0 -95 -23t-90 -61q0 -147 46 -217t140 -70q38 0 69 14t53 40.5t34 63.5t12 82q0 81 -44.5 126t-124.5 45z" />
    <glyph glyph-name="six.tosf" 
d="M283 -13q-118 0 -178 79.5t-60 239.5q0 92 20 163.5t58 121t93.5 75.5t126.5 26q54 0 115 -16l-2 -47q-33 9 -59 13t-53 4q-110 0 -174.5 -82.5t-71.5 -229.5q42 34 91.5 54t97.5 20q100 0 158 -51.5t58 -142.5q0 -51 -16 -93t-45 -71.5t-69.5 -46t-89.5 -16.5zM281 365
q-45 0 -95 -19t-90 -51q1 -140 47.5 -201t138.5 -61q78 0 123.5 49t45.5 131q0 72 -44.5 112t-125.5 40z" />
    <glyph glyph-name="sixinferior" unicode="&#x2086;" horiz-adv-x="457" 
d="M240 -108q-190 0 -190 249q0 149 61.5 231.5t175.5 82.5q43 0 95 -13l-2 -45q-28 8 -49.5 11t-42.5 3q-83 0 -132.5 -60t-57.5 -169q34 25 72.5 39t73.5 14q80 0 126.5 -42.5t46.5 -117.5q0 -41 -13 -75t-36 -58t-55.5 -37t-72.5 -13zM240 -64q59 0 93.5 37.5t34.5 100.5
q0 57 -33.5 88t-95.5 31q-34 0 -72 -15.5t-70 -42.5q2 -102 36.5 -150.5t106.5 -48.5z" />
    <glyph glyph-name="sixsuperior" unicode="&#x2076;" horiz-adv-x="457" 
d="M240 292q-190 0 -190 249q0 149 61.5 231.5t175.5 82.5q43 0 95 -13l-2 -45q-28 8 -49.5 11t-42.5 3q-83 0 -132.5 -60t-57.5 -169q34 25 72.5 39t73.5 14q80 0 126.5 -42.5t46.5 -117.5q0 -41 -13 -75t-36 -58t-55.5 -37t-72.5 -13zM240 336q59 0 93.5 37.5t34.5 100.5
q0 57 -33.5 88t-95.5 31q-34 0 -72 -15.5t-70 -42.5q2 -102 36.5 -150.5t106.5 -48.5z" />
    <glyph glyph-name="slash" unicode="/" horiz-adv-x="363" 
d="M280 740h48l-245 -860h-48z" />
    <glyph glyph-name="slash.tab" 
d="M404 740h53l-324 -860h-53z" />
    <glyph glyph-name="AE" unicode="&#xc6;" horiz-adv-x="841" 
d="M10 6l301 734h471v-47h-339l13 -294h295v-47h-293l15 -305h318v-47h-369l-10 240h-253l-99 -240h-50v6zM179 287h231l-16 407h-46z" />
    <glyph glyph-name="space.tab" horiz-adv-x="268" 
 />
    <glyph glyph-name="sterling" unicode="&#xa3;" horiz-adv-x="610" 
d="M53 390h152v137q0 111 44.5 164.5t149.5 53.5q33 0 72 -7t87 -22l-10 -45q-87 26 -146 26q-80 0 -112.5 -39.5t-32.5 -131.5v-136h214v-46h-214v-296h288v-48h-492v48h152v296h-152v46z" />
    <glyph glyph-name="sterling.tab" 
d="M23 390h148v137q0 112 43 165t144 53q33 0 71 -7t84 -22l-9 -45q-42 13 -78 19.5t-63 6.5q-78 0 -110 -40t-32 -131v-136h207v-46h-207v-296h279v-48h-477v48h148v296h-148v46z" />
    <glyph glyph-name="summation" unicode="&#x2211;" horiz-adv-x="587" 
d="M40 -63l271 382l-271 382v39h498v-46h-436l265 -375l-264 -374h435v-46h-498v38z" />
    <glyph glyph-name="tbar" unicode="&#x167;" horiz-adv-x="388" 
d="M28 348h118v144h-119v48h121l8 125l41 7v-132h170v-48h-170v-144h153v-42h-153v-160q0 -108 100 -108q34 0 75 12v-46q-49 -11 -85 -11q-141 0 -141 144v169h-118v42z" />
    <glyph glyph-name="tcaron" unicode="&#x165;" horiz-adv-x="365" 
d="M276 -7q-141 0 -141 144v355h-119v48h121l8 125l41 7v-132h106v-48h-106v-346q0 -108 100 -108q34 0 75 12v-46q-49 -11 -85 -11zM289 808h46l-23 -228h-23v228z" />
    <glyph glyph-name="tdotbelow" unicode="&#x1e6d;" horiz-adv-x="376" 
d="M250 -172q-19 0 -30 9t-11 32q0 22 11 31.5t30 9.5t30.5 -9t11.5 -32t-11.5 -32t-30.5 -9zM276 -7q-141 0 -141 144v355h-119v48h121l8 125l41 7v-132h170v-48h-170v-346q0 -108 100 -108q34 0 75 12v-46q-49 -11 -85 -11z" />
    <glyph glyph-name="thorn" unicode="&#xfe;" horiz-adv-x="579" 
d="M82 808h51v-332q29 35 72.5 54.5t101.5 19.5q108 0 164 -67t56 -210q0 -72 -18 -125t-51 -88.5t-80.5 -52.5t-106.5 -17q-38 0 -74 4t-64 7v-221h-51v1028zM272 34q97 0 149.5 55.5t52.5 181.5q0 125 -43.5 179.5t-131.5 54.5q-33 0 -63 -9.5t-53 -26.5t-36.5 -41.5
t-13.5 -54.5v-327q29 -5 65.5 -8.5t73.5 -3.5z" />
    <glyph glyph-name="three" unicode="3" horiz-adv-x="499" 
d="M193 -10q-67 0 -134 14v45h5q12 -3 27.5 -5t33 -4t34.5 -3t31 -1q96 0 147 43t51 123q0 153 -187 153h-65v45h64q83 0 125.5 38.5t42.5 112.5q0 75 -43 114t-129 39q-23 0 -56.5 -3.5t-74.5 -9.5h-5l-2 44q32 8 68.5 11.5t71.5 3.5q109 0 166 -51t57 -147
q0 -66 -30 -109.5t-85 -60.5v-4q66 -14 100.5 -60.5t34.5 -119.5q0 -100 -63.5 -153.5t-184.5 -54.5z" />
    <glyph glyph-name="three.numerator" horiz-adv-x="387" 
d="M154 193q-24 0 -51 3t-53 8v43h8q17 -4 44.5 -6.5t47.5 -2.5q69 0 105 30t36 85q0 51 -33.5 78t-99.5 27h-52v41h51q58 0 88.5 27t30.5 78t-30.5 78t-91.5 27q-17 0 -41.5 -2.5t-53.5 -7.5h-9l-2 43q26 6 54 9t54 3q81 0 125 -39t44 -111q0 -45 -20.5 -76.5t-58.5 -46.5
q45 -13 69 -47t24 -86q0 -75 -47.5 -115t-137.5 -40z" />
    <glyph glyph-name="three.osf" horiz-adv-x="481" 
d="M185 -170q-67 0 -134 14v45h5q12 -3 27.5 -5.5t32.5 -4t34 -2.5t31 -1q97 0 147.5 42t50.5 123q0 75 -46.5 114.5t-140.5 39.5h-65v45h65q82 0 125 38.5t43 112.5q0 152 -173 152q-23 0 -56.5 -3t-73.5 -10h-6l-2 44q33 8 69 12t72 4q108 0 165.5 -51t57.5 -147
q0 -66 -30 -109.5t-86 -60.5v-4q66 -14 101 -60.5t35 -119.5q0 -100 -64 -154t-184 -54z" />
    <glyph glyph-name="three.tf" 
d="M207 -10q-34 0 -70.5 3.5t-71.5 10.5v45h5q13 -3 30 -5t35 -4t36 -3t33 -1q104 0 159 43t55 123q0 153 -202 153h-69v45h68q89 0 135 38.5t46 112.5q0 75 -46.5 114t-139.5 39q-24 0 -59.5 -3.5t-78.5 -9.5h-6l-2 44q35 8 73 11.5t76 3.5q115 0 176 -50.5t61 -147.5
q0 -66 -32 -109.5t-92 -60.5v-4q71 -14 108.5 -60.5t37.5 -119.5q0 -100 -68.5 -154t-196.5 -54z" />
    <glyph glyph-name="three.tosf" 
d="M208 -170q-69 0 -142 14v45h6q12 -3 29 -5.5t35.5 -4t36.5 -2.5t33 -1q103 0 158 43t55 123q0 75 -50.5 114t-151.5 39h-69v45h69q88 0 134.5 38.5t46.5 112.5q0 152 -187 152q-23 0 -59 -3t-79 -10h-6l-2 44q35 8 73.5 12t76.5 4q113 0 174.5 -51.5t61.5 -146.5
q0 -66 -32 -109.5t-92 -60.5v-4q71 -14 108.5 -60.5t37.5 -119.5q0 -100 -68 -154t-197 -54z" />
    <glyph glyph-name="threeeighths" unicode="&#x215c;" horiz-adv-x="998" 
d="M165 193q-24 0 -51 3t-53 8v43h8q17 -4 44.5 -6.5t47.5 -2.5q69 0 105 30t36 85q0 51 -33.5 78t-99.5 27h-52v41h51q58 0 88.5 27t30.5 78t-30.5 78t-91.5 27q-17 0 -41.5 -2.5t-53.5 -7.5h-9l-2 43q26 6 54 9t54 3q81 0 125 -39t44 -111q0 -45 -20.5 -76.5t-58.5 -46.5
q45 -13 69 -47t24 -86q0 -75 -47.5 -115t-137.5 -40zM614 740h51l-345 -740h-51zM771 -3q-83 0 -131 36t-48 110q0 30 7.5 53.5t20.5 41t29.5 30t33.5 21.5q-35 18 -55.5 47t-20.5 77q0 71 45.5 106t118.5 35q71 0 115.5 -35t44.5 -106q0 -28 -7 -49.5t-18 -38.5t-25.5 -29
t-29.5 -21q43 -18 71.5 -49t28.5 -84q0 -71 -49.5 -108t-130.5 -37zM771 39q60 0 96 26.5t36 76.5q0 27 -10 45t-27.5 30.5t-42 21.5t-53.5 18l-37 12q-13 -5 -29 -14t-30.5 -23.5t-24.5 -35.5t-10 -51q0 -53 36 -79.5t96 -26.5zM798 292q12 5 26.5 14.5t28 24t22.5 34.5
t9 47q0 51 -31.5 75t-81.5 24q-51 0 -83.5 -24t-32.5 -74q0 -27 10 -45.5t27.5 -31.5t40.5 -22t49 -17z" />
    <glyph glyph-name="threeinferior" unicode="&#x2083;" horiz-adv-x="387" 
d="M154 -107q-24 0 -51 3t-53 8v43h8q17 -4 44.5 -6.5t47.5 -2.5q69 0 105 30t36 85q0 51 -33.5 78t-99.5 27h-52v41h51q58 0 88.5 27t30.5 78t-30.5 78t-91.5 27q-17 0 -41.5 -2.5t-53.5 -7.5h-9l-2 43q26 6 54 9t54 3q81 0 125 -39t44 -111q0 -45 -20.5 -76.5t-58.5 -46.5
q45 -13 69 -47t24 -86q0 -75 -47.5 -115t-137.5 -40z" />
    <glyph glyph-name="threequarters" unicode="&#xbe;" horiz-adv-x="986" 
d="M166 193q-24 0 -51 3t-53 8v43h8q17 -4 44.5 -6.5t47.5 -2.5q69 0 105 30t36 85q0 51 -33.5 78t-99.5 27h-52v41h51q58 0 88.5 27t30.5 78t-30.5 78t-91.5 27q-17 0 -41.5 -2.5t-53.5 -7.5h-9l-2 43q26 6 54 9t54 3q81 0 125 -39t44 -111q0 -45 -20.5 -76.5t-58.5 -46.5
q45 -13 69 -47t24 -86q0 -75 -47.5 -115t-137.5 -40zM825 136h-244l-16 29l184 388l8 1l33 -9l1 -10l-169 -357h205l12 197h33v-197h81v-42h-81v-136h-47v136zM626 740h51l-345 -740h-51z" />
    <glyph glyph-name="threesuperior" unicode="&#xb3;" horiz-adv-x="387" 
d="M154 293q-24 0 -51 3t-53 8v43h8q17 -4 44.5 -6.5t47.5 -2.5q69 0 105 30t36 85q0 51 -33.5 78t-99.5 27h-52v41h51q58 0 88.5 27t30.5 78t-30.5 78t-91.5 27q-17 0 -41.5 -2.5t-53.5 -7.5h-9l-2 43q26 6 54 9t54 3q81 0 125 -39t44 -111q0 -45 -20.5 -76.5t-58.5 -46.5
q45 -13 69 -47t24 -86q0 -75 -47.5 -115t-137.5 -40z" />
    <glyph glyph-name="trademark" unicode="&#x2122;" horiz-adv-x="894" 
d="M411 740h51l150 -349l150 349h51v-420h-42v340l-139 -323h-40l-139 322v-339h-42v420zM173 699h-139v41h320v-41h-138v-379h-43v379z" />
    <glyph glyph-name="two" unicode="2" horiz-adv-x="522" 
d="M51 95q0 45 11.5 81.5t36 69.5t63 63t92.5 62q43 25 72.5 47.5t48 44.5t27 45.5t8.5 50.5q0 141 -158 141q-38 0 -80 -6t-91 -20l-9 48q53 14 98 20t87 6q205 0 205 -187q0 -35 -9.5 -64t-30.5 -55.5t-54.5 -52.5t-82.5 -55q-50 -30 -84.5 -56.5t-56 -54t-31.5 -57.5
t-10 -65v-52h362v-47h-414v93z" />
    <glyph glyph-name="two.numerator" horiz-adv-x="406" 
d="M44 274q0 32 8.5 59.5t26.5 52t47 47.5t70 47q62 35 87 64t25 66q0 97 -111 97q-51 0 -130 -19l-8 43q41 11 75.5 16t65.5 5q155 0 155 -140q0 -26 -7 -47.5t-22.5 -41.5t-40.5 -39.5t-62 -40.5q-35 -21 -59.5 -39.5t-39.5 -38t-21.5 -40t-6.5 -45.5v-34h262v-44h-314v72
z" />
    <glyph glyph-name="two.osf" horiz-adv-x="511" 
d="M50 74q0 36 11.5 66.5t36 57.5t63 52t92.5 50q42 20 71 37.5t46 34t24.5 34t7.5 37.5q0 54 -39.5 79t-114.5 25q-42 0 -85 -9t-90 -25l-9 47q51 17 96.5 26t90.5 9q98 0 150 -37t52 -112q0 -28 -8.5 -51.5t-28.5 -45.5t-52.5 -42.5t-80.5 -42.5q-49 -23 -83 -44
t-55.5 -43t-31 -45t-9.5 -51v-34h352v-47h-406v74z" />
    <glyph glyph-name="two.tf" 
d="M52 95q0 45 12 81.5t37.5 69.5t65 63t95.5 62q43 25 73.5 47.5t50 44.5t28 45.5t8.5 50.5q0 141 -163 141q-77 0 -176 -25l-9 47q54 14 100 20t90 6q210 0 210 -187q0 -35 -9.5 -64t-31 -55.5t-56.5 -52.5t-85 -55q-51 -30 -86.5 -56.5t-58 -53.5t-32.5 -57t-10 -66v-52
h372v-47h-425v93z" />
    <glyph glyph-name="two.tosf" 
d="M58 74q0 36 11.5 66.5t36.5 57.5t64.5 52t94.5 50q44 20 73.5 37.5t47.5 34t25.5 34t7.5 37.5q0 54 -40.5 79t-116.5 25q-44 0 -88.5 -9.5t-92.5 -24.5l-9 47q52 17 99 26t93 9q100 0 153.5 -37t53.5 -112q0 -28 -9 -51.5t-29.5 -45.5t-54 -42.5t-82.5 -42.5
q-51 -23 -86.5 -44t-58 -42.5t-32.5 -44.5t-10 -51v-35h366v-47h-417v74z" />
    <glyph glyph-name="twoinferior" unicode="&#x2082;" horiz-adv-x="406" 
d="M44 -26q0 32 8.5 59.5t26.5 52t47 47.5t70 47q62 35 87 64t25 66q0 97 -111 97q-51 0 -130 -19l-8 43q41 11 75.5 16t65.5 5q155 0 155 -140q0 -26 -7 -47.5t-22.5 -41.5t-40.5 -39.5t-62 -40.5q-35 -21 -59.5 -39.5t-39.5 -38t-21.5 -40t-6.5 -45.5v-34h262v-44h-314v72
z" />
    </font>
</defs>
</svg>
