<?xml version="1.0" standalone="no"?>
<!DOCTYPE svg PUBLIC "-//W3C//DTD SVG 1.1//EN" "http://www.w3.org/Graphics/SVG/1.1/DTD/svg11.dtd" >
<svg xmlns="http://www.w3.org/2000/svg" xmlns:xlink="http://www.w3.org/1999/xlink" version="1.1">
<metadata>
Created by FontForge 20141127 at Wed Dec 24 10:27:39 2014
 By Dylan Frankland
Copyright (c) 2012, Impallari Type (www.impallari.com), with Reserved Font Name Encode Sans.
</metadata>
<defs>
<font id="EncodeSansNormal-Black" horiz-adv-x="653" >
  <font-face 
    font-family="Encode Sans Normal"
    font-weight="900"
    font-stretch="normal"
    units-per-em="1000"
    panose-1="2 0 0 0 0 0 0 0 0 0"
    ascent="800"
    descent="-200"
    x-height="540"
    cap-height="740"
    bbox="-160 -220 1955 1030"
    underline-thickness="55"
    underline-position="-57"
    unicode-range="U+000D-FB04"
  />
<missing-glyph horiz-adv-x="849" 
d="M69 1030h711v-1250h-711v1250zM606 -59v928h-363v-928h363z" />
    <glyph glyph-name="f_b" unicode="fb" horiz-adv-x="1205" 
d="M129 357h-116v183h117v23q0 69 20 117t64.5 78t115 44t171.5 14l10 -157q-87 -1 -124.5 -21.5t-37.5 -68.5v-29h145v-183h-145v-357h-220v357zM855 -11q-26 0 -52 1t-59.5 5t-77 11.5t-102.5 19.5v782h220v-323q27 33 68 48.5t93 15.5q231 0 231 -264
q0 -144 -84.5 -219.5t-236.5 -76.5zM852 134q33 0 53.5 5t31.5 19.5t14.5 40.5t3.5 69q0 36 -3 59.5t-12 36.5t-24.5 18t-40.5 5q-50 0 -70.5 -23t-20.5 -82v-140q12 -4 28.5 -6t39.5 -2z" />
    <glyph glyph-name="f_f" unicode="ff" horiz-adv-x="1000" 
d="M622 357h-272v-357h-220v357h-116v183h117v23q0 69 20 117t64.5 78t115 44t171.5 14l10 -157q-87 -1 -124.5 -21.5t-37.5 -68.5v-29h273v23q0 69 20 117t64.5 78t115 44t171.5 14l10 -157q-87 -1 -124.5 -21.5t-37.5 -68.5v-29h145v-183h-145v-357h-220v357z" />
    <glyph glyph-name="f_f_b" unicode="ffb" horiz-adv-x="1692" 
d="M129 357h-116v183h117v23q0 69 20 117t64.5 78t115 44t171.5 14l10 -157q-87 -1 -124.5 -21.5t-37.5 -68.5v-29h268v23q0 69 20 117t64.5 78t115 44t171.5 14l10 -157q-87 -1 -124.5 -21.5t-37.5 -68.5v-29h145v-183h-145v-357h-220v357h-267v-357h-220v357zM1342 -11
q-26 0 -52 1t-59.5 5t-77 11.5t-102.5 19.5v782h220v-323q27 33 68 48.5t93 15.5q231 0 231 -264q0 -144 -84.5 -219.5t-236.5 -76.5zM1339 134q33 0 53.5 5t31.5 19.5t14.5 40.5t3.5 69q0 36 -3 59.5t-12 36.5t-24.5 18t-40.5 5q-50 0 -70.5 -23t-20.5 -82v-140
q12 -4 28.5 -6t39.5 -2z" />
    <glyph glyph-name="f_f_h" unicode="ffh" horiz-adv-x="1695" 
d="M130 357h-116v183h117v23q0 69 20 117t64.5 78t115 44t171.5 14l10 -157q-87 -1 -124.5 -21.5t-37.5 -68.5v-29h267v23q0 69 20 117t64.5 78t115 44t171.5 14l10 -157q-87 -1 -124.5 -21.5t-37.5 -68.5v-29h145v-183h-145v-357h-220v357h-266v-357h-220v357zM1054 808
h220v-322q65 30 117.5 47t95.5 17q73 0 116 -41t43 -111v-398h-220v325q0 29 -10.5 41.5t-34.5 12.5q-18 0 -47.5 -5.5t-59.5 -15.5v-358h-220v808z" />
    <glyph glyph-name="f_f_i" unicode="ffi" horiz-adv-x="1326" 
d="M130 357h-116v183h117v23q0 69 20 117t64.5 78t115 44t171.5 14l10 -157q-87 -1 -124.5 -21.5t-37.5 -68.5v-29h267v23q0 69 20 117t64.5 78t115 44t171.5 14l10 -157q-87 -1 -124.5 -21.5t-37.5 -68.5v-29h145v-183h-145v-357h-220v357h-266v-357h-220v357zM1054 540
h220v-540h-220v540zM1164 595q-63 0 -89.5 27t-26.5 87t26.5 86.5t89.5 26.5q64 0 90.5 -28t26.5 -85q0 -58 -26 -86t-91 -28z" />
    <glyph glyph-name="f_f_j" unicode="ffj" horiz-adv-x="1328" 
d="M130 357h-116v183h117v23q0 69 20 117t64.5 78t115 44t171.5 14l10 -157q-87 -1 -124.5 -21.5t-37.5 -68.5v-29h268v23q0 69 20 117t64.5 78t115 44t171.5 14l10 -157q-87 -1 -124.5 -21.5t-37.5 -68.5v-29h145v-183h-145v-357h-220v357h-267v-357h-220v357zM1025 -195
q10 42 16.5 79.5t10.5 79.5t6 92t2 115v58t-0.5 89.5t-1 107.5t-1.5 114h220v-471q-8 -80 -32 -152.5t-60 -136.5zM1167 595q-63 0 -90 27t-27 87t27 86.5t90 26.5q64 0 90.5 -28t26.5 -85q0 -58 -26.5 -86t-90.5 -28z" />
    <glyph glyph-name="f_f_k" unicode="ffk" horiz-adv-x="1659" 
d="M130 357h-116v183h117v23q0 69 20 117t64.5 78t115 44t171.5 14l10 -157q-87 -1 -124.5 -21.5t-37.5 -68.5v-29h267v23q0 69 20 117t64.5 78t115 44t171.5 14l10 -157q-87 -1 -124.5 -21.5t-37.5 -68.5v-29h145v-183h-145v-357h-220v357h-266v-357h-220v357zM1054 808
h220v-462h37l105 194h240l-165 -252l-29 -7v-4l29 -7l183 -270h-239l-126 211h-35v-211h-220v808z" />
    <glyph glyph-name="f_f_l" unicode="ffl" horiz-adv-x="1326" 
d="M130 357h-116v183h117v23q0 69 20 117t64.5 78t115 44t171.5 14l10 -157q-87 -1 -124.5 -21.5t-37.5 -68.5v-29h267v23q0 69 20 117t64.5 78t115 44t171.5 14l10 -157q-87 -1 -124.5 -21.5t-37.5 -68.5v-29h145v-183h-145v-357h-220v357h-266v-357h-220v357zM1054 808
h220v-808h-220v808z" />
    <glyph glyph-name="f_f_t" unicode="fft" horiz-adv-x="1460" 
d="M1295 -15q-103 0 -156.5 47.5t-53.5 138.5v186h-249v-357h-220v357h-267v-357h-220v357h-116v183h117v23q0 69 20 117t64.5 78t115 44t171.5 14l10 -157q-87 -1 -124.5 -21.5t-37.5 -68.5v-29h268v23q0 69 20 117t64.5 78t115 44t171.5 14l10 -157q-87 -1 -124.5 -21.5
t-37.5 -68.5v-29h264l33 170l170 18v-188h125v-183h-123v-134q0 -42 14.5 -57.5t51.5 -15.5q27 0 57 12v-160q-23 -8 -59.5 -12.5t-73.5 -4.5z" />
    <glyph glyph-name="f_h" unicode="fh" horiz-adv-x="1208" 
d="M567 808h220v-322q65 30 117.5 47t95.5 17q73 0 116 -41t43 -111v-398h-220v325q0 29 -10.5 41.5t-34.5 12.5q-18 0 -47.5 -5.5t-59.5 -15.5v-358h-220v808zM130 357h-116v183h117v23q0 69 20 117t64.5 78t115 44t171.5 14l10 -157q-87 -1 -124.5 -21.5t-37.5 -68.5v-29
h145v-183h-145v-357h-220v357z" />
    <glyph glyph-name="f_i" unicode="fi" horiz-adv-x="839" 
d="M677 595q-63 0 -89.5 27t-26.5 87t26.5 86.5t89.5 26.5q64 0 90.5 -28t26.5 -85q0 -58 -26 -86t-91 -28zM567 540h220v-540h-220v540zM130 357h-116v183h117v23q0 69 20 117t64.5 78t115 44t171.5 14l10 -157q-87 -1 -124.5 -21.5t-37.5 -68.5v-29h145v-183h-145v-357
h-220v357z" />
    <glyph glyph-name="f_j" unicode="fj" horiz-adv-x="841" 
d="M130 357h-116v183h117v23q0 69 20 117t64.5 78t115 44t171.5 14l10 -157q-87 -1 -124.5 -21.5t-37.5 -68.5v-29h145v-183h-145v-357h-220v357zM680 595q-63 0 -90 27t-27 87t27 86.5t90 26.5q64 0 90.5 -28t26.5 -85q0 -58 -26.5 -86t-90.5 -28zM538 -195
q10 42 16.5 79.5t10.5 79.5t6 92t2 115v58t-0.5 89.5t-1 107.5t-1.5 114h220v-471q-8 -80 -32 -152.5t-60 -136.5z" />
    <glyph glyph-name="f_k" unicode="fk" horiz-adv-x="1172" 
d="M567 808h220v-462h37l105 194h240l-165 -252l-29 -7v-4l29 -7l183 -270h-239l-126 211h-35v-211h-220v808zM130 357h-116v183h117v23q0 69 20 117t64.5 78t115 44t171.5 14l10 -157q-87 -1 -124.5 -21.5t-37.5 -68.5v-29h145v-183h-145v-357h-220v357z" />
    <glyph glyph-name="f_l" unicode="fl" horiz-adv-x="839" 
d="M130 357h-116v183h117v23q0 69 20 117t64.5 78t115 44t171.5 14l10 -157q-87 -1 -124.5 -21.5t-37.5 -68.5v-29h145v-183h-145v-357h-220v357zM567 808h220v-808h-220v808z" />
    <glyph glyph-name="f_t" unicode="ft" horiz-adv-x="973" 
d="M808 -15q-103 0 -156.5 47.5t-53.5 138.5v186h-249v-357h-220v357h-116v183h117v23q0 69 20 117t64.5 78t115 44t171.5 14l10 -157q-87 -1 -124.5 -21.5t-37.5 -68.5v-29h264l33 170l170 18v-188h125v-183h-123v-134q0 -42 14.5 -57.5t51.5 -15.5q27 0 57 12v-160
q-23 -8 -59.5 -12.5t-73.5 -4.5z" />
    <glyph glyph-name=".notdef" horiz-adv-x="849" 
d="M69 1030h711v-1250h-711v1250zM606 -59v928h-363v-928h363z" />
    <glyph glyph-name="NULL" horiz-adv-x="0" 
 />
    <glyph glyph-name="NULL" horiz-adv-x="0" 
 />
    <glyph glyph-name="nonmarkingreturn" unicode="&#xd;" horiz-adv-x="317" 
 />
    <glyph glyph-name="space" unicode=" " horiz-adv-x="200" 
 />
    <glyph glyph-name="AE.sc" horiz-adv-x="978" 
d="M-10 10l274 567h662v-155h-281l5 -65h268v-136h-253l8 -65h269v-156h-481l-5 94h-211l-46 -94h-209v10zM313 231h135l-8 203h-27z" />
    <glyph glyph-name="AEacute" unicode="&#x1fc;" horiz-adv-x="1051" 
d="M477 813l63 190h224l-129 -200zM-11 11l296 729h714v-172h-307l8 -112h289v-172h-276l9 -111h294v-173h-518l-6 146h-224l-58 -146h-221v11zM340 326h144l-10 260h-29z" />
    <glyph glyph-name="acute.cap" horiz-adv-x="320" 
d="M28 813l63 190h224l-129 -200z" />
    <glyph glyph-name="AEacute.sc" horiz-adv-x="978" 
d="M-10 10l274 567h662v-155h-281l5 -65h268v-136h-253l8 -65h269v-156h-481l-5 94h-211l-46 -94h-209v10zM448 231l-8 203h-27l-100 -203h135zM436 637l55 161h213l-119 -170z" />
    <glyph glyph-name="Aacute" unicode="&#xc1;" horiz-adv-x="780" 
d="M-5 11l228 729h334l228 -729v-11h-217l-45 151h-267l-44 -151h-217v11zM474 322l-31 110l-44 155h-18l-45 -157l-30 -108h168zM305 813l63 190h224l-129 -200z" />
    <glyph glyph-name="Aacute.sc" horiz-adv-x="722" 
d="M-4 10l208 567h315l207 -567v-10h-206l-37 94h-245l-36 -94h-206v10zM442 240l-32 87l-41 107h-18l-40 -108l-32 -86h163zM282 637l56 161h213l-120 -170z" />
    <glyph glyph-name="Abreve" unicode="&#x102;" horiz-adv-x="780" 
d="M-5 11l228 729h334l228 -729v-11h-217l-45 151h-267l-44 -151h-217v11zM474 322l-31 110l-44 155h-18l-45 -157l-30 -108h168zM390 806q-68 0 -113.5 14.5t-73.5 40.5t-40 61.5t-12 76.5h143q0 -47 19 -70t77 -23q29 0 47.5 6t29 17.5t14.5 29t4 40.5h144
q0 -42 -12 -77.5t-40 -61t-74 -40t-113 -14.5z" />
    <glyph glyph-name="breve.cap" horiz-adv-x="530" 
d="M265 806q-68 0 -113.5 14.5t-73.5 40.5t-40 61.5t-12 76.5h143q0 -47 19 -70t77 -23q29 0 47.5 6t29 17.5t14.5 29t4 40.5h144q0 -42 -12 -77.5t-40 -61t-74 -40t-113 -14.5z" />
    <glyph glyph-name="Abreve.sc" horiz-adv-x="722" 
d="M361 628q-64 0 -106.5 13t-68.5 35t-37 51.5t-11 62.5h135q0 -35 17 -53t71 -18t70.5 18t16.5 53h135q0 -35 -11 -64.5t-36.5 -51t-68.5 -34t-106 -12.5zM-4 10l208 567h315l207 -567v-10h-206l-37 94h-245l-36 -94h-206v10zM442 240l-32 87l-41 107h-18l-40 -108
l-32 -86h163z" />
    <glyph glyph-name="Acircumflex" unicode="&#xc2;" horiz-adv-x="780" 
d="M-5 11l228 729h334l228 -729v-11h-217l-45 151h-267l-44 -151h-217v11zM474 322l-31 110l-44 155h-18l-45 -157l-30 -108h168zM172 936l217 80l221 -80v-142l-219 79l-219 -79v142z" />
    <glyph glyph-name="circumflex.cap" horiz-adv-x="505" 
d="M30 936l217 80l221 -80v-142l-219 79l-219 -79v142z" />
    <glyph glyph-name="Acircumflex.sc" horiz-adv-x="722" 
d="M-4 10l208 567h315l207 -567v-10h-206l-37 94h-245l-36 -94h-206v10zM442 240l-32 87l-41 107h-18l-40 -108l-32 -86h163zM158 747l203 64l206 -64v-131l-204 63l-205 -63v131z" />
    <glyph glyph-name="Adblgrave" unicode="&#x200;" horiz-adv-x="780" 
d="M-5 11l228 729h334l228 -729v-11h-217l-45 151h-267l-44 -151h-217v11zM474 322l-31 110l-44 155h-18l-45 -157l-30 -108h168zM188 803l-131 200h213l62 -190zM427 803l-131 200h212l63 -190z" />
    <glyph glyph-name="uni030F.cap" horiz-adv-x="554" 
d="M135 803l-131 200h213l62 -190zM374 803l-131 200h212l63 -190z" />
    <glyph glyph-name="Adblgrave.sc" horiz-adv-x="722" 
d="M-4 10l208 567h315l207 -567v-10h-206l-37 94h-245l-36 -94h-206v10zM442 240l-32 87l-41 107h-18l-40 -108l-32 -86h163zM48 800h204l54 -164l-138 -7zM271 800h203l55 -164l-138 -7z" />
    <glyph glyph-name="Adieresis" unicode="&#xc4;" horiz-adv-x="780" 
d="M-5 11l228 729h334l228 -729v-11h-217l-45 151h-267l-44 -151h-217v11zM474 322l-31 110l-44 155h-18l-45 -157l-30 -108h168zM236 795q-63 0 -90 27t-27 87t27 86.5t90 26.5q64 0 90 -28t26 -85q0 -58 -26 -86t-90 -28zM543 795q-64 0 -90.5 27t-26.5 87t26.5 86.5
t90.5 26.5t90 -28t26 -85q0 -58 -26 -86t-90 -28z" />
    <glyph glyph-name="dieresis.cap" horiz-adv-x="623" 
d="M157 795q-63 0 -90 27t-27 87t27 86.5t90 26.5q64 0 90 -28t26 -85q0 -58 -26 -86t-90 -28zM464 795q-64 0 -90.5 27t-26.5 87t26.5 86.5t90.5 26.5t90 -28t26 -85q0 -58 -26 -86t-90 -28z" />
    <glyph glyph-name="Adieresis.sc" horiz-adv-x="722" 
d="M220 614q-60 0 -85 24.5t-25 80.5q0 54 25 79t85 25t84.5 -25.5t24.5 -78.5q0 -54 -24.5 -79.5t-84.5 -25.5zM502 614q-60 0 -84.5 24.5t-24.5 80.5q0 54 24.5 79t84.5 25t84.5 -25.5t24.5 -78.5q0 -54 -24.5 -79.5t-84.5 -25.5zM-4 10l208 567h315l207 -567v-10h-206
l-37 94h-245l-36 -94h-206v10zM442 240l-32 87l-41 107h-18l-40 -108l-32 -86h163z" />
    <glyph glyph-name="Agrave" unicode="&#xc0;" horiz-adv-x="780" 
d="M-5 11l228 729h334l228 -729v-11h-217l-45 151h-267l-44 -151h-217v11zM474 322l-31 110l-44 155h-18l-45 -157l-30 -108h168zM294 803l-131 200h226l62 -190z" />
    <glyph glyph-name="grave.cap" horiz-adv-x="328" 
d="M135 803l-131 200h226l62 -190z" />
    <glyph glyph-name="Agrave.sc" horiz-adv-x="722" 
d="M-4 10l208 567h315l207 -567v-10h-206l-37 94h-245l-36 -94h-206v10zM442 240l-32 87l-41 107h-18l-40 -108l-32 -86h163zM269 628l-121 170h214l55 -163z" />
    <glyph glyph-name="Ainvertedbreve" unicode="&#x202;" horiz-adv-x="780" 
d="M-5 11l228 729h334l228 -729v-11h-217l-45 151h-267l-44 -151h-217v11zM474 322l-31 110l-44 155h-18l-45 -157l-30 -108h168zM486 816q0 23 -4 40t-14.5 28.5t-29 17.5t-47.5 6q-58 0 -77 -23t-19 -69h-143q0 40 12 75.5t40 61.5t73.5 41t113.5 15q67 0 113 -14.5
t74 -40.5t40 -61t12 -77h-144z" />
    <glyph glyph-name="uni0311.cap" horiz-adv-x="523" 
d="M357 816q0 23 -4 40t-14.5 28.5t-29 17.5t-47.5 6q-58 0 -77 -23t-19 -69h-143q0 40 12 75.5t40 61.5t73.5 41t113.5 15q67 0 113 -14.5t74 -40.5t40 -61t12 -77h-144z" />
    <glyph glyph-name="Ainvertedbreve.sc" horiz-adv-x="722" 
d="M138 638q0 33 11 62.5t37 51t69 34.5t107 13q63 0 106 -12.5t68.5 -34t36.5 -51t11 -63.5h-135q0 34 -16.5 51.5t-70.5 17.5t-71 -17.5t-17 -51.5h-136zM-4 10l208 567h315l207 -567v-10h-206l-37 94h-245l-36 -94h-206v10zM442 240l-32 87l-41 107h-18l-40 -108l-32 -86
h163z" />
    <glyph glyph-name="Amacron" unicode="&#x100;" horiz-adv-x="780" 
d="M-5 11l228 729h334l228 -729v-11h-217l-45 151h-267l-44 -151h-217v11zM474 322l-31 110l-44 155h-18l-45 -157l-30 -108h168zM172 983h435v-142h-435v142z" />
    <glyph glyph-name="macron.cap" horiz-adv-x="519" 
d="M42 983h435v-142h-435v142z" />
    <glyph glyph-name="Amacron.sc" horiz-adv-x="722" 
d="M-4 10l208 567h315l207 -567v-10h-206l-37 94h-245l-36 -94h-206v10zM442 240l-32 87l-41 107h-18l-40 -108l-32 -86h163zM158 789h406v-133h-406v133z" />
    <glyph glyph-name="Aogonek" unicode="&#x104;" horiz-adv-x="779" 
d="M688 -220q-78 0 -121 25.5t-43 72.5q0 32 21.5 65.5t58.5 56.5h-37l-45 151h-267l-44 -151h-217v11l228 729h334l228 -729v-16q-35 -14 -58.5 -25t-37.5 -21t-20 -19t-6 -18q0 -19 29 -19q14 0 42 5t53 11v-117q-23 -6 -47 -9t-51 -3zM473 322l-31 110l-44 155h-18
l-45 -157l-30 -108h168z" />
    <glyph glyph-name="ogonek" unicode="&#x2db;" horiz-adv-x="341" 
d="M198 -220q-78 0 -121 25.5t-43 72.5q0 32 21.5 65.5t58.5 56.5h180v-5q-35 -14 -58.5 -25t-37.5 -21t-20 -19t-6 -18q0 -19 29 -19q14 0 42 5t53 11v-117q-23 -6 -47 -9t-51 -3z" />
    <glyph glyph-name="Aogonek.sc" horiz-adv-x="721" 
d="M637 -171q-73 0 -113.5 22t-40.5 59q0 12 5 25t13.5 25.5t20 23t24.5 16.5h-27l-37 94h-245l-35 -94h-206v10l207 567h315l207 -567v-12q-39 -13 -61 -22t-33.5 -15t-14 -10t-2.5 -6q0 -6 5 -7.5t16 -1.5q7 0 19.5 1t25.5 2.5t25.5 3.5t20.5 4v-109q-23 -5 -45 -7t-44 -2
zM440 240l-31 88l-40 106h-18l-41 -107l-32 -87h162z" />
    <glyph glyph-name="Aring" unicode="&#xc5;" horiz-adv-x="780" 
d="M-5 11l228 729h334l228 -729v-11h-217l-45 151h-267l-44 -151h-217v11zM474 322l-31 110l-44 155h-18l-45 -157l-30 -108h168zM390 777q-61 0 -101.5 32t-40.5 85q0 26 11 48t30 37.5t45 24.5t56 9q62 0 102 -33t40 -86t-40 -85t-102 -32zM390 845q35 0 47.5 11.5
t12.5 37.5t-12.5 38.5t-47.5 12.5t-47.5 -12.5t-12.5 -38.5t12.5 -37.5t47.5 -11.5z" />
    <glyph glyph-name="ring.cap" horiz-adv-x="348" 
d="M173 777q-61 0 -101.5 32t-40.5 85q0 26 11 48t30 37.5t45 24.5t56 9q62 0 102 -33t40 -86t-40 -85t-102 -32zM173 845q35 0 47.5 11.5t12.5 37.5t-12.5 38.5t-47.5 12.5t-47.5 -12.5t-12.5 -38.5t12.5 -37.5t47.5 -11.5z" />
    <glyph glyph-name="Aring.sc" horiz-adv-x="722" 
d="M-4 10l208 567h315l207 -567v-10h-206l-37 94h-245l-36 -94h-206v10zM442 240l-32 87l-41 107h-18l-40 -108l-32 -86h163zM361 606q-56 0 -93 25.5t-37 68.5q0 21 10 38.5t27.5 30t41 19.5t51.5 7t52 -7t41 -19.5t27 -30t10 -38.5q0 -43 -36.5 -68.5t-93.5 -25.5z
M361 666q32 0 43 7.5t11 26.5q0 20 -11 27.5t-43 7.5t-43 -7.5t-11 -27.5q0 -19 11 -26.5t43 -7.5z" />
    <glyph glyph-name="Aringacute" unicode="&#x1fa;" horiz-adv-x="779" 
d="M-5 11l212 671q-23 34 -23 78q0 58 38.5 97t107.5 53l39 120h225l-89 -136q45 -20 71 -54.5t26 -79.5q0 -23 -7.5 -44.5t-21.5 -38.5l211 -666v-11h-216l-43 146h-271l-42 -146h-217v11zM390 702q38 0 61.5 16t23.5 42q0 27 -23.5 43t-61.5 16q-36 0 -58 -16t-22 -43
q0 -26 22.5 -42t57.5 -16zM472 326l-29 106l-44 155h-19l-44 -157l-29 -104h165z" />
    <glyph glyph-name="Aringacute.sc" horiz-adv-x="722" 
d="M-4 10l193 527q-20 26 -20 59q0 48 36 80.5t99 43.5l34 98h213l-81 -112q42 -17 66 -45.5t24 -64.5q0 -35 -27 -65l192 -521v-10h-206l-36 94h-245l-36 -94h-206v10zM362 553q35 0 56.5 12t21.5 31q0 20 -21.5 31t-56.5 11q-34 0 -53.5 -11t-19.5 -31t20 -31.5t53 -11.5z
M443 240l-33 87l-42 119h-15l-42 -120l-30 -86h162z" />
    <glyph glyph-name="Atilde" unicode="&#xc3;" horiz-adv-x="780" 
d="M-5 11l228 729h334l228 -729v-11h-217l-45 151h-267l-44 -151h-217v11zM474 322l-31 110l-44 155h-18l-45 -157l-30 -108h168zM140 854q37 73 84.5 109.5t92.5 36.5q27 0 53 -6t52.5 -12.5t53 -12.5t53.5 -6q23 0 45 7t53 30l23 -34q-38 -74 -85.5 -110t-90.5 -36
q-27 0 -53.5 6t-53 12.5t-53 12.5t-53.5 6q-24 0 -46.5 -7t-51.5 -30z" />
    <glyph glyph-name="tilde.cap" horiz-adv-x="539" 
d="M14 854q37 73 84.5 109.5t92.5 36.5q27 0 53 -6t52.5 -12.5t53 -12.5t53.5 -6q23 0 45 7t53 30l23 -34q-38 -74 -85.5 -110t-90.5 -36q-27 0 -53.5 6t-53 12.5t-53 12.5t-53.5 6q-24 0 -46.5 -7t-51.5 -30z" />
    <glyph glyph-name="Atilde.sc" horiz-adv-x="722" 
d="M-4 10l208 567h315l207 -567v-10h-206l-37 94h-245l-36 -94h-206v10zM442 240l-32 87l-41 107h-18l-40 -108l-32 -86h163zM127 666q34 67 78.5 100t86.5 33q25 0 49.5 -4t49 -9.5t49 -9.5t49.5 -4q21 0 42 5t50 23l20 -30q-35 -67 -80 -99.5t-83 -32.5q-25 0 -50 4
t-50 9.5t-50 9.5t-50 4q-22 0 -42.5 -5t-46.5 -23z" />
    <glyph glyph-name="B" unicode="B" horiz-adv-x="747" 
d="M385 -10q-81 0 -159 3.5t-165 11.5v730q80 8 151.5 11.5t141.5 3.5q178 0 260.5 -51.5t82.5 -161.5q0 -120 -128 -154v-4q74 -14 112.5 -58.5t38.5 -115.5q0 -110 -81.5 -162.5t-253.5 -52.5zM382 146q59 0 86.5 19.5t27.5 61.5t-25.5 58.5t-89.5 16.5h-106v-152
q6 -1 12.5 -2t17.5 -1.5t29 -0.5h48zM365 445q61 0 85 17t24 59q0 40 -24 57t-83 17q-53 0 -92 -6v-144h90z" />
    <glyph glyph-name="B.sc" horiz-adv-x="696" 
d="M366 -8q-78 0 -151 3t-156 9v569q72 6 139.5 9t134.5 3q163 0 239 -40.5t76 -128.5q0 -45 -28.5 -73t-87.5 -43v-3q67 -11 102.5 -45.5t35.5 -88.5q0 -89 -73.5 -130t-230.5 -41zM361 133q51 0 75.5 12t24.5 40q0 27 -22.5 36.5t-79.5 9.5h-98v-97q6 -1 11.5 -1h15.5h27
h46zM343 353q54 0 75.5 10t21.5 37q0 25 -21.5 35t-73.5 10q-23 0 -45 -0.5t-39 -3.5v-88h82z" />
    <glyph glyph-name="C" unicode="C" horiz-adv-x="617" 
d="M425 -14q-200 0 -297 93.5t-97 289.5q0 197 93.5 291t282.5 94q35 0 76.5 -3.5t101.5 -11.5v-177q-33 3 -55.5 5t-39 3t-29 1.5t-25.5 0.5q-54 0 -87.5 -7.5t-52.5 -29.5t-26 -62t-7 -104q0 -63 7 -102t26 -60.5t52.5 -29.5t85.5 -8q17 0 38 1t42 3t39.5 4t31.5 5v-178
q-37 -8 -78 -13t-82 -5z" />
    <glyph glyph-name="C.sc" horiz-adv-x="575" 
d="M397 -12q-187 0 -276.5 73t-89.5 227t85 227.5t262 73.5q38 0 76 -2.5t87 -7.5v-167q-24 2 -41.5 3t-32.5 2t-29.5 1h-32.5q-51 0 -81.5 -4t-46.5 -17.5t-21 -39t-5 -69.5q0 -43 5 -68.5t21.5 -38.5t46 -17t79.5 -4q16 0 35 0.5t38.5 1.5t36.5 2.5t28 3.5v-168
q-62 -12 -144 -12z" />
    <glyph glyph-name="A.sc" horiz-adv-x="722" 
d="M-4 10l208 567h315l207 -567v-10h-206l-37 94h-245l-36 -94h-206v10zM443 233l-33 94l-41 107h-18l-40 -108l-33 -93h165z" />
    <glyph glyph-name="Cacute" unicode="&#x106;" horiz-adv-x="617" 
d="M425 -14q-200 0 -297 93.5t-97 289.5q0 197 93.5 291t282.5 94q35 0 76.5 -3.5t101.5 -11.5v-177q-33 3 -55.5 5t-39 3t-29 1.5t-25.5 0.5q-54 0 -87.5 -7.5t-52.5 -29.5t-26 -62t-7 -104q0 -63 7 -102t26 -60.5t52.5 -29.5t85.5 -8q17 0 38 1t42 3t39.5 4t31.5 5v-178
q-37 -8 -78 -13t-82 -5zM258 813l63 190h224l-129 -200z" />
    <glyph glyph-name="Cacute.sc" horiz-adv-x="575" 
d="M396 -12q-187 0 -276.5 72.5t-89.5 227.5q0 154 85.5 227.5t261.5 73.5q32 0 69 -2t94 -8v-167q-32 2 -52.5 3.5t-35 2t-25.5 0.5h-23q-49 0 -79 -3t-46.5 -16t-22.5 -39t-6 -72q0 -44 6 -69.5t22.5 -38.5t46 -16.5t77.5 -3.5q15 0 34 0.5t38.5 1.5t37 2.5t28.5 3.5v-168
q-35 -6 -71.5 -9t-72.5 -3zM237 637l55 161h213l-120 -170z" />
    <glyph glyph-name="Ccaron" unicode="&#x10c;" horiz-adv-x="617" 
d="M425 -14q-200 0 -297 93.5t-97 289.5q0 197 93.5 291t282.5 94q35 0 76.5 -3.5t101.5 -11.5v-177q-33 3 -55.5 5t-39 3t-29 1.5t-25.5 0.5q-54 0 -87.5 -7.5t-52.5 -29.5t-26 -62t-7 -104q0 -63 7 -102t26 -60.5t52.5 -29.5t85.5 -8q17 0 38 1t42 3t39.5 4t31.5 5v-178
q-37 -8 -78 -13t-82 -5zM129 1016l219 -80l219 80v-143l-221 -79l-217 79v143z" />
    <glyph glyph-name="caron.cap" horiz-adv-x="497" 
d="M30 1016l219 -80l219 80v-143l-221 -79l-217 79v143z" />
    <glyph glyph-name="Ccaron.sc" horiz-adv-x="575" 
d="M396 -12q-187 0 -276.5 72.5t-89.5 227.5q0 154 85.5 227.5t261.5 73.5q32 0 69 -2t94 -8v-167q-32 2 -52.5 3.5t-35 2t-25.5 0.5h-23q-49 0 -79 -3t-46.5 -16t-22.5 -39t-6 -72q0 -44 6 -69.5t22.5 -38.5t46 -16.5t77.5 -3.5q15 0 34 0.5t38.5 1.5t37 2.5t28.5 3.5v-168
q-35 -6 -71.5 -9t-72.5 -3zM116 812l204 -65l204 65v-132l-206 -64l-202 64v132z" />
    <glyph glyph-name="Ccedilla" unicode="&#xc7;" horiz-adv-x="617" 
d="M352 -220q-24 0 -53.5 3.5t-60.5 8.5v123q22 -5 45.5 -8t39.5 -3q17 0 22 5t5 12q0 11 -9 30t-27 44q-143 23 -213 115t-70 259q0 197 93.5 291t282.5 94q35 0 76.5 -3.5t101.5 -11.5v-177q-33 3 -55.5 5t-39 3t-29 1.5t-25.5 0.5q-54 0 -87.5 -7.5t-52.5 -29.5t-26 -62
t-7 -104q0 -63 7 -102t26 -60.5t52.5 -29.5t85.5 -8q17 0 38 1t42 3t39.5 4t31.5 5v-178q-65 -14 -135 -17q22 -29 30 -50.5t8 -45.5q0 -53 -36.5 -82t-99.5 -29z" />
    <glyph glyph-name="cedilla" unicode="&#xb8;" horiz-adv-x="317" 
d="M150 -220q-24 0 -53.5 3.5t-60.5 8.5v123q22 -5 45.5 -8t39.5 -3q17 0 22 5t5 12q0 17 -21.5 53t-68.5 82h128q30 -30 49 -53t30.5 -42t16 -35.5t4.5 -34.5q0 -53 -36.5 -82t-99.5 -29z" />
    <glyph glyph-name="Ccedilla.sc" horiz-adv-x="576" 
d="M329 -172q-23 0 -50 3.5t-56 6.5v113q20 -4 42.5 -6.5t37.5 -2.5q13 0 17 1t4 -1q0 16 -27 52q-136 17 -201 89t-65 205q0 154 85.5 227.5t261.5 73.5q31 0 68.5 -2t94.5 -8v-167q-32 2 -52.5 3.5t-35.5 2t-25.5 0.5h-22.5q-49 0 -79 -3t-46.5 -16t-22.5 -39t-6 -72
q0 -44 6 -69.5t22.5 -38.5t46 -16.5t77.5 -3.5q15 0 34 0.5t38.5 1.5t36.5 2.5t29 3.5v-168q-28 -5 -58 -8t-60 -4q17 -21 23.5 -37.5t6.5 -35.5q0 -41 -33.5 -64t-90.5 -23z" />
    <glyph glyph-name="Ccircumflex" unicode="&#x108;" horiz-adv-x="617" 
d="M425 -14q-200 0 -297 93.5t-97 289.5q0 197 93.5 291t282.5 94q35 0 76.5 -3.5t101.5 -11.5v-177q-33 3 -55.5 5t-39 3t-29 1.5t-25.5 0.5q-54 0 -87.5 -7.5t-52.5 -29.5t-26 -62t-7 -104q0 -63 7 -102t26 -60.5t52.5 -29.5t85.5 -8q17 0 38 1t42 3t39.5 4t31.5 5v-178
q-37 -8 -78 -13t-82 -5zM124 936l217 80l221 -80v-142l-219 79l-219 -79v142z" />
    <glyph glyph-name="Ccircumflex.sc" horiz-adv-x="575" 
d="M396 -12q-187 0 -276.5 72.5t-89.5 227.5q0 154 85.5 227.5t261.5 73.5q32 0 69 -2t94 -8v-167q-32 2 -52.5 3.5t-35 2t-25.5 0.5h-23q-49 0 -79 -3t-46.5 -16t-22.5 -39t-6 -72q0 -44 6 -69.5t22.5 -38.5t46 -16.5t77.5 -3.5q15 0 34 0.5t38.5 1.5t37 2.5t28.5 3.5v-168
q-35 -6 -71.5 -9t-72.5 -3zM112 747l203 64l206 -64v-131l-204 63l-205 -63v131z" />
    <glyph glyph-name="Cdotaccent" unicode="&#x10a;" horiz-adv-x="617" 
d="M365 795q-63 0 -90 27t-27 87t27 86.5t90 26.5q64 0 90 -28t26 -85q0 -58 -26 -86t-90 -28zM425 -14q-200 0 -297 93.5t-97 289.5q0 197 93.5 291t282.5 94q35 0 76.5 -3.5t101.5 -11.5v-177q-33 3 -55.5 5t-39 3t-29 1.5t-25.5 0.5q-54 0 -87.5 -7.5t-52.5 -29.5
t-26 -62t-7 -104q0 -63 7 -102t26 -60.5t52.5 -29.5t85.5 -8q17 0 38 1t42 3t39.5 4t31.5 5v-178q-37 -8 -78 -13t-82 -5z" />
    <glyph glyph-name="dotaccent.cap" horiz-adv-x="316" 
d="M157 795q-63 0 -90 27t-27 87t27 86.5t90 26.5q64 0 90 -28t26 -85q0 -58 -26 -86t-90 -28z" />
    <glyph glyph-name="Cdotaccent.sc" horiz-adv-x="575" 
d="M396 -12q-187 0 -276.5 72.5t-89.5 227.5q0 154 85.5 227.5t261.5 73.5q32 0 69 -2t94 -8v-167q-32 2 -52.5 3.5t-35 2t-25.5 0.5h-23q-49 0 -79 -3t-46.5 -16t-22.5 -39t-6 -72q0 -44 6 -69.5t22.5 -38.5t46 -16.5t77.5 -3.5q15 0 34 0.5t38.5 1.5t37 2.5t28.5 3.5v-168
q-35 -6 -71.5 -9t-72.5 -3zM339 615q-60 0 -85 24.5t-25 80.5q0 54 25 79t85 25t84.5 -25.5t24.5 -78.5q0 -54 -24.5 -79.5t-84.5 -25.5z" />
    <glyph glyph-name="D" unicode="D" horiz-adv-x="802" 
d="M295 -11q-61 0 -124 3.5t-110 9.5v737q96 5 162 8t116 3q114 0 195.5 -22t134 -68t77.5 -118.5t25 -172.5q0 -103 -26 -175t-83 -117.5t-147.5 -66.5t-219.5 -21zM386 166q45 0 75 9t48 32.5t25 62.5t7 99q0 59 -8 98t-27.5 62.5t-51.5 33.5t-80 10q-17 0 -37 -1t-52 -3
v-396q23 -4 49.5 -5.5t51.5 -1.5z" />
    <glyph glyph-name="D.sc" horiz-adv-x="745" 
d="M320 -8q-33 0 -68.5 0.5t-70 2t-66 3t-56.5 3.5v575q87 5 149 7t111 2q206 0 301 -71t95 -227q0 -77 -23 -133t-71.5 -92t-123 -53t-177.5 -17zM363 157q40 0 66 5t41 19.5t21 40t6 66.5q0 39 -7 64.5t-23.5 40t-44 20.5t-69.5 6q-19 0 -36 -0.5t-45 -1.5v-254
q19 -3 42.5 -4.5t48.5 -1.5z" />
    <glyph glyph-name="Dcaron" unicode="&#x10e;" horiz-adv-x="802" 
d="M181 1016l219 -80l219 80v-143l-221 -79l-217 79v143zM295 -11q-61 0 -124 3.5t-110 9.5v737q96 5 162 8t116 3q114 0 195.5 -22t134 -68t77.5 -118.5t25 -172.5q0 -103 -26 -175t-83 -117.5t-147.5 -66.5t-219.5 -21zM386 166q45 0 75 9t48 32.5t25 62.5t7 99
q0 59 -8 98t-27.5 62.5t-51.5 33.5t-80 10q-17 0 -37 -1t-52 -3v-396q23 -4 49.5 -5.5t51.5 -1.5z" />
    <glyph glyph-name="Dcaron.sc" horiz-adv-x="746" 
d="M320 -8q-33 0 -68.5 0.5t-70 2t-66 3t-56.5 3.5v575q87 5 149 7t111 2q206 0 301 -71t95 -227q0 -77 -23 -133t-71.5 -92t-123 -53t-177.5 -17zM363 157q40 0 66 5t41 19.5t21 40t6 66.5q0 39 -7 64.5t-23.5 40t-44 20.5t-69.5 6q-19 0 -36 -0.5t-45 -1.5v-254
q19 -3 42.5 -4.5t48.5 -1.5zM172 680v132l204 -65l205 65v-132l-207 -64z" />
    <glyph glyph-name="Dcroat" unicode="&#x110;" horiz-adv-x="830" 
d="M3 458h86v281q96 5 162 8t116 3q114 0 195.5 -22t134 -68t77.5 -118.5t25 -172.5q0 -103 -26 -175t-83 -117.5t-147.5 -66.5t-219.5 -21q-61 0 -124 3.5t-110 9.5v289h-86v167zM414 166q45 0 75 9t48 32.5t25 62.5t7 99q0 59 -8 98t-27.5 62.5t-51.5 33.5t-80 10
q-17 0 -37 -1t-52 -3v-111h91v-167h-91v-118q23 -4 49.5 -5.5t51.5 -1.5z" />
    <glyph glyph-name="Dcroat.sc" horiz-adv-x="775" 
d="M12 372h77v204q91 5 152.5 7t107.5 2q104 0 179 -17t123 -53t71 -92.5t23 -135.5q0 -81 -24 -137t-76.5 -91.5t-136.5 -51t-203 -15.5q-57 0 -115.5 2.5t-100.5 6.5v214h-77v157zM392 157q40 0 66.5 5t42 19t21.5 40t6 67q0 39 -7 64.5t-24 40.5t-44.5 20.5t-69.5 5.5
h-34t-48 -2v-45h79v-157h-79v-52q20 -2 44 -4t47 -2z" />
    <glyph glyph-name="Ddotbelow" unicode="&#x1e0c;" horiz-adv-x="802" 
d="M391 -220q-48 0 -68 19.5t-20 64.5t20 65t68 20q50 0 69.5 -20.5t19.5 -64.5q0 -43 -19.5 -63.5t-69.5 -20.5zM295 -11q-61 0 -124 3.5t-110 9.5v737q96 5 162 8t116 3q114 0 195.5 -22t134 -68t77.5 -118.5t25 -172.5q0 -103 -26 -175t-83 -117.5t-147.5 -66.5
t-219.5 -21zM386 166q45 0 75 9t48 32.5t25 62.5t7 99q0 59 -8 98t-27.5 62.5t-51.5 33.5t-80 10q-17 0 -37 -1t-52 -3v-396q23 -4 49.5 -5.5t51.5 -1.5z" />
    <glyph glyph-name="dotbelow" horiz-adv-x="263" 
d="M131 -220q-48 0 -68 19.5t-20 64.5t20 65t68 20q50 0 69.5 -20.5t19.5 -64.5q0 -43 -19.5 -63.5t-69.5 -20.5z" />
    <glyph glyph-name="Ddotbelow.sc" horiz-adv-x="746" 
d="M320 -8q-33 0 -68.5 0.5t-70 2t-66 3t-56.5 3.5v575q87 5 149 7t111 2q206 0 301 -71t95 -227q0 -77 -23 -133t-71.5 -92t-123 -53t-177.5 -17zM363 157q40 0 66 5t41 19.5t21 40t6 66.5q0 39 -7 64.5t-23.5 40t-44 20.5t-69.5 6q-19 0 -36 -0.5t-45 -1.5v-254
q19 -3 42.5 -4.5t48.5 -1.5zM367 -181q-45 0 -64 18t-19 57q0 40 19 58t64 18q46 0 64 -19t18 -57t-18 -56.5t-64 -18.5z" />
    <glyph glyph-name="Delta" unicode="&#x2206;" horiz-adv-x="883" 
d="M309 740h265l289 -740h-843zM591 172l-150 384l-149 -384h299z" />
    <glyph glyph-name="E" unicode="E" horiz-adv-x="684" 
d="M61 740h580v-172h-355v-112h317v-172h-317v-111h365v-173h-590v740z" />
    <glyph glyph-name="E.sc" horiz-adv-x="641" 
d="M59 577h538v-155h-325v-65h289v-136h-289v-65h333v-156h-546v577z" />
    <glyph glyph-name="Eacute" unicode="&#xc9;" horiz-adv-x="684" 
d="M261 813l63 190h224l-129 -200zM61 740h580v-172h-355v-112h317v-172h-317v-111h365v-173h-590v740z" />
    <glyph glyph-name="Eacute.sc" horiz-adv-x="641" 
d="M59 577h538v-155h-325v-65h289v-136h-289v-65h333v-156h-546v577zM242 637l56 161h213l-120 -170z" />
    <glyph glyph-name="Ebreve" unicode="&#x114;" horiz-adv-x="684" 
d="M345 806q-68 0 -113.5 14.5t-73.5 40.5t-40 61.5t-12 76.5h143q0 -47 19 -70t77 -23q29 0 47.5 6t29 17.5t14.5 29t4 40.5h144q0 -42 -12 -77.5t-40 -61t-74 -40t-113 -14.5zM61 740h580v-172h-355v-112h317v-172h-317v-111h365v-173h-590v740z" />
    <glyph glyph-name="Ebreve.sc" horiz-adv-x="641" 
d="M321 628q-64 0 -107 13t-69 35t-37 51.5t-11 62.5h136q0 -35 17 -53t71 -18t70.5 18t16.5 53h135q0 -35 -11 -64.5t-36.5 -51t-68.5 -34t-106 -12.5zM59 577h538v-155h-325v-65h289v-136h-289v-65h333v-156h-546v577z" />
    <glyph glyph-name="Ecaron" unicode="&#x11a;" horiz-adv-x="684" 
d="M135 1016l219 -80l219 80v-143l-221 -79l-217 79v143zM61 740h580v-172h-355v-112h317v-172h-317v-111h365v-173h-590v740z" />
    <glyph glyph-name="Ecaron.sc" horiz-adv-x="641" 
d="M59 577h538v-155h-325v-65h289v-136h-289v-65h333v-156h-546v577zM125 680v132l204 -65l204 65v-132l-206 -64z" />
    <glyph glyph-name="Ecircumflex" unicode="&#xca;" horiz-adv-x="684" 
d="M61 740h580v-172h-355v-112h317v-172h-317v-111h365v-173h-590v740zM148 936l217 80l221 -80v-142l-219 79l-219 -79v142z" />
    <glyph glyph-name="Ecircumflex.sc" horiz-adv-x="641" 
d="M59 577h538v-155h-325v-65h289v-136h-289v-65h333v-156h-546v577zM140 747l202 64l206 -64v-131l-204 63l-204 -63v131z" />
    <glyph glyph-name="Edblgrave" unicode="&#x204;" horiz-adv-x="684" 
d="M61 740h580v-172h-355v-112h317v-172h-317v-111h365v-173h-590v740zM157 803l-131 200h213l62 -190zM396 803l-131 200h212l63 -190z" />
    <glyph glyph-name="Edblgrave.sc" horiz-adv-x="641" 
d="M59 577h538v-155h-325v-65h289v-136h-289v-65h333v-156h-546v577zM23 800h203l54 -164l-138 -7zM246 800h203l55 -164l-139 -7z" />
    <glyph glyph-name="Edieresis" unicode="&#xcb;" horiz-adv-x="684" 
d="M209 795q-63 0 -90 27t-27 87t27 86.5t90 26.5q64 0 90 -28t26 -85q0 -58 -26 -86t-90 -28zM516 795q-64 0 -90.5 27t-26.5 87t26.5 86.5t90.5 26.5t90 -28t26 -85q0 -58 -26 -86t-90 -28zM61 740h580v-172h-355v-112h317v-172h-317v-111h365v-173h-590v740z" />
    <glyph glyph-name="Edieresis.sc" horiz-adv-x="641" 
d="M197 614q-60 0 -85 24.5t-25 80.5q0 54 25 79t85 25q61 0 85.5 -25.5t24.5 -78.5q0 -54 -24.5 -79.5t-85.5 -25.5zM480 614q-60 0 -85 24.5t-25 80.5q0 54 25 79t85 25t84.5 -25.5t24.5 -78.5q0 -54 -24.5 -79.5t-84.5 -25.5zM59 577h538v-155h-325v-65h289v-136h-289
v-65h333v-156h-546v577z" />
    <glyph glyph-name="Edotaccent" unicode="&#x116;" horiz-adv-x="684" 
d="M345 795q-63 0 -90 27t-27 87t27 86.5t90 26.5q64 0 90 -28t26 -85q0 -58 -26 -86t-90 -28zM61 740h580v-172h-355v-112h317v-172h-317v-111h365v-173h-590v740z" />
    <glyph glyph-name="Edotaccent.sc" horiz-adv-x="641" 
d="M321 615q-60 0 -85 24.5t-25 80.5q0 54 25 79t85 25t84.5 -25.5t24.5 -78.5q0 -54 -24.5 -79.5t-84.5 -25.5zM59 577h538v-155h-325v-65h289v-136h-289v-65h333v-156h-546v577z" />
    <glyph glyph-name="Edotbelow" unicode="&#x1eb8;" horiz-adv-x="684" 
d="M61 740h580v-172h-355v-112h317v-172h-317v-111h365v-173h-590v740zM367 -220q-48 0 -68 19.5t-20 64.5t20 65t68 20q50 0 69.5 -20.5t19.5 -64.5q0 -43 -19.5 -63.5t-69.5 -20.5z" />
    <glyph glyph-name="Edotbelow.sc" horiz-adv-x="641" 
d="M343 -181q-45 0 -63.5 17.5t-18.5 57.5t18.5 58t63.5 18q47 0 64.5 -19t17.5 -57t-17.5 -56.5t-64.5 -18.5zM59 577h538v-155h-325v-65h289v-136h-289v-65h333v-156h-546v577z" />
    <glyph glyph-name="Egrave" unicode="&#xc8;" horiz-adv-x="684" 
d="M296 803l-131 200h226l62 -190zM61 740h580v-172h-355v-112h317v-172h-317v-111h365v-173h-590v740z" />
    <glyph glyph-name="Egrave.sc" horiz-adv-x="641" 
d="M59 577h538v-155h-325v-65h289v-136h-289v-65h333v-156h-546v577zM157 798h214l55 -163l-149 -7z" />
    <glyph glyph-name="Einvertedbreve" unicode="&#x206;" horiz-adv-x="684" 
d="M61 740h580v-172h-355v-112h317v-172h-317v-111h365v-173h-590v740zM448 816q0 23 -4 40t-14.5 28.5t-29 17.5t-47.5 6q-58 0 -77 -23t-19 -69h-143q0 40 12 75.5t40 61.5t73.5 41t113.5 15q67 0 113 -14.5t74 -40.5t40 -61t12 -77h-144z" />
    <glyph glyph-name="Einvertedbreve.sc" horiz-adv-x="641" 
d="M106 638q0 33 11 62.5t37 51t68.5 34.5t106.5 13q63 0 106 -12.5t69 -34t37 -51t11 -63.5h-135q0 34 -17 51.5t-71 17.5q-53 0 -70.5 -17.5t-17.5 -51.5h-135zM59 577h538v-155h-325v-65h289v-136h-289v-65h333v-156h-546v577z" />
    <glyph glyph-name="Emacron" unicode="&#x112;" horiz-adv-x="684" 
d="M138 983h435v-142h-435v142zM61 740h580v-172h-355v-112h317v-172h-317v-111h365v-173h-590v740z" />
    <glyph glyph-name="Emacron.sc" horiz-adv-x="641" 
d="M59 577h538v-155h-325v-65h289v-136h-289v-65h333v-156h-546v577zM129 789h406v-133h-406v133z" />
    <glyph glyph-name="Eng" unicode="&#x14a;" horiz-adv-x="831" 
d="M485 -170q16 36 28 65.5t20 56.5t13.5 52.5t8.5 51.5l-216 260l-69 95h-10v-411h-199v740h173l271 -326l59 -84h10v410h199v-604q0 -32 -11 -75.5t-30.5 -91t-45 -96.5t-55.5 -91z" />
    <glyph glyph-name="Eng.sc" horiz-adv-x="751" 
d="M436 -132q15 31 26 54.5t18 43t11 36.5t7 35l-176 164l-66 77l-9 1v-279h-187v577h162l219 -213l56 -64h9v277h187v-458q0 -29 -8 -63.5t-23.5 -73t-37.5 -79t-50 -80.5z" />
    <glyph glyph-name="Eogonek" unicode="&#x118;" horiz-adv-x="684" 
d="M61 740h580v-172h-355v-112h317v-172h-317v-111h365v-178q-35 -14 -58.5 -25t-37.5 -21t-20 -19t-6 -18q0 -19 29 -19q14 0 42 5t53 11v-117q-23 -6 -47 -9t-51 -3q-78 0 -121 25.5t-43 72.5q0 32 21.5 65.5t58.5 56.5h-410v740z" />
    <glyph glyph-name="Eogonek.sc" horiz-adv-x="641" 
d="M519 -172q-79 0 -117 21.5t-38 60.5q0 29 19 53t46 37h-369v577h537v-155h-324v-65h288v-136h-288v-65h333v-156q-38 -13 -60.5 -22.5t-33.5 -16.5t-14 -11t-3 -7q0 -7 21 -7q7 0 19.5 1t25.5 2.5t25.5 3t20.5 3.5v-108q-23 -6 -45 -8t-43 -2z" />
    <glyph glyph-name="Eth" unicode="&#xd0;" horiz-adv-x="830" 
d="M3 458h86v281q96 5 162 8t116 3q114 0 195.5 -22t134 -68t77.5 -118.5t25 -172.5q0 -103 -26 -175t-83 -117.5t-147.5 -66.5t-219.5 -21q-61 0 -124 3.5t-110 9.5v289h-86v167zM414 166q45 0 75 9t48 32.5t25 62.5t7 99q0 59 -8 98t-27.5 62.5t-51.5 33.5t-80 10
q-17 0 -37 -1t-52 -3v-111h91v-167h-91v-118q23 -4 49.5 -5.5t51.5 -1.5z" />
    <glyph glyph-name="Eth.sc" horiz-adv-x="773" 
d="M10 364h77v212q91 5 152 7t108 2q104 0 179 -17t123 -53t71 -92.5t23 -135.5q0 -81 -24 -137t-76.5 -91.5t-136.5 -51t-203 -15.5q-57 0 -116 2.5t-100 6.5v218h-77v145zM390 157q40 0 66 5t41.5 19t21.5 40t6 67q0 39 -7 64.5t-23.5 40.5t-44.5 20.5t-70 5.5h-33t-48 -2
v-53h78v-145h-78v-56q20 -2 44 -4t47 -2z" />
    <glyph glyph-name="Etilde" unicode="&#x1ebc;" horiz-adv-x="684" 
d="M103 854q37 73 84.5 109.5t92.5 36.5q27 0 53 -6t52.5 -12.5t53 -12.5t53.5 -6q23 0 45 7t53 30l23 -34q-38 -74 -85.5 -110t-90.5 -36q-27 0 -53.5 6t-53 12.5t-53 12.5t-53.5 6q-24 0 -46.5 -7t-51.5 -30zM61 740h580v-172h-355v-112h317v-172h-317v-111h365v-173h-590
v740z" />
    <glyph glyph-name="Etilde.sc" horiz-adv-x="641" 
d="M95 666q34 67 78.5 100t86.5 33q25 0 49.5 -4t49 -9.5t49.5 -9.5t50 -4q21 0 41 5t49 23l21 -30q-35 -67 -80 -99.5t-83 -32.5q-25 0 -50 4t-50 9.5t-50 9.5t-50 4q-22 0 -42.5 -5t-46.5 -23zM59 577h538v-155h-325v-65h289v-136h-289v-65h333v-156h-546v577z" />
    <glyph glyph-name="Euro" unicode="&#x20ac;" horiz-adv-x="736" 
d="M30 514h88q32 116 126.5 176t259.5 60q67 0 117 -8t80 -14l-49 -175q-8 1 -21 3t-27.5 3.5t-29 2.5t-26.5 1q-84 0 -129.5 -10t-66.5 -39h280l-20 -119h-286v-50h274l-20 -119h-229q21 -30 67.5 -40t132.5 -10q41 0 76.5 3.5t73.5 13.5v-182q-31 -10 -81 -15.5t-104 -5.5
q-173 0 -270 60t-129 176h-87v119h70v50h-70v119z" />
    <glyph glyph-name="Euro.tab" 
d="M2 514h82q32 116 121 176t247 60q66 0 114.5 -8t77.5 -14l-47 -175q-8 1 -20.5 3t-26.5 3.5t-28.5 2.5t-25.5 1q-78 0 -120 -10t-62 -39h265l-18 -119h-272v-50h261l-20 -119h-216q20 -30 63 -40t122 -10q40 0 75 3.5t71 13.5v-182q-29 -10 -78.5 -15.5t-101.5 -5.5
q-166 0 -258 59.5t-123 176.5h-82v119h65v50h-65v119z" />
    <glyph glyph-name="F" unicode="F" horiz-adv-x="662" 
d="M61 740h578v-172h-353v-139h315v-173h-315v-256h-225v740z" />
    <glyph glyph-name="F.sc" horiz-adv-x="621" 
d="M59 577h536v-160h-323v-84h288v-146h-288v-187h-213v577z" />
    <glyph glyph-name="F_B.sc" horiz-adv-x="1310" 
d="M59 577h536v-160h-323v-84h288v-146h-288v-187h-213v577zM980 -8q-78 0 -151 3t-156 9v569q72 6 139.5 9t134.5 3q163 0 239 -40.5t76 -128.5q0 -45 -28.5 -73t-87.5 -43v-3q67 -11 102.5 -45.5t35.5 -88.5q0 -89 -73.5 -130t-230.5 -41zM975 133q51 0 75.5 12t24.5 40
q0 27 -22.5 36.5t-79.5 9.5h-98v-97q6 -1 11.5 -1h15.5h27h46zM957 353q54 0 75.5 10t21.5 37q0 25 -21.5 35t-73.5 10q-23 0 -45 -0.5t-39 -3.5v-88h82z" />
    <glyph glyph-name="F_F.sc" horiz-adv-x="1234" 
d="M59 577h536v-160h-323v-84h288v-146h-288v-187h-213v577zM672 577h536v-160h-323v-84h288v-146h-288v-187h-213v577z" />
    <glyph glyph-name="F_F_B.sc" horiz-adv-x="1923" 
d="M59 577h536v-160h-323v-84h288v-146h-288v-187h-213v577zM672 577h536v-160h-323v-84h288v-146h-288v-187h-213v577zM1593 -8q-78 0 -151 3t-156 9v569q72 6 139.5 9t134.5 3q163 0 239 -40.5t76 -128.5q0 -45 -28.5 -73t-87.5 -43v-3q67 -11 102.5 -45.5t35.5 -88.5
q0 -89 -73.5 -130t-230.5 -41zM1588 133q51 0 75.5 12t24.5 40q0 27 -22.5 36.5t-79.5 9.5h-98v-97q6 -1 11.5 -1h15.5h27h46zM1570 353q54 0 75.5 10t21.5 37q0 25 -21.5 35t-73.5 10q-23 0 -45 -0.5t-39 -3.5v-88h82z" />
    <glyph glyph-name="F_F_H.sc" horiz-adv-x="2015" 
d="M59 577h536v-160h-323v-84h288v-146h-288v-187h-213v577zM672 577h536v-160h-323v-84h288v-146h-288v-187h-213v577zM1285 577h213v-200h244v200h213v-577h-213v216h-244v-216h-213v577z" />
    <glyph glyph-name="H.sc" horiz-adv-x="789" 
d="M59 577h213v-200h244v200h213v-577h-213v216h-244v-216h-213v577z" />
    <glyph glyph-name="F_F_I.sc" horiz-adv-x="1558" 
d="M59 577h536v-160h-323v-84h288v-146h-288v-187h-213v577zM672 577h536v-160h-323v-84h288v-146h-288v-187h-213v577zM1285 577h213v-577h-213v577z" />
    <glyph glyph-name="I.sc" horiz-adv-x="332" 
d="M59 577h213v-577h-213v577z" />
    <glyph glyph-name="F_F_J.sc" horiz-adv-x="1565" 
d="M59 577h536v-160h-323v-84h288v-146h-288v-187h-213v577zM672 577h536v-160h-323v-84h288v-146h-288v-187h-213v577zM1227 -122q19 40 32 74t21 67t11 67t3 75v416h214v-433q0 -42 -7.5 -80.5t-24.5 -76.5t-45 -78.5t-69 -87.5z" />
    <glyph glyph-name="J.sc" horiz-adv-x="331" 
d="M-6 -122q19 40 32 74t21 67t11 67t3 75v416h214v-433q0 -42 -7.5 -80.5t-24.5 -76.5t-45 -78.5t-69 -87.5z" />
    <glyph glyph-name="F_F_K.sc" horiz-adv-x="1942" 
d="M59 577h536v-160h-323v-84h288v-146h-288v-187h-213v577zM672 577h536v-160h-323v-84h288v-146h-288v-187h-213v577zM1285 577h213v-208h72l129 208h236l-169 -248l-57 -21v-8l60 -23l182 -277h-237l-130 208h-86v-208h-213v577z" />
    <glyph glyph-name="K.sc" horiz-adv-x="716" 
d="M59 577h213v-208h72l129 208h236l-169 -248l-57 -21v-8l60 -23l182 -277h-237l-130 208h-86v-208h-213v577z" />
    <glyph glyph-name="F_F_L.sc" horiz-adv-x="1792" 
d="M1285 577h213v-416h278v-161h-491v577zM59 577h536v-160h-323v-84h288v-146h-288v-187h-213v577zM672 577h536v-160h-323v-84h288v-146h-288v-187h-213v577z" />
    <glyph glyph-name="L.sc" horiz-adv-x="566" 
d="M59 577h213v-416h278v-161h-491v577z" />
    <glyph glyph-name="F_F_T.sc" horiz-adv-x="1819" 
d="M1402 416h-181v161h576v-161h-182v-416h-213v416zM59 577h536v-160h-323v-84h288v-146h-288v-187h-213v577zM672 577h536v-160h-323v-84h288v-146h-288v-187h-213v577z" />
    <glyph glyph-name="T.sc" horiz-adv-x="622" 
d="M204 416h-181v161h576v-161h-182v-416h-213v416z" />
    <glyph glyph-name="F_H.sc" horiz-adv-x="1402" 
d="M59 577h536v-160h-323v-84h288v-146h-288v-187h-213v577zM672 577h213v-200h244v200h213v-577h-213v216h-244v-216h-213v577z" />
    <glyph glyph-name="F_I.sc" horiz-adv-x="945" 
d="M59 577h536v-160h-323v-84h288v-146h-288v-187h-213v577zM672 577h213v-577h-213v577z" />
    <glyph glyph-name="F_J.sc" horiz-adv-x="952" 
d="M59 577h536v-160h-323v-84h288v-146h-288v-187h-213v577zM614 -122q19 40 32 74t21 67t11 67t3 75v416h214v-433q0 -42 -7.5 -80.5t-24.5 -76.5t-45 -78.5t-69 -87.5z" />
    <glyph glyph-name="F_K.sc" horiz-adv-x="1329" 
d="M59 577h536v-160h-323v-84h288v-146h-288v-187h-213v577zM672 577h213v-208h72l129 208h236l-169 -248l-57 -21v-8l60 -23l182 -277h-237l-130 208h-86v-208h-213v577z" />
    <glyph glyph-name="F_L.sc" horiz-adv-x="1179" 
d="M672 577h213v-416h278v-161h-491v577zM59 577h536v-160h-323v-84h288v-146h-288v-187h-213v577z" />
    <glyph glyph-name="F_T.sc" horiz-adv-x="1206" 
d="M789 416h-181v161h576v-161h-182v-416h-213v416zM59 577h536v-160h-323v-84h288v-146h-288v-187h-213v577z" />
    <glyph glyph-name="G" unicode="G" horiz-adv-x="727" 
d="M424 -14q-201 0 -297.5 94t-96.5 289q0 385 415 385q57 0 119.5 -6.5t107.5 -17.5v-178q-68 11 -121 15.5t-88 4.5q-62 0 -101.5 -8t-61.5 -30.5t-30 -62t-8 -102.5q0 -62 7 -100.5t25.5 -61t52 -30.5t86.5 -8h21.5t23.5 1v206h205v-350q-66 -17 -136 -28.5t-123 -11.5z
" />
    <glyph glyph-name="G.sc" horiz-adv-x="677" 
d="M395 -12q-187 0 -276 73t-89 227q0 152 94 226.5t288 74.5q26 0 54.5 -1.5t56.5 -4t54 -6t47 -7.5v-163q-63 5 -113 8.5t-82 3.5q-59 0 -94.5 -4.5t-54.5 -18.5t-24.5 -39.5t-5.5 -68.5q0 -42 5 -67.5t21 -39t46 -17.5t80 -4h37v133h195v-271q-30 -8 -62.5 -14t-64 -10.5
t-60 -7t-52.5 -2.5z" />
    <glyph glyph-name="Gacute" unicode="&#x1f4;" horiz-adv-x="727" 
d="M297 813l63 190h224l-129 -200zM424 -14q-201 0 -297.5 94t-96.5 289q0 385 415 385q57 0 119.5 -6.5t107.5 -17.5v-178q-68 11 -121 15.5t-88 4.5q-62 0 -101.5 -8t-61.5 -30.5t-30 -62t-8 -102.5q0 -62 7 -100.5t25.5 -61t52 -30.5t86.5 -8h21.5t23.5 1v206h205v-350
q-66 -17 -136 -28.5t-123 -11.5z" />
    <glyph glyph-name="Gacute.sc" horiz-adv-x="677" 
d="M395 -12q-186 0 -275.5 73t-89.5 227q0 153 94 227t288 74q26 0 55 -1.5t57.5 -4t54 -6t45.5 -7.5v-166q-63 7 -113 11t-82 4q-57 0 -92 -3.5t-54.5 -17t-26 -39.5t-6.5 -71q0 -44 5.5 -69t22 -38.5t46.5 -17t78 -3.5h37v133h195v-271q-29 -7 -61 -13.5t-63.5 -11t-61 -7
t-53.5 -2.5zM273 637l56 161h213l-119 -170z" />
    <glyph glyph-name="Gbreve" unicode="&#x11e;" horiz-adv-x="727" 
d="M397 806q-68 0 -113.5 14.5t-73.5 40.5t-40 61.5t-12 76.5h143q0 -47 19 -70t77 -23q29 0 47.5 6t29 17.5t14.5 29t4 40.5h144q0 -42 -12 -77.5t-40 -61t-74 -40t-113 -14.5zM424 -14q-201 0 -297.5 94t-96.5 289q0 385 415 385q57 0 119.5 -6.5t107.5 -17.5v-178
q-68 11 -121 15.5t-88 4.5q-62 0 -101.5 -8t-61.5 -30.5t-30 -62t-8 -102.5q0 -62 7 -100.5t25.5 -61t52 -30.5t86.5 -8h21.5t23.5 1v206h205v-350q-66 -17 -136 -28.5t-123 -11.5z" />
    <glyph glyph-name="Gbreve.sc" horiz-adv-x="677" 
d="M395 -12q-186 0 -275.5 73t-89.5 227q0 153 94 227t288 74q26 0 55 -1.5t57.5 -4t54 -6t45.5 -7.5v-166q-63 7 -113 11t-82 4q-57 0 -92 -3.5t-54.5 -17t-26 -39.5t-6.5 -71q0 -44 5.5 -69t22 -38.5t46.5 -17t78 -3.5h37v133h195v-271q-29 -7 -61 -13.5t-63.5 -11t-61 -7
t-53.5 -2.5zM368 628q-64 0 -107 13t-68.5 35t-36.5 51.5t-11 62.5h135q0 -35 17.5 -53t70.5 -18q54 0 70.5 18t16.5 53h136q0 -35 -11 -64.5t-37 -51t-68.5 -34t-106.5 -12.5z" />
    <glyph glyph-name="Gcircumflex" unicode="&#x11c;" horiz-adv-x="727" 
d="M424 -14q-201 0 -297.5 94t-96.5 289q0 385 415 385q57 0 119.5 -6.5t107.5 -17.5v-178q-68 11 -121 15.5t-88 4.5q-62 0 -101.5 -8t-61.5 -30.5t-30 -62t-8 -102.5q0 -62 7 -100.5t25.5 -61t52 -30.5t86.5 -8h21.5t23.5 1v206h205v-350q-66 -17 -136 -28.5t-123 -11.5z
M164 936l217 80l221 -80v-142l-219 79l-219 -79v142z" />
    <glyph glyph-name="Gcircumflex.sc" horiz-adv-x="677" 
d="M395 -12q-186 0 -275.5 73t-89.5 227q0 153 94 227t288 74q26 0 55 -1.5t57.5 -4t54 -6t45.5 -7.5v-166q-63 7 -113 11t-82 4q-57 0 -92 -3.5t-54.5 -17t-26 -39.5t-6.5 -71q0 -44 5.5 -69t22 -38.5t46.5 -17t78 -3.5h37v133h195v-271q-29 -7 -61 -13.5t-63.5 -11t-61 -7
t-53.5 -2.5zM151 747l202 64l206 -64v-131l-204 63l-204 -63v131z" />
    <glyph glyph-name="Gcommaaccent" unicode="&#x122;" horiz-adv-x="727" 
d="M279 -70h225l-101 -150h-164zM424 -14q-201 0 -297.5 94t-96.5 289q0 385 415 385q57 0 119.5 -6.5t107.5 -17.5v-178q-68 11 -121 15.5t-88 4.5q-62 0 -101.5 -8t-61.5 -30.5t-30 -62t-8 -102.5q0 -62 7 -100.5t25.5 -61t52 -30.5t86.5 -8h21.5t23.5 1v206h205v-350
q-66 -17 -136 -28.5t-123 -11.5z" />
    <glyph glyph-name="commaaccent" unicode="&#xf6c3;" horiz-adv-x="311" 
d="M72 -70h225l-101 -150h-164z" />
    <glyph glyph-name="Gcommaaccent.sc" horiz-adv-x="677" 
d="M395 -12q-186 0 -275.5 73t-89.5 227q0 153 94 227t288 74q26 0 55 -1.5t57.5 -4t54 -6t45.5 -7.5v-166q-63 7 -113 11t-82 4q-57 0 -92 -3.5t-54.5 -17t-26 -39.5t-6.5 -71q0 -44 5.5 -69t22 -38.5t46.5 -17t78 -3.5h37v133h195v-271q-29 -7 -61 -13.5t-63.5 -11t-61 -7
t-53.5 -2.5zM255 -55h213l-93 -117h-155z" />
    <glyph glyph-name="Gdotaccent" unicode="&#x120;" horiz-adv-x="727" 
d="M400 795q-63 0 -90 27t-27 87t27 86.5t90 26.5q64 0 90 -28t26 -85q0 -58 -26 -86t-90 -28zM424 -14q-201 0 -297.5 94t-96.5 289q0 385 415 385q57 0 119.5 -6.5t107.5 -17.5v-178q-68 11 -121 15.5t-88 4.5q-62 0 -101.5 -8t-61.5 -30.5t-30 -62t-8 -102.5
q0 -62 7 -100.5t25.5 -61t52 -30.5t86.5 -8h21.5t23.5 1v206h205v-350q-66 -17 -136 -28.5t-123 -11.5z" />
    <glyph glyph-name="Gdotaccent.sc" horiz-adv-x="677" 
d="M395 -12q-186 0 -275.5 73t-89.5 227q0 153 94 227t288 74q26 0 55 -1.5t57.5 -4t54 -6t45.5 -7.5v-166q-63 7 -113 11t-82 4q-57 0 -92 -3.5t-54.5 -17t-26 -39.5t-6.5 -71q0 -44 5.5 -69t22 -38.5t46.5 -17t78 -3.5h37v133h195v-271q-29 -7 -61 -13.5t-63.5 -11t-61 -7
t-53.5 -2.5zM371 615q-60 0 -85 24.5t-25 80.5q0 54 25 79t85 25q62 0 86 -25.5t24 -78.5q0 -54 -24 -79.5t-86 -25.5z" />
    <glyph glyph-name="H" unicode="H" horiz-adv-x="846" 
d="M61 740h225v-274h274v274h225v-740h-225v293h-274v-293h-225v740z" />
    <glyph glyph-name="Hbar" unicode="&#x126;" horiz-adv-x="864" 
d="M5 634h64v106h225v-106h274v106h225v-106h69v-99h-69v-535h-225v293h-274v-293h-225v535h-64v99zM568 466v69h-274v-69h274z" />
    <glyph glyph-name="Hbar.sc" horiz-adv-x="803" 
d="M11 505h56v72h213v-72h243v72h213v-72h61v-91h-61v-414h-213v201h-243v-201h-213v414h-56v91zM523 362v52h-243v-52h243z" />
    <glyph glyph-name="Hcircumflex" unicode="&#x124;" horiz-adv-x="846" 
d="M61 740h225v-274h274v274h225v-740h-225v293h-274v-293h-225v740zM205 936l217 80l221 -80v-142l-219 79l-219 -79v142z" />
    <glyph glyph-name="Hcircumflex.sc" horiz-adv-x="789" 
d="M59 577h213v-200h244v200h213v-577h-213v216h-244v-216h-213v577zM192 747l202 64l206 -64v-131l-204 63l-204 -63v131z" />
    <glyph glyph-name="Hdotbelow" unicode="&#x1e24;" horiz-adv-x="846" 
d="M61 740h225v-274h274v274h225v-740h-225v293h-274v-293h-225v740zM420 -220q-48 0 -68 19.5t-20 64.5t20 65t68 20q50 0 69.5 -20.5t19.5 -64.5q0 -43 -19.5 -63.5t-69.5 -20.5z" />
    <glyph glyph-name="Hdotbelow.sc" horiz-adv-x="789" 
d="M59 577h213v-200h244v200h213v-577h-213v216h-244v-216h-213v577zM391 -181q-45 0 -63.5 18t-18.5 57q0 40 18.5 58t63.5 18q47 0 64.5 -19t17.5 -57t-17.5 -56.5t-64.5 -18.5z" />
    <glyph glyph-name="I" unicode="I" horiz-adv-x="348" 
d="M61 740h225v-740h-225v740z" />
    <glyph glyph-name="IJ" unicode="&#x132;" horiz-adv-x="695" 
d="M61 740h225v-740h-225v740zM336 -157q22 50 36.5 93t23 84.5t12 85t3.5 95.5v539h226v-557q0 -53 -8 -100.5t-27 -94.5t-49 -97.5t-74 -109.5z" />
    <glyph glyph-name="J" unicode="J" horiz-adv-x="347" 
d="M-12 -157q22 50 36.5 93t23 84.5t12 85t3.5 95.5v539h226v-557q0 -53 -8 -100.5t-27 -94.5t-49 -97.5t-74 -109.5z" />
    <glyph glyph-name="Iacute" unicode="&#xcd;" horiz-adv-x="348" 
d="M61 740h225v-740h-225v740zM90 813l63 190h224l-129 -200z" />
    <glyph glyph-name="Iacute.sc" horiz-adv-x="332" 
d="M59 577h213v-577h-213v577zM87 637l56 161h213l-120 -170z" />
    <glyph glyph-name="Ibreve" unicode="&#x12c;" horiz-adv-x="348" 
d="M61 740h225v-740h-225v740zM174 806q-68 0 -113.5 14.5t-73.5 40.5t-40 61.5t-12 76.5h143q0 -47 19 -70t77 -23q29 0 47.5 6t29 17.5t14.5 29t4 40.5h144q0 -42 -12 -77.5t-40 -61t-74 -40t-113 -14.5z" />
    <glyph glyph-name="Ibreve.sc" horiz-adv-x="332" 
d="M59 577h213v-577h-213v577zM166 628q-64 0 -107 13t-69 35t-37 51.5t-11 62.5h136q0 -35 17 -53t71 -18t70.5 18t16.5 53h135q0 -35 -11 -64.5t-36.5 -51t-68.5 -34t-106 -12.5z" />
    <glyph glyph-name="Icircumflex" unicode="&#xce;" horiz-adv-x="348" 
d="M61 740h225v-740h-225v740zM-43 936l217 80l221 -80v-142l-219 79l-219 -79v142z" />
    <glyph glyph-name="Icircumflex.sc" horiz-adv-x="332" 
d="M59 577h213v-577h-213v577zM-36 747l203 64l206 -64v-131l-204 63l-205 -63v131z" />
    <glyph glyph-name="Idblgrave" unicode="&#x208;" horiz-adv-x="348" 
d="M61 740h225v-740h-225v740zM-1 803l-131 200h213l62 -190zM238 803l-131 200h212l63 -190z" />
    <glyph glyph-name="Idblgrave.sc" horiz-adv-x="332" 
d="M59 577h213v-577h-213v577zM1 629l-120 171h203l55 -164zM224 629l-120 171h203l56 -164z" />
    <glyph glyph-name="Idieresis" unicode="&#xcf;" horiz-adv-x="348" 
d="M61 740h225v-740h-225v740zM24 795q-63 0 -90 27t-27 87t27 86.5t90 26.5q64 0 90 -28t26 -85q0 -58 -26 -86t-90 -28zM331 795q-64 0 -90.5 27t-26.5 87t26.5 86.5t90.5 26.5t90 -28t26 -85q0 -58 -26 -86t-90 -28z" />
    <glyph glyph-name="Idieresis.sc" horiz-adv-x="332" 
d="M59 577h213v-577h-213v577zM28 614q-60 0 -85 24.5t-25 80.5q0 54 25 79t85 25q62 0 86 -25.5t24 -78.5q0 -54 -24 -79.5t-86 -25.5zM311 614q-60 0 -85 24.5t-25 80.5q0 54 25 79t85 25t84.5 -25.5t24.5 -78.5q0 -54 -24.5 -79.5t-84.5 -25.5z" />
    <glyph glyph-name="Idotaccent" unicode="&#x130;" horiz-adv-x="348" 
d="M61 740h225v-740h-225v740zM175 795q-63 0 -90 27t-27 87t27 86.5t90 26.5q64 0 90 -28t26 -85q0 -58 -26 -86t-90 -28z" />
    <glyph glyph-name="Idotaccent.sc" horiz-adv-x="332" 
d="M59 577h213v-577h-213v577zM167 615q-60 0 -85 24.5t-25 80.5q0 54 25 79t85 25q61 0 85.5 -25.5t24.5 -78.5q0 -54 -24.5 -79.5t-85.5 -25.5z" />
    <glyph glyph-name="Idotbelow" unicode="&#x1eca;" horiz-adv-x="348" 
d="M61 740h225v-740h-225v740zM174 -220q-48 0 -68 19.5t-20 64.5t20 65t68 20q50 0 69.5 -20.5t19.5 -64.5q0 -43 -19.5 -63.5t-69.5 -20.5z" />
    <glyph glyph-name="Idotbelow.sc" horiz-adv-x="332" 
d="M59 577h213v-577h-213v577zM166 -181q-45 0 -63.5 18t-18.5 57q0 40 18.5 58t63.5 18q47 0 65 -19t18 -57t-18 -56.5t-65 -18.5z" />
    <glyph glyph-name="Igrave" unicode="&#xcc;" horiz-adv-x="348" 
d="M61 740h225v-740h-225v740zM111 803l-131 200h226l62 -190z" />
    <glyph glyph-name="Igrave.sc" horiz-adv-x="332" 
d="M59 577h213v-577h-213v577zM108 628l-121 170h214l55 -163z" />
    <glyph glyph-name="Iinvertedbreve" unicode="&#x20a;" horiz-adv-x="348" 
d="M61 740h225v-740h-225v740zM273 816q0 23 -4 40t-14.5 28.5t-29 17.5t-47.5 6q-58 0 -77 -23t-19 -69h-143q0 40 12 75.5t40 61.5t73.5 41t113.5 15q67 0 113 -14.5t74 -40.5t40 -61t12 -77h-144z" />
    <glyph glyph-name="Iinvertedbreve.sc" horiz-adv-x="332" 
d="M59 577h213v-577h-213v577zM257 638q0 34 -16.5 51.5t-70.5 17.5t-71 -17.5t-17 -51.5h-136q0 33 11 62.5t37 51t69 34.5t107 13q63 0 106 -12.5t68.5 -34t36.5 -51t11 -63.5h-135z" />
    <glyph glyph-name="Imacron" unicode="&#x12a;" horiz-adv-x="348" 
d="M61 740h225v-740h-225v740zM-38 983h435v-142h-435v142z" />
    <glyph glyph-name="Imacron.sc" horiz-adv-x="332" 
d="M59 577h213v-577h-213v577zM-31 789h406v-133h-406v133z" />
    <glyph glyph-name="Iogonek" unicode="&#x12e;" horiz-adv-x="348" 
d="M61 740h225v-745q-35 -14 -58.5 -25t-37.5 -21t-20 -19t-6 -18q0 -19 29 -19q14 0 42 5t53 11v-117q-23 -6 -47 -9t-51 -3q-78 0 -121 25.5t-43 72.5q0 32 21.5 65.5t58.5 56.5h-45v740z" />
    <glyph glyph-name="Iogonek.sc" horiz-adv-x="332" 
d="M60 577h213v-577q-39 -13 -61 -22.5t-33.5 -16.5t-14.5 -11t-3 -7q0 -7 22 -7q7 0 19.5 1t25.5 2.5t25.5 3t20.5 3.5v-108q-23 -6 -45 -8t-44 -2q-74 0 -114 22.5t-40 59.5q0 29 19 53t46 37h-36v577z" />
    <glyph glyph-name="Itilde" unicode="&#x128;" horiz-adv-x="348" 
d="M61 740h225v-740h-225v740zM-75 854q37 73 84.5 109.5t92.5 36.5q27 0 53 -6t52.5 -12.5t53 -12.5t53.5 -6q23 0 45 7t53 30l23 -34q-38 -74 -85.5 -110t-90.5 -36q-27 0 -53.5 6t-53 12.5t-53 12.5t-53.5 6q-24 0 -46.5 -7t-51.5 -30z" />
    <glyph glyph-name="Itilde.sc" horiz-adv-x="332" 
d="M59 577h213v-577h-213v577zM-67 666q34 67 78.5 100t85.5 33q25 0 50 -4t49.5 -9.5t49.5 -9.5t50 -4q21 0 41 5t49 23l21 -30q-35 -67 -80 -99.5t-83 -32.5q-25 0 -50 4t-50 9.5t-50 9.5t-50 4q-22 0 -42.5 -5t-47.5 -23z" />
    <glyph glyph-name="Jcircumflex" unicode="&#x134;" horiz-adv-x="347" 
d="M-12 -157q22 50 36.5 93t23 84.5t12 85t3.5 95.5v539h226v-557q0 -53 -8 -100.5t-27 -94.5t-49 -97.5t-74 -109.5zM-41 936l217 80l221 -80v-142l-219 79l-219 -79v142z" />
    <glyph glyph-name="Jcircumflex.sc" horiz-adv-x="331" 
d="M-6 -122q19 40 32 74t20.5 67t11 67t3.5 75v416h214v-433q0 -42 -7.5 -80.5t-25 -76.5t-45.5 -78.5t-69 -87.5zM-34 747l202 64l206 -64v-131l-204 63l-204 -63v131z" />
    <glyph glyph-name="K" unicode="K" horiz-adv-x="768" 
d="M61 740h225v-282h83l144 282h249l-185 -322l-58 -27v-9l60 -28l201 -354h-249l-149 286h-96v-286h-225v740z" />
    <glyph glyph-name="Kcommaaccent" unicode="&#x136;" horiz-adv-x="768" 
d="M248 -70h225l-101 -150h-164zM61 740h225v-282h83l144 282h249l-185 -322l-58 -27v-9l60 -28l201 -354h-249l-149 286h-96v-286h-225v740z" />
    <glyph glyph-name="Kcommaaccent.sc" horiz-adv-x="716" 
d="M59 577h213v-208h72l129 208h236l-169 -248l-57 -21v-8l60 -23l182 -277h-237l-130 208h-86v-208h-213v577zM263 -55h214l-94 -117h-155z" />
    <glyph glyph-name="L" unicode="L" horiz-adv-x="603" 
d="M61 740h225v-568h304v-172h-529v740z" />
    <glyph glyph-name="Lacute" unicode="&#x139;" horiz-adv-x="602" 
d="M97 813l63 190h224l-129 -200zM61 740h225v-568h304v-172h-529v740z" />
    <glyph glyph-name="Lacute.sc" horiz-adv-x="567" 
d="M59 577h213v-416h278v-161h-491v577zM94 637l56 161h212l-119 -170z" />
    <glyph glyph-name="Lcaron" unicode="&#x13d;" horiz-adv-x="616" 
d="M420 808h170l-51 -228h-119v228zM61 740h225v-568h304v-172h-529v740z" />
    <glyph glyph-name="caron.alt" horiz-adv-x="250" 
d="M49 808h170l-51 -228h-119v228z" />
    <glyph glyph-name="Lcaron.sc" horiz-adv-x="575" 
d="M60 577h213v-416h278v-161h-491v577zM385 643h162l-49 -178h-113v178z" />
    <glyph glyph-name="Lcommaaccent" unicode="&#x13b;" horiz-adv-x="602" 
d="M189 -70h225l-101 -150h-164zM61 740h225v-568h304v-172h-529v740z" />
    <glyph glyph-name="Lcommaaccent.sc" horiz-adv-x="567" 
d="M59 577h213v-416h278v-161h-491v577zM172 -55h214l-94 -117h-154z" />
    <glyph glyph-name="Ldot" unicode="&#x13f;" horiz-adv-x="618" 
d="M61 740h225v-568h304v-172h-529v740zM499 283q-63 0 -90 26.5t-27 86.5t27 87t90 27q64 0 90 -28t26 -86t-26 -85.5t-90 -27.5z" />
    <glyph glyph-name="periodcentered" unicode="&#xb7;" horiz-adv-x="303" 
d="M152 257q-63 0 -90 26.5t-27 86.5t27 87t90 27q64 0 90 -28t26 -86t-26 -85.5t-90 -27.5z" />
    <glyph glyph-name="Ldot.sc" horiz-adv-x="582" 
d="M59 577h213v-416h278v-161h-491v577zM466 211q-60 0 -85 24.5t-25 80.5q0 55 25 79.5t85 24.5q61 0 85 -25.5t24 -78.5q0 -54 -24 -79.5t-85 -25.5z" />
    <glyph glyph-name="Lslash" unicode="&#x141;" horiz-adv-x="620" 
d="M10 383l68 30v327h225v-225l124 56v-157l-124 -56v-186h304v-172h-529v256l-68 -30v157z" />
    <glyph glyph-name="Lslash.sc" horiz-adv-x="581" 
d="M13 322l61 23v232h213v-155l111 40v-146l-111 -40v-115h278v-161h-491v199l-61 -23v146z" />
    <glyph glyph-name="M" unicode="M" horiz-adv-x="1038" 
d="M61 740h307l110 -301l38 -149h6l39 149l110 301h306v-740h-198v497h-9l-61 -200l-101 -267h-178l-101 267l-61 200h-9v-497h-198v740z" />
    <glyph glyph-name="M.sc" horiz-adv-x="962" 
d="M59 577h279l97 -204l41 -107h9l41 107l98 204h279v-577h-189v358h-9l-65 -165l-78 -170h-162l-77 170l-66 165h-9v-358h-189v577z" />
    <glyph glyph-name="N" unicode="N" horiz-adv-x="834" 
d="M61 740h177l269 -326l60 -83h10v409h196v-740h-177l-259 316l-70 94h-10v-410h-196v740z" />
    <glyph glyph-name="N.sc" horiz-adv-x="752" 
d="M59 577h162l217 -218l58 -64h10v282h187v-577h-162l-207 206l-68 77l-9 1v-284h-188v577z" />
    <glyph glyph-name="A" unicode="A" horiz-adv-x="780" 
d="M-5 11l228 729h334l228 -729v-11h-217l-45 151h-267l-44 -151h-217v11zM474 322l-31 110l-44 155h-18l-45 -157l-30 -108h168z" />
    <glyph glyph-name="Nacute" unicode="&#x143;" horiz-adv-x="834" 
d="M306 813l63 190h224l-129 -200zM61 740h177l269 -326l60 -83h10v409h196v-740h-177l-259 316l-70 94h-10v-410h-196v740z" />
    <glyph glyph-name="Nacute.sc" horiz-adv-x="752" 
d="M59 577h162l217 -218l58 -64h10v282h187v-577h-162l-207 206l-68 77l-9 1v-284h-188v577zM274 637l55 161h213l-120 -170z" />
    <glyph glyph-name="Ncaron" unicode="&#x147;" horiz-adv-x="834" 
d="M200 1016l219 -80l219 80v-143l-221 -79l-217 79v143zM61 740h177l269 -326l60 -83h10v409h196v-740h-177l-259 316l-70 94h-10v-410h-196v740z" />
    <glyph glyph-name="Ncaron.sc" horiz-adv-x="752" 
d="M59 577h162l217 -218l58 -64h10v282h187v-577h-162l-207 206l-68 77l-9 1v-284h-188v577zM174 680v132l204 -65l205 65v-132l-207 -64z" />
    <glyph glyph-name="Ncommaaccent" unicode="&#x145;" horiz-adv-x="834" 
d="M311 -70h225l-101 -150h-164zM61 740h177l269 -326l60 -83h10v409h196v-740h-177l-259 316l-70 94h-10v-410h-196v740z" />
    <glyph glyph-name="Ncommaaccent.sc" horiz-adv-x="752" 
d="M59 577h162l217 -218l58 -64h10v282h187v-577h-162l-207 206l-68 77l-9 1v-284h-188v577zM275 -55h213l-94 -117h-154z" />
    <glyph glyph-name="Ndotaccent" unicode="&#x1e44;" horiz-adv-x="834" 
d="M417 795q-63 0 -90 27t-27 87t27 86.5t90 26.5q64 0 90 -28t26 -85q0 -58 -26 -86t-90 -28zM61 740h177l269 -326l60 -83h10v409h196v-740h-177l-259 316l-70 94h-10v-410h-196v740z" />
    <glyph glyph-name="Ndotaccent.sc" horiz-adv-x="752" 
d="M59 577h162l217 -218l58 -64h10v282h187v-577h-162l-207 206l-68 77l-9 1v-284h-188v577zM378 615q-60 0 -85 24.5t-25 80.5q0 54 25 79t85 25q61 0 85.5 -25.5t24.5 -78.5q0 -54 -24.5 -79.5t-85.5 -25.5z" />
    <glyph glyph-name="Ntilde" unicode="&#xd1;" horiz-adv-x="834" 
d="M166 854q37 73 84.5 109.5t92.5 36.5q27 0 53 -6t52.5 -12.5t53 -12.5t53.5 -6q23 0 45 7t53 30l23 -34q-38 -74 -85.5 -110t-90.5 -36q-27 0 -53.5 6t-53 12.5t-53 12.5t-53.5 6q-24 0 -46.5 -7t-51.5 -30zM61 740h177l269 -326l60 -83h10v409h196v-740h-177l-259 316
l-70 94h-10v-410h-196v740z" />
    <glyph glyph-name="Ntilde.sc" horiz-adv-x="752" 
d="M143 666q34 67 79 100t86 33q25 0 49.5 -4t49 -9.5t49.5 -9.5t50 -4q21 0 41.5 5t49.5 23l21 -30q-35 -67 -80 -99.5t-84 -32.5q-25 0 -50 4t-49.5 9.5t-49.5 9.5t-50 4q-23 0 -43 -5t-47 -23zM59 577h162l217 -218l58 -64h10v282h187v-577h-162l-207 206l-68 77l-9 1
v-284h-188v577z" />
    <glyph glyph-name="O" unicode="O" horiz-adv-x="822" 
d="M411 -10q-188 0 -284 96t-96 283q0 189 96 285t284 96q187 0 283.5 -96.5t96.5 -284.5q0 -187 -96.5 -283t-283.5 -96zM411 168q45 0 74 8.5t46 30.5t23.5 61t6.5 101q0 60 -7.5 99.5t-24.5 62.5t-46 32t-72 9t-72 -9t-46 -32t-24.5 -62t-7.5 -100t7 -100t24 -61.5
t46 -31t73 -8.5z" />
    <glyph glyph-name="O.sc" horiz-adv-x="760" 
d="M380 -8q-172 0 -261 75t-89 221q0 147 88.5 222t261.5 75t262 -75.5t89 -221.5t-89.5 -221t-261.5 -75zM380 159q43 0 69 4.5t40.5 18.5t19 39t4.5 67q0 40 -5.5 65.5t-20 40t-40.5 19.5t-67 5t-67 -5t-40.5 -19.5t-19.5 -40t-5 -65.5q0 -41 4.5 -66.5t19 -39.5
t40.5 -18.5t68 -4.5z" />
    <glyph glyph-name="OE" unicode="&#x152;" horiz-adv-x="1166" 
d="M415 -10q-187 0 -286 96.5t-99 282.5q0 188 98.5 284.5t286.5 96.5q40 0 71.5 -2.5t61.5 -7.5h573v-172h-348v-111h316v-170h-316v-115h358v-172h-583q-32 -5 -64 -7.5t-69 -2.5zM422 169q38 0 69 1t57 5v390q-26 3 -56.5 4.5t-70.5 1.5q-47 0 -78.5 -9t-50 -31.5
t-26 -62t-7.5 -99.5q0 -61 7.5 -100t26 -61t50 -30.5t79.5 -8.5z" />
    <glyph glyph-name="OE.sc" horiz-adv-x="1086" 
d="M383 -8q-172 0 -262.5 75t-90.5 221t90.5 221.5t262.5 75.5q38 0 67 -2.5t57 -5.5h534v-155h-321v-65h290v-136h-290v-64h330v-157h-543q-30 -5 -59.5 -6.5t-64.5 -1.5zM389 159q37 0 66 1t52 3v251q-23 2 -52 3t-67 1q-42 0 -69 -4.5t-43 -18t-22.5 -39t-6.5 -68.5
q0 -44 6 -69.5t22 -38.5t43.5 -17t70.5 -4z" />
    <glyph glyph-name="Oacute" unicode="&#xd3;" horiz-adv-x="822" 
d="M328 813l63 190h224l-129 -200zM411 -10q-188 0 -284 96t-96 283q0 189 96 285t284 96q187 0 283.5 -96.5t96.5 -284.5q0 -187 -96.5 -283t-283.5 -96zM411 168q45 0 74 8.5t46 30.5t23.5 61t6.5 101q0 60 -7.5 99.5t-24.5 62.5t-46 32t-72 9t-72 -9t-46 -32t-24.5 -62
t-7.5 -100t7 -100t24 -61.5t46 -31t73 -8.5z" />
    <glyph glyph-name="Oacute.sc" horiz-adv-x="761" 
d="M381 -8q-172 0 -261.5 75t-89.5 221q0 147 88.5 222t262.5 75q172 0 261 -75.5t89 -221.5t-89 -221t-261 -75zM381 159q43 0 69 4.5t40.5 18.5t19 39t4.5 67q0 40 -5.5 65.5t-20 40t-40.5 19.5t-67 5t-67 -5t-40.5 -19.5t-20 -40t-5.5 -65.5q0 -41 5 -66.5t19 -39.5
t40.5 -18.5t68.5 -4.5zM303 637l56 161h212l-119 -170z" />
    <glyph glyph-name="Obreve" unicode="&#x14e;" horiz-adv-x="822" 
d="M409 806q-68 0 -113.5 14.5t-73.5 40.5t-40 61.5t-12 76.5h143q0 -47 19 -70t77 -23q29 0 47.5 6t29 17.5t14.5 29t4 40.5h144q0 -42 -12 -77.5t-40 -61t-74 -40t-113 -14.5zM411 -10q-188 0 -284 96t-96 283q0 189 96 285t284 96q187 0 283.5 -96.5t96.5 -284.5
q0 -187 -96.5 -283t-283.5 -96zM411 168q45 0 74 8.5t46 30.5t23.5 61t6.5 101q0 60 -7.5 99.5t-24.5 62.5t-46 32t-72 9t-72 -9t-46 -32t-24.5 -62t-7.5 -100t7 -100t24 -61.5t46 -31t73 -8.5z" />
    <glyph glyph-name="Obreve.sc" horiz-adv-x="761" 
d="M381 -8q-172 0 -261.5 75t-89.5 221q0 147 88.5 222t262.5 75q172 0 261 -75.5t89 -221.5t-89 -221t-261 -75zM381 159q43 0 69 4.5t40.5 18.5t19 39t4.5 67q0 40 -5.5 65.5t-20 40t-40.5 19.5t-67 5t-67 -5t-40.5 -19.5t-20 -40t-5.5 -65.5q0 -41 5 -66.5t19 -39.5
t40.5 -18.5t68.5 -4.5zM379 628q-111 0 -167 41.5t-56 120.5h135q0 -39 20 -55t68 -16t68 16t20 55h134q0 -80 -55 -121t-167 -41z" />
    <glyph glyph-name="Ocircumflex" unicode="&#xd4;" horiz-adv-x="822" 
d="M411 -10q-188 0 -284 96t-96 283q0 189 96 285t284 96q187 0 283.5 -96.5t96.5 -284.5q0 -187 -96.5 -283t-283.5 -96zM411 168q45 0 74 8.5t46 30.5t23.5 61t6.5 101q0 60 -7.5 99.5t-24.5 62.5t-46 32t-72 9t-72 -9t-46 -32t-24.5 -62t-7.5 -100t7 -100t24 -61.5
t46 -31t73 -8.5zM189 936l217 80l221 -80v-142l-219 79l-219 -79v142z" />
    <glyph glyph-name="Ocircumflex.sc" horiz-adv-x="761" 
d="M381 -8q-172 0 -261.5 75t-89.5 221q0 147 88.5 222t262.5 75q172 0 261 -75.5t89 -221.5t-89 -221t-261 -75zM381 159q43 0 69 4.5t40.5 18.5t19 39t4.5 67q0 40 -5.5 65.5t-20 40t-40.5 19.5t-67 5t-67 -5t-40.5 -19.5t-20 -40t-5.5 -65.5q0 -41 5 -66.5t19 -39.5
t40.5 -18.5t68.5 -4.5zM175 747l202 64l206 -64v-131l-204 63l-204 -63v131z" />
    <glyph glyph-name="Odblgrave" unicode="&#x20c;" horiz-adv-x="822" 
d="M411 -10q-188 0 -284 96t-96 283q0 189 96 285t284 96q187 0 283.5 -96.5t96.5 -284.5q0 -187 -96.5 -283t-283.5 -96zM411 168q45 0 74 8.5t46 30.5t23.5 61t6.5 101q0 60 -7.5 99.5t-24.5 62.5t-46 32t-72 9t-72 -9t-46 -32t-24.5 -62t-7.5 -100t7 -100t24 -61.5
t46 -31t73 -8.5zM216 803l-131 200h213l62 -190zM455 803l-131 200h212l63 -190z" />
    <glyph glyph-name="Odblgrave.sc" horiz-adv-x="761" 
d="M381 -8q-172 0 -261.5 75t-89.5 221q0 147 88.5 222t262.5 75q172 0 261 -75.5t89 -221.5t-89 -221t-261 -75zM381 159q43 0 69 4.5t40.5 18.5t19 39t4.5 67q0 40 -5.5 65.5t-20 40t-40.5 19.5t-67 5t-67 -5t-40.5 -19.5t-20 -40t-5.5 -65.5q0 -41 5 -66.5t19 -39.5
t40.5 -18.5t68.5 -4.5zM196 629l-120 171h203l55 -164zM419 629l-120 171h203l56 -164z" />
    <glyph glyph-name="Odieresis" unicode="&#xd6;" horiz-adv-x="822" 
d="M250 795q-63 0 -90 27t-27 87t27 86.5t90 26.5q64 0 90 -28t26 -85q0 -58 -26 -86t-90 -28zM557 795q-64 0 -90.5 27t-26.5 87t26.5 86.5t90.5 26.5t90 -28t26 -85q0 -58 -26 -86t-90 -28zM411 -10q-188 0 -284 96t-96 283q0 189 96 285t284 96q187 0 283.5 -96.5
t96.5 -284.5q0 -187 -96.5 -283t-283.5 -96zM411 168q45 0 74 8.5t46 30.5t23.5 61t6.5 101q0 60 -7.5 99.5t-24.5 62.5t-46 32t-72 9t-72 -9t-46 -32t-24.5 -62t-7.5 -100t7 -100t24 -61.5t46 -31t73 -8.5z" />
    <glyph glyph-name="Odieresis.sc" horiz-adv-x="761" 
d="M381 -8q-172 0 -261.5 75t-89.5 221q0 147 88.5 222t262.5 75q172 0 261 -75.5t89 -221.5t-89 -221t-261 -75zM381 159q43 0 69 4.5t40.5 18.5t19 39t4.5 67q0 40 -5.5 65.5t-20 40t-40.5 19.5t-67 5t-67 -5t-40.5 -19.5t-20 -40t-5.5 -65.5q0 -41 5 -66.5t19 -39.5
t40.5 -18.5t68.5 -4.5zM233 614q-60 0 -85 24t-25 81q0 55 25.5 79.5t84.5 24.5q57 0 83 -24.5t26 -79.5q0 -56 -25.5 -80.5t-83.5 -24.5zM515 614q-60 0 -84.5 24t-24.5 81q0 56 25 80t84 24q58 0 83.5 -24.5t25.5 -79.5q0 -56 -25.5 -80.5t-83.5 -24.5z" />
    <glyph glyph-name="Odotbelow" unicode="&#x1ecc;" horiz-adv-x="822" 
d="M416 -220q-48 0 -68 19.5t-20 64.5t20 65t68 20q50 0 69.5 -20.5t19.5 -64.5q0 -43 -19.5 -63.5t-69.5 -20.5zM411 -10q-188 0 -284 96t-96 283q0 189 96 285t284 96q187 0 283.5 -96.5t96.5 -284.5q0 -187 -96.5 -283t-283.5 -96zM411 168q45 0 74 8.5t46 30.5t23.5 61
t6.5 101q0 60 -7.5 99.5t-24.5 62.5t-46 32t-72 9t-72 -9t-46 -32t-24.5 -62t-7.5 -100t7 -100t24 -61.5t46 -31t73 -8.5z" />
    <glyph glyph-name="Odotbelow.sc" horiz-adv-x="760" 
d="M380 -8q-173 0 -261.5 75t-88.5 221q0 147 88.5 222t261.5 75t262 -75.5t89 -221.5t-89 -221t-262 -75zM380 159q40 0 66 3.5t41 17t20.5 39t5.5 69.5q0 42 -6 68t-21.5 39.5t-41 18t-64.5 4.5t-64.5 -4.5t-40.5 -18t-21 -39t-6 -68.5q0 -44 5.5 -69.5t20.5 -38.5
t40.5 -17t65.5 -4zM385 -181q-45 0 -63.5 18t-18.5 57q0 40 18.5 58t63.5 18q47 0 64.5 -19t17.5 -57t-17.5 -56.5t-64.5 -18.5z" />
    <glyph glyph-name="Ograve" unicode="&#xd2;" horiz-adv-x="822" 
d="M318 803l-131 200h226l62 -190zM411 -10q-188 0 -284 96t-96 283q0 189 96 285t284 96q187 0 283.5 -96.5t96.5 -284.5q0 -187 -96.5 -283t-283.5 -96zM411 168q45 0 74 8.5t46 30.5t23.5 61t6.5 101q0 60 -7.5 99.5t-24.5 62.5t-46 32t-72 9t-72 -9t-46 -32t-24.5 -62
t-7.5 -100t7 -100t24 -61.5t46 -31t73 -8.5z" />
    <glyph glyph-name="Ograve.sc" horiz-adv-x="760" 
d="M380 -8q-173 0 -261.5 75t-88.5 221q0 147 88.5 222t261.5 75t262 -75.5t89 -221.5t-89 -221t-262 -75zM380 159q40 0 66 3.5t41 17t20.5 39t5.5 69.5q0 42 -6 68t-21.5 39.5t-41 18t-64.5 4.5t-64.5 -4.5t-40.5 -18t-21 -39t-6 -68.5q0 -44 5.5 -69.5t20.5 -38.5
t40.5 -17t65.5 -4zM292 628l-121 170h214l55 -163z" />
    <glyph glyph-name="Ohungarumlaut" unicode="&#x150;" horiz-adv-x="822" 
d="M411 -10q-188 0 -284 96t-96 283q0 189 96 285t284 96q187 0 283.5 -96.5t96.5 -284.5q0 -187 -96.5 -283t-283.5 -96zM411 168q45 0 74 8.5t46 30.5t23.5 61t6.5 101q0 60 -7.5 99.5t-24.5 62.5t-46 32t-72 9t-72 -9t-46 -32t-24.5 -62t-7.5 -100t7 -100t24 -61.5
t46 -31t73 -8.5zM196 813l62 190h212l-130 -200zM435 813l61 190h213l-130 -200z" />
    <glyph glyph-name="hungarumlaut.cap" horiz-adv-x="569" 
d="M50 813l62 190h212l-130 -200zM289 813l61 190h213l-130 -200z" />
    <glyph glyph-name="Ohungarumlaut.sc" horiz-adv-x="760" 
d="M380 -8q-173 0 -261.5 75t-88.5 221q0 147 88.5 222t261.5 75t262 -75.5t89 -221.5t-89 -221t-262 -75zM380 159q40 0 66 3.5t41 17t20.5 39t5.5 69.5q0 42 -6 68t-21.5 39.5t-41 18t-64.5 4.5t-64.5 -4.5t-40.5 -18t-21 -39t-6 -68.5q0 -44 5.5 -69.5t20.5 -38.5
t40.5 -17t65.5 -4zM177 636l55 164h203l-120 -171zM400 636l54 164h204l-119 -171z" />
    <glyph glyph-name="Oinvertedbreve" unicode="&#x20e;" horiz-adv-x="822" 
d="M411 -10q-188 0 -284 96t-96 283q0 189 96 285t284 96q187 0 283.5 -96.5t96.5 -284.5q0 -187 -96.5 -283t-283.5 -96zM411 168q45 0 74 8.5t46 30.5t23.5 61t6.5 101q0 60 -7.5 99.5t-24.5 62.5t-46 32t-72 9t-72 -9t-46 -32t-24.5 -62t-7.5 -100t7 -100t24 -61.5
t46 -31t73 -8.5zM505 816q0 23 -4 40t-14.5 28.5t-29 17.5t-47.5 6q-58 0 -77 -23t-19 -69h-143q0 40 12 75.5t40 61.5t73.5 41t113.5 15q67 0 113 -14.5t74 -40.5t40 -61t12 -77h-144z" />
    <glyph glyph-name="Oinvertedbreve.sc" horiz-adv-x="760" 
d="M380 -8q-173 0 -261.5 75t-88.5 221q0 147 88.5 222t261.5 75t262 -75.5t89 -221.5t-89 -221t-262 -75zM380 159q40 0 66 3.5t41 17t20.5 39t5.5 69.5q0 42 -6 68t-21.5 39.5t-41 18t-64.5 4.5t-64.5 -4.5t-40.5 -18t-21 -39t-6 -68.5q0 -44 5.5 -69.5t20.5 -38.5
t40.5 -17t65.5 -4zM467 638q0 34 -17 51.5t-71 17.5q-53 0 -70.5 -17.5t-17.5 -51.5h-135q0 33 11 62.5t37 51t68.5 34.5t106.5 13q63 0 106 -12.5t69 -34t37 -51t11 -63.5h-135z" />
    <glyph glyph-name="Omacron" unicode="&#x14c;" horiz-adv-x="822" 
d="M192 983h435v-142h-435v142zM411 -10q-188 0 -284 96t-96 283q0 189 96 285t284 96q187 0 283.5 -96.5t96.5 -284.5q0 -187 -96.5 -283t-283.5 -96zM411 168q45 0 74 8.5t46 30.5t23.5 61t6.5 101q0 60 -7.5 99.5t-24.5 62.5t-46 32t-72 9t-72 -9t-46 -32t-24.5 -62
t-7.5 -100t7 -100t24 -61.5t46 -31t73 -8.5z" />
    <glyph glyph-name="Omacron.sc" horiz-adv-x="760" 
d="M380 -8q-173 0 -261.5 75t-88.5 221q0 147 88.5 222t261.5 75t262 -75.5t89 -221.5t-89 -221t-262 -75zM380 159q40 0 66 3.5t41 17t20.5 39t5.5 69.5q0 42 -6 68t-21.5 39.5t-41 18t-64.5 4.5t-64.5 -4.5t-40.5 -18t-21 -39t-6 -68.5q0 -44 5.5 -69.5t20.5 -38.5
t40.5 -17t65.5 -4zM177 789h406v-133h-406v133z" />
    <glyph glyph-name="Omega" unicode="&#x2126;" horiz-adv-x="828" 
d="M40 162l186 -15q-38 21 -70 51t-55 67t-36.5 81t-13.5 92q0 70 26 128t73.5 98.5t114.5 63t149 22.5t149 -22.5t114.5 -63t73.5 -98.5t26 -128q0 -49 -13.5 -92.5t-37 -81t-56 -67.5t-69.5 -51l187 16v-162h-333v132q26 22 47.5 47.5t36.5 59t23 77t8 100.5
q0 75 -41 117.5t-115 42.5q-71 0 -110 -42.5t-39 -117.5q0 -57 12.5 -104.5t30 -83.5t35.5 -60t30 -36v-132h-333v162z" />
    <glyph glyph-name="Oogonek" unicode="&#x1ea;" horiz-adv-x="821" 
d="M424 -215q-78 0 -121 25.5t-43 72.5q0 29 17.5 59.5t48.5 53.5q-146 20 -220.5 114t-74.5 259q0 189 96 285t284 96q187 0 283.5 -96.5t96.5 -284.5q0 -158 -68.5 -250.5t-202.5 -118.5q-35 -14 -58.5 -25t-37.5 -21t-20 -19t-6 -18q0 -19 29 -19q14 0 42 5t53 11v-117
q-23 -6 -47 -9t-51 -3zM411 168q45 0 74 8.5t46 30.5t23.5 61t6.5 101q0 60 -7.5 99.5t-24.5 62.5t-46 32t-72 9t-72 -9t-46 -32t-24.5 -62t-7.5 -100t7 -100t24 -61.5t46 -31t73 -8.5z" />
    <glyph glyph-name="Oogonek.sc" horiz-adv-x="761" 
d="M396 -169q-75 0 -115 22t-40 59q0 22 16.5 46.5t40.5 38.5q-132 17 -200 90.5t-68 200.5q0 147 88.5 222t262.5 75q172 0 261 -75.5t89 -221.5q0 -125 -64.5 -197.5t-191.5 -91.5q-36 -13 -56.5 -22t-31 -15t-13 -10t-2.5 -6q0 -9 21 -9q8 0 20 1t25 2.5t25.5 3.5t20.5 4
v-108q-23 -5 -45 -7t-43 -2zM381 159q40 0 66 3.5t41 17t20.5 39t5.5 69.5q0 42 -6.5 68t-21.5 39.5t-40.5 18t-64.5 4.5t-64.5 -4.5t-40.5 -18t-21.5 -39t-6.5 -68.5q0 -44 6 -69.5t21 -38.5t40.5 -17t65.5 -4z" />
    <glyph glyph-name="Oslash" unicode="&#xd8;" horiz-adv-x="824" 
d="M105 113q-73 94 -73 256q0 189 96 285t284 96q129 0 218 -49l35 39h156l-103 -114q74 -95 74 -257q0 -187 -96.5 -283t-283.5 -96q-132 0 -219 48l-34 -38h-155zM412 168q45 0 74 8.5t46 30.5t23.5 61t6.5 101q0 22 -1 41t-3 36l-236 -263q17 -8 39 -11.5t51 -3.5z
M262 369q0 -22 0.5 -41t2.5 -35l235 263q-32 16 -88 16q-43 0 -72 -9t-46 -32t-24.5 -62t-7.5 -100z" />
    <glyph glyph-name="Oslash.sc" horiz-adv-x="763" 
d="M98 89q-67 75 -67 199q0 147 89 222t262 75q119 0 200 -38l31 30h146l-94 -89q68 -74 68 -200q0 -146 -89 -221t-262 -75q-118 0 -200 37l-30 -29h-147zM382 159q40 0 66 3.5t41 17t20.5 39t5.5 69.5q0 34 -4 53l-188 -179q12 -2 26.5 -2.5t32.5 -0.5zM249 288
q0 -16 0.5 -29t1.5 -24l190 179q-23 4 -59 4q-39 0 -64.5 -4.5t-41 -18t-21.5 -39t-6 -68.5z" />
    <glyph glyph-name="Oslashacute" unicode="&#x1fe;" horiz-adv-x="824" 
d="M105 113q-73 94 -73 256q0 189 96 285t284 96q129 0 218 -49l35 39h156l-103 -114q74 -95 74 -257q0 -187 -96.5 -283t-283.5 -96q-132 0 -219 48l-34 -38h-155zM412 168q45 0 74 8.5t46 30.5t23.5 61t6.5 101q0 22 -1 41t-3 36l-236 -263q17 -8 39 -11.5t51 -3.5z
M262 369q0 -22 0.5 -41t2.5 -35l235 263q-32 16 -88 16q-43 0 -72 -9t-46 -32t-24.5 -62t-7.5 -100zM323 813l63 190h224l-129 -200z" />
    <glyph glyph-name="Oslashacute.sc" horiz-adv-x="763" 
d="M98 89q-67 75 -67 199q0 147 88.5 222t261.5 75q120 0 201 -38l31 30h146l-94 -89q67 -75 67 -200q0 -146 -89 -221t-262 -75q-117 0 -199 37l-31 -29h-146zM381 159q40 0 66 3.5t41 17t20.5 39t5.5 69.5q0 16 -0.5 29t-2.5 24l-188 -179q12 -2 26.5 -2.5t31.5 -0.5z
M298 637l55 161h213l-119 -170zM249 288v-29t2 -24l189 179q-12 2 -26.5 3t-32.5 1q-39 0 -64.5 -4.5t-40.5 -18t-21 -39t-6 -68.5z" />
    <glyph glyph-name="Otilde" unicode="&#xd5;" horiz-adv-x="822" 
d="M161 854q37 73 84.5 109.5t92.5 36.5q27 0 53 -6t52.5 -12.5t53 -12.5t53.5 -6q23 0 45 7t53 30l23 -34q-38 -74 -85.5 -110t-90.5 -36q-27 0 -53.5 6t-53 12.5t-53 12.5t-53.5 6q-24 0 -46.5 -7t-51.5 -30zM411 -10q-188 0 -284 96t-96 283q0 189 96 285t284 96
q187 0 283.5 -96.5t96.5 -284.5q0 -187 -96.5 -283t-283.5 -96zM411 168q45 0 74 8.5t46 30.5t23.5 61t6.5 101q0 60 -7.5 99.5t-24.5 62.5t-46 32t-72 9t-72 -9t-46 -32t-24.5 -62t-7.5 -100t7 -100t24 -61.5t46 -31t73 -8.5z" />
    <glyph glyph-name="Otilde.sc" horiz-adv-x="760" 
d="M380 -8q-173 0 -261.5 75t-88.5 221q0 147 88.5 222t261.5 75t262 -75.5t89 -221.5t-89 -221t-262 -75zM380 159q40 0 66 3.5t41 17t20.5 39t5.5 69.5q0 42 -6 68t-21.5 39.5t-41 18t-64.5 4.5t-64.5 -4.5t-40.5 -18t-21 -39t-6 -68.5q0 -44 5.5 -69.5t20.5 -38.5
t40.5 -17t65.5 -4zM147 666q34 67 78 100t86 33q25 0 49.5 -4t49 -9.5t49.5 -9.5t50 -4q21 0 41.5 5t49.5 23l21 -30q-36 -67 -80.5 -99.5t-83.5 -32.5q-25 0 -50 4t-49.5 9.5t-49.5 9.5t-50 4q-23 0 -43 -5t-47 -23z" />
    <glyph glyph-name="P" unicode="P" horiz-adv-x="733" 
d="M61 735q130 15 245 15q109 0 186.5 -15.5t127.5 -49t73.5 -85.5t23.5 -125q0 -277 -404 -277h-27v-198h-225v735zM350 371q40 0 67 5t42.5 17t22 32t6.5 50t-5.5 49.5t-20 31t-40 16.5t-65.5 5q-16 0 -37.5 -1t-33.5 -3v-197q15 -2 31 -3.5t33 -1.5z" />
    <glyph glyph-name="P.sc" horiz-adv-x="684" 
d="M60 573q121 12 228 12q100 0 172 -12.5t118 -39.5t67.5 -68.5t21.5 -99.5q0 -214 -375 -214h-19v-151h-213v573zM339 300q33 0 55 3t35 10.5t18 20t5 30.5q0 19 -4.5 31t-17 19.5t-35 10.5t-57.5 3q-11 0 -28 -0.5t-37 -1.5v-123q17 -2 32.5 -2.5t33.5 -0.5z" />
    <glyph glyph-name="Q" unicode="Q" horiz-adv-x="822" 
d="M725 -182q-135 37 -239 72.5t-181 73t-130 79t-85 90.5t-46 107t-14 129q0 91 25.5 162t74 119.5t119.5 74t162 25.5q183 0 282.5 -98.5t99.5 -282.5q0 -74 -19 -132.5t-55.5 -99t-88.5 -62.5t-118 -22q-5 0 -9.5 0.5t-9.5 0.5v-14q57 -11 95.5 -18t69 -11.5t57.5 -7.5
t61 -7zM411 167q44 0 73.5 9.5t47 33t25 62t7.5 97.5q0 58 -7.5 97t-25.5 63t-47.5 34.5t-72.5 10.5t-72 -10.5t-47 -35t-26 -63.5t-8 -96t7.5 -95.5t25.5 -62.5t47 -34t73 -10z" />
    <glyph glyph-name="Q.sc" horiz-adv-x="762" 
d="M673 -161q-184 45 -307.5 89.5t-198 96.5t-106 116t-31.5 147q0 70 24 125.5t69 93.5t110.5 58t148.5 20q168 0 260 -77.5t92 -219.5q0 -115 -65.5 -171t-210.5 -64v-11q64 -10 102 -16t63 -9.5t44.5 -6t47.5 -4.5zM382 159q40 0 66.5 5.5t41.5 19.5t21 39.5t6 64.5
t-6.5 64.5t-22 40.5t-41.5 21t-65 6t-65 -6.5t-41.5 -21.5t-22.5 -40.5t-7 -63.5q0 -39 6.5 -64t22 -39.5t41.5 -20t66 -5.5z" />
    <glyph glyph-name="R" unicode="R" horiz-adv-x="750" 
d="M381 229q-15 -2 -30.5 -2h-32.5h-32v-227h-225v735q129 15 245 15q108 0 186 -15t128 -46.5t73.5 -81.5t23.5 -119q0 -155 -140 -218l178 -270h-252zM350 397q40 0 67 4.5t42.5 15t22 28t6.5 43.5t-6 43.5t-20.5 27.5t-40 14t-64.5 4q-14 0 -35.5 -1t-35.5 -3v-171
q11 -3 25 -4t39 -1z" />
    <glyph glyph-name="R.sc" horiz-adv-x="704" 
d="M358 170q-9 -1 -21.5 -1.5t-21.5 -0.5q-10 0 -20.5 0.5t-21.5 0.5v-169h-213v573q123 12 228 12q100 0 171.5 -12t117.5 -37.5t68 -65.5t22 -95q0 -118 -118 -170l153 -205h-240zM328 313q38 0 62.5 2.5t39 9t20 17.5t5.5 29t-5.5 30t-19 18.5t-36.5 9.5t-57 3
q-12 0 -32.5 -1t-31.5 -2v-114q2 0 9.5 -0.5t16.5 -1t17 -0.5h12z" />
    <glyph glyph-name="Racute" unicode="&#x154;" horiz-adv-x="750" 
d="M381 229q-15 -2 -30.5 -2h-32.5h-32v-227h-225v735q129 15 245 15q108 0 186 -15t128 -46.5t73.5 -81.5t23.5 -119q0 -155 -140 -218l178 -270h-252zM350 397q40 0 67 4.5t42.5 15t22 28t6.5 43.5t-6 43.5t-20.5 27.5t-40 14t-64.5 4q-14 0 -35.5 -1t-35.5 -3v-171
q11 -3 25 -4t39 -1zM277 813l63 190h224l-129 -200z" />
    <glyph glyph-name="Racute.sc" horiz-adv-x="704" 
d="M60 573q123 12 228 12q100 0 171.5 -12t117.5 -37.5t68 -65.5t22 -95q0 -118 -118 -170l153 -205h-240l-104 170q-9 -1 -21.5 -1.5t-21.5 -0.5q-10 0 -20.5 0.5t-21.5 0.5v-169h-213v573zM328 313q38 0 62.5 2.5t39 9t20 17.5t5.5 29t-5.5 30t-19 18.5t-36.5 9.5t-57 3
q-12 0 -32.5 -1t-31.5 -2v-114q3 0 10 -0.5t15.5 -1t16.5 -0.5h13zM258 637l56 161h212l-119 -170z" />
    <glyph glyph-name="Rcaron" unicode="&#x158;" horiz-adv-x="750" 
d="M150 1016l219 -80l219 80v-143l-221 -79l-217 79v143zM381 229q-15 -2 -30.5 -2h-32.5h-32v-227h-225v735q129 15 245 15q108 0 186 -15t128 -46.5t73.5 -81.5t23.5 -119q0 -155 -140 -218l178 -270h-252zM350 397q40 0 67 4.5t42.5 15t22 28t6.5 43.5t-6 43.5
t-20.5 27.5t-40 14t-64.5 4q-14 0 -35.5 -1t-35.5 -3v-171q11 -3 25 -4t39 -1z" />
    <glyph glyph-name="Rcaron.sc" horiz-adv-x="704" 
d="M60 573q123 12 228 12q100 0 171.5 -12t117.5 -37.5t68 -65.5t22 -95q0 -118 -118 -170l153 -205h-240l-104 170q-9 -1 -21.5 -1.5t-21.5 -0.5q-10 0 -20.5 0.5t-21.5 0.5v-169h-213v573zM328 313q38 0 62.5 2.5t39 9t20 17.5t5.5 29t-5.5 30t-19 18.5t-36.5 9.5t-57 3
q-12 0 -32.5 -1t-31.5 -2v-114q3 0 10 -0.5t15.5 -1t16.5 -0.5h13zM140 680v132l205 -65l204 65v-132l-207 -64z" />
    <glyph glyph-name="Rcommaaccent" unicode="&#x156;" horiz-adv-x="750" 
d="M270 -70h225l-101 -150h-164zM381 229q-15 -2 -30.5 -2h-32.5h-32v-227h-225v735q129 15 245 15q108 0 186 -15t128 -46.5t73.5 -81.5t23.5 -119q0 -155 -140 -218l178 -270h-252zM350 397q40 0 67 4.5t42.5 15t22 28t6.5 43.5t-6 43.5t-20.5 27.5t-40 14t-64.5 4
q-14 0 -35.5 -1t-35.5 -3v-171q11 -3 25 -4t39 -1z" />
    <glyph glyph-name="Rcommaaccent.sc" horiz-adv-x="704" 
d="M358 170q-9 -1 -21.5 -1.5t-21.5 -0.5q-10 0 -20.5 0.5t-21.5 0.5v-169h-213v573q123 12 228 12q100 0 171.5 -12t117.5 -37.5t68 -65.5t22 -95q0 -118 -118 -170l153 -205h-240zM250 -55h214l-94 -117h-155zM328 313q38 0 62.5 2.5t39 9t20 17.5t5.5 29t-5.5 30
t-19 18.5t-36.5 9.5t-57 3q-12 0 -32.5 -1t-31.5 -2v-114q2 0 9.5 -0.5t16.5 -1t17 -0.5h12z" />
    <glyph glyph-name="Rdblgrave" unicode="&#x210;" horiz-adv-x="750" 
d="M381 229q-15 -2 -30.5 -2h-32.5h-32v-227h-225v735q129 15 245 15q108 0 186 -15t128 -46.5t73.5 -81.5t23.5 -119q0 -155 -140 -218l178 -270h-252zM350 397q40 0 67 4.5t42.5 15t22 28t6.5 43.5t-6 43.5t-20.5 27.5t-40 14t-64.5 4q-14 0 -35.5 -1t-35.5 -3v-171
q11 -3 25 -4t39 -1zM182 803l-131 200h213l62 -190zM421 803l-131 200h212l63 -190z" />
    <glyph glyph-name="Rdblgrave.sc" horiz-adv-x="704" 
d="M60 573q123 12 228 12q100 0 171.5 -12t117.5 -37.5t68 -65.5t22 -95q0 -118 -118 -170l153 -205h-240l-104 170q-9 -1 -21.5 -1.5t-21.5 -0.5q-10 0 -20.5 0.5t-21.5 0.5v-169h-213v573zM328 313q38 0 62.5 2.5t39 9t20 17.5t5.5 29t-5.5 30t-19 18.5t-36.5 9.5t-57 3
q-12 0 -32.5 -1t-31.5 -2v-114q3 0 10 -0.5t15.5 -1t16.5 -0.5h13zM60 800h203l54 -164l-138 -7zM282 800h204l55 -164l-139 -7z" />
    <glyph glyph-name="Rdotbelow" unicode="&#x1e5a;" horiz-adv-x="750" 
d="M381 229q-15 -2 -30.5 -2h-32.5h-32v-227h-225v735q129 15 245 15q108 0 186 -15t128 -46.5t73.5 -81.5t23.5 -119q0 -155 -140 -218l178 -270h-252zM350 397q40 0 67 4.5t42.5 15t22 28t6.5 43.5t-6 43.5t-20.5 27.5t-40 14t-64.5 4q-14 0 -35.5 -1t-35.5 -3v-171
q11 -3 25 -4t39 -1zM359 -220q-48 0 -68 19.5t-20 64.5t20 65t68 20q50 0 69.5 -20.5t19.5 -64.5q0 -43 -19.5 -63.5t-69.5 -20.5z" />
    <glyph glyph-name="Rdotbelow.sc" horiz-adv-x="704" 
d="M60 573q123 12 228 12q100 0 171.5 -12t117.5 -37.5t68 -65.5t22 -95q0 -118 -118 -170l153 -205h-240l-104 170q-9 -1 -21.5 -1.5t-21.5 -0.5q-10 0 -20.5 0.5t-21.5 0.5v-169h-213v573zM328 313q38 0 62.5 2.5t39 9t20 17.5t5.5 29t-5.5 30t-19 18.5t-36.5 9.5t-57 3
q-12 0 -32.5 -1t-31.5 -2v-114q3 0 10 -0.5t15.5 -1t16.5 -0.5h13zM334 -181q-45 0 -63.5 18t-18.5 57q0 40 18.5 58t63.5 18q47 0 64.5 -19t17.5 -57t-17.5 -56.5t-64.5 -18.5z" />
    <glyph glyph-name="Rinvertedbreve" unicode="&#x212;" horiz-adv-x="750" 
d="M381 229q-15 -2 -30.5 -2h-32.5h-32v-227h-225v735q129 15 245 15q108 0 186 -15t128 -46.5t73.5 -81.5t23.5 -119q0 -155 -140 -218l178 -270h-252zM350 397q40 0 67 4.5t42.5 15t22 28t6.5 43.5t-6 43.5t-20.5 27.5t-40 14t-64.5 4q-14 0 -35.5 -1t-35.5 -3v-171
q11 -3 25 -4t39 -1zM464 816q0 23 -4 40t-14.5 28.5t-29 17.5t-47.5 6q-58 0 -77 -23t-19 -69h-143q0 40 12 75.5t40 61.5t73.5 41t113.5 15q67 0 113 -14.5t74 -40.5t40 -61t12 -77h-144z" />
    <glyph glyph-name="Rinvertedbreve.sc" horiz-adv-x="704" 
d="M60 573q123 12 228 12q100 0 171.5 -12t117.5 -37.5t68 -65.5t22 -95q0 -118 -118 -170l153 -205h-240l-104 170q-9 -1 -21.5 -1.5t-21.5 -0.5q-10 0 -20.5 0.5t-21.5 0.5v-169h-213v573zM122 638q0 33 11 62.5t37 51t68.5 34.5t106.5 13q63 0 106 -12.5t69 -34t37 -51
t11 -63.5h-135q0 34 -17 51.5t-71 17.5t-71 -17.5t-17 -51.5h-135zM328 313q38 0 62.5 2.5t39 9t20 17.5t5.5 29t-5.5 30t-19 18.5t-36.5 9.5t-57 3q-12 0 -32.5 -1t-31.5 -2v-114q3 0 10 -0.5t15.5 -1t16.5 -0.5h13z" />
    <glyph glyph-name="S" unicode="S" horiz-adv-x="670" 
d="M327 -12q-32 0 -68.5 2t-75 6.5t-76.5 10t-72 13.5v180q81 -18 147 -27.5t123 -9.5q60 0 84.5 11t24.5 37q0 29 -27.5 42.5t-86.5 21.5q-63 9 -111.5 26.5t-81.5 47t-49.5 72t-16.5 101.5q0 108 83.5 168t233.5 60q26 0 51.5 -1.5t55 -5t64 -9t78.5 -14.5v-178
q-26 8 -55 14t-58.5 10.5t-58 7t-52.5 2.5q-107 0 -107 -49q0 -32 30 -49t96 -28q63 -11 109 -28.5t76.5 -43.5t45.5 -62.5t15 -85.5q0 -242 -321 -242z" />
    <glyph glyph-name="S.sc" horiz-adv-x="631" 
d="M308 -10q-29 0 -63 1.5t-69.5 5t-71 8t-67.5 10.5v169q72 -14 133.5 -22t118.5 -8q95 0 95 25q0 14 -22 20t-76 13q-127 10 -185.5 54t-58.5 127q0 92 77 142t218 50q24 0 48 -1.5t51 -4.5t59.5 -8t73.5 -12v-163q-24 6 -51 10.5t-54.5 8t-54 5.5t-48.5 2q-54 0 -75 -5
t-21 -19q0 -17 29 -25.5t80 -13.5q233 -25 233 -170q0 -199 -299 -199z" />
    <glyph glyph-name="Sacute" unicode="&#x15a;" horiz-adv-x="670" 
d="M327 -12q-32 0 -68.5 2t-75 6.5t-76.5 10t-72 13.5v180q81 -18 147 -27.5t123 -9.5q60 0 84.5 11t24.5 37q0 29 -27.5 42.5t-86.5 21.5q-63 9 -111.5 26.5t-81.5 47t-49.5 72t-16.5 101.5q0 108 83.5 168t233.5 60q26 0 51.5 -1.5t55 -5t64 -9t78.5 -14.5v-178
q-26 8 -55 14t-58.5 10.5t-58 7t-52.5 2.5q-107 0 -107 -49q0 -32 30 -49t96 -28q63 -11 109 -28.5t76.5 -43.5t45.5 -62.5t15 -85.5q0 -242 -321 -242zM245 813l63 190h224l-129 -200z" />
    <glyph glyph-name="Sacute.sc" horiz-adv-x="631" 
d="M308 -10q-29 0 -63 1.5t-69.5 5t-71 8t-67.5 10.5v169q72 -14 133.5 -22t118.5 -8q95 0 95 25q0 14 -22 20t-76 13q-127 10 -185.5 54t-58.5 127q0 92 77 142t218 50q24 0 48 -1.5t51 -4.5t59.5 -8t73.5 -12v-163q-24 6 -51 10.5t-54.5 8t-54 5.5t-48.5 2q-54 0 -75 -5
t-21 -19q0 -17 29 -25.5t80 -13.5q233 -25 233 -170q0 -199 -299 -199zM230 637l56 161h213l-120 -170z" />
    <glyph glyph-name="Scaron" unicode="&#x160;" horiz-adv-x="670" 
d="M327 -12q-32 0 -68.5 2t-75 6.5t-76.5 10t-72 13.5v180q81 -18 147 -27.5t123 -9.5q60 0 84.5 11t24.5 37q0 29 -27.5 42.5t-86.5 21.5q-63 9 -111.5 26.5t-81.5 47t-49.5 72t-16.5 101.5q0 108 83.5 168t233.5 60q26 0 51.5 -1.5t55 -5t64 -9t78.5 -14.5v-178
q-26 8 -55 14t-58.5 10.5t-58 7t-52.5 2.5q-107 0 -107 -49q0 -32 30 -49t96 -28q63 -11 109 -28.5t76.5 -43.5t45.5 -62.5t15 -85.5q0 -242 -321 -242zM122 1016l219 -80l219 80v-143l-221 -79l-217 79v143z" />
    <glyph glyph-name="Scaron.sc" horiz-adv-x="631" 
d="M308 -10q-29 0 -63 1.5t-69.5 5t-71 8t-67.5 10.5v169q72 -14 133.5 -22t118.5 -8q95 0 95 25q0 14 -22 20t-76 13q-127 10 -185.5 54t-58.5 127q0 92 77 142t218 50q24 0 48 -1.5t51 -4.5t59.5 -8t73.5 -12v-163q-24 6 -51 10.5t-54.5 8t-54 5.5t-48.5 2q-54 0 -75 -5
t-21 -19q0 -17 29 -25.5t80 -13.5q233 -25 233 -170q0 -199 -299 -199zM117 812l204 -65l204 65v-132l-206 -64l-202 64v132z" />
    <glyph glyph-name="Schwa" unicode="&#x18f;" horiz-adv-x="766" 
d="M27 328q0 23 2 47t7 64h480q-3 40 -12.5 64t-29 36.5t-50.5 16.5t-77 4q-53 0 -121.5 -6t-156.5 -23l-8 177q36 11 77 19t82.5 13t80.5 7.5t70 2.5q183 0 274 -92t91 -281q0 -187 -92.5 -287t-282.5 -100q-81 0 -143.5 19t-105 59.5t-64 105t-21.5 154.5zM368 164
q40 0 67 5t44 19t25.5 38.5t11.5 64.5h-276q0 -38 4 -62.5t16.5 -38.5t38 -20t69.5 -6z" />
    <glyph glyph-name="Schwa.sc" horiz-adv-x="691" 
d="M30 247q0 53 12 101h388q-3 22 -10.5 35t-23 20.5t-41 10t-63.5 2.5q-29 0 -61 -1.5t-63.5 -4.5t-59 -7t-47.5 -8q0 4 -1 28t-2 51.5t-2 51t-1 28.5q57 15 123.5 23.5t134.5 8.5q177 0 262.5 -73t85.5 -223q0 -147 -86.5 -223t-260.5 -76q-141 0 -212.5 63t-71.5 193z
M327 153q55 0 77.5 16.5t27.5 62.5h-197q2 -46 21.5 -62.5t70.5 -16.5z" />
    <glyph glyph-name="Scircumflex" unicode="&#x15c;" horiz-adv-x="670" 
d="M327 -12q-32 0 -68.5 2t-75 6.5t-76.5 10t-72 13.5v180q81 -18 147 -27.5t123 -9.5q60 0 84.5 11t24.5 37q0 29 -27.5 42.5t-86.5 21.5q-63 9 -111.5 26.5t-81.5 47t-49.5 72t-16.5 101.5q0 108 83.5 168t233.5 60q26 0 51.5 -1.5t55 -5t64 -9t78.5 -14.5v-178
q-26 8 -55 14t-58.5 10.5t-58 7t-52.5 2.5q-107 0 -107 -49q0 -32 30 -49t96 -28q63 -11 109 -28.5t76.5 -43.5t45.5 -62.5t15 -85.5q0 -242 -321 -242zM124 936l217 80l221 -80v-142l-219 79l-219 -79v142z" />
    <glyph glyph-name="Scircumflex.sc" horiz-adv-x="631" 
d="M308 -10q-29 0 -63 1.5t-69.5 5t-71 8t-67.5 10.5v169q72 -14 133.5 -22t118.5 -8q95 0 95 25q0 14 -22 20t-76 13q-127 10 -185.5 54t-58.5 127q0 92 77 142t218 50q24 0 48 -1.5t51 -4.5t59.5 -8t73.5 -12v-163q-24 6 -51 10.5t-54.5 8t-54 5.5t-48.5 2q-54 0 -75 -5
t-21 -19q0 -17 29 -25.5t80 -13.5q233 -25 233 -170q0 -199 -299 -199zM120 747l202 64l206 -64v-131l-204 63l-204 -63v131z" />
    <glyph glyph-name="Sdotbelow" unicode="&#x1e62;" horiz-adv-x="670" 
d="M327 -12q-32 0 -68.5 2t-75 6.5t-76.5 10t-72 13.5v180q81 -18 147 -27.5t123 -9.5q60 0 84.5 11t24.5 37q0 29 -27.5 42.5t-86.5 21.5q-63 9 -111.5 26.5t-81.5 47t-49.5 72t-16.5 101.5q0 108 83.5 168t233.5 60q26 0 51.5 -1.5t55 -5t64 -9t78.5 -14.5v-178
q-26 8 -55 14t-58.5 10.5t-58 7t-52.5 2.5q-107 0 -107 -49q0 -32 30 -49t96 -28q63 -11 109 -28.5t76.5 -43.5t45.5 -62.5t15 -85.5q0 -242 -321 -242zM339 -220q-48 0 -68 19.5t-20 64.5t20 65t68 20q50 0 69.5 -20.5t19.5 -64.5q0 -43 -19.5 -63.5t-69.5 -20.5z" />
    <glyph glyph-name="Sdotbelow.sc" horiz-adv-x="631" 
d="M308 -10q-29 0 -63 1.5t-69.5 5t-71 8t-67.5 10.5v169q72 -14 133.5 -22t118.5 -8q95 0 95 25q0 14 -22 20t-76 13q-127 10 -185.5 54t-58.5 127q0 92 77 142t218 50q24 0 48 -1.5t51 -4.5t59.5 -8t73.5 -12v-163q-24 6 -51 10.5t-54.5 8t-54 5.5t-48.5 2q-54 0 -75 -5
t-21 -19q0 -17 29 -25.5t80 -13.5q233 -25 233 -170q0 -199 -299 -199zM321 -181q-45 0 -64 18t-19 57q0 40 19 58t64 18q46 0 64 -19t18 -57t-18 -56.5t-64 -18.5z" />
    <glyph glyph-name="T" unicode="T" horiz-adv-x="667" 
d="M221 567h-201v173h627v-173h-201v-567h-225v567z" />
    <glyph glyph-name="Tbar" unicode="&#x166;" horiz-adv-x="679" 
d="M80 426h146v141h-201v173h627v-173h-201v-141h158v-122h-158v-304h-225v304h-146v122z" />
    <glyph glyph-name="Tbar.sc" horiz-adv-x="629" 
d="M74 336h134v80h-182v161h577v-161h-182v-80h134v-112h-134v-224h-213v224h-134v112z" />
    <glyph glyph-name="Tcaron" unicode="&#x164;" horiz-adv-x="667" 
d="M116 1016l219 -80l219 80v-143l-221 -79l-217 79v143zM221 567h-201v173h627v-173h-201v-567h-225v567z" />
    <glyph glyph-name="Tcaron.sc" horiz-adv-x="622" 
d="M204 416h-181v161h576v-161h-182v-416h-213v416zM107 812l205 -65l204 65v-132l-206 -64l-203 64v132z" />
    <glyph glyph-name="Tdotbelow" unicode="&#x1e6c;" horiz-adv-x="667" 
d="M334 -220q-48 0 -68 19.5t-20 64.5t20 65t68 20q50 0 69.5 -20.5t19.5 -64.5q0 -43 -19.5 -63.5t-69.5 -20.5zM221 567h-201v173h627v-173h-201v-567h-225v567z" />
    <glyph glyph-name="Tdotbelow.sc" horiz-adv-x="622" 
d="M204 416h-181v161h576v-161h-182v-416h-213v416zM312 -181q-45 0 -63.5 18t-18.5 57q0 40 18.5 58t63.5 18q47 0 64.5 -19t17.5 -57t-17.5 -56.5t-64.5 -18.5z" />
    <glyph glyph-name="Thorn" unicode="&#xde;" horiz-adv-x="736" 
d="M61 740h225v-112h32q105 0 181 -15t124.5 -47t71.5 -81t23 -118q0 -68 -23 -117.5t-71.5 -81t-123.5 -46.5t-179 -15h-35v-107h-225v740zM337 290q50 0 80 2t46.5 10t22 23t5.5 42t-5 42.5t-21.5 23.5t-47 10t-81.5 2h-50v-155h51z" />
    <glyph glyph-name="Thorn.sc" horiz-adv-x="686" 
d="M59 577h213v-69h15q100 0 172 -12.5t118.5 -39.5t68 -68.5t21.5 -99.5q0 -214 -375 -214h-20v-74h-213v577zM338 225q33 0 54.5 3t34 10t17.5 19.5t5 30.5t-4.5 30t-17 18.5t-34.5 9.5t-57 3h-25.5t-38.5 -1v-121q18 -2 33 -2h33z" />
    <glyph glyph-name="U" unicode="U" horiz-adv-x="828" 
d="M414 -10q-102 0 -171 20t-111 59.5t-60 99t-18 139.5v434h225v-441q0 -63 31.5 -97.5t103.5 -34.5q73 0 104 34.5t31 97.5v441h225v-434q0 -80 -18 -139.5t-60 -99.5t-111 -59.5t-171 -19.5z" />
    <glyph glyph-name="U.sc" horiz-adv-x="772" 
d="M386 -8q-90 0 -153.5 14.5t-103.5 45.5t-58.5 79t-18.5 114v335h213v-345q0 -39 33 -57t88 -18q56 0 88 17.5t32 57.5v345h214v-335q0 -66 -18.5 -114t-58.5 -79t-103.5 -45.5t-153.5 -14.5z" />
    <glyph glyph-name="Uacute" unicode="&#xda;" horiz-adv-x="828" 
d="M311 813l63 190h224l-129 -200zM414 -10q-102 0 -171 20t-111 59.5t-60 99t-18 139.5v434h225v-441q0 -63 31.5 -97.5t103.5 -34.5q73 0 104 34.5t31 97.5v441h225v-434q0 -80 -18 -139.5t-60 -99.5t-111 -59.5t-171 -19.5z" />
    <glyph glyph-name="Uacute.sc" horiz-adv-x="772" 
d="M386 -8q-96 0 -160 16t-102.5 48t-55 79.5t-16.5 109.5v335h213v-345q0 -30 28 -52.5t93 -22.5t92.5 22t27.5 53v345h214v-335q0 -63 -16.5 -110t-55.5 -79t-103 -48t-159 -16zM288 637l55 161h213l-119 -170z" />
    <glyph glyph-name="Ubreve" unicode="&#x16c;" horiz-adv-x="828" 
d="M412 806q-68 0 -113.5 14.5t-73.5 40.5t-40 61.5t-12 76.5h143q0 -47 19 -70t77 -23q29 0 47.5 6t29 17.5t14.5 29t4 40.5h144q0 -42 -12 -77.5t-40 -61t-74 -40t-113 -14.5zM414 -10q-102 0 -171 20t-111 59.5t-60 99t-18 139.5v434h225v-441q0 -63 31.5 -97.5
t103.5 -34.5q73 0 104 34.5t31 97.5v441h225v-434q0 -80 -18 -139.5t-60 -99.5t-111 -59.5t-171 -19.5z" />
    <glyph glyph-name="Ubreve.sc" horiz-adv-x="772" 
d="M386 -8q-96 0 -160 16t-102.5 48t-55 79.5t-16.5 109.5v335h213v-345q0 -30 28 -52.5t93 -22.5t92.5 22t27.5 53v345h214v-335q0 -63 -16.5 -110t-55.5 -79t-103 -48t-159 -16zM384 628q-64 0 -107 13t-68.5 35t-36.5 51.5t-11 62.5h136q0 -35 17 -53t70 -18
q54 0 70.5 18t16.5 53h136q0 -35 -11 -64.5t-37 -51t-68.5 -34t-106.5 -12.5z" />
    <glyph glyph-name="Ucircumflex" unicode="&#xdb;" horiz-adv-x="828" 
d="M414 -10q-102 0 -171 20t-111 59.5t-60 99t-18 139.5v434h225v-441q0 -63 31.5 -97.5t103.5 -34.5q73 0 104 34.5t31 97.5v441h225v-434q0 -80 -18 -139.5t-60 -99.5t-111 -59.5t-171 -19.5zM190 936l217 80l221 -80v-142l-219 79l-219 -79v142z" />
    <glyph glyph-name="Ucircumflex.sc" horiz-adv-x="772" 
d="M386 -8q-96 0 -160 16t-102.5 48t-55 79.5t-16.5 109.5v335h213v-345q0 -30 28 -52.5t93 -22.5t92.5 22t27.5 53v345h214v-335q0 -63 -16.5 -110t-55.5 -79t-103 -48t-159 -16zM177 747l202 64l207 -64v-131l-205 63l-204 -63v131z" />
    <glyph glyph-name="Udblgrave" unicode="&#x214;" horiz-adv-x="828" 
d="M414 -10q-102 0 -171 20t-111 59.5t-60 99t-18 139.5v434h225v-441q0 -63 31.5 -97.5t103.5 -34.5q73 0 104 34.5t31 97.5v441h225v-434q0 -80 -18 -139.5t-60 -99.5t-111 -59.5t-171 -19.5zM219 803l-131 200h213l62 -190zM458 803l-131 200h212l63 -190z" />
    <glyph glyph-name="Udblgrave.sc" horiz-adv-x="772" 
d="M386 -8q-96 0 -160 16t-102.5 48t-55 79.5t-16.5 109.5v335h213v-345q0 -30 28 -52.5t93 -22.5t92.5 22t27.5 53v345h214v-335q0 -63 -16.5 -110t-55.5 -79t-103 -48t-159 -16zM201 629l-120 171h204l54 -164zM424 629l-120 171h203l55 -164z" />
    <glyph glyph-name="Udieresis" unicode="&#xdc;" horiz-adv-x="828" 
d="M257 795q-63 0 -90 27t-27 87t27 86.5t90 26.5q64 0 90 -28t26 -85q0 -58 -26 -86t-90 -28zM564 795q-64 0 -90.5 27t-26.5 87t26.5 86.5t90.5 26.5t90 -28t26 -85q0 -58 -26 -86t-90 -28zM414 -10q-102 0 -171 20t-111 59.5t-60 99t-18 139.5v434h225v-441
q0 -63 31.5 -97.5t103.5 -34.5q73 0 104 34.5t31 97.5v441h225v-434q0 -80 -18 -139.5t-60 -99.5t-111 -59.5t-171 -19.5z" />
    <glyph glyph-name="Udieresis.sc" horiz-adv-x="772" 
d="M386 -8q-96 0 -160 16t-102.5 48t-55 79.5t-16.5 109.5v335h213v-345q0 -30 28 -52.5t93 -22.5t92.5 22t27.5 53v345h214v-335q0 -63 -16.5 -110t-55.5 -79t-103 -48t-159 -16zM242 614q-60 0 -85.5 24.5t-25.5 80.5q0 54 25.5 79t85.5 25t84.5 -25.5t24.5 -78.5
q0 -54 -24.5 -79.5t-84.5 -25.5zM523 614q-60 0 -84.5 24.5t-24.5 80.5q0 54 24.5 79t84.5 25q62 0 86 -25.5t24 -78.5q0 -54 -24 -79.5t-86 -25.5z" />
    <glyph glyph-name="Udotbelow" unicode="&#x1ee4;" horiz-adv-x="828" 
d="M414 -10q-102 0 -171 20t-111 59.5t-60 99t-18 139.5v434h225v-441q0 -63 31.5 -97.5t103.5 -34.5q73 0 104 34.5t31 97.5v441h225v-434q0 -80 -18 -139.5t-60 -99.5t-111 -59.5t-171 -19.5zM409 -220q-48 0 -68 19.5t-20 64.5t20 65t68 20q50 0 69.5 -20.5t19.5 -64.5
q0 -43 -19.5 -63.5t-69.5 -20.5z" />
    <glyph glyph-name="Udotbelow.sc" horiz-adv-x="772" 
d="M386 -8q-96 0 -160 16t-102.5 48t-55 79.5t-16.5 109.5v335h213v-345q0 -30 28 -52.5t93 -22.5t92.5 22t27.5 53v345h214v-335q0 -63 -16.5 -110t-55.5 -79t-103 -48t-159 -16zM381 -181q-45 0 -63.5 18t-18.5 57q0 40 18.5 58t63.5 18q47 0 64.5 -19t17.5 -57
t-17.5 -56.5t-64.5 -18.5z" />
    <glyph glyph-name="Ugrave" unicode="&#xd9;" horiz-adv-x="828" 
d="M329 803l-131 200h226l62 -190zM414 -10q-102 0 -171 20t-111 59.5t-60 99t-18 139.5v434h225v-441q0 -63 31.5 -97.5t103.5 -34.5q73 0 104 34.5t31 97.5v441h225v-434q0 -80 -18 -139.5t-60 -99.5t-111 -59.5t-171 -19.5z" />
    <glyph glyph-name="Ugrave.sc" horiz-adv-x="772" 
d="M386 -8q-96 0 -160 16t-102.5 48t-55 79.5t-16.5 109.5v335h213v-345q0 -30 28 -52.5t93 -22.5t92.5 22t27.5 53v345h214v-335q0 -63 -16.5 -110t-55.5 -79t-103 -48t-159 -16zM306 628l-121 170h214l54 -163z" />
    <glyph glyph-name="Uhungarumlaut" unicode="&#x170;" horiz-adv-x="828" 
d="M414 -10q-102 0 -171 20t-111 59.5t-60 99t-18 139.5v434h225v-441q0 -63 31.5 -97.5t103.5 -34.5q73 0 104 34.5t31 97.5v441h225v-434q0 -80 -18 -139.5t-60 -99.5t-111 -59.5t-171 -19.5zM211 813l62 190h212l-130 -200zM450 813l61 190h213l-130 -200z" />
    <glyph glyph-name="Uhungarumlaut.sc" horiz-adv-x="772" 
d="M386 -8q-96 0 -160 16t-102.5 48t-55 79.5t-16.5 109.5v335h213v-345q0 -30 28 -52.5t93 -22.5t92.5 22t27.5 53v345h214v-335q0 -63 -16.5 -110t-55.5 -79t-103 -48t-159 -16zM196 636l54 164h204l-121 -171zM418 636l55 164h203l-119 -171z" />
    <glyph glyph-name="Uinvertedbreve" unicode="&#x216;" horiz-adv-x="828" 
d="M414 -10q-102 0 -171 20t-111 59.5t-60 99t-18 139.5v434h225v-441q0 -63 31.5 -97.5t103.5 -34.5q73 0 104 34.5t31 97.5v441h225v-434q0 -80 -18 -139.5t-60 -99.5t-111 -59.5t-171 -19.5zM501 816q0 23 -4 40t-14.5 28.5t-29 17.5t-47.5 6q-58 0 -77 -23t-19 -69h-143
q0 40 12 75.5t40 61.5t73.5 41t113.5 15q67 0 113 -14.5t74 -40.5t40 -61t12 -77h-144z" />
    <glyph glyph-name="Uinvertedbreve.sc" horiz-adv-x="772" 
d="M386 -8q-96 0 -160 16t-102.5 48t-55 79.5t-16.5 109.5v335h213v-345q0 -30 28 -52.5t93 -22.5t92.5 22t27.5 53v345h214v-335q0 -63 -16.5 -110t-55.5 -79t-103 -48t-159 -16zM465 638q0 34 -16.5 51.5t-70.5 17.5q-53 0 -70.5 -17.5t-17.5 -51.5h-135q0 33 11 62.5
t36.5 51t68.5 34.5t107 13q63 0 106 -12.5t69 -34t37 -51t11 -63.5h-136z" />
    <glyph glyph-name="Umacron" unicode="&#x16a;" horiz-adv-x="828" 
d="M190 983h435v-142h-435v142zM414 -10q-102 0 -171 20t-111 59.5t-60 99t-18 139.5v434h225v-441q0 -63 31.5 -97.5t103.5 -34.5q73 0 104 34.5t31 97.5v441h225v-434q0 -80 -18 -139.5t-60 -99.5t-111 -59.5t-171 -19.5z" />
    <glyph glyph-name="Umacron.sc" horiz-adv-x="772" 
d="M386 -8q-96 0 -160 16t-102.5 48t-55 79.5t-16.5 109.5v335h213v-345q0 -30 28 -52.5t93 -22.5t92.5 22t27.5 53v345h214v-335q0 -63 -16.5 -110t-55.5 -79t-103 -48t-159 -16zM177 789h406v-133h-406v133z" />
    <glyph glyph-name="Uogonek" unicode="&#x172;" horiz-adv-x="828" 
d="M420 -219q-78 0 -121 25.5t-43 72.5q0 30 19 61.5t51 54.5q-77 8 -129 31.5t-83.5 62.5t-45.5 93.5t-14 125.5v434h225v-441q0 -63 31.5 -97.5t103.5 -34.5q73 0 104 34.5t31 97.5v441h225v-434q0 -69 -13 -123t-43.5 -93t-80 -63t-121.5 -33q-35 -14 -58.5 -25
t-37.5 -21t-20 -19t-6 -18q0 -19 29 -19q14 0 42 5t53 11v-117q-23 -6 -47 -9t-51 -3z" />
    <glyph glyph-name="Uogonek.sc" horiz-adv-x="772" 
d="M393 -174q-74 0 -114.5 22.5t-40.5 59.5q0 12 5 24.5t13 24.5t19.5 22.5t23.5 16.5q-70 7 -117 26.5t-76 50.5t-41.5 74t-12.5 98v335h213v-345q0 -30 28 -52.5t93 -22.5t92.5 22t27.5 53v345h214v-335q0 -55 -12.5 -98t-41 -74t-76 -50.5t-116.5 -26.5q-36 -13 -57 -22
t-31.5 -15.5t-13.5 -10t-3 -5.5q0 -6 5 -7.5t16 -1.5q8 0 20 1t25.5 2.5t26 3t20.5 3.5v-108q-23 -5 -45.5 -7.5t-43.5 -2.5z" />
    <glyph glyph-name="Uring" unicode="&#x16e;" horiz-adv-x="828" 
d="M414 -10q-102 0 -171 20t-111 59.5t-60 99t-18 139.5v434h225v-441q0 -63 31.5 -97.5t103.5 -34.5q73 0 104 34.5t31 97.5v441h225v-434q0 -80 -18 -139.5t-60 -99.5t-111 -59.5t-171 -19.5zM409 777q-61 0 -101.5 32t-40.5 85q0 26 11 48t30 37.5t45 24.5t56 9
q62 0 102 -33t40 -86t-40 -85t-102 -32zM409 845q35 0 47.5 11.5t12.5 37.5t-12.5 38.5t-47.5 12.5t-47.5 -12.5t-12.5 -38.5t12.5 -37.5t47.5 -11.5z" />
    <glyph glyph-name="Uring.sc" horiz-adv-x="772" 
d="M386 -8q-96 0 -160 16t-102.5 48t-55 79.5t-16.5 109.5v335h213v-345q0 -30 28 -52.5t93 -22.5t92.5 22t27.5 53v345h214v-335q0 -63 -16.5 -110t-55.5 -79t-103 -48t-159 -16zM382 602q-28 0 -52 7t-41 19t-27 29.5t-10 38.5q0 43 36.5 69.5t93.5 26.5t93.5 -26.5
t36.5 -69.5q0 -21 -10 -38.5t-27 -29.5t-41 -19t-52 -7zM382 662q32 0 43 8t11 26q0 20 -11 27.5t-43 7.5t-43 -7.5t-11 -27.5q0 -18 11 -26t43 -8z" />
    <glyph glyph-name="Utilde" unicode="&#x168;" horiz-adv-x="828" 
d="M161 854q37 73 84.5 109.5t92.5 36.5q27 0 53 -6t52.5 -12.5t53 -12.5t53.5 -6q23 0 45 7t53 30l23 -34q-38 -74 -85.5 -110t-90.5 -36q-27 0 -53.5 6t-53 12.5t-53 12.5t-53.5 6q-24 0 -46.5 -7t-51.5 -30zM414 -10q-102 0 -171 20t-111 59.5t-60 99t-18 139.5v434h225
v-441q0 -63 31.5 -97.5t103.5 -34.5q73 0 104 34.5t31 97.5v441h225v-434q0 -80 -18 -139.5t-60 -99.5t-111 -59.5t-171 -19.5z" />
    <glyph glyph-name="Utilde.sc" horiz-adv-x="772" 
d="M386 -8q-96 0 -160 16t-102.5 48t-55 79.5t-16.5 109.5v335h213v-345q0 -30 28 -52.5t93 -22.5t92.5 22t27.5 53v345h214v-335q0 -63 -16.5 -110t-55.5 -79t-103 -48t-159 -16zM150 666q34 67 78.5 100t85.5 33q25 0 49.5 -4t49 -9.5t49.5 -9.5t50 -4q21 0 41.5 5
t49.5 23l20 -30q-35 -67 -79.5 -99.5t-83.5 -32.5q-25 0 -50 4t-49.5 9.5t-49.5 9.5t-50 4q-22 0 -43 -5t-48 -23z" />
    <glyph glyph-name="V" unicode="V" horiz-adv-x="771" 
d="M-6 740h239l113 -373l36 -159h11l37 159l112 373h234l-241 -740h-299z" />
    <glyph glyph-name="V.sc" horiz-adv-x="711" 
d="M-6 577h230l96 -280l32 -129h12l33 129l94 280h225l-219 -577h-283z" />
    <glyph glyph-name="W" unicode="W" horiz-adv-x="1135" 
d="M6 740h242l66 -397l14 -125h15l22 125l93 397h221l93 -397l22 -125h14l15 125l66 397h240l-173 -740h-295l-66 282l-22 189h-11l-22 -189l-66 -282h-295z" />
    <glyph glyph-name="W.sc" horiz-adv-x="1043" 
d="M5 577h231l54 -280l13 -97h15l20 97l81 280h206l80 -280l21 -97h14l13 97l54 280h231l-154 -577h-282l-45 162l-30 167h-11l-30 -166l-44 -163h-282z" />
    <glyph glyph-name="Wacute" unicode="&#x1e82;" horiz-adv-x="1135" 
d="M482 813l63 190h224l-129 -200zM6 740h242l66 -397l14 -125h15l22 125l93 397h221l93 -397l22 -125h14l15 125l66 397h240l-173 -740h-295l-66 282l-22 189h-11l-22 -189l-66 -282h-295z" />
    <glyph glyph-name="Wacute.sc" horiz-adv-x="1043" 
d="M5 577h231l54 -280l13 -97h15l20 97l81 280h206l80 -280l21 -97h14l13 97l54 280h231l-154 -577h-282l-45 162l-30 167h-11l-30 -166l-44 -163h-282zM442 637l55 161h213l-119 -170z" />
    <glyph glyph-name="Wcircumflex" unicode="&#x174;" horiz-adv-x="1135" 
d="M6 740h242l66 -397l14 -125h15l22 125l93 397h221l93 -397l22 -125h14l15 125l66 397h240l-173 -740h-295l-66 282l-22 189h-11l-22 -189l-66 -282h-295zM348 936l217 80l221 -80v-142l-219 79l-219 -79v142z" />
    <glyph glyph-name="Wcircumflex.sc" horiz-adv-x="1043" 
d="M5 577h231l54 -280l13 -97h15l20 97l81 280h206l80 -280l21 -97h14l13 97l54 280h231l-154 -577h-282l-45 162l-30 167h-11l-30 -166l-44 -163h-282zM317 747l202 64l206 -64v-131l-204 63l-204 -63v131z" />
    <glyph glyph-name="Wdieresis" unicode="&#x1e84;" horiz-adv-x="1135" 
d="M414 795q-63 0 -90 27t-27 87t27 86.5t90 26.5q64 0 90 -28t26 -85q0 -58 -26 -86t-90 -28zM721 795q-64 0 -90.5 27t-26.5 87t26.5 86.5t90.5 26.5t90 -28t26 -85q0 -58 -26 -86t-90 -28zM6 740h242l66 -397l14 -125h15l22 125l93 397h221l93 -397l22 -125h14l15 125
l66 397h240l-173 -740h-295l-66 282l-22 189h-11l-22 -189l-66 -282h-295z" />
    <glyph glyph-name="Wdieresis.sc" horiz-adv-x="1043" 
d="M5 577h231l54 -280l13 -97h15l20 97l81 280h206l80 -280l21 -97h14l13 97l54 280h231l-154 -577h-282l-45 162l-30 167h-11l-30 -166l-44 -163h-282zM380 614q-60 0 -85 24.5t-25 80.5q0 54 25 79t85 25q62 0 86 -25.5t24 -78.5q0 -54 -24 -79.5t-86 -25.5zM663 614
q-60 0 -85 24.5t-25 80.5q0 54 25 79t85 25q61 0 85 -25.5t24 -78.5q0 -54 -24 -79.5t-85 -25.5z" />
    <glyph glyph-name="Wgrave" unicode="&#x1e80;" horiz-adv-x="1135" 
d="M472 803l-131 200h226l62 -190zM6 740h242l66 -397l14 -125h15l22 125l93 397h221l93 -397l22 -125h14l15 125l66 397h240l-173 -740h-295l-66 282l-22 189h-11l-22 -189l-66 -282h-295z" />
    <glyph glyph-name="Wgrave.sc" horiz-adv-x="1043" 
d="M5 577h231l54 -280l13 -97h15l20 97l81 280h206l80 -280l21 -97h14l13 97l54 280h231l-154 -577h-282l-45 162l-30 167h-11l-30 -166l-44 -163h-282zM430 628l-119 170h213l55 -163z" />
    <glyph glyph-name="X" unicode="X" horiz-adv-x="771" 
d="M243 389l-241 351h254l93 -157l32 -59h9l31 59l98 157h251l-250 -359l272 -381h-253l-121 194l-29 52h-8l-27 -52l-121 -194h-252z" />
    <glyph glyph-name="X.sc" horiz-adv-x="716" 
d="M204 304l-198 273h248l78 -117l26 -46h7l25 46l75 117h245l-205 -279l223 -298h-247l-98 148l-23 39h-6l-21 -39l-99 -148h-245z" />
    <glyph glyph-name="Y" unicode="Y" horiz-adv-x="764" 
d="M271 230l-284 510h245l113 -227l32 -82h10l31 82l114 227h243l-279 -503v-237h-225v230z" />
    <glyph glyph-name="Y.sc" horiz-adv-x="695" 
d="M237 180l-247 397h232l98 -165l22 -63h10l23 63l96 165h233l-245 -397v-180h-222v180z" />
    <glyph glyph-name="Yacute" unicode="&#xdd;" horiz-adv-x="764" 
d="M271 230l-284 510h245l113 -227l32 -82h10l31 82l114 227h243l-279 -503v-237h-225v230zM302 813l63 190h224l-129 -200z" />
    <glyph glyph-name="Yacute.sc" horiz-adv-x="695" 
d="M237 180l-247 397h232l98 -165l22 -63h10l23 63l96 165h233l-245 -397v-180h-222v180zM273 637l55 161h213l-120 -170z" />
    <glyph glyph-name="Ycircumflex" unicode="&#x176;" horiz-adv-x="764" 
d="M271 230l-284 510h245l113 -227l32 -82h10l31 82l114 227h243l-279 -503v-237h-225v230zM161 936l217 80l221 -80v-142l-219 79l-219 -79v142z" />
    <glyph glyph-name="Ycircumflex.sc" horiz-adv-x="695" 
d="M237 180l-247 397h232l98 -165l22 -63h10l23 63l96 165h233l-245 -397v-180h-222v180zM140 747l203 64l206 -64v-131l-204 63l-205 -63v131z" />
    <glyph glyph-name="Ydieresis" unicode="&#x178;" horiz-adv-x="764" 
d="M271 230l-284 510h245l113 -227l32 -82h10l31 82l114 227h243l-279 -503v-237h-225v230zM228 795q-63 0 -90 27t-27 87t27 86.5t90 26.5q64 0 90 -28t26 -85q0 -58 -26 -86t-90 -28zM535 795q-64 0 -90.5 27t-26.5 87t26.5 86.5t90.5 26.5t90 -28t26 -85q0 -58 -26 -86
t-90 -28z" />
    <glyph glyph-name="Ydieresis.sc" horiz-adv-x="695" 
d="M205 614q-60 0 -85 24.5t-25 80.5q0 54 25 79t85 25t84.5 -25.5t24.5 -78.5q0 -54 -24.5 -79.5t-84.5 -25.5zM487 614q-60 0 -84.5 24.5t-24.5 80.5q0 54 24.5 79t84.5 25t85 -25.5t25 -78.5q0 -54 -25 -79.5t-85 -25.5zM237 180l-247 397h232l98 -165l22 -63h10l23 63
l96 165h233l-245 -397v-180h-222v180z" />
    <glyph glyph-name="Ygrave" unicode="&#x1ef2;" horiz-adv-x="764" 
d="M271 230l-284 510h245l113 -227l32 -82h10l31 82l114 227h243l-279 -503v-237h-225v230zM297 803l-131 200h226l62 -190z" />
    <glyph glyph-name="Ygrave.sc" horiz-adv-x="695" 
d="M237 180l-247 397h232l98 -165l22 -63h10l23 63l96 165h233l-245 -397v-180h-222v180zM145 798h213l55 -163l-148 -7z" />
    <glyph glyph-name="Ytilde" unicode="&#x1ef8;" horiz-adv-x="764" 
d="M271 230l-284 510h245l113 -227l32 -82h10l31 82l114 227h243l-279 -503v-237h-225v230zM129 854q37 73 84.5 109.5t92.5 36.5q27 0 53 -6t52.5 -12.5t53 -12.5t53.5 -6q23 0 45 7t53 30l23 -34q-38 -74 -85.5 -110t-90.5 -36q-27 0 -53.5 6t-53 12.5t-53 12.5t-53.5 6
q-24 0 -46.5 -7t-51.5 -30z" />
    <glyph glyph-name="Ytilde.sc" horiz-adv-x="695" 
d="M237 180l-247 397h232l98 -165l22 -63h10l23 63l96 165h233l-245 -397v-180h-222v180zM110 666q34 67 78.5 100t86.5 33q25 0 49.5 -4t49 -9.5t49 -9.5t49.5 -4q21 0 42 5t50 23l20 -30q-35 -67 -80 -99.5t-83 -32.5q-25 0 -50 4t-50 9.5t-49.5 9.5t-49.5 4
q-23 0 -43.5 -5t-46.5 -23z" />
    <glyph glyph-name="Z" unicode="Z" horiz-adv-x="690" 
d="M30 165l341 392v10h-326v173h598v-161l-342 -396v-10h362v-173h-633v165z" />
    <glyph glyph-name="Z.sc" horiz-adv-x="646" 
d="M37 153l292 254v9h-284v161h553v-148l-296 -259v-8h311v-162h-576v153z" />
    <glyph glyph-name="Zacute" unicode="&#x179;" horiz-adv-x="690" 
d="M30 165l341 392v10h-326v173h598v-161l-342 -396v-10h362v-173h-633v165zM274 813l63 190h224l-129 -200z" />
    <glyph glyph-name="Zacute.sc" horiz-adv-x="648" 
d="M36 153l297 254v9h-287v161h553v-148l-301 -259v-8h317v-162h-579v153zM257 637l56 161h213l-119 -170z" />
    <glyph glyph-name="Zcaron" unicode="&#x17d;" horiz-adv-x="690" 
d="M125 1016l219 -80l219 80v-143l-221 -79l-217 79v143zM30 165l341 392v10h-326v173h598v-161l-342 -396v-10h362v-173h-633v165z" />
    <glyph glyph-name="Zcaron.sc" horiz-adv-x="648" 
d="M36 153l297 254v9h-287v161h553v-148l-301 -259v-8h317v-162h-579v153zM116 812l205 -65l204 65v-132l-206 -64l-203 64v132z" />
    <glyph glyph-name="Zdotaccent" unicode="&#x17b;" horiz-adv-x="690" 
d="M342 795q-63 0 -90 27t-27 87t27 86.5t90 26.5q64 0 90 -28t26 -85q0 -58 -26 -86t-90 -28zM30 165l341 392v10h-326v173h598v-161l-342 -396v-10h362v-173h-633v165z" />
    <glyph glyph-name="Zdotaccent.sc" horiz-adv-x="648" 
d="M36 153l297 254v9h-287v161h553v-148l-301 -259v-8h317v-162h-579v153zM320 615q-60 0 -85.5 24.5t-25.5 80.5q0 54 25.5 79t85.5 25q61 0 85 -25.5t24 -78.5q0 -54 -24 -79.5t-85 -25.5z" />
    <glyph glyph-name="Zdotbelow" unicode="&#x1e92;" horiz-adv-x="690" 
d="M30 165l341 392v10h-326v173h598v-161l-342 -396v-10h362v-173h-633v165zM334 -220q-48 0 -68 19.5t-20 64.5t20 65t68 20q50 0 69.5 -20.5t19.5 -64.5q0 -43 -19.5 -63.5t-69.5 -20.5z" />
    <glyph glyph-name="Zdotbelow.sc" horiz-adv-x="648" 
d="M36 153l297 254v9h-287v161h553v-148l-301 -259v-8h317v-162h-579v153zM313 -181q-45 0 -63.5 18t-18.5 57q0 40 18.5 58t63.5 18q46 0 64 -19t18 -57t-18 -56.5t-64 -18.5z" />
    <glyph glyph-name="a" unicode="a" horiz-adv-x="621" 
d="M191 -5q-81 0 -123.5 43.5t-42.5 119.5q0 84 50.5 125t155.5 49l122 8q-1 16 -5.5 26.5t-15 17t-29 9.5t-46.5 3q-20 0 -43 -1.5t-47.5 -4t-48.5 -5.5t-45 -7l-14 149q60 11 119 16t110 5q146 0 216 -45.5t70 -142.5v-360h-180l-19 65h-10q-35 -37 -80.5 -53.5
t-93.5 -16.5zM289 141q19 0 38.5 6.5t26.5 14.5v71l-54 -5q-30 -3 -41.5 -12t-11.5 -32q0 -43 42 -43z" />
    <glyph glyph-name="aacute" unicode="&#xe1;" horiz-adv-x="621" 
d="M191 -5q-81 0 -123.5 43.5t-42.5 119.5q0 84 50.5 125t155.5 49l122 8q-1 16 -5.5 26.5t-15 17t-29 9.5t-46.5 3q-20 0 -43 -1.5t-47.5 -4t-48.5 -5.5t-45 -7l-14 149q60 11 119 16t110 5q146 0 216 -45.5t70 -142.5v-360h-180l-19 65h-10q-35 -37 -80.5 -53.5
t-93.5 -16.5zM289 141q19 0 38.5 6.5t26.5 14.5v71l-54 -5q-30 -3 -41.5 -12t-11.5 -32q0 -43 42 -43zM225 618l62 190h225l-130 -200z" />
    <glyph glyph-name="acute" unicode="&#xb4;" horiz-adv-x="320" 
d="M28 618l62 190h225l-130 -200z" />
    <glyph glyph-name="abreve" unicode="&#x103;" horiz-adv-x="621" 
d="M191 -5q-81 0 -123.5 43.5t-42.5 119.5q0 84 50.5 125t155.5 49l122 8q-1 16 -5.5 26.5t-15 17t-29 9.5t-46.5 3q-20 0 -43 -1.5t-47.5 -4t-48.5 -5.5t-45 -7l-14 149q60 11 119 16t110 5q146 0 216 -45.5t70 -142.5v-360h-180l-19 65h-10q-35 -37 -80.5 -53.5
t-93.5 -16.5zM289 141q19 0 38.5 6.5t26.5 14.5v71l-54 -5q-30 -3 -41.5 -12t-11.5 -32q0 -43 42 -43zM313 611q-67 0 -112.5 14t-73 39.5t-40 59.5t-13.5 75h143q0 -21 4.5 -36.5t15.5 -26.5t29.5 -16.5t46.5 -5.5t46.5 5.5t29.5 16.5t15.5 26.5t4.5 36.5h143
q-1 -42 -13.5 -76.5t-40 -59t-73 -38.5t-112.5 -14z" />
    <glyph glyph-name="breve" unicode="&#x2d8;" horiz-adv-x="533" 
d="M266 611q-67 0 -112.5 14t-73 39.5t-40 59.5t-13.5 75h143q0 -21 4.5 -36.5t15.5 -26.5t29.5 -16.5t46.5 -5.5t46.5 5.5t29.5 16.5t15.5 26.5t4.5 36.5h143q-1 -42 -13.5 -76.5t-40 -59t-73 -38.5t-112.5 -14z" />
    <glyph glyph-name="acircumflex" unicode="&#xe2;" horiz-adv-x="621" 
d="M191 -5q-81 0 -123.5 43.5t-42.5 119.5q0 84 50.5 125t155.5 49l122 8q-1 16 -5.5 26.5t-15 17t-29 9.5t-46.5 3q-20 0 -43 -1.5t-47.5 -4t-48.5 -5.5t-45 -7l-14 149q60 11 119 16t110 5q146 0 216 -45.5t70 -142.5v-360h-180l-19 65h-10q-35 -37 -80.5 -53.5
t-93.5 -16.5zM289 141q19 0 38.5 6.5t26.5 14.5v71l-54 -5q-30 -3 -41.5 -12t-11.5 -32q0 -43 42 -43zM99 741l217 80l221 -80v-142l-219 79l-219 -79v142z" />
    <glyph glyph-name="circumflex" unicode="&#x2c6;" horiz-adv-x="516" 
d="M35 741l217 80l221 -80v-142l-219 79l-219 -79v142z" />
    <glyph glyph-name="adblgrave" unicode="&#x201;" horiz-adv-x="621" 
d="M191 -5q-81 0 -123.5 43.5t-42.5 119.5q0 84 50.5 125t155.5 49l122 8q-1 16 -5.5 26.5t-15 17t-29 9.5t-46.5 3q-20 0 -43 -1.5t-47.5 -4t-48.5 -5.5t-45 -7l-14 149q60 11 119 16t110 5q146 0 216 -45.5t70 -142.5v-360h-180l-19 65h-10q-35 -37 -80.5 -53.5
t-93.5 -16.5zM289 141q19 0 38.5 6.5t26.5 14.5v71l-54 -5q-30 -3 -41.5 -12t-11.5 -32q0 -43 42 -43zM137 608l-131 200h213l62 -190zM376 608l-131 200h212l63 -190z" />
    <glyph glyph-name="uni030F" unicode="&#x30f;" horiz-adv-x="554" 
d="M135 608l-131 200h213l62 -190zM374 608l-131 200h212l63 -190z" />
    <glyph glyph-name="adieresis" unicode="&#xe4;" horiz-adv-x="621" 
d="M191 -5q-81 0 -123.5 43.5t-42.5 119.5q0 84 50.5 125t155.5 49l122 8q-1 16 -5.5 26.5t-15 17t-29 9.5t-46.5 3q-20 0 -43 -1.5t-47.5 -4t-48.5 -5.5t-45 -7l-14 149q60 11 119 16t110 5q146 0 216 -45.5t70 -142.5v-360h-180l-19 65h-10q-35 -37 -80.5 -53.5
t-93.5 -16.5zM289 141q19 0 38.5 6.5t26.5 14.5v71l-54 -5q-30 -3 -41.5 -12t-11.5 -32q0 -43 42 -43zM175 607q-57 0 -81 24t-24 78t24 77.5t81 23.5t81 -25t24 -76q0 -54 -24 -78t-81 -24zM459 607q-57 0 -81 24t-24 78t24 77.5t81 23.5t80.5 -25t23.5 -76
q0 -54 -23.5 -78t-80.5 -24z" />
    <glyph glyph-name="dieresis" unicode="&#xa8;" horiz-adv-x="575" 
d="M144 607q-57 0 -81 24t-24 78t24 77.5t81 23.5t81 -25t24 -76q0 -54 -24 -78t-81 -24zM428 607q-57 0 -81 24t-24 78t24 77.5t81 23.5t80.5 -25t23.5 -76q0 -54 -23.5 -78t-80.5 -24z" />
    <glyph glyph-name="ae" unicode="&#xe6;" horiz-adv-x="952" 
d="M659 -14q-78 0 -132 20.5t-87 64.5h-10q-116 -76 -243 -76q-77 0 -119.5 44t-42.5 122q0 159 207 171l123 8v7q0 16 -5.5 25.5t-18.5 14.5t-35.5 7t-56.5 2q-32 0 -78.5 -5t-86.5 -13l-14 149q61 11 119.5 16t118.5 5q119 0 180 -47h10q34 21 77 32t98 11q259 0 259 -241
q0 -29 -2.5 -51t-8.5 -41h-333q2 -20 8 -32.5t17.5 -19t29.5 -8.5t44 -2q25 0 54.5 1.5t59 4.5t57 6.5t47.5 8.5l5 -153q-53 -15 -116 -23t-125 -8zM291 141q17 0 36.5 6.5t27.5 14.5v71l-54 -5q-31 -3 -42 -13t-11 -30q0 -23 10 -33.5t33 -10.5zM730 316q-2 43 -19 60.5
t-59 17.5q-38 0 -55 -16.5t-20 -61.5h153z" />
    <glyph glyph-name="aeacute" unicode="&#x1fd;" horiz-adv-x="952" 
d="M400 618l62 190h225l-130 -200zM659 -14q-78 0 -132 20.5t-87 64.5h-10q-116 -76 -243 -76q-77 0 -119.5 44t-42.5 122q0 159 207 171l123 8v7q0 16 -5.5 25.5t-18.5 14.5t-35.5 7t-56.5 2q-32 0 -78.5 -5t-86.5 -13l-14 149q61 11 119.5 16t118.5 5q119 0 180 -47h10
q34 21 77 32t98 11q259 0 259 -241q0 -29 -2.5 -51t-8.5 -41h-333q2 -20 8 -32.5t17.5 -19t29.5 -8.5t44 -2q25 0 54.5 1.5t59 4.5t57 6.5t47.5 8.5l5 -153q-53 -15 -116 -23t-125 -8zM291 141q17 0 36.5 6.5t27.5 14.5v71l-54 -5q-31 -3 -42 -13t-11 -30q0 -23 10 -33.5
t33 -10.5zM730 316q-2 43 -19 60.5t-59 17.5q-38 0 -55 -16.5t-20 -61.5h153z" />
    <glyph glyph-name="agrave" unicode="&#xe0;" horiz-adv-x="621" 
d="M191 -5q-81 0 -123.5 43.5t-42.5 119.5q0 84 50.5 125t155.5 49l122 8q-1 16 -5.5 26.5t-15 17t-29 9.5t-46.5 3q-20 0 -43 -1.5t-47.5 -4t-48.5 -5.5t-45 -7l-14 149q60 11 119 16t110 5q146 0 216 -45.5t70 -142.5v-360h-180l-19 65h-10q-35 -37 -80.5 -53.5
t-93.5 -16.5zM289 141q19 0 38.5 6.5t26.5 14.5v71l-54 -5q-30 -3 -41.5 -12t-11.5 -32q0 -43 42 -43zM244 608l-131 200h226l62 -190z" />
    <glyph glyph-name="grave" unicode="`" horiz-adv-x="328" 
d="M135 608l-131 200h226l62 -190z" />
    <glyph glyph-name="ainvertedbreve" unicode="&#x203;" horiz-adv-x="621" 
d="M191 -5q-81 0 -123.5 43.5t-42.5 119.5q0 84 50.5 125t155.5 49l122 8q-1 16 -5.5 26.5t-15 17t-29 9.5t-46.5 3q-20 0 -43 -1.5t-47.5 -4t-48.5 -5.5t-45 -7l-14 149q60 11 119 16t110 5q146 0 216 -45.5t70 -142.5v-360h-180l-19 65h-10q-35 -37 -80.5 -53.5
t-93.5 -16.5zM289 141q19 0 38.5 6.5t26.5 14.5v71l-54 -5q-30 -3 -41.5 -12t-11.5 -32q0 -43 42 -43zM77 621q1 40 13 74.5t40 59.5t73.5 39.5t112.5 14.5t112.5 -14t73 -39t40 -59.5t13.5 -75.5h-144q0 42 -19.5 63t-75.5 21t-75.5 -21t-20.5 -63h-143z" />
    <glyph glyph-name="uni0311" unicode="&#x311;" horiz-adv-x="533" 
d="M25 621q1 40 13 74.5t40 59.5t73.5 39.5t112.5 14.5t112.5 -14t73 -39t40 -59.5t13.5 -75.5h-144q0 42 -19.5 63t-75.5 21t-75.5 -21t-20.5 -63h-143v0z" />
    <glyph glyph-name="amacron" unicode="&#x101;" horiz-adv-x="621" 
d="M191 -5q-81 0 -123.5 43.5t-42.5 119.5q0 84 50.5 125t155.5 49l122 8q-1 16 -5.5 26.5t-15 17t-29 9.5t-46.5 3q-20 0 -43 -1.5t-47.5 -4t-48.5 -5.5t-45 -7l-14 149q60 11 119 16t110 5q146 0 216 -45.5t70 -142.5v-360h-180l-19 65h-10q-35 -37 -80.5 -53.5
t-93.5 -16.5zM289 141q19 0 38.5 6.5t26.5 14.5v71l-54 -5q-30 -3 -41.5 -12t-11.5 -32q0 -43 42 -43zM98 776h435v-139h-435v139z" />
    <glyph glyph-name="macron" unicode="&#xaf;" horiz-adv-x="543" 
d="M49 776h435v-139h-435v139z" />
    <glyph glyph-name="ampersand" unicode="&#x26;" horiz-adv-x="825" 
d="M367 -9q-76 0 -137 15t-104 43t-66.5 68t-23.5 89q0 70 40.5 121t111.5 69q-48 44 -68 82t-20 78q0 45 21 81.5t60 62t95 39t125 13.5q51 0 106.5 -7t112.5 -21l3 -5l-21 -146h-9q-41 13 -87 20.5t-81 7.5q-51 0 -74.5 -15t-23.5 -48q0 -62 184 -161l38 -21v79l198 7v-98
q0 -48 -9 -90l95 -51v-13l-79 -155h-10l-93 56q-50 -48 -121.5 -74t-162.5 -26zM427 228q-31 18 -58 35t-51 34q-54 -20 -54 -78q0 -36 32.5 -58.5t86.5 -22.5q79 0 120 44z" />
    <glyph glyph-name="ampersand.sc" horiz-adv-x="767" 
d="M339 -6q-70 0 -127 12t-97 33.5t-61.5 52.5t-21.5 69q0 56 38 96t103 52q-45 36 -64 65.5t-19 58.5q0 34 19.5 62.5t56 48.5t88.5 31t116 11q47 0 97.5 -5t104.5 -14l3 -5l-19 -136h-9q-37 9 -79.5 15t-74.5 6q-45 0 -66 -7t-21 -24q0 -32 167 -105l28 -13v55h189v-84
q0 -30 -6 -57l86 -40v-12l-74 -145h-10l-94 50q-46 -35 -109.5 -53t-143.5 -18zM354 129q53 0 89 17l-50 28q-27 15 -48 26.5t-41 23.5q-25 -7 -39.5 -19t-14.5 -32q0 -19 28.5 -31.5t75.5 -12.5z" />
    <glyph glyph-name="aogonek" unicode="&#x105;" horiz-adv-x="622" 
d="M479 -220q-78 0 -121 25.5t-43 72.5q0 32 21.5 65.5t58.5 56.5l-19 65h-10q-35 -37 -80.5 -53.5t-93.5 -16.5q-81 0 -123.5 43.5t-42.5 119.5q0 84 50.5 125t155.5 49l122 8q-1 16 -5.5 26.5t-15 17t-29 9.5t-46.5 3q-20 0 -43 -1.5t-47.5 -4t-48.5 -5.5t-45 -7l-14 149
q60 11 119 16t110 5q146 0 216 -45.5t70 -142.5v-365q-35 -14 -58.5 -25t-37.5 -21t-20 -19t-6 -18q0 -19 29 -19q14 0 42 5t53 11v-117q-23 -6 -47 -9t-51 -3zM290 141q19 0 38.5 6.5t26.5 14.5v71l-54 -5q-30 -3 -41.5 -12t-11.5 -32q0 -43 42 -43z" />
    <glyph glyph-name="apostrophe" unicode="&#x2bc;" horiz-adv-x="250" 
d="M219 808v-4l-51 -224h-119v228h170z" />
    <glyph glyph-name="approxequal" unicode="&#x2248;" horiz-adv-x="550" 
d="M54 487q32 14 65 28.5t72 14.5q24 0 45.5 -6t42.5 -13t42 -13t45 -6q39 0 70.5 10t62.5 26v-121q-28 -17 -61 -32t-72 -15q-24 0 -45 6t-42 13t-42.5 13t-45.5 6q-39 0 -72 -9.5t-65 -25.5v124zM54 295q32 14 65 28.5t72 14.5q24 0 45.5 -6t42.5 -13t42 -13t45 -6
q39 0 70.5 10t62.5 26v-121q-28 -17 -61 -32t-72 -15q-24 0 -45 6t-42 13t-42.5 13t-45.5 6q-39 0 -72 -9.5t-65 -25.5v124z" />
    <glyph glyph-name="aring" unicode="&#xe5;" horiz-adv-x="621" 
d="M191 -5q-81 0 -123.5 43.5t-42.5 119.5q0 84 50.5 125t155.5 49l122 8q-1 16 -5.5 26.5t-15 17t-29 9.5t-46.5 3q-20 0 -43 -1.5t-47.5 -4t-48.5 -5.5t-45 -7l-14 149q60 11 119 16t110 5q146 0 216 -45.5t70 -142.5v-360h-180l-19 65h-10q-35 -37 -80.5 -53.5
t-93.5 -16.5zM289 141q19 0 38.5 6.5t26.5 14.5v71l-54 -5q-30 -3 -41.5 -12t-11.5 -32q0 -43 42 -43zM311 582q-31 0 -57 8.5t-45 24t-30 37t-11 47.5q0 54 40.5 86.5t102.5 32.5q63 0 103 -32.5t40 -86.5q0 -53 -40 -85t-103 -32zM311 651q33 0 46 12t13 36q0 26 -13 38
t-46 12t-46 -12t-13 -38q0 -24 13.5 -36t45.5 -12z" />
    <glyph glyph-name="ring" unicode="&#x2da;" horiz-adv-x="349" 
d="M172 582q-31 0 -57 8.5t-45 24t-30 37t-11 47.5q0 54 40.5 86.5t102.5 32.5q63 0 103 -32.5t40 -86.5q0 -53 -40 -85t-103 -32zM172 651q33 0 46 12t13 36q0 26 -13 38t-46 12t-46 -12t-13 -38q0 -24 13.5 -36t45.5 -12z" />
    <glyph glyph-name="aringacute" unicode="&#x1fb;" horiz-adv-x="621" 
d="M191 -5q-81 0 -123.5 43.5t-42.5 119.5q0 84 50.5 125t155.5 49l122 8q-1 16 -5.5 26.5t-15 17t-29 9.5t-46.5 3q-20 0 -43 -1.5t-47.5 -4t-48.5 -5.5t-45 -7l-14 149q60 11 119 16t110 5q146 0 216 -45.5t70 -142.5v-360h-180l-19 65h-10q-35 -37 -80.5 -53.5
t-93.5 -16.5zM312 582q-31 0 -57 8.5t-45 24t-30 37t-11 47.5q0 43 27 73t71 41l55 167h225l-129 -198q17 -16 27 -37t10 -46q0 -53 -40 -85t-103 -32zM312 651q33 0 46 12t13 36q0 26 -13 38t-46 12t-46 -12t-13 -38q0 -24 13.5 -36t45.5 -12zM289 141q19 0 38.5 6.5
t26.5 14.5v71l-54 -5q-30 -3 -41.5 -12t-11.5 -32q0 -43 42 -43z" />
    <glyph glyph-name="arrowdown" unicode="&#x2193;" horiz-adv-x="711" 
d="M21 393l115 115l136 -159v378h168v-378l136 159l115 -115l-303 -304h-64z" />
    <glyph glyph-name="arrowleft" unicode="&#x2190;" horiz-adv-x="695" 
d="M24 377v64l304 303l115 -115l-159 -136h378v-168h-378l159 -136l-115 -115z" />
    <glyph glyph-name="arrowright" unicode="&#x2192;" horiz-adv-x="695" 
d="M252 189l158 136h-377v168h377l-158 136l115 115l304 -303v-64l-304 -303z" />
    <glyph glyph-name="arrowup" unicode="&#x2191;" horiz-adv-x="710" 
d="M271 466l-136 -158l-115 115l303 304h64l303 -304l-115 -115l-136 158v-377h-168v377z" />
    <glyph glyph-name="asciicircum" unicode="^" horiz-adv-x="565" 
d="M182 789h202l155 -308h-153l-101 184h-4l-101 -184h-154z" />
    <glyph glyph-name="asciitilde" unicode="~" horiz-adv-x="719" 
d="M25 260q37 45 65 74.5t52 46.5t46.5 24t48.5 7q35 0 64 -11.5t55.5 -26t51.5 -26t52 -11.5q33 0 61.5 19.5t57.5 59.5l116 -69q-18 -26 -39.5 -56.5t-47 -57t-57 -44.5t-68.5 -18q-35 0 -64 12t-55.5 26t-51.5 26t-52 12q-32 0 -61 -20t-58 -59z" />
    <glyph glyph-name="asterisk" unicode="*" horiz-adv-x="504" 
d="M74 477l43 59l86 67l-109 4l-68 23l36 112l69 -22l92 -62l-30 108v72h118v-72l-31 -107l92 61l69 22l36 -112l-68 -23l-109 -4l86 -67l43 -59l-96 -69l-43 58l-39 106l-38 -106l-43 -58z" />
    <glyph glyph-name="at" unicode="@" horiz-adv-x="892" 
d="M435 -131q-89 0 -162.5 25t-127 74.5t-83 122t-29.5 168.5q0 97 30 173t86 129t134.5 81t176.5 28q96 0 169.5 -25t123 -72t75 -115t25.5 -154q0 -121 -54 -186.5t-157 -65.5q-32 0 -53 10.5t-34 24t-18.5 27t-6.5 19.5h-5q-23 -37 -67 -57t-94 -20q-63 0 -101 46
t-38 132q0 56 17.5 103t49.5 81t78 53t103 19q40 0 85 -11t87 -28l-41 -205q0 -10 -2.5 -19.5t-2.5 -18.5q0 -22 11 -35.5t39 -13.5q36 0 57 37.5t21 107.5q0 118 -67 182t-200 64q-69 0 -124.5 -19.5t-94.5 -56.5t-60 -91.5t-21 -123.5q0 -68 20 -118.5t56.5 -84.5t87 -51
t111.5 -17q38 0 90 10t115 28l33 -115q-70 -20 -130.5 -31t-107.5 -11zM397 161q35 1 62 27t37 77l23 118q-11 3 -21.5 4t-21.5 1q-27 0 -50 -12t-39.5 -32.5t-26 -48.5t-9.5 -61q0 -35 11 -54t35 -19z" />
    <glyph glyph-name="atilde" unicode="&#xe3;" horiz-adv-x="621" 
d="M191 -5q-81 0 -123.5 43.5t-42.5 119.5q0 84 50.5 125t155.5 49l122 8q-1 16 -5.5 26.5t-15 17t-29 9.5t-46.5 3q-20 0 -43 -1.5t-47.5 -4t-48.5 -5.5t-45 -7l-14 149q60 11 119 16t110 5q146 0 216 -45.5t70 -142.5v-360h-180l-19 65h-10q-35 -37 -80.5 -53.5
t-93.5 -16.5zM289 141q19 0 38.5 6.5t26.5 14.5v71l-54 -5q-30 -3 -41.5 -12t-11.5 -32q0 -43 42 -43zM66 660q36 72 84 107t92 35q27 0 53.5 -6.5t53 -14t53 -14t53.5 -6.5q22 0 43.5 7t51.5 30l26 -38q-38 -72 -85.5 -107t-90.5 -35q-27 0 -53.5 6.5t-53 14t-53 14
t-53.5 6.5q-23 0 -45 -7t-50 -30z" />
    <glyph glyph-name="tilde" unicode="&#x2dc;" horiz-adv-x="541" 
d="M15 660q36 72 84 107t92 35q27 0 53.5 -6.5t53 -14t53 -14t53.5 -6.5q22 0 43.5 7t51.5 30l26 -38q-38 -72 -85.5 -107t-90.5 -35q-27 0 -53.5 6.5t-53 14t-53 14t-53.5 6.5q-23 0 -45 -7t-50 -30z" />
    <glyph glyph-name="b" unicode="b" horiz-adv-x="692" 
d="M342 -11q-26 0 -52 1t-59.5 5t-77 11.5t-102.5 19.5v782h220v-323q27 33 68 48.5t93 15.5q231 0 231 -264q0 -144 -84.5 -219.5t-236.5 -76.5zM339 134q33 0 53.5 5t31.5 19.5t14.5 40.5t3.5 69q0 36 -3 59.5t-12 36.5t-24.5 18t-40.5 5q-50 0 -70.5 -23t-20.5 -82v-140
q12 -4 28.5 -6t39.5 -2z" />
    <glyph glyph-name="backslash" unicode="\" horiz-adv-x="474" 
d="M20 740h189l245 -860h-188z" />
    <glyph glyph-name="bar" unicode="|" horiz-adv-x="347" 
d="M276 808v-1028h-205v1028h205z" />
    <glyph glyph-name="bar.tab" horiz-adv-x="326" 
d="M265 808v-1028h-204v1028h204z" />
    <glyph glyph-name="braceleft" unicode="{" horiz-adv-x="347" 
d="M25 435q35 0 46 20.5t11 61.5v224q0 69 28 98t88 29q9 0 27 -0.5t36 -1.5t33 -1.5t20 -1.5v-133h-14q-24 0 -34.5 -10t-10.5 -32v-216q0 -47 -23 -79t-61 -39q38 -5 61 -36t23 -78v-220q0 -22 10.5 -32t34.5 -10h14v-133q-5 -1 -20 -2t-33 -1.5l-36 -1t-27 -0.5
q-60 0 -88 29t-28 98v227q0 41 -11 61t-46 20v160z" />
    <glyph glyph-name="braceleft.sc" horiz-adv-x="339" 
d="M33 351q32 0 41 14.5t9 43.5v168q0 54 25.5 77t79.5 23q8 0 24 -0.5t32.5 -1t30.5 -1t18 -1.5v-125h-9q-37 0 -37 -31v-151q0 -37 -21.5 -61t-55.5 -29q34 -4 55.5 -27.5t21.5 -60.5v-152q0 -33 37 -33h9v-125q-4 0 -18 -1t-30.5 -1.5t-32.5 -1t-24 -0.5q-54 0 -79.5 23
t-25.5 78v170q0 29 -9 43t-41 14v149z" />
    <glyph glyph-name="braceright" unicode="}" horiz-adv-x="347" 
d="M322 275q-35 0 -46 -20t-11 -61v-227q0 -69 -28 -98t-88 -29q-9 0 -27 0.5l-36 1t-33.5 1.5t-19.5 2v133h14q24 0 34.5 10t10.5 32v220q0 47 23 78t61 36q-38 7 -61 39t-23 79v216q0 22 -10.5 32t-34.5 10h-14v133q4 1 19.5 1.5t33.5 1.5t36 1.5t27 0.5q60 0 88 -29
t28 -98v-224q0 -41 11 -61.5t46 -20.5v-160z" />
    <glyph glyph-name="braceright.sc" horiz-adv-x="338" 
d="M306 202q-32 0 -41 -14t-9 -43v-170q0 -55 -25 -78t-79 -23q-9 0 -25 0.5t-32.5 1t-30.5 1.5t-18 1v125h9q37 0 37 33v152q0 37 21 60.5t55 27.5q-34 5 -55 29t-21 61v151q0 31 -37 31h-9v125q4 1 18 1.5t30.5 1t32.5 1t25 0.5q54 0 79 -23t25 -77v-168q0 -29 9 -43.5
t41 -14.5v-149z" />
    <glyph glyph-name="bracketleft" unicode="[" horiz-adv-x="395" 
d="M71 868h302v-138h-135v-752h135v-138h-302v1028z" />
    <glyph glyph-name="bracketleft.sc" horiz-adv-x="391" 
d="M77 677h280v-129h-122v-544h122v-129h-280v802z" />
    <glyph glyph-name="bracketright" unicode="]" horiz-adv-x="395" 
d="M22 -160v138h136v752h-136v138h303v-1028h-303z" />
    <glyph glyph-name="bracketright.sc" horiz-adv-x="391" 
d="M35 -125v129h122v544h-122v129h280v-802h-280z" />
    <glyph glyph-name="brokenbar" unicode="&#xa6;" horiz-adv-x="349" 
d="M72 205h205v-425h-205v425zM72 808h205v-425h-205v425z" />
    <glyph glyph-name="bullet" unicode="&#x2022;" horiz-adv-x="397" 
d="M198 231q-66 0 -105 36t-39 103q0 68 39 104t105 36q67 0 106 -36t39 -104q0 -67 -39 -103t-106 -36z" />
    <glyph glyph-name="c" unicode="c" horiz-adv-x="545" 
d="M318 -9q-146 0 -217.5 68.5t-71.5 210.5t71.5 210.5t217.5 68.5q53 0 102.5 -5t86.5 -13v-170q-47 5 -88 8t-79 3q-53 0 -73.5 -21.5t-20.5 -78.5q0 -58 20.5 -81t71.5 -23q53 0 91.5 2.5t77.5 8.5v-169q-37 -9 -86.5 -14t-102.5 -5z" />
    <glyph glyph-name="cacute" unicode="&#x107;" horiz-adv-x="545" 
d="M228 618l62 190h225l-130 -200zM318 -9q-146 0 -217.5 68.5t-71.5 210.5t71.5 210.5t217.5 68.5q53 0 102.5 -5t86.5 -13v-170q-47 5 -88 8t-79 3q-53 0 -73.5 -21.5t-20.5 -78.5q0 -58 20.5 -81t71.5 -23q53 0 91.5 2.5t77.5 8.5v-169q-37 -9 -86.5 -14t-102.5 -5z" />
    <glyph glyph-name="caron" unicode="&#x2c7;" horiz-adv-x="504" 
d="M30 821l219 -80l219 80v-143l-221 -79l-217 79v143z" />
    <glyph glyph-name="ccaron" unicode="&#x10d;" horiz-adv-x="545" 
d="M79 821l219 -80l219 80v-143l-221 -79l-217 79v143zM318 -9q-146 0 -217.5 68.5t-71.5 210.5t71.5 210.5t217.5 68.5q53 0 102.5 -5t86.5 -13v-170q-47 5 -88 8t-79 3q-53 0 -73.5 -21.5t-20.5 -78.5q0 -58 20.5 -81t71.5 -23q53 0 91.5 2.5t77.5 8.5v-169
q-37 -9 -86.5 -14t-102.5 -5z" />
    <glyph glyph-name="ccedilla" unicode="&#xe7;" horiz-adv-x="545" 
d="M294 -220q-24 0 -53.5 3.5t-60.5 8.5v123q22 -5 45.5 -8t39.5 -3q17 0 22 5t5 12q0 11 -9 30t-27 44q-227 27 -227 275q0 142 71.5 210.5t217.5 68.5q53 0 102.5 -5t86.5 -13v-170q-47 5 -88 8t-79 3q-53 0 -73.5 -21.5t-20.5 -78.5q0 -58 20.5 -81t71.5 -23
q53 0 91.5 2.5t77.5 8.5v-169q-51 -12 -120 -17q24 -31 33.5 -53.5t9.5 -48.5q0 -53 -36.5 -82t-99.5 -29z" />
    <glyph glyph-name="ccircumflex" unicode="&#x109;" horiz-adv-x="545" 
d="M88 741l217 80l221 -80v-142l-219 79l-219 -79v142zM318 -9q-146 0 -217.5 68.5t-71.5 210.5t71.5 210.5t217.5 68.5q53 0 102.5 -5t86.5 -13v-170q-47 5 -88 8t-79 3q-53 0 -73.5 -21.5t-20.5 -78.5q0 -58 20.5 -81t71.5 -23q53 0 91.5 2.5t77.5 8.5v-169
q-37 -9 -86.5 -14t-102.5 -5z" />
    <glyph glyph-name="cdotaccent" unicode="&#x10b;" horiz-adv-x="545" 
d="M318 -9q-146 0 -217.5 68.5t-71.5 210.5t71.5 210.5t217.5 68.5q53 0 102.5 -5t86.5 -13v-170q-47 5 -88 8t-79 3q-53 0 -73.5 -21.5t-20.5 -78.5q0 -58 20.5 -81t71.5 -23q53 0 91.5 2.5t77.5 8.5v-169q-37 -9 -86.5 -14t-102.5 -5zM298 595q-63 0 -90 27t-27 87
t27 86.5t90 26.5q64 0 90.5 -28t26.5 -85q0 -58 -26.5 -86t-90.5 -28z" />
    <glyph glyph-name="dotaccent" unicode="&#x2d9;" horiz-adv-x="317" 
d="M157 595q-63 0 -90 27t-27 87t27 86.5t90 26.5q64 0 90.5 -28t26.5 -85q0 -58 -26.5 -86t-90.5 -28z" />
    <glyph glyph-name="cent" unicode="&#xa2;" horiz-adv-x="553" 
d="M268 -7q-240 21 -240 277q0 255 240 277v113h131v-114q30 -2 57 -6t50 -9v-170q-47 5 -88 8t-79 3q-53 0 -73.5 -21.5t-20.5 -78.5q0 -58 20.5 -81t71.5 -23q53 0 91.5 2.5t77.5 8.5v-169q-23 -5 -50 -9.5t-57 -6.5v-114h-131v113z" />
    <glyph glyph-name="cent.tab" 
d="M318 -6q-264 21 -264 276t264 276v114h137v-114q33 -2 63 -6t55 -9v-170q-49 5 -93.5 8t-85.5 3q-32 0 -54 -5t-35.5 -16.5t-19.5 -31t-6 -47.5q0 -58 25.5 -81t87.5 -23q56 0 97.5 2.5t83.5 8.5v-169q-24 -6 -54.5 -10t-63.5 -6v-114h-137v114z" />
    <glyph glyph-name="colon" unicode=":" horiz-adv-x="322" 
d="M161 -10q-56 0 -88 27t-32 85t32 84.5t88 26.5t88 -26.5t32 -84.5t-32 -85t-88 -27zM161 328q-56 0 -88 27t-32 85t32 84.5t88 26.5t88 -26.5t32 -84.5t-32 -85t-88 -27z" />
    <glyph glyph-name="period" unicode="." horiz-adv-x="302" 
d="M151 -10q-56 0 -88 27t-32 85t32 84.5t88 26.5t88 -26.5t32 -84.5t-32 -85t-88 -27z" />
    <glyph glyph-name="colon.tab" horiz-adv-x="326" 
d="M163 -10q-55 0 -86.5 27t-31.5 85t31.5 84.5t86.5 26.5t86.5 -26.5t31.5 -84.5t-31.5 -85t-86.5 -27zM163 328q-55 0 -86.5 26.5t-31.5 84.5q0 59 31.5 85t86.5 26t86.5 -26t31.5 -85q0 -58 -31.5 -84.5t-86.5 -26.5z" />
    <glyph glyph-name="colonmonetary" unicode="&#x20a1;" horiz-adv-x="631" 
d="M428 -14q-36 0 -67 3l-11 -42h-121l17 64q-212 71 -212 358q0 197 93.5 291t282.5 94q8 0 17 -0.5t18 -0.5l15 55h120l-18 -66l26 -3v-177l-72 6l-107 -399h28q17 0 38 1t42 3t39.5 4t31.5 5v-178q-37 -8 -78 -13t-82 -5zM266 369q0 -63 7 -101.5t26 -60.5l97 364
q-40 -3 -65 -13.5t-39.5 -33.5t-20 -60.5t-5.5 -94.5z" />
    <glyph glyph-name="comma" unicode="," horiz-adv-x="314" 
d="M19 -145l42 354h220l-99 -364z" />
    <glyph glyph-name="comma.tab" horiz-adv-x="326" 
d="M24 -145l43 354h221l-100 -364z" />
    <glyph glyph-name="copyright" unicode="&#xa9;" horiz-adv-x="808" 
d="M419 164q-190 0 -190 205t190 205q24 0 49.5 -3t43.5 -8v-103q-27 5 -46.5 7t-31.5 2q-25 0 -40.5 -5.5t-24 -17.5t-11.5 -31t-3 -45q0 -53 14.5 -77t62.5 -24q11 0 32 2t48 7v-103q-18 -5 -43.5 -8t-49.5 -3zM404 -10q-84 0 -152.5 27.5t-116.5 77.5t-74.5 120
t-26.5 155t26.5 155t74.5 120t116.5 77.5t152.5 27.5t152.5 -27.5t116.5 -77.5t74.5 -120t26.5 -155t-26.5 -155t-74.5 -120t-116.5 -77.5t-152.5 -27.5zM404 88q63 0 112 20t82.5 57t51.5 89t18 116t-18 116t-51.5 89t-82.5 57t-112 20t-112.5 -20t-83 -57t-51.5 -89
t-18 -116t18 -116t51.5 -89t83 -57t112.5 -20z" />
    <glyph glyph-name="currency" unicode="&#xa4;" horiz-adv-x="648" 
d="M41 163l55 54l38 28q-28 23 -43 55t-15 70t15 69.5t44 55.5l-39 28l-55 54l75 76l55 -55l44 -62q24 8 51 12t58 4q30 0 57 -4t51 -12l45 62l54 55l76 -76l-55 -54l-40 -29q59 -48 59 -124q0 -38 -15 -70t-43 -55l39 -28l55 -54l-76 -76l-54 55l-43 61q-48 -16 -110 -16
t-111 15l-42 -60l-55 -55zM204 370q0 -39 32.5 -59.5t87.5 -20.5t87 20t32 60q0 42 -33 60.5t-86 18.5q-55 0 -87.5 -19.5t-32.5 -59.5z" />
    <glyph glyph-name="currency.ss01" horiz-adv-x="749" 
d="M397 -10h-33t-33 1v-141h-160v148q-24 2 -48 3.5t-50 3.5v730q26 2 50 4l48 4v147h160v-140h35q11 0 21.5 -0.5t21.5 -0.5v141h160v-166q140 -46 140 -187q0 -120 -128 -154v-4q74 -14 112.5 -58.5t38.5 -115.5q0 -78 -39.5 -126.5t-123.5 -70.5v-158h-160v140h-12z
M394 146q59 0 86.5 19.5t27.5 61.5t-25.5 58.5t-89.5 16.5h-106v-152q6 -1 12.5 -2t17.5 -1.5t29 -0.5h48zM377 445q61 0 85 17t24 59q0 40 -24 57t-83 17q-53 0 -92 -6v-144h90z" />
    <glyph glyph-name="d" unicode="d" horiz-adv-x="694" 
d="M260 -11q-231 0 -231 265q0 73 22.5 128.5t64 92.5t101 56t133.5 19q18 0 35.5 -1t35.5 -3v262h220v-808h-193l-17 67h-8q-27 -41 -66.5 -59.5t-96.5 -18.5zM330 148q49 0 70 23.5t21 84.5v136q-16 4 -35 6.5t-42 2.5q-30 0 -48.5 -4.5t-28.5 -18.5t-13.5 -39.5
t-3.5 -67.5q0 -37 3 -61t12 -37.5t24.5 -19t40.5 -5.5z" />
    <glyph glyph-name="dagger" unicode="&#x2020;" horiz-adv-x="644" 
d="M230 265v80l39 139l-196 -22h-47v151h47l196 -22l-39 138v79h184v-79l-38 -138l195 22h47v-151h-47l-195 22l38 -139v-80l-38 -200h-107z" />
    <glyph glyph-name="daggerdbl" unicode="&#x2021;" horiz-adv-x="671" 
d="M243 -119l39 139l-193 -22h-50v151h50l193 -22l-39 139v79l39 139l-193 -22h-50v151h50l193 -22l-39 138v79h184v-79l-38 -138l193 22h49v-151h-49l-193 22l38 -139v-79l-38 -139l193 22h49v-151h-49l-193 22l38 -139v-79h-184v79z" />
    <glyph glyph-name="dcaron" unicode="&#x10f;" horiz-adv-x="694" 
d="M685 808h170l-51 -228h-119v228zM260 -11q-231 0 -231 265q0 73 22.5 128.5t64 92.5t101 56t133.5 19q18 0 35.5 -1t35.5 -3v262h220v-808h-193l-17 67h-8q-27 -41 -66.5 -59.5t-96.5 -18.5zM330 148q49 0 70 23.5t21 84.5v136q-16 4 -35 6.5t-42 2.5q-30 0 -48.5 -4.5
t-28.5 -18.5t-13.5 -39.5t-3.5 -67.5q0 -37 3 -61t12 -37.5t24.5 -19t40.5 -5.5z" />
    <glyph glyph-name="dcroat" unicode="&#x111;" horiz-adv-x="694" 
d="M262 735h159v73h220v-73h70v-122h-70v-613h-193l-17 67h-8q-27 -41 -66.5 -59.5t-96.5 -18.5q-231 0 -231 265q0 73 22.5 128.5t64 92.5t101 56t133.5 19q18 0 35.5 -1t35.5 -3v67h-159v122zM330 148q49 0 70 23.5t21 84.5v136q-16 4 -35 6.5t-42 2.5q-30 0 -48.5 -4.5
t-28.5 -18.5t-13.5 -39.5t-3.5 -67.5q0 -37 3 -61t12 -37.5t24.5 -19t40.5 -5.5z" />
    <glyph glyph-name="ddotbelow" unicode="&#x1e0d;" horiz-adv-x="694" 
d="M356 -220q-48 0 -68 19.5t-20 64.5t20 65t68 20q50 0 69.5 -20.5t19.5 -64.5q0 -43 -19.5 -63.5t-69.5 -20.5zM260 -11q-231 0 -231 265q0 73 22.5 128.5t64 92.5t101 56t133.5 19q18 0 35.5 -1t35.5 -3v262h220v-808h-193l-17 67h-8q-27 -41 -66.5 -59.5t-96.5 -18.5z
M330 148q49 0 70 23.5t21 84.5v136q-16 4 -35 6.5t-42 2.5q-30 0 -48.5 -4.5t-28.5 -18.5t-13.5 -39.5t-3.5 -67.5q0 -37 3 -61t12 -37.5t24.5 -19t40.5 -5.5z" />
    <glyph glyph-name="degree" unicode="&#xb0;" horiz-adv-x="499" 
d="M250 371q-50 0 -92 14t-72 39t-46.5 60t-16.5 76t16.5 76t46.5 60.5t72 39.5t92 14t91.5 -14t71.5 -39.5t46.5 -60.5t16.5 -76t-16.5 -76t-46.5 -60t-71.5 -39t-91.5 -14zM250 480q49 0 72 21t23 59t-23 59.5t-72 21.5q-50 0 -73.5 -21.5t-23.5 -59.5t23.5 -59t73.5 -21z
" />
    <glyph glyph-name="degree.tab" 
d="M327 371q-55 0 -101 14t-79.5 39t-52 60t-18.5 76t18.5 76t52 60.5t79.5 39.5t101 14t101 -14t79 -39.5t51.5 -60.5t18.5 -76t-18.5 -76t-51.5 -60t-79 -39t-101 -14zM327 480q56 0 83.5 21t27.5 59t-27.5 59.5t-83.5 21.5t-84 -21.5t-28 -59.5t28 -59t84 -21z" />
    <glyph glyph-name="divide" unicode="&#xf7;" horiz-adv-x="533" 
d="M268 91q-37 0 -60.5 21t-23.5 65q0 42 23.5 62t60.5 20q36 0 59.5 -20t23.5 -62q0 -44 -23.5 -65t-59.5 -21zM29 437h474v-134h-474v134zM268 481q-37 0 -60.5 20t-23.5 62q0 44 23.5 65t60.5 21q36 0 59.5 -21t23.5 -65q0 -42 -23.5 -62t-59.5 -20z" />
    <glyph glyph-name="divide.tab" 
d="M329 91q-40 0 -66 21t-26 65q0 42 26 62t66 20t65 -20t25 -62q0 -44 -25 -65t-65 -21zM52 437h548v-134h-548v134zM329 481q-40 0 -66 20t-26 62q0 44 26 65t66 21t65 -21t25 -65q0 -42 -25 -62t-65 -20z" />
    <glyph glyph-name="dollar" unicode="$" horiz-adv-x="678" 
d="M242 -8q-51 4 -103.5 10.5t-100.5 17.5v180q81 -18 147 -27.5t123 -9.5q60 0 84.5 11t24.5 37q0 29 -27.5 42.5t-86.5 21.5q-63 9 -111.5 26.5t-81.5 47t-49.5 72t-16.5 101.5q0 81 48.5 135.5t139.5 77.5v150h200v-138q35 -3 77 -9.5t101 -17.5v-178q-26 8 -55 14
t-58.5 10.5t-58 7t-52.5 2.5q-107 0 -107 -49q0 -32 30 -49t96 -28q63 -11 109 -28.5t76.5 -43.5t45.5 -62.5t15 -85.5q0 -194 -209 -232v-143h-200v137z" />
    <glyph glyph-name="dollar.tab" 
d="M230 -8q-52 3 -104.5 10t-100.5 18v180q81 -18 147 -27.5t123 -9.5q60 0 84 11t24 37q0 29 -27 42.5t-86 21.5q-63 9 -111.5 26.5t-81.5 47t-49.5 72t-16.5 101.5q0 82 49 136.5t140 77.5v149h200v-138q35 -3 76.5 -9.5t101.5 -17.5l-1 -178q-26 8 -55 14t-58.5 10.5
t-58 7t-52.5 2.5q-108 0 -108 -49q0 -32 31 -47.5t95 -29.5q63 -11 109 -28.5t77 -43.5t46 -62.5t15 -85.5q0 -193 -208 -232v-143h-200v137z" />
    <glyph glyph-name="dotlessi" unicode="&#x131;" horiz-adv-x="324" 
d="M52 540h220v-540h-220v540z" />
    <glyph glyph-name="dotlessj" unicode="&#x237;" horiz-adv-x="321" 
d="M17 -199q11 47 18.5 86t12 82t6 95t1.5 126v54.5t-1 69.5t-2 94.5t-2 131.5h220v-472q-10 -81 -32 -150t-58 -138z" />
    <glyph glyph-name="e" unicode="e" horiz-adv-x="621" 
d="M328 -9q-299 0 -299 277q0 281 303 281q259 0 259 -241q0 -26 -2.5 -48t-8.5 -44h-333q3 -21 9 -33t17 -18.5t29 -8.5t45 -2q24 0 53 1.5t58.5 4.5t57 7t48.5 9l5 -154q-52 -14 -115.5 -22.5t-125.5 -8.5zM322 400q-38 0 -55 -16.5t-21 -61.5h153q-2 43 -19 60.5
t-58 17.5z" />
    <glyph glyph-name="eacute" unicode="&#xe9;" horiz-adv-x="621" 
d="M255 618l62 190h225l-130 -200zM328 -9q-299 0 -299 277q0 281 303 281q259 0 259 -241q0 -26 -2.5 -48t-8.5 -44h-333q3 -21 9 -33t17 -18.5t29 -8.5t45 -2q24 0 53 1.5t58.5 4.5t57 7t48.5 9l5 -154q-52 -14 -115.5 -22.5t-125.5 -8.5zM322 400q-38 0 -55 -16.5
t-21 -61.5h153q-2 43 -19 60.5t-58 17.5z" />
    <glyph glyph-name="ebreve" unicode="&#x115;" horiz-adv-x="621" 
d="M328 -9q-299 0 -299 277q0 281 303 281q259 0 259 -241q0 -26 -2.5 -48t-8.5 -44h-333q3 -21 9 -33t17 -18.5t29 -8.5t45 -2q24 0 53 1.5t58.5 4.5t57 7t48.5 9l5 -154q-52 -14 -115.5 -22.5t-125.5 -8.5zM322 400q-38 0 -55 -16.5t-21 -61.5h153q-2 43 -19 60.5
t-58 17.5zM316 611q-67 0 -112.5 14t-73 39.5t-40 59.5t-13.5 75h143q0 -21 4.5 -36.5t15.5 -26.5t29.5 -16.5t46.5 -5.5t46.5 5.5t29.5 16.5t15.5 26.5t4.5 36.5h143q-1 -42 -13.5 -76.5t-40 -59t-73 -38.5t-112.5 -14z" />
    <glyph glyph-name="ecaron" unicode="&#x11b;" horiz-adv-x="621" 
d="M104 821l219 -80l219 80v-143l-221 -79l-217 79v143zM328 -9q-299 0 -299 277q0 281 303 281q259 0 259 -241q0 -26 -2.5 -48t-8.5 -44h-333q3 -21 9 -33t17 -18.5t29 -8.5t45 -2q24 0 53 1.5t58.5 4.5t57 7t48.5 9l5 -154q-52 -14 -115.5 -22.5t-125.5 -8.5zM322 400
q-38 0 -55 -16.5t-21 -61.5h153q-2 43 -19 60.5t-58 17.5z" />
    <glyph glyph-name="ecircumflex" unicode="&#xea;" horiz-adv-x="621" 
d="M107 741l217 80l221 -80v-142l-219 79l-219 -79v142zM328 -9q-299 0 -299 277q0 281 303 281q259 0 259 -241q0 -26 -2.5 -48t-8.5 -44h-333q3 -21 9 -33t17 -18.5t29 -8.5t45 -2q24 0 53 1.5t58.5 4.5t57 7t48.5 9l5 -154q-52 -14 -115.5 -22.5t-125.5 -8.5zM322 400
q-38 0 -55 -16.5t-21 -61.5h153q-2 43 -19 60.5t-58 17.5z" />
    <glyph glyph-name="edblgrave" unicode="&#x205;" horiz-adv-x="621" 
d="M122 608l-131 200h213l62 -190zM361 608l-131 200h212l63 -190zM328 -9q-299 0 -299 277q0 281 303 281q259 0 259 -241q0 -26 -2.5 -48t-8.5 -44h-333q3 -21 9 -33t17 -18.5t29 -8.5t45 -2q24 0 53 1.5t58.5 4.5t57 7t48.5 9l5 -154q-52 -14 -115.5 -22.5t-125.5 -8.5z
M322 400q-38 0 -55 -16.5t-21 -61.5h153q-2 43 -19 60.5t-58 17.5z" />
    <glyph glyph-name="edieresis" unicode="&#xeb;" horiz-adv-x="621" 
d="M173 607q-57 0 -81 24t-24 78t24 77.5t81 23.5t81 -25t24 -76q0 -54 -24 -78t-81 -24zM457 607q-57 0 -81 24t-24 78t24 77.5t81 23.5t80.5 -25t23.5 -76q0 -54 -23.5 -78t-80.5 -24zM328 -9q-299 0 -299 277q0 281 303 281q259 0 259 -241q0 -26 -2.5 -48t-8.5 -44h-333
q3 -21 9 -33t17 -18.5t29 -8.5t45 -2q24 0 53 1.5t58.5 4.5t57 7t48.5 9l5 -154q-52 -14 -115.5 -22.5t-125.5 -8.5zM322 400q-38 0 -55 -16.5t-21 -61.5h153q-2 43 -19 60.5t-58 17.5z" />
    <glyph glyph-name="edotaccent" unicode="&#x117;" horiz-adv-x="621" 
d="M328 -9q-299 0 -299 277q0 281 303 281q259 0 259 -241q0 -26 -2.5 -48t-8.5 -44h-333q3 -21 9 -33t17 -18.5t29 -8.5t45 -2q24 0 53 1.5t58.5 4.5t57 7t48.5 9l5 -154q-52 -14 -115.5 -22.5t-125.5 -8.5zM322 400q-38 0 -55 -16.5t-21 -61.5h153q-2 43 -19 60.5
t-58 17.5zM325 595q-63 0 -90 27t-27 87t27 86.5t90 26.5q64 0 90.5 -28t26.5 -85q0 -58 -26.5 -86t-90.5 -28z" />
    <glyph glyph-name="edotbelow" unicode="&#x1eb9;" horiz-adv-x="621" 
d="M328 -9q-299 0 -299 277q0 281 303 281q259 0 259 -241q0 -26 -2.5 -48t-8.5 -44h-333q3 -21 9 -33t17 -18.5t29 -8.5t45 -2q24 0 53 1.5t58.5 4.5t57 7t48.5 9l5 -154q-52 -14 -115.5 -22.5t-125.5 -8.5zM322 400q-38 0 -55 -16.5t-21 -61.5h153q-2 43 -19 60.5
t-58 17.5zM324 -220q-48 0 -68 19.5t-20 64.5t20 65t68 20q50 0 69.5 -20.5t19.5 -64.5q0 -43 -19.5 -63.5t-69.5 -20.5z" />
    <glyph glyph-name="egrave" unicode="&#xe8;" horiz-adv-x="621" 
d="M328 -9q-299 0 -299 277q0 281 303 281q259 0 259 -241q0 -26 -2.5 -48t-8.5 -44h-333q3 -21 9 -33t17 -18.5t29 -8.5t45 -2q24 0 53 1.5t58.5 4.5t57 7t48.5 9l5 -154q-52 -14 -115.5 -22.5t-125.5 -8.5zM322 400q-38 0 -55 -16.5t-21 -61.5h153q-2 43 -19 60.5
t-58 17.5zM236 608l-131 200h226l62 -190z" />
    <glyph glyph-name="eight" unicode="8" horiz-adv-x="711" 
d="M358 -8q-88 0 -149.5 13.5t-100.5 39t-57 62.5t-18 83q0 120 118 180q-40 26 -65.5 67.5t-25.5 111.5q0 45 22 82t62.5 63t98 40.5t127.5 14.5q67 0 120.5 -14.5t90.5 -40.5t56.5 -63t19.5 -82q0 -53 -19.5 -87.5t-71.5 -65.5q23 -12 43 -28t34.5 -37.5t23 -50t8.5 -64.5
q0 -52 -17.5 -93.5t-55.5 -70.5t-98.5 -44.5t-145.5 -15.5zM305 314q-28 -19 -45 -42.5t-17 -53.5q0 -40 31.5 -60.5t83.5 -20.5t79.5 17t27.5 50q0 26 -12 43t-32.5 29t-48.5 20t-59 16zM257 536q0 -22 12 -36.5t32.5 -25t48 -17.5t59.5 -14q27 21 39 44.5t12 46.5
q0 32 -28 51t-74 19t-73.5 -18t-27.5 -50z" />
    <glyph glyph-name="eight.denominator" horiz-adv-x="568" 
d="M289 -5q-264 0 -264 152q0 83 74 129q-29 20 -45 50.5t-16 68.5q0 74 66.5 116t184.5 42q55 0 99.5 -11t75.5 -31.5t47.5 -50t16.5 -65.5t-11.5 -60t-39.5 -42q65 -43 65 -127q0 -87 -61.5 -129t-191.5 -42zM289 120q38 0 55.5 12t17.5 38q0 16 -23.5 28.5t-80.5 26.5
l-15 4q-37 -30 -37 -57q0 -24 22.5 -38t60.5 -14zM316 330q14 9 23.5 25t9.5 31q0 20 -16.5 30.5t-43.5 10.5q-34 0 -53 -10.5t-19 -28.5q0 -21 20 -34t62 -21z" />
    <glyph glyph-name="eight.numerator" horiz-adv-x="568" 
d="M289 195q-264 0 -264 152q0 83 74 129q-29 20 -45 50.5t-16 68.5q0 74 66.5 116t184.5 42q55 0 99.5 -11t75.5 -31.5t47.5 -50t16.5 -65.5t-11.5 -60t-39.5 -42q65 -43 65 -127q0 -87 -61.5 -129t-191.5 -42zM289 320q38 0 55.5 12t17.5 38q0 16 -23.5 28.5t-80.5 26.5
l-15 4q-37 -30 -37 -57q0 -24 22.5 -38t60.5 -14zM316 530q14 9 23.5 25t9.5 31q0 20 -16.5 30.5t-43.5 10.5q-34 0 -53 -10.5t-19 -28.5q0 -21 20 -34t62 -21z" />
    <glyph glyph-name="eight.osf" horiz-adv-x="705" 
d="M355 -8q-324 0 -324 183q0 57 29 98t92 70q-48 27 -71.5 66.5t-23.5 99.5q0 42 22.5 76t63 58t97.5 37.5t127 13.5q66 0 119 -13t90.5 -37t58 -58.5t20.5 -76.5q0 -26 -5 -46.5t-16 -38t-30.5 -32.5t-47.5 -29q60 -26 88.5 -64t28.5 -99q0 -208 -318 -208zM304 292
q-62 -41 -62 -91q0 -32 32 -48.5t81 -16.5q45 0 75.5 13t30.5 39q0 41 -36.5 63.5t-116.5 39.5zM255 489q0 -18 12 -30.5t32 -21.5t47.5 -15.5t57.5 -13.5q25 17 38.5 36.5t13.5 42.5q0 29 -27.5 46t-73.5 17t-73 -16t-27 -45z" />
    <glyph glyph-name="eight.tf" 
d="M329 -8q-85 0 -144.5 13.5t-97 39t-54.5 62.5t-17 83q0 61 26 105t85 76q-38 25 -62.5 67t-24.5 111q0 45 21.5 82t61 63t95 40.5t123.5 14.5q65 0 116.5 -14.5t87 -40.5t54.5 -63t19 -82q0 -53 -17.5 -88t-68.5 -65q22 -12 40.5 -28t32.5 -37.5t22 -50t8 -64.5
q0 -52 -16.5 -93.5t-53.5 -70.5t-95 -44.5t-141 -15.5zM329 137q48 0 73.5 17t25.5 50q0 25 -11.5 42t-31.5 29t-48 20.5t-61 17.5q-25 -19 -39 -42.5t-14 -52.5q0 -40 29 -60.5t77 -20.5zM329 604q-43 0 -69 -18t-26 -50q0 -22 11.5 -36.5t31.5 -24.5t46 -17t56 -14
q25 21 35 44t10 46q0 32 -26 51t-69 19z" />
    <glyph glyph-name="eight.tosf" 
d="M324 -8q-308 0 -308 183q0 57 27.5 98.5t87.5 70.5q-46 26 -68.5 66.5t-22.5 90.5q0 48 23 84t63.5 60.5t95 36.5t116.5 12q64 0 116 -12.5t88.5 -36.5t56 -59.5t19.5 -81.5q0 -47 -20.5 -80t-74.5 -61q62 -28 87 -67t25 -97q0 -105 -76 -156t-235 -51zM330 136
q40 0 68.5 13t28.5 44q0 24 -18 41t-42 28t-48.5 18l-38.5 11q-28 -20 -42 -42t-14 -45q0 -35 29.5 -51.5t76.5 -16.5zM326 550q-40 0 -65 -16t-25 -45q0 -18 11.5 -30t31 -21t44.5 -15.5t52 -13.5q48 34 48 78q0 29 -26 46t-71 17z" />
    <glyph glyph-name="eightinferior" unicode="&#x2088;" horiz-adv-x="568" 
d="M289 -105q-264 0 -264 152q0 83 74 129q-29 20 -45 50.5t-16 68.5q0 74 66.5 116t184.5 42q55 0 99.5 -11t75.5 -31.5t47.5 -50t16.5 -65.5t-11.5 -60t-39.5 -42q65 -43 65 -127q0 -87 -61.5 -129t-191.5 -42zM289 20q38 0 55.5 12t17.5 38q0 16 -23.5 28.5t-80.5 26.5
l-15 4q-37 -30 -37 -57q0 -24 22.5 -38t60.5 -14zM316 230q14 9 23.5 25t9.5 31q0 20 -16.5 30.5t-43.5 10.5q-34 0 -53 -10.5t-19 -28.5q0 -21 20 -34t62 -21z" />
    <glyph glyph-name="eightsuperior" unicode="&#x2078;" horiz-adv-x="568" 
d="M289 295q-264 0 -264 152q0 83 74 129q-29 20 -45 50.5t-16 68.5q0 74 66.5 116t184.5 42q55 0 99.5 -11t75.5 -31.5t47.5 -50t16.5 -65.5t-11.5 -60t-39.5 -42q65 -43 65 -127q0 -87 -61.5 -129t-191.5 -42zM289 420q38 0 55.5 12t17.5 38q0 16 -23.5 28.5t-80.5 26.5
l-15 4q-37 -30 -37 -57q0 -24 22.5 -38t60.5 -14zM316 630q14 9 23.5 25t9.5 31q0 20 -16.5 30.5t-43.5 10.5q-34 0 -53 -10.5t-19 -28.5q0 -21 20 -34t62 -21z" />
    <glyph glyph-name="einvertedbreve" unicode="&#x207;" horiz-adv-x="621" 
d="M80 621q1 40 13 74.5t40 59.5t73.5 39.5t112.5 14.5t112.5 -14t73 -39t40 -59.5t13.5 -75.5h-144q0 42 -19.5 63t-75.5 21t-75.5 -21t-20.5 -63h-143zM328 -9q-299 0 -299 277q0 281 303 281q259 0 259 -241q0 -26 -2.5 -48t-8.5 -44h-333q3 -21 9 -33t17 -18.5t29 -8.5
t45 -2q24 0 53 1.5t58.5 4.5t57 7t48.5 9l5 -154q-52 -14 -115.5 -22.5t-125.5 -8.5zM322 400q-38 0 -55 -16.5t-21 -61.5h153q-2 43 -19 60.5t-58 17.5z" />
    <glyph glyph-name="ellipsis" unicode="&#x2026;" horiz-adv-x="959" 
d="M151 -10q-56 0 -88 27t-32 85t32 84.5t88 26.5t88 -26.5t32 -84.5t-32 -85t-88 -27zM481 -10q-56 0 -88 27t-32 85t32 84.5t88 26.5t88 -26.5t32 -84.5t-32 -85t-88 -27zM808 -10q-56 0 -88 27t-32 85t32 84.5t88 26.5t88 -26.5t32 -84.5t-32 -85t-88 -27z" />
    <glyph glyph-name="emacron" unicode="&#x113;" horiz-adv-x="621" 
d="M328 -9q-299 0 -299 277q0 281 303 281q259 0 259 -241q0 -26 -2.5 -48t-8.5 -44h-333q3 -21 9 -33t17 -18.5t29 -8.5t45 -2q24 0 53 1.5t58.5 4.5t57 7t48.5 9l5 -154q-52 -14 -115.5 -22.5t-125.5 -8.5zM322 400q-38 0 -55 -16.5t-21 -61.5h153q-2 43 -19 60.5
t-58 17.5zM97 776h435v-139h-435v139z" />
    <glyph glyph-name="emdash" unicode="&#x2014;" horiz-adv-x="873" 
d="M49 359h775v-158h-775v158z" />
    <glyph glyph-name="endash" unicode="&#x2013;" horiz-adv-x="702" 
d="M49 359h604v-158h-604v158z" />
    <glyph glyph-name="eng" unicode="&#x14b;" horiz-adv-x="693" 
d="M387 -199q10 42 17.5 80t12 79.5t6.5 90.5t2 112v117q0 24 -1.5 38.5t-6 22t-13 10t-23.5 2.5q-26 0 -54 -2.5t-54 -7.5v-343h-220v540h184l11 -58h4q70 34 127.5 51t106.5 17q72 0 115.5 -40.5t43.5 -111.5v-336q-8 -78 -31 -148.5t-58 -133.5z" />
    <glyph glyph-name="eogonek" unicode="&#x119;" horiz-adv-x="621" 
d="M328 -9q-299 0 -299 277q0 281 303 281q259 0 259 -241q0 -26 -2.5 -48t-8.5 -44h-333q3 -21 9 -33t17 -18.5t29 -8.5t45 -2q24 0 53 1.5t58.5 4.5t57 7t48.5 9l5 -153v-5q-35 -14 -58.5 -25t-37.5 -21t-20 -19t-6 -18q0 -19 29 -19q14 0 42 5t53 11v-117q-23 -6 -47 -9
t-51 -3q-78 0 -121 25.5t-43 72.5q0 23 10.5 46.5t29.5 43.5h-21zM322 400q-38 0 -55 -16.5t-21 -61.5h153q-2 43 -19 60.5t-58 17.5z" />
    <glyph glyph-name="equal" unicode="=" horiz-adv-x="550" 
d="M53 305h444v-138h-444v138zM53 528h444v-138h-444v138z" />
    <glyph glyph-name="equal.tab" 
d="M80 305h492v-138h-492v138zM80 528h492v-138h-492v138z" />
    <glyph glyph-name="estimated" unicode="&#x212e;" horiz-adv-x="643" 
d="M328 1q-62 0 -114.5 23.5t-90.5 65.5t-60 99t-22 124q0 69 21 126.5t59 99t91 64.5t116 23t114.5 -22t89 -63t59.5 -98.5t25 -129.5h-447v-205q64 -66 159 -66q140 0 218 136l40 -24q-56 -80 -118 -116.5t-140 -36.5zM488 354v164q-71 68 -161 68q-93 0 -158 -68v-164
h319z" />
    <glyph glyph-name="eth" unicode="&#xf0;" horiz-adv-x="690" 
d="M193 716l107 9q-19 20 -40.5 41t-44.5 42h221l24 -24t38 -42l167 14v-128l-87 -8q32 -60 54.5 -137.5t22.5 -174.5q0 -161 -80 -240t-236 -79q-149 0 -230 71.5t-81 207.5q0 67 20 119.5t58 89t92.5 55.5t122.5 19q35 0 62 -7t50 -24q-17 42 -42 85l-198 -17v128z
M342 154q27 0 45 5t28.5 17.5t15 34.5t4.5 55q0 35 -5 58t-16.5 36.5t-30 19t-45.5 5.5t-44 -5t-27.5 -18.5t-14.5 -36t-4 -56.5q0 -35 4 -57t14.5 -35t29 -18t46.5 -5z" />
    <glyph glyph-name="etilde" unicode="&#x1ebd;" horiz-adv-x="621" 
d="M328 -9q-299 0 -299 277q0 281 303 281q259 0 259 -241q0 -26 -2.5 -48t-8.5 -44h-333q3 -21 9 -33t17 -18.5t29 -8.5t45 -2q24 0 53 1.5t58.5 4.5t57 7t48.5 9l5 -154q-52 -14 -115.5 -22.5t-125.5 -8.5zM322 400q-38 0 -55 -16.5t-21 -61.5h153q-2 43 -19 60.5
t-58 17.5zM69 660q36 72 84 107t92 35q27 0 53.5 -6.5t53 -14t53 -14t53.5 -6.5q22 0 43.5 7t51.5 30l26 -38q-38 -72 -85.5 -107t-90.5 -35q-27 0 -53.5 6.5t-53 14t-53 14t-53.5 6.5q-23 0 -45 -7t-50 -30z" />
    <glyph glyph-name="exclam" unicode="!" horiz-adv-x="324" 
d="M162 -10q-51 0 -78.5 26t-27.5 74t27.5 74t78.5 26t78.5 -26t27.5 -74t-27.5 -74t-78.5 -26zM96 287l-43 443v10h218v-10l-42 -443v-10h-133v10z" />
    <glyph glyph-name="exclamdown" unicode="&#xa1;" horiz-adv-x="308" 
d="M153 550q51 0 78.5 -26t27.5 -74t-27.5 -74t-78.5 -26t-78.5 26t-27.5 74t27.5 74t78.5 26zM87 263h133v-10l42 -443v-10h-218v10l43 443v10z" />
    <glyph glyph-name="f" unicode="f" horiz-adv-x="507" 
d="M130 357h-116v183h117v23q0 69 20 117t64.5 78t115 44t171.5 14l10 -157q-87 -1 -124.5 -21.5t-37.5 -68.5v-29h145v-183h-145v-357h-220v357z" />
    <glyph glyph-name="f.calt" horiz-adv-x="507" 
d="M130 357h-116v183h117v23q0 69 20 117t64.5 78t115 44t171.5 14l10 -157q-87 -1 -124.5 -21.5t-37.5 -68.5v-29h145v-183h-145v-357h-220v357z" />
    <glyph glyph-name="h" unicode="h" horiz-adv-x="693" 
d="M52 808h220v-322q65 30 117.5 47t95.5 17q73 0 116 -41t43 -111v-398h-220v325q0 29 -10.5 41.5t-34.5 12.5q-18 0 -47.5 -5.5t-59.5 -15.5v-358h-220v808z" />
    <glyph glyph-name="i" unicode="i" horiz-adv-x="324" 
d="M162 595q-63 0 -89.5 27t-26.5 87t26.5 86.5t89.5 26.5q64 0 90.5 -28t26.5 -85q0 -58 -26 -86t-91 -28zM52 540h220v-540h-220v540z" />
    <glyph glyph-name="j" unicode="j" horiz-adv-x="322" 
d="M161 595q-63 0 -90 27t-27 87t27 86.5t90 26.5q64 0 90.5 -28t26.5 -85q0 -58 -26.5 -86t-90.5 -28zM19 -195q10 42 16.5 79.5t10.5 79.5t6 92t2 115v58t-0.5 89.5t-1 107.5t-1.5 114h220v-471q-8 -80 -32 -152.5t-60 -136.5z" />
    <glyph glyph-name="k" unicode="k" horiz-adv-x="657" 
d="M52 808h220v-462h37l105 194h240l-165 -252l-29 -7v-4l29 -7l183 -270h-239l-126 211h-35v-211h-220v808z" />
    <glyph glyph-name="l" unicode="l" horiz-adv-x="324" 
d="M52 808h220v-808h-220v808z" />
    <glyph glyph-name="t" unicode="t" horiz-adv-x="479" 
d="M313 -15q-103 0 -156.5 47.5t-53.5 138.5v186h-84v183h99l33 170l170 18v-188h125v-183h-123v-134q0 -42 14.5 -57.5t51.5 -15.5q27 0 57 12v-160q-23 -8 -59.5 -12.5t-73.5 -4.5z" />
    <glyph glyph-name="five" unicode="5" horiz-adv-x="620" 
d="M248 -13q-49 0 -100 5t-105 12v166h48q35 -7 65.5 -9.5t61.5 -2.5q72 0 107 15t35 64q0 21 -10.5 34t-35 21t-66 11t-103.5 3h-76l-20 19l31 415h466v-172h-302l-5 -105q88 -1 154.5 -13t111 -39t67 -71.5t22.5 -111.5q0 -70 -29.5 -116.5t-78.5 -74t-111 -39t-127 -11.5
z" />
    <glyph glyph-name="five.denominator" horiz-adv-x="497" 
d="M198 -9q-38 0 -79.5 3.5t-86.5 8.5v145h39q29 -5 53.5 -7t49.5 -2q57 0 84 7.5t27 30.5q0 14 -6.5 22.5t-21.5 13.5t-40.5 7t-62.5 2h-95l-22 18l26 306h376v-148h-241l-4 -53q78 0 132 -9t87.5 -29t48.5 -52.5t15 -80.5q0 -53 -24 -88.5t-63.5 -56.5t-89.5 -29.5
t-102 -8.5z" />
    <glyph glyph-name="five.numerator" horiz-adv-x="497" 
d="M198 192q-38 0 -79.5 3t-86.5 8v145h39q29 -5 53.5 -7t49.5 -2q57 0 84 7.5t27 30.5q0 14 -6.5 22.5t-21.5 13.5t-40.5 7t-62.5 2h-95l-22 18l26 306h376v-148h-241l-4 -53q78 0 132 -9t87.5 -29t48.5 -52.5t15 -80.5q0 -53 -24 -88t-63.5 -56t-89.5 -29.5t-102 -8.5z
" />
    <glyph glyph-name="five.osf" horiz-adv-x="604" 
d="M239 -169q-49 0 -99.5 4.5t-105.5 12.5v166h48q35 -7 66 -9.5t61 -2.5q73 0 107.5 15t34.5 64q0 21 -10 34t-35 21t-66 11t-103 3h-77l-20 19l32 415h470v-172h-307l-5 -106q88 -1 154.5 -12.5t111 -38.5t67 -71.5t22.5 -111.5q0 -70 -29.5 -116.5t-78 -74t-111 -39
t-127.5 -11.5z" />
    <glyph glyph-name="five.tf" 
d="M262 -13q-50 0 -101.5 5t-106.5 12v166h48q36 -7 67.5 -9.5t62.5 -2.5q75 0 111.5 15t36.5 64q0 21 -11 34t-36.5 21t-68 11t-105.5 3h-79l-20 19l32 415h475v-172h-310l-5 -105q90 -1 158 -13t113.5 -39t68.5 -71.5t23 -111.5q0 -70 -30 -116.5t-79.5 -74t-113 -39
t-130.5 -11.5z" />
    <glyph glyph-name="five.tosf" 
d="M262 -169q-50 0 -101.5 4.5t-107.5 12.5v166h49q35 -7 67 -9.5t62 -2.5q76 0 112 15t36 64q0 21 -10.5 34t-36 21t-68 11t-106.5 3h-78l-20 19l32 415h479v-172h-314l-6 -106q91 -1 159 -12.5t113.5 -38.5t68.5 -71.5t23 -111.5q0 -70 -30 -116.5t-79.5 -74t-113 -39
t-130.5 -11.5z" />
    <glyph glyph-name="fiveeighths" unicode="&#x215d;" horiz-adv-x="1345" 
d="M206 192q-38 0 -79.5 3t-86.5 8v145h39q29 -5 53.5 -7t49.5 -2q57 0 84 7.5t27 30.5q0 14 -6.5 22.5t-21.5 13.5t-40.5 7t-62.5 2h-95l-22 18l26 306h376v-148h-241l-4 -53q78 0 132 -9t87.5 -29t48.5 -52.5t15 -80.5q0 -53 -24 -88t-63.5 -56t-89.5 -29.5t-102 -8.5z
M722 740h186l-345 -740h-186zM1063 -5q-264 0 -264 152q0 83 74 129q-29 20 -45 50.5t-16 68.5q0 74 66.5 116t184.5 42q55 0 99.5 -11t75.5 -31.5t47.5 -50t16.5 -65.5t-11.5 -60t-39.5 -42q65 -43 65 -127q0 -87 -61.5 -129t-191.5 -42zM1063 120q38 0 55.5 12t17.5 38
q0 16 -23.5 28.5t-80.5 26.5l-15 4q-37 -30 -37 -57q0 -24 22.5 -38t60.5 -14zM1090 330q14 9 23.5 25t9.5 31q0 20 -16.5 30.5t-43.5 10.5q-34 0 -53 -10.5t-19 -28.5q0 -21 20 -34t62 -21z" />
    <glyph glyph-name="fraction" unicode="&#x2044;" horiz-adv-x="344" 
d="M251 740h186l-345 -740h-186z" />
    <glyph glyph-name="fiveinferior" unicode="&#x2085;" horiz-adv-x="497" 
d="M198 -109q-38 0 -79.5 3.5t-86.5 8.5v145h39q29 -5 53.5 -7t49.5 -2q57 0 84 7.5t27 30.5q0 14 -6.5 22.5t-21.5 13.5t-40.5 7t-62.5 2h-95l-22 18l26 306h376v-148h-241l-4 -53q78 0 132 -9t87.5 -29t48.5 -52.5t15 -80.5q0 -53 -24 -88.5t-63.5 -56.5t-89.5 -29.5
t-102 -8.5z" />
    <glyph glyph-name="fivesuperior" unicode="&#x2075;" horiz-adv-x="497" 
d="M198 292q-38 0 -79.5 3t-86.5 8v145h39q29 -5 53.5 -7t49.5 -2q57 0 84 7.5t27 30.5q0 14 -6.5 22.5t-21.5 13.5t-40.5 7t-62.5 2h-95l-22 18l26 306h376v-148h-241l-4 -53q78 0 132 -9t87.5 -29t48.5 -52.5t15 -80.5q0 -53 -24 -88t-63.5 -56t-89.5 -29.5t-102 -8.5z
" />
    <glyph glyph-name="florin" unicode="&#x192;" horiz-adv-x="547" 
d="M147 357h-117v183h118v23q0 69 20 117t64 78t114.5 44t171.5 14l10 -157q-86 -1 -123.5 -21.5t-37.5 -68.5v-29h144v-183h-144v-517l-220 -59v576z" />
    <glyph glyph-name="four" unicode="4" horiz-adv-x="710" 
d="M11 263v12l245 475h4l226 -17l10 -19l-261 -416v-4h143l42 158h161v-158h110v-167h-110v-127h-221v127h-329z" />
    <glyph glyph-name="four.denominator" horiz-adv-x="559" 
d="M274 90h-249l-18 115l196 338l17 7l161 -11l16 -32l-203 -280h92l46 118h126v-118h86v-137h-86v-90h-184v90z" />
    <glyph glyph-name="four.numerator" horiz-adv-x="559" 
d="M274 290h-249l-18 115l196 338l17 7l161 -11l16 -32l-203 -280h92l46 118h126v-118h86v-137h-86v-90h-184v90z" />
    <glyph glyph-name="four.osf" horiz-adv-x="702" 
d="M8 136v11l245 448h4l227 -17l9 -19l-261 -388v-4h143l42 155h161v-155h110v-167h-110v-164h-221v164h-329z" />
    <glyph glyph-name="four.tf" 
d="M-7 263v12l236 475h4l224 -17l9 -19l-252 -416v-4h131l42 158h160v-158h105v-167h-105v-127h-219v127h-316z" />
    <glyph glyph-name="four.tosf" 
d="M-6 136v11l236 448h4l224 -17l9 -19l-252 -388v-4h131l42 155h160v-155h105v-167h-105v-164h-219v164h-316z" />
    <glyph glyph-name="fourinferior" unicode="&#x2084;" horiz-adv-x="559" 
d="M274 -11h-249l-18 116l196 338l17 7l161 -11l16 -32l-203 -280h92l46 118h126v-118h86v-138h-86v-89h-184v89z" />
    <glyph glyph-name="foursuperior" unicode="&#x2074;" horiz-adv-x="559" 
d="M274 390h-249l-18 115l196 338l17 7l161 -11l16 -32l-203 -280h92l46 118h126v-118h86v-137h-86v-90h-184v90z" />
    <glyph glyph-name="franc" unicode="&#x20a3;" horiz-adv-x="744" 
d="M27 218h109v522h577v-172h-352v-112h314v-172h-314v-66h136v-129h-136v-89h-225v89h-109v129z" />
    <glyph glyph-name="g" unicode="g" horiz-adv-x="692" 
d="M307 -220q-31 0 -64.5 1.5t-65.5 4.5t-60.5 6.5t-49.5 8.5l12 155q35 -7 84 -13t99 -6q36 0 67.5 5t55.5 18t37.5 33.5t13.5 52.5v61h-9q-25 -44 -66.5 -63t-98.5 -19q-232 0 -232 240q0 70 22.5 123.5t64 89.5t101 54t133.5 18q25 0 50.5 -2t58.5 -7.5t77 -16t105 -28.5
v-423q0 -80 -27 -135.5t-72.5 -90.5t-106.5 -51t-129 -16zM331 179q51 0 71 25t20 85v103q-16 4 -35 6.5t-42 2.5q-30 0 -48.5 -4.5t-28.5 -17t-13.5 -36t-3.5 -61.5q0 -31 3 -51t12 -31.5t24.5 -16t40.5 -4.5z" />
    <glyph glyph-name="gacute" unicode="&#x1f5;" horiz-adv-x="692" 
d="M272 618l62 190h225l-130 -200zM307 -220q-31 0 -64.5 1.5t-65.5 4.5t-60.5 6.5t-49.5 8.5l12 155q35 -7 84 -13t99 -6q36 0 67.5 5t55.5 18t37.5 33.5t13.5 52.5v61h-9q-25 -44 -66.5 -63t-98.5 -19q-232 0 -232 240q0 70 22.5 123.5t64 89.5t101 54t133.5 18
q25 0 50.5 -2t58.5 -7.5t77 -16t105 -28.5v-423q0 -80 -27 -135.5t-72.5 -90.5t-106.5 -51t-129 -16zM331 179q51 0 71 25t20 85v103q-16 4 -35 6.5t-42 2.5q-30 0 -48.5 -4.5t-28.5 -17t-13.5 -36t-3.5 -61.5q0 -31 3 -51t12 -31.5t24.5 -16t40.5 -4.5z" />
    <glyph glyph-name="gbreve" unicode="&#x11f;" horiz-adv-x="692" 
d="M307 -220q-31 0 -64.5 1.5t-65.5 4.5t-60.5 6.5t-49.5 8.5l12 155q35 -7 84 -13t99 -6q36 0 67.5 5t55.5 18t37.5 33.5t13.5 52.5v61h-9q-25 -44 -66.5 -63t-98.5 -19q-232 0 -232 240q0 70 22.5 123.5t64 89.5t101 54t133.5 18q25 0 50.5 -2t58.5 -7.5t77 -16t105 -28.5
v-423q0 -80 -27 -135.5t-72.5 -90.5t-106.5 -51t-129 -16zM331 179q51 0 71 25t20 85v103q-16 4 -35 6.5t-42 2.5q-30 0 -48.5 -4.5t-28.5 -17t-13.5 -36t-3.5 -61.5q0 -31 3 -51t12 -31.5t24.5 -16t40.5 -4.5zM348 611q-67 0 -112.5 14t-73 39.5t-40 59.5t-13.5 75h143
q0 -21 4.5 -36.5t15.5 -26.5t29.5 -16.5t46.5 -5.5t46.5 5.5t29.5 16.5t15.5 26.5t4.5 36.5h143q-1 -42 -13.5 -76.5t-40 -59t-73 -38.5t-112.5 -14z" />
    <glyph glyph-name="gcircumflex" unicode="&#x11d;" horiz-adv-x="692" 
d="M142 741l217 80l221 -80v-142l-219 79l-219 -79v142zM307 -220q-31 0 -64.5 1.5t-65.5 4.5t-60.5 6.5t-49.5 8.5l12 155q35 -7 84 -13t99 -6q36 0 67.5 5t55.5 18t37.5 33.5t13.5 52.5v61h-9q-25 -44 -66.5 -63t-98.5 -19q-232 0 -232 240q0 70 22.5 123.5t64 89.5
t101 54t133.5 18q25 0 50.5 -2t58.5 -7.5t77 -16t105 -28.5v-423q0 -80 -27 -135.5t-72.5 -90.5t-106.5 -51t-129 -16zM331 179q51 0 71 25t20 85v103q-16 4 -35 6.5t-42 2.5q-30 0 -48.5 -4.5t-28.5 -17t-13.5 -36t-3.5 -61.5q0 -31 3 -51t12 -31.5t24.5 -16t40.5 -4.5z
" />
    <glyph glyph-name="gcommaaccent" unicode="&#x123;" horiz-adv-x="692" 
d="M522 770l-38 -150h-226l102 150h162zM307 -220q-31 0 -64.5 1.5t-65.5 4.5t-60.5 6.5t-49.5 8.5l12 155q35 -7 84 -13t99 -6q36 0 67.5 5t55.5 18t37.5 33.5t13.5 52.5v61h-9q-25 -44 -66.5 -63t-98.5 -19q-232 0 -232 240q0 70 22.5 123.5t64 89.5t101 54t133.5 18
q25 0 50.5 -2t58.5 -7.5t77 -16t105 -28.5v-423q0 -80 -27 -135.5t-72.5 -90.5t-106.5 -51t-129 -16zM331 179q51 0 71 25t20 85v103q-16 4 -35 6.5t-42 2.5q-30 0 -48.5 -4.5t-28.5 -17t-13.5 -36t-3.5 -61.5q0 -31 3 -51t12 -31.5t24.5 -16t40.5 -4.5z" />
    <glyph glyph-name="gdotaccent" unicode="&#x121;" horiz-adv-x="692" 
d="M307 -220q-31 0 -64.5 1.5t-65.5 4.5t-60.5 6.5t-49.5 8.5l12 155q35 -7 84 -13t99 -6q36 0 67.5 5t55.5 18t37.5 33.5t13.5 52.5v61h-9q-25 -44 -66.5 -63t-98.5 -19q-232 0 -232 240q0 70 22.5 123.5t64 89.5t101 54t133.5 18q25 0 50.5 -2t58.5 -7.5t77 -16t105 -28.5
v-423q0 -80 -27 -135.5t-72.5 -90.5t-106.5 -51t-129 -16zM331 179q51 0 71 25t20 85v103q-16 4 -35 6.5t-42 2.5q-30 0 -48.5 -4.5t-28.5 -17t-13.5 -36t-3.5 -61.5q0 -31 3 -51t12 -31.5t24.5 -16t40.5 -4.5zM351 595q-63 0 -90 27t-27 87t27 86.5t90 26.5q64 0 90.5 -28
t26.5 -85q0 -58 -26.5 -86t-90.5 -28z" />
    <glyph glyph-name="germandbls" unicode="&#xdf;" horiz-adv-x="859" 
d="M53 559q0 255 350 255q355 0 355 -255v-160h-134q-40 0 -58 -6t-18 -20q0 -7 4.5 -12t15.5 -9t30.5 -7t48.5 -6q46 -5 82.5 -15.5t62.5 -30t40 -49t14 -71.5q0 -184 -273 -184q-26 0 -56 1.5t-61.5 4.5t-62.5 7.5t-58 10.5v147q68 -14 123 -20.5t105 -6.5q41 0 57 5
t16 18q0 14 -17.5 21t-62.5 11q-33 3 -71.5 8.5t-70.5 23t-53.5 51.5t-21.5 95q0 75 51.5 121.5t145.5 59.5v12q0 46 -32 67.5t-100 21.5t-99.5 -21.5t-31.5 -67.5v-559h-220v559z" />
    <glyph glyph-name="germandbls.sc" horiz-adv-x="1261" 
d="M308 -10q-29 0 -63 1.5t-69.5 5t-71 8t-67.5 10.5v169q72 -14 133.5 -22t118.5 -8q95 0 95 25q0 14 -22 20t-76 13q-127 10 -185.5 54t-58.5 127q0 92 77 142t218 50q24 0 48 -1.5t51 -4.5t59.5 -8t73.5 -12v-163q-24 6 -51 10.5t-54.5 8t-54 5.5t-48.5 2q-54 0 -75 -5
t-21 -19q0 -17 29 -25.5t80 -13.5q233 -25 233 -170q0 -199 -299 -199zM939 -10q-29 0 -63 1.5t-69.5 5t-71 8t-67.5 10.5v169q72 -14 133.5 -22t118.5 -8q95 0 95 25q0 14 -22 20t-76 13q-127 10 -185.5 54t-58.5 127q0 92 77 142t218 50q24 0 48 -1.5t51 -4.5t59.5 -8
t73.5 -12v-163q-24 6 -51 10.5t-54.5 8t-54 5.5t-48.5 2q-54 0 -75 -5t-21 -19q0 -17 29 -25.5t80 -13.5q233 -25 233 -170q0 -199 -299 -199z" />
    <glyph glyph-name="greater" unicode="&#x3e;" horiz-adv-x="568" 
d="M58 237l294 126l-294 126v147l483 -207v-132l-483 -207v147z" />
    <glyph glyph-name="greater.tab" 
d="M76 237l325 126l-326 126v147l532 -207v-132l-531 -207v147z" />
    <glyph glyph-name="greaterequal" unicode="&#x2265;" horiz-adv-x="589" 
d="M58 662l483 -157v-132l-483 -157v147l294 76l-294 76v147zM58 190h484v-134h-484v134z" />
    <glyph glyph-name="guillemotleft" unicode="&#xab;" horiz-adv-x="788" 
d="M24 268v4l180 238h220l-180 -238v-4l180 -238h-220zM362 268v4l180 238h220l-180 -238v-4l180 -238h-220z" />
    <glyph glyph-name="guilsinglleft" unicode="&#x2039;" horiz-adv-x="450" 
d="M24 268v4l180 238h220l-180 -238v-4l180 -238h-220z" />
    <glyph glyph-name="guillemotright" unicode="&#xbb;" horiz-adv-x="788" 
d="M247 30h-220l179 238v4l-179 238h220l179 -238v-4zM585 30h-220l179 238v4l-179 238h220l179 -238v-4z" />
    <glyph glyph-name="guilsinglright" unicode="&#x203a;" horiz-adv-x="450" 
d="M247 30h-220l179 238v4l-179 238h220l179 -238v-4z" />
    <glyph glyph-name="hbar" unicode="&#x127;" horiz-adv-x="694" 
d="M-28 735h81v73h220v-73h148v-122h-148v-127q65 30 117.5 47t95.5 17q73 0 116 -41t43 -111v-398h-220v325q0 29 -10.5 41.5t-34.5 12.5q-18 0 -47.5 -5.5t-59.5 -15.5v-358h-220v613h-81v122z" />
    <glyph glyph-name="hcircumflex" unicode="&#x125;" horiz-adv-x="693" 
d="M139 947l217 80l221 -80v-117l-219 79l-219 -79v117zM52 808h220v-322q65 30 117.5 47t95.5 17q73 0 116 -41t43 -111v-398h-220v325q0 29 -10.5 41.5t-34.5 12.5q-18 0 -47.5 -5.5t-59.5 -15.5v-358h-220v808z" />
    <glyph glyph-name="hdotbelow" unicode="&#x1e25;" horiz-adv-x="693" 
d="M52 808h220v-322q65 30 117.5 47t95.5 17q73 0 116 -41t43 -111v-398h-220v325q0 29 -10.5 41.5t-34.5 12.5q-18 0 -47.5 -5.5t-59.5 -15.5v-358h-220v808zM348 -220q-48 0 -68 19.5t-20 64.5t20 65t68 20q50 0 69.5 -20.5t19.5 -64.5q0 -43 -19.5 -63.5t-69.5 -20.5z
" />
    <glyph glyph-name="hungarumlaut" unicode="&#x2dd;" horiz-adv-x="546" 
d="M28 618l62 190h212l-130 -200zM267 618l61 190h213l-130 -200z" />
    <glyph glyph-name="hyphen" unicode="-" horiz-adv-x="552" 
d="M49 359h454v-158h-454v158z" />
    <glyph glyph-name="iacute" unicode="&#xed;" horiz-adv-x="325" 
d="M83 618l62 190h225l-130 -200zM52 540h220v-540h-220v540z" />
    <glyph glyph-name="ibreve" unicode="&#x12d;" horiz-adv-x="326" 
d="M166 611q-51 0 -86.5 14t-57.5 39.5t-32 59.5t-11 75h115q0 -42 13.5 -63.5t58.5 -21.5t59 21.5t14 63.5h113q-1 -42 -11 -76.5t-32 -59t-57 -38.5t-86 -14zM53 540h220v-540h-220v540z" />
    <glyph glyph-name="icircumflex" unicode="&#xee;" horiz-adv-x="326" 
d="M-36 741l202 80l206 -80v-142l-204 79l-204 -79v142zM53 540h220v-540h-220v540z" />
    <glyph glyph-name="idblgrave" unicode="&#x209;" horiz-adv-x="326" 
d="M-29 608l-131 200h213l62 -190zM210 608l-131 200h212l63 -190zM53 540h220v-540h-220v540z" />
    <glyph glyph-name="idieresis" unicode="&#xef;" horiz-adv-x="326" 
d="M42 607q-57 0 -81 24t-24 78t24 77.5t81 23.5t81 -25t24 -76q0 -54 -24 -78t-81 -24zM290 607q-57 0 -81 24t-24 78t24 77.5t81 23.5t81 -25t24 -76q0 -54 -24 -78t-81 -24zM53 540h220v-540h-220v540z" />
    <glyph glyph-name="idotbelow" unicode="&#x1ecb;" horiz-adv-x="324" 
d="M162 595q-63 0 -89.5 27t-26.5 87t26.5 86.5t89.5 26.5q64 0 90.5 -28t26.5 -85q0 -58 -26 -86t-91 -28zM52 540h220v-540h-220v540zM162 -220q-48 0 -68 19.5t-20 64.5t20 65t68 20q50 0 69.5 -20.5t19.5 -64.5q0 -43 -19.5 -63.5t-69.5 -20.5z" />
    <glyph glyph-name="igrave" unicode="&#xec;" horiz-adv-x="325" 
d="M53 540h220v-540h-220v540zM76 608l-131 200h226l62 -190z" />
    <glyph glyph-name="iinvertedbreve" unicode="&#x20b;" horiz-adv-x="326" 
d="M-19 621q1 40 11 74.5t32 59.5t57 39.5t86 14.5q52 0 87.5 -14t57 -39t31.5 -59.5t11 -75.5h-114q0 42 -14 63t-59 21q-44 0 -58 -21t-14 -63h-114zM53 540h220v-540h-220v540z" />
    <glyph glyph-name="ij" unicode="&#x133;" horiz-adv-x="645" 
d="M162 595q-63 0 -89.5 27t-26.5 87t26.5 86.5t89.5 26.5q64 0 90.5 -28t26.5 -85q0 -58 -26 -86t-91 -28zM52 540h220v-540h-220v540zM485 595q-63 0 -90 27t-27 87t27 86.5t90 26.5q64 0 90.5 -28t26.5 -85q0 -58 -26.5 -86t-90.5 -28zM343 -195q10 42 16.5 79.5
t10.5 79.5t6 92t2 115v58t-0.5 89.5t-1 107.5t-1.5 114h220v-471q-8 -80 -32 -152.5t-60 -136.5z" />
    <glyph glyph-name="imacron" unicode="&#x12b;" horiz-adv-x="326" 
d="M53 540h220v-540h-220v540zM-53 776h435v-139h-435v139z" />
    <glyph glyph-name="infinity" unicode="&#x221e;" horiz-adv-x="959" 
d="M265 115q-51 0 -93.5 14.5t-73.5 41t-48 63t-17 80.5q0 42 17.5 77.5t49 61.5t73.5 41t92 15q62 0 116 -22.5t97 -66.5q24 16 47 32t48.5 29t54.5 20.5t65 7.5q51 0 93.5 -14.5t73.5 -41t48 -63t17 -80.5q0 -42 -17.5 -77.5t-49 -61.5t-74 -41t-91.5 -15
q-62 0 -116.5 22.5t-97.5 66.5q-23 -17 -46 -33t-48.5 -28.5t-54.5 -20t-65 -7.5zM291 236q62 0 119 78q-33 40 -62 57t-63 17q-35 0 -54 -19.5t-19 -54.5q0 -34 22 -56t57 -22zM673 236q35 0 54 19.5t19 54.5q0 34 -22 56t-57 22q-31 0 -61.5 -20t-57.5 -58
q32 -40 61.5 -57t63.5 -17z" />
    <glyph glyph-name="integral" unicode="&#x222b;" horiz-adv-x="395" 
d="M123 -211q-53 0 -114 21l22 114q23 -5 34 -6.5t22 -1.5q22 0 34 10.5t12 36.5l-50 647q-1 6 -1 11.5v10.5q0 75 37 111.5t104 36.5q38 0 76 -5t88 -16l-22 -114q-25 5 -35 6.5t-21 1.5q-46 0 -46 -41l51 -684q0 -69 -50 -104t-141 -35z" />
    <glyph glyph-name="iogonek" unicode="&#x12f;" horiz-adv-x="324" 
d="M52 540h220v-545q-35 -14 -58.5 -25t-37.5 -21t-20 -19t-6 -18q0 -19 29 -19q14 0 42 5t53 11v-117q-23 -6 -47 -9t-51 -3q-78 0 -121 25.5t-43 72.5q0 32 21.5 65.5t58.5 56.5h-40v540zM162 595q-63 0 -89.5 27t-26.5 87t26.5 86.5t89.5 26.5q64 0 90.5 -28t26.5 -85
q0 -58 -26 -86t-91 -28z" />
    <glyph glyph-name="itilde" unicode="&#x129;" horiz-adv-x="326" 
d="M-67 660q34 72 78 107t86 35q25 0 49.5 -6.5t49 -14t49 -14t49.5 -6.5q19 0 38.5 7t48.5 30l25 -38q-36 -72 -80.5 -107t-83.5 -35q-25 0 -49.5 6.5t-49.5 14t-49.5 14t-48.5 6.5q-21 0 -41.5 -7t-46.5 -30zM53 540h220v-540h-220v540z" />
    <glyph glyph-name="jcircumflex" unicode="&#x135;" horiz-adv-x="322" 
d="M-45 741l201 80l206 -80v-142l-203 79l-204 -79v142zM17 -199q11 47 18.5 86t12 82t6 95t1.5 126v54.5t-1 69.5t-2 94.5t-2 131.5h220v-472q-10 -81 -32 -150t-58 -138z" />
    <glyph glyph-name="kcommaaccent" unicode="&#x137;" horiz-adv-x="657" 
d="M222 -70h225l-101 -150h-164zM52 808h220v-462h37l105 194h240l-165 -252l-29 -7v-4l29 -7l183 -270h-239l-126 211h-35v-211h-220v808z" />
    <glyph glyph-name="kgreenlandic" unicode="&#x138;" horiz-adv-x="655" 
d="M53 540h220v-194h33l105 194h240l-165 -253l-29 -6v-4l29 -6l183 -271h-239l-126 211h-31v-211h-220v540z" />
    <glyph glyph-name="lacute" unicode="&#x13a;" horiz-adv-x="324" 
d="M76 840l62 190h225l-130 -200zM52 808h220v-808h-220v808z" />
    <glyph glyph-name="lcaron" unicode="&#x13e;" horiz-adv-x="325" 
d="M316 808h170l-51 -228h-119v228zM52 808h220v-808h-220v808z" />
    <glyph glyph-name="lcommaaccent" unicode="&#x13c;" horiz-adv-x="324" 
d="M53 -70h225l-101 -150h-164zM52 808h220v-808h-220v808z" />
    <glyph glyph-name="ldot" unicode="&#x140;" horiz-adv-x="546" 
d="M52 808h220v-808h-220v808zM436 257q-63 0 -90 26.5t-27 86.5t27 87t90 27q64 0 90 -28t26 -86t-26 -85.5t-90 -27.5z" />
    <glyph glyph-name="less" unicode="&#x3c;" horiz-adv-x="567" 
d="M28 297v132l483 207v-147l-294 -126l294 -126v-147z" />
    <glyph glyph-name="less.tab" 
d="M47 297v132l530 207v-147l-325 -126l325 -126v-147z" />
    <glyph glyph-name="lessequal" unicode="&#x2264;" horiz-adv-x="590" 
d="M48 505l483 157v-147l-294 -76l294 -76v-147l-483 157v132zM47 190h484v-134h-484v134z" />
    <glyph glyph-name="lira" unicode="&#x20a4;" horiz-adv-x="748" 
d="M43 499h149v12q0 239 321 239q52 0 97.5 -5.5t102.5 -19.5l-6 -174q-45 8 -87.5 12t-77.5 4q-69 0 -97 -13t-28 -45v-10h207l-20 -105h-187v-45h182l-20 -106h-162v-55h281v-188h-655v190h149v53h-149v106h149v45h-149v105z" />
    <glyph glyph-name="logicalnot" unicode="&#xac;" horiz-adv-x="893" 
d="M39 448h796v-359h-215v183h-581v176z" />
    <glyph glyph-name="lozenge" unicode="&#x25ca;" horiz-adv-x="675" 
d="M27 361v20l173 359h275l173 -359v-20l-173 -361h-275zM437 371l-100 234l-100 -234l100 -235z" />
    <glyph glyph-name="lslash" unicode="&#x142;" horiz-adv-x="449" 
d="M22 393l93 42v373h220v-273l102 46v-157l-102 -46v-378h-220v278l-93 -42v157z" />
    <glyph glyph-name="m" unicode="m" horiz-adv-x="1003" 
d="M53 540h183l11 -62h8q53 34 103 53t95 19q48 0 84 -18.5t56 -53.5h5q51 33 101 52.5t95 19.5q74 0 117 -41t43 -111v-398h-219v321q0 55 -46 55q-13 0 -36 -5.5t-40 -12.5v-358h-219v321q0 55 -47 55q-12 0 -35.5 -5.5t-40.5 -12.5v-358h-218v540z" />
    <glyph glyph-name="minus" unicode="&#x2212;" horiz-adv-x="580" 
d="M53 437h474v-134h-474v134z" />
    <glyph glyph-name="minus.tab" 
d="M81 437h490v-134h-490v134z" />
    <glyph glyph-name="mu" unicode="&#xb5;" horiz-adv-x="735" 
d="M69 540h220v-333q0 -55 47 -55q20 0 48.5 6t57.5 16v366h220v-540h-185l-11 61h-4q-28 -16 -50.5 -27.5t-42 -19.5t-39 -13t-41.5 -8v-213h-220v760z" />
    <glyph glyph-name="multiply" unicode="&#xd7;" horiz-adv-x="520" 
d="M30 235l135 135l-135 135l95 95l135 -135l134 135l96 -95l-135 -135l135 -135l-95 -95l-135 135l-135 -135z" />
    <glyph glyph-name="multiply.tab" 
d="M65 235l156 135l-156 135l101 95l160 -138l160 138l102 -95l-157 -135l157 -135l-101 -95l-161 139l-160 -139z" />
    <glyph glyph-name="n" unicode="n" horiz-adv-x="694" 
d="M53 540h184l11 -62h9q72 38 127.5 55t101.5 17q73 0 116 -41t43 -111v-398h-220v325q0 29 -11 41.5t-34 12.5q-21 0 -50.5 -6t-56.5 -15v-358h-220v540z" />
    <glyph glyph-name="nacute" unicode="&#x144;" horiz-adv-x="694" 
d="M272 618l62 190h225l-130 -200zM53 540h184l11 -62h9q72 38 127.5 55t101.5 17q73 0 116 -41t43 -111v-398h-220v325q0 29 -11 41.5t-34 12.5q-21 0 -50.5 -6t-56.5 -15v-358h-220v540z" />
    <glyph glyph-name="napostrophe" unicode="&#x149;" horiz-adv-x="809" 
d="M184 808v-4l-51 -224h-119v228h170zM168 540h184l11 -62h9q72 38 127.5 55t101.5 17q73 0 116 -41t43 -111v-398h-220v325q0 29 -11 41.5t-34 12.5q-21 0 -50.5 -6t-56.5 -15v-358h-220v540z" />
    <glyph glyph-name="ncaron" unicode="&#x148;" horiz-adv-x="694" 
d="M118 821l219 -80l219 80v-143l-221 -79l-217 79v143zM53 540h184l11 -62h9q72 38 127.5 55t101.5 17q73 0 116 -41t43 -111v-398h-220v325q0 29 -11 41.5t-34 12.5q-21 0 -50.5 -6t-56.5 -15v-358h-220v540z" />
    <glyph glyph-name="ncommaaccent" unicode="&#x146;" horiz-adv-x="694" 
d="M241 -70h225l-101 -150h-164zM53 540h184l11 -62h9q72 38 127.5 55t101.5 17q73 0 116 -41t43 -111v-398h-220v325q0 29 -11 41.5t-34 12.5q-21 0 -50.5 -6t-56.5 -15v-358h-220v540z" />
    <glyph glyph-name="ndotaccent" unicode="&#x1e45;" horiz-adv-x="694" 
d="M349 595q-63 0 -90 27t-27 87t27 86.5t90 26.5q64 0 90.5 -28t26.5 -85q0 -58 -26.5 -86t-90.5 -28zM53 540h184l11 -62h9q72 38 127.5 55t101.5 17q73 0 116 -41t43 -111v-398h-220v325q0 29 -11 41.5t-34 12.5q-21 0 -50.5 -6t-56.5 -15v-358h-220v540z" />
    <glyph glyph-name="nine" unicode="9" horiz-adv-x="712" 
d="M347 750q158 0 243.5 -88t85.5 -258q0 -414 -430 -414q-40 0 -83.5 5t-92.5 15l27 156q45 -8 78 -11.5t62 -3.5q97 0 146 35t63 119q-29 -20 -69 -31.5t-88 -11.5q-61 0 -110 16t-84 45t-54 71t-19 93q0 61 22.5 110t64.5 83t102 52t136 18zM347 400q30 0 59.5 10.5
t46.5 25.5q-4 83 -29 119t-77 36q-50 0 -73 -23.5t-23 -74.5q0 -50 22.5 -71.5t73.5 -21.5z" />
    <glyph glyph-name="six" unicode="6" horiz-adv-x="712" 
d="M365 -10q-158 0 -243.5 88t-85.5 258q0 414 430 414q40 0 83.5 -5t92.5 -15l-27 -156q-45 8 -78 11.5t-62 3.5q-97 0 -146 -35t-63 -119q29 20 69 31.5t88 11.5q61 0 110 -16t84 -45t54 -71t19 -93q0 -61 -22.5 -110t-64.5 -83t-102 -52t-136 -18zM365 340
q-30 0 -59.5 -10.5t-46.5 -25.5q4 -83 29 -119t77 -36q50 0 73 23.5t23 74.5q0 50 -22.5 71.5t-73.5 21.5z" />
    <glyph glyph-name="nine.denominator" horiz-adv-x="570" 
d="M200 -6q-60 0 -145 15l27 136q47 -6 70 -8t41 -2q37 0 65 5t48 15.5t33.5 27.5t21.5 41q-25 -18 -59.5 -27.5t-73.5 -9.5q-47 0 -85 12t-65 34.5t-42 53.5t-15 69q0 92 69 144.5t191 52.5q128 0 195.5 -65.5t67.5 -190.5q0 -303 -344 -303zM281 308q21 0 43 5.5t38 13.5
q-5 46 -24 66t-57 20q-39 0 -57 -13t-18 -40q0 -28 17.5 -40t57.5 -12z" />
    <glyph glyph-name="nine.numerator" horiz-adv-x="570" 
d="M200 194q-60 0 -145 15l27 136q47 -6 70 -8t41 -2q37 0 65 5t48 15.5t33.5 27.5t21.5 41q-25 -18 -59.5 -27.5t-73.5 -9.5q-47 0 -85 12t-65 34.5t-42 53.5t-15 69q0 92 69 144.5t191 52.5q128 0 195.5 -65.5t67.5 -190.5q0 -303 -344 -303zM281 508q22 0 44 5.5t37 13.5
q-5 46 -24 66t-57 20q-39 0 -57 -13t-18 -40q0 -28 17.5 -40t57.5 -12z" />
    <glyph glyph-name="nine.osf" horiz-adv-x="694" 
d="M328 590q166 0 253.5 -87t87.5 -252q0 -371 -431 -371q-38 0 -81.5 4.5t-94.5 15.5l28 156q48 -8 80.5 -11.5t59.5 -3.5q101 0 150.5 31.5t63.5 106.5q-29 -23 -70 -35t-92 -12q-61 0 -110 15t-84 42t-54 66t-19 87q0 56 22.5 101.5t63.5 78t98.5 50.5t128.5 18zM339 270
q32 0 61.5 11t46.5 27q-7 65 -33 94t-75 29q-51 0 -73 -19.5t-22 -63.5q0 -42 22.5 -60t72.5 -18z" />
    <glyph glyph-name="six.osf" horiz-adv-x="705" 
d="M373 -19q-166 0 -253.5 87t-87.5 252q0 371 431 371q38 0 81.5 -4.5t94.5 -15.5l-28 -156q-48 8 -80.5 11.5t-59.5 3.5q-101 0 -150.5 -31.5t-63.5 -106.5q29 23 70 35t92 12q61 0 110 -15t84 -42t54 -66t19 -87q0 -56 -22.5 -101.5t-63.5 -78t-98.5 -50.5t-128.5 -18z
M362 301q-32 0 -61.5 -11t-46.5 -27q7 -65 33 -94t75 -29q51 0 73 19.5t22 63.5q0 42 -22.5 60t-72.5 18z" />
    <glyph glyph-name="nine.tf" 
d="M318 750q149 0 230.5 -87.5t81.5 -258.5q0 -414 -409 -414q-38 0 -79 5t-89 15l28 157q42 -8 74 -11.5t58 -3.5q45 0 78 8t56 26t37 47t21 71q-53 -42 -144 -42q-57 0 -103.5 16t-79 45t-50.5 71t-18 93q0 61 21 110t61 83t97 52t129 18zM318 400q27 0 52.5 9.5
t40.5 25.5q-3 83 -25 119.5t-68 36.5q-45 0 -64.5 -23.5t-19.5 -74.5q0 -50 19.5 -71.5t64.5 -21.5z" />
    <glyph glyph-name="nine.tosf" 
d="M308 590q157 0 240 -87t83 -252q0 -371 -409 -371q-36 0 -77.5 4.5t-90.5 15.5l28 156q45 -8 76 -11.5t56 -3.5q93 0 138.5 31t57.5 105q-53 -45 -148 -45q-57 0 -103.5 15t-79 42t-50.5 66t-18 87q0 56 21 101.5t60 78t94 50.5t122 18zM319 270q28 0 54 10t40 26
q-5 66 -27.5 95.5t-66.5 29.5q-45 0 -64.5 -19.5t-19.5 -63.5q0 -42 19.5 -60t64.5 -18z" />
    <glyph glyph-name="nineinferior" unicode="&#x2089;" horiz-adv-x="570" 
d="M200 -106q-60 0 -145 15l27 136q47 -6 70 -8t41 -2q37 0 65 5t48 15.5t33.5 27.5t21.5 41q-25 -18 -59.5 -27.5t-73.5 -9.5q-47 0 -85 12t-65 34.5t-42 53.5t-15 69q0 92 69 144.5t191 52.5q128 0 195.5 -65.5t67.5 -190.5q0 -303 -344 -303zM281 208q22 0 44 5.5
t37 13.5q-5 46 -24 66t-57 20q-39 0 -57 -13t-18 -40q0 -28 17.5 -40t57.5 -12z" />
    <glyph glyph-name="ninesuperior" unicode="&#x2079;" horiz-adv-x="570" 
d="M200 294q-60 0 -145 15l27 136q47 -6 70 -8t41 -2q37 0 65 5t48 15.5t33.5 27.5t21.5 41q-25 -18 -59.5 -27.5t-73.5 -9.5q-47 0 -85 12t-65 34.5t-42 53.5t-15 69q0 92 69 144.5t191 52.5q128 0 195.5 -65.5t67.5 -190.5q0 -303 -344 -303zM281 608q22 0 44 5.5t37 13.5
q-5 46 -24 66t-57 20q-39 0 -57 -13t-18 -40q0 -28 17.5 -40t57.5 -12z" />
    <glyph glyph-name="notequal" unicode="&#x2260;" horiz-adv-x="561" 
d="M58 528h193l27 99l130 -34l-18 -65h112v-138h-149l-22 -85h171v-138h-208l-31 -117l-130 34l22 83h-97v138h134l22 85h-156v138z" />
    <glyph glyph-name="ntilde" unicode="&#xf1;" horiz-adv-x="694" 
d="M53 540h184l11 -62h9q72 38 127.5 55t101.5 17q73 0 116 -41t43 -111v-398h-220v325q0 29 -11 41.5t-34 12.5q-21 0 -50.5 -6t-56.5 -15v-358h-220v540zM104 660q36 72 84 107t92 35q27 0 53.5 -6.5t53 -14t53 -14t53.5 -6.5q22 0 43.5 7t51.5 30l26 -38
q-38 -72 -85.5 -107t-90.5 -35q-27 0 -53.5 6.5t-53 14t-53 14t-53.5 6.5q-23 0 -45 -7t-50 -30z" />
    <glyph glyph-name="numbersign" unicode="#" horiz-adv-x="687" 
d="M385 171h-105l-14 -171h-144l14 171h-96v131h106l11 131h-117v134h128l14 173h144l-14 -173h105l14 173h144l-14 -173h87v-134h-98l-11 -131h109v-131h-119l-14 -171h-144zM290 302h105l11 131h-105z" />
    <glyph glyph-name="numbersign.tab" 
d="M366 171h-103l-14 -171h-144l14 171h-96v131h106l11 131h-117v134h127l15 173h144l-15 -173h104l15 173h144l-15 -173h87v-134h-97l-11 -131h108v-131h-119l-14 -171h-144zM273 302h104l11 131h-104z" />
    <glyph glyph-name="o" unicode="o" horiz-adv-x="682" 
d="M342 -11q-154 0 -234 72t-80 209t80 208.5t234 71.5t233.5 -71t79.5 -209q0 -137 -79.5 -209t-233.5 -72zM342 154q27 0 45 4.5t28.5 17.5t15 35.5t4.5 58.5t-4.5 58t-15 35t-28.5 17.5t-45 4.5t-45.5 -4.5t-29 -17.5t-15 -35t-4.5 -58t4.5 -58.5t15 -35t29 -17.5
t45.5 -5z" />
    <glyph glyph-name="oacute" unicode="&#xf3;" horiz-adv-x="682" 
d="M251 618l62 190h225l-130 -200zM342 -11q-154 0 -234 72t-80 209t80 208.5t234 71.5t233.5 -71t79.5 -209q0 -137 -79.5 -209t-233.5 -72zM342 154q27 0 45 4.5t28.5 17.5t15 35.5t4.5 58.5t-4.5 58t-15 35t-28.5 17.5t-45 4.5t-45.5 -4.5t-29 -17.5t-15 -35t-4.5 -58
t4.5 -58.5t15 -35t29 -17.5t45.5 -5z" />
    <glyph glyph-name="obreve" unicode="&#x14f;" horiz-adv-x="682" 
d="M342 -11q-154 0 -234 72t-80 209t80 208.5t234 71.5t233.5 -71t79.5 -209q0 -137 -79.5 -209t-233.5 -72zM342 154q27 0 45 4.5t28.5 17.5t15 35.5t4.5 58.5t-4.5 58t-15 35t-28.5 17.5t-45 4.5t-45.5 -4.5t-29 -17.5t-15 -35t-4.5 -58t4.5 -58.5t15 -35t29 -17.5
t45.5 -5zM342 611q-67 0 -112.5 14t-73 39.5t-40 59.5t-13.5 75h143q0 -21 4.5 -36.5t15.5 -26.5t29.5 -16.5t46.5 -5.5t46.5 5.5t29.5 16.5t15.5 26.5t4.5 36.5h143q-1 -42 -13.5 -76.5t-40 -59t-73 -38.5t-112.5 -14z" />
    <glyph glyph-name="ocircumflex" unicode="&#xf4;" horiz-adv-x="682" 
d="M122 741l217 80l221 -80v-142l-219 79l-219 -79v142zM342 -11q-154 0 -234 72t-80 209t80 208.5t234 71.5t233.5 -71t79.5 -209q0 -137 -79.5 -209t-233.5 -72zM342 154q27 0 45 4.5t28.5 17.5t15 35.5t4.5 58.5t-4.5 58t-15 35t-28.5 17.5t-45 4.5t-45.5 -4.5t-29 -17.5
t-15 -35t-4.5 -58t4.5 -58.5t15 -35t29 -17.5t45.5 -5z" />
    <glyph glyph-name="odblgrave" unicode="&#x20d;" horiz-adv-x="682" 
d="M142 608l-131 200h213l62 -190zM381 608l-131 200h212l63 -190zM342 -11q-154 0 -234 72t-80 209t80 208.5t234 71.5t233.5 -71t79.5 -209q0 -137 -79.5 -209t-233.5 -72zM342 154q27 0 45 4.5t28.5 17.5t15 35.5t4.5 58.5t-4.5 58t-15 35t-28.5 17.5t-45 4.5t-45.5 -4.5
t-29 -17.5t-15 -35t-4.5 -58t4.5 -58.5t15 -35t29 -17.5t45.5 -5z" />
    <glyph glyph-name="odieresis" unicode="&#xf6;" horiz-adv-x="682" 
d="M199 607q-57 0 -81 24t-24 78t24 77.5t81 23.5t81 -25t24 -76q0 -54 -24 -78t-81 -24zM483 607q-57 0 -81 24t-24 78t24 77.5t81 23.5t80.5 -25t23.5 -76q0 -54 -23.5 -78t-80.5 -24zM342 -11q-154 0 -234 72t-80 209t80 208.5t234 71.5t233.5 -71t79.5 -209
q0 -137 -79.5 -209t-233.5 -72zM342 154q27 0 45 4.5t28.5 17.5t15 35.5t4.5 58.5t-4.5 58t-15 35t-28.5 17.5t-45 4.5t-45.5 -4.5t-29 -17.5t-15 -35t-4.5 -58t4.5 -58.5t15 -35t29 -17.5t45.5 -5z" />
    <glyph glyph-name="odotbelow" unicode="&#x1ecd;" horiz-adv-x="682" 
d="M345 -220q-48 0 -68 19.5t-20 64.5t20 65t68 20q50 0 69.5 -20.5t19.5 -64.5q0 -43 -19.5 -63.5t-69.5 -20.5zM342 -11q-154 0 -234 72t-80 209t80 208.5t234 71.5t233.5 -71t79.5 -209q0 -137 -79.5 -209t-233.5 -72zM342 154q27 0 45 4.5t28.5 17.5t15 35.5t4.5 58.5
t-4.5 58t-15 35t-28.5 17.5t-45 4.5t-45.5 -4.5t-29 -17.5t-15 -35t-4.5 -58t4.5 -58.5t15 -35t29 -17.5t45.5 -5z" />
    <glyph glyph-name="oe" unicode="&#x153;" horiz-adv-x="1027" 
d="M734 -9q-123 0 -188 48h-10q-34 -24 -83 -37t-111 -13q-154 0 -234 72t-80 209t80 208.5t234 71.5q63 0 112 -13t83 -38l10 1q67 49 191 49q259 0 259 -241q0 -26 -2.5 -48t-8.5 -44h-332q2 -20 8 -32.5t17.5 -19t29.5 -8.5t44 -2q24 0 53 1.5t58.5 4.5t57 7t48.5 9
l5 -154q-52 -14 -115.5 -22.5t-125.5 -8.5zM342 154q27 0 45 4.5t28.5 17.5t15 35.5t4.5 58.5t-4.5 58t-15 35t-28.5 17.5t-45 4.5t-45.5 -4.5t-29 -17.5t-15 -35t-4.5 -58t4.5 -58.5t15 -35t29 -17.5t45.5 -5zM805 322q-2 42 -18.5 60t-58.5 18q-38 0 -55 -16.5t-21 -61.5
h153z" />
    <glyph glyph-name="ograve" unicode="&#xf2;" horiz-adv-x="682" 
d="M342 -11q-154 0 -234 72t-80 209t80 208.5t234 71.5t233.5 -71t79.5 -209q0 -137 -79.5 -209t-233.5 -72zM342 154q27 0 45 4.5t28.5 17.5t15 35.5t4.5 58.5t-4.5 58t-15 35t-28.5 17.5t-45 4.5t-45.5 -4.5t-29 -17.5t-15 -35t-4.5 -58t4.5 -58.5t15 -35t29 -17.5
t45.5 -5zM249 608l-131 200h226l62 -190z" />
    <glyph glyph-name="ohungarumlaut" unicode="&#x151;" horiz-adv-x="682" 
d="M142 618l62 190h212l-130 -200zM381 618l61 190h213l-130 -200zM342 -11q-154 0 -234 72t-80 209t80 208.5t234 71.5t233.5 -71t79.5 -209q0 -137 -79.5 -209t-233.5 -72zM342 154q27 0 45 4.5t28.5 17.5t15 35.5t4.5 58.5t-4.5 58t-15 35t-28.5 17.5t-45 4.5t-45.5 -4.5
t-29 -17.5t-15 -35t-4.5 -58t4.5 -58.5t15 -35t29 -17.5t45.5 -5z" />
    <glyph glyph-name="oinvertedbreve" unicode="&#x20f;" horiz-adv-x="682" 
d="M104 621q1 40 13 74.5t40 59.5t73.5 39.5t112.5 14.5t112.5 -14t73 -39t40 -59.5t13.5 -75.5h-144q0 42 -19.5 63t-75.5 21t-75.5 -21t-20.5 -63h-143zM342 -11q-154 0 -234 72t-80 209t80 208.5t234 71.5t233.5 -71t79.5 -209q0 -137 -79.5 -209t-233.5 -72zM342 154
q27 0 45 4.5t28.5 17.5t15 35.5t4.5 58.5t-4.5 58t-15 35t-28.5 17.5t-45 4.5t-45.5 -4.5t-29 -17.5t-15 -35t-4.5 -58t4.5 -58.5t15 -35t29 -17.5t45.5 -5z" />
    <glyph glyph-name="omacron" unicode="&#x14d;" horiz-adv-x="682" 
d="M123 776h435v-139h-435v139zM342 -11q-154 0 -234 72t-80 209t80 208.5t234 71.5t233.5 -71t79.5 -209q0 -137 -79.5 -209t-233.5 -72zM342 154q27 0 45 4.5t28.5 17.5t15 35.5t4.5 58.5t-4.5 58t-15 35t-28.5 17.5t-45 4.5t-45.5 -4.5t-29 -17.5t-15 -35t-4.5 -58
t4.5 -58.5t15 -35t29 -17.5t45.5 -5z" />
    <glyph glyph-name="one" unicode="1" horiz-adv-x="509" 
d="M205 506h-4l-160 -33h-11l-25 128l2 9l253 130h170v-740h-225v506z" />
    <glyph glyph-name="one.denominator" horiz-adv-x="410" 
d="M165 360l-129 -21h-8l-22 94l1 21l207 92h135v-546h-184v360z" />
    <glyph glyph-name="one.numerator" horiz-adv-x="410" 
d="M165 560l-129 -21h-8l-22 94l1 21l207 92h135v-546h-184v360z" />
    <glyph glyph-name="one.osf" horiz-adv-x="495" 
d="M203 350h-4l-157 -27h-11l-25 127l2 10l250 125h170v-585h-225v350z" />
    <glyph glyph-name="one.tf" 
d="M289 506h-5l-192 -33h-13l-26 128l1 9l293 130h179v-740h-237v506z" />
    <glyph glyph-name="one.tosf" 
d="M295 350h-5l-190 -27h-13l-26 127l1 10l291 125h178v-585h-236v350z" />
    <glyph glyph-name="oneeighth" unicode="&#x215b;" horiz-adv-x="1287" 
d="M998 -5q-264 0 -264 152q0 83 74 129q-29 20 -45 50.5t-16 68.5q0 74 66.5 116t184.5 42q55 0 99.5 -11t75.5 -31.5t47.5 -50t16.5 -65.5t-11.5 -60t-39.5 -42q65 -43 65 -127q0 -87 -61.5 -129t-191.5 -42zM998 120q38 0 55.5 12t17.5 38q0 16 -23.5 28.5t-80.5 26.5
l-15 4q-37 -30 -37 -57q0 -24 22.5 -38t60.5 -14zM1025 330q14 9 23.5 25t9.5 31q0 20 -16.5 30.5t-43.5 10.5q-34 0 -53 -10.5t-19 -28.5q0 -21 20 -34t62 -21zM651 740h186l-345 -740h-186zM183 560l-129 -21h-8l-22 94l1 21l207 92h135v-546h-184v360z" />
    <glyph glyph-name="onehalf" unicode="&#xbd;" horiz-adv-x="1277" 
d="M765 91q0 75 44 125.5t144 88.5q31 11 50 19t29.5 14.5t13.5 12.5t3 13q0 36 -96 36q-31 0 -69 -4t-89 -12l-15 148q69 11 119.5 16t92.5 5q123 0 182 -42t59 -130q0 -124 -157 -183q-42 -18 -58.5 -28.5t-16.5 -15.5v-5h231v-149h-467v91zM651 740h186l-345 -740h-186z
M183 560l-129 -21h-8l-22 94l1 21l207 92h135v-546h-184v360z" />
    <glyph glyph-name="two.denominator" horiz-adv-x="526" 
d="M25 91q0 75 44 125.5t144 88.5q31 11 50 19t29.5 14.5t13.5 12.5t3 13q0 36 -96 36q-31 0 -69 -4t-89 -12l-15 148q69 11 119.5 16t92.5 5q123 0 182 -42t59 -130q0 -124 -157 -183q-42 -18 -58.5 -28.5t-16.5 -15.5v-5h231v-149h-467v91z" />
    <glyph glyph-name="oneinferior" unicode="&#x2081;" horiz-adv-x="410" 
d="M165 260l-129 -21h-8l-22 94l1 21l207 92h135v-546h-184v360z" />
    <glyph glyph-name="onequarter" unicode="&#xbc;" horiz-adv-x="1270" 
d="M970 90h-249l-18 115l196 338l17 7l161 -11l16 -32l-203 -280h92l46 118h126v-118h86v-137h-86v-90h-184v90zM651 740h186l-345 -740h-186zM183 560l-129 -21h-8l-22 94l1 21l207 92h135v-546h-184v360z" />
    <glyph glyph-name="onesuperior" unicode="&#xb9;" horiz-adv-x="410" 
d="M165 660l-129 -21h-8l-22 94l1 21l207 92h135v-546h-184v360z" />
    <glyph glyph-name="onethird" unicode="&#x2153;" horiz-adv-x="1247" 
d="M651 740h186l-345 -740h-186zM183 560l-129 -21h-8l-22 94l1 21l207 92h135v-546h-184v360zM964 -9q-28 0 -56.5 1t-54 3t-46.5 4t-33 5v156h4q11 -3 29 -5t37.5 -3.5t38.5 -2.5t34 -1q35 0 57 1.5t34 5t16.5 9.5t4.5 16q0 11 -5.5 18t-19.5 11t-38.5 5.5t-62.5 1.5h-57
v118h57q32 0 53.5 1.5t34 5.5t18 10.5t5.5 16.5q0 9 -4 15.5t-15 10t-29.5 5t-47.5 1.5q-24 0 -63 -3.5t-77 -8.5h-4v152q15 3 37 5t46 4t47.5 3t41.5 1q256 0 256 -154q0 -82 -73 -116q39 -18 60 -51t21 -78q0 -79 -63 -121t-183 -42z" />
    <glyph glyph-name="three.denominator" horiz-adv-x="498" 
d="M225 -9q-28 0 -56.5 1t-54 3t-46.5 4t-33 5v156h4q11 -3 29 -5t37.5 -3.5t38.5 -2.5t34 -1q35 0 57 1.5t34 5t16.5 9.5t4.5 16q0 11 -5.5 18t-19.5 11t-38.5 5.5t-62.5 1.5h-57v118h57q32 0 53.5 1.5t34 5.5t18 10.5t5.5 16.5q0 9 -4 15.5t-15 10t-29.5 5t-47.5 1.5
q-24 0 -63 -3.5t-77 -8.5h-4v152q15 3 37 5t46 4t47.5 3t41.5 1q256 0 256 -154q0 -82 -73 -116q39 -18 60 -51t21 -78q0 -79 -63 -121t-183 -42z" />
    <glyph glyph-name="oogonek" unicode="&#x1eb;" horiz-adv-x="682" 
d="M353 -214q-78 0 -121 25.5t-43 72.5q0 29 17.5 59t47.5 53q-112 19 -169 88.5t-57 185.5q0 137 80 208.5t234 71.5t233.5 -71t79.5 -209q0 -113 -54 -182t-160 -90q-66 -26 -90 -44.5t-24 -35.5q0 -19 29 -19q14 0 42 5t53 11v-117q-23 -6 -47 -9t-51 -3zM342 154
q27 0 45 4.5t28.5 17.5t15 35.5t4.5 58.5t-4.5 58t-15 35t-28.5 17.5t-45 4.5t-45.5 -4.5t-29 -17.5t-15 -35t-4.5 -58t4.5 -58.5t15 -35t29 -17.5t45.5 -5z" />
    <glyph glyph-name="ordfeminine" unicode="&#xaa;" horiz-adv-x="503" 
d="M161 348q-63 0 -99 34.5t-36 92.5q0 57 41 87.5t116 30.5h99q-1 14 -3.5 22t-8.5 12.5t-17 5.5t-29 1q-33 0 -75 -2.5t-80 -7.5l-7 105q43 8 89 12.5t90 4.5q114 0 164.5 -29.5t50.5 -94.5v-270h-146l-8 47h-4q-24 -22 -61.5 -36.5t-75.5 -14.5zM234 463q12 0 26 2.5
t22 7.5v37l-50 -4q-19 -3 -27 -6t-8 -13q0 -24 37 -24z" />
    <glyph glyph-name="ordmasculine" unicode="&#xba;" horiz-adv-x="518" 
d="M259 466q22 0 34 2.5t18 11t7.5 24t1.5 42.5q0 26 -1.5 42t-7.5 25t-18 12.5t-34 3.5t-34 -3.5t-18 -12.5t-7 -25t-1 -42q0 -27 1 -42.5t7 -24t18 -11t34 -2.5zM259 345q-113 0 -173 49.5t-60 151.5t60 151.5t173 49.5q115 0 174 -49.5t59 -151.5t-59 -151.5t-174 -49.5z
" />
    <glyph glyph-name="oslash" unicode="&#xf8;" horiz-adv-x="689" 
d="M85 90q-53 68 -53 180q0 64 18.5 116t57.5 88.5t98 56t140 19.5q54 0 99 -9.5t80 -26.5l27 26h146l-93 -90q54 -69 54 -180q0 -65 -19 -117t-57.5 -88.5t-97.5 -56t-139 -19.5q-56 0 -101 9.5t-80 26.5l-26 -25h-147zM346 154q34 0 53 6t28 19.5t10.5 36t1.5 54.5v20
l-137 -133q16 -3 44 -3zM252 250l136 132q-18 3 -42 3q-35 0 -54 -6t-28 -19.5t-10.5 -35.5t-1.5 -54v-20z" />
    <glyph glyph-name="oslashacute" unicode="&#x1ff;" horiz-adv-x="689" 
d="M85 90q-53 68 -53 180q0 64 18.5 116t57.5 88.5t98 56t140 19.5q54 0 99 -9.5t80 -26.5l27 26h146l-93 -90q54 -69 54 -180q0 -65 -19 -117t-57.5 -88.5t-97.5 -56t-139 -19.5q-56 0 -101 9.5t-80 26.5l-26 -25h-147zM346 154q34 0 53 6t28 19.5t10.5 36t1.5 54.5v20
l-137 -133q16 -3 44 -3zM252 250l136 132q-18 3 -42 3q-35 0 -54 -6t-28 -19.5t-10.5 -35.5t-1.5 -54v-20zM259 618l62 190h225l-130 -200z" />
    <glyph glyph-name="otilde" unicode="&#xf5;" horiz-adv-x="682" 
d="M342 -11q-154 0 -234 72t-80 209t80 208.5t234 71.5t233.5 -71t79.5 -209q0 -137 -79.5 -209t-233.5 -72zM342 154q27 0 45 4.5t28.5 17.5t15 35.5t4.5 58.5t-4.5 58t-15 35t-28.5 17.5t-45 4.5t-45.5 -4.5t-29 -17.5t-15 -35t-4.5 -58t4.5 -58.5t15 -35t29 -17.5
t45.5 -5zM93 660q36 72 84 107t92 35q27 0 53.5 -6.5t53 -14t53 -14t53.5 -6.5q22 0 43.5 7t51.5 30l26 -38q-38 -72 -85.5 -107t-90.5 -35q-27 0 -53.5 6.5t-53 14t-53 14t-53.5 6.5q-23 0 -45 -7t-50 -30z" />
    <glyph glyph-name="p" unicode="p" horiz-adv-x="695" 
d="M53 540h192l16 -68h9q26 41 67.5 59.5t97.5 18.5q115 0 173 -66t58 -198q0 -73 -22.5 -128.5t-64 -93t-100.5 -56.5t-133 -19q-19 0 -37 1t-36 3v-213h-220v760zM351 139q30 0 48.5 4.5t28.5 18.5t13.5 39.5t3.5 67.5q0 37 -3 61t-12 38t-25 19t-41 5q-51 0 -71 -25.5
t-20 -90.5v-128q30 -9 78 -9z" />
    <glyph glyph-name="paragraph" unicode="&#xb6;" horiz-adv-x="707" 
d="M447 0h-89v266q-29 -1 -48.5 -1h-44.5q-55 0 -99 12.5t-75 40.5t-47.5 74t-16.5 113t16.5 113t47.5 74t75 40.5t100 12.5q39 0 87 -2.5t94 -7.5v-735zM623 0h-123v735h123v-735z" />
    <glyph glyph-name="paragraph.tab" 
d="M417 0h-89v266q-27 -1 -47 -1h-43q-54 0 -97 12.5t-73.5 40.5t-46.5 74t-16 113t16.5 113t46.5 74t73.5 40.5t97.5 12.5q38 0 85.5 -2.5t92.5 -7.5v-735zM591 0h-122v735h122v-735z" />
    <glyph glyph-name="parenleft" unicode="(" horiz-adv-x="370" 
d="M181 -160q-77 113 -115 245t-38 269t38 269t115 245h191v-4q-77 -113 -124 -243.5t-47 -266.5t47 -266.5t124 -243.5v-4h-191v0z" />
    <glyph glyph-name="parenleft.sc" horiz-adv-x="365" 
d="M171 -125q-69 89 -103 192t-34 209t34 209t103 192h182v-3q-69 -89 -112 -191t-43 -207q0 -104 43 -206t112 -192v-3h-182v0z" />
    <glyph glyph-name="parenright" unicode=")" horiz-adv-x="370" 
d="M-2 -160v4q77 113 124 243.5t47 266.5t-47 266.5t-124 243.5v4h191q77 -113 115 -245t38 -269t-38 -269t-115 -245h-191z" />
    <glyph glyph-name="parenright.sc" horiz-adv-x="364" 
d="M12 -125v3q69 90 112 192t43 206q0 105 -43 207t-112 191v3h180q69 -89 103.5 -192t34.5 -209t-34.5 -209t-103.5 -192h-180z" />
    <glyph glyph-name="partialdiff" unicode="&#x2202;" horiz-adv-x="606" 
d="M303 -4q-69 0 -120.5 20.5t-85.5 57t-51 87t-17 109.5q0 51 16 95t45.5 76.5t71.5 50.5t95 18q27 0 52.5 -10t48.5 -28q-8 77 -30 106.5t-63 29.5q-29 0 -66.5 -10.5t-71.5 -27.5l-43 120q38 32 90 48.5t108 16.5q139 0 212.5 -105t73.5 -317q0 -79 -18.5 -141.5
t-52.5 -106t-83.5 -66.5t-110.5 -23zM299 155q17 0 29.5 6t20.5 23t11.5 47t3.5 79v42q-27 18 -53 18q-30 0 -53.5 -25t-23.5 -75q0 -57 17 -86t48 -29z" />
    <glyph glyph-name="percent" unicode="%" horiz-adv-x="1182" 
d="M260 277q-112 0 -172.5 58.5t-60.5 177.5t61 178.5t172 59.5q112 0 172.5 -59.5t60.5 -178.5t-60.5 -177.5t-172.5 -58.5zM260 408q41 0 59 21t18 84q0 32 -4.5 52.5t-13.5 32.5t-23.5 16.5t-35.5 4.5q-42 0 -60 -21.5t-18 -84.5t18 -84t60 -21zM922 -10
q-112 0 -172.5 59t-60.5 178t61 178t172 59q112 0 172.5 -59t60.5 -178t-60.5 -178t-172.5 -59zM922 121q21 0 35.5 4.5t23.5 16.5t13.5 32.5t4.5 52.5q0 63 -18 84.5t-59 21.5q-42 0 -60 -21.5t-18 -84.5t18 -84.5t60 -21.5zM670 740h185l-345 -740h-185z" />
    <glyph glyph-name="percent.tab" 
d="M62 296q-81 0 -127 54t-46 163t46 164t127 55q82 0 127 -55t45 -164t-45 -163t-127 -54zM62 408q25 0 36 21t11 84q0 32 -2.5 52.5t-8 32.5t-14.5 16.5t-22 4.5q-27 0 -37.5 -21.5t-10.5 -84.5t10.5 -84t37.5 -21zM591 9q-81 0 -126.5 54.5t-45.5 163.5t45.5 163.5
t126.5 54.5t126.5 -54.5t45.5 -163.5q0 -110 -45.5 -164t-126.5 -54zM591 121q13 0 22 4.5t14.5 16.5t8 32.5t2.5 52.5q0 63 -10.5 84.5t-36.5 21.5q-27 0 -37 -21.5t-10 -84.5t10 -84.5t37 -21.5zM374 740h157l-254 -740h-157z" />
    <glyph glyph-name="period.tab" horiz-adv-x="326" 
d="M162 -10q-56 0 -88 27t-32 85t32 84.5t88 26.5q57 0 89 -26.5t32 -84.5t-32 -85t-89 -27z" />
    <glyph glyph-name="periodcentered.tab" horiz-adv-x="326" 
d="M164 257q-64 0 -91 26.5t-27 86.5t27 87t91 27q63 0 89.5 -28t26.5 -86t-26.5 -85.5t-89.5 -27.5z" />
    <glyph glyph-name="perthousand" unicode="&#x2030;" horiz-adv-x="1666" 
d="M260 277q-111 0 -172 58.5t-61 177.5t61 178.5t172 59.5q112 0 172.5 -59.5t60.5 -178.5t-60.5 -177.5t-172.5 -58.5zM260 408q41 0 59 21t18 84t-18 84.5t-59 21.5q-42 0 -60 -21.5t-18 -84.5t18 -84t60 -21zM922 -10q-111 0 -172 59t-61 178t61 178t172 59
q112 0 172.5 -59t60.5 -178t-60.5 -178t-172.5 -59zM922 121q21 0 35.5 4.5t23.5 16.5t13.5 32.5t4.5 52.5q0 63 -18 84.5t-59 21.5q-42 0 -60 -21.5t-18 -84.5t18 -84.5t60 -21.5zM1406 -10q-114 0 -173.5 60t-59.5 177q0 116 59.5 176.5t173.5 60.5q115 0 174.5 -60.5
t59.5 -176.5q0 -117 -59.5 -177t-174.5 -60zM1406 121q44 0 61 23t17 83q0 59 -17 82.5t-61 23.5t-60.5 -23t-16.5 -83t16.5 -83t60.5 -23zM670 740h185l-345 -740h-185z" />
    <glyph glyph-name="pi" unicode="&#x3c0;" horiz-adv-x="900" 
d="M223 370h-18q-32 0 -48 -11t-19 -37l-140 41q2 87 51.5 132.5t146.5 45.5l605 -1l74 -55v-115h-151v-149q0 -42 14.5 -57t53.5 -15q26 0 58 12v-161q-23 -7 -60 -11.5t-74 -4.5q-102 0 -154.5 47t-52.5 138v201h-71v-487h-215v487z" />
    <glyph glyph-name="plus" unicode="+" horiz-adv-x="529" 
d="M28 437h170v155h134v-155h170v-134h-170v-155h-134v155h-170v134z" />
    <glyph glyph-name="plus.tab" 
d="M56 437h199v155h143v-155h198v-134h-198v-155h-143v155h-199v134z" />
    <glyph glyph-name="plusminus" unicode="&#xb1;" horiz-adv-x="548" 
d="M46 491h160v155h134v-155h160v-134h-160v-145h-134v145h-160v134zM47 168h454v-134h-454v134z" />
    <glyph glyph-name="plusminus.tab" 
d="M72 491h183v155h141v-155h184v-134h-184v-145h-141v145h-183v134zM73 168h508v-134h-508v134z" />
    <glyph glyph-name="product" unicode="&#x220f;" horiz-adv-x="809" 
d="M78 740h653v-862h-220v693h-213v-693h-220v862z" />
    <glyph glyph-name="q" unicode="q" horiz-adv-x="693" 
d="M431 68q-32 -42 -74 -60t-97 -18q-231 0 -231 264q0 74 22 129.5t64 93t102 56t136 18.5q81 0 156.5 -9.5t132.5 -17.5v-744h-211v288zM331 148q51 0 71 26t20 90v129q-32 8 -78 8q-31 0 -50 -4.5t-29 -18t-13.5 -38.5t-3.5 -66q0 -38 3 -62.5t12 -38.5t25.5 -19.5
t42.5 -5.5z" />
    <glyph glyph-name="question" unicode="?" horiz-adv-x="500" 
d="M143 260l-17 175q73 14 111 36.5t38 52.5q0 32 -24.5 44t-74.5 12q-18 0 -37.5 -1.5t-38 -3.5t-35.5 -4.5t-30 -5.5l-5 162q50 10 94.5 14.5t94.5 4.5q124 0 190 -51t66 -146q0 -81 -48 -133t-136 -68l-9 -87v-14h-139v13zM217 -10q-51 0 -78.5 26t-27.5 74t27.5 74
t78.5 26t78.5 -26t27.5 -74t-27.5 -74t-78.5 -26z" />
    <glyph glyph-name="questiondown" unicode="&#xbf;" horiz-adv-x="496" 
d="M355 278l17 -175q-73 -14 -111 -36.5t-38 -52.5q0 -32 24.5 -44t74.5 -12q18 0 37.5 1.5t38 3.5t35.5 4.5t30 5.5l5 -162q-50 -10 -94.5 -14.5t-94.5 -4.5q-124 0 -190 51t-66 146q0 81 48 133t136 68l9 87v14h139v-13zM281 548q51 0 78.5 -26t27.5 -74t-27.5 -74
t-78.5 -26t-78.5 26t-27.5 74t27.5 74t78.5 26z" />
    <glyph glyph-name="quotedbl" unicode="&#x22;" horiz-adv-x="489" 
d="M219 808v-4l-52 -324h-119v328h171zM464 808v-4l-52 -324h-119v328h171z" />
    <glyph glyph-name="quotesingle" unicode="'" horiz-adv-x="244" 
d="M219 808v-4l-52 -324h-119v328h171z" />
    <glyph glyph-name="quotedbl.tab" horiz-adv-x="326" 
d="M128 808v-4l-58 -324h-125v328h183zM406 808v-4l-57 -324h-125v328h182z" />
    <glyph glyph-name="quotedblbase" unicode="&#x201e;" horiz-adv-x="525" 
d="M223 151q4 -14 7 -31t3 -34q0 -59 -23.5 -128.5t-69.5 -130.5l-118 2q19 34 28.5 85t9.5 105q0 36 -5 66.5t-19 62.5zM473 151q4 -14 7 -31t3 -34q0 -59 -23.5 -128.5t-69.5 -130.5l-118 2q19 34 28.5 85t9.5 105q0 36 -5 66.5t-19 62.5z" />
    <glyph glyph-name="quoteright" unicode="&#x2019;" horiz-adv-x="267" 
d="M231 809q4 -14 7 -31t3 -34q0 -59 -23.5 -128.5t-69.5 -130.5l-118 2q19 34 28.5 85t9.5 105q0 36 -5 66.5t-19 62.5z" />
    <glyph glyph-name="quotedblleft" unicode="&#x201c;" horiz-adv-x="520" 
d="M42 485q-4 14 -7 31t-3 34q0 59 23.5 128.5t69.5 130.5l118 -2q-18 -34 -28 -85t-10 -105q0 -36 5 -66.5t19 -62.5zM292 485q-4 14 -7 31t-3 34q0 59 23.5 128.5t69.5 130.5l118 -2q-18 -34 -28 -85t-10 -105q0 -36 5 -66.5t19 -62.5z" />
    <glyph glyph-name="quoteleft" unicode="&#x2018;" horiz-adv-x="271" 
d="M42 485q-4 14 -7 31t-3 34q0 59 23.5 128.5t69.5 130.5l118 -2q-18 -34 -28 -85t-10 -105q0 -36 5 -66.5t19 -62.5l-187 -3v0z" />
    <glyph glyph-name="quotedblright" unicode="&#x201d;" horiz-adv-x="517" 
d="M231 809q4 -14 7 -31t3 -34q0 -59 -23.5 -128.5t-69.5 -130.5l-118 2q19 34 28.5 85t9.5 105q0 36 -5 66.5t-19 62.5zM481 809q4 -14 7 -31t3 -34q0 -59 -23.5 -128.5t-69.5 -130.5l-118 2q19 34 28.5 85t9.5 105q0 36 -5 66.5t-19 62.5z" />
    <glyph glyph-name="quotesinglbase" unicode="&#x201a;" horiz-adv-x="275" 
d="M223 151q4 -14 7 -31t3 -34q0 -59 -23.5 -128.5t-69.5 -130.5l-118 2q19 34 28.5 85t9.5 105q0 36 -5 66.5t-19 62.5z" />
    <glyph glyph-name="quotesingle.tab" horiz-adv-x="326" 
d="M266 808v-4l-56 -324h-124v328h180z" />
    <glyph glyph-name="r" unicode="r" horiz-adv-x="492" 
d="M53 540h184l11 -83h5q15 15 34 29t40.5 26.5t43 22.5t41.5 15h70v-178h-77q-20 -2 -40 -6t-37.5 -10t-31.5 -13.5t-23 -14.5v-328h-220v540z" />
    <glyph glyph-name="racute" unicode="&#x155;" horiz-adv-x="492" 
d="M176 618l62 190h225l-130 -200zM53 540h184l11 -83h5q15 15 34 29t40.5 26.5t43 22.5t41.5 15h70v-178h-77q-20 -2 -40 -6t-37.5 -10t-31.5 -13.5t-23 -14.5v-328h-220v540z" />
    <glyph glyph-name="radical" unicode="&#x221a;" horiz-adv-x="753" 
d="M148 353l-93 -40l-64 156l278 111l139 -393l144 671h203l-207 -858h-260z" />
    <glyph glyph-name="rcaron" unicode="&#x159;" horiz-adv-x="492" 
d="M44 821l219 -80l219 80v-143l-221 -79l-217 79v143zM53 540h184l11 -83h5q15 15 34 29t40.5 26.5t43 22.5t41.5 15h70v-178h-77q-20 -2 -40 -6t-37.5 -10t-31.5 -13.5t-23 -14.5v-328h-220v540z" />
    <glyph glyph-name="rcommaaccent" unicode="&#x157;" horiz-adv-x="492" 
d="M49 -70h225l-101 -150h-164zM53 540h184l11 -83h5q15 15 34 29t40.5 26.5t43 22.5t41.5 15h70v-178h-77q-20 -2 -40 -6t-37.5 -10t-31.5 -13.5t-23 -14.5v-328h-220v540z" />
    <glyph glyph-name="rdblgrave" unicode="&#x211;" horiz-adv-x="492" 
d="M72 608l-131 200h213l62 -190zM311 608l-131 200h212l63 -190zM53 540h184l11 -83h5q15 15 34 29t40.5 26.5t43 22.5t41.5 15h70v-178h-77q-20 -2 -40 -6t-37.5 -10t-31.5 -13.5t-23 -14.5v-328h-220v540z" />
    <glyph glyph-name="rdotbelow" unicode="&#x1e5b;" horiz-adv-x="492" 
d="M53 540h184l11 -83h5q15 15 34 29t40.5 26.5t43 22.5t41.5 15h70v-178h-77q-20 -2 -40 -6t-37.5 -10t-31.5 -13.5t-23 -14.5v-328h-220v540zM159 -220q-48 0 -68 19.5t-20 64.5t20 65t68 20q50 0 69.5 -20.5t19.5 -64.5q0 -43 -19.5 -63.5t-69.5 -20.5z" />
    <glyph glyph-name="registered" unicode="&#xae;" horiz-adv-x="689" 
d="M236 608q26 2 50.5 3.5t48.5 1.5q132 0 132 -100q0 -33 -13.5 -56t-40.5 -32l60 -122h-81l-45 99h-31v-99h-80v305zM335 462q31 0 40.5 11.5t9.5 37.5q0 20 -8.5 32.5t-33.5 12.5h-27v-94h19zM344 144q-69 0 -125.5 22t-96.5 62t-62 96t-22 124t22 124t62 96t96.5 62
t125.5 22t125.5 -22t96.5 -62t62 -96t22 -124t-22 -124t-62 -96t-96.5 -62t-125.5 -22zM344 222q52 0 93.5 16t70 45.5t43.5 71.5t15 93t-15 93t-43.5 71.5t-70 45.5t-93.5 16q-53 0 -94 -16t-69.5 -45.5t-43.5 -71.5t-15 -93t15 -93t43.5 -71.5t69.5 -45.5t94 -16z" />
    <glyph glyph-name="rinvertedbreve" unicode="&#x213;" horiz-adv-x="492" 
d="M26 621q1 40 13 74.5t40 59.5t73.5 39.5t112.5 14.5t112.5 -14t73 -39t40 -59.5t13.5 -75.5h-144q0 42 -19.5 63t-75.5 21t-75.5 -21t-20.5 -63h-143zM53 540h184l11 -83h5q15 15 34 29t40.5 26.5t43 22.5t41.5 15h70v-178h-77q-20 -2 -40 -6t-37.5 -10t-31.5 -13.5
t-23 -14.5v-328h-220v540z" />
    <glyph glyph-name="s" unicode="s" horiz-adv-x="573" 
d="M273 -11q-25 0 -55 1.5t-61.5 4.5t-62.5 7.5t-58 10.5v147q66 -14 121 -20.5t106 -6.5q40 0 56.5 5t16.5 18q0 14 -17 21t-62 11q-34 3 -72 8.5t-70.5 23t-54 51.5t-21.5 95q0 88 67.5 136.5t188.5 48.5q49 0 102 -5t126 -16l-6 -158q-60 13 -111.5 20t-86.5 7
q-38 0 -54.5 -6t-16.5 -20t21.5 -21t77.5 -13q46 -5 83 -16t62.5 -30.5t39.5 -48.5t14 -71q0 -184 -273 -184z" />
    <glyph glyph-name="sacute" unicode="&#x15b;" horiz-adv-x="573" 
d="M192 618l62 190h225l-130 -200zM273 -11q-25 0 -55 1.5t-61.5 4.5t-62.5 7.5t-58 10.5v147q66 -14 121 -20.5t106 -6.5q40 0 56.5 5t16.5 18q0 14 -17 21t-62 11q-34 3 -72 8.5t-70.5 23t-54 51.5t-21.5 95q0 88 67.5 136.5t188.5 48.5q49 0 102 -5t126 -16l-6 -158
q-60 13 -111.5 20t-86.5 7q-38 0 -54.5 -6t-16.5 -20t21.5 -21t77.5 -13q46 -5 83 -16t62.5 -30.5t39.5 -48.5t14 -71q0 -184 -273 -184z" />
    <glyph glyph-name="scaron" unicode="&#x161;" horiz-adv-x="573" 
d="M70 821l219 -80l219 80v-143l-221 -79l-217 79v143zM273 -11q-25 0 -55 1.5t-61.5 4.5t-62.5 7.5t-58 10.5v147q66 -14 121 -20.5t106 -6.5q40 0 56.5 5t16.5 18q0 14 -17 21t-62 11q-34 3 -72 8.5t-70.5 23t-54 51.5t-21.5 95q0 88 67.5 136.5t188.5 48.5q49 0 102 -5
t126 -16l-6 -158q-60 13 -111.5 20t-86.5 7q-38 0 -54.5 -6t-16.5 -20t21.5 -21t77.5 -13q46 -5 83 -16t62.5 -30.5t39.5 -48.5t14 -71q0 -184 -273 -184z" />
    <glyph glyph-name="schwa" unicode="&#x259;" horiz-adv-x="622" 
d="M293 549q300 0 300 -276q0 -140 -76 -211t-228 -71q-72 0 -121 15.5t-79.5 47.5t-44 82.5t-13.5 121.5q0 25 1.5 41.5t5.5 39.5h342q-5 30 -28 36.5t-79 6.5q-47 0 -100 -3t-116 -14l-5 153q51 14 114.5 22.5t126.5 8.5zM302 147q43 0 59.5 14.5t20.5 53.5h-161
q0 -20 4 -33t13 -21t24.5 -11t39.5 -3z" />
    <glyph glyph-name="scircumflex" unicode="&#x15d;" horiz-adv-x="573" 
d="M72 741l217 80l221 -80v-142l-219 79l-219 -79v142zM273 -11q-25 0 -55 1.5t-61.5 4.5t-62.5 7.5t-58 10.5v147q66 -14 121 -20.5t106 -6.5q40 0 56.5 5t16.5 18q0 14 -17 21t-62 11q-34 3 -72 8.5t-70.5 23t-54 51.5t-21.5 95q0 88 67.5 136.5t188.5 48.5q49 0 102 -5
t126 -16l-6 -158q-60 13 -111.5 20t-86.5 7q-38 0 -54.5 -6t-16.5 -20t21.5 -21t77.5 -13q46 -5 83 -16t62.5 -30.5t39.5 -48.5t14 -71q0 -184 -273 -184z" />
    <glyph glyph-name="sdotbelow" unicode="&#x1e63;" horiz-adv-x="573" 
d="M273 -11q-25 0 -55 1.5t-61.5 4.5t-62.5 7.5t-58 10.5v147q66 -14 121 -20.5t106 -6.5q40 0 56.5 5t16.5 18q0 14 -17 21t-62 11q-34 3 -72 8.5t-70.5 23t-54 51.5t-21.5 95q0 88 67.5 136.5t188.5 48.5q49 0 102 -5t126 -16l-6 -158q-60 13 -111.5 20t-86.5 7
q-38 0 -54.5 -6t-16.5 -20t21.5 -21t77.5 -13q46 -5 83 -16t62.5 -30.5t39.5 -48.5t14 -71q0 -184 -273 -184zM302 -220q-48 0 -68 19.5t-20 64.5t20 65t68 20q50 0 69.5 -20.5t19.5 -64.5q0 -43 -19.5 -63.5t-69.5 -20.5z" />
    <glyph glyph-name="section" unicode="&#xa7;" horiz-adv-x="599" 
d="M284 -11q-25 0 -55 1.5t-61.5 4.5t-62.5 7.5t-58 10.5v147q66 -14 121 -20.5t106 -6.5q40 0 56.5 5t16.5 18q0 14 -17 21t-62 11q-34 3 -72 8.5t-70.5 23t-54 51.5t-21.5 95t36 106q-17 17 -26.5 42.5t-9.5 61.5q0 88 67.5 136.5t188.5 48.5q49 0 101.5 -5t125.5 -16
l-5 -158q-60 13 -111.5 20t-86.5 7q-38 0 -54.5 -6t-16.5 -20t21.5 -21t77.5 -13q46 -4 83 -15t62.5 -30.5t39.5 -49t14 -71.5q0 -71 -40 -114q40 -35 40 -96q0 -184 -273 -184zM345 324q5 12 5 26q0 29 -10.5 41t-37.5 17q-1 0 -6.5 1.5t-11.5 2.5t-11.5 2t-6.5 1
q-9 -12 -9 -30q0 -24 11 -36t42 -19q1 0 6 -1t11 -2t11 -2t7 -1z" />
    <glyph glyph-name="section.tab" 
d="M310 -11q-26 0 -57 1.5t-63.5 4.5t-64.5 7.5t-61 10.5v147q133 -27 235 -27q44 0 62.5 5t18.5 18q0 14 -19 21t-67 11q-35 3 -75 8.5t-73.5 23t-55.5 51.5t-22 95q0 62 38 106q-18 17 -28 42.5t-10 61.5q0 88 70 136.5t195 48.5q50 0 104.5 -5t130.5 -16l-5 -158
q-63 13 -116 20t-89 7q-79 0 -79 -26q0 -14 23.5 -21t83.5 -13q48 -4 86 -15t65 -30.5t41.5 -49t14.5 -71.5q0 -71 -42 -114q20 -17 31 -40.5t11 -55.5q0 -184 -283 -184zM376 324q2 5 4 11.5t2 14.5q0 29 -11.5 41t-41.5 17q-1 0 -7 1.5t-13.5 2.5t-13.5 2t-7 1
q-11 -14 -11 -30q0 -24 13.5 -36t46.5 -19q1 0 6.5 -1t12 -2t12.5 -2t8 -1z" />
    <glyph glyph-name="semicolon" unicode=";" horiz-adv-x="325" 
d="M20 -145l42 354h220l-99 -364zM168 328q-56 0 -88 27t-32 85t32 84.5t88 26.5t88 -26.5t32 -84.5t-32 -85t-88 -27z" />
    <glyph glyph-name="semicolon.tab" horiz-adv-x="326" 
d="M24 -145l40 354h217l-96 -364zM168 328q-54 0 -85.5 26.5t-31.5 84.5q0 59 31.5 85t85.5 26q55 0 86.5 -26t31.5 -85q0 -58 -31.5 -84.5t-86.5 -26.5z" />
    <glyph glyph-name="servicemark" unicode="&#x2120;" horiz-adv-x="1014" 
d="M214 312q-35 0 -80.5 5t-86.5 13v112q49 -11 87 -17t68 -6q29 0 41.5 5t12.5 16q0 12 -12.5 19t-44.5 12q-78 11 -113 44.5t-35 96.5t47.5 97.5t133.5 34.5q29 0 60.5 -3.5t82.5 -14.5v-109q-32 9 -68 15t-62 6q-53 0 -53 -23q0 -14 15.5 -22.5t48.5 -14.5
q73 -12 107.5 -43.5t34.5 -83.5q0 -139 -184 -139zM441 740h178l80 -234l81 234h178v-420h-123v257l-83 -240h-105l-83 240v-257h-123v420z" />
    <glyph glyph-name="seven" unicode="7" horiz-adv-x="586" 
d="M279 -26l-191 26v21l245 531h-310l-7 169l22 19h513l29 -120v-13l-253 -606z" />
    <glyph glyph-name="seven.denominator" horiz-adv-x="453" 
d="M206 -17l-120 15l-17 37l187 363h-240v121l23 21h385l25 -77v-23l-205 -440z" />
    <glyph glyph-name="seven.numerator" horiz-adv-x="453" 
d="M206 183l-120 15l-17 37l187 363h-240v121l23 21h385l25 -77v-23l-205 -440z" />
    <glyph glyph-name="seven.osf" horiz-adv-x="574" 
d="M273 -183l-191 26v21l246 532h-311l-8 168l22 20h513l30 -120v-14l-253 -606z" />
    <glyph glyph-name="seven.tf" 
d="M306 -26l-195 26v21l267 531h-339l-7 169l22 19h546l31 -120v-13l-275 -606z" />
    <glyph glyph-name="seven.tosf" 
d="M306 -183l-195 26v21l267 532h-338l-8 168l22 20h547l30 -120v-14l-275 -606z" />
    <glyph glyph-name="seveneighths" unicode="&#x215e;" horiz-adv-x="1239" 
d="M611 740h186l-345 -740h-186zM955 -5q-264 0 -264 152q0 83 74 129q-29 20 -45 50.5t-16 68.5q0 74 66.5 116t184.5 42q55 0 99.5 -11t75.5 -31.5t47.5 -50t16.5 -65.5t-11.5 -60t-39.5 -42q65 -43 65 -127q0 -87 -61.5 -129t-191.5 -42zM955 120q38 0 55.5 12t17.5 38
q0 16 -23.5 28.5t-80.5 26.5l-15 4q-37 -30 -37 -57q0 -24 22.5 -38t60.5 -14zM982 330q14 9 23.5 25t9.5 31q0 20 -16.5 30.5t-43.5 10.5q-34 0 -53 -10.5t-19 -28.5q0 -21 20 -34t62 -21zM216 183l-120 15l-17 37l187 363h-240v121l23 21h385l25 -77v-23l-205 -440z" />
    <glyph glyph-name="seveninferior" unicode="&#x2087;" horiz-adv-x="453" 
d="M206 -117l-120 15l-17 37l187 363h-240v121l23 21h385l25 -77v-23l-205 -440z" />
    <glyph glyph-name="sevensuperior" unicode="&#x2077;" horiz-adv-x="453" 
d="M206 283l-120 15l-17 37l187 363h-240v121l23 21h385l25 -77v-23l-205 -440z" />
    <glyph glyph-name="six.denominator" horiz-adv-x="570" 
d="M289 -6q-127 0 -195.5 65t-68.5 191q0 303 345 303q61 0 145 -15l-27 -136q-35 5 -62 7.5t-50 2.5q-74 0 -112.5 -19.5t-54.5 -69.5q26 19 60 28t72 9q46 0 84 -12t65.5 -34t43 -53t15.5 -70q0 -92 -69 -144.5t-191 -52.5zM289 135q39 0 57 12.5t18 39.5q0 28 -17.5 40
t-57.5 12q-23 0 -45.5 -5.5t-36.5 -13.5q5 -45 24.5 -65t57.5 -20z" />
    <glyph glyph-name="six.numerator" horiz-adv-x="570" 
d="M289 194q-127 0 -195.5 65t-68.5 191q0 303 345 303q61 0 145 -15l-27 -136q-35 5 -62 7.5t-50 2.5q-74 0 -112.5 -19.5t-54.5 -69.5q26 19 60 28t72 9q46 0 84 -12t65.5 -34t43 -53t15.5 -70q0 -92 -69 -144.5t-191 -52.5zM289 335q39 0 57 12.5t18 39.5q0 28 -17.5 40
t-57.5 12q-23 0 -45.5 -5.5t-36.5 -13.5q5 -45 24.5 -65t57.5 -20z" />
    <glyph glyph-name="six.tf" 
d="M335 -10q-152 0 -235 88t-83 258q0 414 416 414q39 0 81 -5t90 -15l-28 -156q-43 8 -75 11.5t-59 3.5q-92 0 -138.5 -34.5t-59.5 -118.5q54 42 149 42q58 0 105.5 -16t81 -45t52 -71t18.5 -93q0 -61 -22 -110t-62.5 -83t-99 -52t-131.5 -18zM335 340q-29 0 -55 -10
t-43 -25q3 -83 26.5 -119.5t71.5 -36.5q47 0 67.5 23.5t20.5 74.5q0 50 -20 71.5t-68 21.5z" />
    <glyph glyph-name="six.tosf" 
d="M345 -19q-160 0 -244.5 87t-84.5 252q0 371 416 371q38 0 80 -4.5t91 -15.5l-27 -156q-46 8 -77.5 11.5t-57.5 3.5q-95 0 -143 -31t-60 -106q57 46 154 46q58 0 105.5 -15t81.5 -42t52 -66t18 -87q0 -56 -22 -101.5t-61.5 -78t-95.5 -50.5t-125 -18zM334 301
q-29 0 -56.5 -10.5t-42.5 -25.5q6 -66 29.5 -95.5t69.5 -29.5q48 0 68 19.5t20 63.5q0 42 -20.5 60t-67.5 18z" />
    <glyph glyph-name="sixinferior" unicode="&#x2086;" horiz-adv-x="570" 
d="M289 -106q-127 0 -195.5 65t-68.5 191q0 303 345 303q61 0 145 -15l-27 -136q-35 5 -62 7.5t-50 2.5q-74 0 -112.5 -19.5t-54.5 -69.5q26 19 60 28t72 9q46 0 84 -12t65.5 -34t43 -53t15.5 -70q0 -92 -69 -144.5t-191 -52.5zM289 35q39 0 57 12.5t18 39.5q0 28 -17.5 40
t-57.5 12q-23 0 -45.5 -5.5t-36.5 -13.5q5 -45 24.5 -65t57.5 -20z" />
    <glyph glyph-name="sixsuperior" unicode="&#x2076;" horiz-adv-x="570" 
d="M289 294q-127 0 -195.5 65t-68.5 191q0 303 345 303q61 0 145 -15l-27 -136q-35 5 -62 7.5t-50 2.5q-74 0 -112.5 -19.5t-54.5 -69.5q26 19 60 28t72 9q46 0 84 -12t65.5 -34t43 -53t15.5 -70q0 -92 -69 -144.5t-191 -52.5zM289 435q39 0 57 12.5t18 39.5q0 28 -17.5 40
t-57.5 12q-23 0 -45.5 -5.5t-36.5 -13.5q5 -45 24.5 -65t57.5 -20z" />
    <glyph glyph-name="slash" unicode="/" horiz-adv-x="474" 
d="M266 740h188l-245 -860h-189z" />
    <glyph glyph-name="slash.tab" 
d="M385 740h207l-324 -860h-206z" />
    </font>
</defs>
</svg>
