<?xml version="1.0" standalone="no"?>
<!DOCTYPE svg PUBLIC "-//W3C//DTD SVG 1.1//EN" "http://www.w3.org/Graphics/SVG/1.1/DTD/svg11.dtd" >
<svg version="1.1" xmlns="http://www.w3.org/2000/svg">
<metadata>
Created by FontForge 20120731 at Fri Aug  1 16:50:29 2014

Linux Libertine by Philipp H. Poll,
Open Font under Terms of following Free Software Licenses:
GPL (General Public License) with font-exception and OFL (Open Font License).
Created with FontForge (http://fontforge.sf.net)
Sept 2003, 2004, 2005, 2006, 2007, 2008, 2009, 2010, 2011,2012
</metadata>
<defs>
<font id="linuxlibertine" horiz-adv-x="0" >
  <font-face 
    font-family="Linux Libertine O"
    font-weight="400"
    font-stretch="normal"
    units-per-em="1000"
    panose-1="2 0 5 3 0 0 0 0 0 0"
    ascent="800"
    descent="-200"
    x-height="430.999"
    cap-height="647"
    bbox="-1082 -255.999 6171 1125"
    underline-thickness="40"
    underline-position="-98"
    stemh="36"
    stemv="79"
    unicode-range="U+0020-1D550"
  />
<missing-glyph horiz-adv-x="500" 
d="M50 603v-508l170 254zM80 50h340l-170 254zM280 349l170 -254v508zM250 394l170 253h-340zM0 0v698h500v-698h-500z" />
    <glyph glyph-name="ellipsis" unicode="&#x2e;&#x2e;&#x2e;" horiz-adv-x="749" 
d="M57 43c0 29 24 53 53 53s53 -24 53 -53s-24 -53 -53 -53s-53 24 -53 53zM322 43c0 29 24 53 53 53s53 -24 53 -53s-24 -53 -53 -53s-53 24 -53 53zM586 43c0 29 24 53 53 53s53 -24 53 -53s-24 -53 -53 -53s-53 24 -53 53z" />
    <glyph glyph-name="exclamdbl" unicode="&#x21;&#x21;" horiz-adv-x="472" 
d="M328 660c24 0 53 -19 53 -73c0 -65 -14 -107 -24 -193c-13 -108 -13 -168 -15 -182c-1 -11 -4 -20 -14 -20s-13 7 -14 13c-2 21 -8 111 -16 189c-9 88 -23 123 -23 193c0 54 29 73 53 73zM275 45c0 29 24 53 53 53s53 -24 53 -53s-24 -53 -53 -53s-53 24 -53 53zM144 658
c24 0 53 -19 53 -73c0 -65 -14 -107 -24 -193c-13 -108 -13 -168 -15 -182c-1 -11 -4 -20 -14 -20s-13 7 -14 13c-2 21 -8 111 -16 189c-9 88 -23 123 -23 193c0 54 29 73 53 73zM91 43c0 29 24 53 53 53s53 -24 53 -53s-24 -53 -53 -53s-53 24 -53 53z" />
    <glyph glyph-name="question_question" unicode="&#x3f;&#x3f;" horiz-adv-x="811" 
d="M490 572c0 -15 2 -21 6 -26s6 -11 6 -24c0 -23 -20 -35 -39 -35c-16 0 -41 8 -41 43c0 38 21 66 51 90c29 25 71 39 124 39c102 0 168 -60 168 -151c0 -79 -62 -123 -109 -157c-23 -17 -43 -33 -52 -50c-13 -25 -14 -49 -14 -73v-44c0 -7 -9 -10 -17 -10s-16 3 -16 10v46
c0 43 5 102 70 161c40 37 55 66 55 113c0 65 -38 122 -95 122s-97 -24 -97 -54zM520 43c0 29 24 53 53 53s53 -24 53 -53s-24 -53 -53 -53s-53 24 -53 53zM114 572c0 -15 2 -21 6 -26s6 -11 6 -24c0 -23 -20 -35 -39 -35c-16 0 -41 8 -41 43c0 38 21 66 51 90
c29 25 71 39 124 39c102 0 168 -60 168 -151c0 -79 -62 -123 -109 -157c-23 -17 -43 -33 -52 -50c-13 -25 -14 -49 -14 -73v-44c0 -7 -9 -10 -17 -10s-16 3 -16 10v46c0 43 5 102 70 161c40 37 55 66 55 113c0 65 -38 122 -95 122s-97 -24 -97 -54zM144 43c0 29 24 53 53 53
s53 -24 53 -53s-24 -53 -53 -53s-53 24 -53 53z" />
    <glyph glyph-name="question_exclam" unicode="&#x3f;&#x21;" horiz-adv-x="675" 
d="M531 660c24 0 53 -19 53 -73c0 -65 -14 -107 -24 -193c-13 -108 -13 -168 -15 -182c-1 -11 -4 -20 -14 -20s-13 7 -14 13c-2 21 -8 111 -16 189c-9 88 -23 123 -23 193c0 54 29 73 53 73zM478 45c0 29 24 53 53 53s53 -24 53 -53s-24 -53 -53 -53s-53 24 -53 53zM114 572
c0 -15 2 -21 6 -26s6 -11 6 -24c0 -23 -20 -35 -39 -35c-16 0 -41 8 -41 43c0 38 21 66 51 90c29 25 71 39 124 39c102 0 168 -60 168 -151c0 -79 -62 -123 -109 -157c-23 -17 -43 -33 -52 -50c-13 -25 -14 -49 -14 -73v-44c0 -7 -9 -10 -17 -10s-16 3 -16 10v46
c0 43 5 102 70 161c40 37 55 66 55 113c0 65 -38 122 -95 122s-97 -24 -97 -54zM144 43c0 29 24 53 53 53s53 -24 53 -53s-24 -53 -53 -53s-53 24 -53 53z" />
    <glyph glyph-name="exclam_question" unicode="&#x21;&#x3f;" horiz-adv-x="637" 
d="M144 658c24 0 53 -19 53 -73c0 -65 -14 -107 -24 -193c-13 -108 -13 -168 -15 -182c-1 -11 -4 -20 -14 -20s-13 7 -14 13c-2 21 -8 111 -16 189c-9 88 -23 123 -23 193c0 54 29 73 53 73zM91 43c0 29 24 53 53 53s53 -24 53 -53s-24 -53 -53 -53s-53 24 -53 53zM316 570
c0 -15 2 -21 6 -26s6 -11 6 -24c0 -23 -20 -35 -39 -35c-16 0 -41 8 -41 43c0 38 21 66 51 90c29 25 71 39 124 39c102 0 168 -60 168 -151c0 -79 -62 -123 -109 -157c-23 -17 -43 -33 -52 -50c-13 -25 -14 -49 -14 -73v-44c0 -7 -9 -10 -17 -10s-16 3 -16 10v46
c0 43 5 102 70 161c40 37 55 66 55 113c0 65 -38 122 -95 122s-97 -24 -97 -54zM346 41c0 29 24 53 53 53s53 -24 53 -53s-24 -53 -53 -53s-53 24 -53 53z" />
    <glyph glyph-name="centigrade" unicode="&#xb0;C" horiz-adv-x="804" 
d="M544 -10c-85.7002 0 -159.199 33.6992 -206.999 81.999c-55.9004 56.5 -84 133.8 -84 212c0 193 125 326 284 326c138 0 168 -32 197 -38c13.2998 -51.7998 17.3994 -101.1 19.999 -150c-7.90039 -5.5 -18 -6 -29 -4c-26 93 -78 158 -186 158c-79 0 -196 -66 -196 -278
c0 -137 83 -265 208 -265c85 0 125 22 191 105c12 -1.7998 21 -7.39941 25 -14.999c-60 -88 -126 -133 -223 -133zM209.001 507.999c0 33 -20 72 -65 72c-43 0 -66 -36 -66 -72c0 -35 24 -69 66 -69c41 0 65 35 65 69zM44.001 508.999c0 56 45 101 100 101s99 -45 99 -101
c0 -55 -44 -100 -99 -100s-100 45 -100 100z" />
    <glyph glyph-name="fahrenheit" unicode="&#xb0;F" horiz-adv-x="802" 
d="M570 278h-93.001v-156c0 -83 17 -88 87 -91c6 -6 6 -27 0 -33c-50 1 -79 2 -129 2c-51 0 -81 -1 -130 -2c-6 6 -6 27 0 33c70 3 87 8 87 91v356c0 83 -17 88 -87 91c-6 6 -6 27 0 33c50 -1 129 -2 129 -2h255.3c24.7002 0 29.5 0.599609 47 4
c2.40039 0 3.60059 -0.700195 4.00098 -3c1.40039 -7.59961 16.5 -104 21.7002 -145c-8 -3 -19 -5 -31 -5c-22 69 -47 109 -153 109h-65c-24 0 -36 -10 -36 -34v-210h93c85 0 88 13 91 68c6 6 27 6 33 0c-1 -30 -2 -52 -2 -86s1 -53 2 -88c-6 -6 -27 -6 -33 0
c-3 45 -6 68 -91 68zM208.999 508c0 33 -20 72 -65 72c-43 0 -66 -36 -66 -72c0 -35 24 -69 66 -69c41 0 65 35 65 69zM43.999 509c0 56 45 101 100 101s99 -45 99 -101c0 -55 -44 -100 -99 -100s-100 45 -100 100z" />
    <glyph glyph-name="f_b" unicode="fb" horiz-adv-x="778" 
d="M94 122v268h-67c-4 0 -5 1 -5 6v13c0 8 5 20 23 20h49v43c0 156 115 228 199 228c35 0 61 -10 83 -25c13 3 41 12 57 23c8 0 12 -3 12 -10c0 0 -3 -40 -3 -105v-184c0 -9 3.7002 -10.7002 10 -5c31 28 69.0996 45 112 45c87 0 177 -75 177 -197
c0 -159 -119 -252 -221 -252c-35.2998 0 -65.0996 5.5 -88 24.7998c-11 9.2002 -17 9.2002 -27.2998 -2.7998c-7.7002 -8.90039 -17.6006 -18.2002 -23.7002 -24c-12 0 -17 4 -22 12c4.2002 21.7998 4 32 4 71v488c0 5 0 28 -1 32c-39.5996 13.2002 -24.7998 75 -88 75
c-33 0 -101 -23 -101 -177v-60h108c5 0 8 -2 8 -6v-20c0 -9 -14 -13 -23 -13h-93v-268c0 -83 11 -87 79 -91c6 -6 6 -27 0 -33c-43 1 -72 2 -118 2c-41 0 -63 -1 -105 -2c-6 6 -6 27 0 33c54 4 65 8 65 91zM459 363c-12.9004 -11.4004 -17 -21 -17 -42v-250
c20 -25 41 -47 72 -47c95 0 141 86 141 200c0 97 -50 171 -111 171c-29 0 -59 -9 -85 -32z" />
    <glyph glyph-name="f_f_h" unicode="ffh" horiz-adv-x="1052" 
d="M368 567l-3 -2c-50 0 -39 57 -74 79c-16 10 -24 12 -35 12c-15 0 -57 -13 -78 -93c-6 -19 -11 -55 -11 -123v-11h191v43c1 20 1 59 10 95zM626.2 671.7c13 3 46.7998 15.2998 62.7998 26.2998c8 0 12 -3 12 -10c0 0 -3 -35 -3 -100v-234c67 67 136 83 175 83
c72 0 97 -52 97 -155v-206c0 -29 10.7002 -39.5996 43 -43l19 -2c5 -0.5 9 -3 9 -8v-23l-2 -2s-69 2 -108 2c-35 0 -103 -2 -103 -2l-2 2v23c0 5 3 7.59961 7 8l20 2c32.7998 3.2998 43 14 43 43v198c0 81 -21 116 -67 116c-29 0 -72 -17 -131 -73v-241
c0 -29 12.5 -39.7998 43 -43l19 -2c4 -0.400391 8 -3 8 -8v-23l-2 -2s-68 2 -107 2c-36 0 -96 -2 -96 -2l-1 2v23c0 5 2.09961 7.09961 7 8l11 2c36.4004 6.59961 43 14 43 43v502v11h-6c-28 0 -37 22 -47 43c-10 20 -36 36 -60 36c-22 0 -56 -11 -70 -84
c-6 -34 -7 -79 -7 -99v-56h110c5 0 8 -2 8 -6v-20c0 -9 -14 -13 -24 -13h-94v-314c0 -29 7.59961 -39.2998 43 -43l19 -2c5 -0.5 8 -3 8 -8v-23l-2 -2s-68 2 -107 2c-36 0 -104 -2 -104 -2l-2 2v23c0 5 3 7.5 8 8l19 2c32.4004 3.40039 43 14 43 43v314h-191v-314
c0 -29 9.59961 -39.5 43 -43l19 -2c4 -0.400391 8 -3 8 -8v-23l-2 -2s-68 2 -107 2c-36 0 -104 -2 -104 -2l-2 2v23c0 5 3 7.5 8 8l19 2c34.4004 3.59961 43 14 43 43v314h-69c-4 0 -5 1 -5 6v13c0 8 5 20 23 20h51c0 122 26 195 95 236c21 12 44 19 71 19
c80 0 123 -34 136 -59c34 54 95 78 131 78c68.5996 0 95 -24.5 101.2 -31.2998z" />
    <glyph glyph-name="f_f_j" unicode="ffj" horiz-adv-x="794" 
d="M368 567l-3 -2c-50 0 -39 57 -74 79c-16 10 -24 12 -35 12c-15 0 -57 -13 -78 -93c-6 -19 -11 -55 -11 -123v-11h191v43c1 20 1 59 10 95zM718 109c0 -161 -26 -261 -73 -299c-37 -31 -71 -31 -91 -31c-18 0 -52 14 -52 44c0 18 19 30 30 30c26 0 36 -12 44 -22
c6 -9 12 -16 23 -16c44 0 44 152 44 260v263c0 40 -3 52 -29 52h-181v-315c0 -29 13.2002 -40.0996 43 -42l32 -2c4 -0.200195 8 -3 8 -8v-23l-2 -2s-81 2 -120 2c-36 0 -104 -2 -104 -2l-2 2v23c0 5 3 7.5 8 8l19 2c32.4004 3.40039 43 13 43 42v315h-191v-315
c0 -29 9.59961 -38.5 43 -42l19 -2c4 -0.400391 8 -3 8 -8v-23l-2 -2s-68 2 -107 2c-36 0 -104 -2 -104 -2l-2 2v23c0 5 3 7.5 8 8l19 2c34.4004 3.59961 43 13 43 42v315h-69c-4 0 -5 1 -5 6v13c0 8 5 20 23 20h51c0 122 26 196 95 236c21 12 44 19 71 19
c80 0 123 -34 136 -59c27 35 85 75 151 75c37 0 64 -10 89 -27c37 -24 71 -63 71 -100c0 -21 -20 -39 -40 -39c-32 0 -48 24 -60 79c-8 42 -39 54 -72 54s-100 -24 -100 -178v-60h189c35 0 67 13 80 13h16v-333z" />
    <glyph glyph-name="f_f_k" unicode="ffk" horiz-adv-x="1018" 
d="M368 567l-3 -2c-50 0 -39 54 -74 76c-16 10 -24 12 -35 12c-15 0 -57 -10 -78 -90c-6 -19 -11 -55 -11 -123v-11h191v43c1 20 1 59 10 95zM697 210.9v-134.899c0 -29 11.5996 -39.7002 43 -43l19 -2c5 -0.5 9 -3 9 -8v-23l-2 -2s-69 2 -108 2c-35 0 -103 -2 -103 -2l-2 2
v23c0 5 3 7.5 8 8l19 2c33.4004 3.5 43 14 43 43v499v11c-26 2 -35 23 -45 43s-32 34 -56 34c-22 0 -68 -9 -82 -82c-6 -34 -7 -76 -7 -96v-56h110c5 0 8 -2 8 -6v-20c0 -9 -14 -13 -24 -13h-94v-314c0 -29 9.59961 -39.5 43 -43l19 -2c4 -0.400391 8 -3 8 -8v-23l-2 -2
s-68 2 -107 2c-36 0 -104 -2 -104 -2l-2 2v23c0 5 3 7.5 8 8l19 2c34.4004 3.59961 43 14 43 43v314h-191v-314c0 -29 7.59961 -39.2998 43 -43l19 -2c4 -0.400391 8 -3 8 -8v-23l-2 -2s-68 2 -107 2c-36 0 -104 -2 -104 -2l-2 2v23c0 5 3 7.5 8 8l19 2
c36.4004 3.7998 43 14 43 43v314h-69c-4 0 -5 1 -5 6v13c0 8 5 20 23 20h51c0 122 26 192 95 233c21 12 44 19 71 19c80 0 123 -34 136 -58c27 55 89 75 146 75c32 0 62 -8 82 -20c19 4 33 8 53 17h22v-458.4c44.0996 21.4004 77.5 51.7002 131 110.4c15 16 20 29 20 39
c0 8 -5 16 -29 16h-4c-5 0 -8 4 -8 8v19l3 2s47 -2 83 -2c39 0 93 2 93 2l4 -2v-19c0 -5 -7 -8 -11 -8h-7c-27 0 -72 -22 -96 -48l-76 -84c-3 -3 -5 -7 -5 -11s2 -9 5 -13l118 -169c19 -27 49 -46 75 -46h3c6 0 12 -3 12 -8v-22l-2 -3s-50 2 -89 2c-36 0 -62 -2 -62 -2l-3 4
v21c0 12 -3 25 -23 54l-73 99c-14 19 -26 36 -49 36c-3.2002 0 -6.5 -0.400391 -10 -1.10059z" />
    <glyph glyph-name="f_f_t" unicode="fft" horiz-adv-x="859" 
d="M368 564c-1 -1 -4 -2 -7 -2c-25 0 -34 19 -43 40c-2.90039 7.2002 -18.2002 46 -62 46c-15 0 -57 -8 -78 -88c-6 -19 -9 -51 -9 -119v-12h187v48c0 17 2 55 13 86zM90 122v268h-67c-4 0 -5 1 -5 6v13c0 8 5 20 23 20h49c0 122 28 193 97 233c21 12 44 19 71 19
c78.5996 0 121.5 -32.7998 135.3 -56.7002c31.2002 51.4004 77.7998 73.7002 117.7 73.7002c41 0 66 -12 86 -30c15 -13 26 -29 26 -46s-9 -38 -35 -38c-27 0 -41 14 -46 41c-4 20 -14 41 -38 41c-53 0 -69 -72 -69 -192v-45l197 0.0996094
c0 82.9004 0.0996094 92.1006 -2 114.9c-0.599609 7 8 9 14 12.7002l58 26.2998c9 0 13 -3 13 -10c0 0 -4 -40 -4 -105v-39h120c5 0 8 -2 8 -6v-20c0 -9 -14 -13 -24 -13h-104v-253c0 -62 6 -92 33 -92c26 0 56 8 82 28c10 -1 16 -6.7002 18 -17c-39 -44 -89 -66 -135 -66
s-77 28 -77 99v301h-197v-268c0 -83 11 -87 79 -91c6 -6 6 -27 0 -33c-43 1 -72 2 -118 2c-37 0 -53 -1 -95 -2c-6 6 -6 27 0 33c44 4 55 8 55 91v268h-187v-268c0 -83 13 -87 59 -91c6 -6 6 -27 0 -33c-43 1 -60 2 -98 2c-41 0 -63 -1 -105 -2c-6 6 -6 27 0 33
c54 4 65 8 65 91z" />
    <glyph glyph-name="f_h" unicode="fh" horiz-adv-x="790" 
d="M436 356c66 67 136 83 175 83c72 0 97 -52 97 -155v-208c0 -29 8.59961 -39.4004 43 -43l19 -2c4 -0.400391 8 -3 8 -8v-23l-2 -2s-68 2 -107 2c-36 0 -104 -2 -104 -2l-2 2v23c0 5 3 7.5 8 8l19 2c35.4004 3.7002 43 14 43 43v200c0 81 -20 116 -67 116
c-28 0 -71 -17 -130 -73v-243c0 -29 10.5996 -39.5996 43 -43l19 -2c4 -0.400391 8 -3 8 -8v-23l-2 -2s-68 2 -108 2c-35 0 -103 -2 -103 -2l-2 2v23c0 5 3 7.5 8 8l19 2c33.4004 3.5 43 14 43 43v500c0 4 0 8 -1 12c-12 4 -22 14 -28 27c-13 33 -32 49 -62 49
c-33 0 -103 -21 -103 -175v-60h110c5 0 8 -2 8 -6v-20c0 -9 -14 -13 -23 -13h-95v-314c0 -29 7.7002 -39.0996 43 -43l18 -2c4 -0.400391 8 -3 8 -8v-23l-2 -2s-67 2 -106 2c-36 0 -104 -2 -104 -2l-2 2v23c0 5 3 7.5 8 8l19 2c34.4004 3.59961 43 14 43 43v314h-69
c-4 0 -5 1 -5 6v13c0 8 5 20 23 20h51v43c0 156 113 226 197 226c35 0 61 -8 83 -23c14 5 28 11 42 20h22v-339z" />
    <glyph glyph-name="f_j" unicode="fj" horiz-adv-x="529" 
d="M452 106c0 -162 -26 -258 -73 -296c-37 -31 -71 -31 -91 -31c-18 0 -52 14 -52 44c0 18 19 30 30 30c26 0 36 -12 44 -22c6 -9 12 -16 23 -16c44 0 44 152 44 260v264c0 40 -3 51 -29 51h-181v-314c0 -29 5.2998 -40.7002 43 -43l33 -2c4 -0.200195 8 -3 8 -8v-23l-2 -2
s-82 2 -121 2c-36 0 -104 -2 -104 -2l-2 2v23c0 5 3 7.5 8 8l19 2c30.5 3.2002 43 14 43 43v314h-69c-4 0 -5 1 -5 6v13c0 8 5 20 23 20h51v18c0 197 104 251 188 251c38 0 64 -10 89 -27c37 -25 70 -64 70 -101c0 -20 -20 -38 -40 -38c-31 0 -48 24 -59 78
c-9 43 -40 55 -72 55c-33 0 -101 -22 -101 -176v-60h189c35 0 67 15 81 15h15v-338z" />
    <glyph glyph-name="f_k" unicode="fk" horiz-adv-x="761" 
d="M436 210v-134c0 -29 10.5996 -39.5996 43 -43l19 -2c4 -0.400391 8 -3 8 -8v-23l-2 -2s-68 2 -108 2c-35 0 -103 -2 -103 -2l-2 2v23c0 5 3 7.5 8 8l19 2c37.4004 3.90039 43 14 43 43v500c0 4 0 8 -1 12c-12 4 -22 14 -28 27c-13 33 -32 49 -62 49
c-33 0 -103 -24 -103 -178v-57h110c5 0 8 -2 8 -6v-20c0 -9 -14 -13 -23 -13h-95v-314c0 -29 5.7002 -38.9004 43 -43l18 -2c4 -0.400391 8 -3 8 -8v-23l-2 -2s-67 2 -106 2c-36 0 -104 -2 -104 -2l-2 2v23c0 5 3 7.5 8 8l19 2c32.4004 3.40039 43 14 43 43v314h-69
c-4 0 -5 1 -5 6v13c0 8 5 20 23 20h51v39c0 157 113 230 197 230c35 0 61 -8 83 -23c14 5 25 13 42 20h22v-460c45 22 78 52 134 112c15 16 20 29 20 39c0 8 -6 16 -29 16h-4c-5 0 -9 4 -9 8v19l3 2s48 -2 83 -2c39 0 94 2 94 2l3 -2v-19c0 -5 -6 -8 -10 -8h-8
c-26 0 -71 -22 -95 -48l-77 -84c-2 -3 -4 -6 -4 -10c0 -5 2 -10 5 -14l118 -169c18 -27 49 -46 74 -46h3c7 0 13 -3 13 -8v-23l-2 -2c-26 2 -54 2 -89 2c-23 0 -47 -1 -62 -2l-3 2v23c0 12 -3 25 -23 54l-73 99c-14 19 -26 36 -49 36c-4 0 -9 -1 -13 -2z" />
    <glyph glyph-name="f_t" unicode="ft" horiz-adv-x="596" 
d="M175 390v-268c0 -83 11 -87 79 -91c6 -6 6 -27 0 -33c-40 1 -83 2 -118 2s-71 -1 -105 -2c-6 6 -6 27 0 33c54 4 65 8 65 91v268h-69c-4 0 -5 1 -5 6v13c0 8 5 20 23 20h51v40c0 88 8 141 38 181c24 32 70 48 99 48c38 0 68 -9 88 -24s29 -32 29 -48
c0 -21 -14 -36 -33 -36c-20 0 -31.7998 10.5996 -39 28c-12 29 -26 46 -54 46c-15.5 0 -37 -14 -45 -38c-7.5 -22.5 -4 -73 -4 -140v-57l194 0.0996094c0 82.9004 0.0996094 92.1006 -2 114.9c-0.599609 7 8 9 14 12.7002l58 26.2998c9 0 13 -3 13 -10c0 0 -4 -40 -4 -105
v-39h120c5 0 8 -2 8 -6v-20c0 -9 -14 -13 -24 -13h-104v-253c0 -62 6 -92 33 -92c26 0 56 8 82 28c10 -1 16 -6.7002 18 -17c-39 -44 -89 -66 -135 -66s-77 28 -77 99v301h-194z" />
    <glyph glyph-name="t_t" unicode="tt" horiz-adv-x="614" 
d="M90 390l-59 -0.000976562c-4 0 -5 1 -5 6v13c0 8 4 20 18 20l46 0.0996094c0 82.9004 0.0996094 82.1006 -2 104.9c-0.599609 7 8 9 14 12.7002l58 26.2998c9 0 13 -3 13 -10c0 0 -4 -40 -4 -105v-29c105.5 0 168.8 -0.0996094 211 0.100586
c0 82.9004 0.0996094 92.1006 -2 114.9c-0.599609 7 8 9 14 12.7002l58 26.2998c9 0 13 -3 13 -10c0 0 -4 -40 -4 -105v-39h120c5 0 8 -2 8 -6v-20c0 -9 -14 -13 -24 -13h-104v-253c0 -62 6 -92 33 -92c26 0 56 8 82 28c10 -1 16 -6.7002 18 -17c-39 -44 -89 -66 -135 -66
s-77 28 -77 99v301h-211v-253c0 -62 6 -92 33 -92c28 0 56 15 71 28c9 -1 13.2998 -5.40039 16 -15c-26 -39 -72 -68 -122 -68c-47 0 -77 28 -77 99v301z" />
    <glyph glyph-name="longs_i" unicode="&#x17f;i" horiz-adv-x="535" 
d="M93 477c10 171 104 221 183 221c38 0 60 -10 85 -27c37 -25 70 -64 70 -101c0 -20 -20 -38 -39 -38c-32 0 -49 24 -60 78c-9 43 -36 55 -68 55c-33 0 -97 -25 -97 -179v-410c0 -29 9.40039 -40.2998 43 -43l25 -2c4 -0.299805 8 -3 8 -8v-23l-2 -2s-74 2 -113 2
c-36 0 -104 -2 -104 -2l-2 2v23c0 5 3 7.5 8 8l19 2c38.4004 4 43 14 43 43v303c0 12 -1 16 -15 16h-44c-4 0 -5 1 -5 5v9c0 8 5 20 23 20c31 0 41 21 42 48zM452 122c0 -83 11 -87 72 -91c6 -6 6 -27 0 -33c-33 1 -71 2 -111 2s-79 -1 -112 -2c-6 6 -6 27 0 33
c61 5 72 8 72 91v195c0 57 -10.5 62.9004 -65 68c-2 6 -4 22 -2 28c69 9 108.5 18 137 29c8 0 13 -3 13 -7c0 0 -4 -64 -4 -113.7v-199.3z" />
    <glyph glyph-name="longs_longs" unicode="&#x17f;&#x17f;" horiz-adv-x="559" 
d="M385 623c8 23 49 75 116 75c41 0 63 -12 83 -30c15 -13 26 -29 26 -46s-9 -38 -35 -38c-27 0 -41 14 -46 41c-4 20 -10 39 -34 39c-54 0 -72 -70 -72 -190v-398c0 -29 11.2002 -41.0996 43 -43l33 -2c4 -0.200195 8 -3 8 -8v-23l-2 -2s-82 2 -121 2
c-35 0 -103 -2 -103 -2l-2 2v23c0 5 3 7.5 8 8l19 2c33.4004 3.5 43 14 43 43v303c0 12 -1 16 -16 16h-43c-5 0 -6 1 -6 5v9c0 8 6 20 23 20c31 0 42 21 42 48c0 22 2 56 10 87c-2 -1 -4 -2 -6 -2c-26 0 -39 19 -44 40c-5 20 -20 51 -57 51c-34 0 -85 -35 -85 -224v-353
c0 -29 11.9004 -38.5996 43 -43l14 -2c4.90039 -0.700195 8 -3 8 -8v-23l-2 -2s-63 2 -102 2c-36 0 -104 -2 -104 -2l-2 2v23c0 5 3 7.5 8 8l19 2c30.5 3.2002 43 14 43 43v303c0 12 -1 16 -15 16h-44c-4 0 -5 1 -5 5v9c0 8 5 20 23 20c31 0 41 21 43 48c6 93 31 148 90 185
c21 13 43 19 69 19c61 0 102 -23 132 -58z" />
    <glyph glyph-name="longs_l" unicode="&#x17f;l" horiz-adv-x="517" 
d="M167 486v-414c0 -29 8.2002 -39.0996 43 -43l18 -2c4 -0.400391 8 -3 8 -8v-19l-2 -2s-67 4 -106 4c-36 0 -104 -4 -104 -4l-2 2v19c0 5 3 7.5 8 8l19 2c34.7002 3.7002 43 14 43 43v307c0 12 -1 16 -15 16h-44c-4 0 -5 1 -5 5v9c0 8 5 20 23 20c31 0 41 22 41 49
c4 150 105 220 187 220c35 0 61 -8 83 -23c12.7002 3 39 12 55 23c7.7002 0 12 -3 12 -10c0 0 -3 -35.2998 -3 -100.3v-515.7c0 -29 11.4004 -40.2998 43 -43l23 -2c5 -0.400391 8 -3 8 -8v-19l-1 -2s-73 2 -112 2c-36 0 -94 -2 -94 -2l-1 2v19c0 5 2 7.40039 7 8l9 1
c33.2998 3.7002 43 15 43 44v504v12c-13 4 -22 14 -29 27c-13 33 -32 49 -62 49c-32 0 -93 -24 -93 -178z" />
    <glyph glyph-name="longs_longs_i" unicode="&#x17f;&#x17f;i" horiz-adv-x="791" 
d="M532 698c38 0 60 -10 85 -27c37 -25 71 -64 71 -101c0 -20 -21 -38 -40 -38c-32 0 -48 24 -60 78c-8 43 -35 55 -68 55s-97 -25 -97 -179v-414c0 -29 11.2002 -41.0996 43 -43l33 -2c4 -0.200195 8 -3 8 -8v-19l-2 -2s-82 2 -121 2c-35 0 -103 -2 -103 -2l-2 2v19
c0 5 3 7.5 8 8l19 2c33.4004 3.5 43 14 43 43v307c0 12 -1 16 -16 16h-43c-5 0 -6 1 -6 5v9c0 8 6 20 23 20c31 0 42 21 42 48c0 22 2 56 10 87c-2 -1 -4 -2 -6 -2c-26 0 -39 19 -44 40c-5 20 -20 51 -57 51c-34 0 -85 -35 -85 -224v-357c0 -29 10 -38.2998 43 -43l14 -2
c4.90039 -0.700195 8 -3 8 -8v-19l-2 -2s-63 2 -102 2c-36 0 -104 -2 -104 -2l-2 2v19c0 5 3 7.5 8 8l19 2c36.4004 3.7998 43 14 43 43v307c0 12 -1 16 -15 16h-44c-4 0 -5 1 -5 5v9c0 8 5 20 23 20c31 0 41 21 43 48c6 93 31 148 90 185c21 13 43 19 69 19
c61 0 102 -23 132 -58c38 53 80 75 147 75zM708 122c0 -83 11 -87 72 -91c6 -6 6 -27 0 -33c-33 1 -71 2 -111 2s-79 -1 -112 -2c-6 6 -6 27 0 33c61 5 72 8 72 91v195c0 57 -10.5 62.9004 -65 68c-2 6 -4 22 -2 28c69 9 108.5 18 137 29c8 0 13 -3 13 -7
c0 0 -4 -64 -4 -113.7v-199.3z" />
    <glyph glyph-name="longs_s" unicode="&#x17f;s" horiz-adv-x="589" 
d="M93 477c10 171 94 221 173 221c88 0 147 -56 147 -103c0 -21 -12 -34 -31 -34c-32 0 -49 37 -60 69c-9 24 -35 35 -68 35s-87 -25 -87 -179v-414c0 -29 5.40039 -40 43 -43l25 -2c4 -0.299805 8 -3 8 -8v-19l-2 -2s-74 2 -113 2c-36 0 -104 -2 -104 -2l-2 2v19
c0 5 3 7.5 8 8l19 2c32.4004 3.40039 43 14 43 43v307c0 12 -1 16 -15 16h-44c-4 0 -5 1 -5 5v9c0 8 5 20 23 20c31 0 41 21 42 48zM281 140l27 1c3 -25 15 -72 36 -96c10 -11 27 -29 64 -29c33 0 78 31 78 77c0 43 -19 71 -99 105c-73 32 -106 54 -106 129
c0 63 55 115 134 115c49 0 82 -9 113 -25c6 -32 9 -66 11 -102l-27 -1c-21 82 -76 98 -97 98c-38 0 -72 -21 -72 -70c0 -40 14 -59 68 -79c81 -30 142 -67 142 -147c0 -95 -97 -128 -142 -128c-35 0 -55 4 -80 11c-7 1 -13 2 -19 2s-14 -1 -24 -3c0 42 -3 93 -7 142z" />
    <glyph glyph-name="longs_h" unicode="&#x17f;h" horiz-adv-x="780" 
d="M362 675c13 3 39 12 55 23c8 0 12 -3 12 -10c0 0 -3 -35 -3 -100v-229c67 67 125 83 164 83c73 0 108 -55 108 -158v-212c0 -29 10.5996 -39.5996 43 -43l19 -2c5 -0.5 9 -3 9 -8v-19l-2 -2s-69 2 -108 2c-35 0 -103 -2 -103 -2l-2 2v19c0 5 3 7.5 8 8l19 2
c34.4004 3.59961 43 14 43 43v223c0 81 -22 100 -78 100c-29 0 -72 -26 -120 -73v-250c0 -29 12.4004 -40.2998 43 -43l23 -2c5 -0.400391 8 -3 8 -8v-19l-1 -2s-73 2 -112 2c-36 0 -94 -2 -94 -2l-1 2v19c0 5 2.09961 6.90039 7 8l9 2c32 7.09961 43 14 43 43v504v12
c-13 4 -22 14 -29 27c-13 33 -32 49 -62 49c-32 0 -93 -24 -93 -178v-414c0 -29 5.7002 -38.9004 43 -43l18 -2c4 -0.400391 8 -3 8 -8v-19l-2 -2s-67 2 -106 2c-36 0 -104 -2 -104 -2l-2 2v19c0 5 3 7.5 8 8l19 2c34.4004 3.59961 43 14 43 43v307c0 12 -1 16 -15 16h-44
c-4 0 -5 1 -5 5v9c0 8 5 20 23 20c31 0 41 22 41 49c4 150 105 220 187 220c35 0 61 -7 83 -23z" />
    <glyph glyph-name="Q_u" unicode="Qu" horiz-adv-x="1251" 
d="M572 -122c90 -35 140.999 -48.999 216.999 -48.999c50 0 130 22 196 59l17 -18c-63 -59 -164 -96 -268 -96c-84 0 -156 15 -231 46c-118 48 -176 67 -245 67c-9.2998 0 -30 -5.40039 -49.2002 -20.3008c-11 -12.5996 -21.2002 -25.8994 -30.7998 -39.6992l-40 20
c29 40 69 80 116 114c16.0996 11.7998 33.3994 22.5996 51.1992 31.8994c-149.6 19.5996 -268.199 137.699 -268.199 317.1c0 193.9 113.3 348 307 348c179 0 322 -122 322 -329c0 -84 -22 -156.3 -61.7998 -213c-45.7002 -65.0996 -114.601 -109.1 -200.301 -122
c-34.2002 -9.2998 -79.2998 -30.3994 -120.899 -59.999c-3.2998 -2.2998 -6.59961 -4.7002 -9.7998 -7.10059c9.7002 1.2998 19.9004 2.09961 30.8008 2.09961c30 0 140 -1 268 -51zM330.999 622.001c-99 0 -198 -85 -198 -295c0 -192 115 -301 237 -301
c114 0 200 105 200 284c0 202 -107 312 -239 312zM937.999 -9.99902c-99 0 -129 67 -129 136v192c0 65 -14 76 -62 80c-6 6 -6 27 0 33c34 -1 70 -2 102 -2c15 0 30 1 35 2c5 0 8 -3 8 -6c0 0 -4 -73 -4 -103v-182c0 -89 50 -103 80 -103c25 0 63 16 100 48
c14 12 16 20 16 39v193c0 66 -13 78 -62 81c-6 6 -6 27 0 33c34 -1 70 -2 102 -2c15 0 30 1 35 2c5 0 8 -3 8 -6c0 0 -4 -73 -4 -103v-192c0 -49 9 -68 73 -73c6 -6 6 -21 0 -27c-61 -7 -96 -22 -118 -40c-6.5 -2.5 -11 -3 -19 0c0 0 -8.5 33.5 -11 59
c-0.700195 7 -10 5 -15 1c-49 -40 -96 -60 -135 -60z" />
    <glyph glyph-name="T_h" unicode="Th" horiz-adv-x="1048" 
d="M350 122c0 -83 16.999 -88.001 96.999 -91.001c6 -6 6 -27 0 -33c-50 1 -84.7998 2 -139 2c-54.5996 0 -91 -1 -140 -2c-6 6 -6 27 0 33c80 3 97 8 97 91v385c0 61 -10 99 -47 99h-49c-66 0 -112 -26 -132 -106c-12 0 -24 1 -34 5c11 48 21 100 25 145c0 1 2 3 4 3
c38 -3 156 -8 233 -8h86c51.9004 0 135.301 2 196.701 4.5c58.4004 2.40039 98 29.6006 120.3 38.501c9 0 13 -3 13 -10c0 0 -3.7998 -40 -4 -105l-0.799805 -215h9.7998c61 68 120.9 81 170 81c35 0 66.2002 -12 83 -34c23.2998 -30.5 27 -79 27 -134v-149
c0 -82 11 -86 67 -91c5 -6 5 -27 0 -33c-43 1 -65 2 -106 2c-40 0 -60 -1 -102 -2c-5 6 -5 27 0 33c52 5 62 9 62 91v152c0 30 -2 57.2002 -12 77c-11.5996 22.9004 -32.5996 36 -53 36c-39.4004 0 -90 -21.7002 -128 -59c-8 -8.7002 -17 -21 -17 -42.0996v-163.9
c0 -83 9 -87 59.7998 -91c6 -6 6 -27 0 -33c-42.0996 1 -59.7998 2 -98.7998 2c-43 0 -68.5996 -1 -109.8 -2c-6 6 -6 27 0 33c58 4 69.7998 8 69.7998 91v421c0 76 -105 63 -180 63h-22c-36 0 -46 -38 -46 -102v-382z" />
    <glyph glyph-name="Q_u.sc" unicode="Q&#xe065;" horiz-adv-x="1289" 
d="M572 -122c90 -35 140.999 -48.999 216.999 -48.999c50 0 130 22 196 59l17 -18c-63 -59 -164 -96 -268 -96c-84 0 -156 15 -231 46c-118 48 -176 67 -245 67c-9.2998 0 -30 -5.40039 -49.2002 -20.3008c-11 -12.5996 -21.2002 -25.8994 -30.7998 -39.6992l-40 20
c29 40 69 80 116 114c16.0996 11.7998 33.3994 22.5996 51.1992 31.8994c-149.6 19.5996 -268.199 137.699 -268.199 317.1c0 193.9 113.3 348 307 348c179 0 322 -122 322 -329c0 -84 -22 -156.3 -61.7998 -213c-45.7002 -65.0996 -114.601 -109.1 -200.301 -122
c-34.2002 -9.2998 -79.2998 -30.3994 -120.899 -59.999c-3.2998 -2.2998 -6.59961 -4.7002 -9.7998 -7.10059c9.7002 1.2998 19.9004 2.09961 30.8008 2.09961c30 0 140 -1 268 -51zM1140 338.001c0 83 -11 87 -72 91c-6 6 -6 27 0 33c30 -1 65 -2 95 -2s66 1 96 2
c6 -6 6 -27 0 -33c-61 -5 -72 -8 -72 -91v-114c0 -146 -41 -234 -196 -234c-109.5 0 -182 41 -182 191v157c0 83 -11 87 -72 91c-6 6 -6 27 0 33c36 -1 75.4004 -2 111 -2c32.5 0 73 1 112 2c6 -6 6 -27 0 -33c-61 -5 -72 -8 -72 -91v-136c0 -93 21 -171 120 -171
c132 0 132 94 132 180v127zM330.999 622.001c-99 0 -198 -85 -198 -295c0 -192 115 -301 237 -301c114 0 200 105 200 284c0 202 -107 312 -239 312z" />
    <glyph glyph-name="q.sc_u.sc" unicode="&#xe061;&#xe065;" horiz-adv-x="1101" 
d="M956 338c0 83 -11 87 -72 91c-3 3 -4.5 9.7002 -4.5 16.5s1.5 13.5 4.5 16.5c30 -1 65 -2 95 -2s66 1 96 2c3 -3 4.5 -9.7002 4.5 -16.5s-1.5 -13.5 -4.5 -16.5c-61 -5 -72 -8 -72 -91v-114c0 -146 -68 -234 -223 -234c-85 0 -155 41 -155 191v157c0 83 -11 87 -72 91
c-3 3 -4.5 9.7002 -4.5 16.5s1.5 13.5 4.5 16.5c43 -1 68 -2 111 -2c44 0 70 1 112 2c3 -3 4.5 -9.7002 4.5 -16.5s-1.5 -13.5 -4.5 -16.5c-61 -5 -72 -8 -72 -91v-136c0 -93 13 -179 120 -179c132 0 132 102 132 188v127zM212 -86c-12 0 -43.001 -10.002 -59.001 -47.002
l-31 15c25.2002 35.9004 75.4004 78.9004 130.5 108.801c-124.3 9.59961 -216.5 102.5 -216.5 231.2c0 147 107 248 246 248c130 0 244 -93 244 -235c0 -111.8 -65 -212.5 -187.5 -238.5c-26.5 -8.2002 -70.5996 -23.2998 -107.6 -48.0996
c1.2998 0.200195 4.09961 0.299805 8 0.299805c14.7002 0 44.4004 -1.59961 60.1006 -5.69922c152.9 -40 142.801 -68.7002 247.801 -68.7002c90.2998 0 212.399 47.5 250.199 73.7002l12.5 -9.5c-37.5996 -39.5 -176.899 -97.5 -301.8 -97.5c-136.8 0 -214.5 73 -295.7 73z
M272.999 436.998c-75 0 -150 -68 -150 -203c0 -123 69 -211 166 -211c89 0 150 75 150 198c0 134 -77 216 -166 216z" />
    <glyph glyph-name="f_f.short" unicode="f&#xe0e0;" horiz-adv-x="595" 
d="M381 564c-2 -1 -6 -2 -9 -2c-24 0 -35 20 -44 40c-6 14 -13 30 -28 39c-17 10 -25 12 -37 12c-16 0 -60 -13 -82 -93c-6 -19 -12 -54 -12 -122v-9h202v40c0 20.2998 1 59 10 95zM450 122c0 -83 11 -87 79 -91c6 -6 6 -27 0 -33c-43 1 -86 2 -118 2
c-34.2998 0 -66 -1 -95 -2c-6 6 -6 27 0 33c44 4 55 8 55 91v268h-202v-268c0 -83 13 -87 59 -91c6 -6 6 -27 0 -33c-32 1 -65.7002 2 -98 2c-36.2998 0 -72 -1 -105 -2c-6 6 -6 27 0 33c54 4 65 8 65 91v268h-67c-4 0 -5 1 -5 6v13c0 8 5 20 24 20h48c0 122 27 193 100 233
c22 12 47 19 75 19c80 0 125 -29 140 -51c4 7 9 14 14 20c25 32 63 48 94 48c40 0 72 -9 93 -24s31 -32 31 -48c0 -21 -15 -36 -35 -36c-21 0 -33 11 -41 28c-13 29 -27 46 -57 46c-16 0 -35 -14 -43 -38c-8 -23 -11 -73 -11 -140v-57h116c5 0 8 -2 8 -6v-20
c0 -9 -14 -13 -25 -13h-99v-268z" />
    <glyph glyph-name="f_f" unicode="ff" horiz-adv-x="582" 
d="M447 122c0 -83 11 -87 79 -91c6 -6 6 -27 0 -33c-43 1 -86 2 -118 2c-34.2998 0 -66 -1 -95 -2c-6 6 -6 27 0 33c44 4 55 8 55 91v268h-199v-268c0 -83 13 -87 59 -91c6 -6 6 -27 0 -33c-32 1 -65.7002 2 -98 2c-36.2998 0 -72 -1 -105 -2c-6 6 -6 27 0 33
c54 4 65 8 65 91v268h-67c-4 0 -5 1 -5 6v13c0 8 5 20 23 20h49c0 122 33 193 102 233c21 12 47 19 74 19c80 0 125 -34 138 -58c34 53 91 75 128 75c74 0 120 -33 120 -74c0 -20 -15 -35 -35 -35c-27 0 -37 19 -47 40c-9 20 -30 34 -54 34c-22 0 -48 -9 -62 -82
c-6 -34 -7 -79 -7 -99v-53h108c5 0 8 -2 8 -6v-20c0 -9 -14 -13 -24 -13h-92v-268zM378 564c-1.5 -1.2002 -3.7998 -2 -6 -2c-26 0 -35 20 -44 40c-10.7002 24.9004 -29.2998 49 -64 49c-15 0 -60 -11 -81 -91c-6 -19 -14 -54 -14 -122v-9h199v40c0 19.7002 1 59 10 95z" />
    <glyph glyph-name="f_i" unicode="fi" horiz-adv-x="560" 
d="M470 122c0 -83 11 -87 72 -91c6 -6 6 -27 0 -33c-37 1 -76.2002 2 -111 2c-36.0996 0 -72 -1 -107 -2c-6 6 -6 27 0 33c55 4 67 8 67 91v197c0 51 -8 71 -39 71h-179v-268c0 -83 10 -87 74 -91c6 -6 6 -27 0 -33c-33 1 -78 2 -113 2c-35.2002 0 -71 -1 -105 -2
c-6 6 -6 27 0 33c54 4 65 8 65 91v268h-67c-4 0 -5 1 -5 6v13c0 8 5 20 23 20h49v15c0 78 9 139 51 188c41 47.7998 96.2002 66 142 66c93 0 178 -47.5996 178 -110c0 -21 -21 -41 -43 -41c-31 0 -52.2998 15.2998 -62 65c-8 41 -42.5 52 -85 52c-68 0 -102 -83.5 -102 -178
v-57h197c35 0 64 1 94 13c4 0 10 -2 10 -6c0 0 -4 -64 -4 -103v-211z" />
    <glyph glyph-name="f_l" unicode="fl" horiz-adv-x="540" 
d="M452 122c0 -83 14 -87 70 -91c6 -6 6 -27 0 -33c-32 1 -66 2 -109 2c-39 0 -69 -1 -99 -2c-6 6 -6 27 0 33c50 3 59 8 59 91v441c0 8.7002 0.700195 19.7002 1 25c-12 4 -22 14 -28 27c-13 33 -49 49 -79 49c-33 0 -96 -34 -96 -188v-47h110c5 0 8 -2 8 -6v-20
c0 -9 -14 -13 -23 -13h-93v-268c0 -83 13 -86 69 -91c6 -6 6 -27 0 -33c-35 1 -71.7002 2 -108 2c-34.2998 0 -71 -1 -105 -2c-6 6 -6 27 0 33c54 4 65 8 65 91v268h-67c-4 0 -5 1 -5 6v13c0 8 5 20 23 20h51v30c0 166 103 239 187 239c35 0 81 -8 103 -23
c16.2998 4 40.7002 15 54 23c9 0 13 -3 13 -10c0 0 -1 -40 -1 -105v-461z" />
    <glyph glyph-name="f_f_i" unicode="ffi" horiz-adv-x="829" 
d="M380 565c-2 -2 -5 -2 -7 -2c-26 0 -35 18 -43 39c-12 35 -37 51 -62 51c-15 0 -69 -12 -90 -92c-6 -19 -11 -52 -11 -120v-12h202v40c0 22.2998 2 60 11 96zM660 122v217c0 40 -2 51 -28 51h-184v-268c0 -83 9 -87 64 -91c6 -6 6 -27 0 -33c-34 1 -70 2 -103 2
c-34 0 -66 -1 -95 -2c-6 6 -6 27 0 33c44 4 55 8 55 91v268h-200v-268c0 -83 13 -87 59 -91c6 -6 6 -27 0 -33c-31 1 -64.2998 2 -98 2c-33 0 -69 -1 -105 -2c-6 6 -6 27 0 33c54 4 65 8 65 91v268h-67c-4 0 -5 1 -5 6v13c0 8 5 20 23 20h51c0 122 26 193 95 233
c21 13 56 19 83 19c80 0 123 -33 136 -58c27 35 85 75 151 75c37 0 73 -10 98 -27c37 -25 72 -64 72 -101c0 -21 -21 -39 -42 -39c-32 0 -50 25 -59 79c-7.2002 43.0996 -48 55 -81 55s-97 -25 -97 -179v-57h194c35 0 65 1 95 13c3 0 4 -1.09961 4 -3c0 0 -2 -59 -2 -89
v-228c0 -83 14 -87 70 -91c6 -6 6 -27 0 -33c-36 1 -75 2 -109 2s-67 -1 -99 -2c-6 6 -6 27 0 33c50 3 59 8 59 91z" />
    <glyph glyph-name="f_f_l" unicode="ffl" horiz-adv-x="815" 
d="M380 562h-2c-25 0 -35 15 -41 29c-11 26 -40 55 -80 55c-31 0 -63 -26 -79 -86c-6 -19 -9 -54 -9 -122v-9h200v40c1 20 3 57 11 93zM727 122c0 -83 14 -87 70 -91c6 -6 6 -27 0 -33c-43 1 -66 2 -109 2c-39 0 -57 -1 -99 -2c-6 6 -6 27 0 33c50 3 59 8 59 91v441
c0 4 2 21 1 25c-12 4 -22 14 -28 27c-13 33 -53 49 -83 49c-26 0 -72 -27 -82 -83c-6 -34 -8 -79 -8 -99v-53h108c5 0 8 -2 8 -6v-20c0 -9 -14 -13 -24 -13h-92v-268c0 -83 9 -87 64 -91c6 -6 6 -27 0 -33c-43 1 -63 2 -103 2c-37 0 -53 -1 -95 -2c-6 6 -6 27 0 33
c44 4 55 8 55 91v268h-200v-268c0 -83 13 -87 59 -91c6 -6 6 -27 0 -33c-43 1 -60 2 -98 2c-41 0 -63 -1 -105 -2c-6 6 -6 27 0 33c54 4 65 8 65 91v268h-67c-4 0 -5 1 -5 6v13c0 8 5 20 23 20h49c0 82 7 121 26 157c24.4004 46.2998 78 95 145 95c79 0 129 -34 142 -53
c17 31 82 70 138 70c35 0 98 -8 120 -23c23.7002 4.7002 42.2002 18.2998 54 23c9 0 13 -3 13 -10c0 0 -1 -40 -1 -105v-461z" />
    <glyph glyph-name="longs_t" unicode="&#x17f;t" horiz-adv-x="561" 
d="M169 122c0 -83 11 -88 72 -91c6 -6 6 -27 0 -33c-43 1 -68 2 -111 2c-44 0 -70 -1 -112 -2c-6 6 -6 27 0 33c61 3 72 8 72 91v257c0 12 1 16 -13 16h-44c-4 0 -5 1 -5 5v9c0 8 5 20 23 20c31 0 39 21 40 48c10 171 108 221 182 221c105 0 150 -52 150 -148v-121h110
c5 0 8 -2 8 -6v-20c0 -9 -14 -13 -24 -13h-94v-253c0 -62 6 -92 33 -92c26 0 45 8 71 28c10 -1 16 -6.7002 18 -17c-38 -44 -79 -66 -124 -66c-46 0 -73 28 -73 99v301h-60c-3 0 -5 1 -5 4v31c0 3 1 4 4 4h46c27 0 32 15 32 116c0 79 -29 120 -98 120
c-33 0 -98 -37 -98 -179v-364z" />
    <glyph glyph-name=".notdef" horiz-adv-x="500" 
d="M50 603v-508l170 254zM80 50h340l-170 254zM280 349l170 -254v508zM250 394l170 253h-340zM0 0v698h500v-698h-500z" />
    <glyph glyph-name="space" unicode=" " horiz-adv-x="250" 
 />
    <glyph glyph-name="exclam" unicode="!" horiz-adv-x="288" 
d="M144 658c24 0 53 -19 53 -73c0 -65 -14 -107 -24 -193c-13 -108 -13 -168 -15 -182c-1 -11 -4 -20 -14 -20s-13 7 -14 13c-2 21 -8 111 -16 189c-9 88 -23 123 -23 193c0 54 29 73 53 73zM91 43c0 29 24 53 53 53s53 -24 53 -53s-24 -53 -53 -53s-53 24 -53 53z" />
    <glyph glyph-name="quotedbl" unicode="&#x22;" horiz-adv-x="336" 
d="M215 427c0 0 -26 159 -26 168c0 22 21 50 51 50c26 0 35 -17 35 -33s-33 -181 -33 -181zM89 426c0 0 -26 159 -26 168c0 22 21 50 51 50c26 0 35 -17 35 -33s-33 -181 -33 -181z" />
    <glyph glyph-name="numbersign" unicode="#" horiz-adv-x="465" 
d="M279 245l18 115h-113l-19 -115h114zM335 360l-19 -115h95l-7 -53h-94l-30 -178h-38l27 178h-112l-29 -178h-37l28 178h-93l8 53h94l18 115h-93l8 53h93l29 179h38l-30 -179h114l28 179h38l-29 -179h96l-8 -53h-95z" />
    <glyph glyph-name="dollar" unicode="$" horiz-adv-x="465" 
d="M207.1 366.7l11.5996 211.299c-54.4004 -0.799805 -100.7 -50.3994 -100.7 -101.999c0 -53.7002 43.9004 -87 89.1006 -109.3zM238.299 267.599l-13.3994 -243.601c72.7998 0.700195 114.1 40.7002 114.1 115c0 78.4004 -50.5 108.2 -100.7 128.601zM370.999 584.998
c10 -49 14.001 -74.9971 17.001 -119.997c-8 -7 -20 -6 -31 -6c-16.2998 52.2002 -39.0996 102.3 -101.8 115.6l-12.2998 -223.7c18.2998 -7.2998 34.7998 -13 46.0996 -17.9004c67 -29 128 -73 128 -162c0 -59 -34 -117 -87 -150
c-29.9004 -18.7002 -67.8008 -28.7002 -106.9 -29.9004l-4.59961 -84.2998c-7.2998 -4.2002 -26.8994 -5.10059 -36.8994 -5.10059l4.90039 90.2002c-61.2998 4 -86.7998 20.0996 -138.5 20.0996c-11 46 -15 69 -19 141c9 5 19 7 30 3
c18.0996 -80 62.0996 -120.1 129.399 -129.699l14 255.1c-5.7002 2.2002 -11.2002 4.40039 -16.4004 6.60059c-72 31 -135 76 -135 163c0 96.2998 78.5996 155.8 169.399 158.899l4.40039 79.5996c9.2002 3.5 24.2002 5 37 5l-4.7002 -85.2002
c62.2998 -3.40039 66.3994 -18.1006 113.899 -24.3008z" />
    <glyph glyph-name="percent" unicode="%" horiz-adv-x="637" 
d="M433 83c0 -52 25 -64 44 -64c55 0 88 89 88 145c0 52 -28 61 -42 61c-49 0 -90 -84 -90 -142zM378 98c0 82 60 158 134 158c40 0 86 -18 86 -91c0 -67 -44 -177 -127 -177c-61 0 -93 57 -93 110zM364 521c42 0 119 12 150 54l32 -16l-410 -571l-34 15l359 500
c-38 -15 -77 -19 -107 -19c-23 0 -61 10 -80 21c2 -7 3 -16 3 -25c0 -64 -44 -177 -128 -177c-62 0 -92 58 -92 109c0 88.0996 61 159 133 159c28 0 57 -13 67 -25c54 -25 89 -25 107 -25zM111 398c0 -52 26 -64 44 -64c55 0 89 87 89 145c0 50 -25 61 -43 61
c-49 0 -90 -84 -90 -142z" />
    <glyph glyph-name="ampersand" unicode="&#x26;" horiz-adv-x="705" 
d="M250 338c-103 -57 -125 -111 -125 -182c0 -98 54 -133 117 -133c71 0 107 36 156 103c-57 75 -137 191 -148 212zM421 94c-46 -63 -100.999 -104 -185.999 -104c-107 0 -192 44 -192 166c0 79 53 146 185 220c-37 64 -51 103 -51 141c0 59 54 130 154 130
c70 0 128 -45 128 -108c0 -55 -66 -120 -149 -168l4 -8c18 -31 76 -114 122 -176c36.0996 53.2998 60.2998 96.0996 77.3994 128c37.5996 70 22.6992 75.2998 -31.4004 78c-6 6 -6 27 0 33c20 -1 61 -2 95 -2s64 1 84 2c6 -6 6 -27 0 -33c-61.2002 -3.7998 -68 -9 -114 -91
c-26.9004 -48 -49.4004 -88 -89 -145l36 -50c31 -43 61 -63 77 -63c33 0 56 15 76 54c11 0 15.7998 -4.59961 21 -10c-23 -70 -68 -98 -103 -98c-31 0 -68 2 -115 67zM289.001 409c64 42 101 94 101 130c0 45 -23 75 -64 75c-26 0 -75 -29 -75 -95c0 -23 12 -61 38 -110z
" />
    <glyph glyph-name="quotesingle" unicode="'" horiz-adv-x="190" 
d="M79 426c0 0 -26 159 -26 168c0 22 21 50 51 50c26 0 35 -17 35 -33s-33 -181 -33 -181z" />
    <glyph glyph-name="parenleft" unicode="(" horiz-adv-x="298" 
d="M44 252c0 186 92.999 353 211.999 455c11.4004 -0.799805 17.6006 -7.7002 21.001 -18c-32 -36 -150 -174 -150 -437s117 -401 150 -439c-3 -8 -11 -15 -21 -17c-208 180 -212 411 -212 456z" />
    <glyph glyph-name="parenright" unicode=")" horiz-adv-x="298" 
d="M254 252c0 -186 -92.999 -353 -211.999 -455c-11.4004 0.799805 -17.6006 7.7002 -21.001 18c32 36 150 174 150 437s-117 401 -150 439c3 8 11 15 21 17c208 -180 212 -411 212 -456z" />
    <glyph glyph-name="asterisk" unicode="*" horiz-adv-x="369" 
d="M168 547c-13 3 -27 4 -42 4c-49 0 -81 7 -81 37c0 14 9 30 33 30c34 0 52 -33 96 -51c-4 39 -23 66 -23 92c0 21 12 39 30 39s33 -11 33 -35c0 -27 -17 -67 -19 -97c46 20 62 52 95 52c27 0 34 -20 34 -30c0 -30 -35 -37 -69 -37c-19 0 -37 -1 -55 -4
c34 -37 83 -47 83 -87c0 -18 -15 -29 -29 -29c-39 0 -46 65 -71 104c-25 -45 -32 -104 -70 -104c-17 0 -29 13 -29 28c0 43 51 51 84 88z" />
    <glyph glyph-name="plus" unicode="+" horiz-adv-x="550" 
d="M250 435c0 13 23 27 33 27c8 0 17 -4 17 -14v-172h176c10 0 14 -9 14 -17c0 -10 -14 -33 -27 -33h-163v-160c0 -12 -19 -25 -34 -25c-8 0 -16 6 -16 15v170h-175c-9 0 -15 8 -15 16c0 15 13 34 25 34h165v159z" />
    <glyph glyph-name="comma" unicode="," horiz-adv-x="220" 
d="M104 95c40 0 66 -39 66 -99c0 -70 -58 -118 -118 -129c-7 7 -9 14 -9 24c52 13 88 59 88 80c0 23 -17 29 -36 31c-18 3 -44 12.5 -44 44c0 28 22 49 53 49z" />
    <glyph glyph-name="hyphen" unicode="-" horiz-adv-x="338" 
d="M271 223h-216c-9 0 -15 9 -15 19c0 18 13 41 25 41h219c10 0 14 -10 14 -20c0 -12 -14 -40 -27 -40z" />
    <glyph glyph-name="period" unicode="." horiz-adv-x="220" 
d="M57 43c0 29 24 53 53 53s53 -24 53 -53s-24 -53 -53 -53s-53 24 -53 53z" />
    <glyph glyph-name="slash" unicode="/" horiz-adv-x="323" 
d="M293 646l-237 -705h-41l237 705h41z" />
    <glyph glyph-name="zero" unicode="0" horiz-adv-x="465" 
d="M232 575c-45 0 -106 -46 -106 -292c0 -87 10 -258 103 -258c18 0 67 9 89 91c14 51 17 114 17 206c0 134 -27 210 -58 236c-12 11 -28 17 -45 17zM228 -10c-38.7002 0 -72.999 13.5996 -101.399 42c-54.7002 54.5 -87.6006 155.4 -87.6006 262c0 198 94 316 193 316
c54 0 95.7998 -30.2998 122 -65c44 -58 68 -143 68 -242c0 -235 -117 -313 -194 -313z" />
    <glyph glyph-name="one" unicode="1" horiz-adv-x="465" 
d="M288 122c0 -83 17 -88 87 -91c6 -6 6 -27 0 -33c-50 1 -74.4004 2 -122 2c-54.2002 0 -90 -1 -139 -2c-6 6 -6 27 0 33c70 3 97 8 97 91v326c0 34 -3.5 58 -20 58c-19 0 -41.5 -6 -87 -25c-9 6.09961 -13.4004 15.5996 -15 27c88 41 140.7 65.7002 196 100
c3.5 0 6 -0.200195 6 -5c-1.7002 -13 -3 -74 -3 -134v-347z" />
    <glyph glyph-name="two" unicode="2" horiz-adv-x="465" 
d="M61 468c0 60 69 142 180 142c81 0 169 -44 169 -152c0 -76 -43 -120 -100 -175l-101 -97c-5 -5 -74 -73 -74 -121h178c36 0 53 25 70 96c10 2 23 0 29 -5c-1 -30 -11 -105 -24 -158c0 0 -46 2 -78 2h-175c-32 0 -83 -2 -83 -2c0 59 16 107 114 207l74 73
c59 60 82 112 82 176c0 96 -51 121 -87 121c-73 0 -99 -36 -99 -61c0 -8 6 -17 8 -24s4 -13 4 -21c0 -22.0996 -30 -40 -47 -40c-21 0 -40 18 -40 39z" />
    <glyph glyph-name="three" unicode="3" horiz-adv-x="465" 
d="M215 575c-26 0 -94.999 -12.001 -94.999 -76.001c0 -19 -4 -52 -39 -52c-24 0 -34 20 -34 34c0 33 42 129 189 129c52.2998 0 87.2002 -16.9004 109 -39c24.2998 -24.5996 31.2998 -49.0996 31.2998 -79.0996c0 -52.7002 -23 -94.2998 -105.3 -132.899l1 -2
c59 -10 141 -49 141 -158c0 -132 -106 -209 -225 -209c-60 0 -144 27 -144 67c0 16 21 35 42 35c20 0 33 -12 43 -26c12 -18 21 -41 72 -41c35 0 124 27 124 160c0 113 -74 129 -131 129c-13 0 -31 0 -48 -2l-5 32c99.0996 14.0996 157.1 90.5 157.1 140.7
c0 64.2998 -39.9004 90.2998 -83.1006 90.2998z" />
    <glyph glyph-name="four" unicode="4" horiz-adv-x="465" 
d="M271 507c-69 -94.2002 -139.7 -205.8 -191 -288h191v288zM430 219c11 0 15 -6 15 -16c0 -12 -15 -31 -29 -31h-69v-92c0 -47 21 -45 70 -49c6 -6 6 -27 0 -33c-32 1 -69.5996 2 -109 2c-46 0 -86 -1 -118 -2c-6 6 -6 27 0 33c43 3 81 3 81 49v92h-204
c-30 0 -36 27 -39 42c91.5 143 208 307.5 271 385c3.7002 4.5 9 11 16 11h32l2 -2c-1.7002 -7.7998 -2 -47 -2 -97v-292h83z" />
    <glyph glyph-name="five" unicode="5" horiz-adv-x="465" 
d="M319 189c0 109 -51 152 -116 152c-36 0 -74 -4 -127 -24l34 288c35 -3 71 -5 108 -5c53 0 107 5 164 11l7 -4l-16 -68c-41 -4 -75 -6 -105 -6c-48 0 -80 5 -117 9l-20 -167c18 7 55 16 98 16c112 0 179 -87 179 -184c0 -126 -88 -218 -212 -218c-57 0 -142 34 -142 75
c0 20 19 37 38 37c21 0 38 -15 51 -32c15 -20 28 -45 66 -45c60 0 110 70 110 165z" />
    <glyph glyph-name="six" unicode="6" horiz-adv-x="465" 
d="M135.2 307c-5.90039 -28.7998 -8.2002 -55.5 -8.2002 -78c0 -171 57 -205 120 -205c49 0 91 50 91 160c0 50 -22 146 -120 146c-17.4004 0 -50 -1.40039 -82.7998 -23zM144.3 343.3c29.7998 13.7002 68.6992 21.7002 94.6992 21.7002c136 0 182 -77 182 -163
s-54 -213 -185 -213c-77 0 -192 40 -192 243c0 79 31 170 93 242c56 65 118 107 219 137c8 -5 12 -14 12 -26c-133 -49.7998 -196.6 -150.8 -223.699 -241.7z" />
    <glyph glyph-name="seven" unicode="7" horiz-adv-x="465" 
d="M170 535c-32 0 -65 -7 -87 -87c-11 -1.2998 -21.0996 -0.0996094 -32 3c8 52 19 112 20 160c0 3 1 3 4 3c18 -4 16 -14 50 -14h206c38 0 60 6 77 11l16 -12c-112 -273 -167 -439 -224 -609l-68 -3l-8 7c68 152 147 347 225 541h-179z" />
    <glyph glyph-name="eight" unicode="8" horiz-adv-x="465" 
d="M234 575c-60 0 -92 -38 -92 -84c0 -31 7 -64 70 -105l31 -19c27 20 80 65 80 119c0 46 -24 89 -89 89zM393 485c0 -64 -76 -116 -123 -139l71 -43c53.0996 -32.2002 78 -83 78 -141c0 -76 -64 -172 -195 -172c-106 0 -178 54 -178 156c0 39 17 84 58 120
c25 22 51.5 39.5 80.5 55l-25.5 16c-60.9004 38.2002 -88 79 -88 135c0 77 66 138 168 138c98 0 154 -53 154 -125zM226 25c45 0 120 17 120 117c0 48 -25 95 -87 133l-47 28c-86 -57 -99 -127 -99 -157c0 -90 68 -121 113 -121z" />
    <glyph glyph-name="nine" unicode="9" horiz-adv-x="465" 
d="M335.8 292c5.90039 28.7998 8.2002 55.5 8.2002 78c0 171 -57 205 -120 205c-49 0 -91 -50 -91 -160c0 -50 22 -146 120 -146c17.4004 0 50 1.40039 82.7998 23zM326.7 255.7c-29.7998 -13.7002 -68.6992 -21.7002 -94.6992 -21.7002c-136 0 -182 77 -182 163
s54 213 185 213c77 0 192 -40 192 -243c0 -79 -31 -170 -93 -242c-56 -65 -118 -107 -219 -137c-8 5 -12 14 -12 26c133 49.7998 196.6 150.8 223.699 241.7z" />
    <glyph glyph-name="colon" unicode=":" horiz-adv-x="236" 
d="M70 355c0 29 24 53 53 53s53 -24 53 -53s-24 -53 -53 -53s-53 24 -53 53zM70 72c0 29 24 53 53 53s53 -24 53 -53s-24 -53 -53 -53s-53 24 -53 53z" />
    <glyph glyph-name="semicolon" unicode=";" horiz-adv-x="236" 
d="M70 355c0 29 24 53 53 53s53 -24 53 -53s-24 -53 -53 -53s-53 24 -53 53zM123 95c40 0 66 -39 66 -99c0 -70 -58 -118 -118 -129c-7 7 -9 14 -9 24c52 13 88 59 88 80c0 23 -17 29 -36 31c-18 3 -44 12.5 -44 44c0 28 22 49 53 49z" />
    <glyph glyph-name="less" unicode="&#x3c;" horiz-adv-x="550" 
d="M138 239l317 -116c13 -14 14 -44 0 -50l-390 142c-9.2998 14.7002 -9.2998 30.7002 0 48l390 141c14 -6 13 -36 0 -50z" />
    <glyph glyph-name="equal" unicode="=" horiz-adv-x="550" 
d="M464 309h-389c-9 0 -15 8 -15 16c0 15 13 34 25 34h392c10 0 14 -9 14 -17c0 -10 -14 -33 -27 -33zM464 143h-389c-9 0 -15 8 -15 16c0 15 13 34 25 34h392c10 0 14 -9 14 -17c0 -10 -14 -33 -27 -33z" />
    <glyph glyph-name="greater" unicode="&#x3e;" horiz-adv-x="550" 
d="M412 236l-317 116c-13 14 -14 44 0 50l390 -142c9.2998 -14.7002 9.2998 -30.7002 0 -48l-390 -141c-14 6 -13 36 0 50z" />
    <glyph glyph-name="question" unicode="?" horiz-adv-x="435" 
d="M114 572c0 -15 2 -21 6 -26s6 -11 6 -24c0 -23 -20 -35 -39 -35c-16 0 -41 8 -41 43c0 38 21 66 51 90c29 25 71 39 124 39c102 0 168 -60 168 -151c0 -79 -62 -123 -109 -157c-23 -17 -43 -33 -52 -50c-13 -25 -14 -49 -14 -73v-44c0 -7 -9 -10 -17 -10s-16 3 -16 10v46
c0 43 5 102 70 161c40 37 55 66 55 113c0 65 -38 122 -95 122s-97 -24 -97 -54zM144 43c0 29 24 53 53 53s53 -24 53 -53s-24 -53 -53 -53s-53 24 -53 53z" />
    <glyph glyph-name="at" unicode="@" horiz-adv-x="895" 
d="M569 316c0 38 -29 63 -65 63c-17 0 -60 -9 -90 -40c-51 -51 -68 -115 -68 -177c0 -48 15 -92 78 -92c35 0 84 57 115 130c13 31 30 82 30 116zM583 74c0 -10 9 -12 11 -12c102 0 165 47 165 213c0 206 -175 305 -300 305c-152 0 -320 -102 -320 -339
c0 -150 76 -366 334 -366c85 0 147 23 201 66l13 -18c-60 -46 -120 -81 -233 -81c-239 0 -395 168 -395 381c0 215 185 388 410 388c215 0 370 -142 370 -329c0 -114 -70 -255 -288 -255c-29 0 -36 25 -36 41c0 15 7 38 15 63l-2 1c-44 -74 -98 -103 -133 -103
c-100 0 -122 84 -122 124c0 143 127 257 233 257c33 0 67 -17 77 -43l5 24l53 13l15 -5l-60 -258c-6 -27 -13 -60.5 -13 -67z" />
    <glyph glyph-name="A" unicode="A" horiz-adv-x="695" 
d="M263 283h177l-94 272h-6l-102.2 -258.7c-3.7998 -10.2998 3.2002 -13.2998 25.2002 -13.2998zM155 79c-15.5996 -41.0996 31.4004 -45.4004 69 -48c6 -6 6 -27 0 -33c-37 1 -87 2 -128 2c-30.2998 0 -63 -1 -89 -2c-6 6 -6 27 0 33c43.5 3 74 9 100 71l227 536
c13 0 40 11 55 20l206 -572c17.4004 -48.2002 51.2002 -51.5 90 -55c6 -6 6 -27 0 -33c-35 1 -73 2 -114 2c-39 0 -94 -1 -131 -2c-6 6 -6 27 0 33c47.5996 3.40039 85.7998 6.5 74 41l-58 169h-211c-24 0 -30 -4 -35 -17z" />
    <glyph glyph-name="B" unicode="B" horiz-adv-x="588" 
d="M191 550v-184h74c83 0 142 30 142 115c0 102 -73 132 -129 132c-87 0 -87 -10 -87 -63zM191 332v-214c0 -61 13 -87 83 -87c152 0 180 61 180 134c0 90 -57 167 -194 167h-69zM148 645c36 0 90 2 125 2c186 0 215 -87 215 -154c0 -54.2998 -44.9004 -105.6 -95 -131v-2
c87 -25 154 -80 154 -176c0 -86 -53 -186 -252 -186c-84 0 -110.3 2 -146 2c-37.0996 0 -91 -1 -130 -2c-6 6 -6 27 0 33c70 3 87 8 87 91v401c0 83 -17 88 -87 91c-6 6 -6 27 0 33c39 -1 93.2998 -2 129 -2z" />
    <glyph glyph-name="C" unicode="C" horiz-adv-x="646" 
d="M357 -10c-215 0 -320 146.2 -320 320c0 104.3 39.5996 202.2 106 263c59 54 130 85 215 85c123 0 168 -40 219 -45c10 -55 17 -103 22 -155c-11.2998 -6 -21 -9 -33 -5c-26 86 -81 168 -219 168c-52 0 -110 -28 -159.6 -89c-36.5 -44.9004 -59.4004 -116.7 -59.4004 -203
c0 -146 93.4004 -298 228 -298c93 0 161 31 232 109c11 0 18 -6 23 -15c-68 -89 -157 -135 -254 -135z" />
    <glyph glyph-name="D" unicode="D" horiz-adv-x="701" 
d="M191 84c0 -32 11 -52 109 -52c141 0 262 50 262 252c0 154 -71 329 -287 329c-49 0 -84 -14 -84 -49v-480zM148 645c39 0 94 2 165 2c192 0 345 -153 345 -339c0 -246 -186 -310 -327 -310c-103 0 -145 2 -182 2c-37.7002 0 -91 -1 -130 -2c-6 6 -6 27 0 33
c70 3 87 8 87 91v401c0 83 -17 88 -87 91c-6 6 -6 27 0 33c40 -1 93.2998 -2 129 -2z" />
    <glyph glyph-name="E" unicode="E" horiz-adv-x="557" 
d="M281 361c85 0 88 13 91 68c6 6 27 6 33 0c-1 -24 -2 -58 -2 -86c0 -34.2998 1 -62 2 -88c-6 -6 -27 -6 -33 0c-3 45 -6 68 -91 68h-91v-221c0 -47 14 -63 56 -63h116c76 0 111 59 131 131c13.0996 3.2002 24.5996 0.900391 35 -5c-8 -51 -23 -117 -37 -167
c0 0 -80 2 -128 2h-215c-33 0 -93 -1 -130 -2c-6 6 -6 27 0 33c70 3 87 8 87 91v401c0 83 -17 88 -87 91c-6 6 -6 27 0 33c40 -1 98.5 -2 129 -2h255c24 0 32 1 49 4c3 0 4 -1 4 -3c2 -8 17 -104 22 -145c-9.7998 -4.7002 -20.5996 -6.7998 -33 -5c-22 69 -38 109 -113 109
h-75c-54 0 -66 -20 -66 -64v-180h91z" />
    <glyph glyph-name="F" unicode="F" horiz-adv-x="485" 
d="M283 323h-93.001v-201c0 -83 17 -88 87 -91c6 -6 6 -27 0 -33c-35 1 -84 2 -129 2s-95 -1 -130 -2c-6 6 -6 27 0 33c70 3 87 8 87 91v401c0 83 -17 88 -87 91c-6 6 -6 27 0 33c40 -1 97 -2 129 -2h255.3c24.7002 0 29.5 0.599609 47 4
c2.40039 0 3.60059 -0.700195 4.00098 -3c1.40039 -7.59961 16.5 -104 21.7002 -145c-8 -3 -19 -5 -31 -5c-22 69 -47 109 -153 109h-45c-44 0 -56 -10 -56 -64v-180h93c85 0 88 13 91 68c6 6 27 6 33 0c-1 -26 -2 -52.5 -2 -86c0 -34.2998 1 -63 2 -88c-6 -6 -27 -6 -33 0
c-3 45 -6 68 -91 68z" />
    <glyph glyph-name="G" unicode="G" horiz-adv-x="685" 
d="M377 658c111 0 148 -35 208 -45c16 -72 20.5 -112 23 -154c-11.2998 -4.7002 -21.7002 -6.7002 -33 -6c-26 86 -67 169 -212 169c-116.5 0 -230 -120 -230 -295c0 -132 84 -301 242 -301c54 0 121 6 155 38v153c0 40.0996 -27.0996 43.7998 -82 48c-6 6 -6 30 0 36
c44 -1 90.5 -2 124 -2c40 0 65 1 89 2c6 -6 6 -30 0 -36c-29 -3 -46 -12.7998 -46 -48v-116c0 -11 5 -19 16 -28c-68 -58 -161 -83 -279 -83c-191 0 -315 137.2 -315 317c0 220 173 351 340 351z" />
    <glyph glyph-name="H" unicode="H" horiz-adv-x="730" 
d="M618 122c0 -83 17 -88 87 -91c6 -6 6 -27 0 -33c-44 1 -91.7002 2 -129 2c-37.0996 0 -85 -1 -130 -2c-6 6 -6 27 0 33c70 3 87 8 87 91v199h-342v-199c0 -83 17 -88 87 -91c6 -6 6 -27 0 -33c-44 1 -92.7002 2 -129 2c-37.7002 0 -86 -1 -130 -2c-6 6 -6 27 0 33
c70 3 87 8 87 91v401c0 83 -17 88 -87 91c-6 6 -6 27 0 33c38 -1 79 -2 129 -2c51 0 92 1 130 2c6 -6 6 -27 0 -33c-70 -3 -87 -8 -87 -91v-160h342v160c0 83 -17 88 -87 91c-6 6 -6 27 0 33c44 -1 91.7002 -2 129 -2c38 0 89 1 130 2c6 -6 6 -27 0 -33
c-70 -3 -87 -8 -87 -91v-401z" />
    <glyph glyph-name="I" unicode="I" horiz-adv-x="297" 
d="M191 122c0 -83 17 -88 87 -91c6 -6 6 -27 0 -33c-45 1 -93.4004 2 -129 2c-36.2998 0 -85 -1 -130 -2c-6 6 -6 27 0 33c70 3 87 8 87 91v401c0 83 -17 88 -87 91c-6 6 -6 27 0 33c47 -1 95.5 -2 129 -2c38.5 0 86 1 130 2c6 -6 6 -27 0 -33c-70 -3 -87 -8 -87 -91v-401z
" />
    <glyph glyph-name="J" unicode="J" horiz-adv-x="322" 
d="M226 523v-420c0 -143 -58.2998 -194.7 -102 -232c-41 -35 -72 -43 -117 -43c-22 0 -75 18 -75 54c0 22 30 43 44 43c24.9004 0 33.7002 -12.7998 39.7002 -25.5c7 -14.7002 21.2002 -26.5 40.2998 -26.5c33 0 85 28 85 208v442c0 83 -17 88 -97 91c-6 6 -6 27 0 33
c50 -1 102.7 -2 139 -2c38.7002 0 82 1 120 2c6 -6 6 -27 0 -33c-60 -3 -77 -8 -77 -91z" />
    <glyph glyph-name="K" unicode="K" horiz-adv-x="637" 
d="M191 122c0 -83 17.001 -88.001 87.001 -91.001c6 -6 6 -27 0 -33c-45 1 -91 2 -129 2c-39 0 -85 -1 -130 -2c-6 6 -6 27 0 33c70 3 87 8 87 91v401c0 83 -17 88 -87 91c-6 6 -6 27 0 33c45 -1 90.5 -2 129 -2c36.5 0 84 1 130 2c6 -6 6 -27 0 -33c-70 -3 -87 -8 -87 -91
v-175.7c35.0996 2.90039 57.6992 16 78.999 38.7002l165 176c42.0996 44.9004 8.09961 48.6006 -28 52.001c-6 6 -6 27 0 33c37 -1 76 -2 113 -2c32.2002 0 64 1 95 2c6 -6 6 -27 0 -33c-40 -3 -80 -7 -126 -56l-147 -151c-34 -35 -35 -42 -35 -49
c0 -8 5.2998 -15.9004 13 -25l219 -260c30.5996 -36.2998 59.0996 -39.3994 88 -41.999c6 -6 6 -27 0 -33c-33 1 -67 2 -101 2c-21.0996 0 -34 -1 -54 -2c-4 0 -4.59961 3 -5 6c-2 16 -15.7002 43.4004 -36 69l-157 198c-20.2998 25.5996 -49.2002 36.8994 -83 37.8994
v-186.9z" />
    <glyph glyph-name="L" unicode="L" horiz-adv-x="528" 
d="M149 0c-33.7002 0 -91 -1 -130 -2c-6 6 -6 27 0 33c70 3 87 8 87 91v401c0 83 -17 88 -87 91c-6 6 -6 27 0 33c46 -1 92.9004 -2 129 -2c38.0996 0 85 1 130 2c6 -6 6 -27 0 -33c-70 -3 -87 -8 -87 -91v-414c0 -51 18 -70 57 -70h63c106 0 143 59 163 131
c12.4004 1.7998 23.2002 -0.299805 33 -5c-6 -52 -16 -117 -26 -167c0 0 -92 2 -119.3 2h-212.7z" />
    <glyph glyph-name="M" unicode="M" horiz-adv-x="839" 
d="M662.7 116l-25.6992 418h-2l-225 -529c-4 -8 -8 -15 -14 -15s-12.2002 7.90039 -15 15l-207 519h-2l-38 -401c-5.40039 -56.2998 0 -87 66 -92c6 -6 6 -27 0 -33c-30 1 -70 2 -94 2s-56 -1 -86 -2c-6 6 -6 27 0 33c57 5 69 30.0996 74.9004 90l40.0996 412
c7 75 1 77 -68 81c-6 6 -6 27 0 33l145 -2l205 -508c3.09961 -7.59961 6 -13 8 -13s5 4 9 14l212 507l131 2c6 -6 6 -27 0 -33c-68 -4 -73 -18 -68.7002 -72l29.7998 -421c5.7998 -82.7998 8.89941 -87 76.8994 -90c6 -6 6 -27 0 -33c-33.2002 1 -79 2 -109 2
s-70 -1 -107 -2c-6 6 -6 27 0 33c65 3 68.7002 4 63.7002 85z" />
    <glyph glyph-name="N" unicode="N" horiz-adv-x="699" 
d="M556 512c0 91 -17 95 -87 102c-6 6 -6 27 0 33c44 -1 89.7002 -2 111 -2c23.7002 0 71 1 112 2c6 -6 6 -27 0 -33c-70 -7 -87 -13 -87 -102v-491c0 -19 -9 -31 -23 -31c-16 0 -29 9 -40 24l-349 441c-17 22 -28 33 -34 33c-8 0 -8 -15 -8 -49v-306c0 -91 17 -95 87 -102
c6 -6 6 -27 0 -33c-42 1 -87.9004 2 -111 2c-23.5996 0 -69 -1 -112 -2c-6 6 -6 27 0 33c70 7 87 13 87 102v417c-6 26 -36 61 -79 64c-6 6 -6 27 0 33l135 -2l343 -435c29 -37 44 -55 48 -55c7 0 7 11 7 30v327z" />
    <glyph glyph-name="O" unicode="O" horiz-adv-x="702" 
d="M331 622c-99 0 -198 -85 -198 -295c0 -192 115 -301 237 -301c114 0 200 105 200 284c0 202 -107 312 -239 312zM666 329c0 -84 -22 -156.3 -61.7998 -213c-54.9004 -78.2998 -143.4 -126 -254.2 -126c-170 0 -313 123 -313 320c0 193.9 113.3 348 307 348
c179 0 322 -122 322 -329z" />
    <glyph glyph-name="P" unicode="P" horiz-adv-x="541" 
d="M189 554v-233c11 -3 51 -5 76 -5c97 0 149 44 149 152c0 127 -69 150 -138 150c-72 0 -87 -35 -87 -64zM104 523c0 83 -17 88 -87 91c-6 6 -6 27 0 33c40 -1 92.2998 -2 129 -2c40 0 98.7002 7 137 7c185 0 224 -107 224 -166c0 -85 -55 -204 -237 -204
c-35 0 -59 3 -81 10v-170c0 -83 24 -87 102 -91c6 -6 6 -27 0 -33c-50 1 -108.6 2 -144 2c-35.7002 0 -85 -1 -130 -2c-6 6 -6 27 0 33c70 3 87 8 87 91v401z" />
    <glyph glyph-name="Q" unicode="Q" horiz-adv-x="702" 
d="M331 622c-99 0 -198 -85 -198 -295c0 -192 115 -301 237 -301c114 0 200 105 200 284c0 202 -107 312 -239 312zM666 329c0 -84 -22.002 -156.298 -61.8018 -212.998c-44.7002 -63.7002 -111.7 -107.2 -194.9 -121.2c-32.5996 -9.2002 -81.5996 -30 -131.199 -66.2998
c7.2002 1 13.9004 1.5 19.9004 1.5c57.7998 0 107.899 -21.7002 154.499 -44.1006c42.5 -20.4004 82.7002 -37.9004 124.5 -37.9004c29 0 65 10 87 37l17 -12c-39 -56 -81 -82 -144 -82c-70.5996 0 -121.399 27 -167.999 53.5996
c-38.9004 22.2002 -75.5 41.4004 -118 41.4004c-7.59961 0 -21.1992 -3.2998 -35.2988 -12.7002c-13.2002 -14.0996 -25.9004 -29.5 -37.7002 -46.2998l-39 20c4.7998 8.2998 10.7998 16 17.5996 23.0996c35.9004 43.0996 91.6006 90.3994 152.501 122.3
c-151.4 18.0996 -272.101 136.6 -272.101 317.6c0 193.9 113.3 348 307 348c179 0 322 -122 322 -329z" />
    <glyph glyph-name="R" unicode="R" horiz-adv-x="587" 
d="M272 618c-71 0 -83 -35 -83 -64v-229h48c97 0 168 28 168 153c0 118 -72 140 -133 140zM189 122c0 -83 17 -88 87 -91c6 -6 6 -27 0 -33c-44 1 -91.4004 2 -129 2c-38.5 0 -85 -1 -130 -2c-6 6 -6 27 0 33c70 3 87 8 87 91v401c0 83 -17 88 -87 91c-6 6 -6 27 0 33
c47 -1 94 -2 129 -2c36 0 78 7 125 7c63 0 125 -3 173 -48c36 -34 53 -75 53 -125c0 -105 -90 -157 -133 -171l126 -210c26 -43.4004 51 -77 96 -77c4 -8 4.5 -17.0996 1 -24c-10 -5 -27 -7 -42 -7c-60 0 -103.3 42.4004 -132 89l-107 174c-14.2998 23.2998 -33 38 -117 38
v-169z" />
    <glyph glyph-name="S" unicode="S" horiz-adv-x="485" 
d="M394.6 631c10.4004 -53 14.4004 -81 17.9004 -129c-9 -7 -22 -7.7998 -32.5 -6c-20 66 -51 128 -148.1 128c-58.9004 0 -109.5 -56 -109.5 -112c0 -84.0996 99.9004 -121.899 159.101 -144.1c82.4004 -30.9004 162.5 -77.5 162.5 -183.9
c0 -63.5996 -36.5 -125.199 -94 -161.199c-34.7998 -21.7002 -77.8994 -32.7998 -123.399 -32.7998c-88.7002 0 -116.601 23 -179.601 23c-12 49 -16 75 -20 152c9.59961 5.09961 20.1992 7 32.499 3c22 -99.5 82.0996 -142 175.5 -142c79.7998 0 125 42 125 123
c0 97.7998 -73.7002 125.899 -134.5 148.999c-88 33.5 -174.5 81.5996 -174.5 187c0 106 89 173 190.4 173c97.5996 0 95.3994 -19 153.199 -27z" />
    <glyph glyph-name="T" unicode="T" horiz-adv-x="597" 
d="M350 122c0 -83 17 -88 97 -91c6 -6 6 -27 0 -33c-50 1 -100.6 2 -139 2c-40.0996 0 -91 -1 -140 -2c-6 6 -6 27 0 33c80 3 97 8 97 91v385c0 61 -10 99 -47 99h-49c-66 0 -112 -26 -132 -106c-12 0 -24 1 -34 5c11 48 21 100 25 145c0 1 2 3 4 3c38 -3 156 -8 233 -8h86
c79 0 190 5 224 8c1 0 3 -2 3 -3c1 -45 6 -96 13 -142c-9 -4 -23 -5 -34 -5c-17 77 -64 103 -139 103h-22c-36 0 -46 -38 -46 -102v-382z" />
    <glyph glyph-name="U" unicode="U" horiz-adv-x="661" 
d="M172 523v-257c0 -65 2 -141 51 -188c30.0996 -28.9004 71 -47 119 -47c169 0 184 134 184 246v246c0 81 -17 84 -92 91c-6 6 -6 27 0 33c46 -1 94.5 -2 116 -2c23.2002 0 64 1 102 2c6 -6 6 -27 0 -33c-60 -7 -77 -10.7002 -77 -91v-228c0 -178 -49 -305 -254 -305
c-102.5 0 -234 39 -234 243v290c0 83 -17 88 -77 91c-6 6 -6 27 0 33c39 -1 80 -2 119 -2c39.4004 0 88 1 135 2c6 -6 6 -27 0 -33c-77 -3 -92 -8 -92 -91z" />
    <glyph glyph-name="V" unicode="V" horiz-adv-x="652" 
d="M448 614c-6 6 -6 27 0 33c41 -1 86 -2 109 -2s58 1 88 2c6 -6 6 -27 0 -33c-63 -7 -79.0996 -45.7002 -98.2998 -93l-206.7 -510c-5.7998 -14.2998 -13 -23 -24 -23c-10 0 -17 7.40039 -23 23l-197.5 512c-26.5996 69 -34.5 86 -89.5 91c-6 6 -7 27 -1 33
c33 -1 67.7002 -2 104 -2c36 0 81 1 121 2c6 -6 6 -27 0 -33c-68 -7 -73.7998 -20.5 -50.5996 -80l159.1 -407h4.59961l157.9 401c21.4004 54.4004 21 81 -53 86z" />
    <glyph glyph-name="W" unicode="W" horiz-adv-x="951" 
d="M810 565c15.2998 42.5996 -25 46 -66 49c-6 6 -6 27 0 33c40 -1 84 -2 110 -2s58 1 87 2c6 -6 6 -27 0 -33c-55 -3 -73.0996 -26.2998 -86 -61l-201 -539c-5 -15 -12 -26 -23 -26c-12 0 -17.0996 10 -23 27l-115 332c-5.90039 17.0996 -10 28 -14 28
c-5 0 -8.09961 -5 -17 -25l-149 -335c-7.40039 -16.5996 -13 -27 -26 -27c-11.5 0 -16.5996 11.0996 -22 27l-188 541c-18.5996 53.5 -26 55 -71 58c-6 6 -6 27 0 33c29 -1 58.2998 -2 93 -2c39 0 83 1 116 2c6 -6 6 -27 0 -33c-35 -2 -61.5996 -6.90039 -50 -42
l146.2 -442.3l4.2998 -1l129.5 293.3c7.5 16.9004 9 24.7002 9 35c0 9 -3.09961 19 -7 31l-23 66c-9 25.7002 -31 57 -84 60c-6 6 -6 27 0 33c32 -1 67 -2 100 -2c40 0 84 1 125 2c6 -6 6 -27 0 -33c-34 -3 -69.5 -6.2002 -52 -60l137.5 -422l3.2002 -1.2998z" />
    <glyph glyph-name="X" unicode="X" horiz-adv-x="660" 
d="M538 102c42.4004 -58.2998 59 -68 101 -71c6 -6 7 -27 1 -33c-30 1 -63 2 -102 2c-40 0 -77 -1 -114 -2c-6 6 -6 27 0 33c56 3 51.7998 13.9004 23.5 54.2002l-123.5 175.8c-5.59961 8 -10 11 -14 11c-3 0 -9.2998 -6 -15 -14l-132 -185c-24.2002 -34 -5.2998 -39 39 -42
c6 -6 6 -27 0 -33c-40 1 -82 2 -105 2s-60 -1 -90 -2c-6 6 -6 27 0 33c44.7002 4.2998 76.7002 16.0996 111 62l148 198c5.90039 7.90039 10 17 10 23c0 10 -5.7998 18.2998 -14 30l-142.3 203c-41.2002 58.7002 -59.7002 64 -101.7 67c-6 6 -7 27 -1 33c30 -1 63 -2 102 -2
c40 0 77 1 114 2c6 -6 6 -27 0 -33c-56 -3 -51.7002 -14.2002 -23.5 -54.2002l110.5 -163.8c4.7998 -7 9 -11 12 -11c4 0 10 3.5 16 12l123 175c23.5 33.4004 5.2998 39 -39 42c-6 6 -6 27 0 33c40 -1 82 -2 105 -2s60 1 90 2c6 -6 6 -27 0 -33
c-44.7002 -4.2998 -76.2998 -17.0996 -111 -62l-137 -177c-9.09961 -11.7998 -10 -21 -10 -30c0 -10 6.2002 -19.5996 16 -33z" />
    <glyph glyph-name="Y" unicode="Y" horiz-adv-x="575" 
d="M337 122c0 -83 17 -88.001 97 -91.001c6 -6 6 -27 0 -33c-50 1 -100.3 2 -139 2c-38.5996 0 -91 -1 -140 -2c-6 6 -6 27 0 33c80 3 97 8 97 91v127c0 37 -3.5 47.5 -21 77l-131.3 221c-34.5 58.0996 -51.7002 64 -93.7002 67c-6 6 -7 27 -1 33c30 -1 63 -2 102 -2
c40 0 78 1 114 2c6 -6 6 -27 0 -33c-56 -3 -60 -12.5996 -35.7998 -55.1992l116 -204.8c9 -15.9004 13.7998 -17.2002 21.7998 -2l110.8 209c21.4004 40.4004 5.5 50 -38.7998 53c-6 6 -6 27 0 33c32 -1 68 -2 91 -2s55 1 83 2c6 -6 6 -27 0 -33
c-44.7002 -4.2998 -67 -13.2998 -95 -64l-119.5 -216c-16.4004 -29.5996 -17.5 -46.5 -17.5 -76.2998v-135.7z" />
    <glyph glyph-name="Z" unicode="Z" horiz-adv-x="604" 
d="M551 -2c0 0 -99.7002 2 -126.7 2h-364.3c-14 0 -19 5 -19 15c0 7 2 15 8 23c102 152 292 418 389 541c5 7 8 13 8 18c0 6 -4.09961 9.09961 -10 9l-211 -4c-75 -1.40039 -113 -37 -134 -106c-11 0 -20 2 -30 5c8 41 18 98 22 152c37 -3 134 -8 181 -8h221c30 0 61 2 73 2
c8 0 13 -4 13 -11c0 -11 -2.90039 -17.7998 -24 -45c-118 -152 -302 -413 -375 -519c-5 -9 -8 -15 -8 -20c0 -9 8 -14.4004 25 -14l193 4c109 2 134 57 165 128c13 0 24 -3 31 -5c-12 -52 -22 -111 -27 -167z" />
    <glyph glyph-name="bracketleft" unicode="[" horiz-adv-x="356" 
d="M108 -193v896h212c6 -6 6 -24 0 -30c-137 -10 -145 -25 -145 -112v-611c0 -87 7 -102 145 -113c6 -6 6 -24 0 -30h-212z" />
    <glyph glyph-name="backslash" unicode="\" horiz-adv-x="287" 
d="M55 698l230 -746h-44l-230 746h44z" />
    <glyph glyph-name="bracketright" unicode="]" horiz-adv-x="356" 
d="M248 704v-896h-212c-6 6 -6 24 0 30c137 10 145 25 145 112v611c0 87 -7 102 -145 113c-6 6 -6 24 0 30h212z" />
    <glyph glyph-name="asciicircum" unicode="^" horiz-adv-x="518" 
d="M259 593l-102 -247h-45l127 304h42l126 -304h-45z" />
    <glyph glyph-name="underscore" unicode="_" horiz-adv-x="486" 
d="M476 -110c8 -8 8 -36 0 -44h-466c-8 8 -8 36 0 44h466z" />
    <glyph glyph-name="grave" unicode="`" horiz-adv-x="392" 
d="M178 699l70 -126c5 -10 6 -17 6 -24c0 -5 -7 -11 -15 -11c-6 0 -13 5 -29 20l-114 109l2 11c8 6 31 23 65 23c5 0 11 -1 15 -2z" />
    <glyph glyph-name="a" unicode="a" horiz-adv-x="457" 
d="M293 233l-79 -21c-74 -19 -95 -65 -95 -110c0 -31 22 -71 72 -71c28 0 62 23 88 44c8 6 14 13 14 26v132zM293 48h-2l-20 -16c-44 -34 -74.2002 -42 -109 -42c-70 0 -126 26 -126 108c0 68 69 121 165 145l86 21c3 1 6 5 6 12c0 113 -47 130 -81 130
c-38 0 -80 -11 -80 -42c0 -11 1 -17 2 -20c2 -4 3 -11 3 -18c0 -13 -18 -34 -47 -34c-23 0 -35 12 -35 36c0 57 83 111 165 111c73 0 151 -27 151 -169v-147c0 -46 1 -85 30 -85c12.7002 0 29.5 9.7998 37 16c11.2998 -6.2998 15.2998 -14.7002 17 -27
c-20.7002 -20 -56.7002 -37 -95 -37c-50.4004 0 -61 27 -67 58z" />
    <glyph glyph-name="b" unicode="b" horiz-adv-x="493" 
d="M174 363c-12.9004 -11.4004 -17 -21 -17 -42v-250c20 -25 41 -47 72 -47c95 0 141 86 141 200c0 97 -50 171 -111 171c-29 0 -59 -9 -85 -32zM167 394c31 28 69.0996 45 112 45c87 0 177 -75 177 -197c0 -159 -119 -252 -221 -252c-35.2998 0 -65.0996 5.5 -88 24.7998
c-11 9.2002 -17 9.2002 -27.2998 -2.7998c-7.7002 -8.90039 -17.6006 -18.2002 -23.7002 -24c-12 0 -17 4 -22 12c3 14 4 32 4 71v488c0 84 -12 79 -64 82c-6 6 -8 22 -6 30c40 3 115 17 140 27c9 0 13 -3 13 -10c0 0 -4 -40 -4 -105v-184c0 -9 3.7002 -10.7002 10 -5z" />
    <glyph glyph-name="c" unicode="c" horiz-adv-x="428" 
d="M398 91c-50 -82 -103 -101 -163 -101c-126 0 -198 89 -198 218c0 142 106 231 205 231c96 0 153 -40 153 -95c0 -31 -28 -44 -49 -44s-35 9 -38 36c-4 35 -12 70 -71 70c-66 0 -114 -66 -114 -176c0 -117 61 -191 134 -191c43 0 86 22 120 66c9 -1 17 -5 21 -14z" />
    <glyph glyph-name="d" unicode="d" horiz-adv-x="506" 
d="M345 124v190c0 31 -3 38 -17 54c-20 23 -45 36 -81 36c-20 0 -62 -3 -93 -50c-15 -21 -29 -61 -29 -133c0 -125 56 -184 110 -184c25 0 57 16 94 48c14.0996 12.2002 16 20 16 39zM334 50.2998c-49 -40.2998 -86 -60.2998 -125 -60.2998c-108 0 -170 90 -170 213
c0 74 26 133 69 176c40 38 84 60 150 60c33 0 74 -17 78 -17c7 0 9 2 9 9v128c0 84 -12 79 -64 82c-6 6 -8 22 -6 30c40 3 115 17 140 27c9 0 13 -3 13 -10c0 0 -4 -40 -4 -105v-453c0 -49 9 -68 73 -73c6 -6 6 -21 0 -27c-61 -7 -96 -22 -118 -40c-6 -2.5 -11 -3 -19 0
c0 0 -8.5 34.5 -11 59c-0.700195 7 -10.2002 5.2002 -15 1.2998z" />
    <glyph glyph-name="e" unicode="e" horiz-adv-x="447" 
d="M124 282l181 3c11 0.200195 15 5 15 14c0 84 -45 105 -83 105c-24 0 -94 -9 -113 -122zM386 93c12 -1 18 -6 21 -16c-40 -52 -94 -87 -170 -87c-72 0 -119 24 -153 64c-33 38 -47 92 -47 148c0 152 113 235 200 235c139 0 169 -90 169 -174c0 -11 -7 -17 -19 -17l-266 2
c0 -58 12 -104 32 -137c31 -51 73 -72 109 -72c58 0 87 16 124 54z" />
    <glyph glyph-name="f" unicode="f" horiz-adv-x="310" 
d="M175 122c0 -83 6 -87 84 -91c6 -6 6 -27 0 -33c-35 1 -83 2 -123 2s-75 -1 -110 -2c-6 6 -6 27 0 33c54 4 70 8 70 91v268h-69c-4 0 -5 1 -5 6v13c0 8 5 20 23 20h51v40c0 156 93 229 177 229c38 0 64 -3 90 -21c21 -16 32 -34 32 -51c0 -20 -24 -41 -41 -41
c-21 0 -32 14 -40 32c-14 35 -30 47 -60 47c-33 0 -79 -24 -79 -178v-57h108c5 0 8 -2 8 -6v-20c0 -9 -14 -13 -23 -13h-93v-268z" />
    <glyph glyph-name="g" unicode="g" horiz-adv-x="500" 
d="M319 279c0 83 -34 129 -97 129c-55 0 -80 -36 -80 -106c0 -64 9 -135 93 -135c37 0 84 19 84 112zM132 -10c-29 -35 -31 -60 -31 -94c0 -68 84 -97 120 -97c90 0 196 38 196 110c0 26 -12 40 -51 62c-29 16 -71 17 -121 17c-14 0 -42 -3 -73 -3c-13 0 -29 2 -40 5z
M444 387c-11 0 -24 10 -28 18c-6 9 -13 12 -20 12c-13 0 -33 -14 -40 -24c29 -30 43 -57 43 -104c0 -98 -81 -153 -169 -153c-39 0 -67 7 -91 21c-12 -17 -18 -38 -18 -58c0 -43 35 -57 64 -57c5 0 15 1 30 2c24 3 49 5 67 5c37 0 107 -1 146 -33c29 -24 44 -49 44 -81
c0 -108 -146 -173 -281 -173c-77 0 -159 27 -159 114c0 43 28 89 82 121c-26 13 -46 41 -46 77c0 34 16 77 44 101c-28 27 -52 58 -52 112c0 92 82 152 171 152c59 0 92 -20 104 -28c26 34 74 51 100 51c27 0 46 -16 46 -37c0 -20 -18 -38 -37 -38z" />
    <glyph glyph-name="h" unicode="h" horiz-adv-x="538" 
d="M167 285.9l-0.000976562 -163.9c0 -83 9 -87 59.7998 -91c6 -6 6 -27 0 -33c-28 1 -60.7998 2 -98.7998 2c-40 0 -76.7998 -1 -109.8 -2c-6 6 -6 27 0 33c58 4 69.7998 8 69.7998 91v437c0 84 -12 79 -64 82c-6 6 -8 22 -6 30c40 3 115 17 140 27c9 0 13 -3 13 -10
c0 0 -4 -40 -4 -105l-0.799805 -225c0 -14 6.40039 -3.7998 9.80078 0c61 68 120.9 81 170 81c35 0 66.2002 -12 83 -34c23.2998 -30.5 27 -79 27 -134v-149c0 -82 11 -86 67 -91c5 -6 5 -27 0 -33c-33 1 -66 2 -106 2s-74 -1 -102 -2c-5 6 -5 27 0 33c52 5 62 9 62 91v152
c0 30 -2 57.2002 -12 77c-11.5996 22.9004 -32.5996 36 -53 36c-39.4004 0 -90 -21.7002 -128 -59c-8 -8.7002 -17 -21 -17 -42.0996z" />
    <glyph glyph-name="i" unicode="i" horiz-adv-x="271" 
d="M90 599c0 24 28 48 52 48c27 0 48 -28 48 -52c0 -21.0996 -24 -48 -52 -48c-24 0 -48 26 -48 52zM181 122c0 -83 11 -87 72 -91c6 -6 6 -27 0 -33c-33 1 -71 2 -111 2s-79 -1 -112 -2c-6 6 -6 27 0 33c61 5 72 8 72 91v195c0 57 -10.5 62.9004 -65 68c-2 6 -4 22 -2 28
c69 9 108.5 18 137 29c8 0 13 -3 13 -7c0 0 -4 -64 -4 -113.7v-199.3z" />
    <glyph glyph-name="j" unicode="j" horiz-adv-x="272" 
d="M99 599c0 24 28 48 52 48c27 0 48 -28 48 -52c0 -21.0996 -24 -48 -52 -48c-24 0 -48 26 -48 52zM113 317c0 57 -11 63 -65 68c-2 6 -4 22 -2 28c69 9 109 18 137 29c8 0 13 -3 13 -7c0 0 -4 -64 -4 -114v-211c0 -189 -28 -261 -75 -299c-37 -31 -89 -34 -110 -34
c-19 0 -55 14 -55 43c0 18 21 38 32 38c22 0 34 -16 44 -26c7 -7 20 -11 31 -11c50 0 54 123 54 255v241z" />
    <glyph glyph-name="k" unicode="k" horiz-adv-x="512" 
d="M86 122l-0.000976562 437c0 84 -12 79 -64 82c-6 6 -8 22 -6 30c40 3 115 17 140 27c9 0 13 -3 13 -10c0 0 -4 -40 -4 -105v-348.8c18.9004 2.59961 45.8008 14.3994 68.001 30.7998c25.7002 19 57 53 80 82c9.2998 11.7002 33 47 -23 51c-6 6 -6 27 0 33
c23 -1 60 -2 98 -2c36 0 64 1 87 2c6 -6 6 -27 0 -33c-40 -4 -75 -12 -105 -44l-88 -91c-4 -4 -4 -6 -4 -10c0 -5 3.40039 -9.5 7 -14l132 -166c26.7002 -33.5996 52 -38 86 -42c6 -6 6 -27 0 -33c-20 1 -51 2 -82 2c-20 0 -42 -1 -62 -2c-3 0 -3.7002 2 -4 5
c-1.2998 11.7002 -12.5996 30.5 -42 70l-73 98c-11.9004 16 -21 25 -32 32.5c-9.7002 3.40039 -23.7998 4.90039 -43 5.40039v-86.9004c0 -83 11 -87 52 -91c6 -6 6 -27 0 -33c-23 1 -56 2 -91 2c-40 0 -74 -1 -107 -2c-6 6 -6 27 0 33c56 4 67 8 67 91z" />
    <glyph glyph-name="l" unicode="l" horiz-adv-x="264" 
d="M95 122v437c0 75 -6 78 -64 82c-6 6 -8 22 -6 30c40 3 115 17 140 27c9 0 13 -3 13 -10c0 0 -4 -40 -4 -105v-461c0 -83 11 -88 72 -91c6 -6 6 -27 0 -33c-33 1 -71 2 -111 2s-77 -1 -112 -2c-6 6 -6 27 0 33c61 3 72 8 72 91z" />
    <glyph glyph-name="m" unicode="m" horiz-adv-x="790" 
d="M170 358c0.5 -12 7.40039 -5.09961 12 0c41.7002 46.5996 94 81 152 81c52 0 90.5 -32.4004 100 -73.4004c2 -8.59961 8 -3.59961 11 -0.399414c52.0996 55 113.8 73.7998 165 73.7998c88 0 103 -70 103 -159v-158c0 -82 9 -87 64 -91c5 -6 5 -27 0 -33
c-28 1 -63 2 -103 2s-77 -1 -102 -2c-5 6 -5 27 0 33c52 4 62 9 62 91v176c0 67 -22 89 -60 89c-39 0 -84 -13 -132 -66c1 -12 1 -26 1 -40v-159c0 -82 9 -87 59 -91c5 -6 5 -27 0 -33c-25 1 -58 2 -98 2s-77 -1 -102 -2c-5 6 -5 27 0 33c54 4 62 9 62 91v174
c0 67 -28 91 -66 91c-30.9004 0 -68.4004 -20.2998 -108 -59c-8 -8.7002 -17 -21 -17 -42v-164c0 -82 11 -86 61.7998 -91c6 -6 6 -27 0 -33c-30 1 -60.7998 2 -100.8 2s-78 -1 -108 -2c-6 6 -6 27 0 33c55 4 68 9 68 91v195c0 58 -11 63 -65 68c-2 6 -4 22 -2 28
c69 9 95 18 123 29c8 0 9.90039 -3.40039 12 -8c4.7002 -10.2998 6.7002 -46.2998 8 -76z" />
    <glyph glyph-name="n" unicode="n" horiz-adv-x="542" 
d="M184 358c59.2998 68 115.001 81 164.001 81c35 0 66 -12 83 -34c23 -31 27 -79 27 -134v-149c0 -82 11 -86 67 -91c5 -6 5 -27 0 -33c-30 1 -66 2 -106 2s-72 -1 -102 -2c-5 6 -5 27 0 33c52 5 62 9 62 91v152c0 30 -2 57 -12 77c-12 23 -33 36 -53 36
c-39 0 -84 -22 -122 -59c-8 -9 -17 -21 -17 -42v-164c0 -82 10 -86 61 -91c6 -6 6 -27 0 -33c-30 1 -60 2 -100 2s-80 -1 -110 -2c-6 6 -6 27 0 33c60 5 70 9 70 91v195c0 58 -11 63 -65 68c-2 6 -4 22 -2 28c69 9 95 18 123 29c8 0 9.90039 -3.40039 12 -8
c4.7002 -10.2998 7 -49 8 -76c0.299805 -9.40039 5.89941 -7 11.999 0z" />
    <glyph glyph-name="o" unicode="o" horiz-adv-x="504" 
d="M41 205c0 63.2002 19.001 121.4 55.3008 164c36.5996 43 90.8994 70 156.699 70c153 0 210 -121 210 -225c0 -61.2998 -20.2998 -124.2 -65.0996 -168c-34.0996 -33.2998 -82.5 -56 -146.9 -56c-142 0 -210 113 -210 215zM238.001 404c-90 0 -111 -89 -111 -176
c0 -77 34 -203 138 -203c47 0 112 31 112 157c0 144 -53 222 -139 222z" />
    <glyph glyph-name="p" unicode="p" horiz-adv-x="519" 
d="M175 331c-11.5996 -14.2998 -16 -23.001 -16 -44.001v-182c0 -36.0996 3.90039 -41.8994 24 -59.8994c18 -16.0996 53 -21.0996 71 -21.0996c112 0 141 102 141 184c0 113 -55 185 -119 185c-29.2002 0 -75 -30 -101 -62zM156 367.999
c0.5 -9.59961 5.40039 -10.2998 11 -4c39.5 44.5 90.5 75 137 75c102 0 177 -98 177 -204c0 -81 -27 -143 -74 -189c-41 -39 -91 -56 -147 -56c-31.5996 0 -62.5 5.59961 -87 15.5c-10.2002 4.2002 -14 5.5 -14 -7.5v-108c0 -83 11 -87 82 -91c6 -6 6 -27 0 -33
c-33 1 -81 2 -121 2s-77 -1 -112 -2c-6 6 -6 27 0 33c61 3 72 8 72 91v427c0 58 -11 63 -65 68c-2 6 -4 22 -2 28c69 9 95 18 123 29c8 0 9.90039 -3.40039 12 -8c4.7002 -10.2998 6.5 -36 8 -66z" />
    <glyph glyph-name="q" unicode="q" horiz-adv-x="503" 
d="M322 368.4c-21.9004 24.5 -48.5996 36.6006 -79 36.6006c-80 0 -122 -74 -122 -178c0 -151 87 -193 145 -193c15.7998 0 42.5996 1.09961 66 13.1992c13 6.7998 14 11.7998 14 29.7998v230c0 24.0996 -4 39 -24 61.4004zM346.001 -110.999v111c0 21 -4 19 -27 5.59961
c-17.0996 -10 -50 -15.5996 -77 -15.5996c-144 0 -207 124 -207 217c0 132 90 232 212 232c42.4004 0 81.4004 -8.7002 113 -29.2002c12 -7.7998 16 -4.7998 29 13.2002c8.09961 11.2998 14 19 21 19c11 0 15 -11 15 -25v-528c0 -83 11 -87 72 -90c6 -6 6 -27 0 -33
c-33 1 -71 2 -111 2s-77 -1 -112 -2c-6 6 -6 27 0 33c61 3 72 7 72 90z" />
    <glyph glyph-name="r" unicode="r" horiz-adv-x="372" 
d="M176 358c0.200195 -5 5 -13 11 -2c23 39 64 83 111 83c42 0 60 -28.9004 60 -48c0 -25 -23 -50 -47 -50c-17.4004 0 -28.6006 13.2998 -36.2002 23.2998c-7.7998 10.2998 -16.7998 12.7002 -25.7998 12.7002c-12 0 -35 -33 -46 -49c-12 -18 -24 -41 -24 -67v-139
c0 -83 12 -86 82 -91c6 -6 6 -27 0 -33c-35 1 -81 2 -121 2s-79 -1 -114 -2c-6 6 -6 27 0 33c62 4 74 8 74 91v195c0 58 -11 63 -65 68c-2 6 -4 22 -2 28c69 9 95 18 123 29c8 0 9.90039 -3.40039 12 -8c4.7002 -10.2998 6.2998 -36 8 -76z" />
    <glyph glyph-name="s" unicode="s" horiz-adv-x="390" 
d="M48 138c6 6 25 7 31 1c6 -25 17 -69 39 -92c10.2998 -10.7002 32 -24 71 -24c37 0 85 21 85 70c0 43 -19 64 -102 98c-77 32 -110 63 -110 136c0 64 67 112 141 112c52 0 100 -14 131 -19c-1 -33 -3 -70 -6 -106c-6 -6 -26 -7 -32 -1c-13 85 -71 93 -93 93
c-34 0 -70 -23 -70 -64c0 -55 39.7998 -70.5 100 -92.7998c68 -25.2002 117 -64.9004 117 -133.2c0 -99 -103 -126 -159 -126c-37 0 -64 4 -91 11c-7 2 -13 2 -20 2c-5 0 -15 -1 -25 -3c0 42 -3 89 -7 138z" />
    <glyph glyph-name="t" unicode="t" horiz-adv-x="316" 
d="M43 429l46 0.0996094c0 110.9 -3 104.301 -3 115.9c0 6.90039 10 10.3008 22 13.7012c12.5 3.5 22.7002 7.7998 34 14.0996c9.2998 5.09961 17.7998 9 22.2998 9c4.7002 0 7.7002 -2.40039 7.7002 -8.80078c0 0 -4 -40 -4 -105v-39h120c5 0 8 -2 8 -6v-20
c0 -9 -14 -13 -24 -13h-104v-253c0 -62 6 -92 33 -92c26 0 56 8 82 28c10 -1 16 -6.7002 18 -17c-39 -44 -89 -66 -135 -66s-77 28 -77 99v301h-59c-4 0 -5 1 -5 6v13c0 8 4 20 18 20z" />
    <glyph glyph-name="u" unicode="u" horiz-adv-x="531" 
d="M217 -10c-99 0 -129 67 -129 136v192c0 65 -14 76 -62 80c-6 6 -6 27 0 33c34 -1 70 -2 102 -2c15 0 30 1 35 2c5 0 8 -3 8 -6c0 0 -4 -73 -4 -103v-182c0 -89 50 -103 80 -103c25 0 63 16 100 48c14 12 16 20 16 39v193c0 66 -13 78 -62 81c-6 6 -6 27 0 33
c34 -1 70 -2 102 -2c15 0 30 1 35 2c5 0 8 -3 8 -6c0 0 -4 -73 -4 -103v-192c0 -49 9 -68 73 -73c6 -6 6 -21 0 -27c-61 -7 -96 -22 -118 -40c-6.5 -2.5 -11 -3 -19 0c0 0 -8.5 33.5 -11 59c-0.700195 7 -10 5 -15 1c-49 -40 -96 -60 -135 -60z" />
    <glyph glyph-name="v" unicode="v" horiz-adv-x="497" 
d="M325 398c-6 6 -6 27.001 0 33.001c25 -1 59 -2 92 -2c26 0 50 1 70 2c6 -6 6 -27 0 -33c-56 -5 -66.9004 -30.0996 -85.6006 -74l-133.4 -313c-7.09961 -16.5996 -14 -23 -24 -23c-13 0 -19 6 -25 21l-127.6 316c-20.4004 50.5996 -27.4004 66.6992 -80.4004 72.999
c-6 6 -6 27 0 33c30 -1 60 -2 93 -2s68 1 101 2c6 -6 6 -27 0 -33c-53.2998 -7 -49 -19 -31.0996 -67l72.0996 -193c15.5996 -41.7998 20.7998 -42.5 37 -3l80.7002 196c20.9004 50.7998 15.3008 63 -38.6992 67z" />
    <glyph glyph-name="w" unicode="w" horiz-adv-x="747" 
d="M203 398c-48 -3 -48.999 -19 -30.0986 -67l80 -206c12.9004 -32.5 15.1006 -31 28.1006 2l70 177l-6.40039 16c-17.9004 44.7998 -29.6006 73.5 -76.6006 78c-6 6 -6 27 0 33c30 -1 63 -2 88 -2c30 0 70 1 100 2c6 -6 6 -27 0 -33c-53 -4 -55 -14 -36.5 -61l86.2998 -219
c8.2002 -20.7998 12.2002 -21 22.2002 4l83.5996 208c14.0996 35.0996 24.3994 64 -50.6006 68c-6 6 -6 27 0 33c30 -1 72 -2 102 -2s52 1 72 2c6 -6 6 -27 0 -33c-51 -3 -68 -31.0996 -84.4004 -72l-130.6 -317c-6 -15 -14 -21 -23 -21c-10 0 -18 6 -24 20l-103 248
l-101 -246c-7 -16 -15 -22 -24 -22c-10 0 -18 6 -24 20l-130.9 323c-21.0996 52 -32 62.2002 -79.0996 67c-6 6 -6 27 0 33c26.2002 -1 53 -2 91 -2c36 0 71 1 101 2c6 -6 6 -27 0 -33z" />
    <glyph glyph-name="x" unicode="x" horiz-adv-x="490" 
d="M182 358l61.001 -89.999c7.59961 -11.2002 11.7998 -12 19 -2l65 91c24.2002 33.9004 12.7002 37 -24 41c-6 6 -6 27 0 33c26 -1 54 -2 84 -2s53 1 73 2c6 -6 6 -27 0 -33c-36.5 -3 -60 -8 -97 -55l-84 -107c-4.7002 -6 -4.2002 -9.09961 0 -15l90 -127
c40.2998 -56.9004 54.7002 -60 100 -63c6 -6 6 -27 0 -33c-24 1 -51 2 -89 2c-36 0 -69 -1 -99 -2c-6 6 -6 27 0 33c31.7002 3.2998 47.7998 5.09961 13 53l-58 80c-6.2998 8.59961 -9.7002 9.89941 -18 -2.00098l-63 -91c-22.5 -32.5 -14 -36.2998 22 -40c6 -6 6 -27 0 -33
c-26 1 -54 2 -84 2s-52 -1 -72 -2c-6 6 -6 27 0 33c35 2 57.4004 5.09961 97 56l84 108c3.59961 4.59961 3.89941 7.7998 -1.00098 15l-87 127c-28 41 -56 58 -90 61c-6 6 -6 27 0 33c26 -1 56 -2 86 -2s74 1 101 2c6 -6 6 -27 0 -33
c-44.7002 -4.7002 -51.9004 -6.2002 -29 -40z" />
    <glyph glyph-name="y" unicode="y" horiz-adv-x="515" 
d="M204 -160c-36 -64 -76.002 -72.001 -97.002 -72.001c-27 0 -47 16 -47 37c0 13 15 43 44 43c11 0 15 -3 29 -3c25 0 39 9 50 29c15 31 27.0996 58.5996 39 92c10 28 -5.2998 73.9004 -14 94l-113.1 263c-26.2002 61 -39.2002 70 -78.9004 75c-6 6 -6 27 0 33
c20 -1 47 -2 81 -2c36 0 76 1 113 2c6 -6 6 -27 0 -33c-56 -4.2998 -50.7998 -22.7998 -32.7998 -65l88.7002 -208c8.5 -19.7998 16.9004 -17.0996 23.9004 -1l99.2002 229c16 36 -16.4004 42 -48 45c-6 6 -6 27 0 33c30 -1 61 -2 91 -2c28 0 51 1 71 2c6 -6 6 -27 0 -33
c-47 -5.7002 -61.2998 -21.7002 -81 -64c-52.2002 -112.4 -97 -215 -177 -408c-12.2998 -29.5996 -25.3994 -58.1992 -40.999 -85.999z" />
    <glyph glyph-name="z" unicode="z" horiz-adv-x="424" 
d="M71 439c14.5 -5.40039 26.8994 -10.001 58.999 -10.001h183c29 0 57 2 62 2c7 0 12 -3 12 -7s-2.7002 -11.7998 -18 -37c-62 -102 -166 -259 -240 -353h133c52.0996 1.2002 72.5 23.2002 98 76l14 29c12 0 23.5 -2.2998 30 -6c-7 -50 -20 -102 -32 -136l-312 3
c-15 0 -23 5 -23 12c0 5 0.400391 8.40039 9 20c78 105 178 249 246 363l-128 -3c-30 -0.700195 -61 -18 -81 -91c-11.5996 -2.59961 -24.1992 -0.699219 -32.999 3.00098c9 49 14 84 15 129c0 2.40039 3.59961 6 6 6z" />
    <glyph glyph-name="braceleft" unicode="{" horiz-adv-x="277" 
d="M178 552l8.00098 -166c4.2998 -89 -37.7998 -117.8 -105 -137v-4c67.7998 -28.2002 109.399 -67.7002 104.999 -150l-8 -149c-4.5 -84 36 -134 80 -134c6 -6 6 -18 0 -24c-101 0 -157 33 -152 163l6 170c2 61 -24.5 105 -98 114c-8 8 -9 15 0 24c74 7 98 61 98 111
l-6 184c-4 113 62 153 152 153c6 -6 6 -18 0 -24c-38 -11 -85 -28.0996 -80 -131z" />
    <glyph glyph-name="bar" unicode="|" horiz-adv-x="205" 
d="M125 -232h-44v930h44v-930z" />
    <glyph glyph-name="braceright" unicode="}" horiz-adv-x="277" 
d="M95 -58l-8.00098 166c-4.2998 89 37.7998 117.8 105 137v4c-67.7998 28.2002 -109.399 67.7002 -104.999 150l8 149c4.5 84 -36 134 -80 134c-6 6 -6 18 0 24c101 0 157 -33 152 -163l-6 -170c-2 -61 24.5 -105 98 -114c8 -8 9 -15 0 -24c-74 -7 -98 -61 -98 -111l6 -184
c4 -113 -62 -153 -152 -153c-6 6 -6 18 0 24c38 11 85 28.0996 80 131z" />
    <glyph glyph-name="asciitilde" unicode="~" horiz-adv-x="449" 
d="M26 209c13 65 67 128 128 128c23 0 50.5 -13.7998 75 -32c27 -20 50 -33 72 -33c28 0 77 17 99 67c8 0 13.7002 -1.90039 17 -6c-31 -107 -96 -120 -120 -120c-23 0 -52 15 -76 33c-24.2002 18.0996 -48 32 -73 32c-35 0 -82 -29 -105 -73c-6 0 -11.2998 1 -17 4z" />
    <glyph glyph-name="uni00A0" unicode="&#xa0;" horiz-adv-x="250" 
 />
    <glyph glyph-name="exclamdown" unicode="&#xa1;" horiz-adv-x="288" 
d="M144 -229c-24 0 -53 19 -53 73c0 65 14 107 24 193c13 108 13 168 15 182c1 11 4 20 14 20s13 -7 14 -13c2 -21 8 -111 16 -189c9 -88 23 -123 23 -193c0 -54 -29 -73 -53 -73zM197 386c0 -29 -24 -53 -53 -53s-53 24 -53 53s24 53 53 53s53 -24 53 -53z" />
    <glyph glyph-name="cent" unicode="&#xa2;" horiz-adv-x="465" 
d="M232 611h35.999v-96.5996c88.9004 -1.09961 141.5 -38.7998 141.5 -90.2998c0 -29.5 -26.5 -41.9004 -46.5 -41.9004s-33.2998 8.59961 -36.2002 34.2998c-3.59961 31.5 -10.5996 62.9004 -58.7998 66.2002v-348.1c3.40039 -0.299805 6.80078 -0.5 10.3008 -0.5
c40.9004 0 81.8008 20.9004 114.101 62.7002c8.59961 -1 16.1992 -4.7002 19.999 -13.2998c-44.5996 -73.0996 -91.6992 -93.5 -144.399 -95.7998v-100.7h-36v101.8c-104 11.2002 -162.8 92.2998 -162.8 206c0 119.7 79.2002 199.8 162.8 216.399v99.7998zM231.999 145.3
v333.4c-48.2002 -15.7998 -81 -74.2998 -81 -163c0 -85.2002 33.9004 -146.4 81 -170.4z" />
    <glyph glyph-name="sterling" unicode="&#xa3;" horiz-adv-x="465" 
d="M74 300c-5 0 -6 2 -6 7v11c0 8 6 21 24 21h45v20c0 85 27 139 82 193c35 36 80 59 133 59c23 0 80 -13 80 -49c0 -25 -17 -41 -41 -41c-15 0 -24 8 -36 19c-13 12 -28 23 -50 23c-46 0 -83 -66 -83 -153v-71h124c5 0 8 -2 8 -6v-20c0 -8 -13 -13 -24 -13h-108
c-1 -119 -41 -177 -75 -209c124 0 113 -47 182 -47c30 0 77 8 103 44c8 -1 14 -4 18 -11c-24 -52 -74 -88 -139 -88c-90 0 -91 60 -179 60c-35 0 -40 -14 -40 -25c0 -23 -18 -35 -40 -35c-19 0 -36 12 -36 28c0 19 24 35 51 50c59 43 70 123 70 214v19h-63z" />
    <glyph glyph-name="currency" unicode="&#xa4;" horiz-adv-x="465" 
d="M108 305c0 -77 48 -141 123 -141c74 0 123 65 123 140c0 79 -56 141 -121 141c-74 0 -125 -65 -125 -140zM231 119c-42 0 -80 13 -114 38l-45 -56l-43 43l57 45c-27 33 -42 72 -42 115c0 45 15 84 42 116l-55 44l39 42l48 -54c35 25 72 37 113 37c43 0 81 -13 115 -39
l49 58l41 -43l-58 -47c26 -32 40 -70 40 -114c0 -42 -14 -80 -39 -113l55 -46l-38 -40l-48 53c-35 -26 -74 -39 -117 -39z" />
    <glyph glyph-name="yen" unicode="&#xa5;" horiz-adv-x="465" 
d="M191 127v7h-141c-5 0 -6 2 -6 7v13c0 8 6 19 24 19h123v72h-141c-5 0 -6 1 -6 6v12c0 8 6 21 24 21h119l-107 219c-18 38 -39 62 -80 66c-6 6 -6 27 0 33c32 -1 76 -2 90 -2c6 0 57 1 89 2c6 -6 6 -27 0 -33c-36 0 -47 -3 -30 -38l107 -220h2l77 176c32 73 35 78 -15 82
c-6 6 -6 27 0 33c32 -1 62 -2 79 -2s35 1 67 2c6 -6 4 -27 -2 -33c-53 -5 -53 -9 -86 -82l-92 -203h129c4 0 8 -2 8 -6v-19c0 -10 -14 -14 -25 -14h-122v-72h139c4 0 8 -2 8 -6v-19c0 -10 -14 -14 -25 -14h-122v-7c0 -88 17 -93 102 -96c6 -6 6 -27 0 -33
c-53 1 -87.2002 2 -143 2c-56.9004 0 -94 -1 -146 -2c-6 6 -6 27 0 33c85 3 102 8 102 96z" />
    <glyph glyph-name="brokenbar" unicode="&#xa6;" horiz-adv-x="211" 
d="M130 674v-362h-49v362h49zM130 161v-362h-49v362h49z" />
    <glyph glyph-name="section" unicode="&#xa7;" horiz-adv-x="473" 
d="M124.8 415.1c-34.9004 35.2998 -44.8008 68.8994 -44.8008 110.899c0 66 53 132 156 132c97 0 139 -62 139 -101c0 -21 -9 -38 -36 -38c-26 0 -36 22 -41 41c-10 38 -25 67 -68 67c-47 0 -81 -35 -81 -81c0 -47 26 -84 91 -119c77 -41 183 -85 183 -208
c0 -66.4004 -30.4004 -112.2 -74.8008 -148.101c34.9004 -35.2998 44.8008 -68.8994 44.8008 -110.899c0 -66 -53 -132 -156 -132c-97 0 -139 62 -139 101c0 21 9 38 36 38c26 0 36 -22 41 -41c10 -38 25 -67 68 -67c47 0 81 35 81 81c0 47 -26 84 -91 119
c-77 41 -183 85 -183 208c0 64.4004 30.4004 112.2 74.8008 148.101zM327 90.0996c24.0996 21.4004 42.001 49.501 42.001 80.9014c0 92 -75 132 -147 174c-31.5 18.2002 -56.4004 34.7998 -75.9004 50.7998c-25.7002 -23.2002 -42.1006 -46.4004 -42.1006 -80.8008
c0 -92 75 -132 147 -174c31.5996 -18.2002 56.5 -34.9004 76 -50.9004z" />
    <glyph glyph-name="dieresis" unicode="&#xa8;" horiz-adv-x="379" 
d="M50 575c0 26 21 48 47 48s47 -22 47 -48s-21 -47 -47 -47s-47 21 -47 47zM219 575c0 26 21 48 47 48s47 -22 47 -48s-21 -47 -47 -47s-47 21 -47 47z" />
    <glyph glyph-name="copyright" unicode="&#xa9;" horiz-adv-x="695" 
d="M439 216c-20 -31 -62.999 -64.001 -117.999 -64.001c-38.7002 0 -75.2998 12.9004 -102 35c-34.5996 28.7002 -54 72.4004 -54 117c0 38.2002 12 74.6006 36 101.501c28.9004 32.2998 74 51.5 122 51.5c70 0 87 -13 107 -15c2 -37 1 -59 0 -83c-5 -3 -12 -4 -20 -4
c-17 46 -34 79 -91 79c-40 0 -87 -25 -87 -123c0 -73 42 -130 98 -130c51 0 79 34 90 50c9.7998 -2.7002 14.3994 -8.90039 18.999 -15zM321.001 22.999c-157 0 -287 128 -287 283c0 156 131 282 287 282s287 -126 287 -282s-131 -283 -287 -283zM321.001 555.999
c-140 0 -247 -111 -247 -250c0 -138 107 -251 247 -251c138 0 247 112 247 251s-108 250 -247 250z" />
    <glyph glyph-name="ordfeminine" unicode="&#xaa;" horiz-adv-x="307" 
d="M192 502c-85 -22 -109 -40 -109 -71c0 -21 11 -41 45 -41c21 0 38 10 64 33v79zM235 358c-25 0 -39 21 -42 39c-34 -30 -52 -39 -85 -39c-42 0 -77 27 -77 70c0 42 40 70 103 86l58 15c0 75 -31 83 -54 83c-33 0 -54 -11 -54 -27c0 -7 1 -11 2 -13s2 -7 2 -12
c0 -8 -7 -21 -26 -21c-15 0 -26 10 -26 25c0 40 62 73 104 73c49 0 106 -20 106 -114v-75c0 -41 5 -57 14 -57c4 0 9 2 12 5c7.2998 -2.7002 10.5996 -8 10 -16c-9 -10 -28 -22 -47 -22z" />
    <glyph glyph-name="guillemotleft" unicode="&#xab;" horiz-adv-x="543" 
d="M156 215c37.5 -42.5 75 -91 127 -170c-2.5 -10 -13.5 -17.7998 -24 -19c-79.5 85.5 -129.5 134 -185 183v12c55.5 49 105.5 97.5 185 183c10.5 -1.2002 21.5 -9 24 -19c-52 -79 -89.5 -127.5 -127 -170zM336 215c37.5 -42.5 75 -91 127 -170
c-2.5 -10 -13.5 -17.7998 -24 -19c-79.5 85.5 -129.5 134 -185 183v12c55.5 49 105.5 97.5 185 183c10.5 -1.2002 21.5 -9 24 -19c-52 -79 -89.5 -127.5 -127 -170z" />
    <glyph glyph-name="logicalnot" unicode="&#xac;" horiz-adv-x="599" 
d="M499 99v224h-459c-3.7002 12.7998 -6.7002 26 0 44h513v-268c-16.5996 -6.40039 -35 -9 -54 0z" />
    <glyph glyph-name="uni00AD" unicode="&#xad;" horiz-adv-x="338" 
d="M271 223h-216c-9 0 -15 9 -15 19c0 18 13 41 25 41h219c10 0 14 -10 14 -20c0 -12 -14 -40 -27 -40z" />
    <glyph glyph-name="registered" unicode="&#xae;" horiz-adv-x="695" 
d="M376 370c0 34 -16 51 -50 51c-25 0 -40 -16 -40 -34v-75h42c30 0 48 12 48 58zM263 443c16 0 52 2 72 2c75 0 95 -45 95 -75c0 -39 -26 -64 -57 -74l48 -82c11 -18.7998 27 -27 43 -24c4 -4 5 -11 4 -17c-12 -5 -24 -7 -36 -7c-20 0 -44 9 -61 38l-48 80
c-4 3 -32 4 -37 4v-56c0 -32 8 -38 40 -41c4 -4 4 -20 0 -24c-18 1 -47 2 -63 2s-46 -1 -64 -2c-4 4 -4 20 0 24c32 3 40 9 40 41v148c0 32 -8 38 -40 41c-4 4 -4 20 0 24c18 -1 48 -2 64 -2zM321 23c-157 0 -287 128 -287 283c0 156 131 282 287 282s287 -126 287 -282
s-131 -283 -287 -283zM321 556c-140 0 -247 -111 -247 -250c0 -138 107 -251 247 -251c138 0 247 112 247 251s-108 250 -247 250z" />
    <glyph glyph-name="macron" unicode="&#xaf;" horiz-adv-x="397" 
d="M315 529h-244c-9 0 -12 8 -12 15c0 12 10 29 22 29h244c10 0 14 -8 14 -14c0 -12 -11 -30 -24 -30z" />
    <glyph glyph-name="degree" unicode="&#xb0;" horiz-adv-x="267" 
d="M199 508c0 33 -20 72 -65 72c-43 0 -66 -36 -66 -72c0 -35 24 -69 66 -69c41 0 65 35 65 69zM34 509c0 56 45 101 100 101s99 -45 99 -101c0 -55 -44 -100 -99 -100s-100 45 -100 100z" />
    <glyph glyph-name="plusminus" unicode="&#xb1;" horiz-adv-x="550" 
d="M250 520c0 13 23 27 33 27c8 0 17 -4 17 -14v-172h176c10 0 14 -9 14 -17c0 -10 -14 -33 -27 -33h-163v-160c0 -12 -19 -25 -34 -25c-8 0 -16 6 -16 15v170h-175c-9 0 -15 8 -15 16c0 15 13 34 25 34h165v159zM463 37h-388c-9 0 -15 8 -15 16c0 15 13 34 25 34h391
c10 0 14 -9 14 -17c0 -10 -14 -33 -27 -33z" />
    <glyph glyph-name="two.superior" unicode="&#xb2;" horiz-adv-x="307" 
d="M73 587c-12 0 -26 11 -26 24c0 26 28 77 107 77c50 0 108 -19 108 -83c0 -46 -33 -79 -89 -119c-42 -30 -57 -57 -66 -90h83c31 0 45 39 56 67c10.7002 0.299805 18.7002 -1.2998 24 -5c-4.2998 -35.7002 -10.5 -67.2998 -19 -94h-206c0 48 38 90 86 127
c45 36 69 59 69 113c0 47 -32 54 -50 54c-31 0 -43 -9 -48 -21c-3.5 -8.2998 -0.700195 -21.0996 -2 -29c-3 -18 -17 -21 -27 -21z" />
    <glyph glyph-name="three.superior" unicode="&#xb3;" horiz-adv-x="307" 
d="M186 624c0 26 -22 34 -38 34c-17 0 -45 -8 -52 -24c-4.7998 -11 -4 -29 -27 -29c-19 0 -23 15 -23 18c0 17 27 65 114 65c52 0 85 -22 85 -59c0 -29 -22 -52 -51 -68c33 -3 80 -30 80 -88c0 -69 -59 -115 -139 -115c-26.2002 0 -96.7998 11.2998 -96.7998 42.7998
c0 13.2998 12.5 22.2002 24.7998 22.2002c14 0 24 -5 30 -17c5.7002 -11.5 14 -18 46 -18c29 0 73 13 73 77c0 57 -51 61 -75 61c-7 0 -12 -1 -20 -2c-5.40039 6.5 -4.7002 17.9004 -2 27c44 6 71 32 71 73z" />
    <glyph glyph-name="acute" unicode="&#xb4;" horiz-adv-x="341" 
d="M175 703c3 1 9.00098 2 14.001 2c6.40039 0 32 -1 55 -23l3 -11l-115 -109c-15 -15 -23 -19 -30 -19s-14 6 -14 13c0 11.2002 3.2998 15.2002 11.3994 28z" />
    <glyph glyph-name="uni00B5" unicode="&#xb5;" horiz-adv-x="515" 
d="M340 60c-39 -44 -82 -70 -146 -70c-27 0 -53 10 -65 23c-6 0 -13 -4 -13 -9c0 -65 34 -135 34 -178c0 -41 -19 -60 -43 -60c-17 0 -57 24 -57 65c0 51 16 98 16 161c0 33 -9 84 -9 142v188c0 28 -11 107 -11 107c24 0 57 7 87 10c0 0 3 -64 3 -96v-196
c0 -62 17 -112 73 -112c55 0 110 39 133 72v322c25 0 53 7 79 10v-318c0 -46 1 -87 42 -87c26 0 29 16 35 16c4 0 12 -8 12 -15c0 -5 -36 -45 -88 -45c-61 0 -77 42 -80 70h-2z" />
    <glyph glyph-name="pilcrow" unicode="&#xb6;" horiz-adv-x="602" 
d="M367 574v-735c0 -27 17 -38 40 -38s41 7 41 38v735c0 31 -18 38 -41 38s-40 -11 -40 -38zM408 645c69 0 129.5 0 177 2l2 -2v-19c0 -5 -4 -7.7002 -8 -8l-26 -2c-39.7002 -3.09961 -55 -12 -55 -42v-735c0 -30 15.2998 -38.9004 55 -42l26 -2c4 -0.299805 8 -3 8 -8v-19
l-2 -2c-47.5 2 -108 2 -177 2s-128 0 -177 -2l-2 2v19c0 5 3 7.7002 7 8l27 2c41.5996 3.09961 54 14 54 42v446c-9 -2 -17 -3 -32 -3c-146 0 -228 65 -228 199c0 79 58 166 190 166c75 0 134 -2 161 -2z" />
    <glyph glyph-name="periodcentered" unicode="&#xb7;" horiz-adv-x="250" 
d="M125 199c-28 0 -54 26 -54 54s26 54 54 54s54 -26 54 -54s-26 -54 -54 -54z" />
    <glyph glyph-name="cedilla" unicode="&#xb8;" horiz-adv-x="541" 
d="M302 -96c-19 0 -29 -1 -45 -6l-6 6l40 96h34l-25 -67c8 2 17 3 26 3c40 0 71 -24 71 -62c0 -43 -46 -74 -107 -74c-32 0 -49 6 -74 17c0 12 3 19 10 26c27 -10 38 -14 58 -14c30 0 51 14 51 40c0 21 -10 35 -33 35z" />
    <glyph glyph-name="one.superior" unicode="&#xb9;" horiz-adv-x="307" 
d="M135 620c-13 0 -32 -6 -57 -15c-7.90039 6.09961 -10 15 -10 27c47 17 73 29 117 56c5.2998 2.90039 12.7002 5 18 0v-239c0 -51 21 -54 55 -56c4 -8 4 -22 0 -29c-30 1 -51 1 -84 1c-35.2998 0 -66 0 -96 -1c-4 6 -5 21 0 29c40 2 71 5 71 56v130c0 32 -2 41 -14 41z
" />
    <glyph glyph-name="ordmasculine" unicode="&#xba;" horiz-adv-x="349" 
d="M39 429c0 81 54 137 140 137c87 0 132 -62 132 -131c0 -65 -45 -132 -139 -132c-74 0 -133 55 -133 126zM171 540c-50 0 -74 -47 -74 -101c0 -49 26 -110 86 -110c27 0 70 18 70 90c0 80 -32 121 -82 121z" />
    <glyph glyph-name="guillemotright" unicode="&#xbb;" horiz-adv-x="543" 
d="M387 215c-37.5 42.5 -75 91 -127 170c2.5 10 13.5 17.7998 24 19c79.5 -85.5 129.5 -134 185 -183v-12c-55.5 -49 -105.5 -97.5 -185 -183c-10.5 1.2002 -21.5 9 -24 19c52 79 89.5 127.5 127 170zM207 215c-37.5 42.5 -75 91 -127 170c2.5 10 13.5 17.7998 24 19
c79.5 -85.5 129.5 -134 185 -183v-12c-55.5 -49 -105.5 -97.5 -185 -183c-10.5 1.2002 -21.5 9 -24 19c52 79 89.5 127.5 127 170z" />
    <glyph glyph-name="onequarter" unicode="&#xbc;" horiz-adv-x="660" 
d="M557 601l41 -8l-458 -655l-42 8zM528 191.7c-39.2002 -48.5 -91.5 -122.2 -98 -139.7h98v139.7zM528 -6v24h-118.8c-26.5996 0 -21.5 20.2002 -18.9004 28.2002c2.90039 6.2998 6.10059 11.2998 9.50098 16.7998c33.2002 53.7998 77 106 112.1 147
c9 10.5 20.4004 21.7002 35.7002 30.7998c1.09961 0.700195 10.3994 1.2002 13.6992 1.2002c6.2998 0 18.7002 -1.09961 18.7002 -10v-180h56l-6 -34h-50v-24c0 -41 17 -44 51 -46c4 -8 4 -22 0 -29c-30 1 -48.4004 1 -78 1c-35.2998 0 -48 0 -78 -1c-4 6 -5 21 0 29
c40 2 53 5 53 46zM132 571c-13 0 -32 -6 -57 -15c-7.90039 6.09961 -10 15 -10 27c47 17 73 29 117 56c5.2998 2.90039 12.7002 5 18 0v-239c0 -51 21 -54 55 -56c4 -8 4 -22 0 -29c-30 1 -51 1 -84 1c-35.2998 0 -66 0 -96 -1c-4 6 -5 21 0 29c40 2 71 5 71 56v130
c0 32 -2 41 -14 41z" />
    <glyph glyph-name="onehalf" unicode="&#xbd;" horiz-adv-x="660" 
d="M532 601l42 -8l-459 -655l-41 8zM431 144c-12 0 -26 11 -26 24c0 26 28 77 107 77c50 0 108 -19 108 -83c0 -46 -33 -79 -89 -119c-42 -30 -57 -57 -66 -90h83c31 0 45 39 56 67c10.7002 0.299805 18.7002 -1.2998 24 -5c-4.2998 -35.7002 -10.5 -67.2998 -19 -94h-206
c0 48 38 90 86 127c45 36 69 59 69 113c0 47 -32 54 -50 54c-31 0 -43 -9 -48 -21c-3.5 -8.2998 -0.700195 -21.0996 -2 -29c-3 -18 -17 -21 -27 -21zM134 571c-13 0 -32 -6 -57 -15c-7.90039 6.09961 -10 15 -10 27c47 17 73 29 117 56c5.2998 2.90039 12.7002 5 18 0v-239
c0 -51 21 -54 55 -56c4 -8 4 -22 0 -29c-30 1 -51 1 -84 1c-35.2998 0 -66 0 -96 -1c-4 6 -5 21 0 29c40 2 71 5 71 56v130c0 32 -2 41 -14 41z" />
    <glyph glyph-name="threequarters" unicode="&#xbe;" horiz-adv-x="660" 
d="M562 601l41 -8l-458 -655l-42 8zM184 573c0 26 -22 34 -38 34c-17 0 -45 -8 -52 -24c-4.7998 -11 -4 -29 -27 -29c-19 0 -23 15 -23 18c0 17 27 65 114 65c52 0 85 -22 85 -59c0 -29 -22 -52 -51 -68c33 -3 80 -30 80 -88c0 -69 -59 -115 -139 -115
c-26.2002 0 -96.7998 11.2998 -96.7998 42.7998c0 13.2998 12.5 22.2002 24.7998 22.2002c14 0 24 -5 30 -17c5.7002 -11.5 14 -18 46 -18c29 0 73 13 73 77c0 57 -51 61 -75 61c-7 0 -12 -1 -20 -2c-5.40039 6.5 -4.7002 17.9004 -2 27c44 6 71 32 71 73zM532 193.7
c-39.2002 -48.5 -91.5 -122.2 -98 -139.7h98v139.7zM532 -4v24h-118.8c-26.5996 0 -21.5 20.2002 -18.9004 28.2002c2.90039 6.2998 6.10059 11.2998 9.50098 16.7998c33.2002 53.7998 77 106 112.1 147c9 10.5 20.4004 21.7002 35.7002 30.7998
c1.09961 0.700195 10.3994 1.2002 13.6992 1.2002c6.2998 0 18.7002 -1.09961 18.7002 -10v-180h56l-6 -34h-50v-24c0 -41 17 -44 51 -46c4 -8 4 -22 0 -29c-30 1 -48.4004 1 -78 1c-35.2998 0 -48 0 -78 -1c-4 6 -5 21 0 29c40 2 53 5 53 46z" />
    <glyph glyph-name="questiondown" unicode="&#xbf;" horiz-adv-x="435" 
d="M321 -143c0 15 -2 21 -6 26s-6 11 -6 24c0 23 20 35 39 35c16 0 41 -8 41 -43c0 -38 -21 -66 -51 -90c-29 -25 -71 -39 -124 -39c-102 0 -168 60 -168 151c0 79 62 123 109 157c23 17 43 33 52 50c13 25 14 49 14 73v44c0 7 9 10 17 10s16 -3 16 -10v-46
c0 -43 -5 -102 -70 -161c-40 -37 -55 -66 -55 -113c0 -65 38 -122 95 -122s97 24 97 54zM291 386c0 -29 -24 -53 -53 -53s-53 24 -53 53s24 53 53 53s53 -24 53 -53z" />
    <glyph glyph-name="Agrave" unicode="&#xc0;" horiz-adv-x="695" 
d="M284 818l121 -84c11 -8 15 -14 15 -21c0 -8 -7 -15 -15 -15s-22 3 -43 12l-154 63c18.2998 17.7002 41.7998 33.4004 76 45zM263 283h177l-94 272h-6l-102.2 -258.7c-3.7998 -10.2998 3.2002 -13.2998 25.2002 -13.2998zM155 79
c-15.5996 -41.0996 31.4004 -45.4004 69 -48c6 -6 6 -27 0 -33c-37 1 -87 2 -128 2c-30.2998 0 -63 -1 -89 -2c-6 6 -6 27 0 33c43.5 3 74 9 100 71l227 536c13 0 40 11 55 20l206 -572c17.4004 -48.2002 51.2002 -51.5 90 -55c6 -6 6 -27 0 -33c-35 1 -73 2 -114 2
c-39 0 -94 -1 -131 -2c-6 6 -6 27 0 33c47.5996 3.40039 85.7998 6.5 74 41l-58 169h-211c-24 0 -30 -4 -35 -17z" />
    <glyph glyph-name="Aacute" unicode="&#xc1;" horiz-adv-x="695" 
d="M417 820c28.5996 -13.2998 49.2998 -30.7002 62 -52l-144 -58c-21 -9 -33 -12 -42 -12s-15 7 -15 15c0 7 2 12 15 21zM263 283h177l-94 272h-6l-102.2 -258.7c-3.7998 -10.2998 3.2002 -13.2998 25.2002 -13.2998zM155 79c-15.5996 -41.0996 31.4004 -45.4004 69 -48
c6 -6 6 -27 0 -33c-37 1 -87 2 -128 2c-30.2998 0 -63 -1 -89 -2c-6 6 -6 27 0 33c43.5 3 74 9 100 71l227 536c13 0 40 11 55 20l206 -572c17.4004 -48.2002 51.2002 -51.5 90 -55c6 -6 6 -27 0 -33c-35 1 -73 2 -114 2c-39 0 -94 -1 -131 -2c-6 6 -6 27 0 33
c47.5996 3.40039 85.7998 6.5 74 41l-58 169h-211c-24 0 -30 -4 -35 -17z" />
    <glyph glyph-name="Acircumflex" unicode="&#xc2;" horiz-adv-x="695" 
d="M377 808c30 -36 66.999 -70.001 102.999 -97.001c-2.7998 -9.09961 -6.89941 -17.1992 -15.999 -20.999c-39 18 -73 36 -106 61c-37 -27 -69 -44 -107 -61c-9 6 -12 12 -14 21c37 28 70 63 101 97c14 8.40039 23.5996 7.7002 39 0zM262.999 282.999h177l-94 272h-6
l-102.2 -258.7c-3.7998 -10.2998 3.2002 -13.2998 25.2002 -13.2998zM154.999 78.999c-15.5996 -41.0996 31.4004 -45.4004 69 -48c6 -6 6 -27 0 -33c-37 1 -87 2 -128 2c-30.2998 0 -63 -1 -89 -2c-6 6 -6 27 0 33c43.5 3 74 9 100 71l227 536c13 0 40 11 55 20l206 -572
c17.4004 -48.2002 51.2002 -51.5 90 -55c6 -6 6 -27 0 -33c-35 1 -73 2 -114 2c-39 0 -94 -1 -131 -2c-6 6 -6 27 0 33c47.5996 3.40039 85.7998 6.5 74 41l-58 169h-211c-24 0 -30 -4 -35 -17z" />
    <glyph glyph-name="Atilde" unicode="&#xc3;" horiz-adv-x="695" 
d="M422 747c22 0 33 10 47 52c11 1 21 -2 27 -6c-12 -60 -41 -99 -87 -99c-22 0 -43 18 -64 32c-18 11 -37 19 -54 19c-26 0 -36 -15 -46 -48c-11 -2 -21 -1 -27 5c14 59 37 98 80 98c30 0 52 -20 72 -34c16 -12 33 -19 52 -19zM263 283h177l-94 272h-6l-102.2 -258.7
c-3.7998 -10.2998 3.2002 -13.2998 25.2002 -13.2998zM155 79c-15.5996 -41.0996 31.4004 -45.4004 69 -48c6 -6 6 -27 0 -33c-37 1 -87 2 -128 2c-30.2998 0 -63 -1 -89 -2c-6 6 -6 27 0 33c43.5 3 74 9 100 71l227 536c13 0 40 11 55 20l206 -572
c17.4004 -48.2002 51.2002 -51.5 90 -55c6 -6 6 -27 0 -33c-35 1 -73 2 -114 2c-39 0 -94 -1 -131 -2c-6 6 -6 27 0 33c47.5996 3.40039 85.7998 6.5 74 41l-58 169h-211c-24 0 -30 -4 -35 -17z" />
    <glyph glyph-name="Adieresis" unicode="&#xc4;" horiz-adv-x="695" 
d="M193 706c0 26 22 48 48 48s48 -22 48 -48s-22 -48 -48 -48s-48 22 -48 48zM430 706c0 26 22 48 48 48s48 -22 48 -48s-22 -48 -48 -48s-48 22 -48 48zM263 283h177l-94 272h-6l-102.2 -258.7c-3.7998 -10.2998 3.2002 -13.2998 25.2002 -13.2998zM155 79
c-15.5996 -41.0996 31.4004 -45.4004 69 -48c6 -6 6 -27 0 -33c-37 1 -87 2 -128 2c-30.2998 0 -63 -1 -89 -2c-6 6 -6 27 0 33c43.5 3 74 9 100 71l227 536c13 0 40 11 55 20l206 -572c17.4004 -48.2002 51.2002 -51.5 90 -55c6 -6 6 -27 0 -33c-35 1 -73 2 -114 2
c-39 0 -94 -1 -131 -2c-6 6 -6 27 0 33c47.5996 3.40039 85.7998 6.5 74 41l-58 169h-211c-24 0 -30 -4 -35 -17z" />
    <glyph glyph-name="Aring" unicode="&#xc5;" horiz-adv-x="695" 
d="M263 283h177l-94 272h-6l-102.2 -258.7c-3.7998 -10.2998 3.2002 -13.2998 25.2002 -13.2998zM155 79c-15.5996 -41.0996 31.4014 -45.4004 69.001 -48c6 -6 6 -27 0 -33c-37 1 -87 2 -128 2c-30.2998 0 -63 -1 -89 -2c-6 6 -6 27 0 33c43.5 3 74 9 100 71l225.1 531.5
c-34.2998 11.5 -61.0996 43.7002 -61.0996 80.5c0 46 42 85 88 85s88 -38 88 -85c0 -32.5 -20.9004 -62.4004 -50.6006 -76.5l198.6 -551.5c17.4004 -48.2002 51.2002 -51.5 90 -55c6 -6 6 -27 0 -33c-35 1 -73 2 -114 2c-39 0 -94 -1 -131 -2c-6 6 -6 27 0 33
c47.5996 3.40039 85.7998 6.5 74 41l-58 169h-211c-24 0 -30 -4 -35 -17zM359.001 766.999c-31 0 -48 -23 -48 -53c0 -28 17 -53 48 -53s48 25 48 53c0 31 -18 53 -48 53z" />
    <glyph glyph-name="AE" unicode="&#xc6;" horiz-adv-x="865" 
d="M271 305h158v270c0 12 -1 21 -5 23zM429 122v143.999h-178l-97 -187c-20.2998 -39.0996 32.4004 -45.3994 70 -47.999c6 -6 6 -27 0 -33c-37 1 -87 2 -128 2c-39 0 -52 -1 -89 -2c-6 6 -6 27 0 33c43.5 3 72.2998 11.7002 104 71l243 455c16.2002 30.7002 10 54 -60 57
c-6 6 -6 27 0 33c50 -1 115 -2 115 -2h140h176c24 0 32 1 49 4c3 0 4 -1 4 -3c2 -8 17 -104 22 -145c-9.7998 -4.7002 -20.5996 -6.7998 -33 -5c-22 69 -38 109 -113 109h-105c-24 0 -36 -20 -36 -44v-200h91c85 0 88 13 91 68c6 6 27 6 33 0c-1 -30 -2 -52.5 -2 -86
c0 -34.2998 1 -53 2 -88c-6 -6 -27 -6 -33 0c-3 45 -6 68 -91 68h-91v-241c0 -27 14 -43 36 -43h136c76 0 111 59 131 131c13.0996 3.2002 24.5996 0.900391 35 -5c-8 -51 -23 -117 -37 -167c0 0 -80 2 -128 2h-214s-81 -1 -130 -2c-6 6 -6 27 0 33c70 3 87 8 87 91z" />
    <glyph glyph-name="Ccedilla" unicode="&#xc7;" horiz-adv-x="646" 
d="M367 -96c-19 0 -29 -1 -45 -6l-6 6l35.7998 86c-211.5 2.2998 -314.8 147.6 -314.8 320c0 104.3 39.5996 202.2 106 263c59 54 130 85 215 85c123 0 168 -40 219 -45c10 -55 17 -103 22 -155c-11.2998 -6 -21 -9 -33 -5c-26 86 -81 168 -219 168
c-52 0 -110 -28 -159.6 -89c-36.5 -44.9004 -59.4004 -116.7 -59.4004 -203c0 -146 93.4004 -298 228 -298c93 0 161 31 232 109c11 0 18 -6 23 -15c-61 -79.7998 -138.8 -125 -224.2 -133.5l-21.7998 -58.5c8 2 17 3 26 3c40 0 71 -24 71 -62c0 -43 -46 -74 -107 -74
c-32 0 -49 6 -74 17c0 12 3 19 10 26c27 -10 38 -14 58 -14c30 0 51 14 51 40c0 21 -10 35 -33 35z" />
    <glyph glyph-name="Egrave" unicode="&#xc8;" horiz-adv-x="557" 
d="M245 817l121 -84c11 -8 15 -14 15 -21c0 -8 -7 -15 -15 -15s-22 3 -43 12l-154 63c18.2998 17.7002 41.7998 33.4004 76 45zM281 361c85 0 88 13 91 68c6 6 27 6 33 0c-1 -24 -2 -58 -2 -86c0 -34.2998 1 -62 2 -88c-6 -6 -27 -6 -33 0c-3 45 -6 68 -91 68h-91v-221
c0 -47 14 -63 56 -63h116c76 0 111 59 131 131c13.0996 3.2002 24.5996 1 35 -5c-8 -51 -23 -117 -37 -167c0 0 -80 2 -128 2h-215c-33 0 -93 -1 -130 -2c-6 6 -6 27 0 33c70 3 87 8 87 91v401c0 83 -17 88 -87 91c-6 6 -6 27 0 33c40 -1 98.5 -2 129 -2h255c24 0 32 1 49 4
c3 0 4 -1 4 -3c2 -8 17 -104 22 -145c-9.7998 -4.7002 -20.5996 -6.7998 -33 -5c-22 69 -38 109 -113 109h-75c-54 0 -66 -20 -66 -64v-180h91z" />
    <glyph glyph-name="Eacute" unicode="&#xc9;" horiz-adv-x="557" 
d="M350 820c28.5996 -13.2998 49.2998 -30.7002 62 -52l-144 -58c-21 -9 -33 -12 -42 -12s-15 7 -15 15c0 7 2 12 15 21zM281 361c85 0 88 13 91 68c6 6 27 6 33 0c-1 -24 -2 -58 -2 -86c0 -34.2998 1 -62 2 -88c-6 -6 -27 -6 -33 0c-3 45 -6 68 -91 68h-91v-221
c0 -47 14 -63 56 -63h116c76 0 111 59 131 131c13.0996 3.2002 24.5996 1 35 -5c-8 -51 -23 -117 -37 -167c0 0 -80 2 -128 2h-215c-33 0 -93 -1 -130 -2c-6 6 -6 27 0 33c70 3 87 8 87 91v401c0 83 -17 88 -87 91c-6 6 -6 27 0 33c40 -1 98.5 -2 129 -2h255c24 0 32 1 49 4
c3 0 4 -1 4 -3c2 -8 17 -104 22 -145c-9.7998 -4.7002 -20.5996 -6.7998 -33 -5c-22 69 -38 109 -113 109h-75c-54 0 -66 -20 -66 -64v-180h91z" />
    <glyph glyph-name="Ecircumflex" unicode="&#xca;" horiz-adv-x="557" 
d="M315 808c30 -36 66.999 -70.001 102.999 -97.001c-2.7998 -9.09961 -6.89941 -17.1992 -15.999 -20.999c-39 18 -73 36 -106 61c-37 -27 -69 -44 -107 -61c-9 6 -12 12 -14 21c37 28 70 63 101 97c14 8.40039 23.5996 7.7002 39 0zM280.999 360.999c85 0 88 13 91 68
c6 6 27 6 33 0c-1 -24 -2 -58 -2 -86c0 -34.2998 1 -62 2 -88c-6 -6 -27 -6 -33 0c-3 45 -6 68 -91 68h-91v-221c0 -47 14 -63 56 -63h116c76 0 111 59 131 131c13.0996 3.2002 24.5996 1 35 -5c-8 -51 -23 -117 -37 -167c0 0 -80 2 -128 2h-215c-33 0 -93 -1 -130 -2
c-6 6 -6 27 0 33c70 3 87 8 87 91v401c0 83 -17 88 -87 91c-6 6 -6 27 0 33c40 -1 98.5 -2 129 -2h255c24 0 32 1 49 4c3 0 4 -1 4 -3c2 -8 17 -104 22 -145c-9.7998 -4.7002 -20.5996 -6.7998 -33 -5c-22 69 -38 109 -113 109h-75c-54 0 -66 -20 -66 -64v-180h91z" />
    <glyph glyph-name="Edieresis" unicode="&#xcb;" horiz-adv-x="557" 
d="M324 757c0 26 22 48 48 48s48 -22 48 -48s-22 -48 -48 -48s-48 22 -48 48zM135 757c0 26 22 48 48 48s48 -22 48 -48s-22 -48 -48 -48s-48 22 -48 48zM281 361c85 0 88 13 91 68c6 6 27 6 33 0c-1 -24 -2 -58 -2 -86c0 -34.2998 1 -62 2 -88c-6 -6 -27 -6 -33 0
c-3 45 -6 68 -91 68h-91v-221c0 -47 14 -63 56 -63h116c76 0 111 59 131 131c13.0996 3.2002 24.5996 1 35 -5c-8 -51 -23 -117 -37 -167c0 0 -80 2 -128 2h-215c-33 0 -93 -1 -130 -2c-6 6 -6 27 0 33c70 3 87 8 87 91v401c0 83 -17 88 -87 91c-6 6 -6 27 0 33
c40 -1 98.5 -2 129 -2h255c24 0 32 1 49 4c3 0 4 -1 4 -3c2 -8 17 -104 22 -145c-9.7998 -4.7002 -20.5996 -6.7998 -33 -5c-22 69 -38 109 -113 109h-75c-54 0 -66 -20 -66 -64v-180h91z" />
    <glyph glyph-name="Igrave" unicode="&#xcc;" horiz-adv-x="297" 
d="M99 817l121 -84c11 -8 15 -14 15 -21c0 -8 -7 -15 -15 -15s-22 3 -43 12l-154 63c18.2998 17.7002 41.7998 33.4004 76 45zM191 122c0 -83 17 -88 87 -91c6 -6 6 -27 0 -33c-45 1 -93.4004 2 -129 2c-36.2998 0 -85 -1 -130 -2c-6 6 -6 27 0 33c70 3 87 8 87 91v401
c0 83 -17 88 -87 91c-6 6 -6 27 0 33c47 -1 95.5 -2 129 -2c38.5 0 86 1 130 2c6 -6 6 -27 0 -33c-70 -3 -87 -8 -87 -91v-401z" />
    <glyph glyph-name="Iacute" unicode="&#xcd;" horiz-adv-x="297" 
d="M210 819c28.5996 -13.2998 49.2998 -30.7002 62 -52l-144 -58c-21 -9 -33 -12 -42 -12s-15 7 -15 15c0 7 2 12 15 21zM191 122c0 -83 17 -88 87 -91c6 -6 6 -27 0 -33c-45 1 -93.4004 2 -129 2c-36.2998 0 -85 -1 -130 -2c-6 6 -6 27 0 33c70 3 87 8 87 91v401
c0 83 -17 88 -87 91c-6 6 -6 27 0 33c47 -1 95.5 -2 129 -2c38.5 0 86 1 130 2c6 -6 6 -27 0 -33c-70 -3 -87 -8 -87 -91v-401z" />
    <glyph glyph-name="Icircumflex" unicode="&#xce;" horiz-adv-x="297" 
d="M165 808c30 -36 66.999 -70.001 102.999 -97.001c-2.7998 -9.09961 -6.89941 -17.1992 -15.999 -20.999c-39 18 -73 36 -106 61c-37 -27 -69 -44 -107 -61c-9 6 -12 12 -14 21c37 28 70 63 101 97c14 8.40039 23.5996 7.7002 39 0zM190.999 121.999c0 -83 17 -88 87 -91
c6 -6 6 -27 0 -33c-45 1 -93.4004 2 -129 2c-36.2998 0 -85 -1 -130 -2c-6 6 -6 27 0 33c70 3 87 8 87 91v401c0 83 -17 88 -87 91c-6 6 -6 27 0 33c47 -1 95.5 -2 129 -2c38.5 0 86 1 130 2c6 -6 6 -27 0 -33c-70 -3 -87 -8 -87 -91v-401z" />
    <glyph glyph-name="Idieresis" unicode="&#xcf;" horiz-adv-x="297" 
d="M195 757c0 26 22 48 48 48s48 -22 48 -48s-22 -48 -48 -48s-48 22 -48 48zM6 757c0 26 22 48 48 48s48 -22 48 -48s-22 -48 -48 -48s-48 22 -48 48zM191 122c0 -83 17 -88 87 -91c6 -6 6 -27 0 -33c-45 1 -93.4004 2 -129 2c-36.2998 0 -85 -1 -130 -2c-6 6 -6 27 0 33
c70 3 87 8 87 91v401c0 83 -17 88 -87 91c-6 6 -6 27 0 33c47 -1 95.5 -2 129 -2c38.5 0 86 1 130 2c6 -6 6 -27 0 -33c-70 -3 -87 -8 -87 -91v-401z" />
    <glyph glyph-name="Eth" unicode="&#xd0;" horiz-adv-x="701" 
d="M191 84c0 -32 11 -52 109 -52c141 0 262 50 262 252c0 154 -71 329 -287 329c-49 0 -84 -14 -84 -49v-238h97c9 0 12 -8 12 -13c0 -11 -9 -26 -21 -26h-88v-203zM148 645c39 0 94 2 165 2c192 0 345 -153 345 -339c0 -246 -186 -310 -327 -310c-103 0 -145 2 -182 2
c-37.7002 0 -91 -1 -130 -2c-6 6 -6 27 0 33c70 3 87 8 87 91v165h-87c-8 0 -11 8 -11 14c0 10 10 25 19 25h79v197c0 83 -17 88 -87 91c-6 6 -6 27 0 33c40 -1 93.2998 -2 129 -2z" />
    <glyph glyph-name="Ntilde" unicode="&#xd1;" horiz-adv-x="699" 
d="M417 745c22 0 33 10 47 52c11 1 21 -2 27 -6c-12 -60 -41 -99 -87 -99c-22 0 -43 18 -64 32c-18 11 -37 19 -54 19c-26 0 -36 -15 -46 -48c-11 -2 -21 -1 -27 5c14 59 37 98 80 98c30 0 52 -20 72 -34c16 -12 33 -19 52 -19zM556 512c0 91 -17 95 -87 102
c-6 6 -6 27 0 33c44 -1 89.7002 -2 111 -2c23.7002 0 71 1 112 2c6 -6 6 -27 0 -33c-70 -7 -87 -13 -87 -102v-491c0 -19 -9 -31 -23 -31c-16 0 -29 9 -40 24l-349 441c-17 22 -28 33 -34 33c-8 0 -8 -15 -8 -49v-306c0 -91 17 -95 87 -102c6 -6 6 -27 0 -33
c-42 1 -87.9004 2 -111 2c-23.5996 0 -69 -1 -112 -2c-6 6 -6 27 0 33c70 7 87 13 87 102v417c-6 26 -36 61 -79 64c-6 6 -6 27 0 33l135 -2l343 -435c29 -37 44 -55 48 -55c7 0 7 11 7 30v327z" />
    <glyph glyph-name="Ograve" unicode="&#xd2;" horiz-adv-x="702" 
d="M304 819l121 -84c11 -8 15 -14 15 -21c0 -8 -7 -15 -15 -15s-22 3 -43 12l-154 63c18.2998 17.7002 41.7998 33.4004 76 45zM331 622c-99 0 -198 -85 -198 -295c0 -192 115 -301 237 -301c114 0 200 105 200 284c0 202 -107 312 -239 312zM666 329
c0 -84 -22 -156.3 -61.7998 -213c-54.9004 -78.2998 -143.4 -126 -254.2 -126c-170 0 -313 123 -313 320c0 193.9 113.3 348 307 348c179 0 322 -122 322 -329z" />
    <glyph glyph-name="Oacute" unicode="&#xd3;" horiz-adv-x="702" 
d="M387 820c28.5996 -13.2998 49.2998 -30.7002 62 -52l-144 -58c-21 -9 -33 -12 -42 -12s-15 7 -15 15c0 7 2 12 15 21zM331 622c-99 0 -198 -85 -198 -295c0 -192 115 -301 237 -301c114 0 200 105 200 284c0 202 -107 312 -239 312zM666 329
c0 -84 -22 -156.3 -61.7998 -213c-54.9004 -78.2998 -143.4 -126 -254.2 -126c-170 0 -313 123 -313 320c0 193.9 113.3 348 307 348c179 0 322 -122 322 -329z" />
    <glyph glyph-name="Ocircumflex" unicode="&#xd4;" horiz-adv-x="702" 
d="M366 808c30 -36 66.999 -70.001 102.999 -97.001c-2.7998 -9.09961 -6.89941 -17.1992 -15.999 -20.999c-39 18 -73 36 -106 61c-37 -27 -69 -44 -107 -61c-9 6 -12 12 -14 21c37 28 70 63 101 97c14 8.40039 23.5996 7.7002 39 0zM330.999 621.999
c-99 0 -198 -85 -198 -295c0 -192 115 -301 237 -301c114 0 200 105 200 284c0 202 -107 312 -239 312zM665.999 328.999c0 -84 -22 -156.3 -61.7998 -213c-54.9004 -78.2998 -143.4 -126 -254.2 -126c-170 0 -313 123 -313 320c0 193.9 113.3 348 307 348
c179 0 322 -122 322 -329z" />
    <glyph glyph-name="Otilde" unicode="&#xd5;" horiz-adv-x="702" 
d="M410 745c22 0 33 10 47 52c11 1 21 -2 27 -6c-12 -60 -41 -99 -87 -99c-22 0 -43 18 -64 32c-18 11 -37 19 -54 19c-26 0 -36 -15 -46 -48c-11 -2 -21 -1 -27 5c14 59 37 98 80 98c30 0 52 -20 72 -34c16 -12 33 -19 52 -19zM331 622c-99 0 -198 -85 -198 -295
c0 -192 115 -301 237 -301c114 0 200 105 200 284c0 202 -107 312 -239 312zM666 329c0 -84 -22 -156.3 -61.7998 -213c-54.9004 -78.2998 -143.4 -126 -254.2 -126c-170 0 -313 123 -313 320c0 193.9 113.3 348 307 348c179 0 322 -122 322 -329z" />
    <glyph glyph-name="Odieresis" unicode="&#xd6;" horiz-adv-x="702" 
d="M97 706c0 26 22 48 48 48s48 -22 48 -48s-22 -48 -48 -48s-48 22 -48 48zM506 706c0 26 22 48 48 48s48 -22 48 -48s-22 -48 -48 -48s-48 22 -48 48zM331 622c-99 0 -198 -85 -198 -295c0 -192 115 -301 237 -301c114 0 200 105 200 284c0 202 -107 312 -239 312z
M666 329c0 -84 -22 -156.3 -61.7998 -213c-54.9004 -78.2998 -143.4 -126 -254.2 -126c-170 0 -313 123 -313 320c0 193.9 113.3 348 307 348c179 0 322 -122 322 -329z" />
    <glyph glyph-name="multiply" unicode="&#xd7;" horiz-adv-x="550" 
d="M308 290l123 -122l-35 -35l-122 122l-122 -122l-36 35l123 122l-123 123l36 35l122 -123l122 123l35 -35z" />
    <glyph glyph-name="Oslash" unicode="&#xd8;" horiz-adv-x="702" 
d="M108 -13c-19 0 -33.002 17 -36.002 32l51.5 63.4004c-53.2998 55.0996 -86.5 132.8 -86.5 227.6c0 193.9 113.3 348 307 348c74.7002 0 143.101 -21.2002 197.501 -61l49.5 61c19 0 33.7002 -15.0996 36 -30l-50 -61.7002c55.2002 -56.2002 89 -136.7 89 -237.3
c0 -84 -22 -156.3 -61.7998 -213c-54.9004 -78.2998 -143.4 -126 -254.2 -126c-71 0 -137.3 21.5 -190.399 60.7998zM330.998 622c-99 0 -198.001 -85 -198.001 -295c0 -72.2002 16.2002 -132.601 43 -179.9l322.3 396.7
c-43.0996 51.4004 -102.199 78.2002 -167.299 78.2002zM525.997 503.3l-321.6 -397.2c44.0996 -52.2998 104 -80.0996 165.6 -80.0996c114 0 200 105 200 284c0 78.7998 -16.2998 143.6 -44 193.3z" />
    <glyph glyph-name="Ugrave" unicode="&#xd9;" horiz-adv-x="661" 
d="M276 818l121 -84c11 -8 15 -14 15 -21c0 -8 -7 -15 -15 -15s-22 3 -43 12l-154 63c18.2998 17.7002 41.7998 33.4004 76 45zM172 523v-257c0 -65 2 -141 51 -188c30.0996 -28.9004 71 -47 119 -47c169 0 184 134 184 246v246c0 81 -17 84 -92 91c-6 6 -6 27 0 33
c46 -1 94.5 -2 116 -2c23.2002 0 64 1 102 2c6 -6 6 -27 0 -33c-60 -7 -77 -10.7002 -77 -91v-228c0 -178 -49 -305 -254 -305c-102.5 0 -234 39 -234 243v290c0 83 -17 88 -77 91c-6 6 -6 27 0 33c39 -1 80 -2 119 -2c39.4004 0 88 1 135 2c6 -6 6 -27 0 -33
c-77 -3 -92 -8 -92 -91z" />
    <glyph glyph-name="Uacute" unicode="&#xda;" horiz-adv-x="661" 
d="M405 819c28.5996 -13.2998 49.2998 -30.7002 62 -52l-144 -58c-21 -9 -33 -12 -42 -12s-15 7 -15 15c0 7 2 12 15 21zM172 523v-257c0 -65 2 -141 51 -188c30.0996 -28.9004 71 -47 119 -47c169 0 184 134 184 246v246c0 81 -17 84 -92 91c-6 6 -6 27 0 33
c46 -1 94.5 -2 116 -2c23.2002 0 64 1 102 2c6 -6 6 -27 0 -33c-60 -7 -77 -10.7002 -77 -91v-228c0 -178 -49 -305 -254 -305c-102.5 0 -234 39 -234 243v290c0 83 -17 88 -77 91c-6 6 -6 27 0 33c39 -1 80 -2 119 -2c39.4004 0 88 1 135 2c6 -6 6 -27 0 -33
c-77 -3 -92 -8 -92 -91z" />
    <glyph glyph-name="Ucircumflex" unicode="&#xdb;" horiz-adv-x="661" 
d="M368 808c30 -36 66.999 -70.001 102.999 -97.001c-2.7998 -9.09961 -6.89941 -17.1992 -15.999 -20.999c-39 18 -73 36 -106 61c-37 -27 -69 -44 -107 -61c-9 6 -12 12 -14 21c37 28 70 63 101 97c14 8.40039 23.5996 7.7002 39 0zM171.999 522.999v-257
c0 -65 2 -141 51 -188c30.0996 -28.9004 71 -47 119 -47c169 0 184 134 184 246v246c0 81 -17 84 -92 91c-6 6 -6 27 0 33c46 -1 94.5 -2 116 -2c23.2002 0 64 1 102 2c6 -6 6 -27 0 -33c-60 -7 -77 -10.7002 -77 -91v-228c0 -178 -49 -305 -254 -305
c-102.5 0 -234 39 -234 243v290c0 83 -17 88 -77 91c-6 6 -6 27 0 33c39 -1 80 -2 119 -2c39.4004 0 88 1 135 2c6 -6 6 -27 0 -33c-77 -3 -92 -8 -92 -91z" />
    <glyph glyph-name="Udieresis" unicode="&#xdc;" horiz-adv-x="667" 
d="M323 -10c-89 0 -234 42 -234 246v287c0 83 -16.5 88 -77 91c-6 6 -6 27 0 33c37 -1 81 -2 120 -2c41 0 60 1 85 2c13.9004 0 13 -31 4 -33c-31 -5 -47 -28 -47 -91v-254c0 -65 -1 -135 52 -188c29 -29 71 -50 119 -50c168 0 184 134 184 246v246c0 66 -13 84 -48 91
c-14.7002 11 -11.7002 33 7 33c26 0 44 -2 67 -2s67 1 97 2c6 -6 6 -27 0 -33c-61 -3 -74 -8 -74 -91v-228c0 -178 -49 -305 -255 -305zM232 707c0 26 21 47 47 47s47 -21 47 -47s-21 -47 -47 -47s-47 21 -47 47zM376 707c0 26 21 47 47 47s47 -21 47 -47s-21 -47 -47 -47
s-47 21 -47 47z" />
    <glyph glyph-name="Yacute" unicode="&#xdd;" horiz-adv-x="575" 
d="M360 820c28.5996 -13.2998 49.2998 -30.7002 62 -52l-144 -58c-21 -9 -33 -12 -42 -12s-15 7 -15 15c0 7 2 12 15 21zM337 122c0 -83 17 -88.001 97 -91.001c6 -6 6 -27 0 -33c-50 1 -100.3 2 -139 2c-38.5996 0 -91 -1 -140 -2c-6 6 -6 27 0 33c80 3 97 8 97 91v127
c0 37 -3.5 47.5 -21 77l-131.3 221c-34.5 58.0996 -51.7002 64 -93.7002 67c-6 6 -7 27 -1 33c30 -1 63 -2 102 -2c40 0 78 1 114 2c6 -6 6 -27 0 -33c-56 -3 -60 -12.5996 -35.7998 -55.1992l116 -204.8c9 -15.9004 13.7998 -17.2002 21.7998 -2l110.8 209
c21.4004 40.4004 5.5 50 -38.7998 53c-6 6 -6 27 0 33c32 -1 68 -2 91 -2s55 1 83 2c6 -6 6 -27 0 -33c-44.7002 -4.2998 -67 -13.2998 -95 -64l-119.5 -216c-16.4004 -29.5996 -17.5 -46.5 -17.5 -76.2998v-135.7z" />
    <glyph glyph-name="Thorn" unicode="&#xde;" horiz-adv-x="527" 
d="M183 479v-291c9 -3 33 -5 71 -5c72 0 146 31 146 160c0 120 -69 147 -128 147c-19 0 -68 -5 -89 -11zM183 122c0 -83 17 -88 87 -91c6 -6 6 -27 0 -33c-50 1 -79 2 -129 2c-51 0 -81 -1 -130 -2c-6 6 -6 27 0 33c70 3 87 8 87 91v401c0 83 -17 88 -87 91c-6 6 -6 27 0 33
c50 -1 79 -2 129 -2c51 0 81 1 130 2c6 -6 6 -27 0 -33c-70 -3 -87 -8 -87 -91v-4c36 2 71 4 90 4c185 0 220 -109 220 -180c0 -75 -56 -193 -234 -193c-35 0 -61 4 -76 9v-37z" />
    <glyph glyph-name="germandbls" unicode="&#xdf;" horiz-adv-x="541" 
d="M92 122v264c0 8 -3 12 -12 12h-51c-6 6 2 33 15 33c36.0996 0 48 5 48 46c0 165 125 221 204 221c104 0 152 -63 152 -111c0 -77 -58 -123 -128 -176v-2c79 -52 180 -120 180 -236c0 -105 -64 -183 -156 -183c-84 0 -104 52 -104 96c0 16 15 35 31 35c20 0 28 -10 28 -30
c0 -17 -8 -26 -8 -38c0 -30 30 -30 53 -30c30 0 71 42 71 133c0 93 -71 176 -155 240v13c67 52 105 92 105 165c0 54 -25 91 -78 91c-104 0 -116 -115 -116 -223v-320c0 -83 12 -86 48 -91c6 -6 6 -27 0 -33c-23 1 -53 2 -87 2c-40 0 -79 -1 -109 -2c-6 6 -6 27 0 33
c57 3 69 8 69 91z" />
    <glyph glyph-name="agrave" unicode="&#xe0;" horiz-adv-x="457" 
d="M196 671l70 -126c5 -10 6 -17 6 -24c0 -5 -7 -11 -15 -11c-6 0 -13 5 -29 20l-114 109l2 11c8 6 31 23 65 23c5 0 11 -1 15 -2zM293 233l-79 -21c-74 -19 -95 -65 -95 -110c0 -31 22 -71 72 -71c28 0 62 23 88 44c8 6 14 13 14 26v132zM293 48h-2l-20 -16
c-44 -34 -74.2002 -42 -109 -42c-70 0 -126 26 -126 108c0 68 69 121 165 145l86 21c3 1 6 5 6 12c0 113 -47 130 -81 130c-38 0 -80 -11 -80 -42c0 -11 1 -17 2 -20c2 -4 3 -11 3 -18c0 -13 -18 -34 -47 -34c-23 0 -35 12 -35 36c0 57 83 111 165 111
c73 0 151 -27 151 -169v-147c0 -46 1 -85 30 -85c12.7002 0 29.5 9.7998 37 16c11.2998 -6.2998 15.2998 -14.7002 17 -27c-20.7002 -20 -56.7002 -37 -95 -37c-50.4004 0 -61 27 -67 58z" />
    <glyph glyph-name="aacute" unicode="&#xe1;" horiz-adv-x="457" 
d="M244 671c3 1 9.00098 2 14.001 2c6.40039 0 32 -1 55 -23l3 -11l-115 -109c-15 -15 -23 -19 -30 -19s-14 6 -14 13c0 11.2002 3.2998 15.2002 11.3994 28zM293.001 233l-79 -21c-74 -19 -95 -65 -95 -110c0 -31 22 -71 72 -71c28 0 62 23 88 44c8 6 14 13 14 26v132z
M293.001 48h-2l-20 -16c-44 -34 -74.2002 -42 -109 -42c-70 0 -126 26 -126 108c0 68 69 121 165 145l86 21c3 1 6 5 6 12c0 113 -47 130 -81 130c-38 0 -80 -11 -80 -42c0 -11 1 -17 2 -20c2 -4 3 -11 3 -18c0 -13 -18 -34 -47 -34c-23 0 -35 12 -35 36
c0 57 83 111 165 111c73 0 151 -27 151 -169v-147c0 -46 1 -85 30 -85c12.7002 0 29.5 9.7998 37 16c11.2998 -6.2998 15.2998 -14.7002 17 -27c-20.7002 -20 -56.7002 -37 -95 -37c-50.4004 0 -61 27 -67 58z" />
    <glyph glyph-name="acircumflex" unicode="&#xe2;" horiz-adv-x="457" 
d="M231 660c29 -47 73 -100 109 -140c-5 -7 -13.5996 -15.0996 -23 -17c-38 24 -73 52 -103 83c-32 -32 -65 -61 -104 -83c-9 2 -16 8 -22 17c36 40 82 94 111 140c10.7002 2.2998 21.2998 3 32 0zM293 233l-79 -21c-74 -19 -95 -65 -95 -110c0 -31 22 -71 72 -71
c28 0 62 23 88 44c8 6 14 13 14 26v132zM293 48h-2l-20 -16c-44 -34 -74.2002 -42 -109 -42c-70 0 -126 26 -126 108c0 68 69 121 165 145l86 21c3 1 6 5 6 12c0 113 -47 130 -81 130c-38 0 -80 -11 -80 -42c0 -11 1 -17 2 -20c2 -4 3 -11 3 -18c0 -13 -18 -34 -47 -34
c-23 0 -35 12 -35 36c0 57 83 111 165 111c73 0 151 -27 151 -169v-147c0 -46 1 -85 30 -85c12.7002 0 29.5 9.7998 37 16c11.2998 -6.2998 15.2998 -14.7002 17 -27c-20.7002 -20 -56.7002 -37 -95 -37c-50.4004 0 -61 27 -67 58z" />
    <glyph glyph-name="atilde" unicode="&#xe3;" horiz-adv-x="457" 
d="M283 573c22 0 33 10 47 52c11 1 21 -2 27 -6c-12 -60 -41 -99 -87 -99c-22 0 -43 18 -64 32c-18 11 -37 19 -54 19c-26 0 -36 -15 -46 -48c-11 -2 -21 -1 -27 5c14 59 37 98 80 98c30 0 52 -20 72 -34c16 -12 33 -19 52 -19zM293 233l-79 -21c-74 -19 -95 -65 -95 -110
c0 -31 22 -71 72 -71c28 0 62 23 88 44c8 6 14 13 14 26v132zM293 48h-2l-20 -16c-44 -34 -74.2002 -42 -109 -42c-70 0 -126 26 -126 108c0 68 69 121 165 145l86 21c3 1 6 5 6 12c0 113 -47 130 -81 130c-38 0 -80 -11 -80 -42c0 -11 1 -17 2 -20c2 -4 3 -11 3 -18
c0 -13 -18 -34 -47 -34c-23 0 -35 12 -35 36c0 57 83 111 165 111c73 0 151 -27 151 -169v-147c0 -46 1 -85 30 -85c12.7002 0 29.5 9.7998 37 16c11.2998 -6.2998 15.2998 -14.7002 17 -27c-20.7002 -20 -56.7002 -37 -95 -37c-50.4004 0 -61 27 -67 58z" />
    <glyph glyph-name="adieresis" unicode="&#xe4;" horiz-adv-x="457" 
d="M83 575c0 26 21 48 47 48s47 -22 47 -48s-21 -47 -47 -47s-47 21 -47 47zM252 575c0 26 21 48 47 48s47 -22 47 -48s-21 -47 -47 -47s-47 21 -47 47zM293 233l-79 -21c-74 -19 -95 -65 -95 -110c0 -31 22 -71 72 -71c28 0 62 23 88 44c8 6 14 13 14 26v132zM293 48h-2
l-20 -16c-44 -34 -74.2002 -42 -109 -42c-70 0 -126 26 -126 108c0 68 69 121 165 145l86 21c3 1 6 5 6 12c0 113 -47 130 -81 130c-38 0 -80 -11 -80 -42c0 -11 1 -17 2 -20c2 -4 3 -11 3 -18c0 -13 -18 -34 -47 -34c-23 0 -35 12 -35 36c0 57 83 111 165 111
c73 0 151 -27 151 -169v-147c0 -46 1 -85 30 -85c12.7002 0 29.5 9.7998 37 16c11.2998 -6.2998 15.2998 -14.7002 17 -27c-20.7002 -20 -56.7002 -37 -95 -37c-50.4004 0 -61 27 -67 58z" />
    <glyph glyph-name="aring" unicode="&#xe5;" horiz-adv-x="457" 
d="M210 635c-31 0 -48 -23 -48 -53c0 -28 17 -53 48 -53s48 25 48 53c0 31 -18 53 -48 53zM122 582c0 46 42 85 88 85s88 -38 88 -85c0 -45 -40 -85 -88 -85c-46 0 -88 39 -88 85zM293 233l-79 -21c-74 -19 -95 -65 -95 -110c0 -31 22 -71 72 -71c28 0 62 23 88 44
c8 6 14 13 14 26v132zM293 48h-2l-20 -16c-44 -34 -74.2002 -42 -109 -42c-70 0 -126 26 -126 108c0 68 69 121 165 145l86 21c3 1 6 5 6 12c0 113 -47 130 -81 130c-38 0 -80 -11 -80 -42c0 -11 1 -17 2 -20c2 -4 3 -11 3 -18c0 -13 -18 -34 -47 -34c-23 0 -35 12 -35 36
c0 57 83 111 165 111c73 0 151 -27 151 -169v-147c0 -46 1 -85 30 -85c12.7002 0 29.5 9.7998 37 16c11.2998 -6.2998 15.2998 -14.7002 17 -27c-20.7002 -20 -56.7002 -37 -95 -37c-50.4004 0 -61 27 -67 58z" />
    <glyph glyph-name="ae" unicode="&#xe6;" horiz-adv-x="687" 
d="M265 384c-14.7002 15.2998 -43.999 22.001 -64.999 22.001c-39 0 -77 -14 -77 -43c0 -10 1 -17 3 -20c2 -4 3 -11 3 -18c0 -16 -14 -33 -39 -33c-31 0 -40 25 -40 45c0 58 78 102 160 102c24 0 101 -3 138 -70c33 45 85 70 142 70c114 0 158 -66 158 -100
c0 -81 -46 -118 -277 -121c0 -90 59 -179 134 -179c54 0 89 25 119 60c8.7002 -0.799805 16.7002 -10.7002 20 -16c-29 -54 -87 -93 -153 -93c-91 0 -129.7 45.0996 -151 69c-8 9 -12.0996 5.09961 -24 -7c-46 -47 -96.9004 -62 -134 -62c-36 0 -72.0996 5.5 -94 18
c-34.5 19.5996 -49 52.3994 -49 93.999c0 40 27 82 63 103.2c43.0996 25.4004 109.199 38.7002 195.999 44.7998c-1 79 -10 110 -33 134zM298.001 215.001c-69.2998 -5.5 -119.3 -22.3994 -150 -45.0996c-24.7002 -18.2002 -37 -40.2002 -37 -62.9004c0 -43 27 -75 83 -75
c32 0 84 41 99 81c4 19 5 52 5 102zM372.001 253.002c153 2 200 22 200 83c0 32 -35 70 -83 70c-68 0 -109 -68 -117 -153z" />
    <glyph glyph-name="ccedilla" unicode="&#xe7;" horiz-adv-x="428" 
d="M228 -96c-19 0 -29 -1.00195 -45 -6.00195l-6 6l36.2002 86.9004c-112.5 9.7002 -176.2 95.7002 -176.2 217.101c0 142 106 231 205 231c96 0 153 -40 153 -95c0 -31 -28 -44 -49 -44s-35 9 -38 36c-4 35 -12 70 -71 70c-66 0 -114 -66 -114 -176
c0 -117 61 -191 134 -191c43 0 86 22 120 66c9 -1 17 -5 21 -14c-46.5 -76.2998 -95.5996 -98.0996 -150.6 -100.699l-21.4004 -57.2998c8 2 17 3 26 3c40 0 71 -24 71 -62c0 -43 -46 -74 -107 -74c-32 0 -49 6 -74 17c0 12 3 19 10 26c27 -10 38 -14 58 -14
c30 0 51 14 51 40c0 21 -10 35 -33 35z" />
    <glyph glyph-name="egrave" unicode="&#xe8;" horiz-adv-x="447" 
d="M210 671l70 -126c5 -10 6 -17 6 -24c0 -5 -7 -11 -15 -11c-6 0 -13 5 -29 20l-114 109l2 11c8 6 31 23 65 23c5 0 11 -1 15 -2zM124 282l181 3c11 0.200195 15 5 15 14c0 84 -45 105 -83 105c-24 0 -94 -9 -113 -122zM386 93c12 -1 18 -6 21 -16
c-40 -52 -94 -87 -170 -87c-72 0 -119 24 -153 64c-33 38 -47 92 -47 148c0 152 113 235 200 235c139 0 169 -90 169 -174c0 -11 -7 -17 -19 -17l-266 2c0 -58 12 -104 32 -137c31 -51 73 -72 109 -72c58 0 87 16 124 54z" />
    <glyph glyph-name="eacute" unicode="&#xe9;" horiz-adv-x="447" 
d="M270 671c3 1 9.00098 2 14.001 2c6.40039 0 32 -1 55 -23l3 -11l-115 -109c-15 -15 -23 -19 -30 -19s-14 6 -14 13c0 11.2002 3.2998 15.2002 11.3994 28zM124.001 282l181 3c11 0.200195 15 5 15 14c0 84 -45 105 -83 105c-24 0 -94 -9 -113 -122zM386.001 93
c12 -1 18 -6 21 -16c-40 -52 -94 -87 -170 -87c-72 0 -119 24 -153 64c-33 38 -47 92 -47 148c0 152 113 235 200 235c139 0 169 -90 169 -174c0 -11 -7 -17 -19 -17l-266 2c0 -58 12 -104 32 -137c31 -51 73 -72 109 -72c58 0 87 16 124 54z" />
    <glyph glyph-name="ecircumflex" unicode="&#xea;" horiz-adv-x="447" 
d="M249 660c29 -47 73 -100 109 -140c-5 -7 -13.5996 -15.0996 -23 -17c-38 24 -73 52 -103 83c-32 -32 -65 -61 -104 -83c-9 2 -16 8 -22 17c36 40 82 94 111 140c10.7002 2.2998 21.2998 3 32 0zM124 282l181 3c11 0.200195 15 5 15 14c0 84 -45 105 -83 105
c-24 0 -94 -9 -113 -122zM386 93c12 -1 18 -6 21 -16c-40 -52 -94 -87 -170 -87c-72 0 -119 24 -153 64c-33 38 -47 92 -47 148c0 152 113 235 200 235c139 0 169 -90 169 -174c0 -11 -7 -17 -19 -17l-266 2c0 -58 12 -104 32 -137c31 -51 73 -72 109 -72c58 0 87 16 124 54
z" />
    <glyph glyph-name="edieresis" unicode="&#xeb;" horiz-adv-x="447" 
d="M99 575c0 26 21 48 47 48s47 -22 47 -48s-21 -47 -47 -47s-47 21 -47 47zM268 575c0 26 21 48 47 48s47 -22 47 -48s-21 -47 -47 -47s-47 21 -47 47zM124 282l181 3c11 0.200195 15 5 15 14c0 84 -45 105 -83 105c-24 0 -94 -9 -113 -122zM386 93c12 -1 18 -6 21 -16
c-40 -52 -94 -87 -170 -87c-72 0 -119 24 -153 64c-33 38 -47 92 -47 148c0 152 113 235 200 235c139 0 169 -90 169 -174c0 -11 -7 -17 -19 -17l-266 2c0 -58 12 -104 32 -137c31 -51 73 -72 109 -72c58 0 87 16 124 54z" />
    <glyph glyph-name="igrave" unicode="&#xec;" horiz-adv-x="271" 
d="M99 671l70 -126c5 -10 6 -17 6 -24c0 -5 -7 -11 -15 -11c-6 0 -13 5 -29 20l-114 109l2 11c8 6 31 23 65 23c5 0 11 -1 15 -2zM181 122c0 -83 11 -87 72 -91c6 -6 6 -27 0 -33c-33 1 -71 2 -111 2s-79 -1 -112 -2c-6 6 -6 27 0 33c61 5 72 8 72 91v195
c0 57 -10.5 62.9004 -65 68c-2 6 -4 22 -2 28c69 9 108.5 18 137 29c8 0 13 -3 13 -7c0 0 -4 -64 -4 -113.7v-199.3z" />
    <glyph glyph-name="iacute" unicode="&#xed;" horiz-adv-x="271" 
d="M163 671c3 1 9.00098 2 14.001 2c6.40039 0 32 -1 55 -23l3 -11l-115 -109c-15 -15 -23 -19 -30 -19s-14 6 -14 13c0 11.2002 3.2998 15.2002 11.3994 28zM181.001 122c0 -83 11 -87 72 -91c6 -6 6 -27 0 -33c-33 1 -71 2 -111 2s-79 -1 -112 -2c-6 6 -6 27 0 33
c61 5 72 8 72 91v195c0 57 -10.5 62.9004 -65 68c-2 6 -4 22 -2 28c69 9 108.5 18 137 29c8 0 13 -3 13 -7c0 0 -4 -64 -4 -113.7v-199.3z" />
    <glyph glyph-name="icircumflex" unicode="&#xee;" horiz-adv-x="271" 
d="M141 660c29 -47 73 -100 109 -140c-5 -7 -13.5996 -15.0996 -23 -17c-38 24 -73 52 -103 83c-32 -32 -65 -61 -104 -83c-9 2 -16 8 -22 17c36 40 82 94 111 140c10.7002 2.2998 21.2998 3 32 0zM181 122c0 -83 11 -87 72 -91c6 -6 6 -27 0 -33c-33 1 -71 2 -111 2
s-79 -1 -112 -2c-6 6 -6 27 0 33c61 5 72 8 72 91v195c0 57 -10.5 62.9004 -65 68c-2 6 -4 22 -2 28c69 9 108.5 18 137 29c8 0 13 -3 13 -7c0 0 -4 -64 -4 -113.7v-199.3z" />
    <glyph glyph-name="idieresis" unicode="&#xef;" horiz-adv-x="271" 
d="M-4 575c0 26 21 48 47 48s47 -22 47 -48s-21 -47 -47 -47s-47 21 -47 47zM165 575c0 26 21 48 47 48s47 -22 47 -48s-21 -47 -47 -47s-47 21 -47 47zM181 122c0 -83 11 -87 72 -91c6 -6 6 -27 0 -33c-33 1 -71 2 -111 2s-79 -1 -112 -2c-6 6 -6 27 0 33c61 5 72 8 72 91
v195c0 57 -10.5 62.9004 -65 68c-2 6 -4 22 -2 28c69 9 108.5 18 137 29c8 0 13 -3 13 -7c0 0 -4 -64 -4 -113.7v-199.3z" />
    <glyph glyph-name="eth" unicode="&#xf0;" horiz-adv-x="486" 
d="M248 26c47 0 115 35 115 197c0 46 -4 90 -16 133c-23 29 -58 48 -101 48c-101 0 -126 -103 -126 -179c0 -114 57 -199 128 -199zM34 208c0 173 132 231 214 231c26 0 51 -4 76 -14c-22 53 -52 101 -89 147l-109 -73l-22 32l105 71l-16 16c-21 22 -44 42 -68 59l16 21
c35 -19 71 -43 106 -71l106 71l22 -32l-97 -65l18 -18c86 -86 151 -200 151 -346c0 -169 -104 -247 -216 -247c-124 0 -197 114 -197 218z" />
    <glyph glyph-name="ntilde" unicode="&#xf1;" horiz-adv-x="542" 
d="M346 573c22 0 33 10 47 52c11 1 21 -2 27 -6c-12 -60 -41 -99 -87 -99c-22 0 -43 18 -64 32c-18 11 -37 19 -54 19c-26 0 -36 -15 -46 -48c-11 -2 -21 -1 -27 5c14 59 37 98 80 98c30 0 52 -20 72 -34c16 -12 33 -19 52 -19zM184 358c59.2998 68 115.001 81 164.001 81
c35 0 66 -12 83 -34c23 -31 27 -79 27 -134v-149c0 -82 11 -86 67 -91c5 -6 5 -27 0 -33c-30 1 -66 2 -106 2s-72 -1 -102 -2c-5 6 -5 27 0 33c52 5 62 9 62 91v152c0 30 -2 57 -12 77c-12 23 -33 36 -53 36c-39 0 -84 -22 -122 -59c-8 -9 -17 -21 -17 -42v-164
c0 -82 10 -86 61 -91c6 -6 6 -27 0 -33c-30 1 -60 2 -100 2s-80 -1 -110 -2c-6 6 -6 27 0 33c60 5 70 9 70 91v195c0 58 -11 63 -65 68c-2 6 -4 22 -2 28c69 9 95 18 123 29c8 0 9.90039 -3.40039 12 -8c4.7002 -10.2998 7 -49 8 -76c0.299805 -9.40039 5.89941 -7 11.999 0
z" />
    <glyph glyph-name="ograve" unicode="&#xf2;" horiz-adv-x="504" 
d="M224 671l70 -126c5 -10 6 -17 6 -24c0 -5 -7 -11 -15 -11c-6 0 -13 5 -29 20l-114 109l2 11c8 6 31 23 65 23c5 0 11 -1 15 -2zM41 205c0 63.2002 19.001 121.4 55.3008 164c36.5996 43 90.8994 70 156.699 70c153 0 210 -121 210 -225
c0 -61.2998 -20.2998 -124.2 -65.0996 -168c-34.0996 -33.2998 -82.5 -56 -146.9 -56c-142 0 -210 113 -210 215zM238.001 404c-90 0 -111 -89 -111 -176c0 -77 34 -203 138 -203c47 0 112 31 112 157c0 144 -53 222 -139 222z" />
    <glyph glyph-name="oacute" unicode="&#xf3;" horiz-adv-x="504" 
d="M270 671c3 1 9.00098 2 14.001 2c6.40039 0 32 -1 55 -23l3 -11l-115 -109c-15 -15 -23 -19 -30 -19s-14 6 -14 13c0 11.2002 3.2998 15.2002 11.3994 28zM41.001 205c0 63.2002 19.001 121.4 55.3008 164c36.5996 43 90.8994 70 156.699 70c153 0 210 -121 210 -225
c0 -61.2998 -20.2998 -124.2 -65.0996 -168c-34.0996 -33.2998 -82.5 -56 -146.9 -56c-142 0 -210 113 -210 215zM238.002 404c-90 0 -111 -89 -111 -176c0 -77 34 -203 138 -203c47 0 112 31 112 157c0 144 -53 222 -139 222z" />
    <glyph glyph-name="ocircumflex" unicode="&#xf4;" horiz-adv-x="504" 
d="M268 660c29 -47 73 -100 109 -140c-5 -7 -13.5996 -15.0996 -23 -17c-38 24 -73 52 -103 83c-32 -32 -65 -61 -104 -83c-9 2 -16 8 -22 17c36 40 82 94 111 140c10.7002 2.2998 21.2998 3 32 0zM41 205c0 63.2002 19.001 121.4 55.3008 164
c36.5996 43 90.8994 70 156.699 70c153 0 210 -121 210 -225c0 -61.2998 -20.2998 -124.2 -65.0996 -168c-34.0996 -33.2998 -82.5 -56 -146.9 -56c-142 0 -210 113 -210 215zM238.001 404c-90 0 -111 -89 -111 -176c0 -77 34 -203 138 -203c47 0 112 31 112 157
c0 144 -53 222 -139 222z" />
    <glyph glyph-name="otilde" unicode="&#xf5;" horiz-adv-x="504" 
d="M304 573c22 0 33 10 47 52c11 1 21 -2 27 -6c-12 -60 -41 -99 -87 -99c-22 0 -43 18 -64 32c-18 11 -37 19 -54 19c-26 0 -36 -15 -46 -48c-11 -2 -21 -1 -27 5c14 59 37 98 80 98c30 0 52 -20 72 -34c16 -12 33 -19 52 -19zM41 205c0 63.2002 19.001 121.4 55.3008 164
c36.5996 43 90.8994 70 156.699 70c153 0 210 -121 210 -225c0 -61.2998 -20.2998 -124.2 -65.0996 -168c-34.0996 -33.2998 -82.5 -56 -146.9 -56c-142 0 -210 113 -210 215zM238.001 404c-90 0 -111 -89 -111 -176c0 -77 34 -203 138 -203c47 0 112 31 112 157
c0 144 -53 222 -139 222z" />
    <glyph glyph-name="odieresis" unicode="&#xf6;" horiz-adv-x="504" 
d="M121 575c0 26 21 48 47 48s47 -22 47 -48s-21 -47 -47 -47s-47 21 -47 47zM290 575c0 26 21 48 47 48s47 -22 47 -48s-21 -47 -47 -47s-47 21 -47 47zM41 205c0 63.2002 19.001 121.4 55.3008 164c36.5996 43 90.8994 70 156.699 70c153 0 210 -121 210 -225
c0 -61.2998 -20.2998 -124.2 -65.0996 -168c-34.0996 -33.2998 -82.5 -56 -146.9 -56c-142 0 -210 113 -210 215zM238.001 404c-90 0 -111 -89 -111 -176c0 -77 34 -203 138 -203c47 0 112 31 112 157c0 144 -53 222 -139 222z" />
    <glyph glyph-name="divide" unicode="&#xf7;" horiz-adv-x="550" 
d="M225.8 387c0 24.2998 20.0996 44.3994 44.3994 44.3994s44.3994 -20.0996 44.3994 -44.3994s-20.0996 -44.3994 -44.3994 -44.3994s-44.3994 20.0996 -44.3994 44.3994zM225.8 119c0 24.2998 20.0996 44.3994 44.3994 44.3994s44.3994 -20.0996 44.3994 -44.3994
s-20.0996 -44.3994 -44.3994 -44.3994s-44.3994 20.0996 -44.3994 44.3994zM463 226h-388c-9 0 -15 8 -15 16c0 15 13 34 25 34h391c10 0 14 -9 14 -17c0 -10 -14 -33 -27 -33z" />
    <glyph glyph-name="oslash" unicode="&#xf8;" horiz-adv-x="504" 
d="M414 454c17 0 27 -10.001 31 -23.001l-41.9004 -51.0996c42.2002 -44.5996 59.9004 -107.899 59.9004 -165.899c0 -61.2998 -20.2998 -124.2 -65.0996 -168c-34.0996 -33.2998 -82.5 -56 -146.9 -56c-55.0996 0 -99 17 -132.2 43.7998l-50.7998 -61.7998
c-16 0 -28 11 -30 26l52.5996 63.7998c-33.2998 40.7002 -49.5996 93.2998 -49.5996 143.2c0 63.2002 19 121.4 55.2998 164c36.5996 43 90.8994 70 156.699 70c50 0 89.7002 -13 120.601 -34zM238 403.999c-90 0 -111 -89 -111 -176
c0 -29.7002 5.09961 -66.7998 17.2998 -101.1l189.1 229.3c-23.5996 31.5 -56.0996 47.7998 -95.3994 47.7998zM353.8 319.999l-191 -232.601c21.7002 -36 54.6006 -62.4004 102.2 -62.4004c47 0 112 31 112 157c0 56.4004 -8.2002 102.601 -23.2002 138.001z" />
    <glyph glyph-name="ugrave" unicode="&#xf9;" horiz-adv-x="531" 
d="M219 671l70 -126c5 -10 6 -17 6 -24c0 -5 -7 -11 -15 -11c-6 0 -13 5 -29 20l-114 109l2 11c8 6 31 23 65 23c5 0 11 -1 15 -2zM217 -10c-99 0 -129 67 -129 136v192c0 65 -14 76 -62 80c-6 6 -6 27 0 33c34 -1 70 -2 102 -2c15 0 30 1 35 2c5 0 8 -3 8 -6
c0 0 -4 -73 -4 -103v-182c0 -89 50 -103 80 -103c25 0 63 16 100 48c14 12 16 20 16 39v193c0 66 -13 78 -62 81c-6 6 -6 27 0 33c34 -1 70 -2 102 -2c15 0 30 1 35 2c5 0 8 -3 8 -6c0 0 -4 -73 -4 -103v-192c0 -49 9 -68 73 -73c6 -6 6 -21 0 -27c-61 -7 -96 -22 -118 -40
c-6.5 -2.5 -11 -3 -19 0c0 0 -8.5 33.5 -11 59c-0.700195 7 -10 5 -15 1c-49 -40 -96 -60 -135 -60z" />
    <glyph glyph-name="uacute" unicode="&#xfa;" horiz-adv-x="531" 
d="M297 671c3 1 9.00098 2 14.001 2c6.40039 0 32 -1 55 -23l3 -11l-115 -109c-15 -15 -23 -19 -30 -19s-14 6 -14 13c0 11.2002 3.2998 15.2002 11.3994 28zM217.001 -10c-99 0 -129 67 -129 136v192c0 65 -14 76 -62 80c-6 6 -6 27 0 33c34 -1 70 -2 102 -2
c15 0 30 1 35 2c5 0 8 -3 8 -6c0 0 -4 -73 -4 -103v-182c0 -89 50 -103 80 -103c25 0 63 16 100 48c14 12 16 20 16 39v193c0 66 -13 78 -62 81c-6 6 -6 27 0 33c34 -1 70 -2 102 -2c15 0 30 1 35 2c5 0 8 -3 8 -6c0 0 -4 -73 -4 -103v-192c0 -49 9 -68 73 -73
c6 -6 6 -21 0 -27c-61 -7 -96 -22 -118 -40c-6.5 -2.5 -11 -3 -19 0c0 0 -8.5 33.5 -11 59c-0.700195 7 -10 5 -15 1c-49 -40 -96 -60 -135 -60z" />
    <glyph glyph-name="ucircumflex" unicode="&#xfb;" horiz-adv-x="531" 
d="M263 660c29 -47 73 -100 109 -140c-5 -7 -13.5996 -15.0996 -23 -17c-38 24 -73 52 -103 83c-32 -32 -65 -61 -104 -83c-9 2 -16 8 -22 17c36 40 82 94 111 140c10.7002 2.2998 21.2998 3 32 0zM217 -10c-99 0 -129 67 -129 136v192c0 65 -14 76 -62 80c-6 6 -6 27 0 33
c34 -1 70 -2 102 -2c15 0 30 1 35 2c5 0 8 -3 8 -6c0 0 -4 -73 -4 -103v-182c0 -89 50 -103 80 -103c25 0 63 16 100 48c14 12 16 20 16 39v193c0 66 -13 78 -62 81c-6 6 -6 27 0 33c34 -1 70 -2 102 -2c15 0 30 1 35 2c5 0 8 -3 8 -6c0 0 -4 -73 -4 -103v-192
c0 -49 9 -68 73 -73c6 -6 6 -21 0 -27c-61 -7 -96 -22 -118 -40c-6.5 -2.5 -11 -3 -19 0c0 0 -8.5 33.5 -11 59c-0.700195 7 -10 5 -15 1c-49 -40 -96 -60 -135 -60z" />
    <glyph glyph-name="udieresis" unicode="&#xfc;" horiz-adv-x="531" 
d="M123 575c0 26 21 48 47 48s47 -22 47 -48s-21 -47 -47 -47s-47 21 -47 47zM292 575c0 26 21 48 47 48s47 -22 47 -48s-21 -47 -47 -47s-47 21 -47 47zM217 -10c-99 0 -129 67 -129 136v192c0 65 -14 76 -62 80c-6 6 -6 27 0 33c34 -1 70 -2 102 -2c15 0 30 1 35 2
c5 0 8 -3 8 -6c0 0 -4 -73 -4 -103v-182c0 -89 50 -103 80 -103c25 0 63 16 100 48c14 12 16 20 16 39v193c0 66 -13 78 -62 81c-6 6 -6 27 0 33c34 -1 70 -2 102 -2c15 0 30 1 35 2c5 0 8 -3 8 -6c0 0 -4 -73 -4 -103v-192c0 -49 9 -68 73 -73c6 -6 6 -21 0 -27
c-61 -7 -96 -22 -118 -40c-6.5 -2.5 -11 -3 -19 0c0 0 -8.5 33.5 -11 59c-0.700195 7 -10 5 -15 1c-49 -40 -96 -60 -135 -60z" />
    <glyph glyph-name="yacute" unicode="&#xfd;" horiz-adv-x="515" 
d="M315 671c3 1 9.00098 2 14.001 2c6.40039 0 32 -1 55 -23l3 -11l-115 -109c-15 -15 -23 -19 -30 -19s-14 6 -14 13c0 11.2002 3.2998 15.2002 11.3994 28zM204.001 -160c-36 -64 -76.002 -72.001 -97.002 -72.001c-27 0 -47 16 -47 37c0 13 15 43 44 43c11 0 15 -3 29 -3
c25 0 39 9 50 29c15 31 27.0996 58.5996 39 92c10 28 -5.2998 73.9004 -14 94l-113.1 263c-26.2002 61 -39.2002 70 -78.9004 75c-6 6 -6 27 0 33c20 -1 47 -2 81 -2c36 0 76 1 113 2c6 -6 6 -27 0 -33c-56 -4.2998 -50.7998 -22.7998 -32.7998 -65l88.7002 -208
c8.5 -19.7998 16.9004 -17.0996 23.9004 -1l99.2002 229c16 36 -16.4004 42 -48 45c-6 6 -6 27 0 33c30 -1 61 -2 91 -2c28 0 51 1 71 2c6 -6 6 -27 0 -33c-47 -5.7002 -61.2998 -21.7002 -81 -64c-52.2002 -112.4 -97 -215 -177 -408
c-12.2998 -29.5996 -25.3994 -58.1992 -40.999 -85.999z" />
    <glyph glyph-name="thorn" unicode="&#xfe;" horiz-adv-x="502" 
d="M161 288v-189.999c0 -31.7998 5 -38 17 -48.4004c28.2998 -24.4004 55.7998 -25.6006 70 -25.6006c106 0 131 97 131 184c0 60 -9 118 -52 161c-15 15 -33 24 -58 24c-33.5 0 -108 -35 -108 -105zM84 559.001c0 84 -12 79 -64 82c-6 6 -8 22 -6 30c40 3 115 17 140 27
c9 0 13 -3 13 -10c0 0 -4 -40 -4 -105v-191c0 -22 2 -22 17 -6.7002c25.4004 25.9004 63.5 53.7002 115 53.7002c97 0 170 -99 170 -204c0 -81 -27 -142 -72 -187c-39 -39 -87 -58 -140 -58c-27.4004 0 -50.2002 4.59961 -71 13c-11 4.40039 -19 15 -19 -13v-100
c0 -83 11 -87 82 -91c6 -6 6 -27 0 -33c-43 1 -74 2 -121 2c-44 0 -70 -1 -112 -2c-6 6 -6 27 0 33c61 3 72 8 72 91v669z" />
    <glyph glyph-name="ydieresis" unicode="&#xff;" horiz-adv-x="515" 
d="M140 575c0 26 21 48 47 48s47 -22 47 -48s-21 -47 -47 -47s-47 21 -47 47zM309 575c0 26 21 48 47 48s47 -22 47 -48s-21 -47 -47 -47s-47 21 -47 47zM204 -160c-36 -64 -76.002 -72.001 -97.002 -72.001c-27 0 -47 16 -47 37c0 13 15 43 44 43c11 0 15 -3 29 -3
c25 0 39 9 50 29c15 31 27.0996 58.5996 39 92c10 28 -5.2998 73.9004 -14 94l-113.1 263c-26.2002 61 -39.2002 70 -78.9004 75c-6 6 -6 27 0 33c20 -1 47 -2 81 -2c36 0 76 1 113 2c6 -6 6 -27 0 -33c-56 -4.2998 -50.7998 -22.7998 -32.7998 -65l88.7002 -208
c8.5 -19.7998 16.9004 -17.0996 23.9004 -1l99.2002 229c16 36 -16.4004 42 -48 45c-6 6 -6 27 0 33c30 -1 61 -2 91 -2c28 0 51 1 71 2c6 -6 6 -27 0 -33c-47 -5.7002 -61.2998 -21.7002 -81 -64c-52.2002 -112.4 -97 -215 -177 -408
c-12.2998 -29.5996 -25.3994 -58.1992 -40.999 -85.999z" />
    <glyph glyph-name="Amacron" unicode="&#x100;" horiz-adv-x="695" 
d="M462 738h-224c-9 0 -13 11 -13 18c0 12 11 32 22 32h225c10 0 14 -11 14 -17c0 -12 -11 -33 -24 -33zM263 283h177l-94 272h-6l-102.2 -258.7c-3.7998 -10.2998 3.2002 -13.2998 25.2002 -13.2998zM155 79c-15.5996 -41.0996 31.4004 -45.4004 69 -48c6 -6 6 -27 0 -33
c-37 1 -87 2 -128 2c-30.2998 0 -63 -1 -89 -2c-6 6 -6 27 0 33c43.5 3 74 9 100 71l227 536c13 0 40 11 55 20l206 -572c17.4004 -48.2002 51.2002 -51.5 90 -55c6 -6 6 -27 0 -33c-35 1 -73 2 -114 2c-39 0 -94 -1 -131 -2c-6 6 -6 27 0 33
c47.5996 3.40039 85.7998 6.5 74 41l-58 169h-211c-24 0 -30 -4 -35 -17z" />
    <glyph glyph-name="amacron" unicode="&#x101;" horiz-adv-x="457" 
d="M322 518h-224c-9 0 -13 11 -13 18c0 12 11 32 22 32h225c10 0 14 -11 14 -17c0 -12 -11 -33 -24 -33zM293 233l-79 -21c-74 -19 -95 -65 -95 -110c0 -31 22 -71 72 -71c28 0 62 23 88 44c8 6 14 13 14 26v132zM293 48h-2l-20 -16c-44 -34 -74.2002 -42 -109 -42
c-70 0 -126 26 -126 108c0 68 69 121 165 145l86 21c3 1 6 5 6 12c0 113 -47 130 -81 130c-38 0 -80 -11 -80 -42c0 -11 1 -17 2 -20c2 -4 3 -11 3 -18c0 -13 -18 -34 -47 -34c-23 0 -35 12 -35 36c0 57 83 111 165 111c73 0 151 -27 151 -169v-147c0 -46 1 -85 30 -85
c12.7002 0 29.5 9.7998 37 16c11.2998 -6.2998 15.2998 -14.7002 17 -27c-20.7002 -20 -56.7002 -37 -95 -37c-50.4004 0 -61 27 -67 58z" />
    <glyph glyph-name="Abreve" unicode="&#x102;" horiz-adv-x="695" 
d="M494 804c-6 -71 -70 -113 -136 -113c-73 0 -131 43 -136 113h28c8 -39 55 -61 108 -61c49 0 101 22 108 61h28zM263 283h177l-94 272h-6l-102.2 -258.7c-3.7998 -10.2998 3.2002 -13.2998 25.2002 -13.2998zM155 79c-15.5996 -41.0996 31.4004 -45.4004 69 -48
c6 -6 6 -27 0 -33c-37 1 -87 2 -128 2c-30.2998 0 -63 -1 -89 -2c-6 6 -6 27 0 33c43.5 3 74 9 100 71l227 536c13 0 40 11 55 20l206 -572c17.4004 -48.2002 51.2002 -51.5 90 -55c6 -6 6 -27 0 -33c-35 1 -73 2 -114 2c-39 0 -94 -1 -131 -2c-6 6 -6 27 0 33
c47.5996 3.40039 85.7998 6.5 74 41l-58 169h-211c-24 0 -30 -4 -35 -17z" />
    <glyph glyph-name="abreve" unicode="&#x103;" horiz-adv-x="457" 
d="M98 647c11 -53 54 -90 108 -90c52 0 98 32 108 90l27 -12c-12 -86 -76 -135 -135 -135c-70 0 -121 50 -135 135zM293 233l-79 -21c-74 -19 -95 -65 -95 -110c0 -31 22 -71 72 -71c28 0 62 23 88 44c8 6 14 13 14 26v132zM293 48h-2l-20 -16
c-44 -34 -74.2002 -42 -109 -42c-70 0 -126 26 -126 108c0 68 69 121 165 145l86 21c3 1 6 5 6 12c0 113 -47 130 -81 130c-38 0 -80 -11 -80 -42c0 -11 1 -17 2 -20c2 -4 3 -11 3 -18c0 -13 -18 -34 -47 -34c-23 0 -35 12 -35 36c0 57 83 111 165 111
c73 0 151 -27 151 -169v-147c0 -46 1 -85 30 -85c12.7002 0 29.5 9.7998 37 16c11.2998 -6.2998 15.2998 -14.7002 17 -27c-20.7002 -20 -56.7002 -37 -95 -37c-50.4004 0 -61 27 -67 58z" />
    <glyph glyph-name="Aogonek" unicode="&#x104;" horiz-adv-x="695" 
d="M701 -135c-29 -45 -69 -65.001 -110 -65.001c-50 0 -88 20 -88 74c0 41.5 35.5996 98.9004 96 125.9c-9.2002 0.0996094 -18.5 0.0996094 -28 0.0996094c-39 0 -94 -1 -131 -2c-6 6 -6 27 0 33c47.5996 3.40039 85.7998 6.5 74 41l-58 169h-211c-24 0 -30 -4 -35 -17
l-55 -145c-15.5996 -41.0996 31.4004 -45.3994 69 -47.999c6 -6 6 -27 0 -33c-37 1 -87 2 -128 2c-30.2998 0 -63 -1 -89 -2c-6 6 -6 27 0 33c43.5 3 74 9 100 71l227 536c13 0 40 11 55 20l206 -572c17.4004 -48.2002 51.2002 -51.5 90 -55c6 -6 6 -27 0 -33
c-71 0 -120 -67 -120 -113c0 -26 13 -47 50 -47c29 0 45 16 67 38c9 0 15 -4 19 -11zM263 282.999h177l-94 272h-6l-102.2 -258.7c-3.7998 -10.2998 3.2002 -13.2998 25.2002 -13.2998z" />
    <glyph glyph-name="aogonek" unicode="&#x105;" horiz-adv-x="457" 
d="M460 -135c-29 -45 -68.999 -65 -109.999 -65c-50 0 -88 20 -88 74c0 40.9004 34.2002 79.7002 83.9004 116.8c-38.4004 4.7002 -47.5 29.2998 -52.9004 57.2002h-2l-20 -16c-44 -34 -74.2002 -42 -109 -42c-70 0 -126 26 -126 108c0 68 69 121 165 145l86 21
c3 1 6 5 6 12c0 113 -47 130 -81 130c-38 0 -80 -11 -80 -42c0 -11 1 -17 2 -20c2 -4 3 -11 3 -18c0 -13 -18 -34 -47 -34c-23 0 -35 12 -35 36c0 57 83 111 165 111c73 0 151 -27 151 -169v-147c0 -46 1 -85 30 -85c12.7002 0 29.5 9.7998 37 16
c11.2998 -6.2998 15.2998 -14.7002 17 -27c-13.7002 -13.2002 -34.1006 -25.1006 -57.4004 -31.7002c-47.7002 -40.7002 -73.6006 -70.2002 -73.6006 -110.3c0 -26 13 -47 50 -47c29 0 45 16 67 38c9 0 15 -4 19 -11zM293.001 233l-79 -21c-74 -19 -95 -65 -95 -110
c0 -31 22 -71 72 -71c28 0 62 23 88 44c8 6 14 13 14 26v132z" />
    <glyph glyph-name="Cacute" unicode="&#x106;" horiz-adv-x="646" 
d="M392 819c28.5996 -13.2998 49.2998 -30.7002 62 -52l-144 -58c-21 -9 -33 -12 -42 -12s-15 7 -15 15c0 7 2 12 15 21zM357 -10c-215 0 -320 146.2 -320 320c0 104.3 39.5996 202.2 106 263c59 54 130 85 215 85c123 0 168 -40 219 -45c10 -55 17 -103 22 -155
c-11.2998 -6 -21 -9 -33 -5c-26 86 -81 168 -219 168c-52 0 -110 -28 -159.6 -89c-36.5 -44.9004 -59.4004 -116.7 -59.4004 -203c0 -146 93.4004 -298 228 -298c93 0 161 31 232 109c11 0 18 -6 23 -15c-68 -89 -157 -135 -254 -135z" />
    <glyph glyph-name="cacute" unicode="&#x107;" horiz-adv-x="428" 
d="M254 671c3 1 9.00098 2 14.001 2c6.40039 0 32 -1 55 -23l3 -11l-115 -109c-15 -15 -23 -19 -30 -19s-14 6 -14 13c0 11.2002 3.2998 15.2002 11.3994 28zM398.001 91c-50 -82 -103 -101 -163 -101c-126 0 -198 89 -198 218c0 142 106 231 205 231c96 0 153 -40 153 -95
c0 -31 -28 -44 -49 -44s-35 9 -38 36c-4 35 -12 70 -71 70c-66 0 -114 -66 -114 -176c0 -117 61 -191 134 -191c43 0 86 22 120 66c9 -1 17 -5 21 -14z" />
    <glyph glyph-name="Ccircumflex" unicode="&#x108;" horiz-adv-x="646" 
d="M376 809c30 -36 66.999 -70.001 102.999 -97.001c-2.7998 -9.09961 -6.89941 -17.1992 -15.999 -20.999c-39 18 -73 36 -106 61c-37 -27 -69 -44 -107 -61c-9 6 -12 12 -14 21c37 28 70 63 101 97c14 8.40039 23.5996 7.7002 39 0zM356.999 -10.001
c-215 0 -320 146.2 -320 320c0 104.3 39.5996 202.2 106 263c59 54 130 85 215 85c123 0 168 -40 219 -45c10 -55 17 -103 22 -155c-11.2998 -6 -21 -9 -33 -5c-26 86 -81 168 -219 168c-52 0 -110 -28 -159.6 -89c-36.5 -44.9004 -59.4004 -116.7 -59.4004 -203
c0 -146 93.4004 -298 228 -298c93 0 161 31 232 109c11 0 18 -6 23 -15c-68 -89 -157 -135 -254 -135z" />
    <glyph glyph-name="ccircumflex" unicode="&#x109;" horiz-adv-x="428" 
d="M239 660c29 -47 73 -100 109 -140c-5 -7 -13.5996 -15.0996 -23 -17c-38 24 -73 52 -103 83c-32 -32 -65 -61 -104 -83c-9 2 -16 8 -22 17c36 40 82 94 111 140c10.7002 2.2998 21.2998 3 32 0zM398 91c-50 -82 -103 -101 -163 -101c-126 0 -198 89 -198 218
c0 142 106 231 205 231c96 0 153 -40 153 -95c0 -31 -28 -44 -49 -44s-35 9 -38 36c-4 35 -12 70 -71 70c-66 0 -114 -66 -114 -176c0 -117 61 -191 134 -191c43 0 86 22 120 66c9 -1 17 -5 21 -14z" />
    <glyph glyph-name="Cdotaccent" unicode="&#x10a;" horiz-adv-x="646" 
d="M304 753c0 28 24 52 52 52s52 -24 52 -52s-24 -52 -52 -52s-52 24 -52 52zM357 -10c-215 0 -320 146.2 -320 320c0 104.3 39.5996 202.2 106 263c59 54 130 85 215 85c123 0 168 -40 219 -45c10 -55 17 -103 22 -155c-11.2998 -6 -21 -9 -33 -5c-26 86 -81 168 -219 168
c-52 0 -110 -28 -159.6 -89c-36.5 -44.9004 -59.4004 -116.7 -59.4004 -203c0 -146 93.4004 -298 228 -298c93 0 161 31 232 109c11 0 18 -6 23 -15c-68 -89 -157 -135 -254 -135z" />
    <glyph glyph-name="cdotaccent" unicode="&#x10b;" horiz-adv-x="428" 
d="M179 600c0 24 28 48 52 48c27 0 48 -28 48 -52c0 -21.0996 -24 -48 -52 -48c-24 0 -48 26 -48 52zM398 91c-50 -82 -103 -101 -163 -101c-126 0 -198 89 -198 218c0 142 106 231 205 231c96 0 153 -40 153 -95c0 -31 -28 -44 -49 -44s-35 9 -38 36c-4 35 -12 70 -71 70
c-66 0 -114 -66 -114 -176c0 -117 61 -191 134 -191c43 0 86 22 120 66c9 -1 17 -5 21 -14z" />
    <glyph glyph-name="Ccaron" unicode="&#x10c;" horiz-adv-x="646" 
d="M333 697c-30 37 -65 67 -101 95l16 20c39 -17 73 -36 106 -61c37 26 69 45 107 61l15 -20c-38 -29 -70 -61 -100 -95h-43zM357 -10c-215 0 -320 146.2 -320 320c0 104.3 39.5996 202.2 106 263c59 54 130 85 215 85c123 0 168 -40 219 -45c10 -55 17 -103 22 -155
c-11.2998 -6 -21 -9 -33 -5c-26 86 -81 168 -219 168c-52 0 -110 -28 -159.6 -89c-36.5 -44.9004 -59.4004 -116.7 -59.4004 -203c0 -146 93.4004 -298 228 -298c93 0 161 31 232 109c11 0 18 -6 23 -15c-68 -89 -157 -135 -254 -135z" />
    <glyph glyph-name="ccaron" unicode="&#x10d;" horiz-adv-x="428" 
d="M202 502c-29 47 -66 92 -101 130l20 13c39 -29 72 -54 106 -90c37 38 71 63 108 90l19 -13c-35 -39 -73 -84 -102 -130h-50zM398 91c-50 -82 -103 -101 -163 -101c-126 0 -198 89 -198 218c0 142 106 231 205 231c96 0 153 -40 153 -95c0 -31 -28 -44 -49 -44
s-35 9 -38 36c-4 35 -12 70 -71 70c-66 0 -114 -66 -114 -176c0 -117 61 -191 134 -191c43 0 86 22 120 66c9 -1 17 -5 21 -14z" />
    <glyph glyph-name="Dcaron" unicode="&#x10e;" horiz-adv-x="701" 
d="M291 697c-30 37 -65 67 -101 95l16 20c39 -17 73 -36 106 -61c37 26 69 45 107 61l15 -20c-38 -29 -70 -61 -100 -95h-43zM191 84c0 -32 11 -52 109 -52c141 0 262 50 262 252c0 154 -71 329 -287 329c-49 0 -84 -14 -84 -49v-480zM148 645c39 0 94 2 165 2
c192 0 345 -153 345 -339c0 -246 -186 -310 -327 -310c-103 0 -145 2 -182 2c-37.7002 0 -91 -1 -130 -2c-6 6 -6 27 0 33c70 3 87 8 87 91v401c0 83 -17 88 -87 91c-6 6 -6 27 0 33c40 -1 93.2998 -2 129 -2z" />
    <glyph glyph-name="dcaron" unicode="&#x10f;" horiz-adv-x="528" 
d="M503 698c38 0 60 -37 60 -73s-32 -98 -102 -106l-5 17c42 9 63 46 63 69c0 13 -6 21 -14 21c-41 0 -46 22 -46 38s14 34 44 34zM345 124v190c0 31 -3 38 -17 54c-20 23 -45 36 -81 36c-20 0 -62 -3 -93 -50c-15 -21 -29 -61 -29 -133c0 -125 56 -184 110 -184
c25 0 57 16 94 48c14.0996 12.2002 16 20 16 39zM334 50.2998c-49 -40.2998 -86 -60.2998 -125 -60.2998c-108 0 -170 90 -170 213c0 74 26 133 69 176c40 38 84 60 150 60c33 0 74 -17 78 -17c7 0 9 2 9 9v128c0 84 -12 79 -64 82c-6 6 -8 22 -6 30c40 3 115 17 140 27
c9 0 13 -3 13 -10c0 0 -4 -40 -4 -105v-453c0 -49 9 -68 73 -73c6 -6 6 -21 0 -27c-61 -7 -96 -22 -118 -40c-6 -2.5 -11 -3 -19 0c0 0 -8.5 34.5 -11 59c-0.700195 7 -10.2002 5.2002 -15 1.2998z" />
    <glyph glyph-name="Dcroat" unicode="&#x110;" horiz-adv-x="701" 
d="M191 84c0 -32 11 -52.001 109 -52.001c141 0 262 50 262 252c0 154 -71 329 -287 329c-49 0 -84 -14 -84 -49v-237h122c9.2998 -1.2998 13 -7.7998 13 -12.5996c0 -9.59961 -10.7002 -25.3994 -23 -27.3994h-112v-203zM148 644.999c39 0 94 2.00098 165 2.00098
c192 0 345 -153 345 -339c0 -246 -186 -310 -327 -310c-103 0 -145 2 -182 2c-37.7002 0 -91 -1 -130 -2c-6 6 -6 27 0 33c70 3 87 8 87 91v165h-79c-9 2 -12 7.7998 -12 13.3994c0 9.59961 9 24.2998 21 26.5996h70v196c0 83 -17 88 -87 91c-6 6 -6 27 0 33
c40 -1 93.2998 -2 129 -2z" />
    <glyph glyph-name="dcroat" unicode="&#x111;" horiz-adv-x="506" 
d="M345 124v190c0 31 -3 38 -17 54c-20 23 -45 36 -81 36c-20 0 -62 -3 -93 -50c-15 -21 -29 -61 -29 -133c0 -125 56 -184 110 -184c25 0 57 16 94 48c14.0996 12.2002 16 20 16 39zM334 50.2998c-49 -40.2998 -86 -60.2998 -125 -60.2998c-108 0 -170 90 -170 213
c0 74 26 133 69 176c40 38 84 60 150 60c33 0 74 -17 78 -17c7 0 9 2 9 9v102h-148c-9 2 -12 7.7998 -12 13.3994c0 9.59961 9 24.2998 21 26.5996h138.9c-1.40039 69.4004 -15 65.2002 -63.9004 68c-6 6 -8 22 -6 30c40 3 115 17 140 27c9 0 13 -3 13 -10
c0 0 -4 -40 -4 -105v-10h59c9.2998 -1.2998 13 -7.7998 13 -12.5996c0 -9.59961 -10.7002 -25.3994 -23 -27.3994h-49v-403c0 -49 9 -68 73 -73c6 -6 6 -21 0 -27c-61 -7 -96 -22 -118 -40c-6 -2.5 -11 -3 -19 0c0 0 -8.5 34.5 -11 59
c-0.700195 7 -10.2002 5.2002 -15 1.2998z" />
    <glyph glyph-name="Emacron" unicode="&#x112;" horiz-adv-x="557" 
d="M375 745h-224c-9 0 -13 11 -13 18c0 12 11 32 22 32h225c10 0 14 -11 14 -17c0 -12 -11 -33 -24 -33zM281 361c85 0 88 13 91 68c6 6 27 6 33 0c-1 -24 -2 -58 -2 -86c0 -34.2998 1 -62 2 -88c-6 -6 -27 -6 -33 0c-3 45 -6 68 -91 68h-91v-221c0 -47 14 -63 56 -63h116
c76 0 111 59 131 131c13.0996 3.2002 24.5996 1 35 -5c-8 -51 -23 -117 -37 -167c0 0 -80 2 -128 2h-215c-33 0 -93 -1 -130 -2c-6 6 -6 27 0 33c70 3 87 8 87 91v401c0 83 -17 88 -87 91c-6 6 -6 27 0 33c40 -1 98.5 -2 129 -2h255c24 0 32 1 49 4c3 0 4 -1 4 -3
c2 -8 17 -104 22 -145c-9.7998 -4.7002 -20.5996 -6.7998 -33 -5c-22 69 -38 109 -113 109h-75c-54 0 -66 -20 -66 -64v-180h91z" />
    <glyph glyph-name="emacron" unicode="&#x113;" horiz-adv-x="447" 
d="M337 518h-224c-9 0 -13 11 -13 18c0 12 11 32 22 32h225c10 0 14 -11 14 -17c0 -12 -11 -33 -24 -33zM124 282l181 3c11 0.200195 15 5 15 14c0 84 -45 105 -83 105c-24 0 -94 -9 -113 -122zM386 93c12 -1 18 -6 21 -16c-40 -52 -94 -87 -170 -87c-72 0 -119 24 -153 64
c-33 38 -47 92 -47 148c0 152 113 235 200 235c139 0 169 -90 169 -174c0 -11 -7 -17 -19 -17l-266 2c0 -58 12 -104 32 -137c31 -51 73 -72 109 -72c58 0 87 16 124 54z" />
    <glyph glyph-name="Ebreve" unicode="&#x114;" horiz-adv-x="557" 
d="M416 803c-6 -71 -70 -113 -136 -113c-73 0 -131 43 -136 113h28c8 -39 55 -61 108 -61c49 0 101 22 108 61h28zM281 361c85 0 88 13 91 68c6 6 27 6 33 0c-1 -24 -2 -58 -2 -86c0 -34.2998 1 -62 2 -88c-6 -6 -27 -6 -33 0c-3 45 -6 68 -91 68h-91v-221
c0 -47 14 -63 56 -63h116c76 0 111 59 131 131c13.0996 3.2002 24.5996 1 35 -5c-8 -51 -23 -117 -37 -167c0 0 -80 2 -128 2h-215c-33 0 -93 -1 -130 -2c-6 6 -6 27 0 33c70 3 87 8 87 91v401c0 83 -17 88 -87 91c-6 6 -6 27 0 33c40 -1 98.5 -2 129 -2h255c24 0 32 1 49 4
c3 0 4 -1 4 -3c2 -8 17 -104 22 -145c-9.7998 -4.7002 -20.5996 -6.7998 -33 -5c-22 69 -38 109 -113 109h-75c-54 0 -66 -20 -66 -64v-180h91z" />
    <glyph glyph-name="ebreve" unicode="&#x115;" horiz-adv-x="447" 
d="M120 648c11 -53 54 -90 108 -90c52 0 98 32 108 90l27 -12c-12 -86 -76 -135 -135 -135c-70 0 -121 50 -135 135zM124 282l181 3c11 0.200195 15 5 15 14c0 84 -45 105 -83 105c-24 0 -94 -9 -113 -122zM386 93c12 -1 18 -6 21 -16c-40 -52 -94 -87 -170 -87
c-72 0 -119 24 -153 64c-33 38 -47 92 -47 148c0 152 113 235 200 235c139 0 169 -90 169 -174c0 -11 -7 -17 -19 -17l-266 2c0 -58 12 -104 32 -137c31 -51 73 -72 109 -72c58 0 87 16 124 54z" />
    <glyph glyph-name="Edotaccent" unicode="&#x116;" horiz-adv-x="557" 
d="M218 753c0 28 24 52 52 52s52 -24 52 -52s-24 -52 -52 -52s-52 24 -52 52zM281 361c85 0 88 13 91 68c6 6 27 6 33 0c-1 -24 -2 -58 -2 -86c0 -34.2998 1 -62 2 -88c-6 -6 -27 -6 -33 0c-3 45 -6 68 -91 68h-91v-221c0 -47 14 -63 56 -63h116c76 0 111 59 131 131
c13.0996 3.2002 24.5996 1 35 -5c-8 -51 -23 -117 -37 -167c0 0 -80 2 -128 2h-215c-33 0 -93 -1 -130 -2c-6 6 -6 27 0 33c70 3 87 8 87 91v401c0 83 -17 88 -87 91c-6 6 -6 27 0 33c40 -1 98.5 -2 129 -2h255c24 0 32 1 49 4c3 0 4 -1 4 -3c2 -8 17 -104 22 -145
c-9.7998 -4.7002 -20.5996 -6.7998 -33 -5c-22 69 -38 109 -113 109h-75c-54 0 -66 -20 -66 -64v-180h91z" />
    <glyph glyph-name="edotaccent" unicode="&#x117;" horiz-adv-x="447" 
d="M180 599c0 24 28 48 52 48c27 0 48 -28 48 -52c0 -21.0996 -24 -48 -52 -48c-24 0 -48 26 -48 52zM124 282l181 3c11 0.200195 15 5 15 14c0 84 -45 105 -83 105c-24 0 -94 -9 -113 -122zM386 93c12 -1 18 -6 21 -16c-40 -52 -94 -87 -170 -87c-72 0 -119 24 -153 64
c-33 38 -47 92 -47 148c0 152 113 235 200 235c139 0 169 -90 169 -174c0 -11 -7 -17 -19 -17l-266 2c0 -58 12 -104 32 -137c31 -51 73 -72 109 -72c58 0 87 16 124 54z" />
    <glyph glyph-name="Eogonek" unicode="&#x118;" horiz-adv-x="557" 
d="M498 -135c-29 -45 -68.999 -64.999 -109.999 -64.999c-50 0 -88 20 -88 74c0 41.4004 35.5996 98.8008 95.8994 125.801c-11.7002 0.0996094 -23 0.199219 -32.9004 0.199219h-215c-33 0 -93 -1 -130 -2c-6 6 -6 27 0 33c70 3 87 8 87 91v401c0 83 -17 88 -87 91
c-6 6 -6 27 0 33c40 -1 98.5 -2 129 -2h255c24 0 32 1 49 4c3 0 4 -1 4 -3c2 -8 17 -104 22 -145c-9.7998 -4.7002 -20.5996 -6.7998 -33 -5c-22 69 -38 109 -113 109h-75c-54 0 -66 -20 -66 -64v-180h91c85 0 88 13 91 68c6 6 27 6 33 0c-1 -24 -2 -58 -2 -86
c0 -34.2998 1 -62 2 -88c-6 -6 -27 -6 -33 0c-3 45 -6 68 -91 68h-91v-221c0 -47 14 -63 56 -63h116c76 0 111 59 131 131c13.0996 3.2002 24.5996 1 35 -5c-8 -51 -23 -117 -37 -167c0 0 -3.40039 0.0996094 -9.2002 0.199219l0.200195 -0.200195c-71 0 -120 -67 -120 -113
c0 -26 13 -47 50 -47c29 0 45 16 67 38c9 0 15 -4 19 -11z" />
    <glyph glyph-name="eogonek" unicode="&#x119;" horiz-adv-x="447" 
d="M373 -135c-29 -45 -69.001 -65 -110.001 -65c-50 0 -88 20 -88 74c0 41 34.4004 79.9004 84.2002 117c-7.2002 -0.700195 -14.6006 -1 -22.2002 -1c-72 0 -119 24 -153 64c-33 38 -47 92 -47 148c0 152 113 235 200 235c139 0 169 -90 169 -174c0 -11 -7 -17 -19 -17
l-266 2c0 -58 12 -104 32 -137c31 -51 73 -72 109 -72c58 0 87 16 124 54c12 -1 18 -6 21 -16c-21.5 -28 -47.0996 -51 -77.8994 -66.2998c-63.0996 -52.5 -92.0996 -82.2998 -92.0996 -125.7c0 -26 13 -47 50 -47c29 0 45 16 67 38c9 0 15 -4 19 -11zM123.999 282l181 3
c11 0.200195 15 5 15 14c0 84 -45 105 -83 105c-24 0 -94 -9 -113 -122z" />
    <glyph glyph-name="Ecaron" unicode="&#x11a;" horiz-adv-x="557" 
d="M268 697c-30 37 -65 67 -101 95l16 20c39 -17 73 -36 106 -61c37 26 69 45 107 61l15 -20c-38 -29 -70 -61 -100 -95h-43zM281 361c85 0 88 13 91 68c6 6 27 6 33 0c-1 -24 -2 -58 -2 -86c0 -34.2998 1 -62 2 -88c-6 -6 -27 -6 -33 0c-3 45 -6 68 -91 68h-91v-221
c0 -47 14 -63 56 -63h116c76 0 111 59 131 131c13.0996 3.2002 24.5996 1 35 -5c-8 -51 -23 -117 -37 -167c0 0 -80 2 -128 2h-215c-33 0 -93 -1 -130 -2c-6 6 -6 27 0 33c70 3 87 8 87 91v401c0 83 -17 88 -87 91c-6 6 -6 27 0 33c40 -1 98.5 -2 129 -2h255c24 0 32 1 49 4
c3 0 4 -1 4 -3c2 -8 17 -104 22 -145c-9.7998 -4.7002 -20.5996 -6.7998 -33 -5c-22 69 -38 109 -113 109h-75c-54 0 -66 -20 -66 -64v-180h91z" />
    <glyph glyph-name="ecaron" unicode="&#x11b;" horiz-adv-x="447" 
d="M199 501c-29 47 -66 92 -101 130l20 13c39 -29 72 -54 106 -90c37 38 71 63 108 90l19 -13c-35 -39 -73 -84 -102 -130h-50zM124 282l181 3c11 0.200195 15 5 15 14c0 84 -45 105 -83 105c-24 0 -94 -9 -113 -122zM386 93c12 -1 18 -6 21 -16c-40 -52 -94 -87 -170 -87
c-72 0 -119 24 -153 64c-33 38 -47 92 -47 148c0 152 113 235 200 235c139 0 169 -90 169 -174c0 -11 -7 -17 -19 -17l-266 2c0 -58 12 -104 32 -137c31 -51 73 -72 109 -72c58 0 87 16 124 54z" />
    <glyph glyph-name="Gcircumflex" unicode="&#x11c;" horiz-adv-x="685" 
d="M383 808c30 -36 66.999 -70.001 102.999 -97.001c-2.7998 -9.09961 -6.89941 -17.1992 -15.999 -20.999c-39 18 -73 36 -106 61c-37 -27 -69 -44 -107 -61c-9 6 -12 12 -14 21c37 28 70 63 101 97c14 8.40039 23.5996 7.7002 39 0zM376.999 657.999
c111 0 148 -35 208 -45c16 -72 20.5 -112 23 -154c-11.2998 -4.7002 -21.7002 -6.7002 -33 -6c-26 86 -67 169 -212 169c-116.5 0 -230 -120 -230 -295c0 -132 84 -301 242 -301c54 0 121 6 155 38v153c0 40.0996 -27.0996 43.7998 -82 48c-6 6 -6 30 0 36
c44 -1 90.5 -2 124 -2c40 0 65 1 89 2c6 -6 6 -30 0 -36c-29 -3 -46 -12.7998 -46 -48v-116c0 -11 5 -19 16 -28c-68 -58 -161 -83 -279 -83c-191 0 -315 137.2 -315 317c0 220 173 351 340 351z" />
    <glyph glyph-name="gcircumflex" unicode="&#x11d;" horiz-adv-x="500" 
d="M246 659c29 -47 73 -100 109 -140c-5 -7 -13.5996 -15.0996 -23 -17c-38 24 -73 52 -103 83c-32 -32 -65 -61 -104 -83c-9 2 -16 8 -22 17c36 40 82 94 111 140c10.7002 2.2998 21.2998 3 32 0zM319 279c0 83 -34 129 -97 129c-55 0 -80 -36 -80 -106
c0 -64 9 -135 93 -135c37 0 84 19 84 112zM132 -10c-29 -35 -31 -60 -31 -94c0 -68 84 -97 120 -97c90 0 196 38 196 110c0 26 -12 40 -51 62c-29 16 -71 17 -121 17c-14 0 -42 -3 -73 -3c-13 0 -29 2 -40 5zM444 387c-11 0 -24 10 -28 18c-6 9 -13 12 -20 12
c-13 0 -33 -14 -40 -24c29 -30 43 -57 43 -104c0 -98 -81 -153 -169 -153c-39 0 -67 7 -91 21c-12 -17 -18 -38 -18 -58c0 -43 35 -57 64 -57c5 0 15 1 30 2c24 3 49 5 67 5c37 0 107 -1 146 -33c29 -24 44 -49 44 -81c0 -108 -146 -173 -281 -173c-77 0 -159 27 -159 114
c0 43 28 89 82 121c-26 13 -46 41 -46 77c0 34 16 77 44 101c-28 27 -52 58 -52 112c0 92 82 152 171 152c59 0 92 -20 104 -28c26 34 74 51 100 51c27 0 46 -16 46 -37c0 -20 -18 -38 -37 -38z" />
    <glyph glyph-name="Gbreve" unicode="&#x11e;" horiz-adv-x="685" 
d="M488 806c-6 -71 -70 -113 -136 -113c-73 0 -131 43 -136 113h28c8 -39 55 -61 108 -61c49 0 101 22 108 61h28zM377 658c111 0 148 -35 208 -45c16 -72 20.5 -112 23 -154c-11.2998 -4.7002 -21.7002 -6.7002 -33 -6c-26 86 -67 169 -212 169
c-116.5 0 -230 -120 -230 -295c0 -132 84 -301 242 -301c54 0 121 6 155 38v153c0 40.0996 -27.0996 43.7998 -82 48c-6 6 -6 30 0 36c44 -1 90.5 -2 124 -2c40 0 65 1 89 2c6 -6 6 -30 0 -36c-29 -3 -46 -12.7998 -46 -48v-116c0 -11 5 -19 16 -28
c-68 -58 -161 -83 -279 -83c-191 0 -315 137.2 -315 317c0 220 173 351 340 351z" />
    <glyph glyph-name="gbreve" unicode="&#x11f;" horiz-adv-x="500" 
d="M112 644c11 -53 54 -90 108 -90c52 0 98 32 108 90l27 -12c-12 -86 -76 -135 -135 -135c-70 0 -121 50 -135 135zM319 279c0 83 -34 129 -97 129c-55 0 -80 -36 -80 -106c0 -64 9 -135 93 -135c37 0 84 19 84 112zM132 -10c-29 -35 -31 -60 -31 -94c0 -68 84 -97 120 -97
c90 0 196 38 196 110c0 26 -12 40 -51 62c-29 16 -71 17 -121 17c-14 0 -42 -3 -73 -3c-13 0 -29 2 -40 5zM444 387c-11 0 -24 10 -28 18c-6 9 -13 12 -20 12c-13 0 -33 -14 -40 -24c29 -30 43 -57 43 -104c0 -98 -81 -153 -169 -153c-39 0 -67 7 -91 21
c-12 -17 -18 -38 -18 -58c0 -43 35 -57 64 -57c5 0 15 1 30 2c24 3 49 5 67 5c37 0 107 -1 146 -33c29 -24 44 -49 44 -81c0 -108 -146 -173 -281 -173c-77 0 -159 27 -159 114c0 43 28 89 82 121c-26 13 -46 41 -46 77c0 34 16 77 44 101c-28 27 -52 58 -52 112
c0 92 82 152 171 152c59 0 92 -20 104 -28c26 34 74 51 100 51c27 0 46 -16 46 -37c0 -20 -18 -38 -37 -38z" />
    <glyph glyph-name="Gdotaccent" unicode="&#x120;" horiz-adv-x="685" 
d="M304 753c0 28 24 52 52 52s52 -24 52 -52s-24 -52 -52 -52s-52 24 -52 52zM377 658c111 0 148 -35 208 -45c16 -72 20.5 -112 23 -154c-11.2998 -4.7002 -21.7002 -6.7002 -33 -6c-26 86 -67 169 -212 169c-116.5 0 -230 -120 -230 -295c0 -132 84 -301 242 -301
c54 0 121 6 155 38v153c0 40.0996 -27.0996 43.7998 -82 48c-6 6 -6 30 0 36c44 -1 90.5 -2 124 -2c40 0 65 1 89 2c6 -6 6 -30 0 -36c-29 -3 -46 -12.7998 -46 -48v-116c0 -11 5 -19 16 -28c-68 -58 -161 -83 -279 -83c-191 0 -315 137.2 -315 317c0 220 173 351 340 351z
" />
    <glyph glyph-name="gdotaccent" unicode="&#x121;" horiz-adv-x="500" 
d="M180 599c0 24 28 48 52 48c27 0 48 -28 48 -52c0 -21.0996 -24 -48 -52 -48c-24 0 -48 26 -48 52zM319 279c0 83 -34 129 -97 129c-55 0 -80 -36 -80 -106c0 -64 9 -135 93 -135c37 0 84 19 84 112zM132 -10c-29 -35 -31 -60 -31 -94c0 -68 84 -97 120 -97
c90 0 196 38 196 110c0 26 -12 40 -51 62c-29 16 -71 17 -121 17c-14 0 -42 -3 -73 -3c-13 0 -29 2 -40 5zM444 387c-11 0 -24 10 -28 18c-6 9 -13 12 -20 12c-13 0 -33 -14 -40 -24c29 -30 43 -57 43 -104c0 -98 -81 -153 -169 -153c-39 0 -67 7 -91 21
c-12 -17 -18 -38 -18 -58c0 -43 35 -57 64 -57c5 0 15 1 30 2c24 3 49 5 67 5c37 0 107 -1 146 -33c29 -24 44 -49 44 -81c0 -108 -146 -173 -281 -173c-77 0 -159 27 -159 114c0 43 28 89 82 121c-26 13 -46 41 -46 77c0 34 16 77 44 101c-28 27 -52 58 -52 112
c0 92 82 152 171 152c59 0 92 -20 104 -28c26 34 74 51 100 51c27 0 46 -16 46 -37c0 -20 -18 -38 -37 -38z" />
    <glyph glyph-name="Gcommaaccent" unicode="&#x122;" horiz-adv-x="685" 
d="M375 -41c38 0 62 -34 62 -86c0 -60 -49 -90 -106 -99c-6 6 -8 15 -8 24c49 11 75 35 75 53c0 20 -13 24 -31 26c-17 3 -42 12 -42 39c0 24 21 43 50 43zM377 658c111 0 148 -35 208 -45c16 -72 20.5 -112 23 -154c-11.2998 -4.7002 -21.7002 -6.7002 -33 -6
c-26 86 -67 169 -212 169c-116.5 0 -230 -120 -230 -295c0 -132 84 -301 242 -301c54 0 121 6 155 38v153c0 40.0996 -27.0996 43.7998 -82 48c-6 6 -6 30 0 36c44 -1 90.5 -2 124 -2c40 0 65 1 89 2c6 -6 6 -30 0 -36c-29 -3 -46 -12.7998 -46 -48v-116c0 -11 5 -19 16 -28
c-68 -58 -161 -83 -279 -83c-191 0 -315 137.2 -315 317c0 220 173 351 340 351z" />
    <glyph glyph-name="gcommaaccent" unicode="&#x123;" horiz-adv-x="500" 
d="M228 511c-39 0 -62 37 -62 73c0 24 7 46 23 66c16.9004 21.0996 45 38 83 43c4 -4 5 -13 5 -20c-57 -12 -77 -44 -77 -67c0 -19.5996 4.7998 -13 29 -13c40 0 50 -24 50 -41c0 -16 -16 -41 -51 -41zM319 279c0 83 -34 129 -97 129c-55 0 -80 -36 -80 -106
c0 -64 9 -135 93 -135c37 0 84 19 84 112zM132 -10c-29 -35 -31 -60 -31 -94c0 -68 84 -97 120 -97c90 0 196 38 196 110c0 26 -12 40 -51 62c-29 16 -71 17 -121 17c-14 0 -42 -3 -73 -3c-13 0 -29 2 -40 5zM444 387c-11 0 -24 10 -28 18c-6 9 -13 12 -20 12
c-13 0 -33 -14 -40 -24c29 -30 43 -57 43 -104c0 -98 -81 -153 -169 -153c-39 0 -67 7 -91 21c-12 -17 -18 -38 -18 -58c0 -43 35 -57 64 -57c5 0 15 1 30 2c24 3 49 5 67 5c37 0 107 -1 146 -33c29 -24 44 -49 44 -81c0 -108 -146 -173 -281 -173c-77 0 -159 27 -159 114
c0 43 28 89 82 121c-26 13 -46 41 -46 77c0 34 16 77 44 101c-28 27 -52 58 -52 112c0 92 82 152 171 152c59 0 92 -20 104 -28c26 34 74 51 100 51c27 0 46 -16 46 -37c0 -20 -18 -38 -37 -38z" />
    <glyph glyph-name="Hcircumflex" unicode="&#x124;" horiz-adv-x="730" 
d="M618 122c0 -83 17 -88 87 -91c6 -6 6 -27 0 -33c-44 1 -91.7002 2 -129 2c-37.0996 0 -85 -1 -130 -2c-6 6 -6 27 0 33c70 3 87 8 87 91v199h-342v-199c0 -83 17 -88 87 -91c6 -6 6 -27 0 -33c-44 1 -92.7002 2 -129 2c-37.7002 0 -86 -1 -130 -2c-6 6 -6 27 0 33
c70 3 87 8 87 91v401c0 83 -17 88 -87 91c-6 6 -6 27 0 33c38 -1 79 -2 129 -2c51 0 92 1 130 2c6 -6 6 -27 0 -33c-70 -3 -87 -8 -87 -91v-160h342v160c0 83 -17 88 -87 91c-6 6 -6 27 0 33c44 -1 91.7002 -2 129 -2c38 0 89 1 130 2c6 -6 6 -27 0 -33
c-70 -3 -87 -8 -87 -91v-401zM386 806c30 -36 66.999 -70.001 102.999 -97.001c-2.7998 -9.09961 -6.89941 -17.1992 -15.999 -20.999c-39 18 -73 36 -106 61c-37 -27 -69 -44 -107 -61c-9 6 -12 12 -14 21c37 28 70 63 101 97c14 8.40039 23.5996 7.7002 39 0z" />
    <glyph glyph-name="hcircumflex" unicode="&#x125;" horiz-adv-x="538" 
d="M339.3 663.9c26.0996 -49.2998 65.7002 -105.001 98.1006 -147.001c-4.5 -7.2998 -14.2998 -15.7998 -22.7002 -17.7998c-34.2002 25.2002 -63.7002 52.6006 -90.7002 85.1006c-28.7998 -33.5996 -56.5 -62 -91.5996 -85.0996
c-8.09961 2.09961 -16.3994 8.39941 -21.7998 17.7998c32.4004 42 73.8008 98.7002 99.9004 147c9.59961 2.40039 19.1992 3.2002 28.7988 0zM167.001 285.899l-0.000976562 -163.9c0 -83 9 -87 59.7998 -91c6 -6 6 -27 0 -33c-28 1 -60.7998 2 -98.7998 2
c-40 0 -76.7998 -1 -109.8 -2c-6 6 -6 27 0 33c58 4 69.7998 8 69.7998 91v437c0 84 -12 79 -64 82c-6 6 -8 22 -6 30c40 3 115 17 140 27c9 0 13 -3 13 -10c0 0 -4 -40 -4 -105l-0.799805 -225c0 -14 6.40039 -3.7998 9.80078 0c61 68 120.9 81 170 81
c35 0 66.2002 -12 83 -34c23.2998 -30.5 27 -79 27 -134v-149c0 -82 11 -86 67 -91c5 -6 5 -27 0 -33c-33 1 -66 2 -106 2s-74 -1 -102 -2c-5 6 -5 27 0 33c52 5 62 9 62 91v152c0 30 -2 57.2002 -12 77c-11.5996 22.9004 -32.5996 36 -53 36
c-39.4004 0 -90 -21.7002 -128 -59c-8 -8.7002 -17 -21 -17 -42.0996z" />
    <glyph glyph-name="Hbar" unicode="&#x126;" horiz-adv-x="730" 
d="M618 122c0 -83 17.001 -88 87.001 -91c6 -6 6 -27 0 -33c-44 1 -91.7002 2 -129 2c-37.0996 0 -85 -1 -130 -2c-6 6 -6 27 0 33c70 3 87 8 87 91v199h-342v-199c0 -83 17 -88 87 -91c6 -6 6 -27 0 -33c-44 1 -92.7002 2 -129 2c-37.7002 0 -86 -1 -130 -2
c-6 6 -6 27 0 33c70 3 87 8 87 91v390h-65v34h64.4004c-3.40039 61 -23.5 65.2998 -86.4004 68c-6 6 -6 27 0 33c38 -1 79 -2 129 -2c51 0 92 1 130 2c6 -6 6 -27 0 -33c-62.9004 -2.7002 -83 -7 -86.4004 -68h340.8c-3.40039 61 -23.5 65.2998 -86.4004 68c-6 6 -6 27 0 33
c44 -1 91.7002 -2 129 -2c38 0 89 1 130 2c6 -6 6 -27 0 -33c-62.9004 -2.7002 -83 -7 -86.4004 -68h57.4004v-34h-58v-390zM533.001 512h-342v-149h342v149z" />
    <glyph glyph-name="hbar" unicode="&#x127;" horiz-adv-x="538" 
d="M167 285.9l-0.00195312 -163.9c0 -83 9 -87 59.7998 -91c6 -6 6 -27 0 -33c-28 1 -60.7998 2 -98.7998 2c-40 0 -76.7998 -1 -109.8 -2c-6 6 -6 27 0 33c58 4 69.7998 8 69.7998 91v408h-62v39h61.9004c-1 73.5996 -14.0996 69.0996 -63.8994 72c-6 6 -8 22 -6 30
c40 3 115 17 140 27c9 0 13 -3 13 -10c0 0 -4 -40 -4 -105v-14h174v-39h-174.2l-0.599609 -172c0 -14 6.40039 -3.7998 9.80078 0c61 68 120.9 81 170 81c35 0 66.2002 -12 83 -34c23.2998 -30.5 27 -79 27 -134v-149c0 -82 11 -86 67 -91c5 -6 5 -27 0 -33
c-33 1 -66 2 -106 2s-74 -1 -102 -2c-5 6 -5 27 0 33c52 5 62 9 62 91v152c0 30 -2 57.2002 -12 77c-11.5996 22.9004 -32.5996 36 -53 36c-39.4004 0 -90 -21.7002 -128 -59c-8 -8.7002 -17 -21 -17 -42.0996z" />
    <glyph glyph-name="Itilde" unicode="&#x128;" horiz-adv-x="297" 
d="M213 744c22 0 33 10 47 52c11 1 21 -2 27 -6c-12 -60 -41 -99 -87 -99c-22 0 -43 18 -64 32c-18 11 -37 19 -54 19c-26 0 -36 -15 -46 -48c-11 -2 -21 -1 -27 5c14 59 37 98 80 98c30 0 52 -20 72 -34c16 -12 33 -19 52 -19zM191 122c0 -83 17 -88 87 -91
c6 -6 6 -27 0 -33c-45 1 -93.4004 2 -129 2c-36.2998 0 -85 -1 -130 -2c-6 6 -6 27 0 33c70 3 87 8 87 91v401c0 83 -17 88 -87 91c-6 6 -6 27 0 33c47 -1 95.5 -2 129 -2c38.5 0 86 1 130 2c6 -6 6 -27 0 -33c-70 -3 -87 -8 -87 -91v-401z" />
    <glyph glyph-name="itilde" unicode="&#x129;" horiz-adv-x="271" 
d="M184.1 573c19.7998 0 29.7012 10 42.3008 52c9.90039 1 18.9004 -2 24.3008 -6c-10.7998 -60 -36.8994 -99 -78.2998 -99c-19.7998 0 -38.7002 18 -57.6006 32c-16.2002 11 -33.2998 19 -48.5996 19c-23.4004 0 -32.4004 -15 -41.4004 -48
c-9.90039 -2 -18.9004 -1 -24.3008 5c12.5996 59 33.2998 98 72 98c27 0 46.7998 -20 64.7998 -34c14.4004 -12 29.7002 -19 46.7998 -19zM181.001 122c0 -83 11 -87 72 -91c6 -6 6 -27 0 -33c-33 1 -71 2 -111 2s-79 -1 -112 -2c-6 6 -6 27 0 33c61 5 72 8 72 91v195
c0 57 -10.5 62.9004 -65 68c-2 6 -4 22 -2 28c69 9 108.5 18 137 29c8 0 13 -3 13 -7c0 0 -4 -64 -4 -113.7v-199.3z" />
    <glyph glyph-name="Imacron" unicode="&#x12a;" horiz-adv-x="297" 
d="M255 745h-224c-9 0 -13 11 -13 18c0 12 11 32 22 32h225c10 0 14 -11 14 -17c0 -12 -11 -33 -24 -33zM191 122c0 -83 17 -88 87 -91c6 -6 6 -27 0 -33c-45 1 -93.4004 2 -129 2c-36.2998 0 -85 -1 -130 -2c-6 6 -6 27 0 33c70 3 87 8 87 91v401c0 83 -17 88 -87 91
c-6 6 -6 27 0 33c47 -1 95.5 -2 129 -2c38.5 0 86 1 130 2c6 -6 6 -27 0 -33c-70 -3 -87 -8 -87 -91v-401z" />
    <glyph glyph-name="imacron" unicode="&#x12b;" horiz-adv-x="271" 
d="M219.9 518h-201.601c-8.09961 0 -11.6992 11 -11.6992 18c0 12 9.90039 32 19.8008 32h202.5c9 0 12.5996 -11 12.5996 -17c0 -12 -9.90039 -33 -21.6006 -33zM181 122c0 -83 11 -87 72 -91c6 -6 6 -27 0 -33c-33 1 -71 2 -111 2s-79 -1 -112 -2c-6 6 -6 27 0 33
c61 5 72 8 72 91v195c0 57 -10.5 62.9004 -65 68c-2 6 -4 22 -2 28c69 9 108.5 18 137 29c8 0 13 -3 13 -7c0 0 -4 -64 -4 -113.7v-199.3z" />
    <glyph glyph-name="Ibreve" unicode="&#x12c;" horiz-adv-x="297" 
d="M285 805c-6 -71 -70 -113 -136 -113c-73 0 -131 43 -136 113h28c8 -39 55 -61 108 -61c49 0 101 22 108 61h28zM191 122c0 -83 17 -88 87 -91c6 -6 6 -27 0 -33c-45 1 -93.4004 2 -129 2c-36.2998 0 -85 -1 -130 -2c-6 6 -6 27 0 33c70 3 87 8 87 91v401
c0 83 -17 88 -87 91c-6 6 -6 27 0 33c47 -1 95.5 -2 129 -2c38.5 0 86 1 130 2c6 -6 6 -27 0 -33c-70 -3 -87 -8 -87 -91v-401z" />
    <glyph glyph-name="ibreve" unicode="&#x12d;" horiz-adv-x="271" 
d="M28.2002 650c9.90039 -53 48.5996 -90 97.1992 -90c46.7998 0 88.2002 32 97.2002 90l24.2998 -12c-10.7998 -86 -68.3994 -135 -121.499 -135c-63 0 -108.9 50 -121.5 135zM180.999 122c0 -83 11 -87 72 -91c6 -6 6 -27 0 -33c-33 1 -71 2 -111 2s-79 -1 -112 -2
c-6 6 -6 27 0 33c61 5 72 8 72 91v195c0 57 -10.5 62.9004 -65 68c-2 6 -4 22 -2 28c69 9 108.5 18 137 29c8 0 13 -3 13 -7c0 0 -4 -64 -4 -113.7v-199.3z" />
    <glyph glyph-name="Iogonek" unicode="&#x12e;" horiz-adv-x="297" 
d="M271 -135c-29 -45 -69.001 -65 -110.001 -65c-50 0 -88 20 -88 74c0 41.5 35.7998 99 96.2002 125.9c-7.09961 0.0996094 -13.8994 0.0996094 -20.1992 0.0996094c-36.2998 0 -85 -1 -130 -2c-6 6 -6 27 0 33c70 3 87 8 87 91v401c0 83 -17 88 -87 91c-6 6 -6 27 0 33
c47 -1 95.5 -2 129 -2c38.5 0 86 1 130 2c6 -6 6 -27 0 -33c-70 -3 -87 -8 -87 -91v-401c0 -83 17 -88 87 -91c6 -6 6 -27 0 -33c-7.7002 0.200195 -15.5 0.299805 -23.4004 0.5l0.400391 -0.5c-71 0 -120 -67 -120 -113c0 -26 13 -47 50 -47c29 0 45 16 67 38
c9 0 15 -4 19 -11z" />
    <glyph glyph-name="iogonek" unicode="&#x12f;" horiz-adv-x="271" 
d="M259 -135c-29 -45 -68.999 -64.999 -109.999 -64.999c-50 0 -88 20 -88 74c0 41.5 35.7998 99.0996 96.2998 126h-15.2998c-40 0 -79 -1 -112 -2c-6 6 -6 27 0 33c61 5 72 8 72 91v195c0 57 -10.5 62.9004 -65 68c-2 6 -4 22 -2 28c69 9 108.5 18 137 29c8 0 13 -3 13 -7
c0 0 -4 -64 -4 -113.7v-199.3c0 -83 11 -87 72 -91c6 -6 6 -27 0 -33c-3.40039 0.0996094 -6.80078 0.199219 -10.3008 0.298828l0.299805 -0.299805c-71 0 -120 -67 -120 -113c0 -26 13 -47 50 -47c29 0 45 16 67 38c9 0 15 -4 19 -11zM90.001 599.001c0 24 28 48 52 48
c27 0 48 -28 48 -52c0 -21.0996 -24 -48 -52 -48c-24 0 -48 26 -48 52z" />
    <glyph glyph-name="Idotaccent" unicode="&#x130;" horiz-adv-x="297" 
d="M97 753c0 28 24 52 52 52s52 -24 52 -52s-24 -52 -52 -52s-52 24 -52 52zM191 122c0 -83 17 -88 87 -91c6 -6 6 -27 0 -33c-45 1 -93.4004 2 -129 2c-36.2998 0 -85 -1 -130 -2c-6 6 -6 27 0 33c70 3 87 8 87 91v401c0 83 -17 88 -87 91c-6 6 -6 27 0 33
c47 -1 95.5 -2 129 -2c38.5 0 86 1 130 2c6 -6 6 -27 0 -33c-70 -3 -87 -8 -87 -91v-401z" />
    <glyph glyph-name="dotlessi" unicode="&#x131;" horiz-adv-x="271" 
d="M181 122c0 -83 11 -87 72 -91c6 -6 6 -27 0 -33c-33 1 -71 2 -111 2s-79 -1 -112 -2c-6 6 -6 27 0 33c61 5 72 8 72 91v195c0 57 -10.5 62.9004 -65 68c-2 6 -4 22 -2 28c69 9 108.5 18 137 29c8 0 13 -3 13 -7c0 0 -4 -64 -4 -113.7v-199.3z" />
    <glyph glyph-name="IJ" unicode="&#x132;" horiz-adv-x="598" 
d="M509 523v-420c0 -143 -58.2998 -194.7 -102 -232c-41 -35 -72 -43 -117 -43c-22 0 -75 18 -75 54c0 22 30 43 44 43c24.9004 0 33.7002 -12.7998 39.7002 -25.5c7 -14.7002 21.2002 -26.5 40.2998 -26.5c33 0 85 28 85 208v442c0 83 -17 88 -97 91c-6 6 -6 27 0 33
c50 -1 102.7 -2 139 -2c38.7002 0 82 1 120 2c6 -6 6 -27 0 -33c-60 -3 -77 -8 -77 -91zM191 122c0 -83 17 -88 87 -91c6 -6 6 -27 0 -33c-45 1 -93.4004 2 -129 2c-36.2998 0 -85 -1 -130 -2c-6 6 -6 27 0 33c70 3 87 8 87 91v401c0 83 -17 88 -87 91c-6 6 -6 27 0 33
c47 -1 95.5 -2 129 -2c38.5 0 86 1 130 2c6 -6 6 -27 0 -33c-70 -3 -87 -8 -87 -91v-401z" />
    <glyph glyph-name="ij" unicode="&#x133;" horiz-adv-x="542" 
d="M369 599c0 24 28 48 52 48c27 0 48 -28 48 -52c0 -21.0996 -24 -48 -52 -48c-24 0 -48 26 -48 52zM383 317c0 57 -11 63 -65 68c-2 6 -4 22 -2 28c69 9 109 18 137 29c8 0 13 -3 13 -7c0 0 -4 -64 -4 -114v-211c0 -189 -28 -261 -75 -299c-37 -31 -89 -34 -110 -34
c-19 0 -55 14 -55 43c0 18 21 38 32 38c22 0 34 -16 44 -26c7 -7 20 -11 31 -11c50 0 54 123 54 255v241zM90 599c0 24 28 48 52 48c27 0 48 -28 48 -52c0 -21.0996 -24 -48 -52 -48c-24 0 -48 26 -48 52zM181 122c0 -83 11 -87 72 -91c6 -6 6 -27 0 -33c-33 1 -71 2 -111 2
s-79 -1 -112 -2c-6 6 -6 27 0 33c61 5 72 8 72 91v195c0 57 -10.5 62.9004 -65 68c-2 6 -4 22 -2 28c69 9 108.5 18 137 29c8 0 13 -3 13 -7c0 0 -4 -64 -4 -113.7v-199.3z" />
    <glyph glyph-name="Jcircumflex" unicode="&#x134;" horiz-adv-x="322" 
d="M197 808c30 -36 66.999 -70.001 102.999 -97.001c-2.7998 -9.09961 -6.89941 -17.1992 -15.999 -20.999c-39 18 -73 36 -106 61c-37 -27 -69 -44 -107 -61c-9 6 -12 12 -14 21c37 28 70 63 101 97c14 8.40039 23.5996 7.7002 39 0zM225.999 522.999v-420
c0 -143 -58.2998 -194.7 -102 -232c-41 -35 -72 -43 -117 -43c-22 0 -75 18 -75 54c0 22 30 43 44 43c24.9004 0 33.7002 -12.7998 39.7002 -25.5c7 -14.7002 21.2002 -26.5 40.2998 -26.5c33 0 85 28 85 208v442c0 83 -17 88 -97 91c-6 6 -6 27 0 33c50 -1 102.7 -2 139 -2
c38.7002 0 82 1 120 2c6 -6 6 -27 0 -33c-60 -3 -77 -8 -77 -91z" />
    <glyph glyph-name="jcircumflex" unicode="&#x135;" horiz-adv-x="272" 
d="M113 317c0 57 -11 63 -65 68c-2 6 -4 22 -2 28c69 9 109 18 137 29c8 0 13 -3 13 -7c0 0 -4 -64 -4 -114v-211c0 -189 -28 -261 -75 -299c-37 -31 -89 -34 -110 -34c-19 0 -55 14 -55 43c0 18 21 38 32 38c22 0 34 -16 44 -26c7 -7 20 -11 31 -11c50 0 54 123 54 255v241
zM167 658c29 -47 73 -100 109 -140c-5 -7 -13.5996 -15.0996 -23 -17c-38 24 -73 52 -103 83c-32 -32 -65 -61 -104 -83c-9 2 -16 8 -22 17c36 40 82 94 111 140c10.7002 2.2998 21.2998 3 32 0z" />
    <glyph glyph-name="Kcommaaccent" unicode="&#x136;" horiz-adv-x="637" 
d="M352 -41c38 0 62 -34 62 -86c0 -60 -49 -90 -106 -99c-6 6 -8 15 -8 24c49 11 75 35 75 53c0 20 -13 24 -31 26c-17 3 -42 12 -42 39c0 24 21 43 50 43zM191 122c0 -83 17.001 -88.001 87.001 -91.001c6 -6 6 -27 0 -33c-45 1 -91 2 -129 2c-39 0 -85 -1 -130 -2
c-6 6 -6 27 0 33c70 3 87 8 87 91v401c0 83 -17 88 -87 91c-6 6 -6 27 0 33c45 -1 90.5 -2 129 -2c36.5 0 84 1 130 2c6 -6 6 -27 0 -33c-70 -3 -87 -8 -87 -91v-175.7c35.0996 2.90039 57.6992 16 78.999 38.7002l165 176c42.0996 44.9004 8.09961 48.6006 -28 52.001
c-6 6 -6 27 0 33c37 -1 76 -2 113 -2c32.2002 0 64 1 95 2c6 -6 6 -27 0 -33c-40 -3 -80 -7 -126 -56l-147 -151c-34 -35 -35 -42 -35 -49c0 -8 5.2998 -15.9004 13 -25l219 -260c30.5996 -36.2998 59.0996 -39.3994 88 -41.999c6 -6 6 -27 0 -33c-33 1 -67 2 -101 2
c-21.0996 0 -34 -1 -54 -2c-4 0 -4.59961 3 -5 6c-2 16 -15.7002 43.4004 -36 69l-157 198c-20.2998 25.5996 -49.2002 36.8994 -83 37.8994v-186.9z" />
    <glyph glyph-name="kcommaaccent" unicode="&#x137;" horiz-adv-x="512" 
d="M266 -41c38 0 62 -34 62 -86c0 -60 -49 -90 -106 -99c-6 6 -8 15 -8 24c49 11 75 35 75 53c0 20 -13 24 -31 26c-17 3 -42 12 -42 39c0 24 21 43 50 43zM86 122l-0.000976562 437c0 84 -12 79 -64 82c-6 6 -8 22 -6 30c40 3 115 17 140 27c9 0 13 -3 13 -10
c0 0 -4 -40 -4 -105v-348.8c18.9004 2.59961 45.8008 14.3994 68.001 30.7998c25.7002 19 57 53 80 82c9.2998 11.7002 33 47 -23 51c-6 6 -6 27 0 33c23 -1 60 -2 98 -2c36 0 64 1 87 2c6 -6 6 -27 0 -33c-40 -4 -75 -12 -105 -44l-88 -91c-4 -4 -4 -6 -4 -10
c0 -5 3.40039 -9.5 7 -14l132 -166c26.7002 -33.5996 52 -38 86 -42c6 -6 6 -27 0 -33c-20 1 -51 2 -82 2c-20 0 -42 -1 -62 -2c-3 0 -3.7002 2 -4 5c-1.2998 11.7002 -12.5996 30.5 -42 70l-73 98c-11.9004 16 -21 25 -32 32.5
c-9.7002 3.40039 -23.7998 4.90039 -43 5.40039v-86.9004c0 -83 11 -87 52 -91c6 -6 6 -27 0 -33c-23 1 -56 2 -91 2c-40 0 -74 -1 -107 -2c-6 6 -6 27 0 33c56 4 67 8 67 91z" />
    <glyph glyph-name="kgreenlandic" unicode="&#x138;" horiz-adv-x="519" 
d="M175 122c0 -83 10 -85.999 52 -90.999c6 -6 6 -27 0 -33c-43 1 -56 2 -91 2c-44 0 -70 -1 -112 -2c-6 6 -6 27 0 33c61 5 72 8 72 91v195c0 57 -10.5 62.9004 -65 68c-2 6 -4 22 -2 28c69 9 108.5 18 137 29c8 0 13 -3 13 -7c0 0 -4 -64 -4 -113.7v-86.5996
c18.7002 3.2998 43.9004 14.7002 65 30.2998c25.7002 19 57 53 80 82c9.2998 11.7002 33 47 -23 51c-6 6 -6 27 0 33c37 -1 60 -2 98 -2c36 0 50 1 87 2c6 -6 6 -27 0 -33c-40 -4 -75 -12 -105 -44l-88 -91c-4 -4 -4 -6 -4 -10c0 -5 3.40039 -9.5 7 -14l132 -166
c26.7002 -33.5996 52 -38 86 -42c6 -6 6 -27 0 -33c-30 1 -51 2 -82 2c-30 0 -42 -1 -62 -2c-3 0 -3.2002 2.09961 -4 5c-4 15 -12.5996 30.5 -42 70l-73 98c-11.9004 16 -21 25 -32 32.5c-9.2002 3.2002 -22.2998 4.7998 -40 5.39941v-86.9004z" />
    <glyph glyph-name="Lacute" unicode="&#x139;" horiz-adv-x="528" 
d="M192 819c28.5996 -13.2998 49.2998 -30.7002 62 -52l-144 -58c-21 -9 -33 -12 -42 -12s-15 7 -15 15c0 7 2 12 15 21zM149 0c-33.7002 0 -91 -1 -130 -2c-6 6 -6 27 0 33c70 3 87 8 87 91v401c0 83 -17 88 -87 91c-6 6 -6 27 0 33c46 -1 92.9004 -2 129 -2
c38.0996 0 85 1 130 2c6 -6 6 -27 0 -33c-70 -3 -87 -8 -87 -91v-414c0 -51 18 -70 57 -70h63c106 0 143 59 163 131c12.4004 1.7998 23.2002 -0.299805 33 -5c-6 -52 -16 -117 -26 -167c0 0 -92 2 -119.3 2h-212.7z" />
    <glyph glyph-name="lacute" unicode="&#x13a;" horiz-adv-x="264" 
d="M95 122v437c0 75 -6 78 -64 82c-6 6 -8 22 -6 30c40 3 115 17 140 27c9 0 13 -3 13 -10c0 0 -4 -40 -4 -105v-461c0 -83 11 -88 72 -91c6 -6 6 -27 0 -33c-33 1 -71 2 -111 2s-77 -1 -112 -2c-6 6 -6 27 0 33c61 3 72 8 72 91zM203 847
c28.5996 -13.2998 49.2998 -30.7002 62 -52l-144 -58c-21 -9 -33 -12 -42 -12s-15 7 -15 15c0 7 2 12 15 21z" />
    <glyph glyph-name="Lcommaaccent" unicode="&#x13b;" horiz-adv-x="528" 
d="M277 -41c38 0 62 -34 62 -86c0 -60 -49 -90 -106 -99c-6 6 -8 15 -8 24c49 11 75 35 75 53c0 20 -13 24 -31 26c-17 3 -42 12 -42 39c0 24 21 43 50 43zM149 0c-33.7002 0 -91 -1 -130 -2c-6 6 -6 27 0 33c70 3 87 8 87 91v401c0 83 -17 88 -87 91c-6 6 -6 27 0 33
c46 -1 92.9004 -2 129 -2c38.0996 0 85 1 130 2c6 -6 6 -27 0 -33c-70 -3 -87 -8 -87 -91v-414c0 -51 18 -70 57 -70h63c106 0 143 59 163 131c12.4004 1.7998 23.2002 -0.299805 33 -5c-6 -52 -16 -117 -26 -167c0 0 -92 2 -119.3 2h-212.7z" />
    <glyph glyph-name="lcommaaccent" unicode="&#x13c;" horiz-adv-x="264" 
d="M95 122v437c0 75 -6 78 -64 82c-6 6 -8 22 -6 30c40 3 115 17 140 27c9 0 13 -3 13 -10c0 0 -4 -40 -4 -105v-461c0 -83 11 -88 72 -91c6 -6 6 -27 0 -33c-33 1 -71 2 -111 2s-77 -1 -112 -2c-6 6 -6 27 0 33c61 3 72 8 72 91zM132 -41c38 0 62 -34 62 -86
c0 -60 -49 -90 -106 -99c-6 6 -8 15 -8 24c49 11 75 35 75 53c0 20 -13 24 -31 26c-17 3 -42 12 -42 39c0 24 21 43 50 43z" />
    <glyph glyph-name="Lcaron" unicode="&#x13d;" horiz-adv-x="528" 
d="M400 698c38 0 60 -37 60 -73s-32 -98 -102 -106l-5 17c42 9 63 46 63 69c0 13 -6 21 -14 21c-41 0 -46 22 -46 38s14 34 44 34zM149 0c-33.7002 0 -91 -1 -130 -2c-6 6 -6 27 0 33c70 3 87 8 87 91v401c0 83 -17 88 -87 91c-6 6 -6 27 0 33c46 -1 92.9004 -2 129 -2
c38.0996 0 85 1 130 2c6 -6 6 -27 0 -33c-70 -3 -87 -8 -87 -91v-414c0 -51 18 -70 57 -70h63c106 0 143 59 163 131c12.4004 1.7998 23.2002 -0.299805 33 -5c-6 -52 -16 -117 -26 -167c0 0 -92 2 -119.3 2h-212.7z" />
    <glyph glyph-name="lcaron" unicode="&#x13e;" horiz-adv-x="290" 
d="M265 698c38 0 60 -37 60 -73s-32 -98 -102 -106l-5 17c42 9 63 46 63 69c0 13 -6 21 -14 21c-41 0 -46 22 -46 38s14 34 44 34zM95 122v437c0 75 -6 78 -64 82c-6 6 -8 22 -6 30c40 3 115 17 140 27c9 0 13 -3 13 -10c0 0 -4 -40 -4 -105v-461c0 -83 11 -88 72 -91
c6 -6 6 -27 0 -33c-33 1 -71 2 -111 2s-77 -1 -112 -2c-6 6 -6 27 0 33c61 3 72 8 72 91z" />
    <glyph glyph-name="Ldot" unicode="&#x13f;" horiz-adv-x="528" 
d="M289 335c0 28 24 52 52 52s52 -24 52 -52s-24 -52 -52 -52s-52 24 -52 52zM149 0c-33.7002 0 -91 -1 -130 -2c-6 6 -6 27 0 33c70 3 87 8 87 91v401c0 83 -17 88 -87 91c-6 6 -6 27 0 33c46 -1 92.9004 -2 129 -2c38.0996 0 85 1 130 2c6 -6 6 -27 0 -33
c-70 -3 -87 -8 -87 -91v-414c0 -51 18 -70 57 -70h63c106 0 143 59 163 131c12.4004 1.7998 23.2002 -0.299805 33 -5c-6 -52 -16 -117 -26 -167c0 0 -92 2 -119.3 2h-212.7z" />
    <glyph glyph-name="ldot" unicode="&#x140;" horiz-adv-x="264" 
d="M213 360c0 25 21 49 48 49c23 0 47 -22 47 -49c0 -25 -20 -47 -47 -47c-30 0 -48 23 -48 47zM95 122v437c0 75 -6 78 -64 82c-6 6 -8 22 -6 30c40 3 115 17 140 27c9 0 13 -3 13 -10c0 0 -4 -40 -4 -105v-461c0 -83 11 -88 72 -91c6 -6 6 -27 0 -33c-33 1 -71 2 -111 2
s-77 -1 -112 -2c-6 6 -6 27 0 33c61 3 72 8 72 91z" />
    <glyph glyph-name="Lslash" unicode="&#x141;" horiz-adv-x="528" 
d="M310 449l18 -30l-137 -78.5996v-231.4c0 -51 18 -70 57 -70h63c106 0 143 59 163 131c12.4004 1.7998 23.2002 -0.299805 33 -5c-6 -52 -16 -117 -26 -167c0 0 -92 2 -119.3 2h-212.7c-33.7002 0 -91 -1 -130 -2c-6 6 -6 27 0 33c70 3 87 8 87 91v169.6l-83 -47.5996
l-18 31l101 57.5996v190.4c0 83 -17 88 -87 91c-6 6 -6 27 0 33c46 -1 92.9004 -2 129 -2c38.0996 0 85 1 130 2c6 -6 6 -27 0 -33c-70 -3 -87 -8 -87 -91v-141.9z" />
    <glyph glyph-name="lslash" unicode="&#x142;" horiz-adv-x="264" 
d="M243 438l17 -30l-86 -50.0996v-235.9c0 -83 11 -88 72 -91c6 -6 6 -27 0 -33c-33 1 -71 2 -111 2s-77 -1 -112 -2c-6 6 -6 27 0 33c61 3 72 8 72 91v189.9l-72 -41.9004l-17 29l89 52.2002v207.8c0 75 -6 78 -64 82c-6 6 -8 22 -6 30c40 3 115 17 140 27
c9 0 13 -3 13 -10c0 0 -4 -40 -4 -105v-185.5z" />
    <glyph glyph-name="Nacute" unicode="&#x143;" horiz-adv-x="699" 
d="M383 820c28.5996 -13.2998 49.2998 -30.7002 62 -52l-144 -58c-21 -9 -33 -12 -42 -12s-15 7 -15 15c0 7 2 12 15 21zM556 512c0 91 -17 95 -87 102c-6 6 -6 27 0 33c44 -1 89.7002 -2 111 -2c23.7002 0 71 1 112 2c6 -6 6 -27 0 -33c-70 -7 -87 -13 -87 -102v-491
c0 -19 -9 -31 -23 -31c-16 0 -29 9 -40 24l-349 441c-17 22 -28 33 -34 33c-8 0 -8 -15 -8 -49v-306c0 -91 17 -95 87 -102c6 -6 6 -27 0 -33c-42 1 -87.9004 2 -111 2c-23.5996 0 -69 -1 -112 -2c-6 6 -6 27 0 33c70 7 87 13 87 102v417c-6 26 -36 61 -79 64
c-6 6 -6 27 0 33l135 -2l343 -435c29 -37 44 -55 48 -55c7 0 7 11 7 30v327z" />
    <glyph glyph-name="nacute" unicode="&#x144;" horiz-adv-x="542" 
d="M314 671c3 1 9.00098 2 14.001 2c6.40039 0 32 -1 55 -23l3 -11l-115 -109c-15 -15 -23 -19 -30 -19s-14 6 -14 13c0 11.2002 3.2998 15.2002 11.3994 28zM184.001 358c59.2998 68 115.001 81 164.001 81c35 0 66 -12 83 -34c23 -31 27 -79 27 -134v-149
c0 -82 11 -86 67 -91c5 -6 5 -27 0 -33c-30 1 -66 2 -106 2s-72 -1 -102 -2c-5 6 -5 27 0 33c52 5 62 9 62 91v152c0 30 -2 57 -12 77c-12 23 -33 36 -53 36c-39 0 -84 -22 -122 -59c-8 -9 -17 -21 -17 -42v-164c0 -82 10 -86 61 -91c6 -6 6 -27 0 -33c-30 1 -60 2 -100 2
s-80 -1 -110 -2c-6 6 -6 27 0 33c60 5 70 9 70 91v195c0 58 -11 63 -65 68c-2 6 -4 22 -2 28c69 9 95 18 123 29c8 0 9.90039 -3.40039 12 -8c4.7002 -10.2998 7 -49 8 -76c0.299805 -9.40039 5.89941 -7 11.999 0z" />
    <glyph glyph-name="Ncommaaccent" unicode="&#x145;" horiz-adv-x="699" 
d="M358 -41c38 0 62 -34 62 -86c0 -60 -49 -90 -106 -99c-6 6 -8 15 -8 24c49 11 75 35 75 53c0 20 -13 24 -31 26c-17 3 -42 12 -42 39c0 24 21 43 50 43zM556 512c0 91 -17 95 -87 102c-6 6 -6 27 0 33c44 -1 89.7002 -2 111 -2c23.7002 0 71 1 112 2c6 -6 6 -27 0 -33
c-70 -7 -87 -13 -87 -102v-491c0 -19 -9 -31 -23 -31c-16 0 -29 9 -40 24l-349 441c-17 22 -28 33 -34 33c-8 0 -8 -15 -8 -49v-306c0 -91 17 -95 87 -102c6 -6 6 -27 0 -33c-42 1 -87.9004 2 -111 2c-23.5996 0 -69 -1 -112 -2c-6 6 -6 27 0 33c70 7 87 13 87 102v417
c-6 26 -36 61 -79 64c-6 6 -6 27 0 33l135 -2l343 -435c29 -37 44 -55 48 -55c7 0 7 11 7 30v327z" />
    <glyph glyph-name="ncommaaccent" unicode="&#x146;" horiz-adv-x="542" 
d="M261 -41c38 0 62 -34 62 -86c0 -60 -49 -90 -106 -99c-6 6 -8 15 -8 24c49 11 75 35 75 53c0 20 -13 24 -31 26c-17 3 -42 12 -42 39c0 24 21 43 50 43zM184 358c59.2998 68 115.001 81 164.001 81c35 0 66 -12 83 -34c23 -31 27 -79 27 -134v-149c0 -82 11 -86 67 -91
c5 -6 5 -27 0 -33c-30 1 -66 2 -106 2s-72 -1 -102 -2c-5 6 -5 27 0 33c52 5 62 9 62 91v152c0 30 -2 57 -12 77c-12 23 -33 36 -53 36c-39 0 -84 -22 -122 -59c-8 -9 -17 -21 -17 -42v-164c0 -82 10 -86 61 -91c6 -6 6 -27 0 -33c-30 1 -60 2 -100 2s-80 -1 -110 -2
c-6 6 -6 27 0 33c60 5 70 9 70 91v195c0 58 -11 63 -65 68c-2 6 -4 22 -2 28c69 9 95 18 123 29c8 0 9.90039 -3.40039 12 -8c4.7002 -10.2998 7 -49 8 -76c0.299805 -9.40039 5.89941 -7 11.999 0z" />
    <glyph glyph-name="Ncaron" unicode="&#x147;" horiz-adv-x="699" 
d="M331 697c-30 37 -65 67 -101 95l16 20c39 -17 73 -36 106 -61c37 26 69 45 107 61l15 -20c-38 -29 -70 -61 -100 -95h-43zM556 512c0 91 -17 95 -87 102c-6 6 -6 27 0 33c44 -1 89.7002 -2 111 -2c23.7002 0 71 1 112 2c6 -6 6 -27 0 -33c-70 -7 -87 -13 -87 -102v-491
c0 -19 -9 -31 -23 -31c-16 0 -29 9 -40 24l-349 441c-17 22 -28 33 -34 33c-8 0 -8 -15 -8 -49v-306c0 -91 17 -95 87 -102c6 -6 6 -27 0 -33c-42 1 -87.9004 2 -111 2c-23.5996 0 -69 -1 -112 -2c-6 6 -6 27 0 33c70 7 87 13 87 102v417c-6 26 -36 61 -79 64
c-6 6 -6 27 0 33l135 -2l343 -435c29 -37 44 -55 48 -55c7 0 7 11 7 30v327z" />
    <glyph glyph-name="ncaron" unicode="&#x148;" horiz-adv-x="542" 
d="M246 503c-29 47 -66 92 -101 130l20 13c39 -29 72 -54 106 -90c37 38 71 63 108 90l19 -13c-35 -39 -73 -84 -102 -130h-50zM184 358c59.2998 68 115.001 81 164.001 81c35 0 66 -12 83 -34c23 -31 27 -79 27 -134v-149c0 -82 11 -86 67 -91c5 -6 5 -27 0 -33
c-30 1 -66 2 -106 2s-72 -1 -102 -2c-5 6 -5 27 0 33c52 5 62 9 62 91v152c0 30 -2 57 -12 77c-12 23 -33 36 -53 36c-39 0 -84 -22 -122 -59c-8 -9 -17 -21 -17 -42v-164c0 -82 10 -86 61 -91c6 -6 6 -27 0 -33c-30 1 -60 2 -100 2s-80 -1 -110 -2c-6 6 -6 27 0 33
c60 5 70 9 70 91v195c0 58 -11 63 -65 68c-2 6 -4 22 -2 28c69 9 95 18 123 29c8 0 9.90039 -3.40039 12 -8c4.7002 -10.2998 7 -49 8 -76c0.299805 -9.40039 5.89941 -7 11.999 0z" />
    <glyph glyph-name="napostrophe" unicode="&#x149;" horiz-adv-x="542" 
d="M72 698c38 0 60 -37 60 -73s-32 -98 -102 -106l-5 17c42 9 63 46 63 69c0 13 -6 21 -14 21c-41 0 -46 22 -46 38s14 34 44 34zM197 358c59.2998 68 115.001 81 164.001 81c35 0 66 -12 83 -34c23 -31 27 -79 27 -134v-149c0 -82 11 -86 67 -91c5 -6 5 -27 0 -33
c-30 1 -66 2 -106 2s-72 -1 -102 -2c-5 6 -5 27 0 33c52 5 62 9 62 91v152c0 30 -2 57 -12 77c-12 23 -33 36 -53 36c-39 0 -84 -22 -122 -59c-8 -9 -17 -21 -17 -42v-164c0 -82 10 -86 61 -91c6 -6 6 -27 0 -33c-30 1 -60 2 -100 2s-80 -1 -110 -2c-6 6 -6 27 0 33
c60 5 70 9 70 91v195c0 58 -11 63 -65 68c-2 6 -4 22 -2 28c69 9 95 18 123 29c8 0 9.90039 -3.40039 12 -8c4.7002 -10.2998 7 -49 8 -76c0.299805 -9.40039 5.89941 -7 11.999 0z" />
    <glyph glyph-name="Eng" unicode="&#x14a;" horiz-adv-x="725" 
d="M182 647c9 0 13 -3 13 -10c0 0 -4 -40 -4 -105v-18.5c3 0 9 7.5 9 7.5c56 79 122 137 212 137c62 0 107 -20 142 -61c41.5996 -48.7002 64 -135 64 -268v-216c0 -143 -63.0996 -204.8 -107 -242c-41.0996 -34.7998 -72 -43 -117 -43c-22 0 -75 18 -75 54
c0 22 30 43 44 43c31 0 35 -21 45 -34c7 -10 21 -18 35 -18c33 0 85 28 85 208v258c0 101 -16.2002 176.8 -42 214c-27 39 -64 49 -110 49c-50 0 -114 -55 -167 -118c-7 -8.2998 -15.2998 -20.7002 -18 -37.5v-324.5c0 -83 17 -88 87 -91c6 -6 6 -27 0 -33
c-50 1 -79 2 -129 2c-51 0 -81 -1 -130 -2c-6 6 -6 27 0 33c70 3 87 8 87 91v401c0 83 -17 88 -87 91c-6 6 -6 27 0 33c50 -1 79 -2 129 -2c13 0 25 1 34 2z" />
    <glyph glyph-name="eng" unicode="&#x14b;" horiz-adv-x="528" 
d="M175 358c0 -14 6 -4 9 0c61 68 115 81 164 81c35 0 66 -12 83 -34c23 -31 27 -79 27 -134v-161c0 -189 -28 -261 -75 -299c-37 -31 -89 -34 -110 -34c-19 0 -55 14 -55 43c0 18 21 38 32 38c22 0 34 -16 44 -26c7 -7 20 -11 31 -11c50 0 54 123 54 255v198
c0 30 -2 57 -12 77c-12 23 -33 36 -53 36c-39 0 -84 -22 -122 -59c-8 -9 -17 -21 -17 -42v-164c0 -82 9 -86 60 -91c6 -6 6 -27 0 -33c-42 1 -60 2 -99 2c-43 0 -69 -1 -110 -2c-6 6 -6 27 0 33c60 5 70 9 70 91v195c0 58 -11 63 -65 68c-2 6 -4 22 -2 28c69 9 98 18 126 29
c8 0 9.90039 -3.40039 12 -8c4.7002 -10.2998 8 -36 8 -76z" />
    <glyph glyph-name="Omacron" unicode="&#x14c;" horiz-adv-x="702" 
d="M458 745h-224c-9 0 -13 11 -13 18c0 12 11 32 22 32h225c10 0 14 -11 14 -17c0 -12 -11 -33 -24 -33zM331 622c-99 0 -198 -85 -198 -295c0 -192 115 -301 237 -301c114 0 200 105 200 284c0 202 -107 312 -239 312zM666 329c0 -84 -22 -156.3 -61.7998 -213
c-54.9004 -78.2998 -143.4 -126 -254.2 -126c-170 0 -313 123 -313 320c0 193.9 113.3 348 307 348c179 0 322 -122 322 -329z" />
    <glyph glyph-name="omacron" unicode="&#x14d;" horiz-adv-x="504" 
d="M360 518h-224c-9 0 -13 11 -13 18c0 12 11 32 22 32h225c10 0 14 -11 14 -17c0 -12 -11 -33 -24 -33zM41 205c0 63.2002 19.001 121.4 55.3008 164c36.5996 43 90.8994 70 156.699 70c153 0 210 -121 210 -225c0 -61.2998 -20.2998 -124.2 -65.0996 -168
c-34.0996 -33.2998 -82.5 -56 -146.9 -56c-142 0 -210 113 -210 215zM238.001 404c-90 0 -111 -89 -111 -176c0 -77 34 -203 138 -203c47 0 112 31 112 157c0 144 -53 222 -139 222z" />
    <glyph glyph-name="Obreve" unicode="&#x14e;" horiz-adv-x="702" 
d="M490 805c-6 -71 -70 -113 -136 -113c-73 0 -131 43 -136 113h28c8 -39 55 -61 108 -61c49 0 101 22 108 61h28zM331 622c-99 0 -198 -85 -198 -295c0 -192 115 -301 237 -301c114 0 200 105 200 284c0 202 -107 312 -239 312zM666 329c0 -84 -22 -156.3 -61.7998 -213
c-54.9004 -78.2998 -143.4 -126 -254.2 -126c-170 0 -313 123 -313 320c0 193.9 113.3 348 307 348c179 0 322 -122 322 -329z" />
    <glyph glyph-name="obreve" unicode="&#x14f;" horiz-adv-x="504" 
d="M131 645c11 -53 54 -90 108 -90c52 0 98 32 108 90l27 -12c-12 -86 -76 -135 -135 -135c-70 0 -121 50 -135 135zM41 205c0 63.2002 19.001 121.4 55.3008 164c36.5996 43 90.8994 70 156.699 70c153 0 210 -121 210 -225c0 -61.2998 -20.2998 -124.2 -65.0996 -168
c-34.0996 -33.2998 -82.5 -56 -146.9 -56c-142 0 -210 113 -210 215zM238.001 404c-90 0 -111 -89 -111 -176c0 -77 34 -203 138 -203c47 0 112 31 112 157c0 144 -53 222 -139 222z" />
    <glyph glyph-name="Ohungarumlaut" unicode="&#x150;" horiz-adv-x="702" 
d="M503 792c0 -9 -3 -16 -7 -20l-99 -84c-2 -2 -5 -3 -8 -3c-5 0 -13 5 -13 13c0 3 1.2002 6.40039 3.7002 11l59.2998 109c5 8 12 12 23 12c29 0 41 -21.7998 41 -38zM372 797c0 -8 -2 -15 -7 -19l-88 -80.5c-4.40039 -4 -8.40039 -7.5 -14 -7.5c-7 0 -13 5 -13 12
c0 2 0.599609 7.2002 2.5 11l54.5 110c5 8 12 12 27 12c15.7002 0 38 -14.7002 38 -38zM331 622c-99 0 -198 -85 -198 -295c0 -192 115 -301 237 -301c114 0 200 105 200 284c0 202 -107 312 -239 312zM666 329c0 -84 -22 -156.3 -61.7998 -213
c-54.9004 -78.2998 -143.4 -126 -254.2 -126c-170 0 -313 123 -313 320c0 193.9 113.3 348 307 348c179 0 322 -122 322 -329z" />
    <glyph glyph-name="ohungarumlaut" unicode="&#x151;" horiz-adv-x="504" 
d="M397 611c0 -6 -1 -13 -7 -19l-114 -110c-2 -2 -4 -2 -6 -2c-5 0 -14 5 -14 13c0 1 0 3 1 4l78 139c5 9 12 12 24 12c21 0 38 -18.4004 38 -37zM265 617c0 -5 -1 -11 -5 -16l-102 -121c-2 -2 -5 -3 -8 -3c-6 0 -14 5 -14 13c0 1 0 2 1 3l64 146c6 13 22 14 26 14
c20.9004 0 38 -15.5 38 -36zM41 205c0 63.2002 19.001 121.4 55.3008 164c36.5996 43 90.8994 70 156.699 70c153 0 210 -121 210 -225c0 -61.2998 -20.2998 -124.2 -65.0996 -168c-34.0996 -33.2998 -82.5 -56 -146.9 -56c-142 0 -210 113 -210 215zM238.001 404
c-90 0 -111 -89 -111 -176c0 -77 34 -203 138 -203c47 0 112 31 112 157c0 144 -53 222 -139 222z" />
    <glyph glyph-name="OE" unicode="&#x152;" horiz-adv-x="869" 
d="M356 32h13c40 0 49 12 49 40v502c0 31 -11 37 -49 37h-35c-97 0 -198 -70 -198 -284c0 -207 117 -295 220 -295zM358 -2c-188 1 -316 140 -316 320s119 328 305 328c0 0 70 -1 114 -1h78h257l14 -139l-27 -3c-7 43 -41 102 -93 102h-151c-24 0 -36 -8 -36 -32v-207h103
c36 0 44 16 51 44l7 30c0 4 3 8 7 8h22c2 0 3 -2 3 -4c-2 -32 -8 -62 -8 -95c0 -35 5 -64 8 -96l-2 -3h-23c-5 0 -8 3 -8 7l-6 31c-6 28 -17 44 -51 44h-103v-260c0 -27 14 -33 36 -33h155c65 0 94 53 109 126l27 -5l-26 -160h-344c-40 0 -102 -2 -102 -2z" />
    <glyph glyph-name="oe" unicode="&#x153;" horiz-adv-x="778" 
d="M409 349c34 50 93 90 161 90c118 0 171 -74 171 -191h-290c-1 -9 -1 -20 -1 -30c0 -134 93 -181 132 -181c38 0 99 17 130 50c10.5 -0.599609 16.7998 -7 22 -15c-22 -30 -68 -82 -163 -82c-92 0 -140 42 -168 89c-36 -54 -86 -89 -164 -89c-122 0 -205 93 -205 216
c0 156 98 233 209 233c101 0 138 -43 166 -90zM120 237c0 -111 40 -212 133 -212c47 0 114 34 114 175c0 154 -81 206 -125 206c-103 0 -122 -100 -122 -169zM655 287c-1 41 -11 118 -87 118c-86 0 -112 -102 -114 -118h201z" />
    <glyph glyph-name="Racute" unicode="&#x154;" horiz-adv-x="587" 
d="M312 820c28.5996 -13.2998 49.2998 -30.7002 62 -52l-144 -58c-21 -9 -33 -12 -42 -12s-15 7 -15 15c0 7 2 12 15 21zM272 618c-71 0 -83 -35 -83 -64v-229h48c97 0 168 28 168 153c0 118 -72 140 -133 140zM189 122c0 -83 17 -88 87 -91c6 -6 6 -27 0 -33
c-44 1 -91.4004 2 -129 2c-38.5 0 -85 -1 -130 -2c-6 6 -6 27 0 33c70 3 87 8 87 91v401c0 83 -17 88 -87 91c-6 6 -6 27 0 33c47 -1 94 -2 129 -2c36 0 78 7 125 7c63 0 125 -3 173 -48c36 -34 53 -75 53 -125c0 -105 -90 -157 -133 -171l126 -210
c26 -43.4004 51 -77 96 -77c4 -8 4.5 -17.0996 1 -24c-10 -5 -27 -7 -42 -7c-60 0 -103.3 42.4004 -132 89l-107 174c-14.2998 23.2998 -33 38 -117 38v-169z" />
    <glyph glyph-name="racute" unicode="&#x155;" horiz-adv-x="372" 
d="M241 671c3 1 9.00098 2 14.001 2c6.40039 0 32 -1 55 -23l3 -11l-115 -109c-15 -15 -23 -19 -30 -19s-14 6 -14 13c0 11.2002 3.2998 15.2002 11.3994 28zM176.001 358c0.200195 -5 5 -13 11 -2c23 39 64 83 111 83c42 0 60 -28.9004 60 -48c0 -25 -23 -50 -47 -50
c-17.4004 0 -28.6006 13.2998 -36.2002 23.2998c-7.7998 10.2998 -16.7998 12.7002 -25.7998 12.7002c-12 0 -35 -33 -46 -49c-12 -18 -24 -41 -24 -67v-139c0 -83 12 -86 82 -91c6 -6 6 -27 0 -33c-35 1 -81 2 -121 2s-79 -1 -114 -2c-6 6 -6 27 0 33c62 4 74 8 74 91v195
c0 58 -11 63 -65 68c-2 6 -4 22 -2 28c69 9 95 18 123 29c8 0 9.90039 -3.40039 12 -8c4.7002 -10.2998 6.2998 -36 8 -76z" />
    <glyph glyph-name="Rcommaaccent" unicode="&#x156;" horiz-adv-x="587" 
d="M310 -41c38 0 62 -34 62 -86c0 -60 -49 -90 -106 -99c-6 6 -8 15 -8 24c49 11 75 35 75 53c0 20 -13 24 -31 26c-17 3 -42 12 -42 39c0 24 21 43 50 43zM272 618c-71 0 -83 -35 -83 -64v-229h48c97 0 168 28 168 153c0 118 -72 140 -133 140zM189 122
c0 -83 17 -88 87 -91c6 -6 6 -27 0 -33c-44 1 -91.4004 2 -129 2c-38.5 0 -85 -1 -130 -2c-6 6 -6 27 0 33c70 3 87 8 87 91v401c0 83 -17 88 -87 91c-6 6 -6 27 0 33c47 -1 94 -2 129 -2c36 0 78 7 125 7c63 0 125 -3 173 -48c36 -34 53 -75 53 -125
c0 -105 -90 -157 -133 -171l126 -210c26 -43.4004 51 -77 96 -77c4 -8 4.5 -17.0996 1 -24c-10 -5 -27 -7 -42 -7c-60 0 -103.3 42.4004 -132 89l-107 174c-14.2998 23.2998 -33 38 -117 38v-169z" />
    <glyph glyph-name="rcommaaccent" unicode="&#x157;" horiz-adv-x="372" 
d="M137 -41c38 0 62 -34 62 -86c0 -60 -49 -90 -106 -99c-6 6 -8 15 -8 24c49 11 75 35 75 53c0 20 -13 24 -31 26c-17 3 -42 12 -42 39c0 24 21 43 50 43zM176 358c0.200195 -5 5 -13 11 -2c23 39 64 83 111 83c42 0 60 -28.9004 60 -48c0 -25 -23 -50 -47 -50
c-17.4004 0 -28.6006 13.2998 -36.2002 23.2998c-7.7998 10.2998 -16.7998 12.7002 -25.7998 12.7002c-12 0 -35 -33 -46 -49c-12 -18 -24 -41 -24 -67v-139c0 -83 12 -86 82 -91c6 -6 6 -27 0 -33c-35 1 -81 2 -121 2s-79 -1 -114 -2c-6 6 -6 27 0 33c62 4 74 8 74 91v195
c0 58 -11 63 -65 68c-2 6 -4 22 -2 28c69 9 95 18 123 29c8 0 9.90039 -3.40039 12 -8c4.7002 -10.2998 6.2998 -36 8 -76z" />
    <glyph glyph-name="Rcaron" unicode="&#x158;" horiz-adv-x="587" 
d="M244 697c-30 37 -65 67 -101 95l16 20c39 -17 73 -36 106 -61c37 26 69 45 107 61l15 -20c-38 -29 -70 -61 -100 -95h-43zM272 618c-71 0 -83 -35 -83 -64v-229h48c97 0 168 28 168 153c0 118 -72 140 -133 140zM189 122c0 -83 17 -88 87 -91c6 -6 6 -27 0 -33
c-44 1 -91.4004 2 -129 2c-38.5 0 -85 -1 -130 -2c-6 6 -6 27 0 33c70 3 87 8 87 91v401c0 83 -17 88 -87 91c-6 6 -6 27 0 33c47 -1 94 -2 129 -2c36 0 78 7 125 7c63 0 125 -3 173 -48c36 -34 53 -75 53 -125c0 -105 -90 -157 -133 -171l126 -210
c26 -43.4004 51 -77 96 -77c4 -8 4.5 -17.0996 1 -24c-10 -5 -27 -7 -42 -7c-60 0 -103.3 42.4004 -132 89l-107 174c-14.2998 23.2998 -33 38 -117 38v-169z" />
    <glyph glyph-name="rcaron" unicode="&#x159;" horiz-adv-x="372" 
d="M175 503c-29 47 -66 92 -101 130l20 13c39 -29 72 -54 106 -90c37 38 71 63 108 90l19 -13c-35 -39 -73 -84 -102 -130h-50zM176 358c0.200195 -5 5 -13 11 -2c23 39 64 83 111 83c42 0 60 -28.9004 60 -48c0 -25 -23 -50 -47 -50
c-17.4004 0 -28.6006 13.2998 -36.2002 23.2998c-7.7998 10.2998 -16.7998 12.7002 -25.7998 12.7002c-12 0 -35 -33 -46 -49c-12 -18 -24 -41 -24 -67v-139c0 -83 12 -86 82 -91c6 -6 6 -27 0 -33c-35 1 -81 2 -121 2s-79 -1 -114 -2c-6 6 -6 27 0 33c62 4 74 8 74 91v195
c0 58 -11 63 -65 68c-2 6 -4 22 -2 28c69 9 95 18 123 29c8 0 9.90039 -3.40039 12 -8c4.7002 -10.2998 6.2998 -36 8 -76z" />
    <glyph glyph-name="Sacute" unicode="&#x15a;" horiz-adv-x="485" 
d="M282 820c28.5996 -13.2998 49.2998 -30.7002 62 -52l-144 -58c-21 -9 -33 -12 -42 -12s-15 7 -15 15c0 7 2 12 15 21zM394.7 631c10.2998 -53 14.2998 -81 17.7998 -129c-9 -7 -22 -7.7998 -32.5 -6c-20 66 -51 128 -148.1 128c-58.9004 0 -109.5 -56 -109.5 -112
c0 -84.0996 99.9004 -121.899 159.101 -144.1c82.4004 -30.9004 162.5 -77.5 162.5 -183.9c0 -63.5996 -36.5 -125.199 -94 -161.199c-34.7998 -21.7002 -77.7998 -32.7998 -123.3 -32.7998c-88.7002 0 -116.7 23 -179.7 23c-12 49 -16 75 -20 152
c9.59961 5.09961 20.1992 7 32.499 3c22 -99.5 82 -142 175.5 -142c79.7998 0 125 42 125 123c0 97.7998 -73.7002 125.899 -134.5 148.999c-88 33.5 -174.5 81.5996 -174.5 187c0 106 89 173 190.3 173c97.7002 0 95.6006 -19 153.4 -27z" />
    <glyph glyph-name="sacute" unicode="&#x15b;" horiz-adv-x="390" 
d="M48 138c6 6 25 7 31 1c6 -25 17 -69 39 -92c10.2998 -10.7002 32 -24 71 -24c37 0 85 21 85 70c0 43 -19 64 -102 98c-77 32 -110 63 -110 136c0 64 67 112 141 112c52 0 100 -14 131 -19c-1 -33 -3 -70 -6 -106c-6 -6 -26 -7 -32 -1c-13 85 -71 93 -93 93
c-34 0 -70 -23 -70 -64c0 -55 39.7998 -70.5 100 -92.7998c68 -25.2002 117 -64.9004 117 -133.2c0 -99 -103 -126 -159 -126c-37 0 -64 4 -91 11c-7 2 -13 2 -20 2c-5 0 -15 -1 -25 -3c0 42 -3 89 -7 138zM227 671c3 1 9.00098 2 14.001 2c6.40039 0 32 -1 55 -23l3 -11
l-115 -109c-15 -15 -23 -19 -30 -19s-14 6 -14 13c0 11.2002 3.2998 15.2002 11.3994 28z" />
    <glyph glyph-name="Scircumflex" unicode="&#x15c;" horiz-adv-x="485" 
d="M248 815c30 -36 66.999 -70.001 102.999 -97.001c-2.7998 -9.09961 -6.89941 -17.1992 -15.999 -20.999c-39 18 -73 36 -106 61c-37 -27 -69 -44 -107 -61c-9 6 -12 12 -14 21c37 28 70 63 101 97c14 8.40039 23.5996 7.7002 39 0zM394.699 630.999
c10.2998 -53 14.2998 -81 17.7998 -129c-9 -7 -22 -7.7998 -32.5 -6c-20 66 -51 128 -148.1 128c-58.9004 0 -109.5 -56 -109.5 -112c0 -84.0996 99.9004 -121.899 159.101 -144.1c82.4004 -30.9004 162.5 -77.5 162.5 -183.9c0 -63.5996 -36.5 -125.199 -94 -161.199
c-34.7998 -21.7002 -77.7998 -32.7998 -123.3 -32.7998c-88.7002 0 -116.7 23 -179.7 23c-12 49 -16 75 -20 152c9.59961 5.09961 20.1992 7 32.499 3c22 -99.5 82 -142 175.5 -142c79.7998 0 125 42 125 123c0 97.7998 -73.7002 125.899 -134.5 148.999
c-88 33.5 -174.5 81.5996 -174.5 187c0 106 89 173 190.3 173c97.7002 0 95.6006 -19 153.4 -27z" />
    <glyph glyph-name="scircumflex" unicode="&#x15d;" horiz-adv-x="390" 
d="M48 138c6 6 25 7 31 1c6 -25 17 -69 39 -92c10.2998 -10.7002 32 -24 71 -24c37 0 85 21 85 70c0 43 -19 64 -102 98c-77 32 -110 63 -110 136c0 64 67 112 141 112c52 0 100 -14 131 -19c-1 -33 -3 -70 -6 -106c-6 -6 -26 -7 -32 -1c-13 85 -71 93 -93 93
c-34 0 -70 -23 -70 -64c0 -55 39.7998 -70.5 100 -92.7998c68 -25.2002 117 -64.9004 117 -133.2c0 -99 -103 -126 -159 -126c-37 0 -64 4 -91 11c-7 2 -13 2 -20 2c-5 0 -15 -1 -25 -3c0 42 -3 89 -7 138zM211 660c29 -47 73 -100 109 -140
c-5 -7 -13.5996 -15.0996 -23 -17c-38 24 -73 52 -103 83c-32 -32 -65 -61 -104 -83c-9 2 -16 8 -22 17c36 40 82 94 111 140c10.7002 2.2998 21.2998 3 32 0z" />
    <glyph glyph-name="Scedilla" unicode="&#x15e;" horiz-adv-x="485" 
d="M220 -96c-19 0 -29 -0.999023 -45 -5.99902l-6 6l36 86.5c-72.2002 3.2998 -100.4 22.5 -158 22.5c-12 49 -16 75 -20 152c9.59961 5.09961 20.1992 7 32.499 3c22 -99.5 82 -142 175.5 -142c79.7998 0 125 42 125 123c0 97.7998 -73.7002 125.899 -134.5 148.999
c-88 33.5 -174.5 81.5996 -174.5 187c0 106 89 173 190.3 173c97.7002 0 95.6006 -19 153.4 -27c10.2998 -53 14.2998 -81 17.7998 -129c-9 -7 -22 -7.7998 -32.5 -6c-20 66 -51 128 -148.1 128c-58.9004 0 -109.5 -56 -109.5 -112
c0 -84.0996 99.9004 -121.899 159.101 -144.1c82.4004 -30.9004 162.5 -77.5 162.5 -183.9c0 -63.5996 -36.5 -125.199 -94 -161.199c-31.5 -19.7002 -69.7998 -30.6006 -110.6 -32.501l-21.4004 -57.2998c8 2 17 3 26 3c40 0 71 -24 71 -62c0 -43 -46 -74 -107 -74
c-32 0 -49 6 -74 17c0 12 3 19 10 26c27 -10 38 -14 58 -14c30 0 51 14 51 40c0 21 -10 35 -33 35z" />
    <glyph glyph-name="scedilla" unicode="&#x15f;" horiz-adv-x="390" 
d="M48 138c6 6 25 7 31 1c6 -25 17 -69 39 -92c10.2998 -10.7002 32 -24 71 -24c37 0 85 21 85 70c0 43 -19 64 -102 98c-77 32 -110 63 -110 136c0 64 67 112 141 112c52 0 100 -14 131 -19c-1 -33 -3 -70 -6 -106c-6 -6 -26 -7 -32 -1c-13 85 -71 93 -93 93
c-34 0 -70 -23 -70 -64c0 -55 39.7998 -70.5 100 -92.7998c68 -25.2002 117 -64.9004 117 -133.2c0 -92.0996 -89.0996 -121.899 -146.6 -125.6l-21.4004 -57.4004c8 2 17 3 26 3c40 0 71 -24 71 -62c0 -43 -46 -74 -107 -74c-32 0 -49 6 -74 17c0 12 3 19 10 26
c27 -10 38 -14 58 -14c30 0 51 14 51 40c0 21 -10 35 -33 35c-19 0 -29 -1 -45 -6l-6 6l36 86.5c-26.2998 1.2998 -47.5996 5 -69 10.5c-7 2 -13 2 -20 2c-5 0 -15 -1 -25 -3c0 42 -3 89 -7 138z" />
    <glyph glyph-name="Scaron" unicode="&#x160;" horiz-adv-x="485" 
d="M215 697c-30 37 -65 67 -101 95l16 20c39 -17 73 -36 106 -61c37 26 69 45 107 61l15 -20c-38 -29 -70 -61 -100 -95h-43zM394.7 631c10.2998 -53 14.2998 -81 17.7998 -129c-9 -7 -22 -7.7998 -32.5 -6c-20 66 -51 128 -148.1 128c-58.9004 0 -109.5 -56 -109.5 -112
c0 -84.0996 99.9004 -121.899 159.101 -144.1c82.4004 -30.9004 162.5 -77.5 162.5 -183.9c0 -63.5996 -36.5 -125.199 -94 -161.199c-34.7998 -21.7002 -77.7998 -32.7998 -123.3 -32.7998c-88.7002 0 -116.7 23 -179.7 23c-12 49 -16 75 -20 152
c9.59961 5.09961 20.1992 7 32.499 3c22 -99.5 82 -142 175.5 -142c79.7998 0 125 42 125 123c0 97.7998 -73.7002 125.899 -134.5 148.999c-88 33.5 -174.5 81.5996 -174.5 187c0 106 89 173 190.3 173c97.7002 0 95.6006 -19 153.4 -27z" />
    <glyph glyph-name="scaron" unicode="&#x161;" horiz-adv-x="390" 
d="M48 138c6 6 25 7 31 1c6 -25 17 -69 39 -92c10.2998 -10.7002 32 -24 71 -24c37 0 85 21 85 70c0 43 -19 64 -102 98c-77 32 -110 63 -110 136c0 64 67 112 141 112c52 0 100 -14 131 -19c-1 -33 -3 -70 -6 -106c-6 -6 -26 -7 -32 -1c-13 85 -71 93 -93 93
c-34 0 -70 -23 -70 -64c0 -55 39.7998 -70.5 100 -92.7998c68 -25.2002 117 -64.9004 117 -133.2c0 -99 -103 -126 -159 -126c-37 0 -64 4 -91 11c-7 2 -13 2 -20 2c-5 0 -15 -1 -25 -3c0 42 -3 89 -7 138zM169 502c-29 47 -66 92 -101 130l20 13c39 -29 72 -54 106 -90
c37 38 71 63 108 90l19 -13c-35 -39 -73 -84 -102 -130h-50z" />
    <glyph glyph-name="Tcedilla" unicode="&#x162;" horiz-adv-x="597" 
d="M309 -96c-19 0 -29 -0.999023 -45 -5.99902l-6 6l40 96c-38.4004 -0.0996094 -85 -1.09961 -130 -2c-6 6 -6 27 0 33c80 3 97 8 97 91v385c0 61 -10 99 -47 99h-49c-66 0 -112 -26 -132 -106c-12 0 -24 1 -34 5c11 48 21 100 25 145c0 1 2 3 4 3c38 -3 156 -8 233 -8h86
c79 0 190 5 224 8c1 0 3 -2 3 -3c1 -45 6 -96 13 -142c-9 -4 -23 -5 -34 -5c-17 77 -64 103 -139 103h-22c-36 0 -46 -38 -46 -102v-382c0 -83 17 -88 97 -91c6 -6 6 -27 0 -33c-40.2002 0.799805 -80.7002 1.59961 -115 1.89941l-25 -66.9004c8 2 17 3 26 3
c40 0 71 -24 71 -62c0 -43 -46 -74 -107 -74c-32 0 -49 6 -74 17c0 12 3 19 10 26c27 -10 38 -14 58 -14c30 0 51 14 51 40c0 21 -10 35 -33 35z" />
    <glyph glyph-name="tcedilla" unicode="&#x163;" horiz-adv-x="316" 
d="M168 -96c-19 0 -28.999 -1.00098 -44.999 -6.00098l-6 6l36.2002 86.7998c-38.7998 5 -64.2002 34 -64.2002 98.2002v301h-59c-4 0 -5 1 -5 6v13c0 8 4 20 18 20l46 0.0996094c0 110.9 -3 104.301 -3 115.9c0 6.90039 10 10.3008 22 13.7012
c12.5 3.5 22.7002 7.7998 34 14.0996c9.2998 5.09961 17.7998 9 22.2998 9c4.7002 0 7.7002 -2.40039 7.7002 -8.80078c0 0 -4 -40 -4 -105v-39h120c5 0 8 -2 8 -6v-20c0 -9 -14 -13 -24 -13h-104v-253c0 -62 6 -92 33 -92c26 0 56 8 82 28c10 -1 16 -6.7002 18 -17
c-32.9004 -37.0996 -73.6006 -58.5996 -113.101 -64.3994l-21.9004 -58.5996c8 2 17 3 26 3c40 0 71 -24 71 -62c0 -43 -46 -74 -107 -74c-32 0 -49 6 -74 17c0 12 3 19 10 26c27 -10 38 -14 58 -14c30 0 51 14 51 40c0 21 -10 35 -33 35z" />
    <glyph glyph-name="Tcaron" unicode="&#x164;" horiz-adv-x="597" 
d="M277 697c-30 37 -65 67 -101 95l16 20c39 -17 73 -36 106 -61c37 26 69 45 107 61l15 -20c-38 -29 -70 -61 -100 -95h-43zM350 122c0 -83 17 -88 97 -91c6 -6 6 -27 0 -33c-50 1 -100.6 2 -139 2c-40.0996 0 -91 -1 -140 -2c-6 6 -6 27 0 33c80 3 97 8 97 91v385
c0 61 -10 99 -47 99h-49c-66 0 -112 -26 -132 -106c-12 0 -24 1 -34 5c11 48 21 100 25 145c0 1 2 3 4 3c38 -3 156 -8 233 -8h86c79 0 190 5 224 8c1 0 3 -2 3 -3c1 -45 6 -96 13 -142c-9 -4 -23 -5 -34 -5c-17 77 -64 103 -139 103h-22c-36 0 -46 -38 -46 -102v-382z" />
    <glyph glyph-name="tcaron" unicode="&#x165;" horiz-adv-x="374" 
d="M266 698c38 0 60 -37 60 -73s-32 -98 -102 -106l-5 17c42 9 63 46 63 69c0 13 -6 21 -14 21c-41 0 -46 22 -46 38s14 34 44 34zM43 429l46 0.0996094c0 110.9 -3 104.301 -3 115.9c0 6.90039 10 10.3008 22 13.7012c12.5 3.5 22.7002 7.7998 34 14.0996
c9.2998 5.09961 17.7998 9 22.2998 9c4.7002 0 7.7002 -2.40039 7.7002 -8.80078c0 0 -4 -40 -4 -105v-39h120c5 0 8 -2 8 -6v-20c0 -9 -14 -13 -24 -13h-104v-253c0 -62 6 -92 33 -92c26 0 56 8 82 28c10 -1 16 -6.7002 18 -17c-39 -44 -89 -66 -135 -66s-77 28 -77 99v301
h-59c-4 0 -5 1 -5 6v13c0 8 4 20 18 20z" />
    <glyph glyph-name="Tbar" unicode="&#x166;" horiz-adv-x="597" 
d="M350 122c0 -83 17 -88 97 -91c6 -6 6 -27 0 -33c-50 1 -100.6 2 -139 2c-40.0996 0 -91 -1 -140 -2c-6 6 -6 27 0 33c80 3 97 8 97 91v199h-124c-8 0 -11 8 -11 14c0 10 10 25 19 25h116v147c0 61 -10 99 -47 99h-49c-66 0 -112 -26 -132 -106c-12 0 -24 1 -34 5
c11 48 21 100 25 145c0 1 2 3 4 3c38 -3 156 -8 233 -8h86c79 0 190 5 224 8c1 0 3 -2 3 -3c1 -45 6 -96 13 -142c-9 -4 -23 -5 -34 -5c-17 77 -64 103 -139 103h-22c-36 0 -46 -38 -46 -102v-144h136c9 0 12 -8 12 -13c0 -11 -9 -26 -21 -26h-127v-199z" />
    <glyph glyph-name="tbar" unicode="&#x167;" horiz-adv-x="316" 
d="M43 429l46 0.0996094c0 110.9 -3 104.301 -3 115.9c0 6.90039 10 10.3008 22 13.7012c12.5 3.5 22.7002 7.7998 34 14.0996c9.2998 5.09961 17.7998 9 22.2998 9c4.7002 0 7.7002 -2.40039 7.7002 -8.80078c0 0 -4 -40 -4 -105v-39h120c5 0 8 -2 8 -6v-20
c0 -9 -14 -13 -24 -13h-104v-106h100c9 0 12 -8 12 -13c0 -11 -9 -26 -21 -26h-91v-108c0 -62 6 -92 33 -92c26 0 56 8 82 28c10 -1 16 -6.7002 18 -17c-39 -44 -89 -66 -135 -66s-77 28 -77 99v156h-59c-8 0 -11 8 -11 14c0 10 10 25 19 25h51v106h-59c-4 0 -5 1 -5 6v13
c0 8 4 20 18 20z" />
    <glyph glyph-name="Utilde" unicode="&#x168;" horiz-adv-x="661" 
d="M413 745c22 0 33 10 47 52c11 1 21 -2 27 -6c-12 -60 -41 -99 -87 -99c-22 0 -43 18 -64 32c-18 11 -37 19 -54 19c-26 0 -36 -15 -46 -48c-11 -2 -21 -1 -27 5c14 59 37 98 80 98c30 0 52 -20 72 -34c16 -12 33 -19 52 -19zM172 523v-257c0 -65 2 -141 51 -188
c30.0996 -28.9004 71 -47 119 -47c169 0 184 134 184 246v246c0 81 -17 84 -92 91c-6 6 -6 27 0 33c46 -1 94.5 -2 116 -2c23.2002 0 64 1 102 2c6 -6 6 -27 0 -33c-60 -7 -77 -10.7002 -77 -91v-228c0 -178 -49 -305 -254 -305c-102.5 0 -234 39 -234 243v290
c0 83 -17 88 -77 91c-6 6 -6 27 0 33c39 -1 80 -2 119 -2c39.4004 0 88 1 135 2c6 -6 6 -27 0 -33c-77 -3 -92 -8 -92 -91z" />
    <glyph glyph-name="utilde" unicode="&#x169;" horiz-adv-x="531" 
d="M324 573c22 0 33 10 47 52c11 1 21 -2 27 -6c-12 -60 -41 -99 -87 -99c-22 0 -43 18 -64 32c-18 11 -37 19 -54 19c-26 0 -36 -15 -46 -48c-11 -2 -21 -1 -27 5c14 59 37 98 80 98c30 0 52 -20 72 -34c16 -12 33 -19 52 -19zM217 -10c-99 0 -129 67 -129 136v192
c0 65 -14 76 -62 80c-6 6 -6 27 0 33c34 -1 70 -2 102 -2c15 0 30 1 35 2c5 0 8 -3 8 -6c0 0 -4 -73 -4 -103v-182c0 -89 50 -103 80 -103c25 0 63 16 100 48c14 12 16 20 16 39v193c0 66 -13 78 -62 81c-6 6 -6 27 0 33c34 -1 70 -2 102 -2c15 0 30 1 35 2c5 0 8 -3 8 -6
c0 0 -4 -73 -4 -103v-192c0 -49 9 -68 73 -73c6 -6 6 -21 0 -27c-61 -7 -96 -22 -118 -40c-6.5 -2.5 -11 -3 -19 0c0 0 -8.5 33.5 -11 59c-0.700195 7 -10 5 -15 1c-49 -40 -96 -60 -135 -60z" />
    <glyph glyph-name="Umacron" unicode="&#x16a;" horiz-adv-x="661" 
d="M453 744h-224c-9 0 -13 11 -13 18c0 12 11 32 22 32h225c10 0 14 -11 14 -17c0 -12 -11 -33 -24 -33zM172 523v-257c0 -65 2 -141 51 -188c30.0996 -28.9004 71 -47 119 -47c169 0 184 134 184 246v246c0 81 -17 84 -92 91c-6 6 -6 27 0 33c46 -1 94.5 -2 116 -2
c23.2002 0 64 1 102 2c6 -6 6 -27 0 -33c-60 -7 -77 -10.7002 -77 -91v-228c0 -178 -49 -305 -254 -305c-102.5 0 -234 39 -234 243v290c0 83 -17 88 -77 91c-6 6 -6 27 0 33c39 -1 80 -2 119 -2c39.4004 0 88 1 135 2c6 -6 6 -27 0 -33c-77 -3 -92 -8 -92 -91z" />
    <glyph glyph-name="umacron" unicode="&#x16b;" horiz-adv-x="531" 
d="M363 518h-224c-9 0 -13 11 -13 18c0 12 11 32 22 32h225c10 0 14 -11 14 -17c0 -12 -11 -33 -24 -33zM217 -10c-99 0 -129 67 -129 136v192c0 65 -14 76 -62 80c-6 6 -6 27 0 33c34 -1 70 -2 102 -2c15 0 30 1 35 2c5 0 8 -3 8 -6c0 0 -4 -73 -4 -103v-182
c0 -89 50 -103 80 -103c25 0 63 16 100 48c14 12 16 20 16 39v193c0 66 -13 78 -62 81c-6 6 -6 27 0 33c34 -1 70 -2 102 -2c15 0 30 1 35 2c5 0 8 -3 8 -6c0 0 -4 -73 -4 -103v-192c0 -49 9 -68 73 -73c6 -6 6 -21 0 -27c-61 -7 -96 -22 -118 -40c-6.5 -2.5 -11 -3 -19 0
c0 0 -8.5 33.5 -11 59c-0.700195 7 -10 5 -15 1c-49 -40 -96 -60 -135 -60z" />
    <glyph glyph-name="Ubreve" unicode="&#x16c;" horiz-adv-x="661" 
d="M484 804c-6 -71 -70 -113 -136 -113c-73 0 -131 43 -136 113h28c8 -39 55 -61 108 -61c49 0 101 22 108 61h28zM172 523v-257c0 -65 2 -141 51 -188c30.0996 -28.9004 71 -47 119 -47c169 0 184 134 184 246v246c0 81 -17 84 -92 91c-6 6 -6 27 0 33
c46 -1 94.5 -2 116 -2c23.2002 0 64 1 102 2c6 -6 6 -27 0 -33c-60 -7 -77 -10.7002 -77 -91v-228c0 -178 -49 -305 -254 -305c-102.5 0 -234 39 -234 243v290c0 83 -17 88 -77 91c-6 6 -6 27 0 33c39 -1 80 -2 119 -2c39.4004 0 88 1 135 2c6 -6 6 -27 0 -33
c-77 -3 -92 -8 -92 -91z" />
    <glyph glyph-name="ubreve" unicode="&#x16d;" horiz-adv-x="531" 
d="M141 646c11 -53 54 -90 108 -90c52 0 98 32 108 90l27 -12c-12 -86 -76 -135 -135 -135c-70 0 -121 50 -135 135zM217 -10c-99 0 -129 67 -129 136v192c0 65 -14 76 -62 80c-6 6 -6 27 0 33c34 -1 70 -2 102 -2c15 0 30 1 35 2c5 0 8 -3 8 -6c0 0 -4 -73 -4 -103v-182
c0 -89 50 -103 80 -103c25 0 63 16 100 48c14 12 16 20 16 39v193c0 66 -13 78 -62 81c-6 6 -6 27 0 33c34 -1 70 -2 102 -2c15 0 30 1 35 2c5 0 8 -3 8 -6c0 0 -4 -73 -4 -103v-192c0 -49 9 -68 73 -73c6 -6 6 -21 0 -27c-61 -7 -96 -22 -118 -40c-6.5 -2.5 -11 -3 -19 0
c0 0 -8.5 33.5 -11 59c-0.700195 7 -10 5 -15 1c-49 -40 -96 -60 -135 -60z" />
    <glyph glyph-name="Uring" unicode="&#x16e;" horiz-adv-x="661" 
d="M347 776c-31 0 -48 -23 -48 -53c0 -28 17 -53 48 -53s48 25 48 53c0 31 -18 53 -48 53zM259 723c0 46 42 85 88 85s88 -38 88 -85c0 -45 -40 -85 -88 -85c-46 0 -88 39 -88 85zM172 523v-257c0 -65 2 -141 51 -188c30.0996 -28.9004 71 -47 119 -47
c169 0 184 134 184 246v246c0 81 -17 84 -92 91c-6 6 -6 27 0 33c46 -1 94.5 -2 116 -2c23.2002 0 64 1 102 2c6 -6 6 -27 0 -33c-60 -7 -77 -10.7002 -77 -91v-228c0 -178 -49 -305 -254 -305c-102.5 0 -234 39 -234 243v290c0 83 -17 88 -77 91c-6 6 -6 27 0 33
c39 -1 80 -2 119 -2c39.4004 0 88 1 135 2c6 -6 6 -27 0 -33c-77 -3 -92 -8 -92 -91z" />
    <glyph glyph-name="uring" unicode="&#x16f;" horiz-adv-x="531" 
d="M242 636c-31 0 -48 -23 -48 -53c0 -28 17 -53 48 -53s48 25 48 53c0 31 -18 53 -48 53zM154 583c0 46 42 85 88 85s88 -38 88 -85c0 -45 -40 -85 -88 -85c-46 0 -88 39 -88 85zM217 -10c-99 0 -129 67 -129 136v192c0 65 -14 76 -62 80c-6 6 -6 27 0 33
c34 -1 70 -2 102 -2c15 0 30 1 35 2c5 0 8 -3 8 -6c0 0 -4 -73 -4 -103v-182c0 -89 50 -103 80 -103c25 0 63 16 100 48c14 12 16 20 16 39v193c0 66 -13 78 -62 81c-6 6 -6 27 0 33c34 -1 70 -2 102 -2c15 0 30 1 35 2c5 0 8 -3 8 -6c0 0 -4 -73 -4 -103v-192
c0 -49 9 -68 73 -73c6 -6 6 -21 0 -27c-61 -7 -96 -22 -118 -40c-6.5 -2.5 -11 -3 -19 0c0 0 -8.5 33.5 -11 59c-0.700195 7 -10 5 -15 1c-49 -40 -96 -60 -135 -60z" />
    <glyph glyph-name="Uhungarumlaut" unicode="&#x170;" horiz-adv-x="661" 
d="M514 792c0 -9 -3 -16 -7 -20l-99 -84c-2 -2 -5 -3 -8 -3c-5 0 -13 5 -13 13c0 3 1.2002 6.40039 3.7002 11l59.2998 109c5 8 12 12 23 12c29 0 41 -21.7998 41 -38zM383 797c0 -8 -2 -15 -7 -19l-88 -80.5c-4.40039 -4 -8.40039 -7.5 -14 -7.5c-7 0 -13 5 -13 12
c0 2 0.599609 7.2002 2.5 11l54.5 110c5 8 12 12 27 12c15.7002 0 38 -14.7002 38 -38zM172 523v-257c0 -65 2 -141 51 -188c30.0996 -28.9004 71 -47 119 -47c169 0 184 134 184 246v246c0 81 -17 84 -92 91c-6 6 -6 27 0 33c46 -1 94.5 -2 116 -2c23.2002 0 64 1 102 2
c6 -6 6 -27 0 -33c-60 -7 -77 -10.7002 -77 -91v-228c0 -178 -49 -305 -254 -305c-102.5 0 -234 39 -234 243v290c0 83 -17 88 -77 91c-6 6 -6 27 0 33c39 -1 80 -2 119 -2c39.4004 0 88 1 135 2c6 -6 6 -27 0 -33c-77 -3 -92 -8 -92 -91z" />
    <glyph glyph-name="uhungarumlaut" unicode="&#x171;" horiz-adv-x="531" 
d="M423 611c0 -6 -1 -13 -7 -19l-114 -110c-2 -2 -4 -2 -6 -2c-5 0 -14 5 -14 13c0 1 0 3 1 4l78 139c5 9 12 12 24 12c21 0 38 -18.4004 38 -37zM291 617c0 -5 -1 -11 -5 -16l-102 -121c-2 -2 -5 -3 -8 -3c-6 0 -14 5 -14 13c0 1 0 2 1 3l64 146c6 13 22 14 26 14
c20.9004 0 38 -15.5 38 -36zM217 -10c-99 0 -129 67 -129 136v192c0 65 -14 76 -62 80c-6 6 -6 27 0 33c34 -1 70 -2 102 -2c15 0 30 1 35 2c5 0 8 -3 8 -6c0 0 -4 -73 -4 -103v-182c0 -89 50 -103 80 -103c25 0 63 16 100 48c14 12 16 20 16 39v193c0 66 -13 78 -62 81
c-6 6 -6 27 0 33c34 -1 70 -2 102 -2c15 0 30 1 35 2c5 0 8 -3 8 -6c0 0 -4 -73 -4 -103v-192c0 -49 9 -68 73 -73c6 -6 6 -21 0 -27c-61 -7 -96 -22 -118 -40c-6.5 -2.5 -11 -3 -19 0c0 0 -8.5 33.5 -11 59c-0.700195 7 -10 5 -15 1c-49 -40 -96 -60 -135 -60z" />
    </font>
</defs>
</svg>
