<?xml version="1.0" standalone="no"?>
<!DOCTYPE svg PUBLIC "-//W3C//DTD SVG 1.1//EN" "http://www.w3.org/Graphics/SVG/1.1/DTD/svg11.dtd" >
<svg version="1.1" xmlns="http://www.w3.org/2000/svg">
<metadata>
Created by FontForge 20120731 at Fri Aug  1 16:50:29 2014

Linux Libertine by Philipp H. Poll,
Open Font under Terms of following Free Software Licenses:
GPL (General Public License) with font-exception and OFL (Open Font License).
Created with FontForge (http://fontforge.sf.net)
Sept 2003, 2004, 2005, 2006, 2007, 2008, 2009, 2010, 2011,2012
</metadata>
<defs>
<font id="linuxlibertine" horiz-adv-x="0" >
  <font-face 
    font-family="Linux Libertine O"
    font-weight="600"
    font-style="italic"
    font-stretch="normal"
    units-per-em="1000"
    panose-1="2 0 5 3 0 0 0 0 0 0"
    ascent="800"
    descent="-200"
    x-height="439.001"
    cap-height="647"
    bbox="-434 -328 6184 898.1"
    underline-thickness="40"
    underline-position="-98"
    slope="-11.5"
    stemh="42"
    stemv="117"
    unicode-range="U+0020-FFFD"
  />
<missing-glyph horiz-adv-x="500" 
d="M50 605v-510l170 255zM80 50h340l-170 255zM280 350l170 -255v510zM250 395l170 255h-340zM0 0v700h500v-700h-500z" />
    <glyph glyph-name="ellipsis" unicode="&#x2e;&#x2e;&#x2e;" horiz-adv-x="753" 
d="M87 43c7 31 37 56 67 56c27 0 46 -19 46 -44c0 -4 0 -8 -1 -12c-7 -30 -36 -55 -67 -55c-27 0 -46 19 -46 45c0 3 1 7 1 10zM341 43c7 31 36 56 67 56c27 0 46 -19 46 -44c0 -4 0 -8 -1 -12c-7 -30 -36 -55 -67 -55c-27 0 -46 19 -46 45c0 3 1 7 1 10zM597 43
c7 31 36 56 67 56c27 0 45 -19 45 -44c0 -4 0 -8 -1 -12c-6 -30 -36 -55 -66 -55c-27 0 -46 19 -46 45c0 3 1 7 1 10z" />
    <glyph glyph-name="exclamdbl" unicode="&#x21;&#x21;" horiz-adv-x="435" 
d="M456 661c32 0 63 -19 63 -58c0 -6 -1 -12 -2 -18c-7 -34 -21 -72 -34 -106c-9 -24 -20 -52 -30 -86c-27 -80 -41 -134 -47 -161c-5 -19 -9 -41 -46 -41c-26 0 -32 8 -32 22c0 8 2 19 5 31c6 39 12 96 18 149c3 39 4 67 4 89c0 25 2 65 10 103c11 56 60 76 91 76zM277 46
c6 31 36 56 67 56c27 0 45 -19 45 -45c0 -4 0 -7 -1 -11c-6 -30 -36 -56 -67 -56c-27 0 -45 20 -45 45c0 4 0 7 1 11zM271 658c33 0 64 -18 64 -57c0 -6 -1 -12 -2 -18c-7 -35 -21 -73 -34 -106c-9 -24 -20 -53 -30 -86c-27 -80 -41 -134 -47 -161c-5 -19 -9 -42 -46 -42
c-26 0 -32 8 -32 22c0 9 2 19 4 32c7 38 13 96 19 149c3 38 4 67 4 88c0 25 2 65 10 104c11 56 60 75 90 75zM93 43c6 31 36 56 67 56c27 0 45 -19 45 -44c0 -4 0 -8 -1 -12c-6 -30 -36 -55 -67 -55c-27 0 -45 19 -45 45c0 3 0 7 1 10z" />
    <glyph glyph-name="uni2047" unicode="&#x3f;&#x3f;" horiz-adv-x="806" 
d="M632 571c-3 -14 0 -22 2 -27c3 -6 3 -17 1 -27c-5 -25 -37 -39 -67 -39c-21 0 -47 14 -47 44c0 4 0 8 1 12c7 35 32 58 71 86c36 25 84 39 145 39c100 0 158 -47 158 -120c0 -11 -1 -21 -4 -33c-15 -74 -88 -121 -145 -158c-32 -20 -71 -47 -85 -119l-5 -23
c-4 -22 -11 -34 -42 -34c-23 0 -29 6 -29 18c0 5 1 10 2 16l5 25c9 41 22 98 107 163c41 31 64 59 74 109c2 12 4 23 4 34c0 47 -21 86 -57 86c-44 0 -84 -24 -89 -52zM532 43c6 31 36 56 67 56c26 0 45 -19 45 -44c0 -4 0 -8 -1 -12c-6 -30 -36 -55 -67 -55
c-27 0 -45 19 -45 45c0 3 0 7 1 10zM256 571c-3 -14 0 -22 2 -27c3 -6 3 -17 1 -27c-5 -25 -37 -39 -67 -39c-21 0 -47 14 -47 44c0 4 1 8 1 12c7 35 32 58 71 86c36 25 84 39 145 39c100 0 158 -47 158 -120c0 -11 -1 -21 -4 -33c-15 -74 -88 -121 -145 -158
c-32 -20 -71 -47 -85 -119l-5 -23c-4 -22 -10 -34 -42 -34c-23 0 -29 6 -29 18c0 5 1 10 2 16l5 25c9 41 22 98 107 163c41 31 64 59 74 109c2 12 4 23 4 34c0 47 -21 86 -57 86c-44 0 -84 -24 -89 -52zM156 43c6 31 36 56 67 56c27 0 45 -19 45 -44c0 -4 0 -8 -1 -12
c-6 -30 -36 -55 -67 -55c-27 0 -45 19 -45 45c0 3 0 7 1 10z" />
    <glyph glyph-name="uni2048" unicode="&#x3f;&#x21;" horiz-adv-x="619" 
d="M639 660c33 0 63 -18 63 -57c0 -6 0 -12 -1 -19c-8 -34 -22 -72 -34 -105c-10 -24 -20 -53 -31 -86c-26 -81 -41 -134 -47 -161c-4 -19 -9 -42 -46 -42c-25 0 -31 8 -31 22c0 9 2 19 4 32c6 38 13 96 18 149c4 38 5 67 5 88c0 25 2 65 9 103c12 57 60 76 91 76zM460 45
c7 31 37 56 67 56c27 0 46 -19 46 -44c0 -4 0 -8 -1 -12c-7 -30 -36 -55 -67 -55c-27 0 -46 19 -46 45c0 3 0 7 1 10zM256 571c-3 -14 0 -22 2 -27c3 -6 3 -17 1 -27c-5 -25 -37 -39 -67 -39c-21 0 -47 14 -47 44c0 4 1 8 1 12c7 35 32 58 71 86c36 25 84 39 145 39
c100 0 158 -47 158 -120c0 -11 -1 -21 -4 -33c-15 -74 -88 -121 -145 -158c-32 -20 -71 -47 -85 -119l-5 -23c-4 -22 -10 -34 -42 -34c-23 0 -29 6 -29 18c0 5 1 10 2 16l5 25c9 41 22 98 107 163c41 31 64 59 74 109c2 12 4 23 4 34c0 47 -21 86 -57 86
c-44 0 -84 -24 -89 -52zM156 43c6 31 36 56 67 56c27 0 45 -19 45 -44c0 -4 0 -8 -1 -12c-6 -30 -36 -55 -67 -55c-27 0 -45 19 -45 45c0 3 0 7 1 10z" />
    <glyph glyph-name="uni2049" unicode="&#x21;&#x3f;" horiz-adv-x="611" 
d="M271 658c33 0 64 -18 64 -57c0 -6 -1 -12 -2 -18c-7 -35 -21 -73 -34 -106c-9 -24 -20 -53 -30 -86c-27 -80 -41 -134 -47 -161c-5 -19 -9 -42 -46 -42c-26 0 -32 8 -32 22c0 9 2 19 4 32c7 38 13 96 19 149c3 38 4 67 4 88c0 25 2 65 10 104c11 56 60 75 90 75zM93 43
c6 31 36 56 67 56c27 0 45 -19 45 -44c0 -4 0 -8 -1 -12c-6 -30 -36 -55 -67 -55c-27 0 -45 19 -45 45c0 3 0 7 1 10zM437 569c-3 -14 0 -22 2 -27c3 -6 3 -17 1 -27c-5 -25 -37 -39 -66 -39c-21 0 -48 14 -48 45c0 3 1 7 2 11c6 35 31 58 71 86c35 25 83 39 144 39
c101 0 158 -47 158 -120c0 -11 -1 -21 -4 -33c-15 -74 -87 -121 -145 -158c-31 -20 -70 -47 -85 -118l-5 -24c-4 -22 -10 -34 -42 -34c-23 0 -28 6 -28 18c0 5 1 10 2 16l5 25c8 42 21 98 106 163c41 31 64 59 75 109c2 12 3 23 3 34c0 48 -21 86 -57 86
c-44 0 -83 -24 -89 -52zM337 42c6 30 36 55 67 55c27 0 46 -19 46 -44c0 -4 -1 -8 -2 -11c-6 -31 -36 -56 -67 -56c-27 0 -45 19 -45 45c0 3 0 7 1 11z" />
    <glyph glyph-name="uni2103" unicode="&#xb0;C" horiz-adv-x="799" 
d="M627 541c-192.3 0 -240.399 -248.5 -240.399 -337.2c0 -98.5 43.5996 -166.8 140.399 -166.8c81 0 132 21 213 104l18 -20c-76 -88 -148 -131 -241 -131c-156.2 0 -246.9 104.3 -246.9 228.8c0 18.2002 1.90039 36.7002 5.90039 55.2002c41 193 203 306 356 306
c133 0 153 -37 183 -38c-9 -56 -12 -102 -12 -150l-37 -4c-4 93 -36 153 -139 153zM239 491c42.2002 0 70.7012 38.6006 70.7012 76.7002c0 28.4004 -14.5 58.3008 -51.7002 58.3008c-42.5 0 -70.9004 -42.7998 -70.9004 -80.2002
c0 -28.9004 17.2998 -54.8008 51.8994 -54.8008zM151.901 543.201c0 59.7998 51.5996 114.799 111.1 114.799c48 0 82.0996 -36.0996 82.0996 -84.5996c0 -61.0996 -51.5 -114.399 -110.1 -114.399c-48.0996 0 -83.0996 36.2998 -83.0996 84.2002z" />
    <glyph glyph-name="uni2109" unicode="&#xb0;F" horiz-adv-x="802" 
d="M571 499l-37 -191h102c33 0 45 17 57 45l12 29c1 5 5 9 8 9h30c2 0 3 -2 2 -5c-7 -23 -19 -61 -26 -95s-10 -69 -12 -101l-2 -3h-31c-5 0 -7 4 -7 7l1 31c1 29 -8 44 -40 44h-101l-38 -193c-6 -31 6 -44 43 -44h26c4 0 7 -3 6 -8l-4 -23l-2 -2l-137 2
c-35 0 -142 -2 -142 -2l-1 2l4 23c1 5 5 8 9 8h25c40 0 56 16 62 44l82 423c6 29 0 44 -41 44h-29c-6 0 -6 5 -6 7l5 25l3 2l137 -2l89 1l221 1c-6 -54 -9 -115 -10 -156l-38 -4c-7 68 -15 115 -88 115h-91c-23 0 -36 -9 -41 -33zM238 491
c42.2002 0 70.7012 38.6006 70.7012 76.7002c0 28.4004 -14.5 58.3008 -51.7002 58.3008c-42.5 0 -70.9004 -42.7998 -70.9004 -80.2002c0 -28.9004 17.2998 -54.8008 51.8994 -54.8008zM150.901 543.201c0 59.7998 51.5996 114.799 111.1 114.799
c48 0 82.0996 -36.0996 82.0996 -84.5996c0 -61.0996 -51.5 -114.399 -110.1 -114.399c-48.0996 0 -83.0996 36.2998 -83.0996 84.2002z" />
    <glyph glyph-name="f_j" unicode="fj" horiz-adv-x="610" 
d="M465 320c3.59961 15.5 6.99902 37.999 6.99902 49.999c0 16 -32 17 -60 17h-122c-17.0996 -68.5996 -72.6992 -414.5 -170.999 -558c-28 -40 -70 -67 -119 -67c-71 0 -93 36 -93 53c0 15 11 36 44 36c61 0 61 -42 75 -42c53 0 76.7998 125.2 95 269
c9 71 26.9004 173.8 33 202l23 107h-48c-18 0 -26 2 -26 7c0 0 3 13 4 18c2 8 15 22 48 22h31c55 248 211 264 258 264c85 0 164 -65 164 -112c0 -37 -32 -67 -65 -67c-38 0 -67 28 -67 57c0 43 0 56 -14 74c-9 12 -26.5 12.5 -33.5 12.5
c-35 0 -86.7998 -53.2002 -114.5 -172.5c0 0 -8 -35 -13 -56h120c62 0 140 1 185 13c4 0 6 -0.400391 6 -3c0 0 -16.9004 -68.5996 -28.7002 -118.699l-21.2998 -90.2998c-56.2998 -238.9 -119 -442 -262 -442c-55 0 -113.5 20 -113.5 54.0996
c0 33.9004 24.0996 39.9004 39.5 39.9004c57.2002 0 52.5 -56 84 -56c21 0 57 54 75 135l47 213z" />
    <glyph glyph-name="f_k" unicode="fk" horiz-adv-x="808" 
d="M637 378c61 46 102 66 142 66c37 0 73 -8 73 -43c0 -41 -46 -49 -66 -49c-29 0 -50 9 -57 20c-2 3 -3 6 -3 8c-9 -6 -33 -24 -101 -74l7 4c22 -76 43 -152 64 -227c7 -25 13 -41 15 -41s14 17 35 48l50 -28c-24 -44 -52 -74 -113 -74c-49 0 -88 17 -105 78l-47 171
l-39 -29l8 1c-15 -64 -28 -126 -43 -190l-107 -45l-13 31l130 570c1 4 2 13 4 20v1c-33 7 -41 29 -45 48c-3 17 -6 25 -9 25c-10 0 -38 -22 -62 -81c-10 -24 -20 -58 -29 -98c-5 -21 -8 -36 -13 -57h87c19 0 28 -3 28 -9l-6 -22c-2 -11 -28 -16 -47 -16h-73
c-1 -4 -2 -11 -3 -14c-46 -229 -94 -441 -168 -549c-28 -40 -66 -64 -115 -64c-88 0 -101 35 -101 52c0 15 14 33 55 33c33 0 42 -11 50 -22c7 -10 14 -19 15 -19c4 0 10 3 24 17c25 25 66 222 82 324c6 46 19 110 25 136l22 106h-47c-17 0 -26 2 -26 7c0 0 3 13 4 18
c2 8 15 22 48 22h30c55 248 180 272 228 272c46 0 76 -8 94 -22c12 3 27 7 42 13h51l-94 -406c40 30 80 59 119 88z" />
    <glyph glyph-name="f_t" unicode="ft" horiz-adv-x="586" 
d="M378 433c20 0 46 5 64 26h-1c16 20 35 89 35 134c0 53 -19 74 -40 74c-12 0 -56 -20 -82 -79c-9 -24 -19 -58 -28 -98c-5 -21 -9 -36 -14 -57h66zM302 386l-2.99902 -14c-46 -229 -94 -441 -168 -549c-28 -40 -66 -64 -115 -64c-88 0 -101 35 -101 52c0 15 14 33 55 33
c32 0 42 -11 50 -22c7 -10 14 -19 15 -19c4 0 10 3 24 17c25 25 66 222 82 324c6 46 19 110 25 136l22 106h-47c-17 0 -26 2 -26 7c0 0 3 13 4 18c2 8 15 22 48 22h30c55 248 197 272 243 272c86 0 136 -44 136 -113c0 -12 -2 -29 -6 -45c-9 -40 -17 -75 -27 -114h87
c18 0 28 -3 28 -9l-4 -22c-3 -11 -29 -16 -48 -16h-73c-20 -87 -40 -173 -60 -260c-7 -28 -11 -50 -11 -60c0 -3.40039 -2.2002 -6.10059 -4.10059 -7.40039c7.59961 4.90039 25.2998 22.1006 75.0996 82.4004l45 -40c-72 -87 -114 -108 -166 -108c-35 0 -70 11 -70 50
c0 17 5 46 12 77c21 88 42 178 63 266h-115zM457.001 58c-2 -1 -3 -1 -3 -1s2 0 3 1z" />
    <glyph glyph-name="c_k" unicode="ck" horiz-adv-x="896" 
d="M234 -12c-100 0 -166 100 -166 164c0 166 141 293 265 293c110 0 146 -61 146 -101c0 -36 -48 -48 -63 -48c-44 0 -59 18 -59 35c0 4 3 16 9 23c1 1 1 9 1 17c0 29 -23 35 -31 35c-66 0 -144 -88 -144 -233c0 -114 47 -134 73 -134c23 0 70 13 123 77l41 -34
c-19 -29 -78 -94 -195 -94zM726 379c61 46 102 66 142 66c37 0 72 -8 72 -43c0 -41 -46 -49 -66 -49c-29 0 -49 9 -57 20c-2 3 -3 6 -3 8c-9 -6 -34 -25 -102 -75l8 4l64 -228c6 -23 12 -40 15 -40c1 0 13 16 34 48l50 -28c-23 -45 -52 -74 -113 -74c-48 0 -89 21 -105 77
l-47 172l-39 -29l8 1c-15 -64 -28 -127 -43 -191l-110 -39l-10 26l131 570c3 14 5 27 5 37c0 17 0 24 2 25c-10 -1 -20 -3 -30 -3c-3 -1 -6 -1 -9 -1c-12 0 -21 4 -20 10c1 8 3 20 4 28c20 0 92 7 142 27h50l-94 -408c41 30 81 60 121 89z" />
    <glyph glyph-name="c_h" unicode="ch" horiz-adv-x="890" 
d="M234 -12c-100 0 -166 100 -166 164c0 166 141 293 265 293c110 0 146 -61 146 -101c0 -36 -48 -48 -63 -48c-44 0 -59 18 -59 35c0 5 4 16 10 23h-1c1 1 1 9 1 17c0 29 -23 35 -31 35c-66 0 -144 -88 -144 -233c0 -114 47 -134 73 -134c23 0 70 13 123 77l41 -34
c-19 -29 -78 -94 -195 -94zM438 4l133 573c3 13 5 27 5 37c0 16 1 24 2 24c-9 -1 -19 -2 -29 -3c-3 -1 -6 -1 -8 -1c-13 0 -21 4 -21 10l3 29c26 0 71 5 88 8c16 3 31 7 53 17h52l-77 -331c68 63 123 78 171 78c50 0 90 -19 90 -81c0 -19 -7 -51 -15 -81
c-13 -53 -27 -107 -41 -159c-9 -34 -11 -52 -11 -62v-3c10 10 27 30 52 60l45 -34c-59 -72 -107 -97 -153 -97c-34 0 -66 17 -66 48c0 21 5 44 15 81c13 52 28 109 41 160c7 29 12 53 12 71c0 28 -8 40 -17 40c-26 0 -77 -40 -154 -137l4 1c-18 -79 -36 -156 -54 -235
l-110 -37z" />
    <glyph glyph-name="K.alt" unicode="&#x17f;i" horiz-adv-x="625" 
d="M357 150l-82 149c-2 4 -4 8 -10 13c-14 -78 -29 -161 -42 -238v-11c0 -19 7 -28 25 -28h26c15 0 28 -4 28 -12c0 -2 -1 -5 -3 -15l-9 -9s-101 2 -139 2c-35 0 -142 -2 -142 -2l-8 8l3 16c1 8 12 12 30 12h26c25 0 36 15 41 40l87 497v11c0 19 -7 28 -25 28h-26
c-15 0 -28 4 -28 12c0 2 1 7 3 15l10 9s100 -2 138 -2c35 0 141 2 141 2l9 -8l-3 -16c-1 -8 -12 -12 -30 -12h-26c-25 0 -37 -16 -41 -40c-11 -66 -23 -133 -35 -199c17 5 32 17 46 30l179 144c18 14 38 39 38 57c0 4 1 7 3 8h-32c-15 0 -28 4 -28 11c0 3 2 8 3 16l10 9
s92 -2 131 -2c35 0 117 2 117 2l8 -8l-2 -16c-1 -8 -13 -12 -31 -12h-18c-28 0 -71 -33 -103 -60c-74 -61 -149 -123 -223 -185c40 -70 81 -142 121 -213c34 -62 101 -145 150 -168l-16 -28c-139 4 -190 49 -271 193z" />
    <glyph glyph-name="R.alt" unicode="&#x17f;&#x17f;" horiz-adv-x="574" 
d="M432 375c20 23 37 58 46 102c1 11 2 23 2 37c0 30 -5 56 -20 71c-6 8 -32 34 -76 34c-27 0 -46 -1 -67 -5c-16 -95 -35 -193 -51 -288h28c64 0 109 16 138 49zM100 76l87 496c1 7 2 14 2 21c0 12 -1 19 -2 20l-35 -4c-22 0 -31 5 -30 12l3 17c18 5 96 13 141 15
c43 1 81 2 111 2c69 0 147 -7 188 -52c24 -29 39 -61 39 -92c0 -9 -1 -20 -4 -33c-9 -53 -43 -99 -103 -141c-18 -13 -41 -24 -64 -33c24 -69 50 -147 74 -217c40 -115 82 -158 114 -158c1 0 13 3 36 7v-28c-21 -8 -50 -17 -81 -17c-61 0 -136 31 -187 175l-74 205
c-2 4 -19 9 -57 10c-12 -70 -24 -137 -36 -207c-1 -2 -1 -7 -1 -11c0 -19 8 -27 26 -27h26c16 0 30 -5 28 -13l-2 -14l-10 -10s-100 2 -139 2c-35 0 -142 -2 -142 -2l-8 9l2 16c2 8 13 12 31 12h26c25 0 36 14 41 40z" />
    <glyph glyph-name="uniE043" unicode="&#x17f;l" horiz-adv-x="656" 
d="M329 549c-33 0 -63 -6 -92 -19c-28 -12 -52 -30 -74 -51c-20 -23 -37 -48 -50 -78c-11 -29 -18 -61 -18 -94c0 -34 7 -65 18 -95c13 -29 30 -55 50 -77c22 -22 46 -39 74 -52c29 -13 59 -20 92 -20c31 0 62 7 90 20c28 12 53 29 74 52c21 21 38 47 50 77
c13 29 19 61 19 95c0 33 -6 65 -19 94c-12 30 -29 55 -50 78c-21 21 -46 39 -74 51c-28 13 -58 19 -90 19zM329 23c-41 0 -79 7 -115 22c-35 16 -67 36 -93 61c-27 26 -48 56 -63 91c-15 34 -23 71 -23 110s8 75 23 110s36 64 63 90s58 46 93 60c36 16 74 23 115 23
c40 0 78 -7 113 -23c37 -14 67 -34 94 -60c26 -26 47 -55 63 -90c15 -35 23 -71 23 -110s-8 -76 -23 -111c-16 -34 -37 -64 -63 -90c-27 -26 -57 -46 -94 -61c-35 -15 -73 -22 -113 -22z" />
    <glyph glyph-name="uniE044" unicode="&#x17f;&#x17f;i" horiz-adv-x="524" 
d="M441 720v-14h60v-32h-208v-17h211v-32h-211v-179h211v-32h-211v-181h180v-32h-180v-180h138v-32h-138v-197h211v-32h-262v33h-156v32h156v164h-132v32h132v180h-21v32h21v455h-224v32h224v168h259v-32h-208v-35h210v-32h-210v-69h148z" />
    <glyph glyph-name="T_h" unicode="Th" horiz-adv-x="1131" 
d="M863 583l-62.499 -270.799c85.7002 98.2002 139.3 126.8 234.5 126.8c61 0 53 -85.5 36 -156l-36 -149c-3.7002 -15.2002 -9.2998 -36.6006 -9.2998 -51.3008c0 -9.90039 2.59961 -16.7002 10.2998 -16.7002c10.0996 0 38.5 14.5 63 34c14 0 23.5 -12 26 -26
c-66.5 -55 -115.5 -84 -178 -84c-34 0 -44.9004 23.2998 -44.9004 56.2002c0 23.0996 5.40039 50.8994 11.9004 78.7998l35 150c11.4004 49 27 99 -12 99c-22 0 -74 -39 -123 -112c-31.0996 -46.2998 -50.6992 -111 -67.1992 -181.6l-1.90039 -8.40039
c-8 -34.5 -4.7002 -82 -73.9004 -82c-52 0 -56.9004 10.5 -56.9004 27.2002c0 9.7998 8.09961 34.7002 12.6992 54.7998l112 491c8.90039 38.9004 -4.7998 42 -67.7998 42h-106c-36 0 -54 -38 -66 -102l-74 -380c-16 -83 0 -88 69 -91c5 -6 1 -28 -6 -34c-50 1 -93 2 -155 2
c-64 0 -111 -1 -160 -2c-5 6 -1 28 6 34c81 3 99 8 115 91l74 383c12 61 10 99 -27 99h-44c-66 0 -112 -26 -148 -106c-12 0 -29 1 -38 5c20 48 40 101 53 146c0 1 3 3 5 3c37 -3 154 -8 231 -8h131h143c71 1 160 41 199 53c9 0 15.0996 -3.7002 13 -13
c0 0 -7.90039 -37.5 -23 -102z" />
    <glyph glyph-name="z.alt" unicode="Q&#xe065;" horiz-adv-x="1361" 
d="M473 617c-145 0 -241 -203 -241 -372c0 -138 71 -216 170 -216c142 0 237 198 237 373c0 142 -72 215 -166 215zM1321 338l-24.001 -129c-23.5996 -126.7 -78 -219 -236 -219c-62 0 -172 25 -172 135c0 13 1.09961 27 4 43l31 170c3.2998 18 5 33 5 44
c0 41 -18.2002 45.2998 -62 47c-5 6 -7 27 0 33c29.7002 -1 103.2 -2 140 -2c34.2002 0 97.3008 1 127.001 2c5 -6 5 -27 -2 -33c-61 -3.2998 -69.7998 -8 -85 -91l-27 -147c-4.2002 -23 -8 -46 -8 -69c0 -77 44 -90 69 -90c105 0 124.3 87.9004 138 165l25 141
c3.2002 18.2002 5 33 5 44c0 41 -8.2998 45.2998 -52 47c-5 6 -7 27 0 33c30 -1 61 -2 100 -2c47.2002 0 91.7002 1 121 2c5 -6 5 -27 -2 -33c-61 -3.2998 -79.5996 -8.09961 -95 -91zM338.499 -10.2998c-8.2002 -5.59961 -16.7998 -17.0996 -20.5 -23.6992
c89 -4 174 -18 268 -50c86 -29 185 -45 261 -45c50 0 134 18 207 55l12 -24c-73 -58 -183 -97 -287 -97c-83 0 -171 6 -253 38c-123 48 -245 74 -279 74c-15 0 -62 -11 -91 -57c-9 5 -26 19 -35 24c36 46 108 72 132 76l44.5 36.2002
c-120.2 26.5996 -200.5 116.899 -200.5 250.8c0 195 163 411 396 411c157 0 280 -103 280 -267c0 -198 -154 -403 -398 -403c-12.5 0 -24.5996 0.599609 -36.5 1.69922z" />
    <glyph glyph-name="J.alt" unicode="&#xe061;&#xe065;" horiz-adv-x="1146" 
d="M1116 338l-24 -129c-23.5996 -126.7 -78 -219 -236 -219c-62 0 -172 25 -172 135c0 13 1.09961 27 4 43l31 170c3.2998 18 5 33 5 44c0 41 -18.2002 45.2998 -62 47c-5 6 -7 27 0 33c29.7002 -1 103.2 -2 140 -2c34.2002 0 97.2998 1 127 2c5 -6 5 -27 -2 -33
c-61 -3.2998 -69.7998 -8 -85 -91l-27 -147c-4.2002 -23 -8 -46 -8 -69c0 -77 44 -90 69 -90c105 0 124.3 87.9004 138 165l25 141c3.2002 18.2002 5 33 5 44c0 41 -8.2998 45.2998 -52 47c-5 6 -7 27 0 33c30 -1 61 -2 100 -2c47.2002 0 91.7002 1 121 2c5 -6 5 -27 -2 -33
c-61 -3.2998 -79.5996 -8.09961 -95 -91zM364 428c-28.0996 0 -53.5 -9.5 -81.2998 -33c-40.5 -34.2002 -81.7002 -127.8 -81.7002 -228c0 -91 31 -135 101 -135c42.2998 0 68.3994 21 99.2998 61c33 42.7002 63.7002 120.8 63.7002 202c0 96 -34 133 -101 133z
M234.1 -6.7998c-99.9004 14.7002 -160.099 78.7012 -160.099 174.801c0 120.7 70.2998 209.601 155.899 259.4c46.2998 27 94.7998 42.5996 151.1 42.5996c125 0 211 -68 211 -182c0 -102 -55.0996 -184.1 -120.1 -233.6c-51.0996 -38.9004 -109.3 -62.3008 -181.7 -64.3008
c-26 -14.4004 -51.2998 -31.6006 -65.2002 -47.1006c63 1 133 -20 171 -37c28 -10 107 -32 167 -41c70 -11 163 -12 266 44l21 -24c-74 -50 -159 -101 -284 -95c-82 4 -167 12 -252 51c-29 13 -93 60 -147 60c-12 0 -52 -25 -74 -53c-7 7 -23 33 -32 37c28 29 66 51 96 56
c25 20.7998 52.2998 39.2002 77.0996 52.2002z" />
    <glyph glyph-name="f_f" unicode="ff" horiz-adv-x="630" 
d="M177 387h-48.002c-18 0 -26 2 -26 7c0 0 3 13 4 18c2 8 15 22 48 22h31c53 221 190 234 237 234c59.7998 0 93.5 -15 108.5 -39.2998c53.7002 63.2002 112.5 69.2998 141.5 69.2998c86 0 118 -31 118 -76c0 -25 -15 -40 -47 -40c-28 0 -60 25 -62 52c-1 17 -6 28 -17 28
c-35 0 -63.2998 -52.7002 -91 -172c0 0 -8 -35 -13 -56h87c19 0 28 -3 28 -9l-5 -22c-3 -11 -30 -16 -48 -16h-73c-17.0996 -68.5996 -72.6992 -384.5 -170.999 -528c-28 -40 -70 -67 -119 -67c-71 0 -93 36 -93 53c0 15 11 36 44 36c61 0 61 -42 75 -42c53 0 78 105 95 249
c9 71 26.9004 163.8 33 192l23 107h-74h-14h-59c-17.0996 -68.5996 -72.6992 -414.5 -170.999 -558c-28 -40 -70 -67 -119 -67c-71 0 -93 36 -93 53c0 15 11 36 44 36c61 0 61 -42 75 -42c53 0 78 125 95 269c9 71 26.9004 173.8 33 202zM387.998 434h58
c10.5996 47.7002 23.7998 86.7998 38.5 118.899c-25.2998 4.7002 -50.7002 27.1006 -52.5 51.1006c-1 17 -6 28 -17 28c-35 0 -76.5 -36.7002 -101 -142c0 0 -8 -35 -13 -56h74h13z" />
    <glyph glyph-name="f_i" unicode="fi" horiz-adv-x="610" 
d="M428.5 662.5c-35 0 -86.8008 -53.1992 -114.501 -172.499c0 0 -8 -35 -13 -56h90c62 0 140 1 185 13c4 0 6 -0.400391 6 -3c0 0 -18.5 -67.9004 -29.7002 -118.801l-44.2998 -200.2c-4.2002 -19.2002 -7 -33 -7 -42c0 -12 4 -16 9 -16c11 0 30 15 51 42l31 -27
c-62 -63 -110 -92 -162 -92c-51 0 -54 31 -54 49c0 17 6.09961 49.2998 13 80l45 201c3.2998 14.9004 8 38 8 50c0 16 -32 17 -60 17h-92c-17.0996 -68.5996 -72.6992 -414.5 -170.999 -558c-28 -40 -70 -67 -119 -67c-71 0 -93 36 -93 53c0 15 11 36 44 36
c61 0 61 -42 75 -42c53 0 76.7998 125.2 95 269c9 71 26.9004 173.8 33 202l23 107h-48c-18 0 -26 2 -26 7c0 0 3 13 4 18c2 8 15 22 48 22h31c55 248 196 264 243 264c85 0 179 -65 179 -112c0 -37 -32 -67 -65 -67c-38 0 -67 28 -67 57c0 43 0 56 -14 74
c-9 12 -26.5 12.5 -33.5 12.5z" />
    <glyph glyph-name="f_l" unicode="fl" horiz-adv-x="588" 
d="M177 387l-48.002 -0.00195312c-18 0 -26 2 -26 7c0 0 3 13 4 18c2 8 15 22 48 22h31c55 248 180 264 227 264c44.2002 0 74.1006 -8.09961 92.8008 -22.1992c51.9004 4.90039 99.4004 13.3008 128.9 22.2012c9 0 15.2002 -4 13.2002 -13
c0 0 -10.5996 -37.0996 -25.6992 -102l-104.2 -449c-3.5 -15.2002 -9.40039 -36.6006 -9.40039 -51.3008c0 -9.90039 2.7002 -16.7002 10.4004 -16.7002c10 0 38.5 14.5 63 34c14 0 23.5 -12 26 -26c-66.5 -55 -115.5 -84 -178 -84c-34 0 -44.9004 23.2998 -44.9004 56.2002
c0 23.0996 5.5 50.7998 11.9004 78.7998l100.8 438c1.7998 7.90039 3.39941 14.8008 4.59961 21.001c-5.2998 -1.2998 -11.5 -2 -18.4004 -2c-28 0 -60 25 -62 52c-1 17 -6 28 -17 28c-35 0 -63.2998 -52.7002 -91 -172c0 0 -8 -35 -13 -56h87c19 0 28 -3 28 -9l-5 -22
c-3 -11 -30 -16 -48 -16h-73c-17.0996 -68.5996 -72.6992 -414.5 -170.999 -558c-28 -40 -70 -67 -119 -67c-71 0 -93 36 -93 53c0 15 11 36 44 36c61 0 61 -42 75 -42c53 0 78 125 95 269c9 71 26.9004 173.8 33 202z" />
    <glyph glyph-name="f_f_i" unicode="ffi" horiz-adv-x="870" 
d="M177 387l-48.002 0.000976562c-18 0 -26 2 -26 7c0 0 3 13 4 18c2 8 15 22 48 22h31c53 221 190 234 237 234c62.7002 0 96.7002 -16.5 110.5 -42.7998c59.2002 66.5 125.9 72.7998 155.5 72.7998c85 0 179 -65 179 -112c0 -37 -32 -67 -65 -67c-38 0 -67 28 -67 57
c0 43 0 56 -14 74c-9 12 -26.5 12.5 -33.5 12.5c-35 0 -86.7998 -53.2002 -114.5 -172.5c0 0 -8 -35 -13 -56h90c62 0 140 1 185 13c4 0 6 -0.400391 6 -3c0 0 -18.5 -67.9004 -29.7002 -118.801l-44.2998 -200.2c-4.2002 -19.2002 -7 -33 -7 -42c0 -12 4 -16 9 -16
c11 0 30 15 51 42l31 -27c-62 -63 -110 -92 -162 -92c-51 0 -54 31 -54 49c0 17 6.09961 49.2998 13 80l45 201c3.2998 14.9004 8 38 8 50c0 16 -32 17 -60 17h-92c-18.0996 -68.5996 -72.6992 -384.5 -170.999 -528c-28 -40 -70 -67 -119 -67c-71 0 -93 36 -93 53
c0 15 11 36 44 36c61 0 61 -42 75 -42c53 0 78 105 95 249c9 71 26.9004 163.8 33 192l23 107h-74h-14h-59c-17.0996 -68.5996 -72.6992 -414.5 -170.999 -558c-28 -40 -70 -67 -119 -67c-71 0 -93 36 -93 53c0 15 11 36 44 36c61 0 61 -42 75 -42c53 0 78 125 95 269
c9 71 26.9004 173.8 33 202zM485.898 552.701c-25.7002 4.09961 -52.0996 26.9004 -53.8994 51.3008c-1 17 -6 28 -17 28c-35 0 -76.5 -36.7002 -101 -142c0 0 -8 -35 -13 -56h74h13h58c10.5996 47.5996 24.2998 86.6992 39.8994 118.699z" />
    <glyph glyph-name="f_f_l" unicode="ffl" horiz-adv-x="828" 
d="M177 387l-48.002 0.000976562c-18 0 -26 2 -26 7c0 0 3 13 4 18c2 8 15 22 48 22h31c53 221 190 234 237 234c59.7998 0 93.5 -15 108.5 -39.2998c53.7002 63.2002 112.5 69.2998 141.5 69.2998c42.2002 0 71.4004 -7.5 90.2002 -20.4004
c45 5 85.4004 12.5 111.5 20.4004c9 0 15.2002 -4 13.2002 -13c0 0 -10.5996 -37.0996 -25.6992 -102l-104.2 -449c-3.5 -15.2002 -9.40039 -36.6006 -9.40039 -51.3008c0 -9.90039 2.7002 -16.7002 10.4004 -16.7002c10 0 38.5 14.5 63 34c14 0 23.5 -12 26 -26
c-66.5 -55 -115.5 -84 -178 -84c-34 0 -44.9004 23.2998 -44.9004 56.2002c0 23.0996 5.5 50.7998 11.9004 78.7998l100.8 438c1.59961 7 3.09961 13.2998 4.19922 19c-27.5 1.2002 -58 25.7002 -60 52c-1 17 -6 28 -17 28c-35 0 -63.2998 -52.7002 -91 -172
c0 0 -8 -35 -13 -56h87c19 0 28 -3 28 -9l-5 -22c-3 -11 -30 -16 -48 -16h-73c-17.0996 -68.5996 -72.6992 -384.5 -170.999 -528c-28 -40 -70 -67 -119 -67c-71 0 -93 36 -93 53c0 15 11 36 44 36c61 0 61 -42 75 -42c53 0 78 105 95 249c9 71 26.9004 163.8 33 192l23 107
h-74h-14h-59c-17.0996 -68.5996 -72.6992 -414.5 -170.999 -558c-28 -40 -70 -67 -119 -67c-71 0 -93 36 -93 53c0 15 11 36 44 36c61 0 61 -42 75 -42c53 0 78 125 95 269c9 71 26.9004 173.8 33 202zM387.998 434.001h58c10.5996 47.7002 23.7998 86.7998 38.5 118.899
c-25.2998 4.7002 -50.7002 27.1006 -52.5 51.1006c-1 17 -6 28 -17 28c-35 0 -76.5 -36.7002 -101 -142c0 0 -8 -35 -13 -56h74h13z" />
    <glyph glyph-name="longs_t" unicode="&#x17f;t" horiz-adv-x="525" 
d="M498 386l-60 -259.999c-7 -28 -11 -50 -11 -60c0 -2.40039 -1.09961 -4.40039 -2.59961 -5.90039c9.2998 6.5 27.8994 25.5996 73.5996 80.8994l44 -40c-71 -87 -113 -108 -165 -108c-35 0 -70 11 -70 50c0 17 5 46 12 77c20 88 42 178 62 266h-68l10 47c30 0 66 5 84 26
c10 14 32 68 32 128c0 37 -11 66 -40 66c-40 0 -62 -61 -87 -172l-70 -300c-32 -135 -94 -258 -118 -298c-20 -31 -74 -92 -160 -92c-78 0 -91 45 -91 57s11 44 62 44c26 0 43 -11 43 -24c0 -6 -6 -14 -14 -23c2 1 2 -7 2 -12c0 -6 1 -8 2 -8c11 0 42 16 62 46
c17 22 61 138 95 281c17 75 36 159 53 234h-58l9 47c37 0 54 0 60 28c18 75 34 106 54 140c32 54 96 97 165 97c81 0 133 -35 133 -97c0 -19 -1 -35 -9 -70c-8 -33 -16 -65 -24 -98h87c20 0 28 -3 28 -9l-4 -22c-3 -11 -30 -16 -48 -16h-73z" />
    <glyph glyph-name=".notdef" horiz-adv-x="500" 
d="M50 605v-510l170 255zM80 50h340l-170 255zM280 350l170 -255v510zM250 395l170 255h-340zM0 0v700h500v-700h-500z" />
    <glyph glyph-name="space" unicode=" " horiz-adv-x="250" 
 />
    <glyph glyph-name="exclam" unicode="!" horiz-adv-x="251" 
d="M259 658c33 0 64 -18 64 -57c0 -6 -1 -12 -2 -18c-8 -35 -21 -73 -34 -106c-9 -24 -20 -53 -31 -86c-26 -80 -41 -134 -47 -161c-4 -19 -8 -42 -45 -42c-26 0 -32 8 -32 22c0 9 2 19 4 32c7 38 13 96 18 149c4 38 5 67 5 88c0 25 2 65 9 104c12 56 61 75 91 75z
M142.1 101c28.5996 0 49.3994 -24.5 49.3994 -51.0996c0 -24 -24 -59.9004 -61.5996 -59.9004c-28.7998 0 -49.8994 19.9004 -49.8994 45.5c0 45.9004 37 65.5 62.0996 65.5z" />
    <glyph glyph-name="quotedbl" unicode="&#x22;" horiz-adv-x="361" 
d="M209 421l-15 4s6 160 6 166c5 23 34 54 77 54c31 0 39 -11 39 -24c0 -4 -1 -9 -2 -13c-3 -15 -70 -181 -70 -181zM335 421l-15 4s6 160 6 166c5 23 34 54 77 54c31 0 39 -11 39 -24c0 -4 -1 -9 -2 -13c-3 -15 -70 -181 -70 -181z" />
    <glyph glyph-name="numbersign" unicode="#" horiz-adv-x="463" 
d="M305 237l36 100h-66c-13 -35 -24 -65 -37 -100h67zM417 337l-37 -100h89l-19 -56h-90c-20 -56 -41 -114 -61 -168h-75l60 168h-66c-20 -56 -41 -114 -61 -168h-75l60 168h-89l20 56h90c12 35 23 65 36 100h-89l20 57h89c20 54 41 113 61 167h76l-62 -167h67
c20 54 40 113 60 167h76l-61 -167h89l-19 -57h-89z" />
    <glyph glyph-name="dollar" unicode="$" horiz-adv-x="438" 
d="M93 10c-16 0 -16.001 -10.999 -37.001 -10.999c8 37 11 91 14 147l45 3c3.7002 -60.2002 21.4004 -113.8 83.8008 -122.7l47.4004 232.8c-59.2998 23.7002 -137.2 66.7002 -115.2 174.9c17.2002 85 111.2 129.1 178.601 136.8l11.4004 56.2002h40l-11.2998 -55.5
c47.9004 -2.2002 86.7002 -11 112.3 -7.5c-7 -45 -8 -94 -9 -143l-44 -4l-2 18c-6.2998 64.7002 -15 95.5 -64.5 101.1l-41.2998 -202.9c56.9004 -18.7002 152.7 -76.9004 132.8 -177.2c-16.2002 -77.9004 -71.1006 -159.5 -202.801 -167.4l-14.2002 -69.5996h-40
l14.2002 69.7002c-51.7002 3.7002 -79.4004 21.2998 -98.2002 21.2998zM238.899 26.7012c36.7002 6 82 29.5996 96.0996 100.3c10.7002 51.2998 -10.7002 90.2002 -52.2998 115.2zM302.3 535.201c-43.7002 -7.7998 -75.1006 -40.2002 -86.3008 -97.2002
c-7.59961 -35.5996 19.3008 -70.0996 48.4004 -89.0996z" />
    <glyph glyph-name="percent" unicode="%" horiz-adv-x="664" 
d="M226 391c-3 -13 -4 -23 -4 -32c0 -23 7 -29 14 -29c45 0 96 86 107 141c2 10 3 18 3 26c0 24 -12 30 -24 30c-36 0 -85 -80 -96 -136zM480 80c-2 -14 -3 -24 -3 -33c0 -22 7 -29 14 -29c49 0 96 88 107 141c2 10 3 19 3 26c0 26 -13 31 -24 31c-37 0 -85 -81 -97 -136z
M389 94c16 76 100 160 185 160c44 0 90 -14 90 -69c0 -7 0 -16 -2 -24c-14 -68 -88 -180 -184 -180c-64 0 -91 42 -91 88c0 9 1 17 2 25zM480 517c36 0 97 11 148 56l68 -12l-533 -580l-67 18l444 481c-29 -6 -55 -8 -78 -8c-16 0 -36 4 -53 8l-1 -8
c-13 -65 -87 -179 -185 -179c-65 0 -91 43 -91 88c0 8 1 16 3 24c15 78 100 161 184 161c37 0 69 -14 77 -25l-7 1c47 -25 77 -25 91 -25z" />
    <glyph glyph-name="ampersand" unicode="&#x26;" horiz-adv-x="729" 
d="M385 517c0 -4 -1 -9 -1 -14c0 -19 6 -44 14 -73c51 34 91 74 98 107c2 8 3 15 3 22c0 28 -16 45 -38 45c-18 0 -63 -24 -76 -87zM415 131c-36 65 -81 155 -97 191c-85 -48 -115 -98 -129 -164c-3 -16 -4 -31 -4 -43c0 -62 34 -86 77 -86c54 0 92 36 153 102zM447 72
c-54 -51 -116 -84 -200 -84c-105 0 -181 36 -181 128c0 13 1 27 5 42c15 74 79 139 227 216c-18 47 -26 83 -26 112c0 11 1 20 3 29c13 60 87 130 200 130c73 0 127 -36 127 -90c0 -6 -1 -12 -2 -18c-11 -51 -89 -115 -183 -165c1 -2 2 -5 2 -7c12 -30 43 -95 71 -149
c72 84 108 139 113 164c1 7 4 11 7 12h-28c-22 2 -23 7 -22 10l2 14l11 10s66 -3 99 -3c34 0 101 3 101 3l8 -10l-3 -13c-3 -8 -18 -11 -33 -11h-27c-14 0 -34 -27 -82 -91c0 0 -63 -86 -114 -147c20 -41 54 -105 69 -105c27 0 53 14 83 63l33 -17
c-38 -72 -90 -107 -135 -107c-40 0 -93 10 -125 84z" />
    <glyph glyph-name="quotesingle" unicode="'" horiz-adv-x="232" 
d="M197 421l-15 4s6 160 6 166c5 23 34 54 77 54c31 0 39 -11 39 -24c0 -4 -1 -9 -2 -13c-3 -15 -70 -181 -70 -181z" />
    <glyph glyph-name="parenleft" unicode="(" horiz-adv-x="337" 
d="M87 253c37 182 175 354 329 467l27 -34c-38 -35 -182 -169 -236 -433c-12 -60 -17 -113 -17 -160c0 -159 57 -246 77 -274l-42 -32c-123 129 -148 270 -148 364c0 50 7 87 10 102z" />
    <glyph glyph-name="parenright" unicode=")" horiz-adv-x="354" 
d="M367 251c-37 -182 -175 -354 -329 -467l-27 34c38 35 182 169 236 433c12 60 17 113 17 160c0 159 -57 246 -77 274l42 32c123 -129 148 -270 148 -364c0 -50 -7 -87 -10 -102z" />
    <glyph glyph-name="asterisk" unicode="*" horiz-adv-x="457" 
d="M273 536c9 6 19 11 36 27c-7 1 -14 1 -20 1c-50 0 -83 7 -83 34v7c3 16 21 34 56 34c26 0 39 -11 51 -24c2 -1 3 -3 5 -5c0 11 -2 17 -2 24c-2 11 -3 21 -3 30c0 4 0 8 1 11c5 23 29 43 56 43c23 0 42 -10 42 -30c0 -3 -1 -6 -1 -9c-3 -11 -11 -32 -20 -51
c-7 -16 -5 -5 -9 -19l9 6c17 12 33 23 60 23c34 0 42 -16 42 -28v-5c-7 -33 -49 -40 -89 -40c-9 0 -21 -1 -31 -2c11 -16 17 -21 23 -27c20 -17 36 -32 36 -51v-6c-5 -20 -30 -33 -53 -33c-40 0 -45 29 -50 60c-18 -31 -37 -60 -75 -60c-24 0 -40 12 -40 28c0 1 1 3 1 4
c5 23 31 40 58 58z" />
    <glyph glyph-name="plus" unicode="+" horiz-adv-x="551" 
d="M373 261h171l-12 -58h-171l-35 -171h-85l34 171h-171l12 58h172l34 172h86z" />
    <glyph glyph-name="comma" unicode="," horiz-adv-x="244" 
d="M137 102c39 0 55 -33 55 -70c0 -106.8 -93.0996 -152 -159 -163c-5.90039 9.40039 -4.40039 20.9004 -1 33c57 13.5 86 55.9004 86 81c0 13 -7.09961 15.5996 -14 17c-20 4 -33 23 -33 50c0 29.5 26 52 66 52z" />
    <glyph glyph-name="hyphen" unicode="-" horiz-adv-x="374" 
d="M350 233h-224c-22 0 -32 9 -32 18v3c4 17 32 40 54 40h226c24 0 32 -8 32 -17v-4c-3 -13 -33 -40 -56 -40z" />
    <glyph glyph-name="period" unicode="." horiz-adv-x="244" 
d="M137.1 101c28.5996 0 49.3994 -24.5 49.3994 -51.0996c0 -24 -24 -59.9004 -61.5996 -59.9004c-28.7998 0 -49.8994 19.9004 -49.8994 45.5c0 45.9004 37 65.5 62.0996 65.5z" />
    <glyph glyph-name="slash" unicode="/" horiz-adv-x="316" 
d="M440 682l-379 -703h-63l380 703h62z" />
    <glyph glyph-name="zero" unicode="0" horiz-adv-x="470" 
d="M346 566c-33 0 -93 -41 -140 -282c-7.09961 -37.0996 -14.0996 -90.5 -14.0996 -138.4c0 -60.5996 11.2998 -112.6 48.0996 -112.6c12 0 48 11 81 89c22 49 43 109 61 201c9.7998 50.7002 13.7998 92.2998 13.7998 125.8c0 55 -10.7002 87.9004 -23.7998 102.2
c-8 9 -18 15 -26 15zM231 -10c-93.4004 0 -145.3 91.2998 -145.3 212c0 29.2002 3.09961 60.2002 9.2998 92c38 197 157 316 260 316c49 0 95 -33 118 -71c18.5 -37.5 27.4004 -82.2998 27.4004 -133c0 -31.7002 -3.5 -65.7998 -10.4004 -102c-46 -235 -179 -314 -259 -314z
" />
    <glyph glyph-name="one" unicode="1" horiz-adv-x="470" 
d="M213 81l68.001 348.998c3.7998 18.7998 5.39941 30.8994 5.39941 38.7998c0 13 -4.5 14.2002 -11.4004 14.2002c-12 0 -64 -16 -112 -39l-11 33c77 35 162 88 216 116c20 11 36 17 44 17c5.59961 0 9.89941 -2.59961 9.89941 -10.1992
c0 -1.90039 -0.299805 -4.2002 -0.899414 -6.7998c0 0 -15 -63 -25 -116l-77 -396c-1.09961 -5.59961 -1.59961 -10.5996 -1.59961 -14.8994c0 -31.7998 28.0996 -30.5996 68.5996 -34.0996c1.40039 -1.7002 2 -4.7002 2 -8.2002c0 -9 -4 -21.5 -9 -25.7998
c-31 1 -90 2 -128 2c-44 0 -120 -1 -151 -2c-1.40039 1.7002 -2 4.7002 -2 8.2002c0 9 4 21.5 9 25.7998c42 3 97 3 106 49z" />
    <glyph glyph-name="two" unicode="2" horiz-adv-x="470" 
d="M138 465c12 61 91.001 145 205.001 145c75.5996 0 155.899 -25.2998 155.899 -117.399c0 -11.5 -1.2002 -24 -3.90039 -37.5996c-15 -75 -87 -139 -185 -222c-43 -37 -138 -105 -148 -154h156c36 0 53 17 83 85l40 -9c-22 -53 -39 -113 -51 -155h-343
c11 59 39 104 155 210l84 76c60 55 81 99 94 165c3 15.2002 4.2998 28.6006 4.2998 40.4004c0 59.7998 -33.5996 78.5996 -55.2998 78.5996c-51 0 -91 -36 -95 -59c-2 -11 -4 -19 -2 -26c1 -8 0 -16 -1 -21c-6 -31 -34 -42 -54 -42c-23.0996 0 -39.7998 15 -39.7998 35.0996
c0 2.59961 0.200195 5.19922 0.799805 7.89941z" />
    <glyph glyph-name="three" unicode="3" horiz-adv-x="470" 
d="M335 570c-29 0 -89.002 -14.001 -101.002 -75.001c-4 -20 -17 -55 -56 -55c-30.2002 0 -34.7002 19.2998 -34.7002 30.0996c0 3.5 0.5 6.2002 0.700195 6.90039c7 34 65 133 217 133c94.2002 0 119.8 -50 119.8 -91.4004c0 -6.5 -0.700195 -12.7998 -1.7998 -18.5996
c-5 -24 -38 -98 -131 -136c52.7002 -6.09961 108.4 -48.5 108.4 -125.7c0 -10.7998 -1.09961 -22.2002 -3.39941 -34.2998c-27 -140 -146 -215 -267 -215c-60 0 -134.6 24.5 -134.6 63.0996c0 1.90039 0.200195 3.90039 0.600586 5.90039c3 17 28 37 57 37
c30 0 37 -11 43 -26c6 -17 23 -39 55 -39c26 0 106 31 131 160c3.09961 16.2998 4.59961 30.5 4.59961 42.9004c0 70.5 -46 82.0996 -82.5996 82.0996c-7 0 -25 -4 -52 -10l2 40c118 27 158 92 167 139c1.7998 9.40039 2.7002 18.1006 2.7002 26.001
c0 39.7998 -21.2998 60 -44.7002 60z" />
    <glyph glyph-name="four" unicode="4" horiz-adv-x="470" 
d="M355 493c-85 -94 -162 -192 -227 -274h174zM490 219c8.90039 0 12.6006 -4.00098 12.6006 -10.8008c0 -1.59961 -0.200195 -3.2998 -0.600586 -5.2002c-2 -12 -22 -34 -35 -34h-76l-17 -88c-1.40039 -7.09961 -2 -13.0996 -2 -18.1992
c0 -28.2998 21 -27.3994 60 -30.7998c1.40039 -1.7002 2 -4.7002 2 -8.2002c0 -9 -4 -21.5 -9 -25.7998c-31 1 -92 2 -130 2c-44 0 -83 -1 -114 -2c-1.40039 1.7002 -2 4.7002 -2 8.2002c0 9 4 21.5 9 25.7998c42 3 78 3 87 49l17 88h-195c-29 0 -29 30 -29 45
c116 143 259 307 335 385c4 5 10 11 17 11h57l2 -2c-3 -8 -11 -47 -21 -97l-57 -292h89z" />
    <glyph glyph-name="five" unicode="5" horiz-adv-x="470" 
d="M339 186c3.7002 19.0996 5.40039 36.6992 5.40039 52.6992c0 66.9004 -29.7002 105.301 -68.4004 105.301c-40 0 -73 -8 -137 -34l91 297c45 -4 84 -6 118 -6c48 0 92 3 152 10l16 -10l-28 -69c-50 -4 -78 -6 -107 -6c-35 0 -100 2 -125 5c-15 -51 -26 -86 -42 -138
c19 4 72 8 97 8c98.9004 0 146.2 -68.4004 146.2 -149.9c0 -14.0996 -1.40039 -28.5 -4.2002 -43.0996c-23 -118 -131 -221 -254 -221c-60.2998 0 -143.5 32 -143.5 72.5c0 1.7998 0.200195 3.7002 0.5 5.5c4 22 25 42 54 42c30 0 41 -18 47 -38c8 -24 32 -38 47 -38
c50 0 116 58 135 155z" />
    <glyph glyph-name="six" unicode="6" horiz-adv-x="470" 
d="M201 280c-3 -11 -5.99902 -28.999 -7.99902 -39.999c-7.40039 -38.7002 -10.6006 -70.7002 -10.6006 -97.1006c0 -90.9004 37.5996 -114.9 68.5996 -114.9c35 0 78 39 99 146c2.40039 12.7002 4.40039 29.2002 4.40039 46.5c0 46.4004 -14 98.5 -69.4004 98.5
c-14 0 -42 -2 -84 -39zM514.001 579.001c-47 -3 -105.999 -7.00098 -185.999 -77.001c-41 -36 -79 -92 -106 -162c29 13 62 21 89 21c127.8 0 152.899 -80.9004 152.899 -139.101c0 -15.5996 -1.7998 -29.5996 -3.89941 -39.8994c-14 -73 -75 -192 -225 -192
c-68.9004 0 -158.9 30.4004 -158.9 169.5c0 24.4004 2.7998 52.1006 8.89941 83.501c18 95 68 188 153 265c77 69 159 97 279 104z" />
    <glyph glyph-name="seven" unicode="7" horiz-adv-x="470" 
d="M237 594h297l2 -8c-155 -269 -244 -419 -330 -588l-93 -11l-2 13c95 151 249 385 326 517h-185c-31 0 -48 -4 -77 -73l-35 8c29 69 42 103 53 148h8c7 -6 29 -6 36 -6z" />
    <glyph glyph-name="eight" unicode="8" horiz-adv-x="470" 
d="M348 575c-51 0 -76.001 -37.999 -85.001 -83.999c-1.09961 -5.59961 -1.69922 -11.3994 -1.69922 -17.3994c0 -27.5 11.7998 -58.4004 39.7002 -80.6006l24 -19c30 20 62 52 72 106c2.40039 12.2998 4 24.8994 4 36.6992c0 32.0996 -12 58.2998 -53 58.2998z
M495.999 489.001c-12 -64 -93.999 -108.999 -140.999 -138.999l49 -40c34.0996 -28.2998 55.7998 -72.5 55.7998 -119.9c0 -9.59961 -0.900391 -19.2998 -2.80078 -29.0996c-15 -76 -107 -172 -232 -172c-90.4004 0 -156.4 43.0996 -156.4 123.899
c0 10.4004 1.09961 21.5 3.39941 33.0996c15 76 80 112 163 170l-15 10c-41.2998 32 -65.5996 74.0996 -65.5996 120c0 8.59961 0.900391 17.1992 2.60059 25.999c15 77 85 138 203 138c92.5996 0 138.5 -38.0996 138.5 -96.3994
c0 -7.7998 -0.799805 -16.0996 -2.5 -24.5996zM235 28.002c42 0 98 17.999 116 112.999c2 10.2998 3.09961 20.2002 3.09961 29.7002c0 33.9004 -14.0996 63.6006 -53.0996 93.3008l-38 28c-73 -50 -87 -116 -93 -146c-2.7998 -14.2002 -4 -27 -4 -38.2998
c0 -58.7002 33.7998 -79.7002 69 -79.7002z" />
    <glyph glyph-name="nine" unicode="9" horiz-adv-x="470" 
d="M385 320c3 11 5.99902 28.999 7.99902 39.999c7.40039 38.7002 10.6006 70.7002 10.6006 97.1006c0 90.9004 -37.5996 114.9 -68.5996 114.9c-35 0 -78 -39 -99 -146c-2.40039 -12.7002 -4.40039 -29.2002 -4.40039 -46.5c0 -46.4004 14 -98.5 69.4004 -98.5
c14 0 42 2 84 39zM71.999 20.999c47 3 105.999 7.00098 185.999 77.001c41 36 79 92 106 162c-29 -13 -62 -21 -89 -21c-127.8 0 -152.899 80.9004 -152.899 139.101c0 15.5996 1.7998 29.5996 3.89941 39.8994c14 73 75 192 225 192c68.9004 0 158.9 -30.4004 158.9 -169.5
c0 -24.4004 -2.7998 -52.1006 -8.89941 -83.501c-18 -95 -68 -188 -153 -265c-77 -69 -159 -97 -279 -104z" />
    <glyph glyph-name="colon" unicode=":" horiz-adv-x="244" 
d="M150.1 150c28.5996 0 49.3994 -24.5 49.3994 -51.0996c0 -24 -24 -59.9004 -61.5996 -59.9004c-28.7998 0 -49.8994 19.9004 -49.8994 45.5c0 45.9004 37 65.5 62.0996 65.5zM203.1 413c28.5996 0 49.3994 -24.5 49.3994 -51.0996c0 -24 -24 -59.9004 -61.5996 -59.9004
c-28.7998 0 -49.8994 19.9004 -49.8994 45.5c0 45.9004 37 65.5 62.0996 65.5z" />
    <glyph glyph-name="semicolon" unicode=";" horiz-adv-x="244" 
d="M150 102c39 0 55 -33 55 -70c0 -106.8 -93.0996 -152 -159 -163c-5.90039 9.40039 -4.40039 21 -1 33c57 13.5 86 55.9004 86 81c0 13 -7.09961 15.5996 -14 17c-20 4 -33 23 -33 50c0 29.5 26 52 66 52zM201.1 413c28.5996 0 49.3994 -24.5 49.3994 -51.0996
c0 -24 -24 -59.9004 -61.5996 -59.9004c-28.7998 0 -49.8994 19.9004 -49.8994 45.5c0 45.9004 37 65.5 62.0996 65.5z" />
    <glyph glyph-name="less" unicode="&#x3c;" horiz-adv-x="512" 
d="M202 240l294 -116l-13 -62l-397 156l9 44l461 156l-13 -62z" />
    <glyph glyph-name="equal" unicode="=" horiz-adv-x="551" 
d="M534 198l-12 -56h-435l12 56h435zM559 323l-12 -57h-434l11 57h435z" />
    <glyph glyph-name="greater" unicode="&#x3e;" horiz-adv-x="512" 
d="M408 238l-295 116l13 62l397 -157l-8 -44l-461 -155l12 62z" />
    <glyph glyph-name="question" unicode="?" horiz-adv-x="430" 
d="M244 571c-3 -14 0 -22 2 -27c3 -6 3 -17 1 -27c-5 -25 -37 -39 -67 -39c-21 0 -47 14 -47 44c0 4 0 8 1 12c7 35 32 58 71 86c36 25 84 39 145 39c100 0 157 -47 157 -120c0 -11 -1 -21 -3 -33c-15 -74 -88 -121 -146 -158c-31 -20 -70 -47 -84 -119l-5 -23
c-4 -22 -11 -34 -42 -34c-23 0 -29 6 -29 18c0 5 1 10 2 16l5 25c9 41 22 98 107 163c41 31 64 59 74 109c2 12 4 23 4 34c0 47 -21 86 -57 86c-44 0 -84 -24 -89 -52zM225.7 101c28.5996 0 44.3008 -24.5 38.9004 -51.0996
c-4.90039 -24 -36.2002 -59.9004 -73.7998 -59.9004c-28.7998 0 -45.7998 19.9004 -40.5996 45.5c9.2998 45.9004 50.3994 65.5 75.499 65.5z" />
    <glyph glyph-name="at" unicode="@" horiz-adv-x="1042" 
d="M667 407c-126 0 -216 -190 -216 -294c0 -37 13 -67 55 -67c23 0 102 66 145 141c19 34 61 130 61 163s-20 57 -45 57zM330 112c0 149 178 333 340 333c33 0 68 -9 86 -24l66 18l35 -12l-121 -301c-32 -77 -22 -85 -10 -85c133 0 201 244 201 329c0 197 -149 272 -270 272
c-224 0 -436 -207 -436 -483c0 -146 60 -337 301 -337c90 0 172 33 257 92l21 -39c-84 -55 -166 -99 -308 -99c-245 0 -394 160 -394 370c0 274 239 539 567 539c234 0 374 -143 374 -330c0 -142 -79 -360 -395 -360c-41 0 -51 18 -51 36c0 0 1 17 3 20
c-55 -44 -105 -54 -134 -54c-109 0 -132 65 -132 115z" />
    <glyph glyph-name="A" unicode="A" horiz-adv-x="719" 
d="M316 288h154c-16 83 -24 121 -41 206c-38 -65 -115 -194 -115 -194c-4.2002 -7.09961 -4.2002 -12 2 -12zM633 91c5.7002 -28.4004 11.499 -50.1992 58.999 -56.999l14 -2c4 -0.599609 10 -3 10 -9l-4 -23l-2 -2s-37 2 -76 2c-36 0 -184 -2 -184 -2l-2 2l3 23
c0.799805 6.5 2 8.2998 7 9l11 2c24.4004 4.40039 46.8008 13.9004 42.001 39l-32 168h-189c-8 0 -12.7002 -3.59961 -19 -14l-93 -154c-13 -22 9.59961 -34.5996 34 -39l11 -2c4.90039 -0.700195 7 -3 7 -9l-3 -23l-2 -2s-88 2 -124 2c-39 0 -86 -2 -86 -2l-2 2l2 23
c0.5 6.09961 6 8.39941 10 8.99902l14 2c47.5 6.7998 69.7998 35.7002 84.7002 60.5l320.3 532.5c14.2002 23.5996 36 31 47 31c22.5 0 29.7998 -10 34 -31z" />
    <glyph glyph-name="B" unicode="B" horiz-adv-x="593" 
d="M311 562l-33 -186.001h54c115.2 0 144 87.4004 144 144.601c0 70.2002 -51.2998 83.4004 -91 83.4004c-62 0 -69 -13 -74 -42zM271 333.999l-44 -250.001c-1.2002 -6 -2.10059 -11.4004 -2.10059 -16.2002c0 -18.2998 11.9004 -27.7998 57.1006 -27.7998
c148.8 0 186 119.4 186 179.601c0 68.4004 -43 114.4 -129 114.4h-68zM269 644.998c46 0 76 0.998047 117 0.998047c166 0 204.8 -63.2998 204.8 -124.8c0 -96.0996 -88.5 -147.6 -117.8 -160.199v-2c81.4004 -23.5 115.7 -74.5996 115.7 -142.399
c0 -105.8 -74.7002 -216.6 -295.7 -216.6h-137s-98 -1 -147 -2c-5 6 -6 29 1 35c71 3 91 6 106 89l70 401c3.2998 18.0996 5 32.5 5 44c0 41 -18.0996 42.7002 -72 45c-5 6 -7 29 0 35c50 -1 91 -2 150 -2z" />
    <glyph glyph-name="C" unicode="C" horiz-adv-x="637" 
d="M354 -10c-189.5 0 -271.9 122.699 -271.9 260.1c0 21.4004 2 43.2002 5.90039 64.9004c34 197 207 343 384 343c128 0 153 -44 202 -44c-6 -58 -9 -114 -9 -169l-38 -8c-13 95 -39 180 -162 180c-93 0 -214 -85 -249 -283c-4.7998 -27.5 -7.39941 -55.5996 -7.39941 -83
c0 -114.3 44.2998 -217 152.399 -217c77 0 153 32 242 119l25 -24c-81 -90 -173 -139 -274 -139z" />
    <glyph glyph-name="D" unicode="D" horiz-adv-x="688" 
d="M225 75c-0.799805 -4.40039 -1.2998 -8.39941 -1.2998 -11.7998c0 -18.9004 14.7998 -23.2002 78.2998 -23.2002c123 0 240 48 275 244c4.7998 27.9004 7.5 56.5 7.5 84.5c0 123.8 -52.4004 237.5 -206.5 237.5c-34 0 -60 -3 -66 -35zM23 0.000976562l-2.00098 2l4 22
c1 6 5 9 9 9h14c38 0 55 12 60 44l87 492c0.900391 4.90039 1.40039 9.40039 1.40039 13.4004c0 22 -14.2998 30.5996 -46.3994 30.5996h-14c-3 0 -7 3 -6 8l4 23l3 2h284c174.4 0 292 -121.6 292 -279.6c0 -18.7002 -1.59961 -37.9004 -5 -57.4004
c-44 -246 -241 -309 -384 -309h-301z" />
    <glyph glyph-name="E" unicode="E" horiz-adv-x="538" 
d="M25 0l-2.00098 2l4 22c1 6 5 9 9 9h13c39 0 55 12 61 44l87 492c0.700195 4.5 1.10059 8.59961 1.10059 12.3994c0 22.7002 -13.5 31.6006 -46.0996 31.6006h-14c-4 0 -7 3 -6 8l4 23l3 2h448c-7 -58 -9 -111 -9 -162l-40 -9c-4 51 -15 125 -79 125h-125
c-9 0 -15 -8 -19 -29l-36 -206h108c24 0 34 31 47 71c0 4 7 11 17 11h20l4 -10c-5 -16 -17 -56 -23 -93c-6 -36 -9 -76 -10 -93l-7 -9h-20c-10 0 -15 6 -14 10c0.5 10.2002 0.900391 19.7998 0.900391 28.3994c0 25.7002 -3.90039 42.6006 -21.9004 42.6006h-108l-44 -248
c-1.2002 -6.7002 -1.7002 -12 -1.7002 -16.0996c0 -9.90039 3.2998 -12.9004 9.7002 -12.9004h147c53 0 98 59 127 133l40 -10c-19 -53 -40 -115 -56 -169h-469z" />
    <glyph glyph-name="F" unicode="F" horiz-adv-x="492" 
d="M227 77c-0.700195 -4.09961 -1.10156 -8.00098 -1.10156 -11.6006c0 -20.7998 12.9004 -32.3994 46.1006 -32.3994h14c4 0 7 -3 6 -9l-4 -23l-3 -2s-95 2 -130 2c-37 0 -131 -2 -131 -2l-1 2l4 23c1 6 5 9 9 9h13c39 0 55 12 61 44l87 492
c0.700195 4.5 1.10059 8.59961 1.10059 12.3994c0 22.7002 -13.5 31.6006 -46.0996 31.6006h-14c-4 0 -7 3 -6 8l4 23l3 2h447c-7 -58 -9 -111 -9 -162l-40 -9c-4 51 -15 125 -79 125h-125c-9 0 -15 -8 -19 -29l-36 -206h108c24 0 34 31 47 71c0 4 7 11 17 11h20l4 -10
c-5 -16 -17 -56 -23 -93c-6 -36 -9 -76 -10 -93l-7 -9h-20c-10 0 -15 6 -14 10c0.5 10.2002 0.900391 19.7998 0.900391 28.3994c0 25.7002 -3.90039 42.6006 -21.9004 42.6006h-108z" />
    <glyph glyph-name="G" unicode="G" horiz-adv-x="696" 
d="M663 229l-20.002 -114.998c-3 -15 0 -22 6 -29c-78 -59 -160 -95 -281 -95c-181.6 0 -291.1 114.1 -291.1 261.899c0 18.2002 1.7002 37 5.10059 56.0996c38 220 230 350 401 350c130 0 154 -44 203 -44c-8 -58 -9 -114 -9 -169l-39 -8c-10 94 -41 180 -163 180
c-116 0 -235 -119 -265 -290c-4.2998 -24.2002 -6.5 -48.2002 -6.5 -71.4004c0 -121.5 60.2002 -221.6 189.5 -221.6c42 0 93 12 130 40l28 155c0.400391 2.2998 0.600586 4.59961 0.600586 6.69922c0 26 -27.5 36.2998 -62.5996 36.2998h-13c-4 0 -8 3 -7 9l5 23l2 2
s93 -2 130 -2c35 0 125 2 125 2l2 -2l-4 -23c-1 -6 -5 -9 -10 -9h-5c-40 0 -46 -16 -51 -43z" />
    <glyph glyph-name="H" unicode="H" horiz-adv-x="746" 
d="M629 569c1 4 1 9 1 13c0 22 -14 31 -48 31h-14c-5 0 -8 3 -7 8l4 24l2 1s98 -1 137 -1c35 0 136 1 136 1l2 -1l-4 -24c-1 -5 -5 -8 -9 -8h-15c-41 0 -57 -16 -62 -44l-86 -492c-1 -4 -2 -8 -2 -12c0 -21 13 -32 48 -32h15c4 0 7 -3 6 -9l-4 -23l-2 -2s-102 2 -137 2
c-39 0 -136 -2 -136 -2l-2 2l4 23c1 6 5 9 10 9h14c40 0 57 12 62 44l43 244h-279l-43 -244c-1 -4 -2 -8 -2 -12c0 -21 13 -32 49 -32h14c5 0 7 -3 6 -9l-4 -23l-2 -2s-101 2 -137 2c-39 0 -136 -2 -136 -2l-2 2l4 23c1 6 6 9 10 9h14c40 0 57 12 63 44l86 492c1 4 2 9 2 13
c0 22 -15 31 -49 31h-14c-4 0 -7 2 -7 8l5 24l2 1s97 -1 136 -1c35 0 137 1 137 1l1 -1l-4 -24c-1 -5 -4 -8 -9 -8h-14c-41 0 -58 -16 -63 -44l-35 -202h280z" />
    <glyph glyph-name="I" unicode="I" horiz-adv-x="343" 
d="M271 122c-3.40039 -18.7002 -5.2002 -33.4004 -5.2002 -45c0 -40 19.7002 -41.7002 73.2002 -44c5 -6 6 -29 -1 -35c-50 1 -91 2 -150 2c-57 0 -98 -1 -147 -2c-5 6 -6 29 1 35c71 3 91 6 106 89l70 401c3.2998 18.0996 5 32.5 5 44c0 41 -18.0996 42.7002 -72 45
c-5 6 -7 29 0 35c50 -1 91 -2 150 -2c57 0 98 1 147 2c5 -6 5 -29 -2 -35c-71 -3 -90 -6 -105 -89z" />
    <glyph glyph-name="J" unicode="J" horiz-adv-x="452" 
d="M473 580c-8 -43 -27 -194 -27 -220c0 -20 13 -22 46 -25l-4 -28l-52 -6c-9 -57 -19 -114 -29 -171c-41 -248 -194 -294 -254 -294c-57 0 -107 21 -107 55c0 17 16 44 46 44c57 0 55 -56 74 -56c82 0 128 180 147 421c-38 3 -87 7 -121 9v24l127 8c16 109 41 171 64 221
c-21 0 -43 6 -56 12c-35 14 -82 41 -110 41c-9 0 -15 -13 -15 -24c0 -7 2 -9 4 -10c12 -12 18 -24 18 -35c0 -23 -16 -39 -50 -39c-39 0 -53 21 -53 49c0 41 41 107 153 107c42 0 90 -19 129 -37c10 24 30 53 70 53c33 0 57 -11 57 -35c0 -20 -28 -44 -57 -64z" />
    <glyph glyph-name="K" unicode="K" horiz-adv-x="693" 
d="M578 574c13 10 21 36 -4 38l-21 2c-5 1 -7 4 -7 10l3 22l2 2s115 -2 151 -2c39 0 86 2 86 2l2 -2l-2 -22c0 -7 -6 -9 -10 -10l-14 -2c-47 -6 -91.2998 -23.7998 -134.5 -60l-207.5 -174c-22.2002 -18.5996 -22.7002 -27.5 -8 -47l191 -253
c20.2002 -26.7998 37.7002 -39.2998 54 -44l7 -2c13.5 -3.90039 19 -6 19 -10l-3 -22l-4 -2s-86 2 -125 2l-59 -2l-2 2v21c0 19 -23.9004 49.4004 -41.7002 76l-119.3 179c-8 11 -16 18 -30 18l-38 -217c-5 -31 25 -40 49 -43l14 -2c5 -1 7 -3 7 -9l-3 -23l-2 -2
s-101 2 -137 2c-39 0 -136 -2 -136 -2l-2 2l2 23c1 6 6 8 10 9l14 2c37 5 55 11 61 43l87 493c6 34 -10 37 -46 42l-14 2c-4 1 -7 3 -7 8l3 24l2 1s97 -1 136 -1c35 0 137 1 137 1l2 -1l-2 -24c-1 -5 -5 -7 -10 -8l-14 -2c-40 -6 -59 -15 -64 -42l-36 -202c8 0 17 3 34 17z
" />
    <glyph glyph-name="L" unicode="L" horiz-adv-x="575" 
d="M236 569c1 4 1 9 1 13c0 22 -14 31 -48 31h-14c-5 0 -7 3 -7 8l4 24l2 1s97 -1 137 -1c35 0 136 1 136 1l2 -1l-4 -24c-1 -5 -5 -8 -9 -8h-15c-41 0 -57 -16 -62 -44l-84 -477c-1 -6 -2 -11 -2 -17c0 -18 7 -29 19 -29h110c51 0 98 56 127 129l46 -8l-50 -167h-251l-77 1
c-12 0 -140 -2 -140 -2l-8 9l2 15c2 8 16 12 32 12h30c24 0 31 8 36 40z" />
    <glyph glyph-name="M" unicode="M" horiz-adv-x="837" 
d="M644 89l32 357c-85 -146 -256 -439 -256 -439c-6 -10 -16 -19 -33 -19c-8 0 -23 6 -26 19c0 0 -64 259 -106 430c-28 -117 -57 -232 -87 -349c-1 -4 -1 -8 -2 -11c-2 -11 -3 -19 -3 -26c0 -10 3 -16 8 -16h26c14 0 31 -4 29 -12l-2 -14l-8 -10s-70 2 -108 2
c-35 0 -87 -2 -87 -2l-6 9l2 15c2 8 13 12 34 12h26c13 0 22 30 29 54c39 155 82 328 121 483c0 1 1 2 1 4l1 5c1 5 1 9 1 13c0 12 -4 17 -12 17h-30c-21 1 -28 6 -28 11l3 14l12 11h160l118 -479c90 157 189 325 279 479h149l3 -10l-2 -15c-3 -10 -25 -11 -34 -11h-27
c-11 0 -19 -9 -22 -29l-2 -10l-42 -482c-1 -8 -2 -17 -2 -25c0 -18 3 -30 14 -30h25c23 0 33 -4 31 -12l-2 -15l-12 -9s-79 2 -118 2c-35 0 -121 -2 -121 -2l-8 9l2 15c2 9 18 12 34 12h26c9 0 15 22 19 42c0 4 1 8 1 12z" />
    <glyph glyph-name="N" unicode="N" horiz-adv-x="742" 
d="M223 547c-10 26 -27.501 57.2051 -75.001 64.0049l-14 2c-4 0.599609 -9.5 2.89941 -10 8.99902l-2 23l2 2s154 -1 193 -1l300 -475h2l71 398c6.09961 34 -10.5 36.9004 -46 42l-14 2c-4 0.599609 -7 3 -7 8l3 24l2 1s64 -1 103 -1c35 0 119 1 119 1l2 -1l-2 -24
c-1 -5 -5 -7.2998 -10 -8l-14 -2c-39.7002 -5.7002 -59.2002 -14.6006 -64 -42.001l-95 -544c-3.7998 -22 -21 -37 -50 -37c-31 0 -44 16 -51 27l-263 428c-3 5 -10.5 16.5 -16 16.5c-6 0 -9.40039 -12.5996 -11 -21.5l-64 -361
c-5.40039 -30.7002 25.2998 -39.6006 49 -43.001l14 -2c5 -0.700195 7 -3 7 -9l-3 -23l-2 -2s-86 2 -122 2c-39 0 -100 -2 -100 -2l-2 2l2 23c0.5 6.09961 6 8.39941 10 8.99902l14 2c37.4004 5.2998 55.3008 10.8994 61.001 42.999z" />
    <glyph glyph-name="O" unicode="O" horiz-adv-x="734" 
d="M473 617c-145 0 -241 -203 -241 -372c0 -138 71 -216 170 -216c142 0 237 198 237 373c0 142 -72 215 -166 215zM375 -12c-162 0 -278 98 -278 259c0 195 163 411 396 411c157 0 280 -103 280 -267c0 -198 -154 -403 -398 -403z" />
    <glyph glyph-name="P" unicode="P" horiz-adv-x="522" 
d="M319 604l-50 -282c14 -2 33 -3 47 -3c79 0 133 44 151 148c21 122 -34 146 -90 146c-11 0 -38 -4 -58 -9zM108 77l87 495c7 35 -4 46 -24 46h-31c-7 0 -10 4 -9 8l3 19l5 1c57 0 176 8 253 8c193 0 210 -110 200 -170c-15 -85 -89 -205 -278 -205c-23 0 -39 1 -52 3
l-37 -205c-4 -27 6 -44 45 -44h14c5 0 7 -3 6 -9l-4 -23l-2 -2s-97 2 -132 2c-37 0 -130 -2 -130 -2l-1 2l4 23c1 6 5 9 9 9h14c38 0 55 12 60 44z" />
    <glyph glyph-name="Q" unicode="Q" horiz-adv-x="734" 
d="M473 617c-145 0 -241 -203 -241 -372c0 -138 71 -216 170 -216c142 0 237 198 237 373c0 142 -72 215 -166 215zM133.7 -130c44.2002 43.5996 109.201 91.6016 176.501 123.602c-127.2 22.9004 -213.2 114.801 -213.2 253.4c0 195 163 411 396 411
c157 0 280 -103 280 -267c0 -194.1 -148 -395 -383.8 -402.8c-30.7002 -11.2998 -70.9004 -30.7002 -113.301 -58.6006c3.5 0.299805 6.90039 0.399414 10.1006 0.399414c110 0 176 -82 264 -82c29 0 67 10 94 37l13 -22c-49 -56 -96 -82 -159 -82c-130 0 -176 95 -269 95
c-7.90039 0 -22.6006 -3.59961 -38.9004 -13.5996c-15.0996 -14 -29.8994 -29.2002 -44.0996 -45.4004l-34 30c6.2998 8.2998 13.5996 15.8994 21.6992 22.999z" />
    <glyph glyph-name="R" unicode="R" horiz-adv-x="584" 
d="M478 468c17 99 -23 145 -80 145c-35 0 -56 -3 -80 -8l-50 -283h48c93 0 144 46 162 146zM595 482c-18 -101 -67 -150 -142 -188l64 -196c13 -44 40 -63 79 -58l-2 -35c-30 -9 -67 -11 -81 -11c-57 0 -93 38 -110 85l-57 168c-9 25 -36 29 -86 29l-35 -199
c-5 -31 7 -44 45 -44h14c4 0 7 -3 6 -9l-4 -23l-2 -2s-71 2 -109 2c-34 0 -153 -2 -153 -2l-1 2l4 23c1 6 4 9 9 9h14c39 0 55 16 60 44l85 482c5 28 4 45 -21 45c-3 0 -4 0.0996094 -6 0l-30 -2c-5 0 -7 3 -6 7l6 33c21 5 152 12 264 12c115 0 217 -50 195 -172z" />
    <glyph glyph-name="S" unicode="S" horiz-adv-x="454" 
d="M477 631c-5 -53 -6 -103 -6 -152l-40 -5c-5 66 -23 145 -105 145c-63 0 -94 -46 -104 -102c-11 -64 56 -114 93 -129c76 -30 161 -83 140 -204c-23 -133 -117 -194 -226 -194c-94 0 -111 15 -134 15c-19 0 -28 -5 -45 -5c7 51 9 99 13 175l39 3c3 -91 50 -147 114 -147
c73 0 116 40 130 114c10 58 -10 109 -64 133c-65 28 -177 90 -157 207c21 120 127 173 209 173c90 0 92 -19 143 -27z" />
    <glyph glyph-name="T" unicode="T" horiz-adv-x="572" 
d="M197 646h406c21 0 24 17 26 23l35 4c-5 -49 -7 -101 -6 -154l-40 -5c-5 80 -16 85 -69 85h-52c-34 0 -48 -9 -53 -42l-85 -480c-5 -31 7 -44 45 -44h25c4 0 7 -3 6 -9l-4 -23l-2 -2s-114 2 -152 2c-34 0 -132 -2 -132 -2l-2 2l4 23c1 6 5 9 9 9h25c40 0 56 16 61 44
l85 483c5 30 -5 39 -40 39h-51c-53 0 -67 -5 -100 -85l-37 5c20 53 36 105 48 154l34 -4c-1 -6 -4 -23 16 -23z" />
    <glyph glyph-name="U" unicode="U" horiz-adv-x="683" 
d="M638 569c1 4 2 9 2 13c0 22 -15 31 -49 31h-14c-4 0 -7 3 -7 8l5 24l2 1s75 -1 114 -1c36 0 114 1 114 1l2 -1l-4 -24c-1 -5 -5 -8 -10 -8h-14c-41 0 -57 -16 -62 -44l-49 -276c-31 -178 -97 -305 -318 -305c-87 0 -213 33 -213 187c0 18 2 38 6 60l58 334c1 4 2 9 2 13
c0 22 -15 31 -49 31h-14c-4 0 -7 2 -7 8l5 24l2 1s97 -1 136 -1c36 0 137 1 137 1l2 -1l-5 -24c-1 -5 -4 -8 -9 -8h-14c-41 0 -58 -16 -63 -44l-53 -301c-5 -32 -11 -65 -11 -97c0 -108 84 -135 119 -135c147 0 189 132 208 240z" />
    <glyph glyph-name="V" unicode="V" horiz-adv-x="610" 
d="M518 613c-4 0 -7.00098 3 -6.00098 8l4 24l2 1s83 -1 121 -1c34 0 85 1 85 1l1 -1l-4 -24c-1 -5 -4 -8 -9 -8c-54 0 -62 -11 -91 -64l-288 -538c-8 -15 -27 -23 -37 -23s-25 8 -27 23l-87 543c-8 46 -17 59 -66 59c-4 0 -7 3 -7 8l5 24l2 1s93 -1 130 -1
c35 0 139 1 139 1l1 -1l-4 -24c-1 -5 -4 -8 -9 -8c-54.2002 0 -75.7002 -8.09961 -75.7002 -32.5c0 -2.59961 0.200195 -5.5 0.700195 -8.5l57 -356l5 -31l16 28l187 349c7.90039 14.4004 12.3008 24.9004 12.3008 32.5c0 14.5996 -16.5 18.5 -57.2998 18.5z" />
    <glyph glyph-name="W" unicode="W" horiz-adv-x="957" 
d="M297 -12c-31 0 -42 17 -47 47l-74 527c-4 25 -17 51 -44 51h-12c-7 0 -11 3 -11 8l5 23l2 2s70 -1 106 -1c49 0 136 1 136 1l2 -2l-4 -22c-1 -6 -5 -9 -10 -9c-37 0 -55 -4 -49 -41l50 -354l9 -72l34 70l111 226c6 12 11 25 14 38c1 9 2 18 0 28l-9 64
c-3 27 -18 41 -55 41h-3c-7 0 -11 3 -10 8l4 23l2 2s54 -1 92 -1c47 0 164 1 164 1l1 -2l-4 -24c-1 -5 -6 -7 -9 -7c-35 0 -68 -2 -59 -59l48 -347l8 -68l38 76l176 354c18 36 -2 44 -48 44c-4 0 -7 4 -6 7l4 24l3 2s78 -1 118 -1c31 0 81 1 81 1l2 -1l-5 -24
c-1 -8 -12 -8 -13 -8h-10c-38 0 -50 -12 -71 -53l-255 -516c-20 -40 -38 -56 -65 -56c-40 0 -49 19 -53 51l-47 328c-1 9 -1 13 -3 13c-1 0 -4 -5 -6 -10l-166 -337c-14 -29 -38 -45 -62 -45z" />
    <glyph glyph-name="X" unicode="X" horiz-adv-x="679" 
d="M132 620l5 25l5 1c25 0 86 -1 96 -1c5 0 125 1 155 1c0 0 3 -1 4 -1l-5 -25c0 -5 -3 -7 -6 -7c-49 0 -56 -10 -42 -41l74 -158c10 -18 12 -17 27 -2c47 49 107 112 142 160c25 37 -7 41 -29 41c-3 0 -6 2 -5 7l4 25l2 1c21 0 105 -1 115 -1c5 0 77 1 95 1l1 -1l-4 -25
c-1 -3 -1 -7 -10 -7c-49 0 -83 -27 -116 -61l-168 -169c-21 -21 -21 -25 3 -71l110 -210c20 -39 48 -69 90 -69c5 0 6 -4 5 -8l-4 -24l-1 -2c-27 1 -90 2 -102 2c-6 0 -160 -2 -160 -2l-2 2l4 25c1 4 4 7 7 7c58 0 57 5 39 40l-87 173c-14 31 -17 31 -34 12
c-52 -57 -106 -122 -151 -181c-31 -42 4 -44 26 -44c4 0 5 -4 4 -8l-4 -24l-3 -2s-112 2 -126 2c-4 0 -81 -2 -81 -2v2l4 25c1 5 6 7 12 7c57 0 86 32 123 71l173 187c20 20 20 25 6 53l-102 205c-28 56 -63 64 -79 64c-7 0 -11 2 -10 7z" />
    <glyph glyph-name="Y" unicode="Y" horiz-adv-x="592" 
d="M257 72l36 209l-102 272c-23 57 -35 60 -61 60h-11c-6 0 -11 2 -10 7l5 25l2 1s109 -1 122 -1c5 0 109 1 109 1l2 -1l-4 -24c-1 -4 -4 -8 -8 -8c-49 0 -60 -4 -46 -37l90 -242l166 242c14 20 0 37 -35 37c-5 0 -5 4 -4 7l4 25l2 1s76 -1 87 -1c9 0 103 1 103 1l2 -1
l-4 -24c-1 -6 -5 -8 -11 -8h-20c-29 0 -44 -7 -66 -39l-192 -281l-39 -221c-6 -31 8 -39 46 -39h25c4 0 8 -3 7 -9l-4 -23l-3 -2s-104 2 -141 2c-35 0 -144 -2 -144 -2v2l4 23c1 6 3 9 8 9h26c39 0 54 11 59 39z" />
    <glyph glyph-name="Z" unicode="Z" horiz-adv-x="598" 
d="M549 0h-512c-13 0 -17 5 -16 15c2 7 5 15 12 23l469 541c8 10 19 23 2 23h-206c-72 0 -98 -47 -131 -116l-37 5c15 41 38 113 51 167c35 -3 30 -12 76 -12h342c31 3 49 4 61 4c19 0 21 -3 20 -10c-2 -11 -8 -21 -32 -49l-450 -519c-16 -19 -20 -28 10 -28h214
c73 0 110 54 142 126l39 -5c-20 -52 -41 -109 -54 -165z" />
    <glyph glyph-name="bracketleft" unicode="[" horiz-adv-x="375" 
d="M484 689l-10 -51h-145l-160 -785h145l-10 -51h-256l180 887h256z" />
    <glyph glyph-name="backslash" unicode="\" horiz-adv-x="318" 
d="M229 698l77 -746h-75l-78 746h76z" />
    <glyph glyph-name="bracketright" unicode="]" horiz-adv-x="375" 
d="M-9 -200l10 51h145l160 785h-145l10 51h256l-180 -887h-256z" />
    <glyph glyph-name="asciicircum" unicode="^" horiz-adv-x="542" 
d="M381 541l-122 -198h-81l191 307h70l65 -307h-81z" />
    <glyph glyph-name="underscore" unicode="_" horiz-adv-x="511" 
d="M493 -102l-11 -51h-515l11 51h515z" />
    <glyph glyph-name="grave" unicode="`" horiz-adv-x="392" 
d="M323 691l46 -119c3 -9 4 -14 4 -17c0 -1 -1 -5 -1 -9c-2 -6 -20 -14 -38 -14c-19 0 -28 6 -42 21l-97 112l2 6c2 1 5 3 17 9h-2c12 7 34 21 75 21c10 0 25 -3 36 -10z" />
    <glyph glyph-name="a" unicode="a" horiz-adv-x="540" 
d="M373 195c20 53 31 120 31 136c0 39 -18 74 -47 74c-80 0 -157 -151 -157 -254c0 -54 6 -111 50 -111c28 0 90 72 123 155zM340 39c0 4 0.000976562 13.3008 1.00098 19.001l-2 1c-62 -59 -83.5 -69 -123 -69c-104.5 0 -138 86 -138 142c0 157 161 312 276 312
c52 0 74 -22 84 -52c23.0996 16 41.1992 33.5996 56.999 52l55 3c1.7998 0 2 -1.2002 2 -3.2002c0 0 -22.2998 -83.9004 -31.7002 -122.801l-47.2998 -196c-4.59961 -19.0996 -7 -33 -7 -42c0 -12 4 -16 9 -16c11 0 28.5 12.5 57 38l25 -23c-71 -70 -103 -92 -155 -92
c-51 0 -62 31 -62 49z" />
    <glyph glyph-name="b" unicode="b" horiz-adv-x="517" 
d="M420 286c0 57 -21 107 -60 107c-17 0 -46 -2 -93 -35l-71 -308c13 -20 30 -25 47 -25c116 0 177 172 177 261zM320 583l-39 -166c31 16 72 27 110 27c99 0 151 -73 151 -148c0 -73 -52 -206 -188 -281c-29 -16 -68 -25 -112 -25c-41 0 -70 12 -102 45
c-12.5 -18.5 -34 -44 -44 -52l-32 14c7 20 11.7002 37.0996 21 77l112 483c5 21.7998 7 39 7 50c0 22 -8 28 -21 28l-31 2c-4 0 -5 2 -5 5l4 30c41 3 155 16 182 26c9 0 12 -3 12 -10c0 0 -9.7998 -40.5 -25 -105z" />
    <glyph glyph-name="c" unicode="c" horiz-adv-x="444" 
d="M238 -10c-100 0 -166 98 -166 162c0 166 140 292 265 292c110 0 146 -57 146 -107c0 -37 -47 -50 -62 -50c-44 0 -54 19 -54 36c0 19 4 17 4 47c0 29 -23 35 -31 35c-66 0 -144 -87 -144 -232c0 -114 47 -132 73 -132c23 0 83 29 123 75l40 -34
c-48 -49 -102 -92 -194 -92z" />
    <glyph glyph-name="d" unicode="d" horiz-adv-x="556" 
d="M402 332c0 40 -20 73 -49 73c-91 0 -160 -134 -160 -251c0 -53 4 -115 57 -115c23 0 86 68 117 141c20 53 35 137 35 152zM577 583l-107 -458c-4.5 -19.0996 -7 -33 -7 -42c0 -12 4 -16 9 -16c11 0 29 15 51 42l31 -27c-62 -63 -110 -92 -162 -92c-51 0 -55 31 -55 49
c0 4 1 16 2 21l-2 1c-52.5 -59 -94.7002 -71 -122 -71c-135 0 -145 107 -145 154c0 172 173 300 280 300c26 0 54 -7 75 -19c11 50 29 132 29 132c4.7998 21.7998 7 39 7 50c0 22 -8 28 -21 28l-31 2c-4 0 -5 2 -5 5l4 30c41 3 155 16 182 26c9 0 12 -3 12 -10
c0 0 -9.90039 -40.4004 -25 -105z" />
    <glyph glyph-name="e" unicode="e" horiz-adv-x="474" 
d="M364 365c0 25 -16 35 -39 35c-39 0 -80 -36 -115 -176c74 12 154 44 154 141zM475 369c0 -37 -10 -145 -270 -183c-8 -93 43 -120 72 -120c36 0 91 9 151 73c14 0 28 -13 26 -29c-57 -79 -138 -120 -229 -120c-116 0 -146 88 -146 175c0 113 96 279 279 279
c96 0 117 -39 117 -75z" />
    <glyph glyph-name="f" unicode="f" horiz-adv-x="370" 
d="M177 387h-48.001c-18 0 -26 2 -26 7c0 0 3 13 4 18c2 8 15 22 48 22h31c55 248 180 264 227 264c86 0 118 -31 118 -76c0 -25 -15 -40 -47 -40c-28 0 -60 25 -62 52c-1 17 -6 28 -17 28c-35 0 -63.2998 -52.7002 -91 -172c0 0 -8 -35 -13 -56h87c19 0 28 -3 28 -9l-5 -22
c-3 -11 -30 -16 -48 -16h-73c-17.0996 -68.5996 -72.6992 -414.5 -170.999 -558c-28 -40 -70 -67 -119 -67c-71 0 -93 36 -93 53c0 15 11 36 44 36c61 0 61 -42 75 -42c53 0 78 125 95 269c9 71 26.9004 173.8 33 202z" />
    <glyph glyph-name="g" unicode="g" horiz-adv-x="477" 
d="M161 -23c-25 -18 -67 -42 -67 -90c0 -55 34 -82 146 -82c88 0 112 30 112 68c0 35 -14 47 -70 73c-33 15 -103 27 -121 31zM435 291c0 -93 -92 -158.999 -172 -158.999c-28 0 -68 3 -84 13c-29 -54.7998 56.4004 -75.5996 146 -101c81 -23 122 -79 122 -144
c0 -99 -111 -138 -248 -138c-81 0 -192 21 -192 102c0 60 82 105 135 134c-42 14 -56 40 -56 58c0 31 25 68 68 105c-42 22 -50 78 -50 122c0 80 78 156 176 156c44.2998 0 96 -12 118 -38c35 32 59.7002 44.5 87.5 44.5c32.0996 0 47 -21.4004 47 -40.7002
c0 -20.4004 -19.2002 -35.3008 -38.5 -35.3008c-17.2998 0 -22 11.5 -27 19.5c-3 5 -6 10 -15 10c-7 0 -22 -7 -37 -21c14 -19 20 -60 20 -87zM321 291.001c0 68 1 108 -42 108c-37 0 -61 -53 -61 -117c0 -48 -1 -110 46 -110c32.2002 0 57 57 57 119z" />
    <glyph glyph-name="h" unicode="h" horiz-adv-x="600" 
d="M95.7998 72l112 491.001c15.2002 66.5 11.7002 75 -51.3994 75c-3 9 -1.09961 22 4.60059 34c71 11.5 137.2 21.9004 183.7 26c9 0 15.2002 -4 13.2002 -13c0 0 -10.5 -36.5996 -25.7002 -102l-62.7002 -270.8c85.7002 98.2002 139.3 126.8 234.5 126.8
c61 0 53 -85.5 36 -156l-36 -149c-3.7002 -15.2002 -9.2998 -36.6006 -9.2998 -51.3008c0 -9.90039 2.59961 -16.7002 10.2998 -16.7002c10 0 38.5 14.5 63 34c14 0 23.5 -12 26 -26c-66.5 -55 -115.5 -84 -178 -84c-34 0 -44.9004 23.2998 -44.9004 56.2002
c0 23.0996 5.40039 50.8994 11.9004 78.7998l35 150c11.4004 49 27 99 -12 99c-22 0 -74 -39 -123 -112c-31.0996 -46.2998 -50.6992 -111 -67.1992 -181.6l-1.90039 -8.40039c-8 -34.5 -4.7002 -82 -73.9004 -82c-52 0 -56.9004 10.5 -56.9004 27.2002
c0 9.7998 8.09961 34.7002 12.6992 54.7998z" />
    <glyph glyph-name="i" unicode="i" horiz-adv-x="326" 
d="M208 571c0 33 26 60 59 60s60 -27 60 -60s-27 -60 -60 -60s-59 27 -59 60zM288.3 320.2l-45.2988 -186.199c-3.5 -15.2002 -9.40039 -36.6006 -9.40039 -51.3008c0 -9.90039 2.7002 -16.7002 10.4004 -16.7002c10 0 38.5 14.5 63 34c14 0 23.5 -12 26 -26
c-66.5 -55 -115.5 -84 -178 -84c-34 0 -44.9004 23.2998 -44.9004 56.2002c0 23.0996 5.2998 50.8994 11.8994 78.7998l45 191c6.7002 28 9 41.9004 9 51c0 10 -6 19 -18 20l-40 3c-6 9 -5.7002 25 1 33c47 6 137 13 169 13c13.2002 0 20.5 -7.40039 20.5 -21.1006
c0 -17.0996 -10.7002 -55.6992 -20.2002 -94.6992z" />
    <glyph glyph-name="j" unicode="j" horiz-adv-x="349" 
d="M184 316c6 27.5996 9 41.9014 9 51.001c0 10 -6 19 -18 20l-40 3c-6 9 -5.7002 25 1 33c47 6 137 13 169 13c13.2002 0 20.5 -7.40039 20.5 -21.1006c0 -17.0996 -11 -55.7998 -20.2002 -94.7002l-20.2998 -85.2002c-56.7998 -238.8 -109 -442 -252 -442
c-55 0 -113.5 20 -113.5 54.0996c0 33.9004 24.0996 39.9004 39.5 39.9004c57.2002 0 52.5 -56 84 -56c21 0 58.5 59 75 135c14.7998 68.5 20 140 36 213zM225 571.002c0 33 26 60 59 60s60 -27 60 -60s-27 -60 -60 -60s-59 27 -59 60z" />
    <glyph glyph-name="k" unicode="k" horiz-adv-x="570" 
d="M95.7998 72l112 491.001c15.2002 66.5 11.7002 75 -51.3994 75c-3 9 -1.09961 22 4.60059 34c71 11.5 137.2 21.9004 183.7 26c9 0 15.2002 -4 13.2002 -13c0 0 -10.5 -36.5996 -25.7002 -102l-71.5 -308.9c16.2998 4.7998 32 17.0996 45.2998 28.5996l40 34.2998
c72 64 143 102 175 102c48 0 75.2998 -22 75.2998 -44c0 -36.7002 -27.2998 -59 -57.2998 -59c-34 0 -30 28 -56 28c-20 0 -42 -4 -91 -48l-52 -46v-4c33 -9 49.2998 -32.5996 65 -64c14 -28 23 -56 41 -112c7 -21.7998 16.9004 -28 36 -28c11 0 28 3 48 32
c11 0 23 -9 30 -17c-32 -56 -80 -87 -131 -87c-41 0 -66 31 -98.5996 103c-20.4004 45.2002 -31.4004 96 -49.4004 128c-5 9 -12 16.2998 -19.5996 16.2998c-3.2002 0 -6.2002 -0.0996094 -9.2998 -0.399414l-38.2002 -164.9c-8 -34.5 -4.7002 -82 -73.9004 -82
c-52 0 -56.9004 10.5 -56.9004 27.2002c0 9.7998 8.09961 34.7002 12.6992 54.7998z" />
    <glyph glyph-name="l" unicode="l" horiz-adv-x="326" 
d="M207.8 563c15.7998 68.5 10.499 70.001 -51.4014 75.001c-3 9 -1.09961 22 4.60059 34c71.7002 3 144 14 183.7 26c9 0 15.2002 -4 13.2002 -13c0 0 -10.5996 -37.0996 -25.6992 -102l-104.2 -449c-3.5 -15.2002 -9.2998 -36.6006 -9.2998 -51.3008
c0 -9.90039 2.59961 -16.7002 10.2998 -16.7002c10.0996 0 38.5 14.5 63 34c14 0 23.5 -12 26 -26c-66.5 -55 -115.5 -84 -178 -84c-34 0 -44.9004 23.2998 -44.9004 56.2002c0 23.0996 5.5 50.7998 11.9004 78.7998z" />
    <glyph glyph-name="m" unicode="m" horiz-adv-x="851" 
d="M425.3 322.1c4.90039 29.5 2.80273 51.9004 -23.2969 51.9004c-22 0 -64 -39 -113 -112c-32.2998 -48.0996 -52.2002 -116.1 -69.1006 -190c-7.90039 -34.5 -4.7002 -82 -73.9004 -82c-52 0 -56.9004 10.5 -56.9004 27.2002c0 9.7998 7.90039 34.7998 12.7002 54.7998
l56.2002 249c5.40039 24.0996 6 36.8994 6 45.999c0 10 -3 19 -15 20l-40 3c-6 9 -7.7002 25 -1 33c47 6 131 13 163 13c13.2002 0 20.5 -7.40039 20.5 -21.1006c0 -17.0996 -11.5996 -56.1992 -22.1992 -94.6992l-5.2998 -19.2002l1 -1c92 108 136 139 235 139
c52.7998 0 53.8994 -64.0996 42.1992 -127.1c85.2002 98.4004 129.5 127.101 224.8 127.101c61 0 53 -85.5 36 -156l-36 -149c-3.7002 -15.2002 -9.2998 -36.6006 -9.2998 -51.3008c0 -9.90039 2.59961 -16.7002 10.2998 -16.7002c10 0 38.5 14.5 63 34
c14 0 23.5 -12 26 -26c-66.5 -55 -115.5 -84 -178 -84c-34 0 -44.9004 23.2998 -44.9004 56.2002c0 23.0996 5.40039 50.8994 11.9004 78.7998l35 150c11.4004 49 27 99 -12 99c-22 0 -64 -39 -113 -112c-32.2998 -48.0996 -52.2002 -116.1 -69.1006 -190
c-7.90039 -34.5 -4.7002 -82 -73.9004 -82c-52 0 -56.9004 10.5 -56.9004 27.2002c0 9.7998 7.90039 34.7998 12.7002 54.7998l56.2002 249c0.0996094 0.400391 0.199219 0.800781 0.298828 1.10059z" />
    <glyph glyph-name="n" unicode="n" horiz-adv-x="606" 
d="M389 125l35 150.002c11.4004 49 27 99 -12 99c-22 0 -74 -39 -123 -112c-32.2998 -48.0996 -52.2002 -116.1 -69.1006 -190c-7.90039 -34.5 -4.7002 -82 -73.9004 -82c-52 0 -56.9004 10.5 -56.9004 27.2002c0 9.7998 7.90039 34.7998 12.7002 54.7998l56.2002 249
c5.40039 24.0996 6 36.8994 6 45.999c0 10 -3 19 -15 20l-40 3c-6 9 -7.7002 25 -1 33c47 6 131 13 163 13c13.2002 0 20.5 -7.40039 20.5 -21.1006c0 -17.0996 -11.5996 -56.1992 -22.1992 -94.6992l-5.2998 -19.2002l1 -1c92 108 146 139 245 139c61 0 53 -85.5 36 -156
l-36 -149c-3.7002 -15.2002 -9.2998 -36.6006 -9.2998 -51.3008c0 -9.90039 2.59961 -16.7002 10.2998 -16.7002c10 0 38.5 14.5 63 34c14 0 23.5 -12 26 -26c-66.5 -55 -115.5 -84 -178 -84c-34 0 -44.9004 23.2998 -44.9004 56.2002
c0 23.0996 5.40039 50.8994 11.9004 78.7998z" />
    <glyph glyph-name="o" unicode="o" horiz-adv-x="507" 
d="M198 173c0 -123 50 -141 73 -141c97 0 122 176 122 240c0 61 -14 130 -70 130c-97 0 -125 -142 -125 -229zM72 165c0 120 90 279 270 279c138 0 175 -93 175 -165c0 -158 -134 -289 -271 -289c-143 0 -174 121 -174 175z" />
    <glyph glyph-name="p" unicode="p" horiz-adv-x="537" 
d="M430 274c0 68.0996 -14 116 -63 116c-25 0 -55 -5 -78 -20l-70 -303c19 -24 39 -35 55 -35c46.9004 0 86.5 34.7002 112 79c32.0996 55.7998 44 126.8 44 163zM62 -110l85.999 381c-15 -15 -34 -36 -46 -53l-36 31c24 33 60 65 99 95l24 105l123 21l-10 -47
c26 10 58 21 97 21c120 0 155 -50 155 -154c0 -56.2998 -32.9004 -140.3 -90 -204c-50.5 -56.2998 -120.7 -96 -192 -96c-26 0 -49 3 -68 11l-24.0996 -107.7c-4.09961 -18.4004 -6.09961 -36.7002 -6.09961 -48.2998c0 -40 20.2002 -43.2998 63.2002 -46c5 -6 6 -27 -1 -33
c-50 1 -102.3 2 -140 2c-31 0 -82 -1 -131 -2c-5 6 -6 27 1 33c60.7002 3 77.4004 8.7002 96 91z" />
    <glyph glyph-name="q" unicode="q" horiz-adv-x="572" 
d="M410 332c0 39 -17 73 -46 73c-89 0 -164 -124 -164 -264c0 -72.0996 9.5 -102 48 -102c45 0 106 81 128 144c19 55 34 133 34 149zM309 -110l36 151c-41 -37 -75 -51 -128 -51c-100 0 -141 71 -141 140c0 181.5 172 314 285 314c42 0 75 -12 98 -36
c17.0996 17.0996 50.5 50 73 50c12 0 18 -9 18 -23c0 -4 -0.599609 -10.0996 -2 -16l-121.1 -525.7c-4.2002 -18.2998 -6.10059 -36.7002 -6.10059 -48.2998c0 -40 20.2002 -43.2998 63.2002 -46c5 -6 6 -27 -1 -33c-50 1 -102.3 2 -140 2c-31 0 -82 -1 -131 -2
c-5 6 -6 27 1 33c60.7002 3 76.4004 9 96 91z" />
    <glyph glyph-name="r" unicode="r" horiz-adv-x="444" 
d="M266 285l3.99902 -1c44 93 110 152 170 152c44 0 62 -31 62 -56c0 -32 -22 -63 -54 -63c-17 0 -32.2998 5.7002 -43.2998 18c-7.09961 7.90039 -13.6992 34 -23.6992 34c-19.7002 0 -89 -103 -137 -190l-26.0996 -107c-9.5 -39.0996 -11.9004 -82 -75.9004 -82
c-48 0 -52.9004 10.5 -52.9004 27.2002c0 15.7998 7.90039 33.2998 12.7002 54.7998l54.2002 244c7 28 8 41.9004 8 51c0 10 -6 19 -18 20l-40 3c-6 9 -7.7002 25 -1 33c47 6 133 13 165 13c13.2002 0 21.5 -9.7002 21.5 -25.1006
c0 -17.0996 -8.5 -51.8994 -17.2002 -90.6992z" />
    <glyph glyph-name="s" unicode="s" horiz-adv-x="417" 
d="M426.3 359c3.5 -32.5 -22.7979 -51.0986 -37.2979 -54.999c-22 -6 -48.7002 0.400391 -53 22c-7.09961 35.5996 -22.8994 79.7998 -65.7998 79.7998c-39.2002 0 -52.2002 -22.7002 -52.2002 -50.7998c0 -51 48.2998 -81.4004 74 -95c74 -39 115.3 -84 115.3 -131
c0 -70.5996 -54.2002 -141 -179.9 -141c-79.7998 0 -162.399 32 -162.399 100c0 32 27 51 43.5 51c30.5 0 48.0996 -23.2002 63.5 -58c15 -34 45.0996 -52.4004 76.3994 -52.4004c30.5996 0 54.8994 11.5996 54.8994 49.3994c0 47 -25.4004 80.9004 -67.3008 105
c-66 38 -105.5 88 -105.5 131c0 105.6 79.7998 130 176.5 130c62.5 0 114 -36 119.3 -85z" />
    <glyph glyph-name="t" unicode="t" horiz-adv-x="367" 
d="M123 118l61.001 264h-75c-3 0 -6 0 -6 2s4 22 5 25c2 8 9 16 28 17l58 3l13 50c9.90039 38.2002 9.2002 72.9004 44 82c30.5 8 81 20 81 3c0 -12 -16 -72.2002 -20 -90l-10 -45h109c11 -8 1 -42 -11 -47h-108l-60 -255
c-3.2002 -13.7998 -6.60059 -30.3994 -6.60059 -42.7998c0 -10.7002 2.59961 -18.2002 10.5996 -18.2002c10.0996 0 44 17 70 47c14 0 26 -19 29 -28c-50 -55 -101.5 -95 -171 -95c-35.9004 0 -50.7002 22.7002 -50.7002 57.1006c0 20.5996 4.5 48.2998 9.7002 70.8994z" />
    <glyph glyph-name="u" unicode="u" horiz-adv-x="561" 
d="M280 315l-42 -162c-5.90039 -22.9004 -10 -55 -10 -71c0 -19 5 -33 21 -33c29 0 119.9 56 150 187c0 0 31 136 46 200c32.2998 -1 84.7002 -1 118 0l-77 -311c-4.7002 -19.0996 -7 -33 -7 -42c0 -12 5 -16 10 -16c11 0 35 17.7002 56 39c12.9004 -4.2002 20 -13 25 -24
c-62 -63 -101 -92 -153 -92c-51 0 -63 31 -63 49c0 4 2.2998 31.7002 15.2998 53c1 1.2998 -1.09961 2.09961 -3 0c-56.2002 -61.0996 -116 -102 -166.3 -102c-61.7002 0 -92 34 -92 74c0 18 4.2002 50.2998 11 77l43 168c4.90039 19 7 33 7 42c0 11 -4 16 -8 16
c-12 0 -32 -14 -54 -42c-12.2998 6.2998 -21 15.2998 -28 27c69.5 72.5 108 92 160 92s55 -31 55 -49c0 -17 -6.09961 -50 -14 -80z" />
    <glyph glyph-name="v" unicode="v" horiz-adv-x="477" 
d="M318.3 131l2 -1l93.7002 135c19.0996 27.5 26 38 26 52c0 23 -18.5 34 -18.5 78.5c0 26 27 48.5 57.5 48.5c40 0 50.5 -28.5 50.5 -63.5c0 -26 -21.2998 -66.7002 -68.5 -136.5l-157 -232c-10 -14.7002 -22 -24 -38 -24c-27 0 -37.9004 12 -40 28l-43 325
c-2 15.4004 -8.7002 21 -15 21c-14 0 -38 -23 -51 -42.5c-14.2998 9.2002 -20.2998 16.7998 -25 30.5c50 60 83 94 144 94c49 0 55.5 -44.7998 61 -100z" />
    <glyph glyph-name="w" unicode="w" horiz-adv-x="702" 
d="M102 350c50 60 82.999 94 143.999 94c49 0 54.2998 -43.9004 57 -100l9 -185.5l2 -1l96 170.5c10.4004 18.4004 32.5 53.5 50 53.5c29.5 0 42.2002 -36.9004 46 -57.5c0 0 26.5 -142.5 38 -203.5l2 -1l80 145.5c15.9004 28.9004 19 38 19 52c0 23 -18.5 34 -18.5 78.5
c0 26 27 48.5 57.5 48.5c40 0 50.5 -28.5 50.5 -63.5c0 -26 -18.5 -62.5 -61.5 -136.5l-137 -232c-9 -15 -22 -24 -38 -24c-20 0 -28 11 -31 24l-47 198c-1.59961 6.90039 -4.69922 11.7002 -8.69922 11.7002c-3.2998 0 -7.2002 -3.2998 -11.2998 -11.7002l-113 -194
c-11.5 -19.7002 -21 -28 -40 -28c-20 0 -30.7998 12.9004 -32 28l-26 325c-1 15 -4.7002 21 -11 21c-14 0 -38 -23 -51 -42.5c-14.2998 9.2002 -20.2998 16.7998 -25 30.5z" />
    <glyph glyph-name="x" unicode="x" horiz-adv-x="517" 
d="M201.7 340c-5 11.9004 -21.1982 12.501 -34.1982 12.501c-13.2998 0 -43.5 -13 -55.5 -18.7002c-8 7.7002 -15.5996 27.7998 -17 38.7002c36 21 127 66.5 162 66.5c25 0 27.0996 -18.2998 43.1992 -70.7002l25.2998 -82.2002c8 11.5 35 46.5996 35 46.5996
c40.7002 54.2002 78.7002 104.8 138 104.8c33.5996 0 69.2998 -15.5996 69.2998 -48c0 -30 -20 -58.7998 -46.2002 -58.7998c-14.7002 0 -35.7002 8.40039 -45.2002 14.4004c-8.40039 4.7998 -21 8.39941 -25.2002 8.39941s-15 -2.59961 -26.2002 -17.7998l-85.5 -115.2
l55.7002 -135.2c5.2998 -12.7998 16 -19.5996 28.7998 -19.5996c15 0 39.5 2.7998 63.5 26.7998l24.5 -25.2998c-60.7998 -67.2002 -106 -77 -148 -77.0996c-41.5 -0.0996094 -52.2998 42 -68.7998 92.2002l-19 58c-17.7998 -26.5 -45.7998 -64 -59.7002 -79.7998
c-54.2998 -61.5 -71 -70.9004 -119.3 -70.9004c-32.5 0 -70.7002 19.0996 -70.7002 53.8994c0 28.7998 11.2002 49 48 49c37 0 60.2998 -27 75 -27c6.2998 0 19 7.5 33 26c24.2998 32.0996 56.7002 76 76.2002 111c-18 52.7998 -57 137.5 -57 137.5z" />
    <glyph glyph-name="y" unicode="y" horiz-adv-x="510" 
d="M295 344l43 -254l2 -1l101 176c17.2002 30 19 38 19 52c0 23 -18.5 34 -18.5 78.5c0 26 27 48.5 57.5 48.5c40 0 50.5 -28.5 50.5 -63.5c0 -26 -15.5 -60.7002 -61.5 -136.5l-189 -311c-60.5996 -99.7002 -155 -165 -216 -165c-23 0 -68 9 -68 44c0 18 6 50 65 50
c22 0 36 -15 55 -15c18 0 60 17 101 85l26 41c-24 128 -81 368 -81 368c-3.2998 15.0996 -8.7002 21 -15 21c-14 0 -38 -23 -51 -42.5c-14.2998 9.2002 -20.2998 16.7998 -25 30.5c50 60 83 94 144 94c44 0 51.7998 -45.5996 61 -100z" />
    <glyph glyph-name="z" unicode="z" horiz-adv-x="457" 
d="M441 457l47.999 -21c-45.7998 -68.7002 -236.399 -257.7 -295.999 -325c29 -1 53 -7 66 -13c24 -14 54 -23 67 -23c17 0 62.5 0 100 64l35 -15c-46 -109 -106 -134 -161 -134c-34 0 -71 8 -96 23c-31 19 -54 27 -64 27c-3 0 -17 -16 -40 -55
c-19.7002 3 -48.7002 16.4004 -54 27c3 9 43 58 66 84c60 70 169 174 246 262c-7 1 -42 -6 -51 -6c-30 0 -44 8 -93 8c-29 0 -77 -24 -88 -52l-32 11c17 59 70 125 116 125c36 0 108 -10 157 -23c14 -4 23 -6 28 -6c6 0 16 8 46 42z" />
    <glyph glyph-name="braceleft" unicode="{" horiz-adv-x="307" 
d="M322.2 552l-27.7002 -166c-14.9004 -89 -60.5 -117.8 -127.8 -137l-0.900391 -4c57.7002 -28.2002 88.5 -67.7002 66.7998 -150l-39.2002 -149c-22.0996 -84 5.40039 -134 46.8008 -134c4.40039 -6 1.80078 -18 -5.09961 -24c-94.9004 0 -168.801 33 -136.501 163
l41.7998 170c14.7998 61 -1.5 101 -68.7002 110c-5.7998 8 -3.59961 23 6.80078 32c71 7 104.2 57 114.8 107l33.5 184c20.2998 113 119 153 203.6 153c4.40039 -6 1.80078 -18 -5.09961 -24c-38.0996 -11 -85.8994 -28.0996 -103.1 -131z" />
    <glyph glyph-name="bar" unicode="|" horiz-adv-x="220" 
d="M125.8 -233h-56.4004l130.8 931h56.4004z" />
    <glyph glyph-name="braceright" unicode="}" horiz-adv-x="307" 
d="M89.7998 -56l27.7002 166c14.9004 89 60.5 117.8 127.8 137l0.900391 4c-57.7002 28.2002 -88.5 67.7002 -66.7998 150l39.2002 149c22.0996 84 -5.40039 134 -46.8008 134c-4.40039 6 -1.80078 18 5.09961 24c94.9004 0 168.801 -33 136.501 -163l-41.7998 -170
c-14.7998 -61 1.5 -101 68.7002 -110c5.7998 -8 3.59961 -23 -6.80078 -32c-71 -7 -104.2 -57 -114.8 -107l-33.5 -184c-20.2998 -113 -119 -153 -203.6 -153c-4.40039 6 -1.80078 18 5.09961 24c38.0996 11 85.8994 28.0996 103.1 131z" />
    <glyph glyph-name="asciitilde" unicode="~" horiz-adv-x="449" 
d="M63 209c24 65 90 143 150 143c46 0 91 -65 136 -65c28 0 70 2 101 52c11.2998 1.7002 18.7002 0.299805 26 -6c-50 -107 -117 -135 -141 -135c-53 0 -86 65 -138 65c-35 0 -81 -13 -112 -57c-9 -3.7002 -17.7002 -1.7002 -22 3z" />
    <glyph glyph-name="uni00A0" unicode="&#xa0;" horiz-adv-x="274" 
 />
    <glyph glyph-name="exclamdown" unicode="&#xa1;" horiz-adv-x="251" 
d="M79 -228c-33 0 -64 18 -64 57c0 6 1 12 2 18c8 35 21 73 34 106c9 24 20 53 31 86c26 80 41 134 47 161c4 19 8 42 45 42c26 0 32 -8 32 -22c0 -9 -2 -19 -4 -32c-7 -38 -13 -96 -18 -149c-4 -38 -5 -67 -5 -88c0 -25 -2 -65 -9 -104c-12 -56 -61 -75 -91 -75zM195.9 329
c-28.5996 0 -49.3994 24.5 -49.3994 51.0996c0 24 24 59.9004 61.5996 59.9004c28.7998 0 49.8994 -19.9004 49.8994 -45.5c0 -45.9004 -37 -65.5 -62.0996 -65.5z" />
    <glyph glyph-name="cent" unicode="&#xa2;" horiz-adv-x="440" 
d="M418 525l40.002 -5.00098l-42.5996 -87.5c52.5996 -19.2002 71.5996 -59.2002 71.5996 -95.5c0 -37 -47 -50 -62 -50c-44 0 -54 19 -54 36c0 11.9004 1.5 15.5 2.7002 24l-140.9 -289.4c13.7002 -13.2002 28.9004 -16.6006 40.2002 -16.6006c23 0 83 29 123 75l40 -34
c-48 -49 -102 -92 -194 -92c-13.9004 0 -27.1006 1.90039 -39.6006 5.30078l-46.4004 -95.2998l-40 8l50.2002 102.5c-56.2002 32.2002 -90.2002 95.6006 -90.2002 141.501c0 166 140 292 265 292c13.0996 0 25.0996 -0.799805 36.1992 -2.2998zM209.402 98.6992
l148.101 302.8c-5.2998 2.7002 -10.5 3.5 -13.5 3.5c-66 0 -144 -87 -144 -232c0 -31.5996 3.59961 -55.7998 9.39941 -74.2998z" />
    <glyph glyph-name="sterling" unicode="&#xa3;" horiz-adv-x="468" 
d="M304 288c-22 -108 -61 -164 -107 -197c59 -1 81 -15 99 -27h-1c14 -11 26 -19 42 -19c21 0 70 10 116 58l23 -30c-28 -49 -84 -85 -168 -85c-45 0 -73 16 -98 32c-21 13 -41 26 -57 26c-15 0 -23 -14 -24 -23c-6 -28 -44 -40 -69 -40c-23 0 -43 13 -43 25v3
c4 20 36 41 72 57h-5c1 0 6 5 17 15c49 42 70 119 83 184l4 22h-64l9 46h65l1 5c16 77 50 129 117 184c40 34 91 52 151 52c27 0 87 -10 87 -42v-5c-5 -26 -34 -41 -69 -41c-27 0 -35 9 -44 18c-10 11 -20 21 -28 21c-32 0 -73 -61 -89 -139l-11 -53h129l-9 -46h-129v-1z
" />
    <glyph glyph-name="currency" unicode="&#xa4;" horiz-adv-x="482" 
d="M208 300c-2 -12 -4 -25 -4 -37c0 -52 25 -91 72 -91c57 0 105 59 119 127c2 13 3 24 3 35c0 55 -27 93 -68 93c-57 0 -108 -58 -122 -127zM266 122c-38 0 -71 8 -96 24l-57 -57l-49 59l61 42c-16 26 -23 52 -23 79c0 10 1 20 3 30c8 39 29 76 65 111
c-14 12 -30 27 -43 40l66 57l39 -54c33 16 67 24 106 24s71 -9 97 -25c19 19 47 46 62 60l45 -61l-62 -44c15 -24 22 -49 22 -75c0 -11 -2 -22 -3 -33c-8 -36 -29 -72 -62 -107c13 -13 30 -30 42 -43l-66 -58l-38 57c-33 -17 -70 -26 -109 -26z" />
    <glyph glyph-name="yen" unicode="&#xa5;" horiz-adv-x="524" 
d="M494 172l-10 -47h-136l-11 -50c-1 -7 -2 -12 -2 -16c0 -17 8 -24 27 -24h26c17 0 29 -4 28 -12l-3 -15l-12 -9s-100 2 -138 2c-36 0 -142 -2 -142 -2l-8 9l3 15c2 8 14 12 32 12h26c25 0 35 15 40 40l11 50h-137l10 47h136l12 55h-137l10 46h130c-21 76 -42 149 -63 226
c-7 29 -12 43 -23 43h-11c-8 1 -27 4 -26 10l4 19l3 9c24 -4 99 -6 111 -6c6 0 75 1 99 4l9 -11l-3 -14c-1 -6 -11 -11 -31 -11h-13c-3 0 -5 -3 -6 -10c0 -2 -1 -4 -1 -7c0 -8 3 -18 8 -29l43 -160c36 56 71 111 108 167c8 12 13 23 14 29c2 8 2 10 -1 10h-18
c-20 2 -24 6 -23 11l3 14l12 10c7 0 77 -4 90 -4c8 0 74 4 94 5l-1 -7l-3 -18c-1 -6 -2 -11 -33 -11h-7c-13.7998 0 -25.5 -12.7002 -48 -43c-50 -78 -96 -149 -146 -226h124l-9 -46h-136l-12 -55h137z" />
    <glyph glyph-name="brokenbar" unicode="&#xa6;" horiz-adv-x="229" 
d="M197 167l-74 -366h-92l74 366h92zM300 675l-74 -366h-92l74 366h92z" />
    <glyph glyph-name="section" unicode="&#xa7;" horiz-adv-x="474" 
d="M274 161c24 -13 55 -29 89 -49c14 14 24 35 29 61c2 9 3 18 3 26c0 96 -111 156 -175 187c-14 -14 -25 -35 -31 -61c-1 -9 -2 -16 -2 -25c0 -59 42 -114 87 -139zM385 658c75 0 138 -44 138 -107c0 -7 0 -13 -2 -20c-4 -23 -36 -42 -66 -42c-47 0 -54 24 -54 37v6
c2 11 10 21 18 29h-2c2 1 4 9 4 13c0 10 -4 47 -40 47c-44 0 -86 -49 -96 -99c-1 -8 -2 -16 -2 -22c0 -33 19 -46 48 -61c67 -34 162 -88 162 -185c0 -11 -1 -22 -4 -33c-10 -54 -42 -99 -92 -135c17 -19 22 -39 22 -61c0 -11 -1 -22 -3 -34c-14 -66 -117 -158 -221 -158
c-74 0 -138 44 -138 108c0 6 1 13 3 20c4 25 38 41 66 41c46 0 54 -24 54 -38v-5c-2 -7 -11 -21 -15 -27c-3 -3 -4 -3 -5 -12c-1 -1 -1 -2 -1 -3c0 -11 6 -46 43 -46c34 0 81 34 93 99c2 8 3 16 3 23c0 27 -10 48 -27 57c-130 71 -182 122 -182 192c0 11 1 23 3 35
c11 52 40 96 89 131c-10 18 -14 36 -14 54c0 15 2 28 5 41c14 66 105 155 213 155z" />
    <glyph glyph-name="dieresis" unicode="&#xa8;" horiz-adv-x="399" 
d="M166 574c0 30 24 54 54 54s54 -24 54 -54s-24 -54 -54 -54s-54 24 -54 54zM346 574c0 30 24 54 54 54s54 -24 54 -54s-24 -54 -54 -54s-54 24 -54 54z" />
    <glyph glyph-name="copyright" unicode="&#xa9;" horiz-adv-x="616" 
d="M461 217c-25 -31 -70.001 -63.999 -123.001 -63.999c-80.5 0 -125.8 56.5996 -125.8 124.399c0 9.7002 0.900391 19.6006 2.80078 29.6006c15 73 89 149 179 149c67 0 69 -14 101 -14l-4 -78l-31 -4c0.0996094 4.7002 0.199219 9.2998 0.199219 13.5996
c0 36.2998 -6.7002 59.3994 -69.2002 59.3994c-36 0 -91 -23 -112 -128c-2.7998 -14.2998 -4.2998 -28.0996 -4.2998 -41c0 -47.4004 20.4004 -82 72.3008 -82c49 0 82 34 96 50zM307.999 23.001c-132.4 0 -222.5 98.4004 -222.5 227.101
c0 18.0996 1.7998 36.7998 5.5 55.8994c31 156 177 282 327 282c131.5 0 221.5 -96.7998 221.5 -225.8c0 -18.2002 -1.7998 -37 -5.5 -56.2002c-30 -156 -176 -283 -326 -283zM410.999 550.001c-129 0 -254.001 -110.998 -280.001 -243.998
c-3.2998 -16.7002 -4.7998 -33.1006 -4.7998 -49.001c0 -110.2 76.2002 -195 189.8 -195c127 0 252 110 278 244c3.40039 17.0996 5.10059 33.7998 5.10059 49.8994c0 110.3 -77.2998 194.1 -188.1 194.1z" />
    <glyph glyph-name="ordfeminine" unicode="&#xaa;" horiz-adv-x="402" 
d="M337.2 503.7c13.2002 35 20.3994 79.2002 20.3994 89.7998c0 25.7002 -11.9004 48.7998 -31 48.7998c-52.7998 0 -103.6 -99.5996 -103.6 -167.6c0 -35.5996 4 -73.2998 33 -73.2998c18.5 0 59.4004 47.5 81.2002 102.3zM315.399 400.7
c0 2.59961 0.00195312 8.90137 0.702148 12.6016l-1.40039 0.599609c-40.9004 -38.9004 -55 -45.5 -81.0996 -45.5c-69 0 -91.0996 56.7002 -91.0996 93.7002c0 103.6 106.2 205.899 182.101 205.899c34.2998 0 48.8994 -14.5 55.499 -34.2998
c15.2998 10.5 27.0996 22.2002 37.5996 34.2998l36.2998 2c1.2002 0 1.2998 -0.799805 1.2998 -2.09961c0 0 -14.7002 -55.2998 -20.9004 -81l-31.2002 -129.4c-3 -12.5996 -4.59961 -21.7998 -4.59961 -27.7002c0 -7.90039 2.59961 -10.6006 5.89941 -10.6006
c7.2998 0 18.7998 8.2998 37.5996 25.0996l16.5 -15.2002c-46.9004 -46.2002 -68 -60.7002 -102.3 -60.7002c-33.7002 0 -40.9004 20.4004 -40.9004 32.3008z" />
    <glyph glyph-name="guillemotleft" unicode="&#xab;" horiz-adv-x="560" 
d="M596 471l-18 -89c-57 -65 -117 -121 -181 -166c43 -40 83 -97 114 -164l-19 -94c-82 125 -153 206 -211 242l7 33c81 50 184 129 308 238zM417 471l-18 -89c-57 -65 -117 -121 -181 -166c43 -40 83 -97 114 -164l-19 -94c-82 125 -152 206 -211 242l6 33
c82 50 185 129 309 238z" />
    <glyph glyph-name="logicalnot" unicode="&#xac;" horiz-adv-x="584" 
d="M499 131l44 222h-454l11 51h550l-55 -273h-96z" />
    <glyph glyph-name="uni00AD" unicode="&#xad;" horiz-adv-x="374" 
d="M333 233h-224c-22 0 -32 9 -32 18v3c4 17 32 40 54 40h226c24 0 32 -8 32 -17v-4c-3 -13 -33 -40 -56 -40z" />
    <glyph glyph-name="registered" unicode="&#xae;" horiz-adv-x="616" 
d="M478 372c-10 -52 -69.999 -75.999 -69.999 -75.999l30 -82c9 -22 17 -31 33 -31l-3 -13c-10 -3 -18 -4 -23 -4c-27 0 -51 12 -58 38l-30 78c-4 2 -21 3 -26 3l-17 -91c-1 -5 -2 -7 5 -7h11c8 0 11 -2 10 -6l-3 -14s-51 2 -65 2l-54 -2l3 14c1 4 5 6 11 6h12c6 0 8 1 9 8
l43 218c1 5 1 11 -2 11l-16 -1c-6 0 -9 2 -8 6l2 13c21 3 58 5 129 5c61.2998 0 78.3994 -32.7002 78.3994 -60.9004c0 -4.90039 -0.5 -9.7002 -1.40039 -14.1006zM418.001 372.001c1.59961 7.7998 2.5 14.9004 2.5 21.2002c0 21.2998 -9.7998 33.7998 -34.5 33.7998
c-11 0 -23 -1 -28 -3l-22 -115c30 0 70 1 82 63zM308.001 23.002c-132.4 0 -222.5 98.4004 -222.5 227.101c0 18.0996 1.7998 36.7998 5.5 55.8994c31 156 177 282 327 282c131.5 0 221.5 -96.7998 221.5 -225.8c0 -18.2002 -1.7998 -37 -5.5 -56.2002
c-30 -156 -176 -283 -326 -283zM411.001 550.002c-129 0 -254.001 -110.998 -280.001 -243.998c-3.2998 -16.7002 -4.7998 -33.1006 -4.7998 -49.001c0 -110.2 76.2002 -195 189.8 -195c127 0 252 110 278 244c3.40039 17.0996 5.10059 33.7998 5.10059 49.8994
c0 110.3 -77.2998 194.1 -188.1 194.1z" />
    <glyph glyph-name="macron" unicode="&#xaf;" horiz-adv-x="421" 
d="M433 523h-242c-22 0 -30 8 -30 17v2c3 13 27 33 50 33h242c23 0 31 -9 31 -16v-3c-3 -13 -27 -33 -51 -33z" />
    <glyph glyph-name="degree" unicode="&#xb0;" horiz-adv-x="254" 
d="M222 458c42.2002 0 70.7012 38.6006 70.7012 76.7002c0 28.4004 -14.5 58.3008 -51.7002 58.3008c-42.5 0 -70.9004 -42.7998 -70.9004 -80.2002c0 -28.9004 17.2998 -54.8008 51.8994 -54.8008zM134.901 510.201c0 59.7998 51.5996 114.799 111.1 114.799
c48 0 82.0996 -36.0996 82.0996 -84.5996c0 -61.0996 -51.5 -114.399 -110.1 -114.399c-48.0996 0 -83.0996 36.2998 -83.0996 84.2002z" />
    <glyph glyph-name="plusminus" unicode="&#xb1;" horiz-adv-x="551" 
d="M501 73l-12 -58h-424l12 58h424zM385 346h171l-12 -58h-171l-35 -171h-85l34 171h-171l12 58h172l34 172h86z" />
    <glyph glyph-name="two.superior" unicode="&#xb2;" horiz-adv-x="332" 
d="M203 573c-21 0 -33 15 -33 30c0 1 1 3 1 5c6 27 41 79 135 79c54 0 109 -15 109 -67c0 -5 0 -11 -2 -17c-7 -35 -38 -66 -80 -96c-92 -62 -114 -82 -122 -108h107c10 15 15 25 26 50l44 -10l-32 -79h-246c10 49 42 73 150 152c37 27 55 53 63 89c1 6 2 12 2 17
c0 30 -20 39 -29 39c-25 0 -41 -14 -44 -25c-1 -6 -1 -8 0 -11v-17c-4 -19 -33 -31 -49 -31z" />
    <glyph glyph-name="three.superior" unicode="&#xb3;" horiz-adv-x="332" 
d="M312 621v12c0 18 -10 24 -18 24c-12 0 -41 -10 -46 -31c-4 -13 -14 -37 -48 -37c-27 0 -30 15 -30 23v3c4 18 39 73 142 73c59 0 94 -20 94 -52c0 -3 0 -6 -1 -10c-5 -24 -33 -48 -67 -66c32 -9 64 -32 64 -72c0 -5 -1 -11 -2 -17c-14 -70 -100 -117 -190 -117
c-44 0 -95 12 -95 33c0 1 0 2 1 3c3 16 16 32 33 32c28 0 35 -12 39 -21c5 -10 21 -17 39 -17c13 0 66 15 79 80c2 6 2 11 2 16c0 39 -36 48 -52 48c-2 0 -12 -1 -42 -7l3 27c45 6 86 33 95 73z" />
    <glyph glyph-name="acute" unicode="&#xb4;" horiz-adv-x="366" 
d="M311 701l10 1c4 2 15 3 24 3c41 0 52 -11 59 -19h-1c2 -2 11 -11 13 -12l1 -3l-144 -114c-19 -15 -29 -20 -47 -20s-34 6 -34 14c0 5 5 14 15 26c34 41 70 83 104 124z" />
    <glyph glyph-name="uni00B5" unicode="&#xb5;" horiz-adv-x="519" 
d="M61 -232c-18 0 -53 21 -53 56c0 4 0 9 1 13c5 21 13 45 23 71s23 52 31 88c3 14 5 30 8 50c4 26 0 58 8 91l43 186c5 25 14 111 14 111l128 13s-13 -72 -20 -104l-45 -193c-6 -25 -9 -47 -9 -65c0 -27 8 -44 30 -44c40 0 88 27 116 57l78 336l121 14l-75 -322
c-8 -36 -13 -60 -13 -72c0 -8 2 -12 6 -12c14 0 26 9 47 41l30 -13c-31 -51 -62 -82 -131 -82c-35 0 -53 23 -60 55c-48 -33 -95 -55 -150 -55c-16 0 -31 3 -44 9c-5 -32 -9 -64 -9 -93c-1 -26 -1 -55 -5 -72c-10 -43 -39 -64 -70 -64z" />
    <glyph glyph-name="paragraph" unicode="&#xb6;" horiz-adv-x="626" 
d="M481 -144c-3 -17 -5 -28 -5 -37c0 -21 10 -24 32 -25h30c3 0 4 -3 4 -7l-5 -21h-329l5 21c1 5 3 7 7 7h30c33 1 41 11 51 63l76 370c-16 -7 -48 -12 -80 -12c-72 0 -175 35 -175 164c0 18 2 38 6 60c25 123 113 207 246 207c75 0 135 -5 162 -5c34 0 69 3 69 3l111 2
l-4 -21c-1 -4 -3 -7 -6 -7h-30c-35 0 -43 -16 -52 -62zM377 -207c29 0 37 20 45 62l143 701c3 15 4 27 4 35c0 23 -10 24 -21 25c-32 0 -40 -32 -46 -63l-142 -696c-2 -11 -4 -23 -4 -34c0 -16 5 -30 21 -30z" />
    <glyph glyph-name="periodcentered" unicode="&#xb7;" horiz-adv-x="274" 
d="M179 204c-29 0 -45 20 -45 43c0 4 1 7 2 11c5 28 35 54 65 54c24 0 44 -19 44 -44c0 -3 0 -6 -1 -10c-6 -29 -35 -54 -65 -54z" />
    <glyph glyph-name="cedilla" unicode="&#xb8;" horiz-adv-x="565" 
d="M286 -79c-14 0 -23 -1 -47 -12l-13 17l58 89h63l-34 -55h8c47 0 80 -20 80 -54c0 -4 -1 -8 -2 -11c-8 -45 -68 -74 -142 -74c-38 0 -58 8 -88 22l19 27c33 -15 58 -16 70 -16c18 0 51 12 56 36v4c0 16 -18 27 -28 27z" />
    <glyph glyph-name="one.superior" unicode="&#xb9;" horiz-adv-x="332" 
d="M226 432l30 148c5 28 1 33 9 38c-10 -1 -55 -16 -78 -24l-4 33c53 19 81 31 135 61h46l-52 -256c-1 -6 -2 -11 -2 -15c0 -19 10 -29 36 -29h9c4 0 8 -3 6 -8l-3 -16l-2 -2s-70 2 -109 2c-36 0 -93 -2 -93 -2l-1 2l3 16c1 5 5 8 10 8h8c34 0 46 16 52 44z" />
    <glyph glyph-name="ordmasculine" unicode="&#xba;" horiz-adv-x="374" 
d="M292 535c-35 0 -63 -45 -74 -97c-2 -10 -3 -21 -3 -32c0 -38 14 -72 48 -72c19 0 55 16 69 84c3 18 5 35 5 49c0 44 -18 68 -45 68zM118 428c18 86 88 140 187 140c95 0 130 -47 130 -103c0 -10 -1 -21 -3 -31c-15 -69 -79 -134 -187 -134c-76 0 -129 44 -129 105
c0 8 1 15 2 23z" />
    <glyph glyph-name="guillemotright" unicode="&#xbb;" horiz-adv-x="560" 
d="M51 -41l18 89c57 65 117 121 181 166c-43 40 -83 97 -114 164l19 94c82 -125 153 -206 211 -242l-7 -33c-81 -50 -184 -129 -308 -238zM230 -41l18 89c57 65 117 121 181 166c-43 40 -83 97 -114 164l19 94c82 -125 152 -206 211 -242l-6 -33
c-82 -50 -185 -129 -309 -238z" />
    <glyph glyph-name="onequarter" unicode="&#xbc;" horiz-adv-x="684" 
d="M662 601h51l-592 -655h-51zM651 181l-23 -113h51l-7 -38h-52l-11 -57c-3 -15 -3 -20 1 -20h16c17 0 20 -6 19 -10l-4 -22l-85 1l-84 -1l4 23c1 3 7 9 24 9h18c4 0 6 2 9 19l12 58h-140l-4 11c33 32 56 69 70 98c12 25 29 70 37 106h68c-8 -39 -21 -74 -35 -111
c-9 -22 -27 -49 -39 -66h51l17 87s53 25 53 26h34zM224 383l30 148c6 28 2 33 9 38c-9 -2 -54 -17 -78 -25l-3 34c53 19 81 31 135 61h46l-52 -256c-6 -29 1 -44 34 -44h9c4 0 7 -3 6 -8l-3 -16l-2 -2s-70 2 -109 2c-36 0 -93 -2 -93 -2l-2 2l4 16c1 5 4 8 9 8h8
c34 0 47 15 52 44z" />
    <glyph glyph-name="onehalf" unicode="&#xbd;" horiz-adv-x="684" 
d="M662 601h51l-592 -655h-51zM483 130c-23 0 -35 19 -31 35c5 27 41 79 135 79c59 0 120 -18 107 -84c-7 -35 -39 -66 -80 -96c-93 -62 -114 -82 -122 -107h107c9 14 15 24 26 49l43 -9l-31 -80h-247c10 49 43 73 151 152c36 27 55 53 62 89c9 44 -16 56 -27 56
c-25 0 -41 -14 -43 -25c-1 -5 -1 -8 -1 -11c0 -5 1 -15 0 -17c-3 -18 -32 -31 -49 -31zM227 383l30 148c6 28 2 33 9 38c-10 -2 -55 -17 -78 -25l-4 34c53 19 81 31 135 61h46l-52 -256c-6 -29 2 -44 34 -44h9c4 0 8 -3 7 -8l-4 -16l-2 -2s-70 2 -109 2c-35 0 -93 -2 -93 -2
l-1 2l3 16c1 5 5 8 10 8h8c34 0 46 15 52 44z" />
    <glyph glyph-name="threequarters" unicode="&#xbe;" horiz-adv-x="684" 
d="M662 601h51l-592 -655h-51zM311 570c6 28 -7 36 -17 36c-12 0 -41 -9 -47 -31c-3 -13 -13 -37 -47 -37c-32 0 -31 22 -30 26c4 19 39 73 142 73c65 0 101 -23 93 -61c-5 -25 -33 -49 -67 -67c36 -10 72 -38 62 -89c-14 -70 -100 -116 -190 -116c-46 0 -99 12 -95 35
c4 16 17 32 34 32c28 0 35 -12 39 -21c5 -10 21 -17 39 -17c13 0 66 15 79 80c11 53 -32 65 -50 65c-2 0 -13 -2 -42 -7l3 26c45 6 86 33 94 73zM656 184l-23 -113h51l-8 -39h-51l-12 -57c-3 -15 -3 -20 1 -20h16c17 0 20 -5 20 -9l-5 -23l-85 1l-84 -1l5 23c0 4 6 9 23 9
h18c5 0 6 3 9 20l12 57h-140l-4 11c34 33 56 69 70 98c12 26 30 70 37 107h69c-8 -40 -22 -75 -35 -111c-9 -22 -27 -50 -40 -66h51l18 86s53 26 53 27h34z" />
    <glyph glyph-name="questiondown" unicode="&#xbf;" horiz-adv-x="430" 
d="M271 -141c3 14 0 22 -2 27c-3 6 -3 17 -1 27c5 25 37 39 67 39c21 0 47 -14 47 -44c0 -4 0 -8 -1 -12c-7 -35 -32 -58 -71 -86c-36 -25 -84 -39 -145 -39c-100 0 -157 47 -157 120c0 11 1 21 3 33c15 74 88 121 146 158c31 20 70 47 84 119l5 23c4 22 11 34 42 34
c23 0 29 -6 29 -18c0 -5 -1 -10 -2 -16l-5 -25c-9 -41 -22 -98 -107 -163c-41 -31 -64 -59 -74 -109c-2 -12 -4 -23 -4 -34c0 -47 21 -86 57 -86c44 0 84 24 89 52zM289.3 329c-28.5996 0 -44.3008 24.5 -38.9004 51.0996c4.90039 24 36.2002 59.9004 73.7998 59.9004
c28.7998 0 45.7998 -19.9004 40.5996 -45.5c-9.2998 -45.9004 -50.3994 -65.5 -75.499 -65.5z" />
    <glyph glyph-name="Agrave" unicode="&#xc0;" horiz-adv-x="719" 
d="M316 288h154c-16 83 -24 121 -41 206c-38 -65 -115 -194 -115 -194c-4.2002 -7.09961 -4.2002 -12 2 -12zM633 91c5.7002 -28.4004 11.499 -50.1992 58.999 -56.999l14 -2c4 -0.599609 10 -3 10 -9l-4 -23l-2 -2s-37 2 -76 2c-36 0 -184 -2 -184 -2l-2 2l3 23
c0.799805 6.5 2 8.2998 7 9l11 2c24.4004 4.40039 46.8008 13.9004 42.001 39l-32 168h-189c-8 0 -12.7002 -3.59961 -19 -14l-93 -154c-13 -22 9.59961 -34.5996 34 -39l11 -2c5 -0.700195 7 -3 7 -9l-3 -23l-2 -2s-88 2 -124 2c-39 0 -86 -2 -86 -2l-2 2l2 23
c0.5 6.09961 6 8.39941 10 8.99902l14 2c47.5 6.7998 69.7998 35.7002 84.7002 60.5l320.3 532.5c14.2002 23.5996 36 31 47 31c22.5 0 29.7998 -10 34 -31zM435.999 818.001l108 -84c9 -7 12 -13 12 -19c0 -5 -3 -17 -17 -17c-9 0 -21 3 -41 12l-145 63z" />
    <glyph glyph-name="Aacute" unicode="&#xc1;" horiz-adv-x="719" 
d="M316 288h154c-16 83 -24 121 -41 206c-38 -65 -115 -194 -115 -194c-4.2002 -7.09961 -4.2002 -12 2 -12zM633 91c5.7002 -28.4004 11.499 -50.1992 58.999 -56.999l14 -2c4 -0.599609 10 -3 10 -9l-4 -23l-2 -2s-37 2 -76 2c-36 0 -184 -2 -184 -2l-2 2l3 23
c0.799805 6.5 2 8.2998 7 9l11 2c24.4004 4.40039 46.8008 13.9004 42.001 39l-32 168h-189c-8 0 -12.7002 -3.59961 -19 -14l-93 -154c-13 -22 9.59961 -34.5996 34 -39l11 -2c5 -0.700195 7 -3 7 -9l-3 -23l-2 -2s-88 2 -124 2c-39 0 -86 -2 -86 -2l-2 2l2 23
c0.5 6.09961 6 8.39941 10 8.99902l14 2c47.5 6.7998 69.7998 35.7002 84.7002 60.5l320.3 532.5c14.2002 23.5996 36 31 47 31c22.5 0 29.7998 -10 34 -31zM537.999 824.001l58 -56l-153 -58c-23 -9 -36 -12 -45 -12c-8 0 -12 4 -12 12v3c1 7 6 19 15 25z" />
    <glyph glyph-name="Acircumflex" unicode="&#xc2;" horiz-adv-x="719" 
d="M316 288h154c-16 83 -24 121 -41 206c-38 -65 -115 -194 -115 -194c-4.2002 -7.09961 -4.2002 -12 2 -12zM633 91c5.7002 -28.4004 11.499 -50.1992 58.999 -56.999l14 -2c4 -0.599609 10 -3 10 -9l-4 -23l-2 -2s-37 2 -76 2c-36 0 -184 -2 -184 -2l-2 2l3 23
c0.799805 6.5 2 8.2998 7 9l11 2c24.4004 4.40039 46.8008 13.9004 42.001 39l-32 168h-189c-8 0 -12.7002 -3.59961 -19 -14l-93 -154c-13 -22 9.59961 -34.5996 34 -39l11 -2c5 -0.700195 7 -3 7 -9l-3 -23l-2 -2s-88 2 -124 2c-39 0 -86 -2 -86 -2l-2 2l2 23
c0.5 6.09961 6 8.39941 10 8.99902l14 2c47.5 6.7998 69.7998 35.7002 84.7002 60.5l320.3 532.5c14.2002 23.5996 36 31 47 31c22.5 0 29.7998 -10 34 -31zM517.999 805.001c24 -36 55 -67 86 -94l-23 -21c-36 18 -64 35 -93 59c-40 -26 -72 -42 -112 -59l-15 21
c42 28 78 60 114 94h43z" />
    <glyph glyph-name="Atilde" unicode="&#xc3;" horiz-adv-x="719" 
d="M316 288h154c-16 83 -24 121 -41 206c-38 -65 -115 -194 -115 -194c-4.2002 -7.09961 -4.2002 -12 2 -12zM633 91c5.7002 -28.4004 11.499 -50.1992 58.999 -56.999l14 -2c4 -0.599609 10 -3 10 -9l-4 -23l-2 -2s-37 2 -76 2c-36 0 -184 -2 -184 -2l-2 2l3 23
c0.799805 6.5 2 8.2998 7 9l11 2c24.4004 4.40039 46.8008 13.9004 42.001 39l-32 168h-189c-8 0 -12.7002 -3.59961 -19 -14l-93 -154c-13 -22 9.59961 -34.5996 34 -39l11 -2c5 -0.700195 7 -3 7 -9l-3 -23l-2 -2s-88 2 -124 2c-39 0 -86 -2 -86 -2l-2 2l2 23
c0.5 6.09961 6 8.39941 10 8.99902l14 2c47.5 6.7998 69.7998 35.7002 84.7002 60.5l320.3 532.5c14.2002 23.5996 36 31 47 31c22.5 0 29.7998 -10 34 -31zM563.999 748.001c21 0 36 9 58 56l24 -10c-24 -65 -60 -104 -106 -104c-22 0 -40 15 -58 29c-16 13 -32 25 -50 25
c-26 0 -40 -14 -57 -51l-24 8c26 65 56 102 99 102c30 0 49 -16 66 -31c14 -13 29 -24 48 -24z" />
    <glyph glyph-name="Adieresis" unicode="&#xc4;" horiz-adv-x="719" 
d="M326 700c0 30 24 54 54 54s54 -24 54 -54s-24 -54 -54 -54s-54 24 -54 54zM548 700c0 30 24 54 54 54s54 -24 54 -54s-24 -54 -54 -54s-54 24 -54 54zM316 288h154c-16 83 -24 121 -41 206c-38 -65 -115 -194 -115 -194c-4.2002 -7.09961 -4.2002 -12 2 -12zM633 91
c5.7002 -28.4004 11.499 -50.1992 58.999 -56.999l14 -2c4 -0.599609 10 -3 10 -9l-4 -23l-2 -2s-37 2 -76 2c-36 0 -184 -2 -184 -2l-2 2l3 23c0.799805 6.5 2 8.2998 7 9l11 2c24.4004 4.40039 46.8008 13.9004 42.001 39l-32 168h-189c-8 0 -12.7002 -3.59961 -19 -14
l-93 -154c-13 -22 9.59961 -34.5996 34 -39l11 -2c5 -0.700195 7 -3 7 -9l-3 -23l-2 -2s-88 2 -124 2c-39 0 -86 -2 -86 -2l-2 2l2 23c0.5 6.09961 6 8.39941 10 8.99902l14 2c47.5 6.7998 69.7998 35.7002 84.7002 60.5l320.3 532.5c14.2002 23.5996 36 31 47 31
c22.5 0 29.7998 -10 34 -31z" />
    <glyph glyph-name="Aring" unicode="&#xc5;" horiz-adv-x="719" 
d="M316 288h154c-16 83 -24 121 -41 206c-38 -65 -115 -194 -115 -194c-4.2002 -7.09961 -4.2002 -12 2 -12zM633 91c5.7002 -28.4004 11.5 -50.1982 59 -56.998l14 -2c4 -0.599609 10 -3 10 -9l-4 -23l-2 -2s-37 2 -76 2c-36 0 -184 -2 -184 -2l-2 2l3 23
c0.799805 6.5 2 8.2998 7 9l11 2c24.4004 4.40039 46.8008 13.9004 42.001 39l-32 168h-189c-8 0 -12.7002 -3.59961 -19 -14l-93 -154c-13 -22 9.59961 -34.5996 34 -39l11 -2c5 -0.700195 7 -3 7 -9l-3 -23l-2 -2s-88 2 -124 2c-39 0 -86 -2 -86 -2l-2 2l2 23
c0.5 6.09961 6 8.39941 10 8.99902l14 2c47.5 6.7998 69.7998 35.7002 84.7002 60.5l320.3 532.5c3 5 6.2998 9.2002 9.7998 12.7998c-22.9004 10.5996 -37.8008 32.6992 -37.8008 60.1992c0 5 1 11 2 16c9 45 55 83 102 83c40 0 71 -28 71 -67c0 -5 -1 -11 -2 -16
c-6.7002 -33.5996 -34.2002 -63.2998 -67.6006 -76.2002c1.40039 -3.7002 2.60059 -8 3.60059 -12.7998zM514 768.002c-28 0 -54 -25 -60 -52c0 -4 -1 -7 -1 -10c0 -22 15 -42 40 -42c29 0 55 26 60 52c1 4 1 7 1 11c0 23 -16 41 -40 41z" />
    <glyph glyph-name="AE" unicode="&#xc6;" horiz-adv-x="873" 
d="M333 305l152 0.000976562l42 240c0.799805 4.2002 1.2002 7.90039 1.2002 11c0 7.2998 -2.09961 11.3994 -6.09961 11.3994c-5 0 -12.9004 -6.5 -23.1006 -21.4004zM495 1.00098l-148.001 -2l-1 2l4 22c1 6 4 10 9 10h26c39 0 55 16 60 44l33 189h-171l-137 -198
c-4.59961 -6.59961 -6.59961 -12.0996 -6.59961 -16.5c0 -14.9004 22.9004 -18.5 47.6006 -18.5c4 0 5 -4 5 -6l-5 -26l-2 -2s-72 2 -109 2c-34 0 -96 -2 -96 -2l-2 2l4 24c1 5 6 8 11 8h22c27 0 40 2 65 37l335 492c7.2002 10.7002 10.5 19.4004 10.5 26.5
c0 17.4004 -20.2002 24.5 -51.5 24.5c-6 0 -7 3 -6 7l4 25l2 1h212h310c-6 -57 -8 -110 -8 -161l-40 -9c-4 51 -15 125 -80 125h-124c-9 0 -15 -8 -19 -29l-36 -206h109c23 0 32 30 45 71c1 4 8 11 18 11h20l4 -10c-5 -16 -17 -57 -23 -93c-7 -36 -9 -76 -10 -93l-7 -9h-21
c-9 0 -14 6 -13 10c0.200195 9.7998 0.5 18.8994 0.5 27.1992c0 26.4004 -3 43.8008 -20.5 43.8008h-110l-43 -248c-1.5 -6.7998 -2.2002 -12.2002 -2.2002 -16.2998c0 -9.7002 3.90039 -12.7002 10.2002 -12.7002h147c53 0 98 59 127 133l40 -10c-20 -53 -39 -115 -56 -169
h-333z" />
    <glyph glyph-name="Ccedilla" unicode="&#xc7;" horiz-adv-x="637" 
d="M354 -10c-189.5 0 -271.901 122.699 -271.901 260.1c0 21.4004 2 43.2002 5.90039 64.9004c34 197 207 343 384 343c128 0 153 -44 202 -44c-6 -58 -9 -114 -9 -169l-38 -8c-13 95 -39 180 -162 180c-93 0 -214 -85 -249 -283
c-4.7998 -27.5 -7.39941 -55.5996 -7.39941 -83c0 -114.3 44.2998 -217 152.399 -217c77 0 153 32 242 119l25 -24c-65.0996 -72.2998 -137.199 -118.2 -215.499 -133.4l-30.5 -49.5996l17 2c45 0 74 -19 74 -53c0 -3 0 -8 -1 -12c-9 -45 -64 -70 -137 -70
c-38 0 -59 8 -88 22l18 23c33 -15 58 -16 70 -16c18 0 51 12 56 36v5c0 16 -18 29 -28 29c-13 0 -23 -3 -47 -15l-9 17l48.7002 76h-1.7002z" />
    <glyph glyph-name="Egrave" unicode="&#xc8;" horiz-adv-x="538" 
d="M25 0l-2.00098 2l4 22c1 6 5 9 9 9h13c39 0 55 12 61 44l87 492c0.700195 4.5 1.10059 8.59961 1.10059 12.3994c0 22.7002 -13.5 31.6006 -46.0996 31.6006h-14c-4 0 -7 3 -6 8l4 23l3 2h448c-7 -58 -9 -111 -9 -162l-40 -9c-4 51 -15 125 -79 125h-125
c-9 0 -15 -8 -19 -29l-36 -206h108c24 0 34 31 47 71c0 4 7 11 17 11h20l4 -10c-5 -16 -17 -56 -23 -93c-6 -36 -9 -76 -10 -93l-7 -9h-20c-10 0 -15 6 -14 10c0.5 10.2002 0.900391 19.7998 0.900391 28.3994c0 25.7002 -3.90039 42.6006 -21.9004 42.6006h-108l-44 -248
c-1.2002 -6.7002 -1.7002 -12 -1.7002 -16.0996c0 -9.90039 3.2998 -12.9004 9.7002 -12.9004h147c53 0 98 59 127 133l40 -10c-19 -53 -40 -115 -56 -169h-469zM410.999 817l108 -84c9 -7 12 -13 12 -19c0 -5 -3 -17 -17 -17c-9 0 -21 3 -41 12l-145 63z" />
    <glyph glyph-name="Eacute" unicode="&#xc9;" horiz-adv-x="562" 
d="M25 0l-2.00098 2l4 22c1 6 5 9 9 9h13c39 0 55 12 61 44l87 492c0.700195 4.5 1.10059 8.59961 1.10059 12.3994c0 22.7002 -13.5 31.6006 -46.0996 31.6006h-14c-4 0 -7 3 -6 8l4 23l3 2h448c-7 -58 -9 -111 -9 -162l-40 -9c-4 51 -15 125 -79 125h-125
c-9 0 -15 -8 -19 -29l-36 -206h108c24 0 34 31 47 71c0 4 7 11 17 11h20l4 -10c-5 -16 -17 -56 -23 -93c-6 -36 -9 -76 -10 -93l-7 -9h-20c-10 0 -15 6 -14 10c0.5 10.2002 0.900391 19.7998 0.900391 28.3994c0 25.7002 -3.90039 42.6006 -21.9004 42.6006h-108l-44 -248
c-1.2002 -6.7002 -1.7002 -12 -1.7002 -16.0996c0 -9.90039 3.2998 -12.9004 9.7002 -12.9004h147c53 0 98 59 127 133l40 -10c-19 -53 -40 -115 -56 -169h-469zM515.999 824l58 -56l-153 -58c-23 -9 -36 -12 -45 -12c-8 0 -12 4 -12 12v3c1 7 6 19 15 25z" />
    <glyph glyph-name="Ecircumflex" unicode="&#xca;" horiz-adv-x="538" 
d="M25 0l-2.00098 2l4 22c1 6 5 9 9 9h13c39 0 55 12 61 44l87 492c0.700195 4.5 1.10059 8.59961 1.10059 12.3994c0 22.7002 -13.5 31.6006 -46.0996 31.6006h-14c-4 0 -7 3 -6 8l4 23l3 2h448c-7 -58 -9 -111 -9 -162l-40 -9c-4 51 -15 125 -79 125h-125
c-9 0 -15 -8 -19 -29l-36 -206h108c24 0 34 31 47 71c0 4 7 11 17 11h20l4 -10c-5 -16 -17 -56 -23 -93c-6 -36 -9 -76 -10 -93l-7 -9h-20c-10 0 -15 6 -14 10c0.5 10.2002 0.900391 19.7998 0.900391 28.3994c0 25.7002 -3.90039 42.6006 -21.9004 42.6006h-108l-44 -248
c-1.2002 -6.7002 -1.7002 -12 -1.7002 -16.0996c0 -9.90039 3.2998 -12.9004 9.7002 -12.9004h147c53 0 98 59 127 133l40 -10c-19 -53 -40 -115 -56 -169h-469zM443.999 805c24 -36 55 -67 86 -94l-23 -21c-36 18 -64 35 -93 59c-40 -26 -72 -42 -112 -59l-15 21
c42 28 78 60 114 94h43z" />
    <glyph glyph-name="Edieresis" unicode="&#xcb;" horiz-adv-x="538" 
d="M25 0l-2.00098 2l4 22c1 6 5 9 9 9h13c39 0 55 12 61 44l87 492c0.700195 4.5 1.10059 8.59961 1.10059 12.3994c0 22.7002 -13.5 31.6006 -46.0996 31.6006h-14c-4 0 -7 3 -6 8l4 23l3 2h448c-7 -58 -9 -111 -9 -162l-40 -9c-4 51 -15 125 -79 125h-125
c-9 0 -15 -8 -19 -29l-36 -206h108c24 0 34 31 47 71c0 4 7 11 17 11h20l4 -10c-5 -16 -17 -56 -23 -93c-6 -36 -9 -76 -10 -93l-7 -9h-20c-10 0 -15 6 -14 10c0.5 10.2002 0.900391 19.7998 0.900391 28.3994c0 25.7002 -3.90039 42.6006 -21.9004 42.6006h-108l-44 -248
c-1.2002 -6.7002 -1.7002 -12 -1.7002 -16.0996c0 -9.90039 3.2998 -12.9004 9.7002 -12.9004h147c53 0 98 59 127 133l40 -10c-19 -53 -40 -115 -56 -169h-469zM229.999 749c0 30 24 54 54 54s54 -24 54 -54s-24 -54 -54 -54s-54 24 -54 54zM451.999 749c0 30 24 54 54 54
s54 -24 54 -54s-24 -54 -54 -54s-54 24 -54 54z" />
    <glyph glyph-name="Igrave" unicode="&#xcc;" horiz-adv-x="343" 
d="M271 122c-3.40039 -18.7002 -5.2002 -33.4004 -5.2002 -45c0 -40 19.7002 -41.7002 73.2002 -44c5 -6 6 -29 -1 -35c-50 1 -91 2 -150 2c-57 0 -98 -1 -147 -2c-5 6 -6 29 1 35c71 3 91 6 106 89l70 401c3.2998 18.0996 5 32.5 5 44c0 41 -18.0996 42.7002 -72 45
c-5 6 -7 29 0 35c50 -1 91 -2 150 -2c57 0 98 1 147 2c5 -6 5 -29 -2 -35c-71 -3 -90 -6 -105 -89zM258 817l108 -84c9 -7 12 -13 12 -19c0 -5 -3 -17 -17 -17c-9 0 -21 3 -41 12l-145 63z" />
    <glyph glyph-name="Iacute" unicode="&#xcd;" horiz-adv-x="343" 
d="M271 122c-3.40039 -18.7002 -5.2002 -33.4004 -5.2002 -45c0 -40 19.7002 -41.7002 73.2002 -44c5 -6 6 -29 -1 -35c-50 1 -91 2 -150 2c-57 0 -98 -1 -147 -2c-5 6 -6 29 1 35c71 3 91 6 106 89l70 401c3.2998 18.0996 5 32.5 5 44c0 41 -18.0996 42.7002 -72 45
c-5 6 -7 29 0 35c50 -1 91 -2 150 -2c57 0 98 1 147 2c5 -6 5 -29 -2 -35c-71 -3 -90 -6 -105 -89zM361 823l58 -56l-153 -58c-23 -9 -36 -12 -45 -12c-8 0 -12 4 -12 12v3c1 7 6 19 15 25z" />
    <glyph glyph-name="Icircumflex" unicode="&#xce;" horiz-adv-x="343" 
d="M271 122c-3.40039 -18.7002 -5.2002 -33.4004 -5.2002 -45c0 -40 19.7002 -41.7002 73.2002 -44c5 -6 6 -29 -1 -35c-50 1 -91 2 -150 2c-57 0 -98 -1 -147 -2c-5 6 -6 29 1 35c71 3 91 6 106 89l70 401c3.2998 18.0996 5 32.5 5 44c0 41 -18.0996 42.7002 -72 45
c-5 6 -7 29 0 35c50 -1 91 -2 150 -2c57 0 98 1 147 2c5 -6 5 -29 -2 -35c-71 -3 -90 -6 -105 -89zM346 805c24 -36 55 -67 86 -94l-23 -21c-36 18 -64 35 -93 59c-40 -26 -72 -42 -112 -59l-15 21c42 28 78 60 114 94h43z" />
    <glyph glyph-name="Idieresis" unicode="&#xcf;" horiz-adv-x="343" 
d="M271 122c-3.40039 -18.7002 -5.2002 -33.4004 -5.2002 -45c0 -40 19.7002 -41.7002 73.2002 -44c5 -6 6 -29 -1 -35c-50 1 -91 2 -150 2c-57 0 -98 -1 -147 -2c-5 6 -6 29 1 35c71 3 91 6 106 89l70 401c3.2998 18.0996 5 32.5 5 44c0 41 -18.0996 42.7002 -72 45
c-5 6 -7 29 0 35c50 -1 91 -2 150 -2c57 0 98 1 147 2c5 -6 5 -29 -2 -35c-71 -3 -90 -6 -105 -89zM150 748c0 30 24 54 54 54s54 -24 54 -54s-24 -54 -54 -54s-54 24 -54 54zM372 748c0 30 24 54 54 54s54 -24 54 -54s-24 -54 -54 -54s-54 24 -54 54z" />
    <glyph glyph-name="Eth" unicode="&#xd0;" horiz-adv-x="688" 
d="M225 75c-0.799805 -4.40039 -1.2998 -8.39941 -1.2998 -11.7998c0 -18.9004 14.7998 -23.2002 78.2998 -23.2002c123 0 240 48 275 244c4.7998 27.9004 7.5 56.5 7.5 84.5c0 123.8 -52.4004 237.5 -206.5 237.5c-34 0 -60 -3 -66 -35l-41.7002 -238h84.7002l-8 -46
h-84.7998zM23 0.000976562l-2.00098 2l4 22c1 6 5 9 9 9h14c38 0 55 12 60 44l37.0996 210h-69.0996l8 46h69.2998l41.7002 236c0.900391 4.90039 1.40039 9.40039 1.40039 13.4004c0 22 -14.2998 30.5996 -46.3994 30.5996h-14c-3 0 -7 3 -6 8l4 23l3 2h284
c174.4 0 292 -121.6 292 -279.6c0 -18.7002 -1.59961 -37.9004 -5 -57.4004c-44 -246 -241 -309 -384 -309h-301z" />
    <glyph glyph-name="Ntilde" unicode="&#xd1;" horiz-adv-x="742" 
d="M223 547c-10 26 -27.501 57.2051 -75.001 64.0049l-14 2c-4 0.599609 -9.5 2.89941 -10 8.99902l-2 23l2 2s154 -1 193 -1l300 -475h2l71 398c6.09961 34 -10.5 36.9004 -46 42l-14 2c-4 0.599609 -7 3 -7 8l3 24l2 1s64 -1 103 -1c35 0 119 1 119 1l2 -1l-2 -24
c-1 -5 -5 -7.2998 -10 -8l-14 -2c-39.7002 -5.7002 -59.2002 -14.6006 -64 -42.001l-95 -544c-3.7998 -22 -21 -37 -50 -37c-31 0 -44 16 -51 27l-263 428c-3 5 -10.5 16.5 -16 16.5c-6 0 -9.40039 -12.5996 -11 -21.5l-64 -361c-5.5 -30.7002 25.2998 -39.6006 49 -43.001
l14 -2c5 -0.700195 7 -3 7 -9l-3 -23l-2 -2s-86 2 -122 2c-39 0 -100 -2 -100 -2l-2 2l2 23c0.5 6.09961 6 8.39941 10 8.99902l14 2c37.4004 5.2998 55.3008 10.8994 61.001 42.999zM573.999 746.005c21 0 36 9 58 56l24 -10c-24 -65 -60 -104 -106 -104
c-22 0 -40 15 -58 29c-16 13 -32 25 -50 25c-26 0 -40 -14 -57 -51l-24 8c26 65 56 102 99 102c30 0 49 -16 66 -31c14 -13 29 -24 48 -24z" />
    <glyph glyph-name="Ograve" unicode="&#xd2;" horiz-adv-x="734" 
d="M473 617c-145 0 -241 -203 -241 -372c0 -138 71 -216 170 -216c142 0 237 198 237 373c0 142 -72 215 -166 215zM375 -12c-162 0 -278 98 -278 259c0 195 163 411 396 411c157 0 280 -103 280 -267c0 -198 -154 -403 -398 -403zM471 819l108 -84c9 -7 12 -13 12 -19
c0 -5 -3 -17 -17 -17c-9 0 -21 3 -41 12l-145 63z" />
    <glyph glyph-name="Oacute" unicode="&#xd3;" horiz-adv-x="734" 
d="M473 617c-145 0 -241 -203 -241 -372c0 -138 71 -216 170 -216c142 0 237 198 237 373c0 142 -72 215 -166 215zM375 -12c-162 0 -278 98 -278 259c0 195 163 411 396 411c157 0 280 -103 280 -267c0 -198 -154 -403 -398 -403zM542 824l58 -56l-153 -58
c-23 -9 -36 -12 -45 -12c-8 0 -12 4 -12 12v3c1 7 6 19 15 25z" />
    <glyph glyph-name="Ocircumflex" unicode="&#xd4;" horiz-adv-x="734" 
d="M473 617c-145 0 -241 -203 -241 -372c0 -138 71 -216 170 -216c142 0 237 198 237 373c0 142 -72 215 -166 215zM375 -12c-162 0 -278 98 -278 259c0 195 163 411 396 411c157 0 280 -103 280 -267c0 -198 -154 -403 -398 -403zM538 805c24 -36 55 -67 86 -94l-23 -21
c-36 18 -64 35 -93 59c-40 -26 -72 -42 -112 -59l-15 21c42 28 78 60 114 94h43z" />
    <glyph glyph-name="Otilde" unicode="&#xd5;" horiz-adv-x="734" 
d="M473 617c-145 0 -241 -203 -241 -372c0 -138 71 -216 170 -216c142 0 237 198 237 373c0 142 -72 215 -166 215zM375 -12c-162 0 -278 98 -278 259c0 195 163 411 396 411c157 0 280 -103 280 -267c0 -198 -154 -403 -398 -403zM559 749c21 0 36 9 58 56l24 -10
c-24 -65 -60 -104 -106 -104c-22 0 -40 15 -58 29c-16 13 -32 25 -50 25c-26 0 -40 -14 -57 -51l-24 8c26 65 56 102 99 102c30 0 49 -16 66 -31c14 -13 29 -24 48 -24z" />
    <glyph glyph-name="Odieresis" unicode="&#xd6;" horiz-adv-x="734" 
d="M212 700c0 30 24 54 54 54s54 -24 54 -54s-24 -54 -54 -54s-54 24 -54 54zM663 700c0 30 24 54 54 54s54 -24 54 -54s-24 -54 -54 -54s-54 24 -54 54zM473 617c-145 0 -241 -203 -241 -372c0 -138 71 -216 170 -216c142 0 237 198 237 373c0 142 -72 215 -166 215z
M375 -12c-162 0 -278 98 -278 259c0 195 163 411 396 411c157 0 280 -103 280 -267c0 -198 -154 -403 -398 -403z" />
    <glyph glyph-name="multiply" unicode="&#xd7;" horiz-adv-x="551" 
d="M336 275l141 117l43 -53l-141 -117l93 -117l-64 -53l-93 116l-141 -116l-42 53l140 117l-93 117l64 53z" />
    <glyph glyph-name="Oslash" unicode="&#xd8;" horiz-adv-x="734" 
d="M97 -40l-35.001 25.999l92.0996 93c-36.2998 42.9004 -57.0996 99.8008 -57.0996 168.001c0 195 163 411 396 411c68.9004 0 131.301 -19.7998 179.601 -56l67.4004 68l34 -24l-70.5 -71.4004c43.4004 -45.5 69.5 -108.1 69.5 -183.6c0 -198 -154 -403 -398 -403
c-75.9004 0 -141.7 21.5 -190.2 60.9004zM472.999 616.999c-145 0 -240.999 -203 -240.999 -372c0 -28.7998 3.09961 -55.0996 8.89941 -78.5l367.7 370.9c-29.7002 52.7998 -78.6006 79.5996 -135.601 79.5996zM626.1 496.099l-369.4 -374.2
c29 -60.2998 81.2998 -92.8994 145.3 -92.8994c142 0 237 198 237 373c0 35.7998 -4.59961 67.0996 -12.8994 94.0996z" />
    <glyph glyph-name="Ugrave" unicode="&#xd9;" horiz-adv-x="683" 
d="M638 569c1 4 2 9 2 13c0 22 -15 31 -49 31h-14c-4 0 -7 3 -7 8l5 24l2 1s75 -1 114 -1c36 0 114 1 114 1l2 -1l-4 -24c-1 -5 -5 -8 -10 -8h-14c-41 0 -57 -16 -62 -44l-49 -276c-31 -178 -97 -305 -318 -305c-87 0 -213 33 -213 187c0 18 2 38 6 60l58 334c1 4 2 9 2 13
c0 22 -15 31 -49 31h-14c-4 0 -7 2 -7 8l5 24l2 1s97 -1 136 -1c36 0 137 1 137 1l2 -1l-5 -24c-1 -5 -4 -8 -9 -8h-14c-41 0 -58 -16 -63 -44l-53 -301c-5 -32 -11 -65 -11 -97c0 -108 84 -135 119 -135c147 0 189 132 208 240zM445 818l108 -84c9 -7 12 -13 12 -19
c0 -5 -3 -17 -17 -17c-9 0 -21 3 -41 12l-145 63z" />
    <glyph glyph-name="Uacute" unicode="&#xda;" horiz-adv-x="683" 
d="M638 569c1 4 2 9 2 13c0 22 -15 31 -49 31h-14c-4 0 -7 3 -7 8l5 24l2 1s75 -1 114 -1c36 0 114 1 114 1l2 -1l-4 -24c-1 -5 -5 -8 -10 -8h-14c-41 0 -57 -16 -62 -44l-49 -276c-31 -178 -97 -305 -318 -305c-87 0 -213 33 -213 187c0 18 2 38 6 60l58 334c1 4 2 9 2 13
c0 22 -15 31 -49 31h-14c-4 0 -7 2 -7 8l5 24l2 1s97 -1 136 -1c36 0 137 1 137 1l2 -1l-5 -24c-1 -5 -4 -8 -9 -8h-14c-41 0 -58 -16 -63 -44l-53 -301c-5 -32 -11 -65 -11 -97c0 -108 84 -135 119 -135c147 0 189 132 208 240zM564 823l58 -56l-153 -58
c-23 -9 -36 -12 -45 -12c-8 0 -12 4 -12 12v3c1 7 6 19 15 25z" />
    <glyph glyph-name="Ucircumflex" unicode="&#xdb;" horiz-adv-x="683" 
d="M638 569c1 4 2 9 2 13c0 22 -15 31 -49 31h-14c-4 0 -7 3 -7 8l5 24l2 1s75 -1 114 -1c36 0 114 1 114 1l2 -1l-4 -24c-1 -5 -5 -8 -10 -8h-14c-41 0 -57 -16 -62 -44l-49 -276c-31 -178 -97 -305 -318 -305c-87 0 -213 33 -213 187c0 18 2 38 6 60l58 334c1 4 2 9 2 13
c0 22 -15 31 -49 31h-14c-4 0 -7 2 -7 8l5 24l2 1s97 -1 136 -1c36 0 137 1 137 1l2 -1l-5 -24c-1 -5 -4 -8 -9 -8h-14c-41 0 -58 -16 -63 -44l-53 -301c-5 -32 -11 -65 -11 -97c0 -108 84 -135 119 -135c147 0 189 132 208 240zM539 805c24 -36 55 -67 86 -94l-23 -21
c-36 18 -64 35 -93 59c-40 -26 -72 -42 -112 -59l-15 21c42 28 78 60 114 94h43z" />
    <glyph glyph-name="Udieresis" unicode="&#xdc;" horiz-adv-x="683" 
d="M375 679c0 30 24 54 54 54s54 -24 54 -54s-24 -54 -54 -54s-54 24 -54 54zM512 679c0 30 24 54 54 54s54 -24 54 -54s-24 -54 -54 -54s-54 24 -54 54zM638 569l9 44c-4 0 -7 3 -7 8l5 24l2 1s5 -1 44 -1c36 0 114 1 114 1l2 -1l-4 -24c-1 -5 -5 -8 -10 -8h-14
c-41 0 -57 -16 -62 -44l-49 -276c-31 -178 -97 -305 -318 -305c-87 0 -213 33 -213 187c0 18 2 38 6 60l58 334c1 4 2 9 2 13c0 22 -15 31 -49 31h-14c-4 0 -7 2 -7 8l5 24l2 1s97 -1 136 -1c36 0 67 1 67 1l2 -1l-5 -24c-1 -5 -4 -8 -9 -8c-1 0 -0.400391 -7.2002 -7 -44
l-53 -301c-5 -32 -11 -65 -11 -97c0 -108 84 -135 119 -135c147 0 189 132 208 240z" />
    <glyph glyph-name="Yacute" unicode="&#xdd;" horiz-adv-x="592" 
d="M257 72l36 209l-102 272c-23 57 -35 60 -61 60h-11c-6 0 -11 2 -10 7l5 25l2 1s109 -1 122 -1c5 0 109 1 109 1l2 -1l-4 -24c-1 -4 -4 -8 -8 -8c-49 0 -60 -4 -46 -37l90 -242l166 242c14 20 0 37 -35 37c-5 0 -5 4 -4 7l4 25l2 1s76 -1 87 -1c9 0 103 1 103 1l2 -1
l-4 -24c-1 -6 -5 -8 -11 -8h-20c-29 0 -44 -7 -66 -39l-192 -281l-39 -221c-6 -31 8 -39 46 -39h25c4 0 8 -3 7 -9l-4 -23l-3 -2s-104 2 -141 2c-35 0 -144 -2 -144 -2v2l4 23c1 6 3 9 8 9h26c39 0 54 11 59 39zM525 824l58 -56l-153 -58c-23 -9 -36 -12 -45 -12
c-8 0 -12 4 -12 12v3c1 7 6 19 15 25z" />
    <glyph glyph-name="Thorn" unicode="&#xde;" horiz-adv-x="561" 
d="M296 477l-51 -288.001c8 -2 31 -4 67 -4c70 0 138 29 161 158c3.2002 18.4004 4.7002 34.6006 4.7002 48.8008c0 78.9004 -45.4004 98.2002 -93.7002 98.2002c-19 0 -66 -8 -88 -13zM153 0.999023c-37 0 -131.001 -1.99902 -131.001 -1.99902l-1 2l4 23c1 6 5 9 9 9h14
c38 0 55 12 60 44l87 492c0.900391 4.90039 1.40039 9.40039 1.40039 13.4004c0 22 -14.2998 30.5996 -46.3994 30.5996h-14c-3 0 -7 3 -6 8l4 24l3 1s95 -1 133 -1c34 0 139 1 139 1l2 -1l-4 -24c-1 -5 -5 -8 -9 -8h-25c-40 0 -56 -15 -61 -43l-8 -49c35 2 80 2 97 2
c152.9 0 191.601 -81.2998 191.601 -149.2c0 -10.7002 -1 -21.1006 -2.59961 -30.8008c-13 -75 -97 -193 -267 -193c-35 0 -69 1 -84 7l-14 -80c-0.700195 -4.40039 -1.10059 -8.40039 -1.10059 -12.1006c0 -22.2998 13.5 -31.8994 46.0996 -31.8994h25c5 0 8 -3 7 -9
l-4 -23l-2 -2s-105 2 -143 2z" />
    <glyph glyph-name="germandbls" unicode="&#xdf;" horiz-adv-x="588" 
d="M318 130c12 0 31 -6 31 -30c0 -23 -21 -34 -21 -52c0 -20 18 -22 38 -22c48 0 85 95 85 176c0 74 -33 141 -91 194l3 13c26 17 128 97 128 197c0 37 -6 56 -43 56c-87 0 -112 -101 -148 -254c-65 -273 -103 -480 -175 -583c-28 -40 -80 -63 -134 -63c-69 0 -85 34 -85 50
c0 13 9 38 39 38c41 0 32 -46 65 -46c13 0 25 3 41 18c30 30 71 220 89 319l44 239c2 11 1 19 -12 19h-44c-3 0 -5 0 -5 2c0 8 6 33 30 33c31 0 45 16 53 43c44 162 153 221 258 221c91 0 142 -48 142 -92c0 -82 -90 -147 -164 -195l-1 -2c59 -43 137 -102 137 -193
c0 -95 -98 -226 -219 -226c-67 0 -94 33 -94 68c0 50 35 72 53 72z" />
    <glyph glyph-name="agrave" unicode="&#xe0;" horiz-adv-x="540" 
d="M373 195c20 53 31 120 31 136c0 39 -18 74 -47 74c-80 0 -157 -151 -157 -254c0 -54 6 -111 50 -111c28 0 90 72 123 155zM340 39c0 4 0.000976562 13.3008 1.00098 19.001l-2 1c-62 -59 -83.5 -69 -123 -69c-104.5 0 -138 86 -138 142c0 157 161 312 276 312
c52 0 74 -22 84 -52c23.0996 16 41.1992 33.5996 56.999 52l55 3c1.7998 0 2 -1.2002 2 -3.2002c0 0 -22.2998 -83.9004 -31.7002 -122.801l-47.2998 -196c-4.59961 -19.0996 -7 -33 -7 -42c0 -12 4 -16 9 -16c11 0 28.5 12.5 57 38l25 -23c-71 -70 -103 -92 -155 -92
c-51 0 -62 31 -62 49zM380.001 670.001l41 -119c2 -4 3 -10 3 -15c0 -4 -1 -7 -1 -10c-2 -9 -12 -17 -22 -17c-6 0 -12 5 -25 20l-92 109l5 11c8 6 38 23 72 23c5 0 16 -1 19 -2z" />
    <glyph glyph-name="aacute" unicode="&#xe1;" horiz-adv-x="540" 
d="M373 195c20 53 31 120 31 136c0 39 -18 74 -47 74c-80 0 -157 -151 -157 -254c0 -54 6 -111 50 -111c28 0 90 72 123 155zM340 39c0 4 0.000976562 13.3008 1.00098 19.001l-2 1c-62 -59 -83.5 -69 -123 -69c-104.5 0 -138 86 -138 142c0 157 161 312 276 312
c52 0 74 -22 84 -52c23.0996 16 41.1992 33.5996 56.999 52l55 3c1.7998 0 2 -1.2002 2 -3.2002c0 0 -22.2998 -83.9004 -31.7002 -122.801l-47.2998 -196c-4.59961 -19.0996 -7 -33 -7 -42c0 -12 4 -16 9 -16c11 0 28.5 12.5 57 38l25 -23c-71 -70 -103 -92 -155 -92
c-51 0 -62 31 -62 49zM419.001 663.001c3 1 10 2 15 2c36 0 42 -17 50 -23l6 -24l-137 -102c-13 -10 -28 -14 -38 -14c-7 0 -12 5 -12 11c0 3 2 13 11 24z" />
    <glyph glyph-name="acircumflex" unicode="&#xe2;" horiz-adv-x="540" 
d="M373 195c20 53 31 120 31 136c0 39 -18 74 -47 74c-80 0 -157 -151 -157 -254c0 -54 6 -111 50 -111c28 0 90 72 123 155zM340 39c0 4 0.000976562 13.3008 1.00098 19.001l-2 1c-62 -59 -83.5 -69 -123 -69c-104.5 0 -138 86 -138 142c0 157 161 312 276 312
c52 0 74 -22 84 -52c23.0996 16 41.1992 33.5996 56.999 52l55 3c1.7998 0 2 -1.2002 2 -3.2002c0 0 -22.2998 -83.9004 -31.7002 -122.801l-47.2998 -196c-4.59961 -19.0996 -7 -33 -7 -42c0 -12 4 -16 9 -16c11 0 28.5 12.5 57 38l25 -23c-71 -70 -103 -92 -155 -92
c-51 0 -62 31 -62 49zM408.001 646.001c20 -47 48 -89 75 -129l-28 -18c-34 27 -59 48 -85 84c-45 -38 -75 -57 -120 -84l-20 18c43 40 90 83 128 129h50z" />
    <glyph glyph-name="atilde" unicode="&#xe3;" horiz-adv-x="540" 
d="M373 195c20 53 31 120 31 136c0 39 -18 74 -47 74c-80 0 -157 -151 -157 -254c0 -54 6 -111 50 -111c28 0 90 72 123 155zM340 39c0 4 0.000976562 13.3008 1.00098 19.001l-2 1c-62 -59 -83.5 -69 -123 -69c-104.5 0 -138 86 -138 142c0 157 161 312 276 312
c52 0 74 -22 84 -52c23.0996 16 41.1992 33.5996 56.999 52l55 3c1.7998 0 2 -1.2002 2 -3.2002c0 0 -22.2998 -83.9004 -31.7002 -122.801l-47.2998 -196c-4.59961 -19.0996 -7 -33 -7 -42c0 -12 4 -16 9 -16c11 0 28.5 12.5 57 38l25 -23c-71 -70 -103 -92 -155 -92
c-51 0 -62 31 -62 49zM430.001 575.001c21 0 36 9 58 56l24 -10c-24 -65 -60 -104 -106 -104c-22 0 -40 15 -58 29c-16 13 -32 25 -50 25c-26 0 -40 -14 -57 -51l-24 8c26 65 56 102 99 102c30 0 49 -16 66 -31c14 -13 29 -24 48 -24z" />
    <glyph glyph-name="adieresis" unicode="&#xe4;" horiz-adv-x="540" 
d="M373 195c20 53 31 120 31 136c0 39 -18 74 -47 74c-80 0 -157 -151 -157 -254c0 -54 6 -111 50 -111c28 0 90 72 123 155zM340 39c0 4 0.000976562 13.3008 1.00098 19.001l-2 1c-62 -59 -83.5 -69 -123 -69c-104.5 0 -138 86 -138 142c0 157 161 312 276 312
c52 0 74 -22 84 -52c23.0996 16 41.1992 33.5996 56.999 52l55 3c1.7998 0 2 -1.2002 2 -3.2002c0 0 -22.2998 -83.9004 -31.7002 -122.801l-47.2998 -196c-4.59961 -19.0996 -7 -33 -7 -42c0 -12 4 -16 9 -16c11 0 28.5 12.5 57 38l25 -23c-71 -70 -103 -92 -155 -92
c-51 0 -62 31 -62 49zM219.001 572.001c0 30 24 54 54 54s54 -24 54 -54s-24 -54 -54 -54s-54 24 -54 54zM399.001 572.001c0 30 24 54 54 54s54 -24 54 -54s-24 -54 -54 -54s-54 24 -54 54z" />
    <glyph glyph-name="aring" unicode="&#xe5;" horiz-adv-x="540" 
d="M373 195c20 53 31 120 31 136c0 39 -18 74 -47 74c-80 0 -157 -151 -157 -254c0 -54 6 -111 50 -111c28 0 90 72 123 155zM340 39c0 4 0.000976562 13.3008 1.00098 19.001l-2 1c-62 -59 -83.5 -69 -123 -69c-104.5 0 -138 86 -138 142c0 157 161 312 276 312
c52 0 74 -22 84 -52c23.0996 16 41.1992 33.5996 56.999 52l55 3c1.7998 0 2 -1.2002 2 -3.2002c0 0 -22.2998 -83.9004 -31.7002 -122.801l-47.2998 -196c-4.59961 -19.0996 -7 -33 -7 -42c0 -12 4 -16 9 -16c11 0 28.5 12.5 57 38l25 -23c-71 -70 -103 -92 -155 -92
c-51 0 -62 31 -62 49zM380.001 619.001c-29 0 -55 -24 -60 -52c-1 -3 -1 -7 -1 -10c0 -22 14 -41 40 -41c28 0 54 25 59 51c1 4 1 8 1 11c0 24 -16 41 -39 41zM283.001 567.001c10 46 56 83 102 83c41 0 71 -28 71 -67c0 -5 -1 -10 -2 -16c-8 -45 -54 -83 -102 -83
c-41 0 -70 29 -70 67c0 6 0 11 1 16z" />
    <glyph glyph-name="ae" unicode="&#xe6;" horiz-adv-x="715" 
d="M600 403c-53 0 -100 -64 -127 -143c108 7 159 25 172 79c1 5 1 9 1 14c0 25 -17 50 -46 50zM312 103c8 15 20 59 32 106c-98 -12 -154 -53 -164 -98c-2 -8 -3 -16 -3 -24c0 -29 15 -49 53 -49c25 0 55 18 82 65zM357 383c-11 15 -24 24 -36 24c-28 0 -65 -13 -71 -41
l-4 -18c2 -8 3 -15 2 -20c-4 -17 -30 -36 -69 -36c-40 0 -52 19 -52 37c0 4 0 7 1 11c14 60 112 105 205 105c23 0 94 -6 127 -49c41 31 96 49 150 49c117 0 156 -56 156 -93c0 -3 -1 -7 -1 -10c-19 -79 -83 -112 -304 -125c-5 -21 -7 -40 -7 -58c0 -70 32 -115 81 -115
c42 0 78 23 124 65l35 -26c-41 -54 -108 -95 -186 -95c-82 0 -120 27 -140 51c-40 -31 -97 -51 -151 -51c-104 0 -156 38 -156 95c0 8 1 16 3 24c20 90 120 132 290 146c9 42 13 71 13 92c0 18 -3 30 -10 38z" />
    <glyph glyph-name="ccedilla" unicode="&#xe7;" horiz-adv-x="444" 
d="M219 -82c-13 0 -22.999 -3.00195 -46.999 -15.002l-9 17l46.5996 72.7002c-83.9004 16.2002 -137.601 101.601 -137.601 159.301c0 166 140 292 265 292c110 0 146 -57 146 -107c0 -37 -47 -50 -62 -50c-44 0 -54 19 -54 36c0 19 4 17 4 47c0 29 -23 35 -31 35
c-66 0 -144 -87 -144 -232c0 -114 47 -132 73 -132c23 0 83 29 123 75l40 -34c-43.7002 -44.5996 -92.2998 -84.1992 -170 -90.999l-24 -39l17 2c45 0 74 -19 74 -53c0 -3 0 -8 -1 -12c-9 -45 -64 -70 -137 -70c-38 0 -59 8 -88 22l18 23c33 -15 58 -16 70 -16
c18 0 51 12 56 36v5c0 16 -18 29 -28 29z" />
    <glyph glyph-name="egrave" unicode="&#xe8;" horiz-adv-x="474" 
d="M364 365c0 25 -16 35 -39 35c-39 0 -80 -36 -115 -176c74 12 154 44 154 141zM475 369c0 -37 -10 -145 -270 -183c-8 -93 43 -120 72 -120c36 0 91 9 151 73c14 0 28 -13 26 -29c-57 -79 -138 -120 -229 -120c-116 0 -146 88 -146 175c0 113 96 279 279 279
c96 0 117 -39 117 -75zM374 670l41 -119c2 -4 3 -10 3 -15c0 -4 -1 -7 -1 -10c-2 -9 -12 -17 -22 -17c-6 0 -12 5 -25 20l-92 109l5 11c8 6 38 23 72 23c5 0 16 -1 19 -2z" />
    <glyph glyph-name="eacute" unicode="&#xe9;" horiz-adv-x="474" 
d="M364 365c0 25 -16 35 -39 35c-39 0 -80 -36 -115 -176c74 12 154 44 154 141zM475 369c0 -37 -10 -145 -270 -183c-8 -93 43 -120 72 -120c36 0 91 9 151 73c14 0 28 -13 26 -29c-57 -79 -138 -120 -229 -120c-116 0 -146 88 -146 175c0 113 96 279 279 279
c96 0 117 -39 117 -75zM426 665c3 1 10 2 15 2c36 0 42 -17 50 -23l6 -24l-137 -102c-13 -10 -28 -14 -38 -14c-7 0 -12 5 -12 11c0 3 2 13 11 24z" />
    <glyph glyph-name="ecircumflex" unicode="&#xea;" horiz-adv-x="474" 
d="M364 365c0 25 -16 35 -39 35c-39 0 -80 -36 -115 -176c74 12 154 44 154 141zM475 369c0 -37 -10 -145 -270 -183c-8 -93 43 -120 72 -120c36 0 91 9 151 73c14 0 28 -13 26 -29c-57 -79 -138 -120 -229 -120c-116 0 -146 88 -146 175c0 113 96 279 279 279
c96 0 117 -39 117 -75zM405 646c20 -47 48 -89 75 -129l-28 -18c-34 27 -59 48 -85 84c-45 -38 -75 -57 -120 -84l-20 18c43 40 90 83 128 129h50z" />
    <glyph glyph-name="edieresis" unicode="&#xeb;" horiz-adv-x="474" 
d="M364 369c0 25 -16 35 -39 35c-39 0 -80 -36 -115 -176c74 12 154 44 154 141zM475 373c0 -37 -10 -145 -270 -183c-8 -93 43 -120 72 -120c36 0 91 9 151 73c14 0 28 -13 26 -29c-57 -79 -138 -120 -229 -120c-116 0 -146 88 -146 175c0 113 96 279 279 279
c96 0 117 -39 117 -75zM227 572c0 30 24 54 54 54s54 -24 54 -54s-24 -54 -54 -54s-54 24 -54 54zM407 572c0 30 24 54 54 54s54 -24 54 -54s-24 -54 -54 -54s-54 24 -54 54z" />
    <glyph glyph-name="igrave" unicode="&#xec;" horiz-adv-x="326" 
d="M290.3 320.2l-45.2988 -186.199c-3.5 -15.2002 -9.40039 -36.6006 -9.40039 -51.3008c0 -9.90039 2.7002 -16.7002 10.4004 -16.7002c10 0 38.5 14.5 63 34c14 0 23.5 -12 26 -26c-66.5 -55 -115.5 -84 -178 -84c-34 0 -44.9004 23.2998 -44.9004 56.2002
c0 23.0996 5.2998 50.8994 11.8994 78.7998l45 191c6.7002 28 9 41.9004 9 51c0 10 -6 19 -18 20l-40 3c-6 9 -5.7002 25 1 33c47 6 137 13 169 13c13.2002 0 20.5 -7.40039 20.5 -21.1006c0 -17.0996 -10.7002 -55.6992 -20.2002 -94.6992zM277.001 670.001l41 -119
c2 -4 3 -10 3 -15c0 -4 -1 -7 -1 -10c-2 -9 -12 -17 -22 -17c-6 0 -12 5 -25 20l-92 109l5 11c8 6 38 23 72 23c5 0 16 -1 19 -2z" />
    <glyph glyph-name="iacute" unicode="&#xed;" horiz-adv-x="326" 
d="M290.3 320.2l-45.2988 -186.199c-3.5 -15.2002 -9.40039 -36.6006 -9.40039 -51.3008c0 -9.90039 2.7002 -16.7002 10.4004 -16.7002c10 0 38.5 14.5 63 34c14 0 23.5 -12 26 -26c-66.5 -55 -115.5 -84 -178 -84c-34 0 -44.9004 23.2998 -44.9004 56.2002
c0 23.0996 5.2998 50.8994 11.8994 78.7998l45 191c6.7002 28 9 41.9004 9 51c0 10 -6 19 -18 20l-40 3c-6 9 -5.7002 25 1 33c47 6 137 13 169 13c13.2002 0 20.5 -7.40039 20.5 -21.1006c0 -17.0996 -10.7002 -55.6992 -20.2002 -94.6992zM333.001 665.001c3 1 10 2 15 2
c36 0 42 -17 50 -23l6 -24l-137 -102c-13 -10 -28 -14 -38 -14c-7 0 -12 5 -12 11c0 3 2 13 11 24z" />
    <glyph glyph-name="icircumflex" unicode="&#xee;" horiz-adv-x="326" 
d="M290.3 320.2l-45.2988 -186.199c-3.5 -15.2002 -9.40039 -36.6006 -9.40039 -51.3008c0 -9.90039 2.7002 -16.7002 10.4004 -16.7002c10 0 38.5 14.5 63 34c14 0 23.5 -12 26 -26c-66.5 -55 -115.5 -84 -178 -84c-34 0 -44.9004 23.2998 -44.9004 56.2002
c0 23.0996 5.2998 50.8994 11.8994 78.7998l45 191c6.7002 28 9 41.9004 9 51c0 10 -6 19 -18 20l-40 3c-6 9 -5.7002 25 1 33c47 6 137 13 169 13c13.2002 0 20.5 -7.40039 20.5 -21.1006c0 -17.0996 -10.7002 -55.6992 -20.2002 -94.6992zM312.001 646.001
c20 -47 48 -89 75 -129l-28 -18c-34 27 -59 48 -85 84c-45 -38 -75 -57 -120 -84l-20 18c43 40 90 83 128 129h50z" />
    <glyph glyph-name="idieresis" unicode="&#xef;" horiz-adv-x="326" 
d="M290.3 320.2l-45.2988 -186.199c-3.5 -15.2002 -9.40039 -36.6006 -9.40039 -51.3008c0 -9.90039 2.7002 -16.7002 10.4004 -16.7002c10 0 38.5 14.5 63 34c14 0 23.5 -12 26 -26c-66.5 -55 -115.5 -84 -178 -84c-34 0 -44.9004 23.2998 -44.9004 56.2002
c0 23.0996 5.2998 50.8994 11.8994 78.7998l45 191c6.7002 28 9 41.9004 9 51c0 10 -6 19 -18 20l-40 3c-6 9 -5.7002 25 1 33c47 6 137 13 169 13c13.2002 0 20.5 -7.40039 20.5 -21.1006c0 -17.0996 -10.7002 -55.6992 -20.2002 -94.6992zM142.001 572.001
c0 30 24 54 54 54s54 -24 54 -54s-24 -54 -54 -54s-54 24 -54 54zM322.001 572.001c0 30 24 54 54 54s54 -24 54 -54s-24 -54 -54 -54s-54 24 -54 54z" />
    <glyph glyph-name="eth" unicode="&#xf0;" horiz-adv-x="512" 
d="M267 34c38 0 104 33 140 191c9 40 14 80 14 116c0 6 0 12 -1 17l4 -1c-16 27 -42 46 -73 46c-83 0 -127 -103 -144 -176c-7 -28 -10 -54 -10 -77c0 -70 27 -116 70 -116zM83 209c40 174 189 236 279 236c17 0 34 -2 49 -5c-10 46 -23 85 -41 120
c-41 -24 -93 -54 -127 -74l-21 48l121 70c-4 5 -7 9 -10 14c-20 24 -38 45 -57 61l33 34c41 -25 75 -48 99 -71c40 24 93 54 129 75l22 -48l-113 -65c4 -5 9 -10 12 -15c51 -67 87 -152 87 -252c0 -31 -3 -64 -11 -98c-40 -171 -172 -251 -294 -251c-114 0 -164 80 -164 167
c0 18 2 36 7 54z" />
    <glyph glyph-name="ntilde" unicode="&#xf1;" horiz-adv-x="606" 
d="M389 125l35 150.002c11.4004 49 27 99 -12 99c-22 0 -74 -39 -123 -112c-32.2998 -48.0996 -52.2002 -116.1 -69.1006 -190c-7.90039 -34.5 -4.7002 -82 -73.9004 -82c-52 0 -56.9004 10.5 -56.9004 27.2002c0 9.7998 7.90039 34.7998 12.7002 54.7998l56.2002 249
c5.40039 24.0996 6 36.8994 6 45.999c0 10 -3 19 -15 20l-40 3c-6 9 -7.7002 25 -1 33c47 6 131 13 163 13c13.2002 0 20.5 -7.40039 20.5 -21.1006c0 -17.0996 -11.5996 -56.1992 -22.1992 -94.6992l-5.2998 -19.2002l1 -1c92 108 146 139 245 139c61 0 53 -85.5 36 -156
l-36 -149c-3.7002 -15.2002 -9.40039 -36.6006 -9.40039 -51.3008c0 -9.90039 2.7002 -16.7002 10.4004 -16.7002c10 0 38.5 14.5 63 34c14 0 23.5 -12 26 -26c-66.5 -55 -115.5 -84 -178 -84c-34 0 -44.9004 23.2998 -44.9004 56.2002
c0 23.0996 5.40039 50.8994 11.9004 78.7998zM491 575.002c21 0 36 9 58 56l24 -10c-24 -65 -60 -104 -106 -104c-22 0 -40 15 -58 29c-16 13 -32 25 -50 25c-26 0 -40 -14 -57 -51l-24 8c26 65 56 102 99 102c30 0 49 -16 66 -31c14 -13 29 -24 48 -24z" />
    <glyph glyph-name="ograve" unicode="&#xf2;" horiz-adv-x="507" 
d="M198 173c0 -123 50 -141 73 -141c97 0 122 176 122 240c0 61 -14 130 -70 130c-97 0 -125 -142 -125 -229zM72 165c0 120 90 279 270 279c138 0 175 -93 175 -165c0 -158 -134 -289 -271 -289c-143 0 -174 121 -174 175zM372 670l41 -119c2 -4 3 -10 3 -15
c0 -4 -1 -7 -1 -10c-2 -9 -12 -17 -22 -17c-6 0 -12 5 -25 20l-92 109l5 11c8 6 38 23 72 23c5 0 16 -1 19 -2z" />
    <glyph glyph-name="oacute" unicode="&#xf3;" horiz-adv-x="507" 
d="M198 173c0 -123 50 -141 73 -141c97 0 122 176 122 240c0 61 -14 130 -70 130c-97 0 -125 -142 -125 -229zM72 165c0 120 90 279 270 279c138 0 175 -93 175 -165c0 -158 -134 -289 -271 -289c-143 0 -174 121 -174 175zM368 665c3 1 10 2 15 2c36 0 42 -17 50 -23l6 -24
l-137 -102c-13 -10 -28 -14 -38 -14c-7 0 -12 5 -12 11c0 3 2 13 11 24z" />
    <glyph glyph-name="ocircumflex" unicode="&#xf4;" horiz-adv-x="507" 
d="M198 173c0 -123 50 -141 73 -141c97 0 122 176 122 240c0 61 -14 130 -70 130c-97 0 -125 -142 -125 -229zM72 165c0 120 90 279 270 279c138 0 175 -93 175 -165c0 -158 -134 -289 -271 -289c-143 0 -174 121 -174 175zM402 645c20 -47 48 -89 75 -129l-28 -18
c-34 27 -59 48 -85 84c-45 -38 -75 -57 -120 -84l-20 18c43 40 90 83 128 129h50z" />
    <glyph glyph-name="otilde" unicode="&#xf5;" horiz-adv-x="507" 
d="M198 173c0 -123 50 -141 73 -141c97 0 122 176 122 240c0 61 -14 130 -70 130c-97 0 -125 -142 -125 -229zM72 165c0 120 90 279 270 279c138 0 175 -93 175 -165c0 -158 -134 -289 -271 -289c-143 0 -174 121 -174 175zM412 575c21 0 36 9 58 56l24 -10
c-24 -65 -60 -104 -106 -104c-22 0 -40 15 -58 29c-16 13 -32 25 -50 25c-26 0 -40 -14 -57 -51l-24 8c26 65 56 102 99 102c30 0 49 -16 66 -31c14 -13 29 -24 48 -24z" />
    <glyph glyph-name="odieresis" unicode="&#xf6;" horiz-adv-x="507" 
d="M198 173c0 -123 50 -141 73 -141c97 0 122 176 122 240c0 61 -14 130 -70 130c-97 0 -125 -142 -125 -229zM72 165c0 120 90 279 270 279c138 0 175 -93 175 -165c0 -158 -134 -289 -271 -289c-143 0 -174 121 -174 175zM203 572c0 30 24 54 54 54s54 -24 54 -54
s-24 -54 -54 -54s-54 24 -54 54zM383 572c0 30 24 54 54 54s54 -24 54 -54s-24 -54 -54 -54s-54 24 -54 54z" />
    <glyph glyph-name="divide" unicode="&#xf7;" horiz-adv-x="551" 
d="M316 367c5 25 30 46 56 46s42 -21 37 -46c-5 -26 -30 -47 -56 -47s-42 21 -37 47zM261 98c5 26 30 47 56 47s43 -21 37 -47c-5 -25 -30 -47 -56 -47c-25 0 -42 22 -37 47zM553 263l-11 -58h-424l12 58h423z" />
    <glyph glyph-name="oslash" unicode="&#xf8;" horiz-adv-x="507" 
d="M537 456l27.999 -27.001l-67.7998 -64.5996c14.4004 -27.2998 19.8008 -57.8994 19.8008 -85.3994c0 -158 -134 -289 -271 -289c-47.0996 0 -82 13.0996 -107.7 32.5996l-55.2998 -52.5996l-27 30l53.9004 51.0996c-29.2002 38.2002 -37.9004 85.4004 -37.9004 113.9
c0 120 90 279 270 279c63.2002 0 105.2 -19.5 132.2 -47.5996zM390.099 316.799c-6.40039 45.7002 -24.6992 85.2002 -67.0996 85.2002c-97 0 -125 -142 -125 -229c0 -13.5 0.599609 -25.7002 1.69922 -36.7998zM392.899 265.099l-184 -175.199
c16 -48.9004 45.7998 -57.9004 62.0996 -57.9004c93.7002 0 120.2 164.3 121.9 233.1z" />
    <glyph glyph-name="ugrave" unicode="&#xf9;" horiz-adv-x="561" 
d="M280 315l-42 -162c-5.90039 -22.9004 -10 -55 -10 -71c0 -19 5 -33 21 -33c29 0 119.9 56 150 187c0 0 31 136 46 200c32.2998 -1 84.7002 -1 118 0l-77 -311c-4.7002 -19.0996 -7 -33 -7 -42c0 -12 5 -16 10 -16c11 0 35 17.7002 56 39c12.9004 -4.2002 20 -13 25 -24
c-62 -63 -101 -92 -153 -92c-51 0 -63 31 -63 49c0 4 2.2998 31.7002 15.2998 53c1 1.2998 -1.09961 2.09961 -3 0c-56.2002 -61.0996 -116 -102 -166.3 -102c-61.7002 0 -92 34 -92 74c0 18 4.2002 50.2998 11 77l43 168c5 19 7 33 7 42c0 11 -4 16 -8 16
c-12 0 -32 -14 -54 -42c-12.2998 6.2998 -21 15.2998 -28 27c69.5 72.5 108 92 160 92s55 -31 55 -49c0 -17 -6.09961 -50 -14 -80zM402 671l41 -119c2 -4 3 -10 3 -15c0 -4 -1 -7 -1 -10c-2 -9 -12 -17 -22 -17c-6 0 -12 5 -25 20l-92 109l5 11c8 6 38 23 72 23
c5 0 16 -1 19 -2z" />
    <glyph glyph-name="uacute" unicode="&#xfa;" horiz-adv-x="561" 
d="M280 315l-42 -162c-5.90039 -22.9004 -10 -55 -10 -71c0 -19 5 -33 21 -33c29 0 119.9 56 150 187c0 0 31 136 46 200c32.2998 -1 84.7002 -1 118 0l-77 -311c-4.7002 -19.0996 -7 -33 -7 -42c0 -12 5 -16 10 -16c11 0 35 17.7002 56 39c12.9004 -4.2002 20 -13 25 -24
c-62 -63 -101 -92 -153 -92c-51 0 -63 31 -63 49c0 4 2.2998 31.7002 15.2998 53c1 1.2998 -1.09961 2.09961 -3 0c-56.2002 -61.0996 -116 -102 -166.3 -102c-61.7002 0 -92 34 -92 74c0 18 4.2002 50.2998 11 77l43 168c5 19 7 33 7 42c0 11 -4 16 -8 16
c-12 0 -32 -14 -54 -42c-12.2998 6.2998 -21 15.2998 -28 27c69.5 72.5 108 92 160 92s55 -31 55 -49c0 -17 -6.09961 -50 -14 -80zM439 662c3 1 10 2 15 2c36 0 42 -17 50 -23l6 -24l-137 -102c-13 -10 -28 -14 -38 -14c-7 0 -12 5 -12 11c0 3 2 13 11 24z" />
    <glyph glyph-name="ucircumflex" unicode="&#xfb;" horiz-adv-x="561" 
d="M280 315l-42 -162c-5.90039 -22.9004 -10 -55 -10 -71c0 -19 5 -33 21 -33c29 0 119.9 56 150 187c0 0 31 136 46 200c32.2998 -1 84.7002 -1 118 0l-77 -311c-4.7002 -19.0996 -7 -33 -7 -42c0 -12 5 -16 10 -16c11 0 35 17.7002 56 39c12.9004 -4.2002 20 -13 25 -24
c-62 -63 -101 -92 -153 -92c-51 0 -63 31 -63 49c0 4 2.2998 31.7002 15.2998 53c1 1.2998 -1.09961 2.09961 -3 0c-56.2002 -61.0996 -116 -102 -166.3 -102c-61.7002 0 -92 34 -92 74c0 18 4.2002 50.2998 11 77l43 168c5 19 7 33 7 42c0 11 -4 16 -8 16
c-12 0 -32 -14 -54 -42c-12.2998 6.2998 -21 15.2998 -28 27c69.5 72.5 108 92 160 92s55 -31 55 -49c0 -17 -6.09961 -50 -14 -80zM438 646c20 -47 48 -89 75 -129l-28 -18c-34 27 -59 48 -85 84c-45 -38 -75 -57 -120 -84l-20 18c43 40 90 83 128 129h50z" />
    <glyph glyph-name="udieresis" unicode="&#xfc;" horiz-adv-x="561" 
d="M280 315l-42 -162c-5.90039 -22.9004 -10 -55 -10 -71c0 -19 5 -33 21 -33c29 0 119.9 56 150 187c0 0 31 136 46 200c32.2998 -1 84.7002 -1 118 0l-77 -311c-4.7002 -19.0996 -7 -33 -7 -42c0 -12 5 -16 10 -16c11 0 35 17.7002 56 39c12.9004 -4.2002 20 -13 25 -24
c-62 -63 -101 -92 -153 -92c-51 0 -63 31 -63 49c0 4 2.2998 31.7002 15.2998 53c1 1.2998 -1.09961 2.09961 -3 0c-56.2002 -61.0996 -116 -102 -166.3 -102c-61.7002 0 -92 34 -92 74c0 18 4.2002 50.2998 11 77l43 168c5 19 7 33 7 42c0 11 -4 16 -8 16
c-12 0 -32 -14 -54 -42c-12.2998 6.2998 -21 15.2998 -28 27c69.5 72.5 108 92 160 92s55 -31 55 -49c0 -17 -6.09961 -50 -14 -80zM253 572c0 30 24 54 54 54s54 -24 54 -54s-24 -54 -54 -54s-54 24 -54 54zM433 572c0 30 24 54 54 54s54 -24 54 -54s-24 -54 -54 -54
s-54 24 -54 54z" />
    <glyph glyph-name="yacute" unicode="&#xfd;" horiz-adv-x="510" 
d="M295 344l43 -254l2 -1l101 176c17.2002 30 19 38 19 52c0 23 -18.5 34 -18.5 78.5c0 26 27 48.5 57.5 48.5c40 0 50.5 -28.5 50.5 -63.5c0 -26 -15.5 -60.7002 -61.5 -136.5l-189 -311c-60.5996 -99.7002 -155 -165 -216 -165c-23 0 -68 9 -68 44c0 18 6 50 65 50
c22 0 36 -15 55 -15c18 0 60 17 101 85l26 41c-24 128 -81 368 -81 368c-3.2998 15.0996 -8.7002 21 -15 21c-14 0 -38 -23 -51 -42.5c-14.2998 9.2002 -20.2998 16.7998 -25 30.5c50 60 83 94 144 94c44 0 51.7998 -45.5996 61 -100zM414 664c3 1 10 2 15 2
c36 0 42 -17 50 -23l6 -24l-137 -102c-13 -10 -28 -14 -38 -14c-7 0 -12 5 -12 11c0 3 2 13 11 24z" />
    <glyph glyph-name="thorn" unicode="&#xfe;" horiz-adv-x="537" 
d="M430 274c0 47 -14 116 -63 116c-25 0 -55 -5 -78 -20l-70 -303c19 -24 39 -35 55 -35c106 0 156 177 156 242zM165 344l50 213c5.2002 21.7002 7 39 7 50c0 22 -8 28 -21 28l-31 2c-4 0 -5 2 -5 5l4 30c41 3 155 16 182 26c9 0 12 -3 12 -10
c0 0 -10.0996 -40.4004 -25 -105l-36 -160c26 10 58 21 97 21c120 0 155 -64 155 -154c0 -106 -130 -300 -282 -300c-26 0 -49 3 -68 11c-11 -51 -24 -108 -36 -158c-1 -5 -1 -10 -1 -15c0 -15 3 -24 13 -24h18c20 0 29 -5 29 -12v-24l-2 -2s-90 2 -128 2
c-35 0 -124 -6 -124 -6l-2 2v23c0 9 15 12 31 12h19c17 0 25 19 31 45l96 427c-15 -15 -34 -36 -46 -53l-36 31c24 33 60 65 99 95z" />
    <glyph glyph-name="ydieresis" unicode="&#xff;" horiz-adv-x="510" 
d="M295 344l43 -254l2 -1l101 176c17.2002 30 19 38 19 52c0 23 -18.5 34 -18.5 78.5c0 26 27 48.5 57.5 48.5c40 0 50.5 -28.5 50.5 -63.5c0 -26 -15.5 -60.7002 -61.5 -136.5l-189 -311c-60.5996 -99.7002 -155 -165 -216 -165c-23 0 -68 9 -68 44c0 18 6 50 65 50
c22 0 36 -15 55 -15c18 0 60 17 101 85l26 41c-24 128 -81 368 -81 368c-3.2998 15.0996 -8.7002 21 -15 21c-14 0 -38 -23 -51 -42.5c-14.2998 9.2002 -20.2998 16.7998 -25 30.5c50 60 83 94 144 94c44 0 51.7998 -45.5996 61 -100zM225 572c0 30 24 54 54 54
s54 -24 54 -54s-24 -54 -54 -54s-54 24 -54 54zM405 572c0 30 24 54 54 54s54 -24 54 -54s-24 -54 -54 -54s-54 24 -54 54z" />
    <glyph glyph-name="Amacron" unicode="&#x100;" horiz-adv-x="719" 
d="M316 288h154c-16 83 -24 121 -41 206c-38 -65 -115 -194 -115 -194c-4.2002 -7.09961 -4.2002 -12 2 -12zM633 91c5.7002 -28.4004 11.499 -50.1992 58.999 -56.999l14 -2c4 -0.599609 10 -3 10 -9l-4 -23l-2 -2s-37 2 -76 2c-36 0 -184 -2 -184 -2l-2 2l3 23
c0.799805 6.5 2 8.2998 7 9l11 2c24.4004 4.40039 46.8008 13.9004 42.001 39l-32 168h-189c-8 0 -12.7002 -3.59961 -19 -14l-93 -154c-13 -22 9.59961 -34.5996 34 -39l11 -2c5 -0.700195 7 -3 7 -9l-3 -23l-2 -2s-88 2 -124 2c-39 0 -86 -2 -86 -2l-2 2l2 23
c0.5 6.09961 6 8.39941 10 8.99902l14 2c47.5 6.7998 69.7998 35.7002 84.7002 60.5l320.3 532.5c14.2002 23.5996 36 31 47 31c22.5 0 29.7998 -10 34 -31zM615.999 724.001h-265c-7 0 -10 6 -10 12c0 2 0 3 1 5c2 12 17 31 30 31h264c9 0 12 -6 12 -12c0 -1 0 -2 -1 -4
c-2 -13 -18 -32 -31 -32z" />
    <glyph glyph-name="amacron" unicode="&#x101;" horiz-adv-x="540" 
d="M373 195c20 53 31 120 31 136c0 39 -18 74 -47 74c-80 0 -157 -151 -157 -254c0 -54 6 -111 50 -111c28 0 90 72 123 155zM340 39c0 4 0.000976562 13.3008 1.00098 19.001l-2 1c-62 -59 -83.5 -69 -123 -69c-104.5 0 -138 86 -138 142c0 157 161 312 276 312
c52 0 74 -22 84 -52c23.0996 16 41.1992 33.5996 56.999 52l55 3c1.7998 0 2 -1.2002 2 -3.2002c0 0 -22.2998 -83.9004 -31.7002 -122.801l-47.2998 -196c-4.59961 -19.0996 -7 -33 -7 -42c0 -12 4 -16 9 -16c11 0 28.5 12.5 57 38l25 -23c-71 -70 -103 -92 -155 -92
c-51 0 -62 31 -62 49zM489.001 536.001h-265c-7 0 -10 6 -10 12c0 2 0 3 1 5c2 12 17 31 30 31h264c9 0 12 -6 12 -12c0 -1 0 -2 -1 -4c-2 -13 -18 -32 -31 -32z" />
    <glyph glyph-name="Abreve" unicode="&#x102;" horiz-adv-x="719" 
d="M316 288h154c-16 83 -24 121 -41 206c-38 -65 -115 -194 -115 -194c-4.2002 -7.09961 -4.2002 -12 2 -12zM633 91c5.7002 -28.4004 11.499 -50.1992 58.999 -56.999l14 -2c4 -0.599609 10 -3 10 -9l-4 -23l-2 -2s-37 2 -76 2c-36 0 -184 -2 -184 -2l-2 2l3 23
c0.799805 6.5 2 8.2998 7 9l11 2c24.4004 4.40039 46.8008 13.9004 42.001 39l-32 168h-189c-8 0 -12.7002 -3.59961 -19 -14l-93 -154c-13 -22 9.59961 -34.5996 34 -39l11 -2c5 -0.700195 7 -3 7 -9l-3 -23l-2 -2s-88 2 -124 2c-39 0 -86 -2 -86 -2l-2 2l2 23
c0.5 6.09961 6 8.39941 10 8.99902l14 2c47.5 6.7998 69.7998 35.7002 84.7002 60.5l320.3 532.5c14.2002 23.5996 36 31 47 31c22.5 0 29.7998 -10 34 -31zM648.999 804.001c-17 -71 -87 -113 -152 -113c-70 0 -119 39 -119 102v11h31c2 -39 43 -58 96 -58
c49 0 102 19 115 58h29z" />
    <glyph glyph-name="abreve" unicode="&#x103;" horiz-adv-x="540" 
d="M373 195c20 53 31 120 31 136c0 39 -18 74 -47 74c-80 0 -157 -151 -157 -254c0 -54 6 -111 50 -111c28 0 90 72 123 155zM340 39c0 4 0.000976562 13.3008 1.00098 19.001l-2 1c-62 -59 -83.5 -69 -123 -69c-104.5 0 -138 86 -138 142c0 157 161 312 276 312
c52 0 74 -22 84 -52c23.0996 16 41.1992 33.5996 56.999 52l55 3c1.7998 0 2 -1.2002 2 -3.2002c0 0 -22.2998 -83.9004 -31.7002 -122.801l-47.2998 -196c-4.59961 -19.0996 -7 -33 -7 -42c0 -12 4 -16 9 -16c11 0 28.5 12.5 57 38l25 -23c-71 -70 -103 -92 -155 -92
c-51 0 -62 31 -62 49zM265.001 649.001c-1 -6 -1 -11 -1 -15c0 -44 33 -75 87 -75c46 0 106 28 121 90l29 -14c-31 -101 -113 -138 -163 -138c-70 0 -109 50 -109 118c0 6 1 13 2 20z" />
    <glyph glyph-name="Aogonek" unicode="&#x104;" horiz-adv-x="719" 
d="M575 -225c-54 0 -93 31.001 -93 85.001c0 47.7998 40.5 106.399 101.3 139.6c-56.4004 -0.599609 -133.301 -1.59961 -133.301 -1.59961l-2 2l3 23c0.799805 6.5 2 8.2998 7 9l11 2c24.4004 4.40039 46.8008 13.9004 42.001 39l-32 168h-189
c-8 0 -12.7002 -3.59961 -19 -14l-93 -154c-13 -22 9.59961 -34.5996 34 -39l11 -2c5 -0.700195 7 -3 7 -9l-3 -23l-2 -2s-88 2 -124 2c-39 0 -86 -2 -86 -2l-2 2l2 23c0.5 6.09961 6 8.39941 10 8.99902l14 2c47.5 6.7998 69.7998 35.7002 84.7002 60.5l320.3 532.5
c14.2002 23.5996 36 31 47 31c22.5 0 29.7998 -10 34 -31l108 -536c5.7002 -28.4004 11.5 -50.2002 59 -57l14 -2c4 -0.599609 10 -3 10 -9l-4 -23l-2 -2s-13.7998 0.700195 -33.2998 1.2998l0.299805 -0.299805c-80 0 -135 -75 -135 -126c0 -32 22 -59 58 -59
c30 0 50 15 70 36l15 -8c-24 -47 -74 -67 -110 -67zM316 288.001h154c-16 83 -24 121 -41 206c-38 -65 -115 -194 -115 -194c-4.2002 -7.09961 -4.2002 -12 2 -12z" />
    <glyph glyph-name="aogonek" unicode="&#x105;" horiz-adv-x="540" 
d="M545 -114c-38 -45 -79 -67 -120 -67c-48 0 -84 22 -84 66c0 5 0 11 2 18c6 30.2002 27.4004 59.9004 55.3008 87.1006c-47.7998 1.5 -58.2998 31.2998 -58.2998 48.8994c0 4 0 13.2998 1 19l-2 1c-62 -59 -83.5 -69 -123 -69c-104.5 0 -138 86 -138 142
c0 157 161 312 276 312c52 0 74 -22 84 -52c23.0996 16 41.1992 33.5996 56.999 52l55 3c1.7998 0 2 -1.2002 2 -3.2002c0 0 -22.2998 -83.9004 -31.7002 -122.801l-47.2998 -196c-4.59961 -19.0996 -7 -33 -7 -42c0 -12 4 -16 9 -16c11 0 28.5 12.5 57 38l25 -23
c-18.7998 -18.5996 -34.8994 -33.6992 -49.2998 -45.999l-2.7002 -3c-44 -34 -85 -72 -95 -124c-1 -3 -1 -6 -1 -8c0 -22 20 -44 47 -44c24 0 47 16 73 38zM373 195c20 53 31 120 31 136c0 39 -18 74 -47 74c-80 0 -157 -151 -157 -254c0 -54 6 -111 50 -111
c28 0 90 72 123 155z" />
    <glyph glyph-name="Cacute" unicode="&#x106;" horiz-adv-x="665" 
d="M354 -10c-189.5 0 -271.9 122.699 -271.9 260.1c0 21.4004 2 43.2002 5.90039 64.9004c34 197 207 343 384 343c128 0 153 -44 202 -44c-6 -58 -9 -114 -9 -169l-38 -8c-13 95 -39 180 -162 180c-93 0 -214 -85 -249 -283c-4.7998 -27.5 -7.39941 -55.5996 -7.39941 -83
c0 -114.3 44.2998 -217 152.399 -217c77 0 153 32 242 119l25 -24c-81 -90 -173 -139 -274 -139zM579 822.999l58 -56l-153 -58c-23 -9 -36 -12 -45 -12c-8 0 -12 4 -12 12v3c1 7 6 19 15 25z" />
    <glyph glyph-name="cacute" unicode="&#x107;" horiz-adv-x="444" 
d="M238 -10c-100 0 -166 98 -166 162c0 166 140 292 265 292c110 0 146 -57 146 -107c0 -37 -47 -50 -62 -50c-44 0 -54 19 -54 36c0 19 4 17 4 47c0 29 -23 35 -31 35c-66 0 -144 -87 -144 -232c0 -114 47 -132 73 -132c23 0 83 29 123 75l40 -34
c-48 -49 -102 -92 -194 -92zM403 665c3 1 10 2 15 2c36 0 42 -17 50 -23l6 -24l-137 -102c-13 -10 -28 -14 -38 -14c-7 0 -12 5 -12 11c0 3 2 13 11 24z" />
    <glyph glyph-name="Ccircumflex" unicode="&#x108;" horiz-adv-x="665" 
d="M354 -10c-189.5 0 -271.9 122.699 -271.9 260.1c0 21.4004 2 43.2002 5.90039 64.9004c34 197 207 343 384 343c128 0 153 -44 202 -44c-6 -58 -9 -114 -9 -169l-38 -8c-13 95 -39 180 -162 180c-93 0 -214 -85 -249 -283c-4.7998 -27.5 -7.39941 -55.5996 -7.39941 -83
c0 -114.3 44.2998 -217 152.399 -217c77 0 153 32 242 119l25 -24c-81 -90 -173 -139 -274 -139zM562 805.999c24 -36 55 -67 86 -94l-23 -21c-36 18 -64 35 -93 59c-40 -26 -72 -42 -112 -59l-15 21c42 28 78 60 114 94h43z" />
    <glyph glyph-name="ccircumflex" unicode="&#x109;" horiz-adv-x="444" 
d="M238 -10c-100 0 -166 98 -166 162c0 166 140 292 265 292c110 0 146 -57 146 -107c0 -37 -47 -50 -62 -50c-44 0 -54 19 -54 36c0 19 4 17 4 47c0 29 -23 35 -31 35c-66 0 -144 -87 -144 -232c0 -114 47 -132 73 -132c23 0 83 29 123 75l40 -34
c-48 -49 -102 -92 -194 -92zM403 646c20 -47 48 -89 75 -129l-28 -18c-34 27 -59 48 -85 84c-45 -38 -75 -57 -120 -84l-20 18c43 40 90 83 128 129h50z" />
    <glyph glyph-name="Cdotaccent" unicode="&#x10a;" horiz-adv-x="637" 
d="M354 -10c-189.5 0 -271.9 122.699 -271.9 260.1c0 21.4004 2 43.2002 5.90039 64.9004c34 197 207 343 384 343c128 0 153 -44 202 -44c-6 -58 -9 -114 -9 -169l-38 -8c-13 95 -39 180 -162 180c-93 0 -214 -85 -249 -283c-4.7998 -27.5 -7.39941 -55.5996 -7.39941 -83
c0 -114.3 44.2998 -217 152.399 -217c77 0 153 32 242 119l25 -24c-81 -90 -173 -139 -274 -139zM417 741.999c0 37 30 68 66 68c31 0 54 -25 54 -53c0 -37 -31 -67 -66 -67c-32 0 -54 24 -54 52z" />
    <glyph glyph-name="cdotaccent" unicode="&#x10b;" horiz-adv-x="444" 
d="M238 -10c-100 0 -166 98 -166 162c0 166 140 292 265 292c110 0 146 -57 146 -107c0 -37 -47 -50 -62 -50c-44 0 -54 19 -54 36c0 19 4 17 4 47c0 29 -23 35 -31 35c-66 0 -144 -87 -144 -232c0 -114 47 -132 73 -132c23 0 83 29 123 75l40 -34
c-48 -49 -102 -92 -194 -92zM290 564c0 37 30 68 66 68c31 0 54 -25 54 -53c0 -37 -31 -67 -66 -67c-32 0 -54 24 -54 52z" />
    <glyph glyph-name="Ccaron" unicode="&#x10c;" horiz-adv-x="637" 
d="M354 -10c-189.5 0 -271.9 122.699 -271.9 260.1c0 21.4004 2 43.2002 5.90039 64.9004c34 197 207 343 384 343c128 0 153 -44 202 -44c-6 -58 -9 -114 -9 -169l-38 -8c-13 95 -39 180 -162 180c-93 0 -214 -85 -249 -283c-4.7998 -27.5 -7.39941 -55.5996 -7.39941 -83
c0 -114.3 44.2998 -217 152.399 -217c77 0 153 32 242 119l25 -24c-81 -90 -173 -139 -274 -139zM493 696.999c-24 37 -54 67 -85 95l23 20c36 -17 63 -34 92 -59c41 27 72 43 113 59l15 -20c-42 -29 -79 -61 -115 -95h-43z" />
    <glyph glyph-name="ccaron" unicode="&#x10d;" horiz-adv-x="452" 
d="M238 -10c-100 0 -166 98 -166 162c0 166 140 292 265 292c110 0 146 -57 146 -107c0 -37 -47 -50 -62 -50c-44 0 -54 19 -54 36c0 19 4 17 4 47c0 29 -23 35 -31 35c-66 0 -144 -87 -144 -232c0 -114 47 -132 73 -132c23 0 83 29 123 75l40 -34
c-48 -49 -102 -92 -194 -92zM363 498h-50c-20 46 -49 90 -76 129l27 18c34 -27 57 -46 86 -84c41 36 75 57 120 84l21 -18c-44 -40 -89 -82 -128 -129z" />
    <glyph glyph-name="Dcaron" unicode="&#x10e;" horiz-adv-x="688" 
d="M225 75c-0.799805 -4.40039 -1.2998 -8.39941 -1.2998 -11.7998c0 -18.9004 14.7998 -23.2002 78.2998 -23.2002c123 0 240 48 275 244c4.7998 27.9004 7.5 56.5 7.5 84.5c0 123.8 -52.4004 237.5 -206.5 237.5c-34 0 -60 -3 -66 -35zM23 0.000976562l-2.00098 2l4 22
c1 6 5 9 9 9h14c38 0 55 12 60 44l87 492c0.900391 4.90039 1.40039 9.40039 1.40039 13.4004c0 22 -14.2998 30.5996 -46.3994 30.5996h-14c-3 0 -7 3 -6 8l4 23l3 2h284c174.4 0 292 -121.6 292 -279.6c0 -18.7002 -1.59961 -37.9004 -5 -57.4004
c-44 -246 -241 -309 -384 -309h-301zM385.999 697.001c-24 37 -54 67 -85 95l23 20c36 -17 63 -34 92 -59c41 27 72 43 113 59l15 -20c-42 -29 -79 -61 -115 -95h-43z" />
    <glyph glyph-name="dcaron" unicode="&#x10f;" horiz-adv-x="607" 
d="M402 332c0 40 -20 73 -49 73c-91 0 -160 -134 -160 -251c0 -53 4 -115 57 -115c23 0 86 68 117 141c20 53 35 137 35 152zM577 583l-107 -458c-4.5 -19.0996 -7 -33 -7 -42c0 -12 4 -16 9 -16c11 0 29 15 51 42l31 -27c-62 -63 -110 -92 -162 -92c-51 0 -55 31 -55 49
c0 4 1 16 2 21l-2 1c-52.5 -59 -94.7002 -71 -122 -71c-135 0 -145 107 -145 154c0 172 173 300 280 300c26 0 54 -7 75 -19c11 50 29 132 29 132c4.7998 21.7998 7 39 7 50c0 22 -8 28 -21 28l-31 2c-4 0 -5 2 -5 5l4 30c41 3 155 16 182 26c9 0 12 -3 12 -10
c0 0 -9.90039 -40.4004 -25 -105zM684 709c32 0 47 -26 47 -55c0 -6 0 -12 -2 -18c-5 -26 -35 -101 -127 -106l-1 17c44 9 69 46 74 69c2 10 0 18 -7 18c-32 0 -39 15 -39 29c0 4 1 9 2 12c3 16 17 34 53 34z" />
    <glyph glyph-name="Dcroat" unicode="&#x110;" horiz-adv-x="688" 
d="M225 75c-0.799805 -4.40039 -1.2998 -8.39941 -1.2998 -11.7998c0 -18.9004 14.7998 -23.2002 78.2998 -23.2002c123 0 240 48 275 244c4.7998 27.9004 7.5 56.5 7.5 84.5c0 123.8 -52.4004 237.5 -206.5 237.5c-34 0 -60 -3 -66 -35l-42.2998 -241h95.2998
c8 0 11 -5 11 -11c0 -5.7002 -12.5 -33 -30 -33h-84zM23 0.000976562l-2.00098 2l4 22c1 6 5 9 9 9h14c38 0 55 12 60 44l37 209h-99c-7 0 -10 5 -10 11c0 7.90039 13.0996 33 28 33h88.7002l42.2998 239c0.900391 4.90039 1.40039 9.40039 1.40039 13.4004
c0 22 -14.2998 30.5996 -46.3994 30.5996h-14c-3 0 -7 3 -6 8l4 23l3 2h284c174.4 0 292 -121.6 292 -279.6c0 -18.7002 -1.59961 -37.9004 -5 -57.4004c-44 -246 -241 -309 -384 -309h-301z" />
    <glyph glyph-name="dcroat" unicode="&#x111;" horiz-adv-x="556" 
d="M402 332c0 40 -20 73 -49 73c-91 0 -160 -134 -160 -251c0 -53 4 -115 57 -115c23 0 86 68 117 141c20 53 35 137 35 152zM457.4 574c2.5 13.7998 3.59863 25 3.59863 33c0 22 -8 28 -21 28l-31 2c-4 0 -5 2 -5 5l4 30c41 3 155 16 182 26c9 0 12 -3 12 -10
c0 0 -9.90039 -40.4004 -25 -105l-2.09961 -9h67.0996c8 0 11 -5 11 -11c0 -5.7002 -12.5 -33 -30 -33h-58.4004l-94.5996 -405c-4.5 -19.0996 -7 -33 -7 -42c0 -12 4 -16 9 -16c11 0 29 15 51 42l31 -27c-62 -63 -110 -92 -162 -92c-51 0 -55 31 -55 49c0 4 1 16 2 21l-2 1
c-52.5 -59 -94.7002 -71 -122 -71c-135 0 -145 107 -145 154c0 172 173 300 280 300c26 0 54 -7 75 -19c7 31.7998 16.9004 76.5996 23.1006 105h-125.1c-7 0 -10 5 -10 11c0 7.90039 13.0996 33 28 33h116.4z" />
    <glyph glyph-name="Emacron" unicode="&#x112;" horiz-adv-x="538" 
d="M25 0l-2.00098 2l4 22c1 6 5 9 9 9h13c39 0 55 12 61 44l87 492c0.700195 4.5 1.10059 8.59961 1.10059 12.3994c0 22.7002 -13.5 31.6006 -46.0996 31.6006h-14c-4 0 -7 3 -6 8l4 23l3 2h448c-7 -58 -9 -111 -9 -162l-40 -9c-4 51 -15 125 -79 125h-125
c-9 0 -15 -8 -19 -29l-36 -206h108c24 0 34 31 47 71c0 4 7 11 17 11h20l4 -10c-5 -16 -17 -56 -23 -93c-6 -36 -9 -76 -10 -93l-7 -9h-20c-10 0 -15 6 -14 10c0.5 10.2002 0.900391 19.7998 0.900391 28.3994c0 25.7002 -3.90039 42.6006 -21.9004 42.6006h-108l-44 -248
c-1.2002 -6.7002 -1.7002 -12 -1.7002 -16.0996c0 -9.90039 3.2998 -12.9004 9.7002 -12.9004h147c53 0 98 59 127 133l40 -10c-19 -53 -40 -115 -56 -169h-469zM532.999 717h-265c-7 0 -10 6 -10 12c0 2 0 3 1 5c2 12 17 31 30 31h264c9 0 12 -6 12 -12c0 -1 0 -2 -1 -4
c-2 -13 -18 -32 -31 -32z" />
    <glyph glyph-name="emacron" unicode="&#x113;" horiz-adv-x="474" 
d="M364 365c0 25 -16 35 -39 35c-39 0 -80 -36 -115 -176c74 12 154 44 154 141zM475 369c0 -37 -10 -145 -270 -183c-8 -93 43 -120 72 -120c36 0 91 9 151 73c14 0 28 -13 26 -29c-57 -79 -138 -120 -229 -120c-116 0 -146 88 -146 175c0 113 96 279 279 279
c96 0 117 -39 117 -75zM485 536h-265c-7 0 -10 6 -10 12c0 2 0 3 1 5c2 12 17 31 30 31h264c9 0 12 -6 12 -12c0 -1 0 -2 -1 -4c-2 -13 -18 -32 -31 -32z" />
    <glyph glyph-name="Ebreve" unicode="&#x114;" horiz-adv-x="538" 
d="M25 0l-2.00098 2l4 22c1 6 5 9 9 9h13c39 0 55 12 61 44l87 492c0.700195 4.5 1.10059 8.59961 1.10059 12.3994c0 22.7002 -13.5 31.6006 -46.0996 31.6006h-14c-4 0 -7 3 -6 8l4 23l3 2h448c-7 -58 -9 -111 -9 -162l-40 -9c-4 51 -15 125 -79 125h-125
c-9 0 -15 -8 -19 -29l-36 -206h108c24 0 34 31 47 71c0 4 7 11 17 11h20l4 -10c-5 -16 -17 -56 -23 -93c-6 -36 -9 -76 -10 -93l-7 -9h-20c-10 0 -15 6 -14 10c0.5 10.2002 0.900391 19.7998 0.900391 28.3994c0 25.7002 -3.90039 42.6006 -21.9004 42.6006h-108l-44 -248
c-1.2002 -6.7002 -1.7002 -12 -1.7002 -16.0996c0 -9.90039 3.2998 -12.9004 9.7002 -12.9004h147c53 0 98 59 127 133l40 -10c-19 -53 -40 -115 -56 -169h-469zM538.999 803c-17 -71 -87 -113 -152 -113c-70 0 -119 39 -119 102v11h31c2 -39 43 -58 96 -58
c49 0 102 19 115 58h29z" />
    <glyph glyph-name="ebreve" unicode="&#x115;" horiz-adv-x="486" 
d="M364 365c0 25 -16 35 -39 35c-39 0 -80 -36 -115 -176c74 12 154 44 154 141zM475 369c0 -37 -10 -145 -270 -183c-8 -93 43 -120 72 -120c36 0 91 9 151 73c14 0 28 -13 26 -29c-57 -79 -138 -120 -229 -120c-116 0 -146 88 -146 175c0 113 96 279 279 279
c96 0 117 -39 117 -75zM277 650c-1 -6 -1 -11 -1 -15c0 -44 33 -75 87 -75c46 0 106 28 121 90l29 -14c-31 -101 -113 -138 -163 -138c-70 0 -109 50 -109 118c0 6 1 13 2 20z" />
    <glyph glyph-name="Edotaccent" unicode="&#x116;" horiz-adv-x="538" 
d="M25 0l-2.00098 2l4 22c1 6 5 9 9 9h13c39 0 55 12 61 44l87 492c0.700195 4.5 1.10059 8.59961 1.10059 12.3994c0 22.7002 -13.5 31.6006 -46.0996 31.6006h-14c-4 0 -7 3 -6 8l4 23l3 2h448c-7 -58 -9 -111 -9 -162l-40 -9c-4 51 -15 125 -79 125h-125
c-9 0 -15 -8 -19 -29l-36 -206h108c24 0 34 31 47 71c0 4 7 11 17 11h20l4 -10c-5 -16 -17 -56 -23 -93c-6 -36 -9 -76 -10 -93l-7 -9h-20c-10 0 -15 6 -14 10c0.5 10.2002 0.900391 19.7998 0.900391 28.3994c0 25.7002 -3.90039 42.6006 -21.9004 42.6006h-108l-44 -248
c-1.2002 -6.7002 -1.7002 -12 -1.7002 -16.0996c0 -9.90039 3.2998 -12.9004 9.7002 -12.9004h147c53 0 98 59 127 133l40 -10c-19 -53 -40 -115 -56 -169h-469zM349.999 737c0 37 30 68 66 68c31 0 54 -25 54 -53c0 -37 -31 -67 -66 -67c-32 0 -54 24 -54 52z" />
    <glyph glyph-name="edotaccent" unicode="&#x117;" horiz-adv-x="474" 
d="M364 365c0 25 -16 35 -39 35c-39 0 -80 -36 -115 -176c74 12 154 44 154 141zM475 369c0 -37 -10 -145 -270 -183c-8 -93 43 -120 72 -120c36 0 91 9 151 73c14 0 28 -13 26 -29c-57 -79 -138 -120 -229 -120c-116 0 -146 88 -146 175c0 113 96 279 279 279
c96 0 117 -39 117 -75zM324 564c0 37 30 68 66 68c31 0 54 -25 54 -53c0 -37 -31 -67 -66 -67c-32 0 -54 24 -54 52z" />
    <glyph glyph-name="Eogonek" unicode="&#x118;" horiz-adv-x="538" 
d="M412 -224c-54 0 -94.001 31 -94.001 85c0 47.5 40 105.6 100.2 139h-393.2l-2 2l4 22c1 6 5 9 9 9h13c39 0 55 12 61 44l87 492c0.700195 4.5 1.10059 8.59961 1.10059 12.3994c0 22.7002 -13.5 31.6006 -46.0996 31.6006h-14c-4 0 -7 3 -6 8l4 23l3 2h448
c-7 -58 -9 -111 -9 -162l-40 -9c-4 51 -15 125 -79 125h-125c-9 0 -15 -8 -19 -29l-36 -206h108c24 0 34 31 47 71c0 4 7 11 17 11h20l4 -10c-5 -16 -17 -56 -23 -93c-6 -36 -9 -76 -10 -93l-7 -9h-20c-10 0 -15 6 -14 10c0.5 10.2002 0.900391 19.7998 0.900391 28.3994
c0 25.7002 -3.90039 42.6006 -21.9004 42.6006h-108l-44 -248c-1.2002 -6.7002 -1.7002 -12 -1.7002 -16.0996c0 -9.90039 3.2998 -12.9004 9.7002 -12.9004h147c53 0 98 59 127 133l40 -10c-17.0996 -47.5996 -35.7998 -102.5 -51 -152.3l14 -16.7002
c-80 0 -135 -75 -135 -126c0 -32 22 -59 59 -59c29 0 50 15 69 36l15 -8c-23 -47 -74 -67 -109 -67z" />
    <glyph glyph-name="eogonek" unicode="&#x119;" horiz-adv-x="474" 
d="M393 -140c-37 -45 -78.999 -68 -119.999 -68c-47 0 -84 23 -84 67c0 5 1 11 2 17c9.09961 43.2998 48.2998 85 93.3994 120.1c-19.2002 -4.09961 -39 -6.09961 -59.4004 -6.09961c-116 0 -146 88 -146 175c0 113 96 279 279 279c96 0 117 -39 117 -75
c0 -37 -10 -145 -270 -183c-8 -93 43 -120 72 -120c36 0 91 9 151 73c14 0 28 -13 26 -29c-20.7002 -28.5996 -44.4004 -52.2998 -70.7002 -70.7998l4.7002 -6.2002c-54 -42 -116 -84 -129 -150c-1 -3 -1 -6 -1 -8c0 -23 20 -44 47 -44c24 0 46 16 73 38zM364.001 365
c0 25 -16 35 -39 35c-39 0 -80 -36 -115 -176c74 12 154 44 154 141z" />
    <glyph glyph-name="Ecaron" unicode="&#x11a;" horiz-adv-x="538" 
d="M25 0l-2.00098 2l4 22c1 6 5 9 9 9h13c39 0 55 12 61 44l87 492c0.700195 4.5 1.10059 8.59961 1.10059 12.3994c0 22.7002 -13.5 31.6006 -46.0996 31.6006h-14c-4 0 -7 3 -6 8l4 23l3 2h448c-7 -58 -9 -111 -9 -162l-40 -9c-4 51 -15 125 -79 125h-125
c-9 0 -15 -8 -19 -29l-36 -206h108c24 0 34 31 47 71c0 4 7 11 17 11h20l4 -10c-5 -16 -17 -56 -23 -93c-6 -36 -9 -76 -10 -93l-7 -9h-20c-10 0 -15 6 -14 10c0.5 10.2002 0.900391 19.7998 0.900391 28.3994c0 25.7002 -3.90039 42.6006 -21.9004 42.6006h-108l-44 -248
c-1.2002 -6.7002 -1.7002 -12 -1.7002 -16.0996c0 -9.90039 3.2998 -12.9004 9.7002 -12.9004h147c53 0 98 59 127 133l40 -10c-19 -53 -40 -115 -56 -169h-469zM438.999 697c-24 37 -54 67 -85 95l23 20c36 -17 63 -34 92 -59c41 27 72 43 113 59l15 -20
c-42 -29 -79 -61 -115 -95h-43z" />
    <glyph glyph-name="ecaron" unicode="&#x11b;" horiz-adv-x="474" 
d="M364 365c0 25 -16 35 -39 35c-39 0 -80 -36 -115 -176c74 12 154 44 154 141zM475 369c0 -37 -10 -145 -270 -183c-8 -93 43 -120 72 -120c36 0 91 9 151 73c14 0 28 -13 26 -29c-57 -79 -138 -120 -229 -120c-116 0 -146 88 -146 175c0 113 96 279 279 279
c96 0 117 -39 117 -75zM383 497h-50c-20 46 -49 90 -76 129l27 18c34 -27 57 -46 86 -84c41 36 75 57 120 84l21 -18c-44 -40 -89 -82 -128 -129z" />
    <glyph glyph-name="Gcircumflex" unicode="&#x11c;" horiz-adv-x="696" 
d="M663 229l-20.002 -114.998c-3 -15 0 -22 6 -29c-78 -59 -160 -95 -281 -95c-181.6 0 -291.1 114.1 -291.1 261.899c0 18.2002 1.7002 37 5.10059 56.0996c38 220 230 350 401 350c130 0 154 -44 203 -44c-8 -58 -9 -114 -9 -169l-39 -8c-10 94 -41 180 -163 180
c-116 0 -235 -119 -265 -290c-4.2998 -24.2002 -6.5 -48.2002 -6.5 -71.4004c0 -121.5 60.2002 -221.6 189.5 -221.6c42 0 93 12 130 40l28 155c0.400391 2.2998 0.600586 4.59961 0.600586 6.69922c0 26 -27.5 36.2998 -62.5996 36.2998h-13c-4 0 -8 3 -7 9l5 23l2 2
s93 -2 130 -2c35 0 125 2 125 2l2 -2l-4 -23c-1 -6 -5 -9 -10 -9h-5c-40 0 -46 -16 -51 -43zM548.998 805.002c24 -36 55 -67 86 -94l-23 -21c-36 18 -64 35 -93 59c-40 -26 -72 -42 -112 -59l-15 21c42 28 78 60 114 94h43z" />
    <glyph glyph-name="gcircumflex" unicode="&#x11d;" horiz-adv-x="477" 
d="M161 -23c-25 -18 -67 -42 -67 -90c0 -55 34 -82 146 -82c88 0 112 30 112 68c0 35 -14 47 -70 73c-33 15 -103 27 -121 31zM435 291c0 -93 -92 -158.999 -172 -158.999c-28 0 -68 3 -84 13c-29 -54.7998 56.4004 -75.5996 146 -101c81 -23 122 -79 122 -144
c0 -99 -111 -138 -248 -138c-81 0 -192 21 -192 102c0 60 82 105 135 134c-42 14 -56 40 -56 58c0 31 25 68 68 105c-42 22 -50 78 -50 122c0 80 78 156 176 156c44.2998 0 96 -12 118 -38c35 32 59.7002 44.5 87.5 44.5c32.0996 0 47 -21.4004 47 -40.7002
c0 -20.4004 -19.2002 -35.3008 -38.5 -35.3008c-17.2998 0 -22 11.5 -27 19.5c-3 5 -6 10 -15 10c-7 0 -22 -7 -37 -21c14 -19 20 -60 20 -87zM321 291.001c0 68 1 108 -42 108c-37 0 -61 -53 -61 -117c0 -48 -1 -110 46 -110c32.2002 0 57 57 57 119zM417 645.001
c20 -47 48 -89 75 -129l-28 -18c-34 27 -59 48 -85 84c-45 -38 -75 -57 -120 -84l-20 18c43 40 90 83 128 129h50z" />
    <glyph glyph-name="Gbreve" unicode="&#x11e;" horiz-adv-x="727" 
d="M663 229l-20.002 -114.998c-3 -15 0 -22 6 -29c-78 -59 -160 -95 -281 -95c-181.6 0 -291.1 114.1 -291.1 261.899c0 18.2002 1.7002 37 5.10059 56.0996c38 220 230 350 401 350c130 0 154 -44 203 -44c-8 -58 -9 -114 -9 -169l-39 -8c-10 94 -41 180 -163 180
c-116 0 -235 -119 -265 -290c-4.2998 -24.2002 -6.5 -48.2002 -6.5 -71.4004c0 -121.5 60.2002 -221.6 189.5 -221.6c42 0 93 12 130 40l28 155c0.400391 2.2998 0.600586 4.59961 0.600586 6.69922c0 26 -27.5 36.2998 -62.5996 36.2998h-13c-4 0 -8 3 -7 9l5 23l2 2
s93 -2 130 -2c35 0 125 2 125 2l2 -2l-4 -23c-1 -6 -5 -9 -10 -9h-5c-40 0 -46 -16 -51 -43zM673.998 806.002c-17 -71 -87 -113 -152 -113c-70 0 -119 39 -119 102v11h31c2 -39 43 -58 96 -58c49 0 102 19 115 58h29z" />
    <glyph glyph-name="gbreve" unicode="&#x11f;" horiz-adv-x="477" 
d="M161 -23c-25 -18 -67 -42 -67 -90c0 -55 34 -82 146 -82c88 0 112 30 112 68c0 35 -14 47 -70 73c-33 15 -103 27 -121 31zM435 291c0 -93 -92 -158.999 -172 -158.999c-28 0 -68 3 -84 13c-29 -54.7998 56.4004 -75.5996 146 -101c81 -23 122 -79 122 -144
c0 -99 -111 -138 -248 -138c-81 0 -192 21 -192 102c0 60 82 105 135 134c-42 14 -56 40 -56 58c0 31 25 68 68 105c-42 22 -50 78 -50 122c0 80 78 156 176 156c44.2998 0 96 -12 118 -38c35 32 59.7002 44.5 87.5 44.5c32.0996 0 47 -21.4004 47 -40.7002
c0 -20.4004 -19.2002 -35.3008 -38.5 -35.3008c-17.2998 0 -22 11.5 -27 19.5c-3 5 -6 10 -15 10c-7 0 -22 -7 -37 -21c14 -19 20 -60 20 -87zM321 291.001c0 68 1 108 -42 108c-37 0 -61 -53 -61 -117c0 -48 -1 -110 46 -110c32.2002 0 57 57 57 119zM280 646.001
c-1 -6 -1 -11 -1 -15c0 -44 33 -75 87 -75c46 0 106 28 121 90l29 -14c-31 -101 -113 -138 -163 -138c-70 0 -109 50 -109 118c0 6 1 13 2 20z" />
    <glyph glyph-name="Gdotaccent" unicode="&#x120;" horiz-adv-x="727" 
d="M663 229l-20.002 -114.998c-3 -15 0 -22 6 -29c-78 -59 -160 -95 -281 -95c-181.6 0 -291.1 114.1 -291.1 261.899c0 18.2002 1.7002 37 5.10059 56.0996c38 220 230 350 401 350c130 0 154 -44 203 -44c-8 -58 -9 -114 -9 -169l-39 -8c-10 94 -41 180 -163 180
c-116 0 -235 -119 -265 -290c-4.2998 -24.2002 -6.5 -48.2002 -6.5 -71.4004c0 -121.5 60.2002 -221.6 189.5 -221.6c42 0 93 12 130 40l28 155c0.400391 2.2998 0.600586 4.59961 0.600586 6.69922c0 26 -27.5 36.2998 -62.5996 36.2998h-13c-4 0 -8 3 -7 9l5 23l2 2
s93 -2 130 -2c35 0 125 2 125 2l2 -2l-4 -23c-1 -6 -5 -9 -10 -9h-5c-40 0 -46 -16 -51 -43zM471.998 746.002c0 37 30 68 66 68c31 0 54 -25 54 -53c0 -37 -31 -67 -66 -67c-32 0 -54 24 -54 52z" />
    <glyph glyph-name="gdotaccent" unicode="&#x121;" horiz-adv-x="477" 
d="M161 -23c-25 -18 -67 -42 -67 -90c0 -55 34 -82 146 -82c88 0 112 30 112 68c0 35 -14 47 -70 73c-33 15 -103 27 -121 31zM435 291c0 -93 -92 -158.999 -172 -158.999c-28 0 -68 3 -84 13c-29 -54.7998 56.4004 -75.5996 146 -101c81 -23 122 -79 122 -144
c0 -99 -111 -138 -248 -138c-81 0 -192 21 -192 102c0 60 82 105 135 134c-42 14 -56 40 -56 58c0 31 25 68 68 105c-42 22 -50 78 -50 122c0 80 78 156 176 156c44.2998 0 96 -12 118 -38c35 32 59.7002 44.5 87.5 44.5c32.0996 0 47 -21.4004 47 -40.7002
c0 -20.4004 -19.2002 -35.3008 -38.5 -35.3008c-17.2998 0 -22 11.5 -27 19.5c-3 5 -6 10 -15 10c-7 0 -22 -7 -37 -21c14 -19 20 -60 20 -87zM321 291.001c0 68 1 108 -42 108c-37 0 -61 -53 -61 -117c0 -48 -1 -110 46 -110c32.2002 0 57 57 57 119zM319 571.001
c0 33 26 60 59 60s60 -27 60 -60s-27 -60 -60 -60s-59 27 -59 60z" />
    <glyph glyph-name="Gcommaaccent" unicode="&#x122;" horiz-adv-x="696" 
d="M663 229l-20.002 -114.998c-3 -15 0 -22 6 -29c-78 -59 -160 -95 -281 -95c-181.6 0 -291.1 114.1 -291.1 261.899c0 18.2002 1.7002 37 5.10059 56.0996c38 220 230 350 401 350c130 0 154 -44 203 -44c-8 -58 -9 -114 -9 -169l-39 -8c-10 94 -41 180 -163 180
c-116 0 -235 -119 -265 -290c-4.2998 -24.2002 -6.5 -48.2002 -6.5 -71.4004c0 -121.5 60.2002 -221.6 189.5 -221.6c42 0 93 12 130 40l28 155c0.400391 2.2998 0.600586 4.59961 0.600586 6.69922c0 26 -27.5 36.2998 -62.5996 36.2998h-13c-4 0 -8 3 -7 9l5 23l2 2
s93 -2 130 -2c35 0 125 2 125 2l2 -2l-4 -23c-1 -6 -5 -9 -10 -9h-5c-40 0 -46 -16 -51 -43zM371.998 -52.998c31 0 50 -21 50 -61c0 -10 -1 -21 -4 -32c-14 -70 -68 -88 -130 -99v25c55 13 82 28 86 49c1 3 1 5 1 7c0 17 -14 21 -30 22c-17 2 -38 12 -38 32c0 2 0 4 1 6
c5 28 32 51 64 51z" />
    <glyph glyph-name="gcommaaccent" unicode="&#x123;" horiz-adv-x="477" 
d="M161 -23c-25 -18 -67 -42 -67 -90c0 -55 34 -82 146 -82c88 0 112 30 112 68c0 35 -14 47 -70 73c-33 15 -103 27 -121 31zM435 291c0 -93 -92 -158.999 -172 -158.999c-28 0 -68 3 -84 13c-29 -54.7998 56.4004 -75.5996 146 -101c81 -23 122 -79 122 -144
c0 -99 -111 -138 -248 -138c-81 0 -192 21 -192 102c0 60 82 105 135 134c-42 14 -56 40 -56 58c0 31 25 68 68 105c-42 22 -50 78 -50 122c0 80 78 156 176 156c44.2998 0 96 -12 118 -38c35 32 59.7002 44.5 87.5 44.5c32.0996 0 47 -21.4004 47 -40.7002
c0 -20.4004 -19.2002 -35.3008 -38.5 -35.3008c-17.2998 0 -22 11.5 -27 19.5c-3 5 -6 10 -15 10c-7 0 -22 -7 -37 -21c14 -19 20 -60 20 -87zM321 291.001c0 68 1 108 -42 108c-37 0 -61 -53 -61 -117c0 -48 -1 -110 46 -110c32.2002 0 57 57 57 119zM360 510.001
c-33 0 -51 28 -51 58c0 6 0 11 1 16c6 26 41 102 132 106v-17c-80 -15 -89 -74 -90 -78s-1 -7 -1 -10c9 7 19 10 27 10c34 0 43 -19 43 -34c0 -4 -1 -7 -1 -10c-4 -16 -24 -41 -60 -41z" />
    <glyph glyph-name="Hcircumflex" unicode="&#x124;" horiz-adv-x="746" 
d="M641 569c1 4 1 9 1 13c0 22 -14 31 -48 31h-14c-5 0 -8 3 -7 8l4 24l2 1s98 -1 137 -1c35 0 136 1 136 1l2 -1l-4 -24c-1 -5 -5 -8 -9 -8h-15c-41 0 -57 -16 -62 -44l-86 -492c-1 -4 -2 -8 -2 -12c0 -21 13 -32 48 -32h15c4 0 7 -3 6 -9l-4 -23l-2 -2s-102 2 -137 2
c-39 0 -136 -2 -136 -2l-2 2l4 23c1 6 5 9 10 9h14c40 0 57 12 62 44l43 244h-279l-43 -244c-1 -4 -2 -8 -2 -12c0 -21 13 -32 49 -32h14c5 0 7 -3 6 -9l-4 -23l-2 -2s-101 2 -137 2c-39 0 -136 -2 -136 -2l-2 2l4 23c1 6 6 9 10 9h14c40 0 57 12 63 44l86 492c1 4 2 9 2 13
c0 22 -15 31 -49 31h-14c-4 0 -7 2 -7 8l5 24l2 1s97 -1 136 -1c35 0 137 1 137 1l1 -1l-4 -24c-1 -5 -4 -8 -9 -8h-14c-41 0 -58 -16 -63 -44l-35 -202h280zM556 803c24 -36 55 -67 86 -94l-23 -21c-36 18 -64 35 -93 59c-40 -26 -72 -42 -112 -59l-15 21
c42 28 78 60 114 94h43z" />
    <glyph glyph-name="hcircumflex" unicode="&#x125;" horiz-adv-x="600" 
d="M95.7998 72l112 491.001c15.2002 66.5 11.7002 75 -51.3994 75c-3 9 -1.09961 22 4.60059 34c71 11.5 137.2 21.9004 183.7 26c9 0 15.2002 -4 13.2002 -13c0 0 -10.5 -36.5996 -25.7002 -102l-62.7002 -270.8c85.7002 98.2002 139.3 126.8 234.5 126.8
c61 0 53 -85.5 36 -156l-36 -149c-3.7002 -15.2002 -9.40039 -36.6006 -9.40039 -51.3008c0 -9.90039 2.7002 -16.7002 10.4004 -16.7002c10 0 38.5 14.5 63 34c14 0 23.5 -12 26 -26c-66.5 -55 -115.5 -84 -178 -84c-34 0 -44.9004 23.2998 -44.9004 56.2002
c0 23.0996 5.40039 50.8994 11.9004 78.7998l35 150c11.4004 49 27 99 -12 99c-22 0 -74 -39 -123 -112c-31.0996 -46.2998 -50.6992 -111 -67.1992 -181.6l-1.90039 -8.40039c-8 -34.5 -4.7002 -82 -73.9004 -82c-52 0 -56.9004 10.5 -56.9004 27.2002
c0 9.7998 8.09961 34.7002 12.6992 54.7998zM487 832.001c24 -36 55 -67 86 -94l-23 -21c-36 18 -64 35 -93 59c-40 -26 -72 -42 -112 -59l-15 21c42 28 78 60 114 94h43z" />
    <glyph glyph-name="Hbar" unicode="&#x126;" horiz-adv-x="746" 
d="M641 569c1 4 1 9 1 13c0 22 -14 31 -48 31h-14c-5 0 -8 3 -7 8l4 24l2 1s98 -1 137 -1c35 0 136 1 136 1l2 -1l-4 -24c-1 -5 -5 -8 -9 -8h-15c-41 0 -57 -16 -62 -44l-3.5 -20h47.5l-7 -39h-47.2998l-75.7002 -433c-1 -4 -2 -8 -2 -12c0 -21 13 -32 48 -32h15
c4 0 7 -3 6 -9l-4 -23l-2 -2s-102 2 -137 2c-39 0 -136 -2 -136 -2l-2 2l4 23c1 6 5 9 10 9h14c40 0 57 12 62 44l43 244h-279l-43 -244c-1 -4 -2 -8 -2 -12c0 -21 13 -32 49 -32h14c5 0 7 -3 6 -9l-4 -23l-2 -2s-101 2 -137 2c-39 0 -136 -2 -136 -2l-2 2l4 23
c1 6 6 9 10 9h14c40 0 57 12 63 44l75.7002 433h-41.7002l6 39h42.5l3.5 20c1 4 2 9 2 13c0 22 -15 31 -49 31h-14c-4 0 -7 2 -7 8l5 24l2 1s97 -1 136 -1c35 0 137 1 137 1l1 -1l-4 -24c-1 -5 -4 -8 -9 -8h-14c-41 0 -58 -16 -63 -44l-3.5 -20h280zM630.8 510h-280
l-24.7998 -143h280z" />
    <glyph glyph-name="hbar" unicode="&#x127;" horiz-adv-x="600" 
d="M329 569l128 0.000976562l-9 -39h-128l-50.5 -217.8c85.7002 98.2002 139.3 126.8 234.5 126.8c61 0 53 -85.5 36 -156l-36 -149c-3.7002 -15.2002 -9.40039 -36.6006 -9.40039 -51.3008c0 -9.90039 2.7002 -16.7002 10.4004 -16.7002c10 0 38.5 14.5 63 34
c14 0 23.5 -12 26 -26c-66.5 -55 -115.5 -84 -178 -84c-34 0 -44.9004 23.2998 -44.9004 56.2002c0 23.0996 5.40039 50.8994 11.9004 78.7998l35 150c11.4004 49 27 99 -12 99c-22 0 -74 -39 -123 -112c-31.0996 -46.2998 -50.6992 -111 -67.1992 -181.6l-1.90039 -8.40039
c-8 -34.5 -4.7002 -82 -73.9004 -82c-52 0 -56.9004 10.5 -56.9004 27.2002c0 9.7998 8.09961 34.7002 12.6992 54.7998l104.5 458h-67.2998l9 39h67.2002c13.5 61 8.2998 69 -52.7998 69c-3 9 -1.09961 22 4.60059 34c71 11.5 137.2 21.9004 183.7 26
c9 0 15.2002 -4 13.2002 -13c0 0 -10.5 -36.5996 -25.7002 -102z" />
    <glyph glyph-name="Itilde" unicode="&#x128;" horiz-adv-x="350" 
d="M271 122c-3.40039 -18.7002 -5.2002 -33.4004 -5.2002 -45c0 -40 19.7002 -41.7002 73.2002 -44c5 -6 6 -29 -1 -35c-50 1 -91 2 -150 2c-57 0 -98 -1 -147 -2c-5 6 -6 29 1 35c71 3 91 6 106 89l70 401c3.2998 18.0996 5 32.5 5 44c0 41 -18.0996 42.7002 -72 45
c-5 6 -7 29 0 35c50 -1 91 -2 150 -2c57 0 98 1 147 2c5 -6 5 -29 -2 -35c-71 -3 -90 -6 -105 -89zM394 745c21 0 36 9 58 56l24 -10c-24 -65 -60 -104 -106 -104c-22 0 -40 15 -58 29c-16 13 -32 25 -50 25c-26 0 -40 -14 -57 -51l-24 8c26 65 56 102 99 102
c30 0 49 -16 66 -31c14 -13 29 -24 48 -24z" />
    <glyph glyph-name="itilde" unicode="&#x129;" horiz-adv-x="321" 
d="M288.3 320.2l-45.2988 -186.199c-3.5 -15.2002 -9.40039 -36.6006 -9.40039 -51.3008c0 -9.90039 2.7002 -16.7002 10.4004 -16.7002c10 0 38.5 14.5 63 34c14 0 23.5 -12 26 -26c-66.5 -55 -115.5 -84 -178 -84c-34 0 -44.9004 23.2998 -44.9004 56.2002
c0 23.0996 5.2998 50.8994 11.8994 78.7998l45 191c6.7002 28 9 41.9004 9 51c0 10 -6 19 -18 20l-40 3c-6 9 -5.7002 25 1 33c47 6 137 13 169 13c13.2002 0 20.5 -7.40039 20.5 -21.1006c0 -17.0996 -10.7002 -55.6992 -20.2002 -94.6992zM317.001 575.001
c18.9004 0 32.4023 9 52.2021 56l21.5996 -10c-21.5996 -65 -54 -104 -95.4004 -104c-19.7998 0 -36 15 -52.2002 29c-14.4004 13 -28.8008 25 -45.001 25c-23.4004 0 -36 -14 -51.2998 -51l-21.5996 8c23.4004 65 50.4004 102 89.1006 102c27 0 44.0996 -16 59.3994 -31
c12.5996 -13 26.0996 -24 43.1992 -24z" />
    <glyph glyph-name="Imacron" unicode="&#x12a;" horiz-adv-x="343" 
d="M271 122c-3.40039 -18.7002 -5.2002 -33.4004 -5.2002 -45c0 -40 19.7002 -41.7002 73.2002 -44c5 -6 6 -29 -1 -35c-50 1 -91 2 -150 2c-57 0 -98 -1 -147 -2c-5 6 -6 29 1 35c71 3 91 6 106 89l70 401c3.2998 18.0996 5 32.5 5 44c0 41 -18.0996 42.7002 -72 45
c-5 6 -7 29 0 35c50 -1 91 -2 150 -2c57 0 98 1 147 2c5 -6 5 -29 -2 -35c-71 -3 -90 -6 -105 -89zM437 719h-265c-7 0 -10 6 -10 12c0 2 0 3 1 5c2 12 17 31 30 31h264c9 0 12 -6 12 -12c0 -1 0 -2 -1 -4c-2 -13 -18 -32 -31 -32z" />
    <glyph glyph-name="imacron" unicode="&#x12b;" horiz-adv-x="326" 
d="M288.3 320.2l-45.2988 -186.199c-3.5 -15.2002 -9.40039 -36.6006 -9.40039 -51.3008c0 -9.90039 2.7002 -16.7002 10.4004 -16.7002c10 0 38.5 14.5 63 34c14 0 23.5 -12 26 -26c-66.5 -55 -115.5 -84 -178 -84c-34 0 -44.9004 23.2998 -44.9004 56.2002
c0 23.0996 5.2998 50.8994 11.8994 78.7998l45 191c6.7002 28 9 41.9004 9 51c0 10 -6 19 -18 20l-40 3c-6 9 -5.7002 25 1 33c47 6 137 13 169 13c13.2002 0 20.5 -7.40039 20.5 -21.1006c0 -17.0996 -10.7002 -55.6992 -20.2002 -94.6992zM364.201 536.001h-238.499
c-6.2998 0 -9 6 -9 12c0 2 0 3 0.900391 5c1.7998 12 15.2998 31 27 31h237.6c8.09961 0 10.7998 -6 10.7998 -12c0 -1 0 -2 -0.900391 -4c-1.7998 -13 -16.2002 -32 -27.9004 -32z" />
    <glyph glyph-name="Ibreve" unicode="&#x12c;" horiz-adv-x="344" 
d="M271 122c-3.40039 -18.7002 -5.2002 -33.4004 -5.2002 -45c0 -40 19.7002 -41.7002 73.2002 -44c5 -6 6 -29 -1 -35c-50 1 -91 2 -150 2c-57 0 -98 -1 -147 -2c-5 6 -6 29 1 35c71 3 91 6 106 89l70 401c3.2998 18.0996 5 32.5 5 44c0 41 -18.0996 42.7002 -72 45
c-5 6 -7 29 0 35c50 -1 91 -2 150 -2c57 0 98 1 147 2c5 -6 5 -29 -2 -35c-71 -3 -90 -6 -105 -89zM461 806c-17 -71 -87 -113 -152 -113c-70 0 -119 39 -119 102v11h31c2 -39 43 -58 96 -58c49 0 102 19 115 58h29z" />
    <glyph glyph-name="ibreve" unicode="&#x12d;" horiz-adv-x="321" 
d="M288.3 320.2l-45.2988 -186.199c-3.5 -15.2002 -9.40039 -36.6006 -9.40039 -51.3008c0 -9.90039 2.7002 -16.7002 10.4004 -16.7002c10 0 38.5 14.5 63 34c14 0 23.5 -12 26 -26c-66.5 -55 -115.5 -84 -178 -84c-34 0 -44.9004 23.2998 -44.9004 56.2002
c0 23.0996 5.2998 50.8994 11.8994 78.7998l45 191c6.7002 28 9 41.9004 9 51c0 10 -6 19 -18 20l-40 3c-6 9 -5.7002 25 1 33c47 6 137 13 169 13c13.2002 0 20.5 -7.40039 20.5 -21.1006c0 -17.0996 -10.7002 -55.6992 -20.2002 -94.6992zM175.501 652.001
c-0.900391 -6 -0.900391 -11 -0.900391 -15c0 -44 29.7002 -75 78.2998 -75c41.4004 0 95.4004 28 108.9 90l26.0996 -14c-27.9004 -101 -101.7 -138 -146.7 -138c-63 0 -98.0996 50 -98.0996 118c0 6 0.900391 13 1.80078 20z" />
    <glyph glyph-name="Iogonek" unicode="&#x12e;" horiz-adv-x="352" 
d="M185 -225c-54 0 -94 31 -94 85c0 48 40.7998 106.8 102 140h-5c-57 0 -98 -1 -147 -2c-5 6 -6 29 1 35c71 3 91 6 106 89l70 401c3.2998 18.0996 5 32.5 5 44c0 41 -18.0996 42.7002 -72 45c-5 6 -7 29 0 35c50 -1 91 -2 150 -2c57 0 98 1 147 2c5 -6 5 -29 -2 -35
c-71 -3 -90 -6 -105 -89l-70 -401c-3.40039 -18.7002 -5.2002 -33.4004 -5.2002 -45c0 -40 19.7002 -41.7002 73.2002 -44c5 -6 6 -29 -1 -35c-18.0996 0.400391 -35 0.700195 -52 1c-80 0 -135 -75 -135 -126c0 -32 22 -59 58 -59c30 0 51 15 70 36l15 -8
c-23 -47 -74 -67 -109 -67z" />
    <glyph glyph-name="iogonek" unicode="&#x12f;" horiz-adv-x="315" 
d="M148 -225c-53 0 -91.999 31.002 -91.999 85.002c0 44 33.9004 97.0996 86.5 131.199c-24.2002 5.2002 -32.4004 26.5 -32.4004 55c0 23.0996 5.2998 50.8994 11.8994 78.7998l45 191c6.7002 28 9 41.9004 9 51c0 10 -6 19 -18 20l-40 3c-6 9 -5.7002 25 1 33
c47 6 137 13 169 13c13.2002 0 20.5 -7.40039 20.5 -21.1006c0 -17.0996 -10.7002 -55.6992 -20.2002 -94.6992l-45.2998 -186.2c-3.5 -15.2002 -9.40039 -36.6006 -9.40039 -51.3008c0 -9.90039 2.7002 -16.7002 10.4004 -16.7002c10 0 38.5 14.5 63 34
c14 0 23.5 -12 26 -26c-37 -30.5996 -68.5 -53.0996 -100 -67.0996c-58.5996 -43.5 -117 -93 -117 -133.9c0 -32 22 -59 58 -59c29 0 50 15 69 36l15 -8c-24 -47 -74 -67 -110 -67zM208.001 571.002c0 33 26 60 59 60s60 -27 60 -60s-27 -60 -60 -60s-59 27 -59 60z" />
    <glyph glyph-name="Idotaccent" unicode="&#x130;" horiz-adv-x="352" 
d="M271 122c-3.40039 -18.7002 -5.2002 -33.4004 -5.2002 -45c0 -40 19.7002 -41.7002 73.2002 -44c5 -6 6 -29 -1 -35c-50 1 -91 2 -150 2c-57 0 -98 -1 -147 -2c-5 6 -6 29 1 35c71 3 91 6 106 89l70 401c3.2998 18.0996 5 32.5 5 44c0 41 -18.0996 42.7002 -72 45
c-5 6 -7 29 0 35c50 -1 91 -2 150 -2c57 0 98 1 147 2c5 -6 5 -29 -2 -35c-71 -3 -90 -6 -105 -89zM262 743c0 37 30 68 66 68c31 0 54 -25 54 -53c0 -37 -31 -67 -66 -67c-32 0 -54 24 -54 52z" />
    <glyph glyph-name="dotlessi" unicode="&#x131;" horiz-adv-x="326" 
d="M290.3 320.2l-45.2988 -186.199c-3.5 -15.2002 -9.40039 -36.6006 -9.40039 -51.3008c0 -9.90039 2.7002 -16.7002 10.4004 -16.7002c10 0 38.5 14.5 63 34c14 0 23.5 -12 26 -26c-66.5 -55 -115.5 -84 -178 -84c-34 0 -44.9004 23.2998 -44.9004 56.2002
c0 23.0996 5.2998 50.8994 11.8994 78.7998l45 191c6.7002 28 9 41.9004 9 51c0 10 -6 19 -18 20l-40 3c-6 9 -5.7002 25 1 33c47 6 137 13 169 13c13.2002 0 20.5 -7.40039 20.5 -21.1006c0 -17.0996 -10.7002 -55.6992 -20.2002 -94.6992z" />
    <glyph glyph-name="IJ" unicode="&#x132;" horiz-adv-x="665" 
d="M558 556c0 4 1 7 1 11c0 26 -19 46 -55 46h-18c-4 0 -7 3 -7 8l5 24l2 1s109 -1 148 -1c36 0 137 1 137 1l2 -1l-4 -24c-1 -5 -5 -8 -10 -8h-14c-41 0 -57 -16 -62 -44l-84 -479c-20 -112 -50 -178 -122 -243c-31 -26 -72 -43 -111 -43c-38 0 -102 12 -102 59v11
c5 26 29 33 48 33c33 0 17 -22 17 -42c0 -18 36 -23 44 -23c35 0 67 51 99 226zM263 77c-1 -4 -2 -8 -2 -12c0 -21 14 -32 49 -32h14c5 0 8 -3 7 -9l-5 -23l-2 -2s-101 2 -137 2c-39 0 -136 -2 -136 -2l-2 2l4 23c1 6 6 9 10 9h14c40 0 57 12 63 44l86 492c1 4 2 9 2 13
c0 22 -15 31 -49 31h-14c-4 0 -8 3 -7 8l5 24l2 1s97 -1 136 -1c35 0 137 1 137 1l2 -1l-4 -24c-1 -5 -5 -8 -10 -8h-14c-41 0 -58 -16 -62 -44z" />
    <glyph glyph-name="ij" unicode="&#x133;" horiz-adv-x="562" 
d="M210 571c0 33 26 60 59 60s60 -27 60 -60s-27 -60 -60 -60s-59 27 -59 60zM290.3 320.2l-45.2988 -186.199c-3.5 -15.2002 -9.40039 -36.6006 -9.40039 -51.3008c0 -9.90039 2.7002 -16.7002 10.4004 -16.7002c10 0 38.5 14.5 63 34c14 0 23.5 -12 26 -26
c-66.5 -55 -115.5 -84 -178 -84c-34 0 -44.9004 23.2998 -44.9004 56.2002c0 23.0996 5.2998 50.8994 11.8994 78.7998l45 191c6.7002 28 9 41.9004 9 51c0 10 -6 19 -18 20l-40 3c-6 9 -5.7002 25 1 33c47 6 137 13 169 13c13.2002 0 20.5 -7.40039 20.5 -21.1006
c0 -17.0996 -10.7002 -55.6992 -20.2002 -94.6992zM445.001 316.001c6 27.5996 9 41.9014 9 51.001c0 10 -6 19 -18 20l-40 3c-6 9 -5.7002 25 1 33c47 6 137 13 169 13c13.2002 0 20.5 -7.40039 20.5 -21.1006c0 -17.0996 -11 -55.7998 -20.2002 -94.7002
l-20.2998 -85.2002c-56.7998 -238.8 -109 -442 -252 -442c-55 0 -113.5 20 -113.5 54.0996c0 33.9004 24.0996 39.9004 39.5 39.9004c57.2002 0 52.5 -56 84 -56c21 0 58.5 59 75 135c14.7998 68.5 20 140 36 213zM486.001 571.003c0 33 26 60 59 60s60 -27 60 -60
s-27 -60 -60 -60s-59 27 -59 60z" />
    <glyph glyph-name="Jcircumflex" unicode="&#x134;" horiz-adv-x="340" 
d="M377 805c24 -36 53 -67 84 -94l-23 -21c-37 18 -63 35 -92 60c-41 -27 -73 -43 -114 -60l-14 21c42 28 80 60 116 94h43zM244 556c0 4 1 7 1 11c0 26 -19 46 -55 46h-18c-4 0 -7 3 -6 8l4 24l2 1s109 -1 148 -1c36 0 137 1 137 1l2 -1l-4 -24c-1 -5 -5 -8 -10 -8h-14
c-41 0 -57 -16 -62 -44l-84 -479c-20 -112 -50 -178 -122 -243c-31 -26 -72 -43 -111 -43c-38 0 -103 12 -103 59c0 4 1 7 1 11c5 26 29 33 49 33c32 0 40 -22 40 -42c0 -11 12 -23 20 -23c35 0 67 51 99 226z" />
    <glyph glyph-name="jcircumflex" unicode="&#x135;" horiz-adv-x="349" 
d="M196 316c6 27.5996 9 41.9014 9 51.001c0 10 -6 19 -18 20l-40 3c-6 9 -5.7002 25 1 33c47 6 137 13 169 13c13.2002 0 20.5 -7.40039 20.5 -21.1006c0 -17.0996 -11 -55.7998 -20.2002 -94.7002l-20.2998 -85.2002c-56.7998 -238.8 -109 -442 -252 -442
c-55 0 -113.5 20 -113.5 54.0996c0 33.9004 24.0996 39.9004 39.5 39.9004c57.2002 0 52.5 -56 84 -56c21 0 58.5 59 75 135c14.7998 68.5 20 140 36 213zM330 644.002c20 -47 48 -89 75 -129l-28 -18c-34 27 -59 48 -85 84c-45 -38 -75 -57 -120 -84l-20 18
c43 40 90 83 128 129h50z" />
    <glyph glyph-name="Kcommaaccent" unicode="&#x136;" horiz-adv-x="747" 
d="M590 574c13 10 21 36 -4 38l-21 2c-5 1 -7 4 -7 10l3 22l2 2s115 -2 151 -2c39 0 86 2 86 2l2 -2l-2 -22c0 -7 -6 -9 -10 -10l-14 -2c-47 -6 -91.2998 -23.7998 -134.5 -60l-207.5 -174c-22.2002 -18.5996 -22.7002 -27.5 -8 -47l191 -253
c20.2002 -26.7998 37.7002 -39.2998 54 -44l7 -2c13.5 -3.90039 19 -6 19 -10l-3 -22l-4 -2s-86 2 -125 2l-59 -2l-2 2v21c0 19 -23.9004 49.4004 -41.7002 76l-119.3 179c-8 11 -16 18 -30 18l-38 -217c-5 -31 25 -40 49 -43l14 -2c5 -1 7 -3 7 -9l-3 -23l-2 -2
s-101 2 -137 2c-39 0 -136 -2 -136 -2l-2 2l2 23c1 6 6 8 10 9l14 2c37 5 55 11 61 43l87 493c6 34 -10 37 -46 42l-14 2c-4 1 -7 3 -7 8l3 24l2 1s97 -1 136 -1c35 0 137 1 137 1l2 -1l-2 -24c-1 -5 -5 -7 -10 -8l-14 -2c-40 -6 -59 -15 -64 -42l-36 -202c8 0 17 3 34 17z
M381 -30c31 0 50 -21 50 -61c0 -10 -1 -21 -4 -32c-14 -70 -68 -88 -130 -99v25c55 13 82 28 86 49c1 3 1 5 1 7c0 17 -14 21 -30 22c-17 2 -38 12 -38 32c0 2 0 4 1 6c5 28 32 51 64 51z" />
    <glyph glyph-name="kcommaaccent" unicode="&#x137;" horiz-adv-x="570" 
d="M96.7998 72l112 491.001c15.2002 66.5 11.7002 75 -51.3994 75c-3 9 -1.09961 22 4.60059 34c71 11.5 137.2 21.9004 183.7 26c9 0 15.2002 -4 13.2002 -13c0 0 -10.5 -36.5996 -25.7002 -102l-71.5 -308.9c16.2998 4.7998 32 17.0996 45.2998 28.5996l40 34.2998
c72 64 143 102 175 102c48 0 75.2998 -22 75.2998 -44c0 -36.7002 -27.2998 -59 -57.2998 -59c-34 0 -30 28 -56 28c-20 0 -42 -4 -91 -48l-52 -46v-4c33 -9 49.2998 -32.5996 65 -64c14 -28 23 -56 41 -112c7 -21.7998 16.9004 -28 36 -28c11 0 28 3 48 32
c11 0 23 -9 30 -17c-32 -56 -80 -87 -131 -87c-41 0 -66 31 -98.5996 103c-20.4004 45.2002 -31.4004 96 -49.4004 128c-5 9 -12 16.2998 -19.5996 16.2998c-3.2002 0 -6.2002 -0.0996094 -9.2998 -0.399414l-38.2002 -164.9c-8 -34.5 -4.7002 -82 -73.9004 -82
c-52 0 -56.9004 10.5 -56.9004 27.2002c0 9.7998 8.09961 34.7002 12.6992 54.7998zM273 -26.999c31 0 50 -21 50 -61c0 -10 -1 -21 -4 -32c-14 -70 -68 -88 -130 -99v25c55 13 82 28 86 49c1 3 1 5 1 7c0 17 -14 21 -30 22c-17 2 -38 12 -38 32c0 2 0 4 1 6
c5 28 32 51 64 51z" />
    <glyph glyph-name="kgreenlandic" unicode="&#x138;" horiz-adv-x="572" 
d="M324 65l-48 172l-29 -22l-44 -197l-110 -39l-10 26l79 317c6 29 9 47 9 56c0 4 0 6 -2 6c-9 -1 -20 -3 -29 -3c-4 -1 -7 -1 -10 -1c-20 0 -20 10 -20 10c0 5 4 20 5 28c20 0 91 7 141 27h51l-43 -155c40 30 153 109 153 109c51 37 77 46 116 46c37 0 58 -13 58 -48
c0 -41 -34 -52 -54 -52c-44 0 -58 30 -58 43l-101 -77l53 -188c5 -19 9 -33 14 -42c5 -12 11 -16 15 -16c12 0 24 15 33 42l44 -27c-33 -63 -67 -92 -120 -92c-51 0 -75 33 -83 51c-3 6 -7 16 -10 26z" />
    <glyph glyph-name="Lacute" unicode="&#x139;" horiz-adv-x="555" 
d="M248 569c1 4 1 9 1 13c0 22 -14 31 -48 31h-14c-5 0 -7 3 -7 8l4 24l2 1s97 -1 137 -1c35 0 136 1 136 1l2 -1l-4 -24c-1 -5 -5 -8 -9 -8h-15c-41 0 -57 -16 -62 -44l-84 -477c-1 -6 -2 -11 -2 -17c0 -18 7 -29 19 -29h110c51 0 98 56 127 129l46 -8l-50 -167h-251l-77 1
c-12 0 -140 -2 -140 -2l-8 9l2 15c2 8 16 12 32 12h30c24 0 31 8 36 40zM388 823l58 -56l-153 -58c-23 -9 -36 -12 -45 -12c-8 0 -12 4 -12 12v3c1 7 6 19 15 25z" />
    <glyph glyph-name="lacute" unicode="&#x13a;" horiz-adv-x="326" 
d="M340 851l58 -56l-153 -58c-23 -9 -36 -12 -45 -12c-8 0 -12 4 -12 12v3c1 7 6 19 15 25zM207.8 563c15.7998 68.5 10.499 70.001 -51.4014 75.001c-3 9 -1.09961 22 4.60059 34c71.7002 3 144 14 183.7 26c9 0 15.2002 -4 13.2002 -13
c0 0 -10.5996 -37.0996 -25.6992 -102l-104.2 -449c-3.5 -15.2002 -9.40039 -36.6006 -9.40039 -51.3008c0 -9.90039 2.7002 -16.7002 10.4004 -16.7002c10 0 38.5 14.5 63 34c14 0 23.5 -12 26 -26c-66.5 -55 -115.5 -84 -178 -84c-34 0 -44.9004 23.2998 -44.9004 56.2002
c0 23.0996 5.5 50.7998 11.9004 78.7998z" />
    <glyph glyph-name="Lcommaaccent" unicode="&#x13b;" horiz-adv-x="555" 
d="M248 569c1 4 1 9 1 13c0 22 -14 31 -48 31h-14c-5 0 -7 3 -7 8l4 24l2 1s97 -1 137 -1c35 0 136 1 136 1l2 -1l-4 -24c-1 -5 -5 -8 -9 -8h-15c-41 0 -57 -16 -62 -44l-84 -477c-1 -6 -2 -11 -2 -17c0 -18 7 -29 19 -29h110c51 0 98 56 127 129l46 -8l-50 -167h-251l-77 1
c-12 0 -140 -2 -140 -2l-8 9l2 15c2 8 16 12 32 12h30c24 0 31 8 36 40zM302 -34c31 0 50 -21 50 -61c0 -10 -1 -21 -4 -32c-14 -70 -68 -88 -130 -99v25c55 13 82 28 86 49c1 3 1 5 1 7c0 17 -14 21 -30 22c-17 2 -38 12 -38 32c0 2 0 4 1 6c5 28 32 51 64 51z" />
    <glyph glyph-name="lcommaaccent" unicode="&#x13c;" horiz-adv-x="326" 
d="M149 -41c31 0 50 -21 50 -61c0 -10 -1 -21 -4 -32c-14 -70 -68 -88 -130 -99v25c55 13 82 28 86 49c1 3 1 5 1 7c0 17 -14 21 -30 22c-17 2 -38 12 -38 32c0 2 0 4 1 6c5 28 32 51 64 51zM207.8 563c15.7998 68.5 10.499 70.001 -51.4014 75.001
c-3 9 -1.09961 22 4.60059 34c71.7002 3 144 14 183.7 26c9 0 15.2002 -4 13.2002 -13c0 0 -10.5996 -37.0996 -25.6992 -102l-104.2 -449c-3.5 -15.2002 -9.40039 -36.6006 -9.40039 -51.3008c0 -9.90039 2.7002 -16.7002 10.4004 -16.7002c10 0 38.5 14.5 63 34
c14 0 23.5 -12 26 -26c-66.5 -55 -115.5 -84 -178 -84c-34 0 -44.9004 23.2998 -44.9004 56.2002c0 23.0996 5.5 50.7998 11.9004 78.7998z" />
    <glyph glyph-name="Lcaron" unicode="&#x13d;" horiz-adv-x="555" 
d="M248 569c1 4 1 9 1 13c0 22 -14 31 -48 31h-14c-5 0 -7 3 -7 8l4 24l2 1s97 -1 137 -1c35 0 136 1 136 1l2 -1l-4 -24c-1 -5 -5 -8 -9 -8h-15c-41 0 -57 -16 -62 -44l-84 -477c-1 -6 -2 -11 -2 -17c0 -18 7 -29 19 -29h110c51 0 98 56 127 129l46 -8l-50 -167h-251l-77 1
c-12 0 -140 -2 -140 -2l-8 9l2 15c2 8 16 12 32 12h30c24 0 31 8 36 40zM563 711c33 0 51 -27 51 -58c0 -5 -1 -10 -2 -15c-5 -26 -40 -102 -131 -106l-1 17c81 15 90 73 91 77s1 7 0 10c-8 -7 -19 -10 -27 -10c-33 0 -42 19 -42 35c0 3 1 6 1 9c3 16 24 41 60 41z" />
    <glyph glyph-name="lcaron" unicode="&#x13e;" horiz-adv-x="370" 
d="M443 705c33 0 51 -27 51 -58c0 -5 -1 -10 -2 -15c-5 -26 -40 -102 -131 -106l-1 17c81 15 90 73 91 77s1 7 0 10c-8 -7 -19 -10 -27 -10c-33 0 -42 19 -42 35c0 3 1 6 1 9c3 16 24 41 60 41zM207.8 563c15.7998 68.5 10.499 70.001 -51.4014 75.001
c-3 9 -1.09961 22 4.60059 34c71.7002 3 144 14 183.7 26c9 0 15.2002 -4 13.2002 -13c0 0 -10.5996 -37.0996 -25.6992 -102l-104.2 -449c-3.5 -15.2002 -9.40039 -36.6006 -9.40039 -51.3008c0 -9.90039 2.7002 -16.7002 10.4004 -16.7002c10 0 38.5 14.5 63 34
c14 0 23.5 -12 26 -26c-66.5 -55 -115.5 -84 -178 -84c-34 0 -44.9004 23.2998 -44.9004 56.2002c0 23.0996 5.5 50.7998 11.9004 78.7998z" />
    <glyph glyph-name="Ldot" unicode="&#x13f;" horiz-adv-x="575" 
d="M248 569c1 4 1 9 1 13c0 22 -14 31 -48 31h-14c-5 0 -7 3 -7 8l4 24l2 1s97 -1 137 -1c35 0 136 1 136 1l2 -1l-4 -24c-1 -5 -5 -8 -9 -8h-15c-41 0 -57 -16 -62 -44l-84 -477c-1 -6 -2 -11 -2 -17c0 -18 7 -29 19 -29h110c51 0 98 56 127 129l46 -8l-50 -167h-251l-77 1
c-12 0 -140 -2 -140 -2l-8 9l2 15c2 8 16 12 32 12h30c24 0 31 8 36 40zM419 282c-29 0 -45 20 -45 43c0 4 1 7 2 11c5 28 35 54 65 54c24 0 44 -19 44 -44c0 -3 0 -6 -1 -10c-6 -29 -35 -54 -65 -54z" />
    <glyph glyph-name="ldot" unicode="&#x140;" horiz-adv-x="405" 
d="M219.8 563c15.7998 68.5 10.499 70.001 -51.4014 75.001c-3 9 -1.09961 22 4.60059 34c71.7002 3 144 14 183.7 26c9 0 15.2002 -4 13.2002 -13c0 0 -10.5996 -37.0996 -25.6992 -102l-104.2 -449c-3.5 -15.2002 -9.40039 -36.6006 -9.40039 -51.3008
c0 -9.90039 2.7002 -16.7002 10.4004 -16.7002c10 0 38.5 14.5 63 34c14 0 23.5 -12 26 -26c-66.5 -55 -115.5 -84 -178 -84c-34 0 -44.9004 23.2998 -44.9004 56.2002c0 23.0996 5.5 50.7998 11.9004 78.7998zM358.999 360.001c0 33 26 60 59 60s60 -27 60 -60
s-27 -60 -60 -60s-59 27 -59 60z" />
    <glyph glyph-name="Lslash" unicode="&#x141;" horiz-adv-x="555" 
d="M436 450l17 -38l-120.7 -62.5l-45.2998 -257.5c-1 -6 -2 -11 -2 -17c0 -18 7 -29 19 -29h110c51 0 98 56 127 129l46 -8l-50 -167h-251l-77 1c-12 0 -140 -2 -140 -2l-8 9l2 15c2 8 16 12 32 12h30c24 0 31 8 36 40l36 204.4l-80 -41.4004l-17 37l105.9 55.2002
l42.0996 238.8c1 4 1 9 1 13c0 22 -14 31 -48 31h-14c-5 0 -7 3 -7 8l4 24l2 1s97 -1 137 -1c35 0 136 1 136 1l2 -1l-4 -24c-1 -5 -5 -8 -9 -8h-15c-41 0 -57 -16 -62 -44l-29.5996 -168.3z" />
    <glyph glyph-name="lslash" unicode="&#x142;" horiz-adv-x="317" 
d="M360 438l14.999 -34.999l-76.7998 -39.7998l-53.2002 -229.2c-3.5 -15.2002 -9.40039 -36.6006 -9.40039 -51.3008c0 -9.90039 2.7002 -16.7002 10.4004 -16.7002c10 0 38.5 14.5 63 34c14 0 23.5 -12 26 -26c-66.5 -55 -115.5 -84 -178 -84
c-34 0 -44.9004 23.2998 -44.9004 56.2002c0 23.0996 5.5 50.7998 11.9004 78.7998l38.5996 167.9l-55.5996 -28.9004l-15 35l81.7998 42.4004l51 221.6c15.7998 68.5 10.5 70 -51.4004 75c-3 9 -1.09961 22 4.60059 34c71.7002 3 144 14 183.7 26
c9 0 15.2002 -4 13.2002 -13c0 0 -10.5996 -37.0996 -25.6992 -102l-39.7002 -171.2z" />
    <glyph glyph-name="Nacute" unicode="&#x143;" horiz-adv-x="809" 
d="M223 547c-10 26 -27.501 57.2051 -75.001 64.0049l-14 2c-4 0.599609 -9.5 2.89941 -10 8.99902l-2 23l2 2s154 -1 193 -1l300 -475h2l71 398c6.09961 34 -10.5 36.9004 -46 42l-14 2c-4 0.599609 -7 3 -7 8l3 24l2 1s64 -1 103 -1c35 0 119 1 119 1l2 -1l-2 -24
c-1 -5 -5 -7.2998 -10 -8l-14 -2c-39.7002 -5.7002 -59.2002 -14.6006 -64 -42.001l-95 -544c-3.7998 -22 -21 -37 -50 -37c-31 0 -44 16 -51 27l-263 428c-3 5 -10.5 16.5 -16 16.5c-6 0 -9.40039 -12.5996 -11 -21.5l-64 -361c-5.5 -30.7002 25.2998 -39.6006 49 -43.001
l14 -2c5 -0.700195 7 -3 7 -9l-3 -23l-2 -2s-86 2 -122 2c-39 0 -100 -2 -100 -2l-2 2l2 23c0.5 6.09961 6 8.39941 10 8.99902l14 2c37.4004 5.2998 55.3008 10.8994 61.001 42.999zM558.999 824.005l58 -56l-153 -58c-23 -9 -36 -12 -45 -12c-8 0 -12 4 -12 12v3
c1 7 6 19 15 25z" />
    <glyph glyph-name="nacute" unicode="&#x144;" horiz-adv-x="606" 
d="M389 125l35 150.002c11.4004 49 27 99 -12 99c-22 0 -74 -39 -123 -112c-32.2998 -48.0996 -52.2002 -116.1 -69.1006 -190c-7.90039 -34.5 -4.7002 -82 -73.9004 -82c-52 0 -56.9004 10.5 -56.9004 27.2002c0 9.7998 7.90039 34.7998 12.7002 54.7998l56.2002 249
c5.40039 24.0996 6 36.8994 6 45.999c0 10 -3 19 -15 20l-40 3c-6 9 -7.7002 25 -1 33c47 6 131 13 163 13c13.2002 0 20.5 -7.40039 20.5 -21.1006c0 -17.0996 -11.5996 -56.1992 -22.1992 -94.6992l-5.2998 -19.2002l1 -1c92 108 146 139 245 139c61 0 53 -85.5 36 -156
l-36 -149c-3.7002 -15.2002 -9.40039 -36.6006 -9.40039 -51.3008c0 -9.90039 2.7002 -16.7002 10.4004 -16.7002c10 0 38.5 14.5 63 34c14 0 23.5 -12 26 -26c-66.5 -55 -115.5 -84 -178 -84c-34 0 -44.9004 23.2998 -44.9004 56.2002
c0 23.0996 5.40039 50.8994 11.9004 78.7998zM483 665.002c3 1 10 2 15 2c36 0 42 -17 50 -23l6 -24l-137 -102c-13 -10 -28 -14 -38 -14c-7 0 -12 5 -12 11c0 3 2 13 11 24z" />
    <glyph glyph-name="Ncommaaccent" unicode="&#x145;" horiz-adv-x="809" 
d="M223 547c-10 26 -27.501 57.2051 -75.001 64.0049l-14 2c-4 0.599609 -9.5 2.89941 -10 8.99902l-2 23l2 2s154 -1 193 -1l300 -475h2l71 398c6.09961 34 -10.5 36.9004 -46 42l-14 2c-4 0.599609 -7 3 -7 8l3 24l2 1s64 -1 103 -1c35 0 119 1 119 1l2 -1l-2 -24
c-1 -5 -5 -7.2998 -10 -8l-14 -2c-39.7002 -5.7002 -59.2002 -14.6006 -64 -42.001l-95 -544c-3.7998 -22 -21 -37 -50 -37c-31 0 -44 16 -51 27l-263 428c-3 5 -10.5 16.5 -16 16.5c-6 0 -9.40039 -12.5996 -11 -21.5l-64 -361c-5.5 -30.7002 25.2998 -39.6006 49 -43.001
l14 -2c5 -0.700195 7 -3 7 -9l-3 -23l-2 -2s-86 2 -122 2c-39 0 -100 -2 -100 -2l-2 2l2 23c0.5 6.09961 6 8.39941 10 8.99902l14 2c37.4004 5.2998 55.3008 10.8994 61.001 42.999zM373.999 -28.9951c31 0 50 -21 50 -61c0 -10 -1 -21 -4 -32c-14 -70 -68 -88 -130 -99v25
c55 13 82 28 86 49c1 3 1 5 1 7c0 17 -14 21 -30 22c-17 2 -38 12 -38 32c0 2 0 4 1 6c5 28 32 51 64 51z" />
    <glyph glyph-name="ncommaaccent" unicode="&#x146;" horiz-adv-x="606" 
d="M389 125l35 150.002c11.4004 49 27 99 -12 99c-22 0 -74 -39 -123 -112c-32.2998 -48.0996 -52.2002 -116.1 -69.1006 -190c-7.90039 -34.5 -4.7002 -82 -73.9004 -82c-52 0 -56.9004 10.5 -56.9004 27.2002c0 9.7998 7.90039 34.7998 12.7002 54.7998l56.2002 249
c5.40039 24.0996 6 36.8994 6 45.999c0 10 -3 19 -15 20l-40 3c-6 9 -7.7002 25 -1 33c47 6 131 13 163 13c13.2002 0 20.5 -7.40039 20.5 -21.1006c0 -17.0996 -11.5996 -56.1992 -22.1992 -94.6992l-5.2998 -19.2002l1 -1c92 108 146 139 245 139c61 0 53 -85.5 36 -156
l-36 -149c-3.7002 -15.2002 -9.40039 -36.6006 -9.40039 -51.3008c0 -9.90039 2.7002 -16.7002 10.4004 -16.7002c10 0 38.5 14.5 63 34c14 0 23.5 -12 26 -26c-66.5 -55 -115.5 -84 -178 -84c-34 0 -44.9004 23.2998 -44.9004 56.2002
c0 23.0996 5.40039 50.8994 11.9004 78.7998zM279 -31.998c31 0 50 -21 50 -61c0 -10 -1 -21 -4 -32c-14 -70 -68 -88 -130 -99v25c55 13 82 28 86 49c1 3 1 5 1 7c0 17 -14 21 -30 22c-17 2 -38 12 -38 32c0 2 0 4 1 6c5 28 32 51 64 51z" />
    <glyph glyph-name="Ncaron" unicode="&#x147;" horiz-adv-x="742" 
d="M223 547c-10 26 -27.501 57.2051 -75.001 64.0049l-14 2c-4 0.599609 -9.5 2.89941 -10 8.99902l-2 23l2 2s154 -1 193 -1l300 -475h2l71 398c6.09961 34 -10.5 36.9004 -46 42l-14 2c-4 0.599609 -7 3 -7 8l3 24l2 1s64 -1 103 -1c35 0 119 1 119 1l2 -1l-2 -24
c-1 -5 -5 -7.2998 -10 -8l-14 -2c-39.7002 -5.7002 -59.2002 -14.6006 -64 -42.001l-95 -544c-3.7998 -22 -21 -37 -50 -37c-31 0 -44 16 -51 27l-263 428c-3 5 -10.5 16.5 -16 16.5c-6 0 -9.40039 -12.5996 -11 -21.5l-64 -361c-5.5 -30.7002 25.2998 -39.6006 49 -43.001
l14 -2c5 -0.700195 7 -3 7 -9l-3 -23l-2 -2s-86 2 -122 2c-39 0 -100 -2 -100 -2l-2 2l2 23c0.5 6.09961 6 8.39941 10 8.99902l14 2c37.4004 5.2998 55.3008 10.8994 61.001 42.999zM484.999 697.005c-24 37 -54 67 -85 95l23 20c36 -17 63 -34 92 -59c41 27 72 43 113 59
l15 -20c-42 -29 -79 -61 -115 -95h-43z" />
    <glyph glyph-name="ncaron" unicode="&#x148;" horiz-adv-x="606" 
d="M389 125l35 150.002c11.4004 49 27 99 -12 99c-22 0 -74 -39 -123 -112c-32.2998 -48.0996 -52.2002 -116.1 -69.1006 -190c-7.90039 -34.5 -4.7002 -82 -73.9004 -82c-52 0 -56.9004 10.5 -56.9004 27.2002c0 9.7998 7.90039 34.7998 12.7002 54.7998l56.2002 249
c5.40039 24.0996 6 36.8994 6 45.999c0 10 -3 19 -15 20l-40 3c-6 9 -7.7002 25 -1 33c47 6 131 13 163 13c13.2002 0 20.5 -7.40039 20.5 -21.1006c0 -17.0996 -11.5996 -56.1992 -22.1992 -94.6992l-5.2998 -19.2002l1 -1c92 108 146 139 245 139c61 0 53 -85.5 36 -156
l-36 -149c-3.7002 -15.2002 -9.40039 -36.6006 -9.40039 -51.3008c0 -9.90039 2.7002 -16.7002 10.4004 -16.7002c10 0 38.5 14.5 63 34c14 0 23.5 -12 26 -26c-66.5 -55 -115.5 -84 -178 -84c-34 0 -44.9004 23.2998 -44.9004 56.2002
c0 23.0996 5.40039 50.8994 11.9004 78.7998zM444 499.002h-50c-20 46 -49 90 -76 129l27 18c34 -27 57 -46 86 -84c41 36 75 57 120 84l21 -18c-44 -40 -89 -82 -128 -129z" />
    <glyph glyph-name="napostrophe" unicode="&#x149;" horiz-adv-x="618" 
d="M428 125l35 150.002c11.4004 49 27 99 -12 99c-22 0 -74 -39 -123 -112c-32.2998 -48.0996 -52.2002 -116.1 -69.1006 -190c-7.90039 -34.5 -4.7002 -82 -73.9004 -82c-52 0 -56.9004 10.5 -56.9004 27.2002c0 9.7998 7.90039 34.7998 12.7002 54.7998l56.2002 249
c5.40039 24.0996 6 36.8994 6 45.999c0 10 -3 19 -15 20l-40 3c-6 9 -7.7002 25 -1 33c47 6 131 13 163 13c13.2002 0 20.5 -7.40039 20.5 -21.1006c0 -17.0996 -11.5996 -56.1992 -22.1992 -94.6992l-5.2998 -19.2002l1 -1c92 108 146 139 245 139c61 0 53 -85.5 36 -156
l-36 -149c-3.7002 -15.2002 -9.40039 -36.6006 -9.40039 -51.3008c0 -9.90039 2.7002 -16.7002 10.4004 -16.7002c10 0 38.5 14.5 63 34c14 0 23.5 -12 26 -26c-66.5 -55 -115.5 -84 -178 -84c-34 0 -44.9004 23.2998 -44.9004 56.2002
c0 23.0996 5.40039 50.8994 11.9004 78.7998zM191 697.002c31 0 50 -21 50 -61c0 -10 -1 -21 -4 -32c-14 -70 -68 -88 -130 -99v25c55 13 82 28 86 49c1 3 1 5 1 7c0 17 -14 21 -30 22c-17 2 -38 12 -38 32c0 2 0 4 1 6c5 28 32 51 64 51z" />
    <glyph glyph-name="Eng" unicode="&#x14a;" horiz-adv-x="739" 
d="M530 40l-253 412c-2 2 -3 4 -4 6c-1 -6 -2 -13 -3 -20l-61 -347c-1 -7 -2 -13 -2 -20c0 -20 7 -36 24 -36h27c15 0 29 -5 27 -13l-2 -14l-12 -10s-84 3 -123 3c-35 0 -110 -2 -110 -2l-25 5l4 18c1 8 24 13 37 13h26c24 0 37 30 42 56l80 456c-1 25 -15 64 -35 64h-5
c-13 0 -33 4 -32 12l2 12l11 12l153 -1s179 -263 278 -437c4 -8 9 -16 13 -23l65 368c1 7 2 14 2 21c0 19 -6 36 -24 36h-26c-13 0 -34 5 -33 13l4 18l26 5s74 -2 109 -2c39 0 124 3 124 3l8 -10l-2 -14c-2 -8 -16 -13 -32 -13h-26c-23 0 -37 -28 -43 -57l-82 -465
c-19 -112 -49 -177 -121 -242c-32 -26 -73 -43 -111 -43s-113 12 -113 61v9c5 26 34 33 59 33c47 0 51 -29 52 -42c0 -10 1 -23 8 -23c33 0 65 46 94 200z" />
    <glyph glyph-name="eng" unicode="&#x14b;" horiz-adv-x="643" 
d="M478 277c5 24 9.00098 46 9.00098 63c0 30 -9 49 -36 49c-20 0 -45 -6 -65 -18c-13 -9 -37 -32 -53 -55l2 2l-56 -243c-2 -9 -3 -16 -3 -22c0 -11 5 -18 15 -18h19c16 0 29 -4 27 -12l-4 -15l-11 -9s-82 2 -120 2c-35 0 -117 -2 -117 -2l-7 9l3 15c2 8 14 12 33 12h18
c17 0 24 14 30 40l57 245c8 34 12 55 12 56c0 0 -15 1 -71 -12l10 42c22 3 88 11 141 39h54l-12 -47c33 24 82 47 147 47c64 0 105 -28 105 -99c0 -18 -2 -38 -8 -62l-45 -196c-29 -127 -57 -205 -132 -265c-32 -27 -70 -39 -103 -39c-35 0 -100 14 -100 46c0 2 0 4 1 6
c8 35 53 39 59 39c40 0 47 -26 49 -43c0.799805 -6.40039 -0.100586 -10 -3.00098 -11c31 3 73 102 104 237z" />
    <glyph glyph-name="Omacron" unicode="&#x14c;" horiz-adv-x="734" 
d="M473 617c-145 0 -241 -203 -241 -372c0 -138 71 -216 170 -216c142 0 237 198 237 373c0 142 -72 215 -166 215zM375 -12c-162 0 -278 98 -278 259c0 195 163 411 396 411c157 0 280 -103 280 -267c0 -198 -154 -403 -398 -403zM624 711h-265c-7 0 -10 6 -10 12
c0 2 0 3 1 5c2 12 17 31 30 31h264c9 0 12 -6 12 -12c0 -1 0 -2 -1 -4c-2 -13 -18 -32 -31 -32z" />
    <glyph glyph-name="omacron" unicode="&#x14d;" horiz-adv-x="507" 
d="M198 173c0 -123 50 -141 73 -141c97 0 122 176 122 240c0 61 -14 130 -70 130c-97 0 -125 -142 -125 -229zM72 165c0 120 90 279 270 279c138 0 175 -93 175 -165c0 -158 -134 -289 -271 -289c-143 0 -174 121 -174 175zM483 536h-265c-7 0 -10 6 -10 12c0 2 0 3 1 5
c2 12 17 31 30 31h264c9 0 12 -6 12 -12c0 -1 0 -2 -1 -4c-2 -13 -18 -32 -31 -32z" />
    <glyph glyph-name="Obreve" unicode="&#x14e;" horiz-adv-x="734" 
d="M473 617c-145 0 -241 -203 -241 -372c0 -138 71 -216 170 -216c142 0 237 198 237 373c0 142 -72 215 -166 215zM375 -12c-162 0 -278 98 -278 259c0 195 163 411 396 411c157 0 280 -103 280 -267c0 -198 -154 -403 -398 -403zM666 804c-17 -71 -87 -113 -152 -113
c-70 0 -119 39 -119 102v11h31c2 -39 43 -58 96 -58c49 0 102 19 115 58h29z" />
    <glyph glyph-name="obreve" unicode="&#x14f;" horiz-adv-x="511" 
d="M198 173c0 -123 50 -141 73 -141c97 0 122 176 122 240c0 61 -14 130 -70 130c-97 0 -125 -142 -125 -229zM72 165c0 120 90 279 270 279c138 0 175 -93 175 -165c0 -158 -134 -289 -271 -289c-143 0 -174 121 -174 175zM279 647c-1 -6 -1 -11 -1 -15
c0 -44 33 -75 87 -75c46 0 106 28 121 90l29 -14c-31 -101 -113 -138 -163 -138c-70 0 -109 50 -109 118c0 6 1 13 2 20z" />
    <glyph glyph-name="Ohungarumlaut" unicode="&#x150;" horiz-adv-x="731" 
d="M471 617c-145 0 -241 -203 -241 -372c0 -138 71 -216 170 -216c142 0 237 198 237 373c0 142 -72 215 -166 215zM373 -12c-162 0 -278 98 -278 259c0 195 163 411 396 411c157 0 280 -103 280 -267c0 -198 -154 -403 -398 -403zM633 820c6 -6 9 -14 9 -23v-5
c-2 -9 -5 -16 -11 -20l-112 -84c-2 -2 -4 -2 -7 -2c-5 0 -12 4 -12 11c0 1 0 5 2 7l80 114c6 8 14 12 25 12c8 0 16 -1 26 -10zM501 826c7 -6 11 -14 11 -24v-5c-2 -8 -5 -15 -11 -19l-108 -86c-3 -1 -5 -2 -8 -2c-2 0 -5 2 -7 3c-3 2 -5 6 -5 9c0 1 1 5 2 6l76 115
c5 8 13 12 28 12c10 0 17 -5 22 -9z" />
    <glyph glyph-name="ohungarumlaut" unicode="&#x151;" horiz-adv-x="506" 
d="M198 173c0 -123 50 -141 73 -141c97 0 122 176 122 240c0 61 -14 130 -70 130c-97 0 -125 -142 -125 -229zM72 165c0 120 90 279 270 279c138 0 175 -93 175 -165c0 -158 -134 -289 -271 -289c-143 0 -174 121 -174 175zM521 639c6 -6 8 -13 8 -21v-7
c-1 -6 -1 -16 -8 -22l-137 -109c0 -1 -2 -1 -3 -1c-2 0 -4 1 -6 1c-5 0 -13 5 -11 13c0 1 -1 3 -1 4v1l107 139c6 9 17 11 28 11c9 0 17 -3 23 -9zM388 647c7 -5 11 -14 11 -23c0 -2 0 -5 -1 -7c-1 -5 1 -11 -4 -16l-127 -121c-3 -2 -10 -3 -12 -3c-6 0 -13 5 -12 13
c1 1 -3 3 -2 4l94 146c8 13 28 13 33 13c8 0 14 -2 20 -6z" />
    <glyph glyph-name="OE" unicode="&#x152;" horiz-adv-x="854" 
d="M367 40h12c23 0 32 10 36 35l87 496c1 6 2 11 2 14c0 16 -8 19 -25 19h-34c-85 0 -170 -68 -206 -276c-7 -36 -10 -68 -10 -97c0 -133 63 -191 138 -191zM363 0h-1c-174 0 -265 104 -265 250c0 22 2 45 6 69c32 180 164 327 361 327l114 -1c25 0 50 1 76 1h276l-11 -144
l-55 -7c0 44 -16 105 -53 105h-166c-9 0 -16 -8 -20 -29l-35 -201h82c17 0 27 17 36 41c4 9 9 19 13 29l-1 -1c2 7 14 12 31 12h6c18 0 25 -4 24 -9c-3 -11 -6 -22 -10 -33c-5 -19 -11 -40 -15 -60c-5 -27 -6 -51 -7 -75h-1v-18l-8 -9h-25c-21 0 -28 5 -28 10h1l-1 31
c0 26 -5 40 -22 40h-82l-45 -253c-1 -6 -1 -11 -1 -14c0 -12 4 -15 10 -15h169c49 0 82 55 111 128l51 -11l-54 -163h-284l-76 1c-31 -1 -71 -1 -101 -1z" />
    <glyph glyph-name="oe" unicode="&#x153;" horiz-adv-x="806" 
d="M678 403c-62 0 -110 -96 -120 -121h164c3 12 5 29 5 45c0 38 -10 76 -49 76zM213 243c-7 -32 -11 -63 -11 -93c0 -69 23 -123 77 -123c23 0 52 18 84 56c19 23 37 63 50 119c8 38 12 66 12 88s-4 37 -8 48c-15 42 -37 67 -63 67c-30 0 -62 -18 -88 -48
c-28 -35 -44 -75 -53 -114zM365 445c92 0 133 -31 153 -70c45 40 105 70 171 70c105 0 149 -56 149 -139c0 -22 -3 -45 -8 -70h-286c-2 -7 -2 -8 -4 -17c-7 -26 -9 -48 -9 -68c0 -78 41 -109 78 -109c30 0 93 23 139 63l32 -29c-30 -30 -84 -88 -195 -88
c-82 0 -127 33 -150 68c-48 -40 -112 -68 -180 -68c-113 0 -179 70 -179 166c0 17 2 35 6 54c36 157 162 237 283 237z" />
    <glyph glyph-name="Racute" unicode="&#x154;" horiz-adv-x="680" 
d="M478 468c17 99 -23 145 -80 145c-35 0 -56 -3 -80 -8l-50 -283h48c93 0 144 46 162 146zM595 482c-18 -101 -67 -150 -142 -188l64 -196c13 -44 40 -63 79 -58l-2 -35c-30 -9 -67 -11 -81 -11c-57 0 -93 38 -110 85l-57 168c-9 25 -36 29 -86 29l-35 -199
c-5 -31 7 -44 45 -44h14c4 0 7 -3 6 -9l-4 -23l-2 -2s-71 2 -109 2c-34 0 -153 -2 -153 -2l-1 2l4 23c1 6 4 9 9 9h14c39 0 55 16 60 44l85 482c5 28 4 45 -21 45c-3 0 -4 0.0996094 -6 0l-30 -2c-5 0 -7 3 -6 7l6 33c21 5 152 12 264 12c115 0 217 -50 195 -172zM478 824
l58 -56l-153 -58c-23 -9 -36 -12 -45 -12c-8 0 -12 4 -12 12v3c1 7 6 19 15 25z" />
    <glyph glyph-name="racute" unicode="&#x155;" horiz-adv-x="404" 
d="M266 285l3.99902 -1c44 93 110 152 170 152c44 0 62 -31 62 -56c0 -32 -22 -63 -54 -63c-17 0 -32.2998 5.7002 -43.2998 18c-7.09961 7.90039 -13.6992 34 -23.6992 34c-19.7002 0 -89 -103 -137 -190l-26.0996 -107c-9.5 -39.0996 -11.9004 -82 -75.9004 -82
c-48 0 -52.9004 10.5 -52.9004 27.2002c0 15.7998 7.90039 33.2998 12.7002 54.7998l54.2002 244c7 28 8 41.9004 8 51c0 10 -6 19 -18 20l-40 3c-6 9 -7.7002 25 -1 33c47 6 133 13 165 13c13.2002 0 21.5 -9.7002 21.5 -25.1006
c0 -17.0996 -8.5 -51.8994 -17.2002 -90.6992zM440.999 663c3 1 10 2 15 2c36 0 42 -17 50 -23l6 -24l-137 -102c-13 -10 -28 -14 -38 -14c-7 0 -12 5 -12 11c0 3 2 13 11 24z" />
    <glyph glyph-name="Rcommaaccent" unicode="&#x156;" horiz-adv-x="680" 
d="M478 468c17 99 -23 145 -80 145c-35 0 -56 -3 -80 -8l-50 -283h48c93 0 144 46 162 146zM595 482c-18 -101 -67 -150 -142 -188l64 -196c13 -44 40 -63 79 -58l-2 -35c-30 -9 -67 -11 -81 -11c-57 0 -93 38 -110 85l-57 168c-9 25 -36 29 -86 29l-35 -199
c-5 -31 7 -44 45 -44h14c4 0 7 -3 6 -9l-4 -23l-2 -2s-71 2 -109 2c-34 0 -153 -2 -153 -2l-1 2l4 23c1 6 4 9 9 9h14c39 0 55 16 60 44l85 482c5 28 4 45 -21 45c-3 0 -4 0.0996094 -6 0l-30 -2c-5 0 -7 3 -6 7l6 33c21 5 152 12 264 12c115 0 217 -50 195 -172zM295 -34
c31 0 50 -21 50 -61c0 -10 -1 -21 -4 -32c-14 -70 -68 -88 -130 -99v25c55 13 82 28 86 49c1 3 1 5 1 7c0 17 -14 21 -30 22c-17 2 -38 12 -38 32c0 2 0 4 1 6c5 28 32 51 64 51z" />
    <glyph glyph-name="rcommaaccent" unicode="&#x157;" horiz-adv-x="444" 
d="M273 285l3.99902 -1c44 93 110 152 170 152c44 0 62 -31 62 -56c0 -32 -22 -63 -54 -63c-17 0 -32.2998 5.7002 -43.2998 18c-7.09961 7.90039 -13.6992 34 -23.6992 34c-19.7002 0 -89 -103 -137 -190l-26.0996 -107c-9.5 -39.0996 -11.9004 -82 -75.9004 -82
c-48 0 -52.9004 10.5 -52.9004 27.2002c0 15.7998 7.90039 33.2998 12.7002 54.7998l54.2002 244c7 28 8 41.9004 8 51c0 10 -6 19 -18 20l-40 3c-6 9 -7.7002 25 -1 33c47 6 133 13 165 13c13.2002 0 21.5 -9.7002 21.5 -25.1006
c0 -17.0996 -8.5 -51.8994 -17.2002 -90.6992zM139.999 -32c31 0 50 -21 50 -61c0 -10 -1 -21 -4 -32c-14 -70 -68 -88 -130 -99v25c55 13 82 28 86 49c1 3 1 5 1 7c0 17 -14 21 -30 22c-17 2 -38 12 -38 32c0 2 0 4 1 6c5 28 32 51 64 51z" />
    <glyph glyph-name="Rcaron" unicode="&#x158;" horiz-adv-x="584" 
d="M478 468c17 99 -23 145 -80 145c-35 0 -56 -3 -80 -8l-50 -283h48c93 0 144 46 162 146zM595 482c-18 -101 -67 -150 -142 -188l64 -196c13 -44 40 -63 79 -58l-2 -35c-30 -9 -67 -11 -81 -11c-57 0 -93 38 -110 85l-57 168c-9 25 -36 29 -86 29l-35 -199
c-5 -31 7 -44 45 -44h14c4 0 7 -3 6 -9l-4 -23l-2 -2s-71 2 -109 2c-34 0 -153 -2 -153 -2l-1 2l4 23c1 6 4 9 9 9h14c39 0 55 16 60 44l85 482c5 28 4 45 -21 45c-3 0 -4 0.0996094 -6 0l-30 -2c-5 0 -7 3 -6 7l6 33c21 5 152 12 264 12c115 0 217 -50 195 -172zM395 697
c-24 37 -54 67 -85 95l23 20c36 -17 63 -34 92 -59c41 27 72 43 113 59l15 -20c-42 -29 -79 -61 -115 -95h-43z" />
    <glyph glyph-name="rcaron" unicode="&#x159;" horiz-adv-x="444" 
d="M266 285l3.99902 -1c44 93 110 152 170 152c44 0 62 -31 62 -56c0 -32 -22 -63 -54 -63c-17 0 -32.2998 5.7002 -43.2998 18c-7.09961 7.90039 -13.6992 34 -23.6992 34c-19.7002 0 -89 -103 -137 -190l-26.0996 -107c-9.5 -39.0996 -11.9004 -82 -75.9004 -82
c-48 0 -52.9004 10.5 -52.9004 27.2002c0 15.7998 7.90039 33.2998 12.7002 54.7998l54.2002 244c7 28 8 41.9004 8 51c0 10 -6 19 -18 20l-40 3c-6 9 -7.7002 25 -1 33c47 6 133 13 165 13c13.2002 0 21.5 -9.7002 21.5 -25.1006
c0 -17.0996 -8.5 -51.8994 -17.2002 -90.6992zM343.999 499h-50c-20 46 -49 90 -76 129l27 18c34 -27 57 -46 86 -84c41 36 75 57 120 84l21 -18c-44 -40 -89 -82 -128 -129z" />
    <glyph glyph-name="Sacute" unicode="&#x15a;" horiz-adv-x="503" 
d="M476 631c-5 -53 -6 -103 -6 -152l-40 -5c-5 66 -23 145 -105 145c-63 0 -94 -46 -104 -102c-11 -64 56 -114 93 -129c76 -30 161 -83 140 -204c-23 -133 -117 -194 -226 -194c-94 0 -111 15 -134 15c-19 0 -28 -5 -45 -5c7 51 9 99 13 175l39 3c3 -91 50 -147 114 -147
c73 0 116 40 130 114c10 58 -10 109 -64 133c-65 28 -177 90 -157 207c21 120 127 173 209 173c90 0 92 -19 143 -27zM448 824l58 -56l-153 -58c-23 -9 -36 -12 -45 -12c-8 0 -12 4 -12 12v3c1 7 6 19 15 25z" />
    <glyph glyph-name="sacute" unicode="&#x15b;" horiz-adv-x="401" 
d="M394 662c3 1 10 2 15 2c36 0 42 -17 50 -23l6 -24l-137 -102c-13 -10 -28 -14 -38 -14c-7 0 -12 5 -12 11c0 3 2 13 11 24zM426.3 359c3.5 -32.5 -22.7979 -51.0986 -37.2979 -54.999c-22 -6 -48.7002 0.400391 -53 22
c-7.09961 35.5996 -22.8994 79.7998 -65.7998 79.7998c-39.2002 0 -52.2002 -22.7002 -52.2002 -50.7998c0 -51 48.2998 -81.4004 74 -95c74 -39 115.3 -84 115.3 -131c0 -70.5996 -54.2002 -141 -179.9 -141c-79.7998 0 -162.399 32 -162.399 100c0 32 27 51 43.5 51
c30.5 0 48.0996 -23.2002 63.5 -58c15 -34 45.0996 -52.4004 76.3994 -52.4004c30.5996 0 54.8994 11.5996 54.8994 49.3994c0 47 -25.4004 80.9004 -67.3008 105c-66 38 -105.5 88 -105.5 131c0 105.6 79.7998 130 176.5 130c62.5 0 114 -36 119.3 -85z" />
    <glyph glyph-name="Scircumflex" unicode="&#x15c;" horiz-adv-x="503" 
d="M476 631c-5 -53 -6 -103 -6 -152l-40 -5c-5 66 -23 145 -105 145c-63 0 -94 -46 -104 -102c-11 -64 56 -114 93 -129c76 -30 161 -83 140 -204c-23 -133 -117 -194 -226 -194c-94 0 -111 15 -134 15c-19 0 -28 -5 -45 -5c7 51 9 99 13 175l39 3c3 -91 50 -147 114 -147
c73 0 116 40 130 114c10 58 -10 109 -64 133c-65 28 -177 90 -157 207c21 120 127 173 209 173c90 0 92 -19 143 -27zM410 812c24 -36 55 -67 86 -94l-23 -21c-36 18 -64 35 -93 59c-40 -26 -72 -42 -112 -59l-15 21c42 28 78 60 114 94h43z" />
    <glyph glyph-name="scircumflex" unicode="&#x15d;" horiz-adv-x="401" 
d="M365 646c20 -47 48 -89 75 -129l-28 -18c-34 27 -59 48 -85 84c-45 -38 -75 -57 -120 -84l-20 18c43 40 90 83 128 129h50zM426.3 359c3.5 -32.5 -22.7979 -51.0986 -37.2979 -54.999c-22 -6 -48.7002 0.400391 -53 22
c-7.09961 35.5996 -22.8994 79.7998 -65.7998 79.7998c-39.2002 0 -52.2002 -22.7002 -52.2002 -50.7998c0 -51 48.2998 -81.4004 74 -95c74 -39 115.3 -84 115.3 -131c0 -70.5996 -54.2002 -141 -179.9 -141c-79.7998 0 -162.399 32 -162.399 100c0 32 27 51 43.5 51
c30.5 0 48.0996 -23.2002 63.5 -58c15 -34 45.0996 -52.4004 76.3994 -52.4004c30.5996 0 54.8994 11.5996 54.8994 49.3994c0 47 -25.4004 80.9004 -67.3008 105c-66 38 -105.5 88 -105.5 131c0 105.6 79.7998 130 176.5 130c62.5 0 114 -36 119.3 -85z" />
    <glyph glyph-name="Scedilla" unicode="&#x15e;" horiz-adv-x="503" 
d="M476 631c-5 -53 -6 -103 -6 -152l-40 -5c-5 66 -23 145 -105 145c-63 0 -94 -46 -104 -102c-11 -64 56 -114 93 -129c76 -30 161 -83 140 -204c-19.2002 -110.9 -87.7998 -171.801 -173.3 -188.9l-29.7002 -48.0996h8c47 0 80 -20 80 -54c0 -4 -1 -8 -2 -11
c-8 -45 -68 -74 -142 -74c-38 0 -58 8 -88 22l19 27c33 -15 58 -16 70 -16c18 0 51 12 56 36v4c0 16 -18 27 -28 27c-14 0 -23 -1 -47 -12l-13 17l50.2998 77.0996c-82 1.40039 -98.5 14.9004 -120.3 14.9004c-19 0 -28 -5 -45 -5c7 51 9 99 13 175l39 3
c3 -91 50 -147 114 -147c73 0 116 40 130 114c10 58 -10 109 -64 133c-65 28 -177 90 -157 207c21 120 127 173 209 173c90 0 92 -19 143 -27z" />
    <glyph glyph-name="scedilla" unicode="&#x15f;" horiz-adv-x="401" 
d="M188 -89c-14 0 -22.998 -1 -46.998 -12l-13 17l49.7002 76.2002c-61 10.7002 -112.7 42.1006 -112.7 95.8008c0 32 27 51 43.5 51c30.5 0 48.0996 -23.2002 63.5 -58c15 -34 45.0996 -52.4004 76.3994 -52.4004c30.5996 0 54.8994 11.5996 54.8994 49.3994
c0 47 -25.4004 80.9004 -67.3008 105c-66 38 -105.5 88 -105.5 131c0 105.6 79.7998 130 176.5 130c62.5 0 114 -36 119.3 -85c3.5 -32.5 -22.7998 -51.0996 -37.2998 -55c-22 -6 -48.7002 0.400391 -53 22c-7.09961 35.5996 -22.8994 79.7998 -65.7998 79.7998
c-39.2002 0 -52.2002 -22.7002 -52.2002 -50.7998c0 -51 48.2998 -81.4004 74 -95c74 -39 115.3 -84 115.3 -131c0 -68.5 -51 -136.7 -168.7 -140.8l-23.5996 -38.2002h8c47 0 80 -20 80 -54c0 -4 -1 -8 -2 -11c-8 -45 -68 -74 -142 -74c-38 0 -58 8 -88 22l19 27
c33 -15 58 -16 70 -16c18 0 51 12 56 36v4c0 16 -18 27 -28 27z" />
    <glyph glyph-name="Scaron" unicode="&#x160;" horiz-adv-x="503" 
d="M476 631c-5 -53 -6 -103 -6 -152l-40 -5c-5 66 -23 145 -105 145c-63 0 -94 -46 -104 -102c-11 -64 56 -114 93 -129c76 -30 161 -83 140 -204c-23 -133 -117 -194 -226 -194c-94 0 -111 15 -134 15c-19 0 -28 -5 -45 -5c7 51 9 99 13 175l39 3c3 -91 50 -147 114 -147
c73 0 116 40 130 114c10 58 -10 109 -64 133c-65 28 -177 90 -157 207c21 120 127 173 209 173c90 0 92 -19 143 -27zM343 697c-24 37 -54 67 -85 95l23 20c36 -17 63 -34 92 -59c41 27 72 43 113 59l15 -20c-42 -29 -79 -61 -115 -95h-43z" />
    <glyph glyph-name="scaron" unicode="&#x161;" horiz-adv-x="401" 
d="M328 498h-50c-20 46 -49 90 -76 129l27 18c34 -27 57 -46 86 -84c41 36 75 57 120 84l21 -18c-44 -40 -89 -82 -128 -129zM426.3 359c3.5 -32.5 -22.7979 -51.0986 -37.2979 -54.999c-22 -6 -48.7002 0.400391 -53 22
c-7.09961 35.5996 -22.8994 79.7998 -65.7998 79.7998c-39.2002 0 -52.2002 -22.7002 -52.2002 -50.7998c0 -51 48.2998 -81.4004 74 -95c74 -39 115.3 -84 115.3 -131c0 -70.5996 -54.2002 -141 -179.9 -141c-79.7998 0 -162.399 32 -162.399 100c0 32 27 51 43.5 51
c30.5 0 48.0996 -23.2002 63.5 -58c15 -34 45.0996 -52.4004 76.3994 -52.4004c30.5996 0 54.8994 11.5996 54.8994 49.3994c0 47 -25.4004 80.9004 -67.3008 105c-66 38 -105.5 88 -105.5 131c0 105.6 79.7998 130 176.5 130c62.5 0 114 -36 119.3 -85z" />
    <glyph glyph-name="Tcedilla" unicode="&#x162;" horiz-adv-x="605" 
d="M209 646h406c21 0 24 17 26 23l35 4c-5 -49 -7 -101 -6 -154l-40 -5c-5 80 -16 85 -69 85h-52c-34 0 -48 -9 -53 -42l-85 -480c-5 -31 7 -44 45 -44h25c4 0 7 -3 6 -9l-4 -23l-2 -2s-40.0996 0.700195 -80.5996 1.2998l-22.4004 -36.2998h8c47 0 80 -20 80 -54
c0 -4 -1 -8 -2 -11c-8 -45 -68 -74 -142 -74c-38 0 -58 8 -88 22l19 27c33 -15 58 -16 70 -16c18 0 51 12 56 36v4c0 16 -18 27 -28 27c-14 0 -23 -1 -47 -12l-13 17l46.2998 71h-8.2998c-34 0 -132 -2 -132 -2l-2 2l4 23c1 6 5 9 9 9h25c40 0 56 16 61 44l85 483
c5 30 -5 39 -40 39h-51c-53 0 -67 -5 -100 -85l-37 5c20 53 36 105 48 154l34 -4c-1 -6 -4 -23 16 -23z" />
    <glyph glyph-name="tcedilla" unicode="&#x163;" horiz-adv-x="338" 
d="M123 118l61 264.001h-75c-3 0 -6 0 -6 2s4 22 5 25c2 8 9 16 28 17l58 3l13 50c9.90039 38.2002 9.2002 72.9004 44 82c30.5 8 81 20 81 3c0 -12 -16 -72.2002 -20 -90l-10 -45h109c11 -8 1 -42 -11 -47h-108l-60 -255
c-3.2002 -13.7998 -6.7002 -30.3994 -6.7002 -42.7998c0 -10.7002 2.7002 -18.2002 10.7002 -18.2002c10 0 44 17 70 47c14 0 26 -19 29 -28c-44.7002 -49.2002 -90.6006 -86.4004 -149.501 -93.7002l-25.5 -41.2998h8c47 0 80 -20 80 -54c0 -4 -1 -8 -2 -11
c-8 -45 -68 -74 -142 -74c-38 0 -58 8 -88 22l19 27c33 -15 58 -16 70 -16c18 0 51 12 56 36v4c0 16 -18 27 -28 27c-14 0 -23 -1 -47 -12l-13 17l55.9004 85.7002c-10.7998 10 -15.5996 25.7998 -15.5996 45.3994c0 20.5996 4.5 48.2998 9.7002 70.8994z" />
    <glyph glyph-name="Tcaron" unicode="&#x164;" horiz-adv-x="572" 
d="M209 646h406c21 0 24 17 26 23l35 4c-5 -49 -7 -101 -6 -154l-40 -5c-5 80 -16 85 -69 85h-52c-34 0 -48 -9 -53 -42l-85 -480c-5 -31 7 -44 45 -44h25c4 0 7 -3 6 -9l-4 -23l-2 -2s-114 2 -152 2c-34 0 -132 -2 -132 -2l-2 2l4 23c1 6 5 9 9 9h25c40 0 56 16 61 44
l85 483c5 30 -5 39 -40 39h-51c-53 0 -67 -5 -100 -85l-37 5c20 53 36 105 48 154l34 -4c-1 -6 -4 -23 16 -23zM425 697c-24 37 -54 67 -85 95l23 20c36 -17 63 -34 92 -59c41 27 72 43 113 59l15 -20c-42 -29 -79 -61 -115 -95h-43z" />
    <glyph glyph-name="tcaron" unicode="&#x165;" horiz-adv-x="374" 
d="M123 118l61 264h-75c-3 0 -6 0 -6 2s4 22 5 25c2 8 9 16 28 17l58 3l13 50c9.90039 38.2002 9.2002 72.9004 44 82c30.5 8 81 20 81 3c0 -12 -16 -72.2002 -20 -90l-10 -45h109c11 -8 1 -42 -11 -47h-108l-60 -255c-3.2002 -13.7998 -6.7002 -30.3994 -6.7002 -42.7998
c0 -10.7002 2.7002 -18.2002 10.7002 -18.2002c10 0 44 17 70 47c14 0 26 -19 29 -28c-50 -55 -101.5 -95 -171 -95c-35.9004 0 -50.7002 22.7002 -50.7002 57.1006c0 20.5996 4.5 48.2998 9.7002 70.8994zM438 711c33 0 51 -27 51 -58c0 -5 -1 -10 -2 -15
c-5 -26 -40 -102 -131 -106l-1 17c81 15 90 73 91 77s1 7 0 10c-8 -7 -19 -10 -27 -10c-33 0 -42 19 -42 35c0 3 1 6 1 9c3 16 24 41 60 41z" />
    </font>
</defs>
</svg>
