<?xml version="1.0" standalone="no"?>
<!DOCTYPE svg PUBLIC "-//W3C//DTD SVG 1.1//EN" "http://www.w3.org/Graphics/SVG/1.1/DTD/svg11.dtd" >
<svg version="1.1" xmlns="http://www.w3.org/2000/svg">
<metadata>
Created by FontForge 20120731 at Fri Aug  1 16:50:30 2014
 By Alfred Xing
Linux Libertine by Philipp H. Poll,
Open Font under Terms of following Free Software Licenses:
GPL (General Public License) with font-exception and OFL (Open Font License).
Created with FontForge (http://fontforge.sf.net)
Sept 2003, 2004, 2005, 2006, 2007, 2008, 2009, 2010, 2011,2012
</metadata>
<defs>
<font id="LinLibertineOBI" horiz-adv-x="0" >
  <font-face 
    font-family="Linux Libertine O"
    font-weight="700"
    font-style="italic"
    font-stretch="normal"
    units-per-em="1000"
    panose-1="2 0 8 3 0 0 0 0 0 0"
    ascent="800"
    descent="-200"
    x-height="438.999"
    cap-height="647"
    bbox="-634.1 -298 6171 1014"
    underline-thickness="40"
    underline-position="-98"
    slope="-12"
    stemh="34"
    stemv="75"
    unicode-range="U+0020-FFFD"
  />
<missing-glyph horiz-adv-x="500" 
d="M50 605v-510l170 255zM80 50h340l-170 255zM280 350l170 -255v510zM250 395l170 255h-340zM0 0v700h500v-700h-500z" />
    <glyph glyph-name="ellipsis" unicode="&#x2e;&#x2e;&#x2e;" horiz-adv-x="749" 
d="M569 58c0 39 34 71 74 71s72 -30 72 -69c0 -38 -34 -70 -74 -70s-72 30 -72 68zM305 58c0 39 34 71 74 71s72 -30 72 -69c0 -38 -34 -70 -74 -70s-72 30 -72 68zM40 58c0 39 34 71 74 71s72 -30 72 -69c0 -38 -34 -70 -74 -70s-72 30 -72 68z" />
    <glyph glyph-name="exclamdbl" unicode="&#x21;&#x21;" horiz-adv-x="411" 
d="M425 660c27 0 52 -23 42 -73c-13 -65 -37 -107 -64 -193c-33 -107 -47 -167 -50 -181c-4 -12 -9 -20 -19 -20c-11 0 -12 7 -11 13c2 20 14 110 21 188c8 89 -1 123 12 193c11 55 47 73 69 73zM251 43c6 30 35 54 64 54s49 -24 43 -54c-5 -29 -34 -53 -64 -53
c-29 0 -48 24 -43 53zM241 658c27 0 51 -23 42 -73c-13 -65 -37 -107 -64 -193c-33 -108 -47 -168 -51 -182c-3 -11 -8 -20 -18 -20c-11 0 -12 7 -11 13c2 21 14 111 21 189c8 88 -1 123 12 193c11 54 47 73 69 73zM67 41c6 29 35 53 64 53c30 0 49 -24 43 -53
s-34 -53 -64 -53c-29 0 -48 24 -43 53z" />
    <glyph glyph-name="question_question" unicode="&#x3f;&#x3f;" horiz-adv-x="781" 
d="M248.6 570c-4.5 -21 2.7002 -27 -3 -54c-5.2998 -25 -30.3994 -41 -58.5996 -41c-22.5996 0 -49.2998 20 -41.2002 58c7.40039 35 30.2002 58 68.1006 86c33.5 25 79.7998 39 137.1 39c107.2 0 160.9 -61 141.301 -153c-15.7002 -74 -84.7002 -120 -139.601 -157
c-30.5996 -20 -69.1992 -47 -84.499 -119l-2.7002 -13c-5.2998 -25 -11.5 -34 -38.2998 -34c-24.9004 0 -27.5 12 -22.7998 34l3.09961 15c8.7002 41 20.7998 98 101.399 163c39.5 31 66.2002 68 76.7998 118c12.2998 58 1 110 -51.7998 110
c-41.4004 0 -79.3008 -24 -85.3008 -52zM125.699 58c8.2998 39 47 71 84.5996 71s61.2998 -30 53 -69c-8.09961 -38 -46.7998 -70 -84.3994 -70s-61.2998 30 -53.2002 68zM624.6 570c-4.5 -21 2.7002 -27 -3 -54c-5.2998 -25 -30.3994 -41 -58.5996 -41
c-22.5996 0 -49.2998 20 -41.2002 58c7.40039 35 30.2002 58 68.1006 86c33.5 25 79.7998 39 137.1 39c107.2 0 160.9 -61 141.301 -153c-15.7002 -74 -84.7002 -120 -139.601 -157c-30.5996 -20 -69.1992 -47 -84.499 -119l-2.7002 -13c-5.2998 -25 -11.5 -34 -38.2998 -34
c-24.9004 0 -27.5 12 -22.7998 34l3.09961 15c8.7002 41 20.7998 98 101.399 163c39.5 31 66.2002 68 76.7998 118c12.2998 58 1 110 -51.7998 110c-41.4004 0 -79.3008 -24 -85.3008 -52zM501.699 58c8.2998 39 47 71 84.5996 71s61.2998 -30 53 -69
c-8.09961 -38 -46.7998 -70 -84.3994 -70s-61.2998 30 -53.2002 68z" />
    <glyph glyph-name="question_exclam" unicode="&#x3f;&#x21;" horiz-adv-x="594" 
d="M237.6 570c-4.5 -21 2.7002 -27 -3 -54c-5.2998 -25 -30.3994 -41 -58.5996 -41c-22.5996 0 -49.2998 20 -41.2002 58c7.40039 35 30.2002 58 68.1006 86c33.5 25 79.7998 39 137.1 39c107.2 0 160.9 -61 141.301 -153c-15.7002 -74 -84.7002 -120 -139.601 -157
c-30.5996 -20 -69.1992 -47 -84.499 -119l-2.7002 -13c-5.2998 -25 -11.5 -34 -38.2998 -34c-24.9004 0 -27.5 12 -22.7998 34l3.09961 15c8.7002 41 20.7998 98 101.399 163c39.5 31 66.2002 68 76.7998 118c12.2998 58 1 110 -51.7998 110
c-41.4004 0 -79.3008 -24 -85.3008 -52zM114.699 58c8.2998 39 47 71 84.5996 71s61.2998 -30 53 -69c-8.09961 -38 -46.7998 -70 -84.3994 -70s-61.2998 30 -53.2002 68zM623.699 660c34.7998 0 62.501 -24.001 51.7012 -75.001c-7.40039 -35 -23 -73 -35.7002 -106
c-36.0996 -97.9004 -69.2998 -198 -80.7002 -247c-4.40039 -19 -13.5 -42 -35.2002 -42c-24.5 0 -23 20 -16.7002 54c9 47.7002 21.2998 167.601 24.2002 238.001c0.900391 35 0.5 64 8.7998 103c11.9004 56 54.5 75 83.5996 75zM429 59.999c0 39 34 71 74 71s72 -30 72 -69
c0 -38 -34 -70 -74 -70s-72 30 -72 68z" />
    <glyph glyph-name="exclam_question" unicode="&#x21;&#x3f;" horiz-adv-x="587" 
d="M419.6 568c-4.5 -21 2.7002 -27 -3 -54c-5.2998 -25 -30.3994 -41 -58.5996 -41c-22.5996 0 -49.2998 20 -41.2002 58c7.40039 35 30.2002 58 68.1006 86c33.5 25 79.7998 39 137.1 39c107.2 0 160.9 -61 141.301 -153c-15.7002 -74 -84.7002 -120 -139.601 -157
c-30.5996 -20 -69.1992 -47 -84.499 -119l-2.7002 -13c-5.2998 -25 -11.5 -34 -38.2998 -34c-24.9004 0 -27.5 12 -22.7998 34l3.09961 15c8.7002 41 20.7998 98 101.399 163c39.5 31 66.2002 68 76.7998 118c12.2998 58 1 110 -51.7998 110
c-41.4004 0 -79.3008 -24 -85.3008 -52zM296.699 56c8.2998 39 47 71 84.5996 71s61.2998 -30 53 -69c-8.09961 -38 -46.7998 -70 -84.3994 -70s-61.2998 30 -53.2002 68zM256.699 658c34.7998 0 62.501 -24.001 51.7012 -75.001c-7.40039 -35 -23 -73 -35.7002 -106
c-36.0996 -97.9004 -69.2998 -198 -80.7002 -247c-4.40039 -19 -13.5 -42 -35.2002 -42c-24.5 0 -23 20 -16.7002 54c9 47.7002 21.2998 167.601 24.2002 238.001c0.900391 35 0.5 64 8.7998 103c11.9004 56 54.5 75 83.5996 75zM62 57.999c0 39 34 71 74 71s72 -30 72 -69
c0 -38 -34 -70 -74 -70s-72 30 -72 68z" />
    <glyph glyph-name="centigrade" unicode="&#xb0;C" horiz-adv-x="799" 
d="M540 -16c-187 0 -271 145 -243 290c38 193 187 306 346 306c138 0 160 -37 192 -38c-8 -56 -10 -102 -9 -150l-30 -4c-7 93 -49 158 -157 158c-79 0 -211 -46 -252 -258c-27 -137 31 -262 159 -262c85 0 138 27 221 110l20 -15c-78 -88 -151 -137 -247 -137zM318 557
c7 32 -7 73 -52 73c-43 0 -74 -38 -80 -73c-7 -35 10 -71 52 -71s74 36 80 71zM152 558c11 55 64 100 119 100s91 -45 81 -100c-11 -55 -64 -100 -119 -100s-91 45 -81 100z" />
    <glyph glyph-name="fahrenheit" unicode="&#xb0;F" horiz-adv-x="802" 
d="M574 504l-38 -196h132c36 0 47 17 59 45l13 29c1 5 5 9 9 9h22c2 0 3 -2 2 -5c-7 -23 -20 -61 -26 -95c-7 -34 -9 -64 -11 -96l-3 -3h-23c-5 0 -7 4 -7 7l1 31c0 29 -9 44 -42 44h-133l-39 -202c-6 -31 7 -44 46 -44h26c5 0 8 -3 7 -8l-4 -19l-2 -2l-125 2
c-36 0 -129 -2 -129 -2l-2 2l4 19c1 5 4 8 9 8h26c41 0 58 16 64 44l84 432c5 29 -1 44 -44 44h-30c-6 0 -6 5 -6 7l4 20l4 2l124 -2l75 1l249 1c-7 -54 -10 -115 -10 -156l-30 -4c-9 68 -16 120 -91 120h-122c-24 0 -38 -9 -43 -33zM318 557c7 32 -7 73 -52 73
c-43 0 -74 -38 -80 -73c-7 -35 10 -71 52 -71s74 36 80 71zM152 558c11 55 64 100 119 100s91 -45 81 -100c-11 -55 -64 -100 -119 -100s-91 45 -81 100z" />
    <glyph glyph-name="f_t" unicode="ft" horiz-adv-x="717" 
d="M468 118l61.002 263.999h-210l-3 -17c-14.7998 -83.9004 -32.2002 -156.601 -47.1006 -235.001c-33.9004 -178 -84.6006 -241.1 -118.101 -287.6c-37.2002 -51.5996 -89.9004 -75.5996 -139.2 -75.5996c-81.5996 0 -113.8 38.5 -113.8 65.2002
c0 20.4004 14.4004 46.2002 47.5 46.2002c22.9004 0 45.8008 -22 56.001 -36c8.90039 -14 13.9004 -25.7998 33.1006 -25.7998c18 0 41.5 15.2002 54.7998 36c44.0996 68.9004 47.7998 191 60.7998 288.6c10 75 21 127 41 241h-82c-3 0 -6 0 -6 2s3.2002 22 4 25
c2.5 9 9 16.0996 28 17l66 3c18 86.5996 46 152 91 205c37.7002 44.4004 102.2 63.8008 135.3 63.8008c85.2002 0 129.5 -30 129.5 -78.2998c0 -21.5 -15 -58.7998 -51.9004 -58.7998c-40.7002 0 -51.9004 36.2998 -54.9004 62.7998
c-2.7998 24.5 -4.7002 29.7002 -32.2998 29.7002c-23.7998 0 -36.7002 -13.7002 -56.7002 -68.2002c-10.2002 -27.7002 -18.2998 -60.9004 -25 -99l-10 -57h216l11 44c9.90039 38.2002 9.2002 72.9004 44 82c30.5 8 93 20 93 3c0 -12 -16 -72.2002 -20 -90l-8 -39h99
c11 -8 1 -42 -11 -47h-98l-60 -255c-3.2002 -13.7998 -6.60059 -30.3994 -6.60059 -42.7998c0 -10.7002 2.59961 -18.2002 10.5996 -18.2002c10 0 44 17 70 47c14 0 26 -19 29 -28c-50 -55 -116.5 -95 -186 -95c-35.9004 0 -50.7002 22.7002 -50.7002 57.1006
c0 20.5996 4.5 48.2998 9.7002 70.8994z" />
    <glyph glyph-name="t_t" unicode="tt" horiz-adv-x="683" 
d="M118 118l61 264h-70c-3 0 -6 0 -6 2s4 22 5 25c2 8 9 16 28 17l53 3l13 50c10 38 9 73 44 82c30 8 96 20 96 3c0 -12 -16 -72 -20 -90l-10 -45h193l13 50c10 38 9 73 44 82c30 8 96 20 96 3c0 -12 -16 -72 -20 -90l-10 -45h99c11 -8 1 -42 -11 -47h-98l-60 -255
c-3 -14 -7 -31 -7 -43c0 -11 3 -18 11 -18c10 0 44 17 70 47c14 0 26 -19 29 -28c-50 -55 -116 -95 -186 -95c-36 0 -51 23 -51 57c0 21 5 48 10 71l61 264h-193l-60 -255c-3 -14 -7 -31 -7 -43c0 -11 3 -18 11 -18c10 0 44 17 70 47c14 0 26 -19 29 -28
c-50 -55 -116 -95 -186 -95c-36 0 -51 23 -51 57c0 21 5 48 10 71z" />
    <glyph glyph-name="Q_u" unicode="Qu" horiz-adv-x="1369" 
d="M516.9 -91c79 -29 144.101 -63.0029 215.101 -63.0029c46 0 121 11 190 48l15 -24c-70 -59 -172 -98 -269 -98c-78 0 -155 17 -218 48c-100 48 -160 65 -224 65c-8.40039 0 -26 -6.09961 -44.7002 -21.0996c-12.2002 -13.5996 -24.2002 -27.7998 -36.2998 -41.8994
l-60.0996 37c35 40 78 64 128 98c20.7998 14 46.8994 27.4004 73.7998 38.8008c-114.1 22.5996 -198.5 110.5 -198.5 244.9c0 129.6 58.2998 232.8 130.8 305.3c69 69 161 112 257 112c152.9 0 260.601 -98.0996 260.601 -254.399c0 -219.1 -153.9 -398.699 -363.2 -412.699
c-33 -10.5 -74.4004 -30.2002 -114.4 -56.9004c-3.2002 -2.09961 -6.40039 -4.2998 -9.5 -6.5c9.2998 1 18.8994 1.5 28.499 1.5c27 0 107.9 29 238.9 -20zM1138 106.697c0 0 -6.40039 -27 2.59961 15.2998l-1.90039 2c-92 -108 -147.1 -130 -199.1 -130
c-39 0 -89 22 -89 82c0 18 -0.299805 39.0996 8 74l38 159c6.2998 25.5996 13.2998 61 -4 61c-10 0 -44 -17 -70 -47c-14 0 -26 19 -29 28c46 59 115.5 92 185 92c30 0 41.5 -12.5 49 -33c6.5 -17.7998 0.799805 -60.2002 -7 -92l-37 -160
c-9.59961 -41.2998 -5.2998 -82 31 -82c36 0 72 47 135 129l38.2002 156c9.5 38.7998 7.7998 82 68.7998 82c56 0 65.9004 -10.5 65.9004 -27.2002c0 -9.7998 -8.40039 -34.8994 -12.7002 -54.7998l-51.7998 -237c-3 -13.7002 -6.7998 -30.2002 -6.7998 -42.6006
c0 -10.7998 2.7998 -18.3994 10.7998 -18.3994c10 0 44 17 70 47c14 0 26 -19 29 -28c-46 -59 -108.5 -92 -178 -92c-30 0 -42.5 12.5 -50 33c-2.2998 6.2998 -3.2998 14.5 -3.2998 23.9004c0 17.5 4.7002 38.7998 8.2998 59.7998zM456.001 615.997
c-53.2002 0 -107.199 -32.5 -149.899 -106.8c-34.0996 -59.2998 -73 -178 -73 -283.1c0 -124.3 56.0996 -194.1 140.899 -194.1c119.9 0 218 184 218 390.6c0 127.8 -54.5996 193.399 -136 193.399z" />
    <glyph glyph-name="f_f.short" unicode="f&#xe0e0;" horiz-adv-x="746" 
d="M456 429l64.998 0.000976562c3.2002 15.5996 28.9004 110.699 28.9004 110.699c-40.7002 0 -50.7998 36.0996 -55.8994 62.7998c-5.09961 24.2002 -18.6992 30.7002 -46.2988 30.7002c-20.4004 0 -60.7002 -8.2002 -82.7002 -63.2002
c-11 -27.4004 -20.5 -44.9004 -28 -84l-11 -57h119h11zM683.998 595.001c-8.90039 -28.2002 -19.499 -69.8984 -26.999 -108.998l-11 -57h110c5 0 7 -2 7 -5c0 -1 -5 -30 -5 -30c-2 -8 -17 -12 -26 -12h-93l-3 -17c-14.7998 -83.9004 -32.2002 -156.601 -47.1006 -235.001
c-33.9004 -178 -69.9004 -222 -107.4 -266c-34.2998 -40.2998 -100.6 -70.2002 -149.899 -70.2002c-81.5996 0 -113.8 38.5 -113.8 65.2002c0 20.4004 14.4004 46.2002 47.5 46.2002c22.9004 0 48.7002 -20.0996 56 -36c6.90039 -15.0996 13.9004 -25.7998 33.1006 -25.7998
c18 0 41.5 15.2002 54.7998 36c44.0996 68.9004 49.7998 164 62.7998 261.6c10 75 19 127 39 241h-79h-13h-100l-3 -17c-14.7998 -83.9004 -32.2002 -156.601 -47.1006 -235.001c-33.9004 -178 -84.1006 -246.4 -118.101 -292.601
c-37.7998 -51.4004 -89.8994 -75.6006 -139.199 -75.6006c-81.5996 0 -113.8 38.5 -113.8 65.2002c0 20.4004 14.4004 46.2002 47.5 46.2002c22.9004 0 47.7002 -18.0996 56 -36c7 -15 13.9004 -25.7998 33.1006 -25.7998c18 0 41.5 15.2002 54.7998 36
c44.0996 68.9004 47.7998 196 60.7998 293.6c10 75 21 127 41 241h-82c-3 0 -6 0 -6 2s3 22 4 25c2 8 9 16 28 17l66 3c18 86.5996 47 137 92 190c37.7002 44.4004 121.2 63.8008 154.3 63.8008c71 0 128.9 -28.5 146.2 -66c6.5 9.59961 13.2002 18.7998 20.5 27.2002
c37.5 43 92.0996 63.7998 125.3 63.7998c85.7002 0 137.5 -41 137.5 -89.2998c0 -21.5 -13 -54.7998 -49.9004 -54.7998c-40.7002 0 -51.9004 37.2998 -54.9004 63.7998c-2.7998 24.5 -4.7002 35.7002 -32.2998 35.7002c-23.7998 0 -41.7002 -23.7002 -55.7002 -68.2002z
" />
    <glyph glyph-name="f_f" unicode="ff" horiz-adv-x="716" 
d="M456 429l64.999 -0.000976562c8.2998 39.7002 19 77 32.5996 110.9c-1.2002 -0.0996094 -2.5 -0.199219 -3.7002 -0.199219c-40.7002 0 -50.7998 36.0996 -55.8994 62.7998c-5.09961 24.2002 -18.6992 30.7002 -46.2988 30.7002
c-20.4004 0 -60.7002 -8.2002 -82.7002 -63.2002c-11 -27.4004 -20.5 -44.9004 -28 -84l-11 -57h119h11zM190.999 381.999l-82.001 0.00195312c-3 0 -6 0 -6 2s3 22 4 25c2 8 9 16 28 17l66 3c18 86.5996 47 137 92 190c37.7002 44.4004 121.2 63.8008 154.3 63.8008
c71 0 128.9 -28.5 146.2 -66c6.5 9.59961 13.2998 18.6992 20.5 27.1992c37.7002 44.4004 111.2 63.8008 144.3 63.8008c85.2002 0 151.5 -41 151.5 -89.2998c0 -21.5 -12 -53.7998 -48.9004 -53.7998c-40.7002 0 -50.7998 36.0996 -55.8994 62.7998
c-5.09961 24.2002 -18.6992 30.7002 -46.2988 30.7002c-20.4004 0 -50.7002 -8.2002 -72.7002 -63.2002c-11 -27.4004 -21.5 -69.9004 -29 -109l-11 -57h110c5 0 7 -2 7 -5c0 -1 -5 -30 -5 -30c-2 -8 -17 -12 -26 -12h-93l-3 -17
c-14.7998 -83.9004 -32.2002 -156.601 -47.1006 -235.001c-33.9004 -178 -69.9004 -222 -107.4 -266c-34.2998 -40.2998 -100.6 -70.2002 -149.899 -70.2002c-81.5996 0 -113.8 38.5 -113.8 65.2002c0 20.4004 14.4004 46.2002 47.5 46.2002
c22.9004 0 48.7002 -20.0996 56 -36c6.90039 -15.0996 13.9004 -25.7998 33.1006 -25.7998c18 0 41.5 15.2002 54.7998 36c44.0996 68.9004 49.7998 164 62.7998 261.6c10 75 19 127 39 241h-79h-13h-100l-3 -17c-14.7998 -83.9004 -32.2002 -156.601 -47.1006 -235.001
c-33.9004 -178 -84.1006 -246.4 -118.101 -292.601c-37.7998 -51.4004 -89.8994 -75.6006 -139.199 -75.6006c-81.5996 0 -113.8 38.5 -113.8 65.2002c0 20.4004 14.4004 46.2002 47.5 46.2002c22.9004 0 47.7002 -18.0996 56 -36c7 -15 13.9004 -25.7998 33.1006 -25.7998
c18 0 41.5 15.2002 54.7998 36c44.0996 68.9004 47.7998 196 60.7998 293.6c10 75 21 127 41 241z" />
    <glyph glyph-name="f_i" unicode="fi" horiz-adv-x="694" 
d="M645.3 320.2l-42.2998 -196.201c-5.90039 -25.5996 -13.3008 -61 3.99902 -61c10 0 44 17 70 47c14 0 26 -19 29 -28c-46 -59 -115.5 -92 -185 -92c-30 0 -41.5 12.5 -49 33c-6.5 17.7998 0 60 7 92l44 206c4.40039 20.7998 6 32 6 41c0 10 -6 19.0996 -18 20h-187
l-3 -17c-14.7998 -83.9004 -32.2002 -156.601 -47.1006 -235.001c-33.9004 -178 -84.6006 -241.1 -118.101 -287.6c-37.2002 -51.5996 -89.9004 -75.5996 -139.2 -75.5996c-81.5996 0 -113.8 38.5 -113.8 65.2002c0 20.4004 14.4004 46.2002 47.5 46.2002
c22.9004 0 45.8008 -22 56.001 -36c8.90039 -14 13.9004 -25.7998 33.1006 -25.7998c18 0 41.5 15.2002 54.7998 36c44.0996 68.9004 42.7998 191 55.7998 288.6c10 75 21 127 41 241h-82c-3 0 -6 0 -6 2s3 22 4 25c2 8 9 16 28 17l66 3c22 111.5 65.5996 155 117 205
c37.5 36.5 104.4 63.7998 154.301 63.7998c85.2002 0 200.7 -45.2998 200.7 -105.7c0 -26.7998 -14.9004 -67.0996 -61 -67.0996c-50.9004 0 -63.6006 45.0996 -70.001 78.5c-6.40039 30.2002 -35.3008 44.7002 -69.3008 44.7002
c-33.2998 0 -74.0996 -27.5996 -94.3994 -63.1992c-21.2998 -37.5 -26.8994 -58.9004 -35.2998 -99l-12 -57h199.9c44 3.90039 92.7002 7 114.101 7c13.2002 0 20.5 -7.40039 20.5 -21.1006c0 -17.0996 -11.7002 -55.3994 -20.2002 -94.6992z" />
    <glyph glyph-name=".notdef" horiz-adv-x="500" 
d="M50 605v-510l170 255zM80 50h340l-170 255zM280 350l170 -255v510zM250 395l170 255h-340zM0 0v700h500v-700h-500z" />
    <glyph glyph-name="space" unicode=" " horiz-adv-x="250" 
 />
    <glyph glyph-name="exclam" unicode="!" horiz-adv-x="266" 
d="M256.7 658c34.7998 0 62.6016 -24.001 51.8018 -75.001c-7.40039 -35 -23.1006 -73 -35.8008 -106c-36.0996 -97.9004 -69.2998 -198 -80.7002 -247c-4.40039 -19 -13.5 -42 -35.2002 -42c-24.5 0 -23 20 -16.7002 54c9 47.7002 21.2998 167.601 24.2002 238.001
c0.900391 35 0.5 64 8.7998 103c11.9004 56 54.5 75 83.5996 75zM62.002 57.999c0 39 34 71 74 71s72 -30 72 -69c0 -38 -34 -70 -74 -70s-72 30 -72 68z" />
    <glyph glyph-name="quotedbl" unicode="&#x22;" horiz-adv-x="376" 
d="M270.4 411l-13.2002 4s6 170 7.2998 176c4.90039 23 32.2002 54 72.6006 54c39.5 0 38.2002 -19 34.4004 -37c-3.2002 -15 -75.4004 -191 -75.4004 -191zM137.9 411l-13.2998 4s6.09961 170 7.39941 176c4.90039 23 32.1006 54 72.501 54c39.5 0 38.2998 -19 34.5 -37
c-3.2002 -15 -75.4004 -191 -75.4004 -191z" />
    <glyph glyph-name="numbersign" unicode="#" horiz-adv-x="514" 
d="M328.2 253l38.7998 107h-88.4004c-13.5 -37 -27.0996 -70 -40.5996 -107h90.2002zM416.8 360l-38.7012 -107h110.9l-21.5996 -66h-111.8c-22.2002 -60 -41.4004 -115 -63.1006 -173h-49.7998l64 173h-90.2998c-23.0996 -60 -42.1992 -115 -64.8994 -173h-51.7002
l63.0996 173h-93.0996l22.5 66h94c13.5 37 26.0996 70 38.6992 107h-94l22.5 66h94c21.7002 58 42.2998 115 64 173h52.7002l-65 -173h91.2002c21.7002 58 41.4004 115 63.1006 173h48.9004l-62.2002 -173h110l-22.5 -66h-110.9z" />
    <glyph glyph-name="dollar" unicode="$" horiz-adv-x="514" 
d="M320.5 392.3l47.2988 179.301c-40.5996 -4 -77.0996 -34.2002 -87.3994 -82.6006c-7.59961 -35.7002 15.1006 -71.4004 40.1006 -96.7002zM312.099 216.101l-48.7998 -185.001c46.2002 5.90039 85.1006 35 93.8008 75.9004
c9.59961 45.4004 -15.8008 80.8008 -45.001 109.101zM527.299 585c-5.7998 -54 -10.1025 -91.998 -20.5029 -140.998c-11.0996 -8 -32.8994 -9 -44.2998 -5c-2.59961 52.2998 -8.89941 112.6 -57.3994 128.8l-53.2998 -201.5l3.59961 -2.2998
c29.7998 -19 77.3994 -47 102.699 -87c19 -30 32.7998 -58 22.5996 -106c-12.0996 -57 -49.6992 -100.9 -86.7988 -130c-41.5 -32.5996 -89.7998 -48.7998 -141.2 -49.8994l-22.2998 -84.2998c-7.7998 -4.2002 -30.0996 -5.10059 -39.5 -5.10059l23.7002 89.7998
c-88.0996 2.90039 -91 17.5 -135.9 17.5c-2.2002 34 0.700195 83 15.6006 153c15 4 30.0996 9 43.8994 3c0 -73.9004 38.2002 -122.301 87.1006 -132.801l55.5 210.1c-35 25 -87.2998 55.0996 -110.899 102.699c-13.7998 28 -14.5 69 -6.7998 105
c9.59961 45 42.0996 88 81 116c40.4004 28.9004 94.6006 42.3008 133.801 43.9004l21.0996 79.5996c9.40039 3.5 27.5 5 39.5 5l-22.5 -85.5c55.4004 -3.7998 71.3008 -18 111.301 -24z" />
    <glyph glyph-name="percent" unicode="%" horiz-adv-x="637" 
d="M226.9 364.2c0 -14.0996 7.59961 -28.1982 16.5996 -28.1982c19.5 0 37.4004 16.7002 55.2002 40c25.5 33.5 47.0996 77.0996 47.0996 121.6c0 29.0996 -16.7998 32.3994 -27.5 32.3994c-18.7002 0 -39.2998 -23.2002 -56.2002 -52
c-20.0996 -34.4004 -35.1992 -63.9004 -35.1992 -113.801zM203.5 516.602c29.2002 29.5 70.5 49.4004 112.1 49.4004c21.5996 0 43.0996 -5 56.5996 -19.7002c22.2002 -15.2998 66.1006 -27.2998 94.501 -27.2998c39.5 0 103.7 6 151.601 50l39.7002 -21l-506.2 -564
l-48.2002 12l450.5 501c-40.0996 -16 -78.1992 -23 -106.399 -23c-20.2002 0 -45.9004 8.7002 -61.9004 18.7998c-3.7002 -55 -31.9004 -104.7 -58.7002 -137.2c-29.7998 -36.0996 -67.5 -58.5996 -107.2 -58.5996c-48.7002 0 -76 25.5 -76 75.7998
c0 61.5996 23.5 107.3 59.5996 143.8zM461.9 48.2012c0 -14.0996 7.59961 -28.1982 16.5996 -28.1982c19.5 0 37.4004 16.7002 55.2002 40c25.5 33.5 47.0996 77.0996 47.0996 121.6c0 29.0996 -16.7998 32.3994 -27.5 32.3994c-18.7002 0 -39.2998 -23.2002 -56.2002 -52
c-20.0996 -34.4004 -35.1992 -63.9004 -35.1992 -113.801zM438.5 200.603c29.2002 29.5 70.5 49.4004 112.1 49.4004c35.4004 0 70.6006 -13.5996 70.6006 -61.0996c0 -59.7002 -30.2998 -114.4 -59.0996 -149.301c-29.7998 -36.0996 -67.5 -58.5996 -107.2 -58.5996
c-48.7002 0 -76 25.5 -76 75.7998c0 61.5996 23.5 107.3 59.5996 143.8z" />
    <glyph glyph-name="ampersand" unicode="&#x26;" horiz-adv-x="729" 
d="M372.5 536c-4.5 -21 -0.601562 -78 15.7988 -116l3.40039 -6c46.2002 33 92.2002 75.0996 100.2 113c9.7998 46 -9.7998 86 -46.5996 86c-18.5996 0 -42.2998 -9.09961 -56.5996 -32c-10 -16 -12.4004 -27 -16.2002 -45zM602.898 355
c21.0996 35.0996 0.197266 45 -27.6025 47c-4.59961 0.299805 -6.69922 4 -6.09961 7l5.09961 24l4.40039 3s58.7998 -2 96.3994 -2c30.0996 0 78.5 2 78.5 2l1.40039 -2l-4.90039 -23c-1.09961 -5 -6.5 -8.59961 -12.2002 -9c-28.5996 -2 -49.8994 -20.2998 -83.499 -61
c0 0 -104.3 -124 -153 -185c16.7998 -45 33 -105 62.2002 -105c17.9004 0 39.8008 1 70.4004 39c9.40039 0 20.3008 -15 23.9004 -29c-46.5996 -51 -88.3994 -71 -130.699 -71c-41.5 0 -86.2998 7.90039 -114.5 73.6006c-48.7998 -42.7002 -110 -73.6006 -185.4 -73.6006
c-50.7998 0 -98.3994 9.09961 -127.699 36c-28.0996 25.7998 -35.8994 70 -24.3994 124c15.2002 71.5 67.9004 134.1 207.2 199.399c-31.4004 60 -40.2002 95.4004 -30.4004 141.601c6.2998 29.5 30.7998 74 68.2998 109c36 33.5996 97.0996 54 151.6 54
c86.5 0 120.1 -67 109.5 -117c-15.5 -73 -89.2002 -119 -176.9 -160l2.7002 -5c9.09961 -28 25.7998 -73.2002 65.2002 -158c2.2998 -6.7998 9.2998 -9 14.0996 -4c48.9004 53 99 116 116.4 145zM296.097 317c-68.9004 -51.7002 -87 -103.099 -96.2998 -146.999
c-14.7002 -69 15.5 -139 54.0996 -139c46.0996 0 85 20.5996 135.4 73.8994c-30.9004 62.4004 -77.1006 171.5 -93.2002 212.1z" />
    <glyph glyph-name="quotesingle" unicode="'" horiz-adv-x="215" 
d="M126.6 411l-13.2002 4s6 170 7.2998 176c4.90039 23 32.2002 54 72.6006 54c39.5 0 38.2002 -19 34.4004 -37c-3.2002 -15 -75.4004 -191 -75.4004 -191z" />
    <glyph glyph-name="parenleft" unicode="(" horiz-adv-x="315" 
d="M96.7998 253c38.7002 182 172 354 319.2 467l19.0996 -34c-35.5996 -35 -174.1 -169 -230.199 -433s23.5 -398 45.9004 -434l-35 -32c-171.7 196 -128.601 421 -119.001 466z" />
    <glyph glyph-name="parenright" unicode=")" horiz-adv-x="315" 
d="M325.2 251c-38.7002 -182 -172 -354 -319.2 -467l-19.0996 34c35.5996 35 174.1 169 230.199 433s-23.5 398 -45.9004 434l35 32c171.7 -196 128.601 -421 119.001 -466z" />
    <glyph glyph-name="asterisk" unicode="*" horiz-adv-x="433" 
d="M247.1 566c-11.7998 2 -23 7 -37.5 5c-44 -8 -77.7998 -8 -68.2002 37c3 14 15.2002 32 37.7998 32c32 0 40.9004 -33 78.2002 -52c4.7002 40 -14.2998 65 -8.7998 91c4.5 21 27.0996 39 44 39s35.2002 -11 30.1006 -35c-5.7002 -27 -35.2998 -65 -43.5996 -95
c46.2998 19 64.0996 54 95.0996 54c29.0996 0 31.5 -24 29.4004 -34c-6.40039 -30 -40.4004 -40 -73.3008 -40c-17.9004 0 -33.8008 0 -51.4004 -3c24.2998 -36 72.5996 -34 61.7998 -85c-3.7998 -18 -23 -29 -36.2002 -29c-46.0996 0 -30.0996 62 -45.2998 101
c-33.0996 -45 -31.7998 -101 -87.2998 -101c-16 0 -24.5 13 -21.2998 28c11.5 54 57.4004 49 96.5 87z" />
    <glyph glyph-name="plus" unicode="+" horiz-adv-x="537" 
d="M368.5 269h156.801l-15.7998 -74h-156.7l-34.5996 -163h-77.5996l34.5996 163h-156.7l15.7002 74h156.8l34.7998 164h77.5996z" />
    <glyph glyph-name="comma" unicode="," horiz-adv-x="244" 
d="M143.4 127c51.7998 0 75.3965 -41 57.3965 -123c-7.7002 -35 -43.2998 -83.7002 -76.7998 -112c-33.7998 -28.5 -81.3994 -52.7002 -118.499 -59c-9.09961 7.5 -7.89941 18.2002 0.000976562 31c46.2002 12 111 82.5 116.8 109c4.7998 22 -20.2998 29.2002 -27.5996 33
c-22.0996 11.5996 -29.5996 42.0996 -24.0996 67.0996c4.90039 22.5 47.6006 53.9004 72.8008 53.9004z" />
    <glyph glyph-name="hyphen" unicode="-" horiz-adv-x="358" 
d="M327 215h-198c-24 0 -37 10 -37 21c0 17 25 58 46 58h200c28 0 36 -10 36 -21c0 -13 -24 -58 -47 -58z" />
    <glyph glyph-name="period" unicode="." horiz-adv-x="226" 
d="M40 58c0 39 34 71 74 71s72 -30 72 -69c0 -38 -34 -70 -74 -70s-72 30 -72 68z" />
    <glyph glyph-name="slash" unicode="/" horiz-adv-x="296" 
d="M405.4 682l-321.6 -703h-59.2002l321.6 703h59.2002z" />
    <glyph glyph-name="zero" unicode="0" horiz-adv-x="514" 
d="M380.2 565c-22.4004 0 -49.7998 -12.4023 -79.2002 -74.002c-30.5996 -64.0996 -86.1992 -249.1 -86.1992 -372.8c0 -48.0996 11.5996 -85.1992 48.5996 -85.1992c24.9004 0 56.8008 23.2002 90.3008 107c23.2998 58.4004 70.8994 234.101 70.8994 328.601
c0 69.5 -20.2002 96.4004 -44.4004 96.4004zM253.301 -10.002c-107.4 0 -157.501 88.1992 -157.501 205.1c0 145.6 63.7002 275 130 340.9c48.7002 48.5 106.101 74 164.001 74c77.4004 0 159.301 -45 159.301 -190.2c0 -136.3 -61.2002 -274.1 -115.7 -336.8
c-58.2002 -67 -126.7 -93 -180.101 -93z" />
    <glyph glyph-name="one" unicode="1" horiz-adv-x="514" 
d="M376.4 122c-17.5996 -83 26.5996 -87 77.6992 -90c8.09961 -6 3.39941 -28 -7.30078 -34c-58.7998 1 -118.899 2 -156.499 2s-159.3 -2 -159.3 -2c-8.09961 6 -3.5 28 7.2002 34c52.2998 3 98.3994 7 115.999 90l66.5 313c10.5996 50 5.7998 54 -6.40039 54
c-13.2002 0 -47.4004 -2 -103 -25c-11 10 -14.2998 26.4004 -11.5996 43c89.4004 36 158.5 60 221.8 88c24 11 40.7002 15 50.1006 15c8.5 0 15.2002 -4 12.4004 -17c0 0 -19.5996 -57 -30.8994 -110z" />
    <glyph glyph-name="two" unicode="2" horiz-adv-x="514" 
d="M257 583.1c34.2002 16.2998 65.501 26.9004 113.101 26.9004c81 0 160.6 -49.9004 160.6 -128c0 -95.0996 -56.5996 -135.6 -192 -259l-53.7998 -49c-36.0996 -32.9004 -52.8994 -52 -73.0996 -75h141.2c42.2998 0 52.0996 7 87.1992 75
c21.5996 0 29.2998 -4 40.2002 -10c-18.7002 -57 -44.6006 -126 -64.001 -164h-352.8c-3.59961 7.5 -1.59961 26.5 3.90039 36.2002c29.5 26.7998 78.5996 73.3994 170.5 168.3l81.9004 84.5c56.7998 58.7002 80.0996 106.5 80.0996 177c0 51.5 -37 84 -80.4004 84
c-37.5996 0 -59.7998 -10.5996 -70.5996 -31.5c-10.9004 -20.9004 5 -38 0 -64c-6 -31.0996 -37.0996 -44.5 -64.3994 -44.5c-29.5 0 -45 23 -45 45.2002c0 56.7998 55.5996 98.3994 117.399 127.899z" />
    <glyph glyph-name="three" unicode="3" horiz-adv-x="514" 
d="M324.9 550c-32 0 -63.4004 -5.00195 -72.8008 -45.002c-7.7998 -33.4004 -22.5 -71 -59.5996 -71c-22.7998 0 -45 14 -45 40c0 26.0996 21.5996 47.8994 52 70.499c37 27.5 92.5 65.5 165.8 65.5c107.4 0 146 -74.7998 146 -117.899
c0 -69.5 -39.2998 -106.1 -112.7 -145.1l0.599609 -3.40039c65.4004 -22.5996 99.8008 -70.2998 99.8008 -126.6c0 -75.5996 -32.5 -116.399 -72.5 -156.499c-59.7998 -60 -142.1 -70.5 -207 -70.5c-46.0996 0 -106.199 15 -136.199 33
c-14.7998 8.90039 -22.2998 20.4004 -22.2998 35.5c0 25.4004 18.2002 52.5 51.5 52.5c34.7998 0 49 -22 56.2002 -37c8.59961 -17 37.7998 -42 74.5 -42c22 0 60.7998 7.40039 90.3994 44c21.7998 27 37 49.2998 37 106c0 75.9004 -59.2002 109 -100.5 109
c-14.0996 0 -30.5 0 -49.7998 -2c-5.90039 9.90039 0.599609 30.3008 4.89941 40.001c32.4004 4 64 11.0996 93.0996 25.2998c62.2002 30.2002 78.7002 64.4004 78.7002 127.7c0 38 -33.5 68 -72.0996 68z" />
    <glyph glyph-name="four" unicode="4" horiz-adv-x="514" 
d="M355.8 501c-65.0996 -72 -170.3 -208.5 -235 -292h172.9zM502.399 209c10.2998 0 12.8018 -6 10.7021 -16c-2.59961 -12 -20.5996 -31 -33.7998 -31h-79l-8.5 -40c-17.5996 -83 17.2002 -87 68.2998 -90c8.09961 -6 3.5 -28 -7.2002 -34c-76.9004 1 -106.801 2 -144.4 2
s-147 -2 -147 -2c-8.09961 6 -3.5 28 7.2002 34c52.2998 3 89 7 106.6 90l8.5 40h-166.4c-22.5996 0 -26 2 -29.5996 7l-10.2002 18c-3.2998 11 -9.2002 19 -8.2998 23c0.599609 3 6.2998 9.5 9.2998 13c103.8 123.5 241 296 332.3 387h84.5996l-85.2002 -401h92.0996z" />
    <glyph glyph-name="five" unicode="5" horiz-adv-x="514" 
d="M357.8 193.1c0 55.2998 -20.2998 86.9004 -62.0996 99.9004c-29.5 9.2002 -97.7002 19 -133.8 20l-10.2998 8l100.7 289c52.7002 -4 81.6006 -10 120.101 -10c56.4004 0 92.5 6 162.6 13l18.7998 -13l-36.0996 -86c-58.2002 -4 -75.6006 -6 -109.4 -6
c-39.5 0 -105.8 2 -135.2 5c-12.4004 -32 -21 -53.5 -38.5996 -105.5c26 -4 78.0996 -16.5996 106.399 -23.5c106.6 -26 146 -102.9 146 -165.5c0 -86.4004 -33.5 -122.9 -86.9004 -171.5c-44.5996 -40.5996 -116.199 -57 -177.199 -57c-45 0 -95.2998 7.5 -127.3 28
c-17.7998 11.4004 -28.0996 29.4004 -28.0996 45.2002c0 27.5996 19.2998 54.2998 54.0996 54.2998s58.2998 -18.7998 66.8994 -38.5c10.5996 -24.5 33.2998 -45 52.0996 -45c26.7002 0 51 6.90039 73.5 33.2002c25.5 29.7998 43.7998 66.2998 43.7998 125.899z" />
    <glyph glyph-name="six" unicode="6" horiz-adv-x="514" 
d="M237 295c-15.5 -41 -25.7998 -101.9 -25.7998 -158c0 -77 44.2998 -105 67.2998 -105c19.4004 0 50.9004 13 70.1006 47c15.7002 27.7002 32.6006 90.9004 32.6006 145.601c0 49.5996 -23.4004 96.3994 -68.1006 96.3994c-16.9004 0 -34.9004 -2.5 -76.1006 -26z
M541.5 601.5c-61.5 -23 -104.599 -44.5 -170.299 -92.5c-52.4004 -38.2998 -96.8008 -100.5 -119.201 -172.5c37.9004 19 80.5 31.5 103.7 34.5c126.7 -2.90039 154.9 -77.9004 154.9 -131.4c0 -67.7998 -28.2002 -136.7 -80.1006 -185.3
c-40.0996 -37.5 -103.8 -64.2998 -171.5 -64.2998c-78.9004 0 -169.5 61.5 -169.5 194c0 130 77 255 176.3 329c80.5 60 155.2 97.5 265.7 123c7 -8 10 -20 10 -34.5z" />
    <glyph glyph-name="seven" unicode="7" horiz-adv-x="514" 
d="M261 498c-31 0 -48 -15.499 -79.0996 -86.999c-11.2998 -1.90039 -22.2998 -1.90039 -32.2998 3c9.90039 58.5 26.6006 145 37.7002 193c0.599609 3 1.59961 3 4.39941 3c16.0996 -4 15.6992 -10 47.6992 -10h337.9l3.7998 -9c-179.1 -272 -262.6 -422 -357.1 -593
l-102 -10l-3.09961 12c103.9 143.8 257.2 361.899 348.3 497.999h-206.2z" />
    <glyph glyph-name="eight" unicode="8" horiz-adv-x="514" 
d="M378.3 567c-31.7002 0 -50.7988 -5.49902 -63.8984 -19.999c-16.0996 -17.9004 -22.2998 -48.4004 -22.2998 -80.8008c0 -23.2002 8.59961 -50.6006 38.1992 -69.2002l41.5 -26c35.5996 20.7002 62.6992 71.7998 62.6992 125.5c0 41.0996 -20.7998 70.5 -56.2002 70.5z
M492.501 395.201c-24.5 -23.2998 -55.0986 -39.498 -85.3984 -48.1982l45.5996 -33c36.2002 -26.2002 52.2998 -66 52.2998 -109.7c0 -72.4004 -31.9004 -121.2 -91.5 -163.7c-42 -29.9004 -97.9004 -50.6006 -166 -50.6006c-94.5 0 -174.6 44 -174.6 124.6
c0 49.9004 30.7998 93.4004 67.0996 126.9c29.4004 27.0996 62 48.5 113.5 71.5l-17.4004 13c-45.2002 33.7998 -67.6006 66 -67.6006 104.3c0 55.2998 24.4004 92.5996 61 124.899c37.0996 32.7998 89.0996 54.7998 162.8 54.7998c98.7002 0 147.7 -60 147.7 -113.5
c0 -49.2998 -18.5 -73.7002 -47.5 -101.3zM261.902 32.0029c26.0996 0 56.7998 5.09961 83.5996 36.0996c19 21.9004 39.5996 64.7002 39.5996 111.4c0 29.7002 -13.5 51.7998 -53.2998 79.5l-44.5996 31c-87.5996 -56 -99.0996 -115.2 -99.0996 -180
c0 -45 33.5996 -78 73.7998 -78z" />
    <glyph glyph-name="nine" unicode="9" horiz-adv-x="514" 
d="M381.2 305c15.5 41 25.7988 101.9 25.7988 158c0 77 -44.2998 105 -67.2998 105c-19.4004 0 -50.9004 -13 -70.1006 -47c-15.5996 -27.7002 -32.5996 -91 -32.5996 -145.7c0 -49.5996 23.4004 -96.2998 68.1006 -96.2998c16.9004 0 34.9004 2.5 76.1006 26zM76.6992 -1.5
c61.5 23 104.699 44.5 170.399 92.5c52.4004 38.2998 96.7002 100.5 119.101 172.5c-37.9004 -19 -80.5 -31.5 -103.7 -34.5c-126.7 2.90039 -154.9 77.9004 -154.9 131.4c0 67.7998 28.2002 136.7 80.1006 185.3c40.0996 37.5 103.899 64.2998 171.6 64.2998
c78.9004 0 169.4 -61.5 169.4 -194c0 -130 -77 -255 -176.3 -329c-80.5 -60 -155.2 -97.5 -265.7 -123c-7 8 -10 20 -10 34.5z" />
    <glyph glyph-name="colon" unicode=":" horiz-adv-x="256" 
d="M71 68c0 39 34 71 74 71s72 -30 72 -69c0 -38 -34 -70 -74 -70s-72 30 -72 68zM130 363c0 39 34 71 74 71s72 -30 72 -69c0 -38 -34 -70 -74 -70s-72 30 -72 68z" />
    <glyph glyph-name="semicolon" unicode=";" horiz-adv-x="256" 
d="M127 362c0 39 34 71 74 71s72 -30 72 -69c0 -38 -34 -70 -74 -70s-72 30 -72 68zM153.5 127c51.7998 0 75.2969 -41 57.2969 -123c-7.7002 -35 -43.2998 -83.7002 -76.7998 -112c-33.7998 -28.5 -81.3994 -52.7002 -118.499 -59
c-9.09961 7.5 -7.89941 18.2002 0.000976562 31c46.2002 12 111 82.5 116.8 109c4.7998 22 -20.2998 29.2002 -27.5996 33c-22.0996 11.5996 -29.5996 42.0996 -24.0996 67.0996c4.90039 22.5 47.7002 53.9004 72.9004 53.9004z" />
    <glyph glyph-name="less" unicode="&#x3c;" horiz-adv-x="512" 
d="M212.2 240l274.3 -116l-13.2002 -62l-370.1 156l9.2998 44l436.5 156l-13.2002 -62z" />
    <glyph glyph-name="equal" unicode="=" horiz-adv-x="551" 
d="M525.6 198l-11.9004 -56h-407.9l11.9004 56h407.9zM552.199 323l-12.1006 -57h-408l12.2002 57h407.9z" />
    <glyph glyph-name="greater" unicode="&#x3e;" horiz-adv-x="512" 
d="M405.8 238l-273.3 116l13.2002 62l369.9 -157l-9.40039 -44l-436.2 -155l13.2002 62z" />
    <glyph glyph-name="question" unicode="?" horiz-adv-x="430" 
d="M237.6 570c-4.5 -21 2.7002 -27 -3 -54c-5.2998 -25 -30.3994 -41 -58.5996 -41c-22.5996 0 -49.2998 20 -41.2002 58c7.40039 35 30.2002 58 68.1006 86c33.5 25 79.7998 39 137.1 39c107.2 0 160.9 -61 141.301 -153c-15.7002 -74 -84.7002 -120 -139.601 -157
c-30.5996 -20 -69.1992 -47 -84.499 -119l-2.7002 -13c-5.2998 -25 -11.5 -34 -38.2998 -34c-24.9004 0 -27.5 12 -22.7998 34l3.09961 15c8.7002 41 20.7998 98 101.399 163c39.5 31 66.2002 68 76.7998 118c12.2998 58 1 110 -51.7998 110
c-41.4004 0 -79.3008 -24 -85.3008 -52zM114.699 58c8.2998 39 47 71 84.5996 71s61.2998 -30 53 -69c-8.09961 -38 -46.7998 -70 -84.3994 -70s-61.2998 30 -53.2002 68z" />
    <glyph glyph-name="at" unicode="@" horiz-adv-x="988" 
d="M652.3 320c7.40039 35 9.2002 61 -14.2998 61c-13.2002 0 -43.2002 0 -84.2002 -38c-52.5 -48 -82.9004 -116 -96.3008 -179c-10 -47 -11.0996 -92 33.1006 -92c28.2002 0 63.7998 35 107.5 121c16.4004 33 49.1006 103 54.2002 127zM652.1 80
c-2.7998 -13 3.59961 -14 13.8994 -14c34.7998 0 151.6 63 182.199 207c47 221 -106.8 311 -216.8 311c-145.7 0 -325.5 -125 -374.6 -356c-31.5 -148 11.2998 -349 240.7 -349c72.4004 0 144.2 24 213.3 75l13.5996 -29c-70.5996 -49 -137.5 -85 -253.1 -85
c-222.8 0 -352.899 153 -304.399 381c44 207 243 400 480.8 400c212.4 0 323.601 -145 283.4 -334c-29.7998 -140 -166.8 -263 -292.8 -263c-30.0996 0 -60.3994 3 -70.0996 15c-10.7998 13.5 -12.8994 28 -8.89941 47c-39.9004 -42 -89.7002 -60 -112.3 -60
c-43.0996 0 -69.2998 8.7002 -86.2002 28c-21.9004 25 -22.3008 68 -14.6006 104c27.2002 128 188.101 257 296.2 257c45.0996 0 68.7998 -17 80.2998 -38l41.7998 33l23.0996 -11l-109.3 -253c-11.2002 -26 -23.9004 -55 -26.2002 -66z" />
    <glyph glyph-name="A" unicode="A" horiz-adv-x="710" 
d="M317 283h146l-33 237h-6l-129 -224c-6 -10 1 -13 22 -13zM174 79c-23 -41 21 -44 57 -47c5 -6 0 -28 -7 -34c-35 1 -88 2 -127 2c-37 0 -55 -1 -91 -2c-5 6 0 28 7 34c42 3 72 8 109 70l308 512c34 0 98 35 114 44l87 -572c7 -51 39 -50 76 -54c5 -6 0 -28 -7 -34
c-35 1 -89 2 -128 2c-37 0 -128 -1 -164 -2c-5 6 -1 28 6 34c46 3 84 -1 79 40l-22 163h-182c-23 0 -30 -4 -37 -17z" />
    <glyph glyph-name="B" unicode="B" horiz-adv-x="621" 
d="M341 562l-35.999 -185.999h54c77.5996 0 137.1 51.2998 137.1 151.899c0 64.0996 -41.7002 77.0996 -79.1006 77.0996c-62 0 -70 -14 -76 -43zM297.001 334.001l-49.001 -249.999c-1.2998 -6.2002 -2.2002 -11.9004 -2.2002 -16.8008
c0 -18 11.7002 -27.2002 57.2002 -27.2002c138.9 0 180.301 100.3 180.301 188.1c0 63.7002 -36 105.9 -118.3 105.9h-68zM291 645.002c30 0 89.001 1.99805 137.001 1.99805c164.1 0 202.199 -62.2998 202.199 -123.2c0 -75.9004 -53.5 -134.7 -120.2 -162.8l-1 -2
c79.7998 -23.2998 115.3 -66.5 115.3 -131c0 -136.7 -93.2002 -230 -301.3 -230c-58 0 -119 2 -157 2s-148 -2 -148 -2c-3.09961 2.2998 -4.5 7 -4.5 12.2002c0 8.40039 3.7002 18.1006 10.5 21.8008c53 3 81 7 97 90l78 401c3.2002 16.4004 4.7002 29.8008 4.7002 40.6006
c0 43.9004 -25 47 -66.7002 49.4004c-2.90039 2.2002 -4.2002 6.40039 -4.2002 11.2002c0 8.59961 4.2002 19 11.2002 22.7998c0 0 109 -2 147 -2z" />
    <glyph glyph-name="C" unicode="C" horiz-adv-x="675" 
d="M378 -10c-93 0 -165 17 -217 63c-66 58 -83 168 -65 262c43 220 225 343 413 343c118 0 154 -40 202 -45c-2 -55 -4 -103 -9 -155c-12 -6 -32 -9 -43 -5c-8 86 -36 163 -168 163c-114 0 -216 -127 -246 -282c-30 -156 32 -292 143 -292c67 0 150 26 233 104
c11 0 25 -12 28 -21c-83 -89 -178 -135 -271 -135z" />
    <glyph glyph-name="D" unicode="D" horiz-adv-x="698" 
d="M267 119c-2.40039 -12.0996 -3.59961 -22.4004 -3.59961 -31.2002c0 -39.7002 24.7002 -47.7998 79.6006 -47.7998c117.6 0 241.6 164.3 241.6 386.3c0 98.4004 -35.2002 177.7 -164.601 177.7c-35 0 -63 -20 -74 -75zM177.001 -0.000976562
c-38 0 -147.998 -2 -147.998 -2c-2.90039 2.2002 -4.2002 6.40039 -4.2002 11.2002c0 8.59961 4.2002 19 11.2002 22.7998c53 3 81 7 97 90l78 401c3.09961 16.0996 4.59961 29.1992 4.59961 39.8994c0 44.5996 -25.7002 47.6992 -67.6006 50.0996
c-2.90039 2.2002 -4.2002 6.40039 -4.2002 11.2002c0 8.59961 4.2002 19 11.2002 22.7998c0 0 110 -2 148 -2s78 1 129 1c201.8 0 293.899 -111.1 293.899 -258.899c0 -134.5 -65.2002 -254.8 -129.9 -305.1c-80 -62 -180 -84 -264 -84c-38 0 -117 2 -155 2z" />
    <glyph glyph-name="E" unicode="E" horiz-adv-x="578" 
d="M377 367c64 0 85 7 99 62c7 6 36 6 41 0c-7 -30 -11 -52 -18 -86s-10 -53 -16 -88c-7 -6 -36 -6 -41 0c6 45 -9 62 -75 62h-78l-44 -227c-5 -27 9 -48 30 -48h97c73 0 127 56 160 128c13 3 33 1 42 -5c-18 -51 -35 -117 -58 -167c0 0 -86 2 -132 2h-226s-102 -1 -149 -2
c-5 6 0 28 7 34c68 3 85 7 101 90l77 400c16 83 2 88 -65 91c-5 6 -1 28 6 34c48 -1 148 -2 148 -2h283c23 0 31 1 48 4c3 0 3 -1 3 -3c0 -8 -14 -104 -17 -145c-10 -5 -30 -7 -42 -5c-8 69 -20 107 -92 107h-82c-23 0 -44 -25 -49 -49l-36 -187h78z" />
    <glyph glyph-name="F" unicode="F" horiz-adv-x="518" 
d="M251 122c-16 -83 20 -87 72 -90c8 -6 4 -28 -7 -34c-38 1 -117 2 -155 2s-109 -1 -148 -2c-8 6 -4 28 7 34c53 3 81 7 97 90l77 400c16 83 2 88 -65 91c-5 6 -1 28 6 34c48 -1 148 -2 148 -2h288c23 0 31 1 48 4c3 0 3 -1 3 -3c0 -8 -15 -109 -18 -150
c-10 -5 -30 -7 -42 -5c-8 69 -20 112 -92 112h-86c-23 0 -44 -25 -49 -49l-40 -207h78c64 0 85 7 99 62c7 6 36 6 41 0c-7 -30 -11 -52 -18 -86s-10 -53 -16 -88c-7 -6 -36 -6 -41 0c6 45 -9 62 -75 62h-78z" />
    <glyph glyph-name="G" unicode="G" horiz-adv-x="723" 
d="M518 658c117 0 173 -35 231 -35c-7 -72 -10 -122 -10 -164l-44 -6c-8 86 -60 163 -199 163c-47 0 -109 -21 -159 -74c-48 -51 -81 -129 -98 -215c-26 -132 4 -295 175 -295c52 0 79 10 118 42l29 149c8 40 -17 44 -69 48c-5 6 0 31 7 37c45 -1 110 -2 147 -2
c38 0 86 1 115 2c5 -6 0 -31 -7 -37c-28 -3 -47 -13 -54 -48l-22 -117c-2 -11 0 -19 9 -28c-75 -54 -191 -88 -304 -88c-93 0 -181 22 -234 76c-58 58 -77 151 -59 241c21 108 85 198 165 258c82 62 179 93 263 93z" />
    <glyph glyph-name="H" unicode="H" horiz-adv-x="735" 
d="M595 523c16 83 -11 87 -63 90c-8 6 -4 28 7 34c38 -1 110 -2 148 -2s107 1 146 2c8 -6 4 -28 -7 -34c-53 -3 -81 -7 -97 -90l-78 -401c-16 -83 10 -87 62 -90c8 -6 5 -28 -6 -34c-38 1 -108 2 -146 2s-109 -1 -148 -2c-8 6 -4 28 7 34c53 3 81 7 97 90l38.2998 197h-250
l-38.2998 -197c-16 -83 10 -87 62 -90c8 -6 5 -28 -6 -34c-38 1 -108 2 -146 2s-109 -1 -148 -2c-8 6 -4 28 7 34c53 3 81 7 97 90l78 401c16 83 -11 87 -63 90c-8 6 -4 28 7 34c38 -1 110 -2 148 -2s107 1 146 2c8 -6 4 -28 -7 -34c-53 -3 -81 -7 -97 -90l-30.2998 -156
h250z" />
    <glyph glyph-name="I" unicode="I" horiz-adv-x="351" 
d="M211 523c16 83 -11 87 -63 90c-8 6 -4 28 7 34c38 -1 110 -2 148 -2s107 1 146 2c8 -6 4 -28 -7 -34c-53 -3 -81 -7 -97 -90l-78 -401c-16 -83 10 -87 62 -90c8 -6 5 -28 -6 -34c-38 1 -108 2 -146 2s-109 -1 -148 -2c-8 6 -4 28 7 34c53 3 81 7 97 90z" />
    <glyph glyph-name="J" unicode="J" horiz-adv-x="359" 
d="M373 522l-82 -419c-28 -143 -94 -195 -143 -232c-46 -35 -99 -58 -156 -58c-28 0 -89 24 -80 71c6 29 49 56 66 56c38 0 38 -28 47 -45c7 -13 23 -23 40 -23c41 0 53 29 88 209l85 441c16 83 1 88 -75 91c-5 6 -1 28 6 34c48 -1 97 -2 159 -2c56 0 96 1 143 2
c5 -6 0 -28 -7 -34c-58 -3 -75 -8 -91 -91z" />
    <glyph glyph-name="K" unicode="K" horiz-adv-x="706" 
d="M211 523c16 83 -11 87 -63 90c-8 6 -4 28 7 34c38 -1 110 -2 148 -2s107 1 146 2c8 -6 4 -28 -7 -34c-53 -3 -81 -7 -97 -90l-33.2002 -170.8c31.5 5 59.5 24.2998 127.2 77.7998c0 0 85 63 121 95c58 51 67 82 12 88c-5 6 0 28 7 34c45 -1 80 -2 118 -2s46 1 91 2
c5 -6 1 -28 -6 -34c-74 -9 -119 -54 -189 -109l-123 -97c-18 -14 -16 -22 -17 -29c-2 -8 7 -25 20 -45l160 -259c19 -30 38 -38 66 -42c5 -6 1 -28 -6 -34c-45 1 -69 2 -106 2c-29 0 -87 -1 -106 -2c-4 0 -4 3 -4 6c1 16 -7 44 -21 70l-107 197
c-13.0996 23.5 -20.7998 34.9004 -45.7002 37.4004l-36.2998 -186.4c-16 -83 10 -87 62 -90c8 -6 5 -28 -6 -34c-38 1 -108 2 -146 2s-109 -1 -148 -2c-8 6 -4 28 7 34c53 3 81 7 97 90z" />
    <glyph glyph-name="L" unicode="L" horiz-adv-x="552" 
d="M343 42c101 0 147 56 180 128c12 2 32 0 40 -5c-16 -52 -38 -117 -57 -167c0 0 -87 2 -115 2h-214c-37 0 -148 -2 -148 -2c-8 6 -4 28 7 34c53 3 81 7 97 90l78 401c16 83 -11 87 -63 90c-8 6 -4 28 7 34c0 0 110 -2 148 -2s67 1 146 2c8 -6 4 -28 -7 -34
c-53 -3 -81 -7 -97 -90l-78 -402c-12 -60 -2 -79 18 -79h58z" />
    <glyph glyph-name="M" unicode="M" horiz-adv-x="862" 
d="M659 116l56 418h-2l-319 -529c-5 -9 -14 -13 -20 -13s-16 6 -17 13l-93 493h-4l-98 -375c-16 -56 -16 -86 46 -91c5 -6 0 -28 -7 -34c-29 1 -86 2 -109 2s-54 -1 -83 -2c-5 6 0 28 7 34c56 5 72 29 89 89l118 412c21 75 16 76 -49 80c-5 6 -1 28 6 34l197 -2l85 -444h5
l269 444l193 2c5 -6 1 -28 -6 -34c-66 -4 -74 -17 -80 -71l-53 -421c-11 -83 -9 -86 56 -89c5 -6 1 -28 -6 -34c-32 1 -76 2 -105 2s-115 -1 -160 -2c-5 6 -1 28 6 34c63 3 67 3 78 84z" />
    <glyph glyph-name="N" unicode="N" horiz-adv-x="709" 
d="M614 0c-19 -9 -37 -12 -71 -12c0 0 -16 19 -30 44l-245 398c-8 13 -14 20 -18 20c-6 0 -10 -10 -12 -20l-58 -297c-18 -91 -2 -94 64 -101c5 -6 0 -28 -7 -34c-48 1 -70 2 -115 2c-42 0 -61 -1 -108 -2c-5 6 -1 28 6 34c69 7 87 12 104 101l81 417c-1 26 -23 60 -64 63
c-5 6 0 28 7 34l164 -2l66 -105l193 -312c10 -16 22 -23 27 3l54 281c18 91 2 94 -64 101c-5 6 0 28 7 34c48 -1 71 -2 116 -2c42 0 61 1 108 2c5 -6 0 -28 -7 -34c-69 -7 -86 -12 -103 -101l-80 -410c-6 -31 -15 -102 -15 -102z" />
    <glyph glyph-name="O" unicode="O" horiz-adv-x="699" 
d="M456 616c-53.2002 0 -107.199 -32.5 -149.899 -106.8c-34.0996 -59.2998 -73 -178 -73 -283.1c0 -124.3 56.0996 -194.1 140.899 -194.1c119.9 0 218 184 218 390.6c0 127.8 -54.5996 193.399 -136 193.399zM347.001 -10c-143.3 0 -258.8 93.6006 -258.8 250.7
c0 129.6 58.2998 232.8 130.8 305.3c69 69 161 112 257 112c152.9 0 260.601 -98.0996 260.601 -254.399c0 -228.2 -166.9 -413.601 -389.601 -413.601z" />
    <glyph glyph-name="P" unicode="P" horiz-adv-x="588" 
d="M459 654c72 0 123 -11 154 -33c52 -37 55 -97 47 -137c-10 -53 -39 -118 -95 -159c-45 -33 -107 -48 -192 -48c-23 0 -20 1 -33 3c-12 9 -15 23 -11 42c13 -2 33 -3 47 -3c79 0 116 44 136 148c24 122 -36 146 -92 146c-51 0 -62 -21 -75 -89l-78 -402
c-16 -83 10 -87 62 -90c8 -6 5 -28 -6 -34c-38 1 -108 2 -146 2s-109 -1 -148 -2c-8 6 -4 28 7 34c53 3 81 7 97 90l78 401c16 83 -11 87 -63 90c-8 6 -4 28 7 34c38 0 266 7 304 7z" />
    <glyph glyph-name="Q" unicode="Q" horiz-adv-x="699" 
d="M456 616c-53.2002 0 -107.199 -32.5 -149.899 -106.8c-34.0996 -59.2998 -73 -178 -73 -283.1c0 -124.3 56.0996 -194.1 140.899 -194.1c119.9 0 218 184 218 390.6c0 127.8 -54.5996 193.399 -136 193.399zM126.601 -128.8
c43.4004 43.4004 106.397 90.9004 171.397 122.601c-119.7 19 -209.8 108.1 -209.8 246.899c0 129.6 58.2998 232.8 130.8 305.3c69 69 161 112 257 112c152.9 0 260.601 -98.0996 260.601 -254.399c0 -215.8 -149.3 -393.399 -353.899 -411.999
c-27.2002 -9.2998 -64.1006 -26.5 -104.2 -51.7998c1.90039 0.0996094 3.80078 0.199219 5.50098 0.199219c106 0 156 -92 240 -92c28 0 65 10 91 37l12 -22c-48 -56 -96 -92 -156 -92c-125 0 -165 105 -254 105c-7.5 0 -22.5996 -3.7998 -39.2998 -14.5
c-14.5996 -13.7998 -28.8994 -28.5996 -42.6992 -44.5l-31 30c6.2998 8.5 14 16.5996 22.5996 24.1992z" />
    <glyph glyph-name="R" unicode="R" horiz-adv-x="686" 
d="M522.1 511.6c0 80.9004 -54.3008 101.399 -102.101 101.399c-51 0 -62 -21 -75 -89l-38 -199h41c89.9004 0 174.101 41.2002 174.101 186.601zM458.999 653.999c127.3 0 204.301 -38.8965 204.301 -143.496c0 -119 -91.7998 -179.9 -149.3 -202.5l90 -210
c19 -42 37 -66 80 -66c0.400391 -1.7002 0.600586 -3.90039 0.600586 -6.40039c0 -9.2002 -2.7002 -22.1006 -6.60059 -27.6006c-11 -5 -61 -8 -100 -8c-58 0 -88 44 -109 89l-79 174c-9 23 -16 30 -92 30l-31 -161c-3.2002 -16.4004 -4.7002 -29.8008 -4.7002 -40.6006
c0 -43.9004 25 -47 66.7002 -49.4004c3.09961 -2.2998 4.5 -7 4.5 -12.2002c0 -8.40039 -3.7002 -18.1006 -10.5 -21.8008c-38 1 -108 2 -146 2s-109 -1 -148 -2c-2.90039 2.2002 -4.2002 6.40039 -4.2002 11.2002c0 8.59961 4.2002 19 11.2002 22.7998c53 3 81 7 97 90
l78 401c3.09961 16.0996 4.59961 29.1992 4.59961 39.8994c0 44.5996 -25.7002 47.6992 -67.6006 50.0996c-2.90039 2.2002 -4.2002 6.40039 -4.2002 11.2002c0 8.59961 4.2002 19 11.2002 22.7998c38 0 266 7 304 7z" />
    <glyph glyph-name="S" unicode="S" horiz-adv-x="482" 
d="M526 631c-5 -58 -8.99902 -99.001 -18.999 -152.001c-7.2002 -5.40039 -18.7002 -7.60059 -29.6006 -7.60059c-7.2002 0 -14.2002 1 -19.4004 2.59961c-4 66 -16 143 -98 143c-48.7002 0 -100.4 -39.7998 -100.4 -104.1c0 -51.2998 52.2002 -96.5996 83.4004 -114.899
c55.2002 -32.5 140 -100.7 140 -193.4c0 -80.2998 -47.5996 -128.1 -92 -163.6c-47 -37 -100 -51 -159 -51c-133 0 -131 20 -186 20c-0.799805 10.2998 -1.39941 21.7998 -1.39941 34.7002c0 33.5 3.59961 76.2002 14.3994 130.3
c10.7002 2.7002 22.2002 5.7998 33.2002 5.7998c5.5 0 10.7998 -0.799805 15.7998 -2.7998c2 -91 57 -146 121 -146c64.5996 0 118.1 39.5996 118.1 103.6c0 61.5 -44.2998 95.4004 -101.3 134.301c-69.5996 47.5 -117.3 97.2998 -117.3 175.7
c0 82.5996 38.5996 134 86.5 167.9c39.0996 27.7002 101 44.5 154 44.5c89 0 106 -19 157 -27z" />
    <glyph glyph-name="T" unicode="T" horiz-adv-x="625" 
d="M413 123c-16 -83 -1 -88 75 -91c5 -6 0 -28 -7 -34c-48 1 -98 2 -161 2c-61 0 -112 -1 -159 -2c-5 6 -1 28 6 34c77 3 95 8 111 91l75 383c12 61 10 99 -26 99h-47c-63 0 -108 -26 -143 -106c-12 0 -27 1 -36 5c20 48 39 101 52 146c0 1 3 3 5 3c36 -3 148 -8 222 -8h135
c76 0 184 5 217 8c1 0 2 -2 2 -3c-8 -45 -13 -97 -15 -143c-9 -4 -28 -5 -39 -5c-1 77 -36 103 -108 103h-22c-35 0 -51 -38 -63 -102z" />
    <glyph glyph-name="U" unicode="U" horiz-adv-x="702" 
d="M319 522l-49 -253c-13 -65 -25 -140 13 -187c23 -29 58 -50 104 -50c162 0 202 133 224 245l48 245c16 83 0 84 -71 91c-5 6 0 28 7 34c48 -1 74 -2 122 -2c40 0 56 1 103 2c5 -6 0 -28 -7 -34c-59 -7 -75 -8 -91 -91l-45 -227c-35 -178 -121 -305 -318 -305
c-46 0 -134 1 -186 42c-47 37 -63 107 -44 204l56 286c16 83 1 88 -56 91c-5 6 -1 28 6 34c48 -1 85 -2 140 -2c61 0 110 1 157 2c5 -6 0 -28 -7 -34c-75 -3 -90 -8 -106 -91z" />
    <glyph glyph-name="V" unicode="V" horiz-adv-x="671" 
d="M676 543c35 60 66 67 109 70c7 6 12 28 7 34c-36 -1 -54 -2 -91 -2c-39 0 -92 1 -127 2c-7 -6 -12 -28 -7 -34c36 -3 79 -9 58 -47l-202 -356l-24 -39l-6 45l-49 357c-5 33 31 37 78 40c7 6 12 28 7 34c-36 -1 -132 -2 -169 -2c-39 0 -94 1 -129 2c-7 -6 -11 -28 -6 -34
c37 -4 67 -7 76 -54l103 -548c3 -15 16 -23 27 -23c10 0 28 7 37 23z" />
    <glyph glyph-name="W" unicode="W" horiz-adv-x="986" 
d="M671 613l57 -397l6 -42l19 36l183 356c19 38 -22 44 -58 47c-5 6 0 28 7 34c35 -1 88 -2 127 -2c37 0 55 1 91 2c5 -6 0 -28 -7 -34c-43 -3 -77 -11 -109 -70l-289 -532c-10 -18 -27 -23 -37 -23c-11 0 -25 12 -27 23l-70 399l-212 -399c-10 -19 -27 -23 -37 -23
c-11 0 -25 8 -27 23l-83 548c-7 46 -39 50 -76 54c-5 6 -1 28 6 34c35 -1 90 -2 129 -2c37 0 133 1 169 2c5 -6 0 -28 -7 -34c-47 -3 -83 -9 -79 -40l45 -357l3 -32l12 26l206 403s29 -6 58 0z" />
    <glyph glyph-name="X" unicode="X" horiz-adv-x="689" 
d="M434 89l-58 157c-9 23 -14 25 -26 12c-52 -58 -97 -117 -143 -176c-20 -30 -9 -46 33 -49c5 -6 0 -28 -7 -34c-38 1 -95 2 -117 2s-78 -1 -107 -2c-5 6 0 28 7 34c44 4 79 12 113 48l198 210c20 21 21 25 7 53l-99 203c-26 53 -42 63 -82 66c-5 6 -2 28 5 34
c29 -1 112 -2 149 -2c38 0 102 1 141 2c5 -6 1 -28 -6 -34c-54 -3 -59 -19 -45 -56l49 -128c7 -19 12 -27 25 -14c49 48 90 101 125 149c20 30 10 46 -32 49c-5 6 -1 28 6 34c38 -1 89 -2 111 -2s69 1 98 2c5 -6 1 -28 -6 -34c-44 -4 -75 -12 -108 -48l-164 -176
c-20 -22 -23 -29 -8 -62l104 -228c25 -54 48 -63 88 -66c5 -6 1 -28 -6 -34c-29 1 -99 2 -136 2c-38 0 -111 -1 -150 -2c-5 6 0 28 7 34c54 3 51 21 34 56z" />
    <glyph glyph-name="Y" unicode="Y" horiz-adv-x="606" 
d="M411 122c-16 -83 0 -88 76 -91c5 -6 0 -27 -7 -33c-48 1 -92 2 -152 2c-65 0 -121 -1 -168 -2c-5 6 -1 27 6 33c77 3 95 8 111 91l26 137c7 37 6 44 -5 73l-80 215c-21 56 -37 63 -77 66c-5 6 -1 28 6 34c29 -1 98 -2 135 -2c38 0 81 1 120 2c5 -6 0 -28 -7 -34
c-54 -3 -57 -18 -44 -56l64 -184c6 -17 17 -16 26 -3l132 194c20 30 3 46 -39 49c-5 6 -1 28 6 34c38 -1 84 -2 106 -2s61 1 90 2c5 -6 0 -28 -7 -34c-44 -4 -63 -8 -92 -48l-165 -214c-17 -21 -24 -43 -32 -83z" />
    <glyph glyph-name="Z" unicode="Z" horiz-adv-x="598" 
d="M420 44c63 0 119 53 154 133c12 0 28 -1 37 -5c-18 -60 -47 -147 -60 -177c0 -1 -3 -3 -5 -3c-36 3 -148 8 -222 8h-287c-13 0 -17 5 -15 15c1 7 5 15 12 23l464 541c9 10 20 23 3 23h-184c-63 0 -112 -46 -147 -126c-12 0 -28 1 -37 5c20 48 45 124 58 169c0 1 3 3 5 3
c36 -3 148 -8 222 -8h193c27 0 51 2 63 2c13 0 16 -4 15 -10c-2 -11 -5 -17 -30 -46l-441 -519c-16 -19 -20 -28 10 -28h192z" />
    <glyph glyph-name="bracketleft" unicode="[" horiz-adv-x="397" 
d="M31.7998 -193l190.398 896h239c4.7002 -6 6.90039 -24 -0.399414 -30c-139.1 -10 -160.3 -25 -178.8 -112l-129.8 -611c-18.5 -87 -4.7002 -102 131 -113c4.7002 -6 0.900391 -24 -6.39941 -30h-245z" />
    <glyph glyph-name="backslash" unicode="\" horiz-adv-x="307" 
d="M188.4 698l125.2 -746h-65l-125.2 746h65z" />
    <glyph glyph-name="bracketright" unicode="]" horiz-adv-x="397" 
d="M473.2 703l-190.398 -896h-239c-4.7002 6 -6.90039 24 0.399414 30c139.1 10 160.3 25 178.8 112l129.8 611c18.5 87 4.7002 102 -131 113c-4.7002 6 -0.900391 24 6.39941 30h245z" />
    <glyph glyph-name="asciicircum" unicode="^" horiz-adv-x="518" 
d="M327.8 569l-134.101 -223h-53.5l186.7 304h39.5l51.0996 -304h-53.5996z" />
    <glyph glyph-name="underscore" unicode="_" horiz-adv-x="486" 
d="M463 -110l-8 -44h-477l7 44h478z" />
    <glyph glyph-name="grave" unicode="`" horiz-adv-x="392" 
d="M301 698l48 -125c2 -6 3 -11 3 -15c0 -3 0 -6 -1 -9c-1 -5 -9 -11 -16 -11s-13 5 -26 20l-95 109l4 10c11 6 33 24 69 24c5 0 11 -1 14 -3z" />
    <glyph glyph-name="a" unicode="a" horiz-adv-x="558" 
d="M508 436c13.2998 0 20.499 -7.40039 20.499 -21.1006c0 -17.0996 -11.7002 -55.3994 -20.2002 -94.6992l-42.2998 -196.2c-3.2002 -13.7002 -6.7998 -30.2002 -6.7998 -42.6006c0 -10.7998 2.7998 -18.3994 10.7998 -18.3994c10 0 44 17 70 47c14 0 26 -19 29 -28
c-46 -59 -108.5 -92 -178 -92c-30 0 -42.5 12.5 -50 33c-2.2998 6.2998 -3.2998 14.5 -3.2998 23.9004c0 17.5 3.40039 39.0996 8.30078 59.7998l5 18.2998l-4 2c-60 -89 -122.5 -137 -165 -137c-73 0 -106.9 59.0996 -106.9 127.5
c0 74.9004 28.4004 141.101 73.4004 198.101c55.2998 70.2002 135.5 123.4 219.5 123.4c40 0 38 -3 65 -6c4.7998 -1.2002 10.0996 -1.60059 15.8994 -1.60059c18.4004 0 40.8008 4.59961 59.1006 4.59961zM364.499 226c25 64 32.5 152 32.5 152
c-1.90039 12.5 -13 19 -34 19c-43.4004 0 -82.8008 -34.4004 -112.001 -82.5c-31.2998 -51.5996 -50.7998 -118.899 -50.7998 -176.1c0 -30.9004 12.9004 -53.9004 43.9004 -53.9004c32 0 71.4004 51.5 120.4 141.5z" />
    <glyph glyph-name="b" unicode="b" horiz-adv-x="521" 
d="M266.4 277.6l-33.3984 -150.601c-15.2002 -68.5 -8.10059 -95 27.999 -95c76.2998 0 161 124 161 269c0 18 -3 51 -33 51c-47.5 0 -76.4004 -20.5996 -122.601 -74.3994zM279.202 335.599l1.7998 -0.599609c35 41 99 104 168 104c88.5 0 101.5 -70.5 101.5 -111.5
c0 -102.1 -41.7002 -179.6 -124 -254c-78 -70.5 -157 -83.5 -216.5 -83.5c-90 0 -115.4 64.5 -101 128l101 445c15.7002 69.0996 0 75 -62 75c-3 9 -1 22 5 34c43 7 135 26 166 26c23 0 30 -12 30 -33c0 -20 -7.7002 -49.0996 -15 -82z" />
    <glyph glyph-name="c" unicode="c" horiz-adv-x="434" 
d="M421 87c-47 -55 -125 -97 -186 -97c-66 0 -105 15 -134 52c-28 36 -37 94 -23 159c31 148 157 243 267 243c101 0 140 -50 129 -104c-7 -31 -33 -56 -63 -56s-50 20 -47 47c4 32 -2 71 -36 71c-49 0 -94 -55 -118 -166c-23 -108 18 -170 79 -170c34 0 66 15 111 52
c9 0 21 -22 21 -31z" />
    <glyph glyph-name="d" unicode="d" horiz-adv-x="561" 
d="M445 563c16 69 0 74.999 -62 74.999c-3 9 -1 22 5 34c43 7 135 26 166 26c23 0 30 -12 30 -33c0 -20 -8 -49 -15 -82l-101 -456c-3.09961 -13.7998 -6.59961 -30.3994 -6.59961 -42.7998c0 -10.7002 2.59961 -18.2002 10.5996 -18.2002c10 0 44 17 70 47
c14 0 26 -19 29 -28c-50 -55 -116.5 -95 -186 -95c-35.9004 0 -50.7002 22.7002 -50.7002 57.1006c0 20.2998 4.5 47.5996 9.5 70l-1.7998 0.900391c-60 -88 -107 -128 -164 -128c-88 0 -120 61 -120 134c0 89.0996 44 197 130 265c45.0996 35.5996 84 50 137 50
c38 0 67 -25 79 -55h0.400391zM382.5 281.799c1.7002 6.5 3 12.3994 3.90039 17.7998zM377.2 264.098l10.6006 47c0.0996094 1.7002 0.199219 3.40039 0.199219 4.90039c0 35 -22 77 -60 77c-86 0 -149 -137 -149 -243c0 -56 12 -94 41 -94c39 0 77 48 126 138
c14 25.5996 24.2998 49.5996 31.2002 70.0996z" />
    <glyph glyph-name="e" unicode="e" horiz-adv-x="409" 
d="M343 370c0 20 -11 28 -32 28c-39 0 -76.7002 -20 -111 -160.7c53 8.7002 143 42.7002 143 132.7zM193 199c-1 -8 -0.999023 -29 -0.999023 -34c0 -67 14 -115 53 -115c48 0 79 16 136 74c12 0 27 -14 32 -25c-59 -76 -137 -109 -204 -109c-120 0 -146 67 -146 152
c0 127 77 297 271 297c81 0 122 -35 122 -70c0 -17.7998 -0.5 -51.7998 -31 -81c-34.4004 -33 -105.801 -61.9004 -232.001 -89z" />
    <glyph glyph-name="f" unicode="f" horiz-adv-x="397" 
d="M191 382l-81.999 -0.000976562c-3 0 -6 0 -6 2s3 22 4 25c2 8 9 16 28 17l66 3c21.5 106 53 170.5 90 211c36.2998 39.7002 90.5 58 146 58c85 0 154.8 -41.2002 154.8 -89.5c0 -21.5 -15 -53.7998 -51.9004 -53.7998c-40.7002 0 -50.7998 36.0996 -55.8994 62.7998
c-5.09961 24.2002 -18 38.5 -46 38.5c-58 0 -81.2998 -68.0996 -101 -170l-11 -57h110c5 0 7 -2 7 -5c0 -1 -5 -30 -5 -30c-2 -8 -17 -12 -26 -12h-93l-4 -23c-15.4004 -88.2998 -29 -151.1 -46.0996 -229c-38.9004 -178 -83.6006 -241.1 -118.101 -287.6
c-37.9004 -51.0996 -89.9004 -75.5996 -139.2 -75.5996c-81.5996 0 -113.8 38.5 -113.8 65.2002c0 20.4004 12.4004 46.2002 45.5 46.2002c22.9004 0 43.2002 -11.5996 58 -36c8.59961 -14.2002 19.6992 -26.7998 33.0996 -26.7998c18 0 41.5 16.2002 54.7998 37
c44.0996 68.9004 47.7998 191 60.7998 288.6c10 75 19 127.5 41 241z" />
    <glyph glyph-name="g" unicode="g" horiz-adv-x="497" 
d="M171 -13c-25 -18 -77 -52 -77 -100c0 -55 44 -87 156 -87c85 0 102 43 102 73c0 28 -4 37 -60 63c-33 15 -103 47 -121 51zM445 291c0 -99 -85.001 -159 -172.001 -159c-28 0 -52 7 -68 17c-9 -17 -9.09961 -41.9004 -3 -61c7 -22 53 -40 133 -64
c54 -16 122 -59 122 -124c0 -99 -111 -138 -248 -138c-81 0 -212 21 -212 102c0 60 92 105 145 134c-31 11 -36 41 -36 58c0 35 16 76 64 109c-38 23 -56 74 -56 118c0 80 64 156 176 156c44.2998 0 95 -11 117 -37c35 32 68.4004 43.7002 99.6006 43.7002
c27.5996 0 46.7998 -19.2002 46.7998 -40.7998c0 -22.7998 -15.5996 -39.5996 -37.1992 -39.5996c-19.4004 0 -27.6006 10.7998 -33.6006 20.3994c-3.59961 6 -7.19922 12 -17.999 12c-8.40039 0 -22.6006 -14.7002 -37.6006 -28.7002c14 -20 18 -51 18 -78zM330.999 291
c0 68 -2 108 -45 108c-66 0 -58 -45 -58 -117c0 -48 -11 -110 50 -110c60 0 53 57 53 119z" />
    <glyph glyph-name="h" unicode="h" horiz-adv-x="620" 
d="M225.9 72c-8.59961 -39 -7.89941 -82 -68.8994 -82c-56 0 -65.9004 10.5 -65.9004 27.2002c0 9.7998 7.40039 31.0996 12.7002 54.7998l110.2 491c15.5 69.0996 0 75 -62 75c-3 9 -1 22 5 34c43 7 135 26 166 26c23 0 30 -12 30 -33c0 -20 -8 -49 -15 -82
l-58.2002 -265.1c88.5 101.1 152.5 121.1 203.2 121.1c39 0 89 -20 89 -80c0 -18 -4.7002 -41.0996 -13 -76l-38 -159c-6.2998 -25.5996 -13.2998 -61 4 -61c10 0 44 17 70 47c14 0 26 -19 29 -28c-46 -59 -115.5 -92 -185 -92c-30 0 -41.5 12.5 -49 33
c-6.5 17.7998 -0.799805 60.2002 7 92l37 160c7.90039 34 9 44 9 58c0 31 -14 36 -35 36c-35.4004 0 -85.4004 -57.2002 -147.101 -137.2z" />
    <glyph glyph-name="i" unicode="i" horiz-adv-x="342" 
d="M199 596c0 30 23 62 70 62c42 0 65 -36 65 -66c0 -26 -26 -62 -71 -62c-40 0 -64 33 -64 66zM293.3 320.2l-42.2988 -196.2c-5.90039 -25.5996 -13.3008 -61 3.99902 -61c10 0 44 17 70 47c14 0 26 -19 29 -28c-46 -59 -115.5 -92 -185 -92c-30 0 -41.5 12.5 -49 33
c-6.5 17.7998 0 60 7 92l44 206c5.59961 26 6 31.9004 6 41c0 10 -6 19.0996 -18 20l-40 3c-6 9 -4.7002 30 2 38c47 6 140 13 172 13c13.2002 0 20.5 -7.40039 20.5 -21.1006c0 -17.0996 -11.7002 -55.3994 -20.2002 -94.6992z" />
    <glyph glyph-name="j" unicode="j" horiz-adv-x="330" 
d="M141 176l30 145c5.90039 28.4004 6 31.9004 6 41c0 10 -6 19.0996 -18 20l-40 3c-6 9 -4.7002 30 2 38c47 6 140 13 172 13c13.2002 0 20.5 -7.40039 20.5 -21.1006c0 -17.0996 -12.2998 -54.5996 -20.2002 -94.6992l-16.7998 -85.2002
c-51.5 -243.1 -92.5 -441.8 -261.3 -441.8c-59.4004 0 -110.7 16.2002 -110.7 62.6006c0 30.5996 21.4004 45 39.2002 45c66.5996 0 53.0996 -72.4004 89.7998 -72.4004c24.2998 0 40.5 29.5996 62.5 115.6c18.2998 71.5 24.7002 134 45 232zM204 596c0 30 23 62 70 62
c42 0 65 -36 65 -66c0 -26 -26 -62 -71 -62c-40 0 -64 33 -64 66z" />
    <glyph glyph-name="k" unicode="k" horiz-adv-x="560" 
d="M220.9 72c-8.59961 -39 -7.90039 -81.998 -68.9004 -81.998c-56 0 -65.9004 10.5 -65.9004 27.2002c0 9.7998 7.40039 31.0996 12.7002 54.7998l110.2 491c15.5 69.0996 0 75 -62 75c-3 9 -1 22 5 34c43 7 135 26 166 26c23 0 30 -12 30 -33c0 -20 -8 -49 -15 -82
l-68.0996 -310.3c18.2998 3.2998 36.2002 17.2002 51.1006 30l40 34.2998c72 64 143 102 175 102c44.4004 0 65 -32.7002 65 -58.9004c0 -33.7998 -21.5996 -70 -54 -70c-16.7998 0 -32.3994 16.2998 -40.7998 26.2998c-7.2002 8.7998 -13.2002 15 -25.2002 15
c-20 0 -43.9004 -7 -76 -35.4004l-52 -46l1 -4c33 -9 50.2998 -32.5996 66 -64c14 -28 23 -56 41 -112c7 -21.7998 13.4004 -38 32.5 -38c11 0 31.5 13 51.5 42c11 0 23 -9 30 -17c-30 -61.5 -86 -87 -137 -87c-41 0 -66 31 -98.5996 103
c-20.4004 45.2002 -25.4004 96 -43.4004 128c-5 9 -12 16.2998 -19.5996 16.2998c-4.90039 0 -9.60059 -0.200195 -14.501 -1.10059z" />
    <glyph glyph-name="l" unicode="l" horiz-adv-x="324" 
d="M208 563c16 69 0.000976562 75 -61.999 75c-3 9 -1 22 5 34c43 7 135 26 166 26c23 0 30 -12 30 -33c0 -20 -8 -49 -15 -82l-101 -456c-3.09961 -13.7998 -6.59961 -30.3994 -6.59961 -42.7998c0 -10.7002 2.59961 -18.2002 10.5996 -18.2002c10.0996 0 44 17 70 47
c14 0 26 -19 29 -28c-50 -55 -116.5 -95 -186 -95c-35.9004 0 -50.7002 22.7002 -50.7002 57.1006c0 20.5996 4.59961 48.2998 9.69922 70.8994z" />
    <glyph glyph-name="m" unicode="m" horiz-adv-x="884" 
d="M146 243c14.7002 65.7998 15 98.0986 15 108.999c0 11.7002 -3.59961 28.9004 -18 30l-40 3c-6 9 -4.7002 30 2 38c47 6 134 13 166 13c13.2002 0 23.5 -10.4004 23.5 -24.1006c0 -17.2998 -3.5 -58.5996 -12.5 -100.899l1 -1c92 108 138 129 190 129c39 0 89 -20 89 -80
c0 -5.59961 -0.5 -11.5996 -1.40039 -18.3994c73.5996 81.5 137.699 98.4004 184.399 98.4004c39 0 89 -20 89 -80c0 -18 -4.7002 -41.0996 -13 -76l-38 -159c-6.2998 -25.5996 -13.2998 -61 4 -61c10 0 44 17 70 47c14 0 26 -19 29 -28c-46 -59 -115.5 -92 -185 -92
c-30 0 -41.5 12.5 -49 33c-6.5 17.7998 -0.799805 60.2002 7 92l37 160c7.90039 34 9 44 9 58c0 31 -14.2998 36 -25 36c-40.7998 0 -84.2998 -45 -136.7 -111.1l-42.5 -185.9c-8.7002 -38 -7.7998 -82 -68.7998 -82c-56 0 -65.9004 10.5 -65.9004 27.2002
c0 9.7998 8.2002 34.7002 12.7002 54.7998l45.2002 203c7.59961 34.0996 9 49.2998 9 68c0 21.2998 -9 26 -20 26c-36 0 -82 -59 -145 -141l-38.0996 -156c-9.2998 -37.9004 -7.89941 -82 -68.8994 -82c-56 0 -65.9004 10.5 -65.9004 27.2002
c0 9.7998 8.2002 34.7002 12.7002 54.7998z" />
    <glyph glyph-name="n" unicode="n" horiz-adv-x="614" 
d="M140 243c14.7002 65.7998 15 98.0996 15 109c0 11.7002 -3.59961 28.9004 -18 30l-40 3c-6 9 -4.7002 30 2 38c47 6 134 13 166 13c13.2002 0 23.5 -10.4004 23.5 -24.1006c0 -17.2998 -3.5 -58.5996 -12.5 -100.899l2 -2c92 108 145.3 130 209 130c39 0 89 -20 89 -80
c0 -18 -4.7002 -41.0996 -13 -76l-38 -159c-6.2998 -25.5996 -13.2998 -61 4 -61c10 0 44 17 70 47c14 0 26 -19 29 -28c-46 -59 -115.5 -92 -185 -92c-30 0 -41.5 12.5 -49 33c-6.5 17.7998 -0.799805 60.2002 7 92l37 160c7.90039 34 9 44 9 58c0 31 -14 36 -35 36
c-36 0 -87 -59 -150 -141l-38.0996 -156c-9.5 -38.7998 -7.90039 -82 -68.9004 -82c-56 0 -65.9004 10.5 -65.9004 27.2002c0 9.7998 8.2998 34.8994 12.7002 54.7998z" />
    <glyph glyph-name="o" unicode="o" horiz-adv-x="479" 
d="M196 170c0 -111.9 30 -138 59 -138c104.2 0 116 145.4 116 228c0 58.0996 -3 137 -56 137c-101.1 0 -119 -127 -119 -227zM67 162c0 86.7998 55.6992 190.9 149.499 243c35.9004 20 77.3008 34 123.501 34c123 0 160 -86 160 -158c0 -135.1 -72.4004 -223.1 -159.5 -267
c-29.4004 -14.7998 -80 -24 -120.5 -24c-127 0 -153 108 -153 172z" />
    <glyph glyph-name="p" unicode="p" horiz-adv-x="549" 
d="M316 404c27 16 64 35 115 35c100 0 144 -66 144 -150c0 -68.9004 -44.9004 -178.5 -122 -244c-41.5 -35.2998 -95 -55 -150 -55c-36 0 -56 17 -71 33l-39 -174c-8 -34 18 -39 33 -41l19 -3c4 -1 6 -3 6 -8v-30l-2 -2s-68 2 -107 2c-36 0 -147 -5 -147 -5l-2 2v29
c0 6 5 7 10 8l19 3c32 5 46.9004 17 53 45l96 444c-28 -23 -50 -41 -72 -70c-18 0 -24.0996 21.7998 -28 36c28 35 65 65 115 101l12 49c9.2002 37.7002 51 82 89 82c32 0 42 -10 42 -27c0 -12 -9.40039 -42.0996 -13 -60zM447 273c0 49 -8 115 -50 115
c-38 0 -67 -18 -92 -34l-64 -279c21 -29 48 -43 74 -43c87 0 132 175 132 241z" />
    <glyph glyph-name="q" unicode="q" horiz-adv-x="531" 
d="M405 320c0 41 -25 73 -61 73c-102 0 -151 -116.5 -151 -265c0 -56 21.2002 -84 45 -84c37 0 109 71 132 136c19 56 35 124 35 140zM298 -161l66 260.001l-3 1c-62 -86 -111 -110 -160 -110c-94 0 -137 82 -137 157c0 100.4 53.9004 189.101 124 240.501
c50 36.7002 110.9 51.5 155 51.5c41 0 73 -21 96 -53l37.5 33.5c18.0996 16.2002 43.5 22.5 50.5 22.5c29.0996 0 24.5 -23.2998 16.5 -58l-126.5 -545c-7.90039 -33.9004 17.7998 -38.6006 33 -41.001l19 -3c4 -0.599609 6 -3 6 -8v-20l-2 -2s-111 2 -150 2
c-36 0 -105 -5 -105 -5l-2 2v19c0 6 5.09961 7.2002 10 8l19 3c32.2998 5.09961 46 17.1992 53 44.999z" />
    <glyph glyph-name="r" unicode="r" horiz-adv-x="426" 
d="M270 228l-38.0996 -156.001c-9.5 -38.7998 -7.90039 -82 -68.9004 -82c-56 0 -65.9004 10.5 -65.9004 27.2002c0 9.7998 8.40039 34.8994 12.7002 54.7998l37.2002 171c14.2998 65.9004 15 98.1006 15 109.001c0 11.7002 -3.59961 28.9004 -18 30l-40 3
c-6 9 -4.7002 30 2 38c47 6 134 13 166 13c13.2002 0 23.5 -10.4004 23.5 -24.1006c0 -17.5 -3.5 -58.5996 -12.5 -100.899l3 -2c44 93 100.6 129.9 145.6 129.9c44.4004 0 62.4004 -32.5996 62.4004 -58.7998c0 -33.7998 -21.5996 -70 -54 -70
c-16.7998 0 -32.3994 16.2998 -40.7998 26.2998c-7.2002 8.7998 -13.2002 15 -25.2002 15c-27.5996 0 -56 -36.4004 -104 -123.4z" />
    <glyph glyph-name="s" unicode="s" horiz-adv-x="417" 
d="M426 355c4 -32 -23 -51 -37 -55c-22 -6 -45 2 -53 22c-13 34 -23 75 -66 75c-28 0 -54 -20 -54 -44c0 -51 50 -77 76 -91c74 -39 113 -85 113 -132c0 -63.4004 -52 -140 -178 -140c-80 0 -162 29 -162 97c0 32 27 51 43 51c30 0 49 -23 64 -58c15 -34 45 -48 76 -48
c24 0 52 22 52 49c0 47 -22 76 -64 100c-66 38 -114 87 -114 130c0 106 106 128 175 128c62 0 124 -35 129 -84z" />
    <glyph glyph-name="t" unicode="t" horiz-adv-x="367" 
d="M118 118l61.001 264h-70c-3 0 -6 0 -6 2s4 22 5 25c2 8 9 16 28 17l53 3l13 50c9.90039 38.2002 9.2002 72.9004 44 82c30.5 8 96 20 96 3c0 -12 -16 -72.2002 -20 -90l-10 -45h99c11 -8 1 -42 -11 -47h-98l-60 -255
c-3.2002 -13.7998 -6.60059 -30.3994 -6.60059 -42.7998c0 -10.7002 2.59961 -18.2002 10.5996 -18.2002c10 0 44 17 70 47c14 0 26 -19 29 -28c-50 -55 -116.5 -95 -186 -95c-35.9004 0 -50.7002 22.7002 -50.7002 57.1006c0 20.5996 4.5 48.2998 9.7002 70.8994z" />
    <glyph glyph-name="u" unicode="u" horiz-adv-x="646" 
d="M431 106.7c0 0 -6.40039 -27 2.59961 15.2998l-1.90039 2c-92 -108 -147.1 -130 -199.1 -130c-39 0 -89 22 -89 82c0 18 -0.299805 39.0996 8 74l38 159c6.2998 25.5996 13.2998 61 -4 61c-10 0 -44 -17 -70 -47c-14 0 -26 19 -29 28c46 59 115.5 92 185 92
c30 0 41.5 -12.5 49 -33c6.5 -17.7998 0.799805 -60.2002 -7 -92l-37 -160c-9.59961 -41.2998 -5.2998 -82 31 -82c36 0 72 47 135 129l38.2002 156c9.5 38.7998 7.7998 82 68.7998 82c56 0 65.9004 -10.5 65.9004 -27.2002c0 -9.7998 -8.40039 -34.8994 -12.7002 -54.7998
l-51.7998 -237c-3 -13.7002 -6.7998 -30.2002 -6.7998 -42.6006c0 -10.7998 2.7998 -18.3994 10.7998 -18.3994c10 0 44 17 70 47c14 0 26 -19 29 -28c-46 -59 -108.5 -92 -178 -92c-30 0 -42.5 12.5 -50 33c-2.2998 6.2998 -3.2998 14.5 -3.2998 23.9004
c0 17.5 4.7002 38.7998 8.2998 59.7998z" />
    <glyph glyph-name="v" unicode="v" horiz-adv-x="507" 
d="M331.5 107.5l4 -2c64.0996 50 116 148.5 124 208.5c2.2998 17.5 -2.5 41.5 -20.5 68.5c-3.2998 4.90039 -5.5 15.5 -5.5 20.5c0 28.0996 27.9004 36 60.5 36c35.5 0 60.4004 -19 60.4004 -47.4004c0 -35.2002 -12.2002 -71.7998 -27.1006 -106.6
c-28.2002 -66.0996 -75.7002 -128.5 -97.7998 -156.5c-24.9004 -31.5996 -119.601 -140.5 -165.501 -140.5c-27 0 -35.2998 34.5 -40 70.2998l-31 237.7c-5.59961 43.2002 -11.6992 51 -17.999 51c-8.5 0 -38 -17.5 -63 -49c-17.5 3.5 -27.2998 13.7998 -32 27.5
c50 60 129 113.5 171 113.5c44.5 0 59.0996 -70.5996 64 -130z" />
    <glyph glyph-name="w" unicode="w" horiz-adv-x="729" 
d="M441.2 217.7l-3.00195 0.998047c-51.5996 -96.2002 -141.6 -231.9 -188.199 -230.7c-27 0 -36.7998 34.4004 -40 70.3008l-21 237.7c-4 45.4004 -11.7002 51 -18 51c-8.5 0 -38 -17.5 -63 -49c-17.5 3.5 -27.2998 13.7998 -32 27.5c50 60 129 113.5 171 113.5
c44.5 0 60.9004 -70.5 64 -130l9 -170.5l4 -2c30.4004 29 82.6006 111 126.001 209.5c28.5 12 49.5 16 67 16c19.4004 -48.5 48.4004 -181.5 61.5 -254.5l4 -2c56 45.5 91 148.5 99 208.5c2.2998 17.5 -2.5 41.5 -20.5 68.5c-3.2998 4.90039 -5.5 15.5 -5.5 20.5
c0 28.0996 27.9004 36 60.5 36c35.5 0 60.4004 -19 60.4004 -47.4004c0 -35.2002 -12.2002 -71.7998 -27.1006 -106.6c-28.2002 -66.0996 -63 -125.6 -84.7998 -156.5c-23.2002 -32.9004 -106.9 -140.5 -153.5 -140.5c-26.5 0 -33.2002 33.9004 -40 70.3008z" />
    <glyph glyph-name="x" unicode="x" horiz-adv-x="517" 
d="M196.5 333.5c-5 11.9004 -15.999 17 -28.999 17c-20.5 0 -43.5 -11 -55.5 -16.7002c-8 7.7002 -15.5996 27.7998 -17 38.7002c36 21 129 66.5 164 66.5c25 0 32 -15.9004 50.5 -67.5l26 -72.4004c8 11.5 24 33.5996 24 33.5996c40 58.5996 74.9004 104.8 139 104.8
c33.5996 0 69.2998 -15.5996 69.2998 -48c0 -30 -20 -58.7998 -46.2002 -58.7998c-14.7002 0 -35.7002 8.40039 -45.2002 14.4004c-8.40039 4.7998 -21 8.39941 -25.2002 8.39941s-15 -2.59961 -26.2002 -17.7998l-75.5 -102.2l62.5 -143.8c6.7998 -15.5996 14 -24 22 -24
c15 0 29.5 2.7998 53.5 26.7998l24.5 -25.2998c-60.7998 -67.2002 -106 -77 -148 -77.0996c-41.5 -0.0996094 -57.5 35.6006 -74 85.8008l-19 57.9004c-17.7998 -26.5 -40.5996 -57.5 -54.5 -73.2998c-54.2998 -61.5 -71 -70.9004 -119.3 -70.9004
c-32.5 0 -70.7002 19.0996 -70.7002 53.8994c0 28.7998 11.2002 49 48 49c37 0 60.2998 -27 75 -27c6.2998 0 16 7.5 30 26c24.2998 32.0996 54.5 69.5 74 104.5c-18 52.7998 -57 137.5 -57 137.5z" />
    <glyph glyph-name="y" unicode="y" horiz-adv-x="514" 
d="M191 338c-7.5 10.5 -11.501 12.502 -24.501 12.502c-20.5 0 -46.5 -12 -58.5 -17.7002c-8 7.7002 -15.5996 27.7998 -17 38.7002c36 21 132 67.5 167 67.5c25 0 38 -21 52 -74c25 -103 32 -185 38 -278l4 -1l81.5 136c28 46.7998 32.5 88 32.5 109.5
c0 21.7998 -27 43 -27 78c0 22 36 29.5 57 29.5c25 0 64.5 -11.5 64.5 -46.5c0 -48.5 -12.4004 -88.2998 -50.5 -150.5l-191 -312c-61.7998 -100.9 -149.399 -166.601 -209.199 -166.601c-19.5996 0 -69 11.5996 -69 58c0 43.5996 28.2002 70.5996 52.2002 70.5996
c9.2002 0 31.7998 -11.2002 39.7998 -19.9004c6.90039 -7.2002 31.7002 -24.1006 43.2002 -24.1006c16.0996 0 45 23 86 90c14 30 -36.7002 352 -71 400z" />
    <glyph glyph-name="z" unicode="z" horiz-adv-x="457" 
d="M457.6 450c14.5 -4.2998 28.6992 -16.2998 37.499 -28c-60.4004 -64.5 -230 -239.5 -293.5 -305.5c30.9004 8 54 0 74.2002 -6c27.9004 -8.2998 52.3008 -22 83.3008 -22c17 0 45 0 86.2998 63c16.9004 0.200195 27.2002 -13.7998 30.7998 -24
c-51.5996 -107 -121.699 -137.5 -176.699 -137.5c-34 0 -73.4004 9 -99.4004 21c-34.7002 16 -62.5 19 -72.5 19c-9.2002 -3 -23.2002 -12.5 -47.2002 -42c-19.7998 3 -37.5 9.5 -42 19.5c3.5 9 54.2998 63.5 78.5996 88.5c0 0 143.2 147 224.7 233
c-14.5 0 -23.0996 -2 -38.0996 -2c-30 0 -35.7002 14 -84.7002 14c-29 0 -81.5996 -29 -94 -56c-13.7002 -0.0996094 -24.7998 2.7002 -31.3994 11c20 58 93.5 143 139.5 143c52.5 0 107.6 -10.4004 155.699 -24c8.90039 -2.5 15.9004 -2.5 20.9004 -2.5
c8.2002 3 16.2998 4.5 48 37.5z" />
    <glyph glyph-name="braceleft" unicode="{" horiz-adv-x="307" 
d="M322.2 552l-27.7002 -166c-14.9004 -89 -60.5 -117.8 -127.8 -137l-0.900391 -4c57.7002 -28.2002 88.5 -67.7002 66.7998 -150l-39.2002 -149c-22.0996 -84 5.40039 -134 46.8008 -134c4.40039 -6 1.80078 -18 -5.09961 -24c-94.9004 0 -168.801 33 -136.501 163
l41.7998 170c14.7998 61 -1.5 101 -68.7002 110c-5.7998 8 -3.59961 23 6.80078 32c71 7 104.2 57 114.8 107l33.5 184c20.2998 113 119 153 203.6 153c4.40039 -6 1.80078 -18 -5.09961 -24c-38.0996 -11 -85.8994 -28.0996 -103.1 -131z" />
    <glyph glyph-name="bar" unicode="|" horiz-adv-x="220" 
d="M125.8 -233h-56.4004l130.8 931h56.4004z" />
    <glyph glyph-name="braceright" unicode="}" horiz-adv-x="307" 
d="M89.7998 -56l27.7002 166c14.9004 89 60.5 117.8 127.8 137l0.900391 4c-57.7002 28.2002 -88.5 67.7002 -66.7998 150l39.2002 149c22.0996 84 -5.40039 134 -46.8008 134c-4.40039 6 -1.80078 18 5.09961 24c94.9004 0 168.801 -33 136.501 -163l-41.7998 -170
c-14.7998 -61 1.5 -101 68.7002 -110c5.7998 -8 3.59961 -23 -6.80078 -32c-71 -7 -104.2 -57 -114.8 -107l-33.5 -184c-20.2998 -113 -119 -153 -203.6 -153c-4.40039 6 -1.80078 18 5.09961 24c38.0996 11 85.8994 28.0996 103.1 131z" />
    <glyph glyph-name="asciitilde" unicode="~" horiz-adv-x="449" 
d="M63 209c24 65 90 143 150 143c46 0 91 -65 136 -65c28 0 70 2 101 52c11.2998 1.7002 18.7002 0.299805 26 -6c-50 -107 -117 -135 -141 -135c-53 0 -86 65 -138 65c-35 0 -81 -13 -112 -57c-9 -3.7002 -17.7002 -1.7002 -22 3z" />
    <glyph glyph-name="uni00A0" unicode="&#xa0;" horiz-adv-x="250" 
 />
    <glyph glyph-name="exclamdown" unicode="&#xa1;" horiz-adv-x="266" 
d="M89.2998 -224c-34.7998 0 -62.5 24.001 -51.7002 75.001c7.40039 35 23 73 35.7002 106c36.0996 97.9004 69.2998 198 80.7002 247c4.40039 19 13.5 42 35.2002 42c24.5 0 23 -20 16.7002 -54c-9 -47.7002 -21.2998 -167.601 -24.2002 -238.001
c-0.900391 -35 -0.400391 -64 -8.7002 -103c-11.9004 -56 -54.6006 -75 -83.7002 -75zM284 376.001c0 -39 -34 -71 -74 -71s-72 30 -72 69c0 38 34 70 74 70s72 -30 72 -68z" />
    <glyph glyph-name="cent" unicode="&#xa2;" horiz-adv-x="540" 
d="M377.8 584h31.9004l-14.7002 -69.2998c92.5996 -4.7998 127.1 -60.7002 118 -103.7c-6.59961 -31 -33.5 -56 -63.5996 -56s-51.1992 20 -48.2988 47c3 24.2998 0.400391 52.7002 -16.2998 64.9004l-70.2002 -330.4c9.40039 -3 19.5 -4.5 30.0996 -4.5
c27.2998 0 63.3994 20 108.899 57c10.2998 0 8.09961 -19 5.59961 -31c-42.7002 -49.5996 -106.9 -88.5996 -160.4 -95.7998l-15.7998 -74.2002h-31.9004l15.5996 73.2998c-58.2002 2.2002 -93.7998 17.6006 -120.6 51.7002c-28.7002 36.5 -38.2002 94.4004 -24.5 159
c29.7002 139.6 136.2 232 241.3 242.1zM285.9 151.8l68.1006 320.4c-44.9004 -7.2998 -80.9004 -62.0996 -102.801 -165.199c-15.5996 -73.4004 0.600586 -127.801 34.7002 -155.201z" />
    <glyph glyph-name="sterling" unicode="&#xa3;" horiz-adv-x="540" 
d="M143.9 292c-21.5996 0 -25.499 4.00098 -23.999 11.001l3.40039 16c2.09961 10 14.5996 20 48.3994 20h29.2002l5.09961 24c20.4004 96 65.5 149 122.7 197c46.4004 37 102.601 54 153.4 54c21.5996 0 87.2998 -5 77.2998 -52c-7.2002 -34 -33.7002 -57 -65.7002 -57
c-16.9004 0 -29.4004 12 -39.6006 26c-11.4004 17 -4.90039 43 -25.6006 43c-44.2002 0 -70.7998 -72 -89.5 -160l-15.9004 -75h84.5996c17.9004 0 28.1006 -5 26.8008 -11l-3.40039 -16c-3 -14 -30.5996 -20 -49.3994 -20h-68.7998
c-26.2998 -106.6 -82.2998 -160.6 -123.3 -191c105.5 -0.700195 103.8 -45 151.399 -45c28.2002 0 73 21 104.9 56l19.4004 -15c-28.9004 -52 -85.4004 -110 -155.9 -110c-72.4004 0 -115.601 62 -157.001 62c-32.9004 0 -38.7002 -14 -41.5 -27
c-6.2002 -29 -34.2002 -42 -52.1006 -42c-15 0 -29 14 -26.2002 27c5.90039 27.7998 32.8008 52.8994 63.7012 68.999c24.2998 16.7998 59.5 50.7998 92.9004 208l1.7002 8h-47z" />
    <glyph glyph-name="currency" unicode="&#xa4;" horiz-adv-x="463" 
d="M173.9 300c-14.9004 -70 20.7998 -123 82.8994 -123c63 0 120.5 54 135 122c15.2998 72 -26.4004 123 -81 123c-61.0996 0 -122.199 -53 -136.899 -122zM245.101 122c-35.7002 0 -64.6992 9 -88.5996 25c-17 -18 -42.2998 -44 -55.5996 -58l-44.7998 59l59 43
c-18.9004 35 -25.6006 70 -17.501 108c8.2998 39 30 75 64.7002 110c-12.5 12 -28.7998 28 -40.0996 41l63.7998 57l35.2998 -55c31.5996 16 64.5 25 101.2 25c37.5996 0 63.5996 -10 87.5 -26c19.0996 19 47.5996 47 60.8994 61l41.5996 -61l-61.2998 -45
c19.0996 -34 24.8994 -69 16.7998 -107c-7.7002 -36 -29.2002 -71 -61.1006 -106c12.2998 -13 28.2002 -31 39.5 -44l-63.0996 -58l-35.5996 58c-31.7998 -17 -65.8994 -27 -102.6 -27z" />
    <glyph glyph-name="yen" unicode="&#xa5;" horiz-adv-x="540" 
d="M492.5 177l-8.89941 -42h-121.2c-0.900391 -4.2998 -1.90039 -8.7002 -2.80078 -13c-17.5996 -83 -2.59961 -87 72 -90c4.40039 -6 -0.299805 -28 -7.2002 -34c-46.7998 1 -87.7998 2 -144.3 2c-62.2998 0 -113.899 -1 -160.199 -2c-4.40039 6 0.299805 28 7.2002 34
c75.7998 3 92.7002 7 110.3 90l2.7998 13h-113.8l8.90039 42h113.8l14.4004 68h-113.7l8.90039 42h111.3c-0.5 10.4004 -3.7002 22.2002 -10.5 45l-48.0996 160c-13.7002 50.7002 -33.1006 73 -71.9004 76c-4.40039 6 -0.600586 28 6.2998 34c28 -1 91.5996 -2 128.3 -2
c37.5996 0 74.5 1 112.3 2c4.40039 -6 -0.299805 -28 -7.2002 -34c-53.2998 -3 -56.7998 -12.7998 -51.0996 -37l37.2998 -158c5.7998 -24.5 13.7002 -25.7002 27.7002 -3l99.5 161c17.2002 28.9004 1.90039 34 -39.1992 37c-4.40039 6 0.399414 28 7.2998 34
c37.4004 -1 72.9004 -2 94.5 -2s50 1 78.4004 2c4.40039 -6 -0.299805 -28 -7.2002 -34c-42.9004 -4.2998 -68.5 -18.7002 -93.9004 -58l-107.3 -159c-19.2002 -28.4004 -24.5 -39.4004 -30.4004 -64h121.1l-8.90039 -42h-121.3l-14.4004 -68h121.2z" />
    <glyph glyph-name="brokenbar" unicode="&#xa6;" horiz-adv-x="220" 
d="M284.2 674l-77 -362h-56.4004l77 362h56.4004zM175.2 161l-77 -362h-56.4004l77 362h56.4004z" />
    <glyph glyph-name="section" unicode="&#xa7;" horiz-adv-x="466" 
d="M394 -26c-14.7002 -69 -76.501 -143.001 -205.301 -143.001c-68.5996 0 -151.3 44 -132.6 132c5.5 26 39.5 49 60.2002 49c39.5 0 51.5996 -40 49.2998 -51c-5.5 -26 -22.2002 -34 -25.2002 -48c-1.5 -7 -0.599609 -47 53.9004 -47c42.2998 0 80.5996 34 94.7998 101
c10.7998 51 -44.2998 88 -86.2998 116c-91.2002 62 -117.7 114 -100.9 193c10.9004 51.4004 51.5 94.6006 91.2002 126.101c-13.4004 25.9004 -19.7002 59.9004 -10.7998 101.9c7 33 34.7002 79 72.1006 109s84.8008 45 129.9 45c92.0996 0 151.199 -45 133.1 -130
c-6 -28 -41.7002 -50 -63.2998 -50c-40.4004 0 -47.9004 40 -45.6006 51c6.59961 31 20 32 23.4004 48c4.7002 22 -2.39941 46 -51.2998 46c-53.5996 0 -85.1992 -47 -96.2988 -99c-10 -47 14.4004 -65 53 -87c93.5996 -55 161.199 -95 135.1 -218
c-11.7002 -54.7998 -54.7002 -99 -96.9004 -130.7c19.5996 -35.0996 26.8994 -74.5996 18.499 -114.3zM207.099 380.799c-11.7002 -16.5 -18.1992 -36.0986 -22.5996 -56.7988c-10.4004 -49 8 -95 100.1 -148c31.2002 -17.4004 57.2002 -39.8008 76.2998 -65.2012
c15.2002 16.7998 24 37 28.9004 60.2002c17.9004 84 -36.5 120 -148.6 181c-11.9004 6.59961 -23.9004 16.2998 -34.1006 28.7998z" />
    <glyph glyph-name="dieresis" unicode="&#xa8;" horiz-adv-x="410" 
d="M354.7 573c2.2002 31 26.501 55 55.6006 55c28.2002 0 50 -24 47.7998 -55c-2.2002 -30 -27.4004 -54 -55.6006 -54c-29.0996 0 -50 24 -47.7998 54zM179.801 573c2.2002 31 27.501 55 55.7012 55c29.0996 0 49.8994 -24 47.6992 -55c-2.2002 -30 -26.4004 -54 -55.5 -54
c-28.2002 0 -50.1006 24 -47.9004 54z" />
    <glyph glyph-name="copyright" unicode="&#xa9;" horiz-adv-x="633" 
d="M466.1 218c-23.2998 -30 -65.4004 -60 -111.5 -60c-35.7002 0 -73.9004 15 -91.7002 42c-19.2002 29 -23.2998 67 -15 106c17.2002 81 88.7998 144 163.1 144c59.2002 0 71.4004 -14 87 -20c-1.7002 -30 -2.7998 -48 -6.5 -70c-4.40039 -3 -10.9004 -3 -17.5 -3
c-12.0996 45 -20.1992 60 -60.5996 60c-28.2002 0 -65.5 -25 -84 -112c-14.9004 -70 -2 -107 45.9004 -107c43.2002 0 65.4004 20 78 35c7.7998 -3 10.2998 -9 12.7998 -15zM309.898 23c-147.6 0 -238.699 128 -205.799 283c33.2002 156 179.3 282 325.899 282
s238.399 -126 205.199 -282s-178.7 -283 -325.3 -283zM423.398 557c-131.6 0 -260.699 -112 -290.199 -251c-29.2998 -138 51.9004 -251 183.5 -251c129.7 0 259.8 112 289.3 251s-51.9004 251 -182.601 251z" />
    <glyph glyph-name="ordfeminine" unicode="&#xaa;" horiz-adv-x="315" 
d="M293.4 526c16.4004 72.5 7.70312 85 -13.8965 85c-28.2002 0 -43 -8 -45.7998 -21c-2.59961 -12 2.2002 -12 -0.599609 -25c-3.2002 -15 -24.7002 -28 -42.6006 -28c-14.0996 0 -30.0996 9 -25.1992 32c8.5 40 83 72 122.5 72c22.5996 0 49.3994 -2 64.5996 -19
c16.0996 -17 23.0996 -51 12 -98l-18.9004 -80c-10.2002 -43.0996 -5.2998 -47 3.2002 -47c3.7998 0 13.0996 4 16.2998 6l6.09961 -16c-19.2002 -15 -52 -28 -69.9004 -28c-25.4004 0 -37.6006 9 -35.3008 33c-27.7002 -24 -59.6006 -33 -77.501 -33
c-19.7002 0 -36.1006 3 -48.6006 15c-13.4004 12 -13.2002 35 -8.90039 55c8.5 40 60.7002 70.0996 124.7 87zM268.804 419l18.8984 80c-65.5996 -21 -82.5996 -48 -86.5996 -67c-4.5 -21 -1.09961 -36 23.3008 -36c16.9004 0 23.9004 6 44.4004 23z" />
    <glyph glyph-name="guillemotleft" unicode="&#xab;" horiz-adv-x="555" 
d="M137.3 207l3.40137 16c76.7998 61.0996 127.6 100.3 212.1 184c8.2998 -3 20 -12 22.5996 -22c-53.2002 -75.5 -96.5 -131 -133.9 -170c20.7998 -39 40.5 -94.5 61.5996 -170c-6.7998 -10 -22.2998 -19 -31.8994 -22c-48.9004 83.7002 -83.1006 122.9 -133.9 184z
M314.001 207l3.40137 16c76.7998 61.0996 127.6 100.3 212.1 184c8.2998 -3 20 -12 22.5996 -22c-53.2002 -75.5 -96.5 -131 -133.9 -170c20.9004 -39 40.5 -94.5 61.5996 -170c-6.7998 -10 -22.2998 -19 -31.8994 -22c-48.9004 83.7002 -83.1006 122.9 -133.9 184z" />
    <glyph glyph-name="logicalnot" unicode="&#xac;" horiz-adv-x="560" 
d="M476.6 133l45.5 214h-412.7l11.5 54h482.2l-57 -268h-69.5z" />
    <glyph glyph-name="uni00AD" unicode="&#xad;" horiz-adv-x="358" 
d="M327 215h-198c-24 0 -37 10 -37 21c0 17 25 58 46 58h200c28 0 36 -10 36 -21c0 -13 -24 -58 -47 -58z" />
    <glyph glyph-name="registered" unicode="&#xae;" horiz-adv-x="633" 
d="M483.7 372c-11.0996 -52 -69.6973 -76 -69.6973 -76l27.7002 -82c7.5 -22 16 -31 31 -31l-2.7998 -13c-10 -3 -17.7002 -4 -22.4004 -4c-27.2998 0 -50.0996 12 -55.8994 38l-28.5 78c-3.2998 2 -20 3 -24.7002 3l-19.4004 -91c-1.09961 -5 -1.5 -7 5.09961 -7h11.2998
c7.5 0 9.90039 -2 9 -6l-2.90039 -14s-50.2998 2 -63.5 2l-53.0996 -2l3 14c0.900391 4 5 6 11.5996 6h11.2998c5.59961 0 7.69922 1 9.19922 8l46.2998 218c1.09961 5 1.39941 11 -1.40039 11l-15.2002 -1c-6.59961 0 -9.09961 2 -8.19922 6l2.7998 13
c20.4004 3 56.5 5 126.1 5c70.5 0 79.7002 -45 73.2998 -75zM425.502 372c7.2002 34 1.39941 55 -30.6006 55c-10.2998 0 -21.8994 -1 -26.999 -3l-24.4004 -115c29.0996 0 68.7998 1 82 63zM309.901 23c-147.6 0 -238.699 128 -205.799 283
c33.2002 156 179.3 282 325.899 282s238.399 -126 205.199 -282s-178.7 -283 -325.3 -283zM423.401 557c-131.6 0 -260.699 -112 -290.199 -251c-29.2998 -138 51.9004 -251 183.5 -251c129.7 0 259.8 112 289.3 251s-51.9004 251 -182.601 251z" />
    <glyph glyph-name="macron" unicode="&#xaf;" horiz-adv-x="397" 
d="M409 529h-245c-7 0 -10 5 -10 11c0 1 0 2 1 4c2 12 15 29 27 29h244c9 0 12 -6 12 -11v-3c-2 -12 -17 -30 -29 -30z" />
    <glyph glyph-name="degree" unicode="&#xb0;" horiz-adv-x="267" 
d="M306 524c0 31 -20 69 -62 69c-40 0 -63 -35 -63 -69c0 -33 24 -66 63 -66s62 34 62 66zM138 525c0 59 48 106 106 106s105 -47 105 -106c0 -58 -47 -105 -105 -105s-106 47 -106 105z" />
    <glyph glyph-name="plusminus" unicode="&#xb1;" horiz-adv-x="527" 
d="M490 87l-21 -79h-395l21 79h395zM388.5 374h156.801l-15.7998 -74h-156.7l-34.5996 -163h-77.5996l34.5996 163h-156.7l15.7002 74h156.8l34.7998 164h77.5996z" />
    <glyph glyph-name="two.superior" unicode="&#xb2;" horiz-adv-x="340" 
d="M183 626c6 28 66.502 83 140.802 83c25.4004 0 57.5 -1.5 76 -20.5c16.2998 -16 20.3994 -34.5 13.5996 -66.5c-5.2002 -24.2998 -15.1006 -42 -41.3008 -66c-16.9004 -15.5 -43.6006 -37.2002 -63.9004 -53l-48.0996 -37.5
c-20.5996 -14.7002 -30.8994 -31.2002 -35.0996 -44.5h77.0996c29.0996 0 58.5 32 75.2002 62c10.2998 0 21.2002 -2 25 -6c-12 -39 -36.5996 -84 -51.1992 -113h-221.9c8.90039 41.7998 40.4004 80.8994 80.1006 114.499l66.5 54c30 24.2998 46.2998 53.5996 51 75.5
c5.09961 23.7998 5.19922 43 0.599609 56c-3.59961 10.0996 -15.2998 15 -23.0996 15c-20.7002 0 -32.1006 -5 -39.6006 -18c-1.90039 -3.59961 -4.90039 -16.6992 -6.30078 -23.1992c-1.09961 -5 -2 -10.2002 -3 -14.7998c-0.900391 -4.5 -1.90039 -8.40039 -3 -11
c-6.7002 -16.4004 -26.6006 -29 -46.3008 -29c-25.2998 0 -28.5 17.5996 -23.0996 43z" />
    <glyph glyph-name="three.superior" unicode="&#xb3;" horiz-adv-x="340" 
d="M231.3 389c36.0996 0 81.9004 51 81.9004 100.2c0 31.5996 -26.7002 40.7998 -60.4004 40.7998c-8.5 0 -19.9004 -1 -32.8008 -4l6.40039 30c43.7998 6.2002 104.6 38.9004 104.6 91.1006c0 21.0996 -13.9004 31.8994 -31.5 31.8994c-20.7002 0 -45.7002 -16 -52.5 -39
c-3 -14 -18.7998 -40 -46.0996 -40c-22.2002 0 -25.7002 13 -25.7002 21.5c0 3 0.5 5.5 0.700195 6.5c4 19 49.2002 81 146 81c55.0996 0 91 -21.9004 91 -57c0 -34.5996 -26.5 -60.5 -60.2002 -81c-0.799805 -0.700195 -1.59961 -1.7002 -1.59961 -2.7002
c0 -0.5 0.200195 -1 0.799805 -1.2998c27.5996 -9.2998 53.0996 -25.2002 53.0996 -62.9004c0 -49.0996 -28.4004 -83.1992 -62.5 -106.899c-35.2998 -24.5 -81.3994 -38.2002 -126.999 -38.2002c-43.7998 0 -96.7002 8.7002 -96.7002 43.9004
c0 21.0996 19.2002 42.0996 42.6006 42.0996c26.2998 0 29.7998 -28 34.5 -37c5.59961 -9 15.6992 -19 35.3994 -19z" />
    <glyph glyph-name="acute" unicode="&#xb4;" horiz-adv-x="341" 
d="M198.7 674c3.09961 1 11.3008 2 16.3008 2c30 0 47 -14 53.5996 -24l6.7998 -23l-135.2 -108c-15.7002 -12 -30.2002 -16 -40.2002 -16c-8 0 -14.7998 8 -14 14s4 15 11.2998 24z" />
    <glyph glyph-name="uni00B5" unicode="&#xb5;" horiz-adv-x="589" 
d="M380.7 48.5l-7.7998 -0.5c-45.5996 -33 -76.1992 -58 -127.899 -58c-15 0 -29.9004 1 -41.8008 7c-4.90039 -32 -14.6006 -64 -15.1006 -93c0.0996094 -26 -0.400391 -55 -4 -72c-9.09961 -43 -42.6992 -64 -72.7988 -64c-18.7998 0 -63.0996 26 -54 69
c4.5 21 12.4004 45 21.7002 71s20.3994 52 28.0996 88c3 14 4.5 30 7.7998 50c2.7002 26 0.799805 65.5 6.2002 91l39.5 186c5.2998 25 13.2998 111 13.2998 111l132.5 13s-12.5 -72 -19.2998 -104l-38.9004 -183c-13.4004 -63 -15.2002 -107 17.7002 -107
c38.5 0 89.5996 15 116.699 45l71.4004 336l125.2 14l-68.2002 -321c-10.4004 -49 -4.90039 -67 15.7998 -67c17.9004 0 28.2002 4 42.5 14c9.2002 -10 13.4004 -16 10.9004 -28c-42.2002 -35 -86.7998 -56 -138.8 -56c-41.4004 0 -62.9004 18 -60.7002 58.5z" />
    <glyph glyph-name="paragraph" unicode="&#xb6;" horiz-adv-x="602" 
d="M370 -207c29 0 36 20 44 62l124 701c2 14 3 25 3 33c0 25 -10 26 -22 27c-33 0 -39 -32 -44 -63l-123 -696c-2 -10 -3 -21 -3 -31c0 -18 5 -33 21 -33zM473 -144c-3 -15 -4 -27 -4 -35c0 -23 10 -26 32 -27h30c4 0 5 -3 4 -7l-4 -21h-328l4 21c1 5 3 7 7 7h29
c33 1 41 11 50 63l65 370c-15 -7 -47 -12 -79 -12c-73 0 -179 36 -179 170c0 17 1 35 4 54c22 123 107 207 240 207c75 0 135 -5 162 -5c35 0 70 3 70 3l111 2l-4 -21c-1 -4 -3 -7 -7 -7h-30c-35 0 -42 -16 -50 -62z" />
    <glyph glyph-name="periodcentered" unicode="&#xb7;" horiz-adv-x="322" 
d="M217 177c-49 0 -82 39 -82 81s38 81 82 81c41 0 82 -35 82 -81c0 -43 -36 -81 -82 -81z" />
    <glyph glyph-name="cedilla" unicode="&#xb8;" horiz-adv-x="541" 
d="M236.4 -101l-5.09961 6l65.2998 102h34l-26.7002 -48c44.0996 -9.09961 88.6992 -29.5 80.999 -84.0996c-7.09961 -50.2002 -64.6992 -89.9004 -129.499 -89.9004c-32 0 -38.0996 6 -61.5996 17c1.40039 10 3.90039 21.7998 13.6006 26
c25.5996 -10 36.0996 -14 56.0996 -14c30 0 51.9004 14 55.7002 41c5.2998 37.5996 -47.1006 42 -82.8008 44z" />
    <glyph glyph-name="one.superior" unicode="&#xb9;" horiz-adv-x="340" 
d="M262 640c-12.2002 0 -31.2979 -6 -56.6982 -15c-6.09961 6.09961 -5 21 -2.40039 33c47.7998 17 93.5 33 140.7 56c5.59961 2.90039 26.0996 5 30.0996 0l-56.4004 -265c-10.7998 -51 8.2998 -54 39.7998 -56c2.09961 -8 -1.2002 -23 -6.40039 -30
c-28 1 -56.5 1 -92.7998 1c-33.2002 0 -79.9004 0 -108.301 -1c-2.5 6 0 22 6.40039 30c38 2 67.7998 5 78.5996 56l31.9004 150c6.7998 32 6.7998 41 -4.5 41z" />
    <glyph glyph-name="ordmasculine" unicode="&#xba;" horiz-adv-x="368" 
d="M99.5996 429c18.0996 85 94 137 167.3 137c26.9004 0 48 -3.09961 67.7998 -17c34.7998 -24.5 48.7998 -71.2998 39.7002 -114c-14.5 -68 -74.0996 -132 -168.1 -132c-82.7002 0 -122 54 -106.7 126zM255.1 537c-47 0 -59.2012 -44 -70.7012 -98
c-10.4004 -49 -17.2002 -103 39.2002 -103c25.4004 0 50.3008 11 65.6006 83c17 80 12.9004 118 -34.0996 118z" />
    <glyph glyph-name="guillemotright" unicode="&#xbb;" horiz-adv-x="555" 
d="M506.7 223l-3.40137 -16c-76.7998 -61.0996 -127.6 -100.3 -212.1 -184c-8.2998 3 -20 12 -22.5996 22c53.2002 75.5 96.5 131 133.9 170c-20.7998 39 -40.5 94.5 -61.5996 170c6.7998 10 22.2998 19 31.8994 22c48.9004 -83.7002 83.1006 -122.9 133.9 -184z
M329.999 223l-3.50098 -16c-76.7998 -61.0996 -127.5 -100.3 -212 -184c-8.2998 3 -20 12 -22.5996 22c53.2002 75.5 96.5 131 133.9 170c-20.9004 39 -40.5 94.5 -61.5996 170c6.7998 10 22.2998 19 31.8994 22c48.9004 -83.7002 83.1006 -122.9 133.9 -184z" />
    <glyph glyph-name="onequarter" unicode="&#xbc;" horiz-adv-x="700" 
d="M658.6 601l55.9004 -13l-551.1 -655l-54.9004 13zM259 591c-12.2002 0 -31.2979 -6 -56.6982 -15c-6.09961 6.09961 -5 21 -2.40039 33c47.7998 17 93.5 33 140.7 56c5.59961 2.90039 26.0996 5 30.0996 0l-56.4004 -265c-10.7998 -51 8.2998 -54 39.7998 -56
c2.09961 -8 -1.2002 -23 -6.40039 -30c-28 1 -56.5 1 -92.7998 1c-33.2002 0 -79.9004 0 -108.301 -1c-2.5 6 0 22 6.40039 30c38 2 67.7998 5 78.5996 56l31.9004 150c6.7998 32 6.7998 41 -4.5 41zM594.102 -50l4.50098 21h53.5996l11.7002 42h-56.4004l41.7002 196
c1.90039 9 -4.5 10 -9.2002 10h-47c-50.7002 -57 -162.101 -170 -218.4 -236l8.7002 -12h137.3l-4.5 -21c-10.7998 -51 -40.5996 -54 -78.5996 -56c-6.40039 -8 -8.90039 -24 -6.40039 -30c28.4004 1 57.2002 1 90.4004 1c39.5 0 73.2998 0 101.3 -1
c5.2002 7 8.5 22 6.40039 30c-31.5 2 -45.9004 5 -35.1006 56zM556.402 139.7c-9 -42.2002 -17.9004 -84.5 -26.9004 -126.7h-89.2998z" />
    <glyph glyph-name="onehalf" unicode="&#xbd;" horiz-adv-x="700" 
d="M658.6 601l55.9004 -13l-551.1 -655l-54.9004 13zM261 591c-12.2002 0 -31.2979 -6 -56.6982 -15c-6.09961 6.09961 -5 21 -2.40039 33c47.7998 17 93.5 33 140.7 56c5.59961 2.90039 26.0996 5 30.0996 0l-56.4004 -265c-10.7998 -51 8.2998 -54 39.7998 -56
c2.09961 -8 -1.2002 -23 -6.40039 -30c-28 1 -56.5 1 -92.7998 1c-33.2002 0 -79.9004 0 -108.301 -1c-2.5 6 0 22 6.40039 30c38 2 67.7998 5 78.5996 56l31.9004 150c6.7998 32 6.7998 41 -4.5 41zM501.002 183c6 28 66.502 83 140.802 83c25.4004 0 57.5 -1.5 76 -20.5
c16.2998 -16 20.3994 -34.5 13.5996 -66.5c-5.2002 -24.2998 -15.1006 -42 -41.3008 -66c-16.9004 -15.5 -43.6006 -37.2002 -63.9004 -53l-48.0996 -37.5c-20.5996 -14.7002 -30.8994 -31.2002 -35.0996 -44.5h77.0996c29.0996 0 58.5 32 75.2002 62
c10.2998 0 21.2002 -2 25 -6c-12 -39 -36.5996 -84 -51.1992 -113h-221.9c8.90039 41.7998 40.4004 80.8994 80.1006 114.499l66.5 54c30 24.2998 46.2998 53.5996 51 75.5c5.09961 23.7998 5.19922 43 0.599609 56c-3.59961 10.0996 -15.2998 15 -23.0996 15
c-20.7002 0 -32.1006 -5 -39.6006 -18c-1.90039 -3.59961 -4.90039 -16.6992 -6.30078 -23.1992c-1.09961 -5 -2 -10.2002 -3 -14.7998c-1 -4.5 -1.90039 -8.40039 -3 -11c-6.7002 -16.4004 -26.6006 -29 -46.3008 -29c-25.2998 0 -28.5 17.5996 -23.0996 43z" />
    <glyph glyph-name="threequarters" unicode="&#xbe;" horiz-adv-x="700" 
d="M658.6 601l55.9004 -13l-551.1 -655l-54.9004 13zM598.1 -48l4.50098 21h53.5996l11.7002 42h-56.4004l41.7002 196c1.90039 9 -4.5 10 -9.2002 10h-47c-50.7002 -57 -162.101 -170 -218.4 -236l8.7002 -12h137.3l-4.5 -21c-10.7998 -51 -40.5996 -54 -78.5996 -56
c-6.40039 -8 -8.90039 -24 -6.40039 -30c28.4004 1 57.2002 1 90.4004 1c39.5 0 73.2998 0 101.3 -1c5.2002 7 8.5 22 6.40039 30c-31.5 2 -45.9004 5 -35.1006 56zM229.301 338c36.0996 0 81.9004 51 81.9004 100.2c0 31.5996 -26.7002 40.7998 -60.4004 40.7998
c-8.5 0 -19.9004 -1 -32.8008 -4l6.40039 30c43.7998 6.2002 104.6 38.9004 104.6 91.1006c0 21.0996 -13.9004 31.8994 -31.5 31.8994c-20.7002 0 -45.6006 -16 -52.4004 -39c-3 -14 -18.9004 -40 -46.2002 -40c-22.2002 0 -25.7002 13 -25.7002 21.5
c0 3 0.5 5.5 0.700195 6.5c4 19 49.2002 81 146 81c55.0996 0 91 -21.9004 91 -57c0 -34.5996 -26.5 -60.5 -60.2002 -81c-0.799805 -0.700195 -1.59961 -1.7002 -1.59961 -2.7002c0 -0.5 0.200195 -1 0.799805 -1.2998c27.5996 -9.2998 53 -25.2002 53 -62.9004
c0 -49.0996 -28.2998 -83.1992 -62.3994 -106.899c-35.2998 -24.5 -81.3994 -38.2002 -126.999 -38.2002c-43.7998 0 -96.7002 8.7002 -96.7002 43.9004c0 21.0996 19.2002 42.0996 42.6006 42.0996c26.2998 0 29.7998 -28 34.5 -37c5.59961 -9 15.6992 -19 35.3994 -19z
M560.401 141.7c-9 -42.2002 -17.9004 -84.5 -26.9004 -126.7h-89.2998z" />
    <glyph glyph-name="questiondown" unicode="&#xbf;" horiz-adv-x="430" 
d="M268.4 -140c4.5 21 -2.7002 27 3 54c5.2998 25 30.3994 41 58.5996 41c22.5996 0 49.2998 -20 41.2002 -58c-7.40039 -35 -30.2002 -58 -68.1006 -86c-33.5 -25 -79.7998 -39 -137.1 -39c-107.2 0 -160.9 61 -141.301 153c15.7002 74 84.7002 120 139.601 157
c30.5996 20 69.1992 47 84.499 119l2.7002 13c5.2998 25 11.5 34 38.2998 34c24.9004 0 27.5 -12 22.7998 -34l-3.09961 -15c-8.7002 -41 -20.7998 -98 -101.399 -163c-39.5 -31 -66.2002 -68 -76.7998 -118c-12.2998 -58 -1 -110 51.7998 -110
c41.4004 0 79.3008 24 85.3008 52zM391.301 372c-8.2998 -39 -47 -71 -84.5996 -71s-61.2998 30 -53 69c8.09961 38 46.7998 70 84.3994 70s61.2998 -30 53.2002 -68z" />
    <glyph glyph-name="Agrave" unicode="&#xc0;" horiz-adv-x="710" 
d="M421.3 830c-26.7002 -12 -56.7998 -34 -72.7998 -55l1.40039 -12l135.8 -58c13.2002 -6 25 -7 34 -7s21 7 22.0996 15c1 7 1.90039 13 -7 21c-18.5 18 -77.4004 68 -113.5 96zM317 283h146l-33 237h-6l-129 -224c-6 -10 1 -13 22 -13zM174 79c-23 -41 21 -44 57 -47
c5 -6 0 -28 -7 -34c-35 1 -88 2 -127 2c-37 0 -55 -1 -91 -2c-5 6 0 28 7 34c42 3 72 8 109 70l308 512c34 0 98 35 114 44l87 -572c7 -51 39 -50 76 -54c5 -6 0 -28 -7 -34c-35 1 -89 2 -128 2c-37 0 -128 -1 -164 -2c-5 6 -1 28 6 34c46 3 84 -1 79 40l-22 163h-182
c-23 0 -30 -4 -37 -17z" />
    <glyph glyph-name="Aacute" unicode="&#xc1;" horiz-adv-x="710" 
d="M526.3 833c23.2002 -11.5996 47.2998 -34.4004 57.2002 -55l-4.59961 -12l-152.2 -58c-15.2998 -5.7998 -27 -7 -36 -7s-19 7 -17.9004 15c1 7 2.09961 12.7002 13 21c23.5 18 96.5996 68 140.5 96zM317 282.999h146l-33 237h-6l-129 -224c-6 -10 1 -13 22 -13z
M174 78.999c-23 -41 21 -44 57 -47c5 -6 0 -28 -7 -34c-35 1 -88 2 -127 2c-37 0 -55 -1 -91 -2c-5 6 0 28 7 34c42 3 72 8 109 70l308 512c34 0 98 35 114 44l87 -572c7 -51 39 -50 76 -54c5 -6 0 -28 -7 -34c-35 1 -89 2 -128 2c-37 0 -128 -1 -164 -2c-5 6 -1 28 6 34
c46 3 84 -1 79 40l-22 163h-182c-23 0 -30 -4 -37 -17z" />
    <glyph glyph-name="Acircumflex" unicode="&#xc2;" horiz-adv-x="710" 
d="M317 283h146l-33 237h-6l-129 -224c-6 -10 1 -13 22 -13zM174 79c-23 -41 21 -44 57 -47c5 -6 0 -28 -7 -34c-35 1 -88 2 -127 2c-37 0 -55 -1 -91 -2c-5 6 0 28 7 34c42 3 72 8 109 70l308 512c34 0 98 35 114 44l87 -572c7 -51 39 -50 76 -54c5 -6 0 -28 -7 -34
c-35 1 -89 2 -128 2c-37 0 -128 -1 -164 -2c-5 6 -1 28 6 34c46 3 84 -1 79 40l-22 163h-182c-23 0 -30 -4 -37 -17zM642.1 724c-1.40039 -10 -10.001 -21.7998 -19.7012 -26c-37.2998 12 -92.0996 35 -116.1 56c-33.0996 -22 -92.3994 -45 -130.899 -56
c-8.5 4.2002 -11.5996 17 -10.1992 27c45.7998 27 102.1 69.2002 141.699 104l14.7002 5c31.7002 -36.9004 84.2002 -84 120.5 -110z" />
    <glyph glyph-name="Atilde" unicode="&#xc3;" horiz-adv-x="710" 
d="M565 758c14 0 36 7 55.0996 43c14 0 26.9004 -8 25.2002 -20c-25.2002 -58 -67.1006 -93 -104.101 -93c-23 0 -44.0996 6 -62 21c-18.2002 13 -37.7002 17 -55.7002 17c-22 0 -38.2998 -2 -54.5996 -40c-12 0 -25.5 4 -23.5 18c23.2002 51 61.1006 93 96.1006 93
c31 0 52.7002 -9 70.5 -25c16 -14 42 -14 53 -14zM317 283h146l-33 237h-6l-129 -224c-6 -10 1 -13 22 -13zM174 79c-23 -41 21 -44 57 -47c5 -6 0 -28 -7 -34c-35 1 -88 2 -127 2c-37 0 -55 -1 -91 -2c-5 6 0 28 7 34c42 3 72 8 109 70l308 512c34 0 98 35 114 44l87 -572
c7 -51 39 -50 76 -54c5 -6 0 -28 -7 -34c-35 1 -89 2 -128 2c-37 0 -128 -1 -164 -2c-5 6 -1 28 6 34c46 3 84 -1 79 40l-22 163h-182c-23 0 -30 -4 -37 -17z" />
    <glyph glyph-name="Adieresis" unicode="&#xc4;" horiz-adv-x="710" 
d="M287 697c0 32 24 57 56 57s56 -25 56 -57s-24 -56 -56 -56s-56 24 -56 56zM604 697c0 32 25 57 57 57s55 -25 55 -57s-23 -56 -55 -56s-57 24 -57 56zM317 283h146l-33 237h-6l-129 -224c-6 -10 1 -13 22 -13zM174 79c-23 -41 21 -44 57 -47c5 -6 0 -28 -7 -34
c-35 1 -88 2 -127 2c-37 0 -55 -1 -91 -2c-5 6 0 28 7 34c42 3 72 8 109 70l308 512c34 0 98 35 114 44l87 -572c7 -51 39 -50 76 -54c5 -6 0 -28 -7 -34c-35 1 -89 2 -128 2c-37 0 -128 -1 -164 -2c-5 6 -1 28 6 34c46 3 84 -1 79 40l-22 163h-182c-23 0 -30 -4 -37 -17z
" />
    <glyph glyph-name="Aring" unicode="&#xc5;" horiz-adv-x="710" 
d="M317 283h146l-33 237h-6l-129 -224c-6 -10 1 -13 22 -13zM174 79c-23 -41 21 -44 57 -47c5 -6 0 -28 -7 -34c-35 1 -88 2 -127 2c-37 0 -55 -1 -91 -2c-5 6 0 28 7 34c42 3 72 8 109 70l308 512c34 0 98 35 114 44l87 -572c7 -51 39 -50 76 -54c5 -6 0 -28 -7 -34
c-35 1 -89 2 -128 2c-37 0 -128 -1 -164 -2c-5 6 -1 28 6 34c46 3 84 -1 79 40l-22 163h-182c-23 0 -30 -4 -37 -17zM486 804c-31 0 -51.5996 -26 -53.5 -56c-1.7998 -28 15.5 -56 46.5 -56s51.7002 28 53.5 56c1.90039 31 -16.5 56 -46.5 56zM395.5 748
c2.90039 46 46.2002 83 92.2002 83s84.7998 -36 81.7998 -83c-2.7998 -45 -44.2002 -83 -92.2002 -83c-46 0 -84.7002 37 -81.7998 83z" />
    <glyph glyph-name="AE" unicode="&#xc6;" horiz-adv-x="956" 
d="M133.7 102l349.807 460c27.5 36.0996 4.7998 51 -41.2002 51c-6 0 -7.40039 3 -6.5 7l5.2998 25l2.40039 2l206.6 -2h298c24 0 32.2002 1 49.7998 4c3 0 3.7998 -1 3.39941 -3c0.299805 -8 -15.1006 -104 -18.8008 -145c-10.7002 -4.7002 -32.1006 -6.7998 -44.1006 -5
c-7.2998 69 -20.2002 107 -95.2002 107h-85c-24 0 -46.2998 -25 -51.3994 -49l-39.7998 -187h81c67 0 89.5 7 104.2 62c7.2998 6 38.2998 6 43 0c-7.40039 -30 -13.1006 -52 -20.3008 -86s-10.2998 -53 -16.7002 -88c-7.2998 -6 -38.2998 -6 -43 0
c6.59961 45 -8.80078 62 -77.8008 62h-81l-48.2998 -227c-5.7002 -27 8.7998 -48 30.7998 -48h101c76 0 132.9 56 168.2 128c13.7998 3.2002 34.8994 0.900391 43.999 -5c-18.7998 -51 -37.8994 -117 -62.499 -167c0 0 -89.5996 2 -137.6 2h-236s-105.2 -1 -154.4 -2
c-4.7002 6 -0.100586 28 7.19922 34c70.5996 3 88.5 7 106.1 90l30.5996 144h-178l-140.7 -187c-29.4004 -39 21.8994 -44.4004 58.999 -47c4.7002 -6 0.100586 -28 -7.19922 -34c-36.7998 1 -91.5996 2 -132.6 2c-39 0 -57.2002 -1 -94.4004 -2
c-4.7002 6 -0.100586 28 7.19922 34c44.0996 3 70.7998 12 114.899 70zM364.207 316h152.001l48.5996 229c5.5 26 -4.90039 33 -28.7002 1z" />
    <glyph glyph-name="Ccedilla" unicode="&#xc7;" horiz-adv-x="675" 
d="M286.4 -101l-5.09961 6l55.2002 86.2998c-73.2002 4.7002 -131.5 22.7998 -175.5 61.7002c-66 58 -83 168 -65 262c43 220 225 343 413 343c118 0 154 -40 202 -45c-2 -55 -4 -103 -9 -155c-12 -6 -32 -9 -43 -5c-8 86 -36 163 -168 163c-114 0 -216 -127 -246 -282
c-30 -156 32 -292 143 -292c67 0 150 26 233 104c11 0 25 -12 28 -21c-83 -89 -178 -135 -271 -135h-6.90039l-17.2002 -31c44.0996 -9.09961 88.6992 -29.5 80.999 -84.0996c-7.09961 -50.2002 -64.6992 -89.9004 -129.499 -89.9004c-32 0 -38.0996 6 -61.5996 17
c1.40039 10 3.90039 21.7998 13.6006 26c25.5996 -10 36.0996 -14 56.0996 -14c30 0 51.9004 14 55.7002 41c5.2998 37.5996 -47.1006 42 -82.8008 44z" />
    <glyph glyph-name="Egrave" unicode="&#xc8;" horiz-adv-x="578" 
d="M390.3 830c-26.7002 -12 -56.7998 -34 -72.7998 -55l1.40039 -12l135.8 -58c13.2002 -6 25 -7 34 -7s21 7 22.0996 15c1 7 1.90039 13 -7 21c-18.5 18 -77.4004 68 -113.5 96zM377 367c64 0 85 7 99 62c7 6 36 6 41 0c-7 -30 -11 -52 -18 -86s-10 -53 -16 -88
c-7 -6 -36 -6 -41 0c6 45 -9 62 -75 62h-78l-44 -227c-5 -27 9 -48 30 -48h97c73 0 127 56 160 128c13 3 33 1 42 -5c-18 -51 -35 -117 -58 -167c0 0 -86 2 -132 2h-226s-102 -1 -149 -2c-5 6 0 28 7 34c68 3 85 7 101 90l77 400c16 83 2 88 -65 91c-5 6 -1 28 6 34
c48 -1 148 -2 148 -2h283c23 0 31 1 48 4c3 0 3 -1 3 -3c0 -8 -14 -104 -17 -145c-10 -5 -30 -7 -42 -5c-8 69 -20 107 -92 107h-82c-23 0 -44 -25 -49 -49l-36 -187h78z" />
    <glyph glyph-name="Eacute" unicode="&#xc9;" horiz-adv-x="578" 
d="M492.3 833c23.2002 -11.5996 47.2998 -34.4004 57.2002 -55l-4.59961 -12l-152.2 -58c-15.2998 -5.7998 -27 -7 -36 -7s-19 7 -17.9004 15c1 7 2.09961 12.7002 13 21c23.5 18 96.5996 68 140.5 96zM377 366.999c64 0 85 7 99 62c7 6 36 6 41 0c-7 -30 -11 -52 -18 -86
s-10 -53 -16 -88c-7 -6 -36 -6 -41 0c6 45 -9 62 -75 62h-78l-44 -227c-5 -27 9 -48 30 -48h97c73 0 127 56 160 128c13 3 33 1 42 -5c-18 -51 -35 -117 -58 -167c0 0 -86 2 -132 2h-226s-102 -1 -149 -2c-5 6 0 28 7 34c68 3 85 7 101 90l77 400c16 83 2 88 -65 91
c-5 6 -1 28 6 34c48 -1 148 -2 148 -2h283c23 0 31 1 48 4c3 0 3 -1 3 -3c0 -8 -14 -104 -17 -145c-10 -5 -30 -7 -42 -5c-8 69 -20 107 -92 107h-82c-23 0 -44 -25 -49 -49l-36 -187h78z" />
    <glyph glyph-name="Ecircumflex" unicode="&#xca;" horiz-adv-x="578" 
d="M568.1 724c-1.40039 -10 -10.001 -21.7998 -19.7012 -26c-37.2998 12 -92.0996 35 -116.1 56c-33.0996 -22 -92.3994 -45 -130.899 -56c-8.5 4.2002 -11.5996 17 -10.1992 27c45.7998 27 102.1 69.2002 141.699 104l14.7002 5c31.7002 -36.9004 84.2002 -84 120.5 -110z
M376.999 367c64 0 85 7 99 62c7 6 36 6 41 0c-7 -30 -11 -52 -18 -86s-10 -53 -16 -88c-7 -6 -36 -6 -41 0c6 45 -9 62 -75 62h-78l-44 -227c-5 -27 9 -48 30 -48h97c73 0 127 56 160 128c13 3 33 1 42 -5c-18 -51 -35 -117 -58 -167c0 0 -86 2 -132 2h-226s-102 -1 -149 -2
c-5 6 0 28 7 34c68 3 85 7 101 90l77 400c16 83 2 88 -65 91c-5 6 -1 28 6 34c48 -1 148 -2 148 -2h283c23 0 31 1 48 4c3 0 3 -1 3 -3c0 -8 -14 -104 -17 -145c-10 -5 -30 -7 -42 -5c-8 69 -20 107 -92 107h-82c-23 0 -44 -25 -49 -49l-36 -187h78z" />
    <glyph glyph-name="Edieresis" unicode="&#xcb;" horiz-adv-x="578" 
d="M280 783c0 32 24 57 56 57s56 -25 56 -57s-24 -56 -56 -56s-56 24 -56 56zM467 783c0 32 25 57 57 57s55 -25 55 -57s-23 -56 -55 -56s-57 24 -57 56zM377 367c64 0 85 7 99 62c7 6 36 6 41 0c-7 -30 -11 -52 -18 -86s-10 -53 -16 -88c-7 -6 -36 -6 -41 0
c6 45 -9 62 -75 62h-78l-44 -227c-5 -27 9 -48 30 -48h97c73 0 127 56 160 128c13 3 33 1 42 -5c-18 -51 -35 -117 -58 -167c0 0 -86 2 -132 2h-226s-102 -1 -149 -2c-5 6 0 28 7 34c68 3 85 7 101 90l77 400c16 83 2 88 -65 91c-5 6 -1 28 6 34c48 -1 148 -2 148 -2h283
c23 0 31 1 48 4c3 0 3 -1 3 -3c0 -8 -14 -104 -17 -145c-10 -5 -30 -7 -42 -5c-8 69 -20 107 -92 107h-82c-23 0 -44 -25 -49 -49l-36 -187h78z" />
    <glyph glyph-name="Igrave" unicode="&#xcc;" horiz-adv-x="351" 
d="M270.3 830c-26.7002 -12 -56.7998 -34 -72.7998 -55l1.40039 -12l135.8 -58c13.2002 -6 25 -7 34 -7s21 7 22.0996 15c1 7 1.90039 13 -7 21c-18.5 18 -77.4004 68 -113.5 96zM211 523c16 83 -11 87 -63 90c-8 6 -4 28 7 34c38 -1 110 -2 148 -2s107 1 146 2
c8 -6 4 -28 -7 -34c-53 -3 -81 -7 -97 -90l-78 -401c-16 -83 10 -87 62 -90c8 -6 5 -28 -6 -34c-38 1 -108 2 -146 2s-109 -1 -148 -2c-8 6 -4 28 7 34c53 3 81 7 97 90z" />
    <glyph glyph-name="Iacute" unicode="&#xcd;" horiz-adv-x="351" 
d="M362.3 833c23.2002 -11.5996 47.2998 -34.4004 57.2002 -55l-4.59961 -12l-152.2 -58c-15.2998 -5.7998 -27 -7 -36 -7s-19 7 -17.9004 15c1 7 2.09961 12.7002 13 21c23.5 18 96.5996 68 140.5 96zM211 522.999c16 83 -11 87 -63 90c-8 6 -4 28 7 34
c38 -1 110 -2 148 -2s107 1 146 2c8 -6 4 -28 -7 -34c-53 -3 -81 -7 -97 -90l-78 -401c-16 -83 10 -87 62 -90c8 -6 5 -28 -6 -34c-38 1 -108 2 -146 2s-109 -1 -148 -2c-8 6 -4 28 7 34c53 3 81 7 97 90z" />
    <glyph glyph-name="Icircumflex" unicode="&#xce;" horiz-adv-x="351" 
d="M451.1 724c-1.40039 -10 -10.001 -21.7998 -19.7012 -26c-37.2998 12 -92.0996 35 -116.1 56c-33.0996 -22 -92.3994 -45 -130.899 -56c-8.5 4.2002 -11.5996 17 -10.1992 27c45.7998 27 102.1 69.2002 141.699 104l14.7002 5c31.7002 -36.9004 84.2002 -84 120.5 -110z
M210.999 523c16 83 -11 87 -63 90c-8 6 -4 28 7 34c38 -1 110 -2 148 -2s107 1 146 2c8 -6 4 -28 -7 -34c-53 -3 -81 -7 -97 -90l-78 -401c-16 -83 10 -87 62 -90c8 -6 5 -28 -6 -34c-38 1 -108 2 -146 2s-109 -1 -148 -2c-8 6 -4 28 7 34c53 3 81 7 97 90z" />
    <glyph glyph-name="Idieresis" unicode="&#xcf;" horiz-adv-x="351" 
d="M165 766c0 32 24 57 56 57s56 -25 56 -57s-24 -56 -56 -56s-56 24 -56 56zM352 766c0 32 25 57 57 57s55 -25 55 -57s-23 -56 -55 -56s-57 24 -57 56zM211 523c16 83 -11 87 -63 90c-8 6 -4 28 7 34c38 -1 110 -2 148 -2s107 1 146 2c8 -6 4 -28 -7 -34
c-53 -3 -81 -7 -97 -90l-78 -401c-16 -83 10 -87 62 -90c8 -6 5 -28 -6 -34c-38 1 -108 2 -146 2s-109 -1 -148 -2c-8 6 -4 28 7 34c53 3 81 7 97 90z" />
    <glyph glyph-name="Eth" unicode="&#xd0;" horiz-adv-x="698" 
d="M267 119c-2.40039 -12.0996 -3.59863 -22.4004 -3.59863 -31.2002c0 -39.7002 24.7002 -47.7998 79.6006 -47.7998c117.6 0 241.6 164.3 241.6 386.3c0 98.4004 -35.2002 177.7 -164.601 177.7c-35 0 -63 -20 -74 -75l-39 -202.6
c39.0996 0.599609 76.8994 1.7998 110.999 3.59961l-10 -50c-33.5996 1.7998 -70.8994 3 -109.3 3.59961zM177.002 -0.000976562c-38 0 -147.998 -1.99902 -147.998 -1.99902c-2.90039 2.2002 -4.2002 6.40039 -4.2002 11.2002c0 8.59961 4.2002 19 11.2002 22.7998
c53 3 81 7 97 90l31.2998 161.2c-30.5996 -0.700195 -60 -1.7998 -87.2998 -3.2002l10 50c26.9004 -1.40039 55.9004 -2.40039 85.9004 -3.10059l38.0996 196.1c3.09961 16.0996 4.59961 29.1992 4.59961 39.8994c0 44.5996 -25.7002 47.6992 -67.6006 50.0996
c-2.90039 2.2002 -4.2002 6.40039 -4.2002 11.2002c0 8.59961 4.2002 19 11.2002 22.7998c0 0 110 -2 148 -2s78 1 129 1c201.8 0 293.899 -111.1 293.899 -258.899c0 -134.5 -65.2002 -254.8 -129.9 -305.1c-80 -62 -180 -84 -264 -84c-38 0 -117 2 -155 2z" />
    <glyph glyph-name="Ntilde" unicode="&#xd1;" horiz-adv-x="709" 
d="M565 758c14 0 36 7 55.0996 43c14 0 26.7998 -8 25.0996 -20c-25.2002 -58 -67 -93 -104 -93c-23 0 -44.0996 6 -62 21c-18.2002 13 -37.7002 17 -55.7002 17c-22 0 -38.2998 -2 -54.5996 -40c-12 0 -25.5 4 -23.5 18c23.2002 51 61.1006 93 96.1006 93
c31 0 52.7002 -9 70.5 -25c16 -14 42 -14 53 -14zM614 0c-19 -9 -37 -12 -71 -12c0 0 -16 19 -30 44l-245 398c-8 13 -14 20 -18 20c-6 0 -10 -10 -12 -20l-58 -297c-18 -91 -2 -94 64 -101c5 -6 0 -28 -7 -34c-48 1 -70 2 -115 2c-42 0 -61 -1 -108 -2c-5 6 -1 28 6 34
c69 7 87 12 104 101l81 417c-1 26 -23 60 -64 63c-5 6 0 28 7 34l164 -2l66 -105l193 -312c10 -16 22 -23 27 3l54 281c18 91 2 94 -64 101c-5 6 0 28 7 34c48 -1 71 -2 116 -2c42 0 61 1 108 2c5 -6 0 -28 -7 -34c-69 -7 -86 -12 -103 -101l-80 -410
c-6 -31 -15 -102 -15 -102z" />
    <glyph glyph-name="Ograve" unicode="&#xd2;" horiz-adv-x="699" 
d="M450.3 830c-26.7002 -12 -56.7998 -34 -72.7998 -55l1.40039 -12l135.8 -58c13.2002 -6 25 -7 34 -7s21 7 22.0996 15c1 7 1.90039 13 -7 21c-18.5 18 -77.4004 68 -113.5 96zM456 616c-53.2002 0 -107.199 -32.5 -149.899 -106.8c-34.0996 -59.2998 -73 -178 -73 -283.1
c0 -124.3 56.0996 -194.1 140.899 -194.1c119.9 0 218 184 218 390.6c0 127.8 -54.5996 193.399 -136 193.399zM347.001 -10c-143.3 0 -258.8 93.6006 -258.8 250.7c0 129.6 58.2998 232.8 130.8 305.3c69 69 161 112 257 112c152.9 0 260.601 -98.0996 260.601 -254.399
c0 -228.2 -166.9 -413.601 -389.601 -413.601z" />
    <glyph glyph-name="Oacute" unicode="&#xd3;" horiz-adv-x="699" 
d="M542.3 833c23.2002 -11.5996 47.2998 -34.4004 57.2002 -55l-4.59961 -12l-152.2 -58c-15.2998 -5.7998 -27 -7 -36 -7s-19 7 -17.9004 15c1 7 2.09961 12.7002 13 21c23.5 18 96.5996 68 140.5 96zM456 615.999c-53.2002 0 -107.199 -32.5 -149.899 -106.8
c-34.0996 -59.2998 -73 -178 -73 -283.1c0 -124.3 56.0996 -194.1 140.899 -194.1c119.9 0 218 184 218 390.6c0 127.8 -54.5996 193.399 -136 193.399zM347.001 -10.001c-143.3 0 -258.8 93.6006 -258.8 250.7c0 129.6 58.2998 232.8 130.8 305.3c69 69 161 112 257 112
c152.9 0 260.601 -98.0996 260.601 -254.399c0 -228.2 -166.9 -413.601 -389.601 -413.601z" />
    <glyph glyph-name="Ocircumflex" unicode="&#xd4;" horiz-adv-x="699" 
d="M618.1 724c-1.40039 -10 -10.001 -21.7998 -19.7012 -26c-37.2998 12 -92.0996 35 -116.1 56c-33.0996 -22 -92.3994 -45 -130.899 -56c-8.5 4.2002 -11.5996 17 -10.1992 27c45.7998 27 102.1 69.2002 141.699 104l14.7002 5c31.7002 -36.9004 84.2002 -84 120.5 -110z
M455.999 616c-53.2002 0 -107.199 -32.5 -149.899 -106.8c-34.0996 -59.2998 -73 -178 -73 -283.1c0 -124.3 56.0996 -194.1 140.899 -194.1c119.9 0 218 184 218 390.6c0 127.8 -54.5996 193.399 -136 193.399zM347 -10c-143.3 0 -258.8 93.6006 -258.8 250.7
c0 129.6 58.2998 232.8 130.8 305.3c69 69 161 112 257 112c152.9 0 260.601 -98.0996 260.601 -254.399c0 -228.2 -166.9 -413.601 -389.601 -413.601z" />
    <glyph glyph-name="Otilde" unicode="&#xd5;" horiz-adv-x="699" 
d="M565 758c14 0 36 7 55.0996 43c14 0 26.9004 -8 25.2002 -20c-25.2002 -58 -67.1006 -93 -104.101 -93c-23 0 -44.0996 6 -62 21c-18.2002 13 -37.7002 17 -55.7002 17c-22 0 -38.2998 -2 -54.5996 -40c-12 0 -25.5 4 -23.5 18c23.2002 51 61.1006 93 96.1006 93
c31 0 52.7002 -9 70.5 -25c16 -14 42 -14 53 -14zM456 616c-53.2002 0 -107.199 -32.5 -149.899 -106.8c-34.0996 -59.2998 -73 -178 -73 -283.1c0 -124.3 56.0996 -194.1 140.899 -194.1c119.9 0 218 184 218 390.6c0 127.8 -54.5996 193.399 -136 193.399zM347.001 -10
c-143.3 0 -258.8 93.6006 -258.8 250.7c0 129.6 58.2998 232.8 130.8 305.3c69 69 161 112 257 112c152.9 0 260.601 -98.0996 260.601 -254.399c0 -228.2 -166.9 -413.601 -389.601 -413.601z" />
    <glyph glyph-name="Odieresis" unicode="&#xd6;" horiz-adv-x="699" 
d="M180 717c0 32 24 57 56 57s56 -25 56 -57s-24 -56 -56 -56s-56 24 -56 56zM639 717c0 32 25 57 57 57s55 -25 55 -57s-23 -56 -55 -56s-57 24 -57 56zM456 616c-53.2002 0 -107.199 -32.5 -149.899 -106.8c-34.0996 -59.2998 -73 -178 -73 -283.1
c0 -124.3 56.0996 -194.1 140.899 -194.1c119.9 0 218 184 218 390.6c0 127.8 -54.5996 193.399 -136 193.399zM347.001 -10c-143.3 0 -258.8 93.6006 -258.8 250.7c0 129.6 58.2998 232.8 130.8 305.3c69 69 161 112 257 112c152.9 0 260.601 -98.0996 260.601 -254.399
c0 -228.2 -166.9 -413.601 -389.601 -413.601z" />
    <glyph glyph-name="multiply" unicode="&#xd7;" horiz-adv-x="527" 
d="M355.3 232l94.3008 -121l-51.9004 -42l-96 118l-143 -118l-32.0996 42l142.6 116l-92.7002 119l54 47l93.5 -120l141.5 120l35.0996 -42z" />
    <glyph glyph-name="Oslash" unicode="&#xd8;" horiz-adv-x="699" 
d="M717 670l45.002 -24.998l-76.4004 -80.0996c32.5 -41.9004 51 -96.6006 51 -161.301c0 -228.2 -166.9 -413.601 -389.601 -413.601c-61.5996 0 -118 17.2002 -162.4 49.4004l-78.5996 -82.4004l-46 25l87.2998 91.4004c-36.9004 41.9004 -59.1006 98.5 -59.1006 167.3
c0 129.6 58.2998 232.8 130.8 305.3c69 69 161 112 257 112c69.5996 0 129.8 -20.4004 174.8 -57.3008zM456.002 616.002c-53.2002 0 -107.199 -32.5 -149.899 -106.8c-34.0996 -59.2998 -73 -178 -73 -283.1c0 -20.9004 1.7002 -40.3008 4.7002 -58.001l339.3 355.4
c-21.5 61.2998 -64.9004 92.5 -121.101 92.5zM589.803 464.402l-335.601 -351.899c23.7002 -52.2998 65.9004 -80.5 119.801 -80.5c119.9 0 218 184 218 390.6c0 14.7998 -0.799805 28.7002 -2.2002 41.7998z" />
    <glyph glyph-name="Ugrave" unicode="&#xd9;" horiz-adv-x="702" 
d="M460.3 830c-26.7002 -12 -56.7998 -34 -72.7998 -55l1.40039 -12l135.8 -58c13.2002 -6 25 -7 34 -7s21 7 22.0996 15c1 7 1.90039 13 -7 21c-18.5 18 -77.4004 68 -113.5 96zM319 522l-49 -253c-13 -65 -25 -140 13 -187c23 -29 58 -50 104 -50c162 0 202 133 224 245
l48 245c16 83 0 84 -71 91c-5 6 0 28 7 34c48 -1 74 -2 122 -2c40 0 56 1 103 2c5 -6 0 -28 -7 -34c-59 -7 -75 -8 -91 -91l-45 -227c-35 -178 -121 -305 -318 -305c-46 0 -134 1 -186 42c-47 37 -63 107 -44 204l56 286c16 83 1 88 -56 91c-5 6 -1 28 6 34
c48 -1 85 -2 140 -2c61 0 110 1 157 2c5 -6 0 -28 -7 -34c-75 -3 -90 -8 -106 -91z" />
    <glyph glyph-name="Uacute" unicode="&#xda;" horiz-adv-x="702" 
d="M592.3 833c23.2002 -11.5996 47.2998 -34.4004 57.2002 -55l-4.59961 -12l-152.2 -58c-15.2998 -5.7998 -27 -7 -36 -7s-19 7 -17.9004 15c1 7 2.09961 12.7002 13 21c23.5 18 96.5996 68 140.5 96zM319 521.999l-49 -253c-13 -65 -25 -140 13 -187
c23 -29 58 -50 104 -50c162 0 202 133 224 245l48 245c16 83 0 84 -71 91c-5 6 0 28 7 34c48 -1 74 -2 122 -2c40 0 56 1 103 2c5 -6 0 -28 -7 -34c-59 -7 -75 -8 -91 -91l-45 -227c-35 -178 -121 -305 -318 -305c-46 0 -134 1 -186 42c-47 37 -63 107 -44 204l56 286
c16 83 1 88 -56 91c-5 6 -1 28 6 34c48 -1 85 -2 140 -2c61 0 110 1 157 2c5 -6 0 -28 -7 -34c-75 -3 -90 -8 -106 -91z" />
    <glyph glyph-name="Ucircumflex" unicode="&#xdb;" horiz-adv-x="702" 
d="M648.1 724c-1.40039 -10 -10.001 -21.7998 -19.7012 -26c-37.2998 12 -92.0996 35 -116.1 56c-33.0996 -22 -92.3994 -45 -130.899 -56c-8.5 4.2002 -11.5996 17 -10.1992 27c45.7998 27 102.1 69.2002 141.699 104l14.7002 5c31.7002 -36.9004 84.2002 -84 120.5 -110z
M318.999 522l-49 -253c-13 -65 -25 -140 13 -187c23 -29 58 -50 104 -50c162 0 202 133 224 245l48 245c16 83 0 84 -71 91c-5 6 0 28 7 34c48 -1 74 -2 122 -2c40 0 56 1 103 2c5 -6 0 -28 -7 -34c-59 -7 -75 -8 -91 -91l-45 -227c-35 -178 -121 -305 -318 -305
c-46 0 -134 1 -186 42c-47 37 -63 107 -44 204l56 286c16 83 1 88 -56 91c-5 6 -1 28 6 34c48 -1 85 -2 140 -2c61 0 110 1 157 2c5 -6 0 -28 -7 -34c-75 -3 -90 -8 -106 -91z" />
    <glyph glyph-name="Udieresis" unicode="&#xdc;" horiz-adv-x="732" 
d="M409 697c0 32 24 57 56 57s56 -25 56 -57s-24 -56 -56 -56s-56 24 -56 56zM576 697c0 32 25 57 57 57s55 -25 55 -57s-23 -56 -55 -56s-57 24 -57 56zM338 522l-53.7988 -253c-13.7998 -65 -27.7998 -140 11.2002 -187c24 -28.9004 60.4004 -50 108.4 -50
c169 0 212.3 133 236.1 245l52.0996 245c17.5996 83 10.7998 84 -2.7002 91c-4.7002 6 -0.100586 28 7.19922 34c18.7998 -1 34.5996 -2 56.5996 -2c42 0 58.2002 1 107.4 2c4.7002 -6 0.100586 -28 -7.19922 -34c-61.5 -7 -78.7002 -8 -96.2998 -91l-48.2998 -227
c-37.7998 -178 -129.8 -305 -334.8 -305c-47.4004 0 -138.9 1.09961 -193.101 42c-48.7002 36.7002 -64.2002 107 -43.6006 204l60.7998 286c17.5996 83 1.69922 88 -57.7012 91c-4.7002 6 -0.100586 28 7.19922 34c49.7998 -1 88.5996 -2 145.6 -2
c36 0 74.2002 1 93.4004 2c4.7002 -6 0.100586 -28 -7.19922 -34c-17.5996 -3 -23.6992 -8 -41.2988 -91z" />
    <glyph glyph-name="Yacute" unicode="&#xdd;" horiz-adv-x="606" 
d="M562.3 833c23.2002 -11.5996 47.2998 -34.4004 57.2002 -55l-4.59961 -12l-152.2 -58c-15.2998 -5.7998 -27 -7 -36 -7s-19 7 -17.9004 15c1 7 2.09961 12.7002 13 21c23.5 18 96.5996 68 140.5 96zM411 121.999c-16 -83 0 -88 76 -91c5 -6 0 -27 -7 -33
c-48 1 -92 2 -152 2c-65 0 -121 -1 -168 -2c-5 6 -1 27 6 33c77 3 95 8 111 91l26 137c7 37 6 44 -5 73l-80 215c-21 56 -37 63 -77 66c-5 6 -1 28 6 34c29 -1 98 -2 135 -2c38 0 81 1 120 2c5 -6 0 -28 -7 -34c-54 -3 -57 -18 -44 -56l64 -184c6 -17 17 -16 26 -3l132 194
c20 30 3 46 -39 49c-5 6 -1 28 6 34c38 -1 84 -2 106 -2s61 1 90 2c5 -6 0 -28 -7 -34c-44 -4 -63 -8 -92 -48l-165 -214c-17 -21 -24 -43 -32 -83z" />
    <glyph glyph-name="Thorn" unicode="&#xde;" horiz-adv-x="616" 
d="M211 523c16 83 -11 86.999 -63 89.999c-8 6 -4 28 7 34c38 -1 110 -2 148 -2s107 1 146 2c8 -6 4 -28 -7 -34c-53 -3 -81 -7 -97 -90l-0.400391 -1.90039c37.0996 1.90039 81.8994 1.90039 99.5996 1.90039c185 0 206.8 -109 191.7 -180
c-15.9004 -75 -107 -193 -284 -193c-30.5996 0 -61.0996 0.700195 -78.5996 4.60059l-6.2998 -32.5996c-16 -83 10 -87 62 -90c8 -6 5 -28 -6 -34c-38 1 -108 2 -146 2s-109 -1 -148 -2c-8 6 -4 28 7 34c53 3 81 7 97 90zM281 193.699
c11.7998 -1.5 32.7002 -2.69922 62.6006 -2.69922c72 0 118.1 43 141.3 152c18.5996 87.7002 -1.40039 139 -61.4004 139c-18.2998 0 -63.3994 -4.40039 -87.2998 -4.40039z" />
    <glyph glyph-name="germandbls" unicode="&#xdf;" horiz-adv-x="599" 
d="M406.1 32c-18 0 -36.999 9 -34.2988 21c4.90039 22 22.3008 33 26.7012 53c5.2998 24 -16.1006 40 -40.1006 40c-28 0 -50.7002 -30 -54.7002 -48c-11.7998 -53 10.1006 -108 93.1006 -108c120.2 0 206.2 131 206.2 226c0 91 -66.5 169 -148 193v2
c116.5 41.5 187.5 106.5 187.5 188.5c0 23.5 -13.9004 55.9004 -42.5 75.5c-25 17.0996 -71.5996 23 -114 23c-105 0 -236 -59 -280 -221c-8 -27 -29 -43 -60 -43c-24 0 -30 -29 -30 -37c0 -5.09961 3 -6.39941 8 -6.99902l47 -5c10.4004 -1.09961 12 -4 12 -11
c-18.7998 -92 -30 -142 -46 -233c-19.9004 -113.3 -16.7002 -219.7 -60.7998 -288.601c-13.2998 -20.7998 -36.7998 -36 -54.7998 -36c-19.2002 0 -24.2002 11.7998 -33.1006 25.7998c-10.2002 14 -33.1006 36 -56.001 36c-33.0996 0 -47.5 -25.7998 -47.5 -46.2002
c0 -26.7002 32.2002 -65.2002 113.8 -65.2002c49.2998 0 102 24 139.2 75.5996c33.5 46.5 91 169.4 118.1 287.601c21.0996 92 31.6992 155.9 51.0996 244l15 68c24 108 41.5 218 139 218c18.5 0 48.5 -16 48.5 -53c0 -100 -48 -161 -115.5 -198l-3 -13
c78 -56 73 -114 73 -188c0 -81 -25 -176 -57.9004 -176z" />
    <glyph glyph-name="agrave" unicode="&#xe0;" horiz-adv-x="558" 
d="M387.5 674l51.5996 -124c3 -7 6.40039 -18 5.30078 -26c-1.2998 -9 -10.2002 -16 -19.2002 -16c-8 0 -17.2998 5 -32.2002 20l-106.2 105l3.5 11c9.2998 9 41.5 32 77.5 32c5 0 15.7998 -1 19.7002 -2zM508 436c13.2998 0 20.499 -7.40039 20.499 -21.1006
c0 -17.0996 -11.7002 -55.3994 -20.2002 -94.6992l-42.2998 -196.2c-3.2002 -13.7002 -6.7002 -30.2002 -6.7002 -42.6006c0 -10.7998 2.7002 -18.3994 10.7002 -18.3994c10 0 44 17 70 47c14 0 26 -19 29 -28c-46 -59 -108.5 -92 -178 -92c-30 0 -42.5 12.5 -50 33
c-2.2998 6.2998 -3.2998 14.5 -3.2998 23.9004c0 17.5 3.40039 39.0996 8.30078 59.7998l5 18.2998l-4 2c-60 -89 -122.5 -137 -165 -137c-73 0 -106.9 59.0996 -106.9 127.5c0 74.9004 28.4004 141.101 73.4004 198.101c55.2998 70.2002 135.5 123.4 219.5 123.4
c40 0 38 -3 65 -6c4.7998 -1.2002 10.0996 -1.60059 15.8994 -1.60059c18.4004 0 40.8008 4.59961 59.1006 4.59961zM364.499 226c25 64 32.5 152 32.5 152c-1.90039 12.5 -13 19 -34 19c-43.4004 0 -82.8008 -34.4004 -112.001 -82.5
c-31.2998 -51.5996 -50.8994 -118.899 -50.8994 -176.1c0 -30.9004 13 -53.9004 44 -53.9004c32 0 71.4004 51.5 120.4 141.5z" />
    <glyph glyph-name="aacute" unicode="&#xe1;" horiz-adv-x="558" 
d="M508 436c13.2998 0 20.499 -7.40039 20.499 -21.1006c0 -17.0996 -11.7002 -55.3994 -20.2002 -94.6992l-42.2998 -196.2c-3.2002 -13.7002 -6.7998 -30.2002 -6.7998 -42.6006c0 -10.7998 2.7998 -18.3994 10.7998 -18.3994c10 0 44 17 70 47c14 0 26 -19 29 -28
c-46 -59 -108.5 -92 -178 -92c-30 0 -42.5 12.5 -50 33c-2.2998 6.2998 -3.2998 14.5 -3.2998 23.9004c0 17.5 3.40039 39.0996 8.30078 59.7998l5 18.2998l-4 2c-60 -89 -122.5 -137 -165 -137c-73 0 -106.9 59.0996 -106.9 127.5
c0 74.9004 28.4004 141.101 73.4004 198.101c55.2998 70.2002 135.5 123.4 219.5 123.4c40 0 38 -3 65 -6c4.7998 -1.2002 10.0996 -1.60059 15.8994 -1.60059c18.4004 0 40.8008 4.59961 59.1006 4.59961zM364.499 226c25 64 32.5 152 32.5 152
c-1.90039 12.5 -13 19 -34 19c-43.4004 0 -82.8008 -34.4004 -112.001 -82.5c-31.2998 -51.5996 -50.7998 -118.899 -50.7998 -176.1c0 -30.9004 12.9004 -53.9004 43.9004 -53.9004c32 0 71.4004 51.5 120.4 141.5zM397.699 674c3.09961 1 11.3008 2 16.3008 2
c30 0 47 -14 53.5996 -24l6.7998 -23l-135.2 -108c-15.7002 -12 -30.2002 -16 -40.2002 -16c-8 0 -14.7998 8 -14 14s4 15 11.2998 24z" />
    <glyph glyph-name="acircumflex" unicode="&#xe2;" horiz-adv-x="558" 
d="M508 436c13.2998 0 20.499 -7.40039 20.499 -21.1006c0 -17.0996 -11.7002 -55.3994 -20.2002 -94.6992l-42.2998 -196.2c-3.2002 -13.7002 -6.7998 -30.2002 -6.7998 -42.6006c0 -10.7998 2.7998 -18.3994 10.7998 -18.3994c10 0 44 17 70 47c14 0 26 -19 29 -28
c-46 -59 -108.5 -92 -178 -92c-30 0 -42.5 12.5 -50 33c-2.2998 6.2998 -3.2998 14.5 -3.2998 23.9004c0 17.5 3.40039 39.0996 8.30078 59.7998l5 18.2998l-4 2c-60 -89 -122.5 -137 -165 -137c-73 0 -106.9 59.0996 -106.9 127.5
c0 74.9004 28.4004 141.101 73.4004 198.101c55.2998 70.2002 135.5 123.4 219.5 123.4c40 0 38 -3 65 -6c4.7998 -1.2002 10.0996 -1.60059 15.8994 -1.60059c18.4004 0 40.8008 4.59961 59.1006 4.59961zM364.499 226c25 64 32.5 152 32.5 152
c-1.90039 12.5 -13 19 -34 19c-43.4004 0 -82.8008 -34.4004 -112.001 -82.5c-31.2998 -51.5996 -50.7998 -118.899 -50.7998 -176.1c0 -30.9004 12.9004 -53.9004 43.9004 -53.9004c32 0 71.4004 51.5 120.4 141.5zM399.799 663c23.0996 -49 54.8994 -93 86.0996 -134
l-27.7002 -19c-39.2998 26 -65.5 46 -95.2998 83c-43.5 -39 -74 -57 -117.7 -83l-22.2998 19c41.7998 41 88.2002 86 124.9 134h52z" />
    <glyph glyph-name="atilde" unicode="&#xe3;" horiz-adv-x="558" 
d="M443 589c14 0 36 7 55.0996 43c14 0 26.9004 -8 25.2002 -20c-25.2002 -58 -67.1006 -93 -104.101 -93c-23 0 -44.0996 6 -62 21c-18.2002 13 -37.7002 17 -55.7002 17c-22 0 -38.2998 -2 -54.5996 -40c-12 0 -25.5 4 -23.5 18c23.2002 51 61.1006 93 96.1006 93
c31 0 52.7002 -9 70.5 -25c16 -14 42 -14 53 -14zM508 436c13.2998 0 20.499 -7.40039 20.499 -21.1006c0 -17.0996 -11.7002 -55.3994 -20.2002 -94.6992l-42.2998 -196.2c-3.2002 -13.7002 -6.7002 -30.2002 -6.7002 -42.6006
c0 -10.7998 2.7002 -18.3994 10.7002 -18.3994c10 0 44 17 70 47c14 0 26 -19 29 -28c-46 -59 -108.5 -92 -178 -92c-30 0 -42.5 12.5 -50 33c-2.2998 6.2998 -3.2998 14.5 -3.2998 23.9004c0 17.5 3.40039 39.0996 8.30078 59.7998l5 18.2998l-4 2
c-60 -89 -122.5 -137 -165 -137c-73 0 -106.9 59.0996 -106.9 127.5c0 74.9004 28.4004 141.101 73.4004 198.101c55.2998 70.2002 135.5 123.4 219.5 123.4c40 0 38 -3 65 -6c4.7998 -1.2002 10.0996 -1.60059 15.8994 -1.60059c18.4004 0 40.8008 4.59961 59.1006 4.59961
zM364.499 226c25 64 32.5 152 32.5 152c-1.90039 12.5 -13 19 -34 19c-43.4004 0 -82.8008 -34.4004 -112.001 -82.5c-31.2998 -51.5996 -50.8994 -118.899 -50.8994 -176.1c0 -30.9004 13 -53.9004 44 -53.9004c32 0 71.4004 51.5 120.4 141.5z" />
    <glyph glyph-name="adieresis" unicode="&#xe4;" horiz-adv-x="558" 
d="M508 436c13.2998 0 20.499 -7.40039 20.499 -21.1006c0 -17.0996 -11.7002 -55.3994 -20.2002 -94.6992l-42.2998 -196.2c-3.2002 -13.7002 -6.7998 -30.2002 -6.7998 -42.6006c0 -10.7998 2.7998 -18.3994 10.7998 -18.3994c10 0 44 17 70 47c14 0 26 -19 29 -28
c-46 -59 -108.5 -92 -178 -92c-30 0 -42.5 12.5 -50 33c-2.2998 6.2998 -3.2998 14.5 -3.2998 23.9004c0 17.5 3.40039 39.0996 8.30078 59.7998l5 18.2998l-4 2c-60 -89 -122.5 -137 -165 -137c-73 0 -106.9 59.0996 -106.9 127.5
c0 74.9004 28.4004 141.101 73.4004 198.101c55.2998 70.2002 135.5 123.4 219.5 123.4c40 0 38 -3 65 -6c4.7998 -1.2002 10.0996 -1.60059 15.8994 -1.60059c18.4004 0 40.8008 4.59961 59.1006 4.59961zM364.499 226c25 64 32.5 152 32.5 152
c-1.90039 12.5 -13 19 -34 19c-43.4004 0 -82.8008 -34.4004 -112.001 -82.5c-31.2998 -51.5996 -50.7998 -118.899 -50.7998 -176.1c0 -30.9004 12.9004 -53.9004 43.9004 -53.9004c32 0 71.4004 51.5 120.4 141.5zM387.699 573c2.2002 31 26.501 55 55.6006 55
c28.2002 0 50 -24 47.7998 -55c-2.2002 -30 -27.4004 -54 -55.6006 -54c-29.0996 0 -50 24 -47.7998 54zM212.8 573c2.2002 31 27.501 55 55.7012 55c29.0996 0 49.8994 -24 47.6992 -55c-2.2002 -30 -26.4004 -54 -55.5 -54c-28.2002 0 -50.1006 24 -47.9004 54z" />
    <glyph glyph-name="aring" unicode="&#xe5;" horiz-adv-x="558" 
d="M387.9 642c-28 0 -49.999 -21 -53.8994 -49c-3.7002 -26 11.0996 -49 40.0996 -49s51.2002 23 54.9004 49c4.09961 29 -14.1006 49 -41.1006 49zM296.001 593c6.5 46 49.6992 83 96.6992 83c45 0 80.9004 -36 74.3008 -83c-6.2998 -45 -50.7002 -83 -97.7002 -83
c-46 0 -79.7998 37 -73.2998 83zM508 436c13.2998 0 20.499 -7.40039 20.499 -21.1006c0 -17.0996 -11.7002 -55.3994 -20.2002 -94.6992l-42.2998 -196.2c-3.2002 -13.7002 -6.7998 -30.2002 -6.7998 -42.6006c0 -10.7998 2.7998 -18.3994 10.7998 -18.3994
c10 0 44 17 70 47c14 0 26 -19 29 -28c-46 -59 -108.5 -92 -178 -92c-30 0 -42.5 12.5 -50 33c-2.2998 6.2998 -3.2998 14.5 -3.2998 23.9004c0 17.5 3.40039 39.0996 8.30078 59.7998l5 18.2998l-4 2c-60 -89 -122.5 -137 -165 -137c-73 0 -106.9 59.0996 -106.9 127.5
c0 74.9004 28.4004 141.101 73.4004 198.101c55.2998 70.2002 135.5 123.4 219.5 123.4c40 0 38 -3 65 -6c4.7998 -1.2002 10.0996 -1.60059 15.8994 -1.60059c18.4004 0 40.8008 4.59961 59.1006 4.59961zM364.499 226c25 64 32.5 152 32.5 152
c-1.90039 12.5 -13 19 -34 19c-43.4004 0 -82.8008 -34.4004 -112.001 -82.5c-31.2998 -51.5996 -50.7998 -118.899 -50.7998 -176.1c0 -30.9004 12.9004 -53.9004 43.9004 -53.9004c32 0 71.4004 51.5 120.4 141.5z" />
    <glyph glyph-name="ae" unicode="&#xe6;" horiz-adv-x="715" 
d="M600 397c-53 0 -100 -58 -127 -137c72.7998 4.7002 119.7 7.7002 146.5 28.2998c15.2998 11.7998 26.5 32.7002 26.5 58.7002c0 25 -17 50 -46 50zM314 94c7.5 17.5 18.001 67.999 30.001 114.999c-65.9004 -8.09961 -112.801 -29.1992 -139.501 -55.8994
c-17.5996 -17.5996 -27.5 -35.8994 -27.5 -64.0996c0 -29 15 -49 53 -49c25 0 55.5 12.5 84 54zM319.001 396.999c-41.9004 0 -73.001 -16.5 -73.001 -55c0 -7.7998 -1.5 -22.2998 -3.5 -27c-7 -16 -21.5 -35 -60.5 -35c-40 0 -55 25 -55 43c0 70.7998 114.9 116 206 116
c22 0 91 -6 111 -58c1.59961 -1.7002 7.09961 0.899414 8.5 -1.00098c40.5 42 103.5 59 157.5 59c117 0 154 -56 154 -93c0 -30 -16.4004 -57.7998 -35 -73.5c-40.2002 -33.9004 -120 -48.5 -268 -55.5c-5 -21 -7 -40 -7 -58c0 -70 32 -113 81 -113c42 0 82 17.5 128 59.5
c13.5 -2.7002 22.7998 -11.7998 31 -22.5c-41 -54 -108 -93 -186 -93c-82 0 -121.5 44.5 -134.5 72.5l-4 0.5c-38.5996 -45 -99.1992 -73 -152.499 -73c-104 0 -156 38 -156 95c0 41.9004 24.7002 74.4004 51.5 97.1006c48 40.5996 127.5 61.5 241.5 70.9004
c9 42 13 65 13 86c0 33.5996 -13.5 58 -48 58z" />
    <glyph glyph-name="ccedilla" unicode="&#xe7;" horiz-adv-x="434" 
d="M165.4 -97l-5.09961 6.00098l52.2998 81.5996c-52.7002 3.2002 -86 18.7998 -111.6 51.3994c-28 36 -37 94 -23 159c31 148 157 243 267 243c101 0 140 -50 129 -104c-7 -31 -33 -56 -63 -56s-50 20 -47 47c4 32 -2 71 -36 71c-49 0 -94 -55 -118 -166
c-23 -108 18 -170 79 -170c34 0 66 15 111 52c9 0 21 -22 21 -31c-43.7002 -51.0996 -114.101 -91 -172.801 -96.4004l-15.2998 -27.5996c44.0996 -9.09961 88.6992 -29.5 80.999 -84.0996c-7.09961 -50.2002 -64.6992 -89.9004 -129.499 -89.9004
c-32 0 -38.0996 6 -61.5996 17c1.40039 10 3.90039 21.7998 13.6006 26c25.5996 -10 36.0996 -14 56.0996 -14c30 0 51.9004 14 55.7002 41c5.2998 37.5996 -47.1006 42 -82.8008 44z" />
    <glyph glyph-name="egrave" unicode="&#xe8;" horiz-adv-x="409" 
d="M343 370c0 20 -11 28 -32 28c-39 0 -76.7002 -20 -111 -160.7c53 8.7002 143 42.7002 143 132.7zM193 199c-1 -8 -0.999023 -29 -0.999023 -34c0 -67 14 -115 53 -115c48 0 79 16 136 74c12 0 27 -14 32 -25c-59 -76 -137 -109 -204 -109c-120 0 -146 67 -146 152
c0 127 77 297 271 297c81 0 122 -35 122 -70c0 -17.7998 -0.5 -51.7998 -31 -81c-34.4004 -33 -105.801 -61.9004 -232.001 -89zM291.501 674l51.5996 -124c3 -7 6.40039 -18 5.30078 -26c-1.2998 -9 -10.2002 -16 -19.2002 -16c-8 0 -17.2998 5 -32.2002 20l-106.2 105
l3.5 11c9.2998 9 41.5 32 77.5 32c5 0 15.7998 -1 19.7002 -2z" />
    <glyph glyph-name="eacute" unicode="&#xe9;" horiz-adv-x="409" 
d="M343 370c0 20 -11 28 -32 28c-39 0 -76.7002 -20 -111 -160.7c53 8.7002 143 42.7002 143 132.7zM193 199c-1 -8 -0.999023 -29 -0.999023 -34c0 -67 14 -115 53 -115c48 0 79 16 136 74c12 0 27 -14 32 -25c-59 -76 -137 -109 -204 -109c-120 0 -146 67 -146 152
c0 127 77 297 271 297c81 0 122 -35 122 -70c0 -17.7998 -0.5 -51.7998 -31 -81c-34.4004 -33 -105.801 -61.9004 -232.001 -89zM333.701 674c3.09961 1 11.3008 2 16.3008 2c30 0 47 -14 53.5996 -24l6.7998 -23l-135.2 -108c-15.7002 -12 -30.2002 -16 -40.2002 -16
c-8 0 -14.7998 8 -14 14s4 15 11.2998 24z" />
    <glyph glyph-name="ecircumflex" unicode="&#xea;" horiz-adv-x="409" 
d="M343 370c0 20 -11 28 -32 28c-39 0 -76.7002 -20 -111 -160.7c53 8.7002 143 42.7002 143 132.7zM193 199c-1 -8 -0.999023 -29 -0.999023 -34c0 -67 14 -115 53 -115c48 0 79 16 136 74c12 0 27 -14 32 -25c-59 -76 -137 -109 -204 -109c-120 0 -146 67 -146 152
c0 127 77 297 271 297c81 0 122 -35 122 -70c0 -17.7998 -0.5 -51.7998 -31 -81c-34.4004 -33 -105.801 -61.9004 -232.001 -89zM359.801 663c23.0996 -49 54.8994 -93 86.0996 -134l-27.7002 -19c-39.2998 26 -65.5 46 -95.2998 83c-43.5 -39 -74 -57 -117.7 -83
l-22.2998 19c41.7998 41 88.2002 86 124.9 134h52z" />
    <glyph glyph-name="edieresis" unicode="&#xeb;" horiz-adv-x="409" 
d="M343 374c0 20 -11 28 -32 28c-39 0 -76.7002 -20 -111 -160.7c53 8.7002 143 42.7002 143 132.7zM193 203c-1 -8 -0.999023 -29 -0.999023 -34c0 -67 14 -115 53 -115c48 0 79 16 136 74c12 0 27 -14 32 -25c-59 -76 -137 -109 -204 -109c-120 0 -146 67 -146 152
c0 127 77 297 271 297c81 0 122 -35 122 -70c0 -17.7998 -0.5 -51.7998 -31 -81c-34.4004 -33 -105.801 -61.9004 -232.001 -89zM373.701 573c2.2002 31 26.501 55 55.6006 55c28.2002 0 50 -24 47.7998 -55c-2.2002 -30 -27.4004 -54 -55.6006 -54
c-29.0996 0 -50 24 -47.7998 54zM198.802 573c2.2002 31 27.501 55 55.7012 55c29.0996 0 49.8994 -24 47.6992 -55c-2.2002 -30 -26.4004 -54 -55.5 -54c-28.2002 0 -50.1006 24 -47.9004 54z" />
    <glyph glyph-name="igrave" unicode="&#xec;" horiz-adv-x="342" 
d="M293.3 320.2l-42.2988 -196.2c-5.90039 -25.5996 -13.3008 -61 3.99902 -61c10 0 44 17 70 47c14 0 26 -19 29 -28c-46 -59 -115.5 -92 -185 -92c-30 0 -41.5 12.5 -49 33c-6.5 17.7998 0 60 7 92l44 206c5.59961 26 6 31.9004 6 41c0 10 -6 19.0996 -18 20l-40 3
c-6 9 -4.7002 30 2 38c47 6 140 13 172 13c13.2002 0 20.5 -7.40039 20.5 -21.1006c0 -17.0996 -11.7002 -55.3994 -20.2002 -94.6992zM250.501 674l51.5996 -124c3 -7 6.40039 -18 5.30078 -26c-1.2998 -9 -10.2002 -16 -19.2002 -16c-8 0 -17.2998 5 -32.2002 20
l-106.2 105l3.5 11c9.2998 9 41.5 32 77.5 32c5 0 15.7998 -1 19.7002 -2z" />
    <glyph glyph-name="iacute" unicode="&#xed;" horiz-adv-x="342" 
d="M293.3 320.2l-42.2988 -196.2c-5.90039 -25.5996 -13.3008 -61 3.99902 -61c10 0 44 17 70 47c14 0 26 -19 29 -28c-46 -59 -115.5 -92 -185 -92c-30 0 -41.5 12.5 -49 33c-6.5 17.7998 0 60 7 92l44 206c5.59961 26 6 31.9004 6 41c0 10 -6 19.0996 -18 20l-40 3
c-6 9 -4.7002 30 2 38c47 6 140 13 172 13c13.2002 0 20.5 -7.40039 20.5 -21.1006c0 -17.0996 -11.7002 -55.3994 -20.2002 -94.6992zM296.701 674c3.09961 1 11.3008 2 16.3008 2c30 0 47 -14 53.5996 -24l6.7998 -23l-135.2 -108c-15.7002 -12 -30.2002 -16 -40.2002 -16
c-8 0 -14.7998 8 -14 14s4 15 11.2998 24z" />
    <glyph glyph-name="icircumflex" unicode="&#xee;" horiz-adv-x="342" 
d="M293.3 320.2l-42.2988 -196.2c-5.90039 -25.5996 -13.3008 -61 3.99902 -61c10 0 44 17 70 47c14 0 26 -19 29 -28c-46 -59 -115.5 -92 -185 -92c-30 0 -41.5 12.5 -49 33c-6.5 17.7998 0 60 7 92l44 206c5.59961 26 6 31.9004 6 41c0 10 -6 19.0996 -18 20l-40 3
c-6 9 -4.7002 30 2 38c47 6 140 13 172 13c13.2002 0 20.5 -7.40039 20.5 -21.1006c0 -17.0996 -11.7002 -55.3994 -20.2002 -94.6992zM279.801 663c23.0996 -49 54.8994 -93 86.0996 -134l-27.7002 -19c-39.2998 26 -65.5 46 -95.2998 83c-43.5 -39 -74 -57 -117.7 -83
l-22.2998 19c41.7998 41 88.2002 86 124.9 134h52z" />
    <glyph glyph-name="idieresis" unicode="&#xef;" horiz-adv-x="342" 
d="M293.3 320.2l-42.2988 -196.2c-5.90039 -25.5996 -13.3008 -61 3.99902 -61c10 0 44 17 70 47c14 0 26 -19 29 -28c-46 -59 -115.5 -92 -185 -92c-30 0 -41.5 12.5 -49 33c-6.5 17.7998 0 60 7 92l44 206c5.59961 26 6 31.9004 6 41c0 10 -6 19.0996 -18 20l-40 3
c-6 9 -4.7002 30 2 38c47 6 140 13 172 13c13.2002 0 20.5 -7.40039 20.5 -21.1006c0 -17.0996 -11.7002 -55.3994 -20.2002 -94.6992zM290.701 573c2.2002 31 26.501 55 55.6006 55c28.2002 0 50 -24 47.7998 -55c-2.2002 -30 -27.4004 -54 -55.6006 -54
c-29.0996 0 -50 24 -47.7998 54zM115.802 573c2.2002 31 27.501 55 55.7012 55c29.0996 0 49.8994 -24 47.6992 -55c-2.2002 -30 -26.4004 -54 -55.5 -54c-28.2002 0 -50.1006 24 -47.9004 54z" />
    <glyph glyph-name="eth" unicode="&#xf0;" horiz-adv-x="559" 
d="M81.2998 209c17.7998 80.5 64.4004 135.7 118.4 173c62.7998 43.2998 135.8 62 184.7 62c16 0 33.5996 -2 49.8994 -5c-9.7998 46 -28.7002 87 -52.7998 118c-39.2998 -24 -91 -54 -126.4 -74l-16 36l120.5 70c-21.2002 27.2002 -44.5 56.2002 -67.4004 75l32.5 34
c41.5 -25 76.4004 -48 100.301 -71c39.2998 24 92.8994 54 128.6 75l16 -36l-113.6 -66c33.5996 -38 75.7998 -85.2002 99.3994 -138c27.7002 -61.7998 32.4004 -138.1 13.6006 -223c-18.4004 -83 -55.2002 -146.1 -108.5 -187c-56.5 -43.2998 -130.9 -62 -193.7 -62
c-138 0 -208.6 115 -185.5 219zM292.101 32c38 0 98.7998 35 133.8 193c10.2002 46 16 95 19.0996 136c-16.7002 24 -42.9004 41 -71.9004 41c-83 0 -131.6 -102 -147.8 -175c-24.5996 -111 9.80078 -195 66.8008 -195z" />
    <glyph glyph-name="ntilde" unicode="&#xf1;" horiz-adv-x="614" 
d="M498 589c14 0 36 7 55.0996 43c14 0 26.9004 -8 25.2002 -20c-25.2002 -58 -67.1006 -93 -104.101 -93c-23 0 -44.0996 6 -62 21c-18.2002 13 -37.7002 17 -55.7002 17c-22 0 -38.2998 -2 -54.5996 -40c-12 0 -25.5 4 -23.5 18c23.2002 51 61.1006 93 96.1006 93
c31 0 52.7002 -9 70.5 -25c16 -14 42 -14 53 -14zM140 243c14.7002 65.7998 15 98.0996 15 109c0 11.7002 -3.59961 28.9004 -18 30l-40 3c-6 9 -4.7002 30 2 38c47 6 134 13 166 13c13.2002 0 23.5 -10.4004 23.5 -24.1006c0 -17.2998 -3.5 -58.5996 -12.5 -100.899l2 -2
c92 108 145.3 130 209 130c39 0 89 -20 89 -80c0 -18 -4.7002 -41.0996 -13 -76l-38 -159c-6.2998 -25.5996 -13.2998 -61 4 -61c10 0 44 17 70 47c14 0 26 -19 29 -28c-46 -59 -115.5 -92 -185 -92c-30 0 -41.5 12.5 -49 33c-6.5 17.7998 -0.799805 60.2002 7 92l37 160
c7.90039 34 9 44 9 58c0 31 -14 36 -35 36c-36 0 -87 -59 -150 -141l-38.0996 -156c-9.5 -38.7998 -7.90039 -82 -68.9004 -82c-56 0 -65.9004 10.5 -65.9004 27.2002c0 9.7998 8.2998 34.8994 12.7002 54.7998z" />
    <glyph glyph-name="ograve" unicode="&#xf2;" horiz-adv-x="479" 
d="M196 170c0 -111.9 30 -138 59 -138c104.2 0 116 145.4 116 228c0 58.0996 -3 137 -56 137c-101.1 0 -119 -127 -119 -227zM67 162c0 86.7998 55.6992 190.9 149.499 243c35.9004 20 77.3008 34 123.501 34c123 0 160 -86 160 -158c0 -135.1 -72.4004 -223.1 -159.5 -267
c-29.4004 -14.7998 -80 -24 -120.5 -24c-127 0 -153 108 -153 172zM375.499 674.001l51.5996 -124c3 -7 6.40039 -18 5.30078 -26c-1.2998 -9 -10.2002 -16 -19.2002 -16c-8 0 -17.2998 5 -32.2002 20l-106.2 105l3.5 11c9.2998 9 41.5 32 77.5 32
c5 0 15.7998 -1 19.7002 -2z" />
    <glyph glyph-name="oacute" unicode="&#xf3;" horiz-adv-x="479" 
d="M196 170c0 -111.9 30 -138 59 -138c104.2 0 116 145.4 116 228c0 58.0996 -3 137 -56 137c-101.1 0 -119 -127 -119 -227zM67 162c0 86.7998 55.6992 190.9 149.499 243c35.9004 20 77.3008 34 123.501 34c123 0 160 -86 160 -158c0 -135.1 -72.4004 -223.1 -159.5 -267
c-29.4004 -14.7998 -80 -24 -120.5 -24c-127 0 -153 108 -153 172zM363.699 674.001c3.09961 1 11.3008 2 16.3008 2c30 0 47 -14 53.5996 -24l6.7998 -23l-135.2 -108c-15.7002 -12 -30.2002 -16 -40.2002 -16c-8 0 -14.7998 8 -14 14s4 15 11.2998 24z" />
    <glyph glyph-name="ocircumflex" unicode="&#xf4;" horiz-adv-x="479" 
d="M379.8 663c23.0996 -49 54.8994 -93 86.0996 -134l-27.7002 -19c-39.2998 26 -65.5 46 -95.2998 83c-43.5 -39 -74 -57 -117.7 -83l-22.2998 19c41.7998 41 88.2002 86 124.9 134h52zM196 170c0 -111.9 30 -138 59 -138c104.2 0 116 145.4 116 228
c0 58.0996 -3 137 -56 137c-101.1 0 -119 -127 -119 -227zM67 162c0 86.7998 55.6992 190.9 149.499 243c35.9004 20 77.3008 34 123.501 34c123 0 160 -86 160 -158c0 -135.1 -72.4004 -223.1 -159.5 -267c-29.4004 -14.7998 -80 -24 -120.5 -24c-127 0 -153 108 -153 172z
" />
    <glyph glyph-name="otilde" unicode="&#xf5;" horiz-adv-x="479" 
d="M403 589c14 0 36 7 55.0996 43c14 0 26.9004 -8 25.2002 -20c-25.2002 -58 -67.1006 -93 -104.101 -93c-23 0 -44.0996 6 -62 21c-18.2002 13 -37.7002 17 -55.7002 17c-22 0 -38.2998 -2 -54.5996 -40c-12 0 -25.5 4 -23.5 18c23.2002 51 61.1006 93 96.1006 93
c31 0 52.7002 -9 70.5 -25c16 -14 42 -14 53 -14zM196 170c0 -111.9 30 -138 59 -138c104.2 0 116 145.4 116 228c0 58.0996 -3 137 -56 137c-101.1 0 -119 -127 -119 -227zM67 162c0 86.7998 55.6992 190.9 149.499 243c35.9004 20 77.3008 34 123.501 34
c123 0 160 -86 160 -158c0 -135.1 -72.4004 -223.1 -159.5 -267c-29.4004 -14.7998 -80 -24 -120.5 -24c-127 0 -153 108 -153 172z" />
    <glyph glyph-name="odieresis" unicode="&#xf6;" horiz-adv-x="479" 
d="M196 170c0 -111.9 30 -138 59 -138c104.2 0 116 145.4 116 228c0 58.0996 -3 137 -56 137c-101.1 0 -119 -127 -119 -227zM67 162c0 86.7998 55.6992 190.9 149.499 243c35.9004 20 77.3008 34 123.501 34c123 0 160 -86 160 -158c0 -135.1 -72.4004 -223.1 -159.5 -267
c-29.4004 -14.7998 -80 -24 -120.5 -24c-127 0 -153 108 -153 172zM391.699 573.001c2.2002 31 26.501 55 55.6006 55c28.2002 0 50 -24 47.7998 -55c-2.2002 -30 -27.4004 -54 -55.6006 -54c-29.0996 0 -50 24 -47.7998 54zM216.8 573.001c2.2002 31 27.501 55 55.7012 55
c29.0996 0 49.8994 -24 47.6992 -55c-2.2002 -30 -26.4004 -54 -55.5 -54c-28.2002 0 -50.1006 24 -47.9004 54z" />
    <glyph glyph-name="divide" unicode="&#xf7;" horiz-adv-x="527" 
d="M230 72c0 30 29 60 62 60c23 0 39 -16 39 -38c0 -34 -33 -60 -62 -60c-23 0 -39 16 -39 38zM302 397c0 31 29 61 62 61c23 0 39 -17 39 -39c0 -33 -33 -60 -62 -60c-24 0 -39 16 -39 38zM523 268l-11 -49h-396l12 49h395z" />
    <glyph glyph-name="oslash" unicode="&#xf8;" horiz-adv-x="479" 
d="M478 471l33.998 -24.999l-45.2998 -53.9004c27.9004 -31.0996 38.3008 -73 38.3008 -111.1c0 -135.1 -72.4004 -223.1 -159.5 -267c-29.4004 -14.7998 -80 -24 -120.5 -24c-33.0996 0 -59.2998 7.2998 -80 19.2998l-42.2002 -50.2002l-33 28l42.0996 49.9004
c-31.2998 37 -39.8994 88.2998 -39.8994 125c0 86.7998 55.7002 190.899 149.5 242.999c35.9004 20 77.3008 34 123.501 34c36.9004 0 66 -7.7002 88.7002 -20.5zM375.698 283.901l-166.3 -197.9c11 -42.0996 31 -54 50.5996 -54c104.2 0 116 145.4 116 228
c0 7.7002 -0.0996094 15.7002 -0.299805 23.9004zM369.698 342.701c-6.7998 30.7998 -20.7998 54.2998 -49.7002 54.2998c-101.1 0 -119 -127 -119 -227c0 -9.5 0.200195 -18.2998 0.600586 -26.5996z" />
    <glyph glyph-name="ugrave" unicode="&#xf9;" horiz-adv-x="646" 
d="M431 106.7c0 0 -6.40039 -27 2.59961 15.2998l-1.90039 2c-92 -108 -147.1 -130 -199.1 -130c-39 0 -89 22 -89 82c0 18 -0.299805 39.0996 8 74l38 159c6.2998 25.5996 13.2998 61 -4 61c-10 0 -44 -17 -70 -47c-14 0 -26 19 -29 28c46 59 115.5 92 185 92
c30 0 41.5 -12.5 49 -33c6.5 -17.7998 0.799805 -60.2002 -7 -92l-37 -160c-9.59961 -41.2998 -5.2998 -82 31 -82c36 0 72 47 135 129l38.2002 156c9.5 38.7998 7.7998 82 68.7998 82c56 0 65.9004 -10.5 65.9004 -27.2002c0 -9.7998 -8.40039 -34.8994 -12.7002 -54.7998
l-51.7998 -237c-3 -13.7002 -6.7998 -30.2002 -6.7998 -42.6006c0 -10.7998 2.7998 -18.3994 10.7998 -18.3994c10 0 44 17 70 47c14 0 26 -19 29 -28c-46 -59 -108.5 -92 -178 -92c-30 0 -42.5 12.5 -50 33c-2.2998 6.2998 -3.2998 14.5 -3.2998 23.9004
c0 17.5 4.7002 38.7998 8.2998 59.7998zM400.5 674l51.5996 -124c3 -7 6.40039 -18 5.30078 -26c-1.2998 -9 -10.2002 -16 -19.2002 -16c-8 0 -17.2998 5 -32.2002 20l-106.2 105l3.5 11c9.2998 9 41.5 32 77.5 32c5 0 15.7998 -1 19.7002 -2z" />
    <glyph glyph-name="uacute" unicode="&#xfa;" horiz-adv-x="646" 
d="M431 106.7c0 0 -6.40039 -27 2.59961 15.2998l-1.90039 2c-92 -108 -147.1 -130 -199.1 -130c-39 0 -89 22 -89 82c0 18 -0.299805 39.0996 8 74l38 159c6.2998 25.5996 13.2998 61 -4 61c-10 0 -44 -17 -70 -47c-14 0 -26 19 -29 28c46 59 115.5 92 185 92
c30 0 41.5 -12.5 49 -33c6.5 -17.7998 0.799805 -60.2002 -7 -92l-37 -160c-9.59961 -41.2998 -5.2998 -82 31 -82c36 0 72 47 135 129l38.2002 156c9.5 38.7998 7.7998 82 68.7998 82c56 0 65.9004 -10.5 65.9004 -27.2002c0 -9.7998 -8.40039 -34.8994 -12.7002 -54.7998
l-51.7998 -237c-3 -13.7002 -6.7998 -30.2002 -6.7998 -42.6006c0 -10.7998 2.7998 -18.3994 10.7998 -18.3994c10 0 44 17 70 47c14 0 26 -19 29 -28c-46 -59 -108.5 -92 -178 -92c-30 0 -42.5 12.5 -50 33c-2.2998 6.2998 -3.2998 14.5 -3.2998 23.9004
c0 17.5 4.7002 38.7998 8.2998 59.7998zM470.7 674c3.09961 1 11.3008 2 16.3008 2c30 0 47 -14 53.5996 -24l6.7998 -23l-135.2 -108c-15.7002 -12 -30.2002 -16 -40.2002 -16c-8 0 -14.7998 8 -14 14s4 15 11.2998 24z" />
    <glyph glyph-name="ucircumflex" unicode="&#xfb;" horiz-adv-x="646" 
d="M469.8 663c23.0996 -49 54.8994 -93 86.0996 -134l-27.7002 -19c-39.2998 26 -65.5 46 -95.2998 83c-43.5 -39 -74 -57 -117.7 -83l-22.2998 19c41.7998 41 88.2002 86 124.9 134h52zM431 106.7c0 0 -6.40039 -27 2.59961 15.2998l-1.90039 2
c-92 -108 -147.1 -130 -199.1 -130c-39 0 -89 22 -89 82c0 18 -0.299805 39.0996 8 74l38 159c6.2998 25.5996 13.2998 61 -4 61c-10 0 -44 -17 -70 -47c-14 0 -26 19 -29 28c46 59 115.5 92 185 92c30 0 41.5 -12.5 49 -33c6.5 -17.7998 0.799805 -60.2002 -7 -92l-37 -160
c-9.59961 -41.2998 -5.2998 -82 31 -82c36 0 72 47 135 129l38.2002 156c9.5 38.7998 7.7998 82 68.7998 82c56 0 65.9004 -10.5 65.9004 -27.2002c0 -9.7998 -8.40039 -34.8994 -12.7002 -54.7998l-51.7998 -237c-3 -13.7002 -6.7998 -30.2002 -6.7998 -42.6006
c0 -10.7998 2.7998 -18.3994 10.7998 -18.3994c10 0 44 17 70 47c14 0 26 -19 29 -28c-46 -59 -108.5 -92 -178 -92c-30 0 -42.5 12.5 -50 33c-2.2998 6.2998 -3.2998 14.5 -3.2998 23.9004c0 17.5 4.7002 38.7998 8.2998 59.7998z" />
    <glyph glyph-name="udieresis" unicode="&#xfc;" horiz-adv-x="646" 
d="M431 106.7c0 0 -6.40039 -27 2.59961 15.2998l-1.90039 2c-92 -108 -147.1 -130 -199.1 -130c-39 0 -89 22 -89 82c0 18 -0.299805 39.0996 8 74l38 159c6.2998 25.5996 13.2998 61 -4 61c-10 0 -44 -17 -70 -47c-14 0 -26 19 -29 28c46 59 115.5 92 185 92
c30 0 41.5 -12.5 49 -33c6.5 -17.7998 0.799805 -60.2002 -7 -92l-37 -160c-9.59961 -41.2998 -5.2998 -82 31 -82c36 0 72 47 135 129l38.2002 156c9.5 38.7998 7.7998 82 68.7998 82c56 0 65.9004 -10.5 65.9004 -27.2002c0 -9.7998 -8.40039 -34.8994 -12.7002 -54.7998
l-51.7998 -237c-3 -13.7002 -6.7002 -30.2002 -6.7002 -42.6006c0 -10.7998 2.7002 -18.3994 10.7002 -18.3994c10 0 44 17 70 47c14 0 26 -19 29 -28c-46 -59 -108.5 -92 -178 -92c-30 0 -42.5 12.5 -50 33c-2.2998 6.2998 -3.2998 14.5 -3.2998 23.9004
c0 17.5 4.7002 38.7998 8.2998 59.7998zM437.7 573c2.2002 31 26.501 55 55.6006 55c28.2002 0 50 -24 47.7998 -55c-2.2002 -30 -27.4004 -54 -55.6006 -54c-29.0996 0 -50 24 -47.7998 54zM262.801 573c2.2002 31 27.501 55 55.7012 55c29.0996 0 49.8994 -24 47.6992 -55
c-2.2002 -30 -26.4004 -54 -55.5 -54c-28.2002 0 -50.1006 24 -47.9004 54z" />
    <glyph glyph-name="yacute" unicode="&#xfd;" horiz-adv-x="514" 
d="M191 338c-7.5 10.5 -11.501 12.502 -24.501 12.502c-20.5 0 -46.5 -12 -58.5 -17.7002c-8 7.7002 -15.5996 27.7998 -17 38.7002c36 21 132 67.5 167 67.5c25 0 38 -21 52 -74c25 -103 32 -185 38 -278l4 -1l81.5 136c28 46.7998 32.5 88 32.5 109.5
c0 21.7998 -27 43 -27 78c0 22 36 29.5 57 29.5c25 0 64.5 -11.5 64.5 -46.5c0 -48.5 -12.4004 -88.2998 -50.5 -150.5l-191 -312c-61.7998 -100.9 -149.399 -166.601 -209.199 -166.601c-19.5996 0 -69 11.5996 -69 58c0 43.5996 28.2002 70.5996 52.2002 70.5996
c9.2002 0 31.7002 -11.2002 39.7998 -19.9004c6.90039 -7.2002 31.7002 -24.1006 43.2002 -24.1006c16.0996 0 45 23 86 90c14 30 -36.7002 352 -71 400zM438.699 674.002c3.09961 1 11.3008 2 16.3008 2c30 0 47 -14 53.5996 -24l6.7998 -23l-135.2 -108
c-15.7002 -12 -30.2002 -16 -40.2002 -16c-8 0 -14.7998 8 -14 14s4 15 11.2998 24z" />
    <glyph glyph-name="thorn" unicode="&#xfe;" horiz-adv-x="550" 
d="M231 563c15.2998 69.2002 0 75 -62 75c-3 9 -1 22 5 34c43 7 135 26 166 26c23 0 30 -12 30 -33c0 -20 -7.7002 -49.0996 -15 -82c0 0 -26.4004 -116.2 -39 -179c27 16 64 35 115 35c100 0 144 -66 144 -150c0 -68.9004 -44.9004 -178.5 -122 -244
c-41.5 -35.2998 -95 -55 -150 -55c-36 0 -56 17 -71 33l-39 -174c-8 -34 18 -39 33 -41l19 -3c4 -1 6 -3 6 -8v-30l-2 -2s-68 2 -107 2c-36 0 -147 -5 -147 -5l-2 2v29c0 6 5 7 10 8l19 3c32 5 46.9004 17 53 45l96 444c-28 -23 -50 -41 -72 -70
c-18 0 -24.0996 21.7998 -28 36c28 35 65 65 115 101c15.2998 67.4004 45 203 45 203zM447 273c0 49 -8 115 -50 115c-38 0 -67 -18 -92 -34l-64 -279c21 -29 48 -43 74 -43c87 0 132 175 132 241z" />
    <glyph glyph-name="ydieresis" unicode="&#xff;" horiz-adv-x="514" 
d="M191 338c-7.5 10.5 -11.501 12.502 -24.501 12.502c-20.5 0 -46.5 -12 -58.5 -17.7002c-8 7.7002 -15.5996 27.7998 -17 38.7002c36 21 132 67.5 167 67.5c25 0 38 -21 52 -74c25 -103 32 -185 38 -278l4 -1l81.5 136c28 46.7998 32.5 88 32.5 109.5
c0 21.7998 -27 43 -27 78c0 22 36 29.5 57 29.5c25 0 64.5 -11.5 64.5 -46.5c0 -48.5 -12.4004 -88.2998 -50.5 -150.5l-191 -312c-61.7998 -100.9 -149.399 -166.601 -209.199 -166.601c-19.5996 0 -69 11.5996 -69 58c0 43.5996 28.2002 70.5996 52.2002 70.5996
c9.2002 0 31.7002 -11.2002 39.7998 -19.9004c6.90039 -7.2002 31.7002 -24.1006 43.2002 -24.1006c16.0996 0 45 23 86 90c14 30 -36.7002 352 -71 400zM424.699 573.002c2.2002 31 26.501 55 55.6006 55c28.2002 0 50 -24 47.7998 -55
c-2.2002 -30 -27.4004 -54 -55.6006 -54c-29.0996 0 -50 24 -47.7998 54zM249.8 573.002c2.2002 31 27.501 55 55.7012 55c29.0996 0 49.8994 -24 47.6992 -55c-2.2002 -30 -26.4004 -54 -55.5 -54c-28.2002 0 -50.1006 24 -47.9004 54z" />
    <glyph glyph-name="Amacron" unicode="&#x100;" horiz-adv-x="710" 
d="M317 283h146l-33 237h-6l-129 -224c-6 -10 1 -13 22 -13zM174 79c-23 -41 21 -44 57 -47c5 -6 0 -28 -7 -34c-35 1 -88 2 -127 2c-37 0 -55 -1 -91 -2c-5 6 0 28 7 34c42 3 72 8 109 70l308 512c34 0 98 35 114 44l87 -572c7 -51 39 -50 76 -54c5 -6 0 -28 -7 -34
c-35 1 -89 2 -128 2c-37 0 -128 -1 -164 -2c-5 6 -1 28 6 34c46 3 84 -1 79 40l-22 163h-182c-23 0 -30 -4 -37 -17zM610.5 731h-244c-9 0 -11.4004 8 -10 15c2.40039 12 16.9004 29 27.9004 29h245c10 0 12.4004 -8 11.2002 -14c-2.40039 -12 -17.1006 -30 -30.1006 -30z
" />
    <glyph glyph-name="amacron" unicode="&#x101;" horiz-adv-x="558" 
d="M508 436c13.2998 0 20.499 -7.40039 20.499 -21.1006c0 -17.0996 -11.7002 -55.3994 -20.2002 -94.6992l-42.2998 -196.2c-3.2002 -13.7002 -6.7998 -30.2002 -6.7998 -42.6006c0 -10.7998 2.7998 -18.3994 10.7998 -18.3994c10 0 44 17 70 47c14 0 26 -19 29 -28
c-46 -59 -108.5 -92 -178 -92c-30 0 -42.5 12.5 -50 33c-2.2998 6.2998 -3.2998 14.5 -3.2998 23.9004c0 17.5 3.40039 39.0996 8.30078 59.7998l5 18.2998l-4 2c-60 -89 -122.5 -137 -165 -137c-73 0 -106.9 59.0996 -106.9 127.5
c0 74.9004 28.4004 141.101 73.4004 198.101c55.2998 70.2002 135.5 123.4 219.5 123.4c40 0 38 -3 65 -6c4.7998 -1.2002 10.0996 -1.60059 15.8994 -1.60059c18.4004 0 40.8008 4.59961 59.1006 4.59961zM364.499 226c25 64 32.5 152 32.5 152
c-1.90039 12.5 -13 19 -34 19c-43.4004 0 -82.8008 -34.4004 -112.001 -82.5c-31.2998 -51.5996 -50.7998 -118.899 -50.7998 -176.1c0 -30.9004 12.9004 -53.9004 43.9004 -53.9004c32 0 71.4004 51.5 120.4 141.5zM461.499 539h-244c-9 0 -11.4004 8 -10 15
c2.40039 12 16.9004 29 27.9004 29h245c10 0 12.4004 -8 11.2002 -14c-2.40039 -12 -17.1006 -30 -30.1006 -30z" />
    <glyph glyph-name="Abreve" unicode="&#x102;" horiz-adv-x="710" 
d="M317 283h146l-33 237h-6l-129 -224c-6 -10 1 -13 22 -13zM174 79c-23 -41 21 -44 57 -47c5 -6 0 -28 -7 -34c-35 1 -88 2 -127 2c-37 0 -55 -1 -91 -2c-5 6 0 28 7 34c42 3 72 8 109 70l308 512c34 0 98 35 114 44l87 -572c7 -51 39 -50 76 -54c5 -6 0 -28 -7 -34
c-35 1 -89 2 -128 2c-37 0 -128 -1 -164 -2c-5 6 -1 28 6 34c46 3 84 -1 79 40l-22 163h-182c-23 0 -30 -4 -37 -17zM641.6 830c-16 -71 -86.5996 -125 -152.6 -125c-73 0 -123.2 55 -118.4 125l28.4004 3c2.5 -39 47.4004 -54 100.4 -54c49 0 103.1 15 115.6 54z" />
    <glyph glyph-name="abreve" unicode="&#x103;" horiz-adv-x="558" 
d="M274.8 667c-5.59961 -54 33.7988 -79 96.7988 -79c47 0 106.2 15 118.2 79l30.5 -10c-24.7998 -105 -108.1 -143 -159.1 -143c-81 0 -125.3 62 -120.899 143zM507.998 436c13.2998 0 20.499 -7.40039 20.499 -21.1006c0 -17.0996 -11.7002 -55.3994 -20.2002 -94.6992
l-42.2998 -196.2c-3.2002 -13.7002 -6.7998 -30.2002 -6.7998 -42.6006c0 -10.7998 2.7998 -18.3994 10.7998 -18.3994c10 0 44 17 70 47c14 0 26 -19 29 -28c-46 -59 -108.5 -92 -178 -92c-30 0 -42.5 12.5 -50 33c-2.2998 6.2998 -3.2998 14.5 -3.2998 23.9004
c0 17.5 3.40039 39.0996 8.30078 59.7998l5 18.2998l-4 2c-60 -89 -122.5 -137 -165 -137c-73 0 -106.9 59.0996 -106.9 127.5c0 74.9004 28.4004 141.101 73.4004 198.101c55.2998 70.2002 135.5 123.4 219.5 123.4c40 0 38 -3 65 -6
c4.7998 -1.2002 10.0996 -1.60059 15.8994 -1.60059c18.4004 0 40.8008 4.59961 59.1006 4.59961zM364.497 226c25 64 32.5 152 32.5 152c-1.90039 12.5 -13 19 -34 19c-43.4004 0 -82.8008 -34.4004 -112.001 -82.5c-31.2998 -51.5996 -50.7998 -118.899 -50.7998 -176.1
c0 -30.9004 12.9004 -53.9004 43.9004 -53.9004c32 0 71.4004 51.5 120.4 141.5z" />
    <glyph glyph-name="Aogonek" unicode="&#x104;" horiz-adv-x="710" 
d="M690 -179c-26 -36 -69.999 -55.001 -108.999 -55.001c-19.2998 0 -35.5996 6.59961 -50 16c-22.9004 15 -39 40.0996 -39 80c0 49.4004 49.4004 107.801 102.7 137.9c-7.90039 0.0996094 -15.6006 0.0996094 -22.7002 0.0996094c-37 0 -128 -1 -164 -2c-5 6 -1 28 6 34
c46 3 84 -1 79 40l-22 163h-182c-23 0 -30 -4 -37 -17l-78 -139c-23 -41 21 -44 57 -47c5 -6 0 -28 -7 -34c-35 1 -88 2 -127 2c-37 0 -55 -1 -91 -2c-5 6 0 28 7 34c42 3 72 8 109 70l308 512c34 0 98 35 114 44l87 -572c7 -51 39 -50 76 -54c5 -6 0 -28 -7 -34
c-7.5 0.200195 -15.9004 0.400391 -24.8008 0.600586c-49.5 -5.40039 -91.2002 -67 -91.2002 -130.6c0 -32 17.5 -42 35 -42c17 0 41 3 56 18zM317.001 282.999h146l-33 237h-6l-129 -224c-6 -10 1 -13 22 -13z" />
    <glyph glyph-name="aogonek" unicode="&#x105;" horiz-adv-x="558" 
d="M508 436c13.2998 0 20.5 -7.40039 20.5 -21.1006c0 -17.0996 -11.7002 -55.3994 -20.2002 -94.6992l-42.2998 -196.2c-3.2002 -13.7002 -6.7998 -30.2002 -6.7998 -42.6006c0 -10.7998 2.7998 -18.3994 10.7998 -18.3994c10 0 44 17 70 47c14 0 26 -19 29 -28
c-26 -33.2998 -57.2002 -58.2998 -92 -73.7998c-44.9004 -41.4004 -75 -83.1006 -75 -148.2c0 -21 17.5 -32 35 -32c17 0 41 3 56 18l15 -23c-26 -36 -70 -55 -109 -55c-50 0 -89 31 -89 86c0 50 44.5 98 92.0996 136.3
c-3.7002 -0.200195 -7.40039 -0.299805 -11.1006 -0.299805c-30 0 -42.5 12.5 -50 33c-2.2998 6.2998 -3.2998 14.5 -3.2998 23.9004c0 17.5 3.40039 39.0996 8.30078 59.7998l5 18.2998l-4 2c-60 -89 -122.5 -137 -165 -137c-73 0 -106.9 59.0996 -106.9 127.5
c0 74.9004 28.4004 141.101 73.4004 198.101c55.2998 70.2002 135.5 123.4 219.5 123.4c40 0 38 -3 65 -6c4.7998 -1.2002 10.0996 -1.60059 15.8994 -1.60059c18.4004 0 40.8008 4.59961 59.1006 4.59961zM364.5 226c25 64 32.5 152 32.5 152c-1.90039 12.5 -13 19 -34 19
c-43.4004 0 -82.8008 -34.4004 -112.001 -82.5c-31.2998 -51.5996 -50.7998 -118.899 -50.7998 -176.1c0 -30.9004 12.9004 -53.9004 43.9004 -53.9004c32 0 71.4004 51.5 120.4 141.5z" />
    <glyph glyph-name="Cacute" unicode="&#x106;" horiz-adv-x="675" 
d="M378 -10c-93 0 -165 17 -217 63c-66 58 -83 168 -65 262c43 220 225 343 413 343c118 0 154 -40 202 -45c-2 -55 -4 -103 -9 -155c-12 -6 -32 -9 -43 -5c-8 86 -36 163 -168 163c-114 0 -216 -127 -246 -282c-30 -156 32 -292 143 -292c67 0 150 26 233 104
c11 0 25 -12 28 -21c-83 -89 -178 -135 -271 -135zM531.3 833c23.2002 -11.5996 47.2998 -34.4004 57.2002 -55l-4.59961 -12l-152.2 -58c-15.2998 -5.7998 -27 -7 -36 -7s-19 7 -17.9004 15c1 7 2.09961 12.7002 13 21c23.5 18 96.5996 68 140.5 96z" />
    <glyph glyph-name="cacute" unicode="&#x107;" horiz-adv-x="434" 
d="M421 87c-47 -55 -125 -97 -186 -97c-66 0 -105 15 -134 52c-28 36 -37 94 -23 159c31 148 157 243 267 243c101 0 140 -50 129 -104c-7 -31 -33 -56 -63 -56s-50 20 -47 47c4 32 -2 71 -36 71c-49 0 -94 -55 -118 -166c-23 -108 18 -170 79 -170c34 0 66 15 111 52
c9 0 21 -22 21 -31zM363.7 674c3.09961 1 11.3008 2 16.3008 2c30 0 47 -14 53.5996 -24l6.7998 -23l-135.2 -108c-15.7002 -12 -30.2002 -16 -40.2002 -16c-8 0 -14.7998 8 -14 14s4 15 11.2998 24z" />
    <glyph glyph-name="Ccircumflex" unicode="&#x108;" horiz-adv-x="675" 
d="M378 -10c-93 0 -165 17 -217 63c-66 58 -83 168 -65 262c43 220 225 343 413 343c118 0 154 -40 202 -45c-2 -55 -4 -103 -9 -155c-12 -6 -32 -9 -43 -5c-8 86 -36 163 -168 163c-114 0 -216 -127 -246 -282c-30 -156 32 -292 143 -292c67 0 150 26 233 104
c11 0 25 -12 28 -21c-83 -89 -178 -135 -271 -135zM641.1 724c-1.40039 -10 -10.001 -21.7998 -19.7012 -26c-37.2998 12 -92.0996 35 -116.1 56c-33.0996 -22 -92.3994 -45 -130.899 -56c-8.5 4.2002 -11.5996 17 -10.1992 27c45.7998 27 102.1 69.2002 141.699 104
l14.7002 5c31.7002 -36.9004 84.2002 -84 120.5 -110z" />
    <glyph glyph-name="ccircumflex" unicode="&#x109;" horiz-adv-x="434" 
d="M379.8 663c23.0996 -49 54.8994 -93 86.0996 -134l-27.7002 -19c-39.2998 26 -65.5 46 -95.2998 83c-43.5 -39 -74 -57 -117.7 -83l-22.2998 19c41.7998 41 88.2002 86 124.9 134h52zM421 87c-47 -55 -125 -97 -186 -97c-66 0 -105 15 -134 52c-28 36 -37 94 -23 159
c31 148 157 243 267 243c101 0 140 -50 129 -104c-7 -31 -33 -56 -63 -56s-50 20 -47 47c4 32 -2 71 -36 71c-49 0 -94 -55 -118 -166c-23 -108 18 -170 79 -170c34 0 66 15 111 52c9 0 21 -22 21 -31z" />
    <glyph glyph-name="Cdotaccent" unicode="&#x10a;" horiz-adv-x="675" 
d="M435 771c0 34 28 62 62 62s62 -28 62 -62s-28 -62 -62 -62s-62 28 -62 62zM378 -10c-93 0 -165 17 -217 63c-66 58 -83 168 -65 262c43 220 225 343 413 343c118 0 154 -40 202 -45c-2 -55 -4 -103 -9 -155c-12 -6 -32 -9 -43 -5c-8 86 -36 163 -168 163
c-114 0 -216 -127 -246 -282c-30 -156 32 -292 143 -292c67 0 150 26 233 104c11 0 25 -12 28 -21c-83 -89 -178 -135 -271 -135z" />
    <glyph glyph-name="cdotaccent" unicode="&#x10b;" horiz-adv-x="434" 
d="M421 87c-47 -55 -125 -97 -186 -97c-66 0 -105 15 -134 52c-28 36 -37 94 -23 159c31 148 157 243 267 243c101 0 140 -50 129 -104c-7 -31 -33 -56 -63 -56s-50 20 -47 47c4 32 -2 71 -36 71c-49 0 -94 -55 -118 -166c-23 -108 18 -170 79 -170c34 0 66 15 111 52
c9 0 21 -22 21 -31zM282 596c0 30 23 62 70 62c42 0 65 -36 65 -66c0 -26 -26 -62 -71 -62c-40 0 -64 33 -64 66z" />
    <glyph glyph-name="Ccaron" unicode="&#x10c;" horiz-adv-x="675" 
d="M378 -10c-93 0 -165 17 -217 63c-66 58 -83 168 -65 262c43 220 225 343 413 343c118 0 154 -40 202 -45c-2 -55 -4 -103 -9 -155c-12 -6 -32 -9 -43 -5c-8 86 -36 163 -168 163c-114 0 -216 -127 -246 -282c-30 -156 32 -292 143 -292c67 0 150 26 233 104
c11 0 25 -12 28 -21c-83 -89 -178 -135 -271 -135zM364.9 808c1.40039 10 10.1016 22 19.7012 26c37.2998 -12 92.0996 -35 116.1 -56c33.0996 22 92.3994 45 130.899 56c8.40039 -4 11.6006 -17 10.2002 -27c-45.7998 -27 -101.8 -69 -141.7 -104l-14.7002 -5
c-31.7998 37 -84.2002 84 -120.5 110z" />
    <glyph glyph-name="ccaron" unicode="&#x10d;" horiz-adv-x="434" 
d="M421 87c-47 -55 -125 -97 -186 -97c-66 0 -105 15 -134 52c-28 36 -37 94 -23 159c31 148 157 243 267 243c101 0 140 -50 129 -104c-7 -31 -33 -56 -63 -56s-50 20 -47 47c4 32 -2 71 -36 71c-49 0 -94 -55 -118 -166c-23 -108 18 -170 79 -170c34 0 66 15 111 52
c9 0 21 -22 21 -31zM362.7 529h-50c-22.5 46 -54.5 89 -83.9004 129l26.5 18c35.2002 -27 58.5 -46 90.2002 -84c39.0996 36 72 57 114.8 84l21.5 -18c-41.5996 -40 -83.5 -82 -119.1 -129z" />
    <glyph glyph-name="Dcaron" unicode="&#x10e;" horiz-adv-x="698" 
d="M267 119c-2.40039 -12.0996 -3.59961 -22.4004 -3.59961 -31.2002c0 -39.7002 24.7002 -47.7998 79.6006 -47.7998c117.6 0 241.6 164.3 241.6 386.3c0 98.4004 -35.2002 177.7 -164.601 177.7c-35 0 -63 -20 -74 -75zM177.001 -0.000976562
c-38 0 -147.998 -2 -147.998 -2c-2.90039 2.2002 -4.2002 6.40039 -4.2002 11.2002c0 8.59961 4.2002 19 11.2002 22.7998c53 3 81 7 97 90l78 401c3.09961 16.0996 4.59961 29.1992 4.59961 39.8994c0 44.5996 -25.7002 47.6992 -67.6006 50.0996
c-2.90039 2.2002 -4.2002 6.40039 -4.2002 11.2002c0 8.59961 4.2002 19 11.2002 22.7998c0 0 110 -2 148 -2s78 1 129 1c201.8 0 293.899 -111.1 293.899 -258.899c0 -134.5 -65.2002 -254.8 -129.9 -305.1c-80 -62 -180 -84 -264 -84c-38 0 -117 2 -155 2z
M342.903 807.999c1.40039 10 10.1016 22 19.7012 26c37.2998 -12 92.0996 -35 116.1 -56c33.0996 22 92.3994 45 130.899 56c8.40039 -4 11.6006 -17 10.2002 -27c-45.7998 -27 -101.8 -69 -141.7 -104l-14.7002 -5c-31.7998 37 -84.2002 84 -120.5 110z" />
    <glyph glyph-name="dcaron" unicode="&#x10f;" horiz-adv-x="588" 
d="M445 563c16 69 0 74.999 -62 74.999c-3 9 -1 22 5 34c43 7 135 26 166 26c23 0 30 -12 30 -33c0 -20 -8 -49 -15 -82l-101 -456c-3.09961 -13.7998 -6.59961 -30.3994 -6.59961 -42.7998c0 -10.7002 2.59961 -18.2002 10.5996 -18.2002c10 0 44 17 70 47
c14 0 26 -19 29 -28c-50 -55 -116.5 -95 -186 -95c-35.9004 0 -50.7002 22.7002 -50.7002 57.1006c0 20.2998 4.5 47.5996 9.5 70l-1.7998 0.900391c-60 -88 -107 -128 -164 -128c-88 0 -120 61 -120 134c0 89.0996 44 197 130 265c45.0996 35.5996 84 50 137 50
c38 0 67 -25 79 -55h0.400391zM695.7 697.999c38 0 52.3994 -37 45.0996 -73s-52 -98 -123.6 -106l-1.5 17c43.7998 9 72.2998 46 77 69c2.59961 13 -1.7002 21 -9.7002 21c-41 0 -41.5996 22 -38.2998 38s21 34 51 34zM382.499 281.799
c1.7002 6.5 3 12.3994 3.90039 17.7998zM377.199 264.098l10.6006 47c0.0996094 1.7002 0.199219 3.40039 0.199219 4.90039c0 35 -22 77 -60 77c-86 0 -149 -137 -149 -243c0 -56 12 -94 41 -94c39 0 77 48 126 138c14 25.5996 24.2998 49.5996 31.2002 70.0996z" />
    <glyph glyph-name="Dcroat" unicode="&#x110;" horiz-adv-x="698" 
d="M267 119c-2.40039 -12.0996 -3.59961 -22.4004 -3.59961 -31.2002c0 -39.7002 24.7002 -47.7998 79.6006 -47.7998c117.6 0 241.6 164.3 241.6 386.3c0 98.4004 -35.2002 177.7 -164.601 177.7c-35 0 -63 -20 -74 -75l-38.9004 -202h92.9004l-8 -40h-92.5996z
M177.001 -0.000976562c-38 0 -147.998 -2 -147.998 -2c-2.90039 2.2002 -4.2002 6.40039 -4.2002 11.2002c0 8.59961 4.2002 19 11.2002 22.7998c53 3 81 7 97 90l32.0996 165h-87.0996l8 40h86.9004l38.0996 196c3.09961 16.0996 4.59961 29.1992 4.59961 39.8994
c0 44.5996 -25.7002 47.6992 -67.6006 50.0996c-2.90039 2.2002 -4.2002 6.40039 -4.2002 11.2002c0 8.59961 4.2002 19 11.2002 22.7998c0 0 110 -2 148 -2s78 1 129 1c201.8 0 293.899 -111.1 293.899 -258.899c0 -134.5 -65.2002 -254.8 -129.9 -305.1
c-80 -62 -180 -84 -264 -84c-38 0 -117 2 -155 2z" />
    <glyph glyph-name="dcroat" unicode="&#x111;" horiz-adv-x="561" 
d="M635 572l-9 -39.001h-68.0996l-89.9004 -406c-3.09961 -13.7998 -6.59961 -30.3994 -6.59961 -42.7998c0 -10.7002 2.59961 -18.2002 10.5996 -18.2002c10 0 44 17 70 47c14 0 26 -19 29 -28c-50 -55 -116.5 -95 -186 -95c-35.9004 0 -50.7002 22.7002 -50.7002 57.1006
c0 20.2998 4.5 47.5996 9.5 70l-1.7998 0.900391c-60 -88 -107 -128 -164 -128c-88 0 -120 61 -120 134c0 89.0996 44 197 130 265c45.0996 35.5996 84 50 137 50c38 0 67 -25 79 -55h0.400391l33.7998 149h-86.2002l9 39h86c12.5 60.5 -4.7998 66 -64 66c-3 9 -1 22 5 34
c43 7 135 26 166 26c23 0 30 -12 30 -33c0 -20 -8 -49 -15 -82l-2.40039 -11h68.4004zM382.5 281.799c1.7002 6.5 3 12.3994 3.90039 17.7998zM377.2 264.098l10.6006 47c0.0996094 1.7002 0.199219 3.40039 0.199219 4.90039c0 35 -22 77 -60 77c-86 0 -149 -137 -149 -243
c0 -56 12 -94 41 -94c39 0 77 48 126 138c14 25.5996 24.2998 49.5996 31.2002 70.0996z" />
    <glyph glyph-name="Emacron" unicode="&#x112;" horiz-adv-x="578" 
d="M377 367c64 0 85 7 99 62c7 6 36 6 41 0c-7 -30 -11 -52 -18 -86s-10 -53 -16 -88c-7 -6 -36 -6 -41 0c6 45 -9 62 -75 62h-78l-44 -227c-5 -27 9 -48 30 -48h97c73 0 127 56 160 128c13 3 33 1 42 -5c-18 -51 -35 -117 -58 -167c0 0 -86 2 -132 2h-226s-102 -1 -149 -2
c-5 6 0 28 7 34c68 3 85 7 101 90l77 400c16 83 2 88 -65 91c-5 6 -1 28 6 34c48 -1 148 -2 148 -2h283c23 0 31 1 48 4c3 0 3 -1 3 -3c0 -8 -14 -104 -17 -145c-10 -5 -30 -7 -42 -5c-8 69 -20 107 -92 107h-82c-23 0 -44 -25 -49 -49l-36 -187h78zM519.5 733h-244
c-9 0 -11.4004 8 -10 15c2.40039 12 16.9004 29 27.9004 29h245c10 0 12.4004 -8 11.2002 -14c-2.40039 -12 -17.1006 -30 -30.1006 -30z" />
    <glyph glyph-name="emacron" unicode="&#x113;" horiz-adv-x="409" 
d="M343 370c0 20 -11 28 -32 28c-39 0 -76.7002 -20 -111 -160.7c53 8.7002 143 42.7002 143 132.7zM193 199c-1 -8 -0.999023 -29 -0.999023 -34c0 -67 14 -115 53 -115c48 0 79 16 136 74c12 0 27 -14 32 -25c-59 -76 -137 -109 -204 -109c-120 0 -146 67 -146 152
c0 127 77 297 271 297c81 0 122 -35 122 -70c0 -17.7998 -0.5 -51.7998 -31 -81c-34.4004 -33 -105.801 -61.9004 -232.001 -89zM445.501 538h-244c-9 0 -11.4004 8 -10 15c2.40039 12 16.9004 29 27.9004 29h245c10 0 12.4004 -8 11.2002 -14
c-2.40039 -12 -17.1006 -30 -30.1006 -30z" />
    <glyph glyph-name="Ebreve" unicode="&#x114;" horiz-adv-x="578" 
d="M377 367c64 0 85 7 99 62c7 6 36 6 41 0c-7 -30 -11 -52 -18 -86s-10 -53 -16 -88c-7 -6 -36 -6 -41 0c6 45 -9 62 -75 62h-78l-44 -227c-5 -27 9 -48 30 -48h97c73 0 127 56 160 128c13 3 33 1 42 -5c-18 -51 -35 -117 -58 -167c0 0 -86 2 -132 2h-226s-102 -1 -149 -2
c-5 6 0 28 7 34c68 3 85 7 101 90l77 400c16 83 2 88 -65 91c-5 6 -1 28 6 34c48 -1 148 -2 148 -2h283c23 0 31 1 48 4c3 0 3 -1 3 -3c0 -8 -14 -104 -17 -145c-10 -5 -30 -7 -42 -5c-8 69 -20 107 -92 107h-82c-23 0 -44 -25 -49 -49l-36 -187h78zM583.6 830
c-16 -71 -86.5996 -125 -152.6 -125c-73 0 -123.2 55 -118.4 125l28.4004 3c2.5 -39 47.4004 -54 100.4 -54c49 0 103.1 15 115.6 54z" />
    <glyph glyph-name="ebreve" unicode="&#x115;" horiz-adv-x="409" 
d="M234.8 667c-5.59961 -54 33.7988 -79 96.7988 -79c47 0 106.2 15 118.2 79l30.5 -10c-24.7998 -105 -108.1 -143 -159.1 -143c-81 0 -125.3 62 -120.899 143zM342.998 370c0 20 -11 28 -32 28c-39 0 -76.7002 -20 -111 -160.7c53 8.7002 143 42.7002 143 132.7z
M192.998 199c-1 -8 -0.999023 -29 -0.999023 -34c0 -67 14 -115 53 -115c48 0 79 16 136 74c12 0 27 -14 32 -25c-59 -76 -137 -109 -204 -109c-120 0 -146 67 -146 152c0 127 77 297 271 297c81 0 122 -35 122 -70c0 -17.7998 -0.5 -51.7998 -31 -81
c-34.4004 -33 -105.801 -61.9004 -232.001 -89z" />
    <glyph glyph-name="Edotaccent" unicode="&#x116;" horiz-adv-x="578" 
d="M365 771c0 34 28 62 62 62s62 -28 62 -62s-28 -62 -62 -62s-62 28 -62 62zM377 367c64 0 85 7 99 62c7 6 36 6 41 0c-7 -30 -11 -52 -18 -86s-10 -53 -16 -88c-7 -6 -36 -6 -41 0c6 45 -9 62 -75 62h-78l-44 -227c-5 -27 9 -48 30 -48h97c73 0 127 56 160 128
c13 3 33 1 42 -5c-18 -51 -35 -117 -58 -167c0 0 -86 2 -132 2h-226s-102 -1 -149 -2c-5 6 0 28 7 34c68 3 85 7 101 90l77 400c16 83 2 88 -65 91c-5 6 -1 28 6 34c48 -1 148 -2 148 -2h283c23 0 31 1 48 4c3 0 3 -1 3 -3c0 -8 -14 -104 -17 -145c-10 -5 -30 -7 -42 -5
c-8 69 -20 107 -92 107h-82c-23 0 -44 -25 -49 -49l-36 -187h78z" />
    <glyph glyph-name="edotaccent" unicode="&#x117;" horiz-adv-x="409" 
d="M276 596c0 30 23 62 70 62c42 0 65 -36 65 -66c0 -26 -26 -62 -71 -62c-40 0 -64 33 -64 66zM343 370c0 20 -11 28 -32 28c-39 0 -76.7002 -20 -111 -160.7c53 8.7002 143 42.7002 143 132.7zM193 199c-1 -8 -0.999023 -29 -0.999023 -34c0 -67 14 -115 53 -115
c48 0 79 16 136 74c12 0 27 -14 32 -25c-59 -76 -137 -109 -204 -109c-120 0 -146 67 -146 152c0 127 77 297 271 297c81 0 122 -35 122 -70c0 -17.7998 -0.5 -51.7998 -31 -81c-34.4004 -33 -105.801 -61.9004 -232.001 -89z" />
    <glyph glyph-name="Eogonek" unicode="&#x118;" horiz-adv-x="578" 
d="M513 -179c-26 -36 -70.001 -55 -109.001 -55c-19.2998 0 -35.5996 6.59961 -50 16c-22.9004 15 -39 40.0996 -39 80c0 49.4004 49.2998 107.7 102.5 137.8c-12.0996 0.0996094 -23.6992 0.199219 -33.499 0.199219h-226s-102 -1 -149 -2c-5 6 0 28 7 34c68 3 85 7 101 90
l77 400c16 83 2 88 -65 91c-5 6 -1 28 6 34c48 -1 148 -2 148 -2h283c23 0 31 1 48 4c3 0 3 -1 3 -3c0 -8 -14 -104 -17 -145c-10 -5 -30 -7 -42 -5c-8 69 -20 107 -92 107h-82c-23 0 -44 -25 -49 -49l-36 -187h78c64 0 85 7 99 62c7 6 36 6 41 0c-7 -30 -11 -52 -18 -86
s-10 -53 -16 -88c-7 -6 -36 -6 -41 0c6 45 -9 62 -75 62h-78l-44 -227c-5 -27 9 -48 30 -48h97c73 0 127 56 160 128c13 3 33 1 42 -5c-18 -51 -35 -117 -58 -167c0 0 -7.59961 0.200195 -19.5 0.400391c-48.7998 -6.59961 -89.5 -67.5996 -89.5 -130.399
c0 -32 17.5 -42 35 -42c17 0 41 3 56 18z" />
    <glyph glyph-name="eogonek" unicode="&#x119;" horiz-adv-x="409" 
d="M356.5 -161c-26 -36 -69.999 -55 -108.999 -55c-50 0 -89 31 -89 86c0 43.7002 34 85.9004 74.2998 121.4c-8 -0.900391 -16 -1.40039 -23.7998 -1.40039c-120 0 -146 67 -146 152c0 127 77 297 271 297c81 0 122 -35 122 -70c0 -17.7998 -0.5 -51.7998 -31 -81
c-34.4004 -33 -105.801 -61.9004 -232.001 -89c-1 -8 -1 -29 -1 -34c0 -67 14 -115 53 -115c48 0 79 16 136 74c12 0 27 -14 32 -25c-27.7998 -35.7998 -59.7998 -62 -92.7998 -79.7998c-42 -39.7998 -69.7002 -80.7002 -69.7002 -143.2c0 -21 17.5 -32 35 -32
c17 0 41 3 56 18zM343.001 370c0 20 -11 28 -32 28c-39 0 -76.7002 -20 -111 -160.7c53 8.7002 143 42.7002 143 132.7z" />
    <glyph glyph-name="Ecaron" unicode="&#x11a;" horiz-adv-x="578" 
d="M377 367c64 0 85 7 99 62c7 6 36 6 41 0c-7 -30 -11 -52 -18 -86s-10 -53 -16 -88c-7 -6 -36 -6 -41 0c6 45 -9 62 -75 62h-78l-44 -227c-5 -27 9 -48 30 -48h97c73 0 127 56 160 128c13 3 33 1 42 -5c-18 -51 -35 -117 -58 -167c0 0 -86 2 -132 2h-226s-102 -1 -149 -2
c-5 6 0 28 7 34c68 3 85 7 101 90l77 400c16 83 2 88 -65 91c-5 6 -1 28 6 34c48 -1 148 -2 148 -2h283c23 0 31 1 48 4c3 0 3 -1 3 -3c0 -8 -14 -104 -17 -145c-10 -5 -30 -7 -42 -5c-8 69 -20 107 -92 107h-82c-23 0 -44 -25 -49 -49l-36 -187h78zM289.9 808
c1.40039 10 10.1016 22 19.7012 26c37.2998 -12 92.0996 -35 116.1 -56c33.0996 22 92.3994 45 130.899 56c8.40039 -4 11.6006 -17 10.2002 -27c-45.7998 -27 -101.8 -69 -141.7 -104l-14.7002 -5c-31.7998 37 -84.2002 84 -120.5 110z" />
    <glyph glyph-name="ecaron" unicode="&#x11b;" horiz-adv-x="409" 
d="M352.7 529h-50c-22.5 46 -54.5 89 -83.9004 129l26.5 18c35.2002 -27 58.5 -46 90.2002 -84c39.0996 36 72 57 114.8 84l21.5 -18c-41.5996 -40 -83.5 -82 -119.1 -129zM343 370c0 20 -11 28 -32 28c-39 0 -76.7002 -20 -111 -160.7c53 8.7002 143 42.7002 143 132.7z
M193 199c-1 -8 -0.999023 -29 -0.999023 -34c0 -67 14 -115 53 -115c48 0 79 16 136 74c12 0 27 -14 32 -25c-59 -76 -137 -109 -204 -109c-120 0 -146 67 -146 152c0 127 77 297 271 297c81 0 122 -35 122 -70c0 -17.7998 -0.5 -51.7998 -31 -81
c-34.4004 -33 -105.801 -61.9004 -232.001 -89z" />
    <glyph glyph-name="Gcircumflex" unicode="&#x11c;" horiz-adv-x="723" 
d="M518 658c117 0 173 -35 231 -35c-7 -72 -10 -122 -10 -164l-44 -6c-8 86 -60 163 -199 163c-47 0 -109 -21 -159 -74c-48 -51 -81 -129 -98 -215c-26 -132 4 -295 175 -295c52 0 79 10 118 42l29 149c8 40 -17 44 -69 48c-5 6 0 31 7 37c45 -1 110 -2 147 -2
c38 0 86 1 115 2c5 -6 0 -31 -7 -37c-28 -3 -47 -13 -54 -48l-22 -117c-2 -11 0 -19 9 -28c-75 -54 -191 -88 -304 -88c-93 0 -181 22 -234 76c-58 58 -77 151 -59 241c21 108 85 198 165 258c82 62 179 93 263 93zM658.1 724c-1.40039 -10 -10.001 -21.7998 -19.7012 -26
c-37.2998 12 -92.0996 35 -116.1 56c-33.0996 -22 -92.3994 -45 -130.899 -56c-8.5 4.2002 -11.5996 17 -10.1992 27c45.7998 27 102.1 69.2002 141.699 104l14.7002 5c31.7002 -36.9004 84.2002 -84 120.5 -110z" />
    <glyph glyph-name="gcircumflex" unicode="&#x11d;" horiz-adv-x="497" 
d="M373.8 663c23.0996 -49 54.8994 -93 86.0996 -134l-27.7002 -19c-39.2998 26 -65.5 46 -95.2998 83c-43.5 -39 -74 -57 -117.7 -83l-22.2998 19c41.7998 41 88.2002 86 124.9 134h52zM171 -13c-25 -18 -77 -52 -77 -100c0 -55 44 -87 156 -87c85 0 102 43 102 73
c0 28 -4 37 -60 63c-33 15 -103 47 -121 51zM445 291c0 -99 -85.001 -159 -172.001 -159c-28 0 -52 7 -68 17c-9 -17 -9.09961 -41.9004 -3 -61c7 -22 53 -40 133 -64c54 -16 122 -59 122 -124c0 -99 -111 -138 -248 -138c-81 0 -212 21 -212 102c0 60 92 105 145 134
c-31 11 -36 41 -36 58c0 35 16 76 64 109c-38 23 -56 74 -56 118c0 80 64 156 176 156c44.2998 0 95 -11 117 -37c35 32 68.4004 43.7002 99.6006 43.7002c27.5996 0 46.7998 -19.2002 46.7998 -40.7998c0 -22.7998 -15.5996 -39.5996 -37.1992 -39.5996
c-19.4004 0 -27.6006 10.7998 -33.6006 20.3994c-3.59961 6 -7.19922 12 -17.999 12c-8.40039 0 -22.6006 -14.7002 -37.6006 -28.7002c14 -20 18 -51 18 -78zM330.999 291c0 68 -2 108 -45 108c-66 0 -58 -45 -58 -117c0 -48 -11 -110 50 -110c60 0 53 57 53 119z" />
    <glyph glyph-name="Gbreve" unicode="&#x11e;" horiz-adv-x="723" 
d="M518 658c117 0 173 -35 231 -35c-7 -72 -10 -122 -10 -164l-44 -6c-8 86 -60 163 -199 163c-47 0 -109 -21 -159 -74c-48 -51 -81 -129 -98 -215c-26 -132 4 -295 175 -295c52 0 79 10 118 42l29 149c8 40 -17 44 -69 48c-5 6 0 31 7 37c45 -1 110 -2 147 -2
c38 0 86 1 115 2c5 -6 0 -31 -7 -37c-28 -3 -47 -13 -54 -48l-22 -117c-2 -11 0 -19 9 -28c-75 -54 -191 -88 -304 -88c-93 0 -181 22 -234 76c-58 58 -77 151 -59 241c21 108 85 198 165 258c82 62 179 93 263 93zM655.6 830c-16 -71 -86.5996 -125 -152.6 -125
c-73 0 -123.2 55 -118.4 125l28.4004 3c2.5 -39 47.4004 -54 100.4 -54c49 0 103.1 15 115.6 54z" />
    <glyph glyph-name="gbreve" unicode="&#x11f;" horiz-adv-x="497" 
d="M254.8 667c-5.59961 -54 33.7988 -79 96.7988 -79c47 0 106.2 15 118.2 79l30.5 -10c-24.7998 -105 -108.1 -143 -159.1 -143c-81 0 -125.3 62 -120.899 143zM170.998 -13c-25 -18 -77 -52 -77 -100c0 -55 44 -87 156 -87c85 0 102 43 102 73c0 28 -4 37 -60 63
c-33 15 -103 47 -121 51zM444.998 291c0 -99 -85.001 -159 -172.001 -159c-28 0 -52 7 -68 17c-9 -17 -9.09961 -41.9004 -3 -61c7 -22 53 -40 133 -64c54 -16 122 -59 122 -124c0 -99 -111 -138 -248 -138c-81 0 -212 21 -212 102c0 60 92 105 145 134
c-31 11 -36 41 -36 58c0 35 16 76 64 109c-38 23 -56 74 -56 118c0 80 64 156 176 156c44.2998 0 95 -11 117 -37c35 32 68.4004 43.7002 99.6006 43.7002c27.5996 0 46.7998 -19.2002 46.7998 -40.7998c0 -22.7998 -15.5996 -39.5996 -37.1992 -39.5996
c-19.4004 0 -27.6006 10.7998 -33.6006 20.3994c-3.59961 6 -7.19922 12 -17.999 12c-8.40039 0 -22.6006 -14.7002 -37.6006 -28.7002c14 -20 18 -51 18 -78zM330.997 291c0 68 -2 108 -45 108c-66 0 -58 -45 -58 -117c0 -48 -11 -110 50 -110c60 0 53 57 53 119z" />
    <glyph glyph-name="Gdotaccent" unicode="&#x120;" horiz-adv-x="723" 
d="M455 771c0 34 28 62 62 62s62 -28 62 -62s-28 -62 -62 -62s-62 28 -62 62zM518 658c117 0 173 -35 231 -35c-7 -72 -10 -122 -10 -164l-44 -6c-8 86 -60 163 -199 163c-47 0 -109 -21 -159 -74c-48 -51 -81 -129 -98 -215c-26 -132 4 -295 175 -295c52 0 79 10 118 42
l29 149c8 40 -17 44 -69 48c-5 6 0 31 7 37c45 -1 110 -2 147 -2c38 0 86 1 115 2c5 -6 0 -31 -7 -37c-28 -3 -47 -13 -54 -48l-22 -117c-2 -11 0 -19 9 -28c-75 -54 -191 -88 -304 -88c-93 0 -181 22 -234 76c-58 58 -77 151 -59 241c21 108 85 198 165 258
c82 62 179 93 263 93z" />
    <glyph glyph-name="gdotaccent" unicode="&#x121;" horiz-adv-x="497" 
d="M171 -13c-25 -18 -77 -52 -77 -100c0 -55 44 -87 156 -87c85 0 102 43 102 73c0 28 -4 37 -60 63c-33 15 -103 47 -121 51zM445 291c0 -99 -85.001 -159 -172.001 -159c-28 0 -52 7 -68 17c-9 -17 -9.09961 -41.9004 -3 -61c7 -22 53 -40 133 -64
c54 -16 122 -59 122 -124c0 -99 -111 -138 -248 -138c-81 0 -212 21 -212 102c0 60 92 105 145 134c-31 11 -36 41 -36 58c0 35 16 76 64 109c-38 23 -56 74 -56 118c0 80 64 156 176 156c44.2998 0 95 -11 117 -37c35 32 68.4004 43.7002 99.6006 43.7002
c27.5996 0 46.7998 -19.2002 46.7998 -40.7998c0 -22.7998 -15.5996 -39.5996 -37.1992 -39.5996c-19.4004 0 -27.6006 10.7998 -33.6006 20.3994c-3.59961 6 -7.19922 12 -17.999 12c-8.40039 0 -22.6006 -14.7002 -37.6006 -28.7002c14 -20 18 -51 18 -78zM330.999 291
c0 68 -2 108 -45 108c-66 0 -58 -45 -58 -117c0 -48 -11 -110 50 -110c60 0 53 57 53 119zM259.999 596c0 30 23 62 70 62c42 0 65 -36 65 -66c0 -26 -26 -62 -71 -62c-40 0 -64 33 -64 66z" />
    <glyph glyph-name="Gcommaaccent" unicode="&#x122;" horiz-adv-x="723" 
d="M518 658c117 0 173 -35 231 -35c-7 -72 -10 -122 -10 -164l-44 -6c-8 86 -60 163 -199 163c-47 0 -109 -21 -159 -74c-48 -51 -81 -129 -98 -215c-26 -132 4 -295 175 -295c52 0 79 10 118 42l29 149c8 40 -17 44 -69 48c-5 6 0 31 7 37c45 -1 110 -2 147 -2
c38 0 86 1 115 2c5 -6 0 -31 -7 -37c-28 -3 -47 -13 -54 -48l-22 -117c-2 -11 0 -19 9 -28c-75 -54 -191 -88 -304 -88c-93 0 -181 22 -234 76c-58 58 -77 151 -59 241c21 108 85 198 165 258c82 62 179 93 263 93zM384.1 -72c32 0 69.999 -15 61.0986 -78
c-8 -57 -65.5996 -97 -135.3 -109c-9.2002 6 -7.7998 16 -2.09961 28c41.5 11 69.9004 35 72.4004 53c2.7998 20 -18 21 -25.7002 23c-21.2998 5 -30.2002 20 -26.7002 45c2.40039 17 33.3008 38 56.3008 38z" />
    <glyph glyph-name="gcommaaccent" unicode="&#x123;" horiz-adv-x="497" 
d="M171 -13c-25 -18 -77 -52 -77 -100c0 -55 44 -87 156 -87c85 0 102 43 102 73c0 28 -4 37 -60 63c-33 15 -103 47 -121 51zM445 291c0 -99 -85.001 -159 -172.001 -159c-28 0 -52 7 -68 17c-9 -17 -9.09961 -41.9004 -3 -61c7 -22 53 -40 133 -64
c54 -16 122 -59 122 -124c0 -99 -111 -138 -248 -138c-81 0 -212 21 -212 102c0 60 92 105 145 134c-31 11 -36 41 -36 58c0 35 16 76 64 109c-38 23 -56 74 -56 118c0 80 64 156 176 156c44.2998 0 95 -11 117 -37c35 32 68.4004 43.7002 99.6006 43.7002
c27.5996 0 46.7998 -19.2002 46.7998 -40.7998c0 -22.7998 -15.5996 -39.5996 -37.1992 -39.5996c-19.4004 0 -27.6006 10.7998 -33.6006 20.3994c-3.59961 6 -7.19922 12 -17.999 12c-8.40039 0 -22.6006 -14.7002 -37.6006 -28.7002c14 -20 18 -51 18 -78zM330.999 291
c0 68 -2 108 -45 108c-66 0 -58 -45 -58 -117c0 -48 -11 -110 50 -110c60 0 53 57 53 119zM309.199 511c-39 0 -54.4004 37 -47.1006 73c4.90039 24 16.3008 46 36.4004 66c21.2002 21.0996 52.7998 38 91.7998 43c3.2002 -4 2.2998 -13 0.899414 -20
c-59.4004 -12 -86 -44 -90.7002 -67c-4 -19.5996 2.2002 -13 26.4004 -13c40 0 45.2002 -24 41.7002 -41c-3.2998 -16 -24.3994 -41 -59.3994 -41z" />
    <glyph glyph-name="Hcircumflex" unicode="&#x124;" horiz-adv-x="735" 
d="M642.1 724c-1.40039 -10 -10.001 -21.7998 -19.7012 -26c-37.2998 12 -92.0996 35 -116.1 56c-33.0996 -22 -92.3994 -45 -130.899 -56c-8.5 4.2002 -11.5996 17 -10.1992 27c45.7998 27 102.1 69.2002 141.699 104l14.7002 5c31.7002 -36.9004 84.2002 -84 120.5 -110z
M594.999 523c16 83 -11 87 -63 90c-8 6 -4 28 7 34c38 -1 110 -2 148 -2s107 1 146 2c8 -6 4 -28 -7 -34c-53 -3 -81 -7 -97 -90l-78 -401c-16 -83 10 -87 62 -90c8 -6 5 -28 -6 -34c-38 1 -108 2 -146 2s-109 -1 -148 -2c-8 6 -4 28 7 34c53 3 81 7 97 90l38.2998 197h-250
l-38.2998 -197c-16 -83 10 -87 62 -90c8 -6 5 -28 -6 -34c-38 1 -108 2 -146 2s-109 -1 -148 -2c-8 6 -4 28 7 34c53 3 81 7 97 90l78 401c16 83 -11 87 -63 90c-8 6 -4 28 7 34c38 -1 110 -2 148 -2s107 1 146 2c8 -6 4 -28 -7 -34c-53 -3 -81 -7 -97 -90l-30.2998 -156
h250z" />
    <glyph glyph-name="hcircumflex" unicode="&#x125;" horiz-adv-x="620" 
d="M225.9 72c-8.59961 -39 -7.89941 -82 -68.8994 -82c-56 0 -65.9004 10.5 -65.9004 27.2002c0 9.7998 7.40039 31.0996 12.7002 54.7998l110.2 491c15.5 69.0996 0 75 -62 75c-3 9 -1 22 5 34c43 7 135 26 166 26c23 0 30 -12 30 -33c0 -20 -8 -49 -15 -82
l-58.2002 -265.1c88.5 101.1 152.5 121.1 203.2 121.1c39 0 89 -20 89 -80c0 -18 -4.7002 -41.0996 -13 -76l-38 -159c-6.2998 -25.5996 -13.2998 -61 4 -61c10 0 44 17 70 47c14 0 26 -19 29 -28c-46 -59 -115.5 -92 -185 -92c-30 0 -41.5 12.5 -49 33
c-6.5 17.7998 -0.799805 60.2002 7 92l37 160c7.90039 34 9 44 9 58c0 31 -14 36 -35 36c-35.4004 0 -85.4004 -57.2002 -147.101 -137.2zM626.101 724c-1.40039 -10 -10.001 -21.7998 -19.7012 -26c-37.2998 12 -92.0996 35 -116.1 56
c-33.0996 -22 -92.3994 -45 -130.899 -56c-8.5 4.2002 -11.5996 17 -10.1992 27c45.7998 27 102.1 69.2002 141.699 104l14.7002 5c31.7002 -36.9004 84.2002 -84 120.5 -110z" />
    <glyph glyph-name="Hbar" unicode="&#x126;" horiz-adv-x="735" 
d="M589 492h-250l-24.2998 -125h250zM345.6 526h250.002c14.7998 80.0996 -12.2002 84 -63.6006 87c-8 6 -4 28 7 34c38 -1 110 -2 148 -2s107 1 146 2c8 -6 4 -28 -7 -34c-52.4004 -3 -80.3008 -6.90039 -96.4004 -87h52.4004l-7 -34h-52l-72 -370c-16 -83 10 -87 62 -90
c8 -6 5 -28 -6 -34c-38 1 -108 2 -146 2s-109 -1 -148 -2c-8 6 -4 28 7 34c53 3 81 7 97 90l38.2998 197h-250l-38.2998 -197c-16 -83 10 -87 62 -90c8 -6 5 -28 -6 -34c-38 1 -108 2 -146 2s-109 -1 -148 -2c-8 6 -4 28 7 34c53 3 81 7 97 90l72 370h-60l7 34h59.5996
c14.7998 80.0996 -12.2002 84 -63.6006 87c-8 6 -4 28 7 34c38 -1 110 -2 148 -2s107 1 146 2c8 -6 4 -28 -7 -34c-52.4004 -3 -80.3008 -6.90039 -96.4004 -87z" />
    <glyph glyph-name="hbar" unicode="&#x127;" horiz-adv-x="620" 
d="M225.9 72c-8.59961 -39 -7.90039 -82 -68.9004 -82c-56 0 -65.9004 10.5 -65.9004 27.2002c0 9.7998 7.40039 31.0996 12.7002 54.7998l102.8 458h-63.5996l9 39h63.2998c13.2002 63.5 -3.09961 69 -63.2998 69c-3 9 -1 22 5 34c43 7 135 26 166 26c23 0 30 -12 30 -33
c0 -20 -8 -49 -15 -82l-3.09961 -14h110.1l-9 -39h-109.6l-46.5996 -212.1c88.5 101.1 152.5 121.1 203.2 121.1c39 0 89 -20 89 -80c0 -18 -4.7002 -41.0996 -13 -76l-38 -159c-6.2998 -25.5996 -13.2998 -61 4 -61c10 0 44 17 70 47c14 0 26 -19 29 -28
c-46 -59 -115.5 -92 -185 -92c-30 0 -41.5 12.5 -49 33c-6.5 17.7998 -0.799805 60.2002 7 92l37 160c7.90039 34 9 44 9 58c0 31 -14 36 -35 36c-35.4004 0 -85.4004 -57.2002 -147.101 -137.2z" />
    <glyph glyph-name="Itilde" unicode="&#x128;" horiz-adv-x="351" 
d="M393 767c14 0 36 7 55.0996 43c14 0 26.9004 -8 25.2002 -20c-25.2002 -58 -67.1006 -93 -104.101 -93c-23 0 -44.0996 6 -62 21c-18.2002 13 -37.7002 17 -55.7002 17c-22 0 -38.2998 -2 -54.5996 -40c-12 0 -25.5 4 -23.5 18c23.2002 51 61.1006 93 96.1006 93
c31 0 52.7002 -9 70.5 -25c16 -14 42 -14 53 -14zM211 523c16 83 -11 87 -63 90c-8 6 -4 28 7 34c38 -1 110 -2 148 -2s107 1 146 2c8 -6 4 -28 -7 -34c-53 -3 -81 -7 -97 -90l-78 -401c-16 -83 10 -87 62 -90c8 -6 5 -28 -6 -34c-38 1 -108 2 -146 2s-109 -1 -148 -2
c-8 6 -4 28 7 34c53 3 81 7 97 90z" />
    <glyph glyph-name="itilde" unicode="&#x129;" horiz-adv-x="342" 
d="M313 589c14 0 36 7 55.0996 43c14 0 26.9004 -8 25.2002 -20c-25.2002 -58 -67.1006 -93 -104.101 -93c-23 0 -44.0996 6 -62 21c-18.2002 13 -37.7002 17 -55.7002 17c-22 0 -38.2998 -2 -54.5996 -40c-12 0 -25.5 4 -23.5 18c23.2002 51 61.1006 93 96.1006 93
c31 0 52.7002 -9 70.5 -25c16 -14 42 -14 53 -14zM293.3 320.2l-42.2988 -196.2c-5.90039 -25.5996 -13.3008 -61 3.99902 -61c10 0 44 17 70 47c14 0 26 -19 29 -28c-46 -59 -115.5 -92 -185 -92c-30 0 -41.5 12.5 -49 33c-6.5 17.7998 0 60 7 92l44 206
c5.59961 26 6 31.9004 6 41c0 10 -6 19.0996 -18 20l-40 3c-6 9 -4.7002 30 2 38c47 6 140 13 172 13c13.2002 0 20.5 -7.40039 20.5 -21.1006c0 -17.0996 -11.7002 -55.3994 -20.2002 -94.6992z" />
    <glyph glyph-name="Imacron" unicode="&#x12a;" horiz-adv-x="351" 
d="M211 523c16 83 -11 87 -63 90c-8 6 -4 28 7 34c38 -1 110 -2 148 -2s107 1 146 2c8 -6 4 -28 -7 -34c-53 -3 -81 -7 -97 -90l-78 -401c-16 -83 10 -87 62 -90c8 -6 5 -28 -6 -34c-38 1 -108 2 -146 2s-109 -1 -148 -2c-8 6 -4 28 7 34c53 3 81 7 97 90zM442.5 731h-244
c-9 0 -11.4004 8 -10 15c2.40039 12 16.9004 29 27.9004 29h245c10 0 12.4004 -8 11.2002 -14c-2.40039 -12 -17.1006 -30 -30.1006 -30z" />
    <glyph glyph-name="imacron" unicode="&#x12b;" horiz-adv-x="342" 
d="M293.3 320.2l-42.2988 -196.2c-5.90039 -25.5996 -13.3008 -61 3.99902 -61c10 0 44 17 70 47c14 0 26 -19 29 -28c-46 -59 -115.5 -92 -185 -92c-30 0 -41.5 12.5 -49 33c-6.5 17.7998 0 60 7 92l44 206c5.59961 26 6 31.9004 6 41c0 10 -6 19.0996 -18 20l-40 3
c-6 9 -4.7002 30 2 38c47 6 140 13 172 13c13.2002 0 20.5 -7.40039 20.5 -21.1006c0 -17.0996 -11.7002 -55.3994 -20.2002 -94.6992zM377.401 538h-219.601c-8.09961 0 -10.1992 8 -8.89941 15c2.2002 12 15.2002 29 25.1006 29h220.5c9 0 11.0996 -8 10 -14
c-2.2002 -12 -15.4004 -30 -27.1006 -30z" />
    <glyph glyph-name="Ibreve" unicode="&#x12c;" horiz-adv-x="351" 
d="M211 523c16 83 -11 87 -63 90c-8 6 -4 28 7 34c38 -1 110 -2 148 -2s107 1 146 2c8 -6 4 -28 -7 -34c-53 -3 -81 -7 -97 -90l-78 -401c-16 -83 10 -87 62 -90c8 -6 5 -28 -6 -34c-38 1 -108 2 -146 2s-109 -1 -148 -2c-8 6 -4 28 7 34c53 3 81 7 97 90zM481.6 830
c-16 -71 -86.5996 -125 -152.6 -125c-73 0 -123.2 55 -118.4 125l28.4004 3c2.5 -39 47.4004 -54 100.4 -54c49 0 103.1 15 115.6 54z" />
    <glyph glyph-name="ibreve" unicode="&#x12d;" horiz-adv-x="342" 
d="M194.8 667c-5.59961 -54 33.7988 -79 96.7988 -79c47 0 106.2 15 118.2 79l30.5 -10c-24.7998 -105 -108.1 -143 -159.1 -143c-81 0 -125.3 62 -120.899 143zM293.298 320.2l-42.2988 -196.2c-5.90039 -25.5996 -13.3008 -61 3.99902 -61c10 0 44 17 70 47
c14 0 26 -19 29 -28c-46 -59 -115.5 -92 -185 -92c-30 0 -41.5 12.5 -49 33c-6.5 17.7998 0 60 7 92l44 206c5.59961 26 6 31.9004 6 41c0 10 -6 19.0996 -18 20l-40 3c-6 9 -4.7002 30 2 38c47 6 140 13 172 13c13.2002 0 20.5 -7.40039 20.5 -21.1006
c0 -17.0996 -11.7002 -55.3994 -20.2002 -94.6992z" />
    <glyph glyph-name="Iogonek" unicode="&#x12e;" horiz-adv-x="351" 
d="M320 -179c-26 -36 -70 -54.999 -109 -54.999c-19.2998 0 -35.5996 6.59961 -50 16c-22.9004 15 -39 40.0996 -39 80c0 49.2998 49.0996 107.6 102.3 137.699c-17.7998 0.200195 -34.3994 0.299805 -47.2998 0.299805c-38 0 -109 -1 -148 -2c-8 6 -4 28 7 34
c53 3 81 7 97 90l78 401c16 83 -11 87 -63 90c-8 6 -4 28 7 34c38 -1 110 -2 148 -2s107 1 146 2c8 -6 4 -28 -7 -34c-53 -3 -81 -7 -97 -90l-78 -401c-16 -83 10 -87 62 -90c8 -6 5 -28 -6 -34c-5.7998 0.200195 -12.2998 0.400391 -19.2998 0.5
c-48.9004 -6.5 -89.7002 -67.5996 -89.7002 -130.5c0 -32 17.5 -42 35 -42c17 0 41 3 56 18z" />
    <glyph glyph-name="iogonek" unicode="&#x12f;" horiz-adv-x="342" 
d="M321.5 -161c-26 -36 -70 -55 -109 -55c-50 0 -89 31 -89 86c0 44 34.4004 86.4004 75 122c-9.7998 -1.2998 -19.7002 -2 -29.5 -2c-30 0 -41.5 12.5 -49 33c-6.5 17.7998 0 60 7 92l44 206c5.59961 26 6 31.9004 6 41c0 10 -6 19.0996 -18 20l-40 3c-6 9 -4.7002 30 2 38
c47 6 140 13 172 13c13.2002 0 20.5 -7.40039 20.5 -21.1006c0 -17.0996 -11.7002 -55.3994 -20.2002 -94.6992l-42.2998 -196.2c-5.90039 -25.5996 -13.3008 -61 3.99902 -61c10 0 44 17 70 47c14 0 26 -19 29 -28c-17.5996 -22.5 -38.5996 -41.2002 -61.6992 -55.7998
l0.200195 -0.200195c-46 -42 -77 -84 -77 -150c0 -21 17.5 -32 35 -32c17 0 41 3 56 18zM199 596c0 30 23 62 70 62c42 0 65 -36 65 -66c0 -26 -26 -62 -71 -62c-40 0 -64 33 -64 66z" />
    <glyph glyph-name="Idotaccent" unicode="&#x130;" horiz-adv-x="351" 
d="M211 523c16 83 -11 87 -63 90c-8 6 -4 28 7 34c38 -1 110 -2 148 -2s107 1 146 2c8 -6 4 -28 -7 -34c-53 -3 -81 -7 -97 -90l-78 -401c-16 -83 10 -87 62 -90c8 -6 5 -28 -6 -34c-38 1 -108 2 -146 2s-109 -1 -148 -2c-8 6 -4 28 7 34c53 3 81 7 97 90zM260 771
c0 34 28 62 62 62s62 -28 62 -62s-28 -62 -62 -62s-62 28 -62 62z" />
    <glyph glyph-name="dotlessi" unicode="&#x131;" horiz-adv-x="342" 
d="M293.3 320.2l-42.2988 -196.2c-5.90039 -25.5996 -13.3008 -61 3.99902 -61c10 0 44 17 70 47c14 0 26 -19 29 -28c-46 -59 -115.5 -92 -185 -92c-30 0 -41.5 12.5 -49 33c-6.5 17.7998 0 60 7 92l44 206c5.59961 26 6 31.9004 6 41c0 10 -6 19.0996 -18 20l-40 3
c-6 9 -4.7002 30 2 38c47 6 140 13 172 13c13.2002 0 20.5 -7.40039 20.5 -21.1006c0 -17.0996 -11.7002 -55.3994 -20.2002 -94.6992z" />
    <glyph glyph-name="IJ" unicode="&#x132;" horiz-adv-x="711" 
d="M211 523c16 83 -11 87 -63 90c-8 6 -4 28 7 34c38 -1 110 -2 148 -2s107 1 146 2c8 -6 4 -28 -7 -34c-53 -3 -81 -7 -97 -90l-78 -401c-16 -83 10 -87 62 -90c8 -6 5 -28 -6 -34c-38 1 -108 2 -146 2s-109 -1 -148 -2c-8 6 -4 28 7 34c53 3 81 7 97 90zM714.7 522
l-92.9014 -419c-31.7002 -143 -101.2 -195 -153.4 -232c-48.7998 -35 -104.899 -58 -163.899 -58c-29 0 -92.5996 24 -82.1992 71c6.40039 29 52.4004 56 70.4004 56c40 0 38.7998 -28 48 -45c7.09961 -13 22.8994 -23 40.8994 -23c43 0 55.5 29 95.4004 209l97.7002 441
c18.4004 83 2.5 88 -76.7998 91c-4.7002 6 0.200195 28 7.5 34c49.7998 -1 100.6 -2 165.6 -2c58 0 99.2002 1 148.4 2c4.7002 -6 -0.200195 -28 -7.5 -34c-60.7002 -3 -78.7998 -8 -97.2002 -91z" />
    <glyph glyph-name="ij" unicode="&#x133;" horiz-adv-x="623" 
d="M192 321c6.59961 28 5.99902 31.9004 5.99902 41c0 10 -6 19.0996 -18 20l-40 3c-6 9 -4.7002 30 2 38c47 6 140 13 172 13c13.2002 0 20.5 -7.40039 20.5 -21.1006c0 -17.0996 -11.0996 -55.5996 -20.1992 -94.6992l-37.7002 -162.2
c-9.59961 -41.2998 -5.2998 -82 31 -82c35.2998 0 70.5996 45.2002 131.399 124.3l25 120.7c5.90039 28.4004 6 31.9004 6 41c0 10 -6 19.0996 -18 20l-40 3c-6 9 -4.7002 30 2 38c47 6 140 13 172 13c13.2002 0 20.5 -7.40039 20.5 -21.1006
c0 -17.0996 -12.2998 -54.5996 -20.2002 -94.6992l-16.7998 -85.2002c-51.5 -243.1 -92.5 -441.8 -261.3 -441.8c-59.4004 0 -110.7 16.2002 -110.7 62.6006c0 30.5996 21.4004 45 39.2002 45c66.5996 0 53.0996 -72.4004 89.7998 -72.4004
c24.2998 0 40.5 29.5996 62.5 115.6c14 54.7998 21 104.2 32.7002 168.5c-86.0996 -98.0996 -139 -118.5 -189.1 -118.5c-39 0 -89 22 -89 82c0 18 -0.200195 39.0996 8 74zM231.999 596c0 30 23 62 70 62c42 0 65 -36 65 -66c0 -26 -26 -62 -71 -62c-40 0 -64 33 -64 66z
M496.999 596c0 30 23 62 70 62c42 0 65 -36 65 -66c0 -26 -26 -62 -71 -62c-40 0 -64 33 -64 66z" />
    <glyph glyph-name="Jcircumflex" unicode="&#x134;" horiz-adv-x="359" 
d="M373 522l-82 -419c-28 -143 -94 -195 -143 -232c-46 -35 -99 -58 -156 -58c-28 0 -89 24 -80 71c6 29 49 56 66 56c38 0 38 -28 47 -45c7 -13 23 -23 40 -23c41 0 53 29 88 209l85 441c16 83 1 88 -75 91c-5 6 -1 28 6 34c48 -1 97 -2 159 -2c56 0 96 1 143 2
c5 -6 0 -28 -7 -34c-58 -3 -75 -8 -91 -91zM476.1 724c-1.40039 -10 -10.001 -21.7998 -19.7012 -26c-37.2998 12 -92.0996 35 -116.1 56c-33.0996 -22 -92.3994 -45 -130.899 -56c-8.5 4.2002 -11.5996 17 -10.1992 27c45.7998 27 102.1 69.2002 141.699 104l14.7002 5
c31.7002 -36.9004 84.2002 -84 120.5 -110z" />
    <glyph glyph-name="jcircumflex" unicode="&#x135;" horiz-adv-x="330" 
d="M309.8 663c23.0996 -49 54.8994 -93 86.0996 -134l-27.7002 -19c-39.2998 26 -65.5 46 -95.2998 83c-43.5 -39 -74 -57 -117.7 -83l-22.2998 19c41.7998 41 88.2002 86 124.9 134h52zM141 176l30 145c5.90039 28.4004 6 31.9004 6 41c0 10 -6 19.0996 -18 20l-40 3
c-6 9 -4.7002 30 2 38c47 6 140 13 172 13c13.2002 0 20.5 -7.40039 20.5 -21.1006c0 -17.0996 -12.2998 -54.5996 -20.2002 -94.6992l-16.7998 -85.2002c-51.5 -243.1 -92.5 -441.8 -261.3 -441.8c-59.4004 0 -110.7 16.2002 -110.7 62.6006
c0 30.5996 21.4004 45 39.2002 45c66.5996 0 53.0996 -72.4004 89.7998 -72.4004c24.2998 0 40.5 29.5996 62.5 115.6c18.2998 71.5 24.7002 134 45 232z" />
    <glyph glyph-name="Kcommaaccent" unicode="&#x136;" horiz-adv-x="706" 
d="M211 523c16 83 -11 87 -63 90c-8 6 -4 28 7 34c38 -1 110 -2 148 -2s107 1 146 2c8 -6 4 -28 -7 -34c-53 -3 -81 -7 -97 -90l-33.2002 -170.8c31.5 5 59.5 24.2998 127.2 77.7998c0 0 85 63 121 95c58 51 67 82 12 88c-5 6 0 28 7 34c45 -1 80 -2 118 -2s46 1 91 2
c5 -6 1 -28 -6 -34c-74 -9 -119 -54 -189 -109l-123 -97c-18 -14 -16 -22 -17 -29c-2 -8 7 -25 20 -45l160 -259c19 -30 38 -38 66 -42c5 -6 1 -28 -6 -34c-45 1 -69 2 -106 2c-29 0 -87 -1 -106 -2c-4 0 -4 3 -4 6c1 16 -7 44 -21 70l-107 197
c-13.0996 23.5 -20.7998 34.9004 -45.7002 37.4004l-36.2998 -186.4c-16 -83 10 -87 62 -90c8 -6 5 -28 -6 -34c-38 1 -108 2 -146 2s-109 -1 -148 -2c-8 6 -4 28 7 34c53 3 81 7 97 90zM364.1 -49c32 0 69.999 -15 61.0986 -78c-8 -57 -65.5996 -97 -135.3 -109
c-9.2002 6 -7.7998 16 -2.09961 28c41.5 11 69.9004 35 72.4004 53c2.7998 20 -18 21 -25.7002 23c-21.2998 5 -30.2002 20 -26.7002 45c2.40039 17 33.3008 38 56.3008 38z" />
    <glyph glyph-name="kcommaaccent" unicode="&#x137;" horiz-adv-x="560" 
d="M220.9 72c-8.59961 -39 -7.90039 -81.998 -68.9004 -81.998c-56 0 -65.9004 10.5 -65.9004 27.2002c0 9.7998 7.40039 31.0996 12.7002 54.7998l110.2 491c15.5 69.0996 0 75 -62 75c-3 9 -1 22 5 34c43 7 135 26 166 26c23 0 30 -12 30 -33c0 -20 -8 -49 -15 -82
l-68.0996 -310.3c18.2998 3.2998 36.2002 17.2002 51.1006 30l40 34.2998c72 64 143 102 175 102c44.4004 0 65 -32.7002 65 -58.9004c0 -33.7998 -21.5996 -70 -54 -70c-16.7998 0 -32.3994 16.2998 -40.7998 26.2998c-7.2002 8.7998 -13.2002 15 -25.2002 15
c-20 0 -43.9004 -7 -76 -35.4004l-52 -46l1 -4c33 -9 50.2998 -32.5996 66 -64c14 -28 23 -56 41 -112c7 -21.7998 13.4004 -38 32.5 -38c11 0 31.5 13 51.5 42c11 0 23 -9 30 -17c-30 -61.5 -86 -87 -137 -87c-41 0 -66 31 -98.5996 103
c-20.4004 45.2002 -25.4004 96 -43.4004 128c-5 9 -12 16.2998 -19.5996 16.2998c-4.90039 0 -9.60059 -0.200195 -14.501 -1.10059zM280.1 -45.998c32 0 69.999 -15 61.0986 -78c-8 -57 -65.5996 -97 -135.3 -109c-9.2002 6 -7.7998 16 -2.09961 28
c41.5 11 69.9004 35 72.4004 53c2.7998 20 -18 21 -25.7002 23c-21.2998 5 -30.2002 20 -26.7002 45c2.40039 17 33.3008 38 56.3008 38z" />
    <glyph glyph-name="kgreenlandic" unicode="&#x138;" horiz-adv-x="560" 
d="M471 354c-20 0 -30.9004 -5.99805 -61 -37.998l-62 -66l1 -4c33 -9 37.7998 -14.7002 58.5 -43c13.5 -18.5 35.5 -78 46.5 -113c6.90039 -21.7998 15.4004 -38 30.5 -38c11 0 31.5 13 51.5 42c11 0 23 -9 30 -17c-30 -61.5 -86 -87 -137 -87c-41 0 -62 31 -94.5996 103
c-20.4004 45.2002 -22.4004 69 -40.4004 101c-9.09961 16.0996 -24.5 19.8994 -44.0996 19.999c-10.2998 -47.4004 -20.5996 -94.7002 -31 -142c-8.5 -39.0996 -7.90039 -82 -68.9004 -82c-56 0 -65.9004 10.5 -65.9004 27.2002c0 9.7998 8.40039 34.8994 12.7002 54.7998
l54.2002 249c4.7002 21.5996 6 31.8994 6 40.999c0 10 -6.5 19.0996 -18 20l-40 3c-6 9 -4.7002 30 2 38c47 6 137 13 169 13c13.2002 0 20.5 -7.40039 20.5 -21.1006c0 -17.2998 -10.5 -61.5996 -19.5 -103.899c-4.2002 -19.5996 -8.5 -39.2998 -12.7998 -58.8994
c22 1.7998 41.9004 13.3994 57.8008 30.5996l50 54.2998c64.2998 69.7998 121.399 102 170.999 102c44.4004 0 65 -32.7002 65 -58.9004c0 -33.7998 -24.5996 -61 -57 -61c-16.7998 0 -38 5.90039 -47.7998 17.3008c-7.40039 8.59961 -14.2002 17.5996 -26.2002 17.5996z
" />
    <glyph glyph-name="Lacute" unicode="&#x139;" horiz-adv-x="552" 
d="M343 42c101 0 147 56 180 128c12 2 32 0 40 -5c-16 -52 -38 -117 -57 -167c0 0 -87 2 -115 2h-214c-37 0 -148 -2 -148 -2c-8 6 -4 28 7 34c53 3 81 7 97 90l78 401c16 83 -11 87 -63 90c-8 6 -4 28 7 34c0 0 110 -2 148 -2s67 1 146 2c8 -6 4 -28 -7 -34
c-53 -3 -81 -7 -97 -90l-78 -402c-12 -60 -2 -79 18 -79h58zM491.3 833c23.2002 -11.5996 47.2998 -34.4004 57.2002 -55l-4.59961 -12l-152.2 -58c-15.2998 -5.7998 -27 -7 -36 -7s-19 7 -17.9004 15c1 7 2.09961 12.7002 13 21c23.5 18 96.5996 68 140.5 96z" />
    <glyph glyph-name="lacute" unicode="&#x13a;" horiz-adv-x="324" 
d="M208 563c16 69 0.000976562 75 -61.999 75c-3 9 -1 22 5 34c43 7 135 26 166 26c23 0 30 -12 30 -33c0 -20 -8 -49 -15 -82l-101 -456c-3.09961 -13.7998 -6.59961 -30.3994 -6.59961 -42.7998c0 -10.7002 2.59961 -18.2002 10.5996 -18.2002c10 0 44 17 70 47
c14 0 26 -19 29 -28c-50 -55 -116.5 -95 -186 -95c-35.9004 0 -50.7002 22.7002 -50.7002 57.1006c0 20.5996 4.59961 48.2998 9.69922 70.8994zM341.301 863c23.2002 -11.5996 47.2998 -34.4004 57.2002 -55l-4.59961 -12l-152.2 -58c-15.2998 -5.7998 -27 -7 -36 -7
s-19 7 -17.9004 15c1 7 2.09961 12.7002 13 21c23.5 18 96.5996 68 140.5 96z" />
    <glyph glyph-name="Lcommaaccent" unicode="&#x13b;" horiz-adv-x="552" 
d="M343 42c101 0 147 56 180 128c12 2 32 0 40 -5c-16 -52 -38 -117 -57 -167c0 0 -87 2 -115 2h-214c-37 0 -148 -2 -148 -2c-8 6 -4 28 7 34c53 3 81 7 97 90l78 401c16 83 -11 87 -63 90c-8 6 -4 28 7 34c0 0 110 -2 148 -2s67 1 146 2c8 -6 4 -28 -7 -34
c-53 -3 -81 -7 -97 -90l-78 -402c-12 -60 -2 -79 18 -79h58zM276.1 -53c32 0 69.999 -15 61.0986 -78c-8 -57 -65.5996 -97 -135.3 -109c-9.2002 6 -7.7998 16 -2.09961 28c41.5 11 69.9004 35 72.4004 53c2.7998 20 -18 21 -25.7002 23c-21.2998 5 -30.2002 20 -26.7002 45
c2.40039 17 33.3008 38 56.3008 38z" />
    <glyph glyph-name="lcommaaccent" unicode="&#x13c;" horiz-adv-x="324" 
d="M164.1 -60c32 0 69.999 -15 61.0986 -78c-8 -57 -65.5996 -97 -135.3 -109c-9.2002 6 -7.7998 16 -2.09961 28c41.5 11 69.9004 35 72.4004 53c2.7998 20 -18 21 -25.7002 23c-21.2998 5 -30.2002 20 -26.7002 45c2.40039 17 33.3008 38 56.3008 38zM207.999 563
c16 69 0.000976562 75 -61.999 75c-3 9 -1 22 5 34c43 7 135 26 166 26c23 0 30 -12 30 -33c0 -20 -8 -49 -15 -82l-101 -456c-3.09961 -13.7998 -6.59961 -30.3994 -6.59961 -42.7998c0 -10.7002 2.59961 -18.2002 10.5996 -18.2002c10 0 44 17 70 47c14 0 26 -19 29 -28
c-50 -55 -116.5 -95 -186 -95c-35.9004 0 -50.7002 22.7002 -50.7002 57.1006c0 20.5996 4.59961 48.2998 9.69922 70.8994z" />
    <glyph glyph-name="Lcaron" unicode="&#x13d;" horiz-adv-x="552" 
d="M343 42c101 0 147 56 180 128c12 2 32 0 40 -5c-16 -52 -38 -117 -57 -167c0 0 -87 2 -115 2h-214c-37 0 -148 -2 -148 -2c-8 6 -4 28 7 34c53 3 81 7 97 90l78 401c16 83 -11 87 -63 90c-8 6 -4 28 7 34c0 0 110 -2 148 -2s67 1 146 2c8 -6 4 -28 -7 -34
c-53 -3 -81 -7 -97 -90l-78 -402c-12 -60 -2 -79 18 -79h58zM552.7 698c38 0 52.3994 -37 45.0996 -73s-52 -98 -123.6 -106l-1.5 17c43.7998 9 72.2998 46 77 69c2.59961 13 -1.7002 21 -9.7002 21c-41 0 -41.5996 22 -38.2998 38s21 34 51 34z" />
    <glyph glyph-name="lcaron" unicode="&#x13e;" horiz-adv-x="350" 
d="M208 563c16 69 0.000976562 75 -61.999 75c-3 9 -1 22 5 34c43 7 135 26 166 26c23 0 30 -12 30 -33c0 -20 -8 -49 -15 -82l-101 -456c-3.09961 -13.7998 -6.59961 -30.3994 -6.59961 -42.7998c0 -10.7002 2.59961 -18.2002 10.5996 -18.2002c10 0 44 17 70 47
c14 0 26 -19 29 -28c-50 -55 -116.5 -95 -186 -95c-35.9004 0 -50.7002 22.7002 -50.7002 57.1006c0 20.5996 4.59961 48.2998 9.69922 70.8994zM457.701 698c38 0 52.3994 -37 45.0996 -73s-52 -98 -123.6 -106l-1.5 17c43.7998 9 72.2998 46 77 69
c2.59961 13 -1.7002 21 -9.7002 21c-41 0 -41.5996 22 -38.2998 38s21 34 51 34z" />
    <glyph glyph-name="Ldot" unicode="&#x13f;" horiz-adv-x="552" 
d="M343 42c101 0 147 56 180 128c12 2 32 0 40 -5c-16 -52 -38 -117 -57 -167c0 0 -87 2 -115 2h-214c-37 0 -148 -2 -148 -2c-8 6 -4 28 7 34c53 3 81 7 97 90l78 401c16 83 -11 87 -63 90c-8 6 -4 28 7 34c0 0 110 -2 148 -2s67 1 146 2c8 -6 4 -28 -7 -34
c-53 -3 -81 -7 -97 -90l-78 -402c-12 -60 -2 -79 18 -79h58zM430 385c0 30 23 62 70 62c42 0 65 -36 65 -66c0 -26 -26 -62 -71 -62c-40 0 -64 33 -64 66z" />
    <glyph glyph-name="ldot" unicode="&#x140;" horiz-adv-x="389" 
d="M341 360c0 25 22 49 48 49c24 0 48 -22 48 -49c0 -25 -21 -47 -48 -47c-29 0 -48 23 -48 47zM208 563c16 69 0.000976562 75 -61.999 75c-3 9 -1 22 5 34c43 7 135 26 166 26c23 0 30 -12 30 -33c0 -20 -8 -49 -15 -82l-101 -456
c-3.09961 -13.7998 -6.59961 -30.3994 -6.59961 -42.7998c0 -10.7002 2.59961 -18.2002 10.5996 -18.2002c10 0 44 17 70 47c14 0 26 -19 29 -28c-50 -55 -116.5 -95 -186 -95c-35.9004 0 -50.7002 22.7002 -50.7002 57.1006c0 20.5996 4.59961 48.2998 9.69922 70.8994z
" />
    <glyph glyph-name="Lslash" unicode="&#x141;" horiz-adv-x="552" 
d="M393 449l11 -30l-88.2998 -46.7998l-48.7002 -251.2c-12 -60 -2 -79 18 -79h58c101 0 147 56 180 128c12 2 32 0 40 -5c-16 -52 -38 -117 -57 -167c0 0 -87 2 -115 2h-214c-37 0 -148 -2 -148 -2c-8 6 -4 28 7 34c53 3 81 7 97 90l33.2002 170.9l-92.2002 -48.9004
l-11 31l111.2 58.5996l36.7998 189.4c16 83 -11 87 -63 90c-8 6 -4 28 7 34c0 0 110 -2 148 -2s67 1 146 2c8 -6 4 -28 -7 -34c-53 -3 -81 -7 -97 -90l-21.5 -110.6z" />
    <glyph glyph-name="lslash" unicode="&#x142;" horiz-adv-x="324" 
d="M371 438l9.00098 -30l-96.5 -44.0996l-52.5 -236.9c-3.09961 -13.7998 -6.59961 -30.3994 -6.59961 -42.7998c0 -10.7002 2.59961 -18.2002 10.5996 -18.2002c10 0 44 17 70 47c14 0 26 -19 29 -28c-50 -55 -116.5 -95 -186 -95
c-35.9004 0 -50.7002 22.7002 -50.7002 57.1006c0 20.5996 4.59961 48.2998 9.69922 70.8994l41.7998 184.4l-70.7998 -32.4004l-9 29l88.2998 40.5996l50.7002 223.4c16 69 0 75 -62 75c-3 9 -1 22 5 34c43 7 135 26 166 26c23 0 30 -12 30 -33c0 -20 -8 -49 -15 -82
l-40.2002 -181.4z" />
    <glyph glyph-name="Nacute" unicode="&#x143;" horiz-adv-x="709" 
d="M614 0c-19 -9 -37 -12 -71 -12c0 0 -16 19 -30 44l-245 398c-8 13 -14 20 -18 20c-6 0 -10 -10 -12 -20l-58 -297c-18 -91 -2 -94 64 -101c5 -6 0 -28 -7 -34c-48 1 -70 2 -115 2c-42 0 -61 -1 -108 -2c-5 6 -1 28 6 34c69 7 87 12 104 101l81 417c-1 26 -23 60 -64 63
c-5 6 0 28 7 34l164 -2l66 -105l193 -312c10 -16 22 -23 27 3l54 281c18 91 2 94 -64 101c-5 6 0 28 7 34c48 -1 71 -2 116 -2c42 0 61 1 108 2c5 -6 0 -28 -7 -34c-69 -7 -86 -12 -103 -101l-80 -410c-6 -31 -15 -102 -15 -102zM576.3 833
c23.2002 -11.5996 47.2998 -34.4004 57.2002 -55l-4.59961 -12l-152.2 -58c-15.2998 -5.7998 -27 -7 -36 -7s-19 7 -17.9004 15c1 7 2.09961 12.7002 13 21c23.5 18 96.5996 68 140.5 96z" />
    <glyph glyph-name="nacute" unicode="&#x144;" horiz-adv-x="614" 
d="M140 243c14.7002 65.7998 15 98.0996 15 109c0 11.7002 -3.59961 28.9004 -18 30l-40 3c-6 9 -4.7002 30 2 38c47 6 134 13 166 13c13.2002 0 23.5 -10.4004 23.5 -24.1006c0 -17.2998 -3.5 -58.5996 -12.5 -100.899l2 -2c92 108 145.3 130 209 130c39 0 89 -20 89 -80
c0 -18 -4.7002 -41.0996 -13 -76l-38 -159c-6.2998 -25.5996 -13.2998 -61 4 -61c10 0 44 17 70 47c14 0 26 -19 29 -28c-46 -59 -115.5 -92 -185 -92c-30 0 -41.5 12.5 -49 33c-6.5 17.7998 -0.799805 60.2002 7 92l37 160c7.90039 34 9 44 9 58c0 31 -14 36 -35 36
c-36 0 -87 -59 -150 -141l-38.0996 -156c-9.5 -38.7998 -7.90039 -82 -68.9004 -82c-56 0 -65.9004 10.5 -65.9004 27.2002c0 9.7998 8.2998 34.8994 12.7002 54.7998zM438.7 674c3.09961 1 11.3008 2 16.3008 2c30 0 47 -14 53.5996 -24l6.7998 -23l-135.2 -108
c-15.7002 -12 -30.2002 -16 -40.2002 -16c-8 0 -14.7998 8 -14 14s4 15 11.2998 24z" />
    <glyph glyph-name="Ncommaaccent" unicode="&#x145;" horiz-adv-x="709" 
d="M614 0c-19 -9 -37 -12 -71 -12c0 0 -16 19 -30 44l-245 398c-8 13 -14 20 -18 20c-6 0 -10 -10 -12 -20l-58 -297c-18 -91 -2 -94 64 -101c5 -6 0 -28 -7 -34c-48 1 -70 2 -115 2c-42 0 -61 -1 -108 -2c-5 6 -1 28 6 34c69 7 87 12 104 101l81 417c-1 26 -23 60 -64 63
c-5 6 0 28 7 34l164 -2l66 -105l193 -312c10 -16 22 -23 27 3l54 281c18 91 2 94 -64 101c-5 6 0 28 7 34c48 -1 71 -2 116 -2c42 0 61 1 108 2c5 -6 0 -28 -7 -34c-69 -7 -86 -12 -103 -101l-80 -410c-6 -31 -15 -102 -15 -102zM378.1 -48c32 0 69.999 -15 61.0986 -78
c-8 -57 -65.5996 -97 -135.3 -109c-9.2002 6 -7.7998 16 -2.09961 28c41.5 11 69.9004 35 72.4004 53c2.7998 20 -18 21 -25.7002 23c-21.2998 5 -30.2002 20 -26.7002 45c2.40039 17 33.3008 38 56.3008 38z" />
    <glyph glyph-name="ncommaaccent" unicode="&#x146;" horiz-adv-x="614" 
d="M140 243c14.7002 65.7998 15 98.0996 15 109c0 11.7002 -3.59961 28.9004 -18 30l-40 3c-6 9 -4.7002 30 2 38c47 6 134 13 166 13c13.2002 0 23.5 -10.4004 23.5 -24.1006c0 -17.2998 -3.5 -58.5996 -12.5 -100.899l2 -2c92 108 145.3 130 209 130c39 0 89 -20 89 -80
c0 -18 -4.7002 -41.0996 -13 -76l-38 -159c-6.2998 -25.5996 -13.2998 -61 4 -61c10 0 44 17 70 47c14 0 26 -19 29 -28c-46 -59 -115.5 -92 -185 -92c-30 0 -41.5 12.5 -49 33c-6.5 17.7998 -0.799805 60.2002 7 92l37 160c7.90039 34 9 44 9 58c0 31 -14 36 -35 36
c-36 0 -87 -59 -150 -141l-38.0996 -156c-9.5 -38.7998 -7.90039 -82 -68.9004 -82c-56 0 -65.9004 10.5 -65.9004 27.2002c0 9.7998 8.2998 34.8994 12.7002 54.7998zM285.1 -51c32 0 69.999 -15 61.0986 -78c-8 -57 -65.5996 -97 -135.3 -109
c-9.2002 6 -7.7998 16 -2.09961 28c41.5 11 69.9004 35 72.4004 53c2.7998 20 -18 21 -25.7002 23c-21.2998 5 -30.2002 20 -26.7002 45c2.40039 17 33.3008 38 56.3008 38z" />
    <glyph glyph-name="Ncaron" unicode="&#x147;" horiz-adv-x="709" 
d="M614 0c-19 -9 -37 -12 -71 -12c0 0 -16 19 -30 44l-245 398c-8 13 -14 20 -18 20c-6 0 -10 -10 -12 -20l-58 -297c-18 -91 -2 -94 64 -101c5 -6 0 -28 -7 -34c-48 1 -70 2 -115 2c-42 0 -61 -1 -108 -2c-5 6 -1 28 6 34c69 7 87 12 104 101l81 417c-1 26 -23 60 -64 63
c-5 6 0 28 7 34l164 -2l66 -105l193 -312c10 -16 22 -23 27 3l54 281c18 91 2 94 -64 101c-5 6 0 28 7 34c48 -1 71 -2 116 -2c42 0 61 1 108 2c5 -6 0 -28 -7 -34c-69 -7 -86 -12 -103 -101l-80 -410c-6 -31 -15 -102 -15 -102zM352.9 808
c1.40039 10 10.1016 22 19.7012 26c37.2998 -12 92.0996 -35 116.1 -56c33.0996 22 92.3994 45 130.899 56c8.40039 -4 11.6006 -17 10.2002 -27c-45.7998 -27 -101.8 -69 -141.7 -104l-14.7002 -5c-31.7998 37 -84.2002 84 -120.5 110z" />
    <glyph glyph-name="ncaron" unicode="&#x148;" horiz-adv-x="614" 
d="M432.7 529h-50c-22.5 46 -54.5 89 -83.9004 129l26.5 18c35.2002 -27 58.5 -46 90.2002 -84c39.0996 36 72 57 114.8 84l21.5 -18c-41.5996 -40 -83.5 -82 -119.1 -129zM140 243c14.7002 65.7998 15 98.0996 15 109c0 11.7002 -3.59961 28.9004 -18 30l-40 3
c-6 9 -4.7002 30 2 38c47 6 134 13 166 13c13.2002 0 23.5 -10.4004 23.5 -24.1006c0 -17.2998 -3.5 -58.5996 -12.5 -100.899l2 -2c92 108 145.3 130 209 130c39 0 89 -20 89 -80c0 -18 -4.7002 -41.0996 -13 -76l-38 -159c-6.2998 -25.5996 -13.2998 -61 4 -61
c10 0 44 17 70 47c14 0 26 -19 29 -28c-46 -59 -115.5 -92 -185 -92c-30 0 -41.5 12.5 -49 33c-6.5 17.7998 -0.799805 60.2002 7 92l37 160c7.90039 34 9 44 9 58c0 31 -14 36 -35 36c-36 0 -87 -59 -150 -141l-38.0996 -156c-9.5 -38.7998 -7.90039 -82 -68.9004 -82
c-56 0 -65.9004 10.5 -65.9004 27.2002c0 9.7998 8.2998 34.8994 12.7002 54.7998z" />
    <glyph glyph-name="napostrophe" unicode="&#x149;" horiz-adv-x="665" 
d="M173 243c14.7002 65.7998 15 98.0996 15 109c0 11.7002 -3.59961 28.9004 -18 30l-40 3c-6 9 -4.7002 30 2 38c47 6 134 13 166 13c13.2002 0 23.5 -10.4004 23.5 -24.1006c0 -17.2998 -3.5 -58.5996 -12.5 -100.899l2 -2c92 108 145.3 130 209 130c39 0 89 -20 89 -80
c0 -18 -4.7002 -41.0996 -13 -76l-38 -159c-6.2998 -25.5996 -13.2998 -61 4 -61c10 0 44 17 70 47c14 0 26 -19 29 -28c-46 -59 -115.5 -92 -185 -92c-30 0 -41.5 12.5 -49 33c-6.5 17.7998 -0.799805 60.2002 7 92l37 160c7.90039 34 9 44 9 58c0 31 -14 36 -35 36
c-36 0 -87 -59 -150 -141l-38.0996 -156c-9.5 -38.7998 -7.90039 -82 -68.9004 -82c-56 0 -65.9004 10.5 -65.9004 27.2002c0 9.7998 8.2998 34.8994 12.7002 54.7998zM204.7 698c38 0 52.3994 -37 45.0996 -73s-52 -98 -123.6 -106l-1.5 17c43.7998 9 72.2998 46 77 69
c2.59961 13 -1.7002 21 -9.7002 21c-41 0 -41.5996 22 -38.2998 38s21 34 51 34z" />
    <glyph glyph-name="Eng" unicode="&#x14a;" horiz-adv-x="805" 
d="M724.9 103c-30.2002 -142 -99.3975 -195 -151.298 -232c-48.4004 -35 -104.301 -58 -163.301 -58c-29 0 -93 24 -83 71c6.2002 29 51.9004 56 69.9004 56c40 0 39.0996 -28 48.5 -45c7.2002 -13 23.1006 -23 41.1006 -23c43 0 54.0996 29 93.3994 209l54.9004 258
c21.5 101 18.2002 161.8 0.299805 199c-18.7002 39 -32.6006 54 -78.6006 54c-50 0 -125.6 -55 -192 -118c-8.7998 -8.2998 -19.7002 -20.7002 -26 -37.5l-66.9004 -314.5c-17.5996 -83 -1.5 -87 67.9004 -90c4.7002 -6 0.100586 -28 -7.19922 -34
c-49.7998 1 -93.5996 2 -143.6 2c-51 0 -121.2 -1 -170.4 -2c-4.7002 6 -0.100586 28 7.19922 34c70.5996 3 88.5 7 106.1 90l85.2998 401c17.5996 83 1.5 87 -67.9004 90c-4.7002 6 -0.100586 28 7.19922 34c49.7998 -1 118.6 -2 168.6 -2c13 0 40.2002 1 49.4004 2
c9 0 12.4004 -3 10.9004 -10c0 0 -12.5 -40 -26.2998 -105l-3.90039 -18.5c3 0 10.5 7.5 10.5 7.5c72.7998 79 174.2 137 251.2 137c62 0 121.6 -25 147.899 -66c31.2002 -48.7002 36.4004 -130 8.10059 -263z" />
    <glyph glyph-name="eng" unicode="&#x14b;" horiz-adv-x="615" 
d="M583.7 283l-38.2988 -173c-41.9004 -189 -79 -248 -134.4 -286c-43.9004 -31 -93.5 -56.2002 -176 -56.2002c-24.7002 0 -67.5 18.2998 -59.0996 56c5.2002 23.4004 38.2002 49.4004 52.5 49.4004c28.5996 0 39.5996 -20.7998 49.6992 -33.7998
c7.09961 -9.09961 22.8994 -14.3994 37.1992 -14.3994c25 0 47.2002 45.4004 62.2998 83c25 62.4004 25.5996 111 38.1992 168l48.5996 219c12.5996 57 -31.4004 75 -71.4004 75c-17.5996 0 -54.5996 -1.90039 -101.1 -27.2002
c-2.2998 -10.4004 -4.59961 -21.2002 -6.89941 -31.7998l-18 -83l-34.0996 -156c-8.5 -39.0996 -7.90039 -82 -68.9004 -82c-56 0 -65.9004 10.5 -65.9004 27.2002c0 9.7998 8.40039 34.8994 12.7002 54.7998l54.2002 249c4.7002 21.5996 6 31.8994 6 40.999
c0 10 -6.5 19.0996 -18 20l-40 3c-6 9 -4.7002 30 2 38c47 6 137 13 169 13c13.2002 0 20.5 -7.40039 20.5 -21.1006c0 -7 -1.7002 -18.5996 -4.40039 -32.5996c64.9004 32.5 144.801 61.7002 181.301 61.7002c86 0 126.9 -50 102.301 -161z" />
    <glyph glyph-name="Omacron" unicode="&#x14c;" horiz-adv-x="699" 
d="M456 616c-53.2002 0 -107.199 -32.5 -149.899 -106.8c-34.0996 -59.2998 -73 -178 -73 -283.1c0 -124.3 56.0996 -194.1 140.899 -194.1c119.9 0 218 184 218 390.6c0 127.8 -54.5996 193.399 -136 193.399zM347.001 -10c-143.3 0 -258.8 93.6006 -258.8 250.7
c0 129.6 58.2998 232.8 130.8 305.3c69 69 161 112 257 112c152.9 0 260.601 -98.0996 260.601 -254.399c0 -228.2 -166.9 -413.601 -389.601 -413.601zM597.501 730.001h-244c-9 0 -11.4004 8 -10 15c2.40039 12 16.9004 29 27.9004 29h245c10 0 12.4004 -8 11.2002 -14
c-2.40039 -12 -17.1006 -30 -30.1006 -30z" />
    <glyph glyph-name="omacron" unicode="&#x14d;" horiz-adv-x="479" 
d="M196 170c0 -111.9 30 -138 59 -138c104.2 0 116 145.4 116 228c0 58.0996 -3 137 -56 137c-101.1 0 -119 -127 -119 -227zM67 162c0 86.7998 55.6992 190.9 149.499 243c35.9004 20 77.3008 34 123.501 34c123 0 160 -86 160 -158c0 -135.1 -72.4004 -223.1 -159.5 -267
c-29.4004 -14.7998 -80 -24 -120.5 -24c-127 0 -153 108 -153 172zM467.499 538.001h-244c-9 0 -11.4004 8 -10 15c2.40039 12 16.9004 29 27.9004 29h245c10 0 12.4004 -8 11.2002 -14c-2.40039 -12 -17.1006 -30 -30.1006 -30z" />
    <glyph glyph-name="Obreve" unicode="&#x14e;" horiz-adv-x="699" 
d="M456 616c-53.2002 0 -107.199 -32.5 -149.899 -106.8c-34.0996 -59.2998 -73 -178 -73 -283.1c0 -124.3 56.0996 -194.1 140.899 -194.1c119.9 0 218 184 218 390.6c0 127.8 -54.5996 193.399 -136 193.399zM347.001 -10c-143.3 0 -258.8 93.6006 -258.8 250.7
c0 129.6 58.2998 232.8 130.8 305.3c69 69 161 112 257 112c152.9 0 260.601 -98.0996 260.601 -254.399c0 -228.2 -166.9 -413.601 -389.601 -413.601zM642.601 830.001c-16 -71 -86.5996 -125 -152.6 -125c-73 0 -123.2 55 -118.4 125l28.4004 3
c2.5 -39 47.4004 -54 100.4 -54c49 0 103.1 15 115.6 54z" />
    <glyph glyph-name="obreve" unicode="&#x14f;" horiz-adv-x="479" 
d="M259.8 667c-5.59961 -54 33.7988 -79 96.7988 -79c47 0 106.2 15 118.2 79l30.5 -10c-24.7998 -105 -108.1 -143 -159.1 -143c-81 0 -125.3 62 -120.899 143zM195.998 170c0 -111.9 30 -138 59 -138c104.2 0 116 145.4 116 228c0 58.0996 -3 137 -56 137
c-101.1 0 -119 -127 -119 -227zM66.998 162c0 86.7998 55.6992 190.9 149.499 243c35.9004 20 77.3008 34 123.501 34c123 0 160 -86 160 -158c0 -135.1 -72.4004 -223.1 -159.5 -267c-29.4004 -14.7998 -80 -24 -120.5 -24c-127 0 -153 108 -153 172z" />
    <glyph glyph-name="Ohungarumlaut" unicode="&#x150;" horiz-adv-x="699" 
d="M456 616c-53.2002 0 -107.199 -32.5 -149.899 -106.8c-34.0996 -59.2998 -73 -178 -73 -283.1c0 -124.3 56.0996 -194.1 140.899 -194.1c119.9 0 218 184 218 390.6c0 127.8 -54.5996 193.399 -136 193.399zM347.001 -10c-143.3 0 -258.8 93.6006 -258.8 250.7
c0 129.6 58.2998 232.8 130.8 305.3c69 69 161 112 257 112c152.9 0 260.601 -98.0996 260.601 -254.399c0 -228.2 -166.9 -413.601 -389.601 -413.601zM598.401 818.001c8 -7 10.4014 -18 9.00098 -28c-1.2998 -9 -5.2002 -16 -9.7998 -20l-110.8 -84
c-2.2998 -2 -4.2998 -2 -7.2998 -2c-5 0 -13.2002 5 -12.1006 13c0.299805 2 0.599609 4 1.69922 5l78 114c6.09961 8 13.6992 12 24.6992 12c8 0 16.9004 -1 26.6006 -10zM466.202 824.001c9 -7 12.4014 -18 10.9014 -29c-1.09961 -8 -4 -15 -9.59961 -19l-106.1 -86
c-3.09961 -1 -6.2998 -2 -8.2998 -2c-3 0 -5.7002 2 -7.60059 3c-3.59961 3 -5 7 -4.40039 11c0.0996094 1 0.399414 3 1.49902 4l73.2002 115c6.09961 8 13.6992 12 28.6992 12c9 0 17.2998 -5 21.7002 -9z" />
    <glyph glyph-name="ohungarumlaut" unicode="&#x151;" horiz-adv-x="479" 
d="M196 170c0 -111.9 30 -138 59 -138c104.2 0 116 145.4 116 228c0 58.0996 -3 137 -56 137c-101.1 0 -119 -127 -119 -227zM67 162c0 86.7998 55.6992 190.9 149.499 243c35.9004 20 77.3008 34 123.501 34c123 0 160 -86 160 -158c0 -135.1 -72.4004 -223.1 -159.5 -267
c-29.4004 -14.7998 -80 -24 -120.5 -24c-127 0 -153 108 -153 172zM517.599 691.001c-1.2002 -6 -3.69922 -13 -10.8994 -19l-136.4 -110c-2.40039 -2 -4.40039 -2 -6.40039 -2c-5 0 -12.9004 5 -11.3008 13c0.200195 1 0.600586 3 1.80078 4l106.3 139
c6.7998 9 14.3994 12 26.3994 12c20.9004 0 34.3008 -18.4004 30.501 -37zM386.8 697.001c-1 -5 -3.19922 -11 -8.19922 -16l-126.7 -121c-2.40039 -2 -5.60059 -3 -8.60059 -3c-6 0 -12.9004 5 -11.3008 13c0.200195 1 0.400391 2 1.60059 3l93.7002 146
c8.59961 13 24.7998 14 28.7998 14c20.9004 0 34.9004 -15.5 30.7002 -36z" />
    <glyph glyph-name="OE" unicode="&#x152;" horiz-adv-x="925" 
d="M720.4 367c67 0 89.499 7 104.699 62c7.2998 6 38.2998 6 43 0c-7.7002 -30 -13.6006 -52 -21.1006 -86s-10.7002 -53 -17.5 -88c-7.2998 -6 -38.2998 -6 -43 0c7 45 -8.2002 62 -77.2002 62h-81l-50.2998 -227c-6 -27 8.2998 -48 30.2998 -48h101
c76 0 133.4 56 169.4 128c13.7998 3.2002 34.7998 0.900391 43.8994 -5c-19.2998 -51 -38.8994 -117 -63.999 -167c0 0 -89.5996 2 -137.6 2h-342c-201 0 -305.4 138 -265.301 319c39.9004 180 199.7 328 396.7 328c49.7998 -1 117.6 -2 117.6 -2h295
c24 0 32.2002 1 49.9004 4c3 0 3.7002 -1 3.2998 -3c0.200195 -8 -16 -104 -20.0996 -145c-10.7998 -4.7002 -32.0996 -6.7998 -44.0996 -5c-6.7002 69 -19.2998 107 -94.2998 107h-85c-24 0 -46.5996 -25 -51.8994 -49l-41.4004 -187h81zM385.899 40h11.999
c22.5 0 37.0996 36.9004 47.0996 82l88.7002 400c9.90039 44.7998 12.4004 82 -10.7998 82h-34c-85 0 -176.1 -68 -222.199 -276c-45 -203 28.2002 -288 119.2 -288z" />
    <glyph glyph-name="oe" unicode="&#x153;" horiz-adv-x="725" 
d="M199 181c0 -90.5996 29.0996 -149 57 -149c109.1 0 118 174 118 239c0 61 7.09961 126 -54 126c-115 0 -121 -126 -121 -216zM75 173c0 120 96 266 263 266c68.5 0 109.7 -28.0996 132.5 -65.5c42.5 39.4004 100.5 65.5 176.5 65.5c81 0 122 -35 122 -70
c0 -17.7998 -0.5 -51.7998 -31 -81c-34.4004 -33 -105.801 -61.9004 -232.001 -89c-1 -8 -1 -29 -1 -34c0 -67 14 -115 53 -115c48 0 79 16 136 74c12 0 27 -14 32 -25c-59 -76 -137 -109 -204 -109c-72.0996 0 -110.199 24.2002 -129.199 61.9004
c-44 -38.7002 -97.7002 -61.9004 -151.8 -61.9004c-113 0 -166 84.2998 -166 183zM656 370c0 20 -11 28 -32 28c-39 0 -76.7002 -20 -111 -160.7c53 8.7002 143 42.7002 143 132.7z" />
    <glyph glyph-name="Racute" unicode="&#x154;" horiz-adv-x="686" 
d="M522.1 511.6c0 80.9004 -54.3008 101.399 -102.101 101.399c-51 0 -62 -21 -75 -89l-38 -199h41c89.9004 0 174.101 41.2002 174.101 186.601zM458.999 653.999c127.3 0 204.301 -38.8965 204.301 -143.496c0 -119 -91.7998 -179.9 -149.3 -202.5l90 -210
c19 -42 37 -66 80 -66c0.400391 -1.7002 0.600586 -3.90039 0.600586 -6.40039c0 -9.2002 -2.7002 -22.1006 -6.60059 -27.6006c-11 -5 -61 -8 -100 -8c-58 0 -88 44 -109 89l-79 174c-9 23 -16 30 -92 30l-31 -161c-3.2002 -16.4004 -4.7002 -29.8008 -4.7002 -40.6006
c0 -43.9004 25 -47 66.7002 -49.4004c3.09961 -2.2998 4.5 -7 4.5 -12.2002c0 -8.40039 -3.7002 -18.1006 -10.5 -21.8008c-38 1 -108 2 -146 2s-109 -1 -148 -2c-2.90039 2.2002 -4.2002 6.40039 -4.2002 11.2002c0 8.59961 4.2002 19 11.2002 22.7998c53 3 81 7 97 90
l78 401c3.09961 16.0996 4.59961 29.1992 4.59961 39.8994c0 44.5996 -25.7002 47.6992 -67.6006 50.0996c-2.90039 2.2002 -4.2002 6.40039 -4.2002 11.2002c0 8.59961 4.2002 19 11.2002 22.7998c38 0 266 7 304 7zM521.3 833.003
c23.2002 -11.5996 47.2998 -34.4004 57.2002 -55l-4.59961 -12l-152.2 -58c-15.2998 -5.7998 -27 -7 -36 -7s-19 7 -17.9004 15c1 7 2.09961 12.7002 13 21c23.5 18 96.5996 68 140.5 96z" />
    <glyph glyph-name="racute" unicode="&#x155;" horiz-adv-x="426" 
d="M270 228l-38.0996 -156.001c-9.5 -38.7998 -7.90039 -82 -68.9004 -82c-56 0 -65.9004 10.5 -65.9004 27.2002c0 9.7998 8.40039 34.8994 12.7002 54.7998l37.2002 171c14.2998 65.9004 15 98.1006 15 109.001c0 11.7002 -3.59961 28.9004 -18 30l-40 3
c-6 9 -4.7002 30 2 38c47 6 134 13 166 13c13.2002 0 23.5 -10.4004 23.5 -24.1006c0 -17.5 -3.5 -58.5996 -12.5 -100.899l3 -2c44 93 100.6 129.9 145.6 129.9c44.4004 0 62.4004 -32.5996 62.4004 -58.7998c0 -33.7998 -21.5996 -70 -54 -70
c-16.7998 0 -32.3994 16.2998 -40.7998 26.2998c-7.2002 8.7998 -13.2002 15 -25.2002 15c-27.5996 0 -56 -36.4004 -104 -123.4zM384.7 673.999c3.09961 1 11.3008 2 16.3008 2c30 0 47 -14 53.5996 -24l6.7998 -23l-135.2 -108c-15.7002 -12 -30.2002 -16 -40.2002 -16
c-8 0 -14.7998 8 -14 14s4 15 11.2998 24z" />
    </font>
</defs>
</svg>
