<svg xmlns="http://www.w3.org/2000/svg">
<defs>
<font id="ptserif" horiz-adv-x="533" >
  <font-face 
    font-family="PT Serif"
    font-weight="400"
    font-stretch="normal"
    units-per-em="1000"
    panose-1="2 10 6 3 4 5 5 2 2 4"
    ascent="770"
    descent="-230"
    x-height="500"
    cap-height="700.002"
    bbox="-376 -272.001 1145 1001.13"
    underline-thickness="50"
    underline-position="-50"
    unicode-range="U+0020-FB02"
  />
<missing-glyph horiz-adv-x="709" 
d="M50 700h650v-700h-650v700zM570 650l-195 -217l-195 217l-50 -50l197 -220l-197 -220l50 -50l195 217l195 -217l50 50l-198 220l198 220zM162 68h-35v-7h13v-35h9v35h13v7zM271 58h-1.99805c-0.666992 0 -1.33398 0.333008 -2.00098 1
c-2.66699 0 -5.66699 -1.66699 -9 -5v4h-7v-32h8v20c2 3.33301 4.33301 5 7 5c1.33301 0 2.66602 -0.333008 3.99902 -1zM276.002 65c0 -3.33301 1.33301 -5 4 -5c3.33301 0 5 1.33301 5 4c0 3.33301 -1.66699 5 -5 5c-2.66699 0 -4 -1.33301 -4 -4zM276.002 26h9v32h-9v-32
zM291.002 51h5v-25h8v25h8v7h-8c0 1.33301 0.333008 2.33301 1 3s1.66699 1 3 1h3h3l1 6c0 0.666992 -1.33301 1 -4 1h-5h-4c-0.666992 0 -1.66699 -0.5 -3 -1.5s-2 -1.83301 -2 -2.5c-0.666992 -1.33301 -1 -3 -1 -5v-2h-5v-7zM331.002 45
c0 -16.667 7.66797 -25 23.001 -25c7.33301 0 13.166 2 17.499 6s6.5 10.333 6.5 19c0 15.333 -8 23 -24 23c-6.66699 0 -12.167 -2 -16.5 -6s-6.5 -9.66699 -6.5 -17zM338.003 45c0 11.333 5.33301 17 16 17c11.333 0 17 -5.66699 17 -17c0 -12 -5.66699 -18 -17 -18
c-10.667 0 -16 6 -16 18zM361.003 40c-1.33301 -0.666992 -2.66699 -1 -4 -1c-3.33301 0 -5 2 -5 6c0 2.66699 1.66699 4 5 4h3l3 5c-2.66699 1.33301 -5.66699 2 -9 2c-6.66699 0 -10 -3.66699 -10 -11c0 -8.66699 3.33301 -13 10 -13c3.33301 0 6.33301 0.666992 9 2z
M402.002 27h8.99902v14h5c4.66699 0 8.83398 1 12.501 3s5.5 5.66699 5.5 11c0 6.66699 -2 10.667 -6 12s-8.33301 2 -13 2h-13v-42zM416.001 62c6 0 9 -2 9 -6s-0.833008 -6.16699 -2.5 -6.5s-4.16699 -0.5 -7.5 -0.5h-4v13h5zM440.001 51

<glyph glyph-name="fi" unicode="fi" horiz-adv-x="600" 
d="M562 0l-221.996 -0.000976562v25c20.667 11.333 42.667 19.333 66 24v401h-209v-401c17.333 -1.33301 33.833 -4.16602 49.5 -8.49902s30.5 -9.5 44.5 -15.5v-25h-250v25c20.667 12 42.667 20 66 24v401h-76v26c23.333 14.667 48.666 25.667 75.999 33v35
c0 41.333 6.66699 75.5 20 102.5s30.666 48.333 51.999 64s45.833 26.5 73.5 32.5s55.5 9 83.5 9c13.333 0 28.166 -0.833008 44.499 -2.5s32.333 -4 48 -7s30 -6.5 43 -10.5s22.833 -8.33301 29.5 -13c-2 -22 -5 -39.333 -9 -52s-8.33301 -26.334 -13 -41.001h-30l-83 86
c-19.333 0 -38.833 -2 -58.5 -6s-37.834 -11.667 -54.501 -23s-30.167 -27.666 -40.5 -48.999s-15.5 -49.333 -15.5 -84v-50h105c14 0 28.5 0.166992 43.5 0.5s30 1 45 2s29.333 2.33301 43 4s26.167 3.5 37.5 5.5h25v-463c13.333 -3.33301 25.333 -6.83301 36 -10.5
s20.667 -8.16699 30 -13.5v-25z" />
    <glyph glyph-name="fl" unicode="fl" horiz-adv-x="612" 
d="M409 682c-14.667 8 -30 14.834 -46 20.501s-31.667 8.5 -47 8.5c-18 0 -34.333 -2 -49 -6s-27.167 -11.833 -37.5 -23.5s-18.333 -28 -24 -49s-8.5 -48.833 -8.5 -83.5v-49h115v-50h-115v-401c34.667 -4 66 -12 94 -24v-25h-250v25c20.667 12 42.667 20 66 24v401h-76v26
c23.333 14.667 48.666 25.667 75.999 33v35c0 41.333 5 75.5 15 102.5s23.833 48.333 41.5 64s38.334 26.5 62.001 32.5s49.5 9 77.5 9c6 0 13.167 -0.5 21.5 -1.5s16.833 -2.5 25.5 -4.5s17 -4.16699 25 -6.5s15 -4.5 21 -6.5c12 3.33301 24.667 7 38 11
s26.666 6.66699 39.999 8h25v-703c11.333 -2.66699 23.833 -6 37.5 -10s26.167 -8.66699 37.5 -14v-25h-230v25c10.667 5.33301 21.334 10.166 32.001 14.499s21.667 7.5 33 9.5v633z" />
    <glyph glyph-name=".notdef" horiz-adv-x="709" 
d="M50 700h650v-700h-650v700zM570 650l-195 -217l-195 217l-50 -50l197 -220l-197 -220l50 -50l195 217l195 -217l50 50l-198 220l198 220zM162 68h-35v-7h13v-35h9v35h13v7zM271 58h-1.99805c-0.666992 0 -1.33398 0.333008 -2.00098 1
c-2.66699 0 -5.66699 -1.66699 -9 -5v4h-7v-32h8v20c2 3.33301 4.33301 5 7 5c1.33301 0 2.66602 -0.333008 3.99902 -1zM276.002 65c0 -3.33301 1.33301 -5 4 -5c3.33301 0 5 1.33301 5 4c0 3.33301 -1.66699 5 -5 5c-2.66699 0 -4 -1.33301 -4 -4zM276.002 26h9v32h-9v-32
zM291.002 51h5v-25h8v25h8v7h-8c0 1.33301 0.333008 2.33301 1 3s1.66699 1 3 1h3h3l1 6c0 0.666992 -1.33301 1 -4 1h-5h-4c-0.666992 0 -1.66699 -0.5 -3 -1.5s-2 -1.83301 -2 -2.5c-0.666992 -1.33301 -1 -3 -1 -5v-2h-5v-7zM331.002 45
c0 -16.667 7.66797 -25 23.001 -25c7.33301 0 13.166 2 17.499 6s6.5 10.333 6.5 19c0 15.333 -8 23 -24 23c-6.66699 0 -12.167 -2 -16.5 -6s-6.5 -9.66699 -6.5 -17zM338.003 45c0 11.333 5.33301 17 16 17c11.333 0 17 -5.66699 17 -17c0 -12 -5.66699 -18 -17 -18
c-10.667 0 -16 6 -16 18zM361.003 40c-1.33301 -0.666992 -2.66699 -1 -4 -1c-3.33301 0 -5 2 -5 6c0 2.66699 1.66699 4 5 4h3l3 5c-2.66699 1.33301 -5.66699 2 -9 2c-6.66699 0 -10 -3.66699 -10 -11c0 -8.66699 3.33301 -13 10 -13c3.33301 0 6.33301 0.666992 9 2z
M402.002 27h8.99902v14h5c4.66699 0 8.83398 1 12.501 3s5.5 5.66699 5.5 11c0 6.66699 -2 10.667 -6 12s-8.33301 2 -13 2h-13v-42zM416.001 62c6 0 9 -2 9 -6s-0.833008 -6.16699 -2.5 -6.5s-4.16699 -0.5 -7.5 -0.5h-4v13h5zM440.001 51
c2 0.666992 3.83398 1.16602 5.50098 1.49902s3.5 0.5 5.5 0.5c3.33301 0 5 -1.66699 5 -5v-2c-0.666992 0 -1.33398 0.166992 -2.00098 0.5s-1.66699 0.5 -3 0.5c-10 0 -15 -4 -15 -12c0 -6 3.33301 -9 10 -9c4.66699 0 8 2 10 6l3 -5h7
c-0.666992 0.666992 -1 3.33398 -1 8.00098v13c0 8 -4 12 -12 12c-3.33301 0 -6.33301 -0.5 -9 -1.5s-4.66699 -1.83301 -6 -2.5zM450.002 32.999c-3.33301 0 -5.00098 1.66699 -5.00098 5c0 2.66699 2 4 6 4c1.33301 0 2.33301 -0.166992 3 -0.5s1.33398 -0.5 2.00098 -0.5
v-3c-0.666992 -3.33301 -2.66699 -5 -6 -5zM494.001 58.999c-1.33301 0.666992 -3.00098 1 -5.00098 1c-3.33301 0 -5.66602 -2 -6.99902 -6h-1l-1 5h-7v-32h9v20c0 3.33301 2.33301 5 7 5c0.666992 0 1 -0.166992 1 -0.5s0.333008 -0.5 1 -0.5h1zM499 50.999
c6.66699 1.33301 10.333 1.99902 11 1.99902c4 0 6 -1.66699 6 -5v-2c-1.33301 0 -2.33301 0.166992 -3 0.5s-1.66699 0.5 -3 0.5c-10 0 -15 -4 -15 -12c0 -6 3.33301 -9 10 -9c5.33301 0 9 2 11 6h1l1 -5h7c-0.666992 0.666992 -1 3.33398 -1 8.00098v13c0 8 -4 12 -12 12
c-3.33301 0 -6 -0.5 -8 -1.5s-4 -1.83301 -6 -2.5zM508.999 32.998c-3.33301 0 -5 1.66699 -5 5c0 2.66699 2 4 6 4c1.33301 0 2.33301 -0.166992 3 -0.5s1.66699 -0.5 3 -0.5v-3c-2 -3.33301 -4.33301 -5 -7 -5zM556.999 68.998h-36v-7h14v-35h8v35h14v7zM566.999 58.998
h-10.001l14 -32c-1.33301 -3.33301 -3 -5 -5 -5l-2 1l-2 -7c0.666992 -0.666992 2.66699 -1 6 -1c4.66699 0 8.33398 5 11.001 15l12 29h-9l-6 -18v-6h-1l-1 6zM594.998 14.998h9v13c1.33301 -1.33301 3.33301 -2 6 -2c10.667 0 16 6 16 18c0 10.667 -4.33301 16 -13 16
c-4 0 -7.33301 -1.66699 -10 -5h-2l-1 4h-5v-44zM610.998 52.998c4 0 5.99902 -3 5.99902 -9c0 -7.33301 -3 -11 -9 -11c-1.33301 0 -2.66602 0.666992 -3.99902 2v12c0 4 2.33301 6 7 6zM655.997 34.998c-1.33301 -1.33301 -4 -2 -8 -2c-5.33301 0 -8 2.33301 -8 7h21v7
c0 8.66699 -4.66699 13 -14 13c-10.667 0 -16 -6 -16 -18c0 -10.667 5.33301 -16 16 -16c5.33301 0 9.33301 1.33301 12 4zM646.997 52.998c4.66699 0 6.66699 -2.33301 6 -7h-13c0 4.66699 2.33301 7 7 7zM91.9971 26.998h8.99902v14h5c4.66699 0 8.83398 1 12.501 3
s5.5 5.66699 5.5 11c0 6.66699 -2 10.667 -6 12s-8.33301 2 -13 2h-13v-42zM105.996 61.998c6 0 9 -2 9 -6s-0.833008 -6.16699 -2.5 -6.5s-4.16699 -0.5 -7.5 -0.5h-4v13h5zM199.996 37.998c0 -3.33301 -2.66699 -4.99902 -8 -4.99902c-2 0 -3.66699 0.166992 -5 0.5
s-3.33301 1.16602 -6 2.49902l-3 -9c2.66699 -0.666992 5 -1.16699 7 -1.5s4.66699 -0.5 8 -0.5c10.667 0 16 4.66699 16 14c0 3.33301 -1.16699 5.83301 -3.5 7.5s-4.66602 3 -6.99902 4l-7 3c-2.33301 1 -3.5 2.5 -3.5 4.5s2.33301 3 7 3c2 0 3.83301 -0.166992 5.5 -0.5
s3.5 -0.833008 5.5 -1.5l2 8c-2.66699 0.666992 -5 1.16699 -7 1.5s-4 0.5 -6 0.5c-10.667 0 -16 -4.33301 -16 -13c0 -3.33301 1.16699 -5.83301 3.5 -7.5s4.66602 -3 6.99902 -4l7 -3c2.33301 -1 3.5 -2.16699 3.5 -3.5zM238.996 33.999c-1.33301 -1.33301 -4 -2 -8 -2
c-5.33301 0 -8 2.33301 -8 7h21v7c0 8.66699 -4.66699 13 -14 13c-10.667 0 -16 -6 -16 -18c0 -10.667 5.33301 -16 16 -16c5.33301 0 9.33301 1.33301 12 4zM229.996 51.999c4.66699 0 6.66699 -2.33301 6 -7h-13c0 4.66699 2.33301 7 7 7z" />
    <glyph glyph-name="space" unicode=" " horiz-adv-x="243" 
 />
    <glyph glyph-name="exclam" unicode="!" horiz-adv-x="327" 
d="M174 218l-32 176v296c14.667 7.33301 29.667 11 45 11s30.333 -3.66699 45 -11v-296l-32 -176h-26zM119 57c0 20 6.33301 36 19 48s29 18 49 18c20.667 0 37.334 -6 50.001 -18s19 -28 19 -48c0 -19.333 -6.33301 -35 -19 -47s-29.334 -18 -50.001 -18
c-20 0 -36.333 6 -49 18s-19 27.667 -19 47z" />
    <glyph glyph-name="quotedbl" unicode="&#x22;" horiz-adv-x="380" 
d="M207 670c3.33301 8.66699 8.5 15.833 15.5 21.5s16.167 8.5 27.5 8.5c20.667 0 34.667 -10 42 -30l-32 -166h-20zM87 669.999c3.33301 8.66699 8.5 15.833 15.5 21.5s16.167 8.5 27.5 8.5c20.667 0 34.667 -10 42 -30l-32 -166h-20z" />
    <glyph glyph-name="numbersign" unicode="#" 
d="M308 233h-142l-42 -175h-53l42 175h-80l14 46h76l36 150h-76l14 46h73l40 167h52l-39 -167h142l40 167h52l-40 -167h80l-17 -46h-74l-36 -150h77l-17 -46h-70l-42 -175h-52zM176 279h142l36 150h-142z" />
    <glyph glyph-name="dollar" unicode="$" 
d="M239 -12c-20 0 -39.333 1.49707 -58 4.49707s-35.834 7 -51.501 12s-29.667 10.5 -42 16.5s-21.833 12 -28.5 18c0.666992 6.66699 1.33398 15.5 2.00098 26.5s1.66699 22.167 3 33.5s2.83301 22.333 4.5 33s3.83398 19 6.50098 25h25l60 -97
c8.66699 -5.33301 20 -9.83301 34 -13.5s29 -5.83398 45 -6.50098v285c-2.66699 0 -4.66699 0.666992 -6 2l-32 15c-19.333 8.66699 -38 18.334 -56 29.001s-33.833 23.5 -47.5 38.5s-24.667 32.5 -33 52.5s-12.5 43.667 -12.5 71c0 24 4.66699 46.333 14 67
s22.166 39 38.499 55s36 28.833 59 38.5s48.167 15.5 75.5 17.5v49h52v-49c32 -2 59.833 -6.33301 83.5 -13s44.167 -14 61.5 -22c-0.666992 -21.333 -3.5 -39 -8.5 -53s-10.167 -26.333 -15.5 -37h-26l-50 68c-7.33301 1.33301 -14.333 2.33301 -21 3
s-14.667 1.33398 -24 2.00098v-267l29 -13c20.667 -10 40.834 -20.5 60.501 -31.5s37.167 -24 52.5 -39s27.666 -33.167 36.999 -54.5s14 -47.666 14 -78.999c0 -48.667 -17 -89.667 -51 -123s-81.333 -53.666 -142 -60.999v-61h-52v58zM394 167.997
c0 34.667 -10 62.168 -30 82.501s-44.333 37.166 -73 50.499v-256c30 8 54.667 22.5 74 43.5s29 47.5 29 79.5zM142 550.998c0 -18 2.49902 -33.834 7.49902 -47.501s11.833 -25.834 20.5 -36.501s18.834 -20.167 30.501 -28.5s24.5 -16.166 38.5 -23.499v244
c-30 -3.33301 -53.667 -15.166 -71 -35.499s-26 -44.5 -26 -72.5z" />
    <glyph glyph-name="percent" unicode="%" horiz-adv-x="807" 
d="M675 710l35 -31l-585 -686l-34 32zM52 542c0 26 4.33301 49.333 13 70s20.834 38.5 36.501 53.5s34 26.5 55 34.5s44.167 12 69.5 12s48.666 -3.5 69.999 -10.5s39.666 -17.5 54.999 -31.5s27.333 -31.667 36 -53s13 -46.333 13 -75c0 -26 -4.33301 -49.5 -13 -70.5
s-20.667 -38.833 -36 -53.5s-33.666 -26 -54.999 -34s-44.666 -12 -69.999 -12s-48.5 3.5 -69.5 10.5s-39.333 17.5 -55 31.5s-27.834 31.667 -36.501 53s-13 46.333 -13 75zM136 542c0 -40 7.66797 -72.167 23.001 -96.5s37.666 -36.5 66.999 -36.5c60 0 90 44.333 90 133
c0 88 -30 132 -90 132s-90 -44 -90 -132zM405.001 159c0 26 4.33301 49.333 13 70s20.834 38.5 36.501 53.5s34 26.5 55 34.5s44.167 12 69.5 12s48.666 -3.5 69.999 -10.5s39.666 -17.5 54.999 -31.5s27.333 -31.667 36 -53s13 -46.333 13 -75
c0 -26 -4.33301 -49.5 -13 -70.5s-20.667 -38.833 -36 -53.5s-33.666 -26 -54.999 -34s-44.666 -12 -69.999 -12s-48.5 3.5 -69.5 10.5s-39.333 17.5 -55 31.5s-27.834 31.667 -36.501 53s-13 46.333 -13 75zM489.001 159c0 -40 7.66797 -72.167 23.001 -96.5
s37.666 -36.5 66.999 -36.5c60 0 90 44.333 90 133c0 88 -30 132 -90 132s-90 -44 -90 -132z" />
    <glyph glyph-name="ampersand" unicode="&#x26;" horiz-adv-x="869" 
d="M540 123c-20 18 -41.832 39.1689 -65.499 63.502s-46.5 49.166 -68.5 74.499s-42.333 49.666 -61 72.999s-33.334 42.666 -44.001 57.999c-28.667 -28 -49.334 -55.167 -62.001 -81.5s-19 -57.166 -19 -92.499c0 -25.333 4.16699 -48.833 12.5 -70.5
s19.833 -40.5 34.5 -56.5s32.334 -28.5 53.001 -37.5s43 -13.5 67 -13.5c30 0 58 6.83301 84 20.5s49 34.5 69 62.5zM282.001 583.002c0 -12 2.33301 -24.834 7 -38.501s10.834 -27.167 18.501 -40.5s16 -26.333 25 -39s17.833 -24 26.5 -34c24 20 43.5 43.167 58.5 69.5
s20.833 57.5 17.5 93.5c-1.33301 21.333 -8 39.333 -20 54s-31 22 -57 22c-14.667 0 -26.834 -2.5 -36.501 -7.5s-17.5 -11.667 -23.5 -20s-10.167 -17.666 -12.5 -27.999s-3.5 -20.833 -3.5 -31.5zM697.001 0.000976562c-14 9.33301 -31.6689 20.833 -53.002 34.5
s-44.666 32.834 -69.999 57.501c-9.33301 -12.667 -21 -25.167 -35 -37.5s-30.5 -23.5 -49.5 -33.5s-40.167 -18 -63.5 -24s-48.666 -9 -75.999 -9c-35.333 0 -67.333 5.33301 -96 16s-53 25 -73 43s-35.5 38.667 -46.5 62s-16.5 47.666 -16.5 72.999
c0 32.667 6 62.167 18 88.5s26.333 49.333 43 69s34 36.334 52 50.001s33 24.834 45 33.501c-19.333 21.333 -35.666 46.333 -48.999 75s-20 55.334 -20 80.001c0 16.667 3.33301 33.167 10 49.5s16.5 30.666 29.5 42.999s29 22.333 48 30s40.5 11.5 64.5 11.5
c44 0 79.5 -9.5 106.5 -28.5s40.5 -46.5 40.5 -82.5c0 -22 -3.83301 -42.5 -11.5 -61.5s-17.5 -36.5 -29.5 -52.5s-25.5 -30.667 -40.5 -44s-29.833 -25.666 -44.5 -36.999c27.333 -34 59 -69 95 -105s74 -72 114 -108c5.33301 7.33301 12 19.666 20 36.999
s15.5 37.666 22.5 60.999s12.667 48.833 17 76.5s5.5 55.167 3.5 82.5c-20 4 -39.667 12 -59 24v26h203v-26c-18 -11.333 -40 -19.333 -66 -24c-6 -39.333 -13.667 -75 -23 -107s-19 -60.167 -29 -84.5s-19.5 -45 -28.5 -62s-16.167 -29.5 -21.5 -37.5
c25.333 -20.667 50.166 -39.834 74.499 -57.501s51.5 -35.167 81.5 -52.5l55 -24v-25h-142z" />
    <glyph glyph-name="quotesingle" unicode="'" horiz-adv-x="222" 
d="M87 670c3.33301 8.66699 8.5 15.833 15.5 21.5s16.167 8.5 27.5 8.5c20.667 0 34.667 -10 42 -30l-32 -166h-20z" />
    <glyph glyph-name="parenleft" unicode="(" horiz-adv-x="343" 
d="M300 -210c-34 24.667 -65.666 51.666 -94.999 80.999s-54.833 62.333 -76.5 99s-38.667 77.334 -51 122.001s-18.5 95 -18.5 151c0 54.667 6.33301 104 19 148s30 84.333 52 121s47.833 70.5 77.5 101.5s61.5 60.5 95.5 88.5l21 -18c-26.667 -28.667 -51 -58 -73 -88
s-40.833 -62.667 -56.5 -98s-27.834 -73.833 -36.501 -115.5s-13 -88.167 -13 -139.5c0 -50 4.66699 -96.167 14 -138.5s22.166 -81.333 38.499 -117s35.333 -68.167 57 -97.5s44.834 -56 69.501 -80z" />
    <glyph glyph-name="parenright" unicode=")" horiz-adv-x="343" 
d="M19 -190c24.667 24 47.834 51.168 69.501 81.501s40.5 64 56.5 101s28.667 77.167 38 120.5s14 90 14 140c0 51.333 -4.33301 97.333 -13 138s-20.667 78 -36 112s-34 65.667 -56 95s-46.333 58 -73 86l21 18c34 -26 65.833 -53.667 95.5 -83s55.5 -62 77.5 -98
s39.333 -76 52 -120s19 -93.333 19 -148c0 -55.333 -6 -105.833 -18 -151.5s-28.667 -87.334 -50 -125.001s-46.833 -72 -76.5 -103s-61.834 -58.833 -96.501 -83.5z" />
    <glyph glyph-name="asterisk" unicode="*" horiz-adv-x="465" 
d="M62 616c-2 4.66699 -2.33301 10.502 -1 17.502s4 14 8 21s8.83301 13.167 14.5 18.5s11.5 8.66602 17.5 9.99902l100 -87c0 -5.33301 -1 -10.333 -3 -15s-5.66699 -8.33398 -11 -11.001zM100 444.002c-5.33301 0.666992 -10.667 3.50098 -16 8.50098s-10 11 -14 18
s-7 14.167 -9 21.5s-2 13.666 0 18.999l125 43c10 -5.33301 15 -13.333 15 -24zM270.999 389.003c-3.33301 -4 -8.50098 -7 -15.501 -9s-14.5 -3 -22.5 -3s-15.5 1 -22.5 3s-12.167 4.66699 -15.5 8l23 130c10.667 5.33301 21.334 5.33301 32.001 0zM401.998 511.003
c2.66699 -4.66699 3.16699 -10.667 1.5 -18s-4.5 -14.5 -8.5 -21.5s-8.66699 -13.167 -14 -18.5s-11 -8.33301 -17 -9l-98 84c0 6 1.16699 10.833 3.5 14.5s5.5 7.16699 9.5 10.5zM365.998 683.003c5.33301 -0.666992 10.666 -3.50098 15.999 -8.50098s9.83301 -11 13.5 -18
s6.33398 -14.167 8.00098 -21.5s1.5 -14 -0.5 -20l-124 -47c-9.33301 6.66699 -14 15.334 -14 26.001zM193.998 737.002c2.66699 4 7.50098 7.16699 14.501 9.5s14.5 3.5 22.5 3.5s15.667 -1.16699 23 -3.5s12.666 -5.5 15.999 -9.5l-22 -130
c-10 -6.66699 -20.333 -6.66699 -31 0z" />
    <glyph glyph-name="plus" unicode="+" 
d="M42 370h198v210h53v-210h198v-53h-198v-215h-53v215h-198v53z" />
    <glyph glyph-name="comma" unicode="," horiz-adv-x="283" 
d="M51 -149c12.667 4.66699 24.6699 11.833 36.0029 21.5s21.166 20.5 29.499 32.5s14.666 25.167 18.999 39.5s5.83301 28.5 4.5 42.5c-8 7.33301 -18.667 14.666 -32 21.999s-25 12.666 -35 15.999c-3.33301 12.667 -3.5 25 -0.5 37s7.5 22.667 13.5 32
s12.833 16.833 20.5 22.5s15.167 8.83398 22.5 9.50098c23.333 -3.33301 43.833 -13.666 61.5 -30.999s26.5 -43.333 26.5 -78c0 -18.667 -3.33301 -38.167 -10 -58.5s-16.334 -39.5 -29.001 -57.5s-28 -34.167 -46 -48.5s-38.333 -24.833 -61 -31.5z" />
    <glyph glyph-name="hyphen" unicode="-" horiz-adv-x="425" 
d="M71 313h282v-63h-282v63z" />
    <glyph glyph-name="period" unicode="." horiz-adv-x="279" 
d="M71 57c0 20 6.33301 36 19 48s29 18 49 18c20.667 0 37.334 -6 50.001 -18s19 -28 19 -48c0 -19.333 -6.33301 -35 -19 -47s-29.334 -18 -50.001 -18c-20 0 -36.333 6 -49 18s-19 27.667 -19 47z" />
    <glyph glyph-name="slash" unicode="/" horiz-adv-x="344" 
d="M327 712l42 -18l-365 -824l-41 19z" />
    <glyph glyph-name="zero" unicode="0" 
d="M35 350c0 120 20.001 210.333 60.001 271s97.333 91 172 91c80.667 0 139.667 -29.833 177 -89.5s56 -150.5 56 -272.5c0 -120 -20.167 -210.333 -60.5 -271s-99.833 -91 -178.5 -91c-40.667 0 -75.334 8.16699 -104.001 24.5s-52 40 -70 71s-31.167 68.833 -39.5 113.5
s-12.5 95.667 -12.5 153zM131.001 350c0 -48 2.33594 -91.6689 7.00293 -131.002s12.167 -73.166 22.5 -101.499s23.666 -50.166 39.999 -65.499s36.166 -23 59.499 -23c52.667 0 89.834 26 111.501 78s32.5 133 32.5 243c0 48 -2 91.667 -6 131s-11.333 73 -22 101
s-24.834 49.667 -42.501 65s-39.834 23 -66.501 23c-50 0 -85.167 -25.833 -105.5 -77.5s-30.5 -132.5 -30.5 -242.5z" />
    <glyph glyph-name="one" unicode="1" 
d="M425 0h-292.003v29c16.667 7.33301 33.5 13.833 50.5 19.5s34.167 10.5 51.5 14.5v491l4 59c-18.667 -7.33301 -38 -12.5 -58 -15.5s-40.667 -4.16699 -62 -3.5l-5 24c30.667 10 62.334 22.5 95.001 37.5s63 33.833 91 56.5h25v-649
c16.667 -4 33.334 -8.83301 50.001 -14.5s33.334 -12.167 50.001 -19.5v-29z" />
    <glyph glyph-name="two" unicode="2" 
d="M133 505l-24.9971 0.000976562c-7.33301 19.333 -14.833 42 -22.5 68s-14.167 50.667 -19.5 74c23.333 20 51.333 35.833 84 47.5s68 17.5 106 17.5c33.333 0 62 -4.66699 86 -14s43.833 -22 59.5 -38s27.167 -34.5 34.5 -55.5s11 -42.833 11 -65.5
c0 -37.333 -8.66699 -75.666 -26 -114.999s-38.833 -77.5 -64.5 -114.5s-53.5 -71.833 -83.5 -104.5s-57.667 -61.334 -83 -86.001l-42 -39v-4l56 6h172l49 112h25c1.33301 -14.667 2.66602 -30.667 3.99902 -48s2.5 -34.833 3.5 -52.5s1.83301 -34.667 2.5 -51
s1 -30.5 1 -42.5h-413v32c14.667 15.333 32.5 34 53.5 56s42.833 46.333 65.5 73s45.167 55 67.5 85s42.166 60.5 59.499 91.5s31.5 61.833 42.5 92.5s16.5 60 16.5 88c0 19.333 -2.5 37.666 -7.5 54.999s-12.5 32.5 -22.5 45.5s-22.167 23.167 -36.5 30.5
s-30.833 11 -49.5 11c-14 0 -26.333 -1 -37 -3s-22.334 -5 -35.001 -9z" />
    <glyph glyph-name="three" unicode="3" 
d="M256 35c18.667 0 35.999 4.16797 51.999 12.501s30 19.666 42 33.999s21.5 30.833 28.5 49.5s10.5 38.334 10.5 59.001c0 24.667 -3.83301 46.334 -11.5 65.001s-18.167 34.167 -31.5 46.5s-28.833 21.666 -46.5 27.999s-36.834 9.5 -57.501 9.5h-65v27l168 225l34 35v4
l-54 -6h-169l-39 -102h-25c-2.66699 14 -5.16699 29 -7.5 45s-4.5 31.833 -6.5 47.5s-3.66699 30.834 -5 45.501s-2 28 -2 40h391v-31l-167 -223l-43 -44v-2l34 7c31.333 -1.33301 59.333 -7.33301 84 -18s45.5 -24.834 62.5 -42.501s30 -38.334 39 -62.001
s13.5 -49.5 13.5 -77.5c0 -33.333 -6.66699 -63.5 -20 -90.5s-31.166 -50 -53.499 -69s-48 -33.667 -77 -44s-59.5 -15.5 -91.5 -15.5c-15.333 0 -31.666 1.16699 -48.999 3.5s-34.333 5.83301 -51 10.5s-32.167 10 -46.5 16s-26.5 13 -36.5 21l28 90h20
c4 -4.66699 9.5 -10.667 16.5 -18s14.333 -15 22 -23s15.167 -16 22.5 -24s13.666 -15 18.999 -21c6.66699 -1.33301 15.334 -3 26.001 -5s24.667 -3 42 -3z" />
    <glyph glyph-name="four" unicode="4" 
d="M477 0h-260.001v29c32.667 11.333 63.334 19.333 92.001 24v140h-305v23l370 496h27v-467h127v-52h-127v-140c26 -5.33301 51.333 -13.333 76 -24v-29zM308.999 502l11 72h-3l-39 -72l-168 -231l-40 -33l71 7h168v257z" />
    <glyph glyph-name="five" unicode="5" 
d="M431 755l24.999 -0.00292969c-0.666992 -10 -1.5 -21.167 -2.5 -33.5s-2.5 -24.666 -4.5 -36.999s-4 -24.166 -6 -35.499s-4.33301 -20.666 -7 -27.999h-246l-24 -193h65c33.333 0 63.833 -4.5 91.5 -13.5s51.334 -22.333 71.001 -40s35 -39.167 46 -64.5
s16.5 -54.333 16.5 -87c0 -38.667 -6.66699 -72.667 -20 -102s-31 -53.833 -53 -73.5s-47 -34.5 -75 -44.5s-57 -15 -87 -15c-13.333 0 -27.666 1.16699 -42.999 3.5s-30.5 5.83301 -45.5 10.5s-29.167 10.167 -42.5 16.5s-24.666 13.166 -33.999 20.499l29 90h20
c4 -4.66699 9 -10.667 15 -18s12.167 -15 18.5 -23l19 -24c6.33301 -8 12.166 -15 17.499 -21c6.66699 -1.33301 12.834 -3 18.501 -5s14.5 -3 26.5 -3c22 0 42.167 4.33301 60.5 13s34.166 20.5 47.499 35.5s23.666 32.5 30.999 52.5s11 41.667 11 65
c0 26.667 -5 49.834 -15 69.501s-23.667 35.667 -41 48s-37.5 21.5 -60.5 27.5s-47.167 8.66699 -72.5 8l-71 -1l40 347h238z" />
    <glyph glyph-name="six" unicode="6" 
d="M502 211c0 -30.667 -5.33398 -59.502 -16.001 -86.502s-25.667 -50.667 -45 -71s-42.666 -36.333 -69.999 -48s-57.666 -17.5 -90.999 -17.5c-37.333 0 -70.333 6.5 -99 19.5s-52.834 31.167 -72.501 54.5s-34.5 51 -44.5 83s-15 67 -15 105
c0 62.667 10.333 120.167 31 172.5s48.167 98.666 82.5 138.999s73.666 73.833 117.999 100.5s90.5 45.334 138.5 56.001l11 -30c-35.333 -12.667 -68.833 -29.834 -100.5 -51.501s-60 -47.167 -85 -76.5s-45.833 -62.166 -62.5 -98.499s-27 -75.5 -31 -117.5
c10.667 18 29.667 34.5 57 49.5s59 22.5 95 22.5c28.667 0 55.334 -4.66699 80.001 -14s45.667 -22.666 63 -39.999s31 -38.666 41 -63.999s15 -54.333 15 -87zM405.999 202.998c0 47.333 -11.5039 85.999 -34.5039 115.999s-55.167 45 -96.5 45
c-31.333 0 -58.166 -7.83301 -80.499 -23.5s-38.166 -33.167 -47.499 -52.5c-1.33301 -9.33301 -2 -20.333 -2 -33v-30c0 -21.333 2.83301 -43.166 8.5 -65.499s14.334 -42.833 26.001 -61.5s26.334 -34 44.001 -46s38.167 -18 61.5 -18
c21.333 0 39.666 4.83301 54.999 14.5s27.833 22.5 37.5 38.5s16.834 34.167 21.501 54.5s7 40.833 7 61.5z" />
    <glyph glyph-name="seven" unicode="7" 
d="M111 521h-25.001c-2.66699 14 -5.33398 29 -8.00098 45s-5 32 -7 48s-3.5 31.333 -4.5 46s-1.5 28 -1.5 40h414v-29c-33.333 -59.333 -61 -114 -83 -164s-40.833 -100.5 -56.5 -151.5s-29.167 -105 -40.5 -162s-22.666 -121.5 -33.999 -193.5h-100
c24.667 97.333 55.334 194 92.001 290s79 192.667 127 290l30 48l-52 -5h-212z" />
    <glyph glyph-name="eight" unicode="8" 
d="M49 157c0 22.667 4.00195 44.1699 12.002 64.5029s19.167 38.666 33.5 54.999s31.333 30.833 51 43.5s41.167 23 64.5 31c-18.667 10 -36.167 21 -52.5 33s-30.5 25.667 -42.5 41s-21.5 32.166 -28.5 50.499s-10.5 38.833 -10.5 61.5c0 26 4.66699 49.667 14 71
s22.5 39.666 39.5 54.999s37.667 27.333 62 36s51.5 13 81.5 13c58.667 0 104.334 -14.833 137.001 -44.5s49 -67.834 49 -114.501c0 -38.667 -12.667 -72.5 -38 -101.5s-58.333 -52.833 -99 -71.5c23.333 -12 45 -25.333 65 -40s37.167 -30.667 51.5 -48
s25.666 -36.166 33.999 -56.499s12.5 -42.166 12.5 -65.499c0 -24.667 -4.83301 -48 -14.5 -70s-24 -41.333 -43 -58s-42.333 -29.834 -70 -39.501s-59.5 -14.5 -95.5 -14.5c-36.667 0 -68.334 4.66699 -95.001 14s-48.834 21.833 -66.501 37.5s-30.667 33.667 -39 54
s-12.5 41.5 -12.5 63.5zM397.002 153.003c0 22.667 -4.49805 43.1699 -13.498 61.5029s-21 34.666 -36 48.999s-32.333 27.5 -52 39.5s-39.834 23 -60.501 33c-19.333 -11.333 -35.333 -24 -48 -38s-22.834 -28.5 -30.501 -43.5s-13.167 -29.833 -16.5 -44.5
s-5 -28.334 -5 -41.001c0 -16 2.5 -32.167 7.5 -48.5s12.833 -30.833 23.5 -43.5s24.5 -23 41.5 -31s37.833 -12 62.5 -12c20.667 0 39 3.5 55 10.5s29.333 16.167 40 27.5s18.667 24.166 24 38.499s8 28.5 8 42.5zM162.004 550.006
c0 -20.667 3.83203 -38.665 11.499 -53.998s17.834 -29.166 30.501 -41.499s27.167 -23.5 43.5 -33.5s33.166 -19.333 50.499 -28c28 22.667 47.667 45.334 59 68.001s17 47.667 17 75c0 41.333 -9.16699 73.166 -27.5 95.499s-43.5 33.5 -75.5 33.5
c-18 0 -33.667 -3.33301 -47 -10s-24.666 -15.334 -33.999 -26.001s-16.333 -22.834 -21 -36.501s-7 -27.834 -7 -42.501z" />
    <glyph glyph-name="nine" unicode="9" 
d="M47 487c0 32.667 4.83398 62.6709 14.501 90.0039s24 51 43 71s42.333 35.667 70 47s59.5 17 95.5 17c38.667 0 72.167 -6.5 100.5 -19.5s51.833 -31.167 70.5 -54.5s32.334 -51.833 41.001 -85.5s13 -70.834 13 -111.501c0 -62 -9 -119.333 -27 -172
s-42.5 -98.834 -73.5 -138.501s-67.667 -71.834 -110 -96.501s-87.833 -40 -136.5 -46l-18 29c39.333 10.667 74.166 26.334 104.499 47.001s56.333 45.167 78 73.5s39.167 59.666 52.5 93.999s22.666 70.5 27.999 108.5c-15.333 -16 -33.5 -29.5 -54.5 -40.5
s-49.5 -16.5 -85.5 -16.5c-30 0 -57.667 4.5 -83 13.5s-47 22.167 -65 39.5s-32.167 38.666 -42.5 63.999s-15.5 54.333 -15.5 87zM143.001 488.004c0 -19.333 3 -38.167 9 -56.5s14.667 -34.666 26 -48.999s25 -25.833 41 -34.5s34 -13 54 -13c32 0 58.5 5.5 79.5 16.5
s36.5 24.833 46.5 41.5c1.33301 8.66699 2 19.5 2 32.5v30.5c0 24 -2.5 48.5 -7.5 73.5s-12.833 47.5 -23.5 67.5s-24.667 36.333 -42 49s-38 19 -62 19c-40 0 -70.5 -15.833 -91.5 -47.5s-31.5 -74.834 -31.5 -129.501z" />
    <glyph glyph-name="colon" unicode=":" horiz-adv-x="327" 
d="M119 442c0 20 6.33301 36 19 48s29 18 49 18c20.667 0 37.334 -6 50.001 -18s19 -28 19 -48c0 -19.333 -6.33301 -35 -19 -47s-29.334 -18 -50.001 -18c-20 0 -36.333 6 -49 18s-19 27.667 -19 47zM119 57c0 20 6.33301 36 19 48s29 18 49 18
c20.667 0 37.334 -6 50.001 -18s19 -28 19 -48c0 -19.333 -6.33301 -35 -19 -47s-29.334 -18 -50.001 -18c-20 0 -36.333 6 -49 18s-19 27.667 -19 47z" />
    <glyph glyph-name="semicolon" unicode=";" horiz-adv-x="332" 
d="M124 442c0 20 6.33301 36 19 48s29 18 49 18c20.667 0 37.334 -6 50.001 -18s19 -28 19 -48c0 -19.333 -6.33301 -35 -19 -47s-29.334 -18 -50.001 -18c-20 0 -36.333 6 -49 18s-19 27.667 -19 47zM104 -149c12.667 4.66699 24.6699 11.833 36.0029 21.5
s21.166 20.5 29.499 32.5s14.666 25.167 18.999 39.5s5.83301 28.5 4.5 42.5c-8 7.33301 -18.667 14.666 -32 21.999s-25 12.666 -35 15.999c-3.33301 12.667 -3.5 25 -0.5 37s7.5 22.667 13.5 32s12.833 16.833 20.5 22.5s15.167 8.83398 22.5 9.50098
c23.333 -3.33301 43.833 -13.666 61.5 -30.999s26.5 -43.333 26.5 -78c0 -18.667 -3.33301 -38.167 -10 -58.5s-16.334 -39.5 -29.001 -57.5s-28 -34.167 -46 -48.5s-38.333 -24.833 -61 -31.5z" />
    <glyph glyph-name="less" unicode="&#x3c;" 
d="M44 324v31l385 235l25 -44l-250 -151l-86 -40l85 -31l265 -156l-40 -65z" />
    <glyph glyph-name="equal" unicode="=" 
d="M42 450h450v-53h-450v53zM42 290h450v-53h-450v53z" />
    <glyph glyph-name="greater" unicode="&#x3e;" 
d="M490 369v-31l-385 -235l-24 44l250 151l86 40l-85 31l-265 156l39 65z" />
    <glyph glyph-name="question" unicode="?" horiz-adv-x="473" 
d="M127 519l-25 0.00195312c-5.33301 18 -11.333 41.167 -18 69.5s-11.334 55.5 -14.001 81.5c25.333 15.333 52.5 26.166 81.5 32.499s64.5 9.5 106.5 9.5c30 0 56.167 -4.16699 78.5 -12.5s41 -19.666 56 -33.999s26.333 -31.5 34 -51.5s11.5 -41.667 11.5 -65
c0 -30 -5.5 -56.167 -16.5 -78.5s-24.667 -42.5 -41 -60.5s-34.166 -34.833 -53.499 -50.5s-37.333 -32.167 -54 -49.5s-30.5 -36.333 -41.5 -57s-16.5 -45 -16.5 -73h-20c-4.66699 19.333 -7 38.333 -7 57c0 24 3.83301 45.167 11.5 63.5s17.167 35.166 28.5 50.499
s23.666 29.833 36.999 43.5s25.666 27.667 36.999 42s20.833 29.666 28.5 45.999s11.5 35.166 11.5 56.499c0 14.667 -2.16699 29.167 -6.5 43.5s-11 27.333 -20 39s-20.5 21 -34.5 28s-31 10.5 -51 10.5c-21.333 0 -38.666 -1.66699 -51.999 -5
s-22.666 -7.66602 -27.999 -12.999zM143 57.002c0 20 6.33301 36 19 48s29 18 49 18c20.667 0 37.334 -6 50.001 -18s19 -28 19 -48c0 -19.333 -6.33301 -35 -19 -47s-29.334 -18 -50.001 -18c-20 0 -36.333 6 -49 18s-19 27.667 -19 47z" />
    <glyph glyph-name="at" unicode="@" horiz-adv-x="1064" 
d="M669 474c24.667 11.333 49.666 16.6709 74.999 16.0039l-51 -286c-4 -22 -6.83301 -42 -8.5 -60s-1.66699 -33.5 0 -46.5s5.33398 -23 11.001 -30s14.167 -10.5 25.5 -10.5c22 0 44.667 6.16699 68 18.5s44.833 30.166 64.5 53.499s35.834 51.666 48.501 84.999
s19 70.666 19 111.999c0 50.667 -9.66699 96.667 -29 138s-45.833 76.5 -79.5 105.5s-73 51.333 -118 67s-93.167 23.5 -144.5 23.5c-61.333 0 -116.5 -10.833 -165.5 -32.5s-90.833 -51.334 -125.5 -89.001s-61.334 -82 -80.001 -133s-28 -105.5 -28 -163.5
c0 -59.333 9.66699 -111.833 29 -157.5s46.5 -84.334 81.5 -116.001s76.667 -55.667 125 -72s101.5 -24.5 159.5 -24.5c19.333 0 41.333 2.33301 66 7s47 11.667 67 21l16 -44c-23.333 -13.333 -49 -22.666 -77 -27.999s-59 -8 -93 -8c-57.333 0 -112 8.66699 -164 26
s-97.833 43.333 -137.5 78s-71.167 78 -94.5 130s-35 112.667 -35 182c0 72.667 12 138.334 36 197.001s56.833 108.667 98.5 150s90.5 73.166 146.5 95.499s116 33.5 180 33.5c60 0 115.833 -8.83301 167.5 -26.5s96.5 -43 134.5 -76s67.667 -73.333 89 -121
s32 -101.834 32 -162.501c0 -43.333 -7.5 -84.333 -22.5 -123s-35.333 -72.667 -61 -102s-55.167 -52.666 -88.5 -69.999s-68.333 -26 -105 -26c-20 0 -37 3.16699 -51 9.5s-24.667 16.666 -32 30.999s-11.166 32.833 -11.499 55.5s3.16699 50 10.5 82h-4
c-7.33301 -21.333 -17.5 -42.5 -30.5 -63.5s-27.833 -40 -44.5 -57s-34.5 -30.833 -53.5 -41.5s-38.167 -16 -57.5 -16c-40 0 -70.833 13.833 -92.5 41.5s-32.5 64.5 -32.5 110.5c0 42.667 7.16699 84.334 21.5 125.001s33.666 77 57.999 109s52.5 57.667 84.5 77
s65.667 29 101 29c24 0 43 -2 57 -6s29 -9.66699 45 -17zM651.999 426.005c-10.667 6.66699 -21.5 11.666 -32.5 14.999s-25.167 5 -42.5 5c-25.333 0 -49.333 -8.83301 -72 -26.5s-42.334 -40.167 -59.001 -67.5s-29.834 -57.166 -39.501 -89.499s-14.5 -63.5 -14.5 -93.5
c0 -32 5 -57 15 -75s29 -27 57 -27c12.667 0 26.334 6.16699 41.001 18.5s29.167 28.5 43.5 48.5s28.333 42.5 42 67.5s25.834 50.167 36.501 75.5z" />
    <glyph glyph-name="A" unicode="A" horiz-adv-x="683" 
d="M222 0h-222v29c24 10.667 48 18.667 72 24l253 659h29l253 -659c13.333 -2.66699 26.5 -5.66699 39.5 -9s25.167 -8.33301 36.5 -15v-29h-256v29c13.333 5.33301 27 10 41 14s27.667 7.33301 41 10l-68 183h-239l-66 -183c28 -4 56.667 -12 86 -24v-29zM222 288h202
l-79 212l-19 86h-2l-25 -88z" />
    <glyph glyph-name="B" unicode="B" horiz-adv-x="615" 
d="M29 0l-0.00488281 28.999c26.667 12.667 54 20.667 82 24v593c-13.333 2.66699 -27 6.16699 -41 10.5s-27.667 9.16602 -41 14.499v29h106c12.667 0 24.834 0.333008 36.501 1s23.834 1.33398 36.501 2.00098s26.334 1.33398 41.001 2.00098s31.334 1 50.001 1
c26.667 0 53.834 -2.16699 81.501 -6.5s52.667 -12.5 75 -24.5s40.5 -28.833 54.5 -50.5s21 -49.834 21 -84.501c0 -17.333 -2.66699 -34.666 -8 -51.999s-13.5 -33.5 -24.5 -48.5s-24.833 -28.167 -41.5 -39.5s-36.334 -19.666 -59.001 -24.999v-4
c20 -3.33301 39.833 -9 59.5 -17s37.167 -18.833 52.5 -32.5s27.833 -30.5 37.5 -50.5s14.5 -44 14.5 -72c0 -36 -8 -67 -24 -93s-36.833 -47.333 -62.5 -64s-54.834 -28.834 -87.501 -36.501s-65.667 -11.5 -99 -11.5c-23.333 0 -49.666 1 -78.999 3s-57.666 3 -84.999 3
h-96zM295.995 45.999c24 0 46.5 3.66699 67.5 11s39 17.5 54 30.5s26.833 28.667 35.5 47s13 38.166 13 59.499c0 26.667 -5.16699 48.834 -15.5 66.501s-24.333 31.667 -42 42s-38 17.5 -61 21.5s-46.833 6 -71.5 6h-75v-276c9.33301 -2.66699 20.5 -4.66699 33.5 -6
s33.5 -2 61.5 -2zM250.995 381.999c11.333 0 24.833 0.499023 40.5 1.49902s28.5 2.16699 38.5 3.5c30.667 10.667 55.834 27.834 75.501 51.501s29.5 51.5 29.5 83.5c0 44 -13.167 77 -39.5 99s-61.5 33 -105.5 33c-20.667 0 -38.334 -0.333008 -53.001 -1
s-26.667 -1.66699 -36 -3v-268h50z" />
    <glyph glyph-name="C" unicode="C" horiz-adv-x="644" 
d="M547 182l25.9932 -0.000976562c3.33301 -18.667 6.33301 -42.167 9 -70.5s3.33398 -55.833 2.00098 -82.5c-10 -8 -22 -14.5 -36 -19.5s-28.833 -9.16699 -44.5 -12.5s-31.667 -5.66602 -48 -6.99902s-31.833 -2 -46.5 -2c-56 0 -106 7.16699 -150 21.5
s-81.167 36.166 -111.5 65.499s-53.666 66.833 -69.999 112.5s-24.5 99.834 -24.5 162.501c0 65.333 9 120.833 27 166.5s42.333 83 73 112s66.334 50.167 107.001 63.5s83.334 20 128.001 20c44 0 81 -2.83301 111 -8.5s56.333 -14.167 79 -25.5
c0 -10.667 -0.333008 -23.167 -1 -37.5s-1.66699 -29.5 -3 -45.5s-3 -31.667 -5 -47s-4 -29.333 -6 -42h-26l-52 144c-7.33301 4 -19.5 6.66699 -36.5 8s-33.833 2 -50.5 2c-33.333 0 -64.833 -6.16699 -94.5 -18.5s-55.667 -31.333 -78 -57s-40.166 -58 -53.499 -97
s-20 -84.833 -20 -137.5c0 -47.333 6 -90.166 18 -128.499s29.333 -71 52 -98s50.334 -47.667 83.001 -62s69.667 -21.5 111 -21.5c22 0 40.333 1.66699 55 5s24.334 7.66602 29.001 12.999z" />
    <glyph glyph-name="D" unicode="D" horiz-adv-x="708" 
d="M29 0l0.00292969 29.002c23.333 10.667 50.666 18.667 81.999 24v593c-15.333 3.33301 -30 7.16602 -44 11.499s-26.667 8.83301 -38 13.5v29h102c11.333 0 24.666 0.333008 39.999 1s31.166 1.5 47.499 2.5s32 2 47 3s27.5 1.5 37.5 1.5
c113.333 0 200.5 -30.333 261.5 -91s91.5 -146.667 91.5 -258c0 -52.667 -7.5 -101.5 -22.5 -146.5s-37.833 -83.833 -68.5 -116.5s-69.5 -58.334 -116.5 -77.001s-102.5 -28 -166.5 -28c-10 0 -21.333 0.5 -34 1.5s-26 2 -40 3s-28.167 2 -42.5 3s-27.833 1.5 -40.5 1.5
h-96zM289.003 656.002c-17.333 0 -34 -0.167969 -50 -0.500977s-28.667 -1.5 -38 -3.5v-606c3.33301 -0.666992 9.33301 -1.16699 18 -1.5s18 -0.666016 28 -0.999023s19.5 -0.5 28.5 -0.5h19.5c46 0 85 8.66699 117 26s58.167 40.5 78.5 69.5s35.166 62.5 44.499 100.5
s14 78 14 120c0 32.667 -4.5 66.5 -13.5 101.5s-23.667 67 -44 96s-47.166 52.833 -80.499 71.5s-74 28 -122 28z" />
    <glyph glyph-name="E" unicode="E" horiz-adv-x="582" 
d="M503 700c-0.666992 -26.667 -1.83203 -53.499 -3.49902 -80.499s-4.16699 -54.167 -7.5 -81.5h-26l-41 110h-218v-265h163l39 74h25c4 -66 4 -133.333 0 -202h-25l-39 76h-163v-279h230l49 120h25c4.66699 -28 8 -56.333 10 -85s2.33301 -57.667 1 -87h-493v29
c23.333 10.667 50.666 18.667 81.999 24v593c-13.333 2.66699 -27 6.16699 -41 10.5s-27.667 9.16602 -41 14.499v29h474z" />
    <glyph glyph-name="F" unicode="F" horiz-adv-x="544" 
d="M197 53c29.333 -4 58.001 -12 86.001 -24v-29h-254v29c11.333 5.33301 23 10 35 14s24.333 7.33301 37 10v593c-14.667 3.33301 -28 7.16602 -40 11.499s-22.667 8.83301 -32 13.5v29h469c-0.666992 -26 -1.83398 -52.667 -3.50098 -80s-4.16699 -54.666 -7.5 -81.999
h-26l-41 110h-223v-284h178l36 63h24c3.33301 -30 4.83301 -60.167 4.5 -90.5s-1.83301 -60.833 -4.5 -91.5h-24l-36 67h-178v-259z" />
    <glyph glyph-name="G" unicode="G" horiz-adv-x="688" 
d="M609 48c-12.667 -7.33301 -27.5029 -14.5 -44.5029 -21.5s-35 -13.333 -54 -19s-38 -10.334 -57 -14.001s-36.833 -5.5 -53.5 -5.5c-53.333 0 -101.333 7.16699 -144 21.5s-79 36.333 -109 66s-53.167 67.167 -69.5 112.5s-24.5 99.333 -24.5 162
c0 65.333 9.5 121 28.5 167s44.333 83.5 76 112.5s67.667 50 108 63s81.5 19.5 123.5 19.5c44 0 81.167 -2.83301 111.5 -8.5s56.833 -14.167 79.5 -25.5c0 -10 -0.333008 -22.333 -1 -37s-1.66699 -30 -3 -46s-3 -31.833 -5 -47.5s-4 -29.5 -6 -41.5h-26l-52 144
c-7.33301 4 -19.666 6.66699 -36.999 8s-34.333 2 -51 2c-33.333 0 -65 -6.16699 -95 -18.5s-56.167 -31.333 -78.5 -57s-40.166 -58 -53.499 -97s-20 -84.833 -20 -137.5c0 -47.333 6.5 -90 19.5 -128s31 -70.5 54 -97.5s50 -47.833 81 -62.5s64.5 -22 100.5 -22
c13.333 0 26.333 1.33301 39 4s24.334 5.83398 35.001 9.50098s19.5 7.5 26.5 11.5s11.833 7.33301 14.5 10v202c-17.333 1.33301 -33.833 4.33301 -49.5 9s-31.167 9.66699 -46.5 15v29h245v-29c-6.66699 -4.66699 -14.667 -9 -24 -13s-22 -7.66699 -38 -11v-229z" />
    <glyph glyph-name="H" unicode="H" horiz-adv-x="728" 
d="M282 0l-253.002 0.00195312v29c26.667 10.667 54 18.667 82 24v593c-31.333 4.66699 -58.666 13 -81.999 25v29h253v-29c-11.333 -6 -23.333 -11 -36 -15s-25.667 -7.33301 -39 -10v-261h314v261c-14 3.33301 -27.167 7 -39.5 11s-24.166 8.66699 -35.499 14v29h253v-29
c-12 -6.66699 -25.167 -11.834 -39.5 -15.501s-28.5 -6.83398 -42.5 -9.50098v-593c15.333 -2.66699 30 -6 44 -10s26.667 -8.66699 38 -14v-29h-253v29c24 10.667 49 18.667 75 24v280h-314v-280c13.333 -2.66699 26.333 -6 39 -10s24.667 -8.66699 36 -14v-29z" />
    <glyph glyph-name="I" unicode="I" horiz-adv-x="352" 
d="M304 0h-256.002v29c26 12 52.667 20 80 24v593c-13.333 2.66699 -26.666 6.16699 -39.999 10.5s-26.666 9.16602 -39.999 14.499v29h256v-29c-12 -5.33301 -25 -10.166 -39 -14.499s-27.667 -7.83301 -41 -10.5v-593c14 -2.66699 28 -6 42 -10s26.667 -8.66699 38 -14
v-29z" />
    <glyph glyph-name="J" unicode="J" horiz-adv-x="341" 
d="M39 700l254.005 -0.000976562v-29c-12 -5.33301 -24.333 -10.166 -37 -14.499s-25.667 -7.83301 -39 -10.5v-560c0 -46.667 -5.33301 -85 -16 -115s-23.834 -54.167 -39.501 -72.5s-32.334 -31.833 -50.001 -40.5s-33.834 -14.667 -48.501 -18l-11 15
c10 8.66699 19.167 18.5 27.5 29.5s15.666 24.833 21.999 41.5s11.166 37 14.499 61s5 53.333 5 88v571c-14.667 3.33301 -29 7 -43 11s-27 8.66699 -39 14v29z" />
    <glyph glyph-name="K" unicode="K" horiz-adv-x="646" 
d="M382 700h220.999v-29c-13.333 -6 -26.333 -11 -39 -15s-25 -7.33301 -37 -10l-201 -266c16.667 -22 35.834 -46.667 57.501 -74s44.334 -55.5 68.001 -84.5s48 -58.333 73 -88s49.5 -57.834 73.5 -84.501l48 -24v-25h-125l-34 24c-39.333 46 -78.5 95.667 -117.5 149
s-76.833 107.333 -113.5 162h-49v-282c30.667 -5.33301 55.667 -13.333 75 -24v-29h-253v29c26.667 10.667 54 18.667 82 24v593c-30 4 -57.333 12.333 -82 25v29h253v-29c-10.667 -4.66699 -22.334 -9.16699 -35.001 -13.5s-26 -8.16602 -40 -11.499v-277l60 14l187 263
c-13.333 3.33301 -26 7 -38 11s-23.333 8.66699 -34 14v29z" />
    <glyph glyph-name="L" unicode="L" horiz-adv-x="549" 
d="M29 700l274 0.00390625v-29c-16 -6 -32 -11.167 -48 -15.5s-32 -7.5 -48 -9.5v-594h230l59 161h26c2 -14 3.83301 -30.167 5.5 -48.5s3 -37.333 4 -57s1.5 -38.834 1.5 -57.501s-0.333008 -35.334 -1 -50.001h-503v29c16 7.33301 30.667 12.666 44 15.999s26 6 38 8v593
c-15.333 2.66699 -30 6.16699 -44 10.5s-26.667 9.16602 -38 14.499v29z" />
    <glyph glyph-name="M" unicode="M" horiz-adv-x="867" 
d="M837 0l-248.001 0.00195312v29c13.333 5.33301 26.666 9.83301 39.999 13.5s27 7.16699 41 10.5v450l4 117h-8l-33 -107l-205 -513h-26l-195 513l-36 117h-9l1 -127v-450c12.667 -2.66699 25.334 -6 38.001 -10s25.334 -8.66699 38.001 -14v-29h-209v29
c12.667 5.33301 25.834 10.166 39.501 14.499s27.5 7.83301 41.5 10.5v592c-14 2.66699 -27.833 6.16699 -41.5 10.5s-27.167 9.16602 -40.5 14.499v29h205l174 -457l34 -103h1l34 105l180 455h181v-29c-12 -5.33301 -24.333 -10.166 -37 -14.499
s-25.667 -7.83301 -39 -10.5v-594c14 -2.66699 27.167 -5.83398 39.5 -9.50098s24.166 -8.16699 35.499 -13.5v-29z" />
    <glyph glyph-name="N" unicode="N" horiz-adv-x="732" 
d="M487 700l216 -0.000976562v-29c-28 -18.667 -55.333 -32 -82 -40v-643h-57l-363 551l-39 78h-3l9 -78v-475c27.333 -7.33301 53 -19 77 -35v-29h-216v29c12 7.33301 24.833 13.833 38.5 19.5s28.167 10.834 43.5 15.501v573c-13.333 5.33301 -26.5 11 -39.5 17
s-25.167 12 -36.5 18v28h169l315 -475l46 -86h4l-5 86v406c-14 6 -27.5 12.333 -40.5 19s-25.167 13.667 -36.5 21v29z" />
    <glyph glyph-name="O" unicode="O" horiz-adv-x="740" 
d="M53 350c0 52 7.16699 100.167 21.5 144.5s35 82.666 62 114.999s60.167 57.5 99.5 75.5s84 27 134 27s94.667 -9 134 -27s72.5 -43.167 99.5 -75.5s47.667 -70.666 62 -114.999s21.5 -92.5 21.5 -144.5s-7.16699 -100.167 -21.5 -144.5s-35 -82.666 -62 -114.999
s-60.167 -57.5 -99.5 -75.5s-84 -27 -134 -27s-94.667 9 -134 27s-72.5 43.167 -99.5 75.5s-47.667 70.666 -62 114.999s-21.5 92.5 -21.5 144.5zM160 350c0 -42.667 4.50293 -82.834 13.5029 -120.501s22.5 -70.5 40.5 -98.5s40.667 -50.167 68 -66.5
s59.666 -24.5 96.999 -24.5c34 0 63.667 8.16699 89 24.5s46.166 38.5 62.499 66.5s28.666 60.833 36.999 98.5s12.5 77.834 12.5 120.501s-4.33301 82.834 -13 120.501s-22 70.5 -40 98.5s-40.667 50.167 -68 66.5s-59.666 24.5 -96.999 24.5
c-36.667 0 -67.834 -8.16699 -93.501 -24.5s-46.5 -38.5 -62.5 -66.5s-27.667 -60.833 -35 -98.5s-11 -77.834 -11 -120.501z" />
    <glyph glyph-name="P" unicode="P" horiz-adv-x="596" 
d="M207 53c18 -2 35.001 -5.16699 51.001 -9.5s31 -9.16602 45 -14.499v-29h-274v29c13.333 6.66699 27 11.667 41 15s27.667 6.33301 41 9v593c-15.333 2.66699 -29.666 6.16699 -42.999 10.5s-26.333 9.16602 -39 14.499v29h90c26.667 0 55.667 1.33301 87 4
s61.333 4 90 4c32.667 0 64.667 -3.5 96 -10.5s59.166 -18.833 83.499 -35.5s44 -38.834 59 -66.501s22.5 -62.167 22.5 -103.5c0 -39.333 -7.66699 -73 -23 -101s-35.833 -51 -61.5 -69s-54.834 -31.167 -87.501 -39.5s-66.334 -12.5 -101.001 -12.5h-15.5
c-7 0 -14.5 0.166992 -22.5 0.5s-15.667 0.833008 -23 1.5s-12.666 1.33398 -15.999 2.00098v-221zM275.001 656c-16 0 -29 -0.333984 -39 -1.00098s-19.667 -2 -29 -4v-324c3.33301 -1.33301 8.16602 -2.16602 14.499 -2.49902s13 -0.833008 20 -1.5s13.833 -1 20.5 -1h16
c23.333 0 45.333 3.16699 66 9.5s38.834 16.5 54.501 30.5s28.167 31.667 37.5 53s14 47 14 77c0 54.667 -15.5 95.667 -46.5 123s-73.833 41 -128.5 41z" />
    <glyph glyph-name="Q" unicode="Q" horiz-adv-x="740" 
d="M760 -115c-26.667 -24 -53.999 -44.5 -81.999 -61.5s-58 -25.167 -90 -24.5c-27.333 0 -56 5 -86 15s-62 22 -96 36s-70.167 28.667 -108.5 44s-79.833 28.666 -124.5 39.999l30 20c14.667 2 29 3 43 3c33.333 0 66.166 -4 98.499 -12s64.833 -16.667 97.5 -26
s65.667 -18 99 -26s67.333 -12 102 -12c18 0 36.333 1.33301 55 4s37.667 7.33398 57 14.001zM53.001 350c0 52 7.16699 100.167 21.5 144.5s35 82.666 62 114.999s60.167 57.5 99.5 75.5s84 27 134 27s94.667 -9 134 -27s72.5 -43.167 99.5 -75.5
s47.667 -70.666 62 -114.999s21.5 -92.5 21.5 -144.5s-7.16699 -100.167 -21.5 -144.5s-35 -82.666 -62 -114.999s-60.167 -57.5 -99.5 -75.5s-84 -27 -134 -27s-94.667 9 -134 27s-72.5 43.167 -99.5 75.5s-47.667 70.666 -62 114.999s-21.5 92.5 -21.5 144.5zM160.001 350
c0 -42.667 4.50293 -82.834 13.5029 -120.501s22.5 -70.5 40.5 -98.5s40.667 -50.167 68 -66.5s59.666 -24.5 96.999 -24.5c34 0 63.667 8.16699 89 24.5s46.166 38.5 62.499 66.5s28.666 60.833 36.999 98.5s12.5 77.834 12.5 120.501s-4.33301 82.834 -13 120.501
s-22 70.5 -40 98.5s-40.667 50.167 -68 66.5s-59.666 24.5 -96.999 24.5c-36.667 0 -67.834 -8.16699 -93.501 -24.5s-46.5 -38.5 -62.5 -66.5s-27.667 -60.833 -35 -98.5s-11 -77.834 -11 -120.501z" />
    <glyph glyph-name="R" unicode="R" horiz-adv-x="637" 
d="M207 53c15.333 -3.33301 29.9971 -6.83105 43.9971 -10.498s27.667 -8.16699 41 -13.5v-29h-263v29c14.667 6.66699 28.667 11.667 42 15s26.666 6.33301 39.999 9v593c-17.333 3.33301 -32.666 7.16602 -45.999 11.499s-25.333 8.83301 -36 13.5v29h88
c26.667 0 55.834 1.33301 87.501 4s62.5 4 92.5 4c32.667 0 63.167 -3.66699 91.5 -11s52.833 -19 73.5 -35s36.834 -36.333 48.501 -61s17.5 -54.334 17.5 -89.001c0 -48.667 -12.833 -89 -38.5 -121s-60.5 -55 -104.5 -69c28.667 -45.333 58.667 -90.333 90 -135
s64 -89 98 -133l54 -29v-25h-121l-38 28c-18.667 23.333 -35.667 46.166 -51 68.499s-29.666 45 -42.999 68s-25.833 46.333 -37.5 70s-23.5 48.834 -35.5 75.501h-94v-257zM274.997 656.002c-16 0 -29.167 -0.332031 -39.5 -0.999023s-19.833 -2 -28.5 -4v-299h72
c46 0 82.5 14.667 109.5 44s40.5 68 40.5 116c0 49.333 -14.333 85.666 -43 108.999s-65.667 35 -111 35z" />
    <glyph glyph-name="S" unicode="S" horiz-adv-x="536" 
d="M150 69c8 -8 18.3301 -14.8311 30.9971 -20.498s31.667 -8.5 57 -8.5c21.333 0 41.333 2.83301 60 8.5s34.834 14 48.501 25s24.5 24.333 32.5 40s12 33.5 12 53.5c0 26.667 -8.16699 49 -24.5 67s-36.666 34 -60.999 48s-50.833 27.667 -79.5 41
s-55.167 29.166 -79.5 47.499s-44.666 40.333 -60.999 66s-24.5 57.834 -24.5 96.501c0 28 5 53 15 75s24.167 40.667 42.5 56s40.166 27.166 65.499 35.499s53.666 12.5 84.999 12.5c40.667 0 77.834 -3.16699 111.501 -9.5s60.167 -14.166 79.5 -23.499
c0 -11.333 -0.833008 -24.5 -2.5 -39.5s-3.66699 -30.5 -6 -46.5s-4.83301 -31.5 -7.5 -46.5s-5.33398 -28.167 -8.00098 -39.5h-26l-40 137c-12 5.33301 -27.167 9.33301 -45.5 12s-37.833 4 -58.5 4c-34 0 -61.333 -9.5 -82 -28.5s-31 -45.5 -31 -79.5
c0 -27.333 8.16699 -50.333 24.5 -69s36.833 -35.334 61.5 -50.001s51.167 -28.834 79.5 -42.501s54.833 -29.5 79.5 -47.5s45.167 -39.333 61.5 -64s24.5 -55.334 24.5 -92.001c0 -30 -5.5 -57.333 -16.5 -82s-26.833 -45.667 -47.5 -63s-46 -30.666 -76 -39.999
s-64 -14 -102 -14c-42 0 -79.667 5 -113 15s-57 20.667 -71 32c0.666992 11.333 1.83398 25 3.50098 41s3.66699 32.5 6 49.5s4.83301 33.5 7.5 49.5s5.33398 29.667 8.00098 41h26z" />
    <glyph glyph-name="T" unicode="T" horiz-adv-x="619" 
d="M450 0h-281v29c14.667 5.33301 29.5 10 44.5 14s31.167 7.33301 48.5 10v595h-153l-53 -143h-25c-2 13.333 -3.66699 28.5 -5 45.5s-2.5 34.333 -3.5 52s-1.83301 35 -2.5 52s-1 32.167 -1 45.5h581c0 -13.333 -0.333008 -28.333 -1 -45s-1.5 -33.834 -2.5 -51.501
s-2 -35 -3 -52s-2.5 -32.5 -4.5 -46.5h-26l-52 143h-153v-595c17.333 -3.33301 33.5 -6.66602 48.5 -9.99902s29.5 -8 43.5 -14v-29z" />
    <glyph glyph-name="U" unicode="U" horiz-adv-x="672" 
d="M10 700h253.997v-29c-12.667 -5.33301 -25.334 -10 -38.001 -14s-25.334 -7.66699 -38.001 -11v-409c0 -35.333 3.83301 -64.833 11.5 -88.5s18.834 -42.667 33.501 -57s32.834 -24.666 54.501 -30.999s46.167 -9.5 73.5 -9.5c52.667 0 93.667 14.5 123 43.5
s44 76.833 44 143.5v399c-15.333 5.33301 -29.666 10.833 -42.999 16.5s-25.333 11.5 -36 17.5v29h213v-29c-12.667 -7.33301 -25.5 -14 -38.5 -20s-26.167 -10.667 -39.5 -14v-401c0 -42.667 -5.66699 -79.334 -17 -110.001s-27.166 -56 -47.499 -76s-45 -34.833 -74 -44.5
s-61.167 -14.5 -96.5 -14.5c-83.333 0 -147 18.833 -191 56.5s-66 95.5 -66 173.5v425c-27.333 4 -54.666 12.333 -81.999 25v29z" />
    <glyph glyph-name="V" unicode="V" horiz-adv-x="684" 
d="M545 646c-16 3.33301 -31 7.16699 -45 11.5s-27.667 8.83301 -41 13.5v29h225v-29c-19.333 -10.667 -43.333 -19 -72 -25l-226 -646l-55 -12l-255 658c-13.333 3.33301 -26.333 7.16602 -39 11.499s-25 8.83301 -37 13.5v29h265v-29
c-11.333 -4.66699 -24 -9.16699 -38 -13.5s-28.667 -8.16602 -44 -11.499l171 -457l21 -80h2l20 82z" />
    <glyph glyph-name="W" unicode="W" horiz-adv-x="934" 
d="M796 646c-14 2 -28.001 5.16602 -42.001 9.49902s-28.667 9.5 -44 15.5v29h224v-29c-22.667 -10 -46.667 -18.333 -72 -25l-167 -646l-62 -12l-161 544l-158 -532l-61 -12l-177 658c-13.333 3.33301 -26.333 7 -39 11s-25 8.66699 -37 14v29h260v-29
c-12.667 -4.66699 -25.667 -9.16699 -39 -13.5s-27.666 -8.16602 -42.999 -11.499l99 -403l22 -130h2l35 132l135 455h34l145 -455l29 -130h2l23 132z" />
    <glyph glyph-name="X" unicode="X" horiz-adv-x="670" 
d="M395 700l230 -0.000976562v-29c-11.333 -4.66699 -23.333 -9.16699 -36 -13.5s-25.667 -8.16602 -39 -11.499l-176 -271l205 -322c32 -5.33301 59.333 -13.333 82 -24v-29h-266v29c24 12 49.333 20 76 24l-158 251l-152 -252c14 -2 27.667 -4.5 41 -7.5
s26.333 -8.16699 39 -15.5v-29h-231v29c12.667 6.66699 25.167 11.667 37.5 15s24.5 6.33301 36.5 9l196 299l-188 294c-13.333 4 -26.5 8 -39.5 12s-26.167 8.33301 -39.5 13v29h265v-29c-10 -4 -21.167 -8 -33.5 -12s-26.5 -8.33301 -42.5 -13l140 -226l136 226
c-27.333 6 -55 14.333 -83 25v29z" />
    <glyph glyph-name="Y" unicode="Y" horiz-adv-x="644" 
d="M424 700l219.999 0.00195312v-29c-25.333 -12.667 -50.666 -21 -75.999 -25l-189 -348v-245c26 -3.33301 51.333 -11.333 76 -24v-29h-254v29c24 12 51.333 20 82 24v244l-202 349c-15.333 2.66699 -29.5 6.16699 -42.5 10.5s-25.833 9.16602 -38.5 14.499v29h265v-29
c-10 -4 -21.333 -8.16699 -34 -12.5s-27 -8.5 -43 -12.5l164 -294l154 294c-15.333 3.33301 -29.833 7.16602 -43.5 11.499s-26.5 8.83301 -38.5 13.5v29z" />
    <glyph glyph-name="Z" unicode="Z" horiz-adv-x="610" 
d="M533 192l26.001 0.00195312c2 -13.333 3.83301 -28.333 5.5 -45s3 -33.667 4 -51s1.66699 -34.333 2 -51s0.166016 -31.667 -0.500977 -45h-531v51l416 597h-308l-61 -140h-25c-2 14 -3.83301 29.333 -5.5 46s-3 33.667 -4 51s-1.66699 34.166 -2 50.499
s-0.5 31.166 -0.5 44.499h511v-52l-414 -596h326z" />
    <glyph glyph-name="bracketleft" unicode="[" horiz-adv-x="307" 
d="M83 700h189v-42h-104v-847h104v-41h-189v930z" />
    <glyph glyph-name="backslash" unicode="\" horiz-adv-x="382" 
d="M409 -107l-41 -23l-415 820l42 22z" />
    <glyph glyph-name="bracketright" unicode="]" horiz-adv-x="307" 
d="M224 -230h-189v41h104v847h-104v42h189v-930z" />
    <glyph glyph-name="asciicircum" unicode="^" horiz-adv-x="500" 
d="M233 711h32l170 -277h-88l-88 151l-24 67l-32 -68l-100 -150h-56z" />
    <glyph glyph-name="underscore" unicode="_" horiz-adv-x="410" 
d="M0 -143h410v-53h-410v53z" />
    <glyph glyph-name="grave" unicode="`" horiz-adv-x="328" 
d="M268 593l-22.001 -17l-186 149v20c4 3.33301 10.5 6.5 19.5 9.5s18.833 5.5 29.5 7.5s20.834 3.5 30.501 4.5s17.167 1.16699 22.5 0.5z" />
    <glyph glyph-name="a" unicode="a" horiz-adv-x="505" 
d="M410 131c0 -14.667 0.333008 -27.3291 1 -37.9961s1.33398 -22 2.00098 -34l69 -10v-21c-16.667 -8.66699 -35.167 -16.334 -55.5 -23.001s-39.833 -11.667 -58.5 -15h-25c-6.66699 15.333 -10.667 32.166 -12 50.499s-2.33301 38.5 -3 60.5h-5
c-2.66699 -13.333 -7.83398 -26.833 -15.501 -40.5s-17.667 -25.834 -30 -36.501s-26.833 -19.334 -43.5 -26.001s-35.667 -10 -57 -10c-40.667 0 -73.834 12.333 -99.501 37s-38.5 57 -38.5 97c0 30.667 6.16699 55.834 18.5 75.501s30.5 35.167 54.5 46.5
s53.667 19.5 89 24.5s76.333 8.83301 123 11.5c2.66699 28.667 3.5 54.5 2.5 77.5s-4.66699 42.667 -11 59s-15.666 29 -27.999 38s-28.5 13.5 -48.5 13.5c-9.33301 0 -19.833 -0.5 -31.5 -1.5s-23.167 -3.83301 -34.5 -8.5l-47 -120h-26c-6.66699 20 -12.5 40.667 -17.5 62
s-8.16699 42.333 -9.5 63c25.333 15.333 53.5 27.333 84.5 36s65.5 13 103.5 13c34 0 61.167 -4.83301 81.5 -14.5s35.833 -22.167 46.5 -37.5s17.667 -32.333 21 -51s5 -37.334 5 -56.001c0 -40 -0.833008 -78.5 -2.5 -115.5s-2.5 -72.5 -2.5 -106.5zM217 50.0049
c16.667 0 31.333 3.33301 44 10s23.334 14.667 32.001 24s15.667 18.833 21 28.5s9 17.834 11 24.501v105c-38.667 0 -70.334 -2 -95.001 -6s-44 -10.333 -58 -19s-23.667 -19.5 -29 -32.5s-8 -27.833 -8 -44.5c0 -28.667 7.33301 -50.834 22 -66.501s34.667 -23.5 60 -23.5
z" />
    <glyph glyph-name="b" unicode="b" horiz-adv-x="545" 
d="M77 682l-76.0029 8v26c20.667 8.66699 43.834 15.667 69.501 21s49.5 10.333 71.5 15h25v-351h2c11.333 34 30.5 61 57.5 81s56.833 30 89.5 30c60.667 0 107.167 -20.667 139.5 -62s48.5 -105 48.5 -191c0 -88 -22.167 -154.667 -66.5 -200s-108.166 -68 -191.499 -68
c-16.667 0 -33.334 1.16699 -50.001 3.5s-32.667 5.16602 -48 8.49902s-29.166 7.33301 -41.499 12s-22.166 9.33398 -29.499 14.001v653zM288.997 450c-32 0 -57.999 -10.8311 -77.999 -32.498s-34.667 -49.167 -44 -82.5v-279c12 -6.66699 26.667 -11.834 44 -15.501
s35.666 -5.5 54.999 -5.5c44 0 78.667 19.167 104 57.5s38 93.833 38 166.5c0 26 -2.16699 50.667 -6.5 74s-11.333 43.666 -21 60.999s-22 31 -37 41s-33.167 15 -54.5 15z" />
    <glyph glyph-name="c" unicode="c" horiz-adv-x="466" 
d="M427 70c-12 -23.333 -31.5 -42.832 -58.5 -58.499s-58.5 -23.5 -94.5 -23.5c-39.333 0 -73.5 6.16699 -102.5 18.5s-53.167 30 -72.5 53s-33.833 50.667 -43.5 83s-14.5 68.166 -14.5 107.499c0 84.667 20.667 149.5 62 194.5s97.666 67.5 168.999 67.5
c32.667 0 61.834 -2.83301 87.501 -8.5s47.5 -13.167 65.5 -22.5c-2 -22 -5.66699 -46.667 -11 -74s-12 -50 -20 -68h-27l-42 119c-4.66699 3.33301 -10 5.83301 -16 7.5s-16 2.5 -30 2.5c-45.333 0 -80.333 -16.5 -105 -49.5s-37 -88.833 -37 -167.5
c0 -25.333 3.5 -50 10.5 -74s17.667 -45.5 32 -64.5s32.333 -34.167 54 -45.5s46.834 -17 75.501 -17c23.333 0 43.666 3.33301 60.999 10s32 14.667 44 24z" />
    <glyph glyph-name="d" unicode="d" horiz-adv-x="555" 
d="M373 99c-3.33301 -14.667 -9.00098 -28.667 -17.001 -42s-17.833 -25.166 -29.5 -35.499s-25 -18.5 -40 -24.5s-31.167 -9 -48.5 -9c-66 0 -115.333 21 -148 63s-49 107.333 -49 196c0 85.333 20.833 150.333 62.5 195s97.834 67 168.501 67
c24.667 0 44 -1.16699 58 -3.5s29.333 -6.5 46 -12.5v189l-76 8v26c19.333 8 41.833 15 67.5 21s50.167 11 73.5 15h25v-695l66 -8v-21c-19.333 -9.33301 -39.333 -17.333 -60 -24s-41 -11.334 -61 -14.001h-25l-9 109h-4zM257.999 50c32.667 0 58.667 10.332 78 30.999
s32.666 48.667 39.999 84v282c-11.333 6.66699 -24.666 11.334 -39.999 14.001s-35 4 -59 4c-45.333 0 -80 -19.833 -104 -59.5s-36 -92.5 -36 -158.5c0 -27.333 2.33301 -52.833 7 -76.5s12 -44.5 22 -62.5s22.5 -32.167 37.5 -42.5s33.167 -15.5 54.5 -15.5z" />
    <glyph glyph-name="e" unicode="e" horiz-adv-x="503" 
d="M446 70c-5.33301 -11.333 -13.668 -22.002 -25.001 -32.002s-24.333 -18.667 -39 -26s-30.667 -13.166 -48 -17.499s-35 -6.5 -53 -6.5c-39.333 0 -74 6.16699 -104 18.5s-55 30 -75 53s-35.167 50.5 -45.5 82.5s-15.5 68 -15.5 108c0 85.333 19.667 150.333 59 195
s95 67 167 67c23.333 0 46.333 -3.16699 69 -9.5s42.834 -16.833 60.501 -31.5s32 -34.167 43 -58.5s16.5 -54.5 16.5 -90.5c0 -11.333 -0.5 -22.833 -1.5 -34.5s-2.83301 -24.167 -5.5 -37.5h-312c0 -28 3.5 -54.167 10.5 -78.5s17.5 -45.5 31.5 -63.5
s31.667 -32.167 53 -42.5s46.333 -15.5 75 -15.5c23.333 0 47 3.33301 71 10s42 15.334 54 26.001zM262.998 467.998c-38 0 -67 -12.832 -87 -38.499s-32 -70.834 -36 -135.501h220c0.666992 6 1.16699 11.833 1.5 17.5s0.5 11.167 0.5 16.5c0 42.667 -8 76.667 -24 102
s-41 38 -75 38z" />
    <glyph glyph-name="f" unicode="f" horiz-adv-x="342" 
d="M306 752c6 0 13.001 -0.333984 21.001 -1.00098s16.333 -1.5 25 -2.5s17 -2.33301 25 -4s15 -3.5 21 -5.5c-2 -22 -4.83301 -42.5 -8.5 -61.5s-8.16699 -36.167 -13.5 -51.5h-25l-44 86c-19.333 0 -35.833 -2 -49.5 -6s-25 -11.667 -34 -23s-15.667 -27.666 -20 -48.999
s-6.5 -49.333 -6.5 -84v-50h115v-50h-115v-401c34.667 -4 66.667 -12 96 -24v-25h-252v25c20.667 12 42.667 20 66 24v401h-76v26c23.333 14.667 48.666 25.667 75.999 33v35c0 41.333 5 75.5 15 102.5s24 48.333 42 64s39.167 26.5 63.5 32.5s50.5 9 78.5 9z" />
    <glyph glyph-name="g" unicode="g" horiz-adv-x="526" 
d="M247 512c36 0 66.3301 -3.50488 90.9971 -10.5049s45.334 -17.833 62.001 -32.5c39.333 26.667 80.333 46 123 58c5.33301 -7.33301 9.16602 -16.333 11.499 -27s3.5 -20.667 3.5 -30l-13 -24h-105c16.667 -24 25 -55.667 25 -95c0 -48 -16.833 -87 -50.5 -117
s-82.834 -45 -147.501 -45c-12.667 0 -23 0.333008 -31 1s-17 1.66699 -27 3c-3.33301 -6 -7.16602 -12.667 -11.499 -20s-6.5 -15 -6.5 -23c0 -13.333 7.66699 -23.833 23 -31.5s34.5 -14.5 57.5 -20.5s48 -12.167 75 -18.5s52.167 -15 75.5 -26s42.833 -25.333 58.5 -43
s23.834 -40.5 24.501 -68.5c0.666992 -24 -4.83301 -45.667 -16.5 -65s-27.834 -35.5 -48.501 -48.5s-45.5 -23 -74.5 -30s-60.833 -10.5 -95.5 -10.5c-72.667 0 -127.5 12.333 -164.5 37s-55.5 55.667 -55.5 93c0 18 2.83301 33.667 8.5 47s13.834 25 24.501 35
s24 18.833 40 26.5s34.333 14.834 55 21.501c-14.667 6.66699 -26.834 15.834 -36.501 27.501s-14.5 25.834 -14.5 42.501c0 15.333 6.5 30.5 19.5 45.5s26.167 26.833 39.5 35.5c-38 10 -67.167 29 -87.5 57s-30.5 59.667 -30.5 95c0 22.667 4.33301 43.834 13 63.501
s21.334 36.834 38.001 51.501s37.334 26 62.001 34s53.334 12 86.001 12zM394.997 -81.0049c0 21.333 -7.16797 38.3311 -21.501 50.998s-32.166 23 -53.499 31s-44.333 14.667 -69 20s-47.667 11.333 -69 18c-25.333 -15.333 -42 -31.5 -50 -48.5s-12 -34.5 -12 -52.5
c0 -35.333 12.667 -61.833 38 -79.5s62 -26.5 110 -26.5c24.667 0 45.167 2.33301 61.5 7s29.333 10.834 39 18.501s16.5 16.834 20.5 27.501s6 22 6 34zM137.996 350.993c0 -16 1.83105 -31.168 5.49805 -45.501s9.66699 -26.833 18 -37.5s19.5 -19.167 33.5 -25.5
s31.333 -9.5 52 -9.5c38.667 0 66.334 11.333 83.001 34s25 50.667 25 84c0 36 -8.16699 64.5 -24.5 85.5s-44.166 31.5 -83.499 31.5c-40.667 0 -69 -10.167 -85 -30.5s-24 -49.166 -24 -86.499z" />
    <glyph glyph-name="h" unicode="h" horiz-adv-x="587" 
d="M570 0h-215.998v25c16 8.66699 36 16.667 60 24v234c0 52 -7.33301 92.833 -22 122.5s-41.334 44.5 -80.001 44.5c-17.333 0 -33 -3.16699 -47 -9.5s-26.667 -14.5 -38 -24.5s-21 -21.5 -29 -34.5s-14 -26.5 -18 -40.5v-292c10.667 -2.66699 20.834 -5.66699 30.501 -9
s19.167 -8.33301 28.5 -15v-25h-215v25c20.667 10.667 42.667 18.667 66 24v633l-76 8v26c19.333 8 41.833 15 67.5 21s50.167 11 73.5 15h25v-353h1c14 31.333 34.167 58 60.5 80s58.166 33 95.499 33c26.667 0 50.5 -3.16699 71.5 -9.5s38.5 -17.5 52.5 -33.5
s24.667 -37.5 32 -64.5s11 -61.167 11 -102.5v-253c11.333 -2.66699 22.666 -5.66699 33.999 -9s22 -8.33301 32 -15v-25z" />
    <glyph glyph-name="i" unicode="i" horiz-adv-x="301" 
d="M263 0h-222.002v25c10 5.33301 20.333 9.83301 31 13.5s22.334 7.16699 35.001 10.5v393l-66 8v26c19.333 8 40.333 15 63 21s45.334 11 68.001 15h25v-463c13.333 -3.33301 25.333 -6.83301 36 -10.5s20.667 -8.16699 30 -13.5v-25zM87.998 670
c0 18 5.83301 32.333 17.5 43s27.167 16 46.5 16s34.666 -5.33301 45.999 -16s17 -25 17 -43s-5.66699 -32.167 -17 -42.5s-26.666 -15.5 -45.999 -15.5s-34.833 5.16699 -46.5 15.5s-17.5 24.5 -17.5 42.5z" />
    <glyph glyph-name="j" unicode="j" horiz-adv-x="288" 
d="M106 442l-66 7.99707v26c19.333 9.33301 40.5 16.833 63.5 22.5s45.5 10.167 67.5 13.5h25v-469c0 -47.333 -6 -86.666 -18 -117.999s-26 -56.666 -42 -75.999s-32.333 -33.666 -49 -42.999s-30 -15.333 -40 -18l-12 19c8 4 16.167 11 24.5 21s16 23.833 23 41.5
s12.667 39.167 17 64.5s6.5 55.333 6.5 90v418zM86 669.997c0 18 5.83301 32.333 17.5 43s27.167 16 46.5 16s34.666 -5.33301 45.999 -16s17 -25 17 -43s-5.66699 -32.167 -17 -42.5s-26.666 -15.5 -45.999 -15.5s-34.833 5.16699 -46.5 15.5s-17.5 24.5 -17.5 42.5z" />
    <glyph glyph-name="k" unicode="k" horiz-adv-x="516" 
d="M300 500l192.993 -0.00390625v-26c-12.667 -5.33301 -25.167 -10 -37.5 -14s-25.166 -7.33301 -38.499 -10c-10 -13.333 -21.5 -27.666 -34.5 -42.999s-26.167 -30.666 -39.5 -45.999s-26.166 -29.666 -38.499 -42.999s-22.833 -24.333 -31.5 -33
c10 -13.333 22.167 -29.5 36.5 -48.5s29.833 -39.167 46.5 -60.5s33.834 -43 51.501 -65s35.167 -42.667 52.5 -62l56 -24v-25h-124l-27 24c-35.333 44 -64.666 83.167 -87.999 117.5s-44.666 66.5 -63.999 96.5l-33 10v-199c22 -4 43.667 -12 65 -24v-25h-221v25
c22 10.667 44 18.667 66 24v633l-76 8v26c18.667 8.66699 41 15.667 67 21s50.667 10.333 74 15h25v-478h26c10.667 12 22.334 25.333 35.001 40s25.334 29.834 38.001 45.501s25 31.167 37 46.5s23 30 33 44c-16.667 4.66699 -33 12.667 -49 24v26z" />
    <glyph glyph-name="l" unicode="l" horiz-adv-x="301" 
d="M263 0h-222v25c22 10.667 44 18.667 66 24v633l-76 8v26c17.333 8 39 15 65 21s51.333 11 76 15h25v-703c22 -5.33301 44 -13.333 66 -24v-25z" />
    <glyph glyph-name="m" unicode="m" horiz-adv-x="863" 
d="M548 0l-214.003 0.000976562v25c6.66699 4 14.834 8.16699 24.501 12.5s21.167 8.16602 34.5 11.499v231c0 26.667 -1.16699 50.667 -3.5 72s-6.66602 39.166 -12.999 53.499s-15.5 25.333 -27.5 33s-27.667 11.5 -47 11.5c-14.667 0 -28.167 -3 -40.5 -9
s-23.333 -14 -33 -24s-18 -21.333 -25 -34s-12.5 -26 -16.5 -40v-294c10.667 -3.33301 20.834 -6.83301 30.501 -10.5s19.167 -8.16699 28.5 -13.5v-25h-215v25c9.33301 4.66699 19.666 9 30.999 13s23 7.66699 35 11v393l-66 8v26
c21.333 9.33301 43.166 16.833 65.499 22.5s44.166 10.167 65.499 13.5h25v-113h1c10.667 31.333 28.834 58 54.501 80s57.5 33 95.5 33c16 0 31.333 -1.66699 46 -5s28.334 -9.5 41.001 -18.5s23.334 -21.5 32.001 -37.5s15 -36.667 19 -62
c12 36.667 31.333 66.334 58 89.001s60 34 100 34c24.667 0 46.167 -3.16699 64.5 -9.5s33.5 -17.5 45.5 -33.5s20.833 -37.667 26.5 -65s8.5 -62 8.5 -104v-251c22.667 -4 44.667 -12 66 -24v-25h-215v25c20 10.667 39.667 18.667 59 24v249c0 24 -1.16699 45.333 -3.5 64
s-6.83301 34.5 -13.5 47.5s-16 23 -28 30s-28 10.5 -48 10.5c-32 0 -56.833 -11 -74.5 -33s-30.5 -50 -38.5 -84v-284c23.333 -6.66699 45 -14.667 65 -24v-25z" />
    <glyph glyph-name="n" unicode="n" horiz-adv-x="594" 
d="M577 0h-214.999v25c18 9.33301 37.667 17.333 59 24v237c0 50.667 -7.33301 90.667 -22 120s-41.334 44 -80.001 44c-16.667 0 -32.167 -3 -46.5 -9s-27 -14.167 -38 -24.5s-20.5 -22 -28.5 -35s-14.333 -26.5 -19 -40.5v-292c20.667 -4 40.667 -12 60 -24v-25h-216v25
c16.667 8.66699 38.667 16.667 66 24v393l-66 8v26c17.333 7.33301 37.333 14 60 20s46.334 11.333 71.001 16h25v-112h1c14 30.667 34.167 57 60.5 79s58.166 33 95.499 33c26.667 0 50.5 -3.16699 71.5 -9.5s38.5 -17.5 52.5 -33.5s24.667 -37.5 32 -64.5
s11 -61.167 11 -102.5v-253c26.667 -4.66699 48.667 -12.667 66 -24v-25z" />
    <glyph glyph-name="o" unicode="o" horiz-adv-x="553" 
d="M41 250c0 42 5.49902 79.1689 16.499 111.502s26.833 59.666 47.5 81.999s45.5 39.333 74.5 51s61.167 17.5 96.5 17.5c41.333 0 77 -6.33301 107 -19s54.5 -30.5 73.5 -53.5s33 -50.5 42 -82.5s13.5 -67.667 13.5 -107c0 -84 -21.333 -148.667 -64 -194
s-100 -68 -172 -68c-40 0 -74.667 6.16699 -104 18.5s-53.666 30 -72.999 53s-33.833 50.667 -43.5 83s-14.5 68.166 -14.5 107.499zM136.999 250.002c0 -30 2.83301 -58.332 8.5 -84.999s14.667 -49.834 27 -69.501s28.5 -35.167 48.5 -46.5s44 -17 72 -17
c36 0 65.5 17.667 88.5 53s34.5 90.333 34.5 165c0 30.667 -2.83301 59.167 -8.5 85.5s-14.5 49.333 -26.5 69s-27.333 35.167 -46 46.5s-41 17 -67 17c-39.333 0 -71 -17.667 -95 -53s-36 -90.333 -36 -165z" />
    <glyph glyph-name="p" unicode="p" horiz-adv-x="566" 
d="M253 -200h-221.999v25c22.667 10.667 44.667 18.667 66 24v593l-66 8v26c21.333 9.33301 43.166 16.833 65.499 22.5s44.166 10.167 65.499 13.5h25v-112h1c13.333 34 32 61.167 56 81.5s55.333 30.5 94 30.5c59.333 0 105.333 -19.667 138 -59s49 -103.333 49 -192
c0 -42 -5.5 -80 -16.5 -114s-26.667 -62.667 -47 -86s-45 -41.333 -74 -54s-61.167 -19 -96.5 -19c-24.667 0 -44 1.5 -58 4.5s-29.333 8.16699 -46 15.5v-159c10.667 -1.33301 21.334 -3.83301 32.001 -7.5s22 -9.16699 34 -16.5v-25zM306.001 450
c-32.667 0 -58.665 -10.334 -77.998 -31.001s-33 -49 -41 -85v-280c12 -7.33301 25.5 -12.833 40.5 -16.5s34.5 -5.5 58.5 -5.5c22 0 41.833 5.66699 59.5 17s32.667 27.333 45 48s21.833 44.834 28.5 72.501s10 58.167 10 91.5c0 27.333 -2.16699 52.5 -6.5 75.5
s-11.333 43 -21 60s-22.334 30.167 -38.001 39.5s-34.834 14 -57.501 14z" />
    <glyph glyph-name="q" unicode="q" horiz-adv-x="548" 
d="M372 89c-9.33301 -26.667 -25.667 -50.166 -49 -70.499s-53 -30.5 -89 -30.5c-64 0 -112.167 21.167 -144.5 63.5s-48.5 107.5 -48.5 195.5c0 86.667 21.5 152 64.5 196s104.833 66 185.5 66c36 0 70.333 -3.33301 103 -10s56.667 -13.667 72 -21v-629
c11.333 -2 22.333 -4.83301 33 -8.5s21.667 -8.83398 33 -15.501v-25h-222v25c20.667 10.667 42.667 18.667 66 24v240h-4zM257.999 50.001c32.667 0 58.499 10.333 77.499 31s32.5 48.334 40.5 83.001v287c-12 4 -26.167 7.33301 -42.5 10s-35.166 4 -56.499 4
c-44.667 0 -79.167 -17.333 -103.5 -52s-36.5 -89.334 -36.5 -164.001c0 -28 2 -54 6 -78s10.833 -45 20.5 -63s22.167 -32.167 37.5 -42.5s34.333 -15.5 57 -15.5z" />
    <glyph glyph-name="r" unicode="r" horiz-adv-x="384" 
d="M244 425c-7.33301 -4 -16.501 -12.168 -27.501 -24.501s-20.833 -30.5 -29.5 -54.5v-297c13.333 -1.33301 26.666 -3.83301 39.999 -7.5s26.666 -9.16699 39.999 -16.5v-25h-236v25c12 6.66699 23.333 11.667 34 15s21.334 6.33301 32.001 9v393l-66 8v26
c21.333 9.33301 43.333 16.833 66 22.5s44.334 10.167 65.001 13.5h25v-106h4c6 13.333 14.5 26.666 25.5 39.999s23.667 25.333 38 36s30 18.834 47 24.501s34.5 7.5 52.5 5.5c4.66699 -8.66699 8.83398 -18.167 12.501 -28.5s7.16699 -21.166 10.5 -32.499v-26h-133z" />
    <glyph glyph-name="s" unicode="s" horiz-adv-x="433" 
d="M295 114c0 18.667 -5.83203 34.5039 -17.499 47.5039s-26.5 25.167 -44.5 36.5s-37.167 22.333 -57.5 33s-39.5 23.167 -57.5 37.5s-32.833 30.833 -44.5 49.5s-17.5 41.667 -17.5 69c0 18 4.16699 34.667 12.5 50s19.5 28.5 33.5 39.5s30.333 19.667 49 26
s38.667 9.5 60 9.5c36 0 65.5 -2 88.5 -6s45.167 -9.66699 66.5 -17c-2.66699 -21.333 -5.83398 -42.833 -9.50098 -64.5s-8.83398 -43.834 -15.501 -66.501h-25l-38 102c-8 3.33301 -17 5.5 -27 6.5s-20.333 1.5 -31 1.5c-12 0 -22.5 -2.16699 -31.5 -6.5
s-16.667 -9.83301 -23 -16.5s-11.166 -14.334 -14.499 -23.001s-5 -17.334 -5 -26.001c0 -18 5.83301 -33.5 17.5 -46.5s26.5 -25 44.5 -36s37.167 -21.833 57.5 -32.5s39.5 -22.667 57.5 -36s32.833 -28.833 44.5 -46.5s17.5 -38.834 17.5 -63.501
c0 -22.667 -4.83301 -43 -14.5 -61s-23 -33.333 -40 -46s-36.667 -22.5 -59 -29.5s-46.166 -10.5 -71.499 -10.5c-28.667 0 -55 2.5 -79 7.5s-49 12.167 -75 21.5c1.33301 24 4.33301 47.167 9 69.5s10.667 43.833 18 64.5h25l44 -109
c7.33301 -5.33301 16.166 -8.33301 26.499 -9s19.833 -1 28.5 -1c29.333 0 53 8 71 24s27 35.333 27 58z" />
    <glyph glyph-name="t" unicode="t" horiz-adv-x="371" 
d="M15 476c25.333 16 51.999 27.3311 79.999 33.998v85c8.66699 6.66699 18.834 13.167 30.501 19.5s23.167 11.833 34.5 16.5h25v-131h150v-50h-150v-290c0 -40 6.33301 -68.333 19 -85s31.667 -25 57 -25c12 0 27 0.833008 45 2.5s33.333 4.83398 46 9.50098l7 -15
c-5.33301 -6 -12.833 -12.333 -22.5 -19s-20.667 -13 -33 -19s-25.833 -11 -40.5 -15s-29.667 -6 -45 -6c-40 0 -70.5 11.333 -91.5 34s-31.5 59.334 -31.5 110.001v318h-80v26z" />
    <glyph glyph-name="u" unicode="u" horiz-adv-x="574" 
d="M77 198c0 42 1.00195 83.167 3.00195 123.5s3 80.5 3 120.5l-66 8v26c21.333 8 43.166 15 65.499 21s44.166 11 65.499 15h25c0 -50 -1 -99.667 -3 -149s-3 -98.333 -3 -147c0 -26 1.5 -49.333 4.5 -70s8.33301 -38 16 -52s18.167 -24.833 31.5 -32.5
s30.333 -11.5 51 -11.5c30 0 55.167 10.833 75.5 32.5s36.166 49.834 47.499 84.501v275l-65 8v26c20.667 8 42.167 15 64.5 21s44.166 11 65.499 15h25v-455l66 -8v-21c-19.333 -8.66699 -38.833 -16.334 -58.5 -23.001s-40.167 -11.667 -61.5 -15h-25l-7 119h-4
c-3.33301 -14 -9.16602 -28.167 -17.499 -42.5s-19.166 -27.333 -32.499 -39s-28.5 -21.167 -45.5 -28.5s-35.5 -11 -55.5 -11c-26.667 0 -50.167 3.16699 -70.5 9.5s-37.5 17.5 -51.5 33.5s-24.667 37.5 -32 64.5s-11 61.167 -11 102.5z" />
    <glyph glyph-name="v" unicode="v" horiz-adv-x="507" 
d="M238 -12l-194.999 461.999c-19.333 6.66699 -37 14.667 -53 24v26h209v-25c-8.66699 -4.66699 -17.5 -9.16699 -26.5 -13.5s-19.167 -8.16602 -30.5 -11.499l116 -301l20 -62h2l15 63l107 300c-10.667 2.66699 -20.5 6 -29.5 10s-17.5 8.66699 -25.5 14v26h170v-26
c-6.66699 -4.66699 -14.834 -9 -24.501 -13s-20.5 -7.66699 -32.5 -11l-177 -450z" />
    <glyph glyph-name="w" unicode="w" horiz-adv-x="728" 
d="M200 -12l-157.001 461.999c-9.33301 3.33301 -18.5 6.83301 -27.5 10.5s-17.5 8.16699 -25.5 13.5v26h208v-25c-9.33301 -5.33301 -18.666 -10.166 -27.999 -14.499s-19 -7.83301 -29 -10.5l87 -292l13 -72h2l15 74l108 330l30 10l115 -341l18 -73h2l15 73l77 291
c-7.33301 1.33301 -15.833 4 -25.5 8s-19.5 9.33301 -29.5 16v26h170v-26c-14 -9.33301 -33 -17.333 -57 -24l-142 -450l-53 -12l-99 283l-19 83h-3l-23 -83l-90 -271z" />
    <glyph glyph-name="x" unicode="x" horiz-adv-x="519" 
d="M298 268l158.001 -219c9.33301 -3.33301 18.5 -6.83301 27.5 -10.5s17.5 -8.16699 25.5 -13.5v-25h-205v24c9.33301 5.33301 18 10.166 26 14.499s16 7.83301 24 10.5l-111 164l-112 -164c9.33301 -3.33301 18 -7 26 -11s16 -8.33301 24 -13v-25h-171v25
c18.667 11.333 37.334 19.333 56.001 24l149 199l-150 202c-9.33301 3.33301 -17.833 6.83301 -25.5 10.5s-15.5 8.16699 -23.5 13.5v26h201v-25c-8 -5.33301 -15.833 -10.166 -23.5 -14.499s-16.167 -7.83301 -25.5 -10.5l104 -150l102 150
c-22.667 7.33301 -39.334 15.333 -50.001 24v26h167v-26c-12.667 -8.66699 -31.334 -16.667 -56.001 -24z" />
    <glyph glyph-name="y" unicode="y" horiz-adv-x="505" 
d="M42 450c-10 2.66699 -19.168 6 -27.501 10s-16.833 8.66699 -25.5 14v26h209v-25c-14 -9.33301 -33 -17.666 -57 -24.999l128 -296l19 -62h2l15 63l95 295c-20 4 -38.333 12 -55 24v26h171v-26c-14 -9.33301 -33 -17.333 -57 -24l-156 -450
c-16 -42.667 -31.167 -77.167 -45.5 -103.5s-28.666 -47.166 -42.999 -62.499s-29 -26.5 -44 -33.5s-31.167 -12.167 -48.5 -15.5c-7.33301 12.667 -13.833 26.667 -19.5 42s-10.5 30 -14.5 44l13 24h104c4 5.33301 7.5 10.5 10.5 15.5s6.16699 11.167 9.5 18.5
s7 16.666 11 27.999s8.66699 25.666 14 42.999z" />
    <glyph glyph-name="z" unicode="z" horiz-adv-x="488" 
d="M423 171c4.66699 -28 8.16699 -56.1689 10.5 -84.502s2.83301 -57.166 1.5 -86.499h-392v25l285 431h-189l-44 -118h-25c-5.33301 28.667 -8.5 56.834 -9.5 84.501s-1.5 53.5 -1.5 77.5h376v-26l-286 -430h195l54 127h25z" />
    <glyph glyph-name="braceleft" unicode="{" horiz-adv-x="348" 
d="M135 111c0 34 -7 60.667 -21 80s-33.667 29 -59 29v30c25.333 0 45 10.167 59 30.5s21 45.166 21 74.499v239c0 32 8 57.667 24 77s40 29 72 29h90v-42h-48c-18 0 -31.167 -4.66699 -39.5 -14s-12.5 -24.666 -12.5 -45.999v-233c0 -22 -3.5 -40.667 -10.5 -56
s-16 -27.833 -27 -37.5s-22.833 -17 -35.5 -22s-25 -8.16699 -37 -9.5v-6c11.333 -1.33301 23.5 -4.66602 36.5 -9.99902s25 -13.333 36 -24s20 -23.834 27 -39.501s10.5 -34.167 10.5 -55.5v-234c0 -20.667 4 -35.834 12 -45.501s21.667 -14.5 41 -14.5h47v-41h-90
c-30 0 -53.5 8.83301 -70.5 26.5s-25.5 43.834 -25.5 78.501v236z" />
    <glyph glyph-name="bar" unicode="|" horiz-adv-x="237" 
d="M93 700h52v-830h-52v830z" />
    <glyph glyph-name="braceright" unicode="}" horiz-adv-x="348" 
d="M238 360c0 -34 6.99902 -60.667 20.999 -80s33.667 -29 59 -29v-30c-25.333 0 -45 -10.167 -59 -30.5s-21 -45.166 -21 -74.499v-240c0 -32 -8 -57.667 -24 -77s-40 -29 -72 -29h-90v41h49c18 0 31.167 4.66699 39.5 14s12.5 24.666 12.5 45.999v235c0 22 3 40.667 9 56
s13.833 27.833 23.5 37.5s20.334 17 32.001 22s23.5 8.16699 35.5 9.5v6c-11.333 1.33301 -23 4.66602 -35 9.99902s-22.833 13.333 -32.5 24s-17.5 23.834 -23.5 39.501s-9 34.167 -9 55.5v232c0 20.667 -4 35.834 -12 45.501s-21.667 14.5 -41 14.5h-48v42h91
c30 0 53.333 -8.83301 70 -26.5s25 -43.834 25 -78.501v-235z" />
    <glyph glyph-name="asciitilde" unicode="~" horiz-adv-x="530" 
d="M58 322c24 36 46.998 60.833 68.998 74.5s43 20.5 63 20.5c16.667 0 33 -3.5 49 -10.5s31.667 -14.833 47 -23.5s30.833 -16.5 46.5 -23.5s31.834 -10.5 48.501 -10.5c12 0 24.5 2.5 37.5 7.5s26.167 13.833 39.5 26.5l13 -21c-19.333 -28 -38.5 -47.833 -57.5 -59.5
s-37.5 -17.5 -55.5 -17.5c-17.333 0 -34.166 3.5 -50.499 10.5s-32.5 14.833 -48.5 23.5s-32 16.5 -48 23.5s-32 10.5 -48 10.5c-14.667 0 -29.5 -4 -44.5 -12s-30.167 -22.333 -45.5 -43z" />
    <glyph glyph-name="uni00A0" unicode="&#xa0;" horiz-adv-x="243" 
 />
    <glyph glyph-name="exclamdown" unicode="&#xa1;" horiz-adv-x="327" 
d="M153 286l32 -176v-296c-14 -7.33301 -29 -11 -45 -11s-31 3.66699 -45 11v296l32 176h26zM208 446c0 -19.333 -6.33301 -35 -19 -47s-29 -18 -49 -18c-20.667 0 -37.334 6 -50.001 18s-19 27.667 -19 47c0 20 6.33301 36 19 48s29.334 18 50.001 18
c20 0 36.333 -6 49 -18s19 -28 19 -48z" />
    <glyph glyph-name="cent" unicode="&#xa2;" 
d="M480 70c-13.333 -24 -33.333 -43.501 -60 -58.501s-58 -22.833 -94 -23.5v-158h-53v162c-70 10 -122.667 37.833 -158 83.5s-53 103.834 -53 174.501c0 36.667 5.16699 69.834 15.5 99.501s24.833 55.5 43.5 77.5s40.834 39.667 66.501 53s54.167 22.666 85.5 27.999v152
h53v-148c32 0 60.833 -2.83301 86.5 -8.5s47.5 -13.167 65.5 -22.5c-2 -22 -5.83301 -46.667 -11.5 -74s-12.5 -50 -20.5 -68h-25l-41 119c-4.66699 3.33301 -10 5.83301 -16 7.5s-15.667 2.5 -29 2.5h-10v-415c12 -2 24 -3 36 -3c23.333 0 43.666 3.33301 60.999 10
s32 14.667 44 24zM158 250.999c0 -38 9.83301 -74 29.5 -108s48.5 -59.333 86.5 -76v393c-35.333 -10.667 -63.5 -32.667 -84.5 -66s-31.5 -81 -31.5 -143z" />
    <glyph glyph-name="sterling" unicode="&#xa3;" 
d="M30 381l85.001 0.00292969c-10 21.333 -18.667 43.666 -26 66.999s-11 52 -11 86c0 27.333 5 52 15 74s24 40.667 42 56s39.667 27.166 65 35.499s53.666 12.5 84.999 12.5c40.667 0 78 -3.33301 112 -10s60.667 -14.667 80 -24
c-0.666992 -10.667 -1.83398 -23.5 -3.50098 -38.5s-3.66699 -30.333 -6 -46s-4.83301 -31.167 -7.5 -46.5s-5.33398 -28.666 -8.00098 -39.999h-25l-40 137c-12.667 5.33301 -28 9.33301 -46 12s-37.333 4 -58 4c-26 0 -48.167 -5.66699 -66.5 -17
s-31.166 -27.333 -38.499 -48c-5.33301 -14.667 -8 -30 -8 -46c0.666992 -34 5 -64.333 13 -91s16.667 -52.334 26 -77.001h156v-51h-138c4.66699 -16.667 8.33398 -33.167 11.001 -49.5s3.33398 -34.166 2.00098 -53.499c-0.666992 -22.667 -5.16699 -44.334 -13.5 -65.001
s-21.833 -38.667 -40.5 -54l-33 -28v-4l56 6h199l49 112h25c1.33301 -14.667 2.66602 -30.667 3.99902 -48s2.5 -34.833 3.5 -52.5s1.83301 -34.667 2.5 -51s1 -30.5 1 -42.5h-460v31c42.667 18.667 74.5 41 95.5 67s31.833 59.333 32.5 100
c0 7.33301 -0.166992 14.166 -0.5 20.499s-0.833008 12.833 -1.5 19.5c-4 36 -11 66.667 -21 92h-108v51z" />
    <glyph glyph-name="currency" unicode="&#xa4;" 
d="M36 170l83.001 82.002l35 11c-9.33301 11.333 -16 24 -20 38s-6 29 -6 45c0 15.333 2 30.166 6 44.499s10.667 27.166 20 38.499l-35 11l-82 83l54 54l82 -83l12 -34c11.333 8.66699 23.833 15.334 37.5 20.001s28.5 7 44.5 7c16 -0.666992 31 -3.16699 45 -7.5
s26.333 -10.833 37 -19.5l13 34l82 82l53 -54l-83 -82l-32 -11c15.333 -22.667 23 -50.334 23 -83.001c0.666992 -31.333 -7 -59.333 -23 -84l32 -10l82 -83l-53 -54l-82 82l-12 34c-10.667 -7.33301 -23 -13.166 -37 -17.499s-29 -6.5 -45 -6.5s-30.833 2.16699 -44.5 6.5
s-26.834 10.166 -39.501 17.499l-10 -33l-83 -82zM267.001 264.002c24 0 44.167 7.66699 60.5 23s24.5 35 24.5 59s-8.16699 43.833 -24.5 59.5s-36.5 23.5 -60.5 23.5c-24 0.666992 -44.167 -7 -60.5 -23s-24.5 -36 -24.5 -60s8.16699 -43.667 24.5 -59s36.5 -23 60.5 -23z
" />
    <glyph glyph-name="yen" unicode="&#xa5;" 
d="M359 700l220 0.00195312v-29c-26.667 -12.667 -52 -21 -76 -25l-160 -311h144v-52h-163v-63h163v-52h-163v-115c26 -3.33301 51.333 -11.333 76 -24v-29h-254v29c24 12 51.333 20 82 24v115h-163v52h163v63h-163v52h142l-171 311
c-15.333 2.66699 -29.5 6.16699 -42.5 10.5s-25.833 9.16602 -38.5 14.499v29h265v-29c-10 -4 -21.333 -8.16699 -34 -12.5s-27 -8.5 -43 -12.5l154 -295l144 295c-15.333 3.33301 -29.833 7.16602 -43.5 11.499s-26.5 8.83301 -38.5 13.5v29z" />
    <glyph glyph-name="brokenbar" unicode="&#xa6;" horiz-adv-x="237" 
d="M93 190h52v-320h-52v320zM145 380h-52v320h52v-320z" />
    <glyph glyph-name="section" unicode="&#xa7;" horiz-adv-x="527" 
d="M347 44c0 20 -7.16992 36.0049 -21.5029 48.0049s-32.166 22.5 -53.499 31.5s-44.333 17.667 -69 26s-47.667 18.666 -69 30.999s-39.166 28.166 -53.499 47.499s-21.5 44.666 -21.5 75.999c0 33.333 12.667 62 38 86s56.333 43.667 93 59c-14 6.66699 -27 14 -39 22
s-22.5 17.5 -31.5 28.5s-16.167 23.667 -21.5 38s-8 30.833 -8 49.5c0 18 4 34.667 12 50s19.167 28.5 33.5 39.5s31.5 19.667 51.5 26s42.333 9.5 67 9.5c36 0 67 -1.83301 93 -5.5s49.667 -9.5 71 -17.5c-1.33301 -10.667 -2.66602 -19.834 -3.99902 -27.501
s-3 -15.167 -5 -22.5s-4.33301 -15 -7 -23s-5.66699 -17.333 -9 -28h-25l-56 72c-8 3.33301 -15.5 5.5 -22.5 6.5s-15.833 1.5 -26.5 1.5c-28.667 0 -49.667 -7.66699 -63 -23s-20 -31.666 -20 -48.999c0 -20 7.16699 -36.5 21.5 -49.5s32.166 -24.5 53.499 -34.5
s44.333 -19.5 69 -28.5s47.667 -19.833 69 -32.5s39.166 -28 53.499 -46s21.5 -40.667 21.5 -68c0 -19.333 -4 -36.833 -12 -52.5s-18.333 -29.834 -31 -42.501s-26.667 -23.834 -42 -33.501s-30 -17.834 -44 -24.501c13.333 -6 26 -12.5 38 -19.5s22.5 -15.167 31.5 -24.5
s16 -19.833 21 -31.5s7.5 -25.167 7.5 -40.5c0 -46.667 -17.667 -83.334 -53 -110.001s-82.666 -40 -141.999 -40c-55.333 0 -109.333 9.66699 -162 29c0.666992 12 1.83398 22.167 3.50098 30.5s3.5 16.333 5.5 24s4.33301 15.334 7 23.001s5.66699 16.834 9 27.501h25
l64 -79c7.33301 -6 14.5 -9.33301 21.5 -10s15.167 -1 24.5 -1c32 0 57.833 8 77.5 24s29.5 35.333 29.5 58zM377.997 313.005c0 16 -3.99902 29.8311 -11.999 41.498s-18.667 21.667 -32 30s-28.5 16 -45.5 23s-34.5 14.167 -52.5 21.5
c-22.667 -10.667 -42.834 -25.167 -60.501 -43.5s-26.5 -38.166 -26.5 -59.499c0 -17.333 4.16699 -32.333 12.5 -45s19.166 -23.667 32.499 -33s28.833 -17.666 46.5 -24.999s35.5 -14.333 53.5 -21c11.333 6.66699 22 14.667 32 24s18.833 18.833 26.5 28.5
s13.834 19.5 18.501 29.5s7 19.667 7 29z" />
    <glyph glyph-name="dieresis" unicode="&#xa8;" horiz-adv-x="450" 
d="M60 663c0 16 5 28.833 15 38.5s23 14.5 39 14.5s29 -4.83301 39 -14.5s15 -22.5 15 -38.5c0 -15.333 -5 -27.666 -15 -36.999s-23 -14 -39 -14s-29 4.66699 -39 14s-15 21.666 -15 36.999zM282 663c0 16 5 28.833 15 38.5s23 14.5 39 14.5s29 -4.83301 39 -14.5
s15 -22.5 15 -38.5c0 -15.333 -5 -27.666 -15 -36.999s-23 -14 -39 -14s-29 4.66699 -39 14s-15 21.666 -15 36.999z" />
    <glyph glyph-name="copyright" unicode="&#xa9;" horiz-adv-x="807" 
d="M51 290c0 55.333 9.83203 104.833 29.499 148.5s45.834 80.5 78.501 110.5s70.167 53 112.5 69s86.5 24 132.5 24s90.167 -8 132.5 -24s79.666 -39 111.999 -69s58.333 -66.833 78 -110.5s29.5 -93.167 29.5 -148.5s-9.83301 -104.833 -29.5 -148.5
s-45.667 -80.5 -78 -110.5s-69.666 -53 -111.999 -69s-86.5 -24 -132.5 -24c-48 0 -93.5 8 -136.5 24s-80.5 39 -112.5 69s-57.333 66.833 -76 110.5s-28 93.167 -28 148.5zM102.999 290c0 -46 7.83398 -87.832 23.501 -125.499s37.167 -69.667 64.5 -96
s59.333 -46.833 96 -61.5s75.667 -22 117 -22s80.333 7.33301 117 22s68.5 35.167 95.5 61.5s48.333 58.333 64 96s23.5 79.5 23.5 125.5s-8.33301 87.833 -25 125.5s-38.834 69.667 -66.501 96s-59.667 46.833 -96 61.5s-73.833 22 -112.5 22
c-44 0 -84.5 -7.33301 -121.5 -22s-68.667 -35.334 -95 -62.001s-47 -58.667 -62 -96s-22.5 -79 -22.5 -125zM510 206.001l25.002 0.00195312c2.66699 -10 4.66699 -25.167 6 -45.5s1 -38.5 -1 -54.5c-6 -4.66699 -13.5 -8.5 -22.5 -11.5s-18.5 -5.5 -28.5 -7.5
s-20.333 -3.33301 -31 -4s-20.334 -1 -29.001 -1c-32.667 0 -62.5 4.5 -89.5 13.5s-50.333 22.333 -70 40s-35 39.5 -46 65.5s-16.5 56 -16.5 90c0 34.667 6.16699 65 18.5 91s28.333 47.667 48 65s42 30.5 67 39.5s50.167 13.5 75.5 13.5c26 0 49.333 -1.83301 70 -5.5
s37.667 -8.83398 51 -15.501c0.666992 -6 1 -13.833 1 -23.5s-0.333008 -19.834 -1 -30.501s-1.66699 -21 -3 -31s-3 -18.333 -5 -25h-25l-30 83c-4.66699 3.33301 -12 5.16602 -22 5.49902s-19.667 0.5 -29 0.5c-38 0 -67.5 -14.833 -88.5 -44.5s-31.5 -70.5 -31.5 -122.5
c0 -22 2.33301 -43.167 7 -63.5s12.167 -38.333 22.5 -54s23.833 -28 40.5 -37s36.667 -13.5 60 -13.5c13.333 0 24.166 1.33301 32.499 4s13.833 5.33398 16.5 8.00098z" />
    <glyph glyph-name="ordfeminine" unicode="&#xaa;" horiz-adv-x="430" 
d="M99 605c-6.66699 7.33301 -12.334 17.501 -17.001 30.501s-7.33398 26.5 -8.00098 40.5c16.667 8.66699 37.167 16.167 61.5 22.5s57.166 9.5 98.499 9.5c42.667 0 71.834 -8.66699 87.501 -26s23.5 -42.333 23.5 -75c0 -12.667 -0.166992 -26.5 -0.5 -41.5
s-0.666016 -29.833 -0.999023 -44.5s-0.666016 -28.834 -0.999023 -42.501s-0.5 -25.834 -0.5 -36.501l50 -10v-26c-12.667 -7.33301 -26.167 -13.5 -40.5 -18.5s-29.166 -8.16699 -44.499 -9.5h-17c-4.66699 11.333 -7.83398 22.5 -9.50098 33.5
s-2.83398 22.167 -3.50098 33.5h-4c-3.33301 -6 -8 -13 -14 -21s-13.833 -15.5 -23.5 -22.5s-21.167 -13 -34.5 -18s-29 -7.5 -47 -7.5c-30.667 0 -55.834 8.5 -75.501 25.5s-29.5 40.167 -29.5 69.5c0 20.667 5.16699 37.5 15.5 50.5s24.5 23.167 42.5 30.5
s38.833 12.5 62.5 15.5s48.834 4.5 75.501 4.5c4.66699 0 9.16699 -0.166992 13.5 -0.5s8.83301 -0.5 13.5 -0.5c0.666992 4 1 9.5 1 16.5v15.5c0 8.66699 -1 17 -3 25s-5.66699 15.167 -11 21.5s-12.5 11.333 -21.5 15s-20.833 5.5 -35.5 5.5
c-8 0 -16.667 -0.666992 -26 -2s-18.666 -3.66602 -27.999 -6.99902l-22 -56h-27zM182 422.001c14 0 25.9971 2.33301 35.9971 7s18.5 10.167 25.5 16.5s12.833 13.166 17.5 20.499s8.33398 14 11.001 20v52c-7.33301 0.666992 -14.333 1 -21 1h-20
c-13.333 0 -26.166 -1.16699 -38.499 -3.5s-23.166 -6 -32.499 -11s-16.833 -11.5 -22.5 -19.5s-8.5 -17.667 -8.5 -29c0 -13.333 4.5 -25.666 13.5 -36.999s22.167 -17 39.5 -17z" />
    <glyph glyph-name="guillemotleft" unicode="&#xab;" horiz-adv-x="471" 
d="M218 259l169 205l25 -19l-106 -179l112 -189l-24 -20zM24 259l213 207l26 -20l-140 -181l146 -189l-26 -21z" />
    <glyph glyph-name="logicalnot" unicode="&#xac;" 
d="M55 387h425v-189h-62v126h-363v63z" />
    <glyph glyph-name="uni00AD" unicode="&#xad;" horiz-adv-x="425" 
d="M71 313h282v-63h-282v63z" />
    <glyph glyph-name="registered" unicode="&#xae;" horiz-adv-x="700" 
d="M83 451c0 42.667 7.16699 80.5 21.5 113.5s33.666 60.833 57.999 83.5s52.666 39.834 84.999 51.501s66.5 17.5 102.5 17.5c37.333 0 72.166 -5.83301 104.499 -17.5s60.5 -28.834 84.5 -51.501s43 -50.5 57 -83.5s21 -70.833 21 -113.5
c0 -43.333 -7.16699 -81.5 -21.5 -114.5s-33.666 -60.833 -57.999 -83.5s-52.666 -39.834 -84.999 -51.501s-66.5 -17.5 -102.5 -17.5c-37.333 0 -72.166 5.83301 -104.499 17.5s-60.5 28.834 -84.5 51.501s-43 50.5 -57 83.5s-21 71.167 -21 114.5zM130 451
c0 -34.667 5.83398 -65.8311 17.501 -93.498s27.5 -51.334 47.5 -71.001s43.333 -34.667 70 -45s55 -15.5 85 -15.5c31.333 0 60.5 5.16699 87.5 15.5s50.333 25.166 70 44.499s35 42.833 46 70.5s16.5 59.167 16.5 94.5c0 34.667 -5.83301 65.834 -17.5 93.501
s-27.5 51.167 -47.5 70.5s-43.333 34.333 -70 45s-55 15.667 -85 15c-32 0.666992 -61.333 -4.33301 -88 -15s-49.834 -25.667 -69.501 -45s-35 -42.833 -46 -70.5s-16.5 -58.834 -16.5 -93.501zM316.001 342.003c8.66699 -0.666992 15.8271 -1.83398 21.4941 -3.50098
s10.834 -3.5 15.501 -5.5v-24h-124v24c11.333 4 23 7 35 9v233c-7.33301 0.666992 -13.666 1.83398 -18.999 3.50098s-10.666 4.16699 -15.999 7.5v22h38c12 0 26.333 0.666992 43 2s30.334 2 41.001 2c14.667 0 28.834 -1.5 42.501 -4.5s25.834 -8 36.501 -15
s19 -15.833 25 -26.5s9 -23.334 9 -38.001c0 -20.667 -7.16699 -37 -21.5 -49s-30.833 -21 -49.5 -27c12 -19.333 23.5 -38.166 34.5 -56.499s26.167 -36.166 45.5 -53.499l23 -12v-21h-50l-28 11c-16.667 20 -30 40.667 -40 62s-18.667 41.666 -26 60.999h-36v-101z
M345.994 580.003c-7.33301 0 -13.167 -0.167969 -17.5 -0.500977s-8.5 -1.16602 -12.5 -2.49902v-105h32c40 0 59.333 18.667 58 56c-0.666992 17.333 -6.5 30.333 -17.5 39s-25.167 13 -42.5 13z" />
    <glyph glyph-name="macron" unicode="&#xaf;" horiz-adv-x="373" 
d="M60 637v52h253v-52h-253z" />
    <glyph glyph-name="degree" unicode="&#xb0;" horiz-adv-x="424" 
d="M83 571c0 20.667 3.66699 39.6689 11 57.002s17.5 32.166 30.5 44.499s28.167 22 45.5 29s35.666 10.5 54.999 10.5s37.666 -3 54.999 -9s32.333 -14.833 45 -26.5s22.667 -26.334 30 -44.001s11 -38.167 11 -61.5c0 -22 -3.66699 -41.667 -11 -59
s-17.333 -32.166 -30 -44.499s-27.667 -21.666 -45 -27.999s-35.666 -9.5 -54.999 -9.5s-37.666 3.16699 -54.999 9.5s-32.5 15.666 -45.5 27.999s-23.167 27.166 -30.5 44.499s-11 37 -11 59zM139 571.002c0 -27.333 8.5 -49.5 25.5 -66.5s37.167 -25.5 60.5 -25.5
c25.333 0 46 8 62 24s24 38.667 24 68c0 28 -8 50.333 -24 67s-36.667 25 -62 25s-46 -8.33301 -62 -25s-24 -39 -24 -67z" />
    <glyph glyph-name="plusminus" unicode="&#xb1;" 
d="M42 490h198v210h53v-210h198v-53h-198v-154h-53v154h-198v53zM42 230h449v-53h-449v53z" />
    <glyph glyph-name="twosuperior" unicode="&#xb2;" horiz-adv-x="431" 
d="M109 639l-23.001 -0.000976562c-4.66699 6.66699 -9.5 15.667 -14.5 27s-9.83301 23.333 -14.5 36s-8.5 24.667 -11.5 36s-4.83301 20.333 -5.5 27c21.333 12 46.5 23 75.5 33s60.167 15 93.5 15c29.333 0 53.666 -3.16699 72.999 -9.5s34.833 -14.666 46.5 -24.999
s19.834 -22.5 24.501 -36.5s7 -29 7 -45c0 -22 -5.5 -44.167 -16.5 -66.5s-26.333 -44.166 -46 -65.499s-43 -42 -70 -62s-56.5 -38.333 -88.5 -55v-6l31 7h137l44 67h22c1.33301 -9.33301 2.5 -19.833 3.5 -31.5s2 -23.667 3 -36s1.66699 -24 2 -35s0.5 -20.167 0.5 -27.5
h-339v33c27.333 15.333 54.833 33.5 82.5 54.5s52.667 43.5 75 67.5s40.5 48.333 54.5 73s21 48 21 70c0 25.333 -5.66699 45.166 -17 59.499s-33.666 21.5 -66.999 21.5c-25.333 0 -46.333 -5 -63 -15z" />
    <glyph glyph-name="threesuperior" unicode="&#xb3;" horiz-adv-x="431" 
d="M207 423c16.667 0 30.667 2.33496 42 7.00195s20.666 10.667 27.999 18s12.666 15.5 15.999 24.5s5 17.833 5 26.5c0 28.667 -8 49 -24 61s-42.667 18 -80 18h-33v26l86 109l44 42v2l-62 -4h-89l-36 -92h-22c-4 8.66699 -7.66699 19.5 -11 32.5
s-6.16602 26.5 -8.49902 40.5s-4.33301 27.333 -6 40s-2.5 22.667 -2.5 30h307v-36l-91 -106l-39 -40v-1l31 4c16 0 31.167 -2.5 45.5 -7.5s27 -12.333 38 -22s19.833 -21.834 26.5 -36.501s10 -31.667 10 -51c0 -43.333 -17.167 -76 -51.5 -98s-79.5 -33 -135.5 -33
c-27.333 0 -55.166 4.5 -83.499 13.5s-51.166 19.833 -68.499 32.5l34 92h18c3.33301 -3.33301 7 -8.33301 11 -15s8.33301 -13.834 13 -21.501s9.16699 -15.5 13.5 -23.5s8.16602 -15.333 11.499 -22c6 -2 14 -4.16699 24 -6.5s23 -3.5 39 -3.5z" />
    <glyph glyph-name="acute" unicode="&#xb4;" horiz-adv-x="329" 
d="M177 767c5.33301 0.666992 12.333 0.5 21 -0.5s17.667 -2.5 27 -4.5s18 -4.5 26 -7.5s14 -6.16699 18 -9.5v-19l-187 -151l-22 18z" />
    <glyph glyph-name="mu" unicode="&#xb5;" horiz-adv-x="574" 
d="M134 15l35 -190v-25c-32 -9.33301 -62.667 -9.33301 -92 0v642l-60 8v26c21.333 8 43.166 15 65.499 21s44.166 11 65.499 15h25c0 -50 -1 -99.667 -3 -149s-3 -98.333 -3 -147c0 -26 1.5 -49.333 4.5 -70s8.33301 -38 16 -52s18.167 -24.833 31.5 -32.5
s30.333 -11.5 51 -11.5c30 0 55.333 10.833 76 32.5s36.667 49.834 48 84.501v275l-66 8v26c20.667 8 42.334 15 65.001 21s44.667 11 66 15h25v-455l66 -8v-21c-19.333 -8.66699 -39 -16.334 -59 -23.001s-40.667 -11.667 -62 -15h-25l-7 119h-4
c-3.33301 -14 -9.16602 -28.167 -17.499 -42.5s-19 -27.333 -32 -39s-28 -21.167 -45 -28.5s-35.5 -11 -55.5 -11c-21.333 0 -40.5 2 -57.5 6s-32.167 11 -45.5 21h-6z" />
    <glyph glyph-name="mu" unicode="&#x3bc;" horiz-adv-x="574" 
d="M134 15l35 -190v-25c-32 -9.33301 -62.667 -9.33301 -92 0v642l-60 8v26c21.333 8 43.166 15 65.499 21s44.166 11 65.499 15h25c0 -50 -1 -99.667 -3 -149s-3 -98.333 -3 -147c0 -26 1.5 -49.333 4.5 -70s8.33301 -38 16 -52s18.167 -24.833 31.5 -32.5
s30.333 -11.5 51 -11.5c30 0 55.333 10.833 76 32.5s36.667 49.834 48 84.501v275l-66 8v26c20.667 8 42.334 15 65.001 21s44.667 11 66 15h25v-455l66 -8v-21c-19.333 -8.66699 -39 -16.334 -59 -23.001s-40.667 -11.667 -62 -15h-25l-7 119h-4
c-3.33301 -14 -9.16602 -28.167 -17.499 -42.5s-19 -27.333 -32 -39s-28 -21.167 -45 -28.5s-35.5 -11 -55.5 -11c-21.333 0 -40.5 2 -57.5 6s-32.167 11 -45.5 21h-6z" />
    <glyph glyph-name="paragraph" unicode="&#xb6;" horiz-adv-x="511" 
d="M376 94c-0.666992 -44.667 -3.99902 -81.1689 -9.99902 -109.502s-14.667 -51 -26 -68s-24.833 -29.5 -40.5 -37.5s-33.167 -14 -52.5 -18c-13.333 -21.333 -28.833 -37.5 -46.5 -48.5s-35.167 -19.167 -52.5 -24.5l-12 20c14.667 6 28.334 14.167 41.001 24.5
s23.5 23.833 32.5 40.5s16 37.334 21 62.001s7.5 54.334 7.5 89.001v286c-21.333 0 -42.5 3.33301 -63.5 10s-40 17.5 -57 32.5s-30.833 34.667 -41.5 59s-16 53.833 -16 88.5c0 28 4.16699 54.167 12.5 78.5s20.666 45.5 36.999 63.5s37.166 32.167 62.499 42.5
s55 15.5 89 15.5h190v-30c-11.333 -5.33301 -22.833 -10 -34.5 -14s-25.167 -7.33301 -40.5 -10v-552zM259.001 -116.002c28 11.333 46.667 34.334 56 69.001s14 81.667 14 141v557h-44v-627c0 -26.667 -2 -52.334 -6 -77.001s-10.667 -45.667 -20 -63z" />
    <glyph glyph-name="periodcentered" unicode="&#xb7;" horiz-adv-x="240" 
d="M53 307c0 20 6.33301 36 19 48s29 18 49 18c20.667 0 37.334 -6 50.001 -18s19 -28 19 -48c0 -19.333 -6.33301 -35 -19 -47s-29.334 -18 -50.001 -18c-20 0 -36.333 6 -49 18s-19 27.667 -19 47z" />
    <glyph glyph-name="cedilla" unicode="&#xb8;" horiz-adv-x="284" 
d="M117 -68c36.667 -1.33301 63.333 -8.17188 80 -20.5049s25.334 -29.166 26.001 -50.499c0.666992 -19.333 -4.16602 -36.166 -14.499 -50.499s-23.5 -26.166 -39.5 -35.499s-33.667 -16.166 -53 -20.499s-38 -6.16602 -56 -5.49902v30
c25.333 3.33301 45.666 10 60.999 20s22.666 25.333 21.999 46c0 16.667 -6.66699 28.667 -20 36s-34 12 -62 14l37 106h45z" />
    <glyph glyph-name="onesuperior" unicode="&#xb9;" horiz-adv-x="431" 
d="M365 386l-280 0.000976562v21c18 7.33301 35.167 14 51.5 20s32.833 10.667 49.5 14v247l4 45c-16 -4.66699 -33.833 -7.83398 -53.5 -9.50098s-39.167 -2.16699 -58.5 -1.5v29c28 6 55 14.5 81 25.5s51 23.167 75 36.5h31v-372c17.333 -4 34.5 -8.66699 51.5 -14
s33.167 -12 48.5 -20v-21z" />
    <glyph glyph-name="ordmasculine" unicode="&#xba;" horiz-adv-x="435" 
d="M43 542c0 26 4.33301 49.333 13 70s20.834 38.5 36.501 53.5s34 26.5 55 34.5s44.167 12 69.5 12s48.666 -3.5 69.999 -10.5s39.666 -17.5 54.999 -31.5s27.333 -31.667 36 -53s13 -46.333 13 -75c0 -26 -4.33301 -49.5 -13 -70.5s-20.667 -38.833 -36 -53.5
s-33.666 -26 -54.999 -34s-44.666 -12 -69.999 -12s-48.5 3.5 -69.5 10.5s-39.333 17.5 -55 31.5s-27.834 31.667 -36.501 53s-13 46.333 -13 75zM127 542c0 -40 7.66797 -72.167 23.001 -96.5s37.666 -36.5 66.999 -36.5c60 0 90 44.333 90 133c0 88 -30 132 -90 132
s-90 -44 -90 -132z" />
    <glyph glyph-name="guillemotright" unicode="&#xbb;" horiz-adv-x="471" 
d="M77 57l-24 20l112 184l-107 184l25 19l170 -205zM228 55l-26 21l145 184l-140 186l26 20l213 -207z" />
    <glyph glyph-name="onequarter" unicode="&#xbc;" horiz-adv-x="938" 
d="M347 282l-280 0.000976562v21c18 7.33301 35.167 14 51.5 20s32.833 10.667 49.5 14v247l4 45c-16 -4.66699 -33.833 -7.83398 -53.5 -9.50098s-39.167 -2.16699 -58.5 -1.5v29c28 6 55 14.5 81 25.5s51 23.167 75 36.5h31v-372c17.333 -4 34.5 -8.66699 51.5 -14
s33.167 -12 48.5 -20v-21zM753 710.001l35 -31l-585 -686l-34 32zM836 0.000976562l-210.998 -0.000976562v21c11.333 5.33301 23 10 35 14s24.667 7.33301 38 10v72h-244v24l287 286h36v-263h94v-47h-94v-72c9.33301 -2 18.666 -4.66699 27.999 -8
s19.666 -8.66602 30.999 -15.999v-21zM698.002 294l10 43h-3l-35 -43l-111 -114l-36 -23l63 7h112v130z" />
    <glyph glyph-name="onehalf" unicode="&#xbd;" horiz-adv-x="1004" 
d="M347 282l-280 0.000976562v21c18 7.33301 35.167 14 51.5 20s32.833 10.667 49.5 14v247l4 45c-16 -4.66699 -33.833 -7.83398 -53.5 -9.50098s-39.167 -2.16699 -58.5 -1.5v29c28 6 55 14.5 81 25.5s51 23.167 75 36.5h31v-372c17.333 -4 34.5 -8.66699 51.5 -14
s33.167 -12 48.5 -20v-21zM753 710.001l35 -31l-585 -686l-34 32zM662 253.001l-23.001 -0.000976562c-4.66699 6.66699 -9.5 15.667 -14.5 27s-9.83301 23.333 -14.5 36s-8.5 24.667 -11.5 36s-4.83301 20.333 -5.5 27c21.333 12 46.5 23 75.5 33s60.167 15 93.5 15
c29.333 0 53.666 -3.16699 72.999 -9.5s34.833 -14.666 46.5 -24.999s19.834 -22.5 24.501 -36.5s7 -29 7 -45c0 -22 -5.5 -44.167 -16.5 -66.5s-26.333 -44.166 -46 -65.499s-43 -42 -70 -62s-56.5 -38.333 -88.5 -55v-6l31 7h137l44 67h22
c1.33301 -9.33301 2.5 -19.833 3.5 -31.5s2 -23.667 3 -36s1.66699 -24 2 -35s0.5 -20.167 0.5 -27.5h-339v33c27.333 15.333 54.833 33.5 82.5 54.5s52.667 43.5 75 67.5s40.5 48.333 54.5 73s21 48 21 70c0 25.333 -5.66699 45.166 -17 59.499s-33.666 21.5 -66.999 21.5
c-25.333 0 -46.333 -5 -63 -15z" />
    <glyph glyph-name="threequarters" unicode="&#xbe;" horiz-adv-x="991" 
d="M805 710l35 -31l-585 -686l-34 32zM888 0l-210.998 -0.000976562v21c11.333 5.33301 23 10 35 14s24.667 7.33301 38 10v72h-244v24l287 286h36v-263h94v-47h-94v-72c9.33301 -2 18.666 -4.66699 27.999 -8s19.666 -8.66602 30.999 -15.999v-21zM750.002 293.999l10 43
h-3l-35 -43l-111 -114l-36 -23l63 7h112v130zM232.002 318.999c16.667 0 30.667 2.33496 42 7.00195s20.666 10.667 27.999 18s12.666 15.5 15.999 24.5s5 17.833 5 26.5c0 28.667 -8 49 -24 61s-42.667 18 -80 18h-33v26l86 109l44 42v2l-62 -4h-89l-36 -92h-22
c-4 8.66699 -7.66699 19.5 -11 32.5s-6.16602 26.5 -8.49902 40.5s-4.33301 27.333 -6 40s-2.5 22.667 -2.5 30h307v-36l-91 -106l-39 -40v-1l31 4c16 0 31.167 -2.5 45.5 -7.5s27 -12.333 38 -22s19.833 -21.834 26.5 -36.501s10 -31.667 10 -51
c0 -43.333 -17.167 -76 -51.5 -98s-79.5 -33 -135.5 -33c-27.333 0 -55.166 4.5 -83.499 13.5s-51.166 19.833 -68.499 32.5l34 92h18c3.33301 -3.33301 7 -8.33301 11 -15s8.33301 -13.834 13 -21.501s9.16699 -15.5 13.5 -23.5s8.16602 -15.333 11.499 -22
c6 -2 14 -4.16699 24 -6.5s23 -3.5 39 -3.5z" />
    <glyph glyph-name="questiondown" unicode="&#xbf;" horiz-adv-x="473" 
d="M346 -15l25.002 0.00195312c5.33301 -18 11.333 -41.167 18 -69.5s11.334 -55.5 14.001 -81.5c-25.333 -15.333 -52.5 -26.166 -81.5 -32.499s-64.5 -9.5 -106.5 -9.5c-30 0 -56.167 4.16699 -78.5 12.5s-41 19.666 -56 33.999s-26.333 31.5 -34 51.5
s-11.5 41.667 -11.5 65c0 30 5.5 56.167 16.5 78.5s24.667 42.5 41 60.5s34.166 34.833 53.499 50.5s37.333 32 54 49s30.5 35.833 41.5 56.5s16.5 45 16.5 73h20c8 -32 10 -59.833 6 -83.5s-11.5 -44.834 -22.5 -63.501s-24 -35.667 -39 -51s-29.333 -31 -43 -47
s-25.167 -33 -34.5 -51s-14 -38.667 -14 -62c0 -14.667 2 -29.167 6 -43.5s10.5 -27.333 19.5 -39s20.667 -21 35 -28s31.5 -10.5 51.5 -10.5c21.333 0 38.666 1.66699 51.999 5s22.666 7.66602 27.999 12.999zM330.002 446.002c0 -19.333 -6.16699 -35 -18.5 -47
s-28.5 -18 -48.5 -18c-20.667 0 -37.334 6 -50.001 18s-19 27.667 -19 47c0 20 6.33301 36 19 48s29.334 18 50.001 18c20 0 36.167 -6 48.5 -18s18.5 -28 18.5 -48z" />
    <glyph glyph-name="Agrave" unicode="&#xc0;" horiz-adv-x="683" 
d="M222 0h-222v29c24 10.667 48 18.667 72 24l253 659h29l253 -659c13.333 -2.66699 26.5 -5.66699 39.5 -9s25.167 -8.33301 36.5 -15v-29h-256v29c13.333 5.33301 27 10 41 14s27.667 7.33301 41 10l-68 183h-239l-66 -183c28 -4 56.667 -12 86 -24v-29zM222 288h202
l-79 212l-19 86h-2l-25 -88zM370 769l-17.999 -18.999l-225 91v20c4 4.66699 10.333 9.16699 19 13.5s18 8 28 11s19.667 5.16699 29 6.5s16.666 1.66602 21.999 0.999023z" />
    <glyph glyph-name="Aacute" unicode="&#xc1;" horiz-adv-x="683" 
d="M222 0h-222v29c24 10.667 48 18.667 72 24l253 659h29l253 -659c13.333 -2.66699 26.5 -5.66699 39.5 -9s25.167 -8.33301 36.5 -15v-29h-256v29c13.333 5.33301 27 10 41 14s27.667 7.33301 41 10l-68 183h-239l-66 -183c28 -4 56.667 -12 86 -24v-29zM222 288h202
l-79 212l-19 86h-2l-25 -88zM451 893c6 0.666992 13.667 0.333008 23 -1s18.833 -3.5 28.5 -6.5s18.667 -6.66699 27 -11s14.5 -8.83301 18.5 -13.5v-20l-226 -91l-17 19z" />
    <glyph glyph-name="Acircumflex" unicode="&#xc2;" horiz-adv-x="683" 
d="M222 0h-222v29c24 10.667 48 18.667 72 24l253 659h29l253 -659c13.333 -2.66699 26.5 -5.66699 39.5 -9s25.167 -8.33301 36.5 -15v-29h-256v29c13.333 5.33301 27 10 41 14s27.667 7.33301 41 10l-68 183h-239l-66 -183c28 -4 56.667 -12 86 -24v-29zM222 288h202
l-79 212l-19 86h-2l-25 -88zM216 752l-14 19.001l127 112c3.33301 2 7.5 3.16699 12.5 3.5s9.5 -0.833984 13.5 -3.50098l125 -109l-15 -21l-127 56z" />
    <glyph glyph-name="Atilde" unicode="&#xc3;" horiz-adv-x="683" 
d="M222 0h-222v29c24 10.667 48 18.667 72 24l253 659h29l253 -659c13.333 -2.66699 26.5 -5.66699 39.5 -9s25.167 -8.33301 36.5 -15v-29h-256v29c13.333 5.33301 27 10 41 14s27.667 7.33301 41 10l-68 183h-239l-66 -183c28 -4 56.667 -12 86 -24v-29zM222 288h202
l-79 212l-19 86h-2l-25 -88zM501 821c-21.333 -21.333 -40.832 -36 -58.499 -44s-34.834 -12 -51.501 -12c-12.667 0 -24.5 1.83301 -35.5 5.5s-21.833 7.5 -32.5 11.5s-21 7.83301 -31 11.5s-20.333 5.5 -31 5.5c-9.33301 0 -18.833 -1.83301 -28.5 -5.5
s-19.834 -10.167 -30.501 -19.5l-19 29c25.333 22.667 47.833 38.167 67.5 46.5s37.834 12.5 54.501 12.5c12 0 23.5 -1.66699 34.5 -5s21.5 -7 31.5 -11s20 -7.66699 30 -11s20.333 -5 31 -5c8.66699 0 17.5 1.5 26.5 4.5s18.833 8.16699 29.5 15.5z" />
    <glyph glyph-name="Adieresis" unicode="&#xc4;" horiz-adv-x="683" 
d="M222 0h-222v29c24 10.667 48 18.667 72 24l253 659h29l253 -659c13.333 -2.66699 26.5 -5.66699 39.5 -9s25.167 -8.33301 36.5 -15v-29h-256v29c13.333 5.33301 27 10 41 14s27.667 7.33301 41 10l-68 183h-239l-66 -183c28 -4 56.667 -12 86 -24v-29zM222 288h202
l-79 212l-19 86h-2l-25 -88zM174 789c0 16 5.33301 28 16 36s24.334 12 41.001 12c16 0 29.333 -4 40 -12s16 -20 16 -36c0 -15.333 -5.33301 -27 -16 -35s-24 -12 -40 -12c-16.667 0 -30.334 4 -41.001 12s-16 19.667 -16 35zM397 789c0 16 5.33301 28 16 36s24 12 40 12
c16.667 0 30.334 -4 41.001 -12s16 -20 16 -36c0 -15.333 -5.33301 -27 -16 -35s-24.334 -12 -41.001 -12c-16 0 -29.333 4 -40 12s-16 19.667 -16 35z" />
    <glyph glyph-name="Aring" unicode="&#xc5;" horiz-adv-x="683" 
d="M230 788c0 13.333 3 25.333 9 36s14.333 19.667 25 27s22.834 13 36.501 17s28.5 6 44.5 6c12.667 0 25.5 -1.66699 38.5 -5s24.833 -8.33301 35.5 -15s19.167 -15.167 25.5 -25.5s9.5 -22.833 9.5 -37.5c0 -24.667 -9.83301 -44 -29.5 -58s-42.834 -22 -69.501 -24
l252 -656c13.333 -2.66699 26.5 -5.66699 39.5 -9s25.167 -8.33301 36.5 -15v-29h-256v29c13.333 5.33301 27 10 41 14s27.667 7.33301 41 10l-68 183h-239l-66 -183c28 -4 56.667 -12 86 -24v-29h-222v29c24 10.667 48 18.667 72 24l252 657
c-28 2.66699 -50.667 10.667 -68 24s-26 31.333 -26 54zM222 288h202l-79 212l-19 86h-2l-25 -88zM286 788c0 -13.333 5.83301 -23.001 17.5 -29.001s23.834 -9 36.501 -9c17.333 0 31.333 3 42 9s16 15.333 16 28c0 17.333 -6 29.333 -18 36s-24.333 10 -37 10
c-16.667 0 -30.334 -3.16699 -41.001 -9.5s-16 -18.166 -16 -35.499z" />
    <glyph glyph-name="AE" unicode="&#xc6;" horiz-adv-x="921" 
d="M842 700c-0.666992 -26.667 -1.66504 -53.5 -2.99805 -80.5s-4 -54.167 -8 -81.5h-25l-42 110h-217v-265h162l40 74h24c5.33301 -66 5.33301 -133.333 0 -202h-24l-40 76h-162v-279h230l48 120h26c4 -28 7.16699 -56.333 9.5 -85s2.83301 -57.667 1.5 -87h-493v29
c23.333 10.667 50.666 18.667 81.999 24v203h-196l-116 -203c27.333 -4 55.666 -12 84.999 -24v-29h-224v29c24 10.667 48 18.667 72 24l354 599c-9.33301 2.66699 -19 5.5 -29 8.5s-19.667 6.5 -29 10.5v29h474zM285.002 308h166v303h-2l-41 -93z" />
    <glyph glyph-name="Ccedilla" unicode="&#xc7;" horiz-adv-x="644" 
d="M547 182l25.9951 -0.000976562c3.33301 -18.667 6.33301 -42.167 9 -70.5s3.33398 -55.833 2.00098 -82.5c-11.333 -8.66699 -24.833 -15.667 -40.5 -21s-32.167 -9.5 -49.5 -12.5s-34.833 -5 -52.5 -6s-34.167 -1.5 -49.5 -1.5l-24 -63
c40 -0.666992 69.5 -8.16699 88.5 -22.5s28.5 -33.166 28.5 -56.499c0 -20 -5.83301 -37.333 -17.5 -52s-26.334 -27 -44.001 -37s-37.167 -17.333 -58.5 -22s-41.666 -7 -60.999 -7v33c26.667 4 49 11.333 67 22s26.667 25.667 26 45
c-0.666992 18.667 -8.33398 32.167 -23.001 40.5s-37 13.5 -67 15.5l36 108c-92 10 -163.333 43.833 -214 101.5s-76 143.167 -76 256.5c0 65.333 9 120.833 27 166.5s42.333 83 73 112s66.334 50.167 107.001 63.5s83.334 20 128.001 20c44 0 81 -2.83301 111 -8.5
s56.333 -14.167 79 -25.5c0 -10.667 -0.333008 -23.167 -1 -37.5s-1.66699 -29.5 -3 -45.5s-3 -31.667 -5 -47s-4 -29.333 -6 -42h-26l-52 144c-7.33301 4 -19.5 6.66699 -36.5 8s-33.833 2 -50.5 2c-33.333 0 -64.833 -6.16699 -94.5 -18.5s-55.667 -31.333 -78 -57
s-40.166 -58 -53.499 -97s-20 -84.833 -20 -137.5c0 -47.333 6 -90.166 18 -128.499s29.333 -71 52 -98s50.334 -47.667 83.001 -62s69.667 -21.5 111 -21.5c22 0 40.333 1.66699 55 5s24.334 7.66602 29.001 12.999z" />
    <glyph glyph-name="Egrave" unicode="&#xc8;" horiz-adv-x="582" 
d="M503 700c-0.666992 -26.667 -1.83203 -53.499 -3.49902 -80.499s-4.16699 -54.167 -7.5 -81.5h-26l-41 110h-218v-265h163l39 74h25c4 -66 4 -133.333 0 -202h-25l-39 76h-163v-279h230l49 120h25c4.66699 -28 8 -56.333 10 -85s2.33301 -57.667 1 -87h-493v29
c23.333 10.667 50.666 18.667 81.999 24v593c-13.333 2.66699 -27 6.16699 -41 10.5s-27.667 9.16602 -41 14.499v29h474zM356.002 769.001l-17.999 -18.999l-225 91v20c4 4.66699 10.333 9.16699 19 13.5s18 8 28 11s19.667 5.16699 29 6.5s16.666 1.66602 21.999 0.999023
z" />
    <glyph glyph-name="Eacute" unicode="&#xc9;" horiz-adv-x="582" 
d="M503 700c-0.666992 -26.667 -1.83203 -53.499 -3.49902 -80.499s-4.16699 -54.167 -7.5 -81.5h-26l-41 110h-218v-265h163l39 74h25c4 -66 4 -133.333 0 -202h-25l-39 76h-163v-279h230l49 120h25c4.66699 -28 8 -56.333 10 -85s2.33301 -57.667 1 -87h-493v29
c23.333 10.667 50.666 18.667 81.999 24v593c-13.333 2.66699 -27 6.16699 -41 10.5s-27.667 9.16602 -41 14.499v29h474zM361.002 893.001c6 0.666992 13.667 0.333008 23 -1s18.833 -3.5 28.5 -6.5s18.667 -6.66699 27 -11s14.5 -8.83301 18.5 -13.5v-20l-226 -91l-17 19z
" />
    <glyph glyph-name="Ecircumflex" unicode="&#xca;" horiz-adv-x="582" 
d="M503 700c-0.666992 -26.667 -1.83203 -53.499 -3.49902 -80.499s-4.16699 -54.167 -7.5 -81.5h-26l-41 110h-218v-265h163l39 74h25c4 -66 4 -133.333 0 -202h-25l-39 76h-163v-279h230l49 120h25c4.66699 -28 8 -56.333 10 -85s2.33301 -57.667 1 -87h-493v29
c23.333 10.667 50.666 18.667 81.999 24v593c-13.333 2.66699 -27 6.16699 -41 10.5s-27.667 9.16602 -41 14.499v29h474zM175.002 752.001l-14 19.001l127 112c3.33301 2 7.5 3.16699 12.5 3.5s9.5 -0.833984 13.5 -3.50098l125 -109l-15 -21l-127 56z" />
    <glyph glyph-name="Edieresis" unicode="&#xcb;" horiz-adv-x="582" 
d="M503 700c-0.666992 -26.667 -1.83203 -53.499 -3.49902 -80.499s-4.16699 -54.167 -7.5 -81.5h-26l-41 110h-218v-265h163l39 74h25c4 -66 4 -133.333 0 -202h-25l-39 76h-163v-279h230l49 120h25c4.66699 -28 8 -56.333 10 -85s2.33301 -57.667 1 -87h-493v29
c23.333 10.667 50.666 18.667 81.999 24v593c-13.333 2.66699 -27 6.16699 -41 10.5s-27.667 9.16602 -41 14.499v29h474zM119.002 789.001c0 16 5.33301 28 16 36s24.334 12 41.001 12c16 0 29.333 -4 40 -12s16 -20 16 -36c0 -15.333 -5.33301 -27 -16 -35
s-24 -12 -40 -12c-16.667 0 -30.334 4 -41.001 12s-16 19.667 -16 35zM342.002 789.001c0 16 5.33301 28 16 36s24 12 40 12c16.667 0 30.334 -4 41.001 -12s16 -20 16 -36c0 -15.333 -5.33301 -27 -16 -35s-24.334 -12 -41.001 -12c-16 0 -29.333 4 -40 12
s-16 19.667 -16 35z" />
    <glyph glyph-name="Igrave" unicode="&#xcc;" horiz-adv-x="352" 
d="M304 0h-256.002v29c26 12 52.667 20 80 24v593c-13.333 2.66699 -26.666 6.16699 -39.999 10.5s-26.666 9.16602 -39.999 14.499v29h256v-29c-12 -5.33301 -25 -10.166 -39 -14.499s-27.667 -7.83301 -41 -10.5v-593c14 -2.66699 28 -6 42 -10s26.667 -8.66699 38 -14
v-29zM278.998 769l-17.999 -18.999l-225 91v20c4 4.66699 10.333 9.16699 19 13.5s18 8 28 11s19.667 5.16699 29 6.5s16.666 1.66602 21.999 0.999023z" />
    <glyph glyph-name="Iacute" unicode="&#xcd;" horiz-adv-x="352" 
d="M304 0h-256.002v29c26 12 52.667 20 80 24v593c-13.333 2.66699 -26.666 6.16699 -39.999 10.5s-26.666 9.16602 -39.999 14.499v29h256v-29c-12 -5.33301 -25 -10.166 -39 -14.499s-27.667 -7.83301 -41 -10.5v-593c14 -2.66699 28 -6 42 -10s26.667 -8.66699 38 -14
v-29zM239.998 893c6 0.666992 13.667 0.333008 23 -1s18.833 -3.5 28.5 -6.5s18.667 -6.66699 27 -11s14.5 -8.83301 18.5 -13.5v-20l-226 -91l-17 19z" />
    <glyph glyph-name="Icircumflex" unicode="&#xce;" horiz-adv-x="352" 
d="M304 0h-256.002v29c26 12 52.667 20 80 24v593c-13.333 2.66699 -26.666 6.16699 -39.999 10.5s-26.666 9.16602 -39.999 14.499v29h256v-29c-12 -5.33301 -25 -10.166 -39 -14.499s-27.667 -7.83301 -41 -10.5v-593c14 -2.66699 28 -6 42 -10s26.667 -8.66699 38 -14
v-29zM51.998 752l-14 19.001l127 112c3.33301 2 7.5 3.16699 12.5 3.5s9.5 -0.833984 13.5 -3.50098l125 -109l-15 -21l-127 56z" />
    <glyph glyph-name="Idieresis" unicode="&#xcf;" horiz-adv-x="352" 
d="M304 0h-256.002v29c26 12 52.667 20 80 24v593c-13.333 2.66699 -26.666 6.16699 -39.999 10.5s-26.666 9.16602 -39.999 14.499v29h256v-29c-12 -5.33301 -25 -10.166 -39 -14.499s-27.667 -7.83301 -41 -10.5v-593c14 -2.66699 28 -6 42 -10s26.667 -8.66699 38 -14
v-29zM8.99805 789c0 16 5.33301 28 16 36s24.334 12 41.001 12c16 0 29.333 -4 40 -12s16 -20 16 -36c0 -15.333 -5.33301 -27 -16 -35s-24 -12 -40 -12c-16.667 0 -30.334 4 -41.001 12s-16 19.667 -16 35zM231.998 789c0 16 5.33301 28 16 36s24 12 40 12
c16.667 0 30.334 -4 41.001 -12s16 -20 16 -36c0 -15.333 -5.33301 -27 -16 -35s-24.334 -12 -41.001 -12c-16 0 -29.333 4 -40 12s-16 19.667 -16 35z" />
    <glyph glyph-name="Eth" unicode="&#xd0;" horiz-adv-x="709" 
d="M22 384l89.002 0.00195312v262c-15.333 3.33301 -30 7.16602 -44 11.499s-26.667 8.83301 -38 13.5v29h102c11.333 0 24.666 0.333008 39.999 1s31.166 1.5 47.499 2.5s32 2 47 3s27.5 1.5 37.5 1.5c56.667 0 106.834 -7.83301 150.501 -23.5s80.5 -38.334 110.5 -68.001
s52.833 -66.167 68.5 -109.5s23.5 -92.666 23.5 -147.999c0 -52.667 -7.5 -101.5 -22.5 -146.5s-37.833 -83.833 -68.5 -116.5s-69.5 -58.334 -116.5 -77.001s-102.5 -28 -166.5 -28c-9.33301 0 -20.5 0.5 -33.5 1.5s-26.5 2 -40.5 3s-28.167 2 -42.5 3
s-27.833 1.5 -40.5 1.5h-96v29c23.333 10.667 50.666 18.667 81.999 24v279h-89v52zM289.002 656.002c-17.333 0 -34 -0.167969 -50 -0.500977s-28.667 -1.5 -38 -3.5v-268h167v-52h-167v-286c3.33301 -0.666992 9.5 -1.16699 18.5 -1.5s18.5 -0.666016 28.5 -0.999023
s19.5 -0.5 28.5 -0.5h19.5c46 0 85 8.66699 117 26s58 40.5 78 69.5s34.667 62.5 44 100.5s14 78 14 120c0 32.667 -4.5 66.5 -13.5 101.5s-23.667 67 -44 96s-47 52.833 -80 71.5s-73.833 28 -122.5 28z" />
    <glyph glyph-name="Ntilde" unicode="&#xd1;" horiz-adv-x="732" 
d="M487 700l216 -0.000976562v-29c-28 -18.667 -55.333 -32 -82 -40v-643h-57l-363 551l-39 78h-3l9 -78v-475c27.333 -7.33301 53 -19 77 -35v-29h-216v29c12 7.33301 24.833 13.833 38.5 19.5s28.167 10.834 43.5 15.501v573c-13.333 5.33301 -26.5 11 -39.5 17
s-25.167 12 -36.5 18v28h169l315 -475l46 -86h4l-5 86v406c-14 6 -27.5 12.333 -40.5 19s-25.167 13.667 -36.5 21v29zM525 820.999c-21.333 -21.333 -40.832 -36 -58.499 -44s-34.834 -12 -51.501 -12c-12.667 0 -24.5 1.83301 -35.5 5.5s-21.833 7.5 -32.5 11.5
s-21 7.83301 -31 11.5s-20.333 5.5 -31 5.5c-9.33301 0 -18.833 -1.83301 -28.5 -5.5s-19.834 -10.167 -30.501 -19.5l-19 29c25.333 22.667 47.833 38.167 67.5 46.5s37.834 12.5 54.501 12.5c12 0 23.5 -1.66699 34.5 -5s21.5 -7 31.5 -11s20 -7.66699 30 -11
s20.333 -5 31 -5c8.66699 0 17.5 1.5 26.5 4.5s18.833 8.16699 29.5 15.5z" />
    <glyph glyph-name="Ograve" unicode="&#xd2;" horiz-adv-x="740" 
d="M53 350c0 52 7.16699 100.167 21.5 144.5s35 82.666 62 114.999s60.167 57.5 99.5 75.5s84 27 134 27s94.667 -9 134 -27s72.5 -43.167 99.5 -75.5s47.667 -70.666 62 -114.999s21.5 -92.5 21.5 -144.5s-7.16699 -100.167 -21.5 -144.5s-35 -82.666 -62 -114.999
s-60.167 -57.5 -99.5 -75.5s-84 -27 -134 -27s-94.667 9 -134 27s-72.5 43.167 -99.5 75.5s-47.667 70.666 -62 114.999s-21.5 92.5 -21.5 144.5zM160 350c0 -42.667 4.50293 -82.834 13.5029 -120.501s22.5 -70.5 40.5 -98.5s40.667 -50.167 68 -66.5
s59.666 -24.5 96.999 -24.5c34 0 63.667 8.16699 89 24.5s46.166 38.5 62.499 66.5s28.666 60.833 36.999 98.5s12.5 77.834 12.5 120.501s-4.33301 82.834 -13 120.501s-22 70.5 -40 98.5s-40.667 50.167 -68 66.5s-59.666 24.5 -96.999 24.5
c-36.667 0 -67.834 -8.16699 -93.501 -24.5s-46.5 -38.5 -62.5 -66.5s-27.667 -60.833 -35 -98.5s-11 -77.834 -11 -120.501zM438.003 769l-17.999 -18.999l-225 91v20c4 4.66699 10.333 9.16699 19 13.5s18 8 28 11s19.667 5.16699 29 6.5s16.666 1.66602 21.999 0.999023z
" />
    <glyph glyph-name="Oacute" unicode="&#xd3;" horiz-adv-x="740" 
d="M53 350c0 52 7.16699 100.167 21.5 144.5s35 82.666 62 114.999s60.167 57.5 99.5 75.5s84 27 134 27s94.667 -9 134 -27s72.5 -43.167 99.5 -75.5s47.667 -70.666 62 -114.999s21.5 -92.5 21.5 -144.5s-7.16699 -100.167 -21.5 -144.5s-35 -82.666 -62 -114.999
s-60.167 -57.5 -99.5 -75.5s-84 -27 -134 -27s-94.667 9 -134 27s-72.5 43.167 -99.5 75.5s-47.667 70.666 -62 114.999s-21.5 92.5 -21.5 144.5zM160 350c0 -42.667 4.50293 -82.834 13.5029 -120.501s22.5 -70.5 40.5 -98.5s40.667 -50.167 68 -66.5
s59.666 -24.5 96.999 -24.5c34 0 63.667 8.16699 89 24.5s46.166 38.5 62.499 66.5s28.666 60.833 36.999 98.5s12.5 77.834 12.5 120.501s-4.33301 82.834 -13 120.501s-22 70.5 -40 98.5s-40.667 50.167 -68 66.5s-59.666 24.5 -96.999 24.5
c-36.667 0 -67.834 -8.16699 -93.501 -24.5s-46.5 -38.5 -62.5 -66.5s-27.667 -60.833 -35 -98.5s-11 -77.834 -11 -120.501zM422.003 893c6 0.666992 13.667 0.333008 23 -1s18.833 -3.5 28.5 -6.5s18.667 -6.66699 27 -11s14.5 -8.83301 18.5 -13.5v-20l-226 -91l-17 19z
" />
    <glyph glyph-name="Ocircumflex" unicode="&#xd4;" horiz-adv-x="740" 
d="M53 350c0 52 7.16699 100.167 21.5 144.5s35 82.666 62 114.999s60.167 57.5 99.5 75.5s84 27 134 27s94.667 -9 134 -27s72.5 -43.167 99.5 -75.5s47.667 -70.666 62 -114.999s21.5 -92.5 21.5 -144.5s-7.16699 -100.167 -21.5 -144.5s-35 -82.666 -62 -114.999
s-60.167 -57.5 -99.5 -75.5s-84 -27 -134 -27s-94.667 9 -134 27s-72.5 43.167 -99.5 75.5s-47.667 70.666 -62 114.999s-21.5 92.5 -21.5 144.5zM160 350c0 -42.667 4.50293 -82.834 13.5029 -120.501s22.5 -70.5 40.5 -98.5s40.667 -50.167 68 -66.5
s59.666 -24.5 96.999 -24.5c34 0 63.667 8.16699 89 24.5s46.166 38.5 62.499 66.5s28.666 60.833 36.999 98.5s12.5 77.834 12.5 120.501s-4.33301 82.834 -13 120.501s-22 70.5 -40 98.5s-40.667 50.167 -68 66.5s-59.666 24.5 -96.999 24.5
c-36.667 0 -67.834 -8.16699 -93.501 -24.5s-46.5 -38.5 -62.5 -66.5s-27.667 -60.833 -35 -98.5s-11 -77.834 -11 -120.501zM245.003 752l-14 19.001l127 112c3.33301 2 7.5 3.16699 12.5 3.5s9.5 -0.833984 13.5 -3.50098l125 -109l-15 -21l-127 56z" />
    <glyph glyph-name="Otilde" unicode="&#xd5;" horiz-adv-x="740" 
d="M53 350c0 52 7.16699 100.167 21.5 144.5s35 82.666 62 114.999s60.167 57.5 99.5 75.5s84 27 134 27s94.667 -9 134 -27s72.5 -43.167 99.5 -75.5s47.667 -70.666 62 -114.999s21.5 -92.5 21.5 -144.5s-7.16699 -100.167 -21.5 -144.5s-35 -82.666 -62 -114.999
s-60.167 -57.5 -99.5 -75.5s-84 -27 -134 -27s-94.667 9 -134 27s-72.5 43.167 -99.5 75.5s-47.667 70.666 -62 114.999s-21.5 92.5 -21.5 144.5zM160 350c0 -42.667 4.50293 -82.834 13.5029 -120.501s22.5 -70.5 40.5 -98.5s40.667 -50.167 68 -66.5
s59.666 -24.5 96.999 -24.5c34 0 63.667 8.16699 89 24.5s46.166 38.5 62.499 66.5s28.666 60.833 36.999 98.5s12.5 77.834 12.5 120.501s-4.33301 82.834 -13 120.501s-22 70.5 -40 98.5s-40.667 50.167 -68 66.5s-59.666 24.5 -96.999 24.5
c-36.667 0 -67.834 -8.16699 -93.501 -24.5s-46.5 -38.5 -62.5 -66.5s-27.667 -60.833 -35 -98.5s-11 -77.834 -11 -120.501zM529.003 821c-21.333 -21.333 -40.832 -36 -58.499 -44s-34.834 -12 -51.501 -12c-12.667 0 -24.5 1.83301 -35.5 5.5s-21.833 7.5 -32.5 11.5
s-21 7.83301 -31 11.5s-20.333 5.5 -31 5.5c-9.33301 0 -18.833 -1.83301 -28.5 -5.5s-19.834 -10.167 -30.501 -19.5l-19 29c25.333 22.667 47.833 38.167 67.5 46.5s37.834 12.5 54.501 12.5c12 0 23.5 -1.66699 34.5 -5s21.5 -7 31.5 -11s20 -7.66699 30 -11
s20.333 -5 31 -5c8.66699 0 17.5 1.5 26.5 4.5s18.833 8.16699 29.5 15.5z" />
    <glyph glyph-name="Odieresis" unicode="&#xd6;" horiz-adv-x="740" 
d="M53 350c0 52 7.16699 100.167 21.5 144.5s35 82.666 62 114.999s60.167 57.5 99.5 75.5s84 27 134 27s94.667 -9 134 -27s72.5 -43.167 99.5 -75.5s47.667 -70.666 62 -114.999s21.5 -92.5 21.5 -144.5s-7.16699 -100.167 -21.5 -144.5s-35 -82.666 -62 -114.999
s-60.167 -57.5 -99.5 -75.5s-84 -27 -134 -27s-94.667 9 -134 27s-72.5 43.167 -99.5 75.5s-47.667 70.666 -62 114.999s-21.5 92.5 -21.5 144.5zM160 350c0 -42.667 4.50293 -82.834 13.5029 -120.501s22.5 -70.5 40.5 -98.5s40.667 -50.167 68 -66.5
s59.666 -24.5 96.999 -24.5c34 0 63.667 8.16699 89 24.5s46.166 38.5 62.499 66.5s28.666 60.833 36.999 98.5s12.5 77.834 12.5 120.501s-4.33301 82.834 -13 120.501s-22 70.5 -40 98.5s-40.667 50.167 -68 66.5s-59.666 24.5 -96.999 24.5
c-36.667 0 -67.834 -8.16699 -93.501 -24.5s-46.5 -38.5 -62.5 -66.5s-27.667 -60.833 -35 -98.5s-11 -77.834 -11 -120.501zM202.003 789c0 16 5.33301 28 16 36s24.334 12 41.001 12c16 0 29.333 -4 40 -12s16 -20 16 -36c0 -15.333 -5.33301 -27 -16 -35s-24 -12 -40 -12
c-16.667 0 -30.334 4 -41.001 12s-16 19.667 -16 35zM425.003 789c0 16 5.33301 28 16 36s24 12 40 12c16.667 0 30.334 -4 41.001 -12s16 -20 16 -36c0 -15.333 -5.33301 -27 -16 -35s-24.334 -12 -41.001 -12c-16 0 -29.333 4 -40 12s-16 19.667 -16 35z" />
    <glyph glyph-name="multiply" unicode="&#xd7;" 
d="M88 204l140 140l-138 139l37 37l139 -138l140 140l37 -37l-140 -140l143 -143l-38 -38l-143 143l-140 -140z" />
    <glyph glyph-name="Oslash" unicode="&#xd8;" horiz-adv-x="740" 
d="M53 350c0 52 7.16602 100.166 21.499 144.499s35 82.666 62 114.999s60.167 57.5 99.5 75.5s84 27 134 27c32.667 0 62.834 -4 90.501 -12s53.167 -19 76.5 -33l28 46l51 -29l-34 -53c34 -32.667 60 -73 78 -121s27 -101.333 27 -160
c0 -52 -7.16699 -100.167 -21.5 -144.5s-35 -82.666 -62 -114.999s-60.167 -57.5 -99.5 -75.5s-84 -27 -134 -27c-32 0 -61.833 3.83301 -89.5 11.5s-53.167 18.167 -76.5 31.5l-28 -44l-47 29l30 49c-34.667 32.667 -61 73.334 -79 122.001s-27 103 -27 163z
M159.999 349.999c0 -40 4.00098 -77.666 12.001 -112.999s20 -66.666 36 -93.999l290 463c-17.333 17.333 -37.333 30.666 -60 39.999s-48 14 -76 14c-36.667 0 -67.834 -8.16699 -93.501 -24.5s-46.5 -38.5 -62.5 -66.5s-27.667 -60.833 -35 -98.5
s-11 -77.834 -11 -120.501zM580 350c0 40 -3.83105 77.167 -11.498 111.5s-19.5 65.166 -35.5 92.499l-289 -461c17.333 -17.333 37 -30.5 59 -39.5s47.333 -13.5 76 -13.5c34 0 63.667 8.16699 89 24.5s46.166 38.5 62.499 66.5s28.666 60.833 36.999 98.5
s12.5 77.834 12.5 120.501z" />
    <glyph glyph-name="Ugrave" unicode="&#xd9;" horiz-adv-x="672" 
d="M10 700h253.997v-29c-12.667 -5.33301 -25.334 -10 -38.001 -14s-25.334 -7.66699 -38.001 -11v-409c0 -35.333 3.83301 -64.833 11.5 -88.5s18.834 -42.667 33.501 -57s32.834 -24.666 54.501 -30.999s46.167 -9.5 73.5 -9.5c52.667 0 93.667 14.5 123 43.5
s44 76.833 44 143.5v399c-15.333 5.33301 -29.666 10.833 -42.999 16.5s-25.333 11.5 -36 17.5v29h213v-29c-12.667 -7.33301 -25.5 -14 -38.5 -20s-26.167 -10.667 -39.5 -14v-401c0 -42.667 -5.66699 -79.334 -17 -110.001s-27.166 -56 -47.499 -76s-45 -34.833 -74 -44.5
s-61.167 -14.5 -96.5 -14.5c-83.333 0 -147 18.833 -191 56.5s-66 95.5 -66 173.5v425c-27.333 4 -54.666 12.333 -81.999 25v29zM400.997 769l-17.999 -18.999l-225 91v20c4 4.66699 10.333 9.16699 19 13.5s18 8 28 11s19.667 5.16699 29 6.5
s16.666 1.66602 21.999 0.999023z" />
    <glyph glyph-name="Uacute" unicode="&#xda;" horiz-adv-x="672" 
d="M10 700h253.997v-29c-12.667 -5.33301 -25.334 -10 -38.001 -14s-25.334 -7.66699 -38.001 -11v-409c0 -35.333 3.83301 -64.833 11.5 -88.5s18.834 -42.667 33.501 -57s32.834 -24.666 54.501 -30.999s46.167 -9.5 73.5 -9.5c52.667 0 93.667 14.5 123 43.5
s44 76.833 44 143.5v399c-15.333 5.33301 -29.666 10.833 -42.999 16.5s-25.333 11.5 -36 17.5v29h213v-29c-12.667 -7.33301 -25.5 -14 -38.5 -20s-26.167 -10.667 -39.5 -14v-401c0 -42.667 -5.66699 -79.334 -17 -110.001s-27.166 -56 -47.499 -76s-45 -34.833 -74 -44.5
s-61.167 -14.5 -96.5 -14.5c-83.333 0 -147 18.833 -191 56.5s-66 95.5 -66 173.5v425c-27.333 4 -54.666 12.333 -81.999 25v29zM464.997 893c6 0.666992 13.667 0.333008 23 -1s18.833 -3.5 28.5 -6.5s18.667 -6.66699 27 -11s14.5 -8.83301 18.5 -13.5v-20l-226 -91
l-17 19z" />
    <glyph glyph-name="Ucircumflex" unicode="&#xdb;" horiz-adv-x="672" 
d="M10 700h253.997v-29c-12.667 -5.33301 -25.334 -10 -38.001 -14s-25.334 -7.66699 -38.001 -11v-409c0 -35.333 3.83301 -64.833 11.5 -88.5s18.834 -42.667 33.501 -57s32.834 -24.666 54.501 -30.999s46.167 -9.5 73.5 -9.5c52.667 0 93.667 14.5 123 43.5
s44 76.833 44 143.5v399c-15.333 5.33301 -29.666 10.833 -42.999 16.5s-25.333 11.5 -36 17.5v29h213v-29c-12.667 -7.33301 -25.5 -14 -38.5 -20s-26.167 -10.667 -39.5 -14v-401c0 -42.667 -5.66699 -79.334 -17 -110.001s-27.166 -56 -47.499 -76s-45 -34.833 -74 -44.5
s-61.167 -14.5 -96.5 -14.5c-83.333 0 -147 18.833 -191 56.5s-66 95.5 -66 173.5v425c-27.333 4 -54.666 12.333 -81.999 25v29zM231.997 752l-14 19.001l127 112c3.33301 2 7.5 3.16699 12.5 3.5s9.5 -0.833984 13.5 -3.50098l125 -109l-15 -21l-127 56z" />
    <glyph glyph-name="Udieresis" unicode="&#xdc;" horiz-adv-x="672" 
d="M10 700h253.997v-29c-12.667 -5.33301 -25.334 -10 -38.001 -14s-25.334 -7.66699 -38.001 -11v-409c0 -35.333 3.83301 -64.833 11.5 -88.5s18.834 -42.667 33.501 -57s32.834 -24.666 54.501 -30.999s46.167 -9.5 73.5 -9.5c52.667 0 93.667 14.5 123 43.5
s44 76.833 44 143.5v399c-15.333 5.33301 -29.666 10.833 -42.999 16.5s-25.333 11.5 -36 17.5v29h213v-29c-12.667 -7.33301 -25.5 -14 -38.5 -20s-26.167 -10.667 -39.5 -14v-401c0 -42.667 -5.66699 -79.334 -17 -110.001s-27.166 -56 -47.499 -76s-45 -34.833 -74 -44.5
s-61.167 -14.5 -96.5 -14.5c-83.333 0 -147 18.833 -191 56.5s-66 95.5 -66 173.5v425c-27.333 4 -54.666 12.333 -81.999 25v29zM188.997 789c0 16 5.33301 28 16 36s24.334 12 41.001 12c16 0 29.333 -4 40 -12s16 -20 16 -36c0 -15.333 -5.33301 -27 -16 -35
s-24 -12 -40 -12c-16.667 0 -30.334 4 -41.001 12s-16 19.667 -16 35zM411.997 789c0 16 5.33301 28 16 36s24 12 40 12c16.667 0 30.334 -4 41.001 -12s16 -20 16 -36c0 -15.333 -5.33301 -27 -16 -35s-24.334 -12 -41.001 -12c-16 0 -29.333 4 -40 12s-16 19.667 -16 35z
" />
    <glyph glyph-name="Yacute" unicode="&#xdd;" horiz-adv-x="644" 
d="M424 700l219.999 0.00195312v-29c-25.333 -12.667 -50.666 -21 -75.999 -25l-189 -348v-245c26 -3.33301 51.333 -11.333 76 -24v-29h-254v29c24 12 51.333 20 82 24v244l-202 349c-15.333 2.66699 -29.5 6.16699 -42.5 10.5s-25.833 9.16602 -38.5 14.499v29h265v-29
c-10 -4 -21.333 -8.16699 -34 -12.5s-27 -8.5 -43 -12.5l164 -294l154 294c-15.333 3.33301 -29.833 7.16602 -43.5 11.499s-26.5 8.83301 -38.5 13.5v29zM464.999 893.002c6 0.666992 13.667 0.333008 23 -1s18.833 -3.5 28.5 -6.5s18.667 -6.66699 27 -11
s14.5 -8.83301 18.5 -13.5v-20l-226 -91l-17 19z" />
    <glyph glyph-name="Thorn" unicode="&#xde;" horiz-adv-x="595" 
d="M207 53c37.333 -5.33301 69.335 -13.666 96.002 -24.999v-28h-274v28c13.333 7.33301 27 12.666 41 15.999s27.667 6.33301 41 9v594c-27.333 5.33301 -54 13.666 -80 24.999v28h256v-28c-12 -6 -25 -11 -39 -15s-27.667 -7.33301 -41 -10v-49
c15.333 1.33301 30.5 2.33301 45.5 3s29.833 1 44.5 1c32.667 0 64.667 -3.5 96 -10.5s59.166 -18.667 83.499 -35s43.833 -38 58.5 -65s22 -60.5 22 -100.5c0 -38 -7.66699 -70.5 -23 -97.5s-35.833 -49.333 -61.5 -67s-54.834 -30.667 -87.501 -39
s-66.334 -12.5 -101.001 -12.5h-15.5c-7 0 -14.5 0.166992 -22.5 0.5s-15.667 0.833008 -23 1.5s-12.666 1.33398 -15.999 2.00098v-126zM275.002 550c-16 0 -29 -0.333984 -39 -1.00098s-19.667 -2.33398 -29 -5.00098v-313
c3.33301 -1.33301 8.16602 -2.16602 14.499 -2.49902s13 -0.666016 20 -0.999023s13.833 -0.5 20.5 -0.5h16c23.333 0 45.333 3.16699 66 9.5s38.834 16.166 54.501 29.499s28.167 30.333 37.5 51s14 45.334 14 74.001c0 52 -15.5 91.5 -46.5 118.5
s-73.833 40.5 -128.5 40.5z" />
    <glyph glyph-name="germandbls" unicode="&#xdf;" horiz-adv-x="638" 
d="M433 590c0 14.667 -2.83203 29.0039 -8.49902 43.0039s-13.167 26.5 -22.5 37.5s-20 20 -32 27s-25 10.5 -39 10.5c-18 0 -35 -1.83301 -51 -5.5s-30.167 -11.834 -42.5 -24.501s-22.166 -31 -29.499 -55s-11 -56.333 -11 -97v-526h-156v25c20.667 12 42.667 20 66 24
v401h-76v26c23.333 14.667 48.666 25.667 75.999 33v35c0 41.333 7.33301 75.5 22 102.5s32.834 48.333 54.501 64s45.167 26.5 70.5 32.5s49 9 71 9c36 0 66.5 -5 91.5 -15s45.333 -23.333 61 -40s27 -35.667 34 -57s10.833 -43.333 11.5 -66
c-25.333 -3.33301 -48 -8.16602 -68 -14.499s-37 -14.833 -51 -25.5s-24.667 -23.834 -32 -39.501s-11 -34.5 -11 -56.5c0 -20.667 5.83301 -38.5 17.5 -53.5s26.334 -29 44.001 -42s36.834 -25.667 57.501 -38s39.834 -26.333 57.501 -42s32.334 -33.5 44.001 -53.5
s17.5 -43.667 17.5 -71c0 -46.667 -16 -83.334 -48 -110.001s-77.667 -40 -137 -40c-55.333 0 -109.333 9.66699 -162 29c1.33301 16.667 4.16602 32.167 8.49902 46.5s9.5 27.166 15.5 38.499h25l65 -62c7.33301 -3.33301 14.5 -5.5 21.5 -6.5s15.167 -1.5 24.5 -1.5
c32 0 56.167 8 72.5 24s24.5 35.333 24.5 58c0 22 -5.83301 40.667 -17.5 56s-26.334 29.5 -44.001 42.5s-36.834 25.667 -57.501 38s-39.834 26.5 -57.501 42.5s-32.334 34.667 -44.001 56s-17.5 47.333 -17.5 78c0 36.667 12.167 68.667 36.5 96
s66.166 49.666 125.499 66.999z" />
    <glyph glyph-name="agrave" unicode="&#xe0;" horiz-adv-x="505" 
d="M410 131c0 -14.667 0.333008 -27.3291 1 -37.9961s1.33398 -22 2.00098 -34l69 -10v-21c-16.667 -8.66699 -35.167 -16.334 -55.5 -23.001s-39.833 -11.667 -58.5 -15h-25c-6.66699 15.333 -10.667 32.166 -12 50.499s-2.33301 38.5 -3 60.5h-5
c-2.66699 -13.333 -7.83398 -26.833 -15.501 -40.5s-17.667 -25.834 -30 -36.501s-26.833 -19.334 -43.5 -26.001s-35.667 -10 -57 -10c-40.667 0 -73.834 12.333 -99.501 37s-38.5 57 -38.5 97c0 30.667 6.16699 55.834 18.5 75.501s30.5 35.167 54.5 46.5
s53.667 19.5 89 24.5s76.333 8.83301 123 11.5c2.66699 28.667 3.5 54.5 2.5 77.5s-4.66699 42.667 -11 59s-15.666 29 -27.999 38s-28.5 13.5 -48.5 13.5c-9.33301 0 -19.833 -0.5 -31.5 -1.5s-23.167 -3.83301 -34.5 -8.5l-47 -120h-26c-6.66699 20 -12.5 40.667 -17.5 62
s-8.16699 42.333 -9.5 63c25.333 15.333 53.5 27.333 84.5 36s65.5 13 103.5 13c34 0 61.167 -4.83301 81.5 -14.5s35.833 -22.167 46.5 -37.5s17.667 -32.333 21 -51s5 -37.334 5 -56.001c0 -40 -0.833008 -78.5 -2.5 -115.5s-2.5 -72.5 -2.5 -106.5zM217 50.0049
c16.667 0 31.333 3.33301 44 10s23.334 14.667 32.001 24s15.667 18.833 21 28.5s9 17.834 11 24.501v105c-38.667 0 -70.334 -2 -95.001 -6s-44 -10.333 -58 -19s-23.667 -19.5 -29 -32.5s-8 -27.833 -8 -44.5c0 -28.667 7.33301 -50.834 22 -66.501s34.667 -23.5 60 -23.5
zM315.999 593.005l-22.001 -17l-186 149v20c4 3.33301 10.5 6.5 19.5 9.5s18.833 5.5 29.5 7.5s20.834 3.5 30.501 4.5s17.167 1.16699 22.5 0.5z" />
    <glyph glyph-name="aacute" unicode="&#xe1;" horiz-adv-x="505" 
d="M410 131c0 -14.667 0.333008 -27.3291 1 -37.9961s1.33398 -22 2.00098 -34l69 -10v-21c-16.667 -8.66699 -35.167 -16.334 -55.5 -23.001s-39.833 -11.667 -58.5 -15h-25c-6.66699 15.333 -10.667 32.166 -12 50.499s-2.33301 38.5 -3 60.5h-5
c-2.66699 -13.333 -7.83398 -26.833 -15.501 -40.5s-17.667 -25.834 -30 -36.501s-26.833 -19.334 -43.5 -26.001s-35.667 -10 -57 -10c-40.667 0 -73.834 12.333 -99.501 37s-38.5 57 -38.5 97c0 30.667 6.16699 55.834 18.5 75.501s30.5 35.167 54.5 46.5
s53.667 19.5 89 24.5s76.333 8.83301 123 11.5c2.66699 28.667 3.5 54.5 2.5 77.5s-4.66699 42.667 -11 59s-15.666 29 -27.999 38s-28.5 13.5 -48.5 13.5c-9.33301 0 -19.833 -0.5 -31.5 -1.5s-23.167 -3.83301 -34.5 -8.5l-47 -120h-26c-6.66699 20 -12.5 40.667 -17.5 62
s-8.16699 42.333 -9.5 63c25.333 15.333 53.5 27.333 84.5 36s65.5 13 103.5 13c34 0 61.167 -4.83301 81.5 -14.5s35.833 -22.167 46.5 -37.5s17.667 -32.333 21 -51s5 -37.334 5 -56.001c0 -40 -0.833008 -78.5 -2.5 -115.5s-2.5 -72.5 -2.5 -106.5zM217 50.0049
c16.667 0 31.333 3.33301 44 10s23.334 14.667 32.001 24s15.667 18.833 21 28.5s9 17.834 11 24.501v105c-38.667 0 -70.334 -2 -95.001 -6s-44 -10.333 -58 -19s-23.667 -19.5 -29 -32.5s-8 -27.833 -8 -44.5c0 -28.667 7.33301 -50.834 22 -66.501s34.667 -23.5 60 -23.5
zM304.999 767.005c5.33301 0.666992 12.333 0.5 21 -0.5s17.667 -2.5 27 -4.5s18 -4.5 26 -7.5s14 -6.16699 18 -9.5v-19l-187 -151l-22 18z" />
    <glyph glyph-name="acircumflex" unicode="&#xe2;" horiz-adv-x="505" 
d="M410 131c0 -14.667 0.333008 -27.3291 1 -37.9961s1.33398 -22 2.00098 -34l69 -10v-21c-16.667 -8.66699 -35.167 -16.334 -55.5 -23.001s-39.833 -11.667 -58.5 -15h-25c-6.66699 15.333 -10.667 32.166 -12 50.499s-2.33301 38.5 -3 60.5h-5
c-2.66699 -13.333 -7.83398 -26.833 -15.501 -40.5s-17.667 -25.834 -30 -36.501s-26.833 -19.334 -43.5 -26.001s-35.667 -10 -57 -10c-40.667 0 -73.834 12.333 -99.501 37s-38.5 57 -38.5 97c0 30.667 6.16699 55.834 18.5 75.501s30.5 35.167 54.5 46.5
s53.667 19.5 89 24.5s76.333 8.83301 123 11.5c2.66699 28.667 3.5 54.5 2.5 77.5s-4.66699 42.667 -11 59s-15.666 29 -27.999 38s-28.5 13.5 -48.5 13.5c-9.33301 0 -19.833 -0.5 -31.5 -1.5s-23.167 -3.83301 -34.5 -8.5l-47 -120h-26c-6.66699 20 -12.5 40.667 -17.5 62
s-8.16699 42.333 -9.5 63c25.333 15.333 53.5 27.333 84.5 36s65.5 13 103.5 13c34 0 61.167 -4.83301 81.5 -14.5s35.833 -22.167 46.5 -37.5s17.667 -32.333 21 -51s5 -37.334 5 -56.001c0 -40 -0.833008 -78.5 -2.5 -115.5s-2.5 -72.5 -2.5 -106.5zM217 50.0049
c16.667 0 31.333 3.33301 44 10s23.334 14.667 32.001 24s15.667 18.833 21 28.5s9 17.834 11 24.501v105c-38.667 0 -70.334 -2 -95.001 -6s-44 -10.333 -58 -19s-23.667 -19.5 -29 -32.5s-8 -27.833 -8 -44.5c0 -28.667 7.33301 -50.834 22 -66.501s34.667 -23.5 60 -23.5
zM156.999 590.005l-29 16.001l110 186c3.33301 2 7.5 3.16699 12.5 3.5s9.16699 -0.833984 12.5 -3.50098l114 -185l-27 -17l-103 107z" />
    <glyph glyph-name="atilde" unicode="&#xe3;" horiz-adv-x="505" 
d="M410 131c0 -14.667 0.333008 -27.3291 1 -37.9961s1.33398 -22 2.00098 -34l69 -10v-21c-16.667 -8.66699 -35.167 -16.334 -55.5 -23.001s-39.833 -11.667 -58.5 -15h-25c-6.66699 15.333 -10.667 32.166 -12 50.499s-2.33301 38.5 -3 60.5h-5
c-2.66699 -13.333 -7.83398 -26.833 -15.501 -40.5s-17.667 -25.834 -30 -36.501s-26.833 -19.334 -43.5 -26.001s-35.667 -10 -57 -10c-40.667 0 -73.834 12.333 -99.501 37s-38.5 57 -38.5 97c0 30.667 6.16699 55.834 18.5 75.501s30.5 35.167 54.5 46.5
s53.667 19.5 89 24.5s76.333 8.83301 123 11.5c2.66699 28.667 3.5 54.5 2.5 77.5s-4.66699 42.667 -11 59s-15.666 29 -27.999 38s-28.5 13.5 -48.5 13.5c-9.33301 0 -19.833 -0.5 -31.5 -1.5s-23.167 -3.83301 -34.5 -8.5l-47 -120h-26c-6.66699 20 -12.5 40.667 -17.5 62
s-8.16699 42.333 -9.5 63c25.333 15.333 53.5 27.333 84.5 36s65.5 13 103.5 13c34 0 61.167 -4.83301 81.5 -14.5s35.833 -22.167 46.5 -37.5s17.667 -32.333 21 -51s5 -37.334 5 -56.001c0 -40 -0.833008 -78.5 -2.5 -115.5s-2.5 -72.5 -2.5 -106.5zM217 50.0049
c16.667 0 31.333 3.33301 44 10s23.334 14.667 32.001 24s15.667 18.833 21 28.5s9 17.834 11 24.501v105c-38.667 0 -70.334 -2 -95.001 -6s-44 -10.333 -58 -19s-23.667 -19.5 -29 -32.5s-8 -27.833 -8 -44.5c0 -28.667 7.33301 -50.834 22 -66.501s34.667 -23.5 60 -23.5
zM395.999 672.005c-21.333 -21.333 -40.833 -36.168 -58.5 -44.501s-34.167 -12.5 -49.5 -12.5c-12 0 -23.333 1.83301 -34 5.5s-21 7.5 -31 11.5s-19.833 7.83301 -29.5 11.5s-19.5 5.5 -29.5 5.5c-8.66699 0 -17.5 -1.66699 -26.5 -5s-18.833 -9.66602 -29.5 -18.999
l-19 28c24.667 23.333 46.667 39 66 47s36.666 12 51.999 12c12 0 23.167 -1.66699 33.5 -5s20.166 -7 29.499 -11s18.833 -7.66699 28.5 -11s19.5 -5 29.5 -5c8.66699 0 17.334 1.5 26.001 4.5s18.334 8.16699 29.001 15.5z" />
    <glyph glyph-name="adieresis" unicode="&#xe4;" horiz-adv-x="505" 
d="M410 131c0 -14.667 0.333008 -27.3291 1 -37.9961s1.33398 -22 2.00098 -34l69 -10v-21c-16.667 -8.66699 -35.167 -16.334 -55.5 -23.001s-39.833 -11.667 -58.5 -15h-25c-6.66699 15.333 -10.667 32.166 -12 50.499s-2.33301 38.5 -3 60.5h-5
c-2.66699 -13.333 -7.83398 -26.833 -15.501 -40.5s-17.667 -25.834 -30 -36.501s-26.833 -19.334 -43.5 -26.001s-35.667 -10 -57 -10c-40.667 0 -73.834 12.333 -99.501 37s-38.5 57 -38.5 97c0 30.667 6.16699 55.834 18.5 75.501s30.5 35.167 54.5 46.5
s53.667 19.5 89 24.5s76.333 8.83301 123 11.5c2.66699 28.667 3.5 54.5 2.5 77.5s-4.66699 42.667 -11 59s-15.666 29 -27.999 38s-28.5 13.5 -48.5 13.5c-9.33301 0 -19.833 -0.5 -31.5 -1.5s-23.167 -3.83301 -34.5 -8.5l-47 -120h-26c-6.66699 20 -12.5 40.667 -17.5 62
s-8.16699 42.333 -9.5 63c25.333 15.333 53.5 27.333 84.5 36s65.5 13 103.5 13c34 0 61.167 -4.83301 81.5 -14.5s35.833 -22.167 46.5 -37.5s17.667 -32.333 21 -51s5 -37.334 5 -56.001c0 -40 -0.833008 -78.5 -2.5 -115.5s-2.5 -72.5 -2.5 -106.5zM217 50.0049
c16.667 0 31.333 3.33301 44 10s23.334 14.667 32.001 24s15.667 18.833 21 28.5s9 17.834 11 24.501v105c-38.667 0 -70.334 -2 -95.001 -6s-44 -10.333 -58 -19s-23.667 -19.5 -29 -32.5s-8 -27.833 -8 -44.5c0 -28.667 7.33301 -50.834 22 -66.501s34.667 -23.5 60 -23.5
zM76.999 663.005c0 16 5 28.833 15 38.5s23 14.5 39 14.5s29 -4.83301 39 -14.5s15 -22.5 15 -38.5c0 -15.333 -5 -27.666 -15 -36.999s-23 -14 -39 -14s-29 4.66699 -39 14s-15 21.666 -15 36.999zM298.999 663.005c0 16 5 28.833 15 38.5s23 14.5 39 14.5
s29 -4.83301 39 -14.5s15 -22.5 15 -38.5c0 -15.333 -5 -27.666 -15 -36.999s-23 -14 -39 -14s-29 4.66699 -39 14s-15 21.666 -15 36.999z" />
    <glyph glyph-name="aring" unicode="&#xe5;" horiz-adv-x="505" 
d="M410 131c0 -14.667 0.333008 -27.3291 1 -37.9961s1.33398 -22 2.00098 -34l69 -10v-21c-16.667 -8.66699 -35.167 -16.334 -55.5 -23.001s-39.833 -11.667 -58.5 -15h-25c-6.66699 15.333 -10.667 32.166 -12 50.499s-2.33301 38.5 -3 60.5h-5
c-2.66699 -13.333 -7.83398 -26.833 -15.501 -40.5s-17.667 -25.834 -30 -36.501s-26.833 -19.334 -43.5 -26.001s-35.667 -10 -57 -10c-40.667 0 -73.834 12.333 -99.501 37s-38.5 57 -38.5 97c0 30.667 6.16699 55.834 18.5 75.501s30.5 35.167 54.5 46.5
s53.667 19.5 89 24.5s76.333 8.83301 123 11.5c2.66699 28.667 3.5 54.5 2.5 77.5s-4.66699 42.667 -11 59s-15.666 29 -27.999 38s-28.5 13.5 -48.5 13.5c-9.33301 0 -19.833 -0.5 -31.5 -1.5s-23.167 -3.83301 -34.5 -8.5l-47 -120h-26c-6.66699 20 -12.5 40.667 -17.5 62
s-8.16699 42.333 -9.5 63c25.333 15.333 53.5 27.333 84.5 36s65.5 13 103.5 13c34 0 61.167 -4.83301 81.5 -14.5s35.833 -22.167 46.5 -37.5s17.667 -32.333 21 -51s5 -37.334 5 -56.001c0 -40 -0.833008 -78.5 -2.5 -115.5s-2.5 -72.5 -2.5 -106.5zM217 50.0049
c16.667 0 31.333 3.33301 44 10s23.334 14.667 32.001 24s15.667 18.833 21 28.5s9 17.834 11 24.501v105c-38.667 0 -70.334 -2 -95.001 -6s-44 -10.333 -58 -19s-23.667 -19.5 -29 -32.5s-8 -27.833 -8 -44.5c0 -28.667 7.33301 -50.834 22 -66.501s34.667 -23.5 60 -23.5
zM142.999 683.005c0 27.333 9.50098 50.333 28.501 69s42.833 28 71.5 28c26 0 48.167 -8.33301 66.5 -25s27.5 -39.667 27.5 -69c0 -14 -2.66699 -26.667 -8 -38s-12.333 -21 -21 -29s-18.834 -14.333 -30.501 -19s-23.5 -7 -35.5 -7c-30 0 -54 8 -72 24s-27 38 -27 66z
M195 685.005c0 -17.333 4.50098 -30.168 13.501 -38.501s19.167 -12.5 30.5 -12.5c13.333 0 24.166 3.83301 32.499 11.5s12.5 19.834 12.5 36.501c0 18 -4 32 -12 42s-18.667 15 -32 15c-16 0 -27.5 -5 -34.5 -15s-10.5 -23 -10.5 -39z" />
    <glyph glyph-name="ae" unicode="&#xe6;" horiz-adv-x="778" 
d="M390 453c7.33301 8 15.333 15.6699 24 23.0029s18.834 13.666 30.501 18.999s25.334 9.5 41.001 12.5s34.5 4.5 56.5 4.5c23.333 0 46.333 -3.16699 69 -9.5s42.834 -16.833 60.501 -31.5s32 -34.167 43 -58.5s16.5 -54.5 16.5 -90.5c0 -11.333 -0.5 -22.833 -1.5 -34.5
s-2.83301 -24.167 -5.5 -37.5h-310c0 -28 3.5 -54.167 10.5 -78.5s17.333 -45.5 31 -63.5s31 -32.167 52 -42.5s45.833 -15.5 74.5 -15.5c11.333 0 23.166 0.833008 35.499 2.5s24.166 4.16699 35.499 7.5s21.666 7.16602 30.999 11.499s17 9.16602 23 14.499l15 -16
c-5.33301 -11.333 -13.666 -22 -24.999 -32s-24.5 -18.667 -39.5 -26s-31.167 -13.166 -48.5 -17.499s-35 -6.5 -53 -6.5s-36.833 1.66699 -56.5 5s-39 9.16602 -58 17.499s-36.5 19.666 -52.5 33.999s-29 32.166 -39 53.499c-5.33301 -15.333 -13.333 -29.666 -24 -42.999
s-23.5 -25 -38.5 -35s-31.833 -17.833 -50.5 -23.5s-38.667 -8.5 -60 -8.5c-40.667 0 -73.834 12.333 -99.501 37s-38.5 57 -38.5 97c0 30.667 6.16699 55.834 18.5 75.501s30.5 35.167 54.5 46.5s53.667 19.5 89 24.5s76.333 8.83301 123 11.5c2 20.667 3 40 3 58
c0 40.667 -6.33301 72.5 -19 95.5s-35.667 34.5 -69 34.5c-9.33301 0 -19.833 -0.5 -31.5 -1.5s-23.167 -3.83301 -34.5 -8.5l-47 -120h-26c-6.66699 20 -12.5 40.667 -17.5 62s-8.16699 42.333 -9.5 63c25.333 15.333 53.5 27.333 84.5 36s65.5 13 103.5 13
s67 -5.5 87 -16.5s34 -25.167 42 -42.5zM217 50.0029c16.667 0 31.168 3.16797 43.501 9.50098s22.833 14 31.5 23s15.667 18.167 21 27.5s9 17.333 11 24v108c-38.667 0 -70.334 -2 -95.001 -6s-44 -10.333 -58 -19s-23.5 -19.5 -28.5 -32.5s-7.5 -27.833 -7.5 -44.5
c0 -28.667 7.33301 -50.834 22 -66.501s34.667 -23.5 60 -23.5zM538.001 468.004c-37.333 0 -66 -12.832 -86 -38.499s-32 -70.834 -36 -135.501h219c0.666992 6 1.16699 11.833 1.5 17.5s0.5 11.167 0.5 16.5c0 42.667 -8 76.667 -24 102s-41 38 -75 38z" />
    <glyph glyph-name="ccedilla" unicode="&#xe7;" horiz-adv-x="466" 
d="M427 70c-12.667 -24 -32.665 -43.6729 -59.998 -59.0059s-60 -23 -98 -23l-21 -56c36.667 -1.33301 63.167 -8.16602 79.5 -20.499s25.166 -29.166 26.499 -50.499c0.666992 -19.333 -4.16602 -36.166 -14.499 -50.499s-23.5 -26.166 -39.5 -35.499
s-33.667 -16.166 -53 -20.499s-38 -6.16602 -56 -5.49902v30c25.333 3.33301 45.666 10 60.999 20s22.666 25.333 21.999 46c-0.666992 16.667 -7.5 28.667 -20.5 36s-33.5 12 -61.5 14l34 97c-62 9.33301 -108.333 37 -139 83s-46 104.333 -46 175
c0 84.667 20.667 149.5 62 194.5s97.666 67.5 168.999 67.5c32.667 0 61.834 -2.83301 87.501 -8.5s47.5 -13.167 65.5 -22.5c-2 -22 -5.66699 -46.667 -11 -74s-12 -50 -20 -68h-27l-42 119c-4.66699 3.33301 -10 5.83301 -16 7.5s-16 2.5 -30 2.5
c-45.333 0 -80.333 -16.5 -105 -49.5s-37 -88.833 -37 -167.5c0 -25.333 3.5 -50 10.5 -74s17.667 -45.5 32 -64.5s32.333 -34.167 54 -45.5s46.834 -17 75.501 -17c23.333 0 43.666 3.33301 60.999 10s32 14.667 44 24z" />
    <glyph glyph-name="egrave" unicode="&#xe8;" horiz-adv-x="503" 
d="M446 70c-5.33301 -11.333 -13.668 -22.002 -25.001 -32.002s-24.333 -18.667 -39 -26s-30.667 -13.166 -48 -17.499s-35 -6.5 -53 -6.5c-39.333 0 -74 6.16699 -104 18.5s-55 30 -75 53s-35.167 50.5 -45.5 82.5s-15.5 68 -15.5 108c0 85.333 19.667 150.333 59 195
s95 67 167 67c23.333 0 46.333 -3.16699 69 -9.5s42.834 -16.833 60.501 -31.5s32 -34.167 43 -58.5s16.5 -54.5 16.5 -90.5c0 -11.333 -0.5 -22.833 -1.5 -34.5s-2.83301 -24.167 -5.5 -37.5h-312c0 -28 3.5 -54.167 10.5 -78.5s17.5 -45.5 31.5 -63.5
s31.667 -32.167 53 -42.5s46.333 -15.5 75 -15.5c23.333 0 47 3.33301 71 10s42 15.334 54 26.001zM262.998 467.998c-38 0 -67 -12.832 -87 -38.499s-32 -70.834 -36 -135.501h220c0.666992 6 1.16699 11.833 1.5 17.5s0.5 11.167 0.5 16.5c0 42.667 -8 76.667 -24 102
s-41 38 -75 38zM324.998 592.999l-22.001 -17l-186 149v20c4 3.33301 10.5 6.5 19.5 9.5s18.833 5.5 29.5 7.5s20.834 3.5 30.501 4.5s17.167 1.16699 22.5 0.5z" />
    <glyph glyph-name="eacute" unicode="&#xe9;" horiz-adv-x="503" 
d="M446 70c-5.33301 -11.333 -13.668 -22.002 -25.001 -32.002s-24.333 -18.667 -39 -26s-30.667 -13.166 -48 -17.499s-35 -6.5 -53 -6.5c-39.333 0 -74 6.16699 -104 18.5s-55 30 -75 53s-35.167 50.5 -45.5 82.5s-15.5 68 -15.5 108c0 85.333 19.667 150.333 59 195
s95 67 167 67c23.333 0 46.333 -3.16699 69 -9.5s42.834 -16.833 60.501 -31.5s32 -34.167 43 -58.5s16.5 -54.5 16.5 -90.5c0 -11.333 -0.5 -22.833 -1.5 -34.5s-2.83301 -24.167 -5.5 -37.5h-312c0 -28 3.5 -54.167 10.5 -78.5s17.5 -45.5 31.5 -63.5
s31.667 -32.167 53 -42.5s46.333 -15.5 75 -15.5c23.333 0 47 3.33301 71 10s42 15.334 54 26.001zM262.998 467.998c-38 0 -67 -12.832 -87 -38.499s-32 -70.834 -36 -135.501h220c0.666992 6 1.16699 11.833 1.5 17.5s0.5 11.167 0.5 16.5c0 42.667 -8 76.667 -24 102
s-41 38 -75 38zM321.998 766.999c5.33301 0.666992 12.333 0.5 21 -0.5s17.667 -2.5 27 -4.5s18 -4.5 26 -7.5s14 -6.16699 18 -9.5v-19l-187 -151l-22 18z" />
    <glyph glyph-name="ecircumflex" unicode="&#xea;" horiz-adv-x="503" 
d="M446 70c-5.33301 -11.333 -13.668 -22.002 -25.001 -32.002s-24.333 -18.667 -39 -26s-30.667 -13.166 -48 -17.499s-35 -6.5 -53 -6.5c-39.333 0 -74 6.16699 -104 18.5s-55 30 -75 53s-35.167 50.5 -45.5 82.5s-15.5 68 -15.5 108c0 85.333 19.667 150.333 59 195
s95 67 167 67c23.333 0 46.333 -3.16699 69 -9.5s42.834 -16.833 60.501 -31.5s32 -34.167 43 -58.5s16.5 -54.5 16.5 -90.5c0 -11.333 -0.5 -22.833 -1.5 -34.5s-2.83301 -24.167 -5.5 -37.5h-312c0 -28 3.5 -54.167 10.5 -78.5s17.5 -45.5 31.5 -63.5
s31.667 -32.167 53 -42.5s46.333 -15.5 75 -15.5c23.333 0 47 3.33301 71 10s42 15.334 54 26.001zM262.998 467.998c-38 0 -67 -12.832 -87 -38.499s-32 -70.834 -36 -135.501h220c0.666992 6 1.16699 11.833 1.5 17.5s0.5 11.167 0.5 16.5c0 42.667 -8 76.667 -24 102
s-41 38 -75 38zM165.998 589.999l-29 16.001l110 186c3.33301 2 7.5 3.16699 12.5 3.5s9.16699 -0.833984 12.5 -3.50098l114 -185l-27 -17l-103 107z" />
    <glyph glyph-name="edieresis" unicode="&#xeb;" horiz-adv-x="503" 
d="M446 70c-5.33301 -11.333 -13.668 -22.002 -25.001 -32.002s-24.333 -18.667 -39 -26s-30.667 -13.166 -48 -17.499s-35 -6.5 -53 -6.5c-39.333 0 -74 6.16699 -104 18.5s-55 30 -75 53s-35.167 50.5 -45.5 82.5s-15.5 68 -15.5 108c0 85.333 19.667 150.333 59 195
s95 67 167 67c23.333 0 46.333 -3.16699 69 -9.5s42.834 -16.833 60.501 -31.5s32 -34.167 43 -58.5s16.5 -54.5 16.5 -90.5c0 -11.333 -0.5 -22.833 -1.5 -34.5s-2.83301 -24.167 -5.5 -37.5h-312c0 -28 3.5 -54.167 10.5 -78.5s17.5 -45.5 31.5 -63.5
s31.667 -32.167 53 -42.5s46.333 -15.5 75 -15.5c23.333 0 47 3.33301 71 10s42 15.334 54 26.001zM262.998 467.998c-38 0 -67 -12.832 -87 -38.499s-32 -70.834 -36 -135.501h220c0.666992 6 1.16699 11.833 1.5 17.5s0.5 11.167 0.5 16.5c0 42.667 -8 76.667 -24 102
s-41 38 -75 38zM92.998 662.999c0 16 5 28.833 15 38.5s23 14.5 39 14.5s29 -4.83301 39 -14.5s15 -22.5 15 -38.5c0 -15.333 -5 -27.666 -15 -36.999s-23 -14 -39 -14s-29 4.66699 -39 14s-15 21.666 -15 36.999zM314.998 662.999c0 16 5 28.833 15 38.5s23 14.5 39 14.5
s29 -4.83301 39 -14.5s15 -22.5 15 -38.5c0 -15.333 -5 -27.666 -15 -36.999s-23 -14 -39 -14s-29 4.66699 -39 14s-15 21.666 -15 36.999z" />
    <glyph glyph-name="igrave" unicode="&#xec;" horiz-adv-x="301" 
d="M263 0h-222.002v25c10 5.33301 20.333 9.83301 31 13.5s22.334 7.16699 35.001 10.5v393l-66 8v26c19.333 8 40.333 15 63 21s45.334 11 68.001 15h25v-463c13.333 -3.33301 25.333 -6.83301 36 -10.5s20.667 -8.16699 30 -13.5v-25zM201.998 593l-22.001 -17l-186 149
v20c4 3.33301 10.5 6.5 19.5 9.5s18.833 5.5 29.5 7.5s20.834 3.5 30.501 4.5s17.167 1.16699 22.5 0.5z" />
    <glyph glyph-name="iacute" unicode="&#xed;" horiz-adv-x="301" 
d="M263 0h-222.002v25c10 5.33301 20.333 9.83301 31 13.5s22.334 7.16699 35.001 10.5v393l-66 8v26c19.333 8 40.333 15 63 21s45.334 11 68.001 15h25v-463c13.333 -3.33301 25.333 -6.83301 36 -10.5s20.667 -8.16699 30 -13.5v-25zM198.998 767
c5.33301 0.666992 12.333 0.5 21 -0.5s17.667 -2.5 27 -4.5s18 -4.5 26 -7.5s14 -6.16699 18 -9.5v-19l-187 -151l-22 18z" />
    <glyph glyph-name="icircumflex" unicode="&#xee;" horiz-adv-x="301" 
d="M263 0h-222.002v25c10 5.33301 20.333 9.83301 31 13.5s22.334 7.16699 35.001 10.5v393l-66 8v26c19.333 8 40.333 15 63 21s45.334 11 68.001 15h25v-463c13.333 -3.33301 25.333 -6.83301 36 -10.5s20.667 -8.16699 30 -13.5v-25zM54.998 590l-29 16.001l110 186
c3.33301 2 7.5 3.16699 12.5 3.5s9.16699 -0.833984 12.5 -3.50098l114 -185l-27 -17l-103 107z" />
    <glyph glyph-name="idieresis" unicode="&#xef;" horiz-adv-x="301" 
d="M263 0h-222.002v25c10 5.33301 20.333 9.83301 31 13.5s22.334 7.16699 35.001 10.5v393l-66 8v26c19.333 8 40.333 15 63 21s45.334 11 68.001 15h25v-463c13.333 -3.33301 25.333 -6.83301 36 -10.5s20.667 -8.16699 30 -13.5v-25zM-14.002 663c0 16 5 28.833 15 38.5
s23 14.5 39 14.5s29 -4.83301 39 -14.5s15 -22.5 15 -38.5c0 -15.333 -5 -27.666 -15 -36.999s-23 -14 -39 -14s-29 4.66699 -39 14s-15 21.666 -15 36.999zM207.998 663c0 16 5 28.833 15 38.5s23 14.5 39 14.5s29 -4.83301 39 -14.5s15 -22.5 15 -38.5
c0 -15.333 -5 -27.666 -15 -36.999s-23 -14 -39 -14s-29 4.66699 -39 14s-15 21.666 -15 36.999z" />
    <glyph glyph-name="eth" unicode="&#xf0;" horiz-adv-x="535" 
d="M158 604l113.999 46.0029c-17.333 18 -36.166 34.167 -56.499 48.5s-41.833 25.833 -64.5 34.5v17h61c20.667 -6 41.5 -15.167 62.5 -27.5s41.167 -27.833 60.5 -46.5l110 46l19 -43l-93 -38c36 -42 66 -92.667 90 -152s36 -126 36 -200
c0 -43.333 -4.83301 -83.5 -14.5 -120.5s-24.334 -68.833 -44.001 -95.5s-44.167 -47.5 -73.5 -62.5s-63.666 -22.5 -102.999 -22.5c-36 0 -68.5 6.16699 -97.5 18.5s-53.667 29.833 -74 52.5s-35.833 49.5 -46.5 80.5s-16 65.167 -16 102.5c0 44.667 6.33301 84 19 118
s29.167 62.167 49.5 84.5s43.5 39.166 69.5 50.499s52.333 17 79 17c35.333 0 63.833 -5.5 85.5 -16.5s40.167 -24.5 55.5 -40.5c-8 25.333 -18.833 51.666 -32.5 78.999s-30.167 53.666 -49.5 78.999l-126 -52zM123.999 242.003c0 -27.333 3.16602 -53.502 9.49902 -78.502
s15.833 -47.167 28.5 -66.5s27.834 -34.666 45.501 -45.999s38.167 -17 61.5 -17c21.333 0 40.333 5.66699 57 17s30.5 27.5 41.5 48.5s19.333 46.167 25 75.5s8.5 62.333 8.5 99c0 35.333 -1.16699 63.333 -3.5 84s-4.5 35.334 -6.5 44.001
c-10 16.667 -25.833 30.5 -47.5 41.5s-48.167 16.5 -79.5 16.5c-40.667 0 -74.167 -18.167 -100.5 -54.5s-39.5 -90.833 -39.5 -163.5z" />
    <glyph glyph-name="ntilde" unicode="&#xf1;" horiz-adv-x="594" 
d="M577 0h-214.999v25c18 9.33301 37.667 17.333 59 24v237c0 50.667 -7.33301 90.667 -22 120s-41.334 44 -80.001 44c-16.667 0 -32.167 -3 -46.5 -9s-27 -14.167 -38 -24.5s-20.5 -22 -28.5 -35s-14.333 -26.5 -19 -40.5v-292c20.667 -4 40.667 -12 60 -24v-25h-216v25
c16.667 8.66699 38.667 16.667 66 24v393l-66 8v26c17.333 7.33301 37.333 14 60 20s46.334 11.333 71.001 16h25v-112h1c14 30.667 34.167 57 60.5 79s58.166 33 95.499 33c26.667 0 50.5 -3.16699 71.5 -9.5s38.5 -17.5 52.5 -33.5s24.667 -37.5 32 -64.5
s11 -61.167 11 -102.5v-253c26.667 -4.66699 48.667 -12.667 66 -24v-25zM451.001 672c-21.333 -21.333 -40.833 -36.168 -58.5 -44.501s-34.167 -12.5 -49.5 -12.5c-12 0 -23.333 1.83301 -34 5.5s-21 7.5 -31 11.5s-19.833 7.83301 -29.5 11.5s-19.5 5.5 -29.5 5.5
c-8.66699 0 -17.5 -1.66699 -26.5 -5s-18.833 -9.66602 -29.5 -18.999l-19 28c24.667 23.333 46.667 39 66 47s36.666 12 51.999 12c12 0 23.167 -1.66699 33.5 -5s20.166 -7 29.499 -11s18.833 -7.66699 28.5 -11s19.5 -5 29.5 -5c8.66699 0 17.334 1.5 26.001 4.5
s18.334 8.16699 29.001 15.5z" />
    <glyph glyph-name="ograve" unicode="&#xf2;" horiz-adv-x="553" 
d="M41 250c0 42 5.49902 79.1689 16.499 111.502s26.833 59.666 47.5 81.999s45.5 39.333 74.5 51s61.167 17.5 96.5 17.5c41.333 0 77 -6.33301 107 -19s54.5 -30.5 73.5 -53.5s33 -50.5 42 -82.5s13.5 -67.667 13.5 -107c0 -84 -21.333 -148.667 -64 -194
s-100 -68 -172 -68c-40 0 -74.667 6.16699 -104 18.5s-53.666 30 -72.999 53s-33.833 50.667 -43.5 83s-14.5 68.166 -14.5 107.499zM136.999 250.002c0 -30 2.83301 -58.332 8.5 -84.999s14.667 -49.834 27 -69.501s28.5 -35.167 48.5 -46.5s44 -17 72 -17
c36 0 65.5 17.667 88.5 53s34.5 90.333 34.5 165c0 30.667 -2.83301 59.167 -8.5 85.5s-14.5 49.333 -26.5 69s-27.333 35.167 -46 46.5s-41 17 -67 17c-39.333 0 -71 -17.667 -95 -53s-36 -90.333 -36 -165zM339.999 593.003l-22.001 -17l-186 149v20
c4 3.33301 10.5 6.5 19.5 9.5s18.833 5.5 29.5 7.5s20.834 3.5 30.501 4.5s17.167 1.16699 22.5 0.5z" />
    <glyph glyph-name="oacute" unicode="&#xf3;" horiz-adv-x="553" 
d="M41 250c0 42 5.49902 79.1689 16.499 111.502s26.833 59.666 47.5 81.999s45.5 39.333 74.5 51s61.167 17.5 96.5 17.5c41.333 0 77 -6.33301 107 -19s54.5 -30.5 73.5 -53.5s33 -50.5 42 -82.5s13.5 -67.667 13.5 -107c0 -84 -21.333 -148.667 -64 -194
s-100 -68 -172 -68c-40 0 -74.667 6.16699 -104 18.5s-53.666 30 -72.999 53s-33.833 50.667 -43.5 83s-14.5 68.166 -14.5 107.499zM136.999 250.002c0 -30 2.83301 -58.332 8.5 -84.999s14.667 -49.834 27 -69.501s28.5 -35.167 48.5 -46.5s44 -17 72 -17
c36 0 65.5 17.667 88.5 53s34.5 90.333 34.5 165c0 30.667 -2.83301 59.167 -8.5 85.5s-14.5 49.333 -26.5 69s-27.333 35.167 -46 46.5s-41 17 -67 17c-39.333 0 -71 -17.667 -95 -53s-36 -90.333 -36 -165zM328.999 767.003c5.33301 0.666992 12.333 0.5 21 -0.5
s17.667 -2.5 27 -4.5s18 -4.5 26 -7.5s14 -6.16699 18 -9.5v-19l-187 -151l-22 18z" />
    <glyph glyph-name="ocircumflex" unicode="&#xf4;" horiz-adv-x="553" 
d="M41 250c0 42 5.49902 79.1689 16.499 111.502s26.833 59.666 47.5 81.999s45.5 39.333 74.5 51s61.167 17.5 96.5 17.5c41.333 0 77 -6.33301 107 -19s54.5 -30.5 73.5 -53.5s33 -50.5 42 -82.5s13.5 -67.667 13.5 -107c0 -84 -21.333 -148.667 -64 -194
s-100 -68 -172 -68c-40 0 -74.667 6.16699 -104 18.5s-53.666 30 -72.999 53s-33.833 50.667 -43.5 83s-14.5 68.166 -14.5 107.499zM136.999 250.002c0 -30 2.83301 -58.332 8.5 -84.999s14.667 -49.834 27 -69.501s28.5 -35.167 48.5 -46.5s44 -17 72 -17
c36 0 65.5 17.667 88.5 53s34.5 90.333 34.5 165c0 30.667 -2.83301 59.167 -8.5 85.5s-14.5 49.333 -26.5 69s-27.333 35.167 -46 46.5s-41 17 -67 17c-39.333 0 -71 -17.667 -95 -53s-36 -90.333 -36 -165zM179.999 590.003l-29 16.001l110 186
c3.33301 2 7.5 3.16699 12.5 3.5s9.16699 -0.833984 12.5 -3.50098l114 -185l-27 -17l-103 107z" />
    <glyph glyph-name="otilde" unicode="&#xf5;" horiz-adv-x="553" 
d="M41 250c0 42 5.49902 79.1689 16.499 111.502s26.833 59.666 47.5 81.999s45.5 39.333 74.5 51s61.167 17.5 96.5 17.5c41.333 0 77 -6.33301 107 -19s54.5 -30.5 73.5 -53.5s33 -50.5 42 -82.5s13.5 -67.667 13.5 -107c0 -84 -21.333 -148.667 -64 -194
s-100 -68 -172 -68c-40 0 -74.667 6.16699 -104 18.5s-53.666 30 -72.999 53s-33.833 50.667 -43.5 83s-14.5 68.166 -14.5 107.499zM136.999 250.002c0 -30 2.83301 -58.332 8.5 -84.999s14.667 -49.834 27 -69.501s28.5 -35.167 48.5 -46.5s44 -17 72 -17
c36 0 65.5 17.667 88.5 53s34.5 90.333 34.5 165c0 30.667 -2.83301 59.167 -8.5 85.5s-14.5 49.333 -26.5 69s-27.333 35.167 -46 46.5s-41 17 -67 17c-39.333 0 -71 -17.667 -95 -53s-36 -90.333 -36 -165zM428.999 672.003
c-21.333 -21.333 -40.833 -36.168 -58.5 -44.501s-34.167 -12.5 -49.5 -12.5c-12 0 -23.333 1.83301 -34 5.5s-21 7.5 -31 11.5s-19.833 7.83301 -29.5 11.5s-19.5 5.5 -29.5 5.5c-8.66699 0 -17.5 -1.66699 -26.5 -5s-18.833 -9.66602 -29.5 -18.999l-19 28
c24.667 23.333 46.667 39 66 47s36.666 12 51.999 12c12 0 23.167 -1.66699 33.5 -5s20.166 -7 29.499 -11s18.833 -7.66699 28.5 -11s19.5 -5 29.5 -5c8.66699 0 17.334 1.5 26.001 4.5s18.334 8.16699 29.001 15.5z" />
    <glyph glyph-name="odieresis" unicode="&#xf6;" horiz-adv-x="553" 
d="M41 250c0 42 5.49902 79.1689 16.499 111.502s26.833 59.666 47.5 81.999s45.5 39.333 74.5 51s61.167 17.5 96.5 17.5c41.333 0 77 -6.33301 107 -19s54.5 -30.5 73.5 -53.5s33 -50.5 42 -82.5s13.5 -67.667 13.5 -107c0 -84 -21.333 -148.667 -64 -194
s-100 -68 -172 -68c-40 0 -74.667 6.16699 -104 18.5s-53.666 30 -72.999 53s-33.833 50.667 -43.5 83s-14.5 68.166 -14.5 107.499zM136.999 250.002c0 -30 2.83301 -58.332 8.5 -84.999s14.667 -49.834 27 -69.501s28.5 -35.167 48.5 -46.5s44 -17 72 -17
c36 0 65.5 17.667 88.5 53s34.5 90.333 34.5 165c0 30.667 -2.83301 59.167 -8.5 85.5s-14.5 49.333 -26.5 69s-27.333 35.167 -46 46.5s-41 17 -67 17c-39.333 0 -71 -17.667 -95 -53s-36 -90.333 -36 -165zM110.999 663.003c0 16 5 28.833 15 38.5s23 14.5 39 14.5
s29 -4.83301 39 -14.5s15 -22.5 15 -38.5c0 -15.333 -5 -27.666 -15 -36.999s-23 -14 -39 -14s-29 4.66699 -39 14s-15 21.666 -15 36.999zM332.999 663.003c0 16 5 28.833 15 38.5s23 14.5 39 14.5s29 -4.83301 39 -14.5s15 -22.5 15 -38.5
c0 -15.333 -5 -27.666 -15 -36.999s-23 -14 -39 -14s-29 4.66699 -39 14s-15 21.666 -15 36.999z" />
    <glyph glyph-name="divide" unicode="&#xf7;" 
d="M42 372h450v-53h-450v53zM198 535c0 20 6.33301 36 19 48s29 18 49 18c20.667 0 37.334 -6 50.001 -18s19 -28 19 -48c0 -19.333 -6.33301 -35 -19 -47s-29.334 -18 -50.001 -18c-20 0 -36.333 6 -49 18s-19 27.667 -19 47zM198 154c0 20 6.33301 36 19 48s29 18 49 18
c20.667 0 37.334 -6 50.001 -18s19 -28 19 -48c0 -19.333 -6.33301 -35 -19 -47s-29.334 -18 -50.001 -18c-20 0 -36.333 6 -49 18s-19 27.667 -19 47z" />
    <glyph glyph-name="oslash" unicode="&#xf8;" horiz-adv-x="553" 
d="M116 41c-25.333 23.333 -44.167 52.668 -56.5 88.001s-18.5 75.666 -18.5 120.999c0 42 5.5 79.167 16.5 111.5s26.833 59.666 47.5 81.999s45.5 39.333 74.5 51s61.167 17.5 96.5 17.5c51.333 0 94 -10 128 -30l46 71l38 -26l-47 -71
c24 -23.333 41.833 -52.5 53.5 -87.5s17.5 -74.5 17.5 -118.5c0 -84 -21.333 -148.667 -64 -194s-100 -68 -172 -68c-24 0 -46.167 2.33301 -66.5 7s-38.833 11.334 -55.5 20.001l-50 -77l-38 27zM136.999 250.002c0 -26 2.16797 -50.5 6.50098 -73.5
s11.166 -43.833 20.499 -62.5l202 311c-12 14 -26 24.667 -42 32s-34.667 11 -56 11c-40 0 -71.833 -17.667 -95.5 -53s-35.5 -90.333 -35.5 -165zM416 250.002c0 24.667 -2 48 -6 70s-10.333 42.333 -19 61l-200 -310c24 -26 58 -39 102 -39c36 0 65.5 17.667 88.5 53
s34.5 90.333 34.5 165z" />
    <glyph glyph-name="ugrave" unicode="&#xf9;" horiz-adv-x="574" 
d="M77 198c0 42 1.00195 83.167 3.00195 123.5s3 80.5 3 120.5l-66 8v26c21.333 8 43.166 15 65.499 21s44.166 11 65.499 15h25c0 -50 -1 -99.667 -3 -149s-3 -98.333 -3 -147c0 -26 1.5 -49.333 4.5 -70s8.33301 -38 16 -52s18.167 -24.833 31.5 -32.5
s30.333 -11.5 51 -11.5c30 0 55.167 10.833 75.5 32.5s36.166 49.834 47.499 84.501v275l-65 8v26c20.667 8 42.167 15 64.5 21s44.166 11 65.499 15h25v-455l66 -8v-21c-19.333 -8.66699 -38.833 -16.334 -58.5 -23.001s-40.167 -11.667 -61.5 -15h-25l-7 119h-4
c-3.33301 -14 -9.16602 -28.167 -17.499 -42.5s-19.166 -27.333 -32.499 -39s-28.5 -21.167 -45.5 -28.5s-35.5 -11 -55.5 -11c-26.667 0 -50.167 3.16699 -70.5 9.5s-37.5 17.5 -51.5 33.5s-24.667 37.5 -32 64.5s-11 61.167 -11 102.5zM351.002 593l-22.001 -17l-186 149
v20c4 3.33301 10.5 6.5 19.5 9.5s18.833 5.5 29.5 7.5s20.834 3.5 30.501 4.5s17.167 1.16699 22.5 0.5z" />
    <glyph glyph-name="uacute" unicode="&#xfa;" horiz-adv-x="574" 
d="M77 198c0 42 1.00195 83.167 3.00195 123.5s3 80.5 3 120.5l-66 8v26c21.333 8 43.166 15 65.499 21s44.166 11 65.499 15h25c0 -50 -1 -99.667 -3 -149s-3 -98.333 -3 -147c0 -26 1.5 -49.333 4.5 -70s8.33301 -38 16 -52s18.167 -24.833 31.5 -32.5
s30.333 -11.5 51 -11.5c30 0 55.167 10.833 75.5 32.5s36.166 49.834 47.499 84.501v275l-65 8v26c20.667 8 42.167 15 64.5 21s44.166 11 65.499 15h25v-455l66 -8v-21c-19.333 -8.66699 -38.833 -16.334 -58.5 -23.001s-40.167 -11.667 -61.5 -15h-25l-7 119h-4
c-3.33301 -14 -9.16602 -28.167 -17.499 -42.5s-19.166 -27.333 -32.499 -39s-28.5 -21.167 -45.5 -28.5s-35.5 -11 -55.5 -11c-26.667 0 -50.167 3.16699 -70.5 9.5s-37.5 17.5 -51.5 33.5s-24.667 37.5 -32 64.5s-11 61.167 -11 102.5zM338.002 767
c5.33301 0.666992 12.333 0.5 21 -0.5s17.667 -2.5 27 -4.5s18 -4.5 26 -7.5s14 -6.16699 18 -9.5v-19l-187 -151l-22 18z" />
    <glyph glyph-name="ucircumflex" unicode="&#xfb;" horiz-adv-x="574" 
d="M77 198c0 42 1.00195 83.167 3.00195 123.5s3 80.5 3 120.5l-66 8v26c21.333 8 43.166 15 65.499 21s44.166 11 65.499 15h25c0 -50 -1 -99.667 -3 -149s-3 -98.333 -3 -147c0 -26 1.5 -49.333 4.5 -70s8.33301 -38 16 -52s18.167 -24.833 31.5 -32.5
s30.333 -11.5 51 -11.5c30 0 55.167 10.833 75.5 32.5s36.166 49.834 47.499 84.501v275l-65 8v26c20.667 8 42.167 15 64.5 21s44.166 11 65.499 15h25v-455l66 -8v-21c-19.333 -8.66699 -38.833 -16.334 -58.5 -23.001s-40.167 -11.667 -61.5 -15h-25l-7 119h-4
c-3.33301 -14 -9.16602 -28.167 -17.499 -42.5s-19.166 -27.333 -32.499 -39s-28.5 -21.167 -45.5 -28.5s-35.5 -11 -55.5 -11c-26.667 0 -50.167 3.16699 -70.5 9.5s-37.5 17.5 -51.5 33.5s-24.667 37.5 -32 64.5s-11 61.167 -11 102.5zM190.002 590l-29 16.001l110 186
c3.33301 2 7.5 3.16699 12.5 3.5s9.16699 -0.833984 12.5 -3.50098l114 -185l-27 -17l-103 107z" />
    <glyph glyph-name="udieresis" unicode="&#xfc;" horiz-adv-x="574" 
d="M77 198c0 42 1.00195 83.167 3.00195 123.5s3 80.5 3 120.5l-66 8v26c21.333 8 43.166 15 65.499 21s44.166 11 65.499 15h25c0 -50 -1 -99.667 -3 -149s-3 -98.333 -3 -147c0 -26 1.5 -49.333 4.5 -70s8.33301 -38 16 -52s18.167 -24.833 31.5 -32.5
s30.333 -11.5 51 -11.5c30 0 55.167 10.833 75.5 32.5s36.166 49.834 47.499 84.501v275l-65 8v26c20.667 8 42.167 15 64.5 21s44.166 11 65.499 15h25v-455l66 -8v-21c-19.333 -8.66699 -38.833 -16.334 -58.5 -23.001s-40.167 -11.667 -61.5 -15h-25l-7 119h-4
c-3.33301 -14 -9.16602 -28.167 -17.499 -42.5s-19.166 -27.333 -32.499 -39s-28.5 -21.167 -45.5 -28.5s-35.5 -11 -55.5 -11c-26.667 0 -50.167 3.16699 -70.5 9.5s-37.5 17.5 -51.5 33.5s-24.667 37.5 -32 64.5s-11 61.167 -11 102.5zM121.002 663c0 16 5 28.833 15 38.5
s23 14.5 39 14.5s29 -4.83301 39 -14.5s15 -22.5 15 -38.5c0 -15.333 -5 -27.666 -15 -36.999s-23 -14 -39 -14s-29 4.66699 -39 14s-15 21.666 -15 36.999zM343.002 663c0 16 5 28.833 15 38.5s23 14.5 39 14.5s29 -4.83301 39 -14.5s15 -22.5 15 -38.5
c0 -15.333 -5 -27.666 -15 -36.999s-23 -14 -39 -14s-29 4.66699 -39 14s-15 21.666 -15 36.999z" />
    <glyph glyph-name="yacute" unicode="&#xfd;" horiz-adv-x="505" 
d="M42 450c-10 2.66699 -19.168 6 -27.501 10s-16.833 8.66699 -25.5 14v26h209v-25c-14 -9.33301 -33 -17.666 -57 -24.999l128 -296l19 -62h2l15 63l95 295c-20 4 -38.333 12 -55 24v26h171v-26c-14 -9.33301 -33 -17.333 -57 -24l-156 -450
c-16 -42.667 -31.167 -77.167 -45.5 -103.5s-28.666 -47.166 -42.999 -62.499s-29 -26.5 -44 -33.5s-31.167 -12.167 -48.5 -15.5c-7.33301 12.667 -13.833 26.667 -19.5 42s-10.5 30 -14.5 44l13 24h104c4 5.33301 7.5 10.5 10.5 15.5s6.16699 11.167 9.5 18.5
s7 16.666 11 27.999s8.66699 25.666 14 42.999zM314.999 767c5.33301 0.666992 12.333 0.5 21 -0.5s17.667 -2.5 27 -4.5s18 -4.5 26 -7.5s14 -6.16699 18 -9.5v-19l-187 -151l-22 18z" />
    <glyph glyph-name="thorn" unicode="&#xfe;" horiz-adv-x="566" 
d="M95 682l-76.001 8v26c17.333 8 39 15 65 21s51.333 11 76 15h25v-352h1c13.333 34 32 61.167 56 81.5s55.333 30.5 94 30.5c59.333 0 105.333 -19.667 138 -59s49 -103.333 49 -192c0 -42 -5.5 -80 -16.5 -114s-26.667 -62.667 -47 -86s-45 -41.333 -74 -54
s-61.167 -19 -96.5 -19c-24.667 0 -44 1.5 -58 4.5s-29.333 8.16699 -46 15.5v-159c10.667 -1.33301 21.334 -3.83301 32.001 -7.5s22 -9.16699 34 -16.5v-25h-222v25c22.667 10.667 44.667 18.667 66 24v833zM303.999 450c-32.667 0 -58.665 -10.334 -77.998 -31.001
s-33 -49 -41 -85v-280c12 -7.33301 25.5 -12.833 40.5 -16.5s34.5 -5.5 58.5 -5.5c22 0 41.833 5.66699 59.5 17s32.667 27.333 45 48s21.833 44.834 28.5 72.501s10 58.167 10 91.5c0 27.333 -2.16699 52.5 -6.5 75.5s-11.333 43 -21 60s-22.334 30.167 -38.001 39.5
s-34.834 14 -57.501 14z" />
    <glyph glyph-name="ydieresis" unicode="&#xff;" horiz-adv-x="505" 
d="M42 450c-10 2.66699 -19.168 6 -27.501 10s-16.833 8.66699 -25.5 14v26h209v-25c-14 -9.33301 -33 -17.666 -57 -24.999l128 -296l19 -62h2l15 63l95 295c-20 4 -38.333 12 -55 24v26h171v-26c-14 -9.33301 -33 -17.333 -57 -24l-156 -450
c-16 -42.667 -31.167 -77.167 -45.5 -103.5s-28.666 -47.166 -42.999 -62.499s-29 -26.5 -44 -33.5s-31.167 -12.167 -48.5 -15.5c-7.33301 12.667 -13.833 26.667 -19.5 42s-10.5 30 -14.5 44l13 24h104c4 5.33301 7.5 10.5 10.5 15.5s6.16699 11.167 9.5 18.5
s7 16.666 11 27.999s8.66699 25.666 14 42.999zM97.999 663c0 16 5 28.833 15 38.5s23 14.5 39 14.5s29 -4.83301 39 -14.5s15 -22.5 15 -38.5c0 -15.333 -5 -27.666 -15 -36.999s-23 -14 -39 -14s-29 4.66699 -39 14s-15 21.666 -15 36.999zM319.999 663
c0 16 5 28.833 15 38.5s23 14.5 39 14.5s29 -4.83301 39 -14.5s15 -22.5 15 -38.5c0 -15.333 -5 -27.666 -15 -36.999s-23 -14 -39 -14s-29 4.66699 -39 14s-15 21.666 -15 36.999z" />
    <glyph glyph-name="Amacron" unicode="&#x100;" horiz-adv-x="683" 
d="M222 0h-222v29c24 10.667 48 18.667 72 24l253 659h29l253 -659c13.333 -2.66699 26.5 -5.66699 39.5 -9s25.167 -8.33301 36.5 -15v-29h-256v29c13.333 5.33301 27 10 41 14s27.667 7.33301 41 10l-68 183h-239l-66 -183c28 -4 56.667 -12 86 -24v-29zM222 288h202
l-79 212l-19 86h-2l-25 -88zM192 788v52h301v-52h-301z" />
    <glyph glyph-name="amacron" unicode="&#x101;" horiz-adv-x="505" 
d="M410 131c0 -14.667 0.333008 -27.3291 1 -37.9961s1.33398 -22 2.00098 -34l69 -10v-21c-16.667 -8.66699 -35.167 -16.334 -55.5 -23.001s-39.833 -11.667 -58.5 -15h-25c-6.66699 15.333 -10.667 32.166 -12 50.499s-2.33301 38.5 -3 60.5h-5
c-2.66699 -13.333 -7.83398 -26.833 -15.501 -40.5s-17.667 -25.834 -30 -36.501s-26.833 -19.334 -43.5 -26.001s-35.667 -10 -57 -10c-40.667 0 -73.834 12.333 -99.501 37s-38.5 57 -38.5 97c0 30.667 6.16699 55.834 18.5 75.501s30.5 35.167 54.5 46.5
s53.667 19.5 89 24.5s76.333 8.83301 123 11.5c2.66699 28.667 3.5 54.5 2.5 77.5s-4.66699 42.667 -11 59s-15.666 29 -27.999 38s-28.5 13.5 -48.5 13.5c-9.33301 0 -19.833 -0.5 -31.5 -1.5s-23.167 -3.83301 -34.5 -8.5l-47 -120h-26c-6.66699 20 -12.5 40.667 -17.5 62
s-8.16699 42.333 -9.5 63c25.333 15.333 53.5 27.333 84.5 36s65.5 13 103.5 13c34 0 61.167 -4.83301 81.5 -14.5s35.833 -22.167 46.5 -37.5s17.667 -32.333 21 -51s5 -37.334 5 -56.001c0 -40 -0.833008 -78.5 -2.5 -115.5s-2.5 -72.5 -2.5 -106.5zM217 50.0049
c16.667 0 31.333 3.33301 44 10s23.334 14.667 32.001 24s15.667 18.833 21 28.5s9 17.834 11 24.501v105c-38.667 0 -70.334 -2 -95.001 -6s-44 -10.333 -58 -19s-23.667 -19.5 -29 -32.5s-8 -27.833 -8 -44.5c0 -28.667 7.33301 -50.834 22 -66.501s34.667 -23.5 60 -23.5
zM124.999 637.005v52h253v-52h-253z" />
    <glyph glyph-name="Abreve" unicode="&#x102;" horiz-adv-x="683" 
d="M222 0h-222v29c24 10.667 48 18.667 72 24l253 659h29l253 -659c13.333 -2.66699 26.5 -5.66699 39.5 -9s25.167 -8.33301 36.5 -15v-29h-256v29c13.333 5.33301 27 10 41 14s27.667 7.33301 41 10l-68 183h-239l-66 -183c28 -4 56.667 -12 86 -24v-29zM222 288h202
l-79 212l-19 86h-2l-25 -88zM461 883c10.667 1.33301 21.333 -3.33301 32 -14c-6 -14.667 -13.833 -28.667 -23.5 -42s-21 -25 -34 -35s-27.167 -18 -42.5 -24s-31.333 -9 -48 -9c-36 0 -67.5 9.66699 -94.5 29s-46.833 47 -59.5 83c8 12.667 22 17.667 42 15
c4.66699 -8 11.167 -15.5 19.5 -22.5s17.833 -13 28.5 -18s21.667 -9 33 -12s22 -4.5 32 -4.5c21.333 -0.666992 42.5 3 63.5 11s38.167 22.333 51.5 43z" />
    <glyph glyph-name="abreve" unicode="&#x103;" horiz-adv-x="505" 
d="M410 131c0 -14.667 0.333008 -27.3291 1 -37.9961s1.33398 -22 2.00098 -34l69 -10v-21c-16.667 -8.66699 -35.167 -16.334 -55.5 -23.001s-39.833 -11.667 -58.5 -15h-25c-6.66699 15.333 -10.667 32.166 -12 50.499s-2.33301 38.5 -3 60.5h-5
c-2.66699 -13.333 -7.83398 -26.833 -15.501 -40.5s-17.667 -25.834 -30 -36.501s-26.833 -19.334 -43.5 -26.001s-35.667 -10 -57 -10c-40.667 0 -73.834 12.333 -99.501 37s-38.5 57 -38.5 97c0 30.667 6.16699 55.834 18.5 75.501s30.5 35.167 54.5 46.5
s53.667 19.5 89 24.5s76.333 8.83301 123 11.5c2.66699 28.667 3.5 54.5 2.5 77.5s-4.66699 42.667 -11 59s-15.666 29 -27.999 38s-28.5 13.5 -48.5 13.5c-9.33301 0 -19.833 -0.5 -31.5 -1.5s-23.167 -3.83301 -34.5 -8.5l-47 -120h-26c-6.66699 20 -12.5 40.667 -17.5 62
s-8.16699 42.333 -9.5 63c25.333 15.333 53.5 27.333 84.5 36s65.5 13 103.5 13c34 0 61.167 -4.83301 81.5 -14.5s35.833 -22.167 46.5 -37.5s17.667 -32.333 21 -51s5 -37.334 5 -56.001c0 -40 -0.833008 -78.5 -2.5 -115.5s-2.5 -72.5 -2.5 -106.5zM217 50.0049
c16.667 0 31.333 3.33301 44 10s23.334 14.667 32.001 24s15.667 18.833 21 28.5s9 17.834 11 24.501v105c-38.667 0 -70.334 -2 -95.001 -6s-44 -10.333 -58 -19s-23.667 -19.5 -29 -32.5s-8 -27.833 -8 -44.5c0 -28.667 7.33301 -50.834 22 -66.501s34.667 -23.5 60 -23.5
zM387.999 719.005c-6 -14.667 -13.166 -29.333 -21.499 -44s-18.166 -27.667 -29.499 -39s-23.833 -20.666 -37.5 -27.999s-28.834 -11 -45.501 -11c-18 0 -34 3.16699 -48 9.5s-26.667 15 -38 26s-21.333 24 -30 39s-16 31.5 -22 49.5l28 13
c4.66699 -8.66699 11.167 -16.834 19.5 -24.501s17.5 -14.5 27.5 -20.5s20.667 -10.833 32 -14.5s22 -5.5 32 -5.5c45.333 -1.33301 81.666 19 108.999 61z" />
    <glyph glyph-name="Aogonek" unicode="&#x104;" horiz-adv-x="683" 
d="M222 0l-222 0.000976562v29c24 10.667 48 18.667 72 24l253 659h29l253 -659c13.333 -2.66699 26.5 -5.66699 39.5 -9s25.167 -8.33301 36.5 -15v-29h-42c-28.667 -16 -52.667 -35.167 -72 -57.5s-29 -48.166 -29 -77.499c0 -18.667 6 -34 18 -46s28.333 -18 49 -18
s39 2 55 6v-29c-9.33301 -7.33301 -21.333 -14 -36 -20s-33 -9 -55 -9c-15.333 0 -29.833 2.33301 -43.5 7s-25.667 11.334 -36 20.001s-18.5 19.167 -24.5 31.5s-9 25.833 -9 40.5c0 17.333 3.16699 33.166 9.5 47.499s15.166 27.666 26.499 39.999
s24.833 23.666 40.5 33.999s32.834 20.5 51.501 30.5h-159v29c13.333 5.33301 27 10 41 14s27.667 7.33301 41 10l-68 183h-239l-66 -183c28 -4 56.667 -12 86 -24v-29zM222 288.001h202l-79 212l-19 86h-2l-25 -88z" />
    <glyph glyph-name="aogonek" unicode="&#x105;" horiz-adv-x="505" 
d="M410 131c0 -14.667 0.334961 -27.3301 1.00195 -37.9971s1.33398 -22 2.00098 -34l69 -10v-21c-4.66699 -2.66699 -9.33398 -5 -14.001 -7s-9.66699 -4 -15 -6c-29.333 -15.333 -53.833 -33.833 -73.5 -55.5s-29.5 -47.5 -29.5 -77.5c0 -6.66699 1.16699 -13.5 3.5 -20.5
s5.83301 -13.5 10.5 -19.5s10.667 -10.833 18 -14.5s16 -5.5 26 -5.5c9.33301 0 18.166 0.833008 26.499 2.5s17.166 3.83398 26.499 6.50098v-33c-9.33301 -5.33301 -21.166 -10 -35.499 -14s-27.5 -6 -39.5 -6c-40 0 -70 8.33301 -90 25s-30 37.667 -30 63
c0 26.667 8.66699 50.167 26 70.5s40 38.166 68 53.499h-8h-9c-6.66699 15.333 -10.667 32.166 -12 50.499s-2.33301 38.5 -3 60.5h-5c-2.66699 -13.333 -7.83398 -26.833 -15.501 -40.5s-17.667 -25.834 -30 -36.501s-26.833 -19.334 -43.5 -26.001s-35.667 -10 -57 -10
c-40.667 0 -73.834 12.333 -99.501 37s-38.5 57 -38.5 97c0 30.667 6.16699 55.834 18.5 75.501s30.5 35.167 54.5 46.5s53.667 19.5 89 24.5s76.333 8.83301 123 11.5c2.66699 28.667 3.5 54.5 2.5 77.5s-4.66699 42.667 -11 59s-15.666 29 -27.999 38
s-28.5 13.5 -48.5 13.5c-9.33301 0 -19.833 -0.5 -31.5 -1.5s-23.167 -3.83301 -34.5 -8.5l-47 -120h-26c-6.66699 20 -12.5 40.667 -17.5 62s-8.16699 42.333 -9.5 63c25.333 15.333 53.5 27.333 84.5 36s65.5 13 103.5 13c34 0 61.167 -4.83301 81.5 -14.5
s35.833 -22.167 46.5 -37.5s17.667 -32.333 21 -51s5 -37.334 5 -56.001c0 -40 -0.833008 -78.5 -2.5 -115.5s-2.5 -72.5 -2.5 -106.5zM217.002 50.0039c16.667 0 31.333 3.33301 44 10s23.334 14.667 32.001 24s15.667 18.833 21 28.5s9 17.834 11 24.501v105
c-38.667 0 -70.334 -2 -95.001 -6s-44 -10.333 -58 -19s-23.667 -19.5 -29 -32.5s-8 -27.833 -8 -44.5c0 -28.667 7.33301 -50.834 22 -66.501s34.667 -23.5 60 -23.5z" />
    <glyph glyph-name="Cacute" unicode="&#x106;" horiz-adv-x="644" 
d="M547 182l25.9932 -0.000976562c3.33301 -18.667 6.33301 -42.167 9 -70.5s3.33398 -55.833 2.00098 -82.5c-10 -8 -22 -14.5 -36 -19.5s-28.833 -9.16699 -44.5 -12.5s-31.667 -5.66602 -48 -6.99902s-31.833 -2 -46.5 -2c-56 0 -106 7.16699 -150 21.5
s-81.167 36.166 -111.5 65.499s-53.666 66.833 -69.999 112.5s-24.5 99.834 -24.5 162.501c0 65.333 9 120.833 27 166.5s42.333 83 73 112s66.334 50.167 107.001 63.5s83.334 20 128.001 20c44 0 81 -2.83301 111 -8.5s56.333 -14.167 79 -25.5
c0 -10.667 -0.333008 -23.167 -1 -37.5s-1.66699 -29.5 -3 -45.5s-3 -31.667 -5 -47s-4 -29.333 -6 -42h-26l-52 144c-7.33301 4 -19.5 6.66699 -36.5 8s-33.833 2 -50.5 2c-33.333 0 -64.833 -6.16699 -94.5 -18.5s-55.667 -31.333 -78 -57s-40.166 -58 -53.499 -97
s-20 -84.833 -20 -137.5c0 -47.333 6 -90.166 18 -128.499s29.333 -71 52 -98s50.334 -47.667 83.001 -62s69.667 -21.5 111 -21.5c22 0 40.333 1.66699 55 5s24.334 7.66602 29.001 12.999zM439.993 892.999c6 0.666992 13.667 0.333008 23 -1s18.833 -3.5 28.5 -6.5
s18.667 -6.66699 27 -11s14.5 -8.83301 18.5 -13.5v-20l-226 -91l-17 19z" />
    <glyph glyph-name="cacute" unicode="&#x107;" horiz-adv-x="466" 
d="M427 70c-12 -23.333 -31.5 -42.832 -58.5 -58.499s-58.5 -23.5 -94.5 -23.5c-39.333 0 -73.5 6.16699 -102.5 18.5s-53.167 30 -72.5 53s-33.833 50.667 -43.5 83s-14.5 68.166 -14.5 107.499c0 84.667 20.667 149.5 62 194.5s97.666 67.5 168.999 67.5
c32.667 0 61.834 -2.83301 87.501 -8.5s47.5 -13.167 65.5 -22.5c-2 -22 -5.66699 -46.667 -11 -74s-12 -50 -20 -68h-27l-42 119c-4.66699 3.33301 -10 5.83301 -16 7.5s-16 2.5 -30 2.5c-45.333 0 -80.333 -16.5 -105 -49.5s-37 -88.833 -37 -167.5
c0 -25.333 3.5 -50 10.5 -74s17.667 -45.5 32 -64.5s32.333 -34.167 54 -45.5s46.834 -17 75.501 -17c23.333 0 43.666 3.33301 60.999 10s32 14.667 44 24zM315 767.001c5.33301 0.666992 12.333 0.5 21 -0.5s17.667 -2.5 27 -4.5s18 -4.5 26 -7.5s14 -6.16699 18 -9.5v-19
l-187 -151l-22 18z" />
    <glyph glyph-name="Ccircumflex" unicode="&#x108;" horiz-adv-x="644" 
d="M547 182l25.9932 -0.000976562c3.33301 -18.667 6.33301 -42.167 9 -70.5s3.33398 -55.833 2.00098 -82.5c-10 -8 -22 -14.5 -36 -19.5s-28.833 -9.16699 -44.5 -12.5s-31.667 -5.66602 -48 -6.99902s-31.833 -2 -46.5 -2c-56 0 -106 7.16699 -150 21.5
s-81.167 36.166 -111.5 65.499s-53.666 66.833 -69.999 112.5s-24.5 99.834 -24.5 162.501c0 65.333 9 120.833 27 166.5s42.333 83 73 112s66.334 50.167 107.001 63.5s83.334 20 128.001 20c44 0 81 -2.83301 111 -8.5s56.333 -14.167 79 -25.5
c0 -10.667 -0.333008 -23.167 -1 -37.5s-1.66699 -29.5 -3 -45.5s-3 -31.667 -5 -47s-4 -29.333 -6 -42h-26l-52 144c-7.33301 4 -19.5 6.66699 -36.5 8s-33.833 2 -50.5 2c-33.333 0 -64.833 -6.16699 -94.5 -18.5s-55.667 -31.333 -78 -57s-40.166 -58 -53.499 -97
s-20 -84.833 -20 -137.5c0 -47.333 6 -90.166 18 -128.499s29.333 -71 52 -98s50.334 -47.667 83.001 -62s69.667 -21.5 111 -21.5c22 0 40.333 1.66699 55 5s24.334 7.66602 29.001 12.999zM245.993 751.999l-14 19.001l127 112c3.33301 2 7.5 3.16699 12.5 3.5
s9.5 -0.833984 13.5 -3.50098l125 -109l-15 -21l-127 56z" />
    <glyph glyph-name="ccircumflex" unicode="&#x109;" horiz-adv-x="466" 
d="M427 70c-12 -23.333 -31.5 -42.832 -58.5 -58.499s-58.5 -23.5 -94.5 -23.5c-39.333 0 -73.5 6.16699 -102.5 18.5s-53.167 30 -72.5 53s-33.833 50.667 -43.5 83s-14.5 68.166 -14.5 107.499c0 84.667 20.667 149.5 62 194.5s97.666 67.5 168.999 67.5
c32.667 0 61.834 -2.83301 87.501 -8.5s47.5 -13.167 65.5 -22.5c-2 -22 -5.66699 -46.667 -11 -74s-12 -50 -20 -68h-27l-42 119c-4.66699 3.33301 -10 5.83301 -16 7.5s-16 2.5 -30 2.5c-45.333 0 -80.333 -16.5 -105 -49.5s-37 -88.833 -37 -167.5
c0 -25.333 3.5 -50 10.5 -74s17.667 -45.5 32 -64.5s32.333 -34.167 54 -45.5s46.834 -17 75.501 -17c23.333 0 43.666 3.33301 60.999 10s32 14.667 44 24zM167 590.001l-29 16.001l110 186c3.33301 2 7.5 3.16699 12.5 3.5s9.16699 -0.833984 12.5 -3.50098l114 -185
l-27 -17l-103 107z" />
    <glyph glyph-name="Ccaron" unicode="&#x10c;" horiz-adv-x="644" 
d="M547 182l25.9932 -0.000976562c3.33301 -18.667 6.33301 -42.167 9 -70.5s3.33398 -55.833 2.00098 -82.5c-10 -8 -22 -14.5 -36 -19.5s-28.833 -9.16699 -44.5 -12.5s-31.667 -5.66602 -48 -6.99902s-31.833 -2 -46.5 -2c-56 0 -106 7.16699 -150 21.5
s-81.167 36.166 -111.5 65.499s-53.666 66.833 -69.999 112.5s-24.5 99.834 -24.5 162.501c0 65.333 9 120.833 27 166.5s42.333 83 73 112s66.334 50.167 107.001 63.5s83.334 20 128.001 20c44 0 81 -2.83301 111 -8.5s56.333 -14.167 79 -25.5
c0 -10.667 -0.333008 -23.167 -1 -37.5s-1.66699 -29.5 -3 -45.5s-3 -31.667 -5 -47s-4 -29.333 -6 -42h-26l-52 144c-7.33301 4 -19.5 6.66699 -36.5 8s-33.833 2 -50.5 2c-33.333 0 -64.833 -6.16699 -94.5 -18.5s-55.667 -31.333 -78 -57s-40.166 -58 -53.499 -97
s-20 -84.833 -20 -137.5c0 -47.333 6 -90.166 18 -128.499s29.333 -71 52 -98s50.334 -47.667 83.001 -62s69.667 -21.5 111 -21.5c22 0 40.333 1.66699 55 5s24.334 7.66602 29.001 12.999zM498.993 887.999c5.33301 0 10.3311 -1.66797 14.998 -5.00098s8 -7.33301 10 -12
l-127 -112c-3.33301 -1.33301 -7.5 -2.16602 -12.5 -2.49902s-9.5 0.5 -13.5 2.5l-125 109c2.66699 4.66699 5.83398 9.16699 9.50098 13.5s8.83398 6.5 15.501 6.5l117 -55z" />
    <glyph glyph-name="ccaron" unicode="&#x10d;" horiz-adv-x="466" 
d="M427 70c-12 -23.333 -31.5 -42.832 -58.5 -58.499s-58.5 -23.5 -94.5 -23.5c-39.333 0 -73.5 6.16699 -102.5 18.5s-53.167 30 -72.5 53s-33.833 50.667 -43.5 83s-14.5 68.166 -14.5 107.499c0 84.667 20.667 149.5 62 194.5s97.666 67.5 168.999 67.5
c32.667 0 61.834 -2.83301 87.501 -8.5s47.5 -13.167 65.5 -22.5c-2 -22 -5.66699 -46.667 -11 -74s-12 -50 -20 -68h-27l-42 119c-4.66699 3.33301 -10 5.83301 -16 7.5s-16 2.5 -30 2.5c-45.333 0 -80.333 -16.5 -105 -49.5s-37 -88.833 -37 -167.5
c0 -25.333 3.5 -50 10.5 -74s17.667 -45.5 32 -64.5s32.333 -34.167 54 -45.5s46.834 -17 75.501 -17c23.333 0 43.666 3.33301 60.999 10s32 14.667 44 24zM359 796.001c6 0.666992 11.8311 -0.666016 17.498 -3.99902s9.5 -7.33301 11.5 -12l-124 -185
c-3.33301 -1.33301 -7.33301 -2.16602 -12 -2.49902s-9 0.5 -13 2.5l-121 184c2.66699 5.33301 7.33398 9.66602 14.001 12.999s13.334 4.66602 20.001 3.99902l107 -106z" />
    <glyph glyph-name="Dcaron" unicode="&#x10e;" horiz-adv-x="708" 
d="M29 0l0.00292969 29.002c23.333 10.667 50.666 18.667 81.999 24v593c-15.333 3.33301 -30 7.16602 -44 11.499s-26.667 8.83301 -38 13.5v29h102c11.333 0 24.666 0.333008 39.999 1s31.166 1.5 47.499 2.5s32 2 47 3s27.5 1.5 37.5 1.5
c113.333 0 200.5 -30.333 261.5 -91s91.5 -146.667 91.5 -258c0 -52.667 -7.5 -101.5 -22.5 -146.5s-37.833 -83.833 -68.5 -116.5s-69.5 -58.334 -116.5 -77.001s-102.5 -28 -166.5 -28c-10 0 -21.333 0.5 -34 1.5s-26 2 -40 3s-28.167 2 -42.5 3s-27.833 1.5 -40.5 1.5
h-96zM289.003 656.002c-17.333 0 -34 -0.167969 -50 -0.500977s-28.667 -1.5 -38 -3.5v-606c3.33301 -0.666992 9.33301 -1.16699 18 -1.5s18 -0.666016 28 -0.999023s19.5 -0.5 28.5 -0.5h19.5c46 0 85 8.66699 117 26s58.167 40.5 78.5 69.5s35.166 62.5 44.499 100.5
s14 78 14 120c0 32.667 -4.5 66.5 -13.5 101.5s-23.667 67 -44 96s-47.166 52.833 -80.499 71.5s-74 28 -122 28zM412.003 888.001c5.33301 0 10.3311 -1.66797 14.998 -5.00098s8 -7.33301 10 -12l-127 -112c-3.33301 -1.33301 -7.5 -2.16602 -12.5 -2.49902
s-9.5 0.5 -13.5 2.5l-125 109c2.66699 4.66699 5.83398 9.16699 9.50098 13.5s8.83398 6.5 15.501 6.5l117 -55z" />
    <glyph glyph-name="dcaron" unicode="&#x10f;" horiz-adv-x="555" 
d="M373 99c-3.33301 -14.667 -9.00098 -28.667 -17.001 -42s-17.833 -25.166 -29.5 -35.499s-25 -18.5 -40 -24.5s-31.167 -9 -48.5 -9c-66 0 -115.333 21 -148 63s-49 107.333 -49 196c0 85.333 20.833 150.333 62.5 195s97.834 67 168.501 67
c24.667 0 44 -1.16699 58 -3.5s29.333 -6.5 46 -12.5v189l-76 8v26c19.333 8 41.833 15 67.5 21s50.167 11 73.5 15h25v-695l66 -8v-21c-19.333 -9.33301 -39.333 -17.333 -60 -24s-41 -11.334 -61 -14.001h-25l-9 109h-4zM257.999 50c32.667 0 58.667 10.332 78 30.999
s32.666 48.667 39.999 84v282c-11.333 6.66699 -24.666 11.334 -39.999 14.001s-35 4 -59 4c-45.333 0 -80 -19.833 -104 -59.5s-36 -92.5 -36 -158.5c0 -27.333 2.33301 -52.833 7 -76.5s12 -44.5 22 -62.5s22.5 -32.167 37.5 -42.5s33.167 -15.5 54.5 -15.5z
M506.999 542.999c14 30 24.665 62.499 31.998 97.499s11 66.167 11 93.5l12 16c4.66699 0.666992 10.834 0.5 18.501 -0.5s15.5 -2.66699 23.5 -5s15.5 -5 22.5 -8s12.5 -6.16699 16.5 -9.5c-3.33301 -18.667 -9.16602 -37.5 -17.499 -56.5s-18 -37.167 -29 -54.5
s-22.667 -33.166 -35 -47.499s-23.833 -26.5 -34.5 -36.5z" />
    <glyph glyph-name="Dcroat" unicode="&#x110;" horiz-adv-x="709" 
d="M22 384l89.002 0.00195312v262c-15.333 3.33301 -30 7.16602 -44 11.499s-26.667 8.83301 -38 13.5v29h102c11.333 0 24.666 0.333008 39.999 1s31.166 1.5 47.499 2.5s32 2 47 3s27.5 1.5 37.5 1.5c56.667 0 106.834 -7.83301 150.501 -23.5s80.5 -38.334 110.5 -68.001
s52.833 -66.167 68.5 -109.5s23.5 -92.666 23.5 -147.999c0 -52.667 -7.5 -101.5 -22.5 -146.5s-37.833 -83.833 -68.5 -116.5s-69.5 -58.334 -116.5 -77.001s-102.5 -28 -166.5 -28c-9.33301 0 -20.5 0.5 -33.5 1.5s-26.5 2 -40.5 3s-28.167 2 -42.5 3
s-27.833 1.5 -40.5 1.5h-96v29c23.333 10.667 50.666 18.667 81.999 24v279h-89v52zM289.002 656.002c-17.333 0 -34 -0.167969 -50 -0.500977s-28.667 -1.5 -38 -3.5v-268h167v-52h-167v-286c3.33301 -0.666992 9.5 -1.16699 18.5 -1.5s18.5 -0.666016 28.5 -0.999023
s19.5 -0.5 28.5 -0.5h19.5c46 0 85 8.66699 117 26s58 40.5 78 69.5s34.667 62.5 44 100.5s14 78 14 120c0 32.667 -4.5 66.5 -13.5 101.5s-23.667 67 -44 96s-47 52.833 -80 71.5s-73.833 28 -122.5 28z" />
    <glyph glyph-name="dcroat" unicode="&#x111;" horiz-adv-x="555" 
d="M223 623h152.999v59l-76 8v26c19.333 8 41.833 15 67.5 21s50.167 11 73.5 15h25v-129h92v-52h-92v-514l66 -8v-21c-19.333 -9.33301 -39.333 -17.333 -60 -24s-41 -11.334 -61 -14.001h-25l-9 109h-4c-3.33301 -14.667 -9 -28.667 -17 -42
s-17.833 -25.166 -29.5 -35.499s-25 -18.5 -40 -24.5s-31.167 -9 -48.5 -9c-66 0 -115.333 21 -148 63s-49 107.333 -49 196c0 85.333 20.833 150.333 62.5 195s97.834 67 168.501 67c24.667 0 44 -1.16699 58 -3.5s29.333 -6.5 46 -12.5v78h-153v52zM257.999 50
c32.667 0 58.667 10.332 78 30.999s32.666 48.667 39.999 84v282c-11.333 6.66699 -24.666 11.334 -39.999 14.001s-35 4 -59 4c-45.333 0 -80 -19.833 -104 -59.5s-36 -92.5 -36 -158.5c0 -27.333 2.33301 -52.833 7 -76.5s12 -44.5 22 -62.5s22.5 -32.167 37.5 -42.5
s33.167 -15.5 54.5 -15.5z" />
    <glyph glyph-name="Emacron" unicode="&#x112;" horiz-adv-x="582" 
d="M503 700c-0.666992 -26.667 -1.83203 -53.499 -3.49902 -80.499s-4.16699 -54.167 -7.5 -81.5h-26l-41 110h-218v-265h163l39 74h25c4 -66 4 -133.333 0 -202h-25l-39 76h-163v-279h230l49 120h25c4.66699 -28 8 -56.333 10 -85s2.33301 -57.667 1 -87h-493v29
c23.333 10.667 50.666 18.667 81.999 24v593c-13.333 2.66699 -27 6.16699 -41 10.5s-27.667 9.16602 -41 14.499v29h474zM151.002 788.001v52h301v-52h-301z" />
    <glyph glyph-name="emacron" unicode="&#x113;" horiz-adv-x="503" 
d="M446 70c-5.33301 -11.333 -13.668 -22.002 -25.001 -32.002s-24.333 -18.667 -39 -26s-30.667 -13.166 -48 -17.499s-35 -6.5 -53 -6.5c-39.333 0 -74 6.16699 -104 18.5s-55 30 -75 53s-35.167 50.5 -45.5 82.5s-15.5 68 -15.5 108c0 85.333 19.667 150.333 59 195
s95 67 167 67c23.333 0 46.333 -3.16699 69 -9.5s42.834 -16.833 60.501 -31.5s32 -34.167 43 -58.5s16.5 -54.5 16.5 -90.5c0 -11.333 -0.5 -22.833 -1.5 -34.5s-2.83301 -24.167 -5.5 -37.5h-312c0 -28 3.5 -54.167 10.5 -78.5s17.5 -45.5 31.5 -63.5
s31.667 -32.167 53 -42.5s46.333 -15.5 75 -15.5c23.333 0 47 3.33301 71 10s42 15.334 54 26.001zM262.998 467.998c-38 0 -67 -12.832 -87 -38.499s-32 -70.834 -36 -135.501h220c0.666992 6 1.16699 11.833 1.5 17.5s0.5 11.167 0.5 16.5c0 42.667 -8 76.667 -24 102
s-41 38 -75 38zM133.998 636.999v52h253v-52h-253z" />
    <glyph glyph-name="Edotaccent" unicode="&#x116;" horiz-adv-x="582" 
d="M503 700c-0.666992 -26.667 -1.83203 -53.499 -3.49902 -80.499s-4.16699 -54.167 -7.5 -81.5h-26l-41 110h-218v-265h163l39 74h25c4 -66 4 -133.333 0 -202h-25l-39 76h-163v-279h230l49 120h25c4.66699 -28 8 -56.333 10 -85s2.33301 -57.667 1 -87h-493v29
c23.333 10.667 50.666 18.667 81.999 24v593c-13.333 2.66699 -27 6.16699 -41 10.5s-27.667 9.16602 -41 14.499v29h474zM226.002 817.001c0 17.333 6.33301 30.666 19 39.999s28 14 46 14s33 -4.66699 45 -14s18 -22.666 18 -39.999s-6 -30.666 -18 -39.999
s-27 -14 -45 -14s-33.333 4.66699 -46 14s-19 22.666 -19 39.999z" />
    <glyph glyph-name="edotaccent" unicode="&#x117;" horiz-adv-x="503" 
d="M446 70c-5.33301 -11.333 -13.668 -22.002 -25.001 -32.002s-24.333 -18.667 -39 -26s-30.667 -13.166 -48 -17.499s-35 -6.5 -53 -6.5c-39.333 0 -74 6.16699 -104 18.5s-55 30 -75 53s-35.167 50.5 -45.5 82.5s-15.5 68 -15.5 108c0 85.333 19.667 150.333 59 195
s95 67 167 67c23.333 0 46.333 -3.16699 69 -9.5s42.834 -16.833 60.501 -31.5s32 -34.167 43 -58.5s16.5 -54.5 16.5 -90.5c0 -11.333 -0.5 -22.833 -1.5 -34.5s-2.83301 -24.167 -5.5 -37.5h-312c0 -28 3.5 -54.167 10.5 -78.5s17.5 -45.5 31.5 -63.5
s31.667 -32.167 53 -42.5s46.333 -15.5 75 -15.5c23.333 0 47 3.33301 71 10s42 15.334 54 26.001zM262.998 467.998c-38 0 -67 -12.832 -87 -38.499s-32 -70.834 -36 -135.501h220c0.666992 6 1.16699 11.833 1.5 17.5s0.5 11.167 0.5 16.5c0 42.667 -8 76.667 -24 102
s-41 38 -75 38zM195.998 669.999c0 18 5.83301 32.333 17.5 43s27.167 16 46.5 16s34.666 -5.33301 45.999 -16s17 -25 17 -43s-5.66699 -32.167 -17 -42.5s-26.666 -15.5 -45.999 -15.5s-34.833 5.16699 -46.5 15.5s-17.5 24.5 -17.5 42.5z" />
    <glyph glyph-name="Eogonek" unicode="&#x118;" horiz-adv-x="582" 
d="M503 700c-0.666992 -26.667 -1.83398 -53.4971 -3.50098 -80.4971s-4.16699 -54.167 -7.5 -81.5h-26l-41 110h-218v-265h163l39 74h25c4 -66 4 -133.333 0 -202h-25l-39 76h-163v-279h230l49 120h25c2 -8.66699 3.83301 -20.834 5.5 -36.501s3 -32.167 4 -49.5
s1.5 -33.833 1.5 -49.5v-36.5h-44c-28 -16 -51.833 -35.167 -71.5 -57.5s-29.5 -48.166 -29.5 -77.499c0 -18.667 6 -34 18 -46s28.667 -18 50 -18c20.667 0 39 2 55 6v-29c-9.33301 -7.33301 -21.5 -14 -36.5 -20s-33.167 -9 -54.5 -9c-15.333 0 -30 2.33301 -44 7
s-26.167 11.334 -36.5 20.001s-18.5 19.167 -24.5 31.5s-9 25.833 -9 40.5c0 17.333 3.16699 33.166 9.5 47.499s15.333 27.666 27 39.999s25.334 23.666 41.001 33.999s32.834 20.5 51.501 30.5h-395v29c23.333 10.667 50.666 18.667 81.999 24v593
c-13.333 2.66699 -27 6.16699 -41 10.5s-27.667 9.16602 -41 14.499v29h474z" />
    <glyph glyph-name="eogonek" unicode="&#x119;" horiz-adv-x="503" 
d="M446 70c-6.66699 -13.333 -17.002 -25.6709 -31.002 -37.0039s-30 -20.666 -48 -27.999c-25.333 -14.667 -46 -32.167 -62 -52.5s-24 -43.833 -24 -70.5c0 -6.66699 1 -13.5 3 -20.5s5.33301 -13.5 10 -19.5s10.667 -10.833 18 -14.5s16.333 -5.5 27 -5.5
c9.33301 0 18.166 0.833008 26.499 2.5s17.166 3.83398 26.499 6.50098v-33c-9.33301 -5.33301 -21.166 -10 -35.499 -14s-27.5 -6 -39.5 -6c-40 0 -70 8.33301 -90 25s-30 37.667 -30 63c0 26 8.33301 49 25 69s38.334 37.667 65.001 53c-81.333 0 -142.666 23 -183.999 69
s-62 110.333 -62 193c0 85.333 19.667 150.333 59 195s95 67 167 67c26.667 0 52.834 -4.16699 78.501 -12.5s47.667 -22.666 66 -42.999s31.333 -47.333 39 -81s7.16699 -75.5 -1.5 -125.5h-312c0 -28 3.5 -54.167 10.5 -78.5s17.5 -45.5 31.5 -63.5
s31.667 -32.167 53 -42.5s46.333 -15.5 75 -15.5c23.333 0 47 3.33301 71 10s42 15.334 54 26.001zM262.998 467.995c-38 0 -67 -12.832 -87 -38.499s-32 -70.834 -36 -135.501h220c4.66699 52 -0.833008 94 -16.5 126s-42.5 48 -80.5 48z" />
    <glyph glyph-name="Ecaron" unicode="&#x11a;" horiz-adv-x="582" 
d="M503 700c-0.666992 -26.667 -1.83203 -53.499 -3.49902 -80.499s-4.16699 -54.167 -7.5 -81.5h-26l-41 110h-218v-265h163l39 74h25c4 -66 4 -133.333 0 -202h-25l-39 76h-163v-279h230l49 120h25c4.66699 -28 8 -56.333 10 -85s2.33301 -57.667 1 -87h-493v29
c23.333 10.667 50.666 18.667 81.999 24v593c-13.333 2.66699 -27 6.16699 -41 10.5s-27.667 9.16602 -41 14.499v29h474zM409.002 888.001c5.33301 0 10.3311 -1.66797 14.998 -5.00098s8 -7.33301 10 -12l-127 -112c-3.33301 -1.33301 -7.5 -2.16602 -12.5 -2.49902
s-9.5 0.5 -13.5 2.5l-125 109c2.66699 4.66699 5.83398 9.16699 9.50098 13.5s8.83398 6.5 15.501 6.5l117 -55z" />
    <glyph glyph-name="ecaron" unicode="&#x11b;" horiz-adv-x="503" 
d="M446 70c-5.33301 -11.333 -13.668 -22.002 -25.001 -32.002s-24.333 -18.667 -39 -26s-30.667 -13.166 -48 -17.499s-35 -6.5 -53 -6.5c-39.333 0 -74 6.16699 -104 18.5s-55 30 -75 53s-35.167 50.5 -45.5 82.5s-15.5 68 -15.5 108c0 85.333 19.667 150.333 59 195
s95 67 167 67c23.333 0 46.333 -3.16699 69 -9.5s42.834 -16.833 60.501 -31.5s32 -34.167 43 -58.5s16.5 -54.5 16.5 -90.5c0 -11.333 -0.5 -22.833 -1.5 -34.5s-2.83301 -24.167 -5.5 -37.5h-312c0 -28 3.5 -54.167 10.5 -78.5s17.5 -45.5 31.5 -63.5
s31.667 -32.167 53 -42.5s46.333 -15.5 75 -15.5c23.333 0 47 3.33301 71 10s42 15.334 54 26.001zM262.998 467.998c-38 0 -67 -12.832 -87 -38.499s-32 -70.834 -36 -135.501h220c0.666992 6 1.16699 11.833 1.5 17.5s0.5 11.167 0.5 16.5c0 42.667 -8 76.667 -24 102
s-41 38 -75 38zM357.998 795.999c6 0.666992 11.8311 -0.666016 17.498 -3.99902s9.5 -7.33301 11.5 -12l-124 -185c-3.33301 -1.33301 -7.33301 -2.16602 -12 -2.49902s-9 0.5 -13 2.5l-121 184c2.66699 5.33301 7.33398 9.66602 14.001 12.999
s13.334 4.66602 20.001 3.99902l107 -106z" />
    <glyph glyph-name="Gcircumflex" unicode="&#x11c;" horiz-adv-x="688" 
d="M609 48c-12.667 -7.33301 -27.5029 -14.5 -44.5029 -21.5s-35 -13.333 -54 -19s-38 -10.334 -57 -14.001s-36.833 -5.5 -53.5 -5.5c-53.333 0 -101.333 7.16699 -144 21.5s-79 36.333 -109 66s-53.167 67.167 -69.5 112.5s-24.5 99.333 -24.5 162
c0 65.333 9.5 121 28.5 167s44.333 83.5 76 112.5s67.667 50 108 63s81.5 19.5 123.5 19.5c44 0 81.167 -2.83301 111.5 -8.5s56.833 -14.167 79.5 -25.5c0 -10 -0.333008 -22.333 -1 -37s-1.66699 -30 -3 -46s-3 -31.833 -5 -47.5s-4 -29.5 -6 -41.5h-26l-52 144
c-7.33301 4 -19.666 6.66699 -36.999 8s-34.333 2 -51 2c-33.333 0 -65 -6.16699 -95 -18.5s-56.167 -31.333 -78.5 -57s-40.166 -58 -53.499 -97s-20 -84.833 -20 -137.5c0 -47.333 6.5 -90 19.5 -128s31 -70.5 54 -97.5s50 -47.833 81 -62.5s64.5 -22 100.5 -22
c13.333 0 26.333 1.33301 39 4s24.334 5.83398 35.001 9.50098s19.5 7.5 26.5 11.5s11.833 7.33301 14.5 10v202c-17.333 1.33301 -33.833 4.33301 -49.5 9s-31.167 9.66699 -46.5 15v29h245v-29c-6.66699 -4.66699 -14.667 -9 -24 -13s-22 -7.66699 -38 -11v-229z
M247.997 752l-14 19.001l127 112c3.33301 2 7.5 3.16699 12.5 3.5s9.5 -0.833984 13.5 -3.50098l125 -109l-15 -21l-127 56z" />
    <glyph glyph-name="gcircumflex" unicode="&#x11d;" horiz-adv-x="526" 
d="M247 512c36 0 66.3301 -3.50488 90.9971 -10.5049s45.334 -17.833 62.001 -32.5c39.333 26.667 80.333 46 123 58c5.33301 -7.33301 9.16602 -16.333 11.499 -27s3.5 -20.667 3.5 -30l-13 -24h-105c16.667 -24 25 -55.667 25 -95c0 -48 -16.833 -87 -50.5 -117
s-82.834 -45 -147.501 -45c-12.667 0 -23 0.333008 -31 1s-17 1.66699 -27 3c-3.33301 -6 -7.16602 -12.667 -11.499 -20s-6.5 -15 -6.5 -23c0 -13.333 7.66699 -23.833 23 -31.5s34.5 -14.5 57.5 -20.5s48 -12.167 75 -18.5s52.167 -15 75.5 -26s42.833 -25.333 58.5 -43
s23.834 -40.5 24.501 -68.5c0.666992 -24 -4.83301 -45.667 -16.5 -65s-27.834 -35.5 -48.501 -48.5s-45.5 -23 -74.5 -30s-60.833 -10.5 -95.5 -10.5c-72.667 0 -127.5 12.333 -164.5 37s-55.5 55.667 -55.5 93c0 18 2.83301 33.667 8.5 47s13.834 25 24.501 35
s24 18.833 40 26.5s34.333 14.834 55 21.501c-14.667 6.66699 -26.834 15.834 -36.501 27.501s-14.5 25.834 -14.5 42.501c0 15.333 6.5 30.5 19.5 45.5s26.167 26.833 39.5 35.5c-38 10 -67.167 29 -87.5 57s-30.5 59.667 -30.5 95c0 22.667 4.33301 43.834 13 63.501
s21.334 36.834 38.001 51.501s37.334 26 62.001 34s53.334 12 86.001 12zM394.997 -81.0049c0 21.333 -7.16797 38.3311 -21.501 50.998s-32.166 23 -53.499 31s-44.333 14.667 -69 20s-47.667 11.333 -69 18c-25.333 -15.333 -42 -31.5 -50 -48.5s-12 -34.5 -12 -52.5
c0 -35.333 12.667 -61.833 38 -79.5s62 -26.5 110 -26.5c24.667 0 45.167 2.33301 61.5 7s29.333 10.834 39 18.501s16.5 16.834 20.5 27.501s6 22 6 34zM137.996 350.993c0 -16 1.83105 -31.168 5.49805 -45.501s9.66699 -26.833 18 -37.5s19.5 -19.167 33.5 -25.5
s31.333 -9.5 52 -9.5c38.667 0 66.334 11.333 83.001 34s25 50.667 25 84c0 36 -8.16699 64.5 -24.5 85.5s-44.166 31.5 -83.499 31.5c-40.667 0 -69 -10.167 -85 -30.5s-24 -49.166 -24 -86.499zM148.994 589.992l-29 16.001l110 186c3.33301 2 7.5 3.16699 12.5 3.5
s9.16699 -0.833984 12.5 -3.50098l114 -185l-27 -17l-103 107z" />
    <glyph glyph-name="Gbreve" unicode="&#x11e;" horiz-adv-x="688" 
d="M609 48c-12.667 -7.33301 -27.5029 -14.5 -44.5029 -21.5s-35 -13.333 -54 -19s-38 -10.334 -57 -14.001s-36.833 -5.5 -53.5 -5.5c-53.333 0 -101.333 7.16699 -144 21.5s-79 36.333 -109 66s-53.167 67.167 -69.5 112.5s-24.5 99.333 -24.5 162
c0 65.333 9.5 121 28.5 167s44.333 83.5 76 112.5s67.667 50 108 63s81.5 19.5 123.5 19.5c44 0 81.167 -2.83301 111.5 -8.5s56.833 -14.167 79.5 -25.5c0 -10 -0.333008 -22.333 -1 -37s-1.66699 -30 -3 -46s-3 -31.833 -5 -47.5s-4 -29.5 -6 -41.5h-26l-52 144
c-7.33301 4 -19.666 6.66699 -36.999 8s-34.333 2 -51 2c-33.333 0 -65 -6.16699 -95 -18.5s-56.167 -31.333 -78.5 -57s-40.166 -58 -53.499 -97s-20 -84.833 -20 -137.5c0 -47.333 6.5 -90 19.5 -128s31 -70.5 54 -97.5s50 -47.833 81 -62.5s64.5 -22 100.5 -22
c13.333 0 26.333 1.33301 39 4s24.334 5.83398 35.001 9.50098s19.5 7.5 26.5 11.5s11.833 7.33301 14.5 10v202c-17.333 1.33301 -33.833 4.33301 -49.5 9s-31.167 9.66699 -46.5 15v29h245v-29c-6.66699 -4.66699 -14.667 -9 -24 -13s-22 -7.66699 -38 -11v-229z
M514.997 883c10.667 1.33301 21.333 -3.33301 32 -14c-6 -14.667 -13.833 -28.667 -23.5 -42s-21 -25 -34 -35s-27.167 -18 -42.5 -24s-31.333 -9 -48 -9c-36 0 -67.5 9.66699 -94.5 29s-46.833 47 -59.5 83c8 12.667 22 17.667 42 15c4.66699 -8 11.167 -15.5 19.5 -22.5
s17.833 -13 28.5 -18s21.667 -9 33 -12s22 -4.5 32 -4.5c21.333 -0.666992 42.5 3 63.5 11s38.167 22.333 51.5 43z" />
    <glyph glyph-name="gbreve" unicode="&#x11f;" horiz-adv-x="526" 
d="M247 512c36 0 66.3301 -3.50488 90.9971 -10.5049s45.334 -17.833 62.001 -32.5c39.333 26.667 80.333 46 123 58c5.33301 -7.33301 9.16602 -16.333 11.499 -27s3.5 -20.667 3.5 -30l-13 -24h-105c16.667 -24 25 -55.667 25 -95c0 -48 -16.833 -87 -50.5 -117
s-82.834 -45 -147.501 -45c-12.667 0 -23 0.333008 -31 1s-17 1.66699 -27 3c-3.33301 -6 -7.16602 -12.667 -11.499 -20s-6.5 -15 -6.5 -23c0 -13.333 7.66699 -23.833 23 -31.5s34.5 -14.5 57.5 -20.5s48 -12.167 75 -18.5s52.167 -15 75.5 -26s42.833 -25.333 58.5 -43
s23.834 -40.5 24.501 -68.5c0.666992 -24 -4.83301 -45.667 -16.5 -65s-27.834 -35.5 -48.501 -48.5s-45.5 -23 -74.5 -30s-60.833 -10.5 -95.5 -10.5c-72.667 0 -127.5 12.333 -164.5 37s-55.5 55.667 -55.5 93c0 18 2.83301 33.667 8.5 47s13.834 25 24.501 35
s24 18.833 40 26.5s34.333 14.834 55 21.501c-14.667 6.66699 -26.834 15.834 -36.501 27.501s-14.5 25.834 -14.5 42.501c0 15.333 6.5 30.5 19.5 45.5s26.167 26.833 39.5 35.5c-38 10 -67.167 29 -87.5 57s-30.5 59.667 -30.5 95c0 22.667 4.33301 43.834 13 63.501
s21.334 36.834 38.001 51.501s37.334 26 62.001 34s53.334 12 86.001 12zM394.997 -81.0049c0 21.333 -7.16797 38.3311 -21.501 50.998s-32.166 23 -53.499 31s-44.333 14.667 -69 20s-47.667 11.333 -69 18c-25.333 -15.333 -42 -31.5 -50 -48.5s-12 -34.5 -12 -52.5
c0 -35.333 12.667 -61.833 38 -79.5s62 -26.5 110 -26.5c24.667 0 45.167 2.33301 61.5 7s29.333 10.834 39 18.501s16.5 16.834 20.5 27.501s6 22 6 34zM137.996 350.993c0 -16 1.83105 -31.168 5.49805 -45.501s9.66699 -26.833 18 -37.5s19.5 -19.167 33.5 -25.5
s31.333 -9.5 52 -9.5c38.667 0 66.334 11.333 83.001 34s25 50.667 25 84c0 36 -8.16699 64.5 -24.5 85.5s-44.166 31.5 -83.499 31.5c-40.667 0 -69 -10.167 -85 -30.5s-24 -49.166 -24 -86.499zM378.994 718.992c-6 -14.667 -13.166 -29.333 -21.499 -44
s-18.166 -27.667 -29.499 -39s-23.833 -20.666 -37.5 -27.999s-28.834 -11 -45.501 -11c-18 0 -34 3.16699 -48 9.5s-26.667 15 -38 26s-21.333 24 -30 39s-16 31.5 -22 49.5l28 13c4.66699 -8.66699 11.167 -16.834 19.5 -24.501s17.5 -14.5 27.5 -20.5
s20.667 -10.833 32 -14.5s22 -5.5 32 -5.5c45.333 -1.33301 81.666 19 108.999 61z" />
    <glyph glyph-name="Gcommaaccent" unicode="&#x122;" horiz-adv-x="688" 
d="M609 48c-12.667 -7.33301 -27.5029 -14.5 -44.5029 -21.5s-35 -13.333 -54 -19s-38 -10.334 -57 -14.001s-36.833 -5.5 -53.5 -5.5c-53.333 0 -101.333 7.16699 -144 21.5s-79 36.333 -109 66s-53.167 67.167 -69.5 112.5s-24.5 99.333 -24.5 162
c0 65.333 9.5 121 28.5 167s44.333 83.5 76 112.5s67.667 50 108 63s81.5 19.5 123.5 19.5c44 0 81.167 -2.83301 111.5 -8.5s56.833 -14.167 79.5 -25.5c0 -10 -0.333008 -22.333 -1 -37s-1.66699 -30 -3 -46s-3 -31.833 -5 -47.5s-4 -29.5 -6 -41.5h-26l-52 144
c-7.33301 4 -19.666 6.66699 -36.999 8s-34.333 2 -51 2c-33.333 0 -65 -6.16699 -95 -18.5s-56.167 -31.333 -78.5 -57s-40.166 -58 -53.499 -97s-20 -84.833 -20 -137.5c0 -47.333 6.5 -90 19.5 -128s31 -70.5 54 -97.5s50 -47.833 81 -62.5s64.5 -22 100.5 -22
c13.333 0 26.333 1.33301 39 4s24.334 5.83398 35.001 9.50098s19.5 7.5 26.5 11.5s11.833 7.33301 14.5 10v202c-17.333 1.33301 -33.833 4.33301 -49.5 9s-31.167 9.66699 -46.5 15v29h245v-29c-6.66699 -4.66699 -14.667 -9 -24 -13s-22 -7.66699 -38 -11v-229z
M318.997 -237c12 5.33301 23.8311 14.3359 35.498 27.0029s16.5 28.667 14.5 48c-7.33301 5.33301 -17.666 11.166 -30.999 17.499s-25 11.166 -35 14.499c-3.33301 10.667 -3.5 20.834 -0.5 30.501s7.5 18.5 13.5 26.5s12.833 14.333 20.5 19s15.167 7.33398 22.5 8.00098
c22.667 -2.66699 42.834 -11.334 60.501 -26.001s26.5 -36.334 26.5 -65.001c0 -32.667 -9.83301 -60.834 -29.5 -84.501s-47.167 -40.167 -82.5 -49.5z" />
    <glyph glyph-name="gcommaaccent" unicode="&#x123;" horiz-adv-x="526" 
d="M247 512c36 0 66.3301 -3.50488 90.9971 -10.5049s45.334 -17.833 62.001 -32.5c39.333 26.667 80.333 46 123 58c5.33301 -7.33301 9.16602 -16.333 11.499 -27s3.5 -20.667 3.5 -30l-13 -24h-105c16.667 -24 25 -55.667 25 -95c0 -48 -16.833 -87 -50.5 -117
s-82.834 -45 -147.501 -45c-12.667 0 -23 0.333008 -31 1s-17 1.66699 -27 3c-3.33301 -6 -7.16602 -12.667 -11.499 -20s-6.5 -15 -6.5 -23c0 -13.333 7.66699 -23.833 23 -31.5s34.5 -14.5 57.5 -20.5s48 -12.167 75 -18.5s52.167 -15 75.5 -26s42.833 -25.333 58.5 -43
s23.834 -40.5 24.501 -68.5c0.666992 -24 -4.83301 -45.667 -16.5 -65s-27.834 -35.5 -48.501 -48.5s-45.5 -23 -74.5 -30s-60.833 -10.5 -95.5 -10.5c-72.667 0 -127.5 12.333 -164.5 37s-55.5 55.667 -55.5 93c0 18 2.83301 33.667 8.5 47s13.834 25 24.501 35
s24 18.833 40 26.5s34.333 14.834 55 21.501c-14.667 6.66699 -26.834 15.834 -36.501 27.501s-14.5 25.834 -14.5 42.501c0 15.333 6.5 30.5 19.5 45.5s26.167 26.833 39.5 35.5c-38 10 -67.167 29 -87.5 57s-30.5 59.667 -30.5 95c0 22.667 4.33301 43.834 13 63.501
s21.334 36.834 38.001 51.501s37.334 26 62.001 34s53.334 12 86.001 12zM394.997 -81.0049c0 21.333 -7.16797 38.3311 -21.501 50.998s-32.166 23 -53.499 31s-44.333 14.667 -69 20s-47.667 11.333 -69 18c-25.333 -15.333 -42 -31.5 -50 -48.5s-12 -34.5 -12 -52.5
c0 -35.333 12.667 -61.833 38 -79.5s62 -26.5 110 -26.5c24.667 0 45.167 2.33301 61.5 7s29.333 10.834 39 18.501s16.5 16.834 20.5 27.501s6 22 6 34zM137.996 350.993c0 -16 1.83105 -31.168 5.49805 -45.501s9.66699 -26.833 18 -37.5s19.5 -19.167 33.5 -25.5
s31.333 -9.5 52 -9.5c38.667 0 66.334 11.333 83.001 34s25 50.667 25 84c0 36 -8.16699 64.5 -24.5 85.5s-44.166 31.5 -83.499 31.5c-40.667 0 -69 -10.167 -85 -30.5s-24 -49.166 -24 -86.499zM316.999 776.978c-20.666 -7.99902 -34.998 -18.833 -42.9971 -32.499
c-7.99902 -13.665 -11.999 -27.1641 -11.999 -40.4971c7.33301 -6 17.499 -12 30.498 -17.999s24.498 -10.665 34.4971 -13.998c3.33301 -10.666 3.5 -20.832 0.5 -30.498s-7.33301 -18.332 -12.999 -25.999c-5.66699 -7.66602 -12.333 -13.999 -19.999 -18.998
c-7.66602 -5 -15.166 -7.5 -22.499 -7.5c-21.999 2 -40.6641 10.333 -55.9961 24.999c-15.333 14.665 -22.999 36.3301 -22.999 64.9951c0 15.999 2.83301 31.165 8.5 45.498c5.66602 14.332 13.332 27.3311 22.998 38.9971s20.999 21.665 33.998 29.998
s27.165 14.166 42.498 17.499z" />
    <glyph glyph-name="Hcircumflex" unicode="&#x124;" horiz-adv-x="728" 
d="M282 0l-253.002 0.00195312v29c26.667 10.667 54 18.667 82 24v593c-31.333 4.66699 -58.666 13 -81.999 25v29h253v-29c-11.333 -6 -23.333 -11 -36 -15s-25.667 -7.33301 -39 -10v-261h314v261c-14 3.33301 -27.167 7 -39.5 11s-24.166 8.66699 -35.499 14v29h253v-29
c-12 -6.66699 -25.167 -11.834 -39.5 -15.501s-28.5 -6.83398 -42.5 -9.50098v-593c15.333 -2.66699 30 -6 44 -10s26.667 -8.66699 38 -14v-29h-253v29c24 10.667 49 18.667 75 24v280h-314v-280c13.333 -2.66699 26.333 -6 39 -10s24.667 -8.66699 36 -14v-29z
M238.998 752.002l-14 19.001l127 112c3.33301 2 7.5 3.16699 12.5 3.5s9.5 -0.833984 13.5 -3.50098l125 -109l-15 -21l-127 56z" />
    <glyph glyph-name="hcircumflex" unicode="&#x125;" horiz-adv-x="587" 
d="M570 0h-215.998v25c16 8.66699 36 16.667 60 24v234c0 52 -7.33301 92.833 -22 122.5s-41.334 44.5 -80.001 44.5c-17.333 0 -33 -3.16699 -47 -9.5s-26.667 -14.5 -38 -24.5s-21 -21.5 -29 -34.5s-14 -26.5 -18 -40.5v-292c10.667 -2.66699 20.834 -5.66699 30.501 -9
s19.167 -8.33301 28.5 -15v-25h-215v25c20.667 10.667 42.667 18.667 66 24v633l-76 8v26c19.333 8 41.833 15 67.5 21s50.167 11 73.5 15h25v-353h1c14 31.333 34.167 58 60.5 80s58.166 33 95.499 33c26.667 0 50.5 -3.16699 71.5 -9.5s38.5 -17.5 52.5 -33.5
s24.667 -37.5 32 -64.5s11 -61.167 11 -102.5v-253c11.333 -2.66699 22.666 -5.66699 33.999 -9s22 -8.33301 32 -15v-25zM26.002 752l-14 19.001l127 112c3.33301 2 7.5 3.16699 12.5 3.5s9.5 -0.833984 13.5 -3.50098l125 -109l-15 -21l-127 56z" />
    <glyph glyph-name="Hbar" unicode="&#x126;" horiz-adv-x="728" 
d="M30 558l80.998 0.00195312v88c-31.333 4.66699 -58.666 13 -81.999 25v29h253v-29c-11.333 -6 -23.333 -11 -36 -15s-25.667 -7.33301 -39 -10v-88h314v88c-14 3.33301 -27.167 7 -39.5 11s-24.166 8.66699 -35.499 14v29h253v-29
c-12 -6.66699 -25.167 -11.834 -39.5 -15.501s-28.5 -6.83398 -42.5 -9.50098v-88h81v-52h-81v-453c15.333 -2.66699 30 -6 44 -10s26.667 -8.66699 38 -14v-29h-253v29c24 10.667 49 18.667 75 24v280h-314v-280c13.333 -2.66699 26.333 -6 39 -10s24.667 -8.66699 36 -14
v-29h-253v29c26.667 10.667 54 18.667 82 24v453h-81v52zM520.998 385.002v121h-314v-121h314z" />
    <glyph glyph-name="hbar" unicode="&#x127;" horiz-adv-x="587" 
d="M3 622h87.002v60l-76 8v26c19.333 8 41.833 15 67.5 21s50.167 11 73.5 15h25v-130h159v-51h-159v-172h1c14 31.333 34.167 58 60.5 80s58.166 33 95.499 33c26.667 0 50.5 -3.16699 71.5 -9.5s38.5 -17.5 52.5 -33.5s24.667 -37.5 32 -64.5s11 -61.167 11 -102.5v-253
c11.333 -2.66699 22.666 -5.66699 33.999 -9s22 -8.33301 32 -15v-25h-216v25c16 8.66699 36 16.667 60 24v234c0 52 -7.33301 92.833 -22 122.5s-41.334 44.5 -80.001 44.5c-17.333 0 -33 -3.16699 -47 -9.5s-26.667 -14.5 -38 -24.5s-21 -21.5 -29 -34.5
s-14 -26.5 -18 -40.5v-292c10.667 -2.66699 20.834 -5.66699 30.501 -9s19.167 -8.33301 28.5 -15v-25h-215v25c20.667 10.667 42.667 18.667 66 24v522h-87v51z" />
    <glyph glyph-name="Imacron" unicode="&#x12a;" horiz-adv-x="352" 
d="M304 0h-256.002v29c26 12 52.667 20 80 24v593c-13.333 2.66699 -26.666 6.16699 -39.999 10.5s-26.666 9.16602 -39.999 14.499v29h256v-29c-12 -5.33301 -25 -10.166 -39 -14.499s-27.667 -7.83301 -41 -10.5v-593c14 -2.66699 28 -6 42 -10s26.667 -8.66699 38 -14
v-29zM26.998 788v52h301v-52h-301z" />
    <glyph glyph-name="imacron" unicode="&#x12b;" horiz-adv-x="301" 
d="M263 0h-222.002v25c10 5.33301 20.333 9.83301 31 13.5s22.334 7.16699 35.001 10.5v393l-66 8v26c19.333 8 40.333 15 63 21s45.334 11 68.001 15h25v-463c13.333 -3.33301 25.333 -6.83301 36 -10.5s20.667 -8.16699 30 -13.5v-25zM23.998 637v52h253v-52h-253z" />
    <glyph glyph-name="Iogonek" unicode="&#x12e;" horiz-adv-x="352" 
d="M304 0l-40.002 0.000976562c-28.667 -16 -52.667 -35.167 -72 -57.5s-29 -48.166 -29 -77.499c0 -18.667 6 -34 18 -46s28.333 -18 49 -18s39 2 55 6v-29c-9.33301 -7.33301 -21.333 -14 -36 -20s-33 -9 -55 -9c-15.333 0 -29.833 2.33301 -43.5 7
s-25.667 11.334 -36 20.001s-18.5 19.167 -24.5 31.5s-9 25.833 -9 40.5c0 17.333 3.16699 33.166 9.5 47.499s15.166 27.666 26.499 39.999s24.833 23.666 40.5 33.999s32.834 20.5 51.501 30.5h-161v29c26 12 52.667 20 80 24v593
c-13.333 2.66699 -26.666 6.16699 -39.999 10.5s-26.666 9.16602 -39.999 14.499v29h256v-29c-12 -5.33301 -25 -10.166 -39 -14.499s-27.667 -7.83301 -41 -10.5v-593c14 -2.66699 28 -6 42 -10s26.667 -8.66699 38 -14v-29z" />
    <glyph glyph-name="iogonek" unicode="&#x12f;" horiz-adv-x="304" 
d="M264 0l-39.001 -0.000976562c-22 -14 -40.333 -30.833 -55 -50.5s-22 -42.167 -22 -67.5c0 -6.66699 1 -13.5 3 -20.5s5.33301 -13.5 10 -19.5s10.667 -10.833 18 -14.5s16.333 -5.5 27 -5.5c10 0 19.167 0.833008 27.5 2.5s17.166 3.83398 26.499 6.50098v-33
c-9.33301 -5.33301 -21.333 -10 -36 -14s-28 -6 -40 -6c-39.333 0 -69 8.33301 -89 25s-30 37.667 -30 63c0 30 10.333 56 31 78s48 40.667 82 56h-136v25c10 5.33301 20.333 9.83301 31 13.5s22.334 7.16699 35.001 10.5v393l-66 8v26c19.333 8 40.333 15 63 21
s45.334 11 68.001 15h25v-463c13.333 -3.33301 25.333 -6.83301 36 -10.5s20.667 -8.16699 30 -13.5v-25zM93.999 666.999c0 17.333 5.5 31 16.5 41s25.167 15 42.5 15s31.333 -5 42 -15s16 -23.667 16 -41s-5.33301 -30.833 -16 -40.5s-24.667 -14.5 -42 -14.5
s-31.5 4.83301 -42.5 14.5s-16.5 23.167 -16.5 40.5z" />
    <glyph glyph-name="Idotaccent" unicode="&#x130;" horiz-adv-x="352" 
d="M304 0h-256.002v29c26 12 52.667 20 80 24v593c-13.333 2.66699 -26.666 6.16699 -39.999 10.5s-26.666 9.16602 -39.999 14.499v29h256v-29c-12 -5.33301 -25 -10.166 -39 -14.499s-27.667 -7.83301 -41 -10.5v-593c14 -2.66699 28 -6 42 -10s26.667 -8.66699 38 -14
v-29zM111.998 817c0 17.333 6.33301 30.666 19 39.999s28 14 46 14s33 -4.66699 45 -14s18 -22.666 18 -39.999s-6 -30.666 -18 -39.999s-27 -14 -45 -14s-33.333 4.66699 -46 14s-19 22.666 -19 39.999z" />
    <glyph glyph-name="dotlessi" unicode="&#x131;" horiz-adv-x="301" 
d="M263 0h-222.002v25c10 5.33301 20.333 9.83301 31 13.5s22.334 7.16699 35.001 10.5v393l-66 8v26c19.333 8 40.333 15 63 21s45.334 11 68.001 15h25v-463c13.333 -3.33301 25.333 -6.83301 36 -10.5s20.667 -8.16699 30 -13.5v-25z" />
    <glyph glyph-name="Jcircumflex" unicode="&#x134;" horiz-adv-x="341" 
d="M39 700l254.005 -0.000976562v-29c-12 -5.33301 -24.333 -10.166 -37 -14.499s-25.667 -7.83301 -39 -10.5v-560c0 -46.667 -5.33301 -85 -16 -115s-23.834 -54.167 -39.501 -72.5s-32.334 -31.833 -50.001 -40.5s-33.834 -14.667 -48.501 -18l-11 15
c10 8.66699 19.167 18.5 27.5 29.5s15.666 24.833 21.999 41.5s11.166 37 14.499 61s5 53.333 5 88v571c-14.667 3.33301 -29 7 -43 11s-27 8.66699 -39 14v29zM44.0049 751.999l-14 19.001l127 112c3.33301 2 7.5 3.16699 12.5 3.5s9.5 -0.833984 13.5 -3.50098l125 -109
l-15 -21l-127 56z" />
    <glyph glyph-name="jcircumflex" unicode="&#x135;" horiz-adv-x="288" 
d="M106 442l-66 7.99707v26c19.333 9.33301 40.5 16.833 63.5 22.5s45.5 10.167 67.5 13.5h25v-469c0 -47.333 -6 -86.666 -18 -117.999s-26 -56.666 -42 -75.999s-32.333 -33.666 -49 -42.999s-30 -15.333 -40 -18l-12 19c8 4 16.167 11 24.5 21s16 23.833 23 41.5
s12.667 39.167 17 64.5s6.5 55.333 6.5 90v418zM54 589.997l-29 16.001l110 186c3.33301 2 7.5 3.16699 12.5 3.5s9.16699 -0.833984 12.5 -3.50098l114 -185l-27 -17l-103 107z" />
    <glyph glyph-name="Kcommaaccent" unicode="&#x136;" horiz-adv-x="646" 
d="M382 700h220.999v-29c-13.333 -6 -26.333 -11 -39 -15s-25 -7.33301 -37 -10l-201 -266c16.667 -22 35.834 -46.667 57.501 -74s44.334 -55.5 68.001 -84.5s48 -58.333 73 -88s49.5 -57.834 73.5 -84.501l48 -24v-25h-125l-34 24c-39.333 46 -78.5 95.667 -117.5 149
s-76.833 107.333 -113.5 162h-49v-282c30.667 -5.33301 55.667 -13.333 75 -24v-29h-253v29c26.667 10.667 54 18.667 82 24v593c-30 4 -57.333 12.333 -82 25v29h253v-29c-10.667 -4.66699 -22.334 -9.16699 -35.001 -13.5s-26 -8.16602 -40 -11.499v-277l60 14l187 263
c-13.333 3.33301 -26 7 -38 11s-23.333 8.66699 -34 14v29zM260.999 -237c12 5.33301 23.8311 14.3359 35.498 27.0029s16.5 28.667 14.5 48c-7.33301 5.33301 -17.666 11.166 -30.999 17.499s-25 11.166 -35 14.499c-3.33301 10.667 -3.5 20.834 -0.5 30.501
s7.5 18.5 13.5 26.5s12.833 14.333 20.5 19s15.167 7.33398 22.5 8.00098c22.667 -2.66699 42.834 -11.334 60.501 -26.001s26.5 -36.334 26.5 -65.001c0 -32.667 -9.83301 -60.834 -29.5 -84.501s-47.167 -40.167 -82.5 -49.5z" />
    <glyph glyph-name="kcommaaccent" unicode="&#x137;" horiz-adv-x="516" 
d="M300 500l192.993 -0.00390625v-26c-12.667 -5.33301 -25.167 -10 -37.5 -14s-25.166 -7.33301 -38.499 -10c-10 -13.333 -21.5 -27.666 -34.5 -42.999s-26.167 -30.666 -39.5 -45.999s-26.166 -29.666 -38.499 -42.999s-22.833 -24.333 -31.5 -33
c10 -13.333 22.167 -29.5 36.5 -48.5s29.833 -39.167 46.5 -60.5s33.834 -43 51.501 -65s35.167 -42.667 52.5 -62l56 -24v-25h-124l-27 24c-35.333 44 -64.666 83.167 -87.999 117.5s-44.666 66.5 -63.999 96.5l-33 10v-199c22 -4 43.667 -12 65 -24v-25h-221v25
c22 10.667 44 18.667 66 24v633l-76 8v26c18.667 8.66699 41 15.667 67 21s50.667 10.333 74 15h25v-478h26c10.667 12 22.334 25.333 35.001 40s25.334 29.834 38.001 45.501s25 31.167 37 46.5s23 30 33 44c-16.667 4.66699 -33 12.667 -49 24v26zM197.993 -235.004
c20.667 8 35 18.8311 43 32.498s12 27.167 12 40.5c-7.33301 6 -17.5 12 -30.5 18s-24.5 10.667 -34.5 14c-3.33301 10.667 -3.5 20.834 -0.5 30.501s7.33301 18.334 13 26.001s12.334 14 20.001 19s15.167 7.5 22.5 7.5c22 -2 40.667 -10.333 56 -25s23 -36.334 23 -65.001
c0 -16 -2.83301 -31.167 -8.5 -45.5s-13.334 -27.333 -23.001 -39s-21 -21.667 -34 -30s-27.167 -14.166 -42.5 -17.499z" />
    <glyph glyph-name="Lacute" unicode="&#x139;" horiz-adv-x="549" 
d="M29 700l274 0.00390625v-29c-16 -6 -32 -11.167 -48 -15.5s-32 -7.5 -48 -9.5v-594h230l59 161h26c2 -14 3.83301 -30.167 5.5 -48.5s3 -37.333 4 -57s1.5 -38.834 1.5 -57.501s-0.333008 -35.334 -1 -50.001h-503v29c16 7.33301 30.667 12.666 44 15.999s26 6 38 8v593
c-15.333 2.66699 -30 6.16699 -44 10.5s-26.667 9.16602 -38 14.499v29zM291 893.004c6 0.666992 13.667 0.333008 23 -1s18.833 -3.5 28.5 -6.5s18.667 -6.66699 27 -11s14.5 -8.83301 18.5 -13.5v-20l-226 -91l-17 19z" />
    <glyph glyph-name="lacute" unicode="&#x13a;" horiz-adv-x="301" 
d="M263 0h-222v25c22 10.667 44 18.667 66 24v633l-76 8v26c17.333 8 39 15 65 21s51.333 11 76 15h25v-703c22 -5.33301 44 -13.333 66 -24v-25zM230 893c6 0.666992 13.667 0.333008 23 -1s18.833 -3.5 28.5 -6.5s18.667 -6.66699 27 -11s14.5 -8.83301 18.5 -13.5v-20
l-226 -91l-17 19z" />
    <glyph glyph-name="Lcommaaccent" unicode="&#x13b;" horiz-adv-x="549" 
d="M29 700l274 0.00390625v-29c-16 -6 -32 -11.167 -48 -15.5s-32 -7.5 -48 -9.5v-594h230l59 161h26c2 -14 3.83301 -30.167 5.5 -48.5s3 -37.333 4 -57s1.5 -38.834 1.5 -57.501s-0.333008 -35.334 -1 -50.001h-503v29c16 7.33301 30.667 12.666 44 15.999s26 6 38 8v593
c-15.333 2.66699 -30 6.16699 -44 10.5s-26.667 9.16602 -38 14.499v29zM219 -236.996c12 5.33301 23.8311 14.3359 35.498 27.0029s16.5 28.667 14.5 48c-7.33301 5.33301 -17.666 11.166 -30.999 17.499s-25 11.166 -35 14.499c-3.33301 10.667 -3.5 20.834 -0.5 30.501
s7.5 18.5 13.5 26.5s12.833 14.333 20.5 19s15.167 7.33398 22.5 8.00098c22.667 -2.66699 42.834 -11.334 60.501 -26.001s26.5 -36.334 26.5 -65.001c0 -32.667 -9.83301 -60.834 -29.5 -84.501s-47.167 -40.167 -82.5 -49.5z" />
    <glyph glyph-name="lcommaaccent" unicode="&#x13c;" horiz-adv-x="301" 
d="M263 0h-222v25c22 10.667 44 18.667 66 24v633l-76 8v26c17.333 8 39 15 65 21s51.333 11 76 15h25v-703c22 -5.33301 44 -13.333 66 -24v-25zM96 -235c20.667 8 35 18.8311 43 32.498s12 27.167 12 40.5c-7.33301 6 -17.5 12 -30.5 18s-24.5 10.667 -34.5 14
c-3.33301 10.667 -3.5 20.834 -0.5 30.501s7.33301 18.334 13 26.001s12.334 14 20.001 19s15.167 7.5 22.5 7.5c22 -2 40.667 -10.333 56 -25s23 -36.334 23 -65.001c0 -16 -2.83301 -31.167 -8.5 -45.5s-13.334 -27.333 -23.001 -39s-21 -21.667 -34 -30
s-27.167 -14.166 -42.5 -17.499z" />
    <glyph glyph-name="Lcaron" unicode="&#x13d;" horiz-adv-x="549" 
d="M29 700l274 0.00390625v-29c-16 -6 -32 -11.167 -48 -15.5s-32 -7.5 -48 -9.5v-594h230l59 161h26c2 -14 3.83301 -30.167 5.5 -48.5s3 -37.333 4 -57s1.5 -38.834 1.5 -57.501s-0.333008 -35.334 -1 -50.001h-503v29c16 7.33301 30.667 12.666 44 15.999s26 6 38 8v593
c-15.333 2.66699 -30 6.16699 -44 10.5s-26.667 9.16602 -38 14.499v29zM342 504.004c6.66699 14.667 12.832 30.501 18.499 47.501s10.167 34 13.5 51s6 33.5 8 49.5s3 30.667 3 44l12 16c5.33301 0.666992 12.333 0.166992 21 -1.5s17.5 -4 26.5 -7
s17.5 -6.66699 25.5 -11s14.333 -8.83301 19 -13.5c-2.66699 -18 -8.66699 -36.5 -18 -55.5s-20.166 -36.833 -32.499 -53.5s-25.333 -31.834 -39 -45.501s-26.167 -24.167 -37.5 -31.5z" />
    <glyph glyph-name="lcaron" unicode="&#x13e;" horiz-adv-x="301" 
d="M263 0h-222v25c22 10.667 44 18.667 66 24v633l-76 8v26c17.333 8 39 15 65 21s51.333 11 76 15h25v-703c22 -5.33301 44 -13.333 66 -24v-25zM242 543c14 30 24.665 62.499 31.998 97.499s11 66.167 11 93.5l12 16c4.66699 0.666992 10.834 0.5 18.501 -0.5
s15.5 -2.66699 23.5 -5s15.5 -5 22.5 -8s12.5 -6.16699 16.5 -9.5c-3.33301 -18.667 -9.16602 -37.5 -17.499 -56.5s-18 -37.167 -29 -54.5s-22.667 -33.166 -35 -47.499s-23.833 -26.5 -34.5 -36.5z" />
    <glyph glyph-name="Lslash" unicode="&#x141;" horiz-adv-x="549" 
d="M29 700l274 0.00390625v-29c-16 -6 -32 -11.167 -48 -15.5s-32 -7.5 -48 -9.5v-254l135 84v-66l-135 -84v-274h230l59 161h26c2 -14 3.83301 -30.167 5.5 -48.5s3 -37.333 4 -57s1.5 -38.834 1.5 -57.501s-0.333008 -35.334 -1 -50.001h-503v29
c16 7.33301 30.667 12.666 44 15.999s26 6 38 8v214l-94 -57v65l94 57v314c-15.333 2.66699 -30 6.16699 -44 10.5s-26.667 9.16602 -38 14.499v29z" />
    <glyph glyph-name="lslash" unicode="&#x142;" horiz-adv-x="325" 
d="M24 295l95 58v329l-76 8v26c17.333 8 39 15 65 21s51.333 11 76 15h25v-343l92 57v-66l-92 -57v-294c22 -5.33301 44 -13.333 66 -24v-25h-222v25c22 10.667 44 18.667 66 24v239l-95 -59v66z" />
    <glyph glyph-name="Nacute" unicode="&#x143;" horiz-adv-x="732" 
d="M487 700l216 -0.000976562v-29c-28 -18.667 -55.333 -32 -82 -40v-643h-57l-363 551l-39 78h-3l9 -78v-475c27.333 -7.33301 53 -19 77 -35v-29h-216v29c12 7.33301 24.833 13.833 38.5 19.5s28.167 10.834 43.5 15.501v573c-13.333 5.33301 -26.5 11 -39.5 17
s-25.167 12 -36.5 18v28h169l315 -475l46 -86h4l-5 86v406c-14 6 -27.5 12.333 -40.5 19s-25.167 13.667 -36.5 21v29zM470 892.999c6 0.666992 13.667 0.333008 23 -1s18.833 -3.5 28.5 -6.5s18.667 -6.66699 27 -11s14.5 -8.83301 18.5 -13.5v-20l-226 -91l-17 19z" />
    <glyph glyph-name="nacute" unicode="&#x144;" horiz-adv-x="594" 
d="M577 0h-214.999v25c18 9.33301 37.667 17.333 59 24v237c0 50.667 -7.33301 90.667 -22 120s-41.334 44 -80.001 44c-16.667 0 -32.167 -3 -46.5 -9s-27 -14.167 -38 -24.5s-20.5 -22 -28.5 -35s-14.333 -26.5 -19 -40.5v-292c20.667 -4 40.667 -12 60 -24v-25h-216v25
c16.667 8.66699 38.667 16.667 66 24v393l-66 8v26c17.333 7.33301 37.333 14 60 20s46.334 11.333 71.001 16h25v-112h1c14 30.667 34.167 57 60.5 79s58.166 33 95.499 33c26.667 0 50.5 -3.16699 71.5 -9.5s38.5 -17.5 52.5 -33.5s24.667 -37.5 32 -64.5
s11 -61.167 11 -102.5v-253c26.667 -4.66699 48.667 -12.667 66 -24v-25zM378.001 767c5.33301 0.666992 12.333 0.5 21 -0.5s17.667 -2.5 27 -4.5s18 -4.5 26 -7.5s14 -6.16699 18 -9.5v-19l-187 -151l-22 18z" />
    <glyph glyph-name="Ncommaaccent" unicode="&#x145;" horiz-adv-x="732" 
d="M487 700l216 -0.000976562v-29c-28 -18.667 -55.333 -32 -82 -40v-643h-57l-363 551l-39 78h-3l9 -78v-475c27.333 -7.33301 53 -19 77 -35v-29h-216v29c12 7.33301 24.833 13.833 38.5 19.5s28.167 10.834 43.5 15.501v573c-13.333 5.33301 -26.5 11 -39.5 17
s-25.167 12 -36.5 18v28h169l315 -475l46 -86h4l-5 86v406c-14 6 -27.5 12.333 -40.5 19s-25.167 13.667 -36.5 21v29zM308 -237.001c12 5.33301 23.8311 14.3359 35.498 27.0029s16.5 28.667 14.5 48c-7.33301 5.33301 -17.666 11.166 -30.999 17.499
s-25 11.166 -35 14.499c-3.33301 10.667 -3.5 20.834 -0.5 30.501s7.5 18.5 13.5 26.5s12.833 14.333 20.5 19s15.167 7.33398 22.5 8.00098c22.667 -2.66699 42.834 -11.334 60.501 -26.001s26.5 -36.334 26.5 -65.001c0 -32.667 -9.83301 -60.834 -29.5 -84.501
s-47.167 -40.167 -82.5 -49.5z" />
    <glyph glyph-name="ncommaaccent" unicode="&#x146;" horiz-adv-x="594" 
d="M577 0h-214.999v25c18 9.33301 37.667 17.333 59 24v237c0 50.667 -7.33301 90.667 -22 120s-41.334 44 -80.001 44c-16.667 0 -32.167 -3 -46.5 -9s-27 -14.167 -38 -24.5s-20.5 -22 -28.5 -35s-14.333 -26.5 -19 -40.5v-292c20.667 -4 40.667 -12 60 -24v-25h-216v25
c16.667 8.66699 38.667 16.667 66 24v393l-66 8v26c17.333 7.33301 37.333 14 60 20s46.334 11.333 71.001 16h25v-112h1c14 30.667 34.167 57 60.5 79s58.166 33 95.499 33c26.667 0 50.5 -3.16699 71.5 -9.5s38.5 -17.5 52.5 -33.5s24.667 -37.5 32 -64.5
s11 -61.167 11 -102.5v-253c26.667 -4.66699 48.667 -12.667 66 -24v-25zM247.001 -235c20.667 8 35 18.8311 43 32.498s12 27.167 12 40.5c-7.33301 6 -17.5 12 -30.5 18s-24.5 10.667 -34.5 14c-3.33301 10.667 -3.5 20.834 -0.5 30.501s7.33301 18.334 13 26.001
s12.334 14 20.001 19s15.167 7.5 22.5 7.5c22 -2 40.667 -10.333 56 -25s23 -36.334 23 -65.001c0 -16 -2.83301 -31.167 -8.5 -45.5s-13.334 -27.333 -23.001 -39s-21 -21.667 -34 -30s-27.167 -14.166 -42.5 -17.499z" />
    <glyph glyph-name="Ncaron" unicode="&#x147;" horiz-adv-x="732" 
d="M487 700l216 -0.000976562v-29c-28 -18.667 -55.333 -32 -82 -40v-643h-57l-363 551l-39 78h-3l9 -78v-475c27.333 -7.33301 53 -19 77 -35v-29h-216v29c12 7.33301 24.833 13.833 38.5 19.5s28.167 10.834 43.5 15.501v573c-13.333 5.33301 -26.5 11 -39.5 17
s-25.167 12 -36.5 18v28h169l315 -475l46 -86h4l-5 86v406c-14 6 -27.5 12.333 -40.5 19s-25.167 13.667 -36.5 21v29zM480 887.999c5.33301 0 10.3311 -1.66797 14.998 -5.00098s8 -7.33301 10 -12l-127 -112c-3.33301 -1.33301 -7.5 -2.16602 -12.5 -2.49902
s-9.5 0.5 -13.5 2.5l-125 109c2.66699 4.66699 5.83398 9.16699 9.50098 13.5s8.83398 6.5 15.501 6.5l117 -55z" />
    <glyph glyph-name="ncaron" unicode="&#x148;" horiz-adv-x="594" 
d="M577 0h-214.999v25c18 9.33301 37.667 17.333 59 24v237c0 50.667 -7.33301 90.667 -22 120s-41.334 44 -80.001 44c-16.667 0 -32.167 -3 -46.5 -9s-27 -14.167 -38 -24.5s-20.5 -22 -28.5 -35s-14.333 -26.5 -19 -40.5v-292c20.667 -4 40.667 -12 60 -24v-25h-216v25
c16.667 8.66699 38.667 16.667 66 24v393l-66 8v26c17.333 7.33301 37.333 14 60 20s46.334 11.333 71.001 16h25v-112h1c14 30.667 34.167 57 60.5 79s58.166 33 95.499 33c26.667 0 50.5 -3.16699 71.5 -9.5s38.5 -17.5 52.5 -33.5s24.667 -37.5 32 -64.5
s11 -61.167 11 -102.5v-253c26.667 -4.66699 48.667 -12.667 66 -24v-25zM404.001 796c6 0.666992 11.8311 -0.666016 17.498 -3.99902s9.5 -7.33301 11.5 -12l-124 -185c-3.33301 -1.33301 -7.33301 -2.16602 -12 -2.49902s-9 0.5 -13 2.5l-121 184
c2.66699 5.33301 7.33398 9.66602 14.001 12.999s13.334 4.66602 20.001 3.99902l107 -106z" />
    <glyph glyph-name="Omacron" unicode="&#x14c;" horiz-adv-x="740" 
d="M53 350c0 52 7.16699 100.167 21.5 144.5s35 82.666 62 114.999s60.167 57.5 99.5 75.5s84 27 134 27s94.667 -9 134 -27s72.5 -43.167 99.5 -75.5s47.667 -70.666 62 -114.999s21.5 -92.5 21.5 -144.5s-7.16699 -100.167 -21.5 -144.5s-35 -82.666 -62 -114.999
s-60.167 -57.5 -99.5 -75.5s-84 -27 -134 -27s-94.667 9 -134 27s-72.5 43.167 -99.5 75.5s-47.667 70.666 -62 114.999s-21.5 92.5 -21.5 144.5zM160 350c0 -42.667 4.50293 -82.834 13.5029 -120.501s22.5 -70.5 40.5 -98.5s40.667 -50.167 68 -66.5
s59.666 -24.5 96.999 -24.5c34 0 63.667 8.16699 89 24.5s46.166 38.5 62.499 66.5s28.666 60.833 36.999 98.5s12.5 77.834 12.5 120.501s-4.33301 82.834 -13 120.501s-22 70.5 -40 98.5s-40.667 50.167 -68 66.5s-59.666 24.5 -96.999 24.5
c-36.667 0 -67.834 -8.16699 -93.501 -24.5s-46.5 -38.5 -62.5 -66.5s-27.667 -60.833 -35 -98.5s-11 -77.834 -11 -120.501zM219.003 788v52h301v-52h-301z" />
    </font>
</defs>
</svg>
