<svg xmlns="http://www.w3.org/2000/svg">
<defs>
<font id="PTSerif-Bold" horiz-adv-x="565" >
  <font-face 
    font-family="PT Serif"
    font-weight="700"
    font-stretch="normal"
    units-per-em="1000"
    panose-1="2 10 7 3 4 5 5 2 2 4"
    ascent="770"
    descent="-230"
    x-height="500"
    cap-height="700.002"
    bbox="-376 -273.007 1216 1009"
    underline-thickness="50"
    underline-position="-50"
    unicode-range="U+0020-FB02"
  />
<missing-glyph horiz-adv-x="709" 
d="M50 700h650v-700h-650v700zM570 650l-195 -217l-195 217l-50 -50l197 -220l-197 -220l50 -50l195 217l195 -217l50 50l-198 220l198 220zM162 68h-35v-7h13v-35h9v35h13v7zM271 58h-1.99805c-0.666992 0 -1.33398 0.333008 -2.00098 1
c-2.66699 0 -5.66699 -1.66699 -9 -5v4h-7v-32h8v20c2 3.33301 4.33301 5 7 5c1.33301 0 2.66602 -0.333008 3.99902 -1zM276.002 65c0 -3.33301 1.33301 -5 4 -5c3.33301 0 5 1.33301 5 4c0 3.33301 -1.66699 5 -5 5c-2.66699 0 -4 -1.33301 -4 -4zM276.002 26h9v32h-9v-32
zM291.002 51h5v-25h8v25h8v7h-8c0 1.33301 0.333008 2.33301 1 3s1.66699 1 3 1h3h3l1 6c0 0.666992 -1.33301 1 -4 1h-5h-4c-0.666992 0 -1.66699 -0.5 -3 -1.5s-2 -1.83301 -2 -2.5c-0.666992 -1.33301 -1 -3 -1 -5v-2h-5v-7zM331.002 45
c0 -16.667 7.66797 -25 23.001 -25c7.33301 0 13.166 2 17.499 6s6.5 10.333 6.5 19c0 15.333 -8 23 -24 23c-6.66699 0 -12.167 -2 -16.5 -6s-6.5 -9.66699 -6.5 -17zM338.003 45c0 11.333 5.33301 17 16 17c11.333 0 17 -5.66699 17 -17c0 -12 -5.66699 -18 -17 -18
c-10.667 0 -16 6 -16 18zM361.003 40c-1.33301 -0.666992 -2.66699 -1 -4 -1c-3.33301 0 -5 2 -5 6c0 2.66699 1.66699 4 5 4h3l3 5c-2.66699 1.33301 -5.66699 2 -9 2c-6.66699 0 -10 -3.66699 -10 -11c0 -8.66699 3.33301 -13 10 -13c3.33301 0 6.33301 0.666992 9 2z
M402.002 27h8.99902v14h5c4.66699 0 8.83398 1 12.501 3s5.5 5.66699 5.5 11c0 6.66699 -2 10.667 -6 12s-8.33301 2 -13 2h-13v-42zM416.001 62c6 0 9 -2 9 -6s-0.833008 -6.16699 -2.5 -6.5s-4.16699 -0.5 -7.5 -0.5h-4v13h5zM440.001 51

<glyph glyph-name="fi" unicode="fi" horiz-adv-x="660" 
d="M635 0l-270.997 0.00292969v39c8 4.66699 17.333 9.16699 28 13.5s21.667 7.83301 33 10.5v374h-182v-374c13.333 -1.33301 26.5 -4.33301 39.5 -9s25.167 -9.66699 36.5 -15v-39h-286v39c20.667 12 42.667 20 66 24v374h-76v39c23.333 14.667 48.666 25.667 75.999 33
v35c0 41.333 7.66699 75.5 23 102.5s35.166 48.333 59.499 64s51.666 26.5 81.999 32.5s60.833 9 91.5 9c17.333 0 36.833 -1.16699 58.5 -3.5s42.834 -5.5 63.501 -9.5s39.667 -8.5 57 -13.5s30.666 -10.167 39.999 -15.5c-2 -22 -6 -41.833 -12 -59.5
s-12.333 -33.167 -19 -46.5h-84l-74 95c-17.333 0 -34.5 -1.83301 -51.5 -5.5s-32.167 -10.834 -45.5 -21.501s-24.166 -25.834 -32.499 -45.501s-12.5 -45.167 -12.5 -76.5v-50h96c11.333 0 25.666 0.5 42.999 1.5s35.5 2 54.5 3s37.333 2.16699 55 3.5
s32.167 2.66602 43.5 3.99902h34v-449c13.333 -3.33301 25.333 -6.83301 36 -10.5s20.667 -8.16699 30 -13.5v-39z" />
    <glyph glyph-name="fl" unicode="fl" horiz-adv-x="665" 
d="M425 669c-14 5.33301 -27.3281 9.99902 -39.9951 13.999s-25.334 6 -38.001 6c-17.333 0 -32.333 -2.33301 -45 -7s-23.5 -12.5 -32.5 -23.5s-15.667 -26 -20 -45s-6.5 -42.5 -6.5 -70.5v-43h106v-63h-106v-374c14.667 -2 29 -5.16699 43 -9.5
s26.667 -9.16602 38 -14.499v-39h-291v39c20.667 12 42.667 20 66 24v374h-76v39c23.333 14.667 48.666 25.667 75.999 33v35c0 41.333 5.16699 75.5 15.5 102.5s24.5 48.333 42.5 64s39.167 26.5 63.5 32.5s50.166 9 77.499 9c28 0 53.167 -3.5 75.5 -10.5
s38.833 -12.5 49.5 -16.5c14 5.33301 31.333 10.833 52 16.5s40.667 9.16699 60 10.5h34v-689c11.333 -2.66699 23.166 -6 35.499 -10s24.166 -8.66699 35.499 -14v-39h-271v39c8 5.33301 17 10 27 14s19.667 7.33301 29 10v606z" />
    <glyph glyph-name=".notdef" horiz-adv-x="709" 
d="M50 700h650v-700h-650v700zM570 650l-195 -217l-195 217l-50 -50l197 -220l-197 -220l50 -50l195 217l195 -217l50 50l-198 220l198 220zM162 68h-35v-7h13v-35h9v35h13v7zM271 58h-1.99805c-0.666992 0 -1.33398 0.333008 -2.00098 1
c-2.66699 0 -5.66699 -1.66699 -9 -5v4h-7v-32h8v20c2 3.33301 4.33301 5 7 5c1.33301 0 2.66602 -0.333008 3.99902 -1zM276.002 65c0 -3.33301 1.33301 -5 4 -5c3.33301 0 5 1.33301 5 4c0 3.33301 -1.66699 5 -5 5c-2.66699 0 -4 -1.33301 -4 -4zM276.002 26h9v32h-9v-32
zM291.002 51h5v-25h8v25h8v7h-8c0 1.33301 0.333008 2.33301 1 3s1.66699 1 3 1h3h3l1 6c0 0.666992 -1.33301 1 -4 1h-5h-4c-0.666992 0 -1.66699 -0.5 -3 -1.5s-2 -1.83301 -2 -2.5c-0.666992 -1.33301 -1 -3 -1 -5v-2h-5v-7zM331.002 45
c0 -16.667 7.66797 -25 23.001 -25c7.33301 0 13.166 2 17.499 6s6.5 10.333 6.5 19c0 15.333 -8 23 -24 23c-6.66699 0 -12.167 -2 -16.5 -6s-6.5 -9.66699 -6.5 -17zM338.003 45c0 11.333 5.33301 17 16 17c11.333 0 17 -5.66699 17 -17c0 -12 -5.66699 -18 -17 -18
c-10.667 0 -16 6 -16 18zM361.003 40c-1.33301 -0.666992 -2.66699 -1 -4 -1c-3.33301 0 -5 2 -5 6c0 2.66699 1.66699 4 5 4h3l3 5c-2.66699 1.33301 -5.66699 2 -9 2c-6.66699 0 -10 -3.66699 -10 -11c0 -8.66699 3.33301 -13 10 -13c3.33301 0 6.33301 0.666992 9 2z
M402.002 27h8.99902v14h5c4.66699 0 8.83398 1 12.501 3s5.5 5.66699 5.5 11c0 6.66699 -2 10.667 -6 12s-8.33301 2 -13 2h-13v-42zM416.001 62c6 0 9 -2 9 -6s-0.833008 -6.16699 -2.5 -6.5s-4.16699 -0.5 -7.5 -0.5h-4v13h5zM440.001 51
c2 0.666992 3.83398 1.16602 5.50098 1.49902s3.5 0.5 5.5 0.5c3.33301 0 5 -1.66699 5 -5v-2c-0.666992 0 -1.33398 0.166992 -2.00098 0.5s-1.66699 0.5 -3 0.5c-10 0 -15 -4 -15 -12c0 -6 3.33301 -9 10 -9c4.66699 0 8 2 10 6l3 -5h7
c-0.666992 0.666992 -1 3.33398 -1 8.00098v13c0 8 -4 12 -12 12c-3.33301 0 -6.33301 -0.5 -9 -1.5s-4.66699 -1.83301 -6 -2.5zM450.002 32.999c-3.33301 0 -5.00098 1.66699 -5.00098 5c0 2.66699 2 4 6 4c1.33301 0 2.33301 -0.166992 3 -0.5s1.33398 -0.5 2.00098 -0.5
v-3c-0.666992 -3.33301 -2.66699 -5 -6 -5zM494.001 58.999c-1.33301 0.666992 -3.00098 1 -5.00098 1c-3.33301 0 -5.66602 -2 -6.99902 -6h-1l-1 5h-7v-32h9v20c0 3.33301 2.33301 5 7 5c0.666992 0 1 -0.166992 1 -0.5s0.333008 -0.5 1 -0.5h1zM499 50.999
c6.66699 1.33301 10.333 1.99902 11 1.99902c4 0 6 -1.66699 6 -5v-2c-1.33301 0 -2.33301 0.166992 -3 0.5s-1.66699 0.5 -3 0.5c-10 0 -15 -4 -15 -12c0 -6 3.33301 -9 10 -9c5.33301 0 9 2 11 6h1l1 -5h7c-0.666992 0.666992 -1 3.33398 -1 8.00098v13c0 8 -4 12 -12 12
c-3.33301 0 -6 -0.5 -8 -1.5s-4 -1.83301 -6 -2.5zM508.999 32.998c-3.33301 0 -5 1.66699 -5 5c0 2.66699 2 4 6 4c1.33301 0 2.33301 -0.166992 3 -0.5s1.66699 -0.5 3 -0.5v-3c-2 -3.33301 -4.33301 -5 -7 -5zM556.999 68.998h-36v-7h14v-35h8v35h14v7zM566.999 58.998
h-10.001l14 -32c-1.33301 -3.33301 -3 -5 -5 -5l-2 1l-2 -7c0.666992 -0.666992 2.66699 -1 6 -1c4.66699 0 8.33398 5 11.001 15l12 29h-9l-6 -18v-6h-1l-1 6zM594.998 14.998h9v13c1.33301 -1.33301 3.33301 -2 6 -2c10.667 0 16 6 16 18c0 10.667 -4.33301 16 -13 16
c-4 0 -7.33301 -1.66699 -10 -5h-2l-1 4h-5v-44zM610.998 52.998c4 0 5.99902 -3 5.99902 -9c0 -7.33301 -3 -11 -9 -11c-1.33301 0 -2.66602 0.666992 -3.99902 2v12c0 4 2.33301 6 7 6zM655.997 34.998c-1.33301 -1.33301 -4 -2 -8 -2c-5.33301 0 -8 2.33301 -8 7h21v7
c0 8.66699 -4.66699 13 -14 13c-10.667 0 -16 -6 -16 -18c0 -10.667 5.33301 -16 16 -16c5.33301 0 9.33301 1.33301 12 4zM646.997 52.998c4.66699 0 6.66699 -2.33301 6 -7h-13c0 4.66699 2.33301 7 7 7zM91.9971 26.998h8.99902v14h5c4.66699 0 8.83398 1 12.501 3
s5.5 5.66699 5.5 11c0 6.66699 -2 10.667 -6 12s-8.33301 2 -13 2h-13v-42zM105.996 61.998c6 0 9 -2 9 -6s-0.833008 -6.16699 -2.5 -6.5s-4.16699 -0.5 -7.5 -0.5h-4v13h5zM199.996 37.998c0 -3.33301 -2.66699 -4.99902 -8 -4.99902c-2 0 -3.66699 0.166992 -5 0.5
s-3.33301 1.16602 -6 2.49902l-3 -9c2.66699 -0.666992 5 -1.16699 7 -1.5s4.66699 -0.5 8 -0.5c10.667 0 16 4.66699 16 14c0 3.33301 -1.16699 5.83301 -3.5 7.5s-4.66602 3 -6.99902 4l-7 3c-2.33301 1 -3.5 2.5 -3.5 4.5s2.33301 3 7 3c2 0 3.83301 -0.166992 5.5 -0.5
s3.5 -0.833008 5.5 -1.5l2 8c-2.66699 0.666992 -5 1.16699 -7 1.5s-4 0.5 -6 0.5c-10.667 0 -16 -4.33301 -16 -13c0 -3.33301 1.16699 -5.83301 3.5 -7.5s4.66602 -3 6.99902 -4l7 -3c2.33301 -1 3.5 -2.16699 3.5 -3.5zM238.996 33.999c-1.33301 -1.33301 -4 -2 -8 -2
c-5.33301 0 -8 2.33301 -8 7h21v7c0 8.66699 -4.66699 13 -14 13c-10.667 0 -16 -6 -16 -18c0 -10.667 5.33301 -16 16 -16c5.33301 0 9.33301 1.33301 12 4zM229.996 51.999c4.66699 0 6.66699 -2.33301 6 -7h-13c0 4.66699 2.33301 7 7 7z" />
    <glyph glyph-name="space" unicode=" " horiz-adv-x="270" 
 />
    <glyph glyph-name="exclam" unicode="!" horiz-adv-x="344" 
d="M172 218l-50 194v278c6.66699 4 16.667 6.83301 30 8.5s27.333 2.5 42 2.5s28.5 -0.833008 41.5 -2.5s23.167 -4.5 30.5 -8.5v-278l-50 -194h-44zM110 71c0 24 7.83301 43.333 23.5 58s36.167 22 61.5 22s46 -7.33301 62 -22s24 -34 24 -58s-8 -43.167 -24 -57.5
s-36.667 -21.5 -62 -21.5s-45.833 7.16699 -61.5 21.5s-23.5 33.5 -23.5 57.5z" />
    <glyph glyph-name="quotedbl" unicode="&#x22;" horiz-adv-x="416" 
d="M221 670c3.33301 8.66699 11.168 15.833 23.501 21.5s26.166 8.5 41.499 8.5c14 0 27.5 -2.5 40.5 -7.5s21.167 -12.5 24.5 -22.5l-46 -184h-38zM65.002 669.999c3.33301 8.66699 11.168 15.833 23.501 21.5s26.166 8.5 41.499 8.5c14 0 27.5 -2.5 40.5 -7.5
s21.167 -12.5 24.5 -22.5l-46 -184h-38z" />
    <glyph glyph-name="numbersign" unicode="#" 
d="M314 220h-124l-38 -162h-71l38 162h-81l19 64h77l31 132h-77l19 64h74l39 162h70l-38 -162h124l39 162h70l-39 -162h79l-22 -64h-73l-31 -132h76l-22 -64h-69l-38 -162h-70zM205 284h124l31 132h-124z" />
    <glyph glyph-name="dollar" unicode="$" 
d="M246 -12c-20 0 -40.0039 1.50098 -60.0039 4.50098s-38.667 6.83301 -56 11.5s-32.666 9.83398 -45.999 15.501s-23.333 11.5 -30 17.5c1.33301 26 4.83301 51.833 10.5 77.5s11.167 45.834 16.5 60.501h42l51 -97c6.66699 -5.33301 15.5 -10.5 26.5 -15.5
s26.167 -8.16699 45.5 -9.5v253c-1.33301 0.666992 -2.83301 1.16699 -4.5 1.5s-3.16699 1.16602 -4.5 2.49902l-23 10c-20.667 8.66699 -40.667 19.167 -60 31.5s-36.666 26.666 -51.999 42.999s-27.666 35.5 -36.999 57.5s-14 47 -14 75
c0 27.333 4.83301 51.833 14.5 73.5s23.167 40.167 40.5 55.5s38 27.666 62 36.999s50 15 78 17v50h70v-49c32 -1.33301 60.833 -5 86.5 -11s50.167 -14 73.5 -24c0 -10 -0.833008 -20.5 -2.5 -31.5s-3.83398 -21.667 -6.50098 -32s-5.66699 -19.833 -9 -28.5
s-6.33301 -15.334 -9 -20.001h-41l-51 77c-5.33301 1.33301 -11.166 2.5 -17.499 3.5s-14.166 1.5 -23.499 1.5v-240l38 -16c20 -9.33301 40 -19.833 60 -31.5s37.833 -25.5 53.5 -41.5s28.334 -34.667 38.001 -56s14.5 -46.666 14.5 -75.999
c0 -52.667 -17.333 -96 -52 -130s-85.334 -55.333 -152.001 -64v-61h-70v58zM389.996 166.001c0 28.667 -8.00098 51.5 -24.001 68.5s-36 31.833 -60 44.5v-221c26.667 7.33301 47.334 20 62.001 38s22 41.333 22 70zM174.995 546.001c0 -28 7.66699 -50.5 23 -67.5
s34.666 -31.833 57.999 -44.5v210c-25.333 -3.33301 -45.166 -13.5 -59.499 -30.5s-21.5 -39.5 -21.5 -67.5z" />
    <glyph glyph-name="percent" unicode="%" horiz-adv-x="848" 
d="M691 715l48 -42l-585 -686l-47 43zM42 542c0 26 4.66699 49.333 14 70s22.5 38.5 39.5 53.5s37.167 26.5 60.5 34.5s49.333 12 78 12s54.834 -3.5 78.501 -10.5s43.834 -17.5 60.501 -31.5s29.667 -31.667 39 -53s14 -46.333 14 -75c0 -26 -4.66699 -49.5 -14 -70.5
s-22.333 -38.833 -39 -53.5s-36.834 -26 -60.501 -34s-49.834 -12 -78.501 -12s-54.667 3.5 -78 10.5s-43.5 17.5 -60.5 31.5s-30.167 31.667 -39.5 53s-14 46.333 -14 75zM162 542c0 -79.333 24.001 -119 72.001 -119c23.333 0 41.166 8.83301 53.499 26.5
s18.5 48.5 18.5 92.5s-6.16699 74.833 -18.5 92.5s-30.166 26.5 -53.499 26.5c-24.667 0 -42.834 -8.83301 -54.501 -26.5s-17.5 -48.5 -17.5 -92.5zM422.001 159c0 26 4.66699 49.333 14 70s22.5 38.5 39.5 53.5s37.167 26.5 60.5 34.5s49.333 12 78 12
s54.834 -3.5 78.501 -10.5s43.834 -17.5 60.501 -31.5s29.667 -31.667 39 -53s14 -46.333 14 -75c0 -26 -4.66699 -49.5 -14 -70.5s-22.333 -38.833 -39 -53.5s-36.834 -26 -60.501 -34s-49.834 -12 -78.501 -12s-54.667 3.5 -78 10.5s-43.5 17.5 -60.5 31.5
s-30.167 31.667 -39.5 53s-14 46.333 -14 75zM542.001 159c0 -79.333 24.001 -119 72.001 -119c23.333 0 41.166 8.83301 53.499 26.5s18.5 48.5 18.5 92.5s-6.16699 74.833 -18.5 92.5s-30.166 26.5 -53.499 26.5c-24.667 0 -42.834 -8.83301 -54.501 -26.5
s-17.5 -48.5 -17.5 -92.5z" />
    <glyph glyph-name="ampersand" unicode="&#x26;" horiz-adv-x="896" 
d="M529 116c-21.333 18 -42.999 38.668 -64.999 62.001s-42.833 47 -62.5 71s-37.5 47.333 -53.5 70s-28.667 42 -38 58c-19.333 -24 -33.333 -46.833 -42 -68.5s-13 -47.167 -13 -76.5c0 -24.667 4 -47.334 12 -68.001s19.167 -38.5 33.5 -53.5s31.166 -26.667 50.499 -35
s40.333 -12.5 63 -12.5c20 0 40.5 4.16699 61.5 12.5s38.833 21.833 53.5 40.5zM324.001 582.001c0 -10 1.99609 -21.001 5.99609 -33.001s9.16699 -24 15.5 -36s13.333 -23.667 21 -35s15.167 -21.333 22.5 -30c22.667 17.333 39.334 38.333 50.001 63s15.334 51 14.001 79
c-1.33301 18.667 -7.16602 34.5 -17.499 47.5s-26.166 19.5 -47.499 19.5c-22 0 -38.167 -7.66699 -48.5 -23s-15.5 -32.666 -15.5 -51.999zM675.997 0c-13.333 8 -29.002 17.4951 -47.002 28.4951s-35.667 25.167 -53 42.5c-20.667 -21.333 -49.667 -40.5 -87 -57.5
s-80 -25.5 -128 -25.5c-44.667 0 -83.167 6.16699 -115.5 18.5s-58.833 28.333 -79.5 48s-36 41.834 -46 66.501s-15 49.667 -15 75c0 30.667 5.83301 58.834 17.5 84.501s25.834 48.5 42.501 68.5s34.5 37.167 53.5 51.5s35.5 25.5 49.5 33.5c-16.667 18 -31 39.667 -43 65
s-18 50.333 -18 75c0 16.667 3.5 33.334 10.5 50.001s17.667 31.5 32 44.5s32 23.5 53 31.5s45.5 12 73.5 12c48 0 87 -10.667 117 -32s45 -52 45 -92c0 -19.333 -3.33301 -37.666 -10 -54.999s-15.5 -33.666 -26.5 -48.999s-23.667 -29.833 -38 -43.5
s-29.5 -26.167 -45.5 -37.5c46 -63.333 109 -130.666 189 -201.999c5.33301 7.33301 11.333 19.666 18 36.999s12.334 37 17.001 59s7.66699 45.333 9 70s-0.666992 48 -6 70c-10.667 2 -20 5 -28 9s-16.333 9 -25 15v39h228v-39c-18 -11.333 -40 -19.333 -66 -24
c-3.33301 -28.667 -8.33301 -57 -15 -85s-14.5 -54.333 -23.5 -79s-18.5 -46.667 -28.5 -66s-20 -34.333 -30 -45c23.333 -20.667 47 -39 71 -55s47.667 -30.667 71 -44l51 -24v-39h-174z" />
    <glyph glyph-name="quotesingle" unicode="'" horiz-adv-x="240" 
d="M65 670c3.33301 8.66699 11.168 15.833 23.501 21.5s26.166 8.5 41.499 8.5c14 0 27.5 -2.5 40.5 -7.5s21.167 -12.5 24.5 -22.5l-46 -184h-38z" />
    <glyph glyph-name="parenleft" unicode="(" horiz-adv-x="375" 
d="M327 -210c-32 19.333 -64.498 41.834 -97.498 67.501s-62.833 56.5 -89.5 92.5s-48.334 77.833 -65.001 125.5s-25 103.5 -25 167.5c0 58 7.83301 110.167 23.5 156.5s36.5 88 62.5 125s55.833 70 89.5 99s68.5 55.167 104.5 78.5l30 -31
c-26.667 -28.667 -50.5 -57.5 -71.5 -86.5s-38.833 -60.5 -53.5 -94.5s-25.834 -71 -33.501 -111s-11.5 -85.333 -11.5 -136c0 -48.667 4.16699 -93.334 12.5 -134.001s20 -78.167 35 -112.5s33 -65.833 54 -94.5s43.833 -55 68.5 -79z" />
    <glyph glyph-name="parenright" unicode=")" horiz-adv-x="375" 
d="M15 -177c24.667 24 47.332 50.8301 67.999 80.4971s38.5 62.334 53.5 98.001s26.667 74.334 35 116.001s12.5 86.834 12.5 135.501c0 50.667 -3.83301 95.834 -11.5 135.501s-18.667 75.834 -33 108.501s-32 63 -53 91s-44.833 55.667 -71.5 83l30 31
c38 -22 73.833 -47.333 107.5 -76s63.334 -61.334 89.001 -98.001s46 -77.667 61 -123s22.5 -96 22.5 -152c0 -56.667 -6.83301 -108.5 -20.5 -155.5s-32.667 -89.5 -57 -127.5s-53.5 -71.833 -87.5 -101.5s-71.333 -55.834 -112 -78.501z" />
    <glyph glyph-name="asterisk" unicode="*" horiz-adv-x="463" 
d="M58 597c-4 5.33301 -4.83301 13.5 -2.5 24.5s6.5 22 12.5 33s13.333 20.667 22 29s17 12.833 25 13.5l91 -106c0 -10 -4.33301 -17.333 -13 -22zM118 429c-7.33301 0 -15.167 4.16699 -23.5 12.5s-15.833 18 -22.5 29s-11.667 22.167 -15 33.5s-3.33301 20 0 26l135 26
c9.33301 -5.33301 14 -12.333 14 -21zM290.999 395c-2.66699 -5.33301 -9.50098 -9.50098 -20.501 -12.501s-22.833 -4.66699 -35.5 -5s-24.667 0.833984 -36 3.50098s-18.666 6.66699 -21.999 12l43 131c9.33301 5.33301 18.333 5.33301 27 0zM404.998 529.999
c4 -7.33301 4.83301 -16.666 2.5 -27.999s-6.33301 -22.333 -12 -33s-12.667 -19.834 -21 -27.501s-16.5 -11.5 -24.5 -11.5l-88 103c0 8.66699 4 15.667 12 21zM351.998 695.999c8 0.666992 15.834 -2.5 23.501 -9.5s14.167 -15.667 19.5 -26s9.16602 -21.333 11.499 -33
s2.5 -21.5 0.5 -29.5l-134 -30c-8 6 -12 13.333 -12 22zM176.999 730.999c2.66699 6 9.33301 10.667 20 14s22.334 5 35.001 5s24.5 -1.5 35.5 -4.5s18.167 -7.83301 21.5 -14.5l-43 -131c-8.66699 -5.33301 -17.334 -5.33301 -26.001 0z" />
    <glyph glyph-name="plus" unicode="+" 
d="M57 384h185v196h80v-196h185v-80h-185v-202h-80v202h-185v80z" />
    <glyph glyph-name="comma" unicode="," horiz-adv-x="306" 
d="M53 -131c13.333 4 25.3311 10 35.998 18s19.834 17 27.501 27s13.5 20.667 17.5 32s5.66699 22.333 5 33c-9.33301 12 -20.5 21.667 -33.5 29s-26.833 13.333 -41.5 18c-3.33301 14 -3.83301 28 -1.5 42s6.83301 27 13.5 39s14.5 22.167 23.5 30.5s18.5 13.5 28.5 15.5
c14 -0.666992 27.667 -3.83398 41 -9.50098s25.333 -13.667 36 -24s19.167 -23.5 25.5 -39.5s9.5 -34.667 9.5 -56c0 -20.667 -4.16699 -41.667 -12.5 -63s-19.666 -41.166 -33.999 -59.499s-31.5 -34.333 -51.5 -48s-42 -23.167 -66 -28.5z" />
    <glyph glyph-name="hyphen" unicode="-" horiz-adv-x="414" 
d="M66 327h282v-90h-282v90z" />
    <glyph glyph-name="period" unicode="." horiz-adv-x="296" 
d="M63 71c0 24 7.66699 43.333 23 58s35.666 22 60.999 22s46 -7.33301 62 -22s24 -34 24 -58s-8 -43.167 -24 -57.5s-36.667 -21.5 -62 -21.5s-45.666 7.16699 -60.999 21.5s-23 33.5 -23 57.5z" />
    <glyph glyph-name="slash" unicode="/" horiz-adv-x="344" 
d="M318 716l60 -25l-365 -824l-59 26z" />
    <glyph glyph-name="zero" unicode="0" 
d="M23 350c0 60 6.50195 112.5 19.502 157.5s31 82.667 54 113s50.333 53.166 82 68.499s66.167 23 103.5 23c80 0 143.333 -30.167 190 -90.5s70 -150.833 70 -271.5c0 -60 -6.5 -112.5 -19.5 -157.5s-31.333 -82.667 -55 -113s-51.834 -53.166 -84.501 -68.499
s-68.334 -23 -107.001 -23c-40.667 0 -76.667 8.16699 -108 24.5s-57.833 40 -79.5 71s-38 68.833 -49 113.5s-16.5 95.667 -16.5 153zM173.002 350c0 -48 1.5 -91.001 4.5 -129.001s8.5 -70.167 16.5 -96.5s18.5 -46.5 31.5 -60.5s29.5 -21 49.5 -21
c23.333 0 42.5 5.66699 57.5 17s27 29.333 36 54s15.167 56.334 18.5 95.001s5 85.667 5 141c0 48 -1.33301 91 -4 129s-7.83398 70.167 -15.501 96.5s-18.667 46.5 -33 60.5s-33.5 21 -57.5 21c-21.333 0 -39 -5.66699 -53 -17s-25.167 -29.333 -33.5 -54
s-14.166 -56.5 -17.499 -95.5s-5 -85.833 -5 -140.5z" />
    <glyph glyph-name="one" unicode="1" 
d="M466 0h-346.002v43c16.667 7.33301 33.5 13.833 50.5 19.5s34.167 10.5 51.5 14.5v459l4 59c-18.667 -6 -38 -10 -58 -12s-40.667 -2.66699 -62 -2l-5 37c35.333 9.33301 73.833 22 115.5 38s80.167 34.667 115.5 56h34v-635c16.667 -4 33.334 -8.83301 50.001 -14.5
s33.334 -12.167 50.001 -19.5v-43z" />
    <glyph glyph-name="two" unicode="2" 
d="M141 478l-34.001 0.00488281c-4 10 -8.5 21.667 -13.5 35s-10.167 27.333 -15.5 42s-10.333 29.167 -15 43.5s-8.33398 27.5 -11.001 39.5c23.333 20 53.166 37.333 89.499 52s80.5 22 132.5 22c36.667 0 68.334 -4.66699 95.001 -14s48.834 -22.333 66.501 -39
s30.667 -36 39 -58s12.5 -45.667 12.5 -71c0 -40.667 -9.33301 -79.167 -28 -115.5s-41.667 -70.333 -69 -102s-56.666 -61 -87.999 -88s-59.666 -51.5 -84.999 -73.5l-52 -35v-4l61 6h172l49 112h34c2 -16 4.16699 -34.667 6.5 -56s4.5 -42.833 6.5 -64.5
s3.66699 -42.334 5 -62.001s2 -35.5 2 -47.5h-458v64c17.333 15.333 37 33.166 59 53.499s44.333 42.666 67 66.999s45 50.166 67 77.499s41.667 55.166 59 83.499s31.166 57.166 41.499 86.499s15.5 58 15.5 86c0 36.667 -9.83301 66.5 -29.5 89.5s-47.5 34.5 -83.5 34.5
c-11.333 0 -21.5 -0.666992 -30.5 -2s-19.167 -3.66602 -30.5 -6.99902z" />
    <glyph glyph-name="three" unicode="3" 
d="M257 53c15.333 0 30.333 3.50586 45 10.5059s27.834 16.833 39.501 29.5s21 27.667 28 45s10.5 36 10.5 56c0 22.667 -3.83301 42.167 -11.5 58.5s-17.667 29.833 -30 40.5s-26.5 18.5 -42.5 23.5s-32 7.5 -48 7.5h-58v40l150 196l34 35v4l-54 -6h-151l-39 -102h-34
c-3.33301 14 -6.83301 30.667 -10.5 50s-7 38.666 -10 57.999s-5.33301 38 -7 56s-2.5 33 -2.5 45h436v-49l-173 -211l-43 -44v-2l34 7c31.333 -1.33301 59.5 -7.16602 84.5 -17.499s46 -24.333 63 -42s30 -38.167 39 -61.5s13.5 -49 13.5 -77
c0 -33.333 -7.16699 -63.333 -21.5 -90s-33.5 -49.334 -57.5 -68.001s-52 -32.834 -84 -42.501s-65.667 -14.5 -101 -14.5c-20 0 -40 1.5 -60 4.5s-38.833 7.16699 -56.5 12.5s-33.667 11.666 -48 18.999s-26.5 15.333 -36.5 24l37 104h29
c4 -4.66699 9.5 -10.834 16.5 -18.501s14.333 -15.834 22 -24.501s15.167 -17.334 22.5 -26.001s13.666 -16 18.999 -22c6.66699 -1.33301 14.167 -3 22.5 -5s19.5 -3 33.5 -3z" />
    <glyph glyph-name="four" unicode="4" 
d="M513 0h-309.001v43c32.667 11.333 63.334 19.333 92.001 24v113h-296v45l383 487h54v-467h123v-65h-123v-113c26 -5.33301 51.333 -13.333 76 -24v-43zM295.999 458l10 70h-3l-38 -70l-145 -187l-40 -33l71 7h145v213z" />
    <glyph glyph-name="five" unicode="5" 
d="M455 755l34.0029 -0.000976562c0 -10 -0.333008 -23 -1 -39s-2 -32.333 -4 -49s-4.33301 -32.5 -7 -47.5s-5.33398 -26.5 -8.00098 -34.5h-274l-18 -143h83c36 0 68.667 -4.83301 98 -14.5s54.333 -23.667 75 -42s36.667 -40.666 48 -66.999s17 -56.5 17 -90.5
c0 -38 -7.16699 -71.833 -21.5 -101.5s-33.833 -54.667 -58.5 -75s-53.667 -36 -87 -47s-69.333 -16.5 -108 -16.5s-74 6.16699 -106 18.5s-57.667 26.166 -77 41.499l42 99h29c4.66699 -4.66699 10 -10.667 16 -18s12.333 -15 19 -23s13 -16 19 -24s11.333 -15 16 -21
c6.66699 -2.66699 12.834 -4.66699 18.501 -6s13.167 -2 22.5 -2c20 0 38.667 3.5 56 10.5s32.166 16.833 44.499 29.5s22.166 27.834 29.499 45.501s11 37.167 11 58.5c0 23.333 -4.5 43.833 -13.5 61.5s-21.167 32.167 -36.5 43.5s-33.333 19.833 -54 25.5
s-42.334 8.5 -65.001 8.5l-87 -1l40 365h261z" />
    <glyph glyph-name="six" unicode="6" 
d="M536 215c0 -34.667 -6.49805 -66 -19.498 -94s-30.5 -51.833 -52.5 -71.5s-47.833 -34.834 -77.5 -45.501s-61.167 -16 -94.5 -16c-41.333 0 -77.833 6.5 -109.5 19.5s-58.167 31.167 -79.5 54.5s-37.5 51 -48.5 83s-16.5 67 -16.5 105c0 62.667 11 120 33 172
s51.667 98 89 138s80.833 73.333 130.5 100s102.5 46 158.5 58l15 -43c-36 -11.333 -69.333 -26.666 -100 -45.999s-57.834 -42.833 -81.501 -70.5s-43 -59 -58 -94s-24.5 -73.5 -28.5 -115.5c5.33301 8.66699 12.166 17.167 20.499 25.5s18.5 16 30.5 23
s25.833 12.667 41.5 17s33.5 6.5 53.5 6.5c27.333 0 52.833 -4.33301 76.5 -13s44.167 -21.667 61.5 -39s31 -38.833 41 -64.5s15 -55.5 15 -89.5zM386.002 203c0 98.667 -33.001 147.997 -99.001 147.997c-22.667 0 -42 -5.83301 -58 -17.5s-27.667 -25.167 -35 -40.5
c-2 -9.33301 -3.5 -20.166 -4.5 -32.499s-1.5 -24.166 -1.5 -35.499c0 -22.667 2 -44.5 6 -65.5s10.333 -39.667 19 -56s19.834 -29.5 33.501 -39.5s30.167 -15 49.5 -15c16.667 0 30.667 4.16699 42 12.5s20.5 19.5 27.5 33.5s12.167 30.333 15.5 49s5 38.334 5 59.001z
" />
    <glyph glyph-name="seven" unicode="7" 
d="M117 481h-34c-3.33301 14 -6.66602 31.167 -9.99902 51.5s-6.5 40.833 -9.5 61.5s-5.5 40.5 -7.5 59.5s-3 34.5 -3 46.5h468v-47c-36 -56 -66.333 -108.667 -91 -158s-45.334 -99.333 -62.001 -150s-30.5 -103.667 -41.5 -159s-20.5 -117.333 -28.5 -186h-142
c24 96.667 55 188.667 93 276s83 175.333 135 264l37 48l-50 -5h-215z" />
    <glyph glyph-name="eight" unicode="8" 
d="M35 157c0 46.667 15 85.833 45 117.5s69.333 55.167 118 70.5c-40 22.667 -72.333 49.5 -97 80.5s-37 66.833 -37 107.5c0 26 5.16699 49.833 15.5 71.5s25.166 40.5 44.499 56.5s42.833 28.5 70.5 37.5s58.834 13.5 93.501 13.5c32 0 61.167 -4 87.5 -12
s48.833 -19 67.5 -33s33 -31 43 -51s15 -42 15 -66c0 -40 -13.333 -74.667 -40 -104s-60.334 -50.333 -101.001 -63c28.667 -15.333 53.5 -30.666 74.5 -45.999s38.5 -31.333 52.5 -48s24.5 -34.334 31.5 -53.001s10.5 -39 10.5 -61c0 -26 -5.5 -50.333 -16.5 -73
s-27 -42.5 -48 -59.5s-47 -30.333 -78 -40s-66.833 -14.5 -107.5 -14.5c-37.333 0 -71.166 4.33301 -101.499 13s-56 20.5 -77 35.5s-37.167 32.833 -48.5 53.5s-17 43 -17 67zM387 145.999c0 22.667 -4.16504 41.999 -12.498 57.999s-19.333 30.5 -33 43.5
s-29.667 25 -48 36l-57.5 34.5c-23.333 -18 -39.333 -39.333 -48 -64s-13 -48.667 -13 -72c0 -16 2 -32 6 -48s10.5 -30.167 19.5 -42.5s20.5 -22.5 34.5 -30.5s31.333 -12 52 -12c16.667 0 31.167 2.66699 43.5 8s22.666 12.5 30.999 21.5s14.666 19.333 18.999 31
s6.5 23.834 6.5 36.501zM200.002 553.998c0 -32 11.167 -60.167 33.5 -84.5s51.166 -45.5 86.499 -63.5c18.667 17.333 31.834 36.5 39.501 57.5s11.5 45.167 11.5 72.5c0 38.667 -7.83301 67.5 -23.5 86.5s-36.167 28.5 -61.5 28.5c-30 0 -51.833 -9.33301 -65.5 -28
s-20.5 -41.667 -20.5 -69z" />
    <glyph glyph-name="nine" unicode="9" 
d="M38 482c0 34 6.00098 65.002 18.001 93.002s28.833 52.167 50.5 72.5s47.5 36.166 77.5 47.499s63.333 17 100 17c38.667 0 73.334 -6.5 104.001 -19.5s56.667 -31.167 78 -54.5s37.5 -51.833 48.5 -85.5s16.5 -70.834 16.5 -111.501c0 -62 -9.33301 -119.167 -28 -171.5
s-45 -98.333 -79 -138s-74.833 -72 -122.5 -97s-100.167 -40.5 -157.5 -46.5l-23 43c76.667 20 135.667 56 177 108s67.333 116 78 192c-12.667 -16.667 -29.334 -30.334 -50.001 -41.001s-47.334 -16 -80.001 -16c-28.667 0 -55.5 4.33301 -80.5 13s-47 21.834 -66 39.501
s-34 39.5 -45 65.5s-16.5 56 -16.5 90zM188.001 488.002c0 -19.333 2.16699 -37.6709 6.5 -55.0039s10.833 -32.666 19.5 -45.999s19.334 -23.833 32.001 -31.5s27.667 -11.5 45 -11.5c20 0 37.667 3.83301 53 11.5s27 18.167 35 31.5
c1.33301 8.66699 2.33301 19.334 3 32.001s1 25 1 37c0 26 -1.83301 50.833 -5.5 74.5s-9.5 44.334 -17.5 62.001s-18.333 31.834 -31 42.501s-28.334 16 -47.001 16c-33.333 0 -57.333 -13.5 -72 -40.5s-22 -67.833 -22 -122.5z" />
    <glyph glyph-name="colon" unicode=":" horiz-adv-x="343" 
d="M110 429c0 24 7.66699 43.333 23 58s35.666 22 60.999 22s46 -7.33301 62 -22s24 -34 24 -58s-8 -43.167 -24 -57.5s-36.667 -21.5 -62 -21.5s-45.666 7.16699 -60.999 21.5s-23 33.5 -23 57.5zM110 71c0 24 7.66699 43.333 23 58s35.666 22 60.999 22
s46 -7.33301 62 -22s24 -34 24 -58s-8 -43.167 -24 -57.5s-36.667 -21.5 -62 -21.5s-45.666 7.16699 -60.999 21.5s-23 33.5 -23 57.5z" />
    <glyph glyph-name="semicolon" unicode=";" horiz-adv-x="348" 
d="M112 429c0 24 7.66699 43.333 23 58s35.666 22 60.999 22s46 -7.33301 62 -22s24 -34 24 -58s-8 -43.167 -24 -57.5s-36.667 -21.5 -62 -21.5s-45.666 7.16699 -60.999 21.5s-23 33.5 -23 57.5zM102 -131c13.333 4 25.3311 10 35.998 18s19.834 17 27.501 27
s13.5 20.667 17.5 32s5.66699 22.333 5 33c-9.33301 12 -20.5 21.667 -33.5 29s-26.833 13.333 -41.5 18c-3.33301 14 -3.83301 28 -1.5 42s6.83301 27 13.5 39s14.5 22.167 23.5 30.5s18.5 13.5 28.5 15.5c14 -0.666992 27.667 -3.83398 41 -9.50098s25.333 -13.667 36 -24
s19.167 -23.5 25.5 -39.5s9.5 -34.667 9.5 -56c0 -20.667 -4.16699 -41.667 -12.5 -63s-19.666 -41.166 -33.999 -59.499s-31.5 -34.333 -51.5 -48s-42 -23.167 -66 -28.5z" />
    <glyph glyph-name="less" unicode="&#x3c;" 
d="M65 324v31l385 235l36 -65l-213 -128l-82 -34l81 -31l233 -137l-56 -92z" />
    <glyph glyph-name="equal" unicode="=" 
d="M57 469h450v-80h-450v80zM57 299h450v-80h-450v80z" />
    <glyph glyph-name="greater" unicode="&#x3e;" 
d="M513 369v-31l-385 -235l-36 65l213 128l82 34l-81 31l-233 136l56 93z" />
    <glyph glyph-name="question" unicode="?" horiz-adv-x="486" 
d="M135 501l-34.002 0.00195312c-4 8.66699 -8.33301 19.5 -13 32.5s-9.16699 26.667 -13.5 41s-8.16602 29 -11.499 44s-5.66602 29.167 -6.99902 42.5c25.333 15.333 54.166 27.666 86.499 36.999s73.5 14 123.5 14c30 0 56.833 -4.16699 80.5 -12.5
s44 -19.666 61 -33.999s30 -31.5 39 -51.5s13.5 -41.667 13.5 -65c0 -30 -5.66699 -55.667 -17 -77s-25.333 -40.166 -42 -56.499s-34.834 -31.333 -54.501 -45s-38 -28.334 -55 -44.001s-31.167 -33.167 -42.5 -52.5s-17 -43 -17 -71h-33
c-9.33301 30.667 -12.833 57.167 -10.5 79.5s7.83301 42.5 16.5 60.5s19.334 34.333 32.001 49s24.834 29.667 36.501 45s21.667 31.666 30 48.999s12.5 37.333 12.5 60c0 12.667 -1.5 25.167 -4.5 37.5s-8 23.166 -15 32.499s-16 16.833 -27 22.5s-24.5 8.5 -40.5 8.5
c-14 0 -26.333 -1.33301 -37 -4s-18.667 -6 -24 -10zM141.998 71.002c0 24 7.66699 43.333 23 58s35.666 22 60.999 22s46 -7.33301 62 -22s24 -34 24 -58s-8 -43.167 -24 -57.5s-36.667 -21.5 -62 -21.5s-45.666 7.16699 -60.999 21.5s-23 33.5 -23 57.5z" />
    <glyph glyph-name="at" unicode="@" horiz-adv-x="1064" 
d="M647 465c16 7.33301 35.1641 12.667 57.4971 16s44.833 4.66602 67.5 3.99902l-49 -278c-8 -42.667 -11.5 -74.5 -10.5 -95.5s10.833 -31.5 29.5 -31.5c15.333 0 32.833 5 52.5 15s38.167 25.167 55.5 45.5s32 46 44 77s18 67.167 18 108.5
c0 50.667 -9.16699 96 -27.5 136s-43.666 73.667 -75.999 101s-70.666 48.166 -114.999 62.499s-92.166 21.5 -143.499 21.5c-58 0 -111.167 -10.167 -159.5 -30.5s-89.833 -48.5 -124.5 -84.5s-61.667 -78.833 -81 -128.5s-29 -103.5 -29 -161.5
c0 -59.333 9.83301 -111.166 29.5 -155.499s46.834 -81.5 81.501 -111.5s75.834 -52.5 123.501 -67.5s99.5 -22.5 155.5 -22.5c19.333 0 41.333 2.33301 66 7s47 11.667 67 21l16 -57c-23.333 -13.333 -49 -22.666 -77 -27.999s-59 -8 -93 -8
c-59.333 0 -115.833 8.66699 -169.5 26s-100.834 43.333 -141.501 78s-73 78 -97 130s-36 112.667 -36 182c0 72.667 12.5 138.334 37.5 197.001s59 108.667 102 150s93.167 73.166 150.5 95.499s118.666 33.5 183.999 33.5c63.333 0 121.5 -8.83301 174.5 -26.5
s98.5 -43 136.5 -76s67.667 -73.333 89 -121s32 -101.834 32 -162.501c0 -46.667 -8.5 -89.167 -25.5 -127.5s-39.167 -71.333 -66.5 -99s-58.333 -49 -93 -64s-69.667 -22.5 -105 -22.5c-20 0 -37.333 2.5 -52 7.5s-26.667 13.5 -36 25.5s-15.5 27.667 -18.5 47
s-2.5 43.333 1.5 72h-4c-6 -18 -14.833 -36.167 -26.5 -54.5s-25 -34.666 -40 -48.999s-31.5 -26 -49.5 -35s-36.333 -13.5 -55 -13.5c-45.333 0 -79.5 14.667 -102.5 44s-34.5 66.666 -34.5 111.999c0 39.333 6.5 78.333 19.5 117s31 73.167 54 103.5s50.5 55 82.5 74
s67 28.5 105 28.5c23.333 0 42.833 -2.16699 58.5 -6.5s31.5 -11.166 47.5 -20.499zM626.997 415.001c-7.33301 5.33301 -15 9.33301 -23 12s-17.667 4 -29 4c-22.667 0 -43.667 -8.66699 -63 -26s-36 -39.333 -50 -66s-25 -55.5 -33 -86.5s-12 -59.833 -12 -86.5
c0 -22.667 4 -40.5 12 -53.5s21.667 -19.5 41 -19.5c11.333 0 22.833 4.66699 34.5 14s23 21.5 34 36.5s21.667 32 32 51s19.833 37.833 28.5 56.5z" />
    <glyph glyph-name="A" unicode="A" horiz-adv-x="729" 
d="M247 0h-247v38c10.667 6.66699 22.167 12.5 34.5 17.5s24.5 8.83301 36.5 11.5l258 645h74l251 -645c13.333 -2.66699 26.666 -6.5 39.999 -11.5s25 -10.833 35 -17.5v-38h-313v38c12.667 6 26.334 11.667 41.001 17s28.667 9.33301 42 12l-58 159h-222l-59 -159
c30.667 -4 59.667 -13.667 87 -29v-38zM243 291h177l-65 191l-19 86h-2l-22 -88z" />
    <glyph glyph-name="B" unicode="B" horiz-adv-x="649" 
d="M20 0l0.00292969 38.001c12.667 7.33301 26.167 13.666 40.5 18.999s28.166 8.66602 41.499 9.99902v566c-13.333 2.66699 -27.333 6.5 -42 11.5s-28 10.833 -40 17.5v38h161c25.333 0 49.333 1 72 3s48.667 3 78 3c32 0 63 -2.33301 93 -7s56.667 -13 80 -25
s42 -28.833 56 -50.5s21 -49.5 21 -83.5c0 -21.333 -3.83301 -41.166 -11.5 -59.499s-18.334 -34.5 -32.001 -48.5s-29.667 -25.667 -48 -35s-38.166 -16 -59.499 -20v-4c21.333 -2.66699 42.833 -7.66699 64.5 -15s41.167 -18 58.5 -32s31.5 -31.5 42.5 -52.5
s16.5 -45.833 16.5 -74.5c0 -36 -8 -67 -24 -93s-37.5 -47.333 -64.5 -64s-57.833 -28.834 -92.5 -36.501s-70.667 -11.5 -108 -11.5c-14 0 -29.333 0.333008 -46 1l-50 2c-16.667 0.666992 -32.834 1.33398 -48.501 2.00098s-28.834 1 -39.501 1h-119zM322.003 59.001
c42 0 75.001 12.5 99.001 37.5s36 58.167 36 99.5c0 25.333 -4 46.166 -12 62.499s-19 29.333 -33 39s-30.667 16.334 -50 20.001s-40.333 5.5 -63 5.5h-53v-257c9.33301 -2 19.166 -3.66699 29.499 -5s25.833 -2 46.5 -2zM278.004 388.001c11.333 0 22.6689 0.5 34.002 1.5
s22 2.16699 32 3.5c26 10.667 47 27.167 63 49.5s24 47.833 24 76.5c0 42 -11 72.833 -33 92.5s-50.333 29.5 -85 29.5c-14.667 0 -27.334 -0.333008 -38.001 -1s-20.334 -1.66699 -29.001 -3v-249h32z" />
    <glyph glyph-name="C" unicode="C" horiz-adv-x="652" 
d="M540 210l40.999 -0.000976562c2.66699 -10.667 5.16699 -23.5 7.5 -38.5s4.33301 -31 6 -48s2.83398 -33.833 3.50098 -50.5s1 -31.667 1 -45c-23.333 -14.667 -52.5 -25 -87.5 -31s-70.833 -9 -107.5 -9c-55.333 0 -105.5 6.83301 -150.5 20.5
s-83.333 35.334 -115 65.001s-56.167 67.334 -73.5 113.001s-26 100.5 -26 164.5c0 63.333 9.5 117.833 28.5 163.5s44.5 83.167 76.5 112.5s69.167 50.833 111.5 64.5s86.833 20.5 133.5 20.5c44 0 83.833 -3.16699 119.5 -9.5s64.834 -14.833 87.501 -25.5
c0 -10.667 -0.5 -24.334 -1.5 -41.001s-2.66699 -34.167 -5 -52.5s-5 -36.333 -8 -54s-5.83301 -32.5 -8.5 -44.5h-42l-55 151c-6 3.33301 -15.667 6 -29 8s-27 3 -41 3c-27.333 0 -53 -5.5 -77 -16.5s-45.333 -28.5 -64 -52.5s-33.334 -54.833 -44.001 -92.5
s-16 -82.834 -16 -135.501c0 -95.333 19 -168.666 57 -219.999s89.667 -77 155 -77c18.667 0 34.5 1.5 47.5 4.5s21.833 7.16699 26.5 12.5z" />
    <glyph glyph-name="D" unicode="D" horiz-adv-x="736" 
d="M20 0l0.000976562 37.9971c11.333 6.66699 24 12.5 38 17.5s28.667 8.83301 44 11.5v566c-15.333 3.33301 -30.166 7.5 -44.499 12.5s-26.833 10.5 -37.5 16.5v38h116c11.333 0 25.333 0.333008 42 1s34 1.5 52 2.5s35.5 2 52.5 3s31.5 1.5 43.5 1.5
c58 0 109.833 -7.66699 155.5 -23s84.334 -37.666 116.001 -66.999s56 -65.666 73 -108.999s25.5 -93.333 25.5 -150c0 -55.333 -8 -105.666 -24 -150.999s-40 -84 -72 -116s-72.5 -56.833 -121.5 -74.5s-106.5 -26.5 -172.5 -26.5c-8.66699 0 -20.334 0.5 -35.001 1.5
s-30.334 2 -47.001 3l-50 3c-16.667 1 -31.334 1.5 -44.001 1.5h-110zM313.001 642.997c-12 0 -24.001 -0.334961 -36.001 -1.00195s-22.333 -1.66699 -31 -3v-579c2.66699 -0.666992 7.33398 -1.16699 14.001 -1.5s13.5 -0.666016 20.5 -0.999023
s13.833 -0.666016 20.5 -0.999023s11.667 -0.5 15 -0.5c38.667 0 71.5 8 98.5 24s49.167 37.667 66.5 65s30 59.333 38 96s12 75.667 12 117c0 36.667 -4.16699 72 -12.5 106s-21.166 64.333 -38.499 91s-39.833 48 -67.5 64s-60.834 24 -99.501 24z" />
    <glyph glyph-name="E" unicode="E" horiz-adv-x="604" 
d="M546 700c-1.33301 -30 -3.66992 -61 -7.00293 -93s-7.66602 -62 -12.999 -90h-41l-46 118h-187v-245h122l44 77h32c3.33301 -32.667 5 -69 5 -109s-1.66699 -77.333 -5 -112h-32l-44 79h-122v-260h195l53 127h41c2.66699 -12.667 5.33398 -27 8.00098 -43
s4.83398 -32.5 6.50098 -49.5s3 -34.167 4 -51.5s1.5 -33.333 1.5 -48h-541v38c11.333 6 24 11.667 38 17s28.667 9.33301 44 12v566c-13.333 2.66699 -27.5 6.5 -42.5 11.5s-28.167 10.833 -39.5 17.5v38h526z" />
    <glyph glyph-name="F" unicode="F" horiz-adv-x="575" 
d="M242 67c30.667 -4 59.667 -13.665 87 -28.998v-38h-309v38c10.667 6 22 11.5 34 16.5s24.667 9.16699 38 12.5v566c-15.333 3.33301 -28.833 7.66602 -40.5 12.999s-22.167 10.666 -31.5 15.999v38h523c0 -13.333 -0.666992 -27.833 -2 -43.5s-2.83301 -31.667 -4.5 -48
s-3.66699 -32.333 -6 -48s-4.83301 -30.167 -7.5 -43.5h-41l-46 118h-194v-263h143l39 69h31c4.66699 -34 6.66699 -69 6 -105s-2.66699 -69 -6 -99h-31l-39 70h-143v-240z" />
    <glyph glyph-name="G" unicode="G" horiz-adv-x="709" 
d="M636 44c-13.333 -6.66699 -29.6748 -13.3301 -49.0078 -19.9971s-39.666 -12.667 -60.999 -18s-42.666 -9.66602 -63.999 -12.999s-40.333 -5 -57 -5c-57.333 0 -108.5 7.5 -153.5 22.5s-83.333 37.667 -115 68s-55.834 68.166 -72.501 113.499s-25 98 -25 158
c0 65.333 10.167 120.833 30.5 166.5s47.333 83 81 112s71.834 50.167 114.501 63.5s86.334 20 131.001 20c44 0 85.333 -3 124 -9s69.334 -14.667 92.001 -26c0 -10 -0.5 -22.833 -1.5 -38.5s-2.5 -32.5 -4.5 -50.5s-4.5 -36 -7.5 -54s-6.5 -34.333 -10.5 -49h-41l-56 152
c-7.33301 3.33301 -18.333 5.83301 -33 7.5s-29.334 2.5 -44.001 2.5c-27.333 0 -53.666 -5.33301 -78.999 -16s-47.666 -27.834 -66.999 -51.501s-34.666 -54.334 -45.999 -92.001s-17 -83.5 -17 -137.5c0 -44 5.16699 -84.167 15.5 -120.5s24.833 -67.5 43.5 -93.5
s41 -46.333 67 -61s54.667 -22 86 -22c10 0 20.333 0.833008 31 2.5s20.667 3.83398 30 6.50098s17.5 5.66699 24.5 9s11.833 6.33301 14.5 9v188c-17.333 1.33301 -33.666 4.66602 -48.999 9.99902s-29.666 11.666 -42.999 18.999v38h273v-38c-6 -6 -14 -11.5 -24 -16.5
s-22.667 -9.16699 -38 -12.5v-224z" />
    <glyph glyph-name="H" unicode="H" horiz-adv-x="769" 
d="M323 0l-302.996 0.00195312v38c11.333 6 24.5 11.667 39.5 17s29.167 9.33301 42.5 12v566c-16 2.66699 -31.333 6.66699 -46 12s-26.667 11 -36 17v38h303v-38c-10 -6.66699 -21.167 -12.667 -33.5 -18s-24.833 -9 -37.5 -11v-242h265v242
c-14.667 2.66699 -27.834 6.66699 -39.501 12s-22.167 11 -31.5 17v38h303v-38c-11.333 -7.33301 -24.333 -13.333 -39 -18s-29 -8.33398 -43 -11.001v-566c15.333 -2.66699 30.166 -6.66699 44.499 -12s26.833 -11 37.5 -17v-38h-303v38c10 6 21 11.667 33 17
s24.667 9.33301 38 12v259h-265v-259c13.333 -2.66699 25.666 -6.33398 36.999 -11.001s22.666 -10.667 33.999 -18v-38z" />
    <glyph glyph-name="I" unicode="I" horiz-adv-x="372" 
d="M342 0h-312v38c26.667 14.667 53.667 24.334 81 29.001v566c-13.333 2 -27.333 5.66699 -42 11s-27.667 11.333 -39 18v38h312v-38c-12 -7.33301 -25.167 -13.5 -39.5 -18.5s-28.166 -8.5 -41.499 -10.5v-566c13.333 -2.66699 27.166 -6.33398 41.499 -11.001
s27.5 -10.667 39.5 -18v-38z" />
    <glyph glyph-name="J" unicode="J" horiz-adv-x="365" 
d="M27 700l307.996 0.000976562v-38c-10.667 -6.66699 -22.667 -12.667 -36 -18s-26.666 -9 -39.999 -11v-512c0 -54.667 -8.16699 -99.5 -24.5 -134.5s-35.666 -62.667 -57.999 -83s-45.166 -35.166 -68.499 -44.499s-42.333 -15.666 -57 -18.999l-19 26
c10 8 19.667 18.167 29 30.5s17.5 28.166 24.5 47.499s12.667 42.833 17 70.5s6.5 61.167 6.5 100.5v518c-14.667 3.33301 -29.167 7.16602 -43.5 11.499s-27.166 10.166 -38.499 17.499v38z" />
    <glyph glyph-name="K" unicode="K" horiz-adv-x="710" 
d="M399 700l268 -0.000976562v-38c-11.333 -7.33301 -24.333 -13.5 -39 -18.5s-28 -8.5 -40 -10.5l-190 -241c15.333 -21.333 33.333 -45.5 54 -72.5s42.667 -55 66 -84s47.333 -58.333 72 -88s48.667 -57.834 72 -84.501l48 -29v-34h-174l-40 28
c-16 20 -32.833 42.167 -50.5 66.5s-35.167 49.666 -52.5 75.999s-34.333 52.833 -51 79.5s-32.334 52.667 -47.001 78h-43v-261c14.667 -2.66699 28 -6.66699 40 -12s22.333 -11 31 -17v-38h-303v38c13.333 6.66699 27 12.5 41 17.5s27.667 8.83301 41 11.5v566
c-15.333 2 -30.166 5.66699 -44.499 11s-26.833 11.333 -37.5 18v38h303v-38c-8.66699 -5.33301 -19.167 -10.666 -31.5 -15.999s-25.5 -9.66602 -39.5 -12.999v-254l59 14l161 240c-13.333 2.66699 -26.5 6.83398 -39.5 12.501s-24.167 11.167 -33.5 16.5v38z" />
    <glyph glyph-name="L" unicode="L" horiz-adv-x="583" 
d="M20 700l328.001 0.000976562v-38c-14 -7.33301 -29.5 -13.5 -46.5 -18.5s-33.5 -8.5 -49.5 -10.5v-568h193l67 179h41c2.66699 -15.333 5.16699 -33.333 7.5 -54s4.16602 -42.334 5.49902 -65.001s2.33301 -45 3 -67s0.666992 -41.333 0 -58h-549v38
c15.333 8 29.833 14.333 43.5 19s26.5 8 38.5 10v566c-32.667 5.33301 -60 15 -82 29v38z" />
    <glyph glyph-name="M" unicode="M" horiz-adv-x="930" 
d="M909 0l-299.001 -0.00195312v38c13.333 6.66699 26.333 12.334 39 17.001s26.334 8.66699 41.001 12v418l5 117h-8l-33 -107l-193 -495h-46l-192 491l-36 117h-9l1 -127v-410c12.667 -2.66699 26.667 -7 42 -13s29.666 -12.667 42.999 -20v-38h-244v38
c10.667 5.33301 23.834 11.666 39.501 18.999s30.5 12.333 44.5 15v561c-13.333 2.66699 -27.5 6.33398 -42.5 11.001s-28.167 10.667 -39.5 18v38h271l153 -407l29 -96h1l30 98l156 405h248v-38c-11.333 -6.66699 -23.5 -12.5 -36.5 -17.5s-26.167 -8.83301 -39.5 -11.5
v-567c14 -2.66699 27.5 -6.66699 40.5 -12s24.5 -10.666 34.5 -15.999v-38z" />
    <glyph glyph-name="N" unicode="N" horiz-adv-x="758" 
d="M490 700l248.001 -0.000976562v-38c-12.667 -10 -26.667 -18.833 -42 -26.5s-29.666 -13.5 -42.999 -17.5v-630h-85l-353 510l-40 77h-3l9 -80v-417c13.333 -3.33301 28.166 -8.83301 44.499 -16.5s30.166 -15.5 41.499 -23.5v-38h-247v38c12 8 25.167 15.5 39.5 22.5
s29.166 12.833 44.499 17.5v546c-13.333 5.33301 -26.666 11.333 -39.999 18s-25.333 13.667 -36 21v37h216l287 -416l46 -86h4l-5 86v334c-16 5.33301 -31.5 11.833 -46.5 19.5s-28.167 15.834 -39.5 24.501v38z" />
    <glyph glyph-name="O" unicode="O" horiz-adv-x="754" 
d="M39 350c0 52 7.33301 100.167 22 144.5s36.334 82.666 65.001 114.999s64 57.5 106 75.5s90.333 27 145 27s103 -9 145 -27s77.167 -43.167 105.5 -75.5s49.833 -70.666 64.5 -114.999s22 -92.5 22 -144.5s-7.33301 -100.167 -22 -144.5s-36.167 -82.666 -64.5 -114.999
s-63.5 -57.5 -105.5 -75.5s-90.333 -27 -145 -27s-103 9 -145 27s-77.333 43.167 -106 75.5s-50.334 70.666 -65.001 114.999s-22 92.5 -22 144.5zM209 350c0 -42.667 3.33496 -82.167 10.002 -118.5s17.167 -67.666 31.5 -93.999s32.666 -47 54.999 -62
s49.166 -22.5 80.499 -22.5c28.667 0 53 7.5 73 22.5s36.333 35.667 49 62s21.834 57.666 27.501 93.999s8.5 75.833 8.5 118.5s-3.16699 82.167 -9.5 118.5s-16.333 67.666 -30 93.999s-31.667 47 -54 62s-49.5 22.5 -81.5 22.5c-30.667 0 -56.334 -7.5 -77.001 -22.5
s-37.167 -35.667 -49.5 -62s-21 -57.666 -26 -93.999s-7.5 -75.833 -7.5 -118.5z" />
    <glyph glyph-name="P" unicode="P" horiz-adv-x="640" 
d="M252 67c18 -2.66699 35.833 -6.49805 53.5 -11.498s33.5 -10.833 47.5 -17.5v-38h-333v38c12.667 7.33301 26.167 13.333 40.5 18s28.166 8.33398 41.499 11.001v566c-15.333 2.66699 -30 6.5 -44 11.5s-26.667 10.833 -38 17.5v38h126c26.667 0 57.167 1.33301 91.5 4
s65.833 4 94.5 4c35.333 0 69.833 -3.5 103.5 -10.5s63.667 -18.833 90 -35.5s47.5 -38.834 63.5 -66.501s24 -62.167 24 -103.5c0 -39.333 -7.83301 -73.333 -23.5 -102s-36.5 -52.334 -62.5 -71.001s-56 -32.5 -90 -41.5s-69 -13.5 -105 -13.5h-16
c-7.33301 0 -15.166 0.166992 -23.499 0.5s-16.333 0.666016 -24 0.999023s-13.167 0.833008 -16.5 1.5v-200zM306 643.002c-13.333 0 -23.833 -0.499023 -31.5 -1.49902s-15.167 -2.5 -22.5 -4.5v-304c6 -2 15 -3.16699 27 -3.5s21.667 -0.5 29 -0.5c18 0 35.333 3 52 9
s31.5 15.333 44.5 28s23.5 29 31.5 49s12 44 12 72c0 53.333 -13 92.666 -39 117.999s-60.333 38 -103 38z" />
    <glyph glyph-name="Q" unicode="Q" horiz-adv-x="754" 
d="M774 -112c-12 -12.667 -24.832 -24.8311 -38.499 -36.498s-28 -22.167 -43 -31.5s-30.833 -16.666 -47.5 -21.999s-34 -8 -52 -8c-30.667 0 -61.5 5.5 -92.5 16.5s-63.333 23.667 -97 38s-69 28.166 -106 41.499s-77.167 22.666 -120.5 27.999l25 44
c32 6 63.5 7.5 94.5 4.5s61.667 -8 92 -15s60.666 -14.833 90.999 -23.5s60.833 -15.667 91.5 -21s62 -7.83301 94 -7.5s65 6.16602 99 17.499zM39.001 350.003c0 52 7.33301 100.167 22 144.5s36.334 82.666 65.001 114.999s64 57.5 106 75.5s90.333 27 145 27
s103 -9 145 -27s77.167 -43.167 105.5 -75.5s49.833 -70.666 64.5 -114.999s22 -92.5 22 -144.5s-7.33301 -100.167 -22 -144.5s-36.167 -82.666 -64.5 -114.999s-63.5 -57.5 -105.5 -75.5s-90.333 -27 -145 -27s-103 9 -145 27s-77.333 43.167 -106 75.5
s-50.334 70.666 -65.001 114.999s-22 92.5 -22 144.5zM209.001 350.003c0 -42.667 3.33496 -82.167 10.002 -118.5s17.167 -67.666 31.5 -93.999s32.666 -47 54.999 -62s49.166 -22.5 80.499 -22.5c28.667 0 53 7.5 73 22.5s36.333 35.667 49 62
s21.834 57.666 27.501 93.999s8.5 75.833 8.5 118.5s-3.16699 82.167 -9.5 118.5s-16.333 67.666 -30 93.999s-31.667 47 -54 62s-49.5 22.5 -81.5 22.5c-30.667 0 -56.334 -7.5 -77.001 -22.5s-37.167 -35.667 -49.5 -62s-21 -57.666 -26 -93.999s-7.5 -75.833 -7.5 -118.5
z" />
    <glyph glyph-name="R" unicode="R" horiz-adv-x="697" 
d="M252 67c15.333 -3.33301 29.002 -7.66699 41.002 -13s23.667 -10.666 35 -15.999v-38h-308v38c14.667 8 28.667 14.167 42 18.5s26.666 7.83301 39.999 10.5v566c-33.333 7.33301 -60.666 17 -81.999 29v38h106c13.333 0 28.5 0.333008 45.5 1s34.833 1.5 53.5 2.5
s37.667 2 57 3s38 1.5 56 1.5c36.667 0 70.5 -4.16699 101.5 -12.5s57.667 -20.833 80 -37.5s39.666 -37.5 51.999 -62.5s18.5 -54.167 18.5 -87.5c0 -48 -11.667 -87.333 -35 -118s-55.333 -53.667 -96 -69c26.667 -42 55 -84.833 85 -128.5s61.667 -85.834 95 -126.501
l48 -32v-34h-167l-43 33c-30.667 36.667 -57.834 79.167 -81.501 127.5s-44.5 95.833 -62.5 142.5h-81v-236zM302.002 642.999c-20.667 0 -37.333 -2 -50 -6v-279h59c34 0 63 12.167 87 36.5s36 60.5 36 108.5c0 24.667 -3.33301 45.834 -10 63.501s-16 32.167 -28 43.5
s-26 19.666 -42 24.999s-33.333 8 -52 8z" />
    <glyph glyph-name="S" unicode="S" horiz-adv-x="558" 
d="M157 83c7.33301 -7.33301 17.6699 -14.1729 31.0029 -20.5059s31 -9.5 53 -9.5c36.667 0 67.167 9.5 91.5 28.5s36.5 45.5 36.5 79.5c0 24.667 -7.83301 45.334 -23.5 62.001s-35.5 32 -59.5 46s-49.667 27.833 -77 41.5s-53 29.834 -77 48.501
s-43.833 40.834 -59.5 66.501s-23.5 57.5 -23.5 95.5c0 32.667 6 61 18 85s28.5 43.833 49.5 59.5s45.833 27.334 74.5 35.001s59.667 11.5 93 11.5c40.667 0 78.5 -2.83301 113.5 -8.5s66.5 -14.5 94.5 -26.5c-0.666992 -13.333 -1.83398 -28.666 -3.50098 -45.999
s-3.83398 -34.5 -6.50098 -51.5s-5.5 -33 -8.5 -48s-5.83301 -27.5 -8.5 -37.5h-41l-46 137c-8 4 -19.833 7.66699 -35.5 11s-31.834 5 -48.501 5c-28 0 -51.667 -7.33301 -71 -22s-29 -36 -29 -64c0 -25.333 8 -46.833 24 -64.5s36 -33.834 60 -48.501
s50.167 -29.167 78.5 -43.5s54.5 -30.833 78.5 -49.5s44 -40.5 60 -65.5s24 -55.833 24 -92.5c0 -66.667 -22.5 -118.167 -67.5 -154.5s-111.167 -54.5 -198.5 -54.5c-21.333 0 -42.833 1.33301 -64.5 4s-42.167 6.33398 -61.5 11.001s-36.5 9.66699 -51.5 15
s-26.167 11 -33.5 17c0.666992 15.333 2.33398 31.833 5.00098 49.5s5.5 35.334 8.5 53.001s6.16699 34.5 9.5 50.5s6.66602 30 9.99902 42h41z" />
    <glyph glyph-name="T" unicode="T" horiz-adv-x="666" 
d="M505 0h-343.998v38c13.333 5.33301 28.5 10.833 45.5 16.5s34.167 9.83398 51.5 12.501v568h-116l-64 -171h-41c-2.66699 13.333 -5.33398 30.333 -8.00098 51s-5 42 -7 64s-3.66699 43.833 -5 65.5s-2 40.167 -2 55.5h636c0 -16 -0.666992 -34.667 -2 -56s-3 -43 -5 -65
s-4.33301 -43.167 -7 -63.5s-5.33398 -37.5 -8.00098 -51.5h-41l-64 171h-116v-568c17.333 -3.33301 34.5 -7.33301 51.5 -12s32.167 -10.334 45.5 -17.001v-38z" />
    <glyph glyph-name="U" unicode="U" horiz-adv-x="715" 
d="M7 700l307.998 -0.00195312v-38c-22 -14 -47.333 -23.667 -76 -29v-385c0 -32.667 3.66699 -60 11 -82s18 -39.833 32 -53.5s30.833 -23.5 50.5 -29.5s41.834 -9 66.501 -9c22 0 42.167 3.16699 60.5 9.5s34.333 16.5 48 30.5s24.167 32.333 31.5 55s11 50.667 11 84v375
c-15.333 3.33301 -31.166 8 -47.499 14s-29.833 12.667 -40.5 20v38h248v-38c-12 -8.66699 -25.333 -15.667 -40 -21s-29 -9.66602 -43 -12.999v-376c0 -85.333 -22.5 -150.166 -67.5 -194.499s-108.5 -66.5 -190.5 -66.5c-89.333 0 -158.333 20 -207 60s-73 104 -73 192
v390c-13.333 2 -27.333 5.5 -42 10.5s-28 11.167 -40 18.5v38z" />
    <glyph glyph-name="V" unicode="V" horiz-adv-x="734" 
d="M564 633c-16 3.33301 -31.1689 7.66406 -45.502 12.9971s-27.166 10.666 -38.499 15.999v38h254v-38c-8 -5.33301 -18.5 -10.666 -31.5 -15.999s-26.5 -9.66602 -40.5 -12.999l-230 -633l-99 -12l-258 645c-13.333 3.33301 -26.666 7.5 -39.999 12.5s-25 10.5 -35 16.5
v38h333v-38c-11.333 -5.33301 -24 -10.666 -38 -15.999s-28.667 -9.66602 -44 -12.999l140 -394l23 -94h2l22 96z" />
    <glyph glyph-name="W" unicode="W" horiz-adv-x="1033" 
d="M865 633c-26.667 4 -54.6689 13.668 -84.002 29.001v38h252v-38c-11.333 -7.33301 -23.333 -13.333 -36 -18s-25 -8.33398 -37 -11.001l-177 -633l-104 -12l-155 484l-151 -472l-105 -12l-195 645c-14 2.66699 -27 6.5 -39 11.5s-23.333 10.833 -34 17.5v38h324v-38
c-11.333 -6 -24.166 -11.5 -38.499 -16.5s-29.166 -9.16699 -44.499 -12.5l93 -353l21 -130h2l35 135l133 415h59l142 -410l34 -130h2l23 132z" />
    <glyph glyph-name="X" unicode="X" horiz-adv-x="728" 
d="M435 700l248 -0.000976562v-38c-10 -5.33301 -20.5 -10.666 -31.5 -15.999s-23.167 -9.66602 -36.5 -12.999l-178 -261l207 -305c15.333 -3.33301 29.166 -7.5 41.499 -12.5s24.166 -10.5 35.499 -16.5v-38h-324v38c10.667 6 21.834 11.5 33.501 16.5
s24.167 9.16699 37.5 12.5l-142 220l-132 -221c14 -2 27 -5.33301 39 -10s23.667 -10.667 35 -18v-38h-256v38c22 13.333 44.667 23 68 29l201 285l-188 281c-12.667 3.33301 -24.667 7.66602 -36 12.999s-22.333 10.666 -33 15.999v38h317v-38
c-8 -4.66699 -18 -9.5 -30 -14.5s-26 -9.83301 -42 -14.5l122 -201l120 201c-13.333 2.66699 -26.666 6.83398 -39.999 12.501s-25.333 11.167 -36 16.5v38z" />
    <glyph glyph-name="Y" unicode="Y" horiz-adv-x="698" 
d="M453 700l245 0.000976562v-38c-10 -6 -21.167 -11.833 -33.5 -17.5s-24.833 -9.5 -37.5 -11.5l-194 -340v-226c13.333 -1.33301 26.5 -4.83301 39.5 -10.5s25.167 -11.834 36.5 -18.501v-38h-308v38c11.333 6 24 11.667 38 17s28.667 9.33301 44 12v225l-202 341
c-15.333 2.66699 -29.833 6.66699 -43.5 12s-26.167 11 -37.5 17v38h328v-38c-9.33301 -5.33301 -20 -10.666 -32 -15.999s-26 -9.66602 -42 -12.999l143 -268l136 268c-15.333 3.33301 -30 7.66602 -44 12.999s-26 10.666 -36 15.999v38z" />
    <glyph glyph-name="Z" unicode="Z" horiz-adv-x="634" 
d="M537 211l42 -0.000976562c2.66699 -14 5.16699 -29.833 7.5 -47.5s4.5 -36 6.5 -55s3.5 -37.833 4.5 -56.5s1.5 -36 1.5 -52h-564v65l388 570h-248l-59 -143h-42c-3.33301 14.667 -6.33301 31.334 -9 50.001s-5 37.5 -7 56.5s-3.33301 37.333 -4 55s-1 33.167 -1 46.5
h534v-65l-386 -570h274z" />
    <glyph glyph-name="bracketleft" unicode="[" horiz-adv-x="324" 
d="M72 700h234v-55h-104v-820h104v-55h-234v930z" />
    <glyph glyph-name="backslash" unicode="\" horiz-adv-x="382" 
d="M416 -104l-57 -30l-415 820l58 29z" />
    <glyph glyph-name="bracketright" unicode="]" horiz-adv-x="324" 
d="M252 -230h-234v55h104v820h-104v55h234v-930z" />
    <glyph glyph-name="asciicircum" unicode="^" horiz-adv-x="498" 
d="M229 711h46l170 -277h-120l-79 135l-18 53l-25 -54l-90 -134h-70z" />
    <glyph glyph-name="underscore" unicode="_" horiz-adv-x="410" 
d="M0 -116h410v-80h-410v80z" />
    <glyph glyph-name="grave" unicode="`" horiz-adv-x="351" 
d="M291 589l-45 -22l-186 145v29c4 4 12.667 7.83301 26 11.5s27.5 6.5 42.5 8.5s29.167 3.16699 42.5 3.5s22.333 -0.166992 27 -1.5z" />
    <glyph glyph-name="a" unicode="a" horiz-adv-x="557" 
d="M470 145c0 -14.667 0.170898 -27.335 0.503906 -38.002s1.16602 -22 2.49902 -34l69 -10v-35c-8 -4 -18.833 -8 -32.5 -12s-28 -7.83301 -43 -11.5s-29.833 -6.66699 -44.5 -9s-27.667 -4.16602 -39 -5.49902h-34c-6.66699 15.333 -10.667 30.666 -12 45.999
s-2.33301 34 -3 56h-5c-3.33301 -13.333 -9 -26.166 -17 -38.499s-18.167 -23.333 -30.5 -33s-26.833 -17.5 -43.5 -23.5s-35.334 -9 -56.001 -9c-22 0 -42.333 3.33301 -61 10s-35 16 -49 28s-25 26.5 -33 43.5s-12 36.167 -12 57.5c0 30 5.66699 54.667 17 74
s29.166 35.166 53.499 47.499s55.666 21.5 93.999 27.5s84.833 10.333 139.5 13c5.33301 57.333 3 99.333 -7 126s-31.667 40 -65 40c-20.667 0 -39.667 -3.33301 -57 -10l-47 -120h-44c-5.33301 8 -10.5 17.167 -15.5 27.5s-9.66699 21.333 -14 33s-8 23.5 -11 35.5
s-5.16699 23.667 -6.5 35c25.333 17.333 58 31 98 41s82.333 15 127 15c38 0 69 -4.16699 93 -12.5s42.833 -19.666 56.5 -33.999s23.167 -31.166 28.5 -50.499s8 -40 8 -62c0 -40 -0.833008 -76.167 -2.5 -108.5s-2.5 -65.5 -2.5 -99.5zM245.004 67.999
c14 0 25.999 2.66895 35.999 8.00195s18.5 11.666 25.5 18.999s12.333 15.333 16 24s6.5 16.334 8.5 23.001v100c-31.333 -0.666992 -57 -2.66699 -77 -6s-35.667 -8.83301 -47 -16.5s-19.166 -17.334 -23.499 -29.001s-6.5 -25.834 -6.5 -42.501c0 -25.333 6 -45 18 -59
s28.667 -21 50 -21z" />
    <glyph glyph-name="b" unicode="b" horiz-adv-x="588" 
d="M67 669l-76.001 8.00195v39c10 4 23.167 8 39.5 12s33.333 7.5 51 10.5s35 5.66699 52 8s31.5 4.16602 43.5 5.49902h34v-346h2c13.333 33.333 33.666 59.333 60.999 78s59.666 28 96.999 28c58.667 0 104.334 -20.333 137.001 -61s49 -102.334 49 -185.001
c0 -91.333 -24.167 -160 -72.5 -206s-119.166 -69 -212.499 -69c-16.667 0 -35.334 1.16699 -56.001 3.5s-40.667 5.16602 -60 8.49902s-37.166 7.33301 -53.499 12s-28.166 9.33398 -35.499 14.001v640zM305.999 432.002c-25.333 0 -45.6689 -9.16699 -61.002 -27.5
s-26.666 -41.5 -33.999 -69.5v-265c9.33301 -6.66699 20.833 -12 34.5 -16s29.167 -6 46.5 -6c38 0 65.833 17 83.5 51s26.5 87.333 26.5 160c0 52.667 -7.16699 94.667 -21.5 126s-39.166 47 -74.499 47z" />
    <glyph glyph-name="c" unicode="c" horiz-adv-x="484" 
d="M456 81c-4.66699 -13.333 -12.3311 -25.5 -22.998 -36.5s-23.5 -20.833 -38.5 -29.5s-32 -15.334 -51 -20.001s-38.833 -7 -59.5 -7c-44 0 -81.833 6.16699 -113.5 18.5s-57.834 30 -78.501 53s-36 50.667 -46 83s-15 68.166 -15 107.499
c0 84.667 23.167 149.5 69.5 194.5s112.166 67.5 197.499 67.5c32.667 0 62.667 -3.5 90 -10.5s50 -15.167 68 -24.5c-1.33301 -11.333 -3.16602 -23.833 -5.49902 -37.5s-5 -27.334 -8 -41.001s-6.5 -27 -10.5 -40s-8 -23.833 -12 -32.5h-49l-42 119
c-4.66699 3.33301 -9.66699 5.83301 -15 7.5s-13.333 2.5 -24 2.5c-17.333 0 -32.333 -3.16699 -45 -9.5s-23.5 -17.166 -32.5 -32.499s-15.667 -35.666 -20 -60.999s-6.5 -56.666 -6.5 -93.999c0 -27.333 3 -52.5 9 -75.5s15.167 -43 27.5 -60s27.833 -30.333 46.5 -40
s40.667 -14.5 66 -14.5c23.333 0 43.666 3.33301 60.999 10s32 14.667 44 24z" />
    <glyph glyph-name="d" unicode="d" horiz-adv-x="599" 
d="M372 99c-3.33301 -14.667 -9.33301 -28.6699 -18 -42.0029s-19 -25.166 -31 -35.499s-25.667 -18.5 -41 -24.5s-31.666 -9 -48.999 -9c-66 0 -116.167 20.833 -150.5 62.5s-51.5 105.5 -51.5 191.5c0 44 6 82.5 18 115.5s28.833 60.833 50.5 83.5
s47.834 39.667 78.501 51s64.667 17 102 17c12 0 22.167 -0.333008 30.5 -1s16 -1.5 23 -2.5s13.667 -2.66699 20 -5s13.5 -4.83301 21.5 -7.5v176l-76 8v39c9.33301 4 22.166 7.66699 38.499 11s33.5 6.5 51.5 9.5s35.667 5.83301 53 8.5s31.666 5 42.999 7h34v-681l66 -8
v-35c-9.33301 -4.66699 -21.333 -9 -36 -13s-30 -7.66699 -46 -11s-31.5 -6.16602 -46.5 -8.49902s-27.5 -4.16602 -37.5 -5.49902h-34l-9 109h-4zM281 67.9971c23.333 0 43.001 7.33398 59.001 22.001s27.667 39.667 35 75v269
c-8.66699 5.33301 -19.5 9.66602 -32.5 12.999s-29.167 5 -48.5 5c-38.667 0 -66.334 -17.5 -83.001 -52.5s-25 -85.833 -25 -152.5c0 -54 7.33301 -97.333 22 -130s39 -49 73 -49z" />
    <glyph glyph-name="e" unicode="e" horiz-adv-x="537" 
d="M486 84c-5.33301 -11.333 -13.834 -22.835 -25.501 -34.502s-26 -22 -43 -31s-36.667 -16.333 -59 -22s-46.5 -8.5 -72.5 -8.5c-41.333 0 -78 6.16699 -110 18.5s-58.667 30 -80 53s-37.5 50.5 -48.5 82.5s-16.5 68 -16.5 108c0 85.333 22.333 150.333 67 195
s106.667 67 186 67c34 0 65.833 -4.66699 95.5 -14s54.334 -24.666 74.001 -45.999s33.334 -49.333 41.001 -84s7.16699 -77 -1.5 -127h-307c0.666992 -52.667 14.167 -94.667 40.5 -126s65.166 -47 116.499 -47c22 0 44.833 3.33301 68.5 10s42.167 15.334 55.5 26.001z
M279.999 454.998c-13.333 0 -25.166 -2.33301 -35.499 -7s-19.333 -13.167 -27 -25.5s-13.834 -29 -18.501 -50s-8 -47.5 -10 -79.5h161c4.66699 52 1.66699 92 -9 120s-31 42 -61 42z" />
    <glyph glyph-name="f" unicode="f" horiz-adv-x="372" 
d="M321 752c27.333 0 51.834 -2.49902 73.501 -7.49902s38.167 -9.83301 49.5 -14.5c-2 -22 -6.33301 -44.667 -13 -68s-12.667 -42.666 -18 -57.999h-34l-44 95c-17.333 0 -31.833 -1.83301 -43.5 -5.5s-21 -10.834 -28 -21.501s-12.167 -25.834 -15.5 -45.501
s-5 -45.167 -5 -76.5v-50h106v-63h-106v-374c34.667 -4 66.667 -12 96 -24v-39h-306v39c20.667 12 42.667 20 66 24v374h-76v39c23.333 14.667 48.666 25.667 75.999 33v35c0 41.333 5.83301 75.5 17.5 102.5s27.5 48.333 47.5 64s43.5 26.5 70.5 32.5s55.833 9 86.5 9z" />
    <glyph glyph-name="g" unicode="g" horiz-adv-x="564" 
d="M264 512c43.333 0 79.3301 -4.50195 107.997 -13.502s50.334 -20.167 65.001 -33.5c31.333 34 67.333 57.667 108 71c4.66699 -3.33301 9.33398 -8.16602 14.001 -14.499s8.66699 -13.166 12 -20.499s6 -14.666 8 -21.999s3 -13.333 3 -18l-13 -24h-105
c7.33301 -9.33301 14.166 -21.5 20.499 -36.5s9.5 -32.833 9.5 -53.5c0 -22 -4.66699 -42.667 -14 -62s-23.5 -36.5 -42.5 -51.5s-43 -26.833 -72 -35.5s-62.833 -13 -101.5 -13c-11.333 0 -21.5 0.166992 -30.5 0.5s-16.833 1.16602 -23.5 2.49902
c-2.66699 -4 -5.5 -8.83301 -8.5 -14.5s-4.5 -11.167 -4.5 -16.5c0 -11.333 8 -20.333 24 -27s36.333 -12.667 61 -18s51.167 -11.333 79.5 -18s54.833 -15.5 79.5 -26.5s45.334 -25.333 62.001 -43s25.334 -40.5 26.001 -68.5c0.666992 -26.667 -6 -50.334 -20 -71.001
s-33.167 -38.167 -57.5 -52.5s-53 -25.333 -86 -33s-68.167 -11.5 -105.5 -11.5c-44 0 -81.5 3.5 -112.5 10.5s-56.167 16.5 -75.5 28.5s-33.5 25.667 -42.5 41s-13.5 31.333 -13.5 48c0 18.667 3.66699 34.667 11 48s17.666 25 30.999 35s28.833 18.333 46.5 25
s37.167 12.667 58.5 18c-10 2.66699 -19.667 6 -29 10s-17.666 8.83301 -24.999 14.5s-13.333 12.334 -18 20.001s-7 16.5 -7 26.5c0 8.66699 2.66699 17.167 8 25.5s12.333 16 21 23s18 13.333 28 19s20 10.5 30 14.5c-42 9.33301 -75.333 27.5 -100 54.5
s-37 61.5 -37 103.5c0 50 20.667 89 62 117s97.333 42 168 42zM389.997 -76.002c0 18 -5.50098 32.499 -16.501 43.499s-25.167 20 -42.5 27s-36.833 13 -58.5 18s-43.167 10.833 -64.5 17.5c-17.333 -13.333 -29.666 -26.666 -36.999 -39.999s-11 -29.333 -11 -48
c0 -30.667 10.5 -54.5 31.5 -71.5s50.5 -25.5 88.5 -25.5c37.333 0 65 7.83301 83 23.5s27 34.167 27 55.5zM177.996 347.997c0 -34.667 5.83301 -61 17.5 -79s34.5 -27 68.5 -27c32.667 0 55.167 9.16699 67.5 27.5s18.5 44.5 18.5 78.5c0 36 -6.33301 62.833 -19 80.5
s-35 26.5 -67 26.5c-33.333 0 -56 -8.66699 -68 -26s-18 -44.333 -18 -81z" />
    <glyph glyph-name="h" unicode="h" horiz-adv-x="640" 
d="M628 0l-264.995 0.000976562v39c8 4.66699 16.333 9 25 13s18.667 7.66699 30 11v202c0 57.333 -5.5 99.5 -16.5 126.5s-32.5 40.5 -64.5 40.5c-26.667 0 -49.334 -9.16699 -68.001 -27.5s-32 -39.5 -40 -63.5v-278c10.667 -2.66699 20.167 -5.66699 28.5 -9
s17.166 -8.33301 26.499 -15v-39h-265v39c20.667 10.667 42.667 18.667 66 24v606l-76 8v39c10 4 22.833 8 38.5 12s32.167 7.5 49.5 10.5s34.666 5.66699 51.999 8s32.666 4.16602 45.999 5.49902h34v-353h1c6.66699 15.333 15.667 29.833 27 43.5s24.166 25.667 38.499 36
s29.833 18.5 46.5 24.5s34.334 9 53.001 9c26.667 0 50.5 -3.16699 71.5 -9.5s38.5 -17.5 52.5 -33.5s24.667 -37.5 32 -64.5s11 -61.167 11 -102.5v-239c11.333 -2.66699 22.666 -5.66699 33.999 -9s22 -8.33301 32 -15v-39z" />
    <glyph glyph-name="i" unicode="i" horiz-adv-x="332" 
d="M307 0l-276.001 0.000976562v39c10 5.33301 20.333 9.83301 31 13.5s22.334 7.16699 35.001 10.5v366l-66 8v39c10 4 22.5 8 37.5 12s30.833 7.5 47.5 10.5s33 5.66699 49 8s30 4.16602 42 5.49902h34v-449c13.333 -3.33301 25.333 -6.83301 36 -10.5
s20.667 -8.16699 30 -13.5v-39zM79.999 664.001c0 23.333 8 41.666 24 54.999s36.667 20 62 20s46 -6.66699 62 -20s24 -31.666 24 -54.999c0 -22.667 -8 -40.667 -24 -54s-36.667 -20 -62 -20s-46 6.66699 -62 20s-24 31.333 -24 54z" />
    <glyph glyph-name="j" unicode="j" horiz-adv-x="320" 
d="M97 429l-66.001 8v39c10 4.66699 22.333 9 37 13s30.334 7.5 47.001 10.5s33.167 5.5 49.5 7.5s30.5 3.66699 42.5 5h34v-469c0 -31.333 -3.83301 -59.333 -11.5 -84s-17.667 -46 -30 -64s-26 -33.333 -41 -46s-29.667 -23.167 -44 -31.5s-27.5 -14.833 -39.5 -19.5
s-21.333 -8 -28 -10l-20 30c8 4 16 10.5 24 19.5s15.5 21.5 22.5 37.5s12.667 36.167 17 60.5s6.5 53.833 6.5 88.5v405zM79.999 664c0 23.333 8 41.666 24 54.999s36.667 20 62 20s46 -6.66699 62 -20s24 -31.666 24 -54.999c0 -22.667 -8 -40.667 -24 -54
s-36.667 -20 -62 -20s-46 6.66699 -62 20s-24 31.333 -24 54z" />
    <glyph glyph-name="k" unicode="k" horiz-adv-x="583" 
d="M322 500h234.006v-39c-12.667 -5.33301 -24.5 -10 -35.5 -14s-23.167 -7.33301 -36.5 -10c-10 -13.333 -20.833 -26.5 -32.5 -39.5s-23.334 -25.5 -35.001 -37.5s-22.834 -23.5 -33.501 -34.5s-20.334 -20.833 -29.001 -29.5c10 -13.333 21.667 -29.333 35 -48
s27.666 -38.5 42.999 -59.5s31.5 -42.333 48.5 -64s34.167 -42.167 51.5 -61.5l51 -24v-39h-169l-27 24c-15.333 20.667 -28.833 40 -40.5 58s-22.167 35.333 -31.5 52s-18.333 32.834 -27 48.501s-17.334 31.167 -26.001 46.5l-33 10v-176c11.333 -2 21.666 -5 30.999 -9
s19.333 -9 30 -15v-39h-271v39c22 10.667 44 18.667 66 24v606l-76 8v39c9.33301 4 22 8 38 12s33 7.5 51 10.5s35.667 5.66699 53 8s32 4.16602 44 5.49902h34v-469h26c22 23.333 42.5 49 61.5 77s35.833 53.667 50.5 77c-8.66699 2.66699 -16.5 6 -23.5 10
s-14.167 8.66699 -21.5 14v39z" />
    <glyph glyph-name="l" unicode="l" horiz-adv-x="332" 
d="M307 0l-276.001 0.000976562v39c22 10.667 44 18.667 66 24v606l-76 8v39c8.66699 4 20.667 8 36 12s31.833 7.5 49.5 10.5s35.334 5.66699 53.001 8s33.5 4.16602 47.5 5.49902h34v-689c22 -5.33301 44 -13.333 66 -24v-39z" />
    <glyph glyph-name="m" unicode="m" horiz-adv-x="924" 
d="M594 0h-250.003v39c6.66699 4 14.167 8.16699 22.5 12.5s17.5 8.16602 27.5 11.499v199c0 30.667 -0.833008 56.667 -2.5 78s-5.16699 38.833 -10.5 52.5s-12.666 23.667 -21.999 30s-21.333 9.5 -36 9.5c-21.333 0 -39.833 -8.16699 -55.5 -24.5
s-27.167 -37.833 -34.5 -64.5v-280c18 -5.33301 34.667 -13.333 50 -24v-39h-260v39c9.33301 4.66699 19.666 9 30.999 13s23 7.66699 35 11v366l-66 8v39c10.667 4.66699 23.834 9 39.501 13s31.834 7.5 48.501 10.5s32.834 5.5 48.501 7.5s28.834 3.66699 39.501 5h34
v-113h1c10.667 31.333 29.5 58 56.5 80s59.5 33 97.5 33c16 0 31.667 -1.66699 47 -5s29.5 -9.5 42.5 -18.5s24.167 -21.5 33.5 -37.5s16 -36.667 20 -62c12 36.667 32 66.334 60 89.001s62 34 102 34c24.667 0 46.5 -3.16699 65.5 -9.5s35 -17.5 48 -33.5
s22.833 -37.667 29.5 -65s10 -62 10 -104v-237c22.667 -4 44.667 -12 66 -24v-39h-260v39c15.333 10 32 18 50 24v217c0 52 -4.83301 90.333 -14.5 115s-30.5 37 -62.5 37c-24 0 -42.833 -9 -56.5 -27s-23.834 -42 -30.501 -72v-270c11.333 -3.33301 21.5 -7 30.5 -11
s17.5 -8.33301 25.5 -13v-39z" />
    <glyph glyph-name="n" unicode="n" horiz-adv-x="644" 
d="M632 0l-265 0.00195312v39c8.66699 4.66699 17.167 8.83398 25.5 12.501s18.166 7.5 29.499 11.5v235c0 42 -6 74.833 -18 98.5s-33.333 35.5 -64 35.5c-25.333 0 -47.166 -8.16699 -65.499 -24.5s-32.166 -38.5 -41.499 -66.5v-278
c10.667 -2.66699 20.167 -5.83398 28.5 -9.50098s17.166 -8.5 26.499 -14.5v-39h-265v39c16.667 8.66699 38.667 16.667 66 24v366l-66 8v39c8.66699 4 20 7.83301 34 11.5s29.167 7.16699 45.5 10.5s33 6.16602 50 8.49902s32.5 4.16602 46.5 5.49902h34v-103h1
c14 28 35 52.167 63 72.5s62 30.5 102 30.5c26 0 49.333 -3.16699 70 -9.5s38.167 -17.5 52.5 -33.5s25.333 -37.5 33 -64.5s11.5 -61.167 11.5 -102.5v-239c26.667 -4.66699 48.667 -12.667 66 -24v-39z" />
    <glyph glyph-name="o" unicode="o" horiz-adv-x="594" 
d="M31 250c0 40.667 6.16406 77.167 18.4971 109.5s30 59.833 53 82.5s50.833 40 83.5 52s69.667 18 111 18c46.667 0 86.834 -6.5 120.501 -19.5s61.334 -31 83.001 -54s37.5 -50.667 47.5 -83s15 -67.5 15 -105.5c0 -40.667 -6 -77.167 -18 -109.5
s-29.5 -59.833 -52.5 -82.5s-51 -40 -84 -52s-70.167 -18 -111.5 -18c-45.333 0 -84.666 6.5 -117.999 19.5s-61 31 -83 54s-38.333 50.667 -49 83s-16 67.5 -16 105.5zM185.997 250c0 -30 1.83301 -57.501 5.5 -82.501s10.167 -46.167 19.5 -63.5s22 -30.833 38 -40.5
s36.667 -14.5 62 -14.5c14.667 0 28 3.5 40 10.5s22.333 18.333 31 34s15.167 36.334 19.5 62.001s6.5 57.167 6.5 94.5c0 30.667 -1.83301 58.334 -5.5 83.001s-10 45.667 -19 63s-21.167 30.833 -36.5 40.5s-34.666 14.5 -57.999 14.5c-17.333 0 -32.333 -3.5 -45 -10.5
s-23.334 -18.333 -32.001 -34s-15.167 -36.334 -19.5 -62.001s-6.5 -57.167 -6.5 -94.5z" />
    <glyph glyph-name="p" unicode="p" horiz-adv-x="609" 
d="M297 -200h-276.002v39c22.667 10.667 44.667 18.667 66 24v566l-66 8v39c10.667 4.66699 23.834 9 39.501 13s31.834 7.5 48.501 10.5s32.834 5.5 48.501 7.5s28.834 3.66699 39.501 5h34v-112h1c11.333 32 29.166 58.667 53.499 80s58.166 32 101.499 32
c29.333 0 55.833 -4.83301 79.5 -14.5s43.667 -24.667 60 -45s29 -46.333 38 -78s13.5 -69.5 13.5 -113.5c0 -42 -5.83301 -80 -17.5 -114s-28.334 -62.667 -50.001 -86s-48 -41.333 -79 -54s-66.167 -19 -105.5 -19c-22.667 0 -40.5 1.5 -53.5 4.5
s-26.833 8.16699 -41.5 15.5v-145c10.667 -1.33301 21.334 -3.83301 32.001 -7.5s22 -9.16699 34 -16.5v-39zM328.998 432c-22.667 0 -42.833 -8.00195 -60.5 -24.002s-30.167 -40.667 -37.5 -74v-266c10.667 -8 22 -13.833 34 -17.5s27.667 -5.5 47 -5.5
c38 0 66 18.333 84 55s27 90.334 27 161.001c0 54.667 -6.83301 96.834 -20.5 126.501s-38.167 44.5 -73.5 44.5z" />
    <glyph glyph-name="q" unicode="q" horiz-adv-x="589" 
d="M367 89c-4.66699 -13.333 -11.335 -25.999 -20.002 -37.999s-19 -22.667 -31 -32s-25.833 -16.833 -41.5 -22.5s-33.167 -8.5 -52.5 -8.5c-60.667 0 -107.667 20.667 -141 62s-50 103.666 -50 186.999c0 91.333 24.5 159.5 73.5 204.5s118.5 67.5 208.5 67.5
c18.667 0 38.334 -1 59.001 -3s40.334 -4.5 59.001 -7.5s35.5 -6.33301 50.5 -10s26.167 -7.16699 33.5 -10.5v-615c22 -4 44 -12 66 -24v-39h-276v39c20.667 10.667 42.667 18.667 66 24v226h-4zM271.999 68.001c50 0 83 32 99 96v274c-11.333 3.33301 -23.333 6.5 -36 9.5
s-26.667 4.5 -42 4.5c-38.667 0 -66.167 -15.333 -82.5 -46s-24.5 -83 -24.5 -157c0 -58 6 -102.667 18 -134s34.667 -47 68 -47z" />
    <glyph glyph-name="r" unicode="r" horiz-adv-x="431" 
d="M290 385c-8 -4 -17.332 -10.668 -27.999 -20.001s-20.334 -24.666 -29.001 -45.999v-256c13.333 -1.33301 26.666 -3.83301 39.999 -7.5s26.666 -9.16699 39.999 -16.5v-39h-290v39c12 6.66699 23.333 11.667 34 15s21.334 6.33301 32.001 9v366l-66 8v39
c10.667 4.66699 23.834 9 39.501 13s31.834 7.5 48.501 10.5s32.834 5.5 48.501 7.5s28.834 3.66699 39.501 5h34v-133h4c5.33301 14.667 13.166 30 23.499 46s22.5 30.667 36.5 44s29.333 24 46 32s34 11.667 52 11c7.33301 -9.33301 13.666 -22.5 18.999 -39.5
s9.66602 -33.167 12.999 -48.5v-39h-137z" />
    <glyph glyph-name="s" unicode="s" horiz-adv-x="452" 
d="M288 109c0 17.333 -6.16602 32.3369 -18.499 45.0039s-27.666 24.334 -45.999 35.001s-38.333 21.334 -60 32.001s-41.667 23.167 -60 37.5s-33.666 31.166 -45.999 50.499s-18.5 43 -18.5 71c0 20 4.66699 38.167 14 54.5s22 30.166 38 41.499
s35.167 20.166 57.5 26.499s46.5 9.5 72.5 9.5c36 0 69.5 -2.83301 100.5 -8.5s58.167 -13.5 81.5 -23.5c-2.66699 -21.333 -8 -44.166 -16 -68.499s-15.667 -46.5 -23 -66.5h-34l-42 102c-8 3.33301 -16.333 5.5 -25 6.5s-18.334 1.5 -29.001 1.5
c-20 0 -35.167 -5.83301 -45.5 -17.5s-15.5 -24.834 -15.5 -39.501c0 -16.667 6.16699 -31.167 18.5 -43.5s27.666 -23.833 45.999 -34.5s38.333 -21.334 60 -32.001s41.667 -22.834 60 -36.501s33.666 -29.834 45.999 -48.501s18.5 -41 18.5 -67
c0 -46 -18.667 -82.167 -56 -108.5s-87.333 -39.5 -150 -39.5c-32 0 -65 3.33301 -99 10s-63.333 16 -88 28c1.33301 24 7 48.333 17 73s20.667 46.667 32 66h34l49 -109c7.33301 -5.33301 15.5 -8.5 24.5 -9.5s17.5 -1.5 25.5 -1.5c19.333 0 37 5.66699 53 17s24 27 24 47z
" />
    <glyph glyph-name="t" unicode="t" horiz-adv-x="399" 
d="M8 476c25.333 16 51.999 27.3301 79.999 33.9971v81c5.33301 4 18.5 9.83301 39.5 17.5s44.5 13.834 70.5 18.501h34v-127h132v-63h-132v-259c0 -41.333 5.16699 -70 15.5 -86s27.5 -24 51.5 -24c12 0 25.5 0.833008 40.5 2.5s28.833 4.83398 41.5 9.50098l7 -33
c-6 -6 -14.833 -12.333 -26.5 -19s-25 -13 -40 -19s-31.333 -11 -49 -15s-36.167 -6 -55.5 -6c-43.333 0 -75.666 11.333 -96.999 34s-32 59.334 -32 110.001v305h-80v39z" />
    <glyph glyph-name="u" unicode="u" horiz-adv-x="622" 
d="M71 198c0 42 0.998047 81 2.99805 117s3 74 3 114l-66 8v39c10.667 4 23.834 8 39.501 12s31.834 7.5 48.501 10.5s32.834 5.66699 48.501 8s28.834 4.16602 39.501 5.49902h34c0 -50 -1 -99.167 -3 -147.5s-3 -95.833 -3 -142.5c0 -54.667 5.5 -94 16.5 -118
s31.5 -36 61.5 -36c20.667 0 39.834 7.83301 57.501 23.5s32.167 40.834 43.5 75.501v262l-65 8v39c10 4 22.5 8 37.5 12s30.667 7.5 47 10.5s32.5 5.66699 48.5 8s30 4.16602 42 5.49902h34v-441l66 -8v-35c-9.33301 -4 -21 -8 -35 -12s-28.667 -7.83301 -44 -11.5
s-30.5 -6.66699 -45.5 -9s-28.5 -4.16602 -40.5 -5.49902h-34l-7 119h-4c-3.33301 -14 -9.33301 -28.167 -18 -42.5s-19.834 -27.333 -33.501 -39s-29.834 -21.167 -48.501 -28.5s-39.334 -11 -62.001 -11c-25.333 0 -47.833 3.16699 -67.5 9.5s-36.5 17.5 -50.5 33.5
s-24.667 37.5 -32 64.5s-11 61.167 -11 102.5z" />
    <glyph glyph-name="v" unicode="v" horiz-adv-x="539" 
d="M243 -12l-199.999 448.999c-19.333 6.66699 -37 14.667 -53 24v39h263v-38c-8.66699 -4.66699 -17.5 -9.16699 -26.5 -13.5s-19.167 -8.16602 -30.5 -11.499l93 -256l19 -67h2l16 68l85 255c-10.667 2.66699 -20.5 6 -29.5 10s-17.5 8.66699 -25.5 14v39h193v-39
c-6.66699 -4.66699 -14.834 -9 -24.501 -13s-20.5 -7.66699 -32.5 -11l-175 -437z" />
    <glyph glyph-name="w" unicode="w" horiz-adv-x="784" 
d="M200 -12l-157.001 448.999c-9.33301 3.33301 -18.5 6.83301 -27.5 10.5s-17.5 8.16699 -25.5 13.5v39h253v-38c-9.33301 -5.33301 -18.666 -10.166 -27.999 -14.499s-19 -7.83301 -29 -10.5l69 -256l13 -77h2l18 80l106 310l49 6l114 -317l21 -79h2l16 78l60 255
c-7.33301 1.33301 -15.833 4 -25.5 8s-19.5 9.33301 -29.5 16v39h193v-39c-14 -9.33301 -33 -17.333 -57 -24l-139 -437l-94 -12l-86 247l-19 83h-3l-23 -83l-80 -235z" />
    <glyph glyph-name="x" unicode="x" horiz-adv-x="560" 
d="M343 268l157.999 -205c17.333 -5.33301 33.666 -13.333 48.999 -24v-39h-255v38c7.33301 5.33301 14.833 10.166 22.5 14.499s15.5 7.83301 23.5 10.5l-95 136l-92 -136c9.33301 -3.33301 17.5 -7 24.5 -11s13.833 -8.33301 20.5 -13v-39h-189v39
c9.33301 5.33301 17.833 10 25.5 14s16.5 7.33301 26.5 10l148 184l-149 190c-9.33301 3.33301 -17.666 6.83301 -24.999 10.5s-14 8.16699 -20 13.5v39h251v-38c-8 -5.33301 -15.167 -10.166 -21.5 -14.499s-14.166 -7.83301 -23.499 -10.5l87 -124l83 124
c-11.333 3.33301 -20.333 7 -27 11s-12.667 8.33301 -18 13v39h185v-39c-6.66699 -4.66699 -14 -9 -22 -13s-18 -7.66699 -30 -11z" />
    <glyph glyph-name="y" unicode="y" horiz-adv-x="528" 
d="M38 437c-10 2.66699 -19.166 5.99902 -27.499 9.99902s-16.833 8.66699 -25.5 14v39h263v-38c-14 -9.33301 -33 -17.666 -57 -24.999l101 -251l17 -64h2l16 65l78 250c-20 4 -38.333 12 -55 24v39h193v-39c-14 -9.33301 -33 -17.333 -57 -24l-163 -437
c-16 -42.667 -32 -77.5 -48 -104.5s-32 -48.5 -48 -64.5s-32 -27.167 -48 -33.5s-32 -10.5 -48 -12.5c-6.66699 6 -12.667 13.5 -18 22.5s-10 18.667 -14 29s-7.33301 20.833 -10 31.5s-4.33398 20.667 -5.00098 30l13 24h122c6 9.33301 11.167 19.333 15.5 30
s9.5 26.667 15.5 48z" />
    <glyph glyph-name="z" unicode="z" horiz-adv-x="516" 
d="M453 185c7.33301 -27.333 13.667 -57.668 19 -91.001s7.33301 -64.666 6 -93.999h-446v39l285 404h-166l-44 -118h-34c-7.33301 28.667 -13.333 59 -18 91s-7 60 -7 84h430v-39l-286 -404h173l54 128h34z" />
    <glyph glyph-name="braceleft" unicode="{" horiz-adv-x="354" 
d="M123 102c0 34 -7 60.667 -21 80s-33.667 29 -59 29v48c25.333 0 45 10.167 59 30.5s21 45.166 21 74.499v230c0 32 8 57.667 24 77s40 29 72 29h121v-55h-35c-18 0 -31.167 -4.66699 -39.5 -14s-12.5 -24.666 -12.5 -45.999v-220c0 -22 -3.5 -40.667 -10.5 -56
s-16 -27.833 -27 -37.5s-22.833 -17 -35.5 -22s-25 -8.16699 -37 -9.5v-6c11.333 -1.33301 23.5 -4.66602 36.5 -9.99902s25 -13.333 36 -24s20 -23.834 27 -39.501s10.5 -34.167 10.5 -55.5v-220c0 -20.667 4 -35.834 12 -45.501s21.667 -14.5 41 -14.5h34v-55h-121
c-30 0 -53.5 8.83301 -70.5 26.5s-25.5 43.834 -25.5 78.501v227z" />
    <glyph glyph-name="bar" unicode="|" horiz-adv-x="235" 
d="M83 700h70v-830h-70v830z" />
    <glyph glyph-name="braceright" unicode="}" horiz-adv-x="354" 
d="M244 369c0 -34 6.99902 -60.667 20.999 -80s33.667 -29 59 -29v-48c-25.333 0 -45 -10.167 -59 -30.5s-21 -45.166 -21 -74.499v-231c0 -32 -8 -57.667 -24 -77s-40 -29 -72 -29h-121v55h35c18 0 31.167 4.66699 39.5 14s12.5 24.666 12.5 45.999v221c0 22 3 40.667 9 56
s13.833 27.833 23.5 37.5s20.334 17 32.001 22s23.5 8.16699 35.5 9.5v6c-11.333 1.33301 -23 4.66602 -35 9.99902s-22.833 13.333 -32.5 24s-17.5 23.834 -23.5 39.501s-9 34.167 -9 55.5v219c0 20.667 -4 35.834 -12 45.501s-21.667 14.5 -41 14.5h-34v55h122
c30 0 53.333 -8.83301 70 -26.5s25 -43.834 25 -78.501v-226z" />
    <glyph glyph-name="asciitilde" unicode="~" horiz-adv-x="530" 
d="M46 312c18 38.667 40.3301 68.167 66.9971 88.5s52.334 30.5 77.001 30.5c16.667 0 33 -3.5 49 -10.5s31.667 -14.833 47 -23.5s30.833 -16.5 46.5 -23.5s31.834 -10.5 48.501 -10.5c12 0 24.5 2.5 37.5 7.5s26.167 13.833 39.5 26.5l23 -30
c-15.333 -32 -34 -55.833 -56 -71.5s-44.333 -23.5 -67 -23.5c-17.333 0 -34.166 3.5 -50.499 10.5s-32.5 14.833 -48.5 23.5s-32 16.5 -48 23.5s-32 10.5 -48 10.5c-14.667 0 -29.5 -4 -44.5 -12s-30.167 -22.333 -45.5 -43z" />
    <glyph glyph-name="uni00A0" unicode="&#xa0;" horiz-adv-x="270" 
 />
    <glyph glyph-name="exclamdown" unicode="&#xa1;" horiz-adv-x="344" 
d="M172 286l50 -194v-278c-7.33301 -4 -17.5 -6.83301 -30.5 -8.5s-26.833 -2.5 -41.5 -2.5s-28.667 0.833008 -42 2.5s-23.333 4.5 -30 8.5v278l50 194h44zM233 433c0 -24.667 -7.66699 -44.167 -23 -58.5s-35.666 -21.5 -60.999 -21.5s-46 7.16699 -62 21.5
s-24 33.833 -24 58.5c0 24 8 43.167 24 57.5s36.667 21.5 62 21.5s45.666 -7.16699 60.999 -21.5s23 -33.5 23 -57.5z" />
    <glyph glyph-name="cent" unicode="&#xa2;" 
d="M521 81c-8.66699 -23.333 -26 -43.3369 -52 -60.0039s-57 -26.667 -93 -30v-161h-77v161c-80.667 8.66699 -141.334 35.834 -182.001 81.501s-61 104.834 -61 177.501c0 74.667 20.833 133.834 62.5 177.501s101.834 70.5 180.501 80.5v152h77v-149
c30 -1.33301 57.333 -5.16602 82 -11.499s45.667 -13.833 63 -22.5c-1.33301 -11.333 -3.16602 -23.833 -5.49902 -37.5s-5 -27.334 -8 -41.001s-6.5 -27 -10.5 -40s-8 -23.833 -12 -32.5h-34l-36 119c-3.33301 1.33301 -6.83301 2.83301 -10.5 4.5
s-10.167 2.83398 -19.5 3.50098l-16 1v-384c5.33301 -1.33301 10.5 -2 15.5 -2h15.5c23.333 0 43.666 3.33301 60.999 10s32 14.667 44 24zM211 257.996c0 -39.333 7.5 -74.168 22.5 -104.501s39.167 -53.166 72.5 -68.499v361c-27.333 -10 -50 -29.667 -68 -59
s-27 -72.333 -27 -129z" />
    <glyph glyph-name="sterling" unicode="&#xa3;" 
d="M40 375l76.999 -0.000976562c-13.333 20.667 -25.333 43.5 -36 68.5s-16 55.167 -16 90.5c0 28 5.66699 53 17 75s27 40.667 47 56s43.833 27 71.5 35s58.167 12 91.5 12c20 0 40.667 -1.16699 62 -3.5s41.5 -5.16602 60.5 -8.49902s36.5 -7.33301 52.5 -12
s28.667 -9.33398 38 -14.001c-0.666992 -10.667 -2.16699 -24 -4.5 -40s-5 -32.5 -8 -49.5s-6.5 -33.5 -10.5 -49.5s-7.66699 -29.667 -11 -41h-34l-40 137c-24 10.667 -53.667 16 -89 16c-25.333 0 -46 -6.16699 -62 -18.5s-26 -30.5 -30 -54.5
c-2.66699 -12.667 -3 -26.667 -1 -42c2 -14.667 5 -28.667 9 -42s8.83301 -26.333 14.5 -39l17 -38c5.66699 -12.667 11.167 -25.334 16.5 -38.001h125v-61h-108c2.66699 -20.667 1.5 -39 -3.5 -55s-11.5 -31.667 -19.5 -47c-2.66699 -13.333 -7.5 -26.333 -14.5 -39
s-16.5 -23.667 -28.5 -33l-33 -24v-4l51 6h177l49 112h34c2 -15.333 4.16699 -33.666 6.5 -54.999s4.5 -43 6.5 -65s3.66699 -42.833 5 -62.5s2 -35.5 2 -47.5h-478v54c38.667 16.667 68.334 36.5 89.001 59.5s32.667 51.833 36 86.5c1.33301 7.33301 2 14.5 2 21.5v21.5
c-1.33301 13.333 -3.5 25.833 -6.5 37.5s-6.5 22.834 -10.5 33.501h-113v61z" />
    <glyph glyph-name="currency" unicode="&#xa4;" 
d="M36 178l75 74.001l40 14c-8.66699 11.333 -14.834 23.166 -18.501 35.499s-5.5 27.166 -5.5 44.499c0 30.667 8 57 24 79l-40 15l-74 74l78 78l73 -74l16 -40c10.667 7.33301 22 13 34 17s26.667 6 44 6c34.667 -0.666992 61.334 -8 80.001 -22l16 39l72 72l78 -77
l-74 -73l-38 -14c6.66699 -11.333 11.667 -23.333 15 -36s5.33301 -27.667 6 -45c0 -30 -7 -56.333 -21 -79l38 -14l73 -74l-78 -78l-73 73l-14 39c-10 -6 -21.833 -11 -35.5 -15s-28.167 -6 -43.5 -6c-17.333 0.666992 -32.5 2.83398 -45.5 6.50098s-24.833 8.5 -35.5 14.5
l-14 -38l-74 -74zM282 264.001c24 0 44.167 7.66699 60.5 23s24.5 35 24.5 59s-8.16699 43.833 -24.5 59.5s-36.5 23.5 -60.5 23.5c-24 0.666992 -44.167 -7 -60.5 -23s-24.5 -36 -24.5 -60s8.16699 -43.667 24.5 -59s36.5 -23 60.5 -23z" />
    <glyph glyph-name="yen" unicode="&#xa5;" 
d="M379 700l240.001 0.000976562v-38c-9.33301 -6 -21.166 -11.833 -35.499 -17.5s-27.833 -9.5 -40.5 -11.5l-151 -291h117v-65h-142v-57h142v-65h-142v-88c12.667 -1.33301 25.667 -4.83301 39 -10.5s25.666 -11.834 36.999 -18.501v-38h-308v38c11.333 6 24 11.667 38 17
s28.667 9.33301 44 12v88h-143v65h143v57h-143v65h115l-163 291c-15.333 2.66699 -29.833 6.66699 -43.5 12s-26.167 11 -37.5 17v38h328v-38c-8.66699 -5.33301 -19.167 -10.666 -31.5 -15.999s-26.5 -9.66602 -42.5 -12.999l132 -282l128 282
c-15.333 3.33301 -29.833 7.66602 -43.5 12.999s-25.834 10.666 -36.501 15.999v38z" />
    <glyph glyph-name="brokenbar" unicode="&#xa6;" horiz-adv-x="235" 
d="M83 190h70v-320h-70v320zM153 380h-70v320h70v-320z" />
    <glyph glyph-name="section" unicode="&#xa7;" horiz-adv-x="566" 
d="M338 39c0 18 -6.99609 33.002 -20.9961 45.002s-31.5 22.5 -52.5 31.5s-43.833 18.167 -68.5 27.5s-47.5 20.5 -68.5 33.5s-38.5 29 -52.5 48s-21 43.5 -21 73.5c0 33.333 12.833 61.666 38.5 84.999s57.834 42.666 96.501 57.999c-14 7.33301 -27 15.333 -39 24
s-22.5 18.5 -31.5 29.5s-16.167 23.5 -21.5 37.5s-8 30 -8 48c0 40 17.167 72 51.5 96s79.5 36 135.5 36c36 0 68.5 -2.66699 97.5 -8s55.5 -11.666 79.5 -18.999c-2.66699 -21.333 -6.33398 -40.833 -11.001 -58.5s-10.667 -36.5 -18 -56.5h-34l-52 77
c-8 3.33301 -15.5 5.5 -22.5 6.5s-15.833 1.5 -26.5 1.5c-22.667 0 -39.334 -5.83301 -50.001 -17.5s-16 -24.834 -16 -39.501c0 -18 7.16699 -33.167 21.5 -45.5s32.166 -23.666 53.499 -33.999s44.5 -20.666 69.5 -30.999s48.167 -22.333 69.5 -36s39.166 -30 53.499 -49
s21.5 -42.167 21.5 -69.5c0 -17.333 -3.83301 -33.333 -11.5 -48s-17.5 -28.167 -29.5 -40.5s-25.667 -23.333 -41 -33s-30.333 -18.167 -45 -25.5c24 -13.333 44.5 -29 61.5 -47s25.5 -41.667 25.5 -71c0 -46.667 -18.333 -83.334 -55 -110.001s-88.667 -40 -156 -40
c-32 0 -64.167 3.33301 -96.5 10s-60.833 16 -85.5 28c1.33301 24 5.33301 44.167 12 60.5s15.667 34.166 27 53.499h34l59 -84c7.33301 -5.33301 14.666 -8.5 21.999 -9.5s15 -1.5 23 -1.5c21.333 0 40.333 5.66699 57 17s25 27 25 47zM378.004 301.002
c0 14.667 -3.83398 27.666 -11.501 38.999s-17.667 21.333 -30 30s-26.666 16.5 -42.999 23.5s-33.166 14.167 -50.499 21.5c-14.667 -10.667 -27.5 -23.667 -38.5 -39s-16.5 -31.333 -16.5 -48c0 -14.667 4 -27.5 12 -38.5s18.5 -20.833 31.5 -29.5
s27.833 -16.5 44.5 -23.5s33.667 -14.167 51 -21.5c13.333 11.333 25.166 24.833 35.499 40.5s15.5 30.834 15.5 45.501z" />
    <glyph glyph-name="dieresis" unicode="&#xa8;" horiz-adv-x="505" 
d="M60 659c0 21.333 6.66699 38.333 20 51s31 19 53 19c21.333 0 38.833 -6.33301 52.5 -19s20.5 -29.667 20.5 -51c0 -20 -6.83301 -36.333 -20.5 -49s-31.167 -19 -52.5 -19c-22 0 -39.667 6.33301 -53 19s-20 29 -20 49zM299 659c0 21.333 6.66699 38.333 20 51
s30.666 19 51.999 19c22 0 39.833 -6.33301 53.5 -19s20.5 -29.667 20.5 -51c0 -20 -6.83301 -36.333 -20.5 -49s-31.5 -19 -53.5 -19c-21.333 0 -38.666 6.33301 -51.999 19s-20 29 -20 49z" />
    <glyph glyph-name="copyright" unicode="&#xa9;" horiz-adv-x="819" 
d="M55 290c0 55.333 9.83301 104.833 29.5 148.5s46 80.5 79 110.5s70.667 53 113 69s86.5 24 132.5 24s90.167 -8 132.5 -24s80 -39 113 -69s59.333 -66.833 79 -110.5s29.5 -93.167 29.5 -148.5s-9.83301 -104.833 -29.5 -148.5s-46 -80.5 -79 -110.5
s-70.667 -53 -113 -69s-86.5 -24 -132.5 -24c-48 0 -93.5 8 -136.5 24s-80.667 39 -113 69s-57.833 66.833 -76.5 110.5s-28 93.167 -28 148.5zM122 290c0 -44.667 7.66504 -85 22.998 -121s36 -66.5 62 -91.5s56.333 -44.333 91 -58s71.667 -20.5 111 -20.5
c40.667 0 78.5 6.83301 113.5 20.5s65.333 33 91 58s45.834 55.5 60.501 91.5s22 76.333 22 121c0 46 -8 87 -24 123s-37.167 66.5 -63.5 91.5s-56.833 44 -91.5 57s-70.667 19.5 -108 19.5c-42 0 -80.5 -6.83301 -115.5 -20.5s-65.167 -33 -90.5 -58
s-45.166 -55.5 -59.499 -91.5s-21.5 -76.333 -21.5 -121zM514.998 220l34.001 0.000976562c1.33301 -5.33301 2.83301 -12.166 4.5 -20.499s3 -17.5 4 -27.5s1.66699 -20 2 -30s0.166016 -19 -0.500977 -27c-11.333 -9.33301 -28.833 -17.166 -52.5 -23.499
s-49.167 -9.5 -76.5 -9.5c-32.667 0 -62.5 4.5 -89.5 13.5s-50.333 22.333 -70 40s-35 39.5 -46 65.5s-16.5 56 -16.5 90c0 34.667 6.16699 65 18.5 91s28.333 47.667 48 65s42 30.5 67 39.5s50.167 13.5 75.5 13.5c32 0 59.667 -2.83301 83 -8.5s42 -12.834 56 -21.501
c0.666992 -6 0.666992 -14 0 -24s-1.66699 -20.5 -3 -31.5s-2.83301 -21.833 -4.5 -32.5s-3.5 -19.334 -5.5 -26.001h-34l-30 83c-4.66699 3.33301 -11 5.16602 -19 5.49902s-16 0.5 -24 0.5c-30 0 -53 -12.667 -69 -38s-24 -64 -24 -116c0 -22 1.83301 -42.5 5.5 -61.5
s9.5 -35.333 17.5 -49s18.333 -24.334 31 -32.001s28 -11.5 46 -11.5c10.667 0 20 0.833008 28 2.5s13.333 3.83398 16 6.50098z" />
    <glyph glyph-name="ordfeminine" unicode="&#xaa;" horiz-adv-x="460" 
d="M99 596c-6.66699 7.33301 -13 18.3359 -19 33.0029s-9.33301 29 -10 43c16.667 8.66699 39.334 16.834 68.001 24.501s68.334 11.5 119.001 11.5c26 0 47.333 -2.16699 64 -6.5s30 -10.833 40 -19.5s17 -19.334 21 -32.001s6 -27 6 -43c0 -25.333 -0.5 -52.333 -1.5 -81
s-1.5 -53.667 -1.5 -75l50 -10v-35c-6 -3.33301 -14.167 -6.5 -24.5 -9.5s-21.333 -5.83301 -33 -8.5s-23 -4.83398 -34 -6.50098s-20.167 -2.83398 -27.5 -3.50098h-26c-4.66699 11.333 -7.83398 21.833 -9.50098 31.5s-2.83398 20.167 -3.50098 31.5h-4
c-3.33301 -6 -8 -12.833 -14 -20.5s-13.833 -14.834 -23.5 -21.501s-21.167 -12.167 -34.5 -16.5s-29 -6.5 -47 -6.5c-33.333 0 -59.833 8.5 -79.5 25.5s-29.5 40.167 -29.5 69.5c0 20.667 5.5 37.5 16.5 50.5s25.667 23.167 44 30.5s39.5 12.5 63.5 15.5s49.333 4.5 76 4.5
c4.66699 0 9.16699 -0.166992 13.5 -0.5s8.83301 -0.5 13.5 -0.5c0.666992 4 1 9.5 1 16.5v15.5c0 15.333 -4 28.166 -12 38.499s-23.333 15.5 -46 15.5c-7.33301 0 -15.5 -0.666992 -24.5 -2s-18.167 -3.66602 -27.5 -6.99902l-28 -52h-36zM205 431.003
c18.667 0 33.332 5.83203 43.999 17.499s18.334 22.834 23.001 33.501v51c-6 0.666992 -11.833 1.16699 -17.5 1.5s-11.167 0.5 -16.5 0.5c-21.333 0 -39.333 -4 -54 -12s-22 -22.333 -22 -43c0 -12.667 3.66699 -24 11 -34s18 -15 32 -15z" />
    <glyph glyph-name="guillemotleft" unicode="&#xab;" horiz-adv-x="505" 
d="M236 259l178 222l43 -36l-106 -179l112 -189l-42 -36zM20 259l240 223l39 -36l-144 -181l150 -189l-39 -37z" />
    <glyph glyph-name="logicalnot" unicode="&#xac;" 
d="M65 401h434v-216h-80v126h-354v90z" />
    <glyph glyph-name="uni00AD" unicode="&#xad;" horiz-adv-x="414" 
d="M66 327h282v-90h-282v90z" />
    <glyph glyph-name="registered" unicode="&#xae;" horiz-adv-x="703" 
d="M69 451c0 44 7.66699 83.333 23 118s36 64 62 88s56 42.333 90 55s69.667 19 107 19c38 0 74.167 -6.33301 108.5 -19s64.333 -31 90 -55s46 -53.333 61 -88s22.5 -74 22.5 -118s-7.66699 -83.333 -23 -118s-36 -64 -62 -88s-56 -42.333 -90 -55s-69.667 -19 -107 -19
c-38 0 -74.167 6.33301 -108.5 19s-64.333 31 -90 55s-46 53.333 -61 88s-22.5 74 -22.5 118zM131 451c0 -34.667 5.83398 -65.8311 17.501 -93.498s27.5 -51.334 47.5 -71.001s43.333 -34.667 70 -45s55 -15.5 85 -15.5c31.333 0 60.5 5.16699 87.5 15.5
s50.333 25.166 70 44.499s35 42.833 46 70.5s16.5 59.167 16.5 94.5c0 34.667 -5.83301 65.834 -17.5 93.501s-27.5 51.167 -47.5 70.5s-43.333 34.333 -70 45s-55 16 -85 16c-32 0 -61.333 -5.33301 -88 -16s-49.834 -25.667 -69.501 -45s-35 -42.833 -46 -70.5
s-16.5 -58.834 -16.5 -93.501zM320.001 351.003c8.66699 -0.666992 15.3291 -1.83203 19.9961 -3.49902s9.33398 -3.5 14.001 -5.5v-33h-138v33c11.333 4 23 7 35 9v215c-7.33301 0.666992 -13.666 1.83398 -18.999 3.50098s-10.666 4.16699 -15.999 7.5v31h52
c12 0 26.333 0.666992 43 2s30.334 2 41.001 2c36 0 65.333 -6.5 88 -19.5s34 -34.5 34 -64.5c0 -20.667 -6.33301 -37.5 -19 -50.5s-28.334 -22.5 -47.001 -28.5c6 -10 11.5 -19 16.5 -27s10.167 -15.833 15.5 -23.5s11.5 -15.334 18.5 -23.001
s15.167 -15.834 24.5 -24.501l23 -12v-30h-64l-28 11c-16.667 20 -29.167 40 -37.5 60s-16.166 39.667 -23.499 59h-33v-88zM346.996 571.005c-7.33301 0 -12.667 -0.167969 -16 -0.500977s-7 -1.16602 -11 -2.49902v-91h29c16 0 28.333 4 37 12s12.667 21 12 39
c-0.666992 15.333 -5.5 26.333 -14.5 33s-21.167 10 -36.5 10z" />
    <glyph glyph-name="macron" unicode="&#xaf;" horiz-adv-x="414" 
d="M60 619v70h294v-70h-294z" />
    <glyph glyph-name="degree" unicode="&#xb0;" horiz-adv-x="413" 
d="M69 571c0 20.667 3.83301 39.6689 11.5 57.002s18 32.166 31 44.499s28.333 22 46 29s36.167 10.5 55.5 10.5s37.833 -3 55.5 -9s33 -14.833 46 -26.5s23.333 -26.334 31 -44.001s11.5 -38.167 11.5 -61.5c0 -22 -3.83301 -41.667 -11.5 -59s-18 -32.166 -31 -44.499
s-28.333 -21.666 -46 -27.999s-36.167 -9.5 -55.5 -9.5s-37.833 3.16699 -55.5 9.5s-33 15.666 -46 27.999s-23.333 27.166 -31 44.499s-11.5 37 -11.5 59zM138 571.002c0 -25.333 7.66797 -45 23.001 -59s32.666 -21 51.999 -21c21.333 0 39.166 6.5 53.499 19.5
s21.5 33.167 21.5 60.5c0 26 -7.16699 45.833 -21.5 59.5s-32.166 20.5 -53.499 20.5c-22 0 -40 -7 -54 -21s-21 -33.667 -21 -59z" />
    <glyph glyph-name="plusminus" unicode="&#xb1;" 
d="M57 504h185v196h80v-196h185v-80h-185v-132h-80v132h-185v80zM57 244h450v-80h-450v80z" />
    <glyph glyph-name="twosuperior" unicode="&#xb2;" horiz-adv-x="440" 
d="M114 621l-27.001 -0.00292969c-4 8 -8.66699 18.833 -14 32.5s-10.166 27.667 -14.499 42s-8.16602 27.833 -11.499 40.5s-5.33301 22.334 -6 29.001c21.333 12 47.5 23 78.5 33s64.833 15 101.5 15c55.333 0 95.5 -10.833 120.5 -32.5s37.5 -49.5 37.5 -83.5
c0 -22 -5.33301 -43.667 -16 -65s-25.5 -41.666 -44.5 -60.999s-41.833 -37.833 -68.5 -55.5s-56 -34.167 -88 -49.5v-6l31 7h119l44 67h31c2 -11.333 4 -24.333 6 -39s3.66699 -29 5 -43s2.16602 -26.833 2.49902 -38.5s0.5 -20.834 0.5 -27.501h-357v51
c27.333 15.333 53.833 32.5 79.5 51.5s48.5 38.833 68.5 59.5s36.167 41.834 48.5 63.501s18.5 42.834 18.5 63.501c0 20 -4.83301 35.5 -14.5 46.5s-26.167 16.5 -49.5 16.5c-20 0 -37.333 -4 -52 -12z" />
    <glyph glyph-name="threesuperior" unicode="&#xb3;" horiz-adv-x="440" 
d="M207 437c25.333 0 43.834 7.50195 55.501 22.502s17.5 31.167 17.5 48.5c0 20.667 -6.33301 36.834 -19 48.501s-33.334 17.5 -62.001 17.5h-38v35l77 86l44 42v2l-62 -4h-71l-40 -83h-31c-4 8.66699 -7.66699 20 -11 34s-6.16602 28.5 -8.49902 43.5
s-4.33301 29.333 -6 43s-2.5 24.167 -2.5 31.5h334v-45l-102 -101l-37 -31v-1l31 4c16 0 31.333 -2.5 46 -7.5s27.834 -12.333 39.501 -22s21 -21.834 28 -36.501s10.5 -31.667 10.5 -51c0 -43.333 -16.5 -76.833 -49.5 -100.5s-83.167 -35.5 -150.5 -35.5
c-13.333 0 -27.666 1.16699 -42.999 3.5s-30.333 5.66602 -45 9.99902s-28.334 9.33301 -41.001 15s-23.334 11.5 -32.001 17.5l34 106h27c3.33301 -3.33301 7 -8.33301 11 -15s8.33301 -13.834 13 -21.501s9.16699 -15.5 13.5 -23.5s8.16602 -15.333 11.499 -22
c6 -2 13.833 -4.16699 23.5 -6.5s21.167 -3.5 34.5 -3.5z" />
    <glyph glyph-name="acute" unicode="&#xb4;" horiz-adv-x="351" 
d="M168 763c5.33301 1.33301 14.168 1.83301 26.501 1.5s25.166 -1.5 38.499 -3.5s25.5 -4.83301 36.5 -8.5s18.167 -7.5 21.5 -11.5v-24l-191 -155l-40 22z" />
    <glyph glyph-name="mu" unicode="&#xb5;" horiz-adv-x="622" 
d="M150 13l48.9932 -174v-39c-24 -5.33301 -46.5 -8 -67.5 -8s-41.167 2.66699 -60.5 8v629l-60 8v39c10.667 4 23.834 8 39.501 12s31.834 7.5 48.501 10.5s32.834 5.66699 48.501 8s28.834 4.16602 39.501 5.49902h34c0 -50 -1 -99.167 -3 -147.5s-3 -95.833 -3 -142.5
c0 -54.667 5.5 -94 16.5 -118s31.5 -36 61.5 -36c20.667 0 40 7.83301 58 23.5s32.667 40.834 44 75.501v262l-66 8v39c10 4 22.5 8 37.5 12s30.833 7.5 47.5 10.5s33 5.66699 49 8s30 4.16602 42 5.49902h34v-441l66 -8v-35c-9.33301 -4 -21 -8 -35 -12
s-28.833 -7.83301 -44.5 -11.5s-31 -6.66699 -46 -9s-28.5 -4.16602 -40.5 -5.49902h-34l-7 119h-4c-3.33301 -14 -9.16602 -28.167 -17.499 -42.5s-19.166 -27.333 -32.499 -39s-28.666 -21.167 -45.999 -28.5s-36 -11 -56 -11c-18.667 0 -35.5 2.33301 -50.5 7
s-27.167 10.667 -36.5 18h-5z" />
    <glyph glyph-name="mu" unicode="&#x3bc;" horiz-adv-x="622" 
d="M150 13l48.9932 -174v-39c-24 -5.33301 -46.5 -8 -67.5 -8s-41.167 2.66699 -60.5 8v629l-60 8v39c10.667 4 23.834 8 39.501 12s31.834 7.5 48.501 10.5s32.834 5.66699 48.501 8s28.834 4.16602 39.501 5.49902h34c0 -50 -1 -99.167 -3 -147.5s-3 -95.833 -3 -142.5
c0 -54.667 5.5 -94 16.5 -118s31.5 -36 61.5 -36c20.667 0 40 7.83301 58 23.5s32.667 40.834 44 75.501v262l-66 8v39c10 4 22.5 8 37.5 12s30.833 7.5 47.5 10.5s33 5.66699 49 8s30 4.16602 42 5.49902h34v-441l66 -8v-35c-9.33301 -4 -21 -8 -35 -12
s-28.833 -7.83301 -44.5 -11.5s-31 -6.66699 -46 -9s-28.5 -4.16602 -40.5 -5.49902h-34l-7 119h-4c-3.33301 -14 -9.16602 -28.167 -17.499 -42.5s-19.166 -27.333 -32.499 -39s-28.666 -21.167 -45.999 -28.5s-36 -11 -56 -11c-18.667 0 -35.5 2.33301 -50.5 7
s-27.167 10.667 -36.5 18h-5z" />
    <glyph glyph-name="paragraph" unicode="&#xb6;" horiz-adv-x="547" 
d="M411 94c0 -44.667 -3.33008 -81.5 -9.99707 -110.5s-16.5 -52.333 -29.5 -70s-29 -31 -48 -40s-40.833 -16.167 -65.5 -21.5c-13.333 -19.333 -29.833 -33.833 -49.5 -43.5s-39.834 -16.5 -60.501 -20.5l-16 33c14.667 6 28.5 13.5 41.5 22.5s24.167 21 33.5 36
s16.833 34.167 22.5 57.5s8.5 52.333 8.5 87v286c-21.333 0 -42.5 3.33301 -63.5 10s-40 17.5 -57 32.5s-30.833 34.667 -41.5 59s-16 53.833 -16 88.5c0 28 4.16699 54.167 12.5 78.5s20.666 45.5 36.999 63.5s37.166 32.167 62.499 42.5s55 15.5 89 15.5h226v-43
c-11.333 -5.33301 -23 -10 -35 -14s-25.667 -7.33301 -41 -10v-539zM278.003 -111c27.333 8.66699 45.667 30.168 55 64.501s14 81.166 14 140.499v544h-44v-614c0 -26.667 -1.83301 -51.5 -5.5 -74.5s-10.167 -43.167 -19.5 -60.5z" />
    <glyph glyph-name="periodcentered" unicode="&#xb7;" horiz-adv-x="296" 
d="M63 321c0 24 7.66699 43.333 23 58s35.666 22 60.999 22s46 -7.33301 62 -22s24 -34 24 -58s-8 -43.167 -24 -57.5s-36.667 -21.5 -62 -21.5s-45.666 7.16699 -60.999 21.5s-23 33.5 -23 57.5z" />
    <glyph glyph-name="cedilla" unicode="&#xb8;" horiz-adv-x="318" 
d="M134 -68c40 -2 70.498 -9.16797 91.498 -21.501s31.833 -30.5 32.5 -54.5c0 -19.333 -5.66699 -36 -17 -50s-26.333 -25.667 -45 -35s-39.667 -16.333 -63 -21s-46.666 -7 -69.999 -7v39c46.667 7.33301 70 26.333 70 57c-0.666992 15.333 -7.16699 26.333 -19.5 33
s-30.166 11.334 -53.499 14.001l41 115h59z" />
    <glyph glyph-name="onesuperior" unicode="&#xb9;" horiz-adv-x="440" 
d="M385 386h-313.001v30c18 9.33301 35.167 17.333 51.5 24s32.833 11.667 49.5 15v215l4 45c-16 -4.66699 -34.833 -7.16699 -56.5 -7.5s-40.167 0.166992 -55.5 1.5v42c30.667 4 62.334 12 95.001 24s61 24.667 85 38h40v-358c36.667 -8.66699 70 -21.667 100 -39v-30z
" />
    <glyph glyph-name="ordmasculine" unicode="&#xba;" horiz-adv-x="458" 
d="M37 542c0 26 4.66699 49.333 14 70s22.5 38.5 39.5 53.5s37.167 26.5 60.5 34.5s49.333 12 78 12s54.834 -3.5 78.501 -10.5s43.834 -17.5 60.501 -31.5s29.667 -31.667 39 -53s14 -46.333 14 -75c0 -26 -4.66699 -49.5 -14 -70.5s-22.333 -38.833 -39 -53.5
s-36.834 -26 -60.501 -34s-49.834 -12 -78.501 -12s-54.667 3.5 -78 10.5s-43.5 17.5 -60.5 31.5s-30.167 31.667 -39.5 53s-14 46.333 -14 75zM157 542c0 -79.333 24.001 -119 72.001 -119c23.333 0 41.166 8.83301 53.499 26.5s18.5 48.5 18.5 92.5
s-6.16699 74.833 -18.5 92.5s-30.166 26.5 -53.499 26.5c-24.667 0 -42.834 -8.83301 -54.501 -26.5s-17.5 -48.5 -17.5 -92.5z" />
    <glyph glyph-name="guillemotright" unicode="&#xbb;" horiz-adv-x="505" 
d="M87 41l-42 36l109 182l-109 186l42 36l182 -220zM242 40l-39 37l147 182l-147 187l39 36l243 -221z" />
    <glyph glyph-name="onequarter" unicode="&#xbc;" horiz-adv-x="958" 
d="M371 282h-313.001v30c18 9.33301 35.167 17.333 51.5 24s32.833 11.667 49.5 15v215l4 45c-16 -4.66699 -34.833 -7.16699 -56.5 -7.5s-40.167 0.166992 -55.5 1.5v42c30.667 4 62.334 12 95.001 24s61 24.667 85 38h40v-358c36.667 -8.66699 70 -21.667 100 -39v-30z
M876.999 0l-244 -0.000976562v30c10 5.33301 21.333 10.833 34 16.5s25.667 9.83398 39 12.501v54h-231v37l274 277h69v-254h85v-60h-85v-54c20 -4 39.667 -13.667 59 -29v-30zM705.999 275.999l8 43h-3l-33 -43l-84 -87l-36 -23l54 7h94v103zM771.999 714.999l48 -42
l-585 -686l-47 43z" />
    <glyph glyph-name="onehalf" unicode="&#xbd;" horiz-adv-x="1031" 
d="M371 282h-313.001v30c18 9.33301 35.167 17.333 51.5 24s32.833 11.667 49.5 15v215l4 45c-16 -4.66699 -34.833 -7.16699 -56.5 -7.5s-40.167 0.166992 -55.5 1.5v42c30.667 4 62.334 12 95.001 24s61 24.667 85 38h40v-358c36.667 -8.66699 70 -21.667 100 -39v-30z
M687.999 235l-27.001 -0.00292969c-4 8 -8.66699 18.833 -14 32.5s-10.166 27.667 -14.499 42s-8.16602 27.833 -11.499 40.5s-5.33301 22.334 -6 29.001c21.333 12 47.5 23 78.5 33s64.833 15 101.5 15c55.333 0 95.5 -10.833 120.5 -32.5s37.5 -49.5 37.5 -83.5
c0 -22 -5.33301 -43.667 -16 -65s-25.5 -41.666 -44.5 -60.999s-41.833 -37.833 -68.5 -55.5s-56 -34.167 -88 -49.5v-6l31 7h119l44 67h31c2 -11.333 4 -24.333 6 -39s3.66699 -29 5 -43s2.16602 -26.833 2.49902 -38.5s0.5 -20.834 0.5 -27.501h-357v51
c27.333 15.333 53.833 32.5 79.5 51.5s48.5 38.833 68.5 59.5s36.167 41.834 48.5 63.501s18.5 42.834 18.5 63.501c0 20 -4.83301 35.5 -14.5 46.5s-26.167 16.5 -49.5 16.5c-20 0 -37.333 -4 -52 -12zM771.998 714.997l48 -42l-585 -686l-47 43z" />
    <glyph glyph-name="threequarters" unicode="&#xbe;" horiz-adv-x="980" 
d="M223 333c25.333 0 43.834 7.50195 55.501 22.502s17.5 31.167 17.5 48.5c0 20.667 -6.33301 36.834 -19 48.501s-33.334 17.5 -62.001 17.5h-38v35l77 86l44 42v2l-62 -4h-71l-40 -83h-31c-4 8.66699 -7.66699 20 -11 34s-6.16602 28.5 -8.49902 43.5
s-4.33301 29.333 -6 43s-2.5 24.167 -2.5 31.5h334v-45l-102 -101l-37 -31v-1l31 4c16 0 31.333 -2.5 46 -7.5s27.834 -12.333 39.501 -22s21 -21.834 28 -36.501s10.5 -31.667 10.5 -51c0 -43.333 -16.5 -76.833 -49.5 -100.5s-83.167 -35.5 -150.5 -35.5
c-13.333 0 -27.666 1.16699 -42.999 3.5s-30.333 5.66602 -45 9.99902s-28.334 9.33301 -41.001 15s-23.334 11.5 -32.001 17.5l34 106h27c3.33301 -3.33301 7 -8.33301 11 -15s8.33301 -13.834 13 -21.501s9.16699 -15.5 13.5 -23.5s8.16602 -15.333 11.499 -22
c6 -2 13.833 -4.16699 23.5 -6.5s21.167 -3.5 34.5 -3.5zM899.001 0.00195312l-244 -0.000976562v30c10 5.33301 21.333 10.833 34 16.5s25.667 9.83398 39 12.501v54h-231v37l274 277h69v-254h85v-60h-85v-54c20 -4 39.667 -13.667 59 -29v-30zM728.001 276.001l8 43h-3
l-33 -43l-84 -87l-36 -23l54 7h94v103zM794.001 715.001l48 -42l-585 -686l-47 43z" />
    <glyph glyph-name="questiondown" unicode="&#xbf;" horiz-adv-x="486" 
d="M351 3l33.999 0.000976562c3.33301 -8.66699 7.33301 -19.5 12 -32.5s9.33398 -26.667 14.001 -41s8.66699 -29.166 12 -44.499s5.66602 -29.333 6.99902 -42c-25.333 -15.333 -54.166 -27.666 -86.499 -36.999s-73.5 -14 -123.5 -14c-30 0 -56.833 4.16699 -80.5 12.5
s-44 19.666 -61 33.999s-30 31.5 -39 51.5s-13.5 41.667 -13.5 65c0 30 5.66699 55.667 17 77s25.333 40.166 42 56.499s34.834 31.333 54.501 45s38 28.334 55 44.001s31.167 33.167 42.5 52.5s17 43 17 71h33c9.33301 -30.667 12.833 -57.334 10.5 -80.001
s-7.83301 -42.834 -16.5 -60.501s-19.167 -34 -31.5 -49s-24.333 -30 -36 -45s-21.667 -31.167 -30 -48.5s-12.5 -37.333 -12.5 -60c0 -13.333 1.5 -26 4.5 -38s7.83301 -22.667 14.5 -32s15.5 -16.833 26.5 -22.5s24.5 -8.5 40.5 -8.5c29.333 0 49.666 4.66699 60.999 14z
M343.999 433.001c0 -24.667 -7.83301 -44.167 -23.5 -58.5s-36.167 -21.5 -61.5 -21.5s-46 7.16699 -62 21.5s-24 33.833 -24 58.5c0 24 8 43.167 24 57.5s36.667 21.5 62 21.5s45.833 -7.16699 61.5 -21.5s23.5 -33.5 23.5 -57.5z" />
    <glyph glyph-name="Agrave" unicode="&#xc0;" horiz-adv-x="729" 
d="M247 0h-247v38c10.667 6.66699 22.167 12.5 34.5 17.5s24.5 8.83301 36.5 11.5l258 645h74l251 -645c13.333 -2.66699 26.666 -6.5 39.999 -11.5s25 -10.833 35 -17.5v-38h-313v38c12.667 6 26.334 11.667 41.001 17s28.667 9.33301 42 12l-58 159h-222l-59 -159
c30.667 -4 59.667 -13.667 87 -29v-38zM243 291h177l-65 191l-19 86h-2l-22 -88zM416 764l-34 -19.001l-236 96v20c2 6 9.16699 11.5 21.5 16.5s26.333 9.33301 42 13s31 6.33398 46 8.00098s26.167 1.5 33.5 -0.5z" />
    <glyph glyph-name="Aacute" unicode="&#xc1;" horiz-adv-x="729" 
d="M247 0h-247v38c10.667 6.66699 22.167 12.5 34.5 17.5s24.5 8.83301 36.5 11.5l258 645h74l251 -645c13.333 -2.66699 26.666 -6.5 39.999 -11.5s25 -10.833 35 -17.5v-38h-313v38c12.667 6 26.334 11.667 41.001 17s28.667 9.33301 42 12l-58 159h-222l-59 -159
c30.667 -4 59.667 -13.667 87 -29v-38zM243 291h177l-65 191l-19 86h-2l-22 -88zM452 898c10.667 0.666992 22.833 0.00195312 36.5 -1.99805s27 -4.83301 40 -8.5s24.667 -7.83398 35 -12.501s17.5 -9.33398 21.5 -14.001v-20l-247 -96l-28 24z" />
    <glyph glyph-name="Acircumflex" unicode="&#xc2;" horiz-adv-x="729" 
d="M247 0h-247v38c10.667 6.66699 22.167 12.5 34.5 17.5s24.5 8.83301 36.5 11.5l258 645h74l251 -645c13.333 -2.66699 26.666 -6.5 39.999 -11.5s25 -10.833 35 -17.5v-38h-313v38c12.667 6 26.334 11.667 41.001 17s28.667 9.33301 42 12l-58 159h-222l-59 -159
c30.667 -4 59.667 -13.667 87 -29v-38zM243 291h177l-65 191l-19 86h-2l-22 -88zM240 743l-28 28l127 117c6.66699 3.33301 17 5 31 5s24.333 -1.66699 31 -5l125 -114l-28 -30l-132 56z" />
    <glyph glyph-name="Atilde" unicode="&#xc3;" horiz-adv-x="729" 
d="M247 0h-247v38c10.667 6.66699 22.167 12.5 34.5 17.5s24.5 8.83301 36.5 11.5l258 645h74l251 -645c13.333 -2.66699 26.666 -6.5 39.999 -11.5s25 -10.833 35 -17.5v-38h-313v38c12.667 6 26.334 11.667 41.001 17s28.667 9.33301 42 12l-58 159h-222l-59 -159
c30.667 -4 59.667 -13.667 87 -29v-38zM243 291h177l-65 191l-19 86h-2l-22 -88zM540 817c-21.333 -21.333 -41.335 -37.5 -60.002 -48.5s-40 -16.5 -64 -16.5c-12.667 0 -24.5 1.83301 -35.5 5.5s-21.833 7.5 -32.5 11.5s-21 7.83301 -31 11.5s-20.333 5.5 -31 5.5
c-9.33301 0 -19.5 -1.83301 -30.5 -5.5s-21.833 -10.167 -32.5 -19.5l-28 47c50.667 45.333 95.667 68 135 68c12 0 23.5 -1.66699 34.5 -5s21.5 -7 31.5 -11s20 -7.66699 30 -11s20.333 -5 31 -5c8.66699 0 18.334 1.5 29.001 4.5s21.334 8.16699 32.001 15.5z" />
    <glyph glyph-name="Adieresis" unicode="&#xc4;" horiz-adv-x="729" 
d="M247 0h-247v38c10.667 6.66699 22.167 12.5 34.5 17.5s24.5 8.83301 36.5 11.5l258 645h74l251 -645c13.333 -2.66699 26.666 -6.5 39.999 -11.5s25 -10.833 35 -17.5v-38h-313v38c12.667 6 26.334 11.667 41.001 17s28.667 9.33301 42 12l-58 159h-222l-59 -159
c30.667 -4 59.667 -13.667 87 -29v-38zM243 291h177l-65 191l-19 86h-2l-22 -88zM163 793c0 21.333 7.66699 37.333 23 48s34.666 16 57.999 16s42.666 -5.33301 57.999 -16s23 -26.667 23 -48c0 -18.667 -7.66699 -33.167 -23 -43.5s-34.666 -15.5 -57.999 -15.5
s-42.666 5.16699 -57.999 15.5s-23 24.833 -23 43.5zM408 793c0 21.333 7.83301 37.333 23.5 48s35.167 16 58.5 16s42.666 -5.33301 57.999 -16s23 -26.667 23 -48c0 -18.667 -7.66699 -33.167 -23 -43.5s-34.666 -15.5 -57.999 -15.5s-42.833 5.16699 -58.5 15.5
s-23.5 24.833 -23.5 43.5z" />
    <glyph glyph-name="Aring" unicode="&#xc5;" horiz-adv-x="729" 
d="M243 291h177l-65 191l-19 86h-2l-22 -88zM321 788c0 -11.333 5 -19.834 15 -25.501s20 -8.5 30 -8.5c15.333 0 27.333 2.83301 36 8.5s13 13.834 13 24.501c0 15.333 -4.5 26 -13.5 32s-19.833 9 -32.5 9c-14 0 -25.5 -3 -34.5 -9s-13.5 -16.333 -13.5 -31zM238 787.999
c0 27.333 12 49.1689 36 65.502s56.333 24.5 97 24.5c17.333 0 33.666 -1.83301 48.999 -5.5s28.833 -9.16699 40.5 -16.5s20.834 -16.333 27.501 -27s10 -23.334 10 -38.001c0 -26 -12 -47 -36 -63c-16 -10.667 -35 -18 -57 -22l249 -639
c13.333 -2.66699 26.666 -6.5 39.999 -11.5s25 -10.833 35 -17.5v-38h-313v38c12.667 6 26.334 11.667 41.001 17s28.667 9.33301 42 12l-58 159h-222l-59 -159c30.667 -4 59.667 -13.667 87 -29v-38h-247v38c10.667 6.66699 22.167 12.5 34.5 17.5s24.5 8.83301 36.5 11.5
l256 640c-22.667 3.33301 -41 10 -55 20c-22.667 15.333 -34 35.666 -34 60.999z" />
    <glyph glyph-name="AE" unicode="&#xc6;" horiz-adv-x="959" 
d="M901 700c-1.33301 -30 -3.66797 -60.998 -7.00098 -92.998s-7.66602 -62 -12.999 -90h-42l-46 118h-187v-245h123l44 77h31c3.33301 -32.667 5 -69 5 -109s-1.66699 -77.333 -5 -112h-31l-44 79h-123v-260h195l53 127h42c2.66699 -12.667 5.16699 -27 7.5 -43
s4.5 -32.5 6.5 -49.5s3.5 -34.167 4.5 -51.5s1.5 -33.333 1.5 -48h-537v38c10.667 5.33301 22.667 10.666 36 15.999s27 9.66602 41 12.999l2 177h-185l-103 -177c27.333 -5.33301 53 -15 77 -29v-38h-242v38c10.667 6.66699 22 12.5 34 17.5s24 8.83301 36 11.5l348 571
c-10 3.33301 -20 6.83301 -30 10.5s-19.333 8.16699 -28 13.5v38h536zM309.998 309.002h148l3 285h-2l-36 -90z" />
    <glyph glyph-name="Ccedilla" unicode="&#xc7;" horiz-adv-x="652" 
d="M540 210h41c2.66699 -10.667 5.16699 -23.5 7.5 -38.5s4.33301 -31 6 -48s2.83398 -33.833 3.50098 -50.5s1 -31.667 1 -45c-12 -8 -25.833 -14.5 -41.5 -19.5s-32.167 -9 -49.5 -12s-35.166 -5.16699 -53.499 -6.5s-36.5 -2 -54.5 -2l-20 -46
c40 -1.33301 72.5 -9.16602 97.5 -23.499s37.5 -36.166 37.5 -65.499c0 -22 -7.5 -41 -22.5 -57s-33.333 -29.167 -55 -39.5s-44.834 -17.833 -69.501 -22.5s-46.334 -7 -65.001 -7v46c23.333 3.33301 42.5 10 57.5 20s22.167 24.333 21.5 43
c-0.666992 15.333 -6.5 27.333 -17.5 36s-30.5 13.667 -58.5 15l32 105c-46 4.66699 -87.333 15.167 -124 31.5s-68 39.166 -94 68.499s-46 65.5 -60 108.5s-21 93.167 -21 150.5c0 63.333 9.5 117.833 28.5 163.5s44.5 83.167 76.5 112.5s69.167 50.833 111.5 64.5
s86.833 20.5 133.5 20.5c44 0 83.833 -3.16699 119.5 -9.5s64.834 -14.833 87.501 -25.5c0 -10.667 -0.5 -24.334 -1.5 -41.001s-2.66699 -34.167 -5 -52.5s-5 -36.333 -8 -54s-5.83301 -32.5 -8.5 -44.5h-42l-55 151c-6 3.33301 -15.667 6 -29 8s-27 3 -41 3
c-27.333 0 -53 -5.5 -77 -16.5s-45.333 -28.5 -64 -52.5s-33.334 -54.833 -44.001 -92.5s-16 -82.834 -16 -135.501c0 -95.333 19 -168.666 57 -219.999s89.667 -77 155 -77c18.667 0 34.5 1.5 47.5 4.5s21.833 7.16699 26.5 12.5z" />
    <glyph glyph-name="Egrave" unicode="&#xc8;" horiz-adv-x="604" 
d="M546 700c-1.33301 -30 -3.66992 -61 -7.00293 -93s-7.66602 -62 -12.999 -90h-41l-46 118h-187v-245h122l44 77h32c3.33301 -32.667 5 -69 5 -109s-1.66699 -77.333 -5 -112h-32l-44 79h-122v-260h195l53 127h41c2.66699 -12.667 5.33398 -27 8.00098 -43
s4.83398 -32.5 6.50098 -49.5s3 -34.167 4 -51.5s1.5 -33.333 1.5 -48h-541v38c11.333 6 24 11.667 38 17s28.667 9.33301 44 12v566c-13.333 2.66699 -27.5 6.5 -42.5 11.5s-28.167 10.833 -39.5 17.5v38h526zM369.996 764l-34 -19.001l-236 96v20
c2 6 9.16699 11.5 21.5 16.5s26.333 9.33301 42 13s31 6.33398 46 8.00098s26.167 1.5 33.5 -0.5z" />
    <glyph glyph-name="Eacute" unicode="&#xc9;" horiz-adv-x="604" 
d="M546 700c-1.33301 -30 -3.66992 -61 -7.00293 -93s-7.66602 -62 -12.999 -90h-41l-46 118h-187v-245h122l44 77h32c3.33301 -32.667 5 -69 5 -109s-1.66699 -77.333 -5 -112h-32l-44 79h-122v-260h195l53 127h41c2.66699 -12.667 5.33398 -27 8.00098 -43
s4.83398 -32.5 6.50098 -49.5s3 -34.167 4 -51.5s1.5 -33.333 1.5 -48h-541v38c11.333 6 24 11.667 38 17s28.667 9.33301 44 12v566c-13.333 2.66699 -27.5 6.5 -42.5 11.5s-28.167 10.833 -39.5 17.5v38h526zM361.996 898
c10.667 0.666992 22.833 0.00195312 36.5 -1.99805s27 -4.83301 40 -8.5s24.667 -7.83398 35 -12.501s17.5 -9.33398 21.5 -14.001v-20l-247 -96l-28 24z" />
    <glyph glyph-name="Ecircumflex" unicode="&#xca;" horiz-adv-x="604" 
d="M546 700c-1.33301 -30 -3.66992 -61 -7.00293 -93s-7.66602 -62 -12.999 -90h-41l-46 118h-187v-245h122l44 77h32c3.33301 -32.667 5 -69 5 -109s-1.66699 -77.333 -5 -112h-32l-44 79h-122v-260h195l53 127h41c2.66699 -12.667 5.33398 -27 8.00098 -43
s4.83398 -32.5 6.50098 -49.5s3 -34.167 4 -51.5s1.5 -33.333 1.5 -48h-541v38c11.333 6 24 11.667 38 17s28.667 9.33301 44 12v566c-13.333 2.66699 -27.5 6.5 -42.5 11.5s-28.167 10.833 -39.5 17.5v38h526zM181.996 743l-28 28l127 117c6.66699 3.33301 17 5 31 5
s24.333 -1.66699 31 -5l125 -114l-28 -30l-132 56z" />
    <glyph glyph-name="Edieresis" unicode="&#xcb;" horiz-adv-x="604" 
d="M546 700c-1.33301 -30 -3.66992 -61 -7.00293 -93s-7.66602 -62 -12.999 -90h-41l-46 118h-187v-245h122l44 77h32c3.33301 -32.667 5 -69 5 -109s-1.66699 -77.333 -5 -112h-32l-44 79h-122v-260h195l53 127h41c2.66699 -12.667 5.33398 -27 8.00098 -43
s4.83398 -32.5 6.50098 -49.5s3 -34.167 4 -51.5s1.5 -33.333 1.5 -48h-541v38c11.333 6 24 11.667 38 17s28.667 9.33301 44 12v566c-13.333 2.66699 -27.5 6.5 -42.5 11.5s-28.167 10.833 -39.5 17.5v38h526zM92.9961 793c0 21.333 7.66699 37.333 23 48
s34.666 16 57.999 16s42.666 -5.33301 57.999 -16s23 -26.667 23 -48c0 -18.667 -7.66699 -33.167 -23 -43.5s-34.666 -15.5 -57.999 -15.5s-42.666 5.16699 -57.999 15.5s-23 24.833 -23 43.5zM337.996 793c0 21.333 7.83301 37.333 23.5 48s35.167 16 58.5 16
s42.666 -5.33301 57.999 -16s23 -26.667 23 -48c0 -18.667 -7.66699 -33.167 -23 -43.5s-34.666 -15.5 -57.999 -15.5s-42.833 5.16699 -58.5 15.5s-23.5 24.833 -23.5 43.5z" />
    <glyph glyph-name="Igrave" unicode="&#xcc;" horiz-adv-x="372" 
d="M342 0h-312v38c26.667 14.667 53.667 24.334 81 29.001v566c-13.333 2 -27.333 5.66699 -42 11s-27.667 11.333 -39 18v38h312v-38c-12 -7.33301 -25.167 -13.5 -39.5 -18.5s-28.166 -8.5 -41.499 -10.5v-566c13.333 -2.66699 27.166 -6.33398 41.499 -11.001
s27.5 -10.667 39.5 -18v-38zM302 764l-34 -19.001l-236 96v20c2 6 9.16699 11.5 21.5 16.5s26.333 9.33301 42 13s31 6.33398 46 8.00098s26.167 1.5 33.5 -0.5z" />
    <glyph glyph-name="Iacute" unicode="&#xcd;" horiz-adv-x="372" 
d="M342 0h-312v38c26.667 14.667 53.667 24.334 81 29.001v566c-13.333 2 -27.333 5.66699 -42 11s-27.667 11.333 -39 18v38h312v-38c-12 -7.33301 -25.167 -13.5 -39.5 -18.5s-28.166 -8.5 -41.499 -10.5v-566c13.333 -2.66699 27.166 -6.33398 41.499 -11.001
s27.5 -10.667 39.5 -18v-38zM219 898c10.667 0.666992 22.833 0.00195312 36.5 -1.99805s27 -4.83301 40 -8.5s24.667 -7.83398 35 -12.501s17.5 -9.33398 21.5 -14.001v-20l-247 -96l-28 24z" />
    <glyph glyph-name="Icircumflex" unicode="&#xce;" horiz-adv-x="372" 
d="M342 0h-312v38c26.667 14.667 53.667 24.334 81 29.001v566c-13.333 2 -27.333 5.66699 -42 11s-27.667 11.333 -39 18v38h312v-38c-12 -7.33301 -25.167 -13.5 -39.5 -18.5s-28.166 -8.5 -41.499 -10.5v-566c13.333 -2.66699 27.166 -6.33398 41.499 -11.001
s27.5 -10.667 39.5 -18v-38zM58 743l-28 28l127 117c6.66699 3.33301 17 5 31 5s24.333 -1.66699 31 -5l125 -114l-28 -30l-132 56z" />
    <glyph glyph-name="Idieresis" unicode="&#xcf;" horiz-adv-x="372" 
d="M342 0h-312v38c26.667 14.667 53.667 24.334 81 29.001v566c-13.333 2 -27.333 5.66699 -42 11s-27.667 11.333 -39 18v38h312v-38c-12 -7.33301 -25.167 -13.5 -39.5 -18.5s-28.166 -8.5 -41.499 -10.5v-566c13.333 -2.66699 27.166 -6.33398 41.499 -11.001
s27.5 -10.667 39.5 -18v-38zM-17 793c0 21.333 7.66699 37.333 23 48s34.666 16 57.999 16s42.666 -5.33301 57.999 -16s23 -26.667 23 -48c0 -18.667 -7.66699 -33.167 -23 -43.5s-34.666 -15.5 -57.999 -15.5s-42.666 5.16699 -57.999 15.5s-23 24.833 -23 43.5zM228 793
c0 21.333 7.83301 37.333 23.5 48s35.167 16 58.5 16s42.666 -5.33301 57.999 -16s23 -26.667 23 -48c0 -18.667 -7.66699 -33.167 -23 -43.5s-34.666 -15.5 -57.999 -15.5s-42.833 5.16699 -58.5 15.5s-23.5 24.833 -23.5 43.5z" />
    <glyph glyph-name="Eth" unicode="&#xd0;" horiz-adv-x="741" 
d="M22 389l85.001 -0.00292969v244c-15.333 3.33301 -30.166 7.5 -44.499 12.5s-26.833 10.5 -37.5 16.5v38h116c11.333 0 25.333 0.333008 42 1s34 1.5 52 2.5s35.5 2 52.5 3s31.5 1.5 43.5 1.5c58 0 109.833 -7.66699 155.5 -23s84.334 -37.666 116.001 -66.999
s56 -65.666 73 -108.999s25.5 -93.333 25.5 -150c0 -55.333 -8 -105.666 -24 -150.999s-40 -84 -72 -116s-72.5 -56.833 -121.5 -74.5s-106.5 -26.5 -172.5 -26.5c-8.66699 0 -20.334 0.5 -35.001 1.5s-30.334 2 -47.001 3l-50 3c-16.667 1 -31.334 1.5 -44.001 1.5h-110v38
c11.333 6.66699 24 12.5 38 17.5s28.667 8.83301 44 11.5v262h-85v60zM318.001 642.997c-12 0 -24.001 -0.334961 -36.001 -1.00195s-22.333 -1.66699 -31 -3v-250h153v-60h-153v-269c2.66699 -0.666992 7.33398 -1.16699 14.001 -1.5s13.5 -0.666016 20.5 -0.999023
s13.833 -0.666016 20.5 -0.999023s11.667 -0.5 15 -0.5c38.667 0 71.5 8 98.5 24s49.167 37.667 66.5 65s30 59.333 38 96s12 75.667 12 117c0 36.667 -4.16699 72 -12.5 106s-21.166 64.333 -38.499 91s-39.833 48 -67.5 64s-60.834 24 -99.501 24z" />
    <glyph glyph-name="Ntilde" unicode="&#xd1;" horiz-adv-x="758" 
d="M490 700l248.001 -0.000976562v-38c-12.667 -10 -26.667 -18.833 -42 -26.5s-29.666 -13.5 -42.999 -17.5v-630h-85l-353 510l-40 77h-3l9 -80v-417c13.333 -3.33301 28.166 -8.83301 44.499 -16.5s30.166 -15.5 41.499 -23.5v-38h-247v38c12 8 25.167 15.5 39.5 22.5
s29.166 12.833 44.499 17.5v546c-13.333 5.33301 -26.666 11.333 -39.999 18s-25.333 13.667 -36 21v37h216l287 -416l46 -86h4l-5 86v334c-16 5.33301 -31.5 11.833 -46.5 19.5s-28.167 15.834 -39.5 24.501v38zM556.001 816.999
c-21.333 -21.333 -41.335 -37.5 -60.002 -48.5s-40 -16.5 -64 -16.5c-12.667 0 -24.5 1.83301 -35.5 5.5s-21.833 7.5 -32.5 11.5s-21 7.83301 -31 11.5s-20.333 5.5 -31 5.5c-9.33301 0 -19.5 -1.83301 -30.5 -5.5s-21.833 -10.167 -32.5 -19.5l-28 47
c50.667 45.333 95.667 68 135 68c12 0 23.5 -1.66699 34.5 -5s21.5 -7 31.5 -11s20 -7.66699 30 -11s20.333 -5 31 -5c8.66699 0 18.334 1.5 29.001 4.5s21.334 8.16699 32.001 15.5z" />
    <glyph glyph-name="Ograve" unicode="&#xd2;" horiz-adv-x="754" 
d="M39 350c0 52 7.33301 100.167 22 144.5s36.334 82.666 65.001 114.999s64 57.5 106 75.5s90.333 27 145 27s103 -9 145 -27s77.167 -43.167 105.5 -75.5s49.833 -70.666 64.5 -114.999s22 -92.5 22 -144.5s-7.33301 -100.167 -22 -144.5s-36.167 -82.666 -64.5 -114.999
s-63.5 -57.5 -105.5 -75.5s-90.333 -27 -145 -27s-103 9 -145 27s-77.333 43.167 -106 75.5s-50.334 70.666 -65.001 114.999s-22 92.5 -22 144.5zM209 350c0 -42.667 3.33496 -82.167 10.002 -118.5s17.167 -67.666 31.5 -93.999s32.666 -47 54.999 -62
s49.166 -22.5 80.499 -22.5c28.667 0 53 7.5 73 22.5s36.333 35.667 49 62s21.834 57.666 27.501 93.999s8.5 75.833 8.5 118.5s-3.16699 82.167 -9.5 118.5s-16.333 67.666 -30 93.999s-31.667 47 -54 62s-49.5 22.5 -81.5 22.5c-30.667 0 -56.334 -7.5 -77.001 -22.5
s-37.167 -35.667 -49.5 -62s-21 -57.666 -26 -93.999s-7.5 -75.833 -7.5 -118.5zM463.002 764l-34 -19.001l-236 96v20c2 6 9.16699 11.5 21.5 16.5s26.333 9.33301 42 13s31 6.33398 46 8.00098s26.167 1.5 33.5 -0.5z" />
    <glyph glyph-name="Oacute" unicode="&#xd3;" horiz-adv-x="754" 
d="M39 350c0 52 7.33301 100.167 22 144.5s36.334 82.666 65.001 114.999s64 57.5 106 75.5s90.333 27 145 27s103 -9 145 -27s77.167 -43.167 105.5 -75.5s49.833 -70.666 64.5 -114.999s22 -92.5 22 -144.5s-7.33301 -100.167 -22 -144.5s-36.167 -82.666 -64.5 -114.999
s-63.5 -57.5 -105.5 -75.5s-90.333 -27 -145 -27s-103 9 -145 27s-77.333 43.167 -106 75.5s-50.334 70.666 -65.001 114.999s-22 92.5 -22 144.5zM209 350c0 -42.667 3.33496 -82.167 10.002 -118.5s17.167 -67.666 31.5 -93.999s32.666 -47 54.999 -62
s49.166 -22.5 80.499 -22.5c28.667 0 53 7.5 73 22.5s36.333 35.667 49 62s21.834 57.666 27.501 93.999s8.5 75.833 8.5 118.5s-3.16699 82.167 -9.5 118.5s-16.333 67.666 -30 93.999s-31.667 47 -54 62s-49.5 22.5 -81.5 22.5c-30.667 0 -56.334 -7.5 -77.001 -22.5
s-37.167 -35.667 -49.5 -62s-21 -57.666 -26 -93.999s-7.5 -75.833 -7.5 -118.5zM425.002 898c10.667 0.666992 22.833 0.00195312 36.5 -1.99805s27 -4.83301 40 -8.5s24.667 -7.83398 35 -12.501s17.5 -9.33398 21.5 -14.001v-20l-247 -96l-28 24z" />
    <glyph glyph-name="Ocircumflex" unicode="&#xd4;" horiz-adv-x="754" 
d="M39 350c0 52 7.33301 100.167 22 144.5s36.334 82.666 65.001 114.999s64 57.5 106 75.5s90.333 27 145 27s103 -9 145 -27s77.167 -43.167 105.5 -75.5s49.833 -70.666 64.5 -114.999s22 -92.5 22 -144.5s-7.33301 -100.167 -22 -144.5s-36.167 -82.666 -64.5 -114.999
s-63.5 -57.5 -105.5 -75.5s-90.333 -27 -145 -27s-103 9 -145 27s-77.333 43.167 -106 75.5s-50.334 70.666 -65.001 114.999s-22 92.5 -22 144.5zM209 350c0 -42.667 3.33496 -82.167 10.002 -118.5s17.167 -67.666 31.5 -93.999s32.666 -47 54.999 -62
s49.166 -22.5 80.499 -22.5c28.667 0 53 7.5 73 22.5s36.333 35.667 49 62s21.834 57.666 27.501 93.999s8.5 75.833 8.5 118.5s-3.16699 82.167 -9.5 118.5s-16.333 67.666 -30 93.999s-31.667 47 -54 62s-49.5 22.5 -81.5 22.5c-30.667 0 -56.334 -7.5 -77.001 -22.5
s-37.167 -35.667 -49.5 -62s-21 -57.666 -26 -93.999s-7.5 -75.833 -7.5 -118.5zM248.002 743l-28 28l127 117c6.66699 3.33301 17 5 31 5s24.333 -1.66699 31 -5l125 -114l-28 -30l-132 56z" />
    <glyph glyph-name="Otilde" unicode="&#xd5;" horiz-adv-x="754" 
d="M39 350c0 52 7.33301 100.167 22 144.5s36.334 82.666 65.001 114.999s64 57.5 106 75.5s90.333 27 145 27s103 -9 145 -27s77.167 -43.167 105.5 -75.5s49.833 -70.666 64.5 -114.999s22 -92.5 22 -144.5s-7.33301 -100.167 -22 -144.5s-36.167 -82.666 -64.5 -114.999
s-63.5 -57.5 -105.5 -75.5s-90.333 -27 -145 -27s-103 9 -145 27s-77.333 43.167 -106 75.5s-50.334 70.666 -65.001 114.999s-22 92.5 -22 144.5zM209 350c0 -42.667 3.33496 -82.167 10.002 -118.5s17.167 -67.666 31.5 -93.999s32.666 -47 54.999 -62
s49.166 -22.5 80.499 -22.5c28.667 0 53 7.5 73 22.5s36.333 35.667 49 62s21.834 57.666 27.501 93.999s8.5 75.833 8.5 118.5s-3.16699 82.167 -9.5 118.5s-16.333 67.666 -30 93.999s-31.667 47 -54 62s-49.5 22.5 -81.5 22.5c-30.667 0 -56.334 -7.5 -77.001 -22.5
s-37.167 -35.667 -49.5 -62s-21 -57.666 -26 -93.999s-7.5 -75.833 -7.5 -118.5zM550.002 817c-21.333 -21.333 -41.335 -37.5 -60.002 -48.5s-40 -16.5 -64 -16.5c-12.667 0 -24.5 1.83301 -35.5 5.5s-21.833 7.5 -32.5 11.5s-21 7.83301 -31 11.5s-20.333 5.5 -31 5.5
c-9.33301 0 -19.5 -1.83301 -30.5 -5.5s-21.833 -10.167 -32.5 -19.5l-28 47c50.667 45.333 95.667 68 135 68c12 0 23.5 -1.66699 34.5 -5s21.5 -7 31.5 -11s20 -7.66699 30 -11s20.333 -5 31 -5c8.66699 0 18.334 1.5 29.001 4.5s21.334 8.16699 32.001 15.5z" />
    <glyph glyph-name="Odieresis" unicode="&#xd6;" horiz-adv-x="754" 
d="M39 350c0 52 7.33301 100.167 22 144.5s36.334 82.666 65.001 114.999s64 57.5 106 75.5s90.333 27 145 27s103 -9 145 -27s77.167 -43.167 105.5 -75.5s49.833 -70.666 64.5 -114.999s22 -92.5 22 -144.5s-7.33301 -100.167 -22 -144.5s-36.167 -82.666 -64.5 -114.999
s-63.5 -57.5 -105.5 -75.5s-90.333 -27 -145 -27s-103 9 -145 27s-77.333 43.167 -106 75.5s-50.334 70.666 -65.001 114.999s-22 92.5 -22 144.5zM209 350c0 -42.667 3.33496 -82.167 10.002 -118.5s17.167 -67.666 31.5 -93.999s32.666 -47 54.999 -62
s49.166 -22.5 80.499 -22.5c28.667 0 53 7.5 73 22.5s36.333 35.667 49 62s21.834 57.666 27.501 93.999s8.5 75.833 8.5 118.5s-3.16699 82.167 -9.5 118.5s-16.333 67.666 -30 93.999s-31.667 47 -54 62s-49.5 22.5 -81.5 22.5c-30.667 0 -56.334 -7.5 -77.001 -22.5
s-37.167 -35.667 -49.5 -62s-21 -57.666 -26 -93.999s-7.5 -75.833 -7.5 -118.5zM173.002 793c0 21.333 7.66699 37.333 23 48s34.666 16 57.999 16s42.666 -5.33301 57.999 -16s23 -26.667 23 -48c0 -18.667 -7.66699 -33.167 -23 -43.5s-34.666 -15.5 -57.999 -15.5
s-42.666 5.16699 -57.999 15.5s-23 24.833 -23 43.5zM418.002 793c0 21.333 7.83301 37.333 23.5 48s35.167 16 58.5 16s42.666 -5.33301 57.999 -16s23 -26.667 23 -48c0 -18.667 -7.66699 -33.167 -23 -43.5s-34.666 -15.5 -57.999 -15.5s-42.833 5.16699 -58.5 15.5
s-23.5 24.833 -23.5 43.5z" />
    <glyph glyph-name="multiply" unicode="&#xd7;" 
d="M94 213l130 131l-128 129l56 56l129 -128l131 130l56 -56l-130 -131l133 -133l-57 -57l-133 133l-131 -130z" />
    <glyph glyph-name="Oslash" unicode="&#xd8;" horiz-adv-x="754" 
d="M39 350c0 52 7.33203 100.167 21.999 144.5s36.334 82.666 65.001 114.999s64 57.5 106 75.5s90.333 27 145 27c32 0 61.667 -3.33301 89 -10s52.666 -16 75.999 -28l27 44l63 -39l-29 -46c36.667 -32.667 64.334 -73.167 83.001 -121.5s28 -102.166 28 -161.499
c0 -52 -7.33301 -100.167 -22 -144.5s-36.167 -82.666 -64.5 -114.999s-63.5 -57.5 -105.5 -75.5s-90.333 -27 -145 -27c-32 0 -61.333 3.16699 -88 9.5s-51.667 15.166 -75 26.499l-26 -42l-61 39l26 42c-38 32.667 -66.5 73.5 -85.5 122.5s-28.5 103.833 -28.5 164.5z
M208.999 350c0 -30 2.33301 -58.1689 7 -84.502s11.667 -50.166 21 -71.499l249 394c-13.333 18.667 -29.666 33.167 -48.999 43.5s-42 15.5 -68 15.5c-30.667 0 -56.334 -7.5 -77.001 -22.5s-37.167 -35.667 -49.5 -62s-21 -57.666 -26 -93.999s-7.5 -75.833 -7.5 -118.5z
M543.999 349.998c0 28.667 -2.00098 55.6689 -6.00098 81.002s-10.667 48.666 -20 69.999l-248 -391c28 -38 66.667 -57 116 -57c28.667 0 53 7.5 73 22.5s36.333 35.667 49 62s21.834 57.666 27.501 93.999s8.5 75.833 8.5 118.5z" />
    <glyph glyph-name="Ugrave" unicode="&#xd9;" horiz-adv-x="715" 
d="M7 700l307.998 -0.00195312v-38c-22 -14 -47.333 -23.667 -76 -29v-385c0 -32.667 3.66699 -60 11 -82s18 -39.833 32 -53.5s30.833 -23.5 50.5 -29.5s41.834 -9 66.501 -9c22 0 42.167 3.16699 60.5 9.5s34.333 16.5 48 30.5s24.167 32.333 31.5 55s11 50.667 11 84v375
c-15.333 3.33301 -31.166 8 -47.499 14s-29.833 12.667 -40.5 20v38h248v-38c-12 -8.66699 -25.333 -15.667 -40 -21s-29 -9.66602 -43 -12.999v-376c0 -85.333 -22.5 -150.166 -67.5 -194.499s-108.5 -66.5 -190.5 -66.5c-89.333 0 -158.333 20 -207 60s-73 104 -73 192
v390c-13.333 2 -27.333 5.5 -42 10.5s-28 11.167 -40 18.5v38zM451.998 763.998l-34 -19.001l-236 96v20c2 6 9.16699 11.5 21.5 16.5s26.333 9.33301 42 13s31 6.33398 46 8.00098s26.167 1.5 33.5 -0.5z" />
    <glyph glyph-name="Uacute" unicode="&#xda;" horiz-adv-x="715" 
d="M7 700l307.998 -0.00195312v-38c-22 -14 -47.333 -23.667 -76 -29v-385c0 -32.667 3.66699 -60 11 -82s18 -39.833 32 -53.5s30.833 -23.5 50.5 -29.5s41.834 -9 66.501 -9c22 0 42.167 3.16699 60.5 9.5s34.333 16.5 48 30.5s24.167 32.333 31.5 55s11 50.667 11 84v375
c-15.333 3.33301 -31.166 8 -47.499 14s-29.833 12.667 -40.5 20v38h248v-38c-12 -8.66699 -25.333 -15.667 -40 -21s-29 -9.66602 -43 -12.999v-376c0 -85.333 -22.5 -150.166 -67.5 -194.499s-108.5 -66.5 -190.5 -66.5c-89.333 0 -158.333 20 -207 60s-73 104 -73 192
v390c-13.333 2 -27.333 5.5 -42 10.5s-28 11.167 -40 18.5v38zM498.998 897.998c10.667 0.666992 22.833 0.00195312 36.5 -1.99805s27 -4.83301 40 -8.5s24.667 -7.83398 35 -12.501s17.5 -9.33398 21.5 -14.001v-20l-247 -96l-28 24z" />
    <glyph glyph-name="Ucircumflex" unicode="&#xdb;" horiz-adv-x="715" 
d="M7 700l307.998 -0.00195312v-38c-22 -14 -47.333 -23.667 -76 -29v-385c0 -32.667 3.66699 -60 11 -82s18 -39.833 32 -53.5s30.833 -23.5 50.5 -29.5s41.834 -9 66.501 -9c22 0 42.167 3.16699 60.5 9.5s34.333 16.5 48 30.5s24.167 32.333 31.5 55s11 50.667 11 84v375
c-15.333 3.33301 -31.166 8 -47.499 14s-29.833 12.667 -40.5 20v38h248v-38c-12 -8.66699 -25.333 -15.667 -40 -21s-29 -9.66602 -43 -12.999v-376c0 -85.333 -22.5 -150.166 -67.5 -194.499s-108.5 -66.5 -190.5 -66.5c-89.333 0 -158.333 20 -207 60s-73 104 -73 192
v390c-13.333 2 -27.333 5.5 -42 10.5s-28 11.167 -40 18.5v38zM262.998 742.998l-28 28l127 117c6.66699 3.33301 17 5 31 5s24.333 -1.66699 31 -5l125 -114l-28 -30l-132 56z" />
    <glyph glyph-name="Udieresis" unicode="&#xdc;" horiz-adv-x="715" 
d="M7 700l307.998 -0.00195312v-38c-22 -14 -47.333 -23.667 -76 -29v-385c0 -32.667 3.66699 -60 11 -82s18 -39.833 32 -53.5s30.833 -23.5 50.5 -29.5s41.834 -9 66.501 -9c22 0 42.167 3.16699 60.5 9.5s34.333 16.5 48 30.5s24.167 32.333 31.5 55s11 50.667 11 84v375
c-15.333 3.33301 -31.166 8 -47.499 14s-29.833 12.667 -40.5 20v38h248v-38c-12 -8.66699 -25.333 -15.667 -40 -21s-29 -9.66602 -43 -12.999v-376c0 -85.333 -22.5 -150.166 -67.5 -194.499s-108.5 -66.5 -190.5 -66.5c-89.333 0 -158.333 20 -207 60s-73 104 -73 192
v390c-13.333 2 -27.333 5.5 -42 10.5s-28 11.167 -40 18.5v38zM185.998 792.998c0 21.333 7.66699 37.333 23 48s34.666 16 57.999 16s42.666 -5.33301 57.999 -16s23 -26.667 23 -48c0 -18.667 -7.66699 -33.167 -23 -43.5s-34.666 -15.5 -57.999 -15.5
s-42.666 5.16699 -57.999 15.5s-23 24.833 -23 43.5zM430.998 792.998c0 21.333 7.83301 37.333 23.5 48s35.167 16 58.5 16s42.666 -5.33301 57.999 -16s23 -26.667 23 -48c0 -18.667 -7.66699 -33.167 -23 -43.5s-34.666 -15.5 -57.999 -15.5s-42.833 5.16699 -58.5 15.5
s-23.5 24.833 -23.5 43.5z" />
    <glyph glyph-name="Yacute" unicode="&#xdd;" horiz-adv-x="698" 
d="M453 700l245 0.000976562v-38c-10 -6 -21.167 -11.833 -33.5 -17.5s-24.833 -9.5 -37.5 -11.5l-194 -340v-226c13.333 -1.33301 26.5 -4.83301 39.5 -10.5s25.167 -11.834 36.5 -18.501v-38h-308v38c11.333 6 24 11.667 38 17s28.667 9.33301 44 12v225l-202 341
c-15.333 2.66699 -29.833 6.66699 -43.5 12s-26.167 11 -37.5 17v38h328v-38c-9.33301 -5.33301 -20 -10.666 -32 -15.999s-26 -9.66602 -42 -12.999l143 -268l136 268c-15.333 3.33301 -30 7.66602 -44 12.999s-26 10.666 -36 15.999v38zM494 898.001
c10.667 0.666992 22.833 0.00195312 36.5 -1.99805s27 -4.83301 40 -8.5s24.667 -7.83398 35 -12.501s17.5 -9.33398 21.5 -14.001v-20l-247 -96l-28 24z" />
    <glyph glyph-name="Thorn" unicode="&#xde;" horiz-adv-x="636" 
d="M252 63c18 -2 35.833 -5.83398 53.5 -11.501s33.5 -11.834 47.5 -18.501v-33h-333v33c12.667 7.33301 26.167 13.333 40.5 18s28.166 8.33398 41.499 11.001v576c-13.333 2 -27.333 5.66699 -42 11s-27.667 11.333 -39 18v33h312v-33
c-12 -7.33301 -25.167 -13.5 -39.5 -18.5s-28.166 -8.5 -41.499 -10.5v-45c13.333 1.33301 28 2.5 44 3.5s30.333 1.5 43 1.5c35.333 0 69.166 -3.5 101.499 -10.5s61 -18.5 86 -34.5s44.833 -37.167 59.5 -63.5s22 -59.166 22 -98.499
c0 -37.333 -7.5 -69.666 -22.5 -96.999s-35.333 -50 -61 -68s-55.167 -31.5 -88.5 -40.5s-68 -13.5 -104 -13.5h-16c-7.33301 0 -15.166 0.166992 -23.499 0.5s-16.333 0.666016 -24 0.999023s-13.167 0.833008 -16.5 1.5v-112zM306 532.999
c-13.333 0 -23.833 -0.500977 -31.5 -1.50098s-15.167 -2.5 -22.5 -4.5v-286c6 -2 15 -3.16699 27 -3.5s21.667 -0.5 29 -0.5c18 0 35 2.83301 51 8.5s30.333 14.5 43 26.5s22.667 27.333 30 46s11 41.334 11 68.001c0 50 -12.167 87 -36.5 111s-57.833 36 -100.5 36z" />
    <glyph glyph-name="germandbls" unicode="&#xdf;" horiz-adv-x="701" 
d="M458 584c0 34 -9.32715 61.0068 -27.9941 81.0068s-42.334 30 -71.001 30c-14.667 0 -29 -1.66699 -43 -5s-26.333 -10.5 -37 -21.5s-19.334 -27 -26.001 -48s-10 -48.833 -10 -83.5v-537h-210v39c20.667 12 42.667 20 66 24v374h-76v39
c23.333 14.667 48.666 25.667 75.999 33v35c0 41.333 8.5 75.5 25.5 102.5s38.333 48.333 64 64s53.667 26.5 84 32.5s59.166 9 86.499 9c76.667 0 134.334 -16.167 173.001 -48.5s58.667 -75.166 60 -128.499c-20 -3.33301 -39.333 -7.83301 -58 -13.5
s-35.167 -13.334 -49.5 -23.001s-25.833 -21.5 -34.5 -35.5s-13 -31 -13 -51c0 -20.667 5.83301 -38.834 17.5 -54.501s26.5 -30.5 44.5 -44.5s37.167 -27.833 57.5 -41.5s39.5 -28.834 57.5 -45.501s32.833 -35.334 44.5 -56.001s17.5 -44.667 17.5 -72
c0 -46.667 -17.5 -83.334 -52.5 -110.001s-86.167 -40 -153.5 -40c-32 0 -64.167 3.33301 -96.5 10s-60.833 16 -85.5 28c1.33301 20 4.66602 37.833 9.99902 53.5s11.666 29.167 18.999 40.5h34l69 -66c7.33301 -4 14.666 -6.5 21.999 -7.5s15 -1.5 23 -1.5
c21.333 0 39.5 5.66699 54.5 17s22.5 27 22.5 47c0 19.333 -5.83301 36.166 -17.5 50.499s-26.5 28.166 -44.5 41.499s-37.167 26.666 -57.5 39.999s-39.5 28.333 -57.5 45s-32.833 35.667 -44.5 57s-17.5 47 -17.5 77c0 40 14.333 73.833 43 101.5s66 48.5 112 62.5z" />
    <glyph glyph-name="agrave" unicode="&#xe0;" horiz-adv-x="557" 
d="M470 145c0 -14.667 0.170898 -27.335 0.503906 -38.002s1.16602 -22 2.49902 -34l69 -10v-35c-8 -4 -18.833 -8 -32.5 -12s-28 -7.83301 -43 -11.5s-29.833 -6.66699 -44.5 -9s-27.667 -4.16602 -39 -5.49902h-34c-6.66699 15.333 -10.667 30.666 -12 45.999
s-2.33301 34 -3 56h-5c-3.33301 -13.333 -9 -26.166 -17 -38.499s-18.167 -23.333 -30.5 -33s-26.833 -17.5 -43.5 -23.5s-35.334 -9 -56.001 -9c-22 0 -42.333 3.33301 -61 10s-35 16 -49 28s-25 26.5 -33 43.5s-12 36.167 -12 57.5c0 30 5.66699 54.667 17 74
s29.166 35.166 53.499 47.499s55.666 21.5 93.999 27.5s84.833 10.333 139.5 13c5.33301 57.333 3 99.333 -7 126s-31.667 40 -65 40c-20.667 0 -39.667 -3.33301 -57 -10l-47 -120h-44c-5.33301 8 -10.5 17.167 -15.5 27.5s-9.66699 21.333 -14 33s-8 23.5 -11 35.5
s-5.16699 23.667 -6.5 35c25.333 17.333 58 31 98 41s82.333 15 127 15c38 0 69 -4.16699 93 -12.5s42.833 -19.666 56.5 -33.999s23.167 -31.166 28.5 -50.499s8 -40 8 -62c0 -40 -0.833008 -76.167 -2.5 -108.5s-2.5 -65.5 -2.5 -99.5zM245.004 67.999
c14 0 25.999 2.66895 35.999 8.00195s18.5 11.666 25.5 18.999s12.333 15.333 16 24s6.5 16.334 8.5 23.001v100c-31.333 -0.666992 -57 -2.66699 -77 -6s-35.667 -8.83301 -47 -16.5s-19.166 -17.334 -23.499 -29.001s-6.5 -25.834 -6.5 -42.501c0 -25.333 6 -45 18 -59
s28.667 -21 50 -21zM354.003 589.001l-45 -22l-186 145v29c4 4 12.667 7.83301 26 11.5s27.5 6.5 42.5 8.5s29.167 3.16699 42.5 3.5s22.333 -0.166992 27 -1.5z" />
    <glyph glyph-name="aacute" unicode="&#xe1;" horiz-adv-x="557" 
d="M470 145c0 -14.667 0.170898 -27.335 0.503906 -38.002s1.16602 -22 2.49902 -34l69 -10v-35c-8 -4 -18.833 -8 -32.5 -12s-28 -7.83301 -43 -11.5s-29.833 -6.66699 -44.5 -9s-27.667 -4.16602 -39 -5.49902h-34c-6.66699 15.333 -10.667 30.666 -12 45.999
s-2.33301 34 -3 56h-5c-3.33301 -13.333 -9 -26.166 -17 -38.499s-18.167 -23.333 -30.5 -33s-26.833 -17.5 -43.5 -23.5s-35.334 -9 -56.001 -9c-22 0 -42.333 3.33301 -61 10s-35 16 -49 28s-25 26.5 -33 43.5s-12 36.167 -12 57.5c0 30 5.66699 54.667 17 74
s29.166 35.166 53.499 47.499s55.666 21.5 93.999 27.5s84.833 10.333 139.5 13c5.33301 57.333 3 99.333 -7 126s-31.667 40 -65 40c-20.667 0 -39.667 -3.33301 -57 -10l-47 -120h-44c-5.33301 8 -10.5 17.167 -15.5 27.5s-9.66699 21.333 -14 33s-8 23.5 -11 35.5
s-5.16699 23.667 -6.5 35c25.333 17.333 58 31 98 41s82.333 15 127 15c38 0 69 -4.16699 93 -12.5s42.833 -19.666 56.5 -33.999s23.167 -31.166 28.5 -50.499s8 -40 8 -62c0 -40 -0.833008 -76.167 -2.5 -108.5s-2.5 -65.5 -2.5 -99.5zM245.004 67.999
c14 0 25.999 2.66895 35.999 8.00195s18.5 11.666 25.5 18.999s12.333 15.333 16 24s6.5 16.334 8.5 23.001v100c-31.333 -0.666992 -57 -2.66699 -77 -6s-35.667 -8.83301 -47 -16.5s-19.166 -17.334 -23.499 -29.001s-6.5 -25.834 -6.5 -42.501c0 -25.333 6 -45 18 -59
s28.667 -21 50 -21zM316.003 763.001c5.33301 1.33301 14.168 1.83301 26.501 1.5s25.166 -1.5 38.499 -3.5s25.5 -4.83301 36.5 -8.5s18.167 -7.5 21.5 -11.5v-24l-191 -155l-40 22z" />
    <glyph glyph-name="acircumflex" unicode="&#xe2;" horiz-adv-x="557" 
d="M470 145c0 -14.667 0.170898 -27.335 0.503906 -38.002s1.16602 -22 2.49902 -34l69 -10v-35c-8 -4 -18.833 -8 -32.5 -12s-28 -7.83301 -43 -11.5s-29.833 -6.66699 -44.5 -9s-27.667 -4.16602 -39 -5.49902h-34c-6.66699 15.333 -10.667 30.666 -12 45.999
s-2.33301 34 -3 56h-5c-3.33301 -13.333 -9 -26.166 -17 -38.499s-18.167 -23.333 -30.5 -33s-26.833 -17.5 -43.5 -23.5s-35.334 -9 -56.001 -9c-22 0 -42.333 3.33301 -61 10s-35 16 -49 28s-25 26.5 -33 43.5s-12 36.167 -12 57.5c0 30 5.66699 54.667 17 74
s29.166 35.166 53.499 47.499s55.666 21.5 93.999 27.5s84.833 10.333 139.5 13c5.33301 57.333 3 99.333 -7 126s-31.667 40 -65 40c-20.667 0 -39.667 -3.33301 -57 -10l-47 -120h-44c-5.33301 8 -10.5 17.167 -15.5 27.5s-9.66699 21.333 -14 33s-8 23.5 -11 35.5
s-5.16699 23.667 -6.5 35c25.333 17.333 58 31 98 41s82.333 15 127 15c38 0 69 -4.16699 93 -12.5s42.833 -19.666 56.5 -33.999s23.167 -31.166 28.5 -50.499s8 -40 8 -62c0 -40 -0.833008 -76.167 -2.5 -108.5s-2.5 -65.5 -2.5 -99.5zM245.004 67.999
c14 0 25.999 2.66895 35.999 8.00195s18.5 11.666 25.5 18.999s12.333 15.333 16 24s6.5 16.334 8.5 23.001v100c-31.333 -0.666992 -57 -2.66699 -77 -6s-35.667 -8.83301 -47 -16.5s-19.166 -17.334 -23.499 -29.001s-6.5 -25.834 -6.5 -42.501c0 -25.333 6 -45 18 -59
s28.667 -21 50 -21zM186.003 577.001l-42 25.001l110 186c4 3.33301 12.167 5.16602 24.5 5.49902s21.5 -1.5 27.5 -5.5l114 -185l-41 -26l-103 98z" />
    <glyph glyph-name="atilde" unicode="&#xe3;" horiz-adv-x="557" 
d="M470 145c0 -14.667 0.170898 -27.335 0.503906 -38.002s1.16602 -22 2.49902 -34l69 -10v-35c-8 -4 -18.833 -8 -32.5 -12s-28 -7.83301 -43 -11.5s-29.833 -6.66699 -44.5 -9s-27.667 -4.16602 -39 -5.49902h-34c-6.66699 15.333 -10.667 30.666 -12 45.999
s-2.33301 34 -3 56h-5c-3.33301 -13.333 -9 -26.166 -17 -38.499s-18.167 -23.333 -30.5 -33s-26.833 -17.5 -43.5 -23.5s-35.334 -9 -56.001 -9c-22 0 -42.333 3.33301 -61 10s-35 16 -49 28s-25 26.5 -33 43.5s-12 36.167 -12 57.5c0 30 5.66699 54.667 17 74
s29.166 35.166 53.499 47.499s55.666 21.5 93.999 27.5s84.833 10.333 139.5 13c5.33301 57.333 3 99.333 -7 126s-31.667 40 -65 40c-20.667 0 -39.667 -3.33301 -57 -10l-47 -120h-44c-5.33301 8 -10.5 17.167 -15.5 27.5s-9.66699 21.333 -14 33s-8 23.5 -11 35.5
s-5.16699 23.667 -6.5 35c25.333 17.333 58 31 98 41s82.333 15 127 15c38 0 69 -4.16699 93 -12.5s42.833 -19.666 56.5 -33.999s23.167 -31.166 28.5 -50.499s8 -40 8 -62c0 -40 -0.833008 -76.167 -2.5 -108.5s-2.5 -65.5 -2.5 -99.5zM245.004 67.999
c14 0 25.999 2.66895 35.999 8.00195s18.5 11.666 25.5 18.999s12.333 15.333 16 24s6.5 16.334 8.5 23.001v100c-31.333 -0.666992 -57 -2.66699 -77 -6s-35.667 -8.83301 -47 -16.5s-19.166 -17.334 -23.499 -29.001s-6.5 -25.834 -6.5 -42.501c0 -25.333 6 -45 18 -59
s28.667 -21 50 -21zM429.003 667.001c-20 -22.667 -40.668 -39.168 -62.001 -49.501s-39.666 -15.5 -54.999 -15.5c-12 0 -23.333 1.83301 -34 5.5s-21 7.5 -31 11.5s-19.833 7.83301 -29.5 11.5s-19.5 5.5 -29.5 5.5c-8.66699 0 -17.5 -1.5 -26.5 -4.5
s-18.833 -8.16699 -29.5 -15.5l-28 42c24.667 25.333 48.167 43 70.5 53s41.166 15 56.499 15c12 0 23.167 -1.66699 33.5 -5s20.166 -7 29.499 -11s18.833 -7.66699 28.5 -11s19.5 -5 29.5 -5c8.66699 0 17.334 0.833008 26.001 2.5s18.334 5.83398 29.001 12.501z" />
    <glyph glyph-name="adieresis" unicode="&#xe4;" horiz-adv-x="557" 
d="M470 145c0 -14.667 0.170898 -27.335 0.503906 -38.002s1.16602 -22 2.49902 -34l69 -10v-35c-8 -4 -18.833 -8 -32.5 -12s-28 -7.83301 -43 -11.5s-29.833 -6.66699 -44.5 -9s-27.667 -4.16602 -39 -5.49902h-34c-6.66699 15.333 -10.667 30.666 -12 45.999
s-2.33301 34 -3 56h-5c-3.33301 -13.333 -9 -26.166 -17 -38.499s-18.167 -23.333 -30.5 -33s-26.833 -17.5 -43.5 -23.5s-35.334 -9 -56.001 -9c-22 0 -42.333 3.33301 -61 10s-35 16 -49 28s-25 26.5 -33 43.5s-12 36.167 -12 57.5c0 30 5.66699 54.667 17 74
s29.166 35.166 53.499 47.499s55.666 21.5 93.999 27.5s84.833 10.333 139.5 13c5.33301 57.333 3 99.333 -7 126s-31.667 40 -65 40c-20.667 0 -39.667 -3.33301 -57 -10l-47 -120h-44c-5.33301 8 -10.5 17.167 -15.5 27.5s-9.66699 21.333 -14 33s-8 23.5 -11 35.5
s-5.16699 23.667 -6.5 35c25.333 17.333 58 31 98 41s82.333 15 127 15c38 0 69 -4.16699 93 -12.5s42.833 -19.666 56.5 -33.999s23.167 -31.166 28.5 -50.499s8 -40 8 -62c0 -40 -0.833008 -76.167 -2.5 -108.5s-2.5 -65.5 -2.5 -99.5zM245.004 67.999
c14 0 25.999 2.66895 35.999 8.00195s18.5 11.666 25.5 18.999s12.333 15.333 16 24s6.5 16.334 8.5 23.001v100c-31.333 -0.666992 -57 -2.66699 -77 -6s-35.667 -8.83301 -47 -16.5s-19.166 -17.334 -23.499 -29.001s-6.5 -25.834 -6.5 -42.501c0 -25.333 6 -45 18 -59
s28.667 -21 50 -21zM74.0029 659.001c0 21.333 6.66699 38.333 20 51s31 19 53 19c21.333 0 38.833 -6.33301 52.5 -19s20.5 -29.667 20.5 -51c0 -20 -6.83301 -36.333 -20.5 -49s-31.167 -19 -52.5 -19c-22 0 -39.667 6.33301 -53 19s-20 29 -20 49zM313.003 659.001
c0 21.333 6.66699 38.333 20 51s30.666 19 51.999 19c22 0 39.833 -6.33301 53.5 -19s20.5 -29.667 20.5 -51c0 -20 -6.83301 -36.333 -20.5 -49s-31.5 -19 -53.5 -19c-21.333 0 -38.666 6.33301 -51.999 19s-20 29 -20 49z" />
    <glyph glyph-name="aring" unicode="&#xe5;" horiz-adv-x="557" 
d="M470 145c0 -14.667 0.170898 -27.335 0.503906 -38.002s1.16602 -22 2.49902 -34l69 -10v-35c-8 -4 -18.833 -8 -32.5 -12s-28 -7.83301 -43 -11.5s-29.833 -6.66699 -44.5 -9s-27.667 -4.16602 -39 -5.49902h-34c-6.66699 15.333 -10.667 30.666 -12 45.999
s-2.33301 34 -3 56h-5c-3.33301 -13.333 -9 -26.166 -17 -38.499s-18.167 -23.333 -30.5 -33s-26.833 -17.5 -43.5 -23.5s-35.334 -9 -56.001 -9c-22 0 -42.333 3.33301 -61 10s-35 16 -49 28s-25 26.5 -33 43.5s-12 36.167 -12 57.5c0 30 5.66699 54.667 17 74
s29.166 35.166 53.499 47.499s55.666 21.5 93.999 27.5s84.833 10.333 139.5 13c5.33301 57.333 3 99.333 -7 126s-31.667 40 -65 40c-20.667 0 -39.667 -3.33301 -57 -10l-47 -120h-44c-5.33301 8 -10.5 17.167 -15.5 27.5s-9.66699 21.333 -14 33s-8 23.5 -11 35.5
s-5.16699 23.667 -6.5 35c25.333 17.333 58 31 98 41s82.333 15 127 15c38 0 69 -4.16699 93 -12.5s42.833 -19.666 56.5 -33.999s23.167 -31.166 28.5 -50.499s8 -40 8 -62c0 -40 -0.833008 -76.167 -2.5 -108.5s-2.5 -65.5 -2.5 -99.5zM245.004 67.999
c14 0 25.999 2.66895 35.999 8.00195s18.5 11.666 25.5 18.999s12.333 15.333 16 24s6.5 16.334 8.5 23.001v100c-31.333 -0.666992 -57 -2.66699 -77 -6s-35.667 -8.83301 -47 -16.5s-19.166 -17.334 -23.499 -29.001s-6.5 -25.834 -6.5 -42.501c0 -25.333 6 -45 18 -59
s28.667 -21 50 -21zM154.003 679.001c0 27.333 10.168 51 30.501 71s49.5 30 87.5 30c35.333 0 62.833 -9 82.5 -27s29.5 -41.667 29.5 -71c0 -28 -10.333 -51.333 -31 -70s-48 -28 -82 -28c-38.667 0 -67.834 8.83301 -87.501 26.5s-29.5 40.5 -29.5 68.5zM229.004 681.001
c0 -15.333 3.66797 -27 11.001 -35s16.666 -12 27.999 -12c27.333 0 41 14.667 41 44c0 18 -3.83301 31.167 -11.5 39.5s-17.167 12.5 -28.5 12.5c-26.667 0 -40 -16.333 -40 -49z" />
    <glyph glyph-name="ae" unicode="&#xe6;" horiz-adv-x="823" 
d="M424 465c11.333 12 27.999 22.833 49.999 32.5s54 14.5 96 14.5c34 0 65.833 -4.66699 95.5 -14s54.334 -24.666 74.001 -45.999s33.334 -49.333 41.001 -84s7.16699 -77 -1.5 -127h-307c0.666992 -52.667 14.334 -94.667 41.001 -126s65.334 -47 116.001 -47
c22.667 0 45.667 3.33301 69 10s41.666 15.334 54.999 26.001l19 -20c-5.33301 -11.333 -13.833 -22.833 -25.5 -34.5s-26 -22 -43 -31s-36.667 -16.333 -59 -22s-46.5 -8.5 -72.5 -8.5c-44 0 -85 8.16699 -123 24.5s-68.667 43.5 -92 81.5
c-4.66699 -14 -12.5 -27.5 -23.5 -40.5s-24.333 -24.333 -40 -34s-33 -17.334 -52 -23.001s-38.833 -8.5 -59.5 -8.5c-22 0 -42.333 3.33301 -61 10s-35 16 -49 28s-25 26.5 -33 43.5s-12 36.167 -12 57.5c0 30 5.5 54.667 16.5 74s28.667 35.166 53 47.499
s55.666 21.5 93.999 27.5s84.833 10.333 139.5 13c5.33301 57.333 3.16602 99.333 -6.50098 126s-31.167 40 -64.5 40c-20.667 0 -39.667 -3.33301 -57 -10l-47 -120h-44c-5.33301 8 -10.5 17.167 -15.5 27.5s-9.66699 21.333 -14 33s-8 23.5 -11 35.5
s-5.16699 23.667 -6.5 35c25.333 17.333 58 31 98 41s82.333 15 127 15c40.667 0 71 -4.33301 91 -13s34.667 -20 44 -34zM244.999 68c14 0 25.998 2.50293 35.998 7.50293s18.333 11.167 25 18.5s11.834 15.166 15.501 23.499s6.5 15.833 8.5 22.5v102
c-31.333 -0.666992 -56.833 -2.66699 -76.5 -6s-35.167 -8.83301 -46.5 -16.5s-19.166 -17.334 -23.499 -29.001s-6.5 -25.834 -6.5 -42.501c0 -25.333 6 -45 18 -59s28.667 -21 50 -21zM565.997 455.003c-13.333 0 -25.166 -2.33301 -35.499 -7s-19.333 -13.167 -27 -25.5
s-13.834 -29 -18.501 -50s-8 -47.5 -10 -79.5h161c4.66699 52 1.66699 92 -9 120s-31 42 -61 42z" />
    <glyph glyph-name="ccedilla" unicode="&#xe7;" horiz-adv-x="484" 
d="M456 81c-4.66699 -13.333 -12.501 -25.502 -23.501 -36.502s-24.167 -20.833 -39.5 -29.5s-32.5 -15.334 -51.5 -20.001s-38.833 -7 -59.5 -7l-21 -56c40 -2 70.5 -9.16699 91.5 -21.5s31.833 -30.5 32.5 -54.5c0 -19.333 -5.66699 -36 -17 -50s-26.333 -25.667 -45 -35
s-39.667 -16.333 -63 -21s-46.666 -7 -69.999 -7v39c46.667 7.33301 70 26.333 70 57c-0.666992 15.333 -7.16699 26.333 -19.5 33s-30.166 11.334 -53.499 14.001l38 107c-67.333 10 -116.5 37.833 -147.5 83.5s-46.5 103.5 -46.5 173.5c0 84.667 23.167 149.5 69.5 194.5
s112.166 67.5 197.499 67.5c32.667 0 62.667 -3.5 90 -10.5s50 -15.167 68 -24.5c-1.33301 -11.333 -3.16602 -23.833 -5.49902 -37.5s-5 -27.334 -8 -41.001s-6.5 -27 -10.5 -40s-8 -23.833 -12 -32.5h-49l-42 119c-4.66699 3.33301 -9.66699 5.83301 -15 7.5
s-13.333 2.5 -24 2.5c-17.333 0 -32.333 -3.16699 -45 -9.5s-23.5 -17.166 -32.5 -32.499s-15.667 -35.666 -20 -60.999s-6.5 -56.666 -6.5 -93.999c0 -27.333 3 -52.5 9 -75.5s15.167 -43 27.5 -60s27.833 -30.333 46.5 -40s40.667 -14.5 66 -14.5
c23.333 0 43.666 3.33301 60.999 10s32 14.667 44 24z" />
    <glyph glyph-name="egrave" unicode="&#xe8;" horiz-adv-x="537" 
d="M486 84c-5.33301 -11.333 -13.834 -22.835 -25.501 -34.502s-26 -22 -43 -31s-36.667 -16.333 -59 -22s-46.5 -8.5 -72.5 -8.5c-41.333 0 -78 6.16699 -110 18.5s-58.667 30 -80 53s-37.5 50.5 -48.5 82.5s-16.5 68 -16.5 108c0 85.333 22.333 150.333 67 195
s106.667 67 186 67c34 0 65.833 -4.66699 95.5 -14s54.334 -24.666 74.001 -45.999s33.334 -49.333 41.001 -84s7.16699 -77 -1.5 -127h-307c0.666992 -52.667 14.167 -94.667 40.5 -126s65.166 -47 116.499 -47c22 0 44.833 3.33301 68.5 10s42.167 15.334 55.5 26.001z
M279.999 454.998c-13.333 0 -25.166 -2.33301 -35.499 -7s-19.333 -13.167 -27 -25.5s-13.834 -29 -18.501 -50s-8 -47.5 -10 -79.5h161c4.66699 52 1.66699 92 -9 120s-31 42 -61 42zM355.999 588.998l-45 -22l-186 145v29c4 4 12.667 7.83301 26 11.5s27.5 6.5 42.5 8.5
s29.167 3.16699 42.5 3.5s22.333 -0.166992 27 -1.5z" />
    <glyph glyph-name="eacute" unicode="&#xe9;" horiz-adv-x="537" 
d="M486 84c-5.33301 -11.333 -13.834 -22.835 -25.501 -34.502s-26 -22 -43 -31s-36.667 -16.333 -59 -22s-46.5 -8.5 -72.5 -8.5c-41.333 0 -78 6.16699 -110 18.5s-58.667 30 -80 53s-37.5 50.5 -48.5 82.5s-16.5 68 -16.5 108c0 85.333 22.333 150.333 67 195
s106.667 67 186 67c34 0 65.833 -4.66699 95.5 -14s54.334 -24.666 74.001 -45.999s33.334 -49.333 41.001 -84s7.16699 -77 -1.5 -127h-307c0.666992 -52.667 14.167 -94.667 40.5 -126s65.166 -47 116.499 -47c22 0 44.833 3.33301 68.5 10s42.167 15.334 55.5 26.001z
M279.999 454.998c-13.333 0 -25.166 -2.33301 -35.499 -7s-19.333 -13.167 -27 -25.5s-13.834 -29 -18.501 -50s-8 -47.5 -10 -79.5h161c4.66699 52 1.66699 92 -9 120s-31 42 -61 42zM307.999 762.998c5.33301 1.33301 14.168 1.83301 26.501 1.5s25.166 -1.5 38.499 -3.5
s25.5 -4.83301 36.5 -8.5s18.167 -7.5 21.5 -11.5v-24l-191 -155l-40 22z" />
    <glyph glyph-name="ecircumflex" unicode="&#xea;" horiz-adv-x="537" 
d="M486 84c-5.33301 -11.333 -13.834 -22.835 -25.501 -34.502s-26 -22 -43 -31s-36.667 -16.333 -59 -22s-46.5 -8.5 -72.5 -8.5c-41.333 0 -78 6.16699 -110 18.5s-58.667 30 -80 53s-37.5 50.5 -48.5 82.5s-16.5 68 -16.5 108c0 85.333 22.333 150.333 67 195
s106.667 67 186 67c34 0 65.833 -4.66699 95.5 -14s54.334 -24.666 74.001 -45.999s33.334 -49.333 41.001 -84s7.16699 -77 -1.5 -127h-307c0.666992 -52.667 14.167 -94.667 40.5 -126s65.166 -47 116.499 -47c22 0 44.833 3.33301 68.5 10s42.167 15.334 55.5 26.001z
M279.999 454.998c-13.333 0 -25.166 -2.33301 -35.499 -7s-19.333 -13.167 -27 -25.5s-13.834 -29 -18.501 -50s-8 -47.5 -10 -79.5h161c4.66699 52 1.66699 92 -9 120s-31 42 -61 42zM182.999 576.998l-42 25.001l110 186c4 3.33301 12.167 5.16602 24.5 5.49902
s21.5 -1.5 27.5 -5.5l114 -185l-41 -26l-103 98z" />
    <glyph glyph-name="edieresis" unicode="&#xeb;" horiz-adv-x="537" 
d="M486 84c-5.33301 -11.333 -13.834 -22.835 -25.501 -34.502s-26 -22 -43 -31s-36.667 -16.333 -59 -22s-46.5 -8.5 -72.5 -8.5c-41.333 0 -78 6.16699 -110 18.5s-58.667 30 -80 53s-37.5 50.5 -48.5 82.5s-16.5 68 -16.5 108c0 85.333 22.333 150.333 67 195
s106.667 67 186 67c34 0 65.833 -4.66699 95.5 -14s54.334 -24.666 74.001 -45.999s33.334 -49.333 41.001 -84s7.16699 -77 -1.5 -127h-307c0.666992 -52.667 14.167 -94.667 40.5 -126s65.166 -47 116.499 -47c22 0 44.833 3.33301 68.5 10s42.167 15.334 55.5 26.001z
M279.999 454.998c-13.333 0 -25.166 -2.33301 -35.499 -7s-19.333 -13.167 -27 -25.5s-13.834 -29 -18.501 -50s-8 -47.5 -10 -79.5h161c4.66699 52 1.66699 92 -9 120s-31 42 -61 42zM82.999 658.998c0 21.333 6.66699 38.333 20 51s31 19 53 19
c21.333 0 38.833 -6.33301 52.5 -19s20.5 -29.667 20.5 -51c0 -20 -6.83301 -36.333 -20.5 -49s-31.167 -19 -52.5 -19c-22 0 -39.667 6.33301 -53 19s-20 29 -20 49zM321.999 658.998c0 21.333 6.66699 38.333 20 51s30.666 19 51.999 19c22 0 39.833 -6.33301 53.5 -19
s20.5 -29.667 20.5 -51c0 -20 -6.83301 -36.333 -20.5 -49s-31.5 -19 -53.5 -19c-21.333 0 -38.666 6.33301 -51.999 19s-20 29 -20 49z" />
    <glyph glyph-name="igrave" unicode="&#xec;" horiz-adv-x="332" 
d="M307 0l-276.001 0.000976562v39c10 5.33301 20.333 9.83301 31 13.5s22.334 7.16699 35.001 10.5v366l-66 8v39c10 4 22.5 8 37.5 12s30.833 7.5 47.5 10.5s33 5.66699 49 8s30 4.16602 42 5.49902h34v-449c13.333 -3.33301 25.333 -6.83301 36 -10.5
s20.667 -8.16699 30 -13.5v-39zM232.999 589.001l-45 -22l-186 145v29c4 4 12.667 7.83301 26 11.5s27.5 6.5 42.5 8.5s29.167 3.16699 42.5 3.5s22.333 -0.166992 27 -1.5z" />
    <glyph glyph-name="iacute" unicode="&#xed;" horiz-adv-x="332" 
d="M307 0l-276.001 0.000976562v39c10 5.33301 20.333 9.83301 31 13.5s22.334 7.16699 35.001 10.5v366l-66 8v39c10 4 22.5 8 37.5 12s30.833 7.5 47.5 10.5s33 5.66699 49 8s30 4.16602 42 5.49902h34v-449c13.333 -3.33301 25.333 -6.83301 36 -10.5
s20.667 -8.16699 30 -13.5v-39zM188.999 763.001c5.33301 1.33301 14.168 1.83301 26.501 1.5s25.166 -1.5 38.499 -3.5s25.5 -4.83301 36.5 -8.5s18.167 -7.5 21.5 -11.5v-24l-191 -155l-40 22z" />
    <glyph glyph-name="icircumflex" unicode="&#xee;" horiz-adv-x="332" 
d="M307 0l-276.001 0.000976562v39c10 5.33301 20.333 9.83301 31 13.5s22.334 7.16699 35.001 10.5v366l-66 8v39c10 4 22.5 8 37.5 12s30.833 7.5 47.5 10.5s33 5.66699 49 8s30 4.16602 42 5.49902h34v-449c13.333 -3.33301 25.333 -6.83301 36 -10.5
s20.667 -8.16699 30 -13.5v-39zM67.999 577.001l-42 25.001l110 186c4 3.33301 12.167 5.16602 24.5 5.49902s21.5 -1.5 27.5 -5.5l114 -185l-41 -26l-103 98z" />
    <glyph glyph-name="idieresis" unicode="&#xef;" horiz-adv-x="332" 
d="M307 0l-276.001 0.000976562v39c10 5.33301 20.333 9.83301 31 13.5s22.334 7.16699 35.001 10.5v366l-66 8v39c10 4 22.5 8 37.5 12s30.833 7.5 47.5 10.5s33 5.66699 49 8s30 4.16602 42 5.49902h34v-449c13.333 -3.33301 25.333 -6.83301 36 -10.5
s20.667 -8.16699 30 -13.5v-39zM-24.001 659.001c0 21.333 6.66699 38.333 20 51s31 19 53 19c21.333 0 38.833 -6.33301 52.5 -19s20.5 -29.667 20.5 -51c0 -20 -6.83301 -36.333 -20.5 -49s-31.167 -19 -52.5 -19c-22 0 -39.667 6.33301 -53 19s-20 29 -20 49z
M214.999 659.001c0 21.333 6.66699 38.333 20 51s30.666 19 51.999 19c22 0 39.833 -6.33301 53.5 -19s20.5 -29.667 20.5 -51c0 -20 -6.83301 -36.333 -20.5 -49s-31.5 -19 -53.5 -19c-21.333 0 -38.666 6.33301 -51.999 19s-20 29 -20 49z" />
    <glyph glyph-name="eth" unicode="&#xf0;" horiz-adv-x="577" 
d="M175 610l95.998 39.0029c-16.667 16 -34.667 30.5 -54 43.5s-39.666 23.5 -60.999 31.5v26h97c36.667 -11.333 73.667 -32 111 -62l98 40l27 -56l-74 -31c18.667 -20.667 36 -43.667 52 -69s30 -52.833 42 -82.5s21.5 -61.334 28.5 -95.001s10.5 -68.834 10.5 -105.501
c0 -43.333 -5.5 -83.5 -16.5 -120.5s-27.5 -68.833 -49.5 -95.5s-49.5 -47.5 -82.5 -62.5s-71.167 -22.5 -114.5 -22.5c-40.667 0 -77.167 6.16699 -109.5 18.5s-59.666 29.833 -81.999 52.5s-39.5 49.5 -51.5 80.5s-18 65.167 -18 102.5c0 44.667 6.5 84 19.5 118
s30.333 62.167 52 84.5s46.167 39.166 73.5 50.499s55.333 17 84 17c34 0 60.833 -5.66699 80.5 -17s36.834 -25 51.501 -41c-7.33301 24 -16.833 48.5 -28.5 73.5s-25.834 49.167 -42.501 72.5l-111 -46zM178.998 242.003c0 -27.333 2.16797 -52.667 6.50098 -76
s11.166 -43.666 20.499 -60.999s21 -31 35 -41s31 -15 51 -15c36.667 0 62.667 19.167 78 57.5s23 94.166 23 167.499c0 35.333 -1 63 -3 83s-4.66699 34.333 -8 43c-19.333 24.667 -50.333 37 -93 37c-16.667 0 -31.667 -3.33301 -45 -10s-24.833 -17.667 -34.5 -33
s-17.167 -35.5 -22.5 -60.5s-8 -55.5 -8 -91.5z" />
    <glyph glyph-name="ntilde" unicode="&#xf1;" horiz-adv-x="644" 
d="M632 0l-265 0.00195312v39c8.66699 4.66699 17.167 8.83398 25.5 12.501s18.166 7.5 29.499 11.5v235c0 42 -6 74.833 -18 98.5s-33.333 35.5 -64 35.5c-25.333 0 -47.166 -8.16699 -65.499 -24.5s-32.166 -38.5 -41.499 -66.5v-278
c10.667 -2.66699 20.167 -5.83398 28.5 -9.50098s17.166 -8.5 26.499 -14.5v-39h-265v39c16.667 8.66699 38.667 16.667 66 24v366l-66 8v39c8.66699 4 20 7.83301 34 11.5s29.167 7.16699 45.5 10.5s33 6.16602 50 8.49902s32.5 4.16602 46.5 5.49902h34v-103h1
c14 28 35 52.167 63 72.5s62 30.5 102 30.5c26 0 49.333 -3.16699 70 -9.5s38.167 -17.5 52.5 -33.5s25.333 -37.5 33 -64.5s11.5 -61.167 11.5 -102.5v-239c26.667 -4.66699 48.667 -12.667 66 -24v-39zM487 667.002c-20 -22.667 -40.668 -39.168 -62.001 -49.501
s-39.666 -15.5 -54.999 -15.5c-12 0 -23.333 1.83301 -34 5.5s-21 7.5 -31 11.5s-19.833 7.83301 -29.5 11.5s-19.5 5.5 -29.5 5.5c-8.66699 0 -17.5 -1.5 -26.5 -4.5s-18.833 -8.16699 -29.5 -15.5l-28 42c24.667 25.333 48.167 43 70.5 53s41.166 15 56.499 15
c12 0 23.167 -1.66699 33.5 -5s20.166 -7 29.499 -11s18.833 -7.66699 28.5 -11s19.5 -5 29.5 -5c8.66699 0 17.334 0.833008 26.001 2.5s18.334 5.83398 29.001 12.501z" />
    <glyph glyph-name="ograve" unicode="&#xf2;" horiz-adv-x="594" 
d="M31 250c0 40.667 6.16406 77.167 18.4971 109.5s30 59.833 53 82.5s50.833 40 83.5 52s69.667 18 111 18c46.667 0 86.834 -6.5 120.501 -19.5s61.334 -31 83.001 -54s37.5 -50.667 47.5 -83s15 -67.5 15 -105.5c0 -40.667 -6 -77.167 -18 -109.5
s-29.5 -59.833 -52.5 -82.5s-51 -40 -84 -52s-70.167 -18 -111.5 -18c-45.333 0 -84.666 6.5 -117.999 19.5s-61 31 -83 54s-38.333 50.667 -49 83s-16 67.5 -16 105.5zM185.997 250c0 -30 1.83301 -57.501 5.5 -82.501s10.167 -46.167 19.5 -63.5s22 -30.833 38 -40.5
s36.667 -14.5 62 -14.5c14.667 0 28 3.5 40 10.5s22.333 18.333 31 34s15.167 36.334 19.5 62.001s6.5 57.167 6.5 94.5c0 30.667 -1.83301 58.334 -5.5 83.001s-10 45.667 -19 63s-21.167 30.833 -36.5 40.5s-34.666 14.5 -57.999 14.5c-17.333 0 -32.333 -3.5 -45 -10.5
s-23.334 -18.333 -32.001 -34s-15.167 -36.334 -19.5 -62.001s-6.5 -57.167 -6.5 -94.5zM374.997 588.999l-45 -22l-186 145v29c4 4 12.667 7.83301 26 11.5s27.5 6.5 42.5 8.5s29.167 3.16699 42.5 3.5s22.333 -0.166992 27 -1.5z" />
    <glyph glyph-name="oacute" unicode="&#xf3;" horiz-adv-x="594" 
d="M31 250c0 40.667 6.16406 77.167 18.4971 109.5s30 59.833 53 82.5s50.833 40 83.5 52s69.667 18 111 18c46.667 0 86.834 -6.5 120.501 -19.5s61.334 -31 83.001 -54s37.5 -50.667 47.5 -83s15 -67.5 15 -105.5c0 -40.667 -6 -77.167 -18 -109.5
s-29.5 -59.833 -52.5 -82.5s-51 -40 -84 -52s-70.167 -18 -111.5 -18c-45.333 0 -84.666 6.5 -117.999 19.5s-61 31 -83 54s-38.333 50.667 -49 83s-16 67.5 -16 105.5zM185.997 250c0 -30 1.83301 -57.501 5.5 -82.501s10.167 -46.167 19.5 -63.5s22 -30.833 38 -40.5
s36.667 -14.5 62 -14.5c14.667 0 28 3.5 40 10.5s22.333 18.333 31 34s15.167 36.334 19.5 62.001s6.5 57.167 6.5 94.5c0 30.667 -1.83301 58.334 -5.5 83.001s-10 45.667 -19 63s-21.167 30.833 -36.5 40.5s-34.666 14.5 -57.999 14.5c-17.333 0 -32.333 -3.5 -45 -10.5
s-23.334 -18.333 -32.001 -34s-15.167 -36.334 -19.5 -62.001s-6.5 -57.167 -6.5 -94.5zM336.997 762.999c5.33301 1.33301 14.168 1.83301 26.501 1.5s25.166 -1.5 38.499 -3.5s25.5 -4.83301 36.5 -8.5s18.167 -7.5 21.5 -11.5v-24l-191 -155l-40 22z" />
    <glyph glyph-name="ocircumflex" unicode="&#xf4;" horiz-adv-x="594" 
d="M31 250c0 40.667 6.16406 77.167 18.4971 109.5s30 59.833 53 82.5s50.833 40 83.5 52s69.667 18 111 18c46.667 0 86.834 -6.5 120.501 -19.5s61.334 -31 83.001 -54s37.5 -50.667 47.5 -83s15 -67.5 15 -105.5c0 -40.667 -6 -77.167 -18 -109.5
s-29.5 -59.833 -52.5 -82.5s-51 -40 -84 -52s-70.167 -18 -111.5 -18c-45.333 0 -84.666 6.5 -117.999 19.5s-61 31 -83 54s-38.333 50.667 -49 83s-16 67.5 -16 105.5zM185.997 250c0 -30 1.83301 -57.501 5.5 -82.501s10.167 -46.167 19.5 -63.5s22 -30.833 38 -40.5
s36.667 -14.5 62 -14.5c14.667 0 28 3.5 40 10.5s22.333 18.333 31 34s15.167 36.334 19.5 62.001s6.5 57.167 6.5 94.5c0 30.667 -1.83301 58.334 -5.5 83.001s-10 45.667 -19 63s-21.167 30.833 -36.5 40.5s-34.666 14.5 -57.999 14.5c-17.333 0 -32.333 -3.5 -45 -10.5
s-23.334 -18.333 -32.001 -34s-15.167 -36.334 -19.5 -62.001s-6.5 -57.167 -6.5 -94.5zM199.997 576.999l-42 25.001l110 186c4 3.33301 12.167 5.16602 24.5 5.49902s21.5 -1.5 27.5 -5.5l114 -185l-41 -26l-103 98z" />
    <glyph glyph-name="otilde" unicode="&#xf5;" horiz-adv-x="594" 
d="M31 250c0 40.667 6.16406 77.167 18.4971 109.5s30 59.833 53 82.5s50.833 40 83.5 52s69.667 18 111 18c46.667 0 86.834 -6.5 120.501 -19.5s61.334 -31 83.001 -54s37.5 -50.667 47.5 -83s15 -67.5 15 -105.5c0 -40.667 -6 -77.167 -18 -109.5
s-29.5 -59.833 -52.5 -82.5s-51 -40 -84 -52s-70.167 -18 -111.5 -18c-45.333 0 -84.666 6.5 -117.999 19.5s-61 31 -83 54s-38.333 50.667 -49 83s-16 67.5 -16 105.5zM185.997 250c0 -30 1.83301 -57.501 5.5 -82.501s10.167 -46.167 19.5 -63.5s22 -30.833 38 -40.5
s36.667 -14.5 62 -14.5c14.667 0 28 3.5 40 10.5s22.333 18.333 31 34s15.167 36.334 19.5 62.001s6.5 57.167 6.5 94.5c0 30.667 -1.83301 58.334 -5.5 83.001s-10 45.667 -19 63s-21.167 30.833 -36.5 40.5s-34.666 14.5 -57.999 14.5c-17.333 0 -32.333 -3.5 -45 -10.5
s-23.334 -18.333 -32.001 -34s-15.167 -36.334 -19.5 -62.001s-6.5 -57.167 -6.5 -94.5zM458.997 666.999c-20 -22.667 -40.668 -39.168 -62.001 -49.501s-39.666 -15.5 -54.999 -15.5c-12 0 -23.333 1.83301 -34 5.5s-21 7.5 -31 11.5s-19.833 7.83301 -29.5 11.5
s-19.5 5.5 -29.5 5.5c-8.66699 0 -17.5 -1.5 -26.5 -4.5s-18.833 -8.16699 -29.5 -15.5l-28 42c24.667 25.333 48.167 43 70.5 53s41.166 15 56.499 15c12 0 23.167 -1.66699 33.5 -5s20.166 -7 29.499 -11s18.833 -7.66699 28.5 -11s19.5 -5 29.5 -5
c8.66699 0 17.334 0.833008 26.001 2.5s18.334 5.83398 29.001 12.501z" />
    <glyph glyph-name="odieresis" unicode="&#xf6;" horiz-adv-x="594" 
d="M31 250c0 40.667 6.16406 77.167 18.4971 109.5s30 59.833 53 82.5s50.833 40 83.5 52s69.667 18 111 18c46.667 0 86.834 -6.5 120.501 -19.5s61.334 -31 83.001 -54s37.5 -50.667 47.5 -83s15 -67.5 15 -105.5c0 -40.667 -6 -77.167 -18 -109.5
s-29.5 -59.833 -52.5 -82.5s-51 -40 -84 -52s-70.167 -18 -111.5 -18c-45.333 0 -84.666 6.5 -117.999 19.5s-61 31 -83 54s-38.333 50.667 -49 83s-16 67.5 -16 105.5zM185.997 250c0 -30 1.83301 -57.501 5.5 -82.501s10.167 -46.167 19.5 -63.5s22 -30.833 38 -40.5
s36.667 -14.5 62 -14.5c14.667 0 28 3.5 40 10.5s22.333 18.333 31 34s15.167 36.334 19.5 62.001s6.5 57.167 6.5 94.5c0 30.667 -1.83301 58.334 -5.5 83.001s-10 45.667 -19 63s-21.167 30.833 -36.5 40.5s-34.666 14.5 -57.999 14.5c-17.333 0 -32.333 -3.5 -45 -10.5
s-23.334 -18.333 -32.001 -34s-15.167 -36.334 -19.5 -62.001s-6.5 -57.167 -6.5 -94.5zM104.997 658.999c0 21.333 6.66699 38.333 20 51s31 19 53 19c21.333 0 38.833 -6.33301 52.5 -19s20.5 -29.667 20.5 -51c0 -20 -6.83301 -36.333 -20.5 -49s-31.167 -19 -52.5 -19
c-22 0 -39.667 6.33301 -53 19s-20 29 -20 49zM343.997 658.999c0 21.333 6.66699 38.333 20 51s30.666 19 51.999 19c22 0 39.833 -6.33301 53.5 -19s20.5 -29.667 20.5 -51c0 -20 -6.83301 -36.333 -20.5 -49s-31.5 -19 -53.5 -19c-21.333 0 -38.666 6.33301 -51.999 19
s-20 29 -20 49z" />
    <glyph glyph-name="divide" unicode="&#xf7;" 
d="M57 386h450v-80h-450v80zM197 536c0 24 7.66699 43.333 23 58s35.666 22 60.999 22s46 -7.33301 62 -22s24 -34 24 -58s-8 -43.167 -24 -57.5s-36.667 -21.5 -62 -21.5s-45.666 7.16699 -60.999 21.5s-23 33.5 -23 57.5zM197 155c0 24 7.66699 43.333 23 58
s35.666 22 60.999 22s46 -7.33301 62 -22s24 -34 24 -58s-8 -43.167 -24 -57.5s-36.667 -21.5 -62 -21.5s-45.666 7.16699 -60.999 21.5s-23 33.5 -23 57.5z" />
    <glyph glyph-name="oslash" unicode="&#xf8;" horiz-adv-x="594" 
d="M114 44c-28.667 23.333 -49.667 52.501 -63 87.501s-20 74.5 -20 118.5c0 40.667 6.16699 77.167 18.5 109.5s30 59.833 53 82.5s50.833 40 83.5 52s69.667 18 111 18c26 0 49.833 -2.16699 71.5 -6.5s41.5 -10.5 59.5 -18.5l44 63l54 -38l-42 -59
c27.333 -23.333 47.333 -52.333 60 -87s19 -73.334 19 -116.001c0 -40.667 -6 -77.167 -18 -109.5s-29.5 -59.833 -52.5 -82.5s-51 -40 -84 -52s-70.167 -18 -111.5 -18c-48 0 -90 7.66699 -126 23l-48 -69l-53 39zM186 250.001c0 -17.333 1 -33.5 3 -48.5
s5.66699 -28.5 11 -40.5l174 251c-9.33301 13.333 -20.833 23.833 -34.5 31.5s-30.5 11.5 -50.5 11.5c-35.333 0 -61.333 -15.5 -78 -46.5s-25 -83.833 -25 -158.5zM408 250.001c0 31.333 -4.33301 58.667 -13 82l-172 -249c20 -25.333 50.333 -38 91 -38
c31.333 0 54.833 15.5 70.5 46.5s23.5 83.833 23.5 158.5z" />
    <glyph glyph-name="ugrave" unicode="&#xf9;" horiz-adv-x="622" 
d="M71 198c0 42 0.998047 81 2.99805 117s3 74 3 114l-66 8v39c10.667 4 23.834 8 39.501 12s31.834 7.5 48.501 10.5s32.834 5.66699 48.501 8s28.834 4.16602 39.501 5.49902h34c0 -50 -1 -99.167 -3 -147.5s-3 -95.833 -3 -142.5c0 -54.667 5.5 -94 16.5 -118
s31.5 -36 61.5 -36c20.667 0 39.834 7.83301 57.501 23.5s32.167 40.834 43.5 75.501v262l-65 8v39c10 4 22.5 8 37.5 12s30.667 7.5 47 10.5s32.5 5.66699 48.5 8s30 4.16602 42 5.49902h34v-441l66 -8v-35c-9.33301 -4 -21 -8 -35 -12s-28.667 -7.83301 -44 -11.5
s-30.5 -6.66699 -45.5 -9s-28.5 -4.16602 -40.5 -5.49902h-34l-7 119h-4c-3.33301 -14 -9.33301 -28.167 -18 -42.5s-19.834 -27.333 -33.501 -39s-29.834 -21.167 -48.501 -28.5s-39.334 -11 -62.001 -11c-25.333 0 -47.833 3.16699 -67.5 9.5s-36.5 17.5 -50.5 33.5
s-24.667 37.5 -32 64.5s-11 61.167 -11 102.5zM387.998 589l-45 -22l-186 145v29c4 4 12.667 7.83301 26 11.5s27.5 6.5 42.5 8.5s29.167 3.16699 42.5 3.5s22.333 -0.166992 27 -1.5z" />
    <glyph glyph-name="uacute" unicode="&#xfa;" horiz-adv-x="622" 
d="M71 198c0 42 0.998047 81 2.99805 117s3 74 3 114l-66 8v39c10.667 4 23.834 8 39.501 12s31.834 7.5 48.501 10.5s32.834 5.66699 48.501 8s28.834 4.16602 39.501 5.49902h34c0 -50 -1 -99.167 -3 -147.5s-3 -95.833 -3 -142.5c0 -54.667 5.5 -94 16.5 -118
s31.5 -36 61.5 -36c20.667 0 39.834 7.83301 57.501 23.5s32.167 40.834 43.5 75.501v262l-65 8v39c10 4 22.5 8 37.5 12s30.667 7.5 47 10.5s32.5 5.66699 48.5 8s30 4.16602 42 5.49902h34v-441l66 -8v-35c-9.33301 -4 -21 -8 -35 -12s-28.667 -7.83301 -44 -11.5
s-30.5 -6.66699 -45.5 -9s-28.5 -4.16602 -40.5 -5.49902h-34l-7 119h-4c-3.33301 -14 -9.33301 -28.167 -18 -42.5s-19.834 -27.333 -33.501 -39s-29.834 -21.167 -48.501 -28.5s-39.334 -11 -62.001 -11c-25.333 0 -47.833 3.16699 -67.5 9.5s-36.5 17.5 -50.5 33.5
s-24.667 37.5 -32 64.5s-11 61.167 -11 102.5zM334.998 763c5.33301 1.33301 14.168 1.83301 26.501 1.5s25.166 -1.5 38.499 -3.5s25.5 -4.83301 36.5 -8.5s18.167 -7.5 21.5 -11.5v-24l-191 -155l-40 22z" />
    <glyph glyph-name="ucircumflex" unicode="&#xfb;" horiz-adv-x="622" 
d="M71 198c0 42 0.998047 81 2.99805 117s3 74 3 114l-66 8v39c10.667 4 23.834 8 39.501 12s31.834 7.5 48.501 10.5s32.834 5.66699 48.501 8s28.834 4.16602 39.501 5.49902h34c0 -50 -1 -99.167 -3 -147.5s-3 -95.833 -3 -142.5c0 -54.667 5.5 -94 16.5 -118
s31.5 -36 61.5 -36c20.667 0 39.834 7.83301 57.501 23.5s32.167 40.834 43.5 75.501v262l-65 8v39c10 4 22.5 8 37.5 12s30.667 7.5 47 10.5s32.5 5.66699 48.5 8s30 4.16602 42 5.49902h34v-441l66 -8v-35c-9.33301 -4 -21 -8 -35 -12s-28.667 -7.83301 -44 -11.5
s-30.5 -6.66699 -45.5 -9s-28.5 -4.16602 -40.5 -5.49902h-34l-7 119h-4c-3.33301 -14 -9.33301 -28.167 -18 -42.5s-19.834 -27.333 -33.501 -39s-29.834 -21.167 -48.501 -28.5s-39.334 -11 -62.001 -11c-25.333 0 -47.833 3.16699 -67.5 9.5s-36.5 17.5 -50.5 33.5
s-24.667 37.5 -32 64.5s-11 61.167 -11 102.5zM210.998 577l-42 25.001l110 186c4 3.33301 12.167 5.16602 24.5 5.49902s21.5 -1.5 27.5 -5.5l114 -185l-41 -26l-103 98z" />
    <glyph glyph-name="udieresis" unicode="&#xfc;" horiz-adv-x="622" 
d="M71 198c0 42 0.998047 81 2.99805 117s3 74 3 114l-66 8v39c10.667 4 23.834 8 39.501 12s31.834 7.5 48.501 10.5s32.834 5.66699 48.501 8s28.834 4.16602 39.501 5.49902h34c0 -50 -1 -99.167 -3 -147.5s-3 -95.833 -3 -142.5c0 -54.667 5.5 -94 16.5 -118
s31.5 -36 61.5 -36c20.667 0 39.834 7.83301 57.501 23.5s32.167 40.834 43.5 75.501v262l-65 8v39c10 4 22.5 8 37.5 12s30.667 7.5 47 10.5s32.5 5.66699 48.5 8s30 4.16602 42 5.49902h34v-441l66 -8v-35c-9.33301 -4 -21 -8 -35 -12s-28.667 -7.83301 -44 -11.5
s-30.5 -6.66699 -45.5 -9s-28.5 -4.16602 -40.5 -5.49902h-34l-7 119h-4c-3.33301 -14 -9.33301 -28.167 -18 -42.5s-19.834 -27.333 -33.501 -39s-29.834 -21.167 -48.501 -28.5s-39.334 -11 -62.001 -11c-25.333 0 -47.833 3.16699 -67.5 9.5s-36.5 17.5 -50.5 33.5
s-24.667 37.5 -32 64.5s-11 61.167 -11 102.5zM112.998 659c0 21.333 6.66699 38.333 20 51s31 19 53 19c21.333 0 38.833 -6.33301 52.5 -19s20.5 -29.667 20.5 -51c0 -20 -6.83301 -36.333 -20.5 -49s-31.167 -19 -52.5 -19c-22 0 -39.667 6.33301 -53 19s-20 29 -20 49z
M351.998 659c0 21.333 6.66699 38.333 20 51s30.666 19 51.999 19c22 0 39.833 -6.33301 53.5 -19s20.5 -29.667 20.5 -51c0 -20 -6.83301 -36.333 -20.5 -49s-31.5 -19 -53.5 -19c-21.333 0 -38.666 6.33301 -51.999 19s-20 29 -20 49z" />
    <glyph glyph-name="yacute" unicode="&#xfd;" horiz-adv-x="528" 
d="M38 437c-10 2.66699 -19.166 5.99902 -27.499 9.99902s-16.833 8.66699 -25.5 14v39h263v-38c-14 -9.33301 -33 -17.666 -57 -24.999l101 -251l17 -64h2l16 65l78 250c-20 4 -38.333 12 -55 24v39h193v-39c-14 -9.33301 -33 -17.333 -57 -24l-163 -437
c-16 -42.667 -32 -77.5 -48 -104.5s-32 -48.5 -48 -64.5s-32 -27.167 -48 -33.5s-32 -10.5 -48 -12.5c-6.66699 6 -12.667 13.5 -18 22.5s-10 18.667 -14 29s-7.33301 20.833 -10 31.5s-4.33398 20.667 -5.00098 30l13 24h122c6 9.33301 11.167 19.333 15.5 30
s9.5 26.667 15.5 48zM311.001 762.999c5.33301 1.33301 14.168 1.83301 26.501 1.5s25.166 -1.5 38.499 -3.5s25.5 -4.83301 36.5 -8.5s18.167 -7.5 21.5 -11.5v-24l-191 -155l-40 22z" />
    <glyph glyph-name="thorn" unicode="&#xfe;" horiz-adv-x="609" 
d="M86 669l-75.999 8.00098v39c8.66699 4 20.667 8 36 12s31.833 7.5 49.5 10.5s35.334 5.66699 53.001 8s33.5 4.16602 47.5 5.49902h34v-352h1c11.333 32 29.166 58.667 53.499 80s58.166 32 101.499 32c29.333 0 55.833 -4.83301 79.5 -14.5s43.667 -24.667 60 -45
s29 -46.333 38 -78s13.5 -69.5 13.5 -113.5c0 -42 -5.83301 -80 -17.5 -114s-28.334 -62.667 -50.001 -86s-48 -41.333 -79 -54s-66.167 -19 -105.5 -19c-22.667 0 -40.5 1.5 -53.5 4.5s-26.833 8.16699 -41.5 15.5v-145c10.667 -1.33301 21.334 -3.83301 32.001 -7.5
s22 -9.16699 34 -16.5v-39h-276v39c22.667 10.667 44.667 18.667 66 24v806zM328.001 432.001c-22.667 0 -42.833 -8.00195 -60.5 -24.002s-30.167 -40.667 -37.5 -74v-266c10.667 -8 22 -13.833 34 -17.5s27.667 -5.5 47 -5.5c38 0 66 18.333 84 55s27 90.334 27 161.001
c0 54.667 -6.83301 96.834 -20.5 126.501s-38.167 44.5 -73.5 44.5z" />
    <glyph glyph-name="ydieresis" unicode="&#xff;" horiz-adv-x="528" 
d="M38 437c-10 2.66699 -19.166 5.99902 -27.499 9.99902s-16.833 8.66699 -25.5 14v39h263v-38c-14 -9.33301 -33 -17.666 -57 -24.999l101 -251l17 -64h2l16 65l78 250c-20 4 -38.333 12 -55 24v39h193v-39c-14 -9.33301 -33 -17.333 -57 -24l-163 -437
c-16 -42.667 -32 -77.5 -48 -104.5s-32 -48.5 -48 -64.5s-32 -27.167 -48 -33.5s-32 -10.5 -48 -12.5c-6.66699 6 -12.667 13.5 -18 22.5s-10 18.667 -14 29s-7.33301 20.833 -10 31.5s-4.33398 20.667 -5.00098 30l13 24h122c6 9.33301 11.167 19.333 15.5 30
s9.5 26.667 15.5 48zM87.001 658.999c0 21.333 6.66699 38.333 20 51s31 19 53 19c21.333 0 38.833 -6.33301 52.5 -19s20.5 -29.667 20.5 -51c0 -20 -6.83301 -36.333 -20.5 -49s-31.167 -19 -52.5 -19c-22 0 -39.667 6.33301 -53 19s-20 29 -20 49zM326.001 658.999
c0 21.333 6.66699 38.333 20 51s30.666 19 51.999 19c22 0 39.833 -6.33301 53.5 -19s20.5 -29.667 20.5 -51c0 -20 -6.83301 -36.333 -20.5 -49s-31.5 -19 -53.5 -19c-21.333 0 -38.666 6.33301 -51.999 19s-20 29 -20 49z" />
    <glyph glyph-name="Amacron" unicode="&#x100;" horiz-adv-x="729" 
d="M247 0h-247v38c10.667 6.66699 22.167 12.5 34.5 17.5s24.5 8.83301 36.5 11.5l258 645h74l251 -645c13.333 -2.66699 26.666 -6.5 39.999 -11.5s25 -10.833 35 -17.5v-38h-313v38c12.667 6 26.334 11.667 41.001 17s28.667 9.33301 42 12l-58 159h-222l-59 -159
c30.667 -4 59.667 -13.667 87 -29v-38zM243 291h177l-65 191l-19 86h-2l-22 -88zM206 779v70h324v-70h-324z" />
    <glyph glyph-name="amacron" unicode="&#x101;" horiz-adv-x="557" 
d="M470 145c0 -14.667 0.170898 -27.335 0.503906 -38.002s1.16602 -22 2.49902 -34l69 -10v-35c-8 -4 -18.833 -8 -32.5 -12s-28 -7.83301 -43 -11.5s-29.833 -6.66699 -44.5 -9s-27.667 -4.16602 -39 -5.49902h-34c-6.66699 15.333 -10.667 30.666 -12 45.999
s-2.33301 34 -3 56h-5c-3.33301 -13.333 -9 -26.166 -17 -38.499s-18.167 -23.333 -30.5 -33s-26.833 -17.5 -43.5 -23.5s-35.334 -9 -56.001 -9c-22 0 -42.333 3.33301 -61 10s-35 16 -49 28s-25 26.5 -33 43.5s-12 36.167 -12 57.5c0 30 5.66699 54.667 17 74
s29.166 35.166 53.499 47.499s55.666 21.5 93.999 27.5s84.833 10.333 139.5 13c5.33301 57.333 3 99.333 -7 126s-31.667 40 -65 40c-20.667 0 -39.667 -3.33301 -57 -10l-47 -120h-44c-5.33301 8 -10.5 17.167 -15.5 27.5s-9.66699 21.333 -14 33s-8 23.5 -11 35.5
s-5.16699 23.667 -6.5 35c25.333 17.333 58 31 98 41s82.333 15 127 15c38 0 69 -4.16699 93 -12.5s42.833 -19.666 56.5 -33.999s23.167 -31.166 28.5 -50.499s8 -40 8 -62c0 -40 -0.833008 -76.167 -2.5 -108.5s-2.5 -65.5 -2.5 -99.5zM245.004 67.999
c14 0 25.999 2.66895 35.999 8.00195s18.5 11.666 25.5 18.999s12.333 15.333 16 24s6.5 16.334 8.5 23.001v100c-31.333 -0.666992 -57 -2.66699 -77 -6s-35.667 -8.83301 -47 -16.5s-19.166 -17.334 -23.499 -29.001s-6.5 -25.834 -6.5 -42.501c0 -25.333 6 -45 18 -59
s28.667 -21 50 -21zM127.003 619.001v70h294v-70h-294z" />
    <glyph glyph-name="Abreve" unicode="&#x102;" horiz-adv-x="729" 
d="M247 0h-247v38c10.667 6.66699 22.167 12.5 34.5 17.5s24.5 8.83301 36.5 11.5l258 645h74l251 -645c13.333 -2.66699 26.666 -6.5 39.999 -11.5s25 -10.833 35 -17.5v-38h-313v38c12.667 6 26.334 11.667 41.001 17s28.667 9.33301 42 12l-58 159h-222l-59 -159
c30.667 -4 59.667 -13.667 87 -29v-38zM243 291h177l-65 191l-19 86h-2l-22 -88zM495 897c4.66699 0.666992 11.5 -1.33203 20.5 -5.99902s15.833 -10.334 20.5 -17.001c-6 -14.667 -14 -28.834 -24 -42.501s-22 -25.834 -36 -36.501s-30 -19.334 -48 -26.001
s-37.333 -10 -58 -10c-44.667 0 -81.334 10.5 -110.001 31.5s-49.334 49.5 -62.001 85.5c4.66699 8 11.834 14.333 21.501 19s19.5 6.33398 29.5 5.00098c4.66699 -7.33301 11.834 -14 21.501 -20s20.167 -11 31.5 -15s23.166 -7.16699 35.499 -9.5s23.5 -3.5 33.5 -3.5
c10.667 0 22 0.666992 34 2s23.5 3.83301 34.5 7.5s21.333 8.33398 31 14.001s17.834 12.834 24.501 21.501z" />
    <glyph glyph-name="abreve" unicode="&#x103;" horiz-adv-x="557" 
d="M470 145c0 -14.667 0.170898 -27.335 0.503906 -38.002s1.16602 -22 2.49902 -34l69 -10v-35c-8 -4 -18.833 -8 -32.5 -12s-28 -7.83301 -43 -11.5s-29.833 -6.66699 -44.5 -9s-27.667 -4.16602 -39 -5.49902h-34c-6.66699 15.333 -10.667 30.666 -12 45.999
s-2.33301 34 -3 56h-5c-3.33301 -13.333 -9 -26.166 -17 -38.499s-18.167 -23.333 -30.5 -33s-26.833 -17.5 -43.5 -23.5s-35.334 -9 -56.001 -9c-22 0 -42.333 3.33301 -61 10s-35 16 -49 28s-25 26.5 -33 43.5s-12 36.167 -12 57.5c0 30 5.66699 54.667 17 74
s29.166 35.166 53.499 47.499s55.666 21.5 93.999 27.5s84.833 10.333 139.5 13c5.33301 57.333 3 99.333 -7 126s-31.667 40 -65 40c-20.667 0 -39.667 -3.33301 -57 -10l-47 -120h-44c-5.33301 8 -10.5 17.167 -15.5 27.5s-9.66699 21.333 -14 33s-8 23.5 -11 35.5
s-5.16699 23.667 -6.5 35c25.333 17.333 58 31 98 41s82.333 15 127 15c38 0 69 -4.16699 93 -12.5s42.833 -19.666 56.5 -33.999s23.167 -31.166 28.5 -50.499s8 -40 8 -62c0 -40 -0.833008 -76.167 -2.5 -108.5s-2.5 -65.5 -2.5 -99.5zM245.004 67.999
c14 0 25.999 2.66895 35.999 8.00195s18.5 11.666 25.5 18.999s12.333 15.333 16 24s6.5 16.334 8.5 23.001v100c-31.333 -0.666992 -57 -2.66699 -77 -6s-35.667 -8.83301 -47 -16.5s-19.166 -17.334 -23.499 -29.001s-6.5 -25.834 -6.5 -42.501c0 -25.333 6 -45 18 -59
s28.667 -21 50 -21zM426.003 724.001c-6 -18 -13.666 -35.5 -22.999 -52.5s-20.5 -32 -33.5 -45s-27.5 -23.333 -43.5 -31s-33.333 -11.5 -52 -11.5c-19.333 0 -37.333 3.66699 -54 11s-31.667 17.5 -45 30.5s-24.833 28.167 -34.5 45.5s-17.167 35.666 -22.5 54.999l37 22
c13.333 -17.333 30.666 -31.666 51.999 -42.999s44 -17.333 68 -18c50 -1.33301 89.333 17.667 118 57z" />
    <glyph glyph-name="Aogonek" unicode="&#x104;" horiz-adv-x="729" 
d="M247 0l-246.999 -0.00195312v38c10.667 6.66699 22.167 12.5 34.5 17.5s24.5 8.83301 36.5 11.5l258 645h74l251 -645c13.333 -2.66699 26.666 -6.5 39.999 -11.5s25 -10.833 35 -17.5v-38h-37c-26 -18.667 -46.167 -40.5 -60.5 -65.5s-21.5 -48.167 -21.5 -69.5
c0 -17.333 5.16699 -30.666 15.5 -39.999s23.166 -14 38.499 -14c8 0 15.667 0.333008 23 1s15 2 23 4v-43c-9.33301 -7.33301 -23.166 -13.833 -41.499 -19.5s-38.166 -8.5 -59.499 -8.5c-40.667 0 -71.834 9.5 -93.501 28.5s-32.5 42.167 -32.5 69.5
c0 18 3.5 34.5 10.5 49.5s16.667 28.833 29 41.5s27.166 24.334 44.499 35.001s36.333 21 57 31h-208v38c12.667 6 26.334 11.667 41.001 17s28.667 9.33301 42 12l-58 159h-222l-59 -159c30.667 -4 59.667 -13.667 87 -29v-38zM243.001 290.998h177l-65 191l-19 86h-2
l-22 -88z" />
    <glyph glyph-name="aogonek" unicode="&#x105;" horiz-adv-x="557" 
d="M470 145c0 -14.667 0.173828 -27.332 0.506836 -37.999s1.16602 -22 2.49902 -34l69 -10v-35c-7.33301 -4.66699 -17.333 -8.66699 -30 -12c-28.667 -16 -51.334 -36.333 -68.001 -61s-25 -49.334 -25 -74.001c0 -12.667 4.16699 -24.167 12.5 -34.5
s20.166 -15.5 35.499 -15.5s32 3 50 9v-46c-4.66699 -2.66699 -10.834 -5.16699 -18.501 -7.5s-15.667 -4.5 -24 -6.5s-16.666 -3.5 -24.999 -4.5s-15.5 -1.5 -21.5 -1.5c-46 0 -79.667 9 -101 27s-32 39.667 -32 65c0 27.333 8.66699 51.166 26 71.499
s42.666 38.5 75.999 54.5l-22 -2h-26c-6.66699 15.333 -10.667 30.666 -12 45.999s-2.33301 34 -3 56h-5c-3.33301 -13.333 -9 -26.166 -17 -38.499s-18.167 -23.333 -30.5 -33s-26.833 -17.5 -43.5 -23.5s-35.334 -9 -56.001 -9c-22 0 -42.333 3.33301 -61 10
s-35 16 -49 28s-25 26.5 -33 43.5s-12 36.167 -12 57.5c0 30 5.66699 54.667 17 74s29.166 35.166 53.499 47.499s55.666 21.5 93.999 27.5s84.833 10.333 139.5 13c5.33301 57.333 3 99.333 -7 126s-31.667 40 -65 40c-20.667 0 -39.667 -3.33301 -57 -10l-47 -120h-44
c-5.33301 8 -10.5 17.167 -15.5 27.5s-9.66699 21.333 -14 33s-8 23.5 -11 35.5s-5.16699 23.667 -6.5 35c25.333 17.333 58 31 98 41s82.333 15 127 15c38 0 69 -4.16699 93 -12.5s42.833 -19.666 56.5 -33.999s23.167 -31.166 28.5 -50.499s8 -40 8 -62
c0 -40 -0.833008 -76.167 -2.5 -108.5s-2.5 -65.5 -2.5 -99.5zM245.007 68.002c14 0 25.999 2.66895 35.999 8.00195s18.5 11.666 25.5 18.999s12.333 15.333 16 24s6.5 16.334 8.5 23.001v100c-31.333 -0.666992 -57 -2.66699 -77 -6s-35.667 -8.83301 -47 -16.5
s-19.166 -17.334 -23.499 -29.001s-6.5 -25.834 -6.5 -42.501c0 -25.333 6 -45 18 -59s28.667 -21 50 -21z" />
    <glyph glyph-name="Cacute" unicode="&#x106;" horiz-adv-x="652" 
d="M540 210l40.999 -0.000976562c2.66699 -10.667 5.16699 -23.5 7.5 -38.5s4.33301 -31 6 -48s2.83398 -33.833 3.50098 -50.5s1 -31.667 1 -45c-23.333 -14.667 -52.5 -25 -87.5 -31s-70.833 -9 -107.5 -9c-55.333 0 -105.5 6.83301 -150.5 20.5
s-83.333 35.334 -115 65.001s-56.167 67.334 -73.5 113.001s-26 100.5 -26 164.5c0 63.333 9.5 117.833 28.5 163.5s44.5 83.167 76.5 112.5s69.167 50.833 111.5 64.5s86.833 20.5 133.5 20.5c44 0 83.833 -3.16699 119.5 -9.5s64.834 -14.833 87.501 -25.5
c0 -10.667 -0.5 -24.334 -1.5 -41.001s-2.66699 -34.167 -5 -52.5s-5 -36.333 -8 -54s-5.83301 -32.5 -8.5 -44.5h-42l-55 151c-6 3.33301 -15.667 6 -29 8s-27 3 -41 3c-27.333 0 -53 -5.5 -77 -16.5s-45.333 -28.5 -64 -52.5s-33.334 -54.833 -44.001 -92.5
s-16 -82.834 -16 -135.501c0 -95.333 19 -168.666 57 -219.999s89.667 -77 155 -77c18.667 0 34.5 1.5 47.5 4.5s21.833 7.16699 26.5 12.5zM425.999 897.999c10.667 0.666992 22.833 0.00195312 36.5 -1.99805s27 -4.83301 40 -8.5s24.667 -7.83398 35 -12.501
s17.5 -9.33398 21.5 -14.001v-20l-247 -96l-28 24z" />
    <glyph glyph-name="cacute" unicode="&#x107;" horiz-adv-x="484" 
d="M456 81c-4.66699 -13.333 -12.3311 -25.5 -22.998 -36.5s-23.5 -20.833 -38.5 -29.5s-32 -15.334 -51 -20.001s-38.833 -7 -59.5 -7c-44 0 -81.833 6.16699 -113.5 18.5s-57.834 30 -78.501 53s-36 50.667 -46 83s-15 68.166 -15 107.499
c0 84.667 23.167 149.5 69.5 194.5s112.166 67.5 197.499 67.5c32.667 0 62.667 -3.5 90 -10.5s50 -15.167 68 -24.5c-1.33301 -11.333 -3.16602 -23.833 -5.49902 -37.5s-5 -27.334 -8 -41.001s-6.5 -27 -10.5 -40s-8 -23.833 -12 -32.5h-49l-42 119
c-4.66699 3.33301 -9.66699 5.83301 -15 7.5s-13.333 2.5 -24 2.5c-17.333 0 -32.333 -3.16699 -45 -9.5s-23.5 -17.166 -32.5 -32.499s-15.667 -35.666 -20 -60.999s-6.5 -56.666 -6.5 -93.999c0 -27.333 3 -52.5 9 -75.5s15.167 -43 27.5 -60s27.833 -30.333 46.5 -40
s40.667 -14.5 66 -14.5c23.333 0 43.666 3.33301 60.999 10s32 14.667 44 24zM306.003 763c5.33301 1.33301 14.168 1.83301 26.501 1.5s25.166 -1.5 38.499 -3.5s25.5 -4.83301 36.5 -8.5s18.167 -7.5 21.5 -11.5v-24l-191 -155l-40 22z" />
    <glyph glyph-name="Ccircumflex" unicode="&#x108;" horiz-adv-x="652" 
d="M540 210l40.999 -0.000976562c2.66699 -10.667 5.16699 -23.5 7.5 -38.5s4.33301 -31 6 -48s2.83398 -33.833 3.50098 -50.5s1 -31.667 1 -45c-23.333 -14.667 -52.5 -25 -87.5 -31s-70.833 -9 -107.5 -9c-55.333 0 -105.5 6.83301 -150.5 20.5
s-83.333 35.334 -115 65.001s-56.167 67.334 -73.5 113.001s-26 100.5 -26 164.5c0 63.333 9.5 117.833 28.5 163.5s44.5 83.167 76.5 112.5s69.167 50.833 111.5 64.5s86.833 20.5 133.5 20.5c44 0 83.833 -3.16699 119.5 -9.5s64.834 -14.833 87.501 -25.5
c0 -10.667 -0.5 -24.334 -1.5 -41.001s-2.66699 -34.167 -5 -52.5s-5 -36.333 -8 -54s-5.83301 -32.5 -8.5 -44.5h-42l-55 151c-6 3.33301 -15.667 6 -29 8s-27 3 -41 3c-27.333 0 -53 -5.5 -77 -16.5s-45.333 -28.5 -64 -52.5s-33.334 -54.833 -44.001 -92.5
s-16 -82.834 -16 -135.501c0 -95.333 19 -168.666 57 -219.999s89.667 -77 155 -77c18.667 0 34.5 1.5 47.5 4.5s21.833 7.16699 26.5 12.5zM263.999 742.999l-28 28l127 117c6.66699 3.33301 17 5 31 5s24.333 -1.66699 31 -5l125 -114l-28 -30l-132 56z" />
    <glyph glyph-name="ccircumflex" unicode="&#x109;" horiz-adv-x="484" 
d="M456 81c-4.66699 -13.333 -12.3311 -25.5 -22.998 -36.5s-23.5 -20.833 -38.5 -29.5s-32 -15.334 -51 -20.001s-38.833 -7 -59.5 -7c-44 0 -81.833 6.16699 -113.5 18.5s-57.834 30 -78.501 53s-36 50.667 -46 83s-15 68.166 -15 107.499
c0 84.667 23.167 149.5 69.5 194.5s112.166 67.5 197.499 67.5c32.667 0 62.667 -3.5 90 -10.5s50 -15.167 68 -24.5c-1.33301 -11.333 -3.16602 -23.833 -5.49902 -37.5s-5 -27.334 -8 -41.001s-6.5 -27 -10.5 -40s-8 -23.833 -12 -32.5h-49l-42 119
c-4.66699 3.33301 -9.66699 5.83301 -15 7.5s-13.333 2.5 -24 2.5c-17.333 0 -32.333 -3.16699 -45 -9.5s-23.5 -17.166 -32.5 -32.499s-15.667 -35.666 -20 -60.999s-6.5 -56.666 -6.5 -93.999c0 -27.333 3 -52.5 9 -75.5s15.167 -43 27.5 -60s27.833 -30.333 46.5 -40
s40.667 -14.5 66 -14.5c23.333 0 43.666 3.33301 60.999 10s32 14.667 44 24zM175.003 577l-42 25.001l110 186c4 3.33301 12.167 5.16602 24.5 5.49902s21.5 -1.5 27.5 -5.5l114 -185l-41 -26l-103 98z" />
    <glyph glyph-name="Ccaron" unicode="&#x10c;" horiz-adv-x="652" 
d="M540 210l40.999 -0.000976562c2.66699 -10.667 5.16699 -23.5 7.5 -38.5s4.33301 -31 6 -48s2.83398 -33.833 3.50098 -50.5s1 -31.667 1 -45c-23.333 -14.667 -52.5 -25 -87.5 -31s-70.833 -9 -107.5 -9c-55.333 0 -105.5 6.83301 -150.5 20.5
s-83.333 35.334 -115 65.001s-56.167 67.334 -73.5 113.001s-26 100.5 -26 164.5c0 63.333 9.5 117.833 28.5 163.5s44.5 83.167 76.5 112.5s69.167 50.833 111.5 64.5s86.833 20.5 133.5 20.5c44 0 83.833 -3.16699 119.5 -9.5s64.834 -14.833 87.501 -25.5
c0 -10.667 -0.5 -24.334 -1.5 -41.001s-2.66699 -34.167 -5 -52.5s-5 -36.333 -8 -54s-5.83301 -32.5 -8.5 -44.5h-42l-55 151c-6 3.33301 -15.667 6 -29 8s-27 3 -41 3c-27.333 0 -53 -5.5 -77 -16.5s-45.333 -28.5 -64 -52.5s-33.334 -54.833 -44.001 -92.5
s-16 -82.834 -16 -135.501c0 -95.333 19 -168.666 57 -219.999s89.667 -77 155 -77c18.667 0 34.5 1.5 47.5 4.5s21.833 7.16699 26.5 12.5zM520.999 901.999c5.33301 0 11.832 -3.5 19.499 -10.5s12.5 -13.833 14.5 -20.5l-127 -112c-2.66699 -2 -6.66699 -3.5 -12 -4.5
s-11.166 -1.5 -17.499 -1.5s-12.333 0.5 -18 1.5s-10.5 2.5 -14.5 4.5l-125 109c2 7.33301 6.5 14.833 13.5 22.5s13.833 11.5 20.5 11.5l126 -55z" />
    <glyph glyph-name="ccaron" unicode="&#x10d;" horiz-adv-x="484" 
d="M456 81c-4.66699 -13.333 -12.3311 -25.5 -22.998 -36.5s-23.5 -20.833 -38.5 -29.5s-32 -15.334 -51 -20.001s-38.833 -7 -59.5 -7c-44 0 -81.833 6.16699 -113.5 18.5s-57.834 30 -78.501 53s-36 50.667 -46 83s-15 68.166 -15 107.499
c0 84.667 23.167 149.5 69.5 194.5s112.166 67.5 197.499 67.5c32.667 0 62.667 -3.5 90 -10.5s50 -15.167 68 -24.5c-1.33301 -11.333 -3.16602 -23.833 -5.49902 -37.5s-5 -27.334 -8 -41.001s-6.5 -27 -10.5 -40s-8 -23.833 -12 -32.5h-49l-42 119
c-4.66699 3.33301 -9.66699 5.83301 -15 7.5s-13.333 2.5 -24 2.5c-17.333 0 -32.333 -3.16699 -45 -9.5s-23.5 -17.166 -32.5 -32.499s-15.667 -35.666 -20 -60.999s-6.5 -56.666 -6.5 -93.999c0 -27.333 3 -52.5 9 -75.5s15.167 -43 27.5 -60s27.833 -30.333 46.5 -40
s40.667 -14.5 66 -14.5c23.333 0 43.666 3.33301 60.999 10s32 14.667 44 24zM377.003 792c6.66699 0 14.999 -3.16699 24.999 -9.5s15.667 -11.5 17 -15.5l-128 -181c-5.33301 -3.33301 -13.666 -5 -24.999 -5s-20.333 1.66699 -27 5l-126 180c0.666992 2 3 4.5 7 7.5
s8.5 5.83301 13.5 8.5s10 5 15 7s9.16699 3 12.5 3l111 -93z" />
    <glyph glyph-name="Dcaron" unicode="&#x10e;" horiz-adv-x="736" 
d="M20 0l0.000976562 37.9971c11.333 6.66699 24 12.5 38 17.5s28.667 8.83301 44 11.5v566c-15.333 3.33301 -30.166 7.5 -44.499 12.5s-26.833 10.5 -37.5 16.5v38h116c11.333 0 25.333 0.333008 42 1s34 1.5 52 2.5s35.5 2 52.5 3s31.5 1.5 43.5 1.5
c58 0 109.833 -7.66699 155.5 -23s84.334 -37.666 116.001 -66.999s56 -65.666 73 -108.999s25.5 -93.333 25.5 -150c0 -55.333 -8 -105.666 -24 -150.999s-40 -84 -72 -116s-72.5 -56.833 -121.5 -74.5s-106.5 -26.5 -172.5 -26.5c-8.66699 0 -20.334 0.5 -35.001 1.5
s-30.334 2 -47.001 3l-50 3c-16.667 1 -31.334 1.5 -44.001 1.5h-110zM313.001 642.997c-12 0 -24.001 -0.334961 -36.001 -1.00195s-22.333 -1.66699 -31 -3v-579c2.66699 -0.666992 7.33398 -1.16699 14.001 -1.5s13.5 -0.666016 20.5 -0.999023
s13.833 -0.666016 20.5 -0.999023s11.667 -0.5 15 -0.5c38.667 0 71.5 8 98.5 24s49.167 37.667 66.5 65s30 59.333 38 96s12 75.667 12 117c0 36.667 -4.16699 72 -12.5 106s-21.166 64.333 -38.499 91s-39.833 48 -67.5 64s-60.834 24 -99.501 24zM457 901.995
c5.33301 0 11.832 -3.5 19.499 -10.5s12.5 -13.833 14.5 -20.5l-127 -112c-2.66699 -2 -6.66699 -3.5 -12 -4.5s-11.166 -1.5 -17.499 -1.5s-12.333 0.5 -18 1.5s-10.5 2.5 -14.5 4.5l-125 109c2 7.33301 6.5 14.833 13.5 22.5s13.833 11.5 20.5 11.5l126 -55z" />
    <glyph glyph-name="dcaron" unicode="&#x10f;" horiz-adv-x="599" 
d="M372 99c-3.33301 -14.667 -9.33301 -28.6699 -18 -42.0029s-19 -25.166 -31 -35.499s-25.667 -18.5 -41 -24.5s-31.666 -9 -48.999 -9c-66 0 -116.167 20.833 -150.5 62.5s-51.5 105.5 -51.5 191.5c0 44 6 82.5 18 115.5s28.833 60.833 50.5 83.5
s47.834 39.667 78.501 51s64.667 17 102 17c12 0 22.167 -0.333008 30.5 -1s16 -1.5 23 -2.5s13.667 -2.66699 20 -5s13.5 -4.83301 21.5 -7.5v176l-76 8v39c9.33301 4 22.166 7.66699 38.499 11s33.5 6.5 51.5 9.5s35.667 5.83301 53 8.5s31.666 5 42.999 7h34v-681l66 -8
v-35c-9.33301 -4.66699 -21.333 -9 -36 -13s-30 -7.66699 -46 -11s-31.5 -6.16602 -46.5 -8.49902s-27.5 -4.16602 -37.5 -5.49902h-34l-9 109h-4zM281 67.9971c23.333 0 43.001 7.33398 59.001 22.001s27.667 39.667 35 75v269
c-8.66699 5.33301 -19.5 9.66602 -32.5 12.999s-29.167 5 -48.5 5c-38.667 0 -66.334 -17.5 -83.001 -52.5s-25 -85.833 -25 -152.5c0 -54 7.33301 -97.333 22 -130s39 -49 73 -49zM556.001 533.998c6.66699 14.667 12.8301 30.6689 18.4971 48.002
s10.167 34.666 13.5 51.999s6 34.333 8 51s3 31.667 3 45l21 25c4.66699 0.666992 12.167 0.166992 22.5 -1.5s21.333 -4 33 -7s22.834 -6.5 33.501 -10.5s18.667 -8.33301 24 -13c-3.33301 -18.667 -10.166 -38.5 -20.499 -59.5s-22.666 -41.333 -36.999 -61
s-29.5 -37.334 -45.5 -53.001s-31 -27.5 -45 -35.5z" />
    <glyph glyph-name="Dcroat" unicode="&#x110;" horiz-adv-x="741" 
d="M22 389l85.001 -0.00292969v244c-15.333 3.33301 -30.166 7.5 -44.499 12.5s-26.833 10.5 -37.5 16.5v38h116c11.333 0 25.333 0.333008 42 1s34 1.5 52 2.5s35.5 2 52.5 3s31.5 1.5 43.5 1.5c58 0 109.833 -7.66699 155.5 -23s84.334 -37.666 116.001 -66.999
s56 -65.666 73 -108.999s25.5 -93.333 25.5 -150c0 -55.333 -8 -105.666 -24 -150.999s-40 -84 -72 -116s-72.5 -56.833 -121.5 -74.5s-106.5 -26.5 -172.5 -26.5c-8.66699 0 -20.334 0.5 -35.001 1.5s-30.334 2 -47.001 3l-50 3c-16.667 1 -31.334 1.5 -44.001 1.5h-110v38
c11.333 6.66699 24 12.5 38 17.5s28.667 8.83301 44 11.5v262h-85v60zM318.001 642.997c-12 0 -24.001 -0.334961 -36.001 -1.00195s-22.333 -1.66699 -31 -3v-250h153v-60h-153v-269c2.66699 -0.666992 7.33398 -1.16699 14.001 -1.5s13.5 -0.666016 20.5 -0.999023
s13.833 -0.666016 20.5 -0.999023s11.667 -0.5 15 -0.5c38.667 0 71.5 8 98.5 24s49.167 37.667 66.5 65s30 59.333 38 96s12 75.667 12 117c0 36.667 -4.16699 72 -12.5 106s-21.166 64.333 -38.499 91s-39.833 48 -67.5 64s-60.834 24 -99.501 24z" />
    <glyph glyph-name="dcroat" unicode="&#x111;" horiz-adv-x="599" 
d="M231 620l144 -0.00292969v49l-76 8v39c9.33301 4 22.166 7.66699 38.499 11s33.5 6.5 51.5 9.5s35.667 5.83301 53 8.5s31.666 5 42.999 7h34v-132h79v-61h-79v-488l66 -8v-35c-9.33301 -4.66699 -21.333 -9 -36 -13s-30 -7.66699 -46 -11s-31.5 -6.16602 -46.5 -8.49902
s-27.5 -4.16602 -37.5 -5.49902h-34l-9 109h-4c-3.33301 -14.667 -9.33301 -28.667 -18 -42s-19 -25.166 -31 -35.499s-25.667 -18.5 -41 -24.5s-31.666 -9 -48.999 -9c-66 0 -116.167 20.833 -150.5 62.5s-51.5 105.5 -51.5 191.5c0 44 6 82.5 18 115.5
s28.833 60.833 50.5 83.5s47.834 39.667 78.501 51s64.667 17 102 17c12 0 22.167 -0.333008 30.5 -1s16 -1.5 23 -2.5s13.667 -2.66699 20 -5s13.5 -4.83301 21.5 -7.5v66h-144v61zM281 67.9971c23.333 0 43.001 7.33398 59.001 22.001s27.667 39.667 35 75v269
c-8.66699 5.33301 -19.5 9.66602 -32.5 12.999s-29.167 5 -48.5 5c-38.667 0 -66.334 -17.5 -83.001 -52.5s-25 -85.833 -25 -152.5c0 -54 7.33301 -97.333 22 -130s39 -49 73 -49z" />
    <glyph glyph-name="Emacron" unicode="&#x112;" horiz-adv-x="604" 
d="M546 700c-1.33301 -30 -3.66992 -61 -7.00293 -93s-7.66602 -62 -12.999 -90h-41l-46 118h-187v-245h122l44 77h32c3.33301 -32.667 5 -69 5 -109s-1.66699 -77.333 -5 -112h-32l-44 79h-122v-260h195l53 127h41c2.66699 -12.667 5.33398 -27 8.00098 -43
s4.83398 -32.5 6.50098 -49.5s3 -34.167 4 -51.5s1.5 -33.333 1.5 -48h-541v38c11.333 6 24 11.667 38 17s28.667 9.33301 44 12v566c-13.333 2.66699 -27.5 6.5 -42.5 11.5s-28.167 10.833 -39.5 17.5v38h526zM146.996 779v70h324v-70h-324z" />
    <glyph glyph-name="emacron" unicode="&#x113;" horiz-adv-x="537" 
d="M486 84c-5.33301 -11.333 -13.834 -22.835 -25.501 -34.502s-26 -22 -43 -31s-36.667 -16.333 -59 -22s-46.5 -8.5 -72.5 -8.5c-41.333 0 -78 6.16699 -110 18.5s-58.667 30 -80 53s-37.5 50.5 -48.5 82.5s-16.5 68 -16.5 108c0 85.333 22.333 150.333 67 195
s106.667 67 186 67c34 0 65.833 -4.66699 95.5 -14s54.334 -24.666 74.001 -45.999s33.334 -49.333 41.001 -84s7.16699 -77 -1.5 -127h-307c0.666992 -52.667 14.167 -94.667 40.5 -126s65.166 -47 116.499 -47c22 0 44.833 3.33301 68.5 10s42.167 15.334 55.5 26.001z
M279.999 454.998c-13.333 0 -25.166 -2.33301 -35.499 -7s-19.333 -13.167 -27 -25.5s-13.834 -29 -18.501 -50s-8 -47.5 -10 -79.5h161c4.66699 52 1.66699 92 -9 120s-31 42 -61 42zM128.999 618.998v70h294v-70h-294z" />
    <glyph glyph-name="Edotaccent" unicode="&#x116;" horiz-adv-x="604" 
d="M546 700c-1.33301 -30 -3.66992 -61 -7.00293 -93s-7.66602 -62 -12.999 -90h-41l-46 118h-187v-245h122l44 77h32c3.33301 -32.667 5 -69 5 -109s-1.66699 -77.333 -5 -112h-32l-44 79h-122v-260h195l53 127h41c2.66699 -12.667 5.33398 -27 8.00098 -43
s4.83398 -32.5 6.50098 -49.5s3 -34.167 4 -51.5s1.5 -33.333 1.5 -48h-541v38c11.333 6 24 11.667 38 17s28.667 9.33301 44 12v566c-13.333 2.66699 -27.5 6.5 -42.5 11.5s-28.167 10.833 -39.5 17.5v38h526zM217.996 819c0 21.333 7.66699 37.666 23 48.999s38 17 68 17
s52.333 -5.66699 67 -17s22 -27.666 22 -48.999c0 -20.667 -7.33301 -36.667 -22 -48s-37 -17 -67 -17s-52.667 5.66699 -68 17s-23 27.333 -23 48z" />
    <glyph glyph-name="edotaccent" unicode="&#x117;" horiz-adv-x="537" 
d="M486 84c-5.33301 -11.333 -13.834 -22.835 -25.501 -34.502s-26 -22 -43 -31s-36.667 -16.333 -59 -22s-46.5 -8.5 -72.5 -8.5c-41.333 0 -78 6.16699 -110 18.5s-58.667 30 -80 53s-37.5 50.5 -48.5 82.5s-16.5 68 -16.5 108c0 85.333 22.333 150.333 67 195
s106.667 67 186 67c34 0 65.833 -4.66699 95.5 -14s54.334 -24.666 74.001 -45.999s33.334 -49.333 41.001 -84s7.16699 -77 -1.5 -127h-307c0.666992 -52.667 14.167 -94.667 40.5 -126s65.166 -47 116.499 -47c22 0 44.833 3.33301 68.5 10s42.167 15.334 55.5 26.001z
M279.999 454.998c-13.333 0 -25.166 -2.33301 -35.499 -7s-19.333 -13.167 -27 -25.5s-13.834 -29 -18.501 -50s-8 -47.5 -10 -79.5h161c4.66699 52 1.66699 92 -9 120s-31 42 -61 42zM183.999 663.998c0 23.333 8 41.666 24 54.999s36.667 20 62 20s46 -6.66699 62 -20
s24 -31.666 24 -54.999c0 -22.667 -8 -40.667 -24 -54s-36.667 -20 -62 -20s-46 6.66699 -62 20s-24 31.333 -24 54z" />
    <glyph glyph-name="Eogonek" unicode="&#x118;" horiz-adv-x="604" 
d="M546 700c-1.33301 -30 -3.66895 -61 -7.00195 -93s-7.66602 -62 -12.999 -90h-41l-46 118h-187v-245h122l44 77h32c3.33301 -32.667 5 -69 5 -109s-1.66699 -77.333 -5 -112h-32l-44 79h-122v-260h195l53 127h41c2.66699 -8.66699 5.16699 -21.5 7.5 -38.5
s4.33301 -35.167 6 -54.5s3 -38 4 -56s1.83301 -32.333 2.5 -43h-38c-26 -18.667 -46.167 -40.5 -60.5 -65.5s-21.5 -48.167 -21.5 -69.5c0 -17.333 5.33301 -30.666 16 -39.999s23.334 -14 38.001 -14c8 0 15.667 0.333008 23 1s15 2 23 4v-43
c-9.33301 -7.33301 -23 -13.833 -41 -19.5s-37.667 -8.5 -59 -8.5c-40.667 0 -72 9.5 -94 28.5s-33 42.167 -33 69.5c0 36.667 13.333 67.167 40 91.5s60.667 46.166 102 65.499h-436v38c11.333 6 24 11.667 38 17s28.667 9.33301 44 12v566
c-13.333 2.66699 -27.5 6.5 -42.5 11.5s-28.167 10.833 -39.5 17.5v38h526z" />
    <glyph glyph-name="eogonek" unicode="&#x119;" horiz-adv-x="537" 
d="M486 84c-6.66699 -13.333 -17.333 -26.6699 -32 -40.0029s-32.667 -24.666 -54 -33.999c-26 -15.333 -46.333 -34.833 -61 -58.5s-22 -47.167 -22 -70.5c0 -12.667 4 -24.167 12 -34.5s20 -15.5 36 -15.5c15.333 0 32 3 50 9v-46
c-4.66699 -2.66699 -10.834 -5.16699 -18.501 -7.5s-15.667 -4.5 -24 -6.5s-16.666 -3.5 -24.999 -4.5s-15.5 -1.5 -21.5 -1.5c-46 0 -79.667 9 -101 27s-32 39.667 -32 65c0 26 8 49 24 69s39 37.667 69 53c-41.333 0 -77.833 6.16699 -109.5 18.5
s-58.334 29.833 -80.001 52.5s-38 50.167 -49 82.5s-16.5 68.5 -16.5 108.5c0 85.333 22.333 150.333 67 195s106.667 67 186 67c34 0 65.833 -4.66699 95.5 -14s54.334 -24.666 74.001 -45.999s33.334 -49.333 41.001 -84s7.16699 -77 -1.5 -127h-307
c0.666992 -52.667 14.167 -94.667 40.5 -126s65.166 -47 116.499 -47c22 0 44.833 3.33301 68.5 10s42.167 15.334 55.5 26.001zM280.001 454.996c-13.333 0 -25.166 -2.33301 -35.499 -7s-19.333 -13.167 -27 -25.5s-13.834 -29 -18.501 -50s-8 -47.5 -10 -79.5h161
c4.66699 52 1.66699 92 -9 120s-31 42 -61 42z" />
    <glyph glyph-name="Ecaron" unicode="&#x11a;" horiz-adv-x="604" 
d="M546 700c-1.33301 -30 -3.66992 -61 -7.00293 -93s-7.66602 -62 -12.999 -90h-41l-46 118h-187v-245h122l44 77h32c3.33301 -32.667 5 -69 5 -109s-1.66699 -77.333 -5 -112h-32l-44 79h-122v-260h195l53 127h41c2.66699 -12.667 5.33398 -27 8.00098 -43
s4.83398 -32.5 6.50098 -49.5s3 -34.167 4 -51.5s1.5 -33.333 1.5 -48h-541v38c11.333 6 24 11.667 38 17s28.667 9.33301 44 12v566c-13.333 2.66699 -27.5 6.5 -42.5 11.5s-28.167 10.833 -39.5 17.5v38h526zM431.996 902c5.33301 0 11.832 -3.5 19.499 -10.5
s12.5 -13.833 14.5 -20.5l-127 -112c-2.66699 -2 -6.66699 -3.5 -12 -4.5s-11.166 -1.5 -17.499 -1.5s-12.333 0.5 -18 1.5s-10.5 2.5 -14.5 4.5l-125 109c2 7.33301 6.5 14.833 13.5 22.5s13.833 11.5 20.5 11.5l126 -55z" />
    <glyph glyph-name="ecaron" unicode="&#x11b;" horiz-adv-x="537" 
d="M486 84c-5.33301 -11.333 -13.834 -22.835 -25.501 -34.502s-26 -22 -43 -31s-36.667 -16.333 -59 -22s-46.5 -8.5 -72.5 -8.5c-41.333 0 -78 6.16699 -110 18.5s-58.667 30 -80 53s-37.5 50.5 -48.5 82.5s-16.5 68 -16.5 108c0 85.333 22.333 150.333 67 195
s106.667 67 186 67c34 0 65.833 -4.66699 95.5 -14s54.334 -24.666 74.001 -45.999s33.334 -49.333 41.001 -84s7.16699 -77 -1.5 -127h-307c0.666992 -52.667 14.167 -94.667 40.5 -126s65.166 -47 116.499 -47c22 0 44.833 3.33301 68.5 10s42.167 15.334 55.5 26.001z
M279.999 454.998c-13.333 0 -25.166 -2.33301 -35.499 -7s-19.333 -13.167 -27 -25.5s-13.834 -29 -18.501 -50s-8 -47.5 -10 -79.5h161c4.66699 52 1.66699 92 -9 120s-31 42 -61 42zM384.999 791.998c6.66699 0 14.999 -3.16699 24.999 -9.5s15.667 -11.5 17 -15.5
l-128 -181c-5.33301 -3.33301 -13.666 -5 -24.999 -5s-20.333 1.66699 -27 5l-126 180c0.666992 2 3 4.5 7 7.5s8.5 5.83301 13.5 8.5s10 5 15 7s9.16699 3 12.5 3l111 -93z" />
    <glyph glyph-name="Gcircumflex" unicode="&#x11c;" horiz-adv-x="709" 
d="M636 44c-13.333 -6.66699 -29.6748 -13.3301 -49.0078 -19.9971s-39.666 -12.667 -60.999 -18s-42.666 -9.66602 -63.999 -12.999s-40.333 -5 -57 -5c-57.333 0 -108.5 7.5 -153.5 22.5s-83.333 37.667 -115 68s-55.834 68.166 -72.501 113.499s-25 98 -25 158
c0 65.333 10.167 120.833 30.5 166.5s47.333 83 81 112s71.834 50.167 114.501 63.5s86.334 20 131.001 20c44 0 85.333 -3 124 -9s69.334 -14.667 92.001 -26c0 -10 -0.5 -22.833 -1.5 -38.5s-2.5 -32.5 -4.5 -50.5s-4.5 -36 -7.5 -54s-6.5 -34.333 -10.5 -49h-41l-56 152
c-7.33301 3.33301 -18.333 5.83301 -33 7.5s-29.334 2.5 -44.001 2.5c-27.333 0 -53.666 -5.33301 -78.999 -16s-47.666 -27.834 -66.999 -51.501s-34.666 -54.334 -45.999 -92.001s-17 -83.5 -17 -137.5c0 -44 5.16699 -84.167 15.5 -120.5s24.833 -67.5 43.5 -93.5
s41 -46.333 67 -61s54.667 -22 86 -22c10 0 20.333 0.833008 31 2.5s20.667 3.83398 30 6.50098s17.5 5.66699 24.5 9s11.833 6.33301 14.5 9v188c-17.333 1.33301 -33.666 4.66602 -48.999 9.99902s-29.666 11.666 -42.999 18.999v38h273v-38c-6 -6 -14 -11.5 -24 -16.5
s-22.667 -9.16699 -38 -12.5v-224zM277.991 743.004l-28 28l127 117c6.66699 3.33301 17 5 31 5s24.333 -1.66699 31 -5l125 -114l-28 -30l-132 56z" />
    <glyph glyph-name="gcircumflex" unicode="&#x11d;" horiz-adv-x="564" 
d="M264 512c43.333 0 79.3301 -4.50195 107.997 -13.502s50.334 -20.167 65.001 -33.5c31.333 34 67.333 57.667 108 71c4.66699 -3.33301 9.33398 -8.16602 14.001 -14.499s8.66699 -13.166 12 -20.499s6 -14.666 8 -21.999s3 -13.333 3 -18l-13 -24h-105
c7.33301 -9.33301 14.166 -21.5 20.499 -36.5s9.5 -32.833 9.5 -53.5c0 -22 -4.66699 -42.667 -14 -62s-23.5 -36.5 -42.5 -51.5s-43 -26.833 -72 -35.5s-62.833 -13 -101.5 -13c-11.333 0 -21.5 0.166992 -30.5 0.5s-16.833 1.16602 -23.5 2.49902
c-2.66699 -4 -5.5 -8.83301 -8.5 -14.5s-4.5 -11.167 -4.5 -16.5c0 -11.333 8 -20.333 24 -27s36.333 -12.667 61 -18s51.167 -11.333 79.5 -18s54.833 -15.5 79.5 -26.5s45.334 -25.333 62.001 -43s25.334 -40.5 26.001 -68.5c0.666992 -26.667 -6 -50.334 -20 -71.001
s-33.167 -38.167 -57.5 -52.5s-53 -25.333 -86 -33s-68.167 -11.5 -105.5 -11.5c-44 0 -81.5 3.5 -112.5 10.5s-56.167 16.5 -75.5 28.5s-33.5 25.667 -42.5 41s-13.5 31.333 -13.5 48c0 18.667 3.66699 34.667 11 48s17.666 25 30.999 35s28.833 18.333 46.5 25
s37.167 12.667 58.5 18c-10 2.66699 -19.667 6 -29 10s-17.666 8.83301 -24.999 14.5s-13.333 12.334 -18 20.001s-7 16.5 -7 26.5c0 8.66699 2.66699 17.167 8 25.5s12.333 16 21 23s18 13.333 28 19s20 10.5 30 14.5c-42 9.33301 -75.333 27.5 -100 54.5
s-37 61.5 -37 103.5c0 50 20.667 89 62 117s97.333 42 168 42zM389.997 -76.002c0 18 -5.50098 32.499 -16.501 43.499s-25.167 20 -42.5 27s-36.833 13 -58.5 18s-43.167 10.833 -64.5 17.5c-17.333 -13.333 -29.666 -26.666 -36.999 -39.999s-11 -29.333 -11 -48
c0 -30.667 10.5 -54.5 31.5 -71.5s50.5 -25.5 88.5 -25.5c37.333 0 65 7.83301 83 23.5s27 34.167 27 55.5zM177.996 347.997c0 -34.667 5.83301 -61 17.5 -79s34.5 -27 68.5 -27c32.667 0 55.167 9.16699 67.5 27.5s18.5 44.5 18.5 78.5c0 36 -6.33301 62.833 -19 80.5
s-35 26.5 -67 26.5c-33.333 0 -56 -8.66699 -68 -26s-18 -44.333 -18 -81zM166.996 576.997l-42 25.001l110 186c4 3.33301 12.167 5.16602 24.5 5.49902s21.5 -1.5 27.5 -5.5l114 -185l-41 -26l-103 98z" />
    <glyph glyph-name="Gbreve" unicode="&#x11e;" horiz-adv-x="709" 
d="M636 44c-13.333 -6.66699 -29.6748 -13.3301 -49.0078 -19.9971s-39.666 -12.667 -60.999 -18s-42.666 -9.66602 -63.999 -12.999s-40.333 -5 -57 -5c-57.333 0 -108.5 7.5 -153.5 22.5s-83.333 37.667 -115 68s-55.834 68.166 -72.501 113.499s-25 98 -25 158
c0 65.333 10.167 120.833 30.5 166.5s47.333 83 81 112s71.834 50.167 114.501 63.5s86.334 20 131.001 20c44 0 85.333 -3 124 -9s69.334 -14.667 92.001 -26c0 -10 -0.5 -22.833 -1.5 -38.5s-2.5 -32.5 -4.5 -50.5s-4.5 -36 -7.5 -54s-6.5 -34.333 -10.5 -49h-41l-56 152
c-7.33301 3.33301 -18.333 5.83301 -33 7.5s-29.334 2.5 -44.001 2.5c-27.333 0 -53.666 -5.33301 -78.999 -16s-47.666 -27.834 -66.999 -51.501s-34.666 -54.334 -45.999 -92.001s-17 -83.5 -17 -137.5c0 -44 5.16699 -84.167 15.5 -120.5s24.833 -67.5 43.5 -93.5
s41 -46.333 67 -61s54.667 -22 86 -22c10 0 20.333 0.833008 31 2.5s20.667 3.83398 30 6.50098s17.5 5.66699 24.5 9s11.833 6.33301 14.5 9v188c-17.333 1.33301 -33.666 4.66602 -48.999 9.99902s-29.666 11.666 -42.999 18.999v38h273v-38c-6 -6 -14 -11.5 -24 -16.5
s-22.667 -9.16699 -38 -12.5v-224zM535.991 897.004c4.66699 0.666992 11.5 -1.33203 20.5 -5.99902s15.833 -10.334 20.5 -17.001c-6 -14.667 -14 -28.834 -24 -42.501s-22 -25.834 -36 -36.501s-30 -19.334 -48 -26.001s-37.333 -10 -58 -10
c-44.667 0 -81.334 10.5 -110.001 31.5s-49.334 49.5 -62.001 85.5c4.66699 8 11.834 14.333 21.501 19s19.5 6.33398 29.5 5.00098c4.66699 -7.33301 11.834 -14 21.501 -20s20.167 -11 31.5 -15s23.166 -7.16699 35.499 -9.5s23.5 -3.5 33.5 -3.5
c10.667 0 22 0.666992 34 2s23.5 3.83301 34.5 7.5s21.333 8.33398 31 14.001s17.834 12.834 24.501 21.501z" />
    <glyph glyph-name="gbreve" unicode="&#x11f;" horiz-adv-x="564" 
d="M264 512c43.333 0 79.3301 -4.50195 107.997 -13.502s50.334 -20.167 65.001 -33.5c31.333 34 67.333 57.667 108 71c4.66699 -3.33301 9.33398 -8.16602 14.001 -14.499s8.66699 -13.166 12 -20.499s6 -14.666 8 -21.999s3 -13.333 3 -18l-13 -24h-105
c7.33301 -9.33301 14.166 -21.5 20.499 -36.5s9.5 -32.833 9.5 -53.5c0 -22 -4.66699 -42.667 -14 -62s-23.5 -36.5 -42.5 -51.5s-43 -26.833 -72 -35.5s-62.833 -13 -101.5 -13c-11.333 0 -21.5 0.166992 -30.5 0.5s-16.833 1.16602 -23.5 2.49902
c-2.66699 -4 -5.5 -8.83301 -8.5 -14.5s-4.5 -11.167 -4.5 -16.5c0 -11.333 8 -20.333 24 -27s36.333 -12.667 61 -18s51.167 -11.333 79.5 -18s54.833 -15.5 79.5 -26.5s45.334 -25.333 62.001 -43s25.334 -40.5 26.001 -68.5c0.666992 -26.667 -6 -50.334 -20 -71.001
s-33.167 -38.167 -57.5 -52.5s-53 -25.333 -86 -33s-68.167 -11.5 -105.5 -11.5c-44 0 -81.5 3.5 -112.5 10.5s-56.167 16.5 -75.5 28.5s-33.5 25.667 -42.5 41s-13.5 31.333 -13.5 48c0 18.667 3.66699 34.667 11 48s17.666 25 30.999 35s28.833 18.333 46.5 25
s37.167 12.667 58.5 18c-10 2.66699 -19.667 6 -29 10s-17.666 8.83301 -24.999 14.5s-13.333 12.334 -18 20.001s-7 16.5 -7 26.5c0 8.66699 2.66699 17.167 8 25.5s12.333 16 21 23s18 13.333 28 19s20 10.5 30 14.5c-42 9.33301 -75.333 27.5 -100 54.5
s-37 61.5 -37 103.5c0 50 20.667 89 62 117s97.333 42 168 42zM389.997 -76.002c0 18 -5.50098 32.499 -16.501 43.499s-25.167 20 -42.5 27s-36.833 13 -58.5 18s-43.167 10.833 -64.5 17.5c-17.333 -13.333 -29.666 -26.666 -36.999 -39.999s-11 -29.333 -11 -48
c0 -30.667 10.5 -54.5 31.5 -71.5s50.5 -25.5 88.5 -25.5c37.333 0 65 7.83301 83 23.5s27 34.167 27 55.5zM177.996 347.997c0 -34.667 5.83301 -61 17.5 -79s34.5 -27 68.5 -27c32.667 0 55.167 9.16699 67.5 27.5s18.5 44.5 18.5 78.5c0 36 -6.33301 62.833 -19 80.5
s-35 26.5 -67 26.5c-33.333 0 -56 -8.66699 -68 -26s-18 -44.333 -18 -81zM418.996 723.997c-6 -18 -13.666 -35.5 -22.999 -52.5s-20.5 -32 -33.5 -45s-27.5 -23.333 -43.5 -31s-33.333 -11.5 -52 -11.5c-19.333 0 -37.333 3.66699 -54 11s-31.667 17.5 -45 30.5
s-24.833 28.167 -34.5 45.5s-17.167 35.666 -22.5 54.999l37 22c13.333 -17.333 30.666 -31.666 51.999 -42.999s44 -17.333 68 -18c50 -1.33301 89.333 17.667 118 57z" />
    <glyph glyph-name="Gcommaaccent" unicode="&#x122;" horiz-adv-x="709" 
d="M636 44c-13.333 -6.66699 -29.6748 -13.3301 -49.0078 -19.9971s-39.666 -12.667 -60.999 -18s-42.666 -9.66602 -63.999 -12.999s-40.333 -5 -57 -5c-57.333 0 -108.5 7.5 -153.5 22.5s-83.333 37.667 -115 68s-55.834 68.166 -72.501 113.499s-25 98 -25 158
c0 65.333 10.167 120.833 30.5 166.5s47.333 83 81 112s71.834 50.167 114.501 63.5s86.334 20 131.001 20c44 0 85.333 -3 124 -9s69.334 -14.667 92.001 -26c0 -10 -0.5 -22.833 -1.5 -38.5s-2.5 -32.5 -4.5 -50.5s-4.5 -36 -7.5 -54s-6.5 -34.333 -10.5 -49h-41l-56 152
c-7.33301 3.33301 -18.333 5.83301 -33 7.5s-29.334 2.5 -44.001 2.5c-27.333 0 -53.666 -5.33301 -78.999 -16s-47.666 -27.834 -66.999 -51.501s-34.666 -54.334 -45.999 -92.001s-17 -83.5 -17 -137.5c0 -44 5.16699 -84.167 15.5 -120.5s24.833 -67.5 43.5 -93.5
s41 -46.333 67 -61s54.667 -22 86 -22c10 0 20.333 0.833008 31 2.5s20.667 3.83398 30 6.50098s17.5 5.66699 24.5 9s11.833 6.33301 14.5 9v188c-17.333 1.33301 -33.666 4.66602 -48.999 9.99902s-29.666 11.666 -42.999 18.999v38h273v-38c-6 -6 -14 -11.5 -24 -16.5
s-22.667 -9.16699 -38 -12.5v-224zM302.991 -230.996c15.333 4 28.8291 11.168 40.4961 21.501s17.167 22.833 16.5 37.5c-8 7.33301 -19.333 14 -34 20s-28.667 10.333 -42 13c-4 10.667 -4.66699 21.667 -2 33s7.33398 21.5 14.001 30.5s14.667 16.667 24 23
s19 10.166 29 11.499c14 -0.666992 27.833 -3 41.5 -7s25.834 -10 36.501 -18s19.334 -18 26.001 -30s10 -26.333 10 -43c0 -34.667 -13.667 -64.167 -41 -88.5s-62.666 -39.5 -105.999 -45.5z" />
    <glyph glyph-name="gcommaaccent" unicode="&#x123;" horiz-adv-x="564" 
d="M264 512c43.333 0 79.3301 -4.50195 107.997 -13.502s50.334 -20.167 65.001 -33.5c31.333 34 67.333 57.667 108 71c4.66699 -3.33301 9.33398 -8.16602 14.001 -14.499s8.66699 -13.166 12 -20.499s6 -14.666 8 -21.999s3 -13.333 3 -18l-13 -24h-105
c7.33301 -9.33301 14.166 -21.5 20.499 -36.5s9.5 -32.833 9.5 -53.5c0 -22 -4.66699 -42.667 -14 -62s-23.5 -36.5 -42.5 -51.5s-43 -26.833 -72 -35.5s-62.833 -13 -101.5 -13c-11.333 0 -21.5 0.166992 -30.5 0.5s-16.833 1.16602 -23.5 2.49902
c-2.66699 -4 -5.5 -8.83301 -8.5 -14.5s-4.5 -11.167 -4.5 -16.5c0 -11.333 8 -20.333 24 -27s36.333 -12.667 61 -18s51.167 -11.333 79.5 -18s54.833 -15.5 79.5 -26.5s45.334 -25.333 62.001 -43s25.334 -40.5 26.001 -68.5c0.666992 -26.667 -6 -50.334 -20 -71.001
s-33.167 -38.167 -57.5 -52.5s-53 -25.333 -86 -33s-68.167 -11.5 -105.5 -11.5c-44 0 -81.5 3.5 -112.5 10.5s-56.167 16.5 -75.5 28.5s-33.5 25.667 -42.5 41s-13.5 31.333 -13.5 48c0 18.667 3.66699 34.667 11 48s17.666 25 30.999 35s28.833 18.333 46.5 25
s37.167 12.667 58.5 18c-10 2.66699 -19.667 6 -29 10s-17.666 8.83301 -24.999 14.5s-13.333 12.334 -18 20.001s-7 16.5 -7 26.5c0 8.66699 2.66699 17.167 8 25.5s12.333 16 21 23s18 13.333 28 19s20 10.5 30 14.5c-42 9.33301 -75.333 27.5 -100 54.5
s-37 61.5 -37 103.5c0 50 20.667 89 62 117s97.333 42 168 42zM389.997 -76.002c0 18 -5.50098 32.499 -16.501 43.499s-25.167 20 -42.5 27s-36.833 13 -58.5 18s-43.167 10.833 -64.5 17.5c-17.333 -13.333 -29.666 -26.666 -36.999 -39.999s-11 -29.333 -11 -48
c0 -30.667 10.5 -54.5 31.5 -71.5s50.5 -25.5 88.5 -25.5c37.333 0 65 7.83301 83 23.5s27 34.167 27 55.5zM177.996 347.997c0 -34.667 5.83301 -61 17.5 -79s34.5 -27 68.5 -27c32.667 0 55.167 9.16699 67.5 27.5s18.5 44.5 18.5 78.5c0 36 -6.33301 62.833 -19 80.5
s-35 26.5 -67 26.5c-33.333 0 -56 -8.66699 -68 -26s-18 -44.333 -18 -81zM330.001 753.983c-19.999 -5.33301 -34.3291 -14.001 -42.9951 -26c-8.66699 -11.999 -13 -23.665 -13 -34.998c7.33301 -7.99902 17.499 -14.332 30.498 -18.998
c12.999 -4.66699 26.165 -9.33301 39.498 -13.999c3.33301 -10.667 3.66602 -21.333 0.999023 -31.998c-2.66699 -10.667 -7 -20.333 -12.999 -28.999c-6 -8.66602 -13.166 -15.999 -21.499 -21.998c-8.33301 -6 -17.166 -9.66699 -26.499 -11
c-12.666 0 -25.165 2 -37.498 6s-22.999 9.66602 -31.998 16.999s-16.332 16.666 -21.998 27.999c-5.66699 11.333 -8.5 24.999 -8.5 40.998s3 31.8311 9 47.4971c5.99902 15.665 14.665 29.6641 25.998 41.9971s25.332 22.832 41.9971 31.498
c16.666 8.66602 35.998 14.332 57.9971 16.999z" />
    <glyph glyph-name="Hcircumflex" unicode="&#x124;" horiz-adv-x="769" 
d="M323 0l-302.996 0.00195312v38c11.333 6 24.5 11.667 39.5 17s29.167 9.33301 42.5 12v566c-16 2.66699 -31.333 6.66699 -46 12s-26.667 11 -36 17v38h303v-38c-10 -6.66699 -21.167 -12.667 -33.5 -18s-24.833 -9 -37.5 -11v-242h265v242
c-14.667 2.66699 -27.834 6.66699 -39.501 12s-22.167 11 -31.5 17v38h303v-38c-11.333 -7.33301 -24.333 -13.333 -39 -18s-29 -8.33398 -43 -11.001v-566c15.333 -2.66699 30.166 -6.66699 44.499 -12s26.833 -11 37.5 -17v-38h-303v38c10 6 21 11.667 33 17
s24.667 9.33301 38 12v259h-265v-259c13.333 -2.66699 25.666 -6.33398 36.999 -11.001s22.666 -10.667 33.999 -18v-38zM255.004 743.002l-28 28l127 117c6.66699 3.33301 17 5 31 5s24.333 -1.66699 31 -5l125 -114l-28 -30l-132 56z" />
    <glyph glyph-name="hcircumflex" unicode="&#x125;" horiz-adv-x="640" 
d="M628 0l-264.995 0.000976562v39c8 4.66699 16.333 9 25 13s18.667 7.66699 30 11v202c0 57.333 -5.5 99.5 -16.5 126.5s-32.5 40.5 -64.5 40.5c-26.667 0 -49.334 -9.16699 -68.001 -27.5s-32 -39.5 -40 -63.5v-278c10.667 -2.66699 20.167 -5.66699 28.5 -9
s17.166 -8.33301 26.499 -15v-39h-265v39c20.667 10.667 42.667 18.667 66 24v606l-76 8v39c10 4 22.833 8 38.5 12s32.167 7.5 49.5 10.5s34.666 5.66699 51.999 8s32.666 4.16602 45.999 5.49902h34v-353h1c6.66699 15.333 15.667 29.833 27 43.5s24.166 25.667 38.499 36
s29.833 18.5 46.5 24.5s34.334 9 53.001 9c26.667 0 50.5 -3.16699 71.5 -9.5s38.5 -17.5 52.5 -33.5s24.667 -37.5 32 -64.5s11 -61.167 11 -102.5v-239c11.333 -2.66699 22.666 -5.66699 33.999 -9s22 -8.33301 32 -15v-39zM14.0049 753.001l-28 28l127 117
c6.66699 3.33301 17 5 31 5s24.333 -1.66699 31 -5l125 -114l-28 -30l-132 56z" />
    <glyph glyph-name="Hbar" unicode="&#x126;" horiz-adv-x="769" 
d="M26 561l76.0039 0.00195312v72c-16 2.66699 -31.333 6.66699 -46 12s-26.667 11 -36 17v38h303v-38c-10 -6.66699 -21.167 -12.667 -33.5 -18s-24.833 -9 -37.5 -11v-72h265v72c-14.667 2.66699 -27.834 6.66699 -39.501 12s-22.167 11 -31.5 17v38h303v-38
c-11.333 -7.33301 -24.333 -13.333 -39 -18s-29 -8.33398 -43 -11.001v-72h76v-63h-76v-431c15.333 -2.66699 30.166 -6.66699 44.499 -12s26.833 -11 37.5 -17v-38h-303v38c10 6 21 11.667 33 17s24.667 9.33301 38 12v259h-265v-259
c13.333 -2.66699 25.666 -6.33398 36.999 -11.001s22.666 -10.667 33.999 -18v-38h-303v38c11.333 6 24.5 11.667 39.5 17s29.167 9.33301 42.5 12v431h-76v63zM517.004 391.002v107h-265v-107h265z" />
    <glyph glyph-name="hbar" unicode="&#x127;" horiz-adv-x="640" 
d="M7 620l78.0049 0.000976562v49l-76 8v39c10 4 22.833 8 38.5 12s32.167 7.5 49.5 10.5s34.666 5.66699 51.999 8s32.666 4.16602 45.999 5.49902h34v-132h155v-61h-155v-160h1c6.66699 15.333 15.667 29.833 27 43.5s24.166 25.667 38.499 36s29.833 18.5 46.5 24.5
s34.334 9 53.001 9c26.667 0 50.5 -3.16699 71.5 -9.5s38.5 -17.5 52.5 -33.5s24.667 -37.5 32 -64.5s11 -61.167 11 -102.5v-239c11.333 -2.66699 22.666 -5.66699 33.999 -9s22 -8.33301 32 -15v-39h-265v39c8 4.66699 16.333 9 25 13s18.667 7.66699 30 11v202
c0 57.333 -5.5 99.5 -16.5 126.5s-32.5 40.5 -64.5 40.5c-26.667 0 -49.334 -9.16699 -68.001 -27.5s-32 -39.5 -40 -63.5v-278c10.667 -2.66699 20.167 -5.66699 28.5 -9s17.166 -8.33301 26.499 -15v-39h-265v39c20.667 10.667 42.667 18.667 66 24v496h-78v61z" />
    <glyph glyph-name="Imacron" unicode="&#x12a;" horiz-adv-x="372" 
d="M342 0h-312v38c26.667 14.667 53.667 24.334 81 29.001v566c-13.333 2 -27.333 5.66699 -42 11s-27.667 11.333 -39 18v38h312v-38c-12 -7.33301 -25.167 -13.5 -39.5 -18.5s-28.166 -8.5 -41.499 -10.5v-566c13.333 -2.66699 27.166 -6.33398 41.499 -11.001
s27.5 -10.667 39.5 -18v-38zM25 779v70h324v-70h-324z" />
    <glyph glyph-name="imacron" unicode="&#x12b;" horiz-adv-x="332" 
d="M307 0l-276.001 0.000976562v39c10 5.33301 20.333 9.83301 31 13.5s22.334 7.16699 35.001 10.5v366l-66 8v39c10 4 22.5 8 37.5 12s30.833 7.5 47.5 10.5s33 5.66699 49 8s30 4.16602 42 5.49902h34v-449c13.333 -3.33301 25.333 -6.83301 36 -10.5
s20.667 -8.16699 30 -13.5v-39zM18.999 619.001v70h294v-70h-294z" />
    <glyph glyph-name="Iogonek" unicode="&#x12e;" horiz-adv-x="372" 
d="M342 0l-35.999 -0.00195312c-26 -18.667 -46.167 -40.5 -60.5 -65.5s-21.5 -48.167 -21.5 -69.5c0 -17.333 5.16699 -30.666 15.5 -39.999s23.166 -14 38.499 -14c8 0 15.667 0.333008 23 1s15 2 23 4v-43c-9.33301 -7.33301 -23.166 -13.833 -41.499 -19.5
s-38.166 -8.5 -59.499 -8.5c-40.667 0 -71.834 9.5 -93.501 28.5s-32.5 42.167 -32.5 69.5c0 18 3.5 34.5 10.5 49.5s16.667 28.833 29 41.5s27.166 24.334 44.499 35.001s36.333 21 57 31h-208v38c26.667 14.667 53.667 24.334 81 29.001v566
c-13.333 2 -27.333 5.66699 -42 11s-27.667 11.333 -39 18v38h312v-38c-12 -7.33301 -25.167 -13.5 -39.5 -18.5s-28.166 -8.5 -41.499 -10.5v-566c13.333 -2.66699 27.166 -6.33398 41.499 -11.001s27.5 -10.667 39.5 -18v-38z" />
    <glyph glyph-name="iogonek" unicode="&#x12f;" horiz-adv-x="357" 
d="M317 0l-35.001 0.000976562c-21.333 -16 -38 -34.667 -50 -56s-18 -42.333 -18 -63c0 -12.667 4 -24.167 12 -34.5s20 -15.5 36 -15.5c15.333 0 32 3 50 9v-46c-4.66699 -2.66699 -10.834 -5.16699 -18.501 -7.5s-15.667 -4.5 -24 -6.5s-16.666 -3.5 -24.999 -4.5
s-15.5 -1.5 -21.5 -1.5c-46 0 -79.667 9 -101 27s-32 39.667 -32 65c0 30 10.167 55.667 30.5 77s49.833 40.333 88.5 57h-168v39c10 5.33301 20.333 9.83301 31 13.5s22.334 7.16699 35.001 10.5v366l-66 8v39c10 4 22.5 8 37.5 12s30.833 7.5 47.5 10.5s33 5.66699 49 8
s30 4.16602 42 5.49902h34v-449c13.333 -3.33301 25.333 -6.83301 36 -10.5s20.667 -8.16699 30 -13.5v-39zM92.999 663.001c0 22.667 7.66699 40.5 23 53.5s35.333 19.5 60 19.5s44.834 -6.5 60.501 -19.5s23.5 -30.833 23.5 -53.5s-7.83301 -40.5 -23.5 -53.5
s-35.834 -19.5 -60.501 -19.5s-44.667 6.5 -60 19.5s-23 30.833 -23 53.5z" />
    <glyph glyph-name="Idotaccent" unicode="&#x130;" horiz-adv-x="372" 
d="M342 0h-312v38c26.667 14.667 53.667 24.334 81 29.001v566c-13.333 2 -27.333 5.66699 -42 11s-27.667 11.333 -39 18v38h312v-38c-12 -7.33301 -25.167 -13.5 -39.5 -18.5s-28.166 -8.5 -41.499 -10.5v-566c13.333 -2.66699 27.166 -6.33398 41.499 -11.001
s27.5 -10.667 39.5 -18v-38zM96 819c0 21.333 7.66699 37.666 23 48.999s38 17 68 17s52.333 -5.66699 67 -17s22 -27.666 22 -48.999c0 -20.667 -7.33301 -36.667 -22 -48s-37 -17 -67 -17s-52.667 5.66699 -68 17s-23 27.333 -23 48z" />
    <glyph glyph-name="dotlessi" unicode="&#x131;" horiz-adv-x="332" 
d="M307 0l-276.001 0.000976562v39c10 5.33301 20.333 9.83301 31 13.5s22.334 7.16699 35.001 10.5v366l-66 8v39c10 4 22.5 8 37.5 12s30.833 7.5 47.5 10.5s33 5.66699 49 8s30 4.16602 42 5.49902h34v-449c13.333 -3.33301 25.333 -6.83301 36 -10.5
s20.667 -8.16699 30 -13.5v-39z" />
    <glyph glyph-name="Jcircumflex" unicode="&#x134;" horiz-adv-x="365" 
d="M27 700l307.996 0.000976562v-38c-10.667 -6.66699 -22.667 -12.667 -36 -18s-26.666 -9 -39.999 -11v-512c0 -54.667 -8.16699 -99.5 -24.5 -134.5s-35.666 -62.667 -57.999 -83s-45.166 -35.166 -68.499 -44.499s-42.333 -15.666 -57 -18.999l-19 26
c10 8 19.667 18.167 29 30.5s17.5 28.166 24.5 47.499s12.667 42.833 17 70.5s6.5 61.167 6.5 100.5v518c-14.667 3.33301 -29.167 7.16602 -43.5 11.499s-27.166 10.166 -38.499 17.499v38zM54.9961 743.001l-28 28l127 117c6.66699 3.33301 17 5 31 5
s24.333 -1.66699 31 -5l125 -114l-28 -30l-132 56z" />
    <glyph glyph-name="jcircumflex" unicode="&#x135;" horiz-adv-x="320" 
d="M97 429l-66.001 8v39c10 4.66699 22.333 9 37 13s30.334 7.5 47.001 10.5s33.167 5.5 49.5 7.5s30.5 3.66699 42.5 5h34v-469c0 -31.333 -3.83301 -59.333 -11.5 -84s-17.667 -46 -30 -64s-26 -33.333 -41 -46s-29.667 -23.167 -44 -31.5s-27.5 -14.833 -39.5 -19.5
s-21.333 -8 -28 -10l-20 30c8 4 16 10.5 24 19.5s15.5 21.5 22.5 37.5s12.667 36.167 17 60.5s6.5 53.833 6.5 88.5v405zM70.999 577l-42 25.001l110 186c4 3.33301 12.167 5.16602 24.5 5.49902s21.5 -1.5 27.5 -5.5l114 -185l-41 -26l-103 98z" />
    <glyph glyph-name="Kcommaaccent" unicode="&#x136;" horiz-adv-x="710" 
d="M399 700l268 -0.000976562v-38c-11.333 -7.33301 -24.333 -13.5 -39 -18.5s-28 -8.5 -40 -10.5l-190 -241c15.333 -21.333 33.333 -45.5 54 -72.5s42.667 -55 66 -84s47.333 -58.333 72 -88s48.667 -57.834 72 -84.501l48 -29v-34h-174l-40 28
c-16 20 -32.833 42.167 -50.5 66.5s-35.167 49.666 -52.5 75.999s-34.333 52.833 -51 79.5s-32.334 52.667 -47.001 78h-43v-261c14.667 -2.66699 28 -6.66699 40 -12s22.333 -11 31 -17v-38h-303v38c13.333 6.66699 27 12.5 41 17.5s27.667 8.83301 41 11.5v566
c-15.333 2 -30.166 5.66699 -44.499 11s-26.833 11.333 -37.5 18v38h303v-38c-8.66699 -5.33301 -19.167 -10.666 -31.5 -15.999s-25.5 -9.66602 -39.5 -12.999v-254l59 14l161 240c-13.333 2.66699 -26.5 6.83398 -39.5 12.501s-24.167 11.167 -33.5 16.5v38zM265 -231.001
c15.333 4 28.8291 11.168 40.4961 21.501s17.167 22.833 16.5 37.5c-8 7.33301 -19.333 14 -34 20s-28.667 10.333 -42 13c-4 10.667 -4.66699 21.667 -2 33s7.33398 21.5 14.001 30.5s14.667 16.667 24 23s19 10.166 29 11.499c14 -0.666992 27.833 -3 41.5 -7
s25.834 -10 36.501 -18s19.334 -18 26.001 -30s10 -26.333 10 -43c0 -34.667 -13.667 -64.167 -41 -88.5s-62.666 -39.5 -105.999 -45.5z" />
    <glyph glyph-name="kcommaaccent" unicode="&#x137;" horiz-adv-x="583" 
d="M322 500h234.006v-39c-12.667 -5.33301 -24.5 -10 -35.5 -14s-23.167 -7.33301 -36.5 -10c-10 -13.333 -20.833 -26.5 -32.5 -39.5s-23.334 -25.5 -35.001 -37.5s-22.834 -23.5 -33.501 -34.5s-20.334 -20.833 -29.001 -29.5c10 -13.333 21.667 -29.333 35 -48
s27.666 -38.5 42.999 -59.5s31.5 -42.333 48.5 -64s34.167 -42.167 51.5 -61.5l51 -24v-39h-169l-27 24c-15.333 20.667 -28.833 40 -40.5 58s-22.167 35.333 -31.5 52s-18.333 32.834 -27 48.501s-17.334 31.167 -26.001 46.5l-33 10v-176c11.333 -2 21.666 -5 30.999 -9
s19.333 -9 30 -15v-39h-271v39c22 10.667 44 18.667 66 24v606l-76 8v39c9.33301 4 22 8 38 12s33 7.5 51 10.5s35.667 5.66699 53 8s32 4.16602 44 5.49902h34v-469h26c22 23.333 42.5 49 61.5 77s35.833 53.667 50.5 77c-8.66699 2.66699 -16.5 6 -23.5 10
s-14.167 8.66699 -21.5 14v39zM207.006 -230c20 5.33301 34.333 13.9971 43 25.9971s13 23.667 13 35c-7.33301 8 -17.5 14.333 -30.5 19s-26.167 9.33398 -39.5 14.001c-3.33301 10.667 -3.66602 21.334 -0.999023 32.001s7 20.334 13 29.001s13.167 16 21.5 22
s17.166 9.66699 26.499 11c12.667 0 25.167 -2 37.5 -6s23 -9.66699 32 -17s16.333 -16.666 22 -27.999s8.5 -25 8.5 -41s-3 -31.833 -9 -47.5s-14.667 -29.667 -26 -42s-25.333 -22.833 -42 -31.5s-36 -14.334 -58 -17.001z" />
    <glyph glyph-name="Lacute" unicode="&#x139;" horiz-adv-x="583" 
d="M20 700l328.001 0.000976562v-38c-14 -7.33301 -29.5 -13.5 -46.5 -18.5s-33.5 -8.5 -49.5 -10.5v-568h193l67 179h41c2.66699 -15.333 5.16699 -33.333 7.5 -54s4.16602 -42.334 5.49902 -65.001s2.33301 -45 3 -67s0.666992 -41.333 0 -58h-549v38
c15.333 8 29.833 14.333 43.5 19s26.5 8 38.5 10v566c-32.667 5.33301 -60 15 -82 29v38zM292.001 898.001c10.667 0.666992 22.833 0.00195312 36.5 -1.99805s27 -4.83301 40 -8.5s24.667 -7.83398 35 -12.501s17.5 -9.33398 21.5 -14.001v-20l-247 -96l-28 24z" />
    <glyph glyph-name="lacute" unicode="&#x13a;" horiz-adv-x="332" 
d="M307 0l-276.001 0.000976562v39c22 10.667 44 18.667 66 24v606l-76 8v39c8.66699 4 20.667 8 36 12s31.833 7.5 49.5 10.5s35.334 5.66699 53.001 8s33.5 4.16602 47.5 5.49902h34v-689c22 -5.33301 44 -13.333 66 -24v-39zM215.999 908.001
c10.667 0.666992 22.833 0.00195312 36.5 -1.99805s27 -4.83301 40 -8.5s24.667 -7.83398 35 -12.501s17.5 -9.33398 21.5 -14.001v-20l-247 -96l-28 24z" />
    <glyph glyph-name="Lcommaaccent" unicode="&#x13b;" horiz-adv-x="583" 
d="M20 700l328.001 0.000976562v-38c-14 -7.33301 -29.5 -13.5 -46.5 -18.5s-33.5 -8.5 -49.5 -10.5v-568h193l67 179h41c2.66699 -15.333 5.16699 -33.333 7.5 -54s4.16602 -42.334 5.49902 -65.001s2.33301 -45 3 -67s0.666992 -41.333 0 -58h-549v38
c15.333 8 29.833 14.333 43.5 19s26.5 8 38.5 10v566c-32.667 5.33301 -60 15 -82 29v38zM232.001 -230.999c15.333 4 28.8291 11.168 40.4961 21.501s17.167 22.833 16.5 37.5c-8 7.33301 -19.333 14 -34 20s-28.667 10.333 -42 13c-4 10.667 -4.66699 21.667 -2 33
s7.33398 21.5 14.001 30.5s14.667 16.667 24 23s19 10.166 29 11.499c14 -0.666992 27.833 -3 41.5 -7s25.834 -10 36.501 -18s19.334 -18 26.001 -30s10 -26.333 10 -43c0 -34.667 -13.667 -64.167 -41 -88.5s-62.666 -39.5 -105.999 -45.5z" />
    <glyph glyph-name="lcommaaccent" unicode="&#x13c;" horiz-adv-x="332" 
d="M307 0l-276.001 0.000976562v39c22 10.667 44 18.667 66 24v606l-76 8v39c8.66699 4 20.667 8 36 12s31.833 7.5 49.5 10.5s35.334 5.66699 53.001 8s33.5 4.16602 47.5 5.49902h34v-689c22 -5.33301 44 -13.333 66 -24v-39zM115.999 -229.999
c20 5.33301 34.333 13.9971 43 25.9971s13 23.667 13 35c-7.33301 8 -17.5 14.333 -30.5 19s-26.167 9.33398 -39.5 14.001c-3.33301 10.667 -3.66602 21.334 -0.999023 32.001s7 20.334 13 29.001s13.167 16 21.5 22s17.166 9.66699 26.499 11c12.667 0 25.167 -2 37.5 -6
s23 -9.66699 32 -17s16.333 -16.666 22 -27.999s8.5 -25 8.5 -41s-3 -31.833 -9 -47.5s-14.667 -29.667 -26 -42s-25.333 -22.833 -42 -31.5s-36 -14.334 -58 -17.001z" />
    <glyph glyph-name="Lcaron" unicode="&#x13d;" horiz-adv-x="583" 
d="M20 700l328.001 0.000976562v-38c-14 -7.33301 -29.5 -13.5 -46.5 -18.5s-33.5 -8.5 -49.5 -10.5v-568h193l67 179h41c2.66699 -15.333 5.16699 -33.333 7.5 -54s4.16602 -42.334 5.49902 -65.001s2.33301 -45 3 -67s0.666992 -41.333 0 -58h-549v38
c15.333 8 29.833 14.333 43.5 19s26.5 8 38.5 10v566c-32.667 5.33301 -60 15 -82 29v38zM378.001 491.001c6.66699 14.667 12.8311 31.001 18.498 49.001s10.334 36.167 14.001 54.5s6.33398 35.833 8.00098 52.5s2.5 31.667 2.5 45l21 25
c8.66699 0 19.5 -1.16699 32.5 -3.5s25.833 -5.5 38.5 -9.5s24.167 -8.66699 34.5 -14s17.833 -10.333 22.5 -15c-2 -17.333 -8.66699 -36.5 -20 -57.5s-25 -41.167 -41 -60.5s-33 -36.833 -51 -52.5s-35 -26.834 -51 -33.501z" />
    </font>
</defs>
</svg>
