<?xml version="1.0" standalone="no"?>
<!DOCTYPE svg PUBLIC "-//W3C//DTD SVG 1.1//EN" "http://www.w3.org/Graphics/SVG/1.1/DTD/svg11.dtd" >
<svg version="1.1" xmlns="http://www.w3.org/2000/svg">
<metadata>
Created by FontForge 20120731 at Fri Aug  1 16:50:30 2014

Copyright (c) 2011, Sorkin Type Co (www.sorkintype.com)
with Reserved Font Name "Merriweather".

This Font Software is licensed under the SIL Open Font License,
Version 1.1. This license is available with a FAQ at:
http://scripts.sil.org/OFL
</metadata>
<defs>
<font id="merriweather" horiz-adv-x="0" >
  <font-face 
    font-family="Merriweather"
    font-weight="250"
    font-stretch="normal"
    units-per-em="1000"
    panose-1="2 6 5 3 5 4 6 3 7 4"
    ascent="800"
    descent="-200"
    x-height="545.997"
    cap-height="758"
    bbox="-42 -312.003 1199 938.001"
    underline-thickness="54"
    underline-position="-66"
    unicode-range="U+0001-FB04"
  />
<missing-glyph horiz-adv-x="864" 
d="M86 691h692v-691h-692v691zM265 130l167 178l170 -180l43 43l-176 175l175 168l-45 44l-166 -176l-168 178l-43 -44l173 -171l-175 -164z" />
    <glyph glyph-name=".notdef" horiz-adv-x="864" 
d="M86 691h692v-691h-692v691zM265 130l167 178l170 -180l43 43l-176 175l175 168l-45 44l-166 -176l-168 178l-43 -44l173 -171l-175 -164z" />
    <glyph glyph-name="uni0000" 
 />
    <glyph glyph-name="uni0000" 
 />
    <glyph glyph-name="uni0001" 
 />
    <glyph glyph-name="uni0002" 
 />
    <glyph glyph-name="uni0003" 
 />
    <glyph glyph-name="uni0004" 
 />
    <glyph glyph-name="uni0005" 
 />
    <glyph glyph-name="uni0006" 
 />
    <glyph glyph-name="uni0007" 
 />
    <glyph glyph-name="uni0008" 
 />
    <glyph glyph-name="uni0009" unicode="&#x9;" 
 />
    <glyph glyph-name="uni000A" unicode="&#xa;" 
 />
    <glyph glyph-name="uni000B" 
 />
    <glyph glyph-name="uni000C" 
 />
    <glyph glyph-name="uni000D" unicode="&#xd;" 
 />
    <glyph glyph-name="uni000E" 
 />
    <glyph glyph-name="uni000F" 
 />
    <glyph glyph-name="uni0010" 
 />
    <glyph glyph-name="uni0011" 
 />
    <glyph glyph-name="uni0012" 
 />
    <glyph glyph-name="uni0013" 
 />
    <glyph glyph-name="uni0014" 
 />
    <glyph glyph-name="uni0015" 
 />
    <glyph glyph-name="uni0016" 
 />
    <glyph glyph-name="uni0017" 
 />
    <glyph glyph-name="uni0018" 
 />
    <glyph glyph-name="uni0019" 
 />
    <glyph glyph-name="uni001A" 
 />
    <glyph glyph-name="uni001B" 
 />
    <glyph glyph-name="uni001C" 
 />
    <glyph glyph-name="uni001D" 
 />
    <glyph glyph-name="uni001E" 
 />
    <glyph glyph-name="uni001F" 
 />
    <glyph glyph-name="space" unicode=" " horiz-adv-x="255" 
 />
    <glyph glyph-name="exclam" unicode="!" horiz-adv-x="344" 
d="M121 869h93l-26 -647h-45zM117 36c0 8 1.66602 15.167 4.99902 21.5s7.83301 12 13.5 17s12 8.83301 19 11.5s13.833 4 20.5 4c16.667 0 28.834 -4.66699 36.501 -14s11.5 -20 11.5 -32c0 -8 -1.66699 -15.333 -5 -22s-7.66602 -12.5 -12.999 -17.5
s-11.5 -8.83301 -18.5 -11.5s-13.833 -4 -20.5 -4c-6 0 -12 1.16699 -18 3.5s-11.333 5.5 -16 9.5s-8.33398 8.83301 -11.001 14.5s-4 12.167 -4 19.5z" />
    <glyph glyph-name="quotedbl" unicode="&#x22;" horiz-adv-x="615" 
d="M374 870h83l-19 -398h-46zM159 870h83l-18 -398h-47z" />
    <glyph glyph-name="numbersign" unicode="#" horiz-adv-x="698" 
d="M183 178h-110v48h112l20 227h-121v47h124l14 162h62l-13 -162h185l14 162h62l-14 -162h107v-47h-110l-20 -227h113c0 -7.33301 0.166992 -15.333 0.5 -24s0.5 -16.667 0.5 -24h-116l-16 -178h-60l14 178h-185l-18 -178h-61zM433 226l19 227h-184l-20 -227h185z" />
    <glyph glyph-name="dollar" unicode="$" horiz-adv-x="620" 
d="M85 177l36.001 -0.00488281l23 -100c10 -10 22 -18.167 36 -24.5s28.667 -11.333 44 -15s31 -6.16699 47 -7.5s31.333 -2 46 -2c20.667 0 41.5 2.5 62.5 7.5s39.833 13.333 56.5 25s30.167 26.667 40.5 45s15.5 40.833 15.5 67.5c0 22.667 -5.5 42.834 -16.5 60.501
s-25.333 33.667 -43 48s-38 27.666 -61 39.999s-46.833 24.5 -71.5 36.5c-26 12.667 -51.5 25.834 -76.5 39.501s-47.333 29 -67 46s-35.667 36.167 -48 57.5s-18.5 46 -18.5 74c0 30.667 6.16699 57.334 18.5 80.001s28.666 41.5 48.999 56.5s42.666 26.667 66.999 35
s48.5 13.833 72.5 16.5l3 82h58l-3 -81c20.667 -0.666992 39.5 -2.33398 56.5 -5.00098s32 -5.83398 45 -9.50098s24.333 -7.5 34 -11.5s17.834 -8 24.501 -12v-130h-34l-28 97c-14 12.667 -33 21.5 -57 26.5s-49 7.5 -75 7.5c-17.333 0 -35.833 -2.66699 -55.5 -8
s-37.5 -13.5 -53.5 -24.5s-29.167 -25.333 -39.5 -43s-15.5 -39.5 -15.5 -65.5c0 -20.667 5 -39.167 15 -55.5s23.333 -31.333 40 -45s35.834 -26.167 57.501 -37.5s43.834 -22.333 66.501 -33c18 -8.66699 36 -17.5 54 -26.5s35.333 -18.667 52 -29
s32.167 -21.166 46.5 -32.499s26.833 -23.666 37.5 -36.999s19 -28.166 25 -44.499s9 -34.166 9 -53.499c0 -34 -6 -63.167 -18 -87.5s-28.333 -44.666 -49 -60.999s-44.834 -29 -72.501 -38s-57.167 -14.167 -88.5 -15.5l-4 -103h-58l2 103
c-21.333 1.33301 -41.833 3.33301 -61.5 6s-37.834 6 -54.501 10s-31.167 8.16699 -43.5 12.5s-21.5 8.5 -27.5 12.5v146z" />
    <glyph glyph-name="percent" unicode="%" horiz-adv-x="864" 
d="M541 782h59l-280 -782h-59zM192 338c-23.333 -0.666992 -44 3.6709 -62 13.0039s-33.333 22.166 -46 38.499s-22.5 35.333 -29.5 57s-10.5 44.167 -10.5 67.5c0 29.333 4.5 55.166 13.5 77.499s21 41.166 36 56.499s32.167 27.166 51.5 35.499s39.666 12.833 60.999 13.5
c26 0.666992 48.167 -3.66602 66.5 -12.999s33.5 -22 45.5 -38s21 -35 27 -57s9 -45.333 9 -70c0 -28.667 -4.5 -54.334 -13.5 -77.001s-21 -41.5 -36 -56.5s-32.167 -26.5 -51.5 -34.5s-39.666 -12.333 -60.999 -13zM197 377.005c30.667 0 54.667 12.1631 72 36.4961
s26 58.166 26 101.499c0 21.333 -2 40.833 -6 58.5s-9.83301 32.834 -17.5 45.501s-17.334 22.334 -29.001 29.001s-25.167 10 -40.5 10s-29 -3.16699 -41 -9.5s-22.333 -15.666 -31 -27.999s-15.167 -27.166 -19.5 -44.499s-6.5 -36.666 -6.5 -57.999
c0 -20.667 2 -39.5 6 -56.5s9.83301 -31.833 17.5 -44.5s17.334 -22.5 29.001 -29.5s25.167 -10.5 40.5 -10.5zM510 256.001c0 29.333 4.5 55.1709 13.5 77.5039s21 41.333 36 57s32.167 27.5 51.5 35.5s39.666 12.333 60.999 13c26 0.666992 48.167 -3.5 66.5 -12.5
s33.5 -21.667 45.5 -38s20.833 -35.5 26.5 -57.5s8.5 -45.333 8.5 -70c0 -28.667 -4.33301 -54.334 -13 -77.001s-20.5 -41.5 -35.5 -56.5s-32.167 -26.5 -51.5 -34.5s-39.666 -12.333 -60.999 -13c-23.333 -0.666992 -44 3.66602 -62 12.999s-33.333 22.166 -46 38.499
s-22.5 35.166 -29.5 56.499s-10.5 44 -10.5 68zM569 260.006c0 -20.667 1.99805 -39.5039 5.99805 -56.5039s9.83301 -31.667 17.5 -44s17.334 -22 29.001 -29s25.167 -10.5 40.5 -10.5c14.667 0 28.167 3 40.5 9s22.833 14.833 31.5 26.5s15.334 26.167 20.001 43.5
s7 36.666 7 57.999s-2 40.833 -6 58.5s-10 32.834 -18 45.501s-17.833 22.334 -29.5 29.001s-25.167 10 -40.5 10s-29 -3.16699 -41 -9.5s-22.167 -15.666 -30.5 -27.999s-14.833 -27.166 -19.5 -44.499s-7 -36.666 -7 -57.999z" />
    <glyph glyph-name="ampersand" unicode="&#x26;" horiz-adv-x="766" 
d="M92 174c0 26.667 4.83984 49.833 14.5068 69.5s22.167 37.167 37.5 52.5s32.833 29 52.5 41s39.5 23 59.5 33c-11.333 14.667 -22.5 29.834 -33.5 45.501s-21.167 32 -30.5 49s-17 34.667 -23 53s-9.33301 37.5 -10 57.5c-0.666992 29.333 3.66602 55.5 12.999 78.5
s22.166 42.5 38.499 58.5s35.666 28.167 57.999 36.5s46.166 12.5 71.499 12.5c28 0 52.167 -4.16699 72.5 -12.5s37.166 -19.5 50.499 -33.5s23.333 -30.5 30 -49.5s10.334 -39.167 11.001 -60.5c0 -25.333 -4.16699 -49.5 -12.5 -72.5s-20.166 -44.5 -35.499 -64.5
s-32.833 -38.333 -52.5 -55s-40.5 -31.334 -62.5 -44.001c8 -9.33301 17.167 -20.333 27.5 -33s21.5 -26 33.5 -40s24.5 -28.167 37.5 -42.5s25.833 -28.166 38.5 -41.499s24.5 -25.833 35.5 -37.5s20.5 -21.167 28.5 -28.5l22 -21c9.33301 17.333 15.833 35.833 19.5 55.5
s5.5 39.5 5.5 59.5c0 16.667 -1 32 -3 46s-4.16699 26 -6.5 36s-4.83301 18.167 -7.5 24.5s-4.66699 10.833 -6 13.5h68c4 -10.667 8.16699 -24.667 12.5 -42s6.5 -38.666 6.5 -63.999c0 -27.333 -3.83301 -55.333 -11.5 -84s-20.167 -54.667 -37.5 -78
c12 -9.33301 23 -17.166 33 -23.499s19.833 -11.666 29.5 -15.999s19.5 -7.33301 29.5 -9s20.333 -2.83398 31 -3.50098v-33c-9.33301 -3.33301 -19.333 -5.33301 -30 -6s-22.334 0 -35.001 2c-16 1.33301 -32.667 6.16602 -50 14.499s-35 18.833 -53 31.5
c-12.667 -11.333 -27.167 -21 -43.5 -29s-33.333 -14.667 -51 -20s-35.667 -9.33301 -54 -12s-35.5 -4 -51.5 -4c-16.667 0 -34.834 1.16699 -54.501 3.5s-39.334 6.16602 -59.001 11.499s-38.834 12.666 -57.501 21.999s-35 21 -49 35s-25.333 30.667 -34 50s-13 42 -13 68
zM316.007 398.999c40.667 20 72.165 46.667 94.498 80s33.166 71.666 32.499 114.999c0 14 -1.66699 28.5 -5 43.5s-9.33301 28.833 -18 41.5s-20.167 23.167 -34.5 31.5s-32.166 12.5 -53.499 12.5c-12.667 0 -25.667 -2.33301 -39 -7s-25.166 -12 -35.499 -22
s-18.833 -22.833 -25.5 -38.5s-10 -34.5 -10 -56.5c0 -24 3.5 -46 10.5 -66s15.167 -38.167 24.5 -54.5s19.333 -31.166 30 -44.499s20.334 -25 29.001 -35zM159.005 180.999c0 -24.667 5.49805 -46.333 16.498 -65s26 -34.5 45 -47.5s40.833 -22.667 65.5 -29
s50.334 -9.5 77.001 -9.5c14.667 0 29.5 0.666992 44.5 2s29.5 3.83301 43.5 7.5s27.333 8.5 40 14.5s23.667 13.333 33 22c-2 1.33301 -4 2.83301 -6 4.5s-3.66699 3.5 -5 5.5c-11.333 9.33301 -23.666 20.5 -36.999 33.5s-27.166 27 -41.499 42s-28.833 30.5 -43.5 46.5
s-28.834 31.833 -42.501 47.5s-26.5 30.667 -38.5 45s-22.333 27.5 -31 39.5c-20.667 -10.667 -38.5 -21.5 -53.5 -32.5s-27.5 -22.667 -37.5 -35s-17.333 -26 -22 -41s-7 -31.833 -7 -50.5z" />
    <glyph glyph-name="quotesingle" unicode="'" horiz-adv-x="400" 
d="M159 870h83l-18 -398h-47z" />
    <glyph glyph-name="parenleft" unicode="(" horiz-adv-x="396" 
d="M287 -144c-7.33301 4.66699 -18.332 12.835 -32.999 24.502s-30.5 27 -47.5 46s-34.5 42.167 -52.5 69.5s-34.333 58.833 -49 94.5s-26.5 75.834 -35.5 120.501s-13.5 94 -13.5 148c0 47.333 4.66699 91.666 14 132.999s21.333 79.333 36 114s31.167 66 49.5 94
s36.166 52.167 53.499 72.5s33.166 36.833 47.499 49.5s25.5 21 33.5 25l33 -20c-7.33301 -4.66699 -17 -12.667 -29 -24s-25.167 -26.333 -39.5 -45s-29 -40.334 -44 -65.001s-28.667 -52.667 -41 -84s-22.666 -66 -30.999 -104s-13.166 -78.667 -14.499 -122
c-1.33301 -50.667 1.66699 -97.667 9 -141s17 -82.833 29 -118.5s25.833 -67.334 41.5 -95.001s31.167 -51.667 46.5 -72s29.666 -36.833 42.999 -49.5s24 -21.667 32 -27l-38 -24v0z" />
    <glyph glyph-name="parenright" unicode=")" horiz-adv-x="396" 
d="M74 -125c7.33301 4.66699 17.0039 12.832 29.0039 24.499s25.167 26.667 39.5 45s29 40 44 65s28.667 53.167 41 84.5s22.666 65.833 30.999 103.5s13.166 78.5 14.499 122.5c1.33301 50.667 -1.5 97.5 -8.5 140.5s-16.667 82.333 -29 118s-26.333 67.334 -42 95.001
s-31.167 51.667 -46.5 72s-29.833 36.833 -43.5 49.5s-24.167 21.667 -31.5 27l39 24c7.33301 -4.66699 18.166 -12.667 32.499 -24s30 -26.666 47 -45.999s34.5 -42.5 52.5 -69.5s34.167 -58.333 48.5 -94s26.166 -75.834 35.499 -120.501s14 -94 14 -148
c0 -47.333 -4.66699 -91.666 -14 -132.999s-21.333 -79.5 -36 -114.5s-31.167 -66.333 -49.5 -94s-36 -51.834 -53 -72.501s-32.833 -37.167 -47.5 -49.5s-25.667 -20.833 -33 -25.5l-34 20v0z" />
    <glyph glyph-name="asterisk" unicode="*" horiz-adv-x="632" 
d="M292 553l9 52l-34 -31l-150 -113l-37 53l167 92l43 18l-44 19l-166 90l36 53l148 -110l37 -33l-9 57l-12 172h34h33l-12 -172l-11 -57l46 38l141 104l41 -52l-167 -87l-51 -22l50 -20l168 -91l-42 -51l-146 110l-39 33l9 -52l13 -178h-67z" />
    <glyph glyph-name="plus" unicode="+" horiz-adv-x="613" 
d="M277 283l4 80l-79 -3h-118v58h118l79 -5l-4 81v121h59v-121l-4 -81l70 5h128v-58h-128l-70 4l4 -81v-126h-59v126z" />
    <glyph glyph-name="comma" unicode="," horiz-adv-x="342" 
d="M113 85l38.998 51c17.333 -4 32.5 -11.5 45.5 -22.5s23.667 -23.667 32 -38s14.333 -29.333 18 -45s5.5 -30.5 5.5 -44.5c0 -28 -4.33301 -53.667 -13 -77s-20.167 -44.333 -34.5 -63s-30.666 -34.5 -48.999 -47.5s-36.166 -23.167 -53.499 -30.5l-17 22v11
c11.333 4 22.833 10.833 34.5 20.5s22.334 21.5 32.001 35.5s17.5 29.5 23.5 46.5s9 34.833 9 53.5c0 14.667 -2 28.5 -6 41.5s-9.33301 24.333 -16 34s-14.334 17.5 -23.001 23.5s-17.667 9.66699 -27 11v18z" />
    <glyph glyph-name="hyphen" unicode="-" horiz-adv-x="600" 
d="M84 417h432v-54h-432v54z" />
    <glyph glyph-name="period" unicode="." horiz-adv-x="344" 
d="M117 42c0.666992 6.66699 2.83496 12.833 6.50195 18.5s8.16699 10.5 13.5 14.5s11.166 6.66699 17.499 8s12.166 1.66602 17.499 0.999023c7.33301 -0.666992 13.333 -2.5 18 -5.5s8.5 -6.5 11.5 -10.5s4.83301 -8.83301 5.5 -14.5s0.333984 -11.167 -0.999023 -16.5
c-0.666992 -7.33301 -2.83398 -13.833 -6.50098 -19.5s-8.16699 -10.167 -13.5 -13.5s-11.166 -5.83301 -17.499 -7.5s-12.5 -2.16699 -18.5 -1.5c-10.667 1.33301 -19.334 6.33301 -26.001 15s-9 19.334 -7 32.001z" />
    <glyph glyph-name="slash" unicode="/" horiz-adv-x="398" 
d="M284 781h67l-269 -958h-67z" />
    <glyph glyph-name="zero" unicode="0" horiz-adv-x="647" 
d="M64 309c0.666992 47.333 8.50293 89.6689 23.5029 127.002s34.833 68.833 59.5 94.5s53 45.5 85 59.5s65.667 21 101 21c47.333 0 87.166 -7.83301 119.499 -23.5s58.333 -37.334 78 -65.001s33.667 -60.167 42 -97.5s12.166 -77.666 11.499 -120.999
c0 -46.667 -7 -89.5 -21 -128.5s-32.833 -72.5 -56.5 -100.5s-51.5 -49.833 -83.5 -65.5s-66 -23.5 -102 -23.5c-30.667 0 -58.5 4.16699 -83.5 12.5s-47 19.666 -66 33.999s-35.333 31.666 -49 51.999s-24.834 42.5 -33.501 66.5s-15 49.333 -19 76s-6 54 -6 82z
M321.003 27.0029c32.667 -0.666992 61 5.33203 85 17.999s43.667 31 59 55s26.666 53 33.999 87s11 71.667 11 113c0 38 -3.5 73.333 -10.5 106s-17.667 61.167 -32 85.5s-32.666 43.333 -54.999 57s-49.166 20.834 -80.499 21.501c-32.667 0 -61.167 -5.83301 -85.5 -17.5
s-44.333 -28.667 -60 -51s-27.334 -49.5 -35.001 -81.5s-11.5 -68 -11.5 -108c0 -36.667 3.5 -72 10.5 -106s18 -64.167 33 -90.5s33.833 -47.5 56.5 -63.5s49.667 -24.333 81 -25z" />
    <glyph glyph-name="one" unicode="1" horiz-adv-x="455" 
d="M60 33l147.999 10.001v487c-12.667 -4.66699 -24.5 -8.83398 -35.5 -12.501s-21.833 -7.16699 -32.5 -10.5s-21.5 -6.33301 -32.5 -9s-22.833 -5.66699 -35.5 -9l-7 37c14.667 4.66699 31.834 11.167 51.501 19.5s38.667 17 57 26s35 17.667 50 26
s25.167 14.833 30.5 19.5l26 -7l-1 -567l140 -10v-33h-359v33z" />
    <glyph glyph-name="two" unicode="2" horiz-adv-x="596" 
d="M69 30c29.333 18 58.1699 37.3379 86.5029 58.0049s55.166 42.167 80.499 64.5s48.666 45.166 69.999 68.499s39.666 46.666 54.999 69.999s27.333 46.666 36 69.999s13 46 13 68c0 18.667 -3.16699 36.5 -9.5 53.5s-15.5 32 -27.5 45s-26.833 23.167 -44.5 30.5
s-38.167 11 -61.5 11c-16 0 -32.667 -2.33301 -50 -7s-34 -10.667 -50 -18s-31 -15.833 -45 -25.5s-26 -19.167 -36 -28.5l-18 30c9.33301 12 21.5 23.667 36.5 35s32.333 21.833 52 31.5s40.667 17.5 63 23.5s45.833 9 70.5 9c33.333 0 62.166 -4.83301 86.499 -14.5
s44.333 -22.334 60 -38.001s27.334 -33.5 35.001 -53.5s11.5 -40.333 11.5 -61c0 -35.333 -8.33301 -71.5 -25 -108.5s-39.667 -73.167 -69 -108.5s-63.5 -69.333 -102.5 -102s-80.833 -62.334 -125.5 -89.001l312 17l44 85l32 -11l-31 -135h-438l-11 30v0z" />
    <glyph glyph-name="three" unicode="3" horiz-adv-x="522" 
d="M62 -114c32.667 -5.33301 63.4961 -6.83105 92.4961 -4.49805s55.667 7.83301 80 16.5s46.333 19.834 66 33.501s36.334 29 50.001 46s24 35.333 31 55s10.5 39.5 10.5 59.5c0 22.667 -3.5 43.5 -10.5 62.5s-18.167 35 -33.5 48s-35.166 22.5 -59.499 28.5
s-53.166 7.66699 -86.499 5l-74 -16v51c34 5.33301 64.667 13.666 92 24.999s50.666 24.666 69.999 39.999s34.166 32 44.499 50s15.833 36.333 16.5 55c0 22.667 -3.16699 42 -9.5 58s-15.666 29.333 -27.999 40s-26.666 18.5 -42.999 23.5s-34.166 7.5 -53.499 7.5
c-20.667 0 -39.334 -2 -56.001 -6s-31.5 -9.16699 -44.5 -15.5s-24.667 -13.166 -35 -20.499s-19.5 -14 -27.5 -20l-21 34c8 8 18.333 16.667 31 26s28 17.833 46 25.5s38.167 14.167 60.5 19.5s46.5 8 72.5 8c22.667 0 45 -3 67 -9s41.5 -15.5 58.5 -28.5
s30.667 -29.5 41 -49.5s15.5 -44.333 15.5 -73c0 -19.333 -4.66699 -39.166 -14 -59.499s-21.5 -39.5 -36.5 -57.5s-32.5 -33.833 -52.5 -47.5s-40.333 -23.5 -61 -29.5c34.667 1.33301 65 -1.83398 91 -9.50098s47.333 -19 64 -34s29.334 -32.667 38.001 -53
s13 -42.5 13 -66.5c0 -25.333 -4.5 -50 -13.5 -74s-21.667 -46.833 -38 -68.5s-36.5 -41.334 -60.5 -59.001s-51 -31.834 -81 -42.501s-62.833 -17.667 -98.5 -21s-73.5 -1.33301 -113.5 6v20.5v20.5z" />
    <glyph glyph-name="four" unicode="4" horiz-adv-x="611" 
d="M38 37c25.333 46 50.833 91.832 76.5 137.499s51.334 92.167 77.001 139.5s51.5 96.333 77.5 147s51.667 104.334 77 161.001h25l42 -32c-4 -8.66699 -10.833 -21.667 -20.5 -39s-21 -37.666 -34 -60.999s-27.167 -48.5 -42.5 -75.5s-30.833 -54.5 -46.5 -82.5
s-31.167 -55.5 -46.5 -82.5s-29.5 -51.833 -42.5 -74.5s-24.333 -42.334 -34 -59.001s-16.834 -29 -21.501 -37l-22 -36l283 12l2 249l64 18v-264l115 5v-63h-115v-184h-67l1 184h-336z" />
    <glyph glyph-name="five" unicode="5" horiz-adv-x="526" 
d="M67 -128c25.333 -4 50.9951 -4.33496 76.9951 -1.00195s51 10 75 20s46.667 22.667 68 38s39.833 32.833 55.5 52.5s28.167 41.167 37.5 64.5s14 47.666 14 72.999c0 29.333 -4.16699 54.666 -12.5 75.999s-19.666 39 -33.999 53s-31.333 24.333 -51 31
s-41.167 10.5 -64.5 11.5s-48 -1.16699 -74 -6.5s-52 -12.666 -78 -21.999l-18 14l39 328h275l14 9h42l-18 -70h-259l-35 -239c27.333 12.667 54.833 21.334 82.5 26.001s54.334 5.83398 80.001 3.50098s49.834 -8.33301 72.501 -18s42.334 -23 59.001 -40
s29.834 -38 39.501 -63s14.5 -53.5 14.5 -85.5c0 -23.333 -4 -46.833 -12 -70.5s-19.5 -46.5 -34.5 -68.5s-33 -42.833 -54 -62.5s-44.5 -36.5 -70.5 -50.5s-54 -25.167 -84 -33.5s-61.333 -12.5 -94 -12.5c-8 0 -16.333 0.333008 -25 1s-18 2.33398 -28 5.00098l1 37v0z
" />
    <glyph glyph-name="six" unicode="6" horiz-adv-x="610" 
d="M62 275c0 42 5.83496 82.0039 17.502 120.004s27.5 73.5 47.5 106.5s43.667 63.333 71 91s56.666 52 87.999 73s63.666 38.667 96.999 53s66.333 24.5 99 30.5l16 -32c-58.667 -16.667 -110.334 -40 -155.001 -70s-82 -63.333 -112 -100s-52.833 -75.5 -68.5 -116.5
s-23.834 -81.167 -24.501 -120.5c-0.666992 -36 2.16602 -71 8.49902 -105s16.833 -64 31.5 -90s33.667 -46.833 57 -62.5s51.666 -23.5 84.999 -23.5c20 0 38 3 54 9s30.333 14.167 43 24.5s23.5 22.333 32.5 36s16.5 28 22.5 43s10.5 30 13.5 45s4.5 29.5 4.5 43.5
c0 32 -3.66699 60.167 -11 84.5s-17.166 44.5 -29.499 60.5s-26.666 28 -42.999 36s-33.5 12 -51.5 12c-15.333 0 -29 -1 -41 -3s-22.333 -4.83301 -31 -8.5s-16.167 -7.5 -22.5 -11.5s-11.833 -8 -16.5 -12l-17 30c4.66699 6 11.834 12.333 21.501 19
s21.167 12.667 34.5 18s27.5 9.66602 42.5 12.999s30.5 5 46.5 5c31.333 0 58.5 -6.33301 81.5 -19s42.333 -29.167 58 -49.5s27.334 -43.333 35.001 -69s11.5 -51.167 11.5 -76.5c0 -20.667 -2.5 -41.834 -7.5 -63.501s-12.333 -42.334 -22 -62.001
s-21.667 -38.334 -36 -56.001s-30.666 -33 -48.999 -46s-38.833 -23.167 -61.5 -30.5s-47 -11 -73 -11c-38.667 0 -73.334 7.66699 -104.001 23s-56.667 36 -78 62s-37.5 56.333 -48.5 91s-16.5 71 -16.5 109z" />
    <glyph glyph-name="seven" unicode="7" horiz-adv-x="603" 
d="M193 -128c50.667 109.333 99.667 221.333 147 336s95.333 232.667 144 354l-337 -9l-40 -104l-38 4l24 159h436l15 -18l-277 -748l-74 26v0z" />
    <glyph glyph-name="eight" unicode="8" horiz-adv-x="605" 
d="M63 182c0 20 3.66699 39.834 11 59.501s18.166 38.334 32.499 56.001s31.5 34.167 51.5 49.5s42.333 28.666 67 39.999c-17.333 10.667 -33.5 22 -48.5 34s-28.167 25.667 -39.5 41s-20.166 32.166 -26.499 50.499s-9.5 38.5 -9.5 60.5c0 31.333 6.5 58.666 19.5 81.999
s29.833 42.666 50.5 57.999s44.167 26.666 70.5 33.999s52.5 11 78.5 11c28 0 54.333 -4 79 -12s45.834 -19.333 63.501 -34s31.667 -32.334 42 -53.001s15.5 -43.667 15.5 -69c0 -18 -3 -36.833 -9 -56.5s-15 -39 -27 -58s-26.833 -36.833 -44.5 -53.5s-38.5 -31 -62.5 -43
c22.667 -12 44.5 -24.5 65.5 -37.5s39.5 -26.833 55.5 -41.5s29 -30.667 39 -48s15 -36.666 15 -57.999c0 -37.333 -7 -69.166 -21 -95.499s-32.667 -47.833 -56 -64.5s-49.5 -28.834 -78.5 -36.501s-58.167 -11.5 -87.5 -11.5c-18.667 0 -37.834 1.83301 -57.501 5.5
s-38.667 8.83398 -57 15.501s-35.5 15.334 -51.5 26.001s-30 23.334 -42 38.001s-21.333 31.167 -28 49.5s-10 38.833 -10 61.5zM333 403.001c14 3.33301 28.5 10.333 43.5 21s28.5 23.667 40.5 39s21.833 31.833 29.5 49.5s11.834 35.5 12.501 53.5
c0.666992 22.667 -2.33301 43.5 -9 62.5s-16.334 35.333 -29.001 49s-28.167 24.334 -46.5 32.001s-38.5 11.5 -60.5 11.5c-21.333 0 -41.5 -3.33301 -60.5 -10s-35.5 -16.167 -49.5 -28.5s-25 -26.833 -33 -43.5s-12 -34.667 -12 -54c0 -21.333 5 -40.833 15 -58.5
s23.5 -33.834 40.5 -48.501s36.5 -28.5 58.5 -41.5s44.667 -25.833 68 -38.5zM131 199.001c0 -24 4.33301 -46.501 13 -67.501s21.334 -39.333 38.001 -55s36.667 -28.167 60 -37.5s49.666 -14 78.999 -14c24 0 46.167 3.66699 66.5 11s38 17.333 53 30
s26.833 27.667 35.5 45s13 36 13 56c0 16.667 -3.16699 31.834 -9.5 45.501s-14.833 26.167 -25.5 37.5s-23.167 22 -37.5 32s-30 19.5 -47 28.5s-34.5 18 -52.5 27s-35.667 18.167 -53 27.5c-16.667 -6.66699 -33.167 -15.667 -49.5 -27s-30.5 -24.333 -42.5 -39
s-21.833 -30.5 -29.5 -47.5s-11.5 -34.5 -11.5 -52.5z" />
    <glyph glyph-name="nine" unicode="9" horiz-adv-x="615" 
d="M120 -165c38 11.333 72.998 26.8281 104.998 46.4951s61.167 41.834 87.5 66.501s49.333 51.334 69 80.001s36.167 58.167 49.5 88.5s23.5 60.5 30.5 90.5s10.833 58.667 11.5 86c0 37.333 -2.66699 72.833 -8 106.5s-14.833 63.334 -28.5 89.001
s-31.834 46.167 -54.501 61.5s-51 23 -85 23c-20 0 -38 -3 -54 -9s-30.333 -14.167 -43 -24.5s-23.5 -22.333 -32.5 -36s-16.5 -27.834 -22.5 -42.501s-10.5 -29.5 -13.5 -44.5s-4.5 -29.5 -4.5 -43.5c0 -31.333 3.66699 -59.166 11 -83.499s17.333 -44.5 30 -60.5
s27 -28.333 43 -37s33 -13 51 -13c14 0 26.833 1.16699 38.5 3.5s22.167 5.33301 31.5 9s17.5 7.33398 24.5 11.001s12.833 7.5 17.5 11.5l17 -30c-6 -7.33301 -14.167 -14.333 -24.5 -21s-21.833 -12.5 -34.5 -17.5s-26.167 -9 -40.5 -12s-29.5 -4.5 -45.5 -4.5
c-31.333 0 -58.666 6.33301 -81.999 19s-42.666 29.167 -57.999 49.5s-26.833 43.333 -34.5 69s-11.5 51.167 -11.5 76.5c0 20.667 2.33301 41.834 7 63.501s12 42.5 22 62.5s22 38.667 36 56s30.167 32.5 48.5 45.5s38.833 23.167 61.5 30.5s47.334 11 74.001 11
c39.333 0 73.833 -7.83301 103.5 -23.5s54.5 -36.5 74.5 -62.5s35 -56.333 45 -91s15 -70.667 15 -108c0 -43.333 -5.5 -85.666 -16.5 -126.999s-26.167 -80.333 -45.5 -117s-42.333 -70.834 -69 -102.501s-55.334 -59.667 -86.001 -84s-62.667 -44.5 -96 -60.5
s-66.666 -27.333 -99.999 -34l-14 33v0z" />
    <glyph glyph-name="colon" unicode=":" horiz-adv-x="344" 
d="M150 391c-10.667 1.33301 -19.5 6.32715 -26.5 14.9941s-9.16699 19.334 -6.5 32.001c0.666992 6.66699 2.83398 12.834 6.50098 18.501s8.16699 10.334 13.5 14.001s11.166 6.33398 17.499 8.00098s12.166 2.16699 17.499 1.5c7.33301 -0.666992 13.333 -2.5 18 -5.5
s8.5 -6.66699 11.5 -11s4.83301 -9.16602 5.5 -14.499s0.333984 -10.666 -0.999023 -15.999c-0.666992 -7.33301 -2.83398 -13.833 -6.50098 -19.5s-8.16699 -10.334 -13.5 -14.001s-11.166 -6.16699 -17.499 -7.5s-12.5 -1.66602 -18.5 -0.999023zM117 41.9941
c0.666992 6.66699 2.83496 12.833 6.50195 18.5s8.16699 10.5 13.5 14.5s11.166 6.66699 17.499 8s12.166 1.66602 17.499 0.999023c7.33301 -0.666992 13.333 -2.5 18 -5.5s8.5 -6.5 11.5 -10.5s4.83301 -8.83301 5.5 -14.5s0.333984 -11.167 -0.999023 -16.5
c-0.666992 -7.33301 -2.83398 -13.833 -6.50098 -19.5s-8.16699 -10.167 -13.5 -13.5s-11.166 -5.83301 -17.499 -7.5s-12.5 -2.16699 -18.5 -1.5c-10.667 1.33301 -19.334 6.33301 -26.001 15s-9 19.334 -7 32.001z" />
    <glyph glyph-name="semicolon" unicode=";" horiz-adv-x="344" 
d="M146 391c-10.667 1.33301 -19.3359 6.32715 -26.0029 14.9941s-9 19.334 -7 32.001c0.666992 6.66699 3 12.834 7 18.501s8.66699 10.334 14 14.001s11 6.33398 17 8.00098s12 2.16699 18 1.5c7.33301 -0.666992 13.333 -2.5 18 -5.5s8.33398 -6.66699 11.001 -11
s4.33398 -9.16602 5.00098 -14.499s0.666992 -10.666 0 -15.999c-0.666992 -7.33301 -3 -13.833 -7 -19.5s-8.66699 -10.334 -14 -14.001s-11.166 -6.16699 -17.499 -7.5s-12.5 -1.66602 -18.5 -0.999023zM112.998 84.9941l40 51c17.333 -4 32.333 -11.5 45 -22.5
s23.167 -23.667 31.5 -38s14.5 -29.333 18.5 -45s6 -30.5 6 -44.5c0 -28 -4.5 -53.667 -13.5 -77s-20.667 -44.333 -35 -63s-30.666 -34.5 -48.999 -47.5s-36.166 -23.167 -53.499 -30.5l-17 22v11c11.333 4 23 10.833 35 20.5s22.667 21.5 32 35.5s17.166 29.5 23.499 46.5
s9.5 34.833 9.5 53.5c0 14.667 -2.16699 28.5 -6.5 41.5s-9.83301 24.333 -16.5 34s-14.334 17.5 -23.001 23.5s-17.667 9.66699 -27 11v18z" />
    <glyph glyph-name="less" unicode="&#x3c;" horiz-adv-x="641" 
d="M67 392l474 251v-67l-410 -209l410 -208v-68l-474 251v50z" />
    <glyph glyph-name="equal" unicode="=" horiz-adv-x="600" 
d="M84 514h432v-54h-432v54zM84 315h432v-54h-432v54z" />
    <glyph glyph-name="greater" unicode="&#x3e;" horiz-adv-x="641" 
d="M101 159l409 208l-409 208v68l473 -251v-49l-473 -252v68z" />
    <glyph glyph-name="question" unicode="?" horiz-adv-x="494" 
d="M224 239c-4.66699 4 -9.8291 9.66309 -15.4961 16.9961s-11.5 15.666 -17.5 24.999s-11.667 19.5 -17 30.5s-10.333 22 -15 33s-8.16699 21.833 -10.5 32.5s-3.5 20.334 -3.5 29.001c0 10 3.66699 19.333 11 28s16.666 16.834 27.999 24.501s24.333 14.834 39 21.501
s29.667 13.334 45 20.001s30.5 13.167 45.5 19.5s28.5 12.833 40.5 19.5s22 13.5 30 20.5s12.333 14.833 13 23.5c0.666992 22.667 -1.66602 44.5 -6.99902 65.5s-13.5 40.667 -24.5 59s-24.167 35 -39.5 50s-32.5 28 -51.5 39s-39.333 19.5 -61 25.5s-44.167 9 -67.5 9
c-6.66699 0 -13.834 -0.166992 -21.501 -0.5s-15.167 -1.16602 -22.5 -2.49902s-14.333 -3 -21 -5s-12.667 -4 -18 -6v57c2 2.66699 6.16699 5.33398 12.5 8.00098s13.833 5 22.5 7s18 3.66699 28 5s19.667 2 29 2c37.333 0 70.833 -4.5 100.5 -13.5
s55.834 -21.167 78.501 -36.5s42 -33.333 58 -54s28.667 -42.334 38 -65.001s15.833 -46 19.5 -70s4.5 -47.333 2.5 -70c0 -14 -5.5 -26.833 -16.5 -38.5s-24.833 -22.5 -41.5 -32.5s-34.834 -19.333 -54.501 -28s-38.334 -17.167 -56.001 -25.5s-32.834 -17 -45.501 -26
s-20.334 -18.5 -23.001 -28.5c-1.33301 -14 -0.666016 -28.167 2.00098 -42.5s6.66699 -28.5 12 -42.5s11.166 -28 17.499 -42s12.5 -28 18.5 -42h-41zM224.005 41.9961c0.666992 6.66699 2.99902 12.833 6.99902 18.5s8.5 10.5 13.5 14.5s10.667 6.66699 17 8
s12.5 1.66602 18.5 0.999023c7.33301 -0.666992 13.333 -2.5 18 -5.5s8.33398 -6.5 11.001 -10.5s4.33398 -8.83301 5.00098 -14.5s0.333984 -11.167 -0.999023 -16.5c-0.666992 -7.33301 -2.83398 -13.833 -6.50098 -19.5s-8.16699 -10.167 -13.5 -13.5
s-11 -5.83301 -17 -7.5s-12.333 -2.16699 -19 -1.5c-10.667 1.33301 -19.334 6.33301 -26.001 15s-9 19.334 -7 32.001z" />
    <glyph glyph-name="at" unicode="@" horiz-adv-x="1041" 
d="M115 202c0 50.667 6.00195 98.3291 18.002 142.996s28.667 85.5 50 122.5s46.666 70 75.999 99s61.833 53.5 97.5 73.5s73.5 35.333 113.5 46s81 16 123 16c46.667 0 90.5 -6.83301 131.5 -20.5s76.5 -33.667 106.5 -60s53.667 -58.5 71 -96.5s26 -81 26 -129
c0 -44.667 -4 -85 -12 -121s-18.833 -68 -32.5 -96s-29.334 -52 -47.001 -72s-36.334 -36.667 -56.001 -50s-39.667 -23 -60 -29s-39.166 -9 -56.499 -9c-14 0 -25 8.5 -33 25.5s-12 42.167 -12 75.5c0.666992 18.667 3 41.667 7 69s8.66699 57.666 14 90.999
c-11.333 -33.333 -24.833 -66 -40.5 -98s-32.834 -60.5 -51.501 -85.5s-38.334 -45.333 -59.001 -61s-42 -23.5 -64 -23.5c-14.667 0 -29.5 4.5 -44.5 13.5s-28.333 22 -40 39s-21.167 37.833 -28.5 62.5s-11 52.334 -11 83.001c0 20.667 2.16699 42.667 6.5 66
s10.833 46.166 19.5 68.499s19.334 43.833 32.001 64.5s27.334 38.834 44.001 54.501s35 28.167 55 37.5s42 14 66 14c11.333 0 23.5 -0.833008 36.5 -2.5s25.833 -4 38.5 -7s24.667 -6.33301 36 -10s21.333 -7.83398 30 -12.501c2.66699 8 5.5 14.333 8.5 19
s7.16699 6.33398 12.5 5.00098l43 -14c-4 -17.333 -8.33301 -38.5 -13 -63.5s-9 -51.333 -13 -79s-7.66699 -55.5 -11 -83.5s-6.33301 -53.667 -9 -77c-2 -17.333 -3.16699 -33.666 -3.5 -48.999s0 -28.666 1 -39.999s2.5 -20.333 4.5 -27s5 -10 9 -10
c12 0 24.667 3.33301 38 10s26.666 16.334 39.999 29.001s26.333 28 39 46s23.667 38.333 33 61s16.833 47.334 22.5 74.001s8.5 55 8.5 85c0 34 -3.83301 64.5 -11.5 91.5s-18.5 51.167 -32.5 72.5s-30.667 39.5 -50 54.5s-40.5 27.5 -63.5 37.5s-47.5 17.333 -73.5 22
s-52.667 7 -80 7c-34.667 0 -68.334 -4.33301 -101.001 -13s-63.667 -21.167 -93 -37.5s-56.166 -36.833 -80.499 -61.5s-45.333 -52.834 -63 -84.501s-31.5 -67 -41.5 -106s-15 -81.167 -15 -126.5c0 -43.333 4.66699 -82.333 14 -117s22 -65.167 38 -91.5
s35.167 -49 57.5 -68s46.666 -34.667 72.999 -47s54.333 -21.333 84 -27s59.834 -8.5 90.501 -8.5c18 0 36.167 1.16699 54.5 3.5s35.5 5.33301 51.5 9s30.667 7.83398 44 12.501s24.333 9.33398 33 14.001l14 -32c-10.667 -8.66699 -24.5 -16.5 -41.5 -23.5
s-35.5 -13 -55.5 -18s-41 -9 -63 -12s-43.333 -4.5 -64 -4.5c-55.333 0 -106.666 9.16699 -153.999 27.5s-88 44.333 -122 78s-60.667 74.167 -80 121.5s-29 100.666 -29 159.999zM360.002 236.995c0 -17.333 1.5 -35.668 4.5 -55.001s7.66699 -37 14 -53
s14.5 -29.167 24.5 -39.5s22 -15.5 36 -15.5c12.667 0 26.167 5.5 40.5 16.5s28.666 25.667 42.999 44s28.166 39.5 41.499 63.5s25.833 49 37.5 75s21.667 52 30 78s14.5 50.333 18.5 73c-5.33301 4.66699 -13.166 9.16699 -23.499 13.5s-21.5 8.33301 -33.5 12
s-24 6.33398 -36 8.00098s-23.333 2.5 -34 2.5c-28 0 -52.167 -6.5 -72.5 -19.5s-37.166 -30 -50.499 -51s-23.333 -44.833 -30 -71.5s-10 -53.667 -10 -81z" />
    <glyph glyph-name="A" unicode="A" horiz-adv-x="729" 
d="M1 33l71 11l263 718h59l255 -718l81 -11v-33h-238v33l82 11l-62 178h-315l-61 -178l85 -11v-33h-220v33zM497 267l-105 299l-36 114l-144 -413h285z" />
    <glyph glyph-name="B" unicode="B" horiz-adv-x="692" 
d="M52 33l86.999 11.9961v669l-85 7v37h117c14.667 0 29.167 0.5 43.5 1.5s29 1.83301 44 2.5s30.833 1.33398 47.5 2.00098s34.667 1 54 1c38.667 0 72.834 -4 102.501 -12s54.5 -19.333 74.5 -34s35.167 -32.5 45.5 -53.5s15.5 -44.833 15.5 -71.5
c0 -22.667 -3 -44.167 -9 -64.5s-15 -38.833 -27 -55.5s-27.5 -31.167 -46.5 -43.5s-41.167 -21.166 -66.5 -26.499c26.667 0 52 -4 76 -12s45.167 -19.833 63.5 -35.5s32.666 -34.667 42.999 -57s15.5 -47.5 15.5 -75.5c0 -33.333 -6.33301 -64.166 -19 -92.499
s-32 -52.833 -58 -73.5s-58.833 -36.667 -98.5 -48s-86.167 -17 -139.5 -17c-14 0 -28.333 0.333008 -43 1s-29.167 1.33398 -43.5 2.00098s-27.666 1.5 -39.999 2.5s-23.5 1.5 -33.5 1.5h-120v33zM209.999 420.996c8.66699 -1.33301 19.667 -2.16406 33 -2.49707
s27 -0.5 41 -0.5h40.5h31.5c24 0 46.5 3.16699 67.5 9.5s39.333 16.166 55 29.499s28 30.166 37 50.499s13.5 44.833 13.5 73.5c0 26 -4.83301 48 -14.5 66s-23 32.667 -40 44s-36.667 19.666 -59 24.999s-45.833 8 -70.5 8h-34c-12.667 0 -25.167 -0.333008 -37.5 -1
s-24 -1.5 -35 -2.5s-20.167 -2.16699 -27.5 -3.5zM210.999 49.998c6 -2 14.5 -3.83105 25.5 -5.49805s23.167 -3.16699 36.5 -4.5s26.666 -2.5 39.999 -3.5s25.333 -1.5 36 -1.5c27.333 0 54.333 2.66699 81 8s50.5 14.666 71.5 27.999s38 31.166 51 53.499
s19.5 50.5 19.5 84.5c0 30 -5 55.5 -15 76.5s-23.833 38 -41.5 51s-38.667 22.333 -63 28s-51.166 8.5 -80.499 8.5h-39h-44.5c-15 0 -29.333 -0.166992 -43 -0.5s-25.167 -0.833008 -34.5 -1.5v-321z" />
    <glyph glyph-name="C" unicode="C" horiz-adv-x="688" 
d="M42 357c0 41.333 5.00195 80.1709 15.002 116.504s23.833 69.666 41.5 99.999s38.5 57.333 62.5 81s50.667 43.667 80 60s60.5 28.833 93.5 37.5s66.833 13 101.5 13c23.333 0 45.166 -1.33301 65.499 -4s38.833 -5.83398 55.5 -9.50098s31.834 -7.5 45.501 -11.5
s25.834 -7.33301 36.501 -10l-7 -134h-40l-18 88c-20 12.667 -43 22.167 -69 28.5s-56 9.5 -90 9.5c-25.333 0 -50.333 -3.33301 -75 -10s-48.167 -16.667 -70.5 -30s-42.666 -29.666 -60.999 -48.999s-34.333 -41.666 -48 -66.999s-24.334 -53.5 -32.001 -84.5
s-11.5 -64.833 -11.5 -101.5c0 -31.333 2.83301 -62 8.5 -92s14.167 -58.167 25.5 -84.5s25.333 -50.333 42 -72s36 -40.334 58 -56.001s46.667 -27.834 74 -36.501s57 -12.667 89 -12c40 0 74.833 5.16699 104.5 15.5s51.834 23.166 66.501 38.499l21 83
c4.66699 0 10.167 -0.166992 16.5 -0.5s12.166 -0.5 17.499 -0.5v-132c-12 -0.666992 -25 -3.33398 -39 -8.00098s-30.833 -9.66699 -50.5 -15s-42.334 -10.333 -68.001 -15s-55.834 -7 -90.501 -7c-50.667 0 -97.334 9.16699 -140.001 27.5s-79.5 44 -110.5 77
s-55.333 72 -73 117s-26.5 94.833 -26.5 149.5z" />
    <glyph glyph-name="D" unicode="D" horiz-adv-x="777" 
d="M52 33l88 11.998v668l-86 8v37h121c18.667 0 36.167 0.333008 52.5 1s32 1.5 47 2.5s29.667 1.83301 44 2.5s29.166 1 44.499 1c62 0 116 -8.16699 162 -24.5s84.5 -40.166 115.5 -71.499s54 -69.833 69 -115.5s22.5 -97.167 22.5 -154.5
c0 -64 -9.66699 -121.167 -29 -171.5s-46.5 -92.833 -81.5 -127.5s-76.667 -61 -125 -79s-101.166 -26.667 -158.499 -26c-12 0 -24.667 0.333008 -38 1s-27 1.33398 -41 2.00098s-28 1.16699 -42 1.5s-27.667 0.5 -41 0.5h-27.5h-34.5h-34.5h-27.5v33zM212 48.998
c22.667 -4 44.835 -7.1709 66.502 -9.50391s44.834 -3.16602 69.501 -2.49902c41.333 0.666992 80.666 7.83398 117.999 21.501s70.166 34.5 98.499 62.5s50.833 63.333 67.5 106s25 93.334 25 152.001c0 58 -7.16699 108.667 -21.5 152s-35 79.5 -62 108.5
s-60 50.333 -99 64s-83.5 19.834 -133.5 18.501c-26.667 -0.666992 -50.834 -1.66699 -72.501 -3s-40.5 -3.33301 -56.5 -6v-664z" />
    <glyph glyph-name="E" unicode="E" horiz-adv-x="644" 
d="M50 33l88 11v669l-86 8v37h506l14 -139h-41l-23 94l-299 6v-297l200 4l12 78h39v-207h-39l-12 82l-200 3v-341l322 8l44 114l36 -9l-22 -154h-539v33z" />
    <glyph glyph-name="F" unicode="F" horiz-adv-x="604" 
d="M51 33l93 12v668l-86 8v37h517l11 -139l-38 -1l-23 93l-309 6v-310l226 4l16 76h38v-205h-42l-12 81l-226 4v-323l151 -8v-36h-316v33z" />
    <glyph glyph-name="G" unicode="G" horiz-adv-x="750" 
d="M42 357c0 62.667 10.334 119.001 31.001 169.001s48.834 92.833 84.501 128.5s77.334 63 125.001 82s98.167 28.5 151.5 28.5c29.333 0 55.5 -1.33301 78.5 -4s43.333 -5.83398 61 -9.50098s33 -7.33398 46 -11.001s24.167 -6.5 33.5 -8.5l-7 -133h-40l-20 86
c-4.66699 4 -12.167 8.16699 -22.5 12.5s-22.833 8.33301 -37.5 12s-31.5 6.66699 -50.5 9s-40.167 3.5 -63.5 3.5c-38 0 -74.667 -7.83301 -110 -23.5s-66.833 -38 -94.5 -67s-49.667 -64.667 -66 -107s-24.5 -90.833 -24.5 -145.5c0 -29.333 2.33301 -58.5 7 -87.5
s12.167 -56.5 22.5 -82.5s23.166 -50 38.499 -72s33.5 -41.167 54.5 -57.5s45 -29.166 72 -38.499s56.833 -14 89.5 -14c15.333 0 31.833 1 49.5 3s34.667 4.83301 51 8.5s31.5 8.5 45.5 14.5s25.667 13.333 35 22v227l-135 7v37h274v-37l-67 -8v-264
c-10.667 -0.666992 -25.334 -3.66699 -44.001 -9s-40 -11.166 -64 -17.499s-50 -12 -78 -17s-56.667 -7.5 -86 -7.5c-50.667 0 -96.834 9.33301 -138.501 28s-77.5 44.5 -107.5 77.5s-53.167 72.167 -69.5 117.5s-24.5 94.666 -24.5 147.999z" />
    <glyph glyph-name="H" unicode="H" horiz-adv-x="833" 
d="M52 33l84 12v669l-81 7v37h232v-37l-79 -7v-326h409v326l-80 7v37h229v-37l-77 -7v-669l85 -12v-33h-240v33l83 11v299h-409v-299l83 -11v-33h-239v33z" />
    <glyph glyph-name="I" unicode="I" horiz-adv-x="372" 
d="M66 33l83 11v670l-81 7v37h235v-37l-82 -7v-670l86 -11v-33h-241v33z" />
    <glyph glyph-name="J" unicode="J" horiz-adv-x="351" 
d="M122 -29c4.66699 14 8.50293 29 11.5029 45s5.16699 33.167 6.5 51.5s2.16602 38 2.49902 59s0.5 44.167 0.5 69.5v518l-86 7v37h246v-37l-88 -7v-482v-115c0 -36 -2.66699 -69.333 -8 -100c-6 -29.333 -16.667 -55.833 -32 -79.5s-33.333 -44.334 -54 -62.001
s-43.334 -32 -68.001 -43s-49.334 -18.167 -74.001 -21.5l-21 29c40 10.667 74.167 27.334 102.5 50.001s48.833 49.667 61.5 81z" />
    <glyph glyph-name="K" unicode="K" horiz-adv-x="692" 
d="M52 33l79.002 11.0029v670l-78 7v37h229v-37l-78 -7v-364l312 363l-78 8c0 5.33301 -0.166992 11.5 -0.5 18.5s-0.5 13.167 -0.5 18.5h225v-37l-78 -8l-245 -276c7.33301 -8 16.666 -19.833 27.999 -35.5s23.666 -33.334 36.999 -53.001s27.5 -40.834 42.5 -63.501
s29.833 -45.167 44.5 -67.5s29 -43.833 43 -64.5s26.833 -38.834 38.5 -54.501s21.667 -28.167 30 -37.5s14.833 -14 19.5 -14l74 -14v-33h-128c-4 0 -10.167 4.66699 -18.5 14s-17.833 21.833 -28.5 37.5s-22.5 33.667 -35.5 54s-26.333 41.666 -40 63.999
s-27.5 44.833 -41.5 67.5s-27.5 43.834 -40.5 63.501s-25.167 37.167 -36.5 52.5s-21.333 27.333 -30 36l-93 -106v-239l86 -11v-33h-238v33z" />
    <glyph glyph-name="L" unicode="L" horiz-adv-x="607" 
d="M52 33l88 12v665l-86 7v41h253v-41l-95 -7l-1 -668l296 9l53 120l33 -16l-32 -155h-509v33z" />
    <glyph glyph-name="M" unicode="M" horiz-adv-x="965" 
d="M38 33l89.998 11l50 666l-98 8v40h201l196 -575l20 -68l22 69l185 574h189v-40l-97 -8l58 -666l95 -11v-33h-257v33l94 11l-43 502l-7 166l-26 -93l-210 -626h-25l-203 573c-3.33301 10 -7.16602 21.167 -11.499 33.5s-8.66602 25 -12.999 38l-13 39
c-4.33301 13 -8.5 24.833 -12.5 35.5l-8 -192l-27 -475l104 -12v-33h-253v33z" />
    <glyph glyph-name="N" unicode="N" horiz-adv-x="811" 
d="M51 33l86 11v666l-83 7v41h159l351 -563l72 -133v648l-85 8v40h223v-40l-85 -8v-710h-79l-347 543l-72 137v-89.5v-110c0 -39 -0.166992 -79 -0.5 -120s-0.5 -80.833 -0.5 -119.5v-109v-88l101 -11v-33h-240v33z" />
    <glyph glyph-name="O" unicode="O" horiz-adv-x="758" 
d="M45 369c1.33301 64 11.498 120.336 30.498 169.003s44.333 89.667 76 123s68.167 58.666 109.5 75.999s85.333 26.666 132 27.999c50 0.666992 95 -8.16602 135 -26.499s74.167 -44.333 102.5 -78s50 -73.834 65 -120.501s21.833 -98 20.5 -154
c-1.33301 -63.333 -11 -119.5 -29 -168.5s-42.167 -90.5 -72.5 -124.5s-65.666 -60 -105.999 -78s-83.5 -27.667 -129.5 -29c-50.667 -0.666992 -96.667 8.16602 -138 26.499s-76.666 44.5 -105.999 78.5s-51.833 74.667 -67.5 122s-23.167 99.333 -22.5 156z
M385.998 27.0029c37.333 0 71.498 8.33496 102.498 25.002s57.5 40.5 79.5 71.5s39.167 68.667 51.5 113s18.5 94.166 18.5 149.499c0 46.667 -5.66699 90.5 -17 131.5s-27.666 76.833 -48.999 107.5s-47.666 54.834 -78.999 72.501s-67.333 26.5 -108 26.5
c-38 0 -72.833 -7.83301 -104.5 -23.5s-59 -38.667 -82 -69s-41 -67.5 -54 -111.5s-19.5 -94.333 -19.5 -151c0 -48 6 -92.833 18 -134.5s29.333 -77.834 52 -108.501s50 -54.834 82 -72.501s68.333 -26.5 109 -26.5z" />
    <glyph glyph-name="P" unicode="P" horiz-adv-x="632" 
d="M42 33l98.002 12v665l-87 7v41h122c10 0 21.5 0.333008 34.5 1s27.167 1.5 42.5 2.5s31.166 1.83301 47.499 2.5s32.833 1 49.5 1c37.333 0 71.666 -3.66699 102.999 -11s58.166 -19.833 80.499 -37.5s39.833 -41 52.5 -70s19 -65.5 19 -109.5c0 -40 -8 -75.333 -24 -106
s-37.167 -56.5 -63.5 -77.5s-56.5 -36.833 -90.5 -47.5s-69 -16 -105 -16c-27.333 0 -49.666 0.166992 -66.999 0.5s-31.333 -0.166992 -42 -1.5v-244l135 -12v-33h-305v33zM212.002 334c18 -2.66699 36.5 -4.16406 55.5 -4.49707s36.167 -0.5 51.5 -0.5
c29.333 0 56.833 3.66699 82.5 11s48.167 19.166 67.5 35.499s34.5 37.666 45.5 63.999s16.5 58.5 16.5 96.5c0 64 -17.5 111.667 -52.5 143s-88.167 46 -159.5 44c-8 0 -16.667 -0.333008 -26 -1s-18.833 -1.33398 -28.5 -2.00098s-19 -1.5 -28 -2.5
s-17.167 -2.5 -24.5 -4.5v-379z" />
    <glyph glyph-name="Q" unicode="Q" horiz-adv-x="758" 
d="M44 369c0.666992 42.667 5.49902 81.834 14.499 117.501s21.167 68 36.5 97s33.666 54.667 54.999 77s44.666 41.166 69.999 56.499s52.5 27 81.5 35s58.833 12.333 89.5 13c50 0.666992 95.167 -8.16602 135.5 -26.499s74.5 -44.333 102.5 -78
s49.5 -73.834 64.5 -120.501s21.833 -98 20.5 -154c-0.666992 -56 -8.33398 -106.5 -23.001 -151.5s-34.334 -84.167 -59.001 -117.5s-53.5 -60.333 -86.5 -81s-68.833 -35 -107.5 -43c6 -18.667 15.333 -34.667 28 -48s27.334 -24.166 44.001 -32.499
s34.334 -14.333 53.001 -18s37.667 -5.5 57 -5.5c16.667 0 32.167 1.66699 46.5 5s25.833 8.33301 34.5 15l7 -48c-2.66699 -4.66699 -7.5 -9 -14.5 -13s-15.333 -7.5 -25 -10.5s-20.667 -5.5 -33 -7.5s-25.5 -3 -39.5 -3c-23.333 0 -45.5 2.83301 -66.5 8.5
s-40.333 14.834 -58 27.501s-33 29.167 -46 49.5s-23.167 45.166 -30.5 74.499l-18 -1c-50.667 -0.666992 -96.667 8.16602 -138 26.499s-76.666 44.5 -105.999 78.5s-51.666 74.667 -66.999 122s-22.666 99.333 -21.999 156zM384.999 27
c37.333 0 71.333 8.33496 102 25.002s57 40.5 79 71.5s39.167 68.667 51.5 113s18.5 94.166 18.5 149.499c0 46.667 -5.5 90.5 -16.5 131.5s-27.333 76.833 -49 107.5s-48.167 54.834 -79.5 72.501s-67 26.5 -107 26.5c-38 0 -73 -7.83301 -105 -23.5
s-59.5 -38.667 -82.5 -69s-41 -67.5 -54 -111.5s-19.5 -94.333 -19.5 -151c0 -48 6 -92.833 18 -134.5s29.333 -77.834 52 -108.501s50.167 -54.834 82.5 -72.501s68.833 -26.5 109.5 -26.5z" />
    <glyph glyph-name="R" unicode="R" horiz-adv-x="692" 
d="M42 33l97.9961 12.002v665l-87 7v41h124c16.667 0 37.667 1.16699 63 3.5s54.333 3.5 87 3.5c37.333 0 71.333 -3.33301 102 -10s57.167 -17.834 79.5 -33.501s39.833 -36.5 52.5 -62.5s19 -58.667 19 -98c0 -25.333 -4.16699 -49.333 -12.5 -72s-20 -43.167 -35 -61.5
s-33 -34.333 -54 -48s-44.5 -24.167 -70.5 -31.5c0.666992 -0.666992 1.33398 -1 2.00098 -1c12 -3.33301 23.5 -10.166 34.5 -20.499s22.167 -22.833 33.5 -37.5s22.333 -30.834 33 -48.501s21 -35.334 31 -53.001s19.5 -34.834 28.5 -51.501s17.5 -31.667 25.5 -45
s15.5 -24.166 22.5 -32.499s13.5 -13.166 19.5 -14.499l59 -11v-33h-125c-5.33301 0 -11.666 4.83301 -18.999 14.5s-15.166 22.5 -23.499 38.5s-17.5 34.167 -27.5 54.5s-20.5 41.166 -31.5 62.499s-22.5 42 -34.5 62s-24.167 37.833 -36.5 53.5s-25.166 28 -38.499 37
s-27 13.167 -41 12.5l2 1c-17.333 -0.666992 -35.333 -1 -54 -1h-56v-291l106 -11v-33h-276v33zM211.996 379.002c5.33301 -0.666992 13.167 -1.16895 23.5 -1.50195s21.166 -0.666016 32.499 -0.999023s22.166 -0.666016 32.499 -0.999023s18.5 -0.5 24.5 -0.5
c29.333 0 55.333 4.33301 78 13s41.334 20.5 56.001 35.5s25.834 33.333 33.501 55s11.5 46.167 11.5 73.5c0 28 -3.33301 53 -10 75s-17.667 40.333 -33 55s-35 25.667 -59 33s-53.667 10.333 -89 9c-8 0 -16.5 -0.166992 -25.5 -0.5l-27 -1
c-9 -0.333008 -17.667 -1 -26 -2s-15.833 -2.5 -22.5 -4.5v-337z" />
    <glyph glyph-name="S" unicode="S" horiz-adv-x="600" 
d="M75 177l35.998 -0.00195312l23 -100c10 -10 22 -18.167 36 -24.5s28.667 -11.333 44 -15s31.166 -6.16699 47.499 -7.5s31.5 -2 45.5 -2c20.667 0 41.5 2.5 62.5 7.5s39.833 13.333 56.5 25s30.167 26.667 40.5 45s15.5 40.833 15.5 67.5
c0 22.667 -5.33301 42.834 -16 60.501s-25 33.667 -43 48s-38.5 27.666 -61.5 39.999s-46.5 24.5 -70.5 36.5c-26 12.667 -51.667 25.834 -77 39.501s-47.833 29 -67.5 46s-35.667 36.167 -48 57.5s-18.5 46 -18.5 74c0 22.667 3.5 43.167 10.5 61.5s16.5 34.5 28.5 48.5
s26 26 42 36s32.667 18.167 50 24.5s35.166 11.166 53.499 14.499s35.833 5 52.5 5c25.333 0 48 -1.33301 68 -4s37.667 -5.83398 53 -9.50098s28.5 -7.83398 39.5 -12.501s20.167 -9 27.5 -13v-130h-33l-29 97c-14 12.667 -33 21.5 -57 26.5s-49 7.5 -75 7.5
c-17.333 0 -35.666 -2.66699 -54.999 -8s-37.166 -13.5 -53.499 -24.5s-29.666 -25.333 -39.999 -43s-15.5 -39.5 -15.5 -65.5c0 -20.667 5 -39.167 15 -55.5s23.333 -31.333 40 -45s35.834 -26.167 57.501 -37.5s44.167 -22.333 67.5 -33
c18 -8.66699 35.833 -17.5 53.5 -26.5s34.834 -18.667 51.501 -29s32.167 -21.166 46.5 -32.499s26.833 -23.666 37.5 -36.999s19 -28.166 25 -44.499s9 -34.166 9 -53.499c0 -36 -6.66699 -66.667 -20 -92s-31.5 -46.333 -54.5 -63s-49.833 -28.834 -80.5 -36.501
s-63 -11.5 -97 -11.5c-24.667 0 -48.834 1.33301 -72.501 4s-45.5 6.16699 -65.5 10.5s-37.5 8.83301 -52.5 13.5s-25.833 9.33398 -32.5 14.001v146z" />
    <glyph glyph-name="T" unicode="T" horiz-adv-x="620" 
d="M154 33l128 12v672l-203 -8l-30 -98l-34 -1l12 148h581l-1 -150l-31 -4l-20 105l-202 8v-672l135 -12v-33h-335v33z" />
    <glyph glyph-name="U" unicode="U" horiz-adv-x="769" 
d="M91 714l-74.998 7.00098v37h233v-37l-85 -8v-400c0 -56 5.66699 -102.5 17 -139.5s27.333 -66.5 48 -88.5s45.167 -37.5 73.5 -46.5s59.5 -13.5 93.5 -13.5c36 0 67.333 6.66699 94 20s48.667 32.833 66 58.5s30 56.834 38 93.501s12 79 12 127v389l-84 8v37h217v-37
l-76 -8v-389c0 -60.667 -6.83301 -112.5 -20.5 -155.5s-32.834 -78 -57.501 -105s-54.334 -46.667 -89.001 -59s-72.667 -18.5 -114 -18.5c-52 0 -96.333 6.83301 -133 20.5s-66.667 34.167 -90 61.5s-40.5 61.666 -51.5 102.999s-16.5 89.666 -16.5 144.999v398z" />
    <glyph glyph-name="V" unicode="V" horiz-adv-x="695" 
d="M70 714l-68 7v37h248v-37l-97 -7l190 -549l29 -92l25 93l167 548l-81 7v37h214v-37l-70 -7l-239 -724h-54z" />
    <glyph glyph-name="W" unicode="W" horiz-adv-x="1025" 
d="M69 714l-67 7v37h244v-37l-97 -7l172 -547l29 -91l27 87l117 462l-26 89l-81 7v37h250v-37l-93 -7l148 -553l23 -88l23 100l143 541l-89 7v37h228v-37l-78 -7l-210 -724h-58l-153 537l-146 -537h-62z" />
    <glyph glyph-name="X" unicode="X" horiz-adv-x="693" 
d="M7 33l87 11l217 342l-207 328l-77 7v37h258v-37l-94 -7l168 -287l171 287l-84 7v37h224v-37l-73 -7l-211 -318l214 -352l88 -11v-33h-269v33l99 11l-183 304l-172 -304l98 -11v-33h-254v33z" />
    <glyph glyph-name="Y" unicode="Y" horiz-adv-x="660" 
d="M206 33l99 12v267l-240 402l-59 7v37h224v-37l-82 -7l172 -309l26 -52l24 52l156 308l-84 8v37h211v-37l-66 -11l-210 -399v-266l103 -12v-33h-274v33z" />
    <glyph glyph-name="Z" unicode="Z" horiz-adv-x="660" 
d="M482 647l58 71l-383 -9l-38 -109l-40 6l14 153h515l12 -33l-427 -605l-62 -79l404 14l56 123l39 -9l-35 -170h-535l-12 34z" />
    <glyph glyph-name="bracketleft" unicode="[" horiz-adv-x="417" 
d="M98 727c0 22.667 0.99707 40.832 2.99707 54.499s5.83301 24.5 11.5 32.5s13.834 13.333 24.501 16s24.334 4 41.001 4c22 0 43.333 -1.66699 64 -5s40.334 -7 59.001 -11v-16v-16h-142v-823l142 -1v-16v-16c-21.333 -4.66699 -42.833 -8.66699 -64.5 -12
s-44.167 -5 -67.5 -5c-14.667 0 -26.667 1.5 -36 4.5s-16.5 8.33301 -21.5 16s-8.5 17.834 -10.5 30.501s-3 29 -3 49v714z" />
    <glyph glyph-name="backslash" unicode="\" horiz-adv-x="398" 
d="M15 781h67l269 -958h-67z" />
    <glyph glyph-name="bracketright" unicode="]" horiz-adv-x="418" 
d="M259 -37l-0.00292969 823.001h-142c0 4.66699 -0.166992 10 -0.5 16s-0.5 11.333 -0.5 16c18.667 4 38.334 7.66699 59.001 11s42 5 64 5c16.667 0 30.334 -1.33301 41.001 -4s18.834 -8 24.501 -16s9.5 -19 11.5 -33s3 -32 3 -54v-714c0 -20 -1 -36.333 -3 -49
s-5.5 -22.834 -10.5 -30.501s-12.167 -13 -21.5 -16s-21.333 -4.5 -36 -4.5c-23.333 0 -45.833 1.66699 -67.5 5s-43.167 7.33301 -64.5 12c0 4.66699 0.166992 10.167 0.5 16.5s0.5 11.5 0.5 15.5z" />
    <glyph glyph-name="asciicircum" unicode="^" horiz-adv-x="629" 
d="M277 748h73l195 -473h-33.5h-32.5l-168 398l-168 -398h-29.5h-29.5z" />
    <glyph glyph-name="underscore" unicode="_" horiz-adv-x="690" 
d="M701 -94v-54h-711v54h711z" />
    <glyph glyph-name="grave" unicode="`" horiz-adv-x="431" 
d="M271 656c-14.667 10 -31.001 21.332 -49.001 33.999s-35.667 25.834 -53 39.501s-33.166 27.5 -47.499 41.5s-25.833 27.333 -34.5 40l52 53l153 -187l-21 -21v0z" />
    <glyph glyph-name="a" unicode="a" horiz-adv-x="559" 
d="M57 152c2 22.667 8.83301 42.666 20.5 59.999s26.5 32.333 44.5 45s38.5 23.334 61.5 32.001s46.667 15.667 71 21s48.333 9.16602 72 11.499s45.834 3.5 66.501 3.5v43c0 27.333 -3.33301 49.833 -10 67.5s-16.167 31.834 -28.5 42.501s-27.333 18 -45 22
s-37.834 6 -60.501 6c-12.667 0 -26.167 -1.16699 -40.5 -3.5s-28.5 -5.66602 -42.5 -9.99902s-27.667 -9 -41 -14s-24.333 -10.5 -33 -16.5l-14 35c12 10 26.667 18.667 44 26s35.333 13.5 54 18.5s36.5 8.66699 53.5 11s31.5 3.5 43.5 3.5c26 0 50.5 -2.5 73.5 -7.5
s43.333 -14.333 61 -28s31.5 -32 41.5 -55s15 -52.5 15 -88.5l-1 -342h64v-27c-9.33301 -4.66699 -21.5 -8.5 -36.5 -11.5s-30.833 -4.5 -47.5 -4.5c-5.33301 0 -10.833 0.333008 -16.5 1s-10.667 2.5 -15 5.5s-7.83301 7.66699 -10.5 14s-4 15.166 -4 26.499v20
c-9.33301 -10.667 -19.5 -20.167 -30.5 -28.5s-23.667 -15.5 -38 -21.5s-30.5 -10.833 -48.5 -14.5s-37.667 -5.5 -59 -5.5c-22 0 -43.167 3.66699 -63.5 11s-38.166 17.833 -53.499 31.5s-27.333 30.5 -36 50.5s-12.334 43.333 -11.001 70zM128 150.999
c0 -20 3 -37.1699 9 -51.5029s14.833 -26.166 26.5 -35.499s25.334 -16.166 41.001 -20.499s33.167 -6.5 52.5 -6.5c17.333 0 33.333 1.83301 48 5.5s27.667 8.33398 39 14.001s21.166 11.5 29.499 17.5s14.833 10.667 19.5 14v41v49.5v53.5v53
c-17.333 0 -36 -0.833008 -56 -2.5s-39.833 -4.5 -59.5 -8.5s-38.5 -9.33301 -56.5 -16s-33.833 -15 -47.5 -25s-24.667 -21.833 -33 -35.5s-12.5 -29.167 -12.5 -46.5z" />
    <glyph glyph-name="b" unicode="b" horiz-adv-x="617" 
d="M105 732l-84 13.001v33l137 14l17 -8v-286c10 8 21 15.833 33 23.5s25.167 14.5 39.5 20.5s29.833 11 46.5 15s34.667 6 54 6c28 0 55 -4.83301 81 -14.5s49 -25.167 69 -46.5s36.167 -48.833 48.5 -82.5s18.5 -75.167 18.5 -124.5c0 -42.667 -6.66699 -82.667 -20 -120
s-32 -70 -56 -98s-53 -50.167 -87 -66.5s-71.667 -24.5 -113 -24.5c-23.333 0 -45.333 1.33301 -66 4s-39.167 6 -55.5 10s-30 8.16699 -41 12.5s-18.167 8.16602 -21.5 11.499v708zM175 65.001c2.66699 -6.66699 8.00098 -12.335 16.001 -17.002s17.5 -8.66699 28.5 -12
s23.333 -5.66602 37 -6.99902s27.5 -2 41.5 -2c24.667 0 48.834 5.16699 72.501 15.5s44.5 25.833 62.5 46.5s32.833 46.667 44.5 78s17.5 68.333 17.5 111s-4.66699 79 -14 109s-22.333 54 -39 72s-35.5 31.167 -56.5 39.5s-43.167 12.5 -66.5 12.5
c-14 0 -27.833 -1.5 -41.5 -4.5s-26.834 -6.83301 -39.501 -11.5s-24.334 -10.167 -35.001 -16.5s-20 -13.166 -28 -20.499v-393z" />
    <glyph glyph-name="c" unicode="c" horiz-adv-x="513" 
d="M52 263c0 44.667 6.66797 85.0039 20.001 121.004s32 67 56 93s52.167 46.167 84.5 60.5s67.166 22.166 104.499 23.499c13.333 0 27 -0.333008 41 -1s27.333 -2 40 -4s24.167 -4.66699 34.5 -8s18.833 -7 25.5 -11v-105h-36l-20 63
c-11.333 8.66699 -25.166 14.5 -41.499 17.5s-32.833 4.5 -49.5 4.5c-25.333 0 -49.333 -4.83301 -72 -14.5s-42.834 -23.667 -60.501 -42s-31.667 -41.333 -42 -69s-15.5 -59.5 -15.5 -95.5c0 -46.667 5.33301 -86.167 16 -118.5s25.167 -58.5 43.5 -78.5
s39 -34.667 62 -44c22.333 -9.33301 45.5 -14 69.5 -14c11.333 0 24 0.833008 38 2.5s27.833 4.16699 41.5 7.5s26.5 7.16602 38.5 11.499s21.667 9.5 29 15.5l14 -35c-9.33301 -8.66699 -21 -16.167 -35 -22.5s-29.333 -11.833 -46 -16.5s-34.167 -8.16699 -52.5 -10.5
s-36.5 -3.5 -54.5 -3.5c-37.333 0 -70.333 6.83301 -99 20.5s-53 32.667 -73 57s-35.167 53.166 -45.5 86.499s-15.5 69.666 -15.5 108.999z" />
    <glyph glyph-name="d" unicode="d" horiz-adv-x="619" 
d="M268 -12c-28 0 -55.168 5.49805 -81.501 16.498s-49.5 27.667 -69.5 50s-35.833 50.833 -47.5 85.5s-17.5 76 -17.5 124c0 43.333 7.33301 83.333 22 120s34.667 68.334 60 95.001s55 47.334 89 62.001s70.333 22 109 22c14.667 0 27.667 -0.666992 39 -2
s21.5 -3.16602 30.5 -5.49902s16.833 -4.83301 23.5 -7.5s12.334 -4.66699 17.001 -6v189l-100 12v33l152 16l19 -10v-747h66v-30c-5.33301 -2 -11.666 -4 -18.999 -6s-15.166 -3.83301 -23.499 -5.5s-16.5 -2.83398 -24.5 -3.50098s-15.333 -1 -22 -1
c-6 0 -11.833 0.333008 -17.5 1s-10.5 2.5 -14.5 5.5s-7.16699 7.33301 -9.5 13s-3.5 13.5 -3.5 23.5v14c-6.66699 -6 -15.334 -12.167 -26.001 -18.5s-23.334 -12.5 -38.001 -18.5s-31.5 -11 -50.5 -15s-39.833 -6 -62.5 -6zM294.999 39.998
c20 0 38.666 1.66602 55.999 4.99902c23.333 4.66699 42.333 11.334 57 20.001s26 16.667 34 24v391c-3.33301 3.33301 -7.66602 7.5 -12.999 12.5s-12.333 9.5 -21 13.5s-19.834 7.5 -33.501 10.5s-30.5 4.5 -50.5 4.5c-24 0 -47.833 -4.5 -71.5 -13.5s-45 -23.333 -64 -43
s-34.5 -44.667 -46.5 -75s-18.333 -66.5 -19 -108.5c-0.666992 -40.667 3.33301 -76.167 12 -106.5s20.834 -55.5 36.501 -75.5s34.167 -34.833 55.5 -44.5s44 -14.5 68 -14.5z" />
    <glyph glyph-name="e" unicode="e" horiz-adv-x="559" 
d="M50 271c0 41.333 6.66895 79.832 20.002 115.499s31.833 66.5 55.5 92.5s52 46.333 85 61s68.833 22 107.5 22c28 0 53.5 -4.33301 76.5 -13s42.667 -21.667 59 -39s29 -38.666 38 -63.999s13.833 -54.333 14.5 -87c0.666992 -16.667 0.5 -31.334 -0.5 -44.001
s-2.5 -24.334 -4.5 -35.001h-379v-5c-0.666992 -40.667 4.16602 -75.834 14.499 -105.501s24.5 -54.167 42.5 -73.5s39 -33.666 63 -42.999s49.667 -14 77 -14c15.333 0 31 1 47 3s31.167 4.83301 45.5 8.5s27.333 7.83398 39 12.501s20.834 9.33398 27.501 14.001l15 -34
c-9.33301 -8.66699 -21.5 -16.334 -36.5 -23.001s-31.5 -12.334 -49.5 -17.001s-36.833 -8.33398 -56.5 -11.001s-38.834 -4 -57.501 -4c-39.333 0 -74 6.83301 -104 20.5s-55.333 32.834 -76 57.501s-36.334 54.334 -47.001 89.001s-16 73.334 -16 116.001z
M432.002 323.999c1.33301 20.667 1.33691 40.333 0.00390625 59s-4.5 36 -9.5 52s-12.167 30.167 -21.5 42.5s-21 22.166 -35 29.499c-18.667 10 -40.667 15 -66 15c-22.667 0 -43.834 -4.16699 -63.501 -12.5s-37.334 -20.666 -53.001 -36.999
s-28.834 -36.833 -39.501 -61.5s-17.334 -53.667 -20.001 -87h308z" />
    <glyph glyph-name="f" unicode="f" horiz-adv-x="408" 
d="M58 33l100.001 9v444h-111v30l111 21v51c0 36.667 6 69.334 18 98.001s27.5 53.167 46.5 73.5s40 35.666 63 45.999s45.167 15.5 66.5 15.5c10 0 18.667 -0.166992 26 -0.5s13.666 -0.833008 18.999 -1.5s10 -1.5 14 -2.5s7.66699 -2.16699 11 -3.5v-63
c-6 3.33301 -16 6.5 -30 9.5s-32 4.5 -54 4.5c-14 0 -27.5 -1.83301 -40.5 -5.5s-24.667 -10.834 -35 -21.501s-18.5 -25.667 -24.5 -45s-9 -44.666 -9 -75.999v-79h159v-51h-159v-445l117 -8v-33h-288v33z" />
    <glyph glyph-name="g" unicode="g" horiz-adv-x="587" 
d="M62 -117c0 15.333 2.8291 30.166 8.49609 44.499s12.667 27.5 21 39.5s17.5 22.5 27.5 31.5s19 16.167 27 21.5c-12.667 4.66699 -22.334 10.334 -29.001 17.001s-11.5 13.667 -14.5 21s-4.66699 14.666 -5 21.999s-0.5 14.333 -0.5 21s1.16699 14.667 3.5 24
s6 19.166 11 29.499s11.167 20.833 18.5 31.5s15.666 20.334 24.999 29.001c-26 14.667 -46.667 34.5 -62 59.5s-23 56.167 -23 93.5c0 33.333 6.33301 62.333 19 87s29.334 45.167 50.001 61.5s44.334 28.666 71.001 36.999s54 12.833 82 13.5
c26.667 0.666992 51.667 -2 75 -8s44.333 -15.333 63 -28c7.33301 6.66699 17.833 12 31.5 16s31.834 6 54.501 6h58v-57h-11.5h-26c-10.333 0 -21.833 0.166992 -34.5 0.5s-24.667 0.5 -36 0.5c10 -14 17.833 -30.167 23.5 -48.5s8.5 -39.166 8.5 -62.499
c0 -32 -5.83301 -60.333 -17.5 -85s-27.5 -45.667 -47.5 -63s-43.167 -30.333 -69.5 -39s-53.833 -13 -82.5 -13c-38.667 0 -73 6 -103 18c-3.33301 -6 -6.16602 -12.333 -8.49902 -19s-4.16602 -13.5 -5.49902 -20.5s-2.16602 -13.667 -2.49902 -20
s-0.5 -11.833 -0.5 -16.5c0 -22.667 5.66699 -38.834 17 -48.501s30.333 -15.167 57 -16.5c4.66699 -0.666992 12 -1 22 -1h32.5h36h32.5c30 0 55.833 -2.33301 77.5 -7s39.667 -10.667 54 -18s25.833 -15.666 34.5 -24.999s15.167 -19.333 19.5 -30s7 -21.167 8 -31.5
s1.5 -20.5 1.5 -30.5c0 -28 -6.16699 -53 -18.5 -75s-29.666 -40.667 -51.999 -56s-49 -27.166 -80 -35.499s-65.167 -12.5 -102.5 -12.5c-30.667 0 -60.334 2.33301 -89.001 7s-54 12.5 -76 23.5s-39.667 25.5 -53 43.5s-20 40.667 -20 68zM292.996 227
c42 0 75.167 12.0029 99.5 36.0029s36.5 61 36.5 111c0 52.667 -12.5 91.334 -37.5 116.001s-61.833 37 -110.5 37c-18.667 0 -36.667 -2.66699 -54 -8s-32.5 -13.833 -45.5 -25.5s-23.333 -26.834 -31 -45.501s-11.5 -41.334 -11.5 -68.001c0 -22 3.16699 -42.333 9.5 -61
s15.833 -34.834 28.5 -48.501s28.5 -24.334 47.5 -32.001s41.833 -11.5 68.5 -11.5zM130.996 -93.9971c0 -24.667 5.66797 -45 17.001 -61s25.666 -28.5 42.999 -37.5s36.5 -15.167 57.5 -18.5s41.5 -5 61.5 -5c26 0 50.167 2.16699 72.5 6.5s42 11.333 59 21
s30.333 22 40 37s14.5 32.833 14.5 53.5c0 14.667 -2 28.167 -6 40.5s-11.333 22.833 -22 31.5s-26 15.5 -46 20.5s-46 7.83301 -78 8.5h-83c-35.333 0 -64 2.66699 -86 8c-5.33301 -5.33301 -10.833 -11.333 -16.5 -18s-10.5 -14.167 -14.5 -22.5
s-7.16699 -17.833 -9.5 -28.5s-3.5 -22.667 -3.5 -36z" />
    <glyph glyph-name="h" unicode="h" horiz-adv-x="685" 
d="M64 33l74.0039 9.00293v688l-83 12v34l134 16l19 -10v-230l-1 -72c14 11.333 29.833 21.666 47.5 30.999s35.667 17.5 54 24.5s36.166 12.5 53.499 16.5s32.666 6 45.999 6c33.333 0 60.666 -4.83301 81.999 -14.5s38.5 -24.834 51.5 -45.501s21.833 -47.667 26.5 -81
s7 -73.666 7 -120.999v-254l75 -9v-33h-227v33l81 9v226c0 42 -1.5 77.833 -4.5 107.5s-9.16699 54 -18.5 73s-22.333 32.833 -39 41.5s-38.334 13 -65.001 13c-12 0 -25.5 -1.33301 -40.5 -4s-30 -6.33398 -45 -11.001s-29.667 -10.334 -44 -17.001s-27.5 -14 -39.5 -22
v-407l77 -9v-33h-221v33z" />
    <glyph glyph-name="i" unicode="i" horiz-adv-x="333" 
d="M166 691c-6 0 -12 1.00098 -18 3.00098s-11.167 5.16699 -15.5 9.5s-7.83301 9.33301 -10.5 15s-4 12.167 -4 19.5c0 8 1.66699 15.5 5 22.5s7.66602 13 12.999 18s11.5 8.83301 18.5 11.5s13.833 4 20.5 4c16.667 0 29 -4.5 37 -13.5s12 -20.167 12 -33.5
c0 -8.66699 -1.66699 -16.5 -5 -23.5s-7.66602 -12.833 -12.999 -17.5s-11.5 -8.33398 -18.5 -11.001s-14.167 -4 -21.5 -4zM68 33.001l81 8v433l-70 25v24l119 30l19 -9v-502l81 -9v-33h-230v33z" />
    <glyph glyph-name="j" unicode="j" horiz-adv-x="317" 
d="M165 688c-6 0 -12.002 1 -18.002 3s-11.167 5 -15.5 9s-8 9 -11 15s-4.5 12.667 -4.5 20c0 8 1.66699 15.5 5 22.5s7.83301 13 13.5 18s12 8.83301 19 11.5s13.833 4 20.5 4c16.667 0 28.834 -4.66699 36.501 -14s11.5 -20.666 11.5 -33.999
c0 -8.66699 -1.66699 -16.334 -5 -23.001s-7.66602 -12.5 -12.999 -17.5s-11.333 -8.66699 -18 -11s-13.667 -3.5 -21 -3.5zM147.998 474l-74.001 25.002v24l124 30l19 -9v-552c0 -38 -3.66699 -72 -11 -102s-18.166 -55.5 -32.499 -76.5s-32 -37 -53 -48
s-45.167 -16.5 -72.5 -16.5c-3.33301 0 -7.66602 0.166992 -12.999 0.5l-16 1c-5.33301 0.333008 -10.333 1 -15 2s-7.66699 2.16699 -9 3.5v51c2.66699 -0.666992 6.5 -1.33398 11.5 -2.00098s10.167 -1.33398 15.5 -2.00098s10.333 -1 15 -1h12
c15.333 0 29.166 3 41.499 9s22.833 16.5 31.5 31.5s15.167 35.167 19.5 60.5s6.5 57.333 6.5 96v475z" />
    <glyph glyph-name="k" unicode="k" horiz-adv-x="622" 
d="M59 33l79 9v688l-86 12v34l140 16l17 -10v-409l-2 -109l248 241l-73 6v40h214v-39l-75 -7l-182 -174l219 -289l72 -9v-33h-223v33l72 9l-183 253l-89 -84l2 -115v-54l76 -9v-33h-226v33z" />
    <glyph glyph-name="l" unicode="l" horiz-adv-x="340" 
d="M67 33l81 9v688l-79 12v34l133 16l17 -10v-741l86 -8v-33h-238v33z" />
    <glyph glyph-name="m" unicode="m" horiz-adv-x="1010" 
d="M68 33l69.002 9.00098v431l-72 26v25l117 29l17 -9v-67c11.333 9.33301 25.333 18.5 42 27.5s34.167 17.333 52.5 25s37.166 14 56.499 19s37.333 7.5 54 7.5c35.333 0.666992 63.666 -4.33301 84.999 -15s37.666 -28.334 48.999 -53.001c10.667 8 24.167 16 40.5 24
s33.5 15.167 51.5 21.5s36.333 11.5 55 15.5s36 6.33301 52 7c30 0.666992 55.5 -2.83301 76.5 -10.5s37.833 -20.667 50.5 -39s21.834 -42.666 27.501 -72.999s8.5 -67.166 8.5 -110.499v-281l82 -9v-33h-222v33l70 9v269c0 33.333 -1.66699 62.166 -5 86.499
s-9.5 44.5 -18.5 60.5s-21.667 27.667 -38 35s-37.833 10.666 -64.5 9.99902c-13.333 0 -26.666 -1.5 -39.999 -4.5s-26.666 -6.66699 -39.999 -11s-26.333 -9.33301 -39 -15s-24.334 -11.5 -35.001 -17.5c3.33301 -15.333 6.16602 -34.333 8.49902 -57s3.5 -46 3.5 -70
v-286l77 -9v-33h-222v33l75 9v278c0 32.667 -1.5 60.5 -4.5 83.5s-8.66699 42 -17 57s-20.5 25.833 -36.5 32.5s-37 9.66699 -63 9c-12 0 -24.833 -1.5 -38.5 -4.5s-27.667 -7.16699 -42 -12.5s-28.5 -11.5 -42.5 -18.5s-27.333 -14.833 -40 -23.5v-126v-38v-45.5v-50.5
v-51.5v-48.5v-41l77 -9v-33h-217v33z" />
    <glyph glyph-name="n" unicode="n" horiz-adv-x="681" 
d="M67 33l69.9971 9v431l-72 26v24l116 30l18 -9v-67c11.333 8.66699 25.166 17.667 41.499 27s33.833 17.833 52.5 25.5s37.834 14.167 57.501 19.5s37.834 8.33301 54.501 9c30.667 0.666992 56.667 -2.83301 78 -10.5s38.5 -20.834 51.5 -39.501s22.5 -43 28.5 -73
s9 -67 9 -111v-282l79 -9v-33h-225v33l75 9v273c0 34.667 -2 64.167 -6 88.5s-11 44 -21 59s-23.167 25.833 -39.5 32.5s-36.5 9.33398 -60.5 8.00098c-12.667 -0.666992 -26.167 -2.5 -40.5 -5.5s-28.666 -7.16699 -42.999 -12.5s-28.666 -11.5 -42.999 -18.5
s-27.5 -14.833 -39.5 -23.5v-401l77 -9v-33h-218v33z" />
    <glyph glyph-name="o" unicode="o" horiz-adv-x="601" 
d="M51 284c0.666992 42.667 8.16797 81.1699 22.501 115.503s33.333 63.5 57 87.5s51 42.5 82 55.5s63.5 19.5 97.5 19.5c28 0 53.667 -3.33301 77 -10s44 -16.334 62 -29.001s33.333 -27.667 46 -45s23.167 -36.5 31.5 -57.5s14.5 -43.333 18.5 -67s6 -47.5 6 -71.5
c0 -42.667 -6.66699 -82.167 -20 -118.5s-31.333 -67.333 -54 -93s-49.334 -45.834 -80.001 -60.501s-64 -22 -100 -22c-30 0 -56.833 3.83301 -80.5 11.5s-44.667 18.167 -63 31.5s-34 29.166 -47 47.499s-23.667 38.5 -32 60.5s-14.333 45.333 -18 70s-5.5 49.667 -5.5 75
zM301.001 31.0029c28 -0.666992 52.834 4.33008 74.501 14.9971s40 26.334 55 47.001s26.333 46.5 34 77.5s11.5 66.5 11.5 106.5c0 32.667 -3.16699 63.834 -9.5 93.501s-16.333 55.667 -30 78s-31.334 40 -53.001 53s-47.834 19.833 -78.501 20.5
c-28 0 -53.167 -5 -75.5 -15s-41.166 -25.167 -56.499 -45.5s-27 -45.166 -35 -74.499s-12 -62.333 -12 -99c0 -34 3.33301 -66.5 10 -97.5s17 -58.167 31 -81.5s32.167 -42 54.5 -56s48.833 -21.333 79.5 -22z" />
    <glyph glyph-name="p" unicode="p" horiz-adv-x="646" 
d="M205 -127l-0.00195312 -81.001l112 -9v-33h-258v33l75 10v680l-71 26v24l115 30l19 -10v-54c8.66699 8.66699 19.334 17.334 32.001 26.001s26.667 16.5 42 23.5s32.166 12.667 50.499 17s37.5 6.5 57.5 6.5c27.333 0 54 -4.83301 80 -14.5s49 -25.334 69 -47.001
s36 -49.667 48 -84s18 -76.166 18 -125.499c0 -42 -6.66699 -81.5 -20 -118.5s-32.166 -69.167 -56.499 -96.5s-53.5 -48.833 -87.5 -64.5s-71.333 -23.5 -112 -23.5c-20.667 0 -40.667 1.83301 -60 5.5s-37.666 9.5 -54.999 17.5zM204.998 73.999
c7.33301 -13.333 21.334 -24.168 42.001 -32.501s46 -12.833 76 -13.5c25.333 0 50 4.83301 74 14.5s45.333 24.834 64 45.501s33.667 47.167 45 79.5s17.333 70.833 18 115.5c0 40.667 -4.5 75.5 -13.5 104.5s-21.5 52.833 -37.5 71.5s-34.5 32.5 -55.5 41.5
s-43.167 13.5 -66.5 13.5c-18.667 0 -35.834 -2.16699 -51.501 -6.5s-29.667 -9.66602 -42 -15.999s-23 -12.833 -32 -19.5s-16.167 -12.334 -21.5 -17.001l1 -192v-189z" />
    <glyph glyph-name="q" unicode="q" horiz-adv-x="606" 
d="M266 -14c-12.667 0 -26.833 1.50293 -42.5 4.50293s-31.5 8.16699 -47.5 15.5s-31.5 17.666 -46.5 30.999s-28.333 30.166 -40 50.499s-21 45.166 -28 74.499s-10.5 63.666 -10.5 102.999c0 42 7 81.167 21 117.5s33.667 67.833 59 94.5s55.5 47.667 90.5 63
s73.167 23 114.5 23c22 0 43.167 -2.16699 63.5 -6.5s37.833 -10.166 52.5 -17.499l42 16l18 -8v-752l71 -8v-37h-251v37l109 9v181l2 73c-6.66699 -5.33301 -15 -11.666 -25 -18.999s-22.333 -14.333 -37 -21s-31.5 -12.334 -50.5 -17.001s-40.5 -7 -64.5 -7z
M291.001 38.0029c20 0 38.1699 1.66895 54.5029 5.00195s30.666 7.66602 42.999 12.999s22.833 11 31.5 17s15.667 11.667 21 17v392c-8 8 -16.5 14.667 -25.5 20s-18.5 9.5 -28.5 12.5s-20.333 5 -31 6s-21.334 1.5 -32.001 1.5c-25.333 0 -50 -4.83301 -74 -14.5
s-45.5 -24.5 -64.5 -44.5s-34.333 -45.5 -46 -76.5s-17.834 -67.833 -18.501 -110.5c-0.666992 -38.667 3 -72.834 11 -102.501s19.333 -54.5 34 -74.5s32.667 -35.167 54 -45.5s45 -15.5 71 -15.5z" />
    <glyph glyph-name="r" unicode="r" horiz-adv-x="450" 
d="M52 33l85.9961 8.99902v431l-72 26v24l115 30l19 -9v-68c6.66699 8.66699 16.834 17.667 30.501 27s29 18 46 26s34.667 14.5 53 19.5s35.833 7.5 52.5 7.5c10.667 0 20.5 -0.166992 29.5 -0.5s15.5 -1.16602 19.5 -2.49902v-75
c-9.33301 3.33301 -19.666 6.33301 -30.999 9s-27 4 -47 4c-15.333 0 -30.166 -1.5 -44.499 -4.5s-27.666 -6.66699 -39.999 -11s-23.5 -9 -33.5 -14s-19 -9.83301 -27 -14.5v-405l148 -9v-33h-304v33z" />
    <glyph glyph-name="s" unicode="s" horiz-adv-x="511" 
d="M78 136l34.998 -0.000976562l15 -66c16.667 -14 35 -24 55 -30s41.333 -9.33301 64 -10c20 -0.666992 38.5 0.666016 55.5 3.99902s31.833 9 44.5 17s22.667 18.667 30 32s11 29 11 47c0 17.333 -4.5 32 -13.5 44s-20.667 22.667 -35 32s-30.5 17.833 -48.5 25.5
s-36 15.5 -54 23.5c-19.333 8.66699 -38.333 18 -57 28s-35 21.5 -49 34.5s-25.333 27.667 -34 44s-12.667 35.166 -12 56.499c0 24.667 6 46 18 64s27.167 32.833 45.5 44.5s38.666 20.5 60.999 26.5s44.5 9 66.5 9c16 0 31.667 -0.833008 47 -2.5
s29.833 -4.16699 43.5 -7.5s25.834 -7.16602 36.501 -11.499s19.334 -8.83301 26.001 -13.5v-98h-33l-17 61c-10.667 10 -24.5 18.167 -41.5 24.5s-36.5 9.5 -58.5 9.5c-20 0 -37.667 -2.16699 -53 -6.5s-28.5 -10.666 -39.5 -18.999s-19.333 -18.166 -25 -29.499
s-8.5 -24 -8.5 -38c0 -16 3.5 -29.667 10.5 -41s16.833 -21.666 29.5 -30.999s27.334 -18 44.001 -26s34.334 -16.333 53.001 -25c12 -5.33301 24.5 -10.833 37.5 -16.5s25.5 -11.834 37.5 -18.501s23.667 -14 35 -22s21 -17.167 29 -27.5s14.5 -21.833 19.5 -34.5
s7.5 -27 7.5 -43c0 -26 -5.33301 -48.833 -16 -68.5s-25.167 -36.167 -43.5 -49.5s-40.333 -23.333 -66 -30s-53.167 -10 -82.5 -10s-58.833 3.5 -88.5 10.5s-56.834 17.5 -81.501 31.5v106z" />
    <glyph glyph-name="t" unicode="t" horiz-adv-x="420" 
d="M133 498l-78.002 -0.000976562v29c14 2.66699 25.667 4.66699 35 6s17.166 3 23.499 5s11.5 4.66699 15.5 8s8 8.33301 12 15c2 4 4.16699 11.167 6.5 21.5s4.83301 21.333 7.5 33s4.83398 23.167 6.50098 34.5s2.83398 20.333 3.50098 27h37v-132h183v-47h-183v-294
c0 -32.667 0.833008 -59.667 2.5 -81s4.66699 -38.166 9 -50.499s10.666 -20.833 18.999 -25.5s19.833 -7 34.5 -7c12 0 23.5 1.16699 34.5 3.5s21.667 5.16602 32 8.49902s19.333 6.83301 27 10.5s13.5 6.83398 17.5 9.50098l12 -35c-7.33301 -8 -17.166 -15 -29.499 -21
s-25.5 -11 -39.5 -15s-28.167 -7.16699 -42.5 -9.5s-26.833 -3.5 -37.5 -3.5c-17.333 0 -32.833 2.5 -46.5 7.5s-25.167 13 -34.5 24s-16.166 25 -20.499 42s-6.5 38.167 -6.5 63.5v373z" />
    <glyph glyph-name="u" unicode="u" horiz-adv-x="630" 
d="M104 497l-50.001 9.00195v30l105 20l15 -9v-336c0 -30 1.5 -55.667 4.5 -77s8.66699 -39 17 -53s20.166 -24.167 35.499 -30.5s35.333 -9.5 60 -9.5c18.667 0 36.834 2.5 54.501 7.5s33.667 11.167 48 18.5s26.666 14.666 36.999 21.999s17.833 13.333 22.5 18v385
l-61 10v32l117 22l14 -9v-512h61v-30c-4.66699 -2 -10.167 -4 -16.5 -6s-13.166 -3.83301 -20.499 -5.5s-14.666 -3 -21.999 -4s-14 -1.5 -20 -1.5c-14.667 0 -25.834 3 -33.501 9s-11.5 15.333 -11.5 28v44c-32 -26.667 -64.5 -46.5 -97.5 -59.5s-66.167 -19.5 -99.5 -19.5
c-25.333 0 -47 2.66699 -65 8s-32.833 13 -44.5 23s-20.667 22 -27 36s-11.166 29.667 -14.499 47s-5.5 36.166 -6.5 56.499s-1.5 41.833 -1.5 64.5v272z" />
    <glyph glyph-name="v" unicode="v" horiz-adv-x="580" 
d="M54 499l-53 8v39h204v-39l-71 -8l126 -306l46 -133l45 129l111 309l-69 8v40h188v-39l-58 -9l-200 -510h-51z" />
    <glyph glyph-name="w" unicode="w" horiz-adv-x="826" 
d="M58 499l-57 7v40h206v-40l-77 -8l112 -360l19 -78l17 78l113 408h62l114 -408l21 -82l20 79l96 364l-67 7v40h188v-39l-63 -9l-147 -510h-67l-115 396l-16 78l-20 -78l-110 -396h-61z" />
    <glyph glyph-name="x" unicode="x" horiz-adv-x="570" 
d="M9 33l73.002 8.99902l168 224l-173 233l-75 7v40h234v-40l-76 -6l108 -159l27 -40l25 39l109 160l-71 6v40h203v-40l-73 -7l-169 -226l174 -231l74 -9v-33h-235v33l78 8c-14 20.667 -27 39.834 -39 57.501s-22.833 33.167 -32.5 46.5s-17.334 24 -23.001 32
s-8.83398 12.667 -9.50098 14l-33 45l-22 -37l-108 -158l89 -8v-33h-223v33z" />
    <glyph glyph-name="y" unicode="y" horiz-adv-x="561" 
d="M73 -184c5.33301 -1.33301 11.835 -2.66797 19.502 -4.00098s14.167 -2 19.5 -2c12 0 25.333 2.16699 40 6.5s29.5 13.166 44.5 26.499s29.833 31.666 44.5 54.999s27.667 53.333 39 90h-13l-205 511l-61 7v40h220v-40l-81 -7l125 -342l44 -124l33 116l108 351l-80 6v40
h202v-40l-61 -6c-21.333 -64 -40 -120.167 -56 -168.5s-30 -90.5 -42 -126.5s-22.333 -66.5 -31 -91.5s-16 -46 -22 -63s-10.833 -30.667 -14.5 -41s-6.83398 -18.833 -9.50098 -25.5c-12.667 -32.667 -25.5 -62.167 -38.5 -88.5s-26.667 -49.166 -41 -68.499
s-29.833 -35.166 -46.5 -47.499s-35.334 -21.166 -56.001 -26.499c-12.667 -3.33301 -26.667 -4.66602 -42 -3.99902c-3.33301 0 -7 0.166992 -11 0.5s-7.83301 0.666016 -11.5 0.999023s-7 1 -10 2s-5.16699 2.16699 -6.5 3.5v60v0z" />
    <glyph glyph-name="z" unicode="z" horiz-adv-x="526" 
d="M81 84l282.001 376l42 51l-280 -8l-24 -92h-35l1 135h410l11 -32l-312 -415l-49 -61l305 9l27 88c5.33301 0 11.666 -0.166992 18.999 -0.5s14 -0.5 20 -0.5l-9 -134h-432l-14 34z" />
    <glyph glyph-name="braceleft" unicode="{" horiz-adv-x="494" 
d="M169 281c0 6 -4.33887 12.832 -13.0059 20.499s-19.5 15 -32.5 22s-26.667 13.5 -41 19.5s-27.166 10.333 -38.499 13v47c10.667 2.66699 23.334 6.66699 38.001 12s28.334 11 41.001 17s23.5 12.5 32.5 19.5s13.5 13.833 13.5 20.5v256c0 22 1 40 3 54s6 24.833 12 32.5
s14.167 13 24.5 16s24.166 4.5 41.499 4.5c13.333 0 25.333 -0.5 36 -1.5s20.834 -2.33301 30.501 -4s19 -3.5 28 -5.5s18.5 -4 28.5 -6c0 -4.66699 -0.166992 -10 -0.5 -16s-0.5 -11.333 -0.5 -16h-142v-313c0 -13.333 -3.66699 -24.166 -11 -32.499
s-16.666 -16.166 -27.999 -23.499c-12.667 -7.33301 -25 -13.833 -37 -19.5s-25 -11.834 -39 -18.501c15.333 -7.33301 29.833 -14.5 43.5 -21.5s26.834 -15.167 39.501 -24.5c9.33301 -7.33301 17 -15.333 23 -24s9 -18.334 9 -29.001v-317h142
c0 -4.66699 0.166992 -10.167 0.5 -16.5s0.5 -11.833 0.5 -16.5c-10.667 -2 -20.834 -4.16699 -30.501 -6.5s-19.667 -4.16602 -30 -5.49902s-21.166 -2.5 -32.499 -3.5s-23.666 -1.5 -36.999 -1.5c-15.333 0 -27.833 1.5 -37.5 4.5s-17.167 8.33301 -22.5 16
s-9 18.667 -11 33s-3 32.5 -3 54.5v260z" />
    <glyph glyph-name="bar" unicode="|" horiz-adv-x="426" 
d="M175 869h64v-960h-64v960z" />
    <glyph glyph-name="braceright" unicode="}" horiz-adv-x="469" 
d="M239 -37l-0.00195312 316.999c0 10.667 3 20.167 9 28.5s13.667 16.5 23 24.5c13.333 9.33301 26.666 17.5 39.999 24.5s27.666 14.167 42.999 21.5c-14 6.66699 -27.167 12.834 -39.5 18.501s-24.5 12.167 -36.5 19.5c-11.333 7.33301 -20.666 15.333 -27.999 24
s-11 19.334 -11 32.001v313h-142v16v16c10 2 19.5 4 28.5 6s18.167 3.83301 27.5 5.5s19.5 3 30.5 4s23.167 1.5 36.5 1.5c16.667 0 30.334 -1.5 41.001 -4.5s18.834 -8.33301 24.501 -16s9.5 -18.5 11.5 -32.5s3 -32 3 -54v-256c0 -6.66699 4.5 -13.5 13.5 -20.5
s20 -13.5 33 -19.5s26.667 -11.5 41 -16.5s26.833 -9.16699 37.5 -12.5v-47c-10.667 -2.66699 -23.167 -7 -37.5 -13s-28 -12.5 -41 -19.5s-24 -14.167 -33 -21.5s-13.5 -14.333 -13.5 -21v-260c0 -22.667 -1 -41 -3 -55s-5.66699 -24.833 -11 -32.5s-12.833 -13 -22.5 -16
s-22.167 -4.5 -37.5 -4.5c-13.333 0 -25.666 0.5 -36.999 1.5s-22 2.16699 -32 3.5s-20 3.16602 -30 5.49902s-20 4.5 -30 6.5v16.5v16.5h142z" />
    <glyph glyph-name="asciitilde" unicode="~" horiz-adv-x="613" 
d="M75 422c7.33301 11.333 16.1709 22.332 26.5039 32.999s22.166 20.167 35.499 28.5s28.166 15 44.499 20s33.166 7.5 50.499 7.5c12.667 0 24.334 -2.16699 35.001 -6.5s20.5 -9.83301 29.5 -16.5s17.5 -14 25.5 -22s16.167 -15.333 24.5 -22s16.833 -12.167 25.5 -16.5
s18 -6.5 28 -6.5c12.667 0 24.334 1.83301 35.001 5.5s20.667 8.16699 30 13.5s17.5 11.5 24.5 18.5l20.5 20.5l28 -34c-7.33301 -11.333 -16.333 -22.333 -27 -33s-22.667 -20 -36 -28s-28.166 -14.667 -44.499 -20s-33.5 -8 -51.5 -8c-12.667 0 -24 2.33301 -34 7
s-19.667 10.334 -29 17.001s-18 13.834 -26 21.501s-16.167 15 -24.5 22s-16.833 12.667 -25.5 17s-18.334 6.5 -29.001 6.5c-12.667 0 -24.334 -1.83301 -35.001 -5.5s-20.334 -8.33398 -29.001 -14.001s-16.834 -12 -24.501 -19s-14.5 -13.5 -20.5 -19.5z" />
    <glyph glyph-name="uni007F" 
 />
    <glyph glyph-name="nonbreakingspace" unicode="&#xa0;" horiz-adv-x="255" 
 />
    <glyph glyph-name="exclamdown" unicode="&#xa1;" horiz-adv-x="348" 
d="M161 606c-10.667 1.33301 -19.3359 6.49609 -26.0029 15.4961s-9 19.833 -7 32.5c1.33301 6.66699 3.83301 12.834 7.5 18.501s8.16699 10.334 13.5 14.001s11 6.33398 17 8.00098s12 2.16699 18 1.5c7.33301 -0.666992 13.333 -2.5 18 -5.5s8.33398 -6.66699 11.001 -11
s4.33398 -9.16602 5.00098 -14.499s0.333984 -11 -0.999023 -17c-0.666992 -7.33301 -2.83398 -13.666 -6.50098 -18.999s-8.16699 -9.83301 -13.5 -13.5s-11.166 -6.33398 -17.499 -8.00098s-12.5 -2.16699 -18.5 -1.5zM145.998 465.996h45l22 -660h-92z" />
    <glyph glyph-name="cent" unicode="&#xa2;" horiz-adv-x="543" 
d="M252 -7c-30.667 4.66699 -57.6689 14.8311 -81.002 30.498s-43 35.334 -59 59.001s-28.167 50.834 -36.5 81.501c-9 30.667 -13.5 63.667 -13.5 99c0 42 6 80.333 18 115s28.833 64.667 50.5 90s47.167 45.833 76.5 61.5s61 25.5 95 29.5l8 106h47l-7 -104
c12 0 23.833 -0.666992 35.5 -2s22.834 -3 33.501 -5s20.167 -4.5 28.5 -7.5s15.166 -6.16699 20.499 -9.5v-105h-36l-20 63c-11.333 8.66699 -25.166 14.5 -41.499 17.5s-32.833 4.5 -49.5 4.5c-25.333 0 -49.333 -4.83301 -72 -14.5s-42.667 -23.667 -60 -42
s-31.333 -41.333 -42 -69s-16 -59.5 -16 -95.5c0 -46.667 5.5 -86.167 16.5 -118.5s25.5 -58.5 43.5 -78.5s38.5 -34.667 61.5 -44s46.5 -14 70.5 -14c11.333 0 23.833 0.833008 37.5 2.5s27.334 4.16699 41.001 7.5s26.5 7.16602 38.5 11.499s22 9.5 30 15.5l13 -35
c-9.33301 -8.66699 -20.833 -16.167 -34.5 -22.5s-28.5 -11.666 -44.5 -15.999s-32.833 -7.83301 -50.5 -10.5s-35.5 -4 -53.5 -4l-6 -95h-47l5 98v0z" />
    <glyph glyph-name="sterling" unicode="&#xa3;" horiz-adv-x="703" 
d="M43 21c0 8 3.16406 15.6592 9.49707 22.9922s14.666 14 24.999 20s22.5 10.5 36.5 13.5s29.333 4.16699 46 3.5c7.33301 7.33301 14.166 17 20.499 29s12 25.5 17 40.5s8.83301 30.833 11.5 47.5s4 33.334 4 50.001v125h-97v54h97v54c0 40 5.66699 77 17 111
s27.166 63.5 47.499 88.5s44.833 44.667 73.5 59s60.334 21.833 95.001 22.5c28.667 0.666992 53.5 -2.16602 74.5 -8.49902s40.167 -16.833 57.5 -31.5l-36 -67c-1.33301 2 -5.16602 6.5 -11.499 13.5s-15.166 14 -26.499 21s-24.666 13.167 -39.999 18.5s-32.333 8 -51 8
c-16 0 -31.833 -3.5 -47.5 -10.5s-29.5 -19 -41.5 -36s-21.667 -40.667 -29 -71s-11 -68.833 -11 -115.5v-56h173v-54h-173v-43c0 -35.333 -2.16699 -66.166 -6.5 -92.499s-10 -49.666 -17 -69.999s-15.167 -38.166 -24.5 -53.499s-19 -30 -29 -44
c11.333 0 24.5 -1.83301 39.5 -5.5s31 -8 48 -13s34.333 -9.83301 52 -14.5s34.167 -8 49.5 -10c39.333 -5.33301 71.333 -5.16602 96 0.500977s44.167 14.5 58.5 26.5s24.166 26.5 29.499 43.5s8 33.5 8 49.5c0 17.333 -3.66699 33.5 -11 48.5s-18.333 27.5 -33 37.5l33 63
c22.667 -10 40.334 -24.667 53.001 -44s21 -42.666 25 -69.999c1.33301 -10.667 1.66602 -23 0.999023 -37s-3.16699 -28.333 -7.5 -43s-11 -29 -20 -43s-21.5 -26.667 -37.5 -38s-35.667 -20.333 -59 -27s-51.333 -10 -84 -10c-24.667 -0.666992 -47.667 0.333008 -69 3
s-41.166 6 -59.499 10s-35.333 8.66699 -51 14s-29.667 10 -42 14s-23.5 7.16699 -33.5 9.5s-18.333 2.83301 -25 1.5c-5.33301 -6.66699 -11.166 -13.167 -17.499 -19.5s-13.166 -11.833 -20.499 -16.5s-14.833 -8.33398 -22.5 -11.001s-15.5 -4 -23.5 -4
c-4 0 -8.33301 0.333008 -13 1s-9 2.33398 -13 5.00098s-7.5 6.33398 -10.5 11.001s-4.5 11 -4.5 19z" />
    <glyph glyph-name="currency" unicode="&#xa4;" horiz-adv-x="701" 
d="M203 220c-13.333 16 -23.498 33.833 -30.498 53.5s-10.5 40.834 -10.5 63.501c0 22 3.5 42.667 10.5 62s16.5 36.666 28.5 51.999l-86 87l32 33l87 -87c15.333 12 32.666 21.333 51.999 28s39.666 10 60.999 10c22.667 0 44.167 -3.83301 64.5 -11.5
s38.833 -18.167 55.5 -31.5l87 86l32 -33l-88 -88c10.667 -15.333 19.167 -32 25.5 -50s9.5 -37 9.5 -57c0 -21.333 -3.5 -41.666 -10.5 -60.999s-16.5 -37 -28.5 -53l87 -86l-34 -33l-86 87c-16 -12.667 -33.667 -22.334 -53 -29.001s-39.666 -10 -60.999 -10
c-20.667 0 -40.334 3 -59.001 9s-35.667 15 -51 27l-87 -87l-32 33zM216.002 337c0 -18.667 3.33301 -36.334 10 -53.001s16 -31.334 28 -44.001s26 -22.5 42 -29.5s33 -10.5 51 -10.5s35 3.5 51 10.5s30 16.833 42 29.5s21.5 27.334 28.5 44.001s10.5 34.334 10.5 53.001
s-3.5 36.334 -10.5 53.001s-16.5 31.167 -28.5 43.5s-26 22.166 -42 29.499s-33 11 -51 11s-35 -3.66699 -51 -11s-30 -17.166 -42 -29.499s-21.333 -26.833 -28 -43.5s-10 -34.334 -10 -53.001z" />
    <glyph glyph-name="yen" unicode="&#xa5;" horiz-adv-x="687" 
d="M204 33l102 11.999v154h-217v49h217v126h-217v48h190l-199 291l-68 8v37h229v-37l-79 -7l154 -235l29 -57h11l33 60c6.66699 12 16 27.667 28 47s24.833 40 38.5 62s27.167 43.833 40.5 65.5s25 40.834 35 57.501l-76 7v37h209v-37l-70 -12l-189 -287h186v-48h-214v-126
h214v-49h-214v-154l105 -12v-33h-278v33z" />
    <glyph glyph-name="brokenbar" unicode="&#xa6;" horiz-adv-x="426" 
d="M175 869h64v-436h-64v436zM175 346h64v-437h-64v437z" />
    <glyph glyph-name="section" unicode="&#xa7;" horiz-adv-x="647" 
d="M122 50l23.9922 -97.0029c11.333 -11.333 24 -20.333 38 -27s28.5 -11.667 43.5 -15s30.333 -5.5 46 -6.5s30.5 -1.5 44.5 -1.5c19.333 0 39.333 2.16699 60 6.5s39.334 11.5 56.001 21.5s30.334 23.167 41.001 39.5s16 36.5 16 60.5
c0 22.667 -5.66699 42.334 -17 59.001s-26.333 31.667 -45 45s-40 25.5 -64 36.5s-48.333 21.833 -73 32.5s-49 21.834 -73 33.501s-45.333 25 -64 40s-33.667 32.167 -45 51.5s-17 41.666 -17 66.999c0 14.667 1.5 29.334 4.5 44.001s7.16699 28.5 12.5 41.5
s11.5 25.167 18.5 36.5s14.833 21.333 23.5 30c-15.333 14.667 -27.666 31.167 -36.999 49.5s-14 39.166 -14 62.499c0 24 3.66699 45.333 11 64s17.166 35.334 29.499 50.001s26.5 27.334 42.5 38.001s32.833 19.334 50.5 26.001s35.167 11.667 52.5 15s34 5 50 5
c25.333 0 48.333 -1.16699 69 -3.5s38.834 -5.5 54.501 -9.5s29.167 -8.33301 40.5 -13s20.666 -9 27.999 -13v-131h-33l-29 98c-6 6 -13.833 11 -23.5 15s-20.5 7.33301 -32.5 10s-24.667 4.5 -38 5.5s-27 1.5 -41 1.5c-10.667 0 -22 -1 -34 -3s-24.167 -5.33301 -36.5 -10
s-24.166 -10.834 -35.499 -18.501s-21.166 -16.834 -29.499 -27.501s-15.166 -23 -20.499 -37s-8 -30.333 -8 -49c0 -22 5.83301 -41 17.5 -57s26.834 -30.333 45.501 -43s39.834 -24.5 63.501 -35.5s48 -21.667 73 -32s49.333 -21.5 73 -33.5s44.834 -25.5 63.501 -40.5
s33.667 -32.333 45 -52s17 -42.5 17 -68.5c0 -14.667 -1 -29.5 -3 -44.5s-5.16699 -29.333 -9.5 -43s-9.5 -26.5 -15.5 -38.5s-12.667 -22.667 -20 -32c12.667 -13.333 22.667 -28.333 30 -45s11 -35 11 -55c0 -34 -6.66699 -63.167 -20 -87.5s-31.5 -44.166 -54.5 -59.499
s-49.667 -26.5 -80 -33.5s-62.166 -10.5 -95.499 -10.5c-24 0 -47.833 1.33301 -71.5 4s-45.334 6.16699 -65.001 10.5s-37 9 -52 14s-25.833 9.5 -32.5 13.5v146h34zM160.992 409.997c0 -20 4.99902 -37.668 14.999 -53.001s23.333 -29.166 40 -41.499
s35.834 -23.5 57.501 -33.5s44.167 -20 67.5 -30s46.5 -20 69.5 -30c23 -9.33301 44.167 -20.666 63.5 -33.999c7.33301 14 13.333 30 18 48s7 36 7 54c0 20.667 -4.83301 39 -14.5 55s-22.667 30.333 -39 43s-35 24.167 -56 34.5s-42.667 20.5 -65 30.5
s-45 20.167 -68 30.5s-44.167 21.833 -63.5 34.5c-9.33301 -14 -17 -30.333 -23 -49s-9 -38.334 -9 -59.001z" />
    <glyph glyph-name="dieresis" unicode="&#xa8;" horiz-adv-x="490" 
d="M348 696c-6 0 -12.001 1 -18.001 3s-11.167 4.83301 -15.5 8.5s-7.83301 8.33398 -10.5 14.001s-4 12.167 -4 19.5s1.66699 14.333 5 21s7.66602 12.5 12.999 17.5s11.333 8.83301 18 11.5s13.334 4 20.001 4c16.667 0 29 -4.5 37 -13.5s12 -19.833 12 -32.5
c0 -8 -1.66699 -15.333 -5 -22s-7.66602 -12.334 -12.999 -17.001s-11.333 -8.16699 -18 -10.5s-13.667 -3.5 -21 -3.5zM124.999 696c-6 0 -11.835 1 -17.502 3s-10.834 4.83301 -15.501 8.5s-8.16699 8.33398 -10.5 14.001s-3.5 12.167 -3.5 19.5s1.5 14.333 4.5 21
s7.33301 12.5 13 17.5s11.834 8.83301 18.501 11.5s13.334 4 20.001 4c16.667 0 29 -4.5 37 -13.5s12 -19.833 12 -32.5c0 -8 -1.66699 -15.333 -5 -22s-7.66602 -12.334 -12.999 -17.001s-11.5 -8.16699 -18.5 -10.5s-14.167 -3.5 -21.5 -3.5z" />
    <glyph glyph-name="copyright" unicode="&#xa9;" horiz-adv-x="992" 
d="M496 107c-38 0 -74.5 5.16602 -109.5 15.499s-67.667 24.5 -98 42.5s-58.166 39.667 -83.499 65s-46.833 53.333 -64.5 84s-31.5 63.5 -41.5 98.5s-15 71.5 -15 109.5s5 74.5 15 109.5s23.833 67.833 41.5 98.5s39.167 58.834 64.5 84.501s53.166 47.5 83.499 65.5
s63 32 98 42s71.5 15 109.5 15s74.5 -5 109.5 -15s67.667 -24 98 -42s58.166 -39.833 83.499 -65.5s46.833 -53.834 64.5 -84.501s31.5 -63.5 41.5 -98.5s15 -71.5 15 -109.5c0 -37.333 -5 -73.666 -15 -108.999s-23.833 -68.333 -41.5 -99s-39.167 -58.667 -64.5 -84
s-53.166 -47 -83.499 -65s-63 -32.167 -98 -42.5s-71.5 -15.5 -109.5 -15.5zM496 152.999c33.333 0 65.5 4.5 96.5 13.5s59.833 21.667 86.5 38s51.167 35.666 73.5 57.999s41.333 47.166 57 74.499s27.667 56.666 36 87.999s12.5 63.666 12.5 96.999
s-4.16699 65.833 -12.5 97.5s-20.333 61.167 -36 88.5s-34.667 52.166 -57 74.499s-46.833 41.5 -73.5 57.5s-55.5 28.5 -86.5 37.5s-63.167 13.5 -96.5 13.5s-65.5 -4.5 -96.5 -13.5s-60 -21.5 -87 -37.5s-51.333 -35.167 -73 -57.5s-40.334 -47.166 -56.001 -74.499
s-27.834 -56.833 -36.501 -88.5s-13 -64.167 -13 -97.5s4.33301 -65.666 13 -96.999s20.834 -60.666 36.501 -87.999s34.334 -52.166 56.001 -74.499s46 -41.666 73 -57.999s56 -29 87 -38s63.167 -13.5 96.5 -13.5zM500 284.999c-36 0 -67.665 5.82812 -94.998 17.4951
s-50 27.834 -68 48.501s-31.667 45.167 -41 73.5s-14 59.5 -14 93.5c0 22.667 3 44.5 9 65.5s14.167 40.5 24.5 58.5s22.666 34.5 36.999 49.5s29.333 28 45 39s32.167 19.667 49.5 26s34.666 10.166 51.999 11.499c14 0.666992 29 0.833984 45 0.500977
s31.333 -1.83301 46 -4.5s27.667 -6 39 -10s19.333 -9 24 -15v-94h-44l-19 63c-3.33301 2 -7.5 4.33301 -12.5 7s-11 4.83398 -18 6.50098s-15.5 3 -25.5 4s-22 1.5 -36 1.5c-22 0 -42 -5.16699 -60 -15.5s-33.5 -24 -46.5 -41s-23.167 -37.167 -30.5 -60.5
s-11 -48.333 -11 -75c0 -28 4 -54 12 -78s19.5 -45 34.5 -63s33.667 -32.333 56 -43s47.5 -16 75.5 -16c12.667 0 25.167 1.5 37.5 4.5s24 6.33301 35 10s20.5 7.83398 28.5 12.501s14 9 18 13l11 -30c-6.66699 -8 -15.5 -15.667 -26.5 -23s-23.333 -13.666 -37 -18.999
s-28.5 -9.66602 -44.5 -12.999s-32.667 -5 -50 -5z" />
    <glyph glyph-name="ordfeminine" unicode="&#xaa;" horiz-adv-x="470" 
d="M167 359c-12 0 -25.167 2.33496 -39.5 7.00195s-27.666 11.5 -39.999 20.5s-22.666 20.833 -30.999 35.5s-12.5 32.334 -12.5 53.001c0 19.333 3.83301 36.166 11.5 50.499s18.167 26.666 31.5 36.999s29 18.666 47 24.999s37.333 11.166 58 14.499
s42.167 5.66602 64.5 6.99902s44.833 2 67.5 2v20c0 22 -2.66699 39.667 -8 53s-13 23.5 -23 30.5s-22.333 11.667 -37 14s-30.667 3.5 -48 3.5c-13.333 0 -26.5 -0.833008 -39.5 -2.5s-25.167 -4 -36.5 -7s-21.833 -6.66699 -31.5 -11s-17.834 -9.16602 -24.501 -14.499
l-14 34c7.33301 6.66699 17 12.834 29 18.501s25.5 10.667 40.5 15s30.833 7.66602 47.5 9.99902s33 3.5 49 3.5c23.333 0 44.833 -1.66699 64.5 -5s36.667 -10.333 51 -21s25.333 -25.667 33 -45s11.5 -44.666 11.5 -75.999v-233h42v-28
c-3.33301 -1.33301 -7.83301 -2.83301 -13.5 -4.5s-11.834 -3.16699 -18.501 -4.5s-13.167 -2.5 -19.5 -3.5s-12.166 -1.5 -17.499 -1.5c-11.333 0 -20 2.33301 -26 7s-9 14.667 -9 30v19c-6 -4.66699 -13.333 -10 -22 -16s-19.334 -11.667 -32.001 -17s-27.5 -10 -44.5 -14
s-37.167 -6 -60.5 -6zM193 403.002c14.667 0 28.498 1.16797 41.498 3.50098s25.167 5.5 36.5 9.5s21.333 8.66699 30 14s16 10.666 22 15.999v131c-25.333 0 -50.5 -1.16699 -75.5 -3.5s-47.5 -6.83301 -67.5 -13.5s-36.167 -16 -48.5 -28s-18.5 -27.333 -18.5 -46
c0 -11.333 1.83301 -22 5.5 -32s8.83398 -18.667 15.501 -26s14.834 -13.333 24.501 -18s21.167 -7 34.5 -7z" />
    <glyph glyph-name="guillemotleft" unicode="&#xab;" horiz-adv-x="926" 
d="M465 330l317 195l20 -33l-269 -191l269 -187l-20 -34l-317 189v61zM120 330l316 195l20 -33l-268 -191l268 -187l-20 -34l-316 189v61z" />
    <glyph glyph-name="logicalnot" unicode="&#xac;" horiz-adv-x="595" 
d="M84 417h428v-259h-61v210h-367v49z" />
    <glyph glyph-name="registered" unicode="&#xae;" horiz-adv-x="992" 
d="M496 107c-38 0 -74.5 5.16602 -109.5 15.499s-67.667 24.5 -98 42.5s-58.166 39.667 -83.499 65s-46.833 53.333 -64.5 84s-31.5 63.5 -41.5 98.5s-15 71.5 -15 109.5s5 74.5 15 109.5s23.833 67.833 41.5 98.5s39.167 58.834 64.5 84.501s53.166 47.5 83.499 65.5
s63 32 98 42s71.5 15 109.5 15s74.5 -5 109.5 -15s67.667 -24 98 -42s58.166 -39.833 83.499 -65.5s46.833 -53.834 64.5 -84.501s31.5 -63.5 41.5 -98.5s15 -71.5 15 -109.5c0 -37.333 -5 -73.666 -15 -108.999s-23.833 -68.333 -41.5 -99s-39.167 -58.667 -64.5 -84
s-53.166 -47 -83.499 -65s-63 -32.167 -98 -42.5s-71.5 -15.5 -109.5 -15.5zM496 152.999c33.333 0 65.5 4.5 96.5 13.5s59.833 21.667 86.5 38s51.167 35.666 73.5 57.999s41.333 47.166 57 74.499s27.667 56.666 36 87.999s12.5 63.666 12.5 96.999
s-4.16699 65.833 -12.5 97.5s-20.333 61.167 -36 88.5s-34.667 52.166 -57 74.499s-46.833 41.5 -73.5 57.5s-55.5 28.5 -86.5 37.5s-63.167 13.5 -96.5 13.5s-65.5 -4.5 -96.5 -13.5s-60 -21.5 -87 -37.5s-51.333 -35.167 -73 -57.5s-40.334 -47.166 -56.001 -74.499
s-27.834 -56.833 -36.501 -88.5s-13 -64.167 -13 -97.5s4.33301 -65.666 13 -96.999s20.834 -60.666 36.501 -87.999s34.334 -52.166 56.001 -74.499s46 -41.666 73 -57.999s56 -29 87 -38s63.167 -13.5 96.5 -13.5zM310 321.999l49.0039 12v378l-49 11v36h76
c10 0 18.667 0.166992 26 0.5s15.333 0.666016 24 0.999023s18.667 0.666016 30 0.999023s26 0.833008 44 1.5c28 0 52.333 -2.83301 73 -8.5s37.834 -13.667 51.501 -24s24 -22.5 31 -36.5s10.833 -30 11.5 -48c0 -14.667 -1.83301 -29.5 -5.5 -44.5
s-10.334 -29.167 -20.001 -42.5s-22.834 -25.166 -39.501 -35.499s-38 -17.833 -64 -22.5c14.667 -8 27.167 -17.833 37.5 -29.5s19.5 -24 27.5 -37s15.5 -26.167 22.5 -39.5s14.333 -25 22 -35s16.334 -18.333 26.001 -25s21.167 -10 34.5 -10v-36h-57
c-15.333 0 -28.166 4 -38.499 12s-19.333 18.5 -27 31.5s-14.834 27.333 -21.501 43s-13.834 31 -21.501 46s-16.834 28.833 -27.501 41.5s-24.334 22.667 -41.001 30c-9.33301 0 -18.833 -0.166992 -28.5 -0.5s-19.834 -0.166016 -30.501 0.500977v-160l54 -11v-32h-169v32
zM425.004 531.999c11.333 -1.33301 22.832 -2.33301 34.499 -3s25.834 -0.666992 42.501 0c16.667 0 31.5 2.66699 44.5 8s24.167 12.666 33.5 21.999s16.5 20 21.5 32s7.5 24.333 7.5 37c0 16.667 -2.83301 31.167 -8.5 43.5s-13.5 22.333 -23.5 30
s-21.667 13.334 -35 17.001s-27.333 5.5 -42 5.5h-18c-5.33301 0 -10.833 -0.166992 -16.5 -0.5s-11.667 -0.833008 -18 -1.5s-13.833 -2 -22.5 -4v-186z" />
    <glyph glyph-name="macron" unicode="&#xaf;" horiz-adv-x="443" 
d="M95 776h259v-57h-259v57z" />
    <glyph glyph-name="degree" unicode="&#xb0;" horiz-adv-x="330" 
d="M165 469c-21.333 0 -41.333 4.16895 -60 12.502s-35.167 19.5 -49.5 33.5s-25.5 30.333 -33.5 49s-12 38.667 -12 60s4 41.166 12 59.499s19.167 34.5 33.5 48.5s30.833 25.167 49.5 33.5s38.667 12.5 60 12.5s41.5 -4.16699 60.5 -12.5s35.5 -19.5 49.5 -33.5
s25.167 -30.333 33.5 -49s12.5 -38.334 12.5 -59.001c0 -21.333 -4.16699 -41.333 -12.5 -60s-19.5 -35 -33.5 -49s-30.5 -25.167 -49.5 -33.5s-39.167 -12.5 -60.5 -12.5zM166 512.002c16 0 30.5039 2.83008 43.5039 8.49707s24.5 13.667 34.5 24s17.667 22.333 23 36
s8 28.167 8 43.5c0 14.667 -2.83301 28.834 -8.5 42.501s-13.334 25.5 -23.001 35.5s-21.334 18 -35.001 24s-27.834 9 -42.501 9c-16 0 -30.667 -2.83301 -44 -8.5s-25 -13.5 -35 -23.5s-17.667 -21.833 -23 -35.5s-8 -28.167 -8 -43.5s2.83301 -29.666 8.5 -42.999
s13.5 -25.166 23.5 -35.499s21.667 -18.5 35 -24.5s27.666 -9 42.999 -9z" />
    <glyph glyph-name="plusminus" unicode="&#xb1;" horiz-adv-x="614" 
d="M278 283l3 80l-79 -3h-118v58h118l79 -5l-3 81v121h58v-121l-4 -81l70 5h128v-58h-128l-70 4l4 -81v-126h-58v126zM88 86h437v-54h-437v54z" />
    <glyph glyph-name="twosuperior" unicode="&#xb2;" horiz-adv-x="613" 
d="M72 394c20 10 42.0039 21.8359 66.0039 35.5029s48 28.667 72 45s47.167 33.333 69.5 51s42.166 35.667 59.499 54s31.166 36.666 41.499 54.999s15.5 36.166 15.5 53.499s-3 32.333 -9 45s-14.333 23.167 -25 31.5s-23.334 14.666 -38.001 18.999
s-30.334 6.5 -47.001 6.5c-15.333 0 -31.333 -2.16699 -48 -6.5s-33 -10.333 -49 -18s-31.167 -17 -45.5 -28s-26.5 -23.167 -36.5 -36.5l-28 33c8 13.333 19.5 26.333 34.5 39s32.333 24.334 52 35.001s41 19.334 64 26.001s46.833 10 71.5 10
c34 0 62.833 -4.16699 86.5 -12.5s42.834 -19 57.501 -32s25.167 -27.5 31.5 -43.5s9.16602 -31.667 8.49902 -47c0 -30.667 -8.16699 -59.834 -24.5 -87.501s-38.5 -54.334 -66.5 -80.001s-61.167 -50.5 -99.5 -74.5s-79.833 -47.667 -124.5 -71l285 15l52 84l39 -16
l-30 -127h-419z" />
    <glyph glyph-name="threesuperior" unicode="&#xb3;" horiz-adv-x="559" 
d="M111 378c10.667 -4 22.0029 -7.49707 34.0029 -10.4971s23.833 -5.5 35.5 -7.5s23.334 -3.5 35.001 -4.5s22.834 -1.5 33.501 -1.5c26 0 48.667 3 68 9s35.666 14.167 48.999 24.5s23.5 22.666 30.5 36.999s10.5 29.833 10.5 46.5c0 30 -12 53 -36 69
s-57.667 22.333 -101 19l-82 -17v46c32.667 5.33301 59.667 12.166 81 20.499s38.666 17.5 51.999 27.5s23.333 20.333 30 31s11.334 21.334 14.001 32.001c1.33301 6.66699 2.16602 13.167 2.49902 19.5s-0.5 12.5 -2.5 18.5c-1.33301 8.66699 -5 16.334 -11 23.001
s-13.667 12.167 -23 16.5s-19.833 7.66602 -31.5 9.99902s-23.834 3.16602 -36.501 2.49902s-26.334 -2.5 -41.001 -5.5s-28.834 -6.66699 -42.501 -11s-26.5 -9.5 -38.5 -15.5s-21.667 -12 -29 -18l-19 34c8 6 18.167 12.5 30.5 19.5s26.166 13.5 41.499 19.5
s31.833 11.167 49.5 15.5s35.5 7.16602 53.5 8.49902c28 2 52.667 0.5 74 -4.5s39.333 -12.833 54 -23.5s25.834 -23.334 33.501 -38.001s11.5 -30.667 11.5 -48c0 -14 -2.33301 -27.333 -7 -40s-12 -24.667 -22 -36s-22.333 -21.5 -37 -30.5s-32 -16.5 -52 -22.5
c30.667 1.33301 56 -2 76 -10s35.833 -18.5 47.5 -31.5s20 -27.167 25 -42.5s7.5 -29.333 7.5 -42c0 -23.333 -5.33301 -44.833 -16 -64.5s-25.834 -36.5 -45.501 -50.5s-43.5 -25 -71.5 -33s-59.333 -12 -94 -12c-10 0 -20.667 0.666992 -32 2s-23.166 3 -35.499 5
s-24.833 4.83301 -37.5 8.5s-24.667 7.83398 -36 12.501v43z" />
    <glyph glyph-name="acute" unicode="&#xb4;" horiz-adv-x="431" 
d="M130 677l152.999 187l52 -53c-7.33301 -12 -18.333 -25 -33 -39s-30.667 -27.833 -48 -41.5s-35.166 -27 -53.499 -40s-34.833 -24.5 -49.5 -34.5z" />
    <glyph glyph-name="mu" unicode="&#xb5;" horiz-adv-x="690" 
d="M199 -196l-70.0029 0.000976562v412v9v270l-50 10v29l105 22l15 -9v-332c0 -29.333 1.5 -54.833 4.5 -76.5s8.83301 -39.834 17.5 -54.501s20.5 -25.5 35.5 -32.5s34.5 -10.5 58.5 -10.5c18.667 0 36.834 2.66699 54.501 8s33.667 11.5 48 18.5s26.833 14.167 37.5 21.5
s18.334 13.333 23.001 18v385l-61 10v32l117 22l13 -9v-512h62v-30c-4.66699 -2 -10.167 -4 -16.5 -6s-13.166 -3.83301 -20.499 -5.5s-14.666 -3 -21.999 -4s-14 -1.5 -20 -1.5c-14.667 0 -26 3 -34 9s-12 15.333 -12 28v44c-32 -26.667 -64.333 -46.5 -97 -59.5
s-65.667 -19.5 -99 -19.5c-19.333 0 -36.333 1.66699 -51 5s-27.334 8.33301 -38.001 15v-206z" />
    <glyph glyph-name="mu" unicode="&#x3bc;" horiz-adv-x="690" 
d="M199 -196l-70.0029 0.000976562v412v9v270l-50 10v29l105 22l15 -9v-332c0 -29.333 1.5 -54.833 4.5 -76.5s8.83301 -39.834 17.5 -54.501s20.5 -25.5 35.5 -32.5s34.5 -10.5 58.5 -10.5c18.667 0 36.834 2.66699 54.501 8s33.667 11.5 48 18.5s26.833 14.167 37.5 21.5
s18.334 13.333 23.001 18v385l-61 10v32l117 22l13 -9v-512h62v-30c-4.66699 -2 -10.167 -4 -16.5 -6s-13.166 -3.83301 -20.499 -5.5s-14.666 -3 -21.999 -4s-14 -1.5 -20 -1.5c-14.667 0 -26 3 -34 9s-12 15.333 -12 28v44c-32 -26.667 -64.333 -46.5 -97 -59.5
s-65.667 -19.5 -99 -19.5c-19.333 0 -36.333 1.66699 -51 5s-27.334 8.33301 -38.001 15v-206z" />
    <glyph glyph-name="paragraph" unicode="&#xb6;" horiz-adv-x="657" 
d="M174 33l96.9971 11.001v289c-34 0 -64.333 4.33301 -91 13s-49 22.167 -67 40.5s-31.667 41.333 -41 69s-14 60.5 -14 98.5c0 32 4.83301 61 14.5 87s24.834 48.333 45.501 67s46.834 33.167 78.501 43.5s69.5 15.5 113.5 15.5c11.333 0 25.833 -0.333008 43.5 -1
s36.5 -1.5 56.5 -2.5s39.833 -2 59.5 -3s36.167 -1.83301 49.5 -2.5h84v-38l-84 -12v-664l75 -11v-33h-138l-1 708h-12c-6 0 -13.167 0.166992 -21.5 0.5s-17.166 0.666016 -26.499 0.999023s-18.333 0.5 -27 0.5h-22.5h-12.5v-710h-159v33z" />
    <glyph glyph-name="periodcentered" unicode="&#xb7;" horiz-adv-x="315" 
d="M150 370c-10.667 1.33301 -19.5 6.32715 -26.5 14.9941s-9.16699 19.334 -6.5 32.001c0.666992 6.66699 2.83398 12.834 6.50098 18.501s8.16699 10.334 13.5 14.001s11.166 6.33398 17.499 8.00098s12.166 2.16699 17.499 1.5c7.33301 -0.666992 13.333 -2.5 18 -5.5
s8.5 -6.66699 11.5 -11s4.83301 -9.33301 5.5 -15s0.333984 -11.167 -0.999023 -16.5c-0.666992 -7.33301 -3 -13.666 -7 -18.999s-8.5 -9.83301 -13.5 -13.5s-10.667 -6.16699 -17 -7.5s-12.5 -1.66602 -18.5 -0.999023z" />
    <glyph glyph-name="cedilla" unicode="&#xb8;" horiz-adv-x="300" 
d="M154 0c-1.33301 -8 -2.33398 -17.8281 -3.00098 -29.4951s-0.666992 -22.5 0 -32.5c22.667 0.666992 42.5 -1.33301 59.5 -6s31 -11.334 42 -20.001s19.167 -18.667 24.5 -30s8 -23.333 8 -36c0 -16 -3.33301 -30.333 -10 -43s-15.667 -23.334 -27 -32.001
s-24.333 -15.334 -39 -20.001s-30.334 -7.33398 -47.001 -8.00098c-12.667 -0.666992 -23.667 -0.833984 -33 -0.500977s-17.666 1 -24.999 2s-14 2.16699 -20 3.5s-12.333 3 -19 5c0 5.33301 0.166992 11.833 0.5 19.5s0.5 14.167 0.5 19.5
c4.66699 -1.33301 9.83398 -2.5 15.501 -3.5s11.5 -2 17.5 -3s11.833 -1.66699 17.5 -2s10.167 -0.5 13.5 -0.5c9.33301 0 18.833 0.666992 28.5 2s18.667 4.16602 27 8.49902s15.166 10.666 20.499 18.999s8 19.5 8 33.5c0 10.667 -2.16699 19.834 -6.5 27.501
s-10.333 13.834 -18 18.501s-16.834 8.16699 -27.501 10.5s-22.667 3.5 -36 3.5c-2 0 -4.5 -0.166992 -7.5 -0.5l-9 -1c-3 -0.333008 -5.66699 -0.5 -8 -0.5s-4.16602 -0.333008 -5.49902 -1c0 16 1.33301 31.833 4 47.5s6.33398 32.167 11.001 49.5h43z" />
    <glyph glyph-name="onesuperior" unicode="&#xb9;" horiz-adv-x="529" 
d="M105 384l142.002 10.002v361c-23.333 -8.66699 -46.833 -17.334 -70.5 -26.001s-47.834 -16 -72.501 -22l-8 39c10 2.66699 21.167 6.5 33.5 11.5s25.333 10.5 39 16.5s27.167 12.167 40.5 18.5s25.666 12.666 36.999 18.999s21.333 12 30 17s14.667 9.5 18 13.5l25 -8
l-1 -439l134 -11v-33h-347v33z" />
    <glyph glyph-name="ordmasculine" unicode="&#xba;" horiz-adv-x="487" 
d="M238 359c-27.333 0 -52.665 4.67188 -75.998 14.0049s-43.5 22.833 -60.5 40.5s-30.333 39.667 -40 66s-14.167 56.166 -13.5 89.499c0 24.667 3 46.834 9 66.501s13.833 37.167 23.5 52.5s21 28.666 34 39.999s27 20.666 42 27.999s30.5 12.833 46.5 16.5
s31.667 5.5 47 5.5c30 0 57 -4.83301 81 -14.5s44.333 -23.667 61 -42s29.167 -40.833 37.5 -67.5s12.166 -56.667 11.499 -90c0 -36.667 -6.33301 -67.834 -19 -93.501s-28.834 -46.834 -48.501 -63.501s-41.5 -28.834 -65.5 -36.501s-47.333 -11.5 -70 -11.5z
M239.001 398.005c21.333 0 40.168 3.16699 56.501 9.5s30 16 41 29s19.333 29.5 25 49.5s8.5 44 8.5 72c0 27.333 -2.66699 52.166 -8 74.499s-13 41.333 -23 57s-22.833 27.834 -38.5 36.501s-33.834 13 -54.501 13c-21.333 0 -39.833 -4 -55.5 -12
s-28.834 -19.167 -39.501 -33.5s-18.667 -31.5 -24 -51.5s-8 -42.667 -8 -68c0 -27.333 2.83301 -51.833 8.5 -73.5s13.834 -40.167 24.501 -55.5s23.5 -27 38.5 -35s31.167 -12 48.5 -12z" />
    <glyph glyph-name="guillemotright" unicode="&#xbb;" horiz-adv-x="926" 
d="M739 303l-268 187l20 35l316 -189v-62l-316 -194l-20 32zM125 112l268 191l-268 187l20 35l316 -189v-62l-316 -194z" />
    <glyph glyph-name="onequarter" unicode="&#xbc;" horiz-adv-x="1282" 
d="M750 918l49 -14l-354 -1071l-50 14zM120 384l142.002 10.002v361c-23.333 -8.66699 -47 -17.334 -71 -26.001s-48.333 -16 -73 -22l-7 39c10 2.66699 21.167 6.5 33.5 11.5s25.333 10.5 39 16.5s27.167 12.167 40.5 18.5s25.666 12.666 36.999 18.999
s21.166 12 29.499 17s14.5 9.5 18.5 13.5l24 -8v-439l134 -11v-33h-347v33zM954.002 544.002l26 1l40 -36l-255 -346l-23 -33l234 13l1 142l65 9v-148l137 8l2 -63h-139v-179h-67l1 179h-280l-19 36z" />
    <glyph glyph-name="onehalf" unicode="&#xbd;" horiz-adv-x="1282" 
d="M743 918l48 -12l-354 -1073l-50 10zM120 384l142.002 10.002v361c-23.333 -8.66699 -47 -17.334 -71 -26.001s-48.333 -16 -73 -22l-7 39c10 2.66699 21.167 6.5 33.5 11.5s25.333 10.5 39 16.5s27.167 12.167 40.5 18.5s25.666 12.666 36.999 18.999
s21.166 12 29.499 17s14.5 9.5 18.5 13.5l24 -8v-439l134 -11v-33h-347v33zM707.002 42.002c20 10 42.002 21.834 66.002 35.501s48 28.5 72 44.5s47.167 33 69.5 51s42.166 36.167 59.499 54.5s31.333 36.666 42 54.999s16 35.833 16 52.5
c0 17.333 -3.16699 32.5 -9.5 45.5s-15 23.667 -26 32s-23.667 14.666 -38 18.999s-29.833 6.5 -46.5 6.5c-15.333 0 -31.333 -2.16699 -48 -6.5s-33 -10.333 -49 -18s-31.167 -17 -45.5 -28s-26.5 -23.167 -36.5 -36.5l-28 33c8 13.333 19.5 26.333 34.5 39
s32.167 24.334 51.5 35.001s40.666 19.334 63.999 26.001s47.333 10 72 10c34 0 62.667 -4.16699 86 -12.5s42.333 -19.166 57 -32.499s25.167 -27.833 31.5 -43.5s9.5 -31.167 9.5 -46.5c0 -30.667 -8.16699 -59.834 -24.5 -87.501s-38.5 -54.334 -66.5 -80.001
s-61 -50.5 -99 -74.5s-79.333 -47.667 -124 -71l284 15l52 84l38 -16l-29 -127h-419z" />
    <glyph glyph-name="threequarters" unicode="&#xbe;" horiz-adv-x="1309" 
d="M754 918l48 -12l-354 -1073l-50 10zM111 378c10.667 -4 22.0029 -7.49707 34.0029 -10.4971s23.833 -5.5 35.5 -7.5s23.334 -3.5 35.001 -4.5s22.834 -1.5 33.501 -1.5c26 0 48.667 3 68 9s35.666 14.167 48.999 24.5s23.5 22.666 30.5 36.999s10.5 29.833 10.5 46.5
c0 30 -12 53 -36 69s-57.667 22.333 -101 19l-82 -17v46c32.667 5.33301 59.667 12.166 81 20.499s38.666 17.5 51.999 27.5s23.333 20.333 30 31s11.334 21.334 14.001 32.001c1.33301 6.66699 2.16602 13.167 2.49902 19.5s-0.5 12.5 -2.5 18.5
c-1.33301 8.66699 -5 16.334 -11 23.001s-13.667 12.167 -23 16.5s-19.833 7.66602 -31.5 9.99902s-23.834 3.16602 -36.501 2.49902s-26.334 -2.5 -41.001 -5.5s-28.834 -6.66699 -42.501 -11s-26.5 -9.5 -38.5 -15.5s-21.667 -12 -29 -18l-19 34
c8 6 18.167 12.5 30.5 19.5s26.166 13.5 41.499 19.5s31.833 11.167 49.5 15.5s35.5 7.16602 53.5 8.49902c28 2 52.667 0.5 74 -4.5s39.333 -12.833 54 -23.5s25.834 -23.334 33.501 -38.001s11.5 -30.667 11.5 -48c0 -14 -2.33301 -27.333 -7 -40s-12 -24.667 -22 -36
s-22.333 -21.5 -37 -30.5s-32 -16.5 -52 -22.5c30.667 1.33301 56 -2 76 -10s35.833 -18.5 47.5 -31.5s20 -27.167 25 -42.5s7.5 -29.333 7.5 -42c0 -23.333 -5.33301 -44.833 -16 -64.5s-25.834 -36.5 -45.501 -50.5s-43.5 -25 -71.5 -33s-59.333 -12 -94 -12
c-10 0 -20.667 0.666992 -32 2s-23.166 3 -35.499 5s-24.833 4.83301 -37.5 8.5s-24.667 7.83398 -36 12.501v43zM953.003 544.003l27 1l39 -36l-254 -346l-24 -33l235 13l1 142l65 9v-148l137 8l1 -63h-138v-179h-67l1 179h-280l-19 36z" />
    <glyph glyph-name="questiondown" unicode="&#xbf;" horiz-adv-x="492" 
d="M213 607c-10.667 1.33301 -19.334 6.32617 -26.001 14.9932s-9 19.334 -7 32.001c0.666992 6.66699 3 12.834 7 18.501s8.5 10.334 13.5 14.001s10.667 6.33398 17 8.00098s12.166 2.16699 17.499 1.5c7.33301 -0.666992 13.5 -2.5 18.5 -5.5s8.83301 -6.66699 11.5 -11
s4.33398 -9.16602 5.00098 -14.499s0.333984 -11 -0.999023 -17c-0.666992 -7.33301 -2.83398 -13.666 -6.50098 -18.999s-8.16699 -9.83301 -13.5 -13.5s-11.166 -6.16699 -17.499 -7.5s-12.5 -1.66602 -18.5 -0.999023zM45 103.993c0 14 5.49609 26.834 16.4961 38.501
s24.667 22.334 41 32.001s34.333 19 54 28s38.167 17.667 55.5 26s32.333 17 45 26s20.667 18.5 24 28.5c1.33301 14 0.5 28.167 -2.5 42.5s-7 28.666 -12 42.999s-10.833 28.5 -17.5 42.5s-13 27.667 -19 41h41c4.66699 -4 9.83398 -9.66699 15.501 -17
s11.5 -15.666 17.5 -24.999s11.833 -19.5 17.5 -30.5s10.667 -22 15 -33s7.83301 -21.833 10.5 -32.5s4 -20.334 4 -29.001c0 -10 -3.5 -19.167 -10.5 -27.5s-16.333 -16.333 -28 -24s-24.834 -15 -39.501 -22s-29.5 -13.667 -44.5 -20s-30 -12.833 -45 -19.5
s-28.5 -13.334 -40.5 -20.001s-21.833 -13.5 -29.5 -20.5s-12.167 -14.5 -13.5 -22.5c-1.33301 -34 4.33398 -66.167 17.001 -96.5s30.334 -56.833 53.001 -79.5s49.5 -40.5 80.5 -53.5s63.833 -19.5 98.5 -19.5c6.66699 0 13.834 0.333008 21.501 1
s15.334 1.66699 23.001 3s14.834 2.83301 21.501 4.5s12.334 3.83398 17.001 6.50098v-57c-2 -2.66699 -6.16699 -5.33398 -12.5 -8.00098s-13.833 -5 -22.5 -7s-18 -3.66699 -28 -5s-19.333 -2 -28 -2c-37.333 0 -70.833 4.5 -100.5 13.5s-55.834 21.167 -78.501 36.5
s-41.834 33.166 -57.501 53.499s-28.167 42 -37.5 65s-15.833 46.333 -19.5 70s-4.5 46.834 -2.5 69.501z" />
    <glyph glyph-name="Agrave" unicode="&#xc0;" horiz-adv-x="729" 
d="M366 785c-14.667 6 -30.001 12.832 -46.001 20.499s-31.667 15.834 -47 24.501s-30.166 17.667 -44.499 27s-27.5 18.333 -39.5 27l53 54l144 -132zM0.999023 32.999l71 11l263 718h59l255 -718l81 -11v-33h-238v33l82 11l-62 178h-315l-61 -178l85 -11v-33h-220v33z
M496.999 266.999l-105 299l-36 114l-144 -413h285z" />
    <glyph glyph-name="Aacute" unicode="&#xc1;" horiz-adv-x="729" 
d="M341 806l144 132.001l53 -54c-12 -9.33301 -25 -18.5 -39 -27.5s-28.833 -17.833 -44.5 -26.5s-31.5 -16.834 -47.5 -24.501s-31.333 -14.5 -46 -20.5zM1 33.001l71 11l263 718h59l255 -718l81 -11v-33h-238v33l82 11l-62 178h-315l-61 -178l85 -11v-33h-220v33z
M497 267.001l-105 299l-36 114l-144 -413h285z" />
    <glyph glyph-name="Acircumflex" unicode="&#xc2;" horiz-adv-x="729" 
d="M197 808l132 130h71l131 -129l-34 -19l-133 97l-136 -97zM1 33l71 11l263 718h59l255 -718l81 -11v-33h-238v33l82 11l-62 178h-315l-61 -178l85 -11v-33h-220v33zM497 267l-105 299l-36 114l-144 -413h285z" />
    <glyph glyph-name="Atilde" unicode="&#xc3;" horiz-adv-x="729" 
d="M171 859c6 10.667 13.666 20.832 22.999 30.499s19.666 18 30.999 25s23.333 12.667 36 17s25.667 6.5 39 6.5c15.333 0 28.833 -3.66699 40.5 -11s22.5 -15.5 32.5 -24.5s19.833 -17.167 29.5 -24.5s20.834 -11 33.501 -11c10 0 19.5 1.33301 28.5 4
s17.333 6.16699 25 10.5s14.834 9.33301 21.501 15s12.667 11.834 18 18.501l21 -30c-6 -10.667 -13.667 -20.667 -23 -30s-19.666 -17.5 -30.999 -24.5s-23.333 -12.667 -36 -17s-25.667 -6.5 -39 -6.5c-15.333 0 -28.833 3.83301 -40.5 11.5s-22.5 15.834 -32.5 24.501
s-19.833 16.834 -29.5 24.501s-20.834 11.5 -33.501 11.5c-10 0 -19.333 -1.33301 -28 -4s-17 -6.33398 -25 -11.001s-15.333 -9.83398 -22 -15.501s-13 -11.5 -19 -17.5zM0.999023 32.998l71 11l263 718h59l255 -718l81 -11v-33h-238v33l82 11l-62 178h-315l-61 -178
l85 -11v-33h-220v33zM496.999 266.998l-105 299l-36 114l-144 -413h285z" />
    <glyph glyph-name="Adieresis" unicode="&#xc4;" horiz-adv-x="729" 
d="M470 825c-6 0 -11.999 1.00098 -17.999 3.00098s-11.167 5 -15.5 9s-7.83301 8.83301 -10.5 14.5s-4 12.167 -4 19.5c0 8 1.66699 15.333 5 22s7.66602 12.334 12.999 17.001s11.5 8.5 18.5 11.5s13.833 4.5 20.5 4.5c16.667 0 28.834 -4.66699 36.501 -14
s11.5 -20.333 11.5 -33c0 -8 -1.5 -15.333 -4.5 -22s-7.33301 -12.334 -13 -17.001s-11.834 -8.33398 -18.501 -11.001s-13.667 -4 -21 -4zM247.001 825.001c-6 0 -12.001 1.16699 -18.001 3.5s-11.167 5.5 -15.5 9.5s-7.83301 8.83301 -10.5 14.5s-4 12.167 -4 19.5
c0 8 1.66699 15.167 5 21.5s7.66602 12 12.999 17s11.5 8.83301 18.5 11.5s13.833 4 20.5 4c16.667 0 28.834 -4.66699 36.501 -14s11.5 -20 11.5 -32c0 -8 -1.66699 -15.333 -5 -22s-7.66602 -12.5 -12.999 -17.5s-11.333 -8.83301 -18 -11.5s-13.667 -4 -21 -4zM1 33.001
l71 11l263 718h59l255 -718l81 -11v-33h-238v33l82 11l-62 178h-315l-61 -178l85 -11v-33h-220v33zM497 267.001l-105 299l-36 114l-144 -413h285z" />
    <glyph glyph-name="Aring" unicode="&#xc5;" horiz-adv-x="729" 
d="M1 33l71.001 11.002l250 684c-12 3.33301 -23 8.16602 -33 14.499s-18.667 14 -26 23s-13 19 -17 30s-6 22.5 -6 34.5c0 15.333 3.33301 29.666 10 42.999s15.5 24.666 26.5 33.999s24 16.833 39 22.5s30.833 8.5 47.5 8.5s32.5 -2.83301 47.5 -8.5
s28.167 -13.167 39.5 -22.5s20.166 -20.5 26.499 -33.5s9.5 -27.5 9.5 -43.5c0 -12 -2 -23.333 -6 -34s-9.5 -20.5 -16.5 -29.5s-15.5 -16.667 -25.5 -23s-20.667 -11.166 -32 -14.499l243 -685l81 -11v-33h-238v33l82 11l-62 178h-315l-61 -178l85 -11v-33h-220v33z
M363.001 763.002c10.667 0 20.667 1.5 30 4.5s17.5 7.5 24.5 13.5s12.5 13 16.5 21s6 17 6 27s-2 19 -6 27s-9.5 15 -16.5 21s-15.167 10.667 -24.5 14s-19.333 5 -30 5s-20.667 -1.66699 -30 -5s-17.5 -8 -24.5 -14s-12.5 -13 -16.5 -21s-6 -16.667 -6 -26
c0 -10 2 -19.167 6 -27.5s9.5 -15.5 16.5 -21.5s15.167 -10.5 24.5 -13.5s19.333 -4.5 30 -4.5zM497.001 267.002l-105 299l-36 114l-144 -413h285z" />
    <glyph glyph-name="AE" unicode="&#xc6;" horiz-adv-x="947" 
d="M1 33l67 11l288 714h461l15 -139l-39 -1l-22 95l-329 5l90 -298l214 3l12 80h36v-205h-36l-12 79l-202 2l103 -337l180 6l44 110l33 -16l-22 -142h-402v33l87 11l-58 190h-305l-73 -190l90 -11v-33h-220v33zM495 278l-100 322l-19 86l-156 -408h275z" />
    <glyph glyph-name="Ccedilla" unicode="&#xc7;" horiz-adv-x="688" 
d="M42 357c0 41.333 4.99414 80.1719 14.9941 116.505s23.833 69.666 41.5 99.999s38.5 57.333 62.5 81s50.667 43.667 80 60s60.5 28.833 93.5 37.5s66.833 13 101.5 13c23.333 0 45.166 -1.33301 65.499 -4s38.833 -5.83398 55.5 -9.50098s31.834 -7.5 45.501 -11.5
s25.834 -7.33301 36.501 -10l-7 -134h-40l-18 88c-20 12.667 -43 22.167 -69 28.5s-56 9.5 -90 9.5c-25.333 0 -50.333 -3.33301 -75 -10s-48.167 -16.667 -70.5 -30s-42.666 -29.666 -60.999 -48.999s-34.333 -41.666 -48 -66.999s-24.334 -53.5 -32.001 -84.5
s-11.5 -64.833 -11.5 -101.5c0 -31.333 2.83301 -62 8.5 -92s14.167 -58.167 25.5 -84.5s25.333 -50.333 42 -72s36 -40.334 58 -56.001s46.667 -27.834 74 -36.501s57 -12.667 89 -12c40 0 74.833 5.16699 104.5 15.5s51.834 23.166 66.501 38.499l21 83
c4.66699 0 10.167 -0.166992 16.5 -0.5s12.166 -0.5 17.499 -0.5v-132c-11.333 -0.666992 -23.666 -3.16699 -36.999 -7.5s-29 -9.16602 -47 -14.499s-38.833 -10.166 -62.5 -14.499s-51.167 -6.83301 -82.5 -7.5c-0.666992 -7.33301 -1.16699 -15.5 -1.5 -24.5
s-0.166016 -17.167 0.500977 -24.5c22.667 0.666992 42.5 -1.33301 59.5 -6s31 -11.334 42 -20.001s19.167 -18.667 24.5 -30s8 -23.333 8 -36c0 -16 -3.33301 -30.333 -10 -43s-15.667 -23.334 -27 -32.001s-24.5 -15.334 -39.5 -20.001s-30.833 -7.33398 -47.5 -8.00098
c-12.667 -0.666992 -23.5 -0.833984 -32.5 -0.500977s-17.167 1 -24.5 2s-14.166 2.16699 -20.499 3.5s-12.5 3 -18.5 5c0 5.33301 0.166992 11.833 0.5 19.5s0.5 14.167 0.5 19.5c4.66699 -1.33301 9.83398 -2.5 15.501 -3.5s11.5 -2 17.5 -3s11.833 -1.66699 17.5 -2
s10.167 -0.5 13.5 -0.5c9.33301 0 18.833 0.666992 28.5 2s18.667 4.16602 27 8.49902s15.166 10.666 20.499 18.999s8 19.5 8 33.5c0 10.667 -2.16699 19.834 -6.5 27.501s-10.333 13.834 -18 18.501s-17 8.16699 -28 10.5s-22.833 3.5 -35.5 3.5
c-2 0 -4.5 -0.166992 -7.5 -0.5l-9 -1c-3 -0.333008 -5.66699 -0.5 -8 -0.5s-4.16602 -0.333008 -5.49902 -1c0 14 0.833008 27.833 2.5 41.5s4.5 27.834 8.5 42.501c-47.333 3.33301 -90.666 14.666 -129.999 33.999s-73.333 45.333 -102 78s-51.167 70.834 -67.5 114.501
s-24.5 91.5 -24.5 143.5z" />
    <glyph glyph-name="Egrave" unicode="&#xc8;" horiz-adv-x="644" 
d="M354 785c-14.667 6 -30.002 12.832 -46.002 20.499s-31.667 15.834 -47 24.501s-30.166 17.667 -44.499 27s-27.166 18.333 -38.499 27l51 54l145 -132zM49.998 32.999l88 11v669l-86 8v37h506l14 -139h-41l-23 94l-299 6v-297l200 4l12 78h39v-207h-39l-12 82l-200 3
v-341l322 8l44 114l36 -9l-22 -154h-539v33z" />
    <glyph glyph-name="Eacute" unicode="&#xc9;" horiz-adv-x="644" 
d="M329 806l143.999 132.001l52 -54c-11.333 -9.33301 -24.166 -18.5 -38.499 -27.5s-29.166 -17.833 -44.499 -26.5s-30.833 -16.834 -46.5 -24.501s-30.834 -14.5 -45.501 -20.5zM49.999 33.001l88 11v669l-86 8v37h506l14 -139h-41l-23 94l-299 6v-297l200 4l12 78h39
v-207h-39l-12 82l-200 3v-341l322 8l44 114l36 -9l-22 -154h-539v33z" />
    <glyph glyph-name="Ecircumflex" unicode="&#xca;" horiz-adv-x="644" 
d="M185 808l131 130h72l132 -129l-35 -19l-133 97l-136 -97zM50 33l88 11v669l-86 8v37h506l14 -139h-41l-23 94l-299 6v-297l200 4l12 78h39v-207h-39l-12 82l-200 3v-341l322 8l44 114l36 -9l-22 -154h-539v33z" />
    <glyph glyph-name="Edieresis" unicode="&#xcb;" horiz-adv-x="644" 
d="M458 825c-6 0 -12 1.00098 -18 3.00098s-11.167 5 -15.5 9s-7.83301 8.83301 -10.5 14.5s-4 12.167 -4 19.5c0 8 1.66699 15.333 5 22s7.66602 12.334 12.999 17.001s11.5 8.5 18.5 11.5s13.833 4.5 20.5 4.5c16.667 0 29 -4.66699 37 -14s12 -20.333 12 -33
c0 -8 -1.66699 -15.333 -5 -22s-7.66602 -12.334 -12.999 -17.001s-11.5 -8.33398 -18.5 -11.001s-14.167 -4 -21.5 -4zM235 825.001c-6 0 -12 1.16699 -18 3.5s-11.167 5.5 -15.5 9.5s-7.83301 8.83301 -10.5 14.5s-4 12.167 -4 19.5c0 8 1.66699 15.167 5 21.5
s7.66602 12 12.999 17s11.333 8.83301 18 11.5s13.667 4 21 4c16.667 0 28.834 -4.66699 36.501 -14s11.5 -20 11.5 -32c0 -8 -1.5 -15.333 -4.5 -22s-7.16699 -12.5 -12.5 -17.5s-11.5 -8.83301 -18.5 -11.5s-14.167 -4 -21.5 -4zM50 33.001l88 11v669l-86 8v37h506
l14 -139h-41l-23 94l-299 6v-297l200 4l12 78h39v-207h-39l-12 82l-200 3v-341l322 8l44 114l36 -9l-22 -154h-539v33z" />
    <glyph glyph-name="Igrave" unicode="&#xcc;" horiz-adv-x="372" 
d="M188 785c-14.667 6 -30.002 12.832 -46.002 20.499s-31.667 15.834 -47 24.501s-30.166 17.667 -44.499 27s-27.166 18.333 -38.499 27l52 54l144 -132zM65.998 32.999l83 11v670l-81 7v37h235v-37l-82 -7v-670l86 -11v-33h-241v33z" />
    <glyph glyph-name="Iacute" unicode="&#xcd;" horiz-adv-x="372" 
d="M163 806l145.002 132.001l52 -54c-12 -9.33301 -25 -18.5 -39 -27.5s-28.833 -17.833 -44.5 -26.5s-31.334 -16.834 -47.001 -24.501s-30.834 -14.5 -45.501 -20.5zM66.002 33.001l83 11v670l-81 7v37h235v-37l-82 -7v-670l86 -11v-33h-241v33z" />
    <glyph glyph-name="Icircumflex" unicode="&#xce;" horiz-adv-x="372" 
d="M20 808l131 130h71l132 -129l-34 -19l-133 97l-137 -97zM66 33l83 11v670l-81 7v37h235v-37l-82 -7v-670l86 -11v-33h-241v33z" />
    <glyph glyph-name="Idieresis" unicode="&#xcf;" horiz-adv-x="372" 
d="M292 825c-6 0 -11.833 1.00098 -17.5 3.00098s-10.834 5 -15.501 9s-8.33398 8.83301 -11.001 14.5s-4 12.167 -4 19.5c0 8 1.66699 15.333 5 22s7.83301 12.334 13.5 17.001s12 8.5 19 11.5s13.833 4.5 20.5 4.5c16.667 0 28.834 -4.66699 36.501 -14
s11.5 -20.333 11.5 -33c0 -8 -1.66699 -15.333 -5 -22s-7.66602 -12.334 -12.999 -17.001s-11.5 -8.33398 -18.5 -11.001s-14.167 -4 -21.5 -4zM69 825.001c-6 0 -12 1.16699 -18 3.5s-11.167 5.5 -15.5 9.5s-7.83301 8.83301 -10.5 14.5s-4 12.167 -4 19.5
c0 8 1.66699 15.167 5 21.5s7.66602 12 12.999 17s11.5 8.83301 18.5 11.5s13.833 4 20.5 4c16.667 0 29 -4.66699 37 -14s12 -20 12 -32c0 -8 -1.66699 -15.333 -5 -22s-7.66602 -12.5 -12.999 -17.5s-11.5 -8.83301 -18.5 -11.5s-14.167 -4 -21.5 -4zM66 33.001l83 11v670
l-81 7v37h235v-37l-82 -7v-670l86 -11v-33h-241v33z" />
    <glyph glyph-name="Eth" unicode="&#xd0;" horiz-adv-x="777" 
d="M52 33l88 11.998v326h-93v54h93v288l-86 8v37h121c18.667 0 36.167 0.333008 52.5 1s32 1.5 47 2.5s29.667 1.83301 44 2.5s29.166 1 44.499 1c62 0 116 -8.16699 162 -24.5s84.5 -40.166 115.5 -71.499s54 -69.833 69 -115.5s22.5 -97.167 22.5 -154.5
c0 -64 -9.66699 -121.167 -29 -171.5s-46.5 -92.833 -81.5 -127.5s-76.667 -61 -125 -79s-101.166 -26.667 -158.499 -26c-12 0 -24.667 0.333008 -38 1s-27 1.33398 -41 2.00098s-28 1.16699 -42 1.5s-27.667 0.5 -41 0.5h-27.5h-34.5h-34.5h-27.5v33zM212 48.998
c22.667 -4 44.835 -7.1709 66.502 -9.50391s44.834 -3.16602 69.501 -2.49902c41.333 0.666992 80.666 7.83398 117.999 21.501s70.166 34.5 98.499 62.5s50.833 63.333 67.5 106s25 93.334 25 152.001c0 58 -7.16699 108.667 -21.5 152s-35 79.5 -62 108.5
s-60 50.333 -99 64s-83.5 19.834 -133.5 18.501c-26.667 -0.666992 -50.834 -1.66699 -72.501 -3s-40.5 -3.33301 -56.5 -6v-288h133v-54h-133v-322z" />
    <glyph glyph-name="Ntilde" unicode="&#xd1;" horiz-adv-x="811" 
d="M216 859c6.66699 10.667 14.665 20.834 23.998 30.501s19.666 18 30.999 25s23.333 12.667 36 17s25.667 6.5 39 6.5c15.333 0 28.833 -3.66699 40.5 -11s22.5 -15.5 32.5 -24.5s19.833 -17.167 29.5 -24.5s20.5 -11 32.5 -11c10 0 19.667 1.33301 29 4
s17.833 6.16699 25.5 10.5s14.834 9.33301 21.501 15s12.667 11.834 18 18.501l20 -30c-6 -10.667 -13.5 -20.667 -22.5 -30s-19.167 -17.5 -30.5 -24.5s-23.5 -12.667 -36.5 -17s-25.833 -6.5 -38.5 -6.5c-10.667 0 -20.167 1.83301 -28.5 5.5s-16.166 8 -23.499 13
s-14.333 10.833 -21 17.5s-13.167 12.5 -19.5 17.5s-13.166 9.33301 -20.499 13s-15 5.5 -23 5.5c-10 0 -19.333 -1.33301 -28 -4s-17 -6.33398 -25 -11.001s-15.5 -9.83398 -22.5 -15.501s-13.167 -11.5 -18.5 -17.5zM50.998 33l86 11v666l-83 7v41h159l351 -563l72 -133
v648l-85 8v40h223v-40l-85 -8v-710h-79l-347 543l-72 137v-89.5v-110c0 -39 -0.166992 -79 -0.5 -120s-0.5 -80.833 -0.5 -119.5v-109v-88l101 -11v-33h-240v33z" />
    <glyph glyph-name="Ograve" unicode="&#xd2;" horiz-adv-x="758" 
d="M390 785c-14.667 6 -30.002 12.832 -46.002 20.499s-31.667 15.834 -47 24.501s-30.166 17.667 -44.499 27s-27.166 18.333 -38.499 27l52 54l145 -132zM44.998 368.999c1.33301 64 11.498 120.336 30.498 169.003s44.333 89.667 76 123s68.167 58.666 109.5 75.999
s85.333 26.666 132 27.999c50 0.666992 95 -8.16602 135 -26.499s74.167 -44.333 102.5 -78s50 -73.834 65 -120.501s21.833 -98 20.5 -154c-1.33301 -63.333 -11 -119.5 -29 -168.5s-42.167 -90.5 -72.5 -124.5s-65.666 -60 -105.999 -78s-83.5 -27.667 -129.5 -29
c-50.667 -0.666992 -96.667 8.16602 -138 26.499s-76.666 44.5 -105.999 78.5s-51.833 74.667 -67.5 122s-23.167 99.333 -22.5 156zM385.996 27.002c37.333 0 71.498 8.33496 102.498 25.002s57.5 40.5 79.5 71.5s39.167 68.667 51.5 113s18.5 94.166 18.5 149.499
c0 46.667 -5.66699 90.5 -17 131.5s-27.666 76.833 -48.999 107.5s-47.666 54.834 -78.999 72.501s-67.333 26.5 -108 26.5c-38 0 -72.833 -7.83301 -104.5 -23.5s-59 -38.667 -82 -69s-41 -67.5 -54 -111.5s-19.5 -94.333 -19.5 -151c0 -48 6 -92.833 18 -134.5
s29.333 -77.834 52 -108.501s50 -54.834 82 -72.501s68.333 -26.5 109 -26.5z" />
    <glyph glyph-name="Oacute" unicode="&#xd3;" horiz-adv-x="758" 
d="M365 806l145 132.001l52 -54c-11.333 -9.33301 -24.333 -18.5 -39 -27.5s-29.5 -17.833 -44.5 -26.5s-30.5 -16.834 -46.5 -24.501s-31.333 -14.5 -46 -20.5zM45 369.001c1.33301 64 11.498 120.336 30.498 169.003s44.333 89.667 76 123s68.167 58.666 109.5 75.999
s85.333 26.666 132 27.999c50 0.666992 95 -8.16602 135 -26.499s74.167 -44.333 102.5 -78s50 -73.834 65 -120.501s21.833 -98 20.5 -154c-1.33301 -63.333 -11 -119.5 -29 -168.5s-42.167 -90.5 -72.5 -124.5s-65.666 -60 -105.999 -78s-83.5 -27.667 -129.5 -29
c-50.667 -0.666992 -96.667 8.16602 -138 26.499s-76.666 44.5 -105.999 78.5s-51.833 74.667 -67.5 122s-23.167 99.333 -22.5 156zM385.998 27.0039c37.333 0 71.498 8.33496 102.498 25.002s57.5 40.5 79.5 71.5s39.167 68.667 51.5 113s18.5 94.166 18.5 149.499
c0 46.667 -5.66699 90.5 -17 131.5s-27.666 76.833 -48.999 107.5s-47.666 54.834 -78.999 72.501s-67.333 26.5 -108 26.5c-38 0 -72.833 -7.83301 -104.5 -23.5s-59 -38.667 -82 -69s-41 -67.5 -54 -111.5s-19.5 -94.333 -19.5 -151c0 -48 6 -92.833 18 -134.5
s29.333 -77.834 52 -108.501s50 -54.834 82 -72.501s68.333 -26.5 109 -26.5z" />
    <glyph glyph-name="Ocircumflex" unicode="&#xd4;" horiz-adv-x="758" 
d="M222 808l131 130h71l132 -129l-35 -19l-133 97l-136 -97zM45 369c1.33301 64 11.498 120.336 30.498 169.003s44.333 89.667 76 123s68.167 58.666 109.5 75.999s85.333 26.666 132 27.999c50 0.666992 95 -8.16602 135 -26.499s74.167 -44.333 102.5 -78
s50 -73.834 65 -120.501s21.833 -98 20.5 -154c-1.33301 -63.333 -11 -119.5 -29 -168.5s-42.167 -90.5 -72.5 -124.5s-65.666 -60 -105.999 -78s-83.5 -27.667 -129.5 -29c-50.667 -0.666992 -96.667 8.16602 -138 26.499s-76.666 44.5 -105.999 78.5
s-51.833 74.667 -67.5 122s-23.167 99.333 -22.5 156zM385.998 27.0029c37.333 0 71.498 8.33496 102.498 25.002s57.5 40.5 79.5 71.5s39.167 68.667 51.5 113s18.5 94.166 18.5 149.499c0 46.667 -5.66699 90.5 -17 131.5s-27.666 76.833 -48.999 107.5
s-47.666 54.834 -78.999 72.501s-67.333 26.5 -108 26.5c-38 0 -72.833 -7.83301 -104.5 -23.5s-59 -38.667 -82 -69s-41 -67.5 -54 -111.5s-19.5 -94.333 -19.5 -151c0 -48 6 -92.833 18 -134.5s29.333 -77.834 52 -108.501s50 -54.834 82 -72.501s68.333 -26.5 109 -26.5z
" />
    <glyph glyph-name="Otilde" unicode="&#xd5;" horiz-adv-x="758" 
d="M195 859c6 10.667 13.834 20.832 23.501 30.499s20.167 18 31.5 25s23.333 12.667 36 17s25.667 6.5 39 6.5c15.333 0 28.666 -3.66699 39.999 -11s22 -15.5 32 -24.5s19.833 -17.167 29.5 -24.5s20.834 -11 33.501 -11c10 0 19.5 1.33301 28.5 4s17.5 6.16699 25.5 10.5
s15.167 9.33301 21.5 15s12.5 11.834 18.5 18.501l20 -30c-6 -10.667 -13.667 -20.667 -23 -30s-19.666 -17.5 -30.999 -24.5s-23.333 -12.667 -36 -17s-25.334 -6.5 -38.001 -6.5c-15.333 0 -28.833 3.83301 -40.5 11.5s-22.5 15.834 -32.5 24.501
s-19.833 16.834 -29.5 24.501s-20.834 11.5 -33.501 11.5c-10 0 -19.5 -1.33301 -28.5 -4s-17.333 -6.33398 -25 -11.001s-15 -9.83398 -22 -15.501s-13.167 -11.5 -18.5 -17.5zM45.001 368.998c1.33301 64 11.498 120.336 30.498 169.003s44.333 89.667 76 123
s68.167 58.666 109.5 75.999s85.333 26.666 132 27.999c50 0.666992 95 -8.16602 135 -26.499s74.167 -44.333 102.5 -78s50 -73.834 65 -120.501s21.833 -98 20.5 -154c-1.33301 -63.333 -11 -119.5 -29 -168.5s-42.167 -90.5 -72.5 -124.5s-65.666 -60 -105.999 -78
s-83.5 -27.667 -129.5 -29c-50.667 -0.666992 -96.667 8.16602 -138 26.499s-76.666 44.5 -105.999 78.5s-51.833 74.667 -67.5 122s-23.167 99.333 -22.5 156zM385.999 27.001c37.333 0 71.498 8.33496 102.498 25.002s57.5 40.5 79.5 71.5s39.167 68.667 51.5 113
s18.5 94.166 18.5 149.499c0 46.667 -5.66699 90.5 -17 131.5s-27.666 76.833 -48.999 107.5s-47.666 54.834 -78.999 72.501s-67.333 26.5 -108 26.5c-38 0 -72.833 -7.83301 -104.5 -23.5s-59 -38.667 -82 -69s-41 -67.5 -54 -111.5s-19.5 -94.333 -19.5 -151
c0 -48 6 -92.833 18 -134.5s29.333 -77.834 52 -108.501s50 -54.834 82 -72.501s68.333 -26.5 109 -26.5z" />
    <glyph glyph-name="Odieresis" unicode="&#xd6;" horiz-adv-x="758" 
d="M495 825c-6 0 -12.002 1.00098 -18.002 3.00098s-11.167 5 -15.5 9s-8 8.83301 -11 14.5s-4.5 12.167 -4.5 19.5c0 8 1.83301 15.333 5.5 22s8.16699 12.334 13.5 17.001s11.333 8.5 18 11.5s13.334 4.5 20.001 4.5c16.667 0 29 -4.66699 37 -14s12 -20.333 12 -33
c0 -8 -1.66699 -15.333 -5 -22s-7.66602 -12.334 -12.999 -17.001s-11.333 -8.33398 -18 -11.001s-13.667 -4 -21 -4zM270.998 825.001c-6 0 -12.0029 1.16699 -18.0029 3.5s-11.167 5.5 -15.5 9.5s-7.83301 8.83301 -10.5 14.5s-4 12.167 -4 19.5
c0 8 1.66699 15.167 5 21.5s7.83301 12 13.5 17s11.834 8.83301 18.501 11.5s13.334 4 20.001 4c16.667 0 29 -4.66699 37 -14s12 -20 12 -32c0 -8 -1.66699 -15.333 -5 -22s-7.66602 -12.5 -12.999 -17.5s-11.5 -8.83301 -18.5 -11.5s-14.167 -4 -21.5 -4zM44.9951 369.001
c1.33301 64 11.498 120.336 30.498 169.003s44.333 89.667 76 123s68.167 58.666 109.5 75.999s85.333 26.666 132 27.999c50 0.666992 95 -8.16602 135 -26.499s74.167 -44.333 102.5 -78s50 -73.834 65 -120.501s21.833 -98 20.5 -154
c-1.33301 -63.333 -11 -119.5 -29 -168.5s-42.167 -90.5 -72.5 -124.5s-65.666 -60 -105.999 -78s-83.5 -27.667 -129.5 -29c-50.667 -0.666992 -96.667 8.16602 -138 26.499s-76.666 44.5 -105.999 78.5s-51.833 74.667 -67.5 122s-23.167 99.333 -22.5 156z
M385.993 27.0039c37.333 0 71.498 8.33496 102.498 25.002s57.5 40.5 79.5 71.5s39.167 68.667 51.5 113s18.5 94.166 18.5 149.499c0 46.667 -5.66699 90.5 -17 131.5s-27.666 76.833 -48.999 107.5s-47.666 54.834 -78.999 72.501s-67.333 26.5 -108 26.5
c-38 0 -72.833 -7.83301 -104.5 -23.5s-59 -38.667 -82 -69s-41 -67.5 -54 -111.5s-19.5 -94.333 -19.5 -151c0 -48 6 -92.833 18 -134.5s29.333 -77.834 52 -108.501s50 -54.834 82 -72.501s68.333 -26.5 109 -26.5z" />
    <glyph glyph-name="multiply" unicode="&#xd7;" horiz-adv-x="605" 
d="M93 223l173 166l-173 166l44 47l165 -176l167 176l44 -47l-173 -166l173 -166l-44 -47l-167 176l-165 -176z" />
    <glyph glyph-name="Oslash" unicode="&#xd8;" horiz-adv-x="758" 
d="M248 9c-32 13.333 -60.668 31.335 -86.001 54.002s-46.833 49.334 -64.5 80.001s-31 65.167 -40 103.5s-13.167 79.166 -12.5 122.499c1.33301 64 11.5 120.333 30.5 169s44.333 89.667 76 123s68.167 58.666 109.5 75.999s85.333 26.666 132 27.999
c40.667 0 78 -5.66699 112 -17l27 77l33 -13l-27 -79c28 -14 53.333 -32.167 76 -54.5s41.667 -48.5 57 -78.5s26.833 -63 34.5 -99s11.167 -74.333 10.5 -115c-1.33301 -63.333 -11 -119.5 -29 -168.5s-42.167 -90.5 -72.5 -124.5s-65.666 -60 -105.999 -78
s-83.5 -27.667 -129.5 -29c-34 0 -66 4 -96 12l-31 -92l-35 13zM486.999 700.002c-14.667 7.33301 -30.501 13.1689 -47.501 17.502s-35.167 6.5 -54.5 6.5c-38 0 -72.833 -7.83301 -104.5 -23.5s-59 -38.667 -82 -69s-41 -67.5 -54 -111.5s-19.5 -94.333 -19.5 -151
c0 -34.667 3.16699 -67.834 9.5 -99.501s15.5 -60.834 27.5 -87.501s26.833 -50.5 44.5 -71.5s37.834 -38.167 60.501 -51.5zM300.998 42.0049c26.667 -10.667 55 -15.665 85 -14.998c37.333 0 71.5 8.33301 102.5 25s57.5 40.5 79.5 71.5s39.167 68.667 51.5 113
s18.5 94.166 18.5 149.499c0 31.333 -2.66699 61.666 -8 90.999s-13 56.666 -23 81.999s-22.333 48.333 -37 69s-31.667 38.334 -51 53.001z" />
    <glyph glyph-name="Ugrave" unicode="&#xd9;" horiz-adv-x="769" 
d="M390 785c-14.667 6 -30.002 12.832 -46.002 20.499s-31.667 15.834 -47 24.501s-30.166 17.667 -44.499 27s-27.166 18.333 -38.499 27l52 54l145 -132zM90.998 713.999l-74.998 7.00098v37h233v-37l-85 -8v-400c0 -56 5.66699 -102.5 17 -139.5s27.333 -66.5 48 -88.5
s45.167 -37.5 73.5 -46.5s59.5 -13.5 93.5 -13.5c36 0 67.333 6.66699 94 20s48.667 32.833 66 58.5s30 56.834 38 93.501s12 79 12 127v389l-84 8v37h217v-37l-76 -8v-389c0 -60.667 -6.83301 -112.5 -20.5 -155.5s-32.834 -78 -57.501 -105s-54.334 -46.667 -89.001 -59
s-72.667 -18.5 -114 -18.5c-52 0 -96.333 6.83301 -133 20.5s-66.667 34.167 -90 61.5s-40.5 61.666 -51.5 102.999s-16.5 89.666 -16.5 144.999v398z" />
    <glyph glyph-name="Uacute" unicode="&#xda;" horiz-adv-x="769" 
d="M366 806l143.998 132.001l52 -54c-11.333 -9.33301 -24.166 -18.5 -38.499 -27.5s-29.166 -17.833 -44.499 -26.5s-31 -16.834 -47 -24.501s-31.333 -14.5 -46 -20.5zM90.998 714.001l-74.998 7.00098v37h233v-37l-85 -8v-400c0 -56 5.66699 -102.5 17 -139.5
s27.333 -66.5 48 -88.5s45.167 -37.5 73.5 -46.5s59.5 -13.5 93.5 -13.5c36 0 67.333 6.66699 94 20s48.667 32.833 66 58.5s30 56.834 38 93.501s12 79 12 127v389l-84 8v37h217v-37l-76 -8v-389c0 -60.667 -6.83301 -112.5 -20.5 -155.5s-32.834 -78 -57.501 -105
s-54.334 -46.667 -89.001 -59s-72.667 -18.5 -114 -18.5c-52 0 -96.333 6.83301 -133 20.5s-66.667 34.167 -90 61.5s-40.5 61.666 -51.5 102.999s-16.5 89.666 -16.5 144.999v398z" />
    <glyph glyph-name="Ucircumflex" unicode="&#xdb;" horiz-adv-x="769" 
d="M222 808l131 130h71l132 -129l-34 -19l-133 97l-137 -97zM91 714l-74.998 7.00098v37h233v-37l-85 -8v-400c0 -56 5.66699 -102.5 17 -139.5s27.333 -66.5 48 -88.5s45.167 -37.5 73.5 -46.5s59.5 -13.5 93.5 -13.5c36 0 67.333 6.66699 94 20s48.667 32.833 66 58.5
s30 56.834 38 93.501s12 79 12 127v389l-84 8v37h217v-37l-76 -8v-389c0 -60.667 -6.83301 -112.5 -20.5 -155.5s-32.834 -78 -57.501 -105s-54.334 -46.667 -89.001 -59s-72.667 -18.5 -114 -18.5c-52 0 -96.333 6.83301 -133 20.5s-66.667 34.167 -90 61.5
s-40.5 61.666 -51.5 102.999s-16.5 89.666 -16.5 144.999v398z" />
    <glyph glyph-name="Udieresis" unicode="&#xdc;" horiz-adv-x="769" 
d="M495 825c-6 0 -12.002 1.00098 -18.002 3.00098s-11.167 5 -15.5 9s-8 8.83301 -11 14.5s-4.5 12.167 -4.5 19.5c0 8 1.83301 15.333 5.5 22s8.16699 12.334 13.5 17.001s11.5 8.5 18.5 11.5s13.833 4.5 20.5 4.5c16.667 0 28.834 -4.66699 36.501 -14
s11.5 -20.333 11.5 -33c0 -8 -1.66699 -15.333 -5 -22s-7.66602 -12.334 -12.999 -17.001s-11.333 -8.33398 -18 -11.001s-13.667 -4 -21 -4zM270.998 825.001c-6 0 -11.833 1.16699 -17.5 3.5s-10.834 5.5 -15.501 9.5s-8.33398 8.83301 -11.001 14.5s-4 12.167 -4 19.5
c0 8 1.66699 15.167 5 21.5s7.83301 12 13.5 17s12 8.83301 19 11.5s13.833 4 20.5 4c16.667 0 28.834 -4.66699 36.501 -14s11.5 -20 11.5 -32c0 -8 -1.66699 -15.333 -5 -22s-7.66602 -12.5 -12.999 -17.5s-11.5 -8.83301 -18.5 -11.5s-14.167 -4 -21.5 -4z
M90.998 714.001l-74.998 7.00098v37h233v-37l-85 -8v-400c0 -56 5.66699 -102.5 17 -139.5s27.333 -66.5 48 -88.5s45.167 -37.5 73.5 -46.5s59.5 -13.5 93.5 -13.5c36 0 67.333 6.66699 94 20s48.667 32.833 66 58.5s30 56.834 38 93.501s12 79 12 127v389l-84 8v37h217
v-37l-76 -8v-389c0 -60.667 -6.83301 -112.5 -20.5 -155.5s-32.834 -78 -57.501 -105s-54.334 -46.667 -89.001 -59s-72.667 -18.5 -114 -18.5c-52 0 -96.333 6.83301 -133 20.5s-66.667 34.167 -90 61.5s-40.5 61.666 -51.5 102.999s-16.5 89.666 -16.5 144.999v398z" />
    <glyph glyph-name="Yacute" unicode="&#xdd;" horiz-adv-x="660" 
d="M320 806l145 132.001l52 -54c-12 -9.33301 -25 -18.5 -39 -27.5s-28.667 -17.833 -44 -26.5s-31 -16.834 -47 -24.501s-31.333 -14.5 -46 -20.5zM206 33.001l99 12v267l-240 402l-59 7v37h224v-37l-82 -7l172 -309l26 -52l24 52l156 308l-84 8v37h211v-37l-66 -11
l-210 -399v-266l103 -12v-33h-274v33z" />
    <glyph glyph-name="Thorn" unicode="&#xde;" horiz-adv-x="632" 
d="M42 33l98 12v669l-80 7v37h235v-37l-83 -7v-115c18.667 2 39.667 4.66699 63 8s46.666 5 69.999 5c37.333 0 71.833 -4 103.5 -12s59 -20.667 82 -38s41 -39.5 54 -66.5s19.5 -59.5 19.5 -97.5c0 -40 -8 -75 -24 -105s-37.167 -55 -63.5 -75s-56.5 -35 -90.5 -45
s-69 -14.667 -105 -14c-27.333 0 -49.666 0.5 -66.999 1.5s-31.333 1.5 -42 1.5v-117l135 -12v-33h-305v33zM212 204c18 -2.66699 36.5 -4.50098 55.5 -5.50098s36.167 -1.5 51.5 -1.5c28.667 0 55.834 3.66699 81.501 11s48.167 19 67.5 35s34.666 36.5 45.999 61.5
s17 55.833 17 92.5c0 28.667 -4.66699 54 -14 76s-23 40.333 -41 55s-40.5 25.667 -67.5 33s-58.167 10.333 -93.5 9c-8 0 -16.5 -0.666992 -25.5 -2l-27 -4c-9 -1.33301 -17.833 -2.66602 -26.5 -3.99902s-16.667 -3 -24 -5v-351z" />
    <glyph glyph-name="germandbls" unicode="&#xdf;" horiz-adv-x="651" 
d="M33 33l76.001 12v381c0 59.333 7.5 110.666 22.5 153.999s34.667 79 59 107s52.5 48.833 84.5 62.5s65 20.5 99 20.5c17.333 0 35.166 -2.16699 53.499 -6.5s34.833 -11.833 49.5 -22.5s26.5 -25.167 35.5 -43.5s13.5 -41.166 13.5 -68.499
c0 -19.333 -2.33301 -36.666 -7 -51.999s-10.667 -29.166 -18 -41.499s-15.333 -23.833 -24 -34.5s-16.5 -21.5 -23.5 -32.5s-13 -22.5 -18 -34.5s-7.5 -25.333 -7.5 -40c0 -16.667 5.16699 -30.834 15.5 -42.501s23.333 -22 39 -31s32.667 -18.167 51 -27.5
s35.166 -20 50.499 -32s28.333 -26.833 39 -44.5s16 -39.5 16 -65.5c0 -28.667 -5.5 -53.167 -16.5 -73.5s-25.833 -37 -44.5 -50s-40.167 -22.5 -64.5 -28.5s-49.833 -9 -76.5 -9c-14 0 -30.667 0.333008 -50 1s-38.666 3.33398 -57.999 8.00098v65
c6 -3.33301 13.5 -6.83301 22.5 -10.5s18.667 -7 29 -10s21 -5.5 32 -7.5s21.167 -3 30.5 -3c17.333 0 33.833 1.66699 49.5 5s29.334 9.16602 41.001 17.499s21 19.166 28 32.499s10.5 29.666 10.5 48.999c0 14.667 -3 27.667 -9 39s-14 21.5 -24 30.5
s-21.333 17.167 -34 24.5s-25.5 14.333 -38.5 21s-25.833 13.667 -38.5 21s-24 15.5 -34 24.5s-18 19.167 -24 30.5s-9 24.333 -9 39c0 12.667 2.5 25 7.5 37s11.167 24.167 18.5 36.5s15.5 24.833 24.5 37.5s17.167 25.834 24.5 39.501s13.5 27.667 18.5 42
s7.5 29.166 7.5 44.499c0 17.333 -2.16699 33.333 -6.5 48s-11 27.334 -20 38.001s-20.167 19.167 -33.5 25.5s-29 9.5 -47 9.5c-26.667 0 -50.834 -5 -72.501 -15s-40 -26.5 -55 -49.5s-26.667 -53.667 -35 -92s-12.5 -85.833 -12.5 -142.5v-426h-147v33z" />
    <glyph glyph-name="agrave" unicode="&#xe0;" horiz-adv-x="559" 
d="M328 656c-14.667 10 -31.001 21.332 -49.001 33.999s-35.667 25.834 -53 39.501s-33.166 27.5 -47.499 41.5s-25.5 27.333 -33.5 40l51 53l153 -187zM56.999 151.999c2 22.667 8.83301 42.666 20.5 59.999s26.5 32.333 44.5 45s38.5 23.334 61.5 32.001
s46.667 15.667 71 21s48.333 9.16602 72 11.499s45.834 3.5 66.501 3.5v43c0 27.333 -3.33301 49.833 -10 67.5s-16.167 31.834 -28.5 42.501s-27.333 18 -45 22s-37.834 6 -60.501 6c-12.667 0 -26.167 -1.16699 -40.5 -3.5s-28.5 -5.66602 -42.5 -9.99902
s-27.667 -9 -41 -14s-24.333 -10.5 -33 -16.5l-14 35c12 10 26.667 18.667 44 26s35.333 13.5 54 18.5s36.5 8.66699 53.5 11s31.5 3.5 43.5 3.5c26 0 50.5 -2.5 73.5 -7.5s43.333 -14.333 61 -28s31.5 -32 41.5 -55s15 -52.5 15 -88.5l-1 -342h64v-27
c-9.33301 -4.66699 -21.5 -8.5 -36.5 -11.5s-30.833 -4.5 -47.5 -4.5c-5.33301 0 -10.833 0.333008 -16.5 1s-10.667 2.5 -15 5.5s-7.83301 7.66699 -10.5 14s-4 15.166 -4 26.499v20c-9.33301 -10.667 -19.5 -20.167 -30.5 -28.5s-23.667 -15.5 -38 -21.5
s-30.5 -10.833 -48.5 -14.5s-37.667 -5.5 -59 -5.5c-22 0 -43.167 3.66699 -63.5 11s-38.166 17.833 -53.499 31.5s-27.333 30.5 -36 50.5s-12.334 43.333 -11.001 70zM127.999 150.998c0 -20 3 -37.1699 9 -51.5029s14.833 -26.166 26.5 -35.499
s25.334 -16.166 41.001 -20.499s33.167 -6.5 52.5 -6.5c17.333 0 33.333 1.83301 48 5.5s27.667 8.33398 39 14.001s21.166 11.5 29.499 17.5s14.833 10.667 19.5 14v41v49.5v53.5v53c-17.333 0 -36 -0.833008 -56 -2.5s-39.833 -4.5 -59.5 -8.5s-38.5 -9.33301 -56.5 -16
s-33.833 -15 -47.5 -25s-24.667 -21.833 -33 -35.5s-12.5 -29.167 -12.5 -46.5z" />
    <glyph glyph-name="aacute" unicode="&#xe1;" horiz-adv-x="559" 
d="M222 677l152.999 187l52 -53c-7.33301 -12 -18.333 -25 -33 -39s-30.667 -27.833 -48 -41.5s-35.166 -27 -53.499 -40s-34.833 -24.5 -49.5 -34.5zM56.999 152c2 22.667 8.83301 42.666 20.5 59.999s26.5 32.333 44.5 45s38.5 23.334 61.5 32.001s46.667 15.667 71 21
s48.333 9.16602 72 11.499s45.834 3.5 66.501 3.5v43c0 27.333 -3.33301 49.833 -10 67.5s-16.167 31.834 -28.5 42.501s-27.333 18 -45 22s-37.834 6 -60.501 6c-12.667 0 -26.167 -1.16699 -40.5 -3.5s-28.5 -5.66602 -42.5 -9.99902s-27.667 -9 -41 -14
s-24.333 -10.5 -33 -16.5l-14 35c12 10 26.667 18.667 44 26s35.333 13.5 54 18.5s36.5 8.66699 53.5 11s31.5 3.5 43.5 3.5c26 0 50.5 -2.5 73.5 -7.5s43.333 -14.333 61 -28s31.5 -32 41.5 -55s15 -52.5 15 -88.5l-1 -342h64v-27
c-9.33301 -4.66699 -21.5 -8.5 -36.5 -11.5s-30.833 -4.5 -47.5 -4.5c-5.33301 0 -10.833 0.333008 -16.5 1s-10.667 2.5 -15 5.5s-7.83301 7.66699 -10.5 14s-4 15.166 -4 26.499v20c-9.33301 -10.667 -19.5 -20.167 -30.5 -28.5s-23.667 -15.5 -38 -21.5
s-30.5 -10.833 -48.5 -14.5s-37.667 -5.5 -59 -5.5c-22 0 -43.167 3.66699 -63.5 11s-38.166 17.833 -53.499 31.5s-27.333 30.5 -36 50.5s-12.334 43.333 -11.001 70zM127.999 150.999c0 -20 3 -37.1699 9 -51.5029s14.833 -26.166 26.5 -35.499
s25.334 -16.166 41.001 -20.499s33.167 -6.5 52.5 -6.5c17.333 0 33.333 1.83301 48 5.5s27.667 8.33398 39 14.001s21.166 11.5 29.499 17.5s14.833 10.667 19.5 14v41v49.5v53.5v53c-17.333 0 -36 -0.833008 -56 -2.5s-39.833 -4.5 -59.5 -8.5s-38.5 -9.33301 -56.5 -16
s-33.833 -15 -47.5 -25s-24.667 -21.833 -33 -35.5s-12.5 -29.167 -12.5 -46.5z" />
    <glyph glyph-name="acircumflex" unicode="&#xe2;" horiz-adv-x="559" 
d="M108 670l138 195h69l133 -194l-32 -18l-136 149l-142 -149zM57 152c2 22.667 8.83301 42.666 20.5 59.999s26.5 32.333 44.5 45s38.5 23.334 61.5 32.001s46.667 15.667 71 21s48.333 9.16602 72 11.499s45.834 3.5 66.501 3.5v43c0 27.333 -3.33301 49.833 -10 67.5
s-16.167 31.834 -28.5 42.501s-27.333 18 -45 22s-37.834 6 -60.501 6c-12.667 0 -26.167 -1.16699 -40.5 -3.5s-28.5 -5.66602 -42.5 -9.99902s-27.667 -9 -41 -14s-24.333 -10.5 -33 -16.5l-14 35c12 10 26.667 18.667 44 26s35.333 13.5 54 18.5s36.5 8.66699 53.5 11
s31.5 3.5 43.5 3.5c26 0 50.5 -2.5 73.5 -7.5s43.333 -14.333 61 -28s31.5 -32 41.5 -55s15 -52.5 15 -88.5l-1 -342h64v-27c-9.33301 -4.66699 -21.5 -8.5 -36.5 -11.5s-30.833 -4.5 -47.5 -4.5c-5.33301 0 -10.833 0.333008 -16.5 1s-10.667 2.5 -15 5.5
s-7.83301 7.66699 -10.5 14s-4 15.166 -4 26.499v20c-9.33301 -10.667 -19.5 -20.167 -30.5 -28.5s-23.667 -15.5 -38 -21.5s-30.5 -10.833 -48.5 -14.5s-37.667 -5.5 -59 -5.5c-22 0 -43.167 3.66699 -63.5 11s-38.166 17.833 -53.499 31.5s-27.333 30.5 -36 50.5
s-12.334 43.333 -11.001 70zM128 150.999c0 -20 3 -37.1699 9 -51.5029s14.833 -26.166 26.5 -35.499s25.334 -16.166 41.001 -20.499s33.167 -6.5 52.5 -6.5c17.333 0 33.333 1.83301 48 5.5s27.667 8.33398 39 14.001s21.166 11.5 29.499 17.5s14.833 10.667 19.5 14v41
v49.5v53.5v53c-17.333 0 -36 -0.833008 -56 -2.5s-39.833 -4.5 -59.5 -8.5s-38.5 -9.33301 -56.5 -16s-33.833 -15 -47.5 -25s-24.667 -21.833 -33 -35.5s-12.5 -29.167 -12.5 -46.5z" />
    <glyph glyph-name="atilde" unicode="&#xe3;" horiz-adv-x="559" 
d="M86 731c6 10.667 13.832 20.833 23.499 30.5s20.167 18.167 31.5 25.5s23.333 13.333 36 18s25.667 7 39 7c15.333 0 28.833 -3.83301 40.5 -11.5s22.5 -16.167 32.5 -25.5s19.833 -17.833 29.5 -25.5s20.834 -11.5 33.501 -11.5c10 0 19.5 1.5 28.5 4.5s17.333 7 25 12
s14.834 10.667 21.501 17s12.667 12.5 18 18.5l20 -29c-6 -10.667 -13.667 -20.834 -23 -30.501s-19.5 -18.167 -30.5 -25.5s-23 -13.166 -36 -17.499s-25.833 -6.5 -38.5 -6.5c-10.667 0 -20.167 1.83301 -28.5 5.5s-16.166 8.16699 -23.499 13.5s-14.333 11.333 -21 18
s-13.334 12.667 -20.001 18s-13.5 9.83301 -20.5 13.5s-14.5 5.5 -22.5 5.5c-10.667 0 -20.5 -1.5 -29.5 -4.5s-17.333 -7.16699 -25 -12.5s-14.834 -11 -21.501 -17s-12.667 -12 -18 -18zM56.999 151.999c2 22.667 8.83301 42.666 20.5 59.999s26.5 32.333 44.5 45
s38.5 23.334 61.5 32.001s46.667 15.667 71 21s48.333 9.16602 72 11.499s45.834 3.5 66.501 3.5v43c0 27.333 -3.33301 49.833 -10 67.5s-16.167 31.834 -28.5 42.501s-27.333 18 -45 22s-37.834 6 -60.501 6c-12.667 0 -26.167 -1.16699 -40.5 -3.5
s-28.5 -5.66602 -42.5 -9.99902s-27.667 -9 -41 -14s-24.333 -10.5 -33 -16.5l-14 35c12 10 26.667 18.667 44 26s35.333 13.5 54 18.5s36.5 8.66699 53.5 11s31.5 3.5 43.5 3.5c26 0 50.5 -2.5 73.5 -7.5s43.333 -14.333 61 -28s31.5 -32 41.5 -55s15 -52.5 15 -88.5
l-1 -342h64v-27c-9.33301 -4.66699 -21.5 -8.5 -36.5 -11.5s-30.833 -4.5 -47.5 -4.5c-5.33301 0 -10.833 0.333008 -16.5 1s-10.667 2.5 -15 5.5s-7.83301 7.66699 -10.5 14s-4 15.166 -4 26.499v20c-9.33301 -10.667 -19.5 -20.167 -30.5 -28.5s-23.667 -15.5 -38 -21.5
s-30.5 -10.833 -48.5 -14.5s-37.667 -5.5 -59 -5.5c-22 0 -43.167 3.66699 -63.5 11s-38.166 17.833 -53.499 31.5s-27.333 30.5 -36 50.5s-12.334 43.333 -11.001 70zM127.999 150.998c0 -20 3 -37.1699 9 -51.5029s14.833 -26.166 26.5 -35.499
s25.334 -16.166 41.001 -20.499s33.167 -6.5 52.5 -6.5c17.333 0 33.333 1.83301 48 5.5s27.667 8.33398 39 14.001s21.166 11.5 29.499 17.5s14.833 10.667 19.5 14v41v49.5v53.5v53c-17.333 0 -36 -0.833008 -56 -2.5s-39.833 -4.5 -59.5 -8.5s-38.5 -9.33301 -56.5 -16
s-33.833 -15 -47.5 -25s-24.667 -21.833 -33 -35.5s-12.5 -29.167 -12.5 -46.5z" />
    <glyph glyph-name="adieresis" unicode="&#xe4;" horiz-adv-x="559" 
d="M385 696c-6 0 -12 1 -18 3s-11.167 4.83301 -15.5 8.5s-7.83301 8.33398 -10.5 14.001s-4 12.167 -4 19.5s1.66699 14.333 5 21s7.66602 12.5 12.999 17.5s11.333 8.83301 18 11.5s13.667 4 21 4c16.667 0 28.834 -4.5 36.501 -13.5s11.5 -19.833 11.5 -32.5
c0 -8 -1.5 -15.333 -4.5 -22s-7.16699 -12.334 -12.5 -17.001s-11.5 -8.16699 -18.5 -10.5s-14.167 -3.5 -21.5 -3.5zM163 696c-6 0 -12.001 1 -18.001 3s-11.167 4.83301 -15.5 8.5s-7.83301 8.33398 -10.5 14.001s-4 12.167 -4 19.5s1.66699 14.333 5 21
s7.66602 12.5 12.999 17.5s11.5 8.83301 18.5 11.5s13.833 4 20.5 4c16.667 0 28.834 -4.5 36.501 -13.5s11.5 -19.833 11.5 -32.5c0 -8 -1.66699 -15.333 -5 -22s-7.66602 -12.334 -12.999 -17.001s-11.333 -8.16699 -18 -10.5s-13.667 -3.5 -21 -3.5zM56.999 152
c2 22.667 8.83301 42.666 20.5 59.999s26.5 32.333 44.5 45s38.5 23.334 61.5 32.001s46.667 15.667 71 21s48.333 9.16602 72 11.499s45.834 3.5 66.501 3.5v43c0 27.333 -3.33301 49.833 -10 67.5s-16.167 31.834 -28.5 42.501s-27.333 18 -45 22s-37.834 6 -60.501 6
c-12.667 0 -26.167 -1.16699 -40.5 -3.5s-28.5 -5.66602 -42.5 -9.99902s-27.667 -9 -41 -14s-24.333 -10.5 -33 -16.5l-14 35c12 10 26.667 18.667 44 26s35.333 13.5 54 18.5s36.5 8.66699 53.5 11s31.5 3.5 43.5 3.5c26 0 50.5 -2.5 73.5 -7.5s43.333 -14.333 61 -28
s31.5 -32 41.5 -55s15 -52.5 15 -88.5l-1 -342h64v-27c-9.33301 -4.66699 -21.5 -8.5 -36.5 -11.5s-30.833 -4.5 -47.5 -4.5c-5.33301 0 -10.833 0.333008 -16.5 1s-10.667 2.5 -15 5.5s-7.83301 7.66699 -10.5 14s-4 15.166 -4 26.499v20
c-9.33301 -10.667 -19.5 -20.167 -30.5 -28.5s-23.667 -15.5 -38 -21.5s-30.5 -10.833 -48.5 -14.5s-37.667 -5.5 -59 -5.5c-22 0 -43.167 3.66699 -63.5 11s-38.166 17.833 -53.499 31.5s-27.333 30.5 -36 50.5s-12.334 43.333 -11.001 70zM127.999 150.999
c0 -20 3 -37.1699 9 -51.5029s14.833 -26.166 26.5 -35.499s25.334 -16.166 41.001 -20.499s33.167 -6.5 52.5 -6.5c17.333 0 33.333 1.83301 48 5.5s27.667 8.33398 39 14.001s21.166 11.5 29.499 17.5s14.833 10.667 19.5 14v41v49.5v53.5v53
c-17.333 0 -36 -0.833008 -56 -2.5s-39.833 -4.5 -59.5 -8.5s-38.5 -9.33301 -56.5 -16s-33.833 -15 -47.5 -25s-24.667 -21.833 -33 -35.5s-12.5 -29.167 -12.5 -46.5z" />
    <glyph glyph-name="aring" unicode="&#xe5;" horiz-adv-x="559" 
d="M270 645c-16.667 0 -32.334 3 -47.001 9s-27.5 14.167 -38.5 24.5s-19.667 22.5 -26 36.5s-9.5 29 -9.5 45s3.16699 31 9.5 45s15 26.167 26 36.5s23.833 18.5 38.5 24.5s30.334 9 47.001 9s32.167 -3 46.5 -9s26.833 -14.167 37.5 -24.5s19.167 -22.5 25.5 -36.5
s9.5 -29 9.5 -45s-3.16699 -31 -9.5 -45s-14.833 -26.167 -25.5 -36.5s-23.167 -18.5 -37.5 -24.5s-29.833 -9 -46.5 -9zM269 685c10 0 19.667 1.83301 29 5.5s17.333 8.83398 24 15.501s12 14.5 16 23.5s6 18.833 6 29.5s-2 20.5 -6 29.5s-9.33301 16.667 -16 23
s-14.667 11.5 -24 15.5s-19 6 -29 6s-19.5 -2 -28.5 -6s-16.833 -9.16699 -23.5 -15.5s-12 -14 -16 -23s-6 -18.833 -6 -29.5s2 -20.5 6 -29.5s9.33301 -16.833 16 -23.5s14.5 -11.834 23.5 -15.501s18.5 -5.5 28.5 -5.5zM57 152c2 22.667 8.83301 42.666 20.5 59.999
s26.5 32.333 44.5 45s38.5 23.334 61.5 32.001s46.667 15.667 71 21s48.333 9.16602 72 11.499s45.834 3.5 66.501 3.5v43c0 27.333 -3.33301 49.833 -10 67.5s-16.167 31.834 -28.5 42.501s-27.333 18 -45 22s-37.834 6 -60.501 6c-12.667 0 -26.167 -1.16699 -40.5 -3.5
s-28.5 -5.66602 -42.5 -9.99902s-27.667 -9 -41 -14s-24.333 -10.5 -33 -16.5l-14 35c12 10 26.667 18.667 44 26s35.333 13.5 54 18.5s36.5 8.66699 53.5 11s31.5 3.5 43.5 3.5c26 0 50.5 -2.5 73.5 -7.5s43.333 -14.333 61 -28s31.5 -32 41.5 -55s15 -52.5 15 -88.5
l-1 -342h64v-27c-9.33301 -4.66699 -21.5 -8.5 -36.5 -11.5s-30.833 -4.5 -47.5 -4.5c-5.33301 0 -10.833 0.333008 -16.5 1s-10.667 2.5 -15 5.5s-7.83301 7.66699 -10.5 14s-4 15.166 -4 26.499v20c-9.33301 -10.667 -19.5 -20.167 -30.5 -28.5s-23.667 -15.5 -38 -21.5
s-30.5 -10.833 -48.5 -14.5s-37.667 -5.5 -59 -5.5c-22 0 -43.167 3.66699 -63.5 11s-38.166 17.833 -53.499 31.5s-27.333 30.5 -36 50.5s-12.334 43.333 -11.001 70zM128 150.999c0 -20 3 -37.1699 9 -51.5029s14.833 -26.166 26.5 -35.499s25.334 -16.166 41.001 -20.499
s33.167 -6.5 52.5 -6.5c17.333 0 33.333 1.83301 48 5.5s27.667 8.33398 39 14.001s21.166 11.5 29.499 17.5s14.833 10.667 19.5 14v41v49.5v53.5v53c-17.333 0 -36 -0.833008 -56 -2.5s-39.833 -4.5 -59.5 -8.5s-38.5 -9.33301 -56.5 -16s-33.833 -15 -47.5 -25
s-24.667 -21.833 -33 -35.5s-12.5 -29.167 -12.5 -46.5z" />
    <glyph glyph-name="ae" unicode="&#xe6;" horiz-adv-x="883" 
d="M57 153c1.33301 23.333 8.33496 43.833 21.002 61.5s28.5 32.834 47.5 45.501s40.333 23.334 64 32.001s47.5 15.334 71.5 20.001s47.333 7.83398 70 9.50098s42.667 2.16699 60 1.5v45c0 28 -3.5 51 -10.5 69s-16.667 32.167 -29 42.5s-26.833 17.333 -43.5 21
s-35.334 5.5 -56.001 5.5c-12 0 -25 -1.16699 -39 -3.5s-28.167 -5.5 -42.5 -9.5s-28.5 -8.83301 -42.5 -14.5s-26.333 -11.834 -37 -18.501l-12 37c11.333 8.66699 25.166 16.667 41.499 24s33.666 13.5 51.999 18.5s36.666 9 54.999 12s34.833 4.5 49.5 4.5
c19.333 0 37.833 -1.5 55.5 -4.5s34 -8.5 49 -16.5s28.167 -19.167 39.5 -33.5s19.666 -32.5 24.999 -54.5c21.333 36 49.333 64.167 84 84.5s75.334 30.5 122.001 30.5c27.333 0 52 -4.16699 74 -12.5s40.833 -21.166 56.5 -38.499s28 -38.833 37 -64.5
s13.833 -54.834 14.5 -87.501c0.666992 -16.667 0.333984 -31.334 -0.999023 -44.001s-2.66602 -24.334 -3.99902 -35.001h-368c-0.666992 -41.333 4 -77.333 14 -108s24 -55.834 42 -75.501s39.5 -34.334 64.5 -44.001s52.167 -14.5 81.5 -14.5
c14 0 28.167 1.16699 42.5 3.5s28.166 5.33301 41.499 9s25.333 7.83398 36 12.501s19.334 9.33398 26.001 14.001l15 -34c-8.66699 -8.66699 -20 -16.334 -34 -23.001s-29.667 -12.334 -47 -17.001s-35.166 -8.33398 -53.499 -11.001s-35.833 -4 -52.5 -4
c-51.333 0 -94 10.333 -128 31s-60 49.334 -78 86.001c-7.33301 -17.333 -18 -33.166 -32 -47.499s-30.5 -26.5 -49.5 -36.5s-39.833 -17.833 -62.5 -23.5s-46.334 -8.5 -71.001 -8.5c-20.667 0 -41 3.66699 -61 11s-37.5 18 -52.5 32s-26.667 31 -35 51
s-11.833 43.333 -10.5 70zM759.002 324c1.33301 21.333 1.16602 41.667 -0.500977 61s-5 36.833 -10 52.5s-12.167 29.667 -21.5 42s-20.666 21.833 -33.999 28.5c-16.667 9.33301 -36.667 14 -60 14s-44.666 -4.16699 -63.999 -12.5s-36.5 -21 -51.5 -38
s-27.333 -37.667 -37 -62s-15.834 -52.833 -18.501 -85.5h297zM128.002 152.001c0 -19.333 3.00293 -36.167 9.00293 -50.5s14.333 -26.333 25 -36s23.667 -16.834 39 -21.501s32.333 -7 51 -7c16.667 0 32.667 2.33301 48 7s29 11.334 41 20.001s22.333 18.834 31 30.501
s14.667 24.5 18 38.5v35c0 13.333 0.166992 26.833 0.5 40.5s0.5 27.334 0.5 41.001v35.5c-14 0 -30.333 -0.666992 -49 -2s-37.834 -3.83301 -57.501 -7.5s-38.834 -8.83398 -57.501 -15.501s-35.334 -14.834 -50.001 -24.501s-26.5 -21.5 -35.5 -35.5s-13.5 -30 -13.5 -48
z" />
    <glyph glyph-name="ccedilla" unicode="&#xe7;" horiz-adv-x="513" 
d="M259 -9c-33.333 2.66699 -62.665 11.6758 -87.998 27.0088s-46.833 34.833 -64.5 58.5s-31 51.5 -40 83.5s-13.833 66.333 -14.5 103c0 44.667 6.66699 85 20 121s32 67 56 93s52.167 46.167 84.5 60.5s67.166 22.166 104.499 23.499c13.333 0 27 -0.333008 41 -1
s27.333 -2 40 -4s24.167 -4.66699 34.5 -8s18.833 -7 25.5 -11v-105h-36l-20 63c-11.333 8.66699 -25.166 14.5 -41.499 17.5s-32.833 4.5 -49.5 4.5c-25.333 0 -49.333 -4.83301 -72 -14.5s-42.834 -23.667 -60.501 -42s-31.667 -41.333 -42 -69s-15.5 -59.5 -15.5 -95.5
c0 -46.667 5.33301 -86.167 16 -118.5s25.167 -58.5 43.5 -78.5s39 -34.667 62 -44c22.333 -9.33301 45.5 -14 69.5 -14c11.333 0 24 0.833008 38 2.5s27.833 4.16699 41.5 7.5s26.5 7.16602 38.5 11.499s21.667 9.5 29 15.5l14 -35c-8.66699 -8 -19.167 -15 -31.5 -21
s-25.833 -11.167 -40.5 -15.5s-30.167 -7.83301 -46.5 -10.5s-33.166 -4.66699 -50.499 -6c-0.666992 -8 -1.33398 -16.5 -2.00098 -25.5s-0.333984 -17.833 0.999023 -26.5c22.667 0.666992 42.334 -1.33301 59.001 -6s30.5 -11.334 41.5 -20.001s19.333 -18.667 25 -30
s8.5 -23.333 8.5 -36c0 -16 -3.33301 -30.333 -10 -43s-15.667 -23.334 -27 -32.001s-24.5 -15.334 -39.5 -20.001s-30.833 -7.33398 -47.5 -8.00098c-12.667 -0.666992 -23.667 -0.833984 -33 -0.500977s-17.666 1 -24.999 2s-14 2.16699 -20 3.5s-12 3 -18 5v39
c4.66699 -1.33301 10 -2.5 16 -3.5s11.833 -2 17.5 -3s11.334 -1.66699 17.001 -2s10.167 -0.5 13.5 -0.5c9.33301 0 19 0.666992 29 2s19 4.16602 27 8.49902s14.667 10.666 20 18.999s8 19.5 8 33.5c0 10.667 -2 19.834 -6 27.501s-10 13.834 -18 18.501
s-17.333 8.16699 -28 10.5s-22.334 3.5 -35.001 3.5c-4.66699 0 -10.334 -0.333008 -17.001 -1s-11.334 -1.33398 -14.001 -2.00098c0 14.667 1 29.167 3 43.5s5 29.166 9 44.499z" />
    <glyph glyph-name="egrave" unicode="&#xe8;" horiz-adv-x="559" 
d="M345 656c-14.667 10 -31 21.332 -49 33.999s-35.667 25.834 -53 39.501s-33.333 27.5 -48 41.5s-26 27.333 -34 40l52 53l153 -187zM50 270.999c0 41.333 6.66895 79.832 20.002 115.499s31.833 66.5 55.5 92.5s52 46.333 85 61s68.833 22 107.5 22
c28 0 53.5 -4.33301 76.5 -13s42.667 -21.667 59 -39s29 -38.666 38 -63.999s13.833 -54.333 14.5 -87c0.666992 -16.667 0.5 -31.334 -0.5 -44.001s-2.5 -24.334 -4.5 -35.001h-379v-5c-0.666992 -40.667 4.16602 -75.834 14.499 -105.501s24.5 -54.167 42.5 -73.5
s39 -33.666 63 -42.999s49.667 -14 77 -14c15.333 0 31 1 47 3s31.167 4.83301 45.5 8.5s27.333 7.83398 39 12.501s20.834 9.33398 27.501 14.001l15 -34c-9.33301 -8.66699 -21.5 -16.334 -36.5 -23.001s-31.5 -12.334 -49.5 -17.001s-36.833 -8.33398 -56.5 -11.001
s-38.834 -4 -57.501 -4c-39.333 0 -74 6.83301 -104 20.5s-55.333 32.834 -76 57.501s-36.334 54.334 -47.001 89.001s-16 73.334 -16 116.001zM432.002 323.998c1.33301 20.667 1.33691 40.333 0.00390625 59s-4.5 36 -9.5 52s-12.167 30.167 -21.5 42.5
s-21 22.166 -35 29.499c-18.667 10 -40.667 15 -66 15c-22.667 0 -43.834 -4.16699 -63.501 -12.5s-37.334 -20.666 -53.001 -36.999s-28.834 -36.833 -39.501 -61.5s-17.334 -53.667 -20.001 -87h308z" />
    <glyph glyph-name="eacute" unicode="&#xe9;" horiz-adv-x="559" 
d="M239 677l153 187l51 -53c-7.33301 -12 -18.333 -25 -33 -39s-30.667 -27.833 -48 -41.5s-35 -27 -53 -40s-34.333 -24.5 -49 -34.5zM50 271c0 41.333 6.66895 79.832 20.002 115.499s31.833 66.5 55.5 92.5s52 46.333 85 61s68.833 22 107.5 22
c28 0 53.5 -4.33301 76.5 -13s42.667 -21.667 59 -39s29 -38.666 38 -63.999s13.833 -54.333 14.5 -87c0.666992 -16.667 0.5 -31.334 -0.5 -44.001s-2.5 -24.334 -4.5 -35.001h-379v-5c-0.666992 -40.667 4.16602 -75.834 14.499 -105.501s24.5 -54.167 42.5 -73.5
s39 -33.666 63 -42.999s49.667 -14 77 -14c15.333 0 31 1 47 3s31.167 4.83301 45.5 8.5s27.333 7.83398 39 12.501s20.834 9.33398 27.501 14.001l15 -34c-9.33301 -8.66699 -21.5 -16.334 -36.5 -23.001s-31.5 -12.334 -49.5 -17.001s-36.833 -8.33398 -56.5 -11.001
s-38.834 -4 -57.501 -4c-39.333 0 -74 6.83301 -104 20.5s-55.333 32.834 -76 57.501s-36.334 54.334 -47.001 89.001s-16 73.334 -16 116.001zM432.002 323.999c1.33301 20.667 1.33691 40.333 0.00390625 59s-4.5 36 -9.5 52s-12.167 30.167 -21.5 42.5
s-21 22.166 -35 29.499c-18.667 10 -40.667 15 -66 15c-22.667 0 -43.834 -4.16699 -63.501 -12.5s-37.334 -20.666 -53.001 -36.999s-28.834 -36.833 -39.501 -61.5s-17.334 -53.667 -20.001 -87h308z" />
    <glyph glyph-name="ecircumflex" unicode="&#xea;" horiz-adv-x="559" 
d="M125 670l137 195h70l133 -194l-33 -18l-136 149l-141 -149zM50 271c0 41.333 6.66895 79.832 20.002 115.499s31.833 66.5 55.5 92.5s52 46.333 85 61s68.833 22 107.5 22c28 0 53.5 -4.33301 76.5 -13s42.667 -21.667 59 -39s29 -38.666 38 -63.999
s13.833 -54.333 14.5 -87c0.666992 -16.667 0.5 -31.334 -0.5 -44.001s-2.5 -24.334 -4.5 -35.001h-379v-5c-0.666992 -40.667 4.16602 -75.834 14.499 -105.501s24.5 -54.167 42.5 -73.5s39 -33.666 63 -42.999s49.667 -14 77 -14c15.333 0 31 1 47 3
s31.167 4.83301 45.5 8.5s27.333 7.83398 39 12.501s20.834 9.33398 27.501 14.001l15 -34c-9.33301 -8.66699 -21.5 -16.334 -36.5 -23.001s-31.5 -12.334 -49.5 -17.001s-36.833 -8.33398 -56.5 -11.001s-38.834 -4 -57.501 -4c-39.333 0 -74 6.83301 -104 20.5
s-55.333 32.834 -76 57.501s-36.334 54.334 -47.001 89.001s-16 73.334 -16 116.001zM432.002 323.999c1.33301 20.667 1.33691 40.333 0.00390625 59s-4.5 36 -9.5 52s-12.167 30.167 -21.5 42.5s-21 22.166 -35 29.499c-18.667 10 -40.667 15 -66 15
c-22.667 0 -43.834 -4.16699 -63.501 -12.5s-37.334 -20.666 -53.001 -36.999s-28.834 -36.833 -39.501 -61.5s-17.334 -53.667 -20.001 -87h308z" />
    <glyph glyph-name="edieresis" unicode="&#xeb;" horiz-adv-x="559" 
d="M401 696c-6 0 -11.833 1 -17.5 3s-10.834 4.83301 -15.501 8.5s-8.16699 8.33398 -10.5 14.001s-3.5 12.167 -3.5 19.5s1.5 14.333 4.5 21s7.16699 12.5 12.5 17.5s11.5 8.83301 18.5 11.5s13.833 4 20.5 4c16.667 0 29 -4.5 37 -13.5s12 -19.833 12 -32.5
c0 -8 -1.66699 -15.333 -5 -22s-7.66602 -12.334 -12.999 -17.001s-11.5 -8.16699 -18.5 -10.5s-14.167 -3.5 -21.5 -3.5zM179 696c-6 0 -12 1 -18 3s-11.167 4.83301 -15.5 8.5s-7.83301 8.33398 -10.5 14.001s-4 12.167 -4 19.5s1.66699 14.333 5 21
s7.66602 12.5 12.999 17.5s11.5 8.83301 18.5 11.5s13.833 4 20.5 4c16.667 0 29 -4.5 37 -13.5s12 -19.833 12 -32.5c0 -8 -1.66699 -15.333 -5 -22s-7.66602 -12.334 -12.999 -17.001s-11.5 -8.16699 -18.5 -10.5s-14.167 -3.5 -21.5 -3.5zM50 271
c0 41.333 6.66895 79.832 20.002 115.499s31.833 66.5 55.5 92.5s52 46.333 85 61s68.833 22 107.5 22c28 0 53.5 -4.33301 76.5 -13s42.667 -21.667 59 -39s29 -38.666 38 -63.999s13.833 -54.333 14.5 -87c0.666992 -16.667 0.5 -31.334 -0.5 -44.001
s-2.5 -24.334 -4.5 -35.001h-379v-5c-0.666992 -40.667 4.16602 -75.834 14.499 -105.501s24.5 -54.167 42.5 -73.5s39 -33.666 63 -42.999s49.667 -14 77 -14c15.333 0 31 1 47 3s31.167 4.83301 45.5 8.5s27.333 7.83398 39 12.501s20.834 9.33398 27.501 14.001l15 -34
c-9.33301 -8.66699 -21.5 -16.334 -36.5 -23.001s-31.5 -12.334 -49.5 -17.001s-36.833 -8.33398 -56.5 -11.001s-38.834 -4 -57.501 -4c-39.333 0 -74 6.83301 -104 20.5s-55.333 32.834 -76 57.501s-36.334 54.334 -47.001 89.001s-16 73.334 -16 116.001z
M432.002 323.999c1.33301 20.667 1.33691 40.333 0.00390625 59s-4.5 36 -9.5 52s-12.167 30.167 -21.5 42.5s-21 22.166 -35 29.499c-18.667 10 -40.667 15 -66 15c-22.667 0 -43.834 -4.16699 -63.501 -12.5s-37.334 -20.666 -53.001 -36.999
s-28.834 -36.833 -39.501 -61.5s-17.334 -53.667 -20.001 -87h308z" />
    <glyph glyph-name="igrave" unicode="&#xec;" horiz-adv-x="333" 
d="M225 656c-14.667 10 -31 21.332 -49 33.999s-35.667 25.834 -53 39.501s-33.333 27.5 -48 41.5s-26 27.333 -34 40l52 53l153 -187zM68 32.999l81 8v433l-70 25v24l119 30l19 -9v-502l81 -9v-33h-230v33z" />
    <glyph glyph-name="iacute" unicode="&#xed;" horiz-adv-x="333" 
d="M119 677l153.001 187l52 -53c-5.33301 -8 -12 -16.5 -20 -25.5s-17.333 -18 -28 -27s-21.834 -18.167 -33.501 -27.5s-23.5 -18.5 -35.5 -27.5s-23.833 -17.5 -35.5 -25.5s-22.167 -15.333 -31.5 -22zM68.001 33l81 8v433l-70 25v24l119 30l19 -9v-502l81 -9v-33h-230v33
z" />
    <glyph glyph-name="icircumflex" unicode="&#xee;" horiz-adv-x="333" 
d="M5 670l138 195h69l133 -194l-33 -18l-135 149l-142 -149zM68 33l81 8v433l-70 25v24l119 30l19 -9v-502l81 -9v-33h-230v33z" />
    <glyph glyph-name="idieresis" unicode="&#xef;" horiz-adv-x="333" 
d="M282 696c-6 0 -12.001 1 -18.001 3s-11.167 4.83301 -15.5 8.5s-7.83301 8.33398 -10.5 14.001s-4 12.167 -4 19.5s1.66699 14.333 5 21s7.66602 12.5 12.999 17.5s11.333 8.83301 18 11.5s13.667 4 21 4c16.667 0 28.834 -4.5 36.501 -13.5s11.5 -19.833 11.5 -32.5
c0 -8 -1.66699 -15.333 -5 -22s-7.66602 -12.334 -12.999 -17.001s-11.333 -8.16699 -18 -10.5s-13.667 -3.5 -21 -3.5zM59.999 696c-6 0 -12.0029 1 -18.0029 3s-11.167 4.83301 -15.5 8.5s-7.83301 8.33398 -10.5 14.001s-4 12.167 -4 19.5s1.5 14.333 4.5 21
s7.33301 12.5 13 17.5s11.834 8.83301 18.501 11.5s13.334 4 20.001 4c16.667 0 29 -4.5 37 -13.5s12 -19.833 12 -32.5c0 -8 -1.66699 -15.333 -5 -22s-7.66602 -12.334 -12.999 -17.001s-11.333 -8.16699 -18 -10.5s-13.667 -3.5 -21 -3.5zM67.9961 33l81 8v433l-70 25v24
l119 30l19 -9v-502l81 -9v-33h-230v33z" />
    <glyph glyph-name="eth" unicode="&#xf0;" horiz-adv-x="601" 
d="M49 245c0 42.667 6.66895 80.334 20.002 113.001s31.666 59.667 54.999 81s50.166 37.5 80.499 48.5s62.166 16.5 95.499 16.5c16 0 32.333 -1.83301 49 -5.5s32.667 -9 48 -16s29.333 -15.167 42 -24.5s23.667 -19.333 33 -30c-6 28.667 -14.667 56.167 -26 82.5
s-24.5 50.833 -39.5 73.5s-31.5 43.667 -49.5 63s-36.333 37 -55 53l-85 -77l-38 30l83 76c-18 12.667 -35.667 23.167 -53 31.5s-33.666 15.166 -48.999 20.499l9 41c45.333 -14.667 87.666 -34.334 126.999 -59.001c6.66699 6 14.667 13.333 24 22s18.333 17 27 25l30 28
l40 -32c-10 -9.33301 -19.667 -18 -29 -26c-8.66699 -7.33301 -17.5 -15.166 -26.5 -23.499s-17.167 -15.5 -24.5 -21.5c32.667 -24.667 62.334 -52.667 89.001 -84s49.334 -65.666 68.001 -102.999s33 -76.833 43 -118.5s15 -85.5 15 -131.5
c0 -50 -6.66699 -94.167 -20 -132.5s-31.5 -70.666 -54.5 -96.999s-49.833 -46.333 -80.5 -60s-63.334 -20.834 -98.001 -21.501c-38 -0.666992 -72.333 5.16602 -103 17.499s-57 30 -79 53s-38.833 50.5 -50.5 82.5s-17.5 67 -17.5 105zM125.002 250
c0 -28.667 3.66309 -56.5 10.9961 -83.5s18.333 -50.833 33 -71.5s33.334 -37.167 56.001 -49.5s49.334 -18.5 80.001 -18.5c28 0 52.833 7.16699 74.5 21.5s39.5 33 53.5 56s24.667 48.5 32 76.5s11 55.333 11 82v15v18.5c0 6.33301 -0.166992 13 -0.5 20
s-1.16602 13.167 -2.49902 18.5c-4 14 -10.833 28.5 -20.5 43.5s-21.667 28.833 -36 41.5s-31.5 23 -51.5 31s-41.667 12 -65 12c-29.333 0 -55 -5 -77 -15s-40.167 -24.333 -54.5 -43s-25.166 -41.167 -32.499 -67.5s-11 -55.5 -11 -87.5z" />
    <glyph glyph-name="ntilde" unicode="&#xf1;" horiz-adv-x="681" 
d="M166 731c6.66699 10.667 14.667 20.833 24 30.5s19.5 18.167 30.5 25.5s22.833 13.333 35.5 18s25.667 7 39 7c15.333 0 28.833 -3.83301 40.5 -11.5s22.5 -16.167 32.5 -25.5s19.833 -17.833 29.5 -25.5s20.834 -11.5 33.501 -11.5c10 0 19.5 1.5 28.5 4.5
s17.333 7 25 12s14.834 10.667 21.501 17s12.667 12.5 18 18.5l20 -29c-6 -10.667 -13.5 -20.834 -22.5 -30.501s-19.167 -18.167 -30.5 -25.5s-23.333 -13.166 -36 -17.499s-25.667 -6.5 -39 -6.5c-10.667 0 -20.167 1.83301 -28.5 5.5s-16.166 8.16699 -23.499 13.5
s-14.333 11.333 -21 18s-13.334 12.667 -20.001 18s-13.5 9.83301 -20.5 13.5s-14.5 5.5 -22.5 5.5c-10.667 0 -20.5 -1.5 -29.5 -4.5s-17.333 -7.16699 -25 -12.5s-14.834 -11 -21.501 -17s-12.334 -12 -17.001 -18zM67 32.999l69.9971 9v431l-72 26v24l116 30l18 -9v-67
c11.333 8.66699 25.166 17.667 41.499 27s33.833 17.833 52.5 25.5s37.834 14.167 57.501 19.5s37.834 8.33301 54.501 9c30.667 0.666992 56.667 -2.83301 78 -10.5s38.5 -20.834 51.5 -39.501s22.5 -43 28.5 -73s9 -67 9 -111v-282l79 -9v-33h-225v33l75 9v273
c0 34.667 -2 64.167 -6 88.5s-11 44 -21 59s-23.167 25.833 -39.5 32.5s-36.5 9.33398 -60.5 8.00098c-12.667 -0.666992 -26.167 -2.5 -40.5 -5.5s-28.666 -7.16699 -42.999 -12.5s-28.666 -11.5 -42.999 -18.5s-27.5 -14.833 -39.5 -23.5v-401l77 -9v-33h-218v33z" />
    <glyph glyph-name="ograve" unicode="&#xf2;" horiz-adv-x="601" 
d="M355 656c-14.667 10 -31.001 21.332 -49.001 33.999s-35.667 25.834 -53 39.501s-33.166 27.5 -47.499 41.5s-25.833 27.333 -34.5 40l52 53l153 -187zM50.999 283.999c0.666992 42.667 8.16797 81.1699 22.501 115.503s33.333 63.5 57 87.5s51 42.5 82 55.5
s63.5 19.5 97.5 19.5c28 0 53.667 -3.33301 77 -10s44 -16.334 62 -29.001s33.333 -27.667 46 -45s23.167 -36.5 31.5 -57.5s14.5 -43.333 18.5 -67s6 -47.5 6 -71.5c0 -42.667 -6.66699 -82.167 -20 -118.5s-31.333 -67.333 -54 -93s-49.334 -45.834 -80.001 -60.501
s-64 -22 -100 -22c-30 0 -56.833 3.83301 -80.5 11.5s-44.667 18.167 -63 31.5s-34 29.166 -47 47.499s-23.667 38.5 -32 60.5s-14.333 45.333 -18 70s-5.5 49.667 -5.5 75zM301 31.002c28 -0.666992 52.834 4.33008 74.501 14.9971s40 26.334 55 47.001
s26.333 46.5 34 77.5s11.5 66.5 11.5 106.5c0 32.667 -3.16699 63.834 -9.5 93.501s-16.333 55.667 -30 78s-31.334 40 -53.001 53s-47.834 19.833 -78.501 20.5c-28 0 -53.167 -5 -75.5 -15s-41.166 -25.167 -56.499 -45.5s-27 -45.166 -35 -74.499s-12 -62.333 -12 -99
c0 -34 3.33301 -66.5 10 -97.5s17 -58.167 31 -81.5s32.167 -42 54.5 -56s48.833 -21.333 79.5 -22z" />
    <glyph glyph-name="oacute" unicode="&#xf3;" horiz-adv-x="601" 
d="M249 677l152.998 187l52 -53c-8 -12 -19.167 -25 -33.5 -39s-30.166 -27.833 -47.499 -41.5s-35.166 -27 -53.499 -40s-34.833 -24.5 -49.5 -34.5zM50.998 284c0.666992 42.667 8.16797 81.1699 22.501 115.503s33.333 63.5 57 87.5s51 42.5 82 55.5s63.5 19.5 97.5 19.5
c28 0 53.667 -3.33301 77 -10s44 -16.334 62 -29.001s33.333 -27.667 46 -45s23.167 -36.5 31.5 -57.5s14.5 -43.333 18.5 -67s6 -47.5 6 -71.5c0 -42.667 -6.66699 -82.167 -20 -118.5s-31.333 -67.333 -54 -93s-49.334 -45.834 -80.001 -60.501s-64 -22 -100 -22
c-30 0 -56.833 3.83301 -80.5 11.5s-44.667 18.167 -63 31.5s-34 29.166 -47 47.499s-23.667 38.5 -32 60.5s-14.333 45.333 -18 70s-5.5 49.667 -5.5 75zM300.999 31.0029c28 -0.666992 52.834 4.33008 74.501 14.9971s40 26.334 55 47.001s26.333 46.5 34 77.5
s11.5 66.5 11.5 106.5c0 32.667 -3.16699 63.834 -9.5 93.501s-16.333 55.667 -30 78s-31.334 40 -53.001 53s-47.834 19.833 -78.501 20.5c-28 0 -53.167 -5 -75.5 -15s-41.166 -25.167 -56.499 -45.5s-27 -45.166 -35 -74.499s-12 -62.333 -12 -99
c0 -34 3.33301 -66.5 10 -97.5s17 -58.167 31 -81.5s32.167 -42 54.5 -56s48.833 -21.333 79.5 -22z" />
    <glyph glyph-name="ocircumflex" unicode="&#xf4;" horiz-adv-x="601" 
d="M135 670l137 195h70l133 -194l-33 -18l-135 149l-142 -149zM51 284c0.666992 42.667 8.16797 81.1699 22.501 115.503s33.333 63.5 57 87.5s51 42.5 82 55.5s63.5 19.5 97.5 19.5c28 0 53.667 -3.33301 77 -10s44 -16.334 62 -29.001s33.333 -27.667 46 -45
s23.167 -36.5 31.5 -57.5s14.5 -43.333 18.5 -67s6 -47.5 6 -71.5c0 -42.667 -6.66699 -82.167 -20 -118.5s-31.333 -67.333 -54 -93s-49.334 -45.834 -80.001 -60.501s-64 -22 -100 -22c-30 0 -56.833 3.83301 -80.5 11.5s-44.667 18.167 -63 31.5s-34 29.166 -47 47.499
s-23.667 38.5 -32 60.5s-14.333 45.333 -18 70s-5.5 49.667 -5.5 75zM301.001 31.0029c28 -0.666992 52.834 4.33008 74.501 14.9971s40 26.334 55 47.001s26.333 46.5 34 77.5s11.5 66.5 11.5 106.5c0 32.667 -3.16699 63.834 -9.5 93.501s-16.333 55.667 -30 78
s-31.334 40 -53.001 53s-47.834 19.833 -78.501 20.5c-28 0 -53.167 -5 -75.5 -15s-41.166 -25.167 -56.499 -45.5s-27 -45.166 -35 -74.499s-12 -62.333 -12 -99c0 -34 3.33301 -66.5 10 -97.5s17 -58.167 31 -81.5s32.167 -42 54.5 -56s48.833 -21.333 79.5 -22z" />
    <glyph glyph-name="otilde" unicode="&#xf5;" horiz-adv-x="601" 
d="M113 731c6.66699 10.667 14.6689 20.833 24.002 30.5s19.666 18.167 30.999 25.5s23.333 13.333 36 18s25.667 7 39 7c15.333 0 28.833 -3.83301 40.5 -11.5s22.5 -16.167 32.5 -25.5s19.833 -17.833 29.5 -25.5s20.5 -11.5 32.5 -11.5c10 0 19.5 1.5 28.5 4.5
s17.5 7 25.5 12s15.333 10.667 22 17s12.667 12.5 18 18.5l20 -29c-6 -10.667 -13.5 -20.834 -22.5 -30.501s-19.167 -18.167 -30.5 -25.5s-23.5 -13.166 -36.5 -17.499s-25.833 -6.5 -38.5 -6.5c-10.667 0 -20.167 1.83301 -28.5 5.5s-16.166 8.16699 -23.499 13.5
s-14.333 11.333 -21 18s-13.334 12.667 -20.001 18s-13.5 9.83301 -20.5 13.5s-14.5 5.5 -22.5 5.5c-10.667 0 -20.5 -1.5 -29.5 -4.5s-17.333 -7.16699 -25 -12.5s-14.834 -11 -21.501 -17s-12.667 -12 -18 -18zM51.002 283.999
c0.666992 42.667 8.16797 81.1699 22.501 115.503s33.333 63.5 57 87.5s51 42.5 82 55.5s63.5 19.5 97.5 19.5c28 0 53.667 -3.33301 77 -10s44 -16.334 62 -29.001s33.333 -27.667 46 -45s23.167 -36.5 31.5 -57.5s14.5 -43.333 18.5 -67s6 -47.5 6 -71.5
c0 -42.667 -6.66699 -82.167 -20 -118.5s-31.333 -67.333 -54 -93s-49.334 -45.834 -80.001 -60.501s-64 -22 -100 -22c-30 0 -56.833 3.83301 -80.5 11.5s-44.667 18.167 -63 31.5s-34 29.166 -47 47.499s-23.667 38.5 -32 60.5s-14.333 45.333 -18 70s-5.5 49.667 -5.5 75
zM301.003 31.002c28 -0.666992 52.834 4.33008 74.501 14.9971s40 26.334 55 47.001s26.333 46.5 34 77.5s11.5 66.5 11.5 106.5c0 32.667 -3.16699 63.834 -9.5 93.501s-16.333 55.667 -30 78s-31.334 40 -53.001 53s-47.834 19.833 -78.501 20.5
c-28 0 -53.167 -5 -75.5 -15s-41.166 -25.167 -56.499 -45.5s-27 -45.166 -35 -74.499s-12 -62.333 -12 -99c0 -34 3.33301 -66.5 10 -97.5s17 -58.167 31 -81.5s32.167 -42 54.5 -56s48.833 -21.333 79.5 -22z" />
    <glyph glyph-name="odieresis" unicode="&#xf6;" horiz-adv-x="601" 
d="M412 696c-6 0 -12.001 1 -18.001 3s-11.167 4.83301 -15.5 8.5s-7.83301 8.33398 -10.5 14.001s-4 12.167 -4 19.5s1.66699 14.333 5 21s7.66602 12.5 12.999 17.5s11.5 8.83301 18.5 11.5s13.833 4 20.5 4c16.667 0 28.834 -4.5 36.501 -13.5s11.5 -19.833 11.5 -32.5
c0 -8 -1.66699 -15.333 -5 -22s-7.66602 -12.334 -12.999 -17.001s-11.333 -8.16699 -18 -10.5s-13.667 -3.5 -21 -3.5zM188.999 696c-6 0 -11.834 1 -17.501 3s-10.667 4.83301 -15 8.5s-7.83301 8.33398 -10.5 14.001s-4 12.167 -4 19.5s1.66699 14.333 5 21
s7.66602 12.5 12.999 17.5s11.333 8.83301 18 11.5s13.667 4 21 4c16.667 0 28.834 -4.5 36.501 -13.5s11.5 -19.833 11.5 -32.5c0 -8 -1.66699 -15.333 -5 -22s-7.66602 -12.334 -12.999 -17.001s-11.5 -8.16699 -18.5 -10.5s-14.167 -3.5 -21.5 -3.5zM50.998 284
c0.666992 42.667 8.16797 81.1699 22.501 115.503s33.333 63.5 57 87.5s51 42.5 82 55.5s63.5 19.5 97.5 19.5c28 0 53.667 -3.33301 77 -10s44 -16.334 62 -29.001s33.333 -27.667 46 -45s23.167 -36.5 31.5 -57.5s14.5 -43.333 18.5 -67s6 -47.5 6 -71.5
c0 -42.667 -6.66699 -82.167 -20 -118.5s-31.333 -67.333 -54 -93s-49.334 -45.834 -80.001 -60.501s-64 -22 -100 -22c-30 0 -56.833 3.83301 -80.5 11.5s-44.667 18.167 -63 31.5s-34 29.166 -47 47.499s-23.667 38.5 -32 60.5s-14.333 45.333 -18 70s-5.5 49.667 -5.5 75
zM300.999 31.0029c28 -0.666992 52.834 4.33008 74.501 14.9971s40 26.334 55 47.001s26.333 46.5 34 77.5s11.5 66.5 11.5 106.5c0 32.667 -3.16699 63.834 -9.5 93.501s-16.333 55.667 -30 78s-31.334 40 -53.001 53s-47.834 19.833 -78.501 20.5
c-28 0 -53.167 -5 -75.5 -15s-41.166 -25.167 -56.499 -45.5s-27 -45.166 -35 -74.499s-12 -62.333 -12 -99c0 -34 3.33301 -66.5 10 -97.5s17 -58.167 31 -81.5s32.167 -42 54.5 -56s48.833 -21.333 79.5 -22z" />
    <glyph glyph-name="divide" unicode="&#xf7;" horiz-adv-x="619" 
d="M306 527c-6 0 -12 1.16699 -18 3.5s-11.167 5.5 -15.5 9.5s-7.83301 8.83301 -10.5 14.5s-4 12.167 -4 19.5c0 8 1.66699 15.167 5 21.5s7.66602 12 12.999 17s11.5 8.83301 18.5 11.5s13.833 4 20.5 4c16.667 0 29 -4.5 37 -13.5s12 -19.833 12 -32.5
c0 -8 -1.66699 -15.333 -5 -22s-7.66602 -12.5 -12.999 -17.5s-11.5 -8.83301 -18.5 -11.5s-14.167 -4 -21.5 -4zM84 417h452v-54h-452v54zM266 203c0.666992 6.66699 2.99902 12.667 6.99902 18s8.5 10 13.5 14s10.667 6.83301 17 8.5s12.5 2.16699 18.5 1.5
c7.33301 -0.666992 13.333 -2.66699 18 -6s8.33398 -7 11.001 -11s4.33398 -8.66699 5.00098 -14s0.333984 -11 -0.999023 -17c-0.666992 -7.33301 -2.83398 -13.833 -6.50098 -19.5s-8 -10.167 -13 -13.5s-10.667 -5.83301 -17 -7.5s-12.833 -2.16699 -19.5 -1.5
c-10.667 1.33301 -19.334 6.5 -26.001 15.5s-9 19.833 -7 32.5z" />
    <glyph glyph-name="oslash" unicode="&#xf8;" horiz-adv-x="601" 
d="M195 7c-26 10.667 -48.165 25.6699 -66.498 45.0029s-33.333 41.166 -45 65.499s-20 50.666 -25 78.999s-7.5 57.5 -7.5 87.5c0.666992 42.667 8.16699 81.167 22.5 115.5s33.333 63.5 57 87.5s51 42.5 82 55.5s63.5 19.5 97.5 19.5c27.333 0 51.666 -3 72.999 -9l28 82
l32 -12l-27 -81c24 -10.667 44.333 -25 61 -43s30.667 -38.5 42 -61.5s19.5 -47.833 24.5 -74.5s7.5 -53.667 7.5 -81c0 -42.667 -6.66699 -82.167 -20 -118.5s-31.333 -67.333 -54 -93s-49.334 -45.834 -80.001 -60.501s-64 -22 -100 -22c-12.667 0 -24.5 0.666992 -35.5 2
s-21.833 3.33301 -32.5 6l-30 -90l-34 13zM367.002 510.003c-9.33301 3.33301 -19.1689 6.16602 -29.502 8.49902s-21.166 3.5 -32.499 3.5c-28 0 -53.167 -5 -75.5 -15s-41.166 -25.167 -56.499 -45.5s-27 -45.166 -35 -74.499s-12 -62.333 -12 -99
c0 -24.667 1.83301 -48.5 5.5 -71.5s9 -44.5 16 -64.5s16 -38 27 -54s24.167 -29.333 39.5 -40zM245.999 41.0029c16.667 -6.66699 35 -10.001 55 -10.001c28 -0.666992 52.833 4.33301 74.5 15s40 26.334 55 47.001s26.333 46.5 34 77.5s11.5 66.5 11.5 106.5
c0 22.667 -1.5 44.667 -4.5 66s-7.66699 41.333 -14 60s-14.5 35.667 -24.5 51s-22 28.333 -36 39z" />
    <glyph glyph-name="ugrave" unicode="&#xf9;" horiz-adv-x="630" 
d="M350 656c-14.667 10 -31 21.332 -49 33.999s-35.667 25.834 -53 39.501s-33.333 27.5 -48 41.5s-26 27.333 -34 40l52 53l153 -187zM104 496.999l-50.001 9.00195v30l105 20l15 -9v-336c0 -30 1.5 -55.667 4.5 -77s8.66699 -39 17 -53s20.166 -24.167 35.499 -30.5
s35.333 -9.5 60 -9.5c18.667 0 36.834 2.5 54.501 7.5s33.667 11.167 48 18.5s26.666 14.666 36.999 21.999s17.833 13.333 22.5 18v385l-61 10v32l117 22l14 -9v-512h61v-30c-4.66699 -2 -10.167 -4 -16.5 -6s-13.166 -3.83301 -20.499 -5.5s-14.666 -3 -21.999 -4
s-14 -1.5 -20 -1.5c-14.667 0 -25.834 3 -33.501 9s-11.5 15.333 -11.5 28v44c-32 -26.667 -64.5 -46.5 -97.5 -59.5s-66.167 -19.5 -99.5 -19.5c-25.333 0 -47 2.66699 -65 8s-32.833 13 -44.5 23s-20.667 22 -27 36s-11.166 29.667 -14.499 47s-5.5 36.166 -6.5 56.499
s-1.5 41.833 -1.5 64.5v272z" />
    <glyph glyph-name="uacute" unicode="&#xfa;" horiz-adv-x="630" 
d="M244 677l152.001 187l53 -53c-5.33301 -8 -12 -16.5 -20 -25.5s-17.333 -18 -28 -27s-21.834 -18.167 -33.501 -27.5s-23.5 -18.5 -35.5 -27.5s-23.833 -17.5 -35.5 -25.5s-22.167 -15.333 -31.5 -22zM104.001 497l-50.001 9.00195v30l105 20l15 -9v-336
c0 -30 1.5 -55.667 4.5 -77s8.66699 -39 17 -53s20.166 -24.167 35.499 -30.5s35.333 -9.5 60 -9.5c18.667 0 36.834 2.5 54.501 7.5s33.667 11.167 48 18.5s26.666 14.666 36.999 21.999s17.833 13.333 22.5 18v385l-61 10v32l117 22l14 -9v-512h61v-30
c-4.66699 -2 -10.167 -4 -16.5 -6s-13.166 -3.83301 -20.499 -5.5s-14.666 -3 -21.999 -4s-14 -1.5 -20 -1.5c-14.667 0 -25.834 3 -33.501 9s-11.5 15.333 -11.5 28v44c-32 -26.667 -64.5 -46.5 -97.5 -59.5s-66.167 -19.5 -99.5 -19.5c-25.333 0 -47 2.66699 -65 8
s-32.833 13 -44.5 23s-20.667 22 -27 36s-11.166 29.667 -14.499 47s-5.5 36.166 -6.5 56.499s-1.5 41.833 -1.5 64.5v272z" />
    <glyph glyph-name="ucircumflex" unicode="&#xfb;" horiz-adv-x="630" 
d="M130 670l138 195h69l133 -194l-33 -18l-135 149l-142 -149zM104 497l-50.001 9.00195v30l105 20l15 -9v-336c0 -30 1.5 -55.667 4.5 -77s8.66699 -39 17 -53s20.166 -24.167 35.499 -30.5s35.333 -9.5 60 -9.5c18.667 0 36.834 2.5 54.501 7.5s33.667 11.167 48 18.5
s26.666 14.666 36.999 21.999s17.833 13.333 22.5 18v385l-61 10v32l117 22l14 -9v-512h61v-30c-4.66699 -2 -10.167 -4 -16.5 -6s-13.166 -3.83301 -20.499 -5.5s-14.666 -3 -21.999 -4s-14 -1.5 -20 -1.5c-14.667 0 -25.834 3 -33.501 9s-11.5 15.333 -11.5 28v44
c-32 -26.667 -64.5 -46.5 -97.5 -59.5s-66.167 -19.5 -99.5 -19.5c-25.333 0 -47 2.66699 -65 8s-32.833 13 -44.5 23s-20.667 22 -27 36s-11.166 29.667 -14.499 47s-5.5 36.166 -6.5 56.499s-1.5 41.833 -1.5 64.5v272z" />
    <glyph glyph-name="udieresis" unicode="&#xfc;" horiz-adv-x="630" 
d="M407 696c-6 0 -12.001 1 -18.001 3s-11.167 4.83301 -15.5 8.5s-7.83301 8.33398 -10.5 14.001s-4 12.167 -4 19.5s1.66699 14.333 5 21s7.66602 12.5 12.999 17.5s11.333 8.83301 18 11.5s13.667 4 21 4c16.667 0 28.834 -4.5 36.501 -13.5s11.5 -19.833 11.5 -32.5
c0 -8 -1.66699 -15.333 -5 -22s-7.66602 -12.334 -12.999 -17.001s-11.333 -8.16699 -18 -10.5s-13.667 -3.5 -21 -3.5zM184.999 696c-6 0 -12.0029 1 -18.0029 3s-11.167 4.83301 -15.5 8.5s-7.83301 8.33398 -10.5 14.001s-4 12.167 -4 19.5s1.5 14.333 4.5 21
s7.33301 12.5 13 17.5s11.834 8.83301 18.501 11.5s13.334 4 20.001 4c16.667 0 29 -4.5 37 -13.5s12 -19.833 12 -32.5c0 -8 -1.66699 -15.333 -5 -22s-7.66602 -12.334 -12.999 -17.001s-11.333 -8.16699 -18 -10.5s-13.667 -3.5 -21 -3.5zM103.996 497l-50.001 9.00195
v30l105 20l15 -9v-336c0 -30 1.5 -55.667 4.5 -77s8.66699 -39 17 -53s20.166 -24.167 35.499 -30.5s35.333 -9.5 60 -9.5c18.667 0 36.834 2.5 54.501 7.5s33.667 11.167 48 18.5s26.666 14.666 36.999 21.999s17.833 13.333 22.5 18v385l-61 10v32l117 22l14 -9v-512h61
v-30c-4.66699 -2 -10.167 -4 -16.5 -6s-13.166 -3.83301 -20.499 -5.5s-14.666 -3 -21.999 -4s-14 -1.5 -20 -1.5c-14.667 0 -25.834 3 -33.501 9s-11.5 15.333 -11.5 28v44c-32 -26.667 -64.5 -46.5 -97.5 -59.5s-66.167 -19.5 -99.5 -19.5c-25.333 0 -47 2.66699 -65 8
s-32.833 13 -44.5 23s-20.667 22 -27 36s-11.166 29.667 -14.499 47s-5.5 36.166 -6.5 56.499s-1.5 41.833 -1.5 64.5v272z" />
    <glyph glyph-name="yacute" unicode="&#xfd;" horiz-adv-x="561" 
d="M241 677l152.998 187l52 -53c-8 -12 -19.167 -25 -33.5 -39s-30.166 -27.833 -47.499 -41.5s-35.166 -27 -53.499 -40s-34.833 -24.5 -49.5 -34.5zM72.998 -184c5.33301 -1.33301 11.835 -2.66797 19.502 -4.00098s14.167 -2 19.5 -2c12 0 25.333 2.16699 40 6.5
s29.5 13.166 44.5 26.499s29.833 31.666 44.5 54.999s27.667 53.333 39 90h-13l-205 511l-61 7v40h220v-40l-81 -7l125 -342l44 -124l33 116l108 351l-80 6v40h202v-40l-61 -6c-21.333 -64 -40 -120.167 -56 -168.5s-30 -90.5 -42 -126.5s-22.333 -66.5 -31 -91.5
s-16 -46 -22 -63s-10.833 -30.667 -14.5 -41s-6.83398 -18.833 -9.50098 -25.5c-12.667 -32.667 -25.5 -62.167 -38.5 -88.5s-26.667 -49.166 -41 -68.499s-29.833 -35.166 -46.5 -47.499s-35.334 -21.166 -56.001 -26.499c-12.667 -3.33301 -26.667 -4.66602 -42 -3.99902
c-3.33301 0 -7 0.166992 -11 0.5s-7.83301 0.666016 -11.5 0.999023s-7 1 -10 2s-5.16699 2.16699 -6.5 3.5v60z" />
    <glyph glyph-name="thorn" unicode="&#xfe;" horiz-adv-x="619" 
d="M107 732l-82.999 13v33l137 14l17 -8v-286c10 8 21 15.833 33 23.5s25 14.5 39 20.5s29.5 11 46.5 15s34.833 6 53.5 6c28 0 55 -4.83301 81 -14.5s49.167 -25.167 69.5 -46.5s36.666 -48.833 48.999 -82.5s18.5 -75.167 18.5 -124.5
c0 -42.667 -6.66699 -82.667 -20 -120s-32.166 -70 -56.499 -98s-53.5 -50.167 -87.5 -66.5s-71.333 -24.5 -112 -24.5c-22 0 -42.833 1.33301 -62.5 4s-37.834 5.66699 -54.501 9l2 -48v-159l113 -9v-33h-258v33l75 10v55.5v65v62v48.5v708zM178.001 65
c2.66699 -6.66699 7.83398 -12.335 15.501 -17.002s17.167 -8.66699 28.5 -12s23.666 -5.66602 36.999 -6.99902s27 -2 41 -2c24.667 0 48.834 5.16699 72.501 15.5s44.667 25.833 63 46.5s33.166 46.667 44.499 78s17.333 68.333 18 111c0 42.667 -4.83301 79 -14.5 109
s-22.667 54 -39 72s-35.166 31.167 -56.499 39.5s-43.333 12.5 -66 12.5c-14 0 -27.833 -1.5 -41.5 -4.5s-26.834 -6.83301 -39.501 -11.5s-24.5 -10.167 -35.5 -16.5s-20.167 -13.166 -27.5 -20.499v-393z" />
    <glyph glyph-name="ydieresis" unicode="&#xff;" horiz-adv-x="561" 
d="M404 696c-6 0 -12 1 -18 3s-11.167 4.83301 -15.5 8.5s-7.83301 8.33398 -10.5 14.001s-4 12.167 -4 19.5s1.66699 14.333 5 21s7.66602 12.5 12.999 17.5s11.5 8.83301 18.5 11.5s13.833 4 20.5 4c16.667 0 28.834 -4.5 36.501 -13.5s11.5 -19.833 11.5 -32.5
c0 -8 -1.5 -15.333 -4.5 -22s-7.16699 -12.334 -12.5 -17.001s-11.5 -8.16699 -18.5 -10.5s-14.167 -3.5 -21.5 -3.5zM182 696c-6 0 -12.001 1 -18.001 3s-11.167 4.83301 -15.5 8.5s-7.83301 8.33398 -10.5 14.001s-4 12.167 -4 19.5s1.66699 14.333 5 21
s7.66602 12.5 12.999 17.5s11.5 8.83301 18.5 11.5s13.833 4 20.5 4c16.667 0 28.834 -4.5 36.501 -13.5s11.5 -19.833 11.5 -32.5c0 -8 -1.66699 -15.333 -5 -22s-7.66602 -12.334 -12.999 -17.001s-11.333 -8.16699 -18 -10.5s-13.667 -3.5 -21 -3.5zM72.999 -184
c5.33301 -1.33301 11.835 -2.66797 19.502 -4.00098s14.167 -2 19.5 -2c12 0 25.333 2.16699 40 6.5s29.5 13.166 44.5 26.499s29.833 31.666 44.5 54.999s27.667 53.333 39 90h-13l-205 511l-61 7v40h220v-40l-81 -7l125 -342l44 -124l33 116l108 351l-80 6v40h202v-40
l-61 -6c-21.333 -64 -40 -120.167 -56 -168.5s-30 -90.5 -42 -126.5s-22.333 -66.5 -31 -91.5s-16 -46 -22 -63s-10.833 -30.667 -14.5 -41s-6.83398 -18.833 -9.50098 -25.5c-12.667 -32.667 -25.5 -62.167 -38.5 -88.5s-26.667 -49.166 -41 -68.499
s-29.833 -35.166 -46.5 -47.499s-35.334 -21.166 -56.001 -26.499c-12.667 -3.33301 -26.667 -4.66602 -42 -3.99902c-3.33301 0 -7 0.166992 -11 0.5s-7.83301 0.666016 -11.5 0.999023s-7 1 -10 2s-5.16699 2.16699 -6.5 3.5v60z" />
    <glyph glyph-name="Aogonek" unicode="&#x104;" horiz-adv-x="729" 
d="M1 33l70.9961 11.002l263 718h59l255 -718l81 -11v-33h-84c-9.33301 -2.66699 -19.833 -6.66699 -31.5 -12s-23.334 -11.666 -35.001 -18.999s-23.167 -15.666 -34.5 -24.999s-21.333 -18.833 -30 -28.5s-15.667 -19.667 -21 -30s-8 -20.5 -8 -30.5
c0 -22.667 5.83301 -38.834 17.5 -48.501s29.167 -14.834 52.5 -15.501c10.667 -0.666992 21.334 0.333008 32.001 3s20.834 6 30.501 10s18.334 8.16699 26.001 12.5s13.834 7.83301 18.501 10.5l9 -35c-6.66699 -4.66699 -14.667 -10 -24 -16s-20.333 -11.667 -33 -17
s-27 -9.5 -43 -12.5s-34 -4.16699 -54 -3.5c-16.667 0.666992 -31 3.66699 -43 9s-22.167 12.166 -30.5 20.499s-14.5 17.833 -18.5 28.5s-6 22 -6 34c0 16 4.33301 32.167 13 48.5s20.334 31.833 35.001 46.5s31 28.167 49 40.5s36.667 22.166 56 29.499h-81v33l82 11
l-62 178h-315l-61 -178l85 -11v-33h-220v33zM496.996 267.002l-105 299l-36 114l-144 -413h285z" />
    <glyph glyph-name="aogonek" unicode="&#x105;" horiz-adv-x="559" 
d="M57 152c2 22.667 8.83789 42.668 20.5049 60.001s26.5 32.333 44.5 45s38.5 23.334 61.5 32.001s46.667 15.667 71 21s48.333 9.16602 72 11.499s45.834 3.5 66.501 3.5v43c0 27.333 -3.33301 49.833 -10 67.5s-16.167 31.834 -28.5 42.501s-27.333 18 -45 22
s-37.834 6 -60.501 6c-12.667 0 -26.167 -1.16699 -40.5 -3.5s-28.5 -5.66602 -42.5 -9.99902s-27.667 -9 -41 -14s-24.333 -10.5 -33 -16.5l-14 35c12 10 26.667 18.667 44 26s35.333 13.5 54 18.5s36.5 8.66699 53.5 11s31.5 3.5 43.5 3.5c26 0 50.5 -2.5 73.5 -7.5
s43.333 -14.333 61 -28s31.5 -32 41.5 -55s15 -52.5 15 -88.5l-1 -342h64v-27l-2 -2l8 2c-18.667 -6.66699 -37.667 -14.834 -57 -24.501s-37 -20.667 -53 -33s-28.833 -25.666 -38.5 -39.999s-14.5 -29.833 -14.5 -46.5c0 -14 2.66699 -25.833 8 -35.5
s12.333 -17.167 21 -22.5s18.5 -8.83301 29.5 -10.5s22.5 -1.83398 34.5 -0.500977s23.667 4 35 8s21.666 8.66699 30.999 14v-34c-11.333 -8.66699 -24.5 -16 -39.5 -22s-30.833 -10 -47.5 -12s-33.334 -1.83301 -50.001 0.5s-31.667 7.16602 -45 14.499
s-24 17.666 -32 30.999s-12 30 -12 50c0 18 4.5 34.833 13.5 50.5s20.167 29.834 33.5 42.501s27.666 23.667 42.999 33s29.333 16.333 42 21c-4.66699 0 -9.33398 0.666992 -14.001 2s-8.83398 3.66602 -12.501 6.99902s-6.5 8 -8.5 14s-3 14 -3 24v20
c-9.33301 -10.667 -19.5 -20.167 -30.5 -28.5s-23.667 -15.5 -38 -21.5s-30.5 -10.833 -48.5 -14.5s-37.667 -5.5 -59 -5.5c-22 0 -43.167 3.66699 -63.5 11s-38.166 17.833 -53.499 31.5s-27.333 30.5 -36 50.5s-12.334 43.333 -11.001 70zM128.005 151.001
c0 -20 3 -37.1699 9 -51.5029s14.833 -26.166 26.5 -35.499s25.334 -16.166 41.001 -20.499s33.167 -6.5 52.5 -6.5c17.333 0 33.333 1.83301 48 5.5s27.667 8.33398 39 14.001s21.166 11.5 29.499 17.5s14.833 10.667 19.5 14v41v49.5v53.5v53
c-17.333 0 -36 -0.833008 -56 -2.5s-39.833 -4.5 -59.5 -8.5s-38.5 -9.33301 -56.5 -16s-33.833 -15 -47.5 -25s-24.667 -21.833 -33 -35.5s-12.5 -29.167 -12.5 -46.5z" />
    <glyph glyph-name="Eogonek" unicode="&#x118;" horiz-adv-x="644" 
d="M50 33l87.998 11.002v669l-86 8v37h506l14 -139h-41l-23 94l-299 6v-297l200 4l12 78h39v-207h-39l-12 82l-200 3v-341l322 8l44 114l36 -9l-22 -154c-9.33301 -2.66699 -19.666 -6.66699 -30.999 -12s-23 -11.666 -35 -18.999s-23.667 -15.666 -35 -24.999
s-21.333 -18.833 -30 -28.5s-15.667 -19.667 -21 -30s-8 -20.5 -8 -30.5c0 -22.667 5.83301 -38.834 17.5 -48.501s29.5 -14.834 53.5 -15.501c10.667 -0.666992 21.167 0.333008 31.5 3s20.333 6 30 10s18.334 8.16699 26.001 12.5s13.834 7.83301 18.501 10.5l9 -35
c-6.66699 -4.66699 -14.5 -10 -23.5 -16s-19.833 -11.667 -32.5 -17s-27.167 -9.5 -43.5 -12.5s-34.5 -4.16699 -54.5 -3.5c-16.667 0.666992 -31.167 3.66699 -43.5 9s-22.5 12.166 -30.5 20.499s-14 17.833 -18 28.5s-6 22 -6 34c0 16 4.5 32.167 13.5 48.5
s20.667 31.833 35 46.5s30.666 28.167 48.999 40.5s36.833 22.166 55.5 29.499h-466v33z" />
    <glyph glyph-name="eogonek" unicode="&#x119;" horiz-adv-x="559" 
d="M50 271c0 41.333 6.67188 79.8291 20.0049 115.496s31.833 66.5 55.5 92.5s52 46.333 85 61s68.833 22 107.5 22c28 0 53.5 -4.33301 76.5 -13s42.667 -21.667 59 -39s29 -38.666 38 -63.999s13.833 -54.333 14.5 -87c0.666992 -16.667 0.5 -31.334 -0.5 -44.001
s-2.5 -24.334 -4.5 -35.001h-379v-5c-0.666992 -40.667 4.16602 -75.834 14.499 -105.501s24.5 -54.167 42.5 -73.5s39 -33.666 63 -42.999s49.667 -14 77 -14c15.333 0 31 1 47 3s31.167 4.83301 45.5 8.5s27.333 7.83398 39 12.501s20.834 9.33398 27.501 14.001l15 -34
c-0.666992 0 -1 -0.166992 -1 -0.5s-0.333008 -0.833008 -1 -1.5l4 1c-20.667 -15.333 -40.5 -30.166 -59.5 -44.499s-35.833 -28.5 -50.5 -42.5s-26.5 -28 -35.5 -42s-13.5 -28.667 -13.5 -44c0 -20.667 5.83301 -36.5 17.5 -47.5s25.667 -18.167 42 -21.5
s33.666 -3 51.999 1s34.5 10.333 48.5 19v-37c-10.667 -8.66699 -23.834 -15.834 -39.501 -21.501s-31.834 -9.16699 -48.501 -10.5s-33.334 -0.666016 -50.001 2.00098s-31.5 8 -44.5 16s-23.5 18.667 -31.5 32s-12 30.333 -12 51c0 13.333 2.83301 26.5 8.5 39.5
s13.167 25.833 22.5 38.5s20.5 24.667 33.5 36s27.167 21.666 42.5 30.999c-28.667 -5.33301 -56.667 -8.33301 -84 -9c-39.333 0 -74 6.83301 -104 20.5s-55.333 32.834 -76 57.501s-36.334 54.334 -47.001 89.001s-16 73.334 -16 116.001zM432.005 323.996
c1.33301 20.667 1.33691 40.333 0.00390625 59s-4.5 36 -9.5 52s-12.167 30.167 -21.5 42.5s-21 22.166 -35 29.499c-18.667 10 -40.667 15 -66 15c-22.667 0 -43.834 -4.16699 -63.501 -12.5s-37.334 -20.666 -53.001 -36.999s-28.834 -36.833 -39.501 -61.5
s-17.334 -53.667 -20.001 -87h308z" />
    <glyph glyph-name="hbar" unicode="&#x127;" horiz-adv-x="685" 
d="M64 33l74.0039 9.00293v560h-87v45h87v83l-83 12v34l134 16l19 -10v-135h103v-45h-103v-50l-1 -72c14 11.333 29.833 21.666 47.5 30.999s35.667 17.5 54 24.5s36.166 12.5 53.499 16.5s32.666 6 45.999 6c33.333 0 60.666 -4.83301 81.999 -14.5
s38.5 -24.834 51.5 -45.501s21.833 -47.667 26.5 -81s7 -73.666 7 -120.999v-254l75 -9v-33h-227v33l81 9v226c0 42 -1.5 77.833 -4.5 107.5s-9.16699 54 -18.5 73s-22.333 32.833 -39 41.5s-38.334 13 -65.001 13c-12 0 -25.5 -1.33301 -40.5 -4s-30 -6.33398 -45 -11.001
s-29.667 -10.334 -44 -17.001s-27.5 -14 -39.5 -22v-407l77 -9v-33h-221v33z" />
    <glyph glyph-name="Itilde" unicode="&#x128;" horiz-adv-x="372" 
d="M-3 859c6 10.667 13.834 20.834 23.501 30.501s20 18 31 25s22.833 12.667 35.5 17s25.667 6.5 39 6.5c15.333 0 28.833 -3.66699 40.5 -11s22.5 -15.5 32.5 -24.5s19.833 -17.167 29.5 -24.5s20.834 -11 33.501 -11c10 0 19.5 1.33301 28.5 4s17.5 6.16699 25.5 10.5
s15.167 9.33301 21.5 15s12.166 11.834 17.499 18.501l20 -30c-6 -10.667 -13.5 -20.667 -22.5 -30s-19.167 -17.5 -30.5 -24.5s-23.333 -12.667 -36 -17s-25.334 -6.5 -38.001 -6.5c-10.667 0 -20.334 1.83301 -29.001 5.5s-16.667 8 -24 13s-14.166 10.833 -20.499 17.5
s-12.833 12.5 -19.5 17.5s-13.5 9.33301 -20.5 13s-14.833 5.5 -23.5 5.5c-10 0 -19.333 -1.33301 -28 -4s-17 -6.33398 -25 -11.001s-15.5 -9.83398 -22.5 -15.501s-12.833 -11.5 -17.5 -17.5zM66.001 33l83 11v670l-81 7v37h235v-37l-82 -7v-670l86 -11v-33h-241v33z" />
    <glyph glyph-name="itilde" unicode="&#x129;" horiz-adv-x="333" 
d="M-17 731c6 10.667 13.834 20.833 23.501 30.5s20.167 18.167 31.5 25.5s23.333 13.333 36 18s25.667 7 39 7c15.333 0 28.666 -3.83301 39.999 -11.5s22 -16.167 32 -25.5s19.833 -17.833 29.5 -25.5s20.834 -11.5 33.501 -11.5c10 0 19.667 1.5 29 4.5s17.833 7 25.5 12
s14.667 10.667 21 17l18.5 18.5l20 -29c-6 -10.667 -13.667 -20.834 -23 -30.501s-19.5 -18.167 -30.5 -25.5s-23 -13.166 -36 -17.499s-25.833 -6.5 -38.5 -6.5c-10.667 0 -20.167 1.83301 -28.5 5.5s-16.166 8.16699 -23.499 13.5s-14.333 11.333 -21 18
s-13.334 12.667 -20.001 18s-13.5 9.83301 -20.5 13.5s-14.5 5.5 -22.5 5.5c-10.667 0 -20.5 -1.5 -29.5 -4.5s-17.333 -7.16699 -25 -12.5s-14.834 -11 -21.501 -17s-12.667 -12 -18 -18zM68.001 32.999l81 8v433l-70 25v24l119 30l19 -9v-502l81 -9v-33h-230v33z" />
    <glyph glyph-name="dotlessi" unicode="&#x131;" horiz-adv-x="333" 
d="M68 33l81 8v433l-70 25v24l119 30l19 -9v-502l81 -9v-33h-230v33z" />
    <glyph glyph-name="IJ" unicode="&#x132;" horiz-adv-x="724" 
d="M331 -160c40 10.667 74.167 27.168 102.5 49.501s48.833 49.5 61.5 81.5c4.66699 14 8.33398 29 11.001 45s4.83398 33.167 6.50098 51.5s2.66699 38 3 59s0.5 44.167 0.5 69.5v518l-86 7v37h246v-37l-88 -7v-482v-115c0 -36 -3 -69.333 -9 -100
c-6 -29.333 -16.5 -55.833 -31.5 -79.5s-32.833 -44.334 -53.5 -62.001s-43.334 -32 -68.001 -43s-49.334 -18.167 -74.001 -21.5zM66 33.001l83 11v670l-81 7v37h235v-37l-82 -7v-670l86 -11v-33h-241v33z" />
    <glyph glyph-name="ij" unicode="&#x133;" horiz-adv-x="650" 
d="M166 691c-6 0 -12 1.00098 -18 3.00098s-11.167 5.16699 -15.5 9.5s-7.83301 9.33301 -10.5 15s-4 12.167 -4 19.5c0 8 1.66699 15.5 5 22.5s7.66602 13 12.999 18s11.5 8.83301 18.5 11.5s13.833 4 20.5 4c16.667 0 29 -4.5 37 -13.5s12 -20.167 12 -33.5
c0 -8.66699 -1.66699 -16.5 -5 -23.5s-7.66602 -12.833 -12.999 -17.5s-11.5 -8.33398 -18.5 -11.001s-14.167 -4 -21.5 -4zM498 688.001c-6 0 -12 1 -18 3s-11.167 5 -15.5 9s-7.83301 9 -10.5 15s-4 12.667 -4 20c0 8 1.66699 15.5 5 22.5s7.66602 13 12.999 18
s11.5 8.83301 18.5 11.5s13.833 4 20.5 4c16.667 0 29 -4.66699 37 -14s12 -20.666 12 -33.999c0 -8.66699 -1.66699 -16.334 -5 -23.001s-7.66602 -12.5 -12.999 -17.5s-11.5 -8.66699 -18.5 -11s-14.167 -3.5 -21.5 -3.5zM68 33.001l81 8v433l-70 25v24l119 30l19 -9v-502
l81 -9v-33h-230v33zM329 -192.999c2.66699 -0.666992 6.33105 -1.33105 10.998 -1.99805s9.66699 -1.33398 15 -2.00098s10.5 -1 15.5 -1h11.5c15.333 0 29.333 3 42 9s23.167 16.5 31.5 31.5s14.666 35.167 18.999 60.5s6.5 57.333 6.5 96v475l-73 25v24l124 30l18 -9v-552
c0 -38 -3.66699 -72 -11 -102s-18.166 -55.5 -32.499 -76.5s-32 -37 -53 -48s-44.833 -16.5 -71.5 -16.5c-3.33301 0 -7.83301 0.166992 -13.5 0.5s-11.167 0.666016 -16.5 0.999023s-10.166 1 -14.499 2s-7.16602 2.16699 -8.49902 3.5v51z" />
    <glyph glyph-name="Jcircumflex" unicode="&#x134;" horiz-adv-x="351" 
d="M13 808l131 130h71l132 -129l-35 -19l-132 97l-137 -97zM122 -29c4.66699 14 8.50293 29 11.5029 45s5.16699 33.167 6.5 51.5s2.16602 38 2.49902 59s0.5 44.167 0.5 69.5v518l-86 7v37h246v-37l-88 -7v-482v-115c0 -36 -2.66699 -69.333 -8 -100
c-6 -29.333 -16.667 -55.833 -32 -79.5s-33.333 -44.334 -54 -62.001s-43.334 -32 -68.001 -43s-49.334 -18.167 -74.001 -21.5l-21 29c40 10.667 74.167 27.334 102.5 50.001s48.833 49.667 61.5 81z" />
    <glyph glyph-name="jcircumflex" unicode="&#x135;" horiz-adv-x="317" 
d="M11 670l136 195h70l133 -194l-33 -18l-135 149l-141 -149zM148 474l-74.001 25.002v24l124 30l19 -9v-552c0 -38 -3.66699 -72 -11 -102s-18.166 -55.5 -32.499 -76.5s-32 -37 -53 -48s-45.167 -16.5 -72.5 -16.5c-3.33301 0 -7.66602 0.166992 -12.999 0.5l-16 1
c-5.33301 0.333008 -10.333 1 -15 2s-7.66699 2.16699 -9 3.5v51c2.66699 -0.666992 6.5 -1.33398 11.5 -2.00098s10.167 -1.33398 15.5 -2.00098s10.333 -1 15 -1h12c15.333 0 29.166 3 41.499 9s22.833 16.5 31.5 31.5s15.167 35.167 19.5 60.5s6.5 57.333 6.5 96v475z
" />
    <glyph glyph-name="Kcommaaccent" unicode="&#x136;" horiz-adv-x="692" 
d="M52 33l79.002 11.0029v670l-78 7v37h229v-37l-78 -7v-364l312 363l-78 8c0 5.33301 -0.166992 11.5 -0.5 18.5s-0.5 13.167 -0.5 18.5h225v-37l-78 -8l-245 -276c7.33301 -8 16.666 -19.833 27.999 -35.5s23.666 -33.334 36.999 -53.001s27.5 -40.834 42.5 -63.501
s29.833 -45.167 44.5 -67.5s29 -43.833 43 -64.5s26.833 -38.834 38.5 -54.501s21.667 -28.167 30 -37.5s14.833 -14 19.5 -14l74 -14v-33h-128c-4 0 -10.167 4.66699 -18.5 14s-17.833 21.833 -28.5 37.5s-22.5 33.667 -35.5 54s-26.333 41.666 -40 63.999
s-27.5 44.833 -41.5 67.5s-27.5 43.834 -40.5 63.501s-25.167 37.167 -36.5 52.5s-21.333 27.333 -30 36l-93 -106v-239l86 -11v-33h-238v33zM372.002 -35.9971c16 -2.66699 29.999 -7.83496 41.999 -15.502s22.167 -16.667 30.5 -27s14.5 -21.5 18.5 -33.5s6 -23.667 6 -35
c0 -20.667 -3.5 -40 -10.5 -58s-16.167 -34.333 -27.5 -49s-23.666 -27 -36.999 -37s-26 -17 -38 -21l-21 18v13c10 4 18.667 10.167 26 18.5s13.5 17.833 18.5 28.5s8.83301 22.167 11.5 34.5s4 24.5 4 36.5c0 10.667 -2 20.334 -6 29.001s-9 15.834 -15 21.501
s-12.333 10.167 -19 13.5s-13 5 -19 5v21z" />
    <glyph glyph-name="kcommaaccent" unicode="&#x137;" horiz-adv-x="622" 
d="M59 33l79 9v688l-86 12v34l140 16l17 -10v-409l-2 -109l248 241l-73 6v40h214v-39l-75 -7l-182 -174l219 -289l72 -9v-33h-223v33l72 9l-183 253l-89 -84l2 -115v-54l76 -9v-33h-226v33zM328 -36c16 -2.66699 29.999 -7.83496 41.999 -15.502s22 -16.667 30 -27
s14.167 -21.5 18.5 -33.5s6.5 -23.667 6.5 -35c0 -20.667 -3.5 -40 -10.5 -58s-16.167 -34.333 -27.5 -49s-23.666 -27 -36.999 -37s-26 -17 -38 -21l-20 18v13c10 4 18.5 10.167 25.5 18.5s13 17.833 18 28.5s8.83301 22.167 11.5 34.5s4 24.5 4 36.5
c0 10.667 -2 20.334 -6 29.001s-9 15.834 -15 21.501s-12.333 10.167 -19 13.5s-13 5 -19 5v21z" />
    <glyph glyph-name="kgreenlandic" unicode="&#x138;" horiz-adv-x="622" 
d="M59 33l79 9v453l-86 12v34l140 16l17 -11v-202l-2 -80l248 241l-73 6v40h214v-39l-75 -7l-182 -174l219 -289l72 -9v-33h-223v33l72 9l-183 253l-89 -84l2 -115v-54l76 -9v-33h-226v33z" />
    <glyph glyph-name="Ldotaccent" unicode="&#x13f;" horiz-adv-x="679" 
d="M52 33l88 12v665l-86 7v41h253v-41l-95 -7l-1 -668l296 9l53 120l33 -16l-32 -155h-509v33zM576 370c-10.667 1.33301 -19.3359 6.32715 -26.0029 14.9941s-9 19.334 -7 32.001c0.666992 6.66699 3 12.834 7 18.501s8.66699 10.334 14 14.001s11 6.33398 17 8.00098
s12 2.16699 18 1.5c7.33301 -0.666992 13.333 -2.5 18 -5.5s8.33398 -6.66699 11.001 -11s4.33398 -9.33301 5.00098 -15s0.333984 -11.167 -0.999023 -16.5c-0.666992 -7.33301 -2.83398 -13.666 -6.50098 -18.999s-8.16699 -9.83301 -13.5 -13.5
s-11.166 -6.16699 -17.499 -7.5s-12.5 -1.66602 -18.5 -0.999023z" />
    <glyph glyph-name="ldot" unicode="&#x140;" horiz-adv-x="493" 
d="M67 33l81 9v688l-79 12v34l133 16l17 -10v-741l86 -8v-33h-238v33zM412 351c-10.667 1.33301 -19.5 6.32715 -26.5 14.9941s-9.16699 19.334 -6.5 32.001c0.666992 6.66699 3 12.834 7 18.501s8.5 10.334 13.5 14.001s10.667 6.33398 17 8.00098s12.5 2.16699 18.5 1.5
c7.33301 -0.666992 13.166 -2.5 17.499 -5.5s8 -6.66699 11 -11s4.83301 -9.33301 5.5 -15s0.333984 -11.167 -0.999023 -16.5c-0.666992 -7.33301 -2.83398 -13.666 -6.50098 -18.999s-8.16699 -9.83301 -13.5 -13.5s-11.166 -6.16699 -17.499 -7.5
s-12.5 -1.66602 -18.5 -0.999023z" />
    <glyph glyph-name="Lslash" unicode="&#x141;" horiz-adv-x="607" 
d="M52 33l88.001 12.001v242l-97 -38v26v18.5v9.5l7.5 3l20 8c8.33301 3.33301 18.5 7.5 30.5 12.5s25 10.5 39 16.5v367l-86 7v41h253v-41l-95 -7l-1 -337c14.667 6 30 12.167 46 18.5s31.667 12.666 47 18.999s30.166 12.5 44.499 18.5s27.833 11.333 40.5 16
c30 12.667 58.667 24.667 86 36v-59l-264 -106v-274l296 9l53 120l33 -16l-32 -155h-509v33z" />
    <glyph glyph-name="lslash" unicode="&#x142;" horiz-adv-x="340" 
d="M67 33l81 9v347l-88 -35v51l88 36v289l-79 12v34l133 16l17 -10v-312l97 41v-55l-97 -39v-376l86 -8v-33h-238v33z" />
    <glyph glyph-name="Nacute" unicode="&#x143;" horiz-adv-x="811" 
d="M387 806l143.998 132.001l52 -54c-11.333 -9.33301 -24.166 -18.5 -38.499 -27.5s-29.166 -17.833 -44.499 -26.5s-31 -16.834 -47 -24.501s-31.333 -14.5 -46 -20.5zM50.998 33.001l86 11v666l-83 7v41h159l351 -563l72 -133v648l-85 8v40h223v-40l-85 -8v-710h-79
l-347 543l-72 137v-89.5v-110c0 -39 -0.166992 -79 -0.5 -120s-0.5 -80.833 -0.5 -119.5v-109v-88l101 -11v-33h-240v33z" />
    <glyph glyph-name="nacute" unicode="&#x144;" horiz-adv-x="681" 
d="M301 677l152.998 187l52 -53c-8 -12 -19.167 -25 -33.5 -39s-30.166 -27.833 -47.499 -41.5s-35.166 -27 -53.499 -40s-34.833 -24.5 -49.5 -34.5zM66.998 33l69.9971 9v431l-72 26v24l116 30l18 -9v-67c11.333 8.66699 25.166 17.667 41.499 27s33.833 17.833 52.5 25.5
s37.834 14.167 57.501 19.5s37.834 8.33301 54.501 9c30.667 0.666992 56.667 -2.83301 78 -10.5s38.5 -20.834 51.5 -39.501s22.5 -43 28.5 -73s9 -67 9 -111v-282l79 -9v-33h-225v33l75 9v273c0 34.667 -2 64.167 -6 88.5s-11 44 -21 59s-23.167 25.833 -39.5 32.5
s-36.5 9.33398 -60.5 8.00098c-12.667 -0.666992 -26.167 -2.5 -40.5 -5.5s-28.666 -7.16699 -42.999 -12.5s-28.666 -11.5 -42.999 -18.5s-27.5 -14.833 -39.5 -23.5v-401l77 -9v-33h-218v33z" />
    <glyph glyph-name="OE" unicode="&#x152;" horiz-adv-x="1015" 
d="M45 371c1.33301 62 11.3301 117.167 29.9971 165.5s43.667 89.166 75 122.499s67.833 59 109.5 77s86.167 27.667 133.5 29c14.667 0 28.5 -0.5 41.5 -1.5s25.5 -2.83301 37.5 -5.5h462l14 -139h-41l-23 94l-289 6v-296l197 4l14 78h38v-207h-38l-14 82l-197 3v-342
l308 8l45 114l36 -9l-22 -154h-486c-14.667 -4 -30.167 -7.16699 -46.5 -9.5s-33.5 -3.83301 -51.5 -4.5c-50.667 -0.666992 -96.667 8.33301 -138 27s-76.666 45 -105.999 79s-51.666 74.833 -66.999 122.5s-22.666 99.834 -21.999 156.501zM385.997 26
c28.667 0 54.334 4.83203 77.001 14.499s42.667 23.5 60 41.5v582c-17.333 18.667 -37.5 33.334 -60.5 44.001s-48.833 16 -77.5 16c-38.667 0 -74 -8 -106 -24s-59.333 -39.333 -82 -70s-40.334 -67.667 -53.001 -111s-19 -92.666 -19 -147.999
c0 -48.667 6 -93.834 18 -135.501s29.333 -78 52 -109s50 -55.5 82 -73.5s68.333 -27 109 -27z" />
    <glyph glyph-name="oe" unicode="&#x153;" horiz-adv-x="1006" 
d="M51 284c0.666992 42.667 8.16992 81.1689 22.5029 115.502s33.333 63.5 57 87.5s51 42.5 82 55.5s63.5 19.5 97.5 19.5c29.333 0 55.666 -3.5 78.999 -10.5s44.166 -17.167 62.499 -30.5s33.833 -29.166 46.5 -47.499s23 -38.5 31 -60.5c10.667 22.667 24.167 43 40.5 61
s34.5 33.5 54.5 46.5s42 23.167 66 30.5s49.667 11 77 11c28 0 53.333 -4.33301 76 -13s42.167 -21.667 58.5 -39s29 -38.666 38 -63.999s13.833 -54.333 14.5 -87c0.666992 -16.667 0.5 -31.334 -0.5 -44.001s-2.16699 -24.334 -3.5 -35.001h-380v-5
c-0.666992 -40.667 4.16602 -75.834 14.499 -105.501s24.5 -54.167 42.5 -73.5s39 -33.666 63 -42.999s49.667 -14 77 -14c15.333 0 31 1 47 3s31.167 4.83301 45.5 8.5s27.333 7.83398 39 12.501s20.834 9.33398 27.501 14.001l15 -34
c-9.33301 -8.66699 -21.666 -16.334 -36.999 -23.001s-31.833 -12.334 -49.5 -17.001s-36.334 -8.33398 -56.001 -11.001s-38.834 -4 -57.501 -4c-56 0 -102.5 13.167 -139.5 39.5s-64.167 62.833 -81.5 109.5c-10.667 -23.333 -23.667 -44 -39 -62s-32.5 -33.5 -51.5 -46.5
s-39.667 -23 -62 -30s-45.833 -10.5 -70.5 -10.5c-30 0 -56.833 3.83301 -80.5 11.5s-44.667 18.167 -63 31.5s-34 29.166 -47 47.499s-23.667 38.5 -32 60.5s-14.333 45.333 -18 70s-5.5 49.667 -5.5 75zM301.003 31.002c28 -0.666992 52.834 4.33008 74.501 14.9971
s40 26.334 55 47.001s26.333 46.5 34 77.5s11.5 66.5 11.5 106.5c0 32.667 -3.16699 63.834 -9.5 93.501s-16.333 55.667 -30 78s-31.334 40 -53.001 53s-47.834 19.833 -78.501 20.5c-28 0 -53.167 -5 -75.5 -15s-41.166 -25.167 -56.499 -45.5s-27 -45.166 -35 -74.499
s-12 -62.333 -12 -99c0 -34 3.33301 -66.5 10 -97.5s17 -58.167 31 -81.5s32.167 -42 54.5 -56s48.833 -21.333 79.5 -22zM880.004 323.999c1.33301 20.667 1.16699 40.333 -0.5 59s-5 36 -10 52s-12 30.167 -21 42.5s-20.5 22.166 -34.5 29.499c-18 10 -40 15 -66 15
c-22 0 -43.167 -4.16699 -63.5 -12.5s-38.333 -20.666 -54 -36.999s-28.5 -36.833 -38.5 -61.5s-16.667 -53.667 -20 -87h308z" />
    <glyph glyph-name="Racute" unicode="&#x154;" horiz-adv-x="692" 
d="M312 806l144.998 132.001l51 -54c-11.333 -9.33301 -24.166 -18.5 -38.499 -27.5s-29.166 -17.833 -44.499 -26.5s-31 -16.834 -47 -24.501s-31 -14.5 -45 -20.5zM41.998 33.001l97.9961 12.002v665l-87 7v41h124c16.667 0 37.667 1.16699 63 3.5s54.333 3.5 87 3.5
c37.333 0 71.333 -3.33301 102 -10s57.167 -17.834 79.5 -33.501s39.833 -36.5 52.5 -62.5s19 -58.667 19 -98c0 -25.333 -4.16699 -49.333 -12.5 -72s-20 -43.167 -35 -61.5s-33 -34.333 -54 -48s-44.5 -24.167 -70.5 -31.5c0.666992 -0.666992 1.33398 -1 2.00098 -1
c12 -3.33301 23.5 -10.166 34.5 -20.499s22.167 -22.833 33.5 -37.5s22.333 -30.834 33 -48.501s21 -35.334 31 -53.001s19.5 -34.834 28.5 -51.501s17.5 -31.667 25.5 -45s15.5 -24.166 22.5 -32.499s13.5 -13.166 19.5 -14.499l59 -11v-33h-125
c-5.33301 0 -11.666 4.83301 -18.999 14.5s-15.166 22.5 -23.499 38.5s-17.5 34.167 -27.5 54.5s-20.5 41.166 -31.5 62.499s-22.5 42 -34.5 62s-24.167 37.833 -36.5 53.5s-25.166 28 -38.499 37s-27 13.167 -41 12.5l2 1c-17.333 -0.666992 -35.333 -1 -54 -1h-56v-291
l106 -11v-33h-276v33zM211.994 379.003c5.33301 -0.666992 13.167 -1.16895 23.5 -1.50195s21.166 -0.666016 32.499 -0.999023s22.166 -0.666016 32.499 -0.999023s18.5 -0.5 24.5 -0.5c29.333 0 55.333 4.33301 78 13s41.334 20.5 56.001 35.5s25.834 33.333 33.501 55
s11.5 46.167 11.5 73.5c0 28 -3.33301 53 -10 75s-17.667 40.333 -33 55s-35 25.667 -59 33s-53.667 10.333 -89 9c-8 0 -16.5 -0.166992 -25.5 -0.5l-27 -1c-9 -0.333008 -17.667 -1 -26 -2s-15.833 -2.5 -22.5 -4.5v-337z" />
    <glyph glyph-name="Rcommaaccent" unicode="&#x156;" horiz-adv-x="692" 
d="M42 33l97.9961 12.002v665l-87 7v41h124c16.667 0 37.667 1.16699 63 3.5s54.333 3.5 87 3.5c37.333 0 71.333 -3.33301 102 -10s57.167 -17.834 79.5 -33.501s39.833 -36.5 52.5 -62.5s19 -58.667 19 -98c0 -25.333 -4.16699 -49.333 -12.5 -72s-20 -43.167 -35 -61.5
s-33 -34.333 -54 -48s-44.5 -24.167 -70.5 -31.5c0.666992 -0.666992 1.33398 -1 2.00098 -1c12 -3.33301 23.5 -10.166 34.5 -20.499s22.167 -22.833 33.5 -37.5s22.333 -30.834 33 -48.501s21 -35.334 31 -53.001s19.5 -34.834 28.5 -51.501s17.5 -31.667 25.5 -45
s15.5 -24.166 22.5 -32.499s13.5 -13.166 19.5 -14.499l59 -11v-33h-125c-5.33301 0 -11.666 4.83301 -18.999 14.5s-15.166 22.5 -23.499 38.5s-17.5 34.167 -27.5 54.5s-20.5 41.166 -31.5 62.499s-22.5 42 -34.5 62s-24.167 37.833 -36.5 53.5s-25.166 28 -38.499 37
s-27 13.167 -41 12.5l2 1c-17.333 -0.666992 -35.333 -1 -54 -1h-56v-291l106 -11v-33h-276v33zM211.996 379.002c5.33301 -0.666992 13.167 -1.16895 23.5 -1.50195s21.166 -0.666016 32.499 -0.999023s22.166 -0.666016 32.499 -0.999023s18.5 -0.5 24.5 -0.5
c29.333 0 55.333 4.33301 78 13s41.334 20.5 56.001 35.5s25.834 33.333 33.501 55s11.5 46.167 11.5 73.5c0 28 -3.33301 53 -10 75s-17.667 40.333 -33 55s-35 25.667 -59 33s-53.667 10.333 -89 9c-8 0 -16.5 -0.166992 -25.5 -0.5l-27 -1
c-9 -0.333008 -17.667 -1 -26 -2s-15.833 -2.5 -22.5 -4.5v-337zM363.997 -36c15.333 -2.66699 29.167 -7.83496 41.5 -15.502s22.666 -16.667 30.999 -27s14.5 -21.5 18.5 -33.5s6.33301 -23.667 7 -35c0 -20.667 -3.66699 -40 -11 -58s-16.5 -34.333 -27.5 -49
s-23.333 -27 -37 -37s-26.5 -17 -38.5 -21l-20 18v13c10 4 18.667 10.167 26 18.5s13.333 17.833 18 28.5s8.33398 22.167 11.001 34.5s4 24.5 4 36.5c0 10.667 -2 20.334 -6 29.001s-8.83301 15.834 -14.5 21.501s-12 10.167 -19 13.5s-13.167 5 -18.5 5v21z" />
    <glyph glyph-name="rcommaaccent" unicode="&#x157;" horiz-adv-x="450" 
d="M52 33l85.9961 8.99902v431l-72 26v24l115 30l19 -9v-68c6.66699 8.66699 16.834 17.667 30.501 27s29 18 46 26s34.667 14.5 53 19.5s35.833 7.5 52.5 7.5c10.667 0 20.5 -0.166992 29.5 -0.5s15.5 -1.16602 19.5 -2.49902v-75
c-9.33301 3.33301 -19.666 6.33301 -30.999 9s-27 4 -47 4c-15.333 0 -30.166 -1.5 -44.499 -4.5s-27.666 -6.66699 -39.999 -11s-23.5 -9 -33.5 -14s-19 -9.83301 -27 -14.5v-405l148 -9v-33h-304v33zM162.996 -36.001c16 -2.66699 30.001 -7.83496 42.001 -15.502
s22.167 -16.667 30.5 -27s14.666 -21.5 18.999 -33.5s6.5 -23.667 6.5 -35c0 -20.667 -3.66699 -40 -11 -58s-16.5 -34.333 -27.5 -49s-23.167 -27 -36.5 -37s-26.333 -17 -39 -21l-20 18v13c10 4 18.667 10.167 26 18.5s13.5 17.833 18.5 28.5s8.83301 22.167 11.5 34.5
s4 24.5 4 36.5c0 10.667 -2 20.334 -6 29.001s-9 15.834 -15 21.501s-12.333 10.167 -19 13.5s-13 5 -19 5v21z" />
    <glyph glyph-name="Rcaron" unicode="&#x158;" horiz-adv-x="692" 
d="M174 917l33 21l129 -90l132 90l29 -20l-126 -122h-69zM42 33l97.9961 12.002v665l-87 7v41h124c16.667 0 37.667 1.16699 63 3.5s54.333 3.5 87 3.5c37.333 0 71.333 -3.33301 102 -10s57.167 -17.834 79.5 -33.501s39.833 -36.5 52.5 -62.5s19 -58.667 19 -98
c0 -25.333 -4.16699 -49.333 -12.5 -72s-20 -43.167 -35 -61.5s-33 -34.333 -54 -48s-44.5 -24.167 -70.5 -31.5c0.666992 -0.666992 1.33398 -1 2.00098 -1c12 -3.33301 23.5 -10.166 34.5 -20.499s22.167 -22.833 33.5 -37.5s22.333 -30.834 33 -48.501
s21 -35.334 31 -53.001s19.5 -34.834 28.5 -51.501s17.5 -31.667 25.5 -45s15.5 -24.166 22.5 -32.499s13.5 -13.166 19.5 -14.499l59 -11v-33h-125c-5.33301 0 -11.666 4.83301 -18.999 14.5s-15.166 22.5 -23.499 38.5s-17.5 34.167 -27.5 54.5s-20.5 41.166 -31.5 62.499
s-22.5 42 -34.5 62s-24.167 37.833 -36.5 53.5s-25.166 28 -38.499 37s-27 13.167 -41 12.5l2 1c-17.333 -0.666992 -35.333 -1 -54 -1h-56v-291l106 -11v-33h-276v33zM211.996 379.002c5.33301 -0.666992 13.167 -1.16895 23.5 -1.50195s21.166 -0.666016 32.499 -0.999023
s22.166 -0.666016 32.499 -0.999023s18.5 -0.5 24.5 -0.5c29.333 0 55.333 4.33301 78 13s41.334 20.5 56.001 35.5s25.834 33.333 33.501 55s11.5 46.167 11.5 73.5c0 28 -3.33301 53 -10 75s-17.667 40.333 -33 55s-35 25.667 -59 33s-53.667 10.333 -89 9
c-8 0 -16.5 -0.166992 -25.5 -0.5l-27 -1c-9 -0.333008 -17.667 -1 -26 -2s-15.833 -2.5 -22.5 -4.5v-337z" />
    <glyph glyph-name="rcaron" unicode="&#x159;" horiz-adv-x="450" 
d="M95 847l33 18l139 -150l138 150l30 -18l-134 -194h-70zM52 33l85.9961 8.99902v431l-72 26v24l115 30l19 -9v-68c6.66699 8.66699 16.834 17.667 30.501 27s29 18 46 26s34.667 14.5 53 19.5s35.833 7.5 52.5 7.5c10.667 0 20.5 -0.166992 29.5 -0.5
s15.5 -1.16602 19.5 -2.49902v-75c-9.33301 3.33301 -19.666 6.33301 -30.999 9s-27 4 -47 4c-15.333 0 -30.166 -1.5 -44.499 -4.5s-27.666 -6.66699 -39.999 -11s-23.5 -9 -33.5 -14s-19 -9.83301 -27 -14.5v-405l148 -9v-33h-304v33z" />
    <glyph glyph-name="Scaron" unicode="&#x160;" horiz-adv-x="600" 
d="M155 917l33 21l129 -90l132 90l29 -20l-126 -122h-69zM73 177l35.998 -0.00195312l23 -100c10 -10 22 -18.167 36 -24.5s28.667 -11.333 44 -15s31.166 -6.16699 47.499 -7.5s31.5 -2 45.5 -2c20.667 0 41.5 2.5 62.5 7.5s39.833 13.333 56.5 25s30.167 26.667 40.5 45
s15.5 40.833 15.5 67.5c0 22.667 -5.33301 42.834 -16 60.501s-25 33.667 -43 48s-38.5 27.666 -61.5 39.999s-46.5 24.5 -70.5 36.5c-26 12.667 -51.667 25.834 -77 39.501s-47.833 29 -67.5 46s-35.667 36.167 -48 57.5s-18.5 46 -18.5 74c0 22.667 3.5 43.167 10.5 61.5
s16.5 34.5 28.5 48.5s26 26 42 36s32.667 18.167 50 24.5s35.166 11.166 53.499 14.499s35.833 5 52.5 5c25.333 0 48 -1.33301 68 -4s37.667 -5.83398 53 -9.50098s28.5 -7.83398 39.5 -12.501s20.167 -9 27.5 -13v-130h-33l-29 97c-14 12.667 -33 21.5 -57 26.5
s-49 7.5 -75 7.5c-17.333 0 -35.666 -2.66699 -54.999 -8s-37.166 -13.5 -53.499 -24.5s-29.666 -25.333 -39.999 -43s-15.5 -39.5 -15.5 -65.5c0 -20.667 5 -39.167 15 -55.5s23.333 -31.333 40 -45s35.834 -26.167 57.501 -37.5s44.167 -22.333 67.5 -33
c18 -8.66699 35.833 -17.5 53.5 -26.5s34.834 -18.667 51.501 -29s32.167 -21.166 46.5 -32.499s26.833 -23.666 37.5 -36.999s19 -28.166 25 -44.499s9 -34.166 9 -53.499c0 -36 -6.66699 -66.667 -20 -92s-31.5 -46.333 -54.5 -63s-49.833 -28.834 -80.5 -36.501
s-63 -11.5 -97 -11.5c-24.667 0 -48.834 1.33301 -72.501 4s-45.5 6.16699 -65.5 10.5s-37.5 8.83301 -52.5 13.5s-25.833 9.33398 -32.5 14.001v146z" />
    <glyph glyph-name="scaron" unicode="&#x161;" horiz-adv-x="501" 
d="M87 847l33 18l139 -150l138 150l30 -18l-134 -194h-69zM77 136l33.9971 -0.00195312l16 -66c16.667 -14 35 -24 55 -30s41 -9.33301 63 -10c20 -0.666992 38.667 0.666016 56 3.99902s32.333 9 45 17s22.667 18.667 30 32s11 29 11 47c0 17.333 -4.5 32 -13.5 44
s-20.833 22.667 -35.5 32s-31 17.833 -49 25.5s-36 15.5 -54 23.5c-19.333 8.66699 -38.166 18 -56.499 28s-34.666 21.5 -48.999 34.5s-25.666 27.667 -33.999 44s-12.5 35.166 -12.5 56.499c0 24.667 6.16699 46 18.5 64s27.5 32.833 45.5 44.5s38.333 20.5 61 26.5
s44.667 9 66 9c16 0 31.833 -0.833008 47.5 -2.5s30.167 -4.16699 43.5 -7.5s25.333 -7.16602 36 -11.499s19.334 -8.83301 26.001 -13.5v-98h-33l-17 61c-10.667 10 -24.5 18.167 -41.5 24.5s-36.5 9.5 -58.5 9.5c-20 0 -37.667 -2.16699 -53 -6.5
s-28.333 -10.666 -39 -18.999s-18.834 -18.166 -24.501 -29.499s-8.83398 -24 -9.50098 -38c0 -16 3.5 -29.667 10.5 -41s16.833 -21.666 29.5 -30.999s27.334 -18 44.001 -26s34.334 -16.333 53.001 -25c18 -8 36.833 -16.333 56.5 -25s37.667 -19.167 54 -31.5
s29.666 -27 39.999 -44s15.5 -37.5 15.5 -61.5c0 -26 -5.16699 -48.833 -15.5 -68.5s-24.833 -36.167 -43.5 -49.5s-40.667 -23.333 -66 -30s-52.666 -10 -81.999 -10s-58.833 3.5 -88.5 10.5s-56.834 17.5 -81.501 31.5v106z" />
    <glyph glyph-name="Ydieresis" unicode="&#x178;" horiz-adv-x="660" 
d="M450 825c-6 0 -12 1.00098 -18 3.00098s-11.167 5 -15.5 9s-8 8.83301 -11 14.5s-4.5 12.167 -4.5 19.5c0 8 1.83301 15.333 5.5 22s8.16699 12.334 13.5 17.001s11.333 8.5 18 11.5s13.334 4.5 20.001 4.5c16.667 0 29 -4.66699 37 -14s12 -20.333 12 -33
c0 -8 -1.5 -15.333 -4.5 -22s-7.33301 -12.334 -13 -17.001s-11.834 -8.33398 -18.501 -11.001s-13.667 -4 -21 -4zM227 825.001c-6 0 -12.0029 1.16699 -18.0029 3.5s-11.167 5.5 -15.5 9.5s-8 8.83301 -11 14.5s-4.5 12.167 -4.5 19.5c0 8 1.66699 15.167 5 21.5
s7.83301 12 13.5 17s11.834 8.83301 18.501 11.5s13.334 4 20.001 4c16.667 0 29 -4.66699 37 -14s12 -20 12 -32c0 -8 -1.66699 -15.333 -5 -22s-7.66602 -12.5 -12.999 -17.5s-11.333 -8.83301 -18 -11.5s-13.667 -4 -21 -4zM205.997 33.001l99 12v267l-240 402l-59 7v37
h224v-37l-82 -7l172 -309l26 -52l24 52l156 308l-84 8v37h211v-37l-66 -11l-210 -399v-266l103 -12v-33h-274v33z" />
    <glyph glyph-name="Zacute" unicode="&#x179;" horiz-adv-x="660" 
d="M334 806l145 132.001l52 -54c-12 -9.33301 -25 -18.5 -39 -27.5s-28.667 -17.833 -44 -26.5s-31 -16.834 -47 -24.501s-31.333 -14.5 -46 -20.5zM482 647.001l58 71l-383 -9l-38 -109l-40 6l14 153h515l12 -33l-427 -605l-62 -79l404 14l56 123l39 -9l-35 -170h-535
l-12 34z" />
    <glyph glyph-name="Zdotaccent" unicode="&#x17b;" horiz-adv-x="660" 
d="M353 825c-6 0 -12.001 1.16699 -18.001 3.5s-11.167 5.5 -15.5 9.5s-7.83301 8.83301 -10.5 14.5s-4 12.167 -4 19.5c0 8 1.66699 15.167 5 21.5s7.66602 12 12.999 17s11.5 8.83301 18.5 11.5s13.833 4 20.5 4c16.667 0 28.834 -4.66699 36.501 -14s11.5 -20 11.5 -32
c0 -8 -1.66699 -15.333 -5 -22s-7.66602 -12.5 -12.999 -17.5s-11.333 -8.83301 -18 -11.5s-13.667 -4 -21 -4zM481.999 647l58 71l-383 -9l-38 -109l-40 6l14 153h515l12 -33l-427 -605l-62 -79l404 14l56 123l39 -9l-35 -170h-535l-12 34z" />
    <glyph glyph-name="zdotaccent" unicode="&#x17c;" horiz-adv-x="526" 
d="M263 688c-6 0 -12 1.16602 -18 3.49902s-11.167 5.5 -15.5 9.5s-7.83301 8.83301 -10.5 14.5s-4 12.167 -4 19.5c0 8 1.66699 15.333 5 22s7.66602 12.334 12.999 17.001s11.5 8.5 18.5 11.5s13.833 4.5 20.5 4.5c16.667 0 29 -4.66699 37 -14s12 -20.333 12 -33
c0 -8 -1.66699 -15.333 -5 -22s-7.66602 -12.5 -12.999 -17.5s-11.5 -8.83301 -18.5 -11.5s-14.167 -4 -21.5 -4zM81 83.999l282.001 376l42 51l-280 -8l-24 -92h-35l1 135h410l11 -32l-312 -415l-49 -61l305 9l27 88c5.33301 0 11.666 -0.166992 18.999 -0.5
s14 -0.5 20 -0.5l-9 -134h-432l-14 34z" />
    <glyph glyph-name="Zcaron" unicode="&#x17d;" horiz-adv-x="660" 
d="M195 917l32 21l130 -90l132 90l29 -20l-127 -122h-68zM482 647l58 71l-383 -9l-38 -109l-40 6l14 153h515l12 -33l-427 -605l-62 -79l404 14l56 123l39 -9l-35 -170h-535l-12 34z" />
    <glyph glyph-name="zcaron" unicode="&#x17e;" horiz-adv-x="526" 
d="M102 847l33 18l139 -150l138 150l30 -18l-134 -194h-69zM81 84l282.001 376l42 51l-280 -8l-24 -92h-35l1 135h410l11 -32l-312 -415l-49 -61l305 9l27 88c5.33301 0 11.666 -0.166992 18.999 -0.5s14 -0.5 20 -0.5l-9 -134h-432l-14 34z" />
    <glyph glyph-name="florin" unicode="&#x192;" horiz-adv-x="519" 
d="M197 486l-109.999 0.000976562l2 30l113 21l4 51c2 24.667 6.66699 47.5 14 68.5s16.5 40 27.5 57s23.5 32.167 37.5 45.5s28.667 24.666 44 33.999s30.666 16.333 45.999 21s30 7 44 7c20 0 35 -0.666992 45 -2s18 -3.33301 24 -6l-4 -63
c-5.33301 3.33301 -15 6.5 -29 9.5s-32 4.5 -54 4.5c-14 0 -27.667 -1.83301 -41 -5.5s-25.666 -10.834 -36.999 -21.501s-20.833 -25.667 -28.5 -45s-12.834 -44.666 -15.501 -75.999l-8 -79h161l-4 -51h-160l-50 -659h-70z" />
    <glyph glyph-name="dotlessj" unicode="&#x237;" horiz-adv-x="317" 
d="M148 474l-74.001 25.002v24l124 30l19 -9v-552c0 -38 -3.66699 -72 -11 -102s-18.166 -55.5 -32.499 -76.5s-32 -37 -53 -48s-45.167 -16.5 -72.5 -16.5c-3.33301 0 -7.66602 0.166992 -12.999 0.5l-16 1c-5.33301 0.333008 -10.333 1 -15 2s-7.66699 2.16699 -9 3.5v51
c2.66699 -0.666992 6.5 -1.33398 11.5 -2.00098s10.167 -1.33398 15.5 -2.00098s10.333 -1 15 -1h12c15.333 0 29.166 3 41.499 9s22.833 16.5 31.5 31.5s15.167 35.167 19.5 60.5s6.5 57.333 6.5 96v475z" />
    <glyph glyph-name="circumflex" unicode="&#x2c6;" horiz-adv-x="519" 
d="M88 670l137 195h69l134 -194l-33 -18l-136 149l-141 -149z" />
    <glyph glyph-name="caron" unicode="&#x2c7;" horiz-adv-x="519" 
d="M88 847l33 18l138 -150l139 150l30 -18l-134 -194h-70z" />
    <glyph glyph-name="breve" unicode="&#x2d8;" horiz-adv-x="519" 
d="M258 680c-24.667 0 -46.8311 4.3291 -66.498 12.9961s-36.5 20 -50.5 34s-24.667 30.167 -32 48.5s-11 37.5 -11 57.5h36c1.33301 -8 4.33301 -17.667 9 -29s11.834 -22.333 21.501 -33s22.167 -19.667 37.5 -27s34.666 -11 57.999 -11
c15.333 0 29.166 1.83301 41.499 5.5s22.833 8.33398 31.5 14.001s16.167 12.167 22.5 19.5s11.5 14.833 15.5 22.5s7.16699 14.834 9.5 21.501s4.16602 12.334 5.49902 17.001h35c0 -20.667 -4 -40 -12 -58s-19.167 -34.167 -33.5 -48.5s-31.5 -25.666 -51.5 -33.999
s-42 -12.5 -66 -12.5z" />
    <glyph glyph-name="dotaccent" unicode="&#x2d9;" horiz-adv-x="246" 
d="M118 688c-6 0 -12.002 1.16602 -18.002 3.49902s-11.167 5.5 -15.5 9.5s-8 8.83301 -11 14.5s-4.5 12.167 -4.5 19.5c0 8 1.83301 15.333 5.5 22s8.16699 12.334 13.5 17.001s11.333 8.5 18 11.5s13.334 4.5 20.001 4.5c16.667 0 29 -4.66699 37 -14s12 -20.333 12 -33
c0 -8 -1.66699 -15.333 -5 -22s-7.66602 -12.5 -12.999 -17.5s-11.333 -8.83301 -18 -11.5s-13.667 -4 -21 -4z" />
    <glyph glyph-name="ring" unicode="&#x2da;" horiz-adv-x="273" 
d="M136 645c-16.667 0 -32.167 3 -46.5 9s-26.833 14.167 -37.5 24.5s-19.167 22.5 -25.5 36.5s-9.5 29 -9.5 45s3.16699 31 9.5 45s14.833 26.167 25.5 36.5s23.167 18.5 37.5 24.5s29.833 9 46.5 9s32.334 -3 47.001 -9s27.334 -14.167 38.001 -24.5
s19.167 -22.5 25.5 -36.5s9.5 -29 9.5 -45s-3.16699 -31 -9.5 -45s-14.833 -26.167 -25.5 -36.5s-23.334 -18.5 -38.001 -24.5s-30.334 -9 -47.001 -9zM136 685c10 0 19.667 1.83301 29 5.5s17.333 8.83398 24 15.501s12 14.5 16 23.5s6 18.833 6 29.5s-2 20.5 -6 29.5
s-9.33301 16.667 -16 23s-14.667 11.5 -24 15.5s-19 6 -29 6s-19.5 -2 -28.5 -6s-16.833 -9.16699 -23.5 -15.5s-12 -14 -16 -23s-6 -18.833 -6 -29.5s2 -20.5 6 -29.5s9.33301 -16.833 16 -23.5s14.5 -11.834 23.5 -15.501s18.5 -5.5 28.5 -5.5z" />
    <glyph glyph-name="ogonek" unicode="&#x2db;" horiz-adv-x="346" 
d="M163 4l39.001 -3.99805c-9.33301 -2.66699 -19.833 -6.66699 -31.5 -12s-23.5 -11.666 -35.5 -18.999s-23.5 -15.666 -34.5 -24.999s-20.833 -18.833 -29.5 -28.5s-15.667 -19.667 -21 -30s-8 -20.5 -8 -30.5c0 -22.667 5.83301 -38.834 17.5 -48.501
s29.167 -14.834 52.5 -15.501c10.667 -0.666992 21.334 0.333008 32.001 3s20.667 6 30 10s17.833 8.16699 25.5 12.5s14.167 7.83301 19.5 10.5l9 -35c-6.66699 -4.66699 -14.667 -10 -24 -16s-20.333 -11.667 -33 -17s-27 -9.5 -43 -12.5s-34 -4.16699 -54 -3.5
c-16.667 0.666992 -31.167 3.66699 -43.5 9s-22.5 12.166 -30.5 20.499s-14 17.833 -18 28.5s-6 22 -6 34c0 16 4.33301 32.167 13 48.5s20.167 31.833 34.5 46.5s30.666 28.167 48.999 40.5s37.166 22.166 56.499 29.499z" />
    <glyph glyph-name="tilde" unicode="&#x2dc;" horiz-adv-x="432" 
d="M27 731c6 10.667 13.6641 20.833 22.9971 30.5s19.666 18.167 30.999 25.5s23.333 13.333 36 18s25.667 7 39 7c15.333 0 28.833 -3.83301 40.5 -11.5s22.5 -16.167 32.5 -25.5s19.833 -17.833 29.5 -25.5s20.834 -11.5 33.501 -11.5c10 0 19.5 1.5 28.5 4.5
s17.333 7 25 12s14.834 10.667 21.501 17s12.667 12.5 18 18.5l21 -29c-6 -10.667 -13.667 -20.834 -23 -30.501s-19.666 -18.167 -30.999 -25.5s-23.333 -13.166 -36 -17.499s-25.667 -6.5 -39 -6.5c-10.667 0 -20.167 1.83301 -28.5 5.5s-16.166 8.16699 -23.499 13.5
s-14.166 11.333 -20.499 18s-12.833 12.667 -19.5 18s-13.5 9.83301 -20.5 13.5s-14.833 5.5 -23.5 5.5c-10.667 0 -20.334 -1.5 -29.001 -4.5s-17 -7.16699 -25 -12.5s-15.167 -11 -21.5 -17s-12.5 -12 -18.5 -18z" />
    <glyph glyph-name="hungarumlaut" unicode="&#x2dd;" horiz-adv-x="413" 
d="M314 677l162.998 196.999l45 -43c-8.66699 -12 -20.667 -25.667 -36 -41s-31.666 -31 -48.999 -47s-35.166 -31.667 -53.499 -47s-34.5 -28.666 -48.5 -39.999zM79.998 676.999l162 196.999l46 -43c-8.66699 -12 -20.667 -25.667 -36 -41s-31.833 -31 -49.5 -47
s-35.5 -31.667 -53.5 -47s-34 -28.666 -48 -39.999z" />
    <glyph glyph-name="Delta" unicode="&#x394;" horiz-adv-x="864" 
d="M408 724h15l362 -711l-8 -13h-698l-7 11zM688 46l-285 570l-266 -570h551z" />
    <glyph glyph-name="Delta" unicode="&#x2206;" horiz-adv-x="864" 
d="M408 724h15l362 -711l-8 -13h-698l-7 11zM688 46l-285 570l-266 -570h551z" />
    <glyph glyph-name="Omega" unicode="&#x3a9;" horiz-adv-x="951" 
d="M69 164l37.002 3.00195l16 -101h178c-22.667 14.667 -45 33.5 -67 56.5s-41.833 49 -59.5 78s-31.834 60.167 -42.501 93.5s-15.667 68 -15 104c0.666992 41.333 5.66699 78.833 15 112.5s22 63.667 38 90s34.667 49.333 56 69s44.666 36 69.999 49
s52.166 22.667 80.499 29s57.166 9.5 86.499 9.5c48 0 92 -7.66699 132 -23s74.333 -37.5 103 -66.5s50.834 -64.833 66.501 -107.5s23.167 -91.334 22.5 -146.001c-0.666992 -32.667 -6.5 -66 -17.5 -100s-25 -66.5 -42 -97.5s-36.167 -59.5 -57.5 -85.5
s-43 -47.667 -65 -65h182l33 111l37 -3l-21 -174h-312v59c25.333 14.667 49 34 71 58s41.333 51.333 58 82s29.834 64.167 39.501 100.5s14.5 74.5 14.5 114.5c0 51.333 -6.5 96.333 -19.5 135s-30.667 71 -53 97s-48.833 45.5 -79.5 58.5s-63.667 19.5 -99 19.5
c-37.333 0 -71.833 -6.83301 -103.5 -20.5s-59.167 -34.167 -82.5 -61.5s-41.5 -61.333 -54.5 -102s-19.5 -88 -19.5 -142c0 -39.333 5.83301 -76.5 17.5 -111.5s26.667 -67.167 45 -96.5s38.833 -54.833 61.5 -76.5s45 -38.834 67 -51.501v-62h-317v164z" />
    <glyph glyph-name="Omega" unicode="&#x2126;" horiz-adv-x="951" 
d="M69 164l37.002 3.00195l16 -101h178c-22.667 14.667 -45 33.5 -67 56.5s-41.833 49 -59.5 78s-31.834 60.167 -42.501 93.5s-15.667 68 -15 104c0.666992 41.333 5.66699 78.833 15 112.5s22 63.667 38 90s34.667 49.333 56 69s44.666 36 69.999 49
s52.166 22.667 80.499 29s57.166 9.5 86.499 9.5c48 0 92 -7.66699 132 -23s74.333 -37.5 103 -66.5s50.834 -64.833 66.501 -107.5s23.167 -91.334 22.5 -146.001c-0.666992 -32.667 -6.5 -66 -17.5 -100s-25 -66.5 -42 -97.5s-36.167 -59.5 -57.5 -85.5
s-43 -47.667 -65 -65h182l33 111l37 -3l-21 -174h-312v59c25.333 14.667 49 34 71 58s41.333 51.333 58 82s29.834 64.167 39.501 100.5s14.5 74.5 14.5 114.5c0 51.333 -6.5 96.333 -19.5 135s-30.667 71 -53 97s-48.833 45.5 -79.5 58.5s-63.667 19.5 -99 19.5
c-37.333 0 -71.833 -6.83301 -103.5 -20.5s-59.167 -34.167 -82.5 -61.5s-41.5 -61.333 -54.5 -102s-19.5 -88 -19.5 -142c0 -39.333 5.83301 -76.5 17.5 -111.5s26.667 -67.167 45 -96.5s38.833 -54.833 61.5 -76.5s45 -38.834 67 -51.501v-62h-317v164z" />
    </font>
</defs>
</svg>
