<?xml version="1.0" standalone="no"?>
<!DOCTYPE svg PUBLIC "-//W3C//DTD SVG 1.1//EN" "http://www.w3.org/Graphics/SVG/1.1/DTD/svg11.dtd" >
<svg>
<metadata>
Created by FontForge 20120731 at Fri Aug  1 16:50:30 2014
 By Alfred Xing
Copyright (c) 2011, Sorkin Type Co (www.sorkintype.com)with Reserved Font Name "Merriweather".This Font Software is licensed under the SIL Open Font License,Version 1.1. This license is available with a FAQ at:http://scripts.sil.org/OFL
</metadata>
<defs>
<font id="Merriweather" horiz-adv-x="0" >
  <font-face 
    font-family="Merriweather"
    font-weight="400"
    font-stretch="normal"
    units-per-em="1000"
    panose-1="2 6 5 3 5 4 6 3 7 4"
    ascent="800"
    descent="-200"
    x-height="545.998"
    cap-height="758"
    bbox="-42.001 -311.999 1200 938.002"
    underline-thickness="71"
    underline-position="-59"
    unicode-range="U+0001-FB04"
  />
<missing-glyph horiz-adv-x="864" 
d="M86 691h692v-691h-692v691zM273 123l158 172l165 -172l55 55l-170 168l170 163l-58 56l-160 -171l-163 172l-56 -57l168 -165l-167 -155z" />
    <glyph glyph-name=".notdef" horiz-adv-x="864" 
d="M86 691h692v-691h-692v691zM273 123l158 172l165 -172l55 55l-170 168l170 163l-58 56l-160 -171l-163 172l-56 -57l168 -165l-167 -155z" />
    <glyph glyph-name="uni0000" 
 />
    <glyph glyph-name="uni0000" 
 />
    <glyph glyph-name="uni0001" 
 />
    <glyph glyph-name="uni0002" 
 />
    <glyph glyph-name="uni0003" 
 />
    <glyph glyph-name="uni0004" 
 />
    <glyph glyph-name="uni0005" 
 />
    <glyph glyph-name="uni0006" 
 />
    <glyph glyph-name="uni0007" 
 />
    <glyph glyph-name="uni0008" 
 />
    <glyph glyph-name="uni0009" unicode="&#x9;" 
 />
    <glyph glyph-name="uni000A" unicode="&#xa;" 
 />
    <glyph glyph-name="uni000B" 
 />
    <glyph glyph-name="uni000C" 
 />
    <glyph glyph-name="uni000D" unicode="&#xd;" 
 />
    <glyph glyph-name="uni000E" 
 />
    <glyph glyph-name="uni000F" 
 />
    <glyph glyph-name="uni0010" 
 />
    <glyph glyph-name="uni0011" 
 />
    <glyph glyph-name="uni0012" 
 />
    <glyph glyph-name="uni0013" 
 />
    <glyph glyph-name="uni0014" 
 />
    <glyph glyph-name="uni0015" 
 />
    <glyph glyph-name="uni0016" 
 />
    <glyph glyph-name="uni0017" 
 />
    <glyph glyph-name="uni0018" 
 />
    <glyph glyph-name="uni0019" 
 />
    <glyph glyph-name="uni001A" 
 />
    <glyph glyph-name="uni001B" 
 />
    <glyph glyph-name="uni001C" 
 />
    <glyph glyph-name="uni001D" 
 />
    <glyph glyph-name="uni001E" 
 />
    <glyph glyph-name="uni001F" 
 />
    <glyph glyph-name="space" unicode=" " horiz-adv-x="255" 
 />
    <glyph glyph-name="exclam" unicode="!" horiz-adv-x="344" 
d="M105 869h125l-36 -630h-57zM105 49c0 10 2.16699 19.502 6.5 28.502s10 16.667 17 23s14.833 11.333 23.5 15s17.334 5.5 26.001 5.5c21.333 0 37 -6 47 -18s15 -26.333 15 -43c0 -10.667 -2.16699 -20.334 -6.5 -29.001s-9.83301 -16 -16.5 -22
s-14.5 -10.833 -23.5 -14.5s-17.833 -5.5 -26.5 -5.5c-8 0 -15.833 1.5 -23.5 4.5s-14.334 7 -20.001 12s-10.167 11.167 -13.5 18.5s-5 15.666 -5 24.999z" />
    <glyph glyph-name="quotedbl" unicode="&#x22;" horiz-adv-x="615" 
d="M360 870h110l-24 -398h-62zM145 870h110l-24 -398h-62z" />
    <glyph glyph-name="numbersign" unicode="#" horiz-adv-x="698" 
d="M181 178h-108v63h111l16 197h-116v62h119l13 162h81l-12 -162h153l13 162h81l-12 -162h105v-62h-109l-16 -197h108c0 -10.667 0.166992 -21.167 0.5 -31.5s0.5 -20.833 0.5 -31.5h-112l-15 -178h-78l12 178h-154l-15 -178h-80zM418 241l17 197h-154l-16 -197h153z" />
    <glyph glyph-name="dollar" unicode="$" horiz-adv-x="620" 
d="M85 187l43 0.000976562l31 -97c10 -10 21.167 -18.333 33.5 -25s25.666 -12 39.999 -16s29 -6.83301 44 -8.5s29.833 -2.5 44.5 -2.5c18 0 35.833 2.5 53.5 7.5s33.5 12.667 47.5 23s25.5 23.666 34.5 39.999s13.5 35.833 13.5 58.5c0 20.667 -5.16699 39.667 -15.5 57
s-23.666 33.166 -39.999 47.499s-35.333 28.166 -57 41.499s-43.834 26.333 -66.501 39c-24.667 14 -49 28.333 -73 43s-45.5 30.834 -64.5 48.501s-34.333 37.5 -46 59.5s-17.5 46.667 -17.5 74c0 29.333 5.83301 55 17.5 77s27 40.5 46 55.5s40 26.833 63 35.5
s45.833 14.334 68.5 17.001l3 83h77l-3 -81c38 -2 69.667 -6.66699 95 -14s44.333 -14.666 57 -21.999v-136h-42l-38 94c-6 5.33301 -13.167 10 -21.5 14s-17.5 7.16699 -27.5 9.5s-20.833 4.16602 -32.5 5.49902s-23.5 2 -35.5 2c-13.333 0 -28 -2 -44 -6
s-31 -10.833 -45 -20.5s-25.833 -22.5 -35.5 -38.5s-14.5 -35.667 -14.5 -59c0 -18.667 4.5 -35.834 13.5 -51.501s21 -30.167 36 -43.5s32.5 -26 52.5 -38s40.667 -23.667 62 -35c26 -14 51.833 -28.5 77.5 -43.5s49 -31.667 70 -50s38 -38.666 51 -60.999
s19.5 -47.833 19.5 -76.5c0 -34 -6.16699 -63.5 -18.5 -88.5s-28.833 -45.833 -49.5 -62.5s-44.667 -29.334 -72 -38.001s-56.333 -13.667 -87 -15l-4 -103h-77l4 104c-19.333 1.33301 -38.166 3.5 -56.499 6.5s-35 6.33301 -50 10s-28 7.33398 -39 11.001
s-19.5 7.5 -25.5 11.5v157z" />
    <glyph glyph-name="percent" unicode="%" horiz-adv-x="864" 
d="M524 782h78l-267 -782h-77zM193 338c-23.333 -0.666992 -44 3.6709 -62 13.0039s-33.333 22.166 -46 38.499s-22.5 35.333 -29.5 57s-10.5 44.167 -10.5 67.5c0 29.333 4.5 55.166 13.5 77.499s21 41.166 36 56.499s32.167 27.166 51.5 35.499s39.666 12.833 60.999 13.5
c26 0.666992 48.167 -3.66602 66.5 -12.999s33.5 -22 45.5 -38s20.833 -35 26.5 -57s8.5 -45.333 8.5 -70c0 -28.667 -4.33301 -54.334 -13 -77.001s-20.5 -41.5 -35.5 -56.5s-32.167 -26.5 -51.5 -34.5s-39.666 -12.333 -60.999 -13zM199 388.005
c25.333 0 44.668 11.3359 58.001 34.0029s20 53.667 20 93c0 20 -1.66699 38 -5 54s-8.16602 29.833 -14.499 41.5s-14.333 20.667 -24 27s-20.5 9.5 -32.5 9.5c-12.667 0 -23.834 -3 -33.501 -9s-17.667 -14.667 -24 -26s-11.166 -24.833 -14.499 -40.5s-5 -33.5 -5 -53.5
c0 -18.667 1.66699 -35.834 5 -51.501s8.16602 -29.334 14.499 -41.001s14.166 -20.834 23.499 -27.501s20 -10 32 -10zM509.002 256.008c0 29.333 4.5 55.1709 13.5 77.5039s21 41.333 36 57s32.167 27.5 51.5 35.5s39.666 12.333 60.999 13
c26 0.666992 48.167 -3.5 66.5 -12.5s33.5 -21.667 45.5 -38s20.833 -35.5 26.5 -57.5s8.5 -45.333 8.5 -70c0 -28.667 -4.33301 -54.334 -13 -77.001s-20.5 -41.5 -35.5 -56.5s-32.167 -26.5 -51.5 -34.5s-39.666 -12.333 -60.999 -13
c-23.333 -0.666992 -44 3.66602 -62 12.999s-33.333 22.166 -46 38.499s-22.5 35.166 -29.5 56.499s-10.5 44 -10.5 68zM587.002 260.013c0 -18.667 1.83496 -35.8311 5.50195 -51.498s8.66699 -29.334 15 -41.001s14.166 -20.834 23.499 -27.501s20 -10 32 -10
c25.333 0 44.666 11.333 57.999 34s20 53.667 20 93c0 20 -1.83301 38 -5.5 54s-8.66699 29.833 -15 41.5s-14.166 20.667 -23.499 27s-20 9.5 -32 9.5c-12.667 0 -23.834 -3 -33.501 -9s-17.667 -14.667 -24 -26s-11.333 -24.833 -15 -40.5s-5.5 -33.5 -5.5 -53.5z" />
    <glyph glyph-name="ampersand" unicode="&#x26;" horiz-adv-x="766" 
d="M91 180c0 23.333 3.83301 44.5029 11.5 63.5029s18.334 36.5 32.001 52.5s30 30.833 49 44.5s40.167 26.5 63.5 38.5c-10 14 -20.167 28.667 -30.5 44s-19.666 31.166 -27.999 47.499s-15 33.333 -20 51s-7.5 35.834 -7.5 54.501c0 30 4.66699 56.667 14 80
s22.5 43 39.5 59s37 28.167 60 36.5s47.5 12.5 73.5 12.5c29.333 0 54.333 -4.5 75 -13.5s37.834 -21.167 51.501 -36.5s23.667 -32.666 30 -51.999s9.5 -39.666 9.5 -60.999c0 -24.667 -4.83301 -47.834 -14.5 -69.501s-22.167 -41.834 -37.5 -60.501
s-32.5 -35.5 -51.5 -50.5s-37.5 -28.5 -55.5 -40.5c7.33301 -10 16.333 -21.333 27 -34s22.167 -26.334 34.5 -41.001s25 -29.5 38 -44.5s25.833 -29.5 38.5 -43.5s24.5 -27 35.5 -39s21.167 -22 30.5 -30c3.33301 8 5.66602 16.333 6.99902 25s2.5 17.167 3.5 25.5
s1.5 16.333 1.5 24v21.5c0 16.667 -0.833008 31.834 -2.5 45.501s-3.33398 25.334 -5.00098 35.001s-3.66699 17.5 -6 23.5s-4.16602 10 -5.49902 12h91c3.33301 -12.667 6.5 -26.667 9.5 -42s4.5 -33 4.5 -53c0 -12.667 -0.833008 -25.834 -2.5 -39.501
s-4.16699 -27.5 -7.5 -41.5s-7.83301 -28 -13.5 -42s-12.834 -27 -21.501 -39c19.333 -14.667 38.166 -26.667 56.499 -36s36.166 -15.333 53.499 -18v-41c-20.667 -6.66699 -44 -7.66699 -70 -3c-15.333 2.66699 -31.166 7.16699 -47.499 13.5s-33.5 15.166 -51.5 26.499
c-12 -10.667 -25.667 -19.667 -41 -27s-31.333 -13.5 -48 -18.5s-33.5 -8.83301 -50.5 -11.5s-33.5 -4 -49.5 -4c-17.333 0 -36 1.16699 -56 3.5s-40 6.16602 -60 11.499s-39.5 12.666 -58.5 21.999s-35.667 21.333 -50 36s-26 32 -35 52s-13.5 43.667 -13.5 71z
M324 418.003c16 8.66699 30.666 18.501 43.999 29.501s24.833 23.5 34.5 37.5s17.334 29.333 23.001 46s8.5 35 8.5 55c0 12.667 -1.33301 26.5 -4 41.5s-7.66699 29 -15 42s-17.166 23.833 -29.499 32.5s-28.5 13 -48.5 13c-10 0 -20.333 -1.66699 -31 -5
s-20.667 -9.16602 -30 -17.499s-17.166 -19.333 -23.499 -33s-9.5 -30.834 -9.5 -51.501c0 -22.667 2.66699 -43.5 8 -62.5s12.166 -36.333 20.499 -52s17.166 -29.834 26.499 -42.501s18 -23.667 26 -33zM179.999 192.004c0 -24 5.00293 -45.166 15.0029 -63.499
s23.667 -34 41 -47s37.333 -22.833 60 -29.5s47 -10 73 -10c14 0 27.667 0.666992 41 2s25.833 3.33301 37.5 6s22.667 6.5 33 11.5s19.5 11.167 27.5 18.5c-11.333 10 -23.833 21.667 -37.5 35s-27.834 27.5 -42.501 42.5s-29.334 30.667 -44.001 47s-28.667 32.5 -42 48.5
s-25.833 31.167 -37.5 45.5s-21.834 27.5 -30.501 39.5c-15.333 -10.667 -29 -20.834 -41 -30.501s-21.833 -20 -29.5 -31s-13.5 -23.333 -17.5 -37s-6 -29.5 -6 -47.5z" />
    <glyph glyph-name="quotesingle" unicode="'" horiz-adv-x="400" 
d="M145 870h110l-24 -398h-62z" />
    <glyph glyph-name="parenleft" unicode="(" horiz-adv-x="396" 
d="M292 -156c-7.33301 4.66699 -18.501 12.8291 -33.501 24.4961s-31.167 27.334 -48.5 47.001s-35.166 43.5 -53.499 71.5s-35 60.167 -50 96.5s-27.167 77 -36.5 122s-14 94.5 -14 148.5c0 47.333 4.66699 91.833 14 133.5s21.5 80.167 36.5 115.5
s31.667 67.166 50 95.499s36.166 53 53.499 74s33.333 37.833 48 50.5s26 21.334 34 26.001l42 -26c-6.66699 -4.66699 -15.667 -12.667 -27 -24s-23.833 -26.166 -37.5 -44.499s-27.5 -40.166 -41.5 -65.499s-26.833 -53.666 -38.5 -84.999s-21.5 -66 -29.5 -104
s-12.667 -78.667 -14 -122c-1.33301 -48.667 1.33398 -94 8.00098 -136s16 -80.667 28 -116s25.5 -67.333 40.5 -96s29.833 -53.5 44.5 -74.5s28.667 -38.333 42 -52s24 -23.5 32 -29.5z" />
    <glyph glyph-name="parenright" unicode=")" horiz-adv-x="396" 
d="M62 -125c6.66699 4.66699 15.833 12.6689 27.5 24.002s24.334 26.166 38.001 44.499s27.5 40 41.5 65s26.833 53.333 38.5 85s21.5 66.334 29.5 104.001s12.667 78.5 14 122.5c1.33301 48.667 -1.33398 94 -8.00098 136s-16 80.667 -28 116s-25.5 67.166 -40.5 95.499
s-29.833 53.166 -44.5 74.499s-28.667 38.833 -42 52.5s-24 23.5 -32 29.5l49 30c7.33301 -4.66699 18.5 -12.834 33.5 -24.501s31.167 -27.5 48.5 -47.5s35.166 -43.833 53.499 -71.5s34.833 -59.667 49.5 -96s26.834 -77 36.501 -122s14.5 -94.5 14.5 -148.5
c0 -47.333 -4.83301 -91.833 -14.5 -133.5s-21.834 -80.167 -36.501 -115.5s-31.167 -67.166 -49.5 -95.499s-36.166 -53 -53.499 -74s-33.333 -38 -48 -51s-26 -21.5 -34 -25.5z" />
    <glyph glyph-name="asterisk" unicode="*" horiz-adv-x="632" 
d="M285 550l13 51l-31 -35l-144 -113l-49 68l167 88l45 15l-44 15l-169 85l48 70l144 -112l33 -34l-13 56l-16 168h44h45l-15 -168l-16 -56l42 40l135 105l55 -70l-171 -81l-49 -18l49 -16l171 -87l-56 -67l-141 113l-34 34l13 -51l17 -175h-89z" />
    <glyph glyph-name="plus" unicode="+" horiz-adv-x="619" 
d="M272 274l3 81l-81 -3h-107v75h107l81 -6l-3 83v111h76v-111l-5 -83l67 6h123v-75h-123l-67 3l5 -81v-117h-76v117z" />
    <glyph glyph-name="comma" unicode="," horiz-adv-x="334" 
d="M96 65l54 71.0029c19.333 -4.66699 35.833 -13 49.5 -25s24.667 -25.667 33 -41s14.333 -31 18 -47s5.5 -30.667 5.5 -44c0 -28 -4.5 -53.833 -13.5 -77.5s-20.833 -44.834 -35.5 -63.501s-31.334 -34.834 -50.001 -48.501s-37.334 -24.5 -56.001 -32.5l-23 29v13
c12 4 23.167 10.667 33.5 20s19.5 20.5 27.5 33.5s14.5 27.167 19.5 42.5s7.5 30.666 7.5 45.999c0 12.667 -2 24.834 -6 36.501s-9.16699 22.167 -15.5 31.5s-13.666 17.166 -21.999 23.499s-17.166 9.83301 -26.499 10.5v22z" />
    <glyph glyph-name="hyphen" unicode="-" horiz-adv-x="605" 
d="M87 427h432v-72h-432v72z" />
    <glyph glyph-name="period" unicode="." horiz-adv-x="344" 
d="M105 49c0 10 2.16699 19.502 6.5 28.502s10 16.667 17 23s14.833 11.333 23.5 15s17.334 5.5 26.001 5.5c21.333 0 37 -6 47 -18s15 -26.333 15 -43c0 -10.667 -2.16699 -20.334 -6.5 -29.001s-9.83301 -16 -16.5 -22s-14.5 -10.833 -23.5 -14.5s-17.833 -5.5 -26.5 -5.5
c-8 0 -15.833 1.5 -23.5 4.5s-14.334 7 -20.001 12s-10.167 11.167 -13.5 18.5s-5 15.666 -5 24.999z" />
    <glyph glyph-name="slash" unicode="/" horiz-adv-x="398" 
d="M294 781h90l-280 -958h-89z" />
    <glyph glyph-name="zero" unicode="0" horiz-adv-x="647" 
d="M64 309c0.666992 47.333 8.50293 89.6689 23.5029 127.002s34.833 68.833 59.5 94.5s53 45.5 85 59.5s65.667 21 101 21c47.333 0 87.166 -7.83301 119.499 -23.5s58.333 -37.334 78 -65.001s33.667 -60.167 42 -97.5s12.166 -77.666 11.499 -120.999
c0 -46.667 -7 -89.5 -21 -128.5s-32.833 -72.5 -56.5 -100.5s-51.5 -49.833 -83.5 -65.5s-66 -23.5 -102 -23.5c-30.667 0 -58.5 4.16699 -83.5 12.5s-47 19.666 -66 33.999s-35.333 31.666 -49 51.999s-24.834 42.5 -33.501 66.5s-15 49.333 -19 76s-6 54 -6 82z
M325.003 38.0029c29.333 -0.666992 54.168 4.83789 74.501 16.5049s36.666 28.834 48.999 51.501s21.333 50.334 27 83.001s8.5 69.667 8.5 111c0 36.667 -3 70.667 -9 102s-15.333 58.666 -28 81.999s-29 41.666 -49 54.999s-43.667 20.333 -71 21
c-29.333 0 -54.333 -5.5 -75 -16.5s-37.5 -27.167 -50.5 -48.5s-22.333 -47.333 -28 -78s-8.5 -65.334 -8.5 -104.001c0 -34.667 3.16699 -68.334 9.5 -101.001s16 -61.834 29 -87.501s29.5 -46.334 49.5 -62.001s44 -23.834 72 -24.501z" />
    <glyph glyph-name="one" unicode="1" horiz-adv-x="455" 
d="M57 42l142.002 12.999v445l-133 -26l-10 48c10 2.66699 21.667 6.66699 35 12s27.166 10.833 41.499 16.5s28.833 11.834 43.5 18.501s28.167 13 40.5 19s23.166 11.5 32.499 16.5s16 9.16699 20 12.5l25 -7l-1 -556l131 -12v-42h-367v42z" />
    <glyph glyph-name="two" unicode="2" horiz-adv-x="596" 
d="M64 39c42.667 26.667 83.498 55.3311 122.498 85.998s73.5 62.5 103.5 95.5s53.833 66 71.5 99s26.5 65.167 26.5 96.5c0 15.333 -2.16699 31.166 -6.5 47.499s-11.666 31 -21.999 44s-23.666 23.667 -39.999 32s-36.5 12.5 -60.5 12.5
c-16.667 0 -33.334 -2.33301 -50.001 -7s-32.5 -10.667 -47.5 -18s-28.667 -15.166 -41 -23.499s-22.833 -16.166 -31.5 -23.499l-23 38c9.33301 11.333 21.666 22.833 36.999 34.5s33 22.334 53 32.001s41.5 17.5 64.5 23.5s46.833 9 71.5 9
c33.333 0 62.333 -4.83301 87 -14.5s44.834 -22.334 60.501 -38.001s27.334 -33.667 35.001 -54s11.5 -41.166 11.5 -62.499c0 -34 -7.66699 -68.5 -23 -103.5s-36.5 -69.5 -63.5 -103.5s-59 -66.5 -96 -97.5s-77.167 -59.5 -120.5 -85.5l279 21l47 69l42 -14l-32 -134h-441
z" />
    <glyph glyph-name="three" unicode="3" horiz-adv-x="524" 
d="M61 -102c28 -4.66699 54.832 -6.16504 80.499 -4.49805s50 6 73 13s44 16.5 63 28.5s35.333 25.833 49 41.5s24.334 32.667 32.001 51s11.5 37.5 11.5 57.5c0 23.333 -2.83301 44.166 -8.5 62.499s-15 33.666 -28 45.999s-30.167 21.833 -51.5 28.5s-48 10 -80 10
l-75 -16v65c27.333 5.33301 53 12.666 77 21.999s45.333 20.333 64 33s33.5 27 44.5 43s16.5 33.333 16.5 52c0 22.667 -3 41.667 -9 57s-14.5 28 -25.5 38s-23.667 17.167 -38 21.5s-29.166 6.5 -44.499 6.5c-18.667 0 -35.334 -1.66699 -50.001 -5
s-28.167 -7.5 -40.5 -12.5s-23.666 -10.833 -33.999 -17.5s-20.166 -13.334 -29.499 -20.001l-26 43c7.33301 8 17.666 16.5 30.999 25.5s28.833 17.333 46.5 25s37.834 14.167 60.501 19.5s47.334 8 74.001 8c22.667 0 45.167 -3 67.5 -9s42.166 -15.333 59.499 -28
s31.333 -29.167 42 -49.5s16 -44.833 16 -73.5c0 -19.333 -4.66699 -39.166 -14 -59.499s-21.833 -39.333 -37.5 -57s-33.167 -33.167 -52.5 -46.5s-39.333 -23 -60 -29c34.667 1.33301 65 -2.16699 91 -10.5s47.5 -20 64.5 -35s29.667 -32.667 38 -53
s12.5 -42.166 12.5 -65.499c0 -25.333 -4.5 -50 -13.5 -74s-22 -46.833 -39 -68.5s-37.5 -41.167 -61.5 -58.5s-51.333 -31.5 -82 -42.5s-63.834 -18.167 -99.501 -21.5s-73.834 -1.33301 -114.501 6v26.5v26.5z" />
    <glyph glyph-name="four" unicode="4" horiz-adv-x="611" 
d="M37 46c25.333 46 50.666 91.5 75.999 136.5s50.833 90.667 76.5 137s51.334 94.333 77.001 144s51.167 102.5 76.5 158.5h31l57 -43l-276 -472l-35 -51l255 15l1 229l86 24v-247l103 6v-83h-103v-184h-88l1 184h-323z" />
    <glyph glyph-name="five" unicode="5" horiz-adv-x="526" 
d="M67 -120c23.333 -2.66699 46.999 -1.99805 70.999 2.00195s47.167 10.667 69.5 20s43.166 21.166 62.499 35.499s36.333 30.666 51 48.999s26.167 38.333 34.5 60s12.5 44.5 12.5 68.5c0 28.667 -3.5 53.5 -10.5 74.5s-17 38.333 -30 52s-28.5 24 -46.5 31
s-37.833 11.167 -59.5 12.5s-44.5 -0.166992 -68.5 -4.5s-48.333 -10.5 -73 -18.5l-18 14l39 328h259l14 9h55l-24 -90h-233l-36 -208c24 11.333 48.833 19.166 74.5 23.499s50.834 5.16602 75.501 2.49902s48 -9.16699 70 -19.5s41.333 -24.5 58 -42.5
s29.834 -39.667 39.501 -65s14.5 -54.666 14.5 -87.999c0 -22.667 -4 -45.834 -12 -69.501s-19.5 -46.5 -34.5 -68.5s-33 -42.667 -54 -62s-44.5 -36.166 -70.5 -50.499s-54.167 -25.666 -84.5 -33.999s-62.166 -12.5 -95.499 -12.5c-8 0 -16.333 0.5 -25 1.5
s-17.334 2.5 -26.001 4.5z" />
    <glyph glyph-name="six" unicode="6" horiz-adv-x="610" 
d="M62 275c0 42 5.83203 82.0039 17.499 120.004s27.5 73.5 47.5 106.5s43.667 63.333 71 91s56.5 52 87.5 73s63.333 38.667 97 53s66.834 24.5 99.501 30.5l20 -41c-53.333 -17.333 -100.666 -40 -141.999 -68s-76.5 -59.167 -105.5 -93.5s-51.167 -70.5 -66.5 -108.5
s-23.666 -75.333 -24.999 -112c-1.33301 -36 -0.166016 -71.167 3.50098 -105.5s11.667 -64.833 24 -91.5s29.333 -48 51 -64s49.5 -24 83.5 -24c24.667 0 46 5.33301 64 16s32.833 24.667 44.5 42s20.167 36.5 25.5 57.5s8 41.833 8 62.5c0 30.667 -3 58 -9 82
s-14.333 44 -25 60s-23.334 28 -38.001 36s-30.667 12 -48 12c-13.333 0 -25.166 -0.833008 -35.499 -2.5s-19.166 -3.83398 -26.499 -6.50098s-14 -5.66699 -20 -9s-11.333 -7 -16 -11l-22 38c4 6 10.833 12.333 20.5 19s21.167 12.5 34.5 17.5s27.833 9.33301 43.5 13
s31.167 5.5 46.5 5.5c31.333 0 58.666 -6.33301 81.999 -19s42.666 -29.167 57.999 -49.5s26.833 -43.333 34.5 -69s11.5 -51.167 11.5 -76.5c0 -20.667 -2.5 -41.834 -7.5 -63.501s-12.333 -42.334 -22 -62.001s-21.5 -38.334 -35.5 -56.001s-30.167 -33 -48.5 -46
s-38.833 -23.167 -61.5 -30.5s-47.334 -11 -74.001 -11c-38.667 0 -73.334 7.66699 -104.001 23s-56.5 36 -77.5 62s-37.167 56.167 -48.5 90.5s-17 70.833 -17 109.5z" />
    <glyph glyph-name="seven" unicode="7" horiz-adv-x="603" 
d="M178 -120c52 106 101.333 214.5 148 325.5s93.667 224.5 141 340.5l-302 -11l-46 -87l-49 5l24 159h436l17 -19l-271 -747z" />
    <glyph glyph-name="eight" unicode="8" horiz-adv-x="605" 
d="M63 182c0 18 3.17188 36.3311 9.50488 54.998s15.833 36.5 28.5 53.5s28.667 33.5 48 49.5s41.666 30.333 66.999 43c-16 11.333 -31.167 23.333 -45.5 36s-26.5 26.5 -36.5 41.5s-18 31.5 -24 49.5s-9 37.667 -9 59c0 32 6.33301 59.833 19 83.5
s29.334 43.334 50.001 59.001s44.167 27.334 70.5 35.001s52.833 11.5 79.5 11.5c28 0 54.167 -4 78.5 -12s45.5 -19.5 63.5 -34.5s32.167 -32.833 42.5 -53.5s15.5 -43.667 15.5 -69c0 -18 -3.16699 -37 -9.5 -57s-15.333 -39.167 -27 -57.5s-25.834 -35.5 -42.501 -51.5
s-35.334 -29 -56.001 -39c21.333 -13.333 42.166 -26.833 62.499 -40.5s38 -28 53 -43s27.333 -31 37 -48s14.5 -35.5 14.5 -55.5c0 -24.667 -3 -46.834 -9 -66.501s-14.833 -37.334 -26.5 -53.001s-25.334 -29.167 -41.001 -40.5s-32.667 -20.833 -51 -28.5
s-37.333 -13.334 -57 -17.001s-39.167 -5.5 -58.5 -5.5c-18.667 0 -37.834 1.83301 -57.501 5.5s-38.667 8.83398 -57 15.501s-35.5 15.334 -51.5 26.001s-30 23.334 -42 38.001s-21.333 31.167 -28 49.5s-10 38.833 -10 61.5zM333.005 414.998
c14 4 27.3311 10.8369 39.998 20.5039s23.834 21.167 33.501 34.5s17.5 27.666 23.5 42.999s9.33301 30.333 10 45c0.666992 22.667 -2 43.5 -8 62.5s-14.667 35.167 -26 48.5s-24.833 23.666 -40.5 30.999s-32.5 11 -50.5 11c-17.333 0 -34.166 -3 -50.499 -9
s-31 -14.333 -44 -25s-23.333 -23.834 -31 -39.501s-11.5 -33.167 -11.5 -52.5c0 -17.333 4.16699 -33.666 12.5 -48.999s19.833 -29.833 34.5 -43.5s31.167 -26.834 49.5 -39.501s37.833 -25.334 58.5 -38.001zM153.003 205.002c0 -23.333 3.83301 -45.1689 11.5 -65.502
s18.834 -38.166 33.501 -53.499s32.667 -27.5 54 -36.5s45.333 -13.5 72 -13.5c16.667 0 33.667 3 51 9s32.833 14.5 46.5 25.5s24.667 24.333 33 40s12.5 33.167 12.5 52.5c0 22 -6 41.5 -18 58.5s-27.667 32.833 -47 47.5s-41.333 28.667 -66 42
s-49.334 27.333 -74.001 42c-14.667 -6.66699 -28.5 -15.167 -41.5 -25.5s-24.5 -21.666 -34.5 -33.999s-18 -26 -24 -41s-9 -30.833 -9 -47.5z" />
    <glyph glyph-name="nine" unicode="9" horiz-adv-x="615" 
d="M116 -156c35.333 11.333 67.8301 26.333 97.4971 45s56.667 39.5 81 62.5s45.833 48 64.5 75s34.334 54.667 47.001 83s22.5 56.666 29.5 84.999s10.833 55.5 11.5 81.5c1.33301 36 0.5 71.167 -2.5 105.5s-10.167 64.833 -21.5 91.5s-27.333 48.167 -48 64.5
s-48.334 24.5 -83.001 24.5c-24.667 0 -45.834 -5.5 -63.501 -16.5s-32.334 -25.167 -44.001 -42.5s-20.334 -36.5 -26.001 -57.5s-8.5 -41.833 -8.5 -62.5c0 -30.667 3.16699 -58 9.5 -82s14.833 -44 25.5 -60s23.334 -28 38.001 -36s30.667 -12 48 -12
c10.667 0 20.834 0.833008 30.501 2.5s18.834 4 27.501 7s16.5 6.16699 23.5 9.5s12.5 6.66602 16.5 9.99902l22 -38c-6 -7.33301 -14.167 -14.333 -24.5 -21s-21.833 -12.5 -34.5 -17.5s-26.334 -9 -41.001 -12s-29.667 -4.5 -45 -4.5
c-31.333 0 -58.666 6.33301 -81.999 19s-42.666 29.167 -57.999 49.5s-26.833 43.333 -34.5 69s-11.5 51.167 -11.5 76.5c0 20.667 2.33301 41.834 7 63.501s12 42.5 22 62.5s22 38.667 36 56s30.167 32.5 48.5 45.5s38.833 23.167 61.5 30.5s47.334 11 74.001 11
c38.667 0 72.834 -7.66699 102.501 -23s54.5 -36.166 74.5 -62.499s35.167 -56.666 45.5 -90.999s15.5 -70.5 15.5 -108.5c0 -44 -5.66699 -86.833 -17 -128.5s-26.833 -80.834 -46.5 -117.501s-42.667 -70.667 -69 -102s-54.833 -59.166 -85.5 -83.499
s-62.5 -44.333 -95.5 -60s-66.167 -26.834 -99.5 -33.501z" />
    <glyph glyph-name="colon" unicode=":" horiz-adv-x="344" 
d="M167 385c-8 0 -15.832 1.33301 -23.499 4s-14.334 6.5 -20.001 11.5s-10.167 11.333 -13.5 19s-5 16.167 -5 25.5c0 10 2.16699 19.333 6.5 28s10 16.167 17 22.5s14.833 11.333 23.5 15s17.334 5.5 26.001 5.5c21.333 0 37 -6 47 -18s15 -26 15 -42
c0 -10.667 -2.16699 -20.5 -6.5 -29.5s-9.83301 -16.5 -16.5 -22.5s-14.334 -10.667 -23.001 -14s-17.667 -5 -27 -5zM105.001 49c0 10 2.16699 19.502 6.5 28.502s10 16.667 17 23s14.833 11.333 23.5 15s17.334 5.5 26.001 5.5c21.333 0 37 -6 47 -18s15 -26.333 15 -43
c0 -10.667 -2.16699 -20.334 -6.5 -29.001s-9.83301 -16 -16.5 -22s-14.5 -10.833 -23.5 -14.5s-17.833 -5.5 -26.5 -5.5c-8 0 -15.833 1.5 -23.5 4.5s-14.334 7 -20.001 12s-10.167 11.167 -13.5 18.5s-5 15.666 -5 24.999z" />
    <glyph glyph-name="semicolon" unicode=";" horiz-adv-x="344" 
d="M167 385c-8 0 -15.832 1.33301 -23.499 4s-14.334 6.5 -20.001 11.5s-10.167 11.333 -13.5 19s-5 16.167 -5 25.5c0 10 2.16699 19.333 6.5 28s10 16.167 17 22.5s14.833 11.333 23.5 15s17.334 5.5 26.001 5.5c21.333 0 37 -6 47 -18s15 -26 15 -42
c0 -10.667 -2.16699 -20.5 -6.5 -29.5s-9.83301 -16.5 -16.5 -22.5s-14.334 -10.667 -23.001 -14s-17.667 -5 -27 -5zM115.001 65l54 71.0029c19.333 -4.66699 35.833 -13 49.5 -25s24.667 -25.667 33 -41s14.333 -31 18 -47s5.5 -30.667 5.5 -44
c0 -28 -4.5 -53.833 -13.5 -77.5s-20.833 -44.834 -35.5 -63.501s-31.334 -34.834 -50.001 -48.501s-37.334 -24.5 -56.001 -32.5l-23 29v13c12 4 23.167 10.667 33.5 20s19.5 20.5 27.5 33.5s14.5 27.167 19.5 42.5s7.5 30.666 7.5 45.999c0 12.667 -2 24.834 -6 36.501
s-9.16699 22.167 -15.5 31.5s-13.666 17.166 -21.999 23.499s-17.166 9.83301 -26.499 10.5v22z" />
    <glyph glyph-name="less" unicode="&#x3c;" horiz-adv-x="646" 
d="M62 399l474 242v-89l-390 -185l390 -184v-90l-474 241v65z" />
    <glyph glyph-name="equal" unicode="=" horiz-adv-x="605" 
d="M87 518h432v-72h-432v72zM87 328h432v-72h-432v72z" />
    <glyph glyph-name="greater" unicode="&#x3e;" horiz-adv-x="646" 
d="M111 182l390 185l-390 184v90l473 -241v-66l-473 -241v89z" />
    <glyph glyph-name="question" unicode="?" horiz-adv-x="494" 
d="M230 239c-8 6 -16.832 15.5029 -26.499 28.5029s-19 27.333 -28 43s-16.833 32 -23.5 49s-10.334 32.167 -11.001 45.5c-0.666992 14 4.33301 26.5 15 37.5s24.5 21.333 41.5 31s35.5 18.667 55.5 27s39 16.5 57 24.5s33.333 15.667 46 23s20.334 15 23.001 23
c1.33301 21.333 -0.666992 42 -6 62s-13.166 38.833 -23.499 56.5s-22.833 34 -37.5 49s-31 27.667 -49 38s-37 18.5 -57 24.5s-40.667 9 -62 9c-6 0 -12.833 -0.166992 -20.5 -0.5s-15.167 -0.833008 -22.5 -1.5s-14.333 -1.83398 -21 -3.50098s-12.334 -3.5 -17.001 -5.5
v75c2.66699 3.33301 7.16699 6.33301 13.5 9s13.833 5 22.5 7s18 3.5 28 4.5s19.667 1.5 29 1.5c40.667 0 76.667 -4.83301 108 -14.5s58.333 -22.834 81 -39.501s41.5 -35.834 56.5 -57.501s26.667 -44.334 35 -68.001s13.666 -47.5 15.999 -71.5s1.83301 -46.333 -1.5 -67
c0 -12 -4.83301 -23.167 -14.5 -33.5s-22 -20 -37 -29s-31.333 -17.667 -49 -26s-34.667 -16.666 -51 -24.999s-30.333 -17 -42 -26s-19.167 -18.5 -22.5 -28.5c-2 -13.333 -1.83301 -26.833 0.5 -40.5s6 -27.667 11 -42s10.667 -28.833 17 -43.5s12.5 -29.667 18.5 -45h-52
zM198.001 49.0029c0 10 2.16602 19.502 6.49902 28.502s10 16.667 17 23s14.833 11.333 23.5 15s17.334 5.5 26.001 5.5c21.333 0 37 -6 47 -18s15 -26.333 15 -43c0 -10.667 -2.16699 -20.334 -6.5 -29.001s-9.83301 -16 -16.5 -22s-14.5 -10.833 -23.5 -14.5
s-17.833 -5.5 -26.5 -5.5c-8 0 -15.667 1.5 -23 4.5s-14 7 -20 12s-10.667 11.167 -14 18.5s-5 15.666 -5 24.999z" />
    <glyph glyph-name="at" unicode="@" horiz-adv-x="1041" 
d="M115 203c0 50.667 5.99902 98.3301 17.999 142.997s28.667 85.334 50 122.001s46.833 69.5 76.5 98.5s62.167 53.5 97.5 73.5s73 35.333 113 46s81.333 16 124 16c46.667 0 90.334 -7 131.001 -21s76 -34 106 -60s53.667 -58 71 -96s26 -81 26 -129
c0 -44.667 -4 -85 -12 -121s-18.833 -68 -32.5 -96s-29.334 -52 -47.001 -72s-36.334 -36.667 -56.001 -50s-39.5 -23 -59.5 -29s-39 -9 -57 -9c-7.33301 0 -14.333 1.33301 -21 4s-12.667 7 -18 13s-9.66602 13.833 -12.999 23.5s-5.66602 21.5 -6.99902 35.5
c-1.33301 13.333 -1.33301 30.166 0 50.499s5 47.5 11 81.5c-10.667 -26.667 -23 -52.834 -37 -78.501s-29.333 -48.5 -46 -68.5s-34 -36.333 -52 -49s-36.667 -19 -56 -19c-14.667 0 -29.5 4.5 -44.5 13.5s-28.333 22 -40 39s-21.167 37.833 -28.5 62.5
s-11 52.334 -11 83.001c0 20.667 2.16699 42.667 6.5 66s11 46.166 20 68.499s19.667 43.833 32 64.5s26.833 38.834 43.5 54.501s35 28.167 55 37.5s41.667 14 65 14c8 0 17.5 -0.5 28.5 -1.5s22.333 -2.5 34 -4.5s23 -4.5 34 -7.5s20.5 -6.83301 28.5 -11.5
c2 6 4.66699 11.5 8 16.5s8 6.83301 14 5.5c9.33301 -2.66699 18.666 -5.66699 27.999 -9s19.333 -6.66602 30 -9.99902c-4 -17.333 -8 -38.5 -12 -63.5s-7.66699 -51 -11 -78s-6.5 -54.167 -9.5 -81.5s-5.83301 -52.666 -8.5 -75.999c-2 -17.333 -3 -33.166 -3 -47.499
s0.666992 -26.666 2 -36.999s3.33301 -18.5 6 -24.5s6 -9 10 -9c9.33301 0 19.833 3.33301 31.5 10s23.334 16.167 35.001 28.5s23 27 34 44s20.833 36 29.5 57s15.5 43.5 20.5 67.5s7.5 49.333 7.5 76c0 34.667 -4 65.667 -12 93s-19 51.333 -33 72
s-30.667 38.334 -50 53.001s-40.333 26.5 -63 35.5s-46.5 15.5 -71.5 19.5s-50.167 6 -75.5 6c-32.667 0 -64.334 -3.83301 -95.001 -11.5s-59.5 -19.167 -86.5 -34.5s-52 -34.333 -75 -57s-42.833 -48.834 -59.5 -78.501s-29.5 -63 -38.5 -100s-13.5 -77.5 -13.5 -121.5
c0 -43.333 4.33301 -82.333 13 -117s20.667 -65 36 -91s33.833 -48.167 55.5 -66.5s45.5 -33.333 71.5 -45s53.667 -20.167 83 -25.5s60 -8 92 -8c14 0 29.167 1 45.5 3s32.333 4.33301 48 7s30 6 43 10s23.833 8 32.5 12l18 -42c-10.667 -8.66699 -24.5 -16.5 -41.5 -23.5
s-35.5 -12.833 -55.5 -17.5s-41 -8.5 -63 -11.5s-43.667 -4.5 -65 -4.5c-55.333 0 -106.5 9.16699 -153.5 27.5s-87.667 44.166 -122 77.499s-61.166 74 -80.499 122s-29 101.667 -29 161zM377.999 246.996c0 -8 0.331055 -17.3271 0.998047 -27.9941
s1.83398 -21.834 3.50098 -33.501s4 -22.834 7 -33.501s7 -20.334 12 -29.001s11.167 -15.667 18.5 -21s16 -8 26 -8c10.667 0 22.334 5.16699 35.001 15.5s25.5 24.166 38.5 41.499s25.5 37.166 37.5 59.499s23 45.166 33 68.499s18.5 46.5 25.5 69.5
s11.5 43.833 13.5 62.5c-4.66699 5.33301 -11.334 10 -20.001 14s-18 7.33301 -28 10s-19.833 4.66699 -29.5 6s-18.5 2 -26.5 2c-27.333 0 -50.333 -5.33301 -69 -16s-33.667 -25 -45 -43s-19.666 -38.833 -24.999 -62.5s-8 -48.5 -8 -74.5z" />
    <glyph glyph-name="A" unicode="A" horiz-adv-x="729" 
d="M1 42l70 14l254 702h82l243 -702l78 -14v-42h-258v42l81 14l-52 157h-293l-53 -157l81 -14v-42h-233v42zM479 271l-79 238l-46 147l-129 -385h254z" />
    <glyph glyph-name="B" unicode="B" horiz-adv-x="692" 
d="M52 42l82.002 13.9971v646l-80 8v48h123c21.333 0.666992 46.833 2.16699 76.5 4.5s64.167 3.16602 103.5 2.49902c39.333 0 74 -4 104 -12s55 -19.5 75 -34.5s35.333 -33 46 -54s16 -44.5 16 -70.5c0 -22.667 -2.83301 -44 -8.5 -64s-14.5 -38.167 -26.5 -54.5
s-26.833 -30.333 -44.5 -42s-38.834 -20.167 -63.501 -25.5c26.667 0 51.667 -4.66699 75 -14s43.666 -22 60.999 -38s31 -35.333 41 -58s15 -47.667 15 -75c0 -32.667 -6.33301 -63.167 -19 -91.5s-32.167 -52.666 -58.5 -72.999s-59.166 -36.333 -98.499 -48
s-86 -17.5 -140 -17.5c-14 0 -28.333 0.333008 -43 1s-28.834 1.33398 -42.501 2.00098s-26.5 1.33398 -38.5 2.00098s-22.333 1.33398 -31 2.00098h-124v42zM229.002 428.997c8 -1.33301 17.168 -2.33398 27.501 -3.00098s20.833 -1 31.5 -1s21.167 0.166992 31.5 0.5
s19.5 0.5 27.5 0.5c24.667 0 47 3.16699 67 9.5s36.833 15.833 50.5 28.5s24.334 28.334 32.001 47.001s11.5 40.334 11.5 65.001c0 22.667 -4.33301 42.667 -13 60s-20.667 31.666 -36 42.999s-33.333 19.833 -54 25.5s-43.334 8.5 -68.001 8.5h-23.5
c-9.66699 0 -19.834 -0.166992 -30.501 -0.5s-20.667 -1 -30 -2s-17 -2.5 -23 -4.5zM229.003 65.9961c4 -2.66699 10.999 -5.16797 20.999 -7.50098s20.833 -4.33301 32.5 -6s23.667 -3 36 -4s23.833 -1.5 34.5 -1.5c26.667 0 51.667 2.66699 75 8s43.833 14.333 61.5 27
s31.5 29 41.5 49s15 44.333 15 73c0 56 -15.333 97 -46 123s-76.667 39 -138 39c-11.333 0 -23 0.166992 -35 0.5s-23.833 0.333008 -35.5 0s-22.667 -0.666016 -33 -0.999023s-20.166 -0.833008 -29.499 -1.5v-298z" />
    <glyph glyph-name="C" unicode="C" horiz-adv-x="688" 
d="M42 354c0 42 4.83008 81.168 14.4971 117.501s23.334 69.833 41.001 100.5s38.667 57.834 63 81.501s51.166 43.834 80.499 60.501s60.333 29.334 93 38.001s66.667 13 102 13c23.333 0 45 -1.33301 65 -4s38.5 -5.83398 55.5 -9.50098s32.333 -7.5 46 -11.5
s25.834 -7.33301 36.501 -10l-8 -141h-51l-26 81c-10.667 6.66699 -21.167 12.5 -31.5 17.5s-21.333 9.16699 -33 12.5s-24.5 5.5 -38.5 6.5s-29.333 1.5 -46 1.5c-34.667 0 -68 -7 -100 -21s-60 -34.833 -84 -62.5s-43.167 -61.834 -57.5 -102.501
s-21.5 -86.667 -21.5 -138c0 -46 5.66699 -90 17 -132s28.5 -78.833 51.5 -110.5s51.5 -56.834 85.5 -75.501s73.333 -28 118 -28c39.333 0 71.5 5 96.5 15s44.833 24.333 59.5 43l28 75h20.5h21.5v-140c-12 -0.666992 -25 -3.33398 -39 -8.00098
s-30.833 -9.66699 -50.5 -15s-42.5 -10.333 -68.5 -15s-56.333 -7 -91 -7c-50.667 0 -97.167 9 -139.5 27s-79.166 43.167 -110.499 75.5s-55.666 71 -72.999 116s-26 94.833 -26 149.5z" />
    <glyph glyph-name="D" unicode="D" horiz-adv-x="777" 
d="M52 42l82 14.002v646l-80 8v48h128c22 0 41 0.333008 57 1s30.833 1.5 44.5 2.5s27 1.83301 40 2.5s27.167 1 42.5 1c63.333 0 118 -8.33301 164 -25s84.167 -40.834 114.5 -72.501s52.833 -70.167 67.5 -115.5s22 -96.333 22 -153c0 -64 -10 -121.333 -30 -172
s-47.333 -93.334 -82 -128.001s-75.5 -61 -122.5 -79s-97.5 -26.333 -151.5 -25c-24 0.666992 -49.333 1.66699 -76 3s-56 2 -88 2h-66h-66v42zM229 64.002c20.667 -6 42.168 -10.1689 64.501 -12.502s46.166 -3.16602 71.499 -2.49902
c36 0.666992 70.167 7.83398 102.5 21.501s60.833 33.667 85.5 60s44.334 59.833 59.001 100.5s22 88.667 22 144c0 57.333 -7 107.333 -21 150s-33.833 77.834 -59.5 105.501s-56.834 48.167 -93.501 61.5s-78 19.333 -124 18c-13.333 0 -25 -0.333008 -35 -1
s-19 -1.33398 -27 -2.00098s-15.5 -1.5 -22.5 -2.5s-14.5 -2.16699 -22.5 -3.5v-637z" />
    <glyph glyph-name="E" unicode="E" horiz-adv-x="644" 
d="M50 42l82 14v646l-80 8v48h507l14 -139h-54l-22 82l-270 6v-285l182 4l14 76h50v-210h-50l-14 75l-182 3v-317l290 9l49 101l47 -12l-22 -151h-541v42z" />
    <glyph glyph-name="F" unicode="F" horiz-adv-x="604" 
d="M51 42l83 14v646l-80 8v48h524l9 -139l-48 -1l-23 80l-287 7v-291l215 4l19 71h48v-205h-54l-13 73l-215 4v-305l141 -10v-46h-319v42z" />
    <glyph glyph-name="G" unicode="G" horiz-adv-x="750" 
d="M42 354c0 42 4.67188 81.166 14.0049 117.499s22.666 69.833 39.999 100.5s38 57.834 62 81.501s50.5 43.834 79.5 60.501s60 29.334 93 38.001s67.5 13 103.5 13c30.667 0 57.834 -1.16699 81.501 -3.5s44.667 -5.16602 63 -8.49902s34 -6.83301 47 -10.5
s23.833 -6.5 32.5 -8.5l-8 -142h-52l-25 82c-2.66699 3.33301 -8.16699 7 -16.5 11s-19.5 7.83301 -33.5 11.5s-31 6.66699 -51 9s-43 3.16602 -69 2.49902c-34.667 -0.666992 -67.834 -8.33398 -99.501 -23.001s-59.5 -35.834 -83.5 -63.501s-43 -61.5 -57 -101.5
s-21 -85.333 -21 -136c0 -29.333 2.33301 -58.333 7 -87s11.667 -55.834 21 -81.501s21.333 -49.334 36 -71.001s31.667 -40.5 51 -56.5s41.166 -28.333 65.499 -37s51.5 -13 81.5 -13c14 0 28.5 0.666992 43.5 2s29.667 3.83301 44 7.5s27.833 8.83398 40.5 15.501
s23.667 15.334 33 26.001v201l-118 8v48h274v-48l-60 -9v-249c-10.667 -0.666992 -25.834 -3.83398 -45.501 -9.50098s-41.834 -11.834 -66.501 -18.501s-51.334 -12.667 -80.001 -18s-58 -8 -88 -8c-50.667 0 -96.667 9.33301 -138 28s-77 44.334 -107 77.001
s-53.167 71.334 -69.5 116.001s-24.5 93.667 -24.5 147z" />
    <glyph glyph-name="H" unicode="H" horiz-adv-x="833" 
d="M52 42l82 14v646l-80 8v48h255v-48l-80 -8v-305h375v305l-81 8v48h254v-48l-78 -8v-646l84 -14v-42h-263v42l84 14v284h-375v-284l84 -14v-42h-261v42z" />
    <glyph glyph-name="I" unicode="I" horiz-adv-x="372" 
d="M51 42l88 14v646l-86 8v48h265v-48l-84 -8v-646l89 -14v-42h-272v42z" />
    <glyph glyph-name="J" unicode="J" horiz-adv-x="351" 
d="M116 -29c4.66699 14 8.49707 29 11.4971 45s5.33301 33.167 7 51.5s2.83398 38 3.50098 59s1 44.167 1 69.5v506l-81 8v48h255v-48l-79 -8v-433v-68c0 -22 -0.166992 -43.333 -0.5 -64s-1.16602 -40.5 -2.49902 -59.5s-3.33301 -36.833 -6 -53.5
c-6.66699 -32 -18.167 -60.5 -34.5 -85.5s-35.5 -46.333 -57.5 -64s-46 -32 -72 -43s-52 -18.167 -78 -21.5l-25 34c18 6 35.333 13 52 21s31.834 17.333 45.501 28s25.667 22.5 36 35.5s18.5 27.167 24.5 42.5z" />
    <glyph glyph-name="K" unicode="K" horiz-adv-x="692" 
d="M52 42l82.0039 14.001v646l-80 8v48h255v-48l-80 -8v-337l278 337l-75 8c0 8 -0.166992 16 -0.5 24s-0.5 16 -0.5 24h244v-48l-80 -8l-229 -264c8 -9.33301 17.5 -21.833 28.5 -37.5s22.667 -33.167 35 -52.5s25.166 -40 38.499 -62s26.666 -43.667 39.999 -65
s26.166 -41.833 38.499 -61.5s23.833 -36.834 34.5 -51.501s20 -26.334 28 -35.001s13.667 -13 17 -13l79 -18v-42h-151c-4 0 -9.83301 4.33301 -17.5 13s-16.167 20.5 -25.5 35.5s-19.666 32.167 -30.999 51.5s-22.833 39.5 -34.5 60.5s-23.667 42.333 -36 64
s-24.333 42 -36 61s-22.834 36.333 -33.501 52s-20.334 27.834 -29.001 36.501l-82 -94v-225l90 -13v-42h-267v42z" />
    <glyph glyph-name="L" unicode="L" horiz-adv-x="607" 
d="M52 42l82 14v641l-80 8v53h262v-53l-86 -8l-1 -642l261 11l60 117l43 -21l-32 -162h-509v42z" />
    <glyph glyph-name="M" unicode="M" horiz-adv-x="965" 
d="M38 42l84 14.001l48 641l-95 8v53h225l176 -532l23 -72l22 74l168 530h207v-53l-91 -8l55 -641l84 -14v-42h-254v42l81 14l-41 457l-4 169l-20 -80l-206 -609h-33l-187 534c-9.33301 26.667 -18.5 53.167 -27.5 79.5s-17.833 53.166 -26.5 80.499l-4 -167l-24 -464
l93 -14v-42h-253v42z" />
    <glyph glyph-name="N" unicode="N" horiz-adv-x="811" 
d="M51 42l83 14v641l-80 8v53h173l327 -534l69 -134v607l-80 9v52h231v-52l-81 -9v-697h-100l-322 508l-67 136v-588l95 -14v-42h-248v42z" />
    <glyph glyph-name="O" unicode="O" horiz-adv-x="758" 
d="M44 367c1.33301 62 11.3301 117.502 29.9971 166.502s43.834 90.333 75.501 124s68.334 59.667 110.001 78s86.167 28.166 133.5 29.499c50.667 1.33301 96.334 -7.33398 137.001 -26.001s75 -45 103 -79s49.333 -74.5 64 -121.5s21.667 -98.167 21 -153.5
c-1.33301 -62 -11 -117.5 -29 -166.5s-42.333 -90.667 -73 -125s-66.5 -60.5 -107.5 -78.5s-84.5 -27.667 -130.5 -29c-51.333 -0.666992 -97.833 8.33301 -139.5 27s-77.167 45.167 -106.5 79.5s-51.5 74.833 -66.5 121.5s-22.167 97.667 -21.5 153zM385.997 38.002
c36 0 68 7.83301 96 23.5s51.667 38.334 71 68.001s34 66 44 109s15 91.5 15 145.5c0 28 -2.16699 55.833 -6.5 83.5s-10.833 53.667 -19.5 78s-19.334 46.833 -32.001 67.5s-27.5 38.334 -44.5 53.001s-36 26.167 -57 34.5s-43.833 12.5 -68.5 12.5
c-36 0 -68.333 -7.66699 -97 -23s-53.167 -37.833 -73.5 -67.5s-36.166 -66 -47.499 -109s-17 -91.5 -17 -145.5c0 -42.667 5.33301 -83.834 16 -123.501s26.167 -74.834 46.5 -105.501s45 -55.167 74 -73.5s62.5 -27.5 100.5 -27.5z" />
    <glyph glyph-name="P" unicode="P" horiz-adv-x="632" 
d="M42 42l92.002 14v641l-80 8v53h128c8 0 18.5 0.333008 31.5 1s27.333 1.5 43 2.5s32.167 1.83301 49.5 2.5s34 1 50 1c37.333 0 71.666 -3.5 102.999 -10.5s58.166 -19.333 80.499 -37s39.833 -41 52.5 -70s19 -65.167 19 -108.5c0 -26.667 -3.66699 -51.334 -11 -74.001
s-17.5 -43.334 -30.5 -62.001s-28.5 -35.167 -46.5 -49.5s-37.333 -26.166 -58 -35.499s-42.667 -16.333 -66 -21s-47 -6.66699 -71 -6c-24.667 0.666992 -44.667 0.833984 -60 0.500977s-28.333 -1.5 -39 -3.5v-232l131 -14v-42h-318v42zM229.002 346
c18.667 -2.66699 36.002 -4.33008 52.002 -4.99707s31.333 -1 46 -1c15.333 0 30.666 1.16699 45.999 3.5s30 6.16602 44 11.499s27 12.666 39 21.999s22.333 21.333 31 36s15.334 32.167 20.001 52.5s7 44.166 7 71.499c0 60 -16.833 104.5 -50.5 133.5
s-81.834 42.5 -144.501 40.5c-16 -0.666992 -31.333 -1.5 -46 -2.5s-29.334 -3.5 -44.001 -7.5v-355z" />
    <glyph glyph-name="Q" unicode="Q" horiz-adv-x="758" 
d="M44 367c1.33301 62 11.3281 117.501 29.9951 166.501s43.834 90.333 75.501 124s68.334 59.667 110.001 78s86.167 28.166 133.5 29.499c50.667 1.33301 96.334 -7.33398 137.001 -26.001s75 -45 103 -79s49.333 -74.5 64 -121.5s21.667 -98.167 21 -153.5
c-0.666992 -54.667 -8.33398 -104.334 -23.001 -149.001s-34.167 -83.5 -58.5 -116.5s-53 -60.167 -86 -81.5s-68.833 -36 -107.5 -44c8 -19.333 19.5 -34.666 34.5 -45.999s31.5 -20 49.5 -26s36.5 -10 55.5 -12s36.833 -3 53.5 -3c12 0 24.167 1.33301 36.5 4
s22.833 6.66699 31.5 12l9 -60c-6.66699 -10 -19.5 -18.667 -38.5 -26s-42.5 -11 -70.5 -11c-23.333 0 -46.166 2.33301 -68.499 7s-43 13 -62 25s-35.833 28.333 -50.5 49s-26 47.334 -34 80.001c-1.33301 0 -3.16602 -0.166992 -5.49902 -0.5s-4.16602 -0.5 -5.49902 -0.5
c-51.333 -0.666992 -97.833 8.33301 -139.5 27s-77.167 45.167 -106.5 79.5s-51.5 74.833 -66.5 121.5s-22.167 97.667 -21.5 153zM385.995 38.001c36 0 68 7.83301 96 23.5s51.667 38.334 71 68.001s34 66 44 109s15 91.5 15 145.5c0 28 -2.16699 55.833 -6.5 83.5
s-10.833 53.667 -19.5 78s-19.334 46.833 -32.001 67.5s-27.5 38.334 -44.5 53.001s-36 26.167 -57 34.5s-43.833 12.5 -68.5 12.5c-36 0 -68.333 -7.66699 -97 -23s-53.167 -37.833 -73.5 -67.5s-36.166 -66 -47.499 -109s-17 -91.5 -17 -145.5
c0 -42.667 5.33301 -83.834 16 -123.501s26.167 -74.834 46.5 -105.501s45 -55.167 74 -73.5s62.5 -27.5 100.5 -27.5z" />
    <glyph glyph-name="R" unicode="R" horiz-adv-x="692" 
d="M42 42l92.001 14v641l-80 8v53h128c15.333 0 35.5 1.16699 60.5 3.5s53.833 3.5 86.5 3.5c37.333 0 71.666 -3 102.999 -9s58.333 -16.833 81 -32.5s40.334 -36.5 53.001 -62.5s19 -58.667 19 -98c0 -25.333 -3.83301 -49.166 -11.5 -71.499s-18.667 -42.833 -33 -61.5
s-31.666 -35 -51.999 -49s-42.5 -25 -66.5 -33c1.33301 -0.666992 2.83301 -1.33398 4.5 -2.00098s3.5 -1.33398 5.5 -2.00098c15.333 -8 30.166 -20.167 44.499 -36.5s28 -34.833 41 -55.5s25.5 -42 37.5 -64s23.5 -42.333 34.5 -61s21.333 -34.5 31 -47.5
s18.5 -20.833 26.5 -23.5l53 -14v-42h-141c-6 0 -12.833 4.83301 -20.5 14.5s-15.667 22.5 -24 38.5s-17.333 34.167 -27 54.5s-19.834 40.833 -30.501 61.5s-21.667 41 -33 61s-23.333 37.5 -36 52.5s-25.667 26.833 -39 35.5s-27 12.334 -41 11.001
c-11.333 -0.666992 -23.5 -1 -36.5 -1h-42.5v-272l102 -14v-42h-289v42zM229.001 383c4 -0.666992 9.83398 -1.16797 17.501 -1.50098s15.834 -0.5 24.501 -0.5s17 -0.166992 25 -0.5s14.667 -0.5 20 -0.5c26 0 49.5 3.33301 70.5 10s38.833 16.834 53.5 30.501
s26 31.334 34 53.001s12 47.834 12 78.501c0 25.333 -2.83301 48 -8.5 68s-15 37.167 -28 51.5s-30.333 25.166 -52 32.499s-48.834 10.333 -81.501 9c-16 -0.666992 -31.333 -1.33398 -46 -2.00098s-28.334 -2.66699 -41.001 -6v-322z" />
    <glyph glyph-name="S" unicode="S" horiz-adv-x="600" 
d="M75 187l42.999 0.00488281l31 -97c10 -10 21.333 -18.333 34 -25s26 -12 40 -16s28.667 -6.83301 44 -8.5s30 -2.5 44 -2.5c18 0 35.833 2.5 53.5 7.5s33.667 12.667 48 23s25.833 23.666 34.5 39.999s13 35.833 13 58.5c0 20.667 -5 39.667 -15 57
s-23.333 33.166 -40 47.499s-35.834 28.166 -57.501 41.499s-43.834 26.333 -66.501 39c-24.667 14 -49 28.333 -73 43s-45.5 30.834 -64.5 48.501s-34.333 37.5 -46 59.5s-17.5 46.667 -17.5 74c0 22.667 3.66699 43.167 11 61.5s16.833 34.333 28.5 48
s25.5 25.5 41.5 35.5s32.667 18.167 50 24.5s35 11 53 14s35 4.5 51 4.5c24 0 46 -1.16699 66 -3.5s37.833 -5.33301 53.5 -9s29.334 -7.66699 41.001 -12s21.167 -8.5 28.5 -12.5v-136h-42l-38 94c-6 5.33301 -13 10 -21 14s-17.167 7.16699 -27.5 9.5
s-21.333 4.16602 -33 5.49902s-23.167 2 -34.5 2c-13.333 0 -28.166 -2 -44.499 -6s-31.5 -10.833 -45.5 -20.5s-25.833 -22.5 -35.5 -38.5s-14.5 -35.667 -14.5 -59c0 -18.667 4.5 -35.834 13.5 -51.501s21.167 -30.167 36.5 -43.5s32.833 -26 52.5 -38
s40.167 -23.667 61.5 -35c26 -14 52 -28.5 78 -43.5s49.333 -31.667 70 -50s37.5 -38.666 50.5 -60.999s19.5 -47.833 19.5 -76.5c0 -36.667 -6.83301 -67.834 -20.5 -93.501s-32.167 -46.834 -55.5 -63.501s-50.166 -28.834 -80.499 -36.501s-62.166 -11.5 -95.499 -11.5
c-24.667 0 -48.834 1.33301 -72.501 4s-45.5 6 -65.5 10s-37.5 8.33301 -52.5 13s-25.833 9.33398 -32.5 14.001v157z" />
    <glyph glyph-name="T" unicode="T" horiz-adv-x="620" 
d="M151 42l120 14v648l-178 -10l-34 -83l-44 -1l12 148h581l-1 -150l-40 -4l-25 91l-176 9v-648l127 -14v-42h-342v42z" />
    <glyph glyph-name="U" unicode="U" horiz-adv-x="769" 
d="M93 323c0 63.333 0.166016 126.332 0.499023 188.999s0.5 126 0.5 190l-78 8v48h260v-48l-87 -9v-381c0 -55.333 5.5 -101.166 16.5 -137.499s26.333 -65.333 46 -87s43 -36.834 70 -45.501s56.5 -13 88.5 -13c34 0 63.333 6.83301 88 20.5s44.834 33.334 60.501 59.001
s27.167 57 34.5 94s11 78.5 11 124.5v366l-89 9v48h239v-48l-77 -9v-366c0 -61.333 -6.83301 -113.833 -20.5 -157.5s-33 -79.667 -58 -108s-55 -49.333 -90 -63s-73.167 -20.5 -114.5 -20.5c-55.333 0 -102.166 7.33301 -140.499 22s-69.333 36.167 -93 64.5
s-40.834 63.333 -51.501 105s-16 90.167 -16 145.5z" />
    <glyph glyph-name="V" unicode="V" horiz-adv-x="695" 
d="M67 703l-65 7v48h263v-48l-88 -8l165 -500l34 -107l29 108l146 499l-80 8v48h222v-48l-59 -7l-237 -713h-73z" />
    <glyph glyph-name="W" unicode="W" horiz-adv-x="1025" 
d="M66 702l-64 8v48h262v-48l-93 -8l153 -503c4.66699 -16 9.5 -31.833 14.5 -47.5s10.167 -31.5 15.5 -47.5l30 89l104 421l-28 88l-79 8v48h266v-48l-85 -8l133 -513l24 -93l25 112l128 494l-85 8v48h236v-48l-72 -8l-208 -712h-79l-140 496l-139 -496h-80z" />
    <glyph glyph-name="X" unicode="X" horiz-adv-x="693" 
d="M7 42l87 14l209 325l-205 321l-73 8v48h274v-48l-87 -8l153 -263l151 263l-75 8v48h233v-48l-70 -7l-204 -303l215 -344l81 -14v-42h-281v42l91 14l-171 277l-153 -277l93 -14v-42h-268v42z" />
    <glyph glyph-name="Y" unicode="Y" horiz-adv-x="660" 
d="M196 42l100 15v255l-234 390l-56 8v48h240v-48l-75 -8l155 -289l24 -50l22 51l140 287l-83 9v48h225v-48l-64 -13l-199 -386v-254l105 -15v-42h-300v42z" />
    <glyph glyph-name="Z" unicode="Z" horiz-adv-x="660" 
d="M45 43l424 603l50 59l-348 -11l-46 -111l-52 9l15 166h524l14 -42l-421 -603l-48 -59l366 19l63 124l49 -11l-35 -186h-542z" />
    <glyph glyph-name="bracketleft" unicode="[" horiz-adv-x="417" 
d="M98 726c0 24 1.16699 43.834 3.5 59.501s7 28.167 14 37.5s16.5 15.833 28.5 19.5s27.333 5.5 46 5.5c13.333 0 25.666 -0.666992 36.999 -2s22.166 -3 32.499 -5s20.333 -4.16699 30 -6.5s19.834 -4.83301 30.501 -7.5c0 -7.33301 -0.166992 -14.5 -0.5 -21.5
s-0.5 -13.833 -0.5 -20.5h-142v-814l142 -1c0 -7.33301 0.166992 -14.333 0.5 -21s0.5 -13.667 0.5 -21c-10.667 -2.66699 -20.834 -5.33398 -30.501 -8.00098s-19.667 -5 -30 -7s-21.166 -3.5 -32.499 -4.5s-23.666 -1.5 -36.999 -1.5c-18.667 0 -34 1.83301 -46 5.5
s-21.5 10.167 -28.5 19.5s-11.667 21.833 -14 37.5s-3.5 35.5 -3.5 59.5v697z" />
    <glyph glyph-name="backslash" unicode="\" horiz-adv-x="398" 
d="M294 -177l-279 958h89l280 -958h-90z" />
    <glyph glyph-name="bracketright" unicode="]" horiz-adv-x="417" 
d="M98 -30l141.999 1v814h-142v21v21c10.667 2.66699 20.834 5.16699 30.501 7.5s19.5 4.5 29.5 6.5s20.667 3.66699 32 5s23.666 2 36.999 2c18.667 0 34.167 -1.83301 46.5 -5.5s21.833 -10.167 28.5 -19.5s11.334 -21.833 14.001 -37.5s4 -35.5 4 -59.5v-697
c0 -24 -1.33301 -43.833 -4 -59.5s-7.33398 -28.167 -14.001 -37.5s-16.167 -15.833 -28.5 -19.5s-27.833 -5.5 -46.5 -5.5c-13.333 0 -25.666 0.5 -36.999 1.5s-22 2.5 -32 4.5s-20 4.33301 -30 7l-30 8v21v21z" />
    <glyph glyph-name="asciicircum" unicode="^" horiz-adv-x="644" 
d="M274 748h96l188 -473h-42.5h-43.5l-155 372l-154 -372h-38h-38z" />
    <glyph glyph-name="underscore" unicode="_" horiz-adv-x="690" 
d="M701 -94v-72h-711v72h711z" />
    <glyph glyph-name="grave" unicode="`" horiz-adv-x="431" 
d="M297 654c-13.333 6 -28.832 14 -46.499 24s-35.334 21.333 -53.001 34s-34.5 26.167 -50.5 40.5s-29 28.833 -39 43.5l72 73l143 -188z" />
    <glyph glyph-name="a" unicode="a" horiz-adv-x="559" 
d="M58 157c2 22.667 9.1748 42.6689 21.5078 60.002s27.666 32.166 45.999 44.499s38.666 22.5 60.999 30.5s44.666 14.5 66.999 19.5s44 8.5 65 10.5s39.167 3 54.5 3v42c0 26 -3.5 47 -10.5 63s-16.5 28.5 -28.5 37.5s-26.167 15.167 -42.5 18.5s-33.833 5 -52.5 5
c-9.33301 0 -20 -0.833008 -32 -2.5s-24.167 -4.16699 -36.5 -7.5s-24.833 -7.33301 -37.5 -12s-24.667 -9.66699 -36 -15l-18 44c12 10 26.667 18.667 44 26s35.166 13.333 53.499 18s36.166 8.16699 53.499 10.5s32.333 3.5 45 3.5c26 0 50.5 -2.66699 73.5 -8
s43.333 -14.666 61 -27.999s31.667 -31.5 42 -54.5s15.5 -52.5 15.5 -88.5l-1 -335h62v-33c-11.333 -6 -25.333 -11 -42 -15s-33.334 -6 -50.001 -6c-6 0 -12.5 0.5 -19.5 1.5s-13.333 3 -19 6s-10.334 8 -14.001 15s-5.5 16.5 -5.5 28.5v14
c-7.33301 -9.33301 -16.166 -17.833 -26.499 -25.5s-22.166 -14.5 -35.499 -20.5s-28.333 -10.667 -45 -14s-35.334 -5 -56.001 -5c-25.333 0 -48.333 4.66699 -69 14s-37.834 21.666 -51.501 36.999s-23.834 33.166 -30.501 53.499s-8.66699 41.833 -6 64.5z
M152.008 155.002c0 -19.333 2.66504 -35.667 7.99805 -49s13 -24 23 -32s22.167 -14 36.5 -18s30.5 -6 48.5 -6c10 0 19.833 1.33301 29.5 4s19.167 6 28.5 10s18 8.5 26 13.5s14.667 9.83301 20 14.5v91.5c0 30.333 0.333008 60.5 1 90.5c-14 0 -29.167 -0.666992 -45.5 -2
s-32.666 -3.83301 -48.999 -7.5s-32.166 -8.33398 -47.499 -14.001s-28.833 -13 -40.5 -22s-21 -19.667 -28 -32s-10.5 -26.166 -10.5 -41.499z" />
    <glyph glyph-name="b" unicode="b" horiz-adv-x="617" 
d="M99 716l-83.0029 16.999v43l157 17l20 -8v-285c8.66699 7.33301 18.334 14.833 29.001 22.5s22.334 14.5 35.001 20.5s26.834 10.833 42.501 14.5s33.167 5.5 52.5 5.5c27.333 0 54 -4.83301 80 -14.5s49 -25.167 69 -46.5s36.167 -48.833 48.5 -82.5
s18.5 -75.167 18.5 -124.5c0 -41.333 -6.66699 -80.666 -20 -117.999s-32 -70.166 -56 -98.499s-53 -50.833 -87 -67.5s-71.667 -25 -113 -25c-23.333 0 -45.833 1.33301 -67.5 4s-41.167 6 -58.5 10s-32 8.16699 -44 12.5s-19.667 8.16602 -23 11.499v692zM192.997 76.999
c5.33301 -14 17.999 -24 37.999 -30s44 -9 72 -9c21.333 0 42.166 4.66699 62.499 14s38.5 23.833 54.5 43.5s29 44.5 39 74.5s15.333 66 16 108c0.666992 39.333 -3.66602 72.666 -12.999 99.999s-21.666 49.666 -36.999 66.999s-32.833 30 -52.5 38
c-20.333 8 -40.5 12 -60.5 12c-14 0 -27.167 -1.5 -39.5 -4.5s-23.333 -6.66699 -33 -11s-18.5 -9.16602 -26.5 -14.499s-14.667 -10.666 -20 -15.999v-372z" />
    <glyph glyph-name="c" unicode="c" horiz-adv-x="510" 
d="M51 263c0 44.667 6.83105 85.0029 20.498 121.003s32.5 67 56.5 93s52.167 46.167 84.5 60.5s67.166 22.166 104.499 23.499c14 0 28 -0.333008 42 -1s27.167 -2 39.5 -4s23.833 -4.66699 34.5 -8s19 -7 25 -11v-118h-46l-25 62c-5.33301 4 -11.333 7.5 -18 10.5
s-13.667 5.5 -21 7.5s-14.5 3.33301 -21.5 4s-13.5 1 -19.5 1c-22 0 -42.833 -4 -62.5 -12s-37.167 -20.167 -52.5 -36.5s-27.5 -37 -36.5 -62s-13.833 -54.167 -14.5 -87.5c0 -44 5.33301 -81.833 16 -113.5s24.667 -57.667 42 -78s36.5 -35 57.5 -44
s41.833 -13.5 62.5 -13.5c12.667 0 25.834 0.833008 39.501 2.5s26.834 3.66699 39.501 6s24.334 5.5 35.001 9.5s19.334 7.66699 26.001 11l17 -43c-9.33301 -8.66699 -21 -16.167 -35 -22.5s-29.333 -11.833 -46 -16.5s-34.334 -8.16699 -53.001 -10.5s-37 -3.5 -55 -3.5
c-38 0 -71.5 6.83301 -100.5 20.5s-53.5 32.667 -73.5 57s-35.333 53.166 -46 86.499s-16 69.666 -16 108.999z" />
    <glyph glyph-name="d" unicode="d" horiz-adv-x="619" 
d="M262 -12c-27.333 0 -53.8291 5.49805 -79.4961 16.498s-48.334 27.833 -68.001 50.5s-35.5 51.334 -47.5 86.001s-18 75.667 -18 123c0 43.333 7.33301 83.333 22 120s34.667 68.334 60 95.001s55.166 47.334 89.499 62.001s71.166 22 110.499 22
c17.333 0 34.166 -1.16699 50.499 -3.5s30.166 -5.5 41.499 -9.5v163l-104 17v43l176 20l22 -11v-740h66v-37c-5.33301 -2.66699 -12.166 -5.33398 -20.499 -8.00098s-17.166 -5 -26.499 -7s-18.833 -3.5 -28.5 -4.5s-18.834 -1.5 -27.501 -1.5c-6 0 -12 0.333008 -18 1
s-11.667 2.66699 -17 6s-9.66602 8.5 -12.999 15.5s-5 16.5 -5 28.5v12c-4.66699 -5.33301 -11.834 -11.5 -21.501 -18.5s-21.5 -13.5 -35.5 -19.5s-30 -11 -48 -15s-38 -6 -60 -6zM300.004 54.998c10.667 0 20.3301 0.667969 28.9971 2.00098s17 3 25 5
c16 4 29.667 9.16699 41 15.5s20.666 13.166 27.999 20.499v374c-3.33301 4 -7.66602 8.33301 -12.999 13s-12.166 8.83398 -20.499 12.501s-18.166 6.83398 -29.499 9.50098s-25 4 -41 4c-12.667 0 -25.5 -1.66699 -38.5 -5s-26 -8.5 -39 -15.5s-25.333 -16.167 -37 -27.5
s-22.167 -25.333 -31.5 -42s-16.666 -35.834 -21.999 -57.501s-8.33301 -46.834 -9 -75.501c-0.666992 -40 3.33301 -74.667 12 -104s20.5 -53.5 35.5 -72.5s32.167 -33.167 51.5 -42.5s39 -14 59 -14z" />
    <glyph glyph-name="e" unicode="e" horiz-adv-x="559" 
d="M49 271c0 41.333 6.50195 79.667 19.502 115s31.333 66 55 92s52.167 46.333 85.5 61c33.333 14 70 21.667 110 23c28.667 0.666992 54.5 -3.33301 77.5 -12s42.667 -21.834 59 -39.501s29.166 -39.167 38.499 -64.5s14.666 -54.333 15.999 -87
c0.666992 -20.667 0.166992 -38.334 -1.5 -53.001s-3.16699 -28 -4.5 -40h-362v-5.5c0 -1.66699 0.333008 -3.5 1 -5.5c1.33301 -39.333 8 -71.833 20 -97.5s27 -46.167 45 -61.5s37.833 -26 59.5 -32s43.167 -9 64.5 -9c12.667 0 26 0.833008 40 2.5
s27.5 3.83398 40.5 6.50098s25.167 5.83398 36.5 9.50098s20.333 7.16699 27 10.5l18 -41c-9.33301 -8.66699 -21.5 -16.334 -36.5 -23.001s-31.5 -12.334 -49.5 -17.001s-36.833 -8.33398 -56.5 -11.001s-38.834 -4 -57.501 -4c-39.333 0 -74.166 6.83301 -104.499 20.5
s-55.833 32.834 -76.5 57.501s-36.5 54.334 -47.5 89.001s-16.5 73.334 -16.5 116.001zM410.002 324.001c0.666992 16.667 0.833984 33.333 0.500977 50s-2.33301 32.5 -6 47.5s-9.16699 28.833 -16.5 41.5s-17 23 -29 31c-8.66699 5.33301 -18.334 9.33301 -29.001 12
s-23 4 -37 4c-18 0 -35.5 -3.33301 -52.5 -10s-32.333 -17.5 -46 -32.5s-25 -34.333 -34 -58s-14.833 -52.167 -17.5 -85.5h267z" />
    <glyph glyph-name="f" unicode="f" horiz-adv-x="408" 
d="M54 42l98.0039 9.99512v428h-108v38l108 28v41c0 24 3 46.667 9 68s14.167 40.833 24.5 58.5s22.166 33.334 35.499 47.001s27.5 25.334 42.5 35.001s30.167 17 45.5 22s29.666 7.5 42.999 7.5c22 0 38.333 -1 49 -3s17.667 -4 21 -6v-83
c-4.66699 2.66699 -14.834 6 -30.501 10s-35.167 6 -58.5 6c-13.333 0 -25.333 -1.16699 -36 -3.5s-19.834 -7.66602 -27.501 -15.999s-13.5 -20.666 -17.5 -36.999s-6 -38.166 -6 -65.499v-81h147v-66h-147v-429l112 -9v-42h-304v42z" />
    <glyph glyph-name="g" unicode="g" horiz-adv-x="587" 
d="M62 -114c0 14.667 2.66992 28.9951 8.00293 42.9951s12.166 26.667 20.499 38s17.166 21.5 26.499 30.5s18.666 16.167 27.999 21.5c-14.667 5.33301 -25.834 11.333 -33.501 18s-13 13.834 -16 21.501s-4.66699 15.334 -5 23.001s-0.5 15.167 -0.5 22.5
c0 6 1.33301 13.667 4 23s6.5 19.333 11.5 30s11.333 21.5 19 32.5s16.167 20.833 25.5 29.5c-24.667 14.667 -44 34.334 -58 59.001s-21 54.667 -21 90c0 33.333 6.5 62.5 19.5 87.5s30 45.667 51 62s44.833 28.5 71.5 36.5s53.667 12.333 81 13
c28 0.666992 54 -2.16602 78 -8.49902s45.333 -16.5 64 -30.5c6.66699 7.33301 16.167 13.333 28.5 18s29.166 7 50.499 7h59v-74h-96c6.66699 -12.667 12 -26.667 16 -42s6 -32.333 6 -51c0 -32 -6 -60.5 -18 -85.5s-28 -46 -48 -63s-43.167 -29.833 -69.5 -38.5
s-53.833 -13 -82.5 -13c-38.667 0 -73 6 -103 18c-2 -5.33301 -3.33301 -11 -4 -17s-1.16699 -11.833 -1.5 -17.5s-0.333008 -11 0 -16s0.5 -9.16699 0.5 -12.5c0 -17.333 4.66699 -31 14 -41s25.333 -15.667 48 -17c14.667 -1.33301 32.334 -2.16602 53.001 -2.49902
s45 -0.5 73 -0.5c30 0 55.833 -2.33301 77.5 -7s39.667 -11 54 -19s25.5 -17.167 33.5 -27.5s14.167 -21.166 18.5 -32.499s7 -22.833 8 -34.5s1.5 -22.5 1.5 -32.5c0 -28 -5.83301 -53.5 -17.5 -76.5s-28.5 -42.5 -50.5 -58.5s-49 -28.5 -81 -37.5s-68 -13.5 -108 -13.5
c-29.333 0 -58.166 2.16699 -86.499 6.5s-53.5 12.166 -75.5 23.499s-39.833 26.333 -53.5 45s-20.5 42 -20.5 70zM296.003 237.995c20 0 37.1631 2.83105 51.4961 8.49805s25.833 14.167 34.5 25.5s14.834 25.333 18.501 42s5.5 36.334 5.5 59.001
c0 48.667 -10.333 84.667 -31 108s-52 35 -94 35c-16 0 -31.167 -2.16699 -45.5 -6.5s-26.666 -11.5 -36.999 -21.5s-18.5 -23.167 -24.5 -39.5s-9 -36.833 -9 -61.5c0 -20 2.33301 -39.167 7 -57.5s12.334 -34.166 23.001 -47.499s24.334 -24 41.001 -32s36.667 -12 60 -12
zM152.999 -83.0068c0 -22 4.16504 -40.667 12.498 -56s19.666 -27.833 33.999 -37.5s31 -16.667 50 -21s39.167 -6.5 60.5 -6.5c26.667 0 50.334 2.16699 71.001 6.5s38.334 10.833 53.001 19.5s25.834 19.834 33.501 33.501s11.5 29.5 11.5 47.5
c0 15.333 -1.66699 29.166 -5 41.499s-10.166 22.833 -20.499 31.5s-25 15.167 -44 19.5s-43.5 6.5 -73.5 6.5l-62 1c-19.333 0 -36.5 0.5 -51.5 1.5s-28.5 2.5 -40.5 4.5c-4 -4.66699 -7.66699 -9.83398 -11 -15.501s-6.33301 -12.167 -9 -19.5
s-4.83398 -15.666 -6.50098 -24.999s-2.5 -20 -2.5 -32z" />
    <glyph glyph-name="h" unicode="h" horiz-adv-x="685" 
d="M61 42l72.998 10v661l-84 17v43l155 20l23 -11l-1 -216l-2 -84c14 12 29.5 22.5 46.5 31.5s34 16.667 51 23s33.5 11.166 49.5 14.499s30.667 5 44 5c33.333 0 60.5 -5 81.5 -15s37.5 -25.5 49.5 -46.5s20.333 -48 25 -81s7 -72.167 7 -117.5v-244l73 -10v-42h-249v42
l82 10v203c0 38 -1 71.167 -3 99.5s-6.66699 52.333 -14 72s-18.666 34.334 -33.999 44.001s-36.666 14.5 -63.999 14.5c-10.667 0 -22 -0.666992 -34 -2s-24.167 -3.5 -36.5 -6.5s-24.5 -7.16699 -36.5 -12.5s-23.667 -12 -35 -20v-392l71 -10v-42h-238v42z" />
    <glyph glyph-name="i" unicode="i" horiz-adv-x="333" 
d="M163 671c-8 0 -15.832 1.50195 -23.499 4.50195s-14.334 7 -20.001 12s-10.167 11.167 -13.5 18.5s-5 15.666 -5 24.999c0 10 2.16699 19.5 6.5 28.5s10 16.667 17 23s14.833 11.333 23.5 15s17.334 5.5 26.001 5.5c21.333 0 37 -6 47 -18s15 -26.333 15 -43
c0 -10.667 -2.16699 -20.334 -6.5 -29.001s-9.83301 -16 -16.5 -22s-14.334 -10.833 -23.001 -14.5s-17.667 -5.5 -27 -5.5zM55.001 42.002l83 10v400l-68 35v31l136 38l22 -10v-494l79 -10v-42h-252v42z" />
    <glyph glyph-name="j" unicode="j" horiz-adv-x="317" 
d="M159 686c-8 0 -15.6689 1.33398 -23.002 4.00098s-13.833 6.5 -19.5 11.5s-10.167 11.167 -13.5 18.5s-5 16 -5 26s2.16699 19.333 6.5 28s9.83301 16.167 16.5 22.5s14.334 11.333 23.001 15s17.334 5.5 26.001 5.5c21.333 0 37 -6 47 -18s15 -26.333 15 -43
c0 -10.667 -2 -20.334 -6 -29.001s-9.5 -16 -16.5 -22s-14.833 -10.667 -23.5 -14s-17.667 -5 -27 -5zM133.998 452.001l-68.0039 36.0029v29l138 39l22 -10v-554c0 -38 -4.16699 -72 -12.5 -102s-20.166 -55.5 -35.499 -76.5s-34 -37 -56 -48s-46.333 -16.5 -73 -16.5
c-3.33301 0 -7.83301 0.166992 -13.5 0.5s-11.167 0.666016 -16.5 0.999023s-10.166 1 -14.499 2s-7.16602 2.16699 -8.49902 3.5v67c2.66699 -0.666992 6.33398 -1.33398 11.001 -2.00098s9.66699 -1.33398 15 -2.00098s10.5 -1 15.5 -1h11.5c15.333 0 28.5 3 39.5 9
s19.833 16 26.5 30s11.5 32.667 14.5 56s4.5 52 4.5 86v453z" />
    <glyph glyph-name="k" unicode="k" horiz-adv-x="622" 
d="M54 42l80 10v661l-88 17v43l162 20l20 -11v-438l-3 -75l217 224l-73 7v51h230v-51l-74 -8l-166 -167l206 -273l67 -10v-42h-237v42l68 11l-161 225l-77 -77l3 -95v-55l70 -9v-42h-244v42z" />
    <glyph glyph-name="l" unicode="l" horiz-adv-x="340" 
d="M53 42l83 10v661l-78 17v43l152 20l20 -11v-730l87 -10v-42h-264v42z" />
    <glyph glyph-name="m" unicode="m" horiz-adv-x="1010" 
d="M67 42l67 10.0029v397l-70 38v31l130 38l22 -10v-69c10.667 9.33301 23.667 18.666 39 27.999s31.833 17.666 49.5 24.999s35.5 13.333 53.5 18s35.333 7.33398 52 8.00098c35.333 1.33301 63.833 -3.33398 85.5 -14.001s38.5 -29 50.5 -55c12 8.66699 25.833 17 41.5 25
s32.334 15.167 50.001 21.5s35.5 11.5 53.5 15.5s34.667 6.33301 50 7c30 0.666992 55.5 -3.16602 76.5 -11.499s37.833 -21.833 50.5 -40.5s21.834 -43 27.501 -73s8.5 -66 8.5 -108v-271l82 -10v-42h-242v42l66 10v254c0 31.333 -1.5 58.333 -4.5 81
s-8.83301 41.5 -17.5 56.5s-20.667 25.833 -36 32.5s-35.333 9.66699 -60 9c-22 -0.666992 -43.833 -4.83398 -65.5 -12.501s-43.167 -17.5 -64.5 -29.5c3.33301 -15.333 6 -33 8 -53s3 -40.667 3 -62v-277l75 -9v-42h-242v42l73 10v261c0 30.667 -1.5 57.167 -4.5 79.5
s-8.83301 40.5 -17.5 54.5s-20.834 24 -36.501 30s-35.834 8.66699 -60.501 8c-17.333 -0.666992 -37.333 -5.16699 -60 -13.5s-46.334 -20.833 -71.001 -37.5v-89c0 -49.333 -0.166992 -98.333 -0.5 -147s-0.166016 -97.334 0.500977 -146.001l72 -10v-42h-234v42z" />
    <glyph glyph-name="n" unicode="n" horiz-adv-x="681" 
d="M67 42l66.9971 8.99805v398l-70 38v31l130 38l22 -10v-69c11.333 9.33301 24.833 18.666 40.5 27.999s32.334 17.666 50.001 24.999s35.667 13.333 54 18s35.833 7.33398 52.5 8.00098c30 0.666992 55.333 -3 76 -11s37.334 -21.333 50.001 -40
s21.834 -42.667 27.501 -72s8.5 -64.666 8.5 -105.999v-276l78 -9v-42h-246v42l74 10v258c0 29.333 -1.5 55.333 -4.5 78s-8.83301 41.334 -17.5 56.001s-20.667 25.334 -36 32.001s-35.333 9.66699 -60 9c-20 -0.666992 -41.167 -5.16699 -63.5 -13.5
s-45.833 -20.833 -70.5 -37.5v-382l72 -10v-42h-234v42z" />
    <glyph glyph-name="o" unicode="o" horiz-adv-x="601" 
d="M50 284c0.666992 43.333 8.33301 82.3291 23 116.996s33.834 63.834 57.501 87.501s51 41.834 82 54.501s63.5 19 97.5 19c41.333 0 77.333 -7.16699 108 -21.5s56 -34.333 76 -60s34.833 -55.667 44.5 -90s14.5 -71.166 14.5 -110.499
c0 -43.333 -6.83301 -83 -20.5 -119s-32 -66.667 -55 -92s-49.833 -45.166 -80.5 -59.499s-63.667 -21.5 -99 -21.5c-44.667 0 -82.834 8.16699 -114.501 24.5s-57.5 38.166 -77.5 65.499s-34.5 58.833 -43.5 94.5s-13.167 72.834 -12.5 111.501zM301.999 42.9961
c28 -0.666992 51.502 4.00391 70.502 14.0039s34.5 24.833 46.5 44.5s20.667 44.167 26 73.5s8 62.666 8 99.999c0 32.667 -2.83301 63.334 -8.5 92.001s-14.667 53.667 -27 75s-27.833 38 -46.5 50s-41 18.333 -67 19c-28 0 -51.5 -4.83301 -70.5 -14.5
s-34.833 -24.167 -47.5 -43.5s-21.834 -42.833 -27.501 -70.5s-8.5 -58.834 -8.5 -93.501c0 -31.333 3.16699 -61.833 9.5 -91.5s15.666 -55.834 27.999 -78.501s28 -40.834 47 -54.501s41.5 -20.834 67.5 -21.501z" />
    <glyph glyph-name="p" unicode="p" horiz-adv-x="646" 
d="M129 -197v646.001l-69 38v31l129 38l22 -10v-57c6.66699 8 15.667 16.333 27 25s24.333 16.5 39 23.5s31 12.833 49 17.5s37 7 57 7c27.333 0 53.833 -4.66699 79.5 -14s48.667 -24.833 69 -46.5s36.5 -49.834 48.5 -84.501s18 -76.667 18 -126
c0 -41.333 -6.83301 -80.5 -20.5 -117.5s-32.834 -69.167 -57.501 -96.5s-54 -48.833 -88 -64.5s-71.667 -23.5 -113 -23.5c-18 0 -35.167 1.5 -51.5 4.5s-32.166 6.5 -47.499 10.5l3 -131v-71l95 -10v-42h-257v42zM223 83.001c7.33301 -13.333 20.001 -23.833 38.001 -31.5
s41.333 -11.5 70 -11.5c21.333 0 42.166 4.33301 62.499 13s38.666 22.5 54.999 41.5s29.5 43.5 39.5 73.5s15.333 66.667 16 110c0.666992 41.333 -3.33301 76 -12 104s-20.667 50.833 -36 68.5s-32.666 30.334 -51.999 38.001s-39.333 11.5 -60 11.5
c-15.333 0 -29.333 -1.83301 -42 -5.5s-24 -8.16699 -34 -13.5s-18.833 -10.833 -26.5 -16.5s-14.167 -10.834 -19.5 -15.501l1 -190v-176z" />
    <glyph glyph-name="q" unicode="q" horiz-adv-x="606" 
d="M262 -14c-12 0 -25.4971 1.33203 -40.4971 3.99902s-30.333 7.66699 -46 15s-31.167 17.5 -46.5 30.5s-28.833 29.833 -40.5 50.5s-21.167 45.834 -28.5 75.501s-11 64.834 -11 105.501c0 41.333 7 80 21 116s33.833 67.333 59.5 94s56.167 47.667 91.5 63
s74.333 23 117 23c19.333 0 38.333 -1.83301 57 -5.5s33.667 -7.83398 45 -12.501l59 12l19 -10v-740l66 -10v-47h-260v47l100 10v170l3 75c-5.33301 -5.33301 -12.833 -11.833 -22.5 -19.5s-21.334 -15 -35.001 -22s-29.334 -12.833 -47.001 -17.5s-37.834 -7 -60.501 -7z
M296.003 53.999c15.333 0 29.666 1.33105 42.999 3.99805s25.5 6.16699 36.5 10.5s20.5 9.33301 28.5 15s14.667 11.167 20 16.5v372c-11.333 14.667 -25.833 24.834 -43.5 30.501s-37.167 8.5 -58.5 8.5c-25.333 0 -48.666 -4.83301 -69.999 -14.5s-40.166 -24 -56.499 -43
s-29.166 -42.667 -38.499 -71s-14.333 -61.5 -15 -99.5s2.66602 -71.167 9.99902 -99.5s17.666 -52.166 30.999 -71.499s29.5 -33.833 48.5 -43.5s40.5 -14.5 64.5 -14.5z" />
    <glyph glyph-name="r" unicode="r" horiz-adv-x="450" 
d="M55 42l79 10v397l-70 38v31l129 38l23 -10v-75c6 9.33301 15.333 19 28 29s26.834 19.167 42.501 27.5s32 15.166 49 20.499s32.833 8 47.5 8c10.667 0 20.334 -0.166992 29.001 -0.5s15 -1.16602 19 -2.49902v-100c-5.33301 2 -10.833 4 -16.5 6
s-11.834 3.66699 -18.501 5s-14.167 2.5 -22.5 3.5s-18.166 1.5 -29.499 1.5c-26.667 0 -48.834 -3.33301 -66.501 -10s-33.834 -14.667 -48.501 -24v-382l139 -11v-42h-313v42z" />
    <glyph glyph-name="s" unicode="s" horiz-adv-x="511" 
d="M82 142l43.0068 -0.00292969l20 -60c8 -6.66699 16 -12.5 24 -17.5s16.167 -9.16699 24.5 -12.5s17.166 -5.83301 26.499 -7.5s19.666 -2.83398 30.999 -3.50098c18 -0.666992 34.667 0.666016 50 3.99902s28.5 8.83301 39.5 16.5s19.667 17.334 26 29.001
s9.5 25.834 9.5 42.501c0 14.667 -4 27.167 -12 37.5s-18.5 19.666 -31.5 27.999s-27.833 16 -44.5 23s-33.667 14.833 -51 23.5c-19.333 9.33301 -38.166 19.333 -56.499 30s-34.5 22.834 -48.5 36.501s-25.333 28.834 -34 45.501s-12.667 36 -12 58
c0 16.667 3 31.834 9 45.501s13.667 26 23 37s20.333 20.5 33 28.5s26.167 14.667 40.5 20s29.166 9.33301 44.499 12s30.333 4 45 4c16 0 31.667 -0.666992 47 -2s29.5 -3.66602 42.5 -6.99902s24.833 -7.16602 35.5 -11.499s19.667 -8.5 27 -12.5v-105h-41l-21 55
c-4.66699 4.66699 -9.66699 9.16699 -15 13.5s-11.333 8 -18 11s-14.334 5.5 -23.001 7.5s-18.334 3 -29.001 3c-15.333 0 -29.666 -1.66699 -42.999 -5s-24.833 -8.16602 -34.5 -14.499s-17.334 -14.666 -23.001 -24.999s-8.83398 -22.833 -9.50098 -37.5s3 -27.5 11 -38.5
s18.333 -20.833 31 -29.5s27.167 -16.834 43.5 -24.501s33.166 -15.834 50.499 -24.501c18 -8.66699 36.167 -17.5 54.5 -26.5s34.833 -19.5 49.5 -31.5s26.667 -26.333 36 -43s14 -36.334 14 -59.001c0 -28 -5.5 -52.333 -16.5 -73s-26.167 -38 -45.5 -52
s-42 -24.5 -68 -31.5s-54 -10.5 -84 -10.5c-29.333 0 -58.833 3.5 -88.5 10.5s-56.834 17.5 -81.501 31.5v112z" />
    <glyph glyph-name="t" unicode="t" horiz-adv-x="420" 
d="M129 128l0.00390625 178.499v178.5h-74v36c14 3.33301 25.833 6.16602 35.5 8.49902s17.667 5 24 8s11.666 6.5 15.999 10.5s8.16602 10 11.499 18c2 5.33301 4.83301 13.5 8.5 24.5s7 22.167 10 33.5s5.66699 21.833 8 31.5s3.83301 16.834 4.5 21.501h48v-131h164v-61
h-164v-246c0 -38 0.5 -68.833 1.5 -92.5s3.5 -42.167 7.5 -55.5s9.66699 -22.333 17 -27s17.666 -7 30.999 -7c8 0 17 0.833008 27 2.5s19.667 3.66699 29 6s18 4.83301 26 7.5s13.667 5.33398 17 8.00098l16 -43c-7.33301 -8 -17.333 -15.167 -30 -21.5
s-26.167 -11.5 -40.5 -15.5s-28.833 -7.16699 -43.5 -9.5s-27.334 -3.5 -38.001 -3.5c-35.333 0 -62.833 11 -82.5 33s-29.5 57.667 -29.5 107z" />
    <glyph glyph-name="u" unicode="u" horiz-adv-x="630" 
d="M104 477l-50.0029 14.998v37l126 27l17 -9v-336c0 -27.333 1.5 -50.666 4.5 -69.999s8.33301 -35.166 16 -47.499s18.334 -21.5 32.001 -27.5s31.167 -9 52.5 -9c14.667 0 29.167 2 43.5 6s27.5 8.83301 39.5 14.5s22.667 11.667 32 18s16 11.833 20 16.5v361l-61 15v40
l140 28l13 -8v-506h59v-38c-4.66699 -2.66699 -10.667 -5.16699 -18 -7.5s-15.166 -4.5 -23.499 -6.5s-16.833 -3.66699 -25.5 -5s-16.667 -2 -24 -2c-15.333 0 -27.666 3.33301 -36.999 10s-14 17.334 -14 32.001v40c-28 -24.667 -57.5 -43.334 -88.5 -56.001
s-61.5 -19 -91.5 -19c-38.667 0 -68.667 5.83301 -90 17.5s-37.333 28 -48 49s-17.167 45.833 -19.5 74.5s-3.83301 60 -4.5 94v252z" />
    <glyph glyph-name="v" unicode="v" horiz-adv-x="580" 
d="M48 486l-47 9v51h215v-51l-60 -10l107 -261l46 -140l45 134l93 267l-63 10v51h195v-51l-52 -11l-198 -496h-66z" />
    <glyph glyph-name="w" unicode="w" horiz-adv-x="826" 
d="M51 486l-50 9v51h213v-51l-68 -11l92 -297l27 -106l22 105l92 360h84l95 -359l27 -106l27 102l76 302l-60 10v51h197v-51l-61 -11l-145 -496h-86l-106 372l-12 73l-19 -73l-98 -372h-81z" />
    <glyph glyph-name="x" unicode="x" horiz-adv-x="570" 
d="M3 42l72.999 10l163 213l-170 221l-67 9v51h245v-51l-68 -9l95 -140l23 -36l20 34l97 143l-70 8v51h220v-51l-75 -10l-159 -208l174 -226l64 -9v-42h-241v42l67 10c-12.667 18.667 -23.5 34.5 -32.5 47.5s-16.667 24 -23 33s-11.5 16.167 -15.5 21.5
s-7.16699 9.5 -9.5 12.5s-4.16602 5.33301 -5.49902 7s-2.33301 3.16699 -3 4.5l-34 48l-21 -37l-96 -137l89 -10v-42h-240v42z" />
    <glyph glyph-name="y" unicode="y" horiz-adv-x="561" 
d="M73 -166c5.33301 -1.33301 11.833 -2.50195 19.5 -3.50195s14.167 -1.5 19.5 -1.5c12 0 24.833 2.16699 38.5 6.5s27.5 12.5 41.5 24.5s27.5 29.333 40.5 52s25.167 52 36.5 88h-21l-196 486l-51 9v51h226v-51l-70 -10l114 -328l33 -99l29 99l99 329l-77 9v51h211v-51
l-54 -8c-22 -63.333 -41.167 -118.833 -57.5 -166.5s-30.666 -89.167 -42.999 -124.5s-22.833 -65.166 -31.5 -89.499s-15.834 -44.666 -21.501 -60.999s-10.334 -29.5 -14.001 -39.5s-6.83398 -18.333 -9.50098 -25c-12.667 -32.667 -25.5 -62 -38.5 -88
s-26.667 -48.5 -41 -67.5s-29.666 -34.5 -45.999 -46.5s-34.5 -20.667 -54.5 -26c-13.333 -3.33301 -27.666 -4.66602 -42.999 -3.99902c-3.33301 0 -7 0.166992 -11 0.5s-7.83301 0.666016 -11.5 0.999023s-7 1 -10 2s-5.16699 2.16699 -6.5 3.5v78z" />
    <glyph glyph-name="z" unicode="z" horiz-adv-x="526" 
d="M43 40l34 46l263 367l40 47l-239 -7l-30 -90h-45v143h414l13 -40l-286 -395l-49 -63l259 11l31 82h25h25l-8 -141h-431z" />
    <glyph glyph-name="braceleft" unicode="{" horiz-adv-x="505" 
d="M161 283c0 6.66699 -3.66504 13.1689 -10.998 19.502s-16.833 12.5 -28.5 18.5s-24.834 11.333 -39.501 16s-29 8.66699 -43 12v61c14 3.33301 28.167 7.16602 42.5 11.499s27.333 9.16602 39 14.499s21.334 11 29.001 17s11.5 12.333 11.5 19v254
c0 24 1.33301 43.833 4 59.5s7.33398 28.167 14.001 37.5s16.167 15.833 28.5 19.5s27.833 5.5 46.5 5.5c13.333 0 25.666 -0.666992 36.999 -2s22 -3 32 -5s20 -4.16699 30 -6.5s20 -4.83301 30 -7.5v-21.5v-20.5h-142v-311c0 -14 -3.33301 -25.5 -10 -34.5
s-15.667 -17.167 -27 -24.5c-10 -6.66699 -21.167 -12.834 -33.5 -18.501s-24.833 -11.5 -37.5 -17.5c15.333 -6.66699 30.166 -13.667 44.499 -21s26.5 -15.666 36.5 -24.999c8 -7.33301 14.5 -15.166 19.5 -23.499s7.5 -17.833 7.5 -28.5v-310h142v-21.5v-21.5
c-10.667 -2.66699 -20.834 -5.33398 -30.501 -8.00098s-19.5 -5 -29.5 -7s-20.667 -3.5 -32 -4.5s-23.666 -1.5 -36.999 -1.5c-18.667 0 -34.167 1.83301 -46.5 5.5s-21.833 10.167 -28.5 19.5s-11.334 21.833 -14.001 37.5s-4 35.5 -4 59.5v254z" />
    <glyph glyph-name="bar" unicode="|" horiz-adv-x="426" 
d="M175 869h84v-960h-84v960z" />
    <glyph glyph-name="braceright" unicode="}" horiz-adv-x="467" 
d="M85 -29l142 -0.00292969v310c0 10.667 2.33301 20.334 7 29.001s11 16.334 19 23.001c10.667 9.33301 23 17.666 37 24.999s28.667 14.333 44 21c-13.333 6 -26 11.833 -38 17.5s-22.667 11.834 -32 18.501c-11.333 7.33301 -20.333 15.666 -27 24.999
s-10 20.666 -10 33.999v311h-142c0 7.33301 -0.166992 14.333 -0.5 21s-0.5 13.667 -0.5 21c10.667 2.66699 20.834 5.16699 30.501 7.5s19.667 4.5 30 6.5s21.166 3.66699 32.499 5s23.666 2 36.999 2c18.667 0 34 -1.83301 46 -5.5s21.5 -10.167 28.5 -19.5
s11.833 -21.833 14.5 -37.5s4 -35.5 4 -59.5v-254c0 -6.66699 3.83301 -13 11.5 -19s17.334 -11.667 29.001 -17s24.667 -10.166 39 -14.499s28.5 -8.16602 42.5 -11.499v-61c-14 -3.33301 -28.333 -7.33301 -43 -12s-27.834 -10 -39.501 -16s-21.167 -12.333 -28.5 -19
s-11 -13 -11 -19v-254c0 -24 -1.33301 -43.833 -4 -59.5s-7.5 -28.167 -14.5 -37.5s-16.5 -15.833 -28.5 -19.5s-27.333 -5.5 -46 -5.5c-13.333 0 -25.666 0.5 -36.999 1.5s-22.166 2.5 -32.499 4.5s-20.333 4.33301 -30 7s-19.834 5.33398 -30.501 8.00098
c0 7.33301 0.166992 14.5 0.5 21.5s0.5 14.167 0.5 21.5z" />
    <glyph glyph-name="asciitilde" unicode="~" horiz-adv-x="613" 
d="M73 424c7.33301 12.667 16.8369 24.501 28.5039 35.501s24.834 20.667 39.501 29s30.334 15.166 47.001 20.499s34 8 52 8c12.667 0 24.167 -2.16699 34.5 -6.5s19.833 -9.5 28.5 -15.5s17 -12.5 25 -19.5s15.833 -13.5 23.5 -19.5s15.667 -11 24 -15
s17.166 -6 26.499 -6c11.333 0 22 1.66699 32 5s19.333 7.33301 28 12s16.667 10 24 16s13.666 11.667 18.999 17l36 -43c-7.33301 -12.667 -16.833 -24.5 -28.5 -35.5s-24.834 -20.833 -39.501 -29.5s-30.5 -15.5 -47.5 -20.5s-34.167 -7.5 -51.5 -7.5
c-12.667 0 -24.334 2 -35.001 6s-20.334 9 -29.001 15s-17 12.5 -25 19.5s-15.833 13.5 -23.5 19.5s-15.5 11.167 -23.5 15.5s-17 6.5 -27 6.5c-11.333 0 -21.833 -1.66699 -31.5 -5s-18.834 -7.5 -27.501 -12.5s-16.667 -10.5 -24 -16.5s-14 -11.667 -20 -17z" />
    <glyph glyph-name="uni007F" 
 />
    <glyph glyph-name="nonbreakingspace" unicode="&#xa0;" horiz-adv-x="255" 
 />
    <glyph glyph-name="exclamdown" unicode="&#xa1;" horiz-adv-x="348" 
d="M170 571c-8 0 -15.668 1.33398 -23.001 4.00098s-13.833 6.5 -19.5 11.5s-10.334 11.333 -14.001 19s-5.5 16.167 -5.5 25.5c0 10 2.33301 19.333 7 28s10.334 16.167 17.001 22.5s14.334 11.333 23.001 15s17.334 5.5 26.001 5.5c21.333 0 37 -5.83301 47 -17.5
s15 -25.834 15 -42.501c0 -10.667 -2.16699 -20.5 -6.5 -29.5s-9.83301 -16.5 -16.5 -22.5s-14.334 -10.667 -23.001 -14s-17.667 -5 -27 -5zM140.999 450.001h57l32 -649h-125z" />
    <glyph glyph-name="cent" unicode="&#xa2;" horiz-adv-x="545" 
d="M251 -6c-30.667 5.33301 -57.6758 15.6689 -81.0088 31.002s-43.166 34.833 -59.499 58.5s-28.5 50.667 -36.5 81s-12.333 63.166 -13 98.499c0 41.333 5.83301 79 17.5 113s27.834 63.5 48.501 88.5s45.334 45.5 74.001 61.5s59.334 26.667 92.001 32l7 107h60l-6 -104
c12 0 23.667 -0.666992 35 -2s22 -3.16602 32 -5.49902s19 -4.83301 27 -7.5s14.667 -5.66699 20 -9v-118h-46l-25 62c-5.33301 4 -11.333 7.5 -18 10.5s-13.667 5.5 -21 7.5s-14.5 3.33301 -21.5 4s-13.5 1 -19.5 1c-22 0 -42.833 -4 -62.5 -12
s-37.167 -20.167 -52.5 -36.5s-27.666 -37 -36.999 -62s-14 -54.167 -14 -87.5c0 -44 5.33301 -81.833 16 -113.5s24.5 -57.667 41.5 -78s36.167 -35 57.5 -44s42.333 -13.5 63 -13.5c12.667 0 25.834 0.833008 39.501 2.5s26.834 3.66699 39.501 6s24.334 5.5 35.001 9.5
s19.334 7.66699 26.001 11l17 -43c-8.66699 -8 -19.5 -15 -32.5 -21s-27 -11.333 -42 -16s-31 -8.33398 -48 -11.001s-34.167 -4.33398 -51.5 -5.00098l-5 -95h-61z" />
    <glyph glyph-name="sterling" unicode="&#xa3;" horiz-adv-x="703" 
d="M43 30c0 8.66699 3.33008 17.6699 9.99707 27.0029s16.334 17.833 29.001 25.5s27.834 13.834 45.501 18.501s37.834 6.33398 60.501 5.00098c3.33301 7.33301 6 16.166 8 26.499s3.66699 21.333 5 33s2.16602 23.334 2.49902 35.001s0.5 22.167 0.5 31.5v123h-88v72h88
v55c0 36.667 5.83301 72 17.5 106s28.167 64.167 49.5 90.5s46.833 47.333 76.5 63s62.834 23.5 99.501 23.5c14 0 26.833 -0.5 38.5 -1.5s23 -3 34 -6s21.333 -7 31 -12s19.5 -11.5 29.5 -19.5l-47 -90c-1.33301 2 -5.5 6.83301 -12.5 14.5s-16.167 15.5 -27.5 23.5
s-24.833 15.167 -40.5 21.5s-33.167 9.5 -52.5 9.5c-14 0 -27.167 -3.33301 -39.5 -10s-23.166 -18.334 -32.499 -35.001s-16.833 -39.334 -22.5 -68.001s-8.5 -65 -8.5 -109v-56h160v-72h-159v-15c0 -22.667 -0.5 -43 -1.5 -61s-2.33301 -34.333 -4 -49s-4 -28 -7 -40
s-6.5 -23.333 -10.5 -34s-8.66699 -21.334 -14 -32.001s-11.333 -21.667 -18 -33c11.333 -0.666992 23.166 -3.33398 35.499 -8.00098s25.5 -9.83398 39.5 -15.501s28.5 -11.334 43.5 -17.001s30.167 -9.83398 45.5 -12.501c30.667 -5.33301 56.334 -6 77.001 -2
s37.334 11.167 50.001 21.5s21.5 22.666 26.5 36.999s7.5 29.166 7.5 44.499c0 6 -0.666992 12.333 -2 19s-3.33301 13.334 -6 20.001s-6.33398 12.834 -11.001 18.501s-10 10.834 -16 15.501l45 86c22.667 -9.33301 40.667 -24.166 54 -44.499
s21.666 -44.166 24.999 -71.499c1.33301 -10 2 -21.667 2 -35s-1.66699 -27 -5 -41s-8.83301 -27.833 -16.5 -41.5s-18 -26.167 -31 -37.5s-29.167 -21 -48.5 -29s-43 -13 -71 -15c-28 -2.66699 -53.5 -2.66699 -76.5 0s-44.167 6.66699 -63.5 12s-36.833 11.333 -52.5 18
s-29.667 13 -42 19s-23.333 10.667 -33 14s-18.167 4.33301 -25.5 3c-6 -8.66699 -12.667 -16.834 -20 -24.501s-15.333 -14.5 -24 -20.5s-18 -10.667 -28 -14s-20.333 -5 -31 -5c-4.66699 0 -9.66699 0.5 -15 1.5s-10.5 3.16699 -15.5 6.5s-9.16699 7.83301 -12.5 13.5
s-5 13.5 -5 23.5z" />
    <glyph glyph-name="currency" unicode="&#xa4;" horiz-adv-x="701" 
d="M198 225c-12 15.333 -21.168 32.498 -27.501 51.498s-9.5 39.167 -9.5 60.5c0 20.667 3.16699 40.167 9.5 58.5s15.166 35.5 26.499 51.5l-87 88l41 42l89 -89c15.333 10.667 31.833 18.834 49.5 24.501s36.834 8.5 57.501 8.5c21.333 0 41.833 -3.5 61.5 -10.5
s37.167 -16.5 52.5 -28.5l89 88l41 -42l-90 -90c10 -14.667 17.667 -30.5 23 -47.5s8 -34.833 8 -53.5c0 -20.667 -3 -40.167 -9 -58.5s-14.667 -34.833 -26 -49.5l88 -88l-42 -42l-88 88c-15.333 -11.333 -32.166 -20 -50.499 -26s-37.5 -9 -57.5 -9
c-19.333 0 -38 2.83301 -56 8.5s-34.667 13.834 -50 24.501l-88 -88l-42 41zM230.999 336.998c0 -16.667 3 -32.167 9 -46.5s14.333 -27.166 25 -38.499s23 -20.166 37 -26.499s29 -9.5 45 -9.5s31 3.16699 45 9.5s26.167 15.166 36.5 26.499s18.5 24.166 24.5 38.499
s9 29.833 9 46.5s-3 32.167 -9 46.5s-14.167 27 -24.5 38s-22.5 19.833 -36.5 26.5s-29 10 -45 10s-31 -3.33301 -45 -10s-26.333 -15.5 -37 -26.5s-19 -23.667 -25 -38s-9 -29.833 -9 -46.5z" />
    <glyph glyph-name="yen" unicode="&#xa5;" horiz-adv-x="687" 
d="M202 42l94 14v128h-207v62h207v112h-207v62h176l-186 282l-63 8v48h245v-48l-73 -8l139 -226l24 -56h13l30 60c20.667 35.333 41.5 72 62.5 110s42.5 75.333 64.5 112l-73 8v48h223v-48l-69 -14l-176 -276h165v-62h-199v-112h199v-62h-199v-127l99 -15v-42h-289v42z" />
    <glyph glyph-name="brokenbar" unicode="&#xa6;" horiz-adv-x="426" 
d="M175 869h84v-436h-84v436zM175 346h84v-437h-84v437z" />
    <glyph glyph-name="section" unicode="&#xa7;" horiz-adv-x="647" 
d="M125 68l32.001 -93.9922c11.333 -12.667 23.333 -22.334 36 -29.001s25.834 -11.834 39.501 -15.501s27.834 -6 42.501 -7s29.334 -1.5 44.001 -1.5c16.667 0 33.667 2 51 6s33.166 10.5 47.499 19.5s26.166 20.833 35.499 35.5s14 33 14 55
c0 21.333 -5.33301 40.333 -16 57s-24.834 31.667 -42.501 45s-37.834 25.666 -60.501 36.999s-45.5 22.666 -68.5 33.999s-45.833 23.333 -68.5 36s-42.667 26.667 -60 42s-31.5 33 -42.5 53s-16.5 43 -16.5 69c0 13.333 1.33301 26.666 4 39.999s6.16699 26.333 10.5 39
s9.66602 24.667 15.999 36s13.5 21.333 21.5 30c-14 14 -24.833 29.833 -32.5 47.5s-11.5 37.834 -11.5 60.501c0 23.333 3.66699 44.5 11 63.5s17 36 29 51s26.167 28 42.5 39s33.333 20.167 51 27.5s35.5 12.833 53.5 16.5s35 5.5 51 5.5c24 0 46.167 -1.16699 66.5 -3.5
s38.5 -5.33301 54.5 -9s29.833 -7.83398 41.5 -12.501s21.167 -9 28.5 -13v-135h-42l-38 94c-4 4.66699 -10 8.83398 -18 12.501s-17.167 6.66699 -27.5 9s-21.5 4.16602 -33.5 5.49902s-24.333 2 -37 2c-13.333 0 -28.333 -2.33301 -45 -7s-32.334 -12.334 -47.001 -23.001
s-27 -24.5 -37 -41.5s-15 -37.833 -15 -62.5c0 -20.667 5.5 -38.834 16.5 -54.501s25.167 -29.834 42.5 -42.501s37.333 -24.334 60 -35.001s45.834 -21.5 69.501 -32.5s46.667 -22.667 69 -35s42.333 -26.166 60 -41.499s31.834 -32.833 42.501 -52.5s16 -42.5 16 -68.5
c0 -14 -1 -28.167 -3 -42.5s-5 -28.166 -9 -41.499s-8.83301 -26 -14.5 -38s-11.834 -22.333 -18.501 -31c12 -14 21.333 -29.167 28 -45.5s10 -34.833 10 -55.5c0 -36 -6.83301 -66.333 -20.5 -91s-32.167 -44.834 -55.5 -60.501s-50.166 -27 -80.499 -34
s-62.166 -10.5 -95.499 -10.5c-24.667 0 -48.834 1.33301 -72.501 4s-45.5 6 -65.5 10s-37.5 8.5 -52.5 13.5s-25.833 9.5 -32.5 13.5v157h42zM182.001 429.008c0 -18 4.33301 -34.332 13 -48.999s20.167 -27.834 34.5 -39.501s31 -22.667 50 -33
s38.833 -20.166 59.5 -29.499s41.5 -19 62.5 -29s40.5 -21 58.5 -33c4 11.333 7.33301 23.666 10 36.999s4 26 4 38c0 18.667 -4.16699 35.5 -12.5 50.5s-19.5 28.667 -33.5 41s-30.333 23.666 -49 33.999s-38.167 20.5 -58.5 30.5s-40.833 20 -61.5 30
s-40.334 21 -59.001 33c-5.33301 -12 -9.66602 -25.167 -12.999 -39.5s-5 -28.166 -5 -41.499z" />
    <glyph glyph-name="dieresis" unicode="&#xa8;" horiz-adv-x="518" 
d="M367 675c-8 0 -15.667 1.33594 -23 4.00293s-13.833 6.33398 -19.5 11.001s-10 10.667 -13 18s-4.5 15.666 -4.5 24.999c0 10 2 19.333 6 28s9.5 16.167 16.5 22.5s14.667 11.333 23 15s16.833 5.5 25.5 5.5c21.333 0 37 -5.83301 47 -17.5s15 -25.834 15 -42.501
c0 -10.667 -2 -20.334 -6 -29.001s-9.5 -15.834 -16.5 -21.501s-14.833 -10.167 -23.5 -13.5s-17.667 -5 -27 -5zM140 675.003c-8 0 -15.668 1.33594 -23.001 4.00293s-13.833 6.33398 -19.5 11.001s-10.167 10.667 -13.5 18s-5 15.666 -5 24.999
c0 10 2.16699 19.333 6.5 28s9.83301 16.167 16.5 22.5s14.334 11.333 23.001 15s17.334 5.5 26.001 5.5c21.333 0 37 -5.83301 47 -17.5s15 -25.834 15 -42.501c0 -10.667 -2.16699 -20.334 -6.5 -29.001s-9.83301 -15.834 -16.5 -21.501s-14.334 -10.167 -23.001 -13.5
s-17.667 -5 -27 -5z" />
    <glyph glyph-name="copyright" unicode="&#xa9;" horiz-adv-x="996" 
d="M499 107c-37.333 0 -73.668 5 -109.001 15s-68.166 24.167 -98.499 42.5s-58.166 40.333 -83.499 66s-46.833 53.834 -64.5 84.501s-31.5 63.5 -41.5 98.5s-15 71.167 -15 108.5s5 73.666 15 108.999s23.833 68.333 41.5 99s39.167 58.834 64.5 84.501
s53.166 47.5 83.499 65.5s63 32.167 98 42.5s71.5 15.5 109.5 15.5c37.333 0 73.333 -5.16699 108 -15.5s67.167 -24.5 97.5 -42.5s58.166 -39.833 83.499 -65.5s47 -53.834 65 -84.501s32 -63.667 42 -99s15 -71.666 15 -108.999s-5 -73.5 -15 -108.5
s-24 -67.833 -42 -98.5s-39.667 -58.834 -65 -84.501s-53.166 -47.667 -83.499 -66s-62.833 -32.5 -97.5 -42.5s-70.667 -15 -108 -15zM498.998 166c32 0 62.832 4.16699 92.499 12.5s57.334 20.5 83.001 36.5s49 35 70 57s39 46.167 54 72.5s26.667 54.5 35 84.5
s12.5 61 12.5 93s-4.16699 63.167 -12.5 93.5s-20 58.666 -35 84.999s-33 50.5 -54 72.5s-44.333 40.833 -70 56.5s-53.5 27.834 -83.5 36.501s-60.667 13 -92 13c-32 0 -63 -4.33301 -93 -13s-57.833 -20.834 -83.5 -36.501s-49.167 -34.5 -70.5 -56.5
s-39.5 -46.167 -54.5 -72.5s-26.667 -54.666 -35 -84.999s-12.5 -61.5 -12.5 -93.5s4.16699 -63 12.5 -93s20 -58.167 35 -84.5s33.167 -50.5 54.5 -72.5s44.833 -41 70.5 -57s53.5 -28.167 83.5 -36.5s61 -12.5 93 -12.5zM502.997 285
c-36 0 -67.666 5.83008 -94.999 17.4971s-50.166 27.834 -68.499 48.501s-32 45.167 -41 73.5s-13.5 59.5 -13.5 93.5s6.5 65.833 19.5 95.5s30 55.667 51 78s44.5 40.166 70.5 53.499s51.667 21 77 23c8.66699 0.666992 20.5 1 35.5 1s30.167 -0.833008 45.5 -2.5
s29.666 -4.66699 42.999 -9s23 -10.166 29 -17.499v-103h-56l-24 62c-3.33301 2 -7 4 -11 6s-9 3.66699 -15 5s-13.5 2.5 -22.5 3.5s-20.167 1.5 -33.5 1.5c-19.333 0 -36.333 -4.5 -51 -13.5s-27.167 -21.333 -37.5 -37s-18 -34.334 -23 -56.001s-7.5 -45.167 -7.5 -70.5
c0 -27.333 4 -52.5 12 -75.5s19.333 -42.667 34 -59s32 -29 52 -38s41.667 -13.5 65 -13.5c10 0 20.667 0.666992 32 2s22.166 3.33301 32.499 6s19.5 5.83398 27.5 9.50098s13.667 7.16699 17 10.5l14 -35c-6.66699 -8 -15.5 -15.667 -26.5 -23
s-23.333 -13.666 -37 -18.999s-28.5 -9.66602 -44.5 -12.999s-32.667 -5 -50 -5z" />
    <glyph glyph-name="ordfeminine" unicode="&#xaa;" horiz-adv-x="470" 
d="M158 359c-10.667 0 -22.999 2.33301 -36.999 7s-27 11.667 -39 21s-22.167 21.333 -30.5 36s-12.5 32.334 -12.5 53.001c0 29.333 7.33301 53.166 22 71.499s34.5 32.333 59.5 42s53.333 16.334 85 20.001s64.834 5.5 99.501 5.5v12c0 20.667 -2.5 37 -7.5 49
s-12.167 21.167 -21.5 27.5s-20.5 10.333 -33.5 12s-27.167 2.5 -42.5 2.5c-12.667 0 -24.834 -0.833008 -36.501 -2.5s-22.834 -3.66699 -33.501 -6s-20.334 -5.33301 -29.001 -9s-15.667 -7.83398 -21 -12.501l-19 43c7.33301 6.66699 17.166 12.834 29.499 18.501
s26 10.667 41 15s30.833 7.66602 47.5 9.99902s33 3.5 49 3.5c23.333 0 44.833 -1.5 64.5 -4.5s36.834 -9.66699 51.501 -20s26 -25 34 -44s12 -44.5 12 -76.5l-1 -223h43v-37l-16.5 -5.5c-7 -2.33301 -14.333 -4.33301 -22 -6s-15.167 -3 -22.5 -4s-14 -1.5 -20 -1.5
s-11.667 0.5 -17 1.5s-10 3.16699 -14 6.5s-7.16699 8 -9.5 14s-3.5 14 -3.5 24v8c-5.33301 -4.66699 -12.166 -10 -20.499 -16s-18.5 -11.5 -30.5 -16.5s-26 -9.33301 -42 -13s-34.667 -5.5 -56 -5.5zM195.001 417c8.66699 0 17.9971 0.666992 27.9971 2s20 3.33301 30 6
s19.5 6.16699 28.5 10.5s16.5 9.16602 22.5 14.499v120c-25.333 0 -48.666 -1.16699 -69.999 -3.5s-39.666 -6.5 -54.999 -12.5s-27.333 -14 -36 -24s-13 -22.667 -13 -38c0 -12.667 1.83301 -23.667 5.5 -33s8.33398 -17.166 14.001 -23.499s12.5 -11 20.5 -14
s16.333 -4.5 25 -4.5z" />
    <glyph glyph-name="guillemotleft" unicode="&#xab;" horiz-adv-x="926" 
d="M465 338l317 187l25 -42l-251 -183l251 -176l-25 -44l-317 178v80zM120 338l316 187l25 -42l-251 -183l251 -176l-25 -44l-316 178v80z" />
    <glyph glyph-name="logicalnot" unicode="&#xac;" horiz-adv-x="601" 
d="M87 426h428v-259h-80v196h-348v63z" />
    <glyph glyph-name="registered" unicode="&#xae;" horiz-adv-x="996" 
d="M499 107c-37.333 0 -73.668 5 -109.001 15s-68.166 24.167 -98.499 42.5s-58.166 40.333 -83.499 66s-46.833 53.834 -64.5 84.501s-31.5 63.5 -41.5 98.5s-15 71.167 -15 108.5s5 73.666 15 108.999s23.833 68.333 41.5 99s39.167 58.834 64.5 84.501
s53.166 47.5 83.499 65.5s63 32.167 98 42.5s71.5 15.5 109.5 15.5c37.333 0 73.333 -5.16699 108 -15.5s67.167 -24.5 97.5 -42.5s58.166 -39.833 83.499 -65.5s47 -53.834 65 -84.501s32 -63.667 42 -99s15 -71.666 15 -108.999s-5 -73.5 -15 -108.5
s-24 -67.833 -42 -98.5s-39.667 -58.834 -65 -84.501s-53.166 -47.667 -83.499 -66s-62.833 -32.5 -97.5 -42.5s-70.667 -15 -108 -15zM498.998 166c32 0 62.832 4.16699 92.499 12.5s57.334 20.5 83.001 36.5s49 35 70 57s39 46.167 54 72.5s26.667 54.5 35 84.5
s12.5 61 12.5 93s-4.16699 63.167 -12.5 93.5s-20 58.666 -35 84.999s-33 50.5 -54 72.5s-44.333 40.833 -70 56.5s-53.5 27.834 -83.5 36.501s-60.667 13 -92 13c-32 0 -63 -4.33301 -93 -13s-57.833 -20.834 -83.5 -36.501s-49.167 -34.5 -70.5 -56.5
s-39.5 -46.167 -54.5 -72.5s-26.667 -54.666 -35 -84.999s-12.5 -61.5 -12.5 -93.5s4.16699 -63 12.5 -93s20 -58.167 35 -84.5s33.167 -50.5 54.5 -72.5s44.833 -41 70.5 -57s53.5 -28.167 83.5 -36.5s61 -12.5 93 -12.5zM305.997 332l44.9951 12.9941v356l-45 11v48h78
c10 0 18.333 -0.166992 25 -0.5s14.334 -0.333008 23.001 0s19.167 0.833008 31.5 1.5s28.833 1 49.5 1c56 0 98.333 -9.83301 127 -29.5s43.334 -48.167 44.001 -85.5c0 -14.667 -1.66699 -29.5 -5 -44.5s-9.66602 -29.167 -18.999 -42.5s-22.333 -25.166 -39 -35.499
s-38 -17.833 -64 -22.5c14.667 -8 27 -17.667 37 -29s18.833 -23.166 26.5 -35.499s14.834 -24.666 21.501 -36.999s13.667 -23.166 21 -32.499s15.5 -17.166 24.5 -23.499s20.167 -9.5 33.5 -9.5v-45h-77c-15.333 0 -27.833 4 -37.5 12s-18.167 18.5 -25.5 31.5
s-14 27.333 -20 43s-12.667 31 -20 46s-16.166 28.833 -26.499 41.5s-23.833 22.334 -40.5 29.001h-36v-151l44 -10v-42h-176v42zM437.992 540.994c10 -2 19.835 -3.16504 29.502 -3.49805s21.5 -0.5 35.5 -0.5s26.667 2.33301 38 7s21.166 11.167 29.499 19.5
s14.666 17.833 18.999 28.5s6.5 21.667 6.5 33c0 15.333 -2.33301 28.666 -7 39.999s-11.5 20.666 -20.5 27.999s-19.667 12.5 -32 15.5s-26.166 4.5 -41.499 4.5h-14h-12.5c-4.33301 0 -8.83301 -0.5 -13.5 -1.5s-10.334 -2.16699 -17.001 -3.5v-167z" />
    <glyph glyph-name="macron" unicode="&#xaf;" horiz-adv-x="432" 
d="M95 777h259v-72h-259v72z" />
    <glyph glyph-name="degree" unicode="&#xb0;" horiz-adv-x="330" 
d="M165 469c-21.333 0 -41.333 4.16895 -60 12.502s-35.167 19.5 -49.5 33.5s-25.5 30.333 -33.5 49s-12 38.667 -12 60s4 41.166 12 59.499s19.167 34.5 33.5 48.5s30.833 25.167 49.5 33.5s38.667 12.5 60 12.5s41.5 -4.16699 60.5 -12.5s35.5 -19.5 49.5 -33.5
s25.167 -30.333 33.5 -49s12.5 -38.334 12.5 -59.001c0 -21.333 -4.16699 -41.333 -12.5 -60s-19.5 -35 -33.5 -49s-30.5 -25.167 -49.5 -33.5s-39.167 -12.5 -60.5 -12.5zM165 525.002c14 0 26.999 2.5 38.999 7.5s22.333 11.833 31 20.5s15.5 19.167 20.5 31.5
s7.5 25.5 7.5 39.5s-2.5 26.833 -7.5 38.5s-12 22 -21 31s-19.333 16.167 -31 21.5s-24.5 8 -38.5 8s-27 -2.5 -39 -7.5s-22.333 -12 -31 -21s-15.5 -19.5 -20.5 -31.5s-7.5 -25 -7.5 -39s2.66699 -26.833 8 -38.5s12.333 -22 21 -31s18.834 -16.167 30.501 -21.5
s24.5 -8 38.5 -8z" />
    <glyph glyph-name="plusminus" unicode="&#xb1;" horiz-adv-x="619" 
d="M272 274l3 81l-81 -3h-107v75h107l81 -6l-3 83v111h76v-111l-5 -83l67 6h123v-75h-123l-67 3l5 -81v-117h-76v117zM93 86h432v-71h-432v71z" />
    <glyph glyph-name="twosuperior" unicode="&#xb2;" horiz-adv-x="613" 
d="M70 408c12.667 6 28.999 14.666 48.999 25.999s41.333 24.333 64 39s45.667 30.5 69 47.5s44.333 34.333 63 52s33.834 35.5 45.501 53.5s17.5 35.333 17.5 52c0 17.333 -3 32 -9 44s-14 21.667 -24 29s-21.333 12.5 -34 15.5s-26 4.5 -40 4.5s-28.667 -1.83301 -44 -5.5
s-30.333 -8.83398 -45 -15.501s-28.5 -15 -41.5 -25s-24.5 -21.333 -34.5 -34l-36 43c8 12 19.167 24.5 33.5 37.5s31.333 24.833 51 35.5s41.167 19.5 64.5 26.5s47.666 10.5 72.999 10.5c26.667 0 49.834 -2.16699 69.501 -6.5s36.667 -10.166 51 -17.499
s26.166 -15.666 35.499 -24.999s16.833 -19.166 22.5 -29.499s9.5 -20.333 11.5 -30s3 -18.5 3 -26.5c0 -31.333 -7.66699 -60.166 -23 -86.499s-36.666 -51.333 -63.999 -75s-59.5 -46.834 -96.5 -69.501s-77.167 -45.334 -120.5 -68.001l254 19l58 68l50 -20l-27 -125
h-425z" />
    <glyph glyph-name="threesuperior" unicode="&#xb3;" horiz-adv-x="559" 
d="M110 383c9.33301 -3.33301 19.835 -6.66992 31.502 -10.0029s23.667 -6.16602 36 -8.49902s24.5 -4.16602 36.5 -5.49902s23 -2 33 -2c24 0 44.833 3 62.5 9s32.5 13.5 44.5 22.5s20.833 19.833 26.5 32.5s8.5 26.334 8.5 41.001c0 14 -2.66699 26.333 -8 37
s-12.833 19.5 -22.5 26.5s-20.834 12.167 -33.501 15.5s-26.334 5.33301 -41.001 6l-96 -20v59c26.667 5.33301 49 11.333 67 18s32.833 14.167 44.5 22.5s21 17.166 28 26.499s12.833 19.666 17.5 30.999c2 5.33301 3.33301 11.166 4 17.499s0.666992 12.5 0 18.5
c0 10 -3 18.5 -9 25.5s-13.5 12.833 -22.5 17.5s-18.667 8 -29 10s-20.166 2.66699 -29.499 2c-12.667 -0.666992 -25.667 -2.16699 -39 -4.5s-26.333 -5.5 -39 -9.5s-24.667 -8.66699 -36 -14s-21 -11 -29 -17l-24 44c7.33301 6 17.166 12.333 29.499 19
s26 12.834 41 18.501s30.833 10.834 47.5 15.501s33 7.66699 49 9c29.333 3.33301 55.833 2.33301 79.5 -3s43.5 -13.666 59.5 -24.999s28.167 -24.833 36.5 -40.5s12.5 -32.5 12.5 -50.5c0 -29.333 -9 -54.833 -27 -76.5s-46 -39.5 -84 -53.5
c19.333 0.666992 36.5 -0.833008 51.5 -4.5s28 -9 39 -16s20.167 -15.167 27.5 -24.5s13.333 -19 18 -29s8 -19.667 10 -29s3 -18 3 -26c0 -23.333 -5 -44.666 -15 -63.999s-24.833 -36.333 -44.5 -51s-43.5 -26.167 -71.5 -34.5s-59.667 -12.5 -95 -12.5
c-10 0 -21 0.666992 -33 2s-24.667 3.33301 -38 6s-26.833 6.16699 -40.5 10.5s-26.167 9.16602 -37.5 14.499v54z" />
    <glyph glyph-name="acute" unicode="&#xb4;" horiz-adv-x="431" 
d="M108 681l144.001 188.002l71 -73c-10 -14.667 -22.833 -29.167 -38.5 -43.5s-32.334 -27.833 -50.001 -40.5s-35.5 -23.834 -53.5 -33.501s-33.667 -17.834 -47 -24.501z" />
    <glyph glyph-name="mu" unicode="&#xb5;" horiz-adv-x="690" 
d="M221 -182l-92.002 -0.00390625v397v10v252l-50 15v37l125 27l17 -9v-336c0 -27.333 1.5 -50.666 4.5 -69.999s8.33301 -35.166 16 -47.499s18.334 -21.5 32.001 -27.5s31.5 -9 53.5 -9c14.667 0 29 2 43 6s27.167 8.83301 39.5 14.5s23 11.667 32 18
s15.5 11.833 19.5 16.5v361l-61 15v40l140 28l14 -8v-506h58v-38c-4.66699 -2.66699 -10.667 -5.16699 -18 -7.5s-15 -4.5 -23 -6.5s-16.333 -3.66699 -25 -5s-17 -2 -25 -2c-15.333 0 -27.5 3.33301 -36.5 10s-13.5 17.334 -13.5 32.001v40c-28 -26 -57.667 -45 -89 -57
s-61.666 -18 -90.999 -18c-14 0 -26.833 0.833008 -38.5 2.5s-22.167 3.83398 -31.5 6.50098v-181z" />
    <glyph glyph-name="mu" unicode="&#x3bc;" horiz-adv-x="690" 
d="M221 -182l-92.002 -0.00390625v397v10v252l-50 15v37l125 27l17 -9v-336c0 -27.333 1.5 -50.666 4.5 -69.999s8.33301 -35.166 16 -47.499s18.334 -21.5 32.001 -27.5s31.5 -9 53.5 -9c14.667 0 29 2 43 6s27.167 8.83301 39.5 14.5s23 11.667 32 18
s15.5 11.833 19.5 16.5v361l-61 15v40l140 28l14 -8v-506h58v-38c-4.66699 -2.66699 -10.667 -5.16699 -18 -7.5s-15 -4.5 -23 -6.5s-16.333 -3.66699 -25 -5s-17 -2 -25 -2c-15.333 0 -27.5 3.33301 -36.5 10s-13.5 17.334 -13.5 32.001v40c-28 -26 -57.667 -45 -89 -57
s-61.666 -18 -90.999 -18c-14 0 -26.833 0.833008 -38.5 2.5s-22.167 3.83398 -31.5 6.50098v-181z" />
    <glyph glyph-name="paragraph" unicode="&#xb6;" horiz-adv-x="657" 
d="M167 42l97.999 14v274c-69.333 0 -121.166 17.667 -155.499 53s-51.5 91 -51.5 167c0 32 4.83301 61.333 14.5 88s24.834 49.667 45.501 69s47 34.333 79 45s69.667 16 113 16c11.333 0 26.166 -0.333008 44.499 -1s38 -1.66699 59 -3s41.5 -2.5 61.5 -3.5l50 -2.5h84
v-49l-84 -16v-637l72 -14v-42h-155l-1 693h-95v-693h-179v42z" />
    <glyph glyph-name="periodcentered" unicode="&#xb7;" horiz-adv-x="344" 
d="M167 348c-8 0 -15.832 1.33398 -23.499 4.00098s-14.334 6.5 -20.001 11.5s-10.167 11.333 -13.5 19s-5 16.167 -5 25.5c0 10 2.16699 19.333 6.5 28s10 16.167 17 22.5s14.833 11.333 23.5 15s17.334 5.5 26.001 5.5c21.333 0 37 -6 47 -18s15 -26.333 15 -43
c0 -10.667 -2.16699 -20.334 -6.5 -29.001s-9.83301 -16 -16.5 -22s-14.334 -10.667 -23.001 -14s-17.667 -5 -27 -5z" />
    <glyph glyph-name="cedilla" unicode="&#xb8;" horiz-adv-x="300" 
d="M163 0c-1.33301 -8 -2.33594 -17.6621 -3.00293 -28.9951s-0.333984 -22 0.999023 -32c22.667 0 41.834 -2.83301 57.501 -8.5s28.334 -12.834 38.001 -21.501s16.834 -18.5 21.501 -29.5s7 -21.833 7 -32.5c0 -16 -3 -30.333 -9 -43s-14.667 -23.334 -26 -32.001
s-24.5 -15.5 -39.5 -20.5s-31.167 -7.83301 -48.5 -8.5c-14 -0.666992 -26.167 -0.833984 -36.5 -0.500977s-19 1.16602 -26 2.49902s-13.167 2.66602 -18.5 3.99902l-16 4c0 8.66699 0.166992 17 0.5 25s0.5 16 0.5 24c4 -0.666992 8.5 -1.5 13.5 -2.5
s10.167 -1.83301 15.5 -2.5s10.333 -1.16699 15 -1.5s8.33398 -0.5 11.001 -0.5c9.33301 0 18 0.5 26 1.5s15.167 3.33301 21.5 7s11.333 9.16699 15 16.5s5.5 17 5.5 29c0 14 -6.16699 25.667 -18.5 35s-31.5 14 -57.5 14c-2 0 -4.16699 -0.166992 -6.5 -0.5
s-4.83301 -0.5 -7.5 -0.5s-5 -0.166992 -7 -0.5l-3 -0.5c0 16 1.5 32.333 4.5 49s7.16699 35 12.5 55h57z" />
    <glyph glyph-name="onesuperior" unicode="&#xb9;" horiz-adv-x="529" 
d="M105 393l133.002 13v319l-133 -26l-10 48c10 2.66699 21.667 6.5 35 11.5s27.166 10.5 41.499 16.5s28.833 12.333 43.5 19s28.167 13 40.5 19s23.166 11.5 32.499 16.5s16 9.16699 20 12.5l25 -8l-1 -429l126 -12v-42h-353v42z" />
    <glyph glyph-name="ordmasculine" unicode="&#xba;" horiz-adv-x="487" 
d="M240 359c-27.333 0 -53.001 4.66895 -77.001 14.002s-44.833 22.833 -62.5 40.5s-31.5 39.667 -41.5 66s-14.667 56.166 -14 89.499c0.666992 37.333 7.5 69.166 20.5 95.499s29.333 47.833 49 64.5s41.5 29 65.5 37s47.333 12 70 12c30 0 57.167 -5 81.5 -15
s44.833 -24.333 61.5 -43s29.334 -41.167 38.001 -67.5s13 -55.833 13 -88.5c0 -36.667 -6.66699 -68 -20 -94s-30 -47.167 -50 -63.5s-41.833 -28.333 -65.5 -36s-46.5 -11.5 -68.5 -11.5zM237.999 409.002c17.333 0 32.832 1.99805 46.499 5.99805s25.167 11.667 34.5 23
s16.5 26.666 21.5 45.999s7.5 44.333 7.5 75c0 25.333 -2.33301 48.333 -7 69s-11.5 38.5 -20.5 53.5s-19.833 26.5 -32.5 34.5s-27 12 -43 12s-30.5 -3.16699 -43.5 -9.5s-24 -15.5 -33 -27.5s-15.833 -27.667 -20.5 -47s-7 -42.666 -7 -69.999
c0 -25.333 2.66699 -48.166 8 -68.499s12.333 -37.666 21 -51.999s18.834 -25.333 30.501 -33s24.167 -11.5 37.5 -11.5z" />
    <glyph glyph-name="guillemotright" unicode="&#xbb;" horiz-adv-x="926" 
d="M716 304l-250 176l25 45l316 -178v-81l-316 -186l-25 41zM120 121l250 183l-250 176l25 45l316 -178v-81l-316 -186z" />
    <glyph glyph-name="onequarter" unicode="&#xbc;" horiz-adv-x="1282" 
d="M767 918l64 -21l-378 -1064l-64 21zM120 393l132.002 13v319l-132 -26l-10 48c10 2.66699 21.667 6.5 35 11.5s27.166 10.5 41.499 16.5s28.833 12.333 43.5 19s28.167 13 40.5 19s23.166 11.5 32.499 16.5s16 9.16699 20 12.5l25 -8l-1 -429l126 -12v-42h-353v42z
M969.002 543l33 1l54 -50l-250 -305l-35 -47l199 16l1 123l86 10v-126l133 10l2 -83h-135v-178h-88l1 178h-256l-26 46z" />
    <glyph glyph-name="onehalf" unicode="&#xbd;" horiz-adv-x="1282" 
d="M767 918l64 -18l-378 -1067l-64 15zM120 393l132.002 13v319l-132 -26l-10 48c10 2.66699 21.667 6.5 35 11.5s27.166 10.5 41.499 16.5s28.833 12.333 43.5 19s28.167 13 40.5 19s23.166 11.5 32.499 16.5s16 9.16699 20 12.5l25 -8l-1 -429l126 -12v-42h-353v42z
M715.002 56c12.667 6 28.835 14.668 48.502 26.001s41 24.166 64 38.499s46 30 69 47s43.833 34.5 62.5 52.5s33.834 35.833 45.501 53.5s17.5 34.834 17.5 51.501c0 17.333 -3 32 -9 44s-13.833 21.667 -23.5 29s-21 12.666 -34 15.999s-26.5 5 -40.5 5
s-28.5 -1.83301 -43.5 -5.5s-29.833 -9 -44.5 -16s-28.667 -15.5 -42 -25.5s-25 -21 -35 -33l-36 42c8 12 19.333 24.5 34 37.5s31.667 25 51 36s40.666 20 63.999 27s48 10.5 74 10.5c26.667 0 49.834 -2.16699 69.501 -6.5s36.667 -10.166 51 -17.499
s26.166 -15.833 35.499 -25.5s16.666 -19.5 21.999 -29.5s9.16602 -19.833 11.499 -29.5s3.5 -18.5 3.5 -26.5c0 -31.333 -7.83301 -60.333 -23.5 -87s-37 -51.834 -64 -75.501s-59 -46.667 -96 -69s-77.167 -44.833 -120.5 -67.5l253 18l58 69l51 -21l-28 -125h-424z" />
    <glyph glyph-name="threequarters" unicode="&#xbe;" horiz-adv-x="1282" 
d="M767 918l64 -18l-378 -1067l-64 15zM110 383c9.33301 -3.33301 19.835 -6.66992 31.502 -10.0029s23.667 -6.16602 36 -8.49902s24.5 -4.16602 36.5 -5.49902s23 -2 33 -2c24 0 44.833 3 62.5 9s32.5 13.5 44.5 22.5s20.833 19.833 26.5 32.5s8.5 26.334 8.5 41.001
c0 14 -2.66699 26.333 -8 37s-12.833 19.5 -22.5 26.5s-20.834 12.167 -33.501 15.5s-26.334 5.33301 -41.001 6l-96 -20v59c26.667 5.33301 49 11.333 67 18s32.833 14.167 44.5 22.5s21 17.166 28 26.499s12.833 19.666 17.5 30.999c2 5.33301 3.33301 11.166 4 17.499
s0.666992 12.5 0 18.5c0 10 -3 18.5 -9 25.5s-13.5 12.833 -22.5 17.5s-18.667 8 -29 10s-20.166 2.66699 -29.499 2c-12.667 -0.666992 -25.667 -2.16699 -39 -4.5s-26.333 -5.5 -39 -9.5s-24.667 -8.66699 -36 -14s-21 -11 -29 -17l-24 44
c7.33301 6 17.166 12.333 29.499 19s26 12.834 41 18.501s30.833 10.834 47.5 15.501s33 7.66699 49 9c29.333 3.33301 55.833 2.33301 79.5 -3s43.5 -13.666 59.5 -24.999s28.167 -24.833 36.5 -40.5s12.5 -32.5 12.5 -50.5c0 -29.333 -9 -54.833 -27 -76.5
s-46 -39.5 -84 -53.5c19.333 0.666992 36.5 -0.833008 51.5 -4.5s28 -9 39 -16s20.167 -15.167 27.5 -24.5s13.333 -19 18 -29s8 -19.667 10 -29s3 -18 3 -26c0 -23.333 -5 -44.666 -15 -63.999s-24.833 -36.333 -44.5 -51s-43.5 -26.167 -71.5 -34.5
s-59.667 -12.5 -95 -12.5c-10 0 -21 0.666992 -33 2s-24.667 3.33301 -38 6s-26.833 6.16699 -40.5 10.5s-26.167 9.16602 -37.5 14.499v54zM969.002 542.996l33 1l54 -50l-250 -305l-35 -47l199 16l1 123l86 10v-126l133 10l2 -83h-135v-178h-88l1 178h-256l-26 46z" />
    <glyph glyph-name="questiondown" unicode="&#xbf;" horiz-adv-x="494" 
d="M217 572c-8 0 -15.668 1.33301 -23.001 4s-13.833 6.5 -19.5 11.5s-10.167 11.333 -13.5 19s-5 16.167 -5 25.5c0 10 2.16699 19.333 6.5 28s9.83301 16.167 16.5 22.5s14.334 11.333 23.001 15s17.667 5.5 27 5.5c21.333 0 37 -6 47 -18s15 -26 15 -42
c0 -10.667 -2.16699 -20.5 -6.5 -29.5s-10 -16.5 -17 -22.5s-14.833 -10.667 -23.5 -14s-17.667 -5 -27 -5zM45.999 115c0 12 4.83203 22.999 14.499 32.999s22 19.5 37 28.5s31.333 17.667 49 26s34.667 16.833 51 25.5s30.333 17.334 42 26.001s19.167 18.334 22.5 29.001
c2 13.333 1.83301 26.833 -0.5 40.5s-6 27.667 -11 42s-10.667 28.833 -17 43.5s-12.5 29.334 -18.5 44.001h52c8 -6 16.833 -15.5 26.5 -28.5s19 -27.333 28 -43s16.833 -31.834 23.5 -48.501s10.334 -32 11.001 -46s-4.33301 -26.5 -15 -37.5s-24.5 -21.333 -41.5 -31
s-35.5 -18.667 -55.5 -27s-39 -16.333 -57 -24s-33.5 -15.334 -46.5 -23.001s-20.5 -15.167 -22.5 -22.5c-1.33301 -21.333 0.666992 -42.166 6 -62.499s13.166 -39.333 23.499 -57s22.833 -33.834 37.5 -48.501s31 -27.334 49 -38.001s37 -19 57 -25s40.667 -9 62 -9
c6 0 12.833 0.166992 20.5 0.5s15.167 1 22.5 2s14.333 2.16699 21 3.5s12.334 3 17.001 5v-74c-2.66699 -3.33301 -7.16699 -6.33301 -13.5 -9s-13.833 -5 -22.5 -7s-18 -3.66699 -28 -5s-19.667 -2 -29 -2c-40.667 0 -76.667 5 -108 15s-58.333 23.167 -81 39.5
s-41.5 35.333 -56.5 57s-26.667 44.334 -35 68.001s-13.5 47.5 -15.5 71.5s-1.66699 46.667 1 68z" />
    <glyph glyph-name="Agrave" unicode="&#xc0;" horiz-adv-x="729" 
d="M371 785c-15.333 2.66699 -31.166 6.49902 -47.499 11.499s-32.833 10.833 -49.5 17.5s-33.334 14.334 -50.001 23.001s-32.667 18 -48 28l72 73l149 -127zM1 41.999l70 14l254 702h82l243 -702l78 -14v-42h-258v42l81 14l-52 157h-293l-53 -157l81 -14v-42h-233v42z
M479 270.999l-79 238l-46 147l-129 -385h254z" />
    <glyph glyph-name="Aacute" unicode="&#xc1;" horiz-adv-x="729" 
d="M335 811l150 127.001l71 -73c-15.333 -10 -31.166 -19.333 -47.499 -28s-32.833 -16.334 -49.5 -23.001s-33.334 -12.5 -50.001 -17.5s-32.667 -8.83301 -48 -11.5zM1 42.001l70 14l254 702h82l243 -702l78 -14v-42h-258v42l81 14l-52 157h-293l-53 -157l81 -14v-42h-233
v42zM479 271.001l-79 238l-46 147l-129 -385h254z" />
    <glyph glyph-name="Acircumflex" unicode="&#xc2;" horiz-adv-x="729" 
d="M196 812l123 126h93l125 -125l-42 -24l-129 82l-132 -82zM1 42l70 14l254 702h82l243 -702l78 -14v-42h-258v42l81 14l-52 157h-293l-53 -157l81 -14v-42h-233v42zM479 271l-79 238l-46 147l-129 -385h254z" />
    <glyph glyph-name="Atilde" unicode="&#xc3;" horiz-adv-x="729" 
d="M171 854c6 11.333 14 22.1699 24 32.5029s21.167 19.166 33.5 26.499s25.333 13.333 39 18s26.834 7 39.501 7c16 0 29.333 -3.33301 40 -10s20.5 -13.834 29.5 -21.501s17.833 -14.667 26.5 -21s19 -9.5 31 -9.5c18.667 0 35.667 4 51 12s28.333 17.333 39 28l25 -36
c-6 -11.333 -14 -22 -24 -32s-21 -18.833 -33 -26.5s-24.833 -13.834 -38.5 -18.501s-26.834 -7 -39.501 -7c-10.667 0 -20 1.66699 -28 5s-15.5 7.33301 -22.5 12s-13.333 9.66699 -19 15s-11.5 10.5 -17.5 15.5s-12.167 9 -18.5 12s-13.5 4.5 -21.5 4.5
c-8.66699 0 -17.167 -1.16699 -25.5 -3.5s-16.5 -5.5 -24.5 -9.5s-15.5 -8.5 -22.5 -13.5s-12.833 -9.83301 -17.5 -14.5zM1 42.0039l70 14l254 702h82l243 -702l78 -14v-42h-258v42l81 14l-52 157h-293l-53 -157l81 -14v-42h-233v42zM479 271.004l-79 238l-46 147
l-129 -385h254z" />
    <glyph glyph-name="Adieresis" unicode="&#xc4;" horiz-adv-x="729" 
d="M473 806c-8 0 -15.832 1.33496 -23.499 4.00195s-14.334 6.66699 -20.001 12s-10.167 11.666 -13.5 18.999s-5 15.666 -5 24.999c0 10 2.16699 19.5 6.5 28.5s10 16.667 17 23s14.833 11.333 23.5 15s17.334 5.5 26.001 5.5c21.333 0 37 -6 47 -18s15 -26.333 15 -43
c0 -10.667 -2.16699 -20.5 -6.5 -29.5s-9.83301 -16.5 -16.5 -22.5s-14.334 -10.667 -23.001 -14s-17.667 -5 -27 -5zM245.001 806.002c-8 0 -15.6689 1.33496 -23.002 4.00195s-13.833 6.66699 -19.5 12s-10.167 11.666 -13.5 18.999s-5 15.666 -5 24.999
c0 10 2.16699 19.5 6.5 28.5s9.83301 16.667 16.5 23s14.334 11.333 23.001 15s17.334 5.5 26.001 5.5c21.333 0 37 -6 47 -18s15 -26.333 15 -43c0 -10.667 -2 -20.5 -6 -29.5s-9.5 -16.5 -16.5 -22.5s-14.833 -10.667 -23.5 -14s-17.667 -5 -27 -5zM0.999023 42.0039
l70 14l254 702h82l243 -702l78 -14v-42h-258v42l81 14l-52 157h-293l-53 -157l81 -14v-42h-233v42zM478.999 271.004l-79 238l-46 147l-129 -385h254z" />
    <glyph glyph-name="Aring" unicode="&#xc5;" horiz-adv-x="729" 
d="M1 42l70.002 14.0029l240 662c-20.667 9.33301 -37.334 23.166 -50.001 41.499s-19 39.166 -19 62.499c0 16 3.16699 31.167 9.5 45.5s15.166 26.666 26.499 36.999s24.333 18.5 39 24.5s30.667 9 48 9c16.667 0 32.5 -3 47.5 -9s28 -14.167 39 -24.5
s19.833 -22.5 26.5 -36.5s10 -29.333 10 -46c0 -23.333 -6.16699 -44 -18.5 -62s-28.833 -31.667 -49.5 -41l230 -663l78 -14v-42h-258v42l81 14l-52 157h-293l-53 -157l81 -14v-42h-233v42zM365.002 759.003c8.66699 0 17 1.49707 25 4.49707s14.833 7.33301 20.5 13
s10.334 12.334 14.001 20.001s5.5 15.834 5.5 24.501s-1.83301 16.834 -5.5 24.501s-8.33398 14.334 -14.001 20.001s-12.5 10 -20.5 13s-16.333 4.5 -25 4.5s-17 -1.5 -25 -4.5s-15 -7.33301 -21 -13s-10.667 -12.334 -14 -20.001s-5 -15.834 -5 -24.501
c0 -9.33301 1.66699 -17.666 5 -24.999s8 -13.833 14 -19.5s13 -10 21 -13s16.333 -4.5 25 -4.5zM479.002 271l-79 238l-46 147l-129 -385h254z" />
    <glyph glyph-name="AE" unicode="&#xc6;" horiz-adv-x="947" 
d="M1 42l69 14l285 702h474l14 -139l-49 -1l-22 83l-298 6l84 -283l189 3l14 76h45v-205h-45l-14 70l-173 2l94 -316l157 8l49 101l43 -21l-22 -142h-414v42l80 14l-51 167h-296l-62 -167l82 -14v-42h-233v42zM492 280l-92 299l-17 93l-147 -392h256z" />
    <glyph glyph-name="Ccedilla" unicode="&#xc7;" horiz-adv-x="688" 
d="M42 354c0 42 4.82812 81.1729 14.4951 117.506s23.334 69.833 41.001 100.5s38.667 57.834 63 81.501s51.166 43.834 80.499 60.501s60.333 29.334 93 38.001s66.667 13 102 13c23.333 0 45 -1.33301 65 -4s38.5 -5.83398 55.5 -9.50098s32.333 -7.5 46 -11.5
s25.834 -7.33301 36.501 -10l-8 -141h-51l-26 81c-10.667 6.66699 -21.167 12.5 -31.5 17.5s-21.333 9.16699 -33 12.5s-24.5 5.5 -38.5 6.5s-29.333 1.5 -46 1.5c-34.667 0 -68 -7 -100 -21s-60 -34.833 -84 -62.5s-43.167 -61.834 -57.5 -102.501
s-21.5 -86.667 -21.5 -138c0 -46 5.66699 -90 17 -132s28.5 -78.833 51.5 -110.5s51.5 -56.834 85.5 -75.501s73.333 -28 118 -28c39.333 0 71.5 5 96.5 15s44.833 24.333 59.5 43l28 75h20.5h21.5v-140c-11.333 -0.666992 -23.666 -3 -36.999 -7
s-28.833 -8.66699 -46.5 -14s-38.167 -10.333 -61.5 -15s-50.333 -7.33398 -81 -8.00098c-0.666992 -7.33301 -1 -15.333 -1 -24s0.333008 -16.667 1 -24c22.667 0 41.834 -2.83301 57.501 -8.5s28.5 -12.834 38.5 -21.501s17.333 -18.5 22 -29.5s7 -21.833 7 -32.5
c0 -16 -3.16699 -30.333 -9.5 -43s-15 -23.334 -26 -32.001s-24 -15.5 -39 -20.5s-31.5 -7.83301 -49.5 -8.5c-14 -0.666992 -26 -0.833984 -36 -0.500977s-18.667 1.16602 -26 2.49902s-13.666 2.66602 -18.999 3.99902s-10.333 2.66602 -15 3.99902v25v24
c4 -0.666992 8.5 -1.5 13.5 -2.5s10.167 -1.83301 15.5 -2.5s10.333 -1.16699 15 -1.5s8.66699 -0.5 12 -0.5c9.33301 0 18 0.5 26 1.5s15.167 3.33301 21.5 7s11.333 9.16699 15 16.5s5.5 17 5.5 29c0 14 -6.16699 25.667 -18.5 35s-31.833 14 -58.5 14
c-2 0 -4.16699 -0.166992 -6.5 -0.5s-4.66602 -0.5 -6.99902 -0.5s-4.5 -0.166992 -6.5 -0.5s-3.33301 -0.5 -4 -0.5c0 14.667 1.33301 29.334 4 44.001s6 30.667 10 48c-46 4 -88.167 15.667 -126.5 35s-71.5 45 -99.5 77s-49.667 69.5 -65 112.5s-23 90.167 -23 141.5z
" />
    <glyph glyph-name="Egrave" unicode="&#xc8;" horiz-adv-x="644" 
d="M360 785c-15.333 2.66699 -31.165 6.49902 -47.498 11.499s-32.833 10.833 -49.5 17.5s-33.334 14.334 -50.001 23.001s-32.334 18 -47.001 28l71 73l149 -127zM50.001 41.999l82 14v646l-80 8v48h507l14 -139h-54l-22 82l-270 6v-285l182 4l14 76h50v-210h-50l-14 75
l-182 3v-317l290 9l49 101l47 -12l-22 -151h-541v42z" />
    <glyph glyph-name="Eacute" unicode="&#xc9;" horiz-adv-x="644" 
d="M325 811l149.001 127.001l71 -73c-15.333 -10 -31.166 -19.333 -47.499 -28s-32.833 -16.334 -49.5 -23.001s-33.334 -12.5 -50.001 -17.5s-32.334 -8.83301 -47.001 -11.5zM50.001 42.001l82 14v646l-80 8v48h507l14 -139h-54l-22 82l-270 6v-285l182 4l14 76h50v-210
h-50l-14 75l-182 3v-317l290 9l49 101l47 -12l-22 -151h-541v42z" />
    <glyph glyph-name="Ecircumflex" unicode="&#xca;" horiz-adv-x="644" 
d="M185 812l124 126h92l125 -125l-42 -24l-129 82l-132 -82zM50 42l82 14v646l-80 8v48h507l14 -139h-54l-22 82l-270 6v-285l182 4l14 76h50v-210h-50l-14 75l-182 3v-317l290 9l49 101l47 -12l-22 -151h-541v42z" />
    <glyph glyph-name="Edieresis" unicode="&#xcb;" horiz-adv-x="644" 
d="M462 806c-8 0 -15.668 1.33496 -23.001 4.00195s-13.833 6.66699 -19.5 12s-10.334 11.666 -14.001 18.999s-5.5 15.666 -5.5 24.999c0 10 2.33301 19.5 7 28.5s10.334 16.667 17.001 23s14.334 11.333 23.001 15s17.334 5.5 26.001 5.5c21.333 0 37 -6 47 -18
s15 -26.333 15 -43c0 -10.667 -2.16699 -20.5 -6.5 -29.5s-9.83301 -16.5 -16.5 -22.5s-14.334 -10.667 -23.001 -14s-17.667 -5 -27 -5zM233.999 806.002c-8 0 -15.666 1.33496 -22.999 4.00195s-13.833 6.66699 -19.5 12s-10.167 11.666 -13.5 18.999s-5 15.666 -5 24.999
c0 10 2.16699 19.5 6.5 28.5s10 16.667 17 23s14.667 11.333 23 15s17.166 5.5 26.499 5.5c21.333 0 37 -6 47 -18s15 -26.333 15 -43c0 -10.667 -2.16699 -20.5 -6.5 -29.5s-10 -16.5 -17 -22.5s-14.833 -10.667 -23.5 -14s-17.667 -5 -27 -5zM50 42.0039l82 14v646l-80 8
v48h507l14 -139h-54l-22 82l-270 6v-285l182 4l14 76h50v-210h-50l-14 75l-182 3v-317l290 9l49 101l47 -12l-22 -151h-541v42z" />
    <glyph glyph-name="Igrave" unicode="&#xcc;" horiz-adv-x="372" 
d="M193 785c-15.333 2.66699 -31.165 6.49902 -47.498 11.499s-32.833 10.833 -49.5 17.5s-33.334 14.334 -50.001 23.001s-32.334 18 -47.001 28l71 73l149 -127zM51.001 41.999l88 14v646l-86 8v48h265v-48l-84 -8v-646l89 -14v-42h-272v42z" />
    <glyph glyph-name="Iacute" unicode="&#xcd;" horiz-adv-x="372" 
d="M158 811l149.001 127.001l71 -73c-15.333 -10 -31.166 -19.333 -47.499 -28s-32.833 -16.334 -49.5 -23.001s-33.334 -12.5 -50.001 -17.5s-32.334 -8.83301 -47.001 -11.5zM51.001 42.001l88 14v646l-86 8v48h265v-48l-84 -8v-646l89 -14v-42h-272v42z" />
    <glyph glyph-name="Icircumflex" unicode="&#xce;" horiz-adv-x="372" 
d="M18 812l124 126h92l125 -125l-42 -24l-129 82l-132 -82zM51 42l88 14v646l-86 8v48h265v-48l-84 -8v-646l89 -14v-42h-272v42z" />
    <glyph glyph-name="Idieresis" unicode="&#xcf;" horiz-adv-x="372" 
d="M295 806c-8 0 -15.668 1.33496 -23.001 4.00195s-13.833 6.66699 -19.5 12s-10.334 11.666 -14.001 18.999s-5.5 15.666 -5.5 24.999c0 10 2.33301 19.5 7 28.5s10.334 16.667 17.001 23s14.334 11.333 23.001 15s17.334 5.5 26.001 5.5c21.333 0 37 -6 47 -18
s15 -26.333 15 -43c0 -10.667 -2.16699 -20.5 -6.5 -29.5s-9.83301 -16.5 -16.5 -22.5s-14.334 -10.667 -23.001 -14s-17.667 -5 -27 -5zM66.999 806.002c-8 0 -15.666 1.33496 -22.999 4.00195s-13.833 6.66699 -19.5 12s-10.167 11.666 -13.5 18.999s-5 15.666 -5 24.999
c0 10 2.16699 19.5 6.5 28.5s10 16.667 17 23s14.667 11.333 23 15s17.166 5.5 26.499 5.5c21.333 0 37 -6 47 -18s15 -26.333 15 -43c0 -10.667 -2.16699 -20.5 -6.5 -29.5s-10 -16.5 -17 -22.5s-14.833 -10.667 -23.5 -14s-17.667 -5 -27 -5zM51 42.0039l88 14v646l-86 8
v48h265v-48l-84 -8v-646l89 -14v-42h-272v42z" />
    <glyph glyph-name="Eth" unicode="&#xd0;" horiz-adv-x="777" 
d="M52 42l82 14.002v298h-86v71h86v277l-80 8v48h128c22 0 41 0.333008 57 1s30.833 1.5 44.5 2.5s27 1.83301 40 2.5s27.167 1 42.5 1c63.333 0 118 -8.33301 164 -25s84.167 -40.834 114.5 -72.501s52.833 -70.167 67.5 -115.5s22 -96.333 22 -153
c0 -64 -10 -121.333 -30 -172s-47.333 -93.334 -82 -128.001s-75.5 -61 -122.5 -79s-97.5 -26.333 -151.5 -25c-24 0.666992 -49.333 1.66699 -76 3s-56 2 -88 2h-66h-66v42zM229 64.002c20.667 -6 42.168 -10.1689 64.501 -12.502s46.166 -3.16602 71.499 -2.49902
c36 0.666992 70.167 7.83398 102.5 21.501s60.833 33.667 85.5 60s44.334 59.833 59.001 100.5s22 88.667 22 144c0 57.333 -7 107.333 -21 150s-33.833 77.834 -59.5 105.501s-56.834 48.167 -93.501 61.5s-78 19.333 -124 18c-13.333 0 -25 -0.333008 -35 -1
s-19 -1.33398 -27 -2.00098s-15.5 -1.5 -22.5 -2.5s-14.5 -2.16699 -22.5 -3.5v-276h126v-71h-126v-290z" />
    <glyph glyph-name="Ntilde" unicode="&#xd1;" horiz-adv-x="811" 
d="M211 854c6 11.333 14 22.1699 24 32.5029s21.167 19.166 33.5 26.499s25.333 13.333 39 18s26.834 7 39.501 7c16 0 29.333 -3.33301 40 -10s20.5 -13.834 29.5 -21.501s17.833 -14.667 26.5 -21s19 -9.5 31 -9.5c18.667 0 35.667 4 51 12s28.333 17.333 39 28l25 -36
c-6 -11.333 -14 -22 -24 -32s-21 -18.833 -33 -26.5s-24.833 -13.834 -38.5 -18.501s-26.834 -7 -39.501 -7c-10.667 0 -20 1.66699 -28 5s-15.5 7.33301 -22.5 12s-13.333 9.66699 -19 15s-11.5 10.5 -17.5 15.5s-12.167 9 -18.5 12s-13.5 4.5 -21.5 4.5
c-8.66699 0 -17.167 -1.16699 -25.5 -3.5s-16.5 -5.5 -24.5 -9.5s-15.5 -8.5 -22.5 -13.5s-12.833 -9.83301 -17.5 -14.5zM51 42.0039l83 14v641l-80 8v53h173l327 -534l69 -134v607l-80 9v52h231v-52l-81 -9v-697h-100l-322 508l-67 136v-588l95 -14v-42h-248v42z" />
    <glyph glyph-name="Ograve" unicode="&#xd2;" horiz-adv-x="758" 
d="M391 785c-15.333 2.66699 -31.166 6.49902 -47.499 11.499s-32.833 10.833 -49.5 17.5s-33.334 14.334 -50.001 23.001s-32.667 18 -48 28l72 73l149 -127zM44 366.999c1.33301 62 11.3301 117.502 29.9971 166.502s43.834 90.333 75.501 124s68.334 59.667 110.001 78
s86.167 28.166 133.5 29.499c50.667 1.33301 96.334 -7.33398 137.001 -26.001s75 -45 103 -79s49.333 -74.5 64 -121.5s21.667 -98.167 21 -153.5c-1.33301 -62 -11 -117.5 -29 -166.5s-42.333 -90.667 -73 -125s-66.5 -60.5 -107.5 -78.5s-84.5 -27.667 -130.5 -29
c-51.333 -0.666992 -97.833 8.33301 -139.5 27s-77.167 45.167 -106.5 79.5s-51.5 74.833 -66.5 121.5s-22.167 97.667 -21.5 153zM385.997 38.001c36 0 68 7.83301 96 23.5s51.667 38.334 71 68.001s34 66 44 109s15 91.5 15 145.5c0 28 -2.16699 55.833 -6.5 83.5
s-10.833 53.667 -19.5 78s-19.334 46.833 -32.001 67.5s-27.5 38.334 -44.5 53.001s-36 26.167 -57 34.5s-43.833 12.5 -68.5 12.5c-36 0 -68.333 -7.66699 -97 -23s-53.167 -37.833 -73.5 -67.5s-36.166 -66 -47.499 -109s-17 -91.5 -17 -145.5
c0 -42.667 5.33301 -83.834 16 -123.501s26.167 -74.834 46.5 -105.501s45 -55.167 74 -73.5s62.5 -27.5 100.5 -27.5z" />
    <glyph glyph-name="Oacute" unicode="&#xd3;" horiz-adv-x="758" 
d="M355 811l150 127.001l71 -73c-15.333 -10 -31.166 -19.333 -47.499 -28s-32.833 -16.334 -49.5 -23.001s-33.334 -12.5 -50.001 -17.5s-32.667 -8.83301 -48 -11.5zM44 367.001c1.33301 62 11.3301 117.502 29.9971 166.502s43.834 90.333 75.501 124
s68.334 59.667 110.001 78s86.167 28.166 133.5 29.499c50.667 1.33301 96.334 -7.33398 137.001 -26.001s75 -45 103 -79s49.333 -74.5 64 -121.5s21.667 -98.167 21 -153.5c-1.33301 -62 -11 -117.5 -29 -166.5s-42.333 -90.667 -73 -125s-66.5 -60.5 -107.5 -78.5
s-84.5 -27.667 -130.5 -29c-51.333 -0.666992 -97.833 8.33301 -139.5 27s-77.167 45.167 -106.5 79.5s-51.5 74.833 -66.5 121.5s-22.167 97.667 -21.5 153zM385.997 38.0029c36 0 68 7.83301 96 23.5s51.667 38.334 71 68.001s34 66 44 109s15 91.5 15 145.5
c0 28 -2.16699 55.833 -6.5 83.5s-10.833 53.667 -19.5 78s-19.334 46.833 -32.001 67.5s-27.5 38.334 -44.5 53.001s-36 26.167 -57 34.5s-43.833 12.5 -68.5 12.5c-36 0 -68.333 -7.66699 -97 -23s-53.167 -37.833 -73.5 -67.5s-36.166 -66 -47.499 -109
s-17 -91.5 -17 -145.5c0 -42.667 5.33301 -83.834 16 -123.501s26.167 -74.834 46.5 -105.501s45 -55.167 74 -73.5s62.5 -27.5 100.5 -27.5z" />
    <glyph glyph-name="Ocircumflex" unicode="&#xd4;" horiz-adv-x="758" 
d="M216 812l123 126h93l125 -125l-42 -24l-129 82l-132 -82zM44 367c1.33301 62 11.3301 117.502 29.9971 166.502s43.834 90.333 75.501 124s68.334 59.667 110.001 78s86.167 28.166 133.5 29.499c50.667 1.33301 96.334 -7.33398 137.001 -26.001s75 -45 103 -79
s49.333 -74.5 64 -121.5s21.667 -98.167 21 -153.5c-1.33301 -62 -11 -117.5 -29 -166.5s-42.333 -90.667 -73 -125s-66.5 -60.5 -107.5 -78.5s-84.5 -27.667 -130.5 -29c-51.333 -0.666992 -97.833 8.33301 -139.5 27s-77.167 45.167 -106.5 79.5s-51.5 74.833 -66.5 121.5
s-22.167 97.667 -21.5 153zM385.997 38.002c36 0 68 7.83301 96 23.5s51.667 38.334 71 68.001s34 66 44 109s15 91.5 15 145.5c0 28 -2.16699 55.833 -6.5 83.5s-10.833 53.667 -19.5 78s-19.334 46.833 -32.001 67.5s-27.5 38.334 -44.5 53.001s-36 26.167 -57 34.5
s-43.833 12.5 -68.5 12.5c-36 0 -68.333 -7.66699 -97 -23s-53.167 -37.833 -73.5 -67.5s-36.166 -66 -47.499 -109s-17 -91.5 -17 -145.5c0 -42.667 5.33301 -83.834 16 -123.501s26.167 -74.834 46.5 -105.501s45 -55.167 74 -73.5s62.5 -27.5 100.5 -27.5z" />
    <glyph glyph-name="Otilde" unicode="&#xd5;" horiz-adv-x="758" 
d="M191 854c6 11.333 14 22.1699 24 32.5029s21.167 19.166 33.5 26.499s25.333 13.333 39 18s26.834 7 39.501 7c16 0 29.333 -3.33301 40 -10s20.5 -13.834 29.5 -21.501s17.833 -14.667 26.5 -21s19 -9.5 31 -9.5c18.667 0 35.667 4 51 12s28.333 17.333 39 28l25 -36
c-6 -11.333 -14 -22 -24 -32s-21 -18.833 -33 -26.5s-24.833 -13.834 -38.5 -18.501s-26.834 -7 -39.501 -7c-10.667 0 -20 1.66699 -28 5s-15.5 7.33301 -22.5 12s-13.333 9.66699 -19 15s-11.5 10.5 -17.5 15.5s-12.167 9 -18.5 12s-13.5 4.5 -21.5 4.5
c-8.66699 0 -17.167 -1.16699 -25.5 -3.5s-16.5 -5.5 -24.5 -9.5s-15.5 -8.5 -22.5 -13.5s-12.833 -9.83301 -17.5 -14.5zM44 367.004c1.33301 62 11.3301 117.502 29.9971 166.502s43.834 90.333 75.501 124s68.334 59.667 110.001 78s86.167 28.166 133.5 29.499
c50.667 1.33301 96.334 -7.33398 137.001 -26.001s75 -45 103 -79s49.333 -74.5 64 -121.5s21.667 -98.167 21 -153.5c-1.33301 -62 -11 -117.5 -29 -166.5s-42.333 -90.667 -73 -125s-66.5 -60.5 -107.5 -78.5s-84.5 -27.667 -130.5 -29
c-51.333 -0.666992 -97.833 8.33301 -139.5 27s-77.167 45.167 -106.5 79.5s-51.5 74.833 -66.5 121.5s-22.167 97.667 -21.5 153zM385.997 38.0059c36 0 68 7.83301 96 23.5s51.667 38.334 71 68.001s34 66 44 109s15 91.5 15 145.5c0 28 -2.16699 55.833 -6.5 83.5
s-10.833 53.667 -19.5 78s-19.334 46.833 -32.001 67.5s-27.5 38.334 -44.5 53.001s-36 26.167 -57 34.5s-43.833 12.5 -68.5 12.5c-36 0 -68.333 -7.66699 -97 -23s-53.167 -37.833 -73.5 -67.5s-36.166 -66 -47.499 -109s-17 -91.5 -17 -145.5
c0 -42.667 5.33301 -83.834 16 -123.501s26.167 -74.834 46.5 -105.501s45 -55.167 74 -73.5s62.5 -27.5 100.5 -27.5z" />
    <glyph glyph-name="Odieresis" unicode="&#xd6;" horiz-adv-x="758" 
d="M493 806c-8 0 -15.832 1.33496 -23.499 4.00195s-14.334 6.66699 -20.001 12s-10.167 11.666 -13.5 18.999s-5 15.666 -5 24.999c0 10 2.16699 19.5 6.5 28.5s10 16.667 17 23s14.833 11.333 23.5 15s17.334 5.5 26.001 5.5c21.333 0 37 -6 47 -18s15 -26.333 15 -43
c0 -10.667 -2.16699 -20.5 -6.5 -29.5s-9.83301 -16.5 -16.5 -22.5s-14.334 -10.667 -23.001 -14s-17.667 -5 -27 -5zM265.001 806.002c-8 0 -15.6689 1.33496 -23.002 4.00195s-13.833 6.66699 -19.5 12s-10.167 11.666 -13.5 18.999s-5 15.666 -5 24.999
c0 10 2.16699 19.5 6.5 28.5s9.83301 16.667 16.5 23s14.334 11.333 23.001 15s17.334 5.5 26.001 5.5c21.333 0 37 -6 47 -18s15 -26.333 15 -43c0 -10.667 -2 -20.5 -6 -29.5s-9.5 -16.5 -16.5 -22.5s-14.833 -10.667 -23.5 -14s-17.667 -5 -27 -5zM43.999 367.004
c1.33301 62 11.3301 117.502 29.9971 166.502s43.834 90.333 75.501 124s68.334 59.667 110.001 78s86.167 28.166 133.5 29.499c50.667 1.33301 96.334 -7.33398 137.001 -26.001s75 -45 103 -79s49.333 -74.5 64 -121.5s21.667 -98.167 21 -153.5
c-1.33301 -62 -11 -117.5 -29 -166.5s-42.333 -90.667 -73 -125s-66.5 -60.5 -107.5 -78.5s-84.5 -27.667 -130.5 -29c-51.333 -0.666992 -97.833 8.33301 -139.5 27s-77.167 45.167 -106.5 79.5s-51.5 74.833 -66.5 121.5s-22.167 97.667 -21.5 153zM385.996 38.0059
c36 0 68 7.83301 96 23.5s51.667 38.334 71 68.001s34 66 44 109s15 91.5 15 145.5c0 28 -2.16699 55.833 -6.5 83.5s-10.833 53.667 -19.5 78s-19.334 46.833 -32.001 67.5s-27.5 38.334 -44.5 53.001s-36 26.167 -57 34.5s-43.833 12.5 -68.5 12.5
c-36 0 -68.333 -7.66699 -97 -23s-53.167 -37.833 -73.5 -67.5s-36.166 -66 -47.499 -109s-17 -91.5 -17 -145.5c0 -42.667 5.33301 -83.834 16 -123.501s26.167 -74.834 46.5 -105.501s45 -55.167 74 -73.5s62.5 -27.5 100.5 -27.5z" />
    <glyph glyph-name="multiply" unicode="&#xd7;" horiz-adv-x="605" 
d="M87 229l167 159l-167 160l57 60l159 -171l158 171l58 -60l-167 -160l167 -159l-58 -61l-158 171l-159 -171z" />
    <glyph glyph-name="Oslash" unicode="&#xd8;" horiz-adv-x="758" 
d="M247 9c-32 13.333 -60.832 31.5 -86.499 54.5s-47.334 49.833 -65.001 80.5s-31 65 -40 103s-12.833 78 -11.5 120c1.33301 62 11.333 117.5 30 166.5s43.834 90.333 75.501 124s68.334 59.667 110.001 78s86.167 28.166 133.5 29.499
c20.667 0.666992 40.167 -0.5 58.5 -3.5s36.166 -7.16699 53.499 -12.5l28 78l40 -17l-27 -79c28 -14.667 52.667 -33.5 74 -56.5s39.5 -49.5 54.5 -79.5s26.167 -62.667 33.5 -98s10.666 -72.666 9.99902 -111.999c-1.33301 -62 -11 -117.5 -29 -166.5
s-42.333 -90.667 -73 -125s-66.5 -60.5 -107.5 -78.5s-84.5 -27.667 -130.5 -29c-30.667 -0.666992 -59.667 2.33301 -87 9l-32 -92l-43 16zM482.001 686c-14 8.66699 -29.167 15.332 -45.5 19.999s-33.833 7 -52.5 7c-36 0 -68.333 -7.66699 -97 -23
s-53.167 -37.833 -73.5 -67.5s-36.166 -66 -47.499 -109s-17 -91.5 -17 -145.5c0 -30 2.83301 -59.667 8.5 -89s13.5 -56.666 23.5 -81.999s22.667 -48.5 38 -69.5s32.666 -38.833 51.999 -53.5zM312.001 51.998c22.667 -9.33301 47.334 -13.999 74.001 -13.999
c36 0 68 7.83301 96 23.5s51.667 38.334 71 68.001s34 66 44 109s15 91.5 15 145.5c0 27.333 -2 54 -6 80s-9.83301 50.667 -17.5 74s-17.334 45.166 -29.001 65.499s-25.167 38.166 -40.5 53.499z" />
    <glyph glyph-name="Ugrave" unicode="&#xd9;" horiz-adv-x="769" 
d="M407 785c-15.333 2.66699 -31.333 6.49902 -48 11.499s-33.334 10.833 -50.001 17.5s-33.167 14.334 -49.5 23.001s-32.166 18 -47.499 28l71 73l150 -127zM93 322.999c0 63.333 0.166016 126.332 0.499023 188.999s0.5 126 0.5 190l-78 8v48h260v-48l-87 -9v-381
c0 -55.333 5.5 -101.166 16.5 -137.499s26.333 -65.333 46 -87s43 -36.834 70 -45.501s56.5 -13 88.5 -13c34 0 63.333 6.83301 88 20.5s44.834 33.334 60.501 59.001s27.167 57 34.5 94s11 78.5 11 124.5v366l-89 9v48h239v-48l-77 -9v-366
c0 -61.333 -6.83301 -113.833 -20.5 -157.5s-33 -79.667 -58 -108s-55 -49.333 -90 -63s-73.167 -20.5 -114.5 -20.5c-55.333 0 -102.166 7.33301 -140.499 22s-69.333 36.167 -93 64.5s-40.834 63.333 -51.501 105s-16 90.167 -16 145.5z" />
    <glyph glyph-name="Uacute" unicode="&#xda;" horiz-adv-x="769" 
d="M371 811l150 127.001l71 -73c-15.333 -10 -31.166 -19.333 -47.499 -28s-33 -16.334 -50 -23.001s-33.833 -12.5 -50.5 -17.5s-32.334 -8.83301 -47.001 -11.5zM93 323.001c0 63.333 0.166016 126.332 0.499023 188.999s0.5 126 0.5 190l-78 8v48h260v-48l-87 -9v-381
c0 -55.333 5.5 -101.166 16.5 -137.499s26.333 -65.333 46 -87s43 -36.834 70 -45.501s56.5 -13 88.5 -13c34 0 63.333 6.83301 88 20.5s44.834 33.334 60.501 59.001s27.167 57 34.5 94s11 78.5 11 124.5v366l-89 9v48h239v-48l-77 -9v-366
c0 -61.333 -6.83301 -113.833 -20.5 -157.5s-33 -79.667 -58 -108s-55 -49.333 -90 -63s-73.167 -20.5 -114.5 -20.5c-55.333 0 -102.166 7.33301 -140.499 22s-69.333 36.167 -93 64.5s-40.834 63.333 -51.501 105s-16 90.167 -16 145.5z" />
    <glyph glyph-name="Ucircumflex" unicode="&#xdb;" horiz-adv-x="769" 
d="M231 812l124 126h92l126 -125l-43 -24l-129 82l-131 -82zM93 323c0 63.333 0.166016 126.332 0.499023 188.999s0.5 126 0.5 190l-78 8v48h260v-48l-87 -9v-381c0 -55.333 5.5 -101.166 16.5 -137.499s26.333 -65.333 46 -87s43 -36.834 70 -45.501s56.5 -13 88.5 -13
c34 0 63.333 6.83301 88 20.5s44.834 33.334 60.501 59.001s27.167 57 34.5 94s11 78.5 11 124.5v366l-89 9v48h239v-48l-77 -9v-366c0 -61.333 -6.83301 -113.833 -20.5 -157.5s-33 -79.667 -58 -108s-55 -49.333 -90 -63s-73.167 -20.5 -114.5 -20.5
c-55.333 0 -102.166 7.33301 -140.499 22s-69.333 36.167 -93 64.5s-40.834 63.333 -51.501 105s-16 90.167 -16 145.5z" />
    <glyph glyph-name="Udieresis" unicode="&#xdc;" horiz-adv-x="769" 
d="M508 806c-8 0 -15.668 1.33496 -23.001 4.00195s-13.833 6.66699 -19.5 12s-10.167 11.666 -13.5 18.999s-5 15.666 -5 24.999c0 10 2.16699 19.5 6.5 28.5s9.83301 16.667 16.5 23s14.334 11.333 23.001 15s17.667 5.5 27 5.5c21.333 0 37 -6 47 -18s15 -26.333 15 -43
c0 -10.667 -2.16699 -20.5 -6.5 -29.5s-10 -16.5 -17 -22.5s-14.833 -10.667 -23.5 -14s-17.667 -5 -27 -5zM280.999 806.002c-8 0 -15.667 1.33496 -23 4.00195s-14 6.66699 -20 12s-10.667 11.666 -14 18.999s-5 15.666 -5 24.999c0 10 2.16699 19.5 6.5 28.5
s10 16.667 17 23s14.833 11.333 23.5 15s17.334 5.5 26.001 5.5c21.333 0 37 -6 47 -18s15 -26.333 15 -43c0 -10.667 -2.16699 -20.5 -6.5 -29.5s-9.83301 -16.5 -16.5 -22.5s-14.334 -10.667 -23.001 -14s-17.667 -5 -27 -5zM92.999 323.004
c0 63.333 0.166016 126.332 0.499023 188.999s0.5 126 0.5 190l-78 8v48h260v-48l-87 -9v-381c0 -55.333 5.5 -101.166 16.5 -137.499s26.333 -65.333 46 -87s43 -36.834 70 -45.501s56.5 -13 88.5 -13c34 0 63.333 6.83301 88 20.5s44.834 33.334 60.501 59.001
s27.167 57 34.5 94s11 78.5 11 124.5v366l-89 9v48h239v-48l-77 -9v-366c0 -61.333 -6.83301 -113.833 -20.5 -157.5s-33 -79.667 -58 -108s-55 -49.333 -90 -63s-73.167 -20.5 -114.5 -20.5c-55.333 0 -102.166 7.33301 -140.499 22s-69.333 36.167 -93 64.5
s-40.834 63.333 -51.501 105s-16 90.167 -16 145.5z" />
    <glyph glyph-name="Yacute" unicode="&#xdd;" horiz-adv-x="660" 
d="M316 811l150 127.001l71 -73c-15.333 -10 -31.166 -19.333 -47.499 -28s-32.833 -16.334 -49.5 -23.001s-33.334 -12.5 -50.001 -17.5s-32.667 -8.83301 -48 -11.5zM196 42.001l100 15v255l-234 390l-56 8v48h240v-48l-75 -8l155 -289l24 -50l22 51l140 287l-83 9v48h225
v-48l-64 -13l-199 -386v-254l105 -15v-42h-300v42z" />
    <glyph glyph-name="Thorn" unicode="&#xde;" horiz-adv-x="632" 
d="M42 42l92.0029 13.9971v646l-85 8v48h265v-48l-85 -8v-101c18.667 2 39.167 4.33301 61.5 7s44.166 4 65.499 4c37.333 0 71.666 -4.33301 102.999 -13s58.166 -21.667 80.499 -39s39.833 -39.166 52.5 -65.499s19 -57.166 19 -92.499
c0 -26.667 -3.66699 -51.334 -11 -74.001s-17.5 -43 -30.5 -61s-28.5 -33.833 -46.5 -47.5s-37.333 -25.167 -58 -34.5s-42.667 -16.166 -66 -20.499s-47 -6.16602 -71 -5.49902c-24.667 0.666992 -44.667 1 -60 1s-28.333 0.333008 -39 1v-105l131 -14v-42h-318v42z
M229.003 213.997c18.667 -2.66699 36.002 -4.33398 52.002 -5.00098s31.333 -1 46 -1c23.333 0 46.166 2.83301 68.499 8.5s42.333 15.667 60 30s31.834 33.833 42.501 58.5s16 56.334 16 95.001c0 25.333 -4.33301 48 -13 68s-21.334 37 -38.001 51s-37 24.333 -61 31
s-51.667 9.33398 -83 8.00098c-16 -0.666992 -31.333 -2.33398 -46 -5.00098s-29.334 -5.66699 -44.001 -9v-330z" />
    <glyph glyph-name="germandbls" unicode="&#xdf;" horiz-adv-x="651" 
d="M33 42l77.9971 14.9961v372c0 59.333 7.33301 110.833 22 154.5s34.167 79.667 58.5 108s52.333 49.333 84 63s64.5 20.5 98.5 20.5c18.667 0 37.167 -2.16699 55.5 -6.5s34.666 -12 48.999 -23s25.833 -25.833 34.5 -44.5s13 -42 13 -70c0 -20 -2.33301 -37.667 -7 -53
s-10.667 -29.333 -18 -42s-15.166 -24.5 -23.499 -35.5s-16.166 -22 -23.499 -33s-13.333 -22.5 -18 -34.5s-7 -25.333 -7 -40c0 -12.667 3 -23.667 9 -33s13.833 -17.833 23.5 -25.5s20.834 -14.834 33.501 -21.501s25.5 -13.5 38.5 -20.5s25.833 -14.667 38.5 -23
s24 -18 34 -29s18 -23.667 24 -38s9 -31.5 9 -51.5c0 -28.667 -5.66699 -53.167 -17 -73.5s-26.166 -37 -44.499 -50s-39.666 -22.5 -63.999 -28.5s-49.833 -9 -76.5 -9c-14 0 -30.667 0.333008 -50 1s-38.666 3.33398 -57.999 8.00098v84
c6 -3.33301 13.667 -7.16602 23 -11.499s19.166 -8.5 29.499 -12.5s21 -7.5 32 -10.5s21.167 -4.5 30.5 -4.5c13.333 0 26.166 1.33301 38.499 4s23.5 7.5 33.5 14.5s18 16.333 24 28s9 26.5 9 44.5c0 12.667 -3 23.834 -9 33.501s-14 18.5 -24 26.5
s-21.167 15.5 -33.5 22.5s-25.166 13.833 -38.499 20.5s-26.166 13.834 -38.499 21.501s-23.5 16 -33.5 25s-18 19.333 -24 31s-9 25.167 -9 40.5c0 11.333 2.5 22.833 7.5 34.5s11.333 23.834 19 36.501s16 25.667 25 39s17.333 27.166 25 41.499s14 29 19 44
s7.5 30.5 7.5 46.5s-1.83301 31.333 -5.5 46s-9.33398 27.334 -17.001 38.001s-17.334 19.167 -29.001 25.5s-25.834 9.5 -42.501 9.5c-26.667 0 -49.167 -4.83301 -67.5 -14.5s-33.166 -25.667 -44.499 -48s-19.5 -52 -24.5 -89s-7.5 -82.5 -7.5 -136.5v-429h-171v42z" />
    <glyph glyph-name="agrave" unicode="&#xe0;" horiz-adv-x="559" 
d="M348 654c-13.333 6 -29 14 -47 24s-35.833 21.333 -53.5 34s-34.5 26.167 -50.5 40.5s-28.667 28.833 -38 43.5l71 73l144 -188zM58 157c2 22.667 9.1748 42.6689 21.5078 60.002s27.666 32.166 45.999 44.499s38.666 22.5 60.999 30.5s44.666 14.5 66.999 19.5
s44 8.5 65 10.5s39.167 3 54.5 3v42c0 26 -3.5 47 -10.5 63s-16.5 28.5 -28.5 37.5s-26.167 15.167 -42.5 18.5s-33.833 5 -52.5 5c-9.33301 0 -20 -0.833008 -32 -2.5s-24.167 -4.16699 -36.5 -7.5s-24.833 -7.33301 -37.5 -12s-24.667 -9.66699 -36 -15l-18 44
c12 10 26.667 18.667 44 26s35.166 13.333 53.499 18s36.166 8.16699 53.499 10.5s32.333 3.5 45 3.5c26 0 50.5 -2.66699 73.5 -8s43.333 -14.666 61 -27.999s31.667 -31.5 42 -54.5s15.5 -52.5 15.5 -88.5l-1 -335h62v-33c-11.333 -6 -25.333 -11 -42 -15
s-33.334 -6 -50.001 -6c-6 0 -12.5 0.5 -19.5 1.5s-13.333 3 -19 6s-10.334 8 -14.001 15s-5.5 16.5 -5.5 28.5v14c-7.33301 -9.33301 -16.166 -17.833 -26.499 -25.5s-22.166 -14.5 -35.499 -20.5s-28.333 -10.667 -45 -14s-35.334 -5 -56.001 -5
c-25.333 0 -48.333 4.66699 -69 14s-37.834 21.666 -51.501 36.999s-23.834 33.166 -30.501 53.499s-8.66699 41.833 -6 64.5zM152.008 155.002c0 -19.333 2.66504 -35.667 7.99805 -49s13 -24 23 -32s22.167 -14 36.5 -18s30.5 -6 48.5 -6c10 0 19.833 1.33301 29.5 4
s19.167 6 28.5 10s18 8.5 26 13.5s14.667 9.83301 20 14.5v91.5c0 30.333 0.333008 60.5 1 90.5c-14 0 -29.167 -0.666992 -45.5 -2s-32.666 -3.83301 -48.999 -7.5s-32.166 -8.33398 -47.499 -14.001s-28.833 -13 -40.5 -22s-21 -19.667 -28 -32
s-10.5 -26.166 -10.5 -41.499z" />
    <glyph glyph-name="aacute" unicode="&#xe1;" horiz-adv-x="559" 
d="M216 681l144 188.002l71 -73c-10 -14.667 -22.833 -29.167 -38.5 -43.5s-32.5 -27.833 -50.5 -40.5s-35.833 -23.834 -53.5 -33.501s-33.167 -17.834 -46.5 -24.501zM58 157.002c2 22.667 9.1748 42.6689 21.5078 60.002s27.666 32.166 45.999 44.499
s38.666 22.5 60.999 30.5s44.666 14.5 66.999 19.5s44 8.5 65 10.5s39.167 3 54.5 3v42c0 26 -3.5 47 -10.5 63s-16.5 28.5 -28.5 37.5s-26.167 15.167 -42.5 18.5s-33.833 5 -52.5 5c-9.33301 0 -20 -0.833008 -32 -2.5s-24.167 -4.16699 -36.5 -7.5
s-24.833 -7.33301 -37.5 -12s-24.667 -9.66699 -36 -15l-18 44c12 10 26.667 18.667 44 26s35.166 13.333 53.499 18s36.166 8.16699 53.499 10.5s32.333 3.5 45 3.5c26 0 50.5 -2.66699 73.5 -8s43.333 -14.666 61 -27.999s31.667 -31.5 42 -54.5s15.5 -52.5 15.5 -88.5
l-1 -335h62v-33c-11.333 -6 -25.333 -11 -42 -15s-33.334 -6 -50.001 -6c-6 0 -12.5 0.5 -19.5 1.5s-13.333 3 -19 6s-10.334 8 -14.001 15s-5.5 16.5 -5.5 28.5v14c-7.33301 -9.33301 -16.166 -17.833 -26.499 -25.5s-22.166 -14.5 -35.499 -20.5s-28.333 -10.667 -45 -14
s-35.334 -5 -56.001 -5c-25.333 0 -48.333 4.66699 -69 14s-37.834 21.666 -51.501 36.999s-23.834 33.166 -30.501 53.499s-8.66699 41.833 -6 64.5zM152.008 155.004c0 -19.333 2.66504 -35.667 7.99805 -49s13 -24 23 -32s22.167 -14 36.5 -18s30.5 -6 48.5 -6
c10 0 19.833 1.33301 29.5 4s19.167 6 28.5 10s18 8.5 26 13.5s14.667 9.83301 20 14.5v91.5c0 30.333 0.333008 60.5 1 90.5c-14 0 -29.167 -0.666992 -45.5 -2s-32.666 -3.83301 -48.999 -7.5s-32.166 -8.33398 -47.499 -14.001s-28.833 -13 -40.5 -22
s-21 -19.667 -28 -32s-10.5 -26.166 -10.5 -41.499z" />
    <glyph glyph-name="acircumflex" unicode="&#xe2;" horiz-adv-x="559" 
d="M108 674l133 193h92l128 -192l-41 -23l-133 131l-142 -131zM58 157c2 22.667 9.1748 42.6689 21.5078 60.002s27.666 32.166 45.999 44.499s38.666 22.5 60.999 30.5s44.666 14.5 66.999 19.5s44 8.5 65 10.5s39.167 3 54.5 3v42c0 26 -3.5 47 -10.5 63
s-16.5 28.5 -28.5 37.5s-26.167 15.167 -42.5 18.5s-33.833 5 -52.5 5c-9.33301 0 -20 -0.833008 -32 -2.5s-24.167 -4.16699 -36.5 -7.5s-24.833 -7.33301 -37.5 -12s-24.667 -9.66699 -36 -15l-18 44c12 10 26.667 18.667 44 26s35.166 13.333 53.499 18
s36.166 8.16699 53.499 10.5s32.333 3.5 45 3.5c26 0 50.5 -2.66699 73.5 -8s43.333 -14.666 61 -27.999s31.667 -31.5 42 -54.5s15.5 -52.5 15.5 -88.5l-1 -335h62v-33c-11.333 -6 -25.333 -11 -42 -15s-33.334 -6 -50.001 -6c-6 0 -12.5 0.5 -19.5 1.5s-13.333 3 -19 6
s-10.334 8 -14.001 15s-5.5 16.5 -5.5 28.5v14c-7.33301 -9.33301 -16.166 -17.833 -26.499 -25.5s-22.166 -14.5 -35.499 -20.5s-28.333 -10.667 -45 -14s-35.334 -5 -56.001 -5c-25.333 0 -48.333 4.66699 -69 14s-37.834 21.666 -51.501 36.999
s-23.834 33.166 -30.501 53.499s-8.66699 41.833 -6 64.5zM152.008 155.002c0 -19.333 2.66504 -35.667 7.99805 -49s13 -24 23 -32s22.167 -14 36.5 -18s30.5 -6 48.5 -6c10 0 19.833 1.33301 29.5 4s19.167 6 28.5 10s18 8.5 26 13.5s14.667 9.83301 20 14.5v91.5
c0 30.333 0.333008 60.5 1 90.5c-14 0 -29.167 -0.666992 -45.5 -2s-32.666 -3.83301 -48.999 -7.5s-32.166 -8.33398 -47.499 -14.001s-28.833 -13 -40.5 -22s-21 -19.667 -28 -32s-10.5 -26.166 -10.5 -41.499z" />
    <glyph glyph-name="atilde" unicode="&#xe3;" horiz-adv-x="559" 
d="M92 728c6 11.333 14.0049 22.0029 24.0049 32.0029s21.167 19 33.5 27s25.166 14.333 38.499 19s26.666 7 39.999 7c16 0 29.333 -3.5 40 -10.5s20.5 -14.5 29.5 -22.5s17.833 -15.5 26.5 -22.5s18.667 -10.5 30 -10.5c9.33301 0 18.5 1.5 27.5 4.5
s17.167 6.83301 24.5 11.5s14.333 9.66699 21 15s12.667 10.333 18 15l25 -35c-6 -11.333 -14 -22.333 -24 -33s-21 -19.834 -33 -27.501s-24.833 -13.834 -38.5 -18.501s-26.834 -7 -39.501 -7c-10.667 0 -20.167 1.66699 -28.5 5s-15.833 7.33301 -22.5 12
s-12.834 10 -18.501 16s-11.5 11.5 -17.5 16.5s-12.167 9 -18.5 12s-13.5 4.5 -21.5 4.5c-9.33301 0 -18.5 -1.5 -27.5 -4.5s-17.167 -6.66699 -24.5 -11s-14.333 -9.33301 -21 -15s-12.334 -10.834 -17.001 -15.501zM58.0049 157.003
c2 22.667 9.1748 42.6689 21.5078 60.002s27.666 32.166 45.999 44.499s38.666 22.5 60.999 30.5s44.666 14.5 66.999 19.5s44 8.5 65 10.5s39.167 3 54.5 3v42c0 26 -3.5 47 -10.5 63s-16.5 28.5 -28.5 37.5s-26.167 15.167 -42.5 18.5s-33.833 5 -52.5 5
c-9.33301 0 -20 -0.833008 -32 -2.5s-24.167 -4.16699 -36.5 -7.5s-24.833 -7.33301 -37.5 -12s-24.667 -9.66699 -36 -15l-18 44c12 10 26.667 18.667 44 26s35.166 13.333 53.499 18s36.166 8.16699 53.499 10.5s32.333 3.5 45 3.5c26 0 50.5 -2.66699 73.5 -8
s43.333 -14.666 61 -27.999s31.667 -31.5 42 -54.5s15.5 -52.5 15.5 -88.5l-1 -335h62v-33c-11.333 -6 -25.333 -11 -42 -15s-33.334 -6 -50.001 -6c-6 0 -12.5 0.5 -19.5 1.5s-13.333 3 -19 6s-10.334 8 -14.001 15s-5.5 16.5 -5.5 28.5v14
c-7.33301 -9.33301 -16.166 -17.833 -26.499 -25.5s-22.166 -14.5 -35.499 -20.5s-28.333 -10.667 -45 -14s-35.334 -5 -56.001 -5c-25.333 0 -48.333 4.66699 -69 14s-37.834 21.666 -51.501 36.999s-23.834 33.166 -30.501 53.499s-8.66699 41.833 -6 64.5z
M152.013 155.005c0 -19.333 2.66504 -35.667 7.99805 -49s13 -24 23 -32s22.167 -14 36.5 -18s30.5 -6 48.5 -6c10 0 19.833 1.33301 29.5 4s19.167 6 28.5 10s18 8.5 26 13.5s14.667 9.83301 20 14.5v91.5c0 30.333 0.333008 60.5 1 90.5c-14 0 -29.167 -0.666992 -45.5 -2
s-32.666 -3.83301 -48.999 -7.5s-32.166 -8.33398 -47.499 -14.001s-28.833 -13 -40.5 -22s-21 -19.667 -28 -32s-10.5 -26.166 -10.5 -41.499z" />
    <glyph glyph-name="adieresis" unicode="&#xe4;" horiz-adv-x="559" 
d="M395 675c-8 0 -15.668 1.33594 -23.001 4.00293s-13.833 6.33398 -19.5 11.001s-10.167 10.667 -13.5 18s-5 15.666 -5 24.999c0 10 2.16699 19.333 6.5 28s9.83301 16.167 16.5 22.5s14.334 11.333 23.001 15s17.334 5.5 26.001 5.5c21.333 0 37 -5.83301 47 -17.5
s15 -25.834 15 -42.501c0 -10.667 -2.16699 -20.334 -6.5 -29.001s-9.83301 -15.834 -16.5 -21.501s-14.334 -10.167 -23.001 -13.5s-17.667 -5 -27 -5zM166.999 675.003c-8 0 -15.667 1.33594 -23 4.00293s-13.833 6.33398 -19.5 11.001s-10.167 10.667 -13.5 18
s-5 15.666 -5 24.999c0 10 2.16699 19.333 6.5 28s10 16.167 17 22.5s14.667 11.333 23 15s16.833 5.5 25.5 5.5c21.333 0 37 -5.83301 47 -17.5s15 -25.834 15 -42.501c0 -10.667 -2 -20.334 -6 -29.001s-9.5 -15.834 -16.5 -21.501s-14.833 -10.167 -23.5 -13.5
s-17.667 -5 -27 -5zM57.999 157.006c2 22.667 9.1748 42.6689 21.5078 60.002s27.666 32.166 45.999 44.499s38.666 22.5 60.999 30.5s44.666 14.5 66.999 19.5s44 8.5 65 10.5s39.167 3 54.5 3v42c0 26 -3.5 47 -10.5 63s-16.5 28.5 -28.5 37.5s-26.167 15.167 -42.5 18.5
s-33.833 5 -52.5 5c-9.33301 0 -20 -0.833008 -32 -2.5s-24.167 -4.16699 -36.5 -7.5s-24.833 -7.33301 -37.5 -12s-24.667 -9.66699 -36 -15l-18 44c12 10 26.667 18.667 44 26s35.166 13.333 53.499 18s36.166 8.16699 53.499 10.5s32.333 3.5 45 3.5
c26 0 50.5 -2.66699 73.5 -8s43.333 -14.666 61 -27.999s31.667 -31.5 42 -54.5s15.5 -52.5 15.5 -88.5l-1 -335h62v-33c-11.333 -6 -25.333 -11 -42 -15s-33.334 -6 -50.001 -6c-6 0 -12.5 0.5 -19.5 1.5s-13.333 3 -19 6s-10.334 8 -14.001 15s-5.5 16.5 -5.5 28.5v14
c-7.33301 -9.33301 -16.166 -17.833 -26.499 -25.5s-22.166 -14.5 -35.499 -20.5s-28.333 -10.667 -45 -14s-35.334 -5 -56.001 -5c-25.333 0 -48.333 4.66699 -69 14s-37.834 21.666 -51.501 36.999s-23.834 33.166 -30.501 53.499s-8.66699 41.833 -6 64.5z
M152.007 155.008c0 -19.333 2.66504 -35.667 7.99805 -49s13 -24 23 -32s22.167 -14 36.5 -18s30.5 -6 48.5 -6c10 0 19.833 1.33301 29.5 4s19.167 6 28.5 10s18 8.5 26 13.5s14.667 9.83301 20 14.5v91.5c0 30.333 0.333008 60.5 1 90.5c-14 0 -29.167 -0.666992 -45.5 -2
s-32.666 -3.83301 -48.999 -7.5s-32.166 -8.33398 -47.499 -14.001s-28.833 -13 -40.5 -22s-21 -19.667 -28 -32s-10.5 -26.166 -10.5 -41.499z" />
    <glyph glyph-name="aring" unicode="&#xe5;" horiz-adv-x="559" 
d="M271 645c-16.667 0 -32.334 2.99902 -47.001 8.99902s-27.667 14.333 -39 25s-20.333 23.167 -27 37.5s-10 29.5 -10 45.5s3.33301 31.333 10 46s15.667 27.167 27 37.5s24.333 18.666 39 24.999s30.334 9.5 47.001 9.5s32.5 -3.16699 47.5 -9.5
s28.167 -14.666 39.5 -24.999s20.333 -22.666 27 -36.999s10 -29.833 10 -46.5c0 -16 -3.33301 -31.167 -10 -45.5s-15.667 -26.833 -27 -37.5s-24.5 -19 -39.5 -25s-30.833 -9 -47.5 -9zM271 695.999c8.66699 0 17.167 1.83398 25.5 5.50098s15.333 8.33398 21 14.001
s10.167 12.5 13.5 20.5s5 16.333 5 25s-1.66699 17 -5 25s-7.83301 14.833 -13.5 20.5s-12.5 10.334 -20.5 14.001s-16.667 5.5 -26 5.5c-8.66699 0 -17 -1.83301 -25 -5.5s-14.833 -8.33398 -20.5 -14.001s-10.167 -12.5 -13.5 -20.5s-5 -16.333 -5 -25
c0 -9.33301 1.66699 -17.833 5 -25.5s7.83301 -14.334 13.5 -20.001s12.5 -10.334 20.5 -14.001s16.333 -5.5 25 -5.5zM58 157c2 22.667 9.1748 42.6689 21.5078 60.002s27.666 32.166 45.999 44.499s38.666 22.5 60.999 30.5s44.666 14.5 66.999 19.5s44 8.5 65 10.5
s39.167 3 54.5 3v42c0 26 -3.5 47 -10.5 63s-16.5 28.5 -28.5 37.5s-26.167 15.167 -42.5 18.5s-33.833 5 -52.5 5c-9.33301 0 -20 -0.833008 -32 -2.5s-24.167 -4.16699 -36.5 -7.5s-24.833 -7.33301 -37.5 -12s-24.667 -9.66699 -36 -15l-18 44c12 10 26.667 18.667 44 26
s35.166 13.333 53.499 18s36.166 8.16699 53.499 10.5s32.333 3.5 45 3.5c26 0 50.5 -2.66699 73.5 -8s43.333 -14.666 61 -27.999s31.667 -31.5 42 -54.5s15.5 -52.5 15.5 -88.5l-1 -335h62v-33c-11.333 -6 -25.333 -11 -42 -15s-33.334 -6 -50.001 -6
c-6 0 -12.5 0.5 -19.5 1.5s-13.333 3 -19 6s-10.334 8 -14.001 15s-5.5 16.5 -5.5 28.5v14c-7.33301 -9.33301 -16.166 -17.833 -26.499 -25.5s-22.166 -14.5 -35.499 -20.5s-28.333 -10.667 -45 -14s-35.334 -5 -56.001 -5c-25.333 0 -48.333 4.66699 -69 14
s-37.834 21.666 -51.501 36.999s-23.834 33.166 -30.501 53.499s-8.66699 41.833 -6 64.5zM152.008 155.002c0 -19.333 2.66504 -35.667 7.99805 -49s13 -24 23 -32s22.167 -14 36.5 -18s30.5 -6 48.5 -6c10 0 19.833 1.33301 29.5 4s19.167 6 28.5 10s18 8.5 26 13.5
s14.667 9.83301 20 14.5v91.5c0 30.333 0.333008 60.5 1 90.5c-14 0 -29.167 -0.666992 -45.5 -2s-32.666 -3.83301 -48.999 -7.5s-32.166 -8.33398 -47.499 -14.001s-28.833 -13 -40.5 -22s-21 -19.667 -28 -32s-10.5 -26.166 -10.5 -41.499z" />
    <glyph glyph-name="ae" unicode="&#xe6;" horiz-adv-x="878" 
d="M58 157c2 22.667 9.16992 42.6709 21.5029 60.0039s27.666 32.166 45.999 44.499s38.666 22.5 60.999 30.5s44.666 14.5 66.999 19.5s44 8.5 65 10.5s39.167 3 54.5 3v42c0 26 -3.5 47 -10.5 63s-16.5 28.5 -28.5 37.5s-26.167 15.167 -42.5 18.5s-33.833 5 -52.5 5
c-9.33301 0 -20 -0.833008 -32 -2.5s-24.167 -4.16699 -36.5 -7.5s-24.833 -7.33301 -37.5 -12s-24.667 -9.66699 -36 -15l-18 44c12 10 26.667 18.667 44 26s35.166 13.333 53.499 18s36.166 8.16699 53.499 10.5s32.333 3.5 45 3.5c18 0 35.667 -1.33301 53 -4
s33.333 -7 48 -13s28 -14 40 -24s22 -22.667 30 -38c24 26.667 52.667 47.334 86 62.001c33.333 14 70.333 21.667 111 23c28.667 0.666992 54.5 -3.33301 77.5 -12s42.667 -21.834 59 -39.501s29.166 -39.167 38.499 -64.5s14.333 -54.333 15 -87
c0.666992 -20.667 0.333984 -38.334 -0.999023 -53.001s-2.66602 -28 -3.99902 -40h-362c0.666992 -42 7 -76.667 19 -104s27.167 -49 45.5 -65s38.5 -27 60.5 -33s43.333 -9 64 -9c12.667 0 26.334 0.833008 41.001 2.5s28.834 3.83398 42.501 6.50098
s26.334 5.83398 38.001 9.50098s21.167 7.16699 28.5 10.5l18 -41c-9.33301 -8.66699 -21.833 -16.334 -37.5 -23.001s-32.834 -12.334 -51.501 -17.001s-38 -8.33398 -58 -11.001s-39.333 -4 -58 -4c-43.333 0 -80.833 7.83301 -112.5 23.5s-58.167 37.834 -79.5 66.501
c-9.33301 -13.333 -21.166 -25.333 -35.499 -36s-30.5 -20 -48.5 -28s-37.667 -14.333 -59 -19s-44 -7 -68 -7c-25.333 0 -48.333 4.66699 -69 14s-37.834 21.666 -51.501 36.999s-23.834 33.166 -30.501 53.499s-8.66699 41.833 -6 64.5zM734.003 324.004
c0.666992 16.667 0.833984 33.333 0.500977 50s-2.33301 32.5 -6 47.5s-9.16699 28.833 -16.5 41.5s-17 23 -29 31c-8.66699 5.33301 -18.334 9.33301 -29.001 12s-23 4 -37 4c-18 0 -35.5 -3.33301 -52.5 -10s-32.333 -17.5 -46 -32.5s-25 -34.333 -34 -58
s-14.833 -52.167 -17.5 -85.5h267zM152.003 155.003c0 -19.333 2.66504 -35.667 7.99805 -49s13 -24 23 -32s22.167 -14 36.5 -18s30.5 -6 48.5 -6c10 0 19.833 1.33301 29.5 4s19.167 6 28.5 10s18 8.5 26 13.5s14.667 9.83301 20 14.5v91.5c0 30.333 0.333008 60.5 1 90.5
c-14 0 -29.167 -0.666992 -45.5 -2s-32.666 -3.83301 -48.999 -7.5s-32.166 -8.33398 -47.499 -14.001s-28.833 -13 -40.5 -22s-21 -19.667 -28 -32s-10.5 -26.166 -10.5 -41.499z" />
    <glyph glyph-name="ccedilla" unicode="&#xe7;" horiz-adv-x="510" 
d="M253 -8c-32 4 -60.6729 13.5029 -86.0059 28.5029s-46.5 34.5 -63.5 58.5s-29.833 51.5 -38.5 82.5s-13.334 64.833 -14.001 101.5c0 44.667 6.83301 85 20.5 121s32.5 67 56.5 93s52.167 46.167 84.5 60.5s67.166 22.166 104.499 23.499c14 0 28 -0.333008 42 -1
s27.167 -2 39.5 -4s23.833 -4.66699 34.5 -8s19 -7 25 -11v-118h-46l-25 62c-5.33301 4 -11.333 7.5 -18 10.5s-13.667 5.5 -21 7.5s-14.5 3.33301 -21.5 4s-13.5 1 -19.5 1c-22 0 -42.833 -4 -62.5 -12s-37.167 -20.167 -52.5 -36.5s-27.5 -37 -36.5 -62
s-13.833 -54.167 -14.5 -87.5c0 -44 5.33301 -81.833 16 -113.5s24.667 -57.667 42 -78s36.5 -35 57.5 -44s41.833 -13.5 62.5 -13.5c12.667 0 25.834 0.833008 39.501 2.5s26.834 3.66699 39.501 6s24.334 5.5 35.001 9.5s19.334 7.66699 26.001 11l17 -43
c-8.66699 -7.33301 -19 -14.166 -31 -20.499s-25.333 -11.666 -40 -15.999s-30 -7.83301 -46 -10.5s-32.333 -4.66699 -49 -6c-0.666992 -7.33301 -1.16699 -15.5 -1.5 -24.5s0.166992 -17.833 1.5 -26.5c22.667 0 41.834 -2.83301 57.501 -8.5
s28.334 -12.834 38.001 -21.501s16.834 -18.5 21.501 -29.5s7 -21.833 7 -32.5c0 -16 -3 -30.333 -9 -43s-14.667 -23.334 -26 -32.001s-24.5 -15.5 -39.5 -20.5s-31.167 -7.83301 -48.5 -8.5c-14 -0.666992 -26.167 -0.833984 -36.5 -0.500977s-19 1.16602 -26 2.49902
s-13.167 2.66602 -18.5 3.99902l-16 4c0 8.66699 0.166992 17 0.5 25s0.5 16 0.5 24c4 -0.666992 8.5 -1.5 13.5 -2.5s10 -1.83301 15 -2.5s10 -1.16699 15 -1.5s8.83301 -0.5 11.5 -0.5c9.33301 0 18 0.5 26 1.5s15.167 3.33301 21.5 7s11.333 9.16699 15 16.5
s5.5 17 5.5 29c0 14 -6.16699 25.667 -18.5 35s-31.5 14 -57.5 14c-2 0 -4.33301 -0.166992 -7 -0.5s-5.16699 -0.5 -7.5 -0.5s-4.5 -0.166992 -6.5 -0.5l-3 -0.5c0 14.667 1.33301 29.834 4 45.501s6.33398 32.5 11.001 50.5z" />
    <glyph glyph-name="egrave" unicode="&#xe8;" horiz-adv-x="559" 
d="M359 654c-13.333 6 -28.832 14 -46.499 24s-35.334 21.333 -53.001 34s-34.5 26.167 -50.5 40.5s-29 28.833 -39 43.5l72 73l143 -188zM49.001 271c0 41.333 6.50195 79.667 19.502 115s31.333 66 55 92s52.167 46.333 85.5 61c33.333 14 70 21.667 110 23
c28.667 0.666992 54.5 -3.33301 77.5 -12s42.667 -21.834 59 -39.501s29.166 -39.167 38.499 -64.5s14.666 -54.333 15.999 -87c0.666992 -20.667 0.166992 -38.334 -1.5 -53.001s-3.16699 -28 -4.5 -40h-362v-5.5c0 -1.66699 0.333008 -3.5 1 -5.5
c1.33301 -39.333 8 -71.833 20 -97.5s27 -46.167 45 -61.5s37.833 -26 59.5 -32s43.167 -9 64.5 -9c12.667 0 26 0.833008 40 2.5s27.5 3.83398 40.5 6.50098s25.167 5.83398 36.5 9.50098s20.333 7.16699 27 10.5l18 -41c-9.33301 -8.66699 -21.5 -16.334 -36.5 -23.001
s-31.5 -12.334 -49.5 -17.001s-36.833 -8.33398 -56.5 -11.001s-38.834 -4 -57.501 -4c-39.333 0 -74.166 6.83301 -104.499 20.5s-55.833 32.834 -76.5 57.501s-36.5 54.334 -47.5 89.001s-16.5 73.334 -16.5 116.001zM410.003 324.001
c0.666992 16.667 0.833984 33.333 0.500977 50s-2.33301 32.5 -6 47.5s-9.16699 28.833 -16.5 41.5s-17 23 -29 31c-8.66699 5.33301 -18.334 9.33301 -29.001 12s-23 4 -37 4c-18 0 -35.5 -3.33301 -52.5 -10s-32.333 -17.5 -46 -32.5s-25 -34.333 -34 -58
s-14.833 -52.167 -17.5 -85.5h267z" />
    <glyph glyph-name="eacute" unicode="&#xe9;" horiz-adv-x="559" 
d="M228 681l144.001 188.002l71 -73c-10 -14.667 -23 -29.167 -39 -43.5s-32.833 -27.833 -50.5 -40.5s-35.334 -23.834 -53.001 -33.501s-33.167 -17.834 -46.5 -24.501zM49.001 271.002c0 41.333 6.50195 79.667 19.502 115s31.333 66 55 92s52.167 46.333 85.5 61
c33.333 14 70 21.667 110 23c28.667 0.666992 54.5 -3.33301 77.5 -12s42.667 -21.834 59 -39.501s29.166 -39.167 38.499 -64.5s14.666 -54.333 15.999 -87c0.666992 -20.667 0.166992 -38.334 -1.5 -53.001s-3.16699 -28 -4.5 -40h-362v-5.5
c0 -1.66699 0.333008 -3.5 1 -5.5c1.33301 -39.333 8 -71.833 20 -97.5s27 -46.167 45 -61.5s37.833 -26 59.5 -32s43.167 -9 64.5 -9c12.667 0 26 0.833008 40 2.5s27.5 3.83398 40.5 6.50098s25.167 5.83398 36.5 9.50098s20.333 7.16699 27 10.5l18 -41
c-9.33301 -8.66699 -21.5 -16.334 -36.5 -23.001s-31.5 -12.334 -49.5 -17.001s-36.833 -8.33398 -56.5 -11.001s-38.834 -4 -57.501 -4c-39.333 0 -74.166 6.83301 -104.499 20.5s-55.833 32.834 -76.5 57.501s-36.5 54.334 -47.5 89.001s-16.5 73.334 -16.5 116.001z
M410.003 324.003c0.666992 16.667 0.833984 33.333 0.500977 50s-2.33301 32.5 -6 47.5s-9.16699 28.833 -16.5 41.5s-17 23 -29 31c-8.66699 5.33301 -18.334 9.33301 -29.001 12s-23 4 -37 4c-18 0 -35.5 -3.33301 -52.5 -10s-32.333 -17.5 -46 -32.5s-25 -34.333 -34 -58
s-14.833 -52.167 -17.5 -85.5h267z" />
    <glyph glyph-name="ecircumflex" unicode="&#xea;" horiz-adv-x="559" 
d="M120 674l133 193h92l128 -192l-41 -23l-133 131l-143 -131zM49 271c0 41.333 6.50195 79.667 19.502 115s31.333 66 55 92s52.167 46.333 85.5 61c33.333 14 70 21.667 110 23c28.667 0.666992 54.5 -3.33301 77.5 -12s42.667 -21.834 59 -39.501
s29.166 -39.167 38.499 -64.5s14.666 -54.333 15.999 -87c0.666992 -20.667 0.166992 -38.334 -1.5 -53.001s-3.16699 -28 -4.5 -40h-362v-5.5c0 -1.66699 0.333008 -3.5 1 -5.5c1.33301 -39.333 8 -71.833 20 -97.5s27 -46.167 45 -61.5s37.833 -26 59.5 -32
s43.167 -9 64.5 -9c12.667 0 26 0.833008 40 2.5s27.5 3.83398 40.5 6.50098s25.167 5.83398 36.5 9.50098s20.333 7.16699 27 10.5l18 -41c-9.33301 -8.66699 -21.5 -16.334 -36.5 -23.001s-31.5 -12.334 -49.5 -17.001s-36.833 -8.33398 -56.5 -11.001
s-38.834 -4 -57.501 -4c-39.333 0 -74.166 6.83301 -104.499 20.5s-55.833 32.834 -76.5 57.501s-36.5 54.334 -47.5 89.001s-16.5 73.334 -16.5 116.001zM410.002 324.001c0.666992 16.667 0.833984 33.333 0.500977 50s-2.33301 32.5 -6 47.5s-9.16699 28.833 -16.5 41.5
s-17 23 -29 31c-8.66699 5.33301 -18.334 9.33301 -29.001 12s-23 4 -37 4c-18 0 -35.5 -3.33301 -52.5 -10s-32.333 -17.5 -46 -32.5s-25 -34.333 -34 -58s-14.833 -52.167 -17.5 -85.5h267z" />
    <glyph glyph-name="edieresis" unicode="&#xeb;" horiz-adv-x="559" 
d="M406 675c-8 0 -15.5 1.33594 -22.5 4.00293s-13.5 6.33398 -19.5 11.001s-10.5 10.667 -13.5 18s-4.5 15.666 -4.5 24.999c0 10 2 19.333 6 28s9.5 16.167 16.5 22.5s14.667 11.333 23 15s16.833 5.5 25.5 5.5c21.333 0 37 -5.83301 47 -17.5s15 -25.834 15 -42.501
c0 -10.667 -2 -20.334 -6 -29.001s-9.5 -15.834 -16.5 -21.501s-14.833 -10.167 -23.5 -13.5s-17.667 -5 -27 -5zM179 675.003c-8 0 -15.668 1.33594 -23.001 4.00293s-13.833 6.33398 -19.5 11.001s-10.167 10.667 -13.5 18s-5 15.666 -5 24.999
c0 10 2.16699 19.333 6.5 28s9.83301 16.167 16.5 22.5s14.334 11.333 23.001 15s17.334 5.5 26.001 5.5c21.333 0 37 -5.83301 47 -17.5s15 -25.834 15 -42.501c0 -10.667 -2.16699 -20.334 -6.5 -29.001s-9.83301 -15.834 -16.5 -21.501s-14.334 -10.167 -23.001 -13.5
s-17.667 -5 -27 -5zM48.999 271.006c0 41.333 6.50195 79.667 19.502 115s31.333 66 55 92s52.167 46.333 85.5 61c33.333 14 70 21.667 110 23c28.667 0.666992 54.5 -3.33301 77.5 -12s42.667 -21.834 59 -39.501s29.166 -39.167 38.499 -64.5s14.666 -54.333 15.999 -87
c0.666992 -20.667 0.166992 -38.334 -1.5 -53.001s-3.16699 -28 -4.5 -40h-362v-5.5c0 -1.66699 0.333008 -3.5 1 -5.5c1.33301 -39.333 8 -71.833 20 -97.5s27 -46.167 45 -61.5s37.833 -26 59.5 -32s43.167 -9 64.5 -9c12.667 0 26 0.833008 40 2.5
s27.5 3.83398 40.5 6.50098s25.167 5.83398 36.5 9.50098s20.333 7.16699 27 10.5l18 -41c-9.33301 -8.66699 -21.5 -16.334 -36.5 -23.001s-31.5 -12.334 -49.5 -17.001s-36.833 -8.33398 -56.5 -11.001s-38.834 -4 -57.501 -4c-39.333 0 -74.166 6.83301 -104.499 20.5
s-55.833 32.834 -76.5 57.501s-36.5 54.334 -47.5 89.001s-16.5 73.334 -16.5 116.001zM410.001 324.007c0.666992 16.667 0.833984 33.333 0.500977 50s-2.33301 32.5 -6 47.5s-9.16699 28.833 -16.5 41.5s-17 23 -29 31c-8.66699 5.33301 -18.334 9.33301 -29.001 12
s-23 4 -37 4c-18 0 -35.5 -3.33301 -52.5 -10s-32.333 -17.5 -46 -32.5s-25 -34.333 -34 -58s-14.833 -52.167 -17.5 -85.5h267z" />
    <glyph glyph-name="igrave" unicode="&#xec;" horiz-adv-x="333" 
d="M234 654c-13.333 6 -28.833 14 -46.5 24s-35.5 21.333 -53.5 34s-34.833 26.167 -50.5 40.5s-28.5 28.833 -38.5 43.5l71 73l144 -188zM55 42l83 10v400l-68 35v31l136 38l22 -10v-494l79 -10v-42h-252v42z" />
    <glyph glyph-name="iacute" unicode="&#xed;" horiz-adv-x="333" 
d="M103 681l143.001 188.002l71 -73c-10 -14.667 -22.833 -29.167 -38.5 -43.5s-32.334 -27.833 -50.001 -40.5s-35.5 -23.834 -53.5 -33.501s-33.667 -17.834 -47 -24.501zM55.001 42.002l83 10v400l-68 35v31l136 38l22 -10v-494l79 -10v-42h-252v42z" />
    <glyph glyph-name="icircumflex" unicode="&#xee;" horiz-adv-x="333" 
d="M-6 674l133 193h93l128 -192l-42 -23l-133 131l-142 -131zM55 42l83 10v400l-68 35v31l136 38l22 -10v-494l79 -10v-42h-252v42z" />
    <glyph glyph-name="idieresis" unicode="&#xef;" horiz-adv-x="333" 
d="M281 675c-8 0 -15.668 1.33594 -23.001 4.00293s-13.833 6.33398 -19.5 11.001s-10.167 10.667 -13.5 18s-5 15.666 -5 24.999c0 10 2.16699 19.333 6.5 28s9.83301 16.167 16.5 22.5s14.334 11.333 23.001 15s17.334 5.5 26.001 5.5c21.333 0 37 -5.83301 47 -17.5
s15 -25.834 15 -42.501c0 -10.667 -2.16699 -20.334 -6.5 -29.001s-9.83301 -15.834 -16.5 -21.501s-14.334 -10.167 -23.001 -13.5s-17.667 -5 -27 -5zM52.999 675.003c-8 0 -15.5 1.33594 -22.5 4.00293s-13.5 6.33398 -19.5 11.001s-10.5 10.667 -13.5 18
s-4.5 15.666 -4.5 24.999c0 10 2 19.333 6 28s9.5 16.167 16.5 22.5s14.667 11.333 23 15s16.833 5.5 25.5 5.5c21.333 0 37 -5.83301 47 -17.5s15 -25.834 15 -42.501c0 -10.667 -2 -20.334 -6 -29.001s-9.5 -15.834 -16.5 -21.501s-14.833 -10.167 -23.5 -13.5
s-17.667 -5 -27 -5zM54.999 42.0059l83 10v400l-68 35v31l136 38l22 -10v-494l79 -10v-42h-252v42z" />
    <glyph glyph-name="eth" unicode="&#xf0;" horiz-adv-x="601" 
d="M49 245c0 42.667 6.66504 80.1729 19.998 112.506s31.5 59.333 54.5 81s49.833 38 80.5 49s63 16.5 97 16.5c12 0 24.833 -1.5 38.5 -4.5s27.334 -7.33301 41.001 -13s26.5 -12.334 38.5 -20.001s21.667 -16.167 29 -25.5c-5.33301 24.667 -13 48.5 -23 71.5
s-21.667 44.833 -35 65.5s-28.166 40 -44.499 58s-32.833 34.333 -49.5 49l-83 -71l-48 38l80 73c-32 21.333 -61.333 36.333 -88 45l12 53c22 -7.33301 43 -15.666 63 -24.999s39 -19 57 -29c7.33301 6.66699 16 14.167 26 22.5s19.333 16.166 28 23.499
c10 8.66699 20.333 17.667 31 27l50 -42c-0.666992 -0.666992 -3.66699 -3.33398 -9 -8.00098s-12 -10.334 -20 -17.001s-16.5 -13.834 -25.5 -21.501s-17.5 -15.167 -25.5 -22.5c36 -28 67.167 -58.667 93.5 -92s48 -68.5 65 -105.5s29.5 -75.167 37.5 -114.5
s12 -78.333 12 -117c0 -51.333 -6.66699 -96.5 -20 -135.5s-31.5 -71.667 -54.5 -98s-49.667 -46.333 -80 -60s-62.833 -20.834 -97.5 -21.501c-38 -0.666992 -72.333 5.16602 -103 17.499s-57 30 -79 53s-39 50.5 -51 82.5s-18 67 -18 105zM150.998 250.006
c0 -28 3.33594 -54.833 10.0029 -80.5s16.5 -48.167 29.5 -67.5s29.333 -34.833 49 -46.5s42.5 -17.5 68.5 -17.5c22 0 42 6.66699 60 20s33 30.833 45 52.5s21.333 46.334 28 74.001s10 55.834 10 84.501v9v15c0 5.33301 -0.333008 11 -1 17s-1.33398 11.333 -2.00098 16
c-2 10.667 -6.5 23.167 -13.5 37.5s-16.333 28 -28 41s-26.334 24 -44.001 33s-38.5 13.5 -62.5 13.5c-26.667 0 -49.334 -4.66699 -68.001 -14s-34 -22.833 -46 -40.5s-20.833 -38.834 -26.5 -63.501s-8.5 -52.334 -8.5 -83.001z" />
    <glyph glyph-name="ntilde" unicode="&#xf1;" horiz-adv-x="681" 
d="M172 728c6 11.333 14.0029 22.0029 24.0029 32.0029s21.167 19 33.5 27s25.333 14.333 39 19s26.834 7 39.501 7c16 0 29.333 -3.5 40 -10.5s20.5 -14.5 29.5 -22.5s17.833 -15.5 26.5 -22.5s19 -10.5 31 -10.5c9.33301 0 18.333 1.5 27 4.5s16.834 6.83301 24.501 11.5
s14.667 9.66699 21 15s12.166 10.333 17.499 15l25 -35c-6 -11.333 -14 -22.333 -24 -33s-21 -19.834 -33 -27.501s-24.833 -13.834 -38.5 -18.501s-26.834 -7 -39.501 -7c-10.667 0 -20 1.66699 -28 5s-15.5 7.33301 -22.5 12s-13.333 10 -19 16s-11.5 11.5 -17.5 16.5
s-12.167 9 -18.5 12s-13.5 4.5 -21.5 4.5c-9.33301 0 -18.333 -1.5 -27 -4.5s-16.834 -6.66699 -24.501 -11s-14.834 -9.33301 -21.501 -15s-12.334 -10.834 -17.001 -15.501zM67.0029 42.0029l66.9971 8.99805v398l-70 38v31l130 38l22 -10v-69
c11.333 9.33301 24.833 18.666 40.5 27.999s32.334 17.666 50.001 24.999s35.667 13.333 54 18s35.833 7.33398 52.5 8.00098c30 0.666992 55.333 -3 76 -11s37.334 -21.333 50.001 -40s21.834 -42.667 27.501 -72s8.5 -64.666 8.5 -105.999v-276l78 -9v-42h-246v42l74 10
v258c0 29.333 -1.5 55.333 -4.5 78s-8.83301 41.334 -17.5 56.001s-20.667 25.334 -36 32.001s-35.333 9.66699 -60 9c-20 -0.666992 -41.167 -5.16699 -63.5 -13.5s-45.833 -20.833 -70.5 -37.5v-382l72 -10v-42h-234v42z" />
    <glyph glyph-name="ograve" unicode="&#xf2;" horiz-adv-x="601" 
d="M370 654c-13.333 6 -29 14 -47 24s-35.833 21.333 -53.5 34s-34.5 26.167 -50.5 40.5s-28.667 28.833 -38 43.5l71 73l144 -188zM50 284c0.666992 43.333 8.33301 82.3291 23 116.996s33.834 63.834 57.501 87.501s51 41.834 82 54.501s63.5 19 97.5 19
c41.333 0 77.333 -7.16699 108 -21.5s56 -34.333 76 -60s34.833 -55.667 44.5 -90s14.5 -71.166 14.5 -110.499c0 -43.333 -6.83301 -83 -20.5 -119s-32 -66.667 -55 -92s-49.833 -45.166 -80.5 -59.499s-63.667 -21.5 -99 -21.5c-44.667 0 -82.834 8.16699 -114.501 24.5
s-57.5 38.166 -77.5 65.499s-34.5 58.833 -43.5 94.5s-13.167 72.834 -12.5 111.501zM301.999 42.9961c28 -0.666992 51.502 4.00391 70.502 14.0039s34.5 24.833 46.5 44.5s20.667 44.167 26 73.5s8 62.666 8 99.999c0 32.667 -2.83301 63.334 -8.5 92.001
s-14.667 53.667 -27 75s-27.833 38 -46.5 50s-41 18.333 -67 19c-28 0 -51.5 -4.83301 -70.5 -14.5s-34.833 -24.167 -47.5 -43.5s-21.834 -42.833 -27.501 -70.5s-8.5 -58.834 -8.5 -93.501c0 -31.333 3.16699 -61.833 9.5 -91.5s15.666 -55.834 27.999 -78.501
s28 -40.834 47 -54.501s41.5 -20.834 67.5 -21.501z" />
    <glyph glyph-name="oacute" unicode="&#xf3;" horiz-adv-x="601" 
d="M238 681l144 188.002l71 -73c-10 -14.667 -22.833 -29.167 -38.5 -43.5s-32.5 -27.833 -50.5 -40.5s-35.833 -23.834 -53.5 -33.501s-33.167 -17.834 -46.5 -24.501zM50 284.002c0.666992 43.333 8.33301 82.3291 23 116.996s33.834 63.834 57.501 87.501
s51 41.834 82 54.501s63.5 19 97.5 19c41.333 0 77.333 -7.16699 108 -21.5s56 -34.333 76 -60s34.833 -55.667 44.5 -90s14.5 -71.166 14.5 -110.499c0 -43.333 -6.83301 -83 -20.5 -119s-32 -66.667 -55 -92s-49.833 -45.166 -80.5 -59.499s-63.667 -21.5 -99 -21.5
c-44.667 0 -82.834 8.16699 -114.501 24.5s-57.5 38.166 -77.5 65.499s-34.5 58.833 -43.5 94.5s-13.167 72.834 -12.5 111.501zM301.999 42.998c28 -0.666992 51.502 4.00391 70.502 14.0039s34.5 24.833 46.5 44.5s20.667 44.167 26 73.5s8 62.666 8 99.999
c0 32.667 -2.83301 63.334 -8.5 92.001s-14.667 53.667 -27 75s-27.833 38 -46.5 50s-41 18.333 -67 19c-28 0 -51.5 -4.83301 -70.5 -14.5s-34.833 -24.167 -47.5 -43.5s-21.834 -42.833 -27.501 -70.5s-8.5 -58.834 -8.5 -93.501c0 -31.333 3.16699 -61.833 9.5 -91.5
s15.666 -55.834 27.999 -78.501s28 -40.834 47 -54.501s41.5 -20.834 67.5 -21.501z" />
    <glyph glyph-name="ocircumflex" unicode="&#xf4;" horiz-adv-x="601" 
d="M130 674l133 193h92l128 -192l-41 -23l-133 131l-142 -131zM50 284c0.666992 43.333 8.33301 82.3291 23 116.996s33.834 63.834 57.501 87.501s51 41.834 82 54.501s63.5 19 97.5 19c41.333 0 77.333 -7.16699 108 -21.5s56 -34.333 76 -60s34.833 -55.667 44.5 -90
s14.5 -71.166 14.5 -110.499c0 -43.333 -6.83301 -83 -20.5 -119s-32 -66.667 -55 -92s-49.833 -45.166 -80.5 -59.499s-63.667 -21.5 -99 -21.5c-44.667 0 -82.834 8.16699 -114.501 24.5s-57.5 38.166 -77.5 65.499s-34.5 58.833 -43.5 94.5s-13.167 72.834 -12.5 111.501
zM301.999 42.9961c28 -0.666992 51.502 4.00391 70.502 14.0039s34.5 24.833 46.5 44.5s20.667 44.167 26 73.5s8 62.666 8 99.999c0 32.667 -2.83301 63.334 -8.5 92.001s-14.667 53.667 -27 75s-27.833 38 -46.5 50s-41 18.333 -67 19c-28 0 -51.5 -4.83301 -70.5 -14.5
s-34.833 -24.167 -47.5 -43.5s-21.834 -42.833 -27.501 -70.5s-8.5 -58.834 -8.5 -93.501c0 -31.333 3.16699 -61.833 9.5 -91.5s15.666 -55.834 27.999 -78.501s28 -40.834 47 -54.501s41.5 -20.834 67.5 -21.501z" />
    <glyph glyph-name="otilde" unicode="&#xf5;" horiz-adv-x="601" 
d="M114 728c6 11.333 14.0049 22.0029 24.0049 32.0029s21.167 19 33.5 27s25.166 14.333 38.499 19s26.666 7 39.999 7c16 0 29.333 -3.5 40 -10.5s20.5 -14.5 29.5 -22.5s17.833 -15.5 26.5 -22.5s18.667 -10.5 30 -10.5c9.33301 0 18.5 1.5 27.5 4.5
s17.167 6.83301 24.5 11.5s14.333 9.66699 21 15s12.667 10.333 18 15l25 -35c-6 -11.333 -14 -22.333 -24 -33s-21 -19.834 -33 -27.501s-24.833 -13.834 -38.5 -18.501s-26.834 -7 -39.501 -7c-10.667 0 -20.167 1.66699 -28.5 5s-15.833 7.33301 -22.5 12
s-12.834 10 -18.501 16s-11.5 11.5 -17.5 16.5s-12.167 9 -18.5 12s-13.5 4.5 -21.5 4.5c-9.33301 0 -18.5 -1.5 -27.5 -4.5s-17.167 -6.66699 -24.5 -11s-14.333 -9.33301 -21 -15s-12.334 -10.834 -17.001 -15.501zM50.0049 284.003
c0.666992 43.333 8.33301 82.3291 23 116.996s33.834 63.834 57.501 87.501s51 41.834 82 54.501s63.5 19 97.5 19c41.333 0 77.333 -7.16699 108 -21.5s56 -34.333 76 -60s34.833 -55.667 44.5 -90s14.5 -71.166 14.5 -110.499c0 -43.333 -6.83301 -83 -20.5 -119
s-32 -66.667 -55 -92s-49.833 -45.166 -80.5 -59.499s-63.667 -21.5 -99 -21.5c-44.667 0 -82.834 8.16699 -114.501 24.5s-57.5 38.166 -77.5 65.499s-34.5 58.833 -43.5 94.5s-13.167 72.834 -12.5 111.501zM302.004 42.999c28 -0.666992 51.502 4.00391 70.502 14.0039
s34.5 24.833 46.5 44.5s20.667 44.167 26 73.5s8 62.666 8 99.999c0 32.667 -2.83301 63.334 -8.5 92.001s-14.667 53.667 -27 75s-27.833 38 -46.5 50s-41 18.333 -67 19c-28 0 -51.5 -4.83301 -70.5 -14.5s-34.833 -24.167 -47.5 -43.5s-21.834 -42.833 -27.501 -70.5
s-8.5 -58.834 -8.5 -93.501c0 -31.333 3.16699 -61.833 9.5 -91.5s15.666 -55.834 27.999 -78.501s28 -40.834 47 -54.501s41.5 -20.834 67.5 -21.501z" />
    <glyph glyph-name="odieresis" unicode="&#xf6;" horiz-adv-x="601" 
d="M417 675c-8 0 -15.668 1.33594 -23.001 4.00293s-13.833 6.33398 -19.5 11.001s-10.167 10.667 -13.5 18s-5 15.666 -5 24.999c0 10 2.16699 19.333 6.5 28s9.83301 16.167 16.5 22.5s14.334 11.333 23.001 15s17.334 5.5 26.001 5.5c21.333 0 37 -5.83301 47 -17.5
s15 -25.834 15 -42.501c0 -10.667 -2.16699 -20.334 -6.5 -29.001s-9.83301 -15.834 -16.5 -21.501s-14.334 -10.167 -23.001 -13.5s-17.667 -5 -27 -5zM188.999 675.003c-8 0 -15.667 1.33594 -23 4.00293s-13.833 6.33398 -19.5 11.001s-10.167 10.667 -13.5 18
s-5 15.666 -5 24.999c0 10 2.16699 19.333 6.5 28s10 16.167 17 22.5s14.667 11.333 23 15s16.833 5.5 25.5 5.5c21.333 0 37 -5.83301 47 -17.5s15 -25.834 15 -42.501c0 -10.667 -2 -20.334 -6 -29.001s-9.5 -15.834 -16.5 -21.501s-14.833 -10.167 -23.5 -13.5
s-17.667 -5 -27 -5zM49.999 284.006c0.666992 43.333 8.33301 82.3291 23 116.996s33.834 63.834 57.501 87.501s51 41.834 82 54.501s63.5 19 97.5 19c41.333 0 77.333 -7.16699 108 -21.5s56 -34.333 76 -60s34.833 -55.667 44.5 -90s14.5 -71.166 14.5 -110.499
c0 -43.333 -6.83301 -83 -20.5 -119s-32 -66.667 -55 -92s-49.833 -45.166 -80.5 -59.499s-63.667 -21.5 -99 -21.5c-44.667 0 -82.834 8.16699 -114.501 24.5s-57.5 38.166 -77.5 65.499s-34.5 58.833 -43.5 94.5s-13.167 72.834 -12.5 111.501zM301.998 43.002
c28 -0.666992 51.502 4.00391 70.502 14.0039s34.5 24.833 46.5 44.5s20.667 44.167 26 73.5s8 62.666 8 99.999c0 32.667 -2.83301 63.334 -8.5 92.001s-14.667 53.667 -27 75s-27.833 38 -46.5 50s-41 18.333 -67 19c-28 0 -51.5 -4.83301 -70.5 -14.5
s-34.833 -24.167 -47.5 -43.5s-21.834 -42.833 -27.501 -70.5s-8.5 -58.834 -8.5 -93.501c0 -31.333 3.16699 -61.833 9.5 -91.5s15.666 -55.834 27.999 -78.501s28 -40.834 47 -54.501s41.5 -20.834 67.5 -21.501z" />
    <glyph glyph-name="divide" unicode="&#xf7;" horiz-adv-x="625" 
d="M308 514c-8 0 -15.6689 1.33398 -23.002 4.00098s-13.833 6.5 -19.5 11.5s-10.167 11.333 -13.5 19s-5 16.167 -5 25.5c0 10 2.16699 19.333 6.5 28s9.83301 16.167 16.5 22.5s14.334 11.333 23.001 15s17.334 5.5 26.001 5.5c21.333 0 37 -6 47 -18s15 -26.333 15 -43
c0 -10.667 -2 -20.334 -6 -29.001s-9.5 -16 -16.5 -22s-14.833 -10.667 -23.5 -14s-17.667 -5 -27 -5zM86.998 427.001h452v-72h-452v72zM246.998 194.001c0 10 2.16504 19.502 6.49805 28.502s9.83301 16.667 16.5 23s14.334 11.333 23.001 15s17.334 5.5 26.001 5.5
c21.333 0 37 -6 47 -18s15 -26.333 15 -43c0 -10.667 -2 -20.334 -6 -29.001s-9.5 -16 -16.5 -22s-14.833 -10.833 -23.5 -14.5s-17.667 -5.5 -27 -5.5c-8 0 -15.667 1.5 -23 4.5s-13.833 7 -19.5 12s-10.167 11.167 -13.5 18.5s-5 15.666 -5 24.999z" />
    <glyph glyph-name="oslash" unicode="&#xf8;" horiz-adv-x="601" 
d="M190 9c-25.333 11.333 -46.8311 26.498 -64.498 45.498s-32.334 40.5 -44.001 64.5s-20 50 -25 78s-7.16699 57 -6.5 87c0.666992 43.333 8.16699 82.333 22.5 117s33.5 63.834 57.5 87.501s51.5 41.834 82.5 54.501s63.5 19 97.5 19c25.333 0 48.333 -2.33301 69 -7
l28 81l39 -15l-27 -81c22.667 -10.667 42.334 -24.834 59.001 -42.501s30.667 -37.667 42 -60s19.666 -46.833 24.999 -73.5s7.66602 -54.667 6.99902 -84c0 -43.333 -6.83301 -83 -20.5 -119s-32 -66.667 -55 -92s-49.833 -45.166 -80.5 -59.499s-63.667 -21.5 -99 -21.5
c-24 0 -45.667 2.66699 -65 8l-30 -91l-42 16zM357.002 498.998c-16 8 -33.666 12 -52.999 12c-28 0 -51.667 -4.83301 -71 -14.5s-35.166 -24.167 -47.499 -43.5s-21.333 -42.833 -27 -70.5s-8.5 -58.834 -8.5 -93.501c0 -21.333 1.33301 -42 4 -62s6.66699 -39 12 -57
s12.166 -34.667 20.499 -50s18.166 -28.666 29.499 -39.999zM253.003 53.998c14 -6.66699 30.333 -10.332 49 -10.999c28 -0.666992 51.333 4 70 14s34 24.833 46 44.5s20.667 44.167 26 73.5s8 62.666 8 99.999c0 42 -4.66699 80.167 -14 114.5s-24 61.833 -44 82.5z" />
    <glyph glyph-name="ugrave" unicode="&#xf9;" horiz-adv-x="630" 
d="M364 654c-13.333 6 -28.833 14 -46.5 24s-35.5 21.333 -53.5 34s-35 26.167 -51 40.5s-28.667 28.833 -38 43.5l71 73l144 -188zM104 477l-50.0029 14.998v37l126 27l17 -9v-336c0 -27.333 1.5 -50.666 4.5 -69.999s8.33301 -35.166 16 -47.499
s18.334 -21.5 32.001 -27.5s31.167 -9 52.5 -9c14.667 0 29.167 2 43.5 6s27.5 8.83301 39.5 14.5s22.667 11.667 32 18s16 11.833 20 16.5v361l-61 15v40l140 28l13 -8v-506h59v-38c-4.66699 -2.66699 -10.667 -5.16699 -18 -7.5s-15.166 -4.5 -23.499 -6.5
s-16.833 -3.66699 -25.5 -5s-16.667 -2 -24 -2c-15.333 0 -27.666 3.33301 -36.999 10s-14 17.334 -14 32.001v40c-28 -24.667 -57.5 -43.334 -88.5 -56.001s-61.5 -19 -91.5 -19c-38.667 0 -68.667 5.83301 -90 17.5s-37.333 28 -48 49s-17.167 45.833 -19.5 74.5
s-3.83301 60 -4.5 94v252z" />
    <glyph glyph-name="uacute" unicode="&#xfa;" horiz-adv-x="630" 
d="M232 681l144.001 188.002l71 -73c-10 -14.667 -22.833 -29.167 -38.5 -43.5s-32.334 -27.833 -50.001 -40.5s-35.5 -23.834 -53.5 -33.501s-33.667 -17.834 -47 -24.501zM104.001 477.002l-50.0029 14.998v37l126 27l17 -9v-336c0 -27.333 1.5 -50.666 4.5 -69.999
s8.33301 -35.166 16 -47.499s18.334 -21.5 32.001 -27.5s31.167 -9 52.5 -9c14.667 0 29.167 2 43.5 6s27.5 8.83301 39.5 14.5s22.667 11.667 32 18s16 11.833 20 16.5v361l-61 15v40l140 28l13 -8v-506h59v-38c-4.66699 -2.66699 -10.667 -5.16699 -18 -7.5
s-15.166 -4.5 -23.499 -6.5s-16.833 -3.66699 -25.5 -5s-16.667 -2 -24 -2c-15.333 0 -27.666 3.33301 -36.999 10s-14 17.334 -14 32.001v40c-28 -24.667 -57.5 -43.334 -88.5 -56.001s-61.5 -19 -91.5 -19c-38.667 0 -68.667 5.83301 -90 17.5s-37.333 28 -48 49
s-17.167 45.833 -19.5 74.5s-3.83301 60 -4.5 94v252z" />
    <glyph glyph-name="ucircumflex" unicode="&#xfb;" horiz-adv-x="630" 
d="M124 674l133 193h93l128 -192l-42 -23l-133 131l-142 -131zM104 477l-50.0029 14.998v37l126 27l17 -9v-336c0 -27.333 1.5 -50.666 4.5 -69.999s8.33301 -35.166 16 -47.499s18.334 -21.5 32.001 -27.5s31.167 -9 52.5 -9c14.667 0 29.167 2 43.5 6
s27.5 8.83301 39.5 14.5s22.667 11.667 32 18s16 11.833 20 16.5v361l-61 15v40l140 28l13 -8v-506h59v-38c-4.66699 -2.66699 -10.667 -5.16699 -18 -7.5s-15.166 -4.5 -23.499 -6.5s-16.833 -3.66699 -25.5 -5s-16.667 -2 -24 -2c-15.333 0 -27.666 3.33301 -36.999 10
s-14 17.334 -14 32.001v40c-28 -24.667 -57.5 -43.334 -88.5 -56.001s-61.5 -19 -91.5 -19c-38.667 0 -68.667 5.83301 -90 17.5s-37.333 28 -48 49s-17.167 45.833 -19.5 74.5s-3.83301 60 -4.5 94v252z" />
    <glyph glyph-name="udieresis" unicode="&#xfc;" horiz-adv-x="630" 
d="M411 675c-8 0 -15.668 1.33594 -23.001 4.00293s-13.833 6.33398 -19.5 11.001s-10.167 10.667 -13.5 18s-5 15.666 -5 24.999c0 10 2.16699 19.333 6.5 28s9.83301 16.167 16.5 22.5s14.334 11.333 23.001 15s17.334 5.5 26.001 5.5c21.333 0 37 -5.83301 47 -17.5
s15 -25.834 15 -42.501c0 -10.667 -2.16699 -20.334 -6.5 -29.001s-9.83301 -15.834 -16.5 -21.501s-14.334 -10.167 -23.001 -13.5s-17.667 -5 -27 -5zM182.999 675.003c-8 0 -15.667 1.33594 -23 4.00293s-13.833 6.33398 -19.5 11.001s-10 10.667 -13 18
s-4.5 15.666 -4.5 24.999c0 10 2 19.333 6 28s9.5 16.167 16.5 22.5s14.667 11.333 23 15s16.833 5.5 25.5 5.5c21.333 0 37 -5.83301 47 -17.5s15 -25.834 15 -42.501c0 -10.667 -2 -20.334 -6 -29.001s-9.5 -15.834 -16.5 -21.501s-14.833 -10.167 -23.5 -13.5
s-17.667 -5 -27 -5zM103.999 477.006l-50.0029 14.998v37l126 27l17 -9v-336c0 -27.333 1.5 -50.666 4.5 -69.999s8.33301 -35.166 16 -47.499s18.334 -21.5 32.001 -27.5s31.167 -9 52.5 -9c14.667 0 29.167 2 43.5 6s27.5 8.83301 39.5 14.5s22.667 11.667 32 18
s16 11.833 20 16.5v361l-61 15v40l140 28l13 -8v-506h59v-38c-4.66699 -2.66699 -10.667 -5.16699 -18 -7.5s-15.166 -4.5 -23.499 -6.5s-16.833 -3.66699 -25.5 -5s-16.667 -2 -24 -2c-15.333 0 -27.666 3.33301 -36.999 10s-14 17.334 -14 32.001v40
c-28 -24.667 -57.5 -43.334 -88.5 -56.001s-61.5 -19 -91.5 -19c-38.667 0 -68.667 5.83301 -90 17.5s-37.333 28 -48 49s-17.167 45.833 -19.5 74.5s-3.83301 60 -4.5 94v252z" />
    <glyph glyph-name="yacute" unicode="&#xfd;" horiz-adv-x="561" 
d="M228 681l143.001 188.002l71 -73c-10 -14.667 -22.833 -29.167 -38.5 -43.5s-32.334 -27.833 -50.001 -40.5s-35.5 -23.834 -53.5 -33.501s-33.667 -17.834 -47 -24.501zM73.001 -165.998c5.33301 -1.33301 11.833 -2.50195 19.5 -3.50195s14.167 -1.5 19.5 -1.5
c12 0 24.833 2.16699 38.5 6.5s27.5 12.5 41.5 24.5s27.5 29.333 40.5 52s25.167 52 36.5 88h-21l-196 486l-51 9v51h226v-51l-70 -10l114 -328l33 -99l29 99l99 329l-77 9v51h211v-51l-54 -8c-22 -63.333 -41.167 -118.833 -57.5 -166.5s-30.666 -89.167 -42.999 -124.5
s-22.833 -65.166 -31.5 -89.499s-15.834 -44.666 -21.501 -60.999s-10.334 -29.5 -14.001 -39.5s-6.83398 -18.333 -9.50098 -25c-12.667 -32.667 -25.5 -62 -38.5 -88s-26.667 -48.5 -41 -67.5s-29.666 -34.5 -45.999 -46.5s-34.5 -20.667 -54.5 -26
c-13.333 -3.33301 -27.666 -4.66602 -42.999 -3.99902c-3.33301 0 -7 0.166992 -11 0.5s-7.83301 0.666016 -11.5 0.999023s-7 1 -10 2s-5.16699 2.16699 -6.5 3.5v78z" />
    <glyph glyph-name="thorn" unicode="&#xfe;" horiz-adv-x="617" 
d="M192 -50l0.996094 -148.002l96 -10v-42h-258v42l68 11v913l-83 17v43l157 17l20 -8v-285c8.66699 7.33301 18.334 14.833 29.001 22.5s22.334 14.5 35.001 20.5s26.834 10.833 42.501 14.5s33.167 5.5 52.5 5.5c27.333 0 54 -4.83301 80 -14.5s49 -25.167 69 -46.5
s36.167 -48.833 48.5 -82.5s18.5 -75.167 18.5 -124.5c0 -41.333 -6.66699 -80.666 -20 -117.999s-32 -70.166 -56 -98.499s-53 -50.833 -87 -67.5s-71.667 -25 -113 -25c-18 0 -35.667 1 -53 3s-33.666 4.33301 -48.999 7zM192.996 76.998
c5.33301 -14 17.999 -24 37.999 -30s44 -9 72 -9c21.333 0 42.166 4.66699 62.499 14s38.5 23.833 54.5 43.5s29 44.5 39 74.5s15.333 66 16 108c0.666992 39.333 -3.66602 72.666 -12.999 99.999s-21.666 49.666 -36.999 66.999s-32.833 30 -52.5 38
c-20.333 8 -40.5 12 -60.5 12c-14 0 -27.167 -1.5 -39.5 -4.5s-23.333 -6.66699 -33 -11s-18.5 -9.16602 -26.5 -14.499s-14.667 -10.666 -20 -15.999v-372z" />
    <glyph glyph-name="ydieresis" unicode="&#xff;" horiz-adv-x="561" 
d="M406 675c-8 0 -15.668 1.33594 -23.001 4.00293s-13.833 6.33398 -19.5 11.001s-10.167 10.667 -13.5 18s-5 15.666 -5 24.999c0 10 2.16699 19.333 6.5 28s9.83301 16.167 16.5 22.5s14.334 11.333 23.001 15s17.334 5.5 26.001 5.5c21.333 0 37 -5.83301 47 -17.5
s15 -25.834 15 -42.501c0 -10.667 -2.16699 -20.334 -6.5 -29.001s-9.83301 -15.834 -16.5 -21.501s-14.334 -10.167 -23.001 -13.5s-17.667 -5 -27 -5zM177.999 675.003c-8 0 -15.5 1.33594 -22.5 4.00293s-13.5 6.33398 -19.5 11.001s-10.5 10.667 -13.5 18
s-4.5 15.666 -4.5 24.999c0 10 2 19.333 6 28s9.5 16.167 16.5 22.5s14.667 11.333 23 15s16.833 5.5 25.5 5.5c21.333 0 37 -5.83301 47 -17.5s15 -25.834 15 -42.501c0 -10.667 -2 -20.334 -6 -29.001s-9.5 -15.834 -16.5 -21.501s-14.833 -10.167 -23.5 -13.5
s-17.667 -5 -27 -5zM72.999 -165.994c5.33301 -1.33301 11.833 -2.50195 19.5 -3.50195s14.167 -1.5 19.5 -1.5c12 0 24.833 2.16699 38.5 6.5s27.5 12.5 41.5 24.5s27.5 29.333 40.5 52s25.167 52 36.5 88h-21l-196 486l-51 9v51h226v-51l-70 -10l114 -328l33 -99l29 99
l99 329l-77 9v51h211v-51l-54 -8c-22 -63.333 -41.167 -118.833 -57.5 -166.5s-30.666 -89.167 -42.999 -124.5s-22.833 -65.166 -31.5 -89.499s-15.834 -44.666 -21.501 -60.999s-10.334 -29.5 -14.001 -39.5s-6.83398 -18.333 -9.50098 -25
c-12.667 -32.667 -25.5 -62 -38.5 -88s-26.667 -48.5 -41 -67.5s-29.666 -34.5 -45.999 -46.5s-34.5 -20.667 -54.5 -26c-13.333 -3.33301 -27.666 -4.66602 -42.999 -3.99902c-3.33301 0 -7 0.166992 -11 0.5s-7.83301 0.666016 -11.5 0.999023s-7 1 -10 2
s-5.16699 2.16699 -6.5 3.5v78z" />
    <glyph glyph-name="Aogonek" unicode="&#x104;" horiz-adv-x="729" 
d="M1 42l70.002 14l254 702h82l243 -702l78 -14v-42h-91c-14.667 -6 -30 -14.333 -46 -25s-30.667 -22.5 -44 -35.5s-24.5 -26.167 -33.5 -39.5s-13.5 -25.666 -13.5 -36.999s1.33301 -20.5 4 -27.5s6.66699 -12.667 12 -17s11.833 -7.5 19.5 -9.5
c7 -2 15.833 -3.33301 26.5 -4c10 -0.666992 20.5 0.333008 31.5 3s21.333 6.16699 31 10.5s18.334 8.5 26.001 12.5s13.5 7 17.5 9l11 -43c-6.66699 -4.66699 -14.834 -10.334 -24.501 -17.001s-21.334 -13 -35.001 -19s-29.5 -10.833 -47.5 -14.5
s-38.667 -4.83398 -62 -3.50098c-18 0.666992 -33.167 4 -45.5 10s-22.333 13.333 -30 22s-13.167 18.167 -16.5 28.5s-5 20.833 -5 31.5c0 14.667 4.16699 30.167 12.5 46.5s19.333 31.833 33 46.5s29.167 28.334 46.5 41.001s34.666 23 51.999 31h-87v42l81 14l-52 157
h-293l-53 -157l81 -14v-42h-233v42zM479.002 271l-79 238l-46 147l-129 -385h254z" />
    <glyph glyph-name="aogonek" unicode="&#x105;" horiz-adv-x="559" 
d="M58 157c2 22.667 9.16992 42.668 21.5029 60.001s27.666 32.166 45.999 44.499s38.666 22.5 60.999 30.5s44.666 14.5 66.999 19.5s44 8.5 65 10.5s39.167 3 54.5 3v42c0 26 -3.5 47 -10.5 63s-16.5 28.5 -28.5 37.5s-26.167 15.167 -42.5 18.5s-33.833 5 -52.5 5
c-9.33301 0 -20 -0.833008 -32 -2.5s-24.167 -4.16699 -36.5 -7.5s-24.833 -7.33301 -37.5 -12s-24.667 -9.66699 -36 -15l-18 44c12 10 26.667 18.667 44 26s35.166 13.333 53.499 18s36.166 8.16699 53.499 10.5s32.333 3.5 45 3.5c26 0 50.5 -2.66699 73.5 -8
s43.333 -14.666 61 -27.999s31.667 -31.5 42 -54.5s15.5 -52.5 15.5 -88.5l-1 -335h62v-33c-2 -1.33301 -3.66699 -2 -5 -2l13 2c-18 -9.33301 -35.167 -19.666 -51.5 -30.999s-30.666 -23.166 -42.999 -35.499s-22.166 -24.666 -29.499 -36.999s-11 -24.166 -11 -35.499
c0 -18.667 4.5 -32.667 13.5 -42s20.167 -15 33.5 -17s27.833 -1.5 43.5 1.5s30.5 7.16699 44.5 12.5v-43c-11.333 -8.66699 -24.666 -15.834 -39.999 -21.501s-31.333 -9.5 -48 -11.5s-33 -2 -49 0s-30.5 6.66699 -43.5 14s-23.5 17.5 -31.5 30.5s-12 29.167 -12 48.5
c0 14 3.5 28.167 10.5 42.5s16 28.166 27 41.499s23.667 25.5 38 36.5s28.5 19.5 42.5 25.5c-6 0 -12 0.666992 -18 2s-11.5 3.66602 -16.5 6.99902s-9.16699 8.33301 -12.5 15s-5 15.667 -5 27v14c-7.33301 -9.33301 -16.166 -17.833 -26.499 -25.5
s-22.166 -14.5 -35.499 -20.5s-28.333 -10.667 -45 -14s-35.334 -5 -56.001 -5c-25.333 0 -48.333 4.66699 -69 14s-37.834 21.666 -51.501 36.999s-23.834 33.166 -30.501 53.499s-8.66699 41.833 -6 64.5zM152.003 155.001c0 -19.333 2.66504 -35.667 7.99805 -49
s13 -24 23 -32s22.167 -14 36.5 -18s30.5 -6 48.5 -6c10 0 19.833 1.33301 29.5 4s19.167 6 28.5 10s18 8.5 26 13.5s14.667 9.83301 20 14.5v91.5c0 30.333 0.333008 60.5 1 90.5c-14 0 -29.167 -0.666992 -45.5 -2s-32.666 -3.83301 -48.999 -7.5
s-32.166 -8.33398 -47.499 -14.001s-28.833 -13 -40.5 -22s-21 -19.667 -28 -32s-10.5 -26.166 -10.5 -41.499z" />
    <glyph glyph-name="Eogonek" unicode="&#x118;" horiz-adv-x="644" 
d="M50 42l81.999 14v646l-80 8v48h507l14 -139h-54l-22 82l-270 6v-285l182 4l14 76h50v-210h-50l-14 75l-182 3v-317l290 9l49 101l47 -12l-22 -151c-14.667 -6 -30 -14.333 -46 -25s-30.667 -22.5 -44 -35.5s-24.333 -26.167 -33 -39.5s-13 -25.666 -13 -36.999
s1.33301 -20.5 4 -27.5s6.66699 -12.667 12 -17s11.833 -7.5 19.5 -9.5s16.5 -3.33301 26.5 -4s20.5 0.333008 31.5 3s21.333 6.16699 31 10.5s18.334 8.5 26.001 12.5s13.5 7 17.5 9l10 -43c-6.66699 -4.66699 -14.667 -10.334 -24 -17.001s-20.833 -13 -34.5 -19
s-29.5 -10.833 -47.5 -14.5s-39 -4.83398 -63 -3.50098c-18 0.666992 -33 4 -45 10s-21.833 13.333 -29.5 22s-13.167 18.167 -16.5 28.5s-5 20.833 -5 31.5c0 14.667 4.16699 30.167 12.5 46.5s19.333 31.833 33 46.5s29 28.334 46 41.001s34.167 23 51.5 31h-461v42z" />
    <glyph glyph-name="eogonek" unicode="&#x119;" horiz-adv-x="559" 
d="M49 271c0 41.333 6.5 79.6602 19.5 114.993s31.333 66 55 92s52.167 46.333 85.5 61c33.333 14 70 21.667 110 23c28.667 0.666992 54.5 -3.33301 77.5 -12s42.667 -21.834 59 -39.501s29.166 -39.167 38.499 -64.5s14.666 -54.333 15.999 -87
c0.666992 -20.667 0.166992 -38.334 -1.5 -53.001s-3.16699 -28 -4.5 -40h-362v-5.5c0 -1.66699 0.333008 -3.5 1 -5.5c1.33301 -39.333 8 -71.833 20 -97.5s27 -46.167 45 -61.5s37.833 -26 59.5 -32s43.167 -9 64.5 -9c12.667 0 26 0.833008 40 2.5
s27.5 3.83398 40.5 6.50098s25.167 5.83398 36.5 9.50098s20.333 7.16699 27 10.5l18 -41l-1 -1h1l-10 -7c-14 -10 -31.5 -18.333 -52.5 -25s-43.167 -12 -66.5 -16c17.333 10.667 36.666 19.667 57.999 27l70 21c-1.33301 -1.33301 -2.66602 -2.5 -3.99902 -3.5
s-3 -2.16699 -5 -3.5c-24 -18 -44 -34.5 -60 -49.5s-28.833 -28.833 -38.5 -41.5s-16.667 -24.167 -21 -34.5s-6.5 -20.166 -6.5 -29.499c0 -18.667 4.66699 -33.167 14 -43.5s21 -17.166 35 -20.499s29 -4 45 -2s31 5.66699 45 11v-43
c-11.333 -8.66699 -24.666 -15.5 -39.999 -20.5s-31.5 -8.16699 -48.5 -9.5s-33.833 -0.5 -50.5 2.5s-31.5 8.5 -44.5 16.5s-23.5 18.667 -31.5 32s-12 29.666 -12 48.999c0 10.667 2 22.334 6 35.001s10 25.334 18 38.001s18 24.834 30 36.501s25.667 22.5 41 32.5
c-12 -2 -23.833 -3.5 -35.5 -4.5s-23.5 -1.5 -35.5 -1.5c-39.333 0 -74.166 6.83301 -104.499 20.5s-55.833 32.834 -76.5 57.501s-36.5 54.334 -47.5 89.001s-16.5 73.334 -16.5 116.001zM410 323.994c0.666992 16.667 0.833984 33.333 0.500977 50s-2.33301 32.5 -6 47.5
s-9.16699 28.833 -16.5 41.5s-17 23 -29 31c-8.66699 5.33301 -18.334 9.33301 -29.001 12s-23 4 -37 4c-18 0 -35.5 -3.33301 -52.5 -10s-32.333 -17.5 -46 -32.5s-25 -34.333 -34 -58s-14.833 -52.167 -17.5 -85.5h267z" />
    <glyph glyph-name="hbar" unicode="&#x127;" horiz-adv-x="685" 
d="M61 42l72.998 10v542h-81v57h81v62l-84 17v43l155 20l23 -11l-1 -131h85v-57h-85v-28l-2 -84c14 12 29.5 22.5 46.5 31.5s34 16.667 51 23s33.5 11.166 49.5 14.499s30.667 5 44 5c33.333 0 60.5 -5 81.5 -15s37.5 -25.5 49.5 -46.5s20.333 -48 25 -81
s7 -72.167 7 -117.5v-244l73 -10v-42h-249v42l82 10v203c0 38 -1 71.167 -3 99.5s-6.66699 52.333 -14 72s-18.666 34.334 -33.999 44.001s-36.666 14.5 -63.999 14.5c-10.667 0 -22 -0.666992 -34 -2s-24.167 -3.5 -36.5 -6.5s-24.5 -7.16699 -36.5 -12.5
s-23.667 -12 -35 -20v-392l71 -10v-42h-238v42z" />
    <glyph glyph-name="Itilde" unicode="&#x128;" horiz-adv-x="372" 
d="M-6 854c6 11.333 14.001 22.1699 24.001 32.5029s21 19.166 33 26.499s24.833 13.333 38.5 18s26.834 7 39.501 7c16 0 29.333 -3.33301 40 -10s20.5 -13.834 29.5 -21.501s17.833 -14.667 26.5 -21s19 -9.5 31 -9.5c18.667 0 35.834 4 51.501 12s28.5 17.333 38.5 28
l26 -36c-6 -11.333 -14 -22 -24 -32s-21.167 -18.833 -33.5 -26.5s-25.333 -13.834 -39 -18.501s-26.834 -7 -39.501 -7c-10.667 0 -20 1.66699 -28 5s-15.5 7.33301 -22.5 12s-13.333 9.66699 -19 15s-11.334 10.5 -17.001 15.5s-11.834 9 -18.501 12s-14 4.5 -22 4.5
c-8.66699 0 -17.167 -1.16699 -25.5 -3.5s-16.5 -5.5 -24.5 -9.5s-15.5 -8.5 -22.5 -13.5s-12.833 -9.83301 -17.5 -14.5zM51.001 42.0039l88 14v646l-86 8v48h265v-48l-84 -8v-646l89 -14v-42h-272v42z" />
    <glyph glyph-name="itilde" unicode="&#x129;" horiz-adv-x="333" 
d="M-21 728c6 11.333 14.0029 22.0029 24.0029 32.0029s21 19 33 27s24.833 14.333 38.5 19s26.834 7 39.501 7c16 0 29.333 -3.5 40 -10.5s20.5 -14.5 29.5 -22.5s17.833 -15.5 26.5 -22.5s19 -10.5 31 -10.5c9.33301 0 18.333 1.5 27 4.5s16.834 6.83301 24.501 11.5
s14.667 9.66699 21 15s12.166 10.333 17.499 15l25 -35c-6 -11.333 -14 -22.333 -24 -33s-21 -19.834 -33 -27.501s-24.833 -13.834 -38.5 -18.501s-26.834 -7 -39.501 -7c-10.667 0 -20 1.66699 -28 5s-15.5 7.33301 -22.5 12s-13.333 10 -19 16s-11.5 11.5 -17.5 16.5
s-12.167 9 -18.5 12s-13.5 4.5 -21.5 4.5c-9.33301 0 -18.333 -1.5 -27 -4.5s-16.834 -6.66699 -24.501 -11s-14.834 -9.33301 -21.501 -15s-12.334 -10.834 -17.001 -15.501zM55.0029 42.0029l83 10v400l-68 35v31l136 38l22 -10v-494l79 -10v-42h-252v42z" />
    <glyph glyph-name="dotlessi" unicode="&#x131;" horiz-adv-x="333" 
d="M55 42l83 10v400l-68 35v31l136 38l22 -10v-494l79 -10v-42h-252v42z" />
    <glyph glyph-name="IJ" unicode="&#x132;" horiz-adv-x="724" 
d="M331 -156c18 6 35.165 13 51.498 21s31.333 17.333 45 28s25.667 22.5 36 35.5s18.833 27.167 25.5 42.5c4.66699 14 8.5 29 11.5 45s5.33301 33.167 7 51.5s2.66699 38 3 59s0.5 44.167 0.5 69.5v506l-80 8v48h255v-48l-80 -8v-433c0 -23.333 0.166992 -46 0.5 -68
s0.333008 -43.333 0 -64s-1.16602 -40.5 -2.49902 -59.5s-3.66602 -36.833 -6.99902 -53.5c-6.66699 -32 -18 -60.5 -34 -85.5s-35.167 -46.333 -57.5 -64s-46.333 -32 -72 -43s-51.5 -18.167 -77.5 -21.5zM50.998 42l88 14v646l-86 8v48h265v-48l-84 -8v-646l89 -14v-42
h-272v42z" />
    <glyph glyph-name="ij" unicode="&#x133;" horiz-adv-x="650" 
d="M493 686c-8 0 -15.832 1.33398 -23.499 4.00098s-14.334 6.5 -20.001 11.5s-10.167 11.167 -13.5 18.5s-5 16 -5 26s2.16699 19.333 6.5 28s10 16.167 17 22.5s14.833 11.333 23.5 15s17.334 5.5 26.001 5.5c21.333 0 37 -6 47 -18s15 -26.333 15 -43
c0 -10.667 -2.16699 -20.334 -6.5 -29.001s-9.83301 -16 -16.5 -22s-14.334 -10.667 -23.001 -14s-17.667 -5 -27 -5zM163.001 671.001c-8 0 -15.832 1.50195 -23.499 4.50195s-14.334 7 -20.001 12s-10.167 11.167 -13.5 18.5s-5 15.666 -5 24.999
c0 10 2.16699 19.5 6.5 28.5s10 16.667 17 23s14.833 11.333 23.5 15s17.334 5.5 26.001 5.5c21.333 0 37 -6 47 -18s15 -26.333 15 -43c0 -10.667 -2.16699 -20.334 -6.5 -29.001s-9.83301 -16 -16.5 -22s-14.334 -10.833 -23.001 -14.5s-17.667 -5.5 -27 -5.5z
M329.002 -176.997c2.66699 -0.666992 6.5 -1.33203 11.5 -1.99902s10.167 -1.33398 15.5 -2.00098s10.333 -1 15 -1h12c15.333 0 28.5 3 39.5 9s19.833 16 26.5 30s11.5 32.667 14.5 56s4.5 52 4.5 86v453l-68 36v29l137 39l23 -10v-554c0 -38 -4.16699 -72 -12.5 -102
s-20.333 -55.5 -36 -76.5s-34.334 -37 -56.001 -48s-46.167 -16.5 -73.5 -16.5c-3.33301 0 -7.66602 0.166992 -12.999 0.5l-16 1c-5.33301 0.333008 -10.333 1 -15 2s-7.66699 2.16699 -9 3.5v67zM55.002 42.0049l83 10v400l-68 35v31l136 38l22 -10v-494l79 -10v-42h-252
v42z" />
    <glyph glyph-name="Jcircumflex" unicode="&#x134;" horiz-adv-x="351" 
d="M17 812l124 126h92l125 -125l-42 -24l-129 82l-132 -82zM116 -29c4.66699 14 8.49707 29 11.4971 45s5.33301 33.167 7 51.5s2.83398 38 3.50098 59s1 44.167 1 69.5v506l-81 8v48h255v-48l-79 -8v-433v-68c0 -22 -0.166992 -43.333 -0.5 -64
s-1.16602 -40.5 -2.49902 -59.5s-3.33301 -36.833 -6 -53.5c-6.66699 -32 -18.167 -60.5 -34.5 -85.5s-35.5 -46.333 -57.5 -64s-46 -32 -72 -43s-52 -18.167 -78 -21.5l-25 34c18 6 35.333 13 52 21s31.834 17.333 45.501 28s25.667 22.5 36 35.5s18.5 27.167 24.5 42.5z
" />
    <glyph glyph-name="jcircumflex" unicode="&#x135;" horiz-adv-x="317" 
d="M0 674l134 193h92l128 -192l-42 -23l-132 131l-143 -131zM134 452l-68.0039 36.0029v29l138 39l22 -10v-554c0 -38 -4.16699 -72 -12.5 -102s-20.166 -55.5 -35.499 -76.5s-34 -37 -56 -48s-46.333 -16.5 -73 -16.5c-3.33301 0 -7.83301 0.166992 -13.5 0.5
s-11.167 0.666016 -16.5 0.999023s-10.166 1 -14.499 2s-7.16602 2.16699 -8.49902 3.5v67c2.66699 -0.666992 6.33398 -1.33398 11.001 -2.00098s9.66699 -1.33398 15 -2.00098s10.5 -1 15.5 -1h11.5c15.333 0 28.5 3 39.5 9s19.833 16 26.5 30s11.5 32.667 14.5 56
s4.5 52 4.5 86v453z" />
    <glyph glyph-name="Kcommaaccent" unicode="&#x136;" horiz-adv-x="692" 
d="M52 42l82.0039 14.001v646l-80 8v48h255v-48l-80 -8v-337l278 337l-75 8c0 8 -0.166992 16 -0.5 24s-0.5 16 -0.5 24h244v-48l-80 -8l-229 -264c8 -9.33301 17.5 -21.833 28.5 -37.5s22.667 -33.167 35 -52.5s25.166 -40 38.499 -62s26.666 -43.667 39.999 -65
s26.166 -41.833 38.499 -61.5s23.833 -36.834 34.5 -51.501s20 -26.334 28 -35.001s13.667 -13 17 -13l79 -18v-42h-151c-4 0 -9.83301 4.33301 -17.5 13s-16.167 20.5 -25.5 35.5s-19.666 32.167 -30.999 51.5s-22.833 39.5 -34.5 60.5s-23.667 42.333 -36 64
s-24.333 42 -36 61s-22.834 36.333 -33.501 52s-20.334 27.834 -29.001 36.501l-82 -94v-225l90 -13v-42h-267v42zM398.004 -19.999c16.667 -4.66699 31.3359 -11.4961 44.0029 -20.4961s23.167 -19.167 31.5 -30.5s14.666 -23.333 18.999 -36s6.5 -25 6.5 -37
c0 -22 -4.33301 -42.667 -13 -62s-19.334 -36.333 -32.001 -51s-26 -26.834 -40 -36.501s-26.667 -15.834 -38 -18.501l-27 24v13c9.33301 4 17.166 10 23.499 18s11.5 17.167 15.5 27.5s6.66699 21.166 8 32.499s2 22.333 2 33c0 9.33301 -1.66699 18.166 -5 26.499
s-7.5 15.5 -12.5 21.5s-10.5 10.667 -16.5 14s-11 5 -15 5v26z" />
    <glyph glyph-name="kcommaaccent" unicode="&#x137;" horiz-adv-x="622" 
d="M54 42l80 10v661l-88 17v43l162 20l20 -11v-438l-3 -75l217 224l-73 7v51h230v-51l-74 -8l-166 -167l206 -273l67 -10v-42h-237v42l68 11l-161 225l-77 -77l3 -95v-55l70 -9v-42h-244v42zM342 -20c16.667 -4.66699 31.333 -11.4961 44 -20.4961
s23.167 -19.167 31.5 -30.5s14.5 -23.333 18.5 -36s6 -25 6 -37c0 -22 -4.16699 -42.667 -12.5 -62s-18.833 -36.333 -31.5 -51s-26.167 -26.834 -40.5 -36.501s-26.833 -15.834 -37.5 -18.501l-27 24v13c9.33301 4 17.166 10 23.499 18s11.333 17.167 15 27.5
s6.33398 21.166 8.00098 32.499s2.5 22.333 2.5 33c0 9.33301 -1.66699 18.166 -5 26.499s-7.66602 15.5 -12.999 21.5s-10.833 10.667 -16.5 14s-10.834 5 -15.501 5v26z" />
    <glyph glyph-name="kgreenlandic" unicode="&#x138;" horiz-adv-x="622" 
d="M54 42l80 10v427l-88 18v43l162 20l20 -11v-205l-3 -75l217 224l-73 7v51h230v-51l-74 -8l-166 -167l206 -273l67 -10v-42h-237v42l68 11l-161 225l-77 -77l3 -95v-55l70 -9v-42h-244v42z" />
    <glyph glyph-name="Ldotaccent" unicode="&#x13f;" horiz-adv-x="679" 
d="M52 42l82 14v641l-80 8v53h262v-53l-86 -8l-1 -642l261 11l60 117l43 -21l-32 -162h-509v42zM521 408c0 10 2.33105 19.334 6.99805 28.001s10.334 16.167 17.001 22.5s14.334 11.333 23.001 15s17.334 5.5 26.001 5.5c21.333 0 37 -6 47 -18s15 -26.333 15 -43
c0 -10.667 -2 -20.334 -6 -29.001s-9.5 -16 -16.5 -22s-14.833 -10.667 -23.5 -14s-17.667 -5 -27 -5c-8 0 -15.667 1.33301 -23 4s-13.833 6.5 -19.5 11.5s-10.334 11.333 -14.001 19s-5.5 16.167 -5.5 25.5z" />
    <glyph glyph-name="ldot" unicode="&#x140;" horiz-adv-x="522" 
d="M53 42l83 10v661l-78 17v43l152 20l20 -11v-730l87 -10v-42h-264v42zM363 389c0 10 2.16602 19.5039 6.49902 28.5039s9.83301 16.667 16.5 23s14.334 11.166 23.001 14.499s17.667 5 27 5c21.333 0 37 -5.83301 47 -17.5s15 -25.834 15 -42.501
c0 -10.667 -2.16699 -20.5 -6.5 -29.5s-10 -16.5 -17 -22.5s-14.833 -10.667 -23.5 -14s-17.667 -5 -27 -5c-8 0 -15.667 1.33301 -23 4s-13.833 6.66699 -19.5 12s-10.167 11.666 -13.5 18.999s-5 15.666 -5 24.999z" />
    <glyph glyph-name="Lslash" unicode="&#x141;" horiz-adv-x="607" 
d="M52 42l81.998 14.001v219l-87 -33v35v35l6.5 3c4.33301 2 10.333 4.5 18 7.5s16.834 6.66699 27.501 11s22.334 9.16602 35.001 14.499v349l-80 8v53h262v-53l-86 -8l-1 -312c31.333 12.667 62.833 25.167 94.5 37.5s60.167 23.833 85.5 34.5c30 12 59 23.333 87 34v-78
l-267 -102v-256l261 11l60 117l43 -21l-32 -162h-509v42z" />
    <glyph glyph-name="lslash" unicode="&#x142;" horiz-adv-x="340" 
d="M53 42l83 10v322l-76 -30v67l76 31v271l-78 17v43l152 20l20 -11v-302l90 38v-72l-90 -36v-358l87 -10v-42h-264v42z" />
    <glyph glyph-name="Nacute" unicode="&#x143;" horiz-adv-x="811" 
d="M375 811l150 127.001l71 -73c-15.333 -10 -31.166 -19.333 -47.499 -28s-32.833 -16.334 -49.5 -23.001s-33.334 -12.5 -50.001 -17.5s-32.667 -8.83301 -48 -11.5zM51 42.001l83 14v641l-80 8v53h173l327 -534l69 -134v607l-80 9v52h231v-52l-81 -9v-697h-100l-322 508
l-67 136v-588l95 -14v-42h-248v42z" />
    <glyph glyph-name="nacute" unicode="&#x144;" horiz-adv-x="681" 
d="M296 681l144.001 188.002l71 -73c-10 -14.667 -22.833 -29.167 -38.5 -43.5s-32.334 -27.833 -50.001 -40.5s-35.5 -23.834 -53.5 -33.501s-33.667 -17.834 -47 -24.501zM67.001 42.002l66.9971 8.99805v398l-70 38v31l130 38l22 -10v-69
c11.333 9.33301 24.833 18.666 40.5 27.999s32.334 17.666 50.001 24.999s35.667 13.333 54 18s35.833 7.33398 52.5 8.00098c30 0.666992 55.333 -3 76 -11s37.334 -21.333 50.001 -40s21.834 -42.667 27.501 -72s8.5 -64.666 8.5 -105.999v-276l78 -9v-42h-246v42l74 10
v258c0 29.333 -1.5 55.333 -4.5 78s-8.83301 41.334 -17.5 56.001s-20.667 25.334 -36 32.001s-35.333 9.66699 -60 9c-20 -0.666992 -41.167 -5.16699 -63.5 -13.5s-45.833 -20.833 -70.5 -37.5v-382l72 -10v-42h-234v42z" />
    <glyph glyph-name="OE" unicode="&#x152;" horiz-adv-x="1010" 
d="M44 367c1.33301 62 11.3311 117.501 29.998 166.501s43.834 90.333 75.501 124s68.334 59.667 110.001 78s86.167 28.166 133.5 29.499c26.667 0 52 -2.33301 76 -7h462l14 -139h-53l-23 82l-258 6v-284l180 4l15 76h49v-210h-49l-15 75l-180 3v-318l274 9l49 101l47 -12
l-22 -151h-492c-14 -4 -28.5 -7.16699 -43.5 -9.5s-30.167 -3.83301 -45.5 -4.5c-51.333 -0.666992 -97.833 8.33301 -139.5 27s-77.167 45.167 -106.5 79.5s-51.5 74.833 -66.5 121.5s-22.167 97.667 -21.5 153zM385.998 38.001c26 0 49.8311 4.00098 71.498 12.001
s41.5 20 59.5 36v573c-17.333 16.667 -37.166 29.834 -59.499 39.501s-46.833 14.5 -73.5 14.5c-36 0 -68.333 -7.66699 -97 -23s-53.167 -37.833 -73.5 -67.5s-36.166 -66 -47.499 -109s-17 -91.5 -17 -145.5c0 -42.667 5.33301 -83.834 16 -123.501
s26.167 -74.834 46.5 -105.501s45 -55.167 74 -73.5s62.5 -27.5 100.5 -27.5z" />
    <glyph glyph-name="oe" unicode="&#x153;" horiz-adv-x="990" 
d="M50 284c0.666992 43.333 8.33496 82.334 23.002 117.001s33.834 63.834 57.501 87.501s51 41.834 82 54.501s63.5 19 97.5 19c26.667 0 51 -2.83301 73 -8.5s41.833 -14.167 59.5 -25.5s33.167 -25 46.5 -41s24.333 -33.667 33 -53
c23.333 39.333 54.666 70.333 93.999 93c39.333 22 84.333 33.667 135 35c28.667 0.666992 54.5 -3.33301 77.5 -12s42.667 -21.834 59 -39.501s29.166 -39.167 38.499 -64.5s14.666 -54.333 15.999 -87c0.666992 -20.667 0.166992 -38.334 -1.5 -53.001
s-3.16699 -28 -4.5 -40h-362v-5.5c0 -1.66699 0.333008 -3.5 1 -5.5c1.33301 -39.333 8 -71.833 20 -97.5s27 -46.167 45 -61.5s37.833 -26 59.5 -32s43.167 -9 64.5 -9c12.667 0 26 0.833008 40 2.5s27.5 3.83398 40.5 6.50098s25.167 5.83398 36.5 9.50098
s20.333 7.16699 27 10.5l18 -41c-9.33301 -8.66699 -21.5 -16.334 -36.5 -23.001s-31.5 -12.334 -49.5 -17.001s-36.833 -8.33398 -56.5 -11.001s-38.5 -4 -56.5 -4c-52 0 -96 11.333 -132 34s-63.667 54.667 -83 96c-11.333 -20 -24.666 -38 -39.999 -54
s-32.166 -29.667 -50.499 -41s-37.833 -20 -58.5 -26s-42.334 -9 -65.001 -9c-44.667 0 -82.834 8.16699 -114.501 24.5s-57.5 38.166 -77.5 65.499s-34.5 58.833 -43.5 94.5s-13.167 72.834 -12.5 111.501zM302.001 43.001c28 -0.666992 51.502 4.00391 70.502 14.0039
s34.5 24.833 46.5 44.5s20.667 44.167 26 73.5s8 62.666 8 99.999c0 32.667 -2.83301 63.334 -8.5 92.001s-14.667 53.667 -27 75s-27.833 38 -46.5 50s-41 18.333 -67 19c-28 0 -51.5 -4.83301 -70.5 -14.5s-34.833 -24.167 -47.5 -43.5s-21.834 -42.833 -27.501 -70.5
s-8.5 -58.834 -8.5 -93.501c0 -31.333 3.16699 -61.833 9.5 -91.5s15.666 -55.834 27.999 -78.501s28 -40.834 47 -54.501s41.5 -20.834 67.5 -21.501zM842.003 324.005c0.666992 16.667 0.832031 33.333 0.499023 50s-2.16602 32.5 -5.49902 47.5
s-8.66602 28.833 -15.999 41.5s-17.333 23 -30 31c-8.66699 5.33301 -18.334 9.33301 -29.001 12s-22.667 4 -36 4c-18 0 -35.667 -3.33301 -53 -10s-32.833 -17.5 -46.5 -32.5s-25 -34.333 -34 -58s-14.833 -52.167 -17.5 -85.5h267z" />
    <glyph glyph-name="Racute" unicode="&#x154;" horiz-adv-x="692" 
d="M310 811l149.003 127.001l72 -73c-15.333 -10 -31.333 -19.333 -48 -28s-33.334 -16.334 -50.001 -23.001s-33.334 -12.5 -50.001 -17.5s-32.334 -8.83301 -47.001 -11.5zM42.0029 42.001l92.001 14v641l-80 8v53h128c15.333 0 35.5 1.16699 60.5 3.5
s53.833 3.5 86.5 3.5c37.333 0 71.666 -3 102.999 -9s58.333 -16.833 81 -32.5s40.334 -36.5 53.001 -62.5s19 -58.667 19 -98c0 -25.333 -3.83301 -49.166 -11.5 -71.499s-18.667 -42.833 -33 -61.5s-31.666 -35 -51.999 -49s-42.5 -25 -66.5 -33
c1.33301 -0.666992 2.83301 -1.33398 4.5 -2.00098s3.5 -1.33398 5.5 -2.00098c15.333 -8 30.166 -20.167 44.499 -36.5s28 -34.833 41 -55.5s25.5 -42 37.5 -64s23.5 -42.333 34.5 -61s21.333 -34.5 31 -47.5s18.5 -20.833 26.5 -23.5l53 -14v-42h-141
c-6 0 -12.833 4.83301 -20.5 14.5s-15.667 22.5 -24 38.5s-17.333 34.167 -27 54.5s-19.834 40.833 -30.501 61.5s-21.667 41 -33 61s-23.333 37.5 -36 52.5s-25.667 26.833 -39 35.5s-27 12.334 -41 11.001c-11.333 -0.666992 -23.5 -1 -36.5 -1h-42.5v-272l102 -14v-42
h-289v42zM229.004 383.001c4 -0.666992 9.83398 -1.16797 17.501 -1.50098s15.834 -0.5 24.501 -0.5s17 -0.166992 25 -0.5s14.667 -0.5 20 -0.5c26 0 49.5 3.33301 70.5 10s38.833 16.834 53.5 30.501s26 31.334 34 53.001s12 47.834 12 78.501
c0 25.333 -2.83301 48 -8.5 68s-15 37.167 -28 51.5s-30.333 25.166 -52 32.499s-48.834 10.333 -81.501 9c-16 -0.666992 -31.333 -1.33398 -46 -2.00098s-28.334 -2.66699 -41.001 -6v-322z" />
    <glyph glyph-name="Rcommaaccent" unicode="&#x156;" horiz-adv-x="692" 
d="M42 42l92.001 14v641l-80 8v53h128c15.333 0 35.5 1.16699 60.5 3.5s53.833 3.5 86.5 3.5c37.333 0 71.666 -3 102.999 -9s58.333 -16.833 81 -32.5s40.334 -36.5 53.001 -62.5s19 -58.667 19 -98c0 -25.333 -3.83301 -49.166 -11.5 -71.499s-18.667 -42.833 -33 -61.5
s-31.666 -35 -51.999 -49s-42.5 -25 -66.5 -33c1.33301 -0.666992 2.83301 -1.33398 4.5 -2.00098s3.5 -1.33398 5.5 -2.00098c15.333 -8 30.166 -20.167 44.499 -36.5s28 -34.833 41 -55.5s25.5 -42 37.5 -64s23.5 -42.333 34.5 -61s21.333 -34.5 31 -47.5
s18.5 -20.833 26.5 -23.5l53 -14v-42h-141c-6 0 -12.833 4.83301 -20.5 14.5s-15.667 22.5 -24 38.5s-17.333 34.167 -27 54.5s-19.834 40.833 -30.501 61.5s-21.667 41 -33 61s-23.333 37.5 -36 52.5s-25.667 26.833 -39 35.5s-27 12.334 -41 11.001
c-11.333 -0.666992 -23.5 -1 -36.5 -1h-42.5v-272l102 -14v-42h-289v42zM229.001 383c4 -0.666992 9.83398 -1.16797 17.501 -1.50098s15.834 -0.5 24.501 -0.5s17 -0.166992 25 -0.5s14.667 -0.5 20 -0.5c26 0 49.5 3.33301 70.5 10s38.833 16.834 53.5 30.501
s26 31.334 34 53.001s12 47.834 12 78.501c0 25.333 -2.83301 48 -8.5 68s-15 37.167 -28 51.5s-30.333 25.166 -52 32.499s-48.834 10.333 -81.501 9c-16 -0.666992 -31.333 -1.33398 -46 -2.00098s-28.334 -2.66699 -41.001 -6v-322zM371.002 -20.001
c16.667 -4.66699 31.333 -11.4961 44 -20.4961s23.167 -19.167 31.5 -30.5s14.5 -23.333 18.5 -36s6 -25 6 -37c0 -22 -4.33301 -42.667 -13 -62s-19.167 -36.333 -31.5 -51s-25.666 -26.834 -39.999 -36.501s-26.833 -15.834 -37.5 -18.501l-27 24v13
c9.33301 4 17 10 23 18s11 17.167 15 27.5s6.83301 21.166 8.5 32.499s2.5 22.333 2.5 33c0 9.33301 -1.83301 18.166 -5.5 26.499s-8 15.5 -13 21.5s-10.333 10.667 -16 14s-10.834 5 -15.501 5v26z" />
    <glyph glyph-name="rcommaaccent" unicode="&#x157;" horiz-adv-x="450" 
d="M55 42l79 10v397l-70 38v31l129 38l23 -10v-75c6 9.33301 15.333 19 28 29s26.834 19.167 42.501 27.5s32 15.166 49 20.499s32.833 8 47.5 8c10.667 0 20.334 -0.166992 29.001 -0.5s15 -1.16602 19 -2.49902v-100c-5.33301 2 -10.833 4 -16.5 6
s-11.834 3.66699 -18.501 5s-14.167 2.5 -22.5 3.5s-18.166 1.5 -29.499 1.5c-26.667 0 -48.834 -3.33301 -66.501 -10s-33.834 -14.667 -48.501 -24v-382l139 -11v-42h-313v42zM179 -20c16.667 -4.66699 31.335 -11.4961 44.002 -20.4961s23.167 -19.167 31.5 -30.5
s14.5 -23.333 18.5 -36s6 -25 6 -37c0 -22 -4.33301 -42.667 -13 -62s-19.334 -36.333 -32.001 -51s-26 -26.834 -40 -36.501s-26.333 -15.834 -37 -18.501l-28 24v13c9.33301 4 17.166 10 23.499 18s11.5 17.167 15.5 27.5s6.83301 21.166 8.5 32.499s2.5 22.333 2.5 33
c0 9.33301 -1.83301 18.166 -5.5 26.499s-8 15.5 -13 21.5s-10.5 10.667 -16.5 14s-11 5 -15 5v26z" />
    <glyph glyph-name="Rcaron" unicode="&#x158;" horiz-adv-x="692" 
d="M180 914l43 24l119 -83l122 83l38 -23l-114 -126h-92zM42 42l92.0029 14v641l-80 8v53h128c15.333 0 35.5 1.16699 60.5 3.5s53.833 3.5 86.5 3.5c37.333 0 71.666 -3 102.999 -9s58.333 -16.833 81 -32.5s40.334 -36.5 53.001 -62.5s19 -58.667 19 -98
c0 -25.333 -3.83301 -49.166 -11.5 -71.499s-18.667 -42.833 -33 -61.5s-31.666 -35 -51.999 -49s-42.5 -25 -66.5 -33c1.33301 -0.666992 2.83301 -1.33398 4.5 -2.00098s3.5 -1.33398 5.5 -2.00098c15.333 -8 30.166 -20.167 44.499 -36.5s28 -34.833 41 -55.5
s25.5 -42 37.5 -64s23.5 -42.333 34.5 -61s21.333 -34.5 31 -47.5s18.5 -20.833 26.5 -23.5l53 -14v-42h-141c-6 0 -12.833 4.83301 -20.5 14.5s-15.667 22.5 -24 38.5s-17.333 34.167 -27 54.5s-19.834 40.833 -30.501 61.5s-21.667 41 -33 61s-23.333 37.5 -36 52.5
s-25.667 26.833 -39 35.5s-27 12.334 -41 11.001l46 36c6.66699 -2.66699 13.167 -5 19.5 -7s12.166 -3.33301 17.499 -4s10.666 -1.5 15.999 -2.5s10.333 -2.16699 15 -3.5c-5.33301 -2 -10.833 -3.83301 -16.5 -5.5s-11.167 -3.16699 -16.5 -4.5
c-18 -4 -39.667 -6.66699 -65 -8s-57 -2 -95 -2v-272l102 -14v-42h-289v42zM229.003 383c4 -0.666992 9.83398 -1.16797 17.501 -1.50098s15.834 -0.5 24.501 -0.5s17 -0.166992 25 -0.5s14.667 -0.5 20 -0.5c26 0 49.5 3.33301 70.5 10s38.833 16.834 53.5 30.501
s26 31.334 34 53.001s12 47.834 12 78.501c0 25.333 -2.83301 48 -8.5 68s-15 37.167 -28 51.5s-30.333 25.166 -52 32.499s-48.834 10.333 -81.501 9c-16 -0.666992 -31.333 -1.33398 -46 -2.00098s-28.334 -2.66699 -41.001 -6v-322z" />
    <glyph glyph-name="rcaron" unicode="&#x159;" horiz-adv-x="450" 
d="M105 844l42 22l138 -130l137 131l37 -23l-128 -192h-93zM55 42l79 10v397l-70 38v31l129 38l23 -10v-75c6 9.33301 15.333 19 28 29s26.834 19.167 42.501 27.5s32 15.166 49 20.499s32.833 8 47.5 8c10.667 0 20.334 -0.166992 29.001 -0.5s15 -1.16602 19 -2.49902
v-100c-5.33301 2 -10.833 4 -16.5 6s-11.834 3.66699 -18.501 5s-14.167 2.5 -22.5 3.5s-18.166 1.5 -29.499 1.5c-26.667 0 -48.834 -3.33301 -66.501 -10s-33.834 -14.667 -48.501 -24v-382l139 -11v-42h-313v42z" />
    <glyph glyph-name="Scaron" unicode="&#x160;" horiz-adv-x="600" 
d="M152 914l43 24l119 -83l122 83l38 -23l-114 -126h-92zM72 187l43.001 0.00488281l31 -97c10 -10 21.333 -18.333 34 -25s26 -12 40 -16s28.667 -6.83301 44 -8.5s30 -2.5 44 -2.5c18 0 35.833 2.5 53.5 7.5s33.667 12.667 48 23s25.833 23.666 34.5 39.999
s13 35.833 13 58.5c0 20.667 -5 39.667 -15 57s-23.333 33.166 -40 47.499s-35.834 28.166 -57.501 41.499s-43.834 26.333 -66.501 39c-24.667 14 -49 28.333 -73 43s-45.5 30.834 -64.5 48.501s-34.333 37.5 -46 59.5s-17.5 46.667 -17.5 74
c0 22.667 3.66699 43.167 11 61.5s16.833 34.333 28.5 48s25.5 25.5 41.5 35.5s32.667 18.167 50 24.5s35 11 53 14s35 4.5 51 4.5c24 0 46 -1.16699 66 -3.5s38 -5.33301 54 -9s29.667 -7.66699 41 -12s20.666 -8.5 27.999 -12.5v-136h-42l-38 94c-6 5.33301 -13 10 -21 14
s-17.167 7.16699 -27.5 9.5s-21.333 4.16602 -33 5.49902s-23.167 2 -34.5 2c-13.333 0 -28.166 -2 -44.499 -6s-31.5 -10.833 -45.5 -20.5s-25.667 -22.5 -35 -38.5s-14 -35.667 -14 -59c0 -18.667 4.33301 -35.834 13 -51.501s20.667 -30.167 36 -43.5
s32.833 -26 52.5 -38s40.167 -23.667 61.5 -35c26 -14 52 -28.5 78 -43.5s49.333 -31.667 70 -50s37.5 -38.666 50.5 -60.999s19.5 -47.833 19.5 -76.5c0 -36.667 -6.83301 -67.834 -20.5 -93.501s-32 -46.834 -55 -63.501s-49.833 -28.834 -80.5 -36.501
s-62.667 -11.5 -96 -11.5c-24.667 0 -48.667 1.33301 -72 4s-45.166 6 -65.499 10s-37.833 8.33301 -52.5 13s-25.667 9.33398 -33 14.001v157z" />
    <glyph glyph-name="scaron" unicode="&#x161;" horiz-adv-x="497" 
d="M76 844l42 22l137 -130l138 131l37 -23l-129 -192h-92zM80 142l42.9971 -0.00292969l19 -60c8 -6.66699 16 -12.5 24 -17.5s16.167 -9.16699 24.5 -12.5s17.166 -5.83301 26.499 -7.5s20 -2.83398 32 -3.50098c18 -0.666992 34.667 0.666016 50 3.99902
s28.5 8.83301 39.5 16.5s19.667 17.334 26 29.001s9.5 25.834 9.5 42.501c0 14.667 -4 27.167 -12 37.5s-18.5 19.666 -31.5 27.999s-27.833 16 -44.5 23s-33.667 14.833 -51 23.5c-19.333 9.33301 -38.166 19.333 -56.499 30s-34.666 22.834 -48.999 36.501
s-25.666 28.834 -33.999 45.501s-12.5 36 -12.5 58c0 16.667 3 31.834 9 45.501s13.833 26 23.5 37s20.834 20.5 33.501 28.5s26.167 14.667 40.5 20s29 9.33301 44 12s29.833 4 44.5 4c16 0 31.667 -0.666992 47 -2s29.666 -3.66602 42.999 -6.99902
s25.166 -7.16602 35.499 -11.499s19.5 -8.5 27.5 -12.5v-105h-42l-21 55c-4.66699 4.66699 -9.66699 9.16699 -15 13.5s-11.333 8 -18 11s-14.167 5.5 -22.5 7.5s-17.833 3 -28.5 3c-15.333 0 -29.666 -1.66699 -42.999 -5s-25 -8.16602 -35 -14.499
s-17.833 -14.666 -23.5 -24.999s-8.5 -22.833 -8.5 -37.5c-0.666992 -14.667 2.83301 -27.5 10.5 -38.5s17.834 -20.833 30.501 -29.5s27.334 -16.834 44.001 -24.501s33.667 -15.834 51 -24.501c18 -8.66699 36.167 -17.5 54.5 -26.5s34.833 -19.5 49.5 -31.5
s26.5 -26.333 35.5 -43s13.5 -36.334 13.5 -59.001c0 -28 -5.5 -52.333 -16.5 -73s-26.167 -38 -45.5 -52s-42 -24.5 -68 -31.5s-53.667 -10.5 -83 -10.5s-58.833 3.5 -88.5 10.5s-56.834 17.5 -81.501 31.5v112z" />
    <glyph glyph-name="Ydieresis" unicode="&#x178;" horiz-adv-x="660" 
d="M454 806c-8 0 -15.832 1.33496 -23.499 4.00195s-14.334 6.66699 -20.001 12s-10.167 11.666 -13.5 18.999s-5 15.666 -5 24.999c0 10 2.16699 19.5 6.5 28.5s10 16.667 17 23s14.833 11.333 23.5 15s17.334 5.5 26.001 5.5c21.333 0 37 -6 47 -18s15 -26.333 15 -43
c0 -10.667 -2.16699 -20.5 -6.5 -29.5s-9.83301 -16.5 -16.5 -22.5s-14.334 -10.667 -23.001 -14s-17.667 -5 -27 -5zM226.001 806.002c-8 0 -15.6689 1.33496 -23.002 4.00195s-13.833 6.66699 -19.5 12s-10.167 11.666 -13.5 18.999s-5 15.666 -5 24.999
c0 10 2.16699 19.5 6.5 28.5s9.83301 16.667 16.5 23s14.334 11.333 23.001 15s17.334 5.5 26.001 5.5c21.333 0 37 -6 47 -18s15 -26.333 15 -43c0 -10.667 -2 -20.5 -6 -29.5s-9.5 -16.5 -16.5 -22.5s-14.833 -10.667 -23.5 -14s-17.667 -5 -27 -5zM195.999 42.0039
l100 15v255l-234 390l-56 8v48h240v-48l-75 -8l155 -289l24 -50l22 51l140 287l-83 9v48h225v-48l-64 -13l-199 -386v-254l105 -15v-42h-300v42z" />
    <glyph glyph-name="Zacute" unicode="&#x179;" horiz-adv-x="660" 
d="M330 811l149 127.001l71 -73c-15.333 -10 -31.166 -19.333 -47.499 -28s-32.833 -16.334 -49.5 -23.001s-33.334 -12.5 -50.001 -17.5s-32.667 -8.83301 -48 -11.5zM45 43.001l424 603l50 59l-348 -11l-46 -111l-52 9l15 166h524l14 -42l-421 -603l-48 -59l366 19l63 124
l49 -11l-35 -186h-542z" />
    <glyph glyph-name="Zdotaccent" unicode="&#x17b;" horiz-adv-x="660" 
d="M353 806c-8 0 -15.832 1.33496 -23.499 4.00195s-14.334 6.66699 -20.001 12s-10.167 11.666 -13.5 18.999s-5 15.666 -5 24.999c0 10 2.16699 19.5 6.5 28.5s10 16.667 17 23s14.833 11.333 23.5 15s17.334 5.5 26.001 5.5c21.333 0 37 -6 47 -18s15 -26.333 15 -43
c0 -10.667 -2.16699 -20.5 -6.5 -29.5s-9.83301 -16.5 -16.5 -22.5s-14.334 -10.667 -23.001 -14s-17.667 -5 -27 -5zM45.001 43.002l424 603l50 59l-348 -11l-46 -111l-52 9l15 166h524l14 -42l-421 -603l-48 -59l366 19l63 124l49 -11l-35 -186h-542z" />
    <glyph glyph-name="zdotaccent" unicode="&#x17c;" horiz-adv-x="526" 
d="M260 664c-8 0 -15.6689 1.33691 -23.002 4.00391s-13.833 6.66699 -19.5 12s-10.167 11.666 -13.5 18.999s-5 15.666 -5 24.999c0 10 2.16699 19.5 6.5 28.5s9.83301 16.667 16.5 23s14.334 11.166 23.001 14.499s17.334 5 26.001 5c21.333 0 37 -5.83301 47 -17.5
s15 -25.834 15 -42.501c0 -10.667 -2 -20.5 -6 -29.5s-9.5 -16.5 -16.5 -22.5s-14.833 -10.667 -23.5 -14s-17.667 -5 -27 -5zM42.998 40.0039l34 46l263 367l40 47l-239 -7l-30 -90h-45v143h414l13 -40l-286 -395l-49 -63l259 11l31 82h25h25l-8 -141h-431z" />
    <glyph glyph-name="Zcaron" unicode="&#x17d;" horiz-adv-x="660" 
d="M200 914l42 24l119 -83l122 83l38 -23l-113 -126h-93zM45 43l424 603l50 59l-348 -11l-46 -111l-52 9l15 166h524l14 -42l-421 -603l-48 -59l366 19l63 124l49 -11l-35 -186h-542z" />
    <glyph glyph-name="zcaron" unicode="&#x17e;" horiz-adv-x="526" 
d="M96 844l42 22l137 -130l138 131l37 -23l-129 -192h-92zM43 40l34 46l263 367l40 47l-239 -7l-30 -90h-45v143h414l13 -40l-286 -395l-49 -63l259 11l31 82h25h25l-8 -141h-431z" />
    <glyph glyph-name="florin" unicode="&#x192;" horiz-adv-x="519" 
d="M195 480l-108.002 -0.00390625l3 38l110 28l3 41c2 24 6.83301 46.667 14.5 68s17.334 40.833 29.001 58.5s24.667 33.334 39 47.001s29.333 25.334 45 35.001s31.334 17 47.001 22s30.167 7.5 43.5 7.5c11.333 0 21 -0.333008 29 -1s14.667 -1.33398 20 -2.00098
s9.66602 -1.5 12.999 -2.5s5.66602 -2.16699 6.99902 -3.5l-6 -83c-4.66699 2.66699 -14.667 6 -30 10s-34.666 6 -57.999 6c-13.333 0 -25.333 -1.16699 -36 -3.5s-20.167 -7.66602 -28.5 -15.999s-15.166 -20.666 -20.499 -36.999s-9 -38.166 -11 -65.499l-6 -81h147
l-5 -66h-147l-50 -654h-94z" />
    <glyph glyph-name="dotlessj" unicode="&#x237;" horiz-adv-x="317" 
d="M134 452l-68.0039 36.0029v29l138 39l22 -10v-554c0 -38 -4.16699 -72 -12.5 -102s-20.166 -55.5 -35.499 -76.5s-34 -37 -56 -48s-46.333 -16.5 -73 -16.5c-3.33301 0 -7.83301 0.166992 -13.5 0.5s-11.167 0.666016 -16.5 0.999023s-10.166 1 -14.499 2
s-7.16602 2.16699 -8.49902 3.5v67c2.66699 -0.666992 6.33398 -1.33398 11.001 -2.00098s9.66699 -1.33398 15 -2.00098s10.5 -1 15.5 -1h11.5c15.333 0 28.5 3 39.5 9s19.833 16 26.5 30s11.5 32.667 14.5 56s4.5 52 4.5 86v453z" />
    <glyph glyph-name="circumflex" unicode="&#x2c6;" horiz-adv-x="519" 
d="M80 674l133 193h93l128 -192l-42 -23l-133 131l-142 -131z" />
    <glyph glyph-name="caron" unicode="&#x2c7;" horiz-adv-x="519" 
d="M80 844l42 22l137 -130l138 131l37 -23l-129 -192h-92z" />
    <glyph glyph-name="breve" unicode="&#x2d8;" horiz-adv-x="519" 
d="M259 673c-24.667 0 -46.9961 4.49902 -66.9961 13.499s-37.167 20.667 -51.5 35s-25.333 30.833 -33 49.5s-11.5 38 -11.5 58h46c1.33301 -2 3 -5.5 5 -10.5s4.83301 -10.667 8.5 -17s8.16699 -13 13.5 -20s12.166 -13.333 20.499 -19s18.166 -10.167 29.499 -13.5
s25 -5 41 -5c23.333 0 42.166 3.83301 56.499 11.5s25.666 16.334 33.999 26.001s14.5 19.334 18.5 29.001s7 16.167 9 19.5h44c0 -20 -4 -39.333 -12 -58s-19.333 -35.334 -34 -50.001s-32 -26.5 -52 -35.5s-41.667 -13.5 -65 -13.5z" />
    <glyph glyph-name="dotaccent" unicode="&#x2d9;" horiz-adv-x="280" 
d="M133 664c-8 0 -15.668 1.33691 -23.001 4.00391s-13.833 6.66699 -19.5 12s-10.167 11.666 -13.5 18.999s-5 15.666 -5 24.999c0 10 2.16699 19.5 6.5 28.5s9.83301 16.667 16.5 23s14.334 11.166 23.001 14.499s17.667 5 27 5c21.333 0 37 -5.83301 47 -17.5
s15 -25.834 15 -42.501c0 -10.667 -2.16699 -20.5 -6.5 -29.5s-10 -16.5 -17 -22.5s-14.833 -10.667 -23.5 -14s-17.667 -5 -27 -5z" />
    <glyph glyph-name="ring" unicode="&#x2da;" horiz-adv-x="280" 
d="M140 645c-16.667 0 -32.5 2.99902 -47.5 8.99902s-28 14.333 -39 25s-19.833 23.167 -26.5 37.5s-10 29.5 -10 45.5s3.33301 31.333 10 46s15.5 27.167 26.5 37.5s24 18.666 39 24.999s30.833 9.5 47.5 9.5s32.5 -3.16699 47.5 -9.5s28.167 -14.666 39.5 -24.999
s20.166 -22.666 26.499 -36.999s9.5 -29.833 9.5 -46.5c0 -16 -3.16699 -31.167 -9.5 -45.5s-15.166 -26.833 -26.499 -37.5s-24.5 -19 -39.5 -25s-30.833 -9 -47.5 -9zM140 695.999c8.66699 0 17 1.83398 25 5.50098s15 8.33398 21 14.001s10.667 12.5 14 20.5
s5 16.333 5 25s-1.66699 17 -5 25s-8 14.833 -14 20.5s-13 10.334 -21 14.001s-16.333 5.5 -25 5.5s-17 -1.83301 -25 -5.5s-15 -8.33398 -21 -14.001s-10.667 -12.5 -14 -20.5s-5 -16.333 -5 -25c0 -9.33301 1.66699 -17.833 5 -25.5s8 -14.334 14 -20.001
s13 -10.334 21 -14.001s16.333 -5.5 25 -5.5z" />
    <glyph glyph-name="ogonek" unicode="&#x2db;" horiz-adv-x="346" 
d="M150 4l44.002 -4c-14.667 -6 -29.834 -14.333 -45.501 -25s-30.334 -22.5 -44.001 -35.5s-24.834 -26.167 -33.501 -39.5s-13 -25.666 -13 -36.999s1.33301 -20.5 4 -27.5s6.66699 -12.667 12 -17s11.833 -7.5 19.5 -9.5s16.5 -3.33301 26.5 -4s20.5 0.333008 31.5 3
s21.333 6.16699 31 10.5s18.334 8.5 26.001 12.5s13.5 7 17.5 9l10 -43c-6.66699 -4.66699 -14.667 -10.334 -24 -17.001s-20.833 -13 -34.5 -19s-29.5 -10.833 -47.5 -14.5s-39 -4.83398 -63 -3.50098c-18 0.666992 -33 4 -45 10s-21.833 13.333 -29.5 22
s-13.167 18.167 -16.5 28.5s-5 20.833 -5 31.5c0 14.667 4.16699 30.167 12.5 46.5s19.333 31.833 33 46.5s29 28.334 46 41.001s34.167 23 51.5 31z" />
    <glyph glyph-name="tilde" unicode="&#x2dc;" horiz-adv-x="432" 
d="M27 728c6 11.333 14.0039 22.0029 24.0039 32.0029s21.167 19 33.5 27s25.333 14.333 39 19s26.834 7 39.501 7c16 0 29.333 -3.5 40 -10.5s20.5 -14.5 29.5 -22.5s17.833 -15.5 26.5 -22.5s19 -10.5 31 -10.5c9.33301 0 18.333 1.5 27 4.5s16.834 6.83301 24.501 11.5
s14.667 9.66699 21 15s12.166 10.333 17.499 15l25 -35c-6 -11.333 -14 -22.333 -24 -33s-21 -19.834 -33 -27.501s-24.833 -13.834 -38.5 -18.501s-26.834 -7 -39.501 -7c-10.667 0 -20.167 1.66699 -28.5 5s-15.833 7.33301 -22.5 12s-12.834 10 -18.501 16
s-11.5 11.5 -17.5 16.5s-12.167 9 -18.5 12s-13.5 4.5 -21.5 4.5c-9.33301 0 -18.333 -1.5 -27 -4.5s-16.834 -6.66699 -24.501 -11s-14.834 -9.33301 -21.501 -15s-12.334 -10.834 -17.001 -15.501z" />
    <glyph glyph-name="hungarumlaut" unicode="&#x2dd;" horiz-adv-x="446" 
d="M335 681l157.999 203.002l62 -58c-11.333 -14.667 -25.5 -30.334 -42.5 -47.001s-34.667 -32.834 -53 -48.501s-36.166 -30.167 -53.499 -43.5s-32.333 -24.333 -45 -33zM95.999 681.002l157.999 203.002l61 -58c-11.333 -14.667 -25.333 -30.334 -42 -47.001
s-34.167 -32.834 -52.5 -48.501s-36.166 -30.167 -53.499 -43.5s-32.333 -24.333 -45 -33z" />
    <glyph glyph-name="Delta" unicode="&#x394;" horiz-adv-x="864" 
d="M408 740h16l368 -727l-8 -13h-705l-7 11zM662 59l-264 533l-243 -533h507z" />
    <glyph glyph-name="Delta" unicode="&#x2206;" horiz-adv-x="864" 
d="M408 740h16l368 -727l-8 -13h-705l-7 11zM662 59l-264 533l-243 -533h507z" />
    <glyph glyph-name="Omega" unicode="&#x3a9;" horiz-adv-x="951" 
d="M69 176l49.0059 3.99609l16 -91h166c-20.667 12.667 -41.334 29.167 -62.001 49.5s-39.334 44 -56.001 71s-30 56.667 -40 89s-14.667 66.5 -14 102.5c0.666992 41.333 5.66699 78.666 15 111.999s22 63.333 38 90s35 49.667 57 69s45.667 35.5 71 48.5s52 22.5 80 28.5
s56.667 9 86 9c48 0 92 -7.33301 132 -22s74.5 -36.5 103.5 -65.5s51.333 -64.5 67 -106.5s23.167 -90.333 22.5 -145c-0.666992 -30 -6.16699 -61 -16.5 -93s-23.5 -62.667 -39.5 -92s-34.167 -56.666 -54.5 -81.999s-40.5 -46.333 -60.5 -63h170l34 106l48 -4l-22 -191
h-332v81c25.333 14.667 48.166 33 68.499 55s37.833 47.333 52.5 76s26 60.334 34 95.001s12 71.667 12 111c0 51.333 -6.33301 95.833 -19 133.5s-29.334 68.834 -50.001 93.501s-44.667 43 -72 55s-55.666 18 -84.999 18c-34.667 0 -66.5 -6.66699 -95.5 -20
s-53.833 -33.166 -74.5 -59.499s-36.667 -59.333 -48 -99s-17 -85.5 -17 -137.5c0 -40 5.66699 -77.167 17 -111.5s25.666 -65.166 42.999 -92.499s36.666 -50.833 57.999 -70.5s41.666 -35.167 60.999 -46.5v-81h-343v176z" />
    <glyph glyph-name="Omega" unicode="&#x2126;" horiz-adv-x="951" 
d="M69 176l49.0059 3.99609l16 -91h166c-20.667 12.667 -41.334 29.167 -62.001 49.5s-39.334 44 -56.001 71s-30 56.667 -40 89s-14.667 66.5 -14 102.5c0.666992 41.333 5.66699 78.666 15 111.999s22 63.333 38 90s35 49.667 57 69s45.667 35.5 71 48.5s52 22.5 80 28.5
s56.667 9 86 9c48 0 92 -7.33301 132 -22s74.5 -36.5 103.5 -65.5s51.333 -64.5 67 -106.5s23.167 -90.333 22.5 -145c-0.666992 -30 -6.16699 -61 -16.5 -93s-23.5 -62.667 -39.5 -92s-34.167 -56.666 -54.5 -81.999s-40.5 -46.333 -60.5 -63h170l34 106l48 -4l-22 -191
h-332v81c25.333 14.667 48.166 33 68.499 55s37.833 47.333 52.5 76s26 60.334 34 95.001s12 71.667 12 111c0 51.333 -6.33301 95.833 -19 133.5s-29.334 68.834 -50.001 93.501s-44.667 43 -72 55s-55.666 18 -84.999 18c-34.667 0 -66.5 -6.66699 -95.5 -20
s-53.833 -33.166 -74.5 -59.499s-36.667 -59.333 -48 -99s-17 -85.5 -17 -137.5c0 -40 5.66699 -77.167 17 -111.5s25.666 -65.166 42.999 -92.499s36.666 -50.833 57.999 -70.5s41.666 -35.167 60.999 -46.5v-81h-343v176z" />
    <glyph glyph-name="pi" unicode="&#x3c0;" horiz-adv-x="777" 
d="M90 56c2 0 5.66699 1.00195 11 3.00195s11.333 4.33301 18 7s14 6 22 10s15.333 8.33301 22 13c14 10 25.5 20.167 34.5 30.5s16.167 21.666 21.5 33.999s9 25.5 11 39.5s3.33301 29.333 4 46l11 213h-30c-9.33301 0 -18.666 -1.16699 -27.999 -3.5s-18 -5.5 -26 -9.5
s-15 -9.16699 -21 -15.5s-10.667 -13.166 -14 -20.499l-50 6c-0.666992 4.66699 -0.833984 11.667 -0.500977 21s2.83301 18.333 7.5 27c14.667 29.333 34.834 51.5 60.501 66.5s55.167 22.5 88.5 22.5h324c22 0 41.167 3.83301 57.5 11.5s29.5 21.5 39.5 41.5h51
c-1.33301 -22.667 -6.16602 -42.834 -14.499 -60.501s-19.333 -32.834 -33 -45.501s-29.667 -22.5 -48 -29.5s-38.166 -10.833 -59.499 -11.5l-16 -325c0 -10.667 0.833008 -19 2.5 -25s3.66699 -10.667 6 -14s5 -5.5 8 -6.5s5.5 -1.5 7.5 -1.5c7.33301 0 15 1.5 23 4.5
s15.5 7.16699 22.5 12.5s13.333 11.5 19 18.5s10.167 15.167 13.5 24.5h53c-3.33301 -14 -9.5 -29.833 -18.5 -47.5s-20.5 -34.167 -34.5 -49.5s-29.667 -28.333 -47 -39s-36.333 -16 -57 -16c-16.667 0 -29.5 4.66699 -38.5 14s-15.333 21 -19 35s-5.66699 29.833 -6 47.5
s0.166992 35.167 1.5 52.5l20 315h-186l-10 -242c-2 -28 -4.33301 -51.5 -7 -70.5s-6.33398 -35.167 -11.001 -48.5s-10.834 -25 -18.501 -35s-16.834 -20.333 -27.501 -31c-9.33301 -8.66699 -19.833 -16 -31.5 -22s-24.167 -11 -37.5 -15z" />
    <glyph glyph-name="uni2000" unicode="&#x2000;" horiz-adv-x="1500" 
 />
    <glyph glyph-name="uni2001" unicode="&#x2001;" horiz-adv-x="1000" 
 />
    <glyph glyph-name="uni2002" unicode="&#x2002;" horiz-adv-x="500" 
 />
    <glyph glyph-name="uni2003" unicode="&#x2003;" horiz-adv-x="1000" 
 />
    <glyph glyph-name="uni2004" unicode="&#x2004;" horiz-adv-x="333" 
 />
    <glyph glyph-name="uni2005" unicode="&#x2005;" horiz-adv-x="250" 
 />
    <glyph glyph-name="uni2006" unicode="&#x2006;" horiz-adv-x="166" 
 />
    <glyph glyph-name="uni2007" unicode="&#x2007;" horiz-adv-x="628" 
 />
    <glyph glyph-name="uni2008" unicode="&#x2008;" horiz-adv-x="353" 
 />
    <glyph glyph-name="uni2009" unicode="&#x2009;" horiz-adv-x="200" 
 />
    <glyph glyph-name="uni200A" unicode="&#x200a;" horiz-adv-x="99" 
 />
    <glyph glyph-name="endash" unicode="&#x2013;" horiz-adv-x="673" 
d="M87 427h500v-72h-500v72z" />
    <glyph glyph-name="emdash" unicode="&#x2014;" horiz-adv-x="1173" 
d="M87 427h1000v-72h-1000v72z" />
    <glyph glyph-name="quoteleft" unicode="&#x2018;" horiz-adv-x="377" 
d="M204 459c-19.333 4.66699 -35.8311 12.999 -49.498 24.999s-24.667 25.667 -33 41s-14.333 31 -18 47s-5.5 30.667 -5.5 44c0 28 4.5 53.833 13.5 77.5s20.667 45 35 64s30.833 35.333 49.5 49s37.667 24.167 57 31.5l23 -29v-13c-12 -4 -23.167 -10.667 -33.5 -20
s-19.5 -20.5 -27.5 -33.5s-14.5 -27.167 -19.5 -42.5s-7.5 -30.666 -7.5 -45.999c0 -12.667 2 -24.834 6 -36.501s9.16699 -22.167 15.5 -31.5s13.666 -17.166 21.999 -23.499s17.166 -9.83301 26.499 -10.5v-22z" />
    </font>
</defs>
</svg>
