<?xml version="1.0" standalone="no"?>
<!DOCTYPE svg PUBLIC "-//W3C//DTD SVG 1.1//EN" "http://www.w3.org/Graphics/SVG/1.1/DTD/svg11.dtd" >
<svg>
<metadata>
Created by FontForge 20120731 at Fri Aug  1 16:50:30 2014
 By Alfred Xing
Copyright (c) 2013, Sorkin Type Co (www.sorkintype.com) with Reserved Font Name 'Merriweather'
</metadata>
<defs>
<font id="Merriweather-HeavyItalic" horiz-adv-x="0" >
  <font-face 
    font-family="Merriweather"
    font-weight="900"
    font-style="italic"
    font-stretch="normal"
    units-per-em="1000"
    panose-1="2 0 5 3 5 0 0 9 0 4"
    ascent="800"
    descent="-200"
    x-height="567.997"
    cap-height="747"
    bbox="-124.001 -273.003 1252 984.002"
    underline-thickness="71"
    underline-position="-59"
    slope="-7"
    unicode-range="U+0001-FB04"
  />
<missing-glyph horiz-adv-x="914" 
d="M111 691h692v-691h-692v691zM286 107l170 180l176 -180l60 60l-177 179l177 175l-63 61l-171 -179l-175 180l-60 -62l175 -177l-174 -167z" />
    <glyph glyph-name="f_f" unicode="ff" horiz-adv-x="692" 
d="M418 716c-20 15.333 -39.001 23.0029 -57.001 23.0029s-30.667 -1.66699 -38 -5s-13 -9 -17 -17c-5.33301 -10 -11.333 -36.667 -18 -80l-10 -73h112l-10 -84h-114l-57 -476c-16 -116.667 -62.667 -194.334 -140 -233.001c-28 -14 -61.333 -21 -100 -21
c-30.667 0 -61.667 3.66699 -93 11l29 90c1.33301 -0.666992 5 -2.33398 11 -5.00098s13 -5.33398 21 -8.00098c18.667 -7.33301 34.5 -11 47.5 -11s24.833 7.33301 35.5 22s18 38.667 22 72l68 559h-61l10 51l66 31l9 50c17.333 96 64 159 140 189
c26 10 50.667 14.667 74 14c46.667 0 80.334 -4 101.001 -12zM763.999 716.003c-20 15.333 -39.001 23.0029 -57.001 23.0029s-30.667 -1.66699 -38 -5s-13 -9 -17 -17c-5.33301 -10 -11.333 -36.667 -18 -80l-10 -73h112l-10 -84h-114l-57 -476
c-16 -116.667 -62.667 -194.334 -140 -233.001c-28 -14 -61.333 -21 -100 -21c-30.667 0 -61.667 3.66699 -93 11l29 90c1.33301 -0.666992 5 -2.33398 11 -5.00098s13 -5.33398 21 -8.00098c18.667 -7.33301 34.5 -11 47.5 -11s24.833 7.33301 35.5 22s18 38.667 22 72
l68 559h-61l10 51l66 31l9 50c17.333 96 64 159 140 189c26 10 50.667 14.667 74 14c46.667 0 80.334 -4 101.001 -12z" />
    <glyph glyph-name="f_i" unicode="fi" horiz-adv-x="672" 
d="M418 716c-20 15.333 -39.001 23.0029 -57.001 23.0029s-30.667 -1.66699 -38 -5s-13 -9 -17 -17c-5.33301 -10 -11.333 -36.667 -18 -80l-10 -73h112l-10 -84h-114l-57 -476c-16 -116.667 -62.667 -194.334 -140 -233.001c-28 -14 -61.333 -21 -100 -21
c-30.667 0 -61.667 3.66699 -93 11l29 90c1.33301 -0.666992 5 -2.33398 11 -5.00098s13 -5.33398 21 -8.00098c18.667 -7.33301 34.5 -11 47.5 -11s24.833 7.33301 35.5 22s18 38.667 22 72l68 559h-61l10 51l66 31l9 50c17.333 96 64 159 140 189
c26 10 50.667 14.667 74 14c46.667 0 80.334 -4 101.001 -12zM604.999 661.003c-12.667 -5.33301 -26 -7.99902 -40 -7.99902s-25.667 2.33301 -35 7c-19.333 9.33301 -33.666 24.333 -42.999 45c-4 9.33301 -6 19.666 -6 30.999s2.5 23.166 7.5 35.499
s11.5 22.833 19.5 31.5c17.333 18.667 40.666 28 69.999 28c24.667 0 45 -8.33301 61 -25c14.667 -14 22 -29.667 22 -47s-2.16699 -32.166 -6.5 -44.499s-10.5 -23 -18.5 -32s-18.333 -16.167 -31 -21.5zM639.999 61.0039c-38.667 -46.667 -86.667 -70.3311 -144 -70.998
c-34.667 0 -59.667 6.16699 -75 18.5s-23 27.166 -23 44.499c0 3.33301 0.833008 10.666 2.5 21.999c1 11.333 3.5 31 7.5 59l46 345l-80 24l9 40l217 25l27 -12l-62 -445c-0.666992 -4.66699 -1 -9 -1 -13c0 -16 6 -24 18 -24c10 0 25 7.33301 45 22z" />
    <glyph glyph-name="f_l" unicode="fl" horiz-adv-x="656" 
d="M418 716c-20 15.333 -39.001 23.0029 -57.001 23.0029s-30.667 -1.66699 -38 -5s-13 -9 -17 -17c-5.33301 -10 -11.333 -36.667 -18 -80l-10 -73h112l-10 -84h-114l-57 -476c-16 -116.667 -62.667 -194.334 -140 -233.001c-28 -14 -61.333 -21 -100 -21
c-30.667 0 -61.667 3.66699 -93 11l29 90c1.33301 -0.666992 5 -2.33398 11 -5.00098s13 -5.33398 21 -8.00098c18.667 -7.33301 34.5 -11 47.5 -11s24.833 7.33301 35.5 22s18 38.667 22 72l68 559h-61l10 51l66 31l9 50c17.333 96 64 159 140 189
c26 10 50.667 14.667 74 14c46.667 0 80.334 -4 101.001 -12zM552.999 111.003c-3.33301 -24.667 2.66602 -37.001 17.999 -37.001c9.33301 0 24 7.33301 44 22l13 -35c-20 -27.333 -47.667 -48 -83 -62c-16 -6 -32.333 -9 -49 -9s-31.167 1.33301 -43.5 4
s-23.166 6.33398 -32.499 11.001c-21.333 11.333 -32.333 28.333 -33 51c0 9.33301 1 22 3 38l84 630l-65 21l10 40l198 21l25 -14z" />
    <glyph glyph-name="f_f_i" unicode="ffi" horiz-adv-x="1019" 
d="M418 716c-20 15.333 -39.001 23.0029 -57.001 23.0029s-30.667 -1.66699 -38 -5s-13 -9 -17 -17c-5.33301 -10 -11.333 -36.667 -18 -80l-10 -73h112l-10 -84h-114l-57 -476c-16 -116.667 -62.667 -194.334 -140 -233.001c-28 -14 -61.333 -21 -100 -21
c-30.667 0 -61.667 3.66699 -93 11l29 90c1.33301 -0.666992 5 -2.33398 11 -5.00098s13 -5.33398 21 -8.00098c18.667 -7.33301 34.5 -11 47.5 -11s24.833 7.33301 35.5 22s18 38.667 22 72l68 559h-61l10 51l66 31l9 50c17.333 96 64 159 140 189
c26 10 50.667 14.667 74 14c46.667 0 80.334 -4 101.001 -12zM763.999 716.003c-20 15.333 -39.001 23.0029 -57.001 23.0029s-30.667 -1.66699 -38 -5s-13 -9 -17 -17c-5.33301 -10 -11.333 -36.667 -18 -80l-10 -73h112l-10 -84h-114l-57 -476
c-16 -116.667 -62.667 -194.334 -140 -233.001c-28 -14 -61.333 -21 -100 -21c-30.667 0 -61.667 3.66699 -93 11l29 90c1.33301 -0.666992 5 -2.33398 11 -5.00098s13 -5.33398 21 -8.00098c18.667 -7.33301 34.5 -11 47.5 -11s24.833 7.33301 35.5 22s18 38.667 22 72
l68 559h-61l10 51l66 31l9 50c17.333 96 64 159 140 189c26 10 50.667 14.667 74 14c46.667 0 80.334 -4 101.001 -12zM950.998 661.006c-12.667 -5.33301 -26 -7.99902 -40 -7.99902s-25.667 2.33301 -35 7c-19.333 9.33301 -33.666 24.333 -42.999 45
c-4 9.33301 -6 19.666 -6 30.999s2.5 23.166 7.5 35.499s11.5 22.833 19.5 31.5c17.333 18.667 40.666 28 69.999 28c24.667 0 45 -8.33301 61 -25c14.667 -14 22 -29.667 22 -47s-2.16699 -32.166 -6.5 -44.499s-10.5 -23 -18.5 -32s-18.333 -16.167 -31 -21.5z
M985.998 61.0068c-38.667 -46.667 -86.667 -70.3311 -144 -70.998c-34.667 0 -59.667 6.16699 -75 18.5s-23 27.166 -23 44.499c0 3.33301 0.833008 10.666 2.5 21.999c1 11.333 3.5 31 7.5 59l46 345l-80 24l9 40l217 25l27 -12l-62 -445c-0.666992 -4.66699 -1 -9 -1 -13
c0 -16 6 -24 18 -24c10 0 25 7.33301 45 22z" />
    <glyph glyph-name="f_f_l" unicode="ffl" horiz-adv-x="1002" 
d="M418 716c-20 15.333 -39.001 23.0029 -57.001 23.0029s-30.667 -1.66699 -38 -5s-13 -9 -17 -17c-5.33301 -10 -11.333 -36.667 -18 -80l-10 -73h112l-10 -84h-114l-57 -476c-16 -116.667 -62.667 -194.334 -140 -233.001c-28 -14 -61.333 -21 -100 -21
c-30.667 0 -61.667 3.66699 -93 11l29 90c1.33301 -0.666992 5 -2.33398 11 -5.00098s13 -5.33398 21 -8.00098c18.667 -7.33301 34.5 -11 47.5 -11s24.833 7.33301 35.5 22s18 38.667 22 72l68 559h-61l10 51l66 31l9 50c17.333 96 64 159 140 189
c26 10 50.667 14.667 74 14c46.667 0 80.334 -4 101.001 -12zM763.999 716.003c-20 15.333 -39.001 23.0029 -57.001 23.0029s-30.667 -1.66699 -38 -5s-13 -9 -17 -17c-5.33301 -10 -11.333 -36.667 -18 -80l-10 -73h112l-10 -84h-114l-57 -476
c-16 -116.667 -62.667 -194.334 -140 -233.001c-28 -14 -61.333 -21 -100 -21c-30.667 0 -61.667 3.66699 -93 11l29 90c1.33301 -0.666992 5 -2.33398 11 -5.00098s13 -5.33398 21 -8.00098c18.667 -7.33301 34.5 -11 47.5 -11s24.833 7.33301 35.5 22s18 38.667 22 72
l68 559h-61l10 51l66 31l9 50c17.333 96 64 159 140 189c26 10 50.667 14.667 74 14c46.667 0 80.334 -4 101.001 -12zM898.998 111.006c-3.33301 -24.667 2.66602 -37.001 17.999 -37.001c9.33301 0 24 7.33301 44 22l13 -35c-20 -27.333 -47.667 -48 -83 -62
c-16 -6 -32.333 -9 -49 -9s-31.167 1.33301 -43.5 4s-23.166 6.33398 -32.499 11.001c-21.333 11.333 -32.333 28.333 -33 51c0 9.33301 1 22 3 38l84 630l-65 21l10 40l198 21l25 -14z" />
    <glyph glyph-name=".notdef" horiz-adv-x="914" 
d="M111 691h692v-691h-692v691zM286 107l170 180l176 -180l60 60l-177 179l177 175l-63 61l-171 -179l-175 180l-60 -62l175 -177l-174 -167z" />
    <glyph glyph-name="uni0001" 
 />
    <glyph glyph-name="uni0002" 
 />
    <glyph glyph-name="uni0003" 
 />
    <glyph glyph-name="uni0004" 
 />
    <glyph glyph-name="uni0005" 
 />
    <glyph glyph-name="uni0006" 
 />
    <glyph glyph-name="uni0007" 
 />
    <glyph glyph-name="uni0008" 
 />
    <glyph glyph-name="HT" unicode="&#x9;" 
 />
    <glyph glyph-name="LF" unicode="&#xa;" 
 />
    <glyph glyph-name="DLE" 
 />
    <glyph glyph-name="DC1" 
 />
    <glyph glyph-name="DC2" 
 />
    <glyph glyph-name="DC3" 
 />
    <glyph glyph-name="DC4" 
 />
    <glyph glyph-name="uni0015" 
 />
    <glyph glyph-name="uni0016" 
 />
    <glyph glyph-name="uni0017" 
 />
    <glyph glyph-name="uni0018" 
 />
    <glyph glyph-name="uni0019" 
 />
    <glyph glyph-name="RS" 
 />
    <glyph glyph-name="US" 
 />
    <glyph glyph-name="space" unicode=" " horiz-adv-x="236" 
 />
    <glyph glyph-name="exclam" unicode="!" horiz-adv-x="349" 
d="M179 868h164l-126 -610h-99zM62 38c-3.33301 9.33301 -4.99902 20.666 -4.99902 33.999s2.66699 26 8 38s12.666 22.333 21.999 31c18 17.333 39 26 63 26c23.333 0 41.333 -8 54 -24c12 -14.667 18 -31.667 18 -51s-2.83301 -35.166 -8.5 -47.499
s-13.5 -22.5 -23.5 -30.5c-18.667 -16 -40.667 -24 -66 -24c-29.333 0.666992 -50 16.667 -62 48z" />
    <glyph glyph-name="quotedbl" unicode="&#x22;" horiz-adv-x="541" 
d="M135 824h140l-82 -352h-98zM388 824h140l-82 -352h-98z" />
    <glyph glyph-name="numbersign" unicode="#" horiz-adv-x="686" 
d="M144 178h-90l11 88h96l22 149h-95l8 85h99l26 163h110l-25 -163h122l28 163h109l-26 -163h99l-8 -85h-103l-23 -149h97l-11 -88h-102l-28 -178h-107l24 178h-123l-30 -178h-108zM394 266l22 149h-123l-22 -149h123z" />
    <glyph glyph-name="dollar" unicode="$" horiz-adv-x="588" 
d="M39 192l98.999 -0.00488281l5 -107c28.667 -22 62.667 -33 102 -33c66.667 0 106.667 21 120 63c4 12.667 6 26.167 6 40.5s-2.5 28 -7.5 41s-12.833 25.167 -23.5 36.5c-17.333 20 -43.5 41.333 -78.5 64s-62.333 41.834 -82 57.501s-36.834 32.834 -51.501 51.501
c-32 40 -48 83.667 -48 131c0 64.667 23.333 116.334 70 155.001c44.667 37.333 104.334 58.333 179.001 63l14 89h89l-15 -90c60 -4.66699 106.333 -16 139 -34l-27 -147h-93l-14 96c-23.333 16.667 -51.666 25.334 -84.999 26.001c-50.667 0 -82.667 -18 -96 -54
c-4 -10.667 -6 -23.667 -6 -39s2.83301 -30.333 8.5 -45s14.5 -28.667 26.5 -42c20 -24 55 -51.333 105 -82c48 -29.333 84.333 -58.666 109 -87.999c31.333 -37.333 47 -80 47 -128c0 -95.333 -45.333 -162.333 -136 -201c-31.333 -14 -69 -22.667 -113 -26l-17 -102h-88
l16 103c-63.333 4.66699 -117 15.667 -161 33c-11.333 4.66699 -19.333 9 -24 13zM99.999 131.995l-2 3z" />
    <glyph glyph-name="percent" unicode="%" horiz-adv-x="933" 
d="M642 747h107l-463 -747h-107zM316.5 378c-26.333 -12.667 -53.667 -19 -82 -19s-51.833 4 -70.5 12s-34.334 19 -47.001 33c-26 29.333 -39 66.333 -39 111c0 53.333 20 101.666 60 144.999c41.333 44.667 92 67.334 152 68.001c49.333 0 88 -14.333 116 -43
c26 -26.667 38.667 -62 38 -106c0 -56 -19.667 -106 -59 -150c-19.333 -21.333 -42.166 -38.333 -68.499 -51zM190.999 516c0 -68 17.333 -101.998 52 -101.998c26 0 47 19.333 63 58c14 33.333 21 67.666 21 102.999c0 65.333 -17 98 -51 98c-26 0 -47.333 -18.667 -64 -56
c-14 -30.667 -21 -64.334 -21 -101.001zM496.999 181.002c0 19.333 2.33301 37.665 7 54.998s11.5 33.833 20.5 49.5s19.667 30.334 32 44.001s26.5 25.167 42.5 34.5c33.333 21.333 66.333 32 99 32s58.667 -3.66699 78 -11s35.333 -17.666 48 -30.999
c26 -26.667 39 -62 39 -106c0 -56 -20 -106 -60 -150c-42 -46.667 -94 -70 -156 -70c-46.667 0 -83.667 15 -111 45c-26 30 -39 66 -39 108zM745.999 244.001c0 65.333 -17.333 98.002 -52 98.002c-26 0 -47.333 -18.667 -64 -56c-14 -30.667 -21 -64.334 -21 -101.001
c0 -68 17.333 -102 52 -102c26 0 47.333 19.333 64 58c14 33.333 21 67.666 21 102.999z" />
    <glyph glyph-name="ampersand" unicode="&#x26;" horiz-adv-x="884" 
d="M511 11c-60.667 -19.333 -116.831 -29.001 -168.498 -29.001s-95.5 4.16699 -131.5 12.5s-67.333 20.5 -94 36.5c-55.333 33.333 -82.666 78.333 -81.999 135c0 78 39 138.667 117 182c23.333 12.667 47.666 24 72.999 34c-26 62.667 -38.833 114 -38.5 154
s7.16602 73.833 20.499 101.5s31.666 51.167 54.999 70.5c48.667 38.667 112 58 190 58c69.333 0 122.666 -14.333 159.999 -43c34 -26.667 51 -61.667 51 -105c0 -57.333 -26.667 -105.666 -80 -144.999c-28.667 -21.333 -59.334 -39.666 -92.001 -54.999l-79 -35
c30 -54.667 53.167 -93 69.5 -115s30.5 -40 42.5 -54l38 -44c2.66699 -3.33301 6.33398 -7 11.001 -11l16 -14c22.667 30.667 34 65.667 34 105c0 14.667 -0.666992 28.334 -2 41.001h-11c-35.333 0 -60.666 -6.33301 -75.999 -19v110c16 16 41.333 24 76 24
c12 0 24.667 -1 38 -3c26.667 -3.33301 47.334 -5 62.001 -5s26.5 1.16699 35.5 3.5s16.833 6.16602 23.5 11.499c10.667 10 18 30 22 60h55c7.33301 -23.333 11 -46.333 11 -69s-3 -42.834 -9 -60.501s-15.5 -32.334 -28.5 -44.001s-29.167 -17.5 -48.5 -17.5h-16v-11
c0 -70 -31.667 -130.667 -95 -182c34.667 -17.333 70.667 -23.666 108 -18.999v-61c-24.667 -10.667 -49.667 -16.5 -75 -17.5s-47.333 -1.5 -66 -1.5c-44.667 0 -83.334 7 -116.001 21zM449.003 705.999c-64 0 -96.001 -43.666 -96.001 -130.999
c0 -40.667 9 -83.334 27 -128.001c40.667 20 70.667 41.333 90 64c24 28 36 61 36 99c0 42.667 -9.66699 71.667 -29 87c-7.33301 6 -16.666 9 -27.999 9zM266.002 303c-41.333 -33.333 -61.998 -72 -61.998 -116c0 -42 13.667 -75.333 41 -100
c27.333 -24 60.166 -36 98.499 -36s71.166 3 98.499 9c-47.333 44 -93 103 -137 177z" />
    <glyph glyph-name="quotesingle" unicode="'" horiz-adv-x="288" 
d="M135 824h140l-82 -352h-98z" />
    <glyph glyph-name="parenleft" unicode="(" horiz-adv-x="431" 
d="M97 130c-7.33301 36 -11 72.8359 -11 110.503s2.83301 78 8.5 121s16.334 86 32.001 129s33.667 82.833 54 119.5s42.166 69.667 65.499 99c22.667 29.333 44.667 54.666 66 75.999c40 41.333 71.333 68 94 80l62 -44c-34 -22.667 -73.333 -67.334 -118 -134.001
c-35.333 -54 -65 -117 -89 -189c-25.333 -76.667 -38 -159.334 -38 -248.001c0 -120.667 25.667 -225.667 77 -315c17.333 -30.667 33.333 -52 48 -64l-67 -41h-9c-32.667 20.667 -68 61.667 -106 123c-32 50.667 -55 109.667 -69 177z" />
    <glyph glyph-name="parenright" unicode=")" horiz-adv-x="436" 
d="M333.006 567.008c7.33301 -35.9971 10.999 -72.8311 10.999 -110.496c0 -37.6641 -2.83301 -77.9951 -8.49902 -120.992c-5.66699 -42.9971 -16.333 -85.9941 -31.998 -128.991c-15.666 -42.9971 -33.665 -82.8281 -53.9971 -119.493
c-20.332 -36.6641 -42.1641 -69.6621 -65.4961 -98.9941c-22.665 -29.3311 -44.6631 -54.6631 -65.9951 -75.9951c-39.998 -41.3311 -71.3301 -67.9961 -93.9951 -79.9951l-61.9961 43.9971c33.998 22.665 73.3291 67.3291 117.993 133.992
c35.3311 53.9971 64.9961 116.993 88.9941 188.988c25.332 76.6621 37.998 159.324 37.998 247.985c0 120.659 -25.665 225.652 -76.9951 314.98c-17.333 30.665 -33.332 51.9971 -47.9971 63.9961l66.9961 40.9971h8.99902
c32.665 -20.665 67.9961 -61.6621 105.993 -122.991c31.998 -50.6631 54.9971 -109.659 68.9961 -176.988z" />
    <glyph glyph-name="asterisk" unicode="*" horiz-adv-x="666" 
d="M108 485l167 67l30 10l-26 9l-156 68l69 100l128 -107l20 -19l-3 31l-3 173l123 -1l-40 -174l-8 -26l23 17l151 107l47 -102l-168 -67l-29 -10l25 -9l157 -68l-69 -100l-129 106l-20 21l3 -32l3 -173l-123 1l40 174l8 27l-22 -19l-151 -106z" />
    <glyph glyph-name="plus" unicode="+" horiz-adv-x="647" 
d="M272 252l13 80l-69 -3h-95l9 96h105l68 -5l6 80l13 113h107l-13 -113l-14 -80l56 5h110l-9 -96h-120l-54 3c-0.666992 -14 -1.5 -27.5 -2.5 -40.5s-1.83301 -26.167 -2.5 -39.5l-14 -118h-107z" />
    <glyph glyph-name="comma" unicode="," horiz-adv-x="271" 
d="M46 69l66 75.0029c36.667 -8.66699 63.667 -28 81 -58c14.667 -24.667 22.167 -52.334 22.5 -83.001s-4.16699 -58.5 -13.5 -83.5s-22.333 -48.167 -39 -69.5c-33.333 -42.667 -80 -77.334 -140 -104.001l-30 43l1 10c26.667 12 49.667 33.667 69 65
c19.333 30.667 29.333 61.667 30 93c0 22 -3.66699 38.667 -11 50c-12 21.333 -25 31.666 -39 30.999z" />
    <glyph glyph-name="hyphen" unicode="-" horiz-adv-x="627" 
d="M130 425h418l-8 -96h-419z" />
    <glyph glyph-name="period" unicode="." horiz-adv-x="271" 
d="M35 38c-3.33301 9.33301 -4.99805 20.666 -4.99805 33.999s2.66699 26 8 38s12.666 22.333 21.999 31c18.667 17.333 39.667 26 63 26s41.666 -8 54.999 -24c12 -14.667 17.833 -31.667 17.5 -51s-3.33301 -35.166 -9 -47.499s-13.167 -22.5 -22.5 -30.5
c-18.667 -16 -41 -24 -67 -24c-29.333 0.666992 -50 16.667 -62 48z" />
    <glyph glyph-name="slash" unicode="/" horiz-adv-x="416" 
d="M-60 -177l421 957h114l-421 -957h-114z" />
    <glyph glyph-name="zero" unicode="0" horiz-adv-x="624" 
d="M53 132c-8.66699 27.333 -13.001 61.001 -13.001 101.001s7.66699 81.167 23 123.5s36.833 79.166 64.5 110.499s60.834 55.833 99.501 73.5s80.167 26.5 124.5 26.5s81.5 -5.5 111.5 -16.5s54.333 -26.5 73 -46.5c35.333 -38 53 -92.667 53 -164
c0 -96 -27.667 -176.667 -83 -242c-26.667 -32 -59.334 -57.667 -98.001 -77s-80.667 -29 -126 -29s-83.166 6.16699 -113.499 18.5s-55 28.833 -74 49.5s-32.833 44.667 -41.5 72zM425.999 331.001c0 122.667 -28.667 183.668 -86 183.001c-64.667 0 -107 -54 -127 -162
c-7.33301 -39.333 -10.833 -76 -10.5 -110s2 -62 5 -84s7.83301 -41.333 14.5 -58c14.667 -36 37 -54 67 -54c32.667 0 60 14.667 82 44c36.667 49.333 55 129.666 55 240.999z" />
    <glyph glyph-name="one" unicode="1" horiz-adv-x="454" 
d="M35 52l97.999 14.001l51 367l-58 -13c-19.333 -4.66699 -39.666 -8.66699 -60.999 -12l-9 61c56 13.333 116 36.666 180 69.999c18.667 10 34.667 19.333 48 28l79 -18l-68 -483l102 -14l-4 -52h-363z" />
    <glyph glyph-name="two" unicode="2" horiz-adv-x="609" 
d="M21 66c127.333 77.333 220.329 149.997 278.996 217.997c32.667 37.333 49 69 49 95c0 40 -13.667 66.667 -41 80c-10 5.33301 -23.167 8 -39.5 8s-32.666 -2.33301 -48.999 -7s-32.166 -11 -47.499 -19c-30 -16 -56.667 -37.667 -80 -65l-37 63
c42 56.667 97.667 95.667 167 117c26.667 8 57.834 11.833 93.501 11.5s67.167 -5.66602 94.5 -15.999s49 -23.5 65 -39.5c29.333 -29.333 44.333 -65.666 45 -108.999c0 -79.333 -59 -159.666 -177 -240.999c-43.333 -30 -94.666 -59.333 -153.999 -88l250 21l74 98l72 -23
l-59 -170h-489z" />
    <glyph glyph-name="three" unicode="3" horiz-adv-x="539" 
d="M10 -82c19.333 -5.33301 46 -7.99707 80 -7.99707s64.833 4.66699 92.5 14s50.167 21.666 67.5 36.999c33.333 29.333 50 67.666 50 114.999c0 46 -23.667 74 -71 84c-10 2 -20.5 3.16699 -31.5 3.5s-21.5 -0.166992 -31.5 -1.5l-53 -15l10 85
c46 8.66699 88 28.667 126 60c40.667 34 60.667 69.333 60 106c0 16 -4 29.333 -12 40c-15.333 20.667 -35 30.667 -59 30c-57.333 0 -110.333 -20.333 -159 -61l-30 61c36.667 40.667 89.334 70.334 158.001 89.001c25.333 6.66699 50.833 10 76.5 10
s49.667 -3.16699 72 -9.5s41.833 -15.5 58.5 -27.5c37.333 -26.667 56 -61.667 56 -105c0 -42.667 -16 -81.334 -48 -116.001c-30.667 -32.667 -71.334 -57.334 -122.001 -74.001c81.333 -3.33301 132.333 -34.666 153 -93.999c6 -18 9 -37.333 9 -58
c0 -81.333 -33.333 -144.333 -100 -189c-64.667 -42.667 -152 -64.334 -262 -65.001c-34.667 0 -68 3.66699 -100 11z" />
    <glyph glyph-name="four" unicode="4" horiz-adv-x="617" 
d="M-12 41c29.333 44.667 57.667 89.333 85 134l79 136l169 302h145l40 -43l-320 -463l-21 -32l173 14l22 151l148 28l-20 -178l89 8l-13 -98h-93l-23 -183h-146l24 183h-305z" />
    <glyph glyph-name="five" unicode="5" horiz-adv-x="544" 
d="M30 -90c16.667 -5.33301 40 -8.00195 70 -8.00195s59.5 6 88.5 18s52.5 27.333 70.5 46c34.667 36 52 79 52 129c0 52 -24 85.667 -72 101c-17.333 6 -35.166 9 -53.499 9s-32.5 -0.833008 -42.5 -2.5s-19 -3.66699 -27 -6s-15.333 -5.16602 -22 -8.49902l-19 -9l-30 23
l89 358h262l11 7h106l-27 -111h-226l-51 -179c21.333 9.33301 50.333 14 87 14s65.167 -4 85.5 -12s38.166 -19.333 53.499 -34c32 -31.333 47.833 -72.166 47.5 -122.499s-9.83301 -93.833 -28.5 -130.5s-45 -67.334 -79 -92.001c-67.333 -48.667 -158 -73 -272 -73
c-16 0 -33.5 1.83301 -52.5 5.5s-29.833 5.83398 -32.5 6.50098z" />
    <glyph glyph-name="six" unicode="6" horiz-adv-x="589" 
d="M255 -10c-30 0 -58.1689 5.16895 -84.502 15.502s-48.833 26.166 -67.5 47.499c-40 45.333 -60.333 113.666 -61 204.999c0 116.667 41.667 222.667 125 318c81.333 94 184.333 157.667 309 191l26 -65c-62 -18.667 -118.333 -54.667 -169 -108s-86 -112.333 -106 -177
c22.667 29.333 56.667 50 102 62c15.333 4 34.333 6.16699 57 6.5s44.334 -4.16699 65.001 -13.5s38 -22.333 52 -39c26.667 -33.333 40 -78.333 40 -135c0 -83.333 -26.667 -155 -80 -215c-55.333 -62 -124.666 -93 -207.999 -93zM386.998 268.002
c0 85.333 -22.333 128 -67 128c-34 0 -65 -14 -93 -42c-7.33301 -7.33301 -13 -14.333 -17 -21c-8.66699 -40 -13 -74.833 -13 -104.5s1.33301 -54.5 4 -74.5s7 -37.333 13 -52c14 -30 36.333 -45 67 -45c47.333 0 79.333 38.333 96 115c6.66699 30.667 10 62.667 10 96z
" />
    <glyph glyph-name="seven" unicode="7" horiz-adv-x="535" 
d="M407 479l-202 -11l-51 -113l-116 2l43 203h450l15 -21l-296 -705l-165 47z" />
    <glyph glyph-name="eight" unicode="8" horiz-adv-x="613" 
d="M207 396c-60.667 51.333 -90.999 111.328 -90.999 179.995c0 54.667 22.667 98.334 68 131.001c46 33.333 105.667 50 179 50c62 0 112 -13.333 150 -40c41.333 -29.333 62 -70 62 -122c0 -60 -30.333 -113 -91 -159c-17.333 -14 -35.666 -27 -54.999 -39
c60 -41.333 99.667 -89 119 -143c6.66699 -19.333 10.167 -42.166 10.5 -68.499s-7.33398 -52.166 -23.001 -77.499s-36.167 -46.666 -61.5 -63.999c-52 -36 -114.333 -54 -187 -54c-62.667 0 -116 13.333 -160 40c-52.667 32 -79 81.333 -79 148
c0 62.667 32.667 121.334 98 176.001c19.333 15.333 39.666 29.333 60.999 42zM356.001 453.995c28.667 18 49.002 34.6689 61.002 50.002c22 30 33 62.667 33 98c0 36 -10 62 -30 78c-15.333 12.667 -32.833 19 -52.5 19s-35.334 -1.66699 -47.001 -5
s-21.834 -9 -30.501 -17c-18 -16.667 -27 -41.334 -27 -74.001s8 -60.334 24 -83.001s39 -44.667 69 -66zM277.003 343.997c-59.333 -40 -89.002 -94.667 -89.002 -164c0 -31.333 8 -59.333 24 -84c18.667 -29.333 44.334 -44 77.001 -44s60.334 9 83.001 27
c24.667 20.667 37 49.667 37 87c0 46 -27 91.667 -81 137z" />
    <glyph glyph-name="nine" unicode="9" horiz-adv-x="608" 
d="M334 567c144 0 216.335 -85.666 217.002 -256.999c0 -80.667 -20 -159.334 -60 -236.001c-38 -72 -90 -133.667 -156 -185c-66.667 -51.333 -138.334 -84.333 -215.001 -99l-30 66c135.333 41.333 230 133 284 275l-21 -23c-27.333 -27.333 -66 -41 -116 -41
c-64.667 0 -113.334 20.333 -146.001 61c-27.333 34 -41 75 -41 123s6.66699 90.667 20 128s32.333 70 57 98c52.667 60 121.667 90 207 90zM206.002 290.001c0 -88.667 22.334 -133.004 67.001 -133.004c43.333 0 80 22.333 110 67c8.66699 34.667 13 67.834 13 99.501
s-1.16699 57.334 -3.5 77.001s-6.5 36.834 -12.5 51.501c-14 32.667 -37 49 -69 49c-46.667 0 -78.334 -39 -95.001 -117c-6.66699 -29.333 -10 -60.666 -10 -93.999z" />
    <glyph glyph-name="colon" unicode=":" horiz-adv-x="271" 
d="M87 433c-3.33301 9.33301 -4.99805 20.666 -4.99805 33.999s2.66699 26 8 38s12.666 22.333 21.999 31c18.667 17.333 39.667 26 63 26s41.666 -8 54.999 -24c12 -14.667 17.833 -31.667 17.5 -51s-3.33301 -35.166 -9 -47.499s-13.167 -22.5 -22.5 -30.5
c-18.667 -16 -41 -24 -67 -24c-29.333 0.666992 -50 16.667 -62 48zM35.002 38c-3.33301 9.33301 -4.99805 20.666 -4.99805 33.999s2.66699 26 8 38s12.666 22.333 21.999 31c18.667 17.333 39.667 26 63 26s41.666 -8 54.999 -24c12 -14.667 17.833 -31.667 17.5 -51
s-3.33301 -35.166 -9 -47.499s-13.167 -22.5 -22.5 -30.5c-18.667 -16 -41 -24 -67 -24c-29.333 0.666992 -50 16.667 -62 48z" />
    <glyph glyph-name="semicolon" unicode=";" horiz-adv-x="271" 
d="M46 69l66 75.0029c36.667 -8.66699 63.667 -28 81 -58c14.667 -24.667 22.167 -52.334 22.5 -83.001s-4.16699 -58.5 -13.5 -83.5s-22.333 -48.167 -39 -69.5c-33.333 -42.667 -80 -77.334 -140 -104.001l-30 43l1 10c26.667 12 49.667 33.667 69 65
c19.333 30.667 29.333 61.667 30 93c0 22 -3.66699 38.667 -11 50c-12 21.333 -25 31.666 -39 30.999zM87 433.003c-3.33301 9.33301 -4.99805 20.666 -4.99805 33.999s2.66699 26 8 38s12.666 22.333 21.999 31c18.667 17.333 39.667 26 63 26s41.666 -8 54.999 -24
c12 -14.667 17.833 -31.667 17.5 -51s-3.33301 -35.166 -9 -47.499s-13.167 -22.5 -22.5 -30.5c-18.667 -16 -41 -24 -67 -24c-29.333 0.666992 -50 16.667 -62 48z" />
    <glyph glyph-name="less" unicode="&#x3c;" horiz-adv-x="667" 
d="M103 397l493 249l-16 -127l-333 -154l295 -161l-12 -118l-435 249z" />
    <glyph glyph-name="equal" unicode="=" horiz-adv-x="519" 
d="M84 505h398l-11 -96h-398zM48 247h398l-11 -96h-398z" />
    <glyph glyph-name="greater" unicode="&#x3e;" horiz-adv-x="667" 
d="M615.006 337.024l-492.97 -248.985l15.999 126.992l332.979 153.991l-294.981 160.99l11.999 117.992l434.974 -248.984z" />
    <glyph glyph-name="question" unicode="?" horiz-adv-x="464" 
d="M228 343c-1.33301 -11.333 -2.00098 -22.6689 -2.00098 -34.002s3.33301 -28.333 10 -51l-84 -24l-7 1c-23.333 24.667 -35 61.334 -35 110.001c0 46.667 28.333 88.334 85 125.001l52 32c46 24 81.667 49.667 107 77c10 20.667 15.167 41.167 15.5 61.5
s-3 38.833 -10 55.5s-17.833 31.334 -32.5 44.001c-31.333 27.333 -73 40.666 -125 39.999c-32.667 0 -67.667 -9.33301 -105 -28l29 107c14 13.333 48.333 24.333 103 33c14.667 2 32.5 3 53.5 3s43.333 -3 67 -9s44.167 -14 61.5 -24s31.833 -21.833 43.5 -35.5
s20.5 -28.5 26.5 -44.5c12.667 -28.667 19 -59.334 19 -92.001s-3.66699 -60.167 -11 -82.5s-17.166 -42 -29.499 -59s-26.333 -31.833 -42 -44.5s-32.167 -24 -49.5 -34l-49 -30c-58 -33.333 -88.333 -65.666 -91 -96.999zM147.999 37.9971
c-3.33301 9.33301 -5 20.666 -5 33.999s2.83301 26 8.5 38s12.834 22.333 21.501 31c18.667 17.333 39.667 26 63 26s41.666 -8 54.999 -24c12 -14.667 18 -31.667 18 -51s-3 -35.166 -9 -47.499s-13.667 -22.5 -23 -30.5c-18.667 -16 -41 -24 -67 -24
c-29.333 0.666992 -50 16.667 -62 48z" />
    <glyph glyph-name="at" unicode="@" horiz-adv-x="961" 
d="M677 117c0 -21.333 4.33203 -32.332 12.999 -32.999c26 0 51 16.667 75 50c34 46.667 56.333 111 67 193c3.33301 25.333 5 52.5 5 81.5s-4 57.167 -12 84.5s-19 51.5 -33 72.5s-30.667 39.167 -50 54.5s-39.666 27.666 -60.999 36.999
c-43.333 19.333 -87.833 29 -133.5 29s-86.5 -6.66699 -122.5 -20s-69.167 -31.5 -99.5 -54.5s-57.166 -50.333 -80.499 -82s-43 -65.167 -59 -100.5c-33.333 -73.333 -50 -150 -50 -230c0 -110.667 32.667 -195.334 98 -254.001c58.667 -52 133.667 -78 225 -78
c44.667 0 90.667 6.33301 138 19c13.333 3.33301 23.666 7 30.999 11l21 -53c-35.333 -27.333 -83.666 -45 -144.999 -53c-20 -2.66699 -44.667 -4 -74 -4s-61.5 3.16699 -96.5 9.5s-67.833 16.166 -98.5 29.499s-58.834 30.333 -84.501 51s-47.5 45 -65.5 73
c-38.667 58.667 -58 130.334 -58 215.001c0 115.333 28.667 221 86 317c52.667 88 122.334 158 209.001 210c84.667 50.667 172 76.334 262 77.001c102 0 185.333 -29 250 -87c66.667 -59.333 100 -138 100 -236c0 -134.667 -31.333 -244.667 -94 -330
c-38 -52 -82.333 -87.667 -133 -107c-24.667 -9.33301 -49.667 -14 -75 -14c-40.667 0 -61 33.333 -61 100c0 32.667 6 75.334 18 128.001c-41.333 -96.667 -87.333 -163.334 -138 -200.001c-18 -13.333 -36.5 -20 -55.5 -20s-38.167 4.33301 -57.5 13
s-36.333 21.667 -51 39c-33.333 38.667 -50 92 -50 160c0 84 25.333 158.667 76 224c34.667 44 78 75 130 93c27.333 9.33301 50.666 13.833 69.999 13.5s33.333 -1.16602 42 -2.49902s17.667 -3.33301 27 -6c21.333 -6.66699 38 -14.334 50 -23.001l100 25
c-22 -83.333 -39.667 -193 -53 -329c-2 -18.667 -3 -38 -3 -58zM369.999 308.501c-6.66699 -30.333 -9.99805 -55.668 -9.99805 -76.001s1.16699 -36.666 3.5 -48.999s5.83301 -24.166 10.5 -35.499c10.667 -25.333 25 -38 43 -38c17.333 0 40.333 20.667 69 62
c42.667 61.333 76.667 128.666 102 201.999c7.33301 22 12 41 14 57c-8 15.333 -27 27.333 -57 36c-8.66699 2.66699 -16.334 4 -23.001 4c-50.667 0 -91.334 -27 -122.001 -81c-13.333 -24 -23.333 -51.167 -30 -81.5z" />
    <glyph glyph-name="A" unicode="A" horiz-adv-x="671" 
d="M326 747h169l121 -680l78 -15l-3 -52h-336l2 52l77 14l-19 137h-249l-62 -137l92 -14l-4 -52h-272l4 52l67 14zM404 277l-38 268l-4 98l-164 -366h206z" />
    <glyph glyph-name="B" unicode="B" horiz-adv-x="681" 
d="M291 -10l-157.001 10h-145l5 52l68 14l82 615l-71 12l6 54h164l175 8c86.667 0 149 -16.667 187 -50c30.667 -27.333 46.334 -67.333 47.001 -120c0 -98.667 -61.333 -163 -184 -193h24c14 0 31.667 -3.83301 53 -11.5s40 -18.167 56 -31.5c31.333 -28 47 -64 47 -108
s-7.66699 -82 -23 -114s-38 -58.333 -68 -79c-57.333 -38.667 -146 -58 -266 -58zM272.999 418l59.999 -0.000976562c46 0 83.333 12.667 112 38c30 27.333 45.333 66.333 46 117c0 40.667 -9.66699 70.834 -29 90.501s-46.666 29.5 -81.999 29.5c-28 0 -51.667 -2 -71 -6z
M311.998 50.999c105.333 0 157.667 53.999 157 161.999c0 50 -11.667 85.667 -35 107c-22.667 20.667 -59 31 -109 31c-17.333 0 -29.5 -0.166992 -36.5 -0.5s-12.167 -0.666016 -15.5 -0.999023s-6.33301 -0.5 -9 -0.5l-39 -287c28.667 -8 57.667 -11.667 87 -11z" />
    <glyph glyph-name="C" unicode="C" horiz-adv-x="634" 
d="M220 335c0 -176 45.6631 -263.996 136.996 -263.996c30 0 52.833 3.66699 68.5 11s26.834 14.5 33.501 21.5s11.834 14.167 15.501 21.5s7.16699 15.333 10.5 24s6.33301 17.667 9 27l8 29h98l-21 -139c-25.333 -21.333 -50.666 -36.333 -75.999 -45
c-51.333 -19.333 -106.666 -29 -165.999 -29s-108.166 8.66699 -146.499 26s-69.5 40.666 -93.5 69.999c-45.333 55.333 -68 129.666 -68 222.999c0 138 39.667 247.333 119 328c77.333 78.667 182.333 117.667 315 117c62.667 0 112 -5.33301 148 -16
c9.33301 -2.66699 18.666 -5 27.999 -7l16 -4l-30 -196h-124l-19 152c-15.333 6 -33.333 8.83301 -54 8.5s-41.5 -5.83301 -62.5 -16.5s-39.5 -25.334 -55.5 -44.001s-30 -40.334 -42 -65.001c-32 -67.333 -48 -145 -48 -233z" />
    <glyph glyph-name="D" unicode="D" horiz-adv-x="734" 
d="M-16 52l78.001 14l82 615l-71 12l6 54h154c28 0 56.833 1.33301 86.5 4s59.167 4 88.5 4h3c109.333 0 190.666 -29.333 243.999 -88c47.333 -52 71.333 -124.333 72 -217c0 -218 -79.667 -359.333 -239 -424c-55.333 -22.667 -121.666 -34 -198.999 -34
c-8.66699 0 -18.334 0.666992 -29.001 2s-19.667 2.33301 -27 3s-15.333 1 -24 1c-20 1.33301 -37 2 -51 2h-179zM233.001 66c21.333 -8 45.167 -12 71.5 -12s51.5 5.5 75.5 16.5s45 26 63 45s33.333 41 46 66s23 51.5 31 79.5c15.333 54 22.833 107.667 22.5 161
s-3.5 96.5 -9.5 129.5s-15 60.167 -27 81.5c-24 40.667 -62 60.667 -114 60c-37.333 0 -63.333 -4 -78 -12z" />
    <glyph glyph-name="E" unicode="E" horiz-adv-x="648" 
d="M-16 52l78 14l81 615l-71 12l5 54h546l-18 -181h-108l-17 110l-165 12l-35 -258l217 12l-12 -107l-215 13l-38 -282l226 17l57 146l104 -7l-34 -222h-607z" />
    <glyph glyph-name="F" unicode="F" horiz-adv-x="593" 
d="M-5 52l67 14l81 615l-71 12l7 54h554l-21 -186h-108l-9 118l-179 9l-37 -269l236 19l-13 -115l-232 19l-36 -276l160 -14l-4 -52h-400z" />
    <glyph glyph-name="G" unicode="G" horiz-adv-x="708" 
d="M441 693c-152.667 0 -229.333 -124 -230 -372c0 -118.667 24.333 -197 73 -235c16.667 -13.333 36.667 -20 60 -20c47.333 0 84 4.66699 110 14l24 208l-99 8l9 72h272l-42 -327l-19 -2c-29.333 -3.33301 -52.666 -7.66602 -69.999 -12.999l-49 -12
c-57.333 -14 -112.333 -21.167 -165 -21.5s-96.5 8 -131.5 25s-63.833 40.167 -86.5 69.5c-44.667 58 -67.334 135.667 -68.001 233c0 130.667 33.667 234.667 101 312c72 83.333 175 124.666 309 123.999c68.667 0 128 -6.66699 178 -20c12 -3.33301 23.333 -6 34 -8l30 -6
l-33 -174h-121l-4 126c-24 12.667 -51.333 19 -82 19zM583.001 621l-15 19c2.66699 -2.66699 5 -6 7 -10z" />
    <glyph glyph-name="H" unicode="H" horiz-adv-x="807" 
d="M-5 52l67 14l82 615l-71 12l7 54h329l-6 -54l-88 -12l-34 -264h269l35 264l-86 12l5 54h334l-6 -54l-75 -12l-81 -615l77 -14l-6 -52h-343l7 52l93 14l37 278h-270l-37 -278l85 -14l-4 -52h-325z" />
    <glyph glyph-name="I" unicode="I" horiz-adv-x="382" 
d="M-2 52l73 14l80 615l-71 12l5 54h328l-6 -54l-84 -12l-80 -615l85 -14l-3 -52h-334z" />
    <glyph glyph-name="J" unicode="J" horiz-adv-x="365" 
d="M-100 -116c90 27.333 142 79.998 156 157.998c30.667 164.667 60.334 377.334 89.001 638.001l-75 13l8 54h325l-6 -54l-82 -12l-50 -408c-18 -136 -31.5 -216.5 -40.5 -241.5s-23.333 -49.167 -43 -72.5s-42.834 -43.666 -69.501 -60.999c-52 -34 -114.333 -56 -187 -66
z" />
    <glyph glyph-name="K" unicode="K" horiz-adv-x="721" 
d="M-9 52l71.002 13.998l81 615l-71 12l7 54h330l-6 -54l-88 -12l-44 -329l305 329l-71 13l6 53h244l-5 -54l-58 -12l-228 -230c10 -14.667 20.333 -33 31 -55l65 -137c55.333 -117.333 92.666 -181.666 111.999 -192.999l57 -14l-5 -52h-212c-14 2 -24.5 8 -31.5 18
s-13.167 21.333 -18.5 34l-20 48c-6.66699 16 -13.334 33.667 -20.001 53c-34 92.667 -58 153.334 -72 182.001l-93 -93l-23 -176l85 -14l-4 -52h-330z" />
    <glyph glyph-name="L" unicode="L" horiz-adv-x="620" 
d="M-5 52l67 14l81 615l-71 12l6 54h332l-6 -54l-89 -12l-81 -618l170 10l94 220l88 -11l-41 -282h-556z" />
    <glyph glyph-name="M" unicode="M" horiz-adv-x="984" 
d="M-57 52l89 14l159 615l-95 12l8 54h337l59 -498l27 83l163 415h303l-7 -54l-90 -12l-20 -615l100 -14l-4 -52h-360l4 53l92 13l28 420l10 195l-70 -171l-214 -511l-83 -8l-66 507l-26 183l-43 -188l-102 -427l110 -14l-5 -52h-309z" />
    <glyph glyph-name="N" unicode="N" horiz-adv-x="754" 
d="M-12 52l73 14l90 615l-83 12l8 54h272l181 -486l38 -112l67 532l-84 12l5 54h245l-5 -54l-60 -12l-104 -681h-174l-191 502l-38 124l-61 -560l92 -14l-5 -52h-270z" />
    <glyph glyph-name="O" unicode="O" horiz-adv-x="732" 
d="M27 305c0 41.333 3.49902 80.501 10.499 117.501s17.667 71.833 32 104.5s32.333 63.167 54 91.5s47.167 52.5 76.5 72.5c62 43.333 136 65.333 222 66c98 0 173 -32.333 225 -97c45.333 -56.667 68 -131.334 68 -224.001c0 -122 -30.333 -224 -91 -306
c-69.333 -93.333 -170.666 -140 -303.999 -140c-98 0 -172.333 30.667 -223 92c-46.667 56.667 -70 131 -70 223zM528.999 430.001c0 177.333 -39.999 266 -119.999 266c-60.667 0 -109.334 -39.333 -146.001 -118c-33.333 -72.667 -50 -159.667 -50 -261
c0 -178 40.333 -267 121 -267c64 0 113 37 147 111c32 68 48 157.667 48 269z" />
    <glyph glyph-name="P" unicode="P" horiz-adv-x="640" 
d="M463 271.5c-43.333 -13.667 -84.833 -20.5029 -124.5 -20.5029s-65.834 0.666992 -78.501 2l-23 -187l136 -14l-4 -52h-380l6 52l67 14l82 615l-72 12l7 54h154l145 8c146 0 234.667 -37.667 266 -113c11.333 -27.333 16.833 -61.166 16.5 -101.499
s-7.66602 -78.666 -21.999 -114.999s-36.333 -67.666 -66 -93.999s-66.167 -46.333 -109.5 -60zM489 552.997c0 94 -42.666 140.666 -127.999 139.999c-14 0 -28.667 -1.33301 -44 -4l-49 -370c11.333 -2.66699 21.666 -4 30.999 -4h22
c51.333 0.666992 92.333 23.334 123 68.001c30 44 45 100.667 45 170z" />
    <glyph glyph-name="Q" unicode="Q" horiz-adv-x="732" 
d="M296 -9c-90 4 -158.331 36.668 -204.998 98.001c-42.667 55.333 -64 129.333 -64 222c0 121.333 32 223.666 96 306.999c44.667 58 103.334 98.333 176.001 121c37.333 11.333 80.166 17 128.499 17s91.166 -8.66699 128.499 -26s67.666 -41 90.999 -71
c45.333 -56.667 68 -131 68 -223c0 -109.333 -24.667 -203.333 -74 -282c-55.333 -88 -137 -140.667 -245 -158v-17.5c0 -9 3 -18.667 9 -29s15.333 -18.5 28 -24.5c19.333 -8.66699 52.333 -13 99 -13c53.333 0 100.333 6.33301 141 19l1 -91c-48 -36 -111 -54 -189 -54
c-72 0 -125 17.667 -159 53c-24 26 -36 58.667 -36 98c0 16.667 2 34.667 6 54zM529.002 430.001c0 177.333 -39.999 266 -119.999 266c-60.667 0 -109.334 -39.667 -146.001 -119c-33.333 -72.667 -50 -159.667 -50 -261c0 -178 40.333 -267 121 -267
c64 0 113 37.333 147 112c32 68 48 157.667 48 269z" />
    <glyph glyph-name="R" unicode="R" horiz-adv-x="708" 
d="M410 755c171.333 0 257.003 -62.334 257.003 -187.001c0 -79.333 -30.333 -141.666 -91 -186.999c-19.333 -14.667 -41.333 -27 -66 -37c14 -16.667 33 -58.334 57 -125.001c5.33301 -15.333 11.333 -31.333 18 -48l22 -47c15.333 -33.333 31.666 -54.666 48.999 -63.999
c10 -5.33301 22.667 -8 38 -8l-5 -52h-203c-10.667 0 -25.334 30.667 -44.001 92c-42.667 135.333 -70.334 212.333 -83.001 231h-35h-59l-33 -257l90 -14l-3 -52h-330l5 52l68 14l81 615l-71 12l7 54h151c19.333 0 41.333 1 66 3c46 3.33301 84 5 114 5zM274.003 390.999
c4 0 9.66699 -0.333984 17 -1.00098h21c7.33301 0 14 -0.333008 20 -1h15c46.667 0 83 16.333 109 49c24.667 30.667 36.667 72.667 36 126c0 46.667 -11.333 79.834 -34 99.501s-52 29.5 -88 29.5c-8 0 -15.667 -0.333008 -23 -1l-19 -2
c-5.33301 0 -10.333 -0.666992 -15 -2z" />
    <glyph glyph-name="S" unicode="S" horiz-adv-x="564" 
d="M37 192l99.999 0.000976562l6 -108c28 -21.333 57.667 -32 89 -32s55 2.5 71 7.5s28.667 12.167 38 21.5c16.667 16 25 39.333 25 70c0 30 -9.66699 56.667 -29 80c-17.333 21.333 -43.166 43.166 -77.499 65.499s-61.333 41.5 -81 57.5s-36.5 33.333 -50.5 52
c-31.333 41.333 -47 82.5 -47 123.5s7 75.167 21 102.5s33.333 50 58 68c50 37.333 116.333 56 199 56c88.667 0 153.667 -12 195 -36l-27 -147h-93l-15 96c-22.667 16.667 -50 25.334 -82 26.001c-50.667 0 -82.334 -17.333 -95.001 -52c-4 -10.667 -6 -23.5 -6 -38.5
s2.66699 -30 8 -45s14 -29.167 26 -42.5c19.333 -23.333 54 -51 104 -83c101.333 -64.667 152 -137.334 152 -218.001c0 -63.333 -23.333 -115.666 -70 -156.999c-52 -46.667 -124 -70 -216 -70c-77.333 0 -144.666 10.667 -201.999 32
c-14.667 5.33301 -25 10.666 -31 15.999z" />
    <glyph glyph-name="T" unicode="T" horiz-adv-x="713" 
d="M120 52l122 14l81 615l-115 -13l-82 -207h-91l48 286h672l-37 -285l-88 -1l-16 207l-118 13l-82 -615l138 -14l-5 -52h-434z" />
    <glyph glyph-name="U" unicode="U" horiz-adv-x="706" 
d="M74.5 123.5c-8.33301 27 -12.5 51.167 -12.5 72.5c0 42 1.33301 73.333 4 94l49 391l-71 12l7 54h344l-5 -53l-97 -13l-47 -377c-5.33301 -48 -8 -82.167 -8 -102.5s2.33301 -40 7 -59s12 -35.167 22 -48.5c20.667 -28.667 50.667 -43 90 -43
c82.667 0 138.667 50 168 150c9.33301 31.333 16.333 66.333 21 105l51 375l-82 13l6 53h236l-7 -53l-63 -13l-48 -375c-14.667 -112.667 -47.667 -194 -99 -244c-50 -48 -121 -72 -213 -72c-96 0 -165.667 21.333 -209 64c-20.667 19.333 -35.167 42.5 -43.5 69.5z" />
    <glyph glyph-name="V" unicode="V" horiz-adv-x="607" 
d="M56 681l-68 13l7 53h319l-4 -54l-80 -12l59 -432l12 -102l36 102l201 432l-94 12l5 54h281l-9 -54l-83 -12l-316 -686h-156z" />
    <glyph glyph-name="W" unicode="W" horiz-adv-x="954" 
d="M56 680l-67 14l7 53h298l-4 -54l-61 -13l61 -533l39 102l149 360l-7 71l-78 14l5 53h310l-4 -54l-68 -13l46 -431l3 -102l225 533l-111 13l5 54h290l-5 -53l-77 -13l-315 -686h-156l-44 457l-185 -457h-155z" />
    <glyph glyph-name="X" unicode="X" horiz-adv-x="678" 
d="M-31 52l55 14l234 300l-149 315l-58 12l5 54h323l-4 -53l-70 -13l82 -216l144 216l-65 12l3 54h255l-5 -54l-67 -12l-229 -286l163 -329l62 -14l-5 -52h-338l5 52l76 14l-88 223l-148 -223l74 -14l-5 -52h-256z" />
    <glyph glyph-name="Y" unicode="Y" horiz-adv-x="625" 
d="M84 52l113 14l28 229l-162 386l-54 12l6 54h334l-8 -54l-89 -12l84 -238l26 -60l173 298l-80 12l5 54h260l-7 -54l-64 -12l-251 -386l-30 -229l120 -14l-5 -52h-404z" />
    <glyph glyph-name="Z" unicode="Z" horiz-adv-x="598" 
d="M-36 43l429 594l60 48l-207 -9l-73 -132l-85 11l25 192h508l14 -42l-422 -590l-55 -48l241 11l90 162l81 -15l-43 -225h-546z" />
    <glyph glyph-name="bracketleft" unicode="[" horiz-adv-x="426" 
d="M157 742c10.667 82 61.333 123.001 152 123.001c22 0 64.333 -7.66699 127 -23l-10 -60h-134l-109 -809l134 -1l-7 -62l-32 -10c-34.667 -9.33301 -64 -13.833 -88 -13.5s-43.5 1.66602 -58.5 3.99902s-28.167 5.83301 -39.5 10.5c-25.333 12 -38 30.667 -38 56v25
c0 8.66699 0.666992 18 2 28z" />
    <glyph glyph-name="backslash" unicode="\" horiz-adv-x="416" 
d="M13 780h111l282 -957h-112z" />
    <glyph glyph-name="bracketright" unicode="]" horiz-adv-x="426" 
d="M280.01 18.0449c-10.666 -81.9951 -61.3311 -122.994 -151.992 -122.994c-21.999 0 -64.3301 7.66602 -126.993 22.999l10 59.9961h133.991l108.993 808.95l-133.991 1l6.99902 61.9961l31.998 10c34.665 9.33301 63.9971 13.833 87.9961 13.5
s43.498 -1.66602 58.4971 -3.99902s28.165 -5.83301 39.498 -10.499c25.3311 -11.999 37.9971 -30.665 37.9971 -55.9971v-24.998c0 -8.66602 -0.666016 -17.999 -1.99902 -27.998z" />
    <glyph glyph-name="asciicircum" unicode="^" horiz-adv-x="666" 
d="M321 748h126l135 -499h-124l-88 338l-174 -338h-129z" />
    <glyph glyph-name="underscore" unicode="_" horiz-adv-x="651" 
d="M628 -91l-9 -74h-673l10 74h672z" />
    <glyph glyph-name="grave" unicode="`" horiz-adv-x="264" 
d="M188 606c-36 15.333 -80.667 47.667 -134 97c-26 24 -44 44.667 -54 62l99 86l141 -211z" />
    <glyph glyph-name="a" unicode="a" horiz-adv-x="593" 
d="M350 52c-41.333 -41.333 -90.668 -61.999 -148.001 -61.999c-58 0 -102.333 20.333 -133 61c-26.667 36.667 -40 85 -40 145c0 101.333 28.333 187 85 257c38.667 48 88.334 81.667 149.001 101c30.667 9.33301 64.5 14 101.5 14s75.5 -7 115.5 -21l75 21l-63 -457
c-2.66699 -24.667 3.66602 -37 18.999 -37c11.333 0 26.333 7.33301 45 22l14 -35c-17.333 -26.667 -45.666 -47.334 -84.999 -62.001c-15.333 -6 -33.833 -9 -55.5 -9s-40.167 5.33301 -55.5 16s-23.333 26 -24 46zM331.998 102.001l54 395c-10.667 2 -23.834 3 -39.501 3
s-31.167 -4.33301 -46.5 -13s-28.666 -20.5 -39.999 -35.5s-21 -32.333 -29 -52s-14.333 -40.5 -19 -62.5c-9.33301 -41.333 -14 -84.333 -14 -129s6.5 -78 19.5 -100s30.333 -33 52 -33s42.5 9 62.5 27z" />
    <glyph glyph-name="b" unicode="b" horiz-adv-x="581" 
d="M358 18.5c-41.333 -19 -84.001 -28.501 -128.001 -28.501s-87 7 -129 21l-72 -21l92 735l-51 21l11 41l176 19l26 -14l-36 -275c40.667 34 86.334 51 137.001 51c83.333 0 136 -40.667 158 -122c6.66699 -26.667 10 -61.167 10 -103.5s-7.66699 -85.666 -23 -129.999
s-37.333 -83 -66 -116s-63.667 -59 -105 -78zM187.999 61.999c12 -2.66699 29.333 -3.99902 52 -3.99902s43.834 8.5 63.501 25.5s35.5 39.5 47.5 67.5c23.333 53.333 35 121.666 35 204.999c0 57.333 -13 96 -39 116c-8.66699 6.66699 -20.334 10 -35.001 10
c-26 0 -51 -14.333 -75 -43z" />
    <glyph glyph-name="c" unicode="c" horiz-adv-x="459" 
d="M281 83c50.667 0 91.999 20.666 123.999 61.999l31 -50c-28 -44 -74.333 -75.667 -139 -95c-24 -6.66699 -50.333 -10 -79 -10s-54.5 4.83301 -77.5 14.5s-42.833 24.167 -59.5 43.5c-34.667 41.333 -52 101.666 -52 180.999c0 86.667 25 162.334 75 227.001
c35.333 46 82.666 78.667 141.999 98c29.333 9.33301 55.5 14 78.5 14s40.167 -0.5 51.5 -1.5s22.666 -2.16699 33.999 -3.5c24.667 -3.33301 44.334 -8 59.001 -14l-45 -157c-6.66699 2 -15.667 9.33301 -27 22l-27 31c-27.333 30.667 -47.666 46 -60.999 46
s-26.666 -6.33301 -39.999 -19c-30 -28 -51.667 -74.333 -65 -139c-6 -28.667 -9 -52.667 -9 -72s0.166992 -36.666 0.5 -51.999s2.33301 -32 6 -50s9.16699 -32.667 16.5 -44c13.333 -21.333 34.333 -32 63 -32z" />
    <glyph glyph-name="d" unicode="d" horiz-adv-x="612" 
d="M506 112c-3.33301 -25.333 3.00098 -38 19.001 -38c8.66699 0 23 7.33301 43 22l14 -35l-16 -17c-16.667 -18.667 -36 -32.334 -58 -41.001s-45.333 -13 -70 -13c-48.667 0 -75 27.333 -79 82c-26 -36 -61.333 -60.667 -106 -74c-16.667 -5.33301 -37.834 -8 -63.501 -8
s-49.167 5.5 -70.5 16.5s-38.666 25.833 -51.999 44.5c-25.333 36 -38 84.333 -38 145c0 102.667 26.667 188.334 80 257.001c37.333 48 86.666 81.667 147.999 101c30.667 9.33301 59 14 85 14s48.667 -1.66699 68 -5l23 161l-76 21l9 40l211 21l27 -14zM266.001 75
c29.333 0 55.6689 16.667 79.002 50l54 367c-14.667 5.33301 -31.834 8 -51.501 8s-37 -4.33301 -52 -13s-28.167 -20.5 -39.5 -35.5s-20.833 -32.333 -28.5 -52s-13.834 -40.5 -18.501 -62.5c-8.66699 -40.667 -13 -83.667 -13 -129c0 -88.667 23.333 -133 70 -133z" />
    <glyph glyph-name="e" unicode="e" horiz-adv-x="511" 
d="M296 78c58 0 106.67 25.333 146.003 76l31 -50c-30 -47.333 -78 -81.333 -144 -102c-25.333 -8 -52.333 -12 -81 -12s-53.334 2.83301 -74.001 8.5s-39 13.667 -55 24s-29.5 22.333 -40.5 36s-20.167 28.834 -27.5 45.501c-14 32 -21 67.333 -21 106v3
c0 102 30.333 186.667 91 254c60 67.333 135.333 101 226 101c78 0 128 -24.667 150 -74c7.33301 -16.667 10.833 -36 10.5 -58s-4.66602 -43.333 -12.999 -64s-20.333 -39.167 -36 -55.5s-33.834 -30.333 -54.501 -42s-42.334 -21.167 -65.001 -28.5
c-44.667 -14.667 -89.334 -22.667 -134.001 -24c0 -50.667 8.16699 -87.334 24.5 -110.001s38.5 -34 66.5 -34zM311.003 500c-60.667 0 -96 -73 -106 -219c34.667 2 66.667 15.667 96 41c33.333 28.667 50 65.5 50 110.5s-13.333 67.5 -40 67.5z" />
    <glyph glyph-name="f" unicode="f" horiz-adv-x="346" 
d="M418 716c-20 15.333 -39.001 23.0029 -57.001 23.0029s-30.667 -1.66699 -38 -5s-13 -9 -17 -17c-5.33301 -10 -11.333 -36.667 -18 -80l-10 -73h112l-10 -84h-114l-57 -476c-16 -116.667 -62.667 -194.334 -140 -233.001c-28 -14 -61.333 -21 -100 -21
c-30.667 0 -61.667 3.66699 -93 11l29 90c1.33301 -0.666992 5 -2.33398 11 -5.00098s13 -5.33398 21 -8.00098c18.667 -7.33301 34.5 -11 47.5 -11s24.833 7.33301 35.5 22s18 38.667 22 72l68 559h-61l10 51l66 31l9 50c17.333 96 64 159 140 189
c26 10 50.667 14.667 74 14c46.667 0 80.334 -4 101.001 -12z" />
    <glyph glyph-name="g" unicode="g" horiz-adv-x="594" 
d="M263 554c30.667 9.33301 64.665 14 101.998 14s77.333 -7.66699 120 -23l79 23l-81 -606c-12.667 -100.667 -69.667 -166.334 -171 -197.001c-38 -12 -81.667 -18 -131 -18c-36 0 -65.667 3.16699 -89 9.5s-37.333 10.5 -42 12.5l25 105
c6.66699 -6.66699 19.334 -13.667 38.001 -21c38 -15.333 67.5 -23 88.5 -23s37.833 1 50.5 3s23.667 6.33301 33 13c18 14 29.667 41.667 35 83l12 107c-38 -30 -81.333 -45.333 -130 -46c-58 0 -102.333 20.333 -133 61c-26.667 36.667 -40 85 -40 145
c0 101.333 28.333 187 85 257c38.667 48.667 88.334 82.334 149.001 101.001zM396.998 494c-12.667 3.33301 -28.168 5.16797 -46.501 5.50098s-35.166 -3.83398 -50.499 -12.501s-28.666 -20.5 -39.999 -35.5s-21 -32.333 -29 -52s-14.333 -40.5 -19 -62.5
c-9.33301 -41.333 -14 -84.333 -14 -129s6.5 -78 19.5 -100s30.833 -33 53.5 -33c25.333 0 48.666 12 69.999 36z" />
    <glyph glyph-name="h" unicode="h" horiz-adv-x="632" 
d="M543 74c9.33301 0 23.9971 7.33301 43.9971 22l14 -35c-20 -28 -49.333 -48.667 -88 -62c-16.667 -6 -36.167 -9 -58.5 -9s-40 2.33301 -53 7s-22.833 11 -29.5 19c-11.333 12.667 -17 31.667 -17 57c0 13.333 2 30.333 6 51l25 136c9.33301 55.333 14 92.333 14 111
s-0.166992 32 -0.5 40s-1.16602 16.333 -2.49902 25s-3.66602 15.667 -6.99902 21c-5.33301 9.33301 -14 14 -26 14s-23.5 -3.33301 -34.5 -10s-21.833 -16 -32.5 -28c-23.333 -24.667 -42.666 -54.334 -57.999 -89.001l-42 -344h-162l87 724l-62 21l8 40l200 21l26 -14
l-42 -345c48.667 80.667 111 121 187 121c86 0 129.333 -49.333 130 -148c0 -18 -3.33301 -47.667 -10 -89l-14 -84c-2 -12.667 -4.16699 -25.667 -6.5 -39s-4.83301 -26.666 -7.5 -39.999c-4.66699 -28.667 -7 -51.5 -7 -68.5s6.33301 -25.5 19 -25.5z" />
    <glyph glyph-name="i" unicode="i" horiz-adv-x="326" 
d="M258 661c-12.667 -5.33301 -26 -7.99902 -40 -7.99902s-25.667 2.33301 -35 7c-19.333 9.33301 -33.666 24.333 -42.999 45c-4 9.33301 -6 19.666 -6 30.999s2.5 23.166 7.5 35.499s11.5 22.833 19.5 31.5c17.333 18.667 40.666 28 69.999 28
c24.667 0 45 -8.33301 61 -25c14.667 -14 22 -29.667 22 -47s-2.16699 -32.166 -6.5 -44.499s-10.5 -23 -18.5 -32s-18.333 -16.167 -31 -21.5zM294 61.001c-38.667 -46.667 -86.667 -70.3311 -144 -70.998c-34.667 0 -59.667 6.16699 -75 18.5s-23 27.166 -23 44.499
c0 3.33301 0.833008 10.666 2.5 21.999c1 11.333 3.5 31 7.5 59l46 345l-80 24l9 40l217 25l27 -12l-62 -445c-0.666992 -4.66699 -1 -9 -1 -13c0 -16 6 -24 18 -24c10 0 25 7.33301 45 22z" />
    <glyph glyph-name="j" unicode="j" horiz-adv-x="318" 
d="M-104 -181c14 -4 29.333 -6.00098 46 -6.00098s32.334 6.16699 47.001 18.5s26.334 28.5 35.001 48.5c13.333 30.667 24 81.334 32 152.001l51 447l-81 24l11 40l220 25l25 -12l-67 -556c-10.667 -82.667 -40.334 -146.667 -89.001 -192
c-46 -43.333 -101 -65.333 -165 -66c-42.667 0 -70.334 6 -83.001 18zM254 660.999c-12.667 -5.33301 -26 -7.99902 -40 -7.99902s-25.667 2.33301 -35 7c-19.333 9.33301 -33.666 24.333 -42.999 45c-4 9.33301 -6 19.666 -6 30.999s2.5 23.166 7.5 35.499
s11.5 22.833 19.5 31.5c17.333 18.667 40.666 28 69.999 28c24.667 0 45 -8.33301 61 -25c14.667 -14 22 -29.667 22 -47s-2.16699 -32.166 -6.5 -44.499s-10.5 -23 -18.5 -32s-18.333 -16.167 -31 -21.5z" />
    <glyph glyph-name="k" unicode="k" horiz-adv-x="565" 
d="M126 724l-63 21l9 40l199 21l27 -14l-105 -792h-162zM463 134c15.333 -30 35 -44.999 59 -44.999c12.667 0 29.334 7.33301 50.001 22l16 -34c-28.667 -34.667 -65 -60 -109 -76c-18 -6.66699 -35.833 -10 -53.5 -10s-31.834 1.5 -42.501 4.5s-20 6.83301 -28 11.5
c-14 9.33301 -24.333 23.333 -31 42l-91 249h3h-3c30 15.333 52 28.666 66 39.999c28.667 22.667 55.667 50.334 81 83.001c17.333 22.667 26 49.667 26 81c0 24 9.33301 41.667 28 53c14 8.66699 28.833 13 44.5 13s27.334 -1.66699 35.001 -5s14.167 -8 19.5 -14
c11.333 -11.333 17 -26.333 17 -45c0 -26.667 -9.33301 -52.667 -28 -78c-32.667 -40.667 -82.334 -76.334 -149.001 -107.001z" />
    <glyph glyph-name="l" unicode="l" horiz-adv-x="310" 
d="M207 111c-3.33301 -24.667 2.66602 -37.001 17.999 -37.001c9.33301 0 24 7.33301 44 22l13 -35c-20 -27.333 -47.667 -48 -83 -62c-16 -6 -32.333 -9 -49 -9s-31.167 1.33301 -43.5 4s-23.166 6.33398 -32.499 11.001c-21.333 11.333 -32.333 28.333 -33 51
c0 9.33301 1 22 3 38l84 630l-65 21l10 40l198 21l25 -14z" />
    <glyph glyph-name="m" unicode="m" horiz-adv-x="954" 
d="M865 74c9.33301 0 23.999 7.33398 43.999 22.001l13 -35c-20 -28 -49.333 -48.667 -88 -62c-16.667 -6 -36 -9 -58 -9s-39.5 2.5 -52.5 7.5s-23.167 11.833 -30.5 20.5c-11.333 12.667 -16.666 31 -15.999 55c0 13.333 1.66699 30.333 5 51l25 136
c9.33301 55.333 14 92.333 14 111v40c0 8 -0.833008 16.333 -2.5 25s-4.16699 15.667 -7.5 21c-5.33301 9.33301 -13.833 14 -25.5 14s-22.5 -2.33301 -32.5 -7s-20.333 -11.667 -31 -21c-20.667 -18 -39 -42.333 -55 -73c-2 -39.333 -6 -80.333 -12 -123l-29 -247h-163
l33 260c6 49.333 9 84 9 104v44.5c0 9.66699 -1 19.167 -3 28.5s-4.66699 16.666 -8 21.999c-6 8 -15.333 12 -28 12s-24.167 -2.83301 -34.5 -8.5s-20.5 -13.5 -30.5 -23.5c-21.333 -20.667 -40 -46.334 -56 -77.001l-50 -362h-157l64 470l-53 29l9 43l181 26l26 -12
l-8 -103c33.333 54.667 74.666 90 123.999 106c16.667 6 34.334 9 53.001 9c79.333 0 123.666 -40.333 132.999 -121c44.667 80.667 109.334 121 194.001 121c86 0 129 -49.333 129 -148c0 -18 -3.33301 -47.667 -10 -89l-14 -84c-2 -12.667 -4.16699 -25.667 -6.5 -39
s-4.5 -26.666 -6.5 -39.999c-4.66699 -28.667 -7 -51.5 -7 -68.5s6.33301 -25.5 19 -25.5z" />
    <glyph glyph-name="n" unicode="n" horiz-adv-x="634" 
d="M545 74c9.33301 0 24.002 7.33203 44.002 21.999l14 -35c-20 -28 -49.333 -48.667 -88 -62c-17.333 -6 -37 -9 -59 -9s-39.5 2.5 -52.5 7.5s-22.833 11.833 -29.5 20.5c-11.333 12.667 -17 31 -17 55c0 13.333 1.66699 30.333 5 51l25 136
c10 55.333 14.833 92.333 14.5 111s-0.5 32 -0.5 40s-0.833008 16.333 -2.5 25s-3.83398 15.667 -6.50098 21c-6 9.33301 -14.833 14 -26.5 14s-22.834 -3.16699 -33.501 -9.5s-21 -14.833 -31 -25.5c-21.333 -22 -40 -50 -56 -84l-49 -352h-158l64 470l-52 29l8 43l182 26
l26 -12l-8 -102c48 76 109 114 183 114c86 0 129 -49.333 129 -148c0 -18 -3.33301 -47.667 -10 -89l-14 -84c-2 -12.667 -4.16699 -25.667 -6.5 -39s-4.5 -26.666 -6.5 -39.999c-4.66699 -28.667 -7 -51.5 -7 -68.5s6.33301 -25.5 19 -25.5z" />
    <glyph glyph-name="o" unicode="o" horiz-adv-x="584" 
d="M155 5c-83.333 32 -125 106.667 -125 224c0 92.667 26 170.667 78 234c36 44 81.667 74.667 137 92c28 8.66699 58.667 13 92 13s63.333 -5 90 -15s49 -24.667 67 -44c38.667 -41.333 58 -101.333 58 -180c0 -92.667 -26 -170.667 -78 -234
c-36.667 -44 -82.667 -74.667 -138 -92c-28 -8.66699 -58.5 -13 -91.5 -13s-62.833 5 -89.5 15zM240 62c8 -6 18.502 -9.1709 31.502 -9.50391s25 3.83398 36 12.501s20.667 20.334 29 35.001s15.166 31.667 20.499 51c14 48 20.667 105 20 171
c0 96 -11.333 152.667 -34 170c-7.33301 5.33301 -17 8 -29 8s-23.833 -4.16699 -35.5 -12.5s-21.834 -19.666 -30.501 -33.999s-15.667 -31.166 -21 -50.499c-15.333 -50 -23 -106.667 -23 -170c0 -96 12 -153 36 -171z" />
    <glyph glyph-name="p" unicode="p" horiz-adv-x="600" 
d="M265 515c36.667 35.333 82.001 53 136.001 53c84 0 137.333 -40.667 160 -122c7.33301 -26.667 10.833 -61.167 10.5 -103.5s-8.33301 -85.666 -24 -129.999s-37.834 -82.833 -66.501 -115.5c-62 -70.667 -141.667 -106.334 -239 -107.001c-16.667 0 -33 1.66699 -49 5
l-35 -249h-155l98 733l-58 25l10 38l192 26l25 -12zM203.001 65c12 -4.66699 30.5 -6.99902 55.5 -6.99902s46.833 8.5 65.5 25.5s33.667 39.5 45 67.5c22 53.333 33 121.666 33 204.999c0 57.333 -13 96 -39 116c-8.66699 6.66699 -20.334 10 -35.001 10
c-25.333 0 -49.666 -15.667 -72.999 -47z" />
    <glyph glyph-name="q" unicode="q" horiz-adv-x="599" 
d="M332 41c-38 -34 -83.002 -51.001 -135.002 -51.001c-57.333 0 -100.666 20.333 -129.999 61c-25.333 36 -38 84.333 -38 145c0 102.667 26.667 188.334 80 257.001c37.333 48 86.666 81.667 147.999 101c30.667 9.33301 58.167 14 82.5 14s42.333 -0.833008 54 -2.5
s22.834 -3.5 33.501 -5.5c22 -4.66699 41 -10 57 -16h-1l80 24l-94 -702c-1.33301 -8.66699 -0.5 -16.667 2.5 -24s9 -11 18 -11s23.5 7.66699 43.5 23l13 -36c-20 -27.333 -49.333 -48 -88 -62c-17.333 -6 -36.166 -9 -56.499 -9s-37 2.5 -50 7.5s-23.5 11.5 -31.5 19.5
c-14.667 14.667 -21 33.667 -19 57zM397.998 491.999c-14 4.66699 -30.832 7.16797 -50.499 7.50098s-37 -3.83398 -52 -12.501s-28.167 -20.5 -39.5 -35.5s-20.833 -32.333 -28.5 -52s-13.834 -40.5 -18.501 -62.5c-8.66699 -40.667 -13 -83.667 -13 -129
c0 -88.667 23.333 -133 70 -133c28 0 54 16 78 48z" />
    <glyph glyph-name="r" unicode="r" horiz-adv-x="411" 
d="M255 423c28 96.667 76 145 144 145c12.667 0 24.334 -3.33301 35.001 -10l-34 -174c-8.66699 10 -24.334 15 -47.001 15c-39.333 0 -74.333 -9.33301 -105 -28l-51 -371h-158l65 470l-53 29l9 43l160 26l26 -12z" />
    <glyph glyph-name="s" unicode="s" horiz-adv-x="426" 
d="M383 449c-29.333 32.667 -62.332 49 -98.999 49c-35.333 0 -59.333 -10.667 -72 -32c-4 -7.33301 -6 -16 -6 -26c0 -18.667 5.33301 -34 16 -46c15.333 -17.333 34.333 -34.333 57 -51s40 -30.667 52 -42s22.333 -24 31 -38c20 -30.667 30 -63 30 -97
s-6.66699 -61.833 -20 -83.5s-31 -39.167 -53 -52.5c-42 -26.667 -95.667 -40 -161 -40c-48.667 0 -93 7.66699 -133 23c-11.333 4 -19.333 7.66699 -24 11l24 98c23.333 -23.333 53 -40.333 89 -51c13.333 -4 25.666 -6 36.999 -6s21.666 1.16699 30.999 3.5
s17.666 5.83301 24.999 10.5c16.667 10.667 25 26 25 46c0 18 -5.66699 33.667 -17 47c-16 18.667 -34.667 35.5 -56 50.5s-37.666 27.5 -48.999 37.5s-21.666 21.667 -30.999 35c-20.667 30.667 -31 63 -31 97s5.83301 61.333 17.5 82s27.834 38 48.501 52
c41.333 28 95.666 42 162.999 42c38.667 0 68.5 -2.5 89.5 -7.5s33.5 -8.5 37.5 -10.5z" />
    <glyph glyph-name="t" unicode="t" horiz-adv-x="353" 
d="M250 83c32.667 0 60.332 9.33203 82.999 27.999l12 -39c-30.667 -34.667 -73 -59 -127 -73c-21.333 -5.33301 -41.666 -8.16602 -60.999 -8.49902s-34.666 1 -45.999 4s-21.333 7.83301 -30 14.5c-19.333 15.333 -29 38.333 -29 69c0 8.66699 1.33301 24 4 46l48 361h-58
l12 54l60 23c25.333 22 51.333 65 78 129h93l-17 -127h102l-11 -79h-101l-40 -295c-4.66699 -34.667 -7.33398 -57 -8.00098 -67c0 -26.667 12 -40 36 -40z" />
    <glyph glyph-name="u" unicode="u" horiz-adv-x="623" 
d="M67 56c-9.33301 16 -14.001 32.667 -14.001 50s0.666992 33 2 47s2.83301 28.833 4.5 44.5s3.83398 31.5 6.50098 47.5l34 225l-62 39l8 43l197 16l25 -12l-34 -268c-12 -85.333 -18 -137.666 -18 -156.999c0 -39.333 15.667 -59 47 -59c34.667 0 66 16.333 94 49l61 443
h159l-62 -453c-3.33301 -24.667 3 -37 19 -37c8 0 16 2.66699 24 8l21 14l14 -35c-18 -26.667 -46 -47.334 -84 -62.001c-15.333 -6 -33 -9 -53 -9c-34.667 0 -58.5 6.66699 -71.5 20s-19.5 28.333 -19.5 45c0 4.66699 0.666992 9.66699 2 15l-2 1
c-21.333 -24 -41 -41 -59 -51c-34.667 -20 -71.667 -30 -111 -30c-59.333 0.666992 -102 22.667 -128 66z" />
    <glyph glyph-name="v" unicode="v" horiz-adv-x="528" 
d="M158 -10l-98.001 461.999c-6 32.667 -25.333 36.334 -58 11.001l-14 39c18.667 24.667 46 44 82 58c14.667 5.33301 33.834 8 57.501 8s43.5 -5.83301 59.5 -17.5s25.667 -28.167 29 -49.5l52 -279l14 -105l36 62l26 51c27.333 55.333 41 109.333 41 162
c0 12 -2 26.333 -6 43c-6.66699 31.333 -10 52.5 -10 63.5s1.5 20.667 4.5 29s7.83301 15.5 14.5 21.5c14 12.667 31.667 19 53 19s37.5 -3 48.5 -9s19.5 -14 25.5 -24c10.667 -17.333 15.834 -37.833 15.501 -61.5s-2.5 -44.167 -6.5 -61.5s-9.83301 -35.5 -17.5 -54.5
s-16.5 -38.333 -26.5 -58s-20.667 -39.167 -32 -58.5c-22.667 -37.333 -46.334 -71.333 -71.001 -102l-125 -143z" />
    <glyph glyph-name="w" unicode="w" horiz-adv-x="850" 
d="M159 -10l-99 462.001c-3.33301 17.333 -10.333 26.333 -21 27c-9.33301 0 -21.666 -5.33301 -36.999 -16l-14 39c16 23.333 43.333 42.666 82 57.999c14.667 5.33301 33.667 8 57 8s43 -5.66699 59 -17s26 -28 30 -50l44 -287l12 -103l43 138l92 315h135l58 -366l15 -87
l43 81c32 59.333 48 121.333 48 186c0 17.333 -1.66699 35.333 -5 54c-6.66699 35.333 -10.167 58 -10.5 68s1.16699 19.167 4.5 27.5s8.33301 15.5 15 21.5c14 12.667 31.667 19 53 19s37.5 -3 48.5 -9s19.167 -14 24.5 -24c10.667 -18 16 -38.667 16 -62
s-2.33301 -44 -7 -62s-11.167 -37 -19.5 -57s-17.833 -40.5 -28.5 -61.5s-21.834 -41.333 -33.501 -61s-23.167 -38.167 -34.5 -55.5l-33 -48l-95 -132l-117 -5l-33 182l-19 131v68l-23 -68l-46 -144l-66 -162z" />
    <glyph glyph-name="x" unicode="x" horiz-adv-x="502" 
d="M461 87c9.33301 0 22.6689 6.33301 40.002 19l22 -41c-17.333 -27.333 -51 -49 -101 -65c-20 -6.66699 -42.667 -10 -68 -10c-45.333 0 -74 17.333 -86 52l-49 140l-114 -182h-153l226 287l-81 153l-8 14c-10 17.333 -20 26 -30 26c-15.333 0 -28.333 -3 -39 -9l-19 41
c15.333 20 46 36.333 92 49c17.333 4.66699 37.666 7 60.999 7c50 0 80.667 -17 92 -51l41 -123l109 170h148l-218 -277l78 -141c12 -24 22.167 -39.833 30.5 -47.5s17.166 -11.5 26.499 -11.5z" />
    <glyph glyph-name="y" unicode="y" horiz-adv-x="529" 
d="M51.5 473c-3 4 -8.83594 5.99609 -17.5029 5.99609s-19.334 -5.66699 -32.001 -17l-14 40c8 11.333 20 22.333 36 33c33.333 22 65.333 33 96 33c56 0 88 -22.333 96 -67c12.667 -64.667 24.334 -128.667 35.001 -192l31 -192l9 -78l30 61c43.333 89.333 65 176 65 260
c0 24.667 -2 45.334 -6 62.001c-7.33301 32 -11 55.5 -11 70.5s1.5 26.5 4.5 34.5s7.83301 15 14.5 21c14 13.333 31.333 20 52 20s36.334 -2.66699 47.001 -8s19.334 -12.666 26.001 -21.999c12 -17.333 17.833 -39.833 17.5 -67.5s-3.66602 -55.167 -9.99902 -82.5
s-14.833 -55 -25.5 -83c-17.333 -47.333 -37.333 -93.666 -60 -138.999l-111 -214l-20 -36c-6 -10.667 -11.667 -20.334 -17 -29.001l-17 -27c-25.333 -35.333 -48.333 -59.666 -69 -72.999c-39.333 -26.667 -81.666 -40 -126.999 -40c-38 0 -75 5.33301 -111 16
c-8.66699 2 -15.334 4 -20.001 6l25 105c19.333 -16 49.666 -29 90.999 -39c14 -3.33301 28.333 -5 43 -5s28.5 2.33301 41.5 7s25.5 12.334 37.5 23.001c22.667 20 47.334 55 74.001 105h-93l-102 487c-2.66699 10 -5.5 17 -8.5 21z" />
    <glyph glyph-name="z" unicode="z" horiz-adv-x="493" 
d="M16 -11l-29.9961 30l315 387l46 25l-148 1c-38.667 0 -64.667 -15 -78 -45c-4 -9.33301 -6.66699 -19 -8 -29h-43c-3.33301 18 -5 33.333 -5 46s0.166992 22.834 0.5 30.501s1 18.667 2 33s2.83301 27.5 5.5 39.5c6 27.333 16 44 30 50
c17.333 7.33301 33.166 11 47.499 11s29.666 -0.5 45.999 -1.5s33.166 -2.16699 50.499 -3.5l107 -8c38 -2.66699 67.833 -4 89.5 -4s39.167 5.66699 52.5 17l25 -30l-316 -392l-36 -21h161c39.333 0 66 16.333 80 49c4.66699 9.33301 7.33398 19.666 8.00098 30.999h42
c2.66699 -20 4 -39.667 4 -59s-0.666992 -36.166 -2 -50.499s-3.33301 -27.833 -6 -40.5c-6.66699 -29.333 -16.334 -48 -29.001 -56c-9.33301 -6.66699 -26.333 -10 -51 -10c-31.333 0 -70.833 1.66699 -118.5 5s-80.834 5.66602 -99.501 6.99902
c-44.667 2.66699 -77 4 -97 4s-35 -5.33301 -45 -16z" />
    <glyph glyph-name="braceleft" unicode="{" horiz-adv-x="509" 
d="M504 839c-6.66699 -29.333 -9.66699 -48.334 -9 -57.001h-135l-47 -308c-4 -27.333 -25.667 -50.666 -65 -69.999c-7.33301 -4 -15.333 -7.66699 -24 -11l-30 -14c34.667 -17.333 56.667 -31 66 -41c18.667 -19.333 26.667 -38.333 24 -57l-47 -308h135
c-0.666992 -2 -1.33398 -6.16699 -2.00098 -12.5s-1.66699 -13.5 -3 -21.5s-2.33301 -16.667 -3 -26c-40 -12 -69 -18.833 -87 -20.5s-34.167 -2.5 -48.5 -2.5s-28.833 1 -43.5 3s-27.667 5.66699 -39 11c-25.333 12 -38 30.333 -38 55c0 4.66699 2 19 6 43l17 124
c6.66699 46.667 14.334 99 23.001 157c0 18 -20.667 35.333 -62 52c-14 5.33301 -28.667 10 -44 14l9 60c80 19.333 122 40.333 126 63l41 267c10.667 66 43.667 105 99 117c16.667 3.33301 32.667 5.33301 48 6c26 0 70.333 -7.66699 133 -23z" />
    <glyph glyph-name="bar" unicode="|" horiz-adv-x="416" 
d="M166 869h104v-960h-104v960z" />
    <glyph glyph-name="braceright" unicode="}" horiz-adv-x="509" 
d="M8.03125 -83.9492c6.66602 29.332 9.66504 48.3281 8.99805 56.9941h134.991l46.998 307.981c3.99902 27.3311 25.6641 50.6631 64.9951 69.9951c7.33301 4 15.332 7.66699 23.998 11l29.998 13.999c-34.665 17.332 -56.6641 30.998 -65.9971 40.9971
c-18.665 19.332 -26.6641 38.3311 -23.9971 56.9971l46.9971 307.98h-134.992c0.666992 2 1.33398 6.16699 2.00098 12.5s1.66699 13.499 3 21.498s2.33301 16.665 3 25.998c39.9971 11.999 68.9951 18.832 86.9941 20.499s34.165 2.5 48.4971 2.5
c14.333 0 28.832 -1 43.498 -3c14.665 -1.99902 27.6641 -5.66504 38.9971 -10.998c25.332 -11.999 37.998 -30.3311 37.998 -54.9961c0 -4.66602 -2 -18.998 -6 -42.9971l-16.999 -123.992c-6.66602 -46.6641 -14.332 -98.9941 -22.998 -156.99
c0 -17.999 20.665 -35.3311 61.9961 -51.9961c13.999 -5.33301 28.665 -9.99902 43.998 -13.998l-8.99902 -59.9961c-79.9951 -19.333 -121.993 -40.332 -125.993 -62.9971l-40.9971 -266.984c-10.666 -65.9961 -43.6641 -104.993 -98.9941 -116.992
c-16.665 -3.33301 -32.6641 -5.33301 -47.9971 -6c-25.998 0 -70.3281 7.66602 -132.991 22.998z" />
    <glyph glyph-name="asciitilde" unicode="~" horiz-adv-x="555" 
d="M188 417c-41.333 0 -72.668 -15.667 -94.001 -47l-41 58c8.66699 26 26.667 49 54 69c30.667 22.667 63.334 33.667 98.001 33c34.667 0 67.834 -12.333 99.501 -37s57.5 -37 77.5 -37c39.333 0 70.666 17.333 93.999 52l50 -58c-7.33301 -28 -26 -53.333 -56 -76
c-31.333 -24 -65 -36 -101 -36c-35.333 0 -69.666 13 -102.999 39l-25 19c-18.667 14 -36.334 21 -53.001 21z" />
    <glyph glyph-name="DEL" 
 />
    <glyph glyph-name="nonbreakingspace" unicode="&#xa0;" horiz-adv-x="236" 
 />
    <glyph glyph-name="exclamdown" unicode="&#xa1;" horiz-adv-x="349" 
d="M186.011 -211.947h-163.99l125.993 609.963h98.9932zM303.004 618.002c3.33301 -9.33301 5.00195 -20.665 5.00195 -33.998c0 -13.332 -2.66699 -25.998 -8 -37.9971s-12.666 -22.332 -21.999 -30.998c-17.999 -17.333 -38.998 -25.999 -62.9971 -25.999
c-23.3311 0 -41.3301 8 -53.9961 23.999c-11.999 14.666 -17.999 31.665 -17.999 50.9971s2.83301 35.1641 8.49902 47.4971c5.66699 12.333 13.5 22.499 23.499 30.498c18.665 15.999 40.6641 23.998 65.9961 23.998c29.3311 -0.666992 49.9961 -16.666 61.9951 -47.9971z
" />
    <glyph glyph-name="cent" unicode="&#xa2;" horiz-adv-x="515" 
d="M309 83c50.667 0 92.001 20.667 124.001 62l31 -50c-26 -40.667 -67.667 -70.667 -125 -90c-21.333 -7.33301 -44.666 -12 -69.999 -14l-18 -96h-73l19 101c-42.667 10 -76.334 33.667 -101.001 71c-26 39.333 -39 92.666 -39 159.999c0 77.333 19.667 146 59 206
c45.333 69.333 108 112 188 128l23 102h73l-21 -95c46 0 85.667 -6.33301 119 -19l-46 -157c-6.66699 2 -15.667 9.33301 -27 22l-27 31c-27.333 30.667 -47.666 46 -60.999 46s-26.666 -6.33301 -39.999 -19c-30 -28 -51.667 -74.333 -65 -139
c-6 -28.667 -8.83301 -52.667 -8.5 -72s0.666016 -36.666 0.999023 -51.999s2.16602 -32 5.49902 -50s8.66602 -32.667 15.999 -44c13.333 -21.333 34.333 -32 63 -32z" />
    <glyph glyph-name="sterling" unicode="&#xa3;" horiz-adv-x="681" 
d="M468 253l101.001 87c40 -24 68 -61.667 84 -113c5.33301 -17.333 8.16602 -37.5 8.49902 -60.5s-5.16699 -45.5 -16.5 -67.5s-27.666 -41 -48.999 -57c-46.667 -34.667 -111.667 -52 -195 -52c-48 0 -90.667 4.66699 -128 14s-66.166 16.833 -86.499 22.5
s-40.833 10.5 -61.5 14.5c-24 -20.667 -51.667 -35.667 -83 -45c-12.667 -4 -25.834 -6 -39.501 -6s-25.334 3.66699 -35.001 11s-14.5 16.5 -14.5 27.5s3.33301 20.833 10 29.5s15.334 16.667 26.001 24c25.333 15.333 53.333 23 84 23
c23.333 35.333 37.666 69.333 42.999 102l26 147h-72l9 88h78l10 55c12.667 74 46.667 136.333 102 187c57.333 53.333 122.333 80 195 80c70 0 120.333 -15.667 151 -47l-51 -101c-12 26.667 -33 47 -63 61c-13.333 6.66699 -27.166 10 -41.499 10s-27 -1.5 -38 -4.5
s-21.833 -9.5 -32.5 -19.5c-24 -22 -41.333 -60.333 -52 -115l-20 -106h120l-9 -88h-128l-14 -75c-8.66699 -46 -27.334 -89.667 -56.001 -131c-10.667 -16 -20.334 -28.833 -29.001 -38.5s-14 -15.5 -16 -17.5c62.667 -11.333 114.834 -17 156.501 -17
s73.5 3.33301 95.5 10s39 14.667 51 24c20.667 16.667 31 39 31 67s-17 53.667 -51 77z" />
    <glyph glyph-name="currency" unicode="&#xa4;" horiz-adv-x="751" 
d="M495 155c-34.667 -21.333 -72 -31.999 -112 -31.999s-77 10 -111 30l-103 -103l-69 69l101 101c-22.667 36 -34 75 -34 117c0 41.333 11 79.666 33 114.999l-102 102l69 70l103 -104c35.333 20.667 73.333 31 114 31s79 -11.333 115 -34l101 100l68 -69l-102 -102
c20 -34 30.167 -71 30.5 -111s-10.5 -77 -32.5 -111l103 -103l-69 -69zM281 337.001c0 -28.667 10 -53.333 30 -74c19.333 -20.667 43 -31.334 71 -32.001c28 0 51.667 10.667 71 32c19.333 20.667 29 45.334 29 74.001s-9.66699 53.334 -29 74.001s-43 31 -71 31
s-51.667 -10.333 -71 -31c-20 -20.667 -30 -45.334 -30 -74.001z" />
    <glyph glyph-name="yen" unicode="&#xa5;" horiz-adv-x="724" 
d="M140 52l136 14l15 118h-174l8 72h174l11 86h-175l9 74h127l-142 265l-55 12l7 55h334l-8 -55l-89 -12l93 -240l45 69l108 175l-58 8l7 55h273l-7 -55l-64 -13l-202 -264h112l-9 -74h-159l-12 -86h160l-7 -72h-162l-15 -118l143 -14l-5 -52h-425z" />
    <glyph glyph-name="brokenbar" unicode="&#xa6;" horiz-adv-x="416" 
d="M166 869h104v-422h-104v422zM166 331h104v-422h-104v422z" />
    <glyph glyph-name="section" unicode="&#xa7;" horiz-adv-x="583" 
d="M462 193c22 -29.333 33.1621 -60.9971 33.4951 -94.9971s-6 -62.333 -19 -85s-30.833 -41.334 -53.5 -56.001c-46.667 -31.333 -106 -47.333 -178 -48c-72 0 -135.333 8 -190 24c-14 4 -24.333 8.33301 -31 13l27 170h93l13 -110c27.333 -17.333 59 -26 95 -26
c68.667 0 102.667 26.667 102 80c0 24 -15.667 46.667 -47 68c-14 10 -30.333 19.333 -49 28l-57 30c-48 26.667 -81 50.334 -99 71.001s-31.5 41.167 -40.5 61.5s-13.5 44.166 -13.5 71.499c0 53.333 24.333 100.666 73 141.999c-20 29.333 -30 60.333 -30 93
s7 60.5 21 83.5s32.667 42.5 56 58.5c48.667 33.333 108.334 50 179.001 50c74 0 133.667 -8 179 -24c12 -4 21.333 -8.33301 28 -13l-28 -160h-92l-13 101c-21.333 17.333 -48.666 26 -81.999 26c-32 0 -54.667 -3.33301 -68 -10s-23.166 -14.667 -29.499 -24
s-9.5 -22.333 -9.5 -39s4.33301 -31.334 13 -44.001s19.834 -24.167 33.501 -34.5s29.5 -19.833 47.5 -28.5l55 -27c48.667 -24 81.334 -44.667 98.001 -62c34 -35.333 51 -76.333 51 -123c0 -64.667 -22.667 -118.667 -68 -162zM195.995 465.003
c-7.33301 -12 -10.999 -24.998 -10.999 -38.998s3 -26.333 9 -37s14 -20.5 24 -29.5s21.833 -17.5 35.5 -25.5s28.167 -16 43.5 -24l47 -25c16 -8.66699 31.667 -17.667 47 -27c7.33301 11.333 10.833 24.666 10.5 39.999s-3.5 28.166 -9.5 38.499s-14 20 -24 29
s-21.833 17.5 -35.5 25.5s-28.167 16 -43.5 24l-46 23c-16.667 8.66699 -32.334 17.667 -47.001 27z" />
    <glyph glyph-name="dieresis" unicode="&#xa8;" horiz-adv-x="395" 
d="M339 661c-11.333 -5.33301 -23.3311 -7.99902 -35.998 -7.99902s-23.334 2.33301 -32.001 7s-16 11 -22 19c-21.333 25.333 -26 56.333 -14 93c7.33301 23.333 21.666 40.333 42.999 51c10.667 4.66699 22.5 7.16699 35.5 7.5s23.833 -1.83398 32.5 -6.50098
c28 -14 42 -37.333 42 -70c0 -46.667 -16.333 -77.667 -49 -93zM118.002 661.001c-11.333 -5.33301 -23.333 -8.00098 -36 -8.00098s-23 2.33301 -31 7c-17.333 10 -30 25 -38 45c-3.33301 9.33301 -5 16.333 -5 21s0.166992 10.667 0.5 18s2.33301 16.833 6 28.5
s9.16699 21.834 16.5 30.501c15.333 18.667 36.333 28 63 28c22 0 40 -8.33301 54 -25c12.667 -14 19 -31.333 19 -52c0 -46.667 -16.333 -77.667 -49 -93z" />
    <glyph glyph-name="copyright" unicode="&#xa9;" horiz-adv-x="863" 
d="M77 394c0 34.667 4.5 67.999 13.5 99.999s21.833 62 38.5 90s36.5 53.5 59.5 76.5s48.5 42.833 76.5 59.5c58.667 34 122.334 51 191.001 51s132 -17 190 -51c88 -51.333 146.333 -126.666 175 -225.999c9.33301 -32 13.666 -65.333 12.999 -100
c0 -68.667 -17.333 -132.667 -52 -192c-33.333 -56.667 -78.666 -101.667 -135.999 -135c-58.667 -34 -122 -51 -190 -51c-68.667 0 -132.334 17 -191.001 51c-56.667 32.667 -102 77.667 -136 135c-34.667 59.333 -52 123.333 -52 192zM145 393.999
c0 -87.333 30 -162 90 -224s133.667 -93 221 -93c86.667 0 160.334 31 221.001 93c38 39.333 64.333 86 79 140c7.33301 27.333 11 55.333 11 84c0 86.667 -30 161 -90 223c-38 38.667 -84 65.667 -138 81c-26.667 8 -54.334 12 -83.001 12c-56 0 -108.667 -14.333 -158 -43
c-46 -27.333 -83 -65.333 -111 -114c-28 -49.333 -42 -102.333 -42 -159zM465 249.999c43.333 0 79.334 8 108.001 24l19 -50c-22 -19.333 -55.333 -33 -100 -41c-14 -2.66699 -32 -4 -54 -4s-44.333 5.5 -67 16.5s-42 26.167 -58 45.5c-32.667 40 -48.667 90.333 -48 151v3
c0 59.333 18 109 54 149c39.333 43.333 90.666 65 153.999 65c53.333 0 91.333 -6.33301 114 -19v-114h-50l-22 58c-14 12.667 -29.833 19 -47.5 19s-32.5 -3.33301 -44.5 -10s-22.333 -15.667 -31 -27c-18 -25.333 -27.333 -57.333 -28 -96v-28
c0 -16.667 2.83301 -35.667 8.5 -57s13.5 -38.333 23.5 -51c16.667 -22.667 39.667 -34 69 -34z" />
    <glyph glyph-name="ordfeminine" unicode="&#xaa;" horiz-adv-x="416" 
d="M396 423c6.66699 0 15.6689 3.33105 27.002 9.99805l16 -27c-10 -12 -36 -24.333 -78 -37c-12.667 -4 -27.334 -6 -44.001 -6s-30 5.33301 -40 16s-15 23.334 -15 38.001c0 2.66699 0.333008 5 1 7c-15.333 -19.333 -29.333 -32.333 -42 -39
c-24.667 -14.667 -49.334 -22 -74.001 -22s-44.167 3.33301 -58.5 10s-26.5 16 -36.5 28c-20.667 26 -31 61.667 -31 107c0 64.667 26 123.667 78 177c33.333 34.667 73.333 59.334 120 74.001c23.333 7.33301 48.5 11 75.5 11s53.833 -4.33301 80.5 -13l72 17l-57 -325
c-1.33301 -8 -1.33301 -14.333 0 -19s3.33301 -7 6 -7zM169.002 450.498c6 -13.667 15.668 -20.5 29.001 -20.5c23.333 0 44.333 9 63 27l45 255c-8.66699 5.33301 -17.334 8 -26.001 8c-40 0 -70.667 -22.333 -92 -67c-18 -37.333 -27.333 -83.333 -28 -138
c0 -29.333 3 -50.833 9 -64.5z" />
    <glyph glyph-name="guillemotleft" unicode="&#xab;" horiz-adv-x="916" 
d="M105 337l358 198l28 -85l-225 -155l183 -151l-49 -75l-305 190zM435 337l358 198l28 -85l-225 -155l183 -151l-49 -75l-305 190z" />
    <glyph glyph-name="logicalnot" unicode="&#xac;" horiz-adv-x="668" 
d="M111 426h479l-30 -269h-106l21 185h-373z" />
    <glyph glyph-name="registered" unicode="&#xae;" horiz-adv-x="863" 
d="M77 394c0 34.667 4.5 67.999 13.5 99.999s21.833 62 38.5 90s36.5 53.5 59.5 76.5s48.5 42.833 76.5 59.5c58.667 34 122.334 51 191.001 51s132 -17 190 -51c88 -51.333 146.333 -126.666 175 -225.999c9.33301 -32 13.666 -65.333 12.999 -100
c0 -68.667 -17.333 -132.667 -52 -192c-33.333 -56.667 -78.666 -101.667 -135.999 -135c-58.667 -34 -122 -51 -190 -51c-68.667 0 -132.334 17 -191.001 51c-56.667 32.667 -102 77.667 -136 135c-34.667 59.333 -52 123.333 -52 192zM145 393.999
c0 -87.333 30 -162 90 -224s133.667 -93 221 -93c86.667 0 160.334 31 221.001 93c38 39.333 64.333 86 79 140c7.33301 27.333 11 55.333 11 84c0 86.667 -30 161 -90 223c-38 38.667 -84 65.667 -138 81c-26.667 8 -54.334 12 -83.001 12c-56 0 -108.667 -14.333 -158 -43
c-46 -27.333 -83 -65.333 -111 -114c-28 -49.333 -42 -102.333 -42 -159zM350 604.999l116.002 3.00098c78.667 0 129.334 -22.333 152.001 -67c7.33301 -14 11.166 -28.333 11.499 -43s-0.333984 -28.334 -2.00098 -41.001s-6.16699 -25 -13.5 -37
c-15.333 -25.333 -45 -45.333 -89 -60c24 -14 44.667 -37.333 62 -70l19 -36c6 -11.333 14 -20.333 24 -27c8 -4 15.667 -6 23 -6v-38h-102c-10.667 0 -20.334 8.66699 -29.001 26c-4 8 -8 17.5 -12 28.5s-9 22.833 -15 35.5c-15.333 30.667 -33.333 57 -54 79h-34v-123
l45 -10v-36h-178v36l41 10v325l-41 10v41h76zM529.002 485c0 42.667 -25.333 63.999 -76 63.999h-13c-7.33301 0 -13 -0.333008 -17 -1l-16 -4v-130c14 -2.66699 29.833 -4 47.5 -4s30.5 1.83301 38.5 5.5s14.667 9.16699 20 16.5c10.667 12.667 16 30.334 16 53.001z" />
    <glyph glyph-name="macron" unicode="&#xaf;" horiz-adv-x="299" 
d="M5 788h279v-102h-279v102z" />
    <glyph glyph-name="degree" unicode="&#xb0;" horiz-adv-x="467" 
d="M256 456c-24.667 0 -47.332 4.33203 -67.999 12.999c-42 18 -71 48 -87 90c-8 20 -12 41 -12 63c0 48.667 17 89.334 51 122.001c33.333 32 75 48 125 48c47.333 0 87.666 -16.667 120.999 -50c31.333 -31.333 47 -70 47 -116c0 -49.333 -17.333 -90 -52 -122
c-34 -32 -75.667 -48 -125 -48zM225.502 539.999c10.333 -4.66699 21.6641 -7 33.9971 -7s23.833 2.16699 34.5 6.5s19.667 10.833 27 19.5c16.667 17.333 25.334 39 26.001 65v10.5c0 6.33301 -2.16699 14.833 -6.5 25.5s-10.166 20 -17.499 28
c-16 17.333 -36.333 26.333 -61 27c-25.333 0 -46.166 -8.66699 -62.499 -26s-24.5 -39 -24.5 -65v-10.5c0 -6.33301 2 -14.833 6 -25.5s9.83301 -20.167 17.5 -28.5s16.667 -14.833 27 -19.5z" />
    <glyph glyph-name="plusminus" unicode="&#xb1;" horiz-adv-x="649" 
d="M272 252l13 80l-69 -3h-95l9 96h105l68 -5l6 80l13 113h107l-13 -113l-14 -80l56 5h110l-9 -96h-120l-54 3c-0.666992 -14 -1.5 -27.5 -2.5 -40.5s-1.83301 -26.167 -2.5 -39.5l-14 -118h-107zM96 88h415l-9 -88h-414z" />
    <glyph glyph-name="twosuperior" unicode="&#xb2;" horiz-adv-x="567" 
d="M78 358c58.667 34 114.662 74.001 167.995 120.001c44 38 76.333 76 97 114c10.667 20 15.834 37 15.501 51s-2.16602 25.333 -5.49902 34s-8.66602 16.667 -15.999 24c-15.333 15.333 -35.166 23.166 -59.499 23.499s-49 -6 -74 -19s-47.5 -30.833 -67.5 -53.5l-39 56
c16.667 23.333 44.334 45.666 83.001 66.999c44.667 26 86.167 39 124.5 39s69.5 -4.16699 93.5 -12.5s43 -19.166 57 -32.499c24.667 -24.667 36.667 -57 36 -97c0 -75.333 -45 -147.333 -135 -216c-28.667 -22.667 -62 -45.667 -100 -69l198 22l46 66l51 -14l-47 -150
h-404z" />
    <glyph glyph-name="threesuperior" unicode="&#xb3;" horiz-adv-x="522" 
d="M307 816c118.667 0 178.004 -39 178.004 -117c0 -50 -29 -88.333 -87 -115c-18 -8 -38.333 -15.333 -61 -22c51.333 0 89.333 -13.333 114 -40c18.667 -20 28 -44.833 28 -74.5s-8 -55.5 -24 -77.5s-36.667 -40 -62 -54c-50 -28 -110.333 -42 -181 -42
c-32.667 0 -67.334 6.66699 -104.001 20c-12.667 4 -23.334 9 -32.001 15l8 72c33.333 -16.667 74.666 -25 123.999 -25c39.333 0 67.666 4.83301 84.999 14.5s30.166 21 38.499 34s12.5 27.5 12.5 43.5s-2.16699 27.667 -6.5 35s-10.166 13.333 -17.499 18
c-14 8 -34.667 12.333 -62 13l-85 -22l15 85c69.333 12.667 117.333 36.667 144 72c9.33301 13.333 14 25.333 14 36s-1.5 18.5 -4.5 23.5s-7.5 9.83301 -13.5 14.5c-13.333 9.33301 -32.333 14 -57 14c-41.333 0 -82 -15.333 -122 -46l-22 64
c36 28.667 80.333 47.667 133 57c16 2.66699 31.667 4 47 4z" />
    <glyph glyph-name="acute" unicode="&#xb4;" horiz-adv-x="272" 
d="M24 641l155 210l94 -91c-9.33301 -18 -37.333 -46 -84 -84c-50 -40.667 -88 -65.667 -114 -75z" />
    <glyph glyph-name="mu" unicode="&#xb5;" horiz-adv-x="666" 
d="M474 -10c-47.333 0 -71.0049 18.333 -71.0049 55c0 4 0.333008 8.33301 1 13c-4 -4 -9.16699 -9.83301 -15.5 -17.5s-14.166 -15.167 -23.499 -22.5c-24.667 -18 -53 -27.333 -85 -28c-33.333 0 -61.333 7 -84 21c-7.33301 4.66699 -13 10 -17 16l-30 -209h-129l53 357
c2.66699 23.333 6 45.666 10 66.999l11 67c8 51.333 14 98.666 18 141.999c0 18.667 -7 28 -21 28c-11.333 0 -23.333 -5.33301 -36 -16l-15 39l14.5 14.5c7 7 16.5 14.5 28.5 22.5c30 19.333 65.667 29 107 29c42 0 69.333 -11 82 -33
c6.66699 -12 6.83398 -41.667 0.500977 -89s-11.166 -81.666 -14.499 -102.999s-6.16602 -38.333 -8.49902 -51s-4.5 -25.334 -6.5 -38.001c-4 -28.667 -6 -54 -6 -76s2 -38.833 6 -50.5s8.66699 -20.5 14 -26.5c10 -12 22 -18 36 -18s25 1.83301 33 5.5
s15 8.33398 21 14.001s11.333 11.834 16 18.501l14 20l59 423h159l-63 -453c-3.33301 -24.667 3.33398 -37 20.001 -37c8.66699 0 17.667 3.33301 27 10l18 12l13 -35c-16 -27.333 -45 -48.333 -87 -63c-14.667 -5.33301 -31 -8 -49 -8z" />
    <glyph glyph-name="paragraph" unicode="&#xb6;" horiz-adv-x="666" 
d="M70 42l100 15.002l36 274c-48.667 0 -90.334 19 -125.001 57c-34.667 37.333 -52 82.666 -52 135.999c0 162 106.667 243 320 243c26.667 0 47.334 -0.333008 62.001 -1l37 -3c44 -2.66699 80.333 -4.33398 109 -5.00098h145l-5 -50l-82 -17
c-6 -50.667 -12.333 -102.667 -19 -156l-42 -322c-6.66699 -53.333 -13 -105.333 -19 -156l76 -15l-5 -42h-215l86 690h-95l-87 -690h-229z" />
    <glyph glyph-name="periodcentered" unicode="&#xb7;" horiz-adv-x="349" 
d="M89 353c-3.33301 9.33301 -4.99805 20.666 -4.99805 33.999s2.66699 26 8 38s12.666 22.333 21.999 31c18.667 17.333 39.667 26 63 26s41.666 -8 54.999 -24c12 -14.667 17.833 -31.667 17.5 -51s-3.33301 -35.166 -9 -47.499s-13.167 -22.5 -22.5 -30.5
c-18.667 -16 -41 -24 -67 -24c-29.333 0.666992 -50 16.667 -62 48z" />
    <glyph glyph-name="cedilla" unicode="&#xb8;" horiz-adv-x="233" 
d="M119 -114.5c4.66699 10.333 7.16895 21.002 7.50195 32.002s0.5 23.667 0.5 38s-2.33301 34.166 -7 59.499l37 2l41 -2c11.333 -16.667 19.666 -48.334 24.999 -95.001c1.33301 -13.333 2 -25.333 2 -36c0 -80 -48.667 -120 -146 -120
c-26.667 0 -48.834 1.66699 -66.501 5s-27.834 6 -30.501 8l18 75c10 -5.33301 21.833 -8 35.5 -8s25.834 1.33301 36.501 4s20 7 28 13s14.333 14.167 19 24.5z" />
    <glyph glyph-name="onesuperior" unicode="&#xb9;" horiz-adv-x="498" 
d="M124 363l94.999 12.999l40 295l-108 -20l-5 55c20 6 40.333 13.667 61 23c72.667 34.667 118.334 59.334 137.001 74.001l58 -10l-58 -417l100 -13l-6 -52h-320z" />
    <glyph glyph-name="ordmasculine" unicode="&#xba;" horiz-adv-x="416" 
d="M292 374c-28.667 -10.667 -57.1689 -15.999 -85.502 -15.999s-53.166 4 -74.499 12s-39.666 19.667 -54.999 35c-32.667 32 -49 73.667 -49 125c0 75.333 25.333 136.333 76 183c45.333 42 99 63 161 63c55.333 0 99 -16.333 131 -49c30 -31.333 45 -69.833 45 -115.5
s-6.66699 -83.667 -20 -114s-31 -55.833 -53 -76.5s-47.333 -36.334 -76 -47.001zM161.998 600.501c-3.33301 -21.667 -5 -47.1709 -5 -76.5039s4.83301 -55 14.5 -77s21.667 -33 36 -33s26.666 2.33301 36.999 7s19.333 11.334 27 20.001s14 18.834 19 30.501
s9.16699 24.167 12.5 37.5c5.33301 24.667 8 49.834 8 75.501s-1.16699 46.5 -3.5 62.5c-2.33301 16.667 -5.83301 30.334 -10.5 41.001c-10 24 -24.167 35.833 -42.5 35.5s-33.833 -6.5 -46.5 -18.5s-22.667 -27 -30 -45s-12.666 -37.833 -15.999 -59.5z" />
    <glyph glyph-name="guillemotright" unicode="&#xbb;" horiz-adv-x="916" 
d="M435.007 267.021l-357.978 -197.988l-27.999 84.9951l224.986 154.99l-182.988 150.991l48.9971 74.9951l304.98 -189.988zM765.007 267.021l-357.978 -197.988l-27.999 84.9951l224.986 154.99l-182.988 150.991l48.9971 74.9951l304.98 -189.988z" />
    <glyph glyph-name="onequarter" unicode="&#xbc;" horiz-adv-x="1250" 
d="M139 363l94.999 12.999l40 295l-108 -20l-5 55c20 6 40.333 13.667 61 23c72.667 34.667 118.334 59.334 137.001 74.001l58 -10l-58 -417l100 -13l-6 -52h-320zM948.999 75.999h-269l-18 47l281 421l77 1l60 -51l-219 -280l-62 -65l160 5l16 113l121 11l-16 -120l92 4
l-10 -86h-93l-22 -161h-121zM714.999 746.999h107l-333 -747h-107z" />
    <glyph glyph-name="onehalf" unicode="&#xbd;" horiz-adv-x="1250" 
d="M715 747h107l-333 -747h-107zM139 363l94.999 12.999l40 295l-108 -20l-5 55c20 6 40.333 13.667 61 23c72.667 34.667 118.334 59.334 137.001 74.001l58 -10l-58 -417l100 -13l-6 -52h-320zM680.999 8.99902c58.667 34 114.662 74.001 167.995 120.001
c44 38 76.333 76 97 114c10.667 20 15.834 37 15.501 51s-2.16602 25.333 -5.49902 34s-8.66602 16.667 -15.999 24c-15.333 15.333 -35.166 23.166 -59.499 23.499s-49 -6 -74 -19s-47.5 -30.833 -67.5 -53.5l-39 56c16.667 23.333 44.334 45.666 83.001 66.999
c44.667 26 86.167 39 124.5 39s69.5 -4.16699 93.5 -12.5s43 -19.166 57 -32.499c24.667 -24.667 36.667 -57 36 -97c0 -75.333 -45 -147.333 -135 -216c-28.667 -22.667 -62 -45.667 -100 -69l198 22l46 66l51 -14l-47 -150h-404z" />
    <glyph glyph-name="threequarters" unicode="&#xbe;" horiz-adv-x="1257" 
d="M310 816c118.667 0 178.004 -39 178.004 -117c0 -50 -29 -88.333 -87 -115c-18 -8 -38.333 -15.333 -61 -22c51.333 0 89.333 -13.333 114 -40c18.667 -20 28 -44.833 28 -74.5s-8 -55.5 -24 -77.5s-36.667 -40 -62 -54c-50 -28 -110.333 -42 -181 -42
c-32.667 0 -67.334 6.66699 -104.001 20c-12.667 4 -23.334 9 -32.001 15l8 72c33.333 -16.667 74.666 -25 123.999 -25c39.333 0 67.666 4.83301 84.999 14.5s30.166 21 38.499 34s12.5 27.5 12.5 43.5s-2.16699 27.667 -6.5 35s-10.166 13.333 -17.499 18
c-14 8 -34.667 12.333 -62 13l-85 -22l15 85c69.333 12.667 117.333 36.667 144 72c9.33301 13.333 14 25.333 14 36s-1.5 18.5 -4.5 23.5s-7.5 9.83301 -13.5 14.5c-13.333 9.33301 -32.333 14 -57 14c-41.333 0 -82 -15.333 -122 -46l-22 64
c36 28.667 80.333 47.667 133 57c16 2.66699 31.667 4 47 4zM949.004 76h-269l-18 47l281 421l77 1l60 -51l-219 -280l-62 -65l160 5l16 113l121 11l-16 -120l92 4l-10 -86h-93l-22 -161h-121zM715.004 747h107l-333 -747h-107z" />
    <glyph glyph-name="questiondown" unicode="&#xbf;" horiz-adv-x="494" 
d="M351.5 530c-11.667 -4 -22.6689 -6.00098 -33.002 -6.00098s-19.666 2 -27.999 6s-15.166 9.33301 -20.499 16c-13.333 15.333 -20 32.333 -20 51s2.66699 34.167 8 46.5s12.333 22.5 21 30.5c18.667 17.333 40 26 64 26c23.333 0 41.333 -8 54 -24
c12 -14 18 -30.667 18 -50s-3 -35.166 -9 -47.499s-13.667 -22.5 -23 -30.5s-19.833 -14 -31.5 -18zM297.998 339.999c8.66699 19.333 13.166 36.334 13.499 51.001s0.166016 28.334 -0.500977 41.001l92 27l7 -1c16 -23.333 24 -48 24 -74s-4.33301 -48.333 -13 -67
s-20 -35.667 -34 -51c-22.667 -25.333 -58.667 -52.333 -108 -81c-46 -24 -81.667 -49.667 -107 -77c-10 -21.333 -15 -41.333 -15 -60s3.33301 -36.334 10 -53.001s17.334 -31.334 32.001 -44.001c31.333 -27.333 73 -41 125 -41c30.667 0 65 9.33301 103 28l-27 -107
c-14.667 -14 -44.667 -24.667 -90 -32c-13.333 -2 -25.333 -3.33301 -36 -4c-87.333 0 -152.666 21 -195.999 63c-36 34.667 -54 79.667 -54 135c0 76.667 30 137.667 90 183c16.667 13.333 34 26 52 38l52 35c38 26 64.667 56.333 80 91z" />
    <glyph glyph-name="Agrave" unicode="&#xc0;" horiz-adv-x="671" 
d="M326 747h169l121 -680l78 -15l-3 -52h-336l2 52l77 14l-19 137h-249l-62 -137l92 -14l-4 -52h-272l4 52l67 14zM404 277l-38 268l-4 98l-164 -366h206zM401 767c-26.667 9.33301 -52.667 23.001 -78 41.001c-48 33.333 -78.333 61.666 -91 84.999l91 90l135 -167z" />
    <glyph glyph-name="Aacute" unicode="&#xc1;" horiz-adv-x="671" 
d="M326 747h169l121 -680l78 -15l-3 -52h-336l2 52l77 14l-19 137h-249l-62 -137l92 -14l-4 -52h-272l4 52l67 14zM404 277l-38 268l-4 98l-164 -366h206zM350 816l134 167l92 -90c-12 -22.667 -37.667 -47.667 -77 -75c-34.667 -24.667 -65.667 -41.667 -93 -51z" />
    <glyph glyph-name="Acircumflex" unicode="&#xc2;" horiz-adv-x="671" 
d="M326 747h169l121 -680l78 -15l-3 -52h-336l2 52l77 14l-19 137h-249l-62 -137l92 -14l-4 -52h-272l4 52l67 14zM404 277l-38 268l-4 98l-164 -366h206zM228 809l180 174h87l102 -174l-60 -28l-99 101l-157 -101z" />
    <glyph glyph-name="Atilde" unicode="&#xc3;" horiz-adv-x="671" 
d="M326 747h169l121 -680l78 -15l-3 -52h-336l2 52l77 14l-19 137h-249l-62 -137l92 -14l-4 -52h-272l4 52l67 14zM404 277l-38 268l-4 98l-164 -366h206zM282 819l-37.998 60.002c10 21.333 27.333 40.333 52 57c25.333 17.333 47.166 26 65.499 26s32 -1.83301 41 -5.5
s17.333 -8.16699 25 -13.5s14.5 -11.333 20.5 -18l18 -17c13.333 -12.667 25.666 -19 36.999 -19s20.5 1.33301 27.5 4s13.167 6.33398 18.5 11.001c8.66699 6.66699 19 18 31 34l43 -64c-8.66699 -22 -24.667 -42.333 -48 -61c-24.667 -18.667 -46.834 -28 -66.501 -28
s-34.667 1.83301 -45 5.5s-19.166 8.16699 -26.499 13.5s-14 11.166 -20 17.499s-12.333 12.166 -19 17.499c-14.667 12.667 -31.5 19.167 -50.5 19.5s-40.833 -12.834 -65.5 -39.501z" />
    <glyph glyph-name="Adieresis" unicode="&#xc4;" horiz-adv-x="671" 
d="M326 747h169l121 -680l78 -15l-3 -52h-336l2 52l77 14l-19 137h-249l-62 -137l92 -14l-4 -52h-272l4 52l67 14zM404 277l-38 268l-4 98l-164 -366h206zM439 888c0.666992 23.333 8.16895 42.666 22.502 57.999s33.666 23 57.999 23s42.166 -6.5 53.499 -19.5
s17 -31.167 17 -54.5s-7 -43.166 -21 -59.499s-33 -24.5 -57 -24.5s-42.333 7 -55 21s-18.667 32.667 -18 56zM240.502 945.5c15 15.667 34.499 23.499 58.499 23.499s41.833 -6.5 53.5 -19.5s17.5 -31.167 17.5 -54.5s-7 -43.166 -21 -59.499s-33.167 -24.5 -57.5 -24.5
s-42.666 6.83301 -54.999 20.5s-18.5 32.167 -18.5 55.5s7.5 42.833 22.5 58.5z" />
    <glyph glyph-name="Aring" unicode="&#xc5;" horiz-adv-x="671" 
d="M584 875c0 -62 -29.667 -105.331 -89 -129.998l121 -678l78 -15l-3 -52h-336l2 52l77 14l-19 137h-249l-62 -137l92 -14l-4 -52h-272l4 52l67 14l331 674c-50 17.333 -74.667 50.666 -74 99.999c0 51.333 21.667 89.666 65 114.999c33.333 18.667 74.333 28 123 28
c69.333 0 115 -20.333 137 -61c7.33301 -13.333 11 -29 11 -47zM409 796.002c54 0 81.002 21.6641 81.002 64.9971c0 16.667 -6.66699 30.334 -20 41.001c-12.667 10 -25.834 15 -39.501 15s-25.334 -1 -35.001 -3s-18.5 -5.33301 -26.5 -10
c-18 -11.333 -27 -28.666 -27 -51.999c0 -25.333 14.333 -42.666 43 -51.999c8 -2.66699 16 -4 24 -4zM404.002 276.999l-38 268l-4 98l-164 -366h206z" />
    <glyph glyph-name="AE" unicode="&#xc6;" horiz-adv-x="1017" 
d="M377 681l-164 12l8 54h764l-17 -181h-104l-16 110l-171 12l-32 -258l216 12l-11 -107l-215 13l-38 -282l234 17l57 146l104 -7l-34 -222h-630l6 52l93 14l17 137h-231l-75 -137l92 -14l-3 -52h-307l4 52l77 14zM454 277l51 404h-29l-223 -404h201z" />
    <glyph glyph-name="Ccedilla" unicode="&#xc7;" horiz-adv-x="640" 
d="M193 -147c10 -5.33301 21.999 -8 35.999 -8s26.167 1.33301 36.5 4s19.5 7 27.5 13c18.667 14 28 40.667 28 80c0 15.333 -1.33301 32.333 -4 51c-130 3.33301 -216.667 57.333 -260 162c-18 44.667 -27.167 99.334 -27.5 164.001s9.83398 124.5 30.501 179.5
s50 101.833 88 140.5c77.333 78.667 182.333 117.667 315 117c62.667 0 112 -5.33301 148 -16c9.33301 -2.66699 18.666 -5 27.999 -7l16 -4l-30 -196h-124l-19 152c-15.333 6 -33.333 8.83301 -54 8.5s-41.5 -5.83301 -62.5 -16.5s-39.5 -25.334 -55.5 -44.001
s-30 -40.334 -42 -65.001c-32 -67.333 -48 -145 -48 -233c0 -176 45.667 -264 137 -264c30 0 52.833 3.66699 68.5 11s26.834 14.5 33.501 21.5s11.834 14.167 15.501 21.5s7.16699 15.333 10.5 24s6.33301 17.667 9 27l8 29h98l-21 -139
c-46.667 -39.333 -106.334 -62.666 -179.001 -69.999c12 -36.667 18 -73.667 18 -111c0 -80 -48.667 -120 -146 -120c-26.667 0 -48.667 1.66699 -66 5s-27.333 6 -30 8z" />
    <glyph glyph-name="Egrave" unicode="&#xc8;" horiz-adv-x="648" 
d="M-16 52l78 14l81 615l-71 12l5 54h546l-18 -181h-108l-17 110l-165 12l-35 -258l217 12l-12 -107l-215 13l-38 -282l226 17l57 146l104 -7l-34 -222h-607zM404 767c-26.667 9.33301 -52.667 23.001 -78 41.001c-48 33.333 -78.333 61.666 -91 84.999l91 90l135 -167z" />
    <glyph glyph-name="Eacute" unicode="&#xc9;" horiz-adv-x="648" 
d="M-16 52l78 14l81 615l-71 12l5 54h546l-18 -181h-108l-17 110l-165 12l-35 -258l217 12l-12 -107l-215 13l-38 -282l226 17l57 146l104 -7l-34 -222h-607zM352 816l134 167l92 -90c-12 -22.667 -37.667 -47.667 -77 -75c-34.667 -24.667 -65.667 -41.667 -93 -51z" />
    <glyph glyph-name="Ecircumflex" unicode="&#xca;" horiz-adv-x="648" 
d="M-16 52l78 14l81 615l-71 12l5 54h546l-18 -181h-108l-17 110l-165 12l-35 -258l217 12l-12 -107l-215 13l-38 -282l226 17l57 146l104 -7l-34 -222h-607zM231 809l180 174h87l102 -174l-60 -28l-99 101l-157 -101z" />
    <glyph glyph-name="Edieresis" unicode="&#xcb;" horiz-adv-x="648" 
d="M-16 52l78 14l81 615l-71 12l5 54h546l-18 -181h-108l-17 110l-165 12l-35 -258l217 12l-12 -107l-215 13l-38 -282l226 17l57 146l104 -7l-34 -222h-607zM442 888c0.666992 23.333 8.16895 42.666 22.502 57.999s33.666 23 57.999 23s42.166 -6.5 53.499 -19.5
s17 -31.167 17 -54.5s-7 -43.166 -21 -59.499s-33 -24.5 -57 -24.5s-42.333 7 -55 21s-18.667 32.667 -18 56zM243.502 945.5c15 15.667 34.499 23.499 58.499 23.499s41.833 -6.5 53.5 -19.5s17.5 -31.167 17.5 -54.5s-7 -43.166 -21 -59.499s-33.167 -24.5 -57.5 -24.5
s-42.666 6.83301 -54.999 20.5s-18.5 32.167 -18.5 55.5s7.5 42.833 22.5 58.5z" />
    <glyph glyph-name="Igrave" unicode="&#xcc;" horiz-adv-x="382" 
d="M-2 52l73 14l80 615l-71 12l5 54h328l-6 -54l-84 -12l-80 -615l85 -14l-3 -52h-334zM267 767c-26.667 9.33301 -52.667 23.001 -78 41.001c-48 33.333 -78.333 61.666 -91 84.999l91 90l135 -167z" />
    <glyph glyph-name="Iacute" unicode="&#xcd;" horiz-adv-x="382" 
d="M-2 52l73 14l80 615l-71 12l5 54h328l-6 -54l-84 -12l-80 -615l85 -14l-3 -52h-334zM215 816l134 167l92 -90c-12 -22.667 -37.667 -47.667 -77 -75c-34.667 -24.667 -65.667 -41.667 -93 -51z" />
    <glyph glyph-name="Icircumflex" unicode="&#xce;" horiz-adv-x="382" 
d="M-2 52l73 14l80 615l-71 12l5 54h328l-6 -54l-84 -12l-80 -615l85 -14l-3 -52h-334zM94 809l180 174h87l102 -174l-60 -28l-99 101l-157 -101z" />
    <glyph glyph-name="Idieresis" unicode="&#xcf;" horiz-adv-x="382" 
d="M-2 52l73 14l80 615l-71 12l5 54h328l-6 -54l-84 -12l-80 -615l85 -14l-3 -52h-334zM305 888c0.666992 23.333 8.16895 42.666 22.502 57.999s33.666 23 57.999 23s42.166 -6.5 53.499 -19.5s17 -31.167 17 -54.5s-7 -43.166 -21 -59.499s-33 -24.5 -57 -24.5
s-42.333 7 -55 21s-18.667 32.667 -18 56zM106.502 945.5c15 15.667 34.499 23.499 58.499 23.499s41.833 -6.5 53.5 -19.5s17.5 -31.167 17.5 -54.5s-7 -43.166 -21 -59.499s-33.167 -24.5 -57.5 -24.5s-42.666 6.83301 -54.999 20.5s-18.5 32.167 -18.5 55.5
s7.5 42.833 22.5 58.5z" />
    <glyph glyph-name="Eth" unicode="&#xd0;" horiz-adv-x="735" 
d="M-16 53l78.001 14l36 276h-66l12 83h65l35 256l-71 12l6 54h154c28 0 56.833 1.33301 86.5 4s59.167 4 88.5 4h3c109.333 0 190.666 -29.333 243.999 -88c47.333 -52 71.333 -124.333 72 -217c0 -218 -79.667 -359.333 -239 -424
c-55.333 -22.667 -121.666 -34 -198.999 -34c-8.66699 0 -18.334 0.666992 -29.001 2s-19.667 2.33301 -27 3s-15.333 1 -24 1c-20 1.33301 -37 2 -51 2h-179zM233.001 67c21.333 -8 45.167 -12 71.5 -12s51.5 5.5 75.5 16.5s45 26 63 45s33.333 41 46 66s23 51.5 31 79.5
c15.333 54 22.833 107.667 22.5 161s-3.5 96.5 -9.5 129.5s-15 60.167 -27 81.5c-24 40.667 -62 60.667 -114 60c-37.333 0 -63.333 -4 -78 -12l-34 -256h145l-13 -83h-143z" />
    <glyph glyph-name="Ntilde" unicode="&#xd1;" horiz-adv-x="754" 
d="M-12 52l73 14l90 615l-83 12l8 54h272l181 -486l38 -112l67 532l-84 12l5 54h245l-5 -54l-60 -12l-104 -681h-174l-191 502l-38 124l-61 -560l92 -14l-5 -52h-270zM336 819l-37.998 60.002c10 21.333 27.333 40.333 52 57c25.333 17.333 47.166 26 65.499 26
s32 -1.83301 41 -5.5s17.333 -8.16699 25 -13.5s14.5 -11.333 20.5 -18l18 -17c13.333 -12.667 25.666 -19 36.999 -19s20.5 1.33301 27.5 4s13.167 6.33398 18.5 11.001c8.66699 6.66699 19 18 31 34l43 -64c-8.66699 -22 -24.667 -42.333 -48 -61
c-24.667 -18.667 -46.834 -28 -66.501 -28s-34.667 1.83301 -45 5.5s-19.166 8.16699 -26.499 13.5s-14 11.166 -20 17.499s-12.333 12.166 -19 17.499c-14.667 12.667 -31.5 19.167 -50.5 19.5s-40.833 -12.834 -65.5 -39.501z" />
    <glyph glyph-name="Ograve" unicode="&#xd2;" horiz-adv-x="732" 
d="M27 305c0 41.333 3.49902 80.501 10.499 117.501s17.667 71.833 32 104.5s32.333 63.167 54 91.5s47.167 52.5 76.5 72.5c62 43.333 136 65.333 222 66c98 0 173 -32.333 225 -97c45.333 -56.667 68 -131.334 68 -224.001c0 -122 -30.333 -224 -91 -306
c-69.333 -93.333 -170.666 -140 -303.999 -140c-98 0 -172.333 30.667 -223 92c-46.667 56.667 -70 131 -70 223zM528.999 430.001c0 177.333 -39.999 266 -119.999 266c-60.667 0 -109.334 -39.333 -146.001 -118c-33.333 -72.667 -50 -159.667 -50 -261
c0 -178 40.333 -267 121 -267c64 0 113 37 147 111c32 68 48 157.667 48 269zM428 767.001c-26.667 9.33301 -52.667 23.001 -78 41.001c-48 33.333 -78.333 61.666 -91 84.999l91 90l135 -167z" />
    <glyph glyph-name="Oacute" unicode="&#xd3;" horiz-adv-x="732" 
d="M27 305c0 41.333 3.49902 80.501 10.499 117.501s17.667 71.833 32 104.5s32.333 63.167 54 91.5s47.167 52.5 76.5 72.5c62 43.333 136 65.333 222 66c98 0 173 -32.333 225 -97c45.333 -56.667 68 -131.334 68 -224.001c0 -122 -30.333 -224 -91 -306
c-69.333 -93.333 -170.666 -140 -303.999 -140c-98 0 -172.333 30.667 -223 92c-46.667 56.667 -70 131 -70 223zM528.999 430.001c0 177.333 -39.999 266 -119.999 266c-60.667 0 -109.334 -39.333 -146.001 -118c-33.333 -72.667 -50 -159.667 -50 -261
c0 -178 40.333 -267 121 -267c64 0 113 37 147 111c32 68 48 157.667 48 269zM376 816.001l134 167l92 -90c-12 -22.667 -37.667 -47.667 -77 -75c-34.667 -24.667 -65.667 -41.667 -93 -51z" />
    <glyph glyph-name="Ocircumflex" unicode="&#xd4;" horiz-adv-x="732" 
d="M27 305c0 41.333 3.49902 80.501 10.499 117.501s17.667 71.833 32 104.5s32.333 63.167 54 91.5s47.167 52.5 76.5 72.5c62 43.333 136 65.333 222 66c98 0 173 -32.333 225 -97c45.333 -56.667 68 -131.334 68 -224.001c0 -122 -30.333 -224 -91 -306
c-69.333 -93.333 -170.666 -140 -303.999 -140c-98 0 -172.333 30.667 -223 92c-46.667 56.667 -70 131 -70 223zM528.999 430.001c0 177.333 -39.999 266 -119.999 266c-60.667 0 -109.334 -39.333 -146.001 -118c-33.333 -72.667 -50 -159.667 -50 -261
c0 -178 40.333 -267 121 -267c64 0 113 37 147 111c32 68 48 157.667 48 269zM255 809.001l180 174h87l102 -174l-60 -28l-99 101l-157 -101z" />
    <glyph glyph-name="Otilde" unicode="&#xd5;" horiz-adv-x="732" 
d="M27 305c0 41.333 3.49902 80.501 10.499 117.501s17.667 71.833 32 104.5s32.333 63.167 54 91.5s47.167 52.5 76.5 72.5c62 43.333 136 65.333 222 66c98 0 173 -32.333 225 -97c45.333 -56.667 68 -131.334 68 -224.001c0 -122 -30.333 -224 -91 -306
c-69.333 -93.333 -170.666 -140 -303.999 -140c-98 0 -172.333 30.667 -223 92c-46.667 56.667 -70 131 -70 223zM528.999 430.001c0 177.333 -39.999 266 -119.999 266c-60.667 0 -109.334 -39.333 -146.001 -118c-33.333 -72.667 -50 -159.667 -50 -261
c0 -178 40.333 -267 121 -267c64 0 113 37 147 111c32 68 48 157.667 48 269zM309 819.001l-37.998 60.002c10 21.333 27.333 40.333 52 57c25.333 17.333 47.166 26 65.499 26s32 -1.83301 41 -5.5s17.333 -8.16699 25 -13.5s14.5 -11.333 20.5 -18l18 -17
c13.333 -12.667 25.666 -19 36.999 -19s20.5 1.33301 27.5 4s13.167 6.33398 18.5 11.001c8.66699 6.66699 19 18 31 34l43 -64c-8.66699 -22 -24.667 -42.333 -48 -61c-24.667 -18.667 -46.834 -28 -66.501 -28s-34.667 1.83301 -45 5.5s-19.166 8.16699 -26.499 13.5
s-14 11.166 -20 17.499s-12.333 12.166 -19 17.499c-14.667 12.667 -31.5 19.167 -50.5 19.5s-40.833 -12.834 -65.5 -39.501z" />
    <glyph glyph-name="Odieresis" unicode="&#xd6;" horiz-adv-x="732" 
d="M27 305c0 41.333 3.49902 80.501 10.499 117.501s17.667 71.833 32 104.5s32.333 63.167 54 91.5s47.167 52.5 76.5 72.5c62 43.333 136 65.333 222 66c98 0 173 -32.333 225 -97c45.333 -56.667 68 -131.334 68 -224.001c0 -122 -30.333 -224 -91 -306
c-69.333 -93.333 -170.666 -140 -303.999 -140c-98 0 -172.333 30.667 -223 92c-46.667 56.667 -70 131 -70 223zM528.999 430.001c0 177.333 -39.999 266 -119.999 266c-60.667 0 -109.334 -39.333 -146.001 -118c-33.333 -72.667 -50 -159.667 -50 -261
c0 -178 40.333 -267 121 -267c64 0 113 37 147 111c32 68 48 157.667 48 269zM466 888.001c0.666992 23.333 8.16895 42.666 22.502 57.999s33.666 23 57.999 23s42.166 -6.5 53.499 -19.5s17 -31.167 17 -54.5s-7 -43.166 -21 -59.499s-33 -24.5 -57 -24.5
s-42.333 7 -55 21s-18.667 32.667 -18 56zM267.502 945.501c15 15.667 34.499 23.499 58.499 23.499s41.833 -6.5 53.5 -19.5s17.5 -31.167 17.5 -54.5s-7 -43.166 -21 -59.499s-33.167 -24.5 -57.5 -24.5s-42.666 6.83301 -54.999 20.5s-18.5 32.167 -18.5 55.5
s7.5 42.833 22.5 58.5z" />
    <glyph glyph-name="multiply" unicode="&#xd7;" horiz-adv-x="668" 
d="M99 215l187 159l-147 160l79 74l137 -171l180 170l63 -75l-186 -159l147 -160l-80 -74l-137 171l-180 -170z" />
    <glyph glyph-name="Oslash" unicode="&#xd8;" horiz-adv-x="731" 
d="M447 9c-38 -12 -84.334 -17.999 -139.001 -17.999s-104 12.667 -148 38l-63 -89l-43 24l66 95c-62 56.667 -93 141 -93 253c0 121.333 32 223.666 96 306.999c44.667 58 103.334 98.333 176.001 121c37.333 12 80.833 18 130.5 18s95.5 -10.667 137.5 -32l63 89l44 -23
l-66 -93c71.333 -57.333 107 -144.666 107 -261.999c0 -122 -30.333 -224 -91 -306c-44.667 -58.667 -103.667 -99.334 -177 -122.001zM496.999 637.001c-19.333 40.667 -48.666 60.668 -87.999 60.001c-60.667 0 -109.334 -39.333 -146.001 -118
c-33.333 -72.667 -50 -159.667 -50 -261c0 -52.667 3 -95.334 9 -128.001zM238.999 125.002c19.333 -50 51 -74.666 95 -73.999c64 0 113 37 147 111c32 68 48 157.667 48 269c0 57.333 -4 105.666 -12 144.999z" />
    <glyph glyph-name="Ugrave" unicode="&#xd9;" horiz-adv-x="706" 
d="M74.5 123.5c-8.33301 27 -12.5 51.167 -12.5 72.5c0 42 1.33301 73.333 4 94l49 391l-71 12l7 54h344l-5 -53l-97 -13l-47 -377c-5.33301 -48 -8 -82.167 -8 -102.5s2.33301 -40 7 -59s12 -35.167 22 -48.5c20.667 -28.667 50.667 -43 90 -43
c82.667 0 138.667 50 168 150c9.33301 31.333 16.333 66.333 21 105l51 375l-82 13l6 53h236l-7 -53l-63 -13l-48 -375c-14.667 -112.667 -47.667 -194 -99 -244c-50 -48 -121 -72 -213 -72c-96 0 -165.667 21.333 -209 64c-20.667 19.333 -35.167 42.5 -43.5 69.5zM465 767
c-26.667 9.33301 -52.667 23.001 -78 41.001c-48 33.333 -78.333 61.666 -91 84.999l91 90l135 -167z" />
    <glyph glyph-name="Uacute" unicode="&#xda;" horiz-adv-x="706" 
d="M74.5 123.5c-8.33301 27 -12.5 51.167 -12.5 72.5c0 42 1.33301 73.333 4 94l49 391l-71 12l7 54h344l-5 -53l-97 -13l-47 -377c-5.33301 -48 -8 -82.167 -8 -102.5s2.33301 -40 7 -59s12 -35.167 22 -48.5c20.667 -28.667 50.667 -43 90 -43
c82.667 0 138.667 50 168 150c9.33301 31.333 16.333 66.333 21 105l51 375l-82 13l6 53h236l-7 -53l-63 -13l-48 -375c-14.667 -112.667 -47.667 -194 -99 -244c-50 -48 -121 -72 -213 -72c-96 0 -165.667 21.333 -209 64c-20.667 19.333 -35.167 42.5 -43.5 69.5zM414 816
l134 167l92 -90c-12 -22.667 -37.667 -47.667 -77 -75c-34.667 -24.667 -65.667 -41.667 -93 -51z" />
    <glyph glyph-name="Ucircumflex" unicode="&#xdb;" horiz-adv-x="706" 
d="M74.5 123.5c-8.33301 27 -12.5 51.167 -12.5 72.5c0 42 1.33301 73.333 4 94l49 391l-71 12l7 54h344l-5 -53l-97 -13l-47 -377c-5.33301 -48 -8 -82.167 -8 -102.5s2.33301 -40 7 -59s12 -35.167 22 -48.5c20.667 -28.667 50.667 -43 90 -43
c82.667 0 138.667 50 168 150c9.33301 31.333 16.333 66.333 21 105l51 375l-82 13l6 53h236l-7 -53l-63 -13l-48 -375c-14.667 -112.667 -47.667 -194 -99 -244c-50 -48 -121 -72 -213 -72c-96 0 -165.667 21.333 -209 64c-20.667 19.333 -35.167 42.5 -43.5 69.5zM292 809
l180 174h87l102 -174l-60 -28l-99 101l-157 -101z" />
    <glyph glyph-name="Udieresis" unicode="&#xdc;" horiz-adv-x="706" 
d="M74.5 123.5c-8.33301 27 -12.5 51.167 -12.5 72.5c0 42 1.33301 73.333 4 94l49 391l-71 12l7 54h344l-5 -53l-97 -13l-47 -377c-5.33301 -48 -8 -82.167 -8 -102.5s2.33301 -40 7 -59s12 -35.167 22 -48.5c20.667 -28.667 50.667 -43 90 -43
c82.667 0 138.667 50 168 150c9.33301 31.333 16.333 66.333 21 105l51 375l-82 13l6 53h236l-7 -53l-63 -13l-48 -375c-14.667 -112.667 -47.667 -194 -99 -244c-50 -48 -121 -72 -213 -72c-96 0 -165.667 21.333 -209 64c-20.667 19.333 -35.167 42.5 -43.5 69.5zM503 888
c0.666992 23.333 8.16895 42.666 22.502 57.999s33.666 23 57.999 23s42.166 -6.5 53.499 -19.5s17 -31.167 17 -54.5s-7 -43.166 -21 -59.499s-33 -24.5 -57 -24.5s-42.333 7 -55 21s-18.667 32.667 -18 56zM304.502 945.5c15 15.667 34.499 23.499 58.499 23.499
s41.833 -6.5 53.5 -19.5s17.5 -31.167 17.5 -54.5s-7 -43.166 -21 -59.499s-33.167 -24.5 -57.5 -24.5s-42.666 6.83301 -54.999 20.5s-18.5 32.167 -18.5 55.5s7.5 42.833 22.5 58.5z" />
    <glyph glyph-name="Yacute" unicode="&#xdd;" horiz-adv-x="625" 
d="M84 52l113 14l28 229l-162 386l-54 12l6 54h334l-8 -54l-89 -12l84 -238l26 -60l173 298l-80 12l5 54h260l-7 -54l-64 -12l-251 -386l-30 -229l120 -14l-5 -52h-404zM341 816l134 167l92 -90c-12 -22.667 -37.667 -47.667 -77 -75
c-34.667 -24.667 -65.667 -41.667 -93 -51z" />
    <glyph glyph-name="Thorn" unicode="&#xde;" horiz-adv-x="629" 
d="M423.5 197.5c-34.333 -7 -69.833 -10.501 -106.5 -10.501s-59.334 0.333008 -68.001 1l-15 -122l85 -14l-4 -52h-326l6 52l67 14l78 615l-71 12l7 54h330l-6 -54l-88 -12l-12 -95c40 2.66699 77.5 4 112.5 4s67.5 -4.5 97.5 -13.5s53.333 -20.833 70 -35.5
c30.667 -27.333 46 -67.666 46 -120.999c0 -38.667 -5.5 -69.667 -16.5 -93s-24 -43 -39 -59s-34.667 -30 -59 -42s-53.666 -21.5 -87.999 -28.5zM465 407.999c0 80.667 -36.999 121 -110.999 121c-22.667 0 -43.334 -2 -62.001 -6l-35 -270h17h37
c72.667 0 120.667 30 144 90c6.66699 18 10 39.667 10 65z" />
    <glyph glyph-name="germandbls" unicode="&#xdf;" horiz-adv-x="582" 
d="M59 453c23.333 165.333 88.333 266.333 195 303c35.333 12 72.333 18 111 18s70 -3.33301 94 -10s45 -16.334 63 -29.001c40.667 -27.333 61 -63.666 61 -108.999c0 -60 -25 -105 -75 -135l-36 -23c-26 -17.333 -39 -36.333 -39 -57c0 -13.333 9 -32.333 27 -57l22 -29
c8 -10 16.833 -20.5 26.5 -31.5s18.834 -22.833 27.501 -35.5c19.333 -29.333 29 -58.833 29 -88.5s-4.83301 -55.334 -14.5 -77.001s-23.834 -39.834 -42.501 -54.501c-37.333 -30.667 -87.666 -46 -150.999 -46s-110.333 7.66699 -141 23l13 91
c13.333 -19.333 34.666 -34 63.999 -44c9.33301 -3.33301 18.833 -5 28.5 -5s19.334 0.833008 29.001 2.5s18.167 5.16699 25.5 10.5c16 12 24 35 24 69c0 26 -10 56 -30 90l-15 26c-22.667 30.667 -38.667 63.667 -48 99c-3.33301 12 -5 23.5 -5 34.5s1.33301 21 4 30
s6 17.167 10 24.5c7.33301 12 20.666 27.667 39.999 47c44 44.667 66 90.667 66 138c0 40 -12.667 66.667 -38 80c-8.66699 4.66699 -19.834 7 -33.501 7s-27.667 -5.16699 -42 -15.5s-27.166 -27.166 -38.499 -50.499c-22.667 -45.333 -40 -120.666 -52 -225.999l-52 -423
h-163z" />
    <glyph glyph-name="agrave" unicode="&#xe0;" horiz-adv-x="593" 
d="M350 52c-41.333 -41.333 -90.668 -61.999 -148.001 -61.999c-58 0 -102.333 20.333 -133 61c-26.667 36.667 -40 85 -40 145c0 101.333 28.333 187 85 257c38.667 48 88.334 81.667 149.001 101c30.667 9.33301 64.5 14 101.5 14s75.5 -7 115.5 -21l75 21l-63 -457
c-2.66699 -24.667 3.66602 -37 18.999 -37c11.333 0 26.333 7.33301 45 22l14 -35c-17.333 -26.667 -45.666 -47.334 -84.999 -62.001c-15.333 -6 -33.833 -9 -55.5 -9s-40.167 5.33301 -55.5 16s-23.333 26 -24 46zM331.998 102.001l54 395c-10.667 2 -23.834 3 -39.501 3
s-31.167 -4.33301 -46.5 -13s-28.666 -20.5 -39.999 -35.5s-21 -32.333 -29 -52s-14.333 -40.5 -19 -62.5c-9.33301 -41.333 -14 -84.333 -14 -129s6.5 -78 19.5 -100s30.333 -33 52 -33s42.5 9 62.5 27zM344.998 606.001c-36 15.333 -80.667 47.667 -134 97
c-26 24 -44 44.667 -54 62l99 86l141 -211z" />
    <glyph glyph-name="aacute" unicode="&#xe1;" horiz-adv-x="593" 
d="M350 52c-41.333 -41.333 -90.668 -61.999 -148.001 -61.999c-58 0 -102.333 20.333 -133 61c-26.667 36.667 -40 85 -40 145c0 101.333 28.333 187 85 257c38.667 48 88.334 81.667 149.001 101c30.667 9.33301 64.5 14 101.5 14s75.5 -7 115.5 -21l75 21l-63 -457
c-2.66699 -24.667 3.66602 -37 18.999 -37c11.333 0 26.333 7.33301 45 22l14 -35c-17.333 -26.667 -45.666 -47.334 -84.999 -62.001c-15.333 -6 -33.833 -9 -55.5 -9s-40.167 5.33301 -55.5 16s-23.333 26 -24 46zM331.998 102.001l54 395c-10.667 2 -23.834 3 -39.501 3
s-31.167 -4.33301 -46.5 -13s-28.666 -20.5 -39.999 -35.5s-21 -32.333 -29 -52s-14.333 -40.5 -19 -62.5c-9.33301 -41.333 -14 -84.333 -14 -129s6.5 -78 19.5 -100s30.333 -33 52 -33s42.5 9 62.5 27zM315.998 641.001l155 210l94 -91c-9.33301 -18 -37.333 -46 -84 -84
c-50 -40.667 -88 -65.667 -114 -75z" />
    <glyph glyph-name="acircumflex" unicode="&#xe2;" horiz-adv-x="593" 
d="M350 52c-41.333 -41.333 -90.668 -61.999 -148.001 -61.999c-58 0 -102.333 20.333 -133 61c-26.667 36.667 -40 85 -40 145c0 101.333 28.333 187 85 257c38.667 48 88.334 81.667 149.001 101c30.667 9.33301 64.5 14 101.5 14s75.5 -7 115.5 -21l75 21l-63 -457
c-2.66699 -24.667 3.66602 -37 18.999 -37c11.333 0 26.333 7.33301 45 22l14 -35c-17.333 -26.667 -45.666 -47.334 -84.999 -62.001c-15.333 -6 -33.833 -9 -55.5 -9s-40.167 5.33301 -55.5 16s-23.333 26 -24 46zM331.998 102.001l54 395c-10.667 2 -23.834 3 -39.501 3
s-31.167 -4.33301 -46.5 -13s-28.666 -20.5 -39.999 -35.5s-21 -32.333 -29 -52s-14.333 -40.5 -19 -62.5c-9.33301 -41.333 -14 -84.333 -14 -129s6.5 -78 19.5 -100s30.333 -33 52 -33s42.5 9 62.5 27zM191.998 633.001l180 182h87l102 -182l-60 -29l-99 95l-157 -94z" />
    <glyph glyph-name="atilde" unicode="&#xe3;" horiz-adv-x="593" 
d="M350 52c-41.333 -41.333 -90.668 -61.999 -148.001 -61.999c-58 0 -102.333 20.333 -133 61c-26.667 36.667 -40 85 -40 145c0 101.333 28.333 187 85 257c38.667 48 88.334 81.667 149.001 101c30.667 9.33301 64.5 14 101.5 14s75.5 -7 115.5 -21l75 21l-63 -457
c-2.66699 -24.667 3.66602 -37 18.999 -37c11.333 0 26.333 7.33301 45 22l14 -35c-17.333 -26.667 -45.666 -47.334 -84.999 -62.001c-15.333 -6 -33.833 -9 -55.5 -9s-40.167 5.33301 -55.5 16s-23.333 26 -24 46zM331.998 102.001l54 395c-10.667 2 -23.834 3 -39.501 3
s-31.167 -4.33301 -46.5 -13s-28.666 -20.5 -39.999 -35.5s-21 -32.333 -29 -52s-14.333 -40.5 -19 -62.5c-9.33301 -41.333 -14 -84.333 -14 -129s6.5 -78 19.5 -100s30.333 -33 52 -33s42.5 9 62.5 27zM224.998 677.001l-37 61.0039c10 21.333 27.333 40 52 56
c25.333 17.333 47 26 65 26s31.667 -1.66699 41 -5s17.833 -7.83301 25.5 -13.5s14.5 -11.5 20.5 -17.5l17 -18c13.333 -12.667 25.666 -19 36.999 -19s20.5 1.5 27.5 4.5s13.5 6.83301 19.5 11.5c8.66699 6.66699 19 17.667 31 33l43 -64c-8.66699 -22 -25 -42 -49 -60
c-24.667 -18.667 -46.667 -28 -66 -28s-34.166 1.66699 -44.499 5s-19.333 7.66602 -27 12.999s-14.5 11.166 -20.5 17.499s-12 12.166 -18 17.499c-14.667 12.667 -31.667 19.167 -51 19.5s-41.333 -12.834 -66 -39.501z" />
    <glyph glyph-name="adieresis" unicode="&#xe4;" horiz-adv-x="593" 
d="M350 52c-41.333 -41.333 -90.668 -61.999 -148.001 -61.999c-58 0 -102.333 20.333 -133 61c-26.667 36.667 -40 85 -40 145c0 101.333 28.333 187 85 257c38.667 48 88.334 81.667 149.001 101c30.667 9.33301 64.5 14 101.5 14s75.5 -7 115.5 -21l75 21l-63 -457
c-2.66699 -24.667 3.66602 -37 18.999 -37c11.333 0 26.333 7.33301 45 22l14 -35c-17.333 -26.667 -45.666 -47.334 -84.999 -62.001c-15.333 -6 -33.833 -9 -55.5 -9s-40.167 5.33301 -55.5 16s-23.333 26 -24 46zM331.998 102.001l54 395c-10.667 2 -23.834 3 -39.501 3
s-31.167 -4.33301 -46.5 -13s-28.666 -20.5 -39.999 -35.5s-21 -32.333 -29 -52s-14.333 -40.5 -19 -62.5c-9.33301 -41.333 -14 -84.333 -14 -129s6.5 -78 19.5 -100s30.333 -33 52 -33s42.5 9 62.5 27zM523.998 661.001
c-11.333 -5.33301 -23.3311 -7.99902 -35.998 -7.99902s-23.334 2.33301 -32.001 7s-16 11 -22 19c-21.333 25.333 -26 56.333 -14 93c7.33301 23.333 21.666 40.333 42.999 51c10.667 4.66699 22.5 7.16699 35.5 7.5s23.833 -1.83398 32.5 -6.50098
c28 -14 42 -37.333 42 -70c0 -46.667 -16.333 -77.667 -49 -93zM303 661.002c-11.333 -5.33301 -23.333 -8.00098 -36 -8.00098s-23 2.33301 -31 7c-17.333 10 -30 25 -38 45c-3.33301 9.33301 -5 16.333 -5 21s0.166992 10.667 0.5 18s2.33301 16.833 6 28.5
s9.16699 21.834 16.5 30.501c15.333 18.667 36.333 28 63 28c22 0 40 -8.33301 54 -25c12.667 -14 19 -31.333 19 -52c0 -46.667 -16.333 -77.667 -49 -93z" />
    <glyph glyph-name="aring" unicode="&#xe5;" horiz-adv-x="593" 
d="M350 52c-41.333 -41.333 -90.668 -61.999 -148.001 -61.999c-58 0 -102.333 20.333 -133 61c-26.667 36.667 -40 85 -40 145c0 101.333 28.333 187 85 257c38.667 48 88.334 81.667 149.001 101c30.667 9.33301 64.5 14 101.5 14s75.5 -7 115.5 -21l75 21l-63 -457
c-2.66699 -24.667 3.66602 -37 18.999 -37c11.333 0 26.333 7.33301 45 22l14 -35c-17.333 -26.667 -45.666 -47.334 -84.999 -62.001c-15.333 -6 -33.833 -9 -55.5 -9s-40.167 5.33301 -55.5 16s-23.333 26 -24 46zM331.998 102.001l54 395c-10.667 2 -23.834 3 -39.501 3
s-31.167 -4.33301 -46.5 -13s-28.666 -20.5 -39.999 -35.5s-21 -32.333 -29 -52s-14.333 -40.5 -19 -62.5c-9.33301 -41.333 -14 -84.333 -14 -129s6.5 -78 19.5 -100s30.333 -33 52 -33s42.5 9 62.5 27zM373.998 612.001c-22.667 0 -43.334 2.50098 -62.001 7.50098
s-34.667 12.833 -48 23.5c-27.333 20.667 -40.666 50 -39.999 88c0 67.333 35.333 112.666 106 135.999c26.667 9.33301 52.5 14 77.5 14s46.5 -2.66699 64.5 -8s33.333 -12.666 46 -21.999c28 -21.333 42 -50 42 -86c0 -48.667 -19.667 -87.334 -59 -116.001
c-34.667 -24.667 -77 -37 -127 -37zM405.998 812.002c-13.333 0 -24.834 -1.16699 -34.501 -3.5s-18.5 -6.16602 -26.5 -11.499c-18 -12 -26.667 -30.333 -26 -55c0 -16.667 7 -31 21 -43s27.333 -17.667 40 -17c26.667 0 47.667 5.16699 63 15.5s23 26.166 23 47.499
s-6.66699 37.833 -20 49.5s-26.666 17.5 -39.999 17.5z" />
    <glyph glyph-name="ae" unicode="&#xe6;" horiz-adv-x="834" 
d="M620 78c58 0 106.34 25.333 145.007 76l31 -50c-30 -47.333 -78 -81.333 -144 -102c-25.333 -8 -53 -12 -83 -12s-55.833 3.33301 -77.5 10s-40.167 16 -55.5 28c-30 22.667 -51.667 53.334 -65 92.001c-38 -57.333 -81.333 -96.666 -130 -117.999
c-18.667 -8 -40.834 -12 -66.501 -12s-48.334 5.66699 -68.001 17s-35.167 26.666 -46.5 45.999c-20 32.667 -30.333 78.667 -31 138c0 100 32.333 186.667 97 260c43.333 49.333 98 83.333 164 102c33.333 10 66.833 15 100.5 15s69.167 -5 106.5 -15l44 15l-4 -31
c41.333 20.667 85.666 31 132.999 31c78 0 128 -24.667 150 -74c7.33301 -16.667 11 -36 11 -58s-4.33301 -43.333 -13 -64s-20.834 -39.167 -36.501 -55.5s-33.834 -30.333 -54.501 -42s-42.334 -21.167 -65.001 -28.5c-44.667 -14.667 -89.334 -22.667 -134.001 -24
c0 -50.667 8.33301 -87.334 25 -110.001s39 -34 67 -34zM634.007 500c-60.667 0 -96 -73 -106 -219c34.667 2 66.667 15.667 96 41c33.333 28.667 50 65.5 50 110.5s-13.333 67.5 -40 67.5zM219.507 98.5c5.66699 -7 12.8291 -10.5 21.4961 -10.5s17.334 2.16699 26.001 6.5
s17.334 9.83301 26.001 16.5c14.667 12.667 30.334 30.334 47.001 53.001l51 336c-41.333 -0.666992 -77.666 -17.334 -108.999 -50.001c-40.667 -42 -67 -102.333 -79 -181c-3.33301 -23.333 -5 -43.5 -5 -60.5s0.666992 -32.333 2 -46s3.5 -26 6.5 -37s7.33301 -20 13 -27
z" />
    <glyph glyph-name="ccedilla" unicode="&#xe7;" horiz-adv-x="460" 
d="M76 -148c10 -5.33301 21.833 -8.00391 35.5 -8.00391s25.834 1.33301 36.501 4s20 7 28 13c18.667 14 28 40.667 28 80c0 15.333 -1.33301 32 -4 50c-80.667 6 -133.334 50.667 -158.001 134c-8.66699 28.667 -12.834 59.334 -12.501 92.001s3 62.167 8 88.5
s13.167 52.333 24.5 78s25.666 49.834 42.999 72.501s38 42.334 62 59.001c51.333 35.333 110.666 53 177.999 53c52.667 0 94.334 -6.33301 125.001 -19l-45 -157c-6.66699 2 -15.667 9.33301 -27 22l-27 31c-27.333 30.667 -47.666 46 -60.999 46
s-26.666 -6.33301 -39.999 -19c-30 -28 -51.667 -74.333 -65 -139c-6 -28.667 -9 -52.667 -9 -72s0.166992 -36.666 0.5 -51.999s2.33301 -32 6 -50s9.16699 -32.667 16.5 -44c13.333 -22 34.333 -32.667 63 -32c50.667 0 92 20.667 124 62l31 -50
c-21.333 -34 -54.666 -60.667 -99.999 -80c-16.667 -7.33301 -35 -13.333 -55 -18c12.667 -34 19 -71.667 19 -113c0 -80 -48.667 -120 -146 -120c-26.667 0 -48.834 1.66699 -66.501 5s-27.5 6 -29.5 8z" />
    <glyph glyph-name="egrave" unicode="&#xe8;" horiz-adv-x="511" 
d="M296 78c58 0 106.67 25.333 146.003 76l31 -50c-30 -47.333 -78 -81.333 -144 -102c-25.333 -8 -52.333 -12 -81 -12s-53.334 2.83301 -74.001 8.5s-39 13.667 -55 24s-29.5 22.333 -40.5 36s-20.167 28.834 -27.5 45.501c-14 32 -21 67.333 -21 106v3
c0 102 30.333 186.667 91 254c60 67.333 135.333 101 226 101c78 0 128 -24.667 150 -74c7.33301 -16.667 10.833 -36 10.5 -58s-4.66602 -43.333 -12.999 -64s-20.333 -39.167 -36 -55.5s-33.834 -30.333 -54.501 -42s-42.334 -21.167 -65.001 -28.5
c-44.667 -14.667 -89.334 -22.667 -134.001 -24c0 -50.667 8.16699 -87.334 24.5 -110.001s38.5 -34 66.5 -34zM311.003 500c-60.667 0 -96 -73 -106 -219c34.667 2 66.667 15.667 96 41c33.333 28.667 50 65.5 50 110.5s-13.333 67.5 -40 67.5zM316.003 606
c-36 15.333 -80.667 47.667 -134 97c-26 24 -44 44.667 -54 62l99 86l141 -211z" />
    <glyph glyph-name="eacute" unicode="&#xe9;" horiz-adv-x="511" 
d="M296 78c58 0 106.67 25.333 146.003 76l31 -50c-30 -47.333 -78 -81.333 -144 -102c-25.333 -8 -52.333 -12 -81 -12s-53.334 2.83301 -74.001 8.5s-39 13.667 -55 24s-29.5 22.333 -40.5 36s-20.167 28.834 -27.5 45.501c-14 32 -21 67.333 -21 106v3
c0 102 30.333 186.667 91 254c60 67.333 135.333 101 226 101c78 0 128 -24.667 150 -74c7.33301 -16.667 10.833 -36 10.5 -58s-4.66602 -43.333 -12.999 -64s-20.333 -39.167 -36 -55.5s-33.834 -30.333 -54.501 -42s-42.334 -21.167 -65.001 -28.5
c-44.667 -14.667 -89.334 -22.667 -134.001 -24c0 -50.667 8.16699 -87.334 24.5 -110.001s38.5 -34 66.5 -34zM311.003 500c-60.667 0 -96 -73 -106 -219c34.667 2 66.667 15.667 96 41c33.333 28.667 50 65.5 50 110.5s-13.333 67.5 -40 67.5zM288.003 641l155 210l94 -91
c-9.33301 -18 -37.333 -46 -84 -84c-50 -40.667 -88 -65.667 -114 -75z" />
    <glyph glyph-name="ecircumflex" unicode="&#xea;" horiz-adv-x="511" 
d="M296 78c58 0 106.67 25.333 146.003 76l31 -50c-30 -47.333 -78 -81.333 -144 -102c-25.333 -8 -52.333 -12 -81 -12s-53.334 2.83301 -74.001 8.5s-39 13.667 -55 24s-29.5 22.333 -40.5 36s-20.167 28.834 -27.5 45.501c-14 32 -21 67.333 -21 106v3
c0 102 30.333 186.667 91 254c60 67.333 135.333 101 226 101c78 0 128 -24.667 150 -74c7.33301 -16.667 10.833 -36 10.5 -58s-4.66602 -43.333 -12.999 -64s-20.333 -39.167 -36 -55.5s-33.834 -30.333 -54.501 -42s-42.334 -21.167 -65.001 -28.5
c-44.667 -14.667 -89.334 -22.667 -134.001 -24c0 -50.667 8.16699 -87.334 24.5 -110.001s38.5 -34 66.5 -34zM311.003 500c-60.667 0 -96 -73 -106 -219c34.667 2 66.667 15.667 96 41c33.333 28.667 50 65.5 50 110.5s-13.333 67.5 -40 67.5zM164.003 633l180 182h87
l102 -182l-60 -29l-99 95l-157 -94z" />
    <glyph glyph-name="edieresis" unicode="&#xeb;" horiz-adv-x="511" 
d="M296 78c58 0 106.67 25.333 146.003 76l31 -50c-30 -47.333 -78 -81.333 -144 -102c-25.333 -8 -52.333 -12 -81 -12s-53.334 2.83301 -74.001 8.5s-39 13.667 -55 24s-29.5 22.333 -40.5 36s-20.167 28.834 -27.5 45.501c-14 32 -21 67.333 -21 106v3
c0 102 30.333 186.667 91 254c60 67.333 135.333 101 226 101c78 0 128 -24.667 150 -74c7.33301 -16.667 10.833 -36 10.5 -58s-4.66602 -43.333 -12.999 -64s-20.333 -39.167 -36 -55.5s-33.834 -30.333 -54.501 -42s-42.334 -21.167 -65.001 -28.5
c-44.667 -14.667 -89.334 -22.667 -134.001 -24c0 -50.667 8.16699 -87.334 24.5 -110.001s38.5 -34 66.5 -34zM311.003 500c-60.667 0 -96 -73 -106 -219c34.667 2 66.667 15.667 96 41c33.333 28.667 50 65.5 50 110.5s-13.333 67.5 -40 67.5zM495.003 661
c-11.333 -5.33301 -23.3311 -7.99902 -35.998 -7.99902s-23.334 2.33301 -32.001 7s-16 11 -22 19c-21.333 25.333 -26 56.333 -14 93c7.33301 23.333 21.666 40.333 42.999 51c10.667 4.66699 22.5 7.16699 35.5 7.5s23.833 -1.83398 32.5 -6.50098
c28 -14 42 -37.333 42 -70c0 -46.667 -16.333 -77.667 -49 -93zM274.005 661.001c-11.333 -5.33301 -23.333 -8.00098 -36 -8.00098s-23 2.33301 -31 7c-17.333 10 -30 25 -38 45c-3.33301 9.33301 -5 16.333 -5 21s0.166992 10.667 0.5 18s2.33301 16.833 6 28.5
s9.16699 21.834 16.5 30.501c15.333 18.667 36.333 28 63 28c22 0 40 -8.33301 54 -25c12.667 -14 19 -31.333 19 -52c0 -46.667 -16.333 -77.667 -49 -93z" />
    <glyph glyph-name="igrave" unicode="&#xec;" horiz-adv-x="326" 
d="M294 61c-38.667 -46.667 -86.667 -70.3311 -144 -70.998c-34.667 0 -59.667 6.16699 -75 18.5s-23 27.166 -23 44.499c0 3.33301 0.833008 10.666 2.5 21.999c1 11.333 3.5 31 7.5 59l46 345l-80 24l9 40l217 25l27 -12l-62 -445c-0.666992 -4.66699 -1 -9 -1 -13
c0 -16 6 -24 18 -24c10 0 25 7.33301 45 22zM175 606.003c-36 15.333 -80.667 47.667 -134 97c-26 24 -44 44.667 -54 62l99 86l141 -211z" />
    <glyph glyph-name="iacute" unicode="&#xed;" horiz-adv-x="326" 
d="M294 61c-38.667 -46.667 -86.667 -70.3311 -144 -70.998c-34.667 0 -59.667 6.16699 -75 18.5s-23 27.166 -23 44.499c0 3.33301 0.833008 10.666 2.5 21.999c1 11.333 3.5 31 7.5 59l46 345l-80 24l9 40l217 25l27 -12l-62 -445c-0.666992 -4.66699 -1 -9 -1 -13
c0 -16 6 -24 18 -24c10 0 25 7.33301 45 22zM147 641.003l155 210l94 -91c-9.33301 -18 -37.333 -46 -84 -84c-50 -40.667 -88 -65.667 -114 -75z" />
    <glyph glyph-name="icircumflex" unicode="&#xee;" horiz-adv-x="326" 
d="M294 61c-38.667 -46.667 -86.667 -70.3311 -144 -70.998c-34.667 0 -59.667 6.16699 -75 18.5s-23 27.166 -23 44.499c0 3.33301 0.833008 10.666 2.5 21.999c1 11.333 3.5 31 7.5 59l46 345l-80 24l9 40l217 25l27 -12l-62 -445c-0.666992 -4.66699 -1 -9 -1 -13
c0 -16 6 -24 18 -24c10 0 25 7.33301 45 22zM23 633.003l180 182h87l102 -182l-60 -29l-99 95l-157 -94z" />
    <glyph glyph-name="idieresis" unicode="&#xef;" horiz-adv-x="326" 
d="M294 61c-38.667 -46.667 -86.667 -70.3311 -144 -70.998c-34.667 0 -59.667 6.16699 -75 18.5s-23 27.166 -23 44.499c0 3.33301 0.833008 10.666 2.5 21.999c1 11.333 3.5 31 7.5 59l46 345l-80 24l9 40l217 25l27 -12l-62 -445c-0.666992 -4.66699 -1 -9 -1 -13
c0 -16 6 -24 18 -24c10 0 25 7.33301 45 22zM354 661.003c-11.333 -5.33301 -23.3311 -7.99902 -35.998 -7.99902s-23.334 2.33301 -32.001 7s-16 11 -22 19c-21.333 25.333 -26 56.333 -14 93c7.33301 23.333 21.666 40.333 42.999 51
c10.667 4.66699 22.5 7.16699 35.5 7.5s23.833 -1.83398 32.5 -6.50098c28 -14 42 -37.333 42 -70c0 -46.667 -16.333 -77.667 -49 -93zM133.002 661.004c-11.333 -5.33301 -23.333 -8.00098 -36 -8.00098s-23 2.33301 -31 7c-17.333 10 -30 25 -38 45
c-3.33301 9.33301 -5 16.333 -5 21s0.166992 10.667 0.5 18s2.33301 16.833 6 28.5s9.16699 21.834 16.5 30.501c15.333 18.667 36.333 28 63 28c22 0 40 -8.33301 54 -25c12.667 -14 19 -31.333 19 -52c0 -46.667 -16.333 -77.667 -49 -93z" />
    <glyph glyph-name="eth" unicode="&#xf0;" horiz-adv-x="564" 
d="M198 876c47.333 -13.333 94.9971 -36.3301 142.997 -68.9971l48 57c8 10 15.667 19.667 23 29l55 -49l-71 -82c75.333 -72.667 123 -163.334 143 -272.001c6 -33.333 9 -72.666 9 -117.999s-7 -92.5 -21 -141.5s-34.333 -91.167 -61 -126.5
c-57.333 -75.333 -134.666 -113.333 -231.999 -114c-68 0 -121.333 25.667 -160 77c-34.667 45.333 -52.167 95.333 -52.5 150s6.33398 101.667 20.001 141s32.834 72.666 57.501 99.999c50 56 114.667 84 194 84c42.667 0 72 -4.66699 88 -14v9c0 4.66699 -1 12.667 -3 24
s-5.33301 23.666 -10 36.999c-10.667 29.333 -26 57.666 -46 84.999l-65 -75l-56 48l71 78c-39.333 34 -73 55.333 -101 64zM185.997 195.003c0 -95.333 21.002 -142.996 63.002 -142.996c31.333 0 58.666 21.333 81.999 64c22 40 36.667 95.667 44 167
c0.666992 7.33301 1.66699 15.666 3 24.999c3.33301 25.333 5 41.666 5 48.999s-0.333008 14.333 -1 21s-2 14.5 -4 23.5s-4.83301 17.833 -8.5 26.5s-8.83398 16.667 -15.501 24c-14 15.333 -30.167 23.166 -48.5 23.499s-32.833 -3.83398 -43.5 -12.501
s-20.167 -20.167 -28.5 -34.5s-15.5 -31 -21.5 -50s-11 -39.167 -15 -60.5c-7.33301 -39.333 -11 -80.333 -11 -123z" />
    <glyph glyph-name="ntilde" unicode="&#xf1;" horiz-adv-x="638" 
d="M547 74c9.33301 0 24.002 7.33203 44.002 21.999l14 -35c-20 -28 -49.333 -48.667 -88 -62c-17.333 -6 -37 -9 -59 -9s-39.5 2.5 -52.5 7.5s-22.833 11.833 -29.5 20.5c-11.333 12.667 -17 31 -17 55c0 13.333 1.66699 30.333 5 51l25 136
c10 55.333 14.833 92.333 14.5 111s-0.5 32 -0.5 40s-0.833008 16.333 -2.5 25s-3.83398 15.667 -6.50098 21c-6 9.33301 -14.833 14 -26.5 14s-22.834 -3.16699 -33.501 -9.5s-21 -14.833 -31 -25.5c-21.333 -22 -40 -50 -56 -84l-49 -352h-158l64 470l-52 29l8 43l182 26
l26 -12l-8 -102c48 76 109 114 183 114c86 0 129 -49.333 129 -148c0 -18 -3.33301 -47.667 -10 -89l-14 -84c-2 -12.667 -4.16699 -25.667 -6.5 -39s-4.5 -26.666 -6.5 -39.999c-4.66699 -28.667 -7 -51.5 -7 -68.5s6.33301 -25.5 19 -25.5zM223.002 676.999l-37 61.0039
c10 21.333 27.333 40 52 56c25.333 17.333 47 26 65 26s31.667 -1.66699 41 -5s17.833 -7.83301 25.5 -13.5s14.5 -11.5 20.5 -17.5l17 -18c13.333 -12.667 25.666 -19 36.999 -19s20.5 1.5 27.5 4.5s13.5 6.83301 19.5 11.5c8.66699 6.66699 19 17.667 31 33l43 -64
c-8.66699 -22 -25 -42 -49 -60c-24.667 -18.667 -46.667 -28 -66 -28s-34.166 1.66699 -44.499 5s-19.333 7.66602 -27 12.999s-14.5 11.166 -20.5 17.499s-12 12.166 -18 17.499c-14.667 12.667 -31.667 19.167 -51 19.5s-41.333 -12.834 -66 -39.501z" />
    <glyph glyph-name="ograve" unicode="&#xf2;" horiz-adv-x="584" 
d="M155 5c-83.333 32 -125 106.667 -125 224c0 92.667 26 170.667 78 234c36 44 81.667 74.667 137 92c28 8.66699 58.667 13 92 13s63.333 -5 90 -15s49 -24.667 67 -44c38.667 -41.333 58 -101.333 58 -180c0 -92.667 -26 -170.667 -78 -234
c-36.667 -44 -82.667 -74.667 -138 -92c-28 -8.66699 -58.5 -13 -91.5 -13s-62.833 5 -89.5 15zM240 62c8 -6 18.502 -9.1709 31.502 -9.50391s25 3.83398 36 12.501s20.667 20.334 29 35.001s15.166 31.667 20.499 51c14 48 20.667 105 20 171
c0 96 -11.333 152.667 -34 170c-7.33301 5.33301 -17 8 -29 8s-23.833 -4.16699 -35.5 -12.5s-21.834 -19.666 -30.501 -33.999s-15.667 -31.166 -21 -50.499c-15.333 -50 -23 -106.667 -23 -170c0 -96 12 -153 36 -171zM315.002 605.996c-36 15.333 -80.667 47.667 -134 97
c-26 24 -44 44.667 -54 62l99 86l141 -211z" />
    <glyph glyph-name="oacute" unicode="&#xf3;" horiz-adv-x="584" 
d="M155 5c-83.333 32 -125 106.667 -125 224c0 92.667 26 170.667 78 234c36 44 81.667 74.667 137 92c28 8.66699 58.667 13 92 13s63.333 -5 90 -15s49 -24.667 67 -44c38.667 -41.333 58 -101.333 58 -180c0 -92.667 -26 -170.667 -78 -234
c-36.667 -44 -82.667 -74.667 -138 -92c-28 -8.66699 -58.5 -13 -91.5 -13s-62.833 5 -89.5 15zM240 62c8 -6 18.502 -9.1709 31.502 -9.50391s25 3.83398 36 12.501s20.667 20.334 29 35.001s15.166 31.667 20.499 51c14 48 20.667 105 20 171
c0 96 -11.333 152.667 -34 170c-7.33301 5.33301 -17 8 -29 8s-23.833 -4.16699 -35.5 -12.5s-21.834 -19.666 -30.501 -33.999s-15.667 -31.166 -21 -50.499c-15.333 -50 -23 -106.667 -23 -170c0 -96 12 -153 36 -171zM287.002 640.996l155 210l94 -91
c-9.33301 -18 -37.333 -46 -84 -84c-50 -40.667 -88 -65.667 -114 -75z" />
    <glyph glyph-name="ocircumflex" unicode="&#xf4;" horiz-adv-x="584" 
d="M155 5c-83.333 32 -125 106.667 -125 224c0 92.667 26 170.667 78 234c36 44 81.667 74.667 137 92c28 8.66699 58.667 13 92 13s63.333 -5 90 -15s49 -24.667 67 -44c38.667 -41.333 58 -101.333 58 -180c0 -92.667 -26 -170.667 -78 -234
c-36.667 -44 -82.667 -74.667 -138 -92c-28 -8.66699 -58.5 -13 -91.5 -13s-62.833 5 -89.5 15zM240 62c8 -6 18.502 -9.1709 31.502 -9.50391s25 3.83398 36 12.501s20.667 20.334 29 35.001s15.166 31.667 20.499 51c14 48 20.667 105 20 171
c0 96 -11.333 152.667 -34 170c-7.33301 5.33301 -17 8 -29 8s-23.833 -4.16699 -35.5 -12.5s-21.834 -19.666 -30.501 -33.999s-15.667 -31.166 -21 -50.499c-15.333 -50 -23 -106.667 -23 -170c0 -96 12 -153 36 -171zM162.002 632.996l180 182h87l102 -182l-60 -29
l-99 95l-157 -94z" />
    <glyph glyph-name="otilde" unicode="&#xf5;" horiz-adv-x="584" 
d="M155 5c-83.333 32 -125 106.667 -125 224c0 92.667 26 170.667 78 234c36 44 81.667 74.667 137 92c28 8.66699 58.667 13 92 13s63.333 -5 90 -15s49 -24.667 67 -44c38.667 -41.333 58 -101.333 58 -180c0 -92.667 -26 -170.667 -78 -234
c-36.667 -44 -82.667 -74.667 -138 -92c-28 -8.66699 -58.5 -13 -91.5 -13s-62.833 5 -89.5 15zM240 62c8 -6 18.502 -9.1709 31.502 -9.50391s25 3.83398 36 12.501s20.667 20.334 29 35.001s15.166 31.667 20.499 51c14 48 20.667 105 20 171
c0 96 -11.333 152.667 -34 170c-7.33301 5.33301 -17 8 -29 8s-23.833 -4.16699 -35.5 -12.5s-21.834 -19.666 -30.501 -33.999s-15.667 -31.166 -21 -50.499c-15.333 -50 -23 -106.667 -23 -170c0 -96 12 -153 36 -171zM195.002 676.996l-37 61.0039
c10 21.333 27.333 40 52 56c25.333 17.333 47 26 65 26s31.667 -1.66699 41 -5s17.833 -7.83301 25.5 -13.5s14.5 -11.5 20.5 -17.5l17 -18c13.333 -12.667 25.666 -19 36.999 -19s20.5 1.5 27.5 4.5s13.5 6.83301 19.5 11.5c8.66699 6.66699 19 17.667 31 33l43 -64
c-8.66699 -22 -25 -42 -49 -60c-24.667 -18.667 -46.667 -28 -66 -28s-34.166 1.66699 -44.499 5s-19.333 7.66602 -27 12.999s-14.5 11.166 -20.5 17.499s-12 12.166 -18 17.499c-14.667 12.667 -31.667 19.167 -51 19.5s-41.333 -12.834 -66 -39.501z" />
    <glyph glyph-name="odieresis" unicode="&#xf6;" horiz-adv-x="584" 
d="M155 5c-83.333 32 -125 106.667 -125 224c0 92.667 26 170.667 78 234c36 44 81.667 74.667 137 92c28 8.66699 58.667 13 92 13s63.333 -5 90 -15s49 -24.667 67 -44c38.667 -41.333 58 -101.333 58 -180c0 -92.667 -26 -170.667 -78 -234
c-36.667 -44 -82.667 -74.667 -138 -92c-28 -8.66699 -58.5 -13 -91.5 -13s-62.833 5 -89.5 15zM240 62c8 -6 18.502 -9.1709 31.502 -9.50391s25 3.83398 36 12.501s20.667 20.334 29 35.001s15.166 31.667 20.499 51c14 48 20.667 105 20 171
c0 96 -11.333 152.667 -34 170c-7.33301 5.33301 -17 8 -29 8s-23.833 -4.16699 -35.5 -12.5s-21.834 -19.666 -30.501 -33.999s-15.667 -31.166 -21 -50.499c-15.333 -50 -23 -106.667 -23 -170c0 -96 12 -153 36 -171zM494.002 660.996
c-11.333 -5.33301 -23.3311 -7.99902 -35.998 -7.99902s-23.334 2.33301 -32.001 7s-16 11 -22 19c-21.333 25.333 -26 56.333 -14 93c7.33301 23.333 21.666 40.333 42.999 51c10.667 4.66699 22.5 7.16699 35.5 7.5s23.833 -1.83398 32.5 -6.50098
c28 -14 42 -37.333 42 -70c0 -46.667 -16.333 -77.667 -49 -93zM273.004 660.997c-11.333 -5.33301 -23.333 -8.00098 -36 -8.00098s-23 2.33301 -31 7c-17.333 10 -30 25 -38 45c-3.33301 9.33301 -5 16.333 -5 21s0.166992 10.667 0.5 18s2.33301 16.833 6 28.5
s9.16699 21.834 16.5 30.501c15.333 18.667 36.333 28 63 28c22 0 40 -8.33301 54 -25c12.667 -14 19 -31.333 19 -52c0 -46.667 -16.333 -77.667 -49 -93z" />
    <glyph glyph-name="divide" unicode="&#xf7;" horiz-adv-x="668" 
d="M399.5 511c-11.667 -4 -22.6689 -6 -33.002 -6s-19.666 2 -27.999 6s-15.5 9.66699 -21.5 17c-13.333 15.333 -20 32.333 -20 51s2.83301 34 8.5 46s12.834 22.333 21.501 31c18.667 17.333 40 26 64 26c23.333 0 41.333 -8.33301 54 -25c12 -14 18 -30.667 18 -50
s-3 -35 -9 -47s-13.667 -22.167 -23 -30.5s-19.833 -14.5 -31.5 -18.5zM127.998 425h458l-8 -96h-459zM247.998 120c-3.33301 9.33301 -5.16797 20.666 -5.50098 33.999s2.33398 26 8.00098 38s12.834 22.333 21.501 31c18 17.333 39 26 63 26
c23.333 0 41.666 -8 54.999 -24c12 -14 18 -30.667 18 -50s-3 -35.166 -9 -47.499s-13.667 -22.5 -23 -30.5c-18.667 -16 -41 -24 -67 -24c-28.667 0 -49 15.667 -61 47z" />
    <glyph glyph-name="oslash" unicode="&#xf8;" horiz-adv-x="584" 
d="M239 -9c-37.333 0 -71.001 7.66699 -101.001 23l-56 -78l-43 23l58 83c-44.667 40.667 -67 103 -67 187c0 92.667 26 171 78 235c36 44 82 74.667 138 92c28 8.66699 60 13 96 13s68.667 -7 98 -21l63 88l44 -24l-65 -91c46.667 -41.333 70.334 -105 71.001 -191
c0 -92.667 -26.333 -170.667 -79 -234c-58 -70 -136.333 -105 -235 -105zM365.999 451c-9.33301 34 -25.333 50.666 -48 49.999c-52.667 0 -87.667 -52.667 -105 -158c-6 -34 -9 -62.333 -9 -85s0.166992 -36.667 0.5 -42s0.5 -9.66602 0.5 -12.999v-10zM213.999 114.999
c4.66699 -22 11.332 -37.833 19.999 -47.5s20.334 -14.5 35.001 -14.5c27.333 0 50 16 68 48c27.333 48 41 122 41 222c0 8 -0.333008 15.667 -1 23l-1 28z" />
    <glyph glyph-name="ugrave" unicode="&#xf9;" horiz-adv-x="623" 
d="M67 56c-9.33301 16 -14.001 32.667 -14.001 50s0.666992 33 2 47s2.83301 28.833 4.5 44.5s3.83398 31.5 6.50098 47.5l34 225l-62 39l8 43l197 16l25 -12l-34 -268c-12 -85.333 -18 -137.666 -18 -156.999c0 -39.333 15.667 -59 47 -59c34.667 0 66 16.333 94 49l61 443
h159l-62 -453c-3.33301 -24.667 3 -37 19 -37c8 0 16 2.66699 24 8l21 14l14 -35c-18 -26.667 -46 -47.334 -84 -62.001c-15.333 -6 -33 -9 -53 -9c-34.667 0 -58.5 6.66699 -71.5 20s-19.5 28.333 -19.5 45c0 4.66699 0.666992 9.66699 2 15l-2 1
c-21.333 -24 -41 -41 -59 -51c-34.667 -20 -71.667 -30 -111 -30c-59.333 0.666992 -102 22.667 -128 66zM318.999 606c-36 15.333 -80.667 47.667 -134 97c-26 24 -44 44.667 -54 62l99 86l141 -211z" />
    <glyph glyph-name="uacute" unicode="&#xfa;" horiz-adv-x="623" 
d="M67 56c-9.33301 16 -14.001 32.667 -14.001 50s0.666992 33 2 47s2.83301 28.833 4.5 44.5s3.83398 31.5 6.50098 47.5l34 225l-62 39l8 43l197 16l25 -12l-34 -268c-12 -85.333 -18 -137.666 -18 -156.999c0 -39.333 15.667 -59 47 -59c34.667 0 66 16.333 94 49l61 443
h159l-62 -453c-3.33301 -24.667 3 -37 19 -37c8 0 16 2.66699 24 8l21 14l14 -35c-18 -26.667 -46 -47.334 -84 -62.001c-15.333 -6 -33 -9 -53 -9c-34.667 0 -58.5 6.66699 -71.5 20s-19.5 28.333 -19.5 45c0 4.66699 0.666992 9.66699 2 15l-2 1
c-21.333 -24 -41 -41 -59 -51c-34.667 -20 -71.667 -30 -111 -30c-59.333 0.666992 -102 22.667 -128 66zM290.999 641l155 210l94 -91c-9.33301 -18 -37.333 -46 -84 -84c-50 -40.667 -88 -65.667 -114 -75z" />
    <glyph glyph-name="ucircumflex" unicode="&#xfb;" horiz-adv-x="623" 
d="M67 56c-9.33301 16 -14.001 32.667 -14.001 50s0.666992 33 2 47s2.83301 28.833 4.5 44.5s3.83398 31.5 6.50098 47.5l34 225l-62 39l8 43l197 16l25 -12l-34 -268c-12 -85.333 -18 -137.666 -18 -156.999c0 -39.333 15.667 -59 47 -59c34.667 0 66 16.333 94 49l61 443
h159l-62 -453c-3.33301 -24.667 3 -37 19 -37c8 0 16 2.66699 24 8l21 14l14 -35c-18 -26.667 -46 -47.334 -84 -62.001c-15.333 -6 -33 -9 -53 -9c-34.667 0 -58.5 6.66699 -71.5 20s-19.5 28.333 -19.5 45c0 4.66699 0.666992 9.66699 2 15l-2 1
c-21.333 -24 -41 -41 -59 -51c-34.667 -20 -71.667 -30 -111 -30c-59.333 0.666992 -102 22.667 -128 66zM166.999 633l180 182h87l102 -182l-60 -29l-99 95l-157 -94z" />
    <glyph glyph-name="udieresis" unicode="&#xfc;" horiz-adv-x="623" 
d="M67 56c-9.33301 16 -14.001 32.667 -14.001 50s0.666992 33 2 47s2.83301 28.833 4.5 44.5s3.83398 31.5 6.50098 47.5l34 225l-62 39l8 43l197 16l25 -12l-34 -268c-12 -85.333 -18 -137.666 -18 -156.999c0 -39.333 15.667 -59 47 -59c34.667 0 66 16.333 94 49l61 443
h159l-62 -453c-3.33301 -24.667 3 -37 19 -37c8 0 16 2.66699 24 8l21 14l14 -35c-18 -26.667 -46 -47.334 -84 -62.001c-15.333 -6 -33 -9 -53 -9c-34.667 0 -58.5 6.66699 -71.5 20s-19.5 28.333 -19.5 45c0 4.66699 0.666992 9.66699 2 15l-2 1
c-21.333 -24 -41 -41 -59 -51c-34.667 -20 -71.667 -30 -111 -30c-59.333 0.666992 -102 22.667 -128 66zM497.999 661c-11.333 -5.33301 -23.3311 -7.99902 -35.998 -7.99902s-23.334 2.33301 -32.001 7s-16 11 -22 19c-21.333 25.333 -26 56.333 -14 93
c7.33301 23.333 21.666 40.333 42.999 51c10.667 4.66699 22.5 7.16699 35.5 7.5s23.833 -1.83398 32.5 -6.50098c28 -14 42 -37.333 42 -70c0 -46.667 -16.333 -77.667 -49 -93zM277.001 661.001c-11.333 -5.33301 -23.333 -8.00098 -36 -8.00098s-23 2.33301 -31 7
c-17.333 10 -30 25 -38 45c-3.33301 9.33301 -5 16.333 -5 21s0.166992 10.667 0.5 18s2.33301 16.833 6 28.5s9.16699 21.834 16.5 30.501c15.333 18.667 36.333 28 63 28c22 0 40 -8.33301 54 -25c12.667 -14 19 -31.333 19 -52c0 -46.667 -16.333 -77.667 -49 -93z" />
    <glyph glyph-name="yacute" unicode="&#xfd;" horiz-adv-x="529" 
d="M51.5 473c-3 4 -8.83594 5.99609 -17.5029 5.99609s-19.334 -5.66699 -32.001 -17l-14 40c8 11.333 20 22.333 36 33c33.333 22 65.333 33 96 33c56 0 88 -22.333 96 -67c12.667 -64.667 24.334 -128.667 35.001 -192l31 -192l9 -78l30 61c43.333 89.333 65 176 65 260
c0 24.667 -2 45.334 -6 62.001c-7.33301 32 -11 55.5 -11 70.5s1.5 26.5 4.5 34.5s7.83301 15 14.5 21c14 13.333 31.333 20 52 20s36.334 -2.66699 47.001 -8s19.334 -12.666 26.001 -21.999c12 -17.333 17.833 -39.833 17.5 -67.5s-3.66602 -55.167 -9.99902 -82.5
s-14.833 -55 -25.5 -83c-17.333 -47.333 -37.333 -93.666 -60 -138.999l-111 -214l-20 -36c-6 -10.667 -11.667 -20.334 -17 -29.001l-17 -27c-25.333 -35.333 -48.333 -59.666 -69 -72.999c-39.333 -26.667 -81.666 -40 -126.999 -40c-38 0 -75 5.33301 -111 16
c-8.66699 2 -15.334 4 -20.001 6l25 105c19.333 -16 49.666 -29 90.999 -39c14 -3.33301 28.333 -5 43 -5s28.5 2.33301 41.5 7s25.5 12.334 37.5 23.001c22.667 20 47.334 55 74.001 105h-93l-102 487c-2.66699 10 -5.5 17 -8.5 21zM237.997 640.996l155 210l94 -91
c-9.33301 -18 -37.333 -46 -84 -84c-50 -40.667 -88 -65.667 -114 -75z" />
    <glyph glyph-name="thorn" unicode="&#xfe;" horiz-adv-x="581" 
d="M219 -10c-11.333 0 -25.334 1.33203 -42.001 3.99902l-6 -63l-23 -185h-153l34 244l92 735l-51 21l11 41l176 19l26 -14l-36 -275c40.667 34 86.334 51 137.001 51c83.333 0 136 -40.667 158 -122c6.66699 -26.667 10 -61.167 10 -103.5s-7.66699 -85.666 -23 -129.999
s-37.333 -82.833 -66 -115.5c-62 -71.333 -143.333 -107 -244 -107zM187.999 61.999c12 -2.66699 29.333 -3.99902 52 -3.99902s43.834 8.5 63.501 25.5s35.5 39.5 47.5 67.5c23.333 53.333 35 121.666 35 204.999c0 57.333 -13 96 -39 116
c-8.66699 6.66699 -20.334 10 -35.001 10c-26 0 -51 -14.333 -75 -43z" />
    <glyph glyph-name="ydieresis" unicode="&#xff;" horiz-adv-x="529" 
d="M51.5 473c-3 4 -8.83594 5.99609 -17.5029 5.99609s-19.334 -5.66699 -32.001 -17l-14 40c8 11.333 20 22.333 36 33c33.333 22 65.333 33 96 33c56 0 88 -22.333 96 -67c12.667 -64.667 24.334 -128.667 35.001 -192l31 -192l9 -78l30 61c43.333 89.333 65 176 65 260
c0 24.667 -2 45.334 -6 62.001c-7.33301 32 -11 55.5 -11 70.5s1.5 26.5 4.5 34.5s7.83301 15 14.5 21c14 13.333 31.333 20 52 20s36.334 -2.66699 47.001 -8s19.334 -12.666 26.001 -21.999c12 -17.333 17.833 -39.833 17.5 -67.5s-3.66602 -55.167 -9.99902 -82.5
s-14.833 -55 -25.5 -83c-17.333 -47.333 -37.333 -93.666 -60 -138.999l-111 -214l-20 -36c-6 -10.667 -11.667 -20.334 -17 -29.001l-17 -27c-25.333 -35.333 -48.333 -59.666 -69 -72.999c-39.333 -26.667 -81.666 -40 -126.999 -40c-38 0 -75 5.33301 -111 16
c-8.66699 2 -15.334 4 -20.001 6l25 105c19.333 -16 49.666 -29 90.999 -39c14 -3.33301 28.333 -5 43 -5s28.5 2.33301 41.5 7s25.5 12.334 37.5 23.001c22.667 20 47.334 55 74.001 105h-93l-102 487c-2.66699 10 -5.5 17 -8.5 21zM444.997 660.996
c-11.333 -5.33301 -23.3311 -7.99902 -35.998 -7.99902s-23.334 2.33301 -32.001 7s-16 11 -22 19c-21.333 25.333 -26 56.333 -14 93c7.33301 23.333 21.666 40.333 42.999 51c10.667 4.66699 22.5 7.16699 35.5 7.5s23.833 -1.83398 32.5 -6.50098
c28 -14 42 -37.333 42 -70c0 -46.667 -16.333 -77.667 -49 -93zM223.999 660.997c-11.333 -5.33301 -23.333 -8.00098 -36 -8.00098s-23 2.33301 -31 7c-17.333 10 -30 25 -38 45c-3.33301 9.33301 -5 16.333 -5 21s0.166992 10.667 0.5 18s2.33301 16.833 6 28.5
s9.16699 21.834 16.5 30.501c15.333 18.667 36.333 28 63 28c22 0 40 -8.33301 54 -25c12.667 -14 19 -31.333 19 -52c0 -46.667 -16.333 -77.667 -49 -93z" />
    <glyph glyph-name="Amacron" unicode="&#x100;" horiz-adv-x="671" 
d="M326 747h169l121 -680l78 -15l-3 -52h-336l2 52l77 14l-19 137h-249l-62 -137l92 -14l-4 -52h-272l4 52l67 14zM404 277l-38 268l-4 98l-164 -366h206zM265 936h279v-103h-279v103z" />
    <glyph glyph-name="amacron" unicode="&#x101;" horiz-adv-x="593" 
d="M350 52c-41.333 -41.333 -90.668 -61.999 -148.001 -61.999c-58 0 -102.333 20.333 -133 61c-26.667 36.667 -40 85 -40 145c0 101.333 28.333 187 85 257c38.667 48 88.334 81.667 149.001 101c30.667 9.33301 64.5 14 101.5 14s75.5 -7 115.5 -21l75 21l-63 -457
c-2.66699 -24.667 3.66602 -37 18.999 -37c11.333 0 26.333 7.33301 45 22l14 -35c-17.333 -26.667 -45.666 -47.334 -84.999 -62.001c-15.333 -6 -33.833 -9 -55.5 -9s-40.167 5.33301 -55.5 16s-23.333 26 -24 46zM331.998 102.001l54 395c-10.667 2 -23.834 3 -39.501 3
s-31.167 -4.33301 -46.5 -13s-28.666 -20.5 -39.999 -35.5s-21 -32.333 -29 -52s-14.333 -40.5 -19 -62.5c-9.33301 -41.333 -14 -84.333 -14 -129s6.5 -78 19.5 -100s30.333 -33 52 -33s42.5 9 62.5 27zM221.998 788.001h279v-102h-279v102z" />
    <glyph glyph-name="Abreve" unicode="&#x102;" horiz-adv-x="671" 
d="M326 747h169l121 -680l78 -15l-3 -52h-336l2 52l77 14l-19 137h-249l-62 -137l92 -14l-4 -52h-272l4 52l67 14zM404 277l-38 268l-4 98l-164 -366h206zM341 983l-1 -21.999c0 -18 3 -30.333 9 -37c10.667 -14 26.834 -21 48.501 -21s37.667 2.33301 48 7
s18.166 11 23.499 19c8 11.333 12.333 29.333 13 54h89c0 -2.66699 0.333008 -5.33398 1 -8.00098v-8c0 -44.667 -13.333 -82.667 -40 -114c-31.333 -37.333 -75 -56 -131 -56c-53.333 0 -93.333 16.667 -120 50c-22 26.667 -33 61 -33 103c0 8.66699 1 19.667 3 33h90z" />
    <glyph glyph-name="abreve" unicode="&#x103;" horiz-adv-x="593" 
d="M350 52c-41.333 -41.333 -90.668 -61.999 -148.001 -61.999c-58 0 -102.333 20.333 -133 61c-26.667 36.667 -40 85 -40 145c0 101.333 28.333 187 85 257c38.667 48 88.334 81.667 149.001 101c30.667 9.33301 64.5 14 101.5 14s75.5 -7 115.5 -21l75 21l-63 -457
c-2.66699 -24.667 3.66602 -37 18.999 -37c11.333 0 26.333 7.33301 45 22l14 -35c-17.333 -26.667 -45.666 -47.334 -84.999 -62.001c-15.333 -6 -33.833 -9 -55.5 -9s-40.167 5.33301 -55.5 16s-23.333 26 -24 46zM331.998 102.001l54 395c-10.667 2 -23.834 3 -39.501 3
s-31.167 -4.33301 -46.5 -13s-28.666 -20.5 -39.999 -35.5s-21 -32.333 -29 -52s-14.333 -40.5 -19 -62.5c-9.33301 -41.333 -14 -84.333 -14 -129s6.5 -78 19.5 -100s30.333 -33 52 -33s42.5 9 62.5 27zM318.998 821.001l0.000976562 -22c0 -18 2.66699 -30.667 8 -38
c10.667 -14 27 -20.833 49 -20.5s38.167 2.83301 48.5 7.5s18.166 10.667 23.499 18c8 11.333 12.333 29.666 13 54.999h89v-9v-8c0 -44.667 -13 -82.667 -39 -114c-31.333 -37.333 -75.333 -55.666 -132 -54.999c-53.333 0 -93 16.333 -119 49c-22 27.333 -33 62 -33 104
c0 8 0.666992 19 2 33h90z" />
    <glyph glyph-name="Aogonek" unicode="&#x104;" horiz-adv-x="655" 
d="M631 -159c-48.667 -50 -104.666 -75.001 -167.999 -75.001c-31.333 0 -54.833 7.66699 -70.5 23s-23.5 36 -23.5 62c0 28 16 58.667 48 92c20 22 45.667 41 77 57h-118l2 52l77 14l-19 137h-249l-62 -137l92 -14l-4 -52h-272l4 52l67 14l335 681h169l121 -680l78 -15
l-3 -52h-111c-63.333 -42.667 -95 -76.667 -95 -102s11 -38 33 -38c13.333 0 25.666 3.33301 36.999 10s24 15.334 38 26.001zM425.001 276.999l-38 268l-4 98l-164 -366h206z" />
    <glyph glyph-name="aogonek" unicode="&#x105;" horiz-adv-x="593" 
d="M350 52c-41.333 -41.333 -90.666 -62 -147.999 -62c-58 0 -102.333 20.333 -133 61c-26.667 36.667 -40 85 -40 145c0 101.333 28.333 187 85 257c38.667 48 88.334 81.667 149.001 101c30.667 9.33301 64.5 14 101.5 14s75.5 -7 115.5 -21l75 21l-63 -457
c-2.66699 -24.667 3.66602 -37 18.999 -37c11.333 0 26.333 7.33301 45 22l14 -35c-14.667 -22 -37 -40.333 -67 -55c-69.333 -45.333 -104 -82.333 -104 -111c0 -23.333 11 -35 33 -35c13.333 0 25.666 3.33301 36.999 10s24 15.334 38 26.001l17 -55
c-48.667 -50 -104.667 -75 -168 -75c-31.333 0 -54.833 7.66699 -70.5 23s-23.5 36 -23.5 62c0 28 16 58.667 48 92c22 23.333 47.333 42.333 76 57c-22.667 9.33301 -34.667 26.666 -36 51.999zM332 102l54 395c-10.667 2 -23.834 3 -39.501 3s-31.167 -4.33301 -46.5 -13
s-28.666 -20.5 -39.999 -35.5s-21 -32.333 -29 -52s-14.333 -40.5 -19 -62.5c-9.33301 -41.333 -14 -84.333 -14 -129s6.5 -78 19.5 -100s30.333 -33 52 -33s42.5 9 62.5 27z" />
    <glyph glyph-name="Cacute" unicode="&#x106;" horiz-adv-x="634" 
d="M220 335c0 -176 45.6631 -263.996 136.996 -263.996c30 0 52.833 3.66699 68.5 11s26.834 14.5 33.501 21.5s11.834 14.167 15.501 21.5s7.16699 15.333 10.5 24s6.33301 17.667 9 27l8 29h98l-21 -139c-25.333 -21.333 -50.666 -36.333 -75.999 -45
c-51.333 -19.333 -106.666 -29 -165.999 -29s-108.166 8.66699 -146.499 26s-69.5 40.666 -93.5 69.999c-45.333 55.333 -68 129.666 -68 222.999c0 138 39.667 247.333 119 328c77.333 78.667 182.333 117.667 315 117c62.667 0 112 -5.33301 148 -16
c9.33301 -2.66699 18.666 -5 27.999 -7l16 -4l-30 -196h-124l-19 152c-15.333 6 -33.333 8.83301 -54 8.5s-41.5 -5.83301 -62.5 -16.5s-39.5 -25.334 -55.5 -44.001s-30 -40.334 -42 -65.001c-32 -67.333 -48 -145 -48 -233zM406.996 816.004l134 167l92 -90
c-12 -22.667 -37.667 -47.667 -77 -75c-34.667 -24.667 -65.667 -41.667 -93 -51z" />
    <glyph glyph-name="cacute" unicode="&#x107;" horiz-adv-x="459" 
d="M281 83c50.667 0 91.999 20.666 123.999 61.999l31 -50c-28 -44 -74.333 -75.667 -139 -95c-24 -6.66699 -50.333 -10 -79 -10s-54.5 4.83301 -77.5 14.5s-42.833 24.167 -59.5 43.5c-34.667 41.333 -52 101.666 -52 180.999c0 86.667 25 162.334 75 227.001
c35.333 46 82.666 78.667 141.999 98c29.333 9.33301 55.5 14 78.5 14s40.167 -0.5 51.5 -1.5s22.666 -2.16699 33.999 -3.5c24.667 -3.33301 44.334 -8 59.001 -14l-45 -157c-6.66699 2 -15.667 9.33301 -27 22l-27 31c-27.333 30.667 -47.666 46 -60.999 46
s-26.666 -6.33301 -39.999 -19c-30 -28 -51.667 -74.333 -65 -139c-6 -28.667 -9 -52.667 -9 -72s0.166992 -36.666 0.5 -51.999s2.33301 -32 6 -50s9.16699 -32.667 16.5 -44c13.333 -21.333 34.333 -32 63 -32zM275.999 640.999l155 210l94 -91
c-9.33301 -18 -37.333 -46 -84 -84c-50 -40.667 -88 -65.667 -114 -75z" />
    <glyph glyph-name="Ccircumflex" unicode="&#x108;" horiz-adv-x="634" 
d="M220 335c0 -176 45.6631 -263.996 136.996 -263.996c30 0 52.833 3.66699 68.5 11s26.834 14.5 33.501 21.5s11.834 14.167 15.501 21.5s7.16699 15.333 10.5 24s6.33301 17.667 9 27l8 29h98l-21 -139c-25.333 -21.333 -50.666 -36.333 -75.999 -45
c-51.333 -19.333 -106.666 -29 -165.999 -29s-108.166 8.66699 -146.499 26s-69.5 40.666 -93.5 69.999c-45.333 55.333 -68 129.666 -68 222.999c0 138 39.667 247.333 119 328c77.333 78.667 182.333 117.667 315 117c62.667 0 112 -5.33301 148 -16
c9.33301 -2.66699 18.666 -5 27.999 -7l16 -4l-30 -196h-124l-19 152c-15.333 6 -33.333 8.83301 -54 8.5s-41.5 -5.83301 -62.5 -16.5s-39.5 -25.334 -55.5 -44.001s-30 -40.334 -42 -65.001c-32 -67.333 -48 -145 -48 -233zM285.996 809.004l180 174h87l102 -174l-60 -28
l-99 101l-157 -101z" />
    <glyph glyph-name="ccircumflex" unicode="&#x109;" horiz-adv-x="459" 
d="M281 83c50.667 0 91.999 20.666 123.999 61.999l31 -50c-28 -44 -74.333 -75.667 -139 -95c-24 -6.66699 -50.333 -10 -79 -10s-54.5 4.83301 -77.5 14.5s-42.833 24.167 -59.5 43.5c-34.667 41.333 -52 101.666 -52 180.999c0 86.667 25 162.334 75 227.001
c35.333 46 82.666 78.667 141.999 98c29.333 9.33301 55.5 14 78.5 14s40.167 -0.5 51.5 -1.5s22.666 -2.16699 33.999 -3.5c24.667 -3.33301 44.334 -8 59.001 -14l-45 -157c-6.66699 2 -15.667 9.33301 -27 22l-27 31c-27.333 30.667 -47.666 46 -60.999 46
s-26.666 -6.33301 -39.999 -19c-30 -28 -51.667 -74.333 -65 -139c-6 -28.667 -9 -52.667 -9 -72s0.166992 -36.666 0.5 -51.999s2.33301 -32 6 -50s9.16699 -32.667 16.5 -44c13.333 -21.333 34.333 -32 63 -32zM150.999 632.999l180 182h87l102 -182l-60 -29l-99 95
l-157 -94z" />
    <glyph glyph-name="Cdotaccent" unicode="&#x10a;" horiz-adv-x="634" 
d="M220 335c0 -176 45.6631 -263.996 136.996 -263.996c30 0 52.833 3.66699 68.5 11s26.834 14.5 33.501 21.5s11.834 14.167 15.501 21.5s7.16699 15.333 10.5 24s6.33301 17.667 9 27l8 29h98l-21 -139c-25.333 -21.333 -50.666 -36.333 -75.999 -45
c-51.333 -19.333 -106.666 -29 -165.999 -29s-108.166 8.66699 -146.499 26s-69.5 40.666 -93.5 69.999c-45.333 55.333 -68 129.666 -68 222.999c0 138 39.667 247.333 119 328c77.333 78.667 182.333 117.667 315 117c62.667 0 112 -5.33301 148 -16
c9.33301 -2.66699 18.666 -5 27.999 -7l16 -4l-30 -196h-124l-19 152c-15.333 6 -33.333 8.83301 -54 8.5s-41.5 -5.83301 -62.5 -16.5s-39.5 -25.334 -55.5 -44.001s-30 -40.334 -42 -65.001c-32 -67.333 -48 -145 -48 -233zM496.496 795.004
c-13 -5.33301 -26.499 -8 -40.499 -8s-26 2.33301 -36 7c-20.667 10 -36 25 -46 45c-4 9.33301 -6.16699 19.833 -6.5 31.5s2.16699 23.334 7.5 35.001s12.333 22.167 21 31.5c19.333 18.667 43.666 27.667 72.999 27c24.667 0 46 -8.33301 64 -25
c16 -14.667 24 -30.334 24 -47.001s-2.33301 -31.167 -7 -43.5s-11.5 -23 -20.5 -32s-20 -16.167 -33 -21.5z" />
    <glyph glyph-name="cdotaccent" unicode="&#x10b;" horiz-adv-x="459" 
d="M281 83c50.667 0 91.999 20.666 123.999 61.999l31 -50c-28 -44 -74.333 -75.667 -139 -95c-24 -6.66699 -50.333 -10 -79 -10s-54.5 4.83301 -77.5 14.5s-42.833 24.167 -59.5 43.5c-34.667 41.333 -52 101.666 -52 180.999c0 86.667 25 162.334 75 227.001
c35.333 46 82.666 78.667 141.999 98c29.333 9.33301 55.5 14 78.5 14s40.167 -0.5 51.5 -1.5s22.666 -2.16699 33.999 -3.5c24.667 -3.33301 44.334 -8 59.001 -14l-45 -157c-6.66699 2 -15.667 9.33301 -27 22l-27 31c-27.333 30.667 -47.666 46 -60.999 46
s-26.666 -6.33301 -39.999 -19c-30 -28 -51.667 -74.333 -65 -139c-6 -28.667 -9 -52.667 -9 -72s0.166992 -36.666 0.5 -51.999s2.33301 -32 6 -50s9.16699 -32.667 16.5 -44c13.333 -21.333 34.333 -32 63 -32zM377.999 660.999
c-12.667 -5.33301 -26 -7.99902 -40 -7.99902s-25.667 2.33301 -35 7c-19.333 9.33301 -33.666 24.333 -42.999 45c-4 9.33301 -6 19.666 -6 30.999s2.5 23.166 7.5 35.499s11.5 22.833 19.5 31.5c17.333 18.667 40.666 28 69.999 28c24.667 0 45 -8.33301 61 -25
c14.667 -14 22 -29.667 22 -47s-2.16699 -32.166 -6.5 -44.499s-10.5 -23 -18.5 -32s-18.333 -16.167 -31 -21.5z" />
    <glyph glyph-name="Ccaron" unicode="&#x10c;" horiz-adv-x="634" 
d="M220 335c0 -176 45.6631 -263.996 136.996 -263.996c30 0 52.833 3.66699 68.5 11s26.834 14.5 33.501 21.5s11.834 14.167 15.501 21.5s7.16699 15.333 10.5 24s6.33301 17.667 9 27l8 29h98l-21 -139c-25.333 -21.333 -50.666 -36.333 -75.999 -45
c-51.333 -19.333 -106.666 -29 -165.999 -29s-108.166 8.66699 -146.499 26s-69.5 40.666 -93.5 69.999c-45.333 55.333 -68 129.666 -68 222.999c0 138 39.667 247.333 119 328c77.333 78.667 182.333 117.667 315 117c62.667 0 112 -5.33301 148 -16
c9.33301 -2.66699 18.666 -5 27.999 -7l16 -4l-30 -196h-124l-19 152c-15.333 6 -33.333 8.83301 -54 8.5s-41.5 -5.83301 -62.5 -16.5s-39.5 -25.334 -55.5 -44.001s-30 -40.334 -42 -65.001c-32 -67.333 -48 -145 -48 -233zM306.996 955.004l60 28l99 -84l157 84l53 -27
l-180 -175h-87z" />
    <glyph glyph-name="ccaron" unicode="&#x10d;" horiz-adv-x="459" 
d="M281 83c50.667 0 91.999 20.666 123.999 61.999l31 -50c-28 -44 -74.333 -75.667 -139 -95c-24 -6.66699 -50.333 -10 -79 -10s-54.5 4.83301 -77.5 14.5s-42.833 24.167 -59.5 43.5c-34.667 41.333 -52 101.666 -52 180.999c0 86.667 25 162.334 75 227.001
c35.333 46 82.666 78.667 141.999 98c29.333 9.33301 55.5 14 78.5 14s40.167 -0.5 51.5 -1.5s22.666 -2.16699 33.999 -3.5c24.667 -3.33301 44.334 -8 59.001 -14l-45 -157c-6.66699 2 -15.667 9.33301 -27 22l-27 31c-27.333 30.667 -47.666 46 -60.999 46
s-26.666 -6.33301 -39.999 -19c-30 -28 -51.667 -74.333 -65 -139c-6 -28.667 -9 -52.667 -9 -72s0.166992 -36.666 0.5 -51.999s2.33301 -32 6 -50s9.16699 -32.667 16.5 -44c13.333 -21.333 34.333 -32 63 -32zM164.999 786.999l61 28l98 -102l158 102l52 -28l-180 -183
h-86z" />
    <glyph glyph-name="Dcaron" unicode="&#x10e;" horiz-adv-x="734" 
d="M-16 52l78.001 14l82 615l-71 12l6 54h154c28 0 56.833 1.33301 86.5 4s59.167 4 88.5 4h3c109.333 0 190.666 -29.333 243.999 -88c47.333 -52 71.333 -124.333 72 -217c0 -218 -79.667 -359.333 -239 -424c-55.333 -22.667 -121.666 -34 -198.999 -34
c-8.66699 0 -18.334 0.666992 -29.001 2s-19.667 2.33301 -27 3s-15.333 1 -24 1c-20 1.33301 -37 2 -51 2h-179zM233.001 66c21.333 -8 45.167 -12 71.5 -12s51.5 5.5 75.5 16.5s45 26 63 45s33.333 41 46 66s23 51.5 31 79.5c15.333 54 22.833 107.667 22.5 161
s-3.5 96.5 -9.5 129.5s-15 60.167 -27 81.5c-24 40.667 -62 60.667 -114 60c-37.333 0 -63.333 -4 -78 -12zM288.002 955l60 28l99 -84l157 84l53 -27l-180 -175h-87z" />
    <glyph glyph-name="dcaron" unicode="&#x10f;" horiz-adv-x="712" 
d="M762 806c12.667 -14 18.667 -44.668 18 -92.001c0 -65.333 -13.333 -124.666 -40 -177.999c-8.66699 -17.333 -19 -32.333 -31 -45l-63 15l-3 12c13.333 35.333 20 82 20 140s-4 93 -12 105l10 21zM506 111.999c-3.33301 -25.333 3.00098 -38 19.001 -38
c8.66699 0 23 7.33301 43 22l14 -35l-16 -17c-16.667 -18.667 -36 -32.334 -58 -41.001s-45.333 -13 -70 -13c-48.667 0 -75 27.333 -79 82c-26 -36 -61.333 -60.667 -106 -74c-16.667 -5.33301 -37.834 -8 -63.501 -8s-49.167 5.5 -70.5 16.5s-38.666 25.833 -51.999 44.5
c-25.333 36 -38 84.333 -38 145c0 102.667 26.667 188.334 80 257.001c37.333 48 86.666 81.667 147.999 101c30.667 9.33301 59 14 85 14s48.667 -1.66699 68 -5l23 161l-76 21l9 40l211 21l27 -14zM266.001 74.999c29.333 0 55.6689 16.667 79.002 50l54 367
c-14.667 5.33301 -31.834 8 -51.501 8s-37 -4.33301 -52 -13s-28.167 -20.5 -39.5 -35.5s-20.833 -32.333 -28.5 -52s-13.834 -40.5 -18.501 -62.5c-8.66699 -40.667 -13 -83.667 -13 -129c0 -88.667 23.333 -133 70 -133z" />
    <glyph glyph-name="Dcroat" unicode="&#x110;" horiz-adv-x="735" 
d="M-16 53l78.001 14l36 276h-66l12 83h65l35 256l-71 12l6 54h154c28 0 56.833 1.33301 86.5 4s59.167 4 88.5 4h3c109.333 0 190.666 -29.333 243.999 -88c47.333 -52 71.333 -124.333 72 -217c0 -218 -79.667 -359.333 -239 -424
c-55.333 -22.667 -121.666 -34 -198.999 -34c-8.66699 0 -18.334 0.666992 -29.001 2s-19.667 2.33301 -27 3s-15.333 1 -24 1c-20 1.33301 -37 2 -51 2h-179zM233.001 67c21.333 -8 45.167 -12 71.5 -12s51.5 5.5 75.5 16.5s45 26 63 45s33.333 41 46 66s23 51.5 31 79.5
c15.333 54 22.833 107.667 22.5 161s-3.5 96.5 -9.5 129.5s-15 60.167 -27 81.5c-24 40.667 -62 60.667 -114 60c-37.333 0 -63.333 -4 -78 -12l-34 -256h145l-13 -83h-143z" />
    <glyph glyph-name="dcroat" unicode="&#x111;" horiz-adv-x="614" 
d="M508 112c-3.33301 -25.333 3.00098 -38 19.001 -38c8.66699 0 23 7.33301 43 22l13 -35l-15 -17c-16.667 -18.667 -36 -32.334 -58 -41.001s-45.333 -13 -70 -13c-48.667 0 -75 27.333 -79 82c-26 -36 -61.333 -60.667 -106 -74c-16.667 -5.33301 -37.834 -8 -63.501 -8
s-49.167 5.5 -70.5 16.5s-38.666 25.833 -51.999 44.5c-25.333 36 -38 84.333 -38 145c0 102.667 26.667 188.334 80 257.001c37.333 48 86.666 81.667 147.999 101c30.667 9.33301 59 14 85 14s48.667 -1.66699 68 -5l7 53h-138l8 64h140l6 44l-76 21l9 40l211 21l27 -14
l-16 -112h61l-7 -64h-63zM268.001 75c29.333 0 55.6689 16.667 79.002 50l54 367c-14.667 5.33301 -31.834 8 -51.501 8s-37 -4.33301 -52 -13s-28.167 -20.5 -39.5 -35.5s-20.833 -32.333 -28.5 -52s-13.834 -40.5 -18.501 -62.5c-8.66699 -40.667 -13 -83.667 -13 -129
c0 -88.667 23.333 -133 70 -133z" />
    <glyph glyph-name="Emacron" unicode="&#x112;" horiz-adv-x="648" 
d="M-16 52l78 14l81 615l-71 12l5 54h546l-18 -181h-108l-17 110l-165 12l-35 -258l217 12l-12 -107l-215 13l-38 -282l226 17l57 146l104 -7l-34 -222h-607zM268 936h279v-103h-279v103z" />
    <glyph glyph-name="emacron" unicode="&#x113;" horiz-adv-x="511" 
d="M296 78c58 0 106.67 25.333 146.003 76l31 -50c-30 -47.333 -78 -81.333 -144 -102c-25.333 -8 -52.333 -12 -81 -12s-53.334 2.83301 -74.001 8.5s-39 13.667 -55 24s-29.5 22.333 -40.5 36s-20.167 28.834 -27.5 45.501c-14 32 -21 67.333 -21 106v3
c0 102 30.333 186.667 91 254c60 67.333 135.333 101 226 101c78 0 128 -24.667 150 -74c7.33301 -16.667 10.833 -36 10.5 -58s-4.66602 -43.333 -12.999 -64s-20.333 -39.167 -36 -55.5s-33.834 -30.333 -54.501 -42s-42.334 -21.167 -65.001 -28.5
c-44.667 -14.667 -89.334 -22.667 -134.001 -24c0 -50.667 8.16699 -87.334 24.5 -110.001s38.5 -34 66.5 -34zM311.003 500c-60.667 0 -96 -73 -106 -219c34.667 2 66.667 15.667 96 41c33.333 28.667 50 65.5 50 110.5s-13.333 67.5 -40 67.5zM193.003 788h279v-102h-279
v102z" />
    <glyph glyph-name="Ebreve" unicode="&#x114;" horiz-adv-x="648" 
d="M-16 52l78 14l81 615l-71 12l5 54h546l-18 -181h-108l-17 110l-165 12l-35 -258l217 12l-12 -107l-215 13l-38 -282l226 17l57 146l104 -7l-34 -222h-607zM344 983l-1 -21.999c0 -18 3 -30.333 9 -37c10.667 -14 26.834 -21 48.501 -21s37.667 2.33301 48 7
s18.166 11 23.499 19c8 11.333 12.333 29.333 13 54h89c0 -2.66699 0.333008 -5.33398 1 -8.00098v-8c0 -44.667 -13.333 -82.667 -40 -114c-31.333 -37.333 -75 -56 -131 -56c-53.333 0 -93.333 16.667 -120 50c-22 26.667 -33 61 -33 103c0 8.66699 1 19.667 3 33h90z" />
    <glyph glyph-name="ebreve" unicode="&#x115;" horiz-adv-x="511" 
d="M296 78c58 0 106.67 25.333 146.003 76l31 -50c-30 -47.333 -78 -81.333 -144 -102c-25.333 -8 -52.333 -12 -81 -12s-53.334 2.83301 -74.001 8.5s-39 13.667 -55 24s-29.5 22.333 -40.5 36s-20.167 28.834 -27.5 45.501c-14 32 -21 67.333 -21 106v3
c0 102 30.333 186.667 91 254c60 67.333 135.333 101 226 101c78 0 128 -24.667 150 -74c7.33301 -16.667 10.833 -36 10.5 -58s-4.66602 -43.333 -12.999 -64s-20.333 -39.167 -36 -55.5s-33.834 -30.333 -54.501 -42s-42.334 -21.167 -65.001 -28.5
c-44.667 -14.667 -89.334 -22.667 -134.001 -24c0 -50.667 8.16699 -87.334 24.5 -110.001s38.5 -34 66.5 -34zM311.003 500c-60.667 0 -96 -73 -106 -219c34.667 2 66.667 15.667 96 41c33.333 28.667 50 65.5 50 110.5s-13.333 67.5 -40 67.5zM290.003 821
l0.000976562 -22c0 -18 2.66699 -30.667 8 -38c10.667 -14 27 -20.833 49 -20.5s38.167 2.83301 48.5 7.5s18.166 10.667 23.499 18c8 11.333 12.333 29.666 13 54.999h89v-9v-8c0 -44.667 -13 -82.667 -39 -114c-31.333 -37.333 -75.333 -55.666 -132 -54.999
c-53.333 0 -93 16.333 -119 49c-22 27.333 -33 62 -33 104c0 8 0.666992 19 2 33h90z" />
    <glyph glyph-name="Edotaccent" unicode="&#x116;" horiz-adv-x="648" 
d="M-16 52l78 14l81 615l-71 12l5 54h546l-18 -181h-108l-17 110l-165 12l-35 -258l217 12l-12 -107l-215 13l-38 -282l226 17l57 146l104 -7l-34 -222h-607zM441.5 795c-13 -5.33301 -26.499 -8 -40.499 -8s-26 2.33301 -36 7c-20.667 10 -36 25 -46 45
c-4 9.33301 -6.16699 19.833 -6.5 31.5s2.16699 23.334 7.5 35.001s12.333 22.167 21 31.5c19.333 18.667 43.666 27.667 72.999 27c24.667 0 46 -8.33301 64 -25c16 -14.667 24 -30.334 24 -47.001s-2.33301 -31.167 -7 -43.5s-11.5 -23 -20.5 -32s-20 -16.167 -33 -21.5z
" />
    <glyph glyph-name="edotaccent" unicode="&#x117;" horiz-adv-x="511" 
d="M296 78c58 0 106.67 25.333 146.003 76l31 -50c-30 -47.333 -78 -81.333 -144 -102c-25.333 -8 -52.333 -12 -81 -12s-53.334 2.83301 -74.001 8.5s-39 13.667 -55 24s-29.5 22.333 -40.5 36s-20.167 28.834 -27.5 45.501c-14 32 -21 67.333 -21 106v3
c0 102 30.333 186.667 91 254c60 67.333 135.333 101 226 101c78 0 128 -24.667 150 -74c7.33301 -16.667 10.833 -36 10.5 -58s-4.66602 -43.333 -12.999 -64s-20.333 -39.167 -36 -55.5s-33.834 -30.333 -54.501 -42s-42.334 -21.167 -65.001 -28.5
c-44.667 -14.667 -89.334 -22.667 -134.001 -24c0 -50.667 8.16699 -87.334 24.5 -110.001s38.5 -34 66.5 -34zM311.003 500c-60.667 0 -96 -73 -106 -219c34.667 2 66.667 15.667 96 41c33.333 28.667 50 65.5 50 110.5s-13.333 67.5 -40 67.5zM390.003 661
c-12.667 -5.33301 -26 -7.99902 -40 -7.99902s-25.667 2.33301 -35 7c-19.333 9.33301 -33.666 24.333 -42.999 45c-4 9.33301 -6 19.666 -6 30.999s2.5 23.166 7.5 35.499s11.5 22.833 19.5 31.5c17.333 18.667 40.666 28 69.999 28c24.667 0 45 -8.33301 61 -25
c14.667 -14 22 -29.667 22 -47s-2.16699 -32.166 -6.5 -44.499s-10.5 -23 -18.5 -32s-18.333 -16.167 -31 -21.5z" />
    <glyph glyph-name="Eogonek" unicode="&#x118;" horiz-adv-x="648" 
d="M572 -159c-48.667 -50 -104.666 -75.001 -167.999 -75.001c-31.333 0 -54.833 7.66699 -70.5 23s-23.5 36 -23.5 62c0 28 15.667 58.667 47 92c20.667 22 46.667 41 78 57h-457l6 52l78 14l81 615l-71 12l5 54h546l-18 -181h-108l-17 110l-165 12l-35 -258l217 12
l-12 -107l-215 13l-38 -282l226 17l57 146l104 -7l-34 -222h-43c-63.333 -42.667 -95 -76.667 -95 -102s11 -38 33 -38c13.333 0 25.666 3.33301 36.999 10s24 15.334 38 26.001z" />
    <glyph glyph-name="eogonek" unicode="&#x119;" horiz-adv-x="511" 
d="M431 -159c-48.667 -50 -104.663 -75 -167.996 -75c-31.333 0 -54.833 7.66699 -70.5 23s-23.5 36 -23.5 62c0 19.333 5.66699 37.666 17 54.999c20 32 44.667 60.333 74 85l-16 -1c-95.333 0 -159.666 38 -192.999 114c-14 32 -21 67.333 -21 106v3
c0 102 30.333 186.667 91 254c60 67.333 135.333 101 226 101c78 0 128 -24.667 150 -74c7.33301 -16.667 10.833 -36 10.5 -58s-4.66602 -43.333 -12.999 -64s-20.333 -39.167 -36 -55.5s-33.834 -30.333 -54.501 -42s-42.334 -21.167 -65.001 -28.5
c-44.667 -14.667 -89.334 -22.667 -134.001 -24c0 -50.667 8.16699 -87.334 24.5 -110.001s38.5 -34 66.5 -34c58 0 106.667 25.333 146 76l31 -50c-10.667 -16 -23.334 -31 -38.001 -45h1c-56.667 -41.333 -96 -81.666 -118 -120.999c-8 -14 -12 -27.333 -12 -40
s3.16699 -22.167 9.5 -28.5s15.166 -9.5 26.499 -9.5s22.666 3.33301 33.999 10s24 15.334 38 26.001zM311.004 500c-60.667 0 -96 -73 -106 -219c34.667 2 66.667 15.667 96 41c33.333 28.667 50 65.5 50 110.5s-13.333 67.5 -40 67.5z" />
    <glyph glyph-name="Ecaron" unicode="&#x11a;" horiz-adv-x="648" 
d="M-16 52l78 14l81 615l-71 12l5 54h546l-18 -181h-108l-17 110l-165 12l-35 -258l217 12l-12 -107l-215 13l-38 -282l226 17l57 146l104 -7l-34 -222h-607zM252 955l60 28l99 -84l157 84l53 -27l-180 -175h-87z" />
    <glyph glyph-name="ecaron" unicode="&#x11b;" horiz-adv-x="511" 
d="M296 78c58 0 106.67 25.333 146.003 76l31 -50c-30 -47.333 -78 -81.333 -144 -102c-25.333 -8 -52.333 -12 -81 -12s-53.334 2.83301 -74.001 8.5s-39 13.667 -55 24s-29.5 22.333 -40.5 36s-20.167 28.834 -27.5 45.501c-14 32 -21 67.333 -21 106v3
c0 102 30.333 186.667 91 254c60 67.333 135.333 101 226 101c78 0 128 -24.667 150 -74c7.33301 -16.667 10.833 -36 10.5 -58s-4.66602 -43.333 -12.999 -64s-20.333 -39.167 -36 -55.5s-33.834 -30.333 -54.501 -42s-42.334 -21.167 -65.001 -28.5
c-44.667 -14.667 -89.334 -22.667 -134.001 -24c0 -50.667 8.16699 -87.334 24.5 -110.001s38.5 -34 66.5 -34zM311.003 500c-60.667 0 -96 -73 -106 -219c34.667 2 66.667 15.667 96 41c33.333 28.667 50 65.5 50 110.5s-13.333 67.5 -40 67.5zM177.003 787l61 28l98 -102
l158 102l52 -28l-180 -183h-86z" />
    <glyph glyph-name="Gcircumflex" unicode="&#x11c;" horiz-adv-x="708" 
d="M441 693c-152.667 0 -229.333 -124 -230 -372c0 -118.667 24.333 -197 73 -235c16.667 -13.333 36.667 -20 60 -20c47.333 0 84 4.66699 110 14l24 208l-99 8l9 72h272l-42 -327l-19 -2c-29.333 -3.33301 -52.666 -7.66602 -69.999 -12.999l-49 -12
c-57.333 -14 -112.333 -21.167 -165 -21.5s-96.5 8 -131.5 25s-63.833 40.167 -86.5 69.5c-44.667 58 -67.334 135.667 -68.001 233c0 130.667 33.667 234.667 101 312c72 83.333 175 124.666 309 123.999c68.667 0 128 -6.66699 178 -20c12 -3.33301 23.333 -6 34 -8l30 -6
l-33 -174h-121l-4 126c-24 12.667 -51.333 19 -82 19zM583.001 621l-15 19c2.66699 -2.66699 5 -6 7 -10zM274.001 809l180 174h87l102 -174l-60 -28l-99 101l-157 -101z" />
    <glyph glyph-name="gcircumflex" unicode="&#x11d;" horiz-adv-x="594" 
d="M263 554c30.667 9.33301 64.665 14 101.998 14s77.333 -7.66699 120 -23l79 23l-81 -606c-12.667 -100.667 -69.667 -166.334 -171 -197.001c-38 -12 -81.667 -18 -131 -18c-36 0 -65.667 3.16699 -89 9.5s-37.333 10.5 -42 12.5l25 105
c6.66699 -6.66699 19.334 -13.667 38.001 -21c38 -15.333 67.5 -23 88.5 -23s37.833 1 50.5 3s23.667 6.33301 33 13c18 14 29.667 41.667 35 83l12 107c-38 -30 -81.333 -45.333 -130 -46c-58 0 -102.333 20.333 -133 61c-26.667 36.667 -40 85 -40 145
c0 101.333 28.333 187 85 257c38.667 48.667 88.334 82.334 149.001 101.001zM396.998 494c-12.667 3.33301 -28.168 5.16797 -46.501 5.50098s-35.166 -3.83398 -50.499 -12.501s-28.666 -20.5 -39.999 -35.5s-21 -32.333 -29 -52s-14.333 -40.5 -19 -62.5
c-9.33301 -41.333 -14 -84.333 -14 -129s6.5 -78 19.5 -100s30.833 -33 53.5 -33c25.333 0 48.666 12 69.999 36zM209.997 633.002l180 182h87l102 -182l-60 -29l-99 95l-157 -94z" />
    <glyph glyph-name="Gbreve" unicode="&#x11e;" horiz-adv-x="708" 
d="M441 693c-152.667 0 -229.333 -124 -230 -372c0 -118.667 24.333 -197 73 -235c16.667 -13.333 36.667 -20 60 -20c47.333 0 84 4.66699 110 14l24 208l-99 8l9 72h272l-42 -327l-19 -2c-29.333 -3.33301 -52.666 -7.66602 -69.999 -12.999l-49 -12
c-57.333 -14 -112.333 -21.167 -165 -21.5s-96.5 8 -131.5 25s-63.833 40.167 -86.5 69.5c-44.667 58 -67.334 135.667 -68.001 233c0 130.667 33.667 234.667 101 312c72 83.333 175 124.666 309 123.999c68.667 0 128 -6.66699 178 -20c12 -3.33301 23.333 -6 34 -8l30 -6
l-33 -174h-121l-4 126c-24 12.667 -51.333 19 -82 19zM583.001 621l-15 19c2.66699 -2.66699 5 -6 7 -10zM387.001 983l-1 -21.999c0 -18 3 -30.333 9 -37c10.667 -14 26.834 -21 48.501 -21s37.667 2.33301 48 7s18.166 11 23.499 19c8 11.333 12.333 29.333 13 54h89
c0 -2.66699 0.333008 -5.33398 1 -8.00098v-8c0 -44.667 -13.333 -82.667 -40 -114c-31.333 -37.333 -75 -56 -131 -56c-53.333 0 -93.333 16.667 -120 50c-22 26.667 -33 61 -33 103c0 8.66699 1 19.667 3 33h90z" />
    <glyph glyph-name="gbreve" unicode="&#x11f;" horiz-adv-x="594" 
d="M263 554c30.667 9.33301 64.665 14 101.998 14s77.333 -7.66699 120 -23l79 23l-81 -606c-12.667 -100.667 -69.667 -166.334 -171 -197.001c-38 -12 -81.667 -18 -131 -18c-36 0 -65.667 3.16699 -89 9.5s-37.333 10.5 -42 12.5l25 105
c6.66699 -6.66699 19.334 -13.667 38.001 -21c38 -15.333 67.5 -23 88.5 -23s37.833 1 50.5 3s23.667 6.33301 33 13c18 14 29.667 41.667 35 83l12 107c-38 -30 -81.333 -45.333 -130 -46c-58 0 -102.333 20.333 -133 61c-26.667 36.667 -40 85 -40 145
c0 101.333 28.333 187 85 257c38.667 48.667 88.334 82.334 149.001 101.001zM396.998 494c-12.667 3.33301 -28.168 5.16797 -46.501 5.50098s-35.166 -3.83398 -50.499 -12.501s-28.666 -20.5 -39.999 -35.5s-21 -32.333 -29 -52s-14.333 -40.5 -19 -62.5
c-9.33301 -41.333 -14 -84.333 -14 -129s6.5 -78 19.5 -100s30.833 -33 53.5 -33c25.333 0 48.666 12 69.999 36zM336.997 821.002l0.000976562 -22c0 -18 2.66699 -30.667 8 -38c10.667 -14 27 -20.833 49 -20.5s38.167 2.83301 48.5 7.5s18.166 10.667 23.499 18
c8 11.333 12.333 29.666 13 54.999h89v-9v-8c0 -44.667 -13 -82.667 -39 -114c-31.333 -37.333 -75.333 -55.666 -132 -54.999c-53.333 0 -93 16.333 -119 49c-22 27.333 -33 62 -33 104c0 8 0.666992 19 2 33h90z" />
    <glyph glyph-name="Gdotaccent" unicode="&#x120;" horiz-adv-x="708" 
d="M441 693c-152.667 0 -229.333 -124 -230 -372c0 -118.667 24.333 -197 73 -235c16.667 -13.333 36.667 -20 60 -20c47.333 0 84 4.66699 110 14l24 208l-99 8l9 72h272l-42 -327l-19 -2c-29.333 -3.33301 -52.666 -7.66602 -69.999 -12.999l-49 -12
c-57.333 -14 -112.333 -21.167 -165 -21.5s-96.5 8 -131.5 25s-63.833 40.167 -86.5 69.5c-44.667 58 -67.334 135.667 -68.001 233c0 130.667 33.667 234.667 101 312c72 83.333 175 124.666 309 123.999c68.667 0 128 -6.66699 178 -20c12 -3.33301 23.333 -6 34 -8l30 -6
l-33 -174h-121l-4 126c-24 12.667 -51.333 19 -82 19zM583.001 621l-15 19c2.66699 -2.66699 5 -6 7 -10zM484.501 795c-13 -5.33301 -26.499 -8 -40.499 -8s-26 2.33301 -36 7c-20.667 10 -36 25 -46 45c-4 9.33301 -6.16699 19.833 -6.5 31.5s2.16699 23.334 7.5 35.001
s12.333 22.167 21 31.5c19.333 18.667 43.666 27.667 72.999 27c24.667 0 46 -8.33301 64 -25c16 -14.667 24 -30.334 24 -47.001s-2.33301 -31.167 -7 -43.5s-11.5 -23 -20.5 -32s-20 -16.167 -33 -21.5z" />
    <glyph glyph-name="gdotaccent" unicode="&#x121;" horiz-adv-x="594" 
d="M263 554c30.667 9.33301 64.665 14 101.998 14s77.333 -7.66699 120 -23l79 23l-81 -606c-12.667 -100.667 -69.667 -166.334 -171 -197.001c-38 -12 -81.667 -18 -131 -18c-36 0 -65.667 3.16699 -89 9.5s-37.333 10.5 -42 12.5l25 105
c6.66699 -6.66699 19.334 -13.667 38.001 -21c38 -15.333 67.5 -23 88.5 -23s37.833 1 50.5 3s23.667 6.33301 33 13c18 14 29.667 41.667 35 83l12 107c-38 -30 -81.333 -45.333 -130 -46c-58 0 -102.333 20.333 -133 61c-26.667 36.667 -40 85 -40 145
c0 101.333 28.333 187 85 257c38.667 48.667 88.334 82.334 149.001 101.001zM396.998 494c-12.667 3.33301 -28.168 5.16797 -46.501 5.50098s-35.166 -3.83398 -50.499 -12.501s-28.666 -20.5 -39.999 -35.5s-21 -32.333 -29 -52s-14.333 -40.5 -19 -62.5
c-9.33301 -41.333 -14 -84.333 -14 -129s6.5 -78 19.5 -100s30.833 -33 53.5 -33c25.333 0 48.666 12 69.999 36zM436.997 661.002c-12.667 -5.33301 -26 -7.99902 -40 -7.99902s-25.667 2.33301 -35 7c-19.333 9.33301 -33.666 24.333 -42.999 45
c-4 9.33301 -6 19.666 -6 30.999s2.5 23.166 7.5 35.499s11.5 22.833 19.5 31.5c17.333 18.667 40.666 28 69.999 28c24.667 0 45 -8.33301 61 -25c14.667 -14 22 -29.667 22 -47s-2.16699 -32.166 -6.5 -44.499s-10.5 -23 -18.5 -32s-18.333 -16.167 -31 -21.5z" />
    <glyph glyph-name="Gcommaaccent" unicode="&#x122;" horiz-adv-x="708" 
d="M441 693c-152.667 0 -229.333 -124 -230 -372c0 -118.667 24.333 -197 73 -235c16.667 -13.333 36.667 -20 60 -20c47.333 0 84 4.66699 110 14l24 208l-99 8l9 72h272l-42 -327l-19 -2c-29.333 -3.33301 -52.666 -7.66602 -69.999 -12.999l-49 -12
c-57.333 -14 -112.333 -21.167 -165 -21.5s-96.5 8 -131.5 25s-63.833 40.167 -86.5 69.5c-44.667 58 -67.334 135.667 -68.001 233c0 130.667 33.667 234.667 101 312c72 83.333 175 124.666 309 123.999c68.667 0 128 -6.66699 178 -20c12 -3.33301 23.333 -6 34 -8l30 -6
l-33 -174h-121l-4 126c-24 12.667 -51.333 19 -82 19zM583.001 621l-15 19c2.66699 -2.66699 5 -6 7 -10zM353.001 -18c22 -4.66699 40.335 -16.6689 55.002 -36.002s22 -40.666 22 -63.999s-3.33301 -43.833 -10 -61.5s-15.334 -33.167 -26.001 -46.5
c-22 -27.333 -46.667 -43 -74 -47l-49 34l1 12c13.333 7.33301 23.333 20.333 30 39c2 7.33301 3 14.833 3 22.5s-0.833008 14.334 -2.5 20.001s-3.83398 10.834 -6.50098 15.501c-6 9.33301 -13.667 14.666 -23 15.999l5 45z" />
    <glyph glyph-name="gcommaaccent" unicode="&#x123;" horiz-adv-x="595" 
d="M362 611c-22 4.66699 -40.3359 16.6699 -55.0029 36.0029s-22 40.666 -22 63.999s3.33301 43.666 10 60.999s15.334 32.666 26.001 45.999c22 27.333 47 43.333 75 48l48 -34l-1 -13c-13.333 -7.33301 -23.333 -20.333 -30 -39c-2 -7.33301 -3 -14.666 -3 -21.999
s0.833008 -13.833 2.5 -19.5s3.83398 -10.834 6.50098 -15.501c6.66699 -10 14.334 -15.333 23.001 -16l-5 -45zM263.997 554.003c30.667 9.33301 64.665 14 101.998 14s77.333 -7.66699 120 -23l79 23l-81 -606c-12.667 -100.667 -69.667 -166.334 -171 -197.001
c-38 -12 -81.667 -18 -131 -18c-36 0 -65.667 3.16699 -89 9.5s-37.333 10.5 -42 12.5l25 105c6.66699 -6.66699 19.334 -13.667 38.001 -21c38 -15.333 67.5 -23 88.5 -23s37.833 1 50.5 3s23.667 6.33301 33 13c18 14 29.667 41.667 35 83l12 107
c-38 -30 -81.333 -45.333 -130 -46c-58 0 -102.333 20.333 -133 61c-26.667 36.667 -40 85 -40 145c0 101.333 28.333 187 85 257c38.667 48.667 88.334 82.334 149.001 101.001zM397.995 494.003c-12.667 3.33301 -28.1689 5.16797 -46.502 5.50098
s-35.166 -3.83398 -50.499 -12.501s-28.666 -20.5 -39.999 -35.5s-21 -32.333 -29 -52s-14.333 -40.5 -19 -62.5c-9.33301 -41.333 -14 -84.333 -14 -129s6.5 -78 19.5 -100s30.5 -33 52.5 -33c25.333 0 49 12 71 36z" />
    <glyph glyph-name="Hcircumflex" unicode="&#x124;" horiz-adv-x="807" 
d="M-5 52l67 14l82 615l-71 12l7 54h329l-6 -54l-88 -12l-34 -264h269l35 264l-86 12l5 54h334l-6 -54l-75 -12l-81 -615l77 -14l-6 -52h-343l7 52l93 14l37 278h-270l-37 -278l85 -14l-4 -52h-325zM308 809l180 174h87l102 -174l-60 -28l-99 101l-157 -101z" />
    <glyph glyph-name="hcircumflex" unicode="&#x125;" horiz-adv-x="635" 
d="M544 74c9.33301 0 23.9971 7.33301 43.9971 22l14 -35c-20 -28 -49.333 -48.667 -88 -62c-16.667 -6 -36.167 -9 -58.5 -9s-40 2.33301 -53 7s-22.833 11 -29.5 19c-11.333 12.667 -17 31.667 -17 57c0 13.333 2 30.333 6 51l25 136c9.33301 55.333 14 92.333 14 111
s-0.166992 32 -0.5 40s-1.16602 16.333 -2.49902 25s-3.66602 15.667 -6.99902 21c-5.33301 9.33301 -14 14 -26 14s-23.5 -3.33301 -34.5 -10s-21.833 -16 -32.5 -28c-23.333 -24.667 -42.666 -54.334 -57.999 -89.001l-42 -344h-162l87 724l-62 21l8 40l200 21l26 -14
l-1 -11l106 103h87l102 -175l-60 -28l-98 101l-149 -94l-29 -241c48.667 80.667 111 121 187 121c86 0 129.333 -49.333 130 -148c0 -18 -3.33301 -47.667 -10 -89l-14 -84c-2 -12.667 -4.16699 -25.667 -6.5 -39s-4.83301 -26.666 -7.5 -39.999
c-4.66699 -28.667 -7 -51.5 -7 -68.5s6.33301 -25.5 19 -25.5z" />
    <glyph glyph-name="Hbar" unicode="&#x126;" horiz-adv-x="807" 
d="M-5 52l67 14l52 409h-85l7 73h88l17 133l-71 12l7 54h329l-6 -54l-88 -12l-17 -133h270l17 133l-86 12l5 54h334l-6 -54l-75 -12l-17 -133h87l-7 -73h-89l-52 -409l77 -14l-6 -52h-343l7 52l93 14l29 229h-270l-29 -229l85 -14l-4 -52h-325zM542 373l14 102h-270
l-13 -102h269z" />
    <glyph glyph-name="hbar" unicode="&#x127;" horiz-adv-x="634" 
d="M544 74c9.33301 0 24 7.33301 44 22l14 -35c-20 -28 -49.333 -48.667 -88 -62c-17.333 -6 -37 -9 -59 -9s-39.5 2.33301 -52.5 7s-22.833 11 -29.5 19c-11.333 12.667 -17 31.667 -17 57c0 13.333 1.66699 30.333 5 51l25 136c10 55.333 14.833 92.333 14.5 111
s-0.5 32 -0.5 40s-0.833008 16.333 -2.5 25s-3.83398 15.667 -6.50098 21c-6 9.33301 -14.833 14 -26.5 14s-23.167 -3.33301 -34.5 -10s-22.333 -16 -33 -28c-22.667 -24.667 -41.667 -54.334 -57 -89.001l-42 -344h-163l74 616h-64l8 64h64l6 44l-62 21l7 40l200 21
l27 -14l-14 -112h105l-8 -64h-105l-21 -169c48.667 80.667 111.334 121 188.001 121c86 0 129 -49.333 129 -148c0 -18 -3.33301 -47.667 -10 -89l-14 -84c-2 -12.667 -4.16699 -25.667 -6.5 -39s-4.5 -26.666 -6.5 -39.999c-4.66699 -28.667 -7 -51.5 -7 -68.5
s6.33301 -25.5 19 -25.5z" />
    <glyph glyph-name="Itilde" unicode="&#x128;" horiz-adv-x="382" 
d="M-2 52l73 14l80 615l-71 12l5 54h328l-6 -54l-84 -12l-80 -615l85 -14l-3 -52h-334zM148 819l-37.998 60.002c10 21.333 27.333 40.333 52 57c25.333 17.333 47.166 26 65.499 26s32 -1.83301 41 -5.5s17.333 -8.16699 25 -13.5s14.5 -11.333 20.5 -18l18 -17
c13.333 -12.667 25.666 -19 36.999 -19s20.5 1.33301 27.5 4s13.167 6.33398 18.5 11.001c8.66699 6.66699 19 18 31 34l43 -64c-8.66699 -22 -24.667 -42.333 -48 -61c-24.667 -18.667 -46.834 -28 -66.501 -28s-34.667 1.83301 -45 5.5s-19.166 8.16699 -26.499 13.5
s-14 11.166 -20 17.499s-12.333 12.166 -19 17.499c-14.667 12.667 -31.5 19.167 -50.5 19.5s-40.833 -12.834 -65.5 -39.501z" />
    <glyph glyph-name="itilde" unicode="&#x129;" horiz-adv-x="326" 
d="M294 61c-38.667 -46.667 -86.667 -70.3311 -144 -70.998c-34.667 0 -59.667 6.16699 -75 18.5s-23 27.166 -23 44.499c0 3.33301 0.833008 10.666 2.5 21.999c1 11.333 3.5 31 7.5 59l46 345l-80 24l9 40l217 25l27 -12l-62 -445c-0.666992 -4.66699 -1 -9 -1 -13
c0 -16 6 -24 18 -24c10 0 25 7.33301 45 22zM55 677.003l-37 61.0039c10 21.333 27.333 40 52 56c25.333 17.333 47 26 65 26s31.667 -1.66699 41 -5s17.833 -7.83301 25.5 -13.5s14.5 -11.5 20.5 -17.5l17 -18c13.333 -12.667 25.666 -19 36.999 -19s20.5 1.5 27.5 4.5
s13.5 6.83301 19.5 11.5c8.66699 6.66699 19 17.667 31 33l43 -64c-8.66699 -22 -25 -42 -49 -60c-24.667 -18.667 -46.667 -28 -66 -28s-34.166 1.66699 -44.499 5s-19.333 7.66602 -27 12.999s-14.5 11.166 -20.5 17.499s-12 12.166 -18 17.499
c-14.667 12.667 -31.667 19.167 -51 19.5s-41.333 -12.834 -66 -39.501z" />
    <glyph glyph-name="Imacron" unicode="&#x12a;" horiz-adv-x="382" 
d="M-2 52l73 14l80 615l-71 12l5 54h328l-6 -54l-84 -12l-80 -615l85 -14l-3 -52h-334zM131 936h279v-103h-279v103z" />
    <glyph glyph-name="imacron" unicode="&#x12b;" horiz-adv-x="326" 
d="M294 61c-38.667 -46.667 -86.667 -70.3311 -144 -70.998c-34.667 0 -59.667 6.16699 -75 18.5s-23 27.166 -23 44.499c0 3.33301 0.833008 10.666 2.5 21.999c1 11.333 3.5 31 7.5 59l46 345l-80 24l9 40l217 25l27 -12l-62 -445c-0.666992 -4.66699 -1 -9 -1 -13
c0 -16 6 -24 18 -24c10 0 25 7.33301 45 22zM52 788.003h279v-102h-279v102z" />
    <glyph glyph-name="Ibreve" unicode="&#x12c;" horiz-adv-x="382" 
d="M-2 52l73 14l80 615l-71 12l5 54h328l-6 -54l-84 -12l-80 -615l85 -14l-3 -52h-334zM207 983l-1 -21.999c0 -18 3 -30.333 9 -37c10.667 -14 26.834 -21 48.501 -21s37.667 2.33301 48 7s18.166 11 23.499 19c8 11.333 12.333 29.333 13 54h89
c0 -2.66699 0.333008 -5.33398 1 -8.00098v-8c0 -44.667 -13.333 -82.667 -40 -114c-31.333 -37.333 -75 -56 -131 -56c-53.333 0 -93.333 16.667 -120 50c-22 26.667 -33 61 -33 103c0 8.66699 1 19.667 3 33h90z" />
    <glyph glyph-name="ibreve" unicode="&#x12d;" horiz-adv-x="326" 
d="M294 61c-38.667 -46.667 -86.667 -70.3311 -144 -70.998c-34.667 0 -59.667 6.16699 -75 18.5s-23 27.166 -23 44.499c0 3.33301 0.833008 10.666 2.5 21.999c1 11.333 3.5 31 7.5 59l46 345l-80 24l9 40l217 25l27 -12l-62 -445c-0.666992 -4.66699 -1 -9 -1 -13
c0 -16 6 -24 18 -24c10 0 25 7.33301 45 22zM149 821.003l0.000976562 -22c0 -18 2.66699 -30.667 8 -38c10.667 -14 27 -20.833 49 -20.5s38.167 2.83301 48.5 7.5s18.166 10.667 23.499 18c8 11.333 12.333 29.666 13 54.999h89v-9v-8c0 -44.667 -13 -82.667 -39 -114
c-31.333 -37.333 -75.333 -55.666 -132 -54.999c-53.333 0 -93 16.333 -119 49c-22 27.333 -33 62 -33 104c0 8 0.666992 19 2 33h90z" />
    <glyph glyph-name="Iogonek" unicode="&#x12e;" horiz-adv-x="344" 
d="M219 -159c-48.667 -50 -104.666 -75.001 -167.999 -75.001c-31.333 0 -54.833 7.66699 -70.5 23s-23.5 36 -23.5 62c0 28 16 58.667 48 92c20 22 45.667 41 77 57h-118l7 52l73 14l81 615l-72 12l6 54h327l-6 -54l-84 -12l-80 -615l85 -14l-3 -52h-109
c-63.333 -42.667 -95 -76.667 -95 -102s11 -38 33 -38c13.333 0 25.666 3.33301 36.999 10s24 15.334 38 26.001z" />
    <glyph glyph-name="iogonek" unicode="&#x12f;" horiz-adv-x="325" 
d="M249 661c-12.667 -5.33301 -25.998 -7.99902 -39.998 -7.99902s-25.833 2.33301 -35.5 7s-18.167 11 -25.5 19c-24.667 26.667 -29.667 57.667 -15 93c9.33301 24 25.666 41 48.999 51c12 4.66699 25 7.16699 39 7.5s26 -1.83398 36 -6.50098
c21.333 -9.33301 35.666 -23.666 42.999 -42.999c3.33301 -8.66699 5 -18.834 5 -30.501s-2.16699 -23.667 -6.5 -36s-10.5 -23 -18.5 -32s-18.333 -16.167 -31 -21.5zM104.002 -3.99902c-34.667 9.33301 -52.3311 28 -52.998 56c0 3.33301 1 10.833 3 22.5
c1.33301 11.667 4 31.5 8 59.5l45 345l-80 24l9 40l218 25l27 -12l-63 -445c-0.666992 -4.66699 -1 -9 -1 -13c0 -16 6 -24 18 -24c10 0 25 7.33301 45 22l14 -35c-16.667 -20 -33.667 -35.333 -51 -46s-33 -21.167 -47 -31.5s-26.333 -20.5 -37 -30.5
c-23.333 -22 -35 -41.333 -35 -58c0 -23.333 11 -35 33 -35c13.333 0 25.666 3.33301 36.999 10s23.666 15.334 36.999 26.001l18 -55c-48.667 -50 -104.667 -75 -168 -75c-31.333 0 -54.833 7.66699 -70.5 23s-23.5 36 -23.5 62c0 19.333 7.66699 39.666 23 60.999
c24.667 36 56 64 94 84z" />
    <glyph glyph-name="Idotaccent" unicode="&#x130;" horiz-adv-x="382" 
d="M-2 52l73 14l80 615l-71 12l5 54h328l-6 -54l-84 -12l-80 -615l85 -14l-3 -52h-334zM304.5 795c-13 -5.33301 -26.499 -8 -40.499 -8s-26 2.33301 -36 7c-20.667 10 -36 25 -46 45c-4 9.33301 -6.16699 19.833 -6.5 31.5s2.16699 23.334 7.5 35.001
s12.333 22.167 21 31.5c19.333 18.667 43.666 27.667 72.999 27c24.667 0 46 -8.33301 64 -25c16 -14.667 24 -30.334 24 -47.001s-2.33301 -31.167 -7 -43.5s-11.5 -23 -20.5 -32s-20 -16.167 -33 -21.5z" />
    <glyph glyph-name="dotlessi" unicode="&#x131;" horiz-adv-x="326" 
d="M294 61c-38.667 -46.667 -86.667 -70.3311 -144 -70.998c-34.667 0 -59.667 6.16699 -75 18.5s-23 27.166 -23 44.499c0 3.33301 0.833008 10.666 2.5 21.999c1 11.333 3.5 31 7.5 59l46 345l-80 24l9 40l217 25l27 -12l-62 -445c-0.666992 -4.66699 -1 -9 -1 -13
c0 -16 6 -24 18 -24c10 0 25 7.33301 45 22z" />
    <glyph glyph-name="IJ" unicode="&#x132;" horiz-adv-x="747" 
d="M-2 52l73 14l80 615l-71 12l5 54h328l-6 -54l-84 -12l-80 -615l85 -14l-3 -52h-334zM282 -116c90 27.333 142 79.998 156 157.998c30.667 164.667 60.334 377.334 89.001 638.001l-75 13l8 54h325l-6 -54l-82 -12l-50 -408c-18 -136 -31.5 -216.5 -40.5 -241.5
s-23.333 -49.167 -43 -72.5s-42.834 -43.666 -69.501 -60.999c-52 -34 -114.333 -56 -187 -66z" />
    <glyph glyph-name="ij" unicode="&#x133;" horiz-adv-x="643" 
d="M258 661c-12.667 -5.33301 -26 -7.99902 -40 -7.99902s-25.667 2.33301 -35 7c-19.333 9.33301 -33.666 24.333 -42.999 45c-4 9.33301 -6 19.666 -6 30.999s2.5 23.166 7.5 35.499s11.5 22.833 19.5 31.5c17.333 18.667 40.666 28 69.999 28
c24.667 0 45 -8.33301 61 -25c14.667 -14 22 -29.667 22 -47s-2.16699 -32.166 -6.5 -44.499s-10.5 -23 -18.5 -32s-18.333 -16.167 -31 -21.5zM294 61.001c-38.667 -46.667 -86.667 -70.3311 -144 -70.998c-34.667 0 -59.667 6.16699 -75 18.5s-23 27.166 -23 44.499
c0 3.33301 0.833008 10.666 2.5 21.999c1 11.333 3.5 31 7.5 59l46 345l-80 24l9 40l217 25l27 -12l-62 -445c-0.666992 -4.66699 -1 -9 -1 -13c0 -16 6 -24 18 -24c10 0 25 7.33301 45 22zM221 -180.996c14 -4 29.333 -6.00098 46 -6.00098s32.334 6.16699 47.001 18.5
s26.334 28.5 35.001 48.5c13.333 30.667 24 81.334 32 152.001l51 447l-81 24l11 40l220 25l25 -12l-67 -556c-10.667 -82.667 -40.334 -146.667 -89.001 -192c-46 -43.333 -101 -65.333 -165 -66c-42.667 0 -70.334 6 -83.001 18zM579 661.003
c-12.667 -5.33301 -26 -7.99902 -40 -7.99902s-25.667 2.33301 -35 7c-19.333 9.33301 -33.666 24.333 -42.999 45c-4 9.33301 -6 19.666 -6 30.999s2.5 23.166 7.5 35.499s11.5 22.833 19.5 31.5c17.333 18.667 40.666 28 69.999 28c24.667 0 45 -8.33301 61 -25
c14.667 -14 22 -29.667 22 -47s-2.16699 -32.166 -6.5 -44.499s-10.5 -23 -18.5 -32s-18.333 -16.167 -31 -21.5z" />
    <glyph glyph-name="Jcircumflex" unicode="&#x134;" horiz-adv-x="365" 
d="M-100 -116c90 27.333 142 79.998 156 157.998c30.667 164.667 60.334 377.334 89.001 638.001l-75 13l8 54h325l-6 -54l-82 -12l-50 -408c-18 -136 -31.5 -216.5 -40.5 -241.5s-23.333 -49.167 -43 -72.5s-42.834 -43.666 -69.501 -60.999c-52 -34 -114.333 -56 -187 -66
zM80 808.998l180 174h87l102 -174l-60 -28l-99 101l-157 -101z" />
    <glyph glyph-name="jcircumflex" unicode="&#x135;" horiz-adv-x="318" 
d="M-104 -181c14 -4 29.333 -6.00098 46 -6.00098s32.334 6.16699 47.001 18.5s26.334 28.5 35.001 48.5c13.333 30.667 24 81.334 32 152.001l51 447l-81 24l11 40l220 25l25 -12l-67 -556c-10.667 -82.667 -40.334 -146.667 -89.001 -192
c-46 -43.333 -101 -65.333 -165 -66c-42.667 0 -70.334 6 -83.001 18zM16 632.999l180 182h87l102 -182l-60 -29l-99 95l-157 -94z" />
    <glyph glyph-name="Kcommaaccent" unicode="&#x136;" horiz-adv-x="721" 
d="M-9 52l71.002 13.998l81 615l-71 12l7 54h330l-6 -54l-88 -12l-44 -329l305 329l-71 13l6 53h244l-5 -54l-58 -12l-228 -230c10 -14.667 20.333 -33 31 -55l65 -137c55.333 -117.333 92.666 -181.666 111.999 -192.999l57 -14l-5 -52h-212c-14 2 -24.5 8 -31.5 18
s-13.167 21.333 -18.5 34l-20 48c-6.66699 16 -13.334 33.667 -20.001 53c-34 92.667 -58 153.334 -72 182.001l-93 -93l-23 -176l85 -14l-4 -52h-330zM375.002 -17.002c22 -4.66699 40.335 -16.6689 55.002 -36.002s22 -40.666 22 -63.999s-3.33301 -43.833 -10 -61.5
s-15.334 -33.167 -26.001 -46.5c-22 -27.333 -46.667 -43 -74 -47l-49 34l1 12c13.333 7.33301 23.333 20.333 30 39c2 7.33301 3 14.833 3 22.5s-0.833008 14.334 -2.5 20.001s-3.83398 10.834 -6.50098 15.501c-6 9.33301 -13.667 14.666 -23 15.999l5 45z" />
    <glyph glyph-name="kcommaaccent" unicode="&#x137;" horiz-adv-x="565" 
d="M131 724l-63 21l9 40l199 21l27 -14l-105 -792h-162zM468 134c15.333 -30 35 -44.999 59 -44.999c12.667 0 29.334 7.33301 50.001 22l16 -34c-28.667 -34.667 -65 -60 -109 -76c-18 -6.66699 -35.833 -10 -53.5 -10s-31.834 1.5 -42.501 4.5s-20 6.83301 -28 11.5
c-14 9.33301 -24.333 23.333 -31 42l-91 249h3h-3c30 15.333 52 28.666 66 39.999c28.667 22.667 55.667 50.334 81 83.001c17.333 22.667 26 49.667 26 81c0 24 9.33301 41.667 28 53c14 8.66699 28.833 13 44.5 13s27.334 -1.66699 35.001 -5s14.167 -8 19.5 -14
c11.333 -11.333 17 -26.333 17 -45c0 -26.667 -9.33301 -52.667 -28 -78c-32.667 -40.667 -82.334 -76.334 -149.001 -107.001zM293 -17.999c22 -4.66699 40.335 -16.6689 55.002 -36.002s22 -40.666 22 -63.999s-3.33301 -43.833 -10 -61.5s-15.334 -33.167 -26.001 -46.5
c-22 -27.333 -46.667 -43 -74 -47l-49 34l1 12c13.333 7.33301 23.333 20.333 30 39c2 7.33301 3 14.833 3 22.5s-0.833008 14.334 -2.5 20.001s-3.83398 10.834 -6.50098 15.501c-6 9.33301 -13.667 14.666 -23 15.999l5 45z" />
    <glyph glyph-name="kgreenlandic" unicode="&#x138;" horiz-adv-x="595" 
d="M104 470l-52 29l8 43l182 26l26 -12l-70 -556h-158zM468 134c15.333 -30 35 -45 59 -45c12.667 0 29.334 7.33301 50.001 22l16 -34c-28.667 -34.667 -65 -60 -109 -76c-18 -6.66699 -35.833 -10 -53.5 -10s-31.834 1.5 -42.501 4.5s-20 6.83301 -28 11.5
c-14 9.33301 -24.333 23.333 -31 42l-91 249l210 265h133l-206 -238z" />
    <glyph glyph-name="Lacute" unicode="&#x139;" horiz-adv-x="620" 
d="M-5 52l67 14l81 615l-71 12l6 54h332l-6 -54l-89 -12l-81 -618l170 10l94 220l88 -11l-41 -282h-556zM237 817l134 167l92 -90c-12 -22.667 -37.667 -47.667 -77 -75c-34.667 -24.667 -65.667 -41.667 -93 -51z" />
    <glyph glyph-name="lacute" unicode="&#x13a;" horiz-adv-x="309" 
d="M203 111c-3.33301 -24.667 2.66699 -37.001 18 -37.001c9.33301 0 24 7.33301 44 22l13 -35c-20 -27.333 -47.667 -48 -83 -62c-16 -6 -32.167 -9 -48.5 -9s-30.833 1.33301 -43.5 4s-23.667 6.33398 -33 11.001c-21.333 11.333 -32.333 28.333 -33 51
c0 9.33301 1.33301 22 4 38l83 571l-64 21l9 41l199 20l24 -13zM167 815.999l135.001 167l91 -90c-12 -22.667 -37.667 -47.667 -77 -75c-34.667 -24.667 -65.334 -41.667 -92.001 -51z" />
    <glyph glyph-name="Lcommaaccent" unicode="&#x13b;" horiz-adv-x="620" 
d="M-5 52l67 14l81 615l-71 12l6 54h332l-6 -54l-89 -12l-81 -618l170 10l94 220l88 -11l-41 -282h-556zM292 -17c22 -4.66699 40.335 -16.6689 55.002 -36.002s22 -40.666 22 -63.999s-3.33301 -43.833 -10 -61.5s-15.334 -33.167 -26.001 -46.5
c-22 -27.333 -46.667 -43 -74 -47l-49 34l1 12c13.333 7.33301 23.333 20.333 30 39c2 7.33301 3 14.833 3 22.5s-0.833008 14.334 -2.5 20.001s-3.83398 10.834 -6.50098 15.501c-6 9.33301 -13.667 14.666 -23 15.999l5 45z" />
    <glyph glyph-name="lcommaaccent" unicode="&#x13c;" horiz-adv-x="310" 
d="M207 111c-3.33301 -24.667 2.66602 -37.001 17.999 -37.001c9.33301 0 24 7.33301 44 22l13 -35c-20 -27.333 -47.667 -48 -83 -62c-16 -6 -32.333 -9 -49 -9s-31.167 1.33301 -43.5 4s-23.166 6.33398 -32.499 11.001c-21.333 11.333 -32.333 28.333 -33 51
c0 9.33301 1 22 3 38l84 630l-65 21l10 40l198 21l25 -14zM107.999 -18.001c22 -4.66699 40.335 -16.6689 55.002 -36.002s22 -40.666 22 -63.999s-3.33301 -43.833 -10 -61.5s-15.334 -33.167 -26.001 -46.5c-22 -27.333 -46.667 -43 -74 -47l-49 34l1 12
c13.333 7.33301 23.333 20.333 30 39c2 7.33301 3 14.833 3 22.5s-0.833008 14.334 -2.5 20.001s-3.83398 10.834 -6.50098 15.501c-6 9.33301 -13.667 14.666 -23 15.999l5 45z" />
    <glyph glyph-name="Lcaron" unicode="&#x13d;" horiz-adv-x="620" 
d="M-5 52l67 14l81 615l-71 12l6 54h332l-6 -54l-89 -12l-81 -618l170 10l94 220l88 -11l-41 -282h-556zM580 806c12.667 -14 18.667 -44.668 18 -92.001c0 -65.333 -13.333 -124.666 -40 -177.999c-8.66699 -17.333 -19 -32.333 -31 -45l-63 15l-3 12
c13.333 35.333 20 82 20 140s-4 93 -12 105l10 21z" />
    <glyph glyph-name="lcaron" unicode="&#x13e;" horiz-adv-x="369" 
d="M207 112c-3.33301 -24.667 2.66602 -37.001 17.999 -37.001c9.33301 0 24 7.33301 44 22l13 -35c-20 -27.333 -47.667 -48 -83 -62c-16 -6 -32.333 -9 -49 -9s-31.167 1.33301 -43.5 4s-23.166 6.33398 -32.499 11.001c-21.333 11.333 -32.333 28.333 -33 51
c0 9.33301 1 22 3 38l84 630l-65 21l10 40l198 21l25 -14zM460.999 805.999c12.667 -14 18.667 -44.668 18 -92.001c0 -65.333 -13.333 -124.666 -40 -177.999c-8.66699 -17.333 -19 -32.333 -31 -45l-63 15l-3 12c13.333 35.333 20 82 20 140s-4 93 -12 105l10 21z" />
    <glyph glyph-name="Ldot" unicode="&#x13f;" horiz-adv-x="620" 
d="M-5 52l67 14l81 615l-71 12l6 54h332l-6 -54l-89 -12l-81 -618l170 10l94 220l88 -11l-41 -282h-556zM419 415c-3.33301 9.33301 -4.99805 20.666 -4.99805 33.999s2.66699 26 8 38s12.666 22.333 21.999 31c18.667 17.333 39.667 26 63 26s41.666 -8 54.999 -24
c12 -14.667 17.833 -31.667 17.5 -51s-3.33301 -35.166 -9 -47.499s-13.167 -22.5 -22.5 -30.5c-18.667 -16 -41 -24 -67 -24c-29.333 0.666992 -50 16.667 -62 48z" />
    <glyph glyph-name="ldot" unicode="&#x140;" horiz-adv-x="395" 
d="M207 111c-3.33301 -24.667 2.66602 -37.001 17.999 -37.001c9.33301 0 24 7.33301 44 22l13 -35c-20 -27.333 -47.667 -48 -83 -62c-16 -6 -32.333 -9 -49 -9s-31.167 1.33301 -43.5 4s-23.166 6.33398 -32.499 11.001c-21.333 11.333 -32.333 28.333 -33 51
c0 9.33301 1 22 3 38l84 630l-65 21l10 40l198 21l25 -14zM285.999 352.999c-3.33301 9.33301 -4.99805 20.666 -4.99805 33.999s2.66699 26 8 38s12.666 22.333 21.999 31c18.667 17.333 39.667 26 63 26s41.666 -8 54.999 -24c12 -14.667 17.833 -31.667 17.5 -51
s-3.33301 -35.166 -9 -47.499s-13.167 -22.5 -22.5 -30.5c-18.667 -16 -41 -24 -67 -24c-29.333 0.666992 -50 16.667 -62 48z" />
    <glyph glyph-name="Lslash" unicode="&#x141;" horiz-adv-x="621" 
d="M-4 53l67 14l26 197l-71 -28l-18 57l98 40l46 349l-72 12l7 54h331l-6 -54l-89 -12l-36 -275l149 60l17 -62l-175 -70l-36 -271l171 10l93 220l88 -11l-41 -282h-555z" />
    <glyph glyph-name="lslash" unicode="&#x142;" horiz-adv-x="309" 
d="M207 111c-3.33301 -24.667 2.66602 -37.001 17.999 -37.001c9.33301 0 24 7.33301 44 22l13 -35c-20 -27.333 -47.667 -48 -83 -62c-16 -6 -32.333 -9 -49 -9s-31.167 1.33301 -43.5 4s-23.166 6.33398 -32.499 11.001c-21.333 11.333 -32.333 28.333 -33 51
c0 9.33301 1 22 3 38l36 264l-67 -26v67l76 31l39 294l-65 21l10 40l198 21l25 -14l-39 -293l74 29v-71l-83 -33z" />
    <glyph glyph-name="Nacute" unicode="&#x143;" horiz-adv-x="754" 
d="M-12 52l73 14l90 615l-83 12l8 54h272l181 -486l38 -112l67 532l-84 12l5 54h245l-5 -54l-60 -12l-104 -681h-174l-191 502l-38 124l-61 -560l92 -14l-5 -52h-270zM403 816l134 167l92 -90c-12 -22.667 -37.667 -47.667 -77 -75c-34.667 -24.667 -65.667 -41.667 -93 -51
z" />
    <glyph glyph-name="nacute" unicode="&#x144;" horiz-adv-x="638" 
d="M547 74c9.33301 0 24.002 7.33203 44.002 21.999l14 -35c-20 -28 -49.333 -48.667 -88 -62c-17.333 -6 -37 -9 -59 -9s-39.5 2.5 -52.5 7.5s-22.833 11.833 -29.5 20.5c-11.333 12.667 -17 31 -17 55c0 13.333 1.66699 30.333 5 51l25 136
c10 55.333 14.833 92.333 14.5 111s-0.5 32 -0.5 40s-0.833008 16.333 -2.5 25s-3.83398 15.667 -6.50098 21c-6 9.33301 -14.833 14 -26.5 14s-22.834 -3.16699 -33.501 -9.5s-21 -14.833 -31 -25.5c-21.333 -22 -40 -50 -56 -84l-49 -352h-158l64 470l-52 29l8 43l182 26
l26 -12l-8 -102c48 76 109 114 183 114c86 0 129 -49.333 129 -148c0 -18 -3.33301 -47.667 -10 -89l-14 -84c-2 -12.667 -4.16699 -25.667 -6.5 -39s-4.5 -26.666 -6.5 -39.999c-4.66699 -28.667 -7 -51.5 -7 -68.5s6.33301 -25.5 19 -25.5zM315.002 640.999l155 210
l94 -91c-9.33301 -18 -37.333 -46 -84 -84c-50 -40.667 -88 -65.667 -114 -75z" />
    <glyph glyph-name="Ncommaaccent" unicode="&#x145;" horiz-adv-x="754" 
d="M-12 52l73 14l90 615l-83 12l8 54h272l181 -486l38 -112l67 532l-84 12l5 54h245l-5 -54l-60 -12l-104 -681h-174l-191 502l-38 124l-61 -560l92 -14l-5 -52h-270zM345 -18c22 -4.66699 40.335 -16.6689 55.002 -36.002s22 -40.666 22 -63.999
s-3.33301 -43.833 -10 -61.5s-15.334 -33.167 -26.001 -46.5c-22 -27.333 -46.667 -43 -74 -47l-49 34l1 12c13.333 7.33301 23.333 20.333 30 39c2 7.33301 3 14.833 3 22.5s-0.833008 14.334 -2.5 20.001s-3.83398 10.834 -6.50098 15.501
c-6 9.33301 -13.667 14.666 -23 15.999l5 45z" />
    <glyph glyph-name="ncommaaccent" unicode="&#x146;" horiz-adv-x="638" 
d="M547 74c9.33301 0 24.002 7.33203 44.002 21.999l14 -35c-20 -28 -49.333 -48.667 -88 -62c-17.333 -6 -37 -9 -59 -9s-39.5 2.5 -52.5 7.5s-22.833 11.833 -29.5 20.5c-11.333 12.667 -17 31 -17 55c0 13.333 1.66699 30.333 5 51l25 136
c10 55.333 14.833 92.333 14.5 111s-0.5 32 -0.5 40s-0.833008 16.333 -2.5 25s-3.83398 15.667 -6.50098 21c-6 9.33301 -14.833 14 -26.5 14s-22.834 -3.16699 -33.501 -9.5s-21 -14.833 -31 -25.5c-21.333 -22 -40 -50 -56 -84l-49 -352h-158l64 470l-52 29l8 43l182 26
l26 -12l-8 -102c48 76 109 114 183 114c86 0 129 -49.333 129 -148c0 -18 -3.33301 -47.667 -10 -89l-14 -84c-2 -12.667 -4.16699 -25.667 -6.5 -39s-4.5 -26.666 -6.5 -39.999c-4.66699 -28.667 -7 -51.5 -7 -68.5s6.33301 -25.5 19 -25.5zM282.002 -18.001
c22 -4.66699 40.335 -16.6689 55.002 -36.002s22 -40.666 22 -63.999s-3.33301 -43.833 -10 -61.5s-15.334 -33.167 -26.001 -46.5c-22 -27.333 -46.667 -43 -74 -47l-49 34l1 12c13.333 7.33301 23.333 20.333 30 39c2 7.33301 3 14.833 3 22.5
s-0.833008 14.334 -2.5 20.001s-3.83398 10.834 -6.50098 15.501c-6 9.33301 -13.667 14.666 -23 15.999l5 45z" />
    <glyph glyph-name="Ncaron" unicode="&#x147;" horiz-adv-x="754" 
d="M-12 52l73 14l90 615l-83 12l8 54h272l181 -486l38 -112l67 532l-84 12l5 54h245l-5 -54l-60 -12l-104 -681h-174l-191 502l-38 124l-61 -560l92 -14l-5 -52h-270zM303 955l60 28l99 -84l157 84l53 -27l-180 -175h-87z" />
    <glyph glyph-name="ncaron" unicode="&#x148;" horiz-adv-x="638" 
d="M547 74c9.33301 0 24.002 7.33203 44.002 21.999l14 -35c-20 -28 -49.333 -48.667 -88 -62c-17.333 -6 -37 -9 -59 -9s-39.5 2.5 -52.5 7.5s-22.833 11.833 -29.5 20.5c-11.333 12.667 -17 31 -17 55c0 13.333 1.66699 30.333 5 51l25 136
c10 55.333 14.833 92.333 14.5 111s-0.5 32 -0.5 40s-0.833008 16.333 -2.5 25s-3.83398 15.667 -6.50098 21c-6 9.33301 -14.833 14 -26.5 14s-22.834 -3.16699 -33.501 -9.5s-21 -14.833 -31 -25.5c-21.333 -22 -40 -50 -56 -84l-49 -352h-158l64 470l-52 29l8 43l182 26
l26 -12l-8 -102c48 76 109 114 183 114c86 0 129 -49.333 129 -148c0 -18 -3.33301 -47.667 -10 -89l-14 -84c-2 -12.667 -4.16699 -25.667 -6.5 -39s-4.5 -26.666 -6.5 -39.999c-4.66699 -28.667 -7 -51.5 -7 -68.5s6.33301 -25.5 19 -25.5zM204.002 786.999l61 28l98 -102
l158 102l52 -28l-180 -183h-86z" />
    <glyph glyph-name="Eng" unicode="&#x14a;" horiz-adv-x="754" 
d="M-12 52l72.999 14l88 615l-83 12l8 54h272l191 -444l34 -122l60 500l-84 12l6 54h245l-6 -54l-60 -12l-101 -681c-9.33301 -62.667 -35.666 -115.667 -78.999 -159c-48 -47.333 -108 -73.333 -180 -78l-23 58c36 6.66699 68.333 25.667 97 57
c30.667 33.333 46 70.333 46 111c0 3.33301 -0.333008 7 -1 11l-228 502l-38 124l-58 -560l92 -14l-5 -52h-270z" />
    <glyph glyph-name="eng" unicode="&#x14b;" horiz-adv-x="629" 
d="M404 421c0 33.333 -13.001 50.002 -39.001 50.002c-27.333 0 -56.666 -22 -87.999 -66c-10.667 -15.333 -21 -33.333 -31 -54l-48 -351h-158l64 470l-52 29l8 43l182 26l26 -12l-8 -102c46.667 75.333 107.667 113 183 113c65.333 0 106.333 -25 123 -75
c4.66699 -14 7 -27.5 7 -40.5s-2 -44.5 -6 -94.5c-13.333 -156.667 -26.666 -268.5 -39.999 -335.5s-27 -117.167 -41 -150.5s-31 -59.5 -51 -78.5s-43.5 -32.167 -70.5 -39.5s-51.833 -11 -74.5 -11s-38.334 0.5 -47.001 1.5s-16.667 2.16699 -24 3.5
c-16 2.66699 -26.667 7 -32 13l18 59c9.33301 -4 22.5 -6 39.5 -6s32 4 45 12s24.167 19.667 33.5 35c16 27.333 28 69.666 36 126.999s14.833 119.5 20.5 186.5s11.167 123.667 16.5 170s8 72.166 8 77.499z" />
    <glyph glyph-name="Omacron" unicode="&#x14c;" horiz-adv-x="732" 
d="M27 305c0 41.333 3.49902 80.501 10.499 117.501s17.667 71.833 32 104.5s32.333 63.167 54 91.5s47.167 52.5 76.5 72.5c62 43.333 136 65.333 222 66c98 0 173 -32.333 225 -97c45.333 -56.667 68 -131.334 68 -224.001c0 -122 -30.333 -224 -91 -306
c-69.333 -93.333 -170.666 -140 -303.999 -140c-98 0 -172.333 30.667 -223 92c-46.667 56.667 -70 131 -70 223zM528.999 430.001c0 177.333 -39.999 266 -119.999 266c-60.667 0 -109.334 -39.333 -146.001 -118c-33.333 -72.667 -50 -159.667 -50 -261
c0 -178 40.333 -267 121 -267c64 0 113 37 147 111c32 68 48 157.667 48 269zM292 936.001h279v-103h-279v103z" />
    <glyph glyph-name="omacron" unicode="&#x14d;" horiz-adv-x="584" 
d="M155 5c-83.333 32 -125 106.667 -125 224c0 92.667 26 170.667 78 234c36 44 81.667 74.667 137 92c28 8.66699 58.667 13 92 13s63.333 -5 90 -15s49 -24.667 67 -44c38.667 -41.333 58 -101.333 58 -180c0 -92.667 -26 -170.667 -78 -234
c-36.667 -44 -82.667 -74.667 -138 -92c-28 -8.66699 -58.5 -13 -91.5 -13s-62.833 5 -89.5 15zM240 62c8 -6 18.502 -9.1709 31.502 -9.50391s25 3.83398 36 12.501s20.667 20.334 29 35.001s15.166 31.667 20.499 51c14 48 20.667 105 20 171
c0 96 -11.333 152.667 -34 170c-7.33301 5.33301 -17 8 -29 8s-23.833 -4.16699 -35.5 -12.5s-21.834 -19.666 -30.501 -33.999s-15.667 -31.166 -21 -50.499c-15.333 -50 -23 -106.667 -23 -170c0 -96 12 -153 36 -171zM192.002 787.996h279v-102h-279v102z" />
    <glyph glyph-name="Obreve" unicode="&#x14e;" horiz-adv-x="732" 
d="M27 305c0 41.333 3.49902 80.501 10.499 117.501s17.667 71.833 32 104.5s32.333 63.167 54 91.5s47.167 52.5 76.5 72.5c62 43.333 136 65.333 222 66c98 0 173 -32.333 225 -97c45.333 -56.667 68 -131.334 68 -224.001c0 -122 -30.333 -224 -91 -306
c-69.333 -93.333 -170.666 -140 -303.999 -140c-98 0 -172.333 30.667 -223 92c-46.667 56.667 -70 131 -70 223zM528.999 430.001c0 177.333 -39.999 266 -119.999 266c-60.667 0 -109.334 -39.333 -146.001 -118c-33.333 -72.667 -50 -159.667 -50 -261
c0 -178 40.333 -267 121 -267c64 0 113 37 147 111c32 68 48 157.667 48 269zM368 983.001l-1 -21.999c0 -18 3 -30.333 9 -37c10.667 -14 26.834 -21 48.501 -21s37.667 2.33301 48 7s18.166 11 23.499 19c8 11.333 12.333 29.333 13 54h89
c0 -2.66699 0.333008 -5.33398 1 -8.00098v-8c0 -44.667 -13.333 -82.667 -40 -114c-31.333 -37.333 -75 -56 -131 -56c-53.333 0 -93.333 16.667 -120 50c-22 26.667 -33 61 -33 103c0 8.66699 1 19.667 3 33h90z" />
    <glyph glyph-name="obreve" unicode="&#x14f;" horiz-adv-x="584" 
d="M155 5c-83.333 32 -125 106.667 -125 224c0 92.667 26 170.667 78 234c36 44 81.667 74.667 137 92c28 8.66699 58.667 13 92 13s63.333 -5 90 -15s49 -24.667 67 -44c38.667 -41.333 58 -101.333 58 -180c0 -92.667 -26 -170.667 -78 -234
c-36.667 -44 -82.667 -74.667 -138 -92c-28 -8.66699 -58.5 -13 -91.5 -13s-62.833 5 -89.5 15zM240 62c8 -6 18.502 -9.1709 31.502 -9.50391s25 3.83398 36 12.501s20.667 20.334 29 35.001s15.166 31.667 20.499 51c14 48 20.667 105 20 171
c0 96 -11.333 152.667 -34 170c-7.33301 5.33301 -17 8 -29 8s-23.833 -4.16699 -35.5 -12.5s-21.834 -19.666 -30.501 -33.999s-15.667 -31.166 -21 -50.499c-15.333 -50 -23 -106.667 -23 -170c0 -96 12 -153 36 -171zM289.002 820.996l0.000976562 -22
c0 -18 2.66699 -30.667 8 -38c10.667 -14 27 -20.833 49 -20.5s38.167 2.83301 48.5 7.5s18.166 10.667 23.499 18c8 11.333 12.333 29.666 13 54.999h89v-9v-8c0 -44.667 -13 -82.667 -39 -114c-31.333 -37.333 -75.333 -55.666 -132 -54.999c-53.333 0 -93 16.333 -119 49
c-22 27.333 -33 62 -33 104c0 8 0.666992 19 2 33h90z" />
    <glyph glyph-name="Ohungarumlaut" unicode="&#x150;" horiz-adv-x="732" 
d="M27 305c0 41.333 3.49902 80.501 10.499 117.501s17.667 71.833 32 104.5s32.333 63.167 54 91.5s47.167 52.5 76.5 72.5c62 43.333 136 65.333 222 66c98 0 173 -32.333 225 -97c45.333 -56.667 68 -131.334 68 -224.001c0 -122 -30.333 -224 -91 -306
c-69.333 -93.333 -170.666 -140 -303.999 -140c-98 0 -172.333 30.667 -223 92c-46.667 56.667 -70 131 -70 223zM528.999 430.001c0 177.333 -39.999 266 -119.999 266c-60.667 0 -109.334 -39.333 -146.001 -118c-33.333 -72.667 -50 -159.667 -50 -261
c0 -178 40.333 -267 121 -267c64 0 113 37 147 111c32 68 48 157.667 48 269zM478 803.001l137.001 179.999l78 -65c-18.667 -31.333 -39.334 -57.666 -62.001 -78.999c-42 -39.333 -77 -63.333 -105 -72zM238.001 803l138.001 179.999l80 -64c-12 -28 -36 -58.333 -72 -91
c-34.667 -31.333 -66.334 -51.666 -95.001 -60.999z" />
    <glyph glyph-name="ohungarumlaut" unicode="&#x151;" horiz-adv-x="584" 
d="M155 5c-83.333 32 -125 106.667 -125 224c0 92.667 26 170.667 78 234c36 44 81.667 74.667 137 92c28 8.66699 58.667 13 92 13s63.333 -5 90 -15s49 -24.667 67 -44c38.667 -41.333 58 -101.333 58 -180c0 -92.667 -26 -170.667 -78 -234
c-36.667 -44 -82.667 -74.667 -138 -92c-28 -8.66699 -58.5 -13 -91.5 -13s-62.833 5 -89.5 15zM240 62c8 -6 18.502 -9.1709 31.502 -9.50391s25 3.83398 36 12.501s20.667 20.334 29 35.001s15.166 31.667 20.499 51c14 48 20.667 105 20 171
c0 96 -11.333 152.667 -34 170c-7.33301 5.33301 -17 8 -29 8s-23.833 -4.16699 -35.5 -12.5s-21.834 -19.666 -30.501 -33.999s-15.667 -31.166 -21 -50.499c-15.333 -50 -23 -106.667 -23 -170c0 -96 12 -153 36 -171zM390.002 631.996l130 219l80 -56
c-6.66699 -26 -28.667 -61.667 -66 -107c-38 -46 -69.333 -75 -94 -87zM154.002 631.996l127.001 219l84 -58c-7.33301 -26.667 -29.333 -62 -66 -106c-38.667 -45.333 -70.334 -74 -95.001 -86z" />
    <glyph glyph-name="OE" unicode="&#x152;" horiz-adv-x="1142" 
d="M557 81c-59.333 -60 -139.999 -90.333 -241.999 -91c-98 0 -171.667 30.667 -221 92c-44.667 56 -67 132.333 -67 229c0 122 31.333 224.333 94 307c43.333 58 101 98.333 173 121c36.667 12 77.667 18 123 18c99.333 0 169.666 -35.667 210.999 -107l12 97h470l-17 -181
h-104l-16 110l-171 12l-32 -258l216 12l-11 -107l-215 13l-38 -282l234 17l57 146l104 -7l-34 -222h-536zM524.001 430c0 177.333 -39.999 266 -119.999 266c-60.667 0 -109.334 -39.333 -146.001 -118c-33.333 -72.667 -50 -159.667 -50 -261c0 -178 40.333 -267 121 -267
c64 0 113.333 37 148 111c31.333 68 47 157.667 47 269z" />
    <glyph glyph-name="oe" unicode="&#x153;" horiz-adv-x="851" 
d="M426 49c-52 -39.333 -112.664 -59.001 -181.997 -59.001c-102.667 0 -168.667 43 -198 129c-11.333 32.667 -17 66.167 -17 100.5s2.66699 65 8 92s14 53.667 26 80s26.833 50.333 44.5 72s38.167 40.167 61.5 55.5c49.333 32.667 107.666 49 174.999 49
s118.666 -22 153.999 -66c54.667 44 117.667 66 189 66c79.333 0 129.333 -24.667 150 -74c6.66699 -16.667 10 -36.167 10 -58.5s-4.16699 -43.666 -12.5 -63.999s-20.333 -38.666 -36 -54.999s-33.834 -30.333 -54.501 -42s-42.334 -21.167 -65.001 -28.5
c-45.333 -14.667 -90 -22.667 -134 -24c0 -50.667 8.16699 -87.334 24.5 -110.001s38.5 -34 66.5 -34c58 0 106.667 25.333 146 76l31 -50c-30 -47.333 -78.333 -81.333 -145 -102c-25.333 -8 -53.666 -12 -84.999 -12c-68 0 -120.333 19.667 -157 59zM650.003 499.999
c-60.667 0 -95.667 -73 -105 -219c34.667 2 66.667 15.667 96 41c33.333 28.667 49.833 65.5 49.5 110.5s-13.833 67.5 -40.5 67.5zM237.003 61.999c8 -6.66699 18.5 -9.99902 31.5 -9.99902s25.167 4 36.5 12s21 19 29 33c16.667 27.333 28.667 64.666 36 111.999v1v15
c0 19.333 2.33301 41.666 7 66.999v32.5c0 15.667 -0.5 35 -1.5 58s-3.83301 43.5 -8.5 61.5c-9.33301 37.333 -26 56 -50 56c-40.667 0 -70.667 -33 -90 -99c-15.333 -48 -23 -104.667 -23 -170c-0.666992 -93.333 10.333 -149.666 33 -168.999z" />
    <glyph glyph-name="Racute" unicode="&#x154;" horiz-adv-x="708" 
d="M410 755c171.333 0 257.003 -62.334 257.003 -187.001c0 -79.333 -30.333 -141.666 -91 -186.999c-19.333 -14.667 -41.333 -27 -66 -37c14 -16.667 33 -58.334 57 -125.001c5.33301 -15.333 11.333 -31.333 18 -48l22 -47c15.333 -33.333 31.666 -54.666 48.999 -63.999
c10 -5.33301 22.667 -8 38 -8l-5 -52h-203c-10.667 0 -25.334 30.667 -44.001 92c-42.667 135.333 -70.334 212.333 -83.001 231h-35h-59l-33 -257l90 -14l-3 -52h-330l5 52l68 14l81 615l-71 12l7 54h151c19.333 0 41.333 1 66 3c46 3.33301 84 5 114 5zM274.003 390.999
c4 0 9.66699 -0.333984 17 -1.00098h21c7.33301 0 14 -0.333008 20 -1h15c46.667 0 83 16.333 109 49c24.667 30.667 36.667 72.667 36 126c0 46.667 -11.333 79.834 -34 99.501s-52 29.5 -88 29.5c-8 0 -15.667 -0.333008 -23 -1l-19 -2
c-5.33301 0 -10.333 -0.666992 -15 -2zM381.003 815.998l134 167l92 -90c-12 -22.667 -37.667 -47.667 -77 -75c-34.667 -24.667 -65.667 -41.667 -93 -51z" />
    <glyph glyph-name="racute" unicode="&#x155;" horiz-adv-x="411" 
d="M255 423c28 96.667 76 145 144 145c12.667 0 24.334 -3.33301 35.001 -10l-34 -174c-8.66699 10 -24.334 15 -47.001 15c-39.333 0 -74.333 -9.33301 -105 -28l-51 -371h-158l65 470l-53 29l9 43l160 26l26 -12zM193 641l155 210l94 -91
c-9.33301 -18 -37.333 -46 -84 -84c-50 -40.667 -88 -65.667 -114 -75z" />
    <glyph glyph-name="Rcommaaccent" unicode="&#x156;" horiz-adv-x="708" 
d="M410 755c171.333 0 257.003 -62.334 257.003 -187.001c0 -79.333 -30.333 -141.666 -91 -186.999c-19.333 -14.667 -41.333 -27 -66 -37c14 -16.667 33 -58.334 57 -125.001c5.33301 -15.333 11.333 -31.333 18 -48l22 -47c15.333 -33.333 31.666 -54.666 48.999 -63.999
c10 -5.33301 22.667 -8 38 -8l-5 -52h-203c-10.667 0 -25.334 30.667 -44.001 92c-42.667 135.333 -70.334 212.333 -83.001 231h-35h-59l-33 -257l90 -14l-3 -52h-330l5 52l68 14l81 615l-71 12l7 54h151c19.333 0 41.333 1 66 3c46 3.33301 84 5 114 5zM274.003 390.999
c4 0 9.66699 -0.333984 17 -1.00098h21c7.33301 0 14 -0.333008 20 -1h15c46.667 0 83 16.333 109 49c24.667 30.667 36.667 72.667 36 126c0 46.667 -11.333 79.834 -34 99.501s-52 29.5 -88 29.5c-8 0 -15.667 -0.333008 -23 -1l-19 -2
c-5.33301 0 -10.333 -0.666992 -15 -2zM362.003 -18.002c22 -4.66699 40.335 -16.6689 55.002 -36.002s22 -40.666 22 -63.999s-3.33301 -43.833 -10 -61.5s-15.334 -33.167 -26.001 -46.5c-22 -27.333 -46.667 -43 -74 -47l-49 34l1 12c13.333 7.33301 23.333 20.333 30 39
c2 7.33301 3 14.833 3 22.5s-0.833008 14.334 -2.5 20.001s-3.83398 10.834 -6.50098 15.501c-6 9.33301 -13.667 14.666 -23 15.999l5 45z" />
    <glyph glyph-name="rcommaaccent" unicode="&#x157;" horiz-adv-x="411" 
d="M255 423c28 96.667 76 145 144 145c12.667 0 24.334 -3.33301 35.001 -10l-34 -174c-8.66699 10 -24.334 15 -47.001 15c-39.333 0 -74.333 -9.33301 -105 -28l-51 -371h-158l65 470l-53 29l9 43l160 26l26 -12zM113 -18c22 -4.66699 40.335 -16.6689 55.002 -36.002
s22 -40.666 22 -63.999s-3.33301 -43.833 -10 -61.5s-15.334 -33.167 -26.001 -46.5c-22 -27.333 -46.667 -43 -74 -47l-49 34l1 12c13.333 7.33301 23.333 20.333 30 39c2 7.33301 3 14.833 3 22.5s-0.833008 14.334 -2.5 20.001s-3.83398 10.834 -6.50098 15.501
c-6 9.33301 -13.667 14.666 -23 15.999l5 45z" />
    <glyph glyph-name="Rcaron" unicode="&#x158;" horiz-adv-x="708" 
d="M410 755c171.333 0 257.003 -62.334 257.003 -187.001c0 -79.333 -30.333 -141.666 -91 -186.999c-19.333 -14.667 -41.333 -27 -66 -37c14 -16.667 33 -58.334 57 -125.001c5.33301 -15.333 11.333 -31.333 18 -48l22 -47c15.333 -33.333 31.666 -54.666 48.999 -63.999
c10 -5.33301 22.667 -8 38 -8l-5 -52h-203c-10.667 0 -25.334 30.667 -44.001 92c-42.667 135.333 -70.334 212.333 -83.001 231h-35h-59l-33 -257l90 -14l-3 -52h-330l5 52l68 14l81 615l-71 12l7 54h151c19.333 0 41.333 1 66 3c46 3.33301 84 5 114 5zM274.003 390.999
c4 0 9.66699 -0.333984 17 -1.00098h21c7.33301 0 14 -0.333008 20 -1h15c46.667 0 83 16.333 109 49c24.667 30.667 36.667 72.667 36 126c0 46.667 -11.333 79.834 -34 99.501s-52 29.5 -88 29.5c-8 0 -15.667 -0.333008 -23 -1l-19 -2
c-5.33301 0 -10.333 -0.666992 -15 -2zM280.003 954.998l60 28l99 -84l157 84l53 -27l-180 -175h-87z" />
    <glyph glyph-name="rcaron" unicode="&#x159;" horiz-adv-x="411" 
d="M255 423c28 96.667 76 145 144 145c12.667 0 24.334 -3.33301 35.001 -10l-34 -174c-8.66699 10 -24.334 15 -47.001 15c-39.333 0 -74.333 -9.33301 -105 -28l-51 -371h-158l65 470l-53 29l9 43l160 26l26 -12zM82 787l61 28l98 -102l158 102l52 -28l-180 -183h-86z" />
    <glyph glyph-name="Sacute" unicode="&#x15a;" horiz-adv-x="564" 
d="M37 192l99.999 0.000976562l6 -108c28 -21.333 57.667 -32 89 -32s55 2.5 71 7.5s28.667 12.167 38 21.5c16.667 16 25 39.333 25 70c0 30 -9.66699 56.667 -29 80c-17.333 21.333 -43.166 43.166 -77.499 65.499s-61.333 41.5 -81 57.5s-36.5 33.333 -50.5 52
c-31.333 41.333 -47 82.5 -47 123.5s7 75.167 21 102.5s33.333 50 58 68c50 37.333 116.333 56 199 56c88.667 0 153.667 -12 195 -36l-27 -147h-93l-15 96c-22.667 16.667 -50 25.334 -82 26.001c-50.667 0 -82.334 -17.333 -95.001 -52c-4 -10.667 -6 -23.5 -6 -38.5
s2.66699 -30 8 -45s14 -29.167 26 -42.5c19.333 -23.333 54 -51 104 -83c101.333 -64.667 152 -137.334 152 -218.001c0 -63.333 -23.333 -115.666 -70 -156.999c-52 -46.667 -124 -70 -216 -70c-77.333 0 -144.666 10.667 -201.999 32
c-14.667 5.33301 -25 10.666 -31 15.999zM306.999 816.001l134 167l92 -90c-12 -22.667 -37.667 -47.667 -77 -75c-34.667 -24.667 -65.667 -41.667 -93 -51z" />
    <glyph glyph-name="sacute" unicode="&#x15b;" horiz-adv-x="426" 
d="M383 449c-29.333 32.667 -62.332 49 -98.999 49c-35.333 0 -59.333 -10.667 -72 -32c-4 -7.33301 -6 -16 -6 -26c0 -18.667 5.33301 -34 16 -46c15.333 -17.333 34.333 -34.333 57 -51s40 -30.667 52 -42s22.333 -24 31 -38c20 -30.667 30 -63 30 -97
s-6.66699 -61.833 -20 -83.5s-31 -39.167 -53 -52.5c-42 -26.667 -95.667 -40 -161 -40c-48.667 0 -93 7.66699 -133 23c-11.333 4 -19.333 7.66699 -24 11l24 98c23.333 -23.333 53 -40.333 89 -51c13.333 -4 25.666 -6 36.999 -6s21.666 1.16699 30.999 3.5
s17.666 5.83301 24.999 10.5c16.667 10.667 25 26 25 46c0 18 -5.66699 33.667 -17 47c-16 18.667 -34.667 35.5 -56 50.5s-37.666 27.5 -48.999 37.5s-21.666 21.667 -30.999 35c-20.667 30.667 -31 63 -31 97s5.83301 61.333 17.5 82s27.834 38 48.501 52
c41.333 28 95.666 42 162.999 42c38.667 0 68.5 -2.5 89.5 -7.5s33.5 -8.5 37.5 -10.5zM217.001 641l155 210l94 -91c-9.33301 -18 -37.333 -46 -84 -84c-50 -40.667 -88 -65.667 -114 -75z" />
    <glyph glyph-name="Scircumflex" unicode="&#x15c;" horiz-adv-x="564" 
d="M37 192l99.999 0.000976562l6 -108c28 -21.333 57.667 -32 89 -32s55 2.5 71 7.5s28.667 12.167 38 21.5c16.667 16 25 39.333 25 70c0 30 -9.66699 56.667 -29 80c-17.333 21.333 -43.166 43.166 -77.499 65.499s-61.333 41.5 -81 57.5s-36.5 33.333 -50.5 52
c-31.333 41.333 -47 82.5 -47 123.5s7 75.167 21 102.5s33.333 50 58 68c50 37.333 116.333 56 199 56c88.667 0 153.667 -12 195 -36l-27 -147h-93l-15 96c-22.667 16.667 -50 25.334 -82 26.001c-50.667 0 -82.334 -17.333 -95.001 -52c-4 -10.667 -6 -23.5 -6 -38.5
s2.66699 -30 8 -45s14 -29.167 26 -42.5c19.333 -23.333 54 -51 104 -83c101.333 -64.667 152 -137.334 152 -218.001c0 -63.333 -23.333 -115.666 -70 -156.999c-52 -46.667 -124 -70 -216 -70c-77.333 0 -144.666 10.667 -201.999 32
c-14.667 5.33301 -25 10.666 -31 15.999zM184.999 809.001l180 174h87l102 -174l-60 -28l-99 101l-157 -101z" />
    <glyph glyph-name="scircumflex" unicode="&#x15d;" horiz-adv-x="426" 
d="M383 449c-29.333 32.667 -62.332 49 -98.999 49c-35.333 0 -59.333 -10.667 -72 -32c-4 -7.33301 -6 -16 -6 -26c0 -18.667 5.33301 -34 16 -46c15.333 -17.333 34.333 -34.333 57 -51s40 -30.667 52 -42s22.333 -24 31 -38c20 -30.667 30 -63 30 -97
s-6.66699 -61.833 -20 -83.5s-31 -39.167 -53 -52.5c-42 -26.667 -95.667 -40 -161 -40c-48.667 0 -93 7.66699 -133 23c-11.333 4 -19.333 7.66699 -24 11l24 98c23.333 -23.333 53 -40.333 89 -51c13.333 -4 25.666 -6 36.999 -6s21.666 1.16699 30.999 3.5
s17.666 5.83301 24.999 10.5c16.667 10.667 25 26 25 46c0 18 -5.66699 33.667 -17 47c-16 18.667 -34.667 35.5 -56 50.5s-37.666 27.5 -48.999 37.5s-21.666 21.667 -30.999 35c-20.667 30.667 -31 63 -31 97s5.83301 61.333 17.5 82s27.834 38 48.501 52
c41.333 28 95.666 42 162.999 42c38.667 0 68.5 -2.5 89.5 -7.5s33.5 -8.5 37.5 -10.5zM93.001 633l180 182h87l102 -182l-60 -29l-99 95l-157 -94z" />
    <glyph glyph-name="Scedilla" unicode="&#x15e;" horiz-adv-x="576" 
d="M71 -148c10 -5.33301 21.835 -8 35.502 -8s25.834 1.33301 36.501 4s20 7 28 13c18.667 14 28 40.667 28 80c0 16 -1.33301 32.667 -4 50c-64.667 6 -117.334 17 -158.001 33c-11.333 4.66699 -19.333 9 -24 13l29 155h101l5 -108c28 -21.333 57.833 -32 89.5 -32
s55.5 2.5 71.5 7.5s28.667 12.167 38 21.5c16.667 16 25 39.333 25 70c0 30 -9.66699 56.667 -29 80c-17.333 21.333 -43.333 43.166 -78 65.499s-61.667 41.5 -81 57.5s-36 33.333 -50 52c-31.333 41.333 -47 82.5 -47 123.5s6.83301 75.167 20.5 102.5s33.167 50 58.5 68
c50 37.333 116.333 56 199 56c88.667 0 153.667 -12 195 -36l-27 -147h-93l-15 96c-22.667 16.667 -50 25.334 -82 26.001c-50.667 0 -82.334 -17.333 -95.001 -52c-4 -10.667 -6 -23.5 -6 -38.5s2.66699 -30 8 -45s13.666 -29.167 24.999 -42.5
c19.333 -23.333 54.333 -51 105 -83c101.333 -64.667 152 -137.334 152 -218.001c0 -58.667 -20.333 -108.667 -61 -150c-45.333 -44.667 -109 -70 -191 -76c10.667 -35.333 16 -70.666 16 -105.999c0 -80 -48.667 -120 -146 -120c-26.667 0 -48.667 1.66699 -66 5
s-27.333 6 -30 8z" />
    <glyph glyph-name="scedilla" unicode="&#x15f;" horiz-adv-x="426" 
d="M20 -148c10 -5.33301 21.8359 -8 35.5029 -8s25.834 1.33301 36.501 4s20 7 28 13c18 14 27 41.333 27 82c0 16.667 -1 32.667 -3 48c-45.333 2 -86 9.33301 -122 22c-10 3.33301 -17 7 -21 11l24 98c23.333 -23.333 53 -40.333 89 -51c13.333 -4 25.666 -6 36.999 -6
s21.666 1.16699 30.999 3.5s17.666 5.83301 24.999 10.5c16.667 10.667 25 26 25 46c0 18 -5.66699 33.667 -17 47c-16 18.667 -34.667 35.5 -56 50.5s-37.666 27.5 -48.999 37.5s-21.666 21.667 -30.999 35c-20.667 30.667 -31 63 -31 97s5.83301 61.333 17.5 82
s27.834 38 48.501 52c41.333 28 95.666 42 162.999 42c38.667 0 68.5 -2.5 89.5 -7.5s33.5 -8.5 37.5 -10.5l-21 -101c-29.333 32.667 -62.333 49 -99 49c-35.333 0 -59.333 -10.667 -72 -32c-4 -7.33301 -6 -16 -6 -26c0 -18.667 5.33301 -34 16 -46
c15.333 -17.333 34.333 -34.333 57 -51s40 -30.667 52 -42s22.333 -24 31 -38c20 -30.667 30 -61.5 30 -92.5s-4.33301 -55.833 -13 -74.5s-20.667 -34.667 -36 -48c-28.667 -26 -67.334 -43.333 -116.001 -52c12 -38 18 -75.333 18 -112c0 -80 -48.667 -120 -146 -120
c-26.667 0 -48.834 1.66699 -66.501 5s-27.834 6 -30.501 8z" />
    <glyph glyph-name="Scaron" unicode="&#x160;" horiz-adv-x="564" 
d="M37 192l99.999 0.000976562l6 -108c28 -21.333 57.667 -32 89 -32s55 2.5 71 7.5s28.667 12.167 38 21.5c16.667 16 25 39.333 25 70c0 30 -9.66699 56.667 -29 80c-17.333 21.333 -43.166 43.166 -77.499 65.499s-61.333 41.5 -81 57.5s-36.5 33.333 -50.5 52
c-31.333 41.333 -47 82.5 -47 123.5s7 75.167 21 102.5s33.333 50 58 68c50 37.333 116.333 56 199 56c88.667 0 153.667 -12 195 -36l-27 -147h-93l-15 96c-22.667 16.667 -50 25.334 -82 26.001c-50.667 0 -82.334 -17.333 -95.001 -52c-4 -10.667 -6 -23.5 -6 -38.5
s2.66699 -30 8 -45s14 -29.167 26 -42.5c19.333 -23.333 54 -51 104 -83c101.333 -64.667 152 -137.334 152 -218.001c0 -63.333 -23.333 -115.666 -70 -156.999c-52 -46.667 -124 -70 -216 -70c-77.333 0 -144.666 10.667 -201.999 32
c-14.667 5.33301 -25 10.666 -31 15.999zM205.999 955.001l60 28l99 -84l157 84l53 -27l-180 -175h-87z" />
    </font>
</defs>
</svg>
