<?xml version="1.0" standalone="no"?>
<!DOCTYPE svg PUBLIC "-//W3C//DTD SVG 1.1//EN" "http://www.w3.org/Graphics/SVG/1.1/DTD/svg11.dtd" >
<svg version="1.1" xmlns="http://www.w3.org/2000/svg">
<metadata>
Created by FontForge 20120731 at Fri Aug  1 16:50:33 2014

Copyright (c) 2010-13 by Vernon Adams
</metadata>
<defs>
<font id="oswald" horiz-adv-x="379" >
  <font-face 
    font-family="Oswald"
    font-weight="200"
    font-stretch="normal"
    units-per-em="1000"
    panose-1="2 0 3 3 0 0 0 0 0 0"
    ascent="800"
    descent="-200"
    x-height="578"
    cap-height="810"
    bbox="-94 -251 899 1073"
    underline-thickness="10"
    underline-position="-32"
    unicode-range="U+0020-FB04"
  />
<missing-glyph horiz-adv-x="365" 
d="M33 0v667h266v-667h-266zM66 33h200v600h-200v-600z" />
    <glyph glyph-name=".notdef" horiz-adv-x="365" 
d="M33 0v667h266v-667h-266zM66 33h200v600h-200v-600z" />
    <glyph glyph-name="space" unicode=" " horiz-adv-x="189" 
 />
    <glyph glyph-name="exclam" unicode="!" horiz-adv-x="197" 
d="M89 174l-20 636h60l-21 -636h-19zM68 0v74h60v-74h-60z" />
    <glyph glyph-name="quotedbl" unicode="&#x22;" horiz-adv-x="341" 
d="M211 580v230h54l-25 -230h-29zM79 580v230h55l-26 -230h-29z" />
    <glyph glyph-name="numbersign" unicode="#" horiz-adv-x="453" 
d="M167 331h104l28 168h-105zM64 0l46 292h-63v39h70l27 168h-79v39h85l44 272h50l-43 -272h104l44 272h50l-44 -272h58v-39h-63l-28 -168h72v-39h-78l-47 -292h-50l47 292h-105l-47 -292h-50z" />
    <glyph glyph-name="dollar" unicode="$" horiz-adv-x="450" 
d="M232 -94l-0.00195312 83.9971c-116 2 -179.333 72 -190 210l47 15c2.66699 -23.333 6.16699 -43.5 10.5 -60.5s10.166 -33.333 17.499 -49s16.333 -28.5 27 -38.5s23.834 -17.833 39.501 -23.5s33.834 -8.5 54.501 -8.5c86 0 129 43.333 129 130
c0 33.333 -8.33301 63.666 -25 90.999s-43.334 59.333 -80.001 96l-148 147c-46.667 46.667 -70.334 98 -71.001 154c0 50.667 14.833 90.334 44.5 119.001s69.834 44 120.501 46v95h30v-95c52.667 -2.66699 93.334 -19.5 122.001 -50.5s45 -81.5 49 -151.5l-46 -11
c-5.33301 58.667 -18.166 101.667 -38.499 129s-52.833 41 -97.5 41h-5c-39.333 -0.666992 -70.666 -10.667 -93.999 -30s-35 -48.666 -35 -87.999c0 -21.333 4.5 -41.666 13.5 -60.999s24.167 -40 45.5 -62l146 -144c37.333 -37.333 66.666 -73.666 87.999 -108.999
s32 -73 32 -113c0 -54 -14 -96 -42 -126s-66.333 -47 -115 -51v-85h-29z" />
    <glyph glyph-name="percent" unicode="%" horiz-adv-x="635" 
d="M156 0l277 820h48l-275 -820h-50zM492 -6c-68 0 -102 45.333 -102 136v142c0 89.333 34 134 102 134s102 -44.333 102 -133v-144c0 -90 -34 -135 -102 -135zM492 35c36 0 53.668 30.667 53.001 92v147c0 60 -17.833 90 -53.5 90s-53.5 -30 -53.5 -90v-147
c0 -30 4.16699 -52.833 12.5 -68.5s22.166 -23.5 41.499 -23.5zM145.001 417c-68 0 -102.333 45.667 -103 137v142c0 89.333 34.333 134 103 134c68 0 101.667 -44.333 101 -133v-144c0.666992 -90.667 -33 -136 -101 -136zM145.001 459c36 0 53.667 30.668 53 92.001v147
c0 60 -17.667 90 -53 90c-19.333 0 -33.166 -7.83301 -41.499 -23.5s-12.5 -37.834 -12.5 -66.501v-147c0 -30 4.16699 -52.833 12.5 -68.5s22.166 -23.5 41.499 -23.5z" />
    <glyph glyph-name="ampersand" unicode="&#x26;" horiz-adv-x="601" 
d="M228 447c46 42.667 82.001 83 108.001 121s39 75.333 39 112c0 30 -10 53.167 -30 69.5s-47.333 24.5 -82 24.5c-38.667 0 -67.834 -11.167 -87.501 -33.5s-29.5 -51.166 -29.5 -86.499c0 -28.667 6.16699 -57.834 18.5 -87.501s33.5 -69.5 63.5 -119.5zM250.001 34
c26.667 0 51.335 5.49805 74.002 16.498s45.667 28.5 69 52.5l-178 279c-38.667 -41.333 -65.834 -78 -81.501 -110s-23.5 -64.667 -23.5 -98c0 -14 1.5 -27.167 4.5 -39.5s8 -24.666 15 -36.999s15.667 -23.166 26 -32.499s23.666 -16.833 39.999 -22.5
s34.5 -8.5 54.5 -8.5zM250.002 -11.002c-41.333 0 -77.0029 8.83203 -107.003 26.499s-51.833 40.167 -65.5 67.5s-20.5 58 -20.5 92c0 38 10.167 76.167 30.5 114.5s55.5 81.833 105.5 130.5c-38 61.333 -64 107.333 -78 138s-21 62.334 -21 95.001
c0 53.333 15.333 94.333 46 123s72.334 43 125.001 43c50.667 0 90.334 -12.667 119.001 -38s43 -59.666 43 -102.999c0 -38.667 -15.167 -79.334 -45.5 -122.001s-75.166 -90 -134.499 -142l176 -278c21.333 26.667 39.5 61.5 54.5 104.5s22.833 79.833 23.5 110.5h49
c0 -36.667 -8.83301 -79 -26.5 -127s-41.167 -88.667 -70.5 -122c17.333 -22.667 33.5 -38.167 48.5 -46.5s32.167 -12.5 51.5 -12.5v-49c-8 0 -15.333 0.666992 -22 2c-40 4.66699 -76.667 29 -110 73c-20.667 -23.333 -45.667 -42.5 -75 -57.5s-61.333 -22.5 -96 -22.5z
" />
    <glyph glyph-name="quotesingle" unicode="'" horiz-adv-x="237" 
d="M79 580v230h55l-26 -230h-29z" />
    <glyph glyph-name="parenleft" unicode="(" horiz-adv-x="266" 
d="M235 -147c-18.667 1.33301 -35.1689 5.33691 -49.502 12.0039s-26.833 17.167 -37.5 31.5s-19.834 28.666 -27.501 42.999s-13.834 34.166 -18.501 59.499s-8.5 47.833 -11.5 67.5s-5 46.834 -6 81.501s-1.66699 63.834 -2 87.501s-0.5 56.167 -0.5 97.5
s0.166992 74.166 0.5 98.499s1 54 2 89s3 62.667 6 83s6.83301 43.166 11.5 68.499s10.834 45.166 18.501 59.499s16.834 28.333 27.501 42s23.334 23.667 38.001 30s31 10.166 49 11.499v-39c-10 -1.33301 -19 -4.16602 -27 -8.49902s-15.167 -10.666 -21.5 -18.999
s-12 -16.833 -17 -25.5s-9.33301 -20.334 -13 -35.001s-6.66699 -28.167 -9 -40.5s-4.33301 -28.666 -6 -48.999s-3 -38 -4 -53s-1.66699 -35.167 -2 -60.5s-0.666016 -46.333 -0.999023 -63s-0.5 -39.334 -0.5 -68.001v-21v-26c0 -35.333 0.166992 -63.333 0.5 -84
s0.833008 -45.834 1.5 -75.501s2 -53.167 4 -70.5s4.5 -36.833 7.5 -58.5s7 -38.834 12 -51.501s11 -25 18 -37s15.333 -21.167 25 -27.5s20.5 -10.166 32.5 -11.499v-38z" />
    <glyph glyph-name="parenright" unicode=")" horiz-adv-x="254" 
d="M31 -147l0.000976562 38c10 1.33301 19 4.16602 27 8.49902s15.167 10.666 21.5 18.999s12 16.833 17 25.5s9.33301 20.334 13 35.001s6.83398 28.167 9.50098 40.5s4.66699 28.833 6 49.5s2.5 38.334 3.5 53.001s1.66699 34.667 2 60s0.666016 46.5 0.999023 63.5
s0.5 39.833 0.5 68.5v20v20c0 36.667 -0.166992 65.167 -0.5 85.5s-0.833008 45.833 -1.5 76.5s-1.83398 54.5 -3.50098 71.5s-4.16699 36.667 -7.5 59s-7.5 39.833 -12.5 52.5s-11 25.167 -18 37.5s-15.333 21.666 -25 27.999s-20.5 10.166 -32.5 11.499v39
c18.667 -0.666992 35.334 -4.33398 50.001 -11.001s27.167 -16.834 37.5 -30.501s19.333 -27.667 27 -42s13.834 -34.166 18.501 -59.499s8.5 -48.166 11.5 -68.499s5.16699 -47.833 6.5 -82.5s2.16602 -64.167 2.49902 -88.5s0.5 -57.166 0.5 -98.499
s-0.166992 -74 -0.5 -98s-1.16602 -53.167 -2.49902 -87.5s-3.5 -61.5 -6.5 -81.5s-6.83301 -42.667 -11.5 -68s-10.834 -45.166 -18.501 -59.499s-16.667 -28.5 -27 -42.5s-22.833 -24.5 -37.5 -31.5s-31.334 -11.167 -50.001 -12.5z" />
    <glyph glyph-name="asterisk" unicode="*" horiz-adv-x="356" 
d="M100 492l-34 22l92 120l-129 52l14 35l125 -60l-6 148h43l-8 -148l123 60l14 -35l-128 -52l92 -122l-34 -20l-82 128z" />
    <glyph glyph-name="plus" unicode="+" horiz-adv-x="363" 
d="M161 240v156h-139v40h139v152h41v-152h139v-40h-139v-156h-41z" />
    <glyph glyph-name="comma" unicode="," horiz-adv-x="177" 
d="M69 -107l-14.001 23c16.667 12.667 27.834 24.667 33.501 36s8.5 27.333 8.5 48h-36v105h64v-94c0 -31.333 -4 -55.333 -12 -72s-22.667 -32 -44 -46z" />
    <glyph glyph-name="hyphen" unicode="-" horiz-adv-x="283" 
d="M39 319v44h206v-44h-206z" />
    <glyph glyph-name="period" unicode="." horiz-adv-x="177" 
d="M66 0v104h59v-104h-59z" />
    <glyph glyph-name="slash" unicode="/" horiz-adv-x="329" 
d="M21 0l239 810h47l-238 -810h-48z" />
    <glyph glyph-name="zero" unicode="0" horiz-adv-x="492" 
d="M246 -11c-28.667 0 -54 3.99902 -76 11.999s-40 18.833 -54 32.5s-25.5 30.667 -34.5 51s-15.167 42 -18.5 65s-5 49.167 -5 78.5v354c0 36.667 3.16699 68.834 9.5 96.501s16.5 52.334 30.5 74.001s33.5 38.167 58.5 49.5s54.833 17 89.5 17s64.667 -5.66699 90 -17
s45 -27.833 59 -49.5s24.167 -46.5 30.5 -74.5s9.5 -60 9.5 -96v-354c0 -36.667 -3 -68.834 -9 -96.501s-15.833 -52.5 -29.5 -74.5s-33 -38.833 -58 -50.5s-55.833 -17.5 -92.5 -17.5zM246 29.999c48.667 0 83.1699 16.499 103.503 49.499s30.5 79.5 30.5 139.5v371
c0 59.333 -10.167 105.5 -30.5 138.5s-54.833 49.5 -103.5 49.5c-48 0 -82.333 -16.5 -103 -49.5s-31 -79.167 -31 -138.5v-371c0 -28.667 2.16699 -54 6.5 -76s11.666 -41.667 21.999 -59s24.166 -30.666 41.499 -39.999s38.666 -14 63.999 -14z" />
    <glyph glyph-name="one" unicode="1" horiz-adv-x="402" 
d="M208 0l0.00195312 737.001c-10.667 -15.333 -27.834 -28.833 -51.501 -40.5s-45.167 -20.5 -64.5 -26.5v46c18.667 5.33301 40.167 16.666 64.5 33.999s44.166 37.333 59.499 60h46v-810h-54z" />
    <glyph glyph-name="two" unicode="2" horiz-adv-x="488" 
d="M54 0v40.001l225 342c32 48.667 53 83 63 103c22 44.667 33 90.667 33 138s-10.667 84.333 -32 111s-51.666 40 -90.999 40c-28 0 -51.5 -4.33301 -70.5 -13s-33.5 -21.5 -43.5 -38.5s-17 -35.667 -21 -56s-6.33301 -44.833 -7 -73.5v-13h-52v16
c0 75.333 15.333 131.333 46 168s79.334 55 146.001 55c57.333 0 101.333 -17.833 132 -53.5s46 -85.834 46 -150.501c0 -22.667 -2.5 -45 -7.5 -67s-13.333 -44.333 -25 -67s-21.834 -41.5 -30.501 -56.5s-21.334 -34.833 -38.001 -59.5l-212 -320h297v-45h-358z" />
    <glyph glyph-name="three" unicode="3" horiz-adv-x="485" 
d="M238 -11c-113.333 0 -170.001 63.6689 -170.001 191.002v15h50v-16c0 -48.667 9.66699 -85.334 29 -110.001s49.666 -37 90.999 -37c20 0 37.5 2.83301 52.5 8.5s28.833 15.167 41.5 28.5s22.334 32.333 29.001 57s10 54.334 10 89.001
c0 122.667 -43.333 184.334 -130 185.001h-23v47h23c46.667 0 80 13.667 100 41s30 71.333 30 132c0 104 -40.333 156 -121 156c-44.667 0 -77.667 -11.333 -99 -34s-32.333 -60.334 -33 -113.001v-12h-50v13c0 60 14.167 106.5 42.5 139.5s74.5 49.5 138.5 49.5
c30 0 56.5 -5 79.5 -15s41.5 -24.167 55.5 -42.5s24.5 -39.333 31.5 -63s10.5 -49.834 10.5 -78.501c0 -58.667 -10.5 -104.5 -31.5 -137.5s-48.833 -53.167 -83.5 -60.5c14 -3.33301 27.333 -9.33301 40 -18s24.834 -20.834 36.501 -36.501s21 -36.5 28 -62.5
s10.5 -55.667 10.5 -89c0 -70.667 -15.167 -126.167 -45.5 -166.5s-77.833 -60.5 -142.5 -60.5z" />
    <glyph glyph-name="four" unicode="4" horiz-adv-x="492" 
d="M112 298h194v434zM306 0v249h-250v51l241 510h62v-512h94v-49h-94v-249h-53z" />
    <glyph glyph-name="five" unicode="5" horiz-adv-x="488" 
d="M251 -9c-59.333 0 -102.501 17.1689 -129.501 51.502s-40.5 86.166 -40.5 155.499h52c0 -57.333 9.5 -99.166 28.5 -125.499s49.833 -39.5 92.5 -39.5c46 0 78.333 16.667 97 50s28 88.333 28 165c0 56 -4.66699 100.167 -14 132.5s-22.666 54.666 -39.999 66.999
s-40.333 18.5 -69 18.5c-46 0 -84 -22.667 -114 -68h-43v412h294l-1 -46h-248l-2 -315c28 39.333 70.667 59 128 59c55.333 0 96 -21.333 122 -64s39 -106.334 39 -191.001c0 -90 -14.5 -156.167 -43.5 -198.5s-74.5 -63.5 -136.5 -63.5z" />
    <glyph glyph-name="six" unicode="6" horiz-adv-x="492" 
d="M253 34c22.667 0 41.667 2.83203 57 8.49902s28.833 15.334 40.5 29.001s20.334 32.667 26.001 57s8.5 54.5 8.5 90.5c0 33.333 -1 60.5 -3 81.5s-5.66699 40.5 -11 58.5s-13 31.667 -23 41s-22.5 16.5 -37.5 21.5s-34.167 7.5 -57.5 7.5
c-21.333 0 -44.333 -4.5 -69 -13.5s-44 -18.167 -58 -27.5v-151c0 -39.333 2.66699 -72.333 8 -99s13.666 -47.5 24.999 -62.5s24.5 -25.667 39.5 -32s33.167 -9.5 54.5 -9.5zM253 -11.001c-62.667 0 -108.335 20.332 -137.002 60.999s-43 102.667 -43 186v353
c0 152.667 59.667 229.334 179 230.001c59.333 0 102.833 -14.833 130.5 -44.5s41.834 -75.5 42.501 -137.5v-19h-51c0 58 -9.16699 98.667 -27.5 122s-48.5 35 -90.5 35c-19.333 0 -36.333 -2.83301 -51 -8.5s-28.167 -14.834 -40.5 -27.501s-21.833 -30.667 -28.5 -54
s-10 -51.666 -10 -84.999v-171c16.667 11.333 37.5 21.333 62.5 30s50.167 13 75.5 13c27.333 0 50.5 -2.66699 69.5 -8s35.5 -13.833 49.5 -25.5s25 -27.167 33 -46.5s13.833 -42.5 17.5 -69.5s5.5 -59.167 5.5 -96.5c0 -78 -14.667 -137 -44 -177
s-76.666 -60 -141.999 -60z" />
    <glyph glyph-name="seven" unicode="7" horiz-adv-x="461" 
d="M173 0l165 766h-262v44h317v-27l-168 -783h-52z" />
    <glyph glyph-name="eight" unicode="8" horiz-adv-x="488" 
d="M245 447c44.667 2.66699 76.667 18.5 96 47.5s29 69.833 29 122.5c0 54 -10.333 93.667 -31 119s-52 38 -94 38c-42.667 0 -74.334 -12.667 -95.001 -38s-31 -65 -31 -119c0 -52.667 9.83301 -93.5 29.5 -122.5s51.834 -44.833 96.501 -47.5zM245 32
c42.667 0 75.167 14 97.5 42s33.5 74 33.5 138c0 57.333 -10.333 101.833 -31 133.5s-54 50.167 -100 55.5c-46.667 -5.33301 -80.5 -23.833 -101.5 -55.5s-31.5 -76.167 -31.5 -133.5c0 -64 11.5 -110 34.5 -138s55.833 -42 98.5 -42zM245 -11
c-123.333 0 -185.001 74.001 -185.001 222.001c0 22 1.5 42.333 4.5 61s6.66699 34.5 11 47.5s10.333 25 18 36s14.5 19.667 20.5 26s14.167 12.666 24.5 18.999s18.166 10.666 23.499 12.999l24 10.5c-37.333 11.333 -66.666 33.333 -87.999 66s-32 75.667 -32 129
c0 29.333 3.16699 55.5 9.5 78.5s16.166 44 29.499 63s31.833 33.5 55.5 43.5s51.834 15 84.501 15c32 0 59.833 -5.16699 83.5 -15.5s42.167 -25 55.5 -44s23 -40.333 29 -64s9 -50.167 9 -79.5c0 -53.333 -10.5 -95.833 -31.5 -127.5s-50.167 -53.167 -87.5 -64.5
c10 -4 17.833 -7.33301 23.5 -10s13.5 -7.16699 23.5 -13.5s18.167 -12.666 24.5 -18.999s13.333 -15.166 21 -26.499s13.667 -23.333 18 -36s8 -28.334 11 -47.001s4.5 -39 4.5 -61c0.666992 -148 -60.666 -222 -183.999 -222z" />
    <glyph glyph-name="nine" unicode="9" horiz-adv-x="492" 
d="M248 379c50 0 92.0029 13.668 126.003 41.001v151c0 52 -4.83301 93.167 -14.5 123.5s-23.334 51.166 -41.001 62.499s-40.834 17 -69.501 17c-44.667 0 -78 -14 -100 -42s-33 -75.667 -33 -143c0 -33.333 1 -60.5 3 -81.5s5.5 -40.5 10.5 -58.5s12.5 -31.667 22.5 -41
s22.667 -16.5 38 -21.5s34.666 -7.5 57.999 -7.5zM252.003 -10.999c-59.333 0 -103.501 15.001 -132.501 45.001s-43.5 76 -43.5 138v18h51c0 -58.667 9.33301 -99.5 28 -122.5s51.334 -34.5 98.001 -34.5c19.333 0 36 2.66699 50 8s26.5 14.5 37.5 27.5
s19.333 31.167 25 54.5s8.5 51.666 8.5 84.999v171c-13.333 -11.333 -31.5 -21.333 -54.5 -30s-50.833 -13 -83.5 -13c-66 0 -111.667 18 -137 54s-38 100.333 -38 193c0 77.333 15 136 45 176s77.667 60 143 60c62.667 0 108 -20.333 136 -61s42 -102.667 42 -186v-353
c0 -74.667 -13.833 -131.667 -41.5 -171s-72.167 -59 -133.5 -59z" />
    <glyph glyph-name="colon" unicode=":" horiz-adv-x="191" 
d="M75 428v103h59v-103h-59zM75 76v102h59v-102h-59z" />
    <glyph glyph-name="semicolon" unicode=";" horiz-adv-x="203" 
d="M75 438v104h59v-104h-59zM81 -17l-13.999 23c17.333 11.333 28.666 22.333 33.999 33s8 26 8 46h-34v97h63v-85c0 -31.333 -4 -55.5 -12 -72.5s-23 -30.833 -45 -41.5z" />
    <glyph glyph-name="less" unicode="&#x3c;" horiz-adv-x="357" 
d="M300 77l-271 205v51l271 214v-57l-229 -182l229 -175v-56z" />
    <glyph glyph-name="equal" unicode="=" horiz-adv-x="391" 
d="M49 451v44h293v-44h-293zM49 288v45h293v-45h-293z" />
    <glyph glyph-name="greater" unicode="&#x3e;" horiz-adv-x="357" 
d="M57 77v56l230 183l-230 175v56l272 -206v-51z" />
    <glyph glyph-name="question" unicode="?" horiz-adv-x="466" 
d="M179 0v73h52v-73h-52zM181 200l0.00195312 122.999c66 44 113.167 88.5 141.5 133.5s42.5 95.5 42.5 151.5c0 54.667 -13 95.834 -39 123.501s-58 41.5 -96 41.5c-36 0 -65 -8.5 -87 -25.5s-33 -41.167 -33 -72.5c0 -12 1.33301 -23 4 -33l8 -36l-48 -12l-9 37
c-4 16.667 -5.66699 32.667 -5 48c0 44.667 16.167 79.334 48.5 104.001s73.166 37 122.499 37c25.333 0 49 -4.5 71 -13.5s41.5 -21.833 58.5 -38.5s30.5 -38.834 40.5 -66.501s15 -59.167 15 -94.5c0 -63.333 -15.333 -118 -46 -164s-78.334 -91 -143.001 -135v-108h-46z
" />
    <glyph glyph-name="at" unicode="@" horiz-adv-x="805" 
d="M381 166c24 0.666992 46.001 11.168 66.001 31.501s36.333 48.166 49 83.499l37 264c-16.667 12 -36.334 18 -59.001 18c-22 0 -43.667 -6.16699 -65 -18.5s-40.5 -29.5 -57.5 -51.5s-31 -50.167 -42 -84.5s-16.5 -71.5 -16.5 -111.5c0 -46.667 8 -80.167 24 -100.5
s35.667 -30.5 59 -30.5h5zM443.001 -98.999c-256 0 -383.996 143.666 -383.996 430.999c0 63.333 6.5 121.333 19.5 174s31 97.5 54 134.5s50.333 68.167 82 93.5s66 44.166 103 56.499s76.167 18.5 117.5 18.5h5c110 0 191.833 -31.167 245.5 -93.5
s80.5 -155.5 80.5 -279.5c0 -17.333 -0.333008 -30.666 -1 -39.999c-2 -42.667 -8 -80.5 -18 -113.5s-21.833 -58.667 -35.5 -77s-29.334 -33.5 -47.001 -45.5s-33.667 -19.833 -48 -23.5s-28.166 -5.5 -41.499 -5.5c-20.667 0 -39.334 7.33301 -56.001 22s-25 35 -25 61
c0 4 0.333008 7.33301 1 10c-11.333 -28 -27.333 -51.333 -48 -70s-44.667 -28.334 -72 -29.001h-4c-39.333 0 -70.833 15 -94.5 45s-35.5 72.667 -35.5 128c0 44.667 6.66699 86.5 20 125.5s30.666 71.5 51.999 97.5s45.666 46.5 72.999 61.5s55 22.5 83 22.5
c27.333 0 51.666 -8.33301 72.999 -25l8 20h40l-46 -335c-2 -18.667 -3 -33 -3 -43c0 -17.333 3.16699 -30.666 9.5 -39.999s17.5 -14 33.5 -14c10 0 20.167 1.83301 30.5 5.5s21.666 10.5 33.999 20.5s23.333 23 33 39s18.167 37.833 25.5 65.5s12 59.167 14 94.5
c0.666992 10.667 1 26 1 46c0 60.667 -6.66699 112.667 -20 156s-32.666 77.333 -57.999 102s-54.5 42.5 -87.5 53.5s-71.5 16.5 -115.5 16.5h-7c-46 -0.666992 -88.833 -10.667 -128.5 -30s-74.167 -46.833 -103.5 -82.5s-52.333 -81 -69 -136s-25 -116.833 -25 -185.5
c0 -47.333 3.66699 -90.333 11 -129s17.166 -71.167 29.499 -97.5s27.5 -49.666 45.5 -69.999s36.5 -36.333 55.5 -48s40.333 -21 64 -28s45.834 -11.833 66.501 -14.5s42.667 -4 66 -4c58 0 119.667 8.33301 185 25l14 -39c-82.667 -18 -150 -27 -202 -27z" />
    <glyph glyph-name="A" unicode="A" horiz-adv-x="468" 
d="M137 264h195l-98 480zM32 0l170 810h63l171 -810h-55l-42 224h-210l-43 -224h-54z" />
    <glyph glyph-name="B" unicode="B" horiz-adv-x="488" 
d="M129 455l137 0.000976562c22 0 40.5 4 55.5 12s26.5 19.167 34.5 33.5s13.667 30.166 17 47.499s5 37.333 5 60c0 19.333 -1 36.333 -3 51s-6.16699 29.167 -12.5 43.5s-15 25.833 -26 34.5s-25.333 15.667 -43 21s-39.167 8 -64.5 8h-100v-311zM129 43.001
l130.001 -0.000976562c51.333 0 86.666 14.833 105.999 44.5s29 78.834 29 147.501c0 117.333 -42.333 176.333 -127 177h-138v-369zM75.001 0l-0.00195312 810h167c28.667 0 54.167 -3.5 76.5 -10.5s40.333 -16.5 54 -28.5s24.834 -26.667 33.501 -44
s14.667 -35.5 18 -54.5s5 -40.5 5 -64.5c0 -18 -1.33301 -35.333 -4 -52s-7.33398 -33.5 -14.001 -50.5s-16.5 -31.667 -29.5 -44s-28.833 -20.5 -47.5 -24.5c22.667 -6.66699 41.834 -17.5 57.501 -32.5s27.334 -32.5 35.001 -52.5s13 -39.333 16 -58s4.5 -38 4.5 -58
c0 -22 -1 -42 -3 -60s-5.16699 -36.333 -9.5 -55s-10.833 -35 -19.5 -49s-19.5 -26.5 -32.5 -37.5s-29.333 -19.5 -49 -25.5s-42.167 -9 -67.5 -9h-191z" />
    <glyph glyph-name="C" unicode="C" horiz-adv-x="488" 
d="M255 -11c-31.333 0 -58.6699 4.33398 -82.0029 13.001s-42.166 20 -56.499 34s-26 31.667 -35 53s-15.167 43.5 -18.5 66.5s-5 48.833 -5 77.5v344c0 29.333 1.83301 55.666 5.5 78.999s10 45.333 19 66s21 38 36 52s33.833 25 56.5 33s49.334 12 80.001 12
c34.667 0 64.167 -5.33301 88.5 -16s43.333 -26.334 57 -47.001s23.667 -44.334 30 -71.001s9.5 -58 9.5 -94v-41h-52v41c0 62 -9.5 108 -28.5 138s-53.833 45 -104.5 45c-28.667 0 -52.5 -4.33301 -71.5 -13s-33.5 -22 -43.5 -40s-17 -37.833 -21 -59.5
s-6 -47.834 -6 -78.501v-358c0 -25.333 1.33301 -47.5 4 -66.5s7.16699 -36.5 13.5 -52.5s14.833 -29.167 25.5 -39.5s24.334 -18.333 41.001 -24s36 -8.5 58 -8.5c26.667 0 48.834 4.33301 66.501 13s31.167 21.334 40.5 38.001s16 35.5 20 56.5s6 46.5 6 76.5v49h52v-40
c0 -28.667 -1.66699 -54.667 -5 -78s-9.33301 -45.166 -18 -65.499s-19.834 -37.166 -33.501 -50.499s-31.5 -24 -53.5 -32s-47 -12 -75 -12z" />
    <glyph glyph-name="D" unicode="D" horiz-adv-x="517" 
d="M75 0l0.000976562 810h177c39.333 0 72.833 -6 100.5 -18s49 -28.833 64 -50.5s25.833 -46 32.5 -73s10 -57.5 10 -91.5v-336c0 -36.667 -3.33301 -69 -10 -97s-17.334 -53.167 -32.001 -75.5s-35.5 -39.333 -62.5 -51s-59.5 -17.5 -97.5 -17.5h-182zM129.001 43
l125.001 -0.00195312c25.333 0 47.333 3.66699 66 11s33.334 16.833 44.001 28.5s19 26.834 25 45.501s10 37 12 55s3 39.333 3 64v326c0 25.333 -1.33301 47.333 -4 66s-7.33398 36.334 -14.001 53.001s-15.667 30.167 -27 40.5s-25.833 18.5 -43.5 24.5
s-38.834 9 -63.501 9h-123v-723z" />
    <glyph glyph-name="E" unicode="E" horiz-adv-x="392" 
d="M74 0v810h280v-44h-225v-325h185v-42h-185v-356h228v-43h-283z" />
    <glyph glyph-name="F" unicode="F" horiz-adv-x="382" 
d="M75 0v810h279v-43h-225v-326h194v-42h-194v-399h-54z" />
    <glyph glyph-name="G" unicode="G" horiz-adv-x="510" 
d="M252 -11c-30 0 -56.3311 3.99805 -78.998 11.998s-41.334 19 -56.001 33s-26.5 31.667 -35.5 53s-15.167 43.833 -18.5 67.5s-5 50.5 -5 80.5v344c0 30 1.66699 56.667 5 80s9.66602 45.166 18.999 65.499s21.333 37.333 36 51s33.5 24.334 56.5 32.001
s49.833 11.5 80.5 11.5c67.333 0 115.333 -19.667 144 -59s43 -96.666 43 -171.999v-28h-52v31c0 62.667 -9.83301 108.834 -29.5 138.501s-54.834 44.5 -105.501 44.5c-23.333 0 -43.5 -3.16699 -60.5 -9.5s-30.667 -14.833 -41 -25.5s-18.5 -24.5 -24.5 -41.5
s-10.167 -34.667 -12.5 -53s-3.5 -39.5 -3.5 -63.5v-353c0 -31.333 2 -58.166 6 -80.499s11.333 -42.333 22 -60s25.5 -31 44.5 -40s42.5 -13.5 70.5 -13.5c26 0 48.167 4.33301 66.5 13s32.333 21.5 42 38.5s16.667 36.667 21 59s6.5 49.166 6.5 80.499v119h-129v42h180
v-386h-35l-8 91c-21.333 -68 -70.666 -102 -147.999 -102z" />
    <glyph glyph-name="H" unicode="H" horiz-adv-x="541" 
d="M74 0v810h55v-365h284v365h54v-810h-54v403h-284v-403h-55z" />
    <glyph glyph-name="I" unicode="I" horiz-adv-x="206" 
d="M76 0v810h54v-810h-54z" />
    <glyph glyph-name="J" unicode="J" horiz-adv-x="265" 
d="M8 -45l0.000976562 43c20.667 0 37.667 0.5 51 1.5s25 4 35 9s17.5 10.5 22.5 16.5s9.16699 15.5 12.5 28.5s5.33301 26.333 6 40s1 32.5 1 56.5v660h54v-666c0 -23.333 -0.666992 -43 -2 -59s-3.83301 -31.667 -7.5 -47s-9 -27.833 -16 -37.5
s-16.167 -18.167 -27.5 -25.5s-25.333 -12.5 -42 -15.5s-36.334 -4.5 -59.001 -4.5h-28z" />
    <glyph glyph-name="K" unicode="K" horiz-adv-x="459" 
d="M74 0v810h55v-455l235 455h54l-171 -343l212 -467h-54l-197 434l-79 -144v-290h-55z" />
    <glyph glyph-name="L" unicode="L" horiz-adv-x="373" 
d="M75 0v810h54v-767h245v-43h-299z" />
    <glyph glyph-name="M" unicode="M" horiz-adv-x="631" 
d="M65 0l24 810h54l171 -731l174 731h56l23 -810h-47l-20 679l-165 -679h-40l-163 678l-20 -678h-47z" />
    <glyph glyph-name="N" unicode="N" horiz-adv-x="515" 
d="M75 0v810h43l275 -684v684h48v-810h-43l-275 685v-685h-48z" />
    <glyph glyph-name="O" unicode="O" horiz-adv-x="515" 
d="M257.5 -11c-31 0 -58.168 4.00098 -81.501 12.001s-42.333 19 -57 33s-26.667 31.333 -36 52s-15.833 42.667 -19.5 66s-5.5 49.333 -5.5 78v354c0 28.667 1.83301 54.5 5.5 77.5s10.334 44.5 20.001 64.5s22.167 36.667 37.5 50s34.333 23.833 57 31.5
s49.334 11.5 80.001 11.5c37.333 0 69.166 -5.66699 95.499 -17s47 -27.833 62 -49.5s25.833 -46.167 32.5 -73.5s10 -59 10 -95v-355c0 -28.667 -1.83301 -54.667 -5.5 -78s-10.167 -45.333 -19.5 -66s-21.5 -37.834 -36.5 -51.501s-34.167 -24.5 -57.5 -32.5
s-50.5 -12 -81.5 -12zM257.499 34.001c28.333 0 52.166 4.33301 71.499 13s34.333 21.5 45 38.5s18.167 36 22.5 57s6.5 46.167 6.5 75.5v374c0 29.333 -2.16699 54.5 -6.5 75.5s-11.833 39.833 -22.5 56.5s-25.667 29.167 -45 37.5s-43.166 12.5 -71.499 12.5
s-52.166 -4.16699 -71.499 -12.5s-34.333 -20.833 -45 -37.5s-18 -35.5 -22 -56.5s-6 -46.167 -6 -75.5v-374c0 -29.333 2 -54.5 6 -75.5s11.333 -40 22 -57s25.667 -29.833 45 -38.5s43.166 -13 71.499 -13z" />
    <glyph glyph-name="P" unicode="P" horiz-adv-x="485" 
d="M129 429h125c50 0 86.333 13.167 109 39.5s34 70.5 34 132.5c0 64 -10.5 107.833 -31.5 131.5s-57.833 35.5 -110.5 35.5h-126v-339zM75 0v809.997h190c35.333 0 65.5 -5.16699 90.5 -15.5s44.5 -25.166 58.5 -44.499s24 -41.166 30 -65.499s9 -52.166 9 -83.499
c0 -22.667 -1.83301 -44 -5.5 -64s-10 -39.333 -19 -58s-20.333 -34.667 -34 -48s-31.5 -24 -53.5 -32s-47 -12 -75 -12h-137v-387h-54z" />
    <glyph glyph-name="Q" unicode="Q" horiz-adv-x="523" 
d="M261.5 34c28.333 0 52.333 4.33301 72 13s35 21.5 46 38.5s18.833 36.167 23.5 57.5s7 46.333 7 75v374c0 59.333 -11 104.5 -33 135.5s-60.667 46.5 -116 46.5c-28 0 -51.833 -4.16699 -71.5 -12.5s-35 -20.833 -46 -37.5s-18.833 -35.667 -23.5 -57s-7 -46.333 -7 -75
v-374c0 -28.667 2.33301 -53.667 7 -75s12.5 -40.5 23.5 -57.5s26.333 -29.833 46 -38.5s43.667 -13 72 -13zM429 -156c-34 16 -80 65.002 -138 147.002c-9.33301 -0.666992 -19.333 -1.33398 -30 -2.00098c-30.667 0 -57.834 4 -81.501 12s-43.167 19 -58.5 33
s-27.833 31.333 -37.5 52s-16.334 42.667 -20.001 66s-5.5 49.333 -5.5 78v354c0 36 3.5 67.833 10.5 95.5s18.167 52.167 33.5 73.5s36.333 37.666 63 48.999s58.667 17 96 17s69.5 -5.66699 96.5 -17s48.167 -27.833 63.5 -49.5s26.5 -46.167 33.5 -73.5
s10.5 -59 10.5 -95v-355c0 -62 -10.167 -112.667 -30.5 -152s-54.166 -65.333 -101.499 -78c14.667 -19.333 32.334 -40 53.001 -62s36.667 -36.667 48 -44z" />
    <glyph glyph-name="R" unicode="R" horiz-adv-x="508" 
d="M129 450h140c25.333 0 46.333 3.5 63 10.5s29.667 17.833 39 32.5s15.833 31.167 19.5 49.5s5.5 40.833 5.5 67.5c0 54.667 -9.16699 94.5 -27.5 119.5s-51.833 37.5 -100.5 37.5h-139v-317zM75 0v810h196c28 0 52.5 -3.5 73.5 -10.5s38.167 -16.333 51.5 -28
s24 -26.167 32 -43.5s13.5 -35.333 16.5 -54s4.5 -40 4.5 -64c0 -19.333 -1 -37.166 -3 -53.499s-5.66699 -32.5 -11 -48.5s-12.333 -29.833 -21 -41.5s-20.167 -21.834 -34.5 -30.501s-30.833 -14.667 -49.5 -18l130 -418h-54l-126 408h-151v-408h-54z" />
    <glyph glyph-name="S" unicode="S" horiz-adv-x="452" 
d="M237 -10c-118.667 0 -183.666 69.9961 -194.999 209.996l47 15c2.66699 -23.333 6.16699 -43.5 10.5 -60.5s10.166 -33.333 17.499 -49s16.333 -28.5 27 -38.5s23.834 -17.833 39.501 -23.5s33.834 -8.5 54.501 -8.5c86 0 129 43.333 129 130
c0 33.333 -8.33301 63.666 -25 90.999s-43.334 59.333 -80.001 96l-148 147c-46.667 46.667 -70.334 98 -71.001 154c0 52.667 16.167 93.334 48.5 122.001s75.5 43.334 129.5 44.001h1c57.333 0 101.666 -15.5 132.999 -46.5s49.333 -83.167 54 -156.5l-46 -11
c-5.33301 58.667 -18.166 101.667 -38.499 129s-52.833 41 -97.5 41h-5c-39.333 -0.666992 -70.666 -10.667 -93.999 -30s-35 -48.666 -35 -87.999c0 -21.333 4.5 -41.666 13.5 -60.999s24.167 -40 45.5 -62l146 -144c37.333 -37.333 66.666 -73.666 87.999 -108.999
s32 -73 32 -113c0 -58.667 -16.333 -103 -49 -133s-76.667 -45 -132 -45z" />
    <glyph glyph-name="T" unicode="T" horiz-adv-x="380" 
d="M165 0v766h-172v44h394v-44h-168v-766h-54z" />
    <glyph glyph-name="U" unicode="U" horiz-adv-x="533" 
d="M267 -11c-38.667 0 -71.501 5 -98.501 15s-47.833 24.333 -62.5 43s-25.167 39.667 -31.5 63s-9.5 50 -9.5 80v620h54v-621c0 -24 2.16699 -44.833 6.5 -62.5s12 -33.667 23 -48s26.333 -25.333 46 -33s43.834 -11.5 72.501 -11.5c98.667 0 148 51.667 148 155v621h53
v-620c0 -134 -67 -201 -201 -201z" />
    <glyph glyph-name="V" unicode="V" horiz-adv-x="480" 
d="M220 0l-196 810h54l168 -715l157 715h53l-185 -810h-51z" />
    <glyph glyph-name="W" unicode="W" horiz-adv-x="706" 
d="M175 0l-141 809l48 1l119 -703l130 685h52l134 -685l108 703h47l-131 -810h-46l-138 709l-135 -709h-47z" />
    <glyph glyph-name="X" unicode="X" horiz-adv-x="452" 
d="M15 0l178 420l-177 390h50l159 -346l155 346h54l-185 -398l189 -412h-53l-167 364l-149 -364h-54z" />
    <glyph glyph-name="Y" unicode="Y" horiz-adv-x="461" 
d="M207 0v259l-187 551h56l159 -486l151 486h56l-181 -551v-259h-54z" />
    <glyph glyph-name="Y" unicode="&#x4ae;" horiz-adv-x="461" 
d="M207 0v259l-187 551h56l159 -486l151 486h56l-181 -551v-259h-54z" />
    <glyph glyph-name="Z" unicode="Z" horiz-adv-x="401" 
d="M31 0v43l291 724h-265v43h324v-34l-294 -733h295v-43h-351z" />
    <glyph glyph-name="bracketleft" unicode="[" horiz-adv-x="278" 
d="M74 -145v955h147v-33h-93v-889h93v-33h-147z" />
    <glyph glyph-name="backslash" unicode="\" horiz-adv-x="329" 
d="M259 0l-238 810h48l238 -810h-48z" />
    <glyph glyph-name="bracketright" unicode="]" horiz-adv-x="270" 
d="M49 -144v32h93v889h-93v33h147v-954h-147z" />
    <glyph glyph-name="asciicircum" unicode="^" horiz-adv-x="365" 
d="M26 525l128 285h57l128 -285h-45l-111 251l-112 -251h-45z" />
    <glyph glyph-name="underscore" unicode="_" horiz-adv-x="325" 
d="M0 -90v44h325v-44h-325z" />
    <glyph glyph-name="grave" unicode="`" horiz-adv-x="209" 
d="M131 616l-81 194h54l55 -194h-28z" />
    <glyph glyph-name="a" unicode="a" 
d="M167 35c23.333 0 43.998 7.66797 61.998 23.001s33 34.666 45 57.999v190c-65.333 -34 -106.666 -57 -123.999 -69c-27.333 -18.667 -44.666 -39.334 -51.999 -62.001c-4.66699 -14 -7 -30.667 -7 -50c0 -31.333 7.33301 -54.166 22 -68.499s32.667 -21.5 54 -21.5z
M153.998 -8.99902c-34.667 0 -62.666 11.6689 -83.999 35.002s-32 53.666 -32 90.999c0 26 2.83301 47.5 8.5 64.5s17.667 34.333 36 52s41.833 34.667 70.5 51s69 36.5 121 60.5v41c0 42 -2.66699 74.667 -8 98s-13.666 39.666 -24.999 48.999s-27 14 -47 14
c-12.667 0 -24 -1.5 -34 -4.5s-19.667 -8.16699 -29 -15.5s-16.5 -18.5 -21.5 -33.5s-7.5 -33.5 -7.5 -55.5v-16l-52 1v15c1.33301 52.667 14.166 90.667 38.499 114s60.166 35 107.499 35c48 0 81.833 -15 101.5 -45s29.5 -80 29.5 -150v-291c0 -55.333 1 -89 3 -101h-46
c-4.66699 43.333 -7.66699 69 -9 77c-9.33301 -25.333 -24.833 -46 -46.5 -62s-46.5 -24 -74.5 -24z" />
    <glyph glyph-name="b" unicode="b" horiz-adv-x="397" 
d="M209 32c34.667 0 58.167 15.5 70.5 46.5s18.5 83.5 18.5 157.5v113c0 72.667 -5.66699 123.667 -17 153s-35 44 -71 44c-34 0 -67.333 -18 -100 -54v-408c28.667 -34.667 61.667 -52 99 -52zM216 -9c-40 0 -75.3359 19 -106.003 57v-48h-53v810h53v-281
c29.333 38.667 66.333 58 111 58c20.667 0 38.834 -3.66699 54.501 -11s28.334 -17.5 38.001 -30.5s17.334 -29.833 23.001 -50.5s9.66699 -42.5 12 -65.5s3.5 -49.833 3.5 -80.5v-111c0 -84.667 -10.167 -147 -30.5 -187s-55.5 -60 -105.5 -60z" />
    <glyph glyph-name="c" unicode="c" horiz-adv-x="375" 
d="M192 -9c-25.333 0 -47.001 3.99512 -65.001 11.9951s-32.167 18.333 -42.5 31s-18.5 29.334 -24.5 50.001s-9.83301 41 -11.5 61s-2.5 44 -2.5 72v136c0 86.667 10.5 147.334 31.5 182.001s59.167 52 114.5 52c23.333 0 43.5 -3.16699 60.5 -9.5
s30.667 -14.666 41 -24.999s18.5 -23.833 24.5 -40.5s10 -33.667 12 -51s3 -37.666 3 -60.999v-23h-50v23c0 56.667 -6.83301 95.334 -20.5 116.001s-37.167 31 -70.5 31c-38 0 -63 -13.333 -75 -40s-18 -76 -18 -148v-150c0 -66 6.5 -112.167 19.5 -138.5
s37.833 -39.5 74.5 -39.5c37.333 0 61.666 11.833 72.999 35.5s17 66.167 17 127.5v22h50v-21c0 -18 -0.333008 -34 -1 -48s-2.16699 -28.333 -4.5 -43s-5.66602 -27.334 -9.99902 -38.001s-10 -21 -17 -31s-15.333 -18.167 -25 -24.5s-21.667 -11.166 -36 -14.499
s-30.166 -5 -47.499 -5z" />
    <glyph glyph-name="d" unicode="d" horiz-adv-x="394" 
d="M189 32c34 0 65.668 16.334 95.001 49.001v415c-32 33.333 -64 50 -96 50c-35.333 0 -59 -14.333 -71 -43s-18 -78.667 -18 -150v-120c0 -72.667 6.16699 -124.334 18.5 -155.001s36.166 -46 71.499 -46zM182.001 -8.99902c-49.333 0 -84.333 18.832 -105 56.499
s-31 100.834 -31 189.501v103c0 86 9.5 148.667 28.5 188s53.833 59 104.5 59c40.667 0 75.667 -17.667 105 -53v276h53v-810h-53v44c-28.667 -35.333 -62.667 -53 -102 -53z" />
    <glyph glyph-name="e" unicode="e" 
d="M99 334h185v45c0 23.333 -0.5 42.5 -1.5 57.5s-3.33301 30.167 -7 45.5s-8.66699 27.333 -15 36s-15 15.667 -26 21s-24.5 8 -40.5 8c-23.333 0 -41.333 -4.33301 -54 -13s-22.667 -25.5 -30 -50.5s-11 -60.167 -11 -105.5v-44zM193 -9
c-19.333 0 -36.167 2.00293 -50.5 6.00293s-27.833 11 -40.5 21s-23 23.333 -31 40s-14.167 38 -18.5 64s-6.5 56.667 -6.5 92v154c0 35.333 2.33301 66.166 7 92.499s10.834 47.5 18.501 63.5s18 28.833 31 38.5s26.667 16.167 41 19.5s31.166 5 50.499 5
c53.333 0 90.333 -17.333 111 -52s31 -94 31 -178l-1 -55h-236v-92c0 -68 7.16699 -114.833 21.5 -140.5s38.5 -38.5 72.5 -38.5c10 0 18.5 0.666992 25.5 2s15 4.33301 24 9s16.167 11.167 21.5 19.5s10 20.166 14 35.499s6 33.666 6 54.999v43h52v-38
c0 -53.333 -11 -94.333 -33 -123s-58.667 -43 -110 -43z" />
    <glyph glyph-name="f" unicode="f" horiz-adv-x="256" 
d="M95 0l-0.000976562 541h-78v37h78v78c0 17.333 0.5 31.5 1.5 42.5s3.16699 22.667 6.5 35s8.33301 22 15 29s16 12.833 28 17.5s26.333 7 43 7c18.667 0 36.334 -2.33301 53.001 -7v-40c-21.333 4 -35.333 6 -42 6c-21.333 0 -35.333 -6.33301 -42 -19s-10 -36 -10 -70
v-79h97v-37h-97v-541h-53z" />
    <glyph glyph-name="g" unicode="g" horiz-adv-x="428" 
d="M207 223c74 0 110.666 55.001 109.999 165.001c0 14 -0.833008 27.5 -2.5 40.5s-5 27 -10 42s-11.5 28 -19.5 39s-18.833 20.167 -32.5 27.5s-29.167 11 -46.5 11s-33 -3.83301 -47 -11.5s-25 -17.334 -33 -29.001s-14.5 -25 -19.5 -40s-8.5 -29 -10.5 -42
s-3 -25.5 -3 -37.5c0 -14 0.833008 -27.667 2.5 -41s4.83398 -27.833 9.50098 -43.5s11 -29.167 19 -40.5s19.167 -20.833 33.5 -28.5s30.833 -11.5 49.5 -11.5zM201.999 -152.999c42 0 76 7 102 21s39 35 39 63c0 15.333 -3 27.833 -9 37.5s-18.333 19 -37 28
s-45.667 17.167 -81 24.5l-63 11c-61.333 -35.333 -92 -73 -92 -113c0 -48 47 -72 141 -72zM201.999 -195.999c-125.333 0 -187.667 33.998 -187 101.998c0 27.333 10.167 53 30.5 77s44.5 43.333 72.5 58c-18 4.66699 -34.167 10.834 -48.5 18.501
s-21.5 15.834 -21.5 24.501c0 28 24 69.667 72 125c-50.667 35.333 -76 95 -76 179c0 24.667 3.16699 48.5 9.5 71.5s15.833 44.167 28.5 63.5s29.5 34.833 50.5 46.5s45.167 17.5 72.5 17.5c57.333 0 100 -25.667 128 -77c7.33301 13.333 18.166 26.333 32.499 39
s29.5 22.334 45.5 29.001l14 5l15 -40c-17.333 -4 -34.666 -11.5 -51.999 -22.5s-31 -22.833 -41 -35.5c4.66699 -12.667 9 -29 13 -49s6 -36.333 6 -49c0 -61.333 -13 -110.5 -39 -147.5s-66 -55.5 -120 -55.5c-24 0 -44.667 3.33301 -62 10
c-2 -3.33301 -8.33301 -12.666 -19 -27.999s-18.667 -28.333 -24 -39s-8 -19.334 -8 -26.001s16 -13.334 48 -20.001c10.667 -2.66699 28 -6.5 52 -11.5s38 -7.83301 42 -8.5c50 -11.333 87.833 -26.833 113.5 -46.5s38.5 -47.167 38.5 -82.5c0 -22 -5 -41.333 -15 -58
s-23.667 -30 -41 -40s-37 -17.5 -59 -22.5s-45.667 -7.5 -71 -7.5z" />
    <glyph glyph-name="h" unicode="h" horiz-adv-x="391" 
d="M57 0l-0.00195312 810h53v-293c40.667 47.333 86.667 70.666 138 69.999c28 0 50.167 -10.167 66.5 -30.5s24.5 -52.166 24.5 -95.499v-461h-54v455c0 33.333 -5.16699 56.833 -15.5 70.5s-25.166 20.5 -44.499 20.5c-37.333 0 -75.666 -21.333 -114.999 -64v-482h-53z
" />
    <glyph glyph-name="i" unicode="i" horiz-adv-x="189" 
d="M65 654v92h54v-92h-54zM65 0v578h54v-578h-54z" />
    <glyph glyph-name="j" unicode="j" horiz-adv-x="202" 
d="M81 654v92h53v-92h-53zM-16 -153l-0.000976562 42.999c2.66699 -0.666992 10.667 -1 24 -1s24.666 1.66699 33.999 5s16.5 7.5 21.5 12.5s8.83301 11.667 11.5 20s4.33398 15.833 5.00098 22.5s1 15.334 1 26.001v603h53v-606c0 -44.667 -10.167 -77 -30.5 -97
s-50.166 -30 -89.499 -30c-16.667 0 -26.667 0.666992 -30 2z" />
    <glyph glyph-name="k" unicode="k" horiz-adv-x="383" 
d="M57 0v810h53v-534l215 302h57l-152 -221l144 -357h-54l-130 325l-80 -108v-217h-53z" />
    <glyph glyph-name="l" unicode="l" horiz-adv-x="185" 
d="M67 0v810h53v-810h-53z" />
    <glyph glyph-name="m" unicode="m" horiz-adv-x="622" 
d="M57 0l-0.000976562 578h50v-61c18.667 22.667 39.667 40.167 63 52.5s47.666 18.5 72.999 18.5c48 0 78 -25.667 90 -77c18.667 24.667 40.334 43.667 65.001 57s50 20 76 20c28 0 51 -10 69 -30s27 -53.667 27 -101v-457h-51v458c0 34.667 -5.5 58.667 -16.5 72
s-26.167 20 -45.5 20c-40.667 0 -80.667 -22.667 -120 -68c0.666992 -8 1.33398 -16.333 2.00098 -25v-457h-51v458c0 34.667 -5.5 58.667 -16.5 72s-26.167 20 -45.5 20c-20 0 -40.167 -5.83301 -60.5 -17.5s-39.833 -28.167 -58.5 -49.5v-483h-50z" />
    <glyph glyph-name="n" unicode="n" horiz-adv-x="391" 
d="M57 0l-0.000976562 577.999h53v-62c40.667 47.333 86.334 71 137.001 71c28 0 50.167 -10.167 66.5 -30.5s24.5 -52.166 24.5 -95.499v-461h-53v455c0 33.333 -5.16699 56.833 -15.5 70.5s-25.5 20.5 -45.5 20.5c-18.667 0 -38 -5.83301 -58 -17.5
s-38.667 -27.167 -56 -46.5v-482h-53z" />
    <glyph glyph-name="o" unicode="o" horiz-adv-x="382" 
d="M191 -9c-55.333 0 -93.333 17.5 -114 52.5s-31 90.833 -31 167.5v156c0 76 10.5 131.667 31.5 167s58.833 53 113.5 53c28 0 51.667 -4.5 71 -13.5s34.5 -23.167 45.5 -42.5s18.667 -42 23 -68s6.5 -58 6.5 -96v-156c0 -76.667 -10.5 -132.5 -31.5 -167.5
s-59.167 -52.5 -114.5 -52.5zM191.5 31c13.667 0 25.667 1.66699 36 5s18.833 8.83301 25.5 16.5s12 16 16 25s7.16699 21 9.5 36s3.83301 29.5 4.5 43.5s1 31.333 1 52v160c0 25.333 -0.5 46 -1.5 62s-3.33301 32 -7 48s-8.83398 28.667 -15.501 38
s-15.667 16.666 -27 21.999s-25.166 8 -41.499 8s-30.333 -2.66699 -42 -8s-20.667 -12.666 -27 -21.999s-11.333 -22 -15 -38s-6 -32 -7 -48s-1.5 -36.667 -1.5 -62v-160c0 -20.667 0.333008 -38 1 -52s2 -28.5 4 -43.5s5.16699 -27 9.5 -36s9.83301 -17.333 16.5 -25
s15.167 -13.167 25.5 -16.5s22.333 -5 36 -5z" />
    <glyph glyph-name="p" unicode="p" horiz-adv-x="399" 
d="M210 32c34.667 0 58.168 15.5 70.501 46.5s18.5 83.5 18.5 157.5v113c0 72.667 -5.83301 123.667 -17.5 153s-35.5 44 -71.5 44c-34 0 -67.333 -18 -100 -54v-408c29.333 -34.667 62.666 -52 99.999 -52zM57.001 -190l0.000976562 768.001h53v-49
c30 39.333 67 58.666 111 57.999c26 0 47.667 -5.33301 65 -16s30.666 -27 39.999 -49s16 -46.667 20 -74s6 -60.333 6 -99v-111c0 -84.667 -10 -147 -30 -187s-55.333 -60 -106 -60c-40 0 -75.333 19 -106 57v-238h-53z" />
    <glyph glyph-name="q" unicode="q" horiz-adv-x="396" 
d="M192 32c34 0 65.668 16.668 95.001 50.001v413c-32 34 -64.333 51 -97 51c-35.333 0 -58.833 -14.333 -70.5 -43s-17.5 -78.667 -17.5 -150v-120c0 -72.667 6.16699 -124.334 18.5 -155.001s36.166 -46 71.499 -46zM287.001 -189.999l-0.000976562 233.999
c-29.333 -36 -63.666 -53.667 -102.999 -53c-49.333 0 -84.333 18.833 -105 56.5s-31 100.834 -31 189.501v103c0 86 9.5 148.667 28.5 188s54.167 59 105.5 59c41.333 0 76.333 -18 105 -54v45h53v-768h-53z" />
    <glyph glyph-name="r" unicode="r" horiz-adv-x="283" 
d="M64 0v578.001h53v-78c16 27.333 36.833 48.166 62.5 62.499s50.5 21.5 74.5 21.5l4.5 -0.5c3 -0.333008 4.83301 -0.5 5.5 -0.5v-55c-6 2 -13.333 3 -22 3c-54 0 -95.667 -24.667 -125 -74v-457h-53z" />
    <glyph glyph-name="s" unicode="s" horiz-adv-x="356" 
d="M188 -9c-44.667 0 -80.499 14.6689 -107.499 44.002s-42.5 69.666 -46.5 120.999l45 13c6.66699 -92 43.667 -138 111 -138c28.667 0 51.167 8 67.5 24s24.5 38.667 24.5 68c0 44 -28.333 89.667 -85 137l-67 57c-29.333 24.667 -50.5 48 -63.5 70s-19.5 47 -19.5 75
c0 39.333 11.833 70 35.5 92s55.5 33 95.5 33c41.333 0 73.166 -13.333 95.499 -40s34.166 -63.667 35.499 -111l-39 -12c-2.66699 82.667 -32.334 123.667 -89.001 123c-26 0 -46.667 -6.66699 -62 -20s-23 -32 -23 -56c0 -22.667 4 -41.834 12 -57.501
s23.667 -33.5 47 -53.5l69 -61c16.667 -14 29.667 -25.833 39 -35.5s19.833 -22 31.5 -37s20.334 -31 26.001 -48s8.5 -35.167 8.5 -54.5c0 -41.333 -12.667 -73.833 -38 -97.5s-59.666 -35.5 -102.999 -35.5z" />
    <glyph glyph-name="t" unicode="t" horiz-adv-x="262" 
d="M184 -6c-15.333 0 -28.8311 2 -40.498 6s-20.834 9.33301 -27.501 16s-11.834 15.5 -15.501 26.5s-6 22 -7 33s-1.5 23.833 -1.5 38.5v429h-76v35h76v185h53v-185h98v-35h-98v-422c0 -32.667 3.16699 -55 9.5 -67s19.833 -18 40.5 -18c10 0 24.333 1.66699 43 5v-41
c-16.667 -4 -34.667 -6 -54 -6z" />
    <glyph glyph-name="u" unicode="u" horiz-adv-x="394" 
d="M143 -9c-28 0 -50.1699 10.168 -66.5029 30.501s-24.5 52.166 -24.5 95.499v461h53v-455c0 -33.333 5.16699 -56.833 15.5 -70.5s25.333 -20.5 45 -20.5s39.834 6.33301 60.501 19s40.334 29.667 59.001 51v476h52v-578h-52v68
c-19.333 -24 -41.166 -42.833 -65.499 -56.5s-49.833 -20.5 -76.5 -20.5z" />
    <glyph glyph-name="v" unicode="v" horiz-adv-x="356" 
d="M152 0l-133 578h54l108 -511l106 511h51l-127 -578h-59z" />
    <glyph glyph-name="w" unicode="w" horiz-adv-x="566" 
d="M128 0l-95 578h47l80 -517l99 517h52l101 -515l75 515h47l-93 -578h-55l-100 507l-98 -507h-60z" />
    <glyph glyph-name="x" unicode="x" horiz-adv-x="374" 
d="M20 0l141 301l-132 277h54l108 -229l107 229h55l-137 -282l139 -296h-50l-118 246l-115 -246h-52z" />
    <glyph glyph-name="y" unicode="y" horiz-adv-x="374" 
d="M37 -144l0.00195312 43c34 0 60.333 2.83301 79 8.5s31 13 37 22s9 21.167 9 36.5v13c-0.666992 10 -6.33398 36.667 -17.001 80c-18.667 77.333 -59 250.333 -121 519h52l114 -528l110 528h53l-141 -625c-8 -34 -23.833 -58.667 -47.5 -74s-58.834 -23 -105.501 -23h-22
z" />
    <glyph glyph-name="z" unicode="z" horiz-adv-x="325" 
d="M32 0v39l209 498h-187v41h241v-35l-207 -502h204v-41h-260z" />
    <glyph glyph-name="braceleft" unicode="{" horiz-adv-x="231" 
d="M214 -149c-12.667 0 -23.332 0.168945 -31.999 0.501953s-16.834 1.5 -24.501 3.5s-14.334 3.83301 -20.001 5.5s-10.834 5.16699 -15.501 10.5s-8.33398 10 -11.001 14s-5 10.667 -7 20s-3.5 17.666 -4.5 24.999s-1.83301 18.333 -2.5 33s-1.16699 28 -1.5 40
s-0.5 28.667 -0.5 50v122c0 56 -3.66699 93.167 -11 111.5s-23 27.5 -47 27.5v46c24 0 39.667 9.33301 47 28s11 56 11 112v116c0 20.667 0.166992 37 0.5 49s0.833008 25.333 1.5 40s1.5 25.834 2.5 33.501s2.5 16 4.5 25s4.33301 15.667 7 20s6.33398 9 11.001 14
s9.83398 8.5 15.501 10.5s12.334 3.83301 20.001 5.5s16 2.66699 25 3s19.5 0.5 31.5 0.5v-40c-32.667 0 -52 -7.5 -58 -22.5s-9 -61.167 -9 -138.5v-132c0 -50 -3.83301 -85.333 -11.5 -106s-21.834 -34.334 -42.501 -41.001
c20.667 -6.66699 34.834 -20.334 42.501 -41.001s11.5 -56 11.5 -106v-137c0 -77.333 3 -123.5 9 -138.5s25.333 -22.5 58 -22.5v-41z" />
    <glyph glyph-name="bar" unicode="|" horiz-adv-x="204" 
d="M77 -141v951h50v-951h-50z" />
    <glyph glyph-name="braceright" unicode="}" horiz-adv-x="237" 
d="M23 -149v41c32.667 0 52 7.5 58 22.5s9 61.167 9 138.5v137c0 50 4 85.5 12 106.5s22.333 34.5 43 40.5c-20.667 6.66699 -35 20.5 -43 41.5s-12 56.167 -12 105.5v132c0 78 -2.83301 124.333 -8.5 139s-25.167 22 -58.5 22v40c12.667 0 23.334 -0.166992 32.001 -0.5
s17 -1.33301 25 -3s14.667 -3.5 20 -5.5s10.5 -5.5 15.5 -10.5s8.66699 -9.66699 11 -14s4.66602 -11 6.99902 -20s4 -17.333 5 -25s1.83301 -18.834 2.5 -33.501s1.16699 -28 1.5 -40s0.5 -28.333 0.5 -49v-116c0 -56 3.66699 -93.333 11 -112s23 -28 47 -28v-46
c-24 0 -39.667 -9.16699 -47 -27.5s-11 -55.5 -11 -111.5v-122c0 -20.667 -0.166992 -37.167 -0.5 -49.5s-0.833008 -25.833 -1.5 -40.5s-1.5 -25.667 -2.5 -33s-2.66699 -15.666 -5 -24.999s-4.66602 -16 -6.99902 -20s-6 -8.66699 -11 -14s-10.167 -8.83301 -15.5 -10.5
s-12 -3.5 -20 -5.5s-16.333 -3.16699 -25 -3.5s-19.334 -0.5 -32.001 -0.5z" />
    <glyph glyph-name="asciitilde" unicode="~" horiz-adv-x="382" 
d="M257 381c-13.333 0 -35.999 9.16699 -67.999 27.5s-53 27.5 -63 27.5c-15.333 0 -37.333 -13.667 -66 -41l-19 24c33.333 38 62.666 57 87.999 57c13.333 0 35.833 -9 67.5 -27s52.167 -27 61.5 -27c8.66699 0 17.167 2.5 25.5 7.5s21.166 14.5 38.499 28.5l20 -24
c-35.333 -35.333 -63.666 -53 -84.999 -53z" />
    <glyph glyph-name="uni00A0" unicode="&#xa0;" horiz-adv-x="189" 
 />
    <glyph glyph-name="exclamdown" unicode="&#xa1;" horiz-adv-x="197" 
d="M69 533v74h60v-74h-60zM68 -203l21 636h19l20 -636h-60z" />
    <glyph glyph-name="cent" unicode="&#xa2;" horiz-adv-x="378" 
d="M170 -112v104c-21.333 2 -39.666 7.33301 -54.999 16s-27.5 19.5 -36.5 32.5s-16 29.5 -21 49.5s-8.16699 39.667 -9.5 59s-2 42 -2 68v136c0 82.667 9.33301 141.5 28 176.5s52.667 54.167 102 57.5v101h28v-101c21.333 -1.33301 39.833 -5.5 55.5 -12.5
s28.167 -15.667 37.5 -26s16.666 -23.666 21.999 -39.999s9 -32.833 11 -49.5s3 -36.334 3 -59.001v-23h-50v23c0 56.667 -6.83301 95.334 -20.5 116.001s-37.167 31 -70.5 31c-38 0 -63 -13.333 -75 -40s-18 -76 -18 -148v-150c0 -66 6.5 -112.167 19.5 -138.5
s37.833 -39.5 74.5 -39.5c37.333 0 61.666 11.833 72.999 35.5s17 66.167 17 127.5v22h50v-21c0 -26 -0.833008 -47.833 -2.5 -65.5s-5.16699 -35.834 -10.5 -54.501s-12.666 -33.5 -21.999 -44.5s-22.5 -20.167 -39.5 -27.5s-37.167 -11.333 -60.5 -12v-103h-28z" />
    <glyph glyph-name="sterling" unicode="&#xa3;" horiz-adv-x="361" 
d="M16 0v27.001l62 12v354h-62v39h62v127c0 24.667 0.333008 46 1 64s2.16699 36.667 4.5 56s5.83301 35.666 10.5 48.999s10.667 26 18 38s16 21.667 26 29s22.333 13.166 37 17.499s31.334 6.5 50.001 6.5c20 0 37.167 -2.83301 51.5 -8.5s25.833 -13 34.5 -22
s15.667 -20.667 21 -35s8.83301 -28.833 10.5 -43.5s2.83398 -32 3.50098 -52v-20h-41c0 52 -5.33301 88.333 -16 109s-32.334 31 -65.001 31c-12.667 0 -23.834 -1.66699 -33.501 -5s-17.667 -7.66602 -24 -12.999s-11.833 -12.833 -16.5 -22.5
s-8.16699 -19.167 -10.5 -28.5s-4.33301 -21.833 -6 -37.5s-2.66699 -29.667 -3 -42s-0.5 -28.5 -0.5 -48.5v-149h141v-39h-141v-354h213v-39h-327z" />
    <glyph glyph-name="currency" unicode="&#xa4;" horiz-adv-x="511" 
d="M257.5 237c50.333 0 92.834 18.167 127.501 54.5s52 80.166 52 131.499s-17.333 95 -52 131s-77.334 54 -128.001 54s-93.167 -18 -127.5 -54s-51.5 -79.667 -51.5 -131s17.333 -95.166 52 -131.499s77.167 -54.5 127.5 -54.5zM35.001 186l-14 14.999l79 79
c-36 40.667 -54 88.334 -54 143.001s18 102.334 54 143.001l-79 79l14 15l79 -79c39.333 37.333 86.333 56 141 56h2h2c54.667 0 101.667 -18.667 141 -56l79 79l15 -15l-79 -79c36 -40.667 54 -88.334 54 -143.001c0 -55.333 -18 -103 -54 -143l79 -79l-15 -15l-79 79
c-39.333 -37.333 -86.333 -56 -141 -56h-2h-2c-54.667 0 -101.667 18.667 -141 56z" />
    <glyph glyph-name="yen" unicode="&#xa5;" horiz-adv-x="419" 
d="M189 0v107h-106v36h106v105h-106v36h98l-179 526h56l159 -486l151 486h56l-173 -526h96v-36h-104v-105h104v-36h-104v-107h-54z" />
    <glyph glyph-name="brokenbar" unicode="&#xa6;" horiz-adv-x="195" 
d="M75 391v419h47v-419h-47zM75 -180v419h47v-419h-47z" />
    <glyph glyph-name="section" unicode="&#xa7;" horiz-adv-x="384" 
d="M245 271c16.667 7.33301 31.668 17.668 45.001 31.001s20.666 29 21.999 47c0.666992 6 1 10.333 1 13c0 18.667 -5.16699 36.5 -15.5 53.5s-26.833 35.5 -49.5 55.5l-91 80c-21.333 -6.66699 -38.5 -16.834 -51.5 -30.501s-19.5 -30.834 -19.5 -51.501
c0 -23.333 12.333 -47.666 37 -72.999zM196.001 -8.99805c-21.333 0 -40.6689 4.16797 -58.002 12.501s-32.166 20 -44.499 35s-22.5 31.333 -30.5 49s-14.667 37.167 -20 58.5l41 13c8 -36 21.833 -66 41.5 -90s43.5 -36 71.5 -36c27.333 0 49.5 7.66699 66.5 23
s25.5 35.666 25.5 60.999v6c0 16.667 -5.5 34.667 -16.5 54s-34.5 47 -70.5 83l-111 102c-36.667 32.667 -55 67.667 -55 105c0 28 8.66699 51.5 26 70.5s39 33.167 65 42.5c-21.333 20.667 -38 40.167 -50 58.5s-18 37.833 -18 58.5c0 35.333 12 64.333 36 87
s56.667 34 98 34c20 0 38 -4.16699 54 -12.5s29.667 -20 41 -35s20.333 -29.667 27 -44s13 -30.833 19 -49.5l-42 -13c-3.33301 11.333 -6.83301 21 -10.5 29s-8.5 17.5 -14.5 28.5s-12.333 20.167 -19 27.5s-15 13.5 -25 18.5s-20.667 7.5 -32 7.5
c-24 0 -43.5 -7 -58.5 -21s-22.5 -34 -22.5 -60c0 -28.667 22.667 -64 68 -106l103 -86c25.333 -22.667 44.5 -44.667 57.5 -66s19.5 -45.666 19.5 -72.999c0 -2.66699 -0.333008 -7.33398 -1 -14.001c-2 -27.333 -10.167 -49 -24.5 -65s-33.166 -30 -56.499 -42
c22 -26 36.333 -45 43 -57c11.333 -20 17 -40 17 -60v-3c0 -40.667 -12.833 -72.667 -38.5 -96s-59.5 -35 -101.5 -35z" />
    <glyph glyph-name="dieresis" unicode="&#xa8;" horiz-adv-x="372" 
d="M233 734v76h56v-76h-56zM74 734v76h55v-76h-55z" />
    <glyph glyph-name="copyright" unicode="&#xa9;" horiz-adv-x="861" 
d="M431 -11c-40 0 -77.333 4.33398 -112 13.001s-65.5 20.5 -92.5 35.5s-51.5 33 -73.5 54s-40.5 43.833 -55.5 68.5s-27.833 51 -38.5 79s-18.334 56.333 -23.001 85s-7 58 -7 88c0 42 4.83301 82.667 14.5 122s24.834 77.333 45.501 114s46.334 68.667 77.001 96
s68.667 49.166 114 65.499s95.666 24.5 150.999 24.5c46 0 88.833 -5.66699 128.5 -17s74 -27.166 103 -47.499s54.5 -43.833 76.5 -70.5s39.667 -55.834 53 -87.501s23.5 -64.167 30.5 -97.5s10.5 -67.333 10.5 -102c0 -29.333 -2.5 -58.5 -7.5 -87.5
s-12.5 -57.5 -22.5 -85.5s-22.667 -54.333 -38 -79s-34 -47.5 -56 -68.5s-46.333 -39 -73 -54s-57.5 -26.833 -92.5 -35.5s-72.5 -13 -112.5 -13zM432 19.001c49.333 0 94.5 7.33301 135.5 22s75.5 34.5 103.5 59.5s51.667 54.333 71 88s33.5 69.334 42.5 107.001
s13.5 76.834 13.5 117.501s-4.5 79.667 -13.5 117s-23.167 72.833 -42.5 106.5s-43 62.667 -71 87s-62.5 43.833 -103.5 58.5s-86.167 22 -135.5 22s-94.666 -7.33301 -135.999 -22s-76 -34.167 -104 -58.5s-51.667 -53.333 -71 -87s-33.5 -69.167 -42.5 -106.5
s-13.5 -76.333 -13.5 -117s4.5 -79.834 13.5 -117.501s23.167 -73.334 42.5 -107.001s43 -63 71 -88s62.667 -44.833 104 -59.5s86.666 -22 135.999 -22zM418 120.001c-23.333 0 -43.8242 2.49707 -61.4912 7.49707s-32.334 13 -44.001 24s-21.334 23.167 -29.001 36.5
s-13.334 29.833 -17.001 49.5s-6.33398 38.667 -8.00098 57s-2.5 40.166 -2.5 65.499v118c0 38 1.66699 70.5 5 97.5s8.66602 50.5 15.999 70.5s17.333 35.667 30 47s28 19.833 46 25.5s39.667 8.5 65 8.5c26 0 48.333 -3.16699 67 -9.5s33.5 -14.666 44.5 -24.999
s19.667 -24.166 26 -41.499s10.666 -34.833 12.999 -52.5s3.5 -39.167 3.5 -64.5v-27h-51v27c0 32 -2 57.833 -6 77.5s-10.5 34.834 -19.5 45.501s-19.333 17.834 -31 21.501s-27.167 5.5 -46.5 5.5c-42.667 0 -70.834 -14 -84.501 -42s-20.5 -80.667 -20.5 -158v-132
c0 -70.667 7.33301 -119.834 22 -147.501s42.667 -41.5 84 -41.5c17.333 0 31.833 1.66699 43.5 5s21.5 8.5 29.5 15.5s14 17.5 18 31.5s6.83301 29.5 8.5 46.5s2.5 38.833 2.5 65.5v27h51v-25c0 -20 -0.333008 -37.167 -1 -51.5s-2.33398 -29.333 -5.00098 -45
s-6.16699 -28.667 -10.5 -39s-10.333 -20.666 -18 -30.999s-16.834 -18.333 -27.501 -24s-23.667 -10.167 -39 -13.5s-33 -5 -53 -5z" />
    <glyph glyph-name="ordfeminine" unicode="&#xaa;" horiz-adv-x="392" 
d="M183 388c40 0 71.334 21.667 94.001 65v142c-61.333 -28 -100 -47.333 -116 -58c-22.667 -15.333 -36.334 -33.333 -41.001 -54c-2 -8 -3 -17.333 -3 -28c0 -23.333 6.5 -40.333 19.5 -51s28.5 -16 46.5 -16zM173.001 351c-30.667 0 -55.3311 8.99805 -73.998 26.998
s-28 42 -28 72c0 20 2.5 36.5 7.5 49.5s15.833 26.167 32.5 39.5s37.167 25.833 61.5 37.5s59.166 26.834 104.499 45.501v38c0 46.667 -5 79.167 -15 97.5s-27.667 27.5 -53 27.5c-54 0 -80.667 -30.333 -80 -91l-44 1c2 83.333 43.333 125 124 125
c42.667 0 72.5 -12.667 89.5 -38s25.5 -67.666 25.5 -126.999v-297h-40l-4 58c-8.66699 -19.333 -22.834 -35 -42.501 -47s-41.167 -18 -64.5 -18z" />
    <glyph glyph-name="guillemotleft" unicode="&#xab;" horiz-adv-x="408" 
d="M354 113l-169 208v21l169 208v-69l-120 -149l120 -150v-69zM209 113l-168 208v21l168 208v-69l-120 -148l120 -151v-69z" />
    <glyph glyph-name="logicalnot" unicode="&#xac;" horiz-adv-x="349" 
d="M282 284v112h-241v44h278v-156h-37z" />
    <glyph glyph-name="uni00AD" unicode="&#xad;" horiz-adv-x="328" 
d="M57 312v42h220v-42h-220z" />
    <glyph glyph-name="registered" unicode="&#xae;" horiz-adv-x="869" 
d="M435.5 -12c-55 0 -105.336 8.16699 -151.003 24.5s-83.667 38.166 -114 65.499s-56 59.333 -77 96s-36.167 74.667 -45.5 114s-14 80 -14 122c0 34.667 3.33301 68.667 10 102s16.834 65.833 30.501 97.5s31.5 60.834 53.5 87.501s47.5 50 76.5 70
s63.167 35.667 102.5 47s82 17 128 17c55.333 0 105.5 -8.16699 150.5 -24.5s82.833 -38 113.5 -65s56.334 -58.833 77.001 -95.5s35.667 -74.834 45 -114.501s14 -80.167 14 -121.5c0 -42 -4.66699 -82.667 -14 -122s-24.333 -77.333 -45 -114s-46.167 -68.667 -76.5 -96
s-68.166 -49.166 -113.499 -65.499s-95.5 -24.5 -150.5 -24.5zM434.997 21c48.667 0 93.334 7.16699 134.001 21.5s74.834 33.833 102.501 58.5s51.167 53.667 70.5 87s33.333 68.666 42 105.999s13 76 13 116c0 40.667 -4.33301 79.5 -13 116.5s-22.667 72.167 -42 105.5
s-42.833 62.166 -70.5 86.499s-61.834 43.666 -102.501 57.999s-85.334 21.5 -134.001 21.5c-49.333 0 -94.333 -7.16699 -135 -21.5s-74.834 -33.666 -102.501 -57.999s-51.167 -53.166 -70.5 -86.499s-33.333 -68.5 -42 -105.5s-13 -75.833 -13 -116.5
c0 -40 4.33301 -78.667 13 -116s22.667 -72.666 42 -105.999s42.833 -62.333 70.5 -87s61.834 -44.167 102.501 -58.5s85.667 -21.5 135 -21.5zM350.997 443l110.999 -0.000976562c20 0 36.667 2.66699 50 8s23.333 13.833 30 25.5s11.334 24.334 14.001 38.001
s4 30.5 4 50.5c0 40 -6.83301 69.5 -20.5 88.5s-38.167 28.5 -73.5 28.5h-115v-239zM302.996 109.999l-0.000976562 607.998h168c91.333 0 137 -51 137 -153c0 -18 -1.5 -34.833 -4.5 -50.5s-8.16699 -30.167 -15.5 -43.5s-17.666 -24.666 -30.999 -33.999
s-29 -15.666 -47 -18.999l103 -308h-50l-98 301h-114v-301h-48z" />
    <glyph glyph-name="macron" unicode="&#xaf;" horiz-adv-x="370" 
d="M102 773v37h171v-37h-171z" />
    <glyph glyph-name="degree" unicode="&#xb0;" horiz-adv-x="389" 
d="M195 550c-17.333 0 -33.668 2.50098 -49.001 7.50098s-29.666 12.833 -42.999 23.5s-23.666 24.834 -30.999 42.501s-11 38.167 -11 61.5c0 44.667 13 78 39 100s57.667 33 95 33c17.333 0 33.666 -2.5 48.999 -7.5s29.5 -12.667 42.5 -23s23.333 -24.333 31 -42
s11.5 -37.834 11.5 -60.501c0 -44.667 -13.167 -78.334 -39.5 -101.001s-57.833 -34 -94.5 -34zM194.498 587.001c25.667 0 47.334 8.16699 65.001 24.5s26.5 40.5 26.5 72.5c0 32.667 -8.83301 57.334 -26.5 74.001s-39.334 25 -65.001 25s-47.167 -8.33301 -64.5 -25
s-26 -41.334 -26 -74.001c0 -32 8.66699 -56.167 26 -72.5s38.833 -24.5 64.5 -24.5z" />
    <glyph glyph-name="plusminus" unicode="&#xb1;" horiz-adv-x="321" 
d="M49 0v48h233v-48h-233zM141 183v92h-92v48h92v91h49v-91h92v-48h-92v-92h-49z" />
    <glyph glyph-name="twosuperior" unicode="&#xb2;" horiz-adv-x="400" 
d="M81 353v36l137 209c2.66699 4 7.5 11.333 14.5 22s11.833 18 14.5 22s6.33398 10.5 11.001 19.5s8 16.667 10 23s3.83301 14.333 5.5 24s2.5 19.5 2.5 29.5c0 61.333 -23.333 92 -70 92c-18.667 0 -34.334 -5.83301 -47.001 -17.5s-21.5 -25.667 -26.5 -42
s-7.5 -34.166 -7.5 -53.499h-42v11c0 47.333 9.83301 82.666 29.5 105.999s50.5 35 92.5 35c37.333 0 66.333 -11 87 -33s31 -54 31 -96c0 -28 -5 -53.333 -15 -76s-25.333 -49.667 -46 -81l-128 -190h173v-40h-226z" />
    <glyph glyph-name="threesuperior" unicode="&#xb3;" horiz-adv-x="401" 
d="M199 346c-77.333 0 -116.003 42.332 -116.003 126.999v14h50v-17c0 -54.667 22.333 -81.667 67 -81c23.333 0 42 8 56 24s21 41 21 75c0 32 -6.16699 57.667 -18.5 77s-29.166 29 -50.499 29h-40v41h40c44.667 0 66.667 36 66 108c0 28 -5.66699 49.167 -17 63.5
s-28 21.5 -50 21.5c-25.333 0 -43.666 -6.5 -54.999 -19.5s-17 -32.5 -17 -58.5v-18h-51v16c0 37.333 10.167 66.833 30.5 88.5s50.833 32.5 91.5 32.5c38.667 0 67.667 -11.5 87 -34.5s29 -54.167 29 -93.5c0 -35.333 -6.5 -63.666 -19.5 -84.999s-28.5 -34.333 -46.5 -39
c46 -16.667 69 -58.667 69 -126c0 -44 -10.667 -79.167 -32 -105.5s-52.666 -39.5 -93.999 -39.5z" />
    <glyph glyph-name="acute" unicode="&#xb4;" horiz-adv-x="206" 
d="M42 616l65 194h54l-90 -194h-29z" />
    <glyph glyph-name="mu" unicode="&#xb5;" horiz-adv-x="407" 
d="M52 -172l-0.00195312 749.999h53v-455c0 -33.333 5.16699 -56.833 15.5 -70.5s25.333 -20.5 45 -20.5s39.834 6.33301 60.501 19s40.334 29.667 59.001 51v476h52v-578h-52v68c-37.333 -47.333 -81 -72.666 -131 -75.999c-20.667 0 -37 5.33301 -49 16v-180h-53z" />
    <glyph glyph-name="paragraph" unicode="&#xb6;" horiz-adv-x="480" 
d="M201 -94v633h-3c-54 0 -96 11.5 -126 34.5s-45 56.167 -45 99.5c0 42 14 75.333 42 100s71.667 37 131 37h205v-904h-40v868h-124v-868h-40z" />
    <glyph glyph-name="periodcentered" unicode="&#xb7;" horiz-adv-x="194" 
d="M81 340v75h55v-75h-55z" />
    <glyph glyph-name="cedilla" unicode="&#xb8;" horiz-adv-x="208" 
d="M26 -185v28.998c6 0 14.333 -0.333008 25 -1c22.667 0 39 2.83301 49 8.5s15.333 14.834 16 27.501v5c0 29.333 -22.667 47.333 -68 54v62h29v-47c24.667 -3.33301 44.167 -12 58.5 -26s21.5 -30 21.5 -48v-4c-2 -41.333 -34.333 -61.666 -97 -60.999
c-10.667 0 -22 0.333008 -34 1z" />
    <glyph glyph-name="onesuperior" unicode="&#xb9;" horiz-adv-x="390" 
d="M195 352v452c-7.33301 -10.667 -20 -20 -38 -28s-35 -13.667 -51 -17v35c40.667 14 72 37 94 69h40v-511h-45z" />
    <glyph glyph-name="ordmasculine" unicode="&#xba;" horiz-adv-x="392" 
d="M195.5 384c33.667 0 57.001 9.83398 70.001 29.501s19.5 47.834 19.5 84.501v175c0 36 -6.5 64 -19.5 84s-36.5 30 -70.5 30c-32.667 0 -55.834 -9.83301 -69.501 -29.5s-20.5 -47.834 -20.5 -84.501v-175c0 -36.667 6.66699 -64.834 20 -84.501s36.833 -29.5 70.5 -29.5
zM195.501 351.001c-25.667 0 -47.3311 3.33301 -64.998 10s-31.167 16.834 -40.5 30.501s-16 28.834 -20 45.501s-6 36.667 -6 60v177c0 46.667 10 82.667 30 108s54 38 102 38s82 -12.667 102 -38s30 -61.333 30 -108v-177c0 -22.667 -2 -42.334 -6 -59.001
s-10.833 -31.834 -20.5 -45.501s-23.334 -24 -41.001 -31s-39.334 -10.5 -65.001 -10.5z" />
    <glyph glyph-name="guillemotright" unicode="&#xbb;" horiz-adv-x="415" 
d="M197 113v69l122 148l-122 151v69l171 -208v-21zM52 113v69l122 149l-122 150v69l172 -208v-21z" />
    <glyph glyph-name="onequarter" unicode="&#xbc;" horiz-adv-x="752" 
d="M492 175h114v272zM191 0l289 810h48l-288 -810h-49zM128 288l-0.000976562 459.002l-74 -38v39c14 7.33301 30.833 17.666 50.5 30.999s32.834 23.666 39.501 30.999h28v-522h-44zM605.999 -6.99805v146h-155v34l155 345h46v-343h64v-36h-64v-146h-46z" />
    <glyph glyph-name="onehalf" unicode="&#xbd;" horiz-adv-x="752" 
d="M193 0l288 810h48l-288 -810h-48zM135 288l-0.000976562 459.002l-75 -38v39c14 7.33301 30.833 17.666 50.5 30.999s32.834 23.666 39.501 30.999h28v-522h-43zM485.999 0.00195312l-0.00390625 35.001l122 179c2 3.33301 6.5 10 13.5 20s11.833 16.833 14.5 20.5
s6.33398 9.83398 11.001 18.501s8 16 10 22s3.83301 13.333 5.5 22s2.5 17.667 2.5 27c0 56.667 -21.333 85.334 -64 86.001c-26 0 -44.333 -7.83301 -55 -23.5s-16 -39.834 -16 -72.501h-43v8c0 42 9.33301 73.167 28 93.5s47.334 30.5 86.001 30.5
c34.667 0 61.834 -10.333 81.501 -31s29.5 -50 29.5 -88c0 -26.667 -5.66699 -51.834 -17 -75.501s-28.333 -50.834 -51 -81.501c-1.33301 -1.33301 -10.666 -14.5 -27.999 -39.5l-52 -75c-17.333 -25 -26.333 -38.167 -27 -39.5h163v-36h-214z" />
    <glyph glyph-name="threequarters" unicode="&#xbe;" horiz-adv-x="752" 
d="M500 175h115v272zM202 0l288 810h48l-288 -810h-48zM615 -7v146h-157v34l156 345h45v-343h64v-36h-64v-146h-44zM138 342c-34.667 0 -60.835 9.83203 -78.502 29.499s-26.5 46.5 -26.5 80.5l48 -2c0 -48.667 19.667 -73 59 -73c44.667 0 67.334 31 68.001 93
c0 30 -6 53.333 -18 70s-28.333 25 -49 25v37c22 0 38.167 7.33301 48.5 22s15.5 39 15.5 73c0 53.333 -19.333 79.666 -58 78.999c-23.333 0 -39.833 -6 -49.5 -18s-14.5 -30 -14.5 -54l-48 -1c0 34.667 9 61.5 27 80.5s46 28.5 84 28.5
c34.667 0 60.834 -10.667 78.501 -32s26.5 -49.166 26.5 -83.499s-6.66699 -61 -20 -80s-30 -29.833 -50 -32.5c48.667 -12 73 -49.667 73 -113c0 -39.333 -10 -70.666 -30 -93.999s-48.667 -35 -86 -35z" />
    <glyph glyph-name="questiondown" unicode="&#xbf;" horiz-adv-x="432" 
d="M193 529v73h52v-73h-52zM193 -217c-25.333 0 -49.002 4.33301 -71.002 13s-41.5 21.5 -58.5 38.5s-30.5 39.167 -40.5 66.5s-15 58.666 -15 93.999c0 42.667 7.33301 81.834 22 117.501s35.334 67.667 62.001 96s61.667 57.166 105 86.499v107h46v-123
c-66 -43.333 -113.167 -87.5 -141.5 -132.5s-42.5 -95.5 -42.5 -151.5c0 -54.667 12.833 -96 38.5 -124s57.5 -42 95.5 -42c36.667 0 66 8.5 88 25.5s33 41.167 33 72.5c0 12 -1.33301 23.333 -4 34l-8 36l47 11l9 -36c4 -15.333 6 -31.666 6 -48.999
c0 -44.667 -16.167 -79.167 -48.5 -103.5s-73.166 -36.5 -122.499 -36.5z" />
    <glyph glyph-name="Agrave" unicode="&#xc0;" horiz-adv-x="468" 
d="M221 879l-81 194h54l54 -194h-27zM137 264h195l-98 480zM32 0l170 810h63l171 -810h-55l-42 224h-210l-43 -224h-54z" />
    <glyph glyph-name="Aacute" unicode="&#xc1;" horiz-adv-x="468" 
d="M220 879l64 194h54l-90 -194h-28zM137 264h195l-98 480zM32 0l170 810h63l171 -810h-55l-42 224h-210l-43 -224h-54z" />
    <glyph glyph-name="Acircumflex" unicode="&#xc2;" horiz-adv-x="468" 
d="M116 878l86 180h66l85 -180h-38l-80 153l-80 -153h-39zM137 264h195l-98 480zM32 0l170 810h63l171 -810h-55l-42 224h-210l-43 -224h-54z" />
    <glyph glyph-name="Atilde" unicode="&#xc3;" horiz-adv-x="468" 
d="M277 879c-12.667 0.666992 -28.833 8.16797 -48.5 22.501s-32.834 21.833 -39.501 22.5c-2 0.666992 -5 1 -9 1c-8.66699 0 -15.5 -3.33301 -20.5 -10s-7.5 -16.334 -7.5 -29.001h-36c0 4 0.333008 8.66699 1 14s2.33398 11.833 5.00098 19.5s6 14.5 10 20.5
s10 11.167 18 15.5s17.333 6.5 28 6.5c6 0 10.333 -0.333008 13 -1c12 -1.33301 28 -9 48 -23s33.667 -21.667 41 -23h6c20 0 30.667 15 32 45h34c0 -7.33301 -0.666992 -15 -2 -23s-4 -16.667 -8 -26s-10.833 -17 -20.5 -23s-21.167 -9 -34.5 -9h-10zM137.001 264.001h195
l-98 480zM32.001 0.000976562l170 810h63l171 -810h-55l-42 224h-210l-43 -224h-54z" />
    <glyph glyph-name="Adieresis" unicode="&#xc4;" horiz-adv-x="468" 
d="M286 878v76h56v-76h-56zM127 878v76h55v-76h-55zM137 264h195l-98 480zM32 0l170 810h63l171 -810h-55l-42 224h-210l-43 -224h-54z" />
    <glyph glyph-name="Aring" unicode="&#xc5;" horiz-adv-x="468" 
d="M234.5 844c15 0 27.5 4.5 37.5 13.5s15 22.5 15 40.5c0 18.667 -5 32.5 -15 41.5s-22.5 13.5 -37.5 13.5s-27.667 -4.5 -38 -13.5s-15.5 -22.833 -15.5 -41.5c0 -18 5.16699 -31.5 15.5 -40.5s23 -13.5 38 -13.5zM234 813c-23.333 0 -43.5 7.16699 -60.5 21.5
s-25.5 35.5 -25.5 63.5s8.33301 49.167 25 63.5s37 21.5 61 21.5c23.333 0 43.5 -7.16699 60.5 -21.5s25.5 -35.5 25.5 -63.5s-8.5 -49.167 -25.5 -63.5s-37.167 -21.5 -60.5 -21.5zM137 264h195l-98 480zM32 0l170 810h63l171 -810h-55l-42 224h-210l-43 -224h-54z" />
    <glyph glyph-name="AE" unicode="&#xc6;" horiz-adv-x="631" 
d="M148 268h166v459zM-15 0l314 810h297v-48h-224v-317h160v-44h-160v-354h224v-47h-281v224h-183l-83 -224h-64z" />
    <glyph glyph-name="Ccedilla" unicode="&#xc7;" horiz-adv-x="488" 
d="M202 -185v28.998c6 0 14.333 -0.333008 25 -1c22.667 0 39 2.83301 49 8.5s15.333 14.834 16 27.501v5c0 29.333 -22.667 47.333 -68 54v62h29v-47c24.667 -3.33301 44.167 -12 58.5 -26s21.5 -30 21.5 -48v-4c-2 -41.333 -34.333 -61.666 -97 -60.999
c-10.667 0 -22 0.333008 -34 1zM255 -11.002c-31.333 0 -58.6699 4.33398 -82.0029 13.001s-42.166 20 -56.499 34s-26 31.667 -35 53s-15.167 43.5 -18.5 66.5s-5 48.833 -5 77.5v344c0 29.333 1.83301 55.666 5.5 78.999s10 45.333 19 66s21 38 36 52s33.833 25 56.5 33
s49.334 12 80.001 12c34.667 0 64.167 -5.33301 88.5 -16s43.333 -26.334 57 -47.001s23.667 -44.334 30 -71.001s9.5 -58 9.5 -94v-41h-52v41c0 62 -9.5 108 -28.5 138s-53.833 45 -104.5 45c-28.667 0 -52.5 -4.33301 -71.5 -13s-33.5 -22 -43.5 -40
s-17 -37.833 -21 -59.5s-6 -47.834 -6 -78.501v-358c0 -25.333 1.33301 -47.5 4 -66.5s7.16699 -36.5 13.5 -52.5s14.833 -29.167 25.5 -39.5s24.334 -18.333 41.001 -24s36 -8.5 58 -8.5c26.667 0 48.834 4.33301 66.501 13s31.167 21.334 40.5 38.001s16 35.5 20 56.5
s6 46.5 6 76.5v49h52v-40c0 -28.667 -1.66699 -54.667 -5 -78s-9.33301 -45.166 -18 -65.499s-19.834 -37.166 -33.501 -50.499s-31.5 -24 -53.5 -32s-47 -12 -75 -12z" />
    <glyph glyph-name="Egrave" unicode="&#xc8;" horiz-adv-x="392" 
d="M202 879l-81 194h54l54 -194h-27zM74 0v810h280v-44h-225v-325h185v-42h-185v-356h228v-43h-283z" />
    <glyph glyph-name="Eacute" unicode="&#xc9;" horiz-adv-x="392" 
d="M202 879l64 194h54l-90 -194h-28zM74 0v810h280v-44h-225v-325h185v-42h-185v-356h228v-43h-283z" />
    <glyph glyph-name="Ecircumflex" unicode="&#xca;" horiz-adv-x="392" 
d="M98 878l86 180h66l85 -180h-38l-80 153l-80 -153h-39zM74 0v810h280v-44h-225v-325h185v-42h-185v-356h228v-43h-283z" />
    <glyph glyph-name="Edieresis" unicode="&#xcb;" horiz-adv-x="392" 
d="M267 878v76h56v-76h-56zM108 878v76h55v-76h-55zM74 0v810h280v-44h-225v-325h185v-42h-185v-356h228v-43h-283z" />
    <glyph glyph-name="Igrave" unicode="&#xcc;" horiz-adv-x="206" 
d="M90 879l-81 194h54l54 -194h-27zM76 0v810h54v-810h-54z" />
    <glyph glyph-name="Iacute" unicode="&#xcd;" horiz-adv-x="206" 
d="M89 879l64 194h54l-90 -194h-28zM76 0v810h54v-810h-54z" />
    <glyph glyph-name="Icircumflex" unicode="&#xce;" horiz-adv-x="206" 
d="M-15 878l86 180h66l85 -180h-38l-80 153l-80 -153h-39zM76 0v810h54v-810h-54z" />
    <glyph glyph-name="Idieresis" unicode="&#xcf;" horiz-adv-x="206" 
d="M155 878v76h56v-76h-56zM-4 878v76h55v-76h-55zM76 0v810h54v-810h-54z" />
    <glyph glyph-name="Eth" unicode="&#xd0;" horiz-adv-x="561" 
d="M75 0l0.000976562 408h-66v37h66v365h177c39.333 0 72.833 -6 100.5 -18s49 -28.833 64 -50.5s25.833 -46 32.5 -73s10 -57.5 10 -91.5v-336c0 -36.667 -3.33301 -69 -10 -97s-17.334 -53.167 -32.001 -75.5s-35.5 -39.333 -62.5 -51s-59.5 -17.5 -97.5 -17.5h-182z
M129.001 43l125.001 -0.00195312c25.333 0 47.333 3.66699 66 11s33.334 16.833 44.001 28.5s19 26.834 25 45.501s10 37 12 55s3 39.333 3 64v326c0 25.333 -1.33301 47.333 -4 66s-7.33398 36.334 -14.001 53.001s-15.667 30.167 -27 40.5s-25.833 18.5 -43.5 24.5
s-38.834 9 -63.501 9h-123v-321h94v-37h-94v-365z" />
    <glyph glyph-name="Ntilde" unicode="&#xd1;" horiz-adv-x="515" 
d="M301 879c-12.667 0.666992 -28.833 8.16797 -48.5 22.501s-32.834 21.833 -39.501 22.5c-2 0.666992 -5 1 -9 1c-8.66699 0 -15.5 -3.33301 -20.5 -10s-7.5 -16.334 -7.5 -29.001h-36c0 4 0.333008 8.66699 1 14s2.33398 11.833 5.00098 19.5s6 14.5 10 20.5
s10 11.167 18 15.5s17.333 6.5 28 6.5c6 0 10.333 -0.333008 13 -1c12 -1.33301 28 -9 48 -23s33.667 -21.667 41 -23h6c20 0 30.667 15 32 45h34c0 -7.33301 -0.666992 -15 -2 -23s-4 -16.667 -8 -26s-10.833 -17 -20.5 -23s-21.167 -9 -34.5 -9h-10zM75.001 0.000976562
v810h43l275 -684v684h48v-810h-43l-275 685v-685h-48z" />
    <glyph glyph-name="Ograve" unicode="&#xd2;" horiz-adv-x="515" 
d="M244 879l-81 194h54l54 -194h-27zM257.5 -11c-31 0 -58.168 4.00098 -81.501 12.001s-42.333 19 -57 33s-26.667 31.333 -36 52s-15.833 42.667 -19.5 66s-5.5 49.333 -5.5 78v354c0 28.667 1.83301 54.5 5.5 77.5s10.334 44.5 20.001 64.5s22.167 36.667 37.5 50
s34.333 23.833 57 31.5s49.334 11.5 80.001 11.5c37.333 0 69.166 -5.66699 95.499 -17s47 -27.833 62 -49.5s25.833 -46.167 32.5 -73.5s10 -59 10 -95v-355c0 -28.667 -1.83301 -54.667 -5.5 -78s-10.167 -45.333 -19.5 -66s-21.5 -37.834 -36.5 -51.501
s-34.167 -24.5 -57.5 -32.5s-50.5 -12 -81.5 -12zM257.499 34.001c28.333 0 52.166 4.33301 71.499 13s34.333 21.5 45 38.5s18.167 36 22.5 57s6.5 46.167 6.5 75.5v374c0 29.333 -2.16699 54.5 -6.5 75.5s-11.833 39.833 -22.5 56.5s-25.667 29.167 -45 37.5
s-43.166 12.5 -71.499 12.5s-52.166 -4.16699 -71.499 -12.5s-34.333 -20.833 -45 -37.5s-18 -35.5 -22 -56.5s-6 -46.167 -6 -75.5v-374c0 -29.333 2 -54.5 6 -75.5s11.333 -40 22 -57s25.667 -29.833 45 -38.5s43.166 -13 71.499 -13z" />
    <glyph glyph-name="Oacute" unicode="&#xd3;" horiz-adv-x="515" 
d="M244 879l64 194h54l-90 -194h-28zM257.5 -11c-31 0 -58.168 4.00098 -81.501 12.001s-42.333 19 -57 33s-26.667 31.333 -36 52s-15.833 42.667 -19.5 66s-5.5 49.333 -5.5 78v354c0 28.667 1.83301 54.5 5.5 77.5s10.334 44.5 20.001 64.5s22.167 36.667 37.5 50
s34.333 23.833 57 31.5s49.334 11.5 80.001 11.5c37.333 0 69.166 -5.66699 95.499 -17s47 -27.833 62 -49.5s25.833 -46.167 32.5 -73.5s10 -59 10 -95v-355c0 -28.667 -1.83301 -54.667 -5.5 -78s-10.167 -45.333 -19.5 -66s-21.5 -37.834 -36.5 -51.501
s-34.167 -24.5 -57.5 -32.5s-50.5 -12 -81.5 -12zM257.499 34.001c28.333 0 52.166 4.33301 71.499 13s34.333 21.5 45 38.5s18.167 36 22.5 57s6.5 46.167 6.5 75.5v374c0 29.333 -2.16699 54.5 -6.5 75.5s-11.833 39.833 -22.5 56.5s-25.667 29.167 -45 37.5
s-43.166 12.5 -71.499 12.5s-52.166 -4.16699 -71.499 -12.5s-34.333 -20.833 -45 -37.5s-18 -35.5 -22 -56.5s-6 -46.167 -6 -75.5v-374c0 -29.333 2 -54.5 6 -75.5s11.333 -40 22 -57s25.667 -29.833 45 -38.5s43.166 -13 71.499 -13z" />
    <glyph glyph-name="Ocircumflex" unicode="&#xd4;" horiz-adv-x="515" 
d="M140 878l86 180h66l85 -180h-38l-80 153l-80 -153h-39zM257.5 -11c-31 0 -58.168 4.00098 -81.501 12.001s-42.333 19 -57 33s-26.667 31.333 -36 52s-15.833 42.667 -19.5 66s-5.5 49.333 -5.5 78v354c0 28.667 1.83301 54.5 5.5 77.5s10.334 44.5 20.001 64.5
s22.167 36.667 37.5 50s34.333 23.833 57 31.5s49.334 11.5 80.001 11.5c37.333 0 69.166 -5.66699 95.499 -17s47 -27.833 62 -49.5s25.833 -46.167 32.5 -73.5s10 -59 10 -95v-355c0 -28.667 -1.83301 -54.667 -5.5 -78s-10.167 -45.333 -19.5 -66
s-21.5 -37.834 -36.5 -51.501s-34.167 -24.5 -57.5 -32.5s-50.5 -12 -81.5 -12zM257.499 34.001c28.333 0 52.166 4.33301 71.499 13s34.333 21.5 45 38.5s18.167 36 22.5 57s6.5 46.167 6.5 75.5v374c0 29.333 -2.16699 54.5 -6.5 75.5s-11.833 39.833 -22.5 56.5
s-25.667 29.167 -45 37.5s-43.166 12.5 -71.499 12.5s-52.166 -4.16699 -71.499 -12.5s-34.333 -20.833 -45 -37.5s-18 -35.5 -22 -56.5s-6 -46.167 -6 -75.5v-374c0 -29.333 2 -54.5 6 -75.5s11.333 -40 22 -57s25.667 -29.833 45 -38.5s43.166 -13 71.499 -13z" />
    <glyph glyph-name="Otilde" unicode="&#xd5;" horiz-adv-x="515" 
d="M301 879c-12.667 0.666992 -28.833 8.16797 -48.5 22.501s-32.834 21.833 -39.501 22.5c-2 0.666992 -5 1 -9 1c-8.66699 0 -15.5 -3.33301 -20.5 -10s-7.5 -16.334 -7.5 -29.001h-36c0 4 0.333008 8.66699 1 14s2.33398 11.833 5.00098 19.5s6 14.5 10 20.5
s10 11.167 18 15.5s17.333 6.5 28 6.5c6 0 10.333 -0.333008 13 -1c12 -1.33301 28 -9 48 -23s33.667 -21.667 41 -23h6c20 0 30.667 15 32 45h34c0 -7.33301 -0.666992 -15 -2 -23s-4 -16.667 -8 -26s-10.833 -17 -20.5 -23s-21.167 -9 -34.5 -9h-10zM257.501 -10.999
c-31 0 -58.168 4.00098 -81.501 12.001s-42.333 19 -57 33s-26.667 31.333 -36 52s-15.833 42.667 -19.5 66s-5.5 49.333 -5.5 78v354c0 28.667 1.83301 54.5 5.5 77.5s10.334 44.5 20.001 64.5s22.167 36.667 37.5 50s34.333 23.833 57 31.5s49.334 11.5 80.001 11.5
c37.333 0 69.166 -5.66699 95.499 -17s47 -27.833 62 -49.5s25.833 -46.167 32.5 -73.5s10 -59 10 -95v-355c0 -28.667 -1.83301 -54.667 -5.5 -78s-10.167 -45.333 -19.5 -66s-21.5 -37.834 -36.5 -51.501s-34.167 -24.5 -57.5 -32.5s-50.5 -12 -81.5 -12zM257.5 34.002
c28.333 0 52.166 4.33301 71.499 13s34.333 21.5 45 38.5s18.167 36 22.5 57s6.5 46.167 6.5 75.5v374c0 29.333 -2.16699 54.5 -6.5 75.5s-11.833 39.833 -22.5 56.5s-25.667 29.167 -45 37.5s-43.166 12.5 -71.499 12.5s-52.166 -4.16699 -71.499 -12.5
s-34.333 -20.833 -45 -37.5s-18 -35.5 -22 -56.5s-6 -46.167 -6 -75.5v-374c0 -29.333 2 -54.5 6 -75.5s11.333 -40 22 -57s25.667 -29.833 45 -38.5s43.166 -13 71.499 -13z" />
    <glyph glyph-name="Odieresis" unicode="&#xd6;" horiz-adv-x="515" 
d="M309 878v76h56v-76h-56zM150 878v76h55v-76h-55zM257.5 -11c-31 0 -58.168 4.00098 -81.501 12.001s-42.333 19 -57 33s-26.667 31.333 -36 52s-15.833 42.667 -19.5 66s-5.5 49.333 -5.5 78v354c0 28.667 1.83301 54.5 5.5 77.5s10.334 44.5 20.001 64.5
s22.167 36.667 37.5 50s34.333 23.833 57 31.5s49.334 11.5 80.001 11.5c37.333 0 69.166 -5.66699 95.499 -17s47 -27.833 62 -49.5s25.833 -46.167 32.5 -73.5s10 -59 10 -95v-355c0 -28.667 -1.83301 -54.667 -5.5 -78s-10.167 -45.333 -19.5 -66
s-21.5 -37.834 -36.5 -51.501s-34.167 -24.5 -57.5 -32.5s-50.5 -12 -81.5 -12zM257.499 34.001c28.333 0 52.166 4.33301 71.499 13s34.333 21.5 45 38.5s18.167 36 22.5 57s6.5 46.167 6.5 75.5v374c0 29.333 -2.16699 54.5 -6.5 75.5s-11.833 39.833 -22.5 56.5
s-25.667 29.167 -45 37.5s-43.166 12.5 -71.499 12.5s-52.166 -4.16699 -71.499 -12.5s-34.333 -20.833 -45 -37.5s-18 -35.5 -22 -56.5s-6 -46.167 -6 -75.5v-374c0 -29.333 2 -54.5 6 -75.5s11.333 -40 22 -57s25.667 -29.833 45 -38.5s43.166 -13 71.499 -13z" />
    <glyph glyph-name="multiply" unicode="&#xd7;" horiz-adv-x="335" 
d="M64 256l-28 29l103 104l-103 104l28 27l104 -103l103 103l29 -27l-104 -104l104 -104l-29 -29l-103 104z" />
    <glyph glyph-name="Oslash" unicode="&#xd8;" horiz-adv-x="522" 
d="M150 74l196.002 678c-22 14.667 -51.333 22 -88 22c-28 0 -51.833 -4.16699 -71.5 -12.5s-34.834 -20.833 -45.501 -37.5s-18 -35.5 -22 -56.5s-6 -46.167 -6 -75.5v-374c-0.666992 -68 11.666 -116 36.999 -144zM258.002 34c28 0 51.666 4.33398 70.999 13.001
s34.333 21.5 45 38.5s18.167 36 22.5 57s6.5 46.167 6.5 75.5v374c0 15.333 -0.666992 29.5 -2 42.5s-3.16602 25.5 -5.49902 37.5s-6 23.167 -11 33.5s-10.5 19.166 -16.5 26.499l-196 -677c22 -14 50.667 -21 86 -21zM129.001 -94.999l-25.002 8.00293l31 108
c-28 19.333 -47.833 46.666 -59.5 81.999s-17.5 77.666 -17.5 126.999v354c0 28.667 1.83301 54.5 5.5 77.5s10.334 44.5 20.001 64.5s22.167 36.667 37.5 50s34.333 23.833 57 31.5s49.334 11.5 80.001 11.5c40 0 74 -6.66699 102 -20l28 97l25 -7l-30 -104
c50 -36 75 -103 75 -201v-355c0 -28.667 -1.83301 -54.667 -5.5 -78s-10.167 -45.333 -19.5 -66s-21.5 -37.834 -36.5 -51.501s-34.167 -24.5 -57.5 -32.5s-50.333 -12 -81 -12c-39.333 0 -72.333 6.33301 -99 19z" />
    <glyph glyph-name="Ugrave" unicode="&#xd9;" horiz-adv-x="533" 
d="M253 879l-81 194h54l54 -194h-27zM267 -11c-38.667 0 -71.501 5 -98.501 15s-47.833 24.333 -62.5 43s-25.167 39.667 -31.5 63s-9.5 50 -9.5 80v620h54v-621c0 -24 2.16699 -44.833 6.5 -62.5s12 -33.667 23 -48s26.333 -25.333 46 -33s43.834 -11.5 72.501 -11.5
c98.667 0 148 51.667 148 155v621h53v-620c0 -134 -67 -201 -201 -201z" />
    <glyph glyph-name="Uacute" unicode="&#xda;" horiz-adv-x="533" 
d="M252 879l64 194h54l-90 -194h-28zM267 -11c-38.667 0 -71.501 5 -98.501 15s-47.833 24.333 -62.5 43s-25.167 39.667 -31.5 63s-9.5 50 -9.5 80v620h54v-621c0 -24 2.16699 -44.833 6.5 -62.5s12 -33.667 23 -48s26.333 -25.333 46 -33s43.834 -11.5 72.501 -11.5
c98.667 0 148 51.667 148 155v621h53v-620c0 -134 -67 -201 -201 -201z" />
    <glyph glyph-name="Ucircumflex" unicode="&#xdb;" horiz-adv-x="533" 
d="M148 878l86 180h66l85 -180h-38l-80 153l-80 -153h-39zM267 -11c-38.667 0 -71.501 5 -98.501 15s-47.833 24.333 -62.5 43s-25.167 39.667 -31.5 63s-9.5 50 -9.5 80v620h54v-621c0 -24 2.16699 -44.833 6.5 -62.5s12 -33.667 23 -48s26.333 -25.333 46 -33
s43.834 -11.5 72.501 -11.5c98.667 0 148 51.667 148 155v621h53v-620c0 -134 -67 -201 -201 -201z" />
    <glyph glyph-name="Udieresis" unicode="&#xdc;" horiz-adv-x="533" 
d="M318 878v76h56v-76h-56zM159 878v76h55v-76h-55zM267 -11c-38.667 0 -71.501 5 -98.501 15s-47.833 24.333 -62.5 43s-25.167 39.667 -31.5 63s-9.5 50 -9.5 80v620h54v-621c0 -24 2.16699 -44.833 6.5 -62.5s12 -33.667 23 -48s26.333 -25.333 46 -33
s43.834 -11.5 72.501 -11.5c98.667 0 148 51.667 148 155v621h53v-620c0 -134 -67 -201 -201 -201z" />
    <glyph glyph-name="Yacute" unicode="&#xdd;" horiz-adv-x="461" 
d="M217 879l64 194h54l-90 -194h-28zM207 0v259l-187 551h56l159 -486l151 486h56l-181 -551v-259h-54z" />
    <glyph glyph-name="Thorn" unicode="&#xde;" horiz-adv-x="504" 
d="M129 298h139c50.667 0 88 14.667 112 44s36 76.333 36 141c0 117.333 -48 176 -144 176h-143v-361zM75 0l0.00195312 809.997h54v-104h152c34.667 0 64.667 -6 90 -18s45.166 -28.5 59.499 -49.5s24.833 -44.167 31.5 -69.5s10 -53.333 10 -84
c0 -23.333 -1.66699 -45.166 -5 -65.499s-9.5 -41.166 -18.5 -62.499s-20.5 -39.666 -34.5 -54.999s-32.833 -27.833 -56.5 -37.5s-50.834 -14.5 -81.501 -14.5h-147v-250h-54z" />
    <glyph glyph-name="germandbls" unicode="&#xdf;" horiz-adv-x="467" 
d="M163 -11l0.00195312 44.9971c29.333 0 55.833 2.66699 79.5 8s43.167 13.333 58.5 24s28.166 22.167 38.499 34.5s18.333 26.5 24 42.5s9.5 31.333 11.5 46s3 30.667 3 48c0 20.667 -1.5 39.834 -4.5 57.501s-8.16699 35 -15.5 52s-16.833 31.5 -28.5 43.5
s-27 21.667 -46 29s-40.167 11 -63.5 11l2 45c76.667 0 115 53 115 159c0 50.667 -9.16699 88.834 -27.5 114.501s-47.166 38.5 -86.499 38.5c-19.333 0 -35.333 -2.33301 -48 -7s-24.167 -13 -34.5 -25s-18 -29.833 -23 -53.5s-7.5 -53.834 -7.5 -90.501v-611h-53v610
c0 42 3.5 77.5 10.5 106.5s17.667 51.667 32 68s31.166 27.833 50.499 34.5s43 10 71 10c52.667 0 93.834 -16.5 123.501 -49.5s44.5 -81.5 44.5 -145.5c0 -98.667 -32.333 -158 -97 -178c25.333 -5.33301 47.166 -15.166 65.499 -29.499s32.666 -31.5 42.999 -51.5
s17.833 -41.167 22.5 -63.5s7 -46.166 7 -71.499c0 -167.333 -89 -251 -267 -251z" />
    <glyph glyph-name="agrave" unicode="&#xe0;" 
d="M170 647l-81 194h54l54 -194h-27zM167 35c23.333 0 43.998 7.66797 61.998 23.001s33 34.666 45 57.999v190c-65.333 -34 -106.666 -57 -123.999 -69c-27.333 -18.667 -44.666 -39.334 -51.999 -62.001c-4.66699 -14 -7 -30.667 -7 -50
c0 -31.333 7.33301 -54.166 22 -68.499s32.667 -21.5 54 -21.5zM153.998 -8.99902c-34.667 0 -62.666 11.6689 -83.999 35.002s-32 53.666 -32 90.999c0 26 2.83301 47.5 8.5 64.5s17.667 34.333 36 52s41.833 34.667 70.5 51s69 36.5 121 60.5v41
c0 42 -2.66699 74.667 -8 98s-13.666 39.666 -24.999 48.999s-27 14 -47 14c-12.667 0 -24 -1.5 -34 -4.5s-19.667 -8.16699 -29 -15.5s-16.5 -18.5 -21.5 -33.5s-7.5 -33.5 -7.5 -55.5v-16l-52 1v15c1.33301 52.667 14.166 90.667 38.499 114s60.166 35 107.499 35
c48 0 81.833 -15 101.5 -45s29.5 -80 29.5 -150v-291c0 -55.333 1 -89 3 -101h-46c-4.66699 43.333 -7.66699 69 -9 77c-9.33301 -25.333 -24.833 -46 -46.5 -62s-46.5 -24 -74.5 -24z" />
    <glyph glyph-name="aacute" unicode="&#xe1;" 
d="M170 647l64 194h54l-90 -194h-28zM167 35c23.333 0 43.998 7.66797 61.998 23.001s33 34.666 45 57.999v190c-65.333 -34 -106.666 -57 -123.999 -69c-27.333 -18.667 -44.666 -39.334 -51.999 -62.001c-4.66699 -14 -7 -30.667 -7 -50
c0 -31.333 7.33301 -54.166 22 -68.499s32.667 -21.5 54 -21.5zM153.998 -8.99902c-34.667 0 -62.666 11.6689 -83.999 35.002s-32 53.666 -32 90.999c0 26 2.83301 47.5 8.5 64.5s17.667 34.333 36 52s41.833 34.667 70.5 51s69 36.5 121 60.5v41
c0 42 -2.66699 74.667 -8 98s-13.666 39.666 -24.999 48.999s-27 14 -47 14c-12.667 0 -24 -1.5 -34 -4.5s-19.667 -8.16699 -29 -15.5s-16.5 -18.5 -21.5 -33.5s-7.5 -33.5 -7.5 -55.5v-16l-52 1v15c1.33301 52.667 14.166 90.667 38.499 114s60.166 35 107.499 35
c48 0 81.833 -15 101.5 -45s29.5 -80 29.5 -150v-291c0 -55.333 1 -89 3 -101h-46c-4.66699 43.333 -7.66699 69 -9 77c-9.33301 -25.333 -24.833 -46 -46.5 -62s-46.5 -24 -74.5 -24z" />
    <glyph glyph-name="acircumflex" unicode="&#xe2;" 
d="M65 647l86 180h66l85 -180h-38l-80 153l-80 -153h-39zM167 35c23.333 0 43.998 7.66797 61.998 23.001s33 34.666 45 57.999v190c-65.333 -34 -106.666 -57 -123.999 -69c-27.333 -18.667 -44.666 -39.334 -51.999 -62.001c-4.66699 -14 -7 -30.667 -7 -50
c0 -31.333 7.33301 -54.166 22 -68.499s32.667 -21.5 54 -21.5zM153.998 -8.99902c-34.667 0 -62.666 11.6689 -83.999 35.002s-32 53.666 -32 90.999c0 26 2.83301 47.5 8.5 64.5s17.667 34.333 36 52s41.833 34.667 70.5 51s69 36.5 121 60.5v41
c0 42 -2.66699 74.667 -8 98s-13.666 39.666 -24.999 48.999s-27 14 -47 14c-12.667 0 -24 -1.5 -34 -4.5s-19.667 -8.16699 -29 -15.5s-16.5 -18.5 -21.5 -33.5s-7.5 -33.5 -7.5 -55.5v-16l-52 1v15c1.33301 52.667 14.166 90.667 38.499 114s60.166 35 107.499 35
c48 0 81.833 -15 101.5 -45s29.5 -80 29.5 -150v-291c0 -55.333 1 -89 3 -101h-46c-4.66699 43.333 -7.66699 69 -9 77c-9.33301 -25.333 -24.833 -46 -46.5 -62s-46.5 -24 -74.5 -24z" />
    <glyph glyph-name="atilde" unicode="&#xe3;" 
d="M227 647c-12.667 0.666992 -28.833 8.16797 -48.5 22.501s-32.834 21.833 -39.501 22.5c-2 0.666992 -5 1 -9 1c-8.66699 0 -15.5 -3.33301 -20.5 -10s-7.5 -16.334 -7.5 -29.001h-36c0 4 0.333008 8.66699 1 14s2.33398 11.833 5.00098 19.5s6 14.5 10 20.5
s10 11.167 18 15.5s17.333 6.5 28 6.5c6 0 10.333 -0.333008 13 -1c12 -1.33301 28 -9 48 -23s33.667 -21.667 41 -23h6c20 0 30.667 15 32 45h34c0 -7.33301 -0.666992 -15 -2 -23s-4 -16.667 -8 -26s-10.833 -17 -20.5 -23s-21.167 -9 -34.5 -9h-10zM167.001 35.001
c23.333 0 43.998 7.66797 61.998 23.001s33 34.666 45 57.999v190c-65.333 -34 -106.666 -57 -123.999 -69c-27.333 -18.667 -44.666 -39.334 -51.999 -62.001c-4.66699 -14 -7 -30.667 -7 -50c0 -31.333 7.33301 -54.166 22 -68.499s32.667 -21.5 54 -21.5z
M153.999 -8.99805c-34.667 0 -62.666 11.6689 -83.999 35.002s-32 53.666 -32 90.999c0 26 2.83301 47.5 8.5 64.5s17.667 34.333 36 52s41.833 34.667 70.5 51s69 36.5 121 60.5v41c0 42 -2.66699 74.667 -8 98s-13.666 39.666 -24.999 48.999s-27 14 -47 14
c-12.667 0 -24 -1.5 -34 -4.5s-19.667 -8.16699 -29 -15.5s-16.5 -18.5 -21.5 -33.5s-7.5 -33.5 -7.5 -55.5v-16l-52 1v15c1.33301 52.667 14.166 90.667 38.499 114s60.166 35 107.499 35c48 0 81.833 -15 101.5 -45s29.5 -80 29.5 -150v-291c0 -55.333 1 -89 3 -101h-46
c-4.66699 43.333 -7.66699 69 -9 77c-9.33301 -25.333 -24.833 -46 -46.5 -62s-46.5 -24 -74.5 -24z" />
    <glyph glyph-name="adieresis" unicode="&#xe4;" 
d="M235 647v76h56v-76h-56zM76 647v76h55v-76h-55zM167 35c23.333 0 43.998 7.66797 61.998 23.001s33 34.666 45 57.999v190c-65.333 -34 -106.666 -57 -123.999 -69c-27.333 -18.667 -44.666 -39.334 -51.999 -62.001c-4.66699 -14 -7 -30.667 -7 -50
c0 -31.333 7.33301 -54.166 22 -68.499s32.667 -21.5 54 -21.5zM153.998 -8.99902c-34.667 0 -62.666 11.6689 -83.999 35.002s-32 53.666 -32 90.999c0 26 2.83301 47.5 8.5 64.5s17.667 34.333 36 52s41.833 34.667 70.5 51s69 36.5 121 60.5v41
c0 42 -2.66699 74.667 -8 98s-13.666 39.666 -24.999 48.999s-27 14 -47 14c-12.667 0 -24 -1.5 -34 -4.5s-19.667 -8.16699 -29 -15.5s-16.5 -18.5 -21.5 -33.5s-7.5 -33.5 -7.5 -55.5v-16l-52 1v15c1.33301 52.667 14.166 90.667 38.499 114s60.166 35 107.499 35
c48 0 81.833 -15 101.5 -45s29.5 -80 29.5 -150v-291c0 -55.333 1 -89 3 -101h-46c-4.66699 43.333 -7.66699 69 -9 77c-9.33301 -25.333 -24.833 -46 -46.5 -62s-46.5 -24 -74.5 -24z" />
    <glyph glyph-name="aring" unicode="&#xe5;" 
d="M184.5 678c15 0 27.5 4.5 37.5 13.5s15 22.5 15 40.5c0 18.667 -5 32.5 -15 41.5s-22.5 13.5 -37.5 13.5s-27.667 -4.5 -38 -13.5s-15.5 -22.833 -15.5 -41.5c0 -18 5.16699 -31.5 15.5 -40.5s23 -13.5 38 -13.5zM184 647c-23.333 0 -43.5 7.16699 -60.5 21.5
s-25.5 35.5 -25.5 63.5s8.33301 49.167 25 63.5s37 21.5 61 21.5c23.333 0 43.5 -7.16699 60.5 -21.5s25.5 -35.5 25.5 -63.5s-8.5 -49.167 -25.5 -63.5s-37.167 -21.5 -60.5 -21.5zM167 35c23.333 0 43.998 7.66797 61.998 23.001s33 34.666 45 57.999v190
c-65.333 -34 -106.666 -57 -123.999 -69c-27.333 -18.667 -44.666 -39.334 -51.999 -62.001c-4.66699 -14 -7 -30.667 -7 -50c0 -31.333 7.33301 -54.166 22 -68.499s32.667 -21.5 54 -21.5zM153.998 -8.99902c-34.667 0 -62.666 11.6689 -83.999 35.002
s-32 53.666 -32 90.999c0 26 2.83301 47.5 8.5 64.5s17.667 34.333 36 52s41.833 34.667 70.5 51s69 36.5 121 60.5v41c0 42 -2.66699 74.667 -8 98s-13.666 39.666 -24.999 48.999s-27 14 -47 14c-12.667 0 -24 -1.5 -34 -4.5s-19.667 -8.16699 -29 -15.5
s-16.5 -18.5 -21.5 -33.5s-7.5 -33.5 -7.5 -55.5v-16l-52 1v15c1.33301 52.667 14.166 90.667 38.499 114s60.166 35 107.499 35c48 0 81.833 -15 101.5 -45s29.5 -80 29.5 -150v-291c0 -55.333 1 -89 3 -101h-46c-4.66699 43.333 -7.66699 69 -9 77
c-9.33301 -25.333 -24.833 -46 -46.5 -62s-46.5 -24 -74.5 -24z" />
    <glyph glyph-name="ae" unicode="&#xe6;" horiz-adv-x="604" 
d="M328 335l103 35.998c30 10 50.333 21.333 61 34s16 30.334 16 53.001c0 24.667 -6.83301 45.334 -20.5 62.001s-35.167 25 -64.5 25c-33.333 0 -57.5 -11.667 -72.5 -35s-22.5 -65.333 -22.5 -126v-49zM167 31.998c10.667 0 21 1.66504 31 4.99805s19.667 9.5 29 18.5
s17.5 20.333 24.5 34s12.667 31.334 17 53.001s6.5 46.5 6.5 74.5v71c-1.33301 0 -13.5 -4.83301 -36.5 -14.5s-35.167 -14.5 -36.5 -14.5c-24.667 -10 -44.5 -19.833 -59.5 -29.5s-26.333 -20 -34 -31s-12.667 -21.5 -15 -31.5s-3.5 -22.667 -3.5 -38v-7
c0.666992 -31.333 8.5 -54.166 23.5 -68.499s32.833 -21.5 53.5 -21.5zM154 -9.00391c-34.667 0.666992 -62.6631 12.4971 -83.9961 35.4971s-32 53.167 -32 90.5c0 15.333 0.833008 28.833 2.5 40.5s5.66699 24.167 12 37.5s14.666 25.333 24.999 36
s24.833 21.334 43.5 32.001s41 20.667 67 30l87 30v63c0 41.333 -3 73.833 -9 97.5s-14.833 40 -26.5 49s-27.167 13.5 -46.5 13.5c-62.667 0 -94 -37.667 -94 -113l-50 2c0 50.667 12.5 88.667 37.5 114s60.833 38 107.5 38c29.333 0 53.5 -8 72.5 -24
s30.5 -39.333 34.5 -70c7.33301 33.333 22.166 57.333 44.499 72s48.166 22 77.499 22c42 0 74.833 -12.333 98.5 -37s35.5 -56.334 35.5 -95.001c0 -28.667 -9.83301 -52.334 -29.5 -71.001s-48.834 -34 -87.501 -46l-112 -38v-77c0 -69.333 7.33301 -118.333 22 -147
s38.667 -43 72 -43c9.33301 0 17.666 0.666992 24.999 2s15 4.33301 23 9s14.833 11.334 20.5 20.001s10.167 20.834 13.5 36.501s5 33.834 5 54.501v40h53v-38c0 -26 -2.33301 -48.667 -7 -68s-12.167 -36.666 -22.5 -51.999s-24.833 -26.833 -43.5 -34.5
s-41 -11.5 -67 -11.5c-32.667 0 -60.667 9 -84 27s-37.666 47.667 -42.999 89c-5.33301 -21.333 -13 -39.833 -23 -55.5s-21.5 -27.667 -34.5 -36s-26 -14.5 -39 -18.5s-26.167 -6 -39.5 -6h-5z" />
    <glyph glyph-name="ccedilla" unicode="&#xe7;" horiz-adv-x="375" 
d="M153 -185v28.998c6 0 14.333 -0.333008 25 -1c22.667 0 39 2.83301 49 8.5s15.333 14.834 16 27.501v5c0 29.333 -22.667 47.333 -68 54v62h29v-47c24.667 -3.33301 44.167 -12 58.5 -26s21.5 -30 21.5 -48v-4c-2 -41.333 -34.333 -61.666 -97 -60.999
c-10.667 0 -22 0.333008 -34 1zM192 -9.00195c-25.333 0 -47.001 3.99512 -65.001 11.9951s-32.167 18.333 -42.5 31s-18.5 29.334 -24.5 50.001s-9.83301 41 -11.5 61s-2.5 44 -2.5 72v136c0 86.667 10.5 147.334 31.5 182.001s59.167 52 114.5 52
c23.333 0 43.5 -3.16699 60.5 -9.5s30.667 -14.666 41 -24.999s18.5 -23.833 24.5 -40.5s10 -33.667 12 -51s3 -37.666 3 -60.999v-23h-50v23c0 56.667 -6.83301 95.334 -20.5 116.001s-37.167 31 -70.5 31c-38 0 -63 -13.333 -75 -40s-18 -76 -18 -148v-150
c0 -66 6.5 -112.167 19.5 -138.5s37.833 -39.5 74.5 -39.5c37.333 0 61.666 11.833 72.999 35.5s17 66.167 17 127.5v22h50v-21c0 -18 -0.333008 -34 -1 -48s-2.16699 -28.333 -4.5 -43s-5.66602 -27.334 -9.99902 -38.001s-10 -21 -17 -31s-15.333 -18.167 -25 -24.5
s-21.667 -11.166 -36 -14.499s-30.166 -5 -47.499 -5z" />
    <glyph glyph-name="egrave" unicode="&#xe8;" 
d="M178 647l-81 194h54l54 -194h-27zM99 334h185v45c0 23.333 -0.5 42.5 -1.5 57.5s-3.33301 30.167 -7 45.5s-8.66699 27.333 -15 36s-15 15.667 -26 21s-24.5 8 -40.5 8c-23.333 0 -41.333 -4.33301 -54 -13s-22.667 -25.5 -30 -50.5s-11 -60.167 -11 -105.5v-44zM193 -9
c-19.333 0 -36.167 2.00293 -50.5 6.00293s-27.833 11 -40.5 21s-23 23.333 -31 40s-14.167 38 -18.5 64s-6.5 56.667 -6.5 92v154c0 35.333 2.33301 66.166 7 92.499s10.834 47.5 18.501 63.5s18 28.833 31 38.5s26.667 16.167 41 19.5s31.166 5 50.499 5
c53.333 0 90.333 -17.333 111 -52s31 -94 31 -178l-1 -55h-236v-92c0 -68 7.16699 -114.833 21.5 -140.5s38.5 -38.5 72.5 -38.5c10 0 18.5 0.666992 25.5 2s15 4.33301 24 9s16.167 11.167 21.5 19.5s10 20.166 14 35.499s6 33.666 6 54.999v43h52v-38
c0 -53.333 -11 -94.333 -33 -123s-58.667 -43 -110 -43z" />
    <glyph glyph-name="eacute" unicode="&#xe9;" 
d="M177 647l64 194h54l-90 -194h-28zM99 334h185v45c0 23.333 -0.5 42.5 -1.5 57.5s-3.33301 30.167 -7 45.5s-8.66699 27.333 -15 36s-15 15.667 -26 21s-24.5 8 -40.5 8c-23.333 0 -41.333 -4.33301 -54 -13s-22.667 -25.5 -30 -50.5s-11 -60.167 -11 -105.5v-44zM193 -9
c-19.333 0 -36.167 2.00293 -50.5 6.00293s-27.833 11 -40.5 21s-23 23.333 -31 40s-14.167 38 -18.5 64s-6.5 56.667 -6.5 92v154c0 35.333 2.33301 66.166 7 92.499s10.834 47.5 18.501 63.5s18 28.833 31 38.5s26.667 16.167 41 19.5s31.166 5 50.499 5
c53.333 0 90.333 -17.333 111 -52s31 -94 31 -178l-1 -55h-236v-92c0 -68 7.16699 -114.833 21.5 -140.5s38.5 -38.5 72.5 -38.5c10 0 18.5 0.666992 25.5 2s15 4.33301 24 9s16.167 11.167 21.5 19.5s10 20.166 14 35.499s6 33.666 6 54.999v43h52v-38
c0 -53.333 -11 -94.333 -33 -123s-58.667 -43 -110 -43z" />
    <glyph glyph-name="ecircumflex" unicode="&#xea;" 
d="M73 647l86 180h66l85 -180h-38l-80 153l-80 -153h-39zM99 334h185v45c0 23.333 -0.5 42.5 -1.5 57.5s-3.33301 30.167 -7 45.5s-8.66699 27.333 -15 36s-15 15.667 -26 21s-24.5 8 -40.5 8c-23.333 0 -41.333 -4.33301 -54 -13s-22.667 -25.5 -30 -50.5
s-11 -60.167 -11 -105.5v-44zM193 -9c-19.333 0 -36.167 2.00293 -50.5 6.00293s-27.833 11 -40.5 21s-23 23.333 -31 40s-14.167 38 -18.5 64s-6.5 56.667 -6.5 92v154c0 35.333 2.33301 66.166 7 92.499s10.834 47.5 18.501 63.5s18 28.833 31 38.5s26.667 16.167 41 19.5
s31.166 5 50.499 5c53.333 0 90.333 -17.333 111 -52s31 -94 31 -178l-1 -55h-236v-92c0 -68 7.16699 -114.833 21.5 -140.5s38.5 -38.5 72.5 -38.5c10 0 18.5 0.666992 25.5 2s15 4.33301 24 9s16.167 11.167 21.5 19.5s10 20.166 14 35.499s6 33.666 6 54.999v43h52v-38
c0 -53.333 -11 -94.333 -33 -123s-58.667 -43 -110 -43z" />
    <glyph glyph-name="edieresis" unicode="&#xeb;" 
d="M243 647v76h56v-76h-56zM84 647v76h55v-76h-55zM99 334h185v45c0 23.333 -0.5 42.5 -1.5 57.5s-3.33301 30.167 -7 45.5s-8.66699 27.333 -15 36s-15 15.667 -26 21s-24.5 8 -40.5 8c-23.333 0 -41.333 -4.33301 -54 -13s-22.667 -25.5 -30 -50.5s-11 -60.167 -11 -105.5
v-44zM193 -9c-19.333 0 -36.167 2.00293 -50.5 6.00293s-27.833 11 -40.5 21s-23 23.333 -31 40s-14.167 38 -18.5 64s-6.5 56.667 -6.5 92v154c0 35.333 2.33301 66.166 7 92.499s10.834 47.5 18.501 63.5s18 28.833 31 38.5s26.667 16.167 41 19.5s31.166 5 50.499 5
c53.333 0 90.333 -17.333 111 -52s31 -94 31 -178l-1 -55h-236v-92c0 -68 7.16699 -114.833 21.5 -140.5s38.5 -38.5 72.5 -38.5c10 0 18.5 0.666992 25.5 2s15 4.33301 24 9s16.167 11.167 21.5 19.5s10 20.166 14 35.499s6 33.666 6 54.999v43h52v-38
c0 -53.333 -11 -94.333 -33 -123s-58.667 -43 -110 -43z" />
    <glyph glyph-name="igrave" unicode="&#xec;" horiz-adv-x="181" 
d="M78 647l-81 194h54l54 -194h-27zM65 0v578h53v-578h-53z" />
    <glyph glyph-name="iacute" unicode="&#xed;" horiz-adv-x="181" 
d="M78 647l64 194h54l-90 -194h-28zM65 0v578h53v-578h-53z" />
    <glyph glyph-name="icircumflex" unicode="&#xee;" horiz-adv-x="181" 
d="M-26 647l86 180h66l85 -180h-38l-80 153l-80 -153h-39zM65 0v578h53v-578h-53z" />
    <glyph glyph-name="idieresis" unicode="&#xef;" horiz-adv-x="181" 
d="M143 647v76h56v-76h-56zM-16 647v76h55v-76h-55zM65 0v578h53v-578h-53z" />
    <glyph glyph-name="eth" unicode="&#xf0;" horiz-adv-x="429" 
d="M107 257c0 -77.333 8.83008 -134.164 26.4971 -170.497s45.5 -54.5 83.5 -54.5c17.333 0 32 3 44 9s21.833 14.667 29.5 26s13.334 27.666 17.001 48.999s6.33398 44.666 8.00098 69.999s2.5 57.666 2.5 96.999c0 23.333 -1.33301 62 -4 116s-4.66699 84 -6 90
c-32 13.333 -55.333 21 -70 23l-18 2c-25.333 0 -46.166 -8 -62.499 -24s-28.833 -43.167 -37.5 -81.5s-13 -88.833 -13 -151.5zM369.997 248.002c0 -89.333 -11.1689 -154.833 -33.502 -196.5s-62.833 -62.5 -121.5 -62.5c-56.667 0 -97.5 19.833 -122.5 59.5
s-37.5 97.167 -37.5 172.5v2v79c0 169.333 51 254 153 254c32 0 64.667 -9 98 -27c-9.33301 64.667 -21 110.334 -35 137.001l-103 -28v33l88 24c-14 29.333 -35.333 51.666 -64 66.999s-65.667 25 -111 29l3 37c52.667 -2.66699 96.834 -13.167 132.501 -31.5
s63.167 -47.5 82.5 -87.5l81 21v-33l-67 -18c12.667 -30 25.334 -76.5 38.001 -139.5s19 -132.167 19 -207.5v-84z" />
    <glyph glyph-name="ntilde" unicode="&#xf1;" horiz-adv-x="391" 
d="M241 647c-12.667 0.666992 -28.833 8.16797 -48.5 22.501s-32.834 21.833 -39.501 22.5c-2 0.666992 -5 1 -9 1c-8.66699 0 -15.5 -3.33301 -20.5 -10s-7.5 -16.334 -7.5 -29.001h-36c0 4 0.333008 8.66699 1 14s2.33398 11.833 5.00098 19.5s6 14.5 10 20.5
s10 11.167 18 15.5s17.333 6.5 28 6.5c6 0 10.333 -0.333008 13 -1c12 -1.33301 28 -9 48 -23s33.667 -21.667 41 -23h6c20 0 30.667 15 32 45h34c0 -7.33301 -0.666992 -15 -2 -23s-4 -16.667 -8 -26s-10.833 -17 -20.5 -23s-21.167 -9 -34.5 -9h-10zM57.001 0.000976562
l-0.000976562 577.999h53v-62c40.667 47.333 86.334 71 137.001 71c28 0 50.167 -10.167 66.5 -30.5s24.5 -52.166 24.5 -95.499v-461h-53v455c0 33.333 -5.16699 56.833 -15.5 70.5s-25.5 20.5 -45.5 20.5c-18.667 0 -38 -5.83301 -58 -17.5s-38.667 -27.167 -56 -46.5
v-482h-53z" />
    <glyph glyph-name="ograve" unicode="&#xf2;" horiz-adv-x="382" 
d="M178 647l-81 194h54l54 -194h-27zM191 -9c-55.333 0 -93.333 17.5 -114 52.5s-31 90.833 -31 167.5v156c0 76 10.5 131.667 31.5 167s58.833 53 113.5 53c28 0 51.667 -4.5 71 -13.5s34.5 -23.167 45.5 -42.5s18.667 -42 23 -68s6.5 -58 6.5 -96v-156
c0 -76.667 -10.5 -132.5 -31.5 -167.5s-59.167 -52.5 -114.5 -52.5zM191.5 31c13.667 0 25.667 1.66699 36 5s18.833 8.83301 25.5 16.5s12 16 16 25s7.16699 21 9.5 36s3.83301 29.5 4.5 43.5s1 31.333 1 52v160c0 25.333 -0.5 46 -1.5 62s-3.33301 32 -7 48
s-8.83398 28.667 -15.501 38s-15.667 16.666 -27 21.999s-25.166 8 -41.499 8s-30.333 -2.66699 -42 -8s-20.667 -12.666 -27 -21.999s-11.333 -22 -15 -38s-6 -32 -7 -48s-1.5 -36.667 -1.5 -62v-160c0 -20.667 0.333008 -38 1 -52s2 -28.5 4 -43.5s5.16699 -27 9.5 -36
s9.83301 -17.333 16.5 -25s15.167 -13.167 25.5 -16.5s22.333 -5 36 -5z" />
    <glyph glyph-name="oacute" unicode="&#xf3;" horiz-adv-x="382" 
d="M177 647l64 194h54l-90 -194h-28zM191 -9c-55.333 0 -93.333 17.5 -114 52.5s-31 90.833 -31 167.5v156c0 76 10.5 131.667 31.5 167s58.833 53 113.5 53c28 0 51.667 -4.5 71 -13.5s34.5 -23.167 45.5 -42.5s18.667 -42 23 -68s6.5 -58 6.5 -96v-156
c0 -76.667 -10.5 -132.5 -31.5 -167.5s-59.167 -52.5 -114.5 -52.5zM191.5 31c13.667 0 25.667 1.66699 36 5s18.833 8.83301 25.5 16.5s12 16 16 25s7.16699 21 9.5 36s3.83301 29.5 4.5 43.5s1 31.333 1 52v160c0 25.333 -0.5 46 -1.5 62s-3.33301 32 -7 48
s-8.83398 28.667 -15.501 38s-15.667 16.666 -27 21.999s-25.166 8 -41.499 8s-30.333 -2.66699 -42 -8s-20.667 -12.666 -27 -21.999s-11.333 -22 -15 -38s-6 -32 -7 -48s-1.5 -36.667 -1.5 -62v-160c0 -20.667 0.333008 -38 1 -52s2 -28.5 4 -43.5s5.16699 -27 9.5 -36
s9.83301 -17.333 16.5 -25s15.167 -13.167 25.5 -16.5s22.333 -5 36 -5z" />
    <glyph glyph-name="ocircumflex" unicode="&#xf4;" horiz-adv-x="382" 
d="M73 647l86 180h66l85 -180h-38l-80 153l-80 -153h-39zM191 -9c-55.333 0 -93.333 17.5 -114 52.5s-31 90.833 -31 167.5v156c0 76 10.5 131.667 31.5 167s58.833 53 113.5 53c28 0 51.667 -4.5 71 -13.5s34.5 -23.167 45.5 -42.5s18.667 -42 23 -68s6.5 -58 6.5 -96v-156
c0 -76.667 -10.5 -132.5 -31.5 -167.5s-59.167 -52.5 -114.5 -52.5zM191.5 31c13.667 0 25.667 1.66699 36 5s18.833 8.83301 25.5 16.5s12 16 16 25s7.16699 21 9.5 36s3.83301 29.5 4.5 43.5s1 31.333 1 52v160c0 25.333 -0.5 46 -1.5 62s-3.33301 32 -7 48
s-8.83398 28.667 -15.501 38s-15.667 16.666 -27 21.999s-25.166 8 -41.499 8s-30.333 -2.66699 -42 -8s-20.667 -12.666 -27 -21.999s-11.333 -22 -15 -38s-6 -32 -7 -48s-1.5 -36.667 -1.5 -62v-160c0 -20.667 0.333008 -38 1 -52s2 -28.5 4 -43.5s5.16699 -27 9.5 -36
s9.83301 -17.333 16.5 -25s15.167 -13.167 25.5 -16.5s22.333 -5 36 -5z" />
    <glyph glyph-name="otilde" unicode="&#xf5;" horiz-adv-x="382" 
d="M235 647c-12.667 0.666992 -28.833 8.16797 -48.5 22.501s-32.834 21.833 -39.501 22.5c-2 0.666992 -5 1 -9 1c-8.66699 0 -15.5 -3.33301 -20.5 -10s-7.5 -16.334 -7.5 -29.001h-36c0 4 0.333008 8.66699 1 14s2.33398 11.833 5.00098 19.5s6 14.5 10 20.5
s10 11.167 18 15.5s17.333 6.5 28 6.5c6 0 10.333 -0.333008 13 -1c12 -1.33301 28 -9 48 -23s33.667 -21.667 41 -23h6c20 0 30.667 15 32 45h34c0 -7.33301 -0.666992 -15 -2 -23s-4 -16.667 -8 -26s-10.833 -17 -20.5 -23s-21.167 -9 -34.5 -9h-10zM191.001 -8.99902
c-55.333 0 -93.333 17.5 -114 52.5s-31 90.833 -31 167.5v156c0 76 10.5 131.667 31.5 167s58.833 53 113.5 53c28 0 51.667 -4.5 71 -13.5s34.5 -23.167 45.5 -42.5s18.667 -42 23 -68s6.5 -58 6.5 -96v-156c0 -76.667 -10.5 -132.5 -31.5 -167.5
s-59.167 -52.5 -114.5 -52.5zM191.501 31.001c13.667 0 25.667 1.66699 36 5s18.833 8.83301 25.5 16.5s12 16 16 25s7.16699 21 9.5 36s3.83301 29.5 4.5 43.5s1 31.333 1 52v160c0 25.333 -0.5 46 -1.5 62s-3.33301 32 -7 48s-8.83398 28.667 -15.501 38
s-15.667 16.666 -27 21.999s-25.166 8 -41.499 8s-30.333 -2.66699 -42 -8s-20.667 -12.666 -27 -21.999s-11.333 -22 -15 -38s-6 -32 -7 -48s-1.5 -36.667 -1.5 -62v-160c0 -20.667 0.333008 -38 1 -52s2 -28.5 4 -43.5s5.16699 -27 9.5 -36s9.83301 -17.333 16.5 -25
s15.167 -13.167 25.5 -16.5s22.333 -5 36 -5z" />
    <glyph glyph-name="odieresis" unicode="&#xf6;" horiz-adv-x="382" 
d="M243 647v76h56v-76h-56zM84 647v76h55v-76h-55zM191 -9c-55.333 0 -93.333 17.5 -114 52.5s-31 90.833 -31 167.5v156c0 76 10.5 131.667 31.5 167s58.833 53 113.5 53c28 0 51.667 -4.5 71 -13.5s34.5 -23.167 45.5 -42.5s18.667 -42 23 -68s6.5 -58 6.5 -96v-156
c0 -76.667 -10.5 -132.5 -31.5 -167.5s-59.167 -52.5 -114.5 -52.5zM191.5 31c13.667 0 25.667 1.66699 36 5s18.833 8.83301 25.5 16.5s12 16 16 25s7.16699 21 9.5 36s3.83301 29.5 4.5 43.5s1 31.333 1 52v160c0 25.333 -0.5 46 -1.5 62s-3.33301 32 -7 48
s-8.83398 28.667 -15.501 38s-15.667 16.666 -27 21.999s-25.166 8 -41.499 8s-30.333 -2.66699 -42 -8s-20.667 -12.666 -27 -21.999s-11.333 -22 -15 -38s-6 -32 -7 -48s-1.5 -36.667 -1.5 -62v-160c0 -20.667 0.333008 -38 1 -52s2 -28.5 4 -43.5s5.16699 -27 9.5 -36
s9.83301 -17.333 16.5 -25s15.167 -13.167 25.5 -16.5s22.333 -5 36 -5z" />
    <glyph glyph-name="divide" unicode="&#xf7;" horiz-adv-x="331" 
d="M141 536v78h49v-78h-49zM30 396v43h271v-43h-271zM141 210v79h49v-79h-49z" />
    <glyph glyph-name="oslash" unicode="&#xf8;" horiz-adv-x="382" 
d="M111 85l155.999 419.999c-14 28 -39.333 42 -76 42c-16.667 0 -30.667 -2.66699 -42 -8s-20.166 -12.666 -26.499 -21.999s-11.333 -22 -15 -38s-6 -32 -7 -48s-1.5 -36.667 -1.5 -62v-160c0 -58.667 4 -100 12 -124zM190.999 30.999c14 0 26.167 1.66699 36.5 5
s18.833 8.83301 25.5 16.5s12 16 16 25s7.16699 21 9.5 36s3.83301 29.5 4.5 43.5s1 31.333 1 52v160c0 45.333 -2.33301 79 -7 101l-152 -411c13.333 -18.667 35.333 -28 66 -28zM77.999 -65.001l-20.001 6.99902l31 85c-10.667 12 -19.167 27 -25.5 45
s-10.833 38.167 -13.5 60.5s-4 48.5 -4 78.5v156c0 76 10.5 131.667 31.5 167s58.833 53 113.5 53c40.667 0 72.334 -9.66699 95.001 -29l28 76l21 -9l-32 -86c22.667 -33.333 34 -90.666 34 -171.999v-156c0 -76.667 -10.5 -132.5 -31.5 -167.5s-59.167 -52.5 -114.5 -52.5
c-35.333 0 -63.333 7 -84 21z" />
    <glyph glyph-name="ugrave" unicode="&#xf9;" horiz-adv-x="394" 
d="M181 647l-81 194h54l54 -194h-27zM143 -9c-28 0 -50.1699 10.168 -66.5029 30.501s-24.5 52.166 -24.5 95.499v461h53v-455c0 -33.333 5.16699 -56.833 15.5 -70.5s25.333 -20.5 45 -20.5s39.834 6.33301 60.501 19s40.334 29.667 59.001 51v476h52v-578h-52v68
c-19.333 -24 -41.166 -42.833 -65.499 -56.5s-49.833 -20.5 -76.5 -20.5z" />
    <glyph glyph-name="uacute" unicode="&#xfa;" horiz-adv-x="394" 
d="M181 647l64 194h54l-90 -194h-28zM143 -9c-28 0 -50.1699 10.168 -66.5029 30.501s-24.5 52.166 -24.5 95.499v461h53v-455c0 -33.333 5.16699 -56.833 15.5 -70.5s25.333 -20.5 45 -20.5s39.834 6.33301 60.501 19s40.334 29.667 59.001 51v476h52v-578h-52v68
c-19.333 -24 -41.166 -42.833 -65.499 -56.5s-49.833 -20.5 -76.5 -20.5z" />
    <glyph glyph-name="ucircumflex" unicode="&#xfb;" horiz-adv-x="394" 
d="M76 647l86 180h66l85 -180h-38l-80 153l-80 -153h-39zM143 -9c-28 0 -50.1699 10.168 -66.5029 30.501s-24.5 52.166 -24.5 95.499v461h53v-455c0 -33.333 5.16699 -56.833 15.5 -70.5s25.333 -20.5 45 -20.5s39.834 6.33301 60.501 19s40.334 29.667 59.001 51v476h52
v-578h-52v68c-19.333 -24 -41.166 -42.833 -65.499 -56.5s-49.833 -20.5 -76.5 -20.5z" />
    <glyph glyph-name="udieresis" unicode="&#xfc;" horiz-adv-x="394" 
d="M246 647v76h56v-76h-56zM87 647v76h55v-76h-55zM143 -9c-28 0 -50.1699 10.168 -66.5029 30.501s-24.5 52.166 -24.5 95.499v461h53v-455c0 -33.333 5.16699 -56.833 15.5 -70.5s25.333 -20.5 45 -20.5s39.834 6.33301 60.501 19s40.334 29.667 59.001 51v476h52v-578
h-52v68c-19.333 -24 -41.166 -42.833 -65.499 -56.5s-49.833 -20.5 -76.5 -20.5z" />
    <glyph glyph-name="yacute" unicode="&#xfd;" horiz-adv-x="374" 
d="M174 647l64 194h54l-90 -194h-28zM37 -144l0.00195312 43c34 0 60.333 2.83301 79 8.5s31 13 37 22s9 21.167 9 36.5v13c-0.666992 10 -6.33398 36.667 -17.001 80c-18.667 77.333 -59 250.333 -121 519h52l114 -528l110 528h53l-141 -625
c-8 -34 -23.833 -58.667 -47.5 -74s-58.834 -23 -105.501 -23h-22z" />
    <glyph glyph-name="thorn" unicode="&#xfe;" horiz-adv-x="397" 
d="M210 32c34.667 0 58.168 15.5 70.501 46.5s18.5 83.5 18.5 157.5v113c0 29.333 -0.666992 54 -2 74s-3.83301 38.167 -7.5 54.5s-8.83398 29.333 -15.501 39s-15.167 17 -25.5 22s-22.833 7.5 -37.5 7.5c-34 0 -67.333 -18 -100 -54v-408c28 -34.667 61 -52 99 -52z
M58.001 -190v1000h53v-281c29.333 39.333 66.333 58.666 111 57.999c20.667 0 38.667 -3.66699 54 -11s27.833 -17.5 37.5 -30.5s17.5 -29.833 23.5 -50.5s10 -42.5 12 -65.5s3 -49.833 3 -80.5v-111c0 -84.667 -10 -147 -30 -187s-55.333 -60 -106 -60
c-40 0 -75 19 -105 57v-238h-53z" />
    <glyph glyph-name="ydieresis" unicode="&#xff;" horiz-adv-x="374" 
d="M240 647v76h56v-76h-56zM81 647v76h55v-76h-55zM37 -144l0.00195312 43c34 0 60.333 2.83301 79 8.5s31 13 37 22s9 21.167 9 36.5v13c-0.666992 10 -6.33398 36.667 -17.001 80c-18.667 77.333 -59 250.333 -121 519h52l114 -528l110 528h53l-141 -625
c-8 -34 -23.833 -58.667 -47.5 -74s-58.834 -23 -105.501 -23h-22z" />
    <glyph glyph-name="Amacron" unicode="&#x100;" horiz-adv-x="468" 
d="M149 878v37h171v-37h-171zM137 264h195l-98 480zM32 0l170 810h63l171 -810h-55l-42 224h-210l-43 -224h-54z" />
    <glyph glyph-name="amacron" unicode="&#x101;" 
d="M98 647v37h171v-37h-171zM167 35c23.333 0 43.998 7.66797 61.998 23.001s33 34.666 45 57.999v190c-65.333 -34 -106.666 -57 -123.999 -69c-27.333 -18.667 -44.666 -39.334 -51.999 -62.001c-4.66699 -14 -7 -30.667 -7 -50c0 -31.333 7.33301 -54.166 22 -68.499
s32.667 -21.5 54 -21.5zM153.998 -8.99902c-34.667 0 -62.666 11.6689 -83.999 35.002s-32 53.666 -32 90.999c0 26 2.83301 47.5 8.5 64.5s17.667 34.333 36 52s41.833 34.667 70.5 51s69 36.5 121 60.5v41c0 42 -2.66699 74.667 -8 98s-13.666 39.666 -24.999 48.999
s-27 14 -47 14c-12.667 0 -24 -1.5 -34 -4.5s-19.667 -8.16699 -29 -15.5s-16.5 -18.5 -21.5 -33.5s-7.5 -33.5 -7.5 -55.5v-16l-52 1v15c1.33301 52.667 14.166 90.667 38.499 114s60.166 35 107.499 35c48 0 81.833 -15 101.5 -45s29.5 -80 29.5 -150v-291
c0 -55.333 1 -89 3 -101h-46c-4.66699 43.333 -7.66699 69 -9 77c-9.33301 -25.333 -24.833 -46 -46.5 -62s-46.5 -24 -74.5 -24z" />
    <glyph glyph-name="Abreve" unicode="&#x102;" horiz-adv-x="468" 
d="M233 879c-34.667 0 -62.3369 9.16895 -83.0039 27.502s-31.667 46.166 -33 83.499h37c0.666992 -26.667 8.33398 -46.167 23.001 -58.5s33.334 -18.5 56.001 -18.5s41.334 6.16699 56.001 18.5s23 31.833 25 58.5h37c-1.33301 -36.667 -12.666 -64.334 -33.999 -83.001
s-49.333 -28 -84 -28zM136.997 264.002h195l-98 480zM31.9971 0.00195312l170 810h63l171 -810h-55l-42 224h-210l-43 -224h-54z" />
    <glyph glyph-name="abreve" unicode="&#x103;" 
d="M183 647c-34.667 0 -62.3369 9.16895 -83.0039 27.502s-31.667 46.166 -33 83.499h37c0.666992 -26.667 8.33398 -46.167 23.001 -58.5s33.334 -18.5 56.001 -18.5s41.334 6.16699 56.001 18.5s23 31.833 25 58.5h37c-1.33301 -36.667 -12.666 -64.334 -33.999 -83.001
s-49.333 -28 -84 -28zM166.997 35.002c23.333 0 43.998 7.66797 61.998 23.001s33 34.666 45 57.999v190c-65.333 -34 -106.666 -57 -123.999 -69c-27.333 -18.667 -44.666 -39.334 -51.999 -62.001c-4.66699 -14 -7 -30.667 -7 -50c0 -31.333 7.33301 -54.166 22 -68.499
s32.667 -21.5 54 -21.5zM153.995 -8.99707c-34.667 0 -62.666 11.6689 -83.999 35.002s-32 53.666 -32 90.999c0 26 2.83301 47.5 8.5 64.5s17.667 34.333 36 52s41.833 34.667 70.5 51s69 36.5 121 60.5v41c0 42 -2.66699 74.667 -8 98s-13.666 39.666 -24.999 48.999
s-27 14 -47 14c-12.667 0 -24 -1.5 -34 -4.5s-19.667 -8.16699 -29 -15.5s-16.5 -18.5 -21.5 -33.5s-7.5 -33.5 -7.5 -55.5v-16l-52 1v15c1.33301 52.667 14.166 90.667 38.499 114s60.166 35 107.499 35c48 0 81.833 -15 101.5 -45s29.5 -80 29.5 -150v-291
c0 -55.333 1 -89 3 -101h-46c-4.66699 43.333 -7.66699 69 -9 77c-9.33301 -25.333 -24.833 -46 -46.5 -62s-46.5 -24 -74.5 -24z" />
    <glyph glyph-name="Aogonek" unicode="&#x104;" horiz-adv-x="468" 
d="M434 -199c-82 0 -123.002 26.667 -123.002 80c0 23.333 7.66699 46.333 23 69s34 40 56 52h30c-45.333 -45.333 -67.666 -84.333 -66.999 -117c0 -18.667 8.33301 -32.167 25 -40.5s38.334 -12.5 65.001 -12.5zM136.998 264h195l-98 480zM31.998 0l170 810h63l171 -810
h-55l-42 224h-210l-43 -224h-54z" />
    <glyph glyph-name="aogonek" unicode="&#x105;" 
d="M337 -199c-82 0 -123.002 26.667 -123.002 80c0 23.333 7.66699 46.333 23 69s34 40 56 52h30c-45.333 -45.333 -67.666 -84.333 -66.999 -117c0 -18.667 8.33301 -32.167 25 -40.5s38.334 -12.5 65.001 -12.5zM166.998 35c23.333 0 43.998 7.66797 61.998 23.001
s33 34.666 45 57.999v190c-65.333 -34 -106.666 -57 -123.999 -69c-27.333 -18.667 -44.666 -39.334 -51.999 -62.001c-4.66699 -14 -7 -30.667 -7 -50c0 -31.333 7.33301 -54.166 22 -68.499s32.667 -21.5 54 -21.5zM153.996 -8.99902
c-34.667 0 -62.666 11.6689 -83.999 35.002s-32 53.666 -32 90.999c0 26 2.83301 47.5 8.5 64.5s17.667 34.333 36 52s41.833 34.667 70.5 51s69 36.5 121 60.5v41c0 42 -2.66699 74.667 -8 98s-13.666 39.666 -24.999 48.999s-27 14 -47 14c-12.667 0 -24 -1.5 -34 -4.5
s-19.667 -8.16699 -29 -15.5s-16.5 -18.5 -21.5 -33.5s-7.5 -33.5 -7.5 -55.5v-16l-52 1v15c1.33301 52.667 14.166 90.667 38.499 114s60.166 35 107.499 35c48 0 81.833 -15 101.5 -45s29.5 -80 29.5 -150v-291c0 -55.333 1 -89 3 -101h-46
c-4.66699 43.333 -7.66699 69 -9 77c-9.33301 -25.333 -24.833 -46 -46.5 -62s-46.5 -24 -74.5 -24z" />
    <glyph glyph-name="Cacute" unicode="&#x106;" horiz-adv-x="488" 
d="M235 879l64 194h54l-90 -194h-28zM255 -11c-31.333 0 -58.6699 4.33398 -82.0029 13.001s-42.166 20 -56.499 34s-26 31.667 -35 53s-15.167 43.5 -18.5 66.5s-5 48.833 -5 77.5v344c0 29.333 1.83301 55.666 5.5 78.999s10 45.333 19 66s21 38 36 52s33.833 25 56.5 33
s49.334 12 80.001 12c34.667 0 64.167 -5.33301 88.5 -16s43.333 -26.334 57 -47.001s23.667 -44.334 30 -71.001s9.5 -58 9.5 -94v-41h-52v41c0 62 -9.5 108 -28.5 138s-53.833 45 -104.5 45c-28.667 0 -52.5 -4.33301 -71.5 -13s-33.5 -22 -43.5 -40
s-17 -37.833 -21 -59.5s-6 -47.834 -6 -78.501v-358c0 -25.333 1.33301 -47.5 4 -66.5s7.16699 -36.5 13.5 -52.5s14.833 -29.167 25.5 -39.5s24.334 -18.333 41.001 -24s36 -8.5 58 -8.5c26.667 0 48.834 4.33301 66.501 13s31.167 21.334 40.5 38.001s16 35.5 20 56.5
s6 46.5 6 76.5v49h52v-40c0 -28.667 -1.66699 -54.667 -5 -78s-9.33301 -45.166 -18 -65.499s-19.834 -37.166 -33.501 -50.499s-31.5 -24 -53.5 -32s-47 -12 -75 -12z" />
    <glyph glyph-name="cacute" unicode="&#x107;" horiz-adv-x="375" 
d="M175 647l64 194h54l-90 -194h-28zM192 -9c-25.333 0 -47.001 3.99512 -65.001 11.9951s-32.167 18.333 -42.5 31s-18.5 29.334 -24.5 50.001s-9.83301 41 -11.5 61s-2.5 44 -2.5 72v136c0 86.667 10.5 147.334 31.5 182.001s59.167 52 114.5 52
c23.333 0 43.5 -3.16699 60.5 -9.5s30.667 -14.666 41 -24.999s18.5 -23.833 24.5 -40.5s10 -33.667 12 -51s3 -37.666 3 -60.999v-23h-50v23c0 56.667 -6.83301 95.334 -20.5 116.001s-37.167 31 -70.5 31c-38 0 -63 -13.333 -75 -40s-18 -76 -18 -148v-150
c0 -66 6.5 -112.167 19.5 -138.5s37.833 -39.5 74.5 -39.5c37.333 0 61.666 11.833 72.999 35.5s17 66.167 17 127.5v22h50v-21c0 -18 -0.333008 -34 -1 -48s-2.16699 -28.333 -4.5 -43s-5.66602 -27.334 -9.99902 -38.001s-10 -21 -17 -31s-15.333 -18.167 -25 -24.5
s-21.667 -11.166 -36 -14.499s-30.166 -5 -47.499 -5z" />
    <glyph glyph-name="Ccircumflex" unicode="&#x108;" horiz-adv-x="488" 
d="M131 878l86 180h66l85 -180h-38l-80 153l-80 -153h-39zM255 -11c-31.333 0 -58.6699 4.33398 -82.0029 13.001s-42.166 20 -56.499 34s-26 31.667 -35 53s-15.167 43.5 -18.5 66.5s-5 48.833 -5 77.5v344c0 29.333 1.83301 55.666 5.5 78.999s10 45.333 19 66
s21 38 36 52s33.833 25 56.5 33s49.334 12 80.001 12c34.667 0 64.167 -5.33301 88.5 -16s43.333 -26.334 57 -47.001s23.667 -44.334 30 -71.001s9.5 -58 9.5 -94v-41h-52v41c0 62 -9.5 108 -28.5 138s-53.833 45 -104.5 45c-28.667 0 -52.5 -4.33301 -71.5 -13
s-33.5 -22 -43.5 -40s-17 -37.833 -21 -59.5s-6 -47.834 -6 -78.501v-358c0 -25.333 1.33301 -47.5 4 -66.5s7.16699 -36.5 13.5 -52.5s14.833 -29.167 25.5 -39.5s24.334 -18.333 41.001 -24s36 -8.5 58 -8.5c26.667 0 48.834 4.33301 66.501 13s31.167 21.334 40.5 38.001
s16 35.5 20 56.5s6 46.5 6 76.5v49h52v-40c0 -28.667 -1.66699 -54.667 -5 -78s-9.33301 -45.166 -18 -65.499s-19.834 -37.166 -33.501 -50.499s-31.5 -24 -53.5 -32s-47 -12 -75 -12z" />
    <glyph glyph-name="ccircumflex" unicode="&#x109;" horiz-adv-x="375" 
d="M71 647l86 180h66l85 -180h-38l-80 153l-80 -153h-39zM192 -9c-25.333 0 -47.001 3.99512 -65.001 11.9951s-32.167 18.333 -42.5 31s-18.5 29.334 -24.5 50.001s-9.83301 41 -11.5 61s-2.5 44 -2.5 72v136c0 86.667 10.5 147.334 31.5 182.001s59.167 52 114.5 52
c23.333 0 43.5 -3.16699 60.5 -9.5s30.667 -14.666 41 -24.999s18.5 -23.833 24.5 -40.5s10 -33.667 12 -51s3 -37.666 3 -60.999v-23h-50v23c0 56.667 -6.83301 95.334 -20.5 116.001s-37.167 31 -70.5 31c-38 0 -63 -13.333 -75 -40s-18 -76 -18 -148v-150
c0 -66 6.5 -112.167 19.5 -138.5s37.833 -39.5 74.5 -39.5c37.333 0 61.666 11.833 72.999 35.5s17 66.167 17 127.5v22h50v-21c0 -18 -0.333008 -34 -1 -48s-2.16699 -28.333 -4.5 -43s-5.66602 -27.334 -9.99902 -38.001s-10 -21 -17 -31s-15.333 -18.167 -25 -24.5
s-21.667 -11.166 -36 -14.499s-30.166 -5 -47.499 -5z" />
    <glyph glyph-name="Cdotaccent" unicode="&#x10a;" horiz-adv-x="488" 
d="M219 879v104h59v-104h-59zM255 -11c-31.333 0 -58.6699 4.33398 -82.0029 13.001s-42.166 20 -56.499 34s-26 31.667 -35 53s-15.167 43.5 -18.5 66.5s-5 48.833 -5 77.5v344c0 29.333 1.83301 55.666 5.5 78.999s10 45.333 19 66s21 38 36 52s33.833 25 56.5 33
s49.334 12 80.001 12c34.667 0 64.167 -5.33301 88.5 -16s43.333 -26.334 57 -47.001s23.667 -44.334 30 -71.001s9.5 -58 9.5 -94v-41h-52v41c0 62 -9.5 108 -28.5 138s-53.833 45 -104.5 45c-28.667 0 -52.5 -4.33301 -71.5 -13s-33.5 -22 -43.5 -40
s-17 -37.833 -21 -59.5s-6 -47.834 -6 -78.501v-358c0 -25.333 1.33301 -47.5 4 -66.5s7.16699 -36.5 13.5 -52.5s14.833 -29.167 25.5 -39.5s24.334 -18.333 41.001 -24s36 -8.5 58 -8.5c26.667 0 48.834 4.33301 66.501 13s31.167 21.334 40.5 38.001s16 35.5 20 56.5
s6 46.5 6 76.5v49h52v-40c0 -28.667 -1.66699 -54.667 -5 -78s-9.33301 -45.166 -18 -65.499s-19.834 -37.166 -33.501 -50.499s-31.5 -24 -53.5 -32s-47 -12 -75 -12z" />
    <glyph glyph-name="cdotaccent" unicode="&#x10b;" horiz-adv-x="375" 
d="M160 647v104h59v-104h-59zM192 -9c-25.333 0 -47.001 3.99512 -65.001 11.9951s-32.167 18.333 -42.5 31s-18.5 29.334 -24.5 50.001s-9.83301 41 -11.5 61s-2.5 44 -2.5 72v136c0 86.667 10.5 147.334 31.5 182.001s59.167 52 114.5 52
c23.333 0 43.5 -3.16699 60.5 -9.5s30.667 -14.666 41 -24.999s18.5 -23.833 24.5 -40.5s10 -33.667 12 -51s3 -37.666 3 -60.999v-23h-50v23c0 56.667 -6.83301 95.334 -20.5 116.001s-37.167 31 -70.5 31c-38 0 -63 -13.333 -75 -40s-18 -76 -18 -148v-150
c0 -66 6.5 -112.167 19.5 -138.5s37.833 -39.5 74.5 -39.5c37.333 0 61.666 11.833 72.999 35.5s17 66.167 17 127.5v22h50v-21c0 -18 -0.333008 -34 -1 -48s-2.16699 -28.333 -4.5 -43s-5.66602 -27.334 -9.99902 -38.001s-10 -21 -17 -31s-15.333 -18.167 -25 -24.5
s-21.667 -11.166 -36 -14.499s-30.166 -5 -47.499 -5z" />
    <glyph glyph-name="Ccaron" unicode="&#x10c;" horiz-adv-x="488" 
d="M228 878l-85 163h46l59 -122l60 122h45l-85 -163h-40zM255 -11c-31.333 0 -58.6699 4.33398 -82.0029 13.001s-42.166 20 -56.499 34s-26 31.667 -35 53s-15.167 43.5 -18.5 66.5s-5 48.833 -5 77.5v344c0 29.333 1.83301 55.666 5.5 78.999s10 45.333 19 66s21 38 36 52
s33.833 25 56.5 33s49.334 12 80.001 12c34.667 0 64.167 -5.33301 88.5 -16s43.333 -26.334 57 -47.001s23.667 -44.334 30 -71.001s9.5 -58 9.5 -94v-41h-52v41c0 62 -9.5 108 -28.5 138s-53.833 45 -104.5 45c-28.667 0 -52.5 -4.33301 -71.5 -13s-33.5 -22 -43.5 -40
s-17 -37.833 -21 -59.5s-6 -47.834 -6 -78.501v-358c0 -25.333 1.33301 -47.5 4 -66.5s7.16699 -36.5 13.5 -52.5s14.833 -29.167 25.5 -39.5s24.334 -18.333 41.001 -24s36 -8.5 58 -8.5c26.667 0 48.834 4.33301 66.501 13s31.167 21.334 40.5 38.001s16 35.5 20 56.5
s6 46.5 6 76.5v49h52v-40c0 -28.667 -1.66699 -54.667 -5 -78s-9.33301 -45.166 -18 -65.499s-19.834 -37.166 -33.501 -50.499s-31.5 -24 -53.5 -32s-47 -12 -75 -12z" />
    <glyph glyph-name="ccaron" unicode="&#x10d;" horiz-adv-x="375" 
d="M169 647l-85 163h46l59 -122l60 122h45l-85 -163h-40zM192 -9c-25.333 0 -47.001 3.99512 -65.001 11.9951s-32.167 18.333 -42.5 31s-18.5 29.334 -24.5 50.001s-9.83301 41 -11.5 61s-2.5 44 -2.5 72v136c0 86.667 10.5 147.334 31.5 182.001s59.167 52 114.5 52
c23.333 0 43.5 -3.16699 60.5 -9.5s30.667 -14.666 41 -24.999s18.5 -23.833 24.5 -40.5s10 -33.667 12 -51s3 -37.666 3 -60.999v-23h-50v23c0 56.667 -6.83301 95.334 -20.5 116.001s-37.167 31 -70.5 31c-38 0 -63 -13.333 -75 -40s-18 -76 -18 -148v-150
c0 -66 6.5 -112.167 19.5 -138.5s37.833 -39.5 74.5 -39.5c37.333 0 61.666 11.833 72.999 35.5s17 66.167 17 127.5v22h50v-21c0 -18 -0.333008 -34 -1 -48s-2.16699 -28.333 -4.5 -43s-5.66602 -27.334 -9.99902 -38.001s-10 -21 -17 -31s-15.333 -18.167 -25 -24.5
s-21.667 -11.166 -36 -14.499s-30.166 -5 -47.499 -5z" />
    <glyph glyph-name="Dcaron" unicode="&#x10e;" horiz-adv-x="517" 
d="M247 878l-85 163h46l59 -122l60 122h45l-85 -163h-40zM75 0l0.000976562 810h177c39.333 0 72.833 -6 100.5 -18s49 -28.833 64 -50.5s25.833 -46 32.5 -73s10 -57.5 10 -91.5v-336c0 -36.667 -3.33301 -69 -10 -97s-17.334 -53.167 -32.001 -75.5
s-35.5 -39.333 -62.5 -51s-59.5 -17.5 -97.5 -17.5h-182zM129.001 43l125.001 -0.00195312c25.333 0 47.333 3.66699 66 11s33.334 16.833 44.001 28.5s19 26.834 25 45.501s10 37 12 55s3 39.333 3 64v326c0 25.333 -1.33301 47.333 -4 66s-7.33398 36.334 -14.001 53.001
s-15.667 30.167 -27 40.5s-25.833 18.5 -43.5 24.5s-38.834 9 -63.501 9h-123v-723z" />
    <glyph glyph-name="dcaron" unicode="&#x10f;" horiz-adv-x="432" 
d="M427 580v230h55l-26 -230h-29zM189 32c34 0 65.668 16.334 95.001 49.001v415c-32 33.333 -64 50 -96 50c-35.333 0 -59 -14.333 -71 -43s-18 -78.667 -18 -150v-120c0 -72.667 6.16699 -124.334 18.5 -155.001s36.166 -46 71.499 -46zM182.001 -8.99902
c-49.333 0 -84.333 18.832 -105 56.499s-31 100.834 -31 189.501v103c0 86 9.5 148.667 28.5 188s53.833 59 104.5 59c40.667 0 75.667 -17.667 105 -53v276h53v-810h-53v44c-28.667 -35.333 -62.667 -53 -102 -53z" />
    <glyph glyph-name="Dcroat" unicode="&#x110;" horiz-adv-x="517" 
d="M75 0l0.000976562 408.002h-65v37h65v365h178c31.333 0 59.166 -4 83.499 -12s44 -18.833 59 -32.5s27.5 -30.5 37.5 -50.5s17 -41.167 21 -63.5s6 -47.166 6 -74.499v-336c0 -28.667 -2 -54.834 -6 -78.501s-10.833 -45.834 -20.5 -66.501s-22 -37.834 -37 -51.501
s-34.167 -24.5 -57.5 -32.5s-50.333 -12 -81 -12h-183zM130.001 43.002l125.002 -0.00195312c25.333 0 47.166 3.66699 65.499 11s32.833 16.833 43.5 28.5s19.167 26.834 25.5 45.501s10.5 37 12.5 55s3 39.333 3 64v326c0 25.333 -1.33301 47.333 -4 66
s-7.33398 36.334 -14.001 53.001s-15.667 30.167 -27 40.5s-26 18.5 -44 24.5s-39.333 9 -64 9h-122v-321h94v-37h-94v-365z" />
    <glyph glyph-name="dcroat" unicode="&#x111;" horiz-adv-x="409" 
d="M189 32c34 0 65.668 16.334 95.001 49.001v415c-32 33.333 -64 50 -96 50c-35.333 0 -59 -14.333 -71 -43s-18 -78.667 -18 -150v-120c0 -72.667 6.16699 -124.334 18.5 -155.001s36.166 -46 71.499 -46zM182.001 -8.99902c-49.333 0 -84.333 18.832 -105 56.499
s-31 100.834 -31 189.501v103c0 86 9.5 148.667 28.5 188s53.833 59 104.5 59c40.667 0 75.667 -17.667 105 -53v156h-84v35h84v85h53v-85h57v-35h-57v-690h-53v44c-28.667 -35.333 -62.667 -53 -102 -53z" />
    <glyph glyph-name="Emacron" unicode="&#x112;" horiz-adv-x="392" 
d="M130 878v37h171v-37h-171zM74 0v810h280v-44h-225v-325h185v-42h-185v-356h228v-43h-283z" />
    <glyph glyph-name="emacron" unicode="&#x113;" 
d="M106 647v37h171v-37h-171zM99 334h185v45c0 23.333 -0.5 42.5 -1.5 57.5s-3.33301 30.167 -7 45.5s-8.66699 27.333 -15 36s-15 15.667 -26 21s-24.5 8 -40.5 8c-23.333 0 -41.333 -4.33301 -54 -13s-22.667 -25.5 -30 -50.5s-11 -60.167 -11 -105.5v-44zM193 -9
c-19.333 0 -36.167 2.00293 -50.5 6.00293s-27.833 11 -40.5 21s-23 23.333 -31 40s-14.167 38 -18.5 64s-6.5 56.667 -6.5 92v154c0 35.333 2.33301 66.166 7 92.499s10.834 47.5 18.501 63.5s18 28.833 31 38.5s26.667 16.167 41 19.5s31.166 5 50.499 5
c53.333 0 90.333 -17.333 111 -52s31 -94 31 -178l-1 -55h-236v-92c0 -68 7.16699 -114.833 21.5 -140.5s38.5 -38.5 72.5 -38.5c10 0 18.5 0.666992 25.5 2s15 4.33301 24 9s16.167 11.167 21.5 19.5s10 20.166 14 35.499s6 33.666 6 54.999v43h52v-38
c0 -53.333 -11 -94.333 -33 -123s-58.667 -43 -110 -43z" />
    <glyph glyph-name="Ebreve" unicode="&#x114;" horiz-adv-x="392" 
d="M214 879c-34.667 0 -62.3369 9.16895 -83.0039 27.502s-31.667 46.166 -33 83.499h37c0.666992 -26.667 8.33398 -46.167 23.001 -58.5s33.334 -18.5 56.001 -18.5s41.334 6.16699 56.001 18.5s23 31.833 25 58.5h37c-1.33301 -36.667 -12.666 -64.334 -33.999 -83.001
s-49.333 -28 -84 -28zM73.9971 0.00195312v810h280v-44h-225v-325h185v-42h-185v-356h228v-43h-283z" />
    <glyph glyph-name="ebreve" unicode="&#x115;" 
d="M190 647c-34.667 0 -62.3369 9.16895 -83.0039 27.502s-31.667 46.166 -33 83.499h37c0.666992 -26.667 8.33398 -46.167 23.001 -58.5s33.334 -18.5 56.001 -18.5s41.334 6.16699 56.001 18.5s23 31.833 25 58.5h37c-1.33301 -36.667 -12.666 -64.334 -33.999 -83.001
s-49.333 -28 -84 -28zM98.9971 334.002h185v45c0 23.333 -0.5 42.5 -1.5 57.5s-3.33301 30.167 -7 45.5s-8.66699 27.333 -15 36s-15 15.667 -26 21s-24.5 8 -40.5 8c-23.333 0 -41.333 -4.33301 -54 -13s-22.667 -25.5 -30 -50.5s-11 -60.167 -11 -105.5v-44z
M192.997 -8.99805c-19.333 0 -36.167 2.00293 -50.5 6.00293s-27.833 11 -40.5 21s-23 23.333 -31 40s-14.167 38 -18.5 64s-6.5 56.667 -6.5 92v154c0 35.333 2.33301 66.166 7 92.499s10.834 47.5 18.501 63.5s18 28.833 31 38.5s26.667 16.167 41 19.5s31.166 5 50.499 5
c53.333 0 90.333 -17.333 111 -52s31 -94 31 -178l-1 -55h-236v-92c0 -68 7.16699 -114.833 21.5 -140.5s38.5 -38.5 72.5 -38.5c10 0 18.5 0.666992 25.5 2s15 4.33301 24 9s16.167 11.167 21.5 19.5s10 20.166 14 35.499s6 33.666 6 54.999v43h52v-38
c0 -53.333 -11 -94.333 -33 -123s-58.667 -43 -110 -43z" />
    <glyph glyph-name="Edotaccent" unicode="&#x116;" horiz-adv-x="392" 
d="M186 879v104h59v-104h-59zM74 0v810h280v-44h-225v-325h185v-42h-185v-356h228v-43h-283z" />
    <glyph glyph-name="edotaccent" unicode="&#x117;" 
d="M162 647v104h59v-104h-59zM99 334h185v45c0 23.333 -0.5 42.5 -1.5 57.5s-3.33301 30.167 -7 45.5s-8.66699 27.333 -15 36s-15 15.667 -26 21s-24.5 8 -40.5 8c-23.333 0 -41.333 -4.33301 -54 -13s-22.667 -25.5 -30 -50.5s-11 -60.167 -11 -105.5v-44zM193 -9
c-19.333 0 -36.167 2.00293 -50.5 6.00293s-27.833 11 -40.5 21s-23 23.333 -31 40s-14.167 38 -18.5 64s-6.5 56.667 -6.5 92v154c0 35.333 2.33301 66.166 7 92.499s10.834 47.5 18.501 63.5s18 28.833 31 38.5s26.667 16.167 41 19.5s31.166 5 50.499 5
c53.333 0 90.333 -17.333 111 -52s31 -94 31 -178l-1 -55h-236v-92c0 -68 7.16699 -114.833 21.5 -140.5s38.5 -38.5 72.5 -38.5c10 0 18.5 0.666992 25.5 2s15 4.33301 24 9s16.167 11.167 21.5 19.5s10 20.166 14 35.499s6 33.666 6 54.999v43h52v-38
c0 -53.333 -11 -94.333 -33 -123s-58.667 -43 -110 -43z" />
    <glyph glyph-name="Eogonek" unicode="&#x118;" horiz-adv-x="392" 
d="M278 -199c-82 0 -123.002 26.667 -123.002 80c0 23.333 7.66699 46.333 23 69s34 40 56 52h30c-45.333 -45.333 -67.666 -84.333 -66.999 -117c0 -18.667 8.33301 -32.167 25 -40.5s38.334 -12.5 65.001 -12.5zM73.998 0v810h280v-44h-225v-325h185v-42h-185v-356h228
v-43h-283z" />
    <glyph glyph-name="eogonek" unicode="&#x119;" 
d="M259 -199c-82 0 -123.002 26.667 -123.002 80c0 23.333 7.66699 46.333 23 69s34 40 56 52h30c-45.333 -45.333 -67.666 -84.333 -66.999 -117c0 -18.667 8.33301 -32.167 25 -40.5s38.334 -12.5 65.001 -12.5zM98.998 334h185v45c0 23.333 -0.5 42.5 -1.5 57.5
s-3.33301 30.167 -7 45.5s-8.66699 27.333 -15 36s-15 15.667 -26 21s-24.5 8 -40.5 8c-23.333 0 -41.333 -4.33301 -54 -13s-22.667 -25.5 -30 -50.5s-11 -60.167 -11 -105.5v-44zM192.998 -9c-19.333 0 -36.167 2.00293 -50.5 6.00293s-27.833 11 -40.5 21
s-23 23.333 -31 40s-14.167 38 -18.5 64s-6.5 56.667 -6.5 92v154c0 35.333 2.33301 66.166 7 92.499s10.834 47.5 18.501 63.5s18 28.833 31 38.5s26.667 16.167 41 19.5s31.166 5 50.499 5c53.333 0 90.333 -17.333 111 -52s31 -94 31 -178l-1 -55h-236v-92
c0 -68 7.16699 -114.833 21.5 -140.5s38.5 -38.5 72.5 -38.5c10 0 18.5 0.666992 25.5 2s15 4.33301 24 9s16.167 11.167 21.5 19.5s10 20.166 14 35.499s6 33.666 6 54.999v43h52v-38c0 -53.333 -11 -94.333 -33 -123s-58.667 -43 -110 -43z" />
    <glyph glyph-name="Ecaron" unicode="&#x11a;" horiz-adv-x="392" 
d="M195 878l-85 163h46l59 -122l60 122h45l-85 -163h-40zM74 0v810h280v-44h-225v-325h185v-42h-185v-356h228v-43h-283z" />
    <glyph glyph-name="ecaron" unicode="&#x11b;" 
d="M171 647l-85 163h46l59 -122l60 122h45l-85 -163h-40zM99 334h185v45c0 23.333 -0.5 42.5 -1.5 57.5s-3.33301 30.167 -7 45.5s-8.66699 27.333 -15 36s-15 15.667 -26 21s-24.5 8 -40.5 8c-23.333 0 -41.333 -4.33301 -54 -13s-22.667 -25.5 -30 -50.5
s-11 -60.167 -11 -105.5v-44zM193 -9c-19.333 0 -36.167 2.00293 -50.5 6.00293s-27.833 11 -40.5 21s-23 23.333 -31 40s-14.167 38 -18.5 64s-6.5 56.667 -6.5 92v154c0 35.333 2.33301 66.166 7 92.499s10.834 47.5 18.501 63.5s18 28.833 31 38.5s26.667 16.167 41 19.5
s31.166 5 50.499 5c53.333 0 90.333 -17.333 111 -52s31 -94 31 -178l-1 -55h-236v-92c0 -68 7.16699 -114.833 21.5 -140.5s38.5 -38.5 72.5 -38.5c10 0 18.5 0.666992 25.5 2s15 4.33301 24 9s16.167 11.167 21.5 19.5s10 20.166 14 35.499s6 33.666 6 54.999v43h52v-38
c0 -53.333 -11 -94.333 -33 -123s-58.667 -43 -110 -43z" />
    <glyph glyph-name="Gcircumflex" unicode="&#x11c;" horiz-adv-x="510" 
d="M132 878l86 180h66l85 -180h-38l-80 153l-80 -153h-39zM252 -11c-30 0 -56.3311 3.99805 -78.998 11.998s-41.334 19 -56.001 33s-26.5 31.667 -35.5 53s-15.167 43.833 -18.5 67.5s-5 50.5 -5 80.5v344c0 30 1.66699 56.667 5 80s9.66602 45.166 18.999 65.499
s21.333 37.333 36 51s33.5 24.334 56.5 32.001s49.833 11.5 80.5 11.5c67.333 0 115.333 -19.667 144 -59s43 -96.666 43 -171.999v-28h-52v31c0 62.667 -9.83301 108.834 -29.5 138.501s-54.834 44.5 -105.501 44.5c-23.333 0 -43.5 -3.16699 -60.5 -9.5
s-30.667 -14.833 -41 -25.5s-18.5 -24.5 -24.5 -41.5s-10.167 -34.667 -12.5 -53s-3.5 -39.5 -3.5 -63.5v-353c0 -31.333 2 -58.166 6 -80.499s11.333 -42.333 22 -60s25.5 -31 44.5 -40s42.5 -13.5 70.5 -13.5c26 0 48.167 4.33301 66.5 13s32.333 21.5 42 38.5
s16.667 36.667 21 59s6.5 49.166 6.5 80.499v119h-129v42h180v-386h-35l-8 91c-21.333 -68 -70.666 -102 -147.999 -102z" />
    <glyph glyph-name="gcircumflex" unicode="&#x11d;" horiz-adv-x="428" 
d="M109 647l86 180h66l85 -180h-38l-80 153l-80 -153h-39zM207 223c74 0 110.666 55.001 109.999 165.001c0 14 -0.833008 27.5 -2.5 40.5s-5 27 -10 42s-11.5 28 -19.5 39s-18.833 20.167 -32.5 27.5s-29.167 11 -46.5 11s-33 -3.83301 -47 -11.5s-25 -17.334 -33 -29.001
s-14.5 -25 -19.5 -40s-8.5 -29 -10.5 -42s-3 -25.5 -3 -37.5c0 -14 0.833008 -27.667 2.5 -41s4.83398 -27.833 9.50098 -43.5s11 -29.167 19 -40.5s19.167 -20.833 33.5 -28.5s30.833 -11.5 49.5 -11.5zM201.999 -152.999c42 0 76 7 102 21s39 35 39 63
c0 15.333 -3 27.833 -9 37.5s-18.333 19 -37 28s-45.667 17.167 -81 24.5l-63 11c-61.333 -35.333 -92 -73 -92 -113c0 -48 47 -72 141 -72zM201.999 -195.999c-125.333 0 -187.667 33.998 -187 101.998c0 27.333 10.167 53 30.5 77s44.5 43.333 72.5 58
c-18 4.66699 -34.167 10.834 -48.5 18.501s-21.5 15.834 -21.5 24.501c0 28 24 69.667 72 125c-50.667 35.333 -76 95 -76 179c0 24.667 3.16699 48.5 9.5 71.5s15.833 44.167 28.5 63.5s29.5 34.833 50.5 46.5s45.167 17.5 72.5 17.5c57.333 0 100 -25.667 128 -77
c7.33301 13.333 18.166 26.333 32.499 39s29.5 22.334 45.5 29.001l14 5l15 -40c-17.333 -4 -34.666 -11.5 -51.999 -22.5s-31 -22.833 -41 -35.5c4.66699 -12.667 9 -29 13 -49s6 -36.333 6 -49c0 -61.333 -13 -110.5 -39 -147.5s-66 -55.5 -120 -55.5
c-24 0 -44.667 3.33301 -62 10c-2 -3.33301 -8.33301 -12.666 -19 -27.999s-18.667 -28.333 -24 -39s-8 -19.334 -8 -26.001s16 -13.334 48 -20.001c10.667 -2.66699 28 -6.5 52 -11.5s38 -7.83301 42 -8.5c50 -11.333 87.833 -26.833 113.5 -46.5s38.5 -47.167 38.5 -82.5
c0 -22 -5 -41.333 -15 -58s-23.667 -30 -41 -40s-37 -17.5 -59 -22.5s-45.667 -7.5 -71 -7.5z" />
    <glyph glyph-name="Gbreve" unicode="&#x11e;" horiz-adv-x="510" 
d="M249 879c-34.667 0 -62.3369 9.16895 -83.0039 27.502s-31.667 46.166 -33 83.499h37c0.666992 -26.667 8.33398 -46.167 23.001 -58.5s33.334 -18.5 56.001 -18.5s41.334 6.16699 56.001 18.5s23 31.833 25 58.5h37c-1.33301 -36.667 -12.666 -64.334 -33.999 -83.001
s-49.333 -28 -84 -28zM251.997 -10.998c-30 0 -56.3311 3.99805 -78.998 11.998s-41.334 19 -56.001 33s-26.5 31.667 -35.5 53s-15.167 43.833 -18.5 67.5s-5 50.5 -5 80.5v344c0 30 1.66699 56.667 5 80s9.66602 45.166 18.999 65.499s21.333 37.333 36 51
s33.5 24.334 56.5 32.001s49.833 11.5 80.5 11.5c67.333 0 115.333 -19.667 144 -59s43 -96.666 43 -171.999v-28h-52v31c0 62.667 -9.83301 108.834 -29.5 138.501s-54.834 44.5 -105.501 44.5c-23.333 0 -43.5 -3.16699 -60.5 -9.5s-30.667 -14.833 -41 -25.5
s-18.5 -24.5 -24.5 -41.5s-10.167 -34.667 -12.5 -53s-3.5 -39.5 -3.5 -63.5v-353c0 -31.333 2 -58.166 6 -80.499s11.333 -42.333 22 -60s25.5 -31 44.5 -40s42.5 -13.5 70.5 -13.5c26 0 48.167 4.33301 66.5 13s32.333 21.5 42 38.5s16.667 36.667 21 59
s6.5 49.166 6.5 80.499v119h-129v42h180v-386h-35l-8 91c-21.333 -68 -70.666 -102 -147.999 -102z" />
    <glyph glyph-name="gbreve" unicode="&#x11f;" horiz-adv-x="428" 
d="M226 647c-34.667 0 -62.3369 9.16895 -83.0039 27.502s-31.667 46.166 -33 83.499h37c0.666992 -26.667 8.33398 -46.167 23.001 -58.5s33.334 -18.5 56.001 -18.5s41.334 6.16699 56.001 18.5s23 31.833 25 58.5h37c-1.33301 -36.667 -12.666 -64.334 -33.999 -83.001
s-49.333 -28 -84 -28zM206.997 223.002c74 0 110.666 55.001 109.999 165.001c0 14 -0.833008 27.5 -2.5 40.5s-5 27 -10 42s-11.5 28 -19.5 39s-18.833 20.167 -32.5 27.5s-29.167 11 -46.5 11s-33 -3.83301 -47 -11.5s-25 -17.334 -33 -29.001s-14.5 -25 -19.5 -40
s-8.5 -29 -10.5 -42s-3 -25.5 -3 -37.5c0 -14 0.833008 -27.667 2.5 -41s4.83398 -27.833 9.50098 -43.5s11 -29.167 19 -40.5s19.167 -20.833 33.5 -28.5s30.833 -11.5 49.5 -11.5zM201.996 -152.997c42 0 76 7 102 21s39 35 39 63c0 15.333 -3 27.833 -9 37.5
s-18.333 19 -37 28s-45.667 17.167 -81 24.5l-63 11c-61.333 -35.333 -92 -73 -92 -113c0 -48 47 -72 141 -72zM201.996 -195.997c-125.333 0 -187.667 33.998 -187 101.998c0 27.333 10.167 53 30.5 77s44.5 43.333 72.5 58c-18 4.66699 -34.167 10.834 -48.5 18.501
s-21.5 15.834 -21.5 24.501c0 28 24 69.667 72 125c-50.667 35.333 -76 95 -76 179c0 24.667 3.16699 48.5 9.5 71.5s15.833 44.167 28.5 63.5s29.5 34.833 50.5 46.5s45.167 17.5 72.5 17.5c57.333 0 100 -25.667 128 -77c7.33301 13.333 18.166 26.333 32.499 39
s29.5 22.334 45.5 29.001l14 5l15 -40c-17.333 -4 -34.666 -11.5 -51.999 -22.5s-31 -22.833 -41 -35.5c4.66699 -12.667 9 -29 13 -49s6 -36.333 6 -49c0 -61.333 -13 -110.5 -39 -147.5s-66 -55.5 -120 -55.5c-24 0 -44.667 3.33301 -62 10
c-2 -3.33301 -8.33301 -12.666 -19 -27.999s-18.667 -28.333 -24 -39s-8 -19.334 -8 -26.001s16 -13.334 48 -20.001c10.667 -2.66699 28 -6.5 52 -11.5s38 -7.83301 42 -8.5c50 -11.333 87.833 -26.833 113.5 -46.5s38.5 -47.167 38.5 -82.5c0 -22 -5 -41.333 -15 -58
s-23.667 -30 -41 -40s-37 -17.5 -59 -22.5s-45.667 -7.5 -71 -7.5z" />
    <glyph glyph-name="Gdotaccent" unicode="&#x120;" horiz-adv-x="510" 
d="M221 879v104h59v-104h-59zM252 -11c-30 0 -56.3311 3.99805 -78.998 11.998s-41.334 19 -56.001 33s-26.5 31.667 -35.5 53s-15.167 43.833 -18.5 67.5s-5 50.5 -5 80.5v344c0 30 1.66699 56.667 5 80s9.66602 45.166 18.999 65.499s21.333 37.333 36 51
s33.5 24.334 56.5 32.001s49.833 11.5 80.5 11.5c67.333 0 115.333 -19.667 144 -59s43 -96.666 43 -171.999v-28h-52v31c0 62.667 -9.83301 108.834 -29.5 138.501s-54.834 44.5 -105.501 44.5c-23.333 0 -43.5 -3.16699 -60.5 -9.5s-30.667 -14.833 -41 -25.5
s-18.5 -24.5 -24.5 -41.5s-10.167 -34.667 -12.5 -53s-3.5 -39.5 -3.5 -63.5v-353c0 -31.333 2 -58.166 6 -80.499s11.333 -42.333 22 -60s25.5 -31 44.5 -40s42.5 -13.5 70.5 -13.5c26 0 48.167 4.33301 66.5 13s32.333 21.5 42 38.5s16.667 36.667 21 59
s6.5 49.166 6.5 80.499v119h-129v42h180v-386h-35l-8 91c-21.333 -68 -70.666 -102 -147.999 -102z" />
    <glyph glyph-name="gdotaccent" unicode="&#x121;" horiz-adv-x="428" 
d="M198 647v104h59v-104h-59zM207 223c74 0 110.666 55.001 109.999 165.001c0 14 -0.833008 27.5 -2.5 40.5s-5 27 -10 42s-11.5 28 -19.5 39s-18.833 20.167 -32.5 27.5s-29.167 11 -46.5 11s-33 -3.83301 -47 -11.5s-25 -17.334 -33 -29.001s-14.5 -25 -19.5 -40
s-8.5 -29 -10.5 -42s-3 -25.5 -3 -37.5c0 -14 0.833008 -27.667 2.5 -41s4.83398 -27.833 9.50098 -43.5s11 -29.167 19 -40.5s19.167 -20.833 33.5 -28.5s30.833 -11.5 49.5 -11.5zM201.999 -152.999c42 0 76 7 102 21s39 35 39 63c0 15.333 -3 27.833 -9 37.5
s-18.333 19 -37 28s-45.667 17.167 -81 24.5l-63 11c-61.333 -35.333 -92 -73 -92 -113c0 -48 47 -72 141 -72zM201.999 -195.999c-125.333 0 -187.667 33.998 -187 101.998c0 27.333 10.167 53 30.5 77s44.5 43.333 72.5 58c-18 4.66699 -34.167 10.834 -48.5 18.501
s-21.5 15.834 -21.5 24.501c0 28 24 69.667 72 125c-50.667 35.333 -76 95 -76 179c0 24.667 3.16699 48.5 9.5 71.5s15.833 44.167 28.5 63.5s29.5 34.833 50.5 46.5s45.167 17.5 72.5 17.5c57.333 0 100 -25.667 128 -77c7.33301 13.333 18.166 26.333 32.499 39
s29.5 22.334 45.5 29.001l14 5l15 -40c-17.333 -4 -34.666 -11.5 -51.999 -22.5s-31 -22.833 -41 -35.5c4.66699 -12.667 9 -29 13 -49s6 -36.333 6 -49c0 -61.333 -13 -110.5 -39 -147.5s-66 -55.5 -120 -55.5c-24 0 -44.667 3.33301 -62 10
c-2 -3.33301 -8.33301 -12.666 -19 -27.999s-18.667 -28.333 -24 -39s-8 -19.334 -8 -26.001s16 -13.334 48 -20.001c10.667 -2.66699 28 -6.5 52 -11.5s38 -7.83301 42 -8.5c50 -11.333 87.833 -26.833 113.5 -46.5s38.5 -47.167 38.5 -82.5c0 -22 -5 -41.333 -15 -58
s-23.667 -30 -41 -40s-37 -17.5 -59 -22.5s-45.667 -7.5 -71 -7.5z" />
    <glyph glyph-name="Gcommaaccent" unicode="&#x122;" horiz-adv-x="510" 
d="M228 -251l-13 21c27.333 18 41 46 41 84h-35v75h65v-62c0 -32 -4.16699 -57 -12.5 -75s-23.5 -32.333 -45.5 -43zM252 -11c-30 0 -56.3311 3.99805 -78.998 11.998s-41.334 19 -56.001 33s-26.5 31.667 -35.5 53s-15.167 43.833 -18.5 67.5s-5 50.5 -5 80.5v344
c0 30 1.66699 56.667 5 80s9.66602 45.166 18.999 65.499s21.333 37.333 36 51s33.5 24.334 56.5 32.001s49.833 11.5 80.5 11.5c67.333 0 115.333 -19.667 144 -59s43 -96.666 43 -171.999v-28h-52v31c0 62.667 -9.83301 108.834 -29.5 138.501s-54.834 44.5 -105.501 44.5
c-23.333 0 -43.5 -3.16699 -60.5 -9.5s-30.667 -14.833 -41 -25.5s-18.5 -24.5 -24.5 -41.5s-10.167 -34.667 -12.5 -53s-3.5 -39.5 -3.5 -63.5v-353c0 -31.333 2 -58.166 6 -80.499s11.333 -42.333 22 -60s25.5 -31 44.5 -40s42.5 -13.5 70.5 -13.5
c26 0 48.167 4.33301 66.5 13s32.333 21.5 42 38.5s16.667 36.667 21 59s6.5 49.166 6.5 80.499v119h-129v42h180v-386h-35l-8 91c-21.333 -68 -70.666 -102 -147.999 -102z" />
    <glyph glyph-name="gcommaaccent" unicode="&#x123;" horiz-adv-x="439" 
d="M209 220c20 0 37.3311 4.16797 51.998 12.501s26 18.5 34 30.5s14.333 26.167 19 42.5s7.66699 31 9 44s2 26.5 2 40.5c0 16 -1.66699 32.5 -5 49.5s-9 34.5 -17 52.5s-20.167 32.667 -36.5 44s-35.833 17 -58.5 17c-18.667 0 -35.167 -4.33301 -49.5 -13
s-25.666 -19.167 -33.999 -31.5s-15.166 -26.333 -20.499 -42s-8.83301 -29.667 -10.5 -42s-2.5 -23.5 -2.5 -33.5c0 -11.333 0.5 -22.5 1.5 -33.5s3 -23.333 6 -37s7.33301 -26.167 13 -37.5s12.667 -21.833 21 -31.5s19 -17.334 32 -23.001s27.833 -8.5 44.5 -8.5z
M196.998 -161.999c28 0 52.999 2.83008 74.999 8.49707s40.167 15.167 54.5 28.5s21.5 29.666 21.5 48.999v3c0 14.667 -3.5 27 -10.5 37s-20.333 19.667 -40 29s-47.834 18.333 -84.501 27l-56 12c-12.667 -7.33301 -23.667 -14.166 -33 -20.499
s-19.666 -14.666 -30.999 -24.999s-20.166 -21.666 -26.499 -33.999s-9.5 -25.166 -9.5 -38.499c0 -26 12.667 -45.167 38 -57.5s59.333 -18.5 102 -18.5zM225.997 731.998v58.999c0 32 4.5 57.333 13.5 76s24.5 34.334 46.5 47.001l7 -14
c-14.667 -12.667 -25.167 -27.667 -31.5 -45s-9.5 -33.333 -9.5 -48h37v-75h-63zM196.997 -199.003c-60 0 -106.164 9.33594 -138.497 28.0029s-48.5 45.667 -48.5 81c0 25.333 10.667 49.833 32 73.5s46.666 43.167 75.999 58.5c-50.667 13.333 -76 27.666 -76 42.999
c0 9.33301 2.33301 19.666 7 30.999s11.834 23.833 21.501 37.5s17.334 24 23.001 31s13.167 16.5 22.5 28.5c-51.333 35.333 -76.666 94 -75.999 176c0 18 1.83301 36.167 5.5 54.5s10 36.166 19 53.499s19.833 32.666 32.5 45.999s28.5 24.166 47.5 32.499
s39.833 12.5 62.5 12.5c56.667 0 100.334 -26 131.001 -78c8.66699 15.333 20.167 29.333 34.5 42s29.166 22.334 44.499 29.001l14 5l15 -35c-32 -8 -62.667 -29.333 -92 -64c5.33301 -12.667 10.166 -29 14.499 -49s6.5 -36.333 6.5 -49c0 -39.333 -5.66699 -74 -17 -104
s-29.5 -54 -54.5 -72s-56.167 -27 -93.5 -27c-26.667 0 -49.667 4.33301 -69 13c-2.66699 -4 -8.33398 -12.333 -17.001 -25s-15.334 -22.667 -20.001 -30s-9.33398 -15.833 -14.001 -25.5s-7 -17.5 -7 -23.5c0 -4 16 -10.333 48 -19c9.33301 -2 43.333 -9.66699 102 -23
c54 -13.333 94 -29.333 120 -48s39 -44.667 39 -78c0 -27.333 -9.33301 -50.666 -28 -69.999s-42.334 -33.5 -71.001 -42.5s-60.667 -13.5 -96 -13.5z" />
    <glyph glyph-name="Hcircumflex" unicode="&#x124;" horiz-adv-x="541" 
d="M152 878l86 180h66l85 -180h-38l-80 153l-80 -153h-39zM74 0v810h55v-365h284v365h54v-810h-54v403h-284v-403h-55z" />
    <glyph glyph-name="hcircumflex" unicode="&#x125;" horiz-adv-x="391" 
d="M80 869l86 180h66l85 -180h-38l-80 153l-80 -153h-39zM57 0l-0.00195312 810h53v-293c40.667 47.333 86.667 70.666 138 69.999c28 0 50.167 -10.167 66.5 -30.5s24.5 -52.166 24.5 -95.499v-461h-54v455c0 33.333 -5.16699 56.833 -15.5 70.5s-25.166 20.5 -44.499 20.5
c-37.333 0 -75.666 -21.333 -114.999 -64v-482h-53z" />
    <glyph glyph-name="Hbar" unicode="&#x126;" horiz-adv-x="541" 
d="M129 445h284v195h-284v-195zM74 0v640h-37v32h37v138h55v-138h284v138h54v-138h38v-32h-38v-640h-54v403h-284v-403h-55z" />
    <glyph glyph-name="hbar" unicode="&#x127;" horiz-adv-x="391" 
d="M57 0l-0.000976562 701h-66v34h66v75h53v-75h118v-34h-118v-184c40.667 47.333 86.334 70.666 137.001 69.999c28 0 50.167 -10.167 66.5 -30.5s24.5 -52.166 24.5 -95.499v-461h-53v455c0 33.333 -5.16699 56.833 -15.5 70.5s-25.5 20.5 -45.5 20.5
c-38 0 -76 -21.333 -114 -64v-482h-53z" />
    <glyph glyph-name="Itilde" unicode="&#x128;" horiz-adv-x="206" 
d="M146 879c-12.667 0.666992 -28.833 8.16797 -48.5 22.501s-32.834 21.833 -39.501 22.5c-2 0.666992 -5 1 -9 1c-8.66699 0 -15.5 -3.33301 -20.5 -10s-7.5 -16.334 -7.5 -29.001h-36c0 4 0.333008 8.66699 1 14s2.33398 11.833 5.00098 19.5s6 14.5 10 20.5
s10 11.167 18 15.5s17.333 6.5 28 6.5c6 0 10.333 -0.333008 13 -1c12 -1.33301 28 -9 48 -23s33.667 -21.667 41 -23h6c20 0 30.667 15 32 45h34c0 -7.33301 -0.666992 -15 -2 -23s-4 -16.667 -8 -26s-10.833 -17 -20.5 -23s-21.167 -9 -34.5 -9h-10zM76.001 0.000976562
v810h54v-810h-54z" />
    <glyph glyph-name="itilde" unicode="&#x129;" horiz-adv-x="181" 
d="M135 647c-12.667 0.666992 -28.833 8.16797 -48.5 22.501s-32.834 21.833 -39.501 22.5c-2 0.666992 -5 1 -9 1c-8.66699 0 -15.5 -3.33301 -20.5 -10s-7.5 -16.334 -7.5 -29.001h-36c0 4 0.333008 8.66699 1 14s2.33398 11.833 5.00098 19.5s6 14.5 10 20.5
s10 11.167 18 15.5s17.333 6.5 28 6.5c6 0 10.333 -0.333008 13 -1c12 -1.33301 28 -9 48 -23s33.667 -21.667 41 -23h6c20 0 30.667 15 32 45h34c0 -7.33301 -0.666992 -15 -2 -23s-4 -16.667 -8 -26s-10.833 -17 -20.5 -23s-21.167 -9 -34.5 -9h-10zM65.001 0.000976562
v578h53v-578h-53z" />
    <glyph glyph-name="Imacron" unicode="&#x12a;" horiz-adv-x="206" 
d="M18 878v37h171v-37h-171zM76 0v810h54v-810h-54z" />
    <glyph glyph-name="imacron" unicode="&#x12b;" horiz-adv-x="181" 
d="M6 647v37h171v-37h-171zM65 0v578h53v-578h-53z" />
    <glyph glyph-name="Ibreve" unicode="&#x12c;" horiz-adv-x="206" 
d="M102 879c-34.667 0 -62.3369 9.16895 -83.0039 27.502s-31.667 46.166 -33 83.499h37c0.666992 -26.667 8.33398 -46.167 23.001 -58.5s33.334 -18.5 56.001 -18.5s41.334 6.16699 56.001 18.5s23 31.833 25 58.5h37c-1.33301 -36.667 -12.666 -64.334 -33.999 -83.001
s-49.333 -28 -84 -28zM75.9971 0.00195312v810h54v-810h-54z" />
    <glyph glyph-name="ibreve" unicode="&#x12d;" horiz-adv-x="181" 
d="M90 647c-34.667 0 -62.3369 9.16895 -83.0039 27.502s-31.667 46.166 -33 83.499h37c0.666992 -26.667 8.33398 -46.167 23.001 -58.5s33.334 -18.5 56.001 -18.5s41.334 6.16699 56.001 18.5s23 31.833 25 58.5h37c-1.33301 -36.667 -12.666 -64.334 -33.999 -83.001
s-49.333 -28 -84 -28zM64.9971 0.00195312v578h53v-578h-53z" />
    <glyph glyph-name="Iogonek" unicode="&#x12e;" horiz-adv-x="206" 
d="M136 -199c-82 0 -123.002 26.667 -123.002 80c0 23.333 7.66699 46.333 23 69s34 40 56 52h30c-45.333 -45.333 -67.666 -84.333 -66.999 -117c0 -18.667 8.33301 -32.167 25 -40.5s38.334 -12.5 65.001 -12.5zM75.998 0v810h54v-810h-54z" />
    <glyph glyph-name="iogonek" unicode="&#x12f;" horiz-adv-x="189" 
d="M124 -199c-82 0 -123.002 26.667 -123.002 80c0 23.333 7.66699 46.333 23 69s34 40 56 52h30c-45.333 -45.333 -67.666 -84.333 -66.999 -117c0 -18.667 8.33301 -32.167 25 -40.5s38.334 -12.5 65.001 -12.5zM64.998 654v92h54v-92h-54zM64.998 0v578h54v-578h-54z" />
    <glyph glyph-name="Idotaccent" unicode="&#x130;" horiz-adv-x="206" 
d="M74 879v104h59v-104h-59zM76 0v810h54v-810h-54z" />
    <glyph glyph-name="dotlessi" unicode="&#x131;" horiz-adv-x="181" 
d="M65 0v578h53v-578h-53z" />
    <glyph glyph-name="ij" unicode="&#x133;" horiz-adv-x="391" 
d="M270 654v92h53v-92h-53zM173 -153l-0.000976562 42.999c2.66699 -0.666992 10.667 -1 24 -1s24.666 1.66699 33.999 5s16.5 7.5 21.5 12.5s8.83301 11.667 11.5 20s4.33398 15.833 5.00098 22.5s1 15.334 1 26.001v603h53v-606c0 -44.667 -10.167 -77 -30.5 -97
s-50.166 -30 -89.499 -30c-16.667 0 -26.667 0.666992 -30 2zM64.999 653.999v92h54v-92h-54zM64.999 -0.000976562v578h54v-578h-54z" />
    <glyph glyph-name="Jcircumflex" unicode="&#x134;" horiz-adv-x="265" 
d="M45 841l86 180h66l85 -180h-38l-80 153l-80 -153h-39zM8 -45l0.000976562 43c20.667 0 37.667 0.5 51 1.5s25 4 35 9s17.5 10.5 22.5 16.5s9.16699 15.5 12.5 28.5s5.33301 26.333 6 40s1 32.5 1 56.5v660h54v-666c0 -23.333 -0.666992 -43 -2 -59
s-3.83301 -31.667 -7.5 -47s-9 -27.833 -16 -37.5s-16.167 -18.167 -27.5 -25.5s-25.333 -12.5 -42 -15.5s-36.334 -4.5 -59.001 -4.5h-28z" />
    <glyph glyph-name="jcircumflex" unicode="&#x135;" horiz-adv-x="202" 
d="M-15 612l86 180h66l85 -180h-38l-80 153l-80 -153h-39zM-16 -157l0.000976562 43.002c1.33301 0 9.33301 -0.333008 24 -1c16.667 0 30.167 2.33301 40.5 7s17.666 11.667 21.999 21s7.16602 18.166 8.49902 26.499s2 19.166 2 32.499v606h53v-610
c0 -44.667 -10.167 -77 -30.5 -97s-50.166 -30 -89.499 -30c-16.667 0 -26.667 0.666992 -30 2z" />
    <glyph glyph-name="Kcommaaccent" unicode="&#x136;" horiz-adv-x="459" 
d="M244 -240l-13 21c27.333 18 41 46 41 84h-35v75h65v-62c0 -32 -4.16699 -57 -12.5 -75s-23.5 -32.333 -45.5 -43zM74 0v810h55v-455l235 455h54l-171 -343l212 -467h-54l-197 434l-79 -144v-290h-55z" />
    <glyph glyph-name="kcommaaccent" unicode="&#x137;" horiz-adv-x="383" 
d="M197 -240l-13 21c27.333 18 41 46 41 84h-35v75h65v-62c0 -32 -4.16699 -57 -12.5 -75s-23.5 -32.333 -45.5 -43zM57 0v810h53v-534l215 302h57l-152 -221l144 -357h-54l-130 325l-80 -108v-217h-53z" />
    <glyph glyph-name="kgreenlandic" unicode="&#x138;" horiz-adv-x="410" 
d="M64 0v578h53v-302l201 302h57l-148 -226l151 -352h-54l-135 316l-72 -102v-214h-53z" />
    <glyph glyph-name="Lacute" unicode="&#x139;" horiz-adv-x="373" 
d="M210 879l64 194h54l-90 -194h-28zM75 0v810h54v-767h245v-43h-299z" />
    <glyph glyph-name="lacute" unicode="&#x13a;" horiz-adv-x="185" 
d="M80 869l64 194h54l-90 -194h-28zM67 0v810h53v-810h-53z" />
    <glyph glyph-name="Lcommaaccent" unicode="&#x13b;" horiz-adv-x="373" 
d="M202 -240l-13 21c27.333 18 41 46 41 84h-35v75h65v-62c0 -32 -4.16699 -57 -12.5 -75s-23.5 -32.333 -45.5 -43zM75 0v810h54v-767h245v-43h-299z" />
    <glyph glyph-name="lcommaaccent" unicode="&#x13c;" horiz-adv-x="185" 
d="M71 -240l-13 21c27.333 18 41 46 41 84h-35v75h65v-62c0 -32 -4.16699 -57 -12.5 -75s-23.5 -32.333 -45.5 -43zM67 0v810h53v-810h-53z" />
    <glyph glyph-name="Lcaron" unicode="&#x13d;" horiz-adv-x="373" 
d="M226 589v230h55l-26 -230h-29zM75 0v810h54v-767h245v-43h-299z" />
    <glyph glyph-name="lcaron" unicode="&#x13e;" horiz-adv-x="255" 
d="M209 580v230h55l-26 -230h-29zM67 0v810h53v-810h-53z" />
    <glyph glyph-name="Ldot" unicode="&#x13f;" horiz-adv-x="373" 
d="M258 372v75h55v-75h-55zM75 0v810h54v-767h245v-43h-299z" />
    <glyph glyph-name="ldot" unicode="&#x140;" horiz-adv-x="380" 
d="M267 340v75h55v-75h-55zM67 0v810h53v-810h-53z" />
    <glyph glyph-name="Lslash" unicode="&#x141;" horiz-adv-x="373" 
d="M75 0v408l-72 -37v44l72 37v358h54v-329l122 63v-44l-122 -63v-394h245v-43h-299z" />
    <glyph glyph-name="lslash" unicode="&#x142;" horiz-adv-x="246" 
d="M97 0v460l-62 -34v47l62 33v304h53v-276l60 33v-46l-60 -33v-488h-53z" />
    <glyph glyph-name="Nacute" unicode="&#x143;" horiz-adv-x="515" 
d="M244 879l64 194h54l-90 -194h-28zM75 0v810h43l275 -684v684h48v-810h-43l-275 685v-685h-48z" />
    <glyph glyph-name="nacute" unicode="&#x144;" horiz-adv-x="391" 
d="M183 647l64 194h54l-90 -194h-28zM57 0l-0.000976562 577.999h53v-62c40.667 47.333 86.334 71 137.001 71c28 0 50.167 -10.167 66.5 -30.5s24.5 -52.166 24.5 -95.499v-461h-53v455c0 33.333 -5.16699 56.833 -15.5 70.5s-25.5 20.5 -45.5 20.5
c-18.667 0 -38 -5.83301 -58 -17.5s-38.667 -27.167 -56 -46.5v-482h-53z" />
    <glyph glyph-name="Ncommaaccent" unicode="&#x145;" horiz-adv-x="515" 
d="M235 -240l-13 21c27.333 18 41 46 41 84h-35v75h65v-62c0 -32 -4.16699 -57 -12.5 -75s-23.5 -32.333 -45.5 -43zM75 0v810h43l275 -684v684h48v-810h-43l-275 685v-685h-48z" />
    <glyph glyph-name="ncommaaccent" unicode="&#x146;" horiz-adv-x="391" 
d="M175 -240l-13 21c27.333 18 41 46 41 84h-35v75h65v-62c0 -32 -4.16699 -57 -12.5 -75s-23.5 -32.333 -45.5 -43zM57 0l-0.000976562 577.999h53v-62c40.667 47.333 86.334 71 137.001 71c28 0 50.167 -10.167 66.5 -30.5s24.5 -52.166 24.5 -95.499v-461h-53v455
c0 33.333 -5.16699 56.833 -15.5 70.5s-25.5 20.5 -45.5 20.5c-18.667 0 -38 -5.83301 -58 -17.5s-38.667 -27.167 -56 -46.5v-482h-53z" />
    <glyph glyph-name="Ncaron" unicode="&#x147;" horiz-adv-x="515" 
d="M238 878l-85 163h46l59 -122l60 122h45l-85 -163h-40zM75 0v810h43l275 -684v684h48v-810h-43l-275 685v-685h-48z" />
    <glyph glyph-name="ncaron" unicode="&#x148;" horiz-adv-x="391" 
d="M177 647l-85 163h46l59 -122l60 122h45l-85 -163h-40zM57 0l-0.000976562 577.999h53v-62c40.667 47.333 86.334 71 137.001 71c28 0 50.167 -10.167 66.5 -30.5s24.5 -52.166 24.5 -95.499v-461h-53v455c0 33.333 -5.16699 56.833 -15.5 70.5s-25.5 20.5 -45.5 20.5
c-18.667 0 -38 -5.83301 -58 -17.5s-38.667 -27.167 -56 -46.5v-482h-53z" />
    <glyph glyph-name="napostrophe" unicode="&#x149;" horiz-adv-x="391" 
d="M57 0l-0.000976562 577.999h53v-62c40.667 47.333 86.334 71 137.001 71c28 0 50.167 -10.167 66.5 -30.5s24.5 -52.166 24.5 -95.499v-461h-53v455c0 33.333 -5.16699 56.833 -15.5 70.5s-25.5 20.5 -45.5 20.5c-18.667 0 -38 -5.83301 -58 -17.5
s-38.667 -27.167 -56 -46.5v-482h-53zM58.999 647.999v230h55l-26 -230h-29z" />
    <glyph glyph-name="Eng" unicode="&#x14a;" horiz-adv-x="537" 
d="M286 -141v38h5c41.333 0 68.666 6.33301 81.999 19s20 36 20 70v26l-272 673v-685h-46v810h43l277 -684v684h46v-810c0 -24 -1.83301 -44.167 -5.5 -60.5s-10 -30.833 -19 -43.5s-21.667 -22 -38 -28s-37.166 -9 -62.499 -9h-30z" />
    <glyph glyph-name="eng" unicode="&#x14b;" horiz-adv-x="387" 
d="M164 -156l-0.00195312 43c24.667 0 44.834 2.33301 60.501 7s27.5 12.167 35.5 22.5s13.667 21.5 17 33.5s5 27 5 45v460c0 33.333 -5.16699 56.833 -15.5 70.5s-25.5 20.5 -45.5 20.5c-18.667 0 -38 -5.83301 -58 -17.5s-38.667 -27.167 -56 -46.5v-482h-53v578h53v-62
c40.667 47.333 86.334 71 137.001 71c28 0 50.167 -10 66.5 -30s24.5 -52 24.5 -96v-467c0 -100 -52.667 -150 -158 -150h-13z" />
    <glyph glyph-name="Omacron" unicode="&#x14c;" horiz-adv-x="515" 
d="M172 878v37h171v-37h-171zM257.5 -11c-31 0 -58.168 4.00098 -81.501 12.001s-42.333 19 -57 33s-26.667 31.333 -36 52s-15.833 42.667 -19.5 66s-5.5 49.333 -5.5 78v354c0 28.667 1.83301 54.5 5.5 77.5s10.334 44.5 20.001 64.5s22.167 36.667 37.5 50
s34.333 23.833 57 31.5s49.334 11.5 80.001 11.5c37.333 0 69.166 -5.66699 95.499 -17s47 -27.833 62 -49.5s25.833 -46.167 32.5 -73.5s10 -59 10 -95v-355c0 -28.667 -1.83301 -54.667 -5.5 -78s-10.167 -45.333 -19.5 -66s-21.5 -37.834 -36.5 -51.501
s-34.167 -24.5 -57.5 -32.5s-50.5 -12 -81.5 -12zM257.499 34.001c28.333 0 52.166 4.33301 71.499 13s34.333 21.5 45 38.5s18.167 36 22.5 57s6.5 46.167 6.5 75.5v374c0 29.333 -2.16699 54.5 -6.5 75.5s-11.833 39.833 -22.5 56.5s-25.667 29.167 -45 37.5
s-43.166 12.5 -71.499 12.5s-52.166 -4.16699 -71.499 -12.5s-34.333 -20.833 -45 -37.5s-18 -35.5 -22 -56.5s-6 -46.167 -6 -75.5v-374c0 -29.333 2 -54.5 6 -75.5s11.333 -40 22 -57s25.667 -29.833 45 -38.5s43.166 -13 71.499 -13z" />
    <glyph glyph-name="omacron" unicode="&#x14d;" horiz-adv-x="382" 
d="M106 647v37h171v-37h-171zM191 -9c-55.333 0 -93.333 17.5 -114 52.5s-31 90.833 -31 167.5v156c0 76 10.5 131.667 31.5 167s58.833 53 113.5 53c28 0 51.667 -4.5 71 -13.5s34.5 -23.167 45.5 -42.5s18.667 -42 23 -68s6.5 -58 6.5 -96v-156
c0 -76.667 -10.5 -132.5 -31.5 -167.5s-59.167 -52.5 -114.5 -52.5zM191.5 31c13.667 0 25.667 1.66699 36 5s18.833 8.83301 25.5 16.5s12 16 16 25s7.16699 21 9.5 36s3.83301 29.5 4.5 43.5s1 31.333 1 52v160c0 25.333 -0.5 46 -1.5 62s-3.33301 32 -7 48
s-8.83398 28.667 -15.501 38s-15.667 16.666 -27 21.999s-25.166 8 -41.499 8s-30.333 -2.66699 -42 -8s-20.667 -12.666 -27 -21.999s-11.333 -22 -15 -38s-6 -32 -7 -48s-1.5 -36.667 -1.5 -62v-160c0 -20.667 0.333008 -38 1 -52s2 -28.5 4 -43.5s5.16699 -27 9.5 -36
s9.83301 -17.333 16.5 -25s15.167 -13.167 25.5 -16.5s22.333 -5 36 -5z" />
    <glyph glyph-name="Obreve" unicode="&#x14e;" horiz-adv-x="515" 
d="M257 879c-34.667 0 -62.3369 9.16895 -83.0039 27.502s-31.667 46.166 -33 83.499h37c0.666992 -26.667 8.33398 -46.167 23.001 -58.5s33.334 -18.5 56.001 -18.5s41.334 6.16699 56.001 18.5s23 31.833 25 58.5h37c-1.33301 -36.667 -12.666 -64.334 -33.999 -83.001
s-49.333 -28 -84 -28zM257.497 -10.998c-31 0 -58.168 4.00098 -81.501 12.001s-42.333 19 -57 33s-26.667 31.333 -36 52s-15.833 42.667 -19.5 66s-5.5 49.333 -5.5 78v354c0 28.667 1.83301 54.5 5.5 77.5s10.334 44.5 20.001 64.5s22.167 36.667 37.5 50
s34.333 23.833 57 31.5s49.334 11.5 80.001 11.5c37.333 0 69.166 -5.66699 95.499 -17s47 -27.833 62 -49.5s25.833 -46.167 32.5 -73.5s10 -59 10 -95v-355c0 -28.667 -1.83301 -54.667 -5.5 -78s-10.167 -45.333 -19.5 -66s-21.5 -37.834 -36.5 -51.501
s-34.167 -24.5 -57.5 -32.5s-50.5 -12 -81.5 -12zM257.496 34.0029c28.333 0 52.166 4.33301 71.499 13s34.333 21.5 45 38.5s18.167 36 22.5 57s6.5 46.167 6.5 75.5v374c0 29.333 -2.16699 54.5 -6.5 75.5s-11.833 39.833 -22.5 56.5s-25.667 29.167 -45 37.5
s-43.166 12.5 -71.499 12.5s-52.166 -4.16699 -71.499 -12.5s-34.333 -20.833 -45 -37.5s-18 -35.5 -22 -56.5s-6 -46.167 -6 -75.5v-374c0 -29.333 2 -54.5 6 -75.5s11.333 -40 22 -57s25.667 -29.833 45 -38.5s43.166 -13 71.499 -13z" />
    <glyph glyph-name="obreve" unicode="&#x14f;" horiz-adv-x="382" 
d="M190 647c-34.667 0 -62.3369 9.16895 -83.0039 27.502s-31.667 46.166 -33 83.499h37c0.666992 -26.667 8.33398 -46.167 23.001 -58.5s33.334 -18.5 56.001 -18.5s41.334 6.16699 56.001 18.5s23 31.833 25 58.5h37c-1.33301 -36.667 -12.666 -64.334 -33.999 -83.001
s-49.333 -28 -84 -28zM190.997 -8.99805c-55.333 0 -93.333 17.5 -114 52.5s-31 90.833 -31 167.5v156c0 76 10.5 131.667 31.5 167s58.833 53 113.5 53c28 0 51.667 -4.5 71 -13.5s34.5 -23.167 45.5 -42.5s18.667 -42 23 -68s6.5 -58 6.5 -96v-156
c0 -76.667 -10.5 -132.5 -31.5 -167.5s-59.167 -52.5 -114.5 -52.5zM191.497 31.002c13.667 0 25.667 1.66699 36 5s18.833 8.83301 25.5 16.5s12 16 16 25s7.16699 21 9.5 36s3.83301 29.5 4.5 43.5s1 31.333 1 52v160c0 25.333 -0.5 46 -1.5 62s-3.33301 32 -7 48
s-8.83398 28.667 -15.501 38s-15.667 16.666 -27 21.999s-25.166 8 -41.499 8s-30.333 -2.66699 -42 -8s-20.667 -12.666 -27 -21.999s-11.333 -22 -15 -38s-6 -32 -7 -48s-1.5 -36.667 -1.5 -62v-160c0 -20.667 0.333008 -38 1 -52s2 -28.5 4 -43.5s5.16699 -27 9.5 -36
s9.83301 -17.333 16.5 -25s15.167 -13.167 25.5 -16.5s22.333 -5 36 -5z" />
    <glyph glyph-name="Ohungarumlaut" unicode="&#x150;" horiz-adv-x="515" 
d="M286 878l54 153h62l-85 -153h-31zM198 878l38 153h53l-62 -153h-29zM257.5 -11c-31 0 -58.168 4.00098 -81.501 12.001s-42.333 19 -57 33s-26.667 31.333 -36 52s-15.833 42.667 -19.5 66s-5.5 49.333 -5.5 78v354c0 28.667 1.83301 54.5 5.5 77.5
s10.334 44.5 20.001 64.5s22.167 36.667 37.5 50s34.333 23.833 57 31.5s49.334 11.5 80.001 11.5c37.333 0 69.166 -5.66699 95.499 -17s47 -27.833 62 -49.5s25.833 -46.167 32.5 -73.5s10 -59 10 -95v-355c0 -28.667 -1.83301 -54.667 -5.5 -78
s-10.167 -45.333 -19.5 -66s-21.5 -37.834 -36.5 -51.501s-34.167 -24.5 -57.5 -32.5s-50.5 -12 -81.5 -12zM257.499 34.001c28.333 0 52.166 4.33301 71.499 13s34.333 21.5 45 38.5s18.167 36 22.5 57s6.5 46.167 6.5 75.5v374c0 29.333 -2.16699 54.5 -6.5 75.5
s-11.833 39.833 -22.5 56.5s-25.667 29.167 -45 37.5s-43.166 12.5 -71.499 12.5s-52.166 -4.16699 -71.499 -12.5s-34.333 -20.833 -45 -37.5s-18 -35.5 -22 -56.5s-6 -46.167 -6 -75.5v-374c0 -29.333 2 -54.5 6 -75.5s11.333 -40 22 -57s25.667 -29.833 45 -38.5
s43.166 -13 71.499 -13z" />
    <glyph glyph-name="ohungarumlaut" unicode="&#x151;" horiz-adv-x="382" 
d="M220 647l54 153h62l-85 -153h-31zM132 647l38 153h53l-62 -153h-29zM191 -9c-55.333 0 -93.333 17.5 -114 52.5s-31 90.833 -31 167.5v156c0 76 10.5 131.667 31.5 167s58.833 53 113.5 53c28 0 51.667 -4.5 71 -13.5s34.5 -23.167 45.5 -42.5s18.667 -42 23 -68
s6.5 -58 6.5 -96v-156c0 -76.667 -10.5 -132.5 -31.5 -167.5s-59.167 -52.5 -114.5 -52.5zM191.5 31c13.667 0 25.667 1.66699 36 5s18.833 8.83301 25.5 16.5s12 16 16 25s7.16699 21 9.5 36s3.83301 29.5 4.5 43.5s1 31.333 1 52v160c0 25.333 -0.5 46 -1.5 62
s-3.33301 32 -7 48s-8.83398 28.667 -15.501 38s-15.667 16.666 -27 21.999s-25.166 8 -41.499 8s-30.333 -2.66699 -42 -8s-20.667 -12.666 -27 -21.999s-11.333 -22 -15 -38s-6 -32 -7 -48s-1.5 -36.667 -1.5 -62v-160c0 -20.667 0.333008 -38 1 -52s2 -28.5 4 -43.5
s5.16699 -27 9.5 -36s9.83301 -17.333 16.5 -25s15.167 -13.167 25.5 -16.5s22.333 -5 36 -5z" />
    <glyph glyph-name="OE" unicode="&#x152;" horiz-adv-x="620" 
d="M267 46l71 -0.000976562v719h-71c-30.667 0 -56.334 -4.33301 -77.001 -13s-36.667 -21.667 -48 -39s-19.166 -37 -23.499 -59s-6.5 -48.667 -6.5 -80v-345c0 -29.333 2.33301 -54.666 7 -75.999s12.667 -40.333 24 -57s27.333 -29.167 48 -37.5s46 -12.5 76 -12.5z
M267 -0.000976562c-39.333 0 -73.001 5.66895 -101.001 17.002s-49.667 27.666 -65 48.999s-26.333 45.166 -33 71.499s-10 56.833 -10 91.5v348c0 28 2.16699 53.5 6.5 76.5s11.5 44.5 21.5 64.5s22.833 36.5 38.5 49.5s35.334 23.333 59.001 31s50.5 11.5 80.5 11.5h325
v-45h-196v-320h164v-43h-164v-357h197v-45h-323z" />
    <glyph glyph-name="oe" unicode="&#x153;" horiz-adv-x="626" 
d="M342 334h185v35c0 18.667 -0.333008 34.667 -1 48s-2 27.333 -4 42s-5 26.667 -9 36s-9.33301 18.166 -16 26.499s-15 14.333 -25 18s-21.667 5.5 -35 5.5c-34 0 -58.333 -12.667 -73 -38s-22 -69.666 -22 -132.999v-40zM195 33c16.667 0 30.834 2.83301 42.501 8.5
s20.667 13 27 22s11.5 21.5 15.5 37.5s6.5 32 7.5 48s1.5 36.333 1.5 61v158c0 24.667 -0.5 45 -1.5 61s-3.5 32 -7.5 48s-9.16699 28.5 -15.5 37.5s-15.333 16.333 -27 22s-25.834 8.5 -42.501 8.5s-30.667 -2.83301 -42 -8.5s-20.166 -13 -26.499 -22
s-11.333 -21.5 -15 -37.5s-6 -32 -7 -48s-1.5 -36.333 -1.5 -61v-158c0 -25.333 0.5 -45.833 1.5 -61.5s3.33301 -31.5 7 -47.5s8.66699 -28.5 15 -37.5s15.166 -16.333 26.499 -22s25.333 -8.5 42 -8.5zM195 -9c-55.333 0 -93.332 17.5029 -113.999 52.5029
s-31 90.5 -31 166.5v158c0 76 10.5 131.5 31.5 166.5s58.833 52.5 113.5 52.5c64.667 0 104.667 -29.667 120 -89c17.333 59.333 58.333 89 123 89c52.667 0 89.5 -17.167 110.5 -51.5s31.5 -93.166 31.5 -176.499l-1 -56h-237v-80
c0 -68.667 7.16699 -117.334 21.5 -146.001s38.5 -43.334 72.5 -44.001h3c9.33301 0 17.5 0.666992 24.5 2s14.833 4.16602 23.5 8.49902s15.667 10.666 21 18.999s9.83301 20 13.5 35s5.5 32.833 5.5 53.5v44h53v-43c0 -52 -10.833 -91.833 -32.5 -119.5
s-57.834 -41.5 -108.501 -41.5h-3c-63.333 0.666992 -103.333 32 -120 94c-14.667 -62.667 -55 -94 -121 -94z" />
    <glyph glyph-name="Racute" unicode="&#x154;" horiz-adv-x="508" 
d="M253 879l64 194h54l-90 -194h-28zM129 450h140c25.333 0 46.333 3.5 63 10.5s29.667 17.833 39 32.5s15.833 31.167 19.5 49.5s5.5 40.833 5.5 67.5c0 54.667 -9.16699 94.5 -27.5 119.5s-51.833 37.5 -100.5 37.5h-139v-317zM75 0v810h196c28 0 52.5 -3.5 73.5 -10.5
s38.167 -16.333 51.5 -28s24 -26.167 32 -43.5s13.5 -35.333 16.5 -54s4.5 -40 4.5 -64c0 -19.333 -1 -37.166 -3 -53.499s-5.66699 -32.5 -11 -48.5s-12.333 -29.833 -21 -41.5s-20.167 -21.834 -34.5 -30.501s-30.833 -14.667 -49.5 -18l130 -418h-54l-126 408h-151v-408
h-54z" />
    <glyph glyph-name="racute" unicode="&#x155;" horiz-adv-x="283" 
d="M150 647l64 194h54l-90 -194h-28zM64 0v578.001h53v-78c16 27.333 36.833 48.166 62.5 62.499s50.5 21.5 74.5 21.5l4.5 -0.5c3 -0.333008 4.83301 -0.5 5.5 -0.5v-55c-6 2 -13.333 3 -22 3c-54 0 -95.667 -24.667 -125 -74v-457h-53z" />
    <glyph glyph-name="Rcommaaccent" unicode="&#x156;" horiz-adv-x="508" 
d="M245 -240l-13 21c27.333 18 41 46 41 84h-35v75h65v-62c0 -32 -4.16699 -57 -12.5 -75s-23.5 -32.333 -45.5 -43zM129 450h140c25.333 0 46.333 3.5 63 10.5s29.667 17.833 39 32.5s15.833 31.167 19.5 49.5s5.5 40.833 5.5 67.5c0 54.667 -9.16699 94.5 -27.5 119.5
s-51.833 37.5 -100.5 37.5h-139v-317zM75 0v810h196c28 0 52.5 -3.5 73.5 -10.5s38.167 -16.333 51.5 -28s24 -26.167 32 -43.5s13.5 -35.333 16.5 -54s4.5 -40 4.5 -64c0 -19.333 -1 -37.166 -3 -53.499s-5.66699 -32.5 -11 -48.5s-12.333 -29.833 -21 -41.5
s-20.167 -21.834 -34.5 -30.501s-30.833 -14.667 -49.5 -18l130 -418h-54l-126 408h-151v-408h-54z" />
    <glyph glyph-name="rcommaaccent" unicode="&#x157;" horiz-adv-x="283" 
d="M142 -240l-13 21c27.333 18 41 46 41 84h-35v75h65v-62c0 -32 -4.16699 -57 -12.5 -75s-23.5 -32.333 -45.5 -43zM64 0v578.001h53v-78c16 27.333 36.833 48.166 62.5 62.499s50.5 21.5 74.5 21.5l4.5 -0.5c3 -0.333008 4.83301 -0.5 5.5 -0.5v-55c-6 2 -13.333 3 -22 3
c-54 0 -95.667 -24.667 -125 -74v-457h-53z" />
    <glyph glyph-name="Rcaron" unicode="&#x158;" horiz-adv-x="508" 
d="M247 878l-85 163h46l59 -122l60 122h45l-85 -163h-40zM129 450h140c25.333 0 46.333 3.5 63 10.5s29.667 17.833 39 32.5s15.833 31.167 19.5 49.5s5.5 40.833 5.5 67.5c0 54.667 -9.16699 94.5 -27.5 119.5s-51.833 37.5 -100.5 37.5h-139v-317zM75 0v810h196
c28 0 52.5 -3.5 73.5 -10.5s38.167 -16.333 51.5 -28s24 -26.167 32 -43.5s13.5 -35.333 16.5 -54s4.5 -40 4.5 -64c0 -19.333 -1 -37.166 -3 -53.499s-5.66699 -32.5 -11 -48.5s-12.333 -29.833 -21 -41.5s-20.167 -21.834 -34.5 -30.501s-30.833 -14.667 -49.5 -18
l130 -418h-54l-126 408h-151v-408h-54z" />
    <glyph glyph-name="rcaron" unicode="&#x159;" horiz-adv-x="283" 
d="M144 647l-85 163h46l59 -122l60 122h45l-85 -163h-40zM64 0v578.001h53v-78c16 27.333 36.833 48.166 62.5 62.499s50.5 21.5 74.5 21.5l4.5 -0.5c3 -0.333008 4.83301 -0.5 5.5 -0.5v-55c-6 2 -13.333 3 -22 3c-54 0 -95.667 -24.667 -125 -74v-457h-53z" />
    <glyph glyph-name="Sacute" unicode="&#x15a;" horiz-adv-x="452" 
d="M216 879l64 194h54l-90 -194h-28zM237 -10c-118.667 0 -183.666 69.9961 -194.999 209.996l47 15c2.66699 -23.333 6.16699 -43.5 10.5 -60.5s10.166 -33.333 17.499 -49s16.333 -28.5 27 -38.5s23.834 -17.833 39.501 -23.5s33.834 -8.5 54.501 -8.5
c86 0 129 43.333 129 130c0 33.333 -8.33301 63.666 -25 90.999s-43.334 59.333 -80.001 96l-148 147c-46.667 46.667 -70.334 98 -71.001 154c0 52.667 16.167 93.334 48.5 122.001s75.5 43.334 129.5 44.001h1c57.333 0 101.666 -15.5 132.999 -46.5
s49.333 -83.167 54 -156.5l-46 -11c-5.33301 58.667 -18.166 101.667 -38.499 129s-52.833 41 -97.5 41h-5c-39.333 -0.666992 -70.666 -10.667 -93.999 -30s-35 -48.666 -35 -87.999c0 -21.333 4.5 -41.666 13.5 -60.999s24.167 -40 45.5 -62l146 -144
c37.333 -37.333 66.666 -73.666 87.999 -108.999s32 -73 32 -113c0 -58.667 -16.333 -103 -49 -133s-76.667 -45 -132 -45z" />
    <glyph glyph-name="sacute" unicode="&#x15b;" horiz-adv-x="356" 
d="M167 647l64 194h54l-90 -194h-28zM188 -9c-44.667 0 -80.499 14.6689 -107.499 44.002s-42.5 69.666 -46.5 120.999l45 13c6.66699 -92 43.667 -138 111 -138c28.667 0 51.167 8 67.5 24s24.5 38.667 24.5 68c0 44 -28.333 89.667 -85 137l-67 57
c-29.333 24.667 -50.5 48 -63.5 70s-19.5 47 -19.5 75c0 39.333 11.833 70 35.5 92s55.5 33 95.5 33c41.333 0 73.166 -13.333 95.499 -40s34.166 -63.667 35.499 -111l-39 -12c-2.66699 82.667 -32.334 123.667 -89.001 123c-26 0 -46.667 -6.66699 -62 -20
s-23 -32 -23 -56c0 -22.667 4 -41.834 12 -57.501s23.667 -33.5 47 -53.5l69 -61c16.667 -14 29.667 -25.833 39 -35.5s19.833 -22 31.5 -37s20.334 -31 26.001 -48s8.5 -35.167 8.5 -54.5c0 -41.333 -12.667 -73.833 -38 -97.5s-59.666 -35.5 -102.999 -35.5z" />
    <glyph glyph-name="Scircumflex" unicode="&#x15c;" horiz-adv-x="452" 
d="M112 878l86 180h66l85 -180h-38l-80 153l-80 -153h-39zM237 -10c-118.667 0 -183.666 69.9961 -194.999 209.996l47 15c2.66699 -23.333 6.16699 -43.5 10.5 -60.5s10.166 -33.333 17.499 -49s16.333 -28.5 27 -38.5s23.834 -17.833 39.501 -23.5
s33.834 -8.5 54.501 -8.5c86 0 129 43.333 129 130c0 33.333 -8.33301 63.666 -25 90.999s-43.334 59.333 -80.001 96l-148 147c-46.667 46.667 -70.334 98 -71.001 154c0 52.667 16.167 93.334 48.5 122.001s75.5 43.334 129.5 44.001h1
c57.333 0 101.666 -15.5 132.999 -46.5s49.333 -83.167 54 -156.5l-46 -11c-5.33301 58.667 -18.166 101.667 -38.499 129s-52.833 41 -97.5 41h-5c-39.333 -0.666992 -70.666 -10.667 -93.999 -30s-35 -48.666 -35 -87.999c0 -21.333 4.5 -41.666 13.5 -60.999
s24.167 -40 45.5 -62l146 -144c37.333 -37.333 66.666 -73.666 87.999 -108.999s32 -73 32 -113c0 -58.667 -16.333 -103 -49 -133s-76.667 -45 -132 -45z" />
    <glyph glyph-name="scircumflex" unicode="&#x15d;" horiz-adv-x="356" 
d="M63 647l86 180h66l85 -180h-38l-80 153l-80 -153h-39zM188 -9c-44.667 0 -80.499 14.6689 -107.499 44.002s-42.5 69.666 -46.5 120.999l45 13c6.66699 -92 43.667 -138 111 -138c28.667 0 51.167 8 67.5 24s24.5 38.667 24.5 68c0 44 -28.333 89.667 -85 137l-67 57
c-29.333 24.667 -50.5 48 -63.5 70s-19.5 47 -19.5 75c0 39.333 11.833 70 35.5 92s55.5 33 95.5 33c41.333 0 73.166 -13.333 95.499 -40s34.166 -63.667 35.499 -111l-39 -12c-2.66699 82.667 -32.334 123.667 -89.001 123c-26 0 -46.667 -6.66699 -62 -20
s-23 -32 -23 -56c0 -22.667 4 -41.834 12 -57.501s23.667 -33.5 47 -53.5l69 -61c16.667 -14 29.667 -25.833 39 -35.5s19.833 -22 31.5 -37s20.334 -31 26.001 -48s8.5 -35.167 8.5 -54.5c0 -41.333 -12.667 -73.833 -38 -97.5s-59.666 -35.5 -102.999 -35.5z" />
    <glyph glyph-name="Scedilla" unicode="&#x15e;" horiz-adv-x="452" 
d="M197 -185v28.998c6 0 14.333 -0.333008 25 -1c22.667 0 39 2.83301 49 8.5s15.333 14.834 16 27.501v5c0 29.333 -22.667 47.333 -68 54v62h29v-47c24.667 -3.33301 44.167 -12 58.5 -26s21.5 -30 21.5 -48v-4c-2 -41.333 -34.333 -61.666 -97 -60.999
c-10.667 0 -22 0.333008 -34 1zM237 -10.002c-118.667 0 -183.666 69.9961 -194.999 209.996l47 15c2.66699 -23.333 6.16699 -43.5 10.5 -60.5s10.166 -33.333 17.499 -49s16.333 -28.5 27 -38.5s23.834 -17.833 39.501 -23.5s33.834 -8.5 54.501 -8.5
c86 0 129 43.333 129 130c0 33.333 -8.33301 63.666 -25 90.999s-43.334 59.333 -80.001 96l-148 147c-46.667 46.667 -70.334 98 -71.001 154c0 52.667 16.167 93.334 48.5 122.001s75.5 43.334 129.5 44.001h1c57.333 0 101.666 -15.5 132.999 -46.5
s49.333 -83.167 54 -156.5l-46 -11c-5.33301 58.667 -18.166 101.667 -38.499 129s-52.833 41 -97.5 41h-5c-39.333 -0.666992 -70.666 -10.667 -93.999 -30s-35 -48.666 -35 -87.999c0 -21.333 4.5 -41.666 13.5 -60.999s24.167 -40 45.5 -62l146 -144
c37.333 -37.333 66.666 -73.666 87.999 -108.999s32 -73 32 -113c0 -58.667 -16.333 -103 -49 -133s-76.667 -45 -132 -45z" />
    <glyph glyph-name="scedilla" unicode="&#x15f;" horiz-adv-x="356" 
d="M148 -185v28.998c6 0 14.333 -0.333008 25 -1c22.667 0 39 2.83301 49 8.5s15.333 14.834 16 27.501v5c0 29.333 -22.667 47.333 -68 54v62h29v-47c24.667 -3.33301 44.167 -12 58.5 -26s21.5 -30 21.5 -48v-4c-2 -41.333 -34.333 -61.666 -97 -60.999
c-10.667 0 -22 0.333008 -34 1zM188 -9.00195c-44.667 0 -80.499 14.6689 -107.499 44.002s-42.5 69.666 -46.5 120.999l45 13c6.66699 -92 43.667 -138 111 -138c28.667 0 51.167 8 67.5 24s24.5 38.667 24.5 68c0 44 -28.333 89.667 -85 137l-67 57
c-29.333 24.667 -50.5 48 -63.5 70s-19.5 47 -19.5 75c0 39.333 11.833 70 35.5 92s55.5 33 95.5 33c41.333 0 73.166 -13.333 95.499 -40s34.166 -63.667 35.499 -111l-39 -12c-2.66699 82.667 -32.334 123.667 -89.001 123c-26 0 -46.667 -6.66699 -62 -20
s-23 -32 -23 -56c0 -22.667 4 -41.834 12 -57.501s23.667 -33.5 47 -53.5l69 -61c16.667 -14 29.667 -25.833 39 -35.5s19.833 -22 31.5 -37s20.334 -31 26.001 -48s8.5 -35.167 8.5 -54.5c0 -41.333 -12.667 -73.833 -38 -97.5s-59.666 -35.5 -102.999 -35.5z" />
    <glyph glyph-name="Scaron" unicode="&#x160;" horiz-adv-x="452" 
d="M210 878l-85 163h46l59 -122l60 122h45l-85 -163h-40zM237 -10c-118.667 0 -183.666 69.9961 -194.999 209.996l47 15c2.66699 -23.333 6.16699 -43.5 10.5 -60.5s10.166 -33.333 17.499 -49s16.333 -28.5 27 -38.5s23.834 -17.833 39.501 -23.5s33.834 -8.5 54.501 -8.5
c86 0 129 43.333 129 130c0 33.333 -8.33301 63.666 -25 90.999s-43.334 59.333 -80.001 96l-148 147c-46.667 46.667 -70.334 98 -71.001 154c0 52.667 16.167 93.334 48.5 122.001s75.5 43.334 129.5 44.001h1c57.333 0 101.666 -15.5 132.999 -46.5
s49.333 -83.167 54 -156.5l-46 -11c-5.33301 58.667 -18.166 101.667 -38.499 129s-52.833 41 -97.5 41h-5c-39.333 -0.666992 -70.666 -10.667 -93.999 -30s-35 -48.666 -35 -87.999c0 -21.333 4.5 -41.666 13.5 -60.999s24.167 -40 45.5 -62l146 -144
c37.333 -37.333 66.666 -73.666 87.999 -108.999s32 -73 32 -113c0 -58.667 -16.333 -103 -49 -133s-76.667 -45 -132 -45z" />
    <glyph glyph-name="scaron" unicode="&#x161;" horiz-adv-x="356" 
d="M161 647l-85 163h46l59 -122l60 122h45l-85 -163h-40zM188 -9c-44.667 0 -80.499 14.6689 -107.499 44.002s-42.5 69.666 -46.5 120.999l45 13c6.66699 -92 43.667 -138 111 -138c28.667 0 51.167 8 67.5 24s24.5 38.667 24.5 68c0 44 -28.333 89.667 -85 137l-67 57
c-29.333 24.667 -50.5 48 -63.5 70s-19.5 47 -19.5 75c0 39.333 11.833 70 35.5 92s55.5 33 95.5 33c41.333 0 73.166 -13.333 95.499 -40s34.166 -63.667 35.499 -111l-39 -12c-2.66699 82.667 -32.334 123.667 -89.001 123c-26 0 -46.667 -6.66699 -62 -20
s-23 -32 -23 -56c0 -22.667 4 -41.834 12 -57.501s23.667 -33.5 47 -53.5l69 -61c16.667 -14 29.667 -25.833 39 -35.5s19.833 -22 31.5 -37s20.334 -31 26.001 -48s8.5 -35.167 8.5 -54.5c0 -41.333 -12.667 -73.833 -38 -97.5s-59.666 -35.5 -102.999 -35.5z" />
    <glyph glyph-name="Tcommaaccent" unicode="&#x162;" horiz-adv-x="380" 
d="M153 -185v28.998c6 0 14.333 -0.333008 25 -1c22.667 0 39 2.83301 49 8.5s15.333 14.834 16 27.501v5c0 29.333 -22.667 47.333 -68 54v62h29v-47c24.667 -3.33301 44.167 -12 58.5 -26s21.5 -30 21.5 -48v-4c-2 -41.333 -34.333 -61.666 -97 -60.999
c-10.667 0 -22 0.333008 -34 1zM165 -0.00195312v766h-172v44h394v-44h-168v-766h-54z" />
    <glyph glyph-name="tcommaaccent" unicode="&#x163;" horiz-adv-x="262" 
d="M133 -185v28.998c6 0 14.333 -0.333008 25 -1c22.667 0 39 2.83301 49 8.5s15.333 14.834 16 27.501v5c0 29.333 -22.667 47.333 -68 54v62h29v-47c24.667 -3.33301 44.167 -12 58.5 -26s21.5 -30 21.5 -48v-4c-2 -41.333 -34.333 -61.666 -97 -60.999
c-10.667 0 -22 0.333008 -34 1zM184 -6.00195c-15.333 0 -28.8311 2 -40.498 6s-20.834 9.33301 -27.501 16s-11.834 15.5 -15.501 26.5s-6 22 -7 33s-1.5 23.833 -1.5 38.5v429h-76v35h76v185h53v-185h98v-35h-98v-422c0 -32.667 3.16699 -55 9.5 -67s19.833 -18 40.5 -18
c10 0 24.333 1.66699 43 5v-41c-16.667 -4 -34.667 -6 -54 -6z" />
    <glyph glyph-name="Tcaron" unicode="&#x164;" horiz-adv-x="380" 
d="M170 878l-85 163h46l59 -122l60 122h45l-85 -163h-40zM165 0v766h-172v44h394v-44h-168v-766h-54z" />
    <glyph glyph-name="tcaron" unicode="&#x165;" horiz-adv-x="321" 
d="M310 533v230h55l-26 -230h-29zM184 -6c-15.333 0 -28.8311 2 -40.498 6s-20.834 9.33301 -27.501 16s-11.834 15.5 -15.501 26.5s-6 22 -7 33s-1.5 23.833 -1.5 38.5v429h-76v35h76v185h53v-185h98v-35h-98v-422c0 -32.667 3.16699 -55 9.5 -67s19.833 -18 40.5 -18
c10 0 24.333 1.66699 43 5v-41c-16.667 -4 -34.667 -6 -54 -6z" />
    <glyph glyph-name="Tbar" unicode="&#x166;" horiz-adv-x="380" 
d="M42 417v37h123v312h-172v44h394v-44h-168v-312h116v-37h-116v-417h-54v417h-123z" />
    <glyph glyph-name="tbar" unicode="&#x167;" horiz-adv-x="262" 
d="M184 -6c-15.333 0 -28.8311 2 -40.498 6s-20.834 9.33301 -27.501 16s-11.834 15.5 -15.501 26.5s-6 22 -7 33s-1.5 23.833 -1.5 38.5v248h-63v33h63v148h-76v35h76v185h53v-185h98v-35h-98v-148h88v-33h-88v-241c0 -32.667 3.16699 -55 9.5 -67s19.833 -18 40.5 -18
c10 0 24.333 1.66699 43 5v-41c-16.667 -4 -34.667 -6 -54 -6z" />
    <glyph glyph-name="Utilde" unicode="&#x168;" horiz-adv-x="533" 
d="M310 879c-12.667 0.666992 -28.833 8.16797 -48.5 22.501s-32.834 21.833 -39.501 22.5c-2 0.666992 -5 1 -9 1c-8.66699 0 -15.5 -3.33301 -20.5 -10s-7.5 -16.334 -7.5 -29.001h-36c0 4 0.333008 8.66699 1 14s2.33398 11.833 5.00098 19.5s6 14.5 10 20.5
s10 11.167 18 15.5s17.333 6.5 28 6.5c6 0 10.333 -0.333008 13 -1c12 -1.33301 28 -9 48 -23s33.667 -21.667 41 -23h6c20 0 30.667 15 32 45h34c0 -7.33301 -0.666992 -15 -2 -23s-4 -16.667 -8 -26s-10.833 -17 -20.5 -23s-21.167 -9 -34.5 -9h-10zM267.001 -10.999
c-38.667 0 -71.501 5 -98.501 15s-47.833 24.333 -62.5 43s-25.167 39.667 -31.5 63s-9.5 50 -9.5 80v620h54v-621c0 -24 2.16699 -44.833 6.5 -62.5s12 -33.667 23 -48s26.333 -25.333 46 -33s43.834 -11.5 72.501 -11.5c98.667 0 148 51.667 148 155v621h53v-620
c0 -134 -67 -201 -201 -201z" />
    <glyph glyph-name="utilde" unicode="&#x169;" horiz-adv-x="394" 
d="M238 647c-12.667 0.666992 -28.833 8.16797 -48.5 22.501s-32.834 21.833 -39.501 22.5c-2 0.666992 -5 1 -9 1c-8.66699 0 -15.5 -3.33301 -20.5 -10s-7.5 -16.334 -7.5 -29.001h-36c0 4 0.333008 8.66699 1 14s2.33398 11.833 5.00098 19.5s6 14.5 10 20.5
s10 11.167 18 15.5s17.333 6.5 28 6.5c6 0 10.333 -0.333008 13 -1c12 -1.33301 28 -9 48 -23s33.667 -21.667 41 -23h6c20 0 30.667 15 32 45h34c0 -7.33301 -0.666992 -15 -2 -23s-4 -16.667 -8 -26s-10.833 -17 -20.5 -23s-21.167 -9 -34.5 -9h-10zM143.001 -8.99902
c-28 0 -50.1699 10.168 -66.5029 30.501s-24.5 52.166 -24.5 95.499v461h53v-455c0 -33.333 5.16699 -56.833 15.5 -70.5s25.333 -20.5 45 -20.5s39.834 6.33301 60.501 19s40.334 29.667 59.001 51v476h52v-578h-52v68c-19.333 -24 -41.166 -42.833 -65.499 -56.5
s-49.833 -20.5 -76.5 -20.5z" />
    <glyph glyph-name="Umacron" unicode="&#x16a;" horiz-adv-x="533" 
d="M181 878v37h171v-37h-171zM267 -11c-38.667 0 -71.501 5 -98.501 15s-47.833 24.333 -62.5 43s-25.167 39.667 -31.5 63s-9.5 50 -9.5 80v620h54v-621c0 -24 2.16699 -44.833 6.5 -62.5s12 -33.667 23 -48s26.333 -25.333 46 -33s43.834 -11.5 72.501 -11.5
c98.667 0 148 51.667 148 155v621h53v-620c0 -134 -67 -201 -201 -201z" />
    <glyph glyph-name="umacron" unicode="&#x16b;" horiz-adv-x="394" 
d="M109 647v37h171v-37h-171zM143 -9c-28 0 -50.1699 10.168 -66.5029 30.501s-24.5 52.166 -24.5 95.499v461h53v-455c0 -33.333 5.16699 -56.833 15.5 -70.5s25.333 -20.5 45 -20.5s39.834 6.33301 60.501 19s40.334 29.667 59.001 51v476h52v-578h-52v68
c-19.333 -24 -41.166 -42.833 -65.499 -56.5s-49.833 -20.5 -76.5 -20.5z" />
    <glyph glyph-name="Ubreve" unicode="&#x16c;" horiz-adv-x="533" 
d="M265 879c-34.667 0 -62.3369 9.16895 -83.0039 27.502s-31.667 46.166 -33 83.499h37c0.666992 -26.667 8.33398 -46.167 23.001 -58.5s33.334 -18.5 56.001 -18.5s41.334 6.16699 56.001 18.5s23 31.833 25 58.5h37c-1.33301 -36.667 -12.666 -64.334 -33.999 -83.001
s-49.333 -28 -84 -28zM266.997 -10.998c-38.667 0 -71.501 5 -98.501 15s-47.833 24.333 -62.5 43s-25.167 39.667 -31.5 63s-9.5 50 -9.5 80v620h54v-621c0 -24 2.16699 -44.833 6.5 -62.5s12 -33.667 23 -48s26.333 -25.333 46 -33s43.834 -11.5 72.501 -11.5
c98.667 0 148 51.667 148 155v621h53v-620c0 -134 -67 -201 -201 -201z" />
    <glyph glyph-name="ubreve" unicode="&#x16d;" horiz-adv-x="394" 
d="M194 647c-34.667 0 -62.3369 9.16895 -83.0039 27.502s-31.667 46.166 -33 83.499h37c0.666992 -26.667 8.33398 -46.167 23.001 -58.5s33.334 -18.5 56.001 -18.5s41.334 6.16699 56.001 18.5s23 31.833 25 58.5h37c-1.33301 -36.667 -12.666 -64.334 -33.999 -83.001
s-49.333 -28 -84 -28zM142.997 -8.99805c-28 0 -50.1699 10.168 -66.5029 30.501s-24.5 52.166 -24.5 95.499v461h53v-455c0 -33.333 5.16699 -56.833 15.5 -70.5s25.333 -20.5 45 -20.5s39.834 6.33301 60.501 19s40.334 29.667 59.001 51v476h52v-578h-52v68
c-19.333 -24 -41.166 -42.833 -65.499 -56.5s-49.833 -20.5 -76.5 -20.5z" />
    <glyph glyph-name="Uring" unicode="&#x16e;" horiz-adv-x="533" 
d="M267.5 909c15 0 27.5 4.5 37.5 13.5s15 22.5 15 40.5c0 18.667 -5 32.5 -15 41.5s-22.5 13.5 -37.5 13.5s-27.667 -4.5 -38 -13.5s-15.5 -22.833 -15.5 -41.5c0 -18 5.16699 -31.5 15.5 -40.5s23 -13.5 38 -13.5zM267 878c-23.333 0 -43.5 7.16699 -60.5 21.5
s-25.5 35.5 -25.5 63.5s8.33301 49.167 25 63.5s37 21.5 61 21.5c23.333 0 43.5 -7.16699 60.5 -21.5s25.5 -35.5 25.5 -63.5s-8.5 -49.167 -25.5 -63.5s-37.167 -21.5 -60.5 -21.5zM267 -11c-38.667 0 -71.501 5 -98.501 15s-47.833 24.333 -62.5 43
s-25.167 39.667 -31.5 63s-9.5 50 -9.5 80v620h54v-621c0 -24 2.16699 -44.833 6.5 -62.5s12 -33.667 23 -48s26.333 -25.333 46 -33s43.834 -11.5 72.501 -11.5c98.667 0 148 51.667 148 155v621h53v-620c0 -134 -67 -201 -201 -201z" />
    <glyph glyph-name="uring" unicode="&#x16f;" horiz-adv-x="394" 
d="M195.5 678c15 0 27.5 4.5 37.5 13.5s15 22.5 15 40.5c0 18.667 -5 32.5 -15 41.5s-22.5 13.5 -37.5 13.5s-27.667 -4.5 -38 -13.5s-15.5 -22.833 -15.5 -41.5c0 -18 5.16699 -31.5 15.5 -40.5s23 -13.5 38 -13.5zM195 647c-23.333 0 -43.5 7.16699 -60.5 21.5
s-25.5 35.5 -25.5 63.5s8.33301 49.167 25 63.5s37 21.5 61 21.5c23.333 0 43.5 -7.16699 60.5 -21.5s25.5 -35.5 25.5 -63.5s-8.5 -49.167 -25.5 -63.5s-37.167 -21.5 -60.5 -21.5zM143 -9c-28 0 -50.1699 10.168 -66.5029 30.501s-24.5 52.166 -24.5 95.499v461h53v-455
c0 -33.333 5.16699 -56.833 15.5 -70.5s25.333 -20.5 45 -20.5s39.834 6.33301 60.501 19s40.334 29.667 59.001 51v476h52v-578h-52v68c-19.333 -24 -41.166 -42.833 -65.499 -56.5s-49.833 -20.5 -76.5 -20.5z" />
    <glyph glyph-name="Uhungarumlaut" unicode="&#x170;" horiz-adv-x="533" 
d="M295 878l54 153h62l-85 -153h-31zM207 878l38 153h53l-62 -153h-29zM267 -11c-38.667 0 -71.501 5 -98.501 15s-47.833 24.333 -62.5 43s-25.167 39.667 -31.5 63s-9.5 50 -9.5 80v620h54v-621c0 -24 2.16699 -44.833 6.5 -62.5s12 -33.667 23 -48s26.333 -25.333 46 -33
s43.834 -11.5 72.501 -11.5c98.667 0 148 51.667 148 155v621h53v-620c0 -134 -67 -201 -201 -201z" />
    <glyph glyph-name="uhungarumlaut" unicode="&#x171;" horiz-adv-x="394" 
d="M223 647l54 153h62l-85 -153h-31zM135 647l38 153h53l-62 -153h-29zM143 -9c-28 0 -50.1699 10.168 -66.5029 30.501s-24.5 52.166 -24.5 95.499v461h53v-455c0 -33.333 5.16699 -56.833 15.5 -70.5s25.333 -20.5 45 -20.5s39.834 6.33301 60.501 19
s40.334 29.667 59.001 51v476h52v-578h-52v68c-19.333 -24 -41.166 -42.833 -65.499 -56.5s-49.833 -20.5 -76.5 -20.5z" />
    <glyph glyph-name="Uogonek" unicode="&#x172;" horiz-adv-x="533" 
d="M312 -199c-82 0 -123.002 26.667 -123.002 80c0 23.333 7.66699 46.333 23 69s34 40 56 52h30c-45.333 -45.333 -67.666 -84.333 -66.999 -117c0 -18.667 8.33301 -32.167 25 -40.5s38.334 -12.5 65.001 -12.5zM266.998 -11c-38.667 0 -71.501 5 -98.501 15
s-47.833 24.333 -62.5 43s-25.167 39.667 -31.5 63s-9.5 50 -9.5 80v620h54v-621c0 -24 2.16699 -44.833 6.5 -62.5s12 -33.667 23 -48s26.333 -25.333 46 -33s43.834 -11.5 72.501 -11.5c98.667 0 148 51.667 148 155v621h53v-620c0 -134 -67 -201 -201 -201z" />
    <glyph glyph-name="uogonek" unicode="&#x173;" horiz-adv-x="394" 
d="M341 -199c-82 0 -123.002 26.667 -123.002 80c0 23.333 7.66699 46.333 23 69s34 40 56 52h30c-45.333 -45.333 -67.666 -84.333 -66.999 -117c0 -18.667 8.33301 -32.167 25 -40.5s38.334 -12.5 65.001 -12.5zM142.998 -9c-28 0 -50.1699 10.168 -66.5029 30.501
s-24.5 52.166 -24.5 95.499v461h53v-455c0 -33.333 5.16699 -56.833 15.5 -70.5s25.333 -20.5 45 -20.5s39.834 6.33301 60.501 19s40.334 29.667 59.001 51v476h52v-578h-52v68c-19.333 -24 -41.166 -42.833 -65.499 -56.5s-49.833 -20.5 -76.5 -20.5z" />
    <glyph glyph-name="Wcircumflex" unicode="&#x174;" horiz-adv-x="706" 
d="M235 878l86 180h66l85 -180h-38l-80 153l-80 -153h-39zM175 0l-141 809l48 1l119 -703l130 685h52l134 -685l108 703h47l-131 -810h-46l-138 709l-135 -709h-47z" />
    <glyph glyph-name="wcircumflex" unicode="&#x175;" horiz-adv-x="566" 
d="M165 647l86 180h66l85 -180h-38l-80 153l-80 -153h-39zM128 0l-95 578h47l80 -517l99 517h52l101 -515l75 515h47l-93 -578h-55l-100 507l-98 -507h-60z" />
    <glyph glyph-name="Ycircumflex" unicode="&#x176;" horiz-adv-x="461" 
d="M113 878l86 180h66l85 -180h-38l-80 153l-80 -153h-39zM207 0v259l-187 551h56l159 -486l151 486h56l-181 -551v-259h-54z" />
    <glyph glyph-name="ycircumflex" unicode="&#x177;" horiz-adv-x="374" 
d="M70 647l86 180h66l85 -180h-38l-80 153l-80 -153h-39zM37 -144l0.00195312 43c34 0 60.333 2.83301 79 8.5s31 13 37 22s9 21.167 9 36.5v13c-0.666992 10 -6.33398 36.667 -17.001 80c-18.667 77.333 -59 250.333 -121 519h52l114 -528l110 528h53l-141 -625
c-8 -34 -23.833 -58.667 -47.5 -74s-58.834 -23 -105.501 -23h-22z" />
    <glyph glyph-name="Ydieresis" unicode="&#x178;" horiz-adv-x="461" 
d="M283 878v76h56v-76h-56zM124 878v76h55v-76h-55zM207 0v259l-187 551h56l159 -486l151 486h56l-181 -551v-259h-54z" />
    <glyph glyph-name="Zacute" unicode="&#x179;" horiz-adv-x="401" 
d="M193 879l64 194h54l-90 -194h-28zM31 0v43l291 724h-265v43h324v-34l-294 -733h295v-43h-351z" />
    <glyph glyph-name="zacute" unicode="&#x17a;" horiz-adv-x="325" 
d="M150 647l64 194h54l-90 -194h-28zM32 0v39l209 498h-187v41h241v-35l-207 -502h204v-41h-260z" />
    <glyph glyph-name="Zdotaccent" unicode="&#x17b;" horiz-adv-x="401" 
d="M177 879v104h59v-104h-59zM31 0v43l291 724h-265v43h324v-34l-294 -733h295v-43h-351z" />
    <glyph glyph-name="zdotaccent" unicode="&#x17c;" horiz-adv-x="325" 
d="M134 647v104h59v-104h-59zM32 0v39l209 498h-187v41h241v-35l-207 -502h204v-41h-260z" />
    <glyph glyph-name="Zcaron" unicode="&#x17d;" horiz-adv-x="401" 
d="M186 878l-85 163h46l59 -122l60 122h45l-85 -163h-40zM31 0v43l291 724h-265v43h324v-34l-294 -733h295v-43h-351z" />
    <glyph glyph-name="zcaron" unicode="&#x17e;" horiz-adv-x="325" 
d="M143 647l-85 163h46l59 -122l60 122h45l-85 -163h-40zM32 0v39l209 498h-187v41h241v-35l-207 -502h204v-41h-260z" />
    <glyph glyph-name="florin" unicode="&#x192;" horiz-adv-x="370" 
d="M42 -139c-19.333 0 -36.668 2.33301 -52.001 7l5 40c16.667 -4 30.667 -6 42 -6c21.333 0 36.166 6.33301 44.499 19s15.166 36 20.499 70l81 550h-78v37h83l12 80c2.66699 21.333 5.83398 38.5 9.50098 51.5s9.33398 26.167 17.001 39.5s18.5 23 32.5 29s31.667 9 53 9
c18.667 0 36 -2.33301 52 -7l-5 -40c-20 4 -34 6 -42 6c-21.333 0 -36.166 -6.33301 -44.499 -19s-15.166 -36 -20.499 -70l-11 -79h91v-37h-96l-82 -551c-2 -16.667 -4.16699 -30.5 -6.5 -41.5s-6.33301 -22.5 -12 -34.5s-12.167 -21.5 -19.5 -28.5
s-17.333 -12.833 -30 -17.5s-27.334 -7 -44.001 -7z" />
    <glyph glyph-name="uni01C4" unicode="&#x1c4;" horiz-adv-x="918" 
d="M703 878l-85 163h46l59 -122l60 122h45l-85 -163h-40zM548 0v43l291 724h-265v43h324v-34l-294 -733h295v-43h-351zM75 0l0.000976562 810h177c39.333 0 72.833 -6 100.5 -18s49 -28.833 64 -50.5s25.833 -46 32.5 -73s10 -57.5 10 -91.5v-336
c0 -36.667 -3.33301 -69 -10 -97s-17.334 -53.167 -32.001 -75.5s-35.5 -39.333 -62.5 -51s-59.5 -17.5 -97.5 -17.5h-182zM129.001 43l125.001 -0.00195312c25.333 0 47.333 3.66699 66 11s33.334 16.833 44.001 28.5s19 26.834 25 45.501s10 37 12 55s3 39.333 3 64v326
c0 25.333 -1.33301 47.333 -4 66s-7.33398 36.334 -14.001 53.001s-15.667 30.167 -27 40.5s-25.833 18.5 -43.5 24.5s-38.834 9 -63.501 9h-123v-723z" />
    <glyph glyph-name="uni01C5" unicode="&#x1c5;" horiz-adv-x="837" 
d="M660 647l-85 163h46l59 -122l60 122h45l-85 -163h-40zM549 0v39l209 498h-187v41h241v-35l-207 -502h204v-41h-260zM75 0l0.000976562 810h177c39.333 0 72.833 -6 100.5 -18s49 -28.833 64 -50.5s25.833 -46 32.5 -73s10 -57.5 10 -91.5v-336
c0 -36.667 -3.33301 -69 -10 -97s-17.334 -53.167 -32.001 -75.5s-35.5 -39.333 -62.5 -51s-59.5 -17.5 -97.5 -17.5h-182zM129.001 43l125.001 -0.00195312c25.333 0 47.333 3.66699 66 11s33.334 16.833 44.001 28.5s19 26.834 25 45.501s10 37 12 55s3 39.333 3 64v326
c0 25.333 -1.33301 47.333 -4 66s-7.33398 36.334 -14.001 53.001s-15.667 30.167 -27 40.5s-25.833 18.5 -43.5 24.5s-38.834 9 -63.501 9h-123v-723z" />
    <glyph glyph-name="uni01C6" unicode="&#x1c6;" horiz-adv-x="715" 
d="M538 647l-85 163h46l59 -122l60 122h45l-85 -163h-40zM427 0v39l209 498h-187v41h241v-35l-207 -502h204v-41h-260zM189 32c34 0 65.668 16.334 95.001 49.001v415c-32 33.333 -64 50 -96 50c-35.333 0 -59 -14.333 -71 -43s-18 -78.667 -18 -150v-120
c0 -72.667 6.16699 -124.334 18.5 -155.001s36.166 -46 71.499 -46zM182.001 -8.99902c-49.333 0 -84.333 18.832 -105 56.499s-31 100.834 -31 189.501v103c0 86 9.5 148.667 28.5 188s53.833 59 104.5 59c40.667 0 75.667 -17.667 105 -53v276h53v-810h-53v44
c-28.667 -35.333 -62.667 -53 -102 -53z" />
    <glyph glyph-name="uni01C7" unicode="&#x1c7;" horiz-adv-x="638" 
d="M381 -45l0.000976562 43c20.667 0 37.667 0.5 51 1.5s25 4 35 9s17.5 10.5 22.5 16.5s9.16699 15.5 12.5 28.5s5.33301 26.333 6 40s1 32.5 1 56.5v660h54v-666c0 -23.333 -0.666992 -43 -2 -59s-3.83301 -31.667 -7.5 -47s-9 -27.833 -16 -37.5
s-16.167 -18.167 -27.5 -25.5s-25.333 -12.5 -42 -15.5s-36.334 -4.5 -59.001 -4.5h-28zM75.001 0v810h54v-767h245v-43h-299z" />
    <glyph glyph-name="uni01C8" unicode="&#x1c8;" horiz-adv-x="575" 
d="M454 654v92h53v-92h-53zM357 -153l-0.000976562 42.999c2.66699 -0.666992 10.667 -1 24 -1s24.666 1.66699 33.999 5s16.5 7.5 21.5 12.5s8.83301 11.667 11.5 20s4.33398 15.833 5.00098 22.5s1 15.334 1 26.001v603h53v-606c0 -44.667 -10.167 -77 -30.5 -97
s-50.166 -30 -89.499 -30c-16.667 0 -26.667 0.666992 -30 2zM74.999 -0.000976562v810h54v-767h245v-43h-299z" />
    <glyph glyph-name="uni01C9" unicode="&#x1c9;" horiz-adv-x="387" 
d="M267 654v92h53v-92h-53zM170 -153l-0.000976562 42.999c2.66699 -0.666992 10.667 -1 24 -1s24.666 1.66699 33.999 5s16.5 7.5 21.5 12.5s8.83301 11.667 11.5 20s4.33398 15.833 5.00098 22.5s1 15.334 1 26.001v603h53v-606c0 -44.667 -10.167 -77 -30.5 -97
s-50.166 -30 -89.499 -30c-16.667 0 -26.667 0.666992 -30 2zM66.999 -0.000976562v810h53v-810h-53z" />
    <glyph glyph-name="uni01CA" unicode="&#x1ca;" horiz-adv-x="780" 
d="M523 -45l0.000976562 43c20.667 0 37.667 0.5 51 1.5s25 4 35 9s17.5 10.5 22.5 16.5s9.16699 15.5 12.5 28.5s5.33301 26.333 6 40s1 32.5 1 56.5v660h54v-666c0 -23.333 -0.666992 -43 -2 -59s-3.83301 -31.667 -7.5 -47s-9 -27.833 -16 -37.5
s-16.167 -18.167 -27.5 -25.5s-25.333 -12.5 -42 -15.5s-36.334 -4.5 -59.001 -4.5h-28zM75.001 0v810h43l275 -684v684h48v-810h-43l-275 685v-685h-48z" />
    <glyph glyph-name="uni01CB" unicode="&#x1cb;" horiz-adv-x="717" 
d="M596 654v92h53v-92h-53zM499 -153l-0.000976562 42.999c2.66699 -0.666992 10.667 -1 24 -1s24.666 1.66699 33.999 5s16.5 7.5 21.5 12.5s8.83301 11.667 11.5 20s4.33398 15.833 5.00098 22.5s1 15.334 1 26.001v603h53v-606c0 -44.667 -10.167 -77 -30.5 -97
s-50.166 -30 -89.499 -30c-16.667 0 -26.667 0.666992 -30 2zM74.999 -0.000976562v810h43l275 -684v684h48v-810h-43l-275 685v-685h-48z" />
    <glyph glyph-name="uni01CC" unicode="&#x1cc;" horiz-adv-x="593" 
d="M472 654v92h53v-92h-53zM375 -153l-0.000976562 42.999c2.66699 -0.666992 10.667 -1 24 -1s24.666 1.66699 33.999 5s16.5 7.5 21.5 12.5s8.83301 11.667 11.5 20s4.33398 15.833 5.00098 22.5s1 15.334 1 26.001v603h53v-606c0 -44.667 -10.167 -77 -30.5 -97
s-50.166 -30 -89.499 -30c-16.667 0 -26.667 0.666992 -30 2zM56.999 -0.000976562l-0.000976562 577.999h53v-62c40.667 47.333 86.334 71 137.001 71c28 0 50.167 -10.167 66.5 -30.5s24.5 -52.166 24.5 -95.499v-461h-53v455c0 33.333 -5.16699 56.833 -15.5 70.5
s-25.5 20.5 -45.5 20.5c-18.667 0 -38 -5.83301 -58 -17.5s-38.667 -27.167 -56 -46.5v-482h-53z" />
    <glyph glyph-name="uni01F1" unicode="&#x1f1;" horiz-adv-x="918" 
d="M548 0v43l291 724h-265v43h324v-34l-294 -733h295v-43h-351zM75 0l0.000976562 810h177c39.333 0 72.833 -6 100.5 -18s49 -28.833 64 -50.5s25.833 -46 32.5 -73s10 -57.5 10 -91.5v-336c0 -36.667 -3.33301 -69 -10 -97s-17.334 -53.167 -32.001 -75.5
s-35.5 -39.333 -62.5 -51s-59.5 -17.5 -97.5 -17.5h-182zM129.001 43l125.001 -0.00195312c25.333 0 47.333 3.66699 66 11s33.334 16.833 44.001 28.5s19 26.834 25 45.501s10 37 12 55s3 39.333 3 64v326c0 25.333 -1.33301 47.333 -4 66s-7.33398 36.334 -14.001 53.001
s-15.667 30.167 -27 40.5s-25.833 18.5 -43.5 24.5s-38.834 9 -63.501 9h-123v-723z" />
    <glyph glyph-name="uni01F2" unicode="&#x1f2;" horiz-adv-x="842" 
d="M549 0v39l209 498h-187v41h241v-35l-207 -502h204v-41h-260zM75 0l0.000976562 810h177c39.333 0 72.833 -6 100.5 -18s49 -28.833 64 -50.5s25.833 -46 32.5 -73s10 -57.5 10 -91.5v-336c0 -36.667 -3.33301 -69 -10 -97s-17.334 -53.167 -32.001 -75.5
s-35.5 -39.333 -62.5 -51s-59.5 -17.5 -97.5 -17.5h-182zM129.001 43l125.001 -0.00195312c25.333 0 47.333 3.66699 66 11s33.334 16.833 44.001 28.5s19 26.834 25 45.501s10 37 12 55s3 39.333 3 64v326c0 25.333 -1.33301 47.333 -4 66s-7.33398 36.334 -14.001 53.001
s-15.667 30.167 -27 40.5s-25.833 18.5 -43.5 24.5s-38.834 9 -63.501 9h-123v-723z" />
    <glyph glyph-name="uni01F3" unicode="&#x1f3;" horiz-adv-x="719" 
d="M427 0v39l209 498h-187v41h241v-35l-207 -502h204v-41h-260zM189 32c34 0 65.668 16.334 95.001 49.001v415c-32 33.333 -64 50 -96 50c-35.333 0 -59 -14.333 -71 -43s-18 -78.667 -18 -150v-120c0 -72.667 6.16699 -124.334 18.5 -155.001s36.166 -46 71.499 -46z
M182.001 -8.99902c-49.333 0 -84.333 18.832 -105 56.499s-31 100.834 -31 189.501v103c0 86 9.5 148.667 28.5 188s53.833 59 104.5 59c40.667 0 75.667 -17.667 105 -53v276h53v-810h-53v44c-28.667 -35.333 -62.667 -53 -102 -53z" />
    <glyph glyph-name="uni01F4" unicode="&#x1f4;" horiz-adv-x="510" 
d="M237 879l64 194h54l-90 -194h-28zM252 -11c-30 0 -56.3311 3.99805 -78.998 11.998s-41.334 19 -56.001 33s-26.5 31.667 -35.5 53s-15.167 43.833 -18.5 67.5s-5 50.5 -5 80.5v344c0 30 1.66699 56.667 5 80s9.66602 45.166 18.999 65.499s21.333 37.333 36 51
s33.5 24.334 56.5 32.001s49.833 11.5 80.5 11.5c67.333 0 115.333 -19.667 144 -59s43 -96.666 43 -171.999v-28h-52v31c0 62.667 -9.83301 108.834 -29.5 138.501s-54.834 44.5 -105.501 44.5c-23.333 0 -43.5 -3.16699 -60.5 -9.5s-30.667 -14.833 -41 -25.5
s-18.5 -24.5 -24.5 -41.5s-10.167 -34.667 -12.5 -53s-3.5 -39.5 -3.5 -63.5v-353c0 -31.333 2 -58.166 6 -80.499s11.333 -42.333 22 -60s25.5 -31 44.5 -40s42.5 -13.5 70.5 -13.5c26 0 48.167 4.33301 66.5 13s32.333 21.5 42 38.5s16.667 36.667 21 59
s6.5 49.166 6.5 80.499v119h-129v42h180v-386h-35l-8 91c-21.333 -68 -70.666 -102 -147.999 -102z" />
    <glyph glyph-name="uni01F5" unicode="&#x1f5;" horiz-adv-x="428" 
d="M213 647l64 194h54l-90 -194h-28zM207 223c74 0 110.666 55.001 109.999 165.001c0 14 -0.833008 27.5 -2.5 40.5s-5 27 -10 42s-11.5 28 -19.5 39s-18.833 20.167 -32.5 27.5s-29.167 11 -46.5 11s-33 -3.83301 -47 -11.5s-25 -17.334 -33 -29.001s-14.5 -25 -19.5 -40
s-8.5 -29 -10.5 -42s-3 -25.5 -3 -37.5c0 -14 0.833008 -27.667 2.5 -41s4.83398 -27.833 9.50098 -43.5s11 -29.167 19 -40.5s19.167 -20.833 33.5 -28.5s30.833 -11.5 49.5 -11.5zM201.999 -152.999c42 0 76 7 102 21s39 35 39 63c0 15.333 -3 27.833 -9 37.5
s-18.333 19 -37 28s-45.667 17.167 -81 24.5l-63 11c-61.333 -35.333 -92 -73 -92 -113c0 -48 47 -72 141 -72zM201.999 -195.999c-125.333 0 -187.667 33.998 -187 101.998c0 27.333 10.167 53 30.5 77s44.5 43.333 72.5 58c-18 4.66699 -34.167 10.834 -48.5 18.501
s-21.5 15.834 -21.5 24.501c0 28 24 69.667 72 125c-50.667 35.333 -76 95 -76 179c0 24.667 3.16699 48.5 9.5 71.5s15.833 44.167 28.5 63.5s29.5 34.833 50.5 46.5s45.167 17.5 72.5 17.5c57.333 0 100 -25.667 128 -77c7.33301 13.333 18.166 26.333 32.499 39
s29.5 22.334 45.5 29.001l14 5l15 -40c-17.333 -4 -34.666 -11.5 -51.999 -22.5s-31 -22.833 -41 -35.5c4.66699 -12.667 9 -29 13 -49s6 -36.333 6 -49c0 -61.333 -13 -110.5 -39 -147.5s-66 -55.5 -120 -55.5c-24 0 -44.667 3.33301 -62 10
c-2 -3.33301 -8.33301 -12.666 -19 -27.999s-18.667 -28.333 -24 -39s-8 -19.334 -8 -26.001s16 -13.334 48 -20.001c10.667 -2.66699 28 -6.5 52 -11.5s38 -7.83301 42 -8.5c50 -11.333 87.833 -26.833 113.5 -46.5s38.5 -47.167 38.5 -82.5c0 -22 -5 -41.333 -15 -58
s-23.667 -30 -41 -40s-37 -17.5 -59 -22.5s-45.667 -7.5 -71 -7.5z" />
    <glyph glyph-name="uni0200" unicode="&#x200;" horiz-adv-x="468" 
d="M270 878l-67 147h52l42 -147h-27zM172 878l-86 147h59l56 -147h-29zM137 264h195l-98 480zM32 0l170 810h63l171 -810h-55l-42 224h-210l-43 -224h-54z" />
    <glyph glyph-name="uni0201" unicode="&#x201;" 
d="M219 647l-67 147h52l42 -147h-27zM121 647l-86 147h59l56 -147h-29zM167 35c23.333 0 43.998 7.66797 61.998 23.001s33 34.666 45 57.999v190c-65.333 -34 -106.666 -57 -123.999 -69c-27.333 -18.667 -44.666 -39.334 -51.999 -62.001c-4.66699 -14 -7 -30.667 -7 -50
c0 -31.333 7.33301 -54.166 22 -68.499s32.667 -21.5 54 -21.5zM153.998 -8.99902c-34.667 0 -62.666 11.6689 -83.999 35.002s-32 53.666 -32 90.999c0 26 2.83301 47.5 8.5 64.5s17.667 34.333 36 52s41.833 34.667 70.5 51s69 36.5 121 60.5v41
c0 42 -2.66699 74.667 -8 98s-13.666 39.666 -24.999 48.999s-27 14 -47 14c-12.667 0 -24 -1.5 -34 -4.5s-19.667 -8.16699 -29 -15.5s-16.5 -18.5 -21.5 -33.5s-7.5 -33.5 -7.5 -55.5v-16l-52 1v15c1.33301 52.667 14.166 90.667 38.499 114s60.166 35 107.499 35
c48 0 81.833 -15 101.5 -45s29.5 -80 29.5 -150v-291c0 -55.333 1 -89 3 -101h-46c-4.66699 43.333 -7.66699 69 -9 77c-9.33301 -25.333 -24.833 -46 -46.5 -62s-46.5 -24 -74.5 -24z" />
    <glyph glyph-name="uni0202" unicode="&#x202;" horiz-adv-x="468" 
d="M120 879c1.33301 36.667 12.166 64.335 32.499 83.002s47.833 28 82.5 28c34 0 60.833 -9.33301 80.5 -28s30.5 -46.334 32.5 -83.001h-37c-1.33301 51.333 -26.333 76.666 -75 75.999c-49.333 0 -75.666 -25.333 -78.999 -76h-37zM137 264.001h195l-98 480z
M32 0.000976562l170 810h63l171 -810h-55l-42 224h-210l-43 -224h-54z" />
    <glyph glyph-name="uni0203" unicode="&#x203;" 
d="M70 647c1.33301 36.667 12.166 64.335 32.499 83.002s47.833 28 82.5 28c34 0 60.833 -9.33301 80.5 -28s30.5 -46.334 32.5 -83.001h-37c-1.33301 51.333 -26.333 76.666 -75 75.999c-49.333 0 -75.666 -25.333 -78.999 -76h-37zM167 35.001
c23.333 0 43.998 7.66797 61.998 23.001s33 34.666 45 57.999v190c-65.333 -34 -106.666 -57 -123.999 -69c-27.333 -18.667 -44.666 -39.334 -51.999 -62.001c-4.66699 -14 -7 -30.667 -7 -50c0 -31.333 7.33301 -54.166 22 -68.499s32.667 -21.5 54 -21.5z
M153.998 -8.99805c-34.667 0 -62.666 11.6689 -83.999 35.002s-32 53.666 -32 90.999c0 26 2.83301 47.5 8.5 64.5s17.667 34.333 36 52s41.833 34.667 70.5 51s69 36.5 121 60.5v41c0 42 -2.66699 74.667 -8 98s-13.666 39.666 -24.999 48.999s-27 14 -47 14
c-12.667 0 -24 -1.5 -34 -4.5s-19.667 -8.16699 -29 -15.5s-16.5 -18.5 -21.5 -33.5s-7.5 -33.5 -7.5 -55.5v-16l-52 1v15c1.33301 52.667 14.166 90.667 38.499 114s60.166 35 107.499 35c48 0 81.833 -15 101.5 -45s29.5 -80 29.5 -150v-291c0 -55.333 1 -89 3 -101h-46
c-4.66699 43.333 -7.66699 69 -9 77c-9.33301 -25.333 -24.833 -46 -46.5 -62s-46.5 -24 -74.5 -24z" />
    <glyph glyph-name="uni0204" unicode="&#x204;" horiz-adv-x="392" 
d="M251 878l-67 147h52l42 -147h-27zM153 878l-86 147h59l56 -147h-29zM74 0v810h280v-44h-225v-325h185v-42h-185v-356h228v-43h-283z" />
    <glyph glyph-name="uni0205" unicode="&#x205;" 
d="M227 647l-67 147h52l42 -147h-27zM129 647l-86 147h59l56 -147h-29zM99 334h185v45c0 23.333 -0.5 42.5 -1.5 57.5s-3.33301 30.167 -7 45.5s-8.66699 27.333 -15 36s-15 15.667 -26 21s-24.5 8 -40.5 8c-23.333 0 -41.333 -4.33301 -54 -13s-22.667 -25.5 -30 -50.5
s-11 -60.167 -11 -105.5v-44zM193 -9c-19.333 0 -36.167 2.00293 -50.5 6.00293s-27.833 11 -40.5 21s-23 23.333 -31 40s-14.167 38 -18.5 64s-6.5 56.667 -6.5 92v154c0 35.333 2.33301 66.166 7 92.499s10.834 47.5 18.501 63.5s18 28.833 31 38.5s26.667 16.167 41 19.5
s31.166 5 50.499 5c53.333 0 90.333 -17.333 111 -52s31 -94 31 -178l-1 -55h-236v-92c0 -68 7.16699 -114.833 21.5 -140.5s38.5 -38.5 72.5 -38.5c10 0 18.5 0.666992 25.5 2s15 4.33301 24 9s16.167 11.167 21.5 19.5s10 20.166 14 35.499s6 33.666 6 54.999v43h52v-38
c0 -53.333 -11 -94.333 -33 -123s-58.667 -43 -110 -43z" />
    <glyph glyph-name="uni0206" unicode="&#x206;" horiz-adv-x="392" 
d="M102 879c1.33301 36.667 12.166 64.335 32.499 83.002s47.833 28 82.5 28c34 0 60.833 -9.33301 80.5 -28s30.5 -46.334 32.5 -83.001h-37c-1.33301 51.333 -26.333 76.666 -75 75.999c-49.333 0 -75.666 -25.333 -78.999 -76h-37zM74 0.000976562v810h280v-44h-225v-325
h185v-42h-185v-356h228v-43h-283z" />
    <glyph glyph-name="uni0207" unicode="&#x207;" 
d="M77 647c1.33301 36.667 12.166 64.335 32.499 83.002s47.833 28 82.5 28c34 0 60.833 -9.33301 80.5 -28s30.5 -46.334 32.5 -83.001h-37c-1.33301 51.333 -26.333 76.666 -75 75.999c-49.333 0 -75.666 -25.333 -78.999 -76h-37zM99 334.001h185v45
c0 23.333 -0.5 42.5 -1.5 57.5s-3.33301 30.167 -7 45.5s-8.66699 27.333 -15 36s-15 15.667 -26 21s-24.5 8 -40.5 8c-23.333 0 -41.333 -4.33301 -54 -13s-22.667 -25.5 -30 -50.5s-11 -60.167 -11 -105.5v-44zM193 -8.99902c-19.333 0 -36.167 2.00293 -50.5 6.00293
s-27.833 11 -40.5 21s-23 23.333 -31 40s-14.167 38 -18.5 64s-6.5 56.667 -6.5 92v154c0 35.333 2.33301 66.166 7 92.499s10.834 47.5 18.501 63.5s18 28.833 31 38.5s26.667 16.167 41 19.5s31.166 5 50.499 5c53.333 0 90.333 -17.333 111 -52s31 -94 31 -178l-1 -55
h-236v-92c0 -68 7.16699 -114.833 21.5 -140.5s38.5 -38.5 72.5 -38.5c10 0 18.5 0.666992 25.5 2s15 4.33301 24 9s16.167 11.167 21.5 19.5s10 20.166 14 35.499s6 33.666 6 54.999v43h52v-38c0 -53.333 -11 -94.333 -33 -123s-58.667 -43 -110 -43z" />
    <glyph glyph-name="uni0208" unicode="&#x208;" horiz-adv-x="206" 
d="M139 878l-67 147h52l42 -147h-27zM41 878l-86 147h59l56 -147h-29zM76 0v810h54v-810h-54z" />
    <glyph glyph-name="uni0209" unicode="&#x209;" horiz-adv-x="181" 
d="M127 647l-67 147h52l42 -147h-27zM29 647l-86 147h59l56 -147h-29zM65 0v578h53v-578h-53z" />
    <glyph glyph-name="uni020A" unicode="&#x20a;" horiz-adv-x="206" 
d="M-11 879c1.33301 36.667 12.166 64.335 32.499 83.002s47.833 28 82.5 28c34 0 60.833 -9.33301 80.5 -28s30.5 -46.334 32.5 -83.001h-37c-1.33301 51.333 -26.333 76.666 -75 75.999c-49.333 0 -75.666 -25.333 -78.999 -76h-37zM76 0.000976562v810h54v-810h-54z" />
    <glyph glyph-name="uni020B" unicode="&#x20b;" horiz-adv-x="181" 
d="M-22 647c1.33301 36.667 12.166 64.335 32.499 83.002s47.833 28 82.5 28c34 0 60.833 -9.33301 80.5 -28s30.5 -46.334 32.5 -83.001h-37c-1.33301 51.333 -26.333 76.666 -75 75.999c-49.333 0 -75.666 -25.333 -78.999 -76h-37zM65 0.000976562v578h53v-578h-53z" />
    <glyph glyph-name="uni020C" unicode="&#x20c;" horiz-adv-x="515" 
d="M293 878l-67 147h52l42 -147h-27zM195 878l-86 147h59l56 -147h-29zM257.5 -11c-31 0 -58.168 4.00098 -81.501 12.001s-42.333 19 -57 33s-26.667 31.333 -36 52s-15.833 42.667 -19.5 66s-5.5 49.333 -5.5 78v354c0 28.667 1.83301 54.5 5.5 77.5
s10.334 44.5 20.001 64.5s22.167 36.667 37.5 50s34.333 23.833 57 31.5s49.334 11.5 80.001 11.5c37.333 0 69.166 -5.66699 95.499 -17s47 -27.833 62 -49.5s25.833 -46.167 32.5 -73.5s10 -59 10 -95v-355c0 -28.667 -1.83301 -54.667 -5.5 -78
s-10.167 -45.333 -19.5 -66s-21.5 -37.834 -36.5 -51.501s-34.167 -24.5 -57.5 -32.5s-50.5 -12 -81.5 -12zM257.499 34.001c28.333 0 52.166 4.33301 71.499 13s34.333 21.5 45 38.5s18.167 36 22.5 57s6.5 46.167 6.5 75.5v374c0 29.333 -2.16699 54.5 -6.5 75.5
s-11.833 39.833 -22.5 56.5s-25.667 29.167 -45 37.5s-43.166 12.5 -71.499 12.5s-52.166 -4.16699 -71.499 -12.5s-34.333 -20.833 -45 -37.5s-18 -35.5 -22 -56.5s-6 -46.167 -6 -75.5v-374c0 -29.333 2 -54.5 6 -75.5s11.333 -40 22 -57s25.667 -29.833 45 -38.5
s43.166 -13 71.499 -13z" />
    <glyph glyph-name="uni020D" unicode="&#x20d;" horiz-adv-x="382" 
d="M227 647l-67 147h52l42 -147h-27zM129 647l-86 147h59l56 -147h-29zM191 -9c-55.333 0 -93.333 17.5 -114 52.5s-31 90.833 -31 167.5v156c0 76 10.5 131.667 31.5 167s58.833 53 113.5 53c28 0 51.667 -4.5 71 -13.5s34.5 -23.167 45.5 -42.5s18.667 -42 23 -68
s6.5 -58 6.5 -96v-156c0 -76.667 -10.5 -132.5 -31.5 -167.5s-59.167 -52.5 -114.5 -52.5zM191.5 31c13.667 0 25.667 1.66699 36 5s18.833 8.83301 25.5 16.5s12 16 16 25s7.16699 21 9.5 36s3.83301 29.5 4.5 43.5s1 31.333 1 52v160c0 25.333 -0.5 46 -1.5 62
s-3.33301 32 -7 48s-8.83398 28.667 -15.501 38s-15.667 16.666 -27 21.999s-25.166 8 -41.499 8s-30.333 -2.66699 -42 -8s-20.667 -12.666 -27 -21.999s-11.333 -22 -15 -38s-6 -32 -7 -48s-1.5 -36.667 -1.5 -62v-160c0 -20.667 0.333008 -38 1 -52s2 -28.5 4 -43.5
s5.16699 -27 9.5 -36s9.83301 -17.333 16.5 -25s15.167 -13.167 25.5 -16.5s22.333 -5 36 -5z" />
    <glyph glyph-name="uni020E" unicode="&#x20e;" horiz-adv-x="515" 
d="M144 879c1.33301 36.667 12.166 64.335 32.499 83.002s47.833 28 82.5 28c34 0 60.833 -9.33301 80.5 -28s30.5 -46.334 32.5 -83.001h-37c-1.33301 51.333 -26.333 76.666 -75 75.999c-49.333 0 -75.666 -25.333 -78.999 -76h-37zM257.5 -10.999
c-31 0 -58.168 4.00098 -81.501 12.001s-42.333 19 -57 33s-26.667 31.333 -36 52s-15.833 42.667 -19.5 66s-5.5 49.333 -5.5 78v354c0 28.667 1.83301 54.5 5.5 77.5s10.334 44.5 20.001 64.5s22.167 36.667 37.5 50s34.333 23.833 57 31.5s49.334 11.5 80.001 11.5
c37.333 0 69.166 -5.66699 95.499 -17s47 -27.833 62 -49.5s25.833 -46.167 32.5 -73.5s10 -59 10 -95v-355c0 -28.667 -1.83301 -54.667 -5.5 -78s-10.167 -45.333 -19.5 -66s-21.5 -37.834 -36.5 -51.501s-34.167 -24.5 -57.5 -32.5s-50.5 -12 -81.5 -12zM257.499 34.002
c28.333 0 52.166 4.33301 71.499 13s34.333 21.5 45 38.5s18.167 36 22.5 57s6.5 46.167 6.5 75.5v374c0 29.333 -2.16699 54.5 -6.5 75.5s-11.833 39.833 -22.5 56.5s-25.667 29.167 -45 37.5s-43.166 12.5 -71.499 12.5s-52.166 -4.16699 -71.499 -12.5
s-34.333 -20.833 -45 -37.5s-18 -35.5 -22 -56.5s-6 -46.167 -6 -75.5v-374c0 -29.333 2 -54.5 6 -75.5s11.333 -40 22 -57s25.667 -29.833 45 -38.5s43.166 -13 71.499 -13z" />
    <glyph glyph-name="uni020F" unicode="&#x20f;" horiz-adv-x="382" 
d="M78 647c1.33301 36.667 12.166 64.335 32.499 83.002s47.833 28 82.5 28c34 0 60.833 -9.33301 80.5 -28s30.5 -46.334 32.5 -83.001h-37c-1.33301 51.333 -26.333 76.666 -75 75.999c-49.333 0 -75.666 -25.333 -78.999 -76h-37zM191 -8.99902
c-55.333 0 -93.333 17.5 -114 52.5s-31 90.833 -31 167.5v156c0 76 10.5 131.667 31.5 167s58.833 53 113.5 53c28 0 51.667 -4.5 71 -13.5s34.5 -23.167 45.5 -42.5s18.667 -42 23 -68s6.5 -58 6.5 -96v-156c0 -76.667 -10.5 -132.5 -31.5 -167.5
s-59.167 -52.5 -114.5 -52.5zM191.5 31.001c13.667 0 25.667 1.66699 36 5s18.833 8.83301 25.5 16.5s12 16 16 25s7.16699 21 9.5 36s3.83301 29.5 4.5 43.5s1 31.333 1 52v160c0 25.333 -0.5 46 -1.5 62s-3.33301 32 -7 48s-8.83398 28.667 -15.501 38
s-15.667 16.666 -27 21.999s-25.166 8 -41.499 8s-30.333 -2.66699 -42 -8s-20.667 -12.666 -27 -21.999s-11.333 -22 -15 -38s-6 -32 -7 -48s-1.5 -36.667 -1.5 -62v-160c0 -20.667 0.333008 -38 1 -52s2 -28.5 4 -43.5s5.16699 -27 9.5 -36s9.83301 -17.333 16.5 -25
s15.167 -13.167 25.5 -16.5s22.333 -5 36 -5z" />
    <glyph glyph-name="uni0210" unicode="&#x210;" horiz-adv-x="508" 
d="M303 878l-67 147h52l42 -147h-27zM205 878l-86 147h59l56 -147h-29zM129 450h140c25.333 0 46.333 3.5 63 10.5s29.667 17.833 39 32.5s15.833 31.167 19.5 49.5s5.5 40.833 5.5 67.5c0 54.667 -9.16699 94.5 -27.5 119.5s-51.833 37.5 -100.5 37.5h-139v-317zM75 0v810
h196c28 0 52.5 -3.5 73.5 -10.5s38.167 -16.333 51.5 -28s24 -26.167 32 -43.5s13.5 -35.333 16.5 -54s4.5 -40 4.5 -64c0 -19.333 -1 -37.166 -3 -53.499s-5.66699 -32.5 -11 -48.5s-12.333 -29.833 -21 -41.5s-20.167 -21.834 -34.5 -30.501s-30.833 -14.667 -49.5 -18
l130 -418h-54l-126 408h-151v-408h-54z" />
    <glyph glyph-name="uni0211" unicode="&#x211;" horiz-adv-x="283" 
d="M199 647l-67 147h52l42 -147h-27zM101 647l-86 147h59l56 -147h-29zM64 0v578.001h53v-78c16 27.333 36.833 48.166 62.5 62.499s50.5 21.5 74.5 21.5l4.5 -0.5c3 -0.333008 4.83301 -0.5 5.5 -0.5v-55c-6 2 -13.333 3 -22 3c-54 0 -95.667 -24.667 -125 -74v-457h-53z
" />
    <glyph glyph-name="uni0212" unicode="&#x212;" horiz-adv-x="508" 
d="M154 879c1.33301 36.667 12.166 64.335 32.499 83.002s47.833 28 82.5 28c34 0 60.833 -9.33301 80.5 -28s30.5 -46.334 32.5 -83.001h-37c-1.33301 51.333 -26.333 76.666 -75 75.999c-49.333 0 -75.666 -25.333 -78.999 -76h-37zM129 450.001h140
c25.333 0 46.333 3.5 63 10.5s29.667 17.833 39 32.5s15.833 31.167 19.5 49.5s5.5 40.833 5.5 67.5c0 54.667 -9.16699 94.5 -27.5 119.5s-51.833 37.5 -100.5 37.5h-139v-317zM75 0.000976562v810h196c28 0 52.5 -3.5 73.5 -10.5s38.167 -16.333 51.5 -28
s24 -26.167 32 -43.5s13.5 -35.333 16.5 -54s4.5 -40 4.5 -64c0 -19.333 -1 -37.166 -3 -53.499s-5.66699 -32.5 -11 -48.5s-12.333 -29.833 -21 -41.5s-20.167 -21.834 -34.5 -30.501s-30.833 -14.667 -49.5 -18l130 -418h-54l-126 408h-151v-408h-54z" />
    <glyph glyph-name="uni0213" unicode="&#x213;" horiz-adv-x="283" 
d="M50 647c1.33301 36.667 12.166 64.335 32.499 83.002s47.833 28 82.5 28c34 0 60.833 -9.33301 80.5 -28s30.5 -46.334 32.5 -83.001h-37c-1.33301 51.333 -26.333 76.666 -75 75.999c-49.333 0 -75.666 -25.333 -78.999 -76h-37zM64 0.000976562v578.001h53v-78
c16 27.333 36.833 48.166 62.5 62.499s50.5 21.5 74.5 21.5l4.5 -0.5c3 -0.333008 4.83301 -0.5 5.5 -0.5v-55c-6 2 -13.333 3 -22 3c-54 0 -95.667 -24.667 -125 -74v-457h-53z" />
    <glyph glyph-name="uni0214" unicode="&#x214;" horiz-adv-x="533" 
d="M302 878l-67 147h52l42 -147h-27zM204 878l-86 147h59l56 -147h-29zM267 -11c-38.667 0 -71.501 5 -98.501 15s-47.833 24.333 -62.5 43s-25.167 39.667 -31.5 63s-9.5 50 -9.5 80v620h54v-621c0 -24 2.16699 -44.833 6.5 -62.5s12 -33.667 23 -48s26.333 -25.333 46 -33
s43.834 -11.5 72.501 -11.5c98.667 0 148 51.667 148 155v621h53v-620c0 -134 -67 -201 -201 -201z" />
    <glyph glyph-name="uni0215" unicode="&#x215;" horiz-adv-x="394" 
d="M230 647l-67 147h52l42 -147h-27zM132 647l-86 147h59l56 -147h-29zM143 -9c-28 0 -50.1699 10.168 -66.5029 30.501s-24.5 52.166 -24.5 95.499v461h53v-455c0 -33.333 5.16699 -56.833 15.5 -70.5s25.333 -20.5 45 -20.5s39.834 6.33301 60.501 19
s40.334 29.667 59.001 51v476h52v-578h-52v68c-19.333 -24 -41.166 -42.833 -65.499 -56.5s-49.833 -20.5 -76.5 -20.5z" />
    <glyph glyph-name="uni0216" unicode="&#x216;" horiz-adv-x="533" 
d="M153 879c1.33301 36.667 12.166 64.335 32.499 83.002s47.833 28 82.5 28c34 0 60.833 -9.33301 80.5 -28s30.5 -46.334 32.5 -83.001h-37c-1.33301 51.333 -26.333 76.666 -75 75.999c-49.333 0 -75.666 -25.333 -78.999 -76h-37zM267 -10.999
c-38.667 0 -71.501 5 -98.501 15s-47.833 24.333 -62.5 43s-25.167 39.667 -31.5 63s-9.5 50 -9.5 80v620h54v-621c0 -24 2.16699 -44.833 6.5 -62.5s12 -33.667 23 -48s26.333 -25.333 46 -33s43.834 -11.5 72.501 -11.5c98.667 0 148 51.667 148 155v621h53v-620
c0 -134 -67 -201 -201 -201z" />
    <glyph glyph-name="uni0217" unicode="&#x217;" horiz-adv-x="394" 
d="M81 647c1.33301 36.667 12.166 64.335 32.499 83.002s47.833 28 82.5 28c34 0 60.833 -9.33301 80.5 -28s30.5 -46.334 32.5 -83.001h-37c-1.33301 51.333 -26.333 76.666 -75 75.999c-49.333 0 -75.666 -25.333 -78.999 -76h-37zM143 -8.99902
c-28 0 -50.1699 10.168 -66.5029 30.501s-24.5 52.166 -24.5 95.499v461h53v-455c0 -33.333 5.16699 -56.833 15.5 -70.5s25.333 -20.5 45 -20.5s39.834 6.33301 60.501 19s40.334 29.667 59.001 51v476h52v-578h-52v68c-19.333 -24 -41.166 -42.833 -65.499 -56.5
s-49.833 -20.5 -76.5 -20.5z" />
    <glyph glyph-name="Scommaaccent" unicode="&#x218;" horiz-adv-x="452" 
d="M207 -250l-13 21c27.333 18 41 46 41 84h-35v75h65v-62c0 -32 -4.16699 -57 -12.5 -75s-23.5 -32.333 -45.5 -43zM237 -10c-118.667 0 -183.666 69.9961 -194.999 209.996l47 15c2.66699 -23.333 6.16699 -43.5 10.5 -60.5s10.166 -33.333 17.499 -49
s16.333 -28.5 27 -38.5s23.834 -17.833 39.501 -23.5s33.834 -8.5 54.501 -8.5c86 0 129 43.333 129 130c0 33.333 -8.33301 63.666 -25 90.999s-43.334 59.333 -80.001 96l-148 147c-46.667 46.667 -70.334 98 -71.001 154c0 52.667 16.167 93.334 48.5 122.001
s75.5 43.334 129.5 44.001h1c57.333 0 101.666 -15.5 132.999 -46.5s49.333 -83.167 54 -156.5l-46 -11c-5.33301 58.667 -18.166 101.667 -38.499 129s-52.833 41 -97.5 41h-5c-39.333 -0.666992 -70.666 -10.667 -93.999 -30s-35 -48.666 -35 -87.999
c0 -21.333 4.5 -41.666 13.5 -60.999s24.167 -40 45.5 -62l146 -144c37.333 -37.333 66.666 -73.666 87.999 -108.999s32 -73 32 -113c0 -58.667 -16.333 -103 -49 -133s-76.667 -45 -132 -45z" />
    <glyph glyph-name="scommaaccent" unicode="&#x219;" horiz-adv-x="356" 
d="M159 -249l-13 21c27.333 18 41 46 41 84h-35v75h65v-62c0 -32 -4.16699 -57 -12.5 -75s-23.5 -32.333 -45.5 -43zM188 -9c-44.667 0 -80.499 14.6689 -107.499 44.002s-42.5 69.666 -46.5 120.999l45 13c6.66699 -92 43.667 -138 111 -138c28.667 0 51.167 8 67.5 24
s24.5 38.667 24.5 68c0 44 -28.333 89.667 -85 137l-67 57c-29.333 24.667 -50.5 48 -63.5 70s-19.5 47 -19.5 75c0 39.333 11.833 70 35.5 92s55.5 33 95.5 33c41.333 0 73.166 -13.333 95.499 -40s34.166 -63.667 35.499 -111l-39 -12
c-2.66699 82.667 -32.334 123.667 -89.001 123c-26 0 -46.667 -6.66699 -62 -20s-23 -32 -23 -56c0 -22.667 4 -41.834 12 -57.501s23.667 -33.5 47 -53.5l69 -61c16.667 -14 29.667 -25.833 39 -35.5s19.833 -22 31.5 -37s20.334 -31 26.001 -48s8.5 -35.167 8.5 -54.5
c0 -41.333 -12.667 -73.833 -38 -97.5s-59.666 -35.5 -102.999 -35.5z" />
    <glyph glyph-name="uni021A" unicode="&#x21a;" horiz-adv-x="380" 
d="M167 -240l-13 21c27.333 18 41 46 41 84h-35v75h65v-62c0 -32 -4.16699 -57 -12.5 -75s-23.5 -32.333 -45.5 -43zM165 0v766h-172v44h394v-44h-168v-766h-54z" />
    <glyph glyph-name="uni021B" unicode="&#x21b;" horiz-adv-x="262" 
d="M106 -246l-13 21c27.333 18 41 46 41 84h-35v75h65v-62c0 -32 -4.16699 -57 -12.5 -75s-23.5 -32.333 -45.5 -43zM184 -6c-15.333 0 -28.8311 2 -40.498 6s-20.834 9.33301 -27.501 16s-11.834 15.5 -15.501 26.5s-6 22 -7 33s-1.5 23.833 -1.5 38.5v429h-76v35h76v185
h53v-185h98v-35h-98v-422c0 -32.667 3.16699 -55 9.5 -67s19.833 -18 40.5 -18c10 0 24.333 1.66699 43 5v-41c-16.667 -4 -34.667 -6 -54 -6z" />
    <glyph glyph-name="uni0237" unicode="&#x237;" horiz-adv-x="202" 
d="M-16 -157l0.000976562 43.002c1.33301 0 9.33301 -0.333008 24 -1c16.667 0 30.167 2.33301 40.5 7s17.666 11.667 21.999 21s7.16602 18.166 8.49902 26.499s2 19.166 2 32.499v606h53v-610c0 -44.667 -10.167 -77 -30.5 -97s-50.166 -30 -89.499 -30
c-16.667 0 -26.667 0.666992 -30 2z" />
    <glyph glyph-name="uni02BC" unicode="&#x2bc;" horiz-adv-x="237" 
d="M79 580v230h55l-26 -230h-29z" />
    <glyph glyph-name="circumflex" unicode="&#x2c6;" horiz-adv-x="320" 
d="M40 626l86 184h66l85 -184h-38l-80 157l-80 -157h-39z" />
    <glyph glyph-name="caron" unicode="&#x2c7;" horiz-adv-x="276" 
d="M119 647l-84 163h45l60 -122l60 122h45l-86 -163h-40z" />
    <glyph glyph-name="breve" unicode="&#x2d8;" horiz-adv-x="358" 
d="M180 699c-34 0 -61 9.16895 -81 27.502s-30.667 46.166 -32 83.499h37c1.33301 -51.333 26.666 -77 75.999 -77c48.667 0 74.667 25.667 78 77h37c-1.33301 -36.667 -12.166 -64.334 -32.499 -83.001s-47.833 -28 -82.5 -28z" />
    <glyph glyph-name="dotaccent" unicode="&#x2d9;" horiz-adv-x="189" 
d="M-29 60v104h59v-104h-59z" />
    <glyph glyph-name="ring" unicode="&#x2da;" horiz-adv-x="287" 
d="M144.5 680c15 0 27.5 4.5 37.5 13.5s15 22.5 15 40.5c0 18.667 -5 32.5 -15 41.5s-22.5 13.5 -37.5 13.5s-27.667 -4.5 -38 -13.5s-15.5 -22.833 -15.5 -41.5c0 -18 5.16699 -31.5 15.5 -40.5s23 -13.5 38 -13.5zM144 649c-23.333 0 -43.5 7.16699 -60.5 21.5
s-25.5 35.5 -25.5 63.5s8.33301 49.167 25 63.5s37 21.5 61 21.5c23.333 0 43.5 -7.16699 60.5 -21.5s25.5 -35.5 25.5 -63.5s-8.5 -49.167 -25.5 -63.5s-37.167 -21.5 -60.5 -21.5z" />
    <glyph glyph-name="ogonek" unicode="&#x2db;" horiz-adv-x="219" 
d="M161 -199c-82 0 -123.002 26.667 -123.002 80c0 23.333 7.66699 46.333 23 69s34 40 56 52h30c-45.333 -45.333 -67.666 -84.333 -66.999 -117c0 -18.667 8.33301 -32.167 25 -40.5s38.334 -12.5 65.001 -12.5z" />
    <glyph glyph-name="tilde" unicode="&#x2dc;" horiz-adv-x="362" 
d="M223 729c-12.667 0.666992 -28.833 8.16797 -48.5 22.501s-32.834 21.833 -39.501 22.5c-2 0.666992 -5 1 -9 1c-8.66699 0 -15.5 -3.33301 -20.5 -10s-7.5 -16.334 -7.5 -29.001h-36c0 4 0.333008 8.66699 1 14s2.33398 11.833 5.00098 19.5s6 14.5 10 20.5
s10 11.167 18 15.5s17.333 6.5 28 6.5c6 0 10.333 -0.333008 13 -1c12 -1.33301 28 -9 48 -23s33.667 -21.667 41 -23h6c20 0 30.667 15 32 45h34c0 -7.33301 -0.666992 -15 -2 -23s-4 -16.667 -8 -26s-10.833 -17 -20.5 -23s-21.167 -9 -34.5 -9h-10z" />
    <glyph glyph-name="hungarumlaut" unicode="&#x2dd;" horiz-adv-x="261" 
d="M159 667l54 153h62l-85 -153h-31zM71 667l38 153h53l-62 -153h-29z" />
    <glyph glyph-name="gravecomb" unicode="&#x300;" horiz-adv-x="0" 
d="M36 616l-81 194h54l54 -194h-27z" />
    <glyph glyph-name="acutecomb" unicode="&#x301;" horiz-adv-x="130" 
d="M20 616l64 194h54l-90 -194h-28z" />
    <glyph glyph-name="uni0302" unicode="&#x302;" horiz-adv-x="320" 
d="M40 630l86 180h66l85 -180h-38l-80 153l-80 -153h-39z" />
    <glyph glyph-name="tildecomb" unicode="&#x303;" horiz-adv-x="362" 
d="M223 729c-12.667 0.666992 -28.833 8.16797 -48.5 22.501s-32.834 21.833 -39.501 22.5c-2 0.666992 -5 1 -9 1c-8.66699 0 -15.5 -3.33301 -20.5 -10s-7.5 -16.334 -7.5 -29.001h-36c0 4 0.333008 8.66699 1 14s2.33398 11.833 5.00098 19.5s6 14.5 10 20.5
s10 11.167 18 15.5s17.333 6.5 28 6.5c6 0 10.333 -0.333008 13 -1c12 -1.33301 28 -9 48 -23s33.667 -21.667 41 -23h6c20 0 30.667 15 32 45h34c0 -7.33301 -0.666992 -15 -2 -23s-4 -16.667 -8 -26s-10.833 -17 -20.5 -23s-21.167 -9 -34.5 -9h-10z" />
    <glyph glyph-name="uni0304" unicode="&#x304;" horiz-adv-x="370" 
d="M102 773v37h171v-37h-171z" />
    <glyph glyph-name="uni0306" unicode="&#x306;" horiz-adv-x="358" 
d="M180 699c-34.667 0 -62.3369 9.16895 -83.0039 27.502s-31.667 46.166 -33 83.499h37c0.666992 -26.667 8.33398 -46.167 23.001 -58.5s33.334 -18.5 56.001 -18.5s41.334 6.16699 56.001 18.5s23 31.833 25 58.5h37c-1.33301 -36.667 -12.666 -64.334 -33.999 -83.001
s-49.333 -28 -84 -28z" />
    <glyph glyph-name="uni0307" unicode="&#x307;" horiz-adv-x="0" 
d="M-21 706v104h59v-104h-59z" />
    <glyph glyph-name="uni0308" unicode="&#x308;" horiz-adv-x="104" 
d="M104 734v76h56v-76h-56zM-55 734v76h55v-76h-55z" />
    <glyph glyph-name="uni030A" unicode="&#x30a;" horiz-adv-x="287" 
d="M144.5 680c15 0 27.5 4.5 37.5 13.5s15 22.5 15 40.5c0 18.667 -5 32.5 -15 41.5s-22.5 13.5 -37.5 13.5s-27.667 -4.5 -38 -13.5s-15.5 -22.833 -15.5 -41.5c0 -18 5.16699 -31.5 15.5 -40.5s23 -13.5 38 -13.5zM144 649c-23.333 0 -43.5 7.16699 -60.5 21.5
s-25.5 35.5 -25.5 63.5s8.33301 49.167 25 63.5s37 21.5 61 21.5c23.333 0 43.5 -7.16699 60.5 -21.5s25.5 -35.5 25.5 -63.5s-8.5 -49.167 -25.5 -63.5s-37.167 -21.5 -60.5 -21.5z" />
    <glyph glyph-name="uni030C" unicode="&#x30c;" horiz-adv-x="0" 
d="M-9 647l-85 163h46l59 -122l60 122h45l-85 -163h-40z" />
    <glyph glyph-name="uni030F" unicode="&#x30f;" horiz-adv-x="267" 
d="M209 663l-67 147h52l42 -147h-27zM111 663l-86 147h59l56 -147h-29z" />
    <glyph glyph-name="uni0311" unicode="&#x311;" horiz-adv-x="358" 
d="M67 699c1.33301 36.667 12.166 64.335 32.499 83.002s47.833 28 82.5 28c34 0 60.833 -9.33301 80.5 -28s30.5 -46.334 32.5 -83.001h-37c-1.33301 51.333 -26.333 76.666 -75 75.999c-49.333 0 -75.666 -25.333 -78.999 -76h-37z" />
    <glyph glyph-name="uni0326" unicode="&#x326;" horiz-adv-x="219" 
d="M84 -222l-13 21c27.333 18 41 46 41 84h-35v75h65v-62c0 -32 -4.16699 -57 -12.5 -75s-23.5 -32.333 -45.5 -43z" />
    <glyph glyph-name="Pi" unicode="&#x3a0;" horiz-adv-x="560" 
d="M74 0v810h413v-810h-54v768h-306v-768h-53z" />
    <glyph glyph-name="pi" unicode="&#x3c0;" horiz-adv-x="431" 
d="M127 537v-537.002h-53v537h-60v41h388v-41h-69v-388c0 -19.333 0.333008 -34.166 1 -44.499s2.16699 -20.166 4.5 -29.499s5.83301 -16 10.5 -20s10.667 -7.16699 18 -9.5s17 -3.5 29 -3.5l-6 -44c-43.333 0 -72.5 10.5 -87.5 31.5s-22.5 58.167 -22.5 111.5v396h-153z
" />
    <glyph glyph-name="uni0400" unicode="&#x400;" horiz-adv-x="392" 
d="M202 879l-81 194h54l54 -194h-27zM74 0v810h280v-44h-225v-325h185v-42h-185v-356h228v-43h-283z" />
    </font>
</defs>
</svg>
