<?xml version="1.0" standalone="no"?>
<!DOCTYPE svg PUBLIC "-//W3C//DTD SVG 1.1//EN" "http://www.w3.org/Graphics/SVG/1.1/DTD/svg11.dtd" >
<svg>
<metadata>
Created by FontForge 20120731 at Fri Aug  1 16:50:33 2014
 By Alfred Xing
Copyright (c) 2010-13 by Vernon Adams
</metadata>
<defs>
<font id="Oswald-Extra-LightItalic" horiz-adv-x="379" >
  <font-face 
    font-family="Oswald"
    font-weight="200"
    font-style="italic"
    font-stretch="normal"
    units-per-em="1000"
    panose-1="2 0 3 3 0 0 0 0 0 0"
    ascent="800"
    descent="-200"
    x-height="578"
    cap-height="810"
    bbox="-53 -251 962 1091"
    underline-thickness="10"
    underline-position="-32"
    unicode-range="U+0020-FB04"
  />
<missing-glyph horiz-adv-x="365" 
d="M33 0v667h266v-667h-266zM66 33h200v600h-200v-600z" />
    <glyph glyph-name=".notdef" horiz-adv-x="365" 
d="M33 0v667h266v-667h-266zM66 33h200v600h-200v-600z" />
    <glyph glyph-name="space" unicode=" " horiz-adv-x="189" 
 />
    <glyph glyph-name="exclam" unicode="!" horiz-adv-x="197" 
d="M87 174l46 636h61l-89 -636h-18zM47 0l8 74h60l-8 -74h-60z" />
    <glyph glyph-name="quotedbl" unicode="&#x22;" horiz-adv-x="341" 
d="M251 580l24 230h55l-50 -230h-29zM120 580l24 230h54l-50 -230h-28z" />
    <glyph glyph-name="numbersign" unicode="#" horiz-adv-x="453" 
d="M181 331h105l45 168h-105zM43 0l78 292h-64l4 39h70l45 168h-79l4 39h85l72 272h50l-72 -272h105l72 272h50l-72 -272h57l-4 -39h-63l-45 -168h72l-4 -39h-78l-77 -292h-51l77 292h-104l-78 -292h-50z" />
    <glyph glyph-name="dollar" unicode="$" horiz-adv-x="450" 
d="M202 -94l8 84.001c-115.333 2 -171.333 72 -168 210l49 15c0.666992 -23.333 2.16699 -43.5 4.5 -60.5s6.33301 -33.333 12 -49s13.334 -28.5 23.001 -38.5s22 -17.833 37 -23.5s32.833 -8.5 53.5 -8.5c86.667 0 134.334 43.333 143.001 130
c3.33301 32.667 -1.83398 62.667 -15.501 90s-37.167 59.666 -70.5 96.999l-132 147c-42 46.667 -60.333 98 -55 154c5.33301 50.667 24.333 90.167 57 118.5s74.334 43.833 125.001 46.5l10 95h30l-10 -95c52.667 -2.66699 91.667 -19.5 117 -50.5s36.333 -81.5 33 -151.5
l-47 -11c1.33301 59.333 -7.16699 102.666 -25.5 129.999s-50.833 40.666 -97.5 39.999c-40 -0.666992 -72.667 -10.667 -98 -30s-40 -48.666 -44 -87.999c-4.66699 -41.333 11 -82.333 47 -123l131 -144c33.333 -37.333 58.666 -73.666 75.999 -108.999s24.333 -73 21 -113
c-5.33301 -54 -23.833 -96 -55.5 -126s-71.834 -47 -120.501 -51l-10 -85h-28z" />
    <glyph glyph-name="percent" unicode="%" horiz-adv-x="635" 
d="M135 0l363 820h49l-362 -820h-50zM470 -6c-68 0 -97.332 45.333 -87.999 136l15 142c10 89.333 48.833 134 116.5 134s97.167 -44.333 88.5 -133l-16 -144c-8.66699 -90 -47.334 -135 -116.001 -135zM475.001 35c19.333 0 33.832 8.00098 43.499 24.001
s16.167 38.667 19.5 68l15 147c6.66699 60 -8 90 -44 90c-19.333 0 -33.833 -7.83301 -43.5 -23.5s-16.167 -37.834 -19.5 -66.501l-15 -147c-3.33301 -30 -1.66602 -52.833 5.00098 -68.5s19.667 -23.5 39 -23.5zM167 417.001c-68.667 0 -97.667 45.667 -87 137l15 142
c9.33301 89.333 48 134 116 134s97.333 -44.333 88 -133l-15 -144c-10 -90.667 -49 -136 -117 -136zM172 459.001c19.333 0 33.832 7.83301 43.499 23.5s16.167 38.5 19.5 68.5l15 147c6.66699 60 -8 90 -44 90s-56.667 -30 -62 -90l-16 -147
c-3.33301 -30 -1.66602 -52.833 5.00098 -68.5s19.667 -23.5 39 -23.5z" />
    <glyph glyph-name="ampersand" unicode="&#x26;" horiz-adv-x="601" 
d="M253 447c50.667 42.667 91.166 82.999 121.499 120.999s47.5 75.333 51.5 112c3.33301 30 -4.16699 53.167 -22.5 69.5s-44.833 24.5 -79.5 24.5c-38 0 -68.167 -11.167 -90.5 -33.5s-35.5 -51.166 -39.5 -86.499c-2.66699 -28.667 0.333008 -57.667 9 -87
s25.334 -69.333 50.001 -120zM232.999 33.999c26.667 0 51.998 5.49805 75.998 16.498s48.667 28.5 74 52.5l-149 279c-42.667 -41.333 -73.5 -78 -92.5 -110s-30.167 -64.667 -33.5 -98c-1.33301 -14 -1.33301 -27.167 0 -39.5s4.83301 -24.666 10.5 -36.999
s13.334 -23.166 23.001 -32.499s22.334 -16.833 38.001 -22.5s33.5 -8.5 53.5 -8.5zM227.997 -11.0029c-31.333 0 -59.168 5 -83.501 15s-43.166 23.667 -56.499 41s-22.833 37 -28.5 59s-7.16699 45.667 -4.5 71c4 38 18 76 42 114s63.667 81.667 119 131
c-32 62.667 -53.167 109 -63.5 139s-13.833 61.333 -10.5 94c5.33301 52.667 24.833 93.5 58.5 122.5s76.834 43.5 129.501 43.5c50.667 0 89 -12.667 115 -38s37 -59.666 33 -102.999c-4 -38.667 -23.5 -79.334 -58.5 -122.001s-84.833 -90 -149.5 -142l147 -278
c24 27.333 45.667 62.333 65 105s31.333 79.334 36 110.001h48c-4 -36.667 -17.333 -79 -40 -127s-50.667 -88.667 -84 -122c15.333 -22.667 30.166 -38.167 44.499 -46.5s30.833 -12.5 49.5 -12.5l-5 -49c-8 0 -15 0.666992 -21 2
c-40.667 5.33301 -74.667 29.666 -102 72.999c-23.333 -23.333 -50.5 -42.5 -81.5 -57.5s-63.833 -22.5 -98.5 -22.5z" />
    <glyph glyph-name="quotesingle" unicode="'" horiz-adv-x="237" 
d="M120 580l24 230h54l-50 -230h-28z" />
    <glyph glyph-name="parenleft" unicode="(" horiz-adv-x="266" 
d="M199 -147c-18 1.33301 -34.166 5.33496 -48.499 12.002s-26 17.167 -35 31.5s-16.5 28.666 -22.5 42.999s-10 34.166 -12 59.499s-3.5 47.833 -4.5 67.5s-0.166992 46.834 2.5 81.501s5 63.834 7 87.501s5.33301 56.167 10 97.5c4.66699 48 8.66699 85.667 12 113
s8 60.333 14 99s12 68.834 18 90.501s14.167 45.334 24.5 71.001s21.5 45.167 33.5 58.5s26.667 24.666 44 33.999s36.666 14.666 57.999 15.999l-4 -39c-16.667 -2 -31.5 -8 -44.5 -18s-24.333 -26.333 -34 -49s-17.667 -43.834 -24 -63.501s-12.333 -49.5 -18 -89.5
s-10 -72.5 -13 -97.5s-7.5 -63.5 -13.5 -115.5c0 -4 -0.333008 -7.33301 -1 -10c-14 -128.667 -21 -216.334 -21 -263.001c-0.666992 -86 13 -140.667 41 -164c10 -8 21.667 -13 35 -15z" />
    <glyph glyph-name="parenright" unicode=")" horiz-adv-x="254" 
d="M-6 -147l4.99707 38.001c40 5.33301 70.333 38.333 91 99c17.333 48.667 32.666 132.334 45.999 251.001c2 17.333 5 44.333 9 81c0.666992 5.33301 1 9.33301 1 12c13.333 128 20.333 214.333 21 259c1.33301 86.667 -11.667 142.334 -39 167.001
c-10 9.33301 -22 14.666 -36 15.999l4 39c18.667 -0.666992 35 -4.33398 49 -11.001s25.333 -16.834 34 -30.501s16.167 -27.667 22.5 -42s10.5 -34.166 12.5 -59.499s3.33301 -48 4 -68s-0.166016 -47.5 -2.49902 -82.5s-4.66602 -64.5 -6.99902 -88.5s-5.5 -57 -9.5 -99
c-4.66699 -47.333 -8.66699 -84.333 -12 -111s-8 -59.334 -14 -98.001s-12.167 -68.667 -18.5 -90s-14.5 -44.833 -24.5 -70.5s-21.167 -45.167 -33.5 -58.5s-27.166 -25 -44.499 -35s-36.666 -16 -57.999 -18z" />
    <glyph glyph-name="asterisk" unicode="*" horiz-adv-x="356" 
d="M131 492l-31 22l104 120l-123 52l17 35l119 -60l9 148h43l-23 -148l129 60l11 -35l-134 -52l79 -122l-36 -20l-69 128z" />
    <glyph glyph-name="plus" unicode="+" horiz-adv-x="363" 
d="M165 240l16 156h-138l4 40h139l16 152h41l-16 -152h140l-5 -40h-139l-16 -156h-42z" />
    <glyph glyph-name="comma" unicode="," horiz-adv-x="177" 
d="M37 -107l-12 23c18 12.667 30.5 24.667 37.5 36s11.5 27.333 13.5 48h-36l11 105h65l-10 -94c-3.33301 -30.667 -9.83301 -54.5 -19.5 -71.5s-26.167 -32.5 -49.5 -46.5z" />
    <glyph glyph-name="hyphen" unicode="-" horiz-adv-x="283" 
d="M51 319l5 44h206l-4 -44h-207z" />
    <glyph glyph-name="period" unicode="." horiz-adv-x="177" 
d="M45 0l11 104h60l-11 -104h-60z" />
    <glyph glyph-name="slash" unicode="/" horiz-adv-x="329" 
d="M0 0l324 810h47l-322 -810h-49z" />
    <glyph glyph-name="zero" unicode="0" horiz-adv-x="492" 
d="M224 -11c-36 0 -66 5.99902 -90 17.999s-41.5 28.5 -52.5 49.5s-18.333 46.167 -22 75.5s-3.16699 61.333 1.5 96l37 354c4 36.667 10.5 68.834 19.5 96.501s21.833 52.334 38.5 74.001s38 38.167 64 49.5s56.5 17 91.5 17s64.5 -5.83301 88.5 -17.5s41.667 -28 53 -49
s19 -46 23 -75s4 -60.833 0 -95.5l-38 -354c-4 -36.667 -10.333 -68.834 -19 -96.501s-21 -52.5 -37 -74.5s-37.333 -38.833 -64 -50.5s-58 -17.5 -94 -17.5zM229 29.999c48.667 0 84.832 16.498 108.499 49.498s38.5 79.5 44.5 139.5l39 371
c3.33301 27.333 3.83301 52.5 1.5 75.5s-7.33301 42.833 -15 59.5s-20 29.667 -37 39s-37.833 14 -62.5 14c-20 0 -38.167 -3 -54.5 -9s-30.166 -14.333 -41.499 -25s-21 -24 -29 -40s-14.333 -33.167 -19 -51.5s-8.33398 -39.166 -11.001 -62.499l-39 -371
c-3.33301 -27.333 -3.66602 -52.666 -0.999023 -75.999s8 -43.333 16 -60s20.333 -29.667 37 -39s37.667 -14 63 -14z" />
    <glyph glyph-name="one" unicode="1" horiz-adv-x="402" 
d="M188 0l77 737.001c-12.667 -15.333 -31.667 -29 -57 -41s-47.333 -20.667 -66 -26l5 46c19.333 5.33301 41.833 16.666 67.5 33.999s47.5 37.333 65.5 60h46l-85 -810h-53z" />
    <glyph glyph-name="two" unicode="2" horiz-adv-x="488" 
d="M33 0l4.99609 40.002l260 342c37.333 48 62.333 82.667 75 104c26.667 44.667 42.334 90.334 47.001 137.001c4.66699 47.333 -2.16602 84.333 -20.499 111s-47.5 40 -87.5 40c-28 0 -51.833 -4.33301 -71.5 -13s-35.334 -21.5 -47.001 -38.5s-20.667 -35.667 -27 -56
s-11.166 -44.833 -14.499 -73.5c0 -0.666992 -0.333008 -2.83398 -1 -6.50098s-1 -5.83398 -1 -6.50098h-52l2 16c8 75.333 29.333 131.333 64 168s85 55 151 55c57.333 0 99.5 -17.833 126.5 -53.5s37.167 -85.834 30.5 -150.501c-2 -18.667 -6 -37.5 -12 -56.5
s-12.5 -35.833 -19.5 -50.5s-16.667 -31.5 -29 -50.5s-22.666 -34.167 -30.999 -45.5s-20.166 -27 -35.499 -47l-246 -320h297l-5 -45h-358z" />
    <glyph glyph-name="three" unicode="3" horiz-adv-x="485" 
d="M216 -11c-112.667 0 -162.668 63.6709 -150.001 191.004l2 15h50l-0.5 -7.5c-0.333008 -5 -0.833008 -7.83301 -1.5 -8.5c-4.66699 -48.667 1.33301 -85.334 18 -110.001s45.667 -37 87 -37c20 0 37.833 2.83301 53.5 8.5s30.5 15.167 44.5 28.5s25.667 32.333 35 57
s15.666 54.334 18.999 89.001c12.667 122 -24.333 183.667 -111 185h-23l5 47h23c47.333 0 82.333 13.667 105 41s37.334 71.333 44.001 132c10.667 104 -24.666 156 -105.999 156c-44.667 0 -78.834 -11.333 -102.501 -34s-38.167 -60.334 -43.5 -113.001
c0 -0.666992 -0.166992 -2.66699 -0.5 -6s-0.5 -5.33301 -0.5 -6h-51l1 13c6 60 25 106.5 57 139.5s80 49.5 144 49.5c30 0 56 -5 78 -15s39 -24.167 51 -42.5s20.333 -39.333 25 -63s5.33398 -49.834 2.00098 -78.501c-6 -58.667 -21.333 -104.5 -46 -137.5
s-54.667 -53.167 -90 -60.5c10.667 -2.66699 20.834 -6.83398 30.501 -12.501s19.167 -13.834 28.5 -24.501s16.833 -23.667 22.5 -39s10 -33.833 13 -55.5s2.83301 -46.5 -0.5 -74.5c-7.33301 -70.667 -28.333 -126.167 -63 -166.5s-84.334 -60.5 -149.001 -60.5z" />
    <glyph glyph-name="four" unicode="4" horiz-adv-x="492" 
d="M123 298h194l45 434zM285 0l27 249h-250l5 51l294 510h62l-53 -512h93l-5 -49h-93l-27 -249h-53z" />
    <glyph glyph-name="five" unicode="5" horiz-adv-x="488" 
d="M229 -9c-59.333 0 -100.834 17.1689 -124.501 51.502s-31.5 86.166 -23.5 155.499h52c-6 -57.333 -1 -99.166 15 -125.499s45.667 -39.5 89 -39.5c46.667 0 81 16.667 103 50s36.667 88.333 44 165c4 34 5.5 63.5 4.5 88.5s-3.5 45.667 -7.5 62
s-10.833 29.666 -20.5 39.999s-20.5 17.5 -32.5 21.5s-26.667 6 -44 6c-46 0 -86.333 -22.667 -121 -68h-43l43 412h295l-7 -46h-247l-36 -315c32 39.333 77 59 135 59c55.333 0 93.833 -21.333 115.5 -64s27.834 -106.334 18.501 -191.001
c-9.33301 -90 -30.833 -156.167 -64.5 -198.5s-81.5 -63.5 -143.5 -63.5z" />
    <glyph glyph-name="six" unicode="6" horiz-adv-x="492" 
d="M236 34c22 0 40.998 2.83203 56.998 8.49902s30.667 15.334 44 29.001s24 32.667 32 57s14 54.5 18 90.5c6 50.667 7.33301 91.667 4 123s-13.666 53.666 -30.999 66.999s-45 20 -83 20c-22 0 -45.667 -4.5 -71 -13.5s-45.333 -18.167 -60 -27.5l-16 -151
c-5.33301 -52 -4.5 -93.167 2.5 -123.5s18.833 -51.166 35.5 -62.499s39.334 -17 68.001 -17zM230.998 -11.001c-62.667 0 -106.167 20.3311 -130.5 60.998s-32.166 102.667 -23.499 186l37 353c16 152.667 84 229.334 204 230.001c59.333 0 101.166 -14.833 125.499 -44.5
s33.5 -75.5 27.5 -137.5l-1 -9c-0.666992 -6 -1 -9.33301 -1 -10h-52c6 58 1.33301 98.667 -14 122s-44.333 35 -87 35c-18.667 0 -35.667 -2.83301 -51 -8.5s-29.833 -14.834 -43.5 -27.501s-25 -30.667 -34 -54s-15.5 -51.666 -19.5 -84.999l-18 -171
c18 11.333 39.833 21.333 65.5 30s51.5 13 77.5 13c66 0 110 -18 132 -54s27.667 -100 17 -192c-8 -77.333 -28.833 -136.166 -62.5 -176.499s-83.167 -60.5 -148.5 -60.5z" />
    <glyph glyph-name="seven" unicode="7" horiz-adv-x="461" 
d="M152 0l245 766h-262l5 44h317l-3 -27l-249 -783h-53z" />
    <glyph glyph-name="eight" unicode="8" horiz-adv-x="488" 
d="M271 447c45.333 2.66699 79.167 18.5 101.5 47.5s36.166 69.833 41.499 122.5c6 54 0 93.667 -18 119s-48.333 38 -91 38s-75.667 -12.667 -99 -38s-37.666 -65 -42.999 -119c-5.33301 -52.667 0.166992 -93.5 16.5 -122.5s46.833 -44.833 91.5 -47.5zM227.001 32
c42.667 0 76.832 14 102.499 42s41.5 74 47.5 138c6 57.333 0.5 101.833 -16.5 133.5s-48.5 50.167 -94.5 55.5c-47.333 -5.33301 -83 -23.833 -107 -55.5s-39 -76.167 -45 -133.5c-6.66699 -64 -0.166992 -110 19.5 -138s50.834 -42 93.501 -42zM222.999 -11
c-123.333 0 -177.341 74.002 -162.008 222.002c2 22 5.66699 42.333 11 61s10.833 34.5 16.5 47.5s12.834 25 21.501 36s16.5 19.667 23.5 26s15.833 12.666 26.5 18.999s19 10.666 25 12.999s14 5.83301 24 10.5c-36 11.333 -62.667 33.333 -80 66s-23.333 75.667 -18 129
c2.66699 29.333 8.33398 55.5 17.001 78.5s20.667 44 36 63s35.333 33.5 60 43.5s53.167 15 85.5 15s59.833 -5.16699 82.5 -15.5s39.667 -25 51 -44s18.833 -40.333 22.5 -64s3.83398 -50.167 0.500977 -79.5c-5.33301 -53.333 -20.166 -95.833 -44.499 -127.5
s-55.833 -53.167 -94.5 -64.5c6.66699 -2.66699 11.834 -5 15.501 -7s8.83398 -4.83301 15.501 -8.5s12 -7 16 -10s9 -7.16699 15 -12.5s10.833 -11 14.5 -17s7.66699 -12.833 12 -20.5s7.5 -16.167 9.5 -25.5s4 -19.5 6 -30.5s2.83301 -23.5 2.5 -37.5
s-1.16602 -28.667 -2.49902 -44c-15.333 -148 -84.666 -222 -207.999 -222z" />
    <glyph glyph-name="nine" unicode="9" horiz-adv-x="492" 
d="M267 379c49.333 0 92.666 13.667 129.999 41l16 151c5.33301 52 4.83301 93.167 -1.5 123.5s-17.666 51.166 -33.999 62.499s-39.166 17 -68.499 17c-44.667 0 -79.5 -14 -104.5 -42s-40.833 -75.667 -47.5 -143c-6 -50.667 -7.33301 -91.667 -4 -123
s13.666 -53.666 30.999 -66.999s45 -20 83 -20zM230 -11c-59.333 0 -102 15.001 -128 45.001s-35.667 76 -29 138l1 9l1 9h51c-6 -58.667 -1 -99.5 15 -122.5s47.667 -34.5 95 -34.5c19.333 0 36.333 2.66699 51 8s28.167 14.5 40.5 27.5s22.5 31.167 30.5 54.5
s13.667 51.666 17 84.999l18 171c-14 -11.333 -33.167 -21.333 -57.5 -30s-52.5 -13 -84.5 -13c-66 0 -110 18 -132 54s-28 100.333 -18 193c8 77.333 29.167 136 63.5 176s84.166 60 149.499 60c62.667 0 105.834 -20.333 129.501 -61s31.167 -102.667 22.5 -186l-37 -353
c-8 -74.667 -27.833 -131.667 -59.5 -171s-78.167 -59 -139.5 -59z" />
    <glyph glyph-name="colon" unicode=":" horiz-adv-x="191" 
d="M99 428l11 103h59l-11 -103h-59zM62 76l11 102h59l-11 -102h-59z" />
    <glyph glyph-name="semicolon" unicode=";" horiz-adv-x="203" 
d="M100 438l11 104h59l-11 -104h-59zM59 -17l-12.0029 23c18 11.333 30.333 22.333 37 33s11.334 26 14.001 46h-35l10 97h63l-9 -85c-3.33301 -31.333 -9.66602 -55.5 -18.999 -72.5s-25.666 -30.833 -48.999 -41.5z" />
    <glyph glyph-name="less" unicode="&#x3c;" horiz-adv-x="357" 
d="M288 77l-250 205l5 51l294 214l-6 -57l-249 -182l211 -175z" />
    <glyph glyph-name="equal" unicode="=" horiz-adv-x="391" 
d="M75 451l5 44h294l-5 -44h-294zM59 288l4 45h293l-4 -45h-293z" />
    <glyph glyph-name="greater" unicode="&#x3e;" horiz-adv-x="357" 
d="M44 77l6 56l249 183l-211 175l6 56l250 -206l-5 -51z" />
    <glyph glyph-name="question" unicode="?" horiz-adv-x="466" 
d="M158 0l8 73h52l-8 -73h-52zM181 200l13 122.997c70.667 44 122.5 88.5 155.5 133.5s52.5 95.5 58.5 151.5c2.66699 28 1.5 52.833 -3.5 74.5s-13.167 38.834 -24.5 51.501s-24.5 22.334 -39.5 29.001s-31.5 10 -49.5 10c-42 0 -75.667 -11.5 -101 -34.5
s-35.333 -55.167 -30 -96.5l4 -36l-48 -12l-5 37c-4 30 -1.83301 57.333 6.5 82s21.333 44.5 39 59.5s38.5 26.667 62.5 35s49.667 12.5 77 12.5c52.667 0 94.667 -18.333 126 -55s43.333 -89.334 36 -158.001c-4.66699 -42.667 -16 -81.667 -34 -117
s-41.833 -67.166 -71.5 -95.499s-67.5 -57.166 -113.5 -86.499l-11 -108h-47z" />
    <glyph glyph-name="at" unicode="@" horiz-adv-x="805" 
d="M377 166c24 0.666992 47.1699 11.168 69.5029 31.501s41.5 48.166 57.5 83.499l65 264c-16 12 -34.833 18 -56.5 18s-43.834 -6.16699 -66.501 -18.5s-43.834 -29.5 -63.501 -51.5s-36.667 -50.167 -51 -84.5s-23.5 -71.5 -27.5 -111.5
c-2.66699 -25.333 -2.5 -47 0.5 -65s8.33301 -31.667 16 -41s16.167 -16 25.5 -20s19.666 -5.66699 30.999 -5zM412.003 -98.999c-256 0 -369.001 143.667 -339.001 431c8 79.333 25.333 149.833 52 211.5s59.334 111.5 98.001 149.5s81.334 66.667 128.001 86
s96 29.333 148 30c117.333 0.666992 199.666 -33.333 246.999 -102s60.666 -172.334 39.999 -311.001c-6.66699 -42.667 -16.667 -80.5 -30 -113.5s-27.833 -58.667 -43.5 -77s-32.834 -33.5 -51.501 -45.5s-35.5 -19.833 -50.5 -23.5s-29.167 -5.5 -42.5 -5.5
c-22.667 0 -41.5 8.16699 -56.5 24.5s-19.833 39.166 -14.5 68.499c-14.667 -28 -33 -51.333 -55 -70s-46.667 -28.334 -74 -29.001c-40.667 -1.33301 -71.667 13 -93 43s-29.333 73.333 -24 130c4.66699 44.667 15.834 86.5 33.501 125.5s38.5 71.5 62.5 97.5
s50.333 46.5 79 61.5s57 22.5 85 22.5c27.333 0 51 -8.33301 71 -25l10 20h40l-81 -335c-3.33301 -16.667 -5.66602 -30 -6.99902 -40s-1.33301 -19.667 0 -29s5 -16.333 11 -21s15 -7 27 -7c10 0 20.167 1.83301 30.5 5.5s22.166 10.5 35.499 20.5s25.833 23 37.5 39
s22.5 37.833 32.5 65.5s17.667 59.167 23 94.5c6 41.333 9.16699 78.833 9.5 112.5s-2 63.334 -7 89.001s-12.833 48.334 -23.5 68.001s-23.334 36.167 -38.001 49.5s-31.834 24.166 -51.501 32.499s-40.667 14.333 -63 18s-46.833 5.16699 -73.5 4.5
c-46.667 -0.666992 -90.667 -10.667 -132 -30s-78.666 -46.833 -111.999 -82.5s-61.166 -81 -83.499 -136s-36.833 -116.833 -43.5 -185.5c-6.66699 -65.333 -5.5 -122.333 3.5 -171s22.667 -86.667 41 -114s42.5 -49.166 72.5 -65.499s58.833 -27.166 86.5 -32.499
s58.5 -8 92.5 -8c58.667 0 121.334 8.33301 188.001 25l10 -39c-84.667 -18 -153 -27 -205 -27z" />
    <glyph glyph-name="A" unicode="A" horiz-adv-x="468" 
d="M145 264h194l-48 480zM11 0l256 810h62l86 -810h-55l-18 224h-210l-67 -224h-54z" />
    <glyph glyph-name="B" unicode="B" horiz-adv-x="488" 
d="M156 455l136.002 -0.000976562c22 0 41 3.83301 57 11.5s28.833 18.834 38.5 33.501s17.167 30.667 22.5 48s9.33301 37.333 12 60c3.33301 22.667 3.66602 43.667 0.999023 63s-8.16699 36 -16.5 50s-22.333 25 -42 33s-44.834 12 -75.501 12h-100zM113.002 42.999
h130.001c26.667 0 49.167 3.66699 67.5 11s33.333 19.333 45 36s20.667 36.5 27 59.5s11.166 51.5 14.499 85.5c12 117.333 -24 176.333 -108 177h-137zM54.0029 -0.000976562l84.999 810.001h167c28.667 0 53.834 -3.5 75.501 -10.5s38.667 -16.667 51 -29
s22.166 -26.833 29.499 -43.5s11.333 -35 12 -55s0 -41.333 -2 -64c-2 -18 -5.16699 -35.333 -9.5 -52s-10.666 -33.5 -18.999 -50.5s-19.666 -31.667 -33.999 -44s-31.166 -20.5 -50.499 -24.5c17.333 -5.33301 32.5 -13.666 45.5 -24.999s22.667 -23.833 29 -37.5
s11.333 -28.667 15 -45s5.16699 -32.333 4.5 -48s-1.33398 -30.834 -2.00098 -45.501c-2.66699 -27.333 -6.33398 -51.333 -11.001 -72s-12 -41.834 -22 -63.501s-22.167 -39.5 -36.5 -53.5s-33 -25.333 -56 -34s-49.5 -13 -79.5 -13h-192z" />
    <glyph glyph-name="C" unicode="C" horiz-adv-x="488" 
d="M233 -11c-31.333 0 -58.333 4.16406 -81 12.4971s-40.334 19.833 -53.001 34.5s-22.5 32.334 -29.5 53.001s-10.667 43 -11 67s0.833984 49.667 3.50098 77l36 344c2.66699 29.333 7.16699 55.666 13.5 78.999s15.166 45.333 26.499 66s25 38 41 52s35.833 25 59.5 33
s50.834 12 81.501 12c34.667 0 63.667 -5.5 87 -16.5s40.666 -26.333 51.999 -46s19 -43.5 23 -71.5s3.66699 -59.333 -1 -94l-4 -41h-52l5 41c3.33301 28.667 4 54.334 2 77.001s-6.83301 42 -14.5 58s-20 28 -37 36s-38.5 12 -64.5 12c-28.667 0 -53 -4.33301 -73 -13
s-36 -22 -48 -40s-21.167 -37.833 -27.5 -59.5s-11.166 -47.834 -14.499 -78.501l-37 -358c-3.33301 -30 -4 -56.833 -2 -80.5s7.33301 -43.667 16 -60s22 -28.833 40 -37.5s40.667 -13 68 -13c26 0 48.333 4.33301 67 13s33.667 21.334 45 38.001s20 35.5 26 56.5
s10.667 46.5 14 76.5l5 49h52l-4 -40c-3.33301 -36.667 -9.33301 -68.667 -18 -96s-21 -52.166 -37 -74.499s-37 -39.166 -63 -50.499s-56.667 -17 -92 -17z" />
    <glyph glyph-name="D" unicode="D" horiz-adv-x="517" 
d="M54 0l84.999 809.999h177c31.333 0 58.833 -4 82.5 -12s42.334 -19 56.001 -33s24.667 -30.667 33 -50s12.833 -40.666 13.5 -63.999s0 -48 -2 -74l-35 -336c-4 -36.667 -10.667 -69 -20 -97s-22.833 -53.167 -40.5 -75.5s-40.5 -39.333 -68.5 -51s-61 -17.5 -99 -17.5
h-182zM112.999 42.999l125.003 -0.00195312c21.333 0 40.5 2.33301 57.5 7s31.333 11.834 43 21.501s21.667 20.334 30 32.001s15.166 25.667 20.499 42s9.5 32.333 12.5 48s5.83301 33.5 8.5 53.5l34 326c4 29.333 4.66699 56 2 80s-8.33398 44.333 -17.001 61
s-22.834 29.5 -42.501 38.5s-44.5 13.5 -74.5 13.5h-123z" />
    <glyph glyph-name="E" unicode="E" horiz-adv-x="392" 
d="M53 0l85 810h280l-4 -44h-226l-34 -325h185l-4 -42h-185l-37 -356h228l-5 -43h-283z" />
    <glyph glyph-name="F" unicode="F" horiz-adv-x="382" 
d="M54 0l85 810h279l-4 -43h-225l-34 -326h194l-5 -42h-193l-43 -399h-54z" />
    <glyph glyph-name="G" unicode="G" horiz-adv-x="510" 
d="M230 -11c-37.333 0 -68.3271 6.00098 -92.9941 18.001s-42.834 29 -54.501 51s-19.334 48.167 -23.001 78.5s-2.83398 63.166 2.49902 98.499l36 344c4 38 10.5 70.667 19.5 98s21.833 52.166 38.5 74.499s38.667 39.166 66 50.499s60 17 98 17
c67.333 0 113.333 -19.667 138 -59s32.667 -96.666 24 -171.999l-3 -28h-51l4 31c6.66699 62.667 1.66699 108.834 -15 138.501s-50.334 44.5 -101.001 44.5c-23.333 0 -43.833 -3.16699 -61.5 -9.5s-32.334 -14.833 -44.001 -25.5s-21.5 -24.5 -29.5 -41.5
s-14 -34.667 -18 -53s-7.33301 -39.5 -10 -63.5l-37 -353c-4 -29.333 -4.83301 -56 -2.5 -80s7.66602 -44.333 15.999 -61s21.5 -29.667 39.5 -39s41.333 -14 70 -14c50.667 0 87.667 15.833 111 47.5s38.333 79.5 45 143.5l12 119h-128l4 42h180l-40 -386h-36l2 91
c-28.667 -68 -81.667 -102 -159 -102z" />
    <glyph glyph-name="H" unicode="H" horiz-adv-x="541" 
d="M53 0l85 810h55l-38 -365h283l39 365h54l-85 -810h-54l42 403h-283l-43 -403h-55z" />
    <glyph glyph-name="I" unicode="I" horiz-adv-x="206" 
d="M55 0l85 810h54l-85 -810h-54z" />
    <glyph glyph-name="J" unicode="J" horiz-adv-x="265" 
d="M-18 -45l4.99609 43c20.667 0 37.667 0.5 51 1.5s25.333 4 36 9s18.834 10.5 24.501 16.5s10.834 15.5 15.501 28.5s7.83398 26.333 9.50098 40s3.83398 32.5 6.50098 56.5l70 660h54l-69 -666c-3.33301 -28 -7 -51.333 -11 -70s-9.83301 -36.167 -17.5 -52.5
s-17.667 -29 -30 -38s-28 -16 -47 -21s-41.833 -7.5 -68.5 -7.5h-29z" />
    <glyph glyph-name="K" unicode="K" horiz-adv-x="459" 
d="M53 0l85 810h55l-47 -455l282 455h54l-207 -343l163 -467h-54l-152 434l-93 -144l-31 -290h-55z" />
    <glyph glyph-name="L" unicode="L" horiz-adv-x="373" 
d="M54 0l85 810h54l-80 -767h244l-4 -43h-299z" />
    <glyph glyph-name="M" unicode="M" horiz-adv-x="631" 
d="M44 0l109 810h54l95 -731l250 731h56l-62 -810h-47l52 679l-237 -679h-40l-91 678l-92 -678h-47z" />
    <glyph glyph-name="N" unicode="N" horiz-adv-x="515" 
d="M54 0l85 810h44l202 -684l72 684h48l-85 -810h-43l-203 685l-72 -685h-48z" />
    <glyph glyph-name="O" unicode="O" horiz-adv-x="515" 
d="M236 -11c-30.667 0 -57.3291 4.00195 -79.9961 12.002s-40.667 19.167 -54 33.5s-23.666 31.5 -30.999 51.5s-11.333 42 -12 66s0 50 2 78l38 354c3.33301 36 9.66602 67.667 18.999 95s22.666 51.833 39.999 73.5s39.833 38.167 67.5 49.5s60.167 17 97.5 17
s68.666 -5.83301 93.999 -17.5s44.166 -27.834 56.499 -48.501s20.666 -45.5 24.999 -74.5s4.5 -60.5 0.5 -94.5l-38 -355c-4 -36.667 -10.5 -68.834 -19.5 -96.501s-22 -52.667 -39 -75s-39.5 -39.333 -67.5 -51s-61 -17.5 -99 -17.5zM240.505 34.002
c28.333 0 52.666 4.33398 72.999 13.001s36.5 21.5 48.5 38.5s21.333 36.167 28 57.5s11.667 46.333 15 75l39 374c3.33301 27.333 3.83301 52.166 1.5 74.499s-7.66602 41.5 -15.999 57.5s-21.833 28.333 -40.5 37s-42.167 13 -70.5 13s-52.666 -4.16699 -72.999 -12.5
s-36.5 -20.833 -48.5 -37.5s-21.333 -35.5 -28 -56.5s-11.667 -46.167 -15 -75.5l-39 -374c-3.33301 -27.333 -3.83301 -52.333 -1.5 -75s7.66602 -42 15.999 -58s21.833 -28.5 40.5 -37.5s42.167 -13.5 70.5 -13.5z" />
    <glyph glyph-name="P" unicode="P" horiz-adv-x="485" 
d="M154 429h123.997c50 0 87.833 13.167 113.5 39.5s41.834 70.5 48.501 132.5c6.66699 64 0.833984 107.833 -17.499 131.5s-54.166 35.5 -107.499 35.5h-126zM53.9971 0l85.001 809.997h190c35.333 0 65 -5.16699 89 -15.5s42 -25.166 54 -44.499
s19.667 -41.166 23 -65.499s3.66602 -52.166 0.999023 -83.499c-2.66699 -28.667 -8.5 -55.167 -17.5 -79.5s-21.5 -47 -37.5 -68s-37.167 -37.333 -63.5 -49s-56.833 -17.5 -91.5 -17.5h-137l-41 -387h-54z" />
    <glyph glyph-name="Q" unicode="Q" horiz-adv-x="523" 
d="M244.5 34c28.333 0 52.833 4.33398 73.5 13.001s37.334 21.5 50.001 38.5s22.5 36.167 29.5 57.5s11.833 46.333 14.5 75l39 374c3.33301 27.333 3.66602 52.166 0.999023 74.499s-8.5 41.5 -17.5 57.5s-22.833 28.333 -41.5 37s-42.334 13 -71.001 13
c-55.333 0 -95.5 -15.5 -120.5 -46.5s-40.833 -76.167 -47.5 -135.5l-39 -374c-3.33301 -27.333 -3.66602 -52.333 -0.999023 -75s8.5 -42 17.5 -58s23 -28.5 42 -37.5s42.667 -13.5 71 -13.5zM390 -154.999c-16.667 14 -36.9941 35.001 -60.9941 63.001s-44 55.333 -60 82
c-12.667 -0.666992 -22.667 -1 -30 -1c-30.667 0 -57.334 4 -80.001 12s-40.834 19.167 -54.501 33.5s-24.334 31.5 -32.001 51.5s-12 42 -13 66s-0.5 50 1.5 78l38 354c3.33301 36 10 67.833 20 95.5s23.833 52.167 41.5 73.5s40.5 37.666 68.5 48.999s60.667 17 98 17
s68.666 -5.66699 93.999 -17s44.666 -27.833 57.999 -49.5s22 -46.167 26 -73.5s4.33301 -59 1 -95l-38 -355c-4 -40.667 -11.333 -75.667 -22 -105s-27.334 -55.5 -50.001 -78.5s-50.667 -38.5 -84 -46.5c10.667 -16 28 -37.667 52 -65s43 -47.333 57 -60z" />
    <glyph glyph-name="R" unicode="R" horiz-adv-x="508" 
d="M156 450h138.998c25.333 0 46.833 3.5 64.5 10.5s31.834 17.833 42.501 32.5s18.834 31.167 24.501 49.5s9.83398 40.833 12.501 67.5c5.33301 54.667 0.166016 94.5 -15.501 119.5s-47.5 37.5 -95.5 37.5h-139zM53.998 0l84.999 809.999h196
c28 0 52.167 -3.33301 72.5 -10s36.5 -16.167 48.5 -28.5s21.333 -26.666 28 -42.999s10.334 -34.5 11.001 -54.5s0 -41.333 -2 -64c-2 -19.333 -4.83301 -37.166 -8.5 -53.499s-9.16699 -32.5 -16.5 -48.5s-16 -29.833 -26 -41.5s-22.5 -21.834 -37.5 -30.501
s-32.167 -14.667 -51.5 -18l86 -418h-54l-83 408h-151l-43 -408h-54z" />
    <glyph glyph-name="S" unicode="S" horiz-adv-x="452" 
d="M215 -10c-119.333 0 -177.001 69.999 -173.001 209.999l49 15c0.666992 -23.333 2.16699 -43.5 4.5 -60.5s6.33301 -33.333 12 -49s13.334 -28.5 23.001 -38.5s22 -17.833 37 -23.5s32.833 -8.5 53.5 -8.5c86.667 0 134.334 43.333 143.001 130
c3.33301 32.667 -1.83398 62.667 -15.501 90s-37.167 59.666 -70.5 96.999l-132 147c-42 46.667 -60.333 98 -55 154c6 52.667 26.5 93.334 61.5 122.001s79.5 43.334 133.5 44.001c58.667 0 102 -15.5 130 -46.5s40.333 -83.167 37 -156.5l-47 -11
c1.33301 59.333 -7.16699 102.666 -25.5 129.999s-50.833 40.666 -97.5 39.999c-40 -0.666992 -72.667 -10.667 -98 -30s-40 -48.666 -44 -87.999c-4.66699 -41.333 11 -82.333 47 -123l131 -144c33.333 -37.333 58.666 -73.666 75.999 -108.999s24.333 -73 21 -113
c-6 -58.667 -27.167 -103 -63.5 -133s-82.166 -45 -137.499 -45z" />
    <glyph glyph-name="T" unicode="T" horiz-adv-x="380" 
d="M144 0l80 766h-171l5 44h394l-5 -44h-168l-80 -766h-55z" />
    <glyph glyph-name="U" unicode="U" horiz-adv-x="533" 
d="M245 -11c-30.667 0 -57.5029 3.33398 -80.5029 10.001s-41.333 16 -55 28s-24.5 26.333 -32.5 43s-12.5 35 -13.5 55s-0.5 41.667 1.5 65l65 620h53l-65 -621c-1.33301 -18 -1.66602 -34.833 -0.999023 -50.5s3.83398 -29.834 9.50098 -42.501s13.5 -23.667 23.5 -33
s23.333 -16.5 40 -21.5s36.667 -7.5 60 -7.5c98.667 0 153.334 51.667 164.001 155l65 621h53l-65 -620c-14 -134 -88 -201 -222 -201z" />
    <glyph glyph-name="V" unicode="V" horiz-adv-x="480" 
d="M199 0l-110 810h53l92 -715l233 715h53l-270 -810h-51z" />
    <glyph glyph-name="W" unicode="W" horiz-adv-x="706" 
d="M154 0l-56 809l48 1l45 -703l202 685h53l61 -685l182 703h48l-217 -810h-46l-63 709l-210 -709h-47z" />
    <glyph glyph-name="X" unicode="X" horiz-adv-x="452" 
d="M-6 0l223 421l-137 389h50l123 -346l191 346h55l-228 -398l146 -412h-53l-128 364l-188 -364h-54z" />
    <glyph glyph-name="Y" unicode="Y" horiz-adv-x="461" 
d="M186 0l27 259l-129 551h56l108 -486l202 486h56l-238 -551l-28 -259h-54z" />
    <glyph glyph-name="Y" unicode="&#x4ae;" horiz-adv-x="461" 
d="M186 0l27 259l-129 551h56l108 -486l202 486h56l-238 -551l-28 -259h-54z" />
    <glyph glyph-name="Z" unicode="Z" horiz-adv-x="401" 
d="M10 0l5 43l367 724h-265l5 43h323l-3 -34l-372 -733h296l-5 -43h-351z" />
    <glyph glyph-name="bracketleft" unicode="[" horiz-adv-x="278" 
d="M38 -145l100 955h148l-4 -33h-93l-94 -889h94l-3 -33h-148z" />
    <glyph glyph-name="backslash" unicode="\" horiz-adv-x="329" 
d="M238 0l-153 810h48l153 -810h-48z" />
    <glyph glyph-name="bracketright" unicode="]" horiz-adv-x="270" 
d="M13 -144l3 32h94l93 889h-94l4 33h147l-100 -954h-147z" />
    <glyph glyph-name="asciicircum" unicode="^" horiz-adv-x="365" 
d="M60 525l158 285h58l98 -285h-45l-85 251l-139 -251h-45z" />
    <glyph glyph-name="underscore" unicode="_" horiz-adv-x="325" 
d="M-30 -90l5 44h324l-4 -44h-325z" />
    <glyph glyph-name="grave" unicode="`" horiz-adv-x="209" 
d="M175 616l-60 194h53l35 -194h-28z" />
    <glyph glyph-name="a" unicode="a" 
d="M150 35c23.333 0 44.833 7.66602 64.5 22.999s36.5 34.666 50.5 57.999l20 190c-69.333 -34.667 -113.333 -57.667 -132 -69c-29.333 -19.333 -48.666 -40.333 -57.999 -63c-6 -13.333 -10 -29.666 -12 -48.999c-3.33301 -31.333 1.66699 -54.166 15 -68.499
s30.666 -21.5 51.999 -21.5zM132 -9.00098c-34.667 0 -61.332 11.668 -79.999 35.001s-26.334 53.666 -23.001 90.999c2.66699 26 7.83398 47.5 15.501 64.5s21.667 34.333 42 52s45.666 34.667 75.999 51s72.833 36.5 127.5 60.5l4 41
c5.33301 41.333 6.16602 74 2.49902 98s-10.5 40.5 -20.5 49.5s-25.333 13.5 -46 13.5c-12.667 0 -24 -1.5 -34 -4.5s-20.167 -8.16699 -30.5 -15.5s-18.833 -18.5 -25.5 -33.5s-11 -33.5 -13 -55.5l-2 -16l-51 1c0 0.666992 0.166992 3.33398 0.5 8.00098l0.5 7
c7.33301 52.667 24.333 90.667 51 114s63.667 35 111 35c48 0 80.167 -15 96.5 -45s20.833 -80 13.5 -150l-31 -291c-5.33301 -56.667 -7.66602 -90.334 -6.99902 -101.001h-45c0 43.333 -0.333008 69 -1 77c-12.667 -25.333 -30.667 -46 -54 -62s-49 -24 -77 -24z" />
    <glyph glyph-name="b" unicode="b" horiz-adv-x="397" 
d="M192 32c34.667 0 59.834 15.501 75.501 46.501s27.5 83.5 35.5 157.5l11 113c5.33301 45.333 7.16602 82.666 5.49902 111.999s-8.16699 50.833 -19.5 64.5s-29 20.5 -53 20.5c-34 0 -69.333 -18 -106 -54l-43 -408c24.667 -34.667 56 -52 94 -52zM194 -8.99902
c-40.667 0 -73.666 19 -98.999 57l-6 -48h-53l85 810h53l-29 -281c34 38.667 73 58 117 58c34 0 60 -9.83301 78 -29.5s28.167 -47.167 30.5 -82.5s1.16602 -77.333 -3.50098 -126l-12 -111c-8.66699 -84.667 -25.167 -147 -49.5 -187s-61.5 -60 -111.5 -60z" />
    <glyph glyph-name="c" unicode="c" horiz-adv-x="375" 
d="M170 -9c-18 0 -34.002 2.00195 -48.002 6.00195s-25.667 9.5 -35 16.5s-17.166 16 -23.499 27s-11 22.5 -14 34.5s-5 26.167 -6 42.5s-1 32.166 0 47.499s2.5 32.666 4.5 51.999l14 136c8.66699 86.667 25.334 147.334 50.001 182.001s65 52 121 52
c28.667 0 52.334 -4.66699 71.001 -14s31.667 -22.5 39 -39.5s12 -36.833 14 -59.5s1 -47.334 -3 -74.001l-2 -23h-50l2 23c4.66699 38 4.66699 68 0 90s-12.834 37 -24.501 45s-28.5 12 -50.5 12c-16 0 -29.667 -2.16699 -41 -6.5s-21 -10.833 -29 -19.5
s-14.667 -21 -20 -37s-9.66602 -33.5 -12.999 -52.5s-6.66602 -43.167 -9.99902 -72.5l-16 -150c-6.66699 -66 -5 -112.167 5 -138.5s33.333 -39.5 70 -39.5c37.333 0 63 11.833 77 35.5s24.333 66.167 31 127.5l2 22h50l-2 -21c-2.66699 -26 -5.83398 -48 -9.50098 -66
s-9.33398 -36.5 -17.001 -55.5s-17 -34 -28 -45s-25.667 -20 -44 -27s-39.833 -10.5 -64.5 -10.5z" />
    <glyph glyph-name="d" unicode="d" horiz-adv-x="394" 
d="M172 32c34 0 67.333 16.332 100 48.999l43 414c-28 34 -58.333 51 -91 51c-35.333 0 -60.5 -14.333 -75.5 -43s-26.167 -78.667 -33.5 -150l-12 -120c-7.33301 -73.333 -6.5 -125.166 2.5 -155.499s31.167 -45.5 66.5 -45.5zM160 -9.00098
c-49.333 0 -82.332 18.832 -98.999 56.499s-20.334 100.834 -11.001 189.501l11 103c9.33301 86 25.5 148.667 48.5 188s59.833 59 110.5 59c40.667 0 73.667 -17.667 99 -53l30 276h52l-85 -810h-52l4 44c-33.333 -35.333 -69.333 -53 -108 -53z" />
    <glyph glyph-name="e" unicode="e" 
d="M113 334h185.002l5 45c3.33301 34.667 4.66602 64.5 3.99902 89.5s-7 44.333 -19 58s-31 20.5 -57 20.5c-23.333 0 -42 -4.33301 -56 -13s-25.833 -25.5 -35.5 -50.5s-16.834 -60.167 -21.501 -105.5zM171.002 -9c-16 0 -29.999 1.33496 -41.999 4.00195
s-23.5 7.33398 -34.5 14.001s-19.833 15.5 -26.5 26.5s-12.334 24.833 -17.001 41.5s-7 36.167 -7 58.5s1 48.5 3 78.5l16 154c4 35.333 9.66699 66.166 17 92.499s16 47.5 26 63.5s21.833 28.833 35.5 38.5s27.834 16.167 42.501 19.5s31.667 5 51 5
c53.333 0 88.5 -17.333 105.5 -52s21.167 -94 12.5 -178l-7 -55h-236l-10 -92c-5.33301 -45.333 -5.83301 -81.333 -1.5 -108s12.5 -45.167 24.5 -55.5s29.333 -15.5 52 -15.5c10 0 18.667 0.666992 26 2s15.666 4.33301 24.999 9s17.333 11.167 24 19.5
s12.667 20.166 18 35.499s9 33.666 11 54.999l5 43h52l-4 -38c-5.33301 -53.333 -20.5 -94.333 -45.5 -123s-63.5 -43 -115.5 -43z" />
    <glyph glyph-name="f" unicode="f" horiz-adv-x="256" 
d="M74 0l56.999 541h-78l4 37h78l8 78c2 17.333 4 31.5 6 42.5s5.5 22.667 10.5 35s11 22 18 29s16.833 12.833 29.5 17.5s27.334 7 44.001 7c18.667 0 36 -2.33301 52 -7l-4 -40c-20 4 -34 6 -42 6c-21.333 0 -36 -6.33301 -44 -19s-13.667 -36 -17 -70l-8 -79h96l-3 -37
h-97l-57 -541h-53z" />
    <glyph glyph-name="g" unicode="g" horiz-adv-x="428" 
d="M209 223c74 0 116.668 55.001 128.001 165.001c0.666992 12.667 1.16699 26 1.5 40s-1.5 28.167 -5.5 42.5s-9.16699 27.333 -15.5 39s-16 21 -29 28s-28.333 10.5 -46 10.5s-33.834 -3.83301 -48.501 -11.5s-26.5 -17.334 -35.5 -29.001s-16.833 -25 -23.5 -40
s-11.667 -29 -15 -42s-5.66602 -25.5 -6.99902 -37.5s-2 -23.333 -2 -34s0.666992 -22.667 2 -36s4.16602 -25.333 8.49902 -36s10 -20.667 17 -30s16.5 -16.5 28.5 -21.5s26 -7.5 42 -7.5zM165.001 -152.999c42 0 76.832 7.00098 104.499 21.001s42.834 35 45.501 63
c1.33301 15.333 -0.5 27.833 -5.5 37.5s-16.333 19 -34 28s-43.5 17.167 -77.5 24.5l-63 11c-65.333 -35.333 -99.666 -73 -102.999 -113c-2.66699 -24.667 7.16602 -42.834 29.499 -54.501s56.833 -17.5 103.5 -17.5zM161 -195.998
c-61.333 0 -107.002 8.49805 -137.002 25.498s-43.333 42.5 -40 76.5c2.66699 27.333 15.5 53 38.5 77s49.5 43.333 79.5 58c-17.333 4.66699 -32.833 10.834 -46.5 18.501s-19.834 15.834 -18.501 24.501c2.66699 28.667 30.667 70.334 84 125.001
c-46.667 36 -65.667 95.667 -57 179c2.66699 24.667 8.33398 48.5 17.001 71.5s20.334 44.167 35.001 63.5s33.167 34.833 55.5 46.5s47.166 17.5 74.499 17.5c57.333 0 97.333 -25.667 120 -77c8.66699 13.333 20.834 26.333 36.501 39s31.834 22.334 48.501 29.001l14 5
l12 -40c-18 -4 -36.333 -11.5 -55 -22.5s-33.667 -22.833 -45 -35.5c3.33301 -12.667 6 -29.167 8 -49.5s2 -36.5 0 -48.5c-6 -61.333 -24 -110.5 -54 -147.5s-72 -55.5 -126 -55.5c-24 0 -44 3.33301 -60 10c-2.66699 -4 -8.33398 -11.333 -17.001 -22
s-15.5 -19.5 -20.5 -26.5s-10.167 -14.833 -15.5 -23.5s-8.33301 -15.667 -9 -21c0 -3.33301 4 -6.83301 12 -10.5s19.333 -6.83398 34 -9.50098c10 -2.66699 26.667 -6.33398 50 -11.001s37.666 -7.66699 42.999 -9c48.667 -10.667 84.667 -26 108 -46s33 -47.667 29 -83
c-2 -22 -8.83301 -41.333 -20.5 -58s-26.667 -30 -45 -40s-38.666 -17.5 -60.999 -22.5s-46.166 -7.5 -71.499 -7.5z" />
    <glyph glyph-name="h" unicode="h" horiz-adv-x="391" 
d="M37 0l85.001 810h53l-31 -293c45.333 47.333 93.666 70.666 144.999 69.999c28 0 49 -10.167 63 -30.5s18.667 -52.166 14 -95.499l-48 -461h-54l48 455c3.33301 33.333 0.666016 56.833 -8.00098 70.5s-23 20.5 -43 20.5c-37.333 0 -77.666 -21.333 -120.999 -64
l-50 -482h-53z" />
    <glyph glyph-name="i" unicode="i" horiz-adv-x="189" 
d="M117 678l9 93h54l-10 -93h-53zM45 0l60 578h53l-60 -578h-53z" />
    <glyph glyph-name="j" unicode="j" horiz-adv-x="202" 
d="M130 678l9 93h54l-10 -93h-53zM-52 -153l3.99805 43c2.66699 -0.666992 10.334 -1 23.001 -1c16.667 0 30.5 2.16699 41.5 6.5s19.167 11.333 24.5 21s9 18.5 11 26.5s3.66699 18.667 5 32l64 603h53l-64 -606c-4.66699 -44.667 -18.167 -77 -40.5 -97
s-53.166 -30 -92.499 -30c-16 0 -25.667 0.666992 -29 2z" />
    <glyph glyph-name="k" unicode="k" horiz-adv-x="383" 
d="M36 0l86 810h52l-55 -534l246 302h57l-175 -221l106 -357h-54l-95 325l-92 -108l-23 -217h-53z" />
    <glyph glyph-name="l" unicode="l" horiz-adv-x="185" 
d="M46 0l85 810h54l-85 -810h-54z" />
    <glyph glyph-name="m" unicode="m" horiz-adv-x="619" 
d="M36 0l60.001 578.002h53l-5 -61c44.667 47.333 92.667 70.666 144 69.999c46.667 0 72.667 -25.333 78 -76c46.667 51.333 96.667 76.666 150 75.999c28 0 49.167 -10.167 63.5 -30.5s19.166 -52.166 14.499 -95.499l-49 -461h-53l48 455
c3.33301 33.333 0.5 56.833 -8.5 70.5s-23.5 20.5 -43.5 20.5c-37.333 0 -78 -21.667 -122 -65c0 -4.66699 -0.333008 -12.334 -1 -23.001l-48 -458h-53l48 455c3.33301 33.333 0.5 56.833 -8.5 70.5s-23.5 20.5 -43.5 20.5c-37.333 0 -77.333 -21.333 -120 -64l-51 -482
h-53z" />
    <glyph glyph-name="n" unicode="n" horiz-adv-x="391" 
d="M36 0l60.002 577.999h53l-6 -62c45.333 47.333 93.666 71 144.999 71c28 0 49.167 -10.167 63.5 -30.5s19.166 -52.166 14.499 -95.499l-49 -461h-53l48 455c3.33301 33.333 0.666016 56.833 -8.00098 70.5s-23 20.5 -43 20.5c-37.333 0 -77.666 -21.333 -120.999 -64
l-51 -482h-53z" />
    <glyph glyph-name="o" unicode="o" horiz-adv-x="382" 
d="M169 -9c-38 0 -66.833 8.33203 -86.5 24.999s-31.667 41.167 -36 73.5s-4.16602 72.833 0.500977 121.5l17 156c4 38 9.5 69.833 16.5 95.5s17 48.334 30 68.001s29.5 34 49.5 43s44 13.5 72 13.5c38 0 67 -8.16699 87 -24.5s32.167 -41 36.5 -74
s4.16602 -73.5 -0.500977 -121.5l-17 -156c-8 -76.667 -24.333 -132.5 -49 -167.5s-64.667 -52.5 -120 -52.5zM174 30.999c16.667 0 30.8311 2.66602 42.498 7.99902s21.334 12.5 29.001 21.5s14.167 21.667 19.5 38s9.33301 32.5 12 48.5s5.33398 36.667 8.00098 62l17 160
c3.33301 37.333 4.83301 69.166 4.5 95.499s-6.66602 46.666 -18.999 60.999s-32.166 21.5 -59.499 21.5c-16.667 0 -31 -2.66699 -43 -8s-21.667 -12.666 -29 -21.999s-13.666 -22 -18.999 -38s-9.33301 -32.167 -12 -48.5s-5.33398 -36.833 -8.00098 -61.5l-17 -160
c-3.33301 -37.333 -4.83301 -69.166 -4.5 -95.499s6.66602 -46.666 18.999 -60.999s32.166 -21.5 59.499 -21.5z" />
    <glyph glyph-name="p" unicode="p" horiz-adv-x="399" 
d="M192 32c34.667 0 59.832 15.501 75.499 46.501s27.5 83.5 35.5 157.5l11 113c5.33301 45.333 7.33301 82.666 6 111.999s-7.66602 50.833 -18.999 64.5s-29.333 20.5 -54 20.5c-34.667 0 -69.667 -18 -105 -54l-43 -408c24.667 -34.667 55.667 -52 93 -52z
M16.998 -189.999l79.998 768.001h53l-4 -49c33.333 39.333 72 58.666 116 57.999c34.667 0 60.834 -9.83301 78.501 -29.5s27.834 -47.167 30.501 -82.5s1.66699 -77.333 -3 -126l-12 -111c-8.66699 -84.667 -25.167 -147 -49.5 -187s-61.833 -60 -112.5 -60
c-40 0 -73 19 -99 57l-25 -238h-53z" />
    <glyph glyph-name="q" unicode="q" horiz-adv-x="396" 
d="M175 32c34.667 0 68.001 16.666 100.001 49.999l43 413c-29.333 34 -60 51 -92 51c-35.333 0 -60.333 -14.333 -75 -43s-25.667 -78.667 -33 -150l-13 -120c-7.33301 -73.333 -6.33301 -125.166 3 -155.499s31.666 -45.5 66.999 -45.5zM246.001 -190.001l25.001 233.999
c-34 -36 -70 -53.667 -108 -53c-49.333 0 -82.333 18.833 -99 56.5s-20.334 100.834 -11.001 189.501l10 103c9.33301 86 25.5 148.667 48.5 188s60.167 59 111.5 59c40 0 73 -17.667 99 -53l5 44h53l-81 -768h-53z" />
    <glyph glyph-name="r" unicode="r" horiz-adv-x="283" 
d="M43 0l61 578.001h53l-8 -78c18.667 27.333 41.5 48.166 68.5 62.499s52.5 21.5 76.5 21.5l4.5 -0.5c3 -0.333008 4.83301 -0.5 5.5 -0.5l-6 -55c-5.33301 2 -12.333 3 -21 3c-54.667 0 -98.667 -24.667 -132 -74l-48 -457h-54z" />
    <glyph glyph-name="s" unicode="s" horiz-adv-x="356" 
d="M166 -9c-45.333 0 -79.832 14.668 -103.499 44.001s-34.5 69.666 -32.5 120.999l46 13c-1.33301 -47.333 6.16699 -82.166 22.5 -104.499s40.833 -33.5 73.5 -33.5c28.667 0 52.167 8.16699 70.5 24.5s28.833 39.5 31.5 69.5c4 43.333 -19.333 88.333 -70 135l-61 57
c-27.333 25.333 -46.333 49 -57 71s-14.334 47.333 -11.001 76c4.66699 39.333 19.834 69.666 45.501 90.999s58.5 32 98.5 32c41.333 0 71.666 -13.333 90.999 -40s27.333 -63.667 24 -111l-41 -12c6 82.667 -19.333 123.667 -76 123c-26 0 -47.333 -6.66699 -64 -20
s-26.334 -32.333 -29.001 -57c-2 -22 0.333008 -40.833 7 -56.5s20.334 -33.5 41.001 -53.5l62 -61c14.667 -14 26.5 -25.833 35.5 -35.5s18.333 -22 28 -37s16.5 -31 20.5 -48s5 -35.167 3 -54.5c-4 -41.333 -20 -73.833 -48 -97.5s-63.667 -35.5 -107 -35.5z" />
    <glyph glyph-name="t" unicode="t" horiz-adv-x="262" 
d="M162 -6c-19.333 0 -35.001 2.99902 -47.001 8.99902s-20.333 14.5 -25 25.5s-7.66699 23.833 -9 38.5s-0.666016 30.334 2.00098 47.001l45 429h-76l4 35h75l20 185h53l-19 -185h98l-4 -35h-98l-45 -422c-3.33301 -32.667 -2.33301 -55 3 -67s18.333 -18 39 -18
c10.667 0 25 1.66699 43 5l-4 -41c-16.667 -4 -35 -6 -55 -6z" />
    <glyph glyph-name="u" unicode="u" horiz-adv-x="394" 
d="M121 -9c-28 0 -48.999 10.168 -62.999 30.501s-19 52.166 -15 95.499l48 461h54l-48 -455c-3.33301 -33.333 -0.5 -56.833 8.5 -70.5s23.167 -20.5 42.5 -20.5s40.166 6.33301 62.499 19s43.5 29.667 63.5 51l50 476h53l-60 -578h-53l7 68c-46 -51.333 -96 -77 -150 -77z
" />
    <glyph glyph-name="v" unicode="v" horiz-adv-x="356" 
d="M131 0l-72 578h54l54 -511l159 511h52l-188 -578h-59z" />
    <glyph glyph-name="w" unicode="w" horiz-adv-x="566" 
d="M107 0l-34 578h47l26 -517l153 517h51l47 -515l129 515h47l-153 -578h-55l-47 507l-151 -507h-60z" />
    <glyph glyph-name="x" unicode="x" horiz-adv-x="374" 
d="M0 0l172 301l-103 277h54l85 -229l130 229h55l-166 -282l107 -296h-50l-92 246l-140 -246h-52z" />
    <glyph glyph-name="y" unicode="y" horiz-adv-x="374" 
d="M1 -144l4.99902 43c22.667 0 41.834 1.16699 57.501 3.5s28.167 5.5 37.5 9.5s16.833 9.5 22.5 16.5s9.5 14.167 11.5 21.5s3 17 3 29c0 10 -2.66699 36.667 -8 80l-67 519h53l59 -528l165 528h53l-207 -625c-12 -34 -30.5 -58.667 -55.5 -74s-60.833 -23 -107.5 -23h-22
z" />
    <glyph glyph-name="z" unicode="z" horiz-adv-x="325" 
d="M12 0l4 39l261 498h-187l4 41h241l-3 -35l-260 -502h203l-4 -41h-259z" />
    <glyph glyph-name="braceleft" unicode="{" horiz-adv-x="231" 
d="M178 -149c-12.667 0 -23.168 0.169922 -31.501 0.50293s-16.5 1.5 -24.5 3.5s-14.5 3.83301 -19.5 5.5s-9.66699 5.16699 -14 10.5s-7.66602 10 -9.99902 14s-4.16602 10.667 -5.49902 20s-2 17.666 -2 24.999s0.333008 18.333 1 33s1.66699 28 3 40s3 28.667 5 50
l13 122c6 54.667 6.16699 91.5 0.5 110.5s-20.5 28.5 -44.5 28.5l5 46c24 0 40.667 9.33301 50 28s17 56 23 112l12 116c3.33301 34.667 6.16602 60.5 8.49902 77.5s6 34.667 11 53s10 30.833 15 37.5s12.667 13.167 23 19.5s21.666 10.166 33.999 11.499s28.833 2 49.5 2
l-5 -40c-32.667 0 -52.667 -7.5 -60 -22.5s-15 -61.167 -23 -138.5l-14 -132c-5.33301 -49.333 -13 -84.5 -23 -105.5s-25.667 -34.833 -47 -41.5c20 -6.66699 32.833 -20.334 38.5 -41.001s5.83398 -56 0.500977 -106l-15 -137c-7.33301 -68.667 -10 -110.667 -8 -126
c1.33301 -16.667 8 -27 20 -31c7.33301 -2.66699 20 -4 38 -4z" />
    <glyph glyph-name="bar" unicode="|" horiz-adv-x="204" 
d="M42 -141l100 951h49l-100 -951h-49z" />
    <glyph glyph-name="braceright" unicode="}" horiz-adv-x="237" 
d="M-13 -149l3.99707 41.001c32.667 0 52.834 7.5 60.501 22.5s15.5 61.167 23.5 138.5l14 137c5.33301 49.333 13.166 84.666 23.499 105.999s26.166 35 47.499 41c-20 6.66699 -33 20.5 -39 41.5s-6.33301 56.167 -1 105.5l14 132
c8.66699 76 10.834 121.833 6.50098 137.5s-23.166 23.5 -56.499 23.5l4 40c12.667 0 23.334 -0.166992 32.001 -0.5s17 -1.33301 25 -3s14.5 -3.5 19.5 -5.5s9.66699 -5.5 14 -10.5s7.5 -9.66699 9.5 -14s3.66699 -11 5 -20s2.16602 -17.333 2.49902 -25
s0 -18.834 -1 -33.501s-2 -28 -3 -40s-2.5 -28.333 -4.5 -49l-13 -116c-6 -54.667 -6.16699 -91.667 -0.5 -111s20.5 -29 44.5 -29l-5 -46c-24 0 -40.667 -9.33301 -50 -28s-17 -55.667 -23 -111l-13 -122c-3.33301 -34.667 -6.16602 -60.667 -8.49902 -78
s-5.83301 -35 -10.5 -53s-9.5 -30.5 -14.5 -37.5s-12.667 -13.667 -23 -20s-21.666 -10.166 -33.999 -11.499s-28.833 -2 -49.5 -2z" />
    <glyph glyph-name="asciitilde" unicode="~" horiz-adv-x="382" 
d="M276 381c-13.333 0 -35.001 9.16797 -65.001 27.501s-50 27.5 -60 27.5c-14.667 0 -38 -13.667 -70 -41l-18 24c37.333 38 69.333 57 96 57c13.333 0 34.833 -9 64.5 -27s49.167 -27 58.5 -27c6 0 12.667 1.66699 20 5s13.5 6.66602 18.5 9.99902s14.833 10.333 29.5 21
l17 -24c-39.333 -35.333 -69.666 -53 -90.999 -53z" />
    <glyph glyph-name="uni00A0" unicode="&#xa0;" horiz-adv-x="207" 
 />
    <glyph glyph-name="exclamdown" unicode="&#xa1;" horiz-adv-x="197" 
d="M104 533l8 74h60l-7 -74h-61zM26 -203l88 636h19l-47 -636h-60z" />
    <glyph glyph-name="cent" unicode="&#xa2;" horiz-adv-x="378" 
d="M138 -112l10.001 103.999c-26.667 2.66699 -47.834 10.334 -63.501 23.001s-26.334 29 -32.001 49s-8.83398 43.167 -9.50098 69.5s1 54.166 5 83.499l14 136c8.66699 82.667 24.334 141.5 47.001 176.5s58.667 54.167 108 57.5l10 101h28l-11 -101
c26.667 -1.33301 48.334 -7 65.001 -17s28.334 -23.333 35.001 -40s11 -36.167 13 -58.5s1 -46.166 -3 -71.499l-2 -23h-50l2 23c4.66699 38 4.66699 68 0 90s-12.834 37 -24.501 45s-28.5 12 -50.5 12c-16 0 -29.667 -2.16699 -41 -6.5s-21 -10.833 -29 -19.5
s-14.667 -21 -20 -37s-9.66602 -33.5 -12.999 -52.5s-6.66602 -43.167 -9.99902 -72.5l-16 -150c-6.66699 -66 -5 -112.167 5 -138.5s33.333 -39.5 70 -39.5c37.333 0 63 11.833 77 35.5s24.333 66.167 31 127.5l2 22h50l-2 -21c-2.66699 -25.333 -5.83398 -47 -9.50098 -65
s-9.16699 -36.333 -16.5 -55s-16.333 -33.5 -27 -44.5s-24.834 -20.167 -42.501 -27.5s-38.167 -11.333 -61.5 -12l-10 -103h-28z" />
    <glyph glyph-name="sterling" unicode="&#xa3;" horiz-adv-x="361" 
d="M-5 0l3.00195 26.999l63 12l37 354h-62l4 39h63l13 127c2.66699 28.667 5.66699 53.334 9 74.001s7.83301 41.667 13.5 63s12.667 38.833 21 52.5s18.5 26.167 30.5 37.5s26.167 19.666 42.5 24.999s35.5 8 57.5 8c24.667 0 44.834 -4.16699 60.501 -12.5
s26.667 -19.666 33 -33.999s10.333 -31.333 12 -51s1.16699 -40.834 -1.5 -63.501l-2 -20h-40c5.33301 52 3.66602 88.333 -5.00098 109s-29.334 31 -62.001 31c-12.667 0 -24 -1.66699 -34 -5s-18.5 -7.66602 -25.5 -12.999s-13.333 -12.833 -19 -22.5
s-10.167 -19.167 -13.5 -28.5s-6.5 -21.833 -9.5 -37.5s-5.33301 -29.667 -7 -42s-3.83398 -28.5 -6.50098 -48.5l-15 -149h141l-4 -39h-141l-37 -354h213l-4 -39h-328z" />
    <glyph glyph-name="currency" unicode="&#xa4;" horiz-adv-x="511" 
d="M262 237c50.667 0 95.167 18.167 133.5 54.5s60.166 80.166 65.499 131.499s-7.5 95 -38.5 131s-71.833 54 -122.5 54s-95.167 -18 -133.5 -54s-60.166 -79.667 -65.499 -131s7.5 -95.166 38.5 -131.499s71.833 -54.5 122.5 -54.5zM34 186l-13 14.998l87 79
c-32 40.667 -45 88.334 -39 143.001s29.333 102.334 70 143.001l-72 79l16 15l71 -79c44 38 93.667 56.667 149 56c55.333 0 101 -18.667 137 -56l88 79l13 -15l-87 -79c31.333 -40.667 44 -88.5 38 -143.5s-29 -102.5 -69 -142.5l71 -79l-16 -15l-71 79
c-43.333 -38 -93 -56.667 -149 -56c-55.333 0 -101 18.667 -137 56z" />
    <glyph glyph-name="yen" unicode="&#xa5;" horiz-adv-x="419" 
d="M168 0l11 107h-106l4 36h106l11 105h-106l4 36h97l-123 526h56l108 -486l202 486h56l-228 -526h96l-3 -36h-104l-12 -105h104l-4 -36h-104l-11 -107h-54z" />
    <glyph glyph-name="brokenbar" unicode="&#xa6;" horiz-adv-x="195" 
d="M95 391l44 419h47l-44 -419h-47zM35 -180l44 419h47l-44 -419h-47z" />
    <glyph glyph-name="section" unicode="&#xa7;" horiz-adv-x="384" 
d="M252 271c18 7.33301 34.167 17.668 48.5 31.001s23.5 29 27.5 47c4.66699 22 3 42.333 -5 61s-23.333 39 -46 61l-83 80c-22.667 -6.66699 -41 -16.834 -55 -30.501s-22 -30.834 -24 -51.501c-2.66699 -23.333 7 -47.666 29 -72.999zM174 -8.99805
c-21.333 0 -40.3301 4.16504 -56.9971 12.498s-30.167 20 -40.5 35s-18.666 31.333 -24.999 49s-10.833 37.167 -13.5 58.5l42 13c4.66699 -36 15.5 -66 32.5 -90s39.5 -36 67.5 -36c27.333 0 50.166 7.66699 68.499 23s29.166 35.666 32.499 60.999
c1.33301 12 1.16602 22.833 -0.500977 32.5s-8.16699 23.834 -19.5 42.501s-29 41.334 -53 68.001l-99 102c-33.333 32.667 -48.333 67.667 -45 105c2.66699 28 13.667 51.5 33 70.5s42.666 33.167 69.999 42.5c-19.333 20.667 -34.166 40.167 -44.499 58.5
s-14.166 37.833 -11.499 58.5c4 35.333 19.167 64.333 45.5 87s60.166 34 101.499 34c20 0 37.667 -4.16699 53 -12.5s27.666 -20 36.999 -35s16.666 -29.667 21.999 -44s10.333 -30.833 15 -49.5l-45 -13c-2 11.333 -4.16699 21 -6.5 29s-6 17.5 -11 28.5
s-10.5 20.167 -16.5 27.5s-13.5 13.5 -22.5 18.5s-19.5 7.5 -31.5 7.5c-24 0 -44.333 -7 -61 -21s-26.334 -34 -29.001 -60c-3.33301 -28.667 15.667 -64 57 -106l93 -86c24.667 -24 42.334 -47.667 53.001 -71s13.334 -50.666 8.00098 -81.999
c-4.66699 -27.333 -15 -49 -31 -65s-36.667 -30 -62 -42c9.33301 -12.667 15.833 -21.5 19.5 -26.5s8.66699 -13 15 -24s10.5 -21.833 12.5 -32.5s2.66699 -22 2 -34c-3.33301 -41.333 -19.5 -74 -48.5 -98s-64.5 -36 -106.5 -36z" />
    <glyph glyph-name="dieresis" unicode="&#xa8;" horiz-adv-x="372" 
d="M290 734l7 76h56l-8 -76h-55zM130 734l8 76h55l-8 -76h-55z" />
    <glyph glyph-name="copyright" unicode="&#xa9;" horiz-adv-x="861" 
d="M409 -11c-34.667 0 -67.3311 3.33008 -97.998 9.99707s-57.834 15.834 -81.501 27.501s-45.334 25.834 -65.001 42.501s-36.167 35 -49.5 55s-25 41.5 -35 64.5s-17.167 46.833 -21.5 71.5s-7.5 49.834 -9.5 75.501s-1 51.167 3 76.5c4 42 12.833 82.667 26.5 122
s32.834 77.333 57.501 114s53.667 68.667 87 96s73.666 49.166 120.999 65.499s98.666 24.5 153.999 24.5s104.833 -8.16699 148.5 -24.5s79.167 -38.166 106.5 -65.499s49.666 -59.333 66.999 -96s28.5 -74.667 33.5 -114s5.5 -80 1.5 -122
c-4.66699 -42 -13.667 -82.833 -27 -122.5s-32.333 -77.834 -57 -114.501s-53.667 -68.667 -87 -96s-73.666 -49.166 -120.999 -65.499s-98.666 -24.5 -153.999 -24.5zM413.003 18.9971c49.333 0 95.3359 7.33301 138.003 22s79.334 34.5 110.001 59.5s57.5 54.333 80.5 88
s41 69.334 54 107.001s21.5 76.834 25.5 117.501s3.5 79.667 -1.5 117s-15.333 72.833 -31 106.5s-36.334 62.667 -62.001 87s-58.167 43.833 -97.5 58.5s-83.833 22 -133.5 22s-95.834 -7.33301 -138.501 -22s-79.334 -34.167 -110.001 -58.5s-57.334 -53.333 -80.001 -87
s-40.5 -69.167 -53.5 -106.5s-21.5 -76.333 -25.5 -117s-3.66699 -79.834 1 -117.501s15 -73.334 31 -107.001s36.667 -63 62 -88s57.833 -44.833 97.5 -59.5s84.167 -22 133.5 -22zM410.006 119.997c-20 0 -37.834 2.00293 -53.501 6.00293s-28.667 9.66699 -39 17
s-19 16.833 -26 28.5s-12.167 23.834 -15.5 36.501s-5.5 27.667 -6.5 45s-1.16699 34.166 -0.5 50.499s2 35.166 4 56.499l13 118c10 94 28.333 159 55 195s71 54 133 54c26 0 48 -3.16699 66 -9.5s32 -15 42 -26s17.333 -24.333 22 -40s6.83398 -33.334 6.50098 -53.001
s-1.5 -41.167 -3.5 -64.5l-3 -27h-51l3 27c2 18 3 34.167 3 48.5s-0.666992 26.666 -2 36.999s-3.83301 19.333 -7.5 27s-7.66699 13.834 -12 18.501s-10.166 8.5 -17.499 11.5s-14.833 5 -22.5 6s-16.834 1.5 -27.501 1.5c-42.667 0 -72.5 -14 -89.5 -42
s-29.5 -80.667 -37.5 -158l-14 -132c-7.33301 -70.667 -5 -119.834 7 -147.501s38.667 -41.5 80 -41.5c22 0 39.667 2.5 53 7.5s24.5 14.333 33.5 28s15.667 30.167 20 49.5s8.16602 45.666 11.499 78.999l3 27h51l-3 -25c-2 -20 -4 -37.167 -6 -51.5
s-5.16699 -29.333 -9.5 -45s-9.16602 -28.667 -14.499 -39s-12.333 -20.666 -21 -30.999s-18.667 -18.333 -30 -24s-24.833 -10.167 -40.5 -13.5s-33.5 -5 -53.5 -5z" />
    <glyph glyph-name="ordfeminine" unicode="&#xaa;" horiz-adv-x="392" 
d="M203 388c40 0 73.667 21.666 101 64.999l15 142c-65.333 -28 -106.666 -47.667 -123.999 -59c-24 -15.333 -39.333 -33.666 -46 -54.999c-2.66699 -8 -4.33398 -16.667 -5.00098 -26c-2.66699 -23.333 2 -40.333 14 -51s27 -16 45 -16zM188 350.999
c-30.667 0 -54.333 8.99805 -71 26.998s-23.334 42 -20.001 72c2 20 6.33301 36.5 13 49.5s19 26.167 37 39.5s39.833 25.833 65.5 37.5s62.167 26.834 109.5 45.501l4 38c5.33301 46.667 3.83301 79.167 -4.5 97.5s-25.166 27.5 -50.499 27.5
c-53.333 0 -83.333 -30.333 -90 -91l-44 1c10.667 83.333 56.667 125 138 125c42.667 0 71 -12.667 85 -38s18 -67.666 12 -126.999l-31 -297h-40l2 58c-11.333 -19.333 -27.5 -35 -48.5 -47s-43.167 -18 -66.5 -18z" />
    <glyph glyph-name="guillemotleft" unicode="&#xab;" horiz-adv-x="408" 
d="M345 113l-147 208l2 21l191 208l-8 -69l-135 -149l104 -150zM200 113l-146 208l2 21l190 208l-8 -69l-134 -148l103 -151z" />
    <glyph glyph-name="logicalnot" unicode="&#xac;" horiz-adv-x="349" 
d="M291 284l12 112h-241l4 44h279l-16 -156h-38z" />
    <glyph glyph-name="uni00AD" unicode="&#xad;" horiz-adv-x="328" 
d="M69 312l5 42h219l-4 -42h-220z" />
    <glyph glyph-name="registered" unicode="&#xae;" horiz-adv-x="869" 
d="M413.5 -12c-55 0 -104.501 8.16602 -148.501 24.499s-79.667 38.166 -107 65.499s-49.666 59.333 -66.999 96s-28.5 74.667 -33.5 114s-5.16699 80 -0.5 122c3.33301 34.667 10.166 68.667 20.499 102s23.833 65.833 40.5 97.5s37.5 60.834 62.5 87.501s53 50 84 70
s66.667 35.667 107 47s83.5 17 129.5 17c55.333 0 104.833 -8.16699 148.5 -24.5s79.167 -38 106.5 -65s49.5 -58.833 66.5 -95.5s28.167 -74.667 33.5 -114s5.83301 -80 1.5 -122s-13.166 -82.667 -26.499 -122s-32.333 -77.333 -57 -114s-53.667 -68.667 -87 -96
s-73.5 -49.166 -120.5 -65.499s-98 -24.5 -153 -24.5zM416.999 20.999c48.667 0 94.0029 7.16699 136.003 21.5s78.167 33.833 108.5 58.5s56.833 53.667 79.5 87s40.334 68.666 53.001 105.999s21.334 76 26.001 116c4 40.667 3.5 79.5 -1.5 116.5
s-15.333 72.167 -31 105.5s-36.167 62.166 -61.5 86.499s-57.5 43.666 -96.5 57.999s-82.833 21.5 -131.5 21.5c-49.333 0 -95 -7.16699 -137 -21.5s-78.167 -33.666 -108.5 -57.999s-56.833 -53.166 -79.5 -86.499s-40.334 -68.5 -53.001 -105.5
s-21.334 -75.833 -26.001 -116.5c-4 -40 -3.5 -78.667 1.5 -116s15.167 -72.666 30.5 -105.999s35.666 -62.333 60.999 -87s57.666 -44.167 96.999 -58.5s83.666 -21.5 132.999 -21.5zM376.002 442.999l111 -0.000976562c20 0 37 2.66699 51 8s25 13.833 33 25.5
s14 24.334 18 38.001s7 30.5 9 50.5c4 40 0.333008 69.5 -11 88.5s-34.333 28.5 -69 28.5h-117zM294.002 109.998l63 608h169c91.333 0 131.333 -51 120 -153c-4 -38.667 -15 -71.167 -33 -97.5s-44.667 -42.833 -80 -49.5l71 -308h-49l-68 301h-114l-32 -301h-47z" />
    <glyph glyph-name="macron" unicode="&#xaf;" horiz-adv-x="370" 
d="M163 773l3 37h171l-4 -37h-170z" />
    <glyph glyph-name="degree" unicode="&#xb0;" horiz-adv-x="389" 
d="M231 550c-17.333 0 -33.334 2.5 -48.001 7.5s-28 12.833 -40 23.5s-20.833 24.834 -26.5 42.501s-7.5 38.167 -5.5 61.5c4.66699 44.667 21.334 78 50.001 100s61.667 33 99 33c17.333 0 33.5 -2.5 48.5 -7.5s28.333 -12.667 40 -23s20.5 -24.333 26.5 -42
s7.66699 -37.834 5 -60.501c-2.66699 -30.667 -12 -56.5 -28 -77.5s-34.333 -35.833 -55 -44.5s-42.667 -13 -66 -13zM235.999 587c25.333 0 47.667 8.16699 67 24.5s30.666 40.5 33.999 72.5c3.33301 32.667 -3 57.334 -19 74.001s-36.833 25 -62.5 25
s-48 -8.33301 -67 -25s-30.167 -41.334 -33.5 -74.001c-3.33301 -32 2.83398 -56.167 18.501 -72.5s36.5 -24.5 62.5 -24.5z" />
    <glyph glyph-name="plusminus" unicode="&#xb1;" horiz-adv-x="321" 
d="M28 0l5 48h233l-5 -48h-233zM139 183l9 92h-91l5 48h92l10 91h49l-9 -91h91l-5 -48h-92l-9 -92h-50z" />
    <glyph glyph-name="twosuperior" unicode="&#xb2;" horiz-adv-x="391" 
d="M95 362l4 38.002l155 202c3.33301 4 8.83301 11 16.5 21s13 17 16 21s7.33301 10.333 13 19s9.66699 16.167 12 22.5s4.83301 14 7.5 23s4.66699 18.167 6 27.5c3.33301 28.667 -0.166992 50.667 -10.5 66s-27.5 22.666 -51.5 21.999c-28 0 -49 -8.66699 -63 -26
s-23 -44.333 -27 -81h-41l2 11c4.66699 46 18 80.167 40 102.5s53.333 33.5 94 33.5c36 0 63.333 -10.833 82 -32.5s26 -52.5 22 -92.5c-2.66699 -26.667 -10.5 -51.834 -23.5 -75.501s-32.167 -51.167 -57.5 -82.5l-140 -180h169l-4 -39h-221z" />
    <glyph glyph-name="threesuperior" unicode="&#xb3;" horiz-adv-x="393" 
d="M205 355c-37.333 0 -63.8311 10.667 -79.498 32s-21.5 51 -17.5 89v8h47l-1 -11c-2.66699 -25.333 0.333008 -44.666 9 -57.999s25 -20 49 -20c49.333 0 77.333 33.333 84 100c3.33301 32.667 0.166016 58.167 -9.50098 76.5s-24.834 27.5 -45.501 27.5h-37l4 37h37
c22 0 38.833 8.16699 50.5 24.5s19.5 43.166 23.5 80.499c5.33301 56 -13 84 -55 84c-24.667 0 -43.334 -6.16699 -56.001 -18.5s-20 -31.5 -22 -57.5l-1 -10h-47l1 9c8 77.333 51 116 129 116c36.667 0 62.834 -11.333 78.501 -34s21.834 -52 18.501 -88
c-4 -36 -13.167 -64.5 -27.5 -85.5s-30.5 -33.167 -48.5 -36.5c8 -3.33301 15 -7.16602 21 -11.499s12.167 -11 18.5 -20s10.666 -21.333 12.999 -37s2.5 -33.834 0.5 -54.501c-4 -42 -17.833 -76.167 -41.5 -102.5s-55.5 -39.5 -95.5 -39.5z" />
    <glyph glyph-name="acute" unicode="&#xb4;" horiz-adv-x="206" 
d="M86 616l85 194h54l-110 -194h-29z" />
    <glyph glyph-name="mu" unicode="&#xb5;" horiz-adv-x="407" 
d="M13 -172l78.002 749.999h54l-48 -455c-3.33301 -33.333 -0.5 -56.833 8.5 -70.5s23.167 -20.5 42.5 -20.5s40.166 6.33301 62.499 19s43.5 29.667 63.5 51l50 476h53l-60 -578h-53l7 68c-42 -47.333 -88 -72.666 -138 -75.999c-20.667 0 -36.334 5.33301 -47.001 16
l-19 -180h-54z" />
    <glyph glyph-name="paragraph" unicode="&#xb6;" horiz-adv-x="480" 
d="M170 -94l66.999 633.002c-54.667 -0.666992 -96.167 10.666 -124.5 33.999s-40.166 56.666 -35.499 99.999c4 42 21.5 75.333 52.5 100s75.833 37 134.5 37h206l-95 -904h-41l92 868h-124l-92 -868h-40z" />
    <glyph glyph-name="periodcentered" unicode="&#xb7;" horiz-adv-x="194" 
d="M96 340l8 75h54l-8 -75h-54z" />
    <glyph glyph-name="cedilla" unicode="&#xb8;" horiz-adv-x="208" 
d="M-14 -185l3.00195 29c31.333 -2 54.166 -0.333008 68.499 5s22.833 15.333 25.5 30c2.66699 16 -1.33301 29 -12 39s-27.334 16.667 -50.001 20l6 62h29l-5 -47c26 -3.33301 45.333 -12.5 58 -27.5s17.667 -31.833 15 -50.5c-8 -47.333 -54 -67.333 -138 -60z" />
    <glyph glyph-name="onesuperior" unicode="&#xb9;" horiz-adv-x="383" 
d="M208 362l46 444c-20.667 -26 -50.667 -43.333 -90 -52l3 35c40 15.333 72.333 39 97 71h41l-52 -498h-45z" />
    <glyph glyph-name="ordmasculine" unicode="&#xba;" horiz-adv-x="392" 
d="M211.5 351c-25.667 0 -46.9961 3.50195 -63.9961 10.502s-29.333 17 -37 30s-12.834 28.333 -15.501 46s-2.66699 37.5 0 59.5l19 177c4.66699 47.333 18.167 83.5 40.5 108.5s57.833 37.5 106.5 37.5c48 0 80.667 -12.667 98 -38s23.666 -61.333 18.999 -108l-19 -177
c-2 -22.667 -6 -42.334 -12 -59.001s-14.333 -31.834 -25 -45.501s-25.334 -24 -44.001 -31s-40.834 -10.5 -66.501 -10.5zM215.004 384.002c33.333 0 57.667 9.83398 73 29.501s25 47.834 29 84.501l18 175c2 16.667 2.16699 32 0.5 46s-5 26 -10 36
s-13.333 17.833 -25 23.5s-26.167 8.5 -43.5 8.5c-33.333 0 -57.666 -9.83301 -72.999 -29.5s-25 -47.834 -29 -84.501l-18 -175c-4 -36.667 -0.333008 -64.834 11 -84.501s33.666 -29.5 66.999 -29.5z" />
    <glyph glyph-name="guillemotright" unicode="&#xbb;" horiz-adv-x="415" 
d="M188 113l7 69l138 148l-106 151l7 69l149 -208l-2 -21zM43 113l8 69l137 149l-106 150l7 69l149 -208l-2 -21z" />
    <glyph glyph-name="onequarter" unicode="&#xbc;" horiz-adv-x="752" 
d="M490 175h114l29 272zM171 0l373 810h48l-373 -810h-48zM138 288l48 459.002l-79 -38l5 39c14.667 7.33301 32.5 17.666 53.5 30.999s35.167 23.666 42.5 30.999h28l-55 -522h-43zM585 -6.99805l16 146h-157l4 34l192 345h46l-36 -343h63l-4 -36h-63l-15 -146h-46z" />
    <glyph glyph-name="onehalf" unicode="&#xbd;" horiz-adv-x="752" 
d="M172 0l373 810h48l-373 -810h-48zM144 288l48 459.002l-78 -38l4 39c15.333 7.33301 33.5 17.666 54.5 30.999s34.833 23.666 41.5 30.999h28l-54 -522h-44zM466 0.00195312l2.99902 35.001l141 179l16 20c8 10 13.333 16.833 16 20.5s6.83398 9.83398 12.501 18.501
s9.66699 16 12 22s4.83301 13.333 7.5 22s4.66699 17.667 6 27c6 56.667 -12.333 85.334 -55 86.001c-26 0 -45.167 -7.83301 -57.5 -23.5s-20.166 -39.834 -23.499 -72.501h-43l1 4v4c4.66699 42 17.5 73.167 38.5 93.5s50.5 30.5 88.5 30.5
c34.667 0 60.667 -10.333 78 -31s24.333 -50 21 -88c-2.66699 -26.667 -11 -51.834 -25 -75.501s-33.667 -50.834 -59 -81.501c-2 -1.33301 -12.833 -14.333 -32.5 -39s-39.834 -50 -60.501 -76l-31 -39h163l-4 -36h-213z" />
    <glyph glyph-name="threequarters" unicode="&#xbe;" horiz-adv-x="752" 
d="M498 175h114l29 272zM181 0l374 810h47l-373 -810h-48zM593 -7l15 146h-155l3 34l192 345h45l-36 -343h63l-4 -36h-63l-15 -146h-45zM153 342c-34.667 0 -59.665 9.83594 -74.998 29.5029s-21.333 46.5 -18 80.5l47 -2c-5.33301 -48.667 12 -73 52 -73
c21.333 0 38.666 7.66699 51.999 23s21.666 38.666 24.999 69.999c3.33301 30 0 53.333 -10 70s-25.667 25 -47 25l4 37c22 0 38.833 7.33301 50.5 22s19.5 39 23.5 73c6 53.333 -10.333 79.666 -49 78.999c-23.333 0 -40.5 -6 -51.5 -18s-18.167 -30 -21.5 -54l-47 -1
c4 34.667 16 61.5 36 80.5s49 28.5 87 28.5c34.667 0 59.667 -10.667 75 -32s21 -49.333 17 -84c-3.33301 -34.667 -12.666 -61.334 -27.999 -80.001s-33 -29.334 -53 -32.001c47.333 -12 67.666 -49.667 60.999 -113c-4 -39.333 -17.333 -70.666 -40 -93.999
s-52.667 -35 -90 -35z" />
    <glyph glyph-name="questiondown" unicode="&#xbf;" horiz-adv-x="432" 
d="M228 529l7 73h53l-8 -73h-52zM149 -217c-25.333 0 -48.498 4.33398 -69.498 13.001s-39.167 21.5 -54.5 38.5s-26.5 39.167 -33.5 66.5s-8.5 58.666 -4.5 93.999c6.66699 63.333 27.667 118.166 63 164.499s87.666 91.5 156.999 135.5l11 107h47l-14 -123
c-70.667 -43.333 -122.5 -87.5 -155.5 -132.5s-52.5 -95.5 -58.5 -151.5c-5.33301 -54.667 3.5 -96 26.5 -124s53.167 -42 90.5 -42c42 0 75.667 11.5 101 34.5s35.333 55.5 30 97.5l-4 36l48 11l5 -36c4 -30.667 1.83301 -58.167 -6.5 -82.5s-21.333 -44.166 -39 -59.499
s-38.334 -27 -62.001 -35s-49.5 -12 -77.5 -12z" />
    <glyph glyph-name="Agrave" unicode="&#xc0;" horiz-adv-x="468" 
d="M291 879l-60 194h53l34 -194h-27zM145 264h194l-48 480zM11 0l256 810h62l86 -810h-55l-18 224h-210l-67 -224h-54z" />
    <glyph glyph-name="Aacute" unicode="&#xc1;" horiz-adv-x="468" 
d="M291 879l85 194h53l-110 -194h-28zM145 264h194l-48 480zM11 0l256 810h62l86 -810h-55l-18 224h-210l-67 -224h-54z" />
    <glyph glyph-name="Acircumflex" unicode="&#xc2;" horiz-adv-x="468" 
d="M186 878l105 180h66l66 -180h-37l-65 153l-96 -153h-39zM145 264h194l-48 480zM11 0l256 810h62l86 -810h-55l-18 224h-210l-67 -224h-54z" />
    <glyph glyph-name="Atilde" unicode="&#xc3;" horiz-adv-x="468" 
d="M348 879c-12.667 0.666992 -28.165 8.16895 -46.498 22.502s-30.833 21.833 -37.5 22.5c-10.667 2.66699 -19.667 0.666992 -27 -6s-11.666 -17.334 -12.999 -32.001h-37c0 4.66699 1 10 3 16s5 13.167 9 21.5s8.83301 15.5 14.5 21.5s13.5 10.667 23.5 14s21.333 4 34 2
c12 -1.33301 27.167 -9 45.5 -23s30.833 -21.667 37.5 -23c12 -1.33301 21.667 1.5 29 8.5s12 19.167 14 36.5h35c-0.666992 -6 -1.83398 -12.167 -3.50098 -18.5s-4.33398 -13.833 -8.00098 -22.5s-8.33398 -16 -14.001 -22s-13.667 -10.833 -24 -14.5
s-21.833 -4.83398 -34.5 -3.50098zM145.002 264.002h194l-48 480zM11.002 0.00195312l256 810h62l86 -810h-55l-18 224h-210l-67 -224h-54z" />
    <glyph glyph-name="Adieresis" unicode="&#xc4;" horiz-adv-x="468" 
d="M357 878l8 76h56l-8 -76h-56zM197 878l8 76h56l-8 -76h-56zM145 264h194l-48 480zM11 0l256 810h62l86 -810h-55l-18 224h-210l-67 -224h-54z" />
    <glyph glyph-name="Aring" unicode="&#xc5;" horiz-adv-x="468" 
d="M298 813c-23.333 0 -42.666 7.16699 -57.999 21.5s-21.5 35.5 -18.5 63.5s13.667 49.167 32 63.5s39.166 21.5 62.499 21.5s42.833 -7.16699 58.5 -21.5s22 -35.5 19 -63.5s-13.833 -49.167 -32.5 -63.5s-39.667 -21.5 -63 -21.5zM301.5 844c15 0 28 4.5 39 13.5
s17.5 22.5 19.5 40.5c2 18.667 -1.5 32.5 -10.5 41.5s-21 13.5 -36 13.5s-28.167 -4.5 -39.5 -13.5s-18 -22.833 -20 -41.5c-2 -18 1.66699 -31.5 11 -40.5s21.5 -13.5 36.5 -13.5zM145 264h194l-48 480zM11 0l256 810h62l86 -810h-55l-18 224h-210l-67 -224h-54z" />
    <glyph glyph-name="AE" unicode="&#xc6;" horiz-adv-x="629" 
d="M149 268h173l48 466zM-36 0l399 810h297l-5 -44h-229l-33 -325h165l-5 -40h-165l-37 -357h229l-5 -44h-281l24 224h-189l-112 -224h-53z" />
    <glyph glyph-name="Ccedilla" unicode="&#xc7;" horiz-adv-x="488" 
d="M162 -185l3.00195 29c31.333 -2 54.166 -0.333008 68.499 5s22.833 15.333 25.5 30c2.66699 16 -1.33301 29 -12 39s-27.334 16.667 -50.001 20l6 62h29l-5 -47c26 -3.33301 45.333 -12.5 58 -27.5s17.667 -31.833 15 -50.5c-8 -47.333 -54 -67.333 -138 -60z
M233.002 -11c-31.333 0 -58.333 4.16406 -81 12.4971s-40.334 19.833 -53.001 34.5s-22.5 32.334 -29.5 53.001s-10.667 43 -11 67s0.833984 49.667 3.50098 77l36 344c2.66699 29.333 7.16699 55.666 13.5 78.999s15.166 45.333 26.499 66s25 38 41 52s35.833 25 59.5 33
s50.834 12 81.501 12c34.667 0 63.667 -5.5 87 -16.5s40.666 -26.333 51.999 -46s19 -43.5 23 -71.5s3.66699 -59.333 -1 -94l-4 -41h-52l5 41c3.33301 28.667 4 54.334 2 77.001s-6.83301 42 -14.5 58s-20 28 -37 36s-38.5 12 -64.5 12c-28.667 0 -53 -4.33301 -73 -13
s-36 -22 -48 -40s-21.167 -37.833 -27.5 -59.5s-11.166 -47.834 -14.499 -78.501l-37 -358c-3.33301 -30 -4 -56.833 -2 -80.5s7.33301 -43.667 16 -60s22 -28.833 40 -37.5s40.667 -13 68 -13c26 0 48.333 4.33301 67 13s33.667 21.334 45 38.001s20 35.5 26 56.5
s10.667 46.5 14 76.5l5 49h52l-4 -40c-3.33301 -36.667 -9.33301 -68.667 -18 -96s-21 -52.166 -37 -74.499s-37 -39.166 -63 -50.499s-56.667 -17 -92 -17z" />
    <glyph glyph-name="Egrave" unicode="&#xc8;" horiz-adv-x="392" 
d="M273 879l-60 194h53l34 -194h-27zM53 0l85 810h280l-4 -44h-226l-34 -325h185l-4 -42h-185l-37 -356h228l-5 -43h-283z" />
    <glyph glyph-name="Eacute" unicode="&#xc9;" horiz-adv-x="392" 
d="M272 879l85 194h53l-110 -194h-28zM53 0l85 810h280l-4 -44h-226l-34 -325h185l-4 -42h-185l-37 -356h228l-5 -43h-283z" />
    <glyph glyph-name="Ecircumflex" unicode="&#xca;" horiz-adv-x="392" 
d="M168 878l105 180h66l66 -180h-37l-65 153l-96 -153h-39zM53 0l85 810h280l-4 -44h-226l-34 -325h185l-4 -42h-185l-37 -356h228l-5 -43h-283z" />
    <glyph glyph-name="Edieresis" unicode="&#xcb;" horiz-adv-x="392" 
d="M338 878l8 76h56l-8 -76h-56zM178 878l8 76h56l-8 -76h-56zM53 0l85 810h280l-4 -44h-226l-34 -325h185l-4 -42h-185l-37 -356h228l-5 -43h-283z" />
    <glyph glyph-name="Igrave" unicode="&#xcc;" horiz-adv-x="206" 
d="M161 879l-60 194h53l34 -194h-27zM55 0l85 810h54l-85 -810h-54z" />
    <glyph glyph-name="Iacute" unicode="&#xcd;" horiz-adv-x="206" 
d="M160 879l85 194h53l-110 -194h-28zM55 0l85 810h54l-85 -810h-54z" />
    <glyph glyph-name="Icircumflex" unicode="&#xce;" horiz-adv-x="206" 
d="M55 878l105 180h66l66 -180h-37l-65 153l-96 -153h-39zM55 0l85 810h54l-85 -810h-54z" />
    <glyph glyph-name="Idieresis" unicode="&#xcf;" horiz-adv-x="206" 
d="M226 878l8 76h56l-8 -76h-56zM66 878l8 76h56l-8 -76h-56zM55 0l85 810h54l-85 -810h-54z" />
    <glyph glyph-name="Eth" unicode="&#xd0;" horiz-adv-x="561" 
d="M54 0l42.999 407.999h-66l4 37h66l38 365h177c31.333 0 58.833 -4 82.5 -12s42.334 -19 56.001 -33s24.667 -30.667 33 -50s12.833 -40.666 13.5 -63.999s0 -48 -2 -74l-35 -336c-4 -36.667 -10.667 -69 -20 -97s-22.833 -53.167 -40.5 -75.5s-40.5 -39.333 -68.5 -51
s-61 -17.5 -99 -17.5h-182zM112.999 42.999l125.003 -0.00195312c21.333 0 40.5 2.33301 57.5 7s31.333 11.834 43 21.501s21.667 20.334 30 32.001s15.166 25.667 20.499 42s9.5 32.333 12.5 48s5.83301 33.5 8.5 53.5l34 326c4 29.333 4.66699 56 2 80
s-8.33398 44.333 -17.001 61s-22.834 29.5 -42.501 38.5s-44.5 13.5 -74.5 13.5h-123l-34 -321h94l-4 -37h-93z" />
    <glyph glyph-name="Ntilde" unicode="&#xd1;" horiz-adv-x="515" 
d="M372 879c-12.667 0.666992 -28.165 8.16895 -46.498 22.502s-30.833 21.833 -37.5 22.5c-10.667 2.66699 -19.667 0.666992 -27 -6s-11.666 -17.334 -12.999 -32.001h-37c0 4.66699 1 10 3 16s5 13.167 9 21.5s8.83301 15.5 14.5 21.5s13.5 10.667 23.5 14s21.333 4 34 2
c12 -1.33301 27.167 -9 45.5 -23s30.833 -21.667 37.5 -23c12 -1.33301 21.667 1.5 29 8.5s12 19.167 14 36.5h35c-0.666992 -6 -1.83398 -12.167 -3.50098 -18.5s-4.33398 -13.833 -8.00098 -22.5s-8.33398 -16 -14.001 -22s-13.667 -10.833 -24 -14.5
s-21.833 -4.83398 -34.5 -3.50098zM54.002 0.00195312l85 810h44l202 -684l72 684h48l-85 -810h-43l-203 685l-72 -685h-48z" />
    <glyph glyph-name="Ograve" unicode="&#xd2;" horiz-adv-x="515" 
d="M316 879l-60 194h53l34 -194h-27zM236 -11c-30.667 0 -57.3291 4.00195 -79.9961 12.002s-40.667 19.167 -54 33.5s-23.666 31.5 -30.999 51.5s-11.333 42 -12 66s0 50 2 78l38 354c3.33301 36 9.66602 67.667 18.999 95s22.666 51.833 39.999 73.5
s39.833 38.167 67.5 49.5s60.167 17 97.5 17s68.666 -5.83301 93.999 -17.5s44.166 -27.834 56.499 -48.501s20.666 -45.5 24.999 -74.5s4.5 -60.5 0.5 -94.5l-38 -355c-4 -36.667 -10.5 -68.834 -19.5 -96.501s-22 -52.667 -39 -75s-39.5 -39.333 -67.5 -51
s-61 -17.5 -99 -17.5zM240.505 34.002c28.333 0 52.666 4.33398 72.999 13.001s36.5 21.5 48.5 38.5s21.333 36.167 28 57.5s11.667 46.333 15 75l39 374c3.33301 27.333 3.83301 52.166 1.5 74.499s-7.66602 41.5 -15.999 57.5s-21.833 28.333 -40.5 37
s-42.167 13 -70.5 13s-52.666 -4.16699 -72.999 -12.5s-36.5 -20.833 -48.5 -37.5s-21.333 -35.5 -28 -56.5s-11.667 -46.167 -15 -75.5l-39 -374c-3.33301 -27.333 -3.83301 -52.333 -1.5 -75s7.66602 -42 15.999 -58s21.833 -28.5 40.5 -37.5s42.167 -13.5 70.5 -13.5z
" />
    <glyph glyph-name="Oacute" unicode="&#xd3;" horiz-adv-x="515" 
d="M315 879l85 194h53l-110 -194h-28zM236 -11c-30.667 0 -57.3291 4.00195 -79.9961 12.002s-40.667 19.167 -54 33.5s-23.666 31.5 -30.999 51.5s-11.333 42 -12 66s0 50 2 78l38 354c3.33301 36 9.66602 67.667 18.999 95s22.666 51.833 39.999 73.5
s39.833 38.167 67.5 49.5s60.167 17 97.5 17s68.666 -5.83301 93.999 -17.5s44.166 -27.834 56.499 -48.501s20.666 -45.5 24.999 -74.5s4.5 -60.5 0.5 -94.5l-38 -355c-4 -36.667 -10.5 -68.834 -19.5 -96.501s-22 -52.667 -39 -75s-39.5 -39.333 -67.5 -51
s-61 -17.5 -99 -17.5zM240.505 34.002c28.333 0 52.666 4.33398 72.999 13.001s36.5 21.5 48.5 38.5s21.333 36.167 28 57.5s11.667 46.333 15 75l39 374c3.33301 27.333 3.83301 52.166 1.5 74.499s-7.66602 41.5 -15.999 57.5s-21.833 28.333 -40.5 37
s-42.167 13 -70.5 13s-52.666 -4.16699 -72.999 -12.5s-36.5 -20.833 -48.5 -37.5s-21.333 -35.5 -28 -56.5s-11.667 -46.167 -15 -75.5l-39 -374c-3.33301 -27.333 -3.83301 -52.333 -1.5 -75s7.66602 -42 15.999 -58s21.833 -28.5 40.5 -37.5s42.167 -13.5 70.5 -13.5z
" />
    <glyph glyph-name="Ocircumflex" unicode="&#xd4;" horiz-adv-x="515" 
d="M210 878l105 180h66l66 -180h-37l-65 153l-96 -153h-39zM236 -11c-30.667 0 -57.3291 4.00195 -79.9961 12.002s-40.667 19.167 -54 33.5s-23.666 31.5 -30.999 51.5s-11.333 42 -12 66s0 50 2 78l38 354c3.33301 36 9.66602 67.667 18.999 95s22.666 51.833 39.999 73.5
s39.833 38.167 67.5 49.5s60.167 17 97.5 17s68.666 -5.83301 93.999 -17.5s44.166 -27.834 56.499 -48.501s20.666 -45.5 24.999 -74.5s4.5 -60.5 0.5 -94.5l-38 -355c-4 -36.667 -10.5 -68.834 -19.5 -96.501s-22 -52.667 -39 -75s-39.5 -39.333 -67.5 -51
s-61 -17.5 -99 -17.5zM240.505 34.002c28.333 0 52.666 4.33398 72.999 13.001s36.5 21.5 48.5 38.5s21.333 36.167 28 57.5s11.667 46.333 15 75l39 374c3.33301 27.333 3.83301 52.166 1.5 74.499s-7.66602 41.5 -15.999 57.5s-21.833 28.333 -40.5 37
s-42.167 13 -70.5 13s-52.666 -4.16699 -72.999 -12.5s-36.5 -20.833 -48.5 -37.5s-21.333 -35.5 -28 -56.5s-11.667 -46.167 -15 -75.5l-39 -374c-3.33301 -27.333 -3.83301 -52.333 -1.5 -75s7.66602 -42 15.999 -58s21.833 -28.5 40.5 -37.5s42.167 -13.5 70.5 -13.5z
" />
    <glyph glyph-name="Otilde" unicode="&#xd5;" horiz-adv-x="515" 
d="M372 879c-12.667 0.666992 -28.165 8.16895 -46.498 22.502s-30.833 21.833 -37.5 22.5c-10.667 2.66699 -19.667 0.666992 -27 -6s-11.666 -17.334 -12.999 -32.001h-37c0 4.66699 1 10 3 16s5 13.167 9 21.5s8.83301 15.5 14.5 21.5s13.5 10.667 23.5 14s21.333 4 34 2
c12 -1.33301 27.167 -9 45.5 -23s30.833 -21.667 37.5 -23c12 -1.33301 21.667 1.5 29 8.5s12 19.167 14 36.5h35c-0.666992 -6 -1.83398 -12.167 -3.50098 -18.5s-4.33398 -13.833 -8.00098 -22.5s-8.33398 -16 -14.001 -22s-13.667 -10.833 -24 -14.5
s-21.833 -4.83398 -34.5 -3.50098zM236.002 -10.998c-30.667 0 -57.3291 4.00195 -79.9961 12.002s-40.667 19.167 -54 33.5s-23.666 31.5 -30.999 51.5s-11.333 42 -12 66s0 50 2 78l38 354c3.33301 36 9.66602 67.667 18.999 95s22.666 51.833 39.999 73.5
s39.833 38.167 67.5 49.5s60.167 17 97.5 17s68.666 -5.83301 93.999 -17.5s44.166 -27.834 56.499 -48.501s20.666 -45.5 24.999 -74.5s4.5 -60.5 0.5 -94.5l-38 -355c-4 -36.667 -10.5 -68.834 -19.5 -96.501s-22 -52.667 -39 -75s-39.5 -39.333 -67.5 -51
s-61 -17.5 -99 -17.5zM240.507 34.0039c28.333 0 52.666 4.33398 72.999 13.001s36.5 21.5 48.5 38.5s21.333 36.167 28 57.5s11.667 46.333 15 75l39 374c3.33301 27.333 3.83301 52.166 1.5 74.499s-7.66602 41.5 -15.999 57.5s-21.833 28.333 -40.5 37
s-42.167 13 -70.5 13s-52.666 -4.16699 -72.999 -12.5s-36.5 -20.833 -48.5 -37.5s-21.333 -35.5 -28 -56.5s-11.667 -46.167 -15 -75.5l-39 -374c-3.33301 -27.333 -3.83301 -52.333 -1.5 -75s7.66602 -42 15.999 -58s21.833 -28.5 40.5 -37.5s42.167 -13.5 70.5 -13.5z
" />
    <glyph glyph-name="Odieresis" unicode="&#xd6;" horiz-adv-x="515" 
d="M381 878l8 76h56l-8 -76h-56zM221 878l8 76h56l-8 -76h-56zM236 -11c-30.667 0 -57.3291 4.00195 -79.9961 12.002s-40.667 19.167 -54 33.5s-23.666 31.5 -30.999 51.5s-11.333 42 -12 66s0 50 2 78l38 354c3.33301 36 9.66602 67.667 18.999 95
s22.666 51.833 39.999 73.5s39.833 38.167 67.5 49.5s60.167 17 97.5 17s68.666 -5.83301 93.999 -17.5s44.166 -27.834 56.499 -48.501s20.666 -45.5 24.999 -74.5s4.5 -60.5 0.5 -94.5l-38 -355c-4 -36.667 -10.5 -68.834 -19.5 -96.501s-22 -52.667 -39 -75
s-39.5 -39.333 -67.5 -51s-61 -17.5 -99 -17.5zM240.505 34.002c28.333 0 52.666 4.33398 72.999 13.001s36.5 21.5 48.5 38.5s21.333 36.167 28 57.5s11.667 46.333 15 75l39 374c3.33301 27.333 3.83301 52.166 1.5 74.499s-7.66602 41.5 -15.999 57.5
s-21.833 28.333 -40.5 37s-42.167 13 -70.5 13s-52.666 -4.16699 -72.999 -12.5s-36.5 -20.833 -48.5 -37.5s-21.333 -35.5 -28 -56.5s-11.667 -46.167 -15 -75.5l-39 -374c-3.33301 -27.333 -3.83301 -52.333 -1.5 -75s7.66602 -42 15.999 -58s21.833 -28.5 40.5 -37.5
s42.167 -13.5 70.5 -13.5z" />
    <glyph glyph-name="multiply" unicode="&#xd7;" horiz-adv-x="335" 
d="M70 256l-26 29l116 104l-93 104l31 27l93 -103l115 103l25 -27l-115 -104l93 -104l-31 -29l-93 104z" />
    <glyph glyph-name="Oslash" unicode="&#xd8;" horiz-adv-x="522" 
d="M92 -95l-23.998 8.00098l44 112c-24 19.333 -39.667 46.333 -47 81s-8.66602 76 -3.99902 124l38 354c3.33301 36 9.66602 67.667 18.999 95s22.666 51.833 39.999 73.5s39.833 38.167 67.5 49.5s60.167 17 97.5 17s68.666 -6 93.999 -18l38 95l24 -7l-39 -101
c49.333 -35.333 69 -103.333 59 -204l-38 -355c-4 -36.667 -10.5 -68.834 -19.5 -96.501s-22 -52.667 -39 -75s-39.5 -39.333 -67.5 -51s-61 -17.5 -99 -17.5c-41.333 0 -75.333 7 -102 21zM240.002 34.001c28 0 52.333 4.33301 73 13s37 21.5 49 38.5
s21.333 36.167 28 57.5s11.667 46.333 15 75l39 374c7.33301 69.333 -0.666992 118 -24 146l-268 -680c10 -8 22.333 -14 37 -18s31.667 -6 51 -6zM133.002 79.001l266 676c-20 12.667 -47 19 -81 19c-28 0 -52.167 -4.16699 -72.5 -12.5s-36.5 -20.833 -48.5 -37.5
s-21.333 -35.5 -28 -56.5s-11.667 -46.167 -15 -75.5l-39 -374c-6.66699 -64 -0.666992 -110.333 18 -139z" />
    <glyph glyph-name="Ugrave" unicode="&#xd9;" horiz-adv-x="533" 
d="M324 879l-60 194h53l34 -194h-27zM245 -11c-30.667 0 -57.5029 3.33398 -80.5029 10.001s-41.333 16 -55 28s-24.5 26.333 -32.5 43s-12.5 35 -13.5 55s-0.5 41.667 1.5 65l65 620h53l-65 -621c-1.33301 -18 -1.66602 -34.833 -0.999023 -50.5
s3.83398 -29.834 9.50098 -42.501s13.5 -23.667 23.5 -33s23.333 -16.5 40 -21.5s36.667 -7.5 60 -7.5c98.667 0 153.334 51.667 164.001 155l65 621h53l-65 -620c-14 -134 -88 -201 -222 -201z" />
    <glyph glyph-name="Uacute" unicode="&#xda;" horiz-adv-x="533" 
d="M324 879l85 194h53l-110 -194h-28zM245 -11c-30.667 0 -57.5029 3.33398 -80.5029 10.001s-41.333 16 -55 28s-24.5 26.333 -32.5 43s-12.5 35 -13.5 55s-0.5 41.667 1.5 65l65 620h53l-65 -621c-1.33301 -18 -1.66602 -34.833 -0.999023 -50.5
s3.83398 -29.834 9.50098 -42.501s13.5 -23.667 23.5 -33s23.333 -16.5 40 -21.5s36.667 -7.5 60 -7.5c98.667 0 153.334 51.667 164.001 155l65 621h53l-65 -620c-14 -134 -88 -201 -222 -201z" />
    <glyph glyph-name="Ucircumflex" unicode="&#xdb;" horiz-adv-x="533" 
d="M219 878l105 180h66l66 -180h-37l-65 153l-96 -153h-39zM245 -11c-30.667 0 -57.5029 3.33398 -80.5029 10.001s-41.333 16 -55 28s-24.5 26.333 -32.5 43s-12.5 35 -13.5 55s-0.5 41.667 1.5 65l65 620h53l-65 -621c-1.33301 -18 -1.66602 -34.833 -0.999023 -50.5
s3.83398 -29.834 9.50098 -42.501s13.5 -23.667 23.5 -33s23.333 -16.5 40 -21.5s36.667 -7.5 60 -7.5c98.667 0 153.334 51.667 164.001 155l65 621h53l-65 -620c-14 -134 -88 -201 -222 -201z" />
    <glyph glyph-name="Udieresis" unicode="&#xdc;" horiz-adv-x="533" 
d="M390 878l8 76h56l-8 -76h-56zM230 878l8 76h56l-8 -76h-56zM245 -11c-30.667 0 -57.5029 3.33398 -80.5029 10.001s-41.333 16 -55 28s-24.5 26.333 -32.5 43s-12.5 35 -13.5 55s-0.5 41.667 1.5 65l65 620h53l-65 -621c-1.33301 -18 -1.66602 -34.833 -0.999023 -50.5
s3.83398 -29.834 9.50098 -42.501s13.5 -23.667 23.5 -33s23.333 -16.5 40 -21.5s36.667 -7.5 60 -7.5c98.667 0 153.334 51.667 164.001 155l65 621h53l-65 -620c-14 -134 -88 -201 -222 -201z" />
    <glyph glyph-name="Yacute" unicode="&#xdd;" horiz-adv-x="461" 
d="M288 879l85 194h53l-110 -194h-28zM186 0l27 259l-129 551h56l108 -486l202 486h56l-238 -551l-28 -259h-54z" />
    <glyph glyph-name="Thorn" unicode="&#xde;" horiz-adv-x="504" 
d="M140 298h137.999c50.667 0 89.667 14.667 117 44s44 76.333 50 141c12.667 117.333 -28.666 176 -123.999 176h-143zM53.999 0l85.001 809.997h54l-10 -104h151c28 0 52.667 -3.83301 74 -11.5s38.333 -18.5 51 -32.5s22.834 -30.333 30.501 -49s12.167 -38.667 13.5 -60
s1 -44 -1 -68c-2 -23.333 -5.83301 -45.166 -11.5 -65.499s-14.167 -41.166 -25.5 -62.499s-24.833 -39.666 -40.5 -54.999s-35.834 -27.833 -60.501 -37.5s-52.334 -14.5 -83.001 -14.5h-146l-27 -250h-54z" />
    <glyph glyph-name="germandbls" unicode="&#xdf;" horiz-adv-x="484" 
d="M148 -11l5.00293 44.9971c144 0 223 67.667 237 203c1.33301 19.333 1.83301 38.333 1.5 57s-3.66602 36.334 -9.99902 53.001s-14.666 31.167 -24.999 43.5s-24.5 22 -42.5 29s-39 10.5 -63 10.5l8 45c76 0 119.667 53 131 159
c5.33301 50.667 0.166016 88.834 -15.501 114.501s-43.167 38.5 -82.5 38.5c-15.333 0 -28.5 -1.33301 -39.5 -4s-21.833 -7.66699 -32.5 -15s-19.667 -17.5 -27 -30.5s-13.833 -30 -19.5 -51s-9.83398 -46.167 -12.501 -75.5l-65 -611h-53l64 610
c4.66699 42 12 77.5 22 106.5s23 51.667 39 68s34.167 27.833 54.5 34.5s44.166 10 71.499 10c52.667 0 92.167 -16.5 118.5 -49.5s36.166 -81.5 29.499 -145.5c-10.667 -98.667 -49.334 -158 -116.001 -178c25.333 -5.33301 46.5 -15.333 63.5 -30s29.333 -31.667 37 -51
s13 -40.666 16 -63.999s2.83301 -47 -0.5 -71c-17.333 -167.333 -115.333 -251 -294 -251z" />
    <glyph glyph-name="agrave" unicode="&#xe0;" 
d="M218 647l-60 194h53l34 -194h-27zM150 35c23.333 0 44.833 7.66602 64.5 22.999s36.5 34.666 50.5 57.999l20 190c-69.333 -34.667 -113.333 -57.667 -132 -69c-29.333 -19.333 -48.666 -40.333 -57.999 -63c-6 -13.333 -10 -29.666 -12 -48.999
c-3.33301 -31.333 1.66699 -54.166 15 -68.499s30.666 -21.5 51.999 -21.5zM132 -9.00098c-34.667 0 -61.332 11.668 -79.999 35.001s-26.334 53.666 -23.001 90.999c2.66699 26 7.83398 47.5 15.501 64.5s21.667 34.333 42 52s45.666 34.667 75.999 51
s72.833 36.5 127.5 60.5l4 41c5.33301 41.333 6.16602 74 2.49902 98s-10.5 40.5 -20.5 49.5s-25.333 13.5 -46 13.5c-12.667 0 -24 -1.5 -34 -4.5s-20.167 -8.16699 -30.5 -15.5s-18.833 -18.5 -25.5 -33.5s-11 -33.5 -13 -55.5l-2 -16l-51 1
c0 0.666992 0.166992 3.33398 0.5 8.00098l0.5 7c7.33301 52.667 24.333 90.667 51 114s63.667 35 111 35c48 0 80.167 -15 96.5 -45s20.833 -80 13.5 -150l-31 -291c-5.33301 -56.667 -7.66602 -90.334 -6.99902 -101.001h-45c0 43.333 -0.333008 69 -1 77
c-12.667 -25.333 -30.667 -46 -54 -62s-49 -24 -77 -24z" />
    <glyph glyph-name="aacute" unicode="&#xe1;" 
d="M217 647l85 194h53l-110 -194h-28zM150 35c23.333 0 44.833 7.66602 64.5 22.999s36.5 34.666 50.5 57.999l20 190c-69.333 -34.667 -113.333 -57.667 -132 -69c-29.333 -19.333 -48.666 -40.333 -57.999 -63c-6 -13.333 -10 -29.666 -12 -48.999
c-3.33301 -31.333 1.66699 -54.166 15 -68.499s30.666 -21.5 51.999 -21.5zM132 -9.00098c-34.667 0 -61.332 11.668 -79.999 35.001s-26.334 53.666 -23.001 90.999c2.66699 26 7.83398 47.5 15.501 64.5s21.667 34.333 42 52s45.666 34.667 75.999 51
s72.833 36.5 127.5 60.5l4 41c5.33301 41.333 6.16602 74 2.49902 98s-10.5 40.5 -20.5 49.5s-25.333 13.5 -46 13.5c-12.667 0 -24 -1.5 -34 -4.5s-20.167 -8.16699 -30.5 -15.5s-18.833 -18.5 -25.5 -33.5s-11 -33.5 -13 -55.5l-2 -16l-51 1
c0 0.666992 0.166992 3.33398 0.5 8.00098l0.5 7c7.33301 52.667 24.333 90.667 51 114s63.667 35 111 35c48 0 80.167 -15 96.5 -45s20.833 -80 13.5 -150l-31 -291c-5.33301 -56.667 -7.66602 -90.334 -6.99902 -101.001h-45c0 43.333 -0.333008 69 -1 77
c-12.667 -25.333 -30.667 -46 -54 -62s-49 -24 -77 -24z" />
    <glyph glyph-name="acircumflex" unicode="&#xe2;" 
d="M112 647l105 180h66l66 -180h-37l-65 153l-96 -153h-39zM150 35c23.333 0 44.833 7.66602 64.5 22.999s36.5 34.666 50.5 57.999l20 190c-69.333 -34.667 -113.333 -57.667 -132 -69c-29.333 -19.333 -48.666 -40.333 -57.999 -63c-6 -13.333 -10 -29.666 -12 -48.999
c-3.33301 -31.333 1.66699 -54.166 15 -68.499s30.666 -21.5 51.999 -21.5zM132 -9.00098c-34.667 0 -61.332 11.668 -79.999 35.001s-26.334 53.666 -23.001 90.999c2.66699 26 7.83398 47.5 15.501 64.5s21.667 34.333 42 52s45.666 34.667 75.999 51
s72.833 36.5 127.5 60.5l4 41c5.33301 41.333 6.16602 74 2.49902 98s-10.5 40.5 -20.5 49.5s-25.333 13.5 -46 13.5c-12.667 0 -24 -1.5 -34 -4.5s-20.167 -8.16699 -30.5 -15.5s-18.833 -18.5 -25.5 -33.5s-11 -33.5 -13 -55.5l-2 -16l-51 1
c0 0.666992 0.166992 3.33398 0.5 8.00098l0.5 7c7.33301 52.667 24.333 90.667 51 114s63.667 35 111 35c48 0 80.167 -15 96.5 -45s20.833 -80 13.5 -150l-31 -291c-5.33301 -56.667 -7.66602 -90.334 -6.99902 -101.001h-45c0 43.333 -0.333008 69 -1 77
c-12.667 -25.333 -30.667 -46 -54 -62s-49 -24 -77 -24z" />
    <glyph glyph-name="atilde" unicode="&#xe3;" 
d="M274 647c-12.667 0.666992 -28.165 8.16895 -46.498 22.502s-30.833 21.833 -37.5 22.5c-10.667 2.66699 -19.667 0.666992 -27 -6s-11.666 -17.334 -12.999 -32.001h-37c0 4.66699 1 10 3 16s5 13.167 9 21.5s8.83301 15.5 14.5 21.5s13.5 10.667 23.5 14s21.333 4 34 2
c12 -1.33301 27.167 -9 45.5 -23s30.833 -21.667 37.5 -23c12 -1.33301 21.667 1.5 29 8.5s12 19.167 14 36.5h35c-0.666992 -6 -1.83398 -12.167 -3.50098 -18.5s-4.33398 -13.833 -8.00098 -22.5s-8.33398 -16 -14.001 -22s-13.667 -10.833 -24 -14.5
s-21.833 -4.83398 -34.5 -3.50098zM150.002 35.002c23.333 0 44.833 7.66602 64.5 22.999s36.5 34.666 50.5 57.999l20 190c-69.333 -34.667 -113.333 -57.667 -132 -69c-29.333 -19.333 -48.666 -40.333 -57.999 -63c-6 -13.333 -10 -29.666 -12 -48.999
c-3.33301 -31.333 1.66699 -54.166 15 -68.499s30.666 -21.5 51.999 -21.5zM132.002 -8.99902c-34.667 0 -61.332 11.668 -79.999 35.001s-26.334 53.666 -23.001 90.999c2.66699 26 7.83398 47.5 15.501 64.5s21.667 34.333 42 52s45.666 34.667 75.999 51
s72.833 36.5 127.5 60.5l4 41c5.33301 41.333 6.16602 74 2.49902 98s-10.5 40.5 -20.5 49.5s-25.333 13.5 -46 13.5c-12.667 0 -24 -1.5 -34 -4.5s-20.167 -8.16699 -30.5 -15.5s-18.833 -18.5 -25.5 -33.5s-11 -33.5 -13 -55.5l-2 -16l-51 1
c0 0.666992 0.166992 3.33398 0.5 8.00098l0.5 7c7.33301 52.667 24.333 90.667 51 114s63.667 35 111 35c48 0 80.167 -15 96.5 -45s20.833 -80 13.5 -150l-31 -291c-5.33301 -56.667 -7.66602 -90.334 -6.99902 -101.001h-45c0 43.333 -0.333008 69 -1 77
c-12.667 -25.333 -30.667 -46 -54 -62s-49 -24 -77 -24z" />
    <glyph glyph-name="adieresis" unicode="&#xe4;" 
d="M283 647l8 76h56l-8 -76h-56zM123 647l8 76h56l-8 -76h-56zM150 35c23.333 0 44.833 7.66602 64.5 22.999s36.5 34.666 50.5 57.999l20 190c-69.333 -34.667 -113.333 -57.667 -132 -69c-29.333 -19.333 -48.666 -40.333 -57.999 -63c-6 -13.333 -10 -29.666 -12 -48.999
c-3.33301 -31.333 1.66699 -54.166 15 -68.499s30.666 -21.5 51.999 -21.5zM132 -9.00098c-34.667 0 -61.332 11.668 -79.999 35.001s-26.334 53.666 -23.001 90.999c2.66699 26 7.83398 47.5 15.501 64.5s21.667 34.333 42 52s45.666 34.667 75.999 51
s72.833 36.5 127.5 60.5l4 41c5.33301 41.333 6.16602 74 2.49902 98s-10.5 40.5 -20.5 49.5s-25.333 13.5 -46 13.5c-12.667 0 -24 -1.5 -34 -4.5s-20.167 -8.16699 -30.5 -15.5s-18.833 -18.5 -25.5 -33.5s-11 -33.5 -13 -55.5l-2 -16l-51 1
c0 0.666992 0.166992 3.33398 0.5 8.00098l0.5 7c7.33301 52.667 24.333 90.667 51 114s63.667 35 111 35c48 0 80.167 -15 96.5 -45s20.833 -80 13.5 -150l-31 -291c-5.33301 -56.667 -7.66602 -90.334 -6.99902 -101.001h-45c0 43.333 -0.333008 69 -1 77
c-12.667 -25.333 -30.667 -46 -54 -62s-49 -24 -77 -24z" />
    <glyph glyph-name="aring" unicode="&#xe5;" 
d="M231 647c-23.333 0 -42.666 7.16699 -57.999 21.5s-21.5 35.5 -18.5 63.5s13.667 49.167 32 63.5s39.166 21.5 62.499 21.5s42.833 -7.16699 58.5 -21.5s22 -35.5 19 -63.5s-13.833 -49.167 -32.5 -63.5s-39.667 -21.5 -63 -21.5zM234.5 678c15 0 28 4.5 39 13.5
s17.5 22.5 19.5 40.5c2 18.667 -1.5 32.5 -10.5 41.5s-21 13.5 -36 13.5s-28.167 -4.5 -39.5 -13.5s-18 -22.833 -20 -41.5c-2 -18 1.66699 -31.5 11 -40.5s21.5 -13.5 36.5 -13.5zM150 35c23.333 0 44.833 7.66602 64.5 22.999s36.5 34.666 50.5 57.999l20 190
c-69.333 -34.667 -113.333 -57.667 -132 -69c-29.333 -19.333 -48.666 -40.333 -57.999 -63c-6 -13.333 -10 -29.666 -12 -48.999c-3.33301 -31.333 1.66699 -54.166 15 -68.499s30.666 -21.5 51.999 -21.5zM132 -9.00098c-34.667 0 -61.332 11.668 -79.999 35.001
s-26.334 53.666 -23.001 90.999c2.66699 26 7.83398 47.5 15.501 64.5s21.667 34.333 42 52s45.666 34.667 75.999 51s72.833 36.5 127.5 60.5l4 41c5.33301 41.333 6.16602 74 2.49902 98s-10.5 40.5 -20.5 49.5s-25.333 13.5 -46 13.5c-12.667 0 -24 -1.5 -34 -4.5
s-20.167 -8.16699 -30.5 -15.5s-18.833 -18.5 -25.5 -33.5s-11 -33.5 -13 -55.5l-2 -16l-51 1c0 0.666992 0.166992 3.33398 0.5 8.00098l0.5 7c7.33301 52.667 24.333 90.667 51 114s63.667 35 111 35c48 0 80.167 -15 96.5 -45s20.833 -80 13.5 -150l-31 -291
c-5.33301 -56.667 -7.66602 -90.334 -6.99902 -101.001h-45c0 43.333 -0.333008 69 -1 77c-12.667 -25.333 -30.667 -46 -54 -62s-49 -24 -77 -24z" />
    <glyph glyph-name="ae" unicode="&#xe6;" horiz-adv-x="599" 
d="M344 335l105.998 35.999c30.667 10 52.334 21.5 65.001 34.5s20 30.5 22 52.5c2.66699 24.667 -2 45.334 -14 62.001s-32.667 25 -62 25c-33.333 0 -58.666 -11.667 -75.999 -35s-29.333 -65.333 -36 -126zM150.998 31.999c14 0 27.335 2.99902 40.002 8.99902
s25 15.667 37 29s22.5 32.5 31.5 57.5s15.167 54.833 18.5 89.5l8 71c-2 -0.666992 -14.833 -5.5 -38.5 -14.5s-36.5 -14.167 -38.5 -15.5c-21.333 -8 -39.333 -16.167 -54 -24.5s-26.334 -16.333 -35.001 -24s-15.667 -16.5 -21 -26.5s-9 -19.333 -11 -28
s-3.33301 -19.667 -4 -33c-2.66699 -31.333 2.66602 -54.166 15.999 -68.499s30.333 -21.5 51 -21.5zM134 -9.00195c-34.667 0.666992 -61.501 12.4971 -80.501 35.4971s-26.5 53.167 -22.5 90.5c2 20 5.33301 37 10 51s12.834 28.833 24.501 44.5s28.5 30.167 50.5 43.5
s50 25.666 84 36.999l90 30l6 63c4.66699 41.333 5 73.833 1 97.5s-11.167 40 -21.5 49s-25.166 13.5 -44.499 13.5c-62.667 0 -98 -37.667 -106 -113l-50 2c5.33301 50.667 22 88.667 50 114s65.333 38 112 38c29.333 0 52.666 -8 69.999 -24s26.333 -39.333 27 -70
c10.667 33.333 28 57.333 52 72s50.667 22 80 22c42 0 73.5 -12.333 94.5 -37s29.5 -56.334 25.5 -95.001c-2.66699 -28 -15 -51.5 -37 -70.5s-53 -34.5 -93 -46.5l-116 -38l-8 -77c-7.33301 -69.333 -5.33301 -118.333 6 -147s34 -43 68 -43
c9.33301 0 17.666 0.666992 24.999 2s15.5 4.33301 24.5 9s16.5 11.334 22.5 20.001s11.667 20.834 17 36.501s9.33301 33.834 12 54.501l4 40h52l-3 -38c-6 -53.333 -21.167 -94.333 -45.5 -123s-62.166 -43 -113.499 -43c-32.667 0 -59.5 9 -80.5 27
s-32.167 47.667 -33.5 89c-10 -28.667 -24.333 -52.167 -43 -70.5s-37 -30.666 -55 -36.999s-36.333 -9.16602 -55 -8.49902z" />
    <glyph glyph-name="ccedilla" unicode="&#xe7;" horiz-adv-x="375" 
d="M113 -185l3.00195 29c31.333 -2 54.166 -0.333008 68.499 5s22.833 15.333 25.5 30c2.66699 16 -1.33301 29 -12 39s-27.334 16.667 -50.001 20l6 62h29l-5 -47c26 -3.33301 45.333 -12.5 58 -27.5s17.667 -31.833 15 -50.5c-8 -47.333 -54 -67.333 -138 -60zM170.002 -9
c-18 0 -34.002 2.00195 -48.002 6.00195s-25.667 9.5 -35 16.5s-17.166 16 -23.499 27s-11 22.5 -14 34.5s-5 26.167 -6 42.5s-1 32.166 0 47.499s2.5 32.666 4.5 51.999l14 136c8.66699 86.667 25.334 147.334 50.001 182.001s65 52 121 52
c28.667 0 52.334 -4.66699 71.001 -14s31.667 -22.5 39 -39.5s12 -36.833 14 -59.5s1 -47.334 -3 -74.001l-2 -23h-50l2 23c4.66699 38 4.66699 68 0 90s-12.834 37 -24.501 45s-28.5 12 -50.5 12c-16 0 -29.667 -2.16699 -41 -6.5s-21 -10.833 -29 -19.5
s-14.667 -21 -20 -37s-9.66602 -33.5 -12.999 -52.5s-6.66602 -43.167 -9.99902 -72.5l-16 -150c-6.66699 -66 -5 -112.167 5 -138.5s33.333 -39.5 70 -39.5c37.333 0 63 11.833 77 35.5s24.333 66.167 31 127.5l2 22h50l-2 -21c-2.66699 -26 -5.83398 -48 -9.50098 -66
s-9.33398 -36.5 -17.001 -55.5s-17 -34 -28 -45s-25.667 -20 -44 -27s-39.833 -10.5 -64.5 -10.5z" />
    <glyph glyph-name="egrave" unicode="&#xe8;" 
d="M225 647l-60 194h53l34 -194h-27zM113 334h185.002l5 45c3.33301 34.667 4.66602 64.5 3.99902 89.5s-7 44.333 -19 58s-31 20.5 -57 20.5c-23.333 0 -42 -4.33301 -56 -13s-25.833 -25.5 -35.5 -50.5s-16.834 -60.167 -21.501 -105.5zM171.002 -9
c-16 0 -29.999 1.33496 -41.999 4.00195s-23.5 7.33398 -34.5 14.001s-19.833 15.5 -26.5 26.5s-12.334 24.833 -17.001 41.5s-7 36.167 -7 58.5s1 48.5 3 78.5l16 154c4 35.333 9.66699 66.166 17 92.499s16 47.5 26 63.5s21.833 28.833 35.5 38.5
s27.834 16.167 42.501 19.5s31.667 5 51 5c53.333 0 88.5 -17.333 105.5 -52s21.167 -94 12.5 -178l-7 -55h-236l-10 -92c-5.33301 -45.333 -5.83301 -81.333 -1.5 -108s12.5 -45.167 24.5 -55.5s29.333 -15.5 52 -15.5c10 0 18.667 0.666992 26 2s15.666 4.33301 24.999 9
s17.333 11.167 24 19.5s12.667 20.166 18 35.499s9 33.666 11 54.999l5 43h52l-4 -38c-5.33301 -53.333 -20.5 -94.333 -45.5 -123s-63.5 -43 -115.5 -43z" />
    <glyph glyph-name="eacute" unicode="&#xe9;" 
d="M224 647l85 194h53l-110 -194h-28zM113 334h185.002l5 45c3.33301 34.667 4.66602 64.5 3.99902 89.5s-7 44.333 -19 58s-31 20.5 -57 20.5c-23.333 0 -42 -4.33301 -56 -13s-25.833 -25.5 -35.5 -50.5s-16.834 -60.167 -21.501 -105.5zM171.002 -9
c-16 0 -29.999 1.33496 -41.999 4.00195s-23.5 7.33398 -34.5 14.001s-19.833 15.5 -26.5 26.5s-12.334 24.833 -17.001 41.5s-7 36.167 -7 58.5s1 48.5 3 78.5l16 154c4 35.333 9.66699 66.166 17 92.499s16 47.5 26 63.5s21.833 28.833 35.5 38.5
s27.834 16.167 42.501 19.5s31.667 5 51 5c53.333 0 88.5 -17.333 105.5 -52s21.167 -94 12.5 -178l-7 -55h-236l-10 -92c-5.33301 -45.333 -5.83301 -81.333 -1.5 -108s12.5 -45.167 24.5 -55.5s29.333 -15.5 52 -15.5c10 0 18.667 0.666992 26 2s15.666 4.33301 24.999 9
s17.333 11.167 24 19.5s12.667 20.166 18 35.499s9 33.666 11 54.999l5 43h52l-4 -38c-5.33301 -53.333 -20.5 -94.333 -45.5 -123s-63.5 -43 -115.5 -43z" />
    <glyph glyph-name="ecircumflex" unicode="&#xea;" 
d="M120 647l105 180h66l66 -180h-37l-65 153l-96 -153h-39zM113 334h185.002l5 45c3.33301 34.667 4.66602 64.5 3.99902 89.5s-7 44.333 -19 58s-31 20.5 -57 20.5c-23.333 0 -42 -4.33301 -56 -13s-25.833 -25.5 -35.5 -50.5s-16.834 -60.167 -21.501 -105.5zM171.002 -9
c-16 0 -29.999 1.33496 -41.999 4.00195s-23.5 7.33398 -34.5 14.001s-19.833 15.5 -26.5 26.5s-12.334 24.833 -17.001 41.5s-7 36.167 -7 58.5s1 48.5 3 78.5l16 154c4 35.333 9.66699 66.166 17 92.499s16 47.5 26 63.5s21.833 28.833 35.5 38.5
s27.834 16.167 42.501 19.5s31.667 5 51 5c53.333 0 88.5 -17.333 105.5 -52s21.167 -94 12.5 -178l-7 -55h-236l-10 -92c-5.33301 -45.333 -5.83301 -81.333 -1.5 -108s12.5 -45.167 24.5 -55.5s29.333 -15.5 52 -15.5c10 0 18.667 0.666992 26 2s15.666 4.33301 24.999 9
s17.333 11.167 24 19.5s12.667 20.166 18 35.499s9 33.666 11 54.999l5 43h52l-4 -38c-5.33301 -53.333 -20.5 -94.333 -45.5 -123s-63.5 -43 -115.5 -43z" />
    <glyph glyph-name="edieresis" unicode="&#xeb;" 
d="M290 647l8 76h56l-8 -76h-56zM130 647l8 76h56l-8 -76h-56zM113 334h185.002l5 45c3.33301 34.667 4.66602 64.5 3.99902 89.5s-7 44.333 -19 58s-31 20.5 -57 20.5c-23.333 0 -42 -4.33301 -56 -13s-25.833 -25.5 -35.5 -50.5s-16.834 -60.167 -21.501 -105.5z
M171.002 -9c-16 0 -29.999 1.33496 -41.999 4.00195s-23.5 7.33398 -34.5 14.001s-19.833 15.5 -26.5 26.5s-12.334 24.833 -17.001 41.5s-7 36.167 -7 58.5s1 48.5 3 78.5l16 154c4 35.333 9.66699 66.166 17 92.499s16 47.5 26 63.5s21.833 28.833 35.5 38.5
s27.834 16.167 42.501 19.5s31.667 5 51 5c53.333 0 88.5 -17.333 105.5 -52s21.167 -94 12.5 -178l-7 -55h-236l-10 -92c-5.33301 -45.333 -5.83301 -81.333 -1.5 -108s12.5 -45.167 24.5 -55.5s29.333 -15.5 52 -15.5c10 0 18.667 0.666992 26 2s15.666 4.33301 24.999 9
s17.333 11.167 24 19.5s12.667 20.166 18 35.499s9 33.666 11 54.999l5 43h52l-4 -38c-5.33301 -53.333 -20.5 -94.333 -45.5 -123s-63.5 -43 -115.5 -43z" />
    <glyph glyph-name="igrave" unicode="&#xec;" horiz-adv-x="181" 
d="M124 647l-60 194h53l34 -194h-27zM44 0l60 578h54l-61 -578h-53z" />
    <glyph glyph-name="iacute" unicode="&#xed;" horiz-adv-x="181" 
d="M124 647l85 194h53l-110 -194h-28zM44 0l60 578h54l-61 -578h-53z" />
    <glyph glyph-name="icircumflex" unicode="&#xee;" horiz-adv-x="181" 
d="M20 647l105 180h66l66 -180h-37l-65 153l-96 -153h-39zM44 0l60 578h54l-61 -578h-53z" />
    <glyph glyph-name="idieresis" unicode="&#xef;" horiz-adv-x="181" 
d="M190 647l8 76h56l-8 -76h-56zM30 647l8 76h56l-8 -76h-56zM44 0l60 578h54l-61 -578h-53z" />
    <glyph glyph-name="eth" unicode="&#xf0;" horiz-adv-x="429" 
d="M199 32c17.333 0 32.335 2.99902 45.002 8.99902s23.5 14.667 32.5 26s16.667 27.666 23 48.999s11.5 44.833 15.5 70.5s8 57.834 12 96.501c2.66699 24 5.33398 63 8.00098 117s3.66699 83.667 3 89c-12.667 5.33301 -21.834 9.33301 -27.501 12s-14.167 5.5 -25.5 8.5
s-22.333 4.5 -33 4.5c-25.333 0 -46.833 -8 -64.5 -24s-32.834 -43 -45.501 -81s-22.334 -88.667 -29.001 -152c-8.66699 -77.333 -6 -134.166 8 -170.499s40 -54.5 78 -54.5zM193.002 -11.001c-38.667 0 -69.001 9.66797 -91.001 29.001s-36.167 45.833 -42.5 79.5
s-6.83301 75.5 -1.5 125.5l8 79c18 169.333 77.667 254 179 254c31.333 0 63.333 -9 96 -27c-2.66699 65.333 -9.66699 111 -21 137l-105 -28l3 33l90 24c-10.667 29.333 -29.5 51.666 -56.5 66.999s-62.833 25 -107.5 29l6 37
c52.667 -2.66699 95.834 -13.167 129.501 -31.5s58.167 -47.5 73.5 -87.5l83 21l-4 -33l-69 -18c5.33301 -16.667 10.5 -40 15.5 -70s8.83301 -70 11.5 -120s0.666992 -102.333 -6 -157l-9 -84c-4.66699 -44 -11 -81.333 -19 -112s-19 -57.5 -33 -80.5
s-31.667 -39.833 -53 -50.5s-47 -16 -77 -16z" />
    <glyph glyph-name="ntilde" unicode="&#xf1;" horiz-adv-x="391" 
d="M288 647c-12.667 0.666992 -28.165 8.16895 -46.498 22.502s-30.833 21.833 -37.5 22.5c-10.667 2.66699 -19.667 0.666992 -27 -6s-11.666 -17.334 -12.999 -32.001h-37c0 4.66699 1 10 3 16s5 13.167 9 21.5s8.83301 15.5 14.5 21.5s13.5 10.667 23.5 14s21.333 4 34 2
c12 -1.33301 27.167 -9 45.5 -23s30.833 -21.667 37.5 -23c12 -1.33301 21.667 1.5 29 8.5s12 19.167 14 36.5h35c-0.666992 -6 -1.83398 -12.167 -3.50098 -18.5s-4.33398 -13.833 -8.00098 -22.5s-8.33398 -16 -14.001 -22s-13.667 -10.833 -24 -14.5
s-21.833 -4.83398 -34.5 -3.50098zM36.002 0.00195312l60.002 577.999h53l-6 -62c45.333 47.333 93.666 71 144.999 71c28 0 49.167 -10.167 63.5 -30.5s19.166 -52.166 14.499 -95.499l-49 -461h-53l48 455c3.33301 33.333 0.666016 56.833 -8.00098 70.5
s-23 20.5 -43 20.5c-37.333 0 -77.666 -21.333 -120.999 -64l-51 -482h-53z" />
    <glyph glyph-name="ograve" unicode="&#xf2;" horiz-adv-x="382" 
d="M226 647l-60 194h53l34 -194h-27zM169 -9c-38 0 -66.833 8.33203 -86.5 24.999s-31.667 41.167 -36 73.5s-4.16602 72.833 0.500977 121.5l17 156c4 38 9.5 69.833 16.5 95.5s17 48.334 30 68.001s29.5 34 49.5 43s44 13.5 72 13.5c38 0 67 -8.16699 87 -24.5
s32.167 -41 36.5 -74s4.16602 -73.5 -0.500977 -121.5l-17 -156c-8 -76.667 -24.333 -132.5 -49 -167.5s-64.667 -52.5 -120 -52.5zM174 30.999c16.667 0 30.8311 2.66602 42.498 7.99902s21.334 12.5 29.001 21.5s14.167 21.667 19.5 38s9.33301 32.5 12 48.5
s5.33398 36.667 8.00098 62l17 160c3.33301 37.333 4.83301 69.166 4.5 95.499s-6.66602 46.666 -18.999 60.999s-32.166 21.5 -59.499 21.5c-16.667 0 -31 -2.66699 -43 -8s-21.667 -12.666 -29 -21.999s-13.666 -22 -18.999 -38s-9.33301 -32.167 -12 -48.5
s-5.33398 -36.833 -8.00098 -61.5l-17 -160c-3.33301 -37.333 -4.83301 -69.166 -4.5 -95.499s6.66602 -46.666 18.999 -60.999s32.166 -21.5 59.499 -21.5z" />
    <glyph glyph-name="oacute" unicode="&#xf3;" horiz-adv-x="382" 
d="M225 647l85 194h53l-110 -194h-28zM169 -9c-38 0 -66.833 8.33203 -86.5 24.999s-31.667 41.167 -36 73.5s-4.16602 72.833 0.500977 121.5l17 156c4 38 9.5 69.833 16.5 95.5s17 48.334 30 68.001s29.5 34 49.5 43s44 13.5 72 13.5c38 0 67 -8.16699 87 -24.5
s32.167 -41 36.5 -74s4.16602 -73.5 -0.500977 -121.5l-17 -156c-8 -76.667 -24.333 -132.5 -49 -167.5s-64.667 -52.5 -120 -52.5zM174 30.999c16.667 0 30.8311 2.66602 42.498 7.99902s21.334 12.5 29.001 21.5s14.167 21.667 19.5 38s9.33301 32.5 12 48.5
s5.33398 36.667 8.00098 62l17 160c3.33301 37.333 4.83301 69.166 4.5 95.499s-6.66602 46.666 -18.999 60.999s-32.166 21.5 -59.499 21.5c-16.667 0 -31 -2.66699 -43 -8s-21.667 -12.666 -29 -21.999s-13.666 -22 -18.999 -38s-9.33301 -32.167 -12 -48.5
s-5.33398 -36.833 -8.00098 -61.5l-17 -160c-3.33301 -37.333 -4.83301 -69.166 -4.5 -95.499s6.66602 -46.666 18.999 -60.999s32.166 -21.5 59.499 -21.5z" />
    <glyph glyph-name="ocircumflex" unicode="&#xf4;" horiz-adv-x="382" 
d="M120 647l105 180h66l66 -180h-37l-65 153l-96 -153h-39zM169 -9c-38 0 -66.833 8.33203 -86.5 24.999s-31.667 41.167 -36 73.5s-4.16602 72.833 0.500977 121.5l17 156c4 38 9.5 69.833 16.5 95.5s17 48.334 30 68.001s29.5 34 49.5 43s44 13.5 72 13.5
c38 0 67 -8.16699 87 -24.5s32.167 -41 36.5 -74s4.16602 -73.5 -0.500977 -121.5l-17 -156c-8 -76.667 -24.333 -132.5 -49 -167.5s-64.667 -52.5 -120 -52.5zM174 30.999c16.667 0 30.8311 2.66602 42.498 7.99902s21.334 12.5 29.001 21.5s14.167 21.667 19.5 38
s9.33301 32.5 12 48.5s5.33398 36.667 8.00098 62l17 160c3.33301 37.333 4.83301 69.166 4.5 95.499s-6.66602 46.666 -18.999 60.999s-32.166 21.5 -59.499 21.5c-16.667 0 -31 -2.66699 -43 -8s-21.667 -12.666 -29 -21.999s-13.666 -22 -18.999 -38
s-9.33301 -32.167 -12 -48.5s-5.33398 -36.833 -8.00098 -61.5l-17 -160c-3.33301 -37.333 -4.83301 -69.166 -4.5 -95.499s6.66602 -46.666 18.999 -60.999s32.166 -21.5 59.499 -21.5z" />
    <glyph glyph-name="otilde" unicode="&#xf5;" horiz-adv-x="382" 
d="M282 647c-12.667 0.666992 -28.165 8.16895 -46.498 22.502s-30.833 21.833 -37.5 22.5c-10.667 2.66699 -19.667 0.666992 -27 -6s-11.666 -17.334 -12.999 -32.001h-37c0 4.66699 1 10 3 16s5 13.167 9 21.5s8.83301 15.5 14.5 21.5s13.5 10.667 23.5 14s21.333 4 34 2
c12 -1.33301 27.167 -9 45.5 -23s30.833 -21.667 37.5 -23c12 -1.33301 21.667 1.5 29 8.5s12 19.167 14 36.5h35c-0.666992 -6 -1.83398 -12.167 -3.50098 -18.5s-4.33398 -13.833 -8.00098 -22.5s-8.33398 -16 -14.001 -22s-13.667 -10.833 -24 -14.5
s-21.833 -4.83398 -34.5 -3.50098zM169.002 -8.99805c-38 0 -66.833 8.33203 -86.5 24.999s-31.667 41.167 -36 73.5s-4.16602 72.833 0.500977 121.5l17 156c4 38 9.5 69.833 16.5 95.5s17 48.334 30 68.001s29.5 34 49.5 43s44 13.5 72 13.5c38 0 67 -8.16699 87 -24.5
s32.167 -41 36.5 -74s4.16602 -73.5 -0.500977 -121.5l-17 -156c-8 -76.667 -24.333 -132.5 -49 -167.5s-64.667 -52.5 -120 -52.5zM174.002 31.001c16.667 0 30.8311 2.66602 42.498 7.99902s21.334 12.5 29.001 21.5s14.167 21.667 19.5 38s9.33301 32.5 12 48.5
s5.33398 36.667 8.00098 62l17 160c3.33301 37.333 4.83301 69.166 4.5 95.499s-6.66602 46.666 -18.999 60.999s-32.166 21.5 -59.499 21.5c-16.667 0 -31 -2.66699 -43 -8s-21.667 -12.666 -29 -21.999s-13.666 -22 -18.999 -38s-9.33301 -32.167 -12 -48.5
s-5.33398 -36.833 -8.00098 -61.5l-17 -160c-3.33301 -37.333 -4.83301 -69.166 -4.5 -95.499s6.66602 -46.666 18.999 -60.999s32.166 -21.5 59.499 -21.5z" />
    <glyph glyph-name="odieresis" unicode="&#xf6;" horiz-adv-x="382" 
d="M291 647l8 76h56l-8 -76h-56zM131 647l8 76h56l-8 -76h-56zM169 -9c-38 0 -66.833 8.33203 -86.5 24.999s-31.667 41.167 -36 73.5s-4.16602 72.833 0.500977 121.5l17 156c4 38 9.5 69.833 16.5 95.5s17 48.334 30 68.001s29.5 34 49.5 43s44 13.5 72 13.5
c38 0 67 -8.16699 87 -24.5s32.167 -41 36.5 -74s4.16602 -73.5 -0.500977 -121.5l-17 -156c-8 -76.667 -24.333 -132.5 -49 -167.5s-64.667 -52.5 -120 -52.5zM174 30.999c16.667 0 30.8311 2.66602 42.498 7.99902s21.334 12.5 29.001 21.5s14.167 21.667 19.5 38
s9.33301 32.5 12 48.5s5.33398 36.667 8.00098 62l17 160c3.33301 37.333 4.83301 69.166 4.5 95.499s-6.66602 46.666 -18.999 60.999s-32.166 21.5 -59.499 21.5c-16.667 0 -31 -2.66699 -43 -8s-21.667 -12.666 -29 -21.999s-13.666 -22 -18.999 -38
s-9.33301 -32.167 -12 -48.5s-5.33398 -36.833 -8.00098 -61.5l-17 -160c-3.33301 -37.333 -4.83301 -69.166 -4.5 -95.499s6.66602 -46.666 18.999 -60.999s32.166 -21.5 59.499 -21.5z" />
    <glyph glyph-name="divide" unicode="&#xf7;" horiz-adv-x="331" 
d="M176 536l9 78h49l-8 -78h-50zM51 396l5 43h271l-5 -43h-271zM143 210l8 79h49l-8 -79h-49z" />
    <glyph glyph-name="oslash" unicode="&#xf8;" horiz-adv-x="382" 
d="M44 -65l-18.999 6.99707l43 90c-12.667 17.333 -20.5 41.333 -23.5 72s-2.16699 66.334 2.5 107.001l17 156c4 38 9.5 69.833 16.5 95.5s17 48.334 30 68.001s29.5 34 49.5 43s44 13.5 72 13.5c19.333 0 36.166 -2 50.499 -6s26.5 -10.333 36.5 -19l35 72l20 -9l-39 -81
c12 -17.333 19.5 -41.166 22.5 -71.499s2.16699 -65.5 -2.5 -105.5l-17 -156c-8 -76.667 -24.333 -132.5 -49 -167.5s-64.667 -52.5 -120 -52.5c-38 0 -66.667 8.33301 -86 25zM174.001 30.9971c16.667 0 30.8311 2.66699 42.498 8s21.334 12.5 29.001 21.5
s14.167 21.667 19.5 38s9.33301 32.5 12 48.5s5.33398 36.667 8.00098 62l17 160c5.33301 51.333 6.33301 88.333 3 111l-199 -415c12 -22.667 34.667 -34 68 -34zM96.998 94.9971l199 416.999c-11.333 23.333 -34 35 -68 35c-16.667 0 -31 -2.66699 -43 -8
s-21.667 -12.666 -29 -21.999s-13.666 -22 -18.999 -38s-9.33301 -32.167 -12 -48.5s-5.33398 -36.833 -8.00098 -61.5l-17 -160c-5.33301 -52.667 -6.33301 -90.667 -3 -114z" />
    <glyph glyph-name="ugrave" unicode="&#xf9;" horiz-adv-x="394" 
d="M228 647l-60 194h53l34 -194h-27zM121 -9c-28 0 -48.999 10.168 -62.999 30.501s-19 52.166 -15 95.499l48 461h54l-48 -455c-3.33301 -33.333 -0.5 -56.833 8.5 -70.5s23.167 -20.5 42.5 -20.5s40.166 6.33301 62.499 19s43.5 29.667 63.5 51l50 476h53l-60 -578h-53
l7 68c-46 -51.333 -96 -77 -150 -77z" />
    <glyph glyph-name="uacute" unicode="&#xfa;" horiz-adv-x="394" 
d="M227 647l85 194h53l-110 -194h-28zM121 -9c-28 0 -48.999 10.168 -62.999 30.501s-19 52.166 -15 95.499l48 461h54l-48 -455c-3.33301 -33.333 -0.5 -56.833 8.5 -70.5s23.167 -20.5 42.5 -20.5s40.166 6.33301 62.499 19s43.5 29.667 63.5 51l50 476h53l-60 -578h-53
l7 68c-46 -51.333 -96 -77 -150 -77z" />
    <glyph glyph-name="ucircumflex" unicode="&#xfb;" horiz-adv-x="394" 
d="M123 647l105 180h66l66 -180h-37l-65 153l-96 -153h-39zM121 -9c-28 0 -48.999 10.168 -62.999 30.501s-19 52.166 -15 95.499l48 461h54l-48 -455c-3.33301 -33.333 -0.5 -56.833 8.5 -70.5s23.167 -20.5 42.5 -20.5s40.166 6.33301 62.499 19s43.5 29.667 63.5 51
l50 476h53l-60 -578h-53l7 68c-46 -51.333 -96 -77 -150 -77z" />
    <glyph glyph-name="udieresis" unicode="&#xfc;" horiz-adv-x="394" 
d="M293 647l8 76h56l-8 -76h-56zM133 647l8 76h56l-8 -76h-56zM121 -9c-28 0 -48.999 10.168 -62.999 30.501s-19 52.166 -15 95.499l48 461h54l-48 -455c-3.33301 -33.333 -0.5 -56.833 8.5 -70.5s23.167 -20.5 42.5 -20.5s40.166 6.33301 62.499 19s43.5 29.667 63.5 51
l50 476h53l-60 -578h-53l7 68c-46 -51.333 -96 -77 -150 -77z" />
    <glyph glyph-name="yacute" unicode="&#xfd;" horiz-adv-x="374" 
d="M221 647l85 194h53l-110 -194h-28zM1 -144l4.99902 43c22.667 0 41.834 1.16699 57.501 3.5s28.167 5.5 37.5 9.5s16.833 9.5 22.5 16.5s9.5 14.167 11.5 21.5s3 17 3 29c0 10 -2.66699 36.667 -8 80l-67 519h53l59 -528l165 528h53l-207 -625
c-12 -34 -30.5 -58.667 -55.5 -74s-60.833 -23 -107.5 -23h-22z" />
    <glyph glyph-name="thorn" unicode="&#xfe;" horiz-adv-x="397" 
d="M193 32c34.667 0 59.832 15.5 75.499 46.5s27.167 83.5 34.5 157.5l11 113c8 72.667 7.83301 123.667 -0.5 153s-30.166 44 -65.499 44c-34 0 -69.333 -18 -106 -54l-43 -408c24.667 -34.667 56 -52 94 -52zM16.998 -190l104.999 1000h53l-29 -281
c34 39.333 73 58.666 117 57.999c34 0 59.833 -9.83301 77.5 -29.5s27.834 -47.167 30.501 -82.5s1.66699 -77.333 -3 -126l-12 -111c-8.66699 -84.667 -25.167 -147 -49.5 -187s-61.5 -60 -111.5 -60c-40 0 -73.333 19 -100 57l-25 -238h-53z" />
    <glyph glyph-name="ydieresis" unicode="&#xff;" horiz-adv-x="374" 
d="M286 647l8 76h56l-8 -76h-56zM126 647l8 76h56l-8 -76h-56zM1 -144l4.99902 43c22.667 0 41.834 1.16699 57.501 3.5s28.167 5.5 37.5 9.5s16.833 9.5 22.5 16.5s9.5 14.167 11.5 21.5s3 17 3 29c0 10 -2.66699 36.667 -8 80l-67 519h53l59 -528l165 528h53l-207 -625
c-12 -34 -30.5 -58.667 -55.5 -74s-60.833 -23 -107.5 -23h-22z" />
    <glyph glyph-name="Amacron" unicode="&#x100;" horiz-adv-x="468" 
d="M220 878l3 37h171l-4 -37h-170zM145 264h194l-48 480zM11 0l256 810h62l86 -810h-55l-18 224h-210l-67 -224h-54z" />
    <glyph glyph-name="amacron" unicode="&#x101;" 
d="M146 647l3 37h171l-4 -37h-170zM150 35c23.333 0 44.833 7.66602 64.5 22.999s36.5 34.666 50.5 57.999l20 190c-69.333 -34.667 -113.333 -57.667 -132 -69c-29.333 -19.333 -48.666 -40.333 -57.999 -63c-6 -13.333 -10 -29.666 -12 -48.999
c-3.33301 -31.333 1.66699 -54.166 15 -68.499s30.666 -21.5 51.999 -21.5zM132 -9.00098c-34.667 0 -61.332 11.668 -79.999 35.001s-26.334 53.666 -23.001 90.999c2.66699 26 7.83398 47.5 15.501 64.5s21.667 34.333 42 52s45.666 34.667 75.999 51
s72.833 36.5 127.5 60.5l4 41c5.33301 41.333 6.16602 74 2.49902 98s-10.5 40.5 -20.5 49.5s-25.333 13.5 -46 13.5c-12.667 0 -24 -1.5 -34 -4.5s-20.167 -8.16699 -30.5 -15.5s-18.833 -18.5 -25.5 -33.5s-11 -33.5 -13 -55.5l-2 -16l-51 1
c0 0.666992 0.166992 3.33398 0.5 8.00098l0.5 7c7.33301 52.667 24.333 90.667 51 114s63.667 35 111 35c48 0 80.167 -15 96.5 -45s20.833 -80 13.5 -150l-31 -291c-5.33301 -56.667 -7.66602 -90.334 -6.99902 -101.001h-45c0 43.333 -0.333008 69 -1 77
c-12.667 -25.333 -30.667 -46 -54 -62s-49 -24 -77 -24z" />
    <glyph glyph-name="Abreve" unicode="&#x102;" horiz-adv-x="468" 
d="M303 879c-34.667 0 -61.1689 9.16895 -79.502 27.502s-26.5 46.166 -24.5 83.499h38c-2 -26.667 3.5 -46.167 16.5 -58.5s30.833 -18.5 53.5 -18.5c50.667 0 80.334 25.667 89.001 77h37c-5.33301 -36.667 -19.666 -64.334 -42.999 -83.001s-52.333 -28 -87 -28z
M144.998 264.002h194l-48 480zM10.998 0.00195312l256 810h62l86 -810h-55l-18 224h-210l-67 -224h-54z" />
    <glyph glyph-name="abreve" unicode="&#x103;" 
d="M230 647c-34.667 0 -61.1689 9.16895 -79.502 27.502s-26.5 46.166 -24.5 83.499h38c-2 -26.667 3.5 -46.167 16.5 -58.5s30.833 -18.5 53.5 -18.5c50.667 0 80.334 25.667 89.001 77h37c-5.33301 -36.667 -19.666 -64.334 -42.999 -83.001s-52.333 -28 -87 -28z
M149.998 35.002c23.333 0 44.833 7.66602 64.5 22.999s36.5 34.666 50.5 57.999l20 190c-69.333 -34.667 -113.333 -57.667 -132 -69c-29.333 -19.333 -48.666 -40.333 -57.999 -63c-6 -13.333 -10 -29.666 -12 -48.999c-3.33301 -31.333 1.66699 -54.166 15 -68.499
s30.666 -21.5 51.999 -21.5zM131.998 -8.99902c-34.667 0 -61.332 11.668 -79.999 35.001s-26.334 53.666 -23.001 90.999c2.66699 26 7.83398 47.5 15.501 64.5s21.667 34.333 42 52s45.666 34.667 75.999 51s72.833 36.5 127.5 60.5l4 41
c5.33301 41.333 6.16602 74 2.49902 98s-10.5 40.5 -20.5 49.5s-25.333 13.5 -46 13.5c-12.667 0 -24 -1.5 -34 -4.5s-20.167 -8.16699 -30.5 -15.5s-18.833 -18.5 -25.5 -33.5s-11 -33.5 -13 -55.5l-2 -16l-51 1c0 0.666992 0.166992 3.33398 0.5 8.00098l0.5 7
c7.33301 52.667 24.333 90.667 51 114s63.667 35 111 35c48 0 80.167 -15 96.5 -45s20.833 -80 13.5 -150l-31 -291c-5.33301 -56.667 -7.66602 -90.334 -6.99902 -101.001h-45c0 43.333 -0.333008 69 -1 77c-12.667 -25.333 -30.667 -46 -54 -62s-49 -24 -77 -24z" />
    <glyph glyph-name="Aogonek" unicode="&#x104;" horiz-adv-x="468" 
d="M416 -199c-40.667 0 -70.668 6.83301 -90.001 20.5s-27.666 33.5 -24.999 59.5c2.66699 23.333 13 46.333 31 69s38.667 40 62 52h30c-50 -45.333 -77 -84.333 -81 -117c-2 -18.667 5.16699 -32.167 21.5 -40.5s37.5 -12.5 63.5 -12.5zM144.999 264h194l-48 480z
M10.999 0l256 810h62l86 -810h-55l-18 224h-210l-67 -224h-54z" />
    <glyph glyph-name="aogonek" unicode="&#x105;" 
d="M335 -199c-40.667 0 -70.668 6.83301 -90.001 20.5s-27.666 33.5 -24.999 59.5c2.66699 23.333 13 46.333 31 69s38.667 40 62 52h30c-50 -45.333 -77 -84.333 -81 -117c-2 -18.667 5.16699 -32.167 21.5 -40.5s37.5 -12.5 63.5 -12.5zM149.999 35
c23.333 0 44.833 7.66602 64.5 22.999s36.5 34.666 50.5 57.999l20 190c-69.333 -34.667 -113.333 -57.667 -132 -69c-29.333 -19.333 -48.666 -40.333 -57.999 -63c-6 -13.333 -10 -29.666 -12 -48.999c-3.33301 -31.333 1.66699 -54.166 15 -68.499
s30.666 -21.5 51.999 -21.5zM131.999 -9.00098c-34.667 0 -61.332 11.668 -79.999 35.001s-26.334 53.666 -23.001 90.999c2.66699 26 7.83398 47.5 15.501 64.5s21.667 34.333 42 52s45.666 34.667 75.999 51s72.833 36.5 127.5 60.5l4 41
c5.33301 41.333 6.16602 74 2.49902 98s-10.5 40.5 -20.5 49.5s-25.333 13.5 -46 13.5c-12.667 0 -24 -1.5 -34 -4.5s-20.167 -8.16699 -30.5 -15.5s-18.833 -18.5 -25.5 -33.5s-11 -33.5 -13 -55.5l-2 -16l-51 1c0 0.666992 0.166992 3.33398 0.5 8.00098l0.5 7
c7.33301 52.667 24.333 90.667 51 114s63.667 35 111 35c48 0 80.167 -15 96.5 -45s20.833 -80 13.5 -150l-31 -291c-5.33301 -56.667 -7.66602 -90.334 -6.99902 -101.001h-45c0 43.333 -0.333008 69 -1 77c-12.667 -25.333 -30.667 -46 -54 -62s-49 -24 -77 -24z" />
    <glyph glyph-name="Cacute" unicode="&#x106;" horiz-adv-x="488" 
d="M306 879l85 194h53l-110 -194h-28zM233 -11c-31.333 0 -58.333 4.16406 -81 12.4971s-40.334 19.833 -53.001 34.5s-22.5 32.334 -29.5 53.001s-10.667 43 -11 67s0.833984 49.667 3.50098 77l36 344c2.66699 29.333 7.16699 55.666 13.5 78.999s15.166 45.333 26.499 66
s25 38 41 52s35.833 25 59.5 33s50.834 12 81.501 12c34.667 0 63.667 -5.5 87 -16.5s40.666 -26.333 51.999 -46s19 -43.5 23 -71.5s3.66699 -59.333 -1 -94l-4 -41h-52l5 41c3.33301 28.667 4 54.334 2 77.001s-6.83301 42 -14.5 58s-20 28 -37 36s-38.5 12 -64.5 12
c-28.667 0 -53 -4.33301 -73 -13s-36 -22 -48 -40s-21.167 -37.833 -27.5 -59.5s-11.166 -47.834 -14.499 -78.501l-37 -358c-3.33301 -30 -4 -56.833 -2 -80.5s7.33301 -43.667 16 -60s22 -28.833 40 -37.5s40.667 -13 68 -13c26 0 48.333 4.33301 67 13
s33.667 21.334 45 38.001s20 35.5 26 56.5s10.667 46.5 14 76.5l5 49h52l-4 -40c-3.33301 -36.667 -9.33301 -68.667 -18 -96s-21 -52.166 -37 -74.499s-37 -39.166 -63 -50.499s-56.667 -17 -92 -17z" />
    <glyph glyph-name="cacute" unicode="&#x107;" horiz-adv-x="375" 
d="M223 647l85 194h53l-110 -194h-28zM170 -9c-18 0 -34.002 2.00195 -48.002 6.00195s-25.667 9.5 -35 16.5s-17.166 16 -23.499 27s-11 22.5 -14 34.5s-5 26.167 -6 42.5s-1 32.166 0 47.499s2.5 32.666 4.5 51.999l14 136c8.66699 86.667 25.334 147.334 50.001 182.001
s65 52 121 52c28.667 0 52.334 -4.66699 71.001 -14s31.667 -22.5 39 -39.5s12 -36.833 14 -59.5s1 -47.334 -3 -74.001l-2 -23h-50l2 23c4.66699 38 4.66699 68 0 90s-12.834 37 -24.501 45s-28.5 12 -50.5 12c-16 0 -29.667 -2.16699 -41 -6.5s-21 -10.833 -29 -19.5
s-14.667 -21 -20 -37s-9.66602 -33.5 -12.999 -52.5s-6.66602 -43.167 -9.99902 -72.5l-16 -150c-6.66699 -66 -5 -112.167 5 -138.5s33.333 -39.5 70 -39.5c37.333 0 63 11.833 77 35.5s24.333 66.167 31 127.5l2 22h50l-2 -21c-2.66699 -26 -5.83398 -48 -9.50098 -66
s-9.33398 -36.5 -17.001 -55.5s-17 -34 -28 -45s-25.667 -20 -44 -27s-39.833 -10.5 -64.5 -10.5z" />
    <glyph glyph-name="Ccircumflex" unicode="&#x108;" horiz-adv-x="488" 
d="M202 878l105 180h66l66 -180h-37l-65 153l-96 -153h-39zM233 -11c-31.333 0 -58.333 4.16406 -81 12.4971s-40.334 19.833 -53.001 34.5s-22.5 32.334 -29.5 53.001s-10.667 43 -11 67s0.833984 49.667 3.50098 77l36 344c2.66699 29.333 7.16699 55.666 13.5 78.999
s15.166 45.333 26.499 66s25 38 41 52s35.833 25 59.5 33s50.834 12 81.501 12c34.667 0 63.667 -5.5 87 -16.5s40.666 -26.333 51.999 -46s19 -43.5 23 -71.5s3.66699 -59.333 -1 -94l-4 -41h-52l5 41c3.33301 28.667 4 54.334 2 77.001s-6.83301 42 -14.5 58
s-20 28 -37 36s-38.5 12 -64.5 12c-28.667 0 -53 -4.33301 -73 -13s-36 -22 -48 -40s-21.167 -37.833 -27.5 -59.5s-11.166 -47.834 -14.499 -78.501l-37 -358c-3.33301 -30 -4 -56.833 -2 -80.5s7.33301 -43.667 16 -60s22 -28.833 40 -37.5s40.667 -13 68 -13
c26 0 48.333 4.33301 67 13s33.667 21.334 45 38.001s20 35.5 26 56.5s10.667 46.5 14 76.5l5 49h52l-4 -40c-3.33301 -36.667 -9.33301 -68.667 -18 -96s-21 -52.166 -37 -74.499s-37 -39.166 -63 -50.499s-56.667 -17 -92 -17z" />
    <glyph glyph-name="ccircumflex" unicode="&#x109;" horiz-adv-x="375" 
d="M118 647l105 180h66l66 -180h-37l-65 153l-96 -153h-39zM170 -9c-18 0 -34.002 2.00195 -48.002 6.00195s-25.667 9.5 -35 16.5s-17.166 16 -23.499 27s-11 22.5 -14 34.5s-5 26.167 -6 42.5s-1 32.166 0 47.499s2.5 32.666 4.5 51.999l14 136
c8.66699 86.667 25.334 147.334 50.001 182.001s65 52 121 52c28.667 0 52.334 -4.66699 71.001 -14s31.667 -22.5 39 -39.5s12 -36.833 14 -59.5s1 -47.334 -3 -74.001l-2 -23h-50l2 23c4.66699 38 4.66699 68 0 90s-12.834 37 -24.501 45s-28.5 12 -50.5 12
c-16 0 -29.667 -2.16699 -41 -6.5s-21 -10.833 -29 -19.5s-14.667 -21 -20 -37s-9.66602 -33.5 -12.999 -52.5s-6.66602 -43.167 -9.99902 -72.5l-16 -150c-6.66699 -66 -5 -112.167 5 -138.5s33.333 -39.5 70 -39.5c37.333 0 63 11.833 77 35.5s24.333 66.167 31 127.5
l2 22h50l-2 -21c-2.66699 -26 -5.83398 -48 -9.50098 -66s-9.33398 -36.5 -17.001 -55.5s-17 -34 -28 -45s-25.667 -20 -44 -27s-39.833 -10.5 -64.5 -10.5z" />
    <glyph glyph-name="Cdotaccent" unicode="&#x10a;" horiz-adv-x="488" 
d="M291 879l11 104h60l-11 -104h-60zM233 -11c-31.333 0 -58.333 4.16406 -81 12.4971s-40.334 19.833 -53.001 34.5s-22.5 32.334 -29.5 53.001s-10.667 43 -11 67s0.833984 49.667 3.50098 77l36 344c2.66699 29.333 7.16699 55.666 13.5 78.999s15.166 45.333 26.499 66
s25 38 41 52s35.833 25 59.5 33s50.834 12 81.501 12c34.667 0 63.667 -5.5 87 -16.5s40.666 -26.333 51.999 -46s19 -43.5 23 -71.5s3.66699 -59.333 -1 -94l-4 -41h-52l5 41c3.33301 28.667 4 54.334 2 77.001s-6.83301 42 -14.5 58s-20 28 -37 36s-38.5 12 -64.5 12
c-28.667 0 -53 -4.33301 -73 -13s-36 -22 -48 -40s-21.167 -37.833 -27.5 -59.5s-11.166 -47.834 -14.499 -78.501l-37 -358c-3.33301 -30 -4 -56.833 -2 -80.5s7.33301 -43.667 16 -60s22 -28.833 40 -37.5s40.667 -13 68 -13c26 0 48.333 4.33301 67 13
s33.667 21.334 45 38.001s20 35.5 26 56.5s10.667 46.5 14 76.5l5 49h52l-4 -40c-3.33301 -36.667 -9.33301 -68.667 -18 -96s-21 -52.166 -37 -74.499s-37 -39.166 -63 -50.499s-56.667 -17 -92 -17z" />
    <glyph glyph-name="cdotaccent" unicode="&#x10b;" horiz-adv-x="375" 
d="M207 647l11 104h60l-11 -104h-60zM170 -9c-18 0 -34.002 2.00195 -48.002 6.00195s-25.667 9.5 -35 16.5s-17.166 16 -23.499 27s-11 22.5 -14 34.5s-5 26.167 -6 42.5s-1 32.166 0 47.499s2.5 32.666 4.5 51.999l14 136c8.66699 86.667 25.334 147.334 50.001 182.001
s65 52 121 52c28.667 0 52.334 -4.66699 71.001 -14s31.667 -22.5 39 -39.5s12 -36.833 14 -59.5s1 -47.334 -3 -74.001l-2 -23h-50l2 23c4.66699 38 4.66699 68 0 90s-12.834 37 -24.501 45s-28.5 12 -50.5 12c-16 0 -29.667 -2.16699 -41 -6.5s-21 -10.833 -29 -19.5
s-14.667 -21 -20 -37s-9.66602 -33.5 -12.999 -52.5s-6.66602 -43.167 -9.99902 -72.5l-16 -150c-6.66699 -66 -5 -112.167 5 -138.5s33.333 -39.5 70 -39.5c37.333 0 63 11.833 77 35.5s24.333 66.167 31 127.5l2 22h50l-2 -21c-2.66699 -26 -5.83398 -48 -9.50098 -66
s-9.33398 -36.5 -17.001 -55.5s-17 -34 -28 -45s-25.667 -20 -44 -27s-39.833 -10.5 -64.5 -10.5z" />
    <glyph glyph-name="Ccaron" unicode="&#x10c;" horiz-adv-x="488" 
d="M300 878l-68 163h46l47 -122l72 122h45l-102 -163h-40zM233 -11c-31.333 0 -58.333 4.16406 -81 12.4971s-40.334 19.833 -53.001 34.5s-22.5 32.334 -29.5 53.001s-10.667 43 -11 67s0.833984 49.667 3.50098 77l36 344c2.66699 29.333 7.16699 55.666 13.5 78.999
s15.166 45.333 26.499 66s25 38 41 52s35.833 25 59.5 33s50.834 12 81.501 12c34.667 0 63.667 -5.5 87 -16.5s40.666 -26.333 51.999 -46s19 -43.5 23 -71.5s3.66699 -59.333 -1 -94l-4 -41h-52l5 41c3.33301 28.667 4 54.334 2 77.001s-6.83301 42 -14.5 58
s-20 28 -37 36s-38.5 12 -64.5 12c-28.667 0 -53 -4.33301 -73 -13s-36 -22 -48 -40s-21.167 -37.833 -27.5 -59.5s-11.166 -47.834 -14.499 -78.501l-37 -358c-3.33301 -30 -4 -56.833 -2 -80.5s7.33301 -43.667 16 -60s22 -28.833 40 -37.5s40.667 -13 68 -13
c26 0 48.333 4.33301 67 13s33.667 21.334 45 38.001s20 35.5 26 56.5s10.667 46.5 14 76.5l5 49h52l-4 -40c-3.33301 -36.667 -9.33301 -68.667 -18 -96s-21 -52.166 -37 -74.499s-37 -39.166 -63 -50.499s-56.667 -17 -92 -17z" />
    <glyph glyph-name="ccaron" unicode="&#x10d;" horiz-adv-x="375" 
d="M217 647l-68 163h46l47 -122l72 122h45l-102 -163h-40zM170 -9c-18 0 -34.002 2.00195 -48.002 6.00195s-25.667 9.5 -35 16.5s-17.166 16 -23.499 27s-11 22.5 -14 34.5s-5 26.167 -6 42.5s-1 32.166 0 47.499s2.5 32.666 4.5 51.999l14 136
c8.66699 86.667 25.334 147.334 50.001 182.001s65 52 121 52c28.667 0 52.334 -4.66699 71.001 -14s31.667 -22.5 39 -39.5s12 -36.833 14 -59.5s1 -47.334 -3 -74.001l-2 -23h-50l2 23c4.66699 38 4.66699 68 0 90s-12.834 37 -24.501 45s-28.5 12 -50.5 12
c-16 0 -29.667 -2.16699 -41 -6.5s-21 -10.833 -29 -19.5s-14.667 -21 -20 -37s-9.66602 -33.5 -12.999 -52.5s-6.66602 -43.167 -9.99902 -72.5l-16 -150c-6.66699 -66 -5 -112.167 5 -138.5s33.333 -39.5 70 -39.5c37.333 0 63 11.833 77 35.5s24.333 66.167 31 127.5
l2 22h50l-2 -21c-2.66699 -26 -5.83398 -48 -9.50098 -66s-9.33398 -36.5 -17.001 -55.5s-17 -34 -28 -45s-25.667 -20 -44 -27s-39.833 -10.5 -64.5 -10.5z" />
    <glyph glyph-name="Dcaron" unicode="&#x10e;" horiz-adv-x="517" 
d="M318 878l-68 163h46l47 -122l72 122h45l-102 -163h-40zM54 0l84.999 809.999h177c31.333 0 58.833 -4 82.5 -12s42.334 -19 56.001 -33s24.667 -30.667 33 -50s12.833 -40.666 13.5 -63.999s0 -48 -2 -74l-35 -336c-4 -36.667 -10.667 -69 -20 -97
s-22.833 -53.167 -40.5 -75.5s-40.5 -39.333 -68.5 -51s-61 -17.5 -99 -17.5h-182zM112.999 42.999l125.003 -0.00195312c21.333 0 40.5 2.33301 57.5 7s31.333 11.834 43 21.501s21.667 20.334 30 32.001s15.166 25.667 20.499 42s9.5 32.333 12.5 48
s5.83301 33.5 8.5 53.5l34 326c4 29.333 4.66699 56 2 80s-8.33398 44.333 -17.001 61s-22.834 29.5 -42.501 38.5s-44.5 13.5 -74.5 13.5h-123z" />
    <glyph glyph-name="dcaron" unicode="&#x10f;" horiz-adv-x="460" 
d="M467 580l24 230h54l-50 -230h-28zM172 32c34 0 67.333 16.332 100 48.999l43 414c-28 34 -58.333 51 -91 51c-35.333 0 -60.5 -14.333 -75.5 -43s-26.167 -78.667 -33.5 -150l-12 -120c-7.33301 -73.333 -6.5 -125.166 2.5 -155.499s31.167 -45.5 66.5 -45.5z
M160 -9.00098c-49.333 0 -82.332 18.832 -98.999 56.499s-20.334 100.834 -11.001 189.501l11 103c9.33301 86 25.5 148.667 48.5 188s59.833 59 110.5 59c40.667 0 73.667 -17.667 99 -53l30 276h52l-85 -810h-52l4 44c-33.333 -35.333 -69.333 -53 -108 -53z" />
    <glyph glyph-name="Dcroat" unicode="&#x110;" horiz-adv-x="517" 
d="M54 0l43.999 408.005h-66l4 37h65l38 365h178c38.667 0 71.334 -6 98.001 -18s46.5 -28.833 59.5 -50.5s21.333 -45.834 25 -72.501s3.83398 -57.334 0.500977 -92.001l-35 -336c-2.66699 -28.667 -7.33398 -54.834 -14.001 -78.501s-16 -45.834 -28 -66.501
s-26.333 -37.834 -43 -51.501s-37 -24.5 -61 -32.5s-51.333 -12 -82 -12h-183zM113.999 43.0049l124.999 -0.000976562c25.333 0 47.5 3.66699 66.5 11s34.5 16.833 46.5 28.5s22.167 26.834 30.5 45.501s14.333 37 18 55s6.83398 39.333 9.50098 64l34 326
c4 29.333 4.83301 56 2.5 80s-8 44.333 -17 61s-23.333 29.5 -43 38.5s-44.5 13.5 -74.5 13.5h-123l-33 -321h94l-4 -37h-94z" />
    <glyph glyph-name="dcroat" unicode="&#x111;" horiz-adv-x="409" 
d="M172 32c34 0 67.333 16.332 100 48.999l43 414c-28 34 -58.333 51 -91 51c-35.333 0 -60.5 -14.333 -75.5 -43s-26.167 -78.667 -33.5 -150l-12 -120c-7.33301 -73.333 -6.5 -125.166 2.5 -155.499s31.167 -45.5 66.5 -45.5zM160 -9.00098
c-49.333 0 -82.332 18.832 -98.999 56.499s-20.334 100.834 -11.001 189.501l11 103c9.33301 86 25.5 148.667 48.5 188s59.833 59 110.5 59c40.667 0 73.667 -17.667 99 -53l17 156h-85l4 35h85l9 85h52l-8 -85h56l-3 -35h-57l-73 -690h-52l4 44
c-33.333 -35.333 -69.333 -53 -108 -53z" />
    <glyph glyph-name="Emacron" unicode="&#x112;" horiz-adv-x="392" 
d="M202 878l3 37h171l-4 -37h-170zM53 0l85 810h280l-4 -44h-226l-34 -325h185l-4 -42h-185l-37 -356h228l-5 -43h-283z" />
    <glyph glyph-name="emacron" unicode="&#x113;" 
d="M153 647l3 37h171l-4 -37h-170zM113 334h185.002l5 45c3.33301 34.667 4.66602 64.5 3.99902 89.5s-7 44.333 -19 58s-31 20.5 -57 20.5c-23.333 0 -42 -4.33301 -56 -13s-25.833 -25.5 -35.5 -50.5s-16.834 -60.167 -21.501 -105.5zM171.002 -9
c-16 0 -29.999 1.33496 -41.999 4.00195s-23.5 7.33398 -34.5 14.001s-19.833 15.5 -26.5 26.5s-12.334 24.833 -17.001 41.5s-7 36.167 -7 58.5s1 48.5 3 78.5l16 154c4 35.333 9.66699 66.166 17 92.499s16 47.5 26 63.5s21.833 28.833 35.5 38.5
s27.834 16.167 42.501 19.5s31.667 5 51 5c53.333 0 88.5 -17.333 105.5 -52s21.167 -94 12.5 -178l-7 -55h-236l-10 -92c-5.33301 -45.333 -5.83301 -81.333 -1.5 -108s12.5 -45.167 24.5 -55.5s29.333 -15.5 52 -15.5c10 0 18.667 0.666992 26 2s15.666 4.33301 24.999 9
s17.333 11.167 24 19.5s12.667 20.166 18 35.499s9 33.666 11 54.999l5 43h52l-4 -38c-5.33301 -53.333 -20.5 -94.333 -45.5 -123s-63.5 -43 -115.5 -43z" />
    <glyph glyph-name="Ebreve" unicode="&#x114;" horiz-adv-x="392" 
d="M285 879c-34.667 0 -61.1689 9.16895 -79.502 27.502s-26.5 46.166 -24.5 83.499h38c-2 -26.667 3.5 -46.167 16.5 -58.5s30.833 -18.5 53.5 -18.5c50.667 0 80.334 25.667 89.001 77h37c-5.33301 -36.667 -19.666 -64.334 -42.999 -83.001s-52.333 -28 -87 -28z
M52.998 0.00195312l85 810h280l-4 -44h-226l-34 -325h185l-4 -42h-185l-37 -356h228l-5 -43h-283z" />
    <glyph glyph-name="ebreve" unicode="&#x115;" 
d="M237 647c-34.667 0 -61.1689 9.16895 -79.502 27.502s-26.5 46.166 -24.5 83.499h38c-2 -26.667 3.5 -46.167 16.5 -58.5s30.833 -18.5 53.5 -18.5c50.667 0 80.334 25.667 89.001 77h37c-5.33301 -36.667 -19.666 -64.334 -42.999 -83.001s-52.333 -28 -87 -28z
M112.998 334.002h185.002l5 45c3.33301 34.667 4.66602 64.5 3.99902 89.5s-7 44.333 -19 58s-31 20.5 -57 20.5c-23.333 0 -42 -4.33301 -56 -13s-25.833 -25.5 -35.5 -50.5s-16.834 -60.167 -21.501 -105.5zM171 -8.99805c-16 0 -29.999 1.33496 -41.999 4.00195
s-23.5 7.33398 -34.5 14.001s-19.833 15.5 -26.5 26.5s-12.334 24.833 -17.001 41.5s-7 36.167 -7 58.5s1 48.5 3 78.5l16 154c4 35.333 9.66699 66.166 17 92.499s16 47.5 26 63.5s21.833 28.833 35.5 38.5s27.834 16.167 42.501 19.5s31.667 5 51 5
c53.333 0 88.5 -17.333 105.5 -52s21.167 -94 12.5 -178l-7 -55h-236l-10 -92c-5.33301 -45.333 -5.83301 -81.333 -1.5 -108s12.5 -45.167 24.5 -55.5s29.333 -15.5 52 -15.5c10 0 18.667 0.666992 26 2s15.666 4.33301 24.999 9s17.333 11.167 24 19.5
s12.667 20.166 18 35.499s9 33.666 11 54.999l5 43h52l-4 -38c-5.33301 -53.333 -20.5 -94.333 -45.5 -123s-63.5 -43 -115.5 -43z" />
    <glyph glyph-name="Edotaccent" unicode="&#x116;" horiz-adv-x="392" 
d="M257 879l11 104h60l-11 -104h-60zM53 0l85 810h280l-4 -44h-226l-34 -325h185l-4 -42h-185l-37 -356h228l-5 -43h-283z" />
    <glyph glyph-name="edotaccent" unicode="&#x117;" 
d="M208 647l11 104h60l-11 -104h-60zM113 334h185.002l5 45c3.33301 34.667 4.66602 64.5 3.99902 89.5s-7 44.333 -19 58s-31 20.5 -57 20.5c-23.333 0 -42 -4.33301 -56 -13s-25.833 -25.5 -35.5 -50.5s-16.834 -60.167 -21.501 -105.5zM171.002 -9
c-16 0 -29.999 1.33496 -41.999 4.00195s-23.5 7.33398 -34.5 14.001s-19.833 15.5 -26.5 26.5s-12.334 24.833 -17.001 41.5s-7 36.167 -7 58.5s1 48.5 3 78.5l16 154c4 35.333 9.66699 66.166 17 92.499s16 47.5 26 63.5s21.833 28.833 35.5 38.5
s27.834 16.167 42.501 19.5s31.667 5 51 5c53.333 0 88.5 -17.333 105.5 -52s21.167 -94 12.5 -178l-7 -55h-236l-10 -92c-5.33301 -45.333 -5.83301 -81.333 -1.5 -108s12.5 -45.167 24.5 -55.5s29.333 -15.5 52 -15.5c10 0 18.667 0.666992 26 2s15.666 4.33301 24.999 9
s17.333 11.167 24 19.5s12.667 20.166 18 35.499s9 33.666 11 54.999l5 43h52l-4 -38c-5.33301 -53.333 -20.5 -94.333 -45.5 -123s-63.5 -43 -115.5 -43z" />
    <glyph glyph-name="Eogonek" unicode="&#x118;" horiz-adv-x="392" 
d="M236 -199c-40.667 0 -70.668 6.83301 -90.001 20.5s-27.666 33.5 -24.999 59.5c2.66699 23.333 13 46.333 31 69s38.667 40 62 52h30c-50 -45.333 -77 -84.333 -81 -117c-2 -18.667 5.16699 -32.167 21.5 -40.5s37.5 -12.5 63.5 -12.5zM52.999 0l85 810h280l-4 -44h-226
l-34 -325h185l-4 -42h-185l-37 -356h228l-5 -43h-283z" />
    <glyph glyph-name="eogonek" unicode="&#x119;" 
d="M240 -199c-40.667 0 -70.668 6.83301 -90.001 20.5s-27.666 33.5 -24.999 59.5c2.66699 23.333 13 46.333 31 69s38.667 40 62 52h30c-50 -45.333 -77 -84.333 -81 -117c-2 -18.667 5.16699 -32.167 21.5 -40.5s37.5 -12.5 63.5 -12.5zM112.999 334h185.002l5 45
c3.33301 34.667 4.66602 64.5 3.99902 89.5s-7 44.333 -19 58s-31 20.5 -57 20.5c-23.333 0 -42 -4.33301 -56 -13s-25.833 -25.5 -35.5 -50.5s-16.834 -60.167 -21.501 -105.5zM171.001 -9c-16 0 -29.999 1.33496 -41.999 4.00195s-23.5 7.33398 -34.5 14.001
s-19.833 15.5 -26.5 26.5s-12.334 24.833 -17.001 41.5s-7 36.167 -7 58.5s1 48.5 3 78.5l16 154c4 35.333 9.66699 66.166 17 92.499s16 47.5 26 63.5s21.833 28.833 35.5 38.5s27.834 16.167 42.501 19.5s31.667 5 51 5c53.333 0 88.5 -17.333 105.5 -52
s21.167 -94 12.5 -178l-7 -55h-236l-10 -92c-5.33301 -45.333 -5.83301 -81.333 -1.5 -108s12.5 -45.167 24.5 -55.5s29.333 -15.5 52 -15.5c10 0 18.667 0.666992 26 2s15.666 4.33301 24.999 9s17.333 11.167 24 19.5s12.667 20.166 18 35.499s9 33.666 11 54.999l5 43h52
l-4 -38c-5.33301 -53.333 -20.5 -94.333 -45.5 -123s-63.5 -43 -115.5 -43z" />
    <glyph glyph-name="Ecaron" unicode="&#x11a;" horiz-adv-x="392" 
d="M267 878l-68 163h46l47 -122l72 122h45l-102 -163h-40zM53 0l85 810h280l-4 -44h-226l-34 -325h185l-4 -42h-185l-37 -356h228l-5 -43h-283z" />
    <glyph glyph-name="ecaron" unicode="&#x11b;" 
d="M218 647l-68 163h46l47 -122l72 122h45l-102 -163h-40zM113 334h185.002l5 45c3.33301 34.667 4.66602 64.5 3.99902 89.5s-7 44.333 -19 58s-31 20.5 -57 20.5c-23.333 0 -42 -4.33301 -56 -13s-25.833 -25.5 -35.5 -50.5s-16.834 -60.167 -21.501 -105.5zM171.002 -9
c-16 0 -29.999 1.33496 -41.999 4.00195s-23.5 7.33398 -34.5 14.001s-19.833 15.5 -26.5 26.5s-12.334 24.833 -17.001 41.5s-7 36.167 -7 58.5s1 48.5 3 78.5l16 154c4 35.333 9.66699 66.166 17 92.499s16 47.5 26 63.5s21.833 28.833 35.5 38.5
s27.834 16.167 42.501 19.5s31.667 5 51 5c53.333 0 88.5 -17.333 105.5 -52s21.167 -94 12.5 -178l-7 -55h-236l-10 -92c-5.33301 -45.333 -5.83301 -81.333 -1.5 -108s12.5 -45.167 24.5 -55.5s29.333 -15.5 52 -15.5c10 0 18.667 0.666992 26 2s15.666 4.33301 24.999 9
s17.333 11.167 24 19.5s12.667 20.166 18 35.499s9 33.666 11 54.999l5 43h52l-4 -38c-5.33301 -53.333 -20.5 -94.333 -45.5 -123s-63.5 -43 -115.5 -43z" />
    <glyph glyph-name="Gcircumflex" unicode="&#x11c;" horiz-adv-x="510" 
d="M204 878l105 180h66l66 -180h-37l-65 153l-96 -153h-39zM230 -11c-37.333 0 -68.3271 6.00098 -92.9941 18.001s-42.834 29 -54.501 51s-19.334 48.167 -23.001 78.5s-2.83398 63.166 2.49902 98.499l36 344c4 38 10.5 70.667 19.5 98s21.833 52.166 38.5 74.499
s38.667 39.166 66 50.499s60 17 98 17c67.333 0 113.333 -19.667 138 -59s32.667 -96.666 24 -171.999l-3 -28h-51l4 31c6.66699 62.667 1.66699 108.834 -15 138.501s-50.334 44.5 -101.001 44.5c-23.333 0 -43.833 -3.16699 -61.5 -9.5s-32.334 -14.833 -44.001 -25.5
s-21.5 -24.5 -29.5 -41.5s-14 -34.667 -18 -53s-7.33301 -39.5 -10 -63.5l-37 -353c-4 -29.333 -4.83301 -56 -2.5 -80s7.66602 -44.333 15.999 -61s21.5 -29.667 39.5 -39s41.333 -14 70 -14c50.667 0 87.667 15.833 111 47.5s38.333 79.5 45 143.5l12 119h-128l4 42h180
l-40 -386h-36l2 91c-28.667 -68 -81.667 -102 -159 -102z" />
    <glyph glyph-name="gcircumflex" unicode="&#x11d;" horiz-adv-x="428" 
d="M156 647l105 180h66l66 -180h-37l-65 153l-96 -153h-39zM209 223c74 0 116.668 55.001 128.001 165.001c0.666992 12.667 1.16699 26 1.5 40s-1.5 28.167 -5.5 42.5s-9.16699 27.333 -15.5 39s-16 21 -29 28s-28.333 10.5 -46 10.5s-33.834 -3.83301 -48.501 -11.5
s-26.5 -17.334 -35.5 -29.001s-16.833 -25 -23.5 -40s-11.667 -29 -15 -42s-5.66602 -25.5 -6.99902 -37.5s-2 -23.333 -2 -34s0.666992 -22.667 2 -36s4.16602 -25.333 8.49902 -36s10 -20.667 17 -30s16.5 -16.5 28.5 -21.5s26 -7.5 42 -7.5zM165.001 -152.999
c42 0 76.832 7.00098 104.499 21.001s42.834 35 45.501 63c1.33301 15.333 -0.5 27.833 -5.5 37.5s-16.333 19 -34 28s-43.5 17.167 -77.5 24.5l-63 11c-65.333 -35.333 -99.666 -73 -102.999 -113c-2.66699 -24.667 7.16602 -42.834 29.499 -54.501
s56.833 -17.5 103.5 -17.5zM161 -195.998c-61.333 0 -107.002 8.49805 -137.002 25.498s-43.333 42.5 -40 76.5c2.66699 27.333 15.5 53 38.5 77s49.5 43.333 79.5 58c-17.333 4.66699 -32.833 10.834 -46.5 18.501s-19.834 15.834 -18.501 24.501
c2.66699 28.667 30.667 70.334 84 125.001c-46.667 36 -65.667 95.667 -57 179c2.66699 24.667 8.33398 48.5 17.001 71.5s20.334 44.167 35.001 63.5s33.167 34.833 55.5 46.5s47.166 17.5 74.499 17.5c57.333 0 97.333 -25.667 120 -77
c8.66699 13.333 20.834 26.333 36.501 39s31.834 22.334 48.501 29.001l14 5l12 -40c-18 -4 -36.333 -11.5 -55 -22.5s-33.667 -22.833 -45 -35.5c3.33301 -12.667 6 -29.167 8 -49.5s2 -36.5 0 -48.5c-6 -61.333 -24 -110.5 -54 -147.5s-72 -55.5 -126 -55.5
c-24 0 -44 3.33301 -60 10c-2.66699 -4 -8.33398 -11.333 -17.001 -22s-15.5 -19.5 -20.5 -26.5s-10.167 -14.833 -15.5 -23.5s-8.33301 -15.667 -9 -21c0 -3.33301 4 -6.83301 12 -10.5s19.333 -6.83398 34 -9.50098c10 -2.66699 26.667 -6.33398 50 -11.001
s37.666 -7.66699 42.999 -9c48.667 -10.667 84.667 -26 108 -46s33 -47.667 29 -83c-2 -22 -8.83301 -41.333 -20.5 -58s-26.667 -30 -45 -40s-38.666 -17.5 -60.999 -22.5s-46.166 -7.5 -71.499 -7.5z" />
    <glyph glyph-name="Gbreve" unicode="&#x11e;" horiz-adv-x="510" 
d="M321 879c-34.667 0 -61.1689 9.16895 -79.502 27.502s-26.5 46.166 -24.5 83.499h38c-2 -26.667 3.5 -46.167 16.5 -58.5s30.833 -18.5 53.5 -18.5c50.667 0 80.334 25.667 89.001 77h37c-5.33301 -36.667 -19.666 -64.334 -42.999 -83.001s-52.333 -28 -87 -28z
M229.998 -10.998c-37.333 0 -68.3271 6.00098 -92.9941 18.001s-42.834 29 -54.501 51s-19.334 48.167 -23.001 78.5s-2.83398 63.166 2.49902 98.499l36 344c4 38 10.5 70.667 19.5 98s21.833 52.166 38.5 74.499s38.667 39.166 66 50.499s60 17 98 17
c67.333 0 113.333 -19.667 138 -59s32.667 -96.666 24 -171.999l-3 -28h-51l4 31c6.66699 62.667 1.66699 108.834 -15 138.501s-50.334 44.5 -101.001 44.5c-23.333 0 -43.833 -3.16699 -61.5 -9.5s-32.334 -14.833 -44.001 -25.5s-21.5 -24.5 -29.5 -41.5
s-14 -34.667 -18 -53s-7.33301 -39.5 -10 -63.5l-37 -353c-4 -29.333 -4.83301 -56 -2.5 -80s7.66602 -44.333 15.999 -61s21.5 -29.667 39.5 -39s41.333 -14 70 -14c50.667 0 87.667 15.833 111 47.5s38.333 79.5 45 143.5l12 119h-128l4 42h180l-40 -386h-36l2 91
c-28.667 -68 -81.667 -102 -159 -102z" />
    <glyph glyph-name="gbreve" unicode="&#x11f;" horiz-adv-x="428" 
d="M274 647c-34.667 0 -61.1689 9.16895 -79.502 27.502s-26.5 46.166 -24.5 83.499h38c-2 -26.667 3.5 -46.167 16.5 -58.5s30.833 -18.5 53.5 -18.5c50.667 0 80.334 25.667 89.001 77h37c-5.33301 -36.667 -19.666 -64.334 -42.999 -83.001s-52.333 -28 -87 -28z
M208.998 223.002c74 0 116.668 55.001 128.001 165.001c0.666992 12.667 1.16699 26 1.5 40s-1.5 28.167 -5.5 42.5s-9.16699 27.333 -15.5 39s-16 21 -29 28s-28.333 10.5 -46 10.5s-33.834 -3.83301 -48.501 -11.5s-26.5 -17.334 -35.5 -29.001s-16.833 -25 -23.5 -40
s-11.667 -29 -15 -42s-5.66602 -25.5 -6.99902 -37.5s-2 -23.333 -2 -34s0.666992 -22.667 2 -36s4.16602 -25.333 8.49902 -36s10 -20.667 17 -30s16.5 -16.5 28.5 -21.5s26 -7.5 42 -7.5zM164.999 -152.997c42 0 76.832 7.00098 104.499 21.001s42.834 35 45.501 63
c1.33301 15.333 -0.5 27.833 -5.5 37.5s-16.333 19 -34 28s-43.5 17.167 -77.5 24.5l-63 11c-65.333 -35.333 -99.666 -73 -102.999 -113c-2.66699 -24.667 7.16602 -42.834 29.499 -54.501s56.833 -17.5 103.5 -17.5zM160.998 -195.996
c-61.333 0 -107.002 8.49805 -137.002 25.498s-43.333 42.5 -40 76.5c2.66699 27.333 15.5 53 38.5 77s49.5 43.333 79.5 58c-17.333 4.66699 -32.833 10.834 -46.5 18.501s-19.834 15.834 -18.501 24.501c2.66699 28.667 30.667 70.334 84 125.001
c-46.667 36 -65.667 95.667 -57 179c2.66699 24.667 8.33398 48.5 17.001 71.5s20.334 44.167 35.001 63.5s33.167 34.833 55.5 46.5s47.166 17.5 74.499 17.5c57.333 0 97.333 -25.667 120 -77c8.66699 13.333 20.834 26.333 36.501 39s31.834 22.334 48.501 29.001l14 5
l12 -40c-18 -4 -36.333 -11.5 -55 -22.5s-33.667 -22.833 -45 -35.5c3.33301 -12.667 6 -29.167 8 -49.5s2 -36.5 0 -48.5c-6 -61.333 -24 -110.5 -54 -147.5s-72 -55.5 -126 -55.5c-24 0 -44 3.33301 -60 10c-2.66699 -4 -8.33398 -11.333 -17.001 -22
s-15.5 -19.5 -20.5 -26.5s-10.167 -14.833 -15.5 -23.5s-8.33301 -15.667 -9 -21c0 -3.33301 4 -6.83301 12 -10.5s19.333 -6.83398 34 -9.50098c10 -2.66699 26.667 -6.33398 50 -11.001s37.666 -7.66699 42.999 -9c48.667 -10.667 84.667 -26 108 -46s33 -47.667 29 -83
c-2 -22 -8.83301 -41.333 -20.5 -58s-26.667 -30 -45 -40s-38.666 -17.5 -60.999 -22.5s-46.166 -7.5 -71.499 -7.5z" />
    <glyph glyph-name="Gdotaccent" unicode="&#x120;" horiz-adv-x="510" 
d="M292 879l11 104h60l-11 -104h-60zM230 -11c-37.333 0 -68.3271 6.00098 -92.9941 18.001s-42.834 29 -54.501 51s-19.334 48.167 -23.001 78.5s-2.83398 63.166 2.49902 98.499l36 344c4 38 10.5 70.667 19.5 98s21.833 52.166 38.5 74.499s38.667 39.166 66 50.499
s60 17 98 17c67.333 0 113.333 -19.667 138 -59s32.667 -96.666 24 -171.999l-3 -28h-51l4 31c6.66699 62.667 1.66699 108.834 -15 138.501s-50.334 44.5 -101.001 44.5c-23.333 0 -43.833 -3.16699 -61.5 -9.5s-32.334 -14.833 -44.001 -25.5s-21.5 -24.5 -29.5 -41.5
s-14 -34.667 -18 -53s-7.33301 -39.5 -10 -63.5l-37 -353c-4 -29.333 -4.83301 -56 -2.5 -80s7.66602 -44.333 15.999 -61s21.5 -29.667 39.5 -39s41.333 -14 70 -14c50.667 0 87.667 15.833 111 47.5s38.333 79.5 45 143.5l12 119h-128l4 42h180l-40 -386h-36l2 91
c-28.667 -68 -81.667 -102 -159 -102z" />
    <glyph glyph-name="gdotaccent" unicode="&#x121;" horiz-adv-x="428" 
d="M245 647l11 104h60l-11 -104h-60zM209 223c74 0 116.668 55.001 128.001 165.001c0.666992 12.667 1.16699 26 1.5 40s-1.5 28.167 -5.5 42.5s-9.16699 27.333 -15.5 39s-16 21 -29 28s-28.333 10.5 -46 10.5s-33.834 -3.83301 -48.501 -11.5
s-26.5 -17.334 -35.5 -29.001s-16.833 -25 -23.5 -40s-11.667 -29 -15 -42s-5.66602 -25.5 -6.99902 -37.5s-2 -23.333 -2 -34s0.666992 -22.667 2 -36s4.16602 -25.333 8.49902 -36s10 -20.667 17 -30s16.5 -16.5 28.5 -21.5s26 -7.5 42 -7.5zM165.001 -152.999
c42 0 76.832 7.00098 104.499 21.001s42.834 35 45.501 63c1.33301 15.333 -0.5 27.833 -5.5 37.5s-16.333 19 -34 28s-43.5 17.167 -77.5 24.5l-63 11c-65.333 -35.333 -99.666 -73 -102.999 -113c-2.66699 -24.667 7.16602 -42.834 29.499 -54.501
s56.833 -17.5 103.5 -17.5zM161 -195.998c-61.333 0 -107.002 8.49805 -137.002 25.498s-43.333 42.5 -40 76.5c2.66699 27.333 15.5 53 38.5 77s49.5 43.333 79.5 58c-17.333 4.66699 -32.833 10.834 -46.5 18.501s-19.834 15.834 -18.501 24.501
c2.66699 28.667 30.667 70.334 84 125.001c-46.667 36 -65.667 95.667 -57 179c2.66699 24.667 8.33398 48.5 17.001 71.5s20.334 44.167 35.001 63.5s33.167 34.833 55.5 46.5s47.166 17.5 74.499 17.5c57.333 0 97.333 -25.667 120 -77
c8.66699 13.333 20.834 26.333 36.501 39s31.834 22.334 48.501 29.001l14 5l12 -40c-18 -4 -36.333 -11.5 -55 -22.5s-33.667 -22.833 -45 -35.5c3.33301 -12.667 6 -29.167 8 -49.5s2 -36.5 0 -48.5c-6 -61.333 -24 -110.5 -54 -147.5s-72 -55.5 -126 -55.5
c-24 0 -44 3.33301 -60 10c-2.66699 -4 -8.33398 -11.333 -17.001 -22s-15.5 -19.5 -20.5 -26.5s-10.167 -14.833 -15.5 -23.5s-8.33301 -15.667 -9 -21c0 -3.33301 4 -6.83301 12 -10.5s19.333 -6.83398 34 -9.50098c10 -2.66699 26.667 -6.33398 50 -11.001
s37.666 -7.66699 42.999 -9c48.667 -10.667 84.667 -26 108 -46s33 -47.667 29 -83c-2 -22 -8.83301 -41.333 -20.5 -58s-26.667 -30 -45 -40s-38.666 -17.5 -60.999 -22.5s-46.166 -7.5 -71.499 -7.5z" />
    <glyph glyph-name="Gcommaaccent" unicode="&#x122;" horiz-adv-x="510" 
d="M181 -251l-11.002 21c28.667 17.333 45.334 45.333 50.001 84h-35l8 75h65l-7 -62c-3.33301 -32 -10.166 -57 -20.499 -75s-26.833 -32.333 -49.5 -43zM229.998 -11c-37.333 0 -68.3271 6.00098 -92.9941 18.001s-42.834 29 -54.501 51s-19.334 48.167 -23.001 78.5
s-2.83398 63.166 2.49902 98.499l36 344c4 38 10.5 70.667 19.5 98s21.833 52.166 38.5 74.499s38.667 39.166 66 50.499s60 17 98 17c67.333 0 113.333 -19.667 138 -59s32.667 -96.666 24 -171.999l-3 -28h-51l4 31c6.66699 62.667 1.66699 108.834 -15 138.501
s-50.334 44.5 -101.001 44.5c-23.333 0 -43.833 -3.16699 -61.5 -9.5s-32.334 -14.833 -44.001 -25.5s-21.5 -24.5 -29.5 -41.5s-14 -34.667 -18 -53s-7.33301 -39.5 -10 -63.5l-37 -353c-4 -29.333 -4.83301 -56 -2.5 -80s7.66602 -44.333 15.999 -61
s21.5 -29.667 39.5 -39s41.333 -14 70 -14c50.667 0 87.667 15.833 111 47.5s38.333 79.5 45 143.5l12 119h-128l4 42h180l-40 -386h-36l2 91c-28.667 -68 -81.667 -102 -159 -102z" />
    <glyph glyph-name="gcommaaccent" unicode="&#x123;" horiz-adv-x="439" 
d="M212 220c20 0 37.8311 4.16797 53.498 12.501s28 18.5 37 30.5s16.667 26.167 23 42.5s11 31 14 44s5.16699 26.5 6.5 40.5c1.33301 9.33301 1.66602 19.833 0.999023 31.5s-1.66699 23.5 -3 35.5s-4.5 23.833 -9.5 35.5s-11.167 22 -18.5 31s-17 16.167 -29 21.5
s-25.667 8 -41 8c-18.667 0 -35.667 -4.33301 -51 -13s-27.666 -19.167 -36.999 -31.5s-17.5 -26.333 -24.5 -42s-12.167 -29.667 -15.5 -42s-5.66602 -23.5 -6.99902 -33.5c-0.666992 -11.333 -1.16699 -22.5 -1.5 -33.5s0.333984 -23.333 2.00098 -37
s4.66699 -26.167 9 -37.5s10.166 -21.833 17.499 -31.5s17.333 -17.334 30 -23.001s27.334 -8.5 44.001 -8.5zM158.998 -161.999c28 0 53.333 2.83008 76 8.49707s41.834 15.167 57.501 28.5s24.5 29.666 26.5 48.999c2 15.333 0.333008 28.333 -5 39s-17.5 20.667 -36.5 30
s-46.5 18.333 -82.5 27l-55 12c-13.333 -7.33301 -25 -14.166 -35 -20.499s-21.333 -14.666 -34 -24.999s-22.834 -21.666 -30.501 -33.999s-12.167 -25.166 -13.5 -38.499c-2 -17.333 2.66699 -31.833 14 -43.5s26.833 -20 46.5 -25s43.5 -7.5 71.5 -7.5zM281.998 731.998
l7 58.999c3.33301 32 10.5 57.333 21.5 76s27.833 34.334 50.5 47.001l6 -14c-16 -12.667 -28 -27.667 -36 -45s-12.667 -33.333 -14 -48h36l-8 -75h-63zM154.998 -199.003c-60 0 -104.995 9.33008 -134.995 27.9971s-43.333 45.667 -40 81
c2.66699 25.333 16 49.833 40 73.5s51.333 43.167 82 58.5c-12 3.33301 -22.667 6.66602 -32 9.99902s-18.333 7.83301 -27 13.5s-13 11.5 -13 17.5c2 26.667 31.667 70 89 130c-47.333 36 -67 94.667 -59 176c2 23.333 7.66699 46.166 17 68.499s21.5 43.5 36.5 63.5
s34.167 36.167 57.5 48.5s49.333 18.5 78 18.5c56.667 0 97.667 -26 123 -78c10.667 15.333 23.667 29.333 39 42s31 22.334 47 29.001l15 5l11 -35c-33.333 -8.66699 -66 -30 -98 -64c4 -12.667 6.83301 -29 8.5 -49s2.16699 -36.333 1.5 -49
c-6 -60.667 -24.833 -109.667 -56.5 -147s-74.834 -56 -129.501 -56c-26 0 -48.667 4.33301 -68 13c-2 -3.33301 -8.33301 -11.5 -19 -24.5s-18.834 -23.167 -24.501 -30.5s-11.334 -16 -17.001 -26s-8.83398 -18 -9.50098 -24c0 -2 4.16699 -4.5 12.5 -7.5
s19.833 -6.5 34.5 -10.5c14 -4 33.167 -8.66699 57.5 -14s38.5 -8.66602 42.5 -9.99902c52.667 -13.333 90.834 -29.166 114.501 -47.499s33.5 -44.166 29.5 -77.499c-2.66699 -27.333 -14.334 -50.666 -35.001 -69.999s-45.834 -33.5 -75.501 -42.5
s-62.167 -13.5 -97.5 -13.5z" />
    <glyph glyph-name="Hcircumflex" unicode="&#x124;" horiz-adv-x="541" 
d="M223 878l105 180h66l66 -180h-37l-65 153l-96 -153h-39zM53 0l85 810h55l-38 -365h283l39 365h54l-85 -810h-54l42 403h-283l-43 -403h-55z" />
    <glyph glyph-name="hcircumflex" unicode="&#x125;" horiz-adv-x="391" 
d="M150 869l105 180h66l66 -180h-37l-65 153l-96 -153h-39zM37 0l85.001 810h53l-31 -293c45.333 47.333 93.666 70.666 144.999 69.999c28 0 49 -10.167 63 -30.5s18.667 -52.166 14 -95.499l-48 -461h-54l48 455c3.33301 33.333 0.666016 56.833 -8.00098 70.5
s-23 20.5 -43 20.5c-37.333 0 -77.666 -21.333 -120.999 -64l-50 -482h-53z" />
    <glyph glyph-name="Hbar" unicode="&#x126;" horiz-adv-x="541" 
d="M155 445h283l21 195h-283zM53 0l68 640h-38l4 32h37l14 138h55l-14 -138h283l15 138h54l-14 -138h38l-4 -32h-37l-68 -640h-54l42 403h-283l-43 -403h-55z" />
    <glyph glyph-name="hbar" unicode="&#x127;" horiz-adv-x="391" 
d="M36 0l73.002 701h-65l4 34h65l8 75h53l-8 -75h119l-4 -34h-118l-20 -184c46 47.333 94.333 70.666 145 69.999c28 0 49.167 -10.167 63.5 -30.5s19.166 -52.166 14.499 -95.499l-49 -461h-53l48 455c3.33301 33.333 0.666016 56.833 -8.00098 70.5s-23 20.5 -43 20.5
c-38 0 -78.333 -21.333 -121 -64l-51 -482h-53z" />
    <glyph glyph-name="Itilde" unicode="&#x128;" horiz-adv-x="206" 
d="M217 879c-12.667 0.666992 -28.165 8.16895 -46.498 22.502s-30.833 21.833 -37.5 22.5c-10.667 2.66699 -19.667 0.666992 -27 -6s-11.666 -17.334 -12.999 -32.001h-37c0 4.66699 1 10 3 16s5 13.167 9 21.5s8.83301 15.5 14.5 21.5s13.5 10.667 23.5 14s21.333 4 34 2
c12 -1.33301 27.167 -9 45.5 -23s30.833 -21.667 37.5 -23c12 -1.33301 21.667 1.5 29 8.5s12 19.167 14 36.5h35c-0.666992 -6 -1.83398 -12.167 -3.50098 -18.5s-4.33398 -13.833 -8.00098 -22.5s-8.33398 -16 -14.001 -22s-13.667 -10.833 -24 -14.5
s-21.833 -4.83398 -34.5 -3.50098zM55.002 0.00195312l85 810h54l-85 -810h-54z" />
    <glyph glyph-name="itilde" unicode="&#x129;" horiz-adv-x="181" 
d="M181 647c-12.667 0.666992 -28.165 8.16895 -46.498 22.502s-30.833 21.833 -37.5 22.5c-10.667 2.66699 -19.667 0.666992 -27 -6s-11.666 -17.334 -12.999 -32.001h-37c0 4.66699 1 10 3 16s5 13.167 9 21.5s8.83301 15.5 14.5 21.5s13.5 10.667 23.5 14s21.333 4 34 2
c12 -1.33301 27.167 -9 45.5 -23s30.833 -21.667 37.5 -23c12 -1.33301 21.667 1.5 29 8.5s12 19.167 14 36.5h35c-0.666992 -6 -1.83398 -12.167 -3.50098 -18.5s-4.33398 -13.833 -8.00098 -22.5s-8.33398 -16 -14.001 -22s-13.667 -10.833 -24 -14.5
s-21.833 -4.83398 -34.5 -3.50098zM44.002 0.00195312l60 578h54l-61 -578h-53z" />
    <glyph glyph-name="Imacron" unicode="&#x12a;" horiz-adv-x="206" 
d="M89 878l3 37h171l-4 -37h-170zM55 0l85 810h54l-85 -810h-54z" />
    <glyph glyph-name="imacron" unicode="&#x12b;" horiz-adv-x="181" 
d="M53 647l3 37h171l-4 -37h-170zM44 0l60 578h54l-61 -578h-53z" />
    <glyph glyph-name="Ibreve" unicode="&#x12c;" horiz-adv-x="206" 
d="M172 879c-34.667 0 -61.1689 9.16895 -79.502 27.502s-26.5 46.166 -24.5 83.499h38c-2 -26.667 3.5 -46.167 16.5 -58.5s30.833 -18.5 53.5 -18.5c50.667 0 80.334 25.667 89.001 77h37c-5.33301 -36.667 -19.666 -64.334 -42.999 -83.001s-52.333 -28 -87 -28z
M54.998 0.00195312l85 810h54l-85 -810h-54z" />
    <glyph glyph-name="ibreve" unicode="&#x12d;" horiz-adv-x="181" 
d="M136 647c-34.667 0 -61.1689 9.16895 -79.502 27.502s-26.5 46.166 -24.5 83.499h38c-2 -26.667 3.5 -46.167 16.5 -58.5s30.833 -18.5 53.5 -18.5c50.667 0 80.334 25.667 89.001 77h37c-5.33301 -36.667 -19.666 -64.334 -42.999 -83.001s-52.333 -28 -87 -28z
M43.998 0.00195312l60 578h54l-61 -578h-53z" />
    <glyph glyph-name="Iogonek" unicode="&#x12e;" horiz-adv-x="206" 
d="M94 -199c-40.667 0 -70.668 6.83301 -90.001 20.5s-27.666 33.5 -24.999 59.5c2.66699 23.333 13 46.333 31 69s38.667 40 62 52h30c-50 -45.333 -77 -84.333 -81 -117c-2 -18.667 5.16699 -32.167 21.5 -40.5s37.5 -12.5 63.5 -12.5zM54.999 0l85 810h54l-85 -810h-54z
" />
    <glyph glyph-name="iogonek" unicode="&#x12f;" horiz-adv-x="189" 
d="M82 -199c-40.667 0 -70.668 6.83301 -90.001 20.5s-27.666 33.5 -24.999 59.5c2.66699 23.333 13 46.333 31 69s38.667 40 62 52h30c-50 -45.333 -77 -84.333 -81 -117c-2 -18.667 5.16699 -32.167 21.5 -40.5s37.5 -12.5 63.5 -12.5zM116.999 678l9 93h54l-10 -93h-53z
M44.999 0l60 578h53l-60 -578h-53z" />
    <glyph glyph-name="Idotaccent" unicode="&#x130;" horiz-adv-x="206" 
d="M144 879l11 104h60l-11 -104h-60zM55 0l85 810h54l-85 -810h-54z" />
    <glyph glyph-name="dotlessi" unicode="&#x131;" horiz-adv-x="181" 
d="M44 0l60 578h54l-61 -578h-53z" />
    <glyph glyph-name="ij" unicode="&#x133;" horiz-adv-x="391" 
d="M319 678l9 93h54l-10 -93h-53zM137 -153l3.99805 43c2.66699 -0.666992 10.334 -1 23.001 -1c16.667 0 30.5 2.16699 41.5 6.5s19.167 11.333 24.5 21s9 18.5 11 26.5s3.66699 18.667 5 32l64 603h53l-64 -606c-4.66699 -44.667 -18.167 -77 -40.5 -97
s-53.166 -30 -92.499 -30c-16 0 -25.667 0.666992 -29 2zM116.998 678l9 93h54l-10 -93h-53zM44.998 0l60 578h53l-60 -578h-53z" />
    <glyph glyph-name="Jcircumflex" unicode="&#x134;" horiz-adv-x="265" 
d="M114 911l105 180h66l66 -180h-37l-65 153l-96 -153h-39zM-18 -45l4.99609 43c20.667 0 37.667 0.5 51 1.5s25.333 4 36 9s18.834 10.5 24.501 16.5s10.834 15.5 15.501 28.5s7.83398 26.333 9.50098 40s3.83398 32.5 6.50098 56.5l70 660h54l-69 -666
c-3.33301 -28 -7 -51.333 -11 -70s-9.83301 -36.167 -17.5 -52.5s-17.667 -29 -30 -38s-28 -16 -47 -21s-41.833 -7.5 -68.5 -7.5h-29z" />
    <glyph glyph-name="jcircumflex" unicode="&#x135;" horiz-adv-x="202" 
d="M30 667l105 180h66l66 -180h-37l-65 153l-96 -153h-39zM-53 -157l5 42.9961c1.33301 0 9 -0.333008 23 -1c13.333 0 24.833 1.83301 34.5 5.5s17.334 7.83398 23.001 12.501s10.334 11.334 14.001 20.001s6.16699 16.334 7.5 23.001s2.33301 15.334 3 26.001l64 606h53
l-64 -610c-4.66699 -44.667 -18.334 -77 -41.001 -97s-53.334 -30 -92.001 -30c-16.667 0 -26.667 0.666992 -30 2z" />
    <glyph glyph-name="Kcommaaccent" unicode="&#x136;" horiz-adv-x="459" 
d="M198 -240l-11.002 21c28.667 17.333 45.334 45.333 50.001 84h-35l8 75h65l-7 -62c-3.33301 -32 -10.166 -57 -20.499 -75s-26.833 -32.333 -49.5 -43zM52.998 0l85 810h55l-47 -455l282 455h54l-207 -343l163 -467h-54l-152 434l-93 -144l-31 -290h-55z" />
    <glyph glyph-name="kcommaaccent" unicode="&#x137;" horiz-adv-x="383" 
d="M151 -240l-11.002 21c28.667 17.333 45.334 45.333 50.001 84h-35l8 75h65l-7 -62c-3.33301 -32 -10.166 -57 -20.499 -75s-26.833 -32.333 -49.5 -43zM35.998 0l86 810h52l-55 -534l246 302h57l-175 -221l106 -357h-54l-95 325l-92 -108l-23 -217h-53z" />
    <glyph glyph-name="kgreenlandic" unicode="&#x138;" horiz-adv-x="410" 
d="M43 0l61 578h53l-32 -302l233 302h57l-172 -226l114 -352h-54l-101 316l-83 -101l-23 -215h-53z" />
    <glyph glyph-name="Lacute" unicode="&#x139;" horiz-adv-x="373" 
d="M281 879l85 194h53l-110 -194h-28zM54 0l85 810h54l-80 -767h244l-4 -43h-299z" />
    <glyph glyph-name="lacute" unicode="&#x13a;" horiz-adv-x="185" 
d="M150 869l85 194h53l-110 -194h-28zM46 0l85 810h54l-85 -810h-54z" />
    <glyph glyph-name="Lcommaaccent" unicode="&#x13b;" horiz-adv-x="373" 
d="M155 -240l-11.002 21c28.667 17.333 45.334 45.333 50.001 84h-35l8 75h65l-7 -62c-3.33301 -32 -10.166 -57 -20.499 -75s-26.833 -32.333 -49.5 -43zM53.998 0l85 810h54l-80 -767h244l-4 -43h-299z" />
    <glyph glyph-name="lcommaaccent" unicode="&#x13c;" horiz-adv-x="185" 
d="M25 -240l-11.002 21c28.667 17.333 45.334 45.333 50.001 84h-35l8 75h65l-7 -62c-3.33301 -32 -10.166 -57 -20.499 -75s-26.833 -32.333 -49.5 -43zM45.998 0l85 810h54l-85 -810h-54z" />
    <glyph glyph-name="Lcaron" unicode="&#x13d;" horiz-adv-x="373" 
d="M340 589l24 230h54l-50 -230h-28zM54 0l85 810h54l-80 -767h244l-4 -43h-299z" />
    <glyph glyph-name="lcaron" unicode="&#x13e;" horiz-adv-x="233" 
d="M245 580l24 230h54l-50 -230h-28zM46 0l85 810h54l-85 -810h-54z" />
    <glyph glyph-name="Ldot" unicode="&#x13f;" horiz-adv-x="373" 
d="M249 372l8 75h54l-8 -75h-54zM54 0l85 810h54l-80 -767h244l-4 -43h-299z" />
    <glyph glyph-name="ldot" unicode="&#x140;" horiz-adv-x="380" 
d="M282 340l8 75h54l-8 -75h-54zM46 0l85 810h54l-85 -810h-54z" />
    <glyph glyph-name="Lslash" unicode="&#x141;" horiz-adv-x="373" 
d="M54 0l42 408l-75 -37l5 44l75 37l38 358h54l-34 -329l129 63l-5 -44l-128 -63l-42 -394h244l-4 -43h-299z" />
    <glyph glyph-name="lslash" unicode="&#x142;" horiz-adv-x="246" 
d="M76 0l49 460l-66 -34l5 47l65 34l32 303h53l-28 -276l64 33l-5 -46l-65 -33l-51 -488h-53z" />
    <glyph glyph-name="Nacute" unicode="&#x143;" horiz-adv-x="515" 
d="M314 879l85 194h53l-110 -194h-28zM54 0l85 810h44l202 -684l72 684h48l-85 -810h-43l-203 685l-72 -685h-48z" />
    <glyph glyph-name="nacute" unicode="&#x144;" horiz-adv-x="391" 
d="M231 647l85 194h53l-110 -194h-28zM36 0l60.002 577.999h53l-6 -62c45.333 47.333 93.666 71 144.999 71c28 0 49.167 -10.167 63.5 -30.5s19.166 -52.166 14.499 -95.499l-49 -461h-53l48 455c3.33301 33.333 0.666016 56.833 -8.00098 70.5s-23 20.5 -43 20.5
c-37.333 0 -77.666 -21.333 -120.999 -64l-51 -482h-53z" />
    <glyph glyph-name="Ncommaaccent" unicode="&#x145;" horiz-adv-x="515" 
d="M188 -240l-11.002 21c28.667 17.333 45.334 45.333 50.001 84h-35l8 75h65l-7 -62c-3.33301 -32 -10.166 -57 -20.499 -75s-26.833 -32.333 -49.5 -43zM53.998 0l85 810h44l202 -684l72 684h48l-85 -810h-43l-203 685l-72 -685h-48z" />
    <glyph glyph-name="ncommaaccent" unicode="&#x146;" horiz-adv-x="391" 
d="M129 -240l-11.002 21c28.667 17.333 45.334 45.333 50.001 84h-35l8 75h65l-7 -62c-3.33301 -32 -10.166 -57 -20.499 -75s-26.833 -32.333 -49.5 -43zM35.998 0l60.002 577.999h53l-6 -62c45.333 47.333 93.666 71 144.999 71c28 0 49.167 -10.167 63.5 -30.5
s19.166 -52.166 14.499 -95.499l-49 -461h-53l48 455c3.33301 33.333 0.666016 56.833 -8.00098 70.5s-23 20.5 -43 20.5c-37.333 0 -77.666 -21.333 -120.999 -64l-51 -482h-53z" />
    <glyph glyph-name="Ncaron" unicode="&#x147;" horiz-adv-x="515" 
d="M309 878l-68 163h46l47 -122l72 122h45l-102 -163h-40zM54 0l85 810h44l202 -684l72 684h48l-85 -810h-43l-203 685l-72 -685h-48z" />
    <glyph glyph-name="ncaron" unicode="&#x148;" horiz-adv-x="391" 
d="M224 647l-68 163h46l47 -122l72 122h45l-102 -163h-40zM36 0l60.002 577.999h53l-6 -62c45.333 47.333 93.666 71 144.999 71c28 0 49.167 -10.167 63.5 -30.5s19.166 -52.166 14.499 -95.499l-49 -461h-53l48 455c3.33301 33.333 0.666016 56.833 -8.00098 70.5
s-23 20.5 -43 20.5c-37.333 0 -77.666 -21.333 -120.999 -64l-51 -482h-53z" />
    <glyph glyph-name="napostrophe" unicode="&#x149;" horiz-adv-x="390" 
d="M36 0l60.002 577.999h53l-6 -62c45.333 47.333 93.666 71 144.999 71c28 0 49.167 -10.167 63.5 -30.5s19.166 -52.166 14.499 -95.499l-49 -461h-53l48 455c3.33301 33.333 0.666016 56.833 -8.00098 70.5s-23 20.5 -43 20.5c-37.333 0 -77.666 -21.333 -120.999 -64
l-51 -482h-53zM99.002 693.999l24 230h54l-50 -230h-28z" />
    <glyph glyph-name="Eng" unicode="&#x14a;" horiz-adv-x="537" 
d="M250 -141l3.99902 38.001c30 0 53 3 69 9s27.333 15 34 27s11.334 29.667 14.001 53l3 26l-202 673l-71 -685h-47l85 810h44l204 -684l71 684h47l-85 -810c-4.66699 -48.667 -17 -84.334 -37 -107.001s-54 -34 -102 -34h-31z" />
    <glyph glyph-name="eng" unicode="&#x14b;" horiz-adv-x="387" 
d="M126 -156l5.00195 42.999c24.667 0 45.167 2.33301 61.5 7s29.166 12.167 38.499 22.5s16 21.5 20 33.5s7 27 9 45l49 460c3.33301 33.333 0.666016 56.833 -8.00098 70.5s-23 20.5 -43 20.5c-37.333 0 -77.666 -21.333 -120.999 -64l-51 -482h-53l61 578h52l-5 -62
c45.333 47.333 93.333 71 144 71c28 0 49.167 -10.167 63.5 -30.5s19.166 -52.166 14.499 -95.499l-49 -467c-10.667 -100 -69 -150 -175 -150h-13z" />
    <glyph glyph-name="Omacron" unicode="&#x14c;" horiz-adv-x="515" 
d="M245 878l3 37h171l-4 -37h-170zM236 -11c-30.667 0 -57.3291 4.00195 -79.9961 12.002s-40.667 19.167 -54 33.5s-23.666 31.5 -30.999 51.5s-11.333 42 -12 66s0 50 2 78l38 354c3.33301 36 9.66602 67.667 18.999 95s22.666 51.833 39.999 73.5
s39.833 38.167 67.5 49.5s60.167 17 97.5 17s68.666 -5.83301 93.999 -17.5s44.166 -27.834 56.499 -48.501s20.666 -45.5 24.999 -74.5s4.5 -60.5 0.5 -94.5l-38 -355c-4 -36.667 -10.5 -68.834 -19.5 -96.501s-22 -52.667 -39 -75s-39.5 -39.333 -67.5 -51
s-61 -17.5 -99 -17.5zM240.505 34.002c28.333 0 52.666 4.33398 72.999 13.001s36.5 21.5 48.5 38.5s21.333 36.167 28 57.5s11.667 46.333 15 75l39 374c3.33301 27.333 3.83301 52.166 1.5 74.499s-7.66602 41.5 -15.999 57.5s-21.833 28.333 -40.5 37
s-42.167 13 -70.5 13s-52.666 -4.16699 -72.999 -12.5s-36.5 -20.833 -48.5 -37.5s-21.333 -35.5 -28 -56.5s-11.667 -46.167 -15 -75.5l-39 -374c-3.33301 -27.333 -3.83301 -52.333 -1.5 -75s7.66602 -42 15.999 -58s21.833 -28.5 40.5 -37.5s42.167 -13.5 70.5 -13.5z
" />
    <glyph glyph-name="omacron" unicode="&#x14d;" horiz-adv-x="382" 
d="M154 647l3 37h171l-4 -37h-170zM169 -9c-38 0 -66.833 8.33203 -86.5 24.999s-31.667 41.167 -36 73.5s-4.16602 72.833 0.500977 121.5l17 156c4 38 9.5 69.833 16.5 95.5s17 48.334 30 68.001s29.5 34 49.5 43s44 13.5 72 13.5c38 0 67 -8.16699 87 -24.5
s32.167 -41 36.5 -74s4.16602 -73.5 -0.500977 -121.5l-17 -156c-8 -76.667 -24.333 -132.5 -49 -167.5s-64.667 -52.5 -120 -52.5zM174 30.999c16.667 0 30.8311 2.66602 42.498 7.99902s21.334 12.5 29.001 21.5s14.167 21.667 19.5 38s9.33301 32.5 12 48.5
s5.33398 36.667 8.00098 62l17 160c3.33301 37.333 4.83301 69.166 4.5 95.499s-6.66602 46.666 -18.999 60.999s-32.166 21.5 -59.499 21.5c-16.667 0 -31 -2.66699 -43 -8s-21.667 -12.666 -29 -21.999s-13.666 -22 -18.999 -38s-9.33301 -32.167 -12 -48.5
s-5.33398 -36.833 -8.00098 -61.5l-17 -160c-3.33301 -37.333 -4.83301 -69.166 -4.5 -95.499s6.66602 -46.666 18.999 -60.999s32.166 -21.5 59.499 -21.5z" />
    <glyph glyph-name="Obreve" unicode="&#x14e;" horiz-adv-x="515" 
d="M328 879c-34.667 0 -61.1689 9.16895 -79.502 27.502s-26.5 46.166 -24.5 83.499h38c-2 -26.667 3.5 -46.167 16.5 -58.5s30.833 -18.5 53.5 -18.5c50.667 0 80.334 25.667 89.001 77h37c-5.33301 -36.667 -19.666 -64.334 -42.999 -83.001s-52.333 -28 -87 -28z
M235.998 -10.998c-30.667 0 -57.3291 4.00195 -79.9961 12.002s-40.667 19.167 -54 33.5s-23.666 31.5 -30.999 51.5s-11.333 42 -12 66s0 50 2 78l38 354c3.33301 36 9.66602 67.667 18.999 95s22.666 51.833 39.999 73.5s39.833 38.167 67.5 49.5s60.167 17 97.5 17
s68.666 -5.83301 93.999 -17.5s44.166 -27.834 56.499 -48.501s20.666 -45.5 24.999 -74.5s4.5 -60.5 0.5 -94.5l-38 -355c-4 -36.667 -10.5 -68.834 -19.5 -96.501s-22 -52.667 -39 -75s-39.5 -39.333 -67.5 -51s-61 -17.5 -99 -17.5zM240.503 34.0039
c28.333 0 52.666 4.33398 72.999 13.001s36.5 21.5 48.5 38.5s21.333 36.167 28 57.5s11.667 46.333 15 75l39 374c3.33301 27.333 3.83301 52.166 1.5 74.499s-7.66602 41.5 -15.999 57.5s-21.833 28.333 -40.5 37s-42.167 13 -70.5 13s-52.666 -4.16699 -72.999 -12.5
s-36.5 -20.833 -48.5 -37.5s-21.333 -35.5 -28 -56.5s-11.667 -46.167 -15 -75.5l-39 -374c-3.33301 -27.333 -3.83301 -52.333 -1.5 -75s7.66602 -42 15.999 -58s21.833 -28.5 40.5 -37.5s42.167 -13.5 70.5 -13.5z" />
    <glyph glyph-name="obreve" unicode="&#x14f;" horiz-adv-x="382" 
d="M237 647c-34.667 0 -61.1689 9.16895 -79.502 27.502s-26.5 46.166 -24.5 83.499h38c-2 -26.667 3.5 -46.167 16.5 -58.5s30.833 -18.5 53.5 -18.5c50.667 0 80.334 25.667 89.001 77h37c-5.33301 -36.667 -19.666 -64.334 -42.999 -83.001s-52.333 -28 -87 -28z
M168.998 -8.99805c-38 0 -66.833 8.33203 -86.5 24.999s-31.667 41.167 -36 73.5s-4.16602 72.833 0.500977 121.5l17 156c4 38 9.5 69.833 16.5 95.5s17 48.334 30 68.001s29.5 34 49.5 43s44 13.5 72 13.5c38 0 67 -8.16699 87 -24.5s32.167 -41 36.5 -74
s4.16602 -73.5 -0.500977 -121.5l-17 -156c-8 -76.667 -24.333 -132.5 -49 -167.5s-64.667 -52.5 -120 -52.5zM173.998 31.001c16.667 0 30.8311 2.66602 42.498 7.99902s21.334 12.5 29.001 21.5s14.167 21.667 19.5 38s9.33301 32.5 12 48.5s5.33398 36.667 8.00098 62
l17 160c3.33301 37.333 4.83301 69.166 4.5 95.499s-6.66602 46.666 -18.999 60.999s-32.166 21.5 -59.499 21.5c-16.667 0 -31 -2.66699 -43 -8s-21.667 -12.666 -29 -21.999s-13.666 -22 -18.999 -38s-9.33301 -32.167 -12 -48.5s-5.33398 -36.833 -8.00098 -61.5
l-17 -160c-3.33301 -37.333 -4.83301 -69.166 -4.5 -95.499s6.66602 -46.666 18.999 -60.999s32.166 -21.5 59.499 -21.5z" />
    <glyph glyph-name="Ohungarumlaut" unicode="&#x150;" horiz-adv-x="515" 
d="M357 878l71 153h62l-102 -153h-31zM269 878l54 153h54l-79 -153h-29zM236 -11c-30.667 0 -57.3291 4.00195 -79.9961 12.002s-40.667 19.167 -54 33.5s-23.666 31.5 -30.999 51.5s-11.333 42 -12 66s0 50 2 78l38 354c3.33301 36 9.66602 67.667 18.999 95
s22.666 51.833 39.999 73.5s39.833 38.167 67.5 49.5s60.167 17 97.5 17s68.666 -5.83301 93.999 -17.5s44.166 -27.834 56.499 -48.501s20.666 -45.5 24.999 -74.5s4.5 -60.5 0.5 -94.5l-38 -355c-4 -36.667 -10.5 -68.834 -19.5 -96.501s-22 -52.667 -39 -75
s-39.5 -39.333 -67.5 -51s-61 -17.5 -99 -17.5zM240.505 34.002c28.333 0 52.666 4.33398 72.999 13.001s36.5 21.5 48.5 38.5s21.333 36.167 28 57.5s11.667 46.333 15 75l39 374c3.33301 27.333 3.83301 52.166 1.5 74.499s-7.66602 41.5 -15.999 57.5
s-21.833 28.333 -40.5 37s-42.167 13 -70.5 13s-52.666 -4.16699 -72.999 -12.5s-36.5 -20.833 -48.5 -37.5s-21.333 -35.5 -28 -56.5s-11.667 -46.167 -15 -75.5l-39 -374c-3.33301 -27.333 -3.83301 -52.333 -1.5 -75s7.66602 -42 15.999 -58s21.833 -28.5 40.5 -37.5
s42.167 -13.5 70.5 -13.5z" />
    <glyph glyph-name="ohungarumlaut" unicode="&#x151;" horiz-adv-x="382" 
d="M267 647l71 153h62l-102 -153h-31zM179 647l54 153h54l-79 -153h-29zM169 -9c-38 0 -66.833 8.33203 -86.5 24.999s-31.667 41.167 -36 73.5s-4.16602 72.833 0.500977 121.5l17 156c4 38 9.5 69.833 16.5 95.5s17 48.334 30 68.001s29.5 34 49.5 43s44 13.5 72 13.5
c38 0 67 -8.16699 87 -24.5s32.167 -41 36.5 -74s4.16602 -73.5 -0.500977 -121.5l-17 -156c-8 -76.667 -24.333 -132.5 -49 -167.5s-64.667 -52.5 -120 -52.5zM174 30.999c16.667 0 30.8311 2.66602 42.498 7.99902s21.334 12.5 29.001 21.5s14.167 21.667 19.5 38
s9.33301 32.5 12 48.5s5.33398 36.667 8.00098 62l17 160c3.33301 37.333 4.83301 69.166 4.5 95.499s-6.66602 46.666 -18.999 60.999s-32.166 21.5 -59.499 21.5c-16.667 0 -31 -2.66699 -43 -8s-21.667 -12.666 -29 -21.999s-13.666 -22 -18.999 -38
s-9.33301 -32.167 -12 -48.5s-5.33398 -36.833 -8.00098 -61.5l-17 -160c-3.33301 -37.333 -4.83301 -69.166 -4.5 -95.499s6.66602 -46.666 18.999 -60.999s32.166 -21.5 59.499 -21.5z" />
    <glyph glyph-name="OE" unicode="&#x152;" horiz-adv-x="620" 
d="M251 46l70.999 0.00195312l76 719h-72c-30.667 0 -56.667 -4.33301 -78 -13s-38.5 -21.667 -51.5 -39s-22.833 -37 -29.5 -59s-11.667 -48.667 -15 -80l-36 -345c-3.33301 -28 -3.66602 -53.333 -0.999023 -76s8.66699 -41.834 18 -57.501s23.833 -27.834 43.5 -36.501
s44.5 -13 74.5 -13zM245.999 0.00195312c-32 0 -59.833 3.66699 -83.5 11s-42.5 17.833 -56.5 31.5s-25 30 -33 49s-12.5 40 -13.5 63s-0.5 47.833 1.5 74.5l37 348c3.33301 35.333 10 66.833 20 94.5s24 52 42 73s41 37.167 69 48.5s61 17 99 17h326l-5 -45h-197l-34 -320
h165l-4 -43h-165l-38 -357h198l-5 -45h-323z" />
    <glyph glyph-name="oe" unicode="&#x153;" horiz-adv-x="626" 
d="M356 334h185.999l3 35c2 18.667 3.33301 34.834 4 48.501s0.833984 27.667 0.500977 42s-2.16602 26.166 -5.49902 35.499s-7.83301 18.166 -13.5 26.499s-13.334 14.333 -23.001 18s-21.167 5.5 -34.5 5.5c-34 0 -59.667 -12.667 -77 -38s-29.333 -69.666 -36 -132.999z
M177.999 33c16.667 0 31.0029 2.83301 43.0029 8.5s21.833 13 29.5 22s14 21.5 19 37.5s9 32 12 48s5.83301 36.333 8.5 61l16 158c3.33301 37.333 4.83301 69 4.5 95s-6.83301 46.167 -19.5 60.5s-32.334 21.5 -59.001 21.5c-16.667 0 -31 -2.83301 -43 -8.5
s-21.833 -13 -29.5 -22s-14 -21.333 -19 -37s-8.83301 -31.667 -11.5 -48s-5.33398 -36.833 -8.00098 -61.5l-17 -158c-4 -37.333 -5.66699 -69 -5 -95s7.16699 -46.167 19.5 -60.5s32.166 -21.5 59.499 -21.5zM174.002 -9c-38 0 -66.8359 8.16992 -86.5029 24.5029
s-32 40.833 -37 73.5s-4.83301 73 0.5 121l17 158c8 76 24.333 131.5 49 166.5s64.667 52.5 120 52.5c32 0 57.167 -7.5 75.5 -22.5s29.833 -37.167 34.5 -66.5c23.333 59.333 67.333 89 132 89c52.667 0 87.667 -17.167 105 -51.5s21.666 -93.166 12.999 -176.499l-7 -56
h-237l-9 -80c-7.33301 -68.667 -5.16602 -117.334 6.50098 -146.001s34.167 -43.334 67.5 -44.001c10 0 18.5 0.5 25.5 1.5s15.333 3.66699 25 8s17.667 10.5 24 18.5s12.333 19.667 18 35s9.5 33.666 11.5 54.999l5 44h53l-5 -43
c-5.33301 -52.667 -20.666 -92.834 -45.999 -120.501s-63.666 -41.167 -114.999 -40.5c-63.333 0.666992 -100 32 -110 94c-21.333 -62.667 -64.666 -94 -129.999 -94z" />
    <glyph glyph-name="Racute" unicode="&#x154;" horiz-adv-x="508" 
d="M324 879l85 194h53l-110 -194h-28zM156 450h138.998c25.333 0 46.833 3.5 64.5 10.5s31.834 17.833 42.501 32.5s18.834 31.167 24.501 49.5s9.83398 40.833 12.501 67.5c5.33301 54.667 0.166016 94.5 -15.501 119.5s-47.5 37.5 -95.5 37.5h-139zM53.998 0
l84.999 809.999h196c28 0 52.167 -3.33301 72.5 -10s36.5 -16.167 48.5 -28.5s21.333 -26.666 28 -42.999s10.334 -34.5 11.001 -54.5s0 -41.333 -2 -64c-2 -19.333 -4.83301 -37.166 -8.5 -53.499s-9.16699 -32.5 -16.5 -48.5s-16 -29.833 -26 -41.5
s-22.5 -21.834 -37.5 -30.501s-32.167 -14.667 -51.5 -18l86 -418h-54l-83 408h-151l-43 -408h-54z" />
    <glyph glyph-name="racute" unicode="&#x155;" horiz-adv-x="283" 
d="M197 647l85 194h53l-110 -194h-28zM43 0l61 578.001h53l-8 -78c18.667 27.333 41.5 48.166 68.5 62.499s52.5 21.5 76.5 21.5l4.5 -0.5c3 -0.333008 4.83301 -0.5 5.5 -0.5l-6 -55c-5.33301 2 -12.333 3 -21 3c-54.667 0 -98.667 -24.667 -132 -74l-48 -457h-54z" />
    <glyph glyph-name="Rcommaaccent" unicode="&#x156;" horiz-adv-x="508" 
d="M198 -240l-11.002 21c28.667 17.333 45.334 45.333 50.001 84h-35l8 75h65l-7 -62c-3.33301 -32 -10.166 -57 -20.499 -75s-26.833 -32.333 -49.5 -43zM155.998 450h138.998c25.333 0 46.833 3.5 64.5 10.5s31.834 17.833 42.501 32.5s18.834 31.167 24.501 49.5
s9.83398 40.833 12.501 67.5c5.33301 54.667 0.166016 94.5 -15.501 119.5s-47.5 37.5 -95.5 37.5h-139zM53.9961 0l84.999 809.999h196c28 0 52.167 -3.33301 72.5 -10s36.5 -16.167 48.5 -28.5s21.333 -26.666 28 -42.999s10.334 -34.5 11.001 -54.5s0 -41.333 -2 -64
c-2 -19.333 -4.83301 -37.166 -8.5 -53.499s-9.16699 -32.5 -16.5 -48.5s-16 -29.833 -26 -41.5s-22.5 -21.834 -37.5 -30.501s-32.167 -14.667 -51.5 -18l86 -418h-54l-83 408h-151l-43 -408h-54z" />
    <glyph glyph-name="rcommaaccent" unicode="&#x157;" horiz-adv-x="283" 
d="M95 -240l-11.002 21c28.667 17.333 45.334 45.333 50.001 84h-35l8 75h65l-7 -62c-3.33301 -32 -10.166 -57 -20.499 -75s-26.833 -32.333 -49.5 -43zM42.998 0l61 578.001h53l-8 -78c18.667 27.333 41.5 48.166 68.5 62.499s52.5 21.5 76.5 21.5l4.5 -0.5
c3 -0.333008 4.83301 -0.5 5.5 -0.5l-6 -55c-5.33301 2 -12.333 3 -21 3c-54.667 0 -98.667 -24.667 -132 -74l-48 -457h-54z" />
    <glyph glyph-name="Rcaron" unicode="&#x158;" horiz-adv-x="508" 
d="M318 878l-68 163h46l47 -122l72 122h45l-102 -163h-40zM156 450h138.998c25.333 0 46.833 3.5 64.5 10.5s31.834 17.833 42.501 32.5s18.834 31.167 24.501 49.5s9.83398 40.833 12.501 67.5c5.33301 54.667 0.166016 94.5 -15.501 119.5s-47.5 37.5 -95.5 37.5h-139z
M53.998 0l84.999 809.999h196c28 0 52.167 -3.33301 72.5 -10s36.5 -16.167 48.5 -28.5s21.333 -26.666 28 -42.999s10.334 -34.5 11.001 -54.5s0 -41.333 -2 -64c-2 -19.333 -4.83301 -37.166 -8.5 -53.499s-9.16699 -32.5 -16.5 -48.5s-16 -29.833 -26 -41.5
s-22.5 -21.834 -37.5 -30.501s-32.167 -14.667 -51.5 -18l86 -418h-54l-83 408h-151l-43 -408h-54z" />
    <glyph glyph-name="rcaron" unicode="&#x159;" horiz-adv-x="283" 
d="M191 647l-68 163h46l47 -122l72 122h45l-102 -163h-40zM43 0l61 578.001h53l-8 -78c18.667 27.333 41.5 48.166 68.5 62.499s52.5 21.5 76.5 21.5l4.5 -0.5c3 -0.333008 4.83301 -0.5 5.5 -0.5l-6 -55c-5.33301 2 -12.333 3 -21 3c-54.667 0 -98.667 -24.667 -132 -74
l-48 -457h-54z" />
    <glyph glyph-name="Sacute" unicode="&#x15a;" horiz-adv-x="452" 
d="M287 879l85 194h53l-110 -194h-28zM215 -10c-119.333 0 -177.001 69.999 -173.001 209.999l49 15c0.666992 -23.333 2.16699 -43.5 4.5 -60.5s6.33301 -33.333 12 -49s13.334 -28.5 23.001 -38.5s22 -17.833 37 -23.5s32.833 -8.5 53.5 -8.5
c86.667 0 134.334 43.333 143.001 130c3.33301 32.667 -1.83398 62.667 -15.501 90s-37.167 59.666 -70.5 96.999l-132 147c-42 46.667 -60.333 98 -55 154c6 52.667 26.5 93.334 61.5 122.001s79.5 43.334 133.5 44.001c58.667 0 102 -15.5 130 -46.5
s40.333 -83.167 37 -156.5l-47 -11c1.33301 59.333 -7.16699 102.666 -25.5 129.999s-50.833 40.666 -97.5 39.999c-40 -0.666992 -72.667 -10.667 -98 -30s-40 -48.666 -44 -87.999c-4.66699 -41.333 11 -82.333 47 -123l131 -144
c33.333 -37.333 58.666 -73.666 75.999 -108.999s24.333 -73 21 -113c-6 -58.667 -27.167 -103 -63.5 -133s-82.166 -45 -137.499 -45z" />
    <glyph glyph-name="sacute" unicode="&#x15b;" horiz-adv-x="356" 
d="M215 647l85 194h53l-110 -194h-28zM166 -9c-45.333 0 -79.832 14.668 -103.499 44.001s-34.5 69.666 -32.5 120.999l46 13c-1.33301 -47.333 6.16699 -82.166 22.5 -104.499s40.833 -33.5 73.5 -33.5c28.667 0 52.167 8.16699 70.5 24.5s28.833 39.5 31.5 69.5
c4 43.333 -19.333 88.333 -70 135l-61 57c-27.333 25.333 -46.333 49 -57 71s-14.334 47.333 -11.001 76c4.66699 39.333 19.834 69.666 45.501 90.999s58.5 32 98.5 32c41.333 0 71.666 -13.333 90.999 -40s27.333 -63.667 24 -111l-41 -12
c6 82.667 -19.333 123.667 -76 123c-26 0 -47.333 -6.66699 -64 -20s-26.334 -32.333 -29.001 -57c-2 -22 0.333008 -40.833 7 -56.5s20.334 -33.5 41.001 -53.5l62 -61c14.667 -14 26.5 -25.833 35.5 -35.5s18.333 -22 28 -37s16.5 -31 20.5 -48s5 -35.167 3 -54.5
c-4 -41.333 -20 -73.833 -48 -97.5s-63.667 -35.5 -107 -35.5z" />
    <glyph glyph-name="Scircumflex" unicode="&#x15c;" horiz-adv-x="452" 
d="M183 878l105 180h66l66 -180h-37l-65 153l-96 -153h-39zM215 -10c-119.333 0 -177.001 69.999 -173.001 209.999l49 15c0.666992 -23.333 2.16699 -43.5 4.5 -60.5s6.33301 -33.333 12 -49s13.334 -28.5 23.001 -38.5s22 -17.833 37 -23.5s32.833 -8.5 53.5 -8.5
c86.667 0 134.334 43.333 143.001 130c3.33301 32.667 -1.83398 62.667 -15.501 90s-37.167 59.666 -70.5 96.999l-132 147c-42 46.667 -60.333 98 -55 154c6 52.667 26.5 93.334 61.5 122.001s79.5 43.334 133.5 44.001c58.667 0 102 -15.5 130 -46.5
s40.333 -83.167 37 -156.5l-47 -11c1.33301 59.333 -7.16699 102.666 -25.5 129.999s-50.833 40.666 -97.5 39.999c-40 -0.666992 -72.667 -10.667 -98 -30s-40 -48.666 -44 -87.999c-4.66699 -41.333 11 -82.333 47 -123l131 -144
c33.333 -37.333 58.666 -73.666 75.999 -108.999s24.333 -73 21 -113c-6 -58.667 -27.167 -103 -63.5 -133s-82.166 -45 -137.499 -45z" />
    <glyph glyph-name="scircumflex" unicode="&#x15d;" horiz-adv-x="356" 
d="M110 647l105 180h66l66 -180h-37l-65 153l-96 -153h-39zM166 -9c-45.333 0 -79.832 14.668 -103.499 44.001s-34.5 69.666 -32.5 120.999l46 13c-1.33301 -47.333 6.16699 -82.166 22.5 -104.499s40.833 -33.5 73.5 -33.5c28.667 0 52.167 8.16699 70.5 24.5
s28.833 39.5 31.5 69.5c4 43.333 -19.333 88.333 -70 135l-61 57c-27.333 25.333 -46.333 49 -57 71s-14.334 47.333 -11.001 76c4.66699 39.333 19.834 69.666 45.501 90.999s58.5 32 98.5 32c41.333 0 71.666 -13.333 90.999 -40s27.333 -63.667 24 -111l-41 -12
c6 82.667 -19.333 123.667 -76 123c-26 0 -47.333 -6.66699 -64 -20s-26.334 -32.333 -29.001 -57c-2 -22 0.333008 -40.833 7 -56.5s20.334 -33.5 41.001 -53.5l62 -61c14.667 -14 26.5 -25.833 35.5 -35.5s18.333 -22 28 -37s16.5 -31 20.5 -48s5 -35.167 3 -54.5
c-4 -41.333 -20 -73.833 -48 -97.5s-63.667 -35.5 -107 -35.5z" />
    <glyph glyph-name="Scedilla" unicode="&#x15e;" horiz-adv-x="452" 
d="M157 -185l3.00195 29c31.333 -2 54.166 -0.333008 68.499 5s22.833 15.333 25.5 30c2.66699 16 -1.33301 29 -12 39s-27.334 16.667 -50.001 20l6 62h29l-5 -47c26 -3.33301 45.333 -12.5 58 -27.5s17.667 -31.833 15 -50.5c-8 -47.333 -54 -67.333 -138 -60z
M215.002 -10c-119.333 0 -177.001 69.999 -173.001 209.999l49 15c0.666992 -23.333 2.16699 -43.5 4.5 -60.5s6.33301 -33.333 12 -49s13.334 -28.5 23.001 -38.5s22 -17.833 37 -23.5s32.833 -8.5 53.5 -8.5c86.667 0 134.334 43.333 143.001 130
c3.33301 32.667 -1.83398 62.667 -15.501 90s-37.167 59.666 -70.5 96.999l-132 147c-42 46.667 -60.333 98 -55 154c6 52.667 26.5 93.334 61.5 122.001s79.5 43.334 133.5 44.001c58.667 0 102 -15.5 130 -46.5s40.333 -83.167 37 -156.5l-47 -11
c1.33301 59.333 -7.16699 102.666 -25.5 129.999s-50.833 40.666 -97.5 39.999c-40 -0.666992 -72.667 -10.667 -98 -30s-40 -48.666 -44 -87.999c-4.66699 -41.333 11 -82.333 47 -123l131 -144c33.333 -37.333 58.666 -73.666 75.999 -108.999s24.333 -73 21 -113
c-6 -58.667 -27.167 -103 -63.5 -133s-82.166 -45 -137.499 -45z" />
    <glyph glyph-name="scedilla" unicode="&#x15f;" horiz-adv-x="356" 
d="M108 -185l3.00195 29c31.333 -2 54.166 -0.333008 68.499 5s22.833 15.333 25.5 30c2.66699 16 -1.33301 29 -12 39s-27.334 16.667 -50.001 20l6 62h29l-5 -47c26 -3.33301 45.333 -12.5 58 -27.5s17.667 -31.833 15 -50.5c-8 -47.333 -54 -67.333 -138 -60zM166.002 -9
c-45.333 0 -79.832 14.668 -103.499 44.001s-34.5 69.666 -32.5 120.999l46 13c-1.33301 -47.333 6.16699 -82.166 22.5 -104.499s40.833 -33.5 73.5 -33.5c28.667 0 52.167 8.16699 70.5 24.5s28.833 39.5 31.5 69.5c4 43.333 -19.333 88.333 -70 135l-61 57
c-27.333 25.333 -46.333 49 -57 71s-14.334 47.333 -11.001 76c4.66699 39.333 19.834 69.666 45.501 90.999s58.5 32 98.5 32c41.333 0 71.666 -13.333 90.999 -40s27.333 -63.667 24 -111l-41 -12c6 82.667 -19.333 123.667 -76 123c-26 0 -47.333 -6.66699 -64 -20
s-26.334 -32.333 -29.001 -57c-2 -22 0.333008 -40.833 7 -56.5s20.334 -33.5 41.001 -53.5l62 -61c14.667 -14 26.5 -25.833 35.5 -35.5s18.333 -22 28 -37s16.5 -31 20.5 -48s5 -35.167 3 -54.5c-4 -41.333 -20 -73.833 -48 -97.5s-63.667 -35.5 -107 -35.5z" />
    <glyph glyph-name="Scaron" unicode="&#x160;" horiz-adv-x="452" 
d="M281 878l-68 163h46l47 -122l72 122h45l-102 -163h-40zM215 -10c-119.333 0 -177.001 69.999 -173.001 209.999l49 15c0.666992 -23.333 2.16699 -43.5 4.5 -60.5s6.33301 -33.333 12 -49s13.334 -28.5 23.001 -38.5s22 -17.833 37 -23.5s32.833 -8.5 53.5 -8.5
c86.667 0 134.334 43.333 143.001 130c3.33301 32.667 -1.83398 62.667 -15.501 90s-37.167 59.666 -70.5 96.999l-132 147c-42 46.667 -60.333 98 -55 154c6 52.667 26.5 93.334 61.5 122.001s79.5 43.334 133.5 44.001c58.667 0 102 -15.5 130 -46.5
s40.333 -83.167 37 -156.5l-47 -11c1.33301 59.333 -7.16699 102.666 -25.5 129.999s-50.833 40.666 -97.5 39.999c-40 -0.666992 -72.667 -10.667 -98 -30s-40 -48.666 -44 -87.999c-4.66699 -41.333 11 -82.333 47 -123l131 -144
c33.333 -37.333 58.666 -73.666 75.999 -108.999s24.333 -73 21 -113c-6 -58.667 -27.167 -103 -63.5 -133s-82.166 -45 -137.499 -45z" />
    <glyph glyph-name="scaron" unicode="&#x161;" horiz-adv-x="356" 
d="M208 647l-68 163h46l47 -122l72 122h45l-102 -163h-40zM166 -9c-45.333 0 -79.832 14.668 -103.499 44.001s-34.5 69.666 -32.5 120.999l46 13c-1.33301 -47.333 6.16699 -82.166 22.5 -104.499s40.833 -33.5 73.5 -33.5c28.667 0 52.167 8.16699 70.5 24.5
s28.833 39.5 31.5 69.5c4 43.333 -19.333 88.333 -70 135l-61 57c-27.333 25.333 -46.333 49 -57 71s-14.334 47.333 -11.001 76c4.66699 39.333 19.834 69.666 45.501 90.999s58.5 32 98.5 32c41.333 0 71.666 -13.333 90.999 -40s27.333 -63.667 24 -111l-41 -12
c6 82.667 -19.333 123.667 -76 123c-26 0 -47.333 -6.66699 -64 -20s-26.334 -32.333 -29.001 -57c-2 -22 0.333008 -40.833 7 -56.5s20.334 -33.5 41.001 -53.5l62 -61c14.667 -14 26.5 -25.833 35.5 -35.5s18.333 -22 28 -37s16.5 -31 20.5 -48s5 -35.167 3 -54.5
c-4 -41.333 -20 -73.833 -48 -97.5s-63.667 -35.5 -107 -35.5z" />
    <glyph glyph-name="Tcommaaccent" unicode="&#x162;" horiz-adv-x="380" 
d="M113 -185l3.00195 29c31.333 -2 54.166 -0.333008 68.499 5s22.833 15.333 25.5 30c2.66699 16 -1.33301 29 -12 39s-27.334 16.667 -50.001 20l6 62h29l-5 -47c26 -3.33301 45.333 -12.5 58 -27.5s17.667 -31.833 15 -50.5c-8 -47.333 -54 -67.333 -138 -60zM144.002 0
l80 766h-171l5 44h394l-5 -44h-168l-80 -766h-55z" />
    <glyph glyph-name="tcommaaccent" unicode="&#x163;" horiz-adv-x="262" 
d="M93 -185l3.00195 29c31.333 -2 54.166 -0.333008 68.499 5s22.833 15.333 25.5 30c2.66699 16 -1.33301 29 -12 39s-27.334 16.667 -50.001 20l6 62h29l-5 -47c26 -3.33301 45.333 -12.5 58 -27.5s17.667 -31.833 15 -50.5c-8 -47.333 -54 -67.333 -138 -60zM162.002 -6
c-19.333 0 -35.001 2.99902 -47.001 8.99902s-20.333 14.5 -25 25.5s-7.66699 23.833 -9 38.5s-0.666016 30.334 2.00098 47.001l45 429h-76l4 35h75l20 185h53l-19 -185h98l-4 -35h-98l-45 -422c-3.33301 -32.667 -2.33301 -55 3 -67s18.333 -18 39 -18
c10.667 0 25 1.66699 43 5l-4 -41c-16.667 -4 -35 -6 -55 -6z" />
    <glyph glyph-name="Tcaron" unicode="&#x164;" horiz-adv-x="380" 
d="M241 878l-68 163h46l47 -122l72 122h45l-102 -163h-40zM144 0l80 766h-171l5 44h394l-5 -44h-168l-80 -766h-55z" />
    <glyph glyph-name="tcaron" unicode="&#x165;" horiz-adv-x="358" 
d="M346 533l24 230h54l-50 -230h-28zM162 -6c-19.333 0 -35.001 2.99902 -47.001 8.99902s-20.333 14.5 -25 25.5s-7.66699 23.833 -9 38.5s-0.666016 30.334 2.00098 47.001l45 429h-76l4 35h75l20 185h53l-19 -185h98l-4 -35h-98l-45 -422
c-3.33301 -32.667 -2.33301 -55 3 -67s18.333 -18 39 -18c10.667 0 25 1.66699 43 5l-4 -41c-16.667 -4 -35 -6 -55 -6z" />
    <glyph glyph-name="Tbar" unicode="&#x166;" horiz-adv-x="380" 
d="M59 417l4 37h128l33 312h-171l5 44h394l-5 -44h-168l-33 -312h109l-3 -37h-110l-43 -417h-55l44 417h-129z" />
    <glyph glyph-name="tbar" unicode="&#x167;" horiz-adv-x="306" 
d="M51 362l3 32.999h62l16 148h-76l4 35h75l20 185h53l-20 -185h99l-4 -35h-98l-16 -148h89l-3 -33h-89l-26 -241c-3.33301 -32.667 -2.33301 -55 3 -67s18.333 -18 39 -18c10.667 0 25 1.66699 43 5l-4 -41c-16.667 -4.66699 -35 -6.66699 -55 -6c-19.333 0 -35 3 -47 9
s-20.5 14.5 -25.5 25.5s-8 23.833 -9 38.5s-0.5 30.334 1.5 47.001l27 248h-62z" />
    <glyph glyph-name="Utilde" unicode="&#x168;" horiz-adv-x="533" 
d="M381 879c-12.667 0.666992 -28.165 8.16895 -46.498 22.502s-30.833 21.833 -37.5 22.5c-10.667 2.66699 -19.667 0.666992 -27 -6s-11.666 -17.334 -12.999 -32.001h-37c0 4.66699 1 10 3 16s5 13.167 9 21.5s8.83301 15.5 14.5 21.5s13.5 10.667 23.5 14s21.333 4 34 2
c12 -1.33301 27.167 -9 45.5 -23s30.833 -21.667 37.5 -23c12 -1.33301 21.667 1.5 29 8.5s12 19.167 14 36.5h35c-0.666992 -6 -1.83398 -12.167 -3.50098 -18.5s-4.33398 -13.833 -8.00098 -22.5s-8.33398 -16 -14.001 -22s-13.667 -10.833 -24 -14.5
s-21.833 -4.83398 -34.5 -3.50098zM245.002 -10.998c-30.667 0 -57.5029 3.33398 -80.5029 10.001s-41.333 16 -55 28s-24.5 26.333 -32.5 43s-12.5 35 -13.5 55s-0.5 41.667 1.5 65l65 620h53l-65 -621c-1.33301 -18 -1.66602 -34.833 -0.999023 -50.5
s3.83398 -29.834 9.50098 -42.501s13.5 -23.667 23.5 -33s23.333 -16.5 40 -21.5s36.667 -7.5 60 -7.5c98.667 0 153.334 51.667 164.001 155l65 621h53l-65 -620c-14 -134 -88 -201 -222 -201z" />
    <glyph glyph-name="utilde" unicode="&#x169;" horiz-adv-x="394" 
d="M284 647c-12.667 0.666992 -28.165 8.16895 -46.498 22.502s-30.833 21.833 -37.5 22.5c-10.667 2.66699 -19.667 0.666992 -27 -6s-11.666 -17.334 -12.999 -32.001h-37c0 4.66699 1 10 3 16s5 13.167 9 21.5s8.83301 15.5 14.5 21.5s13.5 10.667 23.5 14s21.333 4 34 2
c12 -1.33301 27.167 -9 45.5 -23s30.833 -21.667 37.5 -23c12 -1.33301 21.667 1.5 29 8.5s12 19.167 14 36.5h35c-0.666992 -6 -1.83398 -12.167 -3.50098 -18.5s-4.33398 -13.833 -8.00098 -22.5s-8.33398 -16 -14.001 -22s-13.667 -10.833 -24 -14.5
s-21.833 -4.83398 -34.5 -3.50098zM121.002 -8.99805c-28 0 -48.999 10.168 -62.999 30.501s-19 52.166 -15 95.499l48 461h54l-48 -455c-3.33301 -33.333 -0.5 -56.833 8.5 -70.5s23.167 -20.5 42.5 -20.5s40.166 6.33301 62.499 19s43.5 29.667 63.5 51l50 476h53
l-60 -578h-53l7 68c-46 -51.333 -96 -77 -150 -77z" />
    <glyph glyph-name="Umacron" unicode="&#x16a;" horiz-adv-x="533" 
d="M253 878l3 37h171l-4 -37h-170zM245 -11c-30.667 0 -57.5029 3.33398 -80.5029 10.001s-41.333 16 -55 28s-24.5 26.333 -32.5 43s-12.5 35 -13.5 55s-0.5 41.667 1.5 65l65 620h53l-65 -621c-1.33301 -18 -1.66602 -34.833 -0.999023 -50.5
s3.83398 -29.834 9.50098 -42.501s13.5 -23.667 23.5 -33s23.333 -16.5 40 -21.5s36.667 -7.5 60 -7.5c98.667 0 153.334 51.667 164.001 155l65 621h53l-65 -620c-14 -134 -88 -201 -222 -201z" />
    <glyph glyph-name="umacron" unicode="&#x16b;" horiz-adv-x="394" 
d="M156 647l3 37h171l-4 -37h-170zM121 -9c-28 0 -48.999 10.168 -62.999 30.501s-19 52.166 -15 95.499l48 461h54l-48 -455c-3.33301 -33.333 -0.5 -56.833 8.5 -70.5s23.167 -20.5 42.5 -20.5s40.166 6.33301 62.499 19s43.5 29.667 63.5 51l50 476h53l-60 -578h-53l7 68
c-46 -51.333 -96 -77 -150 -77z" />
    <glyph glyph-name="Ubreve" unicode="&#x16c;" horiz-adv-x="533" 
d="M336 879c-34.667 0 -61.1689 9.16895 -79.502 27.502s-26.5 46.166 -24.5 83.499h38c-2 -26.667 3.5 -46.167 16.5 -58.5s30.833 -18.5 53.5 -18.5c50.667 0 80.334 25.667 89.001 77h37c-5.33301 -36.667 -19.666 -64.334 -42.999 -83.001s-52.333 -28 -87 -28z
M244.998 -10.998c-30.667 0 -57.5029 3.33398 -80.5029 10.001s-41.333 16 -55 28s-24.5 26.333 -32.5 43s-12.5 35 -13.5 55s-0.5 41.667 1.5 65l65 620h53l-65 -621c-1.33301 -18 -1.66602 -34.833 -0.999023 -50.5s3.83398 -29.834 9.50098 -42.501
s13.5 -23.667 23.5 -33s23.333 -16.5 40 -21.5s36.667 -7.5 60 -7.5c98.667 0 153.334 51.667 164.001 155l65 621h53l-65 -620c-14 -134 -88 -201 -222 -201z" />
    <glyph glyph-name="ubreve" unicode="&#x16d;" horiz-adv-x="394" 
d="M240 647c-34.667 0 -61.1689 9.16895 -79.502 27.502s-26.5 46.166 -24.5 83.499h38c-2 -26.667 3.5 -46.167 16.5 -58.5s30.833 -18.5 53.5 -18.5c50.667 0 80.334 25.667 89.001 77h37c-5.33301 -36.667 -19.666 -64.334 -42.999 -83.001s-52.333 -28 -87 -28z
M120.998 -8.99805c-28 0 -48.999 10.168 -62.999 30.501s-19 52.166 -15 95.499l48 461h54l-48 -455c-3.33301 -33.333 -0.5 -56.833 8.5 -70.5s23.167 -20.5 42.5 -20.5s40.166 6.33301 62.499 19s43.5 29.667 63.5 51l50 476h53l-60 -578h-53l7 68
c-46 -51.333 -96 -77 -150 -77z" />
    <glyph glyph-name="Uring" unicode="&#x16e;" horiz-adv-x="533" 
d="M337 878c-23.333 0 -42.666 7.16699 -57.999 21.5s-21.5 35.5 -18.5 63.5s13.667 49.167 32 63.5s39.166 21.5 62.499 21.5s42.833 -7.16699 58.5 -21.5s22 -35.5 19 -63.5s-13.833 -49.167 -32.5 -63.5s-39.667 -21.5 -63 -21.5zM340.5 909c15 0 28 4.5 39 13.5
s17.5 22.5 19.5 40.5c2 18.667 -1.5 32.5 -10.5 41.5s-21 13.5 -36 13.5s-28.167 -4.5 -39.5 -13.5s-18 -22.833 -20 -41.5c-2 -18 1.66699 -31.5 11 -40.5s21.5 -13.5 36.5 -13.5zM245 -11c-30.667 0 -57.5029 3.33398 -80.5029 10.001s-41.333 16 -55 28
s-24.5 26.333 -32.5 43s-12.5 35 -13.5 55s-0.5 41.667 1.5 65l65 620h53l-65 -621c-1.33301 -18 -1.66602 -34.833 -0.999023 -50.5s3.83398 -29.834 9.50098 -42.501s13.5 -23.667 23.5 -33s23.333 -16.5 40 -21.5s36.667 -7.5 60 -7.5
c98.667 0 153.334 51.667 164.001 155l65 621h53l-65 -620c-14 -134 -88 -201 -222 -201z" />
    <glyph glyph-name="uring" unicode="&#x16f;" horiz-adv-x="394" 
d="M241 647c-23.333 0 -42.666 7.16699 -57.999 21.5s-21.5 35.5 -18.5 63.5s13.667 49.167 32 63.5s39.166 21.5 62.499 21.5s42.833 -7.16699 58.5 -21.5s22 -35.5 19 -63.5s-13.833 -49.167 -32.5 -63.5s-39.667 -21.5 -63 -21.5zM244.5 678c15 0 28 4.5 39 13.5
s17.5 22.5 19.5 40.5c2 18.667 -1.5 32.5 -10.5 41.5s-21 13.5 -36 13.5s-28.167 -4.5 -39.5 -13.5s-18 -22.833 -20 -41.5c-2 -18 1.66699 -31.5 11 -40.5s21.5 -13.5 36.5 -13.5zM121 -9c-28 0 -48.999 10.168 -62.999 30.501s-19 52.166 -15 95.499l48 461h54l-48 -455
c-3.33301 -33.333 -0.5 -56.833 8.5 -70.5s23.167 -20.5 42.5 -20.5s40.166 6.33301 62.499 19s43.5 29.667 63.5 51l50 476h53l-60 -578h-53l7 68c-46 -51.333 -96 -77 -150 -77z" />
    <glyph glyph-name="Uhungarumlaut" unicode="&#x170;" horiz-adv-x="533" 
d="M366 878l71 153h62l-102 -153h-31zM278 878l54 153h54l-79 -153h-29zM245 -11c-30.667 0 -57.5029 3.33398 -80.5029 10.001s-41.333 16 -55 28s-24.5 26.333 -32.5 43s-12.5 35 -13.5 55s-0.5 41.667 1.5 65l65 620h53l-65 -621
c-1.33301 -18 -1.66602 -34.833 -0.999023 -50.5s3.83398 -29.834 9.50098 -42.501s13.5 -23.667 23.5 -33s23.333 -16.5 40 -21.5s36.667 -7.5 60 -7.5c98.667 0 153.334 51.667 164.001 155l65 621h53l-65 -620c-14 -134 -88 -201 -222 -201z" />
    <glyph glyph-name="uhungarumlaut" unicode="&#x171;" horiz-adv-x="394" 
d="M270 647l71 153h62l-102 -153h-31zM182 647l54 153h54l-79 -153h-29zM121 -9c-28 0 -48.999 10.168 -62.999 30.501s-19 52.166 -15 95.499l48 461h54l-48 -455c-3.33301 -33.333 -0.5 -56.833 8.5 -70.5s23.167 -20.5 42.5 -20.5s40.166 6.33301 62.499 19
s43.5 29.667 63.5 51l50 476h53l-60 -578h-53l7 68c-46 -51.333 -96 -77 -150 -77z" />
    <glyph glyph-name="Uogonek" unicode="&#x172;" horiz-adv-x="533" 
d="M270 -199c-40.667 0 -70.668 6.83301 -90.001 20.5s-27.666 33.5 -24.999 59.5c2.66699 23.333 13 46.333 31 69s38.667 40 62 52h30c-50 -45.333 -77 -84.333 -81 -117c-2 -18.667 5.16699 -32.167 21.5 -40.5s37.5 -12.5 63.5 -12.5zM244.999 -11
c-30.667 0 -57.5029 3.33398 -80.5029 10.001s-41.333 16 -55 28s-24.5 26.333 -32.5 43s-12.5 35 -13.5 55s-0.5 41.667 1.5 65l65 620h53l-65 -621c-1.33301 -18 -1.66602 -34.833 -0.999023 -50.5s3.83398 -29.834 9.50098 -42.501s13.5 -23.667 23.5 -33
s23.333 -16.5 40 -21.5s36.667 -7.5 60 -7.5c98.667 0 153.334 51.667 164.001 155l65 621h53l-65 -620c-14 -134 -88 -201 -222 -201z" />
    <glyph glyph-name="uogonek" unicode="&#x173;" horiz-adv-x="394" 
d="M315 -199c-40.667 0 -70.668 6.83301 -90.001 20.5s-27.666 33.5 -24.999 59.5c2.66699 23.333 13 46.333 31 69s38.667 40 62 52h30c-50 -45.333 -77 -84.333 -81 -117c-2 -18.667 5.16699 -32.167 21.5 -40.5s37.5 -12.5 63.5 -12.5zM120.999 -9
c-28 0 -48.999 10.168 -62.999 30.501s-19 52.166 -15 95.499l48 461h54l-48 -455c-3.33301 -33.333 -0.5 -56.833 8.5 -70.5s23.167 -20.5 42.5 -20.5s40.166 6.33301 62.499 19s43.5 29.667 63.5 51l50 476h53l-60 -578h-53l7 68c-46 -51.333 -96 -77 -150 -77z" />
    <glyph glyph-name="Wcircumflex" unicode="&#x174;" horiz-adv-x="706" 
d="M305 878l105 180h66l66 -180h-37l-65 153l-96 -153h-39zM154 0l-56 809l48 1l45 -703l202 685h53l61 -685l182 703h48l-217 -810h-46l-63 709l-210 -709h-47z" />
    <glyph glyph-name="wcircumflex" unicode="&#x175;" horiz-adv-x="566" 
d="M211 647l105 180h66l66 -180h-37l-65 153l-96 -153h-39zM107 0l-34 578h47l26 -517l153 517h51l47 -515l129 515h47l-153 -578h-55l-47 507l-151 -507h-60z" />
    <glyph glyph-name="Ycircumflex" unicode="&#x176;" horiz-adv-x="461" 
d="M183 878l105 180h66l66 -180h-37l-65 153l-96 -153h-39zM186 0l27 259l-129 551h56l108 -486l202 486h56l-238 -551l-28 -259h-54z" />
    <glyph glyph-name="ycircumflex" unicode="&#x177;" horiz-adv-x="374" 
d="M116 647l105 180h66l66 -180h-37l-65 153l-96 -153h-39zM1 -144l4.99902 43c22.667 0 41.834 1.16699 57.501 3.5s28.167 5.5 37.5 9.5s16.833 9.5 22.5 16.5s9.5 14.167 11.5 21.5s3 17 3 29c0 10 -2.66699 36.667 -8 80l-67 519h53l59 -528l165 528h53l-207 -625
c-12 -34 -30.5 -58.667 -55.5 -74s-60.833 -23 -107.5 -23h-22z" />
    <glyph glyph-name="Ydieresis" unicode="&#x178;" horiz-adv-x="461" 
d="M354 878l8 76h56l-8 -76h-56zM194 878l8 76h56l-8 -76h-56zM186 0l27 259l-129 551h56l108 -486l202 486h56l-238 -551l-28 -259h-54z" />
    <glyph glyph-name="Zacute" unicode="&#x179;" horiz-adv-x="401" 
d="M263 879l85 194h53l-110 -194h-28zM10 0l5 43l367 724h-265l5 43h323l-3 -34l-372 -733h296l-5 -43h-351z" />
    <glyph glyph-name="zacute" unicode="&#x17a;" horiz-adv-x="325" 
d="M197 647l85 194h53l-110 -194h-28zM12 0l4 39l261 498h-187l4 41h241l-3 -35l-260 -502h203l-4 -41h-259z" />
    <glyph glyph-name="Zdotaccent" unicode="&#x17b;" horiz-adv-x="401" 
d="M248 879l11 104h60l-11 -104h-60zM10 0l5 43l367 724h-265l5 43h323l-3 -34l-372 -733h296l-5 -43h-351z" />
    <glyph glyph-name="zdotaccent" unicode="&#x17c;" horiz-adv-x="325" 
d="M181 647l11 104h60l-11 -104h-60zM12 0l4 39l261 498h-187l4 41h241l-3 -35l-260 -502h203l-4 -41h-259z" />
    <glyph glyph-name="Zcaron" unicode="&#x17d;" horiz-adv-x="401" 
d="M257 878l-68 163h46l47 -122l72 122h45l-102 -163h-40zM10 0l5 43l367 724h-265l5 43h323l-3 -34l-372 -733h296l-5 -43h-351z" />
    <glyph glyph-name="zcaron" unicode="&#x17e;" horiz-adv-x="325" 
d="M190 647l-68 163h46l47 -122l72 122h45l-102 -163h-40zM12 0l4 39l261 498h-187l4 41h241l-3 -35l-260 -502h203l-4 -41h-259z" />
    <glyph glyph-name="florin" unicode="&#x192;" horiz-adv-x="370" 
d="M6 -139c-18.667 0 -35.666 2.33301 -50.999 7l9 40c16 -4 29.667 -6 41 -6c21.333 0 37 6.33301 47 19s19.333 36 28 70l139 550h-77l4 37h81l21 80c5.33301 21.333 10.5 38.5 15.5 51.5s12 26.167 21 39.5s20.833 23 35.5 29s32.667 9 54 9
c18.667 0 35.667 -2.33301 51 -7l-9 -40c-18.667 4 -32.334 6 -41.001 6c-21.333 0 -37 -6.33301 -47 -19s-19 -36 -27 -70l-21 -79h91l-3 -37h-97l-139 -551c-5.33301 -21.333 -10.333 -38.5 -15 -51.5s-11.667 -26.167 -21 -39.5s-21.333 -23 -36 -29s-32.667 -9 -54 -9z
" />
    <glyph glyph-name="uni01C4" unicode="&#x1c4;" horiz-adv-x="918" 
d="M774 878l-68 163h46l47 -122l72 122h45l-102 -163h-40zM527 0l5 43l367 724h-265l5 43h323l-3 -34l-372 -733h296l-5 -43h-351zM54 0l84.999 809.999h177c31.333 0 58.833 -4 82.5 -12s42.334 -19 56.001 -33s24.667 -30.667 33 -50s12.833 -40.666 13.5 -63.999
s0 -48 -2 -74l-35 -336c-4 -36.667 -10.667 -69 -20 -97s-22.833 -53.167 -40.5 -75.5s-40.5 -39.333 -68.5 -51s-61 -17.5 -99 -17.5h-182zM112.999 42.999l125.003 -0.00195312c21.333 0 40.5 2.33301 57.5 7s31.333 11.834 43 21.501s21.667 20.334 30 32.001
s15.166 25.667 20.499 42s9.5 32.333 12.5 48s5.83301 33.5 8.5 53.5l34 326c4 29.333 4.66699 56 2 80s-8.33398 44.333 -17.001 61s-22.834 29.5 -42.501 38.5s-44.5 13.5 -74.5 13.5h-123z" />
    <glyph glyph-name="uni01C5" unicode="&#x1c5;" horiz-adv-x="842" 
d="M707 647l-68 163h46l47 -122l72 122h45l-102 -163h-40zM529 0l4 39l261 498h-187l4 41h241l-3 -35l-260 -502h203l-4 -41h-259zM54 0l84.999 809.999h177c31.333 0 58.833 -4 82.5 -12s42.334 -19 56.001 -33s24.667 -30.667 33 -50s12.833 -40.666 13.5 -63.999
s0 -48 -2 -74l-35 -336c-4 -36.667 -10.667 -69 -20 -97s-22.833 -53.167 -40.5 -75.5s-40.5 -39.333 -68.5 -51s-61 -17.5 -99 -17.5h-182zM112.999 42.999l125.003 -0.00195312c21.333 0 40.5 2.33301 57.5 7s31.333 11.834 43 21.501s21.667 20.334 30 32.001
s15.166 25.667 20.499 42s9.5 32.333 12.5 48s5.83301 33.5 8.5 53.5l34 326c4 29.333 4.66699 56 2 80s-8.33398 44.333 -17.001 61s-22.834 29.5 -42.501 38.5s-44.5 13.5 -74.5 13.5h-123z" />
    <glyph glyph-name="uni01C6" unicode="&#x1c6;" horiz-adv-x="719" 
d="M585 647l-68 163h46l47 -122l72 122h45l-102 -163h-40zM407 0l4 39l261 498h-187l4 41h241l-3 -35l-260 -502h203l-4 -41h-259zM172 32c34 0 67.333 16.332 100 48.999l43 414c-28 34 -58.333 51 -91 51c-35.333 0 -60.5 -14.333 -75.5 -43s-26.167 -78.667 -33.5 -150
l-12 -120c-7.33301 -73.333 -6.5 -125.166 2.5 -155.499s31.167 -45.5 66.5 -45.5zM160 -9.00098c-49.333 0 -82.332 18.832 -98.999 56.499s-20.334 100.834 -11.001 189.501l11 103c9.33301 86 25.5 148.667 48.5 188s59.833 59 110.5 59c40.667 0 73.667 -17.667 99 -53
l30 276h52l-85 -810h-52l4 44c-33.333 -35.333 -69.333 -53 -108 -53z" />
    <glyph glyph-name="uni01C7" unicode="&#x1c7;" horiz-adv-x="638" 
d="M355 -45l4.99609 43c20.667 0 37.667 0.5 51 1.5s25.333 4 36 9s18.834 10.5 24.501 16.5s10.834 15.5 15.501 28.5s7.83398 26.333 9.50098 40s3.83398 32.5 6.50098 56.5l70 660h54l-69 -666c-3.33301 -28 -7 -51.333 -11 -70s-9.83301 -36.167 -17.5 -52.5
s-17.667 -29 -30 -38s-28 -16 -47 -21s-41.833 -7.5 -68.5 -7.5h-29zM53.9961 0l85 810h54l-80 -767h244l-4 -43h-299z" />
    <glyph glyph-name="uni01C8" unicode="&#x1c8;" horiz-adv-x="575" 
d="M503 678l9 93h54l-10 -93h-53zM321 -153l3.99805 43c2.66699 -0.666992 10.334 -1 23.001 -1c16.667 0 30.5 2.16699 41.5 6.5s19.167 11.333 24.5 21s9 18.5 11 26.5s3.66699 18.667 5 32l64 603h53l-64 -606c-4.66699 -44.667 -18.167 -77 -40.5 -97
s-53.166 -30 -92.499 -30c-16 0 -25.667 0.666992 -29 2zM53.998 0l85 810h54l-80 -767h244l-4 -43h-299z" />
    <glyph glyph-name="uni01C9" unicode="&#x1c9;" horiz-adv-x="387" 
d="M316 678l9 93h54l-10 -93h-53zM134 -153l3.99805 43c2.66699 -0.666992 10.334 -1 23.001 -1c16.667 0 30.5 2.16699 41.5 6.5s19.167 11.333 24.5 21s9 18.5 11 26.5s3.66699 18.667 5 32l64 603h53l-64 -606c-4.66699 -44.667 -18.167 -77 -40.5 -97
s-53.166 -30 -92.499 -30c-16 0 -25.667 0.666992 -29 2zM45.998 0l85 810h54l-85 -810h-54z" />
    <glyph glyph-name="uni01CA" unicode="&#x1ca;" horiz-adv-x="780" 
d="M497 -45l4.99609 43c20.667 0 37.667 0.5 51 1.5s25.333 4 36 9s18.834 10.5 24.501 16.5s10.834 15.5 15.501 28.5s7.83398 26.333 9.50098 40s3.83398 32.5 6.50098 56.5l70 660h54l-69 -666c-3.33301 -28 -7 -51.333 -11 -70s-9.83301 -36.167 -17.5 -52.5
s-17.667 -29 -30 -38s-28 -16 -47 -21s-41.833 -7.5 -68.5 -7.5h-29zM53.9961 0l85 810h44l202 -684l72 684h48l-85 -810h-43l-203 685l-72 -685h-48z" />
    <glyph glyph-name="uni01CB" unicode="&#x1cb;" horiz-adv-x="717" 
d="M645 678l9 93h54l-10 -93h-53zM463 -153l3.99805 43c2.66699 -0.666992 10.334 -1 23.001 -1c16.667 0 30.5 2.16699 41.5 6.5s19.167 11.333 24.5 21s9 18.5 11 26.5s3.66699 18.667 5 32l64 603h53l-64 -606c-4.66699 -44.667 -18.167 -77 -40.5 -97
s-53.166 -30 -92.499 -30c-16 0 -25.667 0.666992 -29 2zM53.998 0l85 810h44l202 -684l72 684h48l-85 -810h-43l-203 685l-72 -685h-48z" />
    <glyph glyph-name="uni01CC" unicode="&#x1cc;" horiz-adv-x="593" 
d="M521 678l9 93h54l-10 -93h-53zM339 -153l3.99805 43c2.66699 -0.666992 10.334 -1 23.001 -1c16.667 0 30.5 2.16699 41.5 6.5s19.167 11.333 24.5 21s9 18.5 11 26.5s3.66699 18.667 5 32l64 603h53l-64 -606c-4.66699 -44.667 -18.167 -77 -40.5 -97
s-53.166 -30 -92.499 -30c-16 0 -25.667 0.666992 -29 2zM35.998 0l60.002 577.999h53l-6 -62c45.333 47.333 93.666 71 144.999 71c28 0 49.167 -10.167 63.5 -30.5s19.166 -52.166 14.499 -95.499l-49 -461h-53l48 455c3.33301 33.333 0.666016 56.833 -8.00098 70.5
s-23 20.5 -43 20.5c-37.333 0 -77.666 -21.333 -120.999 -64l-51 -482h-53z" />
    <glyph glyph-name="uni01F1" unicode="&#x1f1;" horiz-adv-x="918" 
d="M527 0l5 43l367 724h-265l5 43h323l-3 -34l-372 -733h296l-5 -43h-351zM54 0l84.999 809.999h177c31.333 0 58.833 -4 82.5 -12s42.334 -19 56.001 -33s24.667 -30.667 33 -50s12.833 -40.666 13.5 -63.999s0 -48 -2 -74l-35 -336c-4 -36.667 -10.667 -69 -20 -97
s-22.833 -53.167 -40.5 -75.5s-40.5 -39.333 -68.5 -51s-61 -17.5 -99 -17.5h-182zM112.999 42.999l125.003 -0.00195312c21.333 0 40.5 2.33301 57.5 7s31.333 11.834 43 21.501s21.667 20.334 30 32.001s15.166 25.667 20.499 42s9.5 32.333 12.5 48
s5.83301 33.5 8.5 53.5l34 326c4 29.333 4.66699 56 2 80s-8.33398 44.333 -17.001 61s-22.834 29.5 -42.501 38.5s-44.5 13.5 -74.5 13.5h-123z" />
    <glyph glyph-name="uni01F2" unicode="&#x1f2;" horiz-adv-x="842" 
d="M529 0l4 39l261 498h-187l4 41h241l-3 -35l-260 -502h203l-4 -41h-259zM54 0l84.999 809.999h177c31.333 0 58.833 -4 82.5 -12s42.334 -19 56.001 -33s24.667 -30.667 33 -50s12.833 -40.666 13.5 -63.999s0 -48 -2 -74l-35 -336c-4 -36.667 -10.667 -69 -20 -97
s-22.833 -53.167 -40.5 -75.5s-40.5 -39.333 -68.5 -51s-61 -17.5 -99 -17.5h-182zM112.999 42.999l125.003 -0.00195312c21.333 0 40.5 2.33301 57.5 7s31.333 11.834 43 21.501s21.667 20.334 30 32.001s15.166 25.667 20.499 42s9.5 32.333 12.5 48
s5.83301 33.5 8.5 53.5l34 326c4 29.333 4.66699 56 2 80s-8.33398 44.333 -17.001 61s-22.834 29.5 -42.501 38.5s-44.5 13.5 -74.5 13.5h-123z" />
    <glyph glyph-name="uni01F3" unicode="&#x1f3;" horiz-adv-x="719" 
d="M407 0l4 39l261 498h-187l4 41h241l-3 -35l-260 -502h203l-4 -41h-259zM172 32c34 0 67.333 16.332 100 48.999l43 414c-28 34 -58.333 51 -91 51c-35.333 0 -60.5 -14.333 -75.5 -43s-26.167 -78.667 -33.5 -150l-12 -120c-7.33301 -73.333 -6.5 -125.166 2.5 -155.499
s31.167 -45.5 66.5 -45.5zM160 -9.00098c-49.333 0 -82.332 18.832 -98.999 56.499s-20.334 100.834 -11.001 189.501l11 103c9.33301 86 25.5 148.667 48.5 188s59.833 59 110.5 59c40.667 0 73.667 -17.667 99 -53l30 276h52l-85 -810h-52l4 44
c-33.333 -35.333 -69.333 -53 -108 -53z" />
    <glyph glyph-name="uni01F4" unicode="&#x1f4;" horiz-adv-x="510" 
d="M308 879l85 194h53l-110 -194h-28zM230 -11c-37.333 0 -68.3271 6.00098 -92.9941 18.001s-42.834 29 -54.501 51s-19.334 48.167 -23.001 78.5s-2.83398 63.166 2.49902 98.499l36 344c4 38 10.5 70.667 19.5 98s21.833 52.166 38.5 74.499s38.667 39.166 66 50.499
s60 17 98 17c67.333 0 113.333 -19.667 138 -59s32.667 -96.666 24 -171.999l-3 -28h-51l4 31c6.66699 62.667 1.66699 108.834 -15 138.501s-50.334 44.5 -101.001 44.5c-23.333 0 -43.833 -3.16699 -61.5 -9.5s-32.334 -14.833 -44.001 -25.5s-21.5 -24.5 -29.5 -41.5
s-14 -34.667 -18 -53s-7.33301 -39.5 -10 -63.5l-37 -353c-4 -29.333 -4.83301 -56 -2.5 -80s7.66602 -44.333 15.999 -61s21.5 -29.667 39.5 -39s41.333 -14 70 -14c50.667 0 87.667 15.833 111 47.5s38.333 79.5 45 143.5l12 119h-128l4 42h180l-40 -386h-36l2 91
c-28.667 -68 -81.667 -102 -159 -102z" />
    <glyph glyph-name="uni01F5" unicode="&#x1f5;" horiz-adv-x="428" 
d="M261 647l85 194h53l-110 -194h-28zM209 223c74 0 116.668 55.001 128.001 165.001c0.666992 12.667 1.16699 26 1.5 40s-1.5 28.167 -5.5 42.5s-9.16699 27.333 -15.5 39s-16 21 -29 28s-28.333 10.5 -46 10.5s-33.834 -3.83301 -48.501 -11.5
s-26.5 -17.334 -35.5 -29.001s-16.833 -25 -23.5 -40s-11.667 -29 -15 -42s-5.66602 -25.5 -6.99902 -37.5s-2 -23.333 -2 -34s0.666992 -22.667 2 -36s4.16602 -25.333 8.49902 -36s10 -20.667 17 -30s16.5 -16.5 28.5 -21.5s26 -7.5 42 -7.5zM165.001 -152.999
c42 0 76.832 7.00098 104.499 21.001s42.834 35 45.501 63c1.33301 15.333 -0.5 27.833 -5.5 37.5s-16.333 19 -34 28s-43.5 17.167 -77.5 24.5l-63 11c-65.333 -35.333 -99.666 -73 -102.999 -113c-2.66699 -24.667 7.16602 -42.834 29.499 -54.501
s56.833 -17.5 103.5 -17.5zM161 -195.998c-61.333 0 -107.002 8.49805 -137.002 25.498s-43.333 42.5 -40 76.5c2.66699 27.333 15.5 53 38.5 77s49.5 43.333 79.5 58c-17.333 4.66699 -32.833 10.834 -46.5 18.501s-19.834 15.834 -18.501 24.501
c2.66699 28.667 30.667 70.334 84 125.001c-46.667 36 -65.667 95.667 -57 179c2.66699 24.667 8.33398 48.5 17.001 71.5s20.334 44.167 35.001 63.5s33.167 34.833 55.5 46.5s47.166 17.5 74.499 17.5c57.333 0 97.333 -25.667 120 -77
c8.66699 13.333 20.834 26.333 36.501 39s31.834 22.334 48.501 29.001l14 5l12 -40c-18 -4 -36.333 -11.5 -55 -22.5s-33.667 -22.833 -45 -35.5c3.33301 -12.667 6 -29.167 8 -49.5s2 -36.5 0 -48.5c-6 -61.333 -24 -110.5 -54 -147.5s-72 -55.5 -126 -55.5
c-24 0 -44 3.33301 -60 10c-2.66699 -4 -8.33398 -11.333 -17.001 -22s-15.5 -19.5 -20.5 -26.5s-10.167 -14.833 -15.5 -23.5s-8.33301 -15.667 -9 -21c0 -3.33301 4 -6.83301 12 -10.5s19.333 -6.83398 34 -9.50098c10 -2.66699 26.667 -6.33398 50 -11.001
s37.666 -7.66699 42.999 -9c48.667 -10.667 84.667 -26 108 -46s33 -47.667 29 -83c-2 -22 -8.83301 -41.333 -20.5 -58s-26.667 -30 -45 -40s-38.666 -17.5 -60.999 -22.5s-46.166 -7.5 -71.499 -7.5z" />
    <glyph glyph-name="uni0200" unicode="&#x200;" horiz-adv-x="468" 
d="M340 878l-52 147h52l27 -147h-27zM243 878l-72 147h59l40 -147h-27zM145 264h194l-48 480zM11 0l256 810h62l86 -810h-55l-18 224h-210l-67 -224h-54z" />
    <glyph glyph-name="uni0201" unicode="&#x201;" 
d="M266 647l-52 147h52l27 -147h-27zM169 647l-72 147h59l40 -147h-27zM150 35c23.333 0 44.833 7.66602 64.5 22.999s36.5 34.666 50.5 57.999l20 190c-69.333 -34.667 -113.333 -57.667 -132 -69c-29.333 -19.333 -48.666 -40.333 -57.999 -63
c-6 -13.333 -10 -29.666 -12 -48.999c-3.33301 -31.333 1.66699 -54.166 15 -68.499s30.666 -21.5 51.999 -21.5zM132 -9.00098c-34.667 0 -61.332 11.668 -79.999 35.001s-26.334 53.666 -23.001 90.999c2.66699 26 7.83398 47.5 15.501 64.5s21.667 34.333 42 52
s45.666 34.667 75.999 51s72.833 36.5 127.5 60.5l4 41c5.33301 41.333 6.16602 74 2.49902 98s-10.5 40.5 -20.5 49.5s-25.333 13.5 -46 13.5c-12.667 0 -24 -1.5 -34 -4.5s-20.167 -8.16699 -30.5 -15.5s-18.833 -18.5 -25.5 -33.5s-11 -33.5 -13 -55.5l-2 -16l-51 1
c0 0.666992 0.166992 3.33398 0.5 8.00098l0.5 7c7.33301 52.667 24.333 90.667 51 114s63.667 35 111 35c48 0 80.167 -15 96.5 -45s20.833 -80 13.5 -150l-31 -291c-5.33301 -56.667 -7.66602 -90.334 -6.99902 -101.001h-45c0 43.333 -0.333008 69 -1 77
c-12.667 -25.333 -30.667 -46 -54 -62s-49 -24 -77 -24z" />
    <glyph glyph-name="uni0202" unicode="&#x202;" horiz-adv-x="468" 
d="M191 879c5.33301 36.667 19.001 64.335 41.001 83.002s50.333 28 85 28c34 0 60 -9.33301 78 -28s26 -46.334 24 -83.001h-37c3.33301 51.333 -19.334 76.666 -68.001 75.999c-49.333 0 -78 -25.333 -86 -76h-37zM145.001 264.001h194l-48 480zM11.001 0.000976562
l256 810h62l86 -810h-55l-18 224h-210l-67 -224h-54z" />
    <glyph glyph-name="uni0203" unicode="&#x203;" 
d="M118 647c5.33301 36.667 19.001 64.335 41.001 83.002s50.333 28 85 28c34 0 60 -9.33301 78 -28s26 -46.334 24 -83.001h-37c3.33301 51.333 -19.334 76.666 -68.001 75.999c-49.333 0 -78 -25.333 -86 -76h-37zM150.001 35.001c23.333 0 44.833 7.66602 64.5 22.999
s36.5 34.666 50.5 57.999l20 190c-69.333 -34.667 -113.333 -57.667 -132 -69c-29.333 -19.333 -48.666 -40.333 -57.999 -63c-6 -13.333 -10 -29.666 -12 -48.999c-3.33301 -31.333 1.66699 -54.166 15 -68.499s30.666 -21.5 51.999 -21.5zM132.001 -9
c-34.667 0 -61.332 11.668 -79.999 35.001s-26.334 53.666 -23.001 90.999c2.66699 26 7.83398 47.5 15.501 64.5s21.667 34.333 42 52s45.666 34.667 75.999 51s72.833 36.5 127.5 60.5l4 41c5.33301 41.333 6.16602 74 2.49902 98s-10.5 40.5 -20.5 49.5
s-25.333 13.5 -46 13.5c-12.667 0 -24 -1.5 -34 -4.5s-20.167 -8.16699 -30.5 -15.5s-18.833 -18.5 -25.5 -33.5s-11 -33.5 -13 -55.5l-2 -16l-51 1c0 0.666992 0.166992 3.33398 0.5 8.00098l0.5 7c7.33301 52.667 24.333 90.667 51 114s63.667 35 111 35
c48 0 80.167 -15 96.5 -45s20.833 -80 13.5 -150l-31 -291c-5.33301 -56.667 -7.66602 -90.334 -6.99902 -101.001h-45c0 43.333 -0.333008 69 -1 77c-12.667 -25.333 -30.667 -46 -54 -62s-49 -24 -77 -24z" />
    <glyph glyph-name="uni0204" unicode="&#x204;" horiz-adv-x="392" 
d="M321 878l-52 147h52l27 -147h-27zM224 878l-72 147h59l40 -147h-27zM53 0l85 810h280l-4 -44h-226l-34 -325h185l-4 -42h-185l-37 -356h228l-5 -43h-283z" />
    <glyph glyph-name="uni0205" unicode="&#x205;" 
d="M273 647l-52 147h52l27 -147h-27zM176 647l-72 147h59l40 -147h-27zM113 334h185.002l5 45c3.33301 34.667 4.66602 64.5 3.99902 89.5s-7 44.333 -19 58s-31 20.5 -57 20.5c-23.333 0 -42 -4.33301 -56 -13s-25.833 -25.5 -35.5 -50.5s-16.834 -60.167 -21.501 -105.5z
M171.002 -9c-16 0 -29.999 1.33496 -41.999 4.00195s-23.5 7.33398 -34.5 14.001s-19.833 15.5 -26.5 26.5s-12.334 24.833 -17.001 41.5s-7 36.167 -7 58.5s1 48.5 3 78.5l16 154c4 35.333 9.66699 66.166 17 92.499s16 47.5 26 63.5s21.833 28.833 35.5 38.5
s27.834 16.167 42.501 19.5s31.667 5 51 5c53.333 0 88.5 -17.333 105.5 -52s21.167 -94 12.5 -178l-7 -55h-236l-10 -92c-5.33301 -45.333 -5.83301 -81.333 -1.5 -108s12.5 -45.167 24.5 -55.5s29.333 -15.5 52 -15.5c10 0 18.667 0.666992 26 2s15.666 4.33301 24.999 9
s17.333 11.167 24 19.5s12.667 20.166 18 35.499s9 33.666 11 54.999l5 43h52l-4 -38c-5.33301 -53.333 -20.5 -94.333 -45.5 -123s-63.5 -43 -115.5 -43z" />
    <glyph glyph-name="uni0206" unicode="&#x206;" horiz-adv-x="392" 
d="M173 879c5.33301 36.667 19.001 64.335 41.001 83.002s50.333 28 85 28c34 0 60 -9.33301 78 -28s26 -46.334 24 -83.001h-37c3.33301 51.333 -19.334 76.666 -68.001 75.999c-49.333 0 -78 -25.333 -86 -76h-37zM53.001 0.000976562l85 810h280l-4 -44h-226l-34 -325
h185l-4 -42h-185l-37 -356h228l-5 -43h-283z" />
    <glyph glyph-name="uni0207" unicode="&#x207;" 
d="M124 647c5.33301 36.667 19.001 64.335 41.001 83.002s50.333 28 85 28c34 0 60 -9.33301 78 -28s26 -46.334 24 -83.001h-37c3.33301 51.333 -19.334 76.666 -68.001 75.999c-49.333 0 -78 -25.333 -86 -76h-37zM113.001 334.001h185.002l5 45
c3.33301 34.667 4.66602 64.5 3.99902 89.5s-7 44.333 -19 58s-31 20.5 -57 20.5c-23.333 0 -42 -4.33301 -56 -13s-25.833 -25.5 -35.5 -50.5s-16.834 -60.167 -21.501 -105.5zM171.003 -8.99902c-16 0 -29.999 1.33496 -41.999 4.00195s-23.5 7.33398 -34.5 14.001
s-19.833 15.5 -26.5 26.5s-12.334 24.833 -17.001 41.5s-7 36.167 -7 58.5s1 48.5 3 78.5l16 154c4 35.333 9.66699 66.166 17 92.499s16 47.5 26 63.5s21.833 28.833 35.5 38.5s27.834 16.167 42.501 19.5s31.667 5 51 5c53.333 0 88.5 -17.333 105.5 -52
s21.167 -94 12.5 -178l-7 -55h-236l-10 -92c-5.33301 -45.333 -5.83301 -81.333 -1.5 -108s12.5 -45.167 24.5 -55.5s29.333 -15.5 52 -15.5c10 0 18.667 0.666992 26 2s15.666 4.33301 24.999 9s17.333 11.167 24 19.5s12.667 20.166 18 35.499s9 33.666 11 54.999l5 43h52
l-4 -38c-5.33301 -53.333 -20.5 -94.333 -45.5 -123s-63.5 -43 -115.5 -43z" />
    <glyph glyph-name="uni0208" unicode="&#x208;" horiz-adv-x="206" 
d="M209 878l-52 147h52l27 -147h-27zM112 878l-72 147h59l40 -147h-27zM55 0l85 810h54l-85 -810h-54z" />
    <glyph glyph-name="uni0209" unicode="&#x209;" horiz-adv-x="181" 
d="M173 647l-52 147h52l27 -147h-27zM76 647l-72 147h59l40 -147h-27zM44 0l60 578h54l-61 -578h-53z" />
    <glyph glyph-name="uni020A" unicode="&#x20a;" horiz-adv-x="206" 
d="M60 879c5.33301 36.667 19.001 64.335 41.001 83.002s50.333 28 85 28c34 0 60 -9.33301 78 -28s26 -46.334 24 -83.001h-37c3.33301 51.333 -19.334 76.666 -68.001 75.999c-49.333 0 -78 -25.333 -86 -76h-37zM55.001 0.000976562l85 810h54l-85 -810h-54z" />
    <glyph glyph-name="uni020B" unicode="&#x20b;" horiz-adv-x="181" 
d="M24 647c5.33301 36.667 19.001 64.335 41.001 83.002s50.333 28 85 28c34 0 60 -9.33301 78 -28s26 -46.334 24 -83.001h-37c3.33301 51.333 -19.334 76.666 -68.001 75.999c-49.333 0 -78 -25.333 -86 -76h-37zM44.001 0.000976562l60 578h54l-61 -578h-53z" />
    <glyph glyph-name="uni020C" unicode="&#x20c;" horiz-adv-x="515" 
d="M364 878l-52 147h52l27 -147h-27zM267 878l-72 147h59l40 -147h-27zM236 -11c-30.667 0 -57.3291 4.00195 -79.9961 12.002s-40.667 19.167 -54 33.5s-23.666 31.5 -30.999 51.5s-11.333 42 -12 66s0 50 2 78l38 354c3.33301 36 9.66602 67.667 18.999 95
s22.666 51.833 39.999 73.5s39.833 38.167 67.5 49.5s60.167 17 97.5 17s68.666 -5.83301 93.999 -17.5s44.166 -27.834 56.499 -48.501s20.666 -45.5 24.999 -74.5s4.5 -60.5 0.5 -94.5l-38 -355c-4 -36.667 -10.5 -68.834 -19.5 -96.501s-22 -52.667 -39 -75
s-39.5 -39.333 -67.5 -51s-61 -17.5 -99 -17.5zM240.505 34.002c28.333 0 52.666 4.33398 72.999 13.001s36.5 21.5 48.5 38.5s21.333 36.167 28 57.5s11.667 46.333 15 75l39 374c3.33301 27.333 3.83301 52.166 1.5 74.499s-7.66602 41.5 -15.999 57.5
s-21.833 28.333 -40.5 37s-42.167 13 -70.5 13s-52.666 -4.16699 -72.999 -12.5s-36.5 -20.833 -48.5 -37.5s-21.333 -35.5 -28 -56.5s-11.667 -46.167 -15 -75.5l-39 -374c-3.33301 -27.333 -3.83301 -52.333 -1.5 -75s7.66602 -42 15.999 -58s21.833 -28.5 40.5 -37.5
s42.167 -13.5 70.5 -13.5z" />
    <glyph glyph-name="uni020D" unicode="&#x20d;" horiz-adv-x="382" 
d="M274 647l-52 147h52l27 -147h-27zM177 647l-72 147h59l40 -147h-27zM169 -9c-38 0 -66.833 8.33203 -86.5 24.999s-31.667 41.167 -36 73.5s-4.16602 72.833 0.500977 121.5l17 156c4 38 9.5 69.833 16.5 95.5s17 48.334 30 68.001s29.5 34 49.5 43s44 13.5 72 13.5
c38 0 67 -8.16699 87 -24.5s32.167 -41 36.5 -74s4.16602 -73.5 -0.500977 -121.5l-17 -156c-8 -76.667 -24.333 -132.5 -49 -167.5s-64.667 -52.5 -120 -52.5zM174 30.999c16.667 0 30.8311 2.66602 42.498 7.99902s21.334 12.5 29.001 21.5s14.167 21.667 19.5 38
s9.33301 32.5 12 48.5s5.33398 36.667 8.00098 62l17 160c3.33301 37.333 4.83301 69.166 4.5 95.499s-6.66602 46.666 -18.999 60.999s-32.166 21.5 -59.499 21.5c-16.667 0 -31 -2.66699 -43 -8s-21.667 -12.666 -29 -21.999s-13.666 -22 -18.999 -38
s-9.33301 -32.167 -12 -48.5s-5.33398 -36.833 -8.00098 -61.5l-17 -160c-3.33301 -37.333 -4.83301 -69.166 -4.5 -95.499s6.66602 -46.666 18.999 -60.999s32.166 -21.5 59.499 -21.5z" />
    <glyph glyph-name="uni020E" unicode="&#x20e;" horiz-adv-x="515" 
d="M216 879c5.33301 36.667 19.001 64.335 41.001 83.002s50.333 28 85 28c34 0 60 -9.33301 78 -28s26 -46.334 24 -83.001h-37c3.33301 51.333 -19.334 76.666 -68.001 75.999c-49.333 0 -78 -25.333 -86 -76h-37zM236.001 -10.999
c-30.667 0 -57.3291 4.00195 -79.9961 12.002s-40.667 19.167 -54 33.5s-23.666 31.5 -30.999 51.5s-11.333 42 -12 66s0 50 2 78l38 354c3.33301 36 9.66602 67.667 18.999 95s22.666 51.833 39.999 73.5s39.833 38.167 67.5 49.5s60.167 17 97.5 17
s68.666 -5.83301 93.999 -17.5s44.166 -27.834 56.499 -48.501s20.666 -45.5 24.999 -74.5s4.5 -60.5 0.5 -94.5l-38 -355c-4 -36.667 -10.5 -68.834 -19.5 -96.501s-22 -52.667 -39 -75s-39.5 -39.333 -67.5 -51s-61 -17.5 -99 -17.5zM240.506 34.0029
c28.333 0 52.666 4.33398 72.999 13.001s36.5 21.5 48.5 38.5s21.333 36.167 28 57.5s11.667 46.333 15 75l39 374c3.33301 27.333 3.83301 52.166 1.5 74.499s-7.66602 41.5 -15.999 57.5s-21.833 28.333 -40.5 37s-42.167 13 -70.5 13s-52.666 -4.16699 -72.999 -12.5
s-36.5 -20.833 -48.5 -37.5s-21.333 -35.5 -28 -56.5s-11.667 -46.167 -15 -75.5l-39 -374c-3.33301 -27.333 -3.83301 -52.333 -1.5 -75s7.66602 -42 15.999 -58s21.833 -28.5 40.5 -37.5s42.167 -13.5 70.5 -13.5z" />
    <glyph glyph-name="uni020F" unicode="&#x20f;" horiz-adv-x="382" 
d="M125 647c5.33301 36.667 19.001 64.335 41.001 83.002s50.333 28 85 28c34 0 60 -9.33301 78 -28s26 -46.334 24 -83.001h-37c3.33301 51.333 -19.334 76.666 -68.001 75.999c-49.333 0 -78 -25.333 -86 -76h-37zM169.001 -8.99902c-38 0 -66.833 8.33203 -86.5 24.999
s-31.667 41.167 -36 73.5s-4.16602 72.833 0.500977 121.5l17 156c4 38 9.5 69.833 16.5 95.5s17 48.334 30 68.001s29.5 34 49.5 43s44 13.5 72 13.5c38 0 67 -8.16699 87 -24.5s32.167 -41 36.5 -74s4.16602 -73.5 -0.500977 -121.5l-17 -156
c-8 -76.667 -24.333 -132.5 -49 -167.5s-64.667 -52.5 -120 -52.5zM174.001 31c16.667 0 30.8311 2.66602 42.498 7.99902s21.334 12.5 29.001 21.5s14.167 21.667 19.5 38s9.33301 32.5 12 48.5s5.33398 36.667 8.00098 62l17 160
c3.33301 37.333 4.83301 69.166 4.5 95.499s-6.66602 46.666 -18.999 60.999s-32.166 21.5 -59.499 21.5c-16.667 0 -31 -2.66699 -43 -8s-21.667 -12.666 -29 -21.999s-13.666 -22 -18.999 -38s-9.33301 -32.167 -12 -48.5s-5.33398 -36.833 -8.00098 -61.5l-17 -160
c-3.33301 -37.333 -4.83301 -69.166 -4.5 -95.499s6.66602 -46.666 18.999 -60.999s32.166 -21.5 59.499 -21.5z" />
    <glyph glyph-name="uni0210" unicode="&#x210;" horiz-adv-x="508" 
d="M373 878l-52 147h52l27 -147h-27zM276 878l-72 147h59l40 -147h-27zM156 450h138.998c25.333 0 46.833 3.5 64.5 10.5s31.834 17.833 42.501 32.5s18.834 31.167 24.501 49.5s9.83398 40.833 12.501 67.5c5.33301 54.667 0.166016 94.5 -15.501 119.5
s-47.5 37.5 -95.5 37.5h-139zM53.998 0l84.999 809.999h196c28 0 52.167 -3.33301 72.5 -10s36.5 -16.167 48.5 -28.5s21.333 -26.666 28 -42.999s10.334 -34.5 11.001 -54.5s0 -41.333 -2 -64c-2 -19.333 -4.83301 -37.166 -8.5 -53.499s-9.16699 -32.5 -16.5 -48.5
s-16 -29.833 -26 -41.5s-22.5 -21.834 -37.5 -30.501s-32.167 -14.667 -51.5 -18l86 -418h-54l-83 408h-151l-43 -408h-54z" />
    <glyph glyph-name="uni0211" unicode="&#x211;" horiz-adv-x="283" 
d="M246 647l-52 147h52l27 -147h-27zM149 647l-72 147h59l40 -147h-27zM43 0l61 578.001h53l-8 -78c18.667 27.333 41.5 48.166 68.5 62.499s52.5 21.5 76.5 21.5l4.5 -0.5c3 -0.333008 4.83301 -0.5 5.5 -0.5l-6 -55c-5.33301 2 -12.333 3 -21 3
c-54.667 0 -98.667 -24.667 -132 -74l-48 -457h-54z" />
    <glyph glyph-name="uni0212" unicode="&#x212;" horiz-adv-x="508" 
d="M224 879c5.33301 36.667 19.001 64.335 41.001 83.002s50.333 28 85 28c34 0 60 -9.33301 78 -28s26 -46.334 24 -83.001h-37c3.33301 51.333 -19.334 76.666 -68.001 75.999c-49.333 0 -78 -25.333 -86 -76h-37zM156.001 450.001h138.998c25.333 0 46.833 3.5 64.5 10.5
s31.834 17.833 42.501 32.5s18.834 31.167 24.501 49.5s9.83398 40.833 12.501 67.5c5.33301 54.667 0.166016 94.5 -15.501 119.5s-47.5 37.5 -95.5 37.5h-139zM53.999 0.000976562l84.999 809.999h196c28 0 52.167 -3.33301 72.5 -10s36.5 -16.167 48.5 -28.5
s21.333 -26.666 28 -42.999s10.334 -34.5 11.001 -54.5s0 -41.333 -2 -64c-2 -19.333 -4.83301 -37.166 -8.5 -53.499s-9.16699 -32.5 -16.5 -48.5s-16 -29.833 -26 -41.5s-22.5 -21.834 -37.5 -30.501s-32.167 -14.667 -51.5 -18l86 -418h-54l-83 408h-151l-43 -408h-54z
" />
    </font>
</defs>
</svg>
