<?xml version="1.0" standalone="no"?>
<!DOCTYPE svg PUBLIC "-//W3C//DTD SVG 1.1//EN" "http://www.w3.org/Graphics/SVG/1.1/DTD/svg11.dtd" >
<svg>
<metadata>
Created by FontForge 20120731 at Fri Aug  1 16:50:33 2014
 By Alfred Xing
Copyright (c) 2010-13 by Vernon Adams
</metadata>
<defs>
<font id="Oswald-LightItalic" horiz-adv-x="398" >
  <font-face 
    font-family="Oswald"
    font-weight="300"
    font-style="italic"
    font-stretch="normal"
    units-per-em="1000"
    panose-1="2 0 3 3 0 0 0 0 0 0"
    ascent="800"
    descent="-200"
    x-height="578"
    cap-height="810"
    bbox="-55 -268 1002 1091"
    underline-thickness="6"
    underline-position="-22"
    unicode-range="U+0020-FB04"
  />
<missing-glyph horiz-adv-x="365" 
d="M66 33h200v600h-200v-600zM33 0v667h266v-667h-266z" />
    <glyph glyph-name=".notdef" horiz-adv-x="365" 
d="M66 33h200v600h-200v-600zM33 0v667h266v-667h-266z" />
    <glyph glyph-name="space" unicode=" " horiz-adv-x="204" 
 />
    <glyph glyph-name="exclam" unicode="!" horiz-adv-x="201" 
d="M39 0l9 87h78l-9 -87h-78zM84 174l41 636h78l-93 -636h-26z" />
    <glyph glyph-name="quotedbl" unicode="&#x22;" horiz-adv-x="355" 
d="M120 573l25 237h70l-55 -237h-40zM258 573l25 237h70l-55 -237h-40z" />
    <glyph glyph-name="numbersign" unicode="#" horiz-adv-x="465" 
d="M31 0l75 292h-56l6 54h64l37 141h-74l5 55h83l70 268h71l-69 -268h98l70 268h71l-69 -268h51l-6 -55h-59l-37 -141h69l-6 -54h-77l-76 -292h-71l75 292h-98l-76 -292h-71zM191 346h100l37 141h-99z" />
    <glyph glyph-name="dollar" unicode="$" horiz-adv-x="465" 
d="M207 -87l8.00293 76.9971c-62 1.33301 -107 21.333 -135 60c-26 36 -39 85 -39 147v13l69 19c0 -21.333 1 -40.166 3 -56.499s5.5 -32.333 10.5 -48s11.667 -28.667 20 -39s19.666 -18.5 33.999 -24.5s31.166 -9 50.499 -9c76.667 0 118.667 39 126 117
c0.666992 6.66699 1 13 1 19c0 16 -2.33301 31.333 -7 46c-6.66699 20.667 -15.667 38.667 -27 54s-27.333 34 -48 56l-128 137c-22.667 24.667 -38.667 50.334 -48 77.001c-6.66699 19.333 -10.334 40 -11.001 62c0 8 0.666992 16.333 2 25
c6 53.333 25.833 94.833 59.5 124.5s77.167 45.834 130.5 48.501l9 84h31l-8 -84c53.333 -2.66699 92.333 -20.334 117 -53.001c23.333 -30 35 -75.333 35 -136c0 -5.33301 -0.333008 -10.666 -1 -15.999l-66 -17v12c0 48.667 -7.33301 85.667 -22 111
c-15.333 26 -43 39 -83 39h-6c-36 -0.666992 -65 -9.83398 -87 -27.501s-35 -44.167 -39 -79.5c-0.666992 -5.33301 -1 -10.666 -1 -15.999c0 -16 2.66699 -30.667 8 -44c6.66699 -18 19 -37.333 37 -58l129 -135c33.333 -35.333 58.333 -70.666 75 -105.999
c14 -28 21 -58.667 21 -92c0 -8.66699 -0.333008 -17.334 -1 -26.001c-6 -54.667 -25 -97.5 -57 -128.5s-73 -49.167 -123 -54.5l-9 -78h-30z" />
    <glyph glyph-name="percent" unicode="%" horiz-adv-x="731" 
d="M189 460c21.333 0 36.8311 8.33008 46.498 24.9971s16.167 40.334 19.5 71.001l13 119c0.666992 10 1 19.333 1 28c0 16.667 -2 30.334 -6 41.001c-6.66699 16 -20.667 24 -42 24s-36.666 -8.16699 -45.999 -24.5s-15.666 -39.5 -18.999 -69.5l-12 -118
c-0.666992 -10 -1.33398 -19.333 -2.00098 -28c0 -17.333 2 -31.666 6 -42.999c6.66699 -16.667 20.334 -25 41.001 -25zM182.998 403.997c-72 0 -108.001 39.999 -108.001 119.999c0 10.667 0.666992 22.334 2 35.001l12 112c5.33301 49.333 19 87.333 41 114
s54.667 40 98 40c42.667 0 72.334 -13 89.001 -39c12.667 -19.333 19 -45.333 19 -78c0 -10.667 -0.666992 -22 -2 -34l-12 -116c-10.667 -102.667 -57 -154 -139 -154zM552.497 49.9961c21 0 36.502 8.49902 46.502 25.499s16.667 40.833 20 71.5l12 119
c0.666992 10.667 1 20.334 1 29.001v18c-1.33301 14 -6 25.167 -14 33.5s-19 12.5 -33 12.5c-21.333 0 -36.833 -8 -46.5 -24s-15.834 -39.333 -18.501 -70l-13 -119c-0.666992 -10 -1.33398 -18.667 -2.00098 -26c0 -18 2.33301 -33 7 -45c6 -16.667 19.5 -25 40.5 -25z
M546.999 -6.00488c-72 0 -108.333 40.3311 -109 120.998c0 10.667 0.666992 22.334 2 35.001l12 112c5.33301 49.333 19 87.333 41 114s54.667 40 98 40s73.333 -13 90 -39c12.667 -19.333 19 -45.666 19 -78.999c0 -10.667 -0.666992 -21.667 -2 -33l-13 -117
c-10 -102.667 -56 -154 -138 -154zM183.999 -0.00683594l342 817h65l-341 -817h-66z" />
    <glyph glyph-name="ampersand" unicode="&#x26;" horiz-adv-x="603" 
d="M221 -10c-40 0 -73.335 8.33301 -100.002 25s-45.667 38.667 -57 66c-8 20.667 -12 43.334 -12 68.001c0 8 0.666992 16.333 2 25c4 41.333 18.333 81 43 119s61.667 79 111 123c-29.333 61.333 -47.666 102.333 -54.999 123c-10.667 30 -16 58.667 -16 86
c0 7.33301 0.333008 14.666 1 21.999c5.33301 53.333 25 95.166 59 125.499s77.333 45.5 130 45.5c50.667 0 89.667 -13 117 -39c23.333 -22 35 -50.667 35 -86c0 -6 -0.333008 -12.333 -1 -19c-4 -42 -23.167 -84.5 -57.5 -127.5s-80.833 -88.5 -139.5 -136.5l130 -246
c19.333 24 37 54.833 53 92.5s26.667 71.834 32 102.501h70c-4 -36.667 -17 -78.167 -39 -124.5s-47.667 -85.5 -77 -117.5c23.333 -34.667 52.333 -52 87 -52l-8 -72c-4 0 -10.333 0.333008 -19 1c-39.333 3.33301 -75.666 28.333 -108.999 75
c-23.333 -23.333 -50.333 -42.333 -81 -57s-63.667 -22 -99 -22zM227.998 51c46 0 91.333 22.001 136 66.001l-132 246c-63.333 -62.667 -98.333 -125.667 -105 -189c-0.666992 -6 -1 -12 -1 -18c0 -8.66699 1 -17.334 3 -26.001c2 -14 6.66699 -27 14 -39
s18.333 -21.667 33 -29s32 -11 52 -11zM258.998 452.001c90.667 82 139.666 156.331 146.999 222.998v13c0 20 -6.33301 36 -19 48c-15.333 14 -37.666 21.333 -66.999 22c-32 0 -57.5 -10.333 -76.5 -31s-30.167 -47 -33.5 -79c-0.666992 -8 -1 -15.667 -1 -23
c0 -21.333 3 -42.666 9 -63.999c8 -29.333 21.667 -65.666 41 -108.999z" />
    <glyph glyph-name="quotesingle" unicode="'" horiz-adv-x="286" 
d="M120 573l25 237h70l-55 -237h-40z" />
    <glyph glyph-name="parenleft" unicode="(" horiz-adv-x="277" 
d="M208 -165c-20 1.33301 -37.832 5.49707 -53.499 12.4971s-28.334 17.833 -38.001 32.5s-18 29.667 -25 45s-11.667 36.166 -14 62.499s-4.16602 49.833 -5.49902 70.5v19c0 18 0.666992 39.667 2 65c2.66699 34.667 5 63.667 7 87s5.33301 55.333 10 96
c4.66699 46.667 8.66699 83.334 12 110.001s8.16602 59.834 14.499 99.501s12.666 70.667 18.999 93s15.166 47 26.499 74s23.666 47.667 36.999 62s29.333 26.5 48 36.5s40 15.333 64 16l-6 -51c-14 -1.33301 -26.667 -6.5 -38 -15.5s-21.166 -20.5 -29.499 -34.5
s-16 -31.833 -23 -53.5s-12.833 -43.667 -17.5 -66s-9.16699 -48.666 -13.5 -78.999s-8.16602 -59.166 -11.499 -86.499s-6.66602 -59 -9.99902 -95c0 -4.66699 -0.333008 -8 -1 -10c-14 -128 -21 -216 -21 -264v-6c0 -88 15.333 -141.333 46 -160
c8 -4.66699 17 -7.66699 27 -9z" />
    <glyph glyph-name="parenright" unicode=")" horiz-adv-x="256" 
d="M-9 -165l5 51.0049c41.333 4 72.666 42 93.999 114c16 52 30.667 140.667 44 266c1.33301 12 3.33301 29.667 6 53c0 3.33301 0.333008 5.66602 1 6.99902c13.333 127.333 20 214 20 260v12c0 85.333 -14.333 137.666 -43 156.999c-8.66699 6 -18.334 9.33301 -29.001 10
l5 51c16 0 30.667 -2.33301 44 -7s24.833 -11.834 34.5 -21.501s18.167 -19.667 25.5 -30s13 -24.333 17 -42s7.33301 -33.834 10 -48.501s4.33398 -34 5.00098 -58v-33.5v-29.5c0 -18 -1.16699 -41.333 -3.5 -70s-4.5 -52.667 -6.5 -72s-4.66699 -45.333 -8 -78
c-4.66699 -46.667 -8.66699 -83.167 -12 -109.5s-8.16602 -59 -14.499 -98s-12.833 -69.833 -19.5 -92.5s-15.5 -47.334 -26.5 -74.001s-23.167 -47.167 -36.5 -61.5s-29.5 -26.833 -48.5 -37.5s-40.167 -16.667 -63.5 -18z" />
    <glyph glyph-name="asterisk" unicode="*" horiz-adv-x="372" 
d="M146 483l-41 28l99 117l-120 50l24 47l114 -60l7 144h57l-25 -144l126 60l13 -47l-129 -50l75 -118l-48 -27l-63 127z" />
    <glyph glyph-name="plus" unicode="+" horiz-adv-x="383" 
d="M165 230l16 158h-139l6 55h139l16 157h56l-16 -157h141l-6 -55h-141l-16 -158h-56z" />
    <glyph glyph-name="comma" unicode="," horiz-adv-x="180" 
d="M30 -117l-11 33c18 10 31.333 21.333 40 34s14 29.334 16 50.001h-44l12 109h82l-11 -101c-3.33301 -32.667 -11.333 -58.334 -24 -77.001s-32.667 -34.667 -60 -48z" />
    <glyph glyph-name="hyphen" unicode="-" horiz-adv-x="297" 
d="M52 297l6 58h213l-6 -58h-213z" />
    <glyph glyph-name="period" unicode="." horiz-adv-x="181" 
d="M38 0l11 110h78l-12 -110h-77z" />
    <glyph glyph-name="slash" unicode="/" horiz-adv-x="344" 
d="M2 0l316 810h64l-315 -810h-65z" />
    <glyph glyph-name="zero" unicode="0" horiz-adv-x="492" 
d="M229 49c78.667 0 124.331 58 136.998 174l38 363c2 14.667 3 29 3 43c0 8.66699 -0.333008 17.334 -1 26.001c-2 21.333 -6.33301 39.666 -13 54.999s-17.5 27.5 -32.5 36.5s-33.833 13.5 -56.5 13.5c-43.333 0 -75.666 -15.5 -96.999 -46.5
s-34.666 -73.5 -39.999 -127.5l-38 -363c-1.33301 -15.333 -2.33301 -30 -3 -44c0 -86.667 34.333 -130 103 -130zM222.997 -10c-114 0 -171.001 62.333 -171.001 187c0 16 1 33.333 3 52l37 352c16.667 158.667 89.334 237.667 218.001 237c114 0 171 -62 171 -186
c0 -16 -0.666992 -33 -2 -51l-37 -352c-16.667 -159.333 -89.667 -239 -219 -239z" />
    <glyph glyph-name="one" unicode="1" horiz-adv-x="427" 
d="M192 0l75 712c-12.667 -15.333 -56.667 -33 -132 -53l7 59c24 6 50.167 17.167 78.5 33.5s51.833 35.833 70.5 58.5h59l-85 -810h-73z" />
    <glyph glyph-name="two" unicode="2" horiz-adv-x="484" 
d="M27 0l5.99902 54l253 334c2 2.66699 8.66699 11.667 20 27s18.333 24.666 21 27.999s8.5 11.5 17.5 24.5s14.833 22.167 17.5 27.5s7.16699 14.166 13.5 26.499s10.833 22.666 13.5 30.999s5.33398 18.333 8.00098 30s4.66699 23.5 6 35.5
c0.666992 10 1.33398 19.333 2.00098 28c0 30.667 -6 55.667 -18 75c-15.333 24.667 -41 36.667 -77 36c-24 0 -44.833 -4.16699 -62.5 -12.5s-31.834 -20.5 -42.501 -36.5s-18.834 -33.667 -24.501 -53s-9.83398 -41.666 -12.501 -66.999c-1.33301 -4 -2 -10 -2 -18h-73
l2 20c8 76 29.5 133 64.5 171s86.167 57 153.5 57c60 0 104 -17.667 132 -53c22 -28.667 33 -67 33 -115c0 -12 -0.666992 -24.333 -2 -37c-2.66699 -24 -7.5 -46.667 -14.5 -68s-17.167 -43.166 -30.5 -65.499s-24.666 -40.166 -33.999 -53.499
s-23.666 -32.333 -42.999 -57l-234 -307h281l-7 -62h-367z" />
    <glyph glyph-name="three" unicode="3" horiz-adv-x="478" 
d="M215 -10c-60.667 0 -103.999 17.335 -129.999 52.002c-20.667 28 -31 64.333 -31 109c0 11.333 0.666992 23.333 2 36l2 20h71c0 -0.666992 -0.333008 -3.33398 -1 -8.00098s-1 -7.66699 -1 -9c-0.666992 -10.667 -1.33398 -20.334 -2.00098 -29.001
c0 -31.333 5.66699 -56.333 17 -75c14 -24 40.667 -36 80 -36s70.166 13.333 92.499 40s36.5 70 42.5 130c1.33301 14 2 27 2 39c0 86 -35 130.333 -105 133c-1.33301 0 -8 0.333008 -20 1l8 68h19c44 0.666992 76.667 13.167 98 37.5s34.666 63.5 39.999 117.5
c1.33301 11.333 2 22.333 2 33c0 29.333 -5.33301 53.666 -16 72.999c-14 24.667 -41 37 -81 37c-40.667 0 -71.5 -11.333 -92.5 -34s-34.167 -58.334 -39.5 -107.001c0 -3.33301 -0.666992 -8 -2 -14h-71l2 19c6.66699 62 26.834 110 60.501 144s83.167 51 148.5 51
c61.333 0 105.333 -18 132 -54c22 -29.333 33 -67.333 33 -114c0 -11.333 -0.666992 -22.666 -2 -33.999c-5.33301 -54.667 -20.166 -98 -44.499 -130s-54.5 -52 -90.5 -60c32 -9.33301 57.333 -31 76 -65c14 -25.333 21 -57.666 21 -96.999c0 -14 -1 -28.333 -3 -43
c-8 -72 -29.5 -128.5 -64.5 -169.5s-85.833 -61.5 -152.5 -61.5z" />
    <glyph glyph-name="four" unicode="4" horiz-adv-x="492" 
d="M272 0l25 235h-244l8 77l281 498h89l-54 -506h93l-8 -69h-91l-25 -235h-74zM136 304h168l43 407z" />
    <glyph glyph-name="five" unicode="5" horiz-adv-x="483" 
d="M226 -9c-63.333 0 -107.334 17.999 -132.001 53.999c-18.667 28 -28.334 66.667 -29.001 116c0 14.667 1 30.667 3 48h73c-2 -15.333 -3 -29.666 -3 -42.999c0 -8 0.333008 -15.667 1 -23c2 -19.333 6.33301 -36 13 -50s16.834 -24.833 30.501 -32.5
s30.834 -11.5 51.501 -11.5c43.333 0 74.666 16.5 93.999 49.5s33 85.5 41 157.5c2.66699 27.333 4 51.333 4 72c0 36.667 -4.33301 64.667 -13 84c-14 30.667 -41 46 -81 46c-43.333 0 -80.666 -22.667 -111.999 -68h-62l44 420h315l-8 -69h-249l-34 -281
c32 36 75.333 54 130 54c58 0 97.667 -21.333 119 -64c15.333 -30 23.333 -70 24 -120c0 -20 -1.33301 -41.667 -4 -65c-9.33301 -90.667 -31 -159 -65 -205s-84.333 -69 -151 -69z" />
    <glyph glyph-name="six" unicode="6" horiz-adv-x="491" 
d="M230 -10c-109.333 0 -164.002 64.668 -164.002 194.001c0 18.667 1.33301 38.667 4 60l34 323c17.333 167.333 88.333 251 213 251c60.667 0 104.334 -15.667 131.001 -47c22 -26 33 -62.333 33 -109c0 -10 -0.666992 -20.333 -2 -31
c-1.33301 -5.33301 -1.66602 -10.666 -0.999023 -15.999h-73c1.33301 14.667 2.33301 28 3 40c0 30.667 -5 54 -15 70c-14 22 -40.667 33 -80 33c-77.333 0 -122 -58.333 -134 -175l-16 -152c15.333 13.333 35 24.666 59 33.999s49.333 14 76 14
c33.333 0 60.666 -4.83301 81.999 -14.5s37.833 -24.334 49.5 -44.001s18.834 -44.5 21.501 -74.5c0.666992 -11.333 1 -23.333 1 -36c0 -22 -1.33301 -46.333 -4 -73c-17.333 -164.667 -90 -247 -218 -247zM235.998 51.001c40.667 0 71.833 13.5 93.5 40.5
s35.834 70.833 42.501 131.5c3.33301 33.333 5 62.333 5 87c0 8.66699 -0.333008 16.334 -1 23.001c-1.33301 29.333 -9.83301 51.333 -25.5 66s-40.834 22 -75.501 22c-21.333 0 -43.166 -4.83301 -65.499 -14.5s-39.833 -20.167 -52.5 -31.5l-15 -140
c-2 -20.667 -3 -39.334 -3 -56.001c0 -36 5 -64 15 -84c15.333 -29.333 42.666 -44 81.999 -44z" />
    <glyph glyph-name="seven" unicode="7" horiz-adv-x="433" 
d="M123 0l237 751h-245l6 59h319l-3 -36l-243 -774h-71z" />
    <glyph glyph-name="eight" unicode="8" horiz-adv-x="484" 
d="M220 -10c-112.667 0 -169.333 59.3311 -170 177.998c0 15.333 1 31.666 3 48.999c2.66699 27.333 7.66699 51.833 15 73.5s15.166 39.334 23.499 53.001s18.833 26.167 31.5 37.5s23.667 20 33 26s21 12 35 18c-60 26 -90 77.667 -90 155c0 11.333 0.666992 23 2 35
c6.66699 62.667 26.5 112.167 59.5 148.5s81.167 54.5 144.5 54.5c32 0 59.333 -5 82 -15s40 -24.333 52 -43s20.333 -40.334 25 -65.001c2 -14 3 -28.667 3 -44c0 -12 -0.666992 -24.667 -2 -38c-10 -95.333 -52.667 -158 -128 -188
c6 -3.33301 11.167 -6.16602 15.5 -8.49902s9.5 -5.66602 15.5 -9.99902s11.167 -8.33301 15.5 -12s8.83301 -8.16699 13.5 -13.5s8.83398 -11.166 12.501 -17.499s7.16699 -13.166 10.5 -20.499s6 -15.333 8 -24s3.66699 -18.334 5 -29.001
c1.33301 -9.33301 2 -19.333 2 -30v-4c0 -12.667 -1 -25.667 -3 -39c-16 -151.333 -87.333 -227 -214 -227zM226.001 48.998c40 0 71.168 13.667 93.501 41s36.5 69.666 42.5 126.999c1.33301 14 2 27 2 39c0 84 -34 129 -102 135
c-80.667 -6.66699 -126.334 -64.667 -137.001 -174c-1.33301 -15.333 -2.33301 -29.666 -3 -42.999c0 -36 6.33301 -64 19 -84c16 -27.333 44.333 -41 85 -41zM269.002 457.998c73.333 3.33301 115.668 56.001 127.001 158.001c1.33301 12 1.66602 22.667 0.999023 32
c0 74 -32 111 -96 111c-73.333 0 -115.333 -47.667 -126 -143c-1.33301 -12.667 -2 -24.334 -2 -35.001c0 -79.333 32 -120.333 96 -123z" />
    <glyph glyph-name="nine" unicode="9" horiz-adv-x="491" 
d="M227 -10c-111.333 0 -167.002 52.668 -167.002 158.001c0 10 0.666992 20.667 2 32l0.5 6.5c0.333008 4.33301 0.5 6.83301 0.5 7.5h72c-1.33301 -14 -2 -27.333 -2 -40c0 -31.333 5 -55 15 -71c14.667 -21.333 43.334 -32 86.001 -32c36 0 64.667 13.333 86 40
s35.333 71.667 42 135l16 152c-13.333 -13.333 -31.5 -24.5 -54.5 -33.5s-50.167 -13.5 -81.5 -13.5c-65.333 0 -108.666 18.667 -129.999 56c-15.333 26.667 -23 65 -23 115c0 21.333 1.33301 44.666 4 69.999c17.333 164.667 90.333 246.667 219 246
c108.667 0 162.667 -64.333 162 -193c0 -18.667 -1 -38.667 -3 -60l-34 -323c-17.333 -168 -87.333 -252 -210 -252zM264.998 387.001c47.333 0 87 15.667 119 47l14 140c2 21.333 3 40.333 3 57c0 36 -4.66699 63.667 -14 83c-14.667 28.667 -42 43 -82 43
s-71.167 -14 -93.5 -42s-36.5 -71 -42.5 -129c-3.33301 -33.333 -5 -62.333 -5 -87v-23c1.33301 -29.333 10 -51.5 26 -66.5s41 -22.5 75 -22.5z" />
    <glyph glyph-name="colon" unicode=":" horiz-adv-x="193" 
d="M56 83l11 107h78l-11 -107h-78zM92 423l12 107h77l-12 -107h-77z" />
    <glyph glyph-name="semicolon" unicode=";" horiz-adv-x="208" 
d="M54 -28l-12.002 31.999c19.333 8 33 17.333 41 28s13 26.334 15 47.001h-43l11 103h81l-10 -95c-3.33301 -33.333 -11.166 -59 -23.499 -77s-32.166 -30.667 -59.499 -38zM92.998 440.999l12 109h77l-12 -109h-77z" />
    <glyph glyph-name="less" unicode="&#x3c;" horiz-adv-x="363" 
d="M291 62l-256 204l7 72l300 210l-9 -76l-238 -170l203 -165z" />
    <glyph glyph-name="equal" unicode="=" horiz-adv-x="400" 
d="M59 285l6 58h299l-7 -58h-298zM76 453l7 58h298l-6 -58h-299z" />
    <glyph glyph-name="greater" unicode="&#x3e;" horiz-adv-x="363" 
d="M42 62l8 75l239 171l-204 164l8 76l256 -205l-7 -72z" />
    <glyph glyph-name="question" unicode="?" horiz-adv-x="474" 
d="M173 201l12.9971 123.997c66 44.667 116.5 89.667 151.5 135s55.167 95.333 60.5 150c0.666992 8.66699 1.33398 17 2.00098 25c0 34.667 -8.33301 62.334 -25 83.001c-20.667 25.333 -48.334 38 -83.001 38c-38 0 -67.667 -10.667 -89 -32
c-18.667 -18 -28 -41.667 -28 -71c0 -5.33301 0.333008 -11 1 -17l3 -35l-68 -15l-5 36c-0.666992 9.33301 -1 18 -1 26c0 20.667 3 40.334 9 59.001c8.66699 25.333 22 46 40 62s39.5 28.5 64.5 37.5s52.167 13.5 81.5 13.5c57.333 0 101.666 -18 132.999 -54
c26 -29.333 38.667 -69.666 38 -120.999c0 -11.333 -0.666992 -23.333 -2 -36c-3.33301 -32 -10.666 -61.833 -21.999 -89.5s-27.166 -54 -47.499 -79s-42.166 -47.833 -65.499 -68.5s-51.666 -43 -84.999 -67l-11 -104h-65zM148.997 -0.00292969l9 87h72l-8 -87h-73z" />
    <glyph glyph-name="at" unicode="@" horiz-adv-x="842" 
d="M419 -112c-44.667 0 -85.4932 4.50098 -122.493 13.501s-71.333 23.833 -103 44.5s-57.667 47.167 -78 79.5s-34.5 72.833 -42.5 121.5c-4.66699 28 -7.33398 57.667 -8.00098 89c0 24.667 1.66699 50.334 5 77.001c6.66699 66.667 19.667 127.334 39 182.001
s43.166 101.167 71.499 139.5s60.833 70.666 97.5 96.999s75.834 45.833 117.501 58.5s85.167 19 130.5 19h3c57.333 0 107 -9.33301 149 -28s74.833 -45.667 98.5 -81s39.5 -77.666 47.5 -126.999c4 -23.333 6 -47.666 6 -72.999c0 -29.333 -2.66699 -61 -8 -95
c-6.66699 -49.333 -18.667 -93 -36 -131s-37.333 -68 -60 -90s-46.167 -38.333 -70.5 -49s-48.5 -16 -72.5 -16c-24.667 0 -45 8.33301 -61 25c-12.667 13.333 -18.667 29.666 -18 48.999c0 6 0.333008 12 1 18c-12.667 -27.333 -29 -49.833 -49 -67.5
s-43.667 -26.834 -71 -27.501h-9c-39.333 0 -69 14.667 -89 44c-16.667 25.333 -25 58.333 -25 99c0 10 0.333008 20.667 1 32c4.66699 42 15.334 82.333 32.001 121s37 72.167 61 100.5s51 50.833 81 67.5s60 25 90 25c25.333 0 48 -8.33301 68 -25l10 19h55l-87 -348
c-2.66699 -12 -4.66699 -21.5 -6 -28.5s-2 -14.5 -2 -22.5s1 -14.333 3 -19s5.5 -8.5 10.5 -11.5s11.5 -4.5 19.5 -4.5c15.333 0 31.166 4.5 47.499 13.5s32.5 22.333 48.5 40s30.333 42.167 43 73.5s21.667 67.333 27 108c5.33301 34.667 8 66.667 8 96
c0 72 -15.333 128.667 -46 170c-42.667 57.333 -111 86 -205 86h-4c-48.667 -0.666992 -94.334 -10.834 -137.001 -30.501s-80.834 -47.834 -114.501 -84.501s-61.667 -82.5 -84 -137.5s-36.833 -116.5 -43.5 -184.5c-2.66699 -24 -4.33398 -46.333 -5.00098 -67
c0 -8 0.333008 -16 1 -24c1.33301 -28 4.16602 -53.333 8.49902 -76s11 -43.167 20 -61.5s18.833 -34.5 29.5 -48.5s23.167 -26.333 37.5 -37s29.166 -19.5 44.499 -26.5s31.833 -12.667 49.5 -17s35.167 -7.5 52.5 -9.5s35.666 -3 54.999 -3
c59.333 0 121.333 8.66699 186 26l10 -54c-80.667 -19.333 -150 -29 -208 -29zM402.007 172.001c21.333 1.33301 41.999 11.667 61.999 31s37 46.333 51 81l63 252c-13.333 8.66699 -28.666 13 -45.999 13c-21.333 0 -42.833 -6.33301 -64.5 -19s-41.834 -30 -60.501 -52
s-34.667 -49.333 -48 -82s-22 -68 -26 -106c-1.33301 -10.667 -1.66602 -20.667 -0.999023 -30c0 -27.333 5 -48 15 -62c12 -17.333 27.667 -26 47 -26h8z" />
    <glyph glyph-name="A" unicode="A" horiz-adv-x="477" 
d="M5 0l256 810h80l87 -810h-74l-18 216h-193l-64 -216h-74zM160 272h172l-41 436z" />
    <glyph glyph-name="B" unicode="B" horiz-adv-x="501" 
d="M48 0l85 810h174c70.667 0 119.667 -17.667 147 -53c22 -28 33 -65.333 33 -112c0 -12 -0.666992 -24.333 -2 -37c-2.66699 -28 -8.16699 -53.333 -16.5 -76s-21.5 -43 -39.5 -61s-39.667 -29.333 -65 -34c69.333 -20 103.666 -74 102.999 -162
c0 -13.333 -0.666992 -27 -2 -41c-2.66699 -27.333 -7 -52 -13 -74s-14.5 -43.167 -25.5 -63.5s-24.333 -37.5 -40 -51.5s-35.167 -25 -58.5 -33s-49.666 -12 -78.999 -12h-201zM131 57l110 0.000976562c50.667 0 86.667 13.667 108 41s35.333 72.666 42 135.999
c1.33301 12.667 2 24.667 2 36c0 88 -38.333 132 -115 132h-111zM173 461.001h111.001c43.333 0 75 12.5 95 37.5s32.333 61.5 37 109.5c1.33301 12.667 2 24 2 34c0 10.667 -0.666992 20.667 -2 30c-2.66699 16.667 -9.33398 31.167 -20.001 43.5s-25.667 21.333 -45 27
s-44.333 8.5 -75 8.5h-72z" />
    <glyph glyph-name="C" unicode="C" horiz-adv-x="498" 
d="M236 -10c-32 0 -59.667 4.16797 -83 12.501s-41.666 20.333 -54.999 36s-23.666 34 -30.999 55s-11.333 44.167 -12 69.5v9c0 22.667 1 46.667 3 72l34 321c3.33301 31.333 8.16602 59.333 14.499 84s15.333 47.834 27 69.501s26 39.667 43 54s37.833 25.5 62.5 33.5
s52.667 12 84 12c35.333 0 65.166 -5.33301 89.499 -16s42.5 -25.834 54.5 -45.501s20 -43.834 24 -72.501c2 -14 3.33301 -28.667 4 -44c0 -16 -1.33301 -33.333 -4 -52l-5 -49h-72l4 47c2 20 3 38.667 3 56c0 13.333 -0.333008 25 -1 35
c-2.66699 25.333 -12.167 45.166 -28.5 59.499s-41.166 21.5 -74.499 21.5c-21.333 0 -40 -3 -56 -9s-29.167 -14 -39.5 -24s-19 -23 -26 -39s-12.333 -32.5 -16 -49.5s-6.83398 -37.5 -9.50098 -61.5l-36 -344c-2 -18.667 -3 -35.334 -3 -50.001
c0 -37.333 5.33301 -66.333 16 -87c15.333 -28.667 47.333 -43 96 -43c24.667 0 45.5 4 62.5 12s30.5 20.333 40.5 37s17.5 34.834 22.5 54.501s9.16699 43.834 12.5 72.501l5 52h72l-4 -47c-4 -37.333 -10.5 -70 -19.5 -98s-21.667 -53.333 -38 -76s-38 -39.667 -65 -51
s-58.833 -17 -95.5 -17z" />
    <glyph glyph-name="D" unicode="D" horiz-adv-x="520" 
d="M131 57l102.001 0.000976562c18 0 34.167 1.83301 48.5 5.5s26.666 8.5 36.999 14.5s19.5 14 27.5 24s14.667 20.167 20 30.5s10 23 14 38s7 29.333 9 43s4 30.167 6 49.5l32 302c2 21.333 3 40.666 3 57.999c0 16 -1 30.667 -3 44c-3.33301 28 -15 49.167 -35 63.5
s-49.667 21.5 -89 21.5h-99zM48.001 0.000976562l85.002 809.999h178c41.333 0 75.666 -5.66699 102.999 -17s48.166 -27.833 62.499 -49.5s23.5 -46.5 27.5 -74.5c2.66699 -14.667 4 -30.667 4 -48c0 -15.333 -1 -31.666 -3 -48.999l-34 -322
c-4 -39.333 -11.167 -73.833 -21.5 -103.5s-24.833 -55.667 -43.5 -78s-42.5 -39.333 -71.5 -51s-63.5 -17.5 -103.5 -17.5h-183z" />
    <glyph glyph-name="E" unicode="E" 
d="M48 0l85 810h293l-6 -59h-216l-32 -303h177l-6 -57h-177l-35 -334h219l-7 -57h-295z" />
    <glyph glyph-name="F" unicode="F" horiz-adv-x="385" 
d="M48 0l85 810h292l-6 -58h-215l-32 -304h179l-6 -56h-178l-42 -392h-77z" />
    <glyph glyph-name="G" unicode="G" horiz-adv-x="519" 
d="M231 -11c-37.333 0 -68.6719 6.16699 -94.0049 18.5s-44.166 29.833 -56.499 52.5s-20.166 49.667 -23.499 81c-1.33301 14 -2.33301 29 -3 45c0 19.333 1.33301 39.666 4 60.999l33 316c4 41.333 10.833 76.833 20.5 106.5s23.334 56 41.001 79s40.667 40.333 69 52
s62.166 17.5 101.499 17.5c70 0 118 -19.333 144 -58c20 -29.333 30 -70.333 30 -123c0 -16 -1 -33.333 -3 -52l-3 -28h-72l3 28c2 19.333 3 37.333 3 54c0 15.333 -0.666992 29.333 -2 42c-4 26 -14.333 45.333 -31 58s-41.334 19 -74.001 19
c-22 0 -41.167 -3.16699 -57.5 -9.5s-29.666 -14.666 -39.999 -24.999s-19.166 -23.833 -26.499 -40.5s-12.666 -33.667 -15.999 -51s-6.33301 -38 -9 -62l-35 -332c-2 -20 -3 -38.667 -3 -56c0 -16 1 -31 3 -45c3.33301 -28 14 -49.333 32 -64s44.333 -22 79 -22
c47.333 0 81.833 15.5 103.5 46.5s35.834 78.5 42.501 142.5l10 95h-119l6 57h190l-42 -392h-49l1 92c-30 -68.667 -82.333 -103 -157 -103z" />
    <glyph glyph-name="H" unicode="H" horiz-adv-x="548" 
d="M48 0l85 810h77l-38 -359h255l38 359h77l-85 -810h-77l41 395h-254l-42 -395h-77z" />
    <glyph glyph-name="I" unicode="I" horiz-adv-x="221" 
d="M52 0l85 810h75l-85 -810h-75z" />
    <glyph glyph-name="J" unicode="J" horiz-adv-x="278" 
d="M-18 -36l6 58.002c19.333 0 35.333 0.666992 48 2s24.167 4.16602 34.5 8.49902s18.333 9.5 24 15.5s10.667 14.667 15 26s7.66602 23.666 9.99902 36.999s4.5 30.666 6.5 51.999l68 647h77l-68 -652c-3.33301 -28 -7.16602 -51.667 -11.499 -71
s-10.833 -37.333 -19.5 -54s-19.5 -29.667 -32.5 -39s-29.333 -16.666 -49 -21.999s-43.167 -8 -70.5 -8h-38z" />
    <glyph glyph-name="K" unicode="K" horiz-adv-x="473" 
d="M48 0l85 810h77l-45 -427l261 427h74l-204 -348l154 -462h-75l-140 422l-78 -121l-32 -301h-77z" />
    <glyph glyph-name="L" unicode="L" horiz-adv-x="382" 
d="M48 0l85 810h77l-79 -753h230l-6 -57h-307z" />
    <glyph glyph-name="M" unicode="M" horiz-adv-x="642" 
d="M42 0l105 810h75l88 -703l235 703h77l-65 -810h-63l52 646l-223 -646h-49l-85 644l-83 -644h-64z" />
    <glyph glyph-name="N" unicode="N" horiz-adv-x="520" 
d="M48 0l85 810h56l192 -629l66 629h66l-85 -810h-54l-193 636l-67 -636h-66z" />
    <glyph glyph-name="O" unicode="O" horiz-adv-x="524" 
d="M246 51c26 0 48.167 3.99902 66.5 11.999s33 20 44 36s19.333 33.833 25 53.5s10.167 43.167 13.5 70.5l38 366c2 16 3 31 3 45c0 8.66699 -0.333008 17 -1 25c-2 20.667 -6.66699 38.334 -14 53.001s-19.5 26 -36.5 34s-38.5 12 -64.5 12s-48.167 -3.83301 -66.5 -11.5
s-33 -19.334 -44 -35.001s-19.333 -33.167 -25 -52.5s-10.167 -42.666 -13.5 -69.999l-38 -366c-2 -16 -3 -31.333 -3 -46c0 -8.66699 0.333008 -17 1 -25c2 -20.667 6.66699 -38.5 14 -53.5s19.5 -26.667 36.5 -35s38.5 -12.5 64.5 -12.5zM239 -10.001
c-31.333 0 -58.498 3.83105 -81.498 11.498s-41.5 18.834 -55.5 33.501s-25 32.334 -33 53.001s-12.667 43.667 -14 69v21c0 19.333 1 39.666 3 60.999l35 336c4 38 11 71.333 21 100s24 54 42 76s41.333 38.667 70 50s62 17 100 17c30.667 0 57.5 -3.66699 80.5 -11
s41.667 -18.166 56 -32.499s25.666 -31.333 33.999 -51s13.166 -42.167 14.499 -67.5v-25c0 -17.333 -0.666992 -36 -2 -56l-36 -337c-4 -38 -10.833 -71.5 -20.5 -100.5s-23.5 -55 -41.5 -78s-41.5 -40.333 -70.5 -52s-62.833 -17.5 -101.5 -17.5z" />
    <glyph glyph-name="P" unicode="P" horiz-adv-x="483" 
d="M48 0l85.002 809.999h195c35.333 0 65.166 -5.16699 89.499 -15.5s42.833 -25.166 55.5 -44.499s21 -41.666 25 -66.999c2 -13.333 3 -28 3 -44c0 -14 -0.666992 -28.667 -2 -44c-3.33301 -30 -10 -57.333 -20 -82s-23.333 -46.834 -40 -66.501
s-38.334 -35.167 -65.001 -46.5s-56.667 -17 -90 -17h-118l-41 -383h-77zM171.002 439.999h97.999c50 0 86.833 11.5 110.5 34.5s38.167 63.167 43.5 120.5c1.33301 20.667 2.33301 39 3 55c0 8 -0.333008 15.333 -1 22c-1.33301 20.667 -7 37 -17 49
s-23.167 20.333 -39.5 25s-38.166 7 -65.499 7h-98z" />
    <glyph glyph-name="Q" unicode="Q" horiz-adv-x="529" 
d="M391 -159c-18 14 -39.0029 35.6689 -63.0029 65.002s-44.333 57.666 -61 84.999c-11.333 -0.666992 -19.666 -1 -24.999 -1c-39.333 0 -72.333 6 -99 18s-46.5 29 -59.5 51s-21.833 48.333 -26.5 79c-2 14.667 -3 30.334 -3 47.001c0 17.333 1.33301 35.333 4 54l35 336
c4 38 11 71.5 21 100.5s24.333 54.333 43 76s42.334 38.167 71.001 49.5s62.167 17 100.5 17s70.666 -5.66699 96.999 -17s46.333 -28 60 -50s22.834 -47.333 27.501 -76c2.66699 -14.667 4 -31.334 4 -50.001c0 -15.333 -1 -32 -3 -50l-36 -337
c-4 -40.667 -11.5 -76.167 -22.5 -106.5s-27.333 -56.833 -49 -79.5s-48.5 -39 -80.5 -49c10.667 -18 27.834 -40.333 51.501 -67s42.5 -46.334 56.5 -59.001zM247.997 51.002c26 0 48.333 4.00098 67 12.001s33.667 20 45 36s20 33.833 26 53.5s10.333 43.167 13 70.5
l39 366c2 14.667 3 29 3 43c0 9.33301 -0.666992 18.333 -2 27c-2 20.667 -6.83301 38.334 -14.5 53.001s-20 26 -37 34s-38.5 12 -64.5 12s-48.333 -3.83301 -67 -11.5s-33.667 -19.334 -45 -35.001s-20 -33.334 -26 -53.001s-10.667 -42.834 -14 -69.501l-38 -366
c-2 -14.667 -3 -29 -3 -43c0 -9.33301 0.333008 -18.666 1 -27.999c2 -20.667 7 -38.5 15 -53.5s20.5 -26.667 37.5 -35s38.5 -12.5 64.5 -12.5z" />
    <glyph glyph-name="R" unicode="R" horiz-adv-x="512" 
d="M48 0l85 810.001h184c36.667 0 67.667 -4.66699 93 -14s44.833 -23 58.5 -41s22.5 -39.333 26.5 -64c2 -14 3.33301 -29 4 -45c0 -12.667 -0.666992 -26.334 -2 -41.001c-12 -111.333 -56.333 -175 -133 -191l82 -414h-75l-78 398h-126l-42 -398h-77zM173 454.001
l102.999 0.000976562c48.667 0 83.834 12 105.501 36s35.167 62.333 40.5 115c1.33301 14 2 26.667 2 38c0 33.333 -5.66699 58.333 -17 75c-16 23.333 -48.333 34.666 -97 33.999h-106z" />
    <glyph glyph-name="S" unicode="S" horiz-adv-x="459" 
d="M221 -10c-64 0 -110.664 19.3301 -139.997 57.9971c-27.333 36 -41 85 -41 147c0 4.66699 0.333008 9.66699 1 15l69 19c0 -21.333 1 -40.166 3 -56.499s5.5 -32.333 10.5 -48s11.667 -28.667 20 -39s19.666 -18.5 33.999 -24.5s31.166 -9 50.499 -9
c76.667 0 118.667 39 126 117c0.666992 6.66699 1 13 1 19c0 16 -2.33301 31.333 -7 46c-6.66699 20.667 -15.667 38.667 -27 54s-27.333 34 -48 56l-128 137c-22.667 24.667 -38.667 50.334 -48 77.001c-6.66699 19.333 -10.334 40 -11.001 62c0 8 0.666992 16.333 2 25
c6 55.333 27 98 63 128s82 45 138 45h3c58.667 0 102 -15.667 130 -47c26.667 -30 40 -77.333 40 -142c0 -5.33301 -0.333008 -10.666 -1 -15.999l-66 -17v12c0 48.667 -7.33301 85.667 -22 111c-15.333 26 -43 39 -83 39h-6c-36 -0.666992 -65 -9.83398 -87 -27.501
s-35 -44.167 -39 -79.5c-0.666992 -5.33301 -1 -10.666 -1 -15.999c0 -16 2.66699 -30.667 8 -44c6.66699 -18 19 -37.333 37 -58l129 -135c33.333 -35.333 58.333 -70.666 75 -105.999c14 -28 21 -58.667 21 -92c0 -8.66699 -0.333008 -17.334 -1 -26.001
c-6 -58.667 -27.667 -104 -65 -136s-84 -48 -140 -48z" />
    <glyph glyph-name="T" unicode="T" horiz-adv-x="388" 
d="M136 0l79 751h-163l7 59h397l-6 -59h-158l-80 -751h-76z" />
    <glyph glyph-name="U" unicode="U" horiz-adv-x="537" 
d="M246 -10c-32 0 -59.999 3.66992 -83.999 11.0029s-42.833 17.833 -56.5 31.5s-24.334 30 -32.001 49s-11.5 40.167 -11.5 63.5c0 6 -0.333008 12.333 -1 19c0 18 0.666992 37 2 57l62 589h74l-62 -591c-2 -14 -3.33301 -27.667 -4 -41
c0 -8.66699 0.666992 -17.334 2 -26.001c2.66699 -20.667 7.66699 -38.334 15 -53.001s19.666 -26.334 36.999 -35.001s39 -13 65 -13c25.333 0 47.333 4.16699 66 12.5s33.667 20.5 45 36.5s20.166 33.5 26.499 52.5s10.833 41.167 13.5 66.5l62 591h73l-61 -589
c-3.33301 -35.333 -10 -66.5 -20 -93.5s-23.667 -51.167 -41 -72.5s-40.166 -37.5 -68.499 -48.5s-62.166 -16.5 -101.499 -16.5z" />
    <glyph glyph-name="V" unicode="V" horiz-adv-x="489" 
d="M192 0l-105 810h73l83 -670l214 670h72l-268 -810h-69z" />
    <glyph glyph-name="W" unicode="W" horiz-adv-x="714" 
d="M150 0l-52 809l65 1l38 -658l190 645h63l56 -646l169 659h64l-216 -810h-59l-58 668l-198 -668h-62z" />
    <glyph glyph-name="X" unicode="X" horiz-adv-x="463" 
d="M-8 0l219 422l-132 388h70l112 -323l173 323h73l-221 -397l141 -413h-72l-117 342l-173 -342h-73z" />
    <glyph glyph-name="Y" unicode="Y" horiz-adv-x="469" 
d="M178 0l28 269l-126 541h75l98 -450l187 450h75l-235 -541l-28 -269h-74z" />
    <glyph glyph-name="Y" unicode="&#x4ae;" horiz-adv-x="469" 
d="M178 0l28 269l-126 541h75l98 -450l187 450h75l-235 -541l-28 -269h-74z" />
    <glyph glyph-name="Z" unicode="Z" horiz-adv-x="407" 
d="M12 0l6 58l344 694h-249l6 58h331l-4 -40l-353 -713h279l-6 -57h-354z" />
    <glyph glyph-name="bracketleft" unicode="[" horiz-adv-x="302" 
d="M31 -160l102 970h175l-4 -41h-101l-93 -888h100l-4 -41h-175z" />
    <glyph glyph-name="backslash" unicode="\" horiz-adv-x="344" 
d="M233 0l-146 810h65l145 -810h-64z" />
    <glyph glyph-name="bracketright" unicode="]" horiz-adv-x="285" 
d="M1 -159l5 40h101l93 888h-101l5 41h174l-102 -969h-175z" />
    <glyph glyph-name="asciicircum" unicode="^" horiz-adv-x="394" 
d="M61 511l161 299h77l98 -299h-65l-77 248l-128 -248h-66z" />
    <glyph glyph-name="underscore" unicode="_" horiz-adv-x="332" 
d="M-33 -106l6 57h332l-6 -57h-332z" />
    <glyph glyph-name="grave" unicode="`" horiz-adv-x="235" 
d="M188 614l-72 196h73l36 -196h-37z" />
    <glyph glyph-name="a" unicode="a" horiz-adv-x="396" 
d="M133 -9c-34 0 -60.668 12.3359 -80.001 37.0029c-16 20.667 -24 46 -24 76c0 5.33301 0.333008 11 1 17c2 19.333 5.5 36.5 10.5 51.5s12.667 29.167 23 42.5s21.333 25.166 33 35.499s27.834 21.166 48.501 32.499s41.334 22 62.001 32s47.667 22 81 36l4 41
c2 22 3 41 3 57c0 23.333 -2.33301 41 -7 53c-8 20 -25.667 30 -53 30c-54 0 -84.333 -33 -91 -99l-2 -21l-72 2c0 2.66699 0.666992 8.66699 2 18c8 54.667 26.333 94.167 55 118.5s68 36.5 118 36.5c50.667 0 85.334 -15 104.001 -45
c13.333 -22 19.666 -53.333 18.999 -94c0 -16 -1 -33.333 -3 -52l-29 -281c-4.66699 -40.667 -7 -75.334 -7 -104.001v-11h-65c-1.33301 39.333 -2 66 -2 80c-12 -25.333 -29.333 -46.5 -52 -63.5s-48.334 -25.5 -77.001 -25.5zM162.999 54.0029
c20 0 38.834 6.66699 56.501 20s32.167 29.333 43.5 48l19 180c-58.667 -29.333 -96.667 -50 -114 -62c-29.333 -20 -48.333 -43.333 -57 -70c-2.66699 -10 -4.66699 -20.667 -6 -32c-0.666992 -6 -1 -11.667 -1 -17c0 -20 4.33301 -35.667 13 -47
c11.333 -13.333 26.666 -20 45.999 -20z" />
    <glyph glyph-name="b" unicode="b" horiz-adv-x="416" 
d="M210 -9c-37.333 0 -69.667 18.332 -97 54.999l-5 -46h-73l85 810h73l-29 -280c34 38 72.667 57 116 57c18 0 33.833 -3 47.5 -9s24.667 -14.5 33 -25.5s14.833 -23.333 19.5 -37s8 -29.5 10 -47.5c0.666992 -14 1 -27.667 1 -41v-13
c0 -17.333 -1.33301 -36.666 -4 -57.999l-13 -122c-3.33301 -30.667 -7.5 -58 -12.5 -82s-11.833 -46.333 -20.5 -67s-19 -37.667 -31 -51s-26.333 -23.833 -43 -31.5s-35.667 -11.5 -57 -11.5zM203.999 48.999c13.333 0 24.667 2.66895 34 8.00195s17.5 12.666 24.5 21.999
s13 22 18 38s9 33 12 51s5.83301 39.667 8.5 65l12 123c3.33301 31.333 5 58.666 5 81.999v14c-0.666992 26 -6.16699 45.333 -16.5 58s-26.5 19 -48.5 19c-30 0 -61.333 -14.667 -94 -44l-41 -394c23.333 -28 52 -42 86 -42z" />
    <glyph glyph-name="c" unicode="c" horiz-adv-x="388" 
d="M177 -9c-32.667 0 -59.168 5.66602 -79.501 16.999s-34.333 27.166 -42 47.499s-12.167 44.5 -13.5 72.5c0 7.33301 -0.333008 15 -1 23c0 21.333 1.66699 44 5 68l15 135c4 42 9.66699 76.833 17 104.5s17.833 51.5 31.5 71.5s31 34.5 52 43.5s46.833 13.5 77.5 13.5
c30 0 54.5 -4.5 73.5 -13.5s32.667 -21.5 41 -37.5s13.5 -35.333 15.5 -58c0.666992 -8.66699 1.33398 -18 2.00098 -28c0 -15.333 -1.33301 -31.333 -4 -48l-3 -27h-67l3 27c1.33301 16.667 2 31.334 2 44.001c0 26.667 -3.33301 46 -10 58c-10 18.667 -29.333 28 -58 28
c-33.333 0 -56.5 -11.833 -69.5 -35.5s-22.833 -67.167 -29.5 -130.5l-17 -162c-2.66699 -24 -4 -45 -4 -63c0 -26.667 2.66699 -46.667 8 -60c9.33301 -23.333 30 -35 62 -35c16.667 0 30.5 2.66699 41.5 8s20 14.333 27 27s12.167 26.834 15.5 42.501s6.33301 36.5 9 62.5
l3 31h68l-3 -28c-2.66699 -25.333 -6 -47.333 -10 -66s-10.167 -36.667 -18.5 -54s-18.333 -31.5 -30 -42.5s-26.667 -19.667 -45 -26s-39.833 -9.5 -64.5 -9.5z" />
    <glyph glyph-name="d" unicode="d" horiz-adv-x="412" 
d="M162 -9c-50 0 -83.665 18.668 -100.998 56.001c-12 24.667 -18 60 -18 106c0 24 1.66699 50.667 5 80l11 107c3.33301 32 7.5 60 12.5 84s11.667 46.667 20 68s18.166 38.666 29.499 51.999s25.333 23.833 42 31.5s36 11.5 58 11.5c38 0 70 -16.667 96 -50l29 273h73
l-85 -810h-73l5 42c-32.667 -34 -67.334 -51 -104.001 -51zM183.002 49.001c28 0 57.335 12.6689 88.002 38.002l41 401c-26.667 27.333 -53.667 41 -81 41c-30.667 0 -52.834 -12.833 -66.501 -38.5s-23.834 -67.834 -30.501 -126.501l-14 -136c-2.66699 -28 -4 -53 -4 -75
c0 -26.667 2.33301 -47.334 7 -62.001c8 -28 28 -42 60 -42z" />
    <glyph glyph-name="e" unicode="e" horiz-adv-x="395" 
d="M178 -9c-55.333 0 -93.332 17.002 -113.999 51.002c-14.667 24 -22 60 -22 108c0 20.667 1.33301 43 4 67l15 146c6 56 16.5 100.667 31.5 134s34.5 56.666 58.5 69.999s54.333 20 91 20c40 0 70 -8.5 90 -25.5s32.333 -43.167 37 -78.5
c1.33301 -14.667 2.33301 -31.334 3 -50.001c0 -25.333 -1.66699 -53.333 -5 -84l-7 -53h-233l-9 -86c-2.66699 -24.667 -4 -46 -4 -64c0 -27.333 2.66699 -48.333 8 -63c9.33301 -24.667 30 -37 62 -37c25.333 0 45.666 8 60.999 24s25 45.333 29 88l5 40h72l-4 -32
c-6 -56 -22.333 -99.167 -49 -129.5s-66.667 -45.5 -120 -45.5zM132.001 338.002l161 -0.000976562l5 48c2.66699 26 4 49 4 69v9c0 22 -5.5 38.833 -16.5 50.5s-27.833 17.5 -50.5 17.5c-20.667 0 -37.167 -4.33301 -49.5 -13s-22.5 -24.167 -30.5 -46.5
s-14.333 -54.166 -19 -95.499z" />
    <glyph glyph-name="f" unicode="f" horiz-adv-x="268" 
d="M71 0l55.001 525.002h-75l5 53h75l7 60c2 19.333 4.16699 35.666 6.5 48.999s6.33301 26.666 12 39.999s12.667 24 21 32s19.333 14.333 33 19s29.834 7 48.501 7c17.333 0 36.666 -2 57.999 -6l-5 -55c-22.667 3.33301 -36.334 5 -41.001 5
c-20.667 0 -35 -6.33301 -43 -19s-13.667 -34 -17 -64l-7 -68h94l-6 -53h-93l-55 -525h-73z" />
    <glyph glyph-name="g" unicode="g" horiz-adv-x="431" 
d="M172 -190c-30.667 0 -57.3311 1.66406 -79.998 4.99707s-42.667 8.66602 -60 15.999s-30 17.333 -38 30c-6.66699 10.667 -10 23.334 -10 38.001v9c2.66699 28 14.667 53.667 36 77s46.333 42 75 56c-16.667 4.66699 -31 11.667 -43 21
c-10.667 8.66699 -16 17.667 -16 27v3c3.33301 30.667 30.333 69.334 81 116.001c-37.333 29.333 -56 75.333 -56 138c0 12.667 0.666992 25.667 2 39c2.66699 28 8.66699 54 18 78s21.333 45.333 36 64s33 33.334 55 44.001s46.667 16 74 16c58 0 96.667 -24 116 -72
c7.33301 10.667 19 22.334 35 35.001s32.667 22.667 50 30l16 6l14 -51c-16.667 -4 -35.334 -11 -56.001 -21s-35.334 -20 -44.001 -30c3.33301 -12 6 -28.333 8 -49c0.666992 -10 1 -19 1 -27c0 -9.33301 -0.666992 -17.666 -2 -24.999
c-6.66699 -62 -24.5 -111.167 -53.5 -147.5s-71.167 -54.5 -126.5 -54.5c-9.33301 0 -20.166 1.16699 -32.499 3.5s-20.833 4.16602 -25.5 5.49902c-1.33301 -2 -5.5 -7.5 -12.5 -16.5s-12.5 -16 -16.5 -21s-8 -11.167 -12 -18.5c-4.66699 -8 -6.66699 -14.667 -6 -20
c0 -8.66699 15.333 -15.667 46 -21c6.66699 -1.33301 22.5 -4 47.5 -8s39.5 -6.33301 43.5 -7c46.667 -8 81 -22.667 103 -44c18.667 -18 28 -42.333 28 -73c0 -5.33301 -0.333008 -11 -1 -17c-4.66699 -46 -24.334 -79.833 -59.001 -101.5s-79.667 -32.5 -135 -32.5z
M178.003 -131.003c38 0 68.501 6.00098 91.501 18.001s35.833 30.333 38.5 55v9c0 16.667 -5.66699 30.334 -17 41.001c-14 12 -42 21.667 -84 29l-73 10c-20 -12 -38.333 -26.333 -55 -43s-26.334 -35.334 -29.001 -56.001v-7c0 -18.667 9 -32.334 27 -41.001
c20 -10 53.667 -15 101 -15zM209.004 233.998c16 0 30.3311 3.00098 42.998 9.00098s22.834 13.833 30.501 23.5s14.334 21.5 20.001 35.5s9.66699 27.333 12 40s4.16602 27 5.49902 43c1.33301 14 2.33301 27.333 3 40c0 72.667 -27.333 109.334 -82 110.001
c-19.333 0 -36.166 -4.66699 -50.499 -14s-25.5 -21.833 -33.5 -37.5s-14.333 -31.334 -19 -47.001s-8 -32.834 -10 -51.501c-1.33301 -14 -2 -27 -2 -39c0 -74.667 27.667 -112 83 -112z" />
    <glyph glyph-name="h" unicode="h" horiz-adv-x="412" 
d="M35 0l84.998 810.001h73l-30 -292c48 46 97.333 69 148 69c28.667 0 49.334 -10.667 62.001 -32c10 -16 15 -37.333 15 -64c0 -8.66699 -0.333008 -17.667 -1 -27l-49 -464h-74l48 448c0.666992 8 1 15.667 1 23c0 17.333 -2.66699 30.666 -8 39.999
c-7.33301 12.667 -20.666 18.667 -39.999 18c-32 0 -67.667 -17.667 -107 -53l-50 -476h-73z" />
    <glyph glyph-name="i" unicode="i" horiz-adv-x="204" 
d="M42 0l61 578h73l-61 -578h-73zM111 658l11 99h73l-10 -99h-74z" />
    <glyph glyph-name="j" unicode="j" horiz-adv-x="212" 
d="M-54 -148l6.00195 56.002c3.33301 -0.666992 11.666 -1.33398 24.999 -2.00098c14.667 0 26.834 2 36.501 6s17.167 10.167 22.5 18.5s9.16602 16.666 11.499 24.999s4.16602 18.5 5.49902 30.5l62 592h73l-63 -598c-8.66699 -87.333 -55.667 -131 -141 -131
c-20 0 -32.667 1 -38 3zM124.002 658.002l10 99h74l-11 -99h-73z" />
    <glyph glyph-name="k" unicode="k" horiz-adv-x="400" 
d="M35 1l85 810h73l-54 -515l222 282h78l-169 -223l102 -355h-74l-88 314l-79 -95l-23 -218h-73z" />
    <glyph glyph-name="l" unicode="l" horiz-adv-x="202" 
d="M44 0l85 810h74l-85 -810h-74z" />
    <glyph glyph-name="m" unicode="m" horiz-adv-x="636" 
d="M34 0l59.998 578h73l-5 -59c46.667 45.333 95 68 145 68c45.333 0 71 -24.667 77 -74c48.667 49.333 99 74 151 74c28.667 0 49.667 -10.667 63 -32c10 -16 15 -37.333 15 -64c0 -8.66699 -0.666992 -17.667 -2 -27l-49 -464h-73l47 448
c0.666992 8.66699 1.33398 16.667 2.00098 24c0 16.667 -3 29.667 -9 39c-7.33301 12.667 -20.333 18.667 -39 18c-32 0 -67.333 -17.667 -106 -53c0 -4.66699 -0.333008 -10.667 -1 -18l-49 -458h-73l47 448c0.666992 8.66699 1.33398 16.667 2.00098 24
c0 16.667 -2.66699 29.667 -8 39c-8 12.667 -21.333 18.667 -40 18c-31.333 0 -66.333 -17.333 -105 -52l-50 -477h-73z" />
    <glyph glyph-name="n" unicode="n" horiz-adv-x="409" 
d="M34 0l59.998 578h73l-5 -60c46.667 46 95.334 69 146.001 69c28.667 0 49.667 -10.667 63 -32c10 -16 14.667 -37.333 14 -64c0 -8.66699 -0.333008 -17.667 -1 -27l-49 -464h-73l47 448c0.666992 8.66699 1 16.667 1 24c0 16.667 -2.66699 29.667 -8 39
c-7.33301 12.667 -20.666 18.667 -39.999 18c-32 0 -67 -17.667 -105 -53l-50 -476h-73z" />
    <glyph glyph-name="o" unicode="o" 
d="M182 46c12.667 0 23.668 1.6709 33.001 5.00391s17.333 8.66602 24 15.999s12.167 15.166 16.5 23.499s8 19.166 11 32.499s5.33301 25.833 7 37.5s3.5 26.5 5.5 44.5l18 168c2 18 3.33301 33 4 45c0 7.33301 0.333008 15.333 1 24v14c0 14 -1.5 24.833 -4.5 32.5
s-7 15.167 -12 22.5s-12 12.666 -21 15.999s-19.5 5 -31.5 5c-14.667 0 -27.334 -2.66699 -38.001 -8s-19.334 -12.166 -26.001 -20.499s-12.167 -19.833 -16.5 -34.5s-7.66602 -29 -9.99902 -43s-4.5 -31.667 -6.5 -53l-18 -168
c-2.66699 -31.333 -4.16699 -58.833 -4.5 -82.5s5 -42.334 16 -56.001s28.5 -20.5 52.5 -20.5zM176.001 -8.99609c-57.333 0 -95.332 17.666 -113.999 52.999c-13.333 25.333 -20 60.333 -20 105c0 18 1 38 3 60l17 160c4 36 9.66699 66.833 17 92.5
s17.833 48.334 31.5 68.001s31 34.167 52 43.5s46.5 14 76.5 14c57.333 0 95.666 -18 114.999 -54c13.333 -25.333 20 -60 20 -104c0 -18 -1.33301 -38 -4 -60l-16 -160c-4 -36.667 -9.83301 -67.834 -17.5 -93.501s-18.334 -48.167 -32.001 -67.5
s-31.167 -33.666 -52.5 -42.999s-46.666 -14 -75.999 -14z" />
    <glyph glyph-name="p" unicode="p" horiz-adv-x="417" 
d="M14 -190l81 767.999h73l-4 -48c34 38 72.667 57 116 57c18 0 33.833 -3 47.5 -9s24.5 -14.5 32.5 -25.5s14.5 -23.333 19.5 -37s8.16699 -29.5 9.5 -47.5c1.33301 -14 2 -27.667 2 -41v-13c-0.666992 -17.333 -2.33398 -36.666 -5.00098 -57.999l-12 -122
c-3.33301 -30.667 -7.5 -58 -12.5 -82s-12 -46.333 -21 -67s-19.333 -37.667 -31 -51s-26 -23.833 -43 -31.5s-36.167 -11.5 -57.5 -11.5c-37.333 0 -69.666 18.333 -96.999 55l-25 -236h-73zM204 48.999c30.667 0 52.666 14.333 65.999 43s23.333 75.667 30 141l13 123
c3.33301 31.333 5 58.666 5 81.999c0 4.66699 -0.333008 9.33398 -1 14.001c-0.666992 26 -6 45.333 -16 58s-26 19 -48 19c-29.333 0 -60.666 -14.667 -93.999 -44l-42 -394c24 -28 53 -42 87 -42z" />
    <glyph glyph-name="q" unicode="q" horiz-adv-x="414" 
d="M243 -190l24.999 232.001c-32 -33.333 -66.667 -50.333 -104 -51c-50.667 0 -84.667 18.667 -102 56c-12 24.667 -17.667 60 -17 106c0 24 1.66699 50.667 5 80l11 107c3.33301 32 7.5 60 12.5 84s11.5 46.667 19.5 68s17.833 38.666 29.5 51.999
s25.834 23.833 42.501 31.5s36 11.5 58 11.5c38 0 70.333 -16.667 97 -50l4 41h73l-81 -768h-73zM184.999 49.001c28.667 0 57.6689 13.002 87.002 39.002l42 400c-26 27.333 -53 41 -81 41c-30.667 0 -52.834 -12.833 -66.501 -38.5s-23.834 -67.834 -30.501 -126.501
l-14 -136c-2.66699 -28 -4 -53 -4 -75c0 -26.667 2.33301 -47.334 7 -62.001c8 -28 28 -42 60 -42z" />
    <glyph glyph-name="r" unicode="r" horiz-adv-x="297" 
d="M40 0l59.999 578h73l-7 -79c20.667 29.333 43.334 50.833 68.001 64.5s49.334 20.5 74.001 20.5h12l-8 -79c-10.667 4 -22.334 6 -35.001 6c-47.333 0 -86.333 -22.333 -117 -67l-47 -444h-73z" />
    <glyph glyph-name="s" unicode="s" horiz-adv-x="362" 
d="M165 -9c-45.333 0 -80.333 14.6689 -105 44.002c-23.333 28 -35 65.667 -35 113v7l63 19v-6c0 -40.667 6.66699 -71 20 -91c14 -20.667 36 -31 66 -31c25.333 0 46 7.5 62 22.5s25.333 35.167 28 60.5v9c0 35.333 -19.333 71 -58 107l-72 67
c-25.333 23.333 -43 45.666 -53 66.999c-8 16.667 -12 35.334 -12 56.001c0 7.33301 0.333008 14.666 1 21.999c5.33301 41.333 21.5 73.333 48.5 96s61.667 34 104 34s73.5 -13.667 93.5 -41c18 -24.667 27 -57 27 -97v-14l-54 -17c0 4.66699 0.333008 9.33398 1 14.001
c0 67.333 -23.667 100.666 -71 99.999c-22.667 0 -41.5 -6.33301 -56.5 -19s-23.5 -29.667 -25.5 -51c0 -4 -0.333008 -8 -1 -12c0 -13.333 2.33301 -25 7 -35c5.33301 -14 16 -28.667 32 -44l74 -73c13.333 -12.667 24.166 -23.834 32.499 -33.501s16.833 -21.5 25.5 -35.5
s14.667 -29.333 18 -46c2.66699 -11.333 4 -23 4 -35c0 -6 -0.333008 -12 -1 -18c-4.66699 -44 -21.667 -78.167 -51 -102.5s-66.666 -36.5 -111.999 -36.5z" />
    <glyph glyph-name="t" unicode="t" horiz-adv-x="279" 
d="M170 -7c-20.667 0 -37.666 3 -50.999 9s-23 14.667 -29 26s-10 24.666 -12 39.999c-0.666992 6.66699 -1 14 -1 22c0 10 0.666992 20 2 30l43 409h-70l5 49h70l19 179h73l-19 -179h96l-4 -49h-97l-42 -402c-0.666992 -10 -1.33398 -18.667 -2.00098 -26
c0 -15.333 2 -26.666 6 -33.999c5.33301 -11.333 18.333 -17 39 -17c13.333 0 27.333 1.33301 42 4l-6 -55c-22 -4 -42.667 -6 -62 -6z" />
    <glyph glyph-name="u" unicode="u" horiz-adv-x="411" 
d="M118 -9c-28.667 0 -49.666 10.667 -62.999 32c-10 16 -15 37.333 -15 64c0 8.66699 0.666992 18 2 28l48 463h74l-47 -448c-0.666992 -8.66699 -1.33398 -16.667 -2.00098 -24c0 -16.667 2.66699 -29.667 8 -39c8 -12.667 21.333 -18.667 40 -18
c33.333 0 69.333 19 108 57l50 472h73l-61 -578h-73l7 64c-47.333 -48.667 -97 -73 -149 -73z" />
    <glyph glyph-name="v" unicode="v" horiz-adv-x="367" 
d="M122 0l-66 578h74l43 -494l144 494h72l-181 -578h-86z" />
    <glyph glyph-name="w" unicode="w" horiz-adv-x="574" 
d="M104 0l-34 578h62l22 -483l141 483h63l42 -481l120 481h62l-154 -578h-69l-42 470l-140 -470h-73z" />
    <glyph glyph-name="x" unicode="x" horiz-adv-x="379" 
d="M-6 0l169 302l-102 276h73l77 -212l117 212h73l-164 -284l106 -294h-70l-83 228l-125 -228h-71z" />
    <glyph glyph-name="y" unicode="y" horiz-adv-x="380" 
d="M3 -144l5.99902 57.001c35.333 0 62 2.83301 80 8.5s30 13.5 36 23.5c5.33301 9.33301 8 23 8 41v3c-0.666992 11.333 -3.66699 38 -9 80l-66 509h73l49 -492l149 492h73l-205 -620c-12.667 -36.667 -32.667 -62.834 -60 -78.501s-65.666 -23.5 -114.999 -23.5h-19z" />
    <glyph glyph-name="z" unicode="z" horiz-adv-x="333" 
d="M10 0l6 51l246 471h-177l6 56h254l-5 -43l-246 -479h192l-6 -56h-270z" />
    <glyph glyph-name="braceleft" unicode="{" horiz-adv-x="257" 
d="M199 -165c-18 0 -32.999 0.333984 -44.999 1.00098s-23.167 2.66699 -33.5 6s-18.5 6.5 -24.5 9.5s-11 8.83301 -15 17.5s-6.83301 17 -8.5 25s-2.5 20.167 -2.5 36.5s0.666992 31.833 2 46.5s3.33301 34.667 6 60l14 129c3.33301 26.667 5 48.667 5 66
c0 6 -0.333008 12 -1 18c-1.33301 20 -5.5 33.333 -12.5 40s-18.833 10 -35.5 10l6 57c24 0 40.5 8.5 49.5 25.5s16.5 53.167 22.5 108.5l13 125c2 20 3.83301 36.333 5.5 49s3.66699 26 6 40s4.5 25 6.5 33s4.83301 16.5 8.5 25.5s7.33398 15.667 11.001 20
s8.66699 9 15 14s12.666 8.5 18.999 10.5s14.5 3.83301 24.5 5.5s20.167 2.66699 30.5 3s22.5 0.5 36.5 0.5l-6 -54c-26 0 -42.667 -3.33301 -50 -10c-10 -8 -17.333 -27.333 -22 -58c-2 -13.333 -5.33301 -39.666 -10 -78.999v0l-15 -140
c-4.66699 -48.667 -12.834 -83.834 -24.501 -105.501s-28.167 -35.5 -49.5 -41.5c14 -4 24.5 -11.167 31.5 -21.5s11.833 -25.5 14.5 -45.5c0.666992 -8 1 -17 1 -27c0 -15.333 -1.33301 -33 -4 -53l-15 -145c-5.33301 -36.667 -8 -65.334 -8 -86.001
c0 -4.66699 0.333008 -9 1 -13c1.33301 -22 5.5 -35.5 12.5 -40.5s22.5 -7.5 46.5 -7.5z" />
    <glyph glyph-name="bar" unicode="|" horiz-adv-x="217" 
d="M37 -144l101 954h68l-101 -954h-68z" />
    <glyph glyph-name="braceright" unicode="}" horiz-adv-x="269" 
d="M-8 -165l6.00098 54.999c25.333 0 42 3 50 9c10 8 17.333 27 22 57c2 14 5.33301 41 10 81v0l15 145c3.33301 33.333 8.33301 60 15 80s14.667 35.167 24 45.5s21.333 17.5 36 21.5c-20.667 6 -34.334 19.667 -41.001 41c-4 12.667 -6 30 -6 52c0 15.333 1 33.333 3 54
l15 140c5.33301 36 8 64.333 8 85v14c-1.33301 21.333 -5.66602 34.666 -12.999 39.999s-23 8 -47 8l6 54c18 0 33 -0.333008 45 -1s23.167 -2.5 33.5 -5.5s18.5 -6.16699 24.5 -9.5s11 -9.33301 15 -18s6.83301 -17 8.5 -25s2.5 -20 2.5 -36s-0.666992 -31.333 -2 -46
s-3.33301 -34.667 -6 -60l-13 -125c-3.33301 -27.333 -5.33301 -49.666 -6 -66.999c0 -6 0.333008 -11.333 1 -16c1.33301 -20 5.66602 -33.5 12.999 -40.5s19.333 -10.5 36 -10.5l-6 -57c-16.667 0 -29.5 -3.66699 -38.5 -11s-16 -20.166 -21 -38.499
s-9.5 -46.5 -13.5 -84.5l-13 -129c-2.66699 -25.333 -4.83398 -45.333 -6.50098 -60s-4.16699 -30.167 -7.5 -46.5s-6.66602 -28.5 -9.99902 -36.5s-8 -16.333 -14 -25s-12.333 -14.5 -19 -17.5s-15.5 -6.16699 -26.5 -9.5s-22.5 -5.33301 -34.5 -6s-27 -1 -45 -1z" />
    <glyph glyph-name="asciitilde" unicode="~" horiz-adv-x="406" 
d="M289 375c-12 0 -26.502 4.50195 -43.502 13.502s-33.667 18.167 -50 27.5s-29.166 14 -38.499 14c-16 0 -40.333 -13.333 -73 -40l-23 34c18 18 36.833 33 56.5 45s36.5 18 50.5 18c12 0 26.333 -4.5 43 -13.5s33 -18 49 -27s29 -13.5 39 -13.5
c6 0 12.833 1.66699 20.5 5s14.5 7.16602 20.5 11.499s15.667 11.166 29 20.499l23 -34c-43.333 -40.667 -77.666 -61 -102.999 -61z" />
    <glyph glyph-name="uni00A0" unicode="&#xa0;" horiz-adv-x="215" 
 />
    <glyph glyph-name="exclamdown" unicode="&#xa1;" horiz-adv-x="201" 
d="M19 -193l93 635h27l-42 -635h-78zM96 529l9 87h78l-9 -87h-78z" />
    <glyph glyph-name="cent" unicode="&#xa2;" horiz-adv-x="382" 
d="M141 -100l9.99609 91.9941c-26.667 2.66699 -48.167 10.5 -64.5 23.5s-27.666 29.333 -33.999 49s-10.166 42.834 -11.499 69.501v17c0 21.333 1.66699 44 5 68l15 135c8 78.667 23.333 136 46 172s59.334 56 110.001 60l9 90h30l-9 -89c28 -0.666992 51 -5.66699 69 -15
s30.833 -22.166 38.5 -38.499s12.5 -35.5 14.5 -57.5c0.666992 -8 1.33398 -16.667 2.00098 -26c0 -15.333 -1.33301 -31.333 -4 -48l-3 -27h-67l3 27c1.33301 16.667 2 31.334 2 44.001c0 26.667 -3.33301 46 -10 58c-10 18.667 -29.333 28 -58 28
c-33.333 0 -56.5 -11.833 -69.5 -35.5s-22.833 -67.167 -29.5 -130.5l-17 -162c-2.66699 -24 -4 -45 -4 -63c0 -26.667 2.66699 -46.667 8 -60c9.33301 -23.333 30 -35 62 -35c16.667 0 30.5 2.66699 41.5 8s20 14.333 27 27s12.167 26.834 15.5 42.501s6.33301 36.5 9 62.5
l3 31h68l-3 -28c-2.66699 -25.333 -6 -47.166 -10 -65.499s-10 -36.166 -18 -53.499s-17.833 -31.333 -29.5 -42s-26.5 -19.5 -44.5 -26.5s-38.667 -10.5 -62 -10.5l-10 -91h-30z" />
    <glyph glyph-name="sterling" unicode="&#xa3;" horiz-adv-x="375" 
d="M-12 0l4 36.999l63 17l34 324h-61l6 55h61l12 114c2.66699 24.667 5.33398 46.167 8.00098 64.5s6.33398 37.5 11.001 57.5s10 37 16 51s13.667 27.5 23 40.5s19.666 23.5 30.999 31.5s25 14.333 41 19s34 7 54 7c25.333 0 46 -4.16699 62 -12.5s27.667 -19.833 35 -34.5
s12.333 -32 15 -52c0.666992 -9.33301 1.33398 -19 2.00098 -29c0 -12 -1 -24.333 -3 -37l-2 -25h-56c2 21.333 3 40 3 56v15c-0.666992 19.333 -6.16699 34.333 -16.5 45s-25.833 16 -46.5 16c-12.667 0 -23.667 -1.83301 -33 -5.5s-17.333 -9.5 -24 -17.5
s-12.334 -16.5 -17.001 -25.5s-8.66699 -21 -12 -36s-5.83301 -28.667 -7.5 -41s-3.83398 -28.166 -6.50098 -47.499l-16 -154h133l-6 -55h-133l-34 -324h210l-6 -54h-344z" />
    <glyph glyph-name="currency" unicode="&#xa4;" horiz-adv-x="526" 
d="M40 186l-14.002 15l88 79c-27.333 34 -40.666 73.333 -39.999 118c0 8 0.333008 16.333 1 25c6 55.333 29.333 103 70 143l-72 79l16 15l71 -79c44 37.333 93.333 56 148 56h1.5h1.5c55.333 0 100.333 -18.667 135 -56l88 79l13 -15l-88 -79
c26.667 -34 40.334 -73.333 41.001 -118c0 -8.66699 -0.666992 -17 -2 -25c-6 -55.333 -29 -103 -69 -143l71 -79l-16 -15l-71 79c-43.333 -37.333 -92.333 -56 -147 -56h-1.5h-1.5c-54.667 0 -100 18.667 -136 56zM267.498 243c49 0 92.168 17.5 129.501 52.5
s58.666 77.5 63.999 127.5c0.666992 8 1 15.333 1 22c0 40.667 -12.667 75.667 -38 105c-30 35.333 -69.667 53 -119 53s-92.5 -17.5 -129.5 -52.5s-58.167 -77.5 -63.5 -127.5c-0.666992 -8 -1 -15.667 -1 -23c0 -40 12.667 -74.667 38 -104c30 -35.333 69.5 -53 118.5 -53
z" />
    <glyph glyph-name="yen" unicode="&#xa5;" horiz-adv-x="434" 
d="M166 0l11 110h-100l6 49h99l9 90h-99l5 48h90l-119 513h75l98 -450l187 450h75l-223 -513h89l-5 -48h-98l-10 -90h98l-4 -49h-99l-11 -110h-74z" />
    <glyph glyph-name="brokenbar" unicode="&#xa6;" horiz-adv-x="202" 
d="M31 -170l43 415h62l-44 -415h-61zM90 395l43 415h62l-44 -415h-61z" />
    <glyph glyph-name="section" unicode="&#xa7;" horiz-adv-x="400" 
d="M180 -9c-22 0 -41.8311 4.16602 -59.498 12.499s-32 20 -43 35s-19.833 31.333 -26.5 49s-11.334 37.167 -14.001 58.5l57 18c2 -14.667 5.5 -28.5 10.5 -41.5s11.167 -25 18.5 -36s16.5 -19.833 27.5 -26.5s23.167 -10 36.5 -10c24.667 0 45.167 6.66699 61.5 20
s26.166 31.666 29.499 54.999c0.666992 4.66699 1 9.33398 1 14.001c0 12.667 -2.66699 25 -8 37c-7.33301 16.667 -24.333 39.667 -51 69l-102 91c-36 30.667 -54.333 65 -55 103c0 4 0.333008 8.33301 1 13c3.33301 29.333 14.333 54.166 33 74.499
s41.334 35.166 68.001 44.499c-40.667 37.333 -61 74 -61 110v10c4 38 20.667 68.667 50 92s66.333 35 111 35c73.333 0 118.666 -48.333 135.999 -145l-59 -18c-2 10.667 -4.16699 19.834 -6.5 27.501s-6 16.5 -11 26.5s-10.167 18.333 -15.5 25s-12.5 12.334 -21.5 17.001
s-18.833 7 -29.5 7c-22 0 -40.5 -6.33301 -55.5 -19s-23.833 -30.667 -26.5 -54v-6c0 -24.667 15.333 -51.667 46 -81l104 -86c23.333 -20.667 40 -42.667 50 -66c7.33301 -16 11 -33.333 11 -52c0 -9.33301 -1 -19 -3 -29c-8 -50 -38 -88 -90 -114
c8.66699 -10 15.667 -18.333 21 -25s11 -15.167 17 -25.5s10 -21.5 12 -33.5c1.33301 -7.33301 2 -14.666 2 -21.999v-14c-4 -43.333 -21.167 -77.5 -51.5 -102.5s-68.5 -37.5 -114.5 -37.5zM252.002 291.999c16 6.66699 30.5 16.334 43.5 29.001s21.167 27.334 24.5 44.001
c1.33301 6 2 12 2 18c0 29.333 -15 57.666 -45 84.999l-71 64c-18.667 -6.66699 -34.5 -16.834 -47.5 -30.501s-20.5 -30.167 -22.5 -49.5c0 -2 -0.333008 -4.33301 -1 -7c0 -20 9.33301 -39.333 28 -58z" />
    <glyph glyph-name="dieresis" unicode="&#xa8;" horiz-adv-x="382" 
d="M122 721l9 89h76l-10 -89h-75zM286 721l9 89h76l-10 -89h-75z" />
    <glyph glyph-name="copyright" unicode="&#xa9;" horiz-adv-x="861" 
d="M414 122c-36 0 -65.167 5.83789 -87.5 17.5049s-37.833 28.167 -46.5 49.5s-14 46.666 -16 75.999c0 8 -0.333008 16 -1 24c0 22.667 2 47 6 73l11 114c4 36 9 66.667 15 92s13.833 48.166 23.5 68.499s21.667 36.5 36 48.5s31.5 21 51.5 27s43.667 9 71 9
c33.333 0 60.5 -4.33301 81.5 -13s36.167 -21.167 45.5 -37.5s15 -36.5 17 -60.5c0.666992 -8.66699 1.33398 -17.667 2.00098 -27c0 -16.667 -1.33301 -34.334 -4 -53.001l-3 -27h-72l3 27c2 17.333 3 32.666 3 45.999c0 14.667 -1 27 -3 37
c-4.66699 19.333 -12.667 32.666 -24 39.999s-28.333 11 -51 11c-37.333 0 -63.5 -12.333 -78.5 -37s-26.167 -71 -33.5 -139l-15 -142c-2.66699 -24 -4 -45 -4 -63c0 -30 3.66699 -52.667 11 -68c10.667 -24 34 -36 70 -36c36.667 0 61.667 10.167 75 30.5
s22.666 57.5 27.999 111.5l3 29h72l-3 -25c-2.66699 -27.333 -6.16699 -50.5 -10.5 -69.5s-10.833 -37.5 -19.5 -55.5s-19.334 -32.333 -32.001 -43s-29.167 -19.167 -49.5 -25.5s-44.166 -9.5 -71.499 -9.5zM413 24.0049c48.667 0 94 7.33301 136 22
s78.167 34.334 108.5 59.001s56.833 53.667 79.5 87s40.334 68.5 53.001 105.5s21 75.5 25 115.5c2 18.667 3 36.667 3 54c0 20.667 -1.33301 41 -4 61c-4.66699 36.667 -14.834 71.667 -30.501 105s-36 62.166 -61 86.499s-57 43.666 -96 57.999s-83 21.5 -132 21.5
s-94.5 -7.16699 -136.5 -21.5s-78 -33.666 -108 -57.999s-56.333 -53.166 -79 -86.499s-40.334 -68.333 -53.001 -105s-21 -75 -25 -115c-2 -18.667 -3 -37 -3 -55c0 -20.667 1.33301 -41 4 -61c4.66699 -36.667 14.834 -71.667 30.501 -105s36 -62.333 61 -87
s57 -44.334 96 -59.001s82.833 -22 131.5 -22zM408 -10.9951c-34.667 0 -67.3301 3.33008 -97.9971 9.99707s-57.834 15.834 -81.501 27.501s-45.334 25.834 -65.001 42.501s-36.167 35 -49.5 55s-25 41.5 -35 64.5s-17.167 46.833 -21.5 71.5s-7.5 49.667 -9.5 75
c0 8.66699 -0.333008 17.334 -1 26.001c0 16.667 1.33301 33.667 4 51c4 42 12.833 82.667 26.5 122s32.834 77.333 57.501 114s53.667 68.667 87 96s73.666 49.166 120.999 65.499s98.666 24.5 153.999 24.5s104.833 -8.16699 148.5 -24.5s79.167 -38.166 106.5 -65.499
s49.666 -59.333 66.999 -96s28.666 -74.667 33.999 -114c2.66699 -22 4 -44.333 4 -67c0 -18 -1 -36.333 -3 -55c-4.66699 -42 -13.667 -82.833 -27 -122.5s-32.333 -77.834 -57 -114.501s-53.667 -68.667 -87 -96s-73.666 -49.166 -120.999 -65.499
s-98.666 -24.5 -153.999 -24.5z" />
    <glyph glyph-name="ordfeminine" unicode="&#xaa;" horiz-adv-x="411" 
d="M188 340c-30 0 -53.3311 9.33105 -69.998 27.998c-14 16 -21 36 -21 60c0 4.66699 0.333008 9.66699 1 15c1.33301 13.333 4 25.166 8 35.499s8.5 19.833 13.5 28.5s12.833 16.834 23.5 24.501s20.667 14.667 30 21s22.666 13.333 39.999 21s33.166 14.334 47.499 20.001
s34.166 13.167 59.499 22.5l4 43c1.33301 14.667 2.33301 28 3 40c0 19.333 -2.33301 34.333 -7 45c-7.33301 16.667 -21.666 25.334 -42.999 26.001c-21.333 0 -39 -7.33301 -53 -22s-22.667 -37.334 -26 -68.001l-60 1c5.33301 44.667 20.5 79.167 45.5 103.5
s58.167 36.5 99.5 36.5c46 0 76.667 -14 92 -42c10 -19.333 15 -46.666 15 -81.999c0 -15.333 -1 -32.333 -3 -51l-31 -299h-58l4 60c-11.333 -20 -27.333 -36.167 -48 -48.5s-42.667 -18.5 -66 -18.5zM213.002 393.998c18 0 34.835 5.33691 50.502 16.0039
s28.834 24.667 39.501 42l13 131c-18.667 -8.66699 -32.334 -14.834 -41.001 -18.501s-19.5 -8.83398 -32.5 -15.501s-22.333 -12.167 -28 -16.5s-12.334 -9.5 -20.001 -15.5s-13.167 -11.833 -16.5 -17.5s-6.33301 -12.334 -9 -20.001s-4.33398 -15.834 -5.00098 -24.501
c0 -4 -0.333008 -8 -1 -12c0 -15.333 4 -27 12 -35c9.33301 -9.33301 22 -14 38 -14z" />
    <glyph glyph-name="guillemotleft" unicode="&#xab;" horiz-adv-x="426" 
d="M190 86l-143 216l3 32l189 216l-10 -93l-120 -138l91 -140zM354 86l-144 216l3 32l190 216l-10 -93l-120 -139l91 -139z" />
    <glyph glyph-name="logicalnot" unicode="&#xac;" horiz-adv-x="363" 
d="M297 274l12 112h-249l5 58h294l-17 -170h-45z" />
    <glyph glyph-name="uni00AD" unicode="&#xad;" horiz-adv-x="333" 
d="M75 370l5 57h224l-6 -57h-223z" />
    <glyph glyph-name="registered" unicode="&#xae;" horiz-adv-x="876" 
d="M290 123l61.001 579h164c89.333 0 133.666 -41.667 132.999 -125c0 -9.33301 -0.333008 -19 -1 -29c-3.33301 -36 -14 -66.333 -32 -91s-43.333 -41 -76 -49l71 -285h-68l-64 273h-95l-29 -273h-64zM387.001 436h81.999c39.333 0 66.833 9 82.5 27s25.5 46.667 29.5 86
c0.666992 9.33301 1.33398 18 2.00098 26c0 23.333 -4.33301 41.333 -13 54c-11.333 17.333 -33.333 26.333 -66 27h-93zM419 27c47.333 0 91.668 7 133.001 21s76.833 33.167 106.5 57.5s55.667 52.833 78 85.5s39.666 67.334 51.999 104.001s20.5 74.334 24.5 113.001
c2 18 3 36 3 54c0 20.667 -1.33301 40.667 -4 60c-4.66699 36.667 -14.667 71.167 -30 103.5s-35.333 60.666 -60 84.999s-56 43.5 -94 57.5s-81 21 -129 21s-92.5 -7 -133.5 -21s-76.5 -33.167 -106.5 -57.5s-56 -52.666 -78 -84.999s-39.167 -66.833 -51.5 -103.5
s-20.833 -74.667 -25.5 -114c-2 -18 -2.66699 -36 -2 -54c0 -20.667 1 -40.334 3 -59.001c4.66699 -36.667 14.834 -71.334 30.501 -104.001s35.667 -61.167 60 -85.5s55.666 -43.5 93.999 -57.5s81.5 -21 129.5 -21zM415.502 -12c-55 0 -104.334 8.16504 -148.001 24.498
s-79.167 38 -106.5 65s-49.5 58.833 -66.5 95.5s-28.167 74.667 -33.5 114c-2.66699 22 -4 44 -4 66c0 18 1 36.333 3 55c4 41.333 12.667 81.833 26 121.5s32.333 77.667 57 114s53.667 68 87 95s73.5 48.667 120.5 65s98 24.5 153 24.5s104.333 -8.16699 148 -24.5
s79.167 -38 106.5 -65s49.5 -58.667 66.5 -95s27.833 -74.166 32.5 -113.499c2.66699 -22 4.33398 -44.333 5.00098 -67c0 -18 -1 -36.333 -3 -55c-4.66699 -41.333 -13.667 -81.666 -27 -120.999s-32.333 -77.333 -57 -114s-53.5 -68.5 -86.5 -95.5s-73 -48.667 -120 -65
s-98 -24.5 -153 -24.5z" />
    <glyph glyph-name="macron" unicode="&#xaf;" horiz-adv-x="343" 
d="M145 763l5 47h179l-5 -47h-179z" />
    <glyph glyph-name="degree" unicode="&#xb0;" horiz-adv-x="413" 
d="M245 574c26 0 48.335 8.49805 67.002 25.498s29.667 40.833 33 71.5c0.666992 6 1 11.667 1 17c0 23.333 -6.33301 42 -19 56c-14.667 16.667 -35.334 25 -62.001 25c-26 0 -48.333 -8.33301 -67 -25s-29.334 -41 -32.001 -73c-0.666992 -5.33301 -1 -10.666 -1 -15.999
c0 -23.333 6.33301 -41.666 19 -54.999c14.667 -17.333 35 -26 61 -26zM240.002 523.998c-42.667 0 -76.332 12.668 -100.999 38.001c-20.667 21.333 -31.334 50.333 -32.001 87c0 7.33301 0.333008 15 1 23c4.66699 47.333 22.334 83.5 53.001 108.5
s67.167 37.5 109.5 37.5s76.166 -12.667 101.499 -38c20.667 -20.667 31 -49.334 31 -86.001c0 -6.66699 -0.333008 -14 -1 -22c-4.66699 -47.333 -22.167 -83.833 -52.5 -109.5s-66.833 -38.5 -109.5 -38.5z" />
    <glyph glyph-name="plusminus" unicode="&#xb1;" horiz-adv-x="339" 
d="M139 180l9 90h-90l6 61h91l9 89h62l-9 -89h90l-7 -61h-90l-9 -90h-62zM30 0l6 61h242l-6 -61h-242z" />
    <glyph glyph-name="twosuperior" unicode="&#xb2;" horiz-adv-x="396" 
d="M92 354l5 48.0029l155 202c2.66699 3.33301 9 11.333 19 24s16.5 21.5 19.5 26.5s7.5 12.667 13.5 23s10.5 20.166 13.5 29.499s4.83301 19.333 5.5 30c0.666992 6 1 12 1 18c0 18.667 -3.66699 33.334 -11 44.001c-9.33301 13.333 -24.333 19.666 -45 18.999h-3
c-26 -0.666992 -45.333 -9.16699 -58 -25.5s-20.667 -43.5 -24 -81.5h-54l1 15c10 95.333 57 143 141 143c38.667 0 67.667 -11.333 87 -34c16 -18 24.333 -42.667 25 -74c0 -6.66699 -0.333008 -13.667 -1 -21c-2 -19.333 -7.33301 -38.833 -16 -58.5
s-17.667 -36.334 -27 -50.001s-23 -31.834 -41 -54.501l-135 -174h167l-5 -49h-233z" />
    <glyph glyph-name="threesuperior" unicode="&#xb3;" 
d="M208 347c-40.667 0 -69.3359 11.665 -86.0029 34.998c-12.667 18 -19 41.333 -19 70c0 8 0.333008 16.333 1 25l1 10h59l-1 -12c-0.666992 -6.66699 -1 -13 -1 -19c0 -16.667 3 -30 9 -40c8 -13.333 23 -20 45 -20c45.333 0 71.333 32 78 96c0.666992 8.66699 1 17 1 25
c0 20.667 -3.33301 37.334 -10 50.001c-9.33301 17.333 -24.666 26.333 -45.999 27h-35l5 43h35c22 0 38.833 8 50.5 24s19.167 42 22.5 78c0.666992 6 1 12 1 18c0 42 -17.333 63 -52 63c-23.333 0 -40.666 -6 -51.999 -18s-18.333 -30.667 -21 -56l-1 -14h-59l1 14
c4 38.667 17.333 68.834 40 90.501s55 32.5 97 32.5c38.667 0 66.334 -11.667 83.001 -35c14 -18.667 21.333 -42.667 22 -72c0 -6.66699 -0.333008 -13.667 -1 -21c-4 -36 -13.167 -64.5 -27.5 -85.5s-30.5 -33.5 -48.5 -37.5c8 -3.33301 15.167 -7.33301 21.5 -12
s12.5 -11.5 18.5 -20.5s10.333 -21.167 13 -36.5c1.33301 -7.33301 2 -15.666 2 -24.999s-0.666992 -19.333 -2 -30c-4.66699 -44.667 -19.167 -80.334 -43.5 -107.001s-57.833 -40 -100.5 -40z" />
    <glyph glyph-name="acute" unicode="&#xb4;" horiz-adv-x="232" 
d="M90 614l83 196h74l-119 -196h-38z" />
    <glyph glyph-name="mu" unicode="&#xb5;" horiz-adv-x="420" 
d="M12 -173l78.001 750.999h74l-47 -448c-0.666992 -8.66699 -1.33398 -16.667 -2.00098 -24c0 -16.667 2.66699 -29.667 8 -39c8 -12.667 21.333 -18.667 40 -18c33.333 0 69.333 19 108 57l50 472h73l-61 -578h-73l7 64c-39.333 -41.333 -81.333 -64.666 -126 -69.999h-4
c-14 0 -25 3.33301 -33 10l-19 -177h-73z" />
    <glyph glyph-name="paragraph" unicode="&#xb6;" horiz-adv-x="484" 
d="M168 -95l66 625h-2c-52 0 -92 11.667 -120 35c-24 20.667 -36 48.667 -36 84c0 6 0.333008 12.333 1 19c4.66699 44.667 23.167 79.5 55.5 104.5s77.833 37.5 136.5 37.5h208l-95 -905h-53l90 864h-106l-91 -864h-54z" />
    <glyph glyph-name="periodcentered" unicode="&#xb7;" horiz-adv-x="187" 
d="M78 333l8 88h75l-9 -88h-74z" />
    <glyph glyph-name="cedilla" unicode="&#xb8;" horiz-adv-x="225" 
d="M-16 -200l3.99902 38c13.333 -1.33301 25.333 -2.33301 36 -3c40 0 62 12 66 36c0.666992 3.33301 1 6.33301 1 9c0 12 -5 21.667 -15 29c-12.667 9.33301 -30.667 16.333 -54 21l7 70h39l-6 -51c26.667 -4 48 -13.333 64 -28c13.333 -12.667 20 -27.667 20 -45v-7
c-3.33301 -29.333 -19.666 -50 -48.999 -62c-17.333 -7.33301 -38 -11.333 -62 -12c-16 0 -33 1.66699 -51 5z" />
    <glyph glyph-name="onesuperior" unicode="&#xb9;" horiz-adv-x="390" 
d="M204 354l45.998 444.001c-9.33301 -11.333 -23.166 -21.5 -41.499 -30.5s-35.166 -14.833 -50.499 -17.5l5 44c44.667 17.333 78.667 40.666 102 69.999h50l-53 -510h-58z" />
    <glyph glyph-name="ordmasculine" unicode="&#xba;" horiz-adv-x="411" 
d="M224 390c30.667 0 52.498 9.83398 65.498 29.501s21.5 48.167 25.5 85.5l16 150c1.33301 11.333 2 22.333 2 33v13c-0.666992 14 -3.16699 26.167 -7.5 36.5s-11.666 18.5 -21.999 24.5s-23.666 9 -39.999 9s-30.166 -3 -41.499 -9s-20.333 -14.5 -27 -25.5
s-11.834 -22.833 -15.501 -35.5s-6.5 -28 -8.5 -46l-15 -150c-1.33301 -10.667 -2.33301 -21 -3 -31c0 -4.66699 0.333008 -9.33398 1 -14.001c0.666992 -14 3.16699 -26.167 7.5 -36.5s11.833 -18.5 22.5 -24.5s24 -9 40 -9zM218.998 339.001
c-26.667 0 -49.001 3.83301 -67.001 11.5s-31.167 18.5 -39.5 32.5s-14.166 31 -17.499 51c-1.33301 9.33301 -2 19.333 -2 30c0 12 1 24 3 36l16 160c5.33301 52 20.166 91.833 44.499 119.5s62.166 41.5 113.499 41.5c83.333 0 125.333 -42.333 126 -127
c0 -10.667 -0.666992 -22 -2 -34l-17 -160c-5.33301 -51.333 -20.166 -91 -44.499 -119s-62.166 -42 -113.499 -42z" />
    <glyph glyph-name="guillemotright" unicode="&#xbb;" horiz-adv-x="439" 
d="M42 86l9 93l125 139l-96 139l10 93l149 -216l-3 -33zM205 86l10 93l124 138l-95 140l9 93l149 -216l-3 -33z" />
    <glyph glyph-name="onequarter" unicode="&#xbc;" horiz-adv-x="772" 
d="M586 -4l15 136h-152l4 42l188 317h57l-33 -316h61l-4 -43h-62l-14 -136h-60zM137 326l41 395.001l-72 -26l5 45c18.667 9.33301 38.5 20.666 59.5 33.999s36.5 25.333 46.5 36h28l-51 -484h-57zM172 0.000976562l364 810h64l-364 -810h-64zM503 175.001h102l24 229z" />
    <glyph glyph-name="onehalf" unicode="&#xbd;" horiz-adv-x="772" 
d="M472 0l5 43.002l127 158c2 2.66699 8 10 18 22s16.5 20.167 19.5 24.5s7.5 11.5 13.5 21.5s10.333 19.667 13 29s4.66699 19 6 29c0.666992 7.33301 1 14 1 20c0 15.333 -2.33301 27.666 -7 36.999c-6.66699 13.333 -19.667 19.666 -39 18.999
c-22 0 -37.667 -6.83301 -47 -20.5s-15.666 -34.5 -18.999 -62.5h-57c0 0.666992 0.166992 2 0.5 4s0.5 3.33301 0.5 4c9.33301 79.333 51.666 119 126.999 119c35.333 0 62 -10.333 80 -31c14 -16.667 21 -39.334 21 -68.001c0 -6 -0.333008 -12.333 -1 -19
c-2.66699 -26.667 -11.5 -52.167 -26.5 -76.5s-36.167 -52.166 -63.5 -83.499c-10.667 -11.333 -45.667 -53.333 -105 -126h157l-5 -43h-219zM141 326.002l41.999 394.998l-72 -26l5 45c18.667 8.66699 38.334 19.834 59.001 33.501s36 25.834 46 36.501h29l-51 -484h-58z
M173.999 0l365 810h63l-364 -810h-64z" />
    <glyph glyph-name="threequarters" unicode="&#xbe;" horiz-adv-x="772" 
d="M163 365c-35.333 0 -61.334 10.002 -78.001 30.002c-13.333 16 -20 37.333 -20 64c0 6 0.333008 12.333 1 19l60 -1c-0.666992 -6 -1 -11.667 -1 -17c0 -14 2.33301 -25.333 7 -34c6 -12 18.333 -18 37 -18c36.667 0 57.667 27.333 63 82c0.666992 6.66699 1 12.667 1 18
c0 42.667 -18.667 64 -56 64l5 44c22 0 38.5 6.33301 49.5 19s17.833 34 20.5 64c0.666992 7.33301 1 13.666 1 18.999c0 35.333 -13.667 53 -41 53c-20 0 -34.5 -5.66699 -43.5 -17s-14.833 -28 -17.5 -50l-60 -1c4 35.333 16.5 62.833 37.5 82.5s50.167 29.5 87.5 29.5
c35.333 0 61 -10.667 77 -32c13.333 -16.667 20 -38.334 20 -65.001c0 -6 -0.333008 -12.333 -1 -19c-3.33301 -32 -13 -56.833 -29 -74.5s-35 -27.5 -57 -29.5c44.667 -7.33301 67 -35.666 67 -84.999c0 -6.66699 -0.333008 -13.334 -1 -20.001
c-4 -38.667 -17.167 -69.167 -39.5 -91.5s-52.166 -33.5 -89.499 -33.5zM601.999 -3.99805l14 136h-152l5 42l188 317h55l-33 -316h62l-5 -43h-61l-15 -136h-58zM190.999 0.00195312l365 810h63l-364 -810h-64zM518.999 175.002h102l24 229z" />
    <glyph glyph-name="questiondown" unicode="&#xbf;" horiz-adv-x="460" 
d="M177 -208c-57.333 0 -101.664 18.3311 -132.997 54.998c-25.333 29.333 -38 69.333 -38 120c0 12 0.666992 24 2 36c3.33301 32 10.666 62 21.999 90s27.166 54.333 47.499 79s42.166 47.334 65.499 68.001s52 43.334 86 68.001l11 103h65l-13 -123
c-66.667 -44.667 -117.334 -90 -152.001 -136s-55 -96 -61 -150c-0.666992 -9.33301 -1 -18 -1 -26c0 -34 8.33301 -61.333 25 -82c20 -25.333 47.333 -38 82 -38c38 0 67.667 10.667 89 32c18.667 18 28 41.667 28 71c0 5.33301 -0.333008 11 -1 17l-3 36l69 14l4 -36
c0.666992 -9.33301 1.33398 -18.333 2.00098 -27c0 -30 -6.33301 -56.667 -19 -80c-16.667 -30.667 -40.5 -53.5 -71.5 -68.5s-66.167 -22.5 -105.5 -22.5zM247.002 524.998l9 87h73l-10 -87h-72z" />
    <glyph glyph-name="Agrave" unicode="&#xc0;" horiz-adv-x="477" 
d="M289 878l-71 196h74l35 -196h-38zM5 0l256 810h80l87 -810h-74l-18 216h-193l-64 -216h-74zM160 272h172l-41 436z" />
    <glyph glyph-name="Aacute" unicode="&#xc1;" horiz-adv-x="477" 
d="M290 878l83 196h73l-118 -196h-38zM5 0l256 810h80l87 -810h-74l-18 216h-193l-64 -216h-74zM160 272h172l-41 436z" />
    <glyph glyph-name="Acircumflex" unicode="&#xc2;" horiz-adv-x="477" 
d="M182 878l105 178h82l66 -178h-53l-58 141l-88 -141h-54zM5 0l256 810h80l87 -810h-74l-18 216h-193l-64 -216h-74zM160 272h172l-41 436z" />
    <glyph glyph-name="Atilde" unicode="&#xc3;" horiz-adv-x="477" 
d="M360 878c-14 0.666992 -32.167 8.49609 -54.5 23.4961s-37.166 22.833 -44.499 23.5c-10 1.33301 -18.167 -1.16699 -24.5 -7.5s-10.166 -16.833 -11.499 -31.5h-46c0.666992 7.33301 2.16699 14.833 4.5 22.5s5.66602 15.834 9.99902 24.501s9.66602 16.167 15.999 22.5
s14.5 11.166 24.5 14.499c7.33301 2.66699 15.333 3.66699 24 3h10c10.667 -0.666992 22.5 -4.66699 35.5 -12s25.167 -14.666 36.5 -21.999s20.333 -11.333 27 -12c10.667 -1.33301 19 1.33398 25 8.00098s10 18.334 12 35.001h44
c-1.33301 -11.333 -3.33301 -21.833 -6 -31.5s-7.16699 -19.667 -13.5 -30s-15.5 -18.166 -27.5 -23.499c-9.33301 -4.66699 -20 -7 -32 -7h-9zM5 -0.00390625l256 810h80l87 -810h-74l-18 216h-193l-64 -216h-74zM160 271.996h172l-41 436z" />
    <glyph glyph-name="Adieresis" unicode="&#xc4;" horiz-adv-x="477" 
d="M189 878l9 89h75l-10 -89h-74zM353 878l9 89h75l-9 -89h-75zM5 0l256 810h80l87 -810h-74l-18 216h-193l-64 -216h-74zM160 272h172l-41 436z" />
    <glyph glyph-name="Aring" unicode="&#xc5;" horiz-adv-x="477" 
d="M307 852c16 0 29.5 4.66602 40.5 13.999s17.5 23.333 19.5 42v9c0 14 -3.66699 25 -11 33c-9.33301 9.33301 -22 13.833 -38 13.5s-29.5 -5.16602 -40.5 -14.499s-17.5 -23 -19.5 -41v-10c0 -14 3.66699 -24.667 11 -32c9.33301 -9.33301 22 -14 38 -14zM302.5 811.999
c-27 0 -48.833 8.33398 -65.5 25.001c-14 14 -21 32.667 -21 56c0 4.66699 0.333008 9.66699 1 15c2.66699 30 14 53.167 34 69.5s43.667 24.5 71 24.5s49.333 -8.33301 66 -25c14 -14 21 -32.333 21 -55c0 -4.66699 -0.333008 -9.33398 -1 -14.001
c-2.66699 -30 -14.167 -53.5 -34.5 -70.5s-44 -25.5 -71 -25.5zM5 0l256 810h80l87 -810h-74l-18 216h-193l-64 -216h-74zM160 272h172l-41 436z" />
    <glyph glyph-name="AE" unicode="&#xc6;" horiz-adv-x="635" 
d="M-51 0l410 810h304l-7 -58h-220l-31 -304h158l-6 -55h-159l-34 -335h220l-6 -58h-293l23 217h-175l-111 -217h-73zM160 274h153l43 412z" />
    <glyph glyph-name="Ccedilla" unicode="&#xc7;" horiz-adv-x="498" 
d="M160 -200l3.99902 38c13.333 -1.33301 25.333 -2.33301 36 -3c40 0 62 12 66 36c0.666992 3.33301 1 6.33301 1 9c0 12 -5 21.667 -15 29c-12.667 9.33301 -30.667 16.333 -54 21l7 70h39l-6 -51c26.667 -4 48 -13.333 64 -28c13.333 -12.667 20 -27.667 20 -45v-7
c-3.33301 -29.333 -19.666 -50 -48.999 -62c-17.333 -7.33301 -38 -11.333 -62 -12c-16 0 -33 1.66699 -51 5zM235.999 -10c-32 0 -59.667 4.16797 -83 12.501s-41.666 20.333 -54.999 36s-23.666 34 -30.999 55s-11.333 44.167 -12 69.5v9c0 22.667 1 46.667 3 72l34 321
c3.33301 31.333 8.16602 59.333 14.499 84s15.333 47.834 27 69.501s26 39.667 43 54s37.833 25.5 62.5 33.5s52.667 12 84 12c35.333 0 65.166 -5.33301 89.499 -16s42.5 -25.834 54.5 -45.501s20 -43.834 24 -72.501c2 -14 3.33301 -28.667 4 -44
c0 -16 -1.33301 -33.333 -4 -52l-5 -49h-72l4 47c2 20 3 38.667 3 56c0 13.333 -0.333008 25 -1 35c-2.66699 25.333 -12.167 45.166 -28.5 59.499s-41.166 21.5 -74.499 21.5c-21.333 0 -40 -3 -56 -9s-29.167 -14 -39.5 -24s-19 -23 -26 -39s-12.333 -32.5 -16 -49.5
s-6.83398 -37.5 -9.50098 -61.5l-36 -344c-2 -18.667 -3 -35.334 -3 -50.001c0 -37.333 5.33301 -66.333 16 -87c15.333 -28.667 47.333 -43 96 -43c24.667 0 45.5 4 62.5 12s30.5 20.333 40.5 37s17.5 34.834 22.5 54.501s9.16699 43.834 12.5 72.501l5 52h72l-4 -47
c-4 -37.333 -10.5 -70 -19.5 -98s-21.667 -53.333 -38 -76s-38 -39.667 -65 -51s-58.833 -17 -95.5 -17z" />
    <glyph glyph-name="Egrave" unicode="&#xc8;" 
d="M269 878l-71 196h74l35 -196h-38zM48 0l85 810h293l-6 -59h-216l-32 -303h177l-6 -57h-177l-35 -334h219l-7 -57h-295z" />
    <glyph glyph-name="Eacute" unicode="&#xc9;" 
d="M269 878l83 196h73l-118 -196h-38zM48 0l85 810h293l-6 -59h-216l-32 -303h177l-6 -57h-177l-35 -334h219l-7 -57h-295z" />
    <glyph glyph-name="Ecircumflex" unicode="&#xca;" 
d="M161 878l105 178h82l66 -178h-53l-58 141l-88 -141h-54zM48 0l85 810h293l-6 -59h-216l-32 -303h177l-6 -57h-177l-35 -334h219l-7 -57h-295z" />
    <glyph glyph-name="Edieresis" unicode="&#xcb;" 
d="M168 878l9 89h75l-10 -89h-74zM332 878l9 89h75l-9 -89h-75zM48 0l85 810h293l-6 -59h-216l-32 -303h177l-6 -57h-177l-35 -334h219l-7 -57h-295z" />
    <glyph glyph-name="Igrave" unicode="&#xcc;" horiz-adv-x="221" 
d="M162 878l-71 196h74l35 -196h-38zM52 0l85 810h75l-85 -810h-75z" />
    <glyph glyph-name="Iacute" unicode="&#xcd;" horiz-adv-x="221" 
d="M162 878l83 196h73l-118 -196h-38zM52 0l85 810h75l-85 -810h-75z" />
    <glyph glyph-name="Icircumflex" unicode="&#xce;" horiz-adv-x="221" 
d="M54 878l105 178h82l66 -178h-53l-58 141l-88 -141h-54zM52 0l85 810h75l-85 -810h-75z" />
    <glyph glyph-name="Idieresis" unicode="&#xcf;" horiz-adv-x="221" 
d="M62 878l9 89h75l-10 -89h-74zM226 878l9 89h75l-9 -89h-75zM52 0l85 810h75l-85 -810h-75z" />
    <glyph glyph-name="Eth" unicode="&#xd0;" horiz-adv-x="521" 
d="M131 57l102.001 0.000976562c18 0 34.167 1.83301 48.5 5.5s26.666 8.5 36.999 14.5s19.666 14 27.999 24s15.166 20.167 20.499 30.5s9.83301 23 13.5 38s6.5 29.333 8.5 43s4 30.167 6 49.5l32 302c2.66699 21.333 4 41 4 59c0 7.33301 -0.333008 14.666 -1 21.999
c-1.33301 23.333 -6.16602 42.833 -14.499 58.5s-21.666 27.5 -39.999 35.5s-42.5 12 -72.5 12h-99l-32 -303h81l-4 -47h-82zM48.001 0.000976562l43.001 401.002h-60l5 47h60l37 362h178c33.333 0 62.166 -3.66699 86.499 -11s44 -17.833 59 -31.5
s26.667 -30.334 35 -50.001s13.5 -41.834 15.5 -66.501v-27c0 -16.667 -0.666992 -34 -2 -52l-34 -322c-3.33301 -31.333 -8.5 -59.5 -15.5 -84.5s-16.667 -48 -29 -69s-27.5 -38.5 -45.5 -52.5s-39.5 -24.833 -64.5 -32.5s-53.5 -11.5 -85.5 -11.5h-183z" />
    <glyph glyph-name="Ntilde" unicode="&#xd1;" horiz-adv-x="520" 
d="M381 878c-14 0.666992 -32.167 8.49609 -54.5 23.4961s-37.166 22.833 -44.499 23.5c-10 1.33301 -18.167 -1.16699 -24.5 -7.5s-10.166 -16.833 -11.499 -31.5h-46c0.666992 7.33301 2.16699 14.833 4.5 22.5s5.66602 15.834 9.99902 24.501s9.66602 16.167 15.999 22.5
s14.5 11.166 24.5 14.499c7.33301 2.66699 15.333 3.66699 24 3h10c10.667 -0.666992 22.5 -4.66699 35.5 -12s25.167 -14.666 36.5 -21.999s20.333 -11.333 27 -12c10.667 -1.33301 19 1.33398 25 8.00098s10 18.334 12 35.001h44
c-1.33301 -11.333 -3.33301 -21.833 -6 -31.5s-7.16699 -19.667 -13.5 -30s-15.5 -18.166 -27.5 -23.499c-9.33301 -4.66699 -20 -7 -32 -7h-9zM48 -0.00390625l85 810h56l192 -629l66 629h66l-85 -810h-54l-193 636l-67 -636h-66z" />
    <glyph glyph-name="Ograve" unicode="&#xd2;" horiz-adv-x="524" 
d="M314 878l-71 196h74l35 -196h-38zM246 51c26 0 48.167 3.99902 66.5 11.999s33 20 44 36s19.333 33.833 25 53.5s10.167 43.167 13.5 70.5l38 366c2 16 3 31 3 45c0 8.66699 -0.333008 17 -1 25c-2 20.667 -6.66699 38.334 -14 53.001s-19.5 26 -36.5 34
s-38.5 12 -64.5 12s-48.167 -3.83301 -66.5 -11.5s-33 -19.334 -44 -35.001s-19.333 -33.167 -25 -52.5s-10.167 -42.666 -13.5 -69.999l-38 -366c-2 -16 -3 -31.333 -3 -46c0 -8.66699 0.333008 -17 1 -25c2 -20.667 6.66699 -38.5 14 -53.5s19.5 -26.667 36.5 -35
s38.5 -12.5 64.5 -12.5zM239 -10.001c-31.333 0 -58.498 3.83105 -81.498 11.498s-41.5 18.834 -55.5 33.501s-25 32.334 -33 53.001s-12.667 43.667 -14 69v21c0 19.333 1 39.666 3 60.999l35 336c4 38 11 71.333 21 100s24 54 42 76s41.333 38.667 70 50s62 17 100 17
c30.667 0 57.5 -3.66699 80.5 -11s41.667 -18.166 56 -32.499s25.666 -31.333 33.999 -51s13.166 -42.167 14.499 -67.5v-25c0 -17.333 -0.666992 -36 -2 -56l-36 -337c-4 -38 -10.833 -71.5 -20.5 -100.5s-23.5 -55 -41.5 -78s-41.5 -40.333 -70.5 -52
s-62.833 -17.5 -101.5 -17.5z" />
    <glyph glyph-name="Oacute" unicode="&#xd3;" horiz-adv-x="524" 
d="M314 878l83 196h73l-118 -196h-38zM246 51c26 0 48.167 3.99902 66.5 11.999s33 20 44 36s19.333 33.833 25 53.5s10.167 43.167 13.5 70.5l38 366c2 16 3 31 3 45c0 8.66699 -0.333008 17 -1 25c-2 20.667 -6.66699 38.334 -14 53.001s-19.5 26 -36.5 34
s-38.5 12 -64.5 12s-48.167 -3.83301 -66.5 -11.5s-33 -19.334 -44 -35.001s-19.333 -33.167 -25 -52.5s-10.167 -42.666 -13.5 -69.999l-38 -366c-2 -16 -3 -31.333 -3 -46c0 -8.66699 0.333008 -17 1 -25c2 -20.667 6.66699 -38.5 14 -53.5s19.5 -26.667 36.5 -35
s38.5 -12.5 64.5 -12.5zM239 -10.001c-31.333 0 -58.498 3.83105 -81.498 11.498s-41.5 18.834 -55.5 33.501s-25 32.334 -33 53.001s-12.667 43.667 -14 69v21c0 19.333 1 39.666 3 60.999l35 336c4 38 11 71.333 21 100s24 54 42 76s41.333 38.667 70 50s62 17 100 17
c30.667 0 57.5 -3.66699 80.5 -11s41.667 -18.166 56 -32.499s25.666 -31.333 33.999 -51s13.166 -42.167 14.499 -67.5v-25c0 -17.333 -0.666992 -36 -2 -56l-36 -337c-4 -38 -10.833 -71.5 -20.5 -100.5s-23.5 -55 -41.5 -78s-41.5 -40.333 -70.5 -52
s-62.833 -17.5 -101.5 -17.5z" />
    <glyph glyph-name="Ocircumflex" unicode="&#xd4;" horiz-adv-x="524" 
d="M206 878l105 178h82l66 -178h-53l-58 141l-88 -141h-54zM246 51c26 0 48.167 3.99902 66.5 11.999s33 20 44 36s19.333 33.833 25 53.5s10.167 43.167 13.5 70.5l38 366c2 16 3 31 3 45c0 8.66699 -0.333008 17 -1 25c-2 20.667 -6.66699 38.334 -14 53.001
s-19.5 26 -36.5 34s-38.5 12 -64.5 12s-48.167 -3.83301 -66.5 -11.5s-33 -19.334 -44 -35.001s-19.333 -33.167 -25 -52.5s-10.167 -42.666 -13.5 -69.999l-38 -366c-2 -16 -3 -31.333 -3 -46c0 -8.66699 0.333008 -17 1 -25c2 -20.667 6.66699 -38.5 14 -53.5
s19.5 -26.667 36.5 -35s38.5 -12.5 64.5 -12.5zM239 -10.001c-31.333 0 -58.498 3.83105 -81.498 11.498s-41.5 18.834 -55.5 33.501s-25 32.334 -33 53.001s-12.667 43.667 -14 69v21c0 19.333 1 39.666 3 60.999l35 336c4 38 11 71.333 21 100s24 54 42 76
s41.333 38.667 70 50s62 17 100 17c30.667 0 57.5 -3.66699 80.5 -11s41.667 -18.166 56 -32.499s25.666 -31.333 33.999 -51s13.166 -42.167 14.499 -67.5v-25c0 -17.333 -0.666992 -36 -2 -56l-36 -337c-4 -38 -10.833 -71.5 -20.5 -100.5s-23.5 -55 -41.5 -78
s-41.5 -40.333 -70.5 -52s-62.833 -17.5 -101.5 -17.5z" />
    <glyph glyph-name="Otilde" unicode="&#xd5;" horiz-adv-x="524" 
d="M384 878c-14 0.666992 -32.167 8.49609 -54.5 23.4961s-37.166 22.833 -44.499 23.5c-10 1.33301 -18.167 -1.16699 -24.5 -7.5s-10.166 -16.833 -11.499 -31.5h-46c0.666992 7.33301 2.16699 14.833 4.5 22.5s5.66602 15.834 9.99902 24.501s9.66602 16.167 15.999 22.5
s14.5 11.166 24.5 14.499c7.33301 2.66699 15.333 3.66699 24 3h10c10.667 -0.666992 22.5 -4.66699 35.5 -12s25.167 -14.666 36.5 -21.999s20.333 -11.333 27 -12c10.667 -1.33301 19 1.33398 25 8.00098s10 18.334 12 35.001h44
c-1.33301 -11.333 -3.33301 -21.833 -6 -31.5s-7.16699 -19.667 -13.5 -30s-15.5 -18.166 -27.5 -23.499c-9.33301 -4.66699 -20 -7 -32 -7h-9zM246 50.9961c26 0 48.167 3.99902 66.5 11.999s33 20 44 36s19.333 33.833 25 53.5s10.167 43.167 13.5 70.5l38 366
c2 16 3 31 3 45c0 8.66699 -0.333008 17 -1 25c-2 20.667 -6.66699 38.334 -14 53.001s-19.5 26 -36.5 34s-38.5 12 -64.5 12s-48.167 -3.83301 -66.5 -11.5s-33 -19.334 -44 -35.001s-19.333 -33.167 -25 -52.5s-10.167 -42.666 -13.5 -69.999l-38 -366
c-2 -16 -3 -31.333 -3 -46c0 -8.66699 0.333008 -17 1 -25c2 -20.667 6.66699 -38.5 14 -53.5s19.5 -26.667 36.5 -35s38.5 -12.5 64.5 -12.5zM239 -10.0049c-31.333 0 -58.498 3.83105 -81.498 11.498s-41.5 18.834 -55.5 33.501s-25 32.334 -33 53.001
s-12.667 43.667 -14 69v21c0 19.333 1 39.666 3 60.999l35 336c4 38 11 71.333 21 100s24 54 42 76s41.333 38.667 70 50s62 17 100 17c30.667 0 57.5 -3.66699 80.5 -11s41.667 -18.166 56 -32.499s25.666 -31.333 33.999 -51s13.166 -42.167 14.499 -67.5v-25
c0 -17.333 -0.666992 -36 -2 -56l-36 -337c-4 -38 -10.833 -71.5 -20.5 -100.5s-23.5 -55 -41.5 -78s-41.5 -40.333 -70.5 -52s-62.833 -17.5 -101.5 -17.5z" />
    <glyph glyph-name="Odieresis" unicode="&#xd6;" horiz-adv-x="524" 
d="M213 878l9 89h75l-10 -89h-74zM377 878l9 89h75l-9 -89h-75zM246 51c26 0 48.167 3.99902 66.5 11.999s33 20 44 36s19.333 33.833 25 53.5s10.167 43.167 13.5 70.5l38 366c2 16 3 31 3 45c0 8.66699 -0.333008 17 -1 25c-2 20.667 -6.66699 38.334 -14 53.001
s-19.5 26 -36.5 34s-38.5 12 -64.5 12s-48.167 -3.83301 -66.5 -11.5s-33 -19.334 -44 -35.001s-19.333 -33.167 -25 -52.5s-10.167 -42.666 -13.5 -69.999l-38 -366c-2 -16 -3 -31.333 -3 -46c0 -8.66699 0.333008 -17 1 -25c2 -20.667 6.66699 -38.5 14 -53.5
s19.5 -26.667 36.5 -35s38.5 -12.5 64.5 -12.5zM239 -10.001c-31.333 0 -58.498 3.83105 -81.498 11.498s-41.5 18.834 -55.5 33.501s-25 32.334 -33 53.001s-12.667 43.667 -14 69v21c0 19.333 1 39.666 3 60.999l35 336c4 38 11 71.333 21 100s24 54 42 76
s41.333 38.667 70 50s62 17 100 17c30.667 0 57.5 -3.66699 80.5 -11s41.667 -18.166 56 -32.499s25.666 -31.333 33.999 -51s13.166 -42.167 14.499 -67.5v-25c0 -17.333 -0.666992 -36 -2 -56l-36 -337c-4 -38 -10.833 -71.5 -20.5 -100.5s-23.5 -55 -41.5 -78
s-41.5 -40.333 -70.5 -52s-62.833 -17.5 -101.5 -17.5z" />
    <glyph glyph-name="multiply" unicode="&#xd7;" horiz-adv-x="353" 
d="M83 256l-34 37l109 99l-88 98l42 38l88 -98l109 98l33 -38l-108 -98l88 -99l-42 -37l-88 98z" />
    <glyph glyph-name="Oslash" unicode="&#xd8;" horiz-adv-x="529" 
d="M140 109l246 636.001c-16.667 8.66699 -38.667 13 -66 13c-26 0 -48.167 -3.83301 -66.5 -11.5s-33 -19.334 -44 -35.001s-19.333 -33.167 -25 -52.5s-10.167 -42.666 -13.5 -69.999l-38 -366c-1.33301 -16.667 -2.33301 -32.334 -3 -47.001
c0 -28 3.33301 -50.333 10 -67zM246 51.001c26 0 48.166 3.99707 66.499 11.9971s33 20 44 36s19.333 33.833 25 53.5s10.167 43.167 13.5 70.5l38 366c2 18.667 3 36 3 52v4c0 16.667 -2.16699 31.834 -6.5 45.501s-10.5 25.5 -18.5 35.5l-250 -648
c4.66699 -4 9.83398 -7.66699 15.501 -11s12 -6.16602 19 -8.49902s14.667 -4.16602 23 -5.49902s17.5 -2 27.5 -2zM97.999 -87.002l-30 9.00098l41 106c-36.667 30.667 -54.667 82.667 -54 156c0 17.333 1 35.666 3 54.999l35 336c4 38 11 71.333 21 100s24 54 42 76
s41.333 38.667 70 50s62 17 100 17c16 0 31 -1 45 -3s26.667 -5 38 -9l32 84l31 -8l-34 -89c49.333 -28.667 74 -84 74 -166c0 -16 -1 -33.333 -3 -52l-36 -337c-4 -38 -10.833 -71.5 -20.5 -100.5s-23.5 -55 -41.5 -78s-41.5 -40.333 -70.5 -52s-62.833 -17.5 -101.5 -17.5
c-42 0 -76.667 7 -104 21z" />
    <glyph glyph-name="Ugrave" unicode="&#xd9;" horiz-adv-x="537" 
d="M319 878l-71 196h74l35 -196h-38zM246 -10c-32 0 -59.999 3.66992 -83.999 11.0029s-42.833 17.833 -56.5 31.5s-24.334 30 -32.001 49s-11.5 40.167 -11.5 63.5c0 6 -0.333008 12.333 -1 19c0 18 0.666992 37 2 57l62 589h74l-62 -591c-2 -14 -3.33301 -27.667 -4 -41
c0 -8.66699 0.666992 -17.334 2 -26.001c2.66699 -20.667 7.66699 -38.334 15 -53.001s19.666 -26.334 36.999 -35.001s39 -13 65 -13c25.333 0 47.333 4.16699 66 12.5s33.667 20.5 45 36.5s20.166 33.5 26.499 52.5s10.833 41.167 13.5 66.5l62 591h73l-61 -589
c-3.33301 -35.333 -10 -66.5 -20 -93.5s-23.667 -51.167 -41 -72.5s-40.166 -37.5 -68.499 -48.5s-62.166 -16.5 -101.499 -16.5z" />
    <glyph glyph-name="Uacute" unicode="&#xda;" horiz-adv-x="537" 
d="M319 878l83 196h73l-118 -196h-38zM246 -10c-32 0 -59.999 3.66992 -83.999 11.0029s-42.833 17.833 -56.5 31.5s-24.334 30 -32.001 49s-11.5 40.167 -11.5 63.5c0 6 -0.333008 12.333 -1 19c0 18 0.666992 37 2 57l62 589h74l-62 -591c-2 -14 -3.33301 -27.667 -4 -41
c0 -8.66699 0.666992 -17.334 2 -26.001c2.66699 -20.667 7.66699 -38.334 15 -53.001s19.666 -26.334 36.999 -35.001s39 -13 65 -13c25.333 0 47.333 4.16699 66 12.5s33.667 20.5 45 36.5s20.166 33.5 26.499 52.5s10.833 41.167 13.5 66.5l62 591h73l-61 -589
c-3.33301 -35.333 -10 -66.5 -20 -93.5s-23.667 -51.167 -41 -72.5s-40.166 -37.5 -68.499 -48.5s-62.166 -16.5 -101.499 -16.5z" />
    <glyph glyph-name="Ucircumflex" unicode="&#xdb;" horiz-adv-x="537" 
d="M212 878l105 178h82l66 -178h-53l-58 141l-88 -141h-54zM246 -10c-32 0 -59.999 3.66992 -83.999 11.0029s-42.833 17.833 -56.5 31.5s-24.334 30 -32.001 49s-11.5 40.167 -11.5 63.5c0 6 -0.333008 12.333 -1 19c0 18 0.666992 37 2 57l62 589h74l-62 -591
c-2 -14 -3.33301 -27.667 -4 -41c0 -8.66699 0.666992 -17.334 2 -26.001c2.66699 -20.667 7.66699 -38.334 15 -53.001s19.666 -26.334 36.999 -35.001s39 -13 65 -13c25.333 0 47.333 4.16699 66 12.5s33.667 20.5 45 36.5s20.166 33.5 26.499 52.5
s10.833 41.167 13.5 66.5l62 591h73l-61 -589c-3.33301 -35.333 -10 -66.5 -20 -93.5s-23.667 -51.167 -41 -72.5s-40.166 -37.5 -68.499 -48.5s-62.166 -16.5 -101.499 -16.5z" />
    <glyph glyph-name="Udieresis" unicode="&#xdc;" horiz-adv-x="537" 
d="M219 878l9 89h75l-10 -89h-74zM383 878l9 89h75l-9 -89h-75zM246 -10c-32 0 -59.999 3.66992 -83.999 11.0029s-42.833 17.833 -56.5 31.5s-24.334 30 -32.001 49s-11.5 40.167 -11.5 63.5c0 6 -0.333008 12.333 -1 19c0 18 0.666992 37 2 57l62 589h74l-62 -591
c-2 -14 -3.33301 -27.667 -4 -41c0 -8.66699 0.666992 -17.334 2 -26.001c2.66699 -20.667 7.66699 -38.334 15 -53.001s19.666 -26.334 36.999 -35.001s39 -13 65 -13c25.333 0 47.333 4.16699 66 12.5s33.667 20.5 45 36.5s20.166 33.5 26.499 52.5
s10.833 41.167 13.5 66.5l62 591h73l-61 -589c-3.33301 -35.333 -10 -66.5 -20 -93.5s-23.667 -51.167 -41 -72.5s-40.166 -37.5 -68.499 -48.5s-62.166 -16.5 -101.499 -16.5z" />
    <glyph glyph-name="Yacute" unicode="&#xdd;" horiz-adv-x="469" 
d="M285 878l83 196h73l-118 -196h-38zM178 0l28 269l-126 541h75l98 -450l187 450h75l-235 -541l-28 -269h-74z" />
    <glyph glyph-name="Thorn" unicode="&#xde;" horiz-adv-x="504" 
d="M48 0l84.998 810.005h77l-11 -105h139c34 0 62.833 -5.83301 86.5 -17.5s41.834 -27.834 54.501 -48.501s21 -44.334 25 -71.001c2 -14 3.33301 -29.333 4 -46c0 -14 -1 -28.333 -3 -43c-3.33301 -32.667 -9.66602 -62.334 -18.999 -89.001
s-22.833 -51.334 -40.5 -74.001s-40.667 -40.334 -69 -53.001s-60.833 -19 -97.5 -19h-128l-26 -244h-77zM157.998 308.005h112c48.667 0 85.667 13.167 111 39.5s41.333 69.833 48 130.5c1.33301 13.333 2 26 2 38c0 38.667 -7.33301 67.667 -22 87
c-19.333 25.333 -51.333 38 -96 38h-121z" />
    <glyph glyph-name="germandbls" unicode="&#xdf;" horiz-adv-x="475" 
d="M162 -10l7.00098 60.998c21.333 0 41 1.83301 59 5.5s33.667 8.5 47 14.5s25.166 13.5 35.499 22.5s19 18.667 26 29s12.833 22 17.5 35s8.33398 25.5 11.001 37.5s5 25.333 7 40c0.666992 11.333 1 22.666 1 33.999c0 6.66699 -0.333008 13.334 -1 20.001
c-0.666992 16.667 -4 32.5 -10 47.5s-13.667 27.833 -23 38.5s-22.166 19.167 -38.499 25.5s-34.833 9.5 -55.5 9.5l8 61c11.333 0 22 1.33301 32 4s18.833 6.66699 26.5 12s14.834 11.833 21.501 19.5s12.334 15.667 17.001 24s8.66699 17.833 12 28.5
s6.16602 21.334 8.49902 32.001s4.16602 22 5.49902 34c1.33301 12.667 2 24.334 2 35.001c0 29.333 -5 52.666 -15 69.999c-13.333 24 -38 36.333 -74 37c-24 0 -43.5 -4.5 -58.5 -13.5s-27.333 -25 -37 -48s-16.5 -54.167 -20.5 -93.5l-65 -612h-73l65 611
c8 76 27.5 130.833 58.5 164.5s74.5 50.5 130.5 50.5c57.333 0 99.666 -17.333 126.999 -52c22 -27.333 33 -64.333 33 -111c0 -12 -0.666992 -24.667 -2 -38c-10 -94.667 -48.667 -154.667 -116 -180c22.667 -5.33301 42.167 -14.666 58.5 -27.999
s28.666 -29.333 36.999 -48s13.833 -39 16.5 -61c1.33301 -11.333 2.33301 -23 3 -35c0 -12 -0.666992 -24 -2 -36c-17.333 -164.667 -111.333 -247 -282 -247z" />
    <glyph glyph-name="agrave" unicode="&#xe0;" horiz-adv-x="396" 
d="M222 646l-71 196h74l35 -196h-38zM133 -9c-34 0 -60.668 12.3359 -80.001 37.0029c-16 20.667 -24 46 -24 76c0 5.33301 0.333008 11 1 17c2 19.333 5.5 36.5 10.5 51.5s12.667 29.167 23 42.5s21.333 25.166 33 35.499s27.834 21.166 48.501 32.499s41.334 22 62.001 32
s47.667 22 81 36l4 41c2 22 3 41 3 57c0 23.333 -2.33301 41 -7 53c-8 20 -25.667 30 -53 30c-54 0 -84.333 -33 -91 -99l-2 -21l-72 2c0 2.66699 0.666992 8.66699 2 18c8 54.667 26.333 94.167 55 118.5s68 36.5 118 36.5c50.667 0 85.334 -15 104.001 -45
c13.333 -22 19.666 -53.333 18.999 -94c0 -16 -1 -33.333 -3 -52l-29 -281c-4.66699 -40.667 -7 -75.334 -7 -104.001v-11h-65c-1.33301 39.333 -2 66 -2 80c-12 -25.333 -29.333 -46.5 -52 -63.5s-48.334 -25.5 -77.001 -25.5zM162.999 54.0029
c20 0 38.834 6.66699 56.501 20s32.167 29.333 43.5 48l19 180c-58.667 -29.333 -96.667 -50 -114 -62c-29.333 -20 -48.333 -43.333 -57 -70c-2.66699 -10 -4.66699 -20.667 -6 -32c-0.666992 -6 -1 -11.667 -1 -17c0 -20 4.33301 -35.667 13 -47
c11.333 -13.333 26.666 -20 45.999 -20z" />
    <glyph glyph-name="aacute" unicode="&#xe1;" horiz-adv-x="396" 
d="M222 646l83 196h73l-118 -196h-38zM133 -9c-34 0 -60.668 12.3359 -80.001 37.0029c-16 20.667 -24 46 -24 76c0 5.33301 0.333008 11 1 17c2 19.333 5.5 36.5 10.5 51.5s12.667 29.167 23 42.5s21.333 25.166 33 35.499s27.834 21.166 48.501 32.499
s41.334 22 62.001 32s47.667 22 81 36l4 41c2 22 3 41 3 57c0 23.333 -2.33301 41 -7 53c-8 20 -25.667 30 -53 30c-54 0 -84.333 -33 -91 -99l-2 -21l-72 2c0 2.66699 0.666992 8.66699 2 18c8 54.667 26.333 94.167 55 118.5s68 36.5 118 36.5
c50.667 0 85.334 -15 104.001 -45c13.333 -22 19.666 -53.333 18.999 -94c0 -16 -1 -33.333 -3 -52l-29 -281c-4.66699 -40.667 -7 -75.334 -7 -104.001v-11h-65c-1.33301 39.333 -2 66 -2 80c-12 -25.333 -29.333 -46.5 -52 -63.5s-48.334 -25.5 -77.001 -25.5z
M162.999 54.0029c20 0 38.834 6.66699 56.501 20s32.167 29.333 43.5 48l19 180c-58.667 -29.333 -96.667 -50 -114 -62c-29.333 -20 -48.333 -43.333 -57 -70c-2.66699 -10 -4.66699 -20.667 -6 -32c-0.666992 -6 -1 -11.667 -1 -17c0 -20 4.33301 -35.667 13 -47
c11.333 -13.333 26.666 -20 45.999 -20z" />
    <glyph glyph-name="acircumflex" unicode="&#xe2;" horiz-adv-x="396" 
d="M114 646l105 178h82l66 -178h-53l-58 141l-88 -141h-54zM133 -9c-34 0 -60.668 12.3359 -80.001 37.0029c-16 20.667 -24 46 -24 76c0 5.33301 0.333008 11 1 17c2 19.333 5.5 36.5 10.5 51.5s12.667 29.167 23 42.5s21.333 25.166 33 35.499
s27.834 21.166 48.501 32.499s41.334 22 62.001 32s47.667 22 81 36l4 41c2 22 3 41 3 57c0 23.333 -2.33301 41 -7 53c-8 20 -25.667 30 -53 30c-54 0 -84.333 -33 -91 -99l-2 -21l-72 2c0 2.66699 0.666992 8.66699 2 18c8 54.667 26.333 94.167 55 118.5
s68 36.5 118 36.5c50.667 0 85.334 -15 104.001 -45c13.333 -22 19.666 -53.333 18.999 -94c0 -16 -1 -33.333 -3 -52l-29 -281c-4.66699 -40.667 -7 -75.334 -7 -104.001v-11h-65c-1.33301 39.333 -2 66 -2 80c-12 -25.333 -29.333 -46.5 -52 -63.5
s-48.334 -25.5 -77.001 -25.5zM162.999 54.0029c20 0 38.834 6.66699 56.501 20s32.167 29.333 43.5 48l19 180c-58.667 -29.333 -96.667 -50 -114 -62c-29.333 -20 -48.333 -43.333 -57 -70c-2.66699 -10 -4.66699 -20.667 -6 -32c-0.666992 -6 -1 -11.667 -1 -17
c0 -20 4.33301 -35.667 13 -47c11.333 -13.333 26.666 -20 45.999 -20z" />
    <glyph glyph-name="atilde" unicode="&#xe3;" horiz-adv-x="396" 
d="M293 647c-14 0.666992 -32.167 8.49609 -54.5 23.4961s-37.166 22.833 -44.499 23.5c-10 1.33301 -18.167 -1.16699 -24.5 -7.5s-10.166 -16.833 -11.499 -31.5h-46c0.666992 7.33301 2.16699 14.833 4.5 22.5s5.66602 15.834 9.99902 24.501s9.66602 16.167 15.999 22.5
s14.5 11.166 24.5 14.499c7.33301 2.66699 15.333 3.66699 24 3h10c10.667 -0.666992 22.5 -4.66699 35.5 -12s25.167 -14.666 36.5 -21.999s20.333 -11.333 27 -12c10.667 -1.33301 19 1.33398 25 8.00098s10 18.334 12 35.001h44
c-1.33301 -11.333 -3.33301 -21.833 -6 -31.5s-7.16699 -19.667 -13.5 -30s-15.5 -18.166 -27.5 -23.499c-9.33301 -4.66699 -20 -7 -32 -7h-9zM133 -9.00391c-34 0 -60.668 12.3359 -80.001 37.0029c-16 20.667 -24 46 -24 76c0 5.33301 0.333008 11 1 17
c2 19.333 5.5 36.5 10.5 51.5s12.667 29.167 23 42.5s21.333 25.166 33 35.499s27.834 21.166 48.501 32.499s41.334 22 62.001 32s47.667 22 81 36l4 41c2 22 3 41 3 57c0 23.333 -2.33301 41 -7 53c-8 20 -25.667 30 -53 30c-54 0 -84.333 -33 -91 -99l-2 -21l-72 2
c0 2.66699 0.666992 8.66699 2 18c8 54.667 26.333 94.167 55 118.5s68 36.5 118 36.5c50.667 0 85.334 -15 104.001 -45c13.333 -22 19.666 -53.333 18.999 -94c0 -16 -1 -33.333 -3 -52l-29 -281c-4.66699 -40.667 -7 -75.334 -7 -104.001v-11h-65
c-1.33301 39.333 -2 66 -2 80c-12 -25.333 -29.333 -46.5 -52 -63.5s-48.334 -25.5 -77.001 -25.5zM162.999 53.999c20 0 38.834 6.66699 56.501 20s32.167 29.333 43.5 48l19 180c-58.667 -29.333 -96.667 -50 -114 -62c-29.333 -20 -48.333 -43.333 -57 -70
c-2.66699 -10 -4.66699 -20.667 -6 -32c-0.666992 -6 -1 -11.667 -1 -17c0 -20 4.33301 -35.667 13 -47c11.333 -13.333 26.666 -20 45.999 -20z" />
    <glyph glyph-name="adieresis" unicode="&#xe4;" horiz-adv-x="396" 
d="M122 646l9 89h75l-10 -89h-74zM286 646l9 89h75l-9 -89h-75zM133 -9c-34 0 -60.668 12.3359 -80.001 37.0029c-16 20.667 -24 46 -24 76c0 5.33301 0.333008 11 1 17c2 19.333 5.5 36.5 10.5 51.5s12.667 29.167 23 42.5s21.333 25.166 33 35.499
s27.834 21.166 48.501 32.499s41.334 22 62.001 32s47.667 22 81 36l4 41c2 22 3 41 3 57c0 23.333 -2.33301 41 -7 53c-8 20 -25.667 30 -53 30c-54 0 -84.333 -33 -91 -99l-2 -21l-72 2c0 2.66699 0.666992 8.66699 2 18c8 54.667 26.333 94.167 55 118.5
s68 36.5 118 36.5c50.667 0 85.334 -15 104.001 -45c13.333 -22 19.666 -53.333 18.999 -94c0 -16 -1 -33.333 -3 -52l-29 -281c-4.66699 -40.667 -7 -75.334 -7 -104.001v-11h-65c-1.33301 39.333 -2 66 -2 80c-12 -25.333 -29.333 -46.5 -52 -63.5
s-48.334 -25.5 -77.001 -25.5zM162.999 54.0029c20 0 38.834 6.66699 56.501 20s32.167 29.333 43.5 48l19 180c-58.667 -29.333 -96.667 -50 -114 -62c-29.333 -20 -48.333 -43.333 -57 -70c-2.66699 -10 -4.66699 -20.667 -6 -32c-0.666992 -6 -1 -11.667 -1 -17
c0 -20 4.33301 -35.667 13 -47c11.333 -13.333 26.666 -20 45.999 -20z" />
    <glyph glyph-name="aring" unicode="&#xe5;" horiz-adv-x="396" 
d="M246 686c16 0 29.5 4.66602 40.5 13.999s17.5 23.333 19.5 42v9c0 14 -3.66699 25 -11 33c-9.33301 9.33301 -22 13.833 -38 13.5s-29.5 -5.16602 -40.5 -14.499s-17.5 -23 -19.5 -41v-10c0 -14 3.66699 -24.667 11 -32c9.33301 -9.33301 22 -14 38 -14zM241.5 645.999
c-27 0 -48.833 8.33398 -65.5 25.001c-14 14 -21 32.667 -21 56c0 4.66699 0.333008 9.66699 1 15c2.66699 30 14 53.167 34 69.5s43.667 24.5 71 24.5s49.333 -8.33301 66 -25c14 -14 21 -32.333 21 -55c0 -4.66699 -0.333008 -9.33398 -1 -14.001
c-2.66699 -30 -14.167 -53.5 -34.5 -70.5s-44 -25.5 -71 -25.5zM133 -9c-34 0 -60.668 12.3359 -80.001 37.0029c-16 20.667 -24 46 -24 76c0 5.33301 0.333008 11 1 17c2 19.333 5.5 36.5 10.5 51.5s12.667 29.167 23 42.5s21.333 25.166 33 35.499
s27.834 21.166 48.501 32.499s41.334 22 62.001 32s47.667 22 81 36l4 41c2 22 3 41 3 57c0 23.333 -2.33301 41 -7 53c-8 20 -25.667 30 -53 30c-54 0 -84.333 -33 -91 -99l-2 -21l-72 2c0 2.66699 0.666992 8.66699 2 18c8 54.667 26.333 94.167 55 118.5
s68 36.5 118 36.5c50.667 0 85.334 -15 104.001 -45c13.333 -22 19.666 -53.333 18.999 -94c0 -16 -1 -33.333 -3 -52l-29 -281c-4.66699 -40.667 -7 -75.334 -7 -104.001v-11h-65c-1.33301 39.333 -2 66 -2 80c-12 -25.333 -29.333 -46.5 -52 -63.5
s-48.334 -25.5 -77.001 -25.5zM162.999 54.0029c20 0 38.834 6.66699 56.501 20s32.167 29.333 43.5 48l19 180c-58.667 -29.333 -96.667 -50 -114 -62c-29.333 -20 -48.333 -43.333 -57 -70c-2.66699 -10 -4.66699 -20.667 -6 -32c-0.666992 -6 -1 -11.667 -1 -17
c0 -20 4.33301 -35.667 13 -47c11.333 -13.333 26.666 -20 45.999 -20z" />
    <glyph glyph-name="ae" unicode="&#xe6;" horiz-adv-x="622" 
d="M132 -9c-34 1.33301 -60.666 13.998 -79.999 37.998c-15.333 20 -23 44.667 -23 74c0 6 0.333008 12 1 18c2 22 6.33301 41.167 13 57.5s16.334 32 29.001 47s29.5 28.333 50.5 40s46.833 22.5 77.5 32.5l86 27l7 67c1.33301 18 2.33301 34 3 48c0 26 -3 45.667 -9 59
c-8.66699 20.667 -26.334 31 -53.001 31c-26 0 -47.167 -8.5 -63.5 -25.5s-26.5 -43.833 -30.5 -80.5l-71 1c6 52.667 23.833 92.834 53.5 120.501s69.167 41.5 118.5 41.5c28.667 0 52 -7.5 70 -22.5s28 -36.167 30 -63.5c11.333 28.667 28.5 50.167 51.5 64.5
s48.833 21.5 77.5 21.5c46 0 80 -13.667 102 -41c18 -22.667 27 -51 27 -85c0 -7.33301 -0.333008 -15 -1 -23c-1.33301 -16 -5.83301 -30.333 -13.5 -43s-18.334 -23.5 -32.001 -32.5s-28 -16.5 -43 -22.5s-32.833 -11.667 -53.5 -17l-100 -30l-6 -58
c-2.66699 -28.667 -4 -54.334 -4 -77.001v-22c1.33301 -28 7.33301 -49.5 18 -64.5s27 -22.5 49 -22.5c11.333 0 21.5 1.83301 30.5 5.5s17.5 9.5 25.5 17.5s14.667 19.667 20 35s9.33301 34.333 12 57l4 34h73l-4 -34c-2.66699 -27.333 -7.83398 -51.166 -15.501 -71.499
s-18 -38.333 -31 -54s-29.667 -27.5 -50 -35.5s-44.166 -12 -71.499 -12c-34 0 -61.5 9.83301 -82.5 29.5s-31.833 48.834 -32.5 87.501c-16 -40 -38.667 -69.667 -68 -89c-26.667 -18.667 -54.667 -28 -84 -28h-7zM163.001 47.998c12 0 23.665 2.99902 34.998 8.99902
s22.333 15.333 33 28s19.834 30 27.501 52s12.834 48 15.501 78l7 64c-13.333 -4 -35 -12 -65 -24c-17.333 -6.66699 -32.333 -13.5 -45 -20.5s-23 -14 -31 -21s-14.5 -14.833 -19.5 -23.5s-8.83301 -17.5 -11.5 -26.5s-4.33398 -19.5 -5.00098 -31.5
c-0.666992 -5.33301 -1 -10.333 -1 -15c0 -8.66699 0.666992 -16.334 2 -23.001c2.66699 -11.333 7 -20.166 13 -26.499s12.833 -11.166 20.5 -14.499s15.834 -5 24.501 -5zM360.999 336.997l86.9971 26.999c10 2.66699 18.667 5.5 26 8.5s14 6.16699 20 9.5
s11.167 7 15.5 11s8 8.66699 11 14s5.33301 11 7 17s2.83398 12.667 3.50098 20c0 4 0.333008 8.33301 1 13c0 6.66699 -0.666992 13 -2 19c-1.33301 10 -4.5 18.833 -9.5 26.5s-12.333 13.834 -22 18.501s-21.167 7 -34.5 7c-29.333 0 -51.666 -10.667 -66.999 -32
s-25.666 -57 -30.999 -107z" />
    <glyph glyph-name="ccedilla" unicode="&#xe7;" horiz-adv-x="388" 
d="M111 -200l3.99902 38c13.333 -1.33301 25.333 -2.33301 36 -3c40 0 62 12 66 36c0.666992 3.33301 1 6.33301 1 9c0 12 -5 21.667 -15 29c-12.667 9.33301 -30.667 16.333 -54 21l7 70h39l-6 -51c26.667 -4 48 -13.333 64 -28c13.333 -12.667 20 -27.667 20 -45v-7
c-3.33301 -29.333 -19.666 -50 -48.999 -62c-17.333 -7.33301 -38 -11.333 -62 -12c-16 0 -33 1.66699 -51 5zM176.999 -9c-32.667 0 -59.168 5.66602 -79.501 16.999s-34.333 27.166 -42 47.499s-12.167 44.5 -13.5 72.5c0 7.33301 -0.333008 15 -1 23
c0 21.333 1.66699 44 5 68l15 135c4 42 9.66699 76.833 17 104.5s17.833 51.5 31.5 71.5s31 34.5 52 43.5s46.833 13.5 77.5 13.5c30 0 54.5 -4.5 73.5 -13.5s32.667 -21.5 41 -37.5s13.5 -35.333 15.5 -58c0.666992 -8.66699 1.33398 -18 2.00098 -28
c0 -15.333 -1.33301 -31.333 -4 -48l-3 -27h-67l3 27c1.33301 16.667 2 31.334 2 44.001c0 26.667 -3.33301 46 -10 58c-10 18.667 -29.333 28 -58 28c-33.333 0 -56.5 -11.833 -69.5 -35.5s-22.833 -67.167 -29.5 -130.5l-17 -162c-2.66699 -24 -4 -45 -4 -63
c0 -26.667 2.66699 -46.667 8 -60c9.33301 -23.333 30 -35 62 -35c16.667 0 30.5 2.66699 41.5 8s20 14.333 27 27s12.167 26.834 15.5 42.501s6.33301 36.5 9 62.5l3 31h68l-3 -28c-2.66699 -25.333 -6 -47.333 -10 -66s-10.167 -36.667 -18.5 -54s-18.333 -31.5 -30 -42.5
s-26.667 -19.667 -45 -26s-39.833 -9.5 -64.5 -9.5z" />
    <glyph glyph-name="egrave" unicode="&#xe8;" horiz-adv-x="395" 
d="M225 646l-71 196h74l35 -196h-38zM178 -9c-55.333 0 -93.332 17.002 -113.999 51.002c-14.667 24 -22 60 -22 108c0 20.667 1.33301 43 4 67l15 146c6 56 16.5 100.667 31.5 134s34.5 56.666 58.5 69.999s54.333 20 91 20c40 0 70 -8.5 90 -25.5s32.333 -43.167 37 -78.5
c1.33301 -14.667 2.33301 -31.334 3 -50.001c0 -25.333 -1.66699 -53.333 -5 -84l-7 -53h-233l-9 -86c-2.66699 -24.667 -4 -46 -4 -64c0 -27.333 2.66699 -48.333 8 -63c9.33301 -24.667 30 -37 62 -37c25.333 0 45.666 8 60.999 24s25 45.333 29 88l5 40h72l-4 -32
c-6 -56 -22.333 -99.167 -49 -129.5s-66.667 -45.5 -120 -45.5zM132.001 338.002l161 -0.000976562l5 48c2.66699 26 4 49 4 69v9c0 22 -5.5 38.833 -16.5 50.5s-27.833 17.5 -50.5 17.5c-20.667 0 -37.167 -4.33301 -49.5 -13s-22.5 -24.167 -30.5 -46.5
s-14.333 -54.166 -19 -95.499z" />
    <glyph glyph-name="eacute" unicode="&#xe9;" horiz-adv-x="395" 
d="M226 646l83 196h73l-118 -196h-38zM178 -9c-55.333 0 -93.332 17.002 -113.999 51.002c-14.667 24 -22 60 -22 108c0 20.667 1.33301 43 4 67l15 146c6 56 16.5 100.667 31.5 134s34.5 56.666 58.5 69.999s54.333 20 91 20c40 0 70 -8.5 90 -25.5
s32.333 -43.167 37 -78.5c1.33301 -14.667 2.33301 -31.334 3 -50.001c0 -25.333 -1.66699 -53.333 -5 -84l-7 -53h-233l-9 -86c-2.66699 -24.667 -4 -46 -4 -64c0 -27.333 2.66699 -48.333 8 -63c9.33301 -24.667 30 -37 62 -37c25.333 0 45.666 8 60.999 24
s25 45.333 29 88l5 40h72l-4 -32c-6 -56 -22.333 -99.167 -49 -129.5s-66.667 -45.5 -120 -45.5zM132.001 338.002l161 -0.000976562l5 48c2.66699 26 4 49 4 69v9c0 22 -5.5 38.833 -16.5 50.5s-27.833 17.5 -50.5 17.5c-20.667 0 -37.167 -4.33301 -49.5 -13
s-22.5 -24.167 -30.5 -46.5s-14.333 -54.166 -19 -95.499z" />
    <glyph glyph-name="ecircumflex" unicode="&#xea;" horiz-adv-x="395" 
d="M118 646l105 178h82l66 -178h-53l-58 141l-88 -141h-54zM178 -9c-55.333 0 -93.332 17.002 -113.999 51.002c-14.667 24 -22 60 -22 108c0 20.667 1.33301 43 4 67l15 146c6 56 16.5 100.667 31.5 134s34.5 56.666 58.5 69.999s54.333 20 91 20c40 0 70 -8.5 90 -25.5
s32.333 -43.167 37 -78.5c1.33301 -14.667 2.33301 -31.334 3 -50.001c0 -25.333 -1.66699 -53.333 -5 -84l-7 -53h-233l-9 -86c-2.66699 -24.667 -4 -46 -4 -64c0 -27.333 2.66699 -48.333 8 -63c9.33301 -24.667 30 -37 62 -37c25.333 0 45.666 8 60.999 24
s25 45.333 29 88l5 40h72l-4 -32c-6 -56 -22.333 -99.167 -49 -129.5s-66.667 -45.5 -120 -45.5zM132.001 338.002l161 -0.000976562l5 48c2.66699 26 4 49 4 69v9c0 22 -5.5 38.833 -16.5 50.5s-27.833 17.5 -50.5 17.5c-20.667 0 -37.167 -4.33301 -49.5 -13
s-22.5 -24.167 -30.5 -46.5s-14.333 -54.166 -19 -95.499z" />
    <glyph glyph-name="edieresis" unicode="&#xeb;" horiz-adv-x="395" 
d="M125 646l9 89h75l-10 -89h-74zM289 646l9 89h75l-9 -89h-75zM178 -9c-55.333 0 -93.332 17.002 -113.999 51.002c-14.667 24 -22 60 -22 108c0 20.667 1.33301 43 4 67l15 146c6 56 16.5 100.667 31.5 134s34.5 56.666 58.5 69.999s54.333 20 91 20
c40 0 70 -8.5 90 -25.5s32.333 -43.167 37 -78.5c1.33301 -14.667 2.33301 -31.334 3 -50.001c0 -25.333 -1.66699 -53.333 -5 -84l-7 -53h-233l-9 -86c-2.66699 -24.667 -4 -46 -4 -64c0 -27.333 2.66699 -48.333 8 -63c9.33301 -24.667 30 -37 62 -37
c25.333 0 45.666 8 60.999 24s25 45.333 29 88l5 40h72l-4 -32c-6 -56 -22.333 -99.167 -49 -129.5s-66.667 -45.5 -120 -45.5zM132.001 338.002l161 -0.000976562l5 48c2.66699 26 4 49 4 69v9c0 22 -5.5 38.833 -16.5 50.5s-27.833 17.5 -50.5 17.5
c-20.667 0 -37.167 -4.33301 -49.5 -13s-22.5 -24.167 -30.5 -46.5s-14.333 -54.166 -19 -95.499z" />
    <glyph glyph-name="igrave" unicode="&#xec;" horiz-adv-x="197" 
d="M126 646l-71 196h74l35 -196h-38zM42 0l60 578h73l-60 -578h-73z" />
    <glyph glyph-name="iacute" unicode="&#xed;" horiz-adv-x="197" 
d="M127 646l83 196h73l-118 -196h-38zM42 0l60 578h73l-60 -578h-73z" />
    <glyph glyph-name="icircumflex" unicode="&#xee;" horiz-adv-x="197" 
d="M19 646l105 178h82l66 -178h-53l-58 141l-88 -141h-54zM42 0l60 578h73l-60 -578h-73z" />
    <glyph glyph-name="idieresis" unicode="&#xef;" horiz-adv-x="197" 
d="M26 646l9 89h75l-10 -89h-74zM190 646l9 89h75l-9 -89h-75zM42 0l60 578h73l-60 -578h-73z" />
    <glyph glyph-name="eth" unicode="&#xf0;" horiz-adv-x="445" 
d="M196.5 -10c-31.667 0 -57.998 5.3291 -78.998 15.9961s-36.333 26.167 -46 46.5s-15.834 44.833 -18.501 73.5c-0.666992 11.333 -1.33398 23 -2.00098 35c0 19.333 1.66699 40.333 5 63l7 74c9.33301 84.667 28.5 149 57.5 193s70.5 66 124.5 66
c33.333 0 64.666 -10.333 93.999 -31c-1.33301 64 -8.33301 109.333 -21 136l-111 -32l4 42l91 24c-11.333 24.667 -29.833 43.334 -55.5 56.001s-61.5 20.334 -107.5 23.001l9 49c56.667 -1.33301 102.334 -10.5 137.001 -27.5s60.334 -44.167 77.001 -81.5l97 26l-4 -41
l-78 -20c6.66699 -18.667 12.5 -43.5 17.5 -74.5s8.83301 -69.5 11.5 -115.5l2 -44c0 -31.333 -2 -63.666 -6 -96.999l-11 -105c-4.66699 -42 -11.334 -78.167 -20.001 -108.5s-20.5 -56.666 -35.5 -78.999s-34 -39 -57 -50s-50.333 -16.5 -82 -16.5zM205.002 48.9961
c16 0 29.9941 2.66406 41.9941 7.99707s21.833 13 29.5 23s14.334 24.167 20.001 42.5s10.167 37.666 13.5 57.999s6.66602 46.5 9.99902 78.5c1.33301 17.333 4.33301 55.833 9 115.5s6.66699 91.167 6 94.5c-1.33301 0.666992 -5.16602 2.83398 -11.499 6.50098
s-11.166 6.33398 -14.499 8.00098s-8.16602 3.83398 -14.499 6.50098s-12.666 4.5 -18.999 5.5s-12.833 1.5 -19.5 1.5c-34.667 0 -61.667 -17.667 -81 -53s-33.666 -94 -42.999 -176c-4 -37.333 -6 -70.666 -6 -99.999c0 -6 0.333008 -12 1 -18
c0.666992 -32 7.33398 -56.833 20.001 -74.5s32 -26.5 58 -26.5z" />
    <glyph glyph-name="ntilde" unicode="&#xf1;" horiz-adv-x="409" 
d="M304 647c-14 0.666992 -32.167 8.49609 -54.5 23.4961s-37.166 22.833 -44.499 23.5c-10 1.33301 -18.167 -1.16699 -24.5 -7.5s-10.166 -16.833 -11.499 -31.5h-46c0.666992 7.33301 2.16699 14.833 4.5 22.5s5.66602 15.834 9.99902 24.501s9.66602 16.167 15.999 22.5
s14.5 11.166 24.5 14.499c7.33301 2.66699 15.333 3.66699 24 3h10c10.667 -0.666992 22.5 -4.66699 35.5 -12s25.167 -14.666 36.5 -21.999s20.333 -11.333 27 -12c10.667 -1.33301 19 1.33398 25 8.00098s10 18.334 12 35.001h44
c-1.33301 -11.333 -3.33301 -21.833 -6 -31.5s-7.16699 -19.667 -13.5 -30s-15.5 -18.166 -27.5 -23.499c-9.33301 -4.66699 -20 -7 -32 -7h-9zM34 -0.00390625l59.998 578h73l-5 -60c46.667 46 95.334 69 146.001 69c28.667 0 49.667 -10.667 63 -32
c10 -16 14.667 -37.333 14 -64c0 -8.66699 -0.333008 -17.667 -1 -27l-49 -464h-73l47 448c0.666992 8.66699 1 16.667 1 24c0 16.667 -2.66699 29.667 -8 39c-7.33301 12.667 -20.666 18.667 -39.999 18c-32 0 -67 -17.667 -105 -53l-50 -476h-73z" />
    <glyph glyph-name="ograve" unicode="&#xf2;" 
d="M226 646l-71 196h74l35 -196h-38zM182 46c12.667 0 23.668 1.6709 33.001 5.00391s17.333 8.66602 24 15.999s12.167 15.166 16.5 23.499s8 19.166 11 32.499s5.33301 25.833 7 37.5s3.5 26.5 5.5 44.5l18 168c2 18 3.33301 33 4 45c0 7.33301 0.333008 15.333 1 24v14
c0 14 -1.5 24.833 -4.5 32.5s-7 15.167 -12 22.5s-12 12.666 -21 15.999s-19.5 5 -31.5 5c-14.667 0 -27.334 -2.66699 -38.001 -8s-19.334 -12.166 -26.001 -20.499s-12.167 -19.833 -16.5 -34.5s-7.66602 -29 -9.99902 -43s-4.5 -31.667 -6.5 -53l-18 -168
c-2.66699 -31.333 -4.16699 -58.833 -4.5 -82.5s5 -42.334 16 -56.001s28.5 -20.5 52.5 -20.5zM176.001 -8.99609c-57.333 0 -95.332 17.666 -113.999 52.999c-13.333 25.333 -20 60.333 -20 105c0 18 1 38 3 60l17 160c4 36 9.66699 66.833 17 92.5
s17.833 48.334 31.5 68.001s31 34.167 52 43.5s46.5 14 76.5 14c57.333 0 95.666 -18 114.999 -54c13.333 -25.333 20 -60 20 -104c0 -18 -1.33301 -38 -4 -60l-16 -160c-4 -36.667 -9.83301 -67.834 -17.5 -93.501s-18.334 -48.167 -32.001 -67.5
s-31.167 -33.666 -52.5 -42.999s-46.666 -14 -75.999 -14z" />
    <glyph glyph-name="oacute" unicode="&#xf3;" 
d="M226 646l83 196h73l-118 -196h-38zM182 46c12.667 0 23.668 1.6709 33.001 5.00391s17.333 8.66602 24 15.999s12.167 15.166 16.5 23.499s8 19.166 11 32.499s5.33301 25.833 7 37.5s3.5 26.5 5.5 44.5l18 168c2 18 3.33301 33 4 45c0 7.33301 0.333008 15.333 1 24v14
c0 14 -1.5 24.833 -4.5 32.5s-7 15.167 -12 22.5s-12 12.666 -21 15.999s-19.5 5 -31.5 5c-14.667 0 -27.334 -2.66699 -38.001 -8s-19.334 -12.166 -26.001 -20.499s-12.167 -19.833 -16.5 -34.5s-7.66602 -29 -9.99902 -43s-4.5 -31.667 -6.5 -53l-18 -168
c-2.66699 -31.333 -4.16699 -58.833 -4.5 -82.5s5 -42.334 16 -56.001s28.5 -20.5 52.5 -20.5zM176.001 -8.99609c-57.333 0 -95.332 17.666 -113.999 52.999c-13.333 25.333 -20 60.333 -20 105c0 18 1 38 3 60l17 160c4 36 9.66699 66.833 17 92.5
s17.833 48.334 31.5 68.001s31 34.167 52 43.5s46.5 14 76.5 14c57.333 0 95.666 -18 114.999 -54c13.333 -25.333 20 -60 20 -104c0 -18 -1.33301 -38 -4 -60l-16 -160c-4 -36.667 -9.83301 -67.834 -17.5 -93.501s-18.334 -48.167 -32.001 -67.5
s-31.167 -33.666 -52.5 -42.999s-46.666 -14 -75.999 -14z" />
    <glyph glyph-name="ocircumflex" unicode="&#xf4;" 
d="M119 646l105 178h82l66 -178h-53l-58 141l-88 -141h-54zM182 46c12.667 0 23.668 1.6709 33.001 5.00391s17.333 8.66602 24 15.999s12.167 15.166 16.5 23.499s8 19.166 11 32.499s5.33301 25.833 7 37.5s3.5 26.5 5.5 44.5l18 168c2 18 3.33301 33 4 45
c0 7.33301 0.333008 15.333 1 24v14c0 14 -1.5 24.833 -4.5 32.5s-7 15.167 -12 22.5s-12 12.666 -21 15.999s-19.5 5 -31.5 5c-14.667 0 -27.334 -2.66699 -38.001 -8s-19.334 -12.166 -26.001 -20.499s-12.167 -19.833 -16.5 -34.5s-7.66602 -29 -9.99902 -43
s-4.5 -31.667 -6.5 -53l-18 -168c-2.66699 -31.333 -4.16699 -58.833 -4.5 -82.5s5 -42.334 16 -56.001s28.5 -20.5 52.5 -20.5zM176.001 -8.99609c-57.333 0 -95.332 17.666 -113.999 52.999c-13.333 25.333 -20 60.333 -20 105c0 18 1 38 3 60l17 160
c4 36 9.66699 66.833 17 92.5s17.833 48.334 31.5 68.001s31 34.167 52 43.5s46.5 14 76.5 14c57.333 0 95.666 -18 114.999 -54c13.333 -25.333 20 -60 20 -104c0 -18 -1.33301 -38 -4 -60l-16 -160c-4 -36.667 -9.83301 -67.834 -17.5 -93.501
s-18.334 -48.167 -32.001 -67.5s-31.167 -33.666 -52.5 -42.999s-46.666 -14 -75.999 -14z" />
    <glyph glyph-name="otilde" unicode="&#xf5;" 
d="M297 647c-14 0.666992 -32.167 8.49609 -54.5 23.4961s-37.166 22.833 -44.499 23.5c-10 1.33301 -18.167 -1.16699 -24.5 -7.5s-10.166 -16.833 -11.499 -31.5h-46c0.666992 7.33301 2.16699 14.833 4.5 22.5s5.66602 15.834 9.99902 24.501s9.66602 16.167 15.999 22.5
s14.5 11.166 24.5 14.499c7.33301 2.66699 15.333 3.66699 24 3h10c10.667 -0.666992 22.5 -4.66699 35.5 -12s25.167 -14.666 36.5 -21.999s20.333 -11.333 27 -12c10.667 -1.33301 19 1.33398 25 8.00098s10 18.334 12 35.001h44
c-1.33301 -11.333 -3.33301 -21.833 -6 -31.5s-7.16699 -19.667 -13.5 -30s-15.5 -18.166 -27.5 -23.499c-9.33301 -4.66699 -20 -7 -32 -7h-9zM182 45.9961c12.667 0 23.668 1.6709 33.001 5.00391s17.333 8.66602 24 15.999s12.167 15.166 16.5 23.499s8 19.166 11 32.499
s5.33301 25.833 7 37.5s3.5 26.5 5.5 44.5l18 168c2 18 3.33301 33 4 45c0 7.33301 0.333008 15.333 1 24v14c0 14 -1.5 24.833 -4.5 32.5s-7 15.167 -12 22.5s-12 12.666 -21 15.999s-19.5 5 -31.5 5c-14.667 0 -27.334 -2.66699 -38.001 -8
s-19.334 -12.166 -26.001 -20.499s-12.167 -19.833 -16.5 -34.5s-7.66602 -29 -9.99902 -43s-4.5 -31.667 -6.5 -53l-18 -168c-2.66699 -31.333 -4.16699 -58.833 -4.5 -82.5s5 -42.334 16 -56.001s28.5 -20.5 52.5 -20.5zM176.001 -9
c-57.333 0 -95.332 17.666 -113.999 52.999c-13.333 25.333 -20 60.333 -20 105c0 18 1 38 3 60l17 160c4 36 9.66699 66.833 17 92.5s17.833 48.334 31.5 68.001s31 34.167 52 43.5s46.5 14 76.5 14c57.333 0 95.666 -18 114.999 -54c13.333 -25.333 20 -60 20 -104
c0 -18 -1.33301 -38 -4 -60l-16 -160c-4 -36.667 -9.83301 -67.834 -17.5 -93.501s-18.334 -48.167 -32.001 -67.5s-31.167 -33.666 -52.5 -42.999s-46.666 -14 -75.999 -14z" />
    <glyph glyph-name="odieresis" unicode="&#xf6;" 
d="M126 646l9 89h75l-10 -89h-74zM290 646l9 89h75l-9 -89h-75zM182 46c12.667 0 23.668 1.6709 33.001 5.00391s17.333 8.66602 24 15.999s12.167 15.166 16.5 23.499s8 19.166 11 32.499s5.33301 25.833 7 37.5s3.5 26.5 5.5 44.5l18 168c2 18 3.33301 33 4 45
c0 7.33301 0.333008 15.333 1 24v14c0 14 -1.5 24.833 -4.5 32.5s-7 15.167 -12 22.5s-12 12.666 -21 15.999s-19.5 5 -31.5 5c-14.667 0 -27.334 -2.66699 -38.001 -8s-19.334 -12.166 -26.001 -20.499s-12.167 -19.833 -16.5 -34.5s-7.66602 -29 -9.99902 -43
s-4.5 -31.667 -6.5 -53l-18 -168c-2.66699 -31.333 -4.16699 -58.833 -4.5 -82.5s5 -42.334 16 -56.001s28.5 -20.5 52.5 -20.5zM176.001 -8.99609c-57.333 0 -95.332 17.666 -113.999 52.999c-13.333 25.333 -20 60.333 -20 105c0 18 1 38 3 60l17 160
c4 36 9.66699 66.833 17 92.5s17.833 48.334 31.5 68.001s31 34.167 52 43.5s46.5 14 76.5 14c57.333 0 95.666 -18 114.999 -54c13.333 -25.333 20 -60 20 -104c0 -18 -1.33301 -38 -4 -60l-16 -160c-4 -36.667 -9.83301 -67.834 -17.5 -93.501
s-18.334 -48.167 -32.001 -67.5s-31.167 -33.666 -52.5 -42.999s-46.666 -14 -75.999 -14z" />
    <glyph glyph-name="divide" unicode="&#xf7;" horiz-adv-x="336" 
d="M136 196l9 91h63l-9 -91h-63zM44 388l6 55h286l-6 -55h-286zM171 533l9 90h63l-9 -90h-63z" />
    <glyph glyph-name="oslash" unicode="&#xf8;" 
d="M113 132l176.002 374.999c-10.667 16.667 -29.334 25 -56.001 25c-14.667 0 -27.334 -2.66699 -38.001 -8s-19.334 -12.166 -26.001 -20.499s-12.167 -19.833 -16.5 -34.5s-7.66602 -29 -9.99902 -43s-4.5 -31.667 -6.5 -53l-18 -168c-3.33301 -32 -5 -56.333 -5 -73z
M182.002 45.999c12.667 0 23.666 1.66992 32.999 5.00293s17.333 8.66602 24 15.999s12.167 15.166 16.5 23.499s8 19.166 11 32.499s5.33301 25.833 7 37.5s3.5 26.5 5.5 44.5l18 168c2.66699 30 4.33398 54.667 5.00098 74c0 8.66699 -0.333008 16 -1 22l-182 -384
c9.33301 -26 30.333 -39 63 -39zM42.001 -76.998l-23 8.99707l48 104c-17.333 24 -25.666 61 -24.999 111c0 18.667 1 39.334 3 62.001l17 160c4 36 9.66699 66.833 17 92.5s17.833 48.334 31.5 68.001s31 34.167 52 43.5s46.5 14 76.5 14c32.667 0 59 -6 79 -18l36 77
l26 -9l-40 -85c16 -17.333 26.333 -41.666 31 -72.999c2 -14.667 3 -30.667 3 -48c0 -19.333 -1.33301 -40 -4 -62l-16 -160c-4 -36.667 -9.83301 -67.834 -17.5 -93.501s-18.334 -48.167 -32.001 -67.5s-31 -33.666 -52 -42.999s-46.5 -14 -76.5 -14
c-38.667 0 -68.667 8.33301 -90 25z" />
    <glyph glyph-name="ugrave" unicode="&#xf9;" horiz-adv-x="411" 
d="M230 646l-71 196h74l35 -196h-38zM118 -9c-28.667 0 -49.666 10.667 -62.999 32c-10 16 -15 37.333 -15 64c0 8.66699 0.666992 18 2 28l48 463h74l-47 -448c-0.666992 -8.66699 -1.33398 -16.667 -2.00098 -24c0 -16.667 2.66699 -29.667 8 -39
c8 -12.667 21.333 -18.667 40 -18c33.333 0 69.333 19 108 57l50 472h73l-61 -578h-73l7 64c-47.333 -48.667 -97 -73 -149 -73z" />
    <glyph glyph-name="uacute" unicode="&#xfa;" horiz-adv-x="411" 
d="M230 646l83 196h73l-118 -196h-38zM118 -9c-28.667 0 -49.666 10.667 -62.999 32c-10 16 -15 37.333 -15 64c0 8.66699 0.666992 18 2 28l48 463h74l-47 -448c-0.666992 -8.66699 -1.33398 -16.667 -2.00098 -24c0 -16.667 2.66699 -29.667 8 -39
c8 -12.667 21.333 -18.667 40 -18c33.333 0 69.333 19 108 57l50 472h73l-61 -578h-73l7 64c-47.333 -48.667 -97 -73 -149 -73z" />
    <glyph glyph-name="ucircumflex" unicode="&#xfb;" horiz-adv-x="411" 
d="M122 646l105 178h82l66 -178h-53l-58 141l-88 -141h-54zM118 -9c-28.667 0 -49.666 10.667 -62.999 32c-10 16 -15 37.333 -15 64c0 8.66699 0.666992 18 2 28l48 463h74l-47 -448c-0.666992 -8.66699 -1.33398 -16.667 -2.00098 -24c0 -16.667 2.66699 -29.667 8 -39
c8 -12.667 21.333 -18.667 40 -18c33.333 0 69.333 19 108 57l50 472h73l-61 -578h-73l7 64c-47.333 -48.667 -97 -73 -149 -73z" />
    <glyph glyph-name="udieresis" unicode="&#xfc;" horiz-adv-x="411" 
d="M129 646l9 89h75l-10 -89h-74zM293 646l9 89h75l-9 -89h-75zM118 -9c-28.667 0 -49.666 10.667 -62.999 32c-10 16 -15 37.333 -15 64c0 8.66699 0.666992 18 2 28l48 463h74l-47 -448c-0.666992 -8.66699 -1.33398 -16.667 -2.00098 -24
c0 -16.667 2.66699 -29.667 8 -39c8 -12.667 21.333 -18.667 40 -18c33.333 0 69.333 19 108 57l50 472h73l-61 -578h-73l7 64c-47.333 -48.667 -97 -73 -149 -73z" />
    <glyph glyph-name="yacute" unicode="&#xfd;" horiz-adv-x="380" 
d="M218 646l83 196h73l-118 -196h-38zM3 -144l5.99902 57.001c35.333 0 62 2.83301 80 8.5s30 13.5 36 23.5c5.33301 9.33301 8 23 8 41v3c-0.666992 11.333 -3.66699 38 -9 80l-66 509h73l49 -492l149 492h73l-205 -620c-12.667 -36.667 -32.667 -62.834 -60 -78.501
s-65.666 -23.5 -114.999 -23.5h-19z" />
    <glyph glyph-name="thorn" unicode="&#xfe;" horiz-adv-x="416" 
d="M15 -190l104.999 999.999h73l-29 -280c34 38 72.667 57 116 57c18 0 33.833 -3 47.5 -9s24.667 -14.5 33 -25.5s14.833 -23.333 19.5 -37s8 -29.5 10 -47.5c0.666992 -14 1 -27.667 1 -41v-13c0 -17.333 -1.33301 -36.666 -4 -57.999l-13 -122
c-3.33301 -30.667 -7.5 -58 -12.5 -82s-11.833 -46.333 -20.5 -67s-19 -37.667 -31 -51s-26.333 -23.833 -43 -31.5s-35.667 -11.5 -57 -11.5c-37.333 0 -69.666 18.333 -96.999 55l-25 -236h-73zM203.999 48.999c30.667 0 52.8311 14.334 66.498 43.001
s23.834 75.667 30.501 141l12 123c3.33301 31.333 5 58.666 5 81.999v14c-0.666992 26 -6.16699 45.333 -16.5 58s-26.5 19 -48.5 19c-29.333 0 -60.666 -14.667 -93.999 -44l-41 -394c23.333 -28 52 -42 86 -42z" />
    <glyph glyph-name="ydieresis" unicode="&#xff;" horiz-adv-x="380" 
d="M118 646l9 89h75l-10 -89h-74zM282 646l9 89h75l-9 -89h-75zM3 -144l5.99902 57.001c35.333 0 62 2.83301 80 8.5s30 13.5 36 23.5c5.33301 9.33301 8 23 8 41v3c-0.666992 11.333 -3.66699 38 -9 80l-66 509h73l49 -492l149 492h73l-205 -620
c-12.667 -36.667 -32.667 -62.834 -60 -78.501s-65.666 -23.5 -114.999 -23.5h-19z" />
    <glyph glyph-name="Amacron" unicode="&#x100;" horiz-adv-x="477" 
d="M219 878l5 47h179l-5 -47h-179zM5 0l256 810h80l87 -810h-74l-18 216h-193l-64 -216h-74zM160 272h172l-41 436z" />
    <glyph glyph-name="amacron" unicode="&#x101;" horiz-adv-x="396" 
d="M151 647l5 47h179l-5 -47h-179zM133 -9c-34 0 -60.668 12.3359 -80.001 37.0029c-16 20.667 -24 46 -24 76c0 5.33301 0.333008 11 1 17c2 19.333 5.5 36.5 10.5 51.5s12.667 29.167 23 42.5s21.333 25.166 33 35.499s27.834 21.166 48.501 32.499s41.334 22 62.001 32
s47.667 22 81 36l4 41c2 22 3 41 3 57c0 23.333 -2.33301 41 -7 53c-8 20 -25.667 30 -53 30c-54 0 -84.333 -33 -91 -99l-2 -21l-72 2c0 2.66699 0.666992 8.66699 2 18c8 54.667 26.333 94.167 55 118.5s68 36.5 118 36.5c50.667 0 85.334 -15 104.001 -45
c13.333 -22 19.666 -53.333 18.999 -94c0 -16 -1 -33.333 -3 -52l-29 -281c-4.66699 -40.667 -7 -75.334 -7 -104.001v-11h-65c-1.33301 39.333 -2 66 -2 80c-12 -25.333 -29.333 -46.5 -52 -63.5s-48.334 -25.5 -77.001 -25.5zM162.999 54.0029
c20 0 38.834 6.66699 56.501 20s32.167 29.333 43.5 48l19 180c-58.667 -29.333 -96.667 -50 -114 -62c-29.333 -20 -48.333 -43.333 -57 -70c-2.66699 -10 -4.66699 -20.667 -6 -32c-0.666992 -6 -1 -11.667 -1 -17c0 -20 4.33301 -35.667 13 -47
c11.333 -13.333 26.666 -20 45.999 -20z" />
    <glyph glyph-name="Abreve" unicode="&#x102;" horiz-adv-x="477" 
d="M308 878c-40 0 -69.334 10.666 -88.001 31.999c-16 18.667 -24 44.334 -24 77.001v16h47c0 -4.66699 -0.333008 -9 -1 -13c0 -45.333 23.333 -68 70 -68c50.667 0 80 27 88 81h47c-5.33301 -40 -19.666 -70.833 -42.999 -92.5s-55.333 -32.5 -96 -32.5z
M4.99902 -0.000976562l256 810h80l87 -810h-74l-18 216h-193l-64 -216h-74zM159.999 271.999h172l-41 436z" />
    <glyph glyph-name="abreve" unicode="&#x103;" horiz-adv-x="396" 
d="M240 647c-40 0 -69.334 10.666 -88.001 31.999c-16 18.667 -24 44.334 -24 77.001v16h47c0 -4.66699 -0.333008 -9 -1 -13c0 -45.333 23.333 -68 70 -68c50.667 0 80 27 88 81h47c-5.33301 -40 -19.666 -70.833 -42.999 -92.5s-55.333 -32.5 -96 -32.5zM132.999 -9.00098
c-34 0 -60.668 12.3359 -80.001 37.0029c-16 20.667 -24 46 -24 76c0 5.33301 0.333008 11 1 17c2 19.333 5.5 36.5 10.5 51.5s12.667 29.167 23 42.5s21.333 25.166 33 35.499s27.834 21.166 48.501 32.499s41.334 22 62.001 32s47.667 22 81 36l4 41c2 22 3 41 3 57
c0 23.333 -2.33301 41 -7 53c-8 20 -25.667 30 -53 30c-54 0 -84.333 -33 -91 -99l-2 -21l-72 2c0 2.66699 0.666992 8.66699 2 18c8 54.667 26.333 94.167 55 118.5s68 36.5 118 36.5c50.667 0 85.334 -15 104.001 -45c13.333 -22 19.666 -53.333 18.999 -94
c0 -16 -1 -33.333 -3 -52l-29 -281c-4.66699 -40.667 -7 -75.334 -7 -104.001v-11h-65c-1.33301 39.333 -2 66 -2 80c-12 -25.333 -29.333 -46.5 -52 -63.5s-48.334 -25.5 -77.001 -25.5zM162.998 54.002c20 0 38.834 6.66699 56.501 20s32.167 29.333 43.5 48l19 180
c-58.667 -29.333 -96.667 -50 -114 -62c-29.333 -20 -48.333 -43.333 -57 -70c-2.66699 -10 -4.66699 -20.667 -6 -32c-0.666992 -6 -1 -11.667 -1 -17c0 -20 4.33301 -35.667 13 -47c11.333 -13.333 26.666 -20 45.999 -20z" />
    <glyph glyph-name="Aogonek" unicode="&#x104;" horiz-adv-x="477" 
d="M414 -209c-47.333 0 -82 6 -104 18c-20 11.333 -30 29 -30 53v11c2.66699 26 14.667 51.333 36 76s44.333 42.334 69 53.001h39c-55.333 -53.333 -84.333 -95.333 -87 -126c-0.666992 -10 1.5 -18.333 6.5 -25s12.5 -11.334 22.5 -14.001s20 -4.5 30 -5.5
s21.667 -1.5 35 -1.5zM5 0l256 810h80l87 -810h-74l-18 216h-193l-64 -216h-74zM160 272h172l-41 436z" />
    <glyph glyph-name="aogonek" unicode="&#x105;" horiz-adv-x="396" 
d="M333 -209c-47.333 0 -82 6 -104 18c-20 11.333 -30 29 -30 53v11c2.66699 26 14.667 51.333 36 76s44.333 42.334 69 53.001h39c-55.333 -53.333 -84.333 -95.333 -87 -126c-0.666992 -10 1.5 -18.333 6.5 -25s12.5 -11.334 22.5 -14.001s20 -4.5 30 -5.5
s21.667 -1.5 35 -1.5zM133 -9c-34 0 -60.668 12.3359 -80.001 37.0029c-16 20.667 -24 46 -24 76c0 5.33301 0.333008 11 1 17c2 19.333 5.5 36.5 10.5 51.5s12.667 29.167 23 42.5s21.333 25.166 33 35.499s27.834 21.166 48.501 32.499s41.334 22 62.001 32
s47.667 22 81 36l4 41c2 22 3 41 3 57c0 23.333 -2.33301 41 -7 53c-8 20 -25.667 30 -53 30c-54 0 -84.333 -33 -91 -99l-2 -21l-72 2c0 2.66699 0.666992 8.66699 2 18c8 54.667 26.333 94.167 55 118.5s68 36.5 118 36.5c50.667 0 85.334 -15 104.001 -45
c13.333 -22 19.666 -53.333 18.999 -94c0 -16 -1 -33.333 -3 -52l-29 -281c-4.66699 -40.667 -7 -75.334 -7 -104.001v-11h-65c-1.33301 39.333 -2 66 -2 80c-12 -25.333 -29.333 -46.5 -52 -63.5s-48.334 -25.5 -77.001 -25.5zM162.999 54.0029
c20 0 38.834 6.66699 56.501 20s32.167 29.333 43.5 48l19 180c-58.667 -29.333 -96.667 -50 -114 -62c-29.333 -20 -48.333 -43.333 -57 -70c-2.66699 -10 -4.66699 -20.667 -6 -32c-0.666992 -6 -1 -11.667 -1 -17c0 -20 4.33301 -35.667 13 -47
c11.333 -13.333 26.666 -20 45.999 -20z" />
    <glyph glyph-name="Cacute" unicode="&#x106;" horiz-adv-x="498" 
d="M304 878l83 196h73l-118 -196h-38zM236 -10c-32 0 -59.667 4.16797 -83 12.501s-41.666 20.333 -54.999 36s-23.666 34 -30.999 55s-11.333 44.167 -12 69.5v9c0 22.667 1 46.667 3 72l34 321c3.33301 31.333 8.16602 59.333 14.499 84s15.333 47.834 27 69.501
s26 39.667 43 54s37.833 25.5 62.5 33.5s52.667 12 84 12c35.333 0 65.166 -5.33301 89.499 -16s42.5 -25.834 54.5 -45.501s20 -43.834 24 -72.501c2 -14 3.33301 -28.667 4 -44c0 -16 -1.33301 -33.333 -4 -52l-5 -49h-72l4 47c2 20 3 38.667 3 56
c0 13.333 -0.333008 25 -1 35c-2.66699 25.333 -12.167 45.166 -28.5 59.499s-41.166 21.5 -74.499 21.5c-21.333 0 -40 -3 -56 -9s-29.167 -14 -39.5 -24s-19 -23 -26 -39s-12.333 -32.5 -16 -49.5s-6.83398 -37.5 -9.50098 -61.5l-36 -344
c-2 -18.667 -3 -35.334 -3 -50.001c0 -37.333 5.33301 -66.333 16 -87c15.333 -28.667 47.333 -43 96 -43c24.667 0 45.5 4 62.5 12s30.5 20.333 40.5 37s17.5 34.834 22.5 54.501s9.16699 43.834 12.5 72.501l5 52h72l-4 -47c-4 -37.333 -10.5 -70 -19.5 -98
s-21.667 -53.333 -38 -76s-38 -39.667 -65 -51s-58.833 -17 -95.5 -17z" />
    <glyph glyph-name="cacute" unicode="&#x107;" horiz-adv-x="388" 
d="M223 646l83 196h73l-118 -196h-38zM177 -9c-32.667 0 -59.168 5.66602 -79.501 16.999s-34.333 27.166 -42 47.499s-12.167 44.5 -13.5 72.5c0 7.33301 -0.333008 15 -1 23c0 21.333 1.66699 44 5 68l15 135c4 42 9.66699 76.833 17 104.5s17.833 51.5 31.5 71.5
s31 34.5 52 43.5s46.833 13.5 77.5 13.5c30 0 54.5 -4.5 73.5 -13.5s32.667 -21.5 41 -37.5s13.5 -35.333 15.5 -58c0.666992 -8.66699 1.33398 -18 2.00098 -28c0 -15.333 -1.33301 -31.333 -4 -48l-3 -27h-67l3 27c1.33301 16.667 2 31.334 2 44.001
c0 26.667 -3.33301 46 -10 58c-10 18.667 -29.333 28 -58 28c-33.333 0 -56.5 -11.833 -69.5 -35.5s-22.833 -67.167 -29.5 -130.5l-17 -162c-2.66699 -24 -4 -45 -4 -63c0 -26.667 2.66699 -46.667 8 -60c9.33301 -23.333 30 -35 62 -35c16.667 0 30.5 2.66699 41.5 8
s20 14.333 27 27s12.167 26.834 15.5 42.501s6.33301 36.5 9 62.5l3 31h68l-3 -28c-2.66699 -25.333 -6 -47.333 -10 -66s-10.167 -36.667 -18.5 -54s-18.333 -31.5 -30 -42.5s-26.667 -19.667 -45 -26s-39.833 -9.5 -64.5 -9.5z" />
    <glyph glyph-name="Ccircumflex" unicode="&#x108;" horiz-adv-x="498" 
d="M196 878l105 178h82l66 -178h-53l-58 141l-88 -141h-54zM236 -10c-32 0 -59.667 4.16797 -83 12.501s-41.666 20.333 -54.999 36s-23.666 34 -30.999 55s-11.333 44.167 -12 69.5v9c0 22.667 1 46.667 3 72l34 321c3.33301 31.333 8.16602 59.333 14.499 84
s15.333 47.834 27 69.501s26 39.667 43 54s37.833 25.5 62.5 33.5s52.667 12 84 12c35.333 0 65.166 -5.33301 89.499 -16s42.5 -25.834 54.5 -45.501s20 -43.834 24 -72.501c2 -14 3.33301 -28.667 4 -44c0 -16 -1.33301 -33.333 -4 -52l-5 -49h-72l4 47
c2 20 3 38.667 3 56c0 13.333 -0.333008 25 -1 35c-2.66699 25.333 -12.167 45.166 -28.5 59.499s-41.166 21.5 -74.499 21.5c-21.333 0 -40 -3 -56 -9s-29.167 -14 -39.5 -24s-19 -23 -26 -39s-12.333 -32.5 -16 -49.5s-6.83398 -37.5 -9.50098 -61.5l-36 -344
c-2 -18.667 -3 -35.334 -3 -50.001c0 -37.333 5.33301 -66.333 16 -87c15.333 -28.667 47.333 -43 96 -43c24.667 0 45.5 4 62.5 12s30.5 20.333 40.5 37s17.5 34.834 22.5 54.501s9.16699 43.834 12.5 72.501l5 52h72l-4 -47c-4 -37.333 -10.5 -70 -19.5 -98
s-21.667 -53.333 -38 -76s-38 -39.667 -65 -51s-58.833 -17 -95.5 -17z" />
    <glyph glyph-name="ccircumflex" unicode="&#x109;" horiz-adv-x="388" 
d="M115 646l105 178h82l66 -178h-53l-58 141l-88 -141h-54zM177 -9c-32.667 0 -59.168 5.66602 -79.501 16.999s-34.333 27.166 -42 47.499s-12.167 44.5 -13.5 72.5c0 7.33301 -0.333008 15 -1 23c0 21.333 1.66699 44 5 68l15 135c4 42 9.66699 76.833 17 104.5
s17.833 51.5 31.5 71.5s31 34.5 52 43.5s46.833 13.5 77.5 13.5c30 0 54.5 -4.5 73.5 -13.5s32.667 -21.5 41 -37.5s13.5 -35.333 15.5 -58c0.666992 -8.66699 1.33398 -18 2.00098 -28c0 -15.333 -1.33301 -31.333 -4 -48l-3 -27h-67l3 27
c1.33301 16.667 2 31.334 2 44.001c0 26.667 -3.33301 46 -10 58c-10 18.667 -29.333 28 -58 28c-33.333 0 -56.5 -11.833 -69.5 -35.5s-22.833 -67.167 -29.5 -130.5l-17 -162c-2.66699 -24 -4 -45 -4 -63c0 -26.667 2.66699 -46.667 8 -60c9.33301 -23.333 30 -35 62 -35
c16.667 0 30.5 2.66699 41.5 8s20 14.333 27 27s12.167 26.834 15.5 42.501s6.33301 36.5 9 62.5l3 31h68l-3 -28c-2.66699 -25.333 -6 -47.333 -10 -66s-10.167 -36.667 -18.5 -54s-18.333 -31.5 -30 -42.5s-26.667 -19.667 -45 -26s-39.833 -9.5 -64.5 -9.5z" />
    <glyph glyph-name="Cdotaccent" unicode="&#x10a;" horiz-adv-x="498" 
d="M285 878l11 110h78l-11 -110h-78zM236 -10c-32 0 -59.667 4.16797 -83 12.501s-41.666 20.333 -54.999 36s-23.666 34 -30.999 55s-11.333 44.167 -12 69.5v9c0 22.667 1 46.667 3 72l34 321c3.33301 31.333 8.16602 59.333 14.499 84s15.333 47.834 27 69.501
s26 39.667 43 54s37.833 25.5 62.5 33.5s52.667 12 84 12c35.333 0 65.166 -5.33301 89.499 -16s42.5 -25.834 54.5 -45.501s20 -43.834 24 -72.501c2 -14 3.33301 -28.667 4 -44c0 -16 -1.33301 -33.333 -4 -52l-5 -49h-72l4 47c2 20 3 38.667 3 56
c0 13.333 -0.333008 25 -1 35c-2.66699 25.333 -12.167 45.166 -28.5 59.499s-41.166 21.5 -74.499 21.5c-21.333 0 -40 -3 -56 -9s-29.167 -14 -39.5 -24s-19 -23 -26 -39s-12.333 -32.5 -16 -49.5s-6.83398 -37.5 -9.50098 -61.5l-36 -344
c-2 -18.667 -3 -35.334 -3 -50.001c0 -37.333 5.33301 -66.333 16 -87c15.333 -28.667 47.333 -43 96 -43c24.667 0 45.5 4 62.5 12s30.5 20.333 40.5 37s17.5 34.834 22.5 54.501s9.16699 43.834 12.5 72.501l5 52h72l-4 -47c-4 -37.333 -10.5 -70 -19.5 -98
s-21.667 -53.333 -38 -76s-38 -39.667 -65 -51s-58.833 -17 -95.5 -17z" />
    <glyph glyph-name="cdotaccent" unicode="&#x10b;" horiz-adv-x="388" 
d="M203 646l11 110h78l-11 -110h-78zM177 -9c-32.667 0 -59.168 5.66602 -79.501 16.999s-34.333 27.166 -42 47.499s-12.167 44.5 -13.5 72.5c0 7.33301 -0.333008 15 -1 23c0 21.333 1.66699 44 5 68l15 135c4 42 9.66699 76.833 17 104.5s17.833 51.5 31.5 71.5
s31 34.5 52 43.5s46.833 13.5 77.5 13.5c30 0 54.5 -4.5 73.5 -13.5s32.667 -21.5 41 -37.5s13.5 -35.333 15.5 -58c0.666992 -8.66699 1.33398 -18 2.00098 -28c0 -15.333 -1.33301 -31.333 -4 -48l-3 -27h-67l3 27c1.33301 16.667 2 31.334 2 44.001
c0 26.667 -3.33301 46 -10 58c-10 18.667 -29.333 28 -58 28c-33.333 0 -56.5 -11.833 -69.5 -35.5s-22.833 -67.167 -29.5 -130.5l-17 -162c-2.66699 -24 -4 -45 -4 -63c0 -26.667 2.66699 -46.667 8 -60c9.33301 -23.333 30 -35 62 -35c16.667 0 30.5 2.66699 41.5 8
s20 14.333 27 27s12.167 26.834 15.5 42.501s6.33301 36.5 9 62.5l3 31h68l-3 -28c-2.66699 -25.333 -6 -47.333 -10 -66s-10.167 -36.667 -18.5 -54s-18.333 -31.5 -30 -42.5s-26.667 -19.667 -45 -26s-39.833 -9.5 -64.5 -9.5z" />
    <glyph glyph-name="Ccaron" unicode="&#x10c;" horiz-adv-x="498" 
d="M290 878l-68 166h59l47 -120l72 120h58l-103 -166h-65zM236 -10c-32 0 -59.667 4.16797 -83 12.501s-41.666 20.333 -54.999 36s-23.666 34 -30.999 55s-11.333 44.167 -12 69.5v9c0 22.667 1 46.667 3 72l34 321c3.33301 31.333 8.16602 59.333 14.499 84
s15.333 47.834 27 69.501s26 39.667 43 54s37.833 25.5 62.5 33.5s52.667 12 84 12c35.333 0 65.166 -5.33301 89.499 -16s42.5 -25.834 54.5 -45.501s20 -43.834 24 -72.501c2 -14 3.33301 -28.667 4 -44c0 -16 -1.33301 -33.333 -4 -52l-5 -49h-72l4 47
c2 20 3 38.667 3 56c0 13.333 -0.333008 25 -1 35c-2.66699 25.333 -12.167 45.166 -28.5 59.499s-41.166 21.5 -74.499 21.5c-21.333 0 -40 -3 -56 -9s-29.167 -14 -39.5 -24s-19 -23 -26 -39s-12.333 -32.5 -16 -49.5s-6.83398 -37.5 -9.50098 -61.5l-36 -344
c-2 -18.667 -3 -35.334 -3 -50.001c0 -37.333 5.33301 -66.333 16 -87c15.333 -28.667 47.333 -43 96 -43c24.667 0 45.5 4 62.5 12s30.5 20.333 40.5 37s17.5 34.834 22.5 54.501s9.16699 43.834 12.5 72.501l5 52h72l-4 -47c-4 -37.333 -10.5 -70 -19.5 -98
s-21.667 -53.333 -38 -76s-38 -39.667 -65 -51s-58.833 -17 -95.5 -17z" />
    <glyph glyph-name="ccaron" unicode="&#x10d;" horiz-adv-x="388" 
d="M209 646l-68 166h59l47 -120l72 120h58l-103 -166h-65zM177 -9c-32.667 0 -59.168 5.66602 -79.501 16.999s-34.333 27.166 -42 47.499s-12.167 44.5 -13.5 72.5c0 7.33301 -0.333008 15 -1 23c0 21.333 1.66699 44 5 68l15 135c4 42 9.66699 76.833 17 104.5
s17.833 51.5 31.5 71.5s31 34.5 52 43.5s46.833 13.5 77.5 13.5c30 0 54.5 -4.5 73.5 -13.5s32.667 -21.5 41 -37.5s13.5 -35.333 15.5 -58c0.666992 -8.66699 1.33398 -18 2.00098 -28c0 -15.333 -1.33301 -31.333 -4 -48l-3 -27h-67l3 27
c1.33301 16.667 2 31.334 2 44.001c0 26.667 -3.33301 46 -10 58c-10 18.667 -29.333 28 -58 28c-33.333 0 -56.5 -11.833 -69.5 -35.5s-22.833 -67.167 -29.5 -130.5l-17 -162c-2.66699 -24 -4 -45 -4 -63c0 -26.667 2.66699 -46.667 8 -60c9.33301 -23.333 30 -35 62 -35
c16.667 0 30.5 2.66699 41.5 8s20 14.333 27 27s12.167 26.834 15.5 42.501s6.33301 36.5 9 62.5l3 31h68l-3 -28c-2.66699 -25.333 -6 -47.333 -10 -66s-10.167 -36.667 -18.5 -54s-18.333 -31.5 -30 -42.5s-26.667 -19.667 -45 -26s-39.833 -9.5 -64.5 -9.5z" />
    <glyph glyph-name="Dcaron" unicode="&#x10e;" horiz-adv-x="520" 
d="M306 878l-68 166h59l47 -120l72 120h58l-103 -166h-65zM131 57l102.001 0.000976562c18 0 34.167 1.83301 48.5 5.5s26.666 8.5 36.999 14.5s19.5 14 27.5 24s14.667 20.167 20 30.5s10 23 14 38s7 29.333 9 43s4 30.167 6 49.5l32 302c2 21.333 3 40.666 3 57.999
c0 16 -1 30.667 -3 44c-3.33301 28 -15 49.167 -35 63.5s-49.667 21.5 -89 21.5h-99zM48.001 0.000976562l85.002 809.999h178c41.333 0 75.666 -5.66699 102.999 -17s48.166 -27.833 62.499 -49.5s23.5 -46.5 27.5 -74.5c2.66699 -14.667 4 -30.667 4 -48
c0 -15.333 -1 -31.666 -3 -48.999l-34 -322c-4 -39.333 -11.167 -73.833 -21.5 -103.5s-24.833 -55.667 -43.5 -78s-42.5 -39.333 -71.5 -51s-63.5 -17.5 -103.5 -17.5h-183z" />
    <glyph glyph-name="dcaron" unicode="&#x10f;" horiz-adv-x="412" 
d="M484 573l25 237h70l-55 -237h-40zM162 -9c-50 0 -83.665 18.668 -100.998 56.001c-12 24.667 -18 60 -18 106c0 24 1.66699 50.667 5 80l11 107c3.33301 32 7.5 60 12.5 84s11.667 46.667 20 68s18.166 38.666 29.499 51.999s25.333 23.833 42 31.5s36 11.5 58 11.5
c38 0 70 -16.667 96 -50l29 273h73l-85 -810h-73l5 42c-32.667 -34 -67.334 -51 -104.001 -51zM183.002 49.001c28 0 57.335 12.6689 88.002 38.002l41 401c-26.667 27.333 -53.667 41 -81 41c-30.667 0 -52.834 -12.833 -66.501 -38.5s-23.834 -67.834 -30.501 -126.501
l-14 -136c-2.66699 -28 -4 -53 -4 -75c0 -26.667 2.33301 -47.334 7 -62.001c8 -28 28 -42 60 -42z" />
    <glyph glyph-name="Dcroat" unicode="&#x110;" horiz-adv-x="521" 
d="M132 57h102c25.333 0 47.166 3.5 65.499 10.5s32.833 16 43.5 27s19.834 25.833 27.501 44.5s13.167 37 16.5 55s6.33301 40.667 9 68l32 302c2 20.667 3 39.667 3 57c0 16.667 -0.666992 31.667 -2 45c-4 28 -16 49.167 -36 63.5s-49.333 21.5 -88 21.5h-100l-32 -303
h81l-4 -47h-82zM50 0l41.9941 401.002h-59l5 47h59l38 362h177c32.667 0 61.334 -3.66699 86.001 -11s44.334 -17.833 59.001 -31.5s26.334 -30.334 35.001 -50.001s14 -41.834 16 -66.501v-27c0 -16.667 -0.666992 -34 -2 -52l-34 -322
c-4 -39.333 -11.167 -73.833 -21.5 -103.5s-24.666 -55.667 -42.999 -78s-42.166 -39.333 -71.499 -51s-63.666 -17.5 -102.999 -17.5h-183z" />
    <glyph glyph-name="dcroat" unicode="&#x111;" horiz-adv-x="426" 
d="M162 -9c-50 0 -83.665 18.668 -100.998 56.001c-12 24.667 -18 60 -18 106c0 24 1.66699 50.667 5 80l11 107c3.33301 32 7.5 60 12.5 84s11.667 46.667 20 68s18.166 38.666 29.499 51.999s25.333 23.833 42 31.5s36 11.5 58 11.5c38 0 70 -16.667 96 -50l16 150h-95
l5 42h95l8 81h73l-8 -81h57l-4 -42h-57l-73 -687h-73l5 42c-32.667 -34 -67.334 -51 -104.001 -51zM183.002 49.001c28 0 57.335 12.6689 88.002 38.002l41 401c-26.667 27.333 -53.667 41 -81 41c-30.667 0 -52.834 -12.833 -66.501 -38.5
s-23.834 -67.834 -30.501 -126.501l-14 -136c-2.66699 -28 -4 -53 -4 -75c0 -26.667 2.33301 -47.334 7 -62.001c8 -28 28 -42 60 -42z" />
    <glyph glyph-name="Emacron" unicode="&#x112;" 
d="M198 878l5 47h179l-5 -47h-179zM48 0l85 810h293l-6 -59h-216l-32 -303h177l-6 -57h-177l-35 -334h219l-7 -57h-295z" />
    <glyph glyph-name="emacron" unicode="&#x113;" horiz-adv-x="395" 
d="M155 647l5 47h179l-5 -47h-179zM178 -9c-55.333 0 -93.332 17.002 -113.999 51.002c-14.667 24 -22 60 -22 108c0 20.667 1.33301 43 4 67l15 146c6 56 16.5 100.667 31.5 134s34.5 56.666 58.5 69.999s54.333 20 91 20c40 0 70 -8.5 90 -25.5s32.333 -43.167 37 -78.5
c1.33301 -14.667 2.33301 -31.334 3 -50.001c0 -25.333 -1.66699 -53.333 -5 -84l-7 -53h-233l-9 -86c-2.66699 -24.667 -4 -46 -4 -64c0 -27.333 2.66699 -48.333 8 -63c9.33301 -24.667 30 -37 62 -37c25.333 0 45.666 8 60.999 24s25 45.333 29 88l5 40h72l-4 -32
c-6 -56 -22.333 -99.167 -49 -129.5s-66.667 -45.5 -120 -45.5zM132.001 338.002l161 -0.000976562l5 48c2.66699 26 4 49 4 69v9c0 22 -5.5 38.833 -16.5 50.5s-27.833 17.5 -50.5 17.5c-20.667 0 -37.167 -4.33301 -49.5 -13s-22.5 -24.167 -30.5 -46.5
s-14.333 -54.166 -19 -95.499z" />
    <glyph glyph-name="Ebreve" unicode="&#x114;" 
d="M287 878c-40 0 -69.334 10.666 -88.001 31.999c-16 18.667 -24 44.334 -24 77.001v16h47c0 -4.66699 -0.333008 -9 -1 -13c0 -45.333 23.333 -68 70 -68c50.667 0 80 27 88 81h47c-5.33301 -40 -19.666 -70.833 -42.999 -92.5s-55.333 -32.5 -96 -32.5z
M47.999 -0.000976562l85 810h293l-6 -59h-216l-32 -303h177l-6 -57h-177l-35 -334h219l-7 -57h-295z" />
    <glyph glyph-name="ebreve" unicode="&#x115;" horiz-adv-x="395" 
d="M244 647c-40 0 -69.334 10.666 -88.001 31.999c-16 18.667 -24 44.334 -24 77.001v16h47c0 -4.66699 -0.333008 -9 -1 -13c0 -45.333 23.333 -68 70 -68c50.667 0 80 27 88 81h47c-5.33301 -40 -19.666 -70.833 -42.999 -92.5s-55.333 -32.5 -96 -32.5zM177.999 -9.00098
c-55.333 0 -93.332 17.002 -113.999 51.002c-14.667 24 -22 60 -22 108c0 20.667 1.33301 43 4 67l15 146c6 56 16.5 100.667 31.5 134s34.5 56.666 58.5 69.999s54.333 20 91 20c40 0 70 -8.5 90 -25.5s32.333 -43.167 37 -78.5c1.33301 -14.667 2.33301 -31.334 3 -50.001
c0 -25.333 -1.66699 -53.333 -5 -84l-7 -53h-233l-9 -86c-2.66699 -24.667 -4 -46 -4 -64c0 -27.333 2.66699 -48.333 8 -63c9.33301 -24.667 30 -37 62 -37c25.333 0 45.666 8 60.999 24s25 45.333 29 88l5 40h72l-4 -32c-6 -56 -22.333 -99.167 -49 -129.5
s-66.667 -45.5 -120 -45.5zM132 338.001l161 -0.000976562l5 48c2.66699 26 4 49 4 69v9c0 22 -5.5 38.833 -16.5 50.5s-27.833 17.5 -50.5 17.5c-20.667 0 -37.167 -4.33301 -49.5 -13s-22.5 -24.167 -30.5 -46.5s-14.333 -54.166 -19 -95.499z" />
    <glyph glyph-name="Edotaccent" unicode="&#x116;" 
d="M249 878l11 110h78l-11 -110h-78zM48 0l85 810h293l-6 -59h-216l-32 -303h177l-6 -57h-177l-35 -334h219l-7 -57h-295z" />
    <glyph glyph-name="edotaccent" unicode="&#x117;" horiz-adv-x="395" 
d="M206 646l11 110h78l-11 -110h-78zM178 -9c-55.333 0 -93.332 17.002 -113.999 51.002c-14.667 24 -22 60 -22 108c0 20.667 1.33301 43 4 67l15 146c6 56 16.5 100.667 31.5 134s34.5 56.666 58.5 69.999s54.333 20 91 20c40 0 70 -8.5 90 -25.5s32.333 -43.167 37 -78.5
c1.33301 -14.667 2.33301 -31.334 3 -50.001c0 -25.333 -1.66699 -53.333 -5 -84l-7 -53h-233l-9 -86c-2.66699 -24.667 -4 -46 -4 -64c0 -27.333 2.66699 -48.333 8 -63c9.33301 -24.667 30 -37 62 -37c25.333 0 45.666 8 60.999 24s25 45.333 29 88l5 40h72l-4 -32
c-6 -56 -22.333 -99.167 -49 -129.5s-66.667 -45.5 -120 -45.5zM132.001 338.002l161 -0.000976562l5 48c2.66699 26 4 49 4 69v9c0 22 -5.5 38.833 -16.5 50.5s-27.833 17.5 -50.5 17.5c-20.667 0 -37.167 -4.33301 -49.5 -13s-22.5 -24.167 -30.5 -46.5
s-14.333 -54.166 -19 -95.499z" />
    <glyph glyph-name="Eogonek" unicode="&#x118;" 
d="M234 -209c-47.333 0 -82 6 -104 18c-20 11.333 -30 29 -30 53v11c2.66699 26 14.667 51.333 36 76s44.333 42.334 69 53.001h39c-55.333 -53.333 -84.333 -95.333 -87 -126c-0.666992 -10 1.5 -18.333 6.5 -25s12.5 -11.334 22.5 -14.001s20 -4.5 30 -5.5
s21.667 -1.5 35 -1.5zM48 0l85 810h293l-6 -59h-216l-32 -303h177l-6 -57h-177l-35 -334h219l-7 -57h-295z" />
    <glyph glyph-name="eogonek" unicode="&#x119;" horiz-adv-x="395" 
d="M238 -209c-47.333 0 -82 6 -104 18c-20 11.333 -30 29 -30 53v11c2.66699 26 14.667 51.333 36 76s44.333 42.334 69 53.001h39c-55.333 -53.333 -84.333 -95.333 -87 -126c-0.666992 -10 1.5 -18.333 6.5 -25s12.5 -11.334 22.5 -14.001s20 -4.5 30 -5.5
s21.667 -1.5 35 -1.5zM178 -9c-55.333 0 -93.332 17.002 -113.999 51.002c-14.667 24 -22 60 -22 108c0 20.667 1.33301 43 4 67l15 146c6 56 16.5 100.667 31.5 134s34.5 56.666 58.5 69.999s54.333 20 91 20c40 0 70 -8.5 90 -25.5s32.333 -43.167 37 -78.5
c1.33301 -14.667 2.33301 -31.334 3 -50.001c0 -25.333 -1.66699 -53.333 -5 -84l-7 -53h-233l-9 -86c-2.66699 -24.667 -4 -46 -4 -64c0 -27.333 2.66699 -48.333 8 -63c9.33301 -24.667 30 -37 62 -37c25.333 0 45.666 8 60.999 24s25 45.333 29 88l5 40h72l-4 -32
c-6 -56 -22.333 -99.167 -49 -129.5s-66.667 -45.5 -120 -45.5zM132.001 338.002l161 -0.000976562l5 48c2.66699 26 4 49 4 69v9c0 22 -5.5 38.833 -16.5 50.5s-27.833 17.5 -50.5 17.5c-20.667 0 -37.167 -4.33301 -49.5 -13s-22.5 -24.167 -30.5 -46.5
s-14.333 -54.166 -19 -95.499z" />
    <glyph glyph-name="Ecaron" unicode="&#x11a;" 
d="M255 878l-68 166h59l47 -120l72 120h58l-103 -166h-65zM48 0l85 810h293l-6 -59h-216l-32 -303h177l-6 -57h-177l-35 -334h219l-7 -57h-295z" />
    <glyph glyph-name="ecaron" unicode="&#x11b;" horiz-adv-x="395" 
d="M212 646l-68 166h59l47 -120l72 120h58l-103 -166h-65zM178 -9c-55.333 0 -93.332 17.002 -113.999 51.002c-14.667 24 -22 60 -22 108c0 20.667 1.33301 43 4 67l15 146c6 56 16.5 100.667 31.5 134s34.5 56.666 58.5 69.999s54.333 20 91 20c40 0 70 -8.5 90 -25.5
s32.333 -43.167 37 -78.5c1.33301 -14.667 2.33301 -31.334 3 -50.001c0 -25.333 -1.66699 -53.333 -5 -84l-7 -53h-233l-9 -86c-2.66699 -24.667 -4 -46 -4 -64c0 -27.333 2.66699 -48.333 8 -63c9.33301 -24.667 30 -37 62 -37c25.333 0 45.666 8 60.999 24
s25 45.333 29 88l5 40h72l-4 -32c-6 -56 -22.333 -99.167 -49 -129.5s-66.667 -45.5 -120 -45.5zM132.001 338.002l161 -0.000976562l5 48c2.66699 26 4 49 4 69v9c0 22 -5.5 38.833 -16.5 50.5s-27.833 17.5 -50.5 17.5c-20.667 0 -37.167 -4.33301 -49.5 -13
s-22.5 -24.167 -30.5 -46.5s-14.333 -54.166 -19 -95.499z" />
    <glyph glyph-name="Gcircumflex" unicode="&#x11c;" horiz-adv-x="519" 
d="M200 878l105 178h82l66 -178h-53l-58 141l-88 -141h-54zM231 -11c-37.333 0 -68.6719 6.16699 -94.0049 18.5s-44.166 29.833 -56.499 52.5s-20.166 49.667 -23.499 81c-1.33301 14 -2.33301 29 -3 45c0 19.333 1.33301 39.666 4 60.999l33 316
c4 41.333 10.833 76.833 20.5 106.5s23.334 56 41.001 79s40.667 40.333 69 52s62.166 17.5 101.499 17.5c70 0 118 -19.333 144 -58c20 -29.333 30 -70.333 30 -123c0 -16 -1 -33.333 -3 -52l-3 -28h-72l3 28c2 19.333 3 37.333 3 54c0 15.333 -0.666992 29.333 -2 42
c-4 26 -14.333 45.333 -31 58s-41.334 19 -74.001 19c-22 0 -41.167 -3.16699 -57.5 -9.5s-29.666 -14.666 -39.999 -24.999s-19.166 -23.833 -26.499 -40.5s-12.666 -33.667 -15.999 -51s-6.33301 -38 -9 -62l-35 -332c-2 -20 -3 -38.667 -3 -56c0 -16 1 -31 3 -45
c3.33301 -28 14 -49.333 32 -64s44.333 -22 79 -22c47.333 0 81.833 15.5 103.5 46.5s35.834 78.5 42.501 142.5l10 95h-119l6 57h190l-42 -392h-49l1 92c-30 -68.667 -82.333 -103 -157 -103z" />
    <glyph glyph-name="gcircumflex" unicode="&#x11d;" horiz-adv-x="431" 
d="M149 646l105 178h82l66 -178h-53l-58 141l-88 -141h-54zM172 -190c-30.667 0 -57.3311 1.66406 -79.998 4.99707s-42.667 8.66602 -60 15.999s-30 17.333 -38 30c-6.66699 10.667 -10 23.334 -10 38.001v9c2.66699 28 14.667 53.667 36 77s46.333 42 75 56
c-16.667 4.66699 -31 11.667 -43 21c-10.667 8.66699 -16 17.667 -16 27v3c3.33301 30.667 30.333 69.334 81 116.001c-37.333 29.333 -56 75.333 -56 138c0 12.667 0.666992 25.667 2 39c2.66699 28 8.66699 54 18 78s21.333 45.333 36 64s33 33.334 55 44.001
s46.667 16 74 16c58 0 96.667 -24 116 -72c7.33301 10.667 19 22.334 35 35.001s32.667 22.667 50 30l16 6l14 -51c-16.667 -4 -35.334 -11 -56.001 -21s-35.334 -20 -44.001 -30c3.33301 -12 6 -28.333 8 -49c0.666992 -10 1 -19 1 -27
c0 -9.33301 -0.666992 -17.666 -2 -24.999c-6.66699 -62 -24.5 -111.167 -53.5 -147.5s-71.167 -54.5 -126.5 -54.5c-9.33301 0 -20.166 1.16699 -32.499 3.5s-20.833 4.16602 -25.5 5.49902c-1.33301 -2 -5.5 -7.5 -12.5 -16.5s-12.5 -16 -16.5 -21s-8 -11.167 -12 -18.5
c-4.66699 -8 -6.66699 -14.667 -6 -20c0 -8.66699 15.333 -15.667 46 -21c6.66699 -1.33301 22.5 -4 47.5 -8s39.5 -6.33301 43.5 -7c46.667 -8 81 -22.667 103 -44c18.667 -18 28 -42.333 28 -73c0 -5.33301 -0.333008 -11 -1 -17
c-4.66699 -46 -24.334 -79.833 -59.001 -101.5s-79.667 -32.5 -135 -32.5zM178.003 -131.003c38 0 68.501 6.00098 91.501 18.001s35.833 30.333 38.5 55v9c0 16.667 -5.66699 30.334 -17 41.001c-14 12 -42 21.667 -84 29l-73 10c-20 -12 -38.333 -26.333 -55 -43
s-26.334 -35.334 -29.001 -56.001v-7c0 -18.667 9 -32.334 27 -41.001c20 -10 53.667 -15 101 -15zM209.004 233.998c16 0 30.3311 3.00098 42.998 9.00098s22.834 13.833 30.501 23.5s14.334 21.5 20.001 35.5s9.66699 27.333 12 40s4.16602 27 5.49902 43
c1.33301 14 2.33301 27.333 3 40c0 72.667 -27.333 109.334 -82 110.001c-19.333 0 -36.166 -4.66699 -50.499 -14s-25.5 -21.833 -33.5 -37.5s-14.333 -31.334 -19 -47.001s-8 -32.834 -10 -51.501c-1.33301 -14 -2 -27 -2 -39c0 -74.667 27.667 -112 83 -112z" />
    <glyph glyph-name="Gbreve" unicode="&#x11e;" horiz-adv-x="519" 
d="M326 878c-40 0 -69.334 10.666 -88.001 31.999c-16 18.667 -24 44.334 -24 77.001v16h47c0 -4.66699 -0.333008 -9 -1 -13c0 -45.333 23.333 -68 70 -68c50.667 0 80 27 88 81h47c-5.33301 -40 -19.666 -70.833 -42.999 -92.5s-55.333 -32.5 -96 -32.5zM230.999 -11.001
c-37.333 0 -68.6719 6.16699 -94.0049 18.5s-44.166 29.833 -56.499 52.5s-20.166 49.667 -23.499 81c-1.33301 14 -2.33301 29 -3 45c0 19.333 1.33301 39.666 4 60.999l33 316c4 41.333 10.833 76.833 20.5 106.5s23.334 56 41.001 79s40.667 40.333 69 52
s62.166 17.5 101.499 17.5c70 0 118 -19.333 144 -58c20 -29.333 30 -70.333 30 -123c0 -16 -1 -33.333 -3 -52l-3 -28h-72l3 28c2 19.333 3 37.333 3 54c0 15.333 -0.666992 29.333 -2 42c-4 26 -14.333 45.333 -31 58s-41.334 19 -74.001 19
c-22 0 -41.167 -3.16699 -57.5 -9.5s-29.666 -14.666 -39.999 -24.999s-19.166 -23.833 -26.499 -40.5s-12.666 -33.667 -15.999 -51s-6.33301 -38 -9 -62l-35 -332c-2 -20 -3 -38.667 -3 -56c0 -16 1 -31 3 -45c3.33301 -28 14 -49.333 32 -64s44.333 -22 79 -22
c47.333 0 81.833 15.5 103.5 46.5s35.834 78.5 42.501 142.5l10 95h-119l6 57h190l-42 -392h-49l1 92c-30 -68.667 -82.333 -103 -157 -103z" />
    <glyph glyph-name="gbreve" unicode="&#x11f;" horiz-adv-x="431" 
d="M275 647c-40 0 -69.334 10.666 -88.001 31.999c-16 18.667 -24 44.334 -24 77.001v16h47c0 -4.66699 -0.333008 -9 -1 -13c0 -45.333 23.333 -68 70 -68c50.667 0 80 27 88 81h47c-5.33301 -40 -19.666 -70.833 -42.999 -92.5s-55.333 -32.5 -96 -32.5zM171.999 -190.001
c-30.667 0 -57.3311 1.66406 -79.998 4.99707s-42.667 8.66602 -60 15.999s-30 17.333 -38 30c-6.66699 10.667 -10 23.334 -10 38.001v9c2.66699 28 14.667 53.667 36 77s46.333 42 75 56c-16.667 4.66699 -31 11.667 -43 21c-10.667 8.66699 -16 17.667 -16 27v3
c3.33301 30.667 30.333 69.334 81 116.001c-37.333 29.333 -56 75.333 -56 138c0 12.667 0.666992 25.667 2 39c2.66699 28 8.66699 54 18 78s21.333 45.333 36 64s33 33.334 55 44.001s46.667 16 74 16c58 0 96.667 -24 116 -72c7.33301 10.667 19 22.334 35 35.001
s32.667 22.667 50 30l16 6l14 -51c-16.667 -4 -35.334 -11 -56.001 -21s-35.334 -20 -44.001 -30c3.33301 -12 6 -28.333 8 -49c0.666992 -10 1 -19 1 -27c0 -9.33301 -0.666992 -17.666 -2 -24.999c-6.66699 -62 -24.5 -111.167 -53.5 -147.5s-71.167 -54.5 -126.5 -54.5
c-9.33301 0 -20.166 1.16699 -32.499 3.5s-20.833 4.16602 -25.5 5.49902c-1.33301 -2 -5.5 -7.5 -12.5 -16.5s-12.5 -16 -16.5 -21s-8 -11.167 -12 -18.5c-4.66699 -8 -6.66699 -14.667 -6 -20c0 -8.66699 15.333 -15.667 46 -21c6.66699 -1.33301 22.5 -4 47.5 -8
s39.5 -6.33301 43.5 -7c46.667 -8 81 -22.667 103 -44c18.667 -18 28 -42.333 28 -73c0 -5.33301 -0.333008 -11 -1 -17c-4.66699 -46 -24.334 -79.833 -59.001 -101.5s-79.667 -32.5 -135 -32.5zM178.002 -131.004c38 0 68.501 6.00098 91.501 18.001
s35.833 30.333 38.5 55v9c0 16.667 -5.66699 30.334 -17 41.001c-14 12 -42 21.667 -84 29l-73 10c-20 -12 -38.333 -26.333 -55 -43s-26.334 -35.334 -29.001 -56.001v-7c0 -18.667 9 -32.334 27 -41.001c20 -10 53.667 -15 101 -15zM209.003 233.997
c16 0 30.3311 3.00098 42.998 9.00098s22.834 13.833 30.501 23.5s14.334 21.5 20.001 35.5s9.66699 27.333 12 40s4.16602 27 5.49902 43c1.33301 14 2.33301 27.333 3 40c0 72.667 -27.333 109.334 -82 110.001c-19.333 0 -36.166 -4.66699 -50.499 -14
s-25.5 -21.833 -33.5 -37.5s-14.333 -31.334 -19 -47.001s-8 -32.834 -10 -51.501c-1.33301 -14 -2 -27 -2 -39c0 -74.667 27.667 -112 83 -112z" />
    <glyph glyph-name="Gdotaccent" unicode="&#x120;" horiz-adv-x="519" 
d="M288 878l11 110h78l-11 -110h-78zM231 -11c-37.333 0 -68.6719 6.16699 -94.0049 18.5s-44.166 29.833 -56.499 52.5s-20.166 49.667 -23.499 81c-1.33301 14 -2.33301 29 -3 45c0 19.333 1.33301 39.666 4 60.999l33 316c4 41.333 10.833 76.833 20.5 106.5
s23.334 56 41.001 79s40.667 40.333 69 52s62.166 17.5 101.499 17.5c70 0 118 -19.333 144 -58c20 -29.333 30 -70.333 30 -123c0 -16 -1 -33.333 -3 -52l-3 -28h-72l3 28c2 19.333 3 37.333 3 54c0 15.333 -0.666992 29.333 -2 42c-4 26 -14.333 45.333 -31 58
s-41.334 19 -74.001 19c-22 0 -41.167 -3.16699 -57.5 -9.5s-29.666 -14.666 -39.999 -24.999s-19.166 -23.833 -26.499 -40.5s-12.666 -33.667 -15.999 -51s-6.33301 -38 -9 -62l-35 -332c-2 -20 -3 -38.667 -3 -56c0 -16 1 -31 3 -45c3.33301 -28 14 -49.333 32 -64
s44.333 -22 79 -22c47.333 0 81.833 15.5 103.5 46.5s35.834 78.5 42.501 142.5l10 95h-119l6 57h190l-42 -392h-49l1 92c-30 -68.667 -82.333 -103 -157 -103z" />
    <glyph glyph-name="gdotaccent" unicode="&#x121;" horiz-adv-x="431" 
d="M237 646l11 110h78l-11 -110h-78zM172 -190c-30.667 0 -57.3311 1.66406 -79.998 4.99707s-42.667 8.66602 -60 15.999s-30 17.333 -38 30c-6.66699 10.667 -10 23.334 -10 38.001v9c2.66699 28 14.667 53.667 36 77s46.333 42 75 56c-16.667 4.66699 -31 11.667 -43 21
c-10.667 8.66699 -16 17.667 -16 27v3c3.33301 30.667 30.333 69.334 81 116.001c-37.333 29.333 -56 75.333 -56 138c0 12.667 0.666992 25.667 2 39c2.66699 28 8.66699 54 18 78s21.333 45.333 36 64s33 33.334 55 44.001s46.667 16 74 16c58 0 96.667 -24 116 -72
c7.33301 10.667 19 22.334 35 35.001s32.667 22.667 50 30l16 6l14 -51c-16.667 -4 -35.334 -11 -56.001 -21s-35.334 -20 -44.001 -30c3.33301 -12 6 -28.333 8 -49c0.666992 -10 1 -19 1 -27c0 -9.33301 -0.666992 -17.666 -2 -24.999
c-6.66699 -62 -24.5 -111.167 -53.5 -147.5s-71.167 -54.5 -126.5 -54.5c-9.33301 0 -20.166 1.16699 -32.499 3.5s-20.833 4.16602 -25.5 5.49902c-1.33301 -2 -5.5 -7.5 -12.5 -16.5s-12.5 -16 -16.5 -21s-8 -11.167 -12 -18.5c-4.66699 -8 -6.66699 -14.667 -6 -20
c0 -8.66699 15.333 -15.667 46 -21c6.66699 -1.33301 22.5 -4 47.5 -8s39.5 -6.33301 43.5 -7c46.667 -8 81 -22.667 103 -44c18.667 -18 28 -42.333 28 -73c0 -5.33301 -0.333008 -11 -1 -17c-4.66699 -46 -24.334 -79.833 -59.001 -101.5s-79.667 -32.5 -135 -32.5z
M178.003 -131.003c38 0 68.501 6.00098 91.501 18.001s35.833 30.333 38.5 55v9c0 16.667 -5.66699 30.334 -17 41.001c-14 12 -42 21.667 -84 29l-73 10c-20 -12 -38.333 -26.333 -55 -43s-26.334 -35.334 -29.001 -56.001v-7c0 -18.667 9 -32.334 27 -41.001
c20 -10 53.667 -15 101 -15zM209.004 233.998c16 0 30.3311 3.00098 42.998 9.00098s22.834 13.833 30.501 23.5s14.334 21.5 20.001 35.5s9.66699 27.333 12 40s4.16602 27 5.49902 43c1.33301 14 2.33301 27.333 3 40c0 72.667 -27.333 109.334 -82 110.001
c-19.333 0 -36.166 -4.66699 -50.499 -14s-25.5 -21.833 -33.5 -37.5s-14.333 -31.334 -19 -47.001s-8 -32.834 -10 -51.501c-1.33301 -14 -2 -27 -2 -39c0 -74.667 27.667 -112 83 -112z" />
    <glyph glyph-name="Gcommaaccent" unicode="&#x122;" horiz-adv-x="519" 
d="M182 -268l-15 33.001c32 12.667 50 38 54 76h-42l9 88h82l-9 -78c-4 -35.333 -11.667 -62.333 -23 -81s-30 -31.334 -56 -38.001zM231 -10.999c-37.333 0 -68.6719 6.16699 -94.0049 18.5s-44.166 29.833 -56.499 52.5s-20.166 49.667 -23.499 81
c-1.33301 14 -2.33301 29 -3 45c0 19.333 1.33301 39.666 4 60.999l33 316c4 41.333 10.833 76.833 20.5 106.5s23.334 56 41.001 79s40.667 40.333 69 52s62.166 17.5 101.499 17.5c70 0 118 -19.333 144 -58c20 -29.333 30 -70.333 30 -123c0 -16 -1 -33.333 -3 -52
l-3 -28h-72l3 28c2 19.333 3 37.333 3 54c0 15.333 -0.666992 29.333 -2 42c-4 26 -14.333 45.333 -31 58s-41.334 19 -74.001 19c-22 0 -41.167 -3.16699 -57.5 -9.5s-29.666 -14.666 -39.999 -24.999s-19.166 -23.833 -26.499 -40.5s-12.666 -33.667 -15.999 -51
s-6.33301 -38 -9 -62l-35 -332c-2 -20 -3 -38.667 -3 -56c0 -16 1 -31 3 -45c3.33301 -28 14 -49.333 32 -64s44.333 -22 79 -22c47.333 0 81.833 15.5 103.5 46.5s35.834 78.5 42.501 142.5l10 95h-119l6 57h190l-42 -392h-49l1 92c-30 -68.667 -82.333 -103 -157 -103z
" />
    <glyph glyph-name="gcommaaccent" unicode="&#x123;" horiz-adv-x="439" 
d="M166 -195c-39.333 0 -73.0029 3.83887 -101.003 11.5059s-49.667 19.834 -65 36.501c-12.667 14 -19 31 -19 51v11c2.66699 24.667 15.5 48.334 38.5 71.001s49.833 42 80.5 58c-13.333 4 -24.5 7.83301 -33.5 11.5s-17.667 8.5 -26 14.5s-12.5 12 -12.5 18
c0.666992 28.667 30 71.667 88 129c-39.333 29.333 -59 75 -59 137c0 10.667 0.666992 21.667 2 33c2.66699 25.333 8.66699 49.666 18 72.999s22 44.666 38 63.999s36 34.833 60 46.5s50.333 17.5 79 17.5c56.667 0 98.334 -24.333 125.001 -73
c10.667 15.333 23.667 29.166 39 41.499s30.666 21.5 45.999 27.5l17 7l14 -41c-32.667 -8.66699 -65.667 -29.667 -99 -63c4.66699 -12.667 8.33398 -28.667 11.001 -48c1.33301 -11.333 2 -22 2 -32c0 -6.66699 -0.333008 -13.334 -1 -20.001
c-6 -60.667 -25.333 -109.5 -58 -146.5s-77 -55.5 -133 -55.5c-28 0 -52.333 4.66699 -73 14c-2 -2.66699 -6.66699 -8.5 -14 -17.5s-13.166 -16.333 -17.499 -22s-9.16602 -12.334 -14.499 -20.001s-9.5 -14.5 -12.5 -20.5s-4.5 -11 -4.5 -15c0 -4.66699 15.667 -11 47 -19
c13.333 -3.33301 48.333 -11 105 -23c53.333 -12.667 92 -28.334 116 -47.001c20 -16.667 30 -39 30 -67c0 -4.66699 -0.333008 -9.33398 -1 -14.001c-2.66699 -27.333 -14 -50.833 -34 -70.5s-45.167 -34.334 -75.5 -44.001s-64.5 -14.5 -102.5 -14.5zM275.997 731.006
l8 68.999c3.33301 35.333 11.666 63 24.999 83s33.333 35.667 60 47l5 -19c-16.667 -12 -29.667 -26.667 -39 -44s-14.666 -33.666 -15.999 -48.999h44l-9 -87h-78zM170.997 -148.995c41.333 0 75.665 6.5 102.998 19.5s42.666 32.5 45.999 58.5
c0.666992 4.66699 1 9.33398 1 14.001c0 9.33301 -2 17.333 -6 24c-4.66699 10 -15.667 19.333 -33 28s-42.666 17 -75.999 25l-59 12c-12.667 -7.33301 -23.167 -14 -31.5 -20s-18.333 -13.833 -30 -23.5s-20.667 -20.167 -27 -31.5s-10.166 -23 -11.499 -35
c0 -2.66699 -0.333008 -5.33398 -1 -8.00098c0 -20 10 -35 30 -45c22.667 -12 54.334 -18 95.001 -18zM218.996 229.005c70 0 110.666 53.666 121.999 160.999c0.666992 12 1 24.667 1 38v3c0 12.667 -1.66699 25.334 -5 38.001c-3.33301 14 -8.16602 26.5 -14.499 37.5
s-15.666 20 -27.999 27s-27.166 10.5 -44.499 10.5c-20.667 0 -39 -5.66699 -55 -17s-28.333 -25.666 -37 -42.999s-15.334 -33.833 -20.001 -49.5s-7.66699 -30.5 -9 -44.5c-0.666992 -12.667 -1.33398 -26 -2.00098 -40c0 -2.66699 -0.333008 -5.33398 -1 -8.00098
c0 -11.333 1.66699 -23 5 -35c3.33301 -14 7.83301 -26.833 13.5 -38.5s15 -21.167 28 -28.5s28.5 -11 46.5 -11z" />
    <glyph glyph-name="Hcircumflex" unicode="&#x124;" horiz-adv-x="548" 
d="M217 878l105 178h82l66 -178h-53l-58 141l-88 -141h-54zM48 0l85 810h77l-38 -359h255l38 359h77l-85 -810h-77l41 395h-254l-42 -395h-77z" />
    <glyph glyph-name="hcircumflex" unicode="&#x125;" horiz-adv-x="412" 
d="M151 869l105 178h82l66 -178h-53l-58 141l-88 -141h-54zM35 0l84.998 810.001h73l-30 -292c48 46 97.333 69 148 69c28.667 0 49.334 -10.667 62.001 -32c10 -16 15 -37.333 15 -64c0 -8.66699 -0.333008 -17.667 -1 -27l-49 -464h-74l48 448c0.666992 8 1 15.667 1 23
c0 17.333 -2.66699 30.666 -8 39.999c-7.33301 12.667 -20.666 18.667 -39.999 18c-32 0 -67.667 -17.667 -107 -53l-50 -476h-73z" />
    <glyph glyph-name="Hbar" unicode="&#x126;" horiz-adv-x="548" 
d="M48 0l67 632h-41l4 42h41l14 136h77l-14 -136h255l14 136h77l-15 -136h42l-5 -42h-41l-66 -632h-77l41 395h-254l-42 -395h-77zM172 451h255l19 181h-255z" />
    <glyph glyph-name="hbar" unicode="&#x127;" horiz-adv-x="411" 
d="M35 0l73 697.001h-65l5 44h65l7 69h73l-7 -69h120l-5 -44h-120l-18 -179c48 46 97 69 147 69c28.667 0 49.667 -10.667 63 -32c10 -16 15 -37.333 15 -64c0 -8.66699 -0.666992 -17.667 -2 -27l-49 -464h-73l47 448c0.666992 8 1 15.667 1 23
c0 17.333 -2.66699 30.666 -8 39.999c-7.33301 12.667 -20.333 18.667 -39 18c-32 0 -67.667 -17.667 -107 -53l-50 -476h-73z" />
    <glyph glyph-name="Itilde" unicode="&#x128;" horiz-adv-x="221" 
d="M233 878c-14 0.666992 -32.167 8.49609 -54.5 23.4961s-37.166 22.833 -44.499 23.5c-10 1.33301 -18.167 -1.16699 -24.5 -7.5s-10.166 -16.833 -11.499 -31.5h-46c0.666992 7.33301 2.16699 14.833 4.5 22.5s5.66602 15.834 9.99902 24.501s9.66602 16.167 15.999 22.5
s14.5 11.166 24.5 14.499c7.33301 2.66699 15.333 3.66699 24 3h10c10.667 -0.666992 22.5 -4.66699 35.5 -12s25.167 -14.666 36.5 -21.999s20.333 -11.333 27 -12c10.667 -1.33301 19 1.33398 25 8.00098s10 18.334 12 35.001h44
c-1.33301 -11.333 -3.33301 -21.833 -6 -31.5s-7.16699 -19.667 -13.5 -30s-15.5 -18.166 -27.5 -23.499c-9.33301 -4.66699 -20 -7 -32 -7h-9zM52 -0.00390625l85 810h75l-85 -810h-75z" />
    <glyph glyph-name="itilde" unicode="&#x129;" horiz-adv-x="197" 
d="M197 647c-14 0.666992 -32.167 8.49609 -54.5 23.4961s-37.166 22.833 -44.499 23.5c-10 1.33301 -18.167 -1.16699 -24.5 -7.5s-10.166 -16.833 -11.499 -31.5h-46c0.666992 7.33301 2.16699 14.833 4.5 22.5s5.66602 15.834 9.99902 24.501s9.66602 16.167 15.999 22.5
s14.5 11.166 24.5 14.499c7.33301 2.66699 15.333 3.66699 24 3h10c10.667 -0.666992 22.5 -4.66699 35.5 -12s25.167 -14.666 36.5 -21.999s20.333 -11.333 27 -12c10.667 -1.33301 19 1.33398 25 8.00098s10 18.334 12 35.001h44
c-1.33301 -11.333 -3.33301 -21.833 -6 -31.5s-7.16699 -19.667 -13.5 -30s-15.5 -18.166 -27.5 -23.499c-9.33301 -4.66699 -20 -7 -32 -7h-9zM42 -0.00390625l60 578h73l-60 -578h-73z" />
    <glyph glyph-name="Imacron" unicode="&#x12a;" horiz-adv-x="221" 
d="M91 878l5 47h179l-5 -47h-179zM52 0l85 810h75l-85 -810h-75z" />
    <glyph glyph-name="imacron" unicode="&#x12b;" horiz-adv-x="197" 
d="M56 647l5 47h179l-5 -47h-179zM42 0l60 578h73l-60 -578h-73z" />
    <glyph glyph-name="Ibreve" unicode="&#x12c;" horiz-adv-x="221" 
d="M181 878c-40 0 -69.334 10.666 -88.001 31.999c-16 18.667 -24 44.334 -24 77.001v16h47c0 -4.66699 -0.333008 -9 -1 -13c0 -45.333 23.333 -68 70 -68c50.667 0 80 27 88 81h47c-5.33301 -40 -19.666 -70.833 -42.999 -92.5s-55.333 -32.5 -96 -32.5z
M51.999 -0.000976562l85 810h75l-85 -810h-75z" />
    <glyph glyph-name="ibreve" unicode="&#x12d;" horiz-adv-x="197" 
d="M145 647c-40 0 -69.334 10.666 -88.001 31.999c-16 18.667 -24 44.334 -24 77.001v16h47c0 -4.66699 -0.333008 -9 -1 -13c0 -45.333 23.333 -68 70 -68c50.667 0 80 27 88 81h47c-5.33301 -40 -19.666 -70.833 -42.999 -92.5s-55.333 -32.5 -96 -32.5z
M41.999 -0.000976562l60 578h73l-60 -578h-73z" />
    <glyph glyph-name="Iogonek" unicode="&#x12e;" horiz-adv-x="221" 
d="M92 -209c-47.333 0 -82 6 -104 18c-20 11.333 -30 29 -30 53v11c2.66699 26 14.667 51.333 36 76s44.333 42.334 69 53.001h39c-55.333 -53.333 -84.333 -95.333 -87 -126c-0.666992 -10 1.5 -18.333 6.5 -25s12.5 -11.334 22.5 -14.001s20 -4.5 30 -5.5
s21.667 -1.5 35 -1.5zM52 0l85 810h75l-85 -810h-75z" />
    <glyph glyph-name="iogonek" unicode="&#x12f;" horiz-adv-x="204" 
d="M80 -209c-47.333 0 -82 6 -104 18c-20 11.333 -30 29 -30 53v11c2.66699 26 14.667 51.333 36 76s44.333 42.334 69 53.001h39c-55.333 -53.333 -84.333 -95.333 -87 -126c-0.666992 -10 1.5 -18.333 6.5 -25s12.5 -11.334 22.5 -14.001s20 -4.5 30 -5.5
s21.667 -1.5 35 -1.5zM42 0l61 578h73l-61 -578h-73zM111 658l11 99h73l-10 -99h-74z" />
    <glyph glyph-name="Idotaccent" unicode="&#x130;" horiz-adv-x="221" 
d="M143 878l11 110h78l-11 -110h-78zM52 0l85 810h75l-85 -810h-75z" />
    <glyph glyph-name="dotlessi" unicode="&#x131;" horiz-adv-x="197" 
d="M42 0l60 578h73l-60 -578h-73z" />
    <glyph glyph-name="ij" unicode="&#x133;" horiz-adv-x="416" 
d="M150 -148l6.00195 56.002c3.33301 -0.666992 11.666 -1.33398 24.999 -2.00098c14.667 0 26.834 2 36.501 6s17.167 10.167 22.5 18.5s9.16602 16.666 11.499 24.999s4.16602 18.5 5.49902 30.5l62 592h73l-63 -598c-8.66699 -87.333 -55.667 -131 -141 -131
c-20 0 -32.667 1 -38 3zM328.002 658.002l10 99h74l-11 -99h-73zM42.002 0.00195312l61 578h73l-61 -578h-73zM111.002 658.002l11 99h73l-10 -99h-74z" />
    <glyph glyph-name="Jcircumflex" unicode="&#x134;" horiz-adv-x="278" 
d="M86 913l105 178h82l66 -178h-53l-58 141l-88 -141h-54zM-18 -36l6 58.002c19.333 0 35.333 0.666992 48 2s24.167 4.16602 34.5 8.49902s18.333 9.5 24 15.5s10.667 14.667 15 26s7.66602 23.666 9.99902 36.999s4.5 30.666 6.5 51.999l68 647h77l-68 -652
c-3.33301 -28 -7.16602 -51.667 -11.499 -71s-10.833 -37.333 -19.5 -54s-19.5 -29.667 -32.5 -39s-29.333 -16.666 -49 -21.999s-43.167 -8 -70.5 -8h-38z" />
    <glyph glyph-name="jcircumflex" unicode="&#x135;" horiz-adv-x="212" 
d="M26 669l105 178h82l66 -178h-53l-58 141l-88 -141h-54zM-55 -155l6.00098 55.001c3.33301 -0.666992 11.666 -1 24.999 -1c14.667 0 26.834 2 36.501 6s17.167 10.167 22.5 18.5s9.16602 16.666 11.499 24.999s4.16602 18.5 5.49902 30.5l63 599h73l-63 -605
c-9.33301 -87.333 -56.666 -131.333 -141.999 -132c-20 0.666992 -32.667 2 -38 4z" />
    <glyph glyph-name="Kcommaaccent" unicode="&#x136;" horiz-adv-x="473" 
d="M197 -257l-15 33.001c32 12.667 50 38 54 76h-42l9 88h82l-9 -78c-4 -35.333 -11.667 -62.333 -23 -81s-30 -31.334 -56 -38.001zM48 0.000976562l85 810h77l-45 -427l261 427h74l-204 -348l154 -462h-75l-140 422l-78 -121l-32 -301h-77z" />
    <glyph glyph-name="kcommaaccent" unicode="&#x137;" horiz-adv-x="400" 
d="M155 -257l-15 33.001c32 12.667 50 38 54 76h-42l9 88h82l-9 -78c-4 -35.333 -11.667 -62.333 -23 -81s-30 -31.334 -56 -38.001zM35 1.00098l85 810h73l-54 -515l222 282h78l-169 -223l102 -355h-74l-88 314l-79 -95l-23 -218h-73z" />
    <glyph glyph-name="kgreenlandic" unicode="&#x138;" horiz-adv-x="417" 
d="M40 0l61 578h73l-30 -284l213 284h76l-166 -224l108 -354h-75l-89 305l-76 -96l-22 -209h-73z" />
    <glyph glyph-name="Lacute" unicode="&#x139;" horiz-adv-x="382" 
d="M275 878l83 196h73l-118 -196h-38zM48 0l85 810h77l-79 -753h230l-6 -57h-307z" />
    <glyph glyph-name="lacute" unicode="&#x13a;" horiz-adv-x="202" 
d="M153 869l83 196h73l-118 -196h-38zM44 0l85 810h74l-85 -810h-74z" />
    <glyph glyph-name="Lcommaaccent" unicode="&#x13b;" horiz-adv-x="382" 
d="M150 -257l-15 33.001c32 12.667 50 38 54 76h-42l9 88h82l-9 -78c-4 -35.333 -11.667 -62.333 -23 -81s-30 -31.334 -56 -38.001zM48 0.000976562l85 810h77l-79 -753h230l-6 -57h-307z" />
    <glyph glyph-name="lcommaaccent" unicode="&#x13c;" horiz-adv-x="202" 
d="M29 -257l-15 33.001c32 12.667 50 38 54 76h-42l9 88h82l-9 -78c-4 -35.333 -11.667 -62.333 -23 -81s-30 -31.334 -56 -38.001zM44 0.000976562l85 810h74l-85 -810h-74z" />
    <glyph glyph-name="Lcaron" unicode="&#x13d;" horiz-adv-x="382" 
d="M505 582l25 237h70l-55 -237h-40zM48 0l85 810h77l-79 -753h230l-6 -57h-307z" />
    <glyph glyph-name="lcaron" unicode="&#x13e;" horiz-adv-x="202" 
d="M267 573l25 237h70l-55 -237h-40zM44 0l85 810h74l-85 -810h-74z" />
    <glyph glyph-name="Ldot" unicode="&#x13f;" horiz-adv-x="382" 
d="M203 365l8 88h75l-9 -88h-74zM48 0l85 810h77l-79 -753h230l-6 -57h-307z" />
    <glyph glyph-name="ldot" unicode="&#x140;" horiz-adv-x="390" 
d="M280 333l8 88h75l-9 -88h-74zM44 0l85 810h74l-85 -810h-74z" />
    <glyph glyph-name="Lslash" unicode="&#x141;" horiz-adv-x="382" 
d="M48 0l42 396l-74 -37l6 60l74 38l37 353h77l-32 -311l121 61l-6 -60l-122 -62l-40 -381h230l-6 -57h-307z" />
    <glyph glyph-name="lslash" unicode="&#x142;" horiz-adv-x="254" 
d="M70 0l47 444l-67 -34l6 61l68 33l31 306h74l-28 -270l64 31l-6 -59l-65 -33l-50 -479h-74z" />
    <glyph glyph-name="Nacute" unicode="&#x143;" horiz-adv-x="520" 
d="M311 878l83 196h73l-118 -196h-38zM48 0l85 810h56l192 -629l66 629h66l-85 -810h-54l-193 636l-67 -636h-66z" />
    <glyph glyph-name="nacute" unicode="&#x144;" horiz-adv-x="409" 
d="M234 646l83 196h73l-118 -196h-38zM34 0l59.998 578h73l-5 -60c46.667 46 95.334 69 146.001 69c28.667 0 49.667 -10.667 63 -32c10 -16 14.667 -37.333 14 -64c0 -8.66699 -0.333008 -17.667 -1 -27l-49 -464h-73l47 448c0.666992 8.66699 1 16.667 1 24
c0 16.667 -2.66699 29.667 -8 39c-7.33301 12.667 -20.666 18.667 -39.999 18c-32 0 -67 -17.667 -105 -53l-50 -476h-73z" />
    <glyph glyph-name="Ncommaaccent" unicode="&#x145;" horiz-adv-x="520" 
d="M186 -257l-15 33.001c32 12.667 50 38 54 76h-42l9 88h82l-9 -78c-4 -35.333 -11.667 -62.333 -23 -81s-30 -31.334 -56 -38.001zM48 0.000976562l85 810h56l192 -629l66 629h66l-85 -810h-54l-193 636l-67 -636h-66z" />
    <glyph glyph-name="ncommaaccent" unicode="&#x146;" horiz-adv-x="409" 
d="M133 -257l-15 33.001c32 12.667 50 38 54 76h-42l9 88h82l-9 -78c-4 -35.333 -11.667 -62.333 -23 -81s-30 -31.334 -56 -38.001zM34 0.000976562l59.998 578h73l-5 -60c46.667 46 95.334 69 146.001 69c28.667 0 49.667 -10.667 63 -32c10 -16 14.667 -37.333 14 -64
c0 -8.66699 -0.333008 -17.667 -1 -27l-49 -464h-73l47 448c0.666992 8.66699 1 16.667 1 24c0 16.667 -2.66699 29.667 -8 39c-7.33301 12.667 -20.666 18.667 -39.999 18c-32 0 -67 -17.667 -105 -53l-50 -476h-73z" />
    <glyph glyph-name="Ncaron" unicode="&#x147;" horiz-adv-x="520" 
d="M297 878l-68 166h59l47 -120l72 120h58l-103 -166h-65zM48 0l85 810h56l192 -629l66 629h66l-85 -810h-54l-193 636l-67 -636h-66z" />
    <glyph glyph-name="ncaron" unicode="&#x148;" horiz-adv-x="409" 
d="M220 646l-68 166h59l47 -120l72 120h58l-103 -166h-65zM34 0l59.998 578h73l-5 -60c46.667 46 95.334 69 146.001 69c28.667 0 49.667 -10.667 63 -32c10 -16 14.667 -37.333 14 -64c0 -8.66699 -0.333008 -17.667 -1 -27l-49 -464h-73l47 448
c0.666992 8.66699 1 16.667 1 24c0 16.667 -2.66699 29.667 -8 39c-7.33301 12.667 -20.666 18.667 -39.999 18c-32 0 -67 -17.667 -105 -53l-50 -476h-73z" />
    <glyph glyph-name="napostrophe" unicode="&#x149;" horiz-adv-x="695" 
d="M320 0l59.998 578h73l-5 -60c46.667 46 95.334 69 146.001 69c28.667 0 49.667 -10.667 63 -32c10 -16 14.667 -37.333 14 -64c0 -8.66699 -0.333008 -17.667 -1 -27l-49 -464h-73l47 448c0.666992 8.66699 1 16.667 1 24c0 16.667 -2.66699 29.667 -8 39
c-7.33301 12.667 -20.666 18.667 -39.999 18c-32 0 -67 -17.667 -105 -53l-50 -476h-73zM119.998 573l25 237h70l-55 -237h-40z" />
    <glyph glyph-name="Eng" unicode="&#x14a;" horiz-adv-x="535" 
d="M240 -157l6 52.999h6c20.667 0 37.667 1.33301 51 4c14 2.66699 25.333 8.33398 34 17.001s14.834 18.667 18.501 30s6.5 27.333 8.5 48l3 29l-189 612l-67 -636h-63l85 810h56l195 -629l67 629h62l-85 -810c-2.66699 -27.333 -7 -50.166 -13 -68.499
s-14.833 -34.333 -26.5 -48s-26.834 -23.834 -45.501 -30.501s-41.667 -10 -69 -10h-34z" />
    <glyph glyph-name="eng" unicode="&#x14b;" horiz-adv-x="387" 
d="M121 -167l5 57.999c24.667 0 45.167 2.16699 61.5 6.5s29.166 11.333 38.499 21s16.166 20.334 20.499 32.001s7.5 26.5 9.5 44.5l47 453c0.666992 8.66699 1.33398 16.667 2.00098 24c0 16.667 -2.66699 29.667 -8 39c-8 12.667 -21.333 18.667 -40 18
c-32 0 -67 -17.667 -105 -53l-50 -476h-74l61 578h73l-6 -60c46.667 46 95.334 69 146.001 69c28.667 0 49.667 -10.667 63 -32c10 -16 15 -37.333 15 -64c0 -8.66699 -0.666992 -17.667 -2 -27l-49 -470c-4 -38 -15.167 -69.333 -33.5 -94s-40.333 -42 -66 -52
s-55.167 -15 -88.5 -15h-20z" />
    <glyph glyph-name="Omacron" unicode="&#x14c;" horiz-adv-x="524" 
d="M243 878l5 47h179l-5 -47h-179zM246 51c26 0 48.167 3.99902 66.5 11.999s33 20 44 36s19.333 33.833 25 53.5s10.167 43.167 13.5 70.5l38 366c2 16 3 31 3 45c0 8.66699 -0.333008 17 -1 25c-2 20.667 -6.66699 38.334 -14 53.001s-19.5 26 -36.5 34s-38.5 12 -64.5 12
s-48.167 -3.83301 -66.5 -11.5s-33 -19.334 -44 -35.001s-19.333 -33.167 -25 -52.5s-10.167 -42.666 -13.5 -69.999l-38 -366c-2 -16 -3 -31.333 -3 -46c0 -8.66699 0.333008 -17 1 -25c2 -20.667 6.66699 -38.5 14 -53.5s19.5 -26.667 36.5 -35s38.5 -12.5 64.5 -12.5z
M239 -10.001c-31.333 0 -58.498 3.83105 -81.498 11.498s-41.5 18.834 -55.5 33.501s-25 32.334 -33 53.001s-12.667 43.667 -14 69v21c0 19.333 1 39.666 3 60.999l35 336c4 38 11 71.333 21 100s24 54 42 76s41.333 38.667 70 50s62 17 100 17
c30.667 0 57.5 -3.66699 80.5 -11s41.667 -18.166 56 -32.499s25.666 -31.333 33.999 -51s13.166 -42.167 14.499 -67.5v-25c0 -17.333 -0.666992 -36 -2 -56l-36 -337c-4 -38 -10.833 -71.5 -20.5 -100.5s-23.5 -55 -41.5 -78s-41.5 -40.333 -70.5 -52
s-62.833 -17.5 -101.5 -17.5z" />
    <glyph glyph-name="omacron" unicode="&#x14d;" 
d="M156 647l5 47h179l-5 -47h-179zM182 46c12.667 0 23.668 1.6709 33.001 5.00391s17.333 8.66602 24 15.999s12.167 15.166 16.5 23.499s8 19.166 11 32.499s5.33301 25.833 7 37.5s3.5 26.5 5.5 44.5l18 168c2 18 3.33301 33 4 45c0 7.33301 0.333008 15.333 1 24v14
c0 14 -1.5 24.833 -4.5 32.5s-7 15.167 -12 22.5s-12 12.666 -21 15.999s-19.5 5 -31.5 5c-14.667 0 -27.334 -2.66699 -38.001 -8s-19.334 -12.166 -26.001 -20.499s-12.167 -19.833 -16.5 -34.5s-7.66602 -29 -9.99902 -43s-4.5 -31.667 -6.5 -53l-18 -168
c-2.66699 -31.333 -4.16699 -58.833 -4.5 -82.5s5 -42.334 16 -56.001s28.5 -20.5 52.5 -20.5zM176.001 -8.99609c-57.333 0 -95.332 17.666 -113.999 52.999c-13.333 25.333 -20 60.333 -20 105c0 18 1 38 3 60l17 160c4 36 9.66699 66.833 17 92.5
s17.833 48.334 31.5 68.001s31 34.167 52 43.5s46.5 14 76.5 14c57.333 0 95.666 -18 114.999 -54c13.333 -25.333 20 -60 20 -104c0 -18 -1.33301 -38 -4 -60l-16 -160c-4 -36.667 -9.83301 -67.834 -17.5 -93.501s-18.334 -48.167 -32.001 -67.5
s-31.167 -33.666 -52.5 -42.999s-46.666 -14 -75.999 -14z" />
    <glyph glyph-name="Obreve" unicode="&#x14e;" horiz-adv-x="524" 
d="M332 878c-40 0 -69.334 10.666 -88.001 31.999c-16 18.667 -24 44.334 -24 77.001v16h47c0 -4.66699 -0.333008 -9 -1 -13c0 -45.333 23.333 -68 70 -68c50.667 0 80 27 88 81h47c-5.33301 -40 -19.666 -70.833 -42.999 -92.5s-55.333 -32.5 -96 -32.5zM245.999 50.999
c26 0 48.167 3.99902 66.5 11.999s33 20 44 36s19.333 33.833 25 53.5s10.167 43.167 13.5 70.5l38 366c2 16 3 31 3 45c0 8.66699 -0.333008 17 -1 25c-2 20.667 -6.66699 38.334 -14 53.001s-19.5 26 -36.5 34s-38.5 12 -64.5 12s-48.167 -3.83301 -66.5 -11.5
s-33 -19.334 -44 -35.001s-19.333 -33.167 -25 -52.5s-10.167 -42.666 -13.5 -69.999l-38 -366c-2 -16 -3 -31.333 -3 -46c0 -8.66699 0.333008 -17 1 -25c2 -20.667 6.66699 -38.5 14 -53.5s19.5 -26.667 36.5 -35s38.5 -12.5 64.5 -12.5zM238.999 -10.002
c-31.333 0 -58.498 3.83105 -81.498 11.498s-41.5 18.834 -55.5 33.501s-25 32.334 -33 53.001s-12.667 43.667 -14 69v21c0 19.333 1 39.666 3 60.999l35 336c4 38 11 71.333 21 100s24 54 42 76s41.333 38.667 70 50s62 17 100 17c30.667 0 57.5 -3.66699 80.5 -11
s41.667 -18.166 56 -32.499s25.666 -31.333 33.999 -51s13.166 -42.167 14.499 -67.5v-25c0 -17.333 -0.666992 -36 -2 -56l-36 -337c-4 -38 -10.833 -71.5 -20.5 -100.5s-23.5 -55 -41.5 -78s-41.5 -40.333 -70.5 -52s-62.833 -17.5 -101.5 -17.5z" />
    <glyph glyph-name="obreve" unicode="&#x14f;" 
d="M245 647c-40 0 -69.334 10.666 -88.001 31.999c-16 18.667 -24 44.334 -24 77.001v16h47c0 -4.66699 -0.333008 -9 -1 -13c0 -45.333 23.333 -68 70 -68c50.667 0 80 27 88 81h47c-5.33301 -40 -19.666 -70.833 -42.999 -92.5s-55.333 -32.5 -96 -32.5zM181.999 45.999
c12.667 0 23.668 1.6709 33.001 5.00391s17.333 8.66602 24 15.999s12.167 15.166 16.5 23.499s8 19.166 11 32.499s5.33301 25.833 7 37.5s3.5 26.5 5.5 44.5l18 168c2 18 3.33301 33 4 45c0 7.33301 0.333008 15.333 1 24v14c0 14 -1.5 24.833 -4.5 32.5
s-7 15.167 -12 22.5s-12 12.666 -21 15.999s-19.5 5 -31.5 5c-14.667 0 -27.334 -2.66699 -38.001 -8s-19.334 -12.166 -26.001 -20.499s-12.167 -19.833 -16.5 -34.5s-7.66602 -29 -9.99902 -43s-4.5 -31.667 -6.5 -53l-18 -168
c-2.66699 -31.333 -4.16699 -58.833 -4.5 -82.5s5 -42.334 16 -56.001s28.5 -20.5 52.5 -20.5zM176 -8.99707c-57.333 0 -95.332 17.666 -113.999 52.999c-13.333 25.333 -20 60.333 -20 105c0 18 1 38 3 60l17 160c4 36 9.66699 66.833 17 92.5s17.833 48.334 31.5 68.001
s31 34.167 52 43.5s46.5 14 76.5 14c57.333 0 95.666 -18 114.999 -54c13.333 -25.333 20 -60 20 -104c0 -18 -1.33301 -38 -4 -60l-16 -160c-4 -36.667 -9.83301 -67.834 -17.5 -93.501s-18.334 -48.167 -32.001 -67.5s-31.167 -33.666 -52.5 -42.999
s-46.666 -14 -75.999 -14z" />
    <glyph glyph-name="Ohungarumlaut" unicode="&#x150;" horiz-adv-x="524" 
d="M262 878l55 160h67l-83 -160h-39zM364 878l73 160h79l-112 -160h-40zM246 51c26 0 48.167 3.99902 66.5 11.999s33 20 44 36s19.333 33.833 25 53.5s10.167 43.167 13.5 70.5l38 366c2 16 3 31 3 45c0 8.66699 -0.333008 17 -1 25c-2 20.667 -6.66699 38.334 -14 53.001
s-19.5 26 -36.5 34s-38.5 12 -64.5 12s-48.167 -3.83301 -66.5 -11.5s-33 -19.334 -44 -35.001s-19.333 -33.167 -25 -52.5s-10.167 -42.666 -13.5 -69.999l-38 -366c-2 -16 -3 -31.333 -3 -46c0 -8.66699 0.333008 -17 1 -25c2 -20.667 6.66699 -38.5 14 -53.5
s19.5 -26.667 36.5 -35s38.5 -12.5 64.5 -12.5zM239 -10.001c-31.333 0 -58.498 3.83105 -81.498 11.498s-41.5 18.834 -55.5 33.501s-25 32.334 -33 53.001s-12.667 43.667 -14 69v21c0 19.333 1 39.666 3 60.999l35 336c4 38 11 71.333 21 100s24 54 42 76
s41.333 38.667 70 50s62 17 100 17c30.667 0 57.5 -3.66699 80.5 -11s41.667 -18.166 56 -32.499s25.666 -31.333 33.999 -51s13.166 -42.167 14.499 -67.5v-25c0 -17.333 -0.666992 -36 -2 -56l-36 -337c-4 -38 -10.833 -71.5 -20.5 -100.5s-23.5 -55 -41.5 -78
s-41.5 -40.333 -70.5 -52s-62.833 -17.5 -101.5 -17.5z" />
    <glyph glyph-name="ohungarumlaut" unicode="&#x151;" 
d="M174 647l55 160h67l-83 -160h-39zM276 647l73 160h79l-112 -160h-40zM182 46c12.667 0 23.668 1.6709 33.001 5.00391s17.333 8.66602 24 15.999s12.167 15.166 16.5 23.499s8 19.166 11 32.499s5.33301 25.833 7 37.5s3.5 26.5 5.5 44.5l18 168c2 18 3.33301 33 4 45
c0 7.33301 0.333008 15.333 1 24v14c0 14 -1.5 24.833 -4.5 32.5s-7 15.167 -12 22.5s-12 12.666 -21 15.999s-19.5 5 -31.5 5c-14.667 0 -27.334 -2.66699 -38.001 -8s-19.334 -12.166 -26.001 -20.499s-12.167 -19.833 -16.5 -34.5s-7.66602 -29 -9.99902 -43
s-4.5 -31.667 -6.5 -53l-18 -168c-2.66699 -31.333 -4.16699 -58.833 -4.5 -82.5s5 -42.334 16 -56.001s28.5 -20.5 52.5 -20.5zM176.001 -8.99609c-57.333 0 -95.332 17.666 -113.999 52.999c-13.333 25.333 -20 60.333 -20 105c0 18 1 38 3 60l17 160
c4 36 9.66699 66.833 17 92.5s17.833 48.334 31.5 68.001s31 34.167 52 43.5s46.5 14 76.5 14c57.333 0 95.666 -18 114.999 -54c13.333 -25.333 20 -60 20 -104c0 -18 -1.33301 -38 -4 -60l-16 -160c-4 -36.667 -9.83301 -67.834 -17.5 -93.501
s-18.334 -48.167 -32.001 -67.5s-31.167 -33.666 -52.5 -42.999s-46.666 -14 -75.999 -14z" />
    <glyph glyph-name="OE" unicode="&#x152;" horiz-adv-x="644" 
d="M252 0c-33.333 0 -62.1689 3.5 -86.502 10.5s-44.166 17.333 -59.499 31s-27.166 30 -35.499 49s-13.166 40.5 -14.499 64.5c-0.666992 8.66699 -1 18 -1 28c0 16.667 0.666992 34 2 52l35 330c4 38.667 11.167 72.667 21.5 102s25 54.833 44 76.5
s43.167 38.167 72.5 49.5s63.666 17 102.999 17h344l-7 -60h-196l-32 -300h162l-5 -56h-163l-35 -335h198l-6 -59h-341zM259.997 60l65 -0.000976562l72 691h-65c-24.667 0 -46 -3 -64 -9s-32.667 -14 -44 -24s-20.833 -23.667 -28.5 -41s-13.5 -35.166 -17.5 -53.499
s-7.66699 -40.833 -11 -67.5l-32 -316c-2 -18.667 -3.33301 -36 -4 -52c0 -8.66699 0.333008 -17 1 -25c2 -22 7.16699 -40.667 15.5 -56s21.833 -27 40.5 -35s42.667 -12 72 -12z" />
    <glyph glyph-name="oe" unicode="&#x153;" horiz-adv-x="648" 
d="M184 -9c-29.333 0 -53.666 4.83203 -72.999 14.499s-33.833 23.667 -43.5 42s-15.5 40.833 -17.5 67.5c-0.666992 10 -1.33398 20.333 -2.00098 31c0 18.667 1.33301 39.334 4 62.001l17 162c8 73.333 25.333 127.833 52 163.5s68.667 53.5 126 53.5
c61.333 0 98 -27.333 110 -82c24 54.667 67.333 82 130 82c57.333 0 95 -18 113 -54c12 -24 18 -59 18 -105c0 -22.667 -1.66699 -48 -5 -76l-6 -53h-235l-7 -64c-2.66699 -26.667 -4 -50 -4 -70c0 -28 2.33301 -50.333 7 -67c8.66699 -30 28.667 -45.667 60 -47
c9.33301 0 17.5 0.5 24.5 1.5s14.5 3.5 22.5 7.5s14.667 9.66699 20 17s10.333 17.666 15 30.999s8 29 10 47l4 43h73l-5 -42c-6 -55.333 -22.333 -97 -49 -125c-26 -27.333 -64.667 -40.666 -116 -39.999h-6c-61.333 1.33301 -97.666 30 -108.999 86
c-22.667 -57.333 -65.334 -86 -128.001 -86zM190 50.999c14.667 0 27.501 2.5 38.501 7.5s19.833 11.667 26.5 20s12.167 19.833 16.5 34.5s7.66602 28.834 9.99902 42.501s4.83301 31.167 7.5 52.5l17 162c2.66699 30 4 56.333 4 79v4c0 23.333 -5.66699 41.666 -17 54.999
s-28.666 20 -51.999 20c-12.667 0 -23.667 -1.66699 -33 -5s-17.333 -8.5 -24 -15.5s-12.334 -14.667 -17.001 -23s-8.5 -19 -11.5 -32s-5.33301 -25.5 -7 -37.5s-3.5 -27 -5.5 -45l-17 -162c-2 -21.333 -3.33301 -39 -4 -53c0 -4.66699 -0.333008 -9 -1 -13
c0 -10 0.666992 -20 2 -30c1.33301 -14 4.5 -25.167 9.5 -33.5s12.167 -15 21.5 -20s21.333 -7.5 36 -7.5zM376.001 337.999l163 -0.000976562l3 29c1.33301 16.667 2.33301 30.667 3 42c0.666992 8.66699 1 17.667 1 27v11c0 13.333 -1.5 24.5 -4.5 33.5s-7 17.333 -12 25
s-11.667 13.334 -20 17.001s-18.5 5.5 -30.5 5.5c-30.667 0 -53.5 -12.667 -68.5 -38s-25.5 -65.333 -31.5 -120z" />
    <glyph glyph-name="Racute" unicode="&#x154;" horiz-adv-x="512" 
d="M320 878l83 196h73l-118 -196h-38zM48 0l85 810.001h184c36.667 0 67.667 -4.66699 93 -14s44.833 -23 58.5 -41s22.5 -39.333 26.5 -64c2 -14 3.33301 -29 4 -45c0 -12.667 -0.666992 -26.334 -2 -41.001c-12 -111.333 -56.333 -175 -133 -191l82 -414h-75l-78 398h-126
l-42 -398h-77zM173 454.001l102.999 0.000976562c48.667 0 83.834 12 105.501 36s35.167 62.333 40.5 115c1.33301 14 2 26.667 2 38c0 33.333 -5.66699 58.333 -17 75c-16 23.333 -48.333 34.666 -97 33.999h-106z" />
    <glyph glyph-name="racute" unicode="&#x155;" horiz-adv-x="297" 
d="M198 646l83 196h73l-118 -196h-38zM40 0l59.999 578h73l-7 -79c20.667 29.333 43.334 50.833 68.001 64.5s49.334 20.5 74.001 20.5h12l-8 -79c-10.667 4 -22.334 6 -35.001 6c-47.333 0 -86.333 -22.333 -117 -67l-47 -444h-73z" />
    <glyph glyph-name="Rcommaaccent" unicode="&#x156;" horiz-adv-x="512" 
d="M195 -257l-15 33.001c32 12.667 50 38 54 76h-42l9 88h82l-9 -78c-4 -35.333 -11.667 -62.333 -23 -81s-30 -31.334 -56 -38.001zM48 0.000976562l85 810.001h184c36.667 0 67.667 -4.66699 93 -14s44.833 -23 58.5 -41s22.5 -39.333 26.5 -64c2 -14 3.33301 -29 4 -45
c0 -12.667 -0.666992 -26.334 -2 -41.001c-12 -111.333 -56.333 -175 -133 -191l82 -414h-75l-78 398h-126l-42 -398h-77zM173 454.002l102.999 0.000976562c48.667 0 83.834 12 105.501 36s35.167 62.333 40.5 115c1.33301 14 2 26.667 2 38
c0 33.333 -5.66699 58.333 -17 75c-16 23.333 -48.333 34.666 -97 33.999h-106z" />
    <glyph glyph-name="rcommaaccent" unicode="&#x157;" horiz-adv-x="297" 
d="M98 -257l-15 33.001c32 12.667 50 38 54 76h-42l9 88h82l-9 -78c-4 -35.333 -11.667 -62.333 -23 -81s-30 -31.334 -56 -38.001zM40 0.000976562l59.999 578h73l-7 -79c20.667 29.333 43.334 50.833 68.001 64.5s49.334 20.5 74.001 20.5h12l-8 -79
c-10.667 4 -22.334 6 -35.001 6c-47.333 0 -86.333 -22.333 -117 -67l-47 -444h-73z" />
    <glyph glyph-name="Rcaron" unicode="&#x158;" horiz-adv-x="512" 
d="M306 878l-68 166h59l47 -120l72 120h58l-103 -166h-65zM48 0l85 810.001h184c36.667 0 67.667 -4.66699 93 -14s44.833 -23 58.5 -41s22.5 -39.333 26.5 -64c2 -14 3.33301 -29 4 -45c0 -12.667 -0.666992 -26.334 -2 -41.001c-12 -111.333 -56.333 -175 -133 -191
l82 -414h-75l-78 398h-126l-42 -398h-77zM173 454.001l102.999 0.000976562c48.667 0 83.834 12 105.501 36s35.167 62.333 40.5 115c1.33301 14 2 26.667 2 38c0 33.333 -5.66699 58.333 -17 75c-16 23.333 -48.333 34.666 -97 33.999h-106z" />
    <glyph glyph-name="rcaron" unicode="&#x159;" horiz-adv-x="297" 
d="M184 646l-68 166h59l47 -120l72 120h58l-103 -166h-65zM40 0l59.999 578h73l-7 -79c20.667 29.333 43.334 50.833 68.001 64.5s49.334 20.5 74.001 20.5h12l-8 -79c-10.667 4 -22.334 6 -35.001 6c-47.333 0 -86.333 -22.333 -117 -67l-47 -444h-73z" />
    <glyph glyph-name="Sacute" unicode="&#x15a;" horiz-adv-x="459" 
d="M286 878l83 196h73l-118 -196h-38zM221 -10c-64 0 -110.664 19.3301 -139.997 57.9971c-27.333 36 -41 85 -41 147c0 4.66699 0.333008 9.66699 1 15l69 19c0 -21.333 1 -40.166 3 -56.499s5.5 -32.333 10.5 -48s11.667 -28.667 20 -39s19.666 -18.5 33.999 -24.5
s31.166 -9 50.499 -9c76.667 0 118.667 39 126 117c0.666992 6.66699 1 13 1 19c0 16 -2.33301 31.333 -7 46c-6.66699 20.667 -15.667 38.667 -27 54s-27.333 34 -48 56l-128 137c-22.667 24.667 -38.667 50.334 -48 77.001c-6.66699 19.333 -10.334 40 -11.001 62
c0 8 0.666992 16.333 2 25c6 55.333 27 98 63 128s82 45 138 45h3c58.667 0 102 -15.667 130 -47c26.667 -30 40 -77.333 40 -142c0 -5.33301 -0.333008 -10.666 -1 -15.999l-66 -17v12c0 48.667 -7.33301 85.667 -22 111c-15.333 26 -43 39 -83 39h-6
c-36 -0.666992 -65 -9.83398 -87 -27.501s-35 -44.167 -39 -79.5c-0.666992 -5.33301 -1 -10.666 -1 -15.999c0 -16 2.66699 -30.667 8 -44c6.66699 -18 19 -37.333 37 -58l129 -135c33.333 -35.333 58.333 -70.666 75 -105.999c14 -28 21 -58.667 21 -92
c0 -8.66699 -0.333008 -17.334 -1 -26.001c-6 -58.667 -27.667 -104 -65 -136s-84 -48 -140 -48z" />
    <glyph glyph-name="sacute" unicode="&#x15b;" horiz-adv-x="362" 
d="M211 646l83 196h73l-118 -196h-38zM165 -9c-45.333 0 -80.333 14.6689 -105 44.002c-23.333 28 -35 65.667 -35 113v7l63 19v-6c0 -40.667 6.66699 -71 20 -91c14 -20.667 36 -31 66 -31c25.333 0 46 7.5 62 22.5s25.333 35.167 28 60.5v9c0 35.333 -19.333 71 -58 107
l-72 67c-25.333 23.333 -43 45.666 -53 66.999c-8 16.667 -12 35.334 -12 56.001c0 7.33301 0.333008 14.666 1 21.999c5.33301 41.333 21.5 73.333 48.5 96s61.667 34 104 34s73.5 -13.667 93.5 -41c18 -24.667 27 -57 27 -97v-14l-54 -17
c0 4.66699 0.333008 9.33398 1 14.001c0 67.333 -23.667 100.666 -71 99.999c-22.667 0 -41.5 -6.33301 -56.5 -19s-23.5 -29.667 -25.5 -51c0 -4 -0.333008 -8 -1 -12c0 -13.333 2.33301 -25 7 -35c5.33301 -14 16 -28.667 32 -44l74 -73
c13.333 -12.667 24.166 -23.834 32.499 -33.501s16.833 -21.5 25.5 -35.5s14.667 -29.333 18 -46c2.66699 -11.333 4 -23 4 -35c0 -6 -0.333008 -12 -1 -18c-4.66699 -44 -21.667 -78.167 -51 -102.5s-66.666 -36.5 -111.999 -36.5z" />
    <glyph glyph-name="Scircumflex" unicode="&#x15c;" horiz-adv-x="459" 
d="M179 878l105 178h82l66 -178h-53l-58 141l-88 -141h-54zM221 -10c-64 0 -110.664 19.3301 -139.997 57.9971c-27.333 36 -41 85 -41 147c0 4.66699 0.333008 9.66699 1 15l69 19c0 -21.333 1 -40.166 3 -56.499s5.5 -32.333 10.5 -48s11.667 -28.667 20 -39
s19.666 -18.5 33.999 -24.5s31.166 -9 50.499 -9c76.667 0 118.667 39 126 117c0.666992 6.66699 1 13 1 19c0 16 -2.33301 31.333 -7 46c-6.66699 20.667 -15.667 38.667 -27 54s-27.333 34 -48 56l-128 137c-22.667 24.667 -38.667 50.334 -48 77.001
c-6.66699 19.333 -10.334 40 -11.001 62c0 8 0.666992 16.333 2 25c6 55.333 27 98 63 128s82 45 138 45h3c58.667 0 102 -15.667 130 -47c26.667 -30 40 -77.333 40 -142c0 -5.33301 -0.333008 -10.666 -1 -15.999l-66 -17v12c0 48.667 -7.33301 85.667 -22 111
c-15.333 26 -43 39 -83 39h-6c-36 -0.666992 -65 -9.83398 -87 -27.501s-35 -44.167 -39 -79.5c-0.666992 -5.33301 -1 -10.666 -1 -15.999c0 -16 2.66699 -30.667 8 -44c6.66699 -18 19 -37.333 37 -58l129 -135c33.333 -35.333 58.333 -70.666 75 -105.999
c14 -28 21 -58.667 21 -92c0 -8.66699 -0.333008 -17.334 -1 -26.001c-6 -58.667 -27.667 -104 -65 -136s-84 -48 -140 -48z" />
    <glyph glyph-name="scircumflex" unicode="&#x15d;" horiz-adv-x="362" 
d="M102 646l105 178h82l66 -178h-53l-58 141l-88 -141h-54zM165 -9c-45.333 0 -80.333 14.6689 -105 44.002c-23.333 28 -35 65.667 -35 113v7l63 19v-6c0 -40.667 6.66699 -71 20 -91c14 -20.667 36 -31 66 -31c25.333 0 46 7.5 62 22.5s25.333 35.167 28 60.5v9
c0 35.333 -19.333 71 -58 107l-72 67c-25.333 23.333 -43 45.666 -53 66.999c-8 16.667 -12 35.334 -12 56.001c0 7.33301 0.333008 14.666 1 21.999c5.33301 41.333 21.5 73.333 48.5 96s61.667 34 104 34s73.5 -13.667 93.5 -41c18 -24.667 27 -57 27 -97v-14l-54 -17
c0 4.66699 0.333008 9.33398 1 14.001c0 67.333 -23.667 100.666 -71 99.999c-22.667 0 -41.5 -6.33301 -56.5 -19s-23.5 -29.667 -25.5 -51c0 -4 -0.333008 -8 -1 -12c0 -13.333 2.33301 -25 7 -35c5.33301 -14 16 -28.667 32 -44l74 -73
c13.333 -12.667 24.166 -23.834 32.499 -33.501s16.833 -21.5 25.5 -35.5s14.667 -29.333 18 -46c2.66699 -11.333 4 -23 4 -35c0 -6 -0.333008 -12 -1 -18c-4.66699 -44 -21.667 -78.167 -51 -102.5s-66.666 -36.5 -111.999 -36.5z" />
    <glyph glyph-name="Scedilla" unicode="&#x15e;" horiz-adv-x="459" 
d="M155 -200l3.99902 38c13.333 -1.33301 25.333 -2.33301 36 -3c40 0 62 12 66 36c0.666992 3.33301 1 6.33301 1 9c0 12 -5 21.667 -15 29c-12.667 9.33301 -30.667 16.333 -54 21l7 70h39l-6 -51c26.667 -4 48 -13.333 64 -28c13.333 -12.667 20 -27.667 20 -45v-7
c-3.33301 -29.333 -19.666 -50 -48.999 -62c-17.333 -7.33301 -38 -11.333 -62 -12c-16 0 -33 1.66699 -51 5zM220.999 -10c-64 0 -110.664 19.3301 -139.997 57.9971c-27.333 36 -41 85 -41 147c0 4.66699 0.333008 9.66699 1 15l69 19c0 -21.333 1 -40.166 3 -56.499
s5.5 -32.333 10.5 -48s11.667 -28.667 20 -39s19.666 -18.5 33.999 -24.5s31.166 -9 50.499 -9c76.667 0 118.667 39 126 117c0.666992 6.66699 1 13 1 19c0 16 -2.33301 31.333 -7 46c-6.66699 20.667 -15.667 38.667 -27 54s-27.333 34 -48 56l-128 137
c-22.667 24.667 -38.667 50.334 -48 77.001c-6.66699 19.333 -10.334 40 -11.001 62c0 8 0.666992 16.333 2 25c6 55.333 27 98 63 128s82 45 138 45h3c58.667 0 102 -15.667 130 -47c26.667 -30 40 -77.333 40 -142c0 -5.33301 -0.333008 -10.666 -1 -15.999l-66 -17v12
c0 48.667 -7.33301 85.667 -22 111c-15.333 26 -43 39 -83 39h-6c-36 -0.666992 -65 -9.83398 -87 -27.501s-35 -44.167 -39 -79.5c-0.666992 -5.33301 -1 -10.666 -1 -15.999c0 -16 2.66699 -30.667 8 -44c6.66699 -18 19 -37.333 37 -58l129 -135
c33.333 -35.333 58.333 -70.666 75 -105.999c14 -28 21 -58.667 21 -92c0 -8.66699 -0.333008 -17.334 -1 -26.001c-6 -58.667 -27.667 -104 -65 -136s-84 -48 -140 -48z" />
    <glyph glyph-name="scedilla" unicode="&#x15f;" horiz-adv-x="362" 
d="M106 -200l3.99902 38c13.333 -1.33301 25.333 -2.33301 36 -3c40 0 62 12 66 36c0.666992 3.33301 1 6.33301 1 9c0 12 -5 21.667 -15 29c-12.667 9.33301 -30.667 16.333 -54 21l7 70h39l-6 -51c26.667 -4 48 -13.333 64 -28c13.333 -12.667 20 -27.667 20 -45v-7
c-3.33301 -29.333 -19.666 -50 -48.999 -62c-17.333 -7.33301 -38 -11.333 -62 -12c-16 0 -33 1.66699 -51 5zM164.999 -9c-45.333 0 -80.333 14.6689 -105 44.002c-23.333 28 -35 65.667 -35 113v7l63 19v-6c0 -40.667 6.66699 -71 20 -91c14 -20.667 36 -31 66 -31
c25.333 0 46 7.5 62 22.5s25.333 35.167 28 60.5v9c0 35.333 -19.333 71 -58 107l-72 67c-25.333 23.333 -43 45.666 -53 66.999c-8 16.667 -12 35.334 -12 56.001c0 7.33301 0.333008 14.666 1 21.999c5.33301 41.333 21.5 73.333 48.5 96s61.667 34 104 34
s73.5 -13.667 93.5 -41c18 -24.667 27 -57 27 -97v-14l-54 -17c0 4.66699 0.333008 9.33398 1 14.001c0 67.333 -23.667 100.666 -71 99.999c-22.667 0 -41.5 -6.33301 -56.5 -19s-23.5 -29.667 -25.5 -51c0 -4 -0.333008 -8 -1 -12c0 -13.333 2.33301 -25 7 -35
c5.33301 -14 16 -28.667 32 -44l74 -73c13.333 -12.667 24.166 -23.834 32.499 -33.501s16.833 -21.5 25.5 -35.5s14.667 -29.333 18 -46c2.66699 -11.333 4 -23 4 -35c0 -6 -0.333008 -12 -1 -18c-4.66699 -44 -21.667 -78.167 -51 -102.5s-66.666 -36.5 -111.999 -36.5z
" />
    <glyph glyph-name="Scaron" unicode="&#x160;" horiz-adv-x="459" 
d="M272 878l-68 166h59l47 -120l72 120h58l-103 -166h-65zM221 -10c-64 0 -110.664 19.3301 -139.997 57.9971c-27.333 36 -41 85 -41 147c0 4.66699 0.333008 9.66699 1 15l69 19c0 -21.333 1 -40.166 3 -56.499s5.5 -32.333 10.5 -48s11.667 -28.667 20 -39
s19.666 -18.5 33.999 -24.5s31.166 -9 50.499 -9c76.667 0 118.667 39 126 117c0.666992 6.66699 1 13 1 19c0 16 -2.33301 31.333 -7 46c-6.66699 20.667 -15.667 38.667 -27 54s-27.333 34 -48 56l-128 137c-22.667 24.667 -38.667 50.334 -48 77.001
c-6.66699 19.333 -10.334 40 -11.001 62c0 8 0.666992 16.333 2 25c6 55.333 27 98 63 128s82 45 138 45h3c58.667 0 102 -15.667 130 -47c26.667 -30 40 -77.333 40 -142c0 -5.33301 -0.333008 -10.666 -1 -15.999l-66 -17v12c0 48.667 -7.33301 85.667 -22 111
c-15.333 26 -43 39 -83 39h-6c-36 -0.666992 -65 -9.83398 -87 -27.501s-35 -44.167 -39 -79.5c-0.666992 -5.33301 -1 -10.666 -1 -15.999c0 -16 2.66699 -30.667 8 -44c6.66699 -18 19 -37.333 37 -58l129 -135c33.333 -35.333 58.333 -70.666 75 -105.999
c14 -28 21 -58.667 21 -92c0 -8.66699 -0.333008 -17.334 -1 -26.001c-6 -58.667 -27.667 -104 -65 -136s-84 -48 -140 -48z" />
    <glyph glyph-name="scaron" unicode="&#x161;" horiz-adv-x="362" 
d="M197 646l-68 166h59l47 -120l72 120h58l-103 -166h-65zM165 -9c-45.333 0 -80.333 14.6689 -105 44.002c-23.333 28 -35 65.667 -35 113v7l63 19v-6c0 -40.667 6.66699 -71 20 -91c14 -20.667 36 -31 66 -31c25.333 0 46 7.5 62 22.5s25.333 35.167 28 60.5v9
c0 35.333 -19.333 71 -58 107l-72 67c-25.333 23.333 -43 45.666 -53 66.999c-8 16.667 -12 35.334 -12 56.001c0 7.33301 0.333008 14.666 1 21.999c5.33301 41.333 21.5 73.333 48.5 96s61.667 34 104 34s73.5 -13.667 93.5 -41c18 -24.667 27 -57 27 -97v-14l-54 -17
c0 4.66699 0.333008 9.33398 1 14.001c0 67.333 -23.667 100.666 -71 99.999c-22.667 0 -41.5 -6.33301 -56.5 -19s-23.5 -29.667 -25.5 -51c0 -4 -0.333008 -8 -1 -12c0 -13.333 2.33301 -25 7 -35c5.33301 -14 16 -28.667 32 -44l74 -73
c13.333 -12.667 24.166 -23.834 32.499 -33.501s16.833 -21.5 25.5 -35.5s14.667 -29.333 18 -46c2.66699 -11.333 4 -23 4 -35c0 -6 -0.333008 -12 -1 -18c-4.66699 -44 -21.667 -78.167 -51 -102.5s-66.666 -36.5 -111.999 -36.5z" />
    <glyph glyph-name="Tcommaaccent" unicode="&#x162;" horiz-adv-x="388" 
d="M111 -200l3.99902 38c13.333 -1.33301 25.333 -2.33301 36 -3c40 0 62 12 66 36c0.666992 3.33301 1 6.33301 1 9c0 12 -5 21.667 -15 29c-12.667 9.33301 -30.667 16.333 -54 21l7 70h39l-6 -51c26.667 -4 48 -13.333 64 -28c13.333 -12.667 20 -27.667 20 -45v-7
c-3.33301 -29.333 -19.666 -50 -48.999 -62c-17.333 -7.33301 -38 -11.333 -62 -12c-16 0 -33 1.66699 -51 5zM135.999 0l79 751h-163l7 59h397l-6 -59h-158l-80 -751h-76z" />
    <glyph glyph-name="tcommaaccent" unicode="&#x163;" horiz-adv-x="279" 
d="M91 -200l3.99902 38c13.333 -1.33301 25.333 -2.33301 36 -3c40 0 62 12 66 36c0.666992 3.33301 1 6.33301 1 9c0 12 -5 21.667 -15 29c-12.667 9.33301 -30.667 16.333 -54 21l7 70h39l-6 -51c26.667 -4 48 -13.333 64 -28c13.333 -12.667 20 -27.667 20 -45v-7
c-3.33301 -29.333 -19.666 -50 -48.999 -62c-17.333 -7.33301 -38 -11.333 -62 -12c-16 0 -33 1.66699 -51 5zM169.999 -7c-20.667 0 -37.666 3 -50.999 9s-23 14.667 -29 26s-10 24.666 -12 39.999c-0.666992 6.66699 -1 14 -1 22c0 10 0.666992 20 2 30l43 409h-70l5 49
h70l19 179h73l-19 -179h96l-4 -49h-97l-42 -402c-0.666992 -10 -1.33398 -18.667 -2.00098 -26c0 -15.333 2 -26.666 6 -33.999c5.33301 -11.333 18.333 -17 39 -17c13.333 0 27.333 1.33301 42 4l-6 -55c-22 -4 -42.667 -6 -62 -6z" />
    <glyph glyph-name="Tcaron" unicode="&#x164;" horiz-adv-x="388" 
d="M231 878l-68 166h59l47 -120l72 120h58l-103 -166h-65zM136 0l79 751h-163l7 59h397l-6 -59h-158l-80 -751h-76z" />
    <glyph glyph-name="tcaron" unicode="&#x165;" horiz-adv-x="279" 
d="M380 520l25 237h70l-55 -237h-40zM170 -7c-20.667 0 -37.666 3 -50.999 9s-23 14.667 -29 26s-10 24.666 -12 39.999c-0.666992 6.66699 -1 14 -1 22c0 10 0.666992 20 2 30l43 409h-70l5 49h70l19 179h73l-19 -179h96l-4 -49h-97l-42 -402
c-0.666992 -10 -1.33398 -18.667 -2.00098 -26c0 -15.333 2 -26.666 6 -33.999c5.33301 -11.333 18.333 -17 39 -17c13.333 0 27.333 1.33301 42 4l-6 -55c-22 -4 -42.667 -6 -62 -6z" />
    <glyph glyph-name="Tbar" unicode="&#x166;" horiz-adv-x="388" 
d="M64 408l5 46h115l31 297h-163l7 59h397l-6 -59h-158l-32 -297h112l-5 -46h-112l-43 -408h-76l43 408h-115z" />
    <glyph glyph-name="tbar" unicode="&#x167;" horiz-adv-x="292" 
d="M52 354l5.00098 41h64l14 134h-70l5 49h70l19 179h73l-19 -179h97l-5 -49h-97l-14 -134h89l-4 -41h-89l-24 -227c-0.666992 -10 -1 -18.667 -1 -26c0 -15.333 1.66699 -26.666 5 -33.999c6 -11.333 19 -17 39 -17c13.333 0 27.333 1.33301 42 4l-5 -55
c-22 -4 -43 -6 -63 -6c-20.667 0 -37.667 3 -51 9s-23 14.667 -29 26s-9.66699 24.666 -11 39.999c-0.666992 6.66699 -1.33398 14 -2.00098 22c0 10 0.666992 20 2 30l25 234h-65z" />
    <glyph glyph-name="Utilde" unicode="&#x168;" horiz-adv-x="537" 
d="M390 878c-14 0.666992 -32.167 8.49609 -54.5 23.4961s-37.166 22.833 -44.499 23.5c-10 1.33301 -18.167 -1.16699 -24.5 -7.5s-10.166 -16.833 -11.499 -31.5h-46c0.666992 7.33301 2.16699 14.833 4.5 22.5s5.66602 15.834 9.99902 24.501s9.66602 16.167 15.999 22.5
s14.5 11.166 24.5 14.499c7.33301 2.66699 15.333 3.66699 24 3h10c10.667 -0.666992 22.5 -4.66699 35.5 -12s25.167 -14.666 36.5 -21.999s20.333 -11.333 27 -12c10.667 -1.33301 19 1.33398 25 8.00098s10 18.334 12 35.001h44
c-1.33301 -11.333 -3.33301 -21.833 -6 -31.5s-7.16699 -19.667 -13.5 -30s-15.5 -18.166 -27.5 -23.499c-9.33301 -4.66699 -20 -7 -32 -7h-9zM246 -10.0039c-32 0 -59.999 3.66992 -83.999 11.0029s-42.833 17.833 -56.5 31.5s-24.334 30 -32.001 49
s-11.5 40.167 -11.5 63.5c0 6 -0.333008 12.333 -1 19c0 18 0.666992 37 2 57l62 589h74l-62 -591c-2 -14 -3.33301 -27.667 -4 -41c0 -8.66699 0.666992 -17.334 2 -26.001c2.66699 -20.667 7.66699 -38.334 15 -53.001s19.666 -26.334 36.999 -35.001s39 -13 65 -13
c25.333 0 47.333 4.16699 66 12.5s33.667 20.5 45 36.5s20.166 33.5 26.499 52.5s10.833 41.167 13.5 66.5l62 591h73l-61 -589c-3.33301 -35.333 -10 -66.5 -20 -93.5s-23.667 -51.167 -41 -72.5s-40.166 -37.5 -68.499 -48.5s-62.166 -16.5 -101.499 -16.5z" />
    <glyph glyph-name="utilde" unicode="&#x169;" horiz-adv-x="411" 
d="M300 647c-14 0.666992 -32.167 8.49609 -54.5 23.4961s-37.166 22.833 -44.499 23.5c-10 1.33301 -18.167 -1.16699 -24.5 -7.5s-10.166 -16.833 -11.499 -31.5h-46c0.666992 7.33301 2.16699 14.833 4.5 22.5s5.66602 15.834 9.99902 24.501s9.66602 16.167 15.999 22.5
s14.5 11.166 24.5 14.499c7.33301 2.66699 15.333 3.66699 24 3h10c10.667 -0.666992 22.5 -4.66699 35.5 -12s25.167 -14.666 36.5 -21.999s20.333 -11.333 27 -12c10.667 -1.33301 19 1.33398 25 8.00098s10 18.334 12 35.001h44
c-1.33301 -11.333 -3.33301 -21.833 -6 -31.5s-7.16699 -19.667 -13.5 -30s-15.5 -18.166 -27.5 -23.499c-9.33301 -4.66699 -20 -7 -32 -7h-9zM118 -9.00391c-28.667 0 -49.666 10.667 -62.999 32c-10 16 -15 37.333 -15 64c0 8.66699 0.666992 18 2 28l48 463h74l-47 -448
c-0.666992 -8.66699 -1.33398 -16.667 -2.00098 -24c0 -16.667 2.66699 -29.667 8 -39c8 -12.667 21.333 -18.667 40 -18c33.333 0 69.333 19 108 57l50 472h73l-61 -578h-73l7 64c-47.333 -48.667 -97 -73 -149 -73z" />
    <glyph glyph-name="Umacron" unicode="&#x16a;" horiz-adv-x="537" 
d="M249 878l5 47h179l-5 -47h-179zM246 -10c-32 0 -59.999 3.66992 -83.999 11.0029s-42.833 17.833 -56.5 31.5s-24.334 30 -32.001 49s-11.5 40.167 -11.5 63.5c0 6 -0.333008 12.333 -1 19c0 18 0.666992 37 2 57l62 589h74l-62 -591c-2 -14 -3.33301 -27.667 -4 -41
c0 -8.66699 0.666992 -17.334 2 -26.001c2.66699 -20.667 7.66699 -38.334 15 -53.001s19.666 -26.334 36.999 -35.001s39 -13 65 -13c25.333 0 47.333 4.16699 66 12.5s33.667 20.5 45 36.5s20.166 33.5 26.499 52.5s10.833 41.167 13.5 66.5l62 591h73l-61 -589
c-3.33301 -35.333 -10 -66.5 -20 -93.5s-23.667 -51.167 -41 -72.5s-40.166 -37.5 -68.499 -48.5s-62.166 -16.5 -101.499 -16.5z" />
    <glyph glyph-name="umacron" unicode="&#x16b;" horiz-adv-x="411" 
d="M159 647l5 47h179l-5 -47h-179zM118 -9c-28.667 0 -49.666 10.667 -62.999 32c-10 16 -15 37.333 -15 64c0 8.66699 0.666992 18 2 28l48 463h74l-47 -448c-0.666992 -8.66699 -1.33398 -16.667 -2.00098 -24c0 -16.667 2.66699 -29.667 8 -39
c8 -12.667 21.333 -18.667 40 -18c33.333 0 69.333 19 108 57l50 472h73l-61 -578h-73l7 64c-47.333 -48.667 -97 -73 -149 -73z" />
    <glyph glyph-name="Ubreve" unicode="&#x16c;" horiz-adv-x="537" 
d="M338 878c-40 0 -69.334 10.666 -88.001 31.999c-16 18.667 -24 44.334 -24 77.001v16h47c0 -4.66699 -0.333008 -9 -1 -13c0 -45.333 23.333 -68 70 -68c50.667 0 80 27 88 81h47c-5.33301 -40 -19.666 -70.833 -42.999 -92.5s-55.333 -32.5 -96 -32.5zM245.999 -10.001
c-32 0 -59.999 3.66992 -83.999 11.0029s-42.833 17.833 -56.5 31.5s-24.334 30 -32.001 49s-11.5 40.167 -11.5 63.5c0 6 -0.333008 12.333 -1 19c0 18 0.666992 37 2 57l62 589h74l-62 -591c-2 -14 -3.33301 -27.667 -4 -41c0 -8.66699 0.666992 -17.334 2 -26.001
c2.66699 -20.667 7.66699 -38.334 15 -53.001s19.666 -26.334 36.999 -35.001s39 -13 65 -13c25.333 0 47.333 4.16699 66 12.5s33.667 20.5 45 36.5s20.166 33.5 26.499 52.5s10.833 41.167 13.5 66.5l62 591h73l-61 -589c-3.33301 -35.333 -10 -66.5 -20 -93.5
s-23.667 -51.167 -41 -72.5s-40.166 -37.5 -68.499 -48.5s-62.166 -16.5 -101.499 -16.5z" />
    <glyph glyph-name="ubreve" unicode="&#x16d;" horiz-adv-x="411" 
d="M248 647c-40 0 -69.334 10.666 -88.001 31.999c-16 18.667 -24 44.334 -24 77.001v16h47c0 -4.66699 -0.333008 -9 -1 -13c0 -45.333 23.333 -68 70 -68c50.667 0 80 27 88 81h47c-5.33301 -40 -19.666 -70.833 -42.999 -92.5s-55.333 -32.5 -96 -32.5zM117.999 -9.00098
c-28.667 0 -49.666 10.667 -62.999 32c-10 16 -15 37.333 -15 64c0 8.66699 0.666992 18 2 28l48 463h74l-47 -448c-0.666992 -8.66699 -1.33398 -16.667 -2.00098 -24c0 -16.667 2.66699 -29.667 8 -39c8 -12.667 21.333 -18.667 40 -18c33.333 0 69.333 19 108 57l50 472
h73l-61 -578h-73l7 64c-47.333 -48.667 -97 -73 -149 -73z" />
    <glyph glyph-name="Uring" unicode="&#x16e;" horiz-adv-x="537" 
d="M343 918c16 0 29.5 4.66602 40.5 13.999s17.5 23.333 19.5 42v9c0 14 -3.66699 25 -11 33c-9.33301 9.33301 -22 13.833 -38 13.5s-29.5 -5.16602 -40.5 -14.499s-17.5 -23 -19.5 -41v-10c0 -14 3.66699 -24.667 11 -32c9.33301 -9.33301 22 -14 38 -14zM338.5 877.999
c-27 0 -48.833 8.33398 -65.5 25.001c-14 14 -21 32.667 -21 56c0 4.66699 0.333008 9.66699 1 15c2.66699 30 14 53.167 34 69.5s43.667 24.5 71 24.5s49.333 -8.33301 66 -25c14 -14 21 -32.333 21 -55c0 -4.66699 -0.333008 -9.33398 -1 -14.001
c-2.66699 -30 -14.167 -53.5 -34.5 -70.5s-44 -25.5 -71 -25.5zM246 -10c-32 0 -59.999 3.66992 -83.999 11.0029s-42.833 17.833 -56.5 31.5s-24.334 30 -32.001 49s-11.5 40.167 -11.5 63.5c0 6 -0.333008 12.333 -1 19c0 18 0.666992 37 2 57l62 589h74l-62 -591
c-2 -14 -3.33301 -27.667 -4 -41c0 -8.66699 0.666992 -17.334 2 -26.001c2.66699 -20.667 7.66699 -38.334 15 -53.001s19.666 -26.334 36.999 -35.001s39 -13 65 -13c25.333 0 47.333 4.16699 66 12.5s33.667 20.5 45 36.5s20.166 33.5 26.499 52.5
s10.833 41.167 13.5 66.5l62 591h73l-61 -589c-3.33301 -35.333 -10 -66.5 -20 -93.5s-23.667 -51.167 -41 -72.5s-40.166 -37.5 -68.499 -48.5s-62.166 -16.5 -101.499 -16.5z" />
    <glyph glyph-name="uring" unicode="&#x16f;" horiz-adv-x="411" 
d="M253 686c16 0 29.5 4.66602 40.5 13.999s17.5 23.333 19.5 42v9c0 14 -3.66699 25 -11 33c-9.33301 9.33301 -22 13.833 -38 13.5s-29.5 -5.16602 -40.5 -14.499s-17.5 -23 -19.5 -41v-10c0 -14 3.66699 -24.667 11 -32c9.33301 -9.33301 22 -14 38 -14zM248.5 645.999
c-27 0 -48.833 8.33398 -65.5 25.001c-14 14 -21 32.667 -21 56c0 4.66699 0.333008 9.66699 1 15c2.66699 30 14 53.167 34 69.5s43.667 24.5 71 24.5s49.333 -8.33301 66 -25c14 -14 21 -32.333 21 -55c0 -4.66699 -0.333008 -9.33398 -1 -14.001
c-2.66699 -30 -14.167 -53.5 -34.5 -70.5s-44 -25.5 -71 -25.5zM118 -9c-28.667 0 -49.666 10.667 -62.999 32c-10 16 -15 37.333 -15 64c0 8.66699 0.666992 18 2 28l48 463h74l-47 -448c-0.666992 -8.66699 -1.33398 -16.667 -2.00098 -24
c0 -16.667 2.66699 -29.667 8 -39c8 -12.667 21.333 -18.667 40 -18c33.333 0 69.333 19 108 57l50 472h73l-61 -578h-73l7 64c-47.333 -48.667 -97 -73 -149 -73z" />
    <glyph glyph-name="Uhungarumlaut" unicode="&#x170;" horiz-adv-x="537" 
d="M268 878l55 160h67l-83 -160h-39zM370 878l73 160h79l-112 -160h-40zM246 -10c-32 0 -59.999 3.66992 -83.999 11.0029s-42.833 17.833 -56.5 31.5s-24.334 30 -32.001 49s-11.5 40.167 -11.5 63.5c0 6 -0.333008 12.333 -1 19c0 18 0.666992 37 2 57l62 589h74l-62 -591
c-2 -14 -3.33301 -27.667 -4 -41c0 -8.66699 0.666992 -17.334 2 -26.001c2.66699 -20.667 7.66699 -38.334 15 -53.001s19.666 -26.334 36.999 -35.001s39 -13 65 -13c25.333 0 47.333 4.16699 66 12.5s33.667 20.5 45 36.5s20.166 33.5 26.499 52.5
s10.833 41.167 13.5 66.5l62 591h73l-61 -589c-3.33301 -35.333 -10 -66.5 -20 -93.5s-23.667 -51.167 -41 -72.5s-40.166 -37.5 -68.499 -48.5s-62.166 -16.5 -101.499 -16.5z" />
    <glyph glyph-name="uhungarumlaut" unicode="&#x171;" horiz-adv-x="411" 
d="M178 647l55 160h67l-83 -160h-39zM280 647l73 160h79l-112 -160h-40zM118 -9c-28.667 0 -49.666 10.667 -62.999 32c-10 16 -15 37.333 -15 64c0 8.66699 0.666992 18 2 28l48 463h74l-47 -448c-0.666992 -8.66699 -1.33398 -16.667 -2.00098 -24
c0 -16.667 2.66699 -29.667 8 -39c8 -12.667 21.333 -18.667 40 -18c33.333 0 69.333 19 108 57l50 472h73l-61 -578h-73l7 64c-47.333 -48.667 -97 -73 -149 -73z" />
    <glyph glyph-name="Uogonek" unicode="&#x172;" horiz-adv-x="537" 
d="M268 -209c-47.333 0 -82 6 -104 18c-20 11.333 -30 29 -30 53v11c2.66699 26 14.667 51.333 36 76s44.333 42.334 69 53.001h39c-55.333 -53.333 -84.333 -95.333 -87 -126c-0.666992 -10 1.5 -18.333 6.5 -25s12.5 -11.334 22.5 -14.001s20 -4.5 30 -5.5
s21.667 -1.5 35 -1.5zM246 -10c-32 0 -59.999 3.66992 -83.999 11.0029s-42.833 17.833 -56.5 31.5s-24.334 30 -32.001 49s-11.5 40.167 -11.5 63.5c0 6 -0.333008 12.333 -1 19c0 18 0.666992 37 2 57l62 589h74l-62 -591c-2 -14 -3.33301 -27.667 -4 -41
c0 -8.66699 0.666992 -17.334 2 -26.001c2.66699 -20.667 7.66699 -38.334 15 -53.001s19.666 -26.334 36.999 -35.001s39 -13 65 -13c25.333 0 47.333 4.16699 66 12.5s33.667 20.5 45 36.5s20.166 33.5 26.499 52.5s10.833 41.167 13.5 66.5l62 591h73l-61 -589
c-3.33301 -35.333 -10 -66.5 -20 -93.5s-23.667 -51.167 -41 -72.5s-40.166 -37.5 -68.499 -48.5s-62.166 -16.5 -101.499 -16.5z" />
    <glyph glyph-name="uogonek" unicode="&#x173;" horiz-adv-x="411" 
d="M313 -209c-47.333 0 -82 6 -104 18c-20 11.333 -30 29 -30 53v11c2.66699 26 14.667 51.333 36 76s44.333 42.334 69 53.001h39c-55.333 -53.333 -84.333 -95.333 -87 -126c-0.666992 -10 1.5 -18.333 6.5 -25s12.5 -11.334 22.5 -14.001s20 -4.5 30 -5.5
s21.667 -1.5 35 -1.5zM118 -9c-28.667 0 -49.666 10.667 -62.999 32c-10 16 -15 37.333 -15 64c0 8.66699 0.666992 18 2 28l48 463h74l-47 -448c-0.666992 -8.66699 -1.33398 -16.667 -2.00098 -24c0 -16.667 2.66699 -29.667 8 -39c8 -12.667 21.333 -18.667 40 -18
c33.333 0 69.333 19 108 57l50 472h73l-61 -578h-73l7 64c-47.333 -48.667 -97 -73 -149 -73z" />
    <glyph glyph-name="Wcircumflex" unicode="&#x174;" horiz-adv-x="714" 
d="M300 878l105 178h82l66 -178h-53l-58 141l-88 -141h-54zM150 0l-52 809l65 1l38 -658l190 645h63l56 -646l169 659h64l-216 -810h-59l-58 668l-198 -668h-62z" />
    <glyph glyph-name="wcircumflex" unicode="&#x175;" horiz-adv-x="574" 
d="M206 646l105 178h82l66 -178h-53l-58 141l-88 -141h-54zM104 0l-34 578h62l22 -483l141 483h63l42 -481l120 481h62l-154 -578h-69l-42 470l-140 -470h-73z" />
    <glyph glyph-name="Ycircumflex" unicode="&#x176;" horiz-adv-x="469" 
d="M178 878l105 178h82l66 -178h-53l-58 141l-88 -141h-54zM178 0l28 269l-126 541h75l98 -450l187 450h75l-235 -541l-28 -269h-74z" />
    <glyph glyph-name="ycircumflex" unicode="&#x177;" horiz-adv-x="380" 
d="M110 646l105 178h82l66 -178h-53l-58 141l-88 -141h-54zM3 -144l5.99902 57.001c35.333 0 62 2.83301 80 8.5s30 13.5 36 23.5c5.33301 9.33301 8 23 8 41v3c-0.666992 11.333 -3.66699 38 -9 80l-66 509h73l49 -492l149 492h73l-205 -620
c-12.667 -36.667 -32.667 -62.834 -60 -78.501s-65.666 -23.5 -114.999 -23.5h-19z" />
    <glyph glyph-name="Ydieresis" unicode="&#x178;" horiz-adv-x="469" 
d="M185 878l9 89h75l-10 -89h-74zM349 878l9 89h75l-9 -89h-75zM178 0l28 269l-126 541h75l98 -450l187 450h75l-235 -541l-28 -269h-74z" />
    <glyph glyph-name="Zacute" unicode="&#x179;" horiz-adv-x="407" 
d="M261 878l83 196h73l-118 -196h-38zM12 0l6 58l344 694h-249l6 58h331l-4 -40l-353 -713h279l-6 -57h-354z" />
    <glyph glyph-name="zacute" unicode="&#x17a;" horiz-adv-x="333" 
d="M196 646l83 196h73l-118 -196h-38zM10 0l6 51l246 471h-177l6 56h254l-5 -43l-246 -479h192l-6 -56h-270z" />
    <glyph glyph-name="Zdotaccent" unicode="&#x17b;" horiz-adv-x="407" 
d="M242 878l11 110h78l-11 -110h-78zM12 0l6 58l344 694h-249l6 58h331l-4 -40l-353 -713h279l-6 -57h-354z" />
    <glyph glyph-name="zdotaccent" unicode="&#x17c;" horiz-adv-x="333" 
d="M176 646l11 110h78l-11 -110h-78zM10 0l6 51l246 471h-177l6 56h254l-5 -43l-246 -479h192l-6 -56h-270z" />
    <glyph glyph-name="Zcaron" unicode="&#x17d;" horiz-adv-x="407" 
d="M247 878l-68 166h59l47 -120l72 120h58l-103 -166h-65zM12 0l6 58l344 694h-249l6 58h331l-4 -40l-353 -713h279l-6 -57h-354z" />
    <glyph glyph-name="zcaron" unicode="&#x17e;" horiz-adv-x="333" 
d="M182 646l-68 166h59l47 -120l72 120h58l-103 -166h-65zM10 0l6 51l246 471h-177l6 56h254l-5 -43l-246 -479h192l-6 -56h-270z" />
    <glyph glyph-name="florin" unicode="&#x192;" horiz-adv-x="374" 
d="M16 -132c-17.333 0 -36.6709 2.33203 -58.0039 6.99902l12 55c16.667 -3.33301 30 -5.33301 40 -6c20.667 0 35.667 6.33301 45 19s18 34.334 26 65.001l123 517h-73l6 53h79l16 64c5.33301 24 10.833 43.667 16.5 59s13.667 29.833 24 43.5s23.5 23.834 39.5 30.501
s35.667 10 59 10c17.333 0 36.333 -2 57 -6l-12 -55c-21.333 3.33301 -34.666 5 -39.999 5c-20.667 0 -35.667 -6.33301 -45 -19s-17.666 -34 -24.999 -64l-17 -68h86l-6 -53h-92l-122 -513c-4 -19.333 -8.16699 -35.333 -12.5 -48s-10.166 -25.667 -17.499 -39
s-15.666 -23.833 -24.999 -31.5s-21 -13.834 -35 -18.501s-30.333 -7 -49 -7z" />
    <glyph glyph-name="uni01C4" unicode="&#x1c4;" horiz-adv-x="928" 
d="M768 878l-68 166h59l47 -120l72 120h58l-103 -166h-65zM533 0l6 58l344 694h-249l6 58h331l-4 -40l-353 -713h279l-6 -57h-354zM131 57l102.001 0.000976562c18 0 34.167 1.83301 48.5 5.5s26.666 8.5 36.999 14.5s19.5 14 27.5 24s14.667 20.167 20 30.5s10 23 14 38
s7 29.333 9 43s4 30.167 6 49.5l32 302c2 21.333 3 40.666 3 57.999c0 16 -1 30.667 -3 44c-3.33301 28 -15 49.167 -35 63.5s-49.667 21.5 -89 21.5h-99zM48.001 0.000976562l85.002 809.999h178c41.333 0 75.666 -5.66699 102.999 -17s48.166 -27.833 62.499 -49.5
s23.5 -46.5 27.5 -74.5c2.66699 -14.667 4 -30.667 4 -48c0 -15.333 -1 -31.666 -3 -48.999l-34 -322c-4 -39.333 -11.167 -73.833 -21.5 -103.5s-24.833 -55.667 -43.5 -78s-42.5 -39.333 -71.5 -51s-63.5 -17.5 -103.5 -17.5h-183z" />
    <glyph glyph-name="uni01C5" unicode="&#x1c5;" horiz-adv-x="854" 
d="M703 646l-68 166h59l47 -120l72 120h58l-103 -166h-65zM531 0l6 51l246 471h-177l6 56h254l-5 -43l-246 -479h192l-6 -56h-270zM131 57l102.001 0.000976562c18 0 34.167 1.83301 48.5 5.5s26.666 8.5 36.999 14.5s19.5 14 27.5 24s14.667 20.167 20 30.5s10 23 14 38
s7 29.333 9 43s4 30.167 6 49.5l32 302c2 21.333 3 40.666 3 57.999c0 16 -1 30.667 -3 44c-3.33301 28 -15 49.167 -35 63.5s-49.667 21.5 -89 21.5h-99zM48.001 0.000976562l85.002 809.999h178c41.333 0 75.666 -5.66699 102.999 -17s48.166 -27.833 62.499 -49.5
s23.5 -46.5 27.5 -74.5c2.66699 -14.667 4 -30.667 4 -48c0 -15.333 -1 -31.666 -3 -48.999l-34 -322c-4 -39.333 -11.167 -73.833 -21.5 -103.5s-24.833 -55.667 -43.5 -78s-42.5 -39.333 -71.5 -51s-63.5 -17.5 -103.5 -17.5h-183z" />
    <glyph glyph-name="uni01C6" unicode="&#x1c6;" horiz-adv-x="746" 
d="M595 646l-68 166h59l47 -120l72 120h58l-103 -166h-65zM423 0l6 51l246 471h-177l6 56h254l-5 -43l-246 -479h192l-6 -56h-270zM162 -9c-50 0 -83.665 18.668 -100.998 56.001c-12 24.667 -18 60 -18 106c0 24 1.66699 50.667 5 80l11 107c3.33301 32 7.5 60 12.5 84
s11.667 46.667 20 68s18.166 38.666 29.499 51.999s25.333 23.833 42 31.5s36 11.5 58 11.5c38 0 70 -16.667 96 -50l29 273h73l-85 -810h-73l5 42c-32.667 -34 -67.334 -51 -104.001 -51zM183.002 49.001c28 0 57.335 12.6689 88.002 38.002l41 401
c-26.667 27.333 -53.667 41 -81 41c-30.667 0 -52.834 -12.833 -66.501 -38.5s-23.834 -67.834 -30.501 -126.501l-14 -136c-2.66699 -28 -4 -53 -4 -75c0 -26.667 2.33301 -47.334 7 -62.001c8 -28 28 -42 60 -42z" />
    <glyph glyph-name="uni01C7" unicode="&#x1c7;" horiz-adv-x="661" 
d="M364 -36l6 58.002c19.333 0 35.333 0.666992 48 2s24.167 4.16602 34.5 8.49902s18.333 9.5 24 15.5s10.667 14.667 15 26s7.66602 23.666 9.99902 36.999s4.5 30.666 6.5 51.999l68 647h77l-68 -652c-3.33301 -28 -7.16602 -51.667 -11.499 -71
s-10.833 -37.333 -19.5 -54s-19.5 -29.667 -32.5 -39s-29.333 -16.666 -49 -21.999s-43.167 -8 -70.5 -8h-38zM48 0.00195312l85 810h77l-79 -753h230l-6 -57h-307z" />
    <glyph glyph-name="uni01C8" unicode="&#x1c8;" horiz-adv-x="595" 
d="M328 -148l6.00195 56.002c3.33301 -0.666992 11.666 -1.33398 24.999 -2.00098c14.667 0 26.834 2 36.501 6s17.167 10.167 22.5 18.5s9.16602 16.666 11.499 24.999s4.16602 18.5 5.49902 30.5l62 592h73l-63 -598c-8.66699 -87.333 -55.667 -131 -141 -131
c-20 0 -32.667 1 -38 3zM506.002 658.002l10 99h74l-11 -99h-73zM48.002 0.00195312l85 810h77l-79 -753h230l-6 -57h-307z" />
    <glyph glyph-name="uni01C9" unicode="&#x1c9;" horiz-adv-x="415" 
d="M148 -148l6.00195 56.002c3.33301 -0.666992 11.666 -1.33398 24.999 -2.00098c14.667 0 26.834 2 36.501 6s17.167 10.167 22.5 18.5s9.16602 16.666 11.499 24.999s4.16602 18.5 5.49902 30.5l62 592h73l-63 -598c-8.66699 -87.333 -55.667 -131 -141 -131
c-20 0 -32.667 1 -38 3zM326.002 658.002l10 99h74l-11 -99h-73zM44.002 0.00195312l85 810h74l-85 -810h-74z" />
    <glyph glyph-name="uni01CA" unicode="&#x1ca;" horiz-adv-x="798" 
d="M502 -36l6 58.002c19.333 0 35.333 0.666992 48 2s24.167 4.16602 34.5 8.49902s18.333 9.5 24 15.5s10.667 14.667 15 26s7.66602 23.666 9.99902 36.999s4.5 30.666 6.5 51.999l68 647h77l-68 -652c-3.33301 -28 -7.16602 -51.667 -11.499 -71
s-10.833 -37.333 -19.5 -54s-19.5 -29.667 -32.5 -39s-29.333 -16.666 -49 -21.999s-43.167 -8 -70.5 -8h-38zM48 0.00195312l85 810h56l192 -629l66 629h66l-85 -810h-54l-193 636l-67 -636h-66z" />
    <glyph glyph-name="uni01CB" unicode="&#x1cb;" horiz-adv-x="732" 
d="M466 -148l6.00195 56.002c3.33301 -0.666992 11.666 -1.33398 24.999 -2.00098c14.667 0 26.834 2 36.501 6s17.167 10.167 22.5 18.5s9.16602 16.666 11.499 24.999s4.16602 18.5 5.49902 30.5l62 592h73l-63 -598c-8.66699 -87.333 -55.667 -131 -141 -131
c-20 0 -32.667 1 -38 3zM644.002 658.002l10 99h74l-11 -99h-73zM48.002 0.00195312l85 810h56l192 -629l66 629h66l-85 -810h-54l-193 636l-67 -636h-66z" />
    <glyph glyph-name="uni01CC" unicode="&#x1cc;" horiz-adv-x="622" 
d="M355 -148l6.00195 56.002c3.33301 -0.666992 11.666 -1.33398 24.999 -2.00098c14.667 0 26.834 2 36.501 6s17.167 10.167 22.5 18.5s9.16602 16.666 11.499 24.999s4.16602 18.5 5.49902 30.5l62 592h73l-63 -598c-8.66699 -87.333 -55.667 -131 -141 -131
c-20 0 -32.667 1 -38 3zM533.002 658.002l10 99h74l-11 -99h-73zM34.002 0.00195312l59.998 578h73l-5 -60c46.667 46 95.334 69 146.001 69c28.667 0 49.667 -10.667 63 -32c10 -16 14.667 -37.333 14 -64c0 -8.66699 -0.333008 -17.667 -1 -27l-49 -464h-73l47 448
c0.666992 8.66699 1 16.667 1 24c0 16.667 -2.66699 29.667 -8 39c-7.33301 12.667 -20.666 18.667 -39.999 18c-32 0 -67 -17.667 -105 -53l-50 -476h-73z" />
    </font>
</defs>
</svg>
