<?xml version="1.0" standalone="no"?>
<!DOCTYPE svg PUBLIC "-//W3C//DTD SVG 1.1//EN" "http://www.w3.org/Graphics/SVG/1.1/DTD/svg11.dtd" >
<svg version="1.1" xmlns="http://www.w3.org/2000/svg">
<metadata>
Created by FontForge 20120731 at Fri Aug  1 16:50:33 2014

Copyright (c) 2010-13 by Vernon Adams
</metadata>
<defs>
<font id="oswald" horiz-adv-x="439" >
  <font-face 
    font-family="Oswald Regular"
    font-weight="400"
    font-stretch="normal"
    units-per-em="1000"
    panose-1="2 0 5 3 0 0 0 0 0 0"
    ascent="800"
    descent="-200"
    x-height="578"
    cap-height="810"
    bbox="-99 -294 1951 1100"
    underline-thickness="1"
    underline-position="-5"
    unicode-range="U+0020-FB04"
  />
<missing-glyph horiz-adv-x="365" 
d="M66 33h200v600h-200v-600zM33 0v667h266v-667h-266z" />
    <glyph glyph-name=".notdef" horiz-adv-x="365" 
d="M66 33h200v600h-200v-600zM33 0v667h266v-667h-266z" />
    <glyph glyph-name="space" unicode=" " horiz-adv-x="228" 
 />
    <glyph glyph-name="exclam" unicode="!" horiz-adv-x="207" 
d="M84 173l-34 637h108l-36 -637h-38zM50 0v110h108v-110h-108z" />
    <glyph glyph-name="quotedbl" unicode="&#x22;" horiz-adv-x="379" 
d="M234 562v248h97l-39 -248h-58zM85 562v248h97l-39 -248h-58z" />
    <glyph glyph-name="numbersign" unicode="#" horiz-adv-x="485" 
d="M193 370h90l14 97h-89zM34 0l41 290h-43v80h55l14 97h-67v81h78l38 262h107l-38 -262h90l38 262h106l-38 -262h41v-81h-52l-15 -97h64v-80h-75l-42 -290h-107l42 290h-89l-41 -290h-107z" />
    <glyph glyph-name="dollar" unicode="$" horiz-adv-x="490" 
d="M247 -77l-0.000976562 68.998c-66 1.33301 -116.167 22.833 -150.5 64.5s-53.5 98.5 -57.5 170.5l100 27c7.33301 -116 45.666 -174 114.999 -174c28.667 0 50.667 8 66 24s23 39.667 23 71c0 17.333 -2 33.166 -6 47.499s-10.667 28 -20 41s-18.166 23.833 -26.499 32.5
s-20.166 20.334 -35.499 35.001l-136 120c-27.333 24.667 -47.166 50.834 -59.499 78.501s-18.5 61.167 -18.5 100.5c0 57.333 16.167 102.333 48.5 135s76.833 50 133.5 52v67h35v-67c55.333 -4 97.166 -23.167 125.499 -57.5s45.5 -84.833 51.5 -151.5l-96 -26
c-1.33301 17.333 -3 32.833 -5 46.5s-5.66699 27.334 -11 41.001s-11.833 24.834 -19.5 33.501s-17.667 15.5 -30 20.5s-26.5 7.16699 -42.5 6.5c-59.333 -4 -89 -33.667 -89 -89c0 -24 4 -43.833 12 -59.5s21.667 -32.5 41 -50.5l137 -120
c35.333 -32 63.5 -66.333 84.5 -103s31.5 -78 31.5 -124c0 -54.667 -15.333 -98.834 -46 -132.501s-71 -53.167 -121 -58.5v-70h-34z" />
    <glyph glyph-name="percent" unicode="%" horiz-adv-x="891" 
d="M289 0l223 811h92l-222 -811h-93zM698 -5c-104.667 0 -156.666 62.667 -155.999 188v63c0 61.333 12.167 107.5 36.5 138.5s64.166 46.5 119.499 46.5s95.333 -15 120 -45s37 -75.333 37 -136v-70c0 -60 -12.5 -105.833 -37.5 -137.5s-64.833 -47.5 -119.5 -47.5z
M698.001 76c12.667 0 23.001 2.66504 31.001 7.99805s14 13.333 18 24s6.83301 21.5 8.5 32.5s2.5 23.833 2.5 38.5v72c0 15.333 -0.833008 28.333 -2.5 39s-4.33398 20.834 -8.00098 30.501s-9.66699 17 -18 22s-18.833 7.5 -31.5 7.5s-23 -2.66699 -31 -8
s-14 -12.833 -18 -22.5s-6.66699 -19.834 -8 -30.501s-2 -23.667 -2 -39v-71c0 -14.667 0.833008 -27.667 2.5 -39s4.5 -22.166 8.5 -32.499s10 -18.166 18 -23.499s18 -8 30 -8zM193.002 379.998c-104.667 0 -157 62.667 -157 188v63c0 61.333 12.333 107.5 37 138.5
s64.667 46.5 120 46.5s95.333 -15 120 -45s37 -75 37 -135v-71c0 -123.333 -52.333 -185 -157 -185zM193.002 460.998c12.667 0 22.998 2.83301 30.998 8.5s14.167 13.667 18.5 24s7.16602 21 8.49902 32s2 24.167 2 39.5v71c0 12 -0.5 22.5 -1.5 31.5s-2.66699 18 -5 27
s-5.66602 16.333 -9.99902 22s-10.166 10.167 -17.499 13.5s-16 5 -26 5c-12.667 0 -23.167 -2.5 -31.5 -7.5s-14.333 -12.5 -18 -22.5s-6.16699 -20.333 -7.5 -31s-2 -23.667 -2 -39v-71c0 -14.667 0.833008 -27.667 2.5 -39s4.33398 -22 8.00098 -32
s9.66699 -17.833 18 -23.5s18.5 -8.5 30.5 -8.5z" />
    <glyph glyph-name="ampersand" unicode="&#x26;" horiz-adv-x="605" 
d="M244 460c22.667 26.667 42 59 58 97s24 74.667 24 110c0 19.333 -5.83301 34.5 -17.5 45.5s-27.5 16.5 -47.5 16.5c-22 0 -38.5 -8.83301 -49.5 -26.5s-16.5 -39.167 -16.5 -64.5c0 -46 16.333 -105.333 49 -178zM233 80c39.333 0 75.667 19.999 109 59.999l-124 191
c-16 -20.667 -28.833 -45 -38.5 -73s-14.5 -56.333 -14.5 -85c0 -27.333 5.33301 -49.666 16 -66.999s28 -26 52 -26zM233.001 -9.00098c-54.667 0 -97.5 16.8311 -128.5 50.498s-46.5 77.5 -46.5 131.5c0 46.667 10.5 89 31.5 127s49.833 73.667 86.5 107
c-4.66699 9.33301 -12.167 23.333 -22.5 42s-18.5 34 -24.5 46s-12.667 26.5 -20 43.5s-12.666 33.667 -15.999 50s-5 32.833 -5 49.5c0 54 15.667 97.333 47 130s73.333 49 126 49c50 0 91.167 -13.5 123.5 -40.5s48.5 -63.5 48.5 -109.5
c0 -25.333 -4.66699 -50.833 -14 -76.5s-22.333 -50.167 -39 -73.5s-32.334 -43.5 -47.001 -60.5s-32 -35.167 -52 -54.5l122 -192c18 36.667 31.333 90.667 40 162h106c0 -37.333 -7.83301 -77.5 -23.5 -120.5s-33.834 -79.167 -54.501 -108.5
c9.33301 -12 21 -21.833 35 -29.5s28.667 -11.5 44 -11.5v-110h-14c-7.33301 0 -14.5 0.833008 -21.5 2.5s-13.167 3.33398 -18.5 5.00098s-11.5 4.66699 -18.5 9s-12 7.5 -15 9.5s-8.16699 6.33301 -15.5 13s-11.833 10.834 -13.5 12.501l-14 14l-12.5 12.5
c-19.333 -24 -43.666 -43.167 -72.999 -57.5s-63 -21.5 -101 -21.5z" />
    <glyph glyph-name="quotesingle" unicode="'" horiz-adv-x="366" 
d="M85 562v248h97l-39 -248h-58z" />
    <glyph glyph-name="parenleft" unicode="(" horiz-adv-x="297" 
d="M268 -194c-26.667 0 -50.334 5.50098 -71.001 16.501s-37.834 24.5 -51.501 40.5s-25.167 38.333 -34.5 67s-16.333 55 -21 79s-8.33398 56 -11.001 96s-4.33398 73.167 -5.00098 99.5s-1 61.833 -1 106.5s0.333008 80.167 1 106.5s2.33398 59.5 5.00098 99.5
s6.33398 72.167 11.001 96.5s11.667 50.833 21 79.5s20.833 51 34.5 67s30.834 29.5 51.501 40.5s44.334 16.5 71.001 16.5v-72c-14.667 0 -27.5 -5.33301 -38.5 -16s-19.833 -27.834 -26.5 -51.501s-11.834 -46.167 -15.501 -67.5s-6.33398 -51.833 -8.00098 -91.5
s-2.66699 -71.334 -3 -95.001s-0.5 -58.167 -0.5 -103.5v-3.5v-3v-2.5v-13c0 -45.333 0.166992 -79.833 0.5 -103.5s1.33301 -55 3 -94s4.33398 -69 8.00098 -90s8.83398 -43.167 15.501 -66.5s15.5 -40.166 26.5 -50.499s23.833 -15.833 38.5 -16.5v-71z" />
    <glyph glyph-name="parenright" unicode=")" horiz-adv-x="259" 
d="M29 -194l-0.00488281 71.999c14.667 0 27.667 5.33301 39 16s20.166 27.834 26.499 51.501s11.5 46.167 15.5 67.5s6.83301 51.833 8.5 91.5s2.66699 71.334 3 95.001s0.5 58.167 0.5 103.5v9v13c0 45.333 -0.166992 79.833 -0.5 103.5s-1.33301 55 -3 94
s-4.5 69.167 -8.5 90.5s-9.16699 43.5 -15.5 66.5s-15 39.667 -26 50s-24.167 15.833 -39.5 16.5v71c26.667 0 50.5 -5.5 71.5 -16.5s38.167 -24.333 51.5 -40s24.833 -37.834 34.5 -66.501s16.834 -55 21.501 -79s8.33398 -56.167 11.001 -96.5
s4.33398 -73.666 5.00098 -99.999c0.666992 -27 1 -62.5 1 -106.5c0 -34 -0.166992 -61.333 -0.5 -82s-1.16602 -47 -2.49902 -79s-3.16602 -58.167 -5.49902 -78.5s-5.66602 -43.833 -9.99902 -70.5s-9.83301 -48.334 -16.5 -65.001s-15 -34.167 -25 -52.5
s-21.333 -32.5 -34 -42.5s-27.667 -18.5 -45 -25.5s-36.333 -10.5 -57 -10.5z" />
    <glyph glyph-name="asterisk" unicode="*" horiz-adv-x="397" 
d="M147 469l-63 38l79 111l-118 45l26 68l113 -60l-12 138h81l-13 -138l114 60l25 -68l-118 -46l80 -110l-65 -38l-64 125z" />
    <glyph glyph-name="plus" unicode="+" horiz-adv-x="415" 
d="M165 212v163h-140v81h140v163h80v-163h145v-81h-145v-163h-80z" />
    <glyph glyph-name="comma" unicode="," horiz-adv-x="186" 
d="M57 -131l-17 46c18 6 32.167 16.5 42.5 31.5s15.5 32.833 15.5 53.5h-57v115h110v-113c0 -35.333 -7.66699 -63.5 -23 -84.5s-39 -37.167 -71 -48.5z" />
    <glyph glyph-name="hyphen" unicode="-" horiz-adv-x="321" 
d="M49 261v81h223v-81h-223z" />
    <glyph glyph-name="period" unicode="." horiz-adv-x="188" 
d="M49 0v119h107v-119h-107z" />
    <glyph glyph-name="slash" unicode="/" horiz-adv-x="369" 
d="M29 0l218 810h93l-219 -810h-92z" />
    <glyph glyph-name="zero" unicode="0" horiz-adv-x="491" 
d="M246 -9c-66 0 -116 21.833 -150 65.5s-51 101.5 -51 173.5v349c0 74.667 16.5 133 49.5 175s83.5 63 151.5 63c67.333 0 117.5 -21.167 150.5 -63.5s49.5 -100.5 49.5 -174.5v-349c0 -73.333 -16.667 -131.5 -50 -174.5s-83.333 -64.5 -150 -64.5zM245.5 79
c61.667 0 92.5 50.001 92.5 150.001v351c0 22 -1.16699 41.167 -3.5 57.5s-6.66602 31.833 -12.999 46.5s-16 26 -29 34s-28.667 12 -47 12s-33.833 -4 -46.5 -12s-22.334 -19.333 -29.001 -34s-11.167 -30.334 -13.5 -47.001s-3.5 -35.667 -3.5 -57v-351
c0 -100 30.833 -150 92.5 -150z" />
    <glyph glyph-name="one" unicode="1" horiz-adv-x="467" 
d="M222 0l-0.00195312 670c0 -0.666992 -2.66699 -1.5 -8 -2.5s-12.166 -2.5 -20.499 -4.5s-17.5 -4 -27.5 -6s-19.833 -4 -29.5 -6s-18.5 -3.66699 -26.5 -5s-15 -2.66602 -21 -3.99902l-8 -1v81c82.667 21.333 138.334 50.666 167.001 87.999h81v-810h-107z" />
    <glyph glyph-name="two" unicode="2" horiz-adv-x="478" 
d="M41 0l0.00292969 75.999l206 321c4 6.66699 11.167 18 21.5 34s17.5 27.333 21.5 34s9.5 16.834 16.5 30.501s12 25.334 15 35.001s5.83301 21.5 8.5 35.5s4 28.333 4 43c0 80.667 -27 120.667 -81 120c-64 0 -96 -49.667 -96 -149v-27h-107v28
c0 76 15.667 134.333 47 175s81.666 61 150.999 61c64.667 0 113.167 -18.167 145.5 -54.5s48.5 -87.833 48.5 -154.5c0 -24 -1.83301 -45.833 -5.5 -65.5s-10.334 -39.5 -20.001 -59.5s-17.834 -35.833 -24.501 -47.5s-17.667 -28.834 -33 -51.501
c-2.66699 -4 -4.66699 -7.33301 -6 -10l-186 -284h256v-90h-382z" />
    <glyph glyph-name="three" unicode="3" horiz-adv-x="466" 
d="M238 -9c-64.667 0 -113.83 18.332 -147.497 54.999s-50.5 87.667 -50.5 153v27h106v-18c0 -20 1.5 -37.167 4.5 -51.5s7.66699 -27.666 14 -39.999s15.666 -21.5 27.999 -27.5s27.5 -9 45.5 -9c15.333 0 28.5 2.33301 39.5 7s19.833 11.167 26.5 19.5s12 19 16 32
s6.83301 26.5 8.5 40.5s2.5 30.667 2.5 50c0 45.333 -8.33301 81 -25 107s-43.667 40 -81 42c-2.66699 0 -7.66699 0.333008 -15 1v107h14c38.667 1.33301 66.167 11.333 82.5 30s24.5 49.667 24.5 93c0 40 -6.66699 70.167 -20 90.5s-37.333 30.5 -72 30.5
c-18 0 -33.167 -3.16699 -45.5 -9.5s-21.833 -15.666 -28.5 -27.999s-11.334 -25.833 -14.001 -40.5s-4.33398 -32 -5.00098 -52v-17h-106v27c0 65.333 16.833 116.166 50.5 152.499s83.167 54.5 148.5 54.5s114.833 -18.167 148.5 -54.5s50.5 -87.5 50.5 -153.5
c0 -47.333 -10.333 -86 -31 -116s-49 -50.333 -85 -61c36.667 -12 65.167 -35.167 85.5 -69.5s30.5 -78.833 30.5 -133.5c0 -75.333 -16 -133.833 -48 -175.5s-82.667 -62.5 -152 -62.5z" />
    <glyph glyph-name="four" unicode="4" horiz-adv-x="491" 
d="M148 314h125v360zM273 0v213h-233v119l208 478h133v-496h90v-101h-90v-213h-108z" />
    <glyph glyph-name="five" unicode="5" horiz-adv-x="476" 
d="M243 -8c-70 0 -120.161 19.8271 -150.494 59.4941s-45.5 98.167 -45.5 175.5h107c0 -16 0.5 -30.5 1.5 -43.5s3.33301 -26.5 7 -40.5s8.83398 -25.5 15.501 -34.5s15.667 -16.5 27 -22.5s24.666 -9 39.999 -9c12.667 0 23.667 1.66699 33 5s17.166 7.83301 23.499 13.5
s11.833 13.334 16.5 23.001s8.16699 19.334 10.5 29.001s4.16602 21.834 5.49902 36.501s2.16602 28 2.49902 40s0.5 27.333 0.5 46c0 24.667 -0.5 44.834 -1.5 60.501s-3.33301 31.334 -7 47.001s-8.83398 27.834 -15.501 36.501s-15.5 15.667 -26.5 21s-24.5 8 -40.5 8
c-20.667 0 -38.834 -6.33301 -54.501 -19s-27.5 -28.667 -35.5 -48h-91v434h349v-107h-252l-7 -224c28 30 67 45 117 45c32 0 59.333 -5.83301 82 -17.5s40.5 -28.667 53.5 -51s22.333 -47.5 28 -75.5s8.5 -60 8.5 -96c0 -34.667 -1.83301 -66.167 -5.5 -94.5
s-10.167 -55 -19.5 -80s-21.5 -46 -36.5 -63s-34.333 -30.333 -58 -40s-50.834 -14.5 -81.501 -14.5z" />
    <glyph glyph-name="six" unicode="6" horiz-adv-x="489" 
d="M253 80c17.333 0 32.166 3.83496 44.499 11.502s21.833 18.667 28.5 33s11.667 30 15 47s5 36.167 5 57.5c0 16.667 -0.166992 30.167 -0.5 40.5s-1.16602 22.666 -2.49902 36.999s-3.16602 25.666 -5.49902 33.999s-5.66602 17.333 -9.99902 27s-9.83301 17 -16.5 22
s-14.834 9.33301 -24.501 13s-20.834 5.5 -33.501 5.5c-20.667 0 -39 -5.33301 -55 -16s-28.333 -23.667 -37 -39v-121c0 -101.333 30.667 -152 92 -152zM253 -8.99805c-34 0 -64.0029 6.83301 -90.0029 20.5s-46.833 32.667 -62.5 57s-27.334 52.333 -35.001 84
s-11.5 66.5 -11.5 104.5v273c0 41.333 3.33301 78.5 10 111.5s17.334 63 32.001 90s35.334 48 62.001 63s58.334 22.5 95.001 22.5c62.667 0 111 -17 145 -51s51.667 -82.667 53 -146c0 -0.666992 0.166992 -2.5 0.5 -5.5s0.5 -5.16699 0.5 -6.5h-108
c0 41.333 -6.66699 71.833 -20 91.5s-37 29.5 -71 29.5c-62 0 -92.667 -57.667 -92 -173v-123c11.333 17.333 27 31 47 41s43.667 15 71 15c26.667 0 50 -3.66699 70 -11s36.5 -17.5 49.5 -30.5s23.667 -29.5 32 -49.5s14.333 -41.5 18 -64.5s5.5 -49.167 5.5 -78.5
c0 -30 -2.33301 -58 -7 -84s-12.167 -50.167 -22.5 -72.5s-23.166 -41.333 -38.499 -57s-34.333 -28 -57 -37s-48 -13.5 -76 -13.5z" />
    <glyph glyph-name="seven" unicode="7" horiz-adv-x="384" 
d="M98 0l146 726h-217v84h324v-52l-150 -758h-103z" />
    <glyph glyph-name="eight" unicode="8" horiz-adv-x="478" 
d="M240 476c16 0 29.666 4 40.999 12s19.833 18.833 25.5 32.5s9.83398 28 12.501 43s4 31.833 4 50.5c0 36 -6.66699 65 -20 87s-34.333 33 -63 33c-29.333 0 -50.833 -11 -64.5 -33s-20.5 -51 -20.5 -87c0 -18.667 1.33301 -35.5 4 -50.5s7 -29.333 13 -43
s14.833 -24.5 26.5 -32.5s25.5 -12 41.5 -12zM239.499 76c19 0 35 3.83008 48 11.4971s23 18.667 30 33s11.833 29.833 14.5 46.5s4 36.334 4 59.001c0 28 -2.66699 52.333 -8 73s-15.5 38.334 -30.5 53.001s-34.167 22 -57.5 22c-18 0 -33.667 -4.16699 -47 -12.5
s-23.5 -19.5 -30.5 -33.5s-12.167 -29.5 -15.5 -46.5s-5 -35.5 -5 -55.5c0 -22.667 1.5 -42.5 4.5 -59.5s8 -32.667 15 -47s17 -25.166 30 -32.499s29 -11 48 -11zM239.999 -9.00293c-70 0 -120.833 20.334 -152.5 61.001s-47.5 99.334 -47.5 176.001
c0 51.333 8.5 92.333 25.5 123s41.833 56 74.5 76c-60 40 -90 100.333 -90 181c0 66 15.667 117.333 47 154s79 55 143 55c63.333 0 110.5 -18.167 141.5 -54.5s46.5 -87.833 46.5 -154.5c0 -81.333 -30 -141.666 -90 -180.999c32.667 -20.667 57.667 -46.334 75 -77.001
s26 -71.334 26 -122.001c0 -76.667 -15.667 -135.334 -47 -176.001s-82 -61 -152 -61z" />
    <glyph glyph-name="nine" unicode="9" horiz-adv-x="489" 
d="M245 401c39.333 0 69.6689 18.665 91.002 55.998v120c0 101.333 -30.333 152 -91 152c-16.667 0 -31.334 -3.83301 -44.001 -11.5s-22.5 -18.667 -29.5 -33s-12 -30.166 -15 -47.499s-4.5 -36.333 -4.5 -57v-41c0 -10 0.666992 -22.167 2 -36.5
s3.16602 -25.666 5.49902 -33.999s5.83301 -17.333 10.5 -27s10.167 -17 16.5 -22s14.5 -9.33301 24.5 -13s21.333 -5.5 34 -5.5zM245.003 -9.00195c-63.333 0 -111.999 17.335 -145.999 52.002s-51.667 84.334 -53 149.001v9h107c0 -41.333 6.66699 -71.833 20 -91.5
s37.666 -29.5 72.999 -29.5c60.667 0 90.667 57.667 90 173v123c-23.333 -37.333 -62.666 -56 -117.999 -56c-32.667 0 -60.5 5.5 -83.5 16.5s-41 27.167 -54 48.5s-22.333 45.666 -28 72.999s-8.5 59.333 -8.5 96c0 38 3.66699 72.5 11 103.5s18.833 58.667 34.5 83
s36.667 43.166 63 56.499s57.166 20 92.499 20c34 0 64 -6.83301 90 -20.5s46.667 -32.5 62 -56.5s27 -51.833 35 -83.5s12 -66.5 12 -104.5v-272c0 -32.667 -2 -62.834 -6 -90.501s-10.833 -54 -20.5 -79s-21.834 -46.167 -36.501 -63.5s-33.667 -31 -57 -41
s-49.666 -15 -78.999 -15z" />
    <glyph glyph-name="colon" unicode=":" horiz-adv-x="196" 
d="M60 415v114h108v-114h-108zM60 96v114h108v-114h-108z" />
    <glyph glyph-name="semicolon" unicode=";" horiz-adv-x="215" 
d="M59 446v119h108v-119h-108zM76 -46l-18 46.998c38.667 2.66699 58 25 58 67h-57v114h111v-112c0 -37.333 -7.33301 -65.666 -22 -84.999s-38.667 -29.666 -72 -30.999z" />
    <glyph glyph-name="less" unicode="&#x3c;" horiz-adv-x="373" 
d="M315 36l-286 202v107l286 204v-108l-205 -149l205 -149v-107z" />
    <glyph glyph-name="equal" unicode="=" horiz-adv-x="415" 
d="M54 456v82h307v-82h-307zM54 279v81h307v-81h-307z" />
    <glyph glyph-name="greater" unicode="&#x3e;" horiz-adv-x="373" 
d="M58 36v107l206 150l-206 148v108l287 -203v-107z" />
    <glyph glyph-name="question" unicode="?" horiz-adv-x="486" 
d="M157 0v110h107v-110h-107zM162 203l0.00585938 124.002c27.333 24 50.166 45.5 68.499 64.5s36.666 40.833 54.999 65.5s32.166 50.167 41.499 76.5s14 53.5 14 81.5c0 32.667 -9 59.5 -27 80.5s-42 31.5 -72 31.5c-30.667 0 -53.334 -9.16699 -68.001 -27.5
s-19.334 -42.5 -14.001 -72.5l5 -35l-100 -19l-6 34c-12.667 64.667 -1.5 116.334 33.5 155.001s85.167 58 150.5 58c64 0 113.833 -18.167 149.5 -54.5s53.5 -87.5 53.5 -153.5c0 -30 -3.83301 -57.833 -11.5 -83.5s-21.334 -51.834 -41.001 -78.501
s-36.167 -47.334 -49.5 -62.001s-35.333 -37.334 -66 -68.001c-9.33301 -9.33301 -16.333 -16 -21 -20v-97h-95z" />
    <glyph glyph-name="at" unicode="@" horiz-adv-x="904" 
d="M448 182c16.667 2.66699 32.1689 12.833 46.502 30.5s24.5 42.5 30.5 74.5l35 233c-8.66699 3.33301 -18 5 -28 5c-26.667 0 -51.834 -11 -75.501 -33s-42.834 -52.167 -57.501 -90.5s-22 -79.5 -22 -123.5c0 -31.333 6.16699 -56.333 18.5 -75s29.833 -25.667 52.5 -21z
M470.002 -134.001c-47.333 0 -91.4961 5.33008 -132.496 15.9971s-78.667 27 -113 49s-63.666 49.167 -87.999 81.5s-43.333 71.333 -57 117s-20.5 96.5 -20.5 152.5c0 70.667 7.16699 135 21.5 193s34.833 107.5 61.5 148.5s58.667 75.5 96 103.5s78.833 48.833 124.5 62.5
s95.167 20.5 148.5 20.5c47.333 0 90.666 -7.16699 129.999 -21.5s72.5 -33.666 99.5 -57.999s49.667 -53.166 68 -86.499s31.666 -68.666 39.999 -105.999s12.5 -76.333 12.5 -117c0 -59.333 -9.83301 -113.333 -29.5 -162s-47.834 -87.667 -84.501 -117
s-78.667 -44 -126 -44c-28 0 -51.333 8.33301 -70 25s-28.334 39 -29.001 67c-6 -24 -16.667 -44.5 -32 -61.5s-36.333 -26.5 -63 -28.5c-32 -2.66699 -59.5 4.16602 -82.5 20.499s-40 38.333 -51 66s-16.5 58.5 -16.5 92.5c0 37.333 5.83301 75.333 17.5 114
s27.667 73.667 48 105s45.5 56.833 75.5 76.5s62 29.5 96 29.5c10.667 0 22 -2.5 34 -7.5s22.333 -10.833 31 -17.5l10 17h78l-57 -367c-1.33301 -12 -2.33301 -21.333 -3 -28s-0.5 -13.834 0.5 -21.501s3.66699 -13.167 8 -16.5s10.166 -5 17.499 -5
c28 0 53.333 11.333 76 34s40.5 53.334 53.5 92.001s19.833 81 20.5 127c0 34 -3.16699 66.333 -9.5 97s-16.833 59.5 -31.5 86.5s-32.667 50.167 -54 69.5s-47.666 34.5 -78.999 45.5s-66.333 16.5 -105 16.5c-104.667 0 -188.834 -39.833 -252.501 -119.5
s-95.5 -186.5 -95.5 -320.5c0 -56 8 -105.667 24 -149s38.333 -78.666 67 -105.999s62.5 -47.833 101.5 -61.5s82.5 -20.5 130.5 -20.5c57.333 0 118 9 182 27l19 -78c-74.667 -21.333 -144.667 -32 -210 -32z" />
    <glyph glyph-name="A" unicode="A" horiz-adv-x="491" 
d="M179 285h135l-68 365zM19 0l172 810h109l173 -810h-107l-37 204h-165l-39 -204h-106z" />
    <glyph glyph-name="B" unicode="B" horiz-adv-x="523" 
d="M176 472l66.999 -0.000976562c46.667 0 79 10.333 97 31s27 55.334 27 104.001c0 16 -1.16699 30 -3.5 42s-5.33301 22.167 -9 30.5s-9.16699 15.333 -16.5 21s-14.666 10.167 -21.999 13.5s-17.5 6 -30.5 8s-25.5 3.16699 -37.5 3.5s-27 0.5 -45 0.5h-27v-254z
M175.999 80.999h76c48.667 0 82 11.5 100 34.5s27 61.5 27 115.5c0 52 -10.667 90.833 -32 116.5s-56 38.5 -104 38.5h-67v-305zM62.999 -0.000976562l0.000976562 810.001h186c73.333 0 127.666 -16.5 162.999 -49.5s53 -84.167 53 -153.5
c0 -103.333 -38.667 -160.333 -116 -171c48 -12 83 -34.667 105 -68s33 -79 33 -137c0 -72.667 -17.167 -129.334 -51.5 -170.001s-86.5 -61 -156.5 -61h-216z" />
    <glyph glyph-name="C" unicode="C" horiz-adv-x="514" 
d="M266 -9c-33.333 0 -62.8359 4.66895 -88.5029 14.002s-46.5 21.666 -62.5 36.999s-29.167 34.666 -39.5 57.999s-17.5 47.833 -21.5 73.5s-6 54.5 -6 86.5v286c0 34 2.16699 64.5 6.5 91.5s11.5 52 21.5 75s23.167 42 39.5 57s37 26.667 62 35s54.5 12.5 88.5 12.5
c72.667 0 124.834 -19.667 156.501 -59s47.5 -97.333 47.5 -174v-64h-107v57c0 12.667 -0.166992 22.5 -0.5 29.5s-0.666016 15.667 -0.999023 26s-1.16602 18.5 -2.49902 24.5s-3 12.833 -5 20.5s-4.66699 13.667 -8 18s-7.5 9 -12.5 14s-10.5 8.83301 -16.5 11.5
s-13.333 4.66699 -22 6s-18 2 -28 2c-15.333 0 -29 -1.66699 -41 -5s-21.667 -8.66602 -29 -15.999s-13.5 -15.333 -18.5 -24s-8.5 -20 -10.5 -34s-3.5 -27.333 -4.5 -40c-1 -13.333 -1.5 -29.333 -1.5 -48v-320c0 -60.667 7.66699 -102.834 23 -126.501
s42.666 -35.5 81.999 -35.5c14.667 0 27.5 1.5 38.5 4.5s20 8.33301 27 16s12.5 15.5 16.5 23.5s7 19 9 33s3.33301 26.833 4 38.5s1 26.834 1 45.501v60h107v-60c0 -30.667 -2 -58.334 -6 -83.001s-10.667 -47.667 -20 -69s-21.666 -39 -36.999 -53s-34.833 -25 -58.5 -33
s-51.167 -12 -82.5 -12z" />
    <glyph glyph-name="D" unicode="D" horiz-adv-x="526" 
d="M63 0l0.00195312 810h176c87.333 0 149.166 -20 185.499 -60s54.5 -102.667 54.5 -188v-297c0 -88.667 -17.833 -155 -53.5 -199s-94.834 -66 -177.501 -66h-185zM176.002 81l63.999 -0.000976562c17.333 0 32.5 1.66699 45.5 5s24 7.33301 33 12
s16.5 12.334 22.5 23.001s10.5 20.334 13.5 29.001s5.33301 21.667 7 39s2.66699 32 3 44s0.5 29.667 0.5 53v263c0 19.333 -0.333008 35.833 -1 49.5s-2 27.167 -4 40.5s-5 24.166 -9 32.499s-9 16.333 -15 24s-13.667 13.5 -23 17.5s-20.166 7.16699 -32.499 9.5
s-26.833 3.5 -43.5 3.5h-61v-645z" />
    <glyph glyph-name="E" unicode="E" horiz-adv-x="407" 
d="M63 0v810h314v-84h-201v-268h163v-80h-163v-297h203v-81h-316z" />
    <glyph glyph-name="F" unicode="F" horiz-adv-x="390" 
d="M63 0v810h313v-81h-200v-270h155v-80h-155v-379h-113z" />
    <glyph glyph-name="G" unicode="G" horiz-adv-x="535" 
d="M256 -10c-73.333 0 -126.333 23.1689 -159 69.502s-49 115.166 -49 206.499v271c0 37.333 2.16699 69.833 6.5 97.5s11.333 53.5 21 77.5s22.667 43.333 39 58s37 26.167 62 34.5s54.5 12.5 88.5 12.5c74.667 0 128.5 -19 161.5 -57s49.5 -97.667 49.5 -179v-30h-106v25
c0 22.667 -0.666992 41.5 -2 56.5s-4 29.167 -8 42.5s-9.83301 23.666 -17.5 30.999s-17.667 13 -30 17s-27.5 6 -45.5 6c-14 0 -26.5 -1.5 -37.5 -4.5s-20.167 -7 -27.5 -12s-13.5 -12 -18.5 -21s-9 -17.833 -12 -26.5s-5.33301 -19.667 -7 -33s-2.66699 -25.5 -3 -36.5
s-0.5 -24.833 -0.5 -41.5v-300c0 -62 7.5 -106.5 22.5 -133.5s43.667 -40.5 86 -40.5s71.333 14.5 87 43.5s23.5 76.167 23.5 141.5v56h-103v80h205v-401h-71l-11 93c-24.667 -68.667 -72.667 -103 -144 -103z" />
    <glyph glyph-name="H" unicode="H" horiz-adv-x="560" 
d="M63 0v810h113v-350h208v350h113v-810h-113v379h-208v-379h-113z" />
    <glyph glyph-name="I" unicode="I" horiz-adv-x="247" 
d="M69 0v810h111v-810h-111z" />
    <glyph glyph-name="J" unicode="J" horiz-adv-x="301" 
d="M7 -19v80.999c26 0 46 1.5 60 4.5s25.667 9.33301 35 19s15.5 22 18.5 37s4.5 35.833 4.5 62.5v625h112v-627c0 -36 -2.66699 -66.167 -8 -90.5s-14.5 -45.166 -27.5 -62.499s-31 -29.833 -54 -37.5s-51.833 -11.5 -86.5 -11.5h-54z" />
    <glyph glyph-name="K" unicode="K" horiz-adv-x="495" 
d="M63 0v810h113v-382l186 382h105l-160 -357l186 -453h-110l-163 401l-44 -82v-319h-113z" />
    <glyph glyph-name="L" unicode="L" horiz-adv-x="396" 
d="M63 0v810h113v-729h207v-81h-320z" />
    <glyph glyph-name="M" unicode="M" horiz-adv-x="660" 
d="M61 0l15 810h111l143 -657l144 657h110l15 -810h-91l-9 588l-137 -588h-64l-136 588l-9 -588h-92z" />
    <glyph glyph-name="N" unicode="N" horiz-adv-x="527" 
d="M63 0v810h77l230 -538v538h94v-810h-72l-233 553v-553h-96z" />
    <glyph glyph-name="O" unicode="O" horiz-adv-x="539" 
d="M270 -9c-40.667 0 -75.332 6 -103.999 18s-51.5 29.833 -68.5 53.5s-29.5 51 -37.5 82s-12 67.5 -12 109.5v307c0 84 17.167 147.667 51.5 191s91.166 65 170.499 65c78.667 0 135.167 -21.833 169.5 -65.5s51.5 -107.167 51.5 -190.5v-308
c0 -84 -17.333 -148.667 -52 -194s-91 -68 -169 -68zM269.502 80c22.333 0 40.666 3.33301 54.999 10s25.333 17 33 31s12.834 29.333 15.501 46s4 37.334 4 62.001v355c0 24.667 -1.33301 45 -4 61s-7.83398 30.833 -15.501 44.5s-18.667 23.667 -33 30
s-32.666 9.5 -54.999 9.5s-40.666 -3.16699 -54.999 -9.5s-25.333 -16.333 -33 -30s-12.834 -28.5 -15.501 -44.5s-4 -36.333 -4 -61v-355c0 -24.667 1.33301 -45.334 4 -62.001s7.83398 -32 15.501 -46s18.667 -24.333 33 -31s32.666 -10 54.999 -10z" />
    <glyph glyph-name="P" unicode="P" horiz-adv-x="479" 
d="M176 458l51.999 -0.000976562c49.333 0 83.166 8.83301 101.499 26.5s27.5 51.167 27.5 100.5c0 20.667 -0.5 37.667 -1.5 51s-3.16699 25.833 -6.5 37.5s-7.66602 20.667 -12.999 27s-13 11.833 -23 16.5s-21.667 7.83398 -35 9.50098s-29.666 2.5 -48.999 2.5h-53v-271
zM62.999 -0.000976562v810h201c70 0 120.833 -19 152.5 -57s47.5 -93.667 47.5 -167c0 -66 -17 -117.333 -51 -154s-83.333 -55 -148 -55h-89v-377h-113z" />
    <glyph glyph-name="Q" unicode="Q" horiz-adv-x="540" 
d="M270 80c22 0 40.333 3.33398 55 10.001s25.834 17 33.501 31s12.834 29.5 15.501 46.5s4 37.5 4 61.5v355c0 24.667 -1.33301 45.167 -4 61.5s-7.83398 31.166 -15.501 44.499s-18.834 23.166 -33.501 29.499s-33 9.5 -55 9.5s-40.333 -3.16699 -55 -9.5
s-25.834 -16.166 -33.501 -29.499s-12.834 -28.166 -15.501 -44.499s-4 -36.833 -4 -61.5v-355c0 -24.667 1.33301 -45.334 4 -62.001s7.83398 -32 15.501 -46s18.834 -24.333 33.501 -31s33 -10 55 -10zM435 -163.999c-42 21.333 -90.668 73.333 -146.001 156
c-2 0 -5.16699 -0.166992 -9.5 -0.5s-7.5 -0.5 -9.5 -0.5c-78.667 0 -135.334 22.5 -170.001 67.5s-52 110.167 -52 195.5v307c0 84 17.333 147.667 52 191s91.334 65 170.001 65s135.334 -21.833 170.001 -65.5s52 -107.167 52 -190.5v-308
c0 -129.333 -39.667 -210.333 -119 -243c33.333 -42.667 60 -71 80 -85z" />
    <glyph glyph-name="R" unicode="R" horiz-adv-x="519" 
d="M176 461h43c49.333 0 84.333 9.66699 105 29s31 54.333 31 105c0 49.333 -9 84 -27 104s-52 30 -102 30h-50v-268zM63 0v810h163c82 0 142.167 -16.833 180.5 -50.5s57.5 -88.5 57.5 -164.5c0 -104 -33.333 -167 -100 -189l115 -406h-109l-106 380h-88v-380h-113z" />
    <glyph glyph-name="S" unicode="S" horiz-adv-x="473" 
d="M254 -9c-68 0 -119.835 20.9951 -155.502 62.9951s-55.5 99.667 -59.5 173l100 27c7.33301 -116 45.666 -174 114.999 -174c28.667 0 50.667 8 66 24s23 39.667 23 71c0 17.333 -2 33.166 -6 47.499s-10.667 28 -20 41s-18.166 23.833 -26.499 32.5
s-20.166 20.334 -35.499 35.001l-136 120c-27.333 24.667 -47.166 50.834 -59.499 78.501s-18.5 61.167 -18.5 100.5c0 58.667 17 104.334 51 137.001s80.333 49.334 139 50.001c64.667 0.666992 113.167 -16 145.5 -50s51.833 -87 58.5 -159l-96 -26
c-1.33301 17.333 -3 32.833 -5 46.5s-5.66699 27.334 -11 41.001s-11.833 24.834 -19.5 33.501s-17.667 15.5 -30 20.5s-26.5 7.16699 -42.5 6.5c-59.333 -4 -89 -33.667 -89 -89c0 -24 4 -43.833 12 -59.5s21.667 -32.5 41 -50.5l137 -120
c35.333 -32 63.5 -66.333 84.5 -103s31.5 -78 31.5 -124c0 -59.333 -18 -106.333 -54 -141s-82.667 -52 -140 -52z" />
    <glyph glyph-name="T" unicode="T" horiz-adv-x="400" 
d="M146 0v726h-147v84h403v-84h-143v-726h-113z" />
    <glyph glyph-name="U" unicode="U" horiz-adv-x="543" 
d="M272 -9c-34.667 0 -64.668 4.5 -90.001 13.5s-46 21.167 -62 36.5s-28.833 35.166 -38.5 59.499s-16.334 50.166 -20.001 77.499s-5.5 59 -5.5 95v537h108v-542c0 -23.333 0.5 -43.5 1.5 -60.5s3.83301 -34 8.5 -51s10.834 -30.667 18.501 -41s18.167 -18.833 31.5 -25.5
s29.333 -10 48 -10s34.5 3.33301 47.5 10s23.333 15.167 31 25.5s13.834 24 18.501 41s7.66699 34 9 51s2 37.167 2 60.5v542h107v-537c0 -36 -1.66699 -67.667 -5 -95s-9.83301 -53.166 -19.5 -77.499s-22.5 -44.166 -38.5 -59.499s-36.667 -27.5 -62 -36.5
s-55.333 -13.5 -90 -13.5z" />
    <glyph glyph-name="V" unicode="V" horiz-adv-x="505" 
d="M204 0l-181 810h106l128 -597l122 597h103l-179 -810h-99z" />
    <glyph glyph-name="W" unicode="W" horiz-adv-x="729" 
d="M168 0l-132 810h94l87 -582l109 579h80l110 -582l85 585h92l-130 -810h-82l-113 600l-114 -600h-86z" />
    <glyph glyph-name="X" unicode="X" horiz-adv-x="481" 
d="M13 0l169 424l-166 386h105l123 -286l112 286h105l-170 -395l178 -415h-105l-132 305l-114 -305h-105z" />
    <glyph glyph-name="Y" unicode="Y" horiz-adv-x="481" 
d="M187 0v286l-175 524h105l124 -391l122 391h106l-174 -524v-286h-108z" />
    <glyph glyph-name="Y" unicode="&#x4ae;" horiz-adv-x="481" 
d="M187 0v286l-175 524h105l124 -391l122 391h106l-174 -524v-286h-108z" />
    <glyph glyph-name="Z" unicode="Z" horiz-adv-x="416" 
d="M38 0v81l238 648h-223v81h343v-49l-251 -680h251v-81h-358z" />
    <glyph glyph-name="bracketleft" unicode="[" horiz-adv-x="340" 
d="M63 -184v994h220v-55h-113v-884h113v-55h-220z" />
    <glyph glyph-name="backslash" unicode="\" horiz-adv-x="369" 
d="M247 0l-218 810h92l219 -810h-93z" />
    <glyph glyph-name="bracketright" unicode="]" horiz-adv-x="309" 
d="M26 -184v55h113v883h-113v56h221v-994h-221z" />
    <glyph glyph-name="asciicircum" unicode="^" horiz-adv-x="443" 
d="M34 487l134 323h108l134 -323h-102l-86 243l-87 -243h-101z" />
    <glyph glyph-name="underscore" unicode="_" horiz-adv-x="344" 
d="M0 -134v81h344v-81h-344z" />
    <glyph glyph-name="grave" unicode="`" horiz-adv-x="277" 
d="M167 612l-110 198h107l57 -198h-54z" />
    <glyph glyph-name="a" unicode="a" horiz-adv-x="425" 
d="M200 84c14 0 27.499 5.49902 40.499 16.499s22.833 21.5 29.5 31.5v164c-37.333 -21.333 -62 -37 -74 -47c-31.333 -25.333 -47 -55.333 -47 -90c0 -23.333 4.33301 -41.666 13 -54.999s21.334 -20 38.001 -20zM157.999 -8.00098
c-32.667 0 -60.167 13.4971 -82.5 40.4971s-33.5 58.167 -33.5 93.5c0 27.333 4.33301 52.166 13 74.499s18.167 40.333 28.5 54s27.833 27.834 52.5 42.501s43.834 25.167 57.501 31.5s37.834 16.5 72.501 30.5c2 0.666992 3.33301 1.33398 4 2.00098v41
c0 37.333 -3.83301 64 -11.5 80s-23.167 24 -46.5 24c-40.667 0 -61 -27.333 -61 -82v-29l-106 4c0 6 0.333008 13 1 21c3.33301 57.333 19.5 99.333 48.5 126s70.5 40 124.5 40c55.333 0 95.5 -15.167 120.5 -45.5s37.5 -76.166 37.5 -137.499v-264
c0 -43.333 3.33301 -89.666 10 -138.999h-98c-6.66699 32 -11.334 60.333 -14.001 85c-8 -26 -21.833 -48 -41.5 -66s-44.834 -27 -75.501 -27z" />
    <glyph glyph-name="b" unicode="b" horiz-adv-x="447" 
d="M239 76c8.66699 0 16.3359 1.66699 23.0029 5s12.167 8.66602 16.5 15.999s7.66602 15 9.99902 23s4.16602 18.5 5.49902 31.5s2.16602 25 2.49902 36s0.5 24.833 0.5 41.5v140c0 16 -0.5 29.833 -1.5 41.5s-2.66699 23.667 -5 36s-5.66602 22.333 -9.99902 30
s-10.333 13.834 -18 18.501s-16.834 7 -27.501 7c-23.333 0 -47.333 -9.66699 -72 -29v-371c22.667 -17.333 48 -26 76 -26zM261.002 -8c-34.667 0 -67.334 16.667 -98.001 50v-42h-107v810h107v-278c31.333 36 67.666 54 108.999 54c16.667 0 31.834 -2.83301 45.501 -8.5
s24.834 -13 33.501 -22s16.5 -20.167 23.5 -33.5s12.333 -26.333 16 -39s6.5 -26.5 8.5 -41.5s3.33301 -28 4 -39s1 -22.167 1 -33.5v-140c0 -158 -47.667 -237 -143 -237z" />
    <glyph glyph-name="c" unicode="c" horiz-adv-x="410" 
d="M212 -8c-28 0 -51.999 3.6709 -71.999 11.0039s-36.167 17.166 -48.5 29.499s-22.166 28.5 -29.499 48.5s-12.333 41 -15 63s-4 48 -4 78v133c0 38.667 2.33301 71.334 7 98.001s13 50.5 25 71.5s29.333 36.5 52 46.5s51 15 85 15c30.667 0 56.5 -3.83301 77.5 -11.5
s37.167 -19.334 48.5 -35.001s19.5 -34.334 24.5 -56.001s7.5 -48.167 7.5 -79.5v-34h-97v35c0 38 -4.16699 64.5 -12.5 79.5s-24.166 22.5 -47.499 22.5c-26 0 -43 -9 -51 -27s-12 -52.333 -12 -103v-182c0 -48.667 4.5 -81.5 13.5 -98.5s25.833 -25.5 50.5 -25.5
c10.667 0 19.5 1.66699 26.5 5s12.667 7.66602 17 12.999s7.66602 12.666 9.99902 21.999s3.83301 18.333 4.5 27s1 19.667 1 33v47h97v-40c0 -30.667 -2.5 -57 -7.5 -79s-13.333 -41.333 -25 -58s-27.834 -29 -48.501 -37s-46.334 -12 -77.001 -12z" />
    <glyph glyph-name="d" unicode="d" horiz-adv-x="441" 
d="M215 76c20.667 0 42.667 7.33398 66 22.001v379c-23.333 16.667 -46 25 -68 25c-42 0 -63 -40.333 -63 -121v-163c0 -18 0.5 -33.5 1.5 -46.5s2.83301 -25.833 5.5 -38.5s6.16699 -22.834 10.5 -30.501s10.5 -14 18.5 -19s17.667 -7.5 29 -7.5zM188 -7.99902
c-50 0 -86.666 18.166 -109.999 54.499s-35 96.5 -35 180.5v112c0 28.667 1.16699 54.334 3.5 77.001s6.66602 45 12.999 67s14.5 40.167 24.5 54.5s23.5 26 40.5 35s37.167 13.5 60.5 13.5c34.667 0 66.667 -15 96 -45v269h107v-810h-107v37
c-28.667 -30 -59.667 -45 -93 -45z" />
    <glyph glyph-name="e" unicode="e" horiz-adv-x="420" 
d="M150 345l123 -0.00195312v52c0 15.333 -0.333008 28.333 -1 39s-2.33398 20.834 -5.00098 30.501s-6.16699 17.334 -10.5 23.001s-10 10 -17 13s-15.833 4.5 -26.5 4.5c-25.333 0 -42.166 -9 -50.499 -27s-12.5 -52.667 -12.5 -104v-31zM214 -8.00195
c-34 0 -62.1719 4.83398 -84.5049 14.501s-39.666 24.667 -51.999 45s-21.166 44 -26.499 71s-8 60.5 -8 100.5v132c0 40 2.83301 73.833 8.5 101.5s14.834 51.5 27.501 71.5s30.167 34.667 52.5 44s49.833 14 82.5 14c20.667 0 38.834 -2 54.501 -6
s29.334 -9.33301 41.001 -16s21.667 -15.834 30 -27.501s15 -24 20 -37s8.83301 -28.667 11.5 -47s4.5 -36.5 5.5 -54.5s1.5 -39.333 1.5 -64v-47h-228v-77v-6c0 -16 0.166992 -28 0.5 -36s1 -18.333 2 -31s2.83301 -22 5.5 -28s6.33398 -12.5 11.001 -19.5
s10.667 -11.833 18 -14.5s16 -4 26 -4c23.333 0 39.166 7.83301 47.499 23.5s12.5 39.5 12.5 71.5v35h104v-22c0 -124.667 -54.333 -187 -163 -187z" />
    <glyph glyph-name="f" unicode="f" horiz-adv-x="287" 
d="M88 0v499.001h-69v79h69v30c0 23.333 0.833008 43.166 2.5 59.499s5.16699 32.166 10.5 47.499s12.5 27.5 21.5 36.5s21 16.167 36 21.5s33.167 8 54.5 8c17.333 0 40.666 -1.66699 69.999 -5v-80c-26 3.33301 -39.333 5 -40 5c-19.333 0 -32.166 -6.16699 -38.499 -18.5
s-9.5 -31.166 -9.5 -56.499v-48h88v-79h-88v-499h-107z" />
    <glyph glyph-name="g" unicode="g" horiz-adv-x="435" 
d="M207 252c28 0 46.5 10 55.5 30s13.5 52.667 13.5 98c0 18 -0.5 33 -1.5 45s-2.83301 24 -5.5 36s-6.5 21.333 -11.5 28s-11.5 12.167 -19.5 16.5s-18 6.5 -30 6.5c-28 0 -46.833 -10.5 -56.5 -31.5s-14.5 -54.5 -14.5 -100.5c0 -16 0.5 -29.833 1.5 -41.5
s3 -23.167 6 -34.5s7 -20.5 12 -27.5s11.667 -12.833 20 -17.5s18.5 -7 30.5 -7zM232 -95c30.667 0 53.5 4.66699 68.5 14s22.5 23.666 22.5 42.999c0 18 -5.5 31.667 -16.5 41s-31.833 15.333 -62.5 18l-91 8c-9.33301 -8 -18.833 -18.667 -28.5 -32
s-14.5 -27.666 -14.5 -42.999c0 -12 2.83301 -21.167 8.5 -27.5s17.5 -11.5 35.5 -15.5s44 -6 78 -6zM234 -179c-20.667 0 -38.835 0.337891 -54.502 1.00488s-32.334 2 -50.001 4s-32.667 5 -45 9s-23.666 9.33301 -33.999 16s-18 15 -23 25s-7.5 21.667 -7.5 35
c0 30 7.83301 55.833 23.5 77.5s35.5 39.167 59.5 52.5c-18 5.33301 -31.833 13.666 -41.5 24.999s-14.5 23.666 -14.5 36.999c0 20 5 37.5 15 52.5s26.333 32.5 49 52.5c-22.667 17.333 -39.5 39.166 -50.5 65.499s-16.5 61.833 -16.5 106.5
c0 67.333 13.667 118.5 41 153.5s68 52.5 122 52.5c58.667 0 98.334 -21.333 119.001 -64c4.66699 6.66699 14.5 16.334 29.5 29.001s31.167 23 48.5 31l16 7l27 -69c-13.333 -2.66699 -31.833 -8.33398 -55.5 -17.001s-37.834 -15.334 -42.501 -20.001
c4.66699 -12 8.83398 -28.5 12.501 -49.5s5.5 -39.833 5.5 -56.5c0 -30.667 -2.66699 -57.834 -8 -81.501s-14.166 -44.5 -26.499 -62.5s-29 -31.833 -50 -41.5s-46.167 -14.5 -75.5 -14.5c-5.33301 0 -15.333 1 -30 3s-23 3.33301 -25 4
c0 -0.666992 -1.33301 -3.16699 -4 -7.5s-4.5 -7.33301 -5.5 -9s-2.5 -4.5 -4.5 -8.5s-3.33301 -7.5 -4 -10.5s-1 -5.83301 -1 -8.5c0 -7.33301 3.83301 -13 11.5 -17s19.834 -7 36.501 -9c1.33301 0 16.5 -1.33301 45.5 -4s43.833 -4 44.5 -4
c89.333 -8.66699 134 -55.667 134 -141c0 -52 -13.833 -89 -41.5 -111s-70.834 -33 -129.501 -33z" />
    <glyph glyph-name="h" unicode="h" horiz-adv-x="445" 
d="M57 0l0.000976562 810h107v-292c47.333 45.333 95.666 68 144.999 68c16 0 29.833 -3.5 41.5 -10.5s20.667 -16.333 27 -28s10.833 -24 13.5 -37s4 -27.167 4 -42.5v-468h-107v437c0 22 -3.16699 38.333 -9.5 49s-18.5 16 -36.5 16c-22 0 -48 -12.667 -78 -38v-464h-107z
" />
    <glyph glyph-name="i" unicode="i" horiz-adv-x="228" 
d="M61 664v112h107v-112h-107zM61 0v578h107v-578h-107z" />
    <glyph glyph-name="j" unicode="j" horiz-adv-x="229" 
d="M69 664v112h108v-112h-108zM-19 -139v77c8.66699 -2 18 -3 28 -3c40 0 60 23.333 60 70v573h107v-584c0 -44.667 -12.333 -79.167 -37 -103.5s-59 -36.5 -103 -36.5c-24.667 0 -43 2.33301 -55 7z" />
    <glyph glyph-name="k" unicode="k" horiz-adv-x="428" 
d="M56 1v810h107v-483l156 250h112l-136 -226l132 -352h-107l-108 296l-49 -74v-221h-107z" />
    <glyph glyph-name="l" unicode="l" horiz-adv-x="229" 
d="M64 0v810h107v-810h-107z" />
    <glyph glyph-name="m" unicode="m" horiz-adv-x="679" 
d="M54 0l0.000976562 577.998h99v-55c39.333 43.333 84.666 65 135.999 65c48.667 0 80 -24.333 94 -73c40.667 48.667 88.667 73 144 73c30 0 54.5 -11 73.5 -33s28.5 -55.667 28.5 -101v-454h-98v447c0 26.667 -4.33301 45.334 -13 56.001s-21 15.667 -37 15
c-30 0 -60 -15.667 -90 -47v-17v-454h-98v447c0 26.667 -4.33301 45.334 -13 56.001s-21 15.667 -37 15c-29.333 0 -59.333 -15.667 -90 -47v-471h-99z" />
    <glyph glyph-name="n" unicode="n" 
d="M54 0v578h107v-57c45.333 43.333 92.333 65 141 65c16 0 30 -3.5 42 -10.5s21.167 -16.333 27.5 -28s10.833 -24 13.5 -37s4 -27.167 4 -42.5v-468h-107v437c0 22 -3.33301 38.333 -10 49s-18.667 16 -36 16c-21.333 0 -46.333 -12 -75 -36v-466h-107z" />
    <glyph glyph-name="o" unicode="o" horiz-adv-x="423" 
d="M212 -8c-31.333 0 -58 4.83105 -80 14.498s-39.333 24.167 -52 43.5s-22 41.5 -28 66.5s-9 54.5 -9 88.5v168c0 34 3 63.5 9 88.5s15.333 47.167 28 66.5s30 33.833 52 43.5s48.667 14.5 80 14.5c60.667 0 103.834 -18.167 129.501 -54.5s38.5 -89.166 38.5 -158.499
v-168c0 -69.333 -12.833 -122.166 -38.5 -158.499s-68.834 -54.5 -129.501 -54.5zM212 70.998c10 0 18.665 1.50195 25.998 4.50195s13 7.83301 17 14.5s7.33301 13.167 10 19.5s4.5 15.5 5.5 27.5s1.66699 21.667 2 29s0.5 18 0.5 32v181
c0 12.667 -0.166992 22.167 -0.5 28.5s-0.666016 14.833 -0.999023 25.5s-1.33301 18.834 -3 24.501s-4 12.167 -7 19.5s-6.66699 12.833 -11 16.5s-9.66602 6.83398 -15.999 9.50098s-13.833 4 -22.5 4s-16.334 -1.33301 -23.001 -4s-12 -5.83398 -16 -9.50098
s-7.66699 -9.16699 -11 -16.5s-5.66602 -13.833 -6.99902 -19.5s-2.33301 -13.834 -3 -24.501s-1.16699 -19.167 -1.5 -25.5s-0.5 -15.833 -0.5 -28.5v-181c0 -12.667 0.166992 -22 0.5 -28s0.833008 -14.333 1.5 -25s1.66699 -18.834 3 -24.501
s3.66602 -12.167 6.99902 -19.5s7 -12.833 11 -16.5s9.33301 -6.83398 16 -9.50098s14.334 -4 23.001 -4z" />
    <glyph glyph-name="p" unicode="p" horiz-adv-x="446" 
d="M238 76c9.33301 0 17.168 1.66699 23.501 5s11.666 8.66602 15.999 15.999s7.83301 15 10.5 23s4.5 18.5 5.5 31.5s1.66699 25 2 36s0.5 24.833 0.5 41.5v140c0 16 -0.5 29.833 -1.5 41.5s-2.66699 23.667 -5 36s-5.66602 22.333 -9.99902 30s-10.333 13.834 -18 18.501
s-16.834 7 -27.501 7c-24.667 0 -49 -10 -73 -30v-370c23.333 -17.333 49 -26 77 -26zM54.002 -190l0.000976562 768h107v-46c30.667 36 67.334 54 110.001 54c19.333 0 36.5 -3.66699 51.5 -11s27.167 -17.5 36.5 -30.5s17.166 -26.667 23.499 -41s10.833 -30.333 13.5 -48
s4.5 -33 5.5 -46s1.5 -26.5 1.5 -40.5v-140c0 -158 -48 -237 -144 -237c-34.667 0 -67.334 17 -98.001 51v-233h-107z" />
    <glyph glyph-name="q" unicode="q" horiz-adv-x="442" 
d="M216 76c21.333 0 43.333 7.33398 66 22.001v379c-24 16.667 -46.667 25 -68 25c-42 0 -63 -40.333 -63 -121v-163c0 -18 0.5 -33.5 1.5 -46.5s2.83301 -25.833 5.5 -38.5s6.16699 -22.834 10.5 -30.501s10.5 -14 18.5 -19s17.667 -7.5 29 -7.5zM282 -189.999
l-0.000976562 227c-28 -30 -59 -45 -93 -45c-50 0 -86.667 18.167 -110 54.5s-35 96.5 -35 180.5v112c0 36 2 67.667 6 95s10.833 53 20.5 77s24.334 42.5 44.001 55.5s43.5 19.5 71.5 19.5c34 0 66 -15 96 -45v37h107v-768h-107z" />
    <glyph glyph-name="r" unicode="r" horiz-adv-x="321" 
d="M57 0l-0.000976562 578h107v-82c20 33.333 40.333 56.5 61 69.5s43 19.5 67 19.5c6.66699 0 12.334 -0.333008 17.001 -1v-118c-20 7.33301 -39.667 11.333 -59 12c-18 0 -33.667 -4 -47 -12s-26.333 -22.667 -39 -44v-422h-107z" />
    <glyph glyph-name="s" unicode="s" horiz-adv-x="373" 
d="M188 -8c-46.667 0 -84.501 14.6699 -113.501 44.0029s-45.5 68.666 -49.5 117.999l89 27c4 -37.333 12.333 -65 25 -83s30.334 -27 53.001 -27c19.333 0 35 6.16699 47 18.5s17.667 28.166 17 47.499c-1.33301 28.667 -17 55.667 -47 81l-99 85
c-23.333 20 -41.166 40.667 -53.499 62s-18.166 47.666 -17.499 78.999c1.33301 45.333 15.166 80.333 41.499 105s62.166 37 107.499 37c43.333 0 77.833 -14.333 103.5 -43s40.167 -65 43.5 -109l-72 -27c-4 32.667 -11.333 57.5 -22 74.5s-27 25.5 -49 25.5
c-17.333 0 -31.333 -5.66699 -42 -17s-15.667 -25.333 -15 -42c0 -22 9.66699 -41.333 29 -58l102 -94c26 -22.667 46.167 -46 60.5 -70s21.5 -52.667 21.5 -86c0 -48 -14.333 -84.667 -43 -110s-67.667 -38 -117 -38z" />
    <glyph glyph-name="t" unicode="t" horiz-adv-x="308" 
d="M208 -8c-44 0 -75.667 11.499 -95 34.499s-29.333 57.5 -30 103.5v377h-61v71h61v169h107v-169h93v-71h-93v-370c0 -23.333 3.66699 -39.666 11 -48.999s21.333 -14 42 -14c15.333 0 28.333 1 39 3v-79c-31.333 -4 -56 -6 -74 -6z" />
    <glyph glyph-name="u" unicode="u" 
d="M137 -8c-16 0 -30 3.5 -42 10.5s-21.167 16.333 -27.5 28s-10.833 24 -13.5 37s-4 27.167 -4 42.5v468h107v-436c0 -22 3.33301 -38.5 10 -49.5s18.667 -16.5 36 -16.5c21.333 0 46.333 12 75 36v466h107v-578h-107v57c-45.333 -43.333 -92.333 -65 -141 -65z" />
    <glyph glyph-name="v" unicode="v" horiz-adv-x="384" 
d="M129 0l-114 578h108l71 -465l72 465h104l-110 -578h-131z" />
    <glyph glyph-name="w" unicode="w" horiz-adv-x="587" 
d="M121 0l-93 578h88l60 -426l77 426h82l77 -424l60 424h88l-96 -578h-90l-79 408l-78 -408h-96z" />
    <glyph glyph-name="x" unicode="x" horiz-adv-x="388" 
d="M9 0l130 304l-127 274h102l85 -183l75 183h105l-132 -287l134 -291h-102l-91 196l-78 -196h-101z" />
    <glyph glyph-name="y" unicode="y" horiz-adv-x="391" 
d="M45 -145l0.000976562 81.999c47.333 0 77.666 4.5 90.999 13.5s16.666 27.5 9.99902 55.5c-9.33301 40.667 -15.333 67.334 -18 80.001c-11.333 48.667 -30.666 130.667 -57.999 246s-46.666 197.333 -57.999 246h108l78 -432l75 432h108l-138 -610
c-9.33301 -41.333 -28.833 -70.5 -58.5 -87.5s-71.834 -25.5 -126.501 -25.5h-13z" />
    <glyph glyph-name="z" unicode="z" horiz-adv-x="346" 
d="M32 0v72l177 426h-159v80h274v-58l-178 -439h174v-81h-288z" />
    <glyph glyph-name="braceleft" unicode="{" horiz-adv-x="300" 
d="M277 -191c-22.667 0 -41.4961 0.333008 -56.4961 1s-29.167 2.5 -42.5 5.5s-24 6.33301 -32 10s-15.167 9.5 -21.5 17.5s-11.166 16.167 -14.499 24.5s-6 20.333 -8 36s-3.16699 31.167 -3.5 46.5s-0.5 35.333 -0.5 60v141c0 38 -1.66699 65.333 -5 82
s-8.83301 28 -16.5 34s-19.834 9 -36.501 9v74c17.333 0 29.666 3.16699 36.999 9.5s12.666 17.833 15.999 34.5s5 44 5 82v140c0 24.667 0.166992 44.667 0.5 60s1.5 30.833 3.5 46.5s4.66699 27.667 8 36s8.16602 16.5 14.499 24.5s13.5 13.833 21.5 17.5s18.667 7 32 10
s27.666 4.83301 42.999 5.5s34 1 56 1v-79h-18c-4.66699 0 -9.33398 -0.666992 -14.001 -2s-8.5 -2.33301 -11.5 -3s-5.83301 -2.83398 -8.5 -6.50098s-4.66699 -6.33398 -6 -8.00098s-2.66602 -5.66699 -3.99902 -12s-2.33301 -11.333 -3 -15s-1.16699 -10.5 -1.5 -20.5
s-0.5 -18.167 -0.5 -24.5v-30.5v-156c0 -47.333 -5.66699 -82.333 -17 -105s-27.666 -36.667 -48.999 -42c22 -5.33301 38.5 -19.166 49.5 -41.499s16.5 -57.166 16.5 -104.499v-157v-30.5c0 -6.33301 0.166992 -14.5 0.5 -24.5s0.833008 -16.833 1.5 -20.5
s1.66699 -8.66699 3 -15s2.66602 -10.5 3.99902 -12.5s3.33301 -4.66699 6 -8s5.5 -5.33301 8.5 -6s6.83301 -1.66699 11.5 -3s9.5 -2 14.5 -2h17.5v-79z" />
    <glyph glyph-name="bar" unicode="|" horiz-adv-x="239" 
d="M69 -148l1 958h99v-958h-100z" />
    <glyph glyph-name="braceright" unicode="}" horiz-adv-x="321" 
d="M44 -191v78.9971h18c4.66699 0 9.33398 0.666992 14.001 2s8.5 2.33301 11.5 3s6 2.66699 9 6s5 6 6 8s2.16699 6.16699 3.5 12.5s2.33301 11.333 3 15s1.16699 10.5 1.5 20.5s0.5 18.167 0.5 24.5v30.5v157c0 47.333 5.66699 82.333 17 105s28 36.334 50 41.001
c-22 5.33301 -38.667 19.333 -50 42s-17 57.667 -17 105v156v30.5c0 6.33301 -0.166992 14.5 -0.5 24.5s-0.833008 16.833 -1.5 20.5s-1.66699 8.66699 -3 15s-2.5 10.333 -3.5 12s-3 4.33398 -6 8.00098s-6 5.83398 -9 6.50098s-6.83301 1.66699 -11.5 3
s-9.33398 2 -14.001 2h-18v79c22.667 0 41.5 -0.333008 56.5 -1s29.167 -2.5 42.5 -5.5s24 -6.33301 32 -10s15.333 -9.5 22 -17.5s11.334 -16.167 14.001 -24.5s5.16699 -20.333 7.5 -36s3.66602 -31.167 3.99902 -46.5s0.5 -35.333 0.5 -60v-140
c0 -38 1.5 -65.333 4.5 -82s8.33301 -28.167 16 -34.5s20.167 -9.5 37.5 -9.5v-74c-17.333 0 -29.833 -3 -37.5 -9s-13 -17.333 -16 -34s-4.5 -44 -4.5 -82v-141c0 -25.333 -0.166992 -45.5 -0.5 -60.5s-1.66602 -30.333 -3.99902 -46s-4.83301 -27.667 -7.5 -36
s-7.33398 -16.5 -14.001 -24.5s-14 -13.833 -22 -17.5s-18.667 -7 -32 -10s-27.5 -4.83301 -42.5 -5.5s-33.833 -1 -56.5 -1z" />
    <glyph glyph-name="asciitilde" unicode="~" horiz-adv-x="446" 
d="M296 363c-14 0 -30.501 4.83203 -49.501 14.499s-37.5 19.167 -55.5 28.5s-33 14 -45 14c-17.333 0 -41.666 -12.667 -72.999 -38l-38 51c16.667 17.333 36.667 33.833 60 49.5s43 23.5 59 23.5c16.667 0 42 -9.5 76 -28.5s58 -28.5 72 -28.5c6 0 13.333 2.16699 22 6.5
s16.167 8.83301 22.5 13.5s15.5 11.334 27.5 20.001l38 -49c-16.667 -19.333 -36 -37 -58 -53s-41.333 -24 -58 -24z" />
    <glyph glyph-name="uni00A0" unicode="&#xa0;" horiz-adv-x="230" 
 />
    <glyph glyph-name="exclamdown" unicode="&#xa1;" horiz-adv-x="207" 
d="M50 522v110h108v-110h-108zM50 -178l35 636h38l35 -636h-108z" />
    <glyph glyph-name="cent" unicode="&#xa2;" horiz-adv-x="387" 
d="M178 -79l-0.000976562 73.002c-22 2.66699 -41 8.16699 -57 16.5s-29 19 -39 32s-17.833 29.167 -23.5 48.5s-9.66699 39.166 -12 59.499s-3.5 44.166 -3.5 71.499v133c0 35.333 2 65.5 6 90.5s10.833 47.833 20.5 68.5s23.5 36.834 41.5 48.501s40.667 18.834 68 21.501
v72h34v-70c30.667 0 56.334 -3.83301 77.001 -11.5s36.667 -19.5 48 -35.5s19.5 -34.667 24.5 -56s7.5 -47.666 7.5 -78.999v-34h-97v35c0 38 -4.16699 64.5 -12.5 79.5s-24.166 22.5 -47.499 22.5c-26 0 -43 -9 -51 -27s-12 -52.333 -12 -103v-182
c0 -48.667 4.5 -81.5 13.5 -98.5s25.833 -25.5 50.5 -25.5c10.667 0 19.5 1.66699 26.5 5s12.667 7.66602 17 12.999s7.66602 12.666 9.99902 21.999s3.83301 18.333 4.5 27s1 19.667 1 33v47h97v-40c0 -62.667 -11.5 -109.334 -34.5 -140.001s-64.167 -46 -123.5 -46v-71
h-34z" />
    <glyph glyph-name="sterling" unicode="&#xa3;" horiz-adv-x="398" 
d="M2 0l0.000976562 54.001l59 26v274h-59v80h59v92c0 24.667 0.333008 46.5 1 65.5s2.5 39.167 5.5 60.5s6.83301 39.5 11.5 54.5s11.334 29.833 20.001 44.5s18.834 26.667 30.501 36s26 16.666 43 21.999s36.167 8 57.5 8c93.333 0 140.666 -57.667 141.999 -173v-33h-80
c0 13.333 -0.333008 25.166 -1 35.499s-2.33398 21 -5.00098 32s-6.16699 20 -10.5 27s-10.333 12.833 -18 17.5s-16.834 7 -27.501 7c-13.333 0 -24.333 -3.66699 -33 -11s-15 -18.166 -19 -32.499s-6.66699 -27.833 -8 -40.5s-2.33301 -28.667 -3 -48v-164h120v-80h-120
v-273h204v-81h-369z" />
    <glyph glyph-name="currency" unicode="&#xa4;" horiz-adv-x="549" 
d="M275 252c46.667 0 86 16.667 118 50s48 73.666 48 120.999s-16 87.666 -48 120.999s-71.333 50 -118 50c-46 0 -85 -16.667 -117 -50s-48 -73.666 -48 -120.999s16 -87.666 48 -120.999s71 -50 117 -50zM53 186l-15.001 14.999l80 79
c-36 40.667 -54.167 88.334 -54.5 143.001s17.834 102.334 54.501 143.001l-80 79l15 15l79 -79c40 38 87.667 56.667 143 56c55.333 0 103 -18.667 143 -56l79 79l15 -15l-79 -79c36 -40.667 53.667 -88.334 53 -143.001c0 -55.333 -18 -103 -54 -143l80 -79l-15 -15
l-79 79c-40 -38 -87.667 -56.667 -143 -56c-55.333 0 -103 18.667 -143 56z" />
    <glyph glyph-name="yen" unicode="&#xa5;" horiz-adv-x="456" 
d="M185 0v115h-89v70h89v65h-89v69h78l-164 491h105l123 -391l122 391h107l-163 -491h77v-69h-89v-65h89v-70h-89v-115h-107z" />
    <glyph glyph-name="brokenbar" unicode="&#xa6;" horiz-adv-x="212" 
d="M63 400v410h86v-410h-86zM63 -153v409h86v-409h-86z" />
    <glyph glyph-name="section" unicode="&#xa7;" horiz-adv-x="426" 
d="M240 325c13.333 6 24.832 14.8301 34.499 26.4971s14.5 25.167 14.5 40.5c0.666992 12.667 -2 25.334 -8 38.001s-15.333 23.334 -28 32.001l-56 38c-13.333 -7.33301 -24.666 -17.666 -33.999 -30.999s-14 -28 -14 -44c0 -10.667 2.83301 -21 8.5 -31s12.5 -18 20.5 -24
zM213.999 -8.00293c-46.667 0 -84.168 14.332 -112.501 42.999s-47.833 65.334 -58.5 110.001l81 27c20.667 -61.333 50.667 -92 90 -92c20 0 36 4.83301 48 14.5s18.667 24.167 20 43.5c2.66699 30.667 -11.333 57.334 -42 80.001l-115 75
c-26.667 16.667 -47.167 35 -61.5 55s-21.5 45.667 -21.5 77c0 32.667 7.5 60.167 22.5 82.5s35.833 38.833 62.5 49.5c-54.667 34.667 -82 76.334 -82 125.001c0 42 15.5 75 46.5 99s71.833 36 122.5 36c46.667 0 83.834 -14 111.501 -42s46.834 -64 57.501 -108l-81 -27
c-4.66699 12 -9 22.167 -13 30.5s-9.66699 17.5 -17 27.5s-16 17.833 -26 23.5s-21 8.5 -33 8.5c-18.667 0 -33.5 -5.33301 -44.5 -16s-16.5 -25.667 -16.5 -45c0 -20.667 11.667 -39.334 35 -56.001l129 -84c22.667 -14.667 40.167 -33.834 52.5 -57.501
s18.166 -50.167 17.499 -79.5c0 -56.667 -24.333 -98.667 -73 -126c22 -18.667 39.167 -37.5 51.5 -56.5s18.5 -41.5 18.5 -67.5c0 -48 -15.333 -85 -46 -111s-71.667 -39 -123 -39z" />
    <glyph glyph-name="dieresis" unicode="&#xa8;" horiz-adv-x="399" 
d="M231 699v111h108v-111h-108zM60 699v111h107v-111h-107z" />
    <glyph glyph-name="copyright" unicode="&#xa9;" horiz-adv-x="861" 
d="M431 -11c-40 0 -77.333 4.33398 -112 13.001s-65.5 20.5 -92.5 35.5s-51.5 33 -73.5 54s-40.5 43.833 -55.5 68.5s-27.833 51 -38.5 79s-18.334 56.333 -23.001 85s-7 58 -7 88c0 42 4.83301 82.667 14.5 122s24.834 77.333 45.501 114s46.334 68.667 77.001 96
s68.667 49.166 114 65.499s95.666 24.5 150.999 24.5c46 0 88.833 -5.66699 128.5 -17s74 -27.166 103 -47.499s54.5 -43.833 76.5 -70.5s39.667 -55.834 53 -87.501s23.5 -64.167 30.5 -97.5s10.5 -67.333 10.5 -102c0 -29.333 -2.5 -58.5 -7.5 -87.5
s-12.5 -57.5 -22.5 -85.5s-22.667 -54.333 -38 -79s-34 -47.5 -56 -68.5s-46.333 -39 -73 -54s-57.5 -26.833 -92.5 -35.5s-72.5 -13 -112.5 -13zM433.5 33.001c47.667 0 91.334 7.00098 131.001 21.001s73 33.167 100 57.5s49.833 52.833 68.5 85.5s32.334 67 41.001 103
s13 73.333 13 112s-4.33301 76.167 -13 112.5s-22.334 70.666 -41.001 102.999s-41.5 60.5 -68.5 84.5s-60.333 43 -100 57s-83.334 21 -131.001 21s-91.167 -7 -130.5 -21s-72.5 -33 -99.5 -57s-50 -52.167 -69 -84.5s-32.667 -66.5 -41 -102.5s-12.5 -73.667 -12.5 -113
c0 -38.667 4.16699 -76 12.5 -112s22 -70.5 41 -103.5s42 -61.5 69 -85.5s60.167 -43 99.5 -57s82.833 -21 130.5 -21zM432 124.002c-30.667 0 -57.332 3.83301 -79.999 11.5s-40.834 18 -54.501 31s-24.5 30 -32.5 51s-13.333 42.833 -16 65.5s-4 49.667 -4 81v107
c0 32 1.5 59.833 4.5 83.5s8.5 45.834 16.5 66.501s19 37.5 33 50.5s32 23 54 30s48.333 10.5 79 10.5c34.667 0 63.5 -3.83301 86.5 -11.5s40.833 -19.834 53.5 -36.501s21.667 -36.167 27 -58.5s8 -49.833 8 -82.5v-27h-105v27c0 40 -5 67.833 -15 83.5
s-27.667 23.5 -53 23.5c-29.333 0 -49 -9.66699 -59 -29s-15 -55 -15 -107v-158c0 -50.667 5.5 -84.834 16.5 -102.501s30.167 -26.5 57.5 -26.5s45.5 8.5 54.5 25.5s13.5 43.167 13.5 78.5v32h105v-25c0 -32 -2.66699 -59.5 -8 -82.5s-14.5 -43.167 -27.5 -60.5
s-31 -30.166 -54 -38.499s-51.5 -12.5 -85.5 -12.5z" />
    <glyph glyph-name="ordfeminine" unicode="&#xaa;" horiz-adv-x="443" 
d="M213 403c13.333 0 25.6689 4.49902 37.002 13.499s20 20.167 26 33.5v113c-12 -6 -19.667 -10 -23 -12l-20 -12c-10 -6 -16.833 -10.5 -20.5 -13.5s-8.83398 -7.66699 -15.501 -14s-11.334 -12 -14.001 -17s-5.16699 -11.167 -7.5 -18.5s-3.5 -14.666 -3.5 -21.999
c0 -16 3.66699 -28.5 11 -37.5s17.333 -13.5 30 -13.5zM178.003 320.999c-29.333 0 -53.5029 10.4951 -72.5029 31.4951s-28.5 47.5 -28.5 79.5c0 16.667 2.16699 32 6.5 46s11 26.333 20 37s18.5 19.834 28.5 27.501s22.5 15 37.5 22s28.667 12.833 41 17.5
s27.5 10.334 45.5 17.001c2.66699 0.666992 4.83398 1.33398 6.50098 2.00098s3.83398 1.33398 6.50098 2.00098s5 1.33398 7 2.00098v53c0 27.333 -3 48.666 -9 63.999s-17.333 23 -34 23c-34.667 0 -52 -29.333 -52 -88h-88c0.666992 50.667 13.334 90.834 38.001 120.501
s59 44.5 103 44.5c27.333 0 50 -4.16699 68 -12.5s31.833 -21.166 41.5 -38.499s16.5 -37.333 20.5 -60s6 -50.334 6 -83.001v-301h-86v64c-10 -20.667 -24.5 -37.5 -43.5 -50.5s-39.833 -19.5 -62.5 -19.5z" />
    <glyph glyph-name="guillemotleft" unicode="&#xab;" horiz-adv-x="455" 
d="M389 41l-164 228v52l164 228v-134l-82 -120l82 -121v-133zM194 41l-163 228v52l163 228v-134l-82 -120l82 -121v-133z" />
    <glyph glyph-name="logicalnot" unicode="&#xac;" horiz-adv-x="387" 
d="M305 256v112h-265v81h320v-193h-55z" />
    <glyph glyph-name="uni00AD" unicode="&#xad;" horiz-adv-x="343" 
d="M58 467v81h230v-81h-230z" />
    <glyph glyph-name="registered" unicode="&#xae;" horiz-adv-x="887" 
d="M444 -13c-54.667 0 -104.5 8.16895 -149.5 24.502s-82.667 38 -113 65s-55.833 58.667 -76.5 95s-35.667 74 -45 113s-14 79.167 -14 120.5s4.66699 81.666 14 120.999s24.333 77.166 45 113.499s46.167 68 76.5 95s68 48.5 113 64.5s94.833 24 149.5 24
c39.333 0 76.333 -4.16699 111 -12.5s65.334 -20 92.001 -35s50.834 -32.833 72.501 -53.5s40 -43.167 55 -67.5s27.667 -50.333 38 -78s17.833 -55.834 22.5 -84.501s7 -57.667 7 -87s-2.33301 -58.166 -7 -86.499s-12.167 -56.5 -22.5 -84.5s-23 -54.167 -38 -78.5
s-33.333 -46.833 -55 -67.5s-45.834 -38.5 -72.501 -53.5s-57.334 -26.667 -92.001 -35s-71.667 -12.5 -111 -12.5zM444 37.002c45.333 0 87 6.83301 125 20.5s70.167 32.167 96.5 55.5s48.5 50.833 66.5 82.5s31.167 65 39.5 100s12.5 71.333 12.5 109
s-4.16699 74 -12.5 109s-21.5 68.333 -39.5 100s-40.167 59 -66.5 82s-58.333 41.333 -96 55s-79.5 20.5 -125.5 20.5s-88.167 -6.83301 -126.5 -20.5s-70.5 -32 -96.5 -55s-48 -50.333 -66 -82s-31.167 -65 -39.5 -100s-12.5 -71.333 -12.5 -109s4.16699 -74 12.5 -109
s21.5 -68.333 39.5 -100s40 -59 66 -82s58.167 -41.5 96.5 -55.5s80.5 -21 126.5 -21zM385 423.002l32.999 0.000976562c40 0 67.167 7.16699 81.5 21.5s21.5 40.166 21.5 77.499c0 30 -6.16699 52.5 -18.5 67.5s-33.166 22.5 -62.499 22.5h-55v-189zM291.999 144.003v530
h156c112.667 0 169 -51.333 169 -154c0 -61.333 -28.333 -104 -85 -128l96 -248h-97l-85 229h-61v-229h-93z" />
    <glyph glyph-name="macron" unicode="&#xaf;" horiz-adv-x="299" 
d="M62 745v65h192v-65h-192z" />
    <glyph glyph-name="degree" unicode="&#xb0;" horiz-adv-x="452" 
d="M226 481c-52 0 -93 15 -123 45s-45 71.333 -45 124s15 93.667 45 123s71 44 123 44s93.167 -14.833 123.5 -44.5s45.5 -70.5 45.5 -122.5c0 -52.667 -15.167 -94 -45.5 -124s-71.5 -45 -123.5 -45zM226 553c27.333 0 48.666 8.83301 63.999 26.5s23 41.167 23 70.5
s-7.66699 52.833 -23 70.5s-36.666 26.5 -63.999 26.5s-48.666 -8.83301 -63.999 -26.5s-23 -41.167 -23 -70.5s7.66699 -52.833 23 -70.5s36.666 -26.5 63.999 -26.5z" />
    <glyph glyph-name="plusminus" unicode="&#xb1;" horiz-adv-x="368" 
d="M57 0v82h256v-82h-256zM144 175v87h-87v82h87v87h82v-87h87v-82h-87v-87h-82z" />
    <glyph glyph-name="uni00B2" unicode="&#xb2;" horiz-adv-x="436" 
d="M85 307l-0.00195312 57.001l146 229c2.66699 4.66699 8.66699 14 18 28s15.5 23.833 18.5 29.5s7.33301 14.167 13 25.5s9.33398 22.166 11.001 32.499s2.5 21.833 2.5 34.5c0 28 -4.33301 49.333 -13 64s-23.334 22 -44.001 22c-12 0 -22.833 -6.16699 -32.5 -18.5
s-16.667 -26.333 -21 -42s-7.66602 -29.5 -9.99902 -41.5s-3.5 -19.667 -3.5 -23h-79v20c0 113.333 47.333 170 142 170c46.667 0 81.834 -13 105.501 -39s35.5 -63 35.5 -111c0 -22 -2.83301 -43 -8.5 -63s-12.167 -36.333 -19.5 -49s-17.333 -29 -30 -49l-2 -2
c-0.666992 -0.666992 -1.16699 -1.5 -1.5 -2.5s-0.833008 -1.83301 -1.5 -2.5l-132 -202h180v-67h-274z" />
    <glyph glyph-name="uni00B3" unicode="&#xb3;" horiz-adv-x="436" 
d="M239 301c-54.667 0 -93.8311 14.1689 -117.498 42.502s-35.5 70.833 -35.5 127.5v34h89v-36c0 -60.667 20.667 -91 62 -91c21.333 0 37.666 7.5 48.999 22.5s17 35.5 17 61.5c0 30 -6.16699 54.833 -18.5 74.5s-29.833 29.5 -52.5 29.5h-42v69h40
c23.333 0 41.333 10.167 54 30.5s19 46.166 19 77.499c0 26 -5.66699 45.667 -17 59s-27.333 20 -48 20c-20 0 -35.333 -6.83301 -46 -20.5s-16 -32.834 -16 -57.501v-49h-90v46c0 46.667 13 83.834 39 111.501s63 41.5 111 41.5c50 0 87.667 -13.333 113 -40
s38 -65.667 38 -117c0 -32 -7.83301 -60.333 -23.5 -85s-32.834 -39.334 -51.501 -44.001c21.333 -8 39.333 -23 54 -45s22 -52.333 22 -91c0 -54 -12.667 -96 -38 -126s-62.333 -45 -111 -45z" />
    <glyph glyph-name="acute" unicode="&#xb4;" horiz-adv-x="277" 
d="M56 612l59 198h107l-112 -198h-54z" />
    <glyph glyph-name="mu" unicode="&#xb5;" horiz-adv-x="441" 
d="M51 -175l-0.999023 752.999h107v-436c0 -22 3.33301 -38.5 10 -49.5s18.667 -16.5 36 -16.5c21.333 0 46.333 12 75 36v466h107v-578h-107v57c-32.667 -31.333 -66.334 -51 -101.001 -59c-7.33301 -1.33301 -13.333 -1.66602 -18 -0.999023v-172h-108z" />
    <glyph glyph-name="paragraph" unicode="&#xb6;" horiz-adv-x="491" 
d="M199 -96l-0.000976562 610.999c-50 0 -90.333 12.833 -121 38.5s-46 61.834 -46 108.501c0 49.333 15.833 86.333 47.5 111s76.834 37 135.501 37h214v-906h-77v855h-77v-855h-76z" />
    <glyph glyph-name="periodcentered" unicode="&#xb7;" horiz-adv-x="175" 
d="M36 322v110h108v-110h-108z" />
    <glyph glyph-name="cedilla" unicode="&#xb8;" horiz-adv-x="252" 
d="M29 -225l-0.0078125 54c17.333 -4.66699 34.333 -7.16699 51 -7.5s30.834 2.5 42.501 8.5s17.834 15 18.501 27c0 7.33301 -1.66699 14 -5 20s-7.16602 10.667 -11.499 14s-10.833 6.83301 -19.5 10.5s-16.167 6.33398 -22.5 8.00098s-15.166 4.16699 -26.499 7.5v83h54
v-56c30 -4.66699 55.833 -14.334 77.5 -29.001s32.834 -33.667 33.501 -57c0.666992 -20 -4.16602 -37.333 -14.499 -52s-24.666 -25.167 -42.999 -31.5s-39.166 -9.5 -62.499 -9.5s-47.333 3.33301 -72 10z" />
    <glyph glyph-name="uni00B9" unicode="&#xb9;" horiz-adv-x="423" 
d="M201 306l-1.00098 473.999c-0.666992 -1.33301 -15.5 -4.83301 -44.5 -10.5s-48.167 -9.5 -57.5 -11.5v59c16.667 4 30.334 7.83301 41.001 11.5s24.5 10.334 41.5 20.001s29.833 20.5 38.5 32.5h59l1 -575h-78z" />
    <glyph glyph-name="ordmasculine" unicode="&#xba;" horiz-adv-x="443" 
d="M219.5 398c11.667 0 21.667 2.33594 30 7.00293s14.5 10.167 18.5 16.5s7.16699 15.5 9.5 27.5s3.66602 22.333 3.99902 31s0.5 21 0.5 37v108c0 13.333 -0.166992 23.666 -0.5 30.999s-1 16.333 -2 27s-2.83301 19 -5.5 25s-6.16699 12 -10.5 18
s-10.166 10.333 -17.499 13s-16 4 -26 4s-18.667 -1.33301 -26 -4s-13.333 -7 -18 -13s-8.33398 -12.167 -11.001 -18.5s-4.66699 -14.5 -6 -24.5s-2.16602 -19 -2.49902 -27s-0.5 -18.333 -0.5 -31v-108c0 -14.667 0.166992 -26.834 0.5 -36.501s1.83301 -20.167 4.5 -31.5
s6.16699 -20.333 10.5 -27s10.5 -12.334 18.5 -17.001s17.833 -7 29.5 -7zM222 320.003c-56 0 -95.833 15.833 -119.5 47.5s-35.5 77.5 -35.5 137.5v132c0 60 11.833 105.833 35.5 137.5s63.5 47.5 119.5 47.5c53.333 0 92.333 -16.5 117 -49.5s37 -78.167 37 -135.5v-132
c0 -57.333 -12.333 -102.5 -37 -135.5s-63.667 -49.5 -117 -49.5z" />
    <glyph glyph-name="guillemotright" unicode="&#xbb;" horiz-adv-x="480" 
d="M252 41v133l91 121l-91 120v134l172 -228v-52zM57 41v133l91 121l-91 120v134l173 -228v-52z" />
    <glyph glyph-name="onequarter" unicode="&#xbc;" horiz-adv-x="805" 
d="M532 174h81v159zM198 0l263 810h90l-264 -810h-89zM118 390l0.000976562 285.999l-60 -5v56c49.333 24.667 86.666 52.334 111.999 83.001h29v-420h-81zM613.001 -0.000976562v119h-146v55l154 271h73v-271h58v-55h-58v-119h-81z" />
    <glyph glyph-name="onehalf" unicode="&#xbd;" horiz-adv-x="805" 
d="M202 0l263 810h90l-264 -810h-89zM119 390v285.999l-60 -5v56c50 24.667 87.333 52.334 112 83.001h29v-420h-81zM507 0.999023v55l92 124c2 2.66699 7 9.16699 15 19.5s13.5 17.833 16.5 22.5s7.16699 11.667 12.5 21s9 18.5 11 27.5s3 18.167 3 27.5
c0 10 -0.333008 18 -1 24s-2.16699 12.167 -4.5 18.5s-5.83301 11 -10.5 14s-10.667 4.5 -18 4.5c-8 0 -14.5 -1.5 -19.5 -4.5s-8.5 -7.83301 -10.5 -14.5s-3.33301 -13 -4 -19s-1 -14.333 -1 -25h-81v8c1.33301 35.333 12 62.666 32 81.999s48 29 84 29
c36.667 0 65 -10.167 85 -30.5s30 -49.166 30 -86.499c0 -28 -7.5 -54.667 -22.5 -80s-35.833 -53.333 -62.5 -84c-24.667 -27.333 -46 -53.333 -64 -78h147v-55h-229z" />
    <glyph glyph-name="threequarters" unicode="&#xbe;" horiz-adv-x="805" 
d="M560 174h81v159zM233 0l264 810h89l-264 -810h-89zM641 0v119h-146v55l153 271h74v-271h58v-55h-58v-119h-81zM161 405c-36.667 0 -64.834 9.99414 -84.501 29.9941s-29.5 48.333 -29.5 85h81c0 -9.33301 0.333008 -17 1 -23s2 -12.167 4 -18.5
s5.33301 -11.166 10 -14.499s10.667 -5 18 -5c14 0 23.167 5.33301 27.5 16s6.5 26.334 6.5 47.001c0 22.667 -4.5 38.834 -13.5 48.501s-24.167 14.5 -45.5 14.5v55c22 0 37.167 4.5 45.5 13.5s12.5 25.167 12.5 48.5c0 10 -0.166992 17.833 -0.5 23.5
s-1.5 11.834 -3.5 18.501s-5.33301 11.5 -10 14.5s-10.667 4.5 -18 4.5c-14 0 -23.167 -5.16699 -27.5 -15.5s-6.5 -25.166 -6.5 -44.499h-81c0 36 9.83301 64.167 29.5 84.5s48.167 30.5 85.5 30.5c36.667 0 64.834 -10.167 84.501 -30.5s29.5 -48.833 29.5 -85.5
c0 -28 -7.66699 -49.667 -23 -65s-36 -23.666 -62 -24.999c26.667 -2 47.5 -10.333 62.5 -25s22.5 -36.334 22.5 -65.001c0 -37.333 -9.83301 -66.166 -29.5 -86.499s-48.167 -30.5 -85.5 -30.5z" />
    <glyph glyph-name="questiondown" unicode="&#xbf;" horiz-adv-x="508" 
d="M248 519v109h107v-109h-107zM269 -192c-64 0 -113.836 18.168 -149.503 54.501s-53.5 87.833 -53.5 154.5c0 20.667 2 40.334 6 59.001s10.167 36.5 18.5 53.5s16.833 32.667 25.5 47s20.334 29.666 35.001 45.999s27.834 30.5 39.501 42.5s26.834 27 45.501 45
c8.66699 8 15 14 19 18v98h95v-125c-27.333 -24 -50.333 -45.5 -69 -64.5s-37 -40.833 -55 -65.5s-31.667 -50 -41 -76s-14 -53 -14 -81c0 -32.667 9.16699 -59.5 27.5 -80.5s42.166 -31.5 71.499 -31.5c30.667 0 53.334 9 68.001 27s19.667 41.667 15 71l-6 37l100 18
l6 -34c12.667 -64.667 1.5 -116.334 -33.5 -155.001s-85.167 -58 -150.5 -58z" />
    <glyph glyph-name="Agrave" unicode="&#xc0;" horiz-adv-x="491" 
d="M218 877l-110 198h107l57 -198h-54zM179 285h135l-68 365zM19 0l172 810h109l173 -810h-107l-37 204h-165l-39 -204h-106z" />
    <glyph glyph-name="Aacute" unicode="&#xc1;" horiz-adv-x="491" 
d="M219 877l59 198h107l-112 -198h-54zM179 285h135l-68 365zM19 0l172 810h109l173 -810h-107l-37 204h-165l-39 -204h-106z" />
    <glyph glyph-name="Acircumflex" unicode="&#xc2;" horiz-adv-x="491" 
d="M105 877l86 175h109l86 -175h-80l-61 121l-60 -121h-80zM179 285h135l-68 365zM19 0l172 810h109l173 -810h-107l-37 204h-165l-39 -204h-106z" />
    <glyph glyph-name="Atilde" unicode="&#xc3;" horiz-adv-x="491" 
d="M312 877c-16.667 0 -40.167 8.16797 -70.5 24.501s-50.166 24.5 -59.499 24.5c-8.66699 0.666992 -15 -2.33301 -19 -9s-6 -17.334 -6 -32.001h-61c0 73.333 28.667 109.333 86 108c17.333 0 41.666 -8 72.999 -24s50.333 -24 57 -24c8.66699 0 14.667 3 18 9s5 17 5 33
h60c0 -34 -6.16699 -60.833 -18.5 -80.5s-33.833 -29.5 -64.5 -29.5zM179 285.001h135l-68 365zM19 0.000976562l172 810h109l173 -810h-107l-37 204h-165l-39 -204h-106z" />
    <glyph glyph-name="Adieresis" unicode="&#xc4;" horiz-adv-x="491" 
d="M277 877v111h108v-111h-108zM105 877v111h108v-111h-108zM179 285h135l-68 365zM19 0l172 810h109l173 -810h-107l-37 204h-165l-39 -204h-106z" />
    <glyph glyph-name="Aring" unicode="&#xc5;" horiz-adv-x="491" 
d="M245.5 864c17.667 0 31.667 5.16699 42 15.5s15.5 24.5 15.5 42.5s-5.16699 32.167 -15.5 42.5s-24.333 15.5 -42 15.5s-31.667 -5.16699 -42 -15.5s-15.5 -24.5 -15.5 -42.5s5.16699 -32.167 15.5 -42.5s24.333 -15.5 42 -15.5zM245.5 810
c-33.667 0 -60.667 10.167 -81 30.5s-30.5 47.5 -30.5 81.5s10.167 61 30.5 81s47.333 30 81 30s60.667 -10 81 -30s30.5 -47 30.5 -81s-10.167 -61.167 -30.5 -81.5s-47.333 -30.5 -81 -30.5zM179 285h135l-68 365zM19 0l172 810h109l173 -810h-107l-37 204h-165l-39 -204
h-106z" />
    <glyph glyph-name="AE" unicode="&#xc6;" horiz-adv-x="633" 
d="M173 286h119v319zM-51 0l341 810h315v-82h-205v-268h147v-81h-147v-297h205v-82h-313v205h-149l-86 -205h-108z" />
    <glyph glyph-name="Ccedilla" unicode="&#xc7;" horiz-adv-x="514" 
d="M205 -225l-0.0078125 54c17.333 -4.66699 34.333 -7.16699 51 -7.5s30.834 2.5 42.501 8.5s17.834 15 18.501 27c0 7.33301 -1.66699 14 -5 20s-7.16602 10.667 -11.499 14s-10.833 6.83301 -19.5 10.5s-16.167 6.33398 -22.5 8.00098s-15.166 4.16699 -26.499 7.5v83h54
v-56c30 -4.66699 55.833 -14.334 77.5 -29.001s32.834 -33.667 33.501 -57c0.666992 -20 -4.16602 -37.333 -14.499 -52s-24.666 -25.167 -42.999 -31.5s-39.166 -9.5 -62.499 -9.5s-47.333 3.33301 -72 10zM265.992 -9c-33.333 0 -62.8359 4.66895 -88.5029 14.002
s-46.5 21.666 -62.5 36.999s-29.167 34.666 -39.5 57.999s-17.5 47.833 -21.5 73.5s-6 54.5 -6 86.5v286c0 34 2.16699 64.5 6.5 91.5s11.5 52 21.5 75s23.167 42 39.5 57s37 26.667 62 35s54.5 12.5 88.5 12.5c72.667 0 124.834 -19.667 156.501 -59
s47.5 -97.333 47.5 -174v-64h-107v57c0 12.667 -0.166992 22.5 -0.5 29.5s-0.666016 15.667 -0.999023 26s-1.16602 18.5 -2.49902 24.5s-3 12.833 -5 20.5s-4.66699 13.667 -8 18s-7.5 9 -12.5 14s-10.5 8.83301 -16.5 11.5s-13.333 4.66699 -22 6s-18 2 -28 2
c-15.333 0 -29 -1.66699 -41 -5s-21.667 -8.66602 -29 -15.999s-13.5 -15.333 -18.5 -24s-8.5 -20 -10.5 -34s-3.5 -27.333 -4.5 -40c-1 -13.333 -1.5 -29.333 -1.5 -48v-320c0 -60.667 7.66699 -102.834 23 -126.501s42.666 -35.5 81.999 -35.5c14.667 0 27.5 1.5 38.5 4.5
s20 8.33301 27 16s12.5 15.5 16.5 23.5s7 19 9 33s3.33301 26.833 4 38.5s1 26.834 1 45.501v60h107v-60c0 -30.667 -2 -58.334 -6 -83.001s-10.667 -47.667 -20 -69s-21.666 -39 -36.999 -53s-34.833 -25 -58.5 -33s-51.167 -12 -82.5 -12z" />
    <glyph glyph-name="Egrave" unicode="&#xc8;" horiz-adv-x="407" 
d="M194 877l-110 198h107l57 -198h-54zM63 0v810h314v-84h-201v-268h163v-80h-163v-297h203v-81h-316z" />
    <glyph glyph-name="Eacute" unicode="&#xc9;" horiz-adv-x="407" 
d="M195 877l59 198h107l-112 -198h-54zM63 0v810h314v-84h-201v-268h163v-80h-163v-297h203v-81h-316z" />
    <glyph glyph-name="Ecircumflex" unicode="&#xca;" horiz-adv-x="407" 
d="M81 877l86 175h109l86 -175h-80l-61 121l-60 -121h-80zM63 0v810h314v-84h-201v-268h163v-80h-163v-297h203v-81h-316z" />
    <glyph glyph-name="Edieresis" unicode="&#xcb;" horiz-adv-x="407" 
d="M253 877v111h108v-111h-108zM81 877v111h108v-111h-108zM63 0v810h314v-84h-201v-268h163v-80h-163v-297h203v-81h-316z" />
    <glyph glyph-name="Igrave" unicode="&#xcc;" horiz-adv-x="247" 
d="M97 877l-110 198h107l57 -198h-54zM69 0v810h111v-810h-111z" />
    <glyph glyph-name="Iacute" unicode="&#xcd;" horiz-adv-x="247" 
d="M98 877l59 198h107l-112 -198h-54zM69 0v810h111v-810h-111z" />
    <glyph glyph-name="Icircumflex" unicode="&#xce;" horiz-adv-x="247" 
d="M-16 877l86 175h109l86 -175h-80l-61 121l-60 -121h-80zM69 0v810h111v-810h-111z" />
    <glyph glyph-name="Idieresis" unicode="&#xcf;" horiz-adv-x="247" 
d="M156 877v111h108v-111h-108zM-16 877v111h108v-111h-108zM69 0v810h111v-810h-111z" />
    <glyph glyph-name="Eth" unicode="&#xd0;" horiz-adv-x="518" 
d="M63 0l0.00195312 388h-49v65h49v357h176c87.333 0 149.166 -20 185.499 -60s54.5 -102.667 54.5 -188v-297c0 -88.667 -17.833 -155 -53.5 -199s-94.834 -66 -177.501 -66h-185zM176.002 81l63.999 -0.000976562c17.333 0 32.5 1.66699 45.5 5s24 7.33301 33 12
s16.5 12.334 22.5 23.001s10.5 20.334 13.5 29.001s5.33301 21.667 7 39s2.66699 32 3 44s0.5 29.667 0.5 53v263c0 19.333 -0.333008 35.833 -1 49.5s-2 27.167 -4 40.5s-5 24.166 -9 32.499s-9 16.333 -15 24s-13.667 13.5 -23 17.5s-20.166 7.16699 -32.499 9.5
s-26.833 3.5 -43.5 3.5h-61v-273h61v-65h-61v-307z" />
    <glyph glyph-name="Ntilde" unicode="&#xd1;" horiz-adv-x="527" 
d="M330 877c-16.667 0 -40.167 8.16797 -70.5 24.501s-50.166 24.5 -59.499 24.5c-8.66699 0.666992 -15 -2.33301 -19 -9s-6 -17.334 -6 -32.001h-61c0 73.333 28.667 109.333 86 108c17.333 0 41.666 -8 72.999 -24s50.333 -24 57 -24c8.66699 0 14.667 3 18 9s5 17 5 33
h60c0 -34 -6.16699 -60.833 -18.5 -80.5s-33.833 -29.5 -64.5 -29.5zM63 0.000976562v810h77l230 -538v538h94v-810h-72l-233 553v-553h-96z" />
    <glyph glyph-name="Ograve" unicode="&#xd2;" horiz-adv-x="539" 
d="M242 877l-110 198h107l57 -198h-54zM270 -9c-40.667 0 -75.332 6 -103.999 18s-51.5 29.833 -68.5 53.5s-29.5 51 -37.5 82s-12 67.5 -12 109.5v307c0 84 17.167 147.667 51.5 191s91.166 65 170.499 65c78.667 0 135.167 -21.833 169.5 -65.5s51.5 -107.167 51.5 -190.5
v-308c0 -84 -17.333 -148.667 -52 -194s-91 -68 -169 -68zM269.502 80c22.333 0 40.666 3.33301 54.999 10s25.333 17 33 31s12.834 29.333 15.501 46s4 37.334 4 62.001v355c0 24.667 -1.33301 45 -4 61s-7.83398 30.833 -15.501 44.5s-18.667 23.667 -33 30
s-32.666 9.5 -54.999 9.5s-40.666 -3.16699 -54.999 -9.5s-25.333 -16.333 -33 -30s-12.834 -28.5 -15.501 -44.5s-4 -36.333 -4 -61v-355c0 -24.667 1.33301 -45.334 4 -62.001s7.83398 -32 15.501 -46s18.667 -24.333 33 -31s32.666 -10 54.999 -10z" />
    <glyph glyph-name="Oacute" unicode="&#xd3;" horiz-adv-x="539" 
d="M243 877l59 198h107l-112 -198h-54zM270 -9c-40.667 0 -75.332 6 -103.999 18s-51.5 29.833 -68.5 53.5s-29.5 51 -37.5 82s-12 67.5 -12 109.5v307c0 84 17.167 147.667 51.5 191s91.166 65 170.499 65c78.667 0 135.167 -21.833 169.5 -65.5s51.5 -107.167 51.5 -190.5
v-308c0 -84 -17.333 -148.667 -52 -194s-91 -68 -169 -68zM269.502 80c22.333 0 40.666 3.33301 54.999 10s25.333 17 33 31s12.834 29.333 15.501 46s4 37.334 4 62.001v355c0 24.667 -1.33301 45 -4 61s-7.83398 30.833 -15.501 44.5s-18.667 23.667 -33 30
s-32.666 9.5 -54.999 9.5s-40.666 -3.16699 -54.999 -9.5s-25.333 -16.333 -33 -30s-12.834 -28.5 -15.501 -44.5s-4 -36.333 -4 -61v-355c0 -24.667 1.33301 -45.334 4 -62.001s7.83398 -32 15.501 -46s18.667 -24.333 33 -31s32.666 -10 54.999 -10z" />
    <glyph glyph-name="Ocircumflex" unicode="&#xd4;" horiz-adv-x="539" 
d="M129 877l86 175h109l86 -175h-80l-61 121l-60 -121h-80zM270 -9c-40.667 0 -75.332 6 -103.999 18s-51.5 29.833 -68.5 53.5s-29.5 51 -37.5 82s-12 67.5 -12 109.5v307c0 84 17.167 147.667 51.5 191s91.166 65 170.499 65c78.667 0 135.167 -21.833 169.5 -65.5
s51.5 -107.167 51.5 -190.5v-308c0 -84 -17.333 -148.667 -52 -194s-91 -68 -169 -68zM269.502 80c22.333 0 40.666 3.33301 54.999 10s25.333 17 33 31s12.834 29.333 15.501 46s4 37.334 4 62.001v355c0 24.667 -1.33301 45 -4 61s-7.83398 30.833 -15.501 44.5
s-18.667 23.667 -33 30s-32.666 9.5 -54.999 9.5s-40.666 -3.16699 -54.999 -9.5s-25.333 -16.333 -33 -30s-12.834 -28.5 -15.501 -44.5s-4 -36.333 -4 -61v-355c0 -24.667 1.33301 -45.334 4 -62.001s7.83398 -32 15.501 -46s18.667 -24.333 33 -31s32.666 -10 54.999 -10
z" />
    <glyph glyph-name="Otilde" unicode="&#xd5;" horiz-adv-x="539" 
d="M336 877c-16.667 0 -40.167 8.16797 -70.5 24.501s-50.166 24.5 -59.499 24.5c-8.66699 0.666992 -15 -2.33301 -19 -9s-6 -17.334 -6 -32.001h-61c0 73.333 28.667 109.333 86 108c17.333 0 41.666 -8 72.999 -24s50.333 -24 57 -24c8.66699 0 14.667 3 18 9s5 17 5 33
h60c0 -34 -6.16699 -60.833 -18.5 -80.5s-33.833 -29.5 -64.5 -29.5zM270 -8.99902c-40.667 0 -75.332 6 -103.999 18s-51.5 29.833 -68.5 53.5s-29.5 51 -37.5 82s-12 67.5 -12 109.5v307c0 84 17.167 147.667 51.5 191s91.166 65 170.499 65
c78.667 0 135.167 -21.833 169.5 -65.5s51.5 -107.167 51.5 -190.5v-308c0 -84 -17.333 -148.667 -52 -194s-91 -68 -169 -68zM269.502 80.001c22.333 0 40.666 3.33301 54.999 10s25.333 17 33 31s12.834 29.333 15.501 46s4 37.334 4 62.001v355
c0 24.667 -1.33301 45 -4 61s-7.83398 30.833 -15.501 44.5s-18.667 23.667 -33 30s-32.666 9.5 -54.999 9.5s-40.666 -3.16699 -54.999 -9.5s-25.333 -16.333 -33 -30s-12.834 -28.5 -15.501 -44.5s-4 -36.333 -4 -61v-355c0 -24.667 1.33301 -45.334 4 -62.001
s7.83398 -32 15.501 -46s18.667 -24.333 33 -31s32.666 -10 54.999 -10z" />
    <glyph glyph-name="Odieresis" unicode="&#xd6;" horiz-adv-x="539" 
d="M301 877v111h108v-111h-108zM129 877v111h108v-111h-108zM270 -9c-40.667 0 -75.332 6 -103.999 18s-51.5 29.833 -68.5 53.5s-29.5 51 -37.5 82s-12 67.5 -12 109.5v307c0 84 17.167 147.667 51.5 191s91.166 65 170.499 65c78.667 0 135.167 -21.833 169.5 -65.5
s51.5 -107.167 51.5 -190.5v-308c0 -84 -17.333 -148.667 -52 -194s-91 -68 -169 -68zM269.502 80c22.333 0 40.666 3.33301 54.999 10s25.333 17 33 31s12.834 29.333 15.501 46s4 37.334 4 62.001v355c0 24.667 -1.33301 45 -4 61s-7.83398 30.833 -15.501 44.5
s-18.667 23.667 -33 30s-32.666 9.5 -54.999 9.5s-40.666 -3.16699 -54.999 -9.5s-25.333 -16.333 -33 -30s-12.834 -28.5 -15.501 -44.5s-4 -36.333 -4 -61v-355c0 -24.667 1.33301 -45.334 4 -62.001s7.83398 -32 15.501 -46s18.667 -24.333 33 -31s32.666 -10 54.999 -10
z" />
    <glyph glyph-name="multiply" unicode="&#xd7;" horiz-adv-x="382" 
d="M103 254l-54 54l89 89l-89 89l54 54l88 -89l89 89l54 -54l-89 -89l89 -89l-54 -54l-89 89z" />
    <glyph glyph-name="Oslash" unicode="&#xd8;" horiz-adv-x="540" 
d="M269.5 80c22.333 0 40.667 3.33203 55 9.99902s25.333 17 33 31s12.834 29.333 15.501 46s4 37.334 4 62.001v355c0 24.667 -1.33301 45 -4 61c-2 12.667 -5.66699 24.667 -11 36l-157 -586c3.33301 -2 6.66602 -3.66699 9.99902 -5c14 -6.66699 32.167 -10 54.5 -10z
M160.001 -74.001l-39 12.001l22 83c-18.667 11.333 -34 25 -46 41c-16.667 23.333 -29 50.666 -37 81.999s-12 68 -12 110v307c0 84 17.167 147.667 51.5 191s91.166 65 170.499 65c31.333 0 59.333 -3.33301 84 -10l19 73l40 -10l-21 -78
c18.667 -10 34.334 -23.333 47.001 -40c34.667 -43.333 52 -107 52 -191v-308c0 -84 -17.333 -148.667 -52 -194s-91 -68 -169 -68c-34 0 -63.667 4.33301 -89 13zM330.001 718c-1.33301 0.666992 -3.33301 1.33203 -6 1.99902c-14 6.66699 -32.167 9.83398 -54.5 9.50098
s-40.666 -3.66602 -54.999 -9.99902s-25.333 -16.333 -33 -30s-12.834 -28.5 -15.501 -44.5s-4 -36.333 -4 -61v-355c0 -24.667 1.33301 -45.334 4 -62.001c1.33301 -10.667 4 -20.667 8 -30z" />
    <glyph glyph-name="Ugrave" unicode="&#xd9;" horiz-adv-x="543" 
d="M245 877l-110 198h107l57 -198h-54zM272 -9c-34.667 0 -64.668 4.5 -90.001 13.5s-46 21.167 -62 36.5s-28.833 35.166 -38.5 59.499s-16.334 50.166 -20.001 77.499s-5.5 59 -5.5 95v537h108v-542c0 -23.333 0.5 -43.5 1.5 -60.5s3.83301 -34 8.5 -51
s10.834 -30.667 18.501 -41s18.167 -18.833 31.5 -25.5s29.333 -10 48 -10s34.5 3.33301 47.5 10s23.333 15.167 31 25.5s13.834 24 18.501 41s7.66699 34 9 51s2 37.167 2 60.5v542h107v-537c0 -36 -1.66699 -67.667 -5 -95s-9.83301 -53.166 -19.5 -77.499
s-22.5 -44.166 -38.5 -59.499s-36.667 -27.5 -62 -36.5s-55.333 -13.5 -90 -13.5z" />
    <glyph glyph-name="Uacute" unicode="&#xda;" horiz-adv-x="543" 
d="M245 877l59 198h107l-112 -198h-54zM272 -9c-34.667 0 -64.668 4.5 -90.001 13.5s-46 21.167 -62 36.5s-28.833 35.166 -38.5 59.499s-16.334 50.166 -20.001 77.499s-5.5 59 -5.5 95v537h108v-542c0 -23.333 0.5 -43.5 1.5 -60.5s3.83301 -34 8.5 -51
s10.834 -30.667 18.501 -41s18.167 -18.833 31.5 -25.5s29.333 -10 48 -10s34.5 3.33301 47.5 10s23.333 15.167 31 25.5s13.834 24 18.501 41s7.66699 34 9 51s2 37.167 2 60.5v542h107v-537c0 -36 -1.66699 -67.667 -5 -95s-9.83301 -53.166 -19.5 -77.499
s-22.5 -44.166 -38.5 -59.499s-36.667 -27.5 -62 -36.5s-55.333 -13.5 -90 -13.5z" />
    <glyph glyph-name="Ucircumflex" unicode="&#xdb;" horiz-adv-x="543" 
d="M131 877l86 175h109l86 -175h-80l-61 121l-60 -121h-80zM272 -9c-34.667 0 -64.668 4.5 -90.001 13.5s-46 21.167 -62 36.5s-28.833 35.166 -38.5 59.499s-16.334 50.166 -20.001 77.499s-5.5 59 -5.5 95v537h108v-542c0 -23.333 0.5 -43.5 1.5 -60.5
s3.83301 -34 8.5 -51s10.834 -30.667 18.501 -41s18.167 -18.833 31.5 -25.5s29.333 -10 48 -10s34.5 3.33301 47.5 10s23.333 15.167 31 25.5s13.834 24 18.501 41s7.66699 34 9 51s2 37.167 2 60.5v542h107v-537c0 -36 -1.66699 -67.667 -5 -95
s-9.83301 -53.166 -19.5 -77.499s-22.5 -44.166 -38.5 -59.499s-36.667 -27.5 -62 -36.5s-55.333 -13.5 -90 -13.5z" />
    <glyph glyph-name="Udieresis" unicode="&#xdc;" horiz-adv-x="543" 
d="M304 877v111h108v-111h-108zM132 877v111h108v-111h-108zM272 -9c-34.667 0 -64.668 4.5 -90.001 13.5s-46 21.167 -62 36.5s-28.833 35.166 -38.5 59.499s-16.334 50.166 -20.001 77.499s-5.5 59 -5.5 95v537h108v-542c0 -23.333 0.5 -43.5 1.5 -60.5
s3.83301 -34 8.5 -51s10.834 -30.667 18.501 -41s18.167 -18.833 31.5 -25.5s29.333 -10 48 -10s34.5 3.33301 47.5 10s23.333 15.167 31 25.5s13.834 24 18.501 41s7.66699 34 9 51s2 37.167 2 60.5v542h107v-537c0 -36 -1.66699 -67.667 -5 -95
s-9.83301 -53.166 -19.5 -77.499s-22.5 -44.166 -38.5 -59.499s-36.667 -27.5 -62 -36.5s-55.333 -13.5 -90 -13.5z" />
    <glyph glyph-name="Yacute" unicode="&#xdd;" horiz-adv-x="481" 
d="M214 877l59 198h107l-112 -198h-54zM187 0v286l-175 524h105l124 -391l122 391h106l-174 -524v-286h-108z" />
    <glyph glyph-name="Thorn" unicode="&#xde;" horiz-adv-x="503" 
d="M176 324h70.001c46 0 79.167 10.5 99.5 31.5s30.5 58.833 30.5 113.5c0 52 -8.83301 88.5 -26.5 109.5s-47.834 31.5 -90.501 31.5h-83v-286zM63.001 0v810.001h113v-106h117c65.333 0 113.833 -20.667 145.5 -62s47.5 -99 47.5 -173
c0 -156.667 -70.667 -235.334 -212 -236.001h-98v-233h-113z" />
    <glyph glyph-name="germandbls" unicode="&#xdf;" horiz-adv-x="510" 
d="M220 -9v89.001c26.667 0 48.667 3.16699 66 9.5s30.5 16.5 39.5 30.5s15.333 29.667 19 47s5.5 39 5.5 65c0 44 -10.167 78.833 -30.5 104.5s-50.833 38.5 -91.5 38.5v89c17.333 0 32.333 4.16699 45 12.5s22.334 19.666 29.001 33.999s11.5 29.833 14.5 46.5
s4.5 34.667 4.5 54c0 18.667 -1.16699 34.834 -3.5 48.501s-6.33301 26.167 -12 37.5s-13.834 19.833 -24.501 25.5s-24 8.5 -40 8.5c-29.333 0 -49.666 -9.66699 -60.999 -29s-17 -49 -17 -89v-613h-107v612c0 64.667 14.5 115.334 43.5 152.001s71.833 55 128.5 55
c65.333 0 114.666 -17.833 147.999 -53.5s50 -87.167 50 -154.5c0 -46.667 -8.16699 -84.5 -24.5 -113.5s-41.166 -52.167 -74.499 -69.5c41.333 -10.667 73.166 -33.334 95.499 -68.001s33.5 -77.334 33.5 -128.001c0 -79.333 -18.833 -139.333 -56.5 -180
s-97.5 -61 -179.5 -61z" />
    <glyph glyph-name="agrave" unicode="&#xe0;" horiz-adv-x="425" 
d="M187 646l-110 198h107l57 -198h-54zM200 84c14 0 27.499 5.49902 40.499 16.499s22.833 21.5 29.5 31.5v164c-37.333 -21.333 -62 -37 -74 -47c-31.333 -25.333 -47 -55.333 -47 -90c0 -23.333 4.33301 -41.666 13 -54.999s21.334 -20 38.001 -20zM157.999 -8.00098
c-32.667 0 -60.167 13.4971 -82.5 40.4971s-33.5 58.167 -33.5 93.5c0 27.333 4.33301 52.166 13 74.499s18.167 40.333 28.5 54s27.833 27.834 52.5 42.501s43.834 25.167 57.501 31.5s37.834 16.5 72.501 30.5c2 0.666992 3.33301 1.33398 4 2.00098v41
c0 37.333 -3.83301 64 -11.5 80s-23.167 24 -46.5 24c-40.667 0 -61 -27.333 -61 -82v-29l-106 4c0 6 0.333008 13 1 21c3.33301 57.333 19.5 99.333 48.5 126s70.5 40 124.5 40c55.333 0 95.5 -15.167 120.5 -45.5s37.5 -76.166 37.5 -137.499v-264
c0 -43.333 3.33301 -89.666 10 -138.999h-98c-6.66699 32 -11.334 60.333 -14.001 85c-8 -26 -21.833 -48 -41.5 -66s-44.834 -27 -75.501 -27z" />
    <glyph glyph-name="aacute" unicode="&#xe1;" horiz-adv-x="425" 
d="M187 646l59 198h107l-112 -198h-54zM200 84c14 0 27.499 5.49902 40.499 16.499s22.833 21.5 29.5 31.5v164c-37.333 -21.333 -62 -37 -74 -47c-31.333 -25.333 -47 -55.333 -47 -90c0 -23.333 4.33301 -41.666 13 -54.999s21.334 -20 38.001 -20zM157.999 -8.00098
c-32.667 0 -60.167 13.4971 -82.5 40.4971s-33.5 58.167 -33.5 93.5c0 27.333 4.33301 52.166 13 74.499s18.167 40.333 28.5 54s27.833 27.834 52.5 42.501s43.834 25.167 57.501 31.5s37.834 16.5 72.501 30.5c2 0.666992 3.33301 1.33398 4 2.00098v41
c0 37.333 -3.83301 64 -11.5 80s-23.167 24 -46.5 24c-40.667 0 -61 -27.333 -61 -82v-29l-106 4c0 6 0.333008 13 1 21c3.33301 57.333 19.5 99.333 48.5 126s70.5 40 124.5 40c55.333 0 95.5 -15.167 120.5 -45.5s37.5 -76.166 37.5 -137.499v-264
c0 -43.333 3.33301 -89.666 10 -138.999h-98c-6.66699 32 -11.334 60.333 -14.001 85c-8 -26 -21.833 -48 -41.5 -66s-44.834 -27 -75.501 -27z" />
    <glyph glyph-name="acircumflex" unicode="&#xe2;" horiz-adv-x="425" 
d="M73 645l86 175h109l86 -175h-80l-61 121l-60 -121h-80zM200 84c14 0 27.499 5.49902 40.499 16.499s22.833 21.5 29.5 31.5v164c-37.333 -21.333 -62 -37 -74 -47c-31.333 -25.333 -47 -55.333 -47 -90c0 -23.333 4.33301 -41.666 13 -54.999s21.334 -20 38.001 -20z
M157.999 -8.00098c-32.667 0 -60.167 13.4971 -82.5 40.4971s-33.5 58.167 -33.5 93.5c0 27.333 4.33301 52.166 13 74.499s18.167 40.333 28.5 54s27.833 27.834 52.5 42.501s43.834 25.167 57.501 31.5s37.834 16.5 72.501 30.5c2 0.666992 3.33301 1.33398 4 2.00098v41
c0 37.333 -3.83301 64 -11.5 80s-23.167 24 -46.5 24c-40.667 0 -61 -27.333 -61 -82v-29l-106 4c0 6 0.333008 13 1 21c3.33301 57.333 19.5 99.333 48.5 126s70.5 40 124.5 40c55.333 0 95.5 -15.167 120.5 -45.5s37.5 -76.166 37.5 -137.499v-264
c0 -43.333 3.33301 -89.666 10 -138.999h-98c-6.66699 32 -11.334 60.333 -14.001 85c-8 -26 -21.833 -48 -41.5 -66s-44.834 -27 -75.501 -27z" />
    <glyph glyph-name="atilde" unicode="&#xe3;" horiz-adv-x="425" 
d="M280 646c-16.667 0 -40.167 8.16797 -70.5 24.501s-50.166 24.5 -59.499 24.5c-8.66699 0.666992 -15 -2.33301 -19 -9s-6 -17.334 -6 -32.001h-61c0 73.333 28.667 109.333 86 108c17.333 0 41.666 -8 72.999 -24s50.333 -24 57 -24c8.66699 0 14.667 3 18 9s5 17 5 33
h60c0 -34 -6.16699 -60.833 -18.5 -80.5s-33.833 -29.5 -64.5 -29.5zM200 84.001c14 0 27.499 5.49902 40.499 16.499s22.833 21.5 29.5 31.5v164c-37.333 -21.333 -62 -37 -74 -47c-31.333 -25.333 -47 -55.333 -47 -90c0 -23.333 4.33301 -41.666 13 -54.999
s21.334 -20 38.001 -20zM157.999 -8c-32.667 0 -60.167 13.4971 -82.5 40.4971s-33.5 58.167 -33.5 93.5c0 27.333 4.33301 52.166 13 74.499s18.167 40.333 28.5 54s27.833 27.834 52.5 42.501s43.834 25.167 57.501 31.5s37.834 16.5 72.501 30.5
c2 0.666992 3.33301 1.33398 4 2.00098v41c0 37.333 -3.83301 64 -11.5 80s-23.167 24 -46.5 24c-40.667 0 -61 -27.333 -61 -82v-29l-106 4c0 6 0.333008 13 1 21c3.33301 57.333 19.5 99.333 48.5 126s70.5 40 124.5 40c55.333 0 95.5 -15.167 120.5 -45.5
s37.5 -76.166 37.5 -137.499v-264c0 -43.333 3.33301 -89.666 10 -138.999h-98c-6.66699 32 -11.334 60.333 -14.001 85c-8 -26 -21.833 -48 -41.5 -66s-44.834 -27 -75.501 -27z" />
    <glyph glyph-name="adieresis" unicode="&#xe4;" horiz-adv-x="425" 
d="M246 645v111h108v-111h-108zM74 645v111h108v-111h-108zM200 84c14 0 27.499 5.49902 40.499 16.499s22.833 21.5 29.5 31.5v164c-37.333 -21.333 -62 -37 -74 -47c-31.333 -25.333 -47 -55.333 -47 -90c0 -23.333 4.33301 -41.666 13 -54.999s21.334 -20 38.001 -20z
M157.999 -8.00098c-32.667 0 -60.167 13.4971 -82.5 40.4971s-33.5 58.167 -33.5 93.5c0 27.333 4.33301 52.166 13 74.499s18.167 40.333 28.5 54s27.833 27.834 52.5 42.501s43.834 25.167 57.501 31.5s37.834 16.5 72.501 30.5c2 0.666992 3.33301 1.33398 4 2.00098v41
c0 37.333 -3.83301 64 -11.5 80s-23.167 24 -46.5 24c-40.667 0 -61 -27.333 -61 -82v-29l-106 4c0 6 0.333008 13 1 21c3.33301 57.333 19.5 99.333 48.5 126s70.5 40 124.5 40c55.333 0 95.5 -15.167 120.5 -45.5s37.5 -76.166 37.5 -137.499v-264
c0 -43.333 3.33301 -89.666 10 -138.999h-98c-6.66699 32 -11.334 60.333 -14.001 85c-8 -26 -21.833 -48 -41.5 -66s-44.834 -27 -75.501 -27z" />
    <glyph glyph-name="aring" unicode="&#xe5;" horiz-adv-x="425" 
d="M213.5 699c17.667 0 31.667 5.16699 42 15.5s15.5 24.5 15.5 42.5s-5.16699 32.167 -15.5 42.5s-24.333 15.5 -42 15.5s-31.667 -5.16699 -42 -15.5s-15.5 -24.5 -15.5 -42.5s5.16699 -32.167 15.5 -42.5s24.333 -15.5 42 -15.5zM213.5 645
c-33.667 0 -60.667 10.167 -81 30.5s-30.5 47.5 -30.5 81.5s10.167 61 30.5 81s47.333 30 81 30s60.667 -10 81 -30s30.5 -47 30.5 -81s-10.167 -61.167 -30.5 -81.5s-47.333 -30.5 -81 -30.5zM200 84c14 0 27.499 5.49902 40.499 16.499s22.833 21.5 29.5 31.5v164
c-37.333 -21.333 -62 -37 -74 -47c-31.333 -25.333 -47 -55.333 -47 -90c0 -23.333 4.33301 -41.666 13 -54.999s21.334 -20 38.001 -20zM157.999 -8.00098c-32.667 0 -60.167 13.4971 -82.5 40.4971s-33.5 58.167 -33.5 93.5c0 27.333 4.33301 52.166 13 74.499
s18.167 40.333 28.5 54s27.833 27.834 52.5 42.501s43.834 25.167 57.501 31.5s37.834 16.5 72.501 30.5c2 0.666992 3.33301 1.33398 4 2.00098v41c0 37.333 -3.83301 64 -11.5 80s-23.167 24 -46.5 24c-40.667 0 -61 -27.333 -61 -82v-29l-106 4c0 6 0.333008 13 1 21
c3.33301 57.333 19.5 99.333 48.5 126s70.5 40 124.5 40c55.333 0 95.5 -15.167 120.5 -45.5s37.5 -76.166 37.5 -137.499v-264c0 -43.333 3.33301 -89.666 10 -138.999h-98c-6.66699 32 -11.334 60.333 -14.001 85c-8 -26 -21.833 -48 -41.5 -66s-44.834 -27 -75.501 -27z
" />
    <glyph glyph-name="ae" unicode="&#xe6;" horiz-adv-x="649" 
d="M380 340l55.002 13.001c25.333 5.33301 43.166 12.333 53.499 21s15.5 24.334 15.5 47.001c0 23.333 -4.83301 42.166 -14.5 56.499s-25.167 21.5 -46.5 21.5c-22.667 0 -38.834 -8.83301 -48.501 -26.5s-14.5 -42.834 -14.5 -75.501v-57zM200.002 75.001
c20 0 37.167 11.834 51.5 35.501s21.5 57.167 21.5 100.5v54c-14 -4 -29.333 -9 -46 -15c-26 -10.667 -45.667 -23.834 -59 -39.501s-20 -36.167 -20 -61.5c0 -22.667 5 -40.667 15 -54s22.333 -20 37 -20zM157.002 -7.99805c-33.333 2 -60.835 16.1709 -82.502 42.5039
s-32.5 56.833 -32.5 91.5c0 50 13.167 89 39.5 117s64.166 49 113.499 63l78 21v75c0 33.333 -4.33301 58.666 -13 75.999s-24.667 26 -48 26c-42 0 -63 -31.667 -63 -95h-106c0.666992 54.667 15.834 97.834 45.501 129.501s70.834 47.5 123.501 47.5
c28.667 0 53.167 -6.33301 73.5 -19s34.166 -30.334 41.499 -53.001c10.667 22 26 39.5 46 52.5s43.333 19.5 70 19.5c52 0 91.667 -15.5 119 -46.5s41 -73.833 41 -128.5c0 -13.333 -2 -25.333 -6 -36s-10 -19.834 -18 -27.501s-16.167 -14.167 -24.5 -19.5
s-19.166 -10 -32.499 -14s-24.666 -7.16699 -33.999 -9.5s-21.666 -4.83301 -36.999 -7.5l-71 -15v-27c0 -56 2 -94 6 -114c8.66699 -42 27.667 -63.333 57 -64c21.333 0 36.166 8.66699 44.499 26s12.5 41.666 12.5 72.999v25h107v-24c0 -59.333 -13.5 -105 -40.5 -137
s-68.5 -48 -124.5 -48c-35.333 0 -64.5 10.667 -87.5 32s-36.833 49.666 -41.5 84.999c-34 -83.333 -86 -122.333 -156 -117z" />
    <glyph glyph-name="ccedilla" unicode="&#xe7;" horiz-adv-x="410" 
d="M156 -225l-0.0078125 54c17.333 -4.66699 34.333 -7.16699 51 -7.5s30.834 2.5 42.501 8.5s17.834 15 18.501 27c0 7.33301 -1.66699 14 -5 20s-7.16602 10.667 -11.499 14s-10.833 6.83301 -19.5 10.5s-16.167 6.33398 -22.5 8.00098s-15.166 4.16699 -26.499 7.5v83h54
v-56c30 -4.66699 55.833 -14.334 77.5 -29.001s32.834 -33.667 33.501 -57c0.666992 -20 -4.16602 -37.333 -14.499 -52s-24.666 -25.167 -42.999 -31.5s-39.166 -9.5 -62.499 -9.5s-47.333 3.33301 -72 10zM211.992 -8c-28 0 -51.999 3.6709 -71.999 11.0039
s-36.167 17.166 -48.5 29.499s-22.166 28.5 -29.499 48.5s-12.333 41 -15 63s-4 48 -4 78v133c0 38.667 2.33301 71.334 7 98.001s13 50.5 25 71.5s29.333 36.5 52 46.5s51 15 85 15c30.667 0 56.5 -3.83301 77.5 -11.5s37.167 -19.334 48.5 -35.001
s19.5 -34.334 24.5 -56.001s7.5 -48.167 7.5 -79.5v-34h-97v35c0 38 -4.16699 64.5 -12.5 79.5s-24.166 22.5 -47.499 22.5c-26 0 -43 -9 -51 -27s-12 -52.333 -12 -103v-182c0 -48.667 4.5 -81.5 13.5 -98.5s25.833 -25.5 50.5 -25.5c10.667 0 19.5 1.66699 26.5 5
s12.667 7.66602 17 12.999s7.66602 12.666 9.99902 21.999s3.83301 18.333 4.5 27s1 19.667 1 33v47h97v-40c0 -30.667 -2.5 -57 -7.5 -79s-13.333 -41.333 -25 -58s-27.834 -29 -48.501 -37s-46.334 -12 -77.001 -12z" />
    <glyph glyph-name="egrave" unicode="&#xe8;" horiz-adv-x="420" 
d="M184 646l-110 198h107l57 -198h-54zM150 345l123 -0.00195312v52c0 15.333 -0.333008 28.333 -1 39s-2.33398 20.834 -5.00098 30.501s-6.16699 17.334 -10.5 23.001s-10 10 -17 13s-15.833 4.5 -26.5 4.5c-25.333 0 -42.166 -9 -50.499 -27s-12.5 -52.667 -12.5 -104
v-31zM214 -8.00195c-34 0 -62.1719 4.83398 -84.5049 14.501s-39.666 24.667 -51.999 45s-21.166 44 -26.499 71s-8 60.5 -8 100.5v132c0 40 2.83301 73.833 8.5 101.5s14.834 51.5 27.501 71.5s30.167 34.667 52.5 44s49.833 14 82.5 14c20.667 0 38.834 -2 54.501 -6
s29.334 -9.33301 41.001 -16s21.667 -15.834 30 -27.501s15 -24 20 -37s8.83301 -28.667 11.5 -47s4.5 -36.5 5.5 -54.5s1.5 -39.333 1.5 -64v-47h-228v-77v-6c0 -16 0.166992 -28 0.5 -36s1 -18.333 2 -31s2.83301 -22 5.5 -28s6.33398 -12.5 11.001 -19.5
s10.667 -11.833 18 -14.5s16 -4 26 -4c23.333 0 39.166 7.83301 47.499 23.5s12.5 39.5 12.5 71.5v35h104v-22c0 -124.667 -54.333 -187 -163 -187z" />
    <glyph glyph-name="eacute" unicode="&#xe9;" horiz-adv-x="420" 
d="M184 646l59 198h107l-112 -198h-54zM150 345l123 -0.00195312v52c0 15.333 -0.333008 28.333 -1 39s-2.33398 20.834 -5.00098 30.501s-6.16699 17.334 -10.5 23.001s-10 10 -17 13s-15.833 4.5 -26.5 4.5c-25.333 0 -42.166 -9 -50.499 -27s-12.5 -52.667 -12.5 -104
v-31zM214 -8.00195c-34 0 -62.1719 4.83398 -84.5049 14.501s-39.666 24.667 -51.999 45s-21.166 44 -26.499 71s-8 60.5 -8 100.5v132c0 40 2.83301 73.833 8.5 101.5s14.834 51.5 27.501 71.5s30.167 34.667 52.5 44s49.833 14 82.5 14c20.667 0 38.834 -2 54.501 -6
s29.334 -9.33301 41.001 -16s21.667 -15.834 30 -27.501s15 -24 20 -37s8.83301 -28.667 11.5 -47s4.5 -36.5 5.5 -54.5s1.5 -39.333 1.5 -64v-47h-228v-77v-6c0 -16 0.166992 -28 0.5 -36s1 -18.333 2 -31s2.83301 -22 5.5 -28s6.33398 -12.5 11.001 -19.5
s10.667 -11.833 18 -14.5s16 -4 26 -4c23.333 0 39.166 7.83301 47.499 23.5s12.5 39.5 12.5 71.5v35h104v-22c0 -124.667 -54.333 -187 -163 -187z" />
    <glyph glyph-name="ecircumflex" unicode="&#xea;" horiz-adv-x="420" 
d="M70 645l86 175h109l86 -175h-80l-61 121l-60 -121h-80zM150 345l123 -0.00195312v52c0 15.333 -0.333008 28.333 -1 39s-2.33398 20.834 -5.00098 30.501s-6.16699 17.334 -10.5 23.001s-10 10 -17 13s-15.833 4.5 -26.5 4.5c-25.333 0 -42.166 -9 -50.499 -27
s-12.5 -52.667 -12.5 -104v-31zM214 -8.00195c-34 0 -62.1719 4.83398 -84.5049 14.501s-39.666 24.667 -51.999 45s-21.166 44 -26.499 71s-8 60.5 -8 100.5v132c0 40 2.83301 73.833 8.5 101.5s14.834 51.5 27.501 71.5s30.167 34.667 52.5 44s49.833 14 82.5 14
c20.667 0 38.834 -2 54.501 -6s29.334 -9.33301 41.001 -16s21.667 -15.834 30 -27.501s15 -24 20 -37s8.83301 -28.667 11.5 -47s4.5 -36.5 5.5 -54.5s1.5 -39.333 1.5 -64v-47h-228v-77v-6c0 -16 0.166992 -28 0.5 -36s1 -18.333 2 -31s2.83301 -22 5.5 -28
s6.33398 -12.5 11.001 -19.5s10.667 -11.833 18 -14.5s16 -4 26 -4c23.333 0 39.166 7.83301 47.499 23.5s12.5 39.5 12.5 71.5v35h104v-22c0 -124.667 -54.333 -187 -163 -187z" />
    <glyph glyph-name="edieresis" unicode="&#xeb;" horiz-adv-x="420" 
d="M243 645v111h108v-111h-108zM71 645v111h108v-111h-108zM150 345l123 -0.00195312v52c0 15.333 -0.333008 28.333 -1 39s-2.33398 20.834 -5.00098 30.501s-6.16699 17.334 -10.5 23.001s-10 10 -17 13s-15.833 4.5 -26.5 4.5c-25.333 0 -42.166 -9 -50.499 -27
s-12.5 -52.667 -12.5 -104v-31zM214 -8.00195c-34 0 -62.1719 4.83398 -84.5049 14.501s-39.666 24.667 -51.999 45s-21.166 44 -26.499 71s-8 60.5 -8 100.5v132c0 40 2.83301 73.833 8.5 101.5s14.834 51.5 27.501 71.5s30.167 34.667 52.5 44s49.833 14 82.5 14
c20.667 0 38.834 -2 54.501 -6s29.334 -9.33301 41.001 -16s21.667 -15.834 30 -27.501s15 -24 20 -37s8.83301 -28.667 11.5 -47s4.5 -36.5 5.5 -54.5s1.5 -39.333 1.5 -64v-47h-228v-77v-6c0 -16 0.166992 -28 0.5 -36s1 -18.333 2 -31s2.83301 -22 5.5 -28
s6.33398 -12.5 11.001 -19.5s10.667 -11.833 18 -14.5s16 -4 26 -4c23.333 0 39.166 7.83301 47.499 23.5s12.5 39.5 12.5 71.5v35h104v-22c0 -124.667 -54.333 -187 -163 -187z" />
    <glyph glyph-name="igrave" unicode="&#xec;" horiz-adv-x="224" 
d="M87 646l-110 198h107l57 -198h-54zM61 0v578h107v-578h-107z" />
    <glyph glyph-name="iacute" unicode="&#xed;" horiz-adv-x="224" 
d="M88 646l59 198h107l-112 -198h-54zM61 0v578h107v-578h-107z" />
    <glyph glyph-name="icircumflex" unicode="&#xee;" horiz-adv-x="224" 
d="M-26 645l86 175h109l86 -175h-80l-61 121l-60 -121h-80zM61 0v578h107v-578h-107z" />
    <glyph glyph-name="idieresis" unicode="&#xef;" horiz-adv-x="224" 
d="M147 645v111h108v-111h-108zM-25 645v111h108v-111h-108zM61 0v578h107v-578h-107z" />
    <glyph glyph-name="eth" unicode="&#xf0;" horiz-adv-x="471" 
d="M159 284c0 -8 -0.167969 -18.167 -0.500977 -30.5s-0.5 -22.666 -0.5 -30.999v-29c0 -11 0.333008 -20.167 1 -27.5s1.66699 -15.5 3 -24.5s3.16602 -16.5 5.49902 -22.5s5.33301 -12 9 -18s8 -10.667 13 -14s10.833 -6 17.5 -8s14.334 -3 23.001 -3
c14 0 25.833 2.33301 35.5 7s17.334 10.667 23.001 18s10 17.5 13 30.5s5 26 6 39s1.5 29.167 1.5 48.5c0 142 -0.333008 214.333 -1 217l-3.5 3c-2.33301 2 -4 3.5 -5 4.5l-5 5c-2.33301 2.33301 -4.5 4 -6.5 5s-4.5 2.5 -7.5 4.5s-6 3.5 -9 4.5l-10.5 3.5
c-4 1.33301 -8 2.16602 -12 2.49902s-8.33301 0.5 -13 0.5c-28.667 0 -48.667 -14.5 -60 -43.5s-17 -76.167 -17 -141.5zM415.999 237c0 -78.667 -14.8311 -139.329 -44.498 -181.996s-77.834 -64 -144.501 -64c-28.667 0 -53.5 3.66699 -74.5 11s-38 17.166 -51 29.499
s-23.167 28.666 -30.5 48.999s-12.333 41.666 -15 63.999s-4 49.166 -4 80.499v67c0 26 0.833008 49.5 2.5 70.5s4.5 42 8.5 63s9.83301 39 17.5 54s17.167 28.5 28.5 40.5s25.5 21.167 42.5 27.5s36.167 9.5 57.5 9.5c38 0 70.333 -12 97 -36
c-6 62 -17.667 106.667 -35 134l-119 -37v54l90 26c-14.667 16.667 -34.334 29.167 -59.001 37.5s-60 12.833 -106 13.5l5 70c64 0 115 -7.66699 153 -23s68.333 -39 91 -71l116 34v-54l-89 -24c16 -33.333 30.5 -79.333 43.5 -138s19.5 -114 19.5 -166v-140z" />
    <glyph glyph-name="ntilde" unicode="&#xf1;" 
d="M288 646c-16.667 0 -40.167 8.16797 -70.5 24.501s-50.166 24.5 -59.499 24.5c-8.66699 0.666992 -15 -2.33301 -19 -9s-6 -17.334 -6 -32.001h-61c0 73.333 28.667 109.333 86 108c17.333 0 41.666 -8 72.999 -24s50.333 -24 57 -24c8.66699 0 14.667 3 18 9s5 17 5 33
h60c0 -34 -6.16699 -60.833 -18.5 -80.5s-33.833 -29.5 -64.5 -29.5zM54 0.000976562v578h107v-57c45.333 43.333 92.333 65 141 65c16 0 30 -3.5 42 -10.5s21.167 -16.333 27.5 -28s10.833 -24 13.5 -37s4 -27.167 4 -42.5v-468h-107v437c0 22 -3.33301 38.333 -10 49
s-18.667 16 -36 16c-21.333 0 -46.333 -12 -75 -36v-466h-107z" />
    <glyph glyph-name="ograve" unicode="&#xf2;" horiz-adv-x="423" 
d="M185 646l-110 198h107l57 -198h-54zM212 -8c-31.333 0 -58 4.83105 -80 14.498s-39.333 24.167 -52 43.5s-22 41.5 -28 66.5s-9 54.5 -9 88.5v168c0 34 3 63.5 9 88.5s15.333 47.167 28 66.5s30 33.833 52 43.5s48.667 14.5 80 14.5
c60.667 0 103.834 -18.167 129.501 -54.5s38.5 -89.166 38.5 -158.499v-168c0 -69.333 -12.833 -122.166 -38.5 -158.499s-68.834 -54.5 -129.501 -54.5zM212 70.998c10 0 18.665 1.50195 25.998 4.50195s13 7.83301 17 14.5s7.33301 13.167 10 19.5s4.5 15.5 5.5 27.5
s1.66699 21.667 2 29s0.5 18 0.5 32v181c0 12.667 -0.166992 22.167 -0.5 28.5s-0.666016 14.833 -0.999023 25.5s-1.33301 18.834 -3 24.501s-4 12.167 -7 19.5s-6.66699 12.833 -11 16.5s-9.66602 6.83398 -15.999 9.50098s-13.833 4 -22.5 4s-16.334 -1.33301 -23.001 -4
s-12 -5.83398 -16 -9.50098s-7.66699 -9.16699 -11 -16.5s-5.66602 -13.833 -6.99902 -19.5s-2.33301 -13.834 -3 -24.501s-1.16699 -19.167 -1.5 -25.5s-0.5 -15.833 -0.5 -28.5v-181c0 -12.667 0.166992 -22 0.5 -28s0.833008 -14.333 1.5 -25s1.66699 -18.834 3 -24.501
s3.66602 -12.167 6.99902 -19.5s7 -12.833 11 -16.5s9.33301 -6.83398 16 -9.50098s14.334 -4 23.001 -4z" />
    <glyph glyph-name="oacute" unicode="&#xf3;" horiz-adv-x="423" 
d="M185 646l59 198h107l-112 -198h-54zM212 -8c-31.333 0 -58 4.83105 -80 14.498s-39.333 24.167 -52 43.5s-22 41.5 -28 66.5s-9 54.5 -9 88.5v168c0 34 3 63.5 9 88.5s15.333 47.167 28 66.5s30 33.833 52 43.5s48.667 14.5 80 14.5
c60.667 0 103.834 -18.167 129.501 -54.5s38.5 -89.166 38.5 -158.499v-168c0 -69.333 -12.833 -122.166 -38.5 -158.499s-68.834 -54.5 -129.501 -54.5zM212 70.998c10 0 18.665 1.50195 25.998 4.50195s13 7.83301 17 14.5s7.33301 13.167 10 19.5s4.5 15.5 5.5 27.5
s1.66699 21.667 2 29s0.5 18 0.5 32v181c0 12.667 -0.166992 22.167 -0.5 28.5s-0.666016 14.833 -0.999023 25.5s-1.33301 18.834 -3 24.501s-4 12.167 -7 19.5s-6.66699 12.833 -11 16.5s-9.66602 6.83398 -15.999 9.50098s-13.833 4 -22.5 4s-16.334 -1.33301 -23.001 -4
s-12 -5.83398 -16 -9.50098s-7.66699 -9.16699 -11 -16.5s-5.66602 -13.833 -6.99902 -19.5s-2.33301 -13.834 -3 -24.501s-1.16699 -19.167 -1.5 -25.5s-0.5 -15.833 -0.5 -28.5v-181c0 -12.667 0.166992 -22 0.5 -28s0.833008 -14.333 1.5 -25s1.66699 -18.834 3 -24.501
s3.66602 -12.167 6.99902 -19.5s7 -12.833 11 -16.5s9.33301 -6.83398 16 -9.50098s14.334 -4 23.001 -4z" />
    <glyph glyph-name="ocircumflex" unicode="&#xf4;" horiz-adv-x="423" 
d="M71 645l86 175h109l86 -175h-80l-61 121l-60 -121h-80zM212 -8c-31.333 0 -58 4.83105 -80 14.498s-39.333 24.167 -52 43.5s-22 41.5 -28 66.5s-9 54.5 -9 88.5v168c0 34 3 63.5 9 88.5s15.333 47.167 28 66.5s30 33.833 52 43.5s48.667 14.5 80 14.5
c60.667 0 103.834 -18.167 129.501 -54.5s38.5 -89.166 38.5 -158.499v-168c0 -69.333 -12.833 -122.166 -38.5 -158.499s-68.834 -54.5 -129.501 -54.5zM212 70.998c10 0 18.665 1.50195 25.998 4.50195s13 7.83301 17 14.5s7.33301 13.167 10 19.5s4.5 15.5 5.5 27.5
s1.66699 21.667 2 29s0.5 18 0.5 32v181c0 12.667 -0.166992 22.167 -0.5 28.5s-0.666016 14.833 -0.999023 25.5s-1.33301 18.834 -3 24.501s-4 12.167 -7 19.5s-6.66699 12.833 -11 16.5s-9.66602 6.83398 -15.999 9.50098s-13.833 4 -22.5 4s-16.334 -1.33301 -23.001 -4
s-12 -5.83398 -16 -9.50098s-7.66699 -9.16699 -11 -16.5s-5.66602 -13.833 -6.99902 -19.5s-2.33301 -13.834 -3 -24.501s-1.16699 -19.167 -1.5 -25.5s-0.5 -15.833 -0.5 -28.5v-181c0 -12.667 0.166992 -22 0.5 -28s0.833008 -14.333 1.5 -25s1.66699 -18.834 3 -24.501
s3.66602 -12.167 6.99902 -19.5s7 -12.833 11 -16.5s9.33301 -6.83398 16 -9.50098s14.334 -4 23.001 -4z" />
    <glyph glyph-name="otilde" unicode="&#xf5;" horiz-adv-x="423" 
d="M278 646c-16.667 0 -40.167 8.16797 -70.5 24.501s-50.166 24.5 -59.499 24.5c-8.66699 0.666992 -15 -2.33301 -19 -9s-6 -17.334 -6 -32.001h-61c0 73.333 28.667 109.333 86 108c17.333 0 41.666 -8 72.999 -24s50.333 -24 57 -24c8.66699 0 14.667 3 18 9s5 17 5 33
h60c0 -34 -6.16699 -60.833 -18.5 -80.5s-33.833 -29.5 -64.5 -29.5zM212 -7.99902c-31.333 0 -58 4.83105 -80 14.498s-39.333 24.167 -52 43.5s-22 41.5 -28 66.5s-9 54.5 -9 88.5v168c0 34 3 63.5 9 88.5s15.333 47.167 28 66.5s30 33.833 52 43.5s48.667 14.5 80 14.5
c60.667 0 103.834 -18.167 129.501 -54.5s38.5 -89.166 38.5 -158.499v-168c0 -69.333 -12.833 -122.166 -38.5 -158.499s-68.834 -54.5 -129.501 -54.5zM212 70.999c10 0 18.665 1.50195 25.998 4.50195s13 7.83301 17 14.5s7.33301 13.167 10 19.5s4.5 15.5 5.5 27.5
s1.66699 21.667 2 29s0.5 18 0.5 32v181c0 12.667 -0.166992 22.167 -0.5 28.5s-0.666016 14.833 -0.999023 25.5s-1.33301 18.834 -3 24.501s-4 12.167 -7 19.5s-6.66699 12.833 -11 16.5s-9.66602 6.83398 -15.999 9.50098s-13.833 4 -22.5 4s-16.334 -1.33301 -23.001 -4
s-12 -5.83398 -16 -9.50098s-7.66699 -9.16699 -11 -16.5s-5.66602 -13.833 -6.99902 -19.5s-2.33301 -13.834 -3 -24.501s-1.16699 -19.167 -1.5 -25.5s-0.5 -15.833 -0.5 -28.5v-181c0 -12.667 0.166992 -22 0.5 -28s0.833008 -14.333 1.5 -25s1.66699 -18.834 3 -24.501
s3.66602 -12.167 6.99902 -19.5s7 -12.833 11 -16.5s9.33301 -6.83398 16 -9.50098s14.334 -4 23.001 -4z" />
    <glyph glyph-name="odieresis" unicode="&#xf6;" horiz-adv-x="423" 
d="M244 645v111h108v-111h-108zM72 645v111h108v-111h-108zM212 -8c-31.333 0 -58 4.83105 -80 14.498s-39.333 24.167 -52 43.5s-22 41.5 -28 66.5s-9 54.5 -9 88.5v168c0 34 3 63.5 9 88.5s15.333 47.167 28 66.5s30 33.833 52 43.5s48.667 14.5 80 14.5
c60.667 0 103.834 -18.167 129.501 -54.5s38.5 -89.166 38.5 -158.499v-168c0 -69.333 -12.833 -122.166 -38.5 -158.499s-68.834 -54.5 -129.501 -54.5zM212 70.998c10 0 18.665 1.50195 25.998 4.50195s13 7.83301 17 14.5s7.33301 13.167 10 19.5s4.5 15.5 5.5 27.5
s1.66699 21.667 2 29s0.5 18 0.5 32v181c0 12.667 -0.166992 22.167 -0.5 28.5s-0.666016 14.833 -0.999023 25.5s-1.33301 18.834 -3 24.501s-4 12.167 -7 19.5s-6.66699 12.833 -11 16.5s-9.66602 6.83398 -15.999 9.50098s-13.833 4 -22.5 4s-16.334 -1.33301 -23.001 -4
s-12 -5.83398 -16 -9.50098s-7.66699 -9.16699 -11 -16.5s-5.66602 -13.833 -6.99902 -19.5s-2.33301 -13.834 -3 -24.501s-1.16699 -19.167 -1.5 -25.5s-0.5 -15.833 -0.5 -28.5v-181c0 -12.667 0.166992 -22 0.5 -28s0.833008 -14.333 1.5 -25s1.66699 -18.834 3 -24.501
s3.66602 -12.167 6.99902 -19.5s7 -12.833 11 -16.5s9.33301 -6.83398 16 -9.50098s14.334 -4 23.001 -4z" />
    <glyph glyph-name="divide" unicode="&#xf7;" horiz-adv-x="346" 
d="M130 527v111h85v-111h-85zM19 372v78h309v-78h-309zM130 172v111h85v-111h-85z" />
    <glyph glyph-name="oslash" unicode="&#xf8;" horiz-adv-x="423" 
d="M212 71c10 0 18.665 1.50098 25.998 4.50098s13 7.83301 17 14.5s7.33301 13.167 10 19.5s4.5 15.5 5.5 27.5s1.66699 21.667 2 29s0.5 18 0.5 32v181v16l-108 -300c2.66699 -4.66699 5.33398 -8.33398 8.00098 -11.001c4 -4 9.33301 -7.16699 16 -9.5
s14.334 -3.5 23.001 -3.5zM95.998 -94.999l-31.999 11l39 108c-8.66699 7.33301 -16.334 16 -23.001 26c-12.667 19.333 -22 41.5 -28 66.5s-9 54.5 -9 88.5v168c0 34 3 63.5 9 88.5s15.333 47.167 28 66.5s30 33.833 52 43.5s48.667 14.5 80 14.5
c32.667 0 60.334 -5.33301 83.001 -16l35 98l37 -12l-39 -109c5.33301 -4.66699 10 -10 14 -16c26 -36.667 38.667 -89.334 38 -158.001v-168c0 -69.333 -12.833 -122.166 -38.5 -158.499s-68.834 -54.5 -129.501 -54.5c-31.333 0 -58 4.66699 -80 14zM261.999 476.001
l0.000976562 1.00195c-2.66699 7.33301 -6.33398 12.833 -11.001 16.5s-10.167 6.83398 -16.5 9.50098s-13.833 4 -22.5 4s-16.334 -1.33301 -23.001 -4s-12 -5.83398 -16 -9.50098s-7.66699 -9.16699 -11 -16.5s-5.66602 -13.833 -6.99902 -19.5
s-2.33301 -13.834 -3 -24.501s-1.16699 -19.167 -1.5 -25.5s-0.5 -15.833 -0.5 -28.5v-181v-28c0 -2.66699 0.333008 -5.33398 1 -8.00098z" />
    <glyph glyph-name="ugrave" unicode="&#xf9;" 
d="M190 646l-110 198h107l57 -198h-54zM137 -8c-16 0 -30 3.5 -42 10.5s-21.167 16.333 -27.5 28s-10.833 24 -13.5 37s-4 27.167 -4 42.5v468h107v-436c0 -22 3.33301 -38.5 10 -49.5s18.667 -16.5 36 -16.5c21.333 0 46.333 12 75 36v466h107v-578h-107v57
c-45.333 -43.333 -92.333 -65 -141 -65z" />
    <glyph glyph-name="uacute" unicode="&#xfa;" 
d="M191 646l59 198h107l-112 -198h-54zM137 -8c-16 0 -30 3.5 -42 10.5s-21.167 16.333 -27.5 28s-10.833 24 -13.5 37s-4 27.167 -4 42.5v468h107v-436c0 -22 3.33301 -38.5 10 -49.5s18.667 -16.5 36 -16.5c21.333 0 46.333 12 75 36v466h107v-578h-107v57
c-45.333 -43.333 -92.333 -65 -141 -65z" />
    <glyph glyph-name="ucircumflex" unicode="&#xfb;" 
d="M77 645l86 175h109l86 -175h-80l-61 121l-60 -121h-80zM137 -8c-16 0 -30 3.5 -42 10.5s-21.167 16.333 -27.5 28s-10.833 24 -13.5 37s-4 27.167 -4 42.5v468h107v-436c0 -22 3.33301 -38.5 10 -49.5s18.667 -16.5 36 -16.5c21.333 0 46.333 12 75 36v466h107v-578h-107
v57c-45.333 -43.333 -92.333 -65 -141 -65z" />
    <glyph glyph-name="udieresis" unicode="&#xfc;" 
d="M249 645v111h108v-111h-108zM77 645v111h108v-111h-108zM137 -8c-16 0 -30 3.5 -42 10.5s-21.167 16.333 -27.5 28s-10.833 24 -13.5 37s-4 27.167 -4 42.5v468h107v-436c0 -22 3.33301 -38.5 10 -49.5s18.667 -16.5 36 -16.5c21.333 0 46.333 12 75 36v466h107v-578
h-107v57c-45.333 -43.333 -92.333 -65 -141 -65z" />
    <glyph glyph-name="yacute" unicode="&#xfd;" horiz-adv-x="391" 
d="M170 646l59 198h107l-112 -198h-54zM45 -145l0.000976562 81.999c47.333 0 77.666 4.5 90.999 13.5s16.666 27.5 9.99902 55.5c-9.33301 40.667 -15.333 67.334 -18 80.001c-11.333 48.667 -30.666 130.667 -57.999 246s-46.666 197.333 -57.999 246h108l78 -432l75 432
h108l-138 -610c-9.33301 -41.333 -28.833 -70.5 -58.5 -87.5s-71.834 -25.5 -126.501 -25.5h-13z" />
    <glyph glyph-name="thorn" unicode="&#xfe;" horiz-adv-x="446" 
d="M239 76c8.66699 0 16.333 1.66699 23 5s12 8.66602 16 15.999s7.33301 15 10 23s4.66699 18.5 6 31.5s2.16602 25 2.49902 36s0.5 24.833 0.5 41.5v140c0 16 -0.5 29.833 -1.5 41.5s-2.66699 23.667 -5 36s-5.66602 22.333 -9.99902 30s-10.5 13.834 -18.5 18.501
s-17.333 7 -28 7c-24 0 -48 -10 -72 -30v-370c23.333 -17.333 49 -26 77 -26zM54.999 -190l0.000976562 1000h107v-278c30.667 36 67.334 54 110.001 54c19.333 0 36.5 -3.66699 51.5 -11s27.167 -17.5 36.5 -30.5s17.166 -26.667 23.499 -41s10.833 -30.333 13.5 -48
s4.5 -33 5.5 -46s1.5 -26.5 1.5 -40.5v-140c0 -158 -48 -237 -144 -237c-34.667 0 -67.334 17 -98.001 51v-233h-107z" />
    <glyph glyph-name="ydieresis" unicode="&#xff;" horiz-adv-x="391" 
d="M229 645v111h108v-111h-108zM57 645v111h108v-111h-108zM45 -145l0.000976562 81.999c47.333 0 77.666 4.5 90.999 13.5s16.666 27.5 9.99902 55.5c-9.33301 40.667 -15.333 67.334 -18 80.001c-11.333 48.667 -30.666 130.667 -57.999 246s-46.666 197.333 -57.999 246
h108l78 -432l75 432h108l-138 -610c-9.33301 -41.333 -28.833 -70.5 -58.5 -87.5s-71.834 -25.5 -126.501 -25.5h-13z" />
    <glyph glyph-name="Amacron" unicode="&#x100;" horiz-adv-x="491" 
d="M150 877v65h192v-65h-192zM179 285h135l-68 365zM19 0l172 810h109l173 -810h-107l-37 204h-165l-39 -204h-106z" />
    <glyph glyph-name="amacron" unicode="&#x101;" horiz-adv-x="425" 
d="M118 645v65h192v-65h-192zM200 84c14 0 27.499 5.49902 40.499 16.499s22.833 21.5 29.5 31.5v164c-37.333 -21.333 -62 -37 -74 -47c-31.333 -25.333 -47 -55.333 -47 -90c0 -23.333 4.33301 -41.666 13 -54.999s21.334 -20 38.001 -20zM157.999 -8.00098
c-32.667 0 -60.167 13.4971 -82.5 40.4971s-33.5 58.167 -33.5 93.5c0 27.333 4.33301 52.166 13 74.499s18.167 40.333 28.5 54s27.833 27.834 52.5 42.501s43.834 25.167 57.501 31.5s37.834 16.5 72.501 30.5c2 0.666992 3.33301 1.33398 4 2.00098v41
c0 37.333 -3.83301 64 -11.5 80s-23.167 24 -46.5 24c-40.667 0 -61 -27.333 -61 -82v-29l-106 4c0 6 0.333008 13 1 21c3.33301 57.333 19.5 99.333 48.5 126s70.5 40 124.5 40c55.333 0 95.5 -15.167 120.5 -45.5s37.5 -76.166 37.5 -137.499v-264
c0 -43.333 3.33301 -89.666 10 -138.999h-98c-6.66699 32 -11.334 60.333 -14.001 85c-8 -26 -21.833 -48 -41.5 -66s-44.834 -27 -75.501 -27z" />
    <glyph glyph-name="Abreve" unicode="&#x102;" horiz-adv-x="491" 
d="M245 877c-92.667 0 -139.335 49.667 -140.002 149h63c0 -30.667 6.5 -53 19.5 -67s32.333 -21 58 -21s44.834 7 57.501 21s19.334 36.333 20.001 67h63c0 -99.333 -47 -149 -141 -149zM178.999 285h135l-68 365zM18.999 0l172 810h109l173 -810h-107l-37 204h-165
l-39 -204h-106z" />
    <glyph glyph-name="abreve" unicode="&#x103;" horiz-adv-x="425" 
d="M214 645c-92.667 0 -139.335 49.667 -140.002 149h63c0 -30.667 6.5 -53 19.5 -67s32.333 -21 58 -21s44.834 7 57.501 21s19.334 36.333 20.001 67h63c0 -99.333 -47 -149 -141 -149zM199.999 84c14 0 27.499 5.49902 40.499 16.499s22.833 21.5 29.5 31.5v164
c-37.333 -21.333 -62 -37 -74 -47c-31.333 -25.333 -47 -55.333 -47 -90c0 -23.333 4.33301 -41.666 13 -54.999s21.334 -20 38.001 -20zM157.998 -8.00098c-32.667 0 -60.167 13.4971 -82.5 40.4971s-33.5 58.167 -33.5 93.5c0 27.333 4.33301 52.166 13 74.499
s18.167 40.333 28.5 54s27.833 27.834 52.5 42.501s43.834 25.167 57.501 31.5s37.834 16.5 72.501 30.5c2 0.666992 3.33301 1.33398 4 2.00098v41c0 37.333 -3.83301 64 -11.5 80s-23.167 24 -46.5 24c-40.667 0 -61 -27.333 -61 -82v-29l-106 4c0 6 0.333008 13 1 21
c3.33301 57.333 19.5 99.333 48.5 126s70.5 40 124.5 40c55.333 0 95.5 -15.167 120.5 -45.5s37.5 -76.166 37.5 -137.499v-264c0 -43.333 3.33301 -89.666 10 -138.999h-98c-6.66699 32 -11.334 60.333 -14.001 85c-8 -26 -21.833 -48 -41.5 -66s-44.834 -27 -75.501 -27z
" />
    <glyph glyph-name="Aogonek" unicode="&#x104;" horiz-adv-x="491" 
d="M458 -228c-19.333 0 -35.498 0.329102 -48.498 0.996094s-26.833 2 -41.5 4s-26.5 5 -35.5 9s-17.5 9 -25.5 15s-13.833 13.833 -17.5 23.5s-5.5 20.834 -5.5 33.501c0 30.667 11.667 60.5 35 89.5s48.666 47.5 75.999 55.5h54c-2 -2 -7.33301 -8.16699 -16 -18.5
s-15 -18.166 -19 -23.499s-9.83301 -13.166 -17.5 -23.499s-13.334 -19.166 -17.001 -26.499s-7 -15.5 -10 -24.5s-4.5 -17.5 -4.5 -25.5c0 -6 1.33301 -11.333 4 -16s6.5 -8.16699 11.5 -10.5s10.167 -4.33301 15.5 -6s12 -2.5 20 -2.5h21c6 0 13.167 0.166992 21.5 0.5
s14.5 0.5 18.5 0.5zM179.002 284.996h135l-68 365zM19.002 -0.00390625l172 810h109l173 -810h-107l-37 204h-165l-39 -204h-106z" />
    <glyph glyph-name="aogonek" unicode="&#x105;" horiz-adv-x="425" 
d="M377 -228c-19.333 0 -35.498 0.329102 -48.498 0.996094s-26.833 2 -41.5 4s-26.5 5 -35.5 9s-17.5 9 -25.5 15s-13.833 13.833 -17.5 23.5s-5.5 20.834 -5.5 33.501c0 30.667 11.667 60.5 35 89.5s48.666 47.5 75.999 55.5h54c-2 -2 -7.33301 -8.16699 -16 -18.5
s-15 -18.166 -19 -23.499s-9.83301 -13.166 -17.5 -23.499s-13.334 -19.166 -17.001 -26.499s-7 -15.5 -10 -24.5s-4.5 -17.5 -4.5 -25.5c0 -6 1.33301 -11.333 4 -16s6.5 -8.16699 11.5 -10.5s10.167 -4.33301 15.5 -6s12 -2.5 20 -2.5h21c6 0 13.167 0.166992 21.5 0.5
s14.5 0.5 18.5 0.5zM200.002 83.9961c14 0 27.499 5.49902 40.499 16.499s22.833 21.5 29.5 31.5v164c-37.333 -21.333 -62 -37 -74 -47c-31.333 -25.333 -47 -55.333 -47 -90c0 -23.333 4.33301 -41.666 13 -54.999s21.334 -20 38.001 -20zM158.001 -8.00488
c-32.667 0 -60.167 13.4971 -82.5 40.4971s-33.5 58.167 -33.5 93.5c0 27.333 4.33301 52.166 13 74.499s18.167 40.333 28.5 54s27.833 27.834 52.5 42.501s43.834 25.167 57.501 31.5s37.834 16.5 72.501 30.5c2 0.666992 3.33301 1.33398 4 2.00098v41
c0 37.333 -3.83301 64 -11.5 80s-23.167 24 -46.5 24c-40.667 0 -61 -27.333 -61 -82v-29l-106 4c0 6 0.333008 13 1 21c3.33301 57.333 19.5 99.333 48.5 126s70.5 40 124.5 40c55.333 0 95.5 -15.167 120.5 -45.5s37.5 -76.166 37.5 -137.499v-264
c0 -43.333 3.33301 -89.666 10 -138.999h-98c-6.66699 32 -11.334 60.333 -14.001 85c-8 -26 -21.833 -48 -41.5 -66s-44.834 -27 -75.501 -27z" />
    <glyph glyph-name="Cacute" unicode="&#x106;" horiz-adv-x="514" 
d="M232 877l59 198h107l-112 -198h-54zM266 -9c-33.333 0 -62.8359 4.66895 -88.5029 14.002s-46.5 21.666 -62.5 36.999s-29.167 34.666 -39.5 57.999s-17.5 47.833 -21.5 73.5s-6 54.5 -6 86.5v286c0 34 2.16699 64.5 6.5 91.5s11.5 52 21.5 75s23.167 42 39.5 57
s37 26.667 62 35s54.5 12.5 88.5 12.5c72.667 0 124.834 -19.667 156.501 -59s47.5 -97.333 47.5 -174v-64h-107v57c0 12.667 -0.166992 22.5 -0.5 29.5s-0.666016 15.667 -0.999023 26s-1.16602 18.5 -2.49902 24.5s-3 12.833 -5 20.5s-4.66699 13.667 -8 18
s-7.5 9 -12.5 14s-10.5 8.83301 -16.5 11.5s-13.333 4.66699 -22 6s-18 2 -28 2c-15.333 0 -29 -1.66699 -41 -5s-21.667 -8.66602 -29 -15.999s-13.5 -15.333 -18.5 -24s-8.5 -20 -10.5 -34s-3.5 -27.333 -4.5 -40c-1 -13.333 -1.5 -29.333 -1.5 -48v-320
c0 -60.667 7.66699 -102.834 23 -126.501s42.666 -35.5 81.999 -35.5c14.667 0 27.5 1.5 38.5 4.5s20 8.33301 27 16s12.5 15.5 16.5 23.5s7 19 9 33s3.33301 26.833 4 38.5s1 26.834 1 45.501v60h107v-60c0 -30.667 -2 -58.334 -6 -83.001s-10.667 -47.667 -20 -69
s-21.666 -39 -36.999 -53s-34.833 -25 -58.5 -33s-51.167 -12 -82.5 -12z" />
    <glyph glyph-name="cacute" unicode="&#x107;" horiz-adv-x="410" 
d="M180 646l59 198h107l-112 -198h-54zM212 -8c-28 0 -51.999 3.6709 -71.999 11.0039s-36.167 17.166 -48.5 29.499s-22.166 28.5 -29.499 48.5s-12.333 41 -15 63s-4 48 -4 78v133c0 38.667 2.33301 71.334 7 98.001s13 50.5 25 71.5s29.333 36.5 52 46.5s51 15 85 15
c30.667 0 56.5 -3.83301 77.5 -11.5s37.167 -19.334 48.5 -35.001s19.5 -34.334 24.5 -56.001s7.5 -48.167 7.5 -79.5v-34h-97v35c0 38 -4.16699 64.5 -12.5 79.5s-24.166 22.5 -47.499 22.5c-26 0 -43 -9 -51 -27s-12 -52.333 -12 -103v-182
c0 -48.667 4.5 -81.5 13.5 -98.5s25.833 -25.5 50.5 -25.5c10.667 0 19.5 1.66699 26.5 5s12.667 7.66602 17 12.999s7.66602 12.666 9.99902 21.999s3.83301 18.333 4.5 27s1 19.667 1 33v47h97v-40c0 -30.667 -2.5 -57 -7.5 -79s-13.333 -41.333 -25 -58
s-27.834 -29 -48.501 -37s-46.334 -12 -77.001 -12z" />
    <glyph glyph-name="Ccircumflex" unicode="&#x108;" horiz-adv-x="514" 
d="M118 877l86 175h109l86 -175h-80l-61 121l-60 -121h-80zM266 -9c-33.333 0 -62.8359 4.66895 -88.5029 14.002s-46.5 21.666 -62.5 36.999s-29.167 34.666 -39.5 57.999s-17.5 47.833 -21.5 73.5s-6 54.5 -6 86.5v286c0 34 2.16699 64.5 6.5 91.5s11.5 52 21.5 75
s23.167 42 39.5 57s37 26.667 62 35s54.5 12.5 88.5 12.5c72.667 0 124.834 -19.667 156.501 -59s47.5 -97.333 47.5 -174v-64h-107v57c0 12.667 -0.166992 22.5 -0.5 29.5s-0.666016 15.667 -0.999023 26s-1.16602 18.5 -2.49902 24.5s-3 12.833 -5 20.5
s-4.66699 13.667 -8 18s-7.5 9 -12.5 14s-10.5 8.83301 -16.5 11.5s-13.333 4.66699 -22 6s-18 2 -28 2c-15.333 0 -29 -1.66699 -41 -5s-21.667 -8.66602 -29 -15.999s-13.5 -15.333 -18.5 -24s-8.5 -20 -10.5 -34s-3.5 -27.333 -4.5 -40c-1 -13.333 -1.5 -29.333 -1.5 -48
v-320c0 -60.667 7.66699 -102.834 23 -126.501s42.666 -35.5 81.999 -35.5c14.667 0 27.5 1.5 38.5 4.5s20 8.33301 27 16s12.5 15.5 16.5 23.5s7 19 9 33s3.33301 26.833 4 38.5s1 26.834 1 45.501v60h107v-60c0 -30.667 -2 -58.334 -6 -83.001s-10.667 -47.667 -20 -69
s-21.666 -39 -36.999 -53s-34.833 -25 -58.5 -33s-51.167 -12 -82.5 -12z" />
    <glyph glyph-name="ccircumflex" unicode="&#x109;" horiz-adv-x="410" 
d="M66 645l86 175h109l86 -175h-80l-61 121l-60 -121h-80zM212 -8c-28 0 -51.999 3.6709 -71.999 11.0039s-36.167 17.166 -48.5 29.499s-22.166 28.5 -29.499 48.5s-12.333 41 -15 63s-4 48 -4 78v133c0 38.667 2.33301 71.334 7 98.001s13 50.5 25 71.5
s29.333 36.5 52 46.5s51 15 85 15c30.667 0 56.5 -3.83301 77.5 -11.5s37.167 -19.334 48.5 -35.001s19.5 -34.334 24.5 -56.001s7.5 -48.167 7.5 -79.5v-34h-97v35c0 38 -4.16699 64.5 -12.5 79.5s-24.166 22.5 -47.499 22.5c-26 0 -43 -9 -51 -27s-12 -52.333 -12 -103
v-182c0 -48.667 4.5 -81.5 13.5 -98.5s25.833 -25.5 50.5 -25.5c10.667 0 19.5 1.66699 26.5 5s12.667 7.66602 17 12.999s7.66602 12.666 9.99902 21.999s3.83301 18.333 4.5 27s1 19.667 1 33v47h97v-40c0 -30.667 -2.5 -57 -7.5 -79s-13.333 -41.333 -25 -58
s-27.834 -29 -48.501 -37s-46.334 -12 -77.001 -12z" />
    <glyph glyph-name="Cdotaccent" unicode="&#x10a;" horiz-adv-x="514" 
d="M205 877v119h108v-119h-108zM266 -9c-33.333 0 -62.8359 4.66895 -88.5029 14.002s-46.5 21.666 -62.5 36.999s-29.167 34.666 -39.5 57.999s-17.5 47.833 -21.5 73.5s-6 54.5 -6 86.5v286c0 34 2.16699 64.5 6.5 91.5s11.5 52 21.5 75s23.167 42 39.5 57
s37 26.667 62 35s54.5 12.5 88.5 12.5c72.667 0 124.834 -19.667 156.501 -59s47.5 -97.333 47.5 -174v-64h-107v57c0 12.667 -0.166992 22.5 -0.5 29.5s-0.666016 15.667 -0.999023 26s-1.16602 18.5 -2.49902 24.5s-3 12.833 -5 20.5s-4.66699 13.667 -8 18
s-7.5 9 -12.5 14s-10.5 8.83301 -16.5 11.5s-13.333 4.66699 -22 6s-18 2 -28 2c-15.333 0 -29 -1.66699 -41 -5s-21.667 -8.66602 -29 -15.999s-13.5 -15.333 -18.5 -24s-8.5 -20 -10.5 -34s-3.5 -27.333 -4.5 -40c-1 -13.333 -1.5 -29.333 -1.5 -48v-320
c0 -60.667 7.66699 -102.834 23 -126.501s42.666 -35.5 81.999 -35.5c14.667 0 27.5 1.5 38.5 4.5s20 8.33301 27 16s12.5 15.5 16.5 23.5s7 19 9 33s3.33301 26.833 4 38.5s1 26.834 1 45.501v60h107v-60c0 -30.667 -2 -58.334 -6 -83.001s-10.667 -47.667 -20 -69
s-21.666 -39 -36.999 -53s-34.833 -25 -58.5 -33s-51.167 -12 -82.5 -12z" />
    <glyph glyph-name="cdotaccent" unicode="&#x10b;" horiz-adv-x="410" 
d="M152 646v119h108v-119h-108zM212 -8c-28 0 -51.999 3.6709 -71.999 11.0039s-36.167 17.166 -48.5 29.499s-22.166 28.5 -29.499 48.5s-12.333 41 -15 63s-4 48 -4 78v133c0 38.667 2.33301 71.334 7 98.001s13 50.5 25 71.5s29.333 36.5 52 46.5s51 15 85 15
c30.667 0 56.5 -3.83301 77.5 -11.5s37.167 -19.334 48.5 -35.001s19.5 -34.334 24.5 -56.001s7.5 -48.167 7.5 -79.5v-34h-97v35c0 38 -4.16699 64.5 -12.5 79.5s-24.166 22.5 -47.499 22.5c-26 0 -43 -9 -51 -27s-12 -52.333 -12 -103v-182
c0 -48.667 4.5 -81.5 13.5 -98.5s25.833 -25.5 50.5 -25.5c10.667 0 19.5 1.66699 26.5 5s12.667 7.66602 17 12.999s7.66602 12.666 9.99902 21.999s3.83301 18.333 4.5 27s1 19.667 1 33v47h97v-40c0 -30.667 -2.5 -57 -7.5 -79s-13.333 -41.333 -25 -58
s-27.834 -29 -48.501 -37s-46.334 -12 -77.001 -12z" />
    <glyph glyph-name="Ccaron" unicode="&#x10c;" horiz-adv-x="514" 
d="M207 877l-87 173h81l59 -117l57 117h82l-87 -173h-105zM266 -9c-33.333 0 -62.8359 4.66895 -88.5029 14.002s-46.5 21.666 -62.5 36.999s-29.167 34.666 -39.5 57.999s-17.5 47.833 -21.5 73.5s-6 54.5 -6 86.5v286c0 34 2.16699 64.5 6.5 91.5s11.5 52 21.5 75
s23.167 42 39.5 57s37 26.667 62 35s54.5 12.5 88.5 12.5c72.667 0 124.834 -19.667 156.501 -59s47.5 -97.333 47.5 -174v-64h-107v57c0 12.667 -0.166992 22.5 -0.5 29.5s-0.666016 15.667 -0.999023 26s-1.16602 18.5 -2.49902 24.5s-3 12.833 -5 20.5
s-4.66699 13.667 -8 18s-7.5 9 -12.5 14s-10.5 8.83301 -16.5 11.5s-13.333 4.66699 -22 6s-18 2 -28 2c-15.333 0 -29 -1.66699 -41 -5s-21.667 -8.66602 -29 -15.999s-13.5 -15.333 -18.5 -24s-8.5 -20 -10.5 -34s-3.5 -27.333 -4.5 -40c-1 -13.333 -1.5 -29.333 -1.5 -48
v-320c0 -60.667 7.66699 -102.834 23 -126.501s42.666 -35.5 81.999 -35.5c14.667 0 27.5 1.5 38.5 4.5s20 8.33301 27 16s12.5 15.5 16.5 23.5s7 19 9 33s3.33301 26.833 4 38.5s1 26.834 1 45.501v60h107v-60c0 -30.667 -2 -58.334 -6 -83.001s-10.667 -47.667 -20 -69
s-21.666 -39 -36.999 -53s-34.833 -25 -58.5 -33s-51.167 -12 -82.5 -12z" />
    <glyph glyph-name="ccaron" unicode="&#x10d;" horiz-adv-x="410" 
d="M154 645l-87 173h81l59 -117l57 117h82l-87 -173h-105zM212 -8c-28 0 -51.999 3.6709 -71.999 11.0039s-36.167 17.166 -48.5 29.499s-22.166 28.5 -29.499 48.5s-12.333 41 -15 63s-4 48 -4 78v133c0 38.667 2.33301 71.334 7 98.001s13 50.5 25 71.5
s29.333 36.5 52 46.5s51 15 85 15c30.667 0 56.5 -3.83301 77.5 -11.5s37.167 -19.334 48.5 -35.001s19.5 -34.334 24.5 -56.001s7.5 -48.167 7.5 -79.5v-34h-97v35c0 38 -4.16699 64.5 -12.5 79.5s-24.166 22.5 -47.499 22.5c-26 0 -43 -9 -51 -27s-12 -52.333 -12 -103
v-182c0 -48.667 4.5 -81.5 13.5 -98.5s25.833 -25.5 50.5 -25.5c10.667 0 19.5 1.66699 26.5 5s12.667 7.66602 17 12.999s7.66602 12.666 9.99902 21.999s3.83301 18.333 4.5 27s1 19.667 1 33v47h97v-40c0 -30.667 -2.5 -57 -7.5 -79s-13.333 -41.333 -25 -58
s-27.834 -29 -48.501 -37s-46.334 -12 -77.001 -12z" />
    <glyph glyph-name="Dcaron" unicode="&#x10e;" horiz-adv-x="526" 
d="M218 877l-87 173h81l59 -117l57 117h82l-87 -173h-105zM63 0l0.00195312 810h176c87.333 0 149.166 -20 185.499 -60s54.5 -102.667 54.5 -188v-297c0 -88.667 -17.833 -155 -53.5 -199s-94.834 -66 -177.501 -66h-185zM176.002 81l63.999 -0.000976562
c17.333 0 32.5 1.66699 45.5 5s24 7.33301 33 12s16.5 12.334 22.5 23.001s10.5 20.334 13.5 29.001s5.33301 21.667 7 39s2.66699 32 3 44s0.5 29.667 0.5 53v263c0 19.333 -0.333008 35.833 -1 49.5s-2 27.167 -4 40.5s-5 24.166 -9 32.499s-9 16.333 -15 24
s-13.667 13.5 -23 17.5s-20.166 7.16699 -32.499 9.5s-26.833 3.5 -43.5 3.5h-61v-645z" />
    <glyph glyph-name="dcaron" unicode="&#x10f;" horiz-adv-x="493" 
d="M462 562v248h97l-39 -248h-58zM215 76c20.667 0 42.667 7.33398 66 22.001v379c-23.333 16.667 -46 25 -68 25c-42 0 -63 -40.333 -63 -121v-163c0 -18 0.5 -33.5 1.5 -46.5s2.83301 -25.833 5.5 -38.5s6.16699 -22.834 10.5 -30.501s10.5 -14 18.5 -19
s17.667 -7.5 29 -7.5zM188 -7.99902c-50 0 -86.666 18.166 -109.999 54.499s-35 96.5 -35 180.5v112c0 28.667 1.16699 54.334 3.5 77.001s6.66602 45 12.999 67s14.5 40.167 24.5 54.5s23.5 26 40.5 35s37.167 13.5 60.5 13.5c34.667 0 66.667 -15 96 -45v269h107v-810
h-107v37c-28.667 -30 -59.667 -45 -93 -45z" />
    <glyph glyph-name="Dcroat" unicode="&#x110;" horiz-adv-x="528" 
d="M65 0l-0.00292969 388h-48v65h48v357h177c44.667 0 82.334 -5.16699 113.001 -15.5s55.334 -26 74.001 -47s31.834 -46.5 39.501 -76.5s11.5 -66.333 11.5 -109v-297c0 -88.667 -17.667 -155 -53 -199s-94.333 -66 -177 -66h-185zM178.997 81l63.002 0.000976562
c20 0 37.167 1.83301 51.5 5.5s26.166 10.167 35.499 19.5s16.5 18.5 21.5 27.5s8.66699 23 11 42s3.83301 35.333 4.5 49s1 34.167 1 61.5v263c0 19.333 -0.333008 35.666 -1 48.999s-2 26.833 -4 40.5s-4.83301 24.667 -8.5 33s-8.66699 16.333 -15 24s-14 13.5 -23 17.5
s-19.833 7.16699 -32.5 9.5s-27.334 3.5 -44.001 3.5h-60v-273h60v-65h-60v-307z" />
    <glyph glyph-name="dcroat" unicode="&#x111;" horiz-adv-x="453" 
d="M215 76c20.667 0 42.667 7.33398 66 22.001v379c-23.333 16.667 -46 25 -68 25c-42 0 -63 -40.333 -63 -121v-163c0 -18 0.5 -33.5 1.5 -46.5s2.83301 -25.833 5.5 -38.5s6.16699 -22.834 10.5 -30.501s10.5 -14 18.5 -19s17.667 -7.5 29 -7.5zM188 -7.99902
c-50 0 -86.666 18.166 -109.999 54.499s-35 96.5 -35 180.5v112c0 28.667 1.16699 54.334 3.5 77.001s6.66602 45 12.999 67s14.5 40.167 24.5 54.5s23.5 26 40.5 35s37.167 13.5 60.5 13.5c34.667 0 66.667 -15 96 -45v138h-112v59h112v72h107v-72h59v-59h-59v-679h-107v37
c-28.667 -30 -59.667 -45 -93 -45z" />
    <glyph glyph-name="Emacron" unicode="&#x112;" horiz-adv-x="407" 
d="M125 877v65h192v-65h-192zM63 0v810h314v-84h-201v-268h163v-80h-163v-297h203v-81h-316z" />
    <glyph glyph-name="emacron" unicode="&#x113;" horiz-adv-x="420" 
d="M115 645v65h192v-65h-192zM150 345l123 -0.00195312v52c0 15.333 -0.333008 28.333 -1 39s-2.33398 20.834 -5.00098 30.501s-6.16699 17.334 -10.5 23.001s-10 10 -17 13s-15.833 4.5 -26.5 4.5c-25.333 0 -42.166 -9 -50.499 -27s-12.5 -52.667 -12.5 -104v-31z
M214 -8.00195c-34 0 -62.1719 4.83398 -84.5049 14.501s-39.666 24.667 -51.999 45s-21.166 44 -26.499 71s-8 60.5 -8 100.5v132c0 40 2.83301 73.833 8.5 101.5s14.834 51.5 27.501 71.5s30.167 34.667 52.5 44s49.833 14 82.5 14c20.667 0 38.834 -2 54.501 -6
s29.334 -9.33301 41.001 -16s21.667 -15.834 30 -27.501s15 -24 20 -37s8.83301 -28.667 11.5 -47s4.5 -36.5 5.5 -54.5s1.5 -39.333 1.5 -64v-47h-228v-77v-6c0 -16 0.166992 -28 0.5 -36s1 -18.333 2 -31s2.83301 -22 5.5 -28s6.33398 -12.5 11.001 -19.5
s10.667 -11.833 18 -14.5s16 -4 26 -4c23.333 0 39.166 7.83301 47.499 23.5s12.5 39.5 12.5 71.5v35h104v-22c0 -124.667 -54.333 -187 -163 -187z" />
    <glyph glyph-name="Ebreve" unicode="&#x114;" horiz-adv-x="407" 
d="M221 877c-92.667 0 -139.335 49.667 -140.002 149h63c0 -30.667 6.5 -53 19.5 -67s32.333 -21 58 -21s44.834 7 57.501 21s19.334 36.333 20.001 67h63c0 -99.333 -47 -149 -141 -149zM62.999 0v810h314v-84h-201v-268h163v-80h-163v-297h203v-81h-316z" />
    <glyph glyph-name="ebreve" unicode="&#x115;" horiz-adv-x="420" 
d="M210 645c-92.667 0 -139.335 49.667 -140.002 149h63c0 -30.667 6.5 -53 19.5 -67s32.333 -21 58 -21s44.834 7 57.501 21s19.334 36.333 20.001 67h63c0 -99.333 -47 -149 -141 -149zM149.999 345l123 -0.00195312v52c0 15.333 -0.333008 28.333 -1 39
s-2.33398 20.834 -5.00098 30.501s-6.16699 17.334 -10.5 23.001s-10 10 -17 13s-15.833 4.5 -26.5 4.5c-25.333 0 -42.166 -9 -50.499 -27s-12.5 -52.667 -12.5 -104v-31zM213.999 -8.00195c-34 0 -62.1719 4.83398 -84.5049 14.501s-39.666 24.667 -51.999 45
s-21.166 44 -26.499 71s-8 60.5 -8 100.5v132c0 40 2.83301 73.833 8.5 101.5s14.834 51.5 27.501 71.5s30.167 34.667 52.5 44s49.833 14 82.5 14c20.667 0 38.834 -2 54.501 -6s29.334 -9.33301 41.001 -16s21.667 -15.834 30 -27.501s15 -24 20 -37
s8.83301 -28.667 11.5 -47s4.5 -36.5 5.5 -54.5s1.5 -39.333 1.5 -64v-47h-228v-77v-6c0 -16 0.166992 -28 0.5 -36s1 -18.333 2 -31s2.83301 -22 5.5 -28s6.33398 -12.5 11.001 -19.5s10.667 -11.833 18 -14.5s16 -4 26 -4c23.333 0 39.166 7.83301 47.499 23.5
s12.5 39.5 12.5 71.5v35h104v-22c0 -124.667 -54.333 -187 -163 -187z" />
    <glyph glyph-name="Edotaccent" unicode="&#x116;" horiz-adv-x="407" 
d="M167 877v119h108v-119h-108zM63 0v810h314v-84h-201v-268h163v-80h-163v-297h203v-81h-316z" />
    <glyph glyph-name="edotaccent" unicode="&#x117;" horiz-adv-x="420" 
d="M157 646v119h108v-119h-108zM150 345l123 -0.00195312v52c0 15.333 -0.333008 28.333 -1 39s-2.33398 20.834 -5.00098 30.501s-6.16699 17.334 -10.5 23.001s-10 10 -17 13s-15.833 4.5 -26.5 4.5c-25.333 0 -42.166 -9 -50.499 -27s-12.5 -52.667 -12.5 -104v-31z
M214 -8.00195c-34 0 -62.1719 4.83398 -84.5049 14.501s-39.666 24.667 -51.999 45s-21.166 44 -26.499 71s-8 60.5 -8 100.5v132c0 40 2.83301 73.833 8.5 101.5s14.834 51.5 27.501 71.5s30.167 34.667 52.5 44s49.833 14 82.5 14c20.667 0 38.834 -2 54.501 -6
s29.334 -9.33301 41.001 -16s21.667 -15.834 30 -27.501s15 -24 20 -37s8.83301 -28.667 11.5 -47s4.5 -36.5 5.5 -54.5s1.5 -39.333 1.5 -64v-47h-228v-77v-6c0 -16 0.166992 -28 0.5 -36s1 -18.333 2 -31s2.83301 -22 5.5 -28s6.33398 -12.5 11.001 -19.5
s10.667 -11.833 18 -14.5s16 -4 26 -4c23.333 0 39.166 7.83301 47.499 23.5s12.5 39.5 12.5 71.5v35h104v-22c0 -124.667 -54.333 -187 -163 -187z" />
    <glyph glyph-name="Eogonek" unicode="&#x118;" horiz-adv-x="407" 
d="M278 -228c-19.333 0 -35.498 0.329102 -48.498 0.996094s-26.833 2 -41.5 4s-26.5 5 -35.5 9s-17.5 9 -25.5 15s-13.833 13.833 -17.5 23.5s-5.5 20.834 -5.5 33.501c0 30.667 11.667 60.5 35 89.5s48.666 47.5 75.999 55.5h54c-2 -2 -7.33301 -8.16699 -16 -18.5
s-15 -18.166 -19 -23.499s-9.83301 -13.166 -17.5 -23.499s-13.334 -19.166 -17.001 -26.499s-7 -15.5 -10 -24.5s-4.5 -17.5 -4.5 -25.5c0 -6 1.33301 -11.333 4 -16s6.5 -8.16699 11.5 -10.5s10.167 -4.33301 15.5 -6s12 -2.5 20 -2.5h21c6 0 13.167 0.166992 21.5 0.5
s14.5 0.5 18.5 0.5zM63.002 -0.00390625v810h314v-84h-201v-268h163v-80h-163v-297h203v-81h-316z" />
    <glyph glyph-name="eogonek" unicode="&#x119;" horiz-adv-x="420" 
d="M282 -228c-19.333 0 -35.498 0.329102 -48.498 0.996094s-26.833 2 -41.5 4s-26.5 5 -35.5 9s-17.5 9 -25.5 15s-13.833 13.833 -17.5 23.5s-5.5 20.834 -5.5 33.501c0 30.667 11.667 60.5 35 89.5s48.666 47.5 75.999 55.5h54c-2 -2 -7.33301 -8.16699 -16 -18.5
s-15 -18.166 -19 -23.499s-9.83301 -13.166 -17.5 -23.499s-13.334 -19.166 -17.001 -26.499s-7 -15.5 -10 -24.5s-4.5 -17.5 -4.5 -25.5c0 -6 1.33301 -11.333 4 -16s6.5 -8.16699 11.5 -10.5s10.167 -4.33301 15.5 -6s12 -2.5 20 -2.5h21c6 0 13.167 0.166992 21.5 0.5
s14.5 0.5 18.5 0.5zM150.002 344.996l123 -0.00195312v52c0 15.333 -0.333008 28.333 -1 39s-2.33398 20.834 -5.00098 30.501s-6.16699 17.334 -10.5 23.001s-10 10 -17 13s-15.833 4.5 -26.5 4.5c-25.333 0 -42.166 -9 -50.499 -27s-12.5 -52.667 -12.5 -104v-31z
M214.002 -8.00586c-34 0 -62.1719 4.83398 -84.5049 14.501s-39.666 24.667 -51.999 45s-21.166 44 -26.499 71s-8 60.5 -8 100.5v132c0 40 2.83301 73.833 8.5 101.5s14.834 51.5 27.501 71.5s30.167 34.667 52.5 44s49.833 14 82.5 14c20.667 0 38.834 -2 54.501 -6
s29.334 -9.33301 41.001 -16s21.667 -15.834 30 -27.501s15 -24 20 -37s8.83301 -28.667 11.5 -47s4.5 -36.5 5.5 -54.5s1.5 -39.333 1.5 -64v-47h-228v-77v-6c0 -16 0.166992 -28 0.5 -36s1 -18.333 2 -31s2.83301 -22 5.5 -28s6.33398 -12.5 11.001 -19.5
s10.667 -11.833 18 -14.5s16 -4 26 -4c23.333 0 39.166 7.83301 47.499 23.5s12.5 39.5 12.5 71.5v35h104v-22c0 -124.667 -54.333 -187 -163 -187z" />
    <glyph glyph-name="Ecaron" unicode="&#x11a;" horiz-adv-x="407" 
d="M169 877l-87 173h81l59 -117l57 117h82l-87 -173h-105zM63 0v810h314v-84h-201v-268h163v-80h-163v-297h203v-81h-316z" />
    <glyph glyph-name="ecaron" unicode="&#x11b;" horiz-adv-x="420" 
d="M158 645l-87 173h81l59 -117l57 117h82l-87 -173h-105zM150 345l123 -0.00195312v52c0 15.333 -0.333008 28.333 -1 39s-2.33398 20.834 -5.00098 30.501s-6.16699 17.334 -10.5 23.001s-10 10 -17 13s-15.833 4.5 -26.5 4.5c-25.333 0 -42.166 -9 -50.499 -27
s-12.5 -52.667 -12.5 -104v-31zM214 -8.00195c-34 0 -62.1719 4.83398 -84.5049 14.501s-39.666 24.667 -51.999 45s-21.166 44 -26.499 71s-8 60.5 -8 100.5v132c0 40 2.83301 73.833 8.5 101.5s14.834 51.5 27.501 71.5s30.167 34.667 52.5 44s49.833 14 82.5 14
c20.667 0 38.834 -2 54.501 -6s29.334 -9.33301 41.001 -16s21.667 -15.834 30 -27.501s15 -24 20 -37s8.83301 -28.667 11.5 -47s4.5 -36.5 5.5 -54.5s1.5 -39.333 1.5 -64v-47h-228v-77v-6c0 -16 0.166992 -28 0.5 -36s1 -18.333 2 -31s2.83301 -22 5.5 -28
s6.33398 -12.5 11.001 -19.5s10.667 -11.833 18 -14.5s16 -4 26 -4c23.333 0 39.166 7.83301 47.499 23.5s12.5 39.5 12.5 71.5v35h104v-22c0 -124.667 -54.333 -187 -163 -187z" />
    <glyph glyph-name="Gcircumflex" unicode="&#x11c;" horiz-adv-x="535" 
d="M125 877l86 175h109l86 -175h-80l-61 121l-60 -121h-80zM256 -10c-73.333 0 -126.333 23.1689 -159 69.502s-49 115.166 -49 206.499v271c0 37.333 2.16699 69.833 6.5 97.5s11.333 53.5 21 77.5s22.667 43.333 39 58s37 26.167 62 34.5s54.5 12.5 88.5 12.5
c74.667 0 128.5 -19 161.5 -57s49.5 -97.667 49.5 -179v-30h-106v25c0 22.667 -0.666992 41.5 -2 56.5s-4 29.167 -8 42.5s-9.83301 23.666 -17.5 30.999s-17.667 13 -30 17s-27.5 6 -45.5 6c-14 0 -26.5 -1.5 -37.5 -4.5s-20.167 -7 -27.5 -12s-13.5 -12 -18.5 -21
s-9 -17.833 -12 -26.5s-5.33301 -19.667 -7 -33s-2.66699 -25.5 -3 -36.5s-0.5 -24.833 -0.5 -41.5v-300c0 -62 7.5 -106.5 22.5 -133.5s43.667 -40.5 86 -40.5s71.333 14.5 87 43.5s23.5 76.167 23.5 141.5v56h-103v80h205v-401h-71l-11 93
c-24.667 -68.667 -72.667 -103 -144 -103z" />
    <glyph glyph-name="gcircumflex" unicode="&#x11d;" horiz-adv-x="435" 
d="M93 649l86 175h109l86 -175h-80l-61 121l-60 -121h-80zM207 252c28 0 46.5 10 55.5 30s13.5 52.667 13.5 98c0 18 -0.5 33 -1.5 45s-2.83301 24 -5.5 36s-6.5 21.333 -11.5 28s-11.5 12.167 -19.5 16.5s-18 6.5 -30 6.5c-28 0 -46.833 -10.5 -56.5 -31.5
s-14.5 -54.5 -14.5 -100.5c0 -16 0.5 -29.833 1.5 -41.5s3 -23.167 6 -34.5s7 -20.5 12 -27.5s11.667 -12.833 20 -17.5s18.5 -7 30.5 -7zM232 -95c30.667 0 53.5 4.66699 68.5 14s22.5 23.666 22.5 42.999c0 18 -5.5 31.667 -16.5 41s-31.833 15.333 -62.5 18l-91 8
c-9.33301 -8 -18.833 -18.667 -28.5 -32s-14.5 -27.666 -14.5 -42.999c0 -12 2.83301 -21.167 8.5 -27.5s17.5 -11.5 35.5 -15.5s44 -6 78 -6zM234 -179c-20.667 0 -38.835 0.337891 -54.502 1.00488s-32.334 2 -50.001 4s-32.667 5 -45 9s-23.666 9.33301 -33.999 16
s-18 15 -23 25s-7.5 21.667 -7.5 35c0 30 7.83301 55.833 23.5 77.5s35.5 39.167 59.5 52.5c-18 5.33301 -31.833 13.666 -41.5 24.999s-14.5 23.666 -14.5 36.999c0 20 5 37.5 15 52.5s26.333 32.5 49 52.5c-22.667 17.333 -39.5 39.166 -50.5 65.499
s-16.5 61.833 -16.5 106.5c0 67.333 13.667 118.5 41 153.5s68 52.5 122 52.5c58.667 0 98.334 -21.333 119.001 -64c4.66699 6.66699 14.5 16.334 29.5 29.001s31.167 23 48.5 31l16 7l27 -69c-13.333 -2.66699 -31.833 -8.33398 -55.5 -17.001
s-37.834 -15.334 -42.501 -20.001c4.66699 -12 8.83398 -28.5 12.501 -49.5s5.5 -39.833 5.5 -56.5c0 -30.667 -2.66699 -57.834 -8 -81.501s-14.166 -44.5 -26.499 -62.5s-29 -31.833 -50 -41.5s-46.167 -14.5 -75.5 -14.5c-5.33301 0 -15.333 1 -30 3s-23 3.33301 -25 4
c0 -0.666992 -1.33301 -3.16699 -4 -7.5s-4.5 -7.33301 -5.5 -9s-2.5 -4.5 -4.5 -8.5s-3.33301 -7.5 -4 -10.5s-1 -5.83301 -1 -8.5c0 -7.33301 3.83301 -13 11.5 -17s19.834 -7 36.501 -9c1.33301 0 16.5 -1.33301 45.5 -4s43.833 -4 44.5 -4
c89.333 -8.66699 134 -55.667 134 -141c0 -52 -13.833 -89 -41.5 -111s-70.834 -33 -129.501 -33z" />
    <glyph glyph-name="Gbreve" unicode="&#x11e;" horiz-adv-x="535" 
d="M265 877c-92.667 0 -139.335 49.667 -140.002 149h63c0 -30.667 6.5 -53 19.5 -67s32.333 -21 58 -21s44.834 7 57.501 21s19.334 36.333 20.001 67h63c0 -99.333 -47 -149 -141 -149zM255.999 -10c-73.333 0 -126.333 23.1689 -159 69.502s-49 115.166 -49 206.499v271
c0 37.333 2.16699 69.833 6.5 97.5s11.333 53.5 21 77.5s22.667 43.333 39 58s37 26.167 62 34.5s54.5 12.5 88.5 12.5c74.667 0 128.5 -19 161.5 -57s49.5 -97.667 49.5 -179v-30h-106v25c0 22.667 -0.666992 41.5 -2 56.5s-4 29.167 -8 42.5s-9.83301 23.666 -17.5 30.999
s-17.667 13 -30 17s-27.5 6 -45.5 6c-14 0 -26.5 -1.5 -37.5 -4.5s-20.167 -7 -27.5 -12s-13.5 -12 -18.5 -21s-9 -17.833 -12 -26.5s-5.33301 -19.667 -7 -33s-2.66699 -25.5 -3 -36.5s-0.5 -24.833 -0.5 -41.5v-300c0 -62 7.5 -106.5 22.5 -133.5s43.667 -40.5 86 -40.5
s71.333 14.5 87 43.5s23.5 76.167 23.5 141.5v56h-103v80h205v-401h-71l-11 93c-24.667 -68.667 -72.667 -103 -144 -103z" />
    <glyph glyph-name="gbreve" unicode="&#x11f;" horiz-adv-x="435" 
d="M233 649c-92.667 0 -139.335 49.667 -140.002 149h63c0 -30.667 6.5 -53 19.5 -67s32.333 -21 58 -21s44.834 7 57.501 21s19.334 36.333 20.001 67h63c0 -99.333 -47 -149 -141 -149zM206.999 252c28 0 46.5 10 55.5 30s13.5 52.667 13.5 98c0 18 -0.5 33 -1.5 45
s-2.83301 24 -5.5 36s-6.5 21.333 -11.5 28s-11.5 12.167 -19.5 16.5s-18 6.5 -30 6.5c-28 0 -46.833 -10.5 -56.5 -31.5s-14.5 -54.5 -14.5 -100.5c0 -16 0.5 -29.833 1.5 -41.5s3 -23.167 6 -34.5s7 -20.5 12 -27.5s11.667 -12.833 20 -17.5s18.5 -7 30.5 -7zM231.999 -95
c30.667 0 53.5 4.66699 68.5 14s22.5 23.666 22.5 42.999c0 18 -5.5 31.667 -16.5 41s-31.833 15.333 -62.5 18l-91 8c-9.33301 -8 -18.833 -18.667 -28.5 -32s-14.5 -27.666 -14.5 -42.999c0 -12 2.83301 -21.167 8.5 -27.5s17.5 -11.5 35.5 -15.5s44 -6 78 -6z
M233.999 -179c-20.667 0 -38.835 0.337891 -54.502 1.00488s-32.334 2 -50.001 4s-32.667 5 -45 9s-23.666 9.33301 -33.999 16s-18 15 -23 25s-7.5 21.667 -7.5 35c0 30 7.83301 55.833 23.5 77.5s35.5 39.167 59.5 52.5c-18 5.33301 -31.833 13.666 -41.5 24.999
s-14.5 23.666 -14.5 36.999c0 20 5 37.5 15 52.5s26.333 32.5 49 52.5c-22.667 17.333 -39.5 39.166 -50.5 65.499s-16.5 61.833 -16.5 106.5c0 67.333 13.667 118.5 41 153.5s68 52.5 122 52.5c58.667 0 98.334 -21.333 119.001 -64
c4.66699 6.66699 14.5 16.334 29.5 29.001s31.167 23 48.5 31l16 7l27 -69c-13.333 -2.66699 -31.833 -8.33398 -55.5 -17.001s-37.834 -15.334 -42.501 -20.001c4.66699 -12 8.83398 -28.5 12.501 -49.5s5.5 -39.833 5.5 -56.5c0 -30.667 -2.66699 -57.834 -8 -81.501
s-14.166 -44.5 -26.499 -62.5s-29 -31.833 -50 -41.5s-46.167 -14.5 -75.5 -14.5c-5.33301 0 -15.333 1 -30 3s-23 3.33301 -25 4c0 -0.666992 -1.33301 -3.16699 -4 -7.5s-4.5 -7.33301 -5.5 -9s-2.5 -4.5 -4.5 -8.5s-3.33301 -7.5 -4 -10.5s-1 -5.83301 -1 -8.5
c0 -7.33301 3.83301 -13 11.5 -17s19.834 -7 36.501 -9c1.33301 0 16.5 -1.33301 45.5 -4s43.833 -4 44.5 -4c89.333 -8.66699 134 -55.667 134 -141c0 -52 -13.833 -89 -41.5 -111s-70.834 -33 -129.501 -33z" />
    <glyph glyph-name="Gdotaccent" unicode="&#x120;" horiz-adv-x="535" 
d="M211 877v119h108v-119h-108zM256 -10c-73.333 0 -126.333 23.1689 -159 69.502s-49 115.166 -49 206.499v271c0 37.333 2.16699 69.833 6.5 97.5s11.333 53.5 21 77.5s22.667 43.333 39 58s37 26.167 62 34.5s54.5 12.5 88.5 12.5c74.667 0 128.5 -19 161.5 -57
s49.5 -97.667 49.5 -179v-30h-106v25c0 22.667 -0.666992 41.5 -2 56.5s-4 29.167 -8 42.5s-9.83301 23.666 -17.5 30.999s-17.667 13 -30 17s-27.5 6 -45.5 6c-14 0 -26.5 -1.5 -37.5 -4.5s-20.167 -7 -27.5 -12s-13.5 -12 -18.5 -21s-9 -17.833 -12 -26.5
s-5.33301 -19.667 -7 -33s-2.66699 -25.5 -3 -36.5s-0.5 -24.833 -0.5 -41.5v-300c0 -62 7.5 -106.5 22.5 -133.5s43.667 -40.5 86 -40.5s71.333 14.5 87 43.5s23.5 76.167 23.5 141.5v56h-103v80h205v-401h-71l-11 93c-24.667 -68.667 -72.667 -103 -144 -103z" />
    <glyph glyph-name="gdotaccent" unicode="&#x121;" horiz-adv-x="435" 
d="M179 649v119h108v-119h-108zM207 252c28 0 46.5 10 55.5 30s13.5 52.667 13.5 98c0 18 -0.5 33 -1.5 45s-2.83301 24 -5.5 36s-6.5 21.333 -11.5 28s-11.5 12.167 -19.5 16.5s-18 6.5 -30 6.5c-28 0 -46.833 -10.5 -56.5 -31.5s-14.5 -54.5 -14.5 -100.5
c0 -16 0.5 -29.833 1.5 -41.5s3 -23.167 6 -34.5s7 -20.5 12 -27.5s11.667 -12.833 20 -17.5s18.5 -7 30.5 -7zM232 -95c30.667 0 53.5 4.66699 68.5 14s22.5 23.666 22.5 42.999c0 18 -5.5 31.667 -16.5 41s-31.833 15.333 -62.5 18l-91 8
c-9.33301 -8 -18.833 -18.667 -28.5 -32s-14.5 -27.666 -14.5 -42.999c0 -12 2.83301 -21.167 8.5 -27.5s17.5 -11.5 35.5 -15.5s44 -6 78 -6zM234 -179c-20.667 0 -38.835 0.337891 -54.502 1.00488s-32.334 2 -50.001 4s-32.667 5 -45 9s-23.666 9.33301 -33.999 16
s-18 15 -23 25s-7.5 21.667 -7.5 35c0 30 7.83301 55.833 23.5 77.5s35.5 39.167 59.5 52.5c-18 5.33301 -31.833 13.666 -41.5 24.999s-14.5 23.666 -14.5 36.999c0 20 5 37.5 15 52.5s26.333 32.5 49 52.5c-22.667 17.333 -39.5 39.166 -50.5 65.499
s-16.5 61.833 -16.5 106.5c0 67.333 13.667 118.5 41 153.5s68 52.5 122 52.5c58.667 0 98.334 -21.333 119.001 -64c4.66699 6.66699 14.5 16.334 29.5 29.001s31.167 23 48.5 31l16 7l27 -69c-13.333 -2.66699 -31.833 -8.33398 -55.5 -17.001
s-37.834 -15.334 -42.501 -20.001c4.66699 -12 8.83398 -28.5 12.501 -49.5s5.5 -39.833 5.5 -56.5c0 -30.667 -2.66699 -57.834 -8 -81.501s-14.166 -44.5 -26.499 -62.5s-29 -31.833 -50 -41.5s-46.167 -14.5 -75.5 -14.5c-5.33301 0 -15.333 1 -30 3s-23 3.33301 -25 4
c0 -0.666992 -1.33301 -3.16699 -4 -7.5s-4.5 -7.33301 -5.5 -9s-2.5 -4.5 -4.5 -8.5s-3.33301 -7.5 -4 -10.5s-1 -5.83301 -1 -8.5c0 -7.33301 3.83301 -13 11.5 -17s19.834 -7 36.501 -9c1.33301 0 16.5 -1.33301 45.5 -4s43.833 -4 44.5 -4
c89.333 -8.66699 134 -55.667 134 -141c0 -52 -13.833 -89 -41.5 -111s-70.834 -33 -129.501 -33z" />
    <glyph glyph-name="Gcommaaccent" unicode="&#x122;" horiz-adv-x="535" 
d="M238 -294l-27 53c20 1.33301 34.333 7 43 17s13 25 13 45h-55v109h109l-1 -103c0 -40 -5.66699 -69.833 -17 -89.5s-33 -30.167 -65 -31.5zM256 -10c-73.333 0 -126.333 23.1689 -159 69.502s-49 115.166 -49 206.499v271c0 37.333 2.16699 69.833 6.5 97.5
s11.333 53.5 21 77.5s22.667 43.333 39 58s37 26.167 62 34.5s54.5 12.5 88.5 12.5c74.667 0 128.5 -19 161.5 -57s49.5 -97.667 49.5 -179v-30h-106v25c0 22.667 -0.666992 41.5 -2 56.5s-4 29.167 -8 42.5s-9.83301 23.666 -17.5 30.999s-17.667 13 -30 17
s-27.5 6 -45.5 6c-14 0 -26.5 -1.5 -37.5 -4.5s-20.167 -7 -27.5 -12s-13.5 -12 -18.5 -21s-9 -17.833 -12 -26.5s-5.33301 -19.667 -7 -33s-2.66699 -25.5 -3 -36.5s-0.5 -24.833 -0.5 -41.5v-300c0 -62 7.5 -106.5 22.5 -133.5s43.667 -40.5 86 -40.5s71.333 14.5 87 43.5
s23.5 76.167 23.5 141.5v56h-103v80h205v-401h-71l-11 93c-24.667 -68.667 -72.667 -103 -144 -103z" />
    <glyph glyph-name="gcommaaccent" unicode="&#x123;" 
d="M227 244c14.667 0 27.498 2.99902 38.498 8.99902s19.5 13.667 25.5 23s10.833 20.833 14.5 34.5s5.83398 26.334 6.50098 38.001s1 24.834 1 39.501c0 93.333 -29.333 140 -88 140c-14 0 -26.5 -3.33301 -37.5 -10s-19.5 -14.834 -25.5 -24.501
s-10.833 -21.167 -14.5 -34.5s-6.16699 -25.5 -7.5 -36.5s-2 -22.5 -2 -34.5c0.666992 -96 30.334 -144 89.001 -144zM224.998 -127.001c37.333 0 67.167 5.33203 89.5 15.999s33.833 27 34.5 49c1.33301 21.333 -5.16699 37.833 -19.5 49.5s-42.833 22.167 -85.5 31.5
l-67 12c-9.33301 -6.66699 -17 -12.667 -23 -18s-13.333 -12.333 -22 -21s-15.167 -17.667 -19.5 -27s-6.5 -18.666 -6.5 -27.999c0 -21.333 10.5 -37.333 31.5 -48s50.167 -16 87.5 -16zM210.999 728.998l0.00195312 88c0 40 7.16699 71.167 21.5 93.5
s37.166 37.833 68.499 46.5l8 -29c-16.667 -10 -29.834 -23 -39.501 -39s-14.5 -33.333 -14.5 -52h57v-108h-101zM225.001 -189.002c-28 0 -54.165 1.99707 -78.498 5.99707s-46.666 10.167 -66.999 18.5s-36.333 20 -48 35s-17.5 32.5 -17.5 52.5
c0 22.667 9.66699 44.834 29 66.501s42.333 40.834 69 57.501c-49.333 15.333 -75 32 -77 50c-4 32 20.667 74.333 74 127c-47.333 32.667 -71 85.667 -71 159c0 28 4 54.333 12 79s19.5 46.5 34.5 65.5s34.5 33.833 58.5 44.5s51 16 81 16s56.167 -6.16699 78.5 -18.5
s40.5 -28.166 54.5 -47.499c22 32.667 48.333 55.667 79 69l17 8l25 -52c-14 -4 -29.5 -11.333 -46.5 -22s-32.833 -23 -47.5 -37c6.66699 -12.667 12.5 -28.5 17.5 -47.5s7.5 -37.833 7.5 -56.5c0 -61.333 -15 -110 -45 -146s-74.333 -54 -133 -54
c-30.667 0 -58.334 5 -83.001 15c-0.666992 -1.33301 -3.16699 -5 -7.5 -11s-7.33301 -10.167 -9 -12.5s-4.33398 -6.33301 -8.00098 -12s-6.33398 -10 -8.00098 -13s-3.66699 -6.83301 -6 -11.5s-3.83301 -8.66699 -4.5 -12s-1 -6.33301 -1 -9
c0.666992 -5.33301 17.667 -11.333 51 -18c16 -4 54.667 -11.667 116 -23c56 -11.333 96.5 -27 121.5 -47s37.5 -47.667 37.5 -83c0 -42 -18.167 -75.167 -54.5 -99.5s-86.5 -36.5 -150.5 -36.5z" />
    <glyph glyph-name="Hcircumflex" unicode="&#x124;" horiz-adv-x="560" 
d="M139 877l86 175h109l86 -175h-80l-61 121l-60 -121h-80zM63 0v810h113v-350h208v350h113v-810h-113v379h-208v-379h-113z" />
    <glyph glyph-name="hcircumflex" unicode="&#x125;" horiz-adv-x="445" 
d="M85 869l86 175h109l86 -175h-80l-61 121l-60 -121h-80zM57 0l0.000976562 810h107v-292c47.333 45.333 95.666 68 144.999 68c16 0 29.833 -3.5 41.5 -10.5s20.667 -16.333 27 -28s10.833 -24 13.5 -37s4 -27.167 4 -42.5v-468h-107v437c0 22 -3.16699 38.333 -9.5 49
s-18.5 16 -36.5 16c-22 0 -48 -12.667 -78 -38v-464h-107z" />
    <glyph glyph-name="Hbar" unicode="&#x126;" horiz-adv-x="560" 
d="M176 460h208v159h-208v-159zM63 0v619h-47v58h47v133h113v-133h208v133h113v-133h47v-58h-47v-619h-113v379h-208v-379h-113z" />
    <glyph glyph-name="hbar" unicode="&#x127;" horiz-adv-x="445" 
d="M57 0v690h-63v60h63v60h107v-60h122v-60h-122v-172c46.667 45.333 94.667 68 144 68c16 0 30 -3.5 42 -10.5s21.167 -16.333 27.5 -28s10.833 -24 13.5 -37s4 -27.167 4 -42.5v-468h-107v437c0 22 -3.33301 38.333 -10 49s-18.667 16 -36 16c-22 0 -48 -12.667 -78 -38
v-464h-107z" />
    <glyph glyph-name="Itilde" unicode="&#x128;" horiz-adv-x="247" 
d="M191 877c-16.667 0 -40.167 8.16797 -70.5 24.501s-50.166 24.5 -59.499 24.5c-8.66699 0.666992 -15 -2.33301 -19 -9s-6 -17.334 -6 -32.001h-61c0 73.333 28.667 109.333 86 108c17.333 0 41.666 -8 72.999 -24s50.333 -24 57 -24c8.66699 0 14.667 3 18 9s5 17 5 33
h60c0 -34 -6.16699 -60.833 -18.5 -80.5s-33.833 -29.5 -64.5 -29.5zM69 0.000976562v810h111v-810h-111z" />
    <glyph glyph-name="itilde" unicode="&#x129;" horiz-adv-x="224" 
d="M181 646c-16.667 0 -40.167 8.16797 -70.5 24.501s-50.166 24.5 -59.499 24.5c-8.66699 0.666992 -15 -2.33301 -19 -9s-6 -17.334 -6 -32.001h-61c0 73.333 28.667 109.333 86 108c17.333 0 41.666 -8 72.999 -24s50.333 -24 57 -24c8.66699 0 14.667 3 18 9s5 17 5 33
h60c0 -34 -6.16699 -60.833 -18.5 -80.5s-33.833 -29.5 -64.5 -29.5zM61 0.000976562v578h107v-578h-107z" />
    <glyph glyph-name="Imacron" unicode="&#x12a;" horiz-adv-x="247" 
d="M28 877v65h192v-65h-192zM69 0v810h111v-810h-111z" />
    <glyph glyph-name="imacron" unicode="&#x12b;" horiz-adv-x="224" 
d="M18 645v65h192v-65h-192zM61 0v578h107v-578h-107z" />
    <glyph glyph-name="Ibreve" unicode="&#x12c;" horiz-adv-x="247" 
d="M124 877c-92.667 0 -139.335 49.667 -140.002 149h63c0 -30.667 6.5 -53 19.5 -67s32.333 -21 58 -21s44.834 7 57.501 21s19.334 36.333 20.001 67h63c0 -99.333 -47 -149 -141 -149zM68.999 0v810h111v-810h-111z" />
    <glyph glyph-name="ibreve" unicode="&#x12d;" horiz-adv-x="224" 
d="M114 645c-92.667 0 -139.335 49.667 -140.002 149h63c0 -30.667 6.5 -53 19.5 -67s32.333 -21 58 -21s44.834 7 57.501 21s19.334 36.333 20.001 67h63c0 -99.333 -47 -149 -141 -149zM60.999 0v578h107v-578h-107z" />
    <glyph glyph-name="Iogonek" unicode="&#x12e;" horiz-adv-x="247" 
d="M136 -228c-19.333 0 -35.498 0.329102 -48.498 0.996094s-26.833 2 -41.5 4s-26.5 5 -35.5 9s-17.5 9 -25.5 15s-13.833 13.833 -17.5 23.5s-5.5 20.834 -5.5 33.501c0 30.667 11.667 60.5 35 89.5s48.666 47.5 75.999 55.5h54c-2 -2 -7.33301 -8.16699 -16 -18.5
s-15 -18.166 -19 -23.499s-9.83301 -13.166 -17.5 -23.499s-13.334 -19.166 -17.001 -26.499s-7 -15.5 -10 -24.5s-4.5 -17.5 -4.5 -25.5c0 -6 1.33301 -11.333 4 -16s6.5 -8.16699 11.5 -10.5s10.167 -4.33301 15.5 -6s12 -2.5 20 -2.5h21c6 0 13.167 0.166992 21.5 0.5
s14.5 0.5 18.5 0.5zM69.002 -0.00390625v810h111v-810h-111z" />
    <glyph glyph-name="iogonek" unicode="&#x12f;" horiz-adv-x="228" 
d="M124 -228c-19.333 0 -35.498 0.329102 -48.498 0.996094s-26.833 2 -41.5 4s-26.5 5 -35.5 9s-17.5 9 -25.5 15s-13.833 13.833 -17.5 23.5s-5.5 20.834 -5.5 33.501c0 30.667 11.667 60.5 35 89.5s48.666 47.5 75.999 55.5h54c-2 -2 -7.33301 -8.16699 -16 -18.5
s-15 -18.166 -19 -23.499s-9.83301 -13.166 -17.5 -23.499s-13.334 -19.166 -17.001 -26.499s-7 -15.5 -10 -24.5s-4.5 -17.5 -4.5 -25.5c0 -6 1.33301 -11.333 4 -16s6.5 -8.16699 11.5 -10.5s10.167 -4.33301 15.5 -6s12 -2.5 20 -2.5h21c6 0 13.167 0.166992 21.5 0.5
s14.5 0.5 18.5 0.5zM61.002 663.996v112h107v-112h-107zM61.002 -0.00390625v578h107v-578h-107z" />
    <glyph glyph-name="Idotaccent" unicode="&#x130;" horiz-adv-x="247" 
d="M70 877v119h108v-119h-108zM69 0v810h111v-810h-111z" />
    <glyph glyph-name="dotlessi" unicode="&#x131;" horiz-adv-x="224" 
d="M61 0v578h107v-578h-107z" />
    <glyph glyph-name="ij" unicode="&#x133;" horiz-adv-x="458" 
d="M298 664v112h108v-112h-108zM210 -139v77c8.66699 -2 18 -3 28 -3c40 0 60 23.333 60 70v573h107v-584c0 -44.667 -12.333 -79.167 -37 -103.5s-59 -36.5 -103 -36.5c-24.667 0 -43 2.33301 -55 7zM61 664v112h107v-112h-107zM61 0v578h107v-578h-107z" />
    <glyph glyph-name="Jcircumflex" unicode="&#x134;" horiz-adv-x="301" 
d="M36 916l86 175h109l86 -175h-80l-61 121l-60 -121h-80zM7 -19v80.999c26 0 46 1.5 60 4.5s25.667 9.33301 35 19s15.5 22 18.5 37s4.5 35.833 4.5 62.5v625h112v-627c0 -36 -2.66699 -66.167 -8 -90.5s-14.5 -45.166 -27.5 -62.499s-31 -29.833 -54 -37.5
s-51.833 -11.5 -86.5 -11.5h-54z" />
    <glyph glyph-name="jcircumflex" unicode="&#x135;" horiz-adv-x="229" 
d="M-24 672l86 175h109l86 -175h-80l-61 121l-60 -121h-80zM-19 -152v77c8.66699 -2 18 -3 28 -3c40 0 60 23.333 60 70v586h107v-598c0 -44.667 -12.333 -79 -37 -103s-59 -36 -103 -36c-24.667 0 -43 2.33301 -55 7z" />
    <glyph glyph-name="Kcommaaccent" unicode="&#x136;" horiz-adv-x="495" 
d="M250 -284l-27 53c20 1.33301 34.333 7 43 17s13 25 13 45h-55v109h109l-1 -103c0 -40 -5.66699 -69.833 -17 -89.5s-33 -30.167 -65 -31.5zM63 0v810h113v-382l186 382h105l-160 -357l186 -453h-110l-163 401l-44 -82v-319h-113z" />
    <glyph glyph-name="kcommaaccent" unicode="&#x137;" horiz-adv-x="428" 
d="M216 -284l-27 53c20 1.33301 34.333 7 43 17s13 25 13 45h-55v109h109l-1 -103c0 -40 -5.66699 -69.833 -17 -89.5s-33 -30.167 -65 -31.5zM56 1v810h107v-483l156 250h112l-136 -226l132 -352h-107l-108 296l-49 -74v-221h-107z" />
    <glyph glyph-name="kgreenlandic" unicode="&#x138;" horiz-adv-x="430" 
d="M59 0v578h107v-254l152 254h108l-132 -221l132 -357h-107l-97 284l-56 -84v-200h-107z" />
    <glyph glyph-name="Lacute" unicode="&#x139;" horiz-adv-x="396" 
d="M197 877l59 198h107l-112 -198h-54zM63 0v810h113v-729h207v-81h-320z" />
    <glyph glyph-name="lacute" unicode="&#x13a;" horiz-adv-x="229" 
d="M91 869l59 198h107l-112 -198h-54zM64 0v810h107v-810h-107z" />
    <glyph glyph-name="Lcommaaccent" unicode="&#x13b;" horiz-adv-x="396" 
d="M196 -284l-27 53c20 1.33301 34.333 7 43 17s13 25 13 45h-55v109h109l-1 -103c0 -40 -5.66699 -69.833 -17 -89.5s-33 -30.167 -65 -31.5zM63 0v810h113v-729h207v-81h-320z" />
    <glyph glyph-name="lcommaaccent" unicode="&#x13c;" horiz-adv-x="229" 
d="M90 -284l-27 53c20 1.33301 34.333 7 43 17s13 25 13 45h-55v109h109l-1 -103c0 -40 -5.66699 -69.833 -17 -89.5s-33 -30.167 -65 -31.5zM64 0v810h107v-810h-107z" />
    <glyph glyph-name="Lcaron" unicode="&#x13d;" horiz-adv-x="396" 
d="M285 570v248h97l-39 -248h-58zM63 0v810h113v-729h207v-81h-320z" />
    <glyph glyph-name="lcaron" unicode="&#x13e;" horiz-adv-x="282" 
d="M251 562v248h97l-39 -248h-58zM64 0v810h107v-810h-107z" />
    <glyph glyph-name="Ldot" unicode="&#x13f;" horiz-adv-x="396" 
d="M247 354v110h108v-110h-108zM63 0v810h113v-729h207v-81h-320z" />
    <glyph glyph-name="ldot" unicode="&#x140;" horiz-adv-x="404" 
d="M265 322v110h108v-110h-108zM64 0v810h107v-810h-107z" />
    <glyph glyph-name="Lslash" unicode="&#x141;" horiz-adv-x="396" 
d="M63 0v377l-69 -38v87l69 38v346h113v-283l105 57v-86l-105 -58v-359h207v-81h-320z" />
    <glyph glyph-name="lslash" unicode="&#x142;" horiz-adv-x="267" 
d="M85 0v416l-68 -33v84l68 32v311h107v-262l61 30v-83l-61 -30v-465h-107z" />
    <glyph glyph-name="Nacute" unicode="&#x143;" horiz-adv-x="527" 
d="M237 877l59 198h107l-112 -198h-54zM63 0v810h77l230 -538v538h94v-810h-72l-233 553v-553h-96z" />
    <glyph glyph-name="nacute" unicode="&#x144;" 
d="M195 646l59 198h107l-112 -198h-54zM54 0v578h107v-57c45.333 43.333 92.333 65 141 65c16 0 30 -3.5 42 -10.5s21.167 -16.333 27.5 -28s10.833 -24 13.5 -37s4 -27.167 4 -42.5v-468h-107v437c0 22 -3.33301 38.333 -10 49s-18.667 16 -36 16
c-21.333 0 -46.333 -12 -75 -36v-466h-107z" />
    <glyph glyph-name="Ncommaaccent" unicode="&#x145;" horiz-adv-x="527" 
d="M236 -284l-27 53c20 1.33301 34.333 7 43 17s13 25 13 45h-55v109h109l-1 -103c0 -40 -5.66699 -69.833 -17 -89.5s-33 -30.167 -65 -31.5zM63 0v810h77l230 -538v538h94v-810h-72l-233 553v-553h-96z" />
    <glyph glyph-name="ncommaaccent" unicode="&#x146;" 
d="M194 -284l-27 53c20 1.33301 34.333 7 43 17s13 25 13 45h-55v109h109l-1 -103c0 -40 -5.66699 -69.833 -17 -89.5s-33 -30.167 -65 -31.5zM54 0v578h107v-57c45.333 43.333 92.333 65 141 65c16 0 30 -3.5 42 -10.5s21.167 -16.333 27.5 -28s10.833 -24 13.5 -37
s4 -27.167 4 -42.5v-468h-107v437c0 22 -3.33301 38.333 -10 49s-18.667 16 -36 16c-21.333 0 -46.333 -12 -75 -36v-466h-107z" />
    <glyph glyph-name="Ncaron" unicode="&#x147;" horiz-adv-x="527" 
d="M212 877l-87 173h81l59 -117l57 117h82l-87 -173h-105zM63 0v810h77l230 -538v538h94v-810h-72l-233 553v-553h-96z" />
    <glyph glyph-name="ncaron" unicode="&#x148;" 
d="M169 645l-87 173h81l59 -117l57 117h82l-87 -173h-105zM54 0v578h107v-57c45.333 43.333 92.333 65 141 65c16 0 30 -3.5 42 -10.5s21.167 -16.333 27.5 -28s10.833 -24 13.5 -37s4 -27.167 4 -42.5v-468h-107v437c0 22 -3.33301 38.333 -10 49s-18.667 16 -36 16
c-21.333 0 -46.333 -12 -75 -36v-466h-107z" />
    <glyph glyph-name="napostrophe" unicode="&#x149;" 
d="M54 0v578h107v-57c45.333 43.333 92.333 65 141 65c16 0 30 -3.5 42 -10.5s21.167 -16.333 27.5 -28s10.833 -24 13.5 -37s4 -27.167 4 -42.5v-468h-107v437c0 22 -3.33301 38.333 -10 49s-18.667 16 -36 16c-21.333 0 -46.333 -12 -75 -36v-466h-107zM54 674v248h97
l-39 -248h-58z" />
    <glyph glyph-name="Eng" unicode="&#x14a;" horiz-adv-x="527" 
d="M267 -183l-0.000976562 77.001c16.667 0 30.834 0.666992 42.501 2s21.667 4.16602 30 8.49902s14.833 9 19.5 14s8.16699 12.5 10.5 22.5s3.83301 19.833 4.5 29.5s1 22.5 1 38.5v33l-222 511v-553h-90v810h77l236 -538v538h88v-810
c0 -31.333 -2.16699 -57.833 -6.5 -79.5s-12.333 -40.5 -24 -56.5s-28 -27.833 -49 -35.5s-47.5 -11.5 -79.5 -11.5h-38z" />
    <glyph glyph-name="eng" unicode="&#x14b;" horiz-adv-x="387" 
d="M154 -184l0.000976562 81.001c32.667 0 57.667 3.66699 75 11s28.833 17.666 34.5 30.999s8.5 32 8.5 56v442c0 22 -3.33301 38.333 -10 49s-18.667 16 -36 16c-21.333 0 -46.333 -12 -75 -36v-466h-107v578h107v-57c45.333 43.333 92.666 65 141.999 65
c16 0 30 -3.5 42 -10.5s21 -16.333 27 -28s10.333 -24 13 -37s4 -27.167 4 -42.5v-474c0 -57.333 -17.5 -101.333 -52.5 -132s-81.833 -46 -140.5 -46h-32z" />
    <glyph glyph-name="Omacron" unicode="&#x14c;" horiz-adv-x="539" 
d="M173 877v65h192v-65h-192zM270 -9c-40.667 0 -75.332 6 -103.999 18s-51.5 29.833 -68.5 53.5s-29.5 51 -37.5 82s-12 67.5 -12 109.5v307c0 84 17.167 147.667 51.5 191s91.166 65 170.499 65c78.667 0 135.167 -21.833 169.5 -65.5s51.5 -107.167 51.5 -190.5v-308
c0 -84 -17.333 -148.667 -52 -194s-91 -68 -169 -68zM269.502 80c22.333 0 40.666 3.33301 54.999 10s25.333 17 33 31s12.834 29.333 15.501 46s4 37.334 4 62.001v355c0 24.667 -1.33301 45 -4 61s-7.83398 30.833 -15.501 44.5s-18.667 23.667 -33 30
s-32.666 9.5 -54.999 9.5s-40.666 -3.16699 -54.999 -9.5s-25.333 -16.333 -33 -30s-12.834 -28.5 -15.501 -44.5s-4 -36.333 -4 -61v-355c0 -24.667 1.33301 -45.334 4 -62.001s7.83398 -32 15.501 -46s18.667 -24.333 33 -31s32.666 -10 54.999 -10z" />
    <glyph glyph-name="omacron" unicode="&#x14d;" horiz-adv-x="423" 
d="M116 645v65h192v-65h-192zM212 -8c-31.333 0 -58 4.83105 -80 14.498s-39.333 24.167 -52 43.5s-22 41.5 -28 66.5s-9 54.5 -9 88.5v168c0 34 3 63.5 9 88.5s15.333 47.167 28 66.5s30 33.833 52 43.5s48.667 14.5 80 14.5c60.667 0 103.834 -18.167 129.501 -54.5
s38.5 -89.166 38.5 -158.499v-168c0 -69.333 -12.833 -122.166 -38.5 -158.499s-68.834 -54.5 -129.501 -54.5zM212 70.998c10 0 18.665 1.50195 25.998 4.50195s13 7.83301 17 14.5s7.33301 13.167 10 19.5s4.5 15.5 5.5 27.5s1.66699 21.667 2 29s0.5 18 0.5 32v181
c0 12.667 -0.166992 22.167 -0.5 28.5s-0.666016 14.833 -0.999023 25.5s-1.33301 18.834 -3 24.501s-4 12.167 -7 19.5s-6.66699 12.833 -11 16.5s-9.66602 6.83398 -15.999 9.50098s-13.833 4 -22.5 4s-16.334 -1.33301 -23.001 -4s-12 -5.83398 -16 -9.50098
s-7.66699 -9.16699 -11 -16.5s-5.66602 -13.833 -6.99902 -19.5s-2.33301 -13.834 -3 -24.501s-1.16699 -19.167 -1.5 -25.5s-0.5 -15.833 -0.5 -28.5v-181c0 -12.667 0.166992 -22 0.5 -28s0.833008 -14.333 1.5 -25s1.66699 -18.834 3 -24.501
s3.66602 -12.167 6.99902 -19.5s7 -12.833 11 -16.5s9.33301 -6.83398 16 -9.50098s14.334 -4 23.001 -4z" />
    <glyph glyph-name="Obreve" unicode="&#x14e;" horiz-adv-x="539" 
d="M269 877c-92.667 0 -139.335 49.667 -140.002 149h63c0 -30.667 6.5 -53 19.5 -67s32.333 -21 58 -21s44.834 7 57.501 21s19.334 36.333 20.001 67h63c0 -99.333 -47 -149 -141 -149zM269.999 -9c-40.667 0 -75.332 6 -103.999 18s-51.5 29.833 -68.5 53.5
s-29.5 51 -37.5 82s-12 67.5 -12 109.5v307c0 84 17.167 147.667 51.5 191s91.166 65 170.499 65c78.667 0 135.167 -21.833 169.5 -65.5s51.5 -107.167 51.5 -190.5v-308c0 -84 -17.333 -148.667 -52 -194s-91 -68 -169 -68zM269.501 80c22.333 0 40.666 3.33301 54.999 10
s25.333 17 33 31s12.834 29.333 15.501 46s4 37.334 4 62.001v355c0 24.667 -1.33301 45 -4 61s-7.83398 30.833 -15.501 44.5s-18.667 23.667 -33 30s-32.666 9.5 -54.999 9.5s-40.666 -3.16699 -54.999 -9.5s-25.333 -16.333 -33 -30s-12.834 -28.5 -15.501 -44.5
s-4 -36.333 -4 -61v-355c0 -24.667 1.33301 -45.334 4 -62.001s7.83398 -32 15.501 -46s18.667 -24.333 33 -31s32.666 -10 54.999 -10z" />
    <glyph glyph-name="obreve" unicode="&#x14f;" horiz-adv-x="423" 
d="M211 645c-92.667 0 -139.335 49.667 -140.002 149h63c0 -30.667 6.5 -53 19.5 -67s32.333 -21 58 -21s44.834 7 57.501 21s19.334 36.333 20.001 67h63c0 -99.333 -47 -149 -141 -149zM211.999 -8c-31.333 0 -58 4.83105 -80 14.498s-39.333 24.167 -52 43.5
s-22 41.5 -28 66.5s-9 54.5 -9 88.5v168c0 34 3 63.5 9 88.5s15.333 47.167 28 66.5s30 33.833 52 43.5s48.667 14.5 80 14.5c60.667 0 103.834 -18.167 129.501 -54.5s38.5 -89.166 38.5 -158.499v-168c0 -69.333 -12.833 -122.166 -38.5 -158.499
s-68.834 -54.5 -129.501 -54.5zM211.999 70.998c10 0 18.665 1.50195 25.998 4.50195s13 7.83301 17 14.5s7.33301 13.167 10 19.5s4.5 15.5 5.5 27.5s1.66699 21.667 2 29s0.5 18 0.5 32v181c0 12.667 -0.166992 22.167 -0.5 28.5s-0.666016 14.833 -0.999023 25.5
s-1.33301 18.834 -3 24.501s-4 12.167 -7 19.5s-6.66699 12.833 -11 16.5s-9.66602 6.83398 -15.999 9.50098s-13.833 4 -22.5 4s-16.334 -1.33301 -23.001 -4s-12 -5.83398 -16 -9.50098s-7.66699 -9.16699 -11 -16.5s-5.66602 -13.833 -6.99902 -19.5
s-2.33301 -13.834 -3 -24.501s-1.16699 -19.167 -1.5 -25.5s-0.5 -15.833 -0.5 -28.5v-181c0 -12.667 0.166992 -22 0.5 -28s0.833008 -14.333 1.5 -25s1.66699 -18.834 3 -24.501s3.66602 -12.167 6.99902 -19.5s7 -12.833 11 -16.5s9.33301 -6.83398 16 -9.50098
s14.334 -4 23.001 -4z" />
    <glyph glyph-name="Ohungarumlaut" unicode="&#x150;" horiz-adv-x="539" 
d="M305 877l58 171h108l-111 -171h-55zM179 877l39 171h88l-73 -171h-54zM270 -9c-40.667 0 -75.332 6 -103.999 18s-51.5 29.833 -68.5 53.5s-29.5 51 -37.5 82s-12 67.5 -12 109.5v307c0 84 17.167 147.667 51.5 191s91.166 65 170.499 65
c78.667 0 135.167 -21.833 169.5 -65.5s51.5 -107.167 51.5 -190.5v-308c0 -84 -17.333 -148.667 -52 -194s-91 -68 -169 -68zM269.502 80c22.333 0 40.666 3.33301 54.999 10s25.333 17 33 31s12.834 29.333 15.501 46s4 37.334 4 62.001v355c0 24.667 -1.33301 45 -4 61
s-7.83398 30.833 -15.501 44.5s-18.667 23.667 -33 30s-32.666 9.5 -54.999 9.5s-40.666 -3.16699 -54.999 -9.5s-25.333 -16.333 -33 -30s-12.834 -28.5 -15.501 -44.5s-4 -36.333 -4 -61v-355c0 -24.667 1.33301 -45.334 4 -62.001s7.83398 -32 15.501 -46
s18.667 -24.333 33 -31s32.666 -10 54.999 -10z" />
    <glyph glyph-name="ohungarumlaut" unicode="&#x151;" horiz-adv-x="423" 
d="M247 645l58 171h108l-111 -171h-55zM121 645l39 171h88l-73 -171h-54zM212 -8c-31.333 0 -58 4.83105 -80 14.498s-39.333 24.167 -52 43.5s-22 41.5 -28 66.5s-9 54.5 -9 88.5v168c0 34 3 63.5 9 88.5s15.333 47.167 28 66.5s30 33.833 52 43.5s48.667 14.5 80 14.5
c60.667 0 103.834 -18.167 129.501 -54.5s38.5 -89.166 38.5 -158.499v-168c0 -69.333 -12.833 -122.166 -38.5 -158.499s-68.834 -54.5 -129.501 -54.5zM212 70.998c10 0 18.665 1.50195 25.998 4.50195s13 7.83301 17 14.5s7.33301 13.167 10 19.5s4.5 15.5 5.5 27.5
s1.66699 21.667 2 29s0.5 18 0.5 32v181c0 12.667 -0.166992 22.167 -0.5 28.5s-0.666016 14.833 -0.999023 25.5s-1.33301 18.834 -3 24.501s-4 12.167 -7 19.5s-6.66699 12.833 -11 16.5s-9.66602 6.83398 -15.999 9.50098s-13.833 4 -22.5 4s-16.334 -1.33301 -23.001 -4
s-12 -5.83398 -16 -9.50098s-7.66699 -9.16699 -11 -16.5s-5.66602 -13.833 -6.99902 -19.5s-2.33301 -13.834 -3 -24.501s-1.16699 -19.167 -1.5 -25.5s-0.5 -15.833 -0.5 -28.5v-181c0 -12.667 0.166992 -22 0.5 -28s0.833008 -14.333 1.5 -25s1.66699 -18.834 3 -24.501
s3.66602 -12.167 6.99902 -19.5s7 -12.833 11 -16.5s9.33301 -6.83398 16 -9.50098s14.334 -4 23.001 -4z" />
    <glyph glyph-name="OE" unicode="&#x152;" horiz-adv-x="683" 
d="M290 84l53.9961 0.00390625v645h-56c-12 0 -23.167 -0.666992 -33.5 -2s-19.333 -3.66602 -27 -6.99902s-14.667 -6.66602 -21 -9.99902s-11.666 -8.33301 -15.999 -15s-8.16602 -12.834 -11.499 -18.501s-6 -13.334 -8 -23.001s-3.66699 -18.334 -5 -26.001
s-2.16602 -18 -2.49902 -31s-0.666016 -24.167 -0.999023 -33.5s-0.5 -22 -0.5 -38v-266c0 -22.667 0.5 -41.334 1.5 -56.001s3 -29.334 6 -44.001s7.33301 -26.167 13 -34.5s13.167 -15.833 22.5 -22.5s21 -11.334 35 -14.001s30.667 -4 50 -4zM287.996 0.00390625
c-44.667 0 -82.501 4.99805 -113.501 14.998s-55.667 25.667 -74 47s-31.666 46.833 -39.999 76.5s-12.5 65.834 -12.5 108.501v299c0 88.667 18 154.834 54 198.501s95.333 65.5 178 65.5h374v-84h-197v-267h160v-81h-160v-297h199v-81h-368z" />
    <glyph glyph-name="oe" unicode="&#x153;" horiz-adv-x="684" 
d="M396 345l124.999 -0.000976562v18v33c0 8.66699 -0.666992 18.834 -2 30.501s-3.5 21.334 -6.5 29.001s-6.66699 15 -11 22s-10 12.333 -17 16s-15.5 5.5 -25.5 5.5c-10.667 0 -20 -2.66699 -28 -8s-14.167 -12 -18.5 -20s-7.66602 -18.333 -9.99902 -31
s-4 -24.834 -5 -36.501s-1.5 -25.167 -1.5 -40.5v-18zM225.999 79.999c8.66699 0 16.332 1.16602 22.999 3.49902s12.167 5.33301 16.5 9s8 8.83398 11 15.501s5.33301 13 7 19s3 14 4 24s1.5 18.333 1.5 25v27v172c0 14 -0.166992 24.667 -0.5 32s-1 16.666 -2 27.999
s-3 20.166 -6 26.499s-6.66699 12.666 -11 18.999s-10.166 11 -17.499 14s-16 4.5 -26 4.5s-18.667 -1.33301 -26 -4s-13.166 -7.33398 -17.499 -14.001s-7.83301 -13.167 -10.5 -19.5s-4.5 -15.166 -5.5 -26.499s-1.66699 -20.833 -2 -28.5s-0.5 -18.167 -0.5 -31.5v-172
c0 -14 0.166992 -24.667 0.5 -32s1 -16.666 2 -27.999s2.83301 -20.166 5.5 -26.499s6.16699 -12.666 10.5 -18.999s10.166 -10.833 17.499 -13.5s16 -4 26 -4zM225.997 -8.00195c-61.333 0 -104.829 18.0039 -130.496 54.0039s-38.5 88.333 -38.5 157v172
c0 69.333 12.833 121.833 38.5 157.5s69.167 53.5 130.5 53.5c56 0 95 -22.667 117 -68c10 22 25.333 38.833 46 50.5s45.334 17.5 74.001 17.5c27.333 0 50.666 -3.66699 69.999 -11s35.166 -17.333 47.499 -30s22.166 -29.667 29.499 -51s12.166 -44 14.499 -68
s3.5 -52.667 3.5 -86v-49h-232v-36v-9v-29c0 -6.66699 0.333008 -16 1 -28s1.5 -21.333 2.5 -28s2.5 -14.834 4.5 -24.501s4.66699 -17.334 8 -23.001s7 -11.334 11 -17.001s9.16699 -9.83398 15.5 -12.501s13.166 -4 20.499 -4c22.667 -1.33301 38.667 4.16699 48 16.5
s14 34.166 14 65.499v39h107v-38c0 -59.333 -13.667 -103.166 -41 -131.499s-70 -41.5 -128 -39.5c-57.333 2 -96 25.333 -116 70c-20.667 -46.667 -59.667 -70 -117 -70z" />
    <glyph glyph-name="Racute" unicode="&#x154;" horiz-adv-x="519" 
d="M245 877l59 198h107l-112 -198h-54zM176 461h43c49.333 0 84.333 9.66699 105 29s31 54.333 31 105c0 49.333 -9 84 -27 104s-52 30 -102 30h-50v-268zM63 0v810h163c82 0 142.167 -16.833 180.5 -50.5s57.5 -88.5 57.5 -164.5c0 -104 -33.333 -167 -100 -189l115 -406
h-109l-106 380h-88v-380h-113z" />
    <glyph glyph-name="racute" unicode="&#x155;" horiz-adv-x="321" 
d="M156 646l59 198h107l-112 -198h-54zM57 0l-0.000976562 578h107v-82c20 33.333 40.333 56.5 61 69.5s43 19.5 67 19.5c6.66699 0 12.334 -0.333008 17.001 -1v-118c-20 7.33301 -39.667 11.333 -59 12c-18 0 -33.667 -4 -47 -12s-26.333 -22.667 -39 -44v-422h-107z" />
    <glyph glyph-name="Rcommaaccent" unicode="&#x156;" horiz-adv-x="519" 
d="M243 -284l-27 53c20 1.33301 34.333 7 43 17s13 25 13 45h-55v109h109l-1 -103c0 -40 -5.66699 -69.833 -17 -89.5s-33 -30.167 -65 -31.5zM176 461h43c49.333 0 84.333 9.66699 105 29s31 54.333 31 105c0 49.333 -9 84 -27 104s-52 30 -102 30h-50v-268zM63 0v810h163
c82 0 142.167 -16.833 180.5 -50.5s57.5 -88.5 57.5 -164.5c0 -104 -33.333 -167 -100 -189l115 -406h-109l-106 380h-88v-380h-113z" />
    <glyph glyph-name="rcommaaccent" unicode="&#x157;" horiz-adv-x="321" 
d="M155 -284l-27 53c20 1.33301 34.333 7 43 17s13 25 13 45h-55v109h109l-1 -103c0 -40 -5.66699 -69.833 -17 -89.5s-33 -30.167 -65 -31.5zM57 0l-0.000976562 578h107v-82c20 33.333 40.333 56.5 61 69.5s43 19.5 67 19.5c6.66699 0 12.334 -0.333008 17.001 -1v-118
c-20 7.33301 -39.667 11.333 -59 12c-18 0 -33.667 -4 -47 -12s-26.333 -22.667 -39 -44v-422h-107z" />
    <glyph glyph-name="Rcaron" unicode="&#x158;" horiz-adv-x="519" 
d="M219 877l-87 173h81l59 -117l57 117h82l-87 -173h-105zM176 461h43c49.333 0 84.333 9.66699 105 29s31 54.333 31 105c0 49.333 -9 84 -27 104s-52 30 -102 30h-50v-268zM63 0v810h163c82 0 142.167 -16.833 180.5 -50.5s57.5 -88.5 57.5 -164.5
c0 -104 -33.333 -167 -100 -189l115 -406h-109l-106 380h-88v-380h-113z" />
    <glyph glyph-name="rcaron" unicode="&#x159;" horiz-adv-x="321" 
d="M131 645l-87 173h81l59 -117l57 117h82l-87 -173h-105zM57 0l-0.000976562 578h107v-82c20 33.333 40.333 56.5 61 69.5s43 19.5 67 19.5c6.66699 0 12.334 -0.333008 17.001 -1v-118c-20 7.33301 -39.667 11.333 -59 12c-18 0 -33.667 -4 -47 -12
s-26.333 -22.667 -39 -44v-422h-107z" />
    <glyph glyph-name="Sacute" unicode="&#x15a;" horiz-adv-x="473" 
d="M216 877l59 198h107l-112 -198h-54zM254 -9c-68 0 -119.835 20.9951 -155.502 62.9951s-55.5 99.667 -59.5 173l100 27c7.33301 -116 45.666 -174 114.999 -174c28.667 0 50.667 8 66 24s23 39.667 23 71c0 17.333 -2 33.166 -6 47.499s-10.667 28 -20 41
s-18.166 23.833 -26.499 32.5s-20.166 20.334 -35.499 35.001l-136 120c-27.333 24.667 -47.166 50.834 -59.499 78.501s-18.5 61.167 -18.5 100.5c0 58.667 17 104.334 51 137.001s80.333 49.334 139 50.001c64.667 0.666992 113.167 -16 145.5 -50s51.833 -87 58.5 -159
l-96 -26c-1.33301 17.333 -3 32.833 -5 46.5s-5.66699 27.334 -11 41.001s-11.833 24.834 -19.5 33.501s-17.667 15.5 -30 20.5s-26.5 7.16699 -42.5 6.5c-59.333 -4 -89 -33.667 -89 -89c0 -24 4 -43.833 12 -59.5s21.667 -32.5 41 -50.5l137 -120
c35.333 -32 63.5 -66.333 84.5 -103s31.5 -78 31.5 -124c0 -59.333 -18 -106.333 -54 -141s-82.667 -52 -140 -52z" />
    <glyph glyph-name="sacute" unicode="&#x15b;" horiz-adv-x="373" 
d="M160 646l59 198h107l-112 -198h-54zM188 -8c-46.667 0 -84.501 14.6699 -113.501 44.0029s-45.5 68.666 -49.5 117.999l89 27c4 -37.333 12.333 -65 25 -83s30.334 -27 53.001 -27c19.333 0 35 6.16699 47 18.5s17.667 28.166 17 47.499
c-1.33301 28.667 -17 55.667 -47 81l-99 85c-23.333 20 -41.166 40.667 -53.499 62s-18.166 47.666 -17.499 78.999c1.33301 45.333 15.166 80.333 41.499 105s62.166 37 107.499 37c43.333 0 77.833 -14.333 103.5 -43s40.167 -65 43.5 -109l-72 -27
c-4 32.667 -11.333 57.5 -22 74.5s-27 25.5 -49 25.5c-17.333 0 -31.333 -5.66699 -42 -17s-15.667 -25.333 -15 -42c0 -22 9.66699 -41.333 29 -58l102 -94c26 -22.667 46.167 -46 60.5 -70s21.5 -52.667 21.5 -86c0 -48 -14.333 -84.667 -43 -110s-67.667 -38 -117 -38z
" />
    <glyph glyph-name="Scircumflex" unicode="&#x15c;" horiz-adv-x="473" 
d="M102 877l86 175h109l86 -175h-80l-61 121l-60 -121h-80zM254 -9c-68 0 -119.835 20.9951 -155.502 62.9951s-55.5 99.667 -59.5 173l100 27c7.33301 -116 45.666 -174 114.999 -174c28.667 0 50.667 8 66 24s23 39.667 23 71c0 17.333 -2 33.166 -6 47.499
s-10.667 28 -20 41s-18.166 23.833 -26.499 32.5s-20.166 20.334 -35.499 35.001l-136 120c-27.333 24.667 -47.166 50.834 -59.499 78.501s-18.5 61.167 -18.5 100.5c0 58.667 17 104.334 51 137.001s80.333 49.334 139 50.001c64.667 0.666992 113.167 -16 145.5 -50
s51.833 -87 58.5 -159l-96 -26c-1.33301 17.333 -3 32.833 -5 46.5s-5.66699 27.334 -11 41.001s-11.833 24.834 -19.5 33.501s-17.667 15.5 -30 20.5s-26.5 7.16699 -42.5 6.5c-59.333 -4 -89 -33.667 -89 -89c0 -24 4 -43.833 12 -59.5s21.667 -32.5 41 -50.5l137 -120
c35.333 -32 63.5 -66.333 84.5 -103s31.5 -78 31.5 -124c0 -59.333 -18 -106.333 -54 -141s-82.667 -52 -140 -52z" />
    <glyph glyph-name="scircumflex" unicode="&#x15d;" horiz-adv-x="373" 
d="M46 645l86 175h109l86 -175h-80l-61 121l-60 -121h-80zM188 -8c-46.667 0 -84.501 14.6699 -113.501 44.0029s-45.5 68.666 -49.5 117.999l89 27c4 -37.333 12.333 -65 25 -83s30.334 -27 53.001 -27c19.333 0 35 6.16699 47 18.5s17.667 28.166 17 47.499
c-1.33301 28.667 -17 55.667 -47 81l-99 85c-23.333 20 -41.166 40.667 -53.499 62s-18.166 47.666 -17.499 78.999c1.33301 45.333 15.166 80.333 41.499 105s62.166 37 107.499 37c43.333 0 77.833 -14.333 103.5 -43s40.167 -65 43.5 -109l-72 -27
c-4 32.667 -11.333 57.5 -22 74.5s-27 25.5 -49 25.5c-17.333 0 -31.333 -5.66699 -42 -17s-15.667 -25.333 -15 -42c0 -22 9.66699 -41.333 29 -58l102 -94c26 -22.667 46.167 -46 60.5 -70s21.5 -52.667 21.5 -86c0 -48 -14.333 -84.667 -43 -110s-67.667 -38 -117 -38z
" />
    <glyph glyph-name="Scedilla" unicode="&#x15e;" horiz-adv-x="473" 
d="M200 -225l-0.0078125 54c17.333 -4.66699 34.333 -7.16699 51 -7.5s30.834 2.5 42.501 8.5s17.834 15 18.501 27c0 7.33301 -1.66699 14 -5 20s-7.16602 10.667 -11.499 14s-10.833 6.83301 -19.5 10.5s-16.167 6.33398 -22.5 8.00098s-15.166 4.16699 -26.499 7.5v83h54
v-56c30 -4.66699 55.833 -14.334 77.5 -29.001s32.834 -33.667 33.501 -57c0.666992 -20 -4.16602 -37.333 -14.499 -52s-24.666 -25.167 -42.999 -31.5s-39.166 -9.5 -62.499 -9.5s-47.333 3.33301 -72 10zM253.992 -9c-68 0 -119.835 20.9951 -155.502 62.9951
s-55.5 99.667 -59.5 173l100 27c7.33301 -116 45.666 -174 114.999 -174c28.667 0 50.667 8 66 24s23 39.667 23 71c0 17.333 -2 33.166 -6 47.499s-10.667 28 -20 41s-18.166 23.833 -26.499 32.5s-20.166 20.334 -35.499 35.001l-136 120
c-27.333 24.667 -47.166 50.834 -59.499 78.501s-18.5 61.167 -18.5 100.5c0 58.667 17 104.334 51 137.001s80.333 49.334 139 50.001c64.667 0.666992 113.167 -16 145.5 -50s51.833 -87 58.5 -159l-96 -26c-1.33301 17.333 -3 32.833 -5 46.5s-5.66699 27.334 -11 41.001
s-11.833 24.834 -19.5 33.501s-17.667 15.5 -30 20.5s-26.5 7.16699 -42.5 6.5c-59.333 -4 -89 -33.667 -89 -89c0 -24 4 -43.833 12 -59.5s21.667 -32.5 41 -50.5l137 -120c35.333 -32 63.5 -66.333 84.5 -103s31.5 -78 31.5 -124c0 -59.333 -18 -106.333 -54 -141
s-82.667 -52 -140 -52z" />
    <glyph glyph-name="scedilla" unicode="&#x15f;" horiz-adv-x="373" 
d="M151 -225l-0.0078125 54c17.333 -4.66699 34.333 -7.16699 51 -7.5s30.834 2.5 42.501 8.5s17.834 15 18.501 27c0 7.33301 -1.66699 14 -5 20s-7.16602 10.667 -11.499 14s-10.833 6.83301 -19.5 10.5s-16.167 6.33398 -22.5 8.00098s-15.166 4.16699 -26.499 7.5v83h54
v-56c30 -4.66699 55.833 -14.334 77.5 -29.001s32.834 -33.667 33.501 -57c0.666992 -20 -4.16602 -37.333 -14.499 -52s-24.666 -25.167 -42.999 -31.5s-39.166 -9.5 -62.499 -9.5s-47.333 3.33301 -72 10zM187.992 -8c-46.667 0 -84.501 14.6699 -113.501 44.0029
s-45.5 68.666 -49.5 117.999l89 27c4 -37.333 12.333 -65 25 -83s30.334 -27 53.001 -27c19.333 0 35 6.16699 47 18.5s17.667 28.166 17 47.499c-1.33301 28.667 -17 55.667 -47 81l-99 85c-23.333 20 -41.166 40.667 -53.499 62s-18.166 47.666 -17.499 78.999
c1.33301 45.333 15.166 80.333 41.499 105s62.166 37 107.499 37c43.333 0 77.833 -14.333 103.5 -43s40.167 -65 43.5 -109l-72 -27c-4 32.667 -11.333 57.5 -22 74.5s-27 25.5 -49 25.5c-17.333 0 -31.333 -5.66699 -42 -17s-15.667 -25.333 -15 -42
c0 -22 9.66699 -41.333 29 -58l102 -94c26 -22.667 46.167 -46 60.5 -70s21.5 -52.667 21.5 -86c0 -48 -14.333 -84.667 -43 -110s-67.667 -38 -117 -38z" />
    <glyph glyph-name="Scaron" unicode="&#x160;" horiz-adv-x="473" 
d="M191 877l-87 173h81l59 -117l57 117h82l-87 -173h-105zM254 -9c-68 0 -119.835 20.9951 -155.502 62.9951s-55.5 99.667 -59.5 173l100 27c7.33301 -116 45.666 -174 114.999 -174c28.667 0 50.667 8 66 24s23 39.667 23 71c0 17.333 -2 33.166 -6 47.499
s-10.667 28 -20 41s-18.166 23.833 -26.499 32.5s-20.166 20.334 -35.499 35.001l-136 120c-27.333 24.667 -47.166 50.834 -59.499 78.501s-18.5 61.167 -18.5 100.5c0 58.667 17 104.334 51 137.001s80.333 49.334 139 50.001c64.667 0.666992 113.167 -16 145.5 -50
s51.833 -87 58.5 -159l-96 -26c-1.33301 17.333 -3 32.833 -5 46.5s-5.66699 27.334 -11 41.001s-11.833 24.834 -19.5 33.501s-17.667 15.5 -30 20.5s-26.5 7.16699 -42.5 6.5c-59.333 -4 -89 -33.667 -89 -89c0 -24 4 -43.833 12 -59.5s21.667 -32.5 41 -50.5l137 -120
c35.333 -32 63.5 -66.333 84.5 -103s31.5 -78 31.5 -124c0 -59.333 -18 -106.333 -54 -141s-82.667 -52 -140 -52z" />
    <glyph glyph-name="scaron" unicode="&#x161;" horiz-adv-x="373" 
d="M134 645l-87 173h81l59 -117l57 117h82l-87 -173h-105zM188 -8c-46.667 0 -84.501 14.6699 -113.501 44.0029s-45.5 68.666 -49.5 117.999l89 27c4 -37.333 12.333 -65 25 -83s30.334 -27 53.001 -27c19.333 0 35 6.16699 47 18.5s17.667 28.166 17 47.499
c-1.33301 28.667 -17 55.667 -47 81l-99 85c-23.333 20 -41.166 40.667 -53.499 62s-18.166 47.666 -17.499 78.999c1.33301 45.333 15.166 80.333 41.499 105s62.166 37 107.499 37c43.333 0 77.833 -14.333 103.5 -43s40.167 -65 43.5 -109l-72 -27
c-4 32.667 -11.333 57.5 -22 74.5s-27 25.5 -49 25.5c-17.333 0 -31.333 -5.66699 -42 -17s-15.667 -25.333 -15 -42c0 -22 9.66699 -41.333 29 -58l102 -94c26 -22.667 46.167 -46 60.5 -70s21.5 -52.667 21.5 -86c0 -48 -14.333 -84.667 -43 -110s-67.667 -38 -117 -38z
" />
    <glyph glyph-name="Tcommaaccent" unicode="&#x162;" horiz-adv-x="400" 
d="M156 -225l-0.0078125 54c17.333 -4.66699 34.333 -7.16699 51 -7.5s30.834 2.5 42.501 8.5s17.834 15 18.501 27c0 7.33301 -1.66699 14 -5 20s-7.16602 10.667 -11.499 14s-10.833 6.83301 -19.5 10.5s-16.167 6.33398 -22.5 8.00098s-15.166 4.16699 -26.499 7.5v83h54
v-56c30 -4.66699 55.833 -14.334 77.5 -29.001s32.834 -33.667 33.501 -57c0.666992 -20 -4.16602 -37.333 -14.499 -52s-24.666 -25.167 -42.999 -31.5s-39.166 -9.5 -62.499 -9.5s-47.333 3.33301 -72 10zM145.992 0v726h-147v84h403v-84h-143v-726h-113z" />
    <glyph glyph-name="tcommaaccent" unicode="&#x163;" horiz-adv-x="308" 
d="M136 -225l-0.0078125 54c17.333 -4.66699 34.333 -7.16699 51 -7.5s30.834 2.5 42.501 8.5s17.834 15 18.501 27c0 7.33301 -1.66699 14 -5 20s-7.16602 10.667 -11.499 14s-10.833 6.83301 -19.5 10.5s-16.167 6.33398 -22.5 8.00098s-15.166 4.16699 -26.499 7.5v83h54
v-56c30 -4.66699 55.833 -14.334 77.5 -29.001s32.834 -33.667 33.501 -57c0.666992 -20 -4.16602 -37.333 -14.499 -52s-24.666 -25.167 -42.999 -31.5s-39.166 -9.5 -62.499 -9.5s-47.333 3.33301 -72 10zM207.992 -8c-44 0 -75.667 11.499 -95 34.499
s-29.333 57.5 -30 103.5v377h-61v71h61v169h107v-169h93v-71h-93v-370c0 -23.333 3.66699 -39.666 11 -48.999s21.333 -14 42 -14c15.333 0 28.333 1 39 3v-79c-31.333 -4 -56 -6 -74 -6z" />
    <glyph glyph-name="Tcaron" unicode="&#x164;" horiz-adv-x="400" 
d="M148 877l-87 173h81l59 -117l57 117h82l-87 -173h-105zM146 0v726h-147v84h403v-84h-143v-726h-113z" />
    <glyph glyph-name="tcaron" unicode="&#x165;" horiz-adv-x="308" 
d="M273 671v248h97l-39 -248h-58zM208 -8c-44 0 -75.667 11.499 -95 34.499s-29.333 57.5 -30 103.5v377h-61v71h61v169h107v-169h93v-71h-93v-370c0 -23.333 3.66699 -39.666 11 -48.999s21.333 -14 42 -14c15.333 0 28.333 1 39 3v-79c-31.333 -4 -56 -6 -74 -6z" />
    <glyph glyph-name="Tbar" unicode="&#x166;" horiz-adv-x="400" 
d="M41 391v64h105v271h-147v84h403v-84h-143v-271h100v-64h-100v-391h-113v391h-105z" />
    <glyph glyph-name="tbar" unicode="&#x167;" horiz-adv-x="315" 
d="M208 -8c-44 0 -75.667 11.499 -95 34.499s-29.333 57.5 -30 103.5v210h-57v55h57v112h-61v71h61v169h107v-169h93v-71h-93v-112h100v-55h-100v-203c0 -23.333 3.66699 -39.666 11 -48.999s21.333 -14 42 -14c15.333 0 28.333 1 39 3v-79c-31.333 -4 -56 -6 -74 -6z" />
    <glyph glyph-name="Utilde" unicode="&#x168;" horiz-adv-x="543" 
d="M338 877c-16.667 0 -40.167 8.16797 -70.5 24.501s-50.166 24.5 -59.499 24.5c-8.66699 0.666992 -15 -2.33301 -19 -9s-6 -17.334 -6 -32.001h-61c0 73.333 28.667 109.333 86 108c17.333 0 41.666 -8 72.999 -24s50.333 -24 57 -24c8.66699 0 14.667 3 18 9s5 17 5 33
h60c0 -34 -6.16699 -60.833 -18.5 -80.5s-33.833 -29.5 -64.5 -29.5zM272 -8.99902c-34.667 0 -64.668 4.5 -90.001 13.5s-46 21.167 -62 36.5s-28.833 35.166 -38.5 59.499s-16.334 50.166 -20.001 77.499s-5.5 59 -5.5 95v537h108v-542c0 -23.333 0.5 -43.5 1.5 -60.5
s3.83301 -34 8.5 -51s10.834 -30.667 18.501 -41s18.167 -18.833 31.5 -25.5s29.333 -10 48 -10s34.5 3.33301 47.5 10s23.333 15.167 31 25.5s13.834 24 18.501 41s7.66699 34 9 51s2 37.167 2 60.5v542h107v-537c0 -36 -1.66699 -67.667 -5 -95
s-9.83301 -53.166 -19.5 -77.499s-22.5 -44.166 -38.5 -59.499s-36.667 -27.5 -62 -36.5s-55.333 -13.5 -90 -13.5z" />
    <glyph glyph-name="utilde" unicode="&#x169;" 
d="M284 646c-16.667 0 -40.167 8.16797 -70.5 24.501s-50.166 24.5 -59.499 24.5c-8.66699 0.666992 -15 -2.33301 -19 -9s-6 -17.334 -6 -32.001h-61c0 73.333 28.667 109.333 86 108c17.333 0 41.666 -8 72.999 -24s50.333 -24 57 -24c8.66699 0 14.667 3 18 9s5 17 5 33
h60c0 -34 -6.16699 -60.833 -18.5 -80.5s-33.833 -29.5 -64.5 -29.5zM137 -7.99902c-16 0 -30 3.5 -42 10.5s-21.167 16.333 -27.5 28s-10.833 24 -13.5 37s-4 27.167 -4 42.5v468h107v-436c0 -22 3.33301 -38.5 10 -49.5s18.667 -16.5 36 -16.5c21.333 0 46.333 12 75 36
v466h107v-578h-107v57c-45.333 -43.333 -92.333 -65 -141 -65z" />
    <glyph glyph-name="Umacron" unicode="&#x16a;" horiz-adv-x="543" 
d="M175 877v65h192v-65h-192zM272 -9c-34.667 0 -64.668 4.5 -90.001 13.5s-46 21.167 -62 36.5s-28.833 35.166 -38.5 59.499s-16.334 50.166 -20.001 77.499s-5.5 59 -5.5 95v537h108v-542c0 -23.333 0.5 -43.5 1.5 -60.5s3.83301 -34 8.5 -51s10.834 -30.667 18.501 -41
s18.167 -18.833 31.5 -25.5s29.333 -10 48 -10s34.5 3.33301 47.5 10s23.333 15.167 31 25.5s13.834 24 18.501 41s7.66699 34 9 51s2 37.167 2 60.5v542h107v-537c0 -36 -1.66699 -67.667 -5 -95s-9.83301 -53.166 -19.5 -77.499s-22.5 -44.166 -38.5 -59.499
s-36.667 -27.5 -62 -36.5s-55.333 -13.5 -90 -13.5z" />
    <glyph glyph-name="umacron" unicode="&#x16b;" 
d="M122 645v65h192v-65h-192zM137 -8c-16 0 -30 3.5 -42 10.5s-21.167 16.333 -27.5 28s-10.833 24 -13.5 37s-4 27.167 -4 42.5v468h107v-436c0 -22 3.33301 -38.5 10 -49.5s18.667 -16.5 36 -16.5c21.333 0 46.333 12 75 36v466h107v-578h-107v57
c-45.333 -43.333 -92.333 -65 -141 -65z" />
    <glyph glyph-name="Ubreve" unicode="&#x16c;" horiz-adv-x="543" 
d="M271 877c-92.667 0 -139.335 49.667 -140.002 149h63c0 -30.667 6.5 -53 19.5 -67s32.333 -21 58 -21s44.834 7 57.501 21s19.334 36.333 20.001 67h63c0 -99.333 -47 -149 -141 -149zM271.999 -9c-34.667 0 -64.668 4.5 -90.001 13.5s-46 21.167 -62 36.5
s-28.833 35.166 -38.5 59.499s-16.334 50.166 -20.001 77.499s-5.5 59 -5.5 95v537h108v-542c0 -23.333 0.5 -43.5 1.5 -60.5s3.83301 -34 8.5 -51s10.834 -30.667 18.501 -41s18.167 -18.833 31.5 -25.5s29.333 -10 48 -10s34.5 3.33301 47.5 10s23.333 15.167 31 25.5
s13.834 24 18.501 41s7.66699 34 9 51s2 37.167 2 60.5v542h107v-537c0 -36 -1.66699 -67.667 -5 -95s-9.83301 -53.166 -19.5 -77.499s-22.5 -44.166 -38.5 -59.499s-36.667 -27.5 -62 -36.5s-55.333 -13.5 -90 -13.5z" />
    <glyph glyph-name="ubreve" unicode="&#x16d;" 
d="M217 645c-92.667 0 -139.335 49.667 -140.002 149h63c0 -30.667 6.5 -53 19.5 -67s32.333 -21 58 -21s44.834 7 57.501 21s19.334 36.333 20.001 67h63c0 -99.333 -47 -149 -141 -149zM136.999 -8c-16 0 -30 3.5 -42 10.5s-21.167 16.333 -27.5 28s-10.833 24 -13.5 37
s-4 27.167 -4 42.5v468h107v-436c0 -22 3.33301 -38.5 10 -49.5s18.667 -16.5 36 -16.5c21.333 0 46.333 12 75 36v466h107v-578h-107v57c-45.333 -43.333 -92.333 -65 -141 -65z" />
    <glyph glyph-name="Uring" unicode="&#x16e;" horiz-adv-x="543" 
d="M271.5 931c17.667 0 31.667 5.16699 42 15.5s15.5 24.5 15.5 42.5s-5.16699 32.167 -15.5 42.5s-24.333 15.5 -42 15.5s-31.667 -5.16699 -42 -15.5s-15.5 -24.5 -15.5 -42.5s5.16699 -32.167 15.5 -42.5s24.333 -15.5 42 -15.5zM271.5 877
c-33.667 0 -60.667 10.167 -81 30.5s-30.5 47.5 -30.5 81.5s10.167 61 30.5 81s47.333 30 81 30s60.667 -10 81 -30s30.5 -47 30.5 -81s-10.167 -61.167 -30.5 -81.5s-47.333 -30.5 -81 -30.5zM272 -9c-34.667 0 -64.668 4.5 -90.001 13.5s-46 21.167 -62 36.5
s-28.833 35.166 -38.5 59.499s-16.334 50.166 -20.001 77.499s-5.5 59 -5.5 95v537h108v-542c0 -23.333 0.5 -43.5 1.5 -60.5s3.83301 -34 8.5 -51s10.834 -30.667 18.501 -41s18.167 -18.833 31.5 -25.5s29.333 -10 48 -10s34.5 3.33301 47.5 10s23.333 15.167 31 25.5
s13.834 24 18.501 41s7.66699 34 9 51s2 37.167 2 60.5v542h107v-537c0 -36 -1.66699 -67.667 -5 -95s-9.83301 -53.166 -19.5 -77.499s-22.5 -44.166 -38.5 -59.499s-36.667 -27.5 -62 -36.5s-55.333 -13.5 -90 -13.5z" />
    <glyph glyph-name="uring" unicode="&#x16f;" 
d="M217.5 699c17.667 0 31.667 5.16699 42 15.5s15.5 24.5 15.5 42.5s-5.16699 32.167 -15.5 42.5s-24.333 15.5 -42 15.5s-31.667 -5.16699 -42 -15.5s-15.5 -24.5 -15.5 -42.5s5.16699 -32.167 15.5 -42.5s24.333 -15.5 42 -15.5zM217.5 645
c-33.667 0 -60.667 10.167 -81 30.5s-30.5 47.5 -30.5 81.5s10.167 61 30.5 81s47.333 30 81 30s60.667 -10 81 -30s30.5 -47 30.5 -81s-10.167 -61.167 -30.5 -81.5s-47.333 -30.5 -81 -30.5zM137 -8c-16 0 -30 3.5 -42 10.5s-21.167 16.333 -27.5 28s-10.833 24 -13.5 37
s-4 27.167 -4 42.5v468h107v-436c0 -22 3.33301 -38.5 10 -49.5s18.667 -16.5 36 -16.5c21.333 0 46.333 12 75 36v466h107v-578h-107v57c-45.333 -43.333 -92.333 -65 -141 -65z" />
    <glyph glyph-name="Uhungarumlaut" unicode="&#x170;" horiz-adv-x="543" 
d="M307 877l58 171h108l-111 -171h-55zM181 877l39 171h88l-73 -171h-54zM272 -9c-34.667 0 -64.668 4.5 -90.001 13.5s-46 21.167 -62 36.5s-28.833 35.166 -38.5 59.499s-16.334 50.166 -20.001 77.499s-5.5 59 -5.5 95v537h108v-542c0 -23.333 0.5 -43.5 1.5 -60.5
s3.83301 -34 8.5 -51s10.834 -30.667 18.501 -41s18.167 -18.833 31.5 -25.5s29.333 -10 48 -10s34.5 3.33301 47.5 10s23.333 15.167 31 25.5s13.834 24 18.501 41s7.66699 34 9 51s2 37.167 2 60.5v542h107v-537c0 -36 -1.66699 -67.667 -5 -95
s-9.83301 -53.166 -19.5 -77.499s-22.5 -44.166 -38.5 -59.499s-36.667 -27.5 -62 -36.5s-55.333 -13.5 -90 -13.5z" />
    <glyph glyph-name="uhungarumlaut" unicode="&#x171;" 
d="M253 645l58 171h108l-111 -171h-55zM127 645l39 171h88l-73 -171h-54zM137 -8c-16 0 -30 3.5 -42 10.5s-21.167 16.333 -27.5 28s-10.833 24 -13.5 37s-4 27.167 -4 42.5v468h107v-436c0 -22 3.33301 -38.5 10 -49.5s18.667 -16.5 36 -16.5c21.333 0 46.333 12 75 36v466
h107v-578h-107v57c-45.333 -43.333 -92.333 -65 -141 -65z" />
    <glyph glyph-name="Uogonek" unicode="&#x172;" horiz-adv-x="543" 
d="M312 -228c-19.333 0 -35.498 0.329102 -48.498 0.996094s-26.833 2 -41.5 4s-26.5 5 -35.5 9s-17.5 9 -25.5 15s-13.833 13.833 -17.5 23.5s-5.5 20.834 -5.5 33.501c0 30.667 11.667 60.5 35 89.5s48.666 47.5 75.999 55.5h54c-2 -2 -7.33301 -8.16699 -16 -18.5
s-15 -18.166 -19 -23.499s-9.83301 -13.166 -17.5 -23.499s-13.334 -19.166 -17.001 -26.499s-7 -15.5 -10 -24.5s-4.5 -17.5 -4.5 -25.5c0 -6 1.33301 -11.333 4 -16s6.5 -8.16699 11.5 -10.5s10.167 -4.33301 15.5 -6s12 -2.5 20 -2.5h21c6 0 13.167 0.166992 21.5 0.5
s14.5 0.5 18.5 0.5zM272.002 -9.00391c-34.667 0 -64.668 4.5 -90.001 13.5s-46 21.167 -62 36.5s-28.833 35.166 -38.5 59.499s-16.334 50.166 -20.001 77.499s-5.5 59 -5.5 95v537h108v-542c0 -23.333 0.5 -43.5 1.5 -60.5s3.83301 -34 8.5 -51s10.834 -30.667 18.501 -41
s18.167 -18.833 31.5 -25.5s29.333 -10 48 -10s34.5 3.33301 47.5 10s23.333 15.167 31 25.5s13.834 24 18.501 41s7.66699 34 9 51s2 37.167 2 60.5v542h107v-537c0 -36 -1.66699 -67.667 -5 -95s-9.83301 -53.166 -19.5 -77.499s-22.5 -44.166 -38.5 -59.499
s-36.667 -27.5 -62 -36.5s-55.333 -13.5 -90 -13.5z" />
    <glyph glyph-name="uogonek" unicode="&#x173;" 
d="M357 -228c-19.333 0 -35.498 0.329102 -48.498 0.996094s-26.833 2 -41.5 4s-26.5 5 -35.5 9s-17.5 9 -25.5 15s-13.833 13.833 -17.5 23.5s-5.5 20.834 -5.5 33.501c0 30.667 11.667 60.5 35 89.5s48.666 47.5 75.999 55.5h54c-2 -2 -7.33301 -8.16699 -16 -18.5
s-15 -18.166 -19 -23.499s-9.83301 -13.166 -17.5 -23.499s-13.334 -19.166 -17.001 -26.499s-7 -15.5 -10 -24.5s-4.5 -17.5 -4.5 -25.5c0 -6 1.33301 -11.333 4 -16s6.5 -8.16699 11.5 -10.5s10.167 -4.33301 15.5 -6s12 -2.5 20 -2.5h21c6 0 13.167 0.166992 21.5 0.5
s14.5 0.5 18.5 0.5zM137.002 -8.00391c-16 0 -30 3.5 -42 10.5s-21.167 16.333 -27.5 28s-10.833 24 -13.5 37s-4 27.167 -4 42.5v468h107v-436c0 -22 3.33301 -38.5 10 -49.5s18.667 -16.5 36 -16.5c21.333 0 46.333 12 75 36v466h107v-578h-107v57
c-45.333 -43.333 -92.333 -65 -141 -65z" />
    <glyph glyph-name="Wcircumflex" unicode="&#x174;" horiz-adv-x="729" 
d="M223 877l86 175h109l86 -175h-80l-61 121l-60 -121h-80zM168 0l-132 810h94l87 -582l109 579h80l110 -582l85 585h92l-130 -810h-82l-113 600l-114 -600h-86z" />
    <glyph glyph-name="wcircumflex" unicode="&#x175;" horiz-adv-x="587" 
d="M153 645l86 175h109l86 -175h-80l-61 121l-60 -121h-80zM121 0l-93 578h88l60 -426l77 426h82l77 -424l60 424h88l-96 -578h-90l-79 408l-78 -408h-96z" />
    <glyph glyph-name="Ycircumflex" unicode="&#x176;" horiz-adv-x="481" 
d="M100 877l86 175h109l86 -175h-80l-61 121l-60 -121h-80zM187 0v286l-175 524h105l124 -391l122 391h106l-174 -524v-286h-108z" />
    <glyph glyph-name="ycircumflex" unicode="&#x177;" horiz-adv-x="391" 
d="M56 645l86 175h109l86 -175h-80l-61 121l-60 -121h-80zM45 -145l0.000976562 81.999c47.333 0 77.666 4.5 90.999 13.5s16.666 27.5 9.99902 55.5c-9.33301 40.667 -15.333 67.334 -18 80.001c-11.333 48.667 -30.666 130.667 -57.999 246s-46.666 197.333 -57.999 246
h108l78 -432l75 432h108l-138 -610c-9.33301 -41.333 -28.833 -70.5 -58.5 -87.5s-71.834 -25.5 -126.501 -25.5h-13z" />
    <glyph glyph-name="Ydieresis" unicode="&#x178;" horiz-adv-x="481" 
d="M273 877v111h108v-111h-108zM101 877v111h108v-111h-108zM187 0v286l-175 524h105l124 -391l122 391h106l-174 -524v-286h-108z" />
    <glyph glyph-name="Zacute" unicode="&#x179;" horiz-adv-x="416" 
d="M191 877l59 198h107l-112 -198h-54zM38 0v81l238 648h-223v81h343v-49l-251 -680h251v-81h-358z" />
    <glyph glyph-name="zacute" unicode="&#x17a;" horiz-adv-x="346" 
d="M151 646l59 198h107l-112 -198h-54zM32 0v72l177 426h-159v80h274v-58l-178 -439h174v-81h-288z" />
    <glyph glyph-name="Zdotaccent" unicode="&#x17b;" horiz-adv-x="416" 
d="M163 877v119h108v-119h-108zM38 0v81l238 648h-223v81h343v-49l-251 -680h251v-81h-358z" />
    <glyph glyph-name="zdotaccent" unicode="&#x17c;" horiz-adv-x="346" 
d="M124 646v119h108v-119h-108zM32 0v72l177 426h-159v80h274v-58l-178 -439h174v-81h-288z" />
    <glyph glyph-name="Zcaron" unicode="&#x17d;" horiz-adv-x="416" 
d="M165 877l-87 173h81l59 -117l57 117h82l-87 -173h-105zM38 0v81l238 648h-223v81h343v-49l-251 -680h251v-81h-358z" />
    <glyph glyph-name="zcaron" unicode="&#x17e;" horiz-adv-x="346" 
d="M125 645l-87 173h81l59 -117l57 117h82l-87 -173h-105zM32 0v72l177 426h-159v80h274v-58l-178 -439h174v-81h-288z" />
    <glyph glyph-name="florin" unicode="&#x192;" horiz-adv-x="379" 
d="M67 -119c-14.667 0 -37.334 2.00195 -68.001 6.00195l8 79c18.667 -3.33301 31.667 -5 39 -5c19.333 0 32.833 6.16699 40.5 18.5s13.167 31.166 16.5 56.499l48 463h-66v79h75l4 36c2.66699 28 6.5 51.5 11.5 70.5s12.667 36.167 23 51.5s24.333 26.666 42 33.999
s39.834 11 66.501 11c16.667 0 39.334 -1.66699 68.001 -5l-8 -80c-2.66699 0 -6.66699 0.5 -12 1.5s-10.333 1.83301 -15 2.5s-8.33398 1 -11.001 1c-19.333 0 -33.166 -6.16699 -41.499 -18.5s-13.833 -31.166 -16.5 -56.499l-4 -48h76v-79h-85l-48 -451
c-2 -22.667 -4.83301 -42 -8.5 -58s-8.83398 -31.333 -15.501 -46s-15 -26.334 -25 -35.001s-22.833 -15.5 -38.5 -20.5s-34.167 -7.5 -55.5 -7.5z" />
    <glyph glyph-name="uni01C4" unicode="&#x1c4;" horiz-adv-x="943" 
d="M692 877l-87 173h81l59 -117l57 117h82l-87 -173h-105zM565 0v81l238 648h-223v81h343v-49l-251 -680h251v-81h-358zM63 0l0.00195312 810h176c87.333 0 149.166 -20 185.499 -60s54.5 -102.667 54.5 -188v-297c0 -88.667 -17.833 -155 -53.5 -199
s-94.834 -66 -177.501 -66h-185zM176.002 81l63.999 -0.000976562c17.333 0 32.5 1.66699 45.5 5s24 7.33301 33 12s16.5 12.334 22.5 23.001s10.5 20.334 13.5 29.001s5.33301 21.667 7 39s2.66699 32 3 44s0.5 29.667 0.5 53v263c0 19.333 -0.333008 35.833 -1 49.5
s-2 27.167 -4 40.5s-5 24.166 -9 32.499s-9 16.333 -15 24s-13.667 13.5 -23 17.5s-20.166 7.16699 -32.499 9.5s-26.833 3.5 -43.5 3.5h-61v-645z" />
    <glyph glyph-name="uni01C5" unicode="&#x1c5;" horiz-adv-x="873" 
d="M652 645l-87 173h81l59 -117l57 117h82l-87 -173h-105zM559 0v72l177 426h-159v80h274v-58l-178 -439h174v-81h-288zM63 0l0.00195312 810h176c87.333 0 149.166 -20 185.499 -60s54.5 -102.667 54.5 -188v-297c0 -88.667 -17.833 -155 -53.5 -199
s-94.834 -66 -177.501 -66h-185zM176.002 81l63.999 -0.000976562c17.333 0 32.5 1.66699 45.5 5s24 7.33301 33 12s16.5 12.334 22.5 23.001s10.5 20.334 13.5 29.001s5.33301 21.667 7 39s2.66699 32 3 44s0.5 29.667 0.5 53v263c0 19.333 -0.333008 35.833 -1 49.5
s-2 27.167 -4 40.5s-5 24.166 -9 32.499s-9 16.333 -15 24s-13.667 13.5 -23 17.5s-20.166 7.16699 -32.499 9.5s-26.833 3.5 -43.5 3.5h-61v-645z" />
    <glyph glyph-name="uni01C6" unicode="&#x1c6;" horiz-adv-x="788" 
d="M567 645l-87 173h81l59 -117l57 117h82l-87 -173h-105zM474 0v72l177 426h-159v80h274v-58l-178 -439h174v-81h-288zM215 76c20.667 0 42.667 7.33398 66 22.001v379c-23.333 16.667 -46 25 -68 25c-42 0 -63 -40.333 -63 -121v-163c0 -18 0.5 -33.5 1.5 -46.5
s2.83301 -25.833 5.5 -38.5s6.16699 -22.834 10.5 -30.501s10.5 -14 18.5 -19s17.667 -7.5 29 -7.5zM188 -7.99902c-50 0 -86.666 18.166 -109.999 54.499s-35 96.5 -35 180.5v112c0 28.667 1.16699 54.334 3.5 77.001s6.66602 45 12.999 67s14.5 40.167 24.5 54.5
s23.5 26 40.5 35s37.167 13.5 60.5 13.5c34.667 0 66.667 -15 96 -45v269h107v-810h-107v37c-28.667 -30 -59.667 -45 -93 -45z" />
    <glyph glyph-name="uni01C7" unicode="&#x1c7;" horiz-adv-x="698" 
d="M404 -19v80.999c26 0 46 1.5 60 4.5s25.667 9.33301 35 19s15.5 22 18.5 37s4.5 35.833 4.5 62.5v625h112v-627c0 -36 -2.66699 -66.167 -8 -90.5s-14.5 -45.166 -27.5 -62.499s-31 -29.833 -54 -37.5s-51.833 -11.5 -86.5 -11.5h-54zM63 -0.000976562v810h113v-729h207
v-81h-320z" />
    <glyph glyph-name="uni01C8" unicode="&#x1c8;" horiz-adv-x="626" 
d="M466 664v112h108v-112h-108zM378 -139v77c8.66699 -2 18 -3 28 -3c40 0 60 23.333 60 70v573h107v-584c0 -44.667 -12.333 -79.167 -37 -103.5s-59 -36.5 -103 -36.5c-24.667 0 -43 2.33301 -55 7zM63 0v810h113v-729h207v-81h-320z" />
    <glyph glyph-name="uni01C9" unicode="&#x1c9;" horiz-adv-x="458" 
d="M298 664v112h108v-112h-108zM210 -139v77c8.66699 -2 18 -3 28 -3c40 0 60 23.333 60 70v573h107v-584c0 -44.667 -12.333 -79.167 -37 -103.5s-59 -36.5 -103 -36.5c-24.667 0 -43 2.33301 -55 7zM64 0v810h107v-810h-107z" />
    <glyph glyph-name="uni01CA" unicode="&#x1ca;" horiz-adv-x="829" 
d="M535 -19v80.999c26 0 46 1.5 60 4.5s25.667 9.33301 35 19s15.5 22 18.5 37s4.5 35.833 4.5 62.5v625h112v-627c0 -36 -2.66699 -66.167 -8 -90.5s-14.5 -45.166 -27.5 -62.499s-31 -29.833 -54 -37.5s-51.833 -11.5 -86.5 -11.5h-54zM63 -0.000976562v810h77l230 -538
v538h94v-810h-72l-233 553v-553h-96z" />
    <glyph glyph-name="uni01CB" unicode="&#x1cb;" horiz-adv-x="757" 
d="M597 664v112h108v-112h-108zM509 -139v77c8.66699 -2 18 -3 28 -3c40 0 60 23.333 60 70v573h107v-584c0 -44.667 -12.333 -79.167 -37 -103.5s-59 -36.5 -103 -36.5c-24.667 0 -43 2.33301 -55 7zM63 0v810h77l230 -538v538h94v-810h-72l-233 553v-553h-96z" />
    <glyph glyph-name="uni01CC" unicode="&#x1cc;" horiz-adv-x="669" 
d="M508 664v112h108v-112h-108zM420 -139v77c8.66699 -2 18 -3 28 -3c40 0 60 23.333 60 70v573h107v-584c0 -44.667 -12.333 -79.167 -37 -103.5s-59 -36.5 -103 -36.5c-24.667 0 -43 2.33301 -55 7zM54 0v578h107v-57c45.333 43.333 92.333 65 141 65
c16 0 30 -3.5 42 -10.5s21.167 -16.333 27.5 -28s10.833 -24 13.5 -37s4 -27.167 4 -42.5v-468h-107v437c0 22 -3.33301 38.333 -10 49s-18.667 16 -36 16c-21.333 0 -46.333 -12 -75 -36v-466h-107z" />
    <glyph glyph-name="uni01F1" unicode="&#x1f1;" horiz-adv-x="943" 
d="M565 0v81l238 648h-223v81h343v-49l-251 -680h251v-81h-358zM63 0l0.00195312 810h176c87.333 0 149.166 -20 185.499 -60s54.5 -102.667 54.5 -188v-297c0 -88.667 -17.833 -155 -53.5 -199s-94.834 -66 -177.501 -66h-185zM176.002 81l63.999 -0.000976562
c17.333 0 32.5 1.66699 45.5 5s24 7.33301 33 12s16.5 12.334 22.5 23.001s10.5 20.334 13.5 29.001s5.33301 21.667 7 39s2.66699 32 3 44s0.5 29.667 0.5 53v263c0 19.333 -0.333008 35.833 -1 49.5s-2 27.167 -4 40.5s-5 24.166 -9 32.499s-9 16.333 -15 24
s-13.667 13.5 -23 17.5s-20.166 7.16699 -32.499 9.5s-26.833 3.5 -43.5 3.5h-61v-645z" />
    <glyph glyph-name="uni01F2" unicode="&#x1f2;" horiz-adv-x="873" 
d="M559 0v72l177 426h-159v80h274v-58l-178 -439h174v-81h-288zM63 0l0.00195312 810h176c87.333 0 149.166 -20 185.499 -60s54.5 -102.667 54.5 -188v-297c0 -88.667 -17.833 -155 -53.5 -199s-94.834 -66 -177.501 -66h-185zM176.002 81l63.999 -0.000976562
c17.333 0 32.5 1.66699 45.5 5s24 7.33301 33 12s16.5 12.334 22.5 23.001s10.5 20.334 13.5 29.001s5.33301 21.667 7 39s2.66699 32 3 44s0.5 29.667 0.5 53v263c0 19.333 -0.333008 35.833 -1 49.5s-2 27.167 -4 40.5s-5 24.166 -9 32.499s-9 16.333 -15 24
s-13.667 13.5 -23 17.5s-20.166 7.16699 -32.499 9.5s-26.833 3.5 -43.5 3.5h-61v-645z" />
    <glyph glyph-name="uni01F3" unicode="&#x1f3;" horiz-adv-x="788" 
d="M474 0v72l177 426h-159v80h274v-58l-178 -439h174v-81h-288zM215 76c20.667 0 42.667 7.33398 66 22.001v379c-23.333 16.667 -46 25 -68 25c-42 0 -63 -40.333 -63 -121v-163c0 -18 0.5 -33.5 1.5 -46.5s2.83301 -25.833 5.5 -38.5s6.16699 -22.834 10.5 -30.501
s10.5 -14 18.5 -19s17.667 -7.5 29 -7.5zM188 -7.99902c-50 0 -86.666 18.166 -109.999 54.499s-35 96.5 -35 180.5v112c0 28.667 1.16699 54.334 3.5 77.001s6.66602 45 12.999 67s14.5 40.167 24.5 54.5s23.5 26 40.5 35s37.167 13.5 60.5 13.5
c34.667 0 66.667 -15 96 -45v269h107v-810h-107v37c-28.667 -30 -59.667 -45 -93 -45z" />
    <glyph glyph-name="uni01F4" unicode="&#x1f4;" horiz-adv-x="535" 
d="M239 877l59 198h107l-112 -198h-54zM256 -10c-73.333 0 -126.333 23.1689 -159 69.502s-49 115.166 -49 206.499v271c0 37.333 2.16699 69.833 6.5 97.5s11.333 53.5 21 77.5s22.667 43.333 39 58s37 26.167 62 34.5s54.5 12.5 88.5 12.5c74.667 0 128.5 -19 161.5 -57
s49.5 -97.667 49.5 -179v-30h-106v25c0 22.667 -0.666992 41.5 -2 56.5s-4 29.167 -8 42.5s-9.83301 23.666 -17.5 30.999s-17.667 13 -30 17s-27.5 6 -45.5 6c-14 0 -26.5 -1.5 -37.5 -4.5s-20.167 -7 -27.5 -12s-13.5 -12 -18.5 -21s-9 -17.833 -12 -26.5
s-5.33301 -19.667 -7 -33s-2.66699 -25.5 -3 -36.5s-0.5 -24.833 -0.5 -41.5v-300c0 -62 7.5 -106.5 22.5 -133.5s43.667 -40.5 86 -40.5s71.333 14.5 87 43.5s23.5 76.167 23.5 141.5v56h-103v80h205v-401h-71l-11 93c-24.667 -68.667 -72.667 -103 -144 -103z" />
    <glyph glyph-name="uni01F5" unicode="&#x1f5;" horiz-adv-x="435" 
d="M207 649l59 198h107l-112 -198h-54zM207 252c28 0 46.5 10 55.5 30s13.5 52.667 13.5 98c0 18 -0.5 33 -1.5 45s-2.83301 24 -5.5 36s-6.5 21.333 -11.5 28s-11.5 12.167 -19.5 16.5s-18 6.5 -30 6.5c-28 0 -46.833 -10.5 -56.5 -31.5s-14.5 -54.5 -14.5 -100.5
c0 -16 0.5 -29.833 1.5 -41.5s3 -23.167 6 -34.5s7 -20.5 12 -27.5s11.667 -12.833 20 -17.5s18.5 -7 30.5 -7zM232 -95c30.667 0 53.5 4.66699 68.5 14s22.5 23.666 22.5 42.999c0 18 -5.5 31.667 -16.5 41s-31.833 15.333 -62.5 18l-91 8
c-9.33301 -8 -18.833 -18.667 -28.5 -32s-14.5 -27.666 -14.5 -42.999c0 -12 2.83301 -21.167 8.5 -27.5s17.5 -11.5 35.5 -15.5s44 -6 78 -6zM234 -179c-20.667 0 -38.835 0.337891 -54.502 1.00488s-32.334 2 -50.001 4s-32.667 5 -45 9s-23.666 9.33301 -33.999 16
s-18 15 -23 25s-7.5 21.667 -7.5 35c0 30 7.83301 55.833 23.5 77.5s35.5 39.167 59.5 52.5c-18 5.33301 -31.833 13.666 -41.5 24.999s-14.5 23.666 -14.5 36.999c0 20 5 37.5 15 52.5s26.333 32.5 49 52.5c-22.667 17.333 -39.5 39.166 -50.5 65.499
s-16.5 61.833 -16.5 106.5c0 67.333 13.667 118.5 41 153.5s68 52.5 122 52.5c58.667 0 98.334 -21.333 119.001 -64c4.66699 6.66699 14.5 16.334 29.5 29.001s31.167 23 48.5 31l16 7l27 -69c-13.333 -2.66699 -31.833 -8.33398 -55.5 -17.001
s-37.834 -15.334 -42.501 -20.001c4.66699 -12 8.83398 -28.5 12.501 -49.5s5.5 -39.833 5.5 -56.5c0 -30.667 -2.66699 -57.834 -8 -81.501s-14.166 -44.5 -26.499 -62.5s-29 -31.833 -50 -41.5s-46.167 -14.5 -75.5 -14.5c-5.33301 0 -15.333 1 -30 3s-23 3.33301 -25 4
c0 -0.666992 -1.33301 -3.16699 -4 -7.5s-4.5 -7.33301 -5.5 -9s-2.5 -4.5 -4.5 -8.5s-3.33301 -7.5 -4 -10.5s-1 -5.83301 -1 -8.5c0 -7.33301 3.83301 -13 11.5 -17s19.834 -7 36.501 -9c1.33301 0 16.5 -1.33301 45.5 -4s43.833 -4 44.5 -4
c89.333 -8.66699 134 -55.667 134 -141c0 -52 -13.833 -89 -41.5 -111s-70.834 -33 -129.501 -33z" />
    <glyph glyph-name="uni0200" unicode="&#x200;" horiz-adv-x="491" 
d="M283 877l-74 170h88l40 -170h-54zM155 877l-112 170h108l58 -170h-54zM179 285h135l-68 365zM19 0l172 810h109l173 -810h-107l-37 204h-165l-39 -204h-106z" />
    <glyph glyph-name="uni0201" unicode="&#x201;" horiz-adv-x="425" 
d="M251 646l-74 170h88l40 -170h-54zM123 646l-112 170h108l58 -170h-54zM200 84c14 0 27.499 5.49902 40.499 16.499s22.833 21.5 29.5 31.5v164c-37.333 -21.333 -62 -37 -74 -47c-31.333 -25.333 -47 -55.333 -47 -90c0 -23.333 4.33301 -41.666 13 -54.999
s21.334 -20 38.001 -20zM157.999 -8.00098c-32.667 0 -60.167 13.4971 -82.5 40.4971s-33.5 58.167 -33.5 93.5c0 27.333 4.33301 52.166 13 74.499s18.167 40.333 28.5 54s27.833 27.834 52.5 42.501s43.834 25.167 57.501 31.5s37.834 16.5 72.501 30.5
c2 0.666992 3.33301 1.33398 4 2.00098v41c0 37.333 -3.83301 64 -11.5 80s-23.167 24 -46.5 24c-40.667 0 -61 -27.333 -61 -82v-29l-106 4c0 6 0.333008 13 1 21c3.33301 57.333 19.5 99.333 48.5 126s70.5 40 124.5 40c55.333 0 95.5 -15.167 120.5 -45.5
s37.5 -76.166 37.5 -137.499v-264c0 -43.333 3.33301 -89.666 10 -138.999h-98c-6.66699 32 -11.334 60.333 -14.001 85c-8 -26 -21.833 -48 -41.5 -66s-44.834 -27 -75.501 -27z" />
    <glyph glyph-name="uni0202" unicode="&#x202;" horiz-adv-x="491" 
d="M113 877c0 22.667 1.99609 42.333 5.99609 59s10.833 32.167 20.5 46.5s23.334 25.166 41.001 32.499s39.167 11 64.5 11c20.667 0 38.834 -2.66699 54.501 -8s28.334 -12.166 38.001 -20.499s17.5 -19 23.5 -32s10.167 -26.5 12.5 -40.5s3.5 -30 3.5 -48h-63
c0 32 -5.16699 54.667 -15.5 68s-27.833 20 -52.5 20c-25.333 0 -43.166 -6.83301 -53.499 -20.5s-15.833 -36.167 -16.5 -67.5h-63zM178.996 284.999h135l-68 365zM18.9961 -0.000976562l172 810h109l173 -810h-107l-37 204h-165l-39 -204h-106z" />
    <glyph glyph-name="uni0203" unicode="&#x203;" horiz-adv-x="425" 
d="M82 645c0 22.667 1.99609 42.333 5.99609 59s10.833 32.167 20.5 46.5s23.334 25.166 41.001 32.499s39.167 11 64.5 11c20.667 0 38.834 -2.66699 54.501 -8s28.334 -12.166 38.001 -20.499s17.5 -19 23.5 -32s10.167 -26.5 12.5 -40.5s3.5 -30 3.5 -48h-63
c0 32 -5.16699 54.667 -15.5 68s-27.833 20 -52.5 20c-25.333 0 -43.166 -6.83301 -53.499 -20.5s-15.833 -36.167 -16.5 -67.5h-63zM199.996 83.999c14 0 27.499 5.49902 40.499 16.499s22.833 21.5 29.5 31.5v164c-37.333 -21.333 -62 -37 -74 -47
c-31.333 -25.333 -47 -55.333 -47 -90c0 -23.333 4.33301 -41.666 13 -54.999s21.334 -20 38.001 -20zM157.995 -8.00195c-32.667 0 -60.167 13.4971 -82.5 40.4971s-33.5 58.167 -33.5 93.5c0 27.333 4.33301 52.166 13 74.499s18.167 40.333 28.5 54
s27.833 27.834 52.5 42.501s43.834 25.167 57.501 31.5s37.834 16.5 72.501 30.5c2 0.666992 3.33301 1.33398 4 2.00098v41c0 37.333 -3.83301 64 -11.5 80s-23.167 24 -46.5 24c-40.667 0 -61 -27.333 -61 -82v-29l-106 4c0 6 0.333008 13 1 21
c3.33301 57.333 19.5 99.333 48.5 126s70.5 40 124.5 40c55.333 0 95.5 -15.167 120.5 -45.5s37.5 -76.166 37.5 -137.499v-264c0 -43.333 3.33301 -89.666 10 -138.999h-98c-6.66699 32 -11.334 60.333 -14.001 85c-8 -26 -21.833 -48 -41.5 -66s-44.834 -27 -75.501 -27z
" />
    <glyph glyph-name="uni0204" unicode="&#x204;" horiz-adv-x="407" 
d="M258 877l-74 170h88l40 -170h-54zM130 877l-112 170h108l58 -170h-54zM63 0v810h314v-84h-201v-268h163v-80h-163v-297h203v-81h-316z" />
    <glyph glyph-name="uni0205" unicode="&#x205;" horiz-adv-x="420" 
d="M248 646l-74 170h88l40 -170h-54zM120 646l-112 170h108l58 -170h-54zM150 345l123 -0.00195312v52c0 15.333 -0.333008 28.333 -1 39s-2.33398 20.834 -5.00098 30.501s-6.16699 17.334 -10.5 23.001s-10 10 -17 13s-15.833 4.5 -26.5 4.5
c-25.333 0 -42.166 -9 -50.499 -27s-12.5 -52.667 -12.5 -104v-31zM214 -8.00195c-34 0 -62.1719 4.83398 -84.5049 14.501s-39.666 24.667 -51.999 45s-21.166 44 -26.499 71s-8 60.5 -8 100.5v132c0 40 2.83301 73.833 8.5 101.5s14.834 51.5 27.501 71.5
s30.167 34.667 52.5 44s49.833 14 82.5 14c20.667 0 38.834 -2 54.501 -6s29.334 -9.33301 41.001 -16s21.667 -15.834 30 -27.501s15 -24 20 -37s8.83301 -28.667 11.5 -47s4.5 -36.5 5.5 -54.5s1.5 -39.333 1.5 -64v-47h-228v-77v-6c0 -16 0.166992 -28 0.5 -36
s1 -18.333 2 -31s2.83301 -22 5.5 -28s6.33398 -12.5 11.001 -19.5s10.667 -11.833 18 -14.5s16 -4 26 -4c23.333 0 39.166 7.83301 47.499 23.5s12.5 39.5 12.5 71.5v35h104v-22c0 -124.667 -54.333 -187 -163 -187z" />
    <glyph glyph-name="uni0206" unicode="&#x206;" horiz-adv-x="407" 
d="M89 877c0 22.667 1.99609 42.333 5.99609 59s10.833 32.167 20.5 46.5s23.334 25.166 41.001 32.499s39.167 11 64.5 11c20.667 0 38.834 -2.66699 54.501 -8s28.334 -12.166 38.001 -20.499s17.5 -19 23.5 -32s10.167 -26.5 12.5 -40.5s3.5 -30 3.5 -48h-63
c0 32 -5.16699 54.667 -15.5 68s-27.833 20 -52.5 20c-25.333 0 -43.166 -6.83301 -53.499 -20.5s-15.833 -36.167 -16.5 -67.5h-63zM62.9961 -0.000976562v810h314v-84h-201v-268h163v-80h-163v-297h203v-81h-316z" />
    <glyph glyph-name="uni0207" unicode="&#x207;" horiz-adv-x="420" 
d="M79 645c0 22.667 1.99609 42.333 5.99609 59s10.833 32.167 20.5 46.5s23.334 25.166 41.001 32.499s39.167 11 64.5 11c20.667 0 38.834 -2.66699 54.501 -8s28.334 -12.166 38.001 -20.499s17.5 -19 23.5 -32s10.167 -26.5 12.5 -40.5s3.5 -30 3.5 -48h-63
c0 32 -5.16699 54.667 -15.5 68s-27.833 20 -52.5 20c-25.333 0 -43.166 -6.83301 -53.499 -20.5s-15.833 -36.167 -16.5 -67.5h-63zM149.996 344.999l123 -0.00195312v52c0 15.333 -0.333008 28.333 -1 39s-2.33398 20.834 -5.00098 30.501s-6.16699 17.334 -10.5 23.001
s-10 10 -17 13s-15.833 4.5 -26.5 4.5c-25.333 0 -42.166 -9 -50.499 -27s-12.5 -52.667 -12.5 -104v-31zM213.996 -8.00293c-34 0 -62.1719 4.83398 -84.5049 14.501s-39.666 24.667 -51.999 45s-21.166 44 -26.499 71s-8 60.5 -8 100.5v132c0 40 2.83301 73.833 8.5 101.5
s14.834 51.5 27.501 71.5s30.167 34.667 52.5 44s49.833 14 82.5 14c20.667 0 38.834 -2 54.501 -6s29.334 -9.33301 41.001 -16s21.667 -15.834 30 -27.501s15 -24 20 -37s8.83301 -28.667 11.5 -47s4.5 -36.5 5.5 -54.5s1.5 -39.333 1.5 -64v-47h-228v-77v-6
c0 -16 0.166992 -28 0.5 -36s1 -18.333 2 -31s2.83301 -22 5.5 -28s6.33398 -12.5 11.001 -19.5s10.667 -11.833 18 -14.5s16 -4 26 -4c23.333 0 39.166 7.83301 47.499 23.5s12.5 39.5 12.5 71.5v35h104v-22c0 -124.667 -54.333 -187 -163 -187z" />
    <glyph glyph-name="uni0208" unicode="&#x208;" horiz-adv-x="247" 
d="M161 877l-74 170h88l40 -170h-54zM33 877l-112 170h108l58 -170h-54zM69 0v810h111v-810h-111z" />
    <glyph glyph-name="uni0209" unicode="&#x209;" horiz-adv-x="224" 
d="M151 646l-74 170h88l40 -170h-54zM23 646l-112 170h108l58 -170h-54zM61 0v578h107v-578h-107z" />
    <glyph glyph-name="uni020A" unicode="&#x20a;" horiz-adv-x="247" 
d="M-8 877c0 22.667 1.99609 42.333 5.99609 59s10.833 32.167 20.5 46.5s23.334 25.166 41.001 32.499s39.167 11 64.5 11c20.667 0 38.834 -2.66699 54.501 -8s28.334 -12.166 38.001 -20.499s17.5 -19 23.5 -32s10.167 -26.5 12.5 -40.5s3.5 -30 3.5 -48h-63
c0 32 -5.16699 54.667 -15.5 68s-27.833 20 -52.5 20c-25.333 0 -43.166 -6.83301 -53.499 -20.5s-15.833 -36.167 -16.5 -67.5h-63zM68.9961 -0.000976562v810h111v-810h-111z" />
    <glyph glyph-name="uni020B" unicode="&#x20b;" horiz-adv-x="224" 
d="M-18 645c0 22.667 1.99609 42.333 5.99609 59s10.833 32.167 20.5 46.5s23.334 25.166 41.001 32.499s39.167 11 64.5 11c20.667 0 38.834 -2.66699 54.501 -8s28.334 -12.166 38.001 -20.499s17.5 -19 23.5 -32s10.167 -26.5 12.5 -40.5s3.5 -30 3.5 -48h-63
c0 32 -5.16699 54.667 -15.5 68s-27.833 20 -52.5 20c-25.333 0 -43.166 -6.83301 -53.499 -20.5s-15.833 -36.167 -16.5 -67.5h-63zM60.9961 -0.000976562v578h107v-578h-107z" />
    <glyph glyph-name="uni020C" unicode="&#x20c;" horiz-adv-x="539" 
d="M307 877l-74 170h88l40 -170h-54zM179 877l-112 170h108l58 -170h-54zM270 -9c-40.667 0 -75.332 6 -103.999 18s-51.5 29.833 -68.5 53.5s-29.5 51 -37.5 82s-12 67.5 -12 109.5v307c0 84 17.167 147.667 51.5 191s91.166 65 170.499 65
c78.667 0 135.167 -21.833 169.5 -65.5s51.5 -107.167 51.5 -190.5v-308c0 -84 -17.333 -148.667 -52 -194s-91 -68 -169 -68zM269.502 80c22.333 0 40.666 3.33301 54.999 10s25.333 17 33 31s12.834 29.333 15.501 46s4 37.334 4 62.001v355c0 24.667 -1.33301 45 -4 61
s-7.83398 30.833 -15.501 44.5s-18.667 23.667 -33 30s-32.666 9.5 -54.999 9.5s-40.666 -3.16699 -54.999 -9.5s-25.333 -16.333 -33 -30s-12.834 -28.5 -15.501 -44.5s-4 -36.333 -4 -61v-355c0 -24.667 1.33301 -45.334 4 -62.001s7.83398 -32 15.501 -46
s18.667 -24.333 33 -31s32.666 -10 54.999 -10z" />
    <glyph glyph-name="uni020D" unicode="&#x20d;" horiz-adv-x="423" 
d="M249 646l-74 170h88l40 -170h-54zM121 646l-112 170h108l58 -170h-54zM212 -8c-31.333 0 -58 4.83105 -80 14.498s-39.333 24.167 -52 43.5s-22 41.5 -28 66.5s-9 54.5 -9 88.5v168c0 34 3 63.5 9 88.5s15.333 47.167 28 66.5s30 33.833 52 43.5s48.667 14.5 80 14.5
c60.667 0 103.834 -18.167 129.501 -54.5s38.5 -89.166 38.5 -158.499v-168c0 -69.333 -12.833 -122.166 -38.5 -158.499s-68.834 -54.5 -129.501 -54.5zM212 70.998c10 0 18.665 1.50195 25.998 4.50195s13 7.83301 17 14.5s7.33301 13.167 10 19.5s4.5 15.5 5.5 27.5
s1.66699 21.667 2 29s0.5 18 0.5 32v181c0 12.667 -0.166992 22.167 -0.5 28.5s-0.666016 14.833 -0.999023 25.5s-1.33301 18.834 -3 24.501s-4 12.167 -7 19.5s-6.66699 12.833 -11 16.5s-9.66602 6.83398 -15.999 9.50098s-13.833 4 -22.5 4s-16.334 -1.33301 -23.001 -4
s-12 -5.83398 -16 -9.50098s-7.66699 -9.16699 -11 -16.5s-5.66602 -13.833 -6.99902 -19.5s-2.33301 -13.834 -3 -24.501s-1.16699 -19.167 -1.5 -25.5s-0.5 -15.833 -0.5 -28.5v-181c0 -12.667 0.166992 -22 0.5 -28s0.833008 -14.333 1.5 -25s1.66699 -18.834 3 -24.501
s3.66602 -12.167 6.99902 -19.5s7 -12.833 11 -16.5s9.33301 -6.83398 16 -9.50098s14.334 -4 23.001 -4z" />
    <glyph glyph-name="uni020E" unicode="&#x20e;" horiz-adv-x="539" 
d="M137 877c0 22.667 1.99609 42.333 5.99609 59s10.833 32.167 20.5 46.5s23.334 25.166 41.001 32.499s39.167 11 64.5 11c20.667 0 38.834 -2.66699 54.501 -8s28.334 -12.166 38.001 -20.499s17.5 -19 23.5 -32s10.167 -26.5 12.5 -40.5s3.5 -30 3.5 -48h-63
c0 32 -5.16699 54.667 -15.5 68s-27.833 20 -52.5 20c-25.333 0 -43.166 -6.83301 -53.499 -20.5s-15.833 -36.167 -16.5 -67.5h-63zM269.996 -9.00098c-40.667 0 -75.332 6 -103.999 18s-51.5 29.833 -68.5 53.5s-29.5 51 -37.5 82s-12 67.5 -12 109.5v307
c0 84 17.167 147.667 51.5 191s91.166 65 170.499 65c78.667 0 135.167 -21.833 169.5 -65.5s51.5 -107.167 51.5 -190.5v-308c0 -84 -17.333 -148.667 -52 -194s-91 -68 -169 -68zM269.498 79.999c22.333 0 40.666 3.33301 54.999 10s25.333 17 33 31
s12.834 29.333 15.501 46s4 37.334 4 62.001v355c0 24.667 -1.33301 45 -4 61s-7.83398 30.833 -15.501 44.5s-18.667 23.667 -33 30s-32.666 9.5 -54.999 9.5s-40.666 -3.16699 -54.999 -9.5s-25.333 -16.333 -33 -30s-12.834 -28.5 -15.501 -44.5s-4 -36.333 -4 -61v-355
c0 -24.667 1.33301 -45.334 4 -62.001s7.83398 -32 15.501 -46s18.667 -24.333 33 -31s32.666 -10 54.999 -10z" />
    <glyph glyph-name="uni020F" unicode="&#x20f;" horiz-adv-x="423" 
d="M80 645c0 22.667 1.99609 42.333 5.99609 59s10.833 32.167 20.5 46.5s23.334 25.166 41.001 32.499s39.167 11 64.5 11c20.667 0 38.834 -2.66699 54.501 -8s28.334 -12.166 38.001 -20.499s17.5 -19 23.5 -32s10.167 -26.5 12.5 -40.5s3.5 -30 3.5 -48h-63
c0 32 -5.16699 54.667 -15.5 68s-27.833 20 -52.5 20c-25.333 0 -43.166 -6.83301 -53.499 -20.5s-15.833 -36.167 -16.5 -67.5h-63zM211.996 -8.00098c-31.333 0 -58 4.83105 -80 14.498s-39.333 24.167 -52 43.5s-22 41.5 -28 66.5s-9 54.5 -9 88.5v168
c0 34 3 63.5 9 88.5s15.333 47.167 28 66.5s30 33.833 52 43.5s48.667 14.5 80 14.5c60.667 0 103.834 -18.167 129.501 -54.5s38.5 -89.166 38.5 -158.499v-168c0 -69.333 -12.833 -122.166 -38.5 -158.499s-68.834 -54.5 -129.501 -54.5zM211.996 70.9971
c10 0 18.665 1.50195 25.998 4.50195s13 7.83301 17 14.5s7.33301 13.167 10 19.5s4.5 15.5 5.5 27.5s1.66699 21.667 2 29s0.5 18 0.5 32v181c0 12.667 -0.166992 22.167 -0.5 28.5s-0.666016 14.833 -0.999023 25.5s-1.33301 18.834 -3 24.501s-4 12.167 -7 19.5
s-6.66699 12.833 -11 16.5s-9.66602 6.83398 -15.999 9.50098s-13.833 4 -22.5 4s-16.334 -1.33301 -23.001 -4s-12 -5.83398 -16 -9.50098s-7.66699 -9.16699 -11 -16.5s-5.66602 -13.833 -6.99902 -19.5s-2.33301 -13.834 -3 -24.501s-1.16699 -19.167 -1.5 -25.5
s-0.5 -15.833 -0.5 -28.5v-181c0 -12.667 0.166992 -22 0.5 -28s0.833008 -14.333 1.5 -25s1.66699 -18.834 3 -24.501s3.66602 -12.167 6.99902 -19.5s7 -12.833 11 -16.5s9.33301 -6.83398 16 -9.50098s14.334 -4 23.001 -4z" />
    <glyph glyph-name="uni0210" unicode="&#x210;" horiz-adv-x="519" 
d="M308 877l-74 170h88l40 -170h-54zM180 877l-112 170h108l58 -170h-54zM176 461h43c49.333 0 84.333 9.66699 105 29s31 54.333 31 105c0 49.333 -9 84 -27 104s-52 30 -102 30h-50v-268zM63 0v810h163c82 0 142.167 -16.833 180.5 -50.5s57.5 -88.5 57.5 -164.5
c0 -104 -33.333 -167 -100 -189l115 -406h-109l-106 380h-88v-380h-113z" />
    <glyph glyph-name="uni0211" unicode="&#x211;" horiz-adv-x="321" 
d="M220 646l-74 170h88l40 -170h-54zM92 646l-112 170h108l58 -170h-54zM57 0l-0.000976562 578h107v-82c20 33.333 40.333 56.5 61 69.5s43 19.5 67 19.5c6.66699 0 12.334 -0.333008 17.001 -1v-118c-20 7.33301 -39.667 11.333 -59 12c-18 0 -33.667 -4 -47 -12
s-26.333 -22.667 -39 -44v-422h-107z" />
    <glyph glyph-name="uni0212" unicode="&#x212;" horiz-adv-x="519" 
d="M139 877c0 22.667 1.99609 42.333 5.99609 59s10.833 32.167 20.5 46.5s23.334 25.166 41.001 32.499s39.167 11 64.5 11c20.667 0 38.834 -2.66699 54.501 -8s28.334 -12.166 38.001 -20.499s17.5 -19 23.5 -32s10.167 -26.5 12.5 -40.5s3.5 -30 3.5 -48h-63
c0 32 -5.16699 54.667 -15.5 68s-27.833 20 -52.5 20c-25.333 0 -43.166 -6.83301 -53.499 -20.5s-15.833 -36.167 -16.5 -67.5h-63zM175.996 460.999h43c49.333 0 84.333 9.66699 105 29s31 54.333 31 105c0 49.333 -9 84 -27 104s-52 30 -102 30h-50v-268z
M62.9961 -0.000976562v810h163c82 0 142.167 -16.833 180.5 -50.5s57.5 -88.5 57.5 -164.5c0 -104 -33.333 -167 -100 -189l115 -406h-109l-106 380h-88v-380h-113z" />
    <glyph glyph-name="uni0213" unicode="&#x213;" horiz-adv-x="321" 
d="M51 645c0 22.667 1.99609 42.333 5.99609 59s10.833 32.167 20.5 46.5s23.334 25.166 41.001 32.499s39.167 11 64.5 11c20.667 0 38.834 -2.66699 54.501 -8s28.334 -12.166 38.001 -20.499s17.5 -19 23.5 -32s10.167 -26.5 12.5 -40.5s3.5 -30 3.5 -48h-63
c0 32 -5.16699 54.667 -15.5 68s-27.833 20 -52.5 20c-25.333 0 -43.166 -6.83301 -53.499 -20.5s-15.833 -36.167 -16.5 -67.5h-63zM56.9961 -0.000976562l-0.000976562 578h107v-82c20 33.333 40.333 56.5 61 69.5s43 19.5 67 19.5c6.66699 0 12.334 -0.333008 17.001 -1
v-118c-20 7.33301 -39.667 11.333 -59 12c-18 0 -33.667 -4 -47 -12s-26.333 -22.667 -39 -44v-422h-107z" />
    <glyph glyph-name="uni0214" unicode="&#x214;" horiz-adv-x="543" 
d="M308 877l-74 170h88l40 -170h-54zM180 877l-112 170h108l58 -170h-54zM272 -9c-34.667 0 -64.668 4.5 -90.001 13.5s-46 21.167 -62 36.5s-28.833 35.166 -38.5 59.499s-16.334 50.166 -20.001 77.499s-5.5 59 -5.5 95v537h108v-542c0 -23.333 0.5 -43.5 1.5 -60.5
s3.83301 -34 8.5 -51s10.834 -30.667 18.501 -41s18.167 -18.833 31.5 -25.5s29.333 -10 48 -10s34.5 3.33301 47.5 10s23.333 15.167 31 25.5s13.834 24 18.501 41s7.66699 34 9 51s2 37.167 2 60.5v542h107v-537c0 -36 -1.66699 -67.667 -5 -95
s-9.83301 -53.166 -19.5 -77.499s-22.5 -44.166 -38.5 -59.499s-36.667 -27.5 -62 -36.5s-55.333 -13.5 -90 -13.5z" />
    <glyph glyph-name="uni0215" unicode="&#x215;" 
d="M254 646l-74 170h88l40 -170h-54zM126 646l-112 170h108l58 -170h-54zM137 -8c-16 0 -30 3.5 -42 10.5s-21.167 16.333 -27.5 28s-10.833 24 -13.5 37s-4 27.167 -4 42.5v468h107v-436c0 -22 3.33301 -38.5 10 -49.5s18.667 -16.5 36 -16.5c21.333 0 46.333 12 75 36v466
h107v-578h-107v57c-45.333 -43.333 -92.333 -65 -141 -65z" />
    <glyph glyph-name="uni0216" unicode="&#x216;" horiz-adv-x="543" 
d="M140 877c0 22.667 1.99609 42.333 5.99609 59s10.833 32.167 20.5 46.5s23.334 25.166 41.001 32.499s39.167 11 64.5 11c20.667 0 38.834 -2.66699 54.501 -8s28.334 -12.166 38.001 -20.499s17.5 -19 23.5 -32s10.167 -26.5 12.5 -40.5s3.5 -30 3.5 -48h-63
c0 32 -5.16699 54.667 -15.5 68s-27.833 20 -52.5 20c-25.333 0 -43.166 -6.83301 -53.499 -20.5s-15.833 -36.167 -16.5 -67.5h-63zM271.996 -9.00098c-34.667 0 -64.668 4.5 -90.001 13.5s-46 21.167 -62 36.5s-28.833 35.166 -38.5 59.499s-16.334 50.166 -20.001 77.499
s-5.5 59 -5.5 95v537h108v-542c0 -23.333 0.5 -43.5 1.5 -60.5s3.83301 -34 8.5 -51s10.834 -30.667 18.501 -41s18.167 -18.833 31.5 -25.5s29.333 -10 48 -10s34.5 3.33301 47.5 10s23.333 15.167 31 25.5s13.834 24 18.501 41s7.66699 34 9 51s2 37.167 2 60.5v542h107
v-537c0 -36 -1.66699 -67.667 -5 -95s-9.83301 -53.166 -19.5 -77.499s-22.5 -44.166 -38.5 -59.499s-36.667 -27.5 -62 -36.5s-55.333 -13.5 -90 -13.5z" />
    </font>
</defs>
</svg>
