<?xml version="1.0" standalone="no"?>
<!DOCTYPE svg PUBLIC "-//W3C//DTD SVG 1.1//EN" "http://www.w3.org/Graphics/SVG/1.1/DTD/svg11.dtd" >
<svg>
<metadata>
Created by FontForge 20120731 at Fri Aug  1 16:50:33 2014
 By Alfred Xing
Copyright (c) 2010-13 by Vernon Adams
</metadata>
<defs>
<font id="Oswald-Demi-BoldItalic" horiz-adv-x="435" >
  <font-face 
    font-family="Oswald"
    font-weight="600"
    font-style="italic"
    font-stretch="normal"
    units-per-em="1000"
    panose-1="2 0 7 3 0 0 0 0 0 0"
    ascent="800"
    descent="-200"
    x-height="577.998"
    cap-height="810"
    bbox="-77.002 -341 1367.99 1104"
    underline-thickness="30"
    underline-position="-58"
    unicode-range="U+0020-FB04"
  />
<missing-glyph horiz-adv-x="365" 
d="M66 33h200v600h-200v-600zM33 0v667h266v-667h-266z" />
    <glyph glyph-name=".notdef" horiz-adv-x="365" 
d="M66 33h200v600h-200v-600zM33 0v667h266v-667h-266z" />
    <glyph glyph-name="space" unicode=" " horiz-adv-x="232" 
 />
    <glyph glyph-name="exclam" unicode="!" horiz-adv-x="241" 
d="M21 0l16 141h142l-15 -141h-143zM88 196l20 612h148l-116 -612h-52z" />
    <glyph glyph-name="quotedbl" unicode="&#x22;" horiz-adv-x="365" 
d="M77 525l30 285h128l-87 -285h-71zM252 525l30 285h128l-86 -285h-72z" />
    <glyph glyph-name="numbersign" unicode="#" horiz-adv-x="520" 
d="M32 0l63 276h-50l13 97h62l23 105h-74l12 99h89l53 233h110l-53 -233h80l54 233h109l-54 -233h48l-13 -99h-61l-24 -105h74l-13 -97h-85l-64 -276h-109l63 276h-80l-64 -276h-109zM229 373h81l24 105h-81z" />
    <glyph glyph-name="dollar" unicode="$" horiz-adv-x="490" 
d="M203 -98l8.99902 88.0029c-68.667 2.66699 -118 25 -148 67c-25.333 35.333 -38 84.666 -38 147.999c0 12 0.666992 24 2 36l142 26c-1.33301 -14.667 -2 -28.334 -2 -41.001c0 -75.333 22.667 -113 68 -113c20 0 35.167 6.33301 45.5 19s16.5 29 18.5 49
c0.666992 7.33301 1 14.333 1 21c0 23.333 -4.33301 43 -13 59c-12 21.333 -31.667 45.333 -59 72l-82 79c-20 18.667 -35.667 36.667 -47 54c-11.333 16.667 -20.333 37.667 -27 63c-4 16.667 -6.33301 34.334 -7 53.001c0 10.667 0.666992 21.667 2 33
c6 61.333 28.5 109.666 67.5 144.999s89.167 55 150.5 59l9 83h46l-8 -83c27.333 -2 50.666 -7.83301 69.999 -17.5s34.5 -21.334 45.5 -35.001s19.5 -30.5 25.5 -50.5s9.66699 -39.333 11 -58c0.666992 -10.667 1 -21.667 1 -33v-29l-142 -23
c0.666992 16.667 1.33398 32 2.00098 46c0 6.66699 -0.333008 13.334 -1 20.001c-0.666992 18.667 -5.33398 34 -14.001 46c-8.66699 10.667 -21 15.667 -37 15h-4c-19.333 -0.666992 -34.833 -7.5 -46.5 -20.5s-18.5 -29.5 -20.5 -49.5c-0.666992 -6 -1 -12 -1 -18
c0 -8 0.666992 -15 2 -21c2 -12 6.16699 -23.167 12.5 -33.5s12.5 -18.833 18.5 -25.5s14.333 -15.334 25 -26.001l80 -77c16.667 -16 30.834 -31.833 42.501 -47.5s22.834 -33.167 33.501 -52.5c10 -19.333 16.667 -40.666 20 -63.999c2 -14 3 -28.333 3 -43
c0 -10.667 -0.333008 -21.334 -1 -32.001c-6 -54 -27.167 -99.167 -63.5 -135.5s-81.833 -57.5 -136.5 -63.5l-9 -89h-46z" />
    <glyph glyph-name="percent" unicode="%" horiz-adv-x="987" 
d="M248 457c10 0 18.832 1.83203 26.499 5.49902s13.834 8.33398 18.501 14.001s8.66699 13.834 12 24.501s5.66602 21 6.99902 31s3 22.667 5 38l4 35c2 21.333 3 39.666 3 54.999v4c0 16 -3.83301 28 -11.5 36s-20.167 12 -37.5 12c-24.667 0 -41.167 -8 -49.5 -24
s-14.5 -43.667 -18.5 -83l-4 -36c-2 -21.333 -3 -40 -3 -56v-3c0 -16.667 3.83301 -29.667 11.5 -39s19.834 -14 36.501 -14zM237.999 356.999c-64.667 0 -109.333 17.333 -134 52c-19.333 26.667 -29 64 -29 112c0 14 0.666992 29.333 2 46l4 39
c7.33301 71.333 26.666 123.5 57.999 156.5s80 49.5 146 49.5c66.667 0 112.334 -16 137.001 -48c19.333 -24.667 28.666 -61 27.999 -109c0 -14 -0.666992 -29.333 -2 -46l-5 -44c-7.33301 -70.667 -27.166 -123 -59.499 -157s-80.833 -51 -145.5 -51zM748 96.999
c10 0 18.8301 1.83301 26.4971 5.5s13.834 8.5 18.501 14.5s8.66699 14.167 12 24.5s5.66602 20.5 6.99902 30.5s3 22.667 5 38l4 36c2 21.333 3 39.666 3 54.999v3c0 16 -3.83301 28.167 -11.5 36.5s-20.167 12.5 -37.5 12.5c-10.667 0 -19.667 -1.66699 -27 -5
s-13.333 -7.5 -18 -12.5s-8.66699 -12.667 -12 -23s-5.66602 -20 -6.99902 -29s-2.66602 -21.5 -3.99902 -37.5l-4 -36c-2 -21.333 -3 -39.666 -3 -54.999v-5c0 -16.667 3.83301 -29.667 11.5 -39s19.834 -14 36.501 -14zM736.997 -2.00098
c-64.667 0 -108.999 17.335 -132.999 52.002c-19.333 27.333 -29.333 65 -30 113c0 14 1 29 3 45l4 39c7.33301 71.333 26.666 123.5 57.999 156.5s80 49.5 146 49.5c66.667 0 112.334 -16.333 137.001 -49c18.667 -24.667 28 -60.334 28 -107.001
c0 -14.667 -1 -30.334 -3 -47.001l-4 -44c-7.33301 -70.667 -27.333 -123 -60 -157s-81.334 -51 -146.001 -51zM303.998 0.000976562l321 810h94l-321 -810h-94z" />
    <glyph glyph-name="ampersand" unicode="&#x26;" horiz-adv-x="582" 
d="M201 -11c-54.667 0 -96.667 17.3369 -126 52.0039c-24.667 28.667 -37 64.667 -37 108c0 8.66699 0.666992 17.667 2 27c4.66699 46.667 20.167 91.5 46.5 134.5s57.5 80.167 93.5 111.5c-4 10.667 -11 27.834 -21 51.501s-17.667 42.167 -23 55.5
c-4.66699 13.333 -9 30.333 -13 51c-2.66699 14 -4 27.333 -4 40c0 6.66699 0.333008 13 1 19c5.33301 52 25.5 95.167 60.5 129.5s78.833 51.5 131.5 51.5c51.333 0 92.333 -15 123 -45c26 -26 39 -59 39 -99c0 -6.66699 -0.333008 -14 -1 -22
c-1.33301 -12 -3.5 -23.833 -6.5 -35.5s-7.16699 -23.167 -12.5 -34.5s-10.333 -21.5 -15 -30.5s-11.334 -19 -20.001 -30s-15.667 -19.833 -21 -26.5s-13.166 -15.334 -23.499 -26.001s-17.833 -18.334 -22.5 -23.001s-12.667 -12.334 -24 -23.001
s-18.333 -17.334 -21 -20.001l81 -176c9.33301 14.667 18.333 37.834 27 69.501s15.334 62.834 20.001 93.501h113c-9.33301 -87.333 -39.666 -170 -90.999 -248c6 -8.66699 15 -16.334 27 -23.001s24.667 -10.334 38 -11.001l-13 -120c-10.667 -2 -18.334 -3 -23.001 -3
c-7.33301 0 -14.5 0.666992 -21.5 2s-14 3.83301 -21 7.5s-12.833 6.83398 -17.5 9.50098s-10.5 7.16699 -17.5 13.5s-11.667 10.666 -14 12.999s-7.33301 7.5 -15 15.5s-11.834 12.333 -12.501 13c-20 -22.667 -44.5 -40.334 -73.5 -53.001s-59.833 -19 -92.5 -19z
M214 95.0039c33.333 0 62.332 14.334 86.999 43.001c-50 112.667 -76 173.667 -78 183c-32.667 -43.333 -51.667 -89 -57 -137c-0.666992 -6 -1 -11.667 -1 -17c0 -18.667 3.66699 -34.334 11 -47.001c8.66699 -16.667 21.334 -25 38.001 -25zM270.999 483.005
c16.667 23.333 33.165 52.168 49.498 86.501s25.833 64.5 28.5 90.5c0 2.66699 0.333008 5 1 7c0 12.667 -3.66699 22.667 -11 30c-8.66699 9.33301 -20 14 -34 14c-15.333 0 -28.166 -6.33301 -38.499 -19s-16.166 -28.334 -17.499 -47.001
c0 -14 -0.166992 -25.333 -0.5 -34s0.666992 -20.5 3 -35.5s4.5 -26.667 6.5 -35s4.5 -19 7.5 -32s4.83301 -21.5 5.5 -25.5z" />
    <glyph glyph-name="quotesingle" unicode="'" horiz-adv-x="280" 
d="M87 525l30 285h124l-79 -285h-75z" />
    <glyph glyph-name="parenleft" unicode="(" horiz-adv-x="327" 
d="M250 -187c-23.333 0 -44.3262 3.00098 -62.9932 9.00098s-34.834 14.167 -48.501 24.5s-25.5 23.833 -35.5 40.5s-18 33.667 -24 51s-10.667 38.333 -14 63s-5 48 -5 70v27c0 15.333 0.333008 32 1 50c1.33301 30 3 57 5 81s4.66699 52 8 84
c3.33301 33.333 6.5 62.5 9.5 87.5s7.16699 52.667 12.5 83s10.666 56.5 15.999 78.5s12.166 45.333 20.499 70s17.333 45.667 27 63s21 34.333 34 51s27.333 30 43 40s33.5 17.833 53.5 23.5s41.667 8.5 65 8.5l-10 -102c-11.333 0 -21.833 -3.5 -31.5 -10.5
s-18.334 -16.5 -26.001 -28.5s-14.834 -27.667 -21.501 -47s-12.334 -39.333 -17.001 -60s-9.33398 -45.834 -14.001 -75.501s-8.66699 -58.167 -12 -85.5s-7 -59.333 -11 -96c-4.66699 -42.667 -8 -80 -10 -112c-2.66699 -32 -4.66699 -64 -6 -96v-33
c0 -17.333 0.666992 -33 2 -47c2 -21.333 5.33301 -40.833 10 -58.5s11.5 -30.5 20.5 -38.5s19.833 -12 32.5 -12z" />
    <glyph glyph-name="parenright" unicode=")" horiz-adv-x="306" 
d="M-11 -187l11.0029 103.001c15.333 0 29.166 6.5 41.499 19.5s22.833 30.333 31.5 52s16.834 50.167 24.501 85.5s14 71.5 19 108.5s10.167 81.167 15.5 132.5c4.66699 43.333 8.16699 80.5 10.5 111.5s4.16602 62.833 5.49902 95.5c0.666992 14 1 27.333 1 40
c0 16 -0.333008 30.333 -1 43c-2 21.333 -5.33301 41 -10 59s-11.5 31.333 -20.5 40s-20.167 13 -33.5 13l11 102c30 0 56.167 -4.83301 78.5 -14.5s40.666 -22.334 54.999 -38.001s25.666 -36.667 33.999 -63s14.5 -52.5 18.5 -78.5c3.33301 -22.667 5 -50 5 -82
c0 -4 -0.333008 -8.33301 -1 -13c-0.666992 -38 -2 -72.5 -4 -103.5s-5.33301 -68.167 -10 -111.5c-3.33301 -32 -6.5 -60 -9.5 -84s-7 -51 -12 -81s-10.333 -56 -16 -78s-12.5 -45.333 -20.5 -70s-17 -45.667 -27 -63s-21.667 -34.333 -35 -51s-27.833 -30.167 -43.5 -40.5
s-33.5 -18.5 -53.5 -24.5s-41.667 -9 -65 -9z" />
    <glyph glyph-name="asterisk" unicode="*" horiz-adv-x="417" 
d="M190 455l-82 51l84 104l-105 43l43 90l96 -56v122h110l-25 -122l107 56l25 -91l-115 -42l64 -103l-95 -52l-42 112z" />
    <glyph glyph-name="plus" unicode="+" horiz-adv-x="441" 
d="M166 207l17 162h-142l9 93h143l16 159h102l-17 -159h146l-10 -93h-145l-17 -162h-102z" />
    <glyph glyph-name="comma" unicode="," horiz-adv-x="222" 
d="M24 -139l-7 53c20.667 4.66699 38 14 52 28s22.333 33.333 25 58h-77l15 142h143l-14 -128c-9.33301 -90.667 -55 -141.667 -137 -153z" />
    <glyph glyph-name="hyphen" unicode="-" horiz-adv-x="368" 
d="M64 282l11 100h249l-10 -100h-250z" />
    <glyph glyph-name="period" unicode="." horiz-adv-x="227" 
d="M21 0l16 144h142l-15 -144h-143z" />
    <glyph glyph-name="slash" unicode="/" horiz-adv-x="408" 
d="M15 0l321 810h93l-322 -810h-92z" />
    <glyph glyph-name="zero" unicode="0" horiz-adv-x="525" 
d="M251 120c40.667 0 64.6641 35 71.9971 105l37 354c0.666992 9.33301 1.33398 17.5 2.00098 24.5s0.833984 15 0.500977 24s-1.5 16.833 -3.5 23.5s-4.83301 13 -8.5 19s-8.83398 10.5 -15.501 13.5s-14.667 4.5 -24 4.5c-11.333 0 -21.166 -2.5 -29.499 -7.5
s-14.833 -10.833 -19.5 -17.5s-8.66699 -15.334 -12 -26.001s-5.66602 -20.167 -6.99902 -28.5s-2.66602 -18.166 -3.99902 -29.499l-37 -354c-0.666992 -10.667 -1.33398 -20.667 -2.00098 -30c0 -50 17 -75 51 -75zM236.997 -13c-69.333 0 -120.332 21.333 -152.999 64
c-26.667 34.667 -39.667 78.667 -39 132c0 12.667 0.666992 25.667 2 39l37 361c8 74 32.167 132 72.5 174s96.5 63 168.5 63c71.333 0 122.666 -21 153.999 -63c25.333 -34 38 -78 38 -132c0 -13.333 -0.666992 -27.333 -2 -42l-38 -361
c-7.33301 -70.667 -32 -127.5 -74 -170.5s-97.333 -64.5 -166 -64.5z" />
    <glyph glyph-name="one" unicode="1" horiz-adv-x="525" 
d="M191 0l68 648l-127 -40l12 114c28 10 58.833 23.167 92.5 39.5s58.167 32.5 73.5 48.5h118l-85 -810h-152z" />
    <glyph glyph-name="two" unicode="2" horiz-adv-x="525" 
d="M28 0l11.0039 107.004l227 305c4 6 11.5 16 22.5 30s19.167 24.5 24.5 31.5s12.333 17 21 30s15.167 24.333 19.5 34s8.5 20.834 12.5 33.501s6.66699 25.334 8 38.001c0.666992 7.33301 1 14 1 20c0 18.667 -3.66699 33.667 -11 45
c-8.66699 13.333 -21.667 19.666 -39 18.999h-8c-44 -3.33301 -70.333 -44 -79 -122l-4 -36h-148l4 38c4 37.333 11.667 70.666 23 99.999s26.666 55.166 45.999 77.499s43.666 39.666 72.999 51.999s63.333 18.5 102 18.5c70 0 121 -18.667 153 -56
c26.667 -30.667 39.667 -71.334 39 -122.001c0 -11.333 -0.666992 -23.333 -2 -36c-0.666992 -10 -2.16699 -20 -4.5 -30s-4.5 -19.167 -6.5 -27.5s-5.33301 -17.5 -10 -27.5s-8.33398 -18.167 -11.001 -24.5s-7.33398 -14.5 -14.001 -24.5s-11.5 -17.5 -14.5 -22.5
s-8.5 -12.833 -16.5 -23.5s-13.333 -17.834 -16 -21.501s-8.66699 -11.5 -18 -23.5s-15 -19.333 -17 -22l-184 -239h240l-13 -121h-411z" />
    <glyph glyph-name="three" unicode="3" horiz-adv-x="525" 
d="M240 -13c-130 0 -195 63.9971 -195 191.997c0 15.333 1 31.666 3 48.999l3 28h152c0 -0.666992 -0.5 -4.66699 -1.5 -12s-1.5 -11.666 -1.5 -12.999c-1.33301 -14.667 -2 -27.667 -2 -39c0 -22 2.33301 -38.667 7 -50c7.33301 -18 23.666 -27.333 48.999 -28
c26 0 44.333 9.5 55 28.5s18 49.167 22 90.5c1.33301 14 2 26.667 2 38c0 12 -0.666992 22.333 -2 31c-3.33301 18 -11.166 32.333 -23.499 43s-30.166 16.667 -53.499 18h-24l12 117h22c35.333 0.666992 60.666 10 75.999 28s25 47.667 29 89
c0.666992 10.667 1.33398 20.334 2.00098 29.001c0 20 -3 36 -9 48c-8 16.667 -24.333 25 -49 25c-13.333 0 -24.5 -2.66699 -33.5 -8s-16.167 -13.166 -21.5 -23.499s-9.5 -21.5 -12.5 -33.5s-5.83301 -26.667 -8.5 -44c0 -8.66699 -1 -19.667 -3 -33h-152l5 42
c7.33301 70.667 31.833 125.334 73.5 164.001s96.834 58 165.501 58c69.333 0 120.666 -18.667 153.999 -56c28 -30.667 42 -72.667 42 -126c0 -11.333 -0.666992 -23 -2 -35c-4.66699 -46 -18.334 -84.667 -41.001 -116s-50 -51.333 -82 -60
c58 -21.333 87 -71.666 87 -150.999c0 -12.667 -1 -26.334 -3 -41.001c-4 -38 -11.5 -71.833 -22.5 -101.5s-26 -55.667 -45 -78s-43.167 -39.5 -72.5 -51.5s-63 -18 -101 -18z" />
    <glyph glyph-name="four" unicode="4" horiz-adv-x="525" 
d="M252 0l20 193h-242l14 126l259 491h173l-52 -499h81l-12 -118h-81l-21 -193h-139zM166 311h118l36 341z" />
    <glyph glyph-name="five" unicode="5" horiz-adv-x="525" 
d="M240 -13c-41.333 0 -75.333 6.00195 -102 18.002s-46 28.833 -58 50.5s-20 47.834 -24 78.501c-1.33301 13.333 -2 26.666 -2 39.999c0 19.333 1.33301 40 4 62h148c-2 -22.667 -3 -43 -3 -61v-11c0.666992 -20 5.66699 -35.333 15 -46s23 -16 41 -16h1
c8.66699 0 16.667 1.66699 24 5s13.5 7.16602 18.5 11.499s9.5 11.166 13.5 20.499s7.33301 17.833 10 25.5s5 18.667 7 33s3.66699 26.5 5 36.5s3 24.333 5 43c2.66699 27.333 4 51.333 4 72v4c0 22 -4.83301 39.333 -14.5 52s-24.167 19 -43.5 19
c-36.667 0 -63 -23.667 -79 -71h-130l57 457h373l-13 -133h-247l-28 -179c10 10.667 24.667 19.334 44 26.001s40.666 11 63.999 13h16c54 0 92.667 -20 116 -60c19.333 -33.333 29.333 -77.333 30 -132c0 -18.667 -1.33301 -38.334 -4 -59.001c-4 -36.667 -9 -69 -15 -97
s-15 -55.167 -27 -81.5s-26.833 -47.833 -44.5 -64.5s-40.167 -30.167 -67.5 -40.5s-58.666 -15.5 -93.999 -15.5z" />
    <glyph glyph-name="six" unicode="6" horiz-adv-x="525" 
d="M244 -11c-37.333 0 -69.5 6.83203 -96.5 20.499s-47.667 32.667 -62 57s-23.833 52.5 -28.5 84.5c-2.66699 18 -4 37 -4 57c0 15.333 0.666992 31.666 2 48.999l29 280c3.33301 33.333 8.5 63.5 15.5 90.5s16.667 52.833 29 77.5s27.5 45.167 45.5 61.5
s40.167 29.333 66.5 39s56.5 14.5 90.5 14.5c70.667 0 120.667 -17.333 150 -52c24 -28 36 -68 36 -120c0 -11.333 -0.666992 -22.666 -2 -33.999c0 -0.666992 -0.166992 -2.83398 -0.5 -6.50098l-0.5 -5.5h-145c1.33301 15.333 2.33301 29 3 41
c0 5.33301 -0.333008 10 -1 14c-0.666992 14.667 -5.16699 26 -13.5 34s-21.166 12 -38.499 12c-24.667 0 -42.667 -12.167 -54 -36.5s-20.333 -67.166 -27 -128.499l-9 -85c10 15.333 24.667 27.166 44 35.499s41 12.833 65 13.5h4c24.667 0 46 -3.33301 64 -10
c19.333 -7.33301 34.666 -18.166 45.999 -32.499s20.5 -31.166 27.5 -50.499s10.833 -40.666 11.5 -63.999v-16c0 -18.667 -0.666992 -38.334 -2 -59.001c-20 -187.333 -101.667 -281 -245 -281zM258 103.999c12.667 0 23.5 3.33301 32.5 10s16.333 16.5 22 29.5
s10.167 27.167 13.5 42.5s6 34.333 8 57c2 26.667 4 50.667 6 72v8c0 17.333 -3.66699 32 -11 44c-8.66699 13.333 -22.667 20 -42 20c-14.667 0 -28.167 -4 -40.5 -12s-21.833 -17.667 -28.5 -29l-13 -126c-1.33301 -12.667 -2 -24 -2 -34c0 -54.667 18.333 -82 55 -82z
" />
    <glyph glyph-name="seven" unicode="7" horiz-adv-x="525" 
d="M115 0l238 694h-230l11 116h380l-11 -104l-241 -706h-147z" />
    <glyph glyph-name="eight" unicode="8" horiz-adv-x="525" 
d="M240 -12c-128.667 0 -193.001 65.334 -193.001 196.001c0 17.333 1.33301 35.333 4 54c4.66699 44 16.5 82.167 35.5 114.5s44.833 57.166 77.5 74.499c-42.667 34.667 -64 84 -64 148c0 9.33301 0.666992 19 2 29c6 68.667 28.333 121.834 67 159.501
s91.667 56.5 159 56.5c66.667 0 115 -19 145 -57c24 -30 36 -69.333 36 -118c0 -13.333 -1 -27 -3 -41c-9.33301 -79.333 -42.333 -138.333 -99 -177c28.667 -16.667 49.334 -41.334 62.001 -74.001c9.33301 -24.667 14 -52.667 14 -84c0 -10 -0.333008 -20.333 -1 -31
c-15.333 -166.667 -96 -250 -242 -250zM251.999 102.001c14.667 0 27.166 3.83691 37.499 11.5039s18.333 18.5 24 32.5s9.83398 27.167 12.501 39.5s5 26.833 7 43.5c2 13.333 3 26.666 3 39.999v7c-0.666992 15.333 -2.33398 29.166 -5.00098 41.499
s-8.5 22.166 -17.5 29.499s-20.5 11 -34.5 11s-26 -3.5 -36 -10.5s-18.167 -17.167 -24.5 -30.5s-11 -26.833 -14 -40.5s-5.5 -29.5 -7.5 -47.5c-2 -11.333 -3 -23.333 -3 -36v-7c0.666992 -14.667 2.33398 -28.334 5.00098 -41.001s8.5 -23 17.5 -31s20.833 -12 35.5 -12z
M291.998 485.005c38.667 0 62.3311 41.332 70.998 123.999c0.666992 8.66699 1.33398 16.667 2.00098 24c0 18 -3 33.333 -9 46c-8 17.333 -21.667 26.333 -41 27c-20 0 -35.667 -8.66699 -47 -26s-18.666 -40.666 -21.999 -69.999c-1.33301 -15.333 -2 -29.333 -2 -42
c0 -55.333 16 -83 48 -83z" />
    <glyph glyph-name="nine" unicode="9" horiz-adv-x="525" 
d="M234 -11c-71.333 0 -121.332 17.667 -149.999 53c-23.333 28 -35 67.333 -35 118c0 12 0.666992 24.333 2 37l0.5 5c0.333008 3.33301 0.5 5.33301 0.5 6h145c-1.33301 -14 -2 -26 -2 -36c0 -18 2 -32 6 -42c6.66699 -15.333 22.334 -23.333 47.001 -24
c24 0 41.5 12 52.5 36s20.167 67 27.5 129l8 85c-22 -32 -58 -48.333 -108 -49h-3c-24.667 0 -46.334 3.66699 -65.001 11c-19.333 8 -34.666 19.333 -45.999 34s-20.333 32.167 -27 52.5s-10.334 42.166 -11.001 65.499v16c0 18.667 0.666992 38.334 2 59.001
c4.66699 41.333 12.667 78.5 24 111.5s26.5 61.833 45.5 86.5s43.333 43.667 73 57s63.5 20 101.5 20c37.333 0 69.5 -6.5 96.5 -19.5s47.833 -31.167 62.5 -54.5s24.667 -50.666 30 -81.999c2.66699 -16.667 4 -34.667 4 -54c0 -16 -1 -33 -3 -51l-30 -287
c-3.33301 -33.333 -8.33301 -63.5 -15 -90.5s-16.5 -52.667 -29.5 -77s-28.333 -44.833 -46 -61.5s-39.834 -29.834 -66.501 -39.501s-57 -14.5 -91 -14.5zM282.001 422c26.667 0 48.6689 13.6689 66.002 41.002l13 126c1.33301 14 2 27.667 2 41
c0 5.33301 -0.333008 10.666 -1 15.999c-0.666992 16.667 -5.33398 30.667 -14.001 42s-21 17 -37 17c-24 0 -41.5 -11.5 -52.5 -34.5s-19.167 -57.833 -24.5 -104.5c-2.66699 -31.333 -4.33398 -56 -5.00098 -74c0 -11.333 0.666992 -20 2 -26
c6.66699 -28.667 23.667 -43.334 51 -44.001z" />
    <glyph glyph-name="colon" unicode=":" horiz-adv-x="251" 
d="M46 71l16 140h141l-15 -140h-142zM83 412l14 140h142l-15 -140h-141z" />
    <glyph glyph-name="semicolon" unicode=";" horiz-adv-x="262" 
d="M51 -96l-7 51.999c46 4.66699 71.333 30.334 76 77.001h-78l16 141h143l-14 -127c-10 -95.333 -55.333 -143 -136 -143zM84 429.999l15 143h141l-14 -143h-142z" />
    <glyph glyph-name="less" unicode="&#x3c;" horiz-adv-x="391" 
d="M317 76l-280 212l13 124l325 212l-14 -135l-210 -138l181 -141z" />
    <glyph glyph-name="equal" unicode="=" 
d="M63 257l10 96h315l-10 -96h-315zM83 444l9 96h316l-10 -96h-315z" />
    <glyph glyph-name="greater" unicode="&#x3e;" horiz-adv-x="391" 
d="M39 76l14 134l210 141l-180 138l14 135l281 -212l-13 -124z" />
    <glyph glyph-name="question" unicode="?" horiz-adv-x="486" 
d="M136 210l14.002 127c124 98 189 193 195 285v7c0 20 -5 35.333 -15 46c-11.333 12.667 -26.333 19 -45 19s-33.834 -6.16699 -45.501 -18.5s-17.5 -28.833 -17.5 -49.5c0 -3.33301 -0.333008 -7 -1 -11c0 -10 1.33301 -22 4 -36l-138 -29c-3.33301 24.667 -5 44 -5 58v11
c0 60.667 18.333 109.667 55 147s89.667 56 159 56s121 -18 155 -54c28 -30 42 -70 42 -120c0 -10 -0.666992 -20.667 -2 -32c-6 -58 -28.333 -113.5 -67 -166.5s-86.334 -100.5 -143.001 -142.5l-10 -97h-135zM109.002 0l16 143h146l-16 -143h-146z" />
    <glyph glyph-name="at" unicode="@" horiz-adv-x="942" 
d="M435 -131c-140.667 0 -243.673 39.999 -309.006 119.999c-46 56.667 -69 129.667 -69 219c0 36 3.66699 74.667 11 116c24.667 152.667 84.167 271.834 178.5 357.501s211.833 128.5 352.5 128.5c44 0 84 -5 120 -15s66.833 -24 92.5 -42s47.667 -39.667 66 -65
s31.5 -53.333 39.5 -84s13 -63.334 15 -98.001c0 -7.33301 0.333008 -14.666 1 -21.999c0 -28 -3 -57 -9 -87c-4 -28 -11.167 -56 -21.5 -84s-23.833 -55 -40.5 -81s-35.5 -49 -56.5 -69s-45.833 -36 -74.5 -48s-59.334 -18 -92.001 -18c-29.333 0 -54.666 7 -75.999 21
s-33.666 33.667 -36.999 59c-9.33301 -19.333 -22.666 -36 -39.999 -50s-37.666 -21.667 -60.999 -23c-5.33301 0 -10.666 -0.333008 -15.999 -1c-45.333 0 -79.333 17.333 -102 52c-20 29.333 -30 65 -30 107c0 12.667 1 25.667 3 39c3.33301 26 9.5 52.667 18.5 80
s21.167 54.833 36.5 82.5s33 52.334 53 74.001s43.5 39.167 70.5 52.5s55.167 20 84.5 20c8.66699 0 16.834 -1.66699 24.501 -5s13.834 -7.83301 18.501 -13.5s8.66699 -11.334 12 -17.001s6 -10.834 8 -15.501c0 -0.666992 0.166992 -1.33398 0.5 -2.00098
s0.833008 -1.33398 1.5 -2.00098l15 48h116l-85 -342c-6 -25.333 -8.66699 -44.333 -8 -57v-11c2 -7.33301 6.33301 -11.666 13 -12.999c3.33301 0 6.66602 -0.333008 9.99902 -1c18 0 37 8 57 24c22.667 18.667 42.5 45 59.5 79s28.5 71 34.5 111
c4.66699 32.667 7.33398 63.334 8.00098 92.001v10c-0.666992 32 -6.66699 61.5 -18 88.5s-26.5 50.167 -45.5 69.5s-44.333 34.333 -76 45s-68.5 16 -110.5 16c-54.667 0 -105 -9.66699 -151 -29s-85.167 -46.666 -117.5 -81.999s-59.166 -76.166 -80.499 -122.499
s-36.666 -97.5 -45.999 -153.5c-7.33301 -37.333 -11 -72 -11 -104c0 -66.667 15.333 -121 46 -163c45.333 -62.667 125.666 -94.334 240.999 -95.001c27.333 0 59.166 2.83301 95.499 8.5s69.833 13.5 100.5 23.5l9 -96c-86 -21.333 -162.333 -32 -229 -32z
M467.994 205.999c6.66699 1.33301 13.332 3.5 19.999 6.5s14.334 8.66699 23.001 17s15.334 18.166 20.001 29.499l56 232c-0.666992 3.33301 -3.83398 5.83301 -9.50098 7.5s-10.834 2.5 -15.501 2.5c-25.333 0 -49.166 -10 -71.499 -30s-40.333 -45.167 -54 -75.5
s-22.5 -62.166 -26.5 -95.499c-0.666992 -8 -1 -15.333 -1 -22c0 -9.33301 0.666992 -18 2 -26c2.66699 -14 9 -25.667 19 -35c8 -7.33301 18 -11 30 -11h8z" />
    <glyph glyph-name="A" unicode="A" horiz-adv-x="533" 
d="M-5 0l245 810h176l73 -810h-150l-11 181h-131l-49 -181h-153zM224 282h98l-15 324z" />
    <glyph glyph-name="B" unicode="B" horiz-adv-x="570" 
d="M36 0l84.998 810.001h204c30 0 56.5 -1.83301 79.5 -5.5s44.833 -10.167 65.5 -19.5s37.334 -21.833 50.001 -37.5s21.667 -35.834 27 -60.501c3.33301 -14.667 5 -30.667 5 -48c0 -12.667 -1 -25.334 -3 -38.001c-11.333 -97.333 -56.666 -152.333 -135.999 -165
c83.333 -14 125 -68.333 125 -163c0 -11.333 -0.666992 -23.333 -2 -36c-8 -79.333 -34.167 -138.666 -78.5 -177.999s-104.833 -59 -181.5 -59h-240zM208.998 114.001h47c42 0 72.167 9.83301 90.5 29.5s29.5 51.5 33.5 95.5c1.33301 11.333 2 22 2 32
c0 30.667 -5.66699 54 -17 70c-15.333 20.667 -44.333 31 -87 31h-42zM247.998 482.001l41 -0.000976562c41.333 0 70.5 9.16699 87.5 27.5s27.5 47.833 31.5 88.5c0.666992 6.66699 1 13.334 1 20.001c0 28 -7.33301 47.667 -22 59c-18 14 -48.667 21.333 -92 22h-24z" />
    <glyph glyph-name="C" unicode="C" horiz-adv-x="548" 
d="M258 -11c-35.333 0 -66.1621 4.33203 -92.4951 12.999s-47.5 20.834 -63.5 36.501s-28.5 34.667 -37.5 57s-14.167 47.5 -15.5 75.5c0 8.66699 -0.333008 17.334 -1 26.001c0 20 1 41.333 3 64l30 285c4.66699 44 12.5 82.167 23.5 114.5s26.667 60.833 47 85.5
s46.666 43.167 78.999 55.5s70.833 18.5 115.5 18.5c42 0 77.167 -5.5 105.5 -16.5s50.166 -27.167 65.499 -48.5c14.667 -21.333 24.334 -45.333 29.001 -72c2.66699 -14.667 3.66699 -31.334 3 -50.001c0 -14.667 -0.666992 -30.334 -2 -47.001l-8 -70h-157l8 74
c0.666992 10 1.33398 16.667 2.00098 20s1.16699 9.33301 1.5 18s0.333008 14.667 0 18s-0.833008 8.5 -1.5 15.5s-2 11.833 -4 14.5s-4.5 6.16699 -7.5 10.5s-6.66699 7.5 -11 9.5s-9.5 3.66699 -15.5 5s-12.667 2 -20 2c-11.333 0 -21.166 -1.33301 -29.499 -4
s-15.5 -7 -21.5 -13s-10.833 -12.167 -14.5 -18.5s-6.83398 -14.666 -9.50098 -24.999s-4.83398 -19.666 -6.50098 -27.999s-2.83398 -18.833 -3.50098 -31.5l-38 -358c-1.33301 -14 -2 -27 -2 -39c0 -21.333 2.66699 -38.333 8 -51
c8.66699 -18.667 26.667 -28.334 54 -29.001c10.667 0 20.167 1.33301 28.5 4s15.333 7.16699 21 13.5s10.167 12.333 13.5 18s6.16602 14 8.49902 25s4.16602 20.167 5.49902 27.5s2.66602 17.666 3.99902 30.999l8 77h157l-7 -68
c-4 -37.333 -11.167 -70.166 -21.5 -98.499s-25 -53.833 -44 -76.5s-44.167 -40 -75.5 -52s-68.333 -18 -111 -18z" />
    <glyph glyph-name="D" unicode="D" horiz-adv-x="566" 
d="M209 113h36.0039c13.333 0 25 1 35 3s18.667 4.5 26 7.5s13.666 8 18.999 15s9.66602 13.5 12.999 19.5s6.16602 14.833 8.49902 26.5s4.16602 21.834 5.49902 30.501s2.66602 21 3.99902 37l34 320c2 18 3 33.667 3 47c0 9.33301 -0.333008 17.666 -1 24.999
c-2 18 -9.66699 31 -23 39s-34.666 12 -63.999 12h-34zM36.0039 0l84.998 809.999h195c50.667 0 92.5 -4.83301 125.5 -14.5s58.5 -25.167 76.5 -46.5s29.667 -47.333 35 -78c2.66699 -16 4 -34 4 -54c0 -18.667 -1.33301 -39 -4 -61l-31 -292
c-6.66699 -62.667 -19.667 -112.667 -39 -150s-49.166 -65.666 -89.499 -84.999s-93.166 -29 -158.499 -29h-199z" />
    <glyph glyph-name="E" unicode="E" 
d="M36 0l85 810h350l-12 -113h-188l-23 -218h147l-12 -113h-147l-27 -255h191l-12 -111h-352z" />
    <glyph glyph-name="F" unicode="F" horiz-adv-x="420" 
d="M36 0l85 810h340l-11 -111h-179l-23 -221h148l-12 -114h-148l-39 -364h-161z" />
    <glyph glyph-name="G" unicode="G" horiz-adv-x="566" 
d="M240 -11c-40 0 -73.5029 6.49805 -100.503 19.498s-47.5 31.5 -61.5 55.5c-14 24.667 -23.333 54.334 -28 89.001c-2 16 -3 33 -3 51c0 20.667 1.33301 42.667 4 66l28 266c4 36.667 9.83301 69.167 17.5 97.5s18.334 54.5 32.001 78.5s30.334 43.667 50.001 59
s43.5 27.333 71.5 36s59.667 13 95 13c42 0 77.5 -5.33301 106.5 -16s51.333 -26.5 67 -47.5s25.834 -45.5 30.501 -73.5c2.66699 -15.333 4 -32.666 4 -51.999c0 -14.667 -1 -30.667 -3 -48l-5 -45h-156l6 52c1.33301 19.333 2 36.666 2 51.999v7
c0 16.667 -5 29.834 -15 39.501s-25.667 14.5 -47 14.5c-14 0 -25.833 -2.5 -35.5 -7.5s-17.5 -10.833 -23.5 -17.5s-11 -16.167 -15 -28.5s-6.83301 -23.333 -8.5 -33s-3.16699 -22.5 -4.5 -38.5l-37 -347c-1.33301 -14 -2 -27 -2 -39c0 -9.33301 0.666992 -18 2 -26
c2 -18.667 8.33301 -33.167 19 -43.5s26 -15.5 46 -15.5c30.667 0 53.167 11.167 67.5 33.5s23.833 54.833 28.5 97.5l7 77h-81l11 101h227l-44 -416h-106l-2 76c-30 -58 -78 -87 -144 -87z" />
    <glyph glyph-name="H" unicode="H" horiz-adv-x="590" 
d="M36 0l85 810h161l-34 -333h147l35 333h161l-85 -810h-161l38 361h-148l-38 -361h-161z" />
    <glyph glyph-name="I" unicode="I" horiz-adv-x="286" 
d="M39 0l85 810h160l-85 -810h-160z" />
    <glyph glyph-name="J" unicode="J" horiz-adv-x="336" 
d="M-16 -19l12 113.999h6c37.333 0 63.333 5.66699 78 17c15.333 12.667 25 38 29 76l65 622h162l-65 -627c-4 -35.333 -10.333 -65 -19 -89s-21 -44.667 -37 -62s-36.5 -30.166 -61.5 -38.499s-55.5 -12.5 -91.5 -12.5h-78z" />
    <glyph glyph-name="K" unicode="K" horiz-adv-x="545" 
d="M36 0l85 810h161l-35 -342l185 342h155l-191 -364l119 -446h-163l-92 373l-28 -42l-35 -331h-161z" />
    <glyph glyph-name="L" unicode="L" horiz-adv-x="427" 
d="M36 0l85 810h161l-73 -699h190l-12 -111h-351z" />
    <glyph glyph-name="M" unicode="M" horiz-adv-x="689" 
d="M33 0l98 810h170l50 -526l164 526h165l-72 -810h-118l46 549l-164 -549h-99l-51 551l-69 -551h-120z" />
    <glyph glyph-name="N" unicode="N" horiz-adv-x="550" 
d="M36 0l85 810h112l139 -428l45 428h134l-85 -810h-107l-138 454l-48 -454h-137z" />
    <glyph glyph-name="O" unicode="O" horiz-adv-x="572" 
d="M272 106c15.333 0 28.666 3 39.999 9s20 14.5 26 25.5s10.333 22.333 13 34s5 26.167 7 43.5l39 376c0.666992 13.333 1.33398 26 2.00098 38c0 6 -0.333008 11.667 -1 17c-0.666992 16 -6.16699 29 -16.5 39s-25.833 15 -46.5 15c-15.333 0 -28.333 -2.66699 -39 -8
s-19 -13.5 -25 -24.5s-10.333 -22.167 -13 -33.5s-5 -25.666 -7 -42.999l-40 -376c-1.33301 -14.667 -2 -28.334 -2 -41.001c0 -5.33301 0.333008 -10.333 1 -15c0.666992 -16 6 -29.333 16 -40s25.333 -16 46 -16zM260 -11c-43.333 0 -79.8311 6 -109.498 18
s-52.5 29.833 -68.5 53.5s-26.333 51.5 -31 83.5c-2.66699 16.667 -4 34.667 -4 54c0 18 1 37.333 3 58l32 300c9.33301 87.333 34.666 153.166 75.999 197.499s104.666 66.5 189.999 66.5c43.333 0 79.833 -5.83301 109.5 -17.5s52.5 -29.167 68.5 -52.5
c15.333 -23.333 26 -51 32 -83c2.66699 -16.667 4 -34.667 4 -54c0 -18 -1 -37 -3 -57l-32 -300c-9.33301 -87.333 -35 -153.666 -77 -198.999s-105.333 -68 -190 -68z" />
    <glyph glyph-name="P" unicode="P" horiz-adv-x="538" 
d="M36 0l85 810.002h249c125.333 0 188.333 -62 189 -186c0 -14 -1 -29.333 -3 -46c-4.66699 -41.333 -13.834 -76.833 -27.501 -106.5s-31.667 -52.834 -54 -69.501s-47.166 -28.834 -74.499 -36.501s-58 -11.5 -92 -11.5h-73l-38 -354h-161zM247 467.002h50.999
c37.333 0 63.333 8.33301 78 25s24 46 28 88c1.33301 16 2.33301 30 3 42c0 8 -0.333008 15.333 -1 22c-1.33301 17.333 -8.66602 30.333 -21.999 39s-34 13 -62 13h-51z" />
    <glyph glyph-name="Q" unicode="Q" horiz-adv-x="572" 
d="M419 -167c-21.333 12 -46.1631 33.668 -74.4961 65.001s-50.833 62 -67.5 92c-3.33301 0 -9 -0.333008 -17 -1c-43.333 0 -79.833 6 -109.5 18s-52.5 29.833 -68.5 53.5s-26.333 51.5 -31 83.5c-2.66699 16.667 -4 34.667 -4 54c0 18 1 37.333 3 58l32 300
c9.33301 87.333 34.666 153.166 75.999 197.499s104.666 66.5 189.999 66.5c43.333 0 79.833 -5.83301 109.5 -17.5s52.5 -29.167 68.5 -52.5c15.333 -23.333 26 -51 32 -83c2.66699 -16.667 4 -34.667 4 -54c0 -18 -1 -37 -3 -57l-32 -300
c-13.333 -123.333 -58.333 -203.333 -135 -240c11.333 -18.667 27.166 -39 47.499 -61s37.166 -38 50.499 -48zM272.003 106.001c15.333 0 28.666 3 39.999 9s20 14.5 26 25.5s10.333 22.333 13 34s5 26.167 7 43.5l39 376c0.666992 13.333 1.33398 26 2.00098 38
c0 6 -0.333008 11.667 -1 17c-0.666992 16 -6.16699 29 -16.5 39s-25.833 15 -46.5 15c-15.333 0 -28.333 -2.66699 -39 -8s-19 -13.5 -25 -24.5s-10.333 -22.167 -13 -33.5s-5 -25.666 -7 -42.999l-40 -376c-1.33301 -14.667 -2 -28.334 -2 -41.001
c0 -5.33301 0.333008 -10.333 1 -15c0.666992 -16 6 -29.333 16 -40s25.333 -16 46 -16z" />
    <glyph glyph-name="R" unicode="R" horiz-adv-x="568" 
d="M36 0l85.0029 810.001h201c34 0 64 -2.16699 90 -6.5s49.5 -11.5 70.5 -21.5s37.833 -23 50.5 -39c13.333 -16 22.666 -36.333 27.999 -61c3.33301 -14.667 4.66602 -31.334 3.99902 -50.001c0 -12 -0.666992 -24.333 -2 -37
c-5.33301 -50.667 -17.833 -92.5 -37.5 -125.5s-48.834 -57.5 -87.501 -73.5l79 -396h-161l-62 366h-58l-39 -366h-161zM246.003 465.001h39.9971c40.667 0 70.334 9.33301 89.001 28s30.334 48.667 35.001 90c0.666992 10 1.33398 19.667 2.00098 29
c0 26.667 -5 46.667 -15 60c-13.333 18 -39 27.333 -77 28h-49z" />
    <glyph glyph-name="S" unicode="S" horiz-adv-x="500" 
d="M242 -11c-74.667 0 -128.333 21.002 -161 63.002c-28 35.333 -42 86 -42 152c0 12 0.666992 24.333 2 37l142 26c-1.33301 -14.667 -2 -28.334 -2 -41.001c0 -75.333 22.667 -113 68 -113c20 0 35.167 6.33301 45.5 19s16.5 29 18.5 49c0.666992 6 1 12 1 18
c0 15.333 -2 29.666 -6 42.999c-6 18 -14 33.333 -24 46s-24.333 27.667 -43 45l-82 79c-30 28.667 -51.667 58 -65 88c-10 22 -15 48.667 -15 80c0 11.333 0.666992 23 2 35c6.66699 65.333 31.167 115.666 73.5 150.999s96.833 53.333 163.5 54h4
c30 0 55.667 -4.33301 77 -13c22.667 -8.66699 40.5 -20 53.5 -34s23.167 -31.167 30.5 -51.5s12 -40.166 14 -59.499c1.33301 -12.667 2 -26.334 2 -41.001c0 -8 -0.333008 -16.333 -1 -25l-142 -23c0.666992 16.667 1.33398 32 2.00098 46
c0 6.66699 -0.333008 13.334 -1 20.001c-0.666992 18.667 -5.33398 34 -14.001 46c-8 10.667 -20 15.667 -36 15h-5c-19.333 -0.666992 -34.833 -7.66699 -46.5 -21s-18.5 -29.666 -20.5 -48.999c-0.666992 -4.66699 -1 -9.33398 -1 -14.001c0 -13.333 2.33301 -26 7 -38
c5.33301 -16 11.666 -28.5 18.999 -37.5s18 -20.5 32 -34.5l81 -77c16.667 -16 30.834 -31.833 42.501 -47.5s22.5 -33.167 32.5 -52.5s17 -40.666 21 -63.999c2 -13.333 3 -27 3 -41c0 -10.667 -0.666992 -22 -2 -34c-6 -58.667 -30 -106.834 -72 -144.501
s-94 -56.5 -156 -56.5z" />
    <glyph glyph-name="T" unicode="T" horiz-adv-x="433" 
d="M113 0l73 690h-131l12 120h420l-12 -120h-128l-73 -690h-161z" />
    <glyph glyph-name="U" unicode="U" horiz-adv-x="574" 
d="M262 -11c-45.333 0 -82.834 6.16797 -112.501 18.501s-51.667 30.333 -66 54s-23.5 52.5 -27.5 86.5c-2 15.333 -3 31.666 -3 48.999c0 21.333 1.66699 43.666 5 66.999l57 546h158l-59 -566c-1.33301 -13.333 -2.33301 -24.666 -3 -33.999v-15v-16
c0.666992 -11.333 2.33398 -20.833 5.00098 -28.5s6.16699 -14.834 10.5 -21.501s10.666 -11.667 18.999 -15s17.833 -5 28.5 -5c13.333 0 25 2.66699 35 8s18 11.833 24 19.5s11 17.834 15 30.501s7 24.667 9 36s4 25 6 41l59 566h159l-58 -546
c-4 -36 -9.5 -67.833 -16.5 -95.5s-17 -53 -30 -76s-29.167 -41.833 -48.5 -56.5s-42.666 -26.167 -69.999 -34.5s-59.333 -12.5 -96 -12.5z" />
    <glyph glyph-name="V" unicode="V" horiz-adv-x="518" 
d="M153 0l-71 810h141l39 -556l150 556h147l-243 -810h-163z" />
    <glyph glyph-name="W" unicode="W" horiz-adv-x="709" 
d="M114 0l-23 810h137l5 -499l128 499h108l25 -498l111 498h134l-192 -810h-135l-27 517l-134 -517h-137z" />
    <glyph glyph-name="X" unicode="X" horiz-adv-x="505" 
d="M-16 0l206 433l-115 377h152l73 -237l106 237h139l-193 -412l122 -398h-152l-79 258l-121 -258h-138z" />
    <glyph glyph-name="Y" unicode="Y" horiz-adv-x="490" 
d="M145 0l33 318l-109 492h152l59 -293l115 293h148l-210 -492l-34 -318h-154z" />
    <glyph glyph-name="Y" unicode="&#x4ae;" horiz-adv-x="490" 
d="M145 0l33 318l-109 492h152l59 -293l115 293h148l-210 -492l-34 -318h-154z" />
    <glyph glyph-name="Z" unicode="Z" horiz-adv-x="428" 
d="M10 0l11 102l269 597h-197l11 111h360l-8 -85l-280 -614h216l-12 -111h-370z" />
    <glyph glyph-name="bracketleft" unicode="[" horiz-adv-x="339" 
d="M11 -188l105 998h246l-7 -62h-121l-92 -873h121l-7 -63h-245z" />
    <glyph glyph-name="backslash" unicode="\" horiz-adv-x="408" 
d="M252 0l-152 810h92l152 -810h-92z" />
    <glyph glyph-name="bracketright" unicode="]" horiz-adv-x="322" 
d="M-22 -188l6 62h122l91 874h-121l6 62h246l-104 -998h-246z" />
    <glyph glyph-name="asciicircum" unicode="^" horiz-adv-x="471" 
d="M58 477l175 333h126l106 -333h-130l-52 210l-96 -210h-129z" />
    <glyph glyph-name="underscore" unicode="_" horiz-adv-x="361" 
d="M-41 -159l10 102h362l-11 -102h-361z" />
    <glyph glyph-name="grave" unicode="`" horiz-adv-x="303" 
d="M209 609l-102 201h151l39 -201h-88z" />
    <glyph glyph-name="a" unicode="a" horiz-adv-x="463" 
d="M141 -10c-26 0 -48.332 7.33301 -66.999 22c-18 14 -31 31.333 -39 52c-6 16 -9 32.667 -9 50c0 5.33301 0.333008 10.666 1 15.999c1.33301 14.667 4.16602 28.834 8.49902 42.501s9.16602 25.834 14.499 36.501s12.333 21 21 31s16.834 18.667 24.501 26
s17.667 14.833 30 22.5s22.5 13.667 30.5 18s19 9.66602 33 15.999s24.833 11 32.5 14s18.834 7.16699 33.501 12.5s25 9 31 11l5 53c0.666992 8 1 15.333 1 22c0 11.333 -1.33301 20 -4 26c-4.66699 10.667 -14.667 16 -30 16c-26.667 0 -42.667 -18.667 -48 -56l-6 -39
l-141 6c0 1.33301 0.5 4.83301 1.5 10.5s1.5 8.83398 1.5 9.50098c10.667 62 34 107.333 70 136s84.667 43 146 43c57.333 0 98.666 -15.333 123.999 -46c20.667 -25.333 31 -58.666 31 -99.999c0 -9.33301 -0.666992 -19 -2 -29l-28 -267
c-3.33301 -32.667 -5 -67.334 -5 -104.001v-41h-133c-3.33301 42 -5 69.667 -5 83c-10.667 -26.667 -26.5 -48.834 -47.5 -66.501s-46.167 -26.5 -75.5 -26.5zM208.001 99c9.33301 0 18.835 3.33398 28.502 10.001s18.167 14 25.5 22l16 159
c-28.667 -14 -53.334 -32.333 -74.001 -55s-32.334 -46.334 -35.001 -71.001c0 -4 -0.333008 -8 -1 -12c0 -14 3 -25.667 9 -35c6.66699 -12 17 -18 31 -18z" />
    <glyph glyph-name="b" unicode="b" horiz-adv-x="490" 
d="M291 -10c-38 0 -74.6689 17.668 -110.002 53.001l-4 -43h-149l85 810h149l-29 -275c41.333 35.333 82.333 52.666 123 51.999h3c16 0 30.333 -2.66699 43 -8s22.834 -12.666 30.501 -21.999s14.334 -20 20.001 -32s9.5 -24.833 11.5 -38.5s3.33301 -27.834 4 -42.501v-12
c0 -10 -0.666992 -19.667 -2 -29l-23 -215c-4 -38 -11.833 -71.5 -23.5 -100.5s-28.5 -52.5 -50.5 -70.5s-48 -27 -78 -27zM239.998 92.001l0.999023 -0.000976562c16 0 28 8 36 24s13.667 38 17 66l24 230c0.666992 8.66699 1.33398 16.334 2.00098 23.001
c0 37.333 -12.333 56 -37 56h-3c-16 0 -34 -7 -54 -21l-38 -361c16.667 -11.333 34 -17 52 -17z" />
    <glyph glyph-name="c" unicode="c" horiz-adv-x="452" 
d="M207 -10c-64.667 0 -111.002 17.998 -139.002 53.998c-22 28 -33 66 -33 114c0 12.667 0.666992 25.334 2 38.001l20 186c6.66699 66 27.5 116.667 62.5 152s84.833 53 149.5 53c62 0 106.667 -14.333 134 -43c22.667 -24 34 -58 34 -102c0 -10 -0.666992 -20.333 -2 -31
l-6 -53h-140l5 57c0.666992 8.66699 1.33398 16 2.00098 22c0 14 -2 24.667 -6 32c-5.33301 10 -15.666 15 -30.999 15c-16 0 -27.833 -6.16699 -35.5 -18.5s-13.167 -34.166 -16.5 -65.499l-23 -224c-1.33301 -12 -2 -22 -2 -30c0 -14.667 1.66699 -26 5 -34
c5.33301 -11.333 15.833 -17 31.5 -17s27.167 5.33301 34.5 16s12.333 27.667 15 51l7 68h141l-6 -61c-6.66699 -58.667 -27 -103.167 -61 -133.5s-81.333 -45.5 -142 -45.5z" />
    <glyph glyph-name="d" unicode="d" horiz-adv-x="486" 
d="M155 -10c-80 0 -120.001 49.6689 -120.001 149.002c0 14.667 1 30.667 3 48l21 198c4 39.333 11.833 73.666 23.5 102.999s29 53.166 52 71.499s50.5 27.5 82.5 27.5c38.667 0 72.667 -15 102 -45l28 268h149l-85 -810h-149l5 42
c-37.333 -34.667 -74.666 -52 -111.999 -52zM223.999 91.002c14 0 30.334 4.99902 49.001 14.999l39 367c-14.667 10 -30 15 -46 15s-28.667 -7.16699 -38 -21.5s-15.333 -32.5 -18 -54.5l-24 -236c-0.666992 -9.33301 -1.33398 -17.666 -2.00098 -24.999
c0 -40 13.333 -60 40 -60z" />
    <glyph glyph-name="e" unicode="e" horiz-adv-x="457" 
d="M208 -10c-65.333 0 -112 17.668 -140 53.001c-22.667 28.667 -33.667 67.667 -33 117c0 12 0.666992 24.333 2 37l19 183c7.33301 67.333 28.833 118.666 64.5 153.999s85.5 53 149.5 53c66 0 111.333 -17.667 136 -53c19.333 -28 29 -66 29 -114
c0 -14 -0.666992 -29.333 -2 -46l-10 -93h-230l-10 -93c-1.33301 -15.333 -2 -29.333 -2 -42c0 -1.33301 0.333008 -3 1 -5c0 -13.333 3 -23.833 9 -31.5s15.333 -11.5 28 -11.5c16 0 28.167 5.5 36.5 16.5s13.5 27.833 15.5 50.5l6 52h139l-5 -45
c-6 -58.667 -26.5 -103.667 -61.5 -135s-82.167 -47 -141.5 -47zM201 353.001h90l6 56c0.666992 8 1 15 1 21c0 14.667 -2 26 -6 34c-6 11.333 -17.167 17 -33.5 17s-28.5 -6.33301 -36.5 -19s-13.667 -35 -17 -67z" />
    <glyph glyph-name="f" unicode="f" horiz-adv-x="312" 
d="M53 0l50 475.004h-60l11 103h59l4 35c2 23.333 4.83301 43.166 8.5 59.499s9.33398 32.166 17.001 47.499s17.5 27.666 29.5 36.999s27.5 16.666 46.5 21.999s41.167 8 66.5 8c19.333 0 44.666 -1.66699 75.999 -5l-12 -111c-22.667 3.33301 -34.667 5 -36 5
c-28 0 -43.667 -17.667 -47 -53l-5 -45h78l-10 -103h-78l-50 -475h-148z" />
    <glyph glyph-name="g" unicode="g" horiz-adv-x="479" 
d="M217 -174c-16.667 0 -31.333 0.164062 -44 0.49707s-27.5 1.33301 -44.5 3s-31.833 3.83398 -44.5 6.50098s-25.5 6.5 -38.5 11.5s-23.167 11.167 -30.5 18.5c-8 6.66699 -14.333 15.667 -19 27c-3.33301 8 -5 17 -5 27v9c4.66699 44 36.334 83.667 95.001 119
c-40 14.667 -60 36.334 -60 65.001c0 21.333 6.33301 40 19 56s33 34.333 61 55c-19.333 16 -33.333 35.667 -42 59c-5.33301 15.333 -7.66602 34.333 -6.99902 57c0 11.333 0.666992 23.333 2 36c7.33301 71.333 29.166 124.333 65.499 159s84.833 52 145.5 52
s101.334 -17.667 122.001 -53c26 27.333 54.333 48 85 62l21 10l26 -78c-11.333 -2.66699 -28.5 -8.5 -51.5 -17.5s-39.833 -16.833 -50.5 -23.5c10.667 -20.667 16 -46.667 16 -78c0 -10.667 -0.666992 -21.667 -2 -33c-6.66699 -62.667 -26.334 -111.334 -59.001 -146.001
s-80 -52 -142 -52c-12.667 0 -27.334 1.5 -44.001 4.5s-28.667 6.16699 -36 9.5c-14 -16.667 -20.667 -29.667 -20 -39c0 -11.333 16.667 -19.333 50 -24c5.33301 -0.666992 23 -2.66699 53 -6s49.667 -5.66602 59 -6.99902c51.333 -5.33301 87 -19.666 107 -42.999
c16.667 -18.667 25 -44 25 -76c0 -6.66699 -0.333008 -13.667 -1 -21c-5.33301 -50 -24.333 -87.5 -57 -112.5s-84 -37.5 -154 -37.5zM227.001 -76.0029c27.333 0 47.6689 3.16602 61.002 9.49902s21 16.833 23 31.5c0.666992 4.66699 1 9.33398 1 14.001
c0 10.667 -3 18.667 -9 24c-8.66699 8 -25.334 13.333 -50.001 16l-89 9c-20.667 -24.667 -31.667 -45 -33 -61c0 -1.33301 -0.333008 -3 -1 -5c0 -12.667 6 -21.667 18 -27c13.333 -7.33301 39.666 -11 78.999 -11zM239.004 270.996c20.667 0 35 7.99805 43 23.998
s14.333 45 19 87c2.66699 21.333 4 39.666 4 54.999c0 12.667 -1 23 -3 31c-4.66699 18 -17.667 27 -39 27c-9.33301 0 -17.333 -1.66699 -24 -5s-12 -7.66602 -16 -12.999s-7.5 -13.166 -10.5 -23.499s-5.16699 -20.5 -6.5 -30.5s-3 -23.667 -5 -41
c-2.66699 -18 -4 -34 -4 -48c0 -13.333 1.33301 -24.666 4 -33.999c5.33301 -19.333 18 -29 38 -29z" />
    <glyph glyph-name="h" unicode="h" horiz-adv-x="492" 
d="M29 0l85 810h148l-30 -286c48 42 98 63 150 63c33.333 0 57 -12 71 -36c11.333 -19.333 16.666 -42.333 15.999 -69c0 -7.33301 -0.333008 -15.333 -1 -24l-48 -458h-149l45 431c0.666992 5.33301 1 10 1 14c0 10 -1.33301 17.667 -4 23c-4 8 -13 11.667 -27 11
c-15.333 0 -35.666 -8.33301 -60.999 -25l-48 -454h-148z" />
    <glyph glyph-name="i" unicode="i" horiz-adv-x="256" 
d="M30 0l61 578h148l-60 -578h-149zM101 672l12 115h149l-12 -115h-149z" />
    <glyph glyph-name="j" unicode="j" horiz-adv-x="263" 
d="M-53 -157l11.0029 106c13.333 -2 22.666 -3 27.999 -3c32 0 50.333 18 55 54l60 578h149l-63 -596c-4.66699 -46 -21.334 -82.5 -50.001 -109.5s-66.334 -40.5 -113.001 -40.5c-27.333 0 -53 3.66699 -77 11zM111.003 672l12 115h149l-12 -115h-149z" />
    <glyph glyph-name="k" unicode="k" horiz-adv-x="507" 
d="M28 1l86 810h147l-48 -457l166 224h163l-170 -234l108 -344h-159l-72 280l-50 -59l-23 -220h-148z" />
    <glyph glyph-name="l" unicode="l" horiz-adv-x="262" 
d="M35 0l85 810h149l-85 -810h-149z" />
    <glyph glyph-name="m" unicode="m" horiz-adv-x="726" 
d="M27 0l61.001 578.002h148l-5 -49c46.667 39.333 95 58.666 145 57.999c44.667 0 72.667 -22.333 84 -67c49.333 45.333 101 67.666 155 66.999c33.333 0 57.333 -12 72 -36c11.333 -19.333 16.666 -42.333 15.999 -69c0 -7.33301 -0.333008 -15.333 -1 -24l-49 -458h-148
l46 431v12c0 10.667 -1.33301 19 -4 25c-4 8 -13 11.667 -27 11c-16 0 -35.333 -7 -58 -21v-3v-3l-48 -452h-147l45 431c0.666992 4.66699 1 9 1 13c0 9.33301 -1.33301 17 -4 23c-4 8 -13 12 -27 12h-1c-15.333 0 -34.333 -7.33301 -57 -22l-49 -457h-148z" />
    <glyph glyph-name="n" unicode="n" horiz-adv-x="488" 
d="M27 0l61.001 578h148l-6 -57c51.333 44 100.666 66 147.999 66c33.333 0 57 -12 71 -36c11.333 -19.333 17 -42.333 17 -69c0 -7.33301 -0.666992 -15.333 -2 -24l-47 -458h-149l45 431c0.666992 5.33301 1 10 1 14c0 10 -1.33301 17.667 -4 23c-4 8 -13 11.667 -27 11
c-15.333 0 -35 -7.66699 -59 -23l-48 -456h-149z" />
    <glyph glyph-name="o" unicode="o" horiz-adv-x="466" 
d="M218 93c18.667 0 31.834 7.16992 39.501 21.5029s12.834 35.166 15.501 62.499l24 224c0.666992 10.667 1 20.334 1 29.001c0 14 -1.33301 25.333 -4 34c-4.66699 14 -16.167 21.167 -34.5 21.5s-31.333 -6.83398 -39 -21.501s-12.834 -35.667 -15.501 -63l-23 -224
c-0.666992 -12.667 -1.33398 -24.334 -2.00098 -35.001v-7c0 -12.667 3.16699 -22.834 9.5 -30.501s15.833 -11.5 28.5 -11.5zM207.5 -9.99707c-62.333 0 -108.167 16.998 -137.5 50.998c-24 28 -36 65.333 -36 112c0 11.333 0.666992 23 2 35l21 203
c6.66699 63.333 28.167 111.833 64.5 145.5s85.833 50.5 148.5 50.5s109 -16.667 139 -50c24 -27.333 36 -64.666 36 -111.999c0 -10.667 -0.666992 -22 -2 -34l-21 -203c-6.66699 -63.333 -28.5 -112.166 -65.5 -146.499s-86.667 -51.5 -149 -51.5z" />
    <glyph glyph-name="p" unicode="p" horiz-adv-x="489" 
d="M7 -190l80.998 768.002h148l-4 -43c41.333 35.333 82.333 52.666 123 51.999h3c16 0 30.333 -2.66699 43 -8s22.834 -12.666 30.501 -21.999s14.334 -20 20.001 -32s9.5 -24.833 11.5 -38.5s3.33301 -27.834 4 -42.501v-10c0 -10.667 -0.666992 -21 -2 -31l-23 -215
c-6 -58.667 -22 -106.334 -48 -143.001s-61 -55 -105 -55c-38 0 -74.333 17.667 -109 53l-24 -233h-149zM237.998 92.002c12 0 22 4.33203 30 12.999s13.667 19.167 17 31.5s6 27.5 8 45.5l24 230c0.666992 8.66699 1 16.334 1 23.001c0 37.333 -12.333 56 -37 56h-3
c-15.333 0 -33 -7 -53 -21l-38 -361c16.667 -11.333 33.667 -17 51 -17z" />
    <glyph glyph-name="q" unicode="q" horiz-adv-x="487" 
d="M244 -190l24.999 233.002c-38 -35.333 -76 -53 -114 -53c-80 0 -120 49.667 -120 149c0 14.667 1 30.667 3 48l21 198c4 39.333 11.833 73.666 23.5 102.999s29 53.166 52 71.499s50.5 27.5 82.5 27.5c38.667 0 73.334 -15.333 104.001 -46l4 37h148l-80 -768h-149z
M224.999 91.002c13.333 0 30.001 5.33203 50.001 15.999l38 365c-16 10.667 -31.333 16 -46 16c-16.667 0 -29.667 -7.16699 -39 -21.5s-15.333 -32.5 -18 -54.5l-24 -236c-0.666992 -9.33301 -1.33398 -17.666 -2.00098 -24.999c0 -40 13.667 -60 41 -60z" />
    <glyph glyph-name="r" unicode="r" horiz-adv-x="357" 
d="M29 0l60.998 578h148l-9 -92c42.667 66 85.667 99 129 99c6 0 13.333 -0.666992 22 -2l-15 -140c-11.333 4 -23 6 -35 6h-2c-21.333 -0.666992 -40.666 -6 -57.999 -16s-34.666 -26 -51.999 -48l-40 -385h-149z" />
    <glyph glyph-name="s" unicode="s" horiz-adv-x="408" 
d="M185 -10c-96 0 -153.995 50.332 -173.995 150.999l112 43c6 -29.333 15 -52 27 -68c11.333 -14.667 25.666 -22.334 42.999 -23.001h3c12.667 0.666992 23.667 5.33398 33 14.001c10 9.33301 14.667 20.666 14 33.999c0 18 -19 45 -57 81l-58 53
c-49.333 46 -73.666 92.667 -72.999 140c0 6 0.333008 11.667 1 17c5.33301 46 25.666 83.333 60.999 112s77 43 125 43c46 0 82.5 -13.167 109.5 -39.5s43.167 -62.833 48.5 -109.5l-101 -43c-3.33301 24.667 -10 45.167 -20 61.5s-23.333 24.833 -40 25.5h-2
c-13.333 0 -24 -3.66699 -32 -11c-9.33301 -8 -14.333 -17.667 -15 -29c-0.666992 -7.33301 1.66602 -15.833 6.99902 -25.5s11.5 -18.167 18.5 -25.5s16.5 -16.666 28.5 -27.999l57 -57l25.5 -25.5c6.33301 -6.33301 13.666 -15.166 21.999 -26.499s14.666 -22 18.999 -32
s7.83301 -21.667 10.5 -35c1.33301 -8 2 -16.333 2 -25c0 -5.33301 -0.333008 -10.666 -1 -15.999c-5.33301 -48.667 -26.333 -86.834 -63 -114.501s-80.334 -41.5 -131.001 -41.5z" />
    <glyph glyph-name="t" unicode="t" horiz-adv-x="341" 
d="M189 -7c-22.667 0.666992 -42.332 4.16895 -58.999 10.502s-29.334 15.166 -38.001 26.499s-15.5 24.833 -20.5 40.5s-7.5 32.667 -7.5 51s0.666992 38.166 2 59.499l32 299h-56l10 98h56l18 172h150l-18 -172h86l-11 -98h-85l-34 -317v-8c0 -28 15.667 -42.333 47 -43h3
c8.66699 0 22 1.33301 40 4l-12 -116c-34.667 -4.66699 -64.667 -7 -90 -7h-13z" />
    <glyph glyph-name="u" unicode="u" horiz-adv-x="485" 
d="M122 -9c-33.333 0 -57 12.002 -71 36.002c-11.333 19.333 -17 42.666 -17 69.999c0 7.33301 0.666992 15 2 23l47 458h149l-45 -434c-0.666992 -4.66699 -1 -9.33398 -1 -14.001c0 -10 1.33301 -17.667 4 -23c4 -8 12.667 -11.667 26 -11h2c14.667 0 33 7 55 21l48 461
h149l-61 -578h-148l6 54c-50 -42 -98.333 -63 -145 -63z" />
    <glyph glyph-name="v" unicode="v" horiz-adv-x="411" 
d="M101 0l-53 578h144l11 -397l92 397h143l-175 -578h-162z" />
    <glyph glyph-name="w" unicode="w" horiz-adv-x="596" 
d="M86 0l-26 578h123l9 -353l91 353h109l12 -358l88 358h117l-151 -578h-125l-22 345l-98 -345h-127z" />
    <glyph glyph-name="x" unicode="x" horiz-adv-x="426" 
d="M-15 0l157 313l-92 265h148l52 -150l75 150h122l-150 -286l101 -292h-148l-58 167l-79 -167h-128z" />
    <glyph glyph-name="y" unicode="y" horiz-adv-x="430" 
d="M19 -161l10.999 104.999c38.667 0 65.334 4 80.001 12c13.333 7.33301 20 22 20 44v4c0 13.333 -3.66699 42.666 -11 87.999l-78 486h143l34 -359l96 359h144l-201 -609c-8 -24.667 -19.167 -45.667 -33.5 -63s-31.166 -30.666 -50.499 -39.999
s-39.833 -16.166 -61.5 -20.499s-45.834 -6.5 -72.501 -6.5h-20z" />
    <glyph glyph-name="z" unicode="z" horiz-adv-x="378" 
d="M9 0l11 97l202 372h-149l11 109h305l-10 -87l-202 -381h163l-11 -110h-320z" />
    <glyph glyph-name="braceleft" unicode="{" horiz-adv-x="354" 
d="M281 -196c-20.667 0 -39.0029 0.5 -55.0029 1.5s-30.667 2.66699 -44 5s-25 5 -35 8s-18.833 7.16699 -26.5 12.5s-14 10.833 -19 16.5s-9.16699 13 -12.5 22s-5.66602 18 -6.99902 27s-2 20.167 -2 33.5s0.333008 26.333 1 39s2 28 4 46l11 101
c2.66699 24.667 4.33398 43.667 5.00098 57c0.666992 10.667 1 20.667 1 30v9c0 12.667 -1 21.667 -3 27s-5.33301 10 -10 14s-10 6.5 -16 7.5s-14.333 1.5 -25 1.5l12 105c10.667 0 19 0.5 25 1.5s11.833 3.5 17.5 7.5s10 8.66699 13 14s5.83301 14.333 8.5 27
s5 25.834 7 39.501s4.33301 32.5 7 56.5l10 101c2 22.667 4.33301 41.5 7 56.5s6 30.167 10 45.5s8.66699 27.666 14 36.999s12.166 18.5 20.499 27.5s18 16 29 21s24.333 9.33301 40 13s33.167 6.16699 52.5 7.5s42 2 68 2l-11 -102c-10.667 0 -19.5 -0.333008 -26.5 -1
s-13.5 -1.83398 -19.5 -3.50098s-10.833 -4.5 -14.5 -8.5s-7 -8.5 -10 -13.5s-5.5 -12 -7.5 -21s-3.83301 -18.333 -5.5 -28s-3.16699 -22.5 -4.5 -38.5l-12 -113c-6 -56 -16.667 -98.333 -32 -127s-38 -46.667 -68 -54c28.667 -6.66699 47.667 -24.334 57 -53.001
c5.33301 -18 8.33301 -41 9 -69c0 -17.333 -1.33301 -36.666 -4 -57.999l-11 -113c-1.33301 -15.333 -2.5 -28.166 -3.5 -38.499s-1.33301 -20 -1 -29s1.33301 -15.833 3 -20.5s4 -9 7 -13s7.33301 -6.83301 13 -8.5s11.834 -3 18.501 -4s15.334 -1.5 26.001 -1.5z" />
    <glyph glyph-name="bar" unicode="|" horiz-adv-x="257" 
d="M23 -170l103 980h126l-103 -980h-126z" />
    <glyph glyph-name="braceright" unicode="}" horiz-adv-x="366" 
d="M-5 -196l10.999 101.999c10.667 0 19.5 0.5 26.5 1.5s13.5 2.33301 19.5 4s10.833 4.5 14.5 8.5s7.16699 8.33301 10.5 13s5.83301 11.667 7.5 21s3.33398 18.833 5.00098 28.5s3.16699 22.5 4.5 38.5l12 113c6 56 16.833 98.333 32.5 127s38.5 46.334 68.5 53.001
c-28.667 7.33301 -48 25.333 -58 54c-6 18 -8.66699 41 -8 69c0 17.333 1 36.666 3 57.999l12 113c1.33301 15.333 2.33301 28 3 38s1 19.5 1 28.5s-1 16 -3 21s-4.33301 9.5 -7 13.5s-7 6.83301 -13 8.5s-12.333 2.83398 -19 3.50098s-15.334 1 -26.001 1l11 102
c41.333 0 74.5 -2 99.5 -6s45.5 -10.833 61.5 -20.5s26.5 -22.5 31.5 -38.5s8.16699 -36 9.5 -60v-13c0 -21.333 -2 -45.333 -6 -72l-10 -101c-2 -24.667 -4 -43.667 -6 -57c-0.666992 -10.667 -1 -21 -1 -31v-8c0 -12.667 1 -21.667 3 -27s5.33301 -10 10 -14
s10 -6.5 16 -7.5s14.333 -1.5 25 -1.5l-11 -105c-10.667 0 -19.167 -0.5 -25.5 -1.5s-12.333 -3.5 -18 -7.5s-9.83398 -8.83301 -12.501 -14.5s-5.5 -14.667 -8.5 -27s-5.5 -25.333 -7.5 -39s-4 -32.5 -6 -56.5l-11 -101c-3.33301 -30.667 -6.66602 -55.167 -9.99902 -73.5
s-8.5 -36.333 -15.5 -54s-15.667 -31.167 -26 -40.5s-24.166 -17.5 -41.499 -24.5s-37.833 -11.833 -61.5 -14.5s-52.5 -4 -86.5 -4z" />
    <glyph glyph-name="asciitilde" unicode="~" horiz-adv-x="475" 
d="M332 341c-15.333 0 -33.3311 4.99902 -53.998 14.999s-40.334 19.833 -59.001 29.5s-33.667 14.5 -45 14.5c-8.66699 0 -20.167 -4.16699 -34.5 -12.5s-27.5 -19.166 -39.5 -32.499l-42 64c16.667 22 37.667 42.167 63 60.5s47.333 27.5 66 27.5
c15.333 0 33.166 -4.66699 53.499 -14s39.833 -18.833 58.5 -28.5s33.334 -14.5 44.001 -14.5c16 0 40.667 15 74 45l46 -57c-15.333 -24 -35.833 -46.167 -61.5 -66.5s-48.834 -30.5 -69.501 -30.5z" />
    <glyph glyph-name="uni00A0" unicode="&#xa0;" horiz-adv-x="232" 
 />
    <glyph glyph-name="exclamdown" unicode="&#xa1;" horiz-adv-x="228" 
d="M-1 -161l116 613h52l-21 -613h-147zM76 506l15 141h142l-15 -141h-142z" />
    <glyph glyph-name="cent" unicode="&#xa2;" 
d="M166 -112l11.001 104c-54.667 5.33301 -93.334 25.666 -116.001 60.999c-18 27.333 -27 62.333 -27 105c0 12 0.666992 24.667 2 38l19 186c6 60.667 24.333 108.5 55 143.5s73.667 55.167 129 60.5l11 103h40l-11 -102c58 -1.33301 99.667 -16.333 125 -45
c20.667 -23.333 31 -56.666 31 -99.999c0 -10 -0.333008 -20.333 -1 -31l-6 -53h-141l5 54c0.666992 9.33301 1.33398 17.666 2.00098 24.999c0 13.333 -1.66699 23 -5 29c-5.33301 10 -16 15 -32 15s-27.833 -6 -35.5 -18s-12.834 -34 -15.501 -66l-23 -218
c-1.33301 -12 -2 -22.333 -2 -31c0 -14.667 1.66699 -25.667 5 -33c5.33301 -11.333 15.666 -17 30.999 -17s26.833 5.33301 34.5 16s12.834 27.667 15.501 51l6 65h142l-7 -61c-12.667 -115.333 -76.667 -174.666 -192 -177.999l-10 -103h-40z" />
    <glyph glyph-name="sterling" unicode="&#xa3;" horiz-adv-x="462" 
d="M-11 0l9 82.001l63 28l22 219h-59l12 114h59l9 89c2.66699 24.667 5.5 46.5 8.5 65.5s7.16699 39 12.5 60s11.5 39 18.5 54s16.167 29.667 27.5 44s23.833 26 37.5 35s30.334 16.167 50.001 21.5s41.5 8 65.5 8c26.667 0 49.667 -3.33301 69 -10
s34.666 -16.167 45.999 -28.5s20.166 -27 26.499 -44s9.83301 -35.833 10.5 -56.5v-16c0 -16 -0.666992 -33 -2 -51l-3 -28h-125c1.33301 19.333 2.33301 37.333 3 54v5c0 14 -2.66699 26 -8 36c-6 10.667 -15.667 15.667 -29 15c-8 0 -15.167 -2.16699 -21.5 -6.5
s-11.333 -9.83301 -15 -16.5s-7.16699 -16.334 -10.5 -29.001s-5.66602 -24 -6.99902 -34s-3 -23.667 -5 -41l-13 -126h117l-12 -114h-117l-22 -207h213l-13 -122h-417z" />
    <glyph glyph-name="currency" unicode="&#xa4;" horiz-adv-x="555" 
d="M51 186l-13 15l87 79c-27.333 34 -40.666 73.333 -39.999 118c0 8 0.333008 16.333 1 25c6 55.333 29.333 103 70 143l-72 79l17 15l70 -79c44 37.333 93.333 56 148 56h1h2c55.333 0 100.666 -18.667 135.999 -56l87 79l13 -15l-87 -79c26.667 -34 40 -73.333 40 -118
c0 -8 -0.666992 -16.333 -2 -25c-6 -55.333 -29 -103 -69 -143l71 -79l-16 -15l-71 79c-43.333 -37.333 -92.333 -56 -147 -56h-1h-2c-54.667 0 -100 18.667 -136 56zM280 254c46 0 86.501 16.5 121.501 49.5s54.833 72.833 59.5 119.5c0.666992 6.66699 1 13.334 1 20.001
c0 38 -11.667 71 -35 99c-28 32.667 -65.333 49 -112 49c-46 0 -86.333 -16.333 -121 -49s-54.334 -72.334 -59.001 -119.001c-0.666992 -6.66699 -1 -13.667 -1 -21c0 -38 11.667 -70.667 35 -98c28 -33.333 65 -50 111 -50z" />
    <glyph glyph-name="yen" unicode="&#xa5;" horiz-adv-x="472" 
d="M140 0l12 118h-84l9 80h84l6 63h-84l9 81h66l-93 468h151l55 -330l119 330h148l-190 -468h67l-9 -81h-84l-7 -63h84l-8 -80h-84l-13 -118h-154z" />
    <glyph glyph-name="brokenbar" unicode="&#xa6;" horiz-adv-x="216" 
d="M13 -170l43 408h107l-43 -408h-107zM73 402l42 408h108l-43 -408h-107z" />
    <glyph glyph-name="section" unicode="&#xa7;" horiz-adv-x="460" 
d="M203 -7c-49.333 0 -87.4951 14.833 -114.495 44.5s-43.833 68.5 -50.5 116.5l105 29c5.33301 -21.333 14.166 -40.166 26.499 -56.499s28.166 -24.5 47.499 -24.5c17.333 0 31.666 4.16699 42.999 12.5s18 20.166 20 35.499c0.666992 4 1 8 1 12
c0 12.667 -3.33301 23.667 -10 33c-8.66699 13.333 -23.667 27 -45 41l-91 59c-24.667 16 -43.334 34.667 -56.001 56c-8.66699 15.333 -13 33 -13 53c0 7.33301 0.666992 15 2 23c4.66699 30 15.834 55.667 33.501 77s39.167 36.333 64.5 45
c-22 13.333 -40.667 31.333 -56 54c-13.333 20 -20 41.333 -20 64v10c2 31.333 12.5 58.833 31.5 82.5s43.333 41.5 73 53.5s62.167 18 97.5 18c50 0 89 -14.833 117 -44.5s45 -68.834 51 -117.501l-103 -27c-2 11.333 -4.66699 21.166 -8 29.499
s-7.66602 16.833 -12.999 25.5s-12.5 15.334 -21.5 20.001s-19.167 7 -30.5 7c-16.667 0 -30.167 -4.33301 -40.5 -13s-16.5 -21 -18.5 -37c-0.666992 -8 0.166016 -15.333 2.49902 -22s6.66602 -13 12.999 -19s11.166 -10.333 14.499 -13s8.66602 -6.33398 15.999 -11.001
l88 -58c46.667 -31.333 70.334 -71.666 71.001 -120.999c0 -5.33301 -0.333008 -11 -1 -17c-2.66699 -27.333 -11.834 -50.833 -27.501 -70.5s-36.5 -36.834 -62.5 -51.501c24.667 -21.333 42.667 -42.666 54 -63.999c8.66699 -16.667 13 -35.334 13 -56.001
c0 -5.33301 -0.333008 -10.666 -1 -15.999c-5.33301 -49.333 -26.166 -88.666 -62.499 -117.999s-82.833 -44 -139.5 -44zM264.005 353c28.667 14 44.3311 31.668 46.998 53.001v5c0 18.667 -8.66699 33.667 -26 45l-45 29c-13.333 -5.33301 -24.666 -13 -33.999 -23
s-14.666 -21.333 -15.999 -34v-4c0 -6.66699 1.33301 -13.334 4 -20.001c3.33301 -8 8 -13.667 14 -17z" />
    <glyph glyph-name="dieresis" unicode="&#xa8;" horiz-adv-x="418" 
d="M91 672l14 138h127l-15 -138h-126zM293 672l15 138h127l-15 -138h-127z" />
    <glyph glyph-name="copyright" unicode="&#xa9;" horiz-adv-x="876" 
d="M428 124c-70 0 -120.663 18.002 -151.996 54.002c-24.667 28.667 -37 67 -37 115c0 11.333 0.666992 23.666 2 36.999l17 165c6.66699 65.333 29 115.666 67 150.999s92.333 53 163 53c68 0 117 -14.333 147 -43c25.333 -24 37.666 -58.333 36.999 -103
c0 -9.33301 -0.333008 -19 -1 -29l-5 -47h-152l5 48c0.666992 7.33301 1 14 1 20c0 15.333 -2.33301 27 -7 35c-6.66699 10.667 -18 15.667 -34 15c-18 0 -31.5 -6.16699 -40.5 -18.5s-15.167 -34.5 -18.5 -66.5l-21 -198c-0.666992 -10.667 -1.33398 -20 -2.00098 -28
c0 -16.667 2.33301 -29 7 -37c6.66699 -12 18.667 -18 36 -18s30.166 5.5 38.499 16.5s13.833 28.167 16.5 51.5l5 55h152l-5 -51c-6 -58 -27.333 -102 -64 -132s-88.334 -45 -155.001 -45zM419.004 30.002c47.333 0 91.3369 7.00098 132.004 21.001s75.834 33 105.501 57
s55.5 52.333 77.5 85s39.167 67 51.5 103s20.833 73.333 25.5 112c1.33301 17.333 2 34.666 2 51.999c0 20.667 -1 40.667 -3 60c-4.66699 36 -14.834 70 -30.501 102s-35.667 60 -60 84s-55.333 43 -93 57s-80.334 21 -128.001 21s-91.834 -7 -132.501 -21
s-75.834 -33 -105.501 -57s-55.5 -52 -77.5 -84s-39.167 -66 -51.5 -102s-20.5 -73.333 -24.5 -112c-2 -18 -3 -36 -3 -54c0 -20 1.33301 -39.333 4 -58c4.66699 -36 14.667 -70.333 30 -103s35.166 -61 59.499 -85s55.5 -43 93.5 -57s80.667 -21 128 -21zM413.508 -11.9971
c-55 0 -104.331 8.16504 -147.998 24.498s-79.334 38 -107.001 65s-50 58.833 -67 95.5s-27.833 74.667 -32.5 114c-2.66699 22 -4.33398 44 -5.00098 66c0 18 1 36.333 3 55c4 41.333 12.833 81.833 26.5 121.5s32.834 77.667 57.501 114s53.667 68 87 95
s73.5 48.667 120.5 65s98 24.5 153 24.5s104.167 -8.16699 147.5 -24.5s78.666 -38 105.999 -65s49.5 -58.667 66.5 -95s28.167 -74.166 33.5 -113.499c2.66699 -22 4 -44.333 4 -67c0 -18 -1 -36.333 -3 -55c-4.66699 -41.333 -13.5 -81.666 -26.5 -120.999
s-31.833 -77.333 -56.5 -114s-53.5 -68.5 -86.5 -95.5s-73 -48.667 -120 -65s-98 -24.5 -153 -24.5z" />
    <glyph glyph-name="ordfeminine" unicode="&#xaa;" horiz-adv-x="473" 
d="M190 314c-36 0 -63.3359 11.666 -82.0029 34.999c-16 19.333 -24 42 -24 68v14c1.33301 15.333 5 29.666 11 42.999s12.5 24.833 19.5 34.5s16.333 19 28 28s22.167 16.333 31.5 22s21.5 11.667 36.5 18s27 11 36 14l37.5 12.5l33 11l6 54
c0 4.66699 0.333008 9.33398 1 14.001c0 27.333 -9.33301 41 -28 41c-14 0 -24.167 -6.16699 -30.5 -18.5s-11.833 -32.166 -16.5 -59.499l-126 2c6.66699 56.667 26.834 100 60.501 130s77.834 45 132.501 45c92.667 0 139 -45.667 139 -137
c0 -11.333 -0.666992 -23 -2 -35l-34 -329h-118l1 67c-11.333 -21.333 -26.666 -39 -45.999 -53s-41.333 -21 -66 -21zM248.997 407.999c9.33301 0 18.5 3 27.5 9s16.5 13.333 22.5 22l13 122c-26 -12 -48.167 -27.5 -66.5 -46.5s-28.5 -38.167 -30.5 -57.5v-9
c0 -10.667 2.33301 -19.667 7 -27c6 -8.66699 15 -13 27 -13z" />
    <glyph glyph-name="guillemotleft" unicode="&#xab;" horiz-adv-x="480" 
d="M199 33l-161 234l6 57l210 234l-16 -155l-104 -108l81 -108zM412 33l-162 234l6 57l211 234l-16 -155l-104 -108l81 -108z" />
    <glyph glyph-name="logicalnot" unicode="&#xac;" horiz-adv-x="464" 
d="M350 220l15 142h-307l11 103h380l-26 -245h-73z" />
    <glyph glyph-name="uni00AD" unicode="&#xad;" horiz-adv-x="363" 
d="M74 339l10 99h244l-10 -99h-244z" />
    <glyph glyph-name="registered" unicode="&#xae;" horiz-adv-x="890" 
d="M272 152l54 509.001h163c60.667 0 104.667 -11 132 -33c23.333 -18.667 35 -47.334 35 -86.001c0 -7.33301 -0.666992 -15.333 -2 -24c-3.33301 -32 -12 -57.833 -26 -77.5s-35 -35.5 -63 -47.5l65 -241h-128l-49 216h-35l-23 -216h-123zM424 431.001h19.999
c31.333 0 53.833 6.5 67.5 19.5s21.834 33.833 24.501 62.5c0.666992 5.33301 1 10 1 14c0 40 -20.333 60 -61 60h-36zM424.999 40.001c45.333 0 87.4961 6.83301 126.496 20.5s72.667 32 101 55s53 50.167 74 81.5s37.333 64.333 49 99s19.5 70.667 23.5 108
c2 17.333 3 34.333 3 51c0 19.333 -1.33301 38.333 -4 57c-4.66699 34.667 -14.167 67.5 -28.5 98.5s-33.166 58.167 -56.499 81.5s-53.166 41.666 -89.499 54.999s-77.166 20 -122.499 20s-87.666 -6.66699 -126.999 -20s-73.166 -31.666 -101.499 -54.999
s-53 -50.5 -74 -81.5s-37.333 -63.833 -49 -98.5s-19.5 -70.667 -23.5 -108c-2 -17.333 -3 -34.333 -3 -51c0 -20 1.33301 -39 4 -57c4.66699 -34.667 14.167 -67.667 28.5 -99s33.333 -58.5 57 -81.5s53.667 -41.333 90 -55s77.166 -20.5 122.499 -20.5zM419.995 -13.999
c-54.667 0 -103.664 8.16992 -146.997 24.5029s-78.833 38 -106.5 65s-49.834 58.833 -66.501 95.5c-16.667 36 -27.667 73.667 -33 113c-2.66699 21.333 -4 43 -4 65c0 18 1 36.333 3 55c4 41.333 12.667 81.666 26 120.999s32.333 77.166 57 113.499s53.5 68 86.5 95
s73 48.5 120 64.5s97.833 24 152.5 24c34.667 0 67 -3.16699 97 -9.5s56.667 -15.333 80 -27s44.666 -25.667 63.999 -42s35.666 -34.5 48.999 -54.5s25 -41.333 35 -64s17.167 -46.167 21.5 -70.5s7.16602 -49.166 8.49902 -74.499c0.666992 -8.66699 1 -17 1 -25
c0 -16.667 -1 -33.667 -3 -51c-3.33301 -34.667 -10.166 -68.334 -20.499 -101.001s-23.833 -64.834 -40.5 -96.501s-37.167 -60.667 -61.5 -87s-51.833 -49.5 -82.5 -69.5s-66.167 -35.667 -106.5 -47s-83.5 -17 -129.5 -17z" />
    <glyph glyph-name="macron" unicode="&#xaf;" horiz-adv-x="212" 
d="M47 735l8 75h235l-8 -75h-235z" />
    <glyph glyph-name="degree" unicode="&#xb0;" horiz-adv-x="516" 
d="M289 523c30 0 54.3359 9.83301 73.0029 29.5s29.667 45.167 33 76.5c0.666992 5.33301 1 11 1 17c0 24 -6.33301 43.667 -19 59c-14.667 19.333 -36.834 29 -66.501 29s-53.834 -9.5 -72.501 -28.5s-29.667 -44.5 -33 -76.5c-0.666992 -6 -1 -11.333 -1 -16
c0 -24 6 -44 18 -60c15.333 -20 37.666 -30 66.999 -30zM279.003 438c-58.667 0 -103.333 17.333 -134 52c-26 28.667 -39.333 66 -40 112c0 9.33301 0.666992 18.333 2 27c6 58 28.167 104.333 66.5 139s86.833 52 145.5 52s104 -17.333 136 -52
c26.667 -28.667 40 -65.667 40 -111c0 -8.66699 -0.666992 -18 -2 -28c-6 -58 -28.5 -104.333 -67.5 -139s-87.833 -52 -146.5 -52z" />
    <glyph glyph-name="plusminus" unicode="&#xb1;" horiz-adv-x="448" 
d="M170 181l13 116h-114l10 93h113l12 116h98l-12 -116h113l-10 -93h-113l-12 -116h-98zM38 0l10 96h324l-10 -96h-324z" />
    <glyph glyph-name="twosuperior" unicode="&#xb2;" horiz-adv-x="417" 
d="M78 321l9.00098 86.999l156 204c3.33301 4.66699 9.33301 12.334 18 23.001s15.334 19.167 20.001 25.5s10 14.5 16 24.5s10.5 19.667 13.5 29s5.16699 18.666 6.5 27.999c0.666992 4 1 7.66699 1 11c0 12.667 -3.33301 22.667 -10 30s-15.334 11 -26.001 11
c-2.66699 0 -5.66699 -0.333008 -9 -1c-16 -2 -27.833 -10.167 -35.5 -24.5s-13.5 -40.5 -17.5 -78.5h-106l3 27c5.33301 52.667 22.166 94.334 50.499 125.001s68.5 46 120.5 46c47.333 0 83 -13 107 -39c20.667 -21.333 31 -49.666 31 -84.999
c0 -7.33301 -0.666992 -15 -2 -23c-1.33301 -11.333 -3.83301 -22.833 -7.5 -34.5s-7 -21.334 -10 -29.001s-9 -18.334 -18 -32.001s-15 -22.667 -18 -27s-10.5 -14.666 -22.5 -30.999s-19 -25.5 -21 -27.5l-115 -152h161l-9 -87h-286z" />
    <glyph glyph-name="threesuperior" unicode="&#xb3;" horiz-adv-x="418" 
d="M221 312c-55.333 0 -92.6689 14.668 -112.002 44.001c-14.667 22.667 -22 53 -22 91c0 12 0.666992 24.333 2 37l2 17h109l-2 -20c-0.666992 -10 -1.33398 -18.667 -2.00098 -26c0 -14.667 1.66699 -26 5 -34c5.33301 -12 16 -17.667 32 -17c14.667 0 26 5.83301 34 17.5
s13.667 31.167 17 58.5c0.666992 9.33301 1 17.666 1 24.999c0 18.667 -2.66699 33 -8 43c-7.33301 14 -22 21.333 -44 22h-28l7 70h27c23.333 0 40 7 50 21s16.667 37.333 20 70c0.666992 7.33301 1.33398 14 2.00098 20c0 13.333 -2 24 -6 32
c-5.33301 11.333 -15.666 17 -30.999 17s-26.666 -5.5 -33.999 -16.5s-12.333 -27.833 -15 -50.5l-3 -29h-109l3 31c5.33301 48.667 22.5 86.334 51.5 113.001s67.333 40 115 40s83.5 -13 107.5 -39c19.333 -21.333 29 -50.333 29 -87c0 -7.33301 -0.666992 -15.333 -2 -24
c-4 -34 -13.5 -62.333 -28.5 -85s-31.833 -36.334 -50.5 -41.001c36 -14 54.333 -47 55 -99c0 -9.33301 -0.666992 -19 -2 -29c-5.33301 -53.333 -22 -95.333 -50 -126s-68 -46 -120 -46z" />
    <glyph glyph-name="acute" unicode="&#xb4;" horiz-adv-x="303" 
d="M95 609l81 201h151l-143 -201h-89z" />
    <glyph glyph-name="mu" unicode="&#xb5;" horiz-adv-x="478" 
d="M1 -184l79.9971 762.001h148l-45 -431c0 -4.66699 -0.333008 -8.66699 -1 -12c0.666992 -10 2.33398 -18 5.00098 -24c4 -8 12.667 -12 26 -12c14.667 0 33.334 7.33301 56.001 22l47 457h149l-61 -578h-148l5 49c-27.333 -23.333 -54 -39 -80 -47
c-0.666992 0 -2 -0.333008 -4 -1s-3.66699 -1.33398 -5 -2.00098s-2.66602 -1 -3.99902 -1l-19 -182h-149z" />
    <glyph glyph-name="paragraph" unicode="&#xb6;" horiz-adv-x="512" 
d="M157 -96l61.999 593c-47.333 0.666992 -83.666 14.667 -108.999 42c-21.333 22.667 -32 53 -32 91c0 7.33301 0.333008 14.666 1 21.999c2.66699 28.667 10 53.334 22 74.001s27.667 37 47 49s40.333 20.833 63 26.5s48 8.5 76 8.5h220l-95 -906h-87l87 825h-77l-87 -825
h-91z" />
    <glyph glyph-name="periodcentered" unicode="&#xb7;" horiz-adv-x="208" 
d="M41 306l15 140h142l-15 -140h-142z" />
    <glyph glyph-name="cedilla" unicode="&#xb8;" horiz-adv-x="271" 
d="M-6 -255l7 67c10 -2.66699 21.667 -5 35 -7c7.33301 -0.666992 14.666 -1 21.999 -1c5.33301 0 11 0.333008 17 1c12.667 0.666992 23.5 3.5 32.5 8.5s13.833 11.833 14.5 20.5c0.666992 8 -0.5 15.167 -3.5 21.5s-7.16699 11.5 -12.5 15.5s-12 7.5 -20 10.5
s-15.667 5.33301 -23 7s-15.666 3.16699 -24.999 4.5l11 107h60l-6 -63c36 -2 65.333 -12 88 -30c21.333 -15.333 32 -35.333 32 -60v-7c-2 -24 -10.5 -44.5 -25.5 -61.5s-33.5 -28.833 -55.5 -35.5c-21.333 -6.66699 -45 -10 -71 -10h-2c-26 0 -51 4 -75 12z" />
    <glyph glyph-name="onesuperior" unicode="&#xb9;" horiz-adv-x="416" 
d="M187 321l46.0029 443c-2.66699 -3.33301 -17.834 -9.5 -45.501 -18.5s-45.167 -14.167 -52.5 -15.5l9 83c0.666992 0 6.66699 2.33301 18 7s20.666 8.5 27.999 11.5s16.5 7.33301 27.5 13s20.667 11.5 29 17.5s15.166 12 20.499 18h88l-58 -559h-110z" />
    <glyph glyph-name="ordmasculine" unicode="&#xba;" horiz-adv-x="473" 
d="M254 408c18 0 30.8311 6.66699 38.498 20s12.834 33.333 15.501 60l17 159c0.666992 9.33301 1.33398 18 2.00098 26c0 14 -1.66699 25.333 -5 34c-4.66699 13.333 -16 20 -34 20c-17.333 0 -30.166 -6.83301 -38.499 -20.5s-13.833 -33.5 -16.5 -59.5l-16 -159
c-0.666992 -10 -1.33398 -19.667 -2.00098 -29c0 -4 0.333008 -8 1 -12c0.666992 -12 4.16699 -21.5 10.5 -28.5s15.5 -10.5 27.5 -10.5zM244.998 313c-54.667 0 -94.667 14.335 -120 43.002c-21.333 24 -32 57 -32 99c0 8.66699 0.666992 17.667 2 27l18 171
c5.33301 54.667 24 96.5 56 125.5s75 43.5 129 43.5c53.333 0 93.333 -15 120 -45c22 -24.667 33 -57.334 33 -98.001c0 -8.66699 -0.333008 -17.334 -1 -26.001l-18 -171c-5.33301 -53.333 -24.5 -94.833 -57.5 -124.5s-76.167 -44.5 -129.5 -44.5z" />
    <glyph glyph-name="guillemotright" unicode="&#xbb;" horiz-adv-x="494" 
d="M28 33l16 154l109 108l-86 108l16 155l167 -234l-6 -57zM241 33l16 154l109 108l-86 108l16 155l166 -234l-6 -57z" />
    <glyph glyph-name="onequarter" unicode="&#xbc;" horiz-adv-x="725" 
d="M512 0l11 113h-136l7 67l170 244h76l-25 -241h54l-7 -70h-55l-11 -113h-84zM130 405l29 271l-61 -19l7 70c48 23.333 86.667 51 116 83h46l-43 -405h-94zM110 0l424 810h87l-425 -810h-86zM457 183h74l14 131z" />
    <glyph glyph-name="onehalf" unicode="&#xbd;" horiz-adv-x="725" 
d="M416 1l6.99902 68.001l105 128c1.33301 1.33301 5.83301 6.66602 13.5 15.999s12.667 15.5 15 18.5s6.33301 8.5 12 16.5s9.66699 14.5 12 19.5s4.83301 11 7.5 18s4.33398 13.833 5.00098 20.5v11c0 23.333 -9 35 -27 35c-13.333 0 -23 -6.66699 -29 -20
c-6 -12.667 -9 -28 -9 -46v-3h-87c0 14.667 0.333008 23 1 25c4 34.667 17.333 62 40 82s52.667 30 90 30c38 0 66.333 -9.66699 85 -29c16 -16.667 24.333 -39 25 -67c0 -5.33301 -0.333008 -11 -1 -17c-2.66699 -26 -11.5 -50.5 -26.5 -73.5s-36.833 -51.167 -65.5 -84.5
c-8 -8 -31.333 -34.667 -70 -80h131l-7 -68h-227zM112.999 405.001l29 271l-62 -19l8 70c48.667 24 87 51.667 115 83h46l-42 -405h-94zM95.999 0.000976562l424 810h86l-424 -810h-86z" />
    <glyph glyph-name="threequarters" unicode="&#xbe;" horiz-adv-x="725" 
d="M180 428c-35.333 0 -61.6689 10 -79.002 30c-14 16.667 -21 38.667 -21 66c0 5.33301 0.333008 11 1 17h77v-12c0 -24 8.66699 -36 26 -36c11.333 0 19.166 4.16699 23.499 12.5s7.5 20.166 9.5 35.499v11c0 14 -3 23.667 -9 29c-8 6.66699 -23.333 10 -46 10l6 59
c22.667 0 38.834 3.5 48.501 10.5s15.5 20.167 17.5 39.5c0.666992 6.66699 1 12.334 1 17.001c0 8 -1 14.667 -3 20c-2.66699 8.66699 -9.66699 13 -21 13c-12.667 0 -21.5 -4.16699 -26.5 -12.5s-8.16699 -20.166 -9.5 -35.499h-77c4 37.333 16.667 65.333 38 84
s50 28 86 28c34.667 0 59.334 -9.33301 74.001 -28c12.667 -15.333 19 -36 19 -62c0 -6 -0.333008 -12.333 -1 -19c-2 -23.333 -10.5 -42.333 -25.5 -57s-32.5 -22.667 -52.5 -24c42 -5.33301 63 -28 63 -68c0 -4.66699 -0.333008 -9.33398 -1 -14.001
c-3.33301 -36 -15.166 -64 -35.499 -84s-47.833 -30 -82.5 -30zM527.997 0l13 113h-137l7 67l171 244h75l-25 -241h54l-8 -70h-53l-13 -113h-84zM127.997 0l424 810h86l-424 -810h-86zM473.997 183h74l14 131z" />
    <glyph glyph-name="questiondown" unicode="&#xbf;" horiz-adv-x="520" 
d="M231 -183c-69.333 0 -121.002 18.3359 -155.002 55.0029c-28 30 -42 70 -42 120c0 10 0.666992 20.333 2 31c6 58 28.333 113.667 67 167s86.334 101 143.001 143l10 97h135l-14 -128c-124.667 -98.667 -189.334 -193.334 -194.001 -284.001
c0 -2.66699 -0.333008 -5.66699 -1 -9c0 -19.333 5 -34.333 15 -45c11.333 -12.667 26.333 -18.667 45 -18c18.667 0 33.834 6.16699 45.501 18.5s17.834 28.833 18.501 49.5v10c0 11.333 -1.33301 23.666 -4 36.999l138 29c4 -26 6 -46 6 -60
c0 -3.33301 -0.333008 -6.33301 -1 -9c0 -60.667 -18.333 -109.834 -55 -147.501s-89.667 -56.5 -159 -56.5zM256.998 497.003l15 143h145l-14 -143h-146z" />
    <glyph glyph-name="Agrave" unicode="&#xc0;" horiz-adv-x="533" 
d="M290 879l-102 201h151l39 -201h-88zM-5 0l245 810h176l73 -810h-150l-11 181h-131l-49 -181h-153zM224 282h98l-15 324z" />
    <glyph glyph-name="Aacute" unicode="&#xc1;" horiz-adv-x="533" 
d="M290 879l81 201h151l-144 -201h-88zM-5 0l245 810h176l73 -810h-150l-11 181h-131l-49 -181h-153zM224 282h98l-15 324z" />
    <glyph glyph-name="Acircumflex" unicode="&#xc2;" horiz-adv-x="533" 
d="M177 879l111 186h128l75 -186h-109l-36 118l-60 -118h-109zM-5 0l245 810h176l73 -810h-150l-11 181h-131l-49 -181h-153zM224 282h98l-15 324z" />
    <glyph glyph-name="Atilde" unicode="&#xc3;" horiz-adv-x="533" 
d="M419 879h-4.00098c-13.333 0 -28 4 -44 12c-18 8 -35.167 16 -51.5 24s-29.166 12 -38.499 12c-17.333 0 -27.333 -13.333 -30 -40h-74c4 41.333 13.5 73.333 28.5 96s38.5 34.667 70.5 36h5c14.667 0 30 -3 46 -9c17.333 -7.33301 33.166 -15 47.499 -23
s24.5 -12.333 30.5 -13h4c14.667 0 23.334 13 26.001 39h70c-2 -18 -4.66699 -34.167 -8 -48.5s-8.16602 -28.166 -14.499 -41.499s-14.833 -23.833 -25.5 -31.5s-23.334 -11.834 -38.001 -12.501zM-5.00098 0l245 810h176l73 -810h-150l-11 181h-131l-49 -181h-153z
M223.999 282h98l-15 324z" />
    <glyph glyph-name="Adieresis" unicode="&#xc4;" horiz-adv-x="533" 
d="M170 880l14 138h127l-15 -138h-126zM372 880l15 138h127l-15 -138h-127zM-5 0l245 810h176l73 -810h-150l-11 181h-131l-49 -181h-153zM224 282h98l-15 324z" />
    <glyph glyph-name="Aring" unicode="&#xc5;" horiz-adv-x="533" 
d="M334 870c16 0 29.167 5.16602 39.5 15.499s16.166 23.5 17.499 39.5c0 2.66699 0.333008 5.33398 1 8.00098c0 12.667 -3.33301 23 -10 31c-8 10.667 -20.333 15.667 -37 15c-16.667 0 -30.167 -5.16699 -40.5 -15.5s-16.166 -23.166 -17.499 -38.499
c0 -2.66699 -0.333008 -5.33398 -1 -8.00098c0 -12.667 3.66699 -23 11 -31c8 -10.667 20.333 -16 37 -16zM327 811.999c-34 0 -60.667 10.001 -80 30.001c-16.667 16.667 -25 38.667 -25 66c0 5.33301 0.333008 11 1 17c3.33301 34.667 17 62 41 82s53 30 87 30
s61 -10 81 -30c16.667 -16.667 25 -39.334 25 -68.001v-14c-4 -34.667 -18.167 -62.167 -42.5 -82.5s-53.5 -30.5 -87.5 -30.5zM-5 0l245 810h176l73 -810h-150l-11 181h-131l-49 -181h-153zM224 282h98l-15 324z" />
    <glyph glyph-name="AE" unicode="&#xc6;" horiz-adv-x="690" 
d="M-49 0l435 802h340l-12 -111h-180l-23 -216h128l-12 -113h-127l-27 -251h180l-11 -111h-323l19 180h-134l-94 -180h-159zM250 284h99l27 264z" />
    <glyph glyph-name="Ccedilla" unicode="&#xc7;" horiz-adv-x="548" 
d="M170 -255l7 67c10 -2.66699 21.667 -5 35 -7c7.33301 -0.666992 14.666 -1 21.999 -1c5.33301 0 11 0.333008 17 1c12.667 0.666992 23.5 3.5 32.5 8.5s13.833 11.833 14.5 20.5c0.666992 8 -0.5 15.167 -3.5 21.5s-7.16699 11.5 -12.5 15.5s-12 7.5 -20 10.5
s-15.667 5.33301 -23 7s-15.666 3.16699 -24.999 4.5l11 107h60l-6 -63c36 -2 65.333 -12 88 -30c21.333 -15.333 32 -35.333 32 -60v-7c-2 -24 -10.5 -44.5 -25.5 -61.5s-33.5 -28.833 -55.5 -35.5c-21.333 -6.66699 -45 -10 -71 -10h-2c-26 0 -51 4 -75 12zM258 -11
c-35.333 0 -66.1621 4.33203 -92.4951 12.999s-47.5 20.834 -63.5 36.501s-28.5 34.667 -37.5 57s-14.167 47.5 -15.5 75.5c0 8.66699 -0.333008 17.334 -1 26.001c0 20 1 41.333 3 64l30 285c4.66699 44 12.5 82.167 23.5 114.5s26.667 60.833 47 85.5
s46.666 43.167 78.999 55.5s70.833 18.5 115.5 18.5c42 0 77.167 -5.5 105.5 -16.5s50.166 -27.167 65.499 -48.5c14.667 -21.333 24.334 -45.333 29.001 -72c2.66699 -14.667 3.66699 -31.334 3 -50.001c0 -14.667 -0.666992 -30.334 -2 -47.001l-8 -70h-157l8 74
c0.666992 10 1.33398 16.667 2.00098 20s1.16699 9.33301 1.5 18s0.333008 14.667 0 18s-0.833008 8.5 -1.5 15.5s-2 11.833 -4 14.5s-4.5 6.16699 -7.5 10.5s-6.66699 7.5 -11 9.5s-9.5 3.66699 -15.5 5s-12.667 2 -20 2c-11.333 0 -21.166 -1.33301 -29.499 -4
s-15.5 -7 -21.5 -13s-10.833 -12.167 -14.5 -18.5s-6.83398 -14.666 -9.50098 -24.999s-4.83398 -19.666 -6.50098 -27.999s-2.83398 -18.833 -3.50098 -31.5l-38 -358c-1.33301 -14 -2 -27 -2 -39c0 -21.333 2.66699 -38.333 8 -51
c8.66699 -18.667 26.667 -28.334 54 -29.001c10.667 0 20.167 1.33301 28.5 4s15.333 7.16699 21 13.5s10.167 12.333 13.5 18s6.16602 14 8.49902 25s4.16602 20.167 5.49902 27.5s2.66602 17.666 3.99902 30.999l8 77h157l-7 -68
c-4 -37.333 -11.167 -70.166 -21.5 -98.499s-25 -53.833 -44 -76.5s-44.167 -40 -75.5 -52s-68.333 -18 -111 -18z" />
    <glyph glyph-name="Egrave" unicode="&#xc8;" 
d="M260 879l-102 201h151l39 -201h-88zM36 0l85 810h350l-12 -113h-188l-23 -218h147l-12 -113h-147l-27 -255h191l-12 -111h-352z" />
    <glyph glyph-name="Eacute" unicode="&#xc9;" 
d="M260 879l81 201h151l-144 -201h-88zM36 0l85 810h350l-12 -113h-188l-23 -218h147l-12 -113h-147l-27 -255h191l-12 -111h-352z" />
    <glyph glyph-name="Ecircumflex" unicode="&#xca;" 
d="M147 879l111 186h128l75 -186h-109l-36 118l-60 -118h-109zM36 0l85 810h350l-12 -113h-188l-23 -218h147l-12 -113h-147l-27 -255h191l-12 -111h-352z" />
    <glyph glyph-name="Edieresis" unicode="&#xcb;" 
d="M139 880l14 138h127l-15 -138h-126zM341 880l15 138h127l-15 -138h-127zM36 0l85 810h350l-12 -113h-188l-23 -218h147l-12 -113h-147l-27 -255h191l-12 -111h-352z" />
    <glyph glyph-name="Igrave" unicode="&#xcc;" horiz-adv-x="286" 
d="M167 879l-102 201h151l39 -201h-88zM39 0l85 810h160l-85 -810h-160z" />
    <glyph glyph-name="Iacute" unicode="&#xcd;" horiz-adv-x="286" 
d="M167 879l81 201h151l-144 -201h-88zM39 0l85 810h160l-85 -810h-160z" />
    <glyph glyph-name="Icircumflex" unicode="&#xce;" horiz-adv-x="286" 
d="M54 879l111 186h128l75 -186h-109l-36 118l-60 -118h-109zM39 0l85 810h160l-85 -810h-160z" />
    <glyph glyph-name="Idieresis" unicode="&#xcf;" horiz-adv-x="286" 
d="M47 880l14 138h127l-15 -138h-126zM249 880l15 138h127l-15 -138h-127zM39 0l85 810h160l-85 -810h-160z" />
    <glyph glyph-name="Eth" unicode="&#xd0;" horiz-adv-x="565" 
d="M208 113h36.0039c13.333 0 25 1 35 3s18.667 4.5 26 7.5s13.666 8 18.999 15s9.66602 13.5 12.999 19.5s6.16602 14.833 8.49902 26.5s4.16602 21.834 5.49902 30.501s2.66602 21 3.99902 37l34 320c2 18 3 33.667 3 47c0 9.33301 -0.333008 17.666 -1 24.999
c-2 18 -9.66699 31 -23 39s-34.666 12 -63.999 12h-34l-25 -237h45l-9 -83h-45zM35.0039 0l39 374.999h-45l9 83h45l37 352h195c50.667 0 92.5 -4.83301 125.5 -14.5s58.5 -25.167 76.5 -46.5s29.667 -47.333 35 -78c2.66699 -16 4 -34 4 -54c0 -18.667 -1.33301 -39 -4 -61
l-31 -292c-6.66699 -62.667 -19.667 -112.667 -39 -150s-49 -65.666 -89 -84.999s-93 -29 -159 -29h-199z" />
    <glyph glyph-name="Ntilde" unicode="&#xd1;" horiz-adv-x="550" 
d="M428 879h-4.00098c-13.333 0 -28 4 -44 12c-18 8 -35.167 16 -51.5 24s-29.166 12 -38.499 12c-17.333 0 -27.333 -13.333 -30 -40h-74c4 41.333 13.5 73.333 28.5 96s38.5 34.667 70.5 36h5c14.667 0 30 -3 46 -9c17.333 -7.33301 33.166 -15 47.499 -23
s24.5 -12.333 30.5 -13h4c14.667 0 23.334 13 26.001 39h70c-2 -18 -4.66699 -34.167 -8 -48.5s-8.16602 -28.166 -14.499 -41.499s-14.833 -23.833 -25.5 -31.5s-23.334 -11.834 -38.001 -12.501zM35.999 0l85 810h112l139 -428l45 428h134l-85 -810h-107l-138 454
l-48 -454h-137z" />
    <glyph glyph-name="Ograve" unicode="&#xd2;" horiz-adv-x="572" 
d="M310 879l-102 201h151l39 -201h-88zM272 106c15.333 0 28.666 3 39.999 9s20 14.5 26 25.5s10.333 22.333 13 34s5 26.167 7 43.5l39 376c0.666992 13.333 1.33398 26 2.00098 38c0 6 -0.333008 11.667 -1 17c-0.666992 16 -6.16699 29 -16.5 39s-25.833 15 -46.5 15
c-15.333 0 -28.333 -2.66699 -39 -8s-19 -13.5 -25 -24.5s-10.333 -22.167 -13 -33.5s-5 -25.666 -7 -42.999l-40 -376c-1.33301 -14.667 -2 -28.334 -2 -41.001c0 -5.33301 0.333008 -10.333 1 -15c0.666992 -16 6 -29.333 16 -40s25.333 -16 46 -16zM260 -11
c-43.333 0 -79.8311 6 -109.498 18s-52.5 29.833 -68.5 53.5s-26.333 51.5 -31 83.5c-2.66699 16.667 -4 34.667 -4 54c0 18 1 37.333 3 58l32 300c9.33301 87.333 34.666 153.166 75.999 197.499s104.666 66.5 189.999 66.5c43.333 0 79.833 -5.83301 109.5 -17.5
s52.5 -29.167 68.5 -52.5c15.333 -23.333 26 -51 32 -83c2.66699 -16.667 4 -34.667 4 -54c0 -18 -1 -37 -3 -57l-32 -300c-9.33301 -87.333 -35 -153.666 -77 -198.999s-105.333 -68 -190 -68z" />
    <glyph glyph-name="Oacute" unicode="&#xd3;" horiz-adv-x="572" 
d="M310 879l81 201h151l-144 -201h-88zM272 106c15.333 0 28.666 3 39.999 9s20 14.5 26 25.5s10.333 22.333 13 34s5 26.167 7 43.5l39 376c0.666992 13.333 1.33398 26 2.00098 38c0 6 -0.333008 11.667 -1 17c-0.666992 16 -6.16699 29 -16.5 39s-25.833 15 -46.5 15
c-15.333 0 -28.333 -2.66699 -39 -8s-19 -13.5 -25 -24.5s-10.333 -22.167 -13 -33.5s-5 -25.666 -7 -42.999l-40 -376c-1.33301 -14.667 -2 -28.334 -2 -41.001c0 -5.33301 0.333008 -10.333 1 -15c0.666992 -16 6 -29.333 16 -40s25.333 -16 46 -16zM260 -11
c-43.333 0 -79.8311 6 -109.498 18s-52.5 29.833 -68.5 53.5s-26.333 51.5 -31 83.5c-2.66699 16.667 -4 34.667 -4 54c0 18 1 37.333 3 58l32 300c9.33301 87.333 34.666 153.166 75.999 197.499s104.666 66.5 189.999 66.5c43.333 0 79.833 -5.83301 109.5 -17.5
s52.5 -29.167 68.5 -52.5c15.333 -23.333 26 -51 32 -83c2.66699 -16.667 4 -34.667 4 -54c0 -18 -1 -37 -3 -57l-32 -300c-9.33301 -87.333 -35 -153.666 -77 -198.999s-105.333 -68 -190 -68z" />
    <glyph glyph-name="Ocircumflex" unicode="&#xd4;" horiz-adv-x="572" 
d="M197 879l111 186h128l75 -186h-109l-36 118l-60 -118h-109zM272 106c15.333 0 28.666 3 39.999 9s20 14.5 26 25.5s10.333 22.333 13 34s5 26.167 7 43.5l39 376c0.666992 13.333 1.33398 26 2.00098 38c0 6 -0.333008 11.667 -1 17c-0.666992 16 -6.16699 29 -16.5 39
s-25.833 15 -46.5 15c-15.333 0 -28.333 -2.66699 -39 -8s-19 -13.5 -25 -24.5s-10.333 -22.167 -13 -33.5s-5 -25.666 -7 -42.999l-40 -376c-1.33301 -14.667 -2 -28.334 -2 -41.001c0 -5.33301 0.333008 -10.333 1 -15c0.666992 -16 6 -29.333 16 -40s25.333 -16 46 -16z
M260 -11c-43.333 0 -79.8311 6 -109.498 18s-52.5 29.833 -68.5 53.5s-26.333 51.5 -31 83.5c-2.66699 16.667 -4 34.667 -4 54c0 18 1 37.333 3 58l32 300c9.33301 87.333 34.666 153.166 75.999 197.499s104.666 66.5 189.999 66.5c43.333 0 79.833 -5.83301 109.5 -17.5
s52.5 -29.167 68.5 -52.5c15.333 -23.333 26 -51 32 -83c2.66699 -16.667 4 -34.667 4 -54c0 -18 -1 -37 -3 -57l-32 -300c-9.33301 -87.333 -35 -153.666 -77 -198.999s-105.333 -68 -190 -68z" />
    <glyph glyph-name="Otilde" unicode="&#xd5;" horiz-adv-x="572" 
d="M440 879h-4.00098c-13.333 0 -28 4 -44 12c-18 8 -35.167 16 -51.5 24s-29.166 12 -38.499 12c-17.333 0 -27.333 -13.333 -30 -40h-74c4 41.333 13.5 73.333 28.5 96s38.5 34.667 70.5 36h5c14.667 0 30 -3 46 -9c17.333 -7.33301 33.166 -15 47.499 -23
s24.5 -12.333 30.5 -13h4c14.667 0 23.334 13 26.001 39h70c-2 -18 -4.66699 -34.167 -8 -48.5s-8.16602 -28.166 -14.499 -41.499s-14.833 -23.833 -25.5 -31.5s-23.334 -11.834 -38.001 -12.501zM271.999 106c15.333 0 28.666 3 39.999 9s20 14.5 26 25.5
s10.333 22.333 13 34s5 26.167 7 43.5l39 376c0.666992 13.333 1.33398 26 2.00098 38c0 6 -0.333008 11.667 -1 17c-0.666992 16 -6.16699 29 -16.5 39s-25.833 15 -46.5 15c-15.333 0 -28.333 -2.66699 -39 -8s-19 -13.5 -25 -24.5s-10.333 -22.167 -13 -33.5
s-5 -25.666 -7 -42.999l-40 -376c-1.33301 -14.667 -2 -28.334 -2 -41.001c0 -5.33301 0.333008 -10.333 1 -15c0.666992 -16 6 -29.333 16 -40s25.333 -16 46 -16zM259.999 -11c-43.333 0 -79.8311 6 -109.498 18s-52.5 29.833 -68.5 53.5s-26.333 51.5 -31 83.5
c-2.66699 16.667 -4 34.667 -4 54c0 18 1 37.333 3 58l32 300c9.33301 87.333 34.666 153.166 75.999 197.499s104.666 66.5 189.999 66.5c43.333 0 79.833 -5.83301 109.5 -17.5s52.5 -29.167 68.5 -52.5c15.333 -23.333 26 -51 32 -83c2.66699 -16.667 4 -34.667 4 -54
c0 -18 -1 -37 -3 -57l-32 -300c-9.33301 -87.333 -35 -153.666 -77 -198.999s-105.333 -68 -190 -68z" />
    <glyph glyph-name="Odieresis" unicode="&#xd6;" horiz-adv-x="572" 
d="M190 880l14 138h127l-15 -138h-126zM392 880l15 138h127l-15 -138h-127zM272 106c15.333 0 28.666 3 39.999 9s20 14.5 26 25.5s10.333 22.333 13 34s5 26.167 7 43.5l39 376c0.666992 13.333 1.33398 26 2.00098 38c0 6 -0.333008 11.667 -1 17
c-0.666992 16 -6.16699 29 -16.5 39s-25.833 15 -46.5 15c-15.333 0 -28.333 -2.66699 -39 -8s-19 -13.5 -25 -24.5s-10.333 -22.167 -13 -33.5s-5 -25.666 -7 -42.999l-40 -376c-1.33301 -14.667 -2 -28.334 -2 -41.001c0 -5.33301 0.333008 -10.333 1 -15
c0.666992 -16 6 -29.333 16 -40s25.333 -16 46 -16zM260 -11c-43.333 0 -79.8311 6 -109.498 18s-52.5 29.833 -68.5 53.5s-26.333 51.5 -31 83.5c-2.66699 16.667 -4 34.667 -4 54c0 18 1 37.333 3 58l32 300c9.33301 87.333 34.666 153.166 75.999 197.499
s104.666 66.5 189.999 66.5c43.333 0 79.833 -5.83301 109.5 -17.5s52.5 -29.167 68.5 -52.5c15.333 -23.333 26 -51 32 -83c2.66699 -16.667 4 -34.667 4 -54c0 -18 -1 -37 -3 -57l-32 -300c-9.33301 -87.333 -35 -153.666 -77 -198.999s-105.333 -68 -190 -68z" />
    <glyph glyph-name="multiply" unicode="&#xd7;" horiz-adv-x="456" 
d="M123 236l-62 69l117 106l-95 105l77 69l94 -105l117 105l62 -68l-117 -106l95 -106l-76 -69l-95 105z" />
    <glyph glyph-name="Oslash" unicode="&#xd8;" horiz-adv-x="562" 
d="M272 106c15.333 0 28.667 3.00098 40 9.00098s20 14.5 26 25.5s10.333 22.333 13 34s5 26.167 7 43.5l37 350l-184 -414c2 -12.667 7.33301 -23.334 16 -32.001c10 -10.667 25 -16 45 -16zM260.001 -10.999c-43.333 0 -79.998 6 -109.998 18l-4 2l-41 -92l-38 15l44 97
c-11.333 9.33301 -21 20 -29 32c-16 23.333 -26.333 51 -31 83c-2.66699 16.667 -4 34.667 -4 54c0 18 1 37.333 3 58l32 300c9.33301 87.333 34.666 153.166 75.999 197.499s104.666 66.5 189.999 66.5c42 0 77.333 -5.33301 106 -16l35 78l39 -14l-37 -83
c14 -9.33301 25.667 -21 35 -35c16 -23.333 26.667 -51 32 -83c2.66699 -16.667 4 -34.667 4 -54c0 -18 -1 -37 -3 -57l-32 -300c-9.33301 -87.333 -35 -153.666 -77 -198.999s-105.333 -68 -190 -68zM395.003 669.001c-2.66699 7.33301 -6.99902 13.666 -12.999 18.999
c-10.667 10 -26.334 15 -47.001 15c-15.333 0 -28.333 -2.66699 -39 -8s-19 -13.5 -25 -24.5s-10.333 -22.167 -13 -33.5s-5 -25.666 -7 -42.999l-34 -325z" />
    <glyph glyph-name="Ugrave" unicode="&#xd9;" horiz-adv-x="574" 
d="M310 879l-102 201h151l39 -201h-88zM262 -11c-45.333 0 -82.834 6.16797 -112.501 18.501s-51.667 30.333 -66 54s-23.5 52.5 -27.5 86.5c-2 15.333 -3 31.666 -3 48.999c0 21.333 1.66699 43.666 5 66.999l57 546h158l-59 -566
c-1.33301 -13.333 -2.33301 -24.666 -3 -33.999v-15v-16c0.666992 -11.333 2.33398 -20.833 5.00098 -28.5s6.16699 -14.834 10.5 -21.501s10.666 -11.667 18.999 -15s17.833 -5 28.5 -5c13.333 0 25 2.66699 35 8s18 11.833 24 19.5s11 17.834 15 30.501s7 24.667 9 36
s4 25 6 41l59 566h159l-58 -546c-4 -36 -9.5 -67.833 -16.5 -95.5s-17 -53 -30 -76s-29.167 -41.833 -48.5 -56.5s-42.666 -26.167 -69.999 -34.5s-59.333 -12.5 -96 -12.5z" />
    <glyph glyph-name="Uacute" unicode="&#xda;" horiz-adv-x="574" 
d="M311 879l81 201h151l-144 -201h-88zM262 -11c-45.333 0 -82.834 6.16797 -112.501 18.501s-51.667 30.333 -66 54s-23.5 52.5 -27.5 86.5c-2 15.333 -3 31.666 -3 48.999c0 21.333 1.66699 43.666 5 66.999l57 546h158l-59 -566
c-1.33301 -13.333 -2.33301 -24.666 -3 -33.999v-15v-16c0.666992 -11.333 2.33398 -20.833 5.00098 -28.5s6.16699 -14.834 10.5 -21.501s10.666 -11.667 18.999 -15s17.833 -5 28.5 -5c13.333 0 25 2.66699 35 8s18 11.833 24 19.5s11 17.834 15 30.501s7 24.667 9 36
s4 25 6 41l59 566h159l-58 -546c-4 -36 -9.5 -67.833 -16.5 -95.5s-17 -53 -30 -76s-29.167 -41.833 -48.5 -56.5s-42.666 -26.167 -69.999 -34.5s-59.333 -12.5 -96 -12.5z" />
    <glyph glyph-name="Ucircumflex" unicode="&#xdb;" horiz-adv-x="574" 
d="M198 879l111 186h128l75 -186h-109l-36 118l-60 -118h-109zM262 -11c-45.333 0 -82.834 6.16797 -112.501 18.501s-51.667 30.333 -66 54s-23.5 52.5 -27.5 86.5c-2 15.333 -3 31.666 -3 48.999c0 21.333 1.66699 43.666 5 66.999l57 546h158l-59 -566
c-1.33301 -13.333 -2.33301 -24.666 -3 -33.999v-15v-16c0.666992 -11.333 2.33398 -20.833 5.00098 -28.5s6.16699 -14.834 10.5 -21.501s10.666 -11.667 18.999 -15s17.833 -5 28.5 -5c13.333 0 25 2.66699 35 8s18 11.833 24 19.5s11 17.834 15 30.501s7 24.667 9 36
s4 25 6 41l59 566h159l-58 -546c-4 -36 -9.5 -67.833 -16.5 -95.5s-17 -53 -30 -76s-29.167 -41.833 -48.5 -56.5s-42.666 -26.167 -69.999 -34.5s-59.333 -12.5 -96 -12.5z" />
    <glyph glyph-name="Udieresis" unicode="&#xdc;" horiz-adv-x="574" 
d="M190 880l14 138h127l-15 -138h-126zM392 880l15 138h127l-15 -138h-127zM262 -11c-45.333 0 -82.834 6.16797 -112.501 18.501s-51.667 30.333 -66 54s-23.5 52.5 -27.5 86.5c-2 15.333 -3 31.666 -3 48.999c0 21.333 1.66699 43.666 5 66.999l57 546h158l-59 -566
c-1.33301 -13.333 -2.33301 -24.666 -3 -33.999v-15v-16c0.666992 -11.333 2.33398 -20.833 5.00098 -28.5s6.16699 -14.834 10.5 -21.501s10.666 -11.667 18.999 -15s17.833 -5 28.5 -5c13.333 0 25 2.66699 35 8s18 11.833 24 19.5s11 17.834 15 30.501s7 24.667 9 36
s4 25 6 41l59 566h159l-58 -546c-4 -36 -9.5 -67.833 -16.5 -95.5s-17 -53 -30 -76s-29.167 -41.833 -48.5 -56.5s-42.666 -26.167 -69.999 -34.5s-59.333 -12.5 -96 -12.5z" />
    <glyph glyph-name="Yacute" unicode="&#xdd;" horiz-adv-x="490" 
d="M269 879l81 201h151l-144 -201h-88zM145 0l33 318l-109 492h152l59 -293l115 293h148l-210 -492l-34 -318h-154z" />
    <glyph glyph-name="Thorn" unicode="&#xde;" horiz-adv-x="547" 
d="M36 0l85 810h161l-11 -108h88c76 0 130 -18.667 162 -56c26 -29.333 39.333 -72 40 -128c0 -14 -0.666992 -29 -2 -45c-4.66699 -45.333 -13.5 -83.5 -26.5 -114.5s-30.5 -55.667 -52.5 -74s-47.833 -31.5 -77.5 -39.5s-65.167 -12.333 -106.5 -13h-74l-25 -232h-161z
M234 351h56.998c38.667 0 66.834 8.5 84.501 25.5s28.834 47.5 33.501 91.5c0.666992 10 1 19.333 1 28c0 26 -4.66699 45.667 -14 59c-12.667 17.333 -37 26.333 -73 27h-64z" />
    <glyph glyph-name="germandbls" unicode="&#xdf;" horiz-adv-x="533" 
d="M224 -13l12.002 116.002c38.667 0 67.5 10.667 86.5 32s29.833 56.666 32.5 105.999v13c0 28.667 -6.66699 52 -20 70c-15.333 20.667 -37.666 31 -66.999 31l12 117c26 0 46.5 11.667 61.5 35s24.833 55.333 29.5 96c0.666992 10.667 1.33398 20 2.00098 28
c0 54 -20 81 -60 81c-12.667 0 -23.334 -2.5 -32.001 -7.5s-16 -12.5 -22 -22.5s-10.5 -21.333 -13.5 -34s-5.16699 -27.334 -6.5 -44.001l-63 -604h-149l64 603c1.33301 14 3.66602 28 6.99902 42s7.33301 27.5 12 40.5s10.5 25.167 17.5 36.5s15 22.166 24 32.499
s19 19.333 30 27s23 14.5 36 20.5s27.333 10.5 43 13.5s32.167 4.5 49.5 4.5c72.667 0 124.667 -18.333 156 -55c25.333 -30 38 -70.667 38 -122c0 -12 -0.666992 -25 -2 -39c-4.66699 -42 -17.5 -77.5 -38.5 -106.5s-51.5 -52.167 -91.5 -69.5
c30 -8.66699 55.333 -22.667 76 -42s35.667 -42.666 45 -69.999c6.66699 -20 10 -41.333 10 -64c0 -8 -0.666992 -16 -2 -24c-8.66699 -82.667 -36.334 -143.5 -83.001 -182.5s-111.334 -58.5 -194.001 -58.5z" />
    <glyph glyph-name="agrave" unicode="&#xe0;" horiz-adv-x="463" 
d="M232 647l-102 201h151l39 -201h-88zM141 -10c-26 0 -48.332 7.33301 -66.999 22c-18 14 -31 31.333 -39 52c-6 16 -9 32.667 -9 50c0 5.33301 0.333008 10.666 1 15.999c1.33301 14.667 4.16602 28.834 8.49902 42.501s9.16602 25.834 14.499 36.501s12.333 21 21 31
s16.834 18.667 24.501 26s17.667 14.833 30 22.5s22.5 13.667 30.5 18s19 9.66602 33 15.999s24.833 11 32.5 14s18.834 7.16699 33.501 12.5s25 9 31 11l5 53c0.666992 8 1 15.333 1 22c0 11.333 -1.33301 20 -4 26c-4.66699 10.667 -14.667 16 -30 16
c-26.667 0 -42.667 -18.667 -48 -56l-6 -39l-141 6c0 1.33301 0.5 4.83301 1.5 10.5s1.5 8.83398 1.5 9.50098c10.667 62 34 107.333 70 136s84.667 43 146 43c57.333 0 98.666 -15.333 123.999 -46c20.667 -25.333 31 -58.666 31 -99.999c0 -9.33301 -0.666992 -19 -2 -29
l-28 -267c-3.33301 -32.667 -5 -67.334 -5 -104.001v-41h-133c-3.33301 42 -5 69.667 -5 83c-10.667 -26.667 -26.5 -48.834 -47.5 -66.501s-46.167 -26.5 -75.5 -26.5zM208.001 99c9.33301 0 18.835 3.33398 28.502 10.001s18.167 14 25.5 22l16 159
c-28.667 -14 -53.334 -32.333 -74.001 -55s-32.334 -46.334 -35.001 -71.001c0 -4 -0.333008 -8 -1 -12c0 -14 3 -25.667 9 -35c6.66699 -12 17 -18 31 -18z" />
    <glyph glyph-name="aacute" unicode="&#xe1;" horiz-adv-x="463" 
d="M232 647l81 201h151l-144 -201h-88zM141 -10c-26 0 -48.332 7.33301 -66.999 22c-18 14 -31 31.333 -39 52c-6 16 -9 32.667 -9 50c0 5.33301 0.333008 10.666 1 15.999c1.33301 14.667 4.16602 28.834 8.49902 42.501s9.16602 25.834 14.499 36.501s12.333 21 21 31
s16.834 18.667 24.501 26s17.667 14.833 30 22.5s22.5 13.667 30.5 18s19 9.66602 33 15.999s24.833 11 32.5 14s18.834 7.16699 33.501 12.5s25 9 31 11l5 53c0.666992 8 1 15.333 1 22c0 11.333 -1.33301 20 -4 26c-4.66699 10.667 -14.667 16 -30 16
c-26.667 0 -42.667 -18.667 -48 -56l-6 -39l-141 6c0 1.33301 0.5 4.83301 1.5 10.5s1.5 8.83398 1.5 9.50098c10.667 62 34 107.333 70 136s84.667 43 146 43c57.333 0 98.666 -15.333 123.999 -46c20.667 -25.333 31 -58.666 31 -99.999c0 -9.33301 -0.666992 -19 -2 -29
l-28 -267c-3.33301 -32.667 -5 -67.334 -5 -104.001v-41h-133c-3.33301 42 -5 69.667 -5 83c-10.667 -26.667 -26.5 -48.834 -47.5 -66.501s-46.167 -26.5 -75.5 -26.5zM208.001 99c9.33301 0 18.835 3.33398 28.502 10.001s18.167 14 25.5 22l16 159
c-28.667 -14 -53.334 -32.333 -74.001 -55s-32.334 -46.334 -35.001 -71.001c0 -4 -0.333008 -8 -1 -12c0 -14 3 -25.667 9 -35c6.66699 -12 17 -18 31 -18z" />
    <glyph glyph-name="acircumflex" unicode="&#xe2;" horiz-adv-x="463" 
d="M119 647l111 186h128l75 -186h-109l-36 118l-60 -118h-109zM141 -10c-26 0 -48.332 7.33301 -66.999 22c-18 14 -31 31.333 -39 52c-6 16 -9 32.667 -9 50c0 5.33301 0.333008 10.666 1 15.999c1.33301 14.667 4.16602 28.834 8.49902 42.501
s9.16602 25.834 14.499 36.501s12.333 21 21 31s16.834 18.667 24.501 26s17.667 14.833 30 22.5s22.5 13.667 30.5 18s19 9.66602 33 15.999s24.833 11 32.5 14s18.834 7.16699 33.501 12.5s25 9 31 11l5 53c0.666992 8 1 15.333 1 22c0 11.333 -1.33301 20 -4 26
c-4.66699 10.667 -14.667 16 -30 16c-26.667 0 -42.667 -18.667 -48 -56l-6 -39l-141 6c0 1.33301 0.5 4.83301 1.5 10.5s1.5 8.83398 1.5 9.50098c10.667 62 34 107.333 70 136s84.667 43 146 43c57.333 0 98.666 -15.333 123.999 -46
c20.667 -25.333 31 -58.666 31 -99.999c0 -9.33301 -0.666992 -19 -2 -29l-28 -267c-3.33301 -32.667 -5 -67.334 -5 -104.001v-41h-133c-3.33301 42 -5 69.667 -5 83c-10.667 -26.667 -26.5 -48.834 -47.5 -66.501s-46.167 -26.5 -75.5 -26.5zM208.001 99
c9.33301 0 18.835 3.33398 28.502 10.001s18.167 14 25.5 22l16 159c-28.667 -14 -53.334 -32.333 -74.001 -55s-32.334 -46.334 -35.001 -71.001c0 -4 -0.333008 -8 -1 -12c0 -14 3 -25.667 9 -35c6.66699 -12 17 -18 31 -18z" />
    <glyph glyph-name="atilde" unicode="&#xe3;" horiz-adv-x="463" 
d="M361 647h-4.00098c-13.333 0 -28 4 -44 12c-18 8 -35.167 16 -51.5 24s-29.166 12 -38.499 12c-17.333 0 -27.333 -13.333 -30 -40h-74c4 41.333 13.5 73.333 28.5 96s38.5 34.667 70.5 36h5c14.667 0 30 -3 46 -9c17.333 -7.33301 33.166 -15 47.499 -23
s24.5 -12.333 30.5 -13h4c14.667 0 23.334 13 26.001 39h70c-2 -18 -4.66699 -34.167 -8 -48.5s-8.16602 -28.166 -14.499 -41.499s-14.833 -23.833 -25.5 -31.5s-23.334 -11.834 -38.001 -12.501zM140.999 -10c-26 0 -48.332 7.33301 -66.999 22c-18 14 -31 31.333 -39 52
c-6 16 -9 32.667 -9 50c0 5.33301 0.333008 10.666 1 15.999c1.33301 14.667 4.16602 28.834 8.49902 42.501s9.16602 25.834 14.499 36.501s12.333 21 21 31s16.834 18.667 24.501 26s17.667 14.833 30 22.5s22.5 13.667 30.5 18s19 9.66602 33 15.999s24.833 11 32.5 14
s18.834 7.16699 33.501 12.5s25 9 31 11l5 53c0.666992 8 1 15.333 1 22c0 11.333 -1.33301 20 -4 26c-4.66699 10.667 -14.667 16 -30 16c-26.667 0 -42.667 -18.667 -48 -56l-6 -39l-141 6c0 1.33301 0.5 4.83301 1.5 10.5s1.5 8.83398 1.5 9.50098
c10.667 62 34 107.333 70 136s84.667 43 146 43c57.333 0 98.666 -15.333 123.999 -46c20.667 -25.333 31 -58.666 31 -99.999c0 -9.33301 -0.666992 -19 -2 -29l-28 -267c-3.33301 -32.667 -5 -67.334 -5 -104.001v-41h-133c-3.33301 42 -5 69.667 -5 83
c-10.667 -26.667 -26.5 -48.834 -47.5 -66.501s-46.167 -26.5 -75.5 -26.5zM208 99c9.33301 0 18.835 3.33398 28.502 10.001s18.167 14 25.5 22l16 159c-28.667 -14 -53.334 -32.333 -74.001 -55s-32.334 -46.334 -35.001 -71.001c0 -4 -0.333008 -8 -1 -12
c0 -14 3 -25.667 9 -35c6.66699 -12 17 -18 31 -18z" />
    <glyph glyph-name="adieresis" unicode="&#xe4;" horiz-adv-x="463" 
d="M111 647l14 138h127l-15 -138h-126zM313 647l15 138h127l-15 -138h-127zM141 -10c-26 0 -48.332 7.33301 -66.999 22c-18 14 -31 31.333 -39 52c-6 16 -9 32.667 -9 50c0 5.33301 0.333008 10.666 1 15.999c1.33301 14.667 4.16602 28.834 8.49902 42.501
s9.16602 25.834 14.499 36.501s12.333 21 21 31s16.834 18.667 24.501 26s17.667 14.833 30 22.5s22.5 13.667 30.5 18s19 9.66602 33 15.999s24.833 11 32.5 14s18.834 7.16699 33.501 12.5s25 9 31 11l5 53c0.666992 8 1 15.333 1 22c0 11.333 -1.33301 20 -4 26
c-4.66699 10.667 -14.667 16 -30 16c-26.667 0 -42.667 -18.667 -48 -56l-6 -39l-141 6c0 1.33301 0.5 4.83301 1.5 10.5s1.5 8.83398 1.5 9.50098c10.667 62 34 107.333 70 136s84.667 43 146 43c57.333 0 98.666 -15.333 123.999 -46
c20.667 -25.333 31 -58.666 31 -99.999c0 -9.33301 -0.666992 -19 -2 -29l-28 -267c-3.33301 -32.667 -5 -67.334 -5 -104.001v-41h-133c-3.33301 42 -5 69.667 -5 83c-10.667 -26.667 -26.5 -48.834 -47.5 -66.501s-46.167 -26.5 -75.5 -26.5zM208.001 99
c9.33301 0 18.835 3.33398 28.502 10.001s18.167 14 25.5 22l16 159c-28.667 -14 -53.334 -32.333 -74.001 -55s-32.334 -46.334 -35.001 -71.001c0 -4 -0.333008 -8 -1 -12c0 -14 3 -25.667 9 -35c6.66699 -12 17 -18 31 -18z" />
    <glyph glyph-name="aring" unicode="&#xe5;" horiz-adv-x="463" 
d="M282 705c16 0 29.167 5.16602 39.5 15.499s16.166 23.5 17.499 39.5c0 2.66699 0.333008 5.33398 1 8.00098c0 12.667 -3.33301 23 -10 31c-8 10.667 -20.333 15.667 -37 15c-16.667 0 -30.167 -5.16699 -40.5 -15.5s-16.166 -23.166 -17.499 -38.499
c0 -2.66699 -0.333008 -5.33398 -1 -8.00098c0 -12.667 3.66699 -23 11 -31c8 -10.667 20.333 -16 37 -16zM275 646.999c-34 0 -60.667 10.001 -80 30.001c-16.667 16.667 -25 38.667 -25 66c0 5.33301 0.333008 11 1 17c3.33301 34.667 17 62 41 82s53 30 87 30
s61 -10 81 -30c16.667 -16.667 25 -39.334 25 -68.001v-14c-4 -34.667 -18.167 -62.167 -42.5 -82.5s-53.5 -30.5 -87.5 -30.5zM141 -10c-26 0 -48.332 7.33301 -66.999 22c-18 14 -31 31.333 -39 52c-6 16 -9 32.667 -9 50c0 5.33301 0.333008 10.666 1 15.999
c1.33301 14.667 4.16602 28.834 8.49902 42.501s9.16602 25.834 14.499 36.501s12.333 21 21 31s16.834 18.667 24.501 26s17.667 14.833 30 22.5s22.5 13.667 30.5 18s19 9.66602 33 15.999s24.833 11 32.5 14s18.834 7.16699 33.501 12.5s25 9 31 11l5 53
c0.666992 8 1 15.333 1 22c0 11.333 -1.33301 20 -4 26c-4.66699 10.667 -14.667 16 -30 16c-26.667 0 -42.667 -18.667 -48 -56l-6 -39l-141 6c0 1.33301 0.5 4.83301 1.5 10.5s1.5 8.83398 1.5 9.50098c10.667 62 34 107.333 70 136s84.667 43 146 43
c57.333 0 98.666 -15.333 123.999 -46c20.667 -25.333 31 -58.666 31 -99.999c0 -9.33301 -0.666992 -19 -2 -29l-28 -267c-3.33301 -32.667 -5 -67.334 -5 -104.001v-41h-133c-3.33301 42 -5 69.667 -5 83c-10.667 -26.667 -26.5 -48.834 -47.5 -66.501
s-46.167 -26.5 -75.5 -26.5zM208.001 99c9.33301 0 18.835 3.33398 28.502 10.001s18.167 14 25.5 22l16 159c-28.667 -14 -53.334 -32.333 -74.001 -55s-32.334 -46.334 -35.001 -71.001c0 -4 -0.333008 -8 -1 -12c0 -14 3 -25.667 9 -35c6.66699 -12 17 -18 31 -18z" />
    <glyph glyph-name="ae" unicode="&#xe6;" horiz-adv-x="630" 
d="M150 -11c-39.333 1.33301 -70.6689 15.3311 -94.002 41.998c-20 22 -30 49.333 -30 82c0 6 0.333008 12.667 1 20c2 23.333 6.83301 44.333 14.5 63s16.834 34.5 27.501 47.5s23.5 24.5 38.5 34.5s30 18 45 24s31.833 11 50.5 15c31.333 8 57 13.667 77 17l8 75
c0.666992 6.66699 1 12.667 1 18c0 13.333 -2 23.666 -6 30.999c-5.33301 11.333 -15.666 17 -30.999 17s-27 -6.33301 -35 -19s-13.667 -33 -17 -61h-145c6.66699 64 27.167 113.667 61.5 149s81.166 53 140.499 53c30 0 55 -6.66699 75 -20s32 -31.333 36 -54
c12 21.333 29.833 39 53.5 53s49.834 21 78.501 21c28 0 52.333 -4.33301 73 -13s37 -20.667 49 -36c12 -14.667 20.333 -32 25 -52c3.33301 -13.333 5.33301 -27.333 6 -42c0 -6.66699 -0.333008 -13.334 -1 -20.001c-2 -17.333 -7 -33.166 -15 -47.499
s-17.167 -26.166 -27.5 -35.499s-23.5 -17.666 -39.5 -24.999s-31 -12.833 -45 -16.5s-30 -7.5 -48 -11.5c-9.33301 -2 -29 -5.66699 -59 -11l-7 -72c0 -2 -0.333008 -5.33301 -1 -10l-1.5 -15l-1.5 -15c-0.666992 -6.66699 -1 -11.834 -1 -15.501v-13.5
c0 -5.33301 0.333008 -9.66602 1 -12.999s1.5 -7.16602 2.5 -11.499s2.5 -7.66602 4.5 -9.99902s4 -4.5 6 -6.5s4.66699 -3.5 8 -4.5s6.66602 -1.5 9.99902 -1.5c6.66699 0 12.5 1.33301 17.5 4s9 6 12 10s5.5 9.83301 7.5 17.5s3.5 14.5 4.5 20.5s1.83301 13.667 2.5 23
l3 28h140l-4 -38c-6 -55.333 -24.667 -98.333 -56 -129s-74.666 -46 -129.999 -46c-20 0 -38.833 3.83301 -56.5 11.5s-32.5 19.167 -44.5 34.5s-19 33 -21 53c-16.667 -30.667 -39.667 -55.334 -69 -74.001c-27.333 -16.667 -56 -25 -86 -25h-8zM201.997 93.998
c7.33301 0 14.333 1.66797 21 5.00098s12.834 8.5 18.501 15.5s10.667 16.333 15 28s7.16602 25.167 8.49902 40.5l8 82c-14 -4 -26 -8.66699 -36 -14c-21.333 -10.667 -38.333 -24.834 -51 -42.501s-20 -35.5 -22 -53.5v-9c0 -12.667 2.33301 -24 7 -34
c6.66699 -12 17 -18 31 -18zM424.997 356.999c4 0.666992 9.33301 1.83301 16 3.5s13.5 3.5 20.5 5.5s11.5 4 13.5 6c15.333 5.33301 26.833 12.333 34.5 21s12.5 22 14.5 40c0 4.66699 0.333008 9 1 13c0 12.667 -2 23.334 -6 32.001c-6 11.333 -16.333 16.666 -31 15.999
c-10.667 0 -20 -3.16699 -28 -9.5s-14.167 -15 -18.5 -26s-7.5 -23.833 -9.5 -38.5z" />
    <glyph glyph-name="ccedilla" unicode="&#xe7;" horiz-adv-x="452" 
d="M121 -255l7 67c10 -2.66699 21.667 -5 35 -7c7.33301 -0.666992 14.666 -1 21.999 -1c5.33301 0 11 0.333008 17 1c12.667 0.666992 23.5 3.5 32.5 8.5s13.833 11.833 14.5 20.5c0.666992 8 -0.5 15.167 -3.5 21.5s-7.16699 11.5 -12.5 15.5s-12 7.5 -20 10.5
s-15.667 5.33301 -23 7s-15.666 3.16699 -24.999 4.5l11 107h60l-6 -63c36 -2 65.333 -12 88 -30c21.333 -15.333 32 -35.333 32 -60v-7c-2 -24 -10.5 -44.5 -25.5 -61.5s-33.5 -28.833 -55.5 -35.5c-21.333 -6.66699 -45 -10 -71 -10h-2c-26 0 -51 4 -75 12zM207 -10
c-64.667 0 -111.002 17.998 -139.002 53.998c-22 28 -33 66 -33 114c0 12.667 0.666992 25.334 2 38.001l20 186c6.66699 66 27.5 116.667 62.5 152s84.833 53 149.5 53c62 0 106.667 -14.333 134 -43c22.667 -24 34 -58 34 -102c0 -10 -0.666992 -20.333 -2 -31l-6 -53
h-140l5 57c0.666992 8.66699 1.33398 16 2.00098 22c0 14 -2 24.667 -6 32c-5.33301 10 -15.666 15 -30.999 15c-16 0 -27.833 -6.16699 -35.5 -18.5s-13.167 -34.166 -16.5 -65.499l-23 -224c-1.33301 -12 -2 -22 -2 -30c0 -14.667 1.66699 -26 5 -34
c5.33301 -11.333 15.833 -17 31.5 -17s27.167 5.33301 34.5 16s12.333 27.667 15 51l7 68h141l-6 -61c-6.66699 -58.667 -27 -103.167 -61 -133.5s-81.333 -45.5 -142 -45.5z" />
    <glyph glyph-name="egrave" unicode="&#xe8;" horiz-adv-x="457" 
d="M229 647l-102 201h151l39 -201h-88zM208 -10c-65.333 0 -112 17.668 -140 53.001c-22.667 28.667 -33.667 67.667 -33 117c0 12 0.666992 24.333 2 37l19 183c7.33301 67.333 28.833 118.666 64.5 153.999s85.5 53 149.5 53c66 0 111.333 -17.667 136 -53
c19.333 -28 29 -66 29 -114c0 -14 -0.666992 -29.333 -2 -46l-10 -93h-230l-10 -93c-1.33301 -15.333 -2 -29.333 -2 -42c0 -1.33301 0.333008 -3 1 -5c0 -13.333 3 -23.833 9 -31.5s15.333 -11.5 28 -11.5c16 0 28.167 5.5 36.5 16.5s13.5 27.833 15.5 50.5l6 52h139
l-5 -45c-6 -58.667 -26.5 -103.667 -61.5 -135s-82.167 -47 -141.5 -47zM201 353.001h90l6 56c0.666992 8 1 15 1 21c0 14.667 -2 26 -6 34c-6 11.333 -17.167 17 -33.5 17s-28.5 -6.33301 -36.5 -19s-13.667 -35 -17 -67z" />
    <glyph glyph-name="eacute" unicode="&#xe9;" horiz-adv-x="457" 
d="M229 647l81 201h151l-144 -201h-88zM208 -10c-65.333 0 -112 17.668 -140 53.001c-22.667 28.667 -33.667 67.667 -33 117c0 12 0.666992 24.333 2 37l19 183c7.33301 67.333 28.833 118.666 64.5 153.999s85.5 53 149.5 53c66 0 111.333 -17.667 136 -53
c19.333 -28 29 -66 29 -114c0 -14 -0.666992 -29.333 -2 -46l-10 -93h-230l-10 -93c-1.33301 -15.333 -2 -29.333 -2 -42c0 -1.33301 0.333008 -3 1 -5c0 -13.333 3 -23.833 9 -31.5s15.333 -11.5 28 -11.5c16 0 28.167 5.5 36.5 16.5s13.5 27.833 15.5 50.5l6 52h139
l-5 -45c-6 -58.667 -26.5 -103.667 -61.5 -135s-82.167 -47 -141.5 -47zM201 353.001h90l6 56c0.666992 8 1 15 1 21c0 14.667 -2 26 -6 34c-6 11.333 -17.167 17 -33.5 17s-28.5 -6.33301 -36.5 -19s-13.667 -35 -17 -67z" />
    <glyph glyph-name="ecircumflex" unicode="&#xea;" horiz-adv-x="457" 
d="M116 647l111 186h128l75 -186h-109l-36 118l-60 -118h-109zM208 -10c-65.333 0 -112 17.668 -140 53.001c-22.667 28.667 -33.667 67.667 -33 117c0 12 0.666992 24.333 2 37l19 183c7.33301 67.333 28.833 118.666 64.5 153.999s85.5 53 149.5 53
c66 0 111.333 -17.667 136 -53c19.333 -28 29 -66 29 -114c0 -14 -0.666992 -29.333 -2 -46l-10 -93h-230l-10 -93c-1.33301 -15.333 -2 -29.333 -2 -42c0 -1.33301 0.333008 -3 1 -5c0 -13.333 3 -23.833 9 -31.5s15.333 -11.5 28 -11.5c16 0 28.167 5.5 36.5 16.5
s13.5 27.833 15.5 50.5l6 52h139l-5 -45c-6 -58.667 -26.5 -103.667 -61.5 -135s-82.167 -47 -141.5 -47zM201 353.001h90l6 56c0.666992 8 1 15 1 21c0 14.667 -2 26 -6 34c-6 11.333 -17.167 17 -33.5 17s-28.5 -6.33301 -36.5 -19s-13.667 -35 -17 -67z" />
    <glyph glyph-name="edieresis" unicode="&#xeb;" horiz-adv-x="457" 
d="M108 647l14 138h127l-15 -138h-126zM310 647l15 138h127l-15 -138h-127zM208 -10c-65.333 0 -112 17.668 -140 53.001c-22.667 28.667 -33.667 67.667 -33 117c0 12 0.666992 24.333 2 37l19 183c7.33301 67.333 28.833 118.666 64.5 153.999s85.5 53 149.5 53
c66 0 111.333 -17.667 136 -53c19.333 -28 29 -66 29 -114c0 -14 -0.666992 -29.333 -2 -46l-10 -93h-230l-10 -93c-1.33301 -15.333 -2 -29.333 -2 -42c0 -1.33301 0.333008 -3 1 -5c0 -13.333 3 -23.833 9 -31.5s15.333 -11.5 28 -11.5c16 0 28.167 5.5 36.5 16.5
s13.5 27.833 15.5 50.5l6 52h139l-5 -45c-6 -58.667 -26.5 -103.667 -61.5 -135s-82.167 -47 -141.5 -47zM201 353.001h90l6 56c0.666992 8 1 15 1 21c0 14.667 -2 26 -6 34c-6 11.333 -17.167 17 -33.5 17s-28.5 -6.33301 -36.5 -19s-13.667 -35 -17 -67z" />
    <glyph glyph-name="igrave" unicode="&#xec;" horiz-adv-x="265" 
d="M133 647l-102 201h151l39 -201h-88zM35 0l61 578h148l-60 -578h-149z" />
    <glyph glyph-name="iacute" unicode="&#xed;" horiz-adv-x="265" 
d="M133 647l81 201h151l-144 -201h-88zM35 0l61 578h148l-60 -578h-149z" />
    <glyph glyph-name="icircumflex" unicode="&#xee;" horiz-adv-x="265" 
d="M20 647l111 186h128l75 -186h-109l-36 118l-60 -118h-109zM35 0l61 578h148l-60 -578h-149z" />
    <glyph glyph-name="idieresis" unicode="&#xef;" horiz-adv-x="265" 
d="M12 647l14 138h127l-15 -138h-126zM214 647l15 138h127l-15 -138h-127zM35 0l61 578h148l-60 -578h-149z" />
    <glyph glyph-name="eth" unicode="&#xf0;" horiz-adv-x="506" 
d="M224 -13c-66 0 -113.332 18.6699 -141.999 56.0029c-22.667 29.333 -34 70.666 -34 123.999c0 14.667 1 31 3 49l14 135c7.33301 66.667 28 120.5 62 161.5s78 61.5 132 61.5c31.333 0 58 -8.33301 80 -25c0.666992 11.333 1 22 1 32
c0 39.333 -5.33301 67.666 -16 84.999l-103 -43l-8 46l88 38c-18.667 23.333 -62.334 34.666 -131.001 33.999l17 94c114.667 0 190.667 -24.667 228 -74l104 44l7 -48l-86 -36c14 -30 25.333 -71 34 -123c4 -28.667 6 -59 6 -91c0 -26 -1.33301 -53.333 -4 -82l-22 -203
c-16 -156.667 -92.667 -235 -230 -235zM236.001 91.0029c22 0 37.6709 7.83301 47.0039 23.5s15.666 38.834 18.999 69.501l28 268l-3.5 3c-2.33301 2 -4.33301 3.33301 -6 4s-3.83398 2 -6.50098 4s-5.33398 3.33301 -8.00098 4s-5.83398 1.5 -9.50098 2.5
s-7.5 1.5 -11.5 1.5c-24 0 -41.5 -12.833 -52.5 -38.5s-20.167 -73.167 -27.5 -142.5c-1.33301 -12 -3.33301 -28.667 -6 -50c-5.33301 -30.667 -8 -57.334 -8 -80.001c0 -11.333 0.666992 -21 2 -29c4 -26.667 18.333 -40 43 -40z" />
    <glyph glyph-name="ntilde" unicode="&#xf1;" horiz-adv-x="488" 
d="M375 647h-4.00098c-13.333 0 -28 4 -44 12c-18 8 -35.167 16 -51.5 24s-29.166 12 -38.499 12c-17.333 0 -27.333 -13.333 -30 -40h-74c4 41.333 13.5 73.333 28.5 96s38.5 34.667 70.5 36h5c14.667 0 30 -3 46 -9c17.333 -7.33301 33.166 -15 47.499 -23
s24.5 -12.333 30.5 -13h4c14.667 0 23.334 13 26.001 39h70c-2 -18 -4.66699 -34.167 -8 -48.5s-8.16602 -28.166 -14.499 -41.499s-14.833 -23.833 -25.5 -31.5s-23.334 -11.834 -38.001 -12.501zM26.999 0l61.001 578h148l-6 -57c51.333 44 100.666 66 147.999 66
c33.333 0 57 -12 71 -36c11.333 -19.333 17 -42.333 17 -69c0 -7.33301 -0.666992 -15.333 -2 -24l-47 -458h-149l45 431c0.666992 5.33301 1 10 1 14c0 10 -1.33301 17.667 -4 23c-4 8 -13 11.667 -27 11c-15.333 0 -35 -7.66699 -59 -23l-48 -456h-149z" />
    <glyph glyph-name="ograve" unicode="&#xf2;" horiz-adv-x="466" 
d="M233 647l-102 201h151l39 -201h-88zM218 93c18.667 0 31.834 7.16992 39.501 21.5029s12.834 35.166 15.501 62.499l24 224c0.666992 10.667 1 20.334 1 29.001c0 14 -1.33301 25.333 -4 34c-4.66699 14 -16.167 21.167 -34.5 21.5s-31.333 -6.83398 -39 -21.501
s-12.834 -35.667 -15.501 -63l-23 -224c-0.666992 -12.667 -1.33398 -24.334 -2.00098 -35.001v-7c0 -12.667 3.16699 -22.834 9.5 -30.501s15.833 -11.5 28.5 -11.5zM207.5 -9.99707c-62.333 0 -108.167 16.998 -137.5 50.998c-24 28 -36 65.333 -36 112
c0 11.333 0.666992 23 2 35l21 203c6.66699 63.333 28.167 111.833 64.5 145.5s85.833 50.5 148.5 50.5s109 -16.667 139 -50c24 -27.333 36 -64.666 36 -111.999c0 -10.667 -0.666992 -22 -2 -34l-21 -203c-6.66699 -63.333 -28.5 -112.166 -65.5 -146.499
s-86.667 -51.5 -149 -51.5z" />
    <glyph glyph-name="oacute" unicode="&#xf3;" horiz-adv-x="466" 
d="M233 647l81 201h151l-144 -201h-88zM218 93c18.667 0 31.834 7.16992 39.501 21.5029s12.834 35.166 15.501 62.499l24 224c0.666992 10.667 1 20.334 1 29.001c0 14 -1.33301 25.333 -4 34c-4.66699 14 -16.167 21.167 -34.5 21.5s-31.333 -6.83398 -39 -21.501
s-12.834 -35.667 -15.501 -63l-23 -224c-0.666992 -12.667 -1.33398 -24.334 -2.00098 -35.001v-7c0 -12.667 3.16699 -22.834 9.5 -30.501s15.833 -11.5 28.5 -11.5zM207.5 -9.99707c-62.333 0 -108.167 16.998 -137.5 50.998c-24 28 -36 65.333 -36 112
c0 11.333 0.666992 23 2 35l21 203c6.66699 63.333 28.167 111.833 64.5 145.5s85.833 50.5 148.5 50.5s109 -16.667 139 -50c24 -27.333 36 -64.666 36 -111.999c0 -10.667 -0.666992 -22 -2 -34l-21 -203c-6.66699 -63.333 -28.5 -112.166 -65.5 -146.499
s-86.667 -51.5 -149 -51.5z" />
    <glyph glyph-name="ocircumflex" unicode="&#xf4;" horiz-adv-x="466" 
d="M120 647l111 186h128l75 -186h-109l-36 118l-60 -118h-109zM218 93c18.667 0 31.834 7.16992 39.501 21.5029s12.834 35.166 15.501 62.499l24 224c0.666992 10.667 1 20.334 1 29.001c0 14 -1.33301 25.333 -4 34c-4.66699 14 -16.167 21.167 -34.5 21.5
s-31.333 -6.83398 -39 -21.501s-12.834 -35.667 -15.501 -63l-23 -224c-0.666992 -12.667 -1.33398 -24.334 -2.00098 -35.001v-7c0 -12.667 3.16699 -22.834 9.5 -30.501s15.833 -11.5 28.5 -11.5zM207.5 -9.99707c-62.333 0 -108.167 16.998 -137.5 50.998
c-24 28 -36 65.333 -36 112c0 11.333 0.666992 23 2 35l21 203c6.66699 63.333 28.167 111.833 64.5 145.5s85.833 50.5 148.5 50.5s109 -16.667 139 -50c24 -27.333 36 -64.666 36 -111.999c0 -10.667 -0.666992 -22 -2 -34l-21 -203
c-6.66699 -63.333 -28.5 -112.166 -65.5 -146.499s-86.667 -51.5 -149 -51.5z" />
    <glyph glyph-name="otilde" unicode="&#xf5;" horiz-adv-x="466" 
d="M363 647h-4.00098c-13.333 0 -28 4 -44 12c-18 8 -35.167 16 -51.5 24s-29.166 12 -38.499 12c-17.333 0 -27.333 -13.333 -30 -40h-74c4 41.333 13.5 73.333 28.5 96s38.5 34.667 70.5 36h5c14.667 0 30 -3 46 -9c17.333 -7.33301 33.166 -15 47.499 -23
s24.5 -12.333 30.5 -13h4c14.667 0 23.334 13 26.001 39h70c-2 -18 -4.66699 -34.167 -8 -48.5s-8.16602 -28.166 -14.499 -41.499s-14.833 -23.833 -25.5 -31.5s-23.334 -11.834 -38.001 -12.501zM217.999 93c18.667 0 31.834 7.16992 39.501 21.5029
s12.834 35.166 15.501 62.499l24 224c0.666992 10.667 1 20.334 1 29.001c0 14 -1.33301 25.333 -4 34c-4.66699 14 -16.167 21.167 -34.5 21.5s-31.333 -6.83398 -39 -21.501s-12.834 -35.667 -15.501 -63l-23 -224c-0.666992 -12.667 -1.33398 -24.334 -2.00098 -35.001
v-7c0 -12.667 3.16699 -22.834 9.5 -30.501s15.833 -11.5 28.5 -11.5zM207.499 -9.99707c-62.333 0 -108.167 16.998 -137.5 50.998c-24 28 -36 65.333 -36 112c0 11.333 0.666992 23 2 35l21 203c6.66699 63.333 28.167 111.833 64.5 145.5s85.833 50.5 148.5 50.5
s109 -16.667 139 -50c24 -27.333 36 -64.666 36 -111.999c0 -10.667 -0.666992 -22 -2 -34l-21 -203c-6.66699 -63.333 -28.5 -112.166 -65.5 -146.499s-86.667 -51.5 -149 -51.5z" />
    <glyph glyph-name="odieresis" unicode="&#xf6;" horiz-adv-x="466" 
d="M112 647l14 138h127l-15 -138h-126zM314 647l15 138h127l-15 -138h-127zM218 93c18.667 0 31.834 7.16992 39.501 21.5029s12.834 35.166 15.501 62.499l24 224c0.666992 10.667 1 20.334 1 29.001c0 14 -1.33301 25.333 -4 34c-4.66699 14 -16.167 21.167 -34.5 21.5
s-31.333 -6.83398 -39 -21.501s-12.834 -35.667 -15.501 -63l-23 -224c-0.666992 -12.667 -1.33398 -24.334 -2.00098 -35.001v-7c0 -12.667 3.16699 -22.834 9.5 -30.501s15.833 -11.5 28.5 -11.5zM207.5 -9.99707c-62.333 0 -108.167 16.998 -137.5 50.998
c-24 28 -36 65.333 -36 112c0 11.333 0.666992 23 2 35l21 203c6.66699 63.333 28.167 111.833 64.5 145.5s85.833 50.5 148.5 50.5s109 -16.667 139 -50c24 -27.333 36 -64.666 36 -111.999c0 -10.667 -0.666992 -22 -2 -34l-21 -203
c-6.66699 -63.333 -28.5 -112.166 -65.5 -146.499s-86.667 -51.5 -149 -51.5z" />
    <glyph glyph-name="divide" unicode="&#xf7;" horiz-adv-x="421" 
d="M159 172l12 122h99l-14 -122h-97zM43 373l10 86h364l-10 -86h-364zM196 529l13 122h98l-13 -122h-98z" />
    <glyph glyph-name="oslash" unicode="&#xf8;" horiz-adv-x="462" 
d="M218 93c18.667 0 31.832 7.16797 39.499 21.501s12.834 35.166 15.501 62.499l19 181l-112 -227c0.666992 -10.667 4 -19.667 10 -27c6.66699 -7.33301 16 -11 28 -11zM68.998 -92.999l-33.999 13.998l51 104c-6 4.66699 -11.333 10 -16 16c-24 28 -36 65.333 -36 112
c0 11.333 0.666992 23 2 35l21 203c6.66699 63.333 28.167 111.833 64.5 145.5s85.833 50.5 148.5 50.5c32.667 0 60.667 -4.33301 84 -13l50 100l37 -15l-52 -104c7.33301 -5.33301 14 -11.333 20 -18c24 -27.333 36 -64.666 36 -111.999c0 -10.667 -0.666992 -22 -2 -34
l-21 -203c-6.66699 -63.333 -28.5 -112.166 -65.5 -146.499s-86.5 -51.5 -148.5 -51.5c-34.667 0 -64.334 5.33301 -89.001 16zM295.999 454.999c-0.666992 2.66699 -1.33203 5.66797 -1.99902 9.00098c-4.66699 14 -16.167 21.167 -34.5 21.5s-31.333 -6.83398 -39 -21.501
s-12.834 -35.667 -15.501 -63l-17 -169z" />
    <glyph glyph-name="ugrave" unicode="&#xf9;" horiz-adv-x="485" 
d="M239 647l-102 201h151l39 -201h-88zM122 -9c-33.333 0 -57 12.002 -71 36.002c-11.333 19.333 -17 42.666 -17 69.999c0 7.33301 0.666992 15 2 23l47 458h149l-45 -434c-0.666992 -4.66699 -1 -9.33398 -1 -14.001c0 -10 1.33301 -17.667 4 -23
c4 -8 12.667 -11.667 26 -11h2c14.667 0 33 7 55 21l48 461h149l-61 -578h-148l6 54c-50 -42 -98.333 -63 -145 -63z" />
    <glyph glyph-name="uacute" unicode="&#xfa;" horiz-adv-x="485" 
d="M240 647l81 201h151l-144 -201h-88zM122 -9c-33.333 0 -57 12.002 -71 36.002c-11.333 19.333 -17 42.666 -17 69.999c0 7.33301 0.666992 15 2 23l47 458h149l-45 -434c-0.666992 -4.66699 -1 -9.33398 -1 -14.001c0 -10 1.33301 -17.667 4 -23
c4 -8 12.667 -11.667 26 -11h2c14.667 0 33 7 55 21l48 461h149l-61 -578h-148l6 54c-50 -42 -98.333 -63 -145 -63z" />
    <glyph glyph-name="ucircumflex" unicode="&#xfb;" horiz-adv-x="485" 
d="M126 647l111 186h128l75 -186h-109l-36 118l-60 -118h-109zM122 -9c-33.333 0 -57 12.002 -71 36.002c-11.333 19.333 -17 42.666 -17 69.999c0 7.33301 0.666992 15 2 23l47 458h149l-45 -434c-0.666992 -4.66699 -1 -9.33398 -1 -14.001c0 -10 1.33301 -17.667 4 -23
c4 -8 12.667 -11.667 26 -11h2c14.667 0 33 7 55 21l48 461h149l-61 -578h-148l6 54c-50 -42 -98.333 -63 -145 -63z" />
    <glyph glyph-name="udieresis" unicode="&#xfc;" horiz-adv-x="485" 
d="M119 647l14 138h127l-15 -138h-126zM321 647l15 138h127l-15 -138h-127zM122 -9c-33.333 0 -57 12.002 -71 36.002c-11.333 19.333 -17 42.666 -17 69.999c0 7.33301 0.666992 15 2 23l47 458h149l-45 -434c-0.666992 -4.66699 -1 -9.33398 -1 -14.001
c0 -10 1.33301 -17.667 4 -23c4 -8 12.667 -11.667 26 -11h2c14.667 0 33 7 55 21l48 461h149l-61 -578h-148l6 54c-50 -42 -98.333 -63 -145 -63z" />
    <glyph glyph-name="yacute" unicode="&#xfd;" horiz-adv-x="430" 
d="M212 647l81 201h151l-144 -201h-88zM19 -161l10.999 104.999c38.667 0 65.334 4 80.001 12c13.333 7.33301 20 22 20 44v4c0 13.333 -3.66699 42.666 -11 87.999l-78 486h143l34 -359l96 359h144l-201 -609c-8 -24.667 -19.167 -45.667 -33.5 -63
s-31.166 -30.666 -50.499 -39.999s-39.833 -16.166 -61.5 -20.499s-45.834 -6.5 -72.501 -6.5h-20z" />
    <glyph glyph-name="thorn" unicode="&#xfe;" horiz-adv-x="482" 
d="M4 -190l104.996 1000h149l-29 -275c40.667 35.333 81.334 52.666 122.001 51.999h3c16 0 30.333 -2.66699 43 -8s22.834 -12.666 30.501 -21.999s14.5 -20 20.5 -32s9.83301 -24.833 11.5 -38.5s2.83398 -27.834 3.50098 -42.501v-12c0 -10 -0.666992 -19.667 -2 -29
l-23 -215c-4 -38 -11.833 -71.5 -23.5 -100.5s-28.5 -52.5 -50.5 -70.5s-48 -27 -78 -27c-37.333 0 -73.666 17.667 -108.999 53l-24 -233h-149zM234.996 92.001l0.999023 -0.000976562c16 0 28 8 36 24s13.667 38 17 66l24 230
c0.666992 8.66699 1.33398 16.334 2.00098 23.001c0 37.333 -12.333 56 -37 56h-3c-15.333 0 -33 -7 -53 -21l-38 -361c16.667 -11.333 33.667 -17 51 -17z" />
    <glyph glyph-name="ydieresis" unicode="&#xff;" horiz-adv-x="430" 
d="M91 647l14 138h127l-15 -138h-126zM293 647l15 138h127l-15 -138h-127zM19 -161l10.999 104.999c38.667 0 65.334 4 80.001 12c13.333 7.33301 20 22 20 44v4c0 13.333 -3.66699 42.666 -11 87.999l-78 486h143l34 -359l96 359h144l-201 -609
c-8 -24.667 -19.167 -45.667 -33.5 -63s-31.166 -30.666 -50.499 -39.999s-39.833 -16.166 -61.5 -20.499s-45.834 -6.5 -72.501 -6.5h-20z" />
    <glyph glyph-name="Amacron" unicode="&#x100;" horiz-adv-x="533" 
d="M209 879l7 75h250l-8 -75h-249zM-5 0l245 810h176l73 -810h-150l-11 181h-131l-49 -181h-153zM224 282h98l-15 324z" />
    <glyph glyph-name="amacron" unicode="&#x101;" horiz-adv-x="463" 
d="M151 647l7 75h250l-8 -75h-249zM141 -10c-26 0 -48.332 7.33301 -66.999 22c-18 14 -31 31.333 -39 52c-6 16 -9 32.667 -9 50c0 5.33301 0.333008 10.666 1 15.999c1.33301 14.667 4.16602 28.834 8.49902 42.501s9.16602 25.834 14.499 36.501s12.333 21 21 31
s16.834 18.667 24.501 26s17.667 14.833 30 22.5s22.5 13.667 30.5 18s19 9.66602 33 15.999s24.833 11 32.5 14s18.834 7.16699 33.501 12.5s25 9 31 11l5 53c0.666992 8 1 15.333 1 22c0 11.333 -1.33301 20 -4 26c-4.66699 10.667 -14.667 16 -30 16
c-26.667 0 -42.667 -18.667 -48 -56l-6 -39l-141 6c0 1.33301 0.5 4.83301 1.5 10.5s1.5 8.83398 1.5 9.50098c10.667 62 34 107.333 70 136s84.667 43 146 43c57.333 0 98.666 -15.333 123.999 -46c20.667 -25.333 31 -58.666 31 -99.999c0 -9.33301 -0.666992 -19 -2 -29
l-28 -267c-3.33301 -32.667 -5 -67.334 -5 -104.001v-41h-133c-3.33301 42 -5 69.667 -5 83c-10.667 -26.667 -26.5 -48.834 -47.5 -66.501s-46.167 -26.5 -75.5 -26.5zM208.001 99c9.33301 0 18.835 3.33398 28.502 10.001s18.167 14 25.5 22l16 159
c-28.667 -14 -53.334 -32.333 -74.001 -55s-32.334 -46.334 -35.001 -71.001c0 -4 -0.333008 -8 -1 -12c0 -14 3 -25.667 9 -35c6.66699 -12 17 -18 31 -18z" />
    <glyph glyph-name="Abreve" unicode="&#x102;" horiz-adv-x="533" 
d="M334 879c-46.667 0 -81 12.001 -103 36.001c-18 20 -27 46.333 -27 79c0 6 0.333008 12.667 1 20h70c-0.666992 -4.66699 -1 -9.33398 -1 -14.001c0 -16.667 4.33301 -29.334 13 -38.001c10.667 -11.333 28.667 -17 54 -17s44.333 5.5 57 16.5s20 28.5 22 52.5h71
c-4 -41.333 -19.333 -74.166 -46 -98.499s-63.667 -36.5 -111 -36.5zM-5 0.000976562l245 810h176l73 -810h-150l-11 181h-131l-49 -181h-153zM224 282.001h98l-15 324z" />
    <glyph glyph-name="abreve" unicode="&#x103;" horiz-adv-x="463" 
d="M276 647c-46.667 0 -81 12.001 -103 36.001c-18 20 -27 46.333 -27 79c0 6 0.333008 12.667 1 20h70c-0.666992 -4.66699 -1 -9.33398 -1 -14.001c0 -16.667 4.33301 -29.334 13 -38.001c10.667 -11.333 28.667 -17 54 -17s44.333 5.5 57 16.5s20 28.5 22 52.5h71
c-4 -41.333 -19.333 -74.166 -46 -98.499s-63.667 -36.5 -111 -36.5zM141 -9.99902c-26 0 -48.332 7.33301 -66.999 22c-18 14 -31 31.333 -39 52c-6 16 -9 32.667 -9 50c0 5.33301 0.333008 10.666 1 15.999c1.33301 14.667 4.16602 28.834 8.49902 42.501
s9.16602 25.834 14.499 36.501s12.333 21 21 31s16.834 18.667 24.501 26s17.667 14.833 30 22.5s22.5 13.667 30.5 18s19 9.66602 33 15.999s24.833 11 32.5 14s18.834 7.16699 33.501 12.5s25 9 31 11l5 53c0.666992 8 1 15.333 1 22c0 11.333 -1.33301 20 -4 26
c-4.66699 10.667 -14.667 16 -30 16c-26.667 0 -42.667 -18.667 -48 -56l-6 -39l-141 6c0 1.33301 0.5 4.83301 1.5 10.5s1.5 8.83398 1.5 9.50098c10.667 62 34 107.333 70 136s84.667 43 146 43c57.333 0 98.666 -15.333 123.999 -46
c20.667 -25.333 31 -58.666 31 -99.999c0 -9.33301 -0.666992 -19 -2 -29l-28 -267c-3.33301 -32.667 -5 -67.334 -5 -104.001v-41h-133c-3.33301 42 -5 69.667 -5 83c-10.667 -26.667 -26.5 -48.834 -47.5 -66.501s-46.167 -26.5 -75.5 -26.5zM208.001 99.001
c9.33301 0 18.835 3.33398 28.502 10.001s18.167 14 25.5 22l16 159c-28.667 -14 -53.334 -32.333 -74.001 -55s-32.334 -46.334 -35.001 -71.001c0 -4 -0.333008 -8 -1 -12c0 -14 3 -25.667 9 -35c6.66699 -12 17 -18 31 -18z" />
    <glyph glyph-name="Aogonek" unicode="&#x104;" horiz-adv-x="533" 
d="M437 -245l-37.001 0.000976562c-1.33301 0 -2.66602 -0.333008 -3.99902 -1c-12 0 -23.667 1 -35 3c-12.667 1.33301 -24.334 3.16602 -35.001 5.49902s-20.5 6 -29.5 11s-16.5 11.167 -22.5 18.5c-6.66699 6.66699 -11.334 15.334 -14.001 26.001
c-2 7.33301 -3 15.666 -3 24.999c0 4 0.333008 8 1 12c2.66699 28 14.5 56.5 35.5 85.5s44.5 51.167 70.5 66.5h70c-4 -7.33301 -12.167 -20.333 -24.5 -39s-22.333 -35.834 -30 -51.501s-12.167 -30.5 -13.5 -44.5c-0.666992 -7.33301 -0.166992 -13.666 1.5 -18.999
s4.83398 -9.66602 9.50098 -12.999s9.33398 -5.83301 14.001 -7.5s11 -2.83398 19 -3.50098l18 -1.5c4 -0.333008 10.167 -0.333008 18.5 0s13.5 0.5 15.5 0.5zM-5.00098 0.000976562l245 810h176l73 -810h-150l-11 181h-131l-49 -181h-153zM223.999 282.001h98l-15 324z
" />
    <glyph glyph-name="aogonek" unicode="&#x105;" horiz-adv-x="463" 
d="M356 -245l-37.001 0.000976562c-1.33301 0 -2.66602 -0.333008 -3.99902 -1c-12 0 -23.667 1 -35 3c-12.667 1.33301 -24.334 3.16602 -35.001 5.49902s-20.5 6 -29.5 11s-16.5 11.167 -22.5 18.5c-6.66699 6.66699 -11.334 15.334 -14.001 26.001
c-2 7.33301 -3 15.666 -3 24.999c0 4 0.333008 8 1 12c2.66699 28 14.5 56.5 35.5 85.5s44.5 51.167 70.5 66.5h70c-4 -7.33301 -12.167 -20.333 -24.5 -39s-22.333 -35.834 -30 -51.501s-12.167 -30.5 -13.5 -44.5c-0.666992 -7.33301 -0.166992 -13.666 1.5 -18.999
s4.83398 -9.66602 9.50098 -12.999s9.33398 -5.83301 14.001 -7.5s11 -2.83398 19 -3.50098l18 -1.5c4 -0.333008 10.167 -0.333008 18.5 0s13.5 0.5 15.5 0.5zM140.999 -9.99902c-26 0 -48.332 7.33301 -66.999 22c-18 14 -31 31.333 -39 52c-6 16 -9 32.667 -9 50
c0 5.33301 0.333008 10.666 1 15.999c1.33301 14.667 4.16602 28.834 8.49902 42.501s9.16602 25.834 14.499 36.501s12.333 21 21 31s16.834 18.667 24.501 26s17.667 14.833 30 22.5s22.5 13.667 30.5 18s19 9.66602 33 15.999s24.833 11 32.5 14
s18.834 7.16699 33.501 12.5s25 9 31 11l5 53c0.666992 8 1 15.333 1 22c0 11.333 -1.33301 20 -4 26c-4.66699 10.667 -14.667 16 -30 16c-26.667 0 -42.667 -18.667 -48 -56l-6 -39l-141 6c0 1.33301 0.5 4.83301 1.5 10.5s1.5 8.83398 1.5 9.50098
c10.667 62 34 107.333 70 136s84.667 43 146 43c57.333 0 98.666 -15.333 123.999 -46c20.667 -25.333 31 -58.666 31 -99.999c0 -9.33301 -0.666992 -19 -2 -29l-28 -267c-3.33301 -32.667 -5 -67.334 -5 -104.001v-41h-133c-3.33301 42 -5 69.667 -5 83
c-10.667 -26.667 -26.5 -48.834 -47.5 -66.501s-46.167 -26.5 -75.5 -26.5zM208 99.001c9.33301 0 18.835 3.33398 28.502 10.001s18.167 14 25.5 22l16 159c-28.667 -14 -53.334 -32.333 -74.001 -55s-32.334 -46.334 -35.001 -71.001c0 -4 -0.333008 -8 -1 -12
c0 -14 3 -25.667 9 -35c6.66699 -12 17 -18 31 -18z" />
    <glyph glyph-name="Cacute" unicode="&#x106;" horiz-adv-x="548" 
d="M303 879l81 201h151l-144 -201h-88zM258 -11c-35.333 0 -66.1621 4.33203 -92.4951 12.999s-47.5 20.834 -63.5 36.501s-28.5 34.667 -37.5 57s-14.167 47.5 -15.5 75.5c0 8.66699 -0.333008 17.334 -1 26.001c0 20 1 41.333 3 64l30 285
c4.66699 44 12.5 82.167 23.5 114.5s26.667 60.833 47 85.5s46.666 43.167 78.999 55.5s70.833 18.5 115.5 18.5c42 0 77.167 -5.5 105.5 -16.5s50.166 -27.167 65.499 -48.5c14.667 -21.333 24.334 -45.333 29.001 -72c2.66699 -14.667 3.66699 -31.334 3 -50.001
c0 -14.667 -0.666992 -30.334 -2 -47.001l-8 -70h-157l8 74c0.666992 10 1.33398 16.667 2.00098 20s1.16699 9.33301 1.5 18s0.333008 14.667 0 18s-0.833008 8.5 -1.5 15.5s-2 11.833 -4 14.5s-4.5 6.16699 -7.5 10.5s-6.66699 7.5 -11 9.5s-9.5 3.66699 -15.5 5
s-12.667 2 -20 2c-11.333 0 -21.166 -1.33301 -29.499 -4s-15.5 -7 -21.5 -13s-10.833 -12.167 -14.5 -18.5s-6.83398 -14.666 -9.50098 -24.999s-4.83398 -19.666 -6.50098 -27.999s-2.83398 -18.833 -3.50098 -31.5l-38 -358c-1.33301 -14 -2 -27 -2 -39
c0 -21.333 2.66699 -38.333 8 -51c8.66699 -18.667 26.667 -28.334 54 -29.001c10.667 0 20.167 1.33301 28.5 4s15.333 7.16699 21 13.5s10.167 12.333 13.5 18s6.16602 14 8.49902 25s4.16602 20.167 5.49902 27.5s2.66602 17.666 3.99902 30.999l8 77h157l-7 -68
c-4 -37.333 -11.167 -70.166 -21.5 -98.499s-25 -53.833 -44 -76.5s-44.167 -40 -75.5 -52s-68.333 -18 -111 -18z" />
    <glyph glyph-name="cacute" unicode="&#x107;" horiz-adv-x="452" 
d="M228 647l81 201h151l-144 -201h-88zM207 -10c-64.667 0 -111.002 17.998 -139.002 53.998c-22 28 -33 66 -33 114c0 12.667 0.666992 25.334 2 38.001l20 186c6.66699 66 27.5 116.667 62.5 152s84.833 53 149.5 53c62 0 106.667 -14.333 134 -43
c22.667 -24 34 -58 34 -102c0 -10 -0.666992 -20.333 -2 -31l-6 -53h-140l5 57c0.666992 8.66699 1.33398 16 2.00098 22c0 14 -2 24.667 -6 32c-5.33301 10 -15.666 15 -30.999 15c-16 0 -27.833 -6.16699 -35.5 -18.5s-13.167 -34.166 -16.5 -65.499l-23 -224
c-1.33301 -12 -2 -22 -2 -30c0 -14.667 1.66699 -26 5 -34c5.33301 -11.333 15.833 -17 31.5 -17s27.167 5.33301 34.5 16s12.333 27.667 15 51l7 68h141l-6 -61c-6.66699 -58.667 -27 -103.167 -61 -133.5s-81.333 -45.5 -142 -45.5z" />
    <glyph glyph-name="Ccircumflex" unicode="&#x108;" horiz-adv-x="548" 
d="M190 879l111 186h128l75 -186h-109l-36 118l-60 -118h-109zM258 -11c-35.333 0 -66.1621 4.33203 -92.4951 12.999s-47.5 20.834 -63.5 36.501s-28.5 34.667 -37.5 57s-14.167 47.5 -15.5 75.5c0 8.66699 -0.333008 17.334 -1 26.001c0 20 1 41.333 3 64l30 285
c4.66699 44 12.5 82.167 23.5 114.5s26.667 60.833 47 85.5s46.666 43.167 78.999 55.5s70.833 18.5 115.5 18.5c42 0 77.167 -5.5 105.5 -16.5s50.166 -27.167 65.499 -48.5c14.667 -21.333 24.334 -45.333 29.001 -72c2.66699 -14.667 3.66699 -31.334 3 -50.001
c0 -14.667 -0.666992 -30.334 -2 -47.001l-8 -70h-157l8 74c0.666992 10 1.33398 16.667 2.00098 20s1.16699 9.33301 1.5 18s0.333008 14.667 0 18s-0.833008 8.5 -1.5 15.5s-2 11.833 -4 14.5s-4.5 6.16699 -7.5 10.5s-6.66699 7.5 -11 9.5s-9.5 3.66699 -15.5 5
s-12.667 2 -20 2c-11.333 0 -21.166 -1.33301 -29.499 -4s-15.5 -7 -21.5 -13s-10.833 -12.167 -14.5 -18.5s-6.83398 -14.666 -9.50098 -24.999s-4.83398 -19.666 -6.50098 -27.999s-2.83398 -18.833 -3.50098 -31.5l-38 -358c-1.33301 -14 -2 -27 -2 -39
c0 -21.333 2.66699 -38.333 8 -51c8.66699 -18.667 26.667 -28.334 54 -29.001c10.667 0 20.167 1.33301 28.5 4s15.333 7.16699 21 13.5s10.167 12.333 13.5 18s6.16602 14 8.49902 25s4.16602 20.167 5.49902 27.5s2.66602 17.666 3.99902 30.999l8 77h157l-7 -68
c-4 -37.333 -11.167 -70.166 -21.5 -98.499s-25 -53.833 -44 -76.5s-44.167 -40 -75.5 -52s-68.333 -18 -111 -18z" />
    <glyph glyph-name="ccircumflex" unicode="&#x109;" horiz-adv-x="452" 
d="M115 647l111 186h128l75 -186h-109l-36 118l-60 -118h-109zM207 -10c-64.667 0 -111.002 17.998 -139.002 53.998c-22 28 -33 66 -33 114c0 12.667 0.666992 25.334 2 38.001l20 186c6.66699 66 27.5 116.667 62.5 152s84.833 53 149.5 53c62 0 106.667 -14.333 134 -43
c22.667 -24 34 -58 34 -102c0 -10 -0.666992 -20.333 -2 -31l-6 -53h-140l5 57c0.666992 8.66699 1.33398 16 2.00098 22c0 14 -2 24.667 -6 32c-5.33301 10 -15.666 15 -30.999 15c-16 0 -27.833 -6.16699 -35.5 -18.5s-13.167 -34.166 -16.5 -65.499l-23 -224
c-1.33301 -12 -2 -22 -2 -30c0 -14.667 1.66699 -26 5 -34c5.33301 -11.333 15.833 -17 31.5 -17s27.167 5.33301 34.5 16s12.333 27.667 15 51l7 68h141l-6 -61c-6.66699 -58.667 -27 -103.167 -61 -133.5s-81.333 -45.5 -142 -45.5z" />
    <glyph glyph-name="Cdotaccent" unicode="&#x10a;" horiz-adv-x="548" 
d="M275 879l15 144h143l-15 -144h-143zM258 -11c-35.333 0 -66.1621 4.33203 -92.4951 12.999s-47.5 20.834 -63.5 36.501s-28.5 34.667 -37.5 57s-14.167 47.5 -15.5 75.5c0 8.66699 -0.333008 17.334 -1 26.001c0 20 1 41.333 3 64l30 285
c4.66699 44 12.5 82.167 23.5 114.5s26.667 60.833 47 85.5s46.666 43.167 78.999 55.5s70.833 18.5 115.5 18.5c42 0 77.167 -5.5 105.5 -16.5s50.166 -27.167 65.499 -48.5c14.667 -21.333 24.334 -45.333 29.001 -72c2.66699 -14.667 3.66699 -31.334 3 -50.001
c0 -14.667 -0.666992 -30.334 -2 -47.001l-8 -70h-157l8 74c0.666992 10 1.33398 16.667 2.00098 20s1.16699 9.33301 1.5 18s0.333008 14.667 0 18s-0.833008 8.5 -1.5 15.5s-2 11.833 -4 14.5s-4.5 6.16699 -7.5 10.5s-6.66699 7.5 -11 9.5s-9.5 3.66699 -15.5 5
s-12.667 2 -20 2c-11.333 0 -21.166 -1.33301 -29.499 -4s-15.5 -7 -21.5 -13s-10.833 -12.167 -14.5 -18.5s-6.83398 -14.666 -9.50098 -24.999s-4.83398 -19.666 -6.50098 -27.999s-2.83398 -18.833 -3.50098 -31.5l-38 -358c-1.33301 -14 -2 -27 -2 -39
c0 -21.333 2.66699 -38.333 8 -51c8.66699 -18.667 26.667 -28.334 54 -29.001c10.667 0 20.167 1.33301 28.5 4s15.333 7.16699 21 13.5s10.167 12.333 13.5 18s6.16602 14 8.49902 25s4.16602 20.167 5.49902 27.5s2.66602 17.666 3.99902 30.999l8 77h157l-7 -68
c-4 -37.333 -11.167 -70.166 -21.5 -98.499s-25 -53.833 -44 -76.5s-44.167 -40 -75.5 -52s-68.333 -18 -111 -18z" />
    <glyph glyph-name="cdotaccent" unicode="&#x10b;" horiz-adv-x="452" 
d="M201 647l15 144h143l-15 -144h-143zM207 -10c-64.667 0 -111.002 17.998 -139.002 53.998c-22 28 -33 66 -33 114c0 12.667 0.666992 25.334 2 38.001l20 186c6.66699 66 27.5 116.667 62.5 152s84.833 53 149.5 53c62 0 106.667 -14.333 134 -43
c22.667 -24 34 -58 34 -102c0 -10 -0.666992 -20.333 -2 -31l-6 -53h-140l5 57c0.666992 8.66699 1.33398 16 2.00098 22c0 14 -2 24.667 -6 32c-5.33301 10 -15.666 15 -30.999 15c-16 0 -27.833 -6.16699 -35.5 -18.5s-13.167 -34.166 -16.5 -65.499l-23 -224
c-1.33301 -12 -2 -22 -2 -30c0 -14.667 1.66699 -26 5 -34c5.33301 -11.333 15.833 -17 31.5 -17s27.167 5.33301 34.5 16s12.333 27.667 15 51l7 68h141l-6 -61c-6.66699 -58.667 -27 -103.167 -61 -133.5s-81.333 -45.5 -142 -45.5z" />
    <glyph glyph-name="Ccaron" unicode="&#x10c;" horiz-adv-x="548" 
d="M274 879l-68 182h107l40 -111l65 111h107l-107 -182h-144zM258 -11c-35.333 0 -66.1621 4.33203 -92.4951 12.999s-47.5 20.834 -63.5 36.501s-28.5 34.667 -37.5 57s-14.167 47.5 -15.5 75.5c0 8.66699 -0.333008 17.334 -1 26.001c0 20 1 41.333 3 64l30 285
c4.66699 44 12.5 82.167 23.5 114.5s26.667 60.833 47 85.5s46.666 43.167 78.999 55.5s70.833 18.5 115.5 18.5c42 0 77.167 -5.5 105.5 -16.5s50.166 -27.167 65.499 -48.5c14.667 -21.333 24.334 -45.333 29.001 -72c2.66699 -14.667 3.66699 -31.334 3 -50.001
c0 -14.667 -0.666992 -30.334 -2 -47.001l-8 -70h-157l8 74c0.666992 10 1.33398 16.667 2.00098 20s1.16699 9.33301 1.5 18s0.333008 14.667 0 18s-0.833008 8.5 -1.5 15.5s-2 11.833 -4 14.5s-4.5 6.16699 -7.5 10.5s-6.66699 7.5 -11 9.5s-9.5 3.66699 -15.5 5
s-12.667 2 -20 2c-11.333 0 -21.166 -1.33301 -29.499 -4s-15.5 -7 -21.5 -13s-10.833 -12.167 -14.5 -18.5s-6.83398 -14.666 -9.50098 -24.999s-4.83398 -19.666 -6.50098 -27.999s-2.83398 -18.833 -3.50098 -31.5l-38 -358c-1.33301 -14 -2 -27 -2 -39
c0 -21.333 2.66699 -38.333 8 -51c8.66699 -18.667 26.667 -28.334 54 -29.001c10.667 0 20.167 1.33301 28.5 4s15.333 7.16699 21 13.5s10.167 12.333 13.5 18s6.16602 14 8.49902 25s4.16602 20.167 5.49902 27.5s2.66602 17.666 3.99902 30.999l8 77h157l-7 -68
c-4 -37.333 -11.167 -70.166 -21.5 -98.499s-25 -53.833 -44 -76.5s-44.167 -40 -75.5 -52s-68.333 -18 -111 -18z" />
    <glyph glyph-name="ccaron" unicode="&#x10d;" horiz-adv-x="452" 
d="M200 647l-68 182h107l40 -111l65 111h107l-107 -182h-144zM207 -10c-64.667 0 -111.002 17.998 -139.002 53.998c-22 28 -33 66 -33 114c0 12.667 0.666992 25.334 2 38.001l20 186c6.66699 66 27.5 116.667 62.5 152s84.833 53 149.5 53c62 0 106.667 -14.333 134 -43
c22.667 -24 34 -58 34 -102c0 -10 -0.666992 -20.333 -2 -31l-6 -53h-140l5 57c0.666992 8.66699 1.33398 16 2.00098 22c0 14 -2 24.667 -6 32c-5.33301 10 -15.666 15 -30.999 15c-16 0 -27.833 -6.16699 -35.5 -18.5s-13.167 -34.166 -16.5 -65.499l-23 -224
c-1.33301 -12 -2 -22 -2 -30c0 -14.667 1.66699 -26 5 -34c5.33301 -11.333 15.833 -17 31.5 -17s27.167 5.33301 34.5 16s12.333 27.667 15 51l7 68h141l-6 -61c-6.66699 -58.667 -27 -103.167 -61 -133.5s-81.333 -45.5 -142 -45.5z" />
    <glyph glyph-name="Dcaron" unicode="&#x10e;" horiz-adv-x="566" 
d="M285 879l-68 182h107l40 -111l65 111h107l-107 -182h-144zM209 113h36.0039c13.333 0 25 1 35 3s18.667 4.5 26 7.5s13.666 8 18.999 15s9.66602 13.5 12.999 19.5s6.16602 14.833 8.49902 26.5s4.16602 21.834 5.49902 30.501s2.66602 21 3.99902 37l34 320
c2 18 3 33.667 3 47c0 9.33301 -0.333008 17.666 -1 24.999c-2 18 -9.66699 31 -23 39s-34.666 12 -63.999 12h-34zM36.0039 0l84.998 809.999h195c50.667 0 92.5 -4.83301 125.5 -14.5s58.5 -25.167 76.5 -46.5s29.667 -47.333 35 -78c2.66699 -16 4 -34 4 -54
c0 -18.667 -1.33301 -39 -4 -61l-31 -292c-6.66699 -62.667 -19.667 -112.667 -39 -150s-49.166 -65.666 -89.499 -84.999s-93.166 -29 -158.499 -29h-199z" />
    <glyph glyph-name="dcaron" unicode="&#x10f;" horiz-adv-x="615" 
d="M544 525l30 285h124l-79 -285h-75zM155 -10c-80 0 -120.001 49.6689 -120.001 149.002c0 14.667 1 30.667 3 48l21 198c4 39.333 11.833 73.666 23.5 102.999s29 53.166 52 71.499s50.5 27.5 82.5 27.5c38.667 0 72.667 -15 102 -45l28 268h149l-85 -810h-149l5 42
c-37.333 -34.667 -74.666 -52 -111.999 -52zM223.999 91.002c14 0 30.334 4.99902 49.001 14.999l39 367c-14.667 10 -30 15 -46 15s-28.667 -7.16699 -38 -21.5s-15.333 -32.5 -18 -54.5l-24 -236c-0.666992 -9.33301 -1.33398 -17.666 -2.00098 -24.999
c0 -40 13.333 -60 40 -60z" />
    <glyph glyph-name="Dcroat" unicode="&#x110;" horiz-adv-x="570" 
d="M210 113h41.0029c13.333 0 25.166 1 35.499 3s19 4.5 26 7.5s13.167 8 18.5 15s9.66602 13.5 12.999 19.5s6.16602 14.833 8.49902 26.5s4.16602 21.834 5.49902 30.501s3 21 5 37l33 320c2 18 3 33.667 3 47c0 9.33301 -0.333008 17.666 -1 24.999
c-2 18 -9.66699 31 -23 39s-34.666 12 -63.999 12h-40l-25 -239h50l-8 -79h-50zM40.0029 0l38.998 376.999h-49l8 79h49l38 354h195c50.667 0 92.5 -4.83301 125.5 -14.5s58.5 -25.167 76.5 -46.5s29.667 -47.333 35 -78c2.66699 -16 4 -34 4 -54
c0 -18.667 -1.33301 -39 -4 -61l-31 -292c-6.66699 -62.667 -19.667 -112.667 -39 -150s-49.166 -65.666 -89.499 -84.999s-93.166 -29 -158.499 -29h-199z" />
    <glyph glyph-name="dcroat" unicode="&#x111;" horiz-adv-x="487" 
d="M153 -10c-80 0 -120 49.6689 -120 149.002c0 14.667 1 30.667 3 48l21 198c4 39.333 11.833 73.666 23.5 102.999s29 53.166 52 71.499s50.5 27.5 82.5 27.5c37.333 0 71 -15 101 -45l15 137h-129l7 66h128l7 65h149l-7 -65h52l-7 -66h-52l-71 -679h-149l5 42
c-38 -34.667 -75 -52 -111 -52zM222 91.002c13.333 0 29.668 4.99902 49.001 14.999l38 367c-15.333 10 -30.333 15 -45 15c-16 0 -28.667 -7.16699 -38 -21.5s-15.333 -32.5 -18 -54.5l-24 -236c-0.666992 -9.33301 -1.33398 -17.666 -2.00098 -24.999
c0 -40 13.333 -60 40 -60z" />
    <glyph glyph-name="Emacron" unicode="&#x112;" 
d="M180 879l7 75h250l-8 -75h-249zM36 0l85 810h350l-12 -113h-188l-23 -218h147l-12 -113h-147l-27 -255h191l-12 -111h-352z" />
    <glyph glyph-name="emacron" unicode="&#x113;" horiz-adv-x="457" 
d="M148 647l7 75h250l-8 -75h-249zM208 -10c-65.333 0 -112 17.668 -140 53.001c-22.667 28.667 -33.667 67.667 -33 117c0 12 0.666992 24.333 2 37l19 183c7.33301 67.333 28.833 118.666 64.5 153.999s85.5 53 149.5 53c66 0 111.333 -17.667 136 -53
c19.333 -28 29 -66 29 -114c0 -14 -0.666992 -29.333 -2 -46l-10 -93h-230l-10 -93c-1.33301 -15.333 -2 -29.333 -2 -42c0 -1.33301 0.333008 -3 1 -5c0 -13.333 3 -23.833 9 -31.5s15.333 -11.5 28 -11.5c16 0 28.167 5.5 36.5 16.5s13.5 27.833 15.5 50.5l6 52h139
l-5 -45c-6 -58.667 -26.5 -103.667 -61.5 -135s-82.167 -47 -141.5 -47zM201 353.001h90l6 56c0.666992 8 1 15 1 21c0 14.667 -2 26 -6 34c-6 11.333 -17.167 17 -33.5 17s-28.5 -6.33301 -36.5 -19s-13.667 -35 -17 -67z" />
    <glyph glyph-name="Ebreve" unicode="&#x114;" 
d="M304 879c-46.667 0 -81 12.001 -103 36.001c-18 20 -27 46.333 -27 79c0 6 0.333008 12.667 1 20h70c-0.666992 -4.66699 -1 -9.33398 -1 -14.001c0 -16.667 4.33301 -29.334 13 -38.001c10.667 -11.333 28.667 -17 54 -17s44.333 5.5 57 16.5s20 28.5 22 52.5h71
c-4 -41.333 -19.333 -74.166 -46 -98.499s-63.667 -36.5 -111 -36.5zM36 0.000976562l85 810h350l-12 -113h-188l-23 -218h147l-12 -113h-147l-27 -255h191l-12 -111h-352z" />
    <glyph glyph-name="ebreve" unicode="&#x115;" horiz-adv-x="457" 
d="M273 647c-46.667 0 -81 12.001 -103 36.001c-18 20 -27 46.333 -27 79c0 6 0.333008 12.667 1 20h70c-0.666992 -4.66699 -1 -9.33398 -1 -14.001c0 -16.667 4.33301 -29.334 13 -38.001c10.667 -11.333 28.667 -17 54 -17s44.333 5.5 57 16.5s20 28.5 22 52.5h71
c-4 -41.333 -19.333 -74.166 -46 -98.499s-63.667 -36.5 -111 -36.5zM208 -9.99902c-65.333 0 -112 17.668 -140 53.001c-22.667 28.667 -33.667 67.667 -33 117c0 12 0.666992 24.333 2 37l19 183c7.33301 67.333 28.833 118.666 64.5 153.999s85.5 53 149.5 53
c66 0 111.333 -17.667 136 -53c19.333 -28 29 -66 29 -114c0 -14 -0.666992 -29.333 -2 -46l-10 -93h-230l-10 -93c-1.33301 -15.333 -2 -29.333 -2 -42c0 -1.33301 0.333008 -3 1 -5c0 -13.333 3 -23.833 9 -31.5s15.333 -11.5 28 -11.5c16 0 28.167 5.5 36.5 16.5
s13.5 27.833 15.5 50.5l6 52h139l-5 -45c-6 -58.667 -26.5 -103.667 -61.5 -135s-82.167 -47 -141.5 -47zM201 353.002h90l6 56c0.666992 8 1 15 1 21c0 14.667 -2 26 -6 34c-6 11.333 -17.167 17 -33.5 17s-28.5 -6.33301 -36.5 -19s-13.667 -35 -17 -67z" />
    <glyph glyph-name="Edotaccent" unicode="&#x116;" 
d="M233 879l15 144h143l-15 -144h-143zM36 0l85 810h350l-12 -113h-188l-23 -218h147l-12 -113h-147l-27 -255h191l-12 -111h-352z" />
    <glyph glyph-name="edotaccent" unicode="&#x117;" horiz-adv-x="457" 
d="M201 647l15 144h143l-15 -144h-143zM208 -10c-65.333 0 -112 17.668 -140 53.001c-22.667 28.667 -33.667 67.667 -33 117c0 12 0.666992 24.333 2 37l19 183c7.33301 67.333 28.833 118.666 64.5 153.999s85.5 53 149.5 53c66 0 111.333 -17.667 136 -53
c19.333 -28 29 -66 29 -114c0 -14 -0.666992 -29.333 -2 -46l-10 -93h-230l-10 -93c-1.33301 -15.333 -2 -29.333 -2 -42c0 -1.33301 0.333008 -3 1 -5c0 -13.333 3 -23.833 9 -31.5s15.333 -11.5 28 -11.5c16 0 28.167 5.5 36.5 16.5s13.5 27.833 15.5 50.5l6 52h139
l-5 -45c-6 -58.667 -26.5 -103.667 -61.5 -135s-82.167 -47 -141.5 -47zM201 353.001h90l6 56c0.666992 8 1 15 1 21c0 14.667 -2 26 -6 34c-6 11.333 -17.167 17 -33.5 17s-28.5 -6.33301 -36.5 -19s-13.667 -35 -17 -67z" />
    <glyph glyph-name="Eogonek" unicode="&#x118;" 
d="M257 -245l-37.001 0.000976562c-1.33301 0 -2.66602 -0.333008 -3.99902 -1c-12 0 -23.667 1 -35 3c-12.667 1.33301 -24.334 3.16602 -35.001 5.49902s-20.5 6 -29.5 11s-16.5 11.167 -22.5 18.5c-6.66699 6.66699 -11.334 15.334 -14.001 26.001
c-2 7.33301 -3 15.666 -3 24.999c0 4 0.333008 8 1 12c2.66699 28 14.5 56.5 35.5 85.5s44.5 51.167 70.5 66.5h70c-4 -7.33301 -12.167 -20.333 -24.5 -39s-22.333 -35.834 -30 -51.501s-12.167 -30.5 -13.5 -44.5c-0.666992 -7.33301 -0.166992 -13.666 1.5 -18.999
s4.83398 -9.66602 9.50098 -12.999s9.33398 -5.83301 14.001 -7.5s11 -2.83398 19 -3.50098l18 -1.5c4 -0.333008 10.167 -0.333008 18.5 0s13.5 0.5 15.5 0.5zM35.999 0.000976562l85 810h350l-12 -113h-188l-23 -218h147l-12 -113h-147l-27 -255h191l-12 -111h-352z" />
    <glyph glyph-name="eogonek" unicode="&#x119;" horiz-adv-x="457" 
d="M261 -245l-37.001 0.000976562c-1.33301 0 -2.66602 -0.333008 -3.99902 -1c-12 0 -23.667 1 -35 3c-12.667 1.33301 -24.334 3.16602 -35.001 5.49902s-20.5 6 -29.5 11s-16.5 11.167 -22.5 18.5c-6.66699 6.66699 -11.334 15.334 -14.001 26.001
c-2 7.33301 -3 15.666 -3 24.999c0 4 0.333008 8 1 12c2.66699 28 14.5 56.5 35.5 85.5s44.5 51.167 70.5 66.5h70c-4 -7.33301 -12.167 -20.333 -24.5 -39s-22.333 -35.834 -30 -51.501s-12.167 -30.5 -13.5 -44.5c-0.666992 -7.33301 -0.166992 -13.666 1.5 -18.999
s4.83398 -9.66602 9.50098 -12.999s9.33398 -5.83301 14.001 -7.5s11 -2.83398 19 -3.50098l18 -1.5c4 -0.333008 10.167 -0.333008 18.5 0s13.5 0.5 15.5 0.5zM207.999 -9.99902c-65.333 0 -112 17.668 -140 53.001c-22.667 28.667 -33.667 67.667 -33 117
c0 12 0.666992 24.333 2 37l19 183c7.33301 67.333 28.833 118.666 64.5 153.999s85.5 53 149.5 53c66 0 111.333 -17.667 136 -53c19.333 -28 29 -66 29 -114c0 -14 -0.666992 -29.333 -2 -46l-10 -93h-230l-10 -93c-1.33301 -15.333 -2 -29.333 -2 -42
c0 -1.33301 0.333008 -3 1 -5c0 -13.333 3 -23.833 9 -31.5s15.333 -11.5 28 -11.5c16 0 28.167 5.5 36.5 16.5s13.5 27.833 15.5 50.5l6 52h139l-5 -45c-6 -58.667 -26.5 -103.667 -61.5 -135s-82.167 -47 -141.5 -47zM200.999 353.002h90l6 56c0.666992 8 1 15 1 21
c0 14.667 -2 26 -6 34c-6 11.333 -17.167 17 -33.5 17s-28.5 -6.33301 -36.5 -19s-13.667 -35 -17 -67z" />
    <glyph glyph-name="Ecaron" unicode="&#x11a;" 
d="M231 879l-68 182h107l40 -111l65 111h107l-107 -182h-144zM36 0l85 810h350l-12 -113h-188l-23 -218h147l-12 -113h-147l-27 -255h191l-12 -111h-352z" />
    <glyph glyph-name="ecaron" unicode="&#x11b;" horiz-adv-x="457" 
d="M200 647l-68 182h107l40 -111l65 111h107l-107 -182h-144zM208 -10c-65.333 0 -112 17.668 -140 53.001c-22.667 28.667 -33.667 67.667 -33 117c0 12 0.666992 24.333 2 37l19 183c7.33301 67.333 28.833 118.666 64.5 153.999s85.5 53 149.5 53
c66 0 111.333 -17.667 136 -53c19.333 -28 29 -66 29 -114c0 -14 -0.666992 -29.333 -2 -46l-10 -93h-230l-10 -93c-1.33301 -15.333 -2 -29.333 -2 -42c0 -1.33301 0.333008 -3 1 -5c0 -13.333 3 -23.833 9 -31.5s15.333 -11.5 28 -11.5c16 0 28.167 5.5 36.5 16.5
s13.5 27.833 15.5 50.5l6 52h139l-5 -45c-6 -58.667 -26.5 -103.667 -61.5 -135s-82.167 -47 -141.5 -47zM201 353.001h90l6 56c0.666992 8 1 15 1 21c0 14.667 -2 26 -6 34c-6 11.333 -17.167 17 -33.5 17s-28.5 -6.33301 -36.5 -19s-13.667 -35 -17 -67z" />
    <glyph glyph-name="Gcircumflex" unicode="&#x11c;" horiz-adv-x="566" 
d="M193 879l111 186h128l75 -186h-109l-36 118l-60 -118h-109zM240 -11c-40 0 -73.5029 6.49805 -100.503 19.498s-47.5 31.5 -61.5 55.5c-14 24.667 -23.333 54.334 -28 89.001c-2 16 -3 33 -3 51c0 20.667 1.33301 42.667 4 66l28 266c4 36.667 9.83301 69.167 17.5 97.5
s18.334 54.5 32.001 78.5s30.334 43.667 50.001 59s43.5 27.333 71.5 36s59.667 13 95 13c42 0 77.5 -5.33301 106.5 -16s51.333 -26.5 67 -47.5s25.834 -45.5 30.501 -73.5c2.66699 -15.333 4 -32.666 4 -51.999c0 -14.667 -1 -30.667 -3 -48l-5 -45h-156l6 52
c1.33301 19.333 2 36.666 2 51.999v7c0 16.667 -5 29.834 -15 39.501s-25.667 14.5 -47 14.5c-14 0 -25.833 -2.5 -35.5 -7.5s-17.5 -10.833 -23.5 -17.5s-11 -16.167 -15 -28.5s-6.83301 -23.333 -8.5 -33s-3.16699 -22.5 -4.5 -38.5l-37 -347c-1.33301 -14 -2 -27 -2 -39
c0 -9.33301 0.666992 -18 2 -26c2 -18.667 8.33301 -33.167 19 -43.5s26 -15.5 46 -15.5c30.667 0 53.167 11.167 67.5 33.5s23.833 54.833 28.5 97.5l7 77h-81l11 101h227l-44 -416h-106l-2 76c-30 -58 -78 -87 -144 -87z" />
    <glyph glyph-name="gcircumflex" unicode="&#x11d;" horiz-adv-x="479" 
d="M146 666l111 186h128l75 -186h-109l-36 118l-60 -118h-109zM217 -174c-16.667 0 -31.333 0.164062 -44 0.49707s-27.5 1.33301 -44.5 3s-31.833 3.83398 -44.5 6.50098s-25.5 6.5 -38.5 11.5s-23.167 11.167 -30.5 18.5c-8 6.66699 -14.333 15.667 -19 27
c-3.33301 8 -5 17 -5 27v9c4.66699 44 36.334 83.667 95.001 119c-40 14.667 -60 36.334 -60 65.001c0 21.333 6.33301 40 19 56s33 34.333 61 55c-19.333 16 -33.333 35.667 -42 59c-5.33301 15.333 -7.66602 34.333 -6.99902 57c0 11.333 0.666992 23.333 2 36
c7.33301 71.333 29.166 124.333 65.499 159s84.833 52 145.5 52s101.334 -17.667 122.001 -53c26 27.333 54.333 48 85 62l21 10l26 -78c-11.333 -2.66699 -28.5 -8.5 -51.5 -17.5s-39.833 -16.833 -50.5 -23.5c10.667 -20.667 16 -46.667 16 -78
c0 -10.667 -0.666992 -21.667 -2 -33c-6.66699 -62.667 -26.334 -111.334 -59.001 -146.001s-80 -52 -142 -52c-12.667 0 -27.334 1.5 -44.001 4.5s-28.667 6.16699 -36 9.5c-14 -16.667 -20.667 -29.667 -20 -39c0 -11.333 16.667 -19.333 50 -24
c5.33301 -0.666992 23 -2.66699 53 -6s49.667 -5.66602 59 -6.99902c51.333 -5.33301 87 -19.666 107 -42.999c16.667 -18.667 25 -44 25 -76c0 -6.66699 -0.333008 -13.667 -1 -21c-5.33301 -50 -24.333 -87.5 -57 -112.5s-84 -37.5 -154 -37.5zM227.001 -76.0029
c27.333 0 47.6689 3.16602 61.002 9.49902s21 16.833 23 31.5c0.666992 4.66699 1 9.33398 1 14.001c0 10.667 -3 18.667 -9 24c-8.66699 8 -25.334 13.333 -50.001 16l-89 9c-20.667 -24.667 -31.667 -45 -33 -61c0 -1.33301 -0.333008 -3 -1 -5
c0 -12.667 6 -21.667 18 -27c13.333 -7.33301 39.666 -11 78.999 -11zM239.004 270.996c20.667 0 35 7.99805 43 23.998s14.333 45 19 87c2.66699 21.333 4 39.666 4 54.999c0 12.667 -1 23 -3 31c-4.66699 18 -17.667 27 -39 27c-9.33301 0 -17.333 -1.66699 -24 -5
s-12 -7.66602 -16 -12.999s-7.5 -13.166 -10.5 -23.499s-5.16699 -20.5 -6.5 -30.5s-3 -23.667 -5 -41c-2.66699 -18 -4 -34 -4 -48c0 -13.333 1.33301 -24.666 4 -33.999c5.33301 -19.333 18 -29 38 -29z" />
    <glyph glyph-name="Gbreve" unicode="&#x11e;" horiz-adv-x="566" 
d="M350 879c-46.667 0 -81 12.001 -103 36.001c-18 20 -27 46.333 -27 79c0 6 0.333008 12.667 1 20h70c-0.666992 -4.66699 -1 -9.33398 -1 -14.001c0 -16.667 4.33301 -29.334 13 -38.001c10.667 -11.333 28.667 -17 54 -17s44.333 5.5 57 16.5s20 28.5 22 52.5h71
c-4 -41.333 -19.333 -74.166 -46 -98.499s-63.667 -36.5 -111 -36.5zM240 -10.999c-40 0 -73.5029 6.49805 -100.503 19.498s-47.5 31.5 -61.5 55.5c-14 24.667 -23.333 54.334 -28 89.001c-2 16 -3 33 -3 51c0 20.667 1.33301 42.667 4 66l28 266
c4 36.667 9.83301 69.167 17.5 97.5s18.334 54.5 32.001 78.5s30.334 43.667 50.001 59s43.5 27.333 71.5 36s59.667 13 95 13c42 0 77.5 -5.33301 106.5 -16s51.333 -26.5 67 -47.5s25.834 -45.5 30.501 -73.5c2.66699 -15.333 4 -32.666 4 -51.999
c0 -14.667 -1 -30.667 -3 -48l-5 -45h-156l6 52c1.33301 19.333 2 36.666 2 51.999v7c0 16.667 -5 29.834 -15 39.501s-25.667 14.5 -47 14.5c-14 0 -25.833 -2.5 -35.5 -7.5s-17.5 -10.833 -23.5 -17.5s-11 -16.167 -15 -28.5s-6.83301 -23.333 -8.5 -33
s-3.16699 -22.5 -4.5 -38.5l-37 -347c-1.33301 -14 -2 -27 -2 -39c0 -9.33301 0.666992 -18 2 -26c2 -18.667 8.33301 -33.167 19 -43.5s26 -15.5 46 -15.5c30.667 0 53.167 11.167 67.5 33.5s23.833 54.833 28.5 97.5l7 77h-81l11 101h227l-44 -416h-106l-2 76
c-30 -58 -78 -87 -144 -87z" />
    <glyph glyph-name="gbreve" unicode="&#x11f;" horiz-adv-x="479" 
d="M304 665c-46.667 0 -81 12.001 -103 36.001c-18 20 -27 46.333 -27 79c0 6 0.333008 12.667 1 20h70c-0.666992 -4.66699 -1 -9.33398 -1 -14.001c0 -16.667 4.33301 -29.334 13 -38.001c10.667 -11.333 28.667 -17 54 -17s44.333 5.5 57 16.5s20 28.5 22 52.5h71
c-4 -41.333 -19.333 -74.166 -46 -98.499s-63.667 -36.5 -111 -36.5zM217 -173.999c-16.667 0 -31.333 0.164062 -44 0.49707s-27.5 1.33301 -44.5 3s-31.833 3.83398 -44.5 6.50098s-25.5 6.5 -38.5 11.5s-23.167 11.167 -30.5 18.5c-8 6.66699 -14.333 15.667 -19 27
c-3.33301 8 -5 17 -5 27v9c4.66699 44 36.334 83.667 95.001 119c-40 14.667 -60 36.334 -60 65.001c0 21.333 6.33301 40 19 56s33 34.333 61 55c-19.333 16 -33.333 35.667 -42 59c-5.33301 15.333 -7.66602 34.333 -6.99902 57c0 11.333 0.666992 23.333 2 36
c7.33301 71.333 29.166 124.333 65.499 159s84.833 52 145.5 52s101.334 -17.667 122.001 -53c26 27.333 54.333 48 85 62l21 10l26 -78c-11.333 -2.66699 -28.5 -8.5 -51.5 -17.5s-39.833 -16.833 -50.5 -23.5c10.667 -20.667 16 -46.667 16 -78
c0 -10.667 -0.666992 -21.667 -2 -33c-6.66699 -62.667 -26.334 -111.334 -59.001 -146.001s-80 -52 -142 -52c-12.667 0 -27.334 1.5 -44.001 4.5s-28.667 6.16699 -36 9.5c-14 -16.667 -20.667 -29.667 -20 -39c0 -11.333 16.667 -19.333 50 -24
c5.33301 -0.666992 23 -2.66699 53 -6s49.667 -5.66602 59 -6.99902c51.333 -5.33301 87 -19.666 107 -42.999c16.667 -18.667 25 -44 25 -76c0 -6.66699 -0.333008 -13.667 -1 -21c-5.33301 -50 -24.333 -87.5 -57 -112.5s-84 -37.5 -154 -37.5zM227.001 -76.002
c27.333 0 47.6689 3.16602 61.002 9.49902s21 16.833 23 31.5c0.666992 4.66699 1 9.33398 1 14.001c0 10.667 -3 18.667 -9 24c-8.66699 8 -25.334 13.333 -50.001 16l-89 9c-20.667 -24.667 -31.667 -45 -33 -61c0 -1.33301 -0.333008 -3 -1 -5
c0 -12.667 6 -21.667 18 -27c13.333 -7.33301 39.666 -11 78.999 -11zM239.004 270.997c20.667 0 35 7.99805 43 23.998s14.333 45 19 87c2.66699 21.333 4 39.666 4 54.999c0 12.667 -1 23 -3 31c-4.66699 18 -17.667 27 -39 27c-9.33301 0 -17.333 -1.66699 -24 -5
s-12 -7.66602 -16 -12.999s-7.5 -13.166 -10.5 -23.499s-5.16699 -20.5 -6.5 -30.5s-3 -23.667 -5 -41c-2.66699 -18 -4 -34 -4 -48c0 -13.333 1.33301 -24.666 4 -33.999c5.33301 -19.333 18 -29 38 -29z" />
    <glyph glyph-name="Gdotaccent" unicode="&#x120;" horiz-adv-x="566" 
d="M278 879l15 144h143l-15 -144h-143zM240 -11c-40 0 -73.5029 6.49805 -100.503 19.498s-47.5 31.5 -61.5 55.5c-14 24.667 -23.333 54.334 -28 89.001c-2 16 -3 33 -3 51c0 20.667 1.33301 42.667 4 66l28 266c4 36.667 9.83301 69.167 17.5 97.5
s18.334 54.5 32.001 78.5s30.334 43.667 50.001 59s43.5 27.333 71.5 36s59.667 13 95 13c42 0 77.5 -5.33301 106.5 -16s51.333 -26.5 67 -47.5s25.834 -45.5 30.501 -73.5c2.66699 -15.333 4 -32.666 4 -51.999c0 -14.667 -1 -30.667 -3 -48l-5 -45h-156l6 52
c1.33301 19.333 2 36.666 2 51.999v7c0 16.667 -5 29.834 -15 39.501s-25.667 14.5 -47 14.5c-14 0 -25.833 -2.5 -35.5 -7.5s-17.5 -10.833 -23.5 -17.5s-11 -16.167 -15 -28.5s-6.83301 -23.333 -8.5 -33s-3.16699 -22.5 -4.5 -38.5l-37 -347c-1.33301 -14 -2 -27 -2 -39
c0 -9.33301 0.666992 -18 2 -26c2 -18.667 8.33301 -33.167 19 -43.5s26 -15.5 46 -15.5c30.667 0 53.167 11.167 67.5 33.5s23.833 54.833 28.5 97.5l7 77h-81l11 101h227l-44 -416h-106l-2 76c-30 -58 -78 -87 -144 -87z" />
    <glyph glyph-name="gdotaccent" unicode="&#x121;" horiz-adv-x="479" 
d="M232 666l15 144h143l-15 -144h-143zM217 -174c-16.667 0 -31.333 0.164062 -44 0.49707s-27.5 1.33301 -44.5 3s-31.833 3.83398 -44.5 6.50098s-25.5 6.5 -38.5 11.5s-23.167 11.167 -30.5 18.5c-8 6.66699 -14.333 15.667 -19 27c-3.33301 8 -5 17 -5 27v9
c4.66699 44 36.334 83.667 95.001 119c-40 14.667 -60 36.334 -60 65.001c0 21.333 6.33301 40 19 56s33 34.333 61 55c-19.333 16 -33.333 35.667 -42 59c-5.33301 15.333 -7.66602 34.333 -6.99902 57c0 11.333 0.666992 23.333 2 36
c7.33301 71.333 29.166 124.333 65.499 159s84.833 52 145.5 52s101.334 -17.667 122.001 -53c26 27.333 54.333 48 85 62l21 10l26 -78c-11.333 -2.66699 -28.5 -8.5 -51.5 -17.5s-39.833 -16.833 -50.5 -23.5c10.667 -20.667 16 -46.667 16 -78
c0 -10.667 -0.666992 -21.667 -2 -33c-6.66699 -62.667 -26.334 -111.334 -59.001 -146.001s-80 -52 -142 -52c-12.667 0 -27.334 1.5 -44.001 4.5s-28.667 6.16699 -36 9.5c-14 -16.667 -20.667 -29.667 -20 -39c0 -11.333 16.667 -19.333 50 -24
c5.33301 -0.666992 23 -2.66699 53 -6s49.667 -5.66602 59 -6.99902c51.333 -5.33301 87 -19.666 107 -42.999c16.667 -18.667 25 -44 25 -76c0 -6.66699 -0.333008 -13.667 -1 -21c-5.33301 -50 -24.333 -87.5 -57 -112.5s-84 -37.5 -154 -37.5zM227.001 -76.0029
c27.333 0 47.6689 3.16602 61.002 9.49902s21 16.833 23 31.5c0.666992 4.66699 1 9.33398 1 14.001c0 10.667 -3 18.667 -9 24c-8.66699 8 -25.334 13.333 -50.001 16l-89 9c-20.667 -24.667 -31.667 -45 -33 -61c0 -1.33301 -0.333008 -3 -1 -5
c0 -12.667 6 -21.667 18 -27c13.333 -7.33301 39.666 -11 78.999 -11zM239.004 270.996c20.667 0 35 7.99805 43 23.998s14.333 45 19 87c2.66699 21.333 4 39.666 4 54.999c0 12.667 -1 23 -3 31c-4.66699 18 -17.667 27 -39 27c-9.33301 0 -17.333 -1.66699 -24 -5
s-12 -7.66602 -16 -12.999s-7.5 -13.166 -10.5 -23.499s-5.16699 -20.5 -6.5 -30.5s-3 -23.667 -5 -41c-2.66699 -18 -4 -34 -4 -48c0 -13.333 1.33301 -24.666 4 -33.999c5.33301 -19.333 18 -29 38 -29z" />
    <glyph glyph-name="Gcommaaccent" unicode="&#x122;" horiz-adv-x="566" 
d="M179 -341l-12.001 56c22 2 39.167 8.5 51.5 19.5s19.833 28.833 22.5 53.5h-76l15 141h142l-13 -125c-5.33301 -47.333 -18.166 -83.333 -38.499 -108s-50.833 -37 -91.5 -37zM239.999 -11c-40 0 -73.5029 6.49805 -100.503 19.498s-47.5 31.5 -61.5 55.5
c-14 24.667 -23.333 54.334 -28 89.001c-2 16 -3 33 -3 51c0 20.667 1.33301 42.667 4 66l28 266c4 36.667 9.83301 69.167 17.5 97.5s18.334 54.5 32.001 78.5s30.334 43.667 50.001 59s43.5 27.333 71.5 36s59.667 13 95 13c42 0 77.5 -5.33301 106.5 -16
s51.333 -26.5 67 -47.5s25.834 -45.5 30.501 -73.5c2.66699 -15.333 4 -32.666 4 -51.999c0 -14.667 -1 -30.667 -3 -48l-5 -45h-156l6 52c1.33301 19.333 2 36.666 2 51.999v7c0 16.667 -5 29.834 -15 39.501s-25.667 14.5 -47 14.5c-14 0 -25.833 -2.5 -35.5 -7.5
s-17.5 -10.833 -23.5 -17.5s-11 -16.167 -15 -28.5s-6.83301 -23.333 -8.5 -33s-3.16699 -22.5 -4.5 -38.5l-37 -347c-1.33301 -14 -2 -27 -2 -39c0 -9.33301 0.666992 -18 2 -26c2 -18.667 8.33301 -33.167 19 -43.5s26 -15.5 46 -15.5c30.667 0 53.167 11.167 67.5 33.5
s23.833 54.833 28.5 97.5l7 77h-81l11 101h227l-44 -416h-106l-2 76c-30 -58 -78 -87 -144 -87z" />
    <glyph glyph-name="gcommaaccent" unicode="&#x123;" horiz-adv-x="439" 
d="M209 -180c-17.333 0 -33.999 0.664062 -49.999 1.99707s-33.167 3.5 -51.5 6.5s-34.666 7.33301 -48.999 13s-27.333 12.5 -39 20.5s-20.5 18.333 -26.5 31c-4.66699 10 -6.66699 20.667 -6 32v11c4 35.333 38.333 74 103 116c-24 9.33301 -41.833 18.333 -53.5 27
s-17.834 18.667 -18.501 30v6c0 18.667 7 37.334 21 56.001c16 20 37.667 40.667 65 62c-34.667 26 -52 65.333 -52 118c0 8.66699 0.333008 17.667 1 27c7.33301 66.667 30.666 118.5 69.999 155.5s91 55.5 155 55.5c28.667 0 54.334 -5 77.001 -15s40 -23.333 52 -40
c29.333 32 58 54.667 86 68l22 9l26 -68c-11.333 -3.33301 -26.833 -10.166 -46.5 -20.499s-37.5 -21.166 -53.5 -32.499c12.667 -22.667 19 -50 19 -82c0 -9.33301 -0.666992 -18.666 -2 -27.999c-6 -61.333 -27 -109.666 -63 -144.999s-85.333 -53 -148 -53
c-36.667 0 -68.334 6 -95.001 18c-24.667 -28.667 -36.667 -48.334 -36 -59.001c0.666992 -6.66699 18 -13.334 52 -20.001l126 -21c57.333 -10 97 -25.333 119 -46c18 -17.333 27 -41.333 27 -72c0 -5.33301 -0.333008 -11 -1 -17c-4.66699 -44 -26 -79.167 -64 -105.5
s-93.333 -39.5 -166 -39.5zM250.001 725.997l13 116c10 96 54.667 148 134 156l3 -43c-45.333 -17.333 -70.333 -47 -75 -89h78l-14 -140h-139zM219.001 -94.0029c63.333 0 97.665 15.334 102.998 46.001c1.33301 5.33301 2 10.333 2 15c0 11.333 -3.66699 20.333 -11 27
c-10.667 9.33301 -31.667 17 -63 23l-74 12c-9.33301 -8.66699 -16.666 -15.667 -21.999 -21s-11.166 -12.833 -17.499 -22.5s-9.83301 -18.834 -10.5 -27.501v-5c0 -14.667 7 -26 21 -34c16 -8.66699 40 -13 72 -13zM248 265.998c12.667 0 23.332 2.83496 31.999 8.50195
s15.667 14.5 21 26.5s9.33301 24.333 12 37s5 28.667 7 48c1.33301 20 2.33301 37.667 3 53v8c0 17.333 -4.33301 31.166 -13 41.499s-21.667 15.5 -39 15.5c-13.333 0 -24.333 -3.16699 -33 -9.5s-15.5 -15.833 -20.5 -28.5s-8.66699 -24.834 -11 -36.501
s-4.16602 -26.167 -5.49902 -43.5c-2 -22 -3 -42 -3 -60s4.16699 -32.5 12.5 -43.5s20.833 -16.5 37.5 -16.5z" />
    <glyph glyph-name="Hcircumflex" unicode="&#x124;" horiz-adv-x="590" 
d="M206 879l111 186h128l75 -186h-109l-36 118l-60 -118h-109zM36 0l85 810h161l-34 -333h147l35 333h161l-85 -810h-161l38 361h-148l-38 -361h-161z" />
    <glyph glyph-name="hcircumflex" unicode="&#x125;" horiz-adv-x="492" 
d="M159 869l111 186h128l75 -186h-109l-36 118l-60 -118h-109zM29 0l85 810h148l-30 -286c48 42 98 63 150 63c33.333 0 57 -12 71 -36c11.333 -19.333 16.666 -42.333 15.999 -69c0 -7.33301 -0.333008 -15.333 -1 -24l-48 -458h-149l45 431c0.666992 5.33301 1 10 1 14
c0 10 -1.33301 17.667 -4 23c-4 8 -13 11.667 -27 11c-15.333 0 -35.666 -8.33301 -60.999 -25l-48 -454h-148z" />
    <glyph glyph-name="Hbar" unicode="&#x126;" horiz-adv-x="548" 
d="M21 0l64 615h-49l6 58h50l14 137h162l-15 -137h143l14 137h161l-14 -137h43l-7 -58h-42l-65 -615h-161l38 361h-142l-38 -361h-162zM233 477h142l14 138h-142z" />
    <glyph glyph-name="hbar" unicode="&#x127;" horiz-adv-x="492" 
d="M29 0l72 677h-52l7 72h52l6 61h149l-7 -61h119l-7 -72h-119l-16 -153c48 42 97.667 63 149 63c33.333 0 57 -12 71 -36c11.333 -19.333 17 -42.333 17 -69c0 -7.33301 -0.666992 -15.333 -2 -24l-48 -458h-148l45 431c0.666992 5.33301 1 10 1 14
c0 10 -1.66699 17.667 -5 23c-4 8 -12.667 11.667 -26 11c-16 0 -36.333 -8.33301 -61 -25l-48 -454h-149z" />
    <glyph glyph-name="Itilde" unicode="&#x128;" horiz-adv-x="286" 
d="M296 879h-4.00098c-13.333 0 -28 4 -44 12c-18 8 -35.167 16 -51.5 24s-29.166 12 -38.499 12c-17.333 0 -27.333 -13.333 -30 -40h-74c4 41.333 13.5 73.333 28.5 96s38.5 34.667 70.5 36h5c14.667 0 30 -3 46 -9c17.333 -7.33301 33.166 -15 47.499 -23
s24.5 -12.333 30.5 -13h4c14.667 0 23.334 13 26.001 39h70c-2 -18 -4.66699 -34.167 -8 -48.5s-8.16602 -28.166 -14.499 -41.499s-14.833 -23.833 -25.5 -31.5s-23.334 -11.834 -38.001 -12.501zM38.999 0l85 810h160l-85 -810h-160z" />
    <glyph glyph-name="itilde" unicode="&#x129;" horiz-adv-x="265" 
d="M262 647h-4.00098c-13.333 0 -28 4 -44 12c-18 8 -35.167 16 -51.5 24s-29.166 12 -38.499 12c-17.333 0 -27.333 -13.333 -30 -40h-74c4 41.333 13.5 73.333 28.5 96s38.5 34.667 70.5 36h5c14.667 0 30 -3 46 -9c17.333 -7.33301 33.166 -15 47.499 -23
s24.5 -12.333 30.5 -13h4c14.667 0 23.334 13 26.001 39h70c-2 -18 -4.66699 -34.167 -8 -48.5s-8.16602 -28.166 -14.499 -41.499s-14.833 -23.833 -25.5 -31.5s-23.334 -11.834 -38.001 -12.501zM34.999 0l61 578h148l-60 -578h-149z" />
    <glyph glyph-name="Imacron" unicode="&#x12a;" horiz-adv-x="286" 
d="M86 879l7 75h250l-8 -75h-249zM39 0l85 810h160l-85 -810h-160z" />
    <glyph glyph-name="imacron" unicode="&#x12b;" horiz-adv-x="265" 
d="M53 647l7 75h250l-8 -75h-249zM35 0l61 578h148l-60 -578h-149z" />
    <glyph glyph-name="Ibreve" unicode="&#x12c;" horiz-adv-x="286" 
d="M211 879c-46.667 0 -81 12.001 -103 36.001c-18 20 -27 46.333 -27 79c0 6 0.333008 12.667 1 20h70c-0.666992 -4.66699 -1 -9.33398 -1 -14.001c0 -16.667 4.33301 -29.334 13 -38.001c10.667 -11.333 28.667 -17 54 -17s44.333 5.5 57 16.5s20 28.5 22 52.5h71
c-4 -41.333 -19.333 -74.166 -46 -98.499s-63.667 -36.5 -111 -36.5zM39 0.000976562l85 810h160l-85 -810h-160z" />
    <glyph glyph-name="ibreve" unicode="&#x12d;" horiz-adv-x="265" 
d="M177 647c-46.667 0 -81 12.001 -103 36.001c-18 20 -27 46.333 -27 79c0 6 0.333008 12.667 1 20h70c-0.666992 -4.66699 -1 -9.33398 -1 -14.001c0 -16.667 4.33301 -29.334 13 -38.001c10.667 -11.333 28.667 -17 54 -17s44.333 5.5 57 16.5s20 28.5 22 52.5h71
c-4 -41.333 -19.333 -74.166 -46 -98.499s-63.667 -36.5 -111 -36.5zM35 0.000976562l61 578h148l-60 -578h-149z" />
    <glyph glyph-name="Iogonek" unicode="&#x12e;" horiz-adv-x="286" 
d="M115 -245l-37.001 0.000976562c-1.33301 0 -2.66602 -0.333008 -3.99902 -1c-12 0 -23.667 1 -35 3c-12.667 1.33301 -24.334 3.16602 -35.001 5.49902s-20.5 6 -29.5 11s-16.5 11.167 -22.5 18.5c-6.66699 6.66699 -11.334 15.334 -14.001 26.001
c-2 7.33301 -3 15.666 -3 24.999c0 4 0.333008 8 1 12c2.66699 28 14.5 56.5 35.5 85.5s44.5 51.167 70.5 66.5h70c-4 -7.33301 -12.167 -20.333 -24.5 -39s-22.333 -35.834 -30 -51.501s-12.167 -30.5 -13.5 -44.5c-0.666992 -7.33301 -0.166992 -13.666 1.5 -18.999
s4.83398 -9.66602 9.50098 -12.999s9.33398 -5.83301 14.001 -7.5s11 -2.83398 19 -3.50098l18 -1.5c4 -0.333008 10.167 -0.333008 18.5 0s13.5 0.5 15.5 0.5zM38.999 0.000976562l85 810h160l-85 -810h-160z" />
    <glyph glyph-name="iogonek" unicode="&#x12f;" horiz-adv-x="256" 
d="M103 -245l-37.001 0.000976562c-1.33301 0 -2.66602 -0.333008 -3.99902 -1c-12 0 -23.667 1 -35 3c-12.667 1.33301 -24.334 3.16602 -35.001 5.49902s-20.5 6 -29.5 11s-16.5 11.167 -22.5 18.5c-6.66699 6.66699 -11.334 15.334 -14.001 26.001
c-2 7.33301 -3 15.666 -3 24.999c0 4 0.333008 8 1 12c2.66699 28 14.5 56.5 35.5 85.5s44.5 51.167 70.5 66.5h70c-4 -7.33301 -12.167 -20.333 -24.5 -39s-22.333 -35.834 -30 -51.501s-12.167 -30.5 -13.5 -44.5c-0.666992 -7.33301 -0.166992 -13.666 1.5 -18.999
s4.83398 -9.66602 9.50098 -12.999s9.33398 -5.83301 14.001 -7.5s11 -2.83398 19 -3.50098l18 -1.5c4 -0.333008 10.167 -0.333008 18.5 0s13.5 0.5 15.5 0.5zM29.999 0.000976562l61 578h148l-60 -578h-149zM100.999 672.001l12 115h149l-12 -115h-149z" />
    <glyph glyph-name="Idotaccent" unicode="&#x130;" horiz-adv-x="286" 
d="M139 879l15 144h143l-15 -144h-143zM39 0l85 810h160l-85 -810h-160z" />
    <glyph glyph-name="dotlessi" unicode="&#x131;" horiz-adv-x="265" 
d="M35 0l61 578h148l-60 -578h-149z" />
    <glyph glyph-name="ij" unicode="&#x133;" horiz-adv-x="519" 
d="M203 -157l11.0029 106c13.333 -2 22.666 -3 27.999 -3c32 0 50.333 18 55 54l60 578h149l-63 -596c-4.66699 -46 -21.334 -82.5 -50.001 -109.5s-66.334 -40.5 -113.001 -40.5c-27.333 0 -53 3.66699 -77 11zM367.003 672l12 115h149l-12 -115h-149zM30.0029 0l61 578
h148l-60 -578h-149zM101.003 672l12 115h149l-12 -115h-149z" />
    <glyph glyph-name="Jcircumflex" unicode="&#x134;" horiz-adv-x="336" 
d="M86 905l111 186h128l75 -186h-109l-36 118l-60 -118h-109zM-16 -19l12 113.999h6c37.333 0 63.333 5.66699 78 17c15.333 12.667 25 38 29 76l65 622h162l-65 -627c-4 -35.333 -10.333 -65 -19 -89s-21 -44.667 -37 -62s-36.5 -30.166 -61.5 -38.499
s-55.5 -12.5 -91.5 -12.5h-78z" />
    <glyph glyph-name="jcircumflex" unicode="&#x135;" horiz-adv-x="258" 
d="M26 661l111 186h128l75 -186h-109l-36 118l-60 -118h-109zM-56 -165l12.0029 107c13.333 -2 22.666 -3.33301 27.999 -4c32.667 0 51 18.333 55 55l61 585h148l-63 -603c-4.66699 -46 -21.334 -82.667 -50.001 -110s-66.667 -41 -114 -41
c-26.667 0 -52.334 3.66699 -77.001 11z" />
    <glyph glyph-name="Kcommaaccent" unicode="&#x136;" horiz-adv-x="545" 
d="M197 -329l-12.001 56c22 2 39.167 8.5 51.5 19.5s19.833 28.833 22.5 53.5h-76l15 141h142l-13 -125c-5.33301 -47.333 -18.166 -83.333 -38.499 -108s-50.833 -37 -91.5 -37zM35.999 0l85 810h161l-35 -342l185 342h155l-191 -364l119 -446h-163l-92 373l-28 -42
l-35 -331h-161z" />
    <glyph glyph-name="kcommaaccent" unicode="&#x137;" horiz-adv-x="507" 
d="M177 -329l-12.001 56c22 2 39.167 8.5 51.5 19.5s19.833 28.833 22.5 53.5h-76l15 141h142l-13 -125c-5.33301 -47.333 -18.166 -83.333 -38.499 -108s-50.833 -37 -91.5 -37zM27.999 1l86 810h147l-48 -457l166 224h163l-170 -234l108 -344h-159l-72 280l-50 -59
l-23 -220h-148z" />
    <glyph glyph-name="kgreenlandic" unicode="&#x138;" horiz-adv-x="483" 
d="M28 0l60 578h149l-25 -242l146 242h157l-147 -245l89 -333h-155l-62 271l-40 -52l-24 -219h-148z" />
    <glyph glyph-name="Lacute" unicode="&#x139;" horiz-adv-x="427" 
d="M260 879l81 201h151l-144 -201h-88zM36 0l85 810h161l-73 -699h190l-12 -111h-351z" />
    <glyph glyph-name="lacute" unicode="&#x13a;" horiz-adv-x="262" 
d="M156 869l81 201h151l-144 -201h-88zM35 0l85 810h149l-85 -810h-149z" />
    <glyph glyph-name="Lcommaaccent" unicode="&#x13b;" horiz-adv-x="427" 
d="M133 -329l-12.001 56c22 2 39.167 8.5 51.5 19.5s19.833 28.833 22.5 53.5h-76l15 141h142l-13 -125c-5.33301 -47.333 -18.166 -83.333 -38.499 -108s-50.833 -37 -91.5 -37zM35.999 0l85 810h161l-73 -699h190l-12 -111h-351z" />
    <glyph glyph-name="lcommaaccent" unicode="&#x13c;" horiz-adv-x="262" 
d="M32 -329l-12.001 56c22 2 39.167 8.5 51.5 19.5s19.833 28.833 22.5 53.5h-76l15 141h142l-13 -125c-5.33301 -47.333 -18.166 -83.333 -38.499 -108s-50.833 -37 -91.5 -37zM34.999 0l85 810h149l-85 -810h-149z" />
    <glyph glyph-name="Lcaron" unicode="&#x13d;" horiz-adv-x="427" 
d="M531 535l30 285h124l-79 -285h-75zM36 0l85 810h161l-73 -699h190l-12 -111h-351z" />
    <glyph glyph-name="lcaron" unicode="&#x13e;" horiz-adv-x="423" 
d="M327 525l30 285h124l-79 -285h-75zM35 0l85 810h149l-85 -810h-149z" />
    <glyph glyph-name="Ldot" unicode="&#x13f;" horiz-adv-x="427" 
d="M176 340l15 140h142l-15 -140h-142zM36 0l85 810h161l-73 -699h190l-12 -111h-351z" />
    <glyph glyph-name="ldot" unicode="&#x140;" horiz-adv-x="470" 
d="M304 306l15 140h142l-15 -140h-142zM35 0l85 810h149l-85 -810h-149z" />
    <glyph glyph-name="Lslash" unicode="&#x141;" 
d="M41 0l38 362l-66 -32l10 98l66 32l37 350h162l-29 -271l105 51l-10 -98l-105 -50l-35 -331h190l-11 -111h-352z" />
    <glyph glyph-name="lslash" unicode="&#x142;" horiz-adv-x="313" 
d="M61 0l43 411l-70 -30l9 92l70 29l33 308h148l-25 -243l75 32l-10 -92l-75 -31l-50 -476h-148z" />
    <glyph glyph-name="Nacute" unicode="&#x143;" horiz-adv-x="550" 
d="M299 879l81 201h151l-144 -201h-88zM36 0l85 810h112l139 -428l45 428h134l-85 -810h-107l-138 454l-48 -454h-137z" />
    <glyph glyph-name="nacute" unicode="&#x144;" horiz-adv-x="488" 
d="M246 647l81 201h151l-144 -201h-88zM27 0l61.001 578h148l-6 -57c51.333 44 100.666 66 147.999 66c33.333 0 57 -12 71 -36c11.333 -19.333 17 -42.333 17 -69c0 -7.33301 -0.666992 -15.333 -2 -24l-47 -458h-149l45 431c0.666992 5.33301 1 10 1 14
c0 10 -1.33301 17.667 -4 23c-4 8 -13 11.667 -27 11c-15.333 0 -35 -7.66699 -59 -23l-48 -456h-149z" />
    <glyph glyph-name="Ncommaaccent" unicode="&#x145;" horiz-adv-x="550" 
d="M173 -329l-12.001 56c22 2 39.167 8.5 51.5 19.5s19.833 28.833 22.5 53.5h-76l15 141h142l-13 -125c-5.33301 -47.333 -18.166 -83.333 -38.499 -108s-50.833 -37 -91.5 -37zM35.999 0l85 810h112l139 -428l45 428h134l-85 -810h-107l-138 454l-48 -454h-137z" />
    <glyph glyph-name="ncommaaccent" unicode="&#x146;" horiz-adv-x="488" 
d="M144 -329l-12.001 56c22 2 39.167 8.5 51.5 19.5s19.833 28.833 22.5 53.5h-76l15 141h142l-13 -125c-5.33301 -47.333 -18.166 -83.333 -38.499 -108s-50.833 -37 -91.5 -37zM26.999 0l61.001 578h148l-6 -57c51.333 44 100.666 66 147.999 66c33.333 0 57 -12 71 -36
c11.333 -19.333 17 -42.333 17 -69c0 -7.33301 -0.666992 -15.333 -2 -24l-47 -458h-149l45 431c0.666992 5.33301 1 10 1 14c0 10 -1.33301 17.667 -4 23c-4 8 -13 11.667 -27 11c-15.333 0 -35 -7.66699 -59 -23l-48 -456h-149z" />
    <glyph glyph-name="Ncaron" unicode="&#x147;" horiz-adv-x="550" 
d="M270 879l-68 182h107l40 -111l65 111h107l-107 -182h-144zM36 0l85 810h112l139 -428l45 428h134l-85 -810h-107l-138 454l-48 -454h-137z" />
    <glyph glyph-name="ncaron" unicode="&#x148;" horiz-adv-x="488" 
d="M217 647l-68 182h107l40 -111l65 111h107l-107 -182h-144zM27 0l61.001 578h148l-6 -57c51.333 44 100.666 66 147.999 66c33.333 0 57 -12 71 -36c11.333 -19.333 17 -42.333 17 -69c0 -7.33301 -0.666992 -15.333 -2 -24l-47 -458h-149l45 431
c0.666992 5.33301 1 10 1 14c0 10 -1.33301 17.667 -4 23c-4 8 -13 11.667 -27 11c-15.333 0 -35 -7.66699 -59 -23l-48 -456h-149z" />
    <glyph glyph-name="napostrophe" unicode="&#x149;" horiz-adv-x="488" 
d="M27 0l61.001 578h148l-6 -57c51.333 44 100.666 66 147.999 66c33.333 0 57 -12 71 -36c11.333 -19.333 17 -42.333 17 -69c0 -7.33301 -0.666992 -15.333 -2 -24l-47 -458h-149l45 431c0.666992 5.33301 1 10 1 14c0 10 -1.33301 17.667 -4 23c-4 8 -13 11.667 -27 11
c-15.333 0 -35 -7.66699 -59 -23l-48 -456h-149zM95.001 683l30 285h124l-79 -285h-75z" />
    <glyph glyph-name="Eng" unicode="&#x14a;" horiz-adv-x="550" 
d="M203 -204l10.001 100h3c44 0 74.667 7 92 21s27.666 40 30.999 78l8 73l-129 386l-48 -454h-134l85 810h112l142 -428l45 428h131l-85 -810c-3.33301 -35.333 -8.83301 -64.833 -16.5 -88.5s-19 -44.5 -34 -62.5s-34.833 -31.333 -59.5 -40s-54.667 -13 -90 -13h-63z" />
    <glyph glyph-name="eng" unicode="&#x14b;" horiz-adv-x="447" 
d="M125 -193l10 98.001c31.333 0 55.5 2.83301 72.5 8.5s29 14.667 36 27s11.833 30.5 14.5 54.5l46 436v13c0 10 -1.33301 18 -4 24c-4 8 -13 11.667 -27 11c-15.333 0 -35 -7.66699 -59 -23l-47 -456h-149l61 578h148l-5 -52c46.667 41.333 95.667 61.666 147 60.999
c33.333 0 57 -12 71 -36c11.333 -19.333 17 -42.333 17 -69c0 -7.33301 -0.666992 -15.333 -2 -24l-49 -464c-6.66699 -65.333 -28.167 -112.833 -64.5 -142.5s-91.5 -44.5 -165.5 -44.5h-51z" />
    <glyph glyph-name="Omacron" unicode="&#x14c;" horiz-adv-x="572" 
d="M230 879l7 75h250l-8 -75h-249zM272 106c15.333 0 28.666 3 39.999 9s20 14.5 26 25.5s10.333 22.333 13 34s5 26.167 7 43.5l39 376c0.666992 13.333 1.33398 26 2.00098 38c0 6 -0.333008 11.667 -1 17c-0.666992 16 -6.16699 29 -16.5 39s-25.833 15 -46.5 15
c-15.333 0 -28.333 -2.66699 -39 -8s-19 -13.5 -25 -24.5s-10.333 -22.167 -13 -33.5s-5 -25.666 -7 -42.999l-40 -376c-1.33301 -14.667 -2 -28.334 -2 -41.001c0 -5.33301 0.333008 -10.333 1 -15c0.666992 -16 6 -29.333 16 -40s25.333 -16 46 -16zM260 -11
c-43.333 0 -79.8311 6 -109.498 18s-52.5 29.833 -68.5 53.5s-26.333 51.5 -31 83.5c-2.66699 16.667 -4 34.667 -4 54c0 18 1 37.333 3 58l32 300c9.33301 87.333 34.666 153.166 75.999 197.499s104.666 66.5 189.999 66.5c43.333 0 79.833 -5.83301 109.5 -17.5
s52.5 -29.167 68.5 -52.5c15.333 -23.333 26 -51 32 -83c2.66699 -16.667 4 -34.667 4 -54c0 -18 -1 -37 -3 -57l-32 -300c-9.33301 -87.333 -35 -153.666 -77 -198.999s-105.333 -68 -190 -68z" />
    <glyph glyph-name="omacron" unicode="&#x14d;" horiz-adv-x="466" 
d="M153 647l7 75h250l-8 -75h-249zM218 93c18.667 0 31.834 7.16992 39.501 21.5029s12.834 35.166 15.501 62.499l24 224c0.666992 10.667 1 20.334 1 29.001c0 14 -1.33301 25.333 -4 34c-4.66699 14 -16.167 21.167 -34.5 21.5s-31.333 -6.83398 -39 -21.501
s-12.834 -35.667 -15.501 -63l-23 -224c-0.666992 -12.667 -1.33398 -24.334 -2.00098 -35.001v-7c0 -12.667 3.16699 -22.834 9.5 -30.501s15.833 -11.5 28.5 -11.5zM207.5 -9.99707c-62.333 0 -108.167 16.998 -137.5 50.998c-24 28 -36 65.333 -36 112
c0 11.333 0.666992 23 2 35l21 203c6.66699 63.333 28.167 111.833 64.5 145.5s85.833 50.5 148.5 50.5s109 -16.667 139 -50c24 -27.333 36 -64.666 36 -111.999c0 -10.667 -0.666992 -22 -2 -34l-21 -203c-6.66699 -63.333 -28.5 -112.166 -65.5 -146.499
s-86.667 -51.5 -149 -51.5z" />
    <glyph glyph-name="Obreve" unicode="&#x14e;" horiz-adv-x="572" 
d="M354 879c-46.667 0 -81 12.001 -103 36.001c-18 20 -27 46.333 -27 79c0 6 0.333008 12.667 1 20h70c-0.666992 -4.66699 -1 -9.33398 -1 -14.001c0 -16.667 4.33301 -29.334 13 -38.001c10.667 -11.333 28.667 -17 54 -17s44.333 5.5 57 16.5s20 28.5 22 52.5h71
c-4 -41.333 -19.333 -74.166 -46 -98.499s-63.667 -36.5 -111 -36.5zM272 106.001c15.333 0 28.666 3 39.999 9s20 14.5 26 25.5s10.333 22.333 13 34s5 26.167 7 43.5l39 376c0.666992 13.333 1.33398 26 2.00098 38c0 6 -0.333008 11.667 -1 17
c-0.666992 16 -6.16699 29 -16.5 39s-25.833 15 -46.5 15c-15.333 0 -28.333 -2.66699 -39 -8s-19 -13.5 -25 -24.5s-10.333 -22.167 -13 -33.5s-5 -25.666 -7 -42.999l-40 -376c-1.33301 -14.667 -2 -28.334 -2 -41.001c0 -5.33301 0.333008 -10.333 1 -15
c0.666992 -16 6 -29.333 16 -40s25.333 -16 46 -16zM260 -10.999c-43.333 0 -79.8311 6 -109.498 18s-52.5 29.833 -68.5 53.5s-26.333 51.5 -31 83.5c-2.66699 16.667 -4 34.667 -4 54c0 18 1 37.333 3 58l32 300c9.33301 87.333 34.666 153.166 75.999 197.499
s104.666 66.5 189.999 66.5c43.333 0 79.833 -5.83301 109.5 -17.5s52.5 -29.167 68.5 -52.5c15.333 -23.333 26 -51 32 -83c2.66699 -16.667 4 -34.667 4 -54c0 -18 -1 -37 -3 -57l-32 -300c-9.33301 -87.333 -35 -153.666 -77 -198.999s-105.333 -68 -190 -68z" />
    <glyph glyph-name="obreve" unicode="&#x14f;" horiz-adv-x="466" 
d="M277 647c-46.667 0 -81 12.001 -103 36.001c-18 20 -27 46.333 -27 79c0 6 0.333008 12.667 1 20h70c-0.666992 -4.66699 -1 -9.33398 -1 -14.001c0 -16.667 4.33301 -29.334 13 -38.001c10.667 -11.333 28.667 -17 54 -17s44.333 5.5 57 16.5s20 28.5 22 52.5h71
c-4 -41.333 -19.333 -74.166 -46 -98.499s-63.667 -36.5 -111 -36.5zM218 93.001c18.667 0 31.834 7.16992 39.501 21.5029s12.834 35.166 15.501 62.499l24 224c0.666992 10.667 1 20.334 1 29.001c0 14 -1.33301 25.333 -4 34c-4.66699 14 -16.167 21.167 -34.5 21.5
s-31.333 -6.83398 -39 -21.501s-12.834 -35.667 -15.501 -63l-23 -224c-0.666992 -12.667 -1.33398 -24.334 -2.00098 -35.001v-7c0 -12.667 3.16699 -22.834 9.5 -30.501s15.833 -11.5 28.5 -11.5zM207.5 -9.99609c-62.333 0 -108.167 16.998 -137.5 50.998
c-24 28 -36 65.333 -36 112c0 11.333 0.666992 23 2 35l21 203c6.66699 63.333 28.167 111.833 64.5 145.5s85.833 50.5 148.5 50.5s109 -16.667 139 -50c24 -27.333 36 -64.666 36 -111.999c0 -10.667 -0.666992 -22 -2 -34l-21 -203
c-6.66699 -63.333 -28.5 -112.166 -65.5 -146.499s-86.667 -51.5 -149 -51.5z" />
    <glyph glyph-name="Ohungarumlaut" unicode="&#x150;" horiz-adv-x="572" 
d="M234 879l74 203h120l-119 -203h-75zM397 879l84 203h133l-140 -203h-77zM272 106c15.333 0 28.666 3 39.999 9s20 14.5 26 25.5s10.333 22.333 13 34s5 26.167 7 43.5l39 376c0.666992 13.333 1.33398 26 2.00098 38c0 6 -0.333008 11.667 -1 17
c-0.666992 16 -6.16699 29 -16.5 39s-25.833 15 -46.5 15c-15.333 0 -28.333 -2.66699 -39 -8s-19 -13.5 -25 -24.5s-10.333 -22.167 -13 -33.5s-5 -25.666 -7 -42.999l-40 -376c-1.33301 -14.667 -2 -28.334 -2 -41.001c0 -5.33301 0.333008 -10.333 1 -15
c0.666992 -16 6 -29.333 16 -40s25.333 -16 46 -16zM260 -11c-43.333 0 -79.8311 6 -109.498 18s-52.5 29.833 -68.5 53.5s-26.333 51.5 -31 83.5c-2.66699 16.667 -4 34.667 -4 54c0 18 1 37.333 3 58l32 300c9.33301 87.333 34.666 153.166 75.999 197.499
s104.666 66.5 189.999 66.5c43.333 0 79.833 -5.83301 109.5 -17.5s52.5 -29.167 68.5 -52.5c15.333 -23.333 26 -51 32 -83c2.66699 -16.667 4 -34.667 4 -54c0 -18 -1 -37 -3 -57l-32 -300c-9.33301 -87.333 -35 -153.666 -77 -198.999s-105.333 -68 -190 -68z" />
    <glyph glyph-name="ohungarumlaut" unicode="&#x151;" horiz-adv-x="466" 
d="M158 647l74 203h120l-119 -203h-75zM321 647l84 203h133l-140 -203h-77zM218 93c18.667 0 31.834 7.16992 39.501 21.5029s12.834 35.166 15.501 62.499l24 224c0.666992 10.667 1 20.334 1 29.001c0 14 -1.33301 25.333 -4 34c-4.66699 14 -16.167 21.167 -34.5 21.5
s-31.333 -6.83398 -39 -21.501s-12.834 -35.667 -15.501 -63l-23 -224c-0.666992 -12.667 -1.33398 -24.334 -2.00098 -35.001v-7c0 -12.667 3.16699 -22.834 9.5 -30.501s15.833 -11.5 28.5 -11.5zM207.5 -9.99707c-62.333 0 -108.167 16.998 -137.5 50.998
c-24 28 -36 65.333 -36 112c0 11.333 0.666992 23 2 35l21 203c6.66699 63.333 28.167 111.833 64.5 145.5s85.833 50.5 148.5 50.5s109 -16.667 139 -50c24 -27.333 36 -64.666 36 -111.999c0 -10.667 -0.666992 -22 -2 -34l-21 -203
c-6.66699 -63.333 -28.5 -112.166 -65.5 -146.499s-86.667 -51.5 -149 -51.5z" />
    <glyph glyph-name="OE" unicode="&#x152;" horiz-adv-x="710" 
d="M270 0c-45.333 0 -83.499 6.00098 -114.499 18.001s-54.5 29.667 -70.5 53s-26.667 51.333 -32 84c-2.66699 16.667 -4.33398 35 -5.00098 55c0 18 1.33301 37.667 4 59l27 257c4.66699 43.333 13 81.833 25 115.5s28.5 63.167 49.5 88.5s48 44.666 81 57.999
s71.5 20 115.5 20h394l-12 -112h-177l-23 -221h135l-11 -114h-136l-26 -250h178l-11 -111h-391zM283.001 113.001l49.002 0.00195312l62 580h-51c-12 0 -22.5 -1.33301 -31.5 -4s-16.833 -6.33398 -23.5 -11.001s-12.334 -11.167 -17.001 -19.5s-8.5 -16 -11.5 -23
s-5.66699 -16.667 -8 -29s-4 -22.833 -5 -31.5s-2.5 -20.334 -4.5 -35.001l-30 -289c-2 -18 -3.33301 -34.667 -4 -50v-6c0 -16.667 2 -31 6 -43s11.667 -21.5 23 -28.5s26.666 -10.5 45.999 -10.5z" />
    <glyph glyph-name="oe" unicode="&#x153;" horiz-adv-x="703" 
d="M193 -11c-54.667 0 -95.333 16.6699 -122 50.0029c-21.333 26.667 -31.666 62.334 -30.999 107.001c0 11.333 0.666992 23.666 2 36.999l23 227c6 60.667 26.167 107 60.5 139s80.5 48 138.5 48c28.667 0 54.5 -6.33301 77.5 -19s38.167 -30 45.5 -52
c12 22 31 39.333 57 52s53 19 81 19c32.667 0 60 -5.16699 82 -15.5s38.333 -25.166 49 -44.499c10.667 -18.667 17.667 -41.334 21 -68.001c1.33301 -12 2 -24.667 2 -38c0 -16 -1.33301 -33.333 -4 -52l-10 -98h-224l-8 -77
c-0.666992 -9.33301 -1.33398 -16.833 -2.00098 -22.5s-1.16699 -13 -1.5 -22s-0.333008 -16.333 0 -22s1.33301 -11.834 3 -18.501s3.66699 -11.834 6 -15.501s5.5 -7 9.5 -10s8.66699 -4.5 14 -4.5h3c14 0 24.333 5 31 15c7.33301 10.667 12 27.667 14 51l7 64h142l-7 -63
c-5.33301 -55.333 -24.333 -97.333 -57 -126c-31.333 -28 -74.333 -42 -129 -42h-5c-32.667 0.666992 -59.834 7.16699 -81.501 19.5s-36.5 29.166 -44.5 50.499c-29.333 -46 -76.666 -69 -141.999 -69zM221.001 89.0029c17.333 0 30.1689 7.33301 38.502 22
s14.166 37.667 17.499 69l25 235c0.666992 9.33301 1 18 1 26c0 14.667 -1.66699 26.667 -5 36c-4.66699 14 -15.5 21 -32.5 21s-29.333 -7 -37 -21s-12.834 -34.667 -15.501 -62l-25 -235c-1.33301 -14 -2 -26.667 -2 -38v-7c0 -14 2.83301 -25.167 8.5 -33.5
s14.5 -12.5 26.5 -12.5zM449.004 359.003h84l6 57c0.666992 8 1 15.333 1 22c0 14 -1.66699 26.333 -5 37c-5.33301 15.333 -15.333 23 -30 23s-26 -7.66699 -34 -23s-13.333 -35 -16 -59z" />
    <glyph glyph-name="Racute" unicode="&#x154;" horiz-adv-x="568" 
d="M324 879l81 201h151l-144 -201h-88zM36 0l85.0029 810.001h201c34 0 64 -2.16699 90 -6.5s49.5 -11.5 70.5 -21.5s37.833 -23 50.5 -39c13.333 -16 22.666 -36.333 27.999 -61c3.33301 -14.667 4.66602 -31.334 3.99902 -50.001c0 -12 -0.666992 -24.333 -2 -37
c-5.33301 -50.667 -17.833 -92.5 -37.5 -125.5s-48.834 -57.5 -87.501 -73.5l79 -396h-161l-62 366h-58l-39 -366h-161zM246.003 465.001h39.9971c40.667 0 70.334 9.33301 89.001 28s30.334 48.667 35.001 90c0.666992 10 1.33398 19.667 2.00098 29
c0 26.667 -5 46.667 -15 60c-13.333 18 -39 27.333 -77 28h-49z" />
    <glyph glyph-name="racute" unicode="&#x155;" horiz-adv-x="357" 
d="M198 647l81 201h151l-144 -201h-88zM29 0l60.998 578h148l-9 -92c42.667 66 85.667 99 129 99c6 0 13.333 -0.666992 22 -2l-15 -140c-11.333 4 -23 6 -35 6h-2c-21.333 -0.666992 -40.666 -6 -57.999 -16s-34.666 -26 -51.999 -48l-40 -385h-149z" />
    <glyph glyph-name="Rcommaaccent" unicode="&#x156;" horiz-adv-x="568" 
d="M198 -329l-12.001 56c22 2 39.167 8.5 51.5 19.5s19.833 28.833 22.5 53.5h-76l15 141h142l-13 -125c-5.33301 -47.333 -18.166 -83.333 -38.499 -108s-50.833 -37 -91.5 -37zM35.999 0l85.0029 810.001h201c34 0 64 -2.16699 90 -6.5s49.5 -11.5 70.5 -21.5
s37.833 -23 50.5 -39c13.333 -16 22.666 -36.333 27.999 -61c3.33301 -14.667 4.66602 -31.334 3.99902 -50.001c0 -12 -0.666992 -24.333 -2 -37c-5.33301 -50.667 -17.833 -92.5 -37.5 -125.5s-48.834 -57.5 -87.501 -73.5l79 -396h-161l-62 366h-58l-39 -366h-161z
M246.002 465.001h39.9971c40.667 0 70.334 9.33301 89.001 28s30.334 48.667 35.001 90c0.666992 10 1.33398 19.667 2.00098 29c0 26.667 -5 46.667 -15 60c-13.333 18 -39 27.333 -77 28h-49z" />
    <glyph glyph-name="rcommaaccent" unicode="&#x157;" horiz-adv-x="357" 
d="M96 -329l-12.001 56c22 2 39.167 8.5 51.5 19.5s19.833 28.833 22.5 53.5h-76l15 141h142l-13 -125c-5.33301 -47.333 -18.166 -83.333 -38.499 -108s-50.833 -37 -91.5 -37zM28.999 0l60.998 578h148l-9 -92c42.667 66 85.667 99 129 99c6 0 13.333 -0.666992 22 -2
l-15 -140c-11.333 4 -23 6 -35 6h-2c-21.333 -0.666992 -40.666 -6 -57.999 -16s-34.666 -26 -51.999 -48l-40 -385h-149z" />
    <glyph glyph-name="Rcaron" unicode="&#x158;" horiz-adv-x="568" 
d="M295 879l-68 182h107l40 -111l65 111h107l-107 -182h-144zM36 0l85.0029 810.001h201c34 0 64 -2.16699 90 -6.5s49.5 -11.5 70.5 -21.5s37.833 -23 50.5 -39c13.333 -16 22.666 -36.333 27.999 -61c3.33301 -14.667 4.66602 -31.334 3.99902 -50.001
c0 -12 -0.666992 -24.333 -2 -37c-5.33301 -50.667 -17.833 -92.5 -37.5 -125.5s-48.834 -57.5 -87.501 -73.5l79 -396h-161l-62 366h-58l-39 -366h-161zM246.003 465.001h39.9971c40.667 0 70.334 9.33301 89.001 28s30.334 48.667 35.001 90
c0.666992 10 1.33398 19.667 2.00098 29c0 26.667 -5 46.667 -15 60c-13.333 18 -39 27.333 -77 28h-49z" />
    <glyph glyph-name="rcaron" unicode="&#x159;" horiz-adv-x="357" 
d="M169 647l-68 182h107l40 -111l65 111h107l-107 -182h-144zM29 0l60.998 578h148l-9 -92c42.667 66 85.667 99 129 99c6 0 13.333 -0.666992 22 -2l-15 -140c-11.333 4 -23 6 -35 6h-2c-21.333 -0.666992 -40.666 -6 -57.999 -16s-34.666 -26 -51.999 -48l-40 -385h-149z
" />
    <glyph glyph-name="Sacute" unicode="&#x15a;" horiz-adv-x="500" 
d="M281 879l81 201h151l-144 -201h-88zM242 -11c-74.667 0 -128.333 21.002 -161 63.002c-28 35.333 -42 86 -42 152c0 12 0.666992 24.333 2 37l142 26c-1.33301 -14.667 -2 -28.334 -2 -41.001c0 -75.333 22.667 -113 68 -113c20 0 35.167 6.33301 45.5 19
s16.5 29 18.5 49c0.666992 6 1 12 1 18c0 15.333 -2 29.666 -6 42.999c-6 18 -14 33.333 -24 46s-24.333 27.667 -43 45l-82 79c-30 28.667 -51.667 58 -65 88c-10 22 -15 48.667 -15 80c0 11.333 0.666992 23 2 35c6.66699 65.333 31.167 115.666 73.5 150.999
s96.833 53.333 163.5 54h4c30 0 55.667 -4.33301 77 -13c22.667 -8.66699 40.5 -20 53.5 -34s23.167 -31.167 30.5 -51.5s12 -40.166 14 -59.499c1.33301 -12.667 2 -26.334 2 -41.001c0 -8 -0.333008 -16.333 -1 -25l-142 -23c0.666992 16.667 1.33398 32 2.00098 46
c0 6.66699 -0.333008 13.334 -1 20.001c-0.666992 18.667 -5.33398 34 -14.001 46c-8 10.667 -20 15.667 -36 15h-5c-19.333 -0.666992 -34.833 -7.66699 -46.5 -21s-18.5 -29.666 -20.5 -48.999c-0.666992 -4.66699 -1 -9.33398 -1 -14.001c0 -13.333 2.33301 -26 7 -38
c5.33301 -16 11.666 -28.5 18.999 -37.5s18 -20.5 32 -34.5l81 -77c16.667 -16 30.834 -31.833 42.501 -47.5s22.5 -33.167 32.5 -52.5s17 -40.666 21 -63.999c2 -13.333 3 -27 3 -41c0 -10.667 -0.666992 -22 -2 -34c-6 -58.667 -30 -106.834 -72 -144.501
s-94 -56.5 -156 -56.5z" />
    <glyph glyph-name="sacute" unicode="&#x15b;" horiz-adv-x="408" 
d="M204 647l81 201h151l-144 -201h-88zM185 -10c-96 0 -153.995 50.332 -173.995 150.999l112 43c6 -29.333 15 -52 27 -68c11.333 -14.667 25.666 -22.334 42.999 -23.001h3c12.667 0.666992 23.667 5.33398 33 14.001c10 9.33301 14.667 20.666 14 33.999
c0 18 -19 45 -57 81l-58 53c-49.333 46 -73.666 92.667 -72.999 140c0 6 0.333008 11.667 1 17c5.33301 46 25.666 83.333 60.999 112s77 43 125 43c46 0 82.5 -13.167 109.5 -39.5s43.167 -62.833 48.5 -109.5l-101 -43c-3.33301 24.667 -10 45.167 -20 61.5
s-23.333 24.833 -40 25.5h-2c-13.333 0 -24 -3.66699 -32 -11c-9.33301 -8 -14.333 -17.667 -15 -29c-0.666992 -7.33301 1.66602 -15.833 6.99902 -25.5s11.5 -18.167 18.5 -25.5s16.5 -16.666 28.5 -27.999l57 -57l25.5 -25.5
c6.33301 -6.33301 13.666 -15.166 21.999 -26.499s14.666 -22 18.999 -32s7.83301 -21.667 10.5 -35c1.33301 -8 2 -16.333 2 -25c0 -5.33301 -0.333008 -10.666 -1 -15.999c-5.33301 -48.667 -26.333 -86.834 -63 -114.501s-80.334 -41.5 -131.001 -41.5z" />
    <glyph glyph-name="Scircumflex" unicode="&#x15c;" horiz-adv-x="500" 
d="M168 879l111 186h128l75 -186h-109l-36 118l-60 -118h-109zM242 -11c-74.667 0 -128.333 21.002 -161 63.002c-28 35.333 -42 86 -42 152c0 12 0.666992 24.333 2 37l142 26c-1.33301 -14.667 -2 -28.334 -2 -41.001c0 -75.333 22.667 -113 68 -113
c20 0 35.167 6.33301 45.5 19s16.5 29 18.5 49c0.666992 6 1 12 1 18c0 15.333 -2 29.666 -6 42.999c-6 18 -14 33.333 -24 46s-24.333 27.667 -43 45l-82 79c-30 28.667 -51.667 58 -65 88c-10 22 -15 48.667 -15 80c0 11.333 0.666992 23 2 35
c6.66699 65.333 31.167 115.666 73.5 150.999s96.833 53.333 163.5 54h4c30 0 55.667 -4.33301 77 -13c22.667 -8.66699 40.5 -20 53.5 -34s23.167 -31.167 30.5 -51.5s12 -40.166 14 -59.499c1.33301 -12.667 2 -26.334 2 -41.001c0 -8 -0.333008 -16.333 -1 -25l-142 -23
c0.666992 16.667 1.33398 32 2.00098 46c0 6.66699 -0.333008 13.334 -1 20.001c-0.666992 18.667 -5.33398 34 -14.001 46c-8 10.667 -20 15.667 -36 15h-5c-19.333 -0.666992 -34.833 -7.66699 -46.5 -21s-18.5 -29.666 -20.5 -48.999
c-0.666992 -4.66699 -1 -9.33398 -1 -14.001c0 -13.333 2.33301 -26 7 -38c5.33301 -16 11.666 -28.5 18.999 -37.5s18 -20.5 32 -34.5l81 -77c16.667 -16 30.834 -31.833 42.501 -47.5s22.5 -33.167 32.5 -52.5s17 -40.666 21 -63.999c2 -13.333 3 -27 3 -41
c0 -10.667 -0.666992 -22 -2 -34c-6 -58.667 -30 -106.834 -72 -144.501s-94 -56.5 -156 -56.5z" />
    <glyph glyph-name="scircumflex" unicode="&#x15d;" horiz-adv-x="408" 
d="M91 647l111 186h128l75 -186h-109l-36 118l-60 -118h-109zM185 -10c-96 0 -153.995 50.332 -173.995 150.999l112 43c6 -29.333 15 -52 27 -68c11.333 -14.667 25.666 -22.334 42.999 -23.001h3c12.667 0.666992 23.667 5.33398 33 14.001
c10 9.33301 14.667 20.666 14 33.999c0 18 -19 45 -57 81l-58 53c-49.333 46 -73.666 92.667 -72.999 140c0 6 0.333008 11.667 1 17c5.33301 46 25.666 83.333 60.999 112s77 43 125 43c46 0 82.5 -13.167 109.5 -39.5s43.167 -62.833 48.5 -109.5l-101 -43
c-3.33301 24.667 -10 45.167 -20 61.5s-23.333 24.833 -40 25.5h-2c-13.333 0 -24 -3.66699 -32 -11c-9.33301 -8 -14.333 -17.667 -15 -29c-0.666992 -7.33301 1.66602 -15.833 6.99902 -25.5s11.5 -18.167 18.5 -25.5s16.5 -16.666 28.5 -27.999l57 -57l25.5 -25.5
c6.33301 -6.33301 13.666 -15.166 21.999 -26.499s14.666 -22 18.999 -32s7.83301 -21.667 10.5 -35c1.33301 -8 2 -16.333 2 -25c0 -5.33301 -0.333008 -10.666 -1 -15.999c-5.33301 -48.667 -26.333 -86.834 -63 -114.501s-80.334 -41.5 -131.001 -41.5z" />
    <glyph glyph-name="Scedilla" unicode="&#x15e;" horiz-adv-x="500" 
d="M165 -255l7 67c10 -2.66699 21.667 -5 35 -7c7.33301 -0.666992 14.666 -1 21.999 -1c5.33301 0 11 0.333008 17 1c12.667 0.666992 23.5 3.5 32.5 8.5s13.833 11.833 14.5 20.5c0.666992 8 -0.5 15.167 -3.5 21.5s-7.16699 11.5 -12.5 15.5s-12 7.5 -20 10.5
s-15.667 5.33301 -23 7s-15.666 3.16699 -24.999 4.5l11 107h60l-6 -63c36 -2 65.333 -12 88 -30c21.333 -15.333 32 -35.333 32 -60v-7c-2 -24 -10.5 -44.5 -25.5 -61.5s-33.5 -28.833 -55.5 -35.5c-21.333 -6.66699 -45 -10 -71 -10h-2c-26 0 -51 4 -75 12zM242 -11
c-74.667 0 -128.333 21.002 -161 63.002c-28 35.333 -42 86 -42 152c0 12 0.666992 24.333 2 37l142 26c-1.33301 -14.667 -2 -28.334 -2 -41.001c0 -75.333 22.667 -113 68 -113c20 0 35.167 6.33301 45.5 19s16.5 29 18.5 49c0.666992 6 1 12 1 18
c0 15.333 -2 29.666 -6 42.999c-6 18 -14 33.333 -24 46s-24.333 27.667 -43 45l-82 79c-30 28.667 -51.667 58 -65 88c-10 22 -15 48.667 -15 80c0 11.333 0.666992 23 2 35c6.66699 65.333 31.167 115.666 73.5 150.999s96.833 53.333 163.5 54h4
c30 0 55.667 -4.33301 77 -13c22.667 -8.66699 40.5 -20 53.5 -34s23.167 -31.167 30.5 -51.5s12 -40.166 14 -59.499c1.33301 -12.667 2 -26.334 2 -41.001c0 -8 -0.333008 -16.333 -1 -25l-142 -23c0.666992 16.667 1.33398 32 2.00098 46
c0 6.66699 -0.333008 13.334 -1 20.001c-0.666992 18.667 -5.33398 34 -14.001 46c-8 10.667 -20 15.667 -36 15h-5c-19.333 -0.666992 -34.833 -7.66699 -46.5 -21s-18.5 -29.666 -20.5 -48.999c-0.666992 -4.66699 -1 -9.33398 -1 -14.001c0 -13.333 2.33301 -26 7 -38
c5.33301 -16 11.666 -28.5 18.999 -37.5s18 -20.5 32 -34.5l81 -77c16.667 -16 30.834 -31.833 42.501 -47.5s22.5 -33.167 32.5 -52.5s17 -40.666 21 -63.999c2 -13.333 3 -27 3 -41c0 -10.667 -0.666992 -22 -2 -34c-6 -58.667 -30 -106.834 -72 -144.501
s-94 -56.5 -156 -56.5z" />
    <glyph glyph-name="scedilla" unicode="&#x15f;" horiz-adv-x="408" 
d="M116 -255l7 67c10 -2.66699 21.667 -5 35 -7c7.33301 -0.666992 14.666 -1 21.999 -1c5.33301 0 11 0.333008 17 1c12.667 0.666992 23.5 3.5 32.5 8.5s13.833 11.833 14.5 20.5c0.666992 8 -0.5 15.167 -3.5 21.5s-7.16699 11.5 -12.5 15.5s-12 7.5 -20 10.5
s-15.667 5.33301 -23 7s-15.666 3.16699 -24.999 4.5l11 107h60l-6 -63c36 -2 65.333 -12 88 -30c21.333 -15.333 32 -35.333 32 -60v-7c-2 -24 -10.5 -44.5 -25.5 -61.5s-33.5 -28.833 -55.5 -35.5c-21.333 -6.66699 -45 -10 -71 -10h-2c-26 0 -51 4 -75 12zM185 -10
c-96 0 -153.995 50.332 -173.995 150.999l112 43c6 -29.333 15 -52 27 -68c11.333 -14.667 25.666 -22.334 42.999 -23.001h3c12.667 0.666992 23.667 5.33398 33 14.001c10 9.33301 14.667 20.666 14 33.999c0 18 -19 45 -57 81l-58 53
c-49.333 46 -73.666 92.667 -72.999 140c0 6 0.333008 11.667 1 17c5.33301 46 25.666 83.333 60.999 112s77 43 125 43c46 0 82.5 -13.167 109.5 -39.5s43.167 -62.833 48.5 -109.5l-101 -43c-3.33301 24.667 -10 45.167 -20 61.5s-23.333 24.833 -40 25.5h-2
c-13.333 0 -24 -3.66699 -32 -11c-9.33301 -8 -14.333 -17.667 -15 -29c-0.666992 -7.33301 1.66602 -15.833 6.99902 -25.5s11.5 -18.167 18.5 -25.5s16.5 -16.666 28.5 -27.999l57 -57l25.5 -25.5c6.33301 -6.33301 13.666 -15.166 21.999 -26.499s14.666 -22 18.999 -32
s7.83301 -21.667 10.5 -35c1.33301 -8 2 -16.333 2 -25c0 -5.33301 -0.333008 -10.666 -1 -15.999c-5.33301 -48.667 -26.333 -86.834 -63 -114.501s-80.334 -41.5 -131.001 -41.5z" />
    <glyph glyph-name="Scaron" unicode="&#x160;" horiz-adv-x="500" 
d="M252 879l-68 182h107l40 -111l65 111h107l-107 -182h-144zM242 -11c-74.667 0 -128.333 21.002 -161 63.002c-28 35.333 -42 86 -42 152c0 12 0.666992 24.333 2 37l142 26c-1.33301 -14.667 -2 -28.334 -2 -41.001c0 -75.333 22.667 -113 68 -113
c20 0 35.167 6.33301 45.5 19s16.5 29 18.5 49c0.666992 6 1 12 1 18c0 15.333 -2 29.666 -6 42.999c-6 18 -14 33.333 -24 46s-24.333 27.667 -43 45l-82 79c-30 28.667 -51.667 58 -65 88c-10 22 -15 48.667 -15 80c0 11.333 0.666992 23 2 35
c6.66699 65.333 31.167 115.666 73.5 150.999s96.833 53.333 163.5 54h4c30 0 55.667 -4.33301 77 -13c22.667 -8.66699 40.5 -20 53.5 -34s23.167 -31.167 30.5 -51.5s12 -40.166 14 -59.499c1.33301 -12.667 2 -26.334 2 -41.001c0 -8 -0.333008 -16.333 -1 -25l-142 -23
c0.666992 16.667 1.33398 32 2.00098 46c0 6.66699 -0.333008 13.334 -1 20.001c-0.666992 18.667 -5.33398 34 -14.001 46c-8 10.667 -20 15.667 -36 15h-5c-19.333 -0.666992 -34.833 -7.66699 -46.5 -21s-18.5 -29.666 -20.5 -48.999
c-0.666992 -4.66699 -1 -9.33398 -1 -14.001c0 -13.333 2.33301 -26 7 -38c5.33301 -16 11.666 -28.5 18.999 -37.5s18 -20.5 32 -34.5l81 -77c16.667 -16 30.834 -31.833 42.501 -47.5s22.5 -33.167 32.5 -52.5s17 -40.666 21 -63.999c2 -13.333 3 -27 3 -41
c0 -10.667 -0.666992 -22 -2 -34c-6 -58.667 -30 -106.834 -72 -144.501s-94 -56.5 -156 -56.5z" />
    <glyph glyph-name="scaron" unicode="&#x161;" horiz-adv-x="408" 
d="M175 647l-68 182h107l40 -111l65 111h107l-107 -182h-144zM185 -10c-96 0 -153.995 50.332 -173.995 150.999l112 43c6 -29.333 15 -52 27 -68c11.333 -14.667 25.666 -22.334 42.999 -23.001h3c12.667 0.666992 23.667 5.33398 33 14.001
c10 9.33301 14.667 20.666 14 33.999c0 18 -19 45 -57 81l-58 53c-49.333 46 -73.666 92.667 -72.999 140c0 6 0.333008 11.667 1 17c5.33301 46 25.666 83.333 60.999 112s77 43 125 43c46 0 82.5 -13.167 109.5 -39.5s43.167 -62.833 48.5 -109.5l-101 -43
c-3.33301 24.667 -10 45.167 -20 61.5s-23.333 24.833 -40 25.5h-2c-13.333 0 -24 -3.66699 -32 -11c-9.33301 -8 -14.333 -17.667 -15 -29c-0.666992 -7.33301 1.66602 -15.833 6.99902 -25.5s11.5 -18.167 18.5 -25.5s16.5 -16.666 28.5 -27.999l57 -57l25.5 -25.5
c6.33301 -6.33301 13.666 -15.166 21.999 -26.499s14.666 -22 18.999 -32s7.83301 -21.667 10.5 -35c1.33301 -8 2 -16.333 2 -25c0 -5.33301 -0.333008 -10.666 -1 -15.999c-5.33301 -48.667 -26.333 -86.834 -63 -114.501s-80.334 -41.5 -131.001 -41.5z" />
    <glyph glyph-name="Tcommaaccent" unicode="&#x162;" horiz-adv-x="433" 
d="M121 -255l7 67c10 -2.66699 21.667 -5 35 -7c7.33301 -0.666992 14.666 -1 21.999 -1c5.33301 0 11 0.333008 17 1c12.667 0.666992 23.5 3.5 32.5 8.5s13.833 11.833 14.5 20.5c0.666992 8 -0.5 15.167 -3.5 21.5s-7.16699 11.5 -12.5 15.5s-12 7.5 -20 10.5
s-15.667 5.33301 -23 7s-15.666 3.16699 -24.999 4.5l11 107h60l-6 -63c36 -2 65.333 -12 88 -30c21.333 -15.333 32 -35.333 32 -60v-7c-2 -24 -10.5 -44.5 -25.5 -61.5s-33.5 -28.833 -55.5 -35.5c-21.333 -6.66699 -45 -10 -71 -10h-2c-26 0 -51 4 -75 12zM113 0l73 690
h-131l12 120h420l-12 -120h-128l-73 -690h-161z" />
    <glyph glyph-name="tcommaaccent" unicode="&#x163;" horiz-adv-x="341" 
d="M101 -255l7 67c10 -2.66699 21.667 -5 35 -7c7.33301 -0.666992 14.666 -1 21.999 -1c5.33301 0 11 0.333008 17 1c12.667 0.666992 23.5 3.5 32.5 8.5s13.833 11.833 14.5 20.5c0.666992 8 -0.5 15.167 -3.5 21.5s-7.16699 11.5 -12.5 15.5s-12 7.5 -20 10.5
s-15.667 5.33301 -23 7s-15.666 3.16699 -24.999 4.5l11 107h60l-6 -63c36 -2 65.333 -12 88 -30c21.333 -15.333 32 -35.333 32 -60v-7c-2 -24 -10.5 -44.5 -25.5 -61.5s-33.5 -28.833 -55.5 -35.5c-21.333 -6.66699 -45 -10 -71 -10h-2c-26 0 -51 4 -75 12zM189 -7
c-22.667 0.666992 -42.332 4.16895 -58.999 10.502s-29.334 15.166 -38.001 26.499s-15.5 24.833 -20.5 40.5s-7.5 32.667 -7.5 51s0.666992 38.166 2 59.499l32 299h-56l10 98h56l18 172h150l-18 -172h86l-11 -98h-85l-34 -317v-8c0 -28 15.667 -42.333 47 -43h3
c8.66699 0 22 1.33301 40 4l-12 -116c-34.667 -4.66699 -64.667 -7 -90 -7h-13z" />
    <glyph glyph-name="Tcaron" unicode="&#x164;" horiz-adv-x="433" 
d="M212 879l-68 182h107l40 -111l65 111h107l-107 -182h-144zM113 0l73 690h-131l12 120h420l-12 -120h-128l-73 -690h-161z" />
    <glyph glyph-name="tcaron" unicode="&#x165;" horiz-adv-x="499" 
d="M415 466l30 285h124l-79 -285h-75zM189 -7c-22.667 0.666992 -42.332 4.16895 -58.999 10.502s-29.334 15.166 -38.001 26.499s-15.5 24.833 -20.5 40.5s-7.5 32.667 -7.5 51s0.666992 38.166 2 59.499l32 299h-56l10 98h56l18 172h150l-18 -172h86l-11 -98h-85l-34 -317
v-8c0 -28 15.667 -42.333 47 -43h3c8.66699 0 22 1.33301 40 4l-12 -116c-34.667 -4.66699 -64.667 -7 -90 -7h-13z" />
    <glyph glyph-name="Tbar" unicode="&#x166;" horiz-adv-x="433" 
d="M58 375l8 81h95l25 234h-131l12 120h420l-12 -120h-128l-25 -234h92l-9 -81h-91l-40 -375h-161l39 375h-94z" />
    <glyph glyph-name="tbar" unicode="&#x167;" horiz-adv-x="347" 
d="M194 -7c-22.667 0.666992 -42.167 4.16992 -58.5 10.5029s-29 15.166 -38 26.499s-16 24.833 -21 40.5s-7.5 32.667 -7.5 51s1 38.166 3 59.499l14 133h-44l7 67h44l11 99h-56l10 98h56l18 172h150l-19 -172h86l-10 -98h-86l-10 -99h100l-7 -67h-100l-16 -151
c0 -2.66699 -0.333008 -5.33398 -1 -8.00098c0 -28 16 -42.333 48 -43h3c8.66699 0 22 1.33301 40 4l-13 -116c-34.667 -4.66699 -64.667 -7 -90 -7h-13z" />
    <glyph glyph-name="Utilde" unicode="&#x168;" horiz-adv-x="574" 
d="M440 879h-4.00098c-13.333 0 -28 4 -44 12c-18 8 -35.167 16 -51.5 24s-29.166 12 -38.499 12c-17.333 0 -27.333 -13.333 -30 -40h-74c4 41.333 13.5 73.333 28.5 96s38.5 34.667 70.5 36h5c14.667 0 30 -3 46 -9c17.333 -7.33301 33.166 -15 47.499 -23
s24.5 -12.333 30.5 -13h4c14.667 0 23.334 13 26.001 39h70c-2 -18 -4.66699 -34.167 -8 -48.5s-8.16602 -28.166 -14.499 -41.499s-14.833 -23.833 -25.5 -31.5s-23.334 -11.834 -38.001 -12.501zM261.999 -11c-45.333 0 -82.834 6.16797 -112.501 18.501
s-51.667 30.333 -66 54s-23.5 52.5 -27.5 86.5c-2 15.333 -3 31.666 -3 48.999c0 21.333 1.66699 43.666 5 66.999l57 546h158l-59 -566c-1.33301 -13.333 -2.33301 -24.666 -3 -33.999v-15v-16c0.666992 -11.333 2.33398 -20.833 5.00098 -28.5
s6.16699 -14.834 10.5 -21.501s10.666 -11.667 18.999 -15s17.833 -5 28.5 -5c13.333 0 25 2.66699 35 8s18 11.833 24 19.5s11 17.834 15 30.501s7 24.667 9 36s4 25 6 41l59 566h159l-58 -546c-4 -36 -9.5 -67.833 -16.5 -95.5s-17 -53 -30 -76
s-29.167 -41.833 -48.5 -56.5s-42.666 -26.167 -69.999 -34.5s-59.333 -12.5 -96 -12.5z" />
    <glyph glyph-name="utilde" unicode="&#x169;" horiz-adv-x="485" 
d="M369 647h-4.00098c-13.333 0 -28 4 -44 12c-18 8 -35.167 16 -51.5 24s-29.166 12 -38.499 12c-17.333 0 -27.333 -13.333 -30 -40h-74c4 41.333 13.5 73.333 28.5 96s38.5 34.667 70.5 36h5c14.667 0 30 -3 46 -9c17.333 -7.33301 33.166 -15 47.499 -23
s24.5 -12.333 30.5 -13h4c14.667 0 23.334 13 26.001 39h70c-2 -18 -4.66699 -34.167 -8 -48.5s-8.16602 -28.166 -14.499 -41.499s-14.833 -23.833 -25.5 -31.5s-23.334 -11.834 -38.001 -12.501zM121.999 -9c-33.333 0 -57 12.002 -71 36.002
c-11.333 19.333 -17 42.666 -17 69.999c0 7.33301 0.666992 15 2 23l47 458h149l-45 -434c-0.666992 -4.66699 -1 -9.33398 -1 -14.001c0 -10 1.33301 -17.667 4 -23c4 -8 12.667 -11.667 26 -11h2c14.667 0 33 7 55 21l48 461h149l-61 -578h-148l6 54
c-50 -42 -98.333 -63 -145 -63z" />
    <glyph glyph-name="Umacron" unicode="&#x16a;" horiz-adv-x="574" 
d="M230 879l7 75h250l-8 -75h-249zM262 -11c-45.333 0 -82.834 6.16797 -112.501 18.501s-51.667 30.333 -66 54s-23.5 52.5 -27.5 86.5c-2 15.333 -3 31.666 -3 48.999c0 21.333 1.66699 43.666 5 66.999l57 546h158l-59 -566
c-1.33301 -13.333 -2.33301 -24.666 -3 -33.999v-15v-16c0.666992 -11.333 2.33398 -20.833 5.00098 -28.5s6.16699 -14.834 10.5 -21.501s10.666 -11.667 18.999 -15s17.833 -5 28.5 -5c13.333 0 25 2.66699 35 8s18 11.833 24 19.5s11 17.834 15 30.501s7 24.667 9 36
s4 25 6 41l59 566h159l-58 -546c-4 -36 -9.5 -67.833 -16.5 -95.5s-17 -53 -30 -76s-29.167 -41.833 -48.5 -56.5s-42.666 -26.167 -69.999 -34.5s-59.333 -12.5 -96 -12.5z" />
    <glyph glyph-name="umacron" unicode="&#x16b;" horiz-adv-x="485" 
d="M159 647l7 75h250l-8 -75h-249zM122 -9c-33.333 0 -57 12.002 -71 36.002c-11.333 19.333 -17 42.666 -17 69.999c0 7.33301 0.666992 15 2 23l47 458h149l-45 -434c-0.666992 -4.66699 -1 -9.33398 -1 -14.001c0 -10 1.33301 -17.667 4 -23c4 -8 12.667 -11.667 26 -11
h2c14.667 0 33 7 55 21l48 461h149l-61 -578h-148l6 54c-50 -42 -98.333 -63 -145 -63z" />
    <glyph glyph-name="Ubreve" unicode="&#x16c;" horiz-adv-x="574" 
d="M354 879c-46.667 0 -81 12.001 -103 36.001c-18 20 -27 46.333 -27 79c0 6 0.333008 12.667 1 20h70c-0.666992 -4.66699 -1 -9.33398 -1 -14.001c0 -16.667 4.33301 -29.334 13 -38.001c10.667 -11.333 28.667 -17 54 -17s44.333 5.5 57 16.5s20 28.5 22 52.5h71
c-4 -41.333 -19.333 -74.166 -46 -98.499s-63.667 -36.5 -111 -36.5zM262 -10.999c-45.333 0 -82.834 6.16797 -112.501 18.501s-51.667 30.333 -66 54s-23.5 52.5 -27.5 86.5c-2 15.333 -3 31.666 -3 48.999c0 21.333 1.66699 43.666 5 66.999l57 546h158l-59 -566
c-1.33301 -13.333 -2.33301 -24.666 -3 -33.999v-15v-16c0.666992 -11.333 2.33398 -20.833 5.00098 -28.5s6.16699 -14.834 10.5 -21.501s10.666 -11.667 18.999 -15s17.833 -5 28.5 -5c13.333 0 25 2.66699 35 8s18 11.833 24 19.5s11 17.834 15 30.501s7 24.667 9 36
s4 25 6 41l59 566h159l-58 -546c-4 -36 -9.5 -67.833 -16.5 -95.5s-17 -53 -30 -76s-29.167 -41.833 -48.5 -56.5s-42.666 -26.167 -69.999 -34.5s-59.333 -12.5 -96 -12.5z" />
    <glyph glyph-name="ubreve" unicode="&#x16d;" horiz-adv-x="485" 
d="M284 647c-46.667 0 -81 12.001 -103 36.001c-18 20 -27 46.333 -27 79c0 6 0.333008 12.667 1 20h70c-0.666992 -4.66699 -1 -9.33398 -1 -14.001c0 -16.667 4.33301 -29.334 13 -38.001c10.667 -11.333 28.667 -17 54 -17s44.333 5.5 57 16.5s20 28.5 22 52.5h71
c-4 -41.333 -19.333 -74.166 -46 -98.499s-63.667 -36.5 -111 -36.5zM122 -8.99902c-33.333 0 -57 12.002 -71 36.002c-11.333 19.333 -17 42.666 -17 69.999c0 7.33301 0.666992 15 2 23l47 458h149l-45 -434c-0.666992 -4.66699 -1 -9.33398 -1 -14.001
c0 -10 1.33301 -17.667 4 -23c4 -8 12.667 -11.667 26 -11h2c14.667 0 33 7 55 21l48 461h149l-61 -578h-148l6 54c-50 -42 -98.333 -63 -145 -63z" />
    <glyph glyph-name="Uring" unicode="&#x16e;" horiz-adv-x="574" 
d="M361 937c16 0 29.167 5.16602 39.5 15.499s16.166 23.5 17.499 39.5c0 2.66699 0.333008 5.33398 1 8.00098c0 12.667 -3.33301 23 -10 31c-8 10.667 -20.333 15.667 -37 15c-16.667 0 -30.167 -5.16699 -40.5 -15.5s-16.166 -23.166 -17.499 -38.499
c0 -2.66699 -0.333008 -5.33398 -1 -8.00098c0 -12.667 3.66699 -23 11 -31c8 -10.667 20.333 -16 37 -16zM354 878.999c-34 0 -60.667 10.001 -80 30.001c-16.667 16.667 -25 38.667 -25 66c0 5.33301 0.333008 11 1 17c3.33301 34.667 17 62 41 82s53 30 87 30
s61 -10 81 -30c16.667 -16.667 25 -39.334 25 -68.001v-14c-4 -34.667 -18.167 -62.167 -42.5 -82.5s-53.5 -30.5 -87.5 -30.5zM262 -11c-45.333 0 -82.834 6.16797 -112.501 18.501s-51.667 30.333 -66 54s-23.5 52.5 -27.5 86.5c-2 15.333 -3 31.666 -3 48.999
c0 21.333 1.66699 43.666 5 66.999l57 546h158l-59 -566c-1.33301 -13.333 -2.33301 -24.666 -3 -33.999v-15v-16c0.666992 -11.333 2.33398 -20.833 5.00098 -28.5s6.16699 -14.834 10.5 -21.501s10.666 -11.667 18.999 -15s17.833 -5 28.5 -5c13.333 0 25 2.66699 35 8
s18 11.833 24 19.5s11 17.834 15 30.501s7 24.667 9 36s4 25 6 41l59 566h159l-58 -546c-4 -36 -9.5 -67.833 -16.5 -95.5s-17 -53 -30 -76s-29.167 -41.833 -48.5 -56.5s-42.666 -26.167 -69.999 -34.5s-59.333 -12.5 -96 -12.5z" />
    <glyph glyph-name="uring" unicode="&#x16f;" horiz-adv-x="485" 
d="M289 705c16 0 29.167 5.16602 39.5 15.499s16.166 23.5 17.499 39.5c0 2.66699 0.333008 5.33398 1 8.00098c0 12.667 -3.33301 23 -10 31c-8 10.667 -20.333 15.667 -37 15c-16.667 0 -30.167 -5.16699 -40.5 -15.5s-16.166 -23.166 -17.499 -38.499
c0 -2.66699 -0.333008 -5.33398 -1 -8.00098c0 -12.667 3.66699 -23 11 -31c8 -10.667 20.333 -16 37 -16zM282 646.999c-34 0 -60.667 10.001 -80 30.001c-16.667 16.667 -25 38.667 -25 66c0 5.33301 0.333008 11 1 17c3.33301 34.667 17 62 41 82s53 30 87 30
s61 -10 81 -30c16.667 -16.667 25 -39.334 25 -68.001v-14c-4 -34.667 -18.167 -62.167 -42.5 -82.5s-53.5 -30.5 -87.5 -30.5zM122 -9c-33.333 0 -57 12.002 -71 36.002c-11.333 19.333 -17 42.666 -17 69.999c0 7.33301 0.666992 15 2 23l47 458h149l-45 -434
c-0.666992 -4.66699 -1 -9.33398 -1 -14.001c0 -10 1.33301 -17.667 4 -23c4 -8 12.667 -11.667 26 -11h2c14.667 0 33 7 55 21l48 461h149l-61 -578h-148l6 54c-50 -42 -98.333 -63 -145 -63z" />
    <glyph glyph-name="Uhungarumlaut" unicode="&#x170;" horiz-adv-x="574" 
d="M235 879l74 203h120l-119 -203h-75zM398 879l84 203h133l-140 -203h-77zM262 -11c-45.333 0 -82.834 6.16797 -112.501 18.501s-51.667 30.333 -66 54s-23.5 52.5 -27.5 86.5c-2 15.333 -3 31.666 -3 48.999c0 21.333 1.66699 43.666 5 66.999l57 546h158l-59 -566
c-1.33301 -13.333 -2.33301 -24.666 -3 -33.999v-15v-16c0.666992 -11.333 2.33398 -20.833 5.00098 -28.5s6.16699 -14.834 10.5 -21.501s10.666 -11.667 18.999 -15s17.833 -5 28.5 -5c13.333 0 25 2.66699 35 8s18 11.833 24 19.5s11 17.834 15 30.501s7 24.667 9 36
s4 25 6 41l59 566h159l-58 -546c-4 -36 -9.5 -67.833 -16.5 -95.5s-17 -53 -30 -76s-29.167 -41.833 -48.5 -56.5s-42.666 -26.167 -69.999 -34.5s-59.333 -12.5 -96 -12.5z" />
    <glyph glyph-name="uhungarumlaut" unicode="&#x171;" horiz-adv-x="485" 
d="M164 647l74 203h120l-119 -203h-75zM327 647l84 203h133l-140 -203h-77zM122 -9c-33.333 0 -57 12.002 -71 36.002c-11.333 19.333 -17 42.666 -17 69.999c0 7.33301 0.666992 15 2 23l47 458h149l-45 -434c-0.666992 -4.66699 -1 -9.33398 -1 -14.001
c0 -10 1.33301 -17.667 4 -23c4 -8 12.667 -11.667 26 -11h2c14.667 0 33 7 55 21l48 461h149l-61 -578h-148l6 54c-50 -42 -98.333 -63 -145 -63z" />
    <glyph glyph-name="Uogonek" unicode="&#x172;" horiz-adv-x="574" 
d="M291 -245l-37.001 0.000976562c-1.33301 0 -2.66602 -0.333008 -3.99902 -1c-12 0 -23.667 1 -35 3c-12.667 1.33301 -24.334 3.16602 -35.001 5.49902s-20.5 6 -29.5 11s-16.5 11.167 -22.5 18.5c-6.66699 6.66699 -11.334 15.334 -14.001 26.001
c-2 7.33301 -3 15.666 -3 24.999c0 4 0.333008 8 1 12c2.66699 28 14.5 56.5 35.5 85.5s44.5 51.167 70.5 66.5h70c-4 -7.33301 -12.167 -20.333 -24.5 -39s-22.333 -35.834 -30 -51.501s-12.167 -30.5 -13.5 -44.5c-0.666992 -7.33301 -0.166992 -13.666 1.5 -18.999
s4.83398 -9.66602 9.50098 -12.999s9.33398 -5.83301 14.001 -7.5s11 -2.83398 19 -3.50098l18 -1.5c4 -0.333008 10.167 -0.333008 18.5 0s13.5 0.5 15.5 0.5zM261.999 -10.999c-45.333 0 -82.834 6.16797 -112.501 18.501s-51.667 30.333 -66 54s-23.5 52.5 -27.5 86.5
c-2 15.333 -3 31.666 -3 48.999c0 21.333 1.66699 43.666 5 66.999l57 546h158l-59 -566c-1.33301 -13.333 -2.33301 -24.666 -3 -33.999v-15v-16c0.666992 -11.333 2.33398 -20.833 5.00098 -28.5s6.16699 -14.834 10.5 -21.501s10.666 -11.667 18.999 -15
s17.833 -5 28.5 -5c13.333 0 25 2.66699 35 8s18 11.833 24 19.5s11 17.834 15 30.501s7 24.667 9 36s4 25 6 41l59 566h159l-58 -546c-4 -36 -9.5 -67.833 -16.5 -95.5s-17 -53 -30 -76s-29.167 -41.833 -48.5 -56.5s-42.666 -26.167 -69.999 -34.5
s-59.333 -12.5 -96 -12.5z" />
    <glyph glyph-name="uogonek" unicode="&#x173;" horiz-adv-x="485" 
d="M336 -245l-37.001 0.000976562c-1.33301 0 -2.66602 -0.333008 -3.99902 -1c-12 0 -23.667 1 -35 3c-12.667 1.33301 -24.334 3.16602 -35.001 5.49902s-20.5 6 -29.5 11s-16.5 11.167 -22.5 18.5c-6.66699 6.66699 -11.334 15.334 -14.001 26.001
c-2 7.33301 -3 15.666 -3 24.999c0 4 0.333008 8 1 12c2.66699 28 14.5 56.5 35.5 85.5s44.5 51.167 70.5 66.5h70c-4 -7.33301 -12.167 -20.333 -24.5 -39s-22.333 -35.834 -30 -51.501s-12.167 -30.5 -13.5 -44.5c-0.666992 -7.33301 -0.166992 -13.666 1.5 -18.999
s4.83398 -9.66602 9.50098 -12.999s9.33398 -5.83301 14.001 -7.5s11 -2.83398 19 -3.50098l18 -1.5c4 -0.333008 10.167 -0.333008 18.5 0s13.5 0.5 15.5 0.5zM121.999 -8.99902c-33.333 0 -57 12.002 -71 36.002c-11.333 19.333 -17 42.666 -17 69.999
c0 7.33301 0.666992 15 2 23l47 458h149l-45 -434c-0.666992 -4.66699 -1 -9.33398 -1 -14.001c0 -10 1.33301 -17.667 4 -23c4 -8 12.667 -11.667 26 -11h2c14.667 0 33 7 55 21l48 461h149l-61 -578h-148l6 54c-50 -42 -98.333 -63 -145 -63z" />
    <glyph glyph-name="Wcircumflex" unicode="&#x174;" horiz-adv-x="709" 
d="M265 879l111 186h128l75 -186h-109l-36 118l-60 -118h-109zM114 0l-23 810h137l5 -499l128 499h108l25 -498l111 498h134l-192 -810h-135l-27 517l-134 -517h-137z" />
    <glyph glyph-name="wcircumflex" unicode="&#x175;" horiz-adv-x="596" 
d="M184 647l111 186h128l75 -186h-109l-36 118l-60 -118h-109zM86 0l-26 578h123l9 -353l91 353h109l12 -358l88 358h117l-151 -578h-125l-22 345l-98 -345h-127z" />
    <glyph glyph-name="Ycircumflex" unicode="&#x176;" horiz-adv-x="490" 
d="M156 879l111 186h128l75 -186h-109l-36 118l-60 -118h-109zM145 0l33 318l-109 492h152l59 -293l115 293h148l-210 -492l-34 -318h-154z" />
    <glyph glyph-name="ycircumflex" unicode="&#x177;" horiz-adv-x="430" 
d="M99 647l111 186h128l75 -186h-109l-36 118l-60 -118h-109zM19 -161l10.999 104.999c38.667 0 65.334 4 80.001 12c13.333 7.33301 20 22 20 44v4c0 13.333 -3.66699 42.666 -11 87.999l-78 486h143l34 -359l96 359h144l-201 -609c-8 -24.667 -19.167 -45.667 -33.5 -63
s-31.166 -30.666 -50.499 -39.999s-39.833 -16.166 -61.5 -20.499s-45.834 -6.5 -72.501 -6.5h-20z" />
    <glyph glyph-name="Ydieresis" unicode="&#x178;" horiz-adv-x="490" 
d="M149 880l14 138h127l-15 -138h-126zM351 880l15 138h127l-15 -138h-127zM145 0l33 318l-109 492h152l59 -293l115 293h148l-210 -492l-34 -318h-154z" />
    <glyph glyph-name="Zacute" unicode="&#x179;" horiz-adv-x="428" 
d="M243 879l81 201h151l-144 -201h-88zM10 0l11 102l269 597h-197l11 111h360l-8 -85l-280 -614h216l-12 -111h-370z" />
    <glyph glyph-name="zacute" unicode="&#x17a;" horiz-adv-x="378" 
d="M193 647l81 201h151l-144 -201h-88zM9 0l11 97l202 372h-149l11 109h305l-10 -87l-202 -381h163l-11 -110h-320z" />
    <glyph glyph-name="Zdotaccent" unicode="&#x17b;" horiz-adv-x="428" 
d="M216 879l15 144h143l-15 -144h-143zM10 0l11 102l269 597h-197l11 111h360l-8 -85l-280 -614h216l-12 -111h-370z" />
    <glyph glyph-name="zdotaccent" unicode="&#x17c;" horiz-adv-x="378" 
d="M165 647l15 144h143l-15 -144h-143zM9 0l11 97l202 372h-149l11 109h305l-10 -87l-202 -381h163l-11 -110h-320z" />
    <glyph glyph-name="Zcaron" unicode="&#x17d;" horiz-adv-x="428" 
d="M215 879l-68 182h107l40 -111l65 111h107l-107 -182h-144zM10 0l11 102l269 597h-197l11 111h360l-8 -85l-280 -614h216l-12 -111h-370z" />
    <glyph glyph-name="zcaron" unicode="&#x17e;" horiz-adv-x="378" 
d="M164 647l-68 182h107l40 -111l65 111h107l-107 -182h-144zM9 0l11 97l202 372h-149l11 109h305l-10 -87l-202 -381h163l-11 -110h-320z" />
    <glyph glyph-name="florin" unicode="&#x192;" 
d="M49 -159c-19.333 0 -44.3311 2 -74.998 6l23 110c15.333 -3.33301 27 -5 35 -5c28 0 45.333 18 52 54l97 466h-58l10 106h70l8 39c4.66699 22.667 9.66699 42 15 58s12.666 31.5 21.999 46.5s20.333 27 33 36s28.667 16.167 48 21.5s42 8 68 8
c19.333 0 44.333 -1.66699 75 -5l-23 -111c-22.667 3.33301 -34.334 5 -35.001 5c-28 0 -45.667 -17.667 -53 -53l-9 -45h67l-11 -106h-78l-96 -460c-4.66699 -23.333 -9.66699 -42.833 -15 -58.5s-12.5 -31.167 -21.5 -46.5s-19.833 -27.5 -32.5 -36.5
s-28.667 -16.167 -48 -21.5s-42 -8 -68 -8z" />
    <glyph glyph-name="uni01C4" unicode="&#x1c4;" horiz-adv-x="995" 
d="M782 879l-68 182h107l40 -111l65 111h107l-107 -182h-144zM577 0l11 102l269 597h-197l11 111h360l-8 -85l-280 -614h216l-12 -111h-370zM209 113h36.0039c13.333 0 25 1 35 3s18.667 4.5 26 7.5s13.666 8 18.999 15s9.66602 13.5 12.999 19.5
s6.16602 14.833 8.49902 26.5s4.16602 21.834 5.49902 30.501s2.66602 21 3.99902 37l34 320c2 18 3 33.667 3 47c0 9.33301 -0.333008 17.666 -1 24.999c-2 18 -9.66699 31 -23 39s-34.666 12 -63.999 12h-34zM36.0039 0l84.998 809.999h195
c50.667 0 92.5 -4.83301 125.5 -14.5s58.5 -25.167 76.5 -46.5s29.667 -47.333 35 -78c2.66699 -16 4 -34 4 -54c0 -18.667 -1.33301 -39 -4 -61l-31 -292c-6.66699 -62.667 -19.667 -112.667 -39 -150s-49.166 -65.666 -89.499 -84.999s-93.166 -29 -158.499 -29h-199z" />
    <glyph glyph-name="uni01C5" unicode="&#x1c5;" horiz-adv-x="945" 
d="M731 647l-68 182h107l40 -111l65 111h107l-107 -182h-144zM576 0l11 97l202 372h-149l11 109h305l-10 -87l-202 -381h163l-11 -110h-320zM209 113h36.0039c13.333 0 25 1 35 3s18.667 4.5 26 7.5s13.666 8 18.999 15s9.66602 13.5 12.999 19.5
s6.16602 14.833 8.49902 26.5s4.16602 21.834 5.49902 30.501s2.66602 21 3.99902 37l34 320c2 18 3 33.667 3 47c0 9.33301 -0.333008 17.666 -1 24.999c-2 18 -9.66699 31 -23 39s-34.666 12 -63.999 12h-34zM36.0039 0l84.998 809.999h195
c50.667 0 92.5 -4.83301 125.5 -14.5s58.5 -25.167 76.5 -46.5s29.667 -47.333 35 -78c2.66699 -16 4 -34 4 -54c0 -18.667 -1.33301 -39 -4 -61l-31 -292c-6.66699 -62.667 -19.667 -112.667 -39 -150s-49.166 -65.666 -89.499 -84.999s-93.166 -29 -158.499 -29h-199z" />
    <glyph glyph-name="uni01C6" unicode="&#x1c6;" horiz-adv-x="865" 
d="M651 647l-68 182h107l40 -111l65 111h107l-107 -182h-144zM496 0l11 97l202 372h-149l11 109h305l-10 -87l-202 -381h163l-11 -110h-320zM155 -10c-80 0 -120.001 49.6689 -120.001 149.002c0 14.667 1 30.667 3 48l21 198c4 39.333 11.833 73.666 23.5 102.999
s29 53.166 52 71.499s50.5 27.5 82.5 27.5c38.667 0 72.667 -15 102 -45l28 268h149l-85 -810h-149l5 42c-37.333 -34.667 -74.666 -52 -111.999 -52zM223.999 91.002c14 0 30.334 4.99902 49.001 14.999l39 367c-14.667 10 -30 15 -46 15s-28.667 -7.16699 -38 -21.5
s-15.333 -32.5 -18 -54.5l-24 -236c-0.666992 -9.33301 -1.33398 -17.666 -2.00098 -24.999c0 -40 13.333 -60 40 -60z" />
    <glyph glyph-name="uni01C7" unicode="&#x1c7;" horiz-adv-x="763" 
d="M411 -19l12 113.999h6c37.333 0 63.333 5.66699 78 17c15.333 12.667 25 38 29 76l65 622h162l-65 -627c-4 -35.333 -10.333 -65 -19 -89s-21 -44.667 -37 -62s-36.5 -30.166 -61.5 -38.499s-55.5 -12.5 -91.5 -12.5h-78zM36 -0.000976562l85 810h161l-73 -699h190
l-12 -111h-351z" />
    <glyph glyph-name="uni01C8" unicode="&#x1c8;" horiz-adv-x="690" 
d="M374 -157l11.0029 106c13.333 -2 22.666 -3 27.999 -3c32 0 50.333 18 55 54l60 578h149l-63 -596c-4.66699 -46 -21.334 -82.5 -50.001 -109.5s-66.334 -40.5 -113.001 -40.5c-27.333 0 -53 3.66699 -77 11zM538.003 672l12 115h149l-12 -115h-149zM36.0029 0l85 810
h161l-73 -699h190l-12 -111h-351z" />
    <glyph glyph-name="uni01C9" unicode="&#x1c9;" horiz-adv-x="525" 
d="M210 -157l11.0029 106c13.333 -2 22.666 -3 27.999 -3c32 0 50.333 18 55 54l60 578h149l-63 -596c-4.66699 -46 -21.334 -82.5 -50.001 -109.5s-66.334 -40.5 -113.001 -40.5c-27.333 0 -53 3.66699 -77 11zM374.003 672l12 115h149l-12 -115h-149zM35.0029 0l85 810
h149l-85 -810h-149z" />
    <glyph glyph-name="uni01CA" unicode="&#x1ca;" horiz-adv-x="887" 
d="M535 -19l12 113.999h6c37.333 0 63.333 5.66699 78 17c15.333 12.667 25 38 29 76l65 622h162l-65 -627c-4 -35.333 -10.333 -65 -19 -89s-21 -44.667 -37 -62s-36.5 -30.166 -61.5 -38.499s-55.5 -12.5 -91.5 -12.5h-78zM36 -0.000976562l85 810h112l139 -428l45 428
h134l-85 -810h-107l-138 454l-48 -454h-137z" />
    </font>
</defs>
</svg>
