<?xml version="1.0" standalone="no"?>
<!DOCTYPE svg PUBLIC "-//W3C//DTD SVG 1.1//EN" "http://www.w3.org/Graphics/SVG/1.1/DTD/svg11.dtd" >
<svg version="1.1" xmlns="http://www.w3.org/2000/svg">
<metadata>
Created by FontForge 20120731 at Tue Aug 26 09:13:22 2014

Copyright 2011 Canonical Ltd.  Licensed under the Ubuntu Font Licence 1.0
</metadata>
<defs>
<font id="ubuntu" horiz-adv-x="376" >
  <font-face 
    font-family="Ubuntu Light"
    font-weight="300"
    font-stretch="normal"
    units-per-em="1000"
    panose-1="2 11 3 4 3 6 2 3 2 4"
    ascent="800"
    descent="-200"
    x-height="516.999"
    cap-height="693"
    bbox="-157 -196 3521 958"
    underline-thickness="56"
    underline-position="-77"
    unicode-range="U+0008-FB04"
  />
<missing-glyph horiz-adv-x="500" 
d="M50 0v750h400v-750h-400zM400 50v650h-300v-650h300z" />
    <glyph glyph-name="f_f" unicode="ff" horiz-adv-x="752" 
d="M276 776c28 0 50.832 -2.16895 68.499 -6.50195s29.167 -8.16602 34.5 -11.499l-13 -56c-7.33301 3.33301 -18.166 6.83301 -32.499 10.5s-32.5 5.5 -54.5 5.5c-46 0 -78.833 -11.667 -98.5 -35s-29.5 -60.666 -29.5 -111.999v-54h208v-55h-208v-462h-65v573
c0 67.333 15.5 118 46.5 152s78.833 51 143.5 51zM651.999 775.998c28 0 50.832 -2.16895 68.499 -6.50195s29.167 -8.16602 34.5 -11.499l-13 -56c-7.33301 3.33301 -18.166 6.83301 -32.499 10.5s-32.5 5.5 -54.5 5.5c-46 0 -78.833 -11.667 -98.5 -35
s-29.5 -60.666 -29.5 -111.999v-54h208v-55h-208v-462h-65v573c0 67.333 15.5 118 46.5 152s78.833 51 143.5 51z" />
    <glyph glyph-name="f_i" unicode="fi" horiz-adv-x="613" 
d="M276 776c28 0 50.832 -2.16895 68.499 -6.50195s29.167 -8.16602 34.5 -11.499l-13 -56c-7.33301 3.33301 -18.166 6.83301 -32.499 10.5s-32.5 5.5 -54.5 5.5c-46 0 -78.833 -11.667 -98.5 -35s-29.5 -60.666 -29.5 -111.999v-54h208v-55h-208v-462h-65v573
c0 67.333 15.5 118 46.5 152s78.833 51 143.5 51zM526.999 -0.00195312h-65v517h65v-517zM541.999 672.998c0 -15.333 -4.66699 -27.5 -14 -36.5s-20.666 -13.5 -33.999 -13.5s-24.666 4.5 -33.999 13.5s-14 21.167 -14 36.5s4.66699 27.5 14 36.5s20.666 13.5 33.999 13.5
s24.666 -4.5 33.999 -13.5s14 -21.167 14 -36.5z" />
    <glyph glyph-name="f_l" unicode="fl" horiz-adv-x="631" 
d="M276 776c28 0 50.832 -2.16895 68.499 -6.50195s29.167 -8.16602 34.5 -11.499l-13 -56c-7.33301 3.33301 -18.166 6.83301 -32.499 10.5s-32.5 5.5 -54.5 5.5c-46 0 -78.833 -11.667 -98.5 -35s-29.5 -60.666 -29.5 -111.999v-54h208v-55h-208v-462h-65v573
c0 67.333 15.5 118 46.5 152s78.833 51 143.5 51zM592.999 -9.00195c-22 0.666992 -41.167 3.50293 -57.5 8.50293s-30 12.667 -41 23s-19.333 23.666 -25 39.999s-8.5 36.833 -8.5 61.5v640l65 12v-650c0 -16 1.5 -28.833 4.5 -38.5s7.5 -17.334 13.5 -23.001
s13.833 -9.83398 23.5 -12.501s21.167 -5 34.5 -7z" />
    <glyph glyph-name="f_f_i" unicode="ffi" horiz-adv-x="989" 
d="M276 776c28 0 50.832 -2.16895 68.499 -6.50195s29.167 -8.16602 34.5 -11.499l-13 -56c-7.33301 3.33301 -18.166 6.83301 -32.499 10.5s-32.5 5.5 -54.5 5.5c-46 0 -78.833 -11.667 -98.5 -35s-29.5 -60.666 -29.5 -111.999v-54h208v-55h-208v-462h-65v573
c0 67.333 15.5 118 46.5 152s78.833 51 143.5 51zM651.999 775.998c28 0 50.832 -2.16895 68.499 -6.50195s29.167 -8.16602 34.5 -11.499l-13 -56c-7.33301 3.33301 -18.166 6.83301 -32.499 10.5s-32.5 5.5 -54.5 5.5c-46 0 -78.833 -11.667 -98.5 -35
s-29.5 -60.666 -29.5 -111.999v-54h208v-55h-208v-462h-65v573c0 67.333 15.5 118 46.5 152s78.833 51 143.5 51zM902.998 -0.00390625h-65v517h65v-517zM917.998 672.996c0 -15.333 -4.66699 -27.5 -14 -36.5s-20.666 -13.5 -33.999 -13.5s-24.666 4.5 -33.999 13.5
s-14 21.167 -14 36.5s4.66699 27.5 14 36.5s20.666 13.5 33.999 13.5s24.666 -4.5 33.999 -13.5s14 -21.167 14 -36.5z" />
    <glyph glyph-name="f_f_l" unicode="ffl" horiz-adv-x="1007" 
d="M276 776c28 0 50.832 -2.16895 68.499 -6.50195s29.167 -8.16602 34.5 -11.499l-13 -56c-7.33301 3.33301 -18.166 6.83301 -32.499 10.5s-32.5 5.5 -54.5 5.5c-46 0 -78.833 -11.667 -98.5 -35s-29.5 -60.666 -29.5 -111.999v-54h208v-55h-208v-462h-65v573
c0 67.333 15.5 118 46.5 152s78.833 51 143.5 51zM651.999 775.998c28 0 50.832 -2.16895 68.499 -6.50195s29.167 -8.16602 34.5 -11.499l-13 -56c-7.33301 3.33301 -18.166 6.83301 -32.499 10.5s-32.5 5.5 -54.5 5.5c-46 0 -78.833 -11.667 -98.5 -35
s-29.5 -60.666 -29.5 -111.999v-54h208v-55h-208v-462h-65v573c0 67.333 15.5 118 46.5 152s78.833 51 143.5 51zM968.998 -9.00391c-22 0.666992 -41.167 3.50293 -57.5 8.50293s-30 12.667 -41 23s-19.333 23.666 -25 39.999s-8.5 36.833 -8.5 61.5v640l65 12v-650
c0 -16 1.5 -28.833 4.5 -38.5s7.5 -17.334 13.5 -23.001s13.833 -9.83398 23.5 -12.501s21.167 -5 34.5 -7z" />
    <glyph glyph-name=".notdef" horiz-adv-x="500" 
d="M50 0v750h400v-750h-400zM400 50v650h-300v-650h300z" />
    <glyph glyph-name=".null" horiz-adv-x="0" 
 />
    <glyph glyph-name=".null" horiz-adv-x="0" 
 />
    <glyph glyph-name=".null" horiz-adv-x="0" 
 />
    <glyph glyph-name="nonmarkingreturn" unicode="&#x9;" horiz-adv-x="228" 
 />
    <glyph glyph-name="nonmarkingreturn" unicode="&#xd;" horiz-adv-x="228" 
 />
    <glyph glyph-name="space" unicode=" " horiz-adv-x="228" 
 />
    <glyph glyph-name="exclam" unicode="!" horiz-adv-x="274" 
d="M172 500c0 -28.667 -0.5 -55.501 -1.5 -80.501s-2.5 -49.167 -4.5 -72.5s-4.16699 -46 -6.5 -68s-4.83301 -44 -7.5 -66h-30c-6 44.667 -10.833 89.334 -14.5 134.001s-5.5 95.667 -5.5 153v193h70v-193zM192 42.999c0 -15.333 -4.83301 -28.333 -14.5 -39
s-23.167 -16 -40.5 -16s-30.833 5.33301 -40.5 16s-14.5 23.667 -14.5 39s4.83301 28.333 14.5 39s23.167 16 40.5 16s30.833 -5.33301 40.5 -16s14.5 -23.667 14.5 -39z" />
    <glyph glyph-name="quotedbl" unicode="&#x22;" horiz-adv-x="392" 
d="M308 760v-38.001c0 -33.333 -1.83301 -67.166 -5.5 -101.499s-8.5 -68.5 -14.5 -102.5h-33c-5.33301 34 -9.83301 68.167 -13.5 102.5s-5.5 68.5 -5.5 102.5v37h72zM156 759.999v-38.001c0 -33.333 -1.83301 -67.166 -5.5 -101.499s-8.5 -68.5 -14.5 -102.5h-33
c-5.33301 34 -9.83301 68.167 -13.5 102.5s-5.5 68.5 -5.5 102.5v37h72z" />
    <glyph glyph-name="numbersign" unicode="#" horiz-adv-x="653" 
d="M264 503h185l36 190h61l-36 -190h96v-53h-107l-39 -207h146v-54h-156l-37 -189h-61l37 189h-185l-37 -189h-61l37 189h-96v54h106l39 207h-145v53h156l36 190h61zM214 243h185l40 207h-185z" />
    <glyph glyph-name="dollar" unicode="$" horiz-adv-x="564" 
d="M314 -109l-59.0029 0.00292969v129c-45.333 0.666992 -83 5.5 -113 14.5s-52.333 17.833 -67 26.5l19 56c8.66699 -4.66699 18.334 -9.33398 29.001 -14.001s23 -9 37 -13s30.167 -7.16699 48.5 -9.5s39.833 -3.5 64.5 -3.5c26 0 48.167 2.66699 66.5 8
s33.333 12.5 45 21.5s20 19.833 25 32.5s7.5 26 7.5 40c0 22 -4.16699 40.333 -12.5 55s-20 27.5 -35 38.5s-33.167 20.667 -54.5 29s-44.666 17.166 -69.999 26.499c-18 6.66699 -36.333 14.167 -55 22.5s-35.5 18.666 -50.5 30.999s-27.167 27.333 -36.5 45
s-14 38.834 -14 63.501c0 49.333 13.5 87.5 40.5 114.5s68.833 44.5 125.5 52.5v119h59v-116c31.333 -0.666992 58.833 -3.83398 82.5 -9.50098s43.5 -11.834 59.5 -18.501l-17 -55c-11.333 4.66699 -28 10.167 -50 16.5s-51.667 9.5 -89 9.5
c-94.667 0 -142 -34.333 -142 -103c0 -18.667 3.33301 -34.167 10 -46.5s16.334 -23.166 29.001 -32.499s28 -17.666 46 -24.999s38 -15 60 -23c24 -9.33301 47.167 -18.833 69.5 -28.5s42 -21.5 59 -35.5s30.5 -31 40.5 -51s15 -44.333 15 -73
c0 -46.667 -15.333 -84.334 -46 -113.001s-73 -45 -127 -49v-132z" />
    <glyph glyph-name="percent" unicode="%" horiz-adv-x="831" 
d="M359 529c0 -29.333 -4 -55.166 -12 -77.499s-19 -41 -33 -56s-30 -26.333 -48 -34s-37 -11.5 -57 -11.5s-39 3.83301 -57 11.5s-34 19 -48 34s-25 33.667 -33 56s-12 48.166 -12 77.499s4 55.166 12 77.499s19 41 33 56s30 26.333 48 34s37 11.5 57 11.5
s39 -3.83301 57 -11.5s34 -19 48 -34s25 -33.667 33 -56s12 -48.166 12 -77.499zM300 529c0 38 -7.66699 68.5 -23 91.5s-38 34.5 -68 34.5s-52.667 -11.5 -68 -34.5s-23 -53.5 -23 -91.5s7.66699 -68.5 23 -91.5s38 -34.5 68 -34.5s52.667 11.5 68 34.5s23 53.5 23 91.5z
M472 164c0 29.333 4 55.166 12 77.499s19 41 33 56s30 26.333 48 34s37 11.5 57 11.5s39 -3.83301 57 -11.5s34 -19 48 -34s25 -33.667 33 -56s12 -48.166 12 -77.499s-4 -55.166 -12 -77.499s-19 -41 -33 -56s-30 -26.333 -48 -34s-37 -11.5 -57 -11.5
s-39 3.83301 -57 11.5s-34 19 -48 34s-25 33.667 -33 56s-12 48.166 -12 77.499zM531 164c0 -38 7.66699 -68.5 23 -91.5s38 -34.5 68 -34.5s52.667 11.5 68 34.5s23 53.5 23 91.5s-7.66699 68.5 -23 91.5s-38 34.5 -68 34.5s-52.667 -11.5 -68 -34.5s-23 -53.5 -23 -91.5z
M580 693h66l-395 -693h-66z" />
    <glyph glyph-name="ampersand" unicode="&#x26;" horiz-adv-x="648" 
d="M486 178c14 23.333 25.333 48.8359 34 76.5029s14.667 55.5 18 83.5l56 -7c-3.33301 -32.667 -10.666 -65.667 -21.999 -99s-27 -65 -47 -95c24.667 -25.333 46.834 -49.333 66.501 -72s35.167 -44.334 46.5 -65.001h-73c-9.33301 15.333 -20.5 30.5 -33.5 45.5
s-27.167 30.167 -42.5 45.5c-28 -30 -60.5 -54.167 -97.5 -72.5s-78.5 -27.5 -124.5 -27.5c-40.667 0 -74.834 5.83301 -102.501 17.5s-50 26.667 -67 45s-29.167 38.5 -36.5 60.5s-11 43.667 -11 65c0 26.667 4.16699 50.5 12.5 71.5s19.5 39.667 33.5 56
s30.333 30.833 49 43.5s38 23.667 58 33c-29.333 27.333 -49.833 54 -61.5 80s-17.5 52.333 -17.5 79c0 26 4.16699 49.333 12.5 70s20 38.167 35 52.5s32.833 25.166 53.5 32.499s43 11 67 11c24.667 0 47 -3.83301 67 -11.5s36.667 -18 50 -31s23.666 -28.5 30.999 -46.5
s11 -37.333 11 -58c0 -24.667 -4.33301 -46.834 -13 -66.501s-20 -37.167 -34 -52.5s-30.167 -29 -48.5 -41s-36.833 -23 -55.5 -33zM267 48.0029c38.667 0 73.167 7.33398 103.5 22.001s56.833 34.667 79.5 60l-210 215c-13.333 -6.66699 -27.166 -14.334 -41.499 -23.001
s-27.333 -19.5 -39 -32.5s-21.167 -28.5 -28.5 -46.5s-11 -39.333 -11 -64c0 -15.333 2.66699 -30.833 8 -46.5s13.666 -29.667 24.999 -42s26.333 -22.5 45 -30.5s41.667 -12 69 -12zM389 560.004c0 26 -8.83203 47.835 -26.499 65.502s-40.5 26.5 -68.5 26.5
c-34 0 -59.833 -9.16699 -77.5 -27.5s-26.5 -43.5 -26.5 -75.5c0 -23.333 5.16699 -46.5 15.5 -69.5s30.166 -47.833 59.499 -74.5c36 17.333 65.667 37.666 89 60.999s35 54.666 35 93.999z" />
    <glyph glyph-name="quotesingle" unicode="'" horiz-adv-x="240" 
d="M156 760v-38.001c0 -33.333 -1.83301 -67.166 -5.5 -101.499s-8.5 -68.5 -14.5 -102.5h-33c-5.33301 34 -9.83301 68.167 -13.5 102.5s-5.5 68.5 -5.5 102.5v37h72z" />
    <glyph glyph-name="parenleft" unicode="(" horiz-adv-x="310" 
d="M83 299c0 96.667 15.833 185.669 47.5 267.002s72.834 153.666 123.501 216.999l47 -32c-52.667 -65.333 -91.167 -134.5 -115.5 -207.5s-36.5 -154.5 -36.5 -244.5s12.167 -171.5 36.5 -244.5s62.833 -142.167 115.5 -207.5l-47 -32
c-50.667 63.333 -91.834 135.666 -123.501 216.999s-47.5 170.333 -47.5 267z" />
    <glyph glyph-name="parenright" unicode=")" horiz-adv-x="310" 
d="M227 299c0 -96.667 -15.833 -185.669 -47.5 -267.002s-72.834 -153.666 -123.501 -216.999l-47 32c52.667 65.333 91.167 134.5 115.5 207.5s36.5 154.5 36.5 244.5s-12.167 171.5 -36.5 244.5s-62.833 142.167 -115.5 207.5l47 32
c50.667 -63.333 91.834 -135.666 123.501 -216.999s47.5 -170.333 47.5 -267z" />
    <glyph glyph-name="asterisk" unicode="*" horiz-adv-x="472" 
d="M260 488c22.667 -22.667 43.1641 -43.332 61.4971 -61.999s37.5 -41.334 57.5 -68.001l-56 -41c-9.33301 13.333 -17.833 26.166 -25.5 38.499s-14.834 24.666 -21.501 36.999s-13.167 25 -19.5 38s-13.166 26.5 -20.499 40.5c-7.33301 -14 -14.166 -27.5 -20.499 -40.5
s-12.833 -25.667 -19.5 -38s-13.834 -24.666 -21.501 -36.999s-16.167 -25.166 -25.5 -38.499l-56 41c10 13.333 19.667 25.5 29 36.5s18.666 21.5 27.999 31.5s19.166 20 29.499 30s21.166 20.667 32.499 32c-31.333 4.66699 -60.166 9.33398 -86.499 14.001
s-55.166 12 -86.499 22l21 65c16 -5.33301 30.667 -10.666 44 -15.999s26.333 -11 39 -17s25.334 -12.167 38.001 -18.5s26 -12.833 40 -19.5l-7.5 45c-2.33301 14 -4.33301 27.833 -6 41.5s-3 27.667 -4 42s-1.5 29.833 -1.5 46.5h68c0 -16.667 -0.5 -32.167 -1.5 -46.5
s-2.33301 -28.333 -4 -42s-3.66699 -27.5 -6 -41.5l-7.5 -45c14 6.66699 27.333 13.167 40 19.5s25.334 12.5 38.001 18.5s25.667 11.667 39 17s28 10.666 44 15.999l21 -65c-31.333 -10 -60.166 -17.333 -86.499 -22s-55.166 -9.33398 -86.499 -14.001z" />
    <glyph glyph-name="plus" unicode="+" horiz-adv-x="564" 
d="M56 317h197v217h58v-217h197v-56h-197v-218h-58v218h-197v56z" />
    <glyph glyph-name="comma" unicode="," horiz-adv-x="246" 
d="M162 95c0.666992 -6 1.00195 -11.3311 1.00195 -15.998v-12c0 -41.333 -5.83301 -81 -17.5 -119s-27.834 -73.667 -48.501 -107l-48 22c15.333 29.333 26.166 60.166 32.499 92.499s9.5 65.833 9.5 100.5c0 8 -0.166992 14.667 -0.5 20s-0.833008 11.666 -1.5 18.999h73z
" />
    <glyph glyph-name="hyphen" unicode="-" horiz-adv-x="282" 
d="M28 321h226v-63h-226v63z" />
    <glyph glyph-name="period" unicode="." horiz-adv-x="246" 
d="M178 43c0 -15.333 -4.83301 -28.333 -14.5 -39s-23.167 -16 -40.5 -16s-30.833 5.33301 -40.5 16s-14.5 23.667 -14.5 39s4.83301 28.333 14.5 39s23.167 16 40.5 16s30.833 -5.33301 40.5 -16s14.5 -23.667 14.5 -39z" />
    <glyph glyph-name="slash" unicode="/" horiz-adv-x="359" 
d="M43 -185h-66l341 968h64z" />
    <glyph glyph-name="zero" unicode="0" horiz-adv-x="564" 
d="M59 346c0 117.333 19.333 207 58 269s93.667 93 165 93c70.667 0 125.5 -31 164.5 -93s58.5 -151.667 58.5 -269c0 -116.667 -19.5 -206 -58.5 -268s-93.833 -93 -164.5 -93s-125.5 31 -164.5 93s-58.5 151.333 -58.5 268zM434 346c0 40 -2.5 78.167 -7.5 114.5
s-13.5 68.5 -25.5 96.5s-27.667 50.333 -47 67s-43.333 25 -72 25c-29.333 0 -53.666 -8.33301 -72.999 -25s-34.833 -39 -46.5 -67s-20 -60.167 -25 -96.5s-7.5 -74.5 -7.5 -114.5s2.5 -78.167 7.5 -114.5s13.333 -68.333 25 -96s27.167 -49.834 46.5 -66.501
s43.666 -25 72.999 -25c28.667 0 52.667 8.33301 72 25s35 38.834 47 66.501s20.5 59.667 25.5 96s7.5 74.5 7.5 114.5z" />
    <glyph glyph-name="one" unicode="1" horiz-adv-x="564" 
d="M107 551c40 14 75.668 31.834 107.001 53.501s62.333 51.167 93 88.5h46v-693h-65v594c-7.33301 -8 -16.833 -16.333 -28.5 -25s-24.834 -17.167 -39.501 -25.5s-30 -16.333 -46 -24s-32 -13.834 -48 -18.501z" />
    <glyph glyph-name="two" unicode="2" horiz-adv-x="564" 
d="M456 521c0 -26 -4.66992 -50.5 -14.0029 -73.5s-21.833 -45.167 -37.5 -66.5s-33.5 -42 -53.5 -62s-40.333 -40 -61 -60c-17.333 -16.667 -34.166 -33.5 -50.499 -50.5s-31 -34 -44 -51s-23.333 -33.667 -31 -50s-11.5 -32.5 -11.5 -48.5v-2h327v-57h-399
c0 1.33301 -0.166992 3.83301 -0.5 7.5s-0.5 9.16699 -0.5 16.5c0 31.333 5.66699 60.5 17 87.5s25.833 52.5 43.5 76.5s37.334 46.333 59.001 67s42.5 40.667 62.5 60c16.667 16 32.5 31.5 47.5 46.5s28.167 30.5 39.5 46.5s20.333 33 27 51s10 37.667 10 59
c0 46.667 -12.5 80.167 -37.5 100.5s-56.5 30.5 -94.5 30.5c-21.333 0 -40.333 -2.66699 -57 -8s-31.167 -11.5 -43.5 -18.5s-22.833 -14.167 -31.5 -21.5s-15 -13 -19 -17l-34 45c4 4.66699 11.167 11.5 21.5 20.5s23.333 17.833 39 26.5s33.834 16.167 54.501 22.5
s43.667 9.5 69 9.5c67.333 0 118 -16.5 152 -49.5s51 -78.833 51 -137.5z" />
    <glyph glyph-name="three" unicode="3" horiz-adv-x="564" 
d="M235 45c63.333 0 108.664 13.1729 135.997 39.5059s41 61.833 41 106.5c0 29.333 -5.5 53.666 -16.5 72.999s-26 34.833 -45 46.5s-41 20 -66 25s-51.5 7.5 -79.5 7.5h-10v54h23c18 0 36.5 1.83301 55.5 5.5s36.333 10.5 52 20.5s28.667 23.333 39 40s15.5 38 15.5 64
c0 22 -3.66699 40.833 -11 56.5s-17.166 28.167 -29.499 37.5s-26.666 16.166 -42.999 20.499s-33.5 6.5 -51.5 6.5c-36 0 -64 -5 -84 -15s-36.333 -19.333 -49 -28l-28 51c6.66699 4.66699 15.167 10 25.5 16s22.5 11.667 36.5 17s29.5 9.83301 46.5 13.5
s35.5 5.5 55.5 5.5c34.667 0 64.5 -4.33301 89.5 -13s45.833 -20.834 62.5 -36.501s29 -34.334 37 -56.001s12 -45.167 12 -70.5c0 -40.667 -10.833 -73.834 -32.5 -99.501s-49.5 -44.167 -83.5 -55.5c18.667 -4.66699 36.834 -11.834 54.501 -21.501s33.5 -22 47.5 -37
s25.333 -33.167 34 -54.5s13 -46.333 13 -75c0 -29.333 -5.16699 -56.333 -15.5 -81s-25.666 -46.167 -45.999 -64.5s-46.166 -32.666 -77.499 -42.999s-68 -15.5 -110 -15.5c-22 0 -42.167 1.5 -60.5 4.5s-34.5 6.5 -48.5 10.5s-25.833 8 -35.5 12
s-16.834 7.33301 -21.501 10l17 58c4 -2.66699 10.667 -6 20 -10s20.5 -7.83301 33.5 -11.5s27.667 -6.83398 44 -9.50098s34.166 -4 53.499 -4z" />
    <glyph glyph-name="four" unicode="4" horiz-adv-x="564" 
d="M50 228c12 32 28.833 68.001 50.5 108.001s46.167 81 73.5 123s57 83.167 89 123.5s64.333 77.166 97 110.499h68v-452h86v-53h-86v-188h-64v188h-314v40zM364 241.001l0.00195312 379c-23.333 -24 -47 -51.667 -71 -83s-46.833 -63.833 -68.5 -97.5
s-41.834 -67.5 -60.501 -101.5s-34.334 -66.333 -47.001 -97h247z" />
    <glyph glyph-name="five" unicode="5" horiz-adv-x="564" 
d="M239 45c33.333 0 61.165 3.82812 83.498 11.4951s40.166 18.167 53.499 31.5s22.833 28.833 28.5 46.5s8.5 36.834 8.5 57.501c0 26.667 -4.33301 50.667 -13 72s-24 39.333 -46 54s-51.667 25.834 -89 33.501s-84.666 11.5 -141.999 11.5c4 34 7.33301 65.167 10 93.5
s5 55.666 7 81.999s3.5 52 4.5 77s1.83301 50.833 2.5 77.5h312v-57h-255c-0.666992 -12.667 -1.66699 -29 -3 -49s-2.66602 -40.5 -3.99902 -61.5s-3 -41.167 -5 -60.5s-3.66699 -34.666 -5 -45.999c51.333 -1.33301 95.666 -7.66602 132.999 -18.999
s68 -26.666 92 -45.999s41.833 -42.666 53.5 -69.999s17.5 -57.666 17.5 -90.999c0 -29.333 -4.83301 -56.666 -14.5 -81.999s-24.5 -47.333 -44.5 -66s-45.333 -33.334 -76 -44.001s-67 -16 -109 -16c-21.333 0 -41.166 1.5 -59.499 4.5s-34.666 6.5 -48.999 10.5
s-26.5 8 -36.5 12s-17.333 7.33301 -22 10l17 58c4 -2.66699 10.833 -6 20.5 -10s21 -7.83301 34 -11.5s27.667 -6.83398 44 -9.50098s33.5 -4 51.5 -4z" />
    <glyph glyph-name="six" unicode="6" horiz-adv-x="564" 
d="M77 275c0 135.333 32.501 238 97.501 308s159.5 107.667 283.5 113l4 -55c-40.667 -2.66699 -78.167 -8.83398 -112.5 -18.501s-64.833 -24.667 -91.5 -45s-49 -46.5 -67 -78.5s-30.333 -71.333 -37 -118c18 9.33301 39.667 17.5 65 24.5s52.333 10.5 81 10.5
c37.333 0 69 -5.83301 95 -17.5s47 -27.167 63 -46.5s27.667 -41.666 35 -66.999s11 -52 11 -80c0 -26 -4 -52 -12 -78s-20.5 -49.5 -37.5 -70.5s-38.333 -38.167 -64 -51.5s-56.167 -20 -91.5 -20c-72.667 0 -127.834 25.5 -165.501 76.5s-56.5 122.167 -56.5 213.5z
M294.001 359c-30.667 0 -57.5 -3.5 -80.5 -10.5s-44.5 -15.167 -64.5 -24.5c-1.33301 -11.333 -2 -20.166 -2 -26.499v-23.5c0 -31.333 2.16699 -61 6.5 -89s12.333 -52.667 24 -74s27.167 -38.166 46.5 -50.499s44 -18.5 74 -18.5c24.667 0 45.667 4.5 63 13.5
s31.333 20.833 42 35.5s18.5 31.667 23.5 51s7.5 39.666 7.5 60.999c0 53.333 -11.833 92.666 -35.5 117.999s-58.5 38 -104.5 38z" />
    <glyph glyph-name="seven" unicode="7" horiz-adv-x="564" 
d="M175 0c4 55.333 14.166 114 30.499 176s36.333 122 60 180s49.334 111.333 77.001 160s54.5 87.667 80.5 117h-354v60h421v-58c-22.667 -27.333 -47.5 -63.833 -74.5 -109.5s-52.5 -97 -76.5 -154s-44.833 -117.5 -62.5 -181.5s-28.5 -127.333 -32.5 -190h-69z" />
    <glyph glyph-name="eight" unicode="8" horiz-adv-x="564" 
d="M282 -15c-32.667 0 -62.1631 4.66699 -88.4961 14s-49 22.5 -68 39.5s-33.667 37 -44 60s-15.5 48.167 -15.5 75.5c0 23.333 3.33301 44.5 10 63.5s15.5 36 26.5 51s23.667 28.333 38 40s29.5 21.834 45.5 30.501c-40.667 20 -68.334 43.667 -83.001 71s-22 57 -22 89
c0 28.667 5 54.667 15 78s23.833 43.166 41.5 59.499s38.834 29 63.501 38s51.667 13.5 81 13.5c34.667 0 64.667 -5.16699 90 -15.5s46.166 -23.833 62.499 -40.5s28.333 -35.667 36 -57s11.5 -43.333 11.5 -66c0 -22 -3.33301 -42.167 -10 -60.5s-15.334 -35 -26.001 -50
s-22.667 -28.167 -36 -39.5s-26.333 -21 -39 -29c46.667 -20 79.5 -45 98.5 -75s28.5 -61.667 28.5 -95c0 -28.667 -5.16699 -55 -15.5 -79s-24.833 -44.5 -43.5 -61.5s-41.334 -30.333 -68.001 -40s-56.334 -14.5 -89.001 -14.5zM429.004 174
c0 28.667 -5.49805 52 -16.498 70s-25.333 32.667 -43 44s-37.667 20.333 -60 27s-44.833 13.667 -67.5 21c-34 -16 -60.333 -37.5 -79 -64.5s-28 -59.5 -28 -97.5c0 -18.667 3 -36 9 -52s15.167 -30 27.5 -42s27.666 -21.5 45.999 -28.5s39.833 -10.5 64.5 -10.5
s46.167 3.5 64.5 10.5s33.666 16.5 45.999 28.5s21.5 26 27.5 42s9 33.333 9 52zM149.006 526c0 -18.667 2.16699 -35.6689 6.5 -51.002s12.5 -29.166 24.5 -41.499s28.667 -23.666 50 -33.999s49.333 -20.166 84 -29.499c30.667 17.333 55 38.666 73 63.999s27 57 27 95
c0 15.333 -2.5 30.333 -7.5 45s-12.667 27.834 -23 39.501s-23.833 21 -40.5 28s-37 10.5 -61 10.5c-22 0 -41.333 -3.33301 -58 -10s-30.5 -15.834 -41.5 -27.501s-19.333 -25.167 -25 -40.5s-8.5 -31.333 -8.5 -48z" />
    <glyph glyph-name="nine" unicode="9" horiz-adv-x="564" 
d="M490 418c0 -139.333 -33.334 -244.165 -100.001 -314.498s-164 -105.5 -292 -105.5l-2 54c44 0 84.333 5 121 15s68.5 25.5 95.5 46.5s49 48 66 81s28.5 72.833 34.5 119.5c-18 -9.33301 -39.667 -17.5 -65 -24.5s-52.333 -10.5 -81 -10.5
c-37.333 0 -69 5.83301 -95 17.5s-47 27.167 -63 46.5s-27.667 41.666 -35 66.999s-11 51.666 -11 78.999c0 25.333 4 51 12 77s20.5 49.5 37.5 70.5s38.333 38.167 64 51.5s56.167 20 91.5 20c72.667 0 127.834 -25.5 165.501 -76.5s56.5 -122.167 56.5 -213.5z
M272.999 336.001c30.667 0 57.5 3.50195 80.5 10.502s44.5 15.167 64.5 24.5c0.666992 8 1.16699 15.667 1.5 23s0.5 15.666 0.5 24.999c0 31.333 -2.16699 61 -6.5 89s-12.333 52.667 -24 74s-27.167 38.166 -46.5 50.499s-44 18.5 -74 18.5
c-24.667 0 -45.667 -4.5 -63 -13.5s-31.333 -20.833 -42 -35.5s-18.5 -31.667 -23.5 -51s-7.5 -39.333 -7.5 -60c0 -52.667 11.833 -91.667 35.5 -117s58.5 -38 104.5 -38z" />
    <glyph glyph-name="colon" unicode=":" horiz-adv-x="246" 
d="M178 43c0 -15.333 -4.83301 -28.333 -14.5 -39s-23.167 -16 -40.5 -16s-30.833 5.33301 -40.5 16s-14.5 23.667 -14.5 39s4.83301 28.333 14.5 39s23.167 16 40.5 16s30.833 -5.33301 40.5 -16s14.5 -23.667 14.5 -39zM178 462c0 -15.333 -4.83301 -28.333 -14.5 -39
s-23.167 -16 -40.5 -16s-30.833 5.33301 -40.5 16s-14.5 23.667 -14.5 39s4.83301 28.333 14.5 39s23.167 16 40.5 16s30.833 -5.33301 40.5 -16s14.5 -23.667 14.5 -39z" />
    <glyph glyph-name="semicolon" unicode=";" horiz-adv-x="246" 
d="M162 95c0.666992 -6 1.00195 -11.3311 1.00195 -15.998v-12c0 -41.333 -5.83301 -81 -17.5 -119s-27.834 -73.667 -48.501 -107l-48 22c15.333 29.333 26.166 60.166 32.499 92.499s9.5 65.833 9.5 100.5c0 8 -0.166992 14.667 -0.5 20s-0.833008 11.666 -1.5 18.999h73z
M178.002 462.002c0 -15.333 -4.83301 -28.333 -14.5 -39s-23.167 -16 -40.5 -16s-30.833 5.33301 -40.5 16s-14.5 23.667 -14.5 39s4.83301 28.333 14.5 39s23.167 16 40.5 16s30.833 -5.33301 40.5 -16s14.5 -23.667 14.5 -39z" />
    <glyph glyph-name="less" unicode="&#x3c;" horiz-adv-x="564" 
d="M131 288l377 -158l-20 -55l-433 184v58l433 184l20 -55z" />
    <glyph glyph-name="equal" unicode="=" horiz-adv-x="564" 
d="M56 212h452v-56h-452v56zM56 422h452v-56h-452v56z" />
    <glyph glyph-name="greater" unicode="&#x3e;" horiz-adv-x="564" 
d="M55 446l20 55l433 -184v-58l-433 -184l-20 55l377 158z" />
    <glyph glyph-name="question" unicode="?" horiz-adv-x="380" 
d="M161 650c-44.667 0 -85.333 -9.99902 -122 -29.999l-19 54c14 8 34.167 15.667 60.5 23s55.5 11 87.5 11c35.333 0 64.833 -4.5 88.5 -13.5s42.5 -20.667 56.5 -35s24 -30.5 30 -48.5s9 -35.667 9 -53c0 -24 -4.33301 -45.333 -13 -64s-19.667 -36 -33 -52
s-27.5 -31.333 -42.5 -46s-29.167 -29.834 -42.5 -45.501s-24.333 -32.5 -33 -50.5s-13 -38 -13 -60v-16.5c0 -3.66699 0.333008 -7.16699 1 -10.5h-52c-1.33301 6.66699 -2.33301 13.834 -3 21.501s-1 15.5 -1 23.5c0 22.667 4 42.834 12 60.501s18 34.167 30 49.5
s25 29.833 39 43.5s27 27.667 39 42s22 29.666 30 45.999s12 34.833 12 55.5c0 18.667 -3.33301 34.167 -10 46.5s-15.5 22.166 -26.5 29.499s-23.833 12.333 -38.5 15s-30 4 -46 4zM210.001 43.001c0 -15.333 -4.83301 -28.333 -14.5 -39s-23.167 -16 -40.5 -16
s-30.833 5.33301 -40.5 16s-14.5 23.667 -14.5 39s4.83301 28.333 14.5 39s23.167 16 40.5 16s30.833 -5.33301 40.5 -16s14.5 -23.667 14.5 -39z" />
    <glyph glyph-name="at" unicode="@" horiz-adv-x="940" 
d="M687 58c-21.333 0 -38.4971 3.66992 -51.4971 11.0029s-22.5 15.333 -28.5 24c-12 -8 -28.333 -16 -49 -24s-43.334 -12 -68.001 -12c-30.667 0 -58.834 4.5 -84.501 13.5s-48 22.667 -67 41s-33.833 41.5 -44.5 69.5s-16 61 -16 99c0 31.333 4.83301 60.666 14.5 87.999
s23.667 51.166 42 71.499s41 36.333 68 48s57.833 17.5 92.5 17.5c32 0 60.833 -2.83301 86.5 -8.5s45.834 -11.5 60.501 -17.5v-293c0 -26 4.5 -44.667 13.5 -56s20.833 -17 35.5 -17c22.667 0 41.167 7.16699 55.5 21.5s25.666 32.333 33.999 54s14.166 44.667 17.499 69
s5 46.5 5 66.5c0 43.333 -7.33301 84.666 -22 123.999s-35.834 73.833 -63.501 103.5s-61.5 53.334 -101.5 71.001s-85.333 26.5 -136 26.5c-51.333 0 -98 -8.16699 -140 -24.5s-78 -40.166 -108 -71.499s-53.333 -69.833 -70 -115.5s-25 -97.834 -25 -156.501
c0 -62 9.16699 -116.333 27.5 -163s43.5 -85.667 75.5 -117s69.833 -54.833 113.5 -70.5s90.834 -23.5 141.501 -23.5c38.667 0 69.167 1.83301 91.5 5.5s37.166 6.83398 44.499 9.50098l7 -55c-11.333 -3.33301 -30.333 -7 -57 -11s-55.334 -6 -86.001 -6
c-58 0 -112.667 8.5 -164 25.5s-96.166 43.333 -134.499 79s-68.666 80.5 -90.999 134.5s-33.5 118 -33.5 192c0 71.333 10.667 133.666 32 186.999s50.5 97.666 87.5 132.999s80.333 61.666 130 78.999s102.5 26 158.5 26c53.333 0 103.5 -9 150.5 -27
s88.167 -43.667 123.5 -77s63.166 -73.666 83.499 -120.999s30.5 -100.333 30.5 -159c0 -43.333 -4.66699 -81.5 -14 -114.5s-22.166 -60.5 -38.499 -82.5s-35.5 -38.667 -57.5 -50s-45.667 -17 -71 -17zM486.003 111.003c22.667 0 41.001 1.83398 55.001 5.50098
s28.667 10.167 44 19.5c-2.66699 6.66699 -4.5 15.167 -5.5 25.5s-1.5 19.166 -1.5 26.499v254c-5.33301 1.33301 -14 3.16602 -26 5.49902s-28.667 3.5 -50 3.5c-25.333 0 -47.833 -4.16699 -67.5 -12.5s-36.167 -20 -49.5 -35s-23.333 -33 -30 -54s-10 -43.833 -10 -68.5
c0 -29.333 3.66699 -54.666 11 -75.999s17.333 -39 30 -53s27.667 -24.333 45 -31s35.666 -10 54.999 -10z" />
    <glyph glyph-name="A" unicode="A" horiz-adv-x="641" 
d="M556 0c-12.667 34 -24.665 66.667 -35.998 98s-22.333 62 -33 92h-337c-11.333 -30 -22.666 -60.667 -33.999 -92s-23 -64 -35 -98h-71c26.667 72 51.667 139.167 75 201.5s46.166 121.333 68.499 177s44.5 109.167 66.5 160.5s45.333 102.666 70 153.999h60
c24.667 -51.333 48 -102.666 70 -153.999s44.167 -104.833 66.5 -160.5s45.166 -114.667 68.499 -177s48.666 -129.5 75.999 -201.5h-75zM318.002 615c-25.333 -57.333 -49.833 -115.666 -73.5 -174.999s-48.167 -123.333 -73.5 -192h295
c-25.333 68.667 -50 132.667 -74 192s-48.667 117.666 -74 174.999z" />
    <glyph glyph-name="B" unicode="B" horiz-adv-x="630" 
d="M256 -6c-11.333 0 -24.502 0.500977 -39.502 1.50098s-30.333 2.33301 -46 4s-30.5 3.66699 -44.5 6s-26 4.83301 -36 7.5v667c12 3.33301 25.333 6.16602 40 8.49902s29.834 4.33301 45.501 6s31 2.83398 46 3.50098s28.833 1 41.5 1c37.333 0 72.833 -3 106.5 -9
s63.167 -16 88.5 -30s45.5 -32.5 60.5 -55.5s22.5 -51.5 22.5 -85.5c0 -37.333 -9.5 -69.166 -28.5 -95.499s-44.5 -44.5 -76.5 -54.5c20 -4.66699 38.333 -11.334 55 -20.001s31.334 -19.834 44.001 -33.501s22.5 -30.334 29.5 -50.001s10.5 -43.167 10.5 -70.5
c0 -65.333 -26 -115.166 -78 -149.499s-132.333 -51.5 -241 -51.5zM157.998 332.001l-0.000976562 -273.002c10 -1.33301 25 -2.83301 45 -4.5s40.333 -2.5 61 -2.5c30.667 0 60.5 2 89.5 6s54.5 11.333 76.5 22s39.667 25.334 53 44.001s20 42.667 20 72
c0 26.667 -4.66699 48.834 -14 66.501s-22.666 31.667 -39.999 42s-38.5 17.5 -63.5 21.5s-52.833 6 -83.5 6h-144zM157.997 389.999l132 -0.000976562c24.667 0 48 1.83301 70 5.5s41.167 10.334 57.5 20.001s29.166 22.667 38.499 39s14 37.166 14 62.499
c0 22.667 -5 41.834 -15 57.501s-24.167 28.5 -42.5 38.5s-40.166 17.167 -65.499 21.5s-53.333 6.5 -84 6.5c-24.667 0 -45.5 -0.666992 -62.5 -2s-31.167 -3 -42.5 -5v-244z" />
    <glyph glyph-name="C" unicode="C" horiz-adv-x="609" 
d="M378 -15c-44.667 0 -86.1699 8.00098 -124.503 24.001s-71.666 39.333 -99.999 70s-50.666 68.5 -66.999 113.5s-24.5 96.5 -24.5 154.5s8.83301 109.5 26.5 154.5s41.167 82.833 70.5 113.5s63.333 53.834 102 69.501s79 23.5 121 23.5c26 0 49.667 -1.66699 71 -5
s40 -7.5 56 -12.5s29.667 -10 41 -15s20 -9.5 26 -13.5l-22 -59c-16.667 10 -37.834 19.833 -63.501 29.5s-57.5 14.5 -95.5 14.5c-43.333 0 -81.166 -7.33301 -113.499 -22s-59.5 -35.334 -81.5 -62.001s-38.5 -58.334 -49.5 -95.001s-16.5 -77.334 -16.5 -122.001
c0 -46 5.5 -87.5 16.5 -124.5s27.167 -68.5 48.5 -94.5s47.5 -46 78.5 -60s66.5 -21 106.5 -21c44 0 80.833 4.16699 110.5 12.5s52.167 16.833 67.5 25.5l19 -58c-4.66699 -3.33301 -12.667 -7.16602 -24 -11.499s-25.666 -8.83301 -42.999 -13.5s-37.333 -8.5 -60 -11.5
s-48 -4.5 -76 -4.5z" />
    <glyph glyph-name="D" unicode="D" horiz-adv-x="702" 
d="M640 347c0 -59.333 -9.33301 -111 -28 -155s-44.834 -80.667 -78.501 -110s-73.834 -51.333 -120.501 -66s-98 -22 -154 -22c-28 0 -57.333 1.5 -88 4.5s-57.667 7.5 -81 13.5v668c23.333 6.66699 50.333 11.5 81 14.5s60 4.5 88 4.5c56 0 107.333 -7.33301 154 -22
s86.834 -36.667 120.501 -66s59.834 -66 78.501 -110s28 -95.333 28 -154zM158 60c4 -0.666992 14.167 -1.99805 30.5 -3.99805s42.5 -3 78.5 -3c50 0 93.667 6.83301 131 20.5s68.666 33.167 93.999 58.5s44.333 56.166 57 92.499s19 77.166 19 122.499
s-6.33301 86 -19 122s-31.667 66.667 -57 92s-56.666 44.833 -93.999 58.5s-81 20.5 -131 20.5c-36 0 -62.167 -1 -78.5 -3s-26.5 -3.33301 -30.5 -4v-573z" />
    <glyph glyph-name="E" unicode="E" horiz-adv-x="555" 
d="M90 0v693h400v-59h-332v-241h296v-58h-296v-276h358v-59h-426z" />
    <glyph glyph-name="F" unicode="F" horiz-adv-x="520" 
d="M90 0v693h395v-59h-327v-244h290v-59h-290v-331h-68z" />
    <glyph glyph-name="G" unicode="G" horiz-adv-x="658" 
d="M522 328l68.0029 -0.00195312v-309c-12.667 -5.33301 -37.5 -12.166 -74.5 -20.499s-82.5 -12.5 -136.5 -12.5c-45.333 0 -87.333 8 -126 24s-72.167 39.167 -100.5 69.5s-50.5 68 -66.5 113s-24 96.5 -24 154.5s8.66699 109.5 26 154.5s40.833 82.667 70.5 113
s64.167 53.5 103.5 69.5s81.333 24 126 24c51.333 0 93.666 -5.5 126.999 -16.5s57.666 -21.5 72.999 -31.5l-23 -58c-18.667 13.333 -44 24.166 -76 32.499s-66.667 12.5 -104 12.5c-34.667 0 -67.334 -6.33301 -98.001 -19s-57.334 -31.667 -80.001 -57
s-40.5 -56.666 -53.5 -93.999s-19.5 -80.666 -19.5 -129.999c0 -46 5.33301 -87.5 16 -124.5s26.834 -68.667 48.501 -95s48.5 -46.5 80.5 -60.5s69 -21 111 -21c34 0 62.5 1.83301 85.5 5.5s38.5 7.16699 46.5 10.5v266z" />
    <glyph glyph-name="H" unicode="H" horiz-adv-x="692" 
d="M534 693h68v-693h-68v333h-376v-333h-68v693h68v-301h376v301z" />
    <glyph glyph-name="I" unicode="I" horiz-adv-x="248" 
d="M90 693h68v-693h-68v693z" />
    <glyph glyph-name="J" unicode="J" horiz-adv-x="487" 
d="M400 218c0 -33.333 -3.33398 -64.1699 -10.001 -92.5029s-18.167 -53 -34.5 -74s-38 -37.333 -65 -49s-60.833 -17.5 -101.5 -17.5c-24 0 -46 2.16699 -66 6.5s-37.667 9.5 -53 15.5s-28.166 12.333 -38.499 19s-18.166 12.667 -23.499 18l32 55
c6 -5.33301 13.5 -11.166 22.5 -17.499s19.5 -12.166 31.5 -17.499s25.333 -9.66602 40 -12.999s30.667 -5 48 -5c51.333 0 89.166 13.5 113.499 40.5s36.5 73.167 36.5 138.5v468h68v-475z" />
    <glyph glyph-name="K" unicode="K" horiz-adv-x="599" 
d="M513 0c-22.667 34.667 -48.1699 68.998 -76.5029 102.998s-58.166 66 -89.499 96s-63.166 57.333 -95.499 82s-63.5 45.334 -93.5 62.001v-343h-68v693h68v-323c25.333 22.667 53.5 48.834 84.5 78.501s61.667 59.5 92 89.5s58.833 58.667 85.5 86s48 50.333 64 69h82
c-19.333 -20.667 -42.666 -45.167 -69.999 -73.5s-56.333 -57.5 -87 -87.5s-61.167 -59.5 -91.5 -88.5s-57.5 -54.5 -81.5 -76.5c19.333 -12 40.166 -26.833 62.499 -44.5s45 -37 68 -58s45.667 -43 68 -66s43.333 -46.167 63 -69.5s37.334 -46 53.001 -68
s28.5 -42.333 38.5 -61h-76z" />
    <glyph glyph-name="L" unicode="L" horiz-adv-x="502" 
d="M484 59v-59h-394v693h68v-634h326z" />
    <glyph glyph-name="M" unicode="M" horiz-adv-x="865" 
d="M401 100c-6.66699 16.667 -16.1709 38.667 -28.5039 66s-26.166 57.166 -41.499 89.499s-31 65.666 -47 99.999s-31.333 66.5 -46 96.5s-27.667 56.333 -39 79s-19.666 38.667 -24.999 48c-8.66699 -83.333 -15.5 -173.833 -20.5 -271.5s-9.5 -200.167 -13.5 -307.5h-67
c6 126 12.833 246.667 20.5 362s17.167 225.666 28.5 330.999h60c20 -33.333 41.333 -71.833 64 -115.5s45.167 -89 67.5 -136s44 -93.333 65 -139s39.5 -86.834 55.5 -123.501c16 36.667 34.5 77.834 55.5 123.501s42.667 92 65 139s44.833 92.333 67.5 136
s44 82.167 64 115.5h57c11.333 -105.333 20.833 -215.666 28.5 -330.999s14.5 -236 20.5 -362h-69c-4 107.333 -8.5 209.833 -13.5 307.5s-11.833 188.167 -20.5 271.5c-5.33301 -9.33301 -13.666 -25.333 -24.999 -48s-24.333 -49 -39 -79s-30 -62.167 -46 -96.5
s-31.667 -67.666 -47 -99.999s-29.166 -62.166 -41.499 -89.499s-21.833 -49.333 -28.5 -66h-61z" />
    <glyph glyph-name="N" unicode="N" horiz-adv-x="709" 
d="M562 0c-12.667 23.333 -28.833 50.666 -48.5 81.999s-41.167 64.833 -64.5 100.5s-48 72.334 -74 110.001s-51.833 74.334 -77.5 110.001s-50.667 69.167 -75 100.5s-46.166 58.333 -65.499 81v-584h-67v693h54c34 -38 70.5 -81.833 109.5 -131.5
s77.167 -100.334 114.5 -152.001s72.166 -102.167 104.499 -151.5s58.833 -92.333 79.5 -129v564h67v-693h-57z" />
    <glyph glyph-name="O" unicode="O" horiz-adv-x="774" 
d="M712 347c0 -59.333 -8.66699 -111.666 -26 -156.999s-40.833 -83.166 -70.5 -113.499s-64.167 -53.166 -103.5 -68.499s-81 -23 -125 -23s-85.667 7.66699 -125 23s-73.833 38.166 -103.5 68.499s-53.167 68.166 -70.5 113.499s-26 97.666 -26 156.999
s8.66699 111.5 26 156.5s40.833 82.667 70.5 113s64.167 53.166 103.5 68.499s81 23 125 23s85.667 -7.66699 125 -23s73.833 -38.166 103.5 -68.499s53.167 -68 70.5 -113s26 -97.167 26 -156.5zM640 347c0 46.667 -6 88.5 -18 125.5s-29 68.5 -51 94.5
s-48.5 45.833 -79.5 59.5s-65.833 20.5 -104.5 20.5s-73.5 -6.83301 -104.5 -20.5s-57.5 -33.5 -79.5 -59.5s-39 -57.5 -51 -94.5s-18 -78.833 -18 -125.5s6 -88.5 18 -125.5s29 -68.5 51 -94.5s48.5 -46 79.5 -60s65.833 -21 104.5 -21s73.5 7 104.5 21s57.5 34 79.5 60
s39 57.5 51 94.5s18 78.833 18 125.5z" />
    <glyph glyph-name="P" unicode="P" horiz-adv-x="592" 
d="M265 699c98 0 171 -18.667 219 -56s72 -90.333 72 -159c0 -39.333 -7 -72.833 -21 -100.5s-34 -50 -60 -67s-57.833 -29.333 -95.5 -37s-80.167 -11.5 -127.5 -11.5h-94v-268h-68v680c24 6.66699 52.167 11.5 84.5 14.5s62.5 4.5 90.5 4.5zM268 640
c-25.333 0 -46.834 -0.834961 -64.501 -2.50195s-32.834 -3.16699 -45.501 -4.5v-306h86c36.667 0 69.834 2.16699 99.501 6.5s55 12.333 76 24s37.167 27.834 48.5 48.501s17 47 17 79c0 30.667 -6.16699 56 -18.5 76s-28.666 35.833 -48.999 47.5
s-43.5 19.834 -69.5 24.501s-52.667 7 -80 7z" />
    <glyph glyph-name="Q" unicode="Q" horiz-adv-x="774" 
d="M712 347c0 -53.333 -7.00195 -100.669 -21.002 -142.002s-33 -77 -57 -107s-52.333 -54 -85 -72s-67.667 -30 -105 -36c2.66699 -18.667 11.167 -34.667 25.5 -48s31.666 -24.666 51.999 -33.999s42.833 -16.833 67.5 -22.5s48.667 -10.167 72 -13.5l-14 -57
c-25.333 4.66699 -52.666 10.5 -81.999 17.5s-57.166 16.833 -83.499 29.5s-49.166 28.834 -68.499 48.501s-32 44.5 -38 74.5c-42.667 1.33301 -83 10 -121 26s-71.167 39.167 -99.5 69.5s-50.833 67.833 -67.5 112.5s-25 96 -25 154c0 59.333 8.66699 111.5 26 156.5
s40.833 82.667 70.5 113s64.167 53.166 103.5 68.499s81 23 125 23s85.667 -7.66699 125 -23s73.833 -38.166 103.5 -68.499s53.167 -68 70.5 -113s26 -97.167 26 -156.5zM639.998 346.997c0 46.667 -6 88.5 -18 125.5s-29 68.5 -51 94.5s-48.5 45.833 -79.5 59.5
s-65.833 20.5 -104.5 20.5s-73.5 -6.83301 -104.5 -20.5s-57.5 -33.5 -79.5 -59.5s-39 -57.5 -51 -94.5s-18 -78.833 -18 -125.5s6 -88.5 18 -125.5s29 -68.5 51 -94.5s48.5 -46 79.5 -60s65.833 -21 104.5 -21s73.5 7 104.5 21s57.5 34 79.5 60s39 57.5 51 94.5
s18 78.833 18 125.5z" />
    <glyph glyph-name="R" unicode="R" horiz-adv-x="618" 
d="M552 485c0 -52 -13.666 -93.001 -40.999 -123.001s-63.333 -51.667 -108 -65c10.667 -13.333 24.5 -31.333 41.5 -54s34.5 -47.5 52.5 -74.5s35.667 -55.167 53 -84.5s32 -57.333 44 -84h-73c-14 26.667 -29.167 53.334 -45.5 80.001s-33 52.5 -50 77.5
s-33.5 48.167 -49.5 69.5l-42 56c-21.333 -2 -42.666 -3 -63.999 -3h-112v-280h-68v680c24 6.66699 52.167 11.5 84.5 14.5s62.166 4.5 89.499 4.5c95.333 0 167.166 -18 215.499 -54s72.5 -89.333 72.5 -160zM272.001 639.999c-25.333 0 -47.5 -0.831055 -66.5 -2.49805
s-34.833 -3.16699 -47.5 -4.5v-295h94c31.333 0 61 1.5 89 4.5s52.333 9.66699 73 20s37 25.166 49 44.499s18 45.666 18 78.999c0 30.667 -6 56 -18 76s-27.667 35.833 -47 47.5s-41.5 19.667 -66.5 24s-50.833 6.5 -77.5 6.5z" />
    <glyph glyph-name="S" unicode="S" horiz-adv-x="517" 
d="M239 44c54 0 96.0068 9.83496 126.007 29.502s45 51.5 45 95.5c0 25.333 -4.83301 46.5 -14.5 63.5s-22.5 31.333 -38.5 43s-34.333 21.667 -55 30s-42.334 17.166 -65.001 26.499c-28.667 11.333 -54.334 23 -77.001 35s-42 25.5 -58 40.5s-28.167 32.167 -36.5 51.5
s-12.5 42 -12.5 68c0 59.333 19.667 104.333 59 135s94 46 164 46c18.667 0 37 -1.33301 55 -4s34.833 -6.16699 50.5 -10.5s30 -9.16602 43 -14.499s23.833 -11 32.5 -17l-24 -57c-19.333 13.333 -42.833 24 -70.5 32s-57.5 12 -89.5 12c-22 0 -42.167 -2.16699 -60.5 -6.5
s-34.166 -11.333 -47.499 -21s-23.833 -21.834 -31.5 -36.501s-11.5 -32.334 -11.5 -53.001c0 -21.333 4 -39.333 12 -54s19.167 -27.334 33.5 -38.001s31.166 -20.334 50.499 -29.001s40.333 -17.667 63 -27c27.333 -11.333 53.166 -22.666 77.499 -33.999
s45.5 -24.666 63.5 -39.999s32.333 -34 43 -56s16 -49 16 -81c0 -62.667 -21.833 -109.667 -65.5 -141s-102.834 -47 -177.501 -47c-26.667 0 -51 1.66699 -73 5s-41.667 7.5 -59 12.5s-32 10.167 -44 15.5s-21.333 10 -28 14l22 59c6.66699 -4 15.667 -8.66699 27 -14
s24.666 -10.5 39.999 -15.5s32.666 -9.16699 51.999 -12.5s40.666 -5 63.999 -5z" />
    <glyph glyph-name="T" unicode="T" horiz-adv-x="548" 
d="M530 693v-59h-222v-634h-68v634h-222v59h512z" />
    <glyph glyph-name="U" unicode="U" horiz-adv-x="680" 
d="M340 -15c-46 0 -85.167 7 -117.5 21s-58.5 33.333 -78.5 58s-34.5 53.5 -43.5 86.5s-13.5 68.5 -13.5 106.5v436h68v-427c0 -38 4.5 -70.833 13.5 -98.5s21.5 -50.5 37.5 -68.5s35.333 -31.333 58 -40s48 -13 76 -13s53.333 4.33301 76 13s42 22 58 40
s28.5 40.833 37.5 68.5s13.5 60.5 13.5 98.5v427h68v-436c0 -38 -4.5 -73.5 -13.5 -106.5s-23.5 -61.833 -43.5 -86.5s-46.167 -44 -78.5 -58s-71.5 -21 -117.5 -21z" />
    <glyph glyph-name="V" unicode="V" horiz-adv-x="624" 
d="M86 693c20 -59.333 39.334 -115.498 58.001 -168.498s37 -104.333 55 -154s36.333 -98.334 55 -146.001s38.667 -95.834 60 -144.501c20.667 48 40.5 95.833 59.5 143.5s37.667 96.334 56 146.001s36.666 101.167 54.999 154.5s37.5 109.666 57.5 168.999h72
c-30.667 -87.333 -58.167 -164 -82.5 -230s-47 -125.667 -68 -179s-41 -102.5 -60 -147.5s-38.833 -90.5 -59.5 -136.5h-63c-20.667 46 -40.667 91.5 -60 136.5s-39.5 94.167 -60.5 147.5s-43.667 113 -68 179s-51.833 142.667 -82.5 230h76z" />
    <glyph glyph-name="W" unicode="W" horiz-adv-x="921" 
d="M491 608c32 -107.333 64.1631 -204.501 96.4961 -291.501s63.833 -166.833 94.5 -239.5c23.333 78.667 46.5 171.334 69.5 278.001s45.167 219.334 66.5 338.001h67c-12 -71.333 -24.167 -138.166 -36.5 -200.499s-25.166 -121.666 -38.499 -177.999
s-27.333 -110.333 -42 -162s-30.667 -102.5 -48 -152.5h-73c-16 38 -31.833 76 -47.5 114s-31.167 77.167 -46.5 117.5s-30.666 82.5 -45.999 126.5s-31 90.667 -47 140c-16 -49.333 -31.833 -96 -47.5 -140s-31.167 -86.167 -46.5 -126.5s-30.833 -79.5 -46.5 -117.5
s-31.5 -76 -47.5 -114h-72c-18 50 -34.5 100.833 -49.5 152.5s-29 105.667 -42 162s-25.333 115.666 -37 177.999s-23.5 129.166 -35.5 200.499h70c10 -58.667 20.333 -116.167 31 -172.5s21.834 -110.833 33.501 -163.5s23.667 -102.5 36 -149.5s24.5 -90.5 36.5 -130.5
c28.667 74 59.334 154.167 92.001 240.5s65 183.166 97 290.499h59z" />
    <glyph glyph-name="X" unicode="X" horiz-adv-x="608" 
d="M490 693l76.001 0.000976562l-223 -325c43.333 -61.333 85.666 -122.833 126.999 -184.5s77.333 -122.834 108 -183.501h-74c-10 20 -22.833 43 -38.5 69s-32.667 53.333 -51 82s-37.333 57.334 -57 86.001s-38.5 55.667 -56.5 81c-18 -25.333 -36.833 -52.333 -56.5 -81
s-38.667 -57.334 -57 -86.001s-35.333 -56 -51 -82s-28.5 -49 -38.5 -69h-71c30.667 60.667 66.667 121.667 108 183s83.333 122.333 126 183l-223 327h78l187 -279z" />
    <glyph glyph-name="Y" unicode="Y" horiz-adv-x="569" 
d="M251 0l-0.00195312 284.998c-47.333 72.667 -90.833 142.834 -130.5 210.501s-76.5 133.5 -110.5 197.5h79c28 -58.667 58.833 -118.167 92.5 -178.5s68.834 -117.833 105.501 -172.5c35.333 54.667 70 112.167 104 172.5s65.333 119.833 94 178.5h74
c-35.333 -63.333 -72.666 -129.166 -111.999 -197.499s-82 -137.833 -128 -208.5v-287h-68z" />
    <glyph glyph-name="Z" unicode="Z" horiz-adv-x="560" 
d="M510 631c-16 -18.667 -34.498 -41.335 -55.498 -68.002s-43.5 -55.834 -67.5 -87.501s-48.5 -65.334 -73.5 -101.001s-49.667 -71.667 -74 -108s-47.333 -72.166 -69 -107.499s-41.167 -68.666 -58.5 -99.999h408v-59h-482v51c14.667 28.667 32.167 60.167 52.5 94.5
s42.166 69.666 65.499 105.999s47.666 72.833 72.999 109.5s50.333 71.834 75 105.501s48.167 64.834 70.5 93.501s42.833 53.334 61.5 74.001h-379v59h453v-62z" />
    <glyph glyph-name="bracketleft" unicode="[" horiz-adv-x="310" 
d="M100 783h202v-50h-140v-868h140v-50h-202v968z" />
    <glyph glyph-name="backslash" unicode="\" horiz-adv-x="359" 
d="M-23 783h64l341 -968h-66z" />
    <glyph glyph-name="bracketright" unicode="]" horiz-adv-x="310" 
d="M210 -185h-202v50h140v868h-140v50h202v-968z" />
    <glyph glyph-name="asciicircum" unicode="^" horiz-adv-x="564" 
d="M502 356l-49 -26l-171 308l-171 -308l-49 26l188 337h64z" />
    <glyph glyph-name="underscore" unicode="_" horiz-adv-x="490" 
d="M-5 -129h500v-56h-500v56z" />
    <glyph glyph-name="grave" unicode="`" 
d="M106 773l158 -152l-33 -38l-171 139z" />
    <glyph glyph-name="a" unicode="a" horiz-adv-x="509" 
d="M249 47c25.333 0 47.5 0.831055 66.5 2.49805s35.167 3.83398 48.5 6.50098v182c-7.33301 3.33301 -19 6.83301 -35 10.5s-38 5.5 -66 5.5c-16 0 -32.667 -1.16699 -50 -3.5s-33.333 -7.33301 -48 -15s-26.667 -18.167 -36 -31.5s-14 -31 -14 -53
c0 -19.333 3.16699 -35.666 9.5 -48.999s15.333 -24 27 -32s25.667 -13.833 42 -17.5s34.833 -5.5 55.5 -5.5zM243 528.998c34 0 62.834 -4.83203 86.501 -14.499s42.834 -23 57.501 -40s25.334 -37.167 32.001 -60.5s10 -48.666 10 -75.999v-326
c-6.66699 -2 -16.334 -4.16699 -29.001 -6.5s-27.334 -4.83301 -44.001 -7.5s-35.167 -4.83398 -55.5 -6.50098s-41.166 -2.5 -62.499 -2.5c-27.333 0 -52.5 3 -75.5 9s-43 15.5 -60 28.5s-30.333 29.667 -40 50s-14.5 45.166 -14.5 74.499c0 28 5.33301 52 16 72
s25.667 36.5 45 49.5s42.333 22.5 69 28.5s55.667 9 87 9c9.33301 0 19.166 -0.5 29.499 -1.5s20.333 -2.33301 30 -4s18 -3.33398 25 -5.00098s11.833 -3.16699 14.5 -4.5v32c0 18 -1.33301 35.5 -4 52.5s-8.5 32.333 -17.5 46s-21.667 24.667 -38 33
s-37.833 12.5 -64.5 12.5c-38 0 -66.333 -2.66699 -85 -8s-32.334 -9.66602 -41.001 -12.999l-9 57c11.333 5.33301 28.833 10.333 52.5 15s52.167 7 85.5 7z" />
    <glyph glyph-name="b" unicode="b" horiz-adv-x="583" 
d="M151 486c11.333 8.66699 29.499 17.8311 54.499 27.498s54.5 14.5 88.5 14.5c37.333 0 70.5 -6.66699 99.5 -20s53.5 -32 73.5 -56s35.167 -52.5 45.5 -85.5s15.5 -69.167 15.5 -108.5c0 -42 -6.16699 -79.667 -18.5 -113s-29.666 -61.666 -51.999 -84.999
s-49 -41.166 -80 -53.499s-65.5 -18.5 -103.5 -18.5c-46 0 -84 3 -114 9s-54.667 12.333 -74 19v748l65 12v-290zM150.999 60.9971c10 -3.33301 24.833 -6.50098 44.5 -9.50098s45.5 -4.5 77.5 -4.5c56 0 101 18.167 135 54.5s51 88.5 51 156.5
c0 28.667 -3 55.834 -9 81.501s-15.667 48 -29 67s-30.833 34.167 -52.5 45.5s-48.5 17 -80.5 17c-15.333 0 -30 -1.5 -44 -4.5s-27 -6.83301 -39 -11.5s-22.5 -9.66699 -31.5 -15s-16.5 -10.333 -22.5 -15v-362z" />
    <glyph glyph-name="c" unicode="c" horiz-adv-x="460" 
d="M300 -11c-40 0 -75.332 6.33203 -105.999 18.999s-56.167 30.834 -76.5 54.501s-35.833 52 -46.5 85s-16 69.5 -16 109.5c0 40.667 5.5 77.667 16.5 111s26.833 62 47.5 86s45.667 42.5 75 55.5s62.333 19.5 99 19.5c28 0 54.167 -2.33301 78.5 -7
s43.166 -10.667 56.499 -18l-17 -56c-13.333 6.66699 -28.333 12 -45 16s-39 6 -67 6c-57.333 0 -100.833 -18.5 -130.5 -55.5s-44.5 -89.5 -44.5 -157.5c0 -30.667 3.33301 -58.834 10 -84.501s17.5 -47.667 32.5 -66s34.333 -32.666 58 -42.999s52.5 -15.5 86.5 -15.5
c28 0 51.5 3.16699 70.5 9.5s32.833 11.833 41.5 16.5l14 -56c-12 -6.66699 -30.833 -13.167 -56.5 -19.5s-52.5 -9.5 -80.5 -9.5z" />
    <glyph glyph-name="d" unicode="d" horiz-adv-x="583" 
d="M497 16c-19.333 -6.66699 -44.001 -12.9971 -74.001 -18.9971s-68 -9 -114 -9c-38 0 -72.5 6.16699 -103.5 18.5s-57.667 30.166 -80 53.499s-39.666 51.666 -51.999 84.999s-18.5 71 -18.5 113c0 39.333 5.16699 75.5 15.5 108.5s25.5 61.5 45.5 85.5
s44.5 42.667 73.5 56s62.167 20 99.5 20c34 0 63.5 -4.83301 88.5 -14.5s43.167 -18.834 54.5 -27.501v278l65 12v-760zM431.999 423.003c-6 4.66699 -13.5 9.66797 -22.5 15.001s-19.5 10.333 -31.5 15s-25 8.5 -39 11.5s-28.667 4.5 -44 4.5
c-32 0 -58.833 -5.66699 -80.5 -17s-39.167 -26.5 -52.5 -45.5s-23 -41.333 -29 -67s-9 -52.834 -9 -81.501c0 -68 17 -120.167 51 -156.5s79 -54.5 135 -54.5c32 0 57.833 1.5 77.5 4.5s34.5 6.16699 44.5 9.5v362z" />
    <glyph glyph-name="e" unicode="e" horiz-adv-x="548" 
d="M55 259c0 45.333 6.50098 84.8291 19.501 118.496s30 61.834 51 84.501s45 39.5 72 50.5s54.833 16.5 83.5 16.5c63.333 0 113.833 -20.667 151.5 -62s56.5 -105 56.5 -191c0 -5.33301 -0.166992 -10.666 -0.5 -15.999s-0.833008 -10.333 -1.5 -15h-363
c2 -63.333 17.667 -112 47 -146s76 -51 140 -51c35.333 0 63.333 3.33301 84 10s35.667 12.334 45 17.001l12 -56c-9.33301 -5.33301 -26.833 -11.666 -52.5 -18.999s-55.834 -11 -90.501 -11c-45.333 0 -84 6.66699 -116 20s-58.333 32 -79 56s-35.667 52.5 -45 85.5
s-14 69.167 -14 108.5zM422.001 299.996c-1.33301 54 -14 96.002 -38 126.002s-58 45 -102 45c-23.333 0 -44.166 -4.66699 -62.499 -14s-34.333 -21.833 -48 -37.5s-24.334 -33.834 -32.001 -54.501s-12.167 -42.334 -13.5 -65.001h296z" />
    <glyph glyph-name="f" unicode="f" 
d="M276 776c28 0 50.832 -2.16895 68.499 -6.50195s29.167 -8.16602 34.5 -11.499l-13 -56c-7.33301 3.33301 -18.166 6.83301 -32.499 10.5s-32.5 5.5 -54.5 5.5c-46 0 -78.833 -11.667 -98.5 -35s-29.5 -60.666 -29.5 -111.999v-54h208v-55h-208v-462h-65v573
c0 67.333 15.5 118 46.5 152s78.833 51 143.5 51z" />
    <glyph glyph-name="g" unicode="g" horiz-adv-x="573" 
d="M423 60c-4 -3.33301 -10 -7.16797 -18 -11.501s-17.833 -8.83301 -29.5 -13.5s-25 -8.5 -40 -11.5s-31.833 -4.5 -50.5 -4.5c-30 0 -59 4.66699 -87 14s-52.5 24 -73.5 44s-37.833 45.833 -50.5 77.5s-19 70.167 -19 115.5c0 36.667 5.66699 70.667 17 102
s27.5 58.5 48.5 81.5s46.667 41 77 54s64.5 19.5 102.5 19.5c48 0 86.5 -3.16699 115.5 -9.5s52.833 -12.5 71.5 -18.5v-472c0 -77.333 -20 -132.5 -60 -165.5s-100.333 -49.5 -181 -49.5c-33.333 0 -63.5 2.5 -90.5 7.5s-50.167 10.833 -69.5 17.5l13 59
c16 -7.33301 37.833 -13.666 65.5 -18.999s55.5 -8 83.5 -8c61.333 0 105.833 11.833 133.5 35.5s41.5 64.167 41.5 121.5v34zM422 453.998c-11.333 3.33301 -25.998 6.49902 -43.998 9.49902s-43.667 4.5 -77 4.5c-28 0 -52.833 -4.83301 -74.5 -14.5
s-40.167 -23.334 -55.5 -41.001s-27 -38.667 -35 -63s-12 -51.166 -12 -80.499c0 -34 4.66699 -63.167 14 -87.5s21.5 -44.166 36.5 -59.499s32.167 -26.5 51.5 -33.5s39 -10.5 59 -10.5c29.333 0 56.166 4.33301 80.499 13s43.166 18.667 56.499 30v333z" />
    <glyph glyph-name="h" unicode="h" horiz-adv-x="569" 
d="M86 0l-0.000976562 763.999l65 12v-274c21.333 8 43 14.167 65 18.5s44 6.5 66 6.5c40 0 73.333 -5.66699 100 -17s48 -27.5 64 -48.5s27.167 -46.167 33.5 -75.5s9.5 -61.666 9.5 -96.999v-289h-65v268c0 36.667 -2.5 67.667 -7.5 93s-13.333 46 -25 62
s-27.167 27.5 -46.5 34.5s-43.666 10.5 -72.999 10.5c-11.333 0 -23.5 -1 -36.5 -3s-25.167 -4.16699 -36.5 -6.5s-21.5 -4.83301 -30.5 -7.5s-14.833 -4.66699 -17.5 -6v-445h-65z" />
    <glyph glyph-name="i" unicode="i" horiz-adv-x="237" 
d="M151 0h-65v517h65v-517zM166 673c0 -15.333 -4.66699 -27.5 -14 -36.5s-20.666 -13.5 -33.999 -13.5s-24.666 4.5 -33.999 13.5s-14 21.167 -14 36.5s4.66699 27.5 14 36.5s20.666 13.5 33.999 13.5s24.666 -4.5 33.999 -13.5s14 -21.167 14 -36.5z" />
    <glyph glyph-name="j" unicode="j" horiz-adv-x="237" 
d="M-11 -187c-7.33301 0 -16.499 0.998047 -27.499 2.99805s-19.167 4.33301 -24.5 7l9 53c4.66699 -1.33301 11 -2.66602 19 -3.99902s15.667 -2 23 -2c39.333 0 65.5 11 78.5 33s19.5 55 19.5 99v515h65v-512c0 -65.333 -12.333 -113.666 -37 -144.999
s-66.334 -47 -125.001 -47zM166.001 672.998c0 -15.333 -4.66699 -27.5 -14 -36.5s-20.666 -13.5 -33.999 -13.5s-24.666 4.5 -33.999 13.5s-14 21.167 -14 36.5s4.66699 27.5 14 36.5s20.666 13.5 33.999 13.5s24.666 -4.5 33.999 -13.5s14 -21.167 14 -36.5z" />
    <glyph glyph-name="k" unicode="k" horiz-adv-x="495" 
d="M224 281c20.667 -14 42.8291 -32.0029 66.4961 -54.0029s47 -45.833 70 -71.5s44.667 -52 65 -79s37.5 -52.5 51.5 -76.5h-77c-16 26.667 -34.167 52.834 -54.5 78.501s-41.666 49.834 -63.999 72.501s-44.666 43.334 -66.999 62.001s-43.5 34.334 -63.5 47.001v-260h-65
v764l65 12v-492c16.667 16 35.334 34.333 56.001 55s41.5 41.667 62.5 63s40.833 42 59.5 62s34.667 37.667 48 53h78c-15.333 -16 -32.666 -34 -51.999 -54s-39.5 -40.833 -60.5 -62.5s-41.833 -42.834 -62.5 -63.501z" />
    <glyph glyph-name="l" unicode="l" horiz-adv-x="255" 
d="M217 -9c-22 0.666992 -41.167 3.50293 -57.5 8.50293s-30 12.667 -41 23s-19.333 23.666 -25 39.999s-8.5 36.833 -8.5 61.5v640l65 12v-650c0 -16 1.5 -28.833 4.5 -38.5s7.5 -17.334 13.5 -23.001s13.833 -9.83398 23.5 -12.501s21.167 -5 34.5 -7z" />
    <glyph glyph-name="m" unicode="m" horiz-adv-x="863" 
d="M86 499c19.333 5.33301 44.502 11.333 75.502 18s71.167 10 120.5 10c65.333 0 112.666 -19 141.999 -57c3.33301 2.66699 9.83301 7.16699 19.5 13.5s21.834 12.833 36.501 19.5s31.834 12.334 51.501 17.001s41.5 7 65.5 7c39.333 0 71.166 -5.83301 95.499 -17.5
s43.166 -28 56.499 -49s22.333 -46.167 27 -75.5s7 -61.333 7 -96v-289h-65v268c0 34 -1.5 63.5 -4.5 88.5s-9 45.667 -18 62s-21.833 28.666 -38.5 36.999s-38.334 12.5 -65.001 12.5c-20 0 -38.167 -1.83301 -54.5 -5.5s-30.5 -8.16699 -42.5 -13.5
s-21.833 -10.666 -29.5 -15.999s-13.167 -9.33301 -16.5 -12c6 -17.333 10.5 -36.833 13.5 -58.5s4.5 -44.5 4.5 -68.5v-294h-65v268c0 34 -1.5 63.5 -4.5 88.5s-9.16699 45.667 -18.5 62s-22.5 28.666 -39.5 36.999s-39.5 12.5 -67.5 12.5
c-31.333 0 -57.833 -1.66699 -79.5 -5s-35.5 -6.33301 -41.5 -9v-454h-65v499z" />
    <glyph glyph-name="n" unicode="n" horiz-adv-x="569" 
d="M86 499c19.333 5.33301 45.333 11.332 78 17.999s72.667 10 120 10c39.333 0 72.166 -5.66699 98.499 -17s47.333 -27.5 63 -48.5s26.834 -46.167 33.501 -75.5s10 -61.666 10 -96.999v-289h-65v268c0 36.667 -2.5 67.667 -7.5 93s-13.333 46 -25 62s-27 27.5 -46 34.5
s-42.833 10.5 -71.5 10.5c-30.667 0 -57.167 -1.66699 -79.5 -5s-36.833 -6.33301 -43.5 -9v-454h-65v499z" />
    <glyph glyph-name="o" unicode="o" horiz-adv-x="582" 
d="M527 258c0 -40.667 -5.83301 -77.667 -17.5 -111s-28 -61.666 -49 -84.999s-45.833 -41.5 -74.5 -54.5s-60.334 -19.5 -95.001 -19.5s-66.334 6.5 -95.001 19.5s-53.5 31.167 -74.5 54.5s-37.333 51.666 -49 84.999s-17.5 70.333 -17.5 111s5.83301 77.667 17.5 111
s28 61.833 49 85.5s45.833 42 74.5 55s60.334 19.5 95.001 19.5s66.334 -6.5 95.001 -19.5s53.5 -31.333 74.5 -55s37.333 -52.167 49 -85.5s17.5 -70.333 17.5 -111zM458 258c0 64.667 -15 116.167 -45 154.5s-70.667 57.5 -122 57.5s-92 -19.167 -122 -57.5
s-45 -89.833 -45 -154.5s15 -116 45 -154s70.667 -57 122 -57s92 19 122 57s45 89.333 45 154z" />
    <glyph glyph-name="p" unicode="p" horiz-adv-x="583" 
d="M151 93c6 -4.66699 13.5 -9.66797 22.5 -15.001s19.5 -10.333 31.5 -15s25 -8.5 39 -11.5s28.667 -4.5 44 -4.5c32 0 58.833 5.5 80.5 16.5s39.167 26 52.5 45s23 41.333 29 67s9 52.834 9 81.501c0 68 -17 120.167 -51 156.5s-79 54.5 -135 54.5
c-32 0 -57.833 -1.5 -77.5 -4.5s-34.5 -6.16699 -44.5 -9.5v-361zM151 -185.001l-64.999 -0.00292969v684c19.333 6.66699 44 13 74 19s68 9 114 9c38 0 72.5 -6.16699 103.5 -18.5s57.667 -30.166 80 -53.499s39.666 -51.666 51.999 -84.999s18.5 -71 18.5 -113
c0 -39.333 -5.16699 -75.5 -15.5 -108.5s-25.5 -61.333 -45.5 -85s-44.5 -42.167 -73.5 -55.5s-62.167 -20 -99.5 -20c-34 0 -63.5 4.83301 -88.5 14.5s-43.167 18.834 -54.5 27.501v-215z" />
    <glyph glyph-name="q" unicode="q" horiz-adv-x="583" 
d="M432 454c-10 3.33301 -24.833 6.50098 -44.5 9.50098s-45.5 4.5 -77.5 4.5c-56 0 -101 -18.167 -135 -54.5s-51 -88.5 -51 -156.5c0 -28.667 3 -55.834 9 -81.501s15.667 -48 29 -67s30.833 -34 52.5 -45s48.5 -16.5 80.5 -16.5c15.333 0 30 1.5 44 4.5
s27 6.83301 39 11.5s22.5 9.66699 31.5 15s16.5 10.333 22.5 15v361zM432 30.001c-11.333 -8.66699 -29.499 -17.8311 -54.499 -27.498s-54.5 -14.5 -88.5 -14.5c-37.333 0 -70.5 6.66699 -99.5 20s-53.5 31.833 -73.5 55.5s-35.167 52 -45.5 85s-15.5 69.167 -15.5 108.5
c0 42 6.16699 79.667 18.5 113s29.666 61.666 51.999 84.999s49 41.166 80 53.499s65.5 18.5 103.5 18.5c46 0 84 -3 114 -9s54.667 -12.333 74 -19v-684h-65v215z" />
    <glyph glyph-name="r" unicode="r" horiz-adv-x="374" 
d="M262 527c21.333 0 41.499 -1.66797 60.499 -5.00098s32.167 -6.66602 39.5 -9.99902l-13 -56c-5.33301 2.66699 -16.166 5.5 -32.499 8.5s-37.833 4.5 -64.5 4.5c-28 0 -50.5 -2 -67.5 -6s-28.167 -7.33301 -33.5 -10v-453h-65v493c16.667 7.33301 39.667 14.833 69 22.5
s65 11.5 107 11.5z" />
    <glyph glyph-name="s" unicode="s" horiz-adv-x="428" 
d="M192 46c37.333 0 68.165 6.16992 92.498 18.5029s36.5 33.166 36.5 62.499c0 14 -2.16699 26 -6.5 36s-11.5 19 -21.5 27s-23.167 15.667 -39.5 23s-36.5 16 -60.5 26c-19.333 8 -37.666 16.167 -54.999 24.5s-32.666 18 -45.999 29s-24 24.167 -32 39.5s-12 34 -12 56
c0 42 15.833 76 47.5 102s75.167 39 130.5 39c35.333 0 64.5 -3 87.5 -9s39.167 -11.333 48.5 -16l-15 -58c-8 4 -21.5 9.33301 -40.5 16s-46.833 10 -83.5 10c-14.667 0 -28.5 -1.5 -41.5 -4.5s-24.5 -7.66699 -34.5 -14s-18 -14.333 -24 -24s-9 -21.5 -9 -35.5
s2.66699 -26 8 -36s13.166 -18.833 23.499 -26.5s23 -14.834 38 -21.501s32.167 -14 51.5 -22c20 -8 39.167 -16.167 57.5 -24.5s34.5 -18.333 48.5 -30s25.333 -25.667 34 -42s13 -36.833 13 -61.5c0 -46.667 -17.5 -82 -52.5 -106s-82.833 -36 -143.5 -36
c-45.333 0 -80 3.83301 -104 11.5s-40 13.5 -48 17.5l17 59c2 -1.33301 6.33301 -3.5 13 -6.5s15.667 -6.33301 27 -10s24.833 -6.83398 40.5 -9.50098s33.834 -4 54.501 -4z" />
    <glyph glyph-name="t" unicode="t" horiz-adv-x="387" 
d="M147 517h205.999v-55h-206v-275c0 -29.333 2.5 -53.166 7.5 -71.499s12.167 -32.5 21.5 -42.5s20.666 -16.667 33.999 -20s28 -5 44 -5c27.333 0 49.333 3.16699 66 9.5s29.667 12.166 39 17.499l16 -54c-9.33301 -6 -25.666 -12.833 -48.999 -20.5
s-48.666 -11.5 -75.999 -11.5c-32 0 -58.833 4.16699 -80.5 12.5s-39 21 -52 38s-22.167 38.167 -27.5 63.5s-8 55.333 -8 90v476l65 12v-164z" />
    <glyph glyph-name="u" unicode="u" horiz-adv-x="569" 
d="M483 18c-19.333 -5.33301 -45.334 -11.332 -78.001 -17.999s-72.667 -10 -120 -10c-38.667 0 -71 5.66699 -97 17s-47 27.333 -63 48s-27.5 45.667 -34.5 75s-10.5 61.666 -10.5 96.999v290h65v-269c0 -36.667 2.66699 -67.667 8 -93s14 -45.833 26 -61.5
s27.5 -27 46.5 -34s42.167 -10.5 69.5 -10.5c30.667 0 57.334 1.66699 80.001 5s37 6.33301 43 9v454h65v-499z" />
    <glyph glyph-name="v" unicode="v" horiz-adv-x="480" 
d="M242 70c14 28.667 28.3281 61.5 42.9951 98.5s28.834 75.333 42.501 115s26.334 79.667 38.001 120s21.5 78.166 29.5 113.499h65c-12 -47.333 -25.333 -94 -40 -140s-30.167 -91 -46.5 -135s-33.333 -86.333 -51 -127s-34.834 -79 -51.501 -115h-62
c-17.333 36 -34.666 74.333 -51.999 115s-34.166 83 -50.499 127s-31.833 89 -46.5 135s-28 92.667 -40 140h69c8 -35.333 17.833 -73.166 29.5 -113.499s24.334 -80.333 38.001 -120s27.834 -78 42.501 -115s29 -69.833 43 -98.5z" />
    <glyph glyph-name="w" unicode="w" horiz-adv-x="775" 
d="M419 517c6 -33.333 13.8311 -68.832 23.498 -106.499s20.334 -76 32.001 -115s24 -77.5 37 -115.5s26.167 -73.667 39.5 -107c11.333 25.333 23.333 56.166 36 92.499s25.334 74.666 38.001 114.999s24.5 81 35.5 122s20.167 79.167 27.5 114.5h64
c-24 -101.333 -50.167 -194 -78.5 -278s-59.5 -163.667 -93.5 -239h-61c-10 23.333 -20.5 49.5 -31.5 78.5s-22.333 60 -34 93s-23 67.667 -34 104s-21.5 73.5 -31.5 111.5c-10 -38 -20.5 -75.167 -31.5 -111.5s-22.333 -71 -34 -104s-23 -64 -34 -93
s-21.5 -55.167 -31.5 -78.5h-62c-34 75.333 -65.167 155 -93.5 239s-54.5 176.667 -78.5 278h69c7.33301 -35.333 16.5 -73.5 27.5 -114.5s22.833 -81.667 35.5 -122s25.5 -78.5 38.5 -114.5s25.167 -66.667 36.5 -92c12.667 33.333 25.5 69 38.5 107
s25.167 76.333 36.5 115s22 76.834 32 114.501s18.667 73.167 26 106.5h56z" />
    <glyph glyph-name="x" unicode="x" horiz-adv-x="499" 
d="M248 234c-14.667 -19.333 -29.332 -39.665 -43.999 -60.998s-28.834 -42.333 -42.501 -63s-26.167 -40.5 -37.5 -59.5s-21 -35.833 -29 -50.5h-67c27.333 51.333 56 99.166 86 143.499s60.667 87.833 92 130.5l-168 243h76l134 -198l136 198h71l-165 -239
c14 -18.667 29 -39 45 -61s32 -44.833 48 -68.5s31.5 -48.167 46.5 -73.5s28.833 -50.333 41.5 -75h-70c-8 14.667 -17.667 31.5 -29 50.5s-23.833 38.833 -37.5 59.5s-28 41.667 -43 63s-29.5 41.666 -43.5 60.999z" />
    <glyph glyph-name="y" unicode="y" horiz-adv-x="474" 
d="M227 -11c-22 40.667 -43.1621 83 -63.4951 127s-39.333 88.5 -57 133.5s-33.834 90 -48.501 135s-27.334 89.167 -38.001 132.5h69c7.33301 -32 16.666 -66.5 27.999 -103.5s24.166 -75.167 38.499 -114.5s30.166 -79.666 47.499 -120.999s36 -82 56 -122
c14.667 41.333 27.667 80.333 39 117s21.833 73.167 31.5 109.5s19 73.5 28 111.5s18.5 79 28.5 123h65c-21.333 -96.667 -45.666 -190.667 -72.999 -282s-57 -175 -89 -251c-12.667 -30 -25.667 -55.833 -39 -77.5s-28.166 -39.5 -44.499 -53.5s-35.333 -24.333 -57 -31
s-47.167 -10 -76.5 -10c-16.667 0 -31.834 2 -45.501 6s-22.167 7 -25.5 9l13 54c2.66699 -2 10.167 -4.83301 22.5 -8.5s25.166 -5.5 38.499 -5.5c18.667 0 35.5 2 50.5 6s28.5 10.833 40.5 20.5s22.833 22.167 32.5 37.5s19.167 34.666 28.5 57.999z" />
    <glyph glyph-name="z" unicode="z" horiz-adv-x="455" 
d="M407 464c-15.333 -17.333 -35.333 -41.3311 -60 -71.998s-51 -64.834 -79 -102.501s-55.667 -77 -83 -118s-51.333 -79.833 -72 -116.5h303v-55h-378v47c17.333 32.667 38.833 68.667 64.5 108s52.167 78.166 79.5 116.499s54 74.333 80 108s48 61.167 66 82.5h-275v55
h354v-53z" />
    <glyph glyph-name="braceleft" unicode="{" horiz-adv-x="319" 
d="M132 289c10.667 -6 20.334 -13.165 29.001 -21.498s16 -18.833 22 -31.5s10.5 -28 13.5 -46s4.5 -39.333 4.5 -64v-107c0 -31.333 0.666992 -57.5 2 -78.5s5.5 -38 12.5 -51s17.833 -22.167 32.5 -27.5s35.667 -8 63 -8v-50h-8c-32 0 -58.667 3.66699 -80 11
s-38.166 18 -50.499 32s-21 31.333 -26 52s-7.5 44.667 -7.5 72v194c0 12 -1.83301 23.833 -5.5 35.5s-9.5 22.167 -17.5 31.5s-18 17 -30 23s-26.333 9 -43 9v49c16.667 0 31 3 43 9s22 13.667 30 23s13.833 19.833 17.5 31.5s5.5 23.5 5.5 35.5v194
c0 26.667 2.5 50.5 7.5 71.5s13.667 38.5 26 52.5s29.166 24.667 50.499 32s48 11 80 11h8v-50c-27.333 0 -48.333 -2.66699 -63 -8s-25.5 -14.5 -32.5 -27.5s-11.167 -30 -12.5 -51s-2 -47.167 -2 -78.5v-107c0 -24.667 -1.5 -45.834 -4.5 -63.501
s-7.5 -32.834 -13.5 -45.501s-13.333 -23.167 -22 -31.5s-18.334 -15.5 -29.001 -21.5z" />
    <glyph glyph-name="bar" unicode="|" horiz-adv-x="262" 
d="M100 783h62v-968h-62v968z" />
    <glyph glyph-name="braceright" unicode="}" horiz-adv-x="319" 
d="M187 289c-10.667 6 -20.334 13.165 -29.001 21.498s-16 18.833 -22 31.5s-10.5 27.834 -13.5 45.501s-4.5 38.834 -4.5 63.501v107c0 31.333 -0.666992 57.5 -2 78.5s-5.5 38 -12.5 51s-17.833 22.167 -32.5 27.5s-35.667 8 -63 8v50h8c32 0 58.667 -3.66699 80 -11
s38.166 -18 50.499 -32s21 -31.5 26 -52.5s7.5 -44.833 7.5 -71.5v-194c0 -12 1.83301 -23.833 5.5 -35.5s9.5 -22.167 17.5 -31.5s18 -17 30 -23s26.333 -9 43 -9v-49c-16.667 0 -31 -3 -43 -9s-22 -13.667 -30 -23s-13.833 -19.833 -17.5 -31.5s-5.5 -23.5 -5.5 -35.5
v-194c0 -27.333 -2.5 -51.333 -7.5 -72s-13.667 -38 -26 -52s-29.166 -24.667 -50.499 -32s-48 -11 -80 -11h-8v50c27.333 0 48.333 2.66699 63 8s25.5 14.5 32.5 27.5s11.167 30 12.5 51s2 47.167 2 78.5v107c0 24.667 1.5 46 4.5 64s7.5 33.333 13.5 46
s13.333 23.167 22 31.5s18.334 15.5 29.001 21.5z" />
    <glyph glyph-name="asciitilde" unicode="~" horiz-adv-x="564" 
d="M384 222c-22.667 0 -43.0029 4.66699 -61.0029 14s-35.167 19.666 -51.5 30.999s-32.333 21.666 -48 30.999s-32.167 14 -49.5 14c-12.667 0 -23.334 -3.16699 -32.001 -9.5s-15.834 -14 -21.501 -23s-10 -18 -13 -27s-5.16699 -16.167 -6.5 -21.5l-51 12
c2.66699 12 6.83398 25.167 12.501 39.5s13.334 27.666 23.001 39.999s22.167 22.666 37.5 30.999s34.333 12.5 57 12.5s43 -4.66699 61 -14s35.167 -19.666 51.5 -30.999s32.333 -21.666 48 -30.999s32.167 -14 49.5 -14c12.667 0 23.334 3.16699 32.001 9.5
s15.834 14 21.501 23s10 18 13 27s5.16699 16.167 6.5 21.5l51 -12c-3.33301 -12 -7.66602 -25.167 -12.999 -39.5s-12.833 -27.666 -22.5 -39.999s-22.167 -22.666 -37.5 -30.999s-34.333 -12.5 -57 -12.5z" />
    <glyph glyph-name="uni00A0" unicode="&#xa0;" horiz-adv-x="228" 
 />
    <glyph glyph-name="exclamdown" unicode="&#xa1;" horiz-adv-x="274" 
d="M172 -185l-70 -0.000976562v190c0 57.333 1.83301 108.333 5.5 153s8.5 89.334 14.5 134.001h30c2.66699 -22 5.16699 -44 7.5 -66s4.5 -44.667 6.5 -68s3.5 -47.5 4.5 -72.5s1.5 -51.833 1.5 -80.5v-190zM192 461.999c0 -15.333 -4.83301 -28.333 -14.5 -39
s-23.167 -16 -40.5 -16s-30.833 5.33301 -40.5 16s-14.5 23.667 -14.5 39s4.83301 28.333 14.5 39s23.167 16 40.5 16s30.833 -5.33301 40.5 -16s14.5 -23.667 14.5 -39z" />
    <glyph glyph-name="cent" unicode="&#xa2;" horiz-adv-x="564" 
d="M304 34c-32 4.66699 -60.333 14.332 -85 28.999s-45.167 33.167 -61.5 55.5s-28.833 48 -37.5 77s-13 60.5 -13 94.5s4.5 65.833 13.5 95.5s22 55.834 39 78.501s37.667 41.5 62 56.5s51.833 24.833 82.5 29.5v143h59v-141c20.667 0 40.5 -2.16699 59.5 -6.5
s37.833 -10.166 56.5 -17.499l-17 -55c-14 6 -30.5 11.333 -49.5 16s-38.833 7 -59.5 7c-58 0 -102 -17.167 -132 -51.5s-45 -85.833 -45 -154.5c0 -29.333 3.5 -56.333 10.5 -81s18 -46 33 -64s34.333 -32 58 -42s52.167 -15 85.5 -15c28 0 51.667 2.83301 71 8.5
s33.333 10.5 42 14.5l12 -54c-4 -2.66699 -10.5 -5.5 -19.5 -8.5s-19.167 -5.66699 -30.5 -8s-23.5 -4.33301 -36.5 -6s-25.833 -2.83398 -38.5 -3.50098v-140h-59v143z" />
    <glyph glyph-name="sterling" unicode="&#xa3;" horiz-adv-x="564" 
d="M242 364l201 0.00195312v-55h-201v-9c0 -39.333 -1.16699 -79.5 -3.5 -120.5s-6.83301 -81.833 -13.5 -122.5h303v-57h-379c7.33301 46 13.5 93.167 18.5 141.5s7.5 100.166 7.5 155.499v12h-96v55h96v96c0 49.333 5 90 15 122s24.167 57.167 42.5 75.5s40 31 65 38
s52.5 10.5 82.5 10.5c28 0 52.5 -2.83301 73.5 -8.5s39.167 -12.167 54.5 -19.5l-18 -59c-32.667 17.333 -72 26 -118 26c-20.667 0 -39.167 -2.66699 -55.5 -8s-30 -14.833 -41 -28.5s-19.333 -31.834 -25 -54.501s-8.5 -51 -8.5 -85v-105z" />
    <glyph glyph-name="currency" unicode="&#xa4;" horiz-adv-x="564" 
d="M95 347c0 22 3 42.833 9 62.5s14.667 37.167 26 52.5l-74 76l40 41l76 -78c15.333 11.333 32.333 20 51 26s38.334 9 59.001 9s40.334 -3 59.001 -9s35.667 -14.667 51 -26l76 78l40 -41l-74 -76c11.333 -15.333 20 -32.833 26 -52.5s9 -40.5 9 -62.5
s-3 -42.833 -9 -62.5s-14.667 -37.167 -26 -52.5l74 -76l-40 -41l-76 78c-15.333 -11.333 -32.333 -20 -51 -26s-38.334 -9 -59.001 -9s-40.334 3 -59.001 9s-35.667 14.667 -51 26l-76 -78l-40 41l74 76c-11.333 15.333 -20 32.833 -26 52.5s-9 40.5 -9 62.5zM411 347
c0 20 -3.33301 38.333 -10 55s-15.834 31 -27.501 43s-25.334 21.333 -41.001 28s-32.5 10 -50.5 10s-34.833 -3.33301 -50.5 -10s-29.334 -16 -41.001 -28s-20.834 -26.333 -27.501 -43s-10 -35 -10 -55s3.33301 -38.333 10 -55s15.834 -31 27.501 -43
s25.334 -21.333 41.001 -28s32.5 -10 50.5 -10s34.833 3.33301 50.5 10s29.334 16 41.001 28s20.834 26.333 27.501 43s10 35 10 55z" />
    <glyph glyph-name="yen" unicode="&#xa5;" horiz-adv-x="564" 
d="M250 0v115h-163v53h163v119h-163v53h149c-40 62 -77 121.833 -111 179.5s-65.333 115.5 -94 173.5h69c26 -55.333 54.667 -110.166 86 -164.499s64 -106.833 98 -157.5c34 50.667 66.5 103.167 97.5 157.5s59.5 109.166 85.5 164.499h66
c-28.667 -58 -60.167 -115.833 -94.5 -173.5s-71.5 -117.5 -111.5 -179.5h151v-53h-163v-119h163v-53h-163v-115h-65z" />
    <glyph glyph-name="brokenbar" unicode="&#xa6;" horiz-adv-x="262" 
d="M100 191h62v-376h-62v376zM100 783h62v-376h-62v376z" />
    <glyph glyph-name="section" unicode="&#xa7;" horiz-adv-x="482" 
d="M72 -28c17.333 -7.33301 36.667 -14.1631 58 -20.4961s51.666 -9.5 90.999 -9.5c17.333 0 33.666 1.66699 48.999 5s28.833 8.5 40.5 15.5s20.834 15.833 27.501 26.5s10 23.667 10 39c0 14 -2.33301 26.333 -7 37s-12.167 20.334 -22.5 29.001
s-23.666 16.667 -39.999 24s-35.833 15 -58.5 23c-23.333 8 -45.5 16.167 -66.5 24.5s-39.333 18.666 -55 30.999s-28.167 27.5 -37.5 45.5s-14 40.333 -14 67c0 18.667 3.16699 35.834 9.5 51.501s14.166 29.5 23.499 41.5s19.833 22.333 31.5 31s22.5 16 32.5 22
c-20 14.667 -34.833 30.5 -44.5 47.5s-14.5 37.833 -14.5 62.5c0 44 14.833 78.833 44.5 104.5s73.5 38.5 131.5 38.5c40 0 71.667 -3.16699 95 -9.5s40 -11.5 50 -15.5l-16 -53c-11.333 5.33301 -27.5 11.166 -48.5 17.499s-48.167 9.5 -81.5 9.5
c-32.667 0 -59.667 -6.5 -81 -19.5s-32 -33.5 -32 -61.5c0 -27.333 8.83301 -48.666 26.5 -63.999s47.167 -29.333 88.5 -42c22 -7.33301 43.333 -15 64 -23s39.334 -18.167 56.001 -30.5s30 -27.833 40 -46.5s15 -42 15 -70c0 -16.667 -2.66699 -32.334 -8 -47.001
s-12.5 -28.334 -21.5 -41.001s-19.333 -23.834 -31 -33.501s-23.5 -17.834 -35.5 -24.501c22 -13.333 39.167 -30 51.5 -50s18.5 -42.333 18.5 -67c0 -48 -17.833 -84.333 -53.5 -109s-83.5 -37 -143.5 -37c-40 0 -72.5 3.16699 -97.5 9.5s-45.167 13.166 -60.5 20.499z
M227.001 420.003c-7.33301 2.66699 -14.501 5.16992 -21.501 7.50293s-12.167 4.16602 -15.5 5.49902c-23.333 -12 -42.666 -27.333 -57.999 -46s-23 -42 -23 -70c0 -19.333 3.83301 -35.333 11.5 -48s18.167 -23.667 31.5 -33s29 -17.5 47 -24.5s37.333 -13.833 58 -20.5
c6.66699 -2 13.667 -4.33301 21 -7s13.333 -5 18 -7c25.333 12.667 44.833 29.667 58.5 51s20.5 43.666 20.5 66.999c0 18.667 -4.33301 34.667 -13 48s-20 24.666 -34 33.999s-29.833 17.333 -47.5 24s-35.5 13 -53.5 19z" />
    <glyph glyph-name="dieresis" unicode="&#xa8;" 
d="M148 673c0 -14.667 -4.33301 -26.334 -13 -35.001s-19.667 -13 -33 -13s-24.333 4.33301 -33 13s-13 20.334 -13 35.001s4.33301 26.334 13 35.001s19.667 13 33 13s24.333 -4.33301 33 -13s13 -20.334 13 -35.001zM320 673c0 -14.667 -4.33301 -26.334 -13 -35.001
s-19.667 -13 -33 -13s-24.333 4.33301 -33 13s-13 20.334 -13 35.001s4.33301 26.334 13 35.001s19.667 13 33 13s24.333 -4.33301 33 -13s13 -20.334 13 -35.001z" />
    <glyph glyph-name="copyright" unicode="&#xa9;" horiz-adv-x="826" 
d="M418 142c-26 0 -50.165 4.66699 -72.498 14s-41.833 22.666 -58.5 39.999s-29.667 38.833 -39 64.5s-14 54.834 -14 87.501c0 32 5.16699 60.5 15.5 85.5s24.166 46.333 41.499 64s37.333 31 60 40s46.334 13.5 71.001 13.5c32.667 0 59.167 -4.5 79.5 -13.5
s34.166 -16.167 41.499 -21.5l-19 -45c-10 5.33301 -22.833 11.166 -38.5 17.499s-36.834 9.5 -63.501 9.5c-36.667 0 -67.167 -13 -91.5 -39s-36.5 -63 -36.5 -111c0 -49.333 11.833 -87.166 35.5 -113.499s55.834 -39.5 96.501 -39.5c28.667 0 51.167 3.16699 67.5 9.5
s28.166 11.833 35.499 16.5l17 -48c-8.66699 -5.33301 -24 -11.833 -46 -19.5s-49.333 -11.5 -82 -11.5zM752.002 347c0 -57.333 -9.33301 -108.333 -28 -153s-43.5 -82.5 -74.5 -113.5s-67 -54.667 -108 -71s-83.833 -24.5 -128.5 -24.5s-87.5 8.16699 -128.5 24.5
s-77 40 -108 71s-55.833 68.833 -74.5 113.5s-28 95.667 -28 153c0 56.667 9.33301 107.5 28 152.5s43.5 82.833 74.5 113.5s67 54.167 108 70.5s83.833 24.5 128.5 24.5s87.5 -8.16699 128.5 -24.5s77 -39.833 108 -70.5s55.833 -68.5 74.5 -113.5s28 -95.833 28 -152.5z
M693.002 347c0 46 -7 88 -21 126s-33.333 70.5 -58 97.5s-54.167 47.833 -88.5 62.5s-71.833 22 -112.5 22s-78.167 -7.33301 -112.5 -22s-63.833 -35.5 -88.5 -62.5s-44 -59.5 -58 -97.5s-21 -80 -21 -126s7 -88 21 -126s33.333 -70.5 58 -97.5s54.167 -48 88.5 -63
s71.833 -22.5 112.5 -22.5s78.167 7.5 112.5 22.5s63.833 36 88.5 63s44 59.5 58 97.5s21 80 21 126z" />
    <glyph glyph-name="ordfeminine" unicode="&#xaa;" horiz-adv-x="386" 
d="M195 379c14.667 0 29.001 0.500977 43.001 1.50098s24.667 2.16699 32 3.5v120c-8.66699 1.33301 -18.667 2.66602 -30 3.99902s-23 2 -35 2c-14 0 -27.333 -1 -40 -3s-23.834 -5.33301 -33.501 -10s-17.167 -11.167 -22.5 -19.5s-8 -18.5 -8 -30.5
c0 -21.333 6.66699 -38 20 -50s38 -18 74 -18zM189.001 704.001c24.667 0 45.667 -3.16797 63 -9.50098s31.333 -15.333 42 -27s18.334 -25.667 23.001 -42s7 -34.166 7 -53.499v-226c-8 -2 -17.5 -3.83301 -28.5 -5.5s-22.333 -3.16699 -34 -4.5
s-23.334 -2.33301 -35.001 -3s-21.834 -1 -30.501 -1c-44.667 0 -80.834 8.83301 -108.501 26.5s-41.5 45.834 -41.5 84.501c0 20 4.16699 37.167 12.5 51.5s19.666 26 33.999 35s31 15.667 50 20s39.167 6.5 60.5 6.5c7.33301 0 17 -0.666992 29 -2s24.667 -3.33301 38 -6
v9c0 12 -0.666992 23.833 -2 35.5s-4.66602 22.167 -9.99902 31.5s-13.5 17 -24.5 23s-25.833 9 -44.5 9c-17.333 0 -34.166 -0.833008 -50.499 -2.5s-31.166 -4.83398 -44.499 -9.50098l-7 46c11.333 3.33301 25.833 6.5 43.5 9.5s37.167 4.5 58.5 4.5z" />
    <glyph glyph-name="guillemotleft" unicode="&#xab;" horiz-adv-x="452" 
d="M188 72l-152 212l152 211l41 -26l-116 -185l116 -186zM365 72l-152 212l152 211l41 -26l-116 -185l116 -186z" />
    <glyph glyph-name="logicalnot" unicode="&#xac;" horiz-adv-x="564" 
d="M508 48h-58v276h-394v56h452v-332z" />
    <glyph glyph-name="uni00AD" unicode="&#xad;" horiz-adv-x="282" 
d="M28 321h226v-63h-226v63z" />
    <glyph glyph-name="registered" unicode="&#xae;" horiz-adv-x="826" 
d="M521 149c-17.333 31.333 -35.334 61.165 -54.001 89.498s-35 50.833 -49 67.5c-4.66699 -0.666992 -9 -1 -13 -1h-11h-63v-156h-55v387c15.333 3.33301 32.5 6 51.5 8s36.833 3 53.5 3c56.667 0 99.834 -10.333 129.501 -31s44.5 -52 44.5 -94
c0 -24 -6.66699 -45.5 -20 -64.5s-33 -33.167 -59 -42.5c5.33301 -6 12.5 -15.167 21.5 -27.5s18.5 -26.166 28.5 -41.499s20 -31.666 30 -48.999s18.667 -33.333 26 -48h-61zM330.999 349.999h49.998c16.667 0 32 1 46 3s26.167 5.83301 36.5 11.5s18.333 13.167 24 22.5
s8.5 21.333 8.5 36c0 14 -3.16699 25.833 -9.5 35.5s-14.666 17.5 -24.999 23.5s-22.166 10.333 -35.499 13s-27.333 4 -42 4c-10 0 -19.5 -0.166992 -28.5 -0.5s-17.167 -0.833008 -24.5 -1.5v-147zM751.997 346.999c0 -57.333 -9.33301 -108.333 -28 -153
s-43.5 -82.5 -74.5 -113.5s-67 -54.667 -108 -71s-83.833 -24.5 -128.5 -24.5s-87.5 8.16699 -128.5 24.5s-77 40 -108 71s-55.833 68.833 -74.5 113.5s-28 95.667 -28 153c0 56.667 9.33301 107.5 28 152.5s43.5 82.833 74.5 113.5s67 54.167 108 70.5
s83.833 24.5 128.5 24.5s87.5 -8.16699 128.5 -24.5s77 -39.833 108 -70.5s55.833 -68.5 74.5 -113.5s28 -95.833 28 -152.5zM692.997 346.999c0 46 -7 88 -21 126s-33.333 70.5 -58 97.5s-54.167 47.833 -88.5 62.5s-71.833 22 -112.5 22s-78.167 -7.33301 -112.5 -22
s-63.833 -35.5 -88.5 -62.5s-44 -59.5 -58 -97.5s-21 -80 -21 -126s7 -88 21 -126s33.333 -70.5 58 -97.5s54.167 -48 88.5 -63s71.833 -22.5 112.5 -22.5s78.167 7.5 112.5 22.5s63.833 36 88.5 63s44 59.5 58 97.5s21 80 21 126z" />
    <glyph glyph-name="macron" unicode="&#xaf;" 
d="M56 649v55h265v-55h-265z" />
    <glyph glyph-name="degree" unicode="&#xb0;" horiz-adv-x="318" 
d="M159 511c-17.333 0 -33.833 3 -49.5 9s-29.5 14.5 -41.5 25.5s-21.5 24.667 -28.5 41s-10.5 34.833 -10.5 55.5s3.5 39.167 10.5 55.5s16.5 30 28.5 41s25.833 19.5 41.5 25.5s32.167 9 49.5 9s33.833 -3 49.5 -9s29.5 -14.5 41.5 -25.5s21.5 -24.667 28.5 -41
s10.5 -34.833 10.5 -55.5s-3.5 -39.167 -10.5 -55.5s-16.5 -30 -28.5 -41s-25.833 -19.5 -41.5 -25.5s-32.167 -9 -49.5 -9zM159 556c23.333 0 42.833 7.66699 58.5 23s23.5 36.333 23.5 63s-7.83301 47.667 -23.5 63s-35.167 23 -58.5 23s-42.833 -7.66699 -58.5 -23
s-23.5 -36.333 -23.5 -63s7.83301 -47.667 23.5 -63s35.167 -23 58.5 -23z" />
    <glyph glyph-name="plusminus" unicode="&#xb1;" horiz-adv-x="564" 
d="M56 56h452v-56h-452v56zM56 401h197v217h58v-217h197v-56h-197v-217h-58v217h-197v56z" />
    <glyph glyph-name="twosuperior" unicode="&#xb2;" horiz-adv-x="359" 
d="M284 600c0 -14 -2.5 -27.002 -7.5 -39.002s-11.5 -23.167 -19.5 -33.5s-17.167 -20.166 -27.5 -29.499s-21.166 -18.333 -32.499 -27c-17.333 -14 -31.5 -26.333 -42.5 -37s-19.667 -20 -26 -28s-10.666 -15.333 -12.999 -22s-3.5 -13 -3.5 -19h191v-48h-248
c-0.666992 3.33301 -1 6.66602 -1 9.99902v10c0 20 3.33301 37.833 10 53.5s15.167 30 25.5 43s21.833 25 34.5 36s25 22.167 37 33.5c9.33301 8 18 15.5 26 22.5s15 14.333 21 22s10.833 15.834 14.5 24.501s5.5 18.667 5.5 30c0 22 -6.66699 37.167 -20 45.5
s-29 12.5 -47 12.5c-11.333 0 -21.833 -1.5 -31.5 -4.5s-18.5 -6.66699 -26.5 -11s-14.833 -8.66602 -20.5 -12.999s-9.83398 -7.83301 -12.501 -10.5l-27 38c11.333 12 27.166 23.167 47.499 33.5s45.5 15.5 75.5 15.5c37.333 0 66.333 -9 87 -27s31 -45 31 -81z" />
    <glyph glyph-name="threesuperior" unicode="&#xb3;" horiz-adv-x="359" 
d="M146 357c38 0 63.6719 6.50195 77.0049 19.502s20 29.167 20 48.5c0 14 -3.33301 25.667 -10 35s-15.334 17 -26.001 23s-23.167 10.167 -37.5 12.5s-28.833 3.5 -43.5 3.5h-13v45h15c12 0 23.833 0.833008 35.5 2.5s21.834 5 30.501 10s15.667 11.5 21 19.5
s8 18.667 8 32c0 19.333 -6.16699 33 -18.5 41s-28.833 12 -49.5 12c-21.333 0 -39.333 -3.16699 -54 -9.5s-26.334 -12.5 -35.001 -18.5l-20 42c7.33301 6 20.666 13 39.999 21s43 12 71 12c43.333 0 74.166 -8.83301 92.499 -26.5s27.5 -40.5 27.5 -68.5
c0 -41.333 -20.333 -70.333 -61 -87c24.667 -7.33301 44.667 -19.333 60 -36s23 -39 23 -67c0 -15.333 -2.83301 -29.833 -8.5 -43.5s-14.5 -25.834 -26.5 -36.501s-27.5 -19 -46.5 -25s-41.833 -9 -68.5 -9c-25.333 0 -46.333 2.16699 -63 6.5
s-30.334 9.16602 -41.001 14.499l13 47c9.33301 -4.66699 21.166 -9.16699 35.499 -13.5s31.833 -6.5 52.5 -6.5z" />
    <glyph glyph-name="acute" unicode="&#xb4;" 
d="M316 722l-171 -139l-33 38l158 152z" />
    <glyph glyph-name="mu" unicode="&#xb5;" horiz-adv-x="575" 
d="M291 -10c-38 0 -68.6689 5.00098 -92.002 15.001s-41.666 23.667 -54.999 41c2.66699 -21.333 4.16699 -42.833 4.5 -64.5s0.5 -41.834 0.5 -60.501v-106h-63v702h65v-269c0 -36.667 2.66699 -67.667 8 -93s14 -45.833 26 -61.5s27.5 -27 46.5 -34
s42.167 -10.5 69.5 -10.5c30.667 0 57.334 1.66699 80.001 5s37 6.33301 43 9v454h65v-499c-19.333 -5.33301 -45.333 -11.333 -78 -18s-72.667 -10 -120 -10z" />
    <glyph glyph-name="paragraph" unicode="&#xb6;" horiz-adv-x="616" 
d="M457 638c-9.33301 1.33301 -21.832 2.49902 -37.499 3.49902s-29.834 1.5 -42.501 1.5c-5.33301 0 -11 -0.166992 -17 -0.5s-10.667 -0.833008 -14 -1.5v-826h-58v449c-36.667 2.66699 -70 9 -100 19s-55.5 23.833 -76.5 41.5s-37.167 39.334 -48.5 65.001
s-17 55.834 -17 90.501c0 36.667 7.83301 68.667 23.5 96s37.5 50.166 65.5 68.499s61.5 32 100.5 41s81.833 13.5 128.5 13.5c21.333 0 46 -0.833008 74 -2.5s53.667 -5.16699 77 -10.5v-871h-58v823z" />
    <glyph glyph-name="periodcentered" unicode="&#xb7;" horiz-adv-x="246" 
d="M178 294c0 -15.333 -4.83301 -28.333 -14.5 -39s-23.167 -16 -40.5 -16s-30.833 5.33301 -40.5 16s-14.5 23.667 -14.5 39s4.83301 28.333 14.5 39s23.167 16 40.5 16s30.833 -5.33301 40.5 -16s14.5 -23.667 14.5 -39z" />
    <glyph glyph-name="cedilla" unicode="&#xb8;" 
d="M206 -36c18.667 -8 33.5029 -17.834 44.5029 -29.501s16.5 -27.167 16.5 -46.5c0 -8 -1.33301 -16.5 -4 -25.5s-7.66699 -17.167 -15 -24.5s-17.333 -13.333 -30 -18s-29 -7 -49 -7c-13.333 0 -27 1.16699 -41 3.5s-24 5.16602 -30 8.49902l8 43
c7.33301 -3.33301 15.666 -5.66602 24.999 -6.99902s20.666 -2 33.999 -2c27.333 0 41 9.66699 41 29c0 11.333 -4.66699 20 -14 26s-24 13 -44 21c2 6.66699 5 14.334 9 23.001s8 17 12 25s7.83301 15.333 11.5 22s6.5 11.667 8.5 15h46
c-4.66699 -7.33301 -9.83398 -16.5 -15.501 -27.5s-10.167 -20.5 -13.5 -28.5z" />
    <glyph glyph-name="onesuperior" unicode="&#xb9;" horiz-adv-x="359" 
d="M74 578l-13 42.001c23.333 7.33301 46.666 17.5 69.999 30.5s43.333 29.167 60 48.5h37v-382h-54v304c-7.33301 -5.33301 -15.833 -10.333 -25.5 -15s-19.167 -9 -28.5 -13s-18.166 -7.33301 -26.499 -10s-14.833 -4.33398 -19.5 -5.00098z" />
    <glyph glyph-name="ordmasculine" unicode="&#xba;" horiz-adv-x="437" 
d="M391 518c0 -28 -4.33301 -53.5 -13 -76.5s-20.667 -42.667 -36 -59s-33.666 -29 -54.999 -38s-44.333 -13.5 -69 -13.5s-47.5 4.5 -68.5 13.5s-39.167 21.667 -54.5 38s-27.333 36 -36 59s-13 48.5 -13 76.5s4.33301 53.5 13 76.5s20.667 42.667 36 59s33.5 29 54.5 38
s43.833 13.5 68.5 13.5s47.667 -4.5 69 -13.5s39.666 -21.667 54.999 -38s27.333 -36 36 -59s13 -48.5 13 -76.5zM332 518c0 42 -10.333 75.5 -31 100.5s-48.334 37.5 -83.001 37.5c-34 0 -61.333 -12.5 -82 -37.5s-31 -58.5 -31 -100.5s10.333 -75.5 31 -100.5
s48 -37.5 82 -37.5c34.667 0 62.334 12.5 83.001 37.5s31 58.5 31 100.5z" />
    <glyph glyph-name="guillemotright" unicode="&#xbb;" horiz-adv-x="452" 
d="M46 98l116 186l-116 185l41 26l152 -211l-152 -212zM223 98l116 186l-116 185l41 26l152 -211l-152 -212z" />
    <glyph glyph-name="onequarter" unicode="&#xbc;" horiz-adv-x="874" 
d="M74 578l-13 42.001c23.333 7.33301 46.666 17.5 69.999 30.5s43.333 29.167 60 48.5h37v-382h-54v304c-7.33301 -5.33301 -15.833 -10.333 -25.5 -15s-19.167 -9 -28.5 -13s-18.166 -7.33301 -26.499 -10s-14.833 -4.33398 -19.5 -5.00098zM601 693.001h66l-395 -693h-66
zM840 141.001l-0.000976562 -43.999h-51v-96h-53v96h-188v33c6.66699 13.333 16.834 31 30.501 53s29.334 45.333 47.001 70s36.667 48.667 57 72s40.166 42.666 59.499 57.999h47v-242h51zM735.999 141.002l0.000976562 178.997
c-11.333 -11.333 -23.333 -24.666 -36 -39.999s-24.834 -31.166 -36.501 -47.499s-22.667 -32.666 -33 -48.999s-18.833 -30.5 -25.5 -42.5h131z" />
    <glyph glyph-name="onehalf" unicode="&#xbd;" horiz-adv-x="874" 
d="M74 578l-13 42.001c23.333 7.33301 46.666 17.5 69.999 30.5s43.333 29.167 60 48.5h37v-382h-54v304c-7.33301 -5.33301 -15.833 -10.333 -25.5 -15s-19.167 -9 -28.5 -13s-18.166 -7.33301 -26.499 -10s-14.833 -4.33398 -19.5 -5.00098zM580 693.001h66l-395 -693h-66
zM799 284.001c0 -14 -2.5 -27.002 -7.5 -39.002s-11.5 -23.167 -19.5 -33.5s-17.167 -20.166 -27.5 -29.499s-21.166 -18.333 -32.499 -27c-17.333 -14 -31.5 -26.333 -42.5 -37s-19.667 -20 -26 -28s-10.666 -15.333 -12.999 -22s-3.5 -13 -3.5 -19h191v-48h-248
c-0.666992 3.33301 -1 6.66602 -1 9.99902v10c0 20 3.33301 37.833 10 53.5s15.167 30 25.5 43s21.833 25 34.5 36s25 22.167 37 33.5c9.33301 8 18 15.5 26 22.5s15 14.333 21 22s10.833 15.834 14.5 24.501s5.5 18.667 5.5 30c0 22 -6.66699 37.167 -20 45.5
s-29 12.5 -47 12.5c-11.333 0 -21.833 -1.5 -31.5 -4.5s-18.5 -6.66699 -26.5 -11s-14.833 -8.66602 -20.5 -12.999s-9.83398 -7.83301 -12.501 -10.5l-27 38c11.333 12 27.166 23.167 47.499 33.5s45.5 15.5 75.5 15.5c37.333 0 66.333 -9 87 -27s31 -45 31 -81z" />
    <glyph glyph-name="threequarters" unicode="&#xbe;" horiz-adv-x="874" 
d="M146 357c38 0 63.6719 6.50195 77.0049 19.502s20 29.167 20 48.5c0 14 -3.33301 25.667 -10 35s-15.334 17 -26.001 23s-23.167 10.167 -37.5 12.5s-28.833 3.5 -43.5 3.5h-13v45h15c12 0 23.833 0.833008 35.5 2.5s21.834 5 30.501 10s15.667 11.5 21 19.5
s8 18.667 8 32c0 19.333 -6.16699 33 -18.5 41s-28.833 12 -49.5 12c-21.333 0 -39.333 -3.16699 -54 -9.5s-26.334 -12.5 -35.001 -18.5l-20 42c7.33301 6 20.666 13 39.999 21s43 12 71 12c43.333 0 74.166 -8.83301 92.499 -26.5s27.5 -40.5 27.5 -68.5
c0 -41.333 -20.333 -70.333 -61 -87c24.667 -7.33301 44.667 -19.333 60 -36s23 -39 23 -67c0 -15.333 -2.83301 -29.833 -8.5 -43.5s-14.5 -25.834 -26.5 -36.501s-27.5 -19 -46.5 -25s-41.833 -9 -68.5 -9c-25.333 0 -46.333 2.16699 -63 6.5
s-30.334 9.16602 -41.001 14.499l13 47c9.33301 -4.66699 21.166 -9.16699 35.499 -13.5s31.833 -6.5 52.5 -6.5zM616.005 693.002h66l-395 -693h-66zM840.005 141.002l-0.000976562 -43.999h-51v-96h-53v96h-188v33c6.66699 13.333 16.834 31 30.501 53
s29.334 45.333 47.001 70s36.667 48.667 57 72s40.166 42.666 59.499 57.999h47v-242h51zM736.004 141.003l0.000976562 178.997c-11.333 -11.333 -23.333 -24.666 -36 -39.999s-24.834 -31.166 -36.501 -47.499s-22.667 -32.666 -33 -48.999s-18.833 -30.5 -25.5 -42.5h131
z" />
    <glyph glyph-name="questiondown" unicode="&#xbf;" horiz-adv-x="380" 
d="M99 -39c0 -17.333 3.33496 -31.667 10.002 -43s15.5 -20.333 26.5 -27s24 -11.5 39 -14.5s30.833 -4.5 47.5 -4.5c44 0 84.667 10 122 30l19 -54c-14 -8 -34.167 -15.667 -60.5 -23s-55.5 -11 -87.5 -11c-36 0 -65.833 4.5 -89.5 13.5s-42.667 20.333 -57 34
s-24.333 28.834 -30 45.501s-8.5 32.667 -8.5 48c0 22.667 4.16699 43.334 12.5 62.001s18.833 36 31.5 52s26.5 31.667 41.5 47s28.833 31 41.5 47s23.167 33.167 31.5 51.5s12.5 38.833 12.5 61.5v8.5c0 1.66699 -0.333008 4.16699 -1 7.5h51
c2.66699 -11.333 4 -23.666 4 -36.999c0 -21.333 -3.83301 -40.833 -11.5 -58.5s-17.334 -34.167 -29.001 -49.5s-24.167 -30.333 -37.5 -45s-25.833 -29.334 -37.5 -44.001s-21.334 -29.834 -29.001 -45.501s-11.5 -32.834 -11.5 -51.501zM274.002 461.999
c0 -15.333 -4.83301 -28.333 -14.5 -39s-23.167 -16 -40.5 -16s-30.833 5.33301 -40.5 16s-14.5 23.667 -14.5 39s4.83301 28.333 14.5 39s23.167 16 40.5 16s30.833 -5.33301 40.5 -16s14.5 -23.667 14.5 -39z" />
    <glyph glyph-name="Agrave" unicode="&#xc0;" horiz-adv-x="641" 
d="M556 0c-12.667 34 -24.665 66.667 -35.998 98s-22.333 62 -33 92h-337c-11.333 -30 -22.666 -60.667 -33.999 -92s-23 -64 -35 -98h-71c26.667 72 51.667 139.167 75 201.5s46.166 121.333 68.499 177s44.5 109.167 66.5 160.5s45.333 102.666 70 153.999h60
c24.667 -51.333 48 -102.666 70 -153.999s44.167 -104.833 66.5 -160.5s45.166 -114.667 68.499 -177s48.666 -129.5 75.999 -201.5h-75zM318.002 615c-25.333 -57.333 -49.833 -115.666 -73.5 -174.999s-48.167 -123.333 -73.5 -192h295
c-25.333 68.667 -50 132.667 -74 192s-48.667 117.666 -74 174.999zM228.002 929l158 -152l-33 -38l-171 139z" />
    <glyph glyph-name="Aacute" unicode="&#xc1;" horiz-adv-x="641" 
d="M556 0c-12.667 34 -24.665 66.667 -35.998 98s-22.333 62 -33 92h-337c-11.333 -30 -22.666 -60.667 -33.999 -92s-23 -64 -35 -98h-71c26.667 72 51.667 139.167 75 201.5s46.166 121.333 68.499 177s44.5 109.167 66.5 160.5s45.333 102.666 70 153.999h60
c24.667 -51.333 48 -102.666 70 -153.999s44.167 -104.833 66.5 -160.5s45.166 -114.667 68.499 -177s48.666 -129.5 75.999 -201.5h-75zM318.002 615c-25.333 -57.333 -49.833 -115.666 -73.5 -174.999s-48.167 -123.333 -73.5 -192h295
c-25.333 68.667 -50 132.667 -74 192s-48.667 117.666 -74 174.999zM458.002 878l-171 -139l-33 38l158 152z" />
    <glyph glyph-name="Acircumflex" unicode="&#xc2;" horiz-adv-x="641" 
d="M556 0c-12.667 34 -24.665 66.667 -35.998 98s-22.333 62 -33 92h-337c-11.333 -30 -22.666 -60.667 -33.999 -92s-23 -64 -35 -98h-71c26.667 72 51.667 139.167 75 201.5s46.166 121.333 68.499 177s44.5 109.167 66.5 160.5s45.333 102.666 70 153.999h60
c24.667 -51.333 48 -102.666 70 -153.999s44.167 -104.833 66.5 -160.5s45.166 -114.667 68.499 -177s48.666 -129.5 75.999 -201.5h-75zM318.002 615c-25.333 -57.333 -49.833 -115.666 -73.5 -174.999s-48.167 -123.333 -73.5 -192h295
c-25.333 68.667 -50 132.667 -74 192s-48.667 117.666 -74 174.999zM216.002 740l-28 31l132 147l132 -147l-28 -31l-104 96z" />
    <glyph glyph-name="Atilde" unicode="&#xc3;" horiz-adv-x="641" 
d="M556 0c-12.667 34 -24.665 66.667 -35.998 98s-22.333 62 -33 92h-337c-11.333 -30 -22.666 -60.667 -33.999 -92s-23 -64 -35 -98h-71c26.667 72 51.667 139.167 75 201.5s46.166 121.333 68.499 177s44.5 109.167 66.5 160.5s45.333 102.666 70 153.999h60
c24.667 -51.333 48 -102.666 70 -153.999s44.167 -104.833 66.5 -160.5s45.166 -114.667 68.499 -177s48.666 -129.5 75.999 -201.5h-75zM318.002 615c-25.333 -57.333 -49.833 -115.666 -73.5 -174.999s-48.167 -123.333 -73.5 -192h295
c-25.333 68.667 -50 132.667 -74 192s-48.667 117.666 -74 174.999zM383.002 785c-14.667 0 -28 2.33301 -40 7s-23.667 9.66699 -35 15c-12.667 6.66699 -23 11.167 -31 13.5s-15.333 3.5 -22 3.5c-14 0 -25 -4.66699 -33 -14s-15.333 -19.666 -22 -30.999l-38 18
c3.33301 8 7.83301 16.667 13.5 26s12.334 18 20.001 26s16.667 14.667 27 20s22.166 8 35.499 8c14.667 0 28 -2.33301 40 -7s23.667 -9.66699 35 -15c12.667 -6.66699 23 -11.167 31 -13.5s15.333 -3.5 22 -3.5c14 0 25 4.66699 33 14s15.333 19.666 22 30.999l38 -18
c-3.33301 -8 -7.83301 -16.667 -13.5 -26s-12.334 -18 -20.001 -26s-16.667 -14.667 -27 -20s-22.166 -8 -35.499 -8z" />
    <glyph glyph-name="Adieresis" unicode="&#xc4;" horiz-adv-x="641" 
d="M556 0c-12.667 34 -24.665 66.667 -35.998 98s-22.333 62 -33 92h-337c-11.333 -30 -22.666 -60.667 -33.999 -92s-23 -64 -35 -98h-71c26.667 72 51.667 139.167 75 201.5s46.166 121.333 68.499 177s44.5 109.167 66.5 160.5s45.333 102.666 70 153.999h60
c24.667 -51.333 48 -102.666 70 -153.999s44.167 -104.833 66.5 -160.5s45.166 -114.667 68.499 -177s48.666 -129.5 75.999 -201.5h-75zM318.002 615c-25.333 -57.333 -49.833 -115.666 -73.5 -174.999s-48.167 -123.333 -73.5 -192h295
c-25.333 68.667 -50 132.667 -74 192s-48.667 117.666 -74 174.999zM279.002 829c0 -14.667 -4.33301 -26.334 -13 -35.001s-19.667 -13 -33 -13s-24.333 4.33301 -33 13s-13 20.334 -13 35.001s4.33301 26.334 13 35.001s19.667 13 33 13s24.333 -4.33301 33 -13
s13 -20.334 13 -35.001zM451.002 829c0 -14.667 -4.33301 -26.334 -13 -35.001s-19.667 -13 -33 -13s-24.333 4.33301 -33 13s-13 20.334 -13 35.001s4.33301 26.334 13 35.001s19.667 13 33 13s24.333 -4.33301 33 -13s13 -20.334 13 -35.001z" />
    <glyph glyph-name="Aring" unicode="&#xc5;" horiz-adv-x="641" 
d="M415 742c0 -19.333 -4.50293 -36.333 -13.5029 -51s-20.5 -26 -34.5 -34c22.667 -48 44.334 -96.5 65.001 -145.5s41.5 -100 62.5 -153s42.667 -109 65 -168s46.166 -122.5 71.499 -190.5h-75c-12.667 34 -24.667 66.667 -36 98s-22.333 62 -33 92h-337
c-11.333 -30 -22.666 -60.667 -33.999 -92s-23 -64 -35 -98h-71c24.667 68 48 131.5 70 190.5s43.5 115 64.5 168s41.833 104 62.5 153s42.334 97.5 65.001 145.5c-14.667 8 -26.334 19.333 -35.001 34s-13 31.667 -13 51c0 28.667 9.5 51.667 28.5 69s41.5 26 67.5 26
c12.667 0 24.834 -2.33301 36.501 -7s21.834 -11.167 30.501 -19.5s15.5 -18.333 20.5 -30s7.5 -24.5 7.5 -38.5zM317.997 615c-25.333 -57.333 -49.833 -115.666 -73.5 -174.999s-48.167 -123.333 -73.5 -192h295c-25.333 68.667 -50 132.667 -74 192
s-48.667 117.666 -74 174.999zM376.997 742c0 18.667 -5.5 33.167 -16.5 43.5s-24.5 15.5 -40.5 15.5s-29.5 -5.16699 -40.5 -15.5s-16.5 -24.833 -16.5 -43.5c0 -19.333 5.5 -34 16.5 -44s24.5 -15 40.5 -15s29.5 5 40.5 15s16.5 24.667 16.5 44z" />
    <glyph glyph-name="AE" unicode="&#xc6;" horiz-adv-x="915" 
d="M464 0l0.000976562 190h-287c-17.333 -32 -34.5 -63.667 -51.5 -95s-33.5 -63 -49.5 -95h-70c36 71.333 71.833 138.333 107.5 201s71.167 122.167 106.5 178.5s70.666 110.333 105.999 162s71 102.167 107 151.5h417v-59h-318v-241h282v-58h-282v-276h344v-59h-412z
M464.001 637c-46 -62 -90 -125.167 -132 -189.5s-82.667 -130.833 -122 -199.5h254v389z" />
    <glyph glyph-name="Ccedilla" unicode="&#xc7;" horiz-adv-x="609" 
d="M364 -36c18.667 -8 33.502 -17.832 44.502 -29.499s16.5 -27.167 16.5 -46.5c0 -8 -1.33301 -16.5 -4 -25.5s-7.66699 -17.167 -15 -24.5s-17.333 -13.333 -30 -18s-29 -7 -49 -7c-13.333 0 -27 1.16699 -41 3.5s-24 5.16602 -30 8.49902l8 43
c7.33301 -3.33301 15.666 -5.66602 24.999 -6.99902s20.666 -2 33.999 -2c27.333 0 41 9.66699 41 29c0 11.333 -4.66699 20 -14 26s-24 13 -44 21c2.66699 7.33301 6 15.833 10 25.5s8.33301 19.167 13 28.5c-38.667 5.33301 -74.334 17 -107.001 35
s-60.834 42.167 -84.501 72.5s-42.167 66.333 -55.5 108s-20 89.167 -20 142.5c0 58 8.83301 109.5 26.5 154.5s41.167 82.833 70.5 113.5s63.333 53.834 102 69.501s79 23.5 121 23.5c26 0 49.667 -1.66699 71 -5s40 -7.5 56 -12.5s29.667 -10 41 -15s20 -9.5 26 -13.5
l-22 -59c-16.667 10 -37.834 19.833 -63.501 29.5s-57.5 14.5 -95.5 14.5c-43.333 0 -81.166 -7.33301 -113.499 -22s-59.5 -35.334 -81.5 -62.001s-38.5 -58.334 -49.5 -95.001s-16.5 -77.334 -16.5 -122.001c0 -46 5.5 -87.5 16.5 -124.5s27.167 -68.5 48.5 -94.5
s47.5 -46 78.5 -60s66.5 -21 106.5 -21c44 0 80.833 4.16699 110.5 12.5s52.167 16.833 67.5 25.5l19 -58c-4.66699 -3.33301 -12.667 -7.16602 -24 -11.499s-25.666 -8.83301 -42.999 -13.5s-37.333 -8.5 -60 -11.5s-48 -4.5 -76 -4.5h-5
c-2 -3.33301 -3.66699 -6.83301 -5 -10.5s-2.66602 -7.16699 -3.99902 -10.5z" />
    <glyph glyph-name="Egrave" unicode="&#xc8;" horiz-adv-x="555" 
d="M90 0v693h400v-59h-332v-241h296v-58h-296v-276h358v-59h-426zM198 929l158 -152l-33 -38l-171 139z" />
    <glyph glyph-name="Eacute" unicode="&#xc9;" horiz-adv-x="555" 
d="M90 0v693h400v-59h-332v-241h296v-58h-296v-276h358v-59h-426zM428 878l-171 -139l-33 38l158 152z" />
    <glyph glyph-name="Ecircumflex" unicode="&#xca;" horiz-adv-x="555" 
d="M90 0v693h400v-59h-332v-241h296v-58h-296v-276h358v-59h-426zM186 740l-28 31l132 147l132 -147l-28 -31l-104 96z" />
    <glyph glyph-name="Edieresis" unicode="&#xcb;" horiz-adv-x="555" 
d="M90 0v693h400v-59h-332v-241h296v-58h-296v-276h358v-59h-426zM250 829c0 -14.667 -4.33301 -26.334 -13 -35.001s-19.667 -13 -33 -13s-24.333 4.33301 -33 13s-13 20.334 -13 35.001s4.33301 26.334 13 35.001s19.667 13 33 13s24.333 -4.33301 33 -13
s13 -20.334 13 -35.001zM422 829c0 -14.667 -4.33301 -26.334 -13 -35.001s-19.667 -13 -33 -13s-24.333 4.33301 -33 13s-13 20.334 -13 35.001s4.33301 26.334 13 35.001s19.667 13 33 13s24.333 -4.33301 33 -13s13 -20.334 13 -35.001z" />
    <glyph glyph-name="Igrave" unicode="&#xcc;" horiz-adv-x="248" 
d="M90 693h68v-693h-68v693zM33 929l158 -152l-33 -38l-171 139z" />
    <glyph glyph-name="Iacute" unicode="&#xcd;" horiz-adv-x="248" 
d="M90 693h68v-693h-68v693zM263 878l-171 -139l-33 38l158 152z" />
    <glyph glyph-name="Icircumflex" unicode="&#xce;" horiz-adv-x="248" 
d="M90 693h68v-693h-68v693zM21 740l-28 31l132 147l132 -147l-28 -31l-104 96z" />
    <glyph glyph-name="Idieresis" unicode="&#xcf;" horiz-adv-x="248" 
d="M90 693h68v-693h-68v693zM85 829c0 -14.667 -4.33301 -26.334 -13 -35.001s-19.667 -13 -33 -13s-24.333 4.33301 -33 13s-13 20.334 -13 35.001s4.33301 26.334 13 35.001s19.667 13 33 13s24.333 -4.33301 33 -13s13 -20.334 13 -35.001zM257 829
c0 -14.667 -4.33301 -26.334 -13 -35.001s-19.667 -13 -33 -13s-24.333 4.33301 -33 13s-13 20.334 -13 35.001s4.33301 26.334 13 35.001s19.667 13 33 13s24.333 -4.33301 33 -13s13 -20.334 13 -35.001z" />
    <glyph glyph-name="Eth" unicode="&#xd0;" horiz-adv-x="716" 
d="M654 347c0 -59.333 -9.33301 -111 -28 -155s-44.834 -80.667 -78.501 -110s-73.834 -51.333 -120.501 -66s-98 -22 -154 -22c-28 0 -57.333 1.5 -88 4.5s-57.667 7.5 -81 13.5v323h-80v55h80v290c23.333 6.66699 50.333 11.5 81 14.5s60 4.5 88 4.5
c56 0 107.333 -7.33301 154 -22s86.834 -36.667 120.501 -66s59.834 -66 78.501 -110s28 -95.333 28 -154zM172 60c4 -0.666992 14.167 -1.99805 30.5 -3.99805s42.5 -3 78.5 -3c50 0 93.667 6.83301 131 20.5s68.666 33.167 93.999 58.5s44.333 56.166 57 92.499
s19 77.166 19 122.499s-6.33301 86 -19 122s-31.667 66.667 -57 92s-56.666 44.833 -93.999 58.5s-81 20.5 -131 20.5c-36 0 -62.167 -1 -78.5 -3s-26.5 -3.33301 -30.5 -4v-243h132v-55h-132v-275z" />
    <glyph glyph-name="Ntilde" unicode="&#xd1;" horiz-adv-x="709" 
d="M562 0c-12.667 23.333 -28.833 50.666 -48.5 81.999s-41.167 64.833 -64.5 100.5s-48 72.334 -74 110.001s-51.833 74.334 -77.5 110.001s-50.667 69.167 -75 100.5s-46.166 58.333 -65.499 81v-584h-67v693h54c34 -38 70.5 -81.833 109.5 -131.5
s77.167 -100.334 114.5 -152.001s72.166 -102.167 104.499 -151.5s58.833 -92.333 79.5 -129v564h67v-693h-57zM417.001 785c-14.667 0 -28 2.33301 -40 7s-23.667 9.66699 -35 15c-12.667 6.66699 -23 11.167 -31 13.5s-15.333 3.5 -22 3.5c-14 0 -25 -4.66699 -33 -14
s-15.333 -19.666 -22 -30.999l-38 18c3.33301 8 7.83301 16.667 13.5 26s12.334 18 20.001 26s16.667 14.667 27 20s22.166 8 35.499 8c14.667 0 28 -2.33301 40 -7s23.667 -9.66699 35 -15c12.667 -6.66699 23 -11.167 31 -13.5s15.333 -3.5 22 -3.5c14 0 25 4.66699 33 14
s15.333 19.666 22 30.999l38 -18c-3.33301 -8 -7.83301 -16.667 -13.5 -26s-12.334 -18 -20.001 -26s-16.667 -14.667 -27 -20s-22.166 -8 -35.499 -8z" />
    <glyph glyph-name="Ograve" unicode="&#xd2;" horiz-adv-x="774" 
d="M712 347c0 -59.333 -8.66699 -111.666 -26 -156.999s-40.833 -83.166 -70.5 -113.499s-64.167 -53.166 -103.5 -68.499s-81 -23 -125 -23s-85.667 7.66699 -125 23s-73.833 38.166 -103.5 68.499s-53.167 68.166 -70.5 113.499s-26 97.666 -26 156.999
s8.66699 111.5 26 156.5s40.833 82.667 70.5 113s64.167 53.166 103.5 68.499s81 23 125 23s85.667 -7.66699 125 -23s73.833 -38.166 103.5 -68.499s53.167 -68 70.5 -113s26 -97.167 26 -156.5zM640 347c0 46.667 -6 88.5 -18 125.5s-29 68.5 -51 94.5
s-48.5 45.833 -79.5 59.5s-65.833 20.5 -104.5 20.5s-73.5 -6.83301 -104.5 -20.5s-57.5 -33.5 -79.5 -59.5s-39 -57.5 -51 -94.5s-18 -78.833 -18 -125.5s6 -88.5 18 -125.5s29 -68.5 51 -94.5s48.5 -46 79.5 -60s65.833 -21 104.5 -21s73.5 7 104.5 21s57.5 34 79.5 60
s39 57.5 51 94.5s18 78.833 18 125.5zM295 929l158 -152l-33 -38l-171 139z" />
    <glyph glyph-name="Oacute" unicode="&#xd3;" horiz-adv-x="774" 
d="M712 347c0 -59.333 -8.66699 -111.666 -26 -156.999s-40.833 -83.166 -70.5 -113.499s-64.167 -53.166 -103.5 -68.499s-81 -23 -125 -23s-85.667 7.66699 -125 23s-73.833 38.166 -103.5 68.499s-53.167 68.166 -70.5 113.499s-26 97.666 -26 156.999
s8.66699 111.5 26 156.5s40.833 82.667 70.5 113s64.167 53.166 103.5 68.499s81 23 125 23s85.667 -7.66699 125 -23s73.833 -38.166 103.5 -68.499s53.167 -68 70.5 -113s26 -97.167 26 -156.5zM640 347c0 46.667 -6 88.5 -18 125.5s-29 68.5 -51 94.5
s-48.5 45.833 -79.5 59.5s-65.833 20.5 -104.5 20.5s-73.5 -6.83301 -104.5 -20.5s-57.5 -33.5 -79.5 -59.5s-39 -57.5 -51 -94.5s-18 -78.833 -18 -125.5s6 -88.5 18 -125.5s29 -68.5 51 -94.5s48.5 -46 79.5 -60s65.833 -21 104.5 -21s73.5 7 104.5 21s57.5 34 79.5 60
s39 57.5 51 94.5s18 78.833 18 125.5zM525 878l-171 -139l-33 38l158 152z" />
    <glyph glyph-name="Ocircumflex" unicode="&#xd4;" horiz-adv-x="774" 
d="M712 347c0 -59.333 -8.66699 -111.666 -26 -156.999s-40.833 -83.166 -70.5 -113.499s-64.167 -53.166 -103.5 -68.499s-81 -23 -125 -23s-85.667 7.66699 -125 23s-73.833 38.166 -103.5 68.499s-53.167 68.166 -70.5 113.499s-26 97.666 -26 156.999
s8.66699 111.5 26 156.5s40.833 82.667 70.5 113s64.167 53.166 103.5 68.499s81 23 125 23s85.667 -7.66699 125 -23s73.833 -38.166 103.5 -68.499s53.167 -68 70.5 -113s26 -97.167 26 -156.5zM640 347c0 46.667 -6 88.5 -18 125.5s-29 68.5 -51 94.5
s-48.5 45.833 -79.5 59.5s-65.833 20.5 -104.5 20.5s-73.5 -6.83301 -104.5 -20.5s-57.5 -33.5 -79.5 -59.5s-39 -57.5 -51 -94.5s-18 -78.833 -18 -125.5s6 -88.5 18 -125.5s29 -68.5 51 -94.5s48.5 -46 79.5 -60s65.833 -21 104.5 -21s73.5 7 104.5 21s57.5 34 79.5 60
s39 57.5 51 94.5s18 78.833 18 125.5zM283 740l-28 31l132 147l132 -147l-28 -31l-104 96z" />
    <glyph glyph-name="Otilde" unicode="&#xd5;" horiz-adv-x="774" 
d="M712 347c0 -59.333 -8.66699 -111.666 -26 -156.999s-40.833 -83.166 -70.5 -113.499s-64.167 -53.166 -103.5 -68.499s-81 -23 -125 -23s-85.667 7.66699 -125 23s-73.833 38.166 -103.5 68.499s-53.167 68.166 -70.5 113.499s-26 97.666 -26 156.999
s8.66699 111.5 26 156.5s40.833 82.667 70.5 113s64.167 53.166 103.5 68.499s81 23 125 23s85.667 -7.66699 125 -23s73.833 -38.166 103.5 -68.499s53.167 -68 70.5 -113s26 -97.167 26 -156.5zM640 347c0 46.667 -6 88.5 -18 125.5s-29 68.5 -51 94.5
s-48.5 45.833 -79.5 59.5s-65.833 20.5 -104.5 20.5s-73.5 -6.83301 -104.5 -20.5s-57.5 -33.5 -79.5 -59.5s-39 -57.5 -51 -94.5s-18 -78.833 -18 -125.5s6 -88.5 18 -125.5s29 -68.5 51 -94.5s48.5 -46 79.5 -60s65.833 -21 104.5 -21s73.5 7 104.5 21s57.5 34 79.5 60
s39 57.5 51 94.5s18 78.833 18 125.5zM450 785c-14.667 0 -28 2.33301 -40 7s-23.667 9.66699 -35 15c-12.667 6.66699 -23 11.167 -31 13.5s-15.333 3.5 -22 3.5c-14 0 -25 -4.66699 -33 -14s-15.333 -19.666 -22 -30.999l-38 18c3.33301 8 7.83301 16.667 13.5 26
s12.334 18 20.001 26s16.667 14.667 27 20s22.166 8 35.499 8c14.667 0 28 -2.33301 40 -7s23.667 -9.66699 35 -15c12.667 -6.66699 23 -11.167 31 -13.5s15.333 -3.5 22 -3.5c14 0 25 4.66699 33 14s15.333 19.666 22 30.999l38 -18
c-3.33301 -8 -7.83301 -16.667 -13.5 -26s-12.334 -18 -20.001 -26s-16.667 -14.667 -27 -20s-22.166 -8 -35.499 -8z" />
    <glyph glyph-name="Odieresis" unicode="&#xd6;" horiz-adv-x="774" 
d="M712 347c0 -59.333 -8.66699 -111.666 -26 -156.999s-40.833 -83.166 -70.5 -113.499s-64.167 -53.166 -103.5 -68.499s-81 -23 -125 -23s-85.667 7.66699 -125 23s-73.833 38.166 -103.5 68.499s-53.167 68.166 -70.5 113.499s-26 97.666 -26 156.999
s8.66699 111.5 26 156.5s40.833 82.667 70.5 113s64.167 53.166 103.5 68.499s81 23 125 23s85.667 -7.66699 125 -23s73.833 -38.166 103.5 -68.499s53.167 -68 70.5 -113s26 -97.167 26 -156.5zM640 347c0 46.667 -6 88.5 -18 125.5s-29 68.5 -51 94.5
s-48.5 45.833 -79.5 59.5s-65.833 20.5 -104.5 20.5s-73.5 -6.83301 -104.5 -20.5s-57.5 -33.5 -79.5 -59.5s-39 -57.5 -51 -94.5s-18 -78.833 -18 -125.5s6 -88.5 18 -125.5s29 -68.5 51 -94.5s48.5 -46 79.5 -60s65.833 -21 104.5 -21s73.5 7 104.5 21s57.5 34 79.5 60
s39 57.5 51 94.5s18 78.833 18 125.5zM347 829c0 -14.667 -4.33301 -26.334 -13 -35.001s-19.667 -13 -33 -13s-24.333 4.33301 -33 13s-13 20.334 -13 35.001s4.33301 26.334 13 35.001s19.667 13 33 13s24.333 -4.33301 33 -13s13 -20.334 13 -35.001zM519 829
c0 -14.667 -4.33301 -26.334 -13 -35.001s-19.667 -13 -33 -13s-24.333 4.33301 -33 13s-13 20.334 -13 35.001s4.33301 26.334 13 35.001s19.667 13 33 13s24.333 -4.33301 33 -13s13 -20.334 13 -35.001z" />
    <glyph glyph-name="multiply" unicode="&#xd7;" horiz-adv-x="564" 
d="M129 486l153 -154l153 154l39 -39l-154 -153l154 -153l-39 -39l-153 154l-153 -154l-39 39l154 153l-154 153z" />
    <glyph glyph-name="Oslash" unicode="&#xd8;" horiz-adv-x="774" 
d="M712 347c0 -59.333 -8.66699 -111.67 -26 -157.003s-40.833 -83.166 -70.5 -113.499s-64.167 -53.166 -103.5 -68.499s-81 -23 -125 -23c-36 0 -70.167 5 -102.5 15s-62.5 25.333 -90.5 46l-61 -80l-48 36l65 84c-28 30 -49.667 66.833 -65 110.5s-23 93.834 -23 150.501
c0 59.333 8.66699 111.5 26 156.5s40.833 82.667 70.5 113s64.167 53.166 103.5 68.499s81 23 125 23c36 0 70.5 -5.16699 103.5 -15.5s63.5 -26.166 91.5 -47.499l64 83l48 -36l-68 -88c26.667 -30 47.667 -66.333 63 -109s23 -92 23 -148zM134 346.996
c0 -42.667 5 -81.5 15 -116.5s24.333 -65.167 43 -90.5l351 454c-43.333 35.333 -95.333 53 -156 53c-38.667 0 -73.5 -6.83301 -104.5 -20.5s-57.5 -33.5 -79.5 -59.5s-39 -57.5 -51 -94.5s-18 -78.833 -18 -125.5zM640 346.996c0 42 -4.83203 80 -14.499 114
s-23.5 63.667 -41.5 89l-351 -454c41.333 -33.333 92.666 -50 153.999 -50c38.667 0 73.5 7 104.5 21s57.5 34 79.5 60s39 57.5 51 94.5s18 78.833 18 125.5z" />
    <glyph glyph-name="Ugrave" unicode="&#xd9;" horiz-adv-x="680" 
d="M340 -15c-46 0 -85.167 7 -117.5 21s-58.5 33.333 -78.5 58s-34.5 53.5 -43.5 86.5s-13.5 68.5 -13.5 106.5v436h68v-427c0 -38 4.5 -70.833 13.5 -98.5s21.5 -50.5 37.5 -68.5s35.333 -31.333 58 -40s48 -13 76 -13s53.333 4.33301 76 13s42 22 58 40
s28.5 40.833 37.5 68.5s13.5 60.5 13.5 98.5v427h68v-436c0 -38 -4.5 -73.5 -13.5 -106.5s-23.5 -61.833 -43.5 -86.5s-46.167 -44 -78.5 -58s-71.5 -21 -117.5 -21zM248 929l158 -152l-33 -38l-171 139z" />
    <glyph glyph-name="Uacute" unicode="&#xda;" horiz-adv-x="680" 
d="M340 -15c-46 0 -85.167 7 -117.5 21s-58.5 33.333 -78.5 58s-34.5 53.5 -43.5 86.5s-13.5 68.5 -13.5 106.5v436h68v-427c0 -38 4.5 -70.833 13.5 -98.5s21.5 -50.5 37.5 -68.5s35.333 -31.333 58 -40s48 -13 76 -13s53.333 4.33301 76 13s42 22 58 40
s28.5 40.833 37.5 68.5s13.5 60.5 13.5 98.5v427h68v-436c0 -38 -4.5 -73.5 -13.5 -106.5s-23.5 -61.833 -43.5 -86.5s-46.167 -44 -78.5 -58s-71.5 -21 -117.5 -21zM478 878l-171 -139l-33 38l158 152z" />
    <glyph glyph-name="Ucircumflex" unicode="&#xdb;" horiz-adv-x="680" 
d="M340 -15c-46 0 -85.167 7 -117.5 21s-58.5 33.333 -78.5 58s-34.5 53.5 -43.5 86.5s-13.5 68.5 -13.5 106.5v436h68v-427c0 -38 4.5 -70.833 13.5 -98.5s21.5 -50.5 37.5 -68.5s35.333 -31.333 58 -40s48 -13 76 -13s53.333 4.33301 76 13s42 22 58 40
s28.5 40.833 37.5 68.5s13.5 60.5 13.5 98.5v427h68v-436c0 -38 -4.5 -73.5 -13.5 -106.5s-23.5 -61.833 -43.5 -86.5s-46.167 -44 -78.5 -58s-71.5 -21 -117.5 -21zM236 740l-28 31l132 147l132 -147l-28 -31l-104 96z" />
    <glyph glyph-name="Udieresis" unicode="&#xdc;" horiz-adv-x="680" 
d="M340 -15c-46 0 -85.167 7 -117.5 21s-58.5 33.333 -78.5 58s-34.5 53.5 -43.5 86.5s-13.5 68.5 -13.5 106.5v436h68v-427c0 -38 4.5 -70.833 13.5 -98.5s21.5 -50.5 37.5 -68.5s35.333 -31.333 58 -40s48 -13 76 -13s53.333 4.33301 76 13s42 22 58 40
s28.5 40.833 37.5 68.5s13.5 60.5 13.5 98.5v427h68v-436c0 -38 -4.5 -73.5 -13.5 -106.5s-23.5 -61.833 -43.5 -86.5s-46.167 -44 -78.5 -58s-71.5 -21 -117.5 -21zM300 829c0 -14.667 -4.33301 -26.334 -13 -35.001s-19.667 -13 -33 -13s-24.333 4.33301 -33 13
s-13 20.334 -13 35.001s4.33301 26.334 13 35.001s19.667 13 33 13s24.333 -4.33301 33 -13s13 -20.334 13 -35.001zM472 829c0 -14.667 -4.33301 -26.334 -13 -35.001s-19.667 -13 -33 -13s-24.333 4.33301 -33 13s-13 20.334 -13 35.001s4.33301 26.334 13 35.001
s19.667 13 33 13s24.333 -4.33301 33 -13s13 -20.334 13 -35.001z" />
    <glyph glyph-name="Yacute" unicode="&#xdd;" horiz-adv-x="569" 
d="M251 0l-0.00195312 284.998c-47.333 72.667 -90.833 142.834 -130.5 210.501s-76.5 133.5 -110.5 197.5h79c28 -58.667 58.833 -118.167 92.5 -178.5s68.834 -117.833 105.501 -172.5c35.333 54.667 70 112.167 104 172.5s65.333 119.833 94 178.5h74
c-35.333 -63.333 -72.666 -129.166 -111.999 -197.499s-82 -137.833 -128 -208.5v-287h-68zM422.998 877.998l-171 -139l-33 38l158 152z" />
    <glyph glyph-name="Thorn" unicode="&#xde;" horiz-adv-x="593" 
d="M158 570c11.333 1.33301 27.5 2.66699 48.5 4s39.833 2 56.5 2c98.667 0 172.167 -18.833 220.5 -56.5s72.5 -90.5 72.5 -158.5c0 -39.333 -7 -72.833 -21 -100.5s-34 -50 -60 -67s-57.833 -29.333 -95.5 -37s-80.167 -11.5 -127.5 -11.5h-94v-145h-68v693h68v-123z
M266 517.001c-24 0 -45.1709 -0.669922 -63.5039 -2.00293s-33.166 -2.66602 -44.499 -3.99902v-307h86c36.667 0 69.834 2.16699 99.501 6.5s55 12.333 76 24s37.167 27.834 48.5 48.501s17 47 17 79c0 30.667 -6.16699 56 -18.5 76s-28.666 35.833 -48.999 47.5
s-43.666 19.834 -69.999 24.501s-53.5 7 -81.5 7z" />
    <glyph glyph-name="germandbls" unicode="&#xdf;" horiz-adv-x="596" 
d="M475 619c0 -17.333 -2.83887 -33.1689 -8.50586 -47.502s-12.667 -27.166 -21 -38.499s-17.166 -21.666 -26.499 -30.999l-24 -24c-9.33301 -9.33301 -17.166 -17.5 -23.499 -24.5s-11.5 -13.5 -15.5 -19.5s-6.83301 -12 -8.5 -18s-2.5 -12.667 -2.5 -20
c0 -9.33301 2.16699 -17.666 6.5 -24.999s10 -13.666 17 -18.999s14.833 -10.166 23.5 -14.499s17.334 -8.5 26.001 -12.5c20 -9.33301 38.833 -19 56.5 -29s33 -21.667 46 -35s23.167 -29.333 30.5 -48s11 -41.334 11 -68.001c0 -50 -17 -88.667 -51 -116
s-81.333 -41 -142 -41c-32.667 0 -60.667 3.5 -84 10.5s-38.333 12.167 -45 15.5l14 60c5.33301 -3.33301 18.166 -9 38.499 -17s49.833 -12 88.5 -12c36 0 64 9 84 27s30 42.333 30 73c0 14.667 -1.83301 27.5 -5.5 38.5s-9.83398 21.167 -18.501 30.5
s-19.667 18.166 -33 26.499s-29.333 17.5 -48 27.5c-22 11.333 -40.167 21.333 -54.5 30s-25.666 17.5 -33.999 26.5s-14.166 18.5 -17.499 28.5s-5 22.333 -5 37c0 22.667 6.5 42.667 19.5 60s28.167 35 45.5 53c10 10.667 19.167 20.167 27.5 28.5s15.333 16.833 21 25.5
s10 17.667 13 27s4.5 20 4.5 32c0 30 -10.333 54.5 -31 73.5s-48.667 28.5 -84 28.5c-51.333 0 -88.166 -14.333 -110.499 -43s-33.5 -67 -33.5 -115v-560h-65v564c0 32 4.66699 61.167 14 87.5s22.833 48.666 40.5 66.999s38.834 32.5 63.501 42.5s52.334 15 83.001 15
c65.333 0 113 -14.5 143 -43.5s45 -66.833 45 -113.5z" />
    <glyph glyph-name="agrave" unicode="&#xe0;" horiz-adv-x="509" 
d="M249 47c25.333 0 47.5 0.831055 66.5 2.49805s35.167 3.83398 48.5 6.50098v182c-7.33301 3.33301 -19 6.83301 -35 10.5s-38 5.5 -66 5.5c-16 0 -32.667 -1.16699 -50 -3.5s-33.333 -7.33301 -48 -15s-26.667 -18.167 -36 -31.5s-14 -31 -14 -53
c0 -19.333 3.16699 -35.666 9.5 -48.999s15.333 -24 27 -32s25.667 -13.833 42 -17.5s34.833 -5.5 55.5 -5.5zM243 528.998c34 0 62.834 -4.83203 86.501 -14.499s42.834 -23 57.501 -40s25.334 -37.167 32.001 -60.5s10 -48.666 10 -75.999v-326
c-6.66699 -2 -16.334 -4.16699 -29.001 -6.5s-27.334 -4.83301 -44.001 -7.5s-35.167 -4.83398 -55.5 -6.50098s-41.166 -2.5 -62.499 -2.5c-27.333 0 -52.5 3 -75.5 9s-43 15.5 -60 28.5s-30.333 29.667 -40 50s-14.5 45.166 -14.5 74.499c0 28 5.33301 52 16 72
s25.667 36.5 45 49.5s42.333 22.5 69 28.5s55.667 9 87 9c9.33301 0 19.166 -0.5 29.499 -1.5s20.333 -2.33301 30 -4s18 -3.33398 25 -5.00098s11.833 -3.16699 14.5 -4.5v32c0 18 -1.33301 35.5 -4 52.5s-8.5 32.333 -17.5 46s-21.667 24.667 -38 33
s-37.833 12.5 -64.5 12.5c-38 0 -66.333 -2.66699 -85 -8s-32.334 -9.66602 -41.001 -12.999l-9 57c11.333 5.33301 28.833 10.333 52.5 15s52.167 7 85.5 7zM168.001 772.999l158 -152l-33 -38l-171 139z" />
    <glyph glyph-name="aacute" unicode="&#xe1;" horiz-adv-x="509" 
d="M249 47c25.333 0 47.5 0.831055 66.5 2.49805s35.167 3.83398 48.5 6.50098v182c-7.33301 3.33301 -19 6.83301 -35 10.5s-38 5.5 -66 5.5c-16 0 -32.667 -1.16699 -50 -3.5s-33.333 -7.33301 -48 -15s-26.667 -18.167 -36 -31.5s-14 -31 -14 -53
c0 -19.333 3.16699 -35.666 9.5 -48.999s15.333 -24 27 -32s25.667 -13.833 42 -17.5s34.833 -5.5 55.5 -5.5zM243 528.998c34 0 62.834 -4.83203 86.501 -14.499s42.834 -23 57.501 -40s25.334 -37.167 32.001 -60.5s10 -48.666 10 -75.999v-326
c-6.66699 -2 -16.334 -4.16699 -29.001 -6.5s-27.334 -4.83301 -44.001 -7.5s-35.167 -4.83398 -55.5 -6.50098s-41.166 -2.5 -62.499 -2.5c-27.333 0 -52.5 3 -75.5 9s-43 15.5 -60 28.5s-30.333 29.667 -40 50s-14.5 45.166 -14.5 74.499c0 28 5.33301 52 16 72
s25.667 36.5 45 49.5s42.333 22.5 69 28.5s55.667 9 87 9c9.33301 0 19.166 -0.5 29.499 -1.5s20.333 -2.33301 30 -4s18 -3.33398 25 -5.00098s11.833 -3.16699 14.5 -4.5v32c0 18 -1.33301 35.5 -4 52.5s-8.5 32.333 -17.5 46s-21.667 24.667 -38 33
s-37.833 12.5 -64.5 12.5c-38 0 -66.333 -2.66699 -85 -8s-32.334 -9.66602 -41.001 -12.999l-9 57c11.333 5.33301 28.833 10.333 52.5 15s52.167 7 85.5 7zM398.001 721.999l-171 -139l-33 38l158 152z" />
    <glyph glyph-name="acircumflex" unicode="&#xe2;" horiz-adv-x="509" 
d="M249 47c25.333 0 47.5 0.831055 66.5 2.49805s35.167 3.83398 48.5 6.50098v182c-7.33301 3.33301 -19 6.83301 -35 10.5s-38 5.5 -66 5.5c-16 0 -32.667 -1.16699 -50 -3.5s-33.333 -7.33301 -48 -15s-26.667 -18.167 -36 -31.5s-14 -31 -14 -53
c0 -19.333 3.16699 -35.666 9.5 -48.999s15.333 -24 27 -32s25.667 -13.833 42 -17.5s34.833 -5.5 55.5 -5.5zM243 528.998c34 0 62.834 -4.83203 86.501 -14.499s42.834 -23 57.501 -40s25.334 -37.167 32.001 -60.5s10 -48.666 10 -75.999v-326
c-6.66699 -2 -16.334 -4.16699 -29.001 -6.5s-27.334 -4.83301 -44.001 -7.5s-35.167 -4.83398 -55.5 -6.50098s-41.166 -2.5 -62.499 -2.5c-27.333 0 -52.5 3 -75.5 9s-43 15.5 -60 28.5s-30.333 29.667 -40 50s-14.5 45.166 -14.5 74.499c0 28 5.33301 52 16 72
s25.667 36.5 45 49.5s42.333 22.5 69 28.5s55.667 9 87 9c9.33301 0 19.166 -0.5 29.499 -1.5s20.333 -2.33301 30 -4s18 -3.33398 25 -5.00098s11.833 -3.16699 14.5 -4.5v32c0 18 -1.33301 35.5 -4 52.5s-8.5 32.333 -17.5 46s-21.667 24.667 -38 33
s-37.833 12.5 -64.5 12.5c-38 0 -66.333 -2.66699 -85 -8s-32.334 -9.66602 -41.001 -12.999l-9 57c11.333 5.33301 28.833 10.333 52.5 15s52.167 7 85.5 7zM156.001 583.999l-28 31l132 147l132 -147l-28 -31l-104 96z" />
    <glyph glyph-name="atilde" unicode="&#xe3;" horiz-adv-x="509" 
d="M249 47c25.333 0 47.5 0.831055 66.5 2.49805s35.167 3.83398 48.5 6.50098v182c-7.33301 3.33301 -19 6.83301 -35 10.5s-38 5.5 -66 5.5c-16 0 -32.667 -1.16699 -50 -3.5s-33.333 -7.33301 -48 -15s-26.667 -18.167 -36 -31.5s-14 -31 -14 -53
c0 -19.333 3.16699 -35.666 9.5 -48.999s15.333 -24 27 -32s25.667 -13.833 42 -17.5s34.833 -5.5 55.5 -5.5zM243 528.998c34 0 62.834 -4.83203 86.501 -14.499s42.834 -23 57.501 -40s25.334 -37.167 32.001 -60.5s10 -48.666 10 -75.999v-326
c-6.66699 -2 -16.334 -4.16699 -29.001 -6.5s-27.334 -4.83301 -44.001 -7.5s-35.167 -4.83398 -55.5 -6.50098s-41.166 -2.5 -62.499 -2.5c-27.333 0 -52.5 3 -75.5 9s-43 15.5 -60 28.5s-30.333 29.667 -40 50s-14.5 45.166 -14.5 74.499c0 28 5.33301 52 16 72
s25.667 36.5 45 49.5s42.333 22.5 69 28.5s55.667 9 87 9c9.33301 0 19.166 -0.5 29.499 -1.5s20.333 -2.33301 30 -4s18 -3.33398 25 -5.00098s11.833 -3.16699 14.5 -4.5v32c0 18 -1.33301 35.5 -4 52.5s-8.5 32.333 -17.5 46s-21.667 24.667 -38 33
s-37.833 12.5 -64.5 12.5c-38 0 -66.333 -2.66699 -85 -8s-32.334 -9.66602 -41.001 -12.999l-9 57c11.333 5.33301 28.833 10.333 52.5 15s52.167 7 85.5 7zM323.001 628.999c-14.667 0 -28 2.33301 -40 7s-23.667 9.66699 -35 15c-12.667 6.66699 -23 11.167 -31 13.5
s-15.333 3.5 -22 3.5c-14 0 -25 -4.66699 -33 -14s-15.333 -19.666 -22 -30.999l-38 18c3.33301 8 7.83301 16.667 13.5 26s12.334 18 20.001 26s16.667 14.667 27 20s22.166 8 35.499 8c14.667 0 28 -2.33301 40 -7s23.667 -9.66699 35 -15
c12.667 -6.66699 23 -11.167 31 -13.5s15.333 -3.5 22 -3.5c14 0 25 4.66699 33 14s15.333 19.666 22 30.999l38 -18c-3.33301 -8 -7.83301 -16.667 -13.5 -26s-12.334 -18 -20.001 -26s-16.667 -14.667 -27 -20s-22.166 -8 -35.499 -8z" />
    <glyph glyph-name="adieresis" unicode="&#xe4;" horiz-adv-x="509" 
d="M249 47c25.333 0 47.5 0.831055 66.5 2.49805s35.167 3.83398 48.5 6.50098v182c-7.33301 3.33301 -19 6.83301 -35 10.5s-38 5.5 -66 5.5c-16 0 -32.667 -1.16699 -50 -3.5s-33.333 -7.33301 -48 -15s-26.667 -18.167 -36 -31.5s-14 -31 -14 -53
c0 -19.333 3.16699 -35.666 9.5 -48.999s15.333 -24 27 -32s25.667 -13.833 42 -17.5s34.833 -5.5 55.5 -5.5zM243 528.998c34 0 62.834 -4.83203 86.501 -14.499s42.834 -23 57.501 -40s25.334 -37.167 32.001 -60.5s10 -48.666 10 -75.999v-326
c-6.66699 -2 -16.334 -4.16699 -29.001 -6.5s-27.334 -4.83301 -44.001 -7.5s-35.167 -4.83398 -55.5 -6.50098s-41.166 -2.5 -62.499 -2.5c-27.333 0 -52.5 3 -75.5 9s-43 15.5 -60 28.5s-30.333 29.667 -40 50s-14.5 45.166 -14.5 74.499c0 28 5.33301 52 16 72
s25.667 36.5 45 49.5s42.333 22.5 69 28.5s55.667 9 87 9c9.33301 0 19.166 -0.5 29.499 -1.5s20.333 -2.33301 30 -4s18 -3.33398 25 -5.00098s11.833 -3.16699 14.5 -4.5v32c0 18 -1.33301 35.5 -4 52.5s-8.5 32.333 -17.5 46s-21.667 24.667 -38 33
s-37.833 12.5 -64.5 12.5c-38 0 -66.333 -2.66699 -85 -8s-32.334 -9.66602 -41.001 -12.999l-9 57c11.333 5.33301 28.833 10.333 52.5 15s52.167 7 85.5 7zM220.001 672.999c0 -14.667 -4.33301 -26.334 -13 -35.001s-19.667 -13 -33 -13s-24.333 4.33301 -33 13
s-13 20.334 -13 35.001s4.33301 26.334 13 35.001s19.667 13 33 13s24.333 -4.33301 33 -13s13 -20.334 13 -35.001zM392.001 672.999c0 -14.667 -4.33301 -26.334 -13 -35.001s-19.667 -13 -33 -13s-24.333 4.33301 -33 13s-13 20.334 -13 35.001s4.33301 26.334 13 35.001
s19.667 13 33 13s24.333 -4.33301 33 -13s13 -20.334 13 -35.001z" />
    <glyph glyph-name="aring" unicode="&#xe5;" horiz-adv-x="509" 
d="M249 47c25.333 0 47.5 0.831055 66.5 2.49805s35.167 3.83398 48.5 6.50098v182c-7.33301 3.33301 -19 6.83301 -35 10.5s-38 5.5 -66 5.5c-16 0 -32.667 -1.16699 -50 -3.5s-33.333 -7.33301 -48 -15s-26.667 -18.167 -36 -31.5s-14 -31 -14 -53
c0 -19.333 3.16699 -35.666 9.5 -48.999s15.333 -24 27 -32s25.667 -13.833 42 -17.5s34.833 -5.5 55.5 -5.5zM243 528.998c34 0 62.834 -4.83203 86.501 -14.499s42.834 -23 57.501 -40s25.334 -37.167 32.001 -60.5s10 -48.666 10 -75.999v-326
c-6.66699 -2 -16.334 -4.16699 -29.001 -6.5s-27.334 -4.83301 -44.001 -7.5s-35.167 -4.83398 -55.5 -6.50098s-41.166 -2.5 -62.499 -2.5c-27.333 0 -52.5 3 -75.5 9s-43 15.5 -60 28.5s-30.333 29.667 -40 50s-14.5 45.166 -14.5 74.499c0 28 5.33301 52 16 72
s25.667 36.5 45 49.5s42.333 22.5 69 28.5s55.667 9 87 9c9.33301 0 19.166 -0.5 29.499 -1.5s20.333 -2.33301 30 -4s18 -3.33398 25 -5.00098s11.833 -3.16699 14.5 -4.5v32c0 18 -1.33301 35.5 -4 52.5s-8.5 32.333 -17.5 46s-21.667 24.667 -38 33
s-37.833 12.5 -64.5 12.5c-38 0 -66.333 -2.66699 -85 -8s-32.334 -9.66602 -41.001 -12.999l-9 57c11.333 5.33301 28.833 10.333 52.5 15s52.167 7 85.5 7zM356.001 675.999c0 -14.667 -2.5 -27.832 -7.5 -39.499s-11.833 -21.667 -20.5 -30
s-18.834 -14.833 -30.501 -19.5s-23.834 -7 -36.501 -7c-26 0 -48.5 8.66699 -67.5 26s-28.5 40.666 -28.5 69.999c0 28.667 9.5 51.667 28.5 69s41.5 26 67.5 26c12.667 0 24.834 -2.33301 36.501 -7s21.834 -11.167 30.501 -19.5s15.5 -18.333 20.5 -30
s7.5 -24.5 7.5 -38.5zM318.001 676.001c0 18.667 -5.5 33.167 -16.5 43.5s-24.5 15.5 -40.5 15.5s-29.5 -5.16699 -40.5 -15.5s-16.5 -24.833 -16.5 -43.5c0 -19.333 5.5 -34 16.5 -44s24.5 -15 40.5 -15s29.5 5 40.5 15s16.5 24.667 16.5 44z" />
    <glyph glyph-name="ae" unicode="&#xe6;" horiz-adv-x="854" 
d="M728 300c-1.33301 54 -14 96.002 -38 126.002s-58 45 -102 45c-23.333 0 -44.166 -4.66699 -62.499 -14s-34.333 -21.833 -48 -37.5s-24.334 -33.834 -32.001 -54.501s-12.167 -42.334 -13.5 -65.001h296zM252 -10.998c-29.333 0 -56.499 3 -81.499 9
s-46.5 15.5 -64.5 28.5s-32.167 29.667 -42.5 50s-15.5 45.166 -15.5 74.499c0 28 5.33301 52 16 72s25.667 36.5 45 49.5s42.333 22.5 69 28.5s55.667 9 87 9c9.33301 0 19.166 -0.5 29.499 -1.5s20.333 -2.33301 30 -4s18 -3.33398 25 -5.00098s11.833 -3.16699 14.5 -4.5
v32c0 18 -1.33301 35.5 -4 52.5s-8.5 32.333 -17.5 46s-21.667 24.667 -38 33s-37.833 12.5 -64.5 12.5c-36 0 -64 -2.5 -84 -7.5s-34.333 -9.16699 -43 -12.5l-8 56c11.333 5.33301 29 10.333 53 15s52.333 7 85 7c47.333 0 84.5 -8.83301 111.5 -26.5
s46.167 -41.5 57.5 -71.5c22 32.667 48.333 57.167 79 73.5s62.667 24.5 96 24.5c63.333 0 113.833 -20.667 151.5 -62s56.5 -105 56.5 -191c0 -5.33301 -0.166992 -10.666 -0.5 -15.999s-0.833008 -10.333 -1.5 -15h-363c2 -63.333 17.667 -112 47 -146s76 -51 140 -51
c35.333 0 63.333 3.33301 84 10s35.667 12.334 45 17.001l12 -56c-9.33301 -5.33301 -26.833 -11.666 -52.5 -18.999s-55.834 -11 -90.501 -11c-38 0 -71.667 4.66699 -101 14s-55 24.666 -77 45.999c-7.33301 -6 -16.5 -12.5 -27.5 -19.5s-24.167 -13.5 -39.5 -19.5
s-32.666 -11 -51.999 -15s-41.333 -6 -66 -6zM365.001 238.002c-7.33301 3.33301 -19.167 6.83203 -35.5 10.499s-38.5 5.5 -66.5 5.5c-16 0 -32.667 -1.16699 -50 -3.5s-33.333 -7.33301 -48 -15s-26.667 -18.167 -36 -31.5s-14 -31 -14 -53
c0 -19.333 3.33301 -35.666 10 -48.999s16.167 -24 28.5 -32s26.833 -13.833 43.5 -17.5s35 -5.5 55 -5.5c41.333 0 74 5.5 98 16.5s40.667 20.833 50 29.5c-10.667 17.333 -19 37.833 -25 61.5s-9.33301 51.5 -10 83.5z" />
    <glyph glyph-name="ccedilla" unicode="&#xe7;" horiz-adv-x="460" 
d="M294 -36c18.667 -8 33.5039 -17.833 44.5039 -29.5s16.5 -27.167 16.5 -46.5c0 -8 -1.33301 -16.5 -4 -25.5s-7.66699 -17.167 -15 -24.5s-17.333 -13.333 -30 -18s-29 -7 -49 -7c-13.333 0 -27 1.16699 -41 3.5s-24 5.16602 -30 8.49902l8 43
c7.33301 -3.33301 15.666 -5.66602 24.999 -6.99902s20.666 -2 33.999 -2c27.333 0 41 9.66699 41 29c0 11.333 -4.66699 20 -14 26s-24 13 -44 21c2.66699 8 6.16699 17.167 10.5 27.5s9.16602 20.166 14.499 29.499c-67.333 8 -118.5 35.667 -153.5 83
s-52.5 108 -52.5 182c0 40.667 5.5 77.667 16.5 111s26.833 62 47.5 86s45.667 42.5 75 55.5s62.333 19.5 99 19.5c28 0 54.167 -2.33301 78.5 -7s43.166 -10.667 56.499 -18l-17 -56c-13.333 6.66699 -28.333 12 -45 16s-39 6 -67 6c-57.333 0 -100.833 -18.5 -130.5 -55.5
s-44.5 -89.5 -44.5 -157.5c0 -30.667 3.33301 -58.834 10 -84.501s17.5 -47.667 32.5 -66s34.333 -32.666 58 -42.999s52.5 -15.5 86.5 -15.5c28 0 51.5 3.16699 70.5 9.5s32.833 11.833 41.5 16.5l14 -56c-11.333 -6.66699 -29.333 -13 -54 -19s-50.667 -9.33301 -78 -10
c-2 -4.66699 -4 -9.16699 -6 -13.5s-3.66699 -8.16602 -5 -11.499z" />
    <glyph glyph-name="egrave" unicode="&#xe8;" horiz-adv-x="548" 
d="M55 259c0 45.333 6.50098 84.8291 19.501 118.496s30 61.834 51 84.501s45 39.5 72 50.5s54.833 16.5 83.5 16.5c63.333 0 113.833 -20.667 151.5 -62s56.5 -105 56.5 -191c0 -5.33301 -0.166992 -10.666 -0.5 -15.999s-0.833008 -10.333 -1.5 -15h-363
c2 -63.333 17.667 -112 47 -146s76 -51 140 -51c35.333 0 63.333 3.33301 84 10s35.667 12.334 45 17.001l12 -56c-9.33301 -5.33301 -26.833 -11.666 -52.5 -18.999s-55.834 -11 -90.501 -11c-45.333 0 -84 6.66699 -116 20s-58.333 32 -79 56s-35.667 52.5 -45 85.5
s-14 69.167 -14 108.5zM422.001 299.996c-1.33301 54 -14 96.002 -38 126.002s-58 45 -102 45c-23.333 0 -44.166 -4.66699 -62.499 -14s-34.333 -21.833 -48 -37.5s-24.334 -33.834 -32.001 -54.501s-12.167 -42.334 -13.5 -65.001h296zM188.001 772.998l158 -152l-33 -38
l-171 139z" />
    <glyph glyph-name="eacute" unicode="&#xe9;" horiz-adv-x="548" 
d="M55 259c0 45.333 6.50098 84.8291 19.501 118.496s30 61.834 51 84.501s45 39.5 72 50.5s54.833 16.5 83.5 16.5c63.333 0 113.833 -20.667 151.5 -62s56.5 -105 56.5 -191c0 -5.33301 -0.166992 -10.666 -0.5 -15.999s-0.833008 -10.333 -1.5 -15h-363
c2 -63.333 17.667 -112 47 -146s76 -51 140 -51c35.333 0 63.333 3.33301 84 10s35.667 12.334 45 17.001l12 -56c-9.33301 -5.33301 -26.833 -11.666 -52.5 -18.999s-55.834 -11 -90.501 -11c-45.333 0 -84 6.66699 -116 20s-58.333 32 -79 56s-35.667 52.5 -45 85.5
s-14 69.167 -14 108.5zM422.001 299.996c-1.33301 54 -14 96.002 -38 126.002s-58 45 -102 45c-23.333 0 -44.166 -4.66699 -62.499 -14s-34.333 -21.833 -48 -37.5s-24.334 -33.834 -32.001 -54.501s-12.167 -42.334 -13.5 -65.001h296zM418.001 721.998l-171 -139l-33 38
l158 152z" />
    <glyph glyph-name="ecircumflex" unicode="&#xea;" horiz-adv-x="548" 
d="M55 259c0 45.333 6.50098 84.8291 19.501 118.496s30 61.834 51 84.501s45 39.5 72 50.5s54.833 16.5 83.5 16.5c63.333 0 113.833 -20.667 151.5 -62s56.5 -105 56.5 -191c0 -5.33301 -0.166992 -10.666 -0.5 -15.999s-0.833008 -10.333 -1.5 -15h-363
c2 -63.333 17.667 -112 47 -146s76 -51 140 -51c35.333 0 63.333 3.33301 84 10s35.667 12.334 45 17.001l12 -56c-9.33301 -5.33301 -26.833 -11.666 -52.5 -18.999s-55.834 -11 -90.501 -11c-45.333 0 -84 6.66699 -116 20s-58.333 32 -79 56s-35.667 52.5 -45 85.5
s-14 69.167 -14 108.5zM422.001 299.996c-1.33301 54 -14 96.002 -38 126.002s-58 45 -102 45c-23.333 0 -44.166 -4.66699 -62.499 -14s-34.333 -21.833 -48 -37.5s-24.334 -33.834 -32.001 -54.501s-12.167 -42.334 -13.5 -65.001h296zM176.001 583.998l-28 31l132 147
l132 -147l-28 -31l-104 96z" />
    <glyph glyph-name="edieresis" unicode="&#xeb;" horiz-adv-x="548" 
d="M55 259c0 45.333 6.50098 84.8291 19.501 118.496s30 61.834 51 84.501s45 39.5 72 50.5s54.833 16.5 83.5 16.5c63.333 0 113.833 -20.667 151.5 -62s56.5 -105 56.5 -191c0 -5.33301 -0.166992 -10.666 -0.5 -15.999s-0.833008 -10.333 -1.5 -15h-363
c2 -63.333 17.667 -112 47 -146s76 -51 140 -51c35.333 0 63.333 3.33301 84 10s35.667 12.334 45 17.001l12 -56c-9.33301 -5.33301 -26.833 -11.666 -52.5 -18.999s-55.834 -11 -90.501 -11c-45.333 0 -84 6.66699 -116 20s-58.333 32 -79 56s-35.667 52.5 -45 85.5
s-14 69.167 -14 108.5zM422.001 299.996c-1.33301 54 -14 96.002 -38 126.002s-58 45 -102 45c-23.333 0 -44.166 -4.66699 -62.499 -14s-34.333 -21.833 -48 -37.5s-24.334 -33.834 -32.001 -54.501s-12.167 -42.334 -13.5 -65.001h296zM240.001 672.998
c0 -14.667 -4.33301 -26.334 -13 -35.001s-19.667 -13 -33 -13s-24.333 4.33301 -33 13s-13 20.334 -13 35.001s4.33301 26.334 13 35.001s19.667 13 33 13s24.333 -4.33301 33 -13s13 -20.334 13 -35.001zM412.001 672.998c0 -14.667 -4.33301 -26.334 -13 -35.001
s-19.667 -13 -33 -13s-24.333 4.33301 -33 13s-13 20.334 -13 35.001s4.33301 26.334 13 35.001s19.667 13 33 13s24.333 -4.33301 33 -13s13 -20.334 13 -35.001z" />
    <glyph glyph-name="igrave" unicode="&#xec;" horiz-adv-x="237" 
d="M151 0h-65v517h65v-517zM27 773l158 -152l-33 -38l-171 139z" />
    <glyph glyph-name="iacute" unicode="&#xed;" horiz-adv-x="237" 
d="M151 0h-65v517h65v-517zM257 722l-171 -139l-33 38l158 152z" />
    <glyph glyph-name="icircumflex" unicode="&#xee;" horiz-adv-x="237" 
d="M151 0h-65v517h65v-517zM15 584l-28 31l132 147l132 -147l-28 -31l-104 96z" />
    <glyph glyph-name="idieresis" unicode="&#xef;" horiz-adv-x="237" 
d="M151 0h-65v517h65v-517zM79 673c0 -14.667 -4.33301 -26.334 -13 -35.001s-19.667 -13 -33 -13s-24.333 4.33301 -33 13s-13 20.334 -13 35.001s4.33301 26.334 13 35.001s19.667 13 33 13s24.333 -4.33301 33 -13s13 -20.334 13 -35.001zM251 673
c0 -14.667 -4.33301 -26.334 -13 -35.001s-19.667 -13 -33 -13s-24.333 4.33301 -33 13s-13 20.334 -13 35.001s4.33301 26.334 13 35.001s19.667 13 33 13s24.333 -4.33301 33 -13s13 -20.334 13 -35.001z" />
    <glyph glyph-name="eth" unicode="&#xf0;" horiz-adv-x="578" 
d="M433 634c27.333 -42 48.333 -88.332 63 -138.999s22 -105.667 22 -165c0 -40 -3.16699 -80.333 -9.5 -121s-18.333 -77.334 -36 -110.001s-42.167 -59.334 -73.5 -80.001s-72 -31 -122 -31c-34.667 0 -65.667 6.83301 -93 20.5s-50.5 32.167 -69.5 55.5
s-33.667 50.5 -44 81.5s-15.5 64.167 -15.5 99.5c0 38.667 5.66699 73 17 103s27.166 55.333 47.499 76s44.666 36.334 72.999 47.001s59.5 16 93.5 16c20 0 38.167 -1.83301 54.5 -5.5s31 -8.16699 44 -13.5s24.333 -11 34 -17s17.167 -11.333 22.5 -16
c-3.33301 28 -10.666 57.333 -21.999 88s-26.666 60.667 -45.999 90l-131 -46l-17 45l118 41c-27.333 32.667 -60 60.667 -98 84l43 39c44.667 -27.333 83 -61 115 -101l120 42l17 -45zM450 331.001l0.000976562 17.5c0 5.66699 -0.333008 11.5 -1 17.5
c-23.333 23.333 -48 39.666 -74 48.999s-53 14 -81 14c-30 0 -55.833 -4.83301 -77.5 -14.5s-39.334 -22.667 -53.001 -39s-23.834 -35.666 -30.501 -57.999s-10 -46.5 -10 -72.5c0 -26.667 3.33301 -52 10 -76s16.5 -45 29.5 -63s29 -32.333 48 -43s41.167 -16 66.5 -16
c36 0 65.167 8.16699 87.5 24.5s39.833 37.833 52.5 64.5s21.334 57 26.001 91s7 68.667 7 104z" />
    <glyph glyph-name="ntilde" unicode="&#xf1;" horiz-adv-x="569" 
d="M86 499c19.333 5.33301 45.333 11.332 78 17.999s72.667 10 120 10c39.333 0 72.166 -5.66699 98.499 -17s47.333 -27.5 63 -48.5s26.834 -46.167 33.501 -75.5s10 -61.666 10 -96.999v-289h-65v268c0 36.667 -2.5 67.667 -7.5 93s-13.333 46 -25 62s-27 27.5 -46 34.5
s-42.833 10.5 -71.5 10.5c-30.667 0 -57.167 -1.66699 -79.5 -5s-36.833 -6.33301 -43.5 -9v-454h-65v499zM350 628.999c-14.667 0 -28 2.33301 -40 7s-23.667 9.66699 -35 15c-12.667 6.66699 -23 11.167 -31 13.5s-15.333 3.5 -22 3.5c-14 0 -25 -4.66699 -33 -14
s-15.333 -19.666 -22 -30.999l-38 18c3.33301 8 7.83301 16.667 13.5 26s12.334 18 20.001 26s16.667 14.667 27 20s22.166 8 35.499 8c14.667 0 28 -2.33301 40 -7s23.667 -9.66699 35 -15c12.667 -6.66699 23 -11.167 31 -13.5s15.333 -3.5 22 -3.5c14 0 25 4.66699 33 14
s15.333 19.666 22 30.999l38 -18c-3.33301 -8 -7.83301 -16.667 -13.5 -26s-12.334 -18 -20.001 -26s-16.667 -14.667 -27 -20s-22.166 -8 -35.499 -8z" />
    <glyph glyph-name="ograve" unicode="&#xf2;" horiz-adv-x="582" 
d="M527 258c0 -40.667 -5.83301 -77.667 -17.5 -111s-28 -61.666 -49 -84.999s-45.833 -41.5 -74.5 -54.5s-60.334 -19.5 -95.001 -19.5s-66.334 6.5 -95.001 19.5s-53.5 31.167 -74.5 54.5s-37.333 51.666 -49 84.999s-17.5 70.333 -17.5 111s5.83301 77.667 17.5 111
s28 61.833 49 85.5s45.833 42 74.5 55s60.334 19.5 95.001 19.5s66.334 -6.5 95.001 -19.5s53.5 -31.333 74.5 -55s37.333 -52.167 49 -85.5s17.5 -70.333 17.5 -111zM458 258c0 64.667 -15 116.167 -45 154.5s-70.667 57.5 -122 57.5s-92 -19.167 -122 -57.5
s-45 -89.833 -45 -154.5s15 -116 45 -154s70.667 -57 122 -57s92 19 122 57s45 89.333 45 154zM199 773l158 -152l-33 -38l-171 139z" />
    <glyph glyph-name="oacute" unicode="&#xf3;" horiz-adv-x="582" 
d="M527 258c0 -40.667 -5.83301 -77.667 -17.5 -111s-28 -61.666 -49 -84.999s-45.833 -41.5 -74.5 -54.5s-60.334 -19.5 -95.001 -19.5s-66.334 6.5 -95.001 19.5s-53.5 31.167 -74.5 54.5s-37.333 51.666 -49 84.999s-17.5 70.333 -17.5 111s5.83301 77.667 17.5 111
s28 61.833 49 85.5s45.833 42 74.5 55s60.334 19.5 95.001 19.5s66.334 -6.5 95.001 -19.5s53.5 -31.333 74.5 -55s37.333 -52.167 49 -85.5s17.5 -70.333 17.5 -111zM458 258c0 64.667 -15 116.167 -45 154.5s-70.667 57.5 -122 57.5s-92 -19.167 -122 -57.5
s-45 -89.833 -45 -154.5s15 -116 45 -154s70.667 -57 122 -57s92 19 122 57s45 89.333 45 154zM429 722l-171 -139l-33 38l158 152z" />
    <glyph glyph-name="ocircumflex" unicode="&#xf4;" horiz-adv-x="582" 
d="M527 258c0 -40.667 -5.83301 -77.667 -17.5 -111s-28 -61.666 -49 -84.999s-45.833 -41.5 -74.5 -54.5s-60.334 -19.5 -95.001 -19.5s-66.334 6.5 -95.001 19.5s-53.5 31.167 -74.5 54.5s-37.333 51.666 -49 84.999s-17.5 70.333 -17.5 111s5.83301 77.667 17.5 111
s28 61.833 49 85.5s45.833 42 74.5 55s60.334 19.5 95.001 19.5s66.334 -6.5 95.001 -19.5s53.5 -31.333 74.5 -55s37.333 -52.167 49 -85.5s17.5 -70.333 17.5 -111zM458 258c0 64.667 -15 116.167 -45 154.5s-70.667 57.5 -122 57.5s-92 -19.167 -122 -57.5
s-45 -89.833 -45 -154.5s15 -116 45 -154s70.667 -57 122 -57s92 19 122 57s45 89.333 45 154zM187 584l-28 31l132 147l132 -147l-28 -31l-104 96z" />
    <glyph glyph-name="otilde" unicode="&#xf5;" horiz-adv-x="582" 
d="M527 258c0 -40.667 -5.83301 -77.667 -17.5 -111s-28 -61.666 -49 -84.999s-45.833 -41.5 -74.5 -54.5s-60.334 -19.5 -95.001 -19.5s-66.334 6.5 -95.001 19.5s-53.5 31.167 -74.5 54.5s-37.333 51.666 -49 84.999s-17.5 70.333 -17.5 111s5.83301 77.667 17.5 111
s28 61.833 49 85.5s45.833 42 74.5 55s60.334 19.5 95.001 19.5s66.334 -6.5 95.001 -19.5s53.5 -31.333 74.5 -55s37.333 -52.167 49 -85.5s17.5 -70.333 17.5 -111zM458 258c0 64.667 -15 116.167 -45 154.5s-70.667 57.5 -122 57.5s-92 -19.167 -122 -57.5
s-45 -89.833 -45 -154.5s15 -116 45 -154s70.667 -57 122 -57s92 19 122 57s45 89.333 45 154zM354 629c-14.667 0 -28 2.33301 -40 7s-23.667 9.66699 -35 15c-12.667 6.66699 -23 11.167 -31 13.5s-15.333 3.5 -22 3.5c-14 0 -25 -4.66699 -33 -14
s-15.333 -19.666 -22 -30.999l-38 18c3.33301 8 7.83301 16.667 13.5 26s12.334 18 20.001 26s16.667 14.667 27 20s22.166 8 35.499 8c14.667 0 28 -2.33301 40 -7s23.667 -9.66699 35 -15c12.667 -6.66699 23 -11.167 31 -13.5s15.333 -3.5 22 -3.5c14 0 25 4.66699 33 14
s15.333 19.666 22 30.999l38 -18c-3.33301 -8 -7.83301 -16.667 -13.5 -26s-12.334 -18 -20.001 -26s-16.667 -14.667 -27 -20s-22.166 -8 -35.499 -8z" />
    <glyph glyph-name="odieresis" unicode="&#xf6;" horiz-adv-x="582" 
d="M527 258c0 -40.667 -5.83301 -77.667 -17.5 -111s-28 -61.666 -49 -84.999s-45.833 -41.5 -74.5 -54.5s-60.334 -19.5 -95.001 -19.5s-66.334 6.5 -95.001 19.5s-53.5 31.167 -74.5 54.5s-37.333 51.666 -49 84.999s-17.5 70.333 -17.5 111s5.83301 77.667 17.5 111
s28 61.833 49 85.5s45.833 42 74.5 55s60.334 19.5 95.001 19.5s66.334 -6.5 95.001 -19.5s53.5 -31.333 74.5 -55s37.333 -52.167 49 -85.5s17.5 -70.333 17.5 -111zM458 258c0 64.667 -15 116.167 -45 154.5s-70.667 57.5 -122 57.5s-92 -19.167 -122 -57.5
s-45 -89.833 -45 -154.5s15 -116 45 -154s70.667 -57 122 -57s92 19 122 57s45 89.333 45 154zM251 673c0 -14.667 -4.33301 -26.334 -13 -35.001s-19.667 -13 -33 -13s-24.333 4.33301 -33 13s-13 20.334 -13 35.001s4.33301 26.334 13 35.001s19.667 13 33 13
s24.333 -4.33301 33 -13s13 -20.334 13 -35.001zM423 673c0 -14.667 -4.33301 -26.334 -13 -35.001s-19.667 -13 -33 -13s-24.333 4.33301 -33 13s-13 20.334 -13 35.001s4.33301 26.334 13 35.001s19.667 13 33 13s24.333 -4.33301 33 -13s13 -20.334 13 -35.001z" />
    <glyph glyph-name="divide" unicode="&#xf7;" horiz-adv-x="564" 
d="M281 51c-13.333 0 -24.5 4.66699 -33.5 14s-13.5 21 -13.5 35c0 14.667 4.5 26.667 13.5 36s20.167 14 33.5 14c14 0 25.5 -4.66699 34.5 -14s13.5 -21.333 13.5 -36c0 -14 -4.5 -25.667 -13.5 -35s-20.5 -14 -34.5 -14zM281 427c-13.333 0 -24.5 4.66699 -33.5 14
s-13.5 21.333 -13.5 36c0 14 4.5 25.667 13.5 35s20.167 14 33.5 14c14 0 25.5 -4.66699 34.5 -14s13.5 -21 13.5 -35c0 -14.667 -4.5 -26.667 -13.5 -36s-20.5 -14 -34.5 -14zM56 317h452v-56h-452v56z" />
    <glyph glyph-name="oslash" unicode="&#xf8;" horiz-adv-x="582" 
d="M527 258c0 -40.667 -5.83398 -77.6699 -17.501 -111.003s-28 -61.666 -49 -84.999s-45.833 -41.5 -74.5 -54.5s-60.334 -19.5 -95.001 -19.5c-53.333 0 -99.666 15 -138.999 45l-51 -67l-43 32l56 72c-19.333 23.333 -34 50.833 -44 82.5s-15 66.834 -15 105.501
c0 40.667 5.83301 77.667 17.5 111s28 61.833 49 85.5s45.833 42 74.5 55s60.334 19.5 95.001 19.5c54 0 101 -16 141 -48l51 67l42 -31l-56 -73c18.667 -23.333 33 -50.666 43 -81.999s15 -66 15 -104zM123.999 257.997c0 -53.333 10.332 -98 30.999 -134l239 308
c-13.333 12 -28.666 21.333 -45.999 28s-36.333 10 -57 10c-51.333 0 -92 -19.167 -122 -57.5s-45 -89.833 -45 -154.5zM457.998 257.997c0 52 -10.333 96 -31 132l-237 -308c27.333 -23.333 61 -35 101 -35c51.333 0 92 19 122 57s45 89.333 45 154z" />
    <glyph glyph-name="ugrave" unicode="&#xf9;" horiz-adv-x="569" 
d="M483 18c-19.333 -5.33301 -45.334 -11.332 -78.001 -17.999s-72.667 -10 -120 -10c-38.667 0 -71 5.66699 -97 17s-47 27.333 -63 48s-27.5 45.667 -34.5 75s-10.5 61.666 -10.5 96.999v290h65v-269c0 -36.667 2.66699 -67.667 8 -93s14 -45.833 26 -61.5
s27.5 -27 46.5 -34s42.167 -10.5 69.5 -10.5c30.667 0 57.334 1.66699 80.001 5s37 6.33301 43 9v454h65v-499zM188.999 773.001l158 -152l-33 -38l-171 139z" />
    <glyph glyph-name="uacute" unicode="&#xfa;" horiz-adv-x="569" 
d="M483 18c-19.333 -5.33301 -45.334 -11.332 -78.001 -17.999s-72.667 -10 -120 -10c-38.667 0 -71 5.66699 -97 17s-47 27.333 -63 48s-27.5 45.667 -34.5 75s-10.5 61.666 -10.5 96.999v290h65v-269c0 -36.667 2.66699 -67.667 8 -93s14 -45.833 26 -61.5
s27.5 -27 46.5 -34s42.167 -10.5 69.5 -10.5c30.667 0 57.334 1.66699 80.001 5s37 6.33301 43 9v454h65v-499zM418.999 722.001l-171 -139l-33 38l158 152z" />
    <glyph glyph-name="ucircumflex" unicode="&#xfb;" horiz-adv-x="569" 
d="M483 18c-19.333 -5.33301 -45.334 -11.332 -78.001 -17.999s-72.667 -10 -120 -10c-38.667 0 -71 5.66699 -97 17s-47 27.333 -63 48s-27.5 45.667 -34.5 75s-10.5 61.666 -10.5 96.999v290h65v-269c0 -36.667 2.66699 -67.667 8 -93s14 -45.833 26 -61.5
s27.5 -27 46.5 -34s42.167 -10.5 69.5 -10.5c30.667 0 57.334 1.66699 80.001 5s37 6.33301 43 9v454h65v-499zM176.999 584.001l-28 31l132 147l132 -147l-28 -31l-104 96z" />
    <glyph glyph-name="udieresis" unicode="&#xfc;" horiz-adv-x="569" 
d="M483 18c-19.333 -5.33301 -45.334 -11.332 -78.001 -17.999s-72.667 -10 -120 -10c-38.667 0 -71 5.66699 -97 17s-47 27.333 -63 48s-27.5 45.667 -34.5 75s-10.5 61.666 -10.5 96.999v290h65v-269c0 -36.667 2.66699 -67.667 8 -93s14 -45.833 26 -61.5
s27.5 -27 46.5 -34s42.167 -10.5 69.5 -10.5c30.667 0 57.334 1.66699 80.001 5s37 6.33301 43 9v454h65v-499zM240.999 673.001c0 -14.667 -4.33301 -26.334 -13 -35.001s-19.667 -13 -33 -13s-24.333 4.33301 -33 13s-13 20.334 -13 35.001s4.33301 26.334 13 35.001
s19.667 13 33 13s24.333 -4.33301 33 -13s13 -20.334 13 -35.001zM412.999 673.001c0 -14.667 -4.33301 -26.334 -13 -35.001s-19.667 -13 -33 -13s-24.333 4.33301 -33 13s-13 20.334 -13 35.001s4.33301 26.334 13 35.001s19.667 13 33 13s24.333 -4.33301 33 -13
s13 -20.334 13 -35.001z" />
    <glyph glyph-name="yacute" unicode="&#xfd;" horiz-adv-x="474" 
d="M227 -11c-22 40.667 -43.1621 83 -63.4951 127s-39.333 88.5 -57 133.5s-33.834 90 -48.501 135s-27.334 89.167 -38.001 132.5h69c7.33301 -32 16.666 -66.5 27.999 -103.5s24.166 -75.167 38.499 -114.5s30.166 -79.666 47.499 -120.999s36 -82 56 -122
c14.667 41.333 27.667 80.333 39 117s21.833 73.167 31.5 109.5s19 73.5 28 111.5s18.5 79 28.5 123h65c-21.333 -96.667 -45.666 -190.667 -72.999 -282s-57 -175 -89 -251c-12.667 -30 -25.667 -55.833 -39 -77.5s-28.166 -39.5 -44.499 -53.5s-35.333 -24.333 -57 -31
s-47.167 -10 -76.5 -10c-16.667 0 -31.834 2 -45.501 6s-22.167 7 -25.5 9l13 54c2.66699 -2 10.167 -4.83301 22.5 -8.5s25.166 -5.5 38.499 -5.5c18.667 0 35.5 2 50.5 6s28.5 10.833 40.5 20.5s22.833 22.167 32.5 37.5s19.167 34.666 28.5 57.999zM386.005 722
l-171 -139l-33 38l158 152z" />
    <glyph glyph-name="thorn" unicode="&#xfe;" horiz-adv-x="583" 
d="M151 776v-274.003c42.667 16.667 85 25 127 25c37.333 0 71.333 -6.33301 102 -19s57 -30.667 79 -54s39 -51.666 51 -84.999s18 -70.666 18 -111.999c0 -39.333 -5.16699 -75.5 -15.5 -108.5s-25.5 -61.333 -45.5 -85s-44.5 -42.167 -73.5 -55.5s-62.167 -20 -99.5 -20
c-34 0 -63.5 4.83301 -88.5 14.5s-43.167 18.834 -54.5 27.501v-215h-65v949zM151 92.9971c6 -4.66699 13.5 -9.66797 22.5 -15.001s19.5 -10.333 31.5 -15s25 -8.5 39 -11.5s28.667 -4.5 44 -4.5c32 0 58.833 5.5 80.5 16.5s39.167 26 52.5 45s23 41.333 29 67
s9 52.834 9 81.501c0 67.333 -17.167 119.333 -51.5 156s-79.5 55 -135.5 55c-28 0 -53.333 -3 -76 -9s-37.667 -10.667 -45 -14v-352z" />
    <glyph glyph-name="ydieresis" unicode="&#xff;" horiz-adv-x="474" 
d="M227 -11c-22 40.667 -43.1621 83 -63.4951 127s-39.333 88.5 -57 133.5s-33.834 90 -48.501 135s-27.334 89.167 -38.001 132.5h69c7.33301 -32 16.666 -66.5 27.999 -103.5s24.166 -75.167 38.499 -114.5s30.166 -79.666 47.499 -120.999s36 -82 56 -122
c14.667 41.333 27.667 80.333 39 117s21.833 73.167 31.5 109.5s19 73.5 28 111.5s18.5 79 28.5 123h65c-21.333 -96.667 -45.666 -190.667 -72.999 -282s-57 -175 -89 -251c-12.667 -30 -25.667 -55.833 -39 -77.5s-28.166 -39.5 -44.499 -53.5s-35.333 -24.333 -57 -31
s-47.167 -10 -76.5 -10c-16.667 0 -31.834 2 -45.501 6s-22.167 7 -25.5 9l13 54c2.66699 -2 10.167 -4.83301 22.5 -8.5s25.166 -5.5 38.499 -5.5c18.667 0 35.5 2 50.5 6s28.5 10.833 40.5 20.5s22.833 22.167 32.5 37.5s19.167 34.666 28.5 57.999zM208.005 673
c0 -14.667 -4.33301 -26.334 -13 -35.001s-19.667 -13 -33 -13s-24.333 4.33301 -33 13s-13 20.334 -13 35.001s4.33301 26.334 13 35.001s19.667 13 33 13s24.333 -4.33301 33 -13s13 -20.334 13 -35.001zM380.005 673c0 -14.667 -4.33301 -26.334 -13 -35.001
s-19.667 -13 -33 -13s-24.333 4.33301 -33 13s-13 20.334 -13 35.001s4.33301 26.334 13 35.001s19.667 13 33 13s24.333 -4.33301 33 -13s13 -20.334 13 -35.001z" />
    <glyph glyph-name="Amacron" unicode="&#x100;" horiz-adv-x="641" 
d="M556 0c-12.667 34 -24.665 66.667 -35.998 98s-22.333 62 -33 92h-337c-11.333 -30 -22.666 -60.667 -33.999 -92s-23 -64 -35 -98h-71c26.667 72 51.667 139.167 75 201.5s46.166 121.333 68.499 177s44.5 109.167 66.5 160.5s45.333 102.666 70 153.999h60
c24.667 -51.333 48 -102.666 70 -153.999s44.167 -104.833 66.5 -160.5s45.166 -114.667 68.499 -177s48.666 -129.5 75.999 -201.5h-75zM318.002 615c-25.333 -57.333 -49.833 -115.666 -73.5 -174.999s-48.167 -123.333 -73.5 -192h295
c-25.333 68.667 -50 132.667 -74 192s-48.667 117.666 -74 174.999zM188.002 805v55h265v-55h-265z" />
    <glyph glyph-name="amacron" unicode="&#x101;" horiz-adv-x="509" 
d="M249 47c25.333 0 47.5 0.831055 66.5 2.49805s35.167 3.83398 48.5 6.50098v182c-7.33301 3.33301 -19 6.83301 -35 10.5s-38 5.5 -66 5.5c-16 0 -32.667 -1.16699 -50 -3.5s-33.333 -7.33301 -48 -15s-26.667 -18.167 -36 -31.5s-14 -31 -14 -53
c0 -19.333 3.16699 -35.666 9.5 -48.999s15.333 -24 27 -32s25.667 -13.833 42 -17.5s34.833 -5.5 55.5 -5.5zM243 528.998c34 0 62.834 -4.83203 86.501 -14.499s42.834 -23 57.501 -40s25.334 -37.167 32.001 -60.5s10 -48.666 10 -75.999v-326
c-6.66699 -2 -16.334 -4.16699 -29.001 -6.5s-27.334 -4.83301 -44.001 -7.5s-35.167 -4.83398 -55.5 -6.50098s-41.166 -2.5 -62.499 -2.5c-27.333 0 -52.5 3 -75.5 9s-43 15.5 -60 28.5s-30.333 29.667 -40 50s-14.5 45.166 -14.5 74.499c0 28 5.33301 52 16 72
s25.667 36.5 45 49.5s42.333 22.5 69 28.5s55.667 9 87 9c9.33301 0 19.166 -0.5 29.499 -1.5s20.333 -2.33301 30 -4s18 -3.33398 25 -5.00098s11.833 -3.16699 14.5 -4.5v32c0 18 -1.33301 35.5 -4 52.5s-8.5 32.333 -17.5 46s-21.667 24.667 -38 33
s-37.833 12.5 -64.5 12.5c-38 0 -66.333 -2.66699 -85 -8s-32.334 -9.66602 -41.001 -12.999l-9 57c11.333 5.33301 28.833 10.333 52.5 15s52.167 7 85.5 7zM128.001 648.999v55h265v-55h-265z" />
    <glyph glyph-name="Abreve" unicode="&#x102;" horiz-adv-x="641" 
d="M556 0c-12.667 34 -24.665 66.667 -35.998 98s-22.333 62 -33 92h-337c-11.333 -30 -22.666 -60.667 -33.999 -92s-23 -64 -35 -98h-71c26.667 72 51.667 139.167 75 201.5s46.166 121.333 68.499 177s44.5 109.167 66.5 160.5s45.333 102.666 70 153.999h60
c24.667 -51.333 48 -102.666 70 -153.999s44.167 -104.833 66.5 -160.5s45.166 -114.667 68.499 -177s48.666 -129.5 75.999 -201.5h-75zM318.002 615c-25.333 -57.333 -49.833 -115.666 -73.5 -174.999s-48.167 -123.333 -73.5 -192h295
c-25.333 68.667 -50 132.667 -74 192s-48.667 117.666 -74 174.999zM320.002 769c-16 0 -31.5 2.66699 -46.5 8s-28.333 13.333 -40 24s-20.667 24.334 -27 41.001s-9.16602 36.667 -8.49902 60h43c0 -4.66699 0.833008 -11.334 2.5 -20.001s5.16699 -17.167 10.5 -25.5
s13.166 -15.666 23.499 -21.999s24.5 -9.5 42.5 -9.5s32.167 3.16699 42.5 9.5s18.166 13.666 23.499 21.999s8.83301 16.833 10.5 25.5s2.5 15.334 2.5 20.001h43c0.666992 -23.333 -2.16602 -43.333 -8.49902 -60s-15.333 -30.334 -27 -41.001s-25 -18.667 -40 -24
s-30.5 -8 -46.5 -8z" />
    <glyph glyph-name="abreve" unicode="&#x103;" horiz-adv-x="509" 
d="M249 47c25.333 0 47.5 0.831055 66.5 2.49805s35.167 3.83398 48.5 6.50098v182c-7.33301 3.33301 -19 6.83301 -35 10.5s-38 5.5 -66 5.5c-16 0 -32.667 -1.16699 -50 -3.5s-33.333 -7.33301 -48 -15s-26.667 -18.167 -36 -31.5s-14 -31 -14 -53
c0 -19.333 3.16699 -35.666 9.5 -48.999s15.333 -24 27 -32s25.667 -13.833 42 -17.5s34.833 -5.5 55.5 -5.5zM243 528.998c34 0 62.834 -4.83203 86.501 -14.499s42.834 -23 57.501 -40s25.334 -37.167 32.001 -60.5s10 -48.666 10 -75.999v-326
c-6.66699 -2 -16.334 -4.16699 -29.001 -6.5s-27.334 -4.83301 -44.001 -7.5s-35.167 -4.83398 -55.5 -6.50098s-41.166 -2.5 -62.499 -2.5c-27.333 0 -52.5 3 -75.5 9s-43 15.5 -60 28.5s-30.333 29.667 -40 50s-14.5 45.166 -14.5 74.499c0 28 5.33301 52 16 72
s25.667 36.5 45 49.5s42.333 22.5 69 28.5s55.667 9 87 9c9.33301 0 19.166 -0.5 29.499 -1.5s20.333 -2.33301 30 -4s18 -3.33398 25 -5.00098s11.833 -3.16699 14.5 -4.5v32c0 18 -1.33301 35.5 -4 52.5s-8.5 32.333 -17.5 46s-21.667 24.667 -38 33
s-37.833 12.5 -64.5 12.5c-38 0 -66.333 -2.66699 -85 -8s-32.334 -9.66602 -41.001 -12.999l-9 57c11.333 5.33301 28.833 10.333 52.5 15s52.167 7 85.5 7zM260.001 612.999c-16 0 -31.5 2.66699 -46.5 8s-28.333 13.333 -40 24s-20.667 24.334 -27 41.001
s-9.16602 36.667 -8.49902 60h43c0 -4.66699 0.833008 -11.334 2.5 -20.001s5.16699 -17.167 10.5 -25.5s13.166 -15.666 23.499 -21.999s24.5 -9.5 42.5 -9.5s32.167 3.16699 42.5 9.5s18.166 13.666 23.499 21.999s8.83301 16.833 10.5 25.5s2.5 15.334 2.5 20.001h43
c0.666992 -23.333 -2.16602 -43.333 -8.49902 -60s-15.333 -30.334 -27 -41.001s-25 -18.667 -40 -24s-30.5 -8 -46.5 -8z" />
    <glyph glyph-name="Aogonek" unicode="&#x104;" horiz-adv-x="641" 
d="M539 -15c3.33301 3.33301 6.33105 6.16504 8.99805 8.49805s5.33398 4.5 8.00098 6.5c-12.667 34 -24.667 66.667 -36 98s-22.333 62 -33 92h-337c-11.333 -30 -22.666 -60.667 -33.999 -92s-23 -64 -35 -98h-71c26.667 72 51.667 139.167 75 201.5
s46.166 121.333 68.499 177s44.5 109.167 66.5 160.5s45.333 102.666 70 153.999h60c24.667 -51.333 48 -102.666 70 -153.999s44 -104.666 66 -159.999s44.667 -114 68 -176s48.666 -129 75.999 -201c-7.33301 -5.33301 -14.666 -11.166 -21.999 -17.499
s-15 -13.833 -23 -22.5c-10.667 -11.333 -19.167 -21.833 -25.5 -31.5s-9.5 -20.167 -9.5 -31.5c0 -12 4 -20.667 12 -26s18 -8 30 -8c6 0 12.5 0.5 19.5 1.5s13.167 2.5 18.5 4.5l5 -48c-5.33301 -2 -13.166 -4 -23.499 -6s-20.5 -3 -30.5 -3c-36 0 -61.333 6.5 -76 19.5
s-22 29.833 -22 50.5s5.66699 39.167 17 55.5s24.333 31.5 39 45.5zM317.998 614.999c-25.333 -57.333 -49.833 -115.666 -73.5 -174.999s-48.167 -123.333 -73.5 -192h295c-25.333 68.667 -50 132.667 -74 192s-48.667 117.666 -74 174.999z" />
    <glyph glyph-name="aogonek" unicode="&#x105;" horiz-adv-x="509" 
d="M243 529c34 0 62.8311 -4.83594 86.498 -14.5029s42.834 -23 57.501 -40s25.334 -37.167 32.001 -60.5s10 -48.666 10 -75.999v-328c-16 -12.667 -32.333 -28 -49 -46c-10.667 -11.333 -19.167 -22.166 -25.5 -32.499s-9.5 -21.166 -9.5 -32.499c0 -12 4 -20.667 12 -26
s18 -8 30 -8c6 0 12.5 0.5 19.5 1.5s13.167 2.5 18.5 4.5l5 -48c-5.33301 -2 -13.166 -4 -23.499 -6s-20.5 -3 -30.5 -3c-36 0 -61.333 6.5 -76 19.5s-22 29.833 -22 50.5c0 12.667 2.16699 24.334 6.5 35.001s10 20.667 17 30s15 17.833 24 25.5s17.833 14.834 26.5 21.501
c-16.667 -2 -34.667 -3.66699 -54 -5s-39.333 -2 -60 -2c-27.333 0 -52.5 3 -75.5 9s-43 15.5 -60 28.5s-30.333 29.667 -40 50s-14.5 45.166 -14.5 74.499c0 28 5.33301 52 16 72s25.667 36.5 45 49.5s42.333 22.5 69 28.5s55.667 9 87 9
c9.33301 0 19.166 -0.5 29.499 -1.5s20.333 -2.33301 30 -4s18 -3.33398 25 -5.00098s11.833 -3.16699 14.5 -4.5v32c0 18 -1.33301 35.5 -4 52.5s-8.5 32.333 -17.5 46s-21.667 24.667 -38 33s-37.833 12.5 -64.5 12.5c-36 0 -64 -2.5 -84 -7.5s-34.333 -9.16699 -43 -12.5
l-8 56c11.333 5.33301 29 10.333 53 15s52.333 7 85 7zM248.998 46.9971c25.333 0 47.5 0.831055 66.5 2.49805s35.167 3.83398 48.5 6.50098v182c-7.33301 3.33301 -19 6.83301 -35 10.5s-38 5.5 -66 5.5c-16 0 -32.667 -1.16699 -50 -3.5s-33.333 -7.33301 -48 -15
s-26.667 -18.167 -36 -31.5s-14 -31 -14 -53c0 -19.333 3.16699 -35.666 9.5 -48.999s15.333 -24 27 -32s25.667 -13.833 42 -17.5s34.833 -5.5 55.5 -5.5z" />
    <glyph glyph-name="Cacute" unicode="&#x106;" horiz-adv-x="609" 
d="M378 -15c-44.667 0 -86.1699 8.00098 -124.503 24.001s-71.666 39.333 -99.999 70s-50.666 68.5 -66.999 113.5s-24.5 96.5 -24.5 154.5s8.83301 109.5 26.5 154.5s41.167 82.833 70.5 113.5s63.333 53.834 102 69.501s79 23.5 121 23.5c26 0 49.667 -1.66699 71 -5
s40 -7.5 56 -12.5s29.667 -10 41 -15s20 -9.5 26 -13.5l-22 -59c-16.667 10 -37.834 19.833 -63.501 29.5s-57.5 14.5 -95.5 14.5c-43.333 0 -81.166 -7.33301 -113.499 -22s-59.5 -35.334 -81.5 -62.001s-38.5 -58.334 -49.5 -95.001s-16.5 -77.334 -16.5 -122.001
c0 -46 5.5 -87.5 16.5 -124.5s27.167 -68.5 48.5 -94.5s47.5 -46 78.5 -60s66.5 -21 106.5 -21c44 0 80.833 4.16699 110.5 12.5s52.167 16.833 67.5 25.5l19 -58c-4.66699 -3.33301 -12.667 -7.16602 -24 -11.499s-25.666 -8.83301 -42.999 -13.5s-37.333 -8.5 -60 -11.5
s-48 -4.5 -76 -4.5zM499.997 878.001l-171 -139l-33 38l158 152z" />
    <glyph glyph-name="cacute" unicode="&#x107;" horiz-adv-x="460" 
d="M300 -11c-40 0 -75.332 6.33203 -105.999 18.999s-56.167 30.834 -76.5 54.501s-35.833 52 -46.5 85s-16 69.5 -16 109.5c0 40.667 5.5 77.667 16.5 111s26.833 62 47.5 86s45.667 42.5 75 55.5s62.333 19.5 99 19.5c28 0 54.167 -2.33301 78.5 -7
s43.166 -10.667 56.499 -18l-17 -56c-13.333 6.66699 -28.333 12 -45 16s-39 6 -67 6c-57.333 0 -100.833 -18.5 -130.5 -55.5s-44.5 -89.5 -44.5 -157.5c0 -30.667 3.33301 -58.834 10 -84.501s17.5 -47.667 32.5 -66s34.333 -32.666 58 -42.999s52.5 -15.5 86.5 -15.5
c28 0 51.5 3.16699 70.5 9.5s32.833 11.833 41.5 16.5l14 -56c-12 -6.66699 -30.833 -13.167 -56.5 -19.5s-52.5 -9.5 -80.5 -9.5zM418.001 721.999l-171 -139l-33 38l158 152z" />
    <glyph glyph-name="Ccircumflex" unicode="&#x108;" horiz-adv-x="609" 
d="M378 -15c-44.667 0 -86.1699 8.00098 -124.503 24.001s-71.666 39.333 -99.999 70s-50.666 68.5 -66.999 113.5s-24.5 96.5 -24.5 154.5s8.83301 109.5 26.5 154.5s41.167 82.833 70.5 113.5s63.333 53.834 102 69.501s79 23.5 121 23.5c26 0 49.667 -1.66699 71 -5
s40 -7.5 56 -12.5s29.667 -10 41 -15s20 -9.5 26 -13.5l-22 -59c-16.667 10 -37.834 19.833 -63.501 29.5s-57.5 14.5 -95.5 14.5c-43.333 0 -81.166 -7.33301 -113.499 -22s-59.5 -35.334 -81.5 -62.001s-38.5 -58.334 -49.5 -95.001s-16.5 -77.334 -16.5 -122.001
c0 -46 5.5 -87.5 16.5 -124.5s27.167 -68.5 48.5 -94.5s47.5 -46 78.5 -60s66.5 -21 106.5 -21c44 0 80.833 4.16699 110.5 12.5s52.167 16.833 67.5 25.5l19 -58c-4.66699 -3.33301 -12.667 -7.16602 -24 -11.499s-25.666 -8.83301 -42.999 -13.5s-37.333 -8.5 -60 -11.5
s-48 -4.5 -76 -4.5zM257.997 740.001l-28 31l132 147l132 -147l-28 -31l-104 96z" />
    <glyph glyph-name="ccircumflex" unicode="&#x109;" horiz-adv-x="460" 
d="M300 -11c-40 0 -75.332 6.33203 -105.999 18.999s-56.167 30.834 -76.5 54.501s-35.833 52 -46.5 85s-16 69.5 -16 109.5c0 40.667 5.5 77.667 16.5 111s26.833 62 47.5 86s45.667 42.5 75 55.5s62.333 19.5 99 19.5c28 0 54.167 -2.33301 78.5 -7
s43.166 -10.667 56.499 -18l-17 -56c-13.333 6.66699 -28.333 12 -45 16s-39 6 -67 6c-57.333 0 -100.833 -18.5 -130.5 -55.5s-44.5 -89.5 -44.5 -157.5c0 -30.667 3.33301 -58.834 10 -84.501s17.5 -47.667 32.5 -66s34.333 -32.666 58 -42.999s52.5 -15.5 86.5 -15.5
c28 0 51.5 3.16699 70.5 9.5s32.833 11.833 41.5 16.5l14 -56c-12 -6.66699 -30.833 -13.167 -56.5 -19.5s-52.5 -9.5 -80.5 -9.5zM176.001 583.999l-28 31l132 147l132 -147l-28 -31l-104 96z" />
    <glyph glyph-name="Cdotaccent" unicode="&#x10a;" horiz-adv-x="609" 
d="M378 -15c-44.667 0 -86.1699 8.00098 -124.503 24.001s-71.666 39.333 -99.999 70s-50.666 68.5 -66.999 113.5s-24.5 96.5 -24.5 154.5s8.83301 109.5 26.5 154.5s41.167 82.833 70.5 113.5s63.333 53.834 102 69.501s79 23.5 121 23.5c26 0 49.667 -1.66699 71 -5
s40 -7.5 56 -12.5s29.667 -10 41 -15s20 -9.5 26 -13.5l-22 -59c-16.667 10 -37.834 19.833 -63.501 29.5s-57.5 14.5 -95.5 14.5c-43.333 0 -81.166 -7.33301 -113.499 -22s-59.5 -35.334 -81.5 -62.001s-38.5 -58.334 -49.5 -95.001s-16.5 -77.334 -16.5 -122.001
c0 -46 5.5 -87.5 16.5 -124.5s27.167 -68.5 48.5 -94.5s47.5 -46 78.5 -60s66.5 -21 106.5 -21c44 0 80.833 4.16699 110.5 12.5s52.167 16.833 67.5 25.5l19 -58c-4.66699 -3.33301 -12.667 -7.16602 -24 -11.499s-25.666 -8.83301 -42.999 -13.5s-37.333 -8.5 -60 -11.5
s-48 -4.5 -76 -4.5zM361.997 779.001c-13.333 0 -24.666 4.5 -33.999 13.5s-14 21.167 -14 36.5s4.66699 27.5 14 36.5s20.666 13.5 33.999 13.5s24.666 -4.5 33.999 -13.5s14 -21.167 14 -36.5s-4.66699 -27.5 -14 -36.5s-20.666 -13.5 -33.999 -13.5z" />
    <glyph glyph-name="cdotaccent" unicode="&#x10b;" horiz-adv-x="460" 
d="M300 -11c-40 0 -75.332 6.33203 -105.999 18.999s-56.167 30.834 -76.5 54.501s-35.833 52 -46.5 85s-16 69.5 -16 109.5c0 40.667 5.5 77.667 16.5 111s26.833 62 47.5 86s45.667 42.5 75 55.5s62.333 19.5 99 19.5c28 0 54.167 -2.33301 78.5 -7
s43.166 -10.667 56.499 -18l-17 -56c-13.333 6.66699 -28.333 12 -45 16s-39 6 -67 6c-57.333 0 -100.833 -18.5 -130.5 -55.5s-44.5 -89.5 -44.5 -157.5c0 -30.667 3.33301 -58.834 10 -84.501s17.5 -47.667 32.5 -66s34.333 -32.666 58 -42.999s52.5 -15.5 86.5 -15.5
c28 0 51.5 3.16699 70.5 9.5s32.833 11.833 41.5 16.5l14 -56c-12 -6.66699 -30.833 -13.167 -56.5 -19.5s-52.5 -9.5 -80.5 -9.5zM280.001 622.999c-13.333 0 -24.666 4.5 -33.999 13.5s-14 21.167 -14 36.5s4.66699 27.5 14 36.5s20.666 13.5 33.999 13.5
s24.666 -4.5 33.999 -13.5s14 -21.167 14 -36.5s-4.66699 -27.5 -14 -36.5s-20.666 -13.5 -33.999 -13.5z" />
    <glyph glyph-name="Ccaron" unicode="&#x10c;" horiz-adv-x="609" 
d="M378 -15c-44.667 0 -86.1699 8.00098 -124.503 24.001s-71.666 39.333 -99.999 70s-50.666 68.5 -66.999 113.5s-24.5 96.5 -24.5 154.5s8.83301 109.5 26.5 154.5s41.167 82.833 70.5 113.5s63.333 53.834 102 69.501s79 23.5 121 23.5c26 0 49.667 -1.66699 71 -5
s40 -7.5 56 -12.5s29.667 -10 41 -15s20 -9.5 26 -13.5l-22 -59c-16.667 10 -37.834 19.833 -63.501 29.5s-57.5 14.5 -95.5 14.5c-43.333 0 -81.166 -7.33301 -113.499 -22s-59.5 -35.334 -81.5 -62.001s-38.5 -58.334 -49.5 -95.001s-16.5 -77.334 -16.5 -122.001
c0 -46 5.5 -87.5 16.5 -124.5s27.167 -68.5 48.5 -94.5s47.5 -46 78.5 -60s66.5 -21 106.5 -21c44 0 80.833 4.16699 110.5 12.5s52.167 16.833 67.5 25.5l19 -58c-4.66699 -3.33301 -12.667 -7.16602 -24 -11.499s-25.666 -8.83301 -42.999 -13.5s-37.333 -8.5 -60 -11.5
s-48 -4.5 -76 -4.5zM361.997 825.001l104 96l28 -31l-132 -147l-132 147l28 31z" />
    <glyph glyph-name="ccaron" unicode="&#x10d;" horiz-adv-x="460" 
d="M300 -11c-40 0 -75.332 6.33203 -105.999 18.999s-56.167 30.834 -76.5 54.501s-35.833 52 -46.5 85s-16 69.5 -16 109.5c0 40.667 5.5 77.667 16.5 111s26.833 62 47.5 86s45.667 42.5 75 55.5s62.333 19.5 99 19.5c28 0 54.167 -2.33301 78.5 -7
s43.166 -10.667 56.499 -18l-17 -56c-13.333 6.66699 -28.333 12 -45 16s-39 6 -67 6c-57.333 0 -100.833 -18.5 -130.5 -55.5s-44.5 -89.5 -44.5 -157.5c0 -30.667 3.33301 -58.834 10 -84.501s17.5 -47.667 32.5 -66s34.333 -32.666 58 -42.999s52.5 -15.5 86.5 -15.5
c28 0 51.5 3.16699 70.5 9.5s32.833 11.833 41.5 16.5l14 -56c-12 -6.66699 -30.833 -13.167 -56.5 -19.5s-52.5 -9.5 -80.5 -9.5zM280.001 668.999l104 96l28 -31l-132 -147l-132 147l28 31z" />
    <glyph glyph-name="Dcaron" unicode="&#x10e;" horiz-adv-x="702" 
d="M640 347c0 -59.333 -9.33301 -111 -28 -155s-44.834 -80.667 -78.501 -110s-73.834 -51.333 -120.501 -66s-98 -22 -154 -22c-28 0 -57.333 1.5 -88 4.5s-57.667 7.5 -81 13.5v668c23.333 6.66699 50.333 11.5 81 14.5s60 4.5 88 4.5c56 0 107.333 -7.33301 154 -22
s86.834 -36.667 120.501 -66s59.834 -66 78.501 -110s28 -95.333 28 -154zM158 60c4 -0.666992 14.167 -1.99805 30.5 -3.99805s42.5 -3 78.5 -3c50 0 93.667 6.83301 131 20.5s68.666 33.167 93.999 58.5s44.333 56.166 57 92.499s19 77.166 19 122.499
s-6.33301 86 -19 122s-31.667 66.667 -57 92s-56.666 44.833 -93.999 58.5s-81 20.5 -131 20.5c-36 0 -62.167 -1 -78.5 -3s-26.5 -3.33301 -30.5 -4v-573zM349 825.002l104 96l28 -31l-132 -147l-132 147l28 31z" />
    <glyph glyph-name="dcaron" unicode="&#x10f;" horiz-adv-x="615" 
d="M497 16c-19.333 -6.66699 -44.001 -12.9971 -74.001 -18.9971s-68 -9 -114 -9c-38 0 -72.5 6.16699 -103.5 18.5s-57.667 30.166 -80 53.499s-39.666 51.666 -51.999 84.999s-18.5 71 -18.5 113c0 39.333 5.16699 75.5 15.5 108.5s25.5 61.5 45.5 85.5
s44.5 42.667 73.5 56s62.167 20 99.5 20c34 0 63.5 -4.83301 88.5 -14.5s43.167 -18.834 54.5 -27.501v278l65 12v-760zM431.999 423.003c-6 4.66699 -13.5 9.66797 -22.5 15.001s-19.5 10.333 -31.5 15s-25 8.5 -39 11.5s-28.667 4.5 -44 4.5
c-32 0 -58.833 -5.66699 -80.5 -17s-39.167 -26.5 -52.5 -45.5s-23 -41.333 -29 -67s-9 -52.834 -9 -81.501c0 -68 17 -120.167 51 -156.5s79 -54.5 135 -54.5c32 0 57.833 1.5 77.5 4.5s34.5 6.16699 44.5 9.5v362zM646.999 776.004l-24 -217h-47v217h71z" />
    <glyph glyph-name="Dcroat" unicode="&#x110;" horiz-adv-x="716" 
d="M654 347c0 -59.333 -9.33301 -111 -28 -155s-44.834 -80.667 -78.501 -110s-73.834 -51.333 -120.501 -66s-98 -22 -154 -22c-28 0 -57.333 1.5 -88 4.5s-57.667 7.5 -81 13.5v323h-80v55h80v290c23.333 6.66699 50.333 11.5 81 14.5s60 4.5 88 4.5
c56 0 107.333 -7.33301 154 -22s86.834 -36.667 120.501 -66s59.834 -66 78.501 -110s28 -95.333 28 -154zM172 60c4 -0.666992 14.167 -1.99805 30.5 -3.99805s42.5 -3 78.5 -3c50 0 93.667 6.83301 131 20.5s68.666 33.167 93.999 58.5s44.333 56.166 57 92.499
s19 77.166 19 122.499s-6.33301 86 -19 122s-31.667 66.667 -57 92s-56.666 44.833 -93.999 58.5s-81 20.5 -131 20.5c-36 0 -62.167 -1 -78.5 -3s-26.5 -3.33301 -30.5 -4v-243h132v-55h-132v-275z" />
    <glyph glyph-name="dcroat" unicode="&#x111;" horiz-adv-x="583" 
d="M497 680l79.999 0.00292969v-52h-80v-612c-19.333 -6.66699 -44 -13 -74 -19s-68 -9 -114 -9c-38 0 -72.5 6.16699 -103.5 18.5s-57.667 30.166 -80 53.499s-39.666 51.666 -51.999 84.999s-18.5 71 -18.5 113c0 39.333 5.16699 75.5 15.5 108.5s25.5 61.5 45.5 85.5
s44.5 42.667 73.5 56s62.167 20 99.5 20c34 0 63.5 -4.83301 88.5 -14.5s43.167 -18.834 54.5 -27.501v142h-182v52h182v84l65 12v-96zM431.999 423.003c-6 4.66699 -13.5 9.66797 -22.5 15.001s-19.5 10.333 -31.5 15s-25 8.5 -39 11.5s-28.667 4.5 -44 4.5
c-32 0 -58.833 -5.66699 -80.5 -17s-39.167 -26.5 -52.5 -45.5s-23 -41.333 -29 -67s-9 -52.834 -9 -81.501c0 -68 17 -120.167 51 -156.5s79 -54.5 135 -54.5c32 0 57.833 1.5 77.5 4.5s34.5 6.16699 44.5 9.5v362z" />
    <glyph glyph-name="Emacron" unicode="&#x112;" horiz-adv-x="555" 
d="M90 0v693h400v-59h-332v-241h296v-58h-296v-276h358v-59h-426zM158 805v55h265v-55h-265z" />
    <glyph glyph-name="emacron" unicode="&#x113;" horiz-adv-x="548" 
d="M55 259c0 45.333 6.50098 84.8291 19.501 118.496s30 61.834 51 84.501s45 39.5 72 50.5s54.833 16.5 83.5 16.5c63.333 0 113.833 -20.667 151.5 -62s56.5 -105 56.5 -191c0 -5.33301 -0.166992 -10.666 -0.5 -15.999s-0.833008 -10.333 -1.5 -15h-363
c2 -63.333 17.667 -112 47 -146s76 -51 140 -51c35.333 0 63.333 3.33301 84 10s35.667 12.334 45 17.001l12 -56c-9.33301 -5.33301 -26.833 -11.666 -52.5 -18.999s-55.834 -11 -90.501 -11c-45.333 0 -84 6.66699 -116 20s-58.333 32 -79 56s-35.667 52.5 -45 85.5
s-14 69.167 -14 108.5zM422.001 299.996c-1.33301 54 -14 96.002 -38 126.002s-58 45 -102 45c-23.333 0 -44.166 -4.66699 -62.499 -14s-34.333 -21.833 -48 -37.5s-24.334 -33.834 -32.001 -54.501s-12.167 -42.334 -13.5 -65.001h296zM148.001 648.998v55h265v-55h-265z
" />
    <glyph glyph-name="Ebreve" unicode="&#x114;" horiz-adv-x="555" 
d="M90 0v693h400v-59h-332v-241h296v-58h-296v-276h358v-59h-426zM290 769c-16 0 -31.5 2.66699 -46.5 8s-28.333 13.333 -40 24s-20.667 24.334 -27 41.001s-9.16602 36.667 -8.49902 60h43c0 -4.66699 0.833008 -11.334 2.5 -20.001s5.16699 -17.167 10.5 -25.5
s13.166 -15.666 23.499 -21.999s24.5 -9.5 42.5 -9.5s32.167 3.16699 42.5 9.5s18.166 13.666 23.499 21.999s8.83301 16.833 10.5 25.5s2.5 15.334 2.5 20.001h43c0.666992 -23.333 -2.16602 -43.333 -8.49902 -60s-15.333 -30.334 -27 -41.001s-25 -18.667 -40 -24
s-30.5 -8 -46.5 -8z" />
    <glyph glyph-name="ebreve" unicode="&#x115;" horiz-adv-x="548" 
d="M55 259c0 45.333 6.50098 84.8291 19.501 118.496s30 61.834 51 84.501s45 39.5 72 50.5s54.833 16.5 83.5 16.5c63.333 0 113.833 -20.667 151.5 -62s56.5 -105 56.5 -191c0 -5.33301 -0.166992 -10.666 -0.5 -15.999s-0.833008 -10.333 -1.5 -15h-363
c2 -63.333 17.667 -112 47 -146s76 -51 140 -51c35.333 0 63.333 3.33301 84 10s35.667 12.334 45 17.001l12 -56c-9.33301 -5.33301 -26.833 -11.666 -52.5 -18.999s-55.834 -11 -90.501 -11c-45.333 0 -84 6.66699 -116 20s-58.333 32 -79 56s-35.667 52.5 -45 85.5
s-14 69.167 -14 108.5zM422.001 299.996c-1.33301 54 -14 96.002 -38 126.002s-58 45 -102 45c-23.333 0 -44.166 -4.66699 -62.499 -14s-34.333 -21.833 -48 -37.5s-24.334 -33.834 -32.001 -54.501s-12.167 -42.334 -13.5 -65.001h296zM280.001 612.998
c-16 0 -31.5 2.66699 -46.5 8s-28.333 13.333 -40 24s-20.667 24.334 -27 41.001s-9.16602 36.667 -8.49902 60h43c0 -4.66699 0.833008 -11.334 2.5 -20.001s5.16699 -17.167 10.5 -25.5s13.166 -15.666 23.499 -21.999s24.5 -9.5 42.5 -9.5s32.167 3.16699 42.5 9.5
s18.166 13.666 23.499 21.999s8.83301 16.833 10.5 25.5s2.5 15.334 2.5 20.001h43c0.666992 -23.333 -2.16602 -43.333 -8.49902 -60s-15.333 -30.334 -27 -41.001s-25 -18.667 -40 -24s-30.5 -8 -46.5 -8z" />
    <glyph glyph-name="Edotaccent" unicode="&#x116;" horiz-adv-x="555" 
d="M90 0v693h400v-59h-332v-241h296v-58h-296v-276h358v-59h-426zM290 779c-13.333 0 -24.666 4.5 -33.999 13.5s-14 21.167 -14 36.5s4.66699 27.5 14 36.5s20.666 13.5 33.999 13.5s24.666 -4.5 33.999 -13.5s14 -21.167 14 -36.5s-4.66699 -27.5 -14 -36.5
s-20.666 -13.5 -33.999 -13.5z" />
    <glyph glyph-name="edotaccent" unicode="&#x117;" horiz-adv-x="548" 
d="M55 259c0 45.333 6.50098 84.8291 19.501 118.496s30 61.834 51 84.501s45 39.5 72 50.5s54.833 16.5 83.5 16.5c63.333 0 113.833 -20.667 151.5 -62s56.5 -105 56.5 -191c0 -5.33301 -0.166992 -10.666 -0.5 -15.999s-0.833008 -10.333 -1.5 -15h-363
c2 -63.333 17.667 -112 47 -146s76 -51 140 -51c35.333 0 63.333 3.33301 84 10s35.667 12.334 45 17.001l12 -56c-9.33301 -5.33301 -26.833 -11.666 -52.5 -18.999s-55.834 -11 -90.501 -11c-45.333 0 -84 6.66699 -116 20s-58.333 32 -79 56s-35.667 52.5 -45 85.5
s-14 69.167 -14 108.5zM422.001 299.996c-1.33301 54 -14 96.002 -38 126.002s-58 45 -102 45c-23.333 0 -44.166 -4.66699 -62.499 -14s-34.333 -21.833 -48 -37.5s-24.334 -33.834 -32.001 -54.501s-12.167 -42.334 -13.5 -65.001h296zM280.001 622.998
c-13.333 0 -24.666 4.5 -33.999 13.5s-14 21.167 -14 36.5s4.66699 27.5 14 36.5s20.666 13.5 33.999 13.5s24.666 -4.5 33.999 -13.5s14 -21.167 14 -36.5s-4.66699 -27.5 -14 -36.5s-20.666 -13.5 -33.999 -13.5z" />
    <glyph glyph-name="Eogonek" unicode="&#x118;" horiz-adv-x="555" 
d="M90 0l-0.00195312 692.998h400v-59h-332v-241h296v-58h-296v-276h358v-57c-7.33301 -5.33301 -14.666 -11.166 -21.999 -17.499s-15 -13.833 -23 -22.5c-10.667 -11.333 -19.167 -21.833 -25.5 -31.5s-9.5 -20.167 -9.5 -31.5c0 -12 4 -20.667 12 -26s18 -8 30 -8
c6 0 12.5 0.5 19.5 1.5s13.167 2.5 18.5 4.5l5 -48c-5.33301 -2 -13.166 -4 -23.499 -6s-20.5 -3 -30.5 -3c-36 0 -61.333 6.5 -76 19.5s-22 29.833 -22 50.5s5.5 39 16.5 55s23.833 30.667 38.5 44c3.33301 3.33301 6.83301 6.33301 10.5 9s7.16699 5.33398 10.5 8.00098
h-355z" />
    <glyph glyph-name="eogonek" unicode="&#x119;" horiz-adv-x="548" 
d="M55 259c0 45.333 6.49805 84.8281 19.498 118.495s30 61.834 51 84.501s45 39.5 72 50.5s54.833 16.5 83.5 16.5c63.333 0 113.833 -20.667 151.5 -62s56.5 -105 56.5 -191c0 -5.33301 -0.166992 -10.666 -0.5 -15.999s-0.833008 -10.333 -1.5 -15h-363
c2 -63.333 17.667 -112 47 -146s76 -51 140 -51c35.333 0 63.333 3.33301 84 10s35.667 12.334 45 17.001l12 -56c-26 -20 -48 -39 -66 -57c-10.667 -11.333 -19.167 -22 -25.5 -32s-9.5 -20.333 -9.5 -31c0 -12 4 -20.667 12 -26s18 -8 30 -8c6 0 12.5 0.5 19.5 1.5
s13.167 2.5 18.5 4.5l5 -48c-5.33301 -2 -13.166 -4 -23.499 -6s-20.5 -3 -30.5 -3c-36 0 -61.333 6.5 -76 19.5s-22 29.833 -22 50.5c0 12 2.33301 23.333 7 34s10.5 20.834 17.5 30.501s14.833 18.334 23.5 26.001s17.334 14.5 26.001 20.5
c-16.667 -3.33301 -33 -5 -49 -5c-45.333 0 -84 6.66699 -116 20s-58.333 31.833 -79 55.5s-35.667 52 -45 85s-14 69.167 -14 108.5zM421.998 299.995c-1.33301 54 -14 96.002 -38 126.002s-58 45 -102 45c-23.333 0 -44.166 -4.66699 -62.499 -14
s-34.333 -21.833 -48 -37.5s-24.334 -33.834 -32.001 -54.501s-12.167 -42.334 -13.5 -65.001h296z" />
    <glyph glyph-name="Ecaron" unicode="&#x11a;" horiz-adv-x="555" 
d="M90 0v693h400v-59h-332v-241h296v-58h-296v-276h358v-59h-426zM290 825l104 96l28 -31l-132 -147l-132 147l28 31z" />
    <glyph glyph-name="ecaron" unicode="&#x11b;" horiz-adv-x="548" 
d="M55 259c0 45.333 6.50098 84.8291 19.501 118.496s30 61.834 51 84.501s45 39.5 72 50.5s54.833 16.5 83.5 16.5c63.333 0 113.833 -20.667 151.5 -62s56.5 -105 56.5 -191c0 -5.33301 -0.166992 -10.666 -0.5 -15.999s-0.833008 -10.333 -1.5 -15h-363
c2 -63.333 17.667 -112 47 -146s76 -51 140 -51c35.333 0 63.333 3.33301 84 10s35.667 12.334 45 17.001l12 -56c-9.33301 -5.33301 -26.833 -11.666 -52.5 -18.999s-55.834 -11 -90.501 -11c-45.333 0 -84 6.66699 -116 20s-58.333 32 -79 56s-35.667 52.5 -45 85.5
s-14 69.167 -14 108.5zM422.001 299.996c-1.33301 54 -14 96.002 -38 126.002s-58 45 -102 45c-23.333 0 -44.166 -4.66699 -62.499 -14s-34.333 -21.833 -48 -37.5s-24.334 -33.834 -32.001 -54.501s-12.167 -42.334 -13.5 -65.001h296zM280.001 668.998l104 96l28 -31
l-132 -147l-132 147l28 31z" />
    <glyph glyph-name="Gcircumflex" unicode="&#x11c;" horiz-adv-x="658" 
d="M522 328l68.0029 -0.00195312v-309c-12.667 -5.33301 -37.5 -12.166 -74.5 -20.499s-82.5 -12.5 -136.5 -12.5c-45.333 0 -87.333 8 -126 24s-72.167 39.167 -100.5 69.5s-50.5 68 -66.5 113s-24 96.5 -24 154.5s8.66699 109.5 26 154.5s40.833 82.667 70.5 113
s64.167 53.5 103.5 69.5s81.333 24 126 24c51.333 0 93.666 -5.5 126.999 -16.5s57.666 -21.5 72.999 -31.5l-23 -58c-18.667 13.333 -44 24.166 -76 32.499s-66.667 12.5 -104 12.5c-34.667 0 -67.334 -6.33301 -98.001 -19s-57.334 -31.667 -80.001 -57
s-40.5 -56.666 -53.5 -93.999s-19.5 -80.666 -19.5 -129.999c0 -46 5.33301 -87.5 16 -124.5s26.834 -68.667 48.501 -95s48.5 -46.5 80.5 -60.5s69 -21 111 -21c34 0 62.5 1.83301 85.5 5.5s38.5 7.16699 46.5 10.5v266zM263.003 739.998l-28 31l132 147l132 -147l-28 -31
l-104 96z" />
    <glyph glyph-name="gcircumflex" unicode="&#x11d;" horiz-adv-x="573" 
d="M423 60c-4 -3.33301 -10 -7.16797 -18 -11.501s-17.833 -8.83301 -29.5 -13.5s-25 -8.5 -40 -11.5s-31.833 -4.5 -50.5 -4.5c-30 0 -59 4.66699 -87 14s-52.5 24 -73.5 44s-37.833 45.833 -50.5 77.5s-19 70.167 -19 115.5c0 36.667 5.66699 70.667 17 102
s27.5 58.5 48.5 81.5s46.667 41 77 54s64.5 19.5 102.5 19.5c48 0 86.5 -3.16699 115.5 -9.5s52.833 -12.5 71.5 -18.5v-472c0 -77.333 -20 -132.5 -60 -165.5s-100.333 -49.5 -181 -49.5c-33.333 0 -63.5 2.5 -90.5 7.5s-50.167 10.833 -69.5 17.5l13 59
c16 -7.33301 37.833 -13.666 65.5 -18.999s55.5 -8 83.5 -8c61.333 0 105.833 11.833 133.5 35.5s41.5 64.167 41.5 121.5v34zM422 453.998c-11.333 3.33301 -25.998 6.49902 -43.998 9.49902s-43.667 4.5 -77 4.5c-28 0 -52.833 -4.83301 -74.5 -14.5
s-40.167 -23.334 -55.5 -41.001s-27 -38.667 -35 -63s-12 -51.166 -12 -80.499c0 -34 4.66699 -63.167 14 -87.5s21.5 -44.166 36.5 -59.499s32.167 -26.5 51.5 -33.5s39 -10.5 59 -10.5c29.333 0 56.166 4.33301 80.499 13s43.166 18.667 56.499 30v333zM201.002 583.997
l-28 31l132 147l132 -147l-28 -31l-104 96z" />
    <glyph glyph-name="Gbreve" unicode="&#x11e;" horiz-adv-x="658" 
d="M522 328l68.0029 -0.00195312v-309c-12.667 -5.33301 -37.5 -12.166 -74.5 -20.499s-82.5 -12.5 -136.5 -12.5c-45.333 0 -87.333 8 -126 24s-72.167 39.167 -100.5 69.5s-50.5 68 -66.5 113s-24 96.5 -24 154.5s8.66699 109.5 26 154.5s40.833 82.667 70.5 113
s64.167 53.5 103.5 69.5s81.333 24 126 24c51.333 0 93.666 -5.5 126.999 -16.5s57.666 -21.5 72.999 -31.5l-23 -58c-18.667 13.333 -44 24.166 -76 32.499s-66.667 12.5 -104 12.5c-34.667 0 -67.334 -6.33301 -98.001 -19s-57.334 -31.667 -80.001 -57
s-40.5 -56.666 -53.5 -93.999s-19.5 -80.666 -19.5 -129.999c0 -46 5.33301 -87.5 16 -124.5s26.834 -68.667 48.501 -95s48.5 -46.5 80.5 -60.5s69 -21 111 -21c34 0 62.5 1.83301 85.5 5.5s38.5 7.16699 46.5 10.5v266zM367.003 768.998c-16 0 -31.5 2.66699 -46.5 8
s-28.333 13.333 -40 24s-20.667 24.334 -27 41.001s-9.16602 36.667 -8.49902 60h43c0 -4.66699 0.833008 -11.334 2.5 -20.001s5.16699 -17.167 10.5 -25.5s13.166 -15.666 23.499 -21.999s24.5 -9.5 42.5 -9.5s32.167 3.16699 42.5 9.5s18.166 13.666 23.499 21.999
s8.83301 16.833 10.5 25.5s2.5 15.334 2.5 20.001h43c0.666992 -23.333 -2.16602 -43.333 -8.49902 -60s-15.333 -30.334 -27 -41.001s-25 -18.667 -40 -24s-30.5 -8 -46.5 -8z" />
    <glyph glyph-name="gbreve" unicode="&#x11f;" horiz-adv-x="573" 
d="M423 60c-4 -3.33301 -10 -7.16797 -18 -11.501s-17.833 -8.83301 -29.5 -13.5s-25 -8.5 -40 -11.5s-31.833 -4.5 -50.5 -4.5c-30 0 -59 4.66699 -87 14s-52.5 24 -73.5 44s-37.833 45.833 -50.5 77.5s-19 70.167 -19 115.5c0 36.667 5.66699 70.667 17 102
s27.5 58.5 48.5 81.5s46.667 41 77 54s64.5 19.5 102.5 19.5c48 0 86.5 -3.16699 115.5 -9.5s52.833 -12.5 71.5 -18.5v-472c0 -77.333 -20 -132.5 -60 -165.5s-100.333 -49.5 -181 -49.5c-33.333 0 -63.5 2.5 -90.5 7.5s-50.167 10.833 -69.5 17.5l13 59
c16 -7.33301 37.833 -13.666 65.5 -18.999s55.5 -8 83.5 -8c61.333 0 105.833 11.833 133.5 35.5s41.5 64.167 41.5 121.5v34zM422 453.998c-11.333 3.33301 -25.998 6.49902 -43.998 9.49902s-43.667 4.5 -77 4.5c-28 0 -52.833 -4.83301 -74.5 -14.5
s-40.167 -23.334 -55.5 -41.001s-27 -38.667 -35 -63s-12 -51.166 -12 -80.499c0 -34 4.66699 -63.167 14 -87.5s21.5 -44.166 36.5 -59.499s32.167 -26.5 51.5 -33.5s39 -10.5 59 -10.5c29.333 0 56.166 4.33301 80.499 13s43.166 18.667 56.499 30v333zM305.002 612.997
c-16 0 -31.5 2.66699 -46.5 8s-28.333 13.333 -40 24s-20.667 24.334 -27 41.001s-9.16602 36.667 -8.49902 60h43c0 -4.66699 0.833008 -11.334 2.5 -20.001s5.16699 -17.167 10.5 -25.5s13.166 -15.666 23.499 -21.999s24.5 -9.5 42.5 -9.5s32.167 3.16699 42.5 9.5
s18.166 13.666 23.499 21.999s8.83301 16.833 10.5 25.5s2.5 15.334 2.5 20.001h43c0.666992 -23.333 -2.16602 -43.333 -8.49902 -60s-15.333 -30.334 -27 -41.001s-25 -18.667 -40 -24s-30.5 -8 -46.5 -8z" />
    <glyph glyph-name="Gdotaccent" unicode="&#x120;" horiz-adv-x="658" 
d="M522 328l68.0029 -0.00195312v-309c-12.667 -5.33301 -37.5 -12.166 -74.5 -20.499s-82.5 -12.5 -136.5 -12.5c-45.333 0 -87.333 8 -126 24s-72.167 39.167 -100.5 69.5s-50.5 68 -66.5 113s-24 96.5 -24 154.5s8.66699 109.5 26 154.5s40.833 82.667 70.5 113
s64.167 53.5 103.5 69.5s81.333 24 126 24c51.333 0 93.666 -5.5 126.999 -16.5s57.666 -21.5 72.999 -31.5l-23 -58c-18.667 13.333 -44 24.166 -76 32.499s-66.667 12.5 -104 12.5c-34.667 0 -67.334 -6.33301 -98.001 -19s-57.334 -31.667 -80.001 -57
s-40.5 -56.666 -53.5 -93.999s-19.5 -80.666 -19.5 -129.999c0 -46 5.33301 -87.5 16 -124.5s26.834 -68.667 48.501 -95s48.5 -46.5 80.5 -60.5s69 -21 111 -21c34 0 62.5 1.83301 85.5 5.5s38.5 7.16699 46.5 10.5v266zM367.003 778.998
c-13.333 0 -24.666 4.5 -33.999 13.5s-14 21.167 -14 36.5s4.66699 27.5 14 36.5s20.666 13.5 33.999 13.5s24.666 -4.5 33.999 -13.5s14 -21.167 14 -36.5s-4.66699 -27.5 -14 -36.5s-20.666 -13.5 -33.999 -13.5z" />
    <glyph glyph-name="gdotaccent" unicode="&#x121;" horiz-adv-x="573" 
d="M423 60c-4 -3.33301 -10 -7.16797 -18 -11.501s-17.833 -8.83301 -29.5 -13.5s-25 -8.5 -40 -11.5s-31.833 -4.5 -50.5 -4.5c-30 0 -59 4.66699 -87 14s-52.5 24 -73.5 44s-37.833 45.833 -50.5 77.5s-19 70.167 -19 115.5c0 36.667 5.66699 70.667 17 102
s27.5 58.5 48.5 81.5s46.667 41 77 54s64.5 19.5 102.5 19.5c48 0 86.5 -3.16699 115.5 -9.5s52.833 -12.5 71.5 -18.5v-472c0 -77.333 -20 -132.5 -60 -165.5s-100.333 -49.5 -181 -49.5c-33.333 0 -63.5 2.5 -90.5 7.5s-50.167 10.833 -69.5 17.5l13 59
c16 -7.33301 37.833 -13.666 65.5 -18.999s55.5 -8 83.5 -8c61.333 0 105.833 11.833 133.5 35.5s41.5 64.167 41.5 121.5v34zM422 453.998c-11.333 3.33301 -25.998 6.49902 -43.998 9.49902s-43.667 4.5 -77 4.5c-28 0 -52.833 -4.83301 -74.5 -14.5
s-40.167 -23.334 -55.5 -41.001s-27 -38.667 -35 -63s-12 -51.166 -12 -80.499c0 -34 4.66699 -63.167 14 -87.5s21.5 -44.166 36.5 -59.499s32.167 -26.5 51.5 -33.5s39 -10.5 59 -10.5c29.333 0 56.166 4.33301 80.499 13s43.166 18.667 56.499 30v333zM305.002 622.997
c-13.333 0 -24.666 4.5 -33.999 13.5s-14 21.167 -14 36.5s4.66699 27.5 14 36.5s20.666 13.5 33.999 13.5s24.666 -4.5 33.999 -13.5s14 -21.167 14 -36.5s-4.66699 -27.5 -14 -36.5s-20.666 -13.5 -33.999 -13.5z" />
    <glyph glyph-name="Gcommaaccent" unicode="&#x122;" horiz-adv-x="658" 
d="M522 328l68.0029 -0.00195312v-309c-12.667 -5.33301 -37.5 -12.166 -74.5 -20.499s-82.5 -12.5 -136.5 -12.5c-45.333 0 -87.333 8 -126 24s-72.167 39.167 -100.5 69.5s-50.5 68 -66.5 113s-24 96.5 -24 154.5s8.66699 109.5 26 154.5s40.833 82.667 70.5 113
s64.167 53.5 103.5 69.5s81.333 24 126 24c51.333 0 93.666 -5.5 126.999 -16.5s57.666 -21.5 72.999 -31.5l-23 -58c-18.667 13.333 -44 24.166 -76 32.499s-66.667 12.5 -104 12.5c-34.667 0 -67.334 -6.33301 -98.001 -19s-57.334 -31.667 -80.001 -57
s-40.5 -56.666 -53.5 -93.999s-19.5 -80.666 -19.5 -129.999c0 -46 5.33301 -87.5 16 -124.5s26.834 -68.667 48.501 -95s48.5 -46.5 80.5 -60.5s69 -21 111 -21c34 0 62.5 1.83301 85.5 5.5s38.5 7.16699 46.5 10.5v266zM336.003 -68.002v13h64
c0.666992 -2.66699 1 -5.66699 1 -9v-8c0 -36 -10 -64 -30 -84s-46 -30 -78 -30c-5.33301 0 -11 0.333008 -17 1s-10.667 1.66699 -14 3v43c28.667 0 48.167 5.66699 58.5 17s15.5 29.333 15.5 54z" />
    <glyph glyph-name="gcommaaccent" unicode="&#x123;" horiz-adv-x="573" 
d="M423 60c-4 -3.33301 -10 -7.16797 -18 -11.501s-17.833 -8.83301 -29.5 -13.5s-25 -8.5 -40 -11.5s-31.833 -4.5 -50.5 -4.5c-30 0 -59 4.66699 -87 14s-52.5 24 -73.5 44s-37.833 45.833 -50.5 77.5s-19 70.167 -19 115.5c0 36.667 5.66699 70.667 17 102
s27.5 58.5 48.5 81.5s46.667 41 77 54s64.5 19.5 102.5 19.5c48 0 86.5 -3.16699 115.5 -9.5s52.833 -12.5 71.5 -18.5v-472c0 -77.333 -20 -132.5 -60 -165.5s-100.333 -49.5 -181 -49.5c-33.333 0 -63.5 2.5 -90.5 7.5s-50.167 10.833 -69.5 17.5l13 59
c16 -7.33301 37.833 -13.666 65.5 -18.999s55.5 -8 83.5 -8c61.333 0 105.833 11.833 133.5 35.5s41.5 64.167 41.5 121.5v34zM422 453.998c-11.333 3.33301 -25.998 6.49902 -43.998 9.49902s-43.667 4.5 -77 4.5c-28 0 -52.833 -4.83301 -74.5 -14.5
s-40.167 -23.334 -55.5 -41.001s-27 -38.667 -35 -63s-12 -51.166 -12 -80.499c0 -34 4.66699 -63.167 14 -87.5s21.5 -44.166 36.5 -59.499s32.167 -26.5 51.5 -33.5s39 -10.5 59 -10.5c29.333 0 56.166 4.33301 80.499 13s43.166 18.667 56.499 30v333zM265.002 632.997
c0 24 3.33105 44.666 9.99805 61.999s15 31.666 25 42.999s20.833 20.333 32.5 27s22.5 11.334 32.5 14.001l20 -38c-7.33301 -4.66699 -14.166 -9.66699 -20.499 -15s-12.166 -12.166 -17.499 -20.499s-9.5 -18.833 -12.5 -31.5s-4.5 -28.667 -4.5 -48v-12h-64
c-0.666992 2.66699 -1 6 -1 10v9z" />
    <glyph glyph-name="Hcircumflex" unicode="&#x124;" horiz-adv-x="692" 
d="M534 693h68v-693h-68v333h-376v-333h-68v693h68v-301h376v301zM242 740l-28 31l132 147l132 -147l-28 -31l-104 96z" />
    <glyph glyph-name="hcircumflex" unicode="&#x125;" horiz-adv-x="569" 
d="M86 0l-0.000976562 763.999l65 12v-274c21.333 8 43 14.167 65 18.5s44 6.5 66 6.5c40 0 73.333 -5.66699 100 -17s48 -27.5 64 -48.5s27.167 -46.167 33.5 -75.5s9.5 -61.666 9.5 -96.999v-289h-65v268c0 36.667 -2.5 67.667 -7.5 93s-13.333 46 -25 62
s-27.167 27.5 -46.5 34.5s-43.666 10.5 -72.999 10.5c-11.333 0 -23.5 -1 -36.5 -3s-25.167 -4.16699 -36.5 -6.5s-21.5 -4.83301 -30.5 -7.5s-14.833 -4.66699 -17.5 -6v-445h-65zM295.999 859.999l-22 -35l-97 68l-97 -68l-22 35l119 98z" />
    <glyph glyph-name="Hbar" unicode="&#x126;" horiz-adv-x="720" 
d="M616 532v-532h-68v333h-376v-333h-68v532h-80v54h80v107h68v-107h376v107h68v-107h80v-54h-80zM548 532h-376v-140h376v140z" />
    <glyph glyph-name="hbar" unicode="&#x127;" horiz-adv-x="569" 
d="M86 0l-0.000976562 627.999h-80v52h80v84l65 12v-96h187v-52h-187v-126c21.333 8 43 14.167 65 18.5s44 6.5 66 6.5c40 0 73.333 -5.66699 100 -17s48 -27.5 64 -48.5s27.167 -46.167 33.5 -75.5s9.5 -61.666 9.5 -96.999v-289h-65v268c0 36.667 -2.5 67.667 -7.5 93
s-13.333 46 -25 62s-27.167 27.5 -46.5 34.5s-43.666 10.5 -72.999 10.5c-11.333 0 -23.5 -1 -36.5 -3s-25.167 -4.16699 -36.5 -6.5s-21.5 -4.83301 -30.5 -7.5s-14.833 -4.66699 -17.5 -6v-445h-65z" />
    <glyph glyph-name="Itilde" unicode="&#x128;" horiz-adv-x="248" 
d="M90 693h68v-693h-68v693zM188 785c-14.667 0 -28 2.33301 -40 7s-23.667 9.66699 -35 15c-12.667 6.66699 -23 11.167 -31 13.5s-15.333 3.5 -22 3.5c-14 0 -25 -4.66699 -33 -14s-15.333 -19.666 -22 -30.999l-38 18c3.33301 8 7.83301 16.667 13.5 26
s12.334 18 20.001 26s16.667 14.667 27 20s22.166 8 35.499 8c14.667 0 28 -2.33301 40 -7s23.667 -9.66699 35 -15c12.667 -6.66699 23 -11.167 31 -13.5s15.333 -3.5 22 -3.5c14 0 25 4.66699 33 14s15.333 19.666 22 30.999l38 -18
c-3.33301 -8 -7.83301 -16.667 -13.5 -26s-12.334 -18 -20.001 -26s-16.667 -14.667 -27 -20s-22.166 -8 -35.499 -8z" />
    <glyph glyph-name="itilde" unicode="&#x129;" horiz-adv-x="237" 
d="M151 0h-65v517h65v-517zM182 629c-14.667 0 -28 2.33301 -40 7s-23.667 9.66699 -35 15c-12.667 6.66699 -23 11.167 -31 13.5s-15.333 3.5 -22 3.5c-14 0 -25 -4.66699 -33 -14s-15.333 -19.666 -22 -30.999l-38 18c3.33301 8 7.83301 16.667 13.5 26
s12.334 18 20.001 26s16.667 14.667 27 20s22.166 8 35.499 8c14.667 0 28 -2.33301 40 -7s23.667 -9.66699 35 -15c12.667 -6.66699 23 -11.167 31 -13.5s15.333 -3.5 22 -3.5c14 0 25 4.66699 33 14s15.333 19.666 22 30.999l38 -18
c-3.33301 -8 -7.83301 -16.667 -13.5 -26s-12.334 -18 -20.001 -26s-16.667 -14.667 -27 -20s-22.166 -8 -35.499 -8z" />
    <glyph glyph-name="Imacron" unicode="&#x12a;" horiz-adv-x="248" 
d="M90 693h68v-693h-68v693zM-7 805v55h265v-55h-265z" />
    <glyph glyph-name="imacron" unicode="&#x12b;" horiz-adv-x="237" 
d="M151 0h-65v517h65v-517zM-13 649v55h265v-55h-265z" />
    <glyph glyph-name="Ibreve" unicode="&#x12c;" horiz-adv-x="248" 
d="M90 693h68v-693h-68v693zM125 769c-16 0 -31.5 2.66699 -46.5 8s-28.333 13.333 -40 24s-20.667 24.334 -27 41.001s-9.16602 36.667 -8.49902 60h43c0 -4.66699 0.833008 -11.334 2.5 -20.001s5.16699 -17.167 10.5 -25.5s13.166 -15.666 23.499 -21.999
s24.5 -9.5 42.5 -9.5s32.167 3.16699 42.5 9.5s18.166 13.666 23.499 21.999s8.83301 16.833 10.5 25.5s2.5 15.334 2.5 20.001h43c0.666992 -23.333 -2.16602 -43.333 -8.49902 -60s-15.333 -30.334 -27 -41.001s-25 -18.667 -40 -24s-30.5 -8 -46.5 -8z" />
    <glyph glyph-name="ibreve" unicode="&#x12d;" horiz-adv-x="237" 
d="M151 0h-65v517h65v-517zM119 613c-16 0 -31.5 2.66699 -46.5 8s-28.333 13.333 -40 24s-20.667 24.334 -27 41.001s-9.16602 36.667 -8.49902 60h43c0 -4.66699 0.833008 -11.334 2.5 -20.001s5.16699 -17.167 10.5 -25.5s13.166 -15.666 23.499 -21.999
s24.5 -9.5 42.5 -9.5s32.167 3.16699 42.5 9.5s18.166 13.666 23.499 21.999s8.83301 16.833 10.5 25.5s2.5 15.334 2.5 20.001h43c0.666992 -23.333 -2.16602 -43.333 -8.49902 -60s-15.333 -30.334 -27 -41.001s-25 -18.667 -40 -24s-30.5 -8 -46.5 -8z" />
    <glyph glyph-name="Iogonek" unicode="&#x12e;" horiz-adv-x="248" 
d="M158 0c-6.66699 -5.33301 -13.502 -11.001 -20.502 -17.001s-14.167 -13 -21.5 -21c-10.667 -11.333 -19 -21.833 -25 -31.5s-9 -20.167 -9 -31.5c0 -12 4 -20.667 12 -26s18 -8 30 -8c6 0 12.5 0.5 19.5 1.5s13.167 2.5 18.5 4.5l5 -48
c-5.33301 -2 -13.166 -4 -23.499 -6s-20.5 -3 -30.5 -3c-36 0 -61.333 6.5 -76 19.5s-22 29.833 -22 50.5s5.33301 39 16 55s23.334 30.667 38.001 44c3.33301 3.33301 6.83301 6.33301 10.5 9s7.16699 5.33398 10.5 8.00098v693h68v-693z" />
    <glyph glyph-name="iogonek" unicode="&#x12f;" horiz-adv-x="237" 
d="M151 0c-5.33301 -5.33301 -11.6699 -11.001 -19.0029 -17.001s-14.666 -13 -21.999 -21c-10.667 -11.333 -18.667 -21.833 -24 -31.5s-8 -20.167 -8 -31.5c0 -12 4 -20.667 12 -26s18 -8 30 -8c6 0 12.5 0.5 19.5 1.5s13.167 2.5 18.5 4.5l5 -48
c-5.33301 -2 -13.166 -4 -23.499 -6s-20.5 -3 -30.5 -3c-36 0 -61.333 6.5 -76 19.5s-22 29.833 -22 50.5s5.33301 39 16 55s23.334 30.667 38.001 44c3.33301 3.33301 6.83301 6.33301 10.5 9s7.16699 5.33398 10.5 8.00098v517h65v-517zM165.996 672.999
c0 -15.333 -4.66699 -27.5 -14 -36.5s-20.666 -13.5 -33.999 -13.5s-24.666 4.5 -33.999 13.5s-14 21.167 -14 36.5s4.66699 27.5 14 36.5s20.666 13.5 33.999 13.5s24.666 -4.5 33.999 -13.5s14 -21.167 14 -36.5z" />
    <glyph glyph-name="Idotaccent" unicode="&#x130;" horiz-adv-x="248" 
d="M90 693h68v-693h-68v693zM125 779c-13.333 0 -24.666 4.5 -33.999 13.5s-14 21.167 -14 36.5s4.66699 27.5 14 36.5s20.666 13.5 33.999 13.5s24.666 -4.5 33.999 -13.5s14 -21.167 14 -36.5s-4.66699 -27.5 -14 -36.5s-20.666 -13.5 -33.999 -13.5z" />
    <glyph glyph-name="dotlessi" unicode="&#x131;" horiz-adv-x="237" 
d="M151 0h-65v517h65v-517z" />
    <glyph glyph-name="IJ" unicode="&#x132;" horiz-adv-x="735" 
d="M90 693h68v-693h-68v693zM648 218c0 -33.333 -3.33398 -64.1699 -10.001 -92.5029s-18.167 -53 -34.5 -74s-38 -37.333 -65 -49s-60.833 -17.5 -101.5 -17.5c-24 0 -46 2.16699 -66 6.5s-37.667 9.5 -53 15.5s-28.166 12.333 -38.499 19s-18.166 12.667 -23.499 18l32 55
c6 -5.33301 13.5 -11.166 22.5 -17.499s19.5 -12.166 31.5 -17.499s25.333 -9.66602 40 -12.999s30.667 -5 48 -5c51.333 0 89.166 13.5 113.499 40.5s36.5 73.167 36.5 138.5v468h68v-475z" />
    <glyph glyph-name="ij" unicode="&#x133;" horiz-adv-x="474" 
d="M151 0h-65v517h65v-517zM166 673c0 -15.333 -4.66699 -27.5 -14 -36.5s-20.666 -13.5 -33.999 -13.5s-24.666 4.5 -33.999 13.5s-14 21.167 -14 36.5s4.66699 27.5 14 36.5s20.666 13.5 33.999 13.5s24.666 -4.5 33.999 -13.5s14 -21.167 14 -36.5zM226 -187
c-7.33301 0 -16.499 0.998047 -27.499 2.99805s-19.167 4.33301 -24.5 7l9 53c4.66699 -1.33301 11 -2.66602 19 -3.99902s15.667 -2 23 -2c39.333 0 65.5 11 78.5 33s19.5 55 19.5 99v515h65v-512c0 -65.333 -12.333 -113.666 -37 -144.999s-66.334 -47 -125.001 -47z
M403.001 672.998c0 -15.333 -4.66699 -27.5 -14 -36.5s-20.666 -13.5 -33.999 -13.5s-24.666 4.5 -33.999 13.5s-14 21.167 -14 36.5s4.66699 27.5 14 36.5s20.666 13.5 33.999 13.5s24.666 -4.5 33.999 -13.5s14 -21.167 14 -36.5z" />
    <glyph glyph-name="Jcircumflex" unicode="&#x134;" horiz-adv-x="487" 
d="M400 218c0 -33.333 -3.33398 -64.1699 -10.001 -92.5029s-18.167 -53 -34.5 -74s-38 -37.333 -65 -49s-60.833 -17.5 -101.5 -17.5c-24 0 -46 2.16699 -66 6.5s-37.667 9.5 -53 15.5s-28.166 12.333 -38.499 19s-18.166 12.667 -23.499 18l32 55
c6 -5.33301 13.5 -11.166 22.5 -17.499s19.5 -12.166 31.5 -17.499s25.333 -9.66602 40 -12.999s30.667 -5 48 -5c51.333 0 89.166 13.5 113.499 40.5s36.5 73.167 36.5 138.5v468h68v-475zM261.999 739.996l-28 31l132 147l132 -147l-28 -31l-104 96z" />
    <glyph glyph-name="jcircumflex" unicode="&#x135;" horiz-adv-x="237" 
d="M-11 -187c-7.33301 0 -16.499 0.998047 -27.499 2.99805s-19.167 4.33301 -24.5 7l9 53c4.66699 -1.33301 11 -2.66602 19 -3.99902s15.667 -2 23 -2c39.333 0 65.5 11 78.5 33s19.5 55 19.5 99v515h65v-512c0 -65.333 -12.333 -113.666 -37 -144.999
s-66.334 -47 -125.001 -47zM15.001 583.998l-28 31l132 147l132 -147l-28 -31l-104 96z" />
    <glyph glyph-name="Kcommaaccent" unicode="&#x136;" horiz-adv-x="599" 
d="M513 0c-22.667 34.667 -48.1699 68.998 -76.5029 102.998s-58.166 66 -89.499 96s-63.166 57.333 -95.499 82s-63.5 45.334 -93.5 62.001v-343h-68v693h68v-323c25.333 22.667 53.5 48.834 84.5 78.501s61.667 59.5 92 89.5s58.833 58.667 85.5 86s48 50.333 64 69h82
c-19.333 -20.667 -42.666 -45.167 -69.999 -73.5s-56.333 -57.5 -87 -87.5s-61.167 -59.5 -91.5 -88.5s-57.5 -54.5 -81.5 -76.5c19.333 -12 40.166 -26.833 62.499 -44.5s45 -37 68 -58s45.667 -43 68 -66s43.333 -46.167 63 -69.5s37.334 -46 53.001 -68
s28.5 -42.333 38.5 -61h-76zM295.997 -68.002v13h64c0.666992 -2.66699 1 -5.66699 1 -9v-8c0 -36 -10 -64 -30 -84s-46 -30 -78 -30c-5.33301 0 -11 0.333008 -17 1s-10.667 1.66699 -14 3v43c28.667 0 48.167 5.66699 58.5 17s15.5 29.333 15.5 54z" />
    <glyph glyph-name="kcommaaccent" unicode="&#x137;" horiz-adv-x="495" 
d="M224 281c20.667 -14 42.8291 -32.0029 66.4961 -54.0029s47 -45.833 70 -71.5s44.667 -52 65 -79s37.5 -52.5 51.5 -76.5h-77c-16 26.667 -34.167 52.834 -54.5 78.501s-41.666 49.834 -63.999 72.501s-44.666 43.334 -66.999 62.001s-43.5 34.334 -63.5 47.001v-260h-65
v764l65 12v-492c16.667 16 35.334 34.333 56.001 55s41.5 41.667 62.5 63s40.833 42 59.5 62s34.667 37.667 48 53h78c-15.333 -16 -32.666 -34 -51.999 -54s-39.5 -40.833 -60.5 -62.5s-41.833 -42.834 -62.5 -63.501zM238.995 -68.0029v13h64
c0.666992 -2.66699 1 -5.66699 1 -9v-8c0 -36 -10 -64 -30 -84s-46 -30 -78 -30c-5.33301 0 -11 0.333008 -17 1s-10.667 1.66699 -14 3v43c28.667 0 48.167 5.66699 58.5 17s15.5 29.333 15.5 54z" />
    <glyph glyph-name="kgreenlandic" unicode="&#x138;" horiz-adv-x="506" 
d="M86 0v517.001h65v-239c18.667 18 39.5 38.167 62.5 60.5s45.5 44.666 67.5 66.999s42.5 43.333 61.5 63s34.167 35.834 45.5 48.501h78c-15.333 -17.333 -33.666 -36.833 -54.999 -58.5s-43.166 -43.5 -65.499 -65.5s-44 -43.333 -65 -64s-39.5 -38.334 -55.5 -53.001
c22.667 -14.667 46.667 -32.834 72 -54.501s49.833 -45 73.5 -70s45.667 -50.667 66 -77s37.5 -51.166 51.5 -74.499h-77c-16 24.667 -34.833 49.667 -56.5 75s-44.334 49.5 -68.001 72.5s-47.334 43.833 -71.001 62.5s-45.167 33.667 -64.5 45v-255h-65z" />
    <glyph glyph-name="Lacute" unicode="&#x139;" horiz-adv-x="502" 
d="M484 59v-59h-394v693h68v-634h326zM283 878l-171 -139l-33 38l158 152z" />
    <glyph glyph-name="lacute" unicode="&#x13a;" horiz-adv-x="255" 
d="M217 -9c-22 0.666992 -41.167 3.50293 -57.5 8.50293s-30 12.667 -41 23s-19.333 23.666 -25 39.999s-8.5 36.833 -8.5 61.5v640l65 12v-650c0 -16 1.5 -28.833 4.5 -38.5s7.5 -17.334 13.5 -23.001s13.833 -9.83398 23.5 -12.501s21.167 -5 34.5 -7zM226 940.003l23 -58
l-166 -59l-15 41z" />
    <glyph glyph-name="Lcommaaccent" unicode="&#x13b;" horiz-adv-x="502" 
d="M484 59v-59h-394v693h68v-634h326zM262 -68v13h64c0.666992 -2.66699 1 -5.66699 1 -9v-8c0 -36 -10 -64 -30 -84s-46 -30 -78 -30c-5.33301 0 -11 0.333008 -17 1s-10.667 1.66699 -14 3v43c28.667 0 48.167 5.66699 58.5 17s15.5 29.333 15.5 54z" />
    <glyph glyph-name="lcommaaccent" unicode="&#x13c;" horiz-adv-x="255" 
d="M217 -9c-22 0.666992 -41.167 3.50293 -57.5 8.50293s-30 12.667 -41 23s-19.333 23.666 -25 39.999s-8.5 36.833 -8.5 61.5v640l65 12v-650c0 -16 1.5 -28.833 4.5 -38.5s7.5 -17.334 13.5 -23.001s13.833 -9.83398 23.5 -12.501s21.167 -5 34.5 -7zM112 -67.9971v13h64
c0.666992 -2.66699 1 -5.66699 1 -9v-8c0 -36 -10 -64 -30 -84s-46 -30 -78 -30c-5.33301 0 -11 0.333008 -17 1s-10.667 1.66699 -14 3v43c28.667 0 48.167 5.66699 58.5 17s15.5 29.333 15.5 54z" />
    <glyph glyph-name="Lcaron" unicode="&#x13d;" horiz-adv-x="502" 
d="M484 59v-59h-394v693h68v-634h326zM328 694l-24 -217h-47v217h71z" />
    <glyph glyph-name="lcaron" unicode="&#x13e;" horiz-adv-x="268" 
d="M217 -9c-22 0.666992 -41.167 3.50293 -57.5 8.50293s-30 12.667 -41 23s-19.333 23.666 -25 39.999s-8.5 36.833 -8.5 61.5v640l65 12v-650c0 -16 1.5 -28.833 4.5 -38.5s7.5 -17.334 13.5 -23.001s13.833 -9.83398 23.5 -12.501s21.167 -5 34.5 -7zM300 776.003
l-24 -217h-47v217h71z" />
    <glyph glyph-name="Ldot" unicode="&#x13f;" horiz-adv-x="502" 
d="M484 59v-59h-394v693h68v-634h326zM375 314c-13.333 0 -24.666 4.5 -33.999 13.5s-14 21.167 -14 36.5s4.66699 27.5 14 36.5s20.666 13.5 33.999 13.5s24.666 -4.5 33.999 -13.5s14 -21.167 14 -36.5s-4.66699 -27.5 -14 -36.5s-20.666 -13.5 -33.999 -13.5z" />
    <glyph glyph-name="ldot" unicode="&#x140;" horiz-adv-x="309" 
d="M217 -9c-22 0.666992 -41.167 3.50293 -57.5 8.50293s-30 12.667 -41 23s-19.333 23.666 -25 39.999s-8.5 36.833 -8.5 61.5v640l65 12v-650c0 -16 1.5 -28.833 4.5 -38.5s7.5 -17.334 13.5 -23.001s13.833 -9.83398 23.5 -12.501s21.167 -5 34.5 -7zM273 314.003
c-13.333 0 -24.666 4.5 -33.999 13.5s-14 21.167 -14 36.5s4.66699 27.5 14 36.5s20.666 13.5 33.999 13.5s24.666 -4.5 33.999 -13.5s14 -21.167 14 -36.5s-4.66699 -27.5 -14 -36.5s-20.666 -13.5 -33.999 -13.5z" />
    <glyph glyph-name="Lslash" unicode="&#x141;" horiz-adv-x="516" 
d="M285 449l23 -48l-136 -71v-271h326v-59h-394v295l-78 -40l-25 48l103 53v337h68v-302z" />
    <glyph glyph-name="lslash" unicode="&#x142;" horiz-adv-x="255" 
d="M229 477l22 -47.998l-96 -50v-254c0 -16 1.5 -28.833 4.5 -38.5s7.5 -17.334 13.5 -23.001s13.833 -9.83398 23.5 -12.501s21.167 -5 34.5 -7l-9 -54c-22 1.33301 -41.167 4.5 -57.5 9.5s-30 12.5 -41 22.5s-19.333 23.167 -25 39.5s-8.5 36.833 -8.5 61.5v222l-54 -28
l-23 47l77 40v360l65 12v-337z" />
    <glyph glyph-name="Nacute" unicode="&#x143;" horiz-adv-x="709" 
d="M562 0c-12.667 23.333 -28.833 50.666 -48.5 81.999s-41.167 64.833 -64.5 100.5s-48 72.334 -74 110.001s-51.833 74.334 -77.5 110.001s-50.667 69.167 -75 100.5s-46.166 58.333 -65.499 81v-584h-67v693h54c34 -38 70.5 -81.833 109.5 -131.5
s77.167 -100.334 114.5 -152.001s72.166 -102.167 104.499 -151.5s58.833 -92.333 79.5 -129v564h67v-693h-57zM492.001 878l-171 -139l-33 38l158 152z" />
    <glyph glyph-name="nacute" unicode="&#x144;" horiz-adv-x="569" 
d="M86 499c19.333 5.33301 45.333 11.332 78 17.999s72.667 10 120 10c39.333 0 72.166 -5.66699 98.499 -17s47.333 -27.5 63 -48.5s26.834 -46.167 33.501 -75.5s10 -61.666 10 -96.999v-289h-65v268c0 36.667 -2.5 67.667 -7.5 93s-13.333 46 -25 62s-27 27.5 -46 34.5
s-42.833 10.5 -71.5 10.5c-30.667 0 -57.167 -1.66699 -79.5 -5s-36.833 -6.33301 -43.5 -9v-454h-65v499zM425 721.999l-171 -139l-33 38l158 152z" />
    <glyph glyph-name="Ncommaaccent" unicode="&#x145;" horiz-adv-x="709" 
d="M562 0c-12.667 23.333 -28.833 50.666 -48.5 81.999s-41.167 64.833 -64.5 100.5s-48 72.334 -74 110.001s-51.833 74.334 -77.5 110.001s-50.667 69.167 -75 100.5s-46.166 58.333 -65.499 81v-584h-67v693h54c34 -38 70.5 -81.833 109.5 -131.5
s77.167 -100.334 114.5 -152.001s72.166 -102.167 104.499 -151.5s58.833 -92.333 79.5 -129v564h67v-693h-57zM327.001 -68v13h64c0.666992 -2.66699 1 -5.66699 1 -9v-8c0 -36 -10 -64 -30 -84s-46 -30 -78 -30c-5.33301 0 -11 0.333008 -17 1s-10.667 1.66699 -14 3v43
c28.667 0 48.167 5.66699 58.5 17s15.5 29.333 15.5 54z" />
    <glyph glyph-name="ncommaaccent" unicode="&#x146;" horiz-adv-x="569" 
d="M86 499c19.333 5.33301 45.333 11.332 78 17.999s72.667 10 120 10c39.333 0 72.166 -5.66699 98.499 -17s47.333 -27.5 63 -48.5s26.834 -46.167 33.501 -75.5s10 -61.666 10 -96.999v-289h-65v268c0 36.667 -2.5 67.667 -7.5 93s-13.333 46 -25 62s-27 27.5 -46 34.5
s-42.833 10.5 -71.5 10.5c-30.667 0 -57.167 -1.66699 -79.5 -5s-36.833 -6.33301 -43.5 -9v-454h-65v499zM258 -68.001v13h64c0.666992 -2.66699 1 -5.66699 1 -9v-8c0 -36 -10 -64 -30 -84s-46 -30 -78 -30c-5.33301 0 -11 0.333008 -17 1s-10.667 1.66699 -14 3v43
c28.667 0 48.167 5.66699 58.5 17s15.5 29.333 15.5 54z" />
    <glyph glyph-name="Ncaron" unicode="&#x147;" horiz-adv-x="709" 
d="M562 0c-12.667 23.333 -28.833 50.666 -48.5 81.999s-41.167 64.833 -64.5 100.5s-48 72.334 -74 110.001s-51.833 74.334 -77.5 110.001s-50.667 69.167 -75 100.5s-46.166 58.333 -65.499 81v-584h-67v693h54c34 -38 70.5 -81.833 109.5 -131.5
s77.167 -100.334 114.5 -152.001s72.166 -102.167 104.499 -151.5s58.833 -92.333 79.5 -129v564h67v-693h-57zM354.001 825l104 96l28 -31l-132 -147l-132 147l28 31z" />
    <glyph glyph-name="ncaron" unicode="&#x148;" horiz-adv-x="569" 
d="M86 499c19.333 5.33301 45.333 11.332 78 17.999s72.667 10 120 10c39.333 0 72.166 -5.66699 98.499 -17s47.333 -27.5 63 -48.5s26.834 -46.167 33.501 -75.5s10 -61.666 10 -96.999v-289h-65v268c0 36.667 -2.5 67.667 -7.5 93s-13.333 46 -25 62s-27 27.5 -46 34.5
s-42.833 10.5 -71.5 10.5c-30.667 0 -57.167 -1.66699 -79.5 -5s-36.833 -6.33301 -43.5 -9v-454h-65v499zM287 668.999l104 96l28 -31l-132 -147l-132 147l28 31z" />
    <glyph glyph-name="napostrophe" unicode="&#x149;" horiz-adv-x="569" 
d="M86 499c19.333 5.33301 45.333 11.332 78 17.999s72.667 10 120 10c39.333 0 72.166 -5.66699 98.499 -17s47.333 -27.5 63 -48.5s26.834 -46.167 33.501 -75.5s10 -61.666 10 -96.999v-289h-65v268c0 36.667 -2.5 67.667 -7.5 93s-13.333 46 -25 62s-27 27.5 -46 34.5
s-42.833 10.5 -71.5 10.5c-30.667 0 -57.167 -1.66699 -79.5 -5s-36.833 -6.33301 -43.5 -9v-454h-65v499zM140 775.999c0 -42 -6 -78.668 -18 -110.001s-28 -63.666 -48 -96.999l-45 21c11.333 23.333 20.833 48 28.5 74s11.5 51.667 11.5 77c0 6 -0.166992 12.5 -0.5 19.5
s-0.833008 12.167 -1.5 15.5h73z" />
    <glyph glyph-name="Eng" unicode="&#x14a;" horiz-adv-x="709" 
d="M552 17c-14 24.667 -30.833 52.667 -50.5 84s-41 64.333 -64 99s-47 70 -72 106s-49.833 71 -74.5 105s-48.5 65.833 -71.5 95.5s-43.833 55.5 -62.5 77.5v-584h-67v693h54c34 -38 70.5 -81.833 109.5 -131.5s77.167 -100.334 114.5 -152.001
s72.166 -102.167 104.499 -151.5s58.833 -92.333 79.5 -129v564h67v-719c0 -22.667 -1.33301 -43.834 -4 -63.501s-8.5 -36.667 -17.5 -51s-21.667 -25.666 -38 -33.999s-38.5 -12.5 -66.5 -12.5c-11.333 0 -22.166 1 -32.499 3s-18.166 4 -23.499 6l9 54
c3.33301 -1.33301 8.33301 -2.66602 15 -3.99902s14 -2 22 -2c25.333 0 43.166 7.5 53.499 22.5s15.5 38.5 15.5 70.5v54z" />
    <glyph glyph-name="eng" unicode="&#x14b;" horiz-adv-x="569" 
d="M424 268c0 36.667 -2.50098 67.667 -7.50098 93s-13.333 46 -25 62s-27 27.5 -46 34.5s-42.833 10.5 -71.5 10.5c-30.667 0 -57.167 -1.66699 -79.5 -5s-36.833 -6.33301 -43.5 -9v-454h-65v499c19.333 5.33301 45.333 11.333 78 18s72.667 10 120 10
c39.333 0 72.166 -5.66699 98.499 -17s47.333 -27.5 63 -48.5s26.834 -46.167 33.501 -75.5s10 -61.666 10 -96.999v-315c0 -22.667 -1.33301 -43.834 -4 -63.501s-8.33398 -36.667 -17.001 -51s-21.167 -25.5 -37.5 -33.5s-38.5 -12 -66.5 -12
c-11.333 0 -21.666 0.833008 -30.999 2.5s-16.666 3.5 -21.999 5.5l9 53c8 -3.33301 20 -5 36 -5c25.333 0 43 7.5 53 22.5s15 38.5 15 70.5v305z" />
    <glyph glyph-name="Omacron" unicode="&#x14c;" horiz-adv-x="774" 
d="M712 347c0 -59.333 -8.66699 -111.666 -26 -156.999s-40.833 -83.166 -70.5 -113.499s-64.167 -53.166 -103.5 -68.499s-81 -23 -125 -23s-85.667 7.66699 -125 23s-73.833 38.166 -103.5 68.499s-53.167 68.166 -70.5 113.499s-26 97.666 -26 156.999
s8.66699 111.5 26 156.5s40.833 82.667 70.5 113s64.167 53.166 103.5 68.499s81 23 125 23s85.667 -7.66699 125 -23s73.833 -38.166 103.5 -68.499s53.167 -68 70.5 -113s26 -97.167 26 -156.5zM640 347c0 46.667 -6 88.5 -18 125.5s-29 68.5 -51 94.5
s-48.5 45.833 -79.5 59.5s-65.833 20.5 -104.5 20.5s-73.5 -6.83301 -104.5 -20.5s-57.5 -33.5 -79.5 -59.5s-39 -57.5 -51 -94.5s-18 -78.833 -18 -125.5s6 -88.5 18 -125.5s29 -68.5 51 -94.5s48.5 -46 79.5 -60s65.833 -21 104.5 -21s73.5 7 104.5 21s57.5 34 79.5 60
s39 57.5 51 94.5s18 78.833 18 125.5zM255 805v55h265v-55h-265z" />
    <glyph glyph-name="omacron" unicode="&#x14d;" horiz-adv-x="582" 
d="M527 258c0 -40.667 -5.83301 -77.667 -17.5 -111s-28 -61.666 -49 -84.999s-45.833 -41.5 -74.5 -54.5s-60.334 -19.5 -95.001 -19.5s-66.334 6.5 -95.001 19.5s-53.5 31.167 -74.5 54.5s-37.333 51.666 -49 84.999s-17.5 70.333 -17.5 111s5.83301 77.667 17.5 111
s28 61.833 49 85.5s45.833 42 74.5 55s60.334 19.5 95.001 19.5s66.334 -6.5 95.001 -19.5s53.5 -31.333 74.5 -55s37.333 -52.167 49 -85.5s17.5 -70.333 17.5 -111zM458 258c0 64.667 -15 116.167 -45 154.5s-70.667 57.5 -122 57.5s-92 -19.167 -122 -57.5
s-45 -89.833 -45 -154.5s15 -116 45 -154s70.667 -57 122 -57s92 19 122 57s45 89.333 45 154zM159 649v55h265v-55h-265z" />
    <glyph glyph-name="Obreve" unicode="&#x14e;" horiz-adv-x="774" 
d="M712 347c0 -59.333 -8.66699 -111.666 -26 -156.999s-40.833 -83.166 -70.5 -113.499s-64.167 -53.166 -103.5 -68.499s-81 -23 -125 -23s-85.667 7.66699 -125 23s-73.833 38.166 -103.5 68.499s-53.167 68.166 -70.5 113.499s-26 97.666 -26 156.999
s8.66699 111.5 26 156.5s40.833 82.667 70.5 113s64.167 53.166 103.5 68.499s81 23 125 23s85.667 -7.66699 125 -23s73.833 -38.166 103.5 -68.499s53.167 -68 70.5 -113s26 -97.167 26 -156.5zM640 347c0 46.667 -6 88.5 -18 125.5s-29 68.5 -51 94.5
s-48.5 45.833 -79.5 59.5s-65.833 20.5 -104.5 20.5s-73.5 -6.83301 -104.5 -20.5s-57.5 -33.5 -79.5 -59.5s-39 -57.5 -51 -94.5s-18 -78.833 -18 -125.5s6 -88.5 18 -125.5s29 -68.5 51 -94.5s48.5 -46 79.5 -60s65.833 -21 104.5 -21s73.5 7 104.5 21s57.5 34 79.5 60
s39 57.5 51 94.5s18 78.833 18 125.5zM387 769c-16 0 -31.5 2.66699 -46.5 8s-28.333 13.333 -40 24s-20.667 24.334 -27 41.001s-9.16602 36.667 -8.49902 60h43c0 -4.66699 0.833008 -11.334 2.5 -20.001s5.16699 -17.167 10.5 -25.5s13.166 -15.666 23.499 -21.999
s24.5 -9.5 42.5 -9.5s32.167 3.16699 42.5 9.5s18.166 13.666 23.499 21.999s8.83301 16.833 10.5 25.5s2.5 15.334 2.5 20.001h43c0.666992 -23.333 -2.16602 -43.333 -8.49902 -60s-15.333 -30.334 -27 -41.001s-25 -18.667 -40 -24s-30.5 -8 -46.5 -8z" />
    <glyph glyph-name="obreve" unicode="&#x14f;" horiz-adv-x="582" 
d="M527 258c0 -40.667 -5.83301 -77.667 -17.5 -111s-28 -61.666 -49 -84.999s-45.833 -41.5 -74.5 -54.5s-60.334 -19.5 -95.001 -19.5s-66.334 6.5 -95.001 19.5s-53.5 31.167 -74.5 54.5s-37.333 51.666 -49 84.999s-17.5 70.333 -17.5 111s5.83301 77.667 17.5 111
s28 61.833 49 85.5s45.833 42 74.5 55s60.334 19.5 95.001 19.5s66.334 -6.5 95.001 -19.5s53.5 -31.333 74.5 -55s37.333 -52.167 49 -85.5s17.5 -70.333 17.5 -111zM458 258c0 64.667 -15 116.167 -45 154.5s-70.667 57.5 -122 57.5s-92 -19.167 -122 -57.5
s-45 -89.833 -45 -154.5s15 -116 45 -154s70.667 -57 122 -57s92 19 122 57s45 89.333 45 154zM291 613c-16 0 -31.5 2.66699 -46.5 8s-28.333 13.333 -40 24s-20.667 24.334 -27 41.001s-9.16602 36.667 -8.49902 60h43c0 -4.66699 0.833008 -11.334 2.5 -20.001
s5.16699 -17.167 10.5 -25.5s13.166 -15.666 23.499 -21.999s24.5 -9.5 42.5 -9.5s32.167 3.16699 42.5 9.5s18.166 13.666 23.499 21.999s8.83301 16.833 10.5 25.5s2.5 15.334 2.5 20.001h43c0.666992 -23.333 -2.16602 -43.333 -8.49902 -60s-15.333 -30.334 -27 -41.001
s-25 -18.667 -40 -24s-30.5 -8 -46.5 -8z" />
    <glyph glyph-name="Ohungarumlaut" unicode="&#x150;" horiz-adv-x="774" 
d="M712 347c0 -59.333 -8.66699 -111.666 -26 -156.999s-40.833 -83.166 -70.5 -113.499s-64.167 -53.166 -103.5 -68.499s-81 -23 -125 -23s-85.667 7.66699 -125 23s-73.833 38.166 -103.5 68.499s-53.167 68.166 -70.5 113.499s-26 97.666 -26 156.999
s8.66699 111.5 26 156.5s40.833 82.667 70.5 113s64.167 53.166 103.5 68.499s81 23 125 23s85.667 -7.66699 125 -23s73.833 -38.166 103.5 -68.499s53.167 -68 70.5 -113s26 -97.167 26 -156.5zM640 347c0 46.667 -6 88.5 -18 125.5s-29 68.5 -51 94.5
s-48.5 45.833 -79.5 59.5s-65.833 20.5 -104.5 20.5s-73.5 -6.83301 -104.5 -20.5s-57.5 -33.5 -79.5 -59.5s-39 -57.5 -51 -94.5s-18 -78.833 -18 -125.5s6 -88.5 18 -125.5s29 -68.5 51 -94.5s48.5 -46 79.5 -60s65.833 -21 104.5 -21s73.5 7 104.5 21s57.5 34 79.5 60
s39 57.5 51 94.5s18 78.833 18 125.5zM440 887l-126 -149l-39 29l119 162zM597 887l-126 -149l-39 29l119 162z" />
    <glyph glyph-name="ohungarumlaut" unicode="&#x151;" horiz-adv-x="582" 
d="M527 258c0 -40.667 -5.83301 -77.667 -17.5 -111s-28 -61.666 -49 -84.999s-45.833 -41.5 -74.5 -54.5s-60.334 -19.5 -95.001 -19.5s-66.334 6.5 -95.001 19.5s-53.5 31.167 -74.5 54.5s-37.333 51.666 -49 84.999s-17.5 70.333 -17.5 111s5.83301 77.667 17.5 111
s28 61.833 49 85.5s45.833 42 74.5 55s60.334 19.5 95.001 19.5s66.334 -6.5 95.001 -19.5s53.5 -31.333 74.5 -55s37.333 -52.167 49 -85.5s17.5 -70.333 17.5 -111zM458 258c0 64.667 -15 116.167 -45 154.5s-70.667 57.5 -122 57.5s-92 -19.167 -122 -57.5
s-45 -89.833 -45 -154.5s15 -116 45 -154s70.667 -57 122 -57s92 19 122 57s45 89.333 45 154zM344 731l-126 -149l-39 29l119 162zM501 731l-126 -149l-39 29l119 162z" />
    <glyph glyph-name="OE" unicode="&#x152;" horiz-adv-x="990" 
d="M539 633c-4 0.666992 -13.833 1.99805 -29.5 3.99805s-41.5 3 -77.5 3c-48.667 0 -91.5 -6.83301 -128.5 -20.5s-67.833 -33.167 -92.5 -58.5s-43.167 -56 -55.5 -92s-18.5 -76.667 -18.5 -122s6.16699 -86.166 18.5 -122.499s30.833 -67.166 55.5 -92.499
s55.5 -44.833 92.5 -58.5s79.833 -20.5 128.5 -20.5c36 0 61.833 1 77.5 3s25.5 3.33301 29.5 4v573zM540 -0.00195312c-33.333 -4 -66.667 -6 -100 -6c-55.333 0 -105.833 7.33301 -151.5 22s-85.167 36.667 -118.5 66s-59.166 66 -77.499 110s-27.5 95.667 -27.5 155
c0 58.667 9.16699 110 27.5 154s44.166 80.667 77.499 110s72.833 51.333 118.5 66s96.167 22 151.5 22c16 0 32.5 -0.5 49.5 -1.5s33.5 -2.5 49.5 -4.5h386v-59h-318v-241h282v-58h-282v-276h344v-59h-411z" />
    <glyph glyph-name="oe" unicode="&#x153;" horiz-adv-x="944" 
d="M291 529c46.667 0 86.502 -11.502 119.502 -34.502s58.833 -54.833 77.5 -95.5c19.333 43.333 45.666 75.833 78.999 97.5s70 32.5 110 32.5c63.333 0 113.833 -20.667 151.5 -62s56.5 -105 56.5 -191c0 -5.33301 -0.166992 -10.666 -0.5 -15.999
s-0.833008 -10.333 -1.5 -15h-363c2 -63.333 17.667 -112 47 -146s76 -51 140 -51c35.333 0 63.333 3.33301 84 10s35.667 12.334 45 17.001l12 -56c-9.33301 -5.33301 -26.833 -11.666 -52.5 -18.999s-55.834 -11 -90.501 -11c-60 0 -107 11 -141 33s-59.667 52.333 -77 91
c-19.333 -39.333 -45.333 -70 -78 -92s-72 -33 -118 -33c-34.667 0 -66.334 6.5 -95.001 19.5s-53.5 31.167 -74.5 54.5s-37.333 51.666 -49 84.999s-17.5 70.333 -17.5 111s5.83301 77.667 17.5 111s28 61.833 49 85.5s45.833 42 74.5 55s60.334 19.5 95.001 19.5z
M458.002 257.998c0 64.667 -15 116.167 -45 154.5s-70.667 57.5 -122 57.5s-92 -19.167 -122 -57.5s-45 -89.833 -45 -154.5s15 -116 45 -154s70.667 -57 122 -57s92 19 122 57s45 89.333 45 154zM818.002 299.998c-1.33301 54 -14 96.002 -38 126.002s-58 45 -102 45
c-23.333 0 -44.166 -4.66699 -62.499 -14s-34.333 -21.833 -48 -37.5s-24.334 -33.834 -32.001 -54.501s-12.167 -42.334 -13.5 -65.001h296z" />
    <glyph glyph-name="Racute" unicode="&#x154;" horiz-adv-x="618" 
d="M552 485c0 -52 -13.666 -93.001 -40.999 -123.001s-63.333 -51.667 -108 -65c10.667 -13.333 24.5 -31.333 41.5 -54s34.5 -47.5 52.5 -74.5s35.667 -55.167 53 -84.5s32 -57.333 44 -84h-73c-14 26.667 -29.167 53.334 -45.5 80.001s-33 52.5 -50 77.5
s-33.5 48.167 -49.5 69.5l-42 56c-21.333 -2 -42.666 -3 -63.999 -3h-112v-280h-68v680c24 6.66699 52.167 11.5 84.5 14.5s62.166 4.5 89.499 4.5c95.333 0 167.166 -18 215.499 -54s72.5 -89.333 72.5 -160zM272.001 639.999c-25.333 0 -47.5 -0.831055 -66.5 -2.49805
s-34.833 -3.16699 -47.5 -4.5v-295h94c31.333 0 61 1.5 89 4.5s52.333 9.66699 73 20s37 25.166 49 44.499s18 45.666 18 78.999c0 30.667 -6 56 -18 76s-27.667 35.833 -47 47.5s-41.5 19.667 -66.5 24s-50.833 6.5 -77.5 6.5zM427.001 878.001l-171 -139l-33 38l158 152z
" />
    <glyph glyph-name="racute" unicode="&#x155;" horiz-adv-x="374" 
d="M262 527c21.333 0 41.499 -1.66797 60.499 -5.00098s32.167 -6.66602 39.5 -9.99902l-13 -56c-5.33301 2.66699 -16.166 5.5 -32.499 8.5s-37.833 4.5 -64.5 4.5c-28 0 -50.5 -2 -67.5 -6s-28.167 -7.33301 -33.5 -10v-453h-65v493c16.667 7.33301 39.667 14.833 69 22.5
s65 11.5 107 11.5zM364.999 721.999l-171 -139l-33 38l158 152z" />
    <glyph glyph-name="Rcommaaccent" unicode="&#x156;" horiz-adv-x="618" 
d="M552 485c0 -52 -13.666 -93.001 -40.999 -123.001s-63.333 -51.667 -108 -65c10.667 -13.333 24.5 -31.333 41.5 -54s34.5 -47.5 52.5 -74.5s35.667 -55.167 53 -84.5s32 -57.333 44 -84h-73c-14 26.667 -29.167 53.334 -45.5 80.001s-33 52.5 -50 77.5
s-33.5 48.167 -49.5 69.5l-42 56c-21.333 -2 -42.666 -3 -63.999 -3h-112v-280h-68v680c24 6.66699 52.167 11.5 84.5 14.5s62.166 4.5 89.499 4.5c95.333 0 167.166 -18 215.499 -54s72.5 -89.333 72.5 -160zM272.001 639.999c-25.333 0 -47.5 -0.831055 -66.5 -2.49805
s-34.833 -3.16699 -47.5 -4.5v-295h94c31.333 0 61 1.5 89 4.5s52.333 9.66699 73 20s37 25.166 49 44.499s18 45.666 18 78.999c0 30.667 -6 56 -18 76s-27.667 35.833 -47 47.5s-41.5 19.667 -66.5 24s-50.833 6.5 -77.5 6.5zM295.001 -67.999v13h64
c0.666992 -2.66699 1 -5.66699 1 -9v-8c0 -36 -10 -64 -30 -84s-46 -30 -78 -30c-5.33301 0 -11 0.333008 -17 1s-10.667 1.66699 -14 3v43c28.667 0 48.167 5.66699 58.5 17s15.5 29.333 15.5 54z" />
    <glyph glyph-name="rcommaaccent" unicode="&#x157;" horiz-adv-x="374" 
d="M262 527c21.333 0 41.499 -1.66797 60.499 -5.00098s32.167 -6.66602 39.5 -9.99902l-13 -56c-5.33301 2.66699 -16.166 5.5 -32.499 8.5s-37.833 4.5 -64.5 4.5c-28 0 -50.5 -2 -67.5 -6s-28.167 -7.33301 -33.5 -10v-453h-65v493c16.667 7.33301 39.667 14.833 69 22.5
s65 11.5 107 11.5zM86.999 -68.001v13h64c0.666992 -2.66699 1 -5.66699 1 -9v-8c0 -36 -10 -64 -30 -84s-46 -30 -78 -30c-5.33301 0 -11 0.333008 -17 1s-10.667 1.66699 -14 3v43c28.667 0 48.167 5.66699 58.5 17s15.5 29.333 15.5 54z" />
    <glyph glyph-name="Rcaron" unicode="&#x158;" horiz-adv-x="618" 
d="M552 485c0 -52 -13.666 -93.001 -40.999 -123.001s-63.333 -51.667 -108 -65c10.667 -13.333 24.5 -31.333 41.5 -54s34.5 -47.5 52.5 -74.5s35.667 -55.167 53 -84.5s32 -57.333 44 -84h-73c-14 26.667 -29.167 53.334 -45.5 80.001s-33 52.5 -50 77.5
s-33.5 48.167 -49.5 69.5l-42 56c-21.333 -2 -42.666 -3 -63.999 -3h-112v-280h-68v680c24 6.66699 52.167 11.5 84.5 14.5s62.166 4.5 89.499 4.5c95.333 0 167.166 -18 215.499 -54s72.5 -89.333 72.5 -160zM272.001 639.999c-25.333 0 -47.5 -0.831055 -66.5 -2.49805
s-34.833 -3.16699 -47.5 -4.5v-295h94c31.333 0 61 1.5 89 4.5s52.333 9.66699 73 20s37 25.166 49 44.499s18 45.666 18 78.999c0 30.667 -6 56 -18 76s-27.667 35.833 -47 47.5s-41.5 19.667 -66.5 24s-50.833 6.5 -77.5 6.5zM289.001 825.001l104 96l28 -31l-132 -147
l-132 147l28 31z" />
    <glyph glyph-name="rcaron" unicode="&#x159;" horiz-adv-x="374" 
d="M262 527c21.333 0 41.499 -1.66797 60.499 -5.00098s32.167 -6.66602 39.5 -9.99902l-13 -56c-5.33301 2.66699 -16.166 5.5 -32.499 8.5s-37.833 4.5 -64.5 4.5c-28 0 -50.5 -2 -67.5 -6s-28.167 -7.33301 -33.5 -10v-453h-65v493c16.667 7.33301 39.667 14.833 69 22.5
s65 11.5 107 11.5zM226.999 668.999l104 96l28 -31l-132 -147l-132 147l28 31z" />
    <glyph glyph-name="Sacute" unicode="&#x15a;" horiz-adv-x="517" 
d="M239 44c54 0 96.0068 9.83496 126.007 29.502s45 51.5 45 95.5c0 25.333 -4.83301 46.5 -14.5 63.5s-22.5 31.333 -38.5 43s-34.333 21.667 -55 30s-42.334 17.166 -65.001 26.499c-28.667 11.333 -54.334 23 -77.001 35s-42 25.5 -58 40.5s-28.167 32.167 -36.5 51.5
s-12.5 42 -12.5 68c0 59.333 19.667 104.333 59 135s94 46 164 46c18.667 0 37 -1.33301 55 -4s34.833 -6.16699 50.5 -10.5s30 -9.16602 43 -14.499s23.833 -11 32.5 -17l-24 -57c-19.333 13.333 -42.833 24 -70.5 32s-57.5 12 -89.5 12c-22 0 -42.167 -2.16699 -60.5 -6.5
s-34.166 -11.333 -47.499 -21s-23.833 -21.834 -31.5 -36.501s-11.5 -32.334 -11.5 -53.001c0 -21.333 4 -39.333 12 -54s19.167 -27.334 33.5 -38.001s31.166 -20.334 50.499 -29.001s40.333 -17.667 63 -27c27.333 -11.333 53.166 -22.666 77.499 -33.999
s45.5 -24.666 63.5 -39.999s32.333 -34 43 -56s16 -49 16 -81c0 -62.667 -21.833 -109.667 -65.5 -141s-102.834 -47 -177.501 -47c-26.667 0 -51 1.66699 -73 5s-41.667 7.5 -59 12.5s-32 10.167 -44 15.5s-21.333 10 -28 14l22 59c6.66699 -4 15.667 -8.66699 27 -14
s24.666 -10.5 39.999 -15.5s32.666 -9.16699 51.999 -12.5s40.666 -5 63.999 -5zM402.007 878.002l-171 -139l-33 38l158 152z" />
    <glyph glyph-name="sacute" unicode="&#x15b;" horiz-adv-x="428" 
d="M192 46c37.333 0 68.165 6.16992 92.498 18.5029s36.5 33.166 36.5 62.499c0 14 -2.16699 26 -6.5 36s-11.5 19 -21.5 27s-23.167 15.667 -39.5 23s-36.5 16 -60.5 26c-19.333 8 -37.666 16.167 -54.999 24.5s-32.666 18 -45.999 29s-24 24.167 -32 39.5s-12 34 -12 56
c0 42 15.833 76 47.5 102s75.167 39 130.5 39c35.333 0 64.5 -3 87.5 -9s39.167 -11.333 48.5 -16l-15 -58c-8 4 -21.5 9.33301 -40.5 16s-46.833 10 -83.5 10c-14.667 0 -28.5 -1.5 -41.5 -4.5s-24.5 -7.66699 -34.5 -14s-18 -14.333 -24 -24s-9 -21.5 -9 -35.5
s2.66699 -26 8 -36s13.166 -18.833 23.499 -26.5s23 -14.834 38 -21.501s32.167 -14 51.5 -22c20 -8 39.167 -16.167 57.5 -24.5s34.5 -18.333 48.5 -30s25.333 -25.667 34 -42s13 -36.833 13 -61.5c0 -46.667 -17.5 -82 -52.5 -106s-82.833 -36 -143.5 -36
c-45.333 0 -80 3.83301 -104 11.5s-40 13.5 -48 17.5l17 59c2 -1.33301 6.33301 -3.5 13 -6.5s15.667 -6.33301 27 -10s24.833 -6.83398 40.5 -9.50098s33.834 -4 54.501 -4zM346.999 722.003l-171 -139l-33 38l158 152z" />
    <glyph glyph-name="Scircumflex" unicode="&#x15c;" horiz-adv-x="517" 
d="M239 44c54 0 96.0068 9.83496 126.007 29.502s45 51.5 45 95.5c0 25.333 -4.83301 46.5 -14.5 63.5s-22.5 31.333 -38.5 43s-34.333 21.667 -55 30s-42.334 17.166 -65.001 26.499c-28.667 11.333 -54.334 23 -77.001 35s-42 25.5 -58 40.5s-28.167 32.167 -36.5 51.5
s-12.5 42 -12.5 68c0 59.333 19.667 104.333 59 135s94 46 164 46c18.667 0 37 -1.33301 55 -4s34.833 -6.16699 50.5 -10.5s30 -9.16602 43 -14.499s23.833 -11 32.5 -17l-24 -57c-19.333 13.333 -42.833 24 -70.5 32s-57.5 12 -89.5 12c-22 0 -42.167 -2.16699 -60.5 -6.5
s-34.166 -11.333 -47.499 -21s-23.833 -21.834 -31.5 -36.501s-11.5 -32.334 -11.5 -53.001c0 -21.333 4 -39.333 12 -54s19.167 -27.334 33.5 -38.001s31.166 -20.334 50.499 -29.001s40.333 -17.667 63 -27c27.333 -11.333 53.166 -22.666 77.499 -33.999
s45.5 -24.666 63.5 -39.999s32.333 -34 43 -56s16 -49 16 -81c0 -62.667 -21.833 -109.667 -65.5 -141s-102.834 -47 -177.501 -47c-26.667 0 -51 1.66699 -73 5s-41.667 7.5 -59 12.5s-32 10.167 -44 15.5s-21.333 10 -28 14l22 59c6.66699 -4 15.667 -8.66699 27 -14
s24.666 -10.5 39.999 -15.5s32.666 -9.16699 51.999 -12.5s40.666 -5 63.999 -5zM160.007 740.002l-28 31l132 147l132 -147l-28 -31l-104 96z" />
    <glyph glyph-name="scircumflex" unicode="&#x15d;" horiz-adv-x="428" 
d="M192 46c37.333 0 68.165 6.16992 92.498 18.5029s36.5 33.166 36.5 62.499c0 14 -2.16699 26 -6.5 36s-11.5 19 -21.5 27s-23.167 15.667 -39.5 23s-36.5 16 -60.5 26c-19.333 8 -37.666 16.167 -54.999 24.5s-32.666 18 -45.999 29s-24 24.167 -32 39.5s-12 34 -12 56
c0 42 15.833 76 47.5 102s75.167 39 130.5 39c35.333 0 64.5 -3 87.5 -9s39.167 -11.333 48.5 -16l-15 -58c-8 4 -21.5 9.33301 -40.5 16s-46.833 10 -83.5 10c-14.667 0 -28.5 -1.5 -41.5 -4.5s-24.5 -7.66699 -34.5 -14s-18 -14.333 -24 -24s-9 -21.5 -9 -35.5
s2.66699 -26 8 -36s13.166 -18.833 23.499 -26.5s23 -14.834 38 -21.501s32.167 -14 51.5 -22c20 -8 39.167 -16.167 57.5 -24.5s34.5 -18.333 48.5 -30s25.333 -25.667 34 -42s13 -36.833 13 -61.5c0 -46.667 -17.5 -82 -52.5 -106s-82.833 -36 -143.5 -36
c-45.333 0 -80 3.83301 -104 11.5s-40 13.5 -48 17.5l17 59c2 -1.33301 6.33301 -3.5 13 -6.5s15.667 -6.33301 27 -10s24.833 -6.83398 40.5 -9.50098s33.834 -4 54.501 -4zM104.999 584.003l-28 31l132 147l132 -147l-28 -31l-104 96z" />
    <glyph glyph-name="Scedilla" unicode="&#x15e;" horiz-adv-x="517" 
d="M264 -36c18.667 -8 33.5088 -17.8311 44.5088 -29.498s16.5 -27.167 16.5 -46.5c0 -8 -1.33301 -16.5 -4 -25.5s-7.66699 -17.167 -15 -24.5s-17.333 -13.333 -30 -18s-29 -7 -49 -7c-13.333 0 -27 1.16699 -41 3.5s-24 5.16602 -30 8.49902l8 43
c7.33301 -3.33301 15.666 -5.66602 24.999 -6.99902s20.666 -2 33.999 -2c27.333 0 41 9.66699 41 29c0 11.333 -4.66699 20 -14 26s-24 13 -44 21c2 7.33301 5 15.333 9 24s8.33301 17.334 13 26.001c-25.333 0.666992 -48.5 2.66699 -69.5 6s-39.667 7.5 -56 12.5
s-30.333 10 -42 15s-20.5 9.5 -26.5 13.5l22 59c6.66699 -4 15.667 -8.66699 27 -14s24.666 -10.5 39.999 -15.5s32.666 -9.16699 51.999 -12.5s40.666 -5 63.999 -5c54 0 96 9.83301 126 29.5s45 51.5 45 95.5c0 25.333 -4.83301 46.5 -14.5 63.5s-22.5 31.333 -38.5 43
s-34.333 21.667 -55 30s-42.334 17.166 -65.001 26.499c-28.667 11.333 -54.334 23 -77.001 35s-42 25.5 -58 40.5s-28.167 32.167 -36.5 51.5s-12.5 42 -12.5 68c0 59.333 19.667 104.333 59 135s94 46 164 46c18.667 0 37 -1.33301 55 -4s34.833 -6.16699 50.5 -10.5
s30 -9.16602 43 -14.499s23.833 -11 32.5 -17l-24 -57c-19.333 13.333 -42.833 24 -70.5 32s-57.5 12 -89.5 12c-22 0 -42.167 -2.16699 -60.5 -6.5s-34.166 -11.333 -47.499 -21s-23.833 -21.834 -31.5 -36.501s-11.5 -32.334 -11.5 -53.001c0 -21.333 4 -39.333 12 -54
s19.167 -27.334 33.5 -38.001s31.166 -20.334 50.499 -29.001s40.333 -17.667 63 -27c27.333 -11.333 53.166 -22.666 77.499 -33.999s45.5 -24.666 63.5 -39.999s32.333 -34 43 -56s16 -49 16 -81c0 -58 -18.333 -102.333 -55 -133s-87.334 -48.334 -152.001 -53.001
c-2 -4 -3.83301 -8 -5.5 -12s-3.16699 -7.66699 -4.5 -11z" />
    <glyph glyph-name="scedilla" unicode="&#x15f;" horiz-adv-x="428" 
d="M221 -36c18.667 -8 33.499 -17.832 44.499 -29.499s16.5 -27.167 16.5 -46.5c0 -8 -1.33301 -16.5 -4 -25.5s-7.66699 -17.167 -15 -24.5s-17.333 -13.333 -30 -18s-29 -7 -49 -7c-13.333 0 -27 1.16699 -41 3.5s-24 5.16602 -30 8.49902l8 43
c7.33301 -3.33301 15.666 -5.66602 24.999 -6.99902s20.666 -2 33.999 -2c27.333 0 41 9.66699 41 29c0 11.333 -4.66699 20 -14 26s-24 13 -44 21c2.66699 7.33301 6 15.833 10 25.5s8.33301 18.834 13 27.501c-43.333 0.666992 -76.666 4.66699 -99.999 12
s-38.666 13 -45.999 17l17 59c2 -1.33301 6.33301 -3.5 13 -6.5s15.667 -6.33301 27 -10s24.833 -6.83398 40.5 -9.50098s33.834 -4 54.501 -4c37.333 0 68.166 6.16699 92.499 18.5s36.5 33.166 36.5 62.499c0 14 -2.16699 26 -6.5 36s-11.5 19 -21.5 27
s-23.167 15.667 -39.5 23s-36.5 16 -60.5 26c-19.333 8 -37.666 16.167 -54.999 24.5s-32.666 18 -45.999 29s-24 24.167 -32 39.5s-12 34 -12 56c0 42 15.833 76 47.5 102s75.167 39 130.5 39c35.333 0 64.5 -3 87.5 -9s39.167 -11.333 48.5 -16l-15 -58
c-8 4 -21.5 9.33301 -40.5 16s-46.833 10 -83.5 10c-14.667 0 -28.5 -1.5 -41.5 -4.5s-24.5 -7.66699 -34.5 -14s-18 -14.333 -24 -24s-9 -21.5 -9 -35.5s2.66699 -26 8 -36s13.166 -18.833 23.499 -26.5s23 -14.834 38 -21.501s32.167 -14 51.5 -22
c20 -8 39.167 -16.167 57.5 -24.5s34.5 -18.333 48.5 -30s25.333 -25.667 34 -42s13 -36.833 13 -61.5c0 -41.333 -13.833 -73.666 -41.5 -96.999s-65.5 -37.333 -113.5 -42c-5.33301 -10 -9.33301 -19 -12 -27z" />
    <glyph glyph-name="Scaron" unicode="&#x160;" horiz-adv-x="517" 
d="M239 44c54 0 96.0068 9.83496 126.007 29.502s45 51.5 45 95.5c0 25.333 -4.83301 46.5 -14.5 63.5s-22.5 31.333 -38.5 43s-34.333 21.667 -55 30s-42.334 17.166 -65.001 26.499c-28.667 11.333 -54.334 23 -77.001 35s-42 25.5 -58 40.5s-28.167 32.167 -36.5 51.5
s-12.5 42 -12.5 68c0 59.333 19.667 104.333 59 135s94 46 164 46c18.667 0 37 -1.33301 55 -4s34.833 -6.16699 50.5 -10.5s30 -9.16602 43 -14.499s23.833 -11 32.5 -17l-24 -57c-19.333 13.333 -42.833 24 -70.5 32s-57.5 12 -89.5 12c-22 0 -42.167 -2.16699 -60.5 -6.5
s-34.166 -11.333 -47.499 -21s-23.833 -21.834 -31.5 -36.501s-11.5 -32.334 -11.5 -53.001c0 -21.333 4 -39.333 12 -54s19.167 -27.334 33.5 -38.001s31.166 -20.334 50.499 -29.001s40.333 -17.667 63 -27c27.333 -11.333 53.166 -22.666 77.499 -33.999
s45.5 -24.666 63.5 -39.999s32.333 -34 43 -56s16 -49 16 -81c0 -62.667 -21.833 -109.667 -65.5 -141s-102.834 -47 -177.501 -47c-26.667 0 -51 1.66699 -73 5s-41.667 7.5 -59 12.5s-32 10.167 -44 15.5s-21.333 10 -28 14l22 59c6.66699 -4 15.667 -8.66699 27 -14
s24.666 -10.5 39.999 -15.5s32.666 -9.16699 51.999 -12.5s40.666 -5 63.999 -5zM264.007 825.002l104 96l28 -31l-132 -147l-132 147l28 31z" />
    </font>
</defs>
</svg>
