<?xml version="1.0" standalone="no"?>
<!DOCTYPE svg PUBLIC "-//W3C//DTD SVG 1.1//EN" "http://www.w3.org/Graphics/SVG/1.1/DTD/svg11.dtd" >
<svg version="1.1" xmlns="http://www.w3.org/2000/svg">
<metadata>
Created by FontForge 20120731 at Tue Aug 26 09:13:23 2014

Copyright 2011 Canonical Ltd.  Licensed under the Ubuntu Font Licence 1.0
</metadata>
<defs>
<font id="ubuntu" horiz-adv-x="363" >
  <font-face 
    font-family="Ubuntu Light"
    font-weight="500"
    font-stretch="normal"
    units-per-em="1000"
    panose-1="2 11 6 4 3 6 2 3 2 4"
    ascent="800"
    descent="-200"
    x-height="523"
    cap-height="693"
    bbox="-1129 -205.003 3521 988"
    underline-thickness="20"
    underline-position="-113"
    unicode-range="U+0008-FB04"
  />
<missing-glyph horiz-adv-x="500" 
d="M50 0v750h400v-750h-400zM400 50v650h-300v-650h300z" />
    <glyph glyph-name="f_f" unicode="ff" horiz-adv-x="804" 
d="M694 776c28 0 52.667 -2.49805 74 -7.49805s37.333 -9.5 48 -13.5l-23 -100c-11.333 5.33301 -24.5 9.66602 -39.5 12.999s-31.167 5 -48.5 5c-19.333 0 -35.666 -2.83301 -48.999 -8.5s-24 -13.5 -32 -23.5s-13.667 -22.167 -17 -36.5s-5 -29.833 -5 -46.5v-35h190v-101
h-190v-422h-121v560c0 67.333 17.667 120.166 53 158.499s88.666 57.5 159.999 57.5zM290 776.002c28 0 52.667 -2.49805 74 -7.49805s37.333 -9.5 48 -13.5l-23 -100c-11.333 5.33301 -24.5 9.66602 -39.5 12.999s-31.167 5 -48.5 5
c-19.333 0 -35.666 -2.83301 -48.999 -8.5s-24 -13.5 -32 -23.5s-13.667 -22.167 -17 -36.5s-5 -29.833 -5 -46.5v-35h190v-101h-190v-422h-121v560c0 67.333 17.667 120.166 53 158.499s88.666 57.5 159.999 57.5z" />
    <glyph glyph-name="f_i" unicode="fi" horiz-adv-x="680" 
d="M602 0h-121v523h121v-523zM616 676c0 -22.667 -7.33301 -40.667 -22 -54s-32 -20 -52 -20c-20.667 0 -38.334 6.66699 -53.001 20s-22 31.333 -22 54c0 23.333 7.33301 41.666 22 54.999s32.334 20 53.001 20c20 0 37.333 -6.66699 52 -20s22 -31.666 22 -54.999z
M292 776c25.333 0 46.833 -2 64.5 -6s31.5 -8 41.5 -12l-19 -98c-9.33301 3.33301 -20.5 6.33301 -33.5 9s-27.167 4 -42.5 4c-40 0 -67.5 -10.667 -82.5 -32s-22.5 -49 -22.5 -83v-35h192v-101h-192v-422h-121v560c0 68 17.667 121 53 159s89.333 57 162 57z" />
    <glyph glyph-name="f_l" unicode="fl" horiz-adv-x="703" 
d="M292 776c25.333 0 46.833 -2 64.5 -6s31.5 -8 41.5 -12l-19 -98c-9.33301 3.33301 -20.5 6.33301 -33.5 9s-27.167 4 -42.5 4c-40 0 -67.5 -10.667 -82.5 -32s-22.5 -49 -22.5 -83v-35h192v-101h-192v-422h-121v560c0 68 17.667 121 53 159s89.333 57 162 57zM665 -10
c-36 0.666992 -65.833 4.66699 -89.5 12s-42.5 17.833 -56.5 31.5s-23.833 30.667 -29.5 51s-8.5 43.5 -8.5 69.5v602l121 20v-599c0 -14.667 1.16699 -27 3.5 -37s6.5 -18.5 12.5 -25.5s14.167 -12.333 24.5 -16s23.5 -6.5 39.5 -8.5z" />
    <glyph glyph-name="f_f_i" unicode="ffi" horiz-adv-x="1084" 
d="M290 776c28 0 52.667 -2.49805 74 -7.49805s37.333 -9.5 48 -13.5l-23 -100c-11.333 5.33301 -24.5 9.66602 -39.5 12.999s-31.167 5 -48.5 5c-19.333 0 -35.666 -2.83301 -48.999 -8.5s-24 -13.5 -32 -23.5s-13.667 -22.167 -17 -36.5s-5 -29.833 -5 -46.5v-35h190v-101
h-190v-422h-121v560c0 67.333 17.667 120.166 53 158.499s88.666 57.5 159.999 57.5zM1006 0.00195312h-121v523h121v-523zM1020 676.002c0 -22.667 -7.33301 -40.667 -22 -54s-32 -20 -52 -20c-20.667 0 -38.334 6.66699 -53.001 20s-22 31.333 -22 54
c0 23.333 7.33301 41.666 22 54.999s32.334 20 53.001 20c20 0 37.333 -6.66699 52 -20s22 -31.666 22 -54.999zM696 776.002c25.333 0 46.833 -2 64.5 -6s31.5 -8 41.5 -12l-19 -98c-9.33301 3.33301 -20.5 6.33301 -33.5 9s-27.167 4 -42.5 4
c-40 0 -67.5 -10.667 -82.5 -32s-22.5 -49 -22.5 -83v-35h192v-101h-192v-422h-121v560c0 68 17.667 121 53 159s89.333 57 162 57z" />
    <glyph glyph-name="f_f_l" unicode="ffl" horiz-adv-x="1150" 
d="M290 776c28 0 52.667 -2.49805 74 -7.49805s37.333 -9.5 48 -13.5l-23 -100c-11.333 5.33301 -24.5 9.66602 -39.5 12.999s-31.167 5 -48.5 5c-19.333 0 -35.666 -2.83301 -48.999 -8.5s-24 -13.5 -32 -23.5s-13.667 -22.167 -17 -36.5s-5 -29.833 -5 -46.5v-35h190v-101
h-190v-422h-121v560c0 67.333 17.667 120.166 53 158.499s88.666 57.5 159.999 57.5zM696 776.002c25.333 0 46.833 -2 64.5 -6s31.5 -8 41.5 -12l-19 -98c-9.33301 3.33301 -20.5 6.33301 -33.5 9s-27.167 4 -42.5 4c-40 0 -67.5 -10.667 -82.5 -32s-22.5 -49 -22.5 -83
v-35h192v-101h-192v-422h-121v560c0 68 17.667 121 53 159s89.333 57 162 57zM1069 -9.99805c-36 0.666992 -65.833 4.66699 -89.5 12s-42.5 17.833 -56.5 31.5s-23.833 30.667 -29.5 51s-8.5 43.5 -8.5 69.5v602l121 20v-599c0 -14.667 1.16699 -27 3.5 -37
s6.5 -18.5 12.5 -25.5s14.167 -12.333 24.5 -16s23.5 -6.5 39.5 -8.5z" />
    <glyph glyph-name=".notdef" horiz-adv-x="500" 
d="M50 0v750h400v-750h-400zM400 50v650h-300v-650h300z" />
    <glyph glyph-name=".null" horiz-adv-x="0" 
 />
    <glyph glyph-name=".null" horiz-adv-x="0" 
 />
    <glyph glyph-name=".null" horiz-adv-x="0" 
 />
    <glyph glyph-name="nonmarkingreturn" unicode="&#x9;" horiz-adv-x="233" 
 />
    <glyph glyph-name="nonmarkingreturn" unicode="&#xd;" horiz-adv-x="233" 
 />
    <glyph glyph-name="space" unicode=" " horiz-adv-x="233" 
 />
    <glyph glyph-name="exclam" unicode="!" horiz-adv-x="306" 
d="M218 507c0 -55.333 -2 -106 -6 -152s-9 -92.333 -15 -139h-86c-6.66699 46.667 -12 93.167 -16 139.5s-6 96.833 -6 151.5v186h129v-186zM233 66c0 -23.333 -7.66699 -42.333 -23 -57s-34.333 -22 -57 -22c-22 0 -40.833 7.33301 -56.5 22s-23.5 33.667 -23.5 57
s7.83301 42.5 23.5 57.5s34.5 22.5 56.5 22.5c22.667 0 41.667 -7.5 57 -22.5s23 -34.167 23 -57.5z" />
    <glyph glyph-name="quotedbl" unicode="&#x22;" horiz-adv-x="457" 
d="M388 760v-62c0 -32 -2.33301 -66.5 -7 -103.5s-10 -74.167 -16 -111.5h-77c-6.66699 37.333 -12 74.333 -16 111s-6 71.667 -6 105v61h122zM191 760v-62c0 -32 -2.33301 -66.5 -7 -103.5s-10 -74.167 -16 -111.5h-77c-6.66699 37.333 -12 74.333 -16 111
s-6 71.667 -6 105v61h122z" />
    <glyph glyph-name="numbersign" unicode="#" horiz-adv-x="671" 
d="M372 176h-139l-34 -176h-107l34 176h-80v95h98l29 151h-127v94h145l34 177h107l-34 -177h139l34 177h107l-34 -177h81v-94h-99l-29 -151h128v-95h-146l-34 -176h-107zM251 271h139l29 151h-139z" />
    <glyph glyph-name="dollar" unicode="$" horiz-adv-x="568" 
d="M234 13c-48 3.33301 -86.833 9.83691 -116.5 19.5039s-51.834 18.5 -66.501 26.5l34 95c21.333 -10.667 47.166 -20.334 77.499 -29.001s64.833 -13 103.5 -13c46 0 77.833 6.83301 95.5 20.5s26.5 31.834 26.5 54.501c0 15.333 -3.66699 28.666 -11 39.999
s-17.666 21.333 -30.999 30s-29.166 16.667 -47.499 24s-38.5 15 -60.5 23c-20.667 7.33301 -41.167 15.666 -61.5 24.999s-38.666 20.833 -54.999 34.5s-29.5 30.167 -39.5 49.5s-15 43 -15 71c0 46 13.667 85.167 41 117.5s69.333 53.166 126 62.499v112h104v-108
c32 -2.66699 60.667 -7.16699 86 -13.5s45.333 -12.5 60 -18.5l-25 -99c-19.333 7.33301 -42.166 14.333 -68.499 21s-56.5 10 -90.5 10c-36 0 -63 -6.5 -81 -19.5s-27 -30.833 -27 -53.5c0 -13.333 2.66699 -24.5 8 -33.5s13.333 -17 24 -24s23.667 -13.667 39 -20
s32.666 -12.833 51.999 -19.5c27.333 -10.667 53.166 -21.834 77.499 -33.501s45.5 -25.334 63.5 -41.001s32.167 -34.167 42.5 -55.5s15.5 -46.666 15.5 -75.999c0 -44 -13.667 -82 -41 -114s-72.333 -52.667 -135 -62v-125h-104v122z" />
    <glyph glyph-name="percent" unicode="%" horiz-adv-x="897" 
d="M383 519c0 -60.667 -15.498 -107.333 -46.498 -140s-71.5 -49 -121.5 -49c-24.667 0 -47.334 4.16699 -68.001 12.5s-38.334 20.5 -53.001 36.5s-26.167 35.833 -34.5 59.5s-12.5 50.5 -12.5 80.5c0 61.333 15.5 108.166 46.5 140.499s71.5 48.5 121.5 48.5
s90.5 -16.167 121.5 -48.5s46.5 -79.166 46.5 -140.499zM288.002 519.001c0 35.333 -6.5 61.833 -19.5 79.5s-30.833 26.5 -53.5 26.5s-40.334 -8.83301 -53.001 -26.5s-19 -44.167 -19 -79.5s6.33301 -61.833 19 -79.5s30.334 -26.5 53.001 -26.5s40.5 8.83301 53.5 26.5
s19.5 44.167 19.5 79.5zM586.002 693.001h115l-391 -693h-115zM850.002 173.001c0 -60.667 -15.498 -107.333 -46.498 -140s-71.5 -49 -121.5 -49c-24.667 0 -47.334 4.16699 -68.001 12.5s-38.334 20.5 -53.001 36.5s-26.167 35.833 -34.5 59.5s-12.5 50.5 -12.5 80.5
c0 61.333 15.5 108.166 46.5 140.499s71.5 48.5 121.5 48.5s90.5 -16.167 121.5 -48.5s46.5 -79.166 46.5 -140.499zM755.004 173.002c0 35.333 -6.5 61.833 -19.5 79.5s-30.833 26.5 -53.5 26.5s-40.334 -8.83301 -53.001 -26.5s-19 -44.167 -19 -79.5
s6.33301 -61.833 19 -79.5s30.334 -26.5 53.001 -26.5s40.5 8.83301 53.5 26.5s19.5 44.167 19.5 79.5z" />
    <glyph glyph-name="ampersand" unicode="&#x26;" horiz-adv-x="684" 
d="M43 184c0 25.333 3.83105 48.3311 11.498 68.998s18 39.334 31 56.001s28 31.334 45 44.001s34.833 24 53.5 34c-20 21.333 -36.167 44 -48.5 68s-18.5 49.333 -18.5 76c0 56 17.167 99.667 51.5 131s79.5 47 135.5 47c28.667 0 54.167 -4 76.5 -12s40.833 -19 55.5 -33
s25.834 -30.5 33.501 -49.5s11.5 -39.167 11.5 -60.5s-3.5 -41.333 -10.5 -60s-16.5 -35.834 -28.5 -51.501s-25.833 -30 -41.5 -43s-32.5 -24.5 -50.5 -34.5l137 -138c9.33301 17.333 17 36.833 23 58.5s10.667 42.834 14 63.501l101 -13
c-3.33301 -26.667 -10.333 -56.167 -21 -88.5s-24.667 -63.166 -42 -92.499c22 -24.667 43.167 -50.167 63.5 -76.5s37.166 -52.5 50.499 -78.5h-126c-6.66699 11.333 -15.167 23.666 -25.5 36.999s-21.166 25.666 -32.499 36.999
c-27.333 -24.667 -58.666 -44.667 -93.999 -60s-75.333 -23 -120 -23s-82 6 -112 18s-54.167 27.333 -72.5 46s-31.333 39.334 -39 62.001s-11.5 45 -11.5 67zM158.998 191.998c0 -11.333 2.16895 -23.001 6.50195 -35.001s11.333 -23.167 21 -33.5
s22.334 -18.833 38.001 -25.5s34.5 -10 56.5 -10c30 0 57.167 4.66699 81.5 14s45.166 22.666 62.499 39.999l-176 179c-10 -5.33301 -20.333 -11.666 -31 -18.999s-20.334 -16.166 -29.001 -26.499s-15.834 -22.333 -21.501 -36s-8.5 -29.5 -8.5 -47.5zM376 548.997
c0 19.333 -6.33496 35.832 -19.002 49.499s-31 20.5 -55 20.5c-25.333 0 -44.666 -7.66699 -57.999 -23s-20 -34.666 -20 -57.999c0 -19.333 5.33301 -38.5 16 -57.5s25.334 -37.167 44.001 -54.5c12.667 6.66699 24.5 14 35.5 22s20.667 17 29 27s15 21 20 33
s7.5 25.667 7.5 41z" />
    <glyph glyph-name="quotesingle" unicode="'" horiz-adv-x="260" 
d="M191 760v-62c0 -32 -2.33301 -66.5 -7 -103.5s-10 -74.167 -16 -111.5h-77c-6.66699 37.333 -12 74.333 -16 111s-6 71.667 -6 105v61h122z" />
    <glyph glyph-name="parenleft" unicode="(" horiz-adv-x="339" 
d="M195 299c0 -82 12.333 -158.998 37 -230.998s59 -137.667 103 -197l-85 -56c-54 64.667 -96.667 138.167 -128 220.5s-47 170.166 -47 263.499s15.667 181.166 47 263.499s74 155.833 128 220.5l85 -56c-44 -60 -78.333 -125.833 -103 -197.5s-37 -148.5 -37 -230.5z" />
    <glyph glyph-name="parenright" unicode=")" horiz-adv-x="339" 
d="M144 299c0 82 -12.333 158.831 -37 230.498s-59 137.5 -103 197.5l85 56c54 -64.667 96.667 -138.167 128 -220.5s47 -170.166 47 -263.499s-15.667 -181.166 -47 -263.499s-74 -155.833 -128 -220.5l-85 56c44 59.333 78.333 125 103 197s37 149 37 231z" />
    <glyph glyph-name="asterisk" unicode="*" horiz-adv-x="482" 
d="M268 530c19.333 12.667 40.5 25.999 63.5 39.999s45.5 24.667 67.5 32l15 5l34 -104l-16 -5c-21.333 -6.66699 -45.5 -11.167 -72.5 -13.5s-52.167 -3.83301 -75.5 -4.5c18.667 -14.667 38.167 -30.5 58.5 -47.5s37.5 -35.167 51.5 -54.5l10 -14l-89 -63l-10 13
c-13.333 19.333 -25 41.333 -35 66s-19.667 47.667 -29 69c-8.66699 -21.333 -18.167 -44.333 -28.5 -69s-22.166 -46.667 -35.499 -66l-9 -13l-90 63l11 14c13.333 19.333 30.166 37.5 50.499 54.5s40.166 32.833 59.499 47.5
c-23.333 0.666992 -48.5 1.83398 -75.5 3.50098s-51.5 6.5 -73.5 14.5l-16 5l34 104l15 -5c22.667 -7.33301 45.334 -18 68.001 -32s43.667 -27.333 63 -40c-6 23.333 -12.167 47.666 -18.5 72.999s-9.5 49.666 -9.5 72.999v17h110v-17
c0 -23.333 -3.16699 -47.666 -9.5 -72.999s-12.5 -49.666 -18.5 -72.999z" />
    <glyph glyph-name="plus" unicode="+" horiz-adv-x="568" 
d="M52 337h178v196h108v-196h178v-102h-178v-196h-108v196h-178v102z" />
    <glyph glyph-name="comma" unicode="," horiz-adv-x="268" 
d="M202 133c1.33301 -11.333 2 -19.667 2 -25v-16c0 -41.333 -6.5 -84 -19.5 -128s-31.167 -85.667 -54.5 -125l-95 26c16 38.667 26.833 76.5 32.5 113.5s8.5 69.5 8.5 97.5c0 8 -0.166992 18 -0.5 30s-0.833008 21 -1.5 27h128z" />
    <glyph glyph-name="hyphen" unicode="-" horiz-adv-x="315" 
d="M23 341h269v-111h-269v111z" />
    <glyph glyph-name="period" unicode="." horiz-adv-x="266" 
d="M213 66c0 -23.333 -7.83301 -42.333 -23.5 -57s-34.5 -22 -56.5 -22c-22.667 0 -41.667 7.33301 -57 22s-23 33.667 -23 57s7.66699 42.5 23 57.5s34.333 22.5 57 22.5c22 0 40.833 -7.5 56.5 -22.5s23.5 -34.167 23.5 -57.5z" />
    <glyph glyph-name="slash" unicode="/" horiz-adv-x="416" 
d="M97 -185h-124l338 968h122z" />
    <glyph glyph-name="zero" unicode="0" horiz-adv-x="568" 
d="M525 347c0 -116.667 -21.333 -206.167 -64 -268.5s-101.667 -93.5 -177 -93.5s-134.333 31.167 -177 93.5s-64 151.833 -64 268.5c0 58 5.5 109.5 16.5 154.5s27 82.833 48 113.5s46.333 54 76 70s63.167 24 100.5 24c75.333 0 134.333 -31.167 177 -93.5
s64 -151.833 64 -268.5zM400 347c0 36 -2 69.667 -6 101s-10.5 58.5 -19.5 81.5s-20.833 41.167 -35.5 54.5s-33 20 -55 20s-40.5 -6.66699 -55.5 -20s-27 -31.5 -36 -54.5s-15.333 -50.167 -19 -81.5s-5.5 -65 -5.5 -101s1.83301 -69.667 5.5 -101s10 -58.5 19 -81.5
s21 -41.167 36 -54.5s33.5 -20 55.5 -20s40.333 6.66699 55 20s26.5 31.5 35.5 54.5s15.5 50.167 19.5 81.5s6 65 6 101z" />
    <glyph glyph-name="one" unicode="1" horiz-adv-x="568" 
d="M90 549c38.667 15.333 77.499 35 116.499 59s73.5 52.333 103.5 85h85v-693h-121v531c-18 -14 -40.667 -27.667 -68 -41s-53.666 -24.333 -78.999 -33z" />
    <glyph glyph-name="two" unicode="2" horiz-adv-x="568" 
d="M481 513c0 -24 -5.00195 -47.502 -15.002 -70.502s-22.833 -45.333 -38.5 -67s-33.5 -42.667 -53.5 -63s-40 -40.166 -60 -59.499c-10.667 -10 -22.667 -22 -36 -36s-26 -28 -38 -42s-22.333 -27.5 -31 -40.5s-13.334 -23.833 -14.001 -32.5h308v-102h-441
c-0.666992 5.33301 -1 11.833 -1 19.5v17.5c0 32 5.16699 61.5 15.5 88.5s23.833 52.167 40.5 75.5s35.334 45.333 56.001 66s41.334 41 62.001 61c16 15.333 31.333 30.333 46 45s27.5 29.167 38.5 43.5s19.833 29 26.5 44s10 30.5 10 46.5c0 34.667 -10 59.334 -30 74.001
s-44.333 22 -73 22c-18.667 0 -36 -2.66699 -52 -8s-30.167 -11.666 -42.5 -18.999s-23.166 -14.833 -32.499 -22.5s-16.333 -13.834 -21 -18.501l-60 85c28 26.667 60.833 48.167 98.5 64.5s78.167 24.5 121.5 24.5c74 0 128.5 -17.5 163.5 -52.5s52.5 -82.833 52.5 -143.5
z" />
    <glyph glyph-name="three" unicode="3" horiz-adv-x="568" 
d="M236 -15c-18 0 -36.498 1.16699 -55.498 3.5s-37 5.33301 -54 9s-32.5 7.66699 -46.5 12s-24.667 8.5 -32 12.5l24 103c14 -6.66699 34.333 -14.167 61 -22.5s59.667 -12.5 99 -12.5c52.667 0 90.667 10.167 114 30.5s35 47.5 35 81.5c0 22 -4.5 40.333 -13.5 55
s-21.333 26.5 -37 35.5s-33.667 15.333 -54 19s-41.833 5.5 -64.5 5.5h-41v98h50c15.333 0 30.833 1.5 46.5 4.5s29.834 8.33301 42.501 16s23 17.834 31 30.501s12 29 12 49c0 16 -3 29.667 -9 41s-13.833 20.666 -23.5 27.999s-20.834 12.666 -33.501 15.999s-26 5 -40 5
c-30 0 -56.667 -4.5 -80 -13.5s-44 -19.167 -62 -30.5l-44 90c9.33301 6 20.666 12.333 33.999 19s28.166 13 44.499 19s33.833 10.833 52.5 14.5s38.334 5.5 59.001 5.5c38.667 0 72 -4.66699 100 -14s51.167 -22.5 69.5 -39.5s32 -37 41 -60s13.5 -48.167 13.5 -75.5
c0 -32 -8.83301 -60.667 -26.5 -86s-40.5 -44.666 -68.5 -57.999c36 -12.667 65.833 -33.667 89.5 -63s35.5 -67 35.5 -113c0 -30.667 -5.33301 -59.167 -16 -85.5s-27 -49 -49 -68s-49.833 -34 -83.5 -45s-73.834 -16.5 -120.501 -16.5z" />
    <glyph glyph-name="four" unicode="4" horiz-adv-x="568" 
d="M337 544c-16 -19.333 -32.5 -40 -49.5 -62s-33.5 -45 -49.5 -69s-31.333 -48.5 -46 -73.5s-28 -49.833 -40 -74.5h185v279zM455 693l0.000976562 -428h78v-99h-78v-166h-118v166h-304v86c13.333 29.333 31.166 63 53.499 101s47.166 77 74.499 117s56.333 79.333 87 118
s61.334 73.667 92.001 105h115z" />
    <glyph glyph-name="five" unicode="5" horiz-adv-x="568" 
d="M383 198c0 22 -4.33496 41.666 -13.002 58.999s-23.834 32 -45.501 44s-50.667 21 -87 27s-82.166 9 -137.499 9c7.33301 64 13 124.833 17 182.5s7.33301 115.5 10 173.5h354v-102h-251c-0.666992 -11.333 -1.5 -24.166 -2.5 -38.499s-2 -28.833 -3 -43.5
s-2.16699 -28.667 -3.5 -42s-2.66602 -24.666 -3.99902 -33.999c98.667 -5.33301 171.5 -27.833 218.5 -67.5s70.5 -93.834 70.5 -162.501c0 -31.333 -5.33301 -60.333 -16 -87s-27 -49.667 -49 -69s-49.667 -34.5 -83 -45.5s-72.333 -16.5 -117 -16.5
c-18 0 -36.333 1.33301 -55 4s-36.5 5.83398 -53.5 9.50098s-32.167 7.5 -45.5 11.5s-23.333 7.66699 -30 11l23 102c14 -6.66699 34.167 -13.834 60.5 -21.501s58.5 -11.5 96.5 -11.5c26 0 48.333 2.83301 67 8.5s33.834 13.5 45.501 23.5s20.167 21.5 25.5 34.5
s8 26.833 8 41.5z" />
    <glyph glyph-name="six" unicode="6" horiz-adv-x="568" 
d="M282 337c-19.333 0 -38.001 -1.66602 -56.001 -4.99902s-34.333 -8.33301 -49 -15c-0.666992 -5.33301 -1.16699 -11.166 -1.5 -17.499s-0.5 -12.5 -0.5 -18.5c0 -26.667 1.83301 -51.834 5.5 -75.501s10 -44.334 19 -62.001s21.333 -31.667 37 -42
s35.167 -15.5 58.5 -15.5c19.333 0 35.833 4 49.5 12s24.834 18.333 33.501 31s15 26.5 19 41.5s6 29.5 6 43.5c0 40 -9.66699 70.5 -29 91.5s-50 31.5 -92 31.5zM296.999 433.001c41.333 0 76.499 -5.83496 105.499 -17.502s52.5 -27.5 70.5 -47.5
s31.167 -43.167 39.5 -69.5s12.5 -53.833 12.5 -82.5c0 -26 -4.5 -52.667 -13.5 -80s-23 -52.166 -42 -74.499s-42.833 -40.666 -71.5 -54.999s-62.667 -21.5 -102 -21.5c-79.333 0 -139.833 26.167 -181.5 78.5s-62.5 124.5 -62.5 216.5
c0 66.667 9.83301 125.834 29.5 177.501s47.667 95.167 84 130.5s80.333 62.166 132 80.499s109.834 27.833 174.501 28.5l7 -100c-36 -0.666992 -69.667 -4.5 -101 -11.5s-59.333 -17.833 -84 -32.5s-45.834 -33.667 -63.501 -57s-31.167 -52 -40.5 -86
c32.667 15.333 68.334 23 107.001 23z" />
    <glyph glyph-name="seven" unicode="7" horiz-adv-x="568" 
d="M154 0c4 50.667 13.001 104.003 27.001 160.003s31.167 110.5 51.5 163.5s42.666 102.667 66.999 149s48.5 85.166 72.5 116.499h-319v104h463v-92c-22 -24.667 -46 -58.334 -72 -101.001s-50.667 -90.834 -74 -144.501s-43.5 -111.167 -60.5 -172.5
s-27.5 -122.333 -31.5 -183h-124z" />
    <glyph glyph-name="eight" unicode="8" horiz-adv-x="568" 
d="M520 186c0 -28.667 -4.99707 -55.332 -14.9971 -79.999s-25 -46 -45 -64s-44.833 -32 -74.5 -42s-63.834 -15 -102.501 -15c-45.333 0 -83 6.33301 -113 19s-54 28.667 -72 48s-30.833 40.166 -38.5 62.499s-11.5 43.5 -11.5 63.5s2.83301 38.5 8.5 55.5
s13.5 32.667 23.5 47s21.333 27.5 34 39.5s26 22.667 40 32c-30.667 21.333 -53.5 44.5 -68.5 69.5s-22.5 55.5 -22.5 91.5c0 26 5.16699 50.833 15.5 74.5s25.166 44.5 44.499 62.5s42.666 32.333 69.999 43s57.666 16 90.999 16c39.333 0 72.833 -5.66699 100.5 -17
s50.334 -26 68.001 -44s30.5 -38 38.5 -60s12 -43.333 12 -64c0 -36.667 -10 -69.167 -30 -97.5s-43 -50.833 -69 -67.5c39.333 -21.333 68.5 -46 87.5 -74s28.5 -61 28.5 -99zM167.003 180.002c0 -10 2.00195 -20.6689 6.00195 -32.002s10.667 -21.666 20 -30.999
s21.333 -17.166 36 -23.499s33 -9.5 55 -9.5c20 0 37.333 2.66699 52 8s26.667 12.5 36 21.5s16.333 19.333 21 31s7 23.5 7 35.5c0 18.667 -3.66699 35 -11 49s-17.833 26.167 -31.5 36.5s-29.834 19.333 -48.501 27s-39.334 14.5 -62.001 20.5
c-24 -15.333 -43.333 -33.833 -58 -55.5s-22 -47.5 -22 -77.5zM385.005 522c0 8.66699 -1.83301 18.166 -5.5 28.499s-9.66699 19.833 -18 28.5s-18.833 16 -31.5 22s-28 9 -46 9s-33.5 -2.83301 -46.5 -8.5s-23.5 -13 -31.5 -22s-14 -18.667 -18 -29s-6 -20.5 -6 -30.5
c0 -25.333 9.5 -49.333 28.5 -72s50.833 -40.667 95.5 -54c24.667 15.333 44 32.833 58 52.5s21 44.834 21 75.501z" />
    <glyph glyph-name="nine" unicode="9" horiz-adv-x="568" 
d="M287 359c19.333 0 38.334 1.83398 57.001 5.50098s34.667 9.16699 48 16.5c0.666992 7.33301 1 13.666 1 18.999v14c0 26.667 -1.83301 51.834 -5.5 75.501s-10 44.334 -19 62.001s-21.333 31.667 -37 42s-35.167 15.5 -58.5 15.5c-19.333 0 -35.833 -4 -49.5 -12
s-24.834 -18.333 -33.501 -31s-15 -26.334 -19 -41.001s-6 -29 -6 -43c0 -40.667 9.83301 -71.334 29.5 -92.001s50.5 -31 92.5 -31zM382.001 286.001c-16 -7.33301 -33.6699 -13.0039 -53.0029 -17.0039s-38 -6 -56 -6c-41.333 0 -76.5 5.5 -105.5 16.5
s-52.667 26.333 -71 46s-31.833 42.5 -40.5 68.5s-13 54 -13 84c0 26 4.33301 52.5 13 79.5s22.334 51.833 41.001 74.5s42.334 41.167 71.001 55.5s62.667 21.5 102 21.5c81.333 0 142.833 -26.167 184.5 -78.5s62.5 -126.166 62.5 -221.499
c0 -134.667 -34.667 -236.667 -104 -306s-175.666 -104.333 -318.999 -105l-5 101c40 0 76.167 3.33301 108.5 10s60.666 17.334 84.999 32.001s44.833 33.834 61.5 57.501s29.334 52.834 38.001 87.501z" />
    <glyph glyph-name="colon" unicode=":" horiz-adv-x="266" 
d="M213 440c0 -23.333 -7.83301 -42.333 -23.5 -57s-34.5 -22 -56.5 -22c-22.667 0 -41.667 7.33301 -57 22s-23 33.667 -23 57s7.66699 42.5 23 57.5s34.333 22.5 57 22.5c22 0 40.833 -7.5 56.5 -22.5s23.5 -34.167 23.5 -57.5zM213 66
c0 -23.333 -7.83301 -42.333 -23.5 -57s-34.5 -22 -56.5 -22c-22.667 0 -41.667 7.33301 -57 22s-23 33.667 -23 57s7.66699 42.5 23 57.5s34.333 22.5 57 22.5c22 0 40.833 -7.5 56.5 -22.5s23.5 -34.167 23.5 -57.5z" />
    <glyph glyph-name="semicolon" unicode=";" horiz-adv-x="264" 
d="M202 133c1.33301 -11.333 2 -19.667 2 -25v-16c0 -41.333 -6.5 -84 -19.5 -128s-31.167 -85.667 -54.5 -125l-95 26c16 38.667 26.833 76.5 32.5 113.5s8.5 69.5 8.5 97.5c0 8 -0.166992 18 -0.5 30s-0.833008 21 -1.5 27h128zM212 439.999
c0 -23.333 -7.83301 -42.333 -23.5 -57s-34.5 -22 -56.5 -22c-22.667 0 -41.667 7.33301 -57 22s-23 33.667 -23 57s7.66699 42.5 23 57.5s34.333 22.5 57 22.5c22 0 40.833 -7.5 56.5 -22.5s23.5 -34.167 23.5 -57.5z" />
    <glyph glyph-name="less" unicode="&#x3c;" horiz-adv-x="568" 
d="M52 336l431 182l33 -99l-335 -134l335 -134l-33 -99l-431 182v102z" />
    <glyph glyph-name="equal" unicode="=" horiz-adv-x="568" 
d="M52 229h464v-102h-464v102zM52 445h464v-102h-464v102z" />
    <glyph glyph-name="greater" unicode="&#x3e;" horiz-adv-x="568" 
d="M516 234l-431 -182l-33 99l335 134l-335 134l33 99l431 -182v-102z" />
    <glyph glyph-name="question" unicode="?" horiz-adv-x="424" 
d="M184 606c-23.333 0 -45.665 -2.83594 -66.998 -8.50293s-43.666 -14.834 -66.999 -27.501l-34 93c24.667 14 52.834 25.167 84.501 33.5s64.167 12.5 97.5 12.5c40 0 73 -5.5 99 -16.5s46.667 -24.833 62 -41.5s26 -35 32 -55s9 -39.333 9 -58
c0 -22.667 -4.16699 -43 -12.5 -61s-18.833 -34.667 -31.5 -50s-26.334 -29.833 -41.001 -43.5s-28.334 -27.667 -41.001 -42s-23.167 -29.5 -31.5 -45.5s-12.5 -34 -12.5 -54v-11.5c0 -4.33301 0.333008 -8.5 1 -12.5h-104c-1.33301 6.66699 -2.33301 13.834 -3 21.501
s-1 14.834 -1 21.501c0 22 3.66699 41.667 11 59s16.666 33.333 27.999 48s23.5 28.334 36.5 41.001s25.167 25.334 36.5 38.001s20.666 25.667 27.999 39s11 28 11 44c0 22 -7.5 40.167 -22.5 54.5s-37.5 21.5 -67.5 21.5zM262.001 65.9971
c0 -23.333 -7.66699 -42.333 -23 -57s-34.333 -22 -57 -22c-22 0 -40.833 7.33301 -56.5 22s-23.5 33.667 -23.5 57s7.83301 42.5 23.5 57.5s34.5 22.5 56.5 22.5c22.667 0 41.667 -7.5 57 -22.5s23 -34.167 23 -57.5z" />
    <glyph glyph-name="at" unicode="@" horiz-adv-x="971" 
d="M700 35c-20 0 -38.3311 2.83691 -54.998 8.50391s-30.667 14.5 -42 26.5c-14.667 -10.667 -31.834 -18.667 -51.501 -24s-40.167 -8 -61.5 -8c-32.667 0 -62.5 5 -89.5 15s-50.333 25 -70 45s-34.834 44.833 -45.501 74.5s-16 64.167 -16 103.5
c0 32.667 5.33301 63.5 16 92.5s26.167 54.167 46.5 75.5s45.333 38.166 75 50.499s63.5 18.5 101.5 18.5c36.667 0 69.667 -3 99 -9s52.666 -12.333 69.999 -19v-310c0 -18.667 3.5 -31.5 10.5 -38.5s16.5 -10.5 28.5 -10.5c28.667 0 51.167 17.833 67.5 53.5
s24.5 86.834 24.5 153.501c0 41.333 -7.16699 79.833 -21.5 115.5s-35.166 66.5 -62.499 92.5s-60.5 46.5 -99.5 61.5s-82.833 22.5 -131.5 22.5c-48 0 -92.167 -8 -132.5 -24s-75 -39 -104 -69s-51.667 -66.667 -68 -110s-24.5 -92.333 -24.5 -147
c0 -57.333 8.33301 -107.5 25 -150.5s40.167 -78.833 70.5 -107.5s66.666 -50.334 108.999 -65.001s89.5 -22 141.5 -22c36 0 67.833 2.16699 95.5 6.5s48.5 8.16602 62.5 11.499l12 -84c-7.33301 -2 -16.833 -4.33301 -28.5 -7s-25 -5.16699 -40 -7.5
s-31.167 -4.33301 -48.5 -6s-35 -2.5 -53 -2.5c-62 0 -120.167 8.33301 -174.5 25s-101.666 42.667 -141.999 78s-72.333 80.333 -96 135s-35.5 120 -35.5 196c0 72.667 12 136.5 36 191.5s56 100.667 96 137s85.833 63.666 137.5 81.999s105.5 27.5 161.5 27.5
c58 0 112.333 -8.66699 163 -26s94.667 -42.5 132 -75.5s66.833 -73.5 88.5 -121.5s32.5 -102.667 32.5 -164c0 -47.333 -5.16699 -89 -15.5 -125s-24.833 -66.333 -43.5 -91s-40.667 -43.334 -66 -56.001s-53.333 -19 -84 -19zM571.002 144.004
c-1.33301 7.33301 -2.50098 15.668 -3.50098 25.001s-1.5 18.333 -1.5 27v220c-13.333 3.33301 -30.666 5 -51.999 5c-22.667 0 -42.167 -3.66699 -58.5 -11s-29.833 -17.5 -40.5 -30.5s-18.5 -28.333 -23.5 -46s-7.5 -36.834 -7.5 -57.501c0 -42 9 -76.667 27 -104
s46 -41 84 -41c12 0 24.5 0.833008 37.5 2.5s25.833 5.16699 38.5 10.5z" />
    <glyph glyph-name="A" unicode="A" horiz-adv-x="684" 
d="M543 0c-9.33301 27.333 -18.999 54.333 -28.999 81s-19.667 54 -29 82h-292c-9.33301 -28 -18.833 -55.5 -28.5 -82.5s-19.167 -53.833 -28.5 -80.5h-131c26 74 50.667 142.333 74 205s46.166 122 68.499 178s44.5 109.333 66.5 160s44.667 100.667 68 150h119
c23.333 -49.333 46 -99.333 68 -150s44.167 -104 66.5 -160s45.333 -115.333 69 -178s48.5 -131 74.5 -205h-136zM339.001 559c-15.333 -35.333 -32.833 -78.332 -52.5 -128.999s-40.167 -105.667 -61.5 -165h228c-21.333 59.333 -42 114.666 -62 165.999
s-37.333 94 -52 128z" />
    <glyph glyph-name="B" unicode="B" horiz-adv-x="657" 
d="M292 -8c-36.667 0 -73.668 1.16895 -111.001 3.50195s-70 7.16602 -98 14.499v673c14.667 2.66699 30.334 5.16699 47.001 7.5s33.667 4.16602 51 5.49902s34.5 2.33301 51.5 3s33.167 1 48.5 1c42 0 81 -3.16699 117 -9.5s67.167 -16.833 93.5 -31.5
s46.833 -34 61.5 -58s22 -53.667 22 -89c0 -32.667 -7.83301 -60.667 -23.5 -84s-37.5 -42 -65.5 -56c42 -14 73 -34.667 93 -62s30 -62 30 -104c0 -71.333 -26 -124.833 -78 -160.5s-131.667 -53.5 -239 -53.5zM206.999 312.002l0.00195312 -210.998
c14 -1.33301 29 -2.33301 45 -3s30.667 -1 44 -1c26 0 50.167 1.66699 72.5 5s41.666 9.16602 57.999 17.499s29.333 19.5 39 33.5s14.5 32 14.5 54c0 39.333 -14.333 66.666 -43 81.999s-68.334 23 -119.001 23h-111zM207.001 411.004h88.999c48 0 85.667 6.83301 113 20.5
s41 38.167 41 73.5c0 33.333 -14.167 57 -42.5 71s-65.166 21 -110.499 21c-19.333 0 -36.5 -0.333008 -51.5 -1s-27.833 -1.66699 -38.5 -3v-182z" />
    <glyph glyph-name="C" unicode="C" horiz-adv-x="638" 
d="M391 -15c-52 0 -98.6621 7.99707 -139.995 23.9971s-76.333 39.5 -105 70.5s-50.667 68.833 -66 113.5s-23 96 -23 154s8.83301 109.333 26.5 154s41.834 82.5 72.501 113.5s66.667 54.5 108 70.5s85.666 24 132.999 24c28.667 0 54.667 -2.16699 78 -6.5
s43.666 -9.16602 60.999 -14.499s31.666 -11 42.999 -17s19.333 -10.333 24 -13l-37 -103c-16 10 -38.833 19.5 -68.5 28.5s-61.834 13.5 -96.501 13.5c-30 0 -58 -5.16699 -84 -15.5s-48.5 -25.833 -67.5 -46.5s-33.833 -46.667 -44.5 -78s-16 -67.666 -16 -108.999
c0 -36.667 4.16699 -70.334 12.5 -101.001s21.166 -57.167 38.499 -79.5s39.333 -39.666 66 -51.999s58.667 -18.5 96 -18.5c44.667 0 81 4.5 109 13.5s49.667 17.5 65 25.5l34 -103c-8 -5.33301 -18.833 -10.666 -32.5 -15.999s-29.834 -10.5 -48.501 -15.5
s-39.667 -9 -63 -12s-48.333 -4.5 -75 -4.5z" />
    <glyph glyph-name="D" unicode="D" horiz-adv-x="726" 
d="M209 104c7.33301 -0.666992 16.999 -1.16699 28.999 -1.5s28.333 -0.5 49 -0.5c84.667 0 147.834 21.5 189.501 64.5s62.5 103.167 62.5 180.5c0 78.667 -20.333 139 -61 181s-103.667 63 -189 63c-37.333 0 -64 -1 -80 -3v-484zM670.999 347
c0 -60 -9.33398 -112.167 -28.001 -156.5s-45.167 -81.333 -79.5 -111s-75.666 -51.667 -123.999 -66s-101.833 -21.5 -160.5 -21.5c-28 0 -59.667 1.16699 -95 3.5s-69 7.16602 -101 14.499v673c32 7.33301 66 12 102 14s68 3 96 3c58 0 111 -6.83301 159 -20.5
s89.167 -35 123.5 -64s60.833 -65.667 79.5 -110s28 -97.166 28 -158.499z" />
    <glyph glyph-name="E" unicode="E" horiz-adv-x="586" 
d="M83 0v693h445v-107h-319v-171h284v-105h-284v-203h343v-107h-469z" />
    <glyph glyph-name="F" unicode="F" horiz-adv-x="551" 
d="M83 0v693h438v-107h-312v-177h277v-107h-277v-302h-126z" />
    <glyph glyph-name="G" unicode="G" horiz-adv-x="683" 
d="M407 598c-71.333 0 -125.834 -22.1699 -163.501 -66.5029s-56.5 -105.833 -56.5 -184.5c0 -37.333 4.5 -71.5 13.5 -102.5s22.333 -57.5 40 -79.5s39.667 -39.167 66 -51.5s57.166 -18.5 92.499 -18.5c22 0 41 0.833008 57 2.5s28.667 3.83398 38 6.50098v249h126v-333
c-17.333 -6.66699 -46.666 -14 -87.999 -22s-89 -12 -143 -12c-50 0 -95.667 8 -137 24s-76.5 39.333 -105.5 70s-51.5 68.334 -67.5 113.001s-24 96 -24 154s8.83301 109.333 26.5 154s41.834 82.5 72.501 113.5s66.667 54.5 108 70.5s85.333 24 132 24
c32 0 60.5 -2.16699 85.5 -6.5s46.5 -9.16602 64.5 -14.499s32.833 -11 44.5 -17s19.834 -10.333 24.501 -13l-38 -103c-20 12 -44.833 22.167 -74.5 30.5s-60.834 12.5 -93.501 12.5z" />
    <glyph glyph-name="H" unicode="H" horiz-adv-x="719" 
d="M510 693h126v-693h-126v307h-301v-307h-126v693h126v-277h301v277z" />
    <glyph glyph-name="I" unicode="I" horiz-adv-x="292" 
d="M83 693h126v-693h-126v693z" />
    <glyph glyph-name="J" unicode="J" horiz-adv-x="513" 
d="M435 228c0 -34 -3.66797 -65.668 -11.001 -95.001s-20.166 -55 -38.499 -77s-43 -39.333 -74 -52s-70.167 -19 -117.5 -19c-44 0 -82.167 6.16699 -114.5 18.5s-57.166 25.5 -74.499 39.5l45 99c16.667 -11.333 37.167 -22.166 61.5 -32.499s49.166 -15.5 74.499 -15.5
c42.667 0 73.667 10.667 93 32s29 58 29 110v457h127v-465z" />
    <glyph glyph-name="K" unicode="K" horiz-adv-x="651" 
d="M497 0c-17.333 26.667 -37.333 54.665 -60 83.998s-46.5 57.666 -71.5 84.999s-50.833 53.333 -77.5 78s-53 46 -79 64v-311h-126v693h126v-286c22 22 45 45.5 69 70.5s47.833 50.333 71.5 76s46.167 50.5 67.5 74.5s40.666 45.667 57.999 65h151
c-22 -25.333 -45.333 -51.666 -70 -78.999s-50 -54.833 -76 -82.5s-52.167 -55.167 -78.5 -82.5s-52.166 -53.333 -77.499 -78c28 -21.333 56.5 -46.166 85.5 -74.499s57.5 -58.666 85.5 -90.999s54.833 -66 80.5 -101s49.167 -69.833 70.5 -104.5h-149z" />
    <glyph glyph-name="L" unicode="L" horiz-adv-x="534" 
d="M521 109v-109h-438v693h126v-584h312z" />
    <glyph glyph-name="M" unicode="M" horiz-adv-x="884" 
d="M234 693c14.667 -25.333 31.0029 -56.3359 49.0029 -93.0029s36.333 -75.167 55 -115.5s37.167 -81.333 55.5 -123s35.166 -80.167 50.499 -115.5c15.333 35.333 32 73.833 50 115.5s36.333 82.667 55 123s37 78.833 55 115.5s34.333 67.667 49 93h114
c6 -50.667 11.667 -104.5 17 -161.5s10.166 -115.333 14.499 -175s8.33301 -119.667 12 -180s6.83398 -119.166 9.50098 -176.499h-124c-2.66699 80.667 -5.83398 163.667 -9.50098 249s-9.16699 168 -16.5 248c-7.33301 -15.333 -16 -33.666 -26 -54.999
s-20.667 -44.5 -32 -69.5s-22.833 -50.833 -34.5 -77.5s-23 -52.5 -34 -77.5s-21.167 -48.333 -30.5 -70s-17.333 -40.167 -24 -55.5h-94c-6.66699 15.333 -14.667 34 -24 56s-19.5 45.5 -30.5 70.5s-22.333 50.833 -34 77.5s-23.167 52.334 -34.5 77.001
s-22 47.834 -32 69.501s-18.667 39.834 -26 54.501c-7.33301 -80 -12.833 -162.667 -16.5 -248s-6.83398 -168.333 -9.50098 -249h-124c2.66699 57.333 5.83398 116.666 9.50098 177.999s7.66699 122.166 12 182.499s9.16602 118.833 14.499 175.5s11 109 17 157h117z" />
    <glyph glyph-name="N" unicode="N" horiz-adv-x="740" 
d="M550 0c-22.667 38 -48.001 78.832 -76.001 122.499s-57 87.667 -87 132s-60.5 87.333 -91.5 129s-60.5 79.167 -88.5 112.5v-496h-124v693h103c26.667 -28 55.334 -61.167 86.001 -99.5s61.5 -78.166 92.5 -119.499s61 -82.833 90 -124.5s54.833 -80.5 77.5 -116.5v460
h125v-693h-107z" />
    <glyph glyph-name="O" unicode="O" horiz-adv-x="782" 
d="M186 347c0 -38 4.66699 -72.5 14 -103.5s22.833 -57.333 40.5 -79s39.167 -38.5 64.5 -50.5s54 -18 86 -18c31.333 0 59.666 6 84.999 18s46.833 28.833 64.5 50.5s31.167 48 40.5 79s14 65.5 14 103.5s-4.66699 72.5 -14 103.5s-22.833 57.333 -40.5 79
s-39.167 38.5 -64.5 50.5s-53.666 18 -84.999 18c-32 0 -60.667 -6 -86 -18s-46.833 -29 -64.5 -51s-31.167 -48.333 -40.5 -79s-14 -65 -14 -103zM727 347c0 -59.333 -8.83301 -111.666 -26.5 -156.999s-41.667 -83.166 -72 -113.499s-65.833 -53.166 -106.5 -68.499
s-84 -23 -130 -23s-89.5 7.66699 -130.5 23s-76.667 38.166 -107 68.499s-54.5 68.166 -72.5 113.499s-27 97.666 -27 156.999s9 111.5 27 156.5s42.5 82.833 73.5 113.5s66.833 53.667 107.5 69s83.667 23 129 23s88.333 -7.66699 129 -23s76.167 -38.333 106.5 -69
s54.5 -68.5 72.5 -113.5s27 -97.167 27 -156.5z" />
    <glyph glyph-name="P" unicode="P" horiz-adv-x="623" 
d="M279 700c100.667 0 177.831 -18.333 231.498 -55s80.5 -94 80.5 -172c0 -40.667 -7.16699 -75.5 -21.5 -104.5s-35.166 -52.667 -62.499 -71s-60.666 -31.833 -99.999 -40.5s-84.333 -13 -135 -13h-63v-244h-126v683c29.333 6.66699 61.833 11.167 97.5 13.5
s68.5 3.5 98.5 3.5zM287.997 591c-32 0 -58.334 -1.00098 -79.001 -3.00098v-236h61c60.667 0 107.334 8.5 140.001 25.5s49 49.167 49 96.5c0 22.667 -4.33301 41.667 -13 57s-20.667 27.333 -36 36s-33.5 14.834 -54.5 18.501s-43.5 5.5 -67.5 5.5z" />
    <glyph glyph-name="Q" unicode="Q" horiz-adv-x="782" 
d="M186 347c0 -38 4.66699 -72.5 14 -103.5s22.833 -57.333 40.5 -79s39.167 -38.5 64.5 -50.5s54 -18 86 -18c31.333 0 59.666 6 84.999 18s46.833 28.833 64.5 50.5s31.167 48 40.5 79s14 65.5 14 103.5s-4.66699 72.5 -14 103.5s-22.833 57.333 -40.5 79
s-39.167 38.5 -64.5 50.5s-53.666 18 -84.999 18c-32 0 -60.667 -6 -86 -18s-46.833 -29 -64.5 -51s-31.167 -48.333 -40.5 -79s-14 -65 -14 -103zM727 347c0 -50 -6.33105 -94.998 -18.998 -134.998s-30.334 -74.833 -53.001 -104.5s-49.167 -53.834 -79.5 -72.501
s-63.5 -32 -99.5 -40c2 -14 9 -26 21 -36s27.167 -18.333 45.5 -25s39.333 -12.167 63 -16.5s48.5 -7.5 74.5 -9.5l-28 -95c-86 6.66699 -154.333 23.167 -205 49.5s-83 68.166 -97 125.499c-41.333 4 -79.833 14.667 -115.5 32s-66.834 41 -93.501 71
s-47.667 66.333 -63 109s-23 91.667 -23 147c0 59.333 9 111.5 27 156.5s42.5 82.833 73.5 113.5s66.833 53.667 107.5 69s83.667 23 129 23s88.333 -7.66699 129 -23s76.167 -38.333 106.5 -69s54.5 -68.5 72.5 -113.5s27 -97.167 27 -156.5z" />
    <glyph glyph-name="R" unicode="R" horiz-adv-x="640" 
d="M274 700c100 0 176.501 -18.333 229.501 -55s79.5 -92.667 79.5 -168c0 -94 -46.333 -157.667 -139 -191c12.667 -15.333 27 -34 43 -56s32.333 -45.833 49 -71.5s32.667 -52 48 -79s29 -53.5 41 -79.5h-141c-12.667 24 -26.334 48.167 -41.001 72.5s-29.5 48 -44.5 71
s-29.833 44.667 -44.5 65s-28.334 38.5 -41.001 54.5c-9.33301 -0.666992 -17.333 -1 -24 -1h-19h-61v-262h-126v683c30.667 6.66699 63.334 11.167 98.001 13.5s65.667 3.5 93 3.5zM283.001 591c-26.667 0 -51.332 -1.00391 -73.999 -3.00391v-224h55
c30.667 0 57.667 1.66699 81 5s42.833 9.33301 58.5 18s27.5 20.334 35.5 35.001s12 33.334 12 56.001c0 21.333 -4 39.333 -12 54s-19.5 26.334 -34.5 35.001s-32.833 14.834 -53.5 18.501s-43.334 5.5 -68.001 5.5z" />
    <glyph glyph-name="S" unicode="S" horiz-adv-x="540" 
d="M251 94c45.333 0 78.3281 7.66602 98.9951 22.999s31 37 31 65c0 16.667 -3.5 31 -10.5 43s-17 22.833 -30 32.5s-28.833 18.667 -47.5 27s-40 16.5 -64 24.5c-24 8.66699 -47.167 18.167 -69.5 28.5s-42 23.166 -59 38.499s-30.667 33.666 -41 54.999s-15.5 47 -15.5 77
c0 62.667 21.667 111.834 65 147.501s102.333 53.5 177 53.5c43.333 0 81.833 -4.83301 115.5 -14.5s60.167 -20.167 79.5 -31.5l-39 -102c-22.667 12.667 -47.5 22.334 -74.5 29.001s-54.833 10 -83.5 10c-34 0 -60.5 -7 -79.5 -21s-28.5 -33.667 -28.5 -59
c0 -15.333 3.16699 -28.5 9.5 -39.5s15.333 -20.833 27 -29.5s25.334 -16.667 41.001 -24s32.834 -14.333 51.501 -21c32.667 -12 61.834 -24.167 87.501 -36.5s47.334 -27 65.001 -44s31.167 -37 40.5 -60s14 -50.833 14 -83.5c0 -62.667 -22.167 -111.167 -66.5 -145.5
s-109.166 -51.5 -194.499 -51.5c-28.667 0 -54.834 1.83301 -78.501 5.5s-44.667 8.16699 -63 13.5s-34.166 10.833 -47.499 16.5s-24 10.834 -32 15.501l37 103c18 -10 42.333 -20 73 -30s67.667 -15 111 -15z" />
    <glyph glyph-name="T" unicode="T" horiz-adv-x="579" 
d="M566 693v-109h-213v-584h-127v584h-213v109h553z" />
    <glyph glyph-name="U" unicode="U" horiz-adv-x="703" 
d="M350 -15c-47.333 0 -88 6.83301 -122 20.5s-62.167 32.834 -84.5 57.501s-38.833 53.667 -49.5 87s-16 70 -16 110v433h127v-421c0 -31.333 3.5 -58.166 10.5 -80.499s17 -40.5 30 -54.5s28.333 -24.333 46 -31s37.5 -10 59.5 -10s42 3.33301 60 10s33.5 17 46.5 31
s23 32.167 30 54.5s10.5 49.166 10.5 80.499v421h127v-433c0 -40 -5.5 -76.667 -16.5 -110s-27.667 -62.333 -50 -87s-50.833 -43.834 -85.5 -57.501s-75.667 -20.5 -123 -20.5z" />
    <glyph glyph-name="V" unicode="V" horiz-adv-x="683" 
d="M281 0c-50 108 -98.1689 220.999 -144.502 338.999s-89.5 236 -129.5 354h139c16 -46.667 32.333 -94.334 49 -143.001s33.334 -96.5 50.001 -143.5s33.334 -92.5 50.001 -136.5s33 -84.333 49 -121c15.333 36.667 31.333 76.834 48 120.501s33.5 89.167 50.5 136.5
s33.833 95.333 50.5 144s32.667 96.334 48 143.001h135c-40.667 -118 -84 -236 -130 -354s-94 -231 -144 -339h-121z" />
    <glyph glyph-name="W" unicode="W" horiz-adv-x="938" 
d="M527 615c10.667 -36 21.998 -73.499 33.998 -112.499s24.5 -78 37.5 -117s26 -77.333 39 -115s25.5 -73.167 37.5 -106.5c10 36 19.667 75.167 29 117.5s18.666 86.333 27.999 132s18.5 92.167 27.5 139.5s17.5 94 25.5 140h130
c-23.333 -125.333 -49.333 -245.833 -78 -361.5s-60.667 -226.167 -96 -331.5h-120c-52 134.667 -102.333 281.667 -151 441c-24.667 -80.667 -49.667 -157.334 -75 -230.001s-50.666 -143 -75.999 -211h-120c-36 105.333 -68.167 215.833 -96.5 331.5
s-54.166 236.167 -77.499 361.5h135c8 -45.333 16.5 -91.666 25.5 -138.999s18.333 -93.833 28 -139.5s19.5 -89.834 29.5 -132.501s20 -82 30 -118c12.667 34 25.5 69.833 38.5 107.5s25.833 76 38.5 115s24.834 77.833 36.501 116.5s22.5 76 32.5 112h108z" />
    <glyph glyph-name="X" unicode="X" horiz-adv-x="657" 
d="M494 0c-19.333 39.333 -43.666 82.666 -72.999 129.999s-60 93 -92 137c-13.333 -17.333 -27.833 -38 -43.5 -62s-31.334 -48.5 -47.001 -73.5s-30.167 -49.167 -43.5 -72.5s-24 -43 -32 -59h-143c30 56.667 64.667 114.834 104 174.501s82 122.167 128 187.5l-222 331
h150l153 -237l151 237h144l-219 -330c50.667 -68.667 95.5 -133.667 134.5 -195s71.833 -117.333 98.5 -168h-148z" />
    <glyph glyph-name="Y" unicode="Y" horiz-adv-x="625" 
d="M316 386c30 50 59.332 100.669 87.999 152.002s54.667 103 78 155h140c-37.333 -70.667 -76.166 -140.834 -116.499 -210.501s-83.5 -139.834 -129.5 -210.501v-272h-126v270c-46 71.333 -89.333 142 -130 212s-79.667 140.333 -117 211h148
c23.333 -52 49 -103.667 77 -155s57.333 -102 88 -152z" />
    <glyph glyph-name="Z" unicode="Z" horiz-adv-x="588" 
d="M543 600c-22 -24 -48.668 -55.166 -80.001 -93.499s-63.666 -80 -96.999 -125s-66.166 -91.333 -98.499 -139s-60.833 -92.834 -85.5 -135.501h372v-107h-524v79c13.333 24.667 28.833 51.5 46.5 80.5s36.5 58.833 56.5 89.5s40.833 61.667 62.5 93
s43.167 61.5 64.5 90.5s42.166 56.667 62.499 83s39.5 49.833 57.5 70.5h-333v107h496v-93z" />
    <glyph glyph-name="bracketleft" unicode="[" horiz-adv-x="346" 
d="M93 783h248v-96h-134v-776h134v-96h-248v968z" />
    <glyph glyph-name="backslash" unicode="\" horiz-adv-x="416" 
d="M105 783l338 -968h-124l-336 968h122z" />
    <glyph glyph-name="bracketright" unicode="]" horiz-adv-x="346" 
d="M5 -185v96h133v776h-133v96h248v-968h-248z" />
    <glyph glyph-name="asciicircum" unicode="^" horiz-adv-x="568" 
d="M534 349l-99 -49l-151 263l-151 -263l-100 49l201 344h100z" />
    <glyph glyph-name="underscore" unicode="_" horiz-adv-x="500" 
d="M0 -84h500v-101h-500v101z" />
    <glyph glyph-name="grave" unicode="`" horiz-adv-x="392" 
d="M154 808l145 -175l-60 -54l-162 159z" />
    <glyph glyph-name="a" unicode="a" horiz-adv-x="534" 
d="M261 85c37.333 0 65.668 2.00098 85.001 6.00098v134c-6.66699 2 -16.334 4 -29.001 6s-26.667 3 -42 3c-13.333 0 -26.833 -1 -40.5 -3s-26 -5.66699 -37 -11s-19.833 -12.833 -26.5 -22.5s-10 -21.834 -10 -36.501c0 -28.667 9 -48.5 27 -59.5s42.333 -16.5 73 -16.5z
M251.002 536.001c40 0 73.6689 -4.99707 101.002 -14.9971s49.166 -24 65.499 -42s28 -39.833 35 -65.5s10.5 -53.834 10.5 -84.501v-317c-18.667 -4 -46.834 -8.83301 -84.501 -14.5s-80.167 -8.5 -127.5 -8.5c-31.333 0 -60 3 -86 9s-48.167 15.667 -66.5 29
s-32.666 30.666 -42.999 51.999s-15.5 47.666 -15.5 78.999c0 30 5.83301 55.333 17.5 76s27.5 37.5 47.5 50.5s43.167 22.333 69.5 28s53.833 8.5 82.5 8.5c13.333 0 27.333 -0.833008 42 -2.5s30.334 -4.5 47.001 -8.5v20c0 14 -1.66699 27.333 -5 40
s-9.16602 23.834 -17.499 33.501s-19.333 17.167 -33 22.5s-30.834 8 -51.501 8c-28 0 -53.667 -2 -77 -6s-42.333 -8.66699 -57 -14l-15 98c15.333 5.33301 37.666 10.666 66.999 15.999s60.666 8 93.999 8z" />
    <glyph glyph-name="b" unicode="b" horiz-adv-x="596" 
d="M424 263c0 51.333 -10.167 92.001 -30.5 122.001s-52.5 45 -96.5 45c-20 0 -38.833 -3 -56.5 -9s-31.834 -12.667 -42.501 -20v-301c8.66699 -2 19.834 -3.83301 33.501 -5.5s30.167 -2.5 49.5 -2.5c44.667 0 79.667 15.167 105 45.5s38 72.166 38 125.499zM548 261.001
c0 -42 -6.16602 -79.832 -18.499 -113.499s-30 -62.5 -53 -86.5s-50.833 -42.333 -83.5 -55s-69.667 -19 -111 -19c-40 0 -78.167 3 -114.5 9s-66.5 12.667 -90.5 20v740l121 20v-271c14 7.33301 31.167 14 51.5 20s42.833 9 67.5 9c36.667 0 69.5 -6.5 98.5 -19.5
s53.167 -31.5 72.5 -55.5s34.166 -52.833 44.499 -86.5s15.5 -70.834 15.5 -111.501z" />
    <glyph glyph-name="c" unicode="c" horiz-adv-x="472" 
d="M48 261c0 38.667 6.00195 74.832 18.002 108.499s29.167 62.834 51.5 87.501s49.5 44 81.5 58s68 21 108 21c49.333 0 96 -9 140 -27l-26 -99c-14 6 -29.833 11 -47.5 15s-36.5 6 -56.5 6c-47.333 0 -83.333 -14.833 -108 -44.5s-37 -71.5 -37 -125.5
c0 -52 11.667 -93.167 35 -123.5s62.666 -45.5 117.999 -45.5c20.667 0 41 2 61 6s37.333 9 52 15l17 -100c-13.333 -6.66699 -33.5 -12.667 -60.5 -18s-54.833 -8 -83.5 -8c-44.667 0 -83.5 6.83301 -116.5 20.5s-60.333 32.667 -82 57s-37.834 53.333 -48.501 87
s-16 70.167 -16 109.5z" />
    <glyph glyph-name="d" unicode="d" horiz-adv-x="596" 
d="M172 263c0 -53.333 12.667 -95.166 38 -125.499s60.333 -45.5 105 -45.5c19.333 0 35.833 0.833008 49.5 2.5s24.834 3.5 33.501 5.5v300c-10.667 7.33301 -24.834 14.166 -42.501 20.499s-36.5 9.5 -56.5 9.5c-44 0 -76.167 -15 -96.5 -45s-30.5 -70.667 -30.5 -122z
M519 16c-24 -7.33301 -54.166 -14.002 -90.499 -20.002s-74.5 -9 -114.5 -9c-41.333 0 -78.333 6.33301 -111 19s-60.5 30.834 -83.5 54.501s-40.667 52.334 -53 86.001s-18.5 71.5 -18.5 113.5c0 41.333 5.16699 78.833 15.5 112.5s25.5 62.5 45.5 86.5
s44.333 42.5 73 55.5s61.667 19.5 99 19.5c25.333 0 47.666 -3 66.999 -9s36 -12.667 50 -20v251l121 20v-760z" />
    <glyph glyph-name="e" unicode="e" horiz-adv-x="571" 
d="M48 259c0 46 6.83496 86.334 20.502 121.001s31.834 63.5 54.501 86.5s48.667 40.333 78 52s59.333 17.5 90 17.5c72 0 128.167 -22.333 168.5 -67s60.5 -111.334 60.5 -200.001c0 -6.66699 -0.166992 -14.167 -0.5 -22.5s-0.833008 -15.833 -1.5 -22.5h-345
c3.33301 -42 18.166 -74.5 44.499 -97.5s64.5 -34.5 114.5 -34.5c29.333 0 56.166 2.66699 80.499 8s43.5 11 57.5 17l16 -99c-6.66699 -3.33301 -15.834 -6.83301 -27.501 -10.5s-25 -7 -40 -10s-31.167 -5.5 -48.5 -7.5s-35 -3 -53 -3c-46 0 -86 6.83301 -120 20.5
s-62 32.667 -84 57s-38.333 53 -49 86s-16 69.167 -16 108.5zM399.002 313.001c0 16.667 -2.33301 32.5 -7 47.5s-11.5 28 -20.5 39s-20 19.667 -33 26s-28.5 9.5 -46.5 9.5c-18.667 0 -35 -3.5 -49 -10.5s-25.833 -16.167 -35.5 -27.5s-17.167 -24.333 -22.5 -39
s-9 -29.667 -11 -45h225z" />
    <glyph glyph-name="f" unicode="f" horiz-adv-x="400" 
d="M290 776c28 0 52.667 -2.49805 74 -7.49805s37.333 -9.5 48 -13.5l-23 -100c-11.333 5.33301 -24.5 9.66602 -39.5 12.999s-31.167 5 -48.5 5c-19.333 0 -35.666 -2.83301 -48.999 -8.5s-24 -13.5 -32 -23.5s-13.667 -22.167 -17 -36.5s-5 -29.833 -5 -46.5v-35h190v-101
h-190v-422h-121v560c0 67.333 17.667 120.166 53 158.499s88.666 57.5 159.999 57.5z" />
    <glyph glyph-name="g" unicode="g" horiz-adv-x="586" 
d="M172 275c0 -51.333 11.1689 -88.832 33.502 -112.499s51.166 -35.5 86.499 -35.5c19.333 0 37.5 2.66699 54.5 8s30.833 11.666 41.5 18.999v271c-8.66699 2 -19.334 3.83301 -32.001 5.5s-28.667 2.5 -48 2.5c-44 0 -77.667 -14.5 -101 -43.5s-35 -67.167 -35 -114.5z
M509.002 53.001c0 -83.333 -21.167 -144.335 -63.5 -183.002s-107.166 -58 -194.499 -58c-32 0 -63.167 2.66699 -93.5 8s-57.833 12.333 -82.5 21l22 103c20.667 -8.66699 44.167 -15.667 70.5 -21s54.833 -8 85.5 -8c48.667 0 83.334 10 104.001 30s31 49.667 31 89v20
c-12 -6 -27.833 -12 -47.5 -18s-42.167 -9 -67.5 -9c-33.333 0 -63.833 5.33301 -91.5 16s-51.334 26.334 -71.001 47.001s-35 46.5 -46 77.5s-16.5 66.833 -16.5 107.5c0 38 5.83301 73 17.5 105s28.667 59.333 51 82s49.5 40.334 81.5 53.001s68.333 19 109 19
c39.333 0 76.666 -3 111.999 -9s65.333 -12.333 90 -19v-453z" />
    <glyph glyph-name="h" unicode="h" horiz-adv-x="582" 
d="M77 0l-0.000976562 756l121 20v-259c13.333 4.66699 28.833 8.66699 46.5 12s35.167 5 52.5 5c42 0 76.833 -5.83301 104.5 -17.5s49.834 -28 66.501 -49s28.5 -46.167 35.5 -75.5s10.5 -62 10.5 -98v-294h-121v275c0 28 -1.83301 51.833 -5.5 71.5
s-9.66699 35.667 -18 48s-19.5 21.333 -33.5 27s-31.333 8.5 -52 8.5c-16 0 -32.333 -1.66699 -49 -5s-29 -6.33301 -37 -9v-416h-121z" />
    <glyph glyph-name="i" unicode="i" horiz-adv-x="276" 
d="M199 0h-121v523h121v-523zM212 676c0 -22.667 -7.33301 -40.667 -22 -54s-32 -20 -52 -20c-20.667 0 -38.334 6.66699 -53.001 20s-22 31.333 -22 54c0 23.333 7.33301 41.666 22 54.999s32.334 20 53.001 20c20 0 37.333 -6.66699 52 -20s22 -31.666 22 -54.999z" />
    <glyph glyph-name="j" unicode="j" horiz-adv-x="275" 
d="M10 -186c-8.66699 0 -20.834 0.832031 -36.501 2.49902s-29.5 4.83398 -41.5 9.50098l16 99c14.667 -4.66699 32.334 -7 53.001 -7c28 0 47.667 8.16699 59 24.5s17 40.833 17 73.5v507h121v-509c0 -68 -16.167 -118.333 -48.5 -151s-78.833 -49 -139.5 -49zM211 675.999
c0 -22.667 -7.33301 -40.667 -22 -54s-32 -20 -52 -20c-20.667 0 -38.334 6.66699 -53.001 20s-22 31.333 -22 54c0 23.333 7.33301 41.666 22 54.999s32.334 20 53.001 20c20 0 37.333 -6.66699 52 -20s22 -31.666 22 -54.999z" />
    <glyph glyph-name="k" unicode="k" horiz-adv-x="551" 
d="M198 319c15.333 16 31.667 33.1709 49 51.5039s34.333 36.666 51 54.999s32.5 36 47.5 53s27.833 31.833 38.5 44.5h143c-33.333 -37.333 -68.5 -76 -105.5 -116s-74.167 -79 -111.5 -117c20 -16.667 41 -36.834 63 -60.501s43.333 -48.834 64 -75.501
s40 -53.334 58 -80.001s33 -51.334 45 -74.001h-140c-12 20.667 -25.833 42.334 -41.5 65.001s-32.5 44.667 -50.5 66s-36.333 41.5 -55 60.5s-37 35.167 -55 48.5v-240h-121v756l121 20v-457z" />
    <glyph glyph-name="l" unicode="l" horiz-adv-x="297" 
d="M259 -10c-36 0.666992 -65.833 4.66699 -89.5 12s-42.5 17.833 -56.5 31.5s-23.833 30.667 -29.5 51s-8.5 43.5 -8.5 69.5v602l121 20v-599c0 -14.667 1.16699 -27 3.5 -37s6.5 -18.5 12.5 -25.5s14.167 -12.333 24.5 -16s23.5 -6.5 39.5 -8.5z" />
    <glyph glyph-name="m" unicode="m" horiz-adv-x="865" 
d="M375 275c0 54.667 -6.83301 94.167 -20.5 118.5s-39.167 36.5 -76.5 36.5c-13.333 0 -28 -1 -44 -3s-28 -3.66699 -36 -5v-422h-121v506c23.333 6.66699 53.833 13 91.5 19s77.5 9 119.5 9c36 0 65.5 -4.66699 88.5 -14s42.167 -21.666 57.5 -36.999
c7.33301 5.33301 16.666 11 27.999 17s24 11.5 38 16.5s28.833 9.16699 44.5 12.5s31.5 5 47.5 5c40.667 0 74.167 -5.83301 100.5 -17.5s47 -28 62 -49s25.333 -46.333 31 -76s8.5 -62.167 8.5 -97.5v-294h-121v275c0 54.667 -6.66699 94.167 -20 118.5s-39 36.5 -77 36.5
c-19.333 0 -37.666 -3.16699 -54.999 -9.5s-30.333 -12.5 -39 -18.5c5.33301 -16.667 9 -34.334 11 -53.001s3 -38.667 3 -60v-289h-121v275z" />
    <glyph glyph-name="n" unicode="n" horiz-adv-x="585" 
d="M77 506c23.333 6.66699 53.666 13 90.999 19s78.666 9 123.999 9c42.667 0 78.334 -5.83301 107.001 -17.5s51.5 -28 68.5 -49s29 -46.333 36 -76s10.5 -62.167 10.5 -97.5v-294h-121v275c0 28 -1.83301 51.833 -5.5 71.5s-9.66699 35.667 -18 48
s-19.666 21.333 -33.999 27s-31.833 8.5 -52.5 8.5c-15.333 0 -31.333 -1 -48 -3s-29 -3.66699 -37 -5v-422h-121v506z" />
    <glyph glyph-name="o" unicode="o" horiz-adv-x="598" 
d="M550 262c0 -41.333 -6 -79 -18 -113s-29 -63 -51 -87s-48.5 -42.667 -79.5 -56s-65.167 -20 -102.5 -20s-71.333 6.66699 -102 20s-57 32 -79 56s-39.167 53 -51.5 87s-18.5 71.667 -18.5 113s6.16699 78.833 18.5 112.5s29.666 62.5 51.999 86.5s48.833 42.5 79.5 55.5
s64.334 19.5 101.001 19.5s70.5 -6.5 101.5 -19.5s57.5 -31.5 79.5 -55.5s39.167 -52.833 51.5 -86.5s18.5 -71.167 18.5 -112.5zM426 262c0 52 -11.167 93.167 -33.5 123.5s-53.5 45.5 -93.5 45.5s-71.167 -15.167 -93.5 -45.5s-33.5 -71.5 -33.5 -123.5
c0 -52.667 11.167 -94.334 33.5 -125.001s53.5 -46 93.5 -46s71.167 15.333 93.5 46s33.5 72.334 33.5 125.001z" />
    <glyph glyph-name="p" unicode="p" horiz-adv-x="596" 
d="M424 259c0 54 -12.1689 95.999 -36.502 125.999s-63.5 45 -117.5 45c-11.333 0 -23.166 -0.5 -35.499 -1.5s-24.5 -3.16699 -36.5 -6.5v-299c10.667 -7.33301 24.834 -14.166 42.501 -20.499s36.5 -9.5 56.5 -9.5c44 0 76.167 15 96.5 45s30.5 70.333 30.5 121z
M547.998 260.999c0 -40 -5.16699 -76.665 -15.5 -109.998s-25.166 -62 -44.499 -86s-43.5 -42.667 -72.5 -56s-61.833 -20 -98.5 -20c-24.667 0 -47.334 3 -68.001 9s-37.667 12.667 -51 20v-203h-121v691c24.667 6.66699 55 13 91 19s74 9 114 9
c41.333 0 78.333 -6.33301 111 -19s60.5 -30.834 83.5 -54.501s40.667 -52.334 53 -86.001s18.5 -71.5 18.5 -113.5z" />
    <glyph glyph-name="q" unicode="q" horiz-adv-x="596" 
d="M172 259c0 -50.667 10.166 -91 30.499 -121s52.5 -45 96.5 -45c20 0 38.833 3.16699 56.5 9.5s31.834 13.166 42.501 20.499v299c-8.66699 2 -19.5 3.83301 -32.5 5.5s-29.833 2.5 -50.5 2.5c-44.667 0 -79.667 -15.167 -105 -45.5s-38 -72.166 -38 -125.499zM47.999 261
c0 41.333 6.16602 78.832 18.499 112.499s30 62.334 53 86.001s50.833 42 83.5 55s69.667 19.5 111 19.5s80 -3 116 -9s65.667 -12.333 89 -19v-691h-121v203c-14 -7.33301 -31.167 -14 -51.5 -20s-42.833 -9 -67.5 -9c-37.333 0 -70.333 6.5 -99 19.5
s-52.667 31.5 -72 55.5s-34.166 52.667 -44.499 86s-15.5 70.333 -15.5 111z" />
    <glyph glyph-name="r" unicode="r" horiz-adv-x="403" 
d="M375 414c-10 3.33301 -23.834 6.83203 -41.501 10.499s-38.167 5.5 -61.5 5.5c-13.333 0 -27.5 -1.33301 -42.5 -4s-25.5 -5 -31.5 -7v-419h-121v498c23.333 8.66699 52.5 16.834 87.5 24.501s73.833 11.5 116.5 11.5c8 0 17.333 -0.5 28 -1.5s21.334 -2.33301 32.001 -4
s21 -3.66699 31 -6s18 -4.5 24 -6.5z" />
    <glyph glyph-name="s" unicode="s" horiz-adv-x="457" 
d="M208 87c32 0 55.332 3.83496 69.999 11.502s22 20.834 22 39.501c0 17.333 -7.83301 31.666 -23.5 42.999s-41.5 23.666 -77.5 36.999c-22 8 -42.167 16.5 -60.5 25.5s-34.166 19.5 -47.499 31.5s-23.833 26.5 -31.5 43.5s-11.5 37.833 -11.5 62.5
c0 48 17.667 85.833 53 113.5s83.333 41.5 144 41.5c30.667 0 60 -2.83301 88 -8.5s49 -11.167 63 -16.5l-22 -98c-13.333 6 -30.333 11.5 -51 16.5s-44.667 7.5 -72 7.5c-24.667 0 -44.667 -4.16699 -60 -12.5s-23 -21.166 -23 -38.499c0 -8.66699 1.5 -16.334 4.5 -23.001
s8.16699 -12.834 15.5 -18.501s17 -11.334 29 -17.001s26.667 -11.5 44 -17.5c28.667 -10.667 53 -21.167 73 -31.5s36.5 -22 49.5 -35s22.5 -27.833 28.5 -44.5s9 -36.667 9 -60c0 -50 -18.5 -87.833 -55.5 -113.5s-89.833 -38.5 -158.5 -38.5c-46 0 -83 3.83301 -111 11.5
s-47.667 13.834 -59 18.501l21 101c18 -7.33301 39.5 -14.333 64.5 -21s53.5 -10 85.5 -10z" />
    <glyph glyph-name="t" unicode="t" horiz-adv-x="418" 
d="M71 661l121.001 20v-158h186v-101h-186v-213c0 -42 6.66699 -72 20 -90s36 -27 68 -27c22 0 41.5 2.33301 58.5 7s30.5 9 40.5 13l20 -96c-14 -6 -32.333 -12.167 -55 -18.5s-49.334 -9.5 -80.001 -9.5c-37.333 0 -68.5 5 -93.5 15s-44.833 24.5 -59.5 43.5
s-25 42 -31 69s-9 57.833 -9 92.5v453z" />
    <glyph glyph-name="u" unicode="u" horiz-adv-x="583" 
d="M506 16c-23.333 -6 -53.667 -12.167 -91 -18.5s-78.333 -9.5 -123 -9.5c-42 0 -77.167 6 -105.5 18s-51 28.667 -68 50s-29.167 46.833 -36.5 76.5s-11 62.167 -11 97.5v293h121v-274c0 -56 8.16699 -96 24.5 -120s44.833 -36 85.5 -36c14.667 0 30.167 0.666992 46.5 2
s28.5 3 36.5 5v423h121v-507z" />
    <glyph glyph-name="v" unicode="v" horiz-adv-x="526" 
d="M211 0c-33.333 68.667 -67.5 147.5 -102.5 236.5s-66.833 184.5 -95.5 286.5h129c7.33301 -29.333 15.833 -60.833 25.5 -94.5s20 -67.334 31 -101.001s22.333 -66.334 34 -98.001s22.5 -60.167 32.5 -85.5c10 25.333 20.667 53.833 32 85.5s22.5 64.334 33.5 98.001
s21.5 67.334 31.5 101.001s18.667 65.167 26 94.5h125c-28.667 -102 -60.5 -197.5 -95.5 -286.5s-69.167 -167.833 -102.5 -236.5h-104z" />
    <glyph glyph-name="w" unicode="w" horiz-adv-x="780" 
d="M389 329c-15.333 -58.667 -31.8311 -115.834 -49.498 -171.501s-35.167 -108.167 -52.5 -157.5h-99c-13.333 30.667 -27.333 65.667 -42 105s-29.334 81.333 -44.001 126s-29.334 91.667 -44.001 141s-29 99.666 -43 150.999h128c6 -28 13 -58.167 21 -90.5
s16.333 -65.333 25 -99s17.667 -66.5 27 -98.5s18.666 -61.333 27.999 -88c10 30.667 19.833 62.334 29.5 95.001s18.834 65.334 27.501 98.001s16.834 64.5 24.501 95.5s14.5 60.167 20.5 87.5h93c6 -27.333 12.667 -56.5 20 -87.5s15.166 -62.833 23.499 -95.5
s17.333 -65.334 27 -98.001s19.5 -64.334 29.5 -95.001c8.66699 26.667 17.667 56 27 88s18.5 64.833 27.5 98.5s17.5 66.667 25.5 99s15 62.5 21 90.5h125c-14 -51.333 -28.333 -101.666 -43 -150.999s-29.334 -96.333 -44.001 -141s-29.334 -86.667 -44.001 -126
s-29 -74.333 -43 -105h-98c-17.333 49.333 -35.166 101.833 -53.499 157.5s-35.166 112.834 -50.499 171.501z" />
    <glyph glyph-name="x" unicode="x" horiz-adv-x="529" 
d="M265 352l110.999 171h127l-172 -247c36 -46.667 70.5 -93.834 103.5 -141.501s60.167 -92.5 81.5 -134.5h-131c-6 12.667 -13.833 27.167 -23.5 43.5s-20 33.333 -31 51s-22.5 35.167 -34.5 52.5s-23.667 33.666 -35 48.999c-23.333 -30 -46.166 -63.167 -68.499 -99.5
s-40.833 -68.5 -55.5 -96.5h-124c10 20 22 41.333 36 64s29 45.834 45 69.501s32.5 47.334 49.5 71.001s33.833 46.167 50.5 67.5l-173 251h133z" />
    <glyph glyph-name="y" unicode="y" horiz-adv-x="519" 
d="M504 523c-54 -198.667 -116.671 -378.666 -188.004 -539.999c-13.333 -30 -27 -55.667 -41 -77s-29.667 -39 -47 -53s-36.666 -24.167 -57.999 -30.5s-46 -9.5 -74 -9.5c-18.667 0 -37.167 2 -55.5 6s-32.166 8.33301 -41.499 13l22 97c24 -9.33301 47.667 -14 71 -14
c31.333 0 55.833 7.5 73.5 22.5s33.167 38.167 46.5 69.5c-38 73.333 -74.5 153.333 -109.5 240s-66.167 178.667 -93.5 276h129c6.66699 -28 14.834 -58.333 24.501 -91s20.167 -65.834 31.5 -99.501s23.333 -67.167 36 -100.5s25.334 -64.333 38.001 -93
c21.333 59.333 41.333 122.5 60 189.5s35.667 131.833 51 194.5h125z" />
    <glyph glyph-name="z" unicode="z" horiz-adv-x="484" 
d="M443 438c-13.333 -14 -30.832 -33.667 -52.499 -59s-44.834 -53.5 -69.501 -84.5s-49.5 -63.333 -74.5 -97s-47.5 -65.834 -67.5 -96.501h270v-101h-416v75c14.667 26.667 33 55.667 55 87s44.667 62.833 68 94.5s46.5 61.834 69.5 90.501s43.5 53.667 61.5 75h-241v101
h397v-85z" />
    <glyph glyph-name="braceleft" unicode="{" horiz-adv-x="348" 
d="M37 346c30.667 0 53.168 9.50293 67.501 28.5029s21.5 41.5 21.5 67.5v147c0 31.333 3 59.166 9 83.499s16.667 44.666 32 60.999s36.666 28.666 63.999 36.999s62.333 12.5 105 12.5h7v-96c-19.333 0 -35.666 -1.33301 -48.999 -4s-24 -7.5 -32 -14.5
s-13.833 -16.333 -17.5 -28s-5.5 -26.5 -5.5 -44.5v-143c0 -40 -5.16699 -71.833 -15.5 -95.5s-27.833 -43.167 -52.5 -58.5c24.667 -15.333 42.167 -35 52.5 -59s15.5 -55.667 15.5 -95v-144c0 -18 1.83301 -32.667 5.5 -44s9.5 -20.5 17.5 -27.5s18.667 -11.833 32 -14.5
s29.666 -4 48.999 -4v-96c-44.667 0 -81 4 -109 12s-50 20.167 -66 36.5s-27 36.5 -33 60.5s-9 52 -9 84v148c0 25.333 -7.16699 47.5 -21.5 66.5s-36.833 28.5 -67.5 28.5v95z" />
    <glyph glyph-name="bar" unicode="|" horiz-adv-x="300" 
d="M93 783h114v-968h-114v968z" />
    <glyph glyph-name="braceright" unicode="}" horiz-adv-x="348" 
d="M311 251c-30.667 0 -53.167 -9.50195 -67.5 -28.502s-21.5 -41.167 -21.5 -66.5v-148c0 -32 -3 -60 -9 -84s-17 -44.167 -33 -60.5s-38 -28.5 -66 -36.5s-64.333 -12 -109 -12v96c38.667 0 65.667 6.16699 81 18.5s23 36.166 23 71.499v144c0 39.333 5.16699 71 15.5 95
s27.833 43.667 52.5 59c-24.667 15.333 -42.167 34.833 -52.5 58.5s-15.5 55.5 -15.5 95.5v143c0 18 -1.83301 32.833 -5.5 44.5s-9.5 21 -17.5 28s-18.667 11.833 -32 14.5s-29.666 4 -48.999 4v96h7c42.667 0 77.667 -4.16699 105 -12.5s48.666 -20.666 63.999 -36.999
s26 -36.666 32 -60.999s9 -52.166 9 -83.499v-147c0 -26 7.16699 -48.5 21.5 -67.5s36.833 -28.5 67.5 -28.5v-95z" />
    <glyph glyph-name="asciitilde" unicode="~" horiz-adv-x="568" 
d="M385 207c-20.667 0 -39.834 4.16406 -57.501 12.4971s-34.834 17.5 -51.501 27.5s-32.667 19.167 -48 27.5s-31 12.5 -47 12.5s-29 -6.16699 -39 -18.5s-18.667 -31.166 -26 -56.499l-83 23c3.33301 16 8.16602 33.167 14.499 51.5s15.333 35.333 27 51
s26.167 28.834 43.5 39.501s38.333 16 63 16c20.667 0 39.834 -4.16699 57.501 -12.5s34.834 -17.666 51.501 -27.999s32.667 -19.666 48 -27.999s31 -12.5 47 -12.5c16.667 0 30 6.33301 40 19s18.333 31.667 25 57l83 -23c-3.33301 -16 -8.16602 -33.167 -14.499 -51.5
s-15.333 -35.333 -27 -51s-26.167 -28.834 -43.5 -39.501s-38.333 -16 -63 -16z" />
    <glyph glyph-name="uni00A0" unicode="&#xa0;" horiz-adv-x="233" 
 />
    <glyph glyph-name="exclamdown" unicode="&#xa1;" horiz-adv-x="306" 
d="M218 -183h-129v186c0 54.667 2 105.167 6 151.5s9.33301 92.833 16 139.5h86c6 -46.667 11 -93 15 -139s6 -96.667 6 -152v-186zM233 444c0 -23.333 -7.66699 -42.5 -23 -57.5s-34.333 -22.5 -57 -22.5c-22 0 -40.833 7.5 -56.5 22.5s-23.5 34.167 -23.5 57.5
s7.83301 42.333 23.5 57s34.5 22 56.5 22c22.667 0 41.667 -7.33301 57 -22s23 -33.667 23 -57z" />
    <glyph glyph-name="cent" unicode="&#xa2;" horiz-adv-x="568" 
d="M252 36c-62.667 14 -109.332 44.167 -139.999 90.5s-46 101.5 -46 165.5c0 30.667 4.16699 60 12.5 88s20.5 53.167 36.5 75.5s35.5 41.333 58.5 57s49.167 27.167 78.5 34.5v145h113v-137c35.333 -2.66699 69.666 -10.667 102.999 -24l-27 -98
c-14 5.33301 -29.667 10 -47 14s-36.333 6 -57 6c-47.333 0 -83.5 -14 -108.5 -42s-37.5 -67.667 -37.5 -119c0 -50 11.833 -89.167 35.5 -117.5s62.834 -42.5 117.501 -42.5c21.333 0 42.166 2 62.499 6s37.833 9 52.5 15l17 -99c-11.333 -5.33301 -27 -10.333 -47 -15
s-41.333 -8 -64 -10v-138h-113v145z" />
    <glyph glyph-name="sterling" unicode="&#xa3;" horiz-adv-x="568" 
d="M259 383l177.999 -0.000976562v-98h-178c0 -28.667 -1.16699 -59.167 -3.5 -91.5s-5.83301 -62.833 -10.5 -91.5h275v-102h-410c20 102 30 197 30 285h-90v98h90v66c0 50.667 5.66699 92.5 17 125.5s27 59.167 47 78.5s44 33 72 41s58.667 12 92 12
c28 0 52.833 -2.66699 74.5 -8s42.5 -12.333 62.5 -21l-30 -98c-31.333 14.667 -65.666 22.334 -102.999 23.001c-17.333 0 -33 -2.16699 -47 -6.5s-25.833 -12 -35.5 -23s-17.167 -26 -22.5 -45s-8 -42.833 -8 -71.5v-73z" />
    <glyph glyph-name="currency" unicode="&#xa4;" horiz-adv-x="568" 
d="M284 541c36.667 0 69.334 -7.66602 98.001 -22.999l75 73l75 -75l-73 -71c16.667 -27.333 25 -60 25 -98c0 -38.667 -8.33301 -71.334 -25 -98.001l73 -72l-76 -75l-74 73c-28.667 -15.333 -61.334 -23 -98.001 -23c-37.333 0 -70.333 7.66699 -99 23l-74 -72l-76 74
l73 71c-16.667 27.333 -25 60.333 -25 99c0 38 8.33301 70.667 25 98l-73 71l76 75l74 -73c28.667 15.333 61.667 23 99 23zM284 241.001c27.333 0 50.833 9.16699 70.5 27.5s29.5 44.5 29.5 78.5c0 33.333 -9.83301 59.166 -29.5 77.499s-43.167 27.5 -70.5 27.5
c-28 0 -51.667 -9.16699 -71 -27.5s-29 -44.166 -29 -77.499c0 -34 9.66699 -60.167 29 -78.5s43 -27.5 71 -27.5z" />
    <glyph glyph-name="yen" unicode="&#xa5;" horiz-adv-x="568" 
d="M500 108h-154.999v-108h-121v108h-155v85h155v84h-155v85h118c-32 54.667 -63.833 111 -95.5 169s-59.834 112 -84.501 162h136c22.667 -49.333 45.667 -98.5 69 -147.5s48.333 -96.5 75 -142.5c25.333 46 49.333 93.667 72 143s45 98.333 67 147h135
c-28 -54 -56.5 -108.5 -85.5 -163.5s-60.5 -110.833 -94.5 -167.5h119v-85h-155v-84h155v-85z" />
    <glyph glyph-name="brokenbar" unicode="&#xa6;" horiz-adv-x="300" 
d="M93 205h114v-390h-114v390zM93 783h114v-390h-114v390z" />
    <glyph glyph-name="section" unicode="&#xa7;" horiz-adv-x="509" 
d="M70 26c25.333 -10.667 51.6699 -19.0039 79.0029 -25.0039s55.666 -9 84.999 -9c10 0 20.667 0.666992 32 2s21.833 4 31.5 8s17.667 9.5 24 16.5s9.5 16.167 9.5 27.5c0 17.333 -7.66699 31.333 -23 42s-42.333 23 -81 37c-25.333 8.66699 -49 17.834 -71 27.501
s-41.333 21.334 -58 35.001s-29.834 30.167 -39.501 49.5s-14.5 43 -14.5 71c0 16.667 2.33301 32 7 46s11 26.833 19 38.5s17 22.334 27 32.001s20 18.5 30 26.5c-16 13.333 -28.5 28.333 -37.5 45s-13.5 35.334 -13.5 56.001c0 48.667 17.5 87 52.5 115
s84.833 42 149.5 42c32 0 63.5 -3.33301 94.5 -10s57.167 -14 78.5 -22l-29 -99c-18.667 7.33301 -39.5 14.166 -62.5 20.499s-50.5 9.5 -82.5 9.5c-25.333 0 -45.5 -4.16699 -60.5 -12.5s-22.5 -20.833 -22.5 -37.5c0 -18.667 7 -33.167 21 -43.5s38 -21.166 72 -32.499
c26.667 -9.33301 51.167 -18.833 73.5 -28.5s41.666 -21.5 57.999 -35.5s29 -30.5 38 -49.5s13.5 -41.833 13.5 -68.5c0 -32 -8 -58.833 -24 -80.5s-34.667 -40.5 -56 -56.5c40.667 -29.333 61 -67.666 61 -114.999c0 -30.667 -6 -56 -18 -76s-28.167 -36 -48.5 -48
s-43.5 -20.5 -69.5 -25.5s-53 -7.5 -81 -7.5c-42 0 -79.833 4.16699 -113.5 12.5s-60.5 17.166 -80.5 26.499zM204.004 400.996c-15.333 -11.333 -27.6631 -24.0029 -36.9961 -38.0029s-14 -29 -14 -45c0 -27.333 11.167 -48.166 33.5 -62.499s52.5 -27.833 90.5 -40.5
l30 -11c15.333 11.333 27.666 24 36.999 38s14 29 14 45c0 16.667 -3.83301 30.334 -11.5 41.001s-18.334 20 -32.001 28s-29.834 15.333 -48.501 22s-39.334 14.334 -62.001 23.001z" />
    <glyph glyph-name="dieresis" unicode="&#xa8;" horiz-adv-x="405" 
d="M99 609c-18 0 -33.667 6 -47 18s-20 28.333 -20 49s6.66699 37.167 20 49.5s29 18.5 47 18.5s33.833 -6.16699 47.5 -18.5s20.5 -28.833 20.5 -49.5s-6.83301 -37 -20.5 -49s-29.5 -18 -47.5 -18zM306 609c-18 0 -33.833 6 -47.5 18s-20.5 28.333 -20.5 49
s6.83301 37.167 20.5 49.5s29.5 18.5 47.5 18.5s33.667 -6.16699 47 -18.5s20 -28.833 20 -49.5s-6.66699 -37 -20 -49s-29 -18 -47 -18z" />
    <glyph glyph-name="copyright" unicode="&#xa9;" horiz-adv-x="814" 
d="M752 347c0 -57.333 -9.33301 -108.333 -28 -153s-43.834 -82.5 -75.501 -113.5s-68.334 -54.667 -110.001 -71s-85.5 -24.5 -131.5 -24.5c-45.333 0 -88.833 8.16699 -130.5 24.5s-78.334 40 -110.001 71s-57 68.833 -76 113.5s-28.5 95.667 -28.5 153
c0 56.667 9.5 107.5 28.5 152.5s44.333 83 76 114s68.334 54.667 110.001 71s85.167 24.5 130.5 24.5c46 0 89.833 -8.16699 131.5 -24.5s78.334 -40 110.001 -71s56.834 -69 75.501 -114s28 -95.833 28 -152.5zM665 347c0 42 -6.33301 80.167 -19 114.5
s-30.5 63.833 -53.5 88.5s-50.167 43.667 -81.5 57s-66 20 -104 20s-72.667 -6.66699 -104 -20s-58.333 -32.333 -81 -57s-40.334 -54.167 -53.001 -88.5s-19 -72.5 -19 -114.5s6.33301 -80.333 19 -115s30.334 -64.334 53.001 -89.001s49.667 -43.667 81 -57
s66 -20 104 -20s72.667 6.66699 104 20s58.5 32.333 81.5 57s40.833 54.334 53.5 89.001s19 73 19 115zM421 150c-58.667 0 -104.504 17.165 -137.504 51.498s-49.5 83.166 -49.5 146.499c0 30.667 4.66699 58.334 14 83.001s22.333 45.334 39 62.001
s36.334 29.5 59.001 38.5s47.334 13.5 74.001 13.5c33.333 0 60.333 -4.5 81 -13.5s34.334 -15.5 41.001 -19.5l-28 -74c-8.66699 5.33301 -20.167 10.5 -34.5 15.5s-32.166 7.5 -53.499 7.5c-28 0 -51 -9.5 -69 -28.5s-27 -46.5 -27 -82.5c0 -16 1.83301 -31.167 5.5 -45.5
s9.33398 -26.666 17.001 -36.999s17.667 -18.5 30 -24.5s27.166 -9 44.499 -9c23.333 0 42.5 2.5 57.5 7.5s27.5 9.83301 37.5 14.5l24 -76c-8 -4 -23 -10 -45 -18s-48.667 -12 -80 -12z" />
    <glyph glyph-name="ordfeminine" unicode="&#xaa;" horiz-adv-x="402" 
d="M126 437c0 -10 2.50098 -18 7.50098 -24s11.667 -10.5 20 -13.5s17.666 -5 27.999 -6s20.833 -1.5 31.5 -1.5c11.333 0 21.5 0.333008 30.5 1s15.833 1.66699 20.5 3v88c-6 1.33301 -13.833 2.5 -23.5 3.5s-19.167 1.5 -28.5 1.5c-8 0 -17 -0.5 -27 -1.5
s-19.333 -3.33301 -28 -7s-16 -9 -22 -16s-9 -16.167 -9 -27.5zM194.001 707c29.333 0 54.167 -3.5 74.5 -10.5s36.666 -16.833 48.999 -29.5s21.166 -28 26.499 -46s8 -38 8 -60v-227c-15.333 -3.33301 -37 -6.83301 -65 -10.5s-58.667 -5.5 -92 -5.5
c-48 0 -86.667 9.16699 -116 27.5s-44 49.833 -44 94.5c0 22 4.33301 40.333 13 55s20.5 26.5 35.5 35.5s32.333 15.5 52 19.5s40.5 6 62.5 6c11.333 0 22.5 -0.5 33.5 -1.5s21.833 -2.16699 32.5 -3.5v6c0 19.333 -5.33301 36 -16 50s-31.334 21 -62.001 21
c-17.333 0 -35.166 -1.16699 -53.499 -3.5s-34.166 -5.83301 -47.499 -10.5l-13 76c12.667 4 30.334 7.83301 53.001 11.5s45.667 5.5 69 5.5z" />
    <glyph glyph-name="guillemotleft" unicode="&#xab;" horiz-adv-x="552" 
d="M515 97l-89 -44l-160 231l160 230l89 -44l-106 -186zM276 97l-89 -44l-160 231l160 230l89 -44l-106 -186z" />
    <glyph glyph-name="logicalnot" unicode="&#xac;" horiz-adv-x="568" 
d="M516 47h-108v248h-356v102h464v-350z" />
    <glyph glyph-name="uni00AD" unicode="&#xad;" horiz-adv-x="315" 
d="M23 341h269v-111h-269v111z" />
    <glyph glyph-name="registered" unicode="&#xae;" horiz-adv-x="814" 
d="M752 347c0 -57.333 -9.33301 -108.333 -28 -153s-43.834 -82.5 -75.501 -113.5s-68.334 -54.667 -110.001 -71s-85.5 -24.5 -131.5 -24.5c-45.333 0 -88.833 8.16699 -130.5 24.5s-78.334 40 -110.001 71s-57 68.833 -76 113.5s-28.5 95.667 -28.5 153
c0 56.667 9.5 107.5 28.5 152.5s44.333 83 76 114s68.334 54.667 110.001 71s85.167 24.5 130.5 24.5c46 0 89.833 -8.16699 131.5 -24.5s78.334 -40 110.001 -71s56.834 -69 75.501 -114s28 -95.833 28 -152.5zM665 347c0 42 -6.33301 80.167 -19 114.5
s-30.5 63.833 -53.5 88.5s-50.167 43.667 -81.5 57s-66 20 -104 20s-72.667 -6.66699 -104 -20s-58.333 -32.333 -81 -57s-40.334 -54.167 -53.001 -88.5s-19 -72.5 -19 -114.5s6.33301 -80.333 19 -115s30.334 -64.334 53.001 -89.001s49.667 -43.667 81 -57
s66 -20 104 -20s72.667 6.66699 104 20s58.5 32.333 81.5 57s40.833 54.334 53.5 89.001s19 73 19 115zM487 162c-13.333 28 -26.665 53.498 -39.998 76.498s-26 42.167 -38 57.5h-54v-134h-84v365c20.667 5.33301 41 9 61 11s37.667 3 53 3
c55.333 0 97.166 -10.333 125.499 -31s42.5 -52 42.5 -94c0 -22.667 -5.5 -42.5 -16.5 -59.5s-26.833 -30.167 -47.5 -39.5c13.333 -19.333 27.666 -41.666 42.999 -66.999s30.333 -54.666 45 -87.999h-90zM355.001 363.998l28 -0.000976562c26 0 46.667 3.5 62 10.5
s23 21.167 23 42.5c0 18.667 -7.16699 31.834 -21.5 39.501s-32.5 11.5 -54.5 11.5h-17.5c-5.66699 0 -12.167 -0.666992 -19.5 -2v-102z" />
    <glyph glyph-name="macron" unicode="&#xaf;" horiz-adv-x="389" 
d="M346 718v-87h-303v87h303z" />
    <glyph glyph-name="degree" unicode="&#xb0;" horiz-adv-x="347" 
d="M173 778c20 0 39.167 -3.33301 57.5 -10s34.5 -16.334 48.5 -29.001s25 -28.167 33 -46.5s12 -38.833 12 -61.5s-4 -43.167 -12 -61.5s-19 -33.833 -33 -46.5s-30.167 -22.334 -48.5 -29.001s-37.5 -10 -57.5 -10s-39 3.33301 -57 10s-34 16.334 -48 29.001
s-25 28.167 -33 46.5s-12 38.833 -12 61.5s4 43.167 12 61.5s19 33.833 33 46.5s30 22.334 48 29.001s37 10 57 10zM173 565c17.333 0 32.333 5.83301 45 17.5s19 27.834 19 48.501s-6.33301 37 -19 49s-27.667 18 -45 18s-32.333 -6 -45 -18s-19 -28.333 -19 -49
s6.33301 -36.834 19 -48.501s27.667 -17.5 45 -17.5z" />
    <glyph glyph-name="plusminus" unicode="&#xb1;" horiz-adv-x="568" 
d="M52 437h178v185h108v-185h178v-102h-178v-186h-108v186h-178v102zM52 102h464v-102h-464v102z" />
    <glyph glyph-name="twosuperior" unicode="&#xb2;" 
d="M309 592c0 -14 -2.50293 -27.002 -7.50293 -39.002s-12.167 -24 -21.5 -36s-20.833 -24.333 -34.5 -37s-29.5 -27 -47.5 -43c-10 -8.66699 -19.5 -17.667 -28.5 -27s-15.167 -17.666 -18.5 -24.999h171v-77h-277c-0.666992 12.667 -0.666992 24.334 0 35.001
c2.66699 32 13.167 59.667 31.5 83s41.833 47 70.5 71c20 17.333 36.333 33 49 47s19 28 19 42c0 13.333 -4.16699 23.5 -12.5 30.5s-20.166 10.5 -35.499 10.5c-21.333 0 -40.166 -4.5 -56.499 -13.5s-29.166 -17.167 -38.499 -24.5l-44 64c14 13.333 33.5 26 58.5 38
s52.5 18 82.5 18c49.333 0 85 -10.5 107 -31.5s33 -49.5 33 -85.5z" />
    <glyph glyph-name="threesuperior" unicode="&#xb3;" 
d="M154 378c30 0 50.4971 4.49707 61.4971 13.4971s16.5 20.5 16.5 34.5c0 18.667 -8.5 32 -25.5 40s-38.5 12 -64.5 12h-30v70h33c17.333 0 33.333 3.33301 48 10s22 18 22 34c0 26 -18.333 39 -55 39c-17.333 0 -33.5 -2.83301 -48.5 -8.5s-28.833 -11.5 -41.5 -17.5
l-32 67c13.333 9.33301 32 17.833 56 25.5s47.667 11.5 71 11.5c25.333 0 46.833 -2.83301 64.5 -8.5s32 -13.5 43 -23.5s18.833 -21.667 23.5 -35s7 -27.333 7 -42c0 -30.667 -16.333 -56.667 -49 -78c22.667 -9.33301 39.834 -22.333 51.501 -39s17.5 -36 17.5 -58
c0 -17.333 -3 -33.666 -9 -48.999s-15.667 -28.666 -29 -39.999s-30.666 -20.166 -51.999 -26.499s-47.333 -9.5 -78 -9.5c-21.333 0 -43.666 2.5 -66.999 7.5s-42 10.833 -56 17.5l19 75c19.333 -7.33301 36.833 -12.833 52.5 -16.5s32.5 -5.5 50.5 -5.5z" />
    <glyph glyph-name="acute" unicode="&#xb4;" horiz-adv-x="392" 
d="M316 737l-163 -158l-60 54l147 175z" />
    <glyph glyph-name="mu" unicode="&#xb5;" horiz-adv-x="591" 
d="M198 523l0.000976562 -280c0 -28.667 2.16699 -52.5 6.5 -71.5s11 -34.333 20 -46s20.5 -20 34.5 -25s30.667 -7.5 50 -7.5c15.333 0 31.166 0.666992 47.499 2s28.5 3 36.5 5v423h121v-507c-24 -6 -53.5 -12 -88.5 -18s-72.833 -9 -113.5 -9
c-27.333 0 -50.833 2.83301 -70.5 8.5s-36.167 13.5 -49.5 23.5c2 -16 3.33301 -32.833 4 -50.5s1 -38.167 1 -61.5v-85h-120v699h121z" />
    <glyph glyph-name="paragraph" unicode="&#xb6;" horiz-adv-x="683" 
d="M267 260c-74.667 8.66699 -131.168 30.167 -169.501 64.5s-57.5 85.166 -57.5 152.499c0 72.667 29 128 87 166s138.333 57 241 57c34.667 0 71.834 -1.66699 111.501 -5s75.167 -8.66602 106.5 -15.999v-864h-109v781c-7.33301 1.33301 -17 2.33301 -29 3
s-22.667 1 -32 1h-20.5c-7 0 -13.167 -0.333008 -18.5 -1v-784h-110v445z" />
    <glyph glyph-name="periodcentered" unicode="&#xb7;" horiz-adv-x="210" 
d="M186 294c0 -23.333 -7.83301 -42.333 -23.5 -57s-34.5 -22 -56.5 -22c-22.667 0 -41.667 7.33301 -57 22s-23 33.667 -23 57s7.66699 42.5 23 57.5s34.333 22.5 57 22.5c22 0 40.833 -7.5 56.5 -22.5s23.5 -34.167 23.5 -57.5z" />
    <glyph glyph-name="cedilla" unicode="&#xb8;" horiz-adv-x="390" 
d="M214 -39c21.333 -10 36.166 -21.333 44.499 -34s12.5 -28.334 12.5 -47.001c0 -23.333 -10 -43.333 -30 -60s-50 -25 -90 -25c-32 0 -60.333 4.33301 -85 13l14 72c6.66699 -2 15.334 -4.33301 26.001 -7s21.667 -4 33 -4s20.166 2 26.499 6s9.5 10 9.5 18
c0 10.667 -4.66699 18.5 -14 23.5s-18.666 9.16699 -27.999 12.5l-10 3c2 6.66699 5 14.334 9 23.001l12 26c4 8.66699 7.66699 16.5 11 23.5s6 12.167 8 15.5h80c-4 -7.33301 -9 -17 -15 -29s-10.667 -22 -14 -30z" />
    <glyph glyph-name="onesuperior" unicode="&#xb9;" 
d="M47 619c26.667 10 52.668 22 78.001 36s47.333 29.333 66 46h68v-393h-92v282c-13.333 -8 -28.333 -15.5 -45 -22.5s-33.334 -13.167 -50.001 -18.5l-25 70v0z" />
    <glyph glyph-name="ordmasculine" unicode="&#xba;" horiz-adv-x="455" 
d="M415 512c0 -30 -4.66699 -57 -14 -81s-22.166 -44.5 -38.499 -61.5s-36 -30 -59 -39s-48.167 -13.5 -75.5 -13.5s-52.5 4.5 -75.5 13.5s-42.833 22 -59.5 39s-29.667 37.5 -39 61.5s-14 51 -14 81s4.66699 57.167 14 81.5s22.333 45 39 62s36.5 30 59.5 39
s48.167 13.5 75.5 13.5s52.5 -4.5 75.5 -13.5s42.667 -22 59 -39s29.166 -37.667 38.499 -62s14 -51.5 14 -81.5zM321 512c0 34.667 -8 62.167 -24 82.5s-39 30.5 -69 30.5s-53.167 -10.167 -69.5 -30.5s-24.5 -47.833 -24.5 -82.5c0 -34 8.16699 -61.167 24.5 -81.5
s39.5 -30.5 69.5 -30.5s53 10.167 69 30.5s24 47.5 24 81.5z" />
    <glyph glyph-name="guillemotright" unicode="&#xbb;" horiz-adv-x="552" 
d="M143 284l-106 186l89 44l160 -230l-160 -231l-89 44zM382 284l-106 186l89 44l160 -230l-160 -231l-89 44z" />
    <glyph glyph-name="onequarter" unicode="&#xbc;" horiz-adv-x="878" 
d="M677 693l-373 -693h-113l374 693h112zM36 619c26.667 10 52.668 22 78.001 36s47.333 29.333 66 46h68v-393h-92v282c-13.333 -8 -28.333 -15.5 -45 -22.5s-33.334 -13.167 -50.001 -18.5l-25 70v0zM728.001 299c-17.333 -19.333 -35 -41 -53 -65
s-33.667 -48.333 -47 -73h100v138zM809.001 161l48.002 0.00292969v-71h-48v-89h-81v89h-190v59c11.333 20 24.166 40.667 38.499 62s29.666 42.666 45.999 63.999s33.333 42.166 51 62.499s35.5 39.166 53.5 56.499h82v-233z" />
    <glyph glyph-name="onehalf" unicode="&#xbd;" horiz-adv-x="878" 
d="M652 693l-373 -693h-113l374 693h112zM36 619c26.667 10 52.668 22 78.001 36s47.333 29.333 66 46h68v-393h-92v282c-13.333 -8 -28.333 -15.5 -45 -22.5s-33.334 -13.167 -50.001 -18.5l-25 70v0zM820.001 285c0 -14 -2.50293 -27.002 -7.50293 -39.002
s-12.167 -24 -21.5 -36s-20.833 -24.333 -34.5 -37s-29.5 -27 -47.5 -43c-10 -8.66699 -19.5 -17.667 -28.5 -27s-15.167 -17.666 -18.5 -24.999h171v-77h-277c-0.666992 12.667 -0.666992 24.334 0 35.001c2.66699 32 13.167 59.667 31.5 83s41.833 47 70.5 71
c20 17.333 36.333 33 49 47s19 28 19 42c0 13.333 -4.16699 23.5 -12.5 30.5s-20.166 10.5 -35.499 10.5c-21.333 0 -40.166 -4.5 -56.499 -13.5s-29.166 -17.167 -38.499 -24.5l-44 64c14 13.333 33.5 26 58.5 38s52.5 18 82.5 18c49.333 0 85 -10.5 107 -31.5
s33 -49.5 33 -85.5z" />
    <glyph glyph-name="threequarters" unicode="&#xbe;" horiz-adv-x="878" 
d="M695 693l-373 -693h-113l374 693h112zM728 299c-17.333 -19.333 -35 -41 -53 -65s-33.667 -48.333 -47 -73h100v138zM809 161l48.002 0.00292969v-71h-48v-89h-81v89h-190v59c11.333 20 24.166 40.667 38.499 62s29.666 42.666 45.999 63.999s33.333 42.166 51 62.499
s35.5 39.166 53.5 56.499h82v-233zM151.002 378.003c30 0 50.4971 4.49707 61.4971 13.4971s16.5 20.5 16.5 34.5c0 18.667 -8.5 32 -25.5 40s-38.5 12 -64.5 12h-30v70h33c17.333 0 33.333 3.33301 48 10s22 18 22 34c0 26 -18.333 39 -55 39
c-17.333 0 -33.5 -2.83301 -48.5 -8.5s-28.833 -11.5 -41.5 -17.5l-32 67c13.333 9.33301 32 17.833 56 25.5s47.667 11.5 71 11.5c25.333 0 46.833 -2.83301 64.5 -8.5s32 -13.5 43 -23.5s18.833 -21.667 23.5 -35s7 -27.333 7 -42c0 -30.667 -16.333 -56.667 -49 -78
c22.667 -9.33301 39.834 -22.333 51.501 -39s17.5 -36 17.5 -58c0 -17.333 -3 -33.666 -9 -48.999s-15.667 -28.666 -29 -39.999s-30.666 -20.166 -51.999 -26.499s-47.333 -9.5 -78 -9.5c-21.333 0 -43.666 2.5 -66.999 7.5s-42 10.833 -56 17.5l19 75
c19.333 -7.33301 36.833 -12.833 52.5 -16.5s32.5 -5.5 50.5 -5.5z" />
    <glyph glyph-name="questiondown" unicode="&#xbf;" horiz-adv-x="424" 
d="M240 -96c23.333 0 45.665 2.83594 66.998 8.50293s43.666 14.834 66.999 27.501l34 -93c-24.667 -14 -52.834 -25.167 -84.501 -33.5s-64.167 -12.5 -97.5 -12.5c-40 0 -73 5.5 -99 16.5s-46.667 24.833 -62 41.5s-26 35 -32 55s-9 39.333 -9 58
c0 22.667 4.16699 43 12.5 61s18.833 34.667 31.5 50s26.334 29.833 41.001 43.5s28.334 27.667 41.001 42s23.167 29.5 31.5 45.5s12.5 34 12.5 54v11.5c0 4.33301 -0.333008 8.5 -1 12.5h104c1.33301 -6.66699 2.33301 -13.834 3 -21.501s1 -14.834 1 -21.501
c0 -22 -3.66699 -41.667 -11 -59s-16.666 -33.333 -27.999 -48s-23.5 -28.334 -36.5 -41.001s-25.167 -25.334 -36.5 -38.001s-20.666 -25.667 -27.999 -39s-11 -28 -11 -44c0 -22 7.5 -40.167 22.5 -54.5s37.5 -21.5 67.5 -21.5zM161.999 444.003
c0 23.333 7.66699 42.333 23 57s34.333 22 57 22c22 0 40.833 -7.33301 56.5 -22s23.5 -33.667 23.5 -57s-7.83301 -42.5 -23.5 -57.5s-34.5 -22.5 -56.5 -22.5c-22.667 0 -41.667 7.5 -57 22.5s-23 34.167 -23 57.5z" />
    <glyph glyph-name="Agrave" unicode="&#xc0;" horiz-adv-x="684" 
d="M543 0c-9.33301 27.333 -18.999 54.333 -28.999 81s-19.667 54 -29 82h-292c-9.33301 -28 -18.833 -55.5 -28.5 -82.5s-19.167 -53.833 -28.5 -80.5h-131c26 74 50.667 142.333 74 205s46.166 122 68.499 178s44.5 109.333 66.5 160s44.667 100.667 68 150h119
c23.333 -49.333 46 -99.333 68 -150s44.167 -104 66.5 -160s45.333 -115.333 69 -178s48.5 -131 74.5 -205h-136zM339.001 559c-15.333 -35.333 -32.833 -78.332 -52.5 -128.999s-40.167 -105.667 -61.5 -165h228c-21.333 59.333 -42 114.666 -62 165.999
s-37.333 94 -52 128zM262.001 970.001l145 -175l-60 -54l-162 159z" />
    <glyph glyph-name="Aacute" unicode="&#xc1;" horiz-adv-x="684" 
d="M543 0c-9.33301 27.333 -18.999 54.333 -28.999 81s-19.667 54 -29 82h-292c-9.33301 -28 -18.833 -55.5 -28.5 -82.5s-19.167 -53.833 -28.5 -80.5h-131c26 74 50.667 142.333 74 205s46.166 122 68.499 178s44.5 109.333 66.5 160s44.667 100.667 68 150h119
c23.333 -49.333 46 -99.333 68 -150s44.167 -104 66.5 -160s45.333 -115.333 69 -178s48.5 -131 74.5 -205h-136zM339.001 559c-15.333 -35.333 -32.833 -78.332 -52.5 -128.999s-40.167 -105.667 -61.5 -165h228c-21.333 59.333 -42 114.666 -62 165.999
s-37.333 94 -52 128zM501.001 899.001l-163 -158l-60 54l147 175z" />
    <glyph glyph-name="Acircumflex" unicode="&#xc2;" horiz-adv-x="684" 
d="M543 0c-9.33301 27.333 -18.999 54.333 -28.999 81s-19.667 54 -29 82h-292c-9.33301 -28 -18.833 -55.5 -28.5 -82.5s-19.167 -53.833 -28.5 -80.5h-131c26 74 50.667 142.333 74 205s46.166 122 68.499 178s44.5 109.333 66.5 160s44.667 100.667 68 150h119
c23.333 -49.333 46 -99.333 68 -150s44.167 -104 66.5 -160s45.333 -115.333 69 -178s48.5 -131 74.5 -205h-136zM339.001 559c-15.333 -35.333 -32.833 -78.332 -52.5 -128.999s-40.167 -105.667 -61.5 -165h228c-21.333 59.333 -42 114.666 -62 165.999
s-37.333 94 -52 128zM487.001 796.001l-47 -53l-99 81l-98 -81l-48 53l146 140z" />
    <glyph glyph-name="Atilde" unicode="&#xc3;" horiz-adv-x="684" 
d="M543 0c-9.33301 27.333 -18.999 54.333 -28.999 81s-19.667 54 -29 82h-292c-9.33301 -28 -18.833 -55.5 -28.5 -82.5s-19.167 -53.833 -28.5 -80.5h-131c26 74 50.667 142.333 74 205s46.166 122 68.499 178s44.5 109.333 66.5 160s44.667 100.667 68 150h119
c23.333 -49.333 46 -99.333 68 -150s44.167 -104 66.5 -160s45.333 -115.333 69 -178s48.5 -131 74.5 -205h-136zM339.001 559c-15.333 -35.333 -32.833 -78.332 -52.5 -128.999s-40.167 -105.667 -61.5 -165h228c-21.333 59.333 -42 114.666 -62 165.999
s-37.333 94 -52 128zM502.501 838.501c-6.33301 -11 -14.166 -21.335 -23.499 -31.002s-20 -17.834 -32 -24.501s-25.333 -10 -40 -10c-12 0 -23.333 1.83301 -34 5.5s-21.167 7.83398 -31.5 12.501s-20.333 8.83398 -30 12.501s-19.167 5.5 -28.5 5.5
c-12.667 0 -23.5 -4.33301 -32.5 -13s-16.167 -18.667 -21.5 -30l-61 36c3.33301 9.33301 8.16602 19.5 14.499 30.5s14.333 21.333 24 31s20.5 17.834 32.5 24.501s25.333 10 40 10c12 0 23.333 -2 34 -6s21.167 -8.16699 31.5 -12.5s20.333 -8.5 30 -12.5
s19.167 -6 28.5 -6c12.667 0 23.5 4.5 32.5 13.5s16.167 19.167 21.5 30.5l61 -36c-4 -9.33301 -9.16699 -19.5 -15.5 -30.5z" />
    <glyph glyph-name="Adieresis" unicode="&#xc4;" horiz-adv-x="684" 
d="M543 0c-9.33301 27.333 -18.999 54.333 -28.999 81s-19.667 54 -29 82h-292c-9.33301 -28 -18.833 -55.5 -28.5 -82.5s-19.167 -53.833 -28.5 -80.5h-131c26 74 50.667 142.333 74 205s46.166 122 68.499 178s44.5 109.333 66.5 160s44.667 100.667 68 150h119
c23.333 -49.333 46 -99.333 68 -150s44.167 -104 66.5 -160s45.333 -115.333 69 -178s48.5 -131 74.5 -205h-136zM339.001 559c-15.333 -35.333 -32.833 -78.332 -52.5 -128.999s-40.167 -105.667 -61.5 -165h228c-21.333 59.333 -42 114.666 -62 165.999
s-37.333 94 -52 128zM234.001 767.001c-18 0 -33.667 6 -47 18s-20 28.333 -20 49s6.66699 37.167 20 49.5s29 18.5 47 18.5s33.833 -6.16699 47.5 -18.5s20.5 -28.833 20.5 -49.5s-6.83301 -37 -20.5 -49s-29.5 -18 -47.5 -18zM441.001 767.001c-18 0 -33.833 6 -47.5 18
s-20.5 28.333 -20.5 49s6.83301 37.167 20.5 49.5s29.5 18.5 47.5 18.5s33.667 -6.16699 47 -18.5s20 -28.833 20 -49.5s-6.66699 -37 -20 -49s-29 -18 -47 -18z" />
    <glyph glyph-name="Aring" unicode="&#xc5;" horiz-adv-x="684" 
d="M452 752c0 -19.333 -3.49707 -36 -10.4971 -50s-16.5 -25.667 -28.5 -35c22 -47.333 43.5 -95.5 64.5 -144.5s42.333 -100.5 64 -154.5s43.667 -111.167 66 -171.5s46.166 -125.833 71.499 -196.5h-136c-9.33301 27.333 -19 54.333 -29 81s-19.667 54 -29 82h-292
c-9.33301 -28 -18.833 -55.5 -28.5 -82.5s-19.167 -53.833 -28.5 -80.5h-131c24.667 70.667 48.167 136.167 70.5 196.5s44.166 117.5 65.499 171.5s42.5 105.5 63.5 154.5s42.5 97.167 64.5 144.5c-11.333 9.33301 -20.5 21 -27.5 35s-10.5 30.667 -10.5 50
c0 16.667 3 31.834 9 45.501s14 25 24 34s21.667 16 35 21s27.333 7.5 42 7.5s28.667 -2.5 42 -7.5s25.166 -12 35.499 -21s18.5 -20.333 24.5 -34s9 -28.834 9 -45.501zM339.003 559c-15.333 -35.333 -32.833 -78.332 -52.5 -128.999s-40.167 -105.667 -61.5 -165h228
c-21.333 59.333 -42 114.666 -62 165.999s-37.333 94 -52 128zM392.003 752.001c0 16.667 -5 29.834 -15 39.501s-22 14.5 -36 14.5c-13.333 0 -25 -4.83301 -35 -14.5s-15 -22.834 -15 -39.501c0 -17.333 5 -30.666 15 -39.999s21.667 -14 35 -14c14 0 26 4.66699 36 14
s15 22.666 15 39.999z" />
    <glyph glyph-name="AE" unicode="&#xc6;" horiz-adv-x="957" 
d="M478 171h-247c-15.333 -28 -31 -56.5 -47 -85.5s-30.667 -57.5 -44 -85.5h-137c78.667 144.667 152.667 273.5 222 386.5s136.333 215.167 201 306.5h473v-106h-298v-173h263v-103h-263v-205h322v-106h-445v171zM478 579c-14 -20 -28.999 -42 -44.999 -66
s-32.333 -49.333 -49 -76s-33.334 -54 -50.001 -82s-33 -55.667 -49 -83h193v307z" />
    <glyph glyph-name="Ccedilla" unicode="&#xc7;" horiz-adv-x="638" 
d="M401 -39c21.333 -10 36.1719 -21.333 44.5049 -34s12.5 -28.334 12.5 -47.001c0 -23.333 -10 -43.333 -30 -60s-50 -25 -90 -25c-32 0 -60.333 4.33301 -85 13l14 72c6.66699 -2 15.334 -4.33301 26.001 -7s21.667 -4 33 -4s20.166 2 26.499 6s9.5 10 9.5 18
c0 10.667 -4.66699 18.5 -14 23.5s-18.666 9.16699 -27.999 12.5l-10 3c2.66699 8 6.16699 17.167 10.5 27.5s8.83301 20.166 13.5 29.499c-87.333 10.667 -155.333 46.667 -204 108s-73 144.666 -73 249.999c0 58 8.83301 109.333 26.5 154s41.834 82.5 72.501 113.5
s66.667 54.5 108 70.5s85.666 24 132.999 24c28.667 0 54.667 -2.16699 78 -6.5s43.666 -9.16602 60.999 -14.499s31.666 -11 42.999 -17s19.333 -10.333 24 -13l-37 -103c-16 10 -38.833 19.5 -68.5 28.5s-61.834 13.5 -96.501 13.5c-30 0 -58 -5.16699 -84 -15.5
s-48.5 -25.833 -67.5 -46.5s-33.833 -46.667 -44.5 -78s-16 -67.666 -16 -108.999c0 -36.667 4.16699 -70.334 12.5 -101.001s21.166 -57.167 38.499 -79.5s39.333 -39.666 66 -51.999s58.667 -18.5 96 -18.5c44.667 0 81 4.5 109 13.5s49.667 17.5 65 25.5l34 -103
c-14.667 -9.33301 -39.334 -19.166 -74.001 -29.499s-76 -16.5 -124 -18.5c-2.66699 -4.66699 -4.83398 -9 -6.50098 -13s-3.16699 -7.66699 -4.5 -11z" />
    <glyph glyph-name="Egrave" unicode="&#xc8;" horiz-adv-x="586" 
d="M83 0v693h445v-107h-319v-171h284v-105h-284v-203h343v-107h-469zM234 970l145 -175l-60 -54l-162 159z" />
    <glyph glyph-name="Eacute" unicode="&#xc9;" horiz-adv-x="586" 
d="M83 0v693h445v-107h-319v-171h284v-105h-284v-203h343v-107h-469zM479 899l-163 -158l-60 54l147 175z" />
    <glyph glyph-name="Ecircumflex" unicode="&#xca;" horiz-adv-x="586" 
d="M83 0v693h445v-107h-319v-171h284v-105h-284v-203h343v-107h-469zM452 796l-47 -53l-99 81l-98 -81l-48 53l146 140z" />
    <glyph glyph-name="Edieresis" unicode="&#xcb;" horiz-adv-x="586" 
d="M83 0v693h445v-107h-319v-171h284v-105h-284v-203h343v-107h-469zM200 767c-18 0 -33.667 6 -47 18s-20 28.333 -20 49s6.66699 37.167 20 49.5s29 18.5 47 18.5s33.833 -6.16699 47.5 -18.5s20.5 -28.833 20.5 -49.5s-6.83301 -37 -20.5 -49s-29.5 -18 -47.5 -18z
M407 767c-18 0 -33.833 6 -47.5 18s-20.5 28.333 -20.5 49s6.83301 37.167 20.5 49.5s29.5 18.5 47.5 18.5s33.667 -6.16699 47 -18.5s20 -28.833 20 -49.5s-6.66699 -37 -20 -49s-29 -18 -47 -18z" />
    <glyph glyph-name="Igrave" unicode="&#xcc;" horiz-adv-x="292" 
d="M83 693h126v-693h-126v693zM64 970l145 -175l-60 -54l-162 159z" />
    <glyph glyph-name="Iacute" unicode="&#xcd;" horiz-adv-x="292" 
d="M83 693h126v-693h-126v693zM309 899l-163 -158l-60 54l147 175z" />
    <glyph glyph-name="Icircumflex" unicode="&#xce;" horiz-adv-x="292" 
d="M83 693h126v-693h-126v693zM293 796l-47 -53l-99 81l-98 -81l-48 53l146 140z" />
    <glyph glyph-name="Idieresis" unicode="&#xcf;" horiz-adv-x="292" 
d="M83 693h126v-693h-126v693zM44 767c-18 0 -33.667 6 -47 18s-20 28.333 -20 49s6.66699 37.167 20 49.5s29 18.5 47 18.5s33.833 -6.16699 47.5 -18.5s20.5 -28.833 20.5 -49.5s-6.83301 -37 -20.5 -49s-29.5 -18 -47.5 -18zM251 767c-18 0 -33.833 6 -47.5 18
s-20.5 28.333 -20.5 49s6.83301 37.167 20.5 49.5s29.5 18.5 47.5 18.5s33.667 -6.16699 47 -18.5s20 -28.833 20 -49.5s-6.66699 -37 -20 -49s-29 -18 -47 -18z" />
    <glyph glyph-name="Eth" unicode="&#xd0;" horiz-adv-x="740" 
d="M16 408h80.999v275c32 7.33301 66 12 102 14s68 3 96 3c58 0 111 -6.83301 159 -20.5s89.167 -35 123.5 -64s60.833 -65.667 79.5 -110s28 -97.166 28 -158.499c0 -60 -9.33301 -112.167 -28 -156.5s-45.167 -81.333 -79.5 -111s-75.666 -51.667 -123.999 -66
s-101.833 -21.5 -160.5 -21.5c-28 0 -59.667 1.16699 -95 3.5s-69 7.16602 -101 14.499v303h-81v95zM222.999 408h127.999v-95h-128v-209c7.33301 -0.666992 17 -1.16699 29 -1.5s28.333 -0.5 49 -0.5c84.667 0 147.834 21.5 189.501 64.5s62.5 103.167 62.5 180.5
c0 78.667 -20.333 139 -61 181s-103.667 63 -189 63c-37.333 0 -64 -1 -80 -3v-180z" />
    <glyph glyph-name="Ntilde" unicode="&#xd1;" horiz-adv-x="740" 
d="M550 0c-22.667 38 -48.001 78.832 -76.001 122.499s-57 87.667 -87 132s-60.5 87.333 -91.5 129s-60.5 79.167 -88.5 112.5v-496h-124v693h103c26.667 -28 55.334 -61.167 86.001 -99.5s61.5 -78.166 92.5 -119.499s61 -82.833 90 -124.5s54.833 -80.5 77.5 -116.5v460
h125v-693h-107zM530.499 838.499c-6.33301 -11 -14.166 -21.335 -23.499 -31.002s-20 -17.834 -32 -24.501s-25.333 -10 -40 -10c-12 0 -23.333 1.83301 -34 5.5s-21.167 7.83398 -31.5 12.501s-20.333 8.83398 -30 12.501s-19.167 5.5 -28.5 5.5
c-12.667 0 -23.5 -4.33301 -32.5 -13s-16.167 -18.667 -21.5 -30l-61 36c3.33301 9.33301 8.16602 19.5 14.499 30.5s14.333 21.333 24 31s20.5 17.834 32.5 24.501s25.333 10 40 10c12 0 23.333 -2 34 -6s21.167 -8.16699 31.5 -12.5s20.333 -8.5 30 -12.5
s19.167 -6 28.5 -6c12.667 0 23.5 4.5 32.5 13.5s16.167 19.167 21.5 30.5l61 -36c-4 -9.33301 -9.16699 -19.5 -15.5 -30.5z" />
    <glyph glyph-name="Ograve" unicode="&#xd2;" horiz-adv-x="782" 
d="M186 347c0 -38 4.66699 -72.5 14 -103.5s22.833 -57.333 40.5 -79s39.167 -38.5 64.5 -50.5s54 -18 86 -18c31.333 0 59.666 6 84.999 18s46.833 28.833 64.5 50.5s31.167 48 40.5 79s14 65.5 14 103.5s-4.66699 72.5 -14 103.5s-22.833 57.333 -40.5 79
s-39.167 38.5 -64.5 50.5s-53.666 18 -84.999 18c-32 0 -60.667 -6 -86 -18s-46.833 -29 -64.5 -51s-31.167 -48.333 -40.5 -79s-14 -65 -14 -103zM727 347c0 -59.333 -8.83301 -111.666 -26.5 -156.999s-41.667 -83.166 -72 -113.499s-65.833 -53.166 -106.5 -68.499
s-84 -23 -130 -23s-89.5 7.66699 -130.5 23s-76.667 38.166 -107 68.499s-54.5 68.166 -72.5 113.499s-27 97.666 -27 156.999s9 111.5 27 156.5s42.5 82.833 73.5 113.5s66.833 53.667 107.5 69s83.667 23 129 23s88.333 -7.66699 129 -23s76.167 -38.333 106.5 -69
s54.5 -68.5 72.5 -113.5s27 -97.167 27 -156.5zM308 970l145 -175l-60 -54l-162 159z" />
    <glyph glyph-name="Oacute" unicode="&#xd3;" horiz-adv-x="782" 
d="M186 347c0 -38 4.66699 -72.5 14 -103.5s22.833 -57.333 40.5 -79s39.167 -38.5 64.5 -50.5s54 -18 86 -18c31.333 0 59.666 6 84.999 18s46.833 28.833 64.5 50.5s31.167 48 40.5 79s14 65.5 14 103.5s-4.66699 72.5 -14 103.5s-22.833 57.333 -40.5 79
s-39.167 38.5 -64.5 50.5s-53.666 18 -84.999 18c-32 0 -60.667 -6 -86 -18s-46.833 -29 -64.5 -51s-31.167 -48.333 -40.5 -79s-14 -65 -14 -103zM727 347c0 -59.333 -8.83301 -111.666 -26.5 -156.999s-41.667 -83.166 -72 -113.499s-65.833 -53.166 -106.5 -68.499
s-84 -23 -130 -23s-89.5 7.66699 -130.5 23s-76.667 38.166 -107 68.499s-54.5 68.166 -72.5 113.499s-27 97.666 -27 156.999s9 111.5 27 156.5s42.5 82.833 73.5 113.5s66.833 53.667 107.5 69s83.667 23 129 23s88.333 -7.66699 129 -23s76.167 -38.333 106.5 -69
s54.5 -68.5 72.5 -113.5s27 -97.167 27 -156.5zM549 899l-163 -158l-60 54l147 175z" />
    <glyph glyph-name="Ocircumflex" unicode="&#xd4;" horiz-adv-x="782" 
d="M186 347c0 -38 4.66699 -72.5 14 -103.5s22.833 -57.333 40.5 -79s39.167 -38.5 64.5 -50.5s54 -18 86 -18c31.333 0 59.666 6 84.999 18s46.833 28.833 64.5 50.5s31.167 48 40.5 79s14 65.5 14 103.5s-4.66699 72.5 -14 103.5s-22.833 57.333 -40.5 79
s-39.167 38.5 -64.5 50.5s-53.666 18 -84.999 18c-32 0 -60.667 -6 -86 -18s-46.833 -29 -64.5 -51s-31.167 -48.333 -40.5 -79s-14 -65 -14 -103zM727 347c0 -59.333 -8.83301 -111.666 -26.5 -156.999s-41.667 -83.166 -72 -113.499s-65.833 -53.166 -106.5 -68.499
s-84 -23 -130 -23s-89.5 7.66699 -130.5 23s-76.667 38.166 -107 68.499s-54.5 68.166 -72.5 113.499s-27 97.666 -27 156.999s9 111.5 27 156.5s42.5 82.833 73.5 113.5s66.833 53.667 107.5 69s83.667 23 129 23s88.333 -7.66699 129 -23s76.167 -38.333 106.5 -69
s54.5 -68.5 72.5 -113.5s27 -97.167 27 -156.5zM537 796l-47 -53l-99 81l-98 -81l-48 53l146 140z" />
    <glyph glyph-name="Otilde" unicode="&#xd5;" horiz-adv-x="782" 
d="M186 347c0 -38 4.66699 -72.5 14 -103.5s22.833 -57.333 40.5 -79s39.167 -38.5 64.5 -50.5s54 -18 86 -18c31.333 0 59.666 6 84.999 18s46.833 28.833 64.5 50.5s31.167 48 40.5 79s14 65.5 14 103.5s-4.66699 72.5 -14 103.5s-22.833 57.333 -40.5 79
s-39.167 38.5 -64.5 50.5s-53.666 18 -84.999 18c-32 0 -60.667 -6 -86 -18s-46.833 -29 -64.5 -51s-31.167 -48.333 -40.5 -79s-14 -65 -14 -103zM727 347c0 -59.333 -8.83301 -111.666 -26.5 -156.999s-41.667 -83.166 -72 -113.499s-65.833 -53.166 -106.5 -68.499
s-84 -23 -130 -23s-89.5 7.66699 -130.5 23s-76.667 38.166 -107 68.499s-54.5 68.166 -72.5 113.499s-27 97.666 -27 156.999s9 111.5 27 156.5s42.5 82.833 73.5 113.5s66.833 53.667 107.5 69s83.667 23 129 23s88.333 -7.66699 129 -23s76.167 -38.333 106.5 -69
s54.5 -68.5 72.5 -113.5s27 -97.167 27 -156.5zM551.5 838.5c-6.33301 -11 -14.166 -21.335 -23.499 -31.002s-20 -17.834 -32 -24.501s-25.333 -10 -40 -10c-12 0 -23.333 1.83301 -34 5.5s-21.167 7.83398 -31.5 12.501s-20.333 8.83398 -30 12.501s-19.167 5.5 -28.5 5.5
c-12.667 0 -23.5 -4.33301 -32.5 -13s-16.167 -18.667 -21.5 -30l-61 36c3.33301 9.33301 8.16602 19.5 14.499 30.5s14.333 21.333 24 31s20.5 17.834 32.5 24.501s25.333 10 40 10c12 0 23.333 -2 34 -6s21.167 -8.16699 31.5 -12.5s20.333 -8.5 30 -12.5
s19.167 -6 28.5 -6c12.667 0 23.5 4.5 32.5 13.5s16.167 19.167 21.5 30.5l61 -36c-4 -9.33301 -9.16699 -19.5 -15.5 -30.5z" />
    <glyph glyph-name="Odieresis" unicode="&#xd6;" horiz-adv-x="782" 
d="M186 347c0 -38 4.66699 -72.5 14 -103.5s22.833 -57.333 40.5 -79s39.167 -38.5 64.5 -50.5s54 -18 86 -18c31.333 0 59.666 6 84.999 18s46.833 28.833 64.5 50.5s31.167 48 40.5 79s14 65.5 14 103.5s-4.66699 72.5 -14 103.5s-22.833 57.333 -40.5 79
s-39.167 38.5 -64.5 50.5s-53.666 18 -84.999 18c-32 0 -60.667 -6 -86 -18s-46.833 -29 -64.5 -51s-31.167 -48.333 -40.5 -79s-14 -65 -14 -103zM727 347c0 -59.333 -8.83301 -111.666 -26.5 -156.999s-41.667 -83.166 -72 -113.499s-65.833 -53.166 -106.5 -68.499
s-84 -23 -130 -23s-89.5 7.66699 -130.5 23s-76.667 38.166 -107 68.499s-54.5 68.166 -72.5 113.499s-27 97.666 -27 156.999s9 111.5 27 156.5s42.5 82.833 73.5 113.5s66.833 53.667 107.5 69s83.667 23 129 23s88.333 -7.66699 129 -23s76.167 -38.333 106.5 -69
s54.5 -68.5 72.5 -113.5s27 -97.167 27 -156.5zM284 767c-18 0 -33.667 6 -47 18s-20 28.333 -20 49s6.66699 37.167 20 49.5s29 18.5 47 18.5s33.833 -6.16699 47.5 -18.5s20.5 -28.833 20.5 -49.5s-6.83301 -37 -20.5 -49s-29.5 -18 -47.5 -18zM491 767
c-18 0 -33.833 6 -47.5 18s-20.5 28.333 -20.5 49s6.83301 37.167 20.5 49.5s29.5 18.5 47.5 18.5s33.667 -6.16699 47 -18.5s20 -28.833 20 -49.5s-6.66699 -37 -20 -49s-29 -18 -47 -18z" />
    <glyph glyph-name="multiply" unicode="&#xd7;" horiz-adv-x="568" 
d="M425 507l71 -72l-141 -141l141 -140l-71 -72l-141 141l-141 -141l-71 72l141 140l-141 141l71 72l141 -141z" />
    <glyph glyph-name="Oslash" unicode="&#xd8;" horiz-adv-x="782" 
d="M727 347c0 -59.333 -8.83398 -111.669 -26.501 -157.002s-41.667 -83.166 -72 -113.499s-65.833 -53.166 -106.5 -68.499s-84 -23 -130 -23c-34 0 -66.667 4.16699 -98 12.5s-60.333 20.833 -87 37.5l-58 -76l-73 55l62 80c-26 30 -46.333 66.167 -61 108.5
s-22 90.5 -22 144.5c0 59.333 9 111.5 27 156.5s42.5 82.833 73.5 113.5s66.833 53.667 107.5 69s83.667 23 129 23c33.333 0 65.333 -4.16699 96 -12.5s59.334 -20.833 86.001 -37.5l58 75l74 -55l-62 -80c25.333 -30 45.5 -66 60.5 -108s22.5 -90 22.5 -144z
M185.999 346.997c0 -58 10.667 -107.333 32 -148l283 366c-31.333 22 -68 33 -110 33c-32 0 -60.667 -6 -86 -18s-46.833 -29 -64.5 -51s-31.167 -48.333 -40.5 -79s-14 -65 -14 -103zM594.999 346.997c0 28.667 -2.83203 55.333 -8.49902 80s-13.5 47 -23.5 67l-283 -366
c30.667 -21.333 67.667 -32 111 -32c31.333 0 59.666 6 84.999 18s46.833 28.833 64.5 50.5s31.167 48 40.5 79s14 65.5 14 103.5z" />
    <glyph glyph-name="Ugrave" unicode="&#xd9;" horiz-adv-x="703" 
d="M350 -15c-47.333 0 -88 6.83301 -122 20.5s-62.167 32.834 -84.5 57.501s-38.833 53.667 -49.5 87s-16 70 -16 110v433h127v-421c0 -31.333 3.5 -58.166 10.5 -80.499s17 -40.5 30 -54.5s28.333 -24.333 46 -31s37.5 -10 59.5 -10s42 3.33301 60 10s33.5 17 46.5 31
s23 32.167 30 54.5s10.5 49.166 10.5 80.499v421h127v-433c0 -40 -5.5 -76.667 -16.5 -110s-27.667 -62.333 -50 -87s-50.833 -43.834 -85.5 -57.501s-75.667 -20.5 -123 -20.5zM258 970l145 -175l-60 -54l-162 159z" />
    <glyph glyph-name="Uacute" unicode="&#xda;" horiz-adv-x="703" 
d="M350 -15c-47.333 0 -88 6.83301 -122 20.5s-62.167 32.834 -84.5 57.501s-38.833 53.667 -49.5 87s-16 70 -16 110v433h127v-421c0 -31.333 3.5 -58.166 10.5 -80.499s17 -40.5 30 -54.5s28.333 -24.333 46 -31s37.5 -10 59.5 -10s42 3.33301 60 10s33.5 17 46.5 31
s23 32.167 30 54.5s10.5 49.166 10.5 80.499v421h127v-433c0 -40 -5.5 -76.667 -16.5 -110s-27.667 -62.333 -50 -87s-50.833 -43.834 -85.5 -57.501s-75.667 -20.5 -123 -20.5zM519 899l-163 -158l-60 54l147 175z" />
    <glyph glyph-name="Ucircumflex" unicode="&#xdb;" horiz-adv-x="703" 
d="M350 -15c-47.333 0 -88 6.83301 -122 20.5s-62.167 32.834 -84.5 57.501s-38.833 53.667 -49.5 87s-16 70 -16 110v433h127v-421c0 -31.333 3.5 -58.166 10.5 -80.499s17 -40.5 30 -54.5s28.333 -24.333 46 -31s37.5 -10 59.5 -10s42 3.33301 60 10s33.5 17 46.5 31
s23 32.167 30 54.5s10.5 49.166 10.5 80.499v421h127v-433c0 -40 -5.5 -76.667 -16.5 -110s-27.667 -62.333 -50 -87s-50.833 -43.834 -85.5 -57.501s-75.667 -20.5 -123 -20.5zM497 796l-47 -53l-99 81l-98 -81l-48 53l146 140z" />
    <glyph glyph-name="Udieresis" unicode="&#xdc;" horiz-adv-x="703" 
d="M350 -15c-47.333 0 -88 6.83301 -122 20.5s-62.167 32.834 -84.5 57.501s-38.833 53.667 -49.5 87s-16 70 -16 110v433h127v-421c0 -31.333 3.5 -58.166 10.5 -80.499s17 -40.5 30 -54.5s28.333 -24.333 46 -31s37.5 -10 59.5 -10s42 3.33301 60 10s33.5 17 46.5 31
s23 32.167 30 54.5s10.5 49.166 10.5 80.499v421h127v-433c0 -40 -5.5 -76.667 -16.5 -110s-27.667 -62.333 -50 -87s-50.833 -43.834 -85.5 -57.501s-75.667 -20.5 -123 -20.5zM248 767c-18 0 -33.667 6 -47 18s-20 28.333 -20 49s6.66699 37.167 20 49.5s29 18.5 47 18.5
s33.833 -6.16699 47.5 -18.5s20.5 -28.833 20.5 -49.5s-6.83301 -37 -20.5 -49s-29.5 -18 -47.5 -18zM455 767c-18 0 -33.833 6 -47.5 18s-20.5 28.333 -20.5 49s6.83301 37.167 20.5 49.5s29.5 18.5 47.5 18.5s33.667 -6.16699 47 -18.5s20 -28.833 20 -49.5
s-6.66699 -37 -20 -49s-29 -18 -47 -18z" />
    <glyph glyph-name="Yacute" unicode="&#xdd;" horiz-adv-x="625" 
d="M316 386c30 50 59.332 100.669 87.999 152.002s54.667 103 78 155h140c-37.333 -70.667 -76.166 -140.834 -116.499 -210.501s-83.5 -139.834 -129.5 -210.501v-272h-126v270c-46 71.333 -89.333 142 -130 212s-79.667 140.333 -117 211h148
c23.333 -52 49 -103.667 77 -155s57.333 -102 88 -152zM462.999 899.002l-163 -158l-60 54l147 175z" />
    <glyph glyph-name="Thorn" unicode="&#xde;" horiz-adv-x="628" 
d="M286 589c96 0 170.998 -18 224.998 -54s81 -93.333 81 -172c0 -40.667 -7.16699 -75.5 -21.5 -104.5s-35.166 -52.667 -62.499 -71s-60.666 -31.666 -99.999 -39.999s-84.333 -12.5 -135 -12.5h-63v-135h-126v693h126v-107c12 1.33301 24.833 2.16602 38.5 2.49902
s26.167 0.5 37.5 0.5zM278.998 481c-15.333 0 -29.333 -0.169922 -42 -0.50293s-21.667 -0.833008 -27 -1.5v-238h61c30 0 56.833 1.83301 80.5 5.5s43.5 10.334 59.5 20.001s28.167 22.334 36.5 38.001s12.5 35.5 12.5 59.5c0 22.667 -4.33301 41.667 -13 57
s-21 27.333 -37 36s-35.167 14.834 -57.5 18.501s-46.833 5.5 -73.5 5.5z" />
    <glyph glyph-name="germandbls" unicode="&#xdf;" horiz-adv-x="634" 
d="M515 613c0 -30 -5.33789 -54.6631 -16.0049 -73.9961s-23 -36.666 -37 -51.999c-15.333 -17.333 -28.666 -32.5 -39.999 -45.5s-17 -28.167 -17 -45.5c0 -10 2.5 -18.667 7.5 -26s11.667 -14 20 -20s18 -11.833 29 -17.5s22.167 -11.5 33.5 -17.5
c14.667 -8 28.667 -16.667 42 -26s25 -20.166 35 -32.499s17.833 -26.5 23.5 -42.5s8.5 -34.667 8.5 -56c0 -54 -15.667 -95.833 -47 -125.5s-81.666 -44.5 -150.999 -44.5c-22.667 0 -46.5 2.33301 -71.5 7s-49.167 11.667 -72.5 21l21 100
c5.33301 -2 12.333 -4.66699 21 -8s18.334 -6.5 29.001 -9.5s21.834 -5.5 33.501 -7.5s23.167 -3 34.5 -3c28 0 48.667 6 62 18s20 28.667 20 50s-8.16699 39.5 -24.5 54.5s-41.166 30.167 -74.499 45.5c-20.667 9.33301 -37.5 18.833 -50.5 28.5s-23 19.5 -30 29.5
s-11.833 20.5 -14.5 31.5s-4 22.5 -4 34.5c0 26.667 6.83301 49.667 20.5 69s28.834 38 45.501 56c12 13.333 23 27.166 33 41.499s15 30.166 15 47.499c0 26 -7.83301 45.667 -23.5 59s-38.167 20 -67.5 20c-38.667 0 -67 -11.333 -85 -34s-27 -54.334 -27 -95.001v-544
h-119v543c0 34.667 4.66699 66.167 14 94.5s23.333 52.833 42 73.5s42.167 36.667 70.5 48s61.166 17 98.499 17s69.5 -4.33301 96.5 -13s49.167 -20.334 66.5 -35.001s30 -31.834 38 -51.501s12 -40.834 12 -63.501z" />
    <glyph glyph-name="agrave" unicode="&#xe0;" horiz-adv-x="534" 
d="M261 85c37.333 0 65.668 2.00098 85.001 6.00098v134c-6.66699 2 -16.334 4 -29.001 6s-26.667 3 -42 3c-13.333 0 -26.833 -1 -40.5 -3s-26 -5.66699 -37 -11s-19.833 -12.833 -26.5 -22.5s-10 -21.834 -10 -36.501c0 -28.667 9 -48.5 27 -59.5s42.333 -16.5 73 -16.5z
M251.002 536.001c40 0 73.6689 -4.99707 101.002 -14.9971s49.166 -24 65.499 -42s28 -39.833 35 -65.5s10.5 -53.834 10.5 -84.501v-317c-18.667 -4 -46.834 -8.83301 -84.501 -14.5s-80.167 -8.5 -127.5 -8.5c-31.333 0 -60 3 -86 9s-48.167 15.667 -66.5 29
s-32.666 30.666 -42.999 51.999s-15.5 47.666 -15.5 78.999c0 30 5.83301 55.333 17.5 76s27.5 37.5 47.5 50.5s43.167 22.333 69.5 28s53.833 8.5 82.5 8.5c13.333 0 27.333 -0.833008 42 -2.5s30.334 -4.5 47.001 -8.5v20c0 14 -1.66699 27.333 -5 40
s-9.16602 23.834 -17.499 33.501s-19.333 17.167 -33 22.5s-30.834 8 -51.501 8c-28 0 -53.667 -2 -77 -6s-42.333 -8.66699 -57 -14l-15 98c15.333 5.33301 37.666 10.666 66.999 15.999s60.666 8 93.999 8zM199.004 808.004l145 -175l-60 -54l-162 159z" />
    <glyph glyph-name="aacute" unicode="&#xe1;" horiz-adv-x="534" 
d="M261 85c37.333 0 65.668 2.00098 85.001 6.00098v134c-6.66699 2 -16.334 4 -29.001 6s-26.667 3 -42 3c-13.333 0 -26.833 -1 -40.5 -3s-26 -5.66699 -37 -11s-19.833 -12.833 -26.5 -22.5s-10 -21.834 -10 -36.501c0 -28.667 9 -48.5 27 -59.5s42.333 -16.5 73 -16.5z
M251.002 536.001c40 0 73.6689 -4.99707 101.002 -14.9971s49.166 -24 65.499 -42s28 -39.833 35 -65.5s10.5 -53.834 10.5 -84.501v-317c-18.667 -4 -46.834 -8.83301 -84.501 -14.5s-80.167 -8.5 -127.5 -8.5c-31.333 0 -60 3 -86 9s-48.167 15.667 -66.5 29
s-32.666 30.666 -42.999 51.999s-15.5 47.666 -15.5 78.999c0 30 5.83301 55.333 17.5 76s27.5 37.5 47.5 50.5s43.167 22.333 69.5 28s53.833 8.5 82.5 8.5c13.333 0 27.333 -0.833008 42 -2.5s30.334 -4.5 47.001 -8.5v20c0 14 -1.66699 27.333 -5 40
s-9.16602 23.834 -17.499 33.501s-19.333 17.167 -33 22.5s-30.834 8 -51.501 8c-28 0 -53.667 -2 -77 -6s-42.333 -8.66699 -57 -14l-15 98c15.333 5.33301 37.666 10.666 66.999 15.999s60.666 8 93.999 8zM402.004 737.004l-163 -158l-60 54l147 175z" />
    <glyph glyph-name="acircumflex" unicode="&#xe2;" horiz-adv-x="534" 
d="M261 85c37.333 0 65.668 2.00098 85.001 6.00098v134c-6.66699 2 -16.334 4 -29.001 6s-26.667 3 -42 3c-13.333 0 -26.833 -1 -40.5 -3s-26 -5.66699 -37 -11s-19.833 -12.833 -26.5 -22.5s-10 -21.834 -10 -36.501c0 -28.667 9 -48.5 27 -59.5s42.333 -16.5 73 -16.5z
M251.002 536.001c40 0 73.6689 -4.99707 101.002 -14.9971s49.166 -24 65.499 -42s28 -39.833 35 -65.5s10.5 -53.834 10.5 -84.501v-317c-18.667 -4 -46.834 -8.83301 -84.501 -14.5s-80.167 -8.5 -127.5 -8.5c-31.333 0 -60 3 -86 9s-48.167 15.667 -66.5 29
s-32.666 30.666 -42.999 51.999s-15.5 47.666 -15.5 78.999c0 30 5.83301 55.333 17.5 76s27.5 37.5 47.5 50.5s43.167 22.333 69.5 28s53.833 8.5 82.5 8.5c13.333 0 27.333 -0.833008 42 -2.5s30.334 -4.5 47.001 -8.5v20c0 14 -1.66699 27.333 -5 40
s-9.16602 23.834 -17.499 33.501s-19.333 17.167 -33 22.5s-30.834 8 -51.501 8c-28 0 -53.667 -2 -77 -6s-42.333 -8.66699 -57 -14l-15 98c15.333 5.33301 37.666 10.666 66.999 15.999s60.666 8 93.999 8zM415.004 635.004l-47 -53l-99 81l-98 -81l-48 53l146 140z" />
    <glyph glyph-name="atilde" unicode="&#xe3;" horiz-adv-x="534" 
d="M261 85c37.333 0 65.668 2.00098 85.001 6.00098v134c-6.66699 2 -16.334 4 -29.001 6s-26.667 3 -42 3c-13.333 0 -26.833 -1 -40.5 -3s-26 -5.66699 -37 -11s-19.833 -12.833 -26.5 -22.5s-10 -21.834 -10 -36.501c0 -28.667 9 -48.5 27 -59.5s42.333 -16.5 73 -16.5z
M251.002 536.001c40 0 73.6689 -4.99707 101.002 -14.9971s49.166 -24 65.499 -42s28 -39.833 35 -65.5s10.5 -53.834 10.5 -84.501v-317c-18.667 -4 -46.834 -8.83301 -84.501 -14.5s-80.167 -8.5 -127.5 -8.5c-31.333 0 -60 3 -86 9s-48.167 15.667 -66.5 29
s-32.666 30.666 -42.999 51.999s-15.5 47.666 -15.5 78.999c0 30 5.83301 55.333 17.5 76s27.5 37.5 47.5 50.5s43.167 22.333 69.5 28s53.833 8.5 82.5 8.5c13.333 0 27.333 -0.833008 42 -2.5s30.334 -4.5 47.001 -8.5v20c0 14 -1.66699 27.333 -5 40
s-9.16602 23.834 -17.499 33.501s-19.333 17.167 -33 22.5s-30.834 8 -51.501 8c-28 0 -53.667 -2 -77 -6s-42.333 -8.66699 -57 -14l-15 98c15.333 5.33301 37.666 10.666 66.999 15.999s60.666 8 93.999 8zM428.504 679.504c-6.33301 -11 -14.166 -21.335 -23.499 -31.002
s-20 -17.834 -32 -24.501s-25.333 -10 -40 -10c-12 0 -23.333 1.83301 -34 5.5s-21.167 7.83398 -31.5 12.501s-20.333 8.83398 -30 12.501s-19.167 5.5 -28.5 5.5c-12.667 0 -23.5 -4.33301 -32.5 -13s-16.167 -18.667 -21.5 -30l-61 36
c3.33301 9.33301 8.16602 19.5 14.499 30.5s14.333 21.333 24 31s20.5 17.834 32.5 24.501s25.333 10 40 10c12 0 23.333 -2 34 -6s21.167 -8.16699 31.5 -12.5s20.333 -8.5 30 -12.5s19.167 -6 28.5 -6c12.667 0 23.5 4.5 32.5 13.5s16.167 19.167 21.5 30.5l61 -36
c-4 -9.33301 -9.16699 -19.5 -15.5 -30.5z" />
    <glyph glyph-name="adieresis" unicode="&#xe4;" horiz-adv-x="534" 
d="M261 85c37.333 0 65.668 2.00098 85.001 6.00098v134c-6.66699 2 -16.334 4 -29.001 6s-26.667 3 -42 3c-13.333 0 -26.833 -1 -40.5 -3s-26 -5.66699 -37 -11s-19.833 -12.833 -26.5 -22.5s-10 -21.834 -10 -36.501c0 -28.667 9 -48.5 27 -59.5s42.333 -16.5 73 -16.5z
M251.002 536.001c40 0 73.6689 -4.99707 101.002 -14.9971s49.166 -24 65.499 -42s28 -39.833 35 -65.5s10.5 -53.834 10.5 -84.501v-317c-18.667 -4 -46.834 -8.83301 -84.501 -14.5s-80.167 -8.5 -127.5 -8.5c-31.333 0 -60 3 -86 9s-48.167 15.667 -66.5 29
s-32.666 30.666 -42.999 51.999s-15.5 47.666 -15.5 78.999c0 30 5.83301 55.333 17.5 76s27.5 37.5 47.5 50.5s43.167 22.333 69.5 28s53.833 8.5 82.5 8.5c13.333 0 27.333 -0.833008 42 -2.5s30.334 -4.5 47.001 -8.5v20c0 14 -1.66699 27.333 -5 40
s-9.16602 23.834 -17.499 33.501s-19.333 17.167 -33 22.5s-30.834 8 -51.501 8c-28 0 -53.667 -2 -77 -6s-42.333 -8.66699 -57 -14l-15 98c15.333 5.33301 37.666 10.666 66.999 15.999s60.666 8 93.999 8zM162.004 609.004c-18 0 -33.667 6 -47 18s-20 28.333 -20 49
s6.66699 37.167 20 49.5s29 18.5 47 18.5s33.833 -6.16699 47.5 -18.5s20.5 -28.833 20.5 -49.5s-6.83301 -37 -20.5 -49s-29.5 -18 -47.5 -18zM369.004 609.004c-18 0 -33.833 6 -47.5 18s-20.5 28.333 -20.5 49s6.83301 37.167 20.5 49.5s29.5 18.5 47.5 18.5
s33.667 -6.16699 47 -18.5s20 -28.833 20 -49.5s-6.66699 -37 -20 -49s-29 -18 -47 -18z" />
    <glyph glyph-name="aring" unicode="&#xe5;" horiz-adv-x="534" 
d="M261 85c37.333 0 65.668 2.00098 85.001 6.00098v134c-6.66699 2 -16.334 4 -29.001 6s-26.667 3 -42 3c-13.333 0 -26.833 -1 -40.5 -3s-26 -5.66699 -37 -11s-19.833 -12.833 -26.5 -22.5s-10 -21.834 -10 -36.501c0 -28.667 9 -48.5 27 -59.5s42.333 -16.5 73 -16.5z
M251.002 536.001c40 0 73.6689 -4.99707 101.002 -14.9971s49.166 -24 65.499 -42s28 -39.833 35 -65.5s10.5 -53.834 10.5 -84.501v-317c-18.667 -4 -46.834 -8.83301 -84.501 -14.5s-80.167 -8.5 -127.5 -8.5c-31.333 0 -60 3 -86 9s-48.167 15.667 -66.5 29
s-32.666 30.666 -42.999 51.999s-15.5 47.666 -15.5 78.999c0 30 5.83301 55.333 17.5 76s27.5 37.5 47.5 50.5s43.167 22.333 69.5 28s53.833 8.5 82.5 8.5c13.333 0 27.333 -0.833008 42 -2.5s30.334 -4.5 47.001 -8.5v20c0 14 -1.66699 27.333 -5 40
s-9.16602 23.834 -17.499 33.501s-19.333 17.167 -33 22.5s-30.834 8 -51.501 8c-28 0 -53.667 -2 -77 -6s-42.333 -8.66699 -57 -14l-15 98c15.333 5.33301 37.666 10.666 66.999 15.999s60.666 8 93.999 8zM381.004 688.004c0 -17.333 -3 -32.666 -9 -45.999
s-14.167 -24.666 -24.5 -33.999s-22.166 -16.5 -35.499 -21.5s-27.333 -7.5 -42 -7.5s-28.667 2.5 -42 7.5s-25 12.167 -35 21.5s-18 20.666 -24 33.999s-9 28.666 -9 45.999c0 16.667 3 31.834 9 45.501s14 25 24 34s21.667 16 35 21s27.333 7.5 42 7.5
s28.667 -2.5 42 -7.5s25.166 -12 35.499 -21s18.5 -20.333 24.5 -34s9 -28.834 9 -45.501zM320.004 688.004c0 16 -5 28.5 -15 37.5s-21.667 13.5 -35 13.5c-12.667 0 -24 -4.5 -34 -13.5s-15 -21.5 -15 -37.5c0 -16.667 5 -29.334 15 -38.001s21.333 -13 34 -13
c13.333 0 25 4.33301 35 13s15 21.334 15 38.001z" />
    <glyph glyph-name="ae" unicode="&#xe6;" horiz-adv-x="869" 
d="M253 536c44 0 79.0049 -6.66602 105.005 -19.999s47 -33.333 63 -60c22.667 28 48.667 48.333 78 61s60.333 19 93 19c70.667 0 126 -22.333 166 -67s60 -111.334 60 -200.001c0 -8 -0.333008 -15.667 -1 -23s-1 -14.666 -1 -21.999h-345
c3.33301 -42 18.166 -74.5 44.499 -97.5s64.166 -34.5 113.499 -34.5c30 0 57.167 2.66699 81.5 8s43.5 11 57.5 17l16 -99c-6.66699 -3.33301 -15.834 -6.83301 -27.501 -10.5s-25 -7 -40 -10s-31.333 -5.5 -49 -7.5s-35.5 -3 -53.5 -3
c-38.667 0 -72.334 4.66699 -101.001 14s-53.667 22.333 -75 39c-26 -16.667 -54.5 -29.5 -85.5 -38.5s-64.167 -13.5 -99.5 -13.5c-32 0 -61.167 3.16699 -87.5 9.5s-48.833 16.333 -67.5 30s-33 31.167 -43 52.5s-15 47.333 -15 78c0 30 6 55.333 18 76
s28.333 37.5 49 50.5s44.167 22.333 70.5 28s54.166 8.5 83.499 8.5c18.667 0 36.667 -1.33301 54 -4s29.666 -5 36.999 -7v22c0 14 -1.83301 27.333 -5.5 40s-9.66699 23.5 -18 32.5s-19.666 16.167 -33.999 21.5s-31.833 8 -52.5 8c-28 0 -53.833 -2 -77.5 -6
s-43.167 -8.66699 -58.5 -14l-15 98c15.333 5.33301 37.833 10.666 67.5 15.999s61.167 8 94.5 8zM267.005 85.001c28 0 51.166 2.50293 69.499 7.50293s33.166 10.833 44.499 17.5c-9.33301 21.333 -16.166 41.166 -20.499 59.499s-7.16602 37.166 -8.49902 56.499
c-8.66699 2 -19.5 3.83301 -32.5 5.5s-26.5 2.5 -40.5 2.5s-28 -1 -42 -3s-26.667 -5.66699 -38 -11s-20.5 -12.833 -27.5 -22.5s-10.5 -21.834 -10.5 -36.501c0 -28.667 9.33301 -48.5 28 -59.5s44.667 -16.5 78 -16.5zM697.004 313.004c0 16.667 -2.33301 32.5 -7 47.5
s-11.5 28 -20.5 39s-20 19.667 -33 26s-28.5 9.5 -46.5 9.5c-18.667 0 -35 -3.5 -49 -10.5s-25.833 -16.167 -35.5 -27.5s-17.167 -24.333 -22.5 -39s-9 -29.667 -11 -45h225z" />
    <glyph glyph-name="ccedilla" unicode="&#xe7;" horiz-adv-x="472" 
d="M317 -39c21.333 -10 36.1641 -21.334 44.4971 -34.001s12.5 -28.334 12.5 -47.001c0 -23.333 -10 -43.333 -30 -60s-50 -25 -90 -25c-32 0 -60.333 4.33301 -85 13l14 72c6.66699 -2 15.334 -4.33301 26.001 -7s21.667 -4 33 -4s20.166 2 26.499 6s9.5 10 9.5 18
c0 10.667 -4.66699 18.5 -14 23.5s-18.666 9.16699 -27.999 12.5l-10 3c2.66699 8.66699 6.33398 18.5 11.001 29.5s9.33398 21.167 14.001 30.5c-34.667 6 -64.667 16.667 -90 32s-46.333 34.833 -63 58.5s-29.167 50.5 -37.5 80.5s-12.5 62.667 -12.5 98
c0 38.667 6 74.834 18 108.501s29.167 62.834 51.5 87.501s49.5 44 81.5 58s68 21 108 21c49.333 0 96 -9 140 -27l-26 -99c-14 6 -29.833 11 -47.5 15s-36.5 6 -56.5 6c-47.333 0 -83.333 -14.833 -108 -44.5s-37 -71.5 -37 -125.5c0 -52 11.667 -93.167 35 -123.5
s62.666 -45.5 117.999 -45.5c20.667 0 41 2 61 6s37.333 9 52 15l17 -100c-12 -6 -29.667 -11.333 -53 -16s-47.666 -7.66699 -72.999 -9c-2.66699 -5.33301 -5 -10.333 -7 -15s-3.66699 -8.66699 -5 -12z" />
    <glyph glyph-name="egrave" unicode="&#xe8;" horiz-adv-x="571" 
d="M48 259c0 46 6.83496 86.334 20.502 121.001s31.834 63.5 54.501 86.5s48.667 40.333 78 52s59.333 17.5 90 17.5c72 0 128.167 -22.333 168.5 -67s60.5 -111.334 60.5 -200.001c0 -6.66699 -0.166992 -14.167 -0.5 -22.5s-0.833008 -15.833 -1.5 -22.5h-345
c3.33301 -42 18.166 -74.5 44.499 -97.5s64.5 -34.5 114.5 -34.5c29.333 0 56.166 2.66699 80.499 8s43.5 11 57.5 17l16 -99c-6.66699 -3.33301 -15.834 -6.83301 -27.501 -10.5s-25 -7 -40 -10s-31.167 -5.5 -48.5 -7.5s-35 -3 -53 -3c-46 0 -86 6.83301 -120 20.5
s-62 32.667 -84 57s-38.333 53 -49 86s-16 69.167 -16 108.5zM399.002 313.001c0 16.667 -2.33301 32.5 -7 47.5s-11.5 28 -20.5 39s-20 19.667 -33 26s-28.5 9.5 -46.5 9.5c-18.667 0 -35 -3.5 -49 -10.5s-25.833 -16.167 -35.5 -27.5s-17.167 -24.333 -22.5 -39
s-9 -29.667 -11 -45h225zM235.002 808.001l145 -175l-60 -54l-162 159z" />
    <glyph glyph-name="eacute" unicode="&#xe9;" horiz-adv-x="571" 
d="M48 259c0 46 6.83496 86.334 20.502 121.001s31.834 63.5 54.501 86.5s48.667 40.333 78 52s59.333 17.5 90 17.5c72 0 128.167 -22.333 168.5 -67s60.5 -111.334 60.5 -200.001c0 -6.66699 -0.166992 -14.167 -0.5 -22.5s-0.833008 -15.833 -1.5 -22.5h-345
c3.33301 -42 18.166 -74.5 44.499 -97.5s64.5 -34.5 114.5 -34.5c29.333 0 56.166 2.66699 80.499 8s43.5 11 57.5 17l16 -99c-6.66699 -3.33301 -15.834 -6.83301 -27.501 -10.5s-25 -7 -40 -10s-31.167 -5.5 -48.5 -7.5s-35 -3 -53 -3c-46 0 -86 6.83301 -120 20.5
s-62 32.667 -84 57s-38.333 53 -49 86s-16 69.167 -16 108.5zM399.002 313.001c0 16.667 -2.33301 32.5 -7 47.5s-11.5 28 -20.5 39s-20 19.667 -33 26s-28.5 9.5 -46.5 9.5c-18.667 0 -35 -3.5 -49 -10.5s-25.833 -16.167 -35.5 -27.5s-17.167 -24.333 -22.5 -39
s-9 -29.667 -11 -45h225zM420.002 737.001l-163 -158l-60 54l147 175z" />
    <glyph glyph-name="ecircumflex" unicode="&#xea;" horiz-adv-x="571" 
d="M48 259c0 46 6.83496 86.334 20.502 121.001s31.834 63.5 54.501 86.5s48.667 40.333 78 52s59.333 17.5 90 17.5c72 0 128.167 -22.333 168.5 -67s60.5 -111.334 60.5 -200.001c0 -6.66699 -0.166992 -14.167 -0.5 -22.5s-0.833008 -15.833 -1.5 -22.5h-345
c3.33301 -42 18.166 -74.5 44.499 -97.5s64.5 -34.5 114.5 -34.5c29.333 0 56.166 2.66699 80.499 8s43.5 11 57.5 17l16 -99c-6.66699 -3.33301 -15.834 -6.83301 -27.501 -10.5s-25 -7 -40 -10s-31.167 -5.5 -48.5 -7.5s-35 -3 -53 -3c-46 0 -86 6.83301 -120 20.5
s-62 32.667 -84 57s-38.333 53 -49 86s-16 69.167 -16 108.5zM399.002 313.001c0 16.667 -2.33301 32.5 -7 47.5s-11.5 28 -20.5 39s-20 19.667 -33 26s-28.5 9.5 -46.5 9.5c-18.667 0 -35 -3.5 -49 -10.5s-25.833 -16.167 -35.5 -27.5s-17.167 -24.333 -22.5 -39
s-9 -29.667 -11 -45h225zM433.002 635.001l-47 -53l-99 81l-98 -81l-48 53l146 140z" />
    <glyph glyph-name="edieresis" unicode="&#xeb;" horiz-adv-x="571" 
d="M48 259c0 46 6.83496 86.334 20.502 121.001s31.834 63.5 54.501 86.5s48.667 40.333 78 52s59.333 17.5 90 17.5c72 0 128.167 -22.333 168.5 -67s60.5 -111.334 60.5 -200.001c0 -6.66699 -0.166992 -14.167 -0.5 -22.5s-0.833008 -15.833 -1.5 -22.5h-345
c3.33301 -42 18.166 -74.5 44.499 -97.5s64.5 -34.5 114.5 -34.5c29.333 0 56.166 2.66699 80.499 8s43.5 11 57.5 17l16 -99c-6.66699 -3.33301 -15.834 -6.83301 -27.501 -10.5s-25 -7 -40 -10s-31.167 -5.5 -48.5 -7.5s-35 -3 -53 -3c-46 0 -86 6.83301 -120 20.5
s-62 32.667 -84 57s-38.333 53 -49 86s-16 69.167 -16 108.5zM399.002 313.001c0 16.667 -2.33301 32.5 -7 47.5s-11.5 28 -20.5 39s-20 19.667 -33 26s-28.5 9.5 -46.5 9.5c-18.667 0 -35 -3.5 -49 -10.5s-25.833 -16.167 -35.5 -27.5s-17.167 -24.333 -22.5 -39
s-9 -29.667 -11 -45h225zM187.002 609.001c-18 0 -33.667 6 -47 18s-20 28.333 -20 49s6.66699 37.167 20 49.5s29 18.5 47 18.5s33.833 -6.16699 47.5 -18.5s20.5 -28.833 20.5 -49.5s-6.83301 -37 -20.5 -49s-29.5 -18 -47.5 -18zM394.002 609.001
c-18 0 -33.833 6 -47.5 18s-20.5 28.333 -20.5 49s6.83301 37.167 20.5 49.5s29.5 18.5 47.5 18.5s33.667 -6.16699 47 -18.5s20 -28.833 20 -49.5s-6.66699 -37 -20 -49s-29 -18 -47 -18z" />
    <glyph glyph-name="igrave" unicode="&#xec;" horiz-adv-x="276" 
d="M199 0h-121v523h121v-523zM72 808l145 -175l-60 -54l-162 159z" />
    <glyph glyph-name="iacute" unicode="&#xed;" horiz-adv-x="276" 
d="M199 0h-121v523h121v-523zM282 737l-163 -158l-60 54l147 175z" />
    <glyph glyph-name="icircumflex" unicode="&#xee;" horiz-adv-x="276" 
d="M199 0h-121v523h121v-523zM285 635l-47 -53l-99 81l-98 -81l-48 53l146 140z" />
    <glyph glyph-name="idieresis" unicode="&#xef;" horiz-adv-x="276" 
d="M199 0h-121v523h121v-523zM39 609c-18 0 -33.667 6 -47 18s-20 28.333 -20 49s6.66699 37.167 20 49.5s29 18.5 47 18.5s33.833 -6.16699 47.5 -18.5s20.5 -28.833 20.5 -49.5s-6.83301 -37 -20.5 -49s-29.5 -18 -47.5 -18zM246 609c-18 0 -33.833 6 -47.5 18
s-20.5 28.333 -20.5 49s6.83301 37.167 20.5 49.5s29.5 18.5 47.5 18.5s33.667 -6.16699 47 -18.5s20 -28.833 20 -49.5s-6.66699 -37 -20 -49s-29 -18 -47 -18z" />
    <glyph glyph-name="eth" unicode="&#xf0;" horiz-adv-x="591" 
d="M469 611c24.667 -44 43.3311 -90.333 55.998 -139s19 -100 19 -154c0 -46.667 -4.5 -90.167 -13.5 -130.5s-23.5 -75.5 -43.5 -105.5s-46.167 -53.5 -78.5 -70.5s-71.833 -25.5 -118.5 -25.5c-40.667 0 -76.167 7 -106.5 21s-55.666 32.667 -75.999 56
s-35.5 50.333 -45.5 81s-15 63 -15 97c0 36.667 5 70 15 100s25 55.667 45 77s44.667 37.833 74 49.5s63 17.5 101 17.5c22 0 44.833 -3.16699 68.5 -9.5s44.5 -14.833 62.5 -25.5c-8 44.667 -24.333 86.334 -49 125.001l-116 -39l-26 74l91 31
c-21.333 23.333 -47.666 46 -78.999 68l71 69c18.667 -11.333 38 -25.333 58 -42s39.333 -36.334 58 -59.001l120 41l26 -73zM420.997 319v10.498c0 5 -0.333008 9.5 -1 13.5c-19.333 16.667 -39.5 27.834 -60.5 33.501s-40.833 8.5 -59.5 8.5
c-24 0 -44.333 -3.66699 -61 -11s-30.167 -17.5 -40.5 -30.5s-17.833 -28.167 -22.5 -45.5s-7 -36 -7 -56c0 -21.333 2.5 -41 7.5 -59s12.5 -33.833 22.5 -47.5s22.667 -24.334 38 -32.001s33 -11.5 53 -11.5c27.333 0 49.5 5.83301 66.5 17.5s30.333 27.834 40 48.501
s16.167 44.834 19.5 72.501s5 57.167 5 88.5z" />
    <glyph glyph-name="ntilde" unicode="&#xf1;" horiz-adv-x="585" 
d="M77 506c23.333 6.66699 53.666 13 90.999 19s78.666 9 123.999 9c42.667 0 78.334 -5.83301 107.001 -17.5s51.5 -28 68.5 -49s29 -46.333 36 -76s10.5 -62.167 10.5 -97.5v-294h-121v275c0 28 -1.83301 51.833 -5.5 71.5s-9.66699 35.667 -18 48
s-19.666 21.333 -33.999 27s-31.833 8.5 -52.5 8.5c-15.333 0 -31.333 -1 -48 -3s-29 -3.66699 -37 -5v-422h-121v506zM454.5 679.5c-6.33301 -11 -14.166 -21.335 -23.499 -31.002s-20 -17.834 -32 -24.501s-25.333 -10 -40 -10c-12 0 -23.333 1.83301 -34 5.5
s-21.167 7.83398 -31.5 12.501s-20.333 8.83398 -30 12.501s-19.167 5.5 -28.5 5.5c-12.667 0 -23.5 -4.33301 -32.5 -13s-16.167 -18.667 -21.5 -30l-61 36c3.33301 9.33301 8.16602 19.5 14.499 30.5s14.333 21.333 24 31s20.5 17.834 32.5 24.501s25.333 10 40 10
c12 0 23.333 -2 34 -6s21.167 -8.16699 31.5 -12.5s20.333 -8.5 30 -12.5s19.167 -6 28.5 -6c12.667 0 23.5 4.5 32.5 13.5s16.167 19.167 21.5 30.5l61 -36c-4 -9.33301 -9.16699 -19.5 -15.5 -30.5z" />
    <glyph glyph-name="ograve" unicode="&#xf2;" horiz-adv-x="598" 
d="M550 262c0 -41.333 -6 -79 -18 -113s-29 -63 -51 -87s-48.5 -42.667 -79.5 -56s-65.167 -20 -102.5 -20s-71.333 6.66699 -102 20s-57 32 -79 56s-39.167 53 -51.5 87s-18.5 71.667 -18.5 113s6.16699 78.833 18.5 112.5s29.666 62.5 51.999 86.5s48.833 42.5 79.5 55.5
s64.334 19.5 101.001 19.5s70.5 -6.5 101.5 -19.5s57.5 -31.5 79.5 -55.5s39.167 -52.833 51.5 -86.5s18.5 -71.167 18.5 -112.5zM426 262c0 52 -11.167 93.167 -33.5 123.5s-53.5 45.5 -93.5 45.5s-71.167 -15.167 -93.5 -45.5s-33.5 -71.5 -33.5 -123.5
c0 -52.667 11.167 -94.334 33.5 -125.001s53.5 -46 93.5 -46s71.167 15.333 93.5 46s33.5 72.334 33.5 125.001zM251 808l145 -175l-60 -54l-162 159z" />
    <glyph glyph-name="oacute" unicode="&#xf3;" horiz-adv-x="598" 
d="M550 262c0 -41.333 -6 -79 -18 -113s-29 -63 -51 -87s-48.5 -42.667 -79.5 -56s-65.167 -20 -102.5 -20s-71.333 6.66699 -102 20s-57 32 -79 56s-39.167 53 -51.5 87s-18.5 71.667 -18.5 113s6.16699 78.833 18.5 112.5s29.666 62.5 51.999 86.5s48.833 42.5 79.5 55.5
s64.334 19.5 101.001 19.5s70.5 -6.5 101.5 -19.5s57.5 -31.5 79.5 -55.5s39.167 -52.833 51.5 -86.5s18.5 -71.167 18.5 -112.5zM426 262c0 52 -11.167 93.167 -33.5 123.5s-53.5 45.5 -93.5 45.5s-71.167 -15.167 -93.5 -45.5s-33.5 -71.5 -33.5 -123.5
c0 -52.667 11.167 -94.334 33.5 -125.001s53.5 -46 93.5 -46s71.167 15.333 93.5 46s33.5 72.334 33.5 125.001zM430 737l-163 -158l-60 54l147 175z" />
    <glyph glyph-name="ocircumflex" unicode="&#xf4;" horiz-adv-x="598" 
d="M550 262c0 -41.333 -6 -79 -18 -113s-29 -63 -51 -87s-48.5 -42.667 -79.5 -56s-65.167 -20 -102.5 -20s-71.333 6.66699 -102 20s-57 32 -79 56s-39.167 53 -51.5 87s-18.5 71.667 -18.5 113s6.16699 78.833 18.5 112.5s29.666 62.5 51.999 86.5s48.833 42.5 79.5 55.5
s64.334 19.5 101.001 19.5s70.5 -6.5 101.5 -19.5s57.5 -31.5 79.5 -55.5s39.167 -52.833 51.5 -86.5s18.5 -71.167 18.5 -112.5zM426 262c0 52 -11.167 93.167 -33.5 123.5s-53.5 45.5 -93.5 45.5s-71.167 -15.167 -93.5 -45.5s-33.5 -71.5 -33.5 -123.5
c0 -52.667 11.167 -94.334 33.5 -125.001s53.5 -46 93.5 -46s71.167 15.333 93.5 46s33.5 72.334 33.5 125.001zM444 635l-47 -53l-99 81l-98 -81l-48 53l146 140z" />
    <glyph glyph-name="otilde" unicode="&#xf5;" horiz-adv-x="598" 
d="M550 262c0 -41.333 -6 -79 -18 -113s-29 -63 -51 -87s-48.5 -42.667 -79.5 -56s-65.167 -20 -102.5 -20s-71.333 6.66699 -102 20s-57 32 -79 56s-39.167 53 -51.5 87s-18.5 71.667 -18.5 113s6.16699 78.833 18.5 112.5s29.666 62.5 51.999 86.5s48.833 42.5 79.5 55.5
s64.334 19.5 101.001 19.5s70.5 -6.5 101.5 -19.5s57.5 -31.5 79.5 -55.5s39.167 -52.833 51.5 -86.5s18.5 -71.167 18.5 -112.5zM426 262c0 52 -11.167 93.167 -33.5 123.5s-53.5 45.5 -93.5 45.5s-71.167 -15.167 -93.5 -45.5s-33.5 -71.5 -33.5 -123.5
c0 -52.667 11.167 -94.334 33.5 -125.001s53.5 -46 93.5 -46s71.167 15.333 93.5 46s33.5 72.334 33.5 125.001zM458.5 679.5c-6.33301 -11 -14.166 -21.335 -23.499 -31.002s-20 -17.834 -32 -24.501s-25.333 -10 -40 -10c-12 0 -23.333 1.83301 -34 5.5
s-21.167 7.83398 -31.5 12.501s-20.333 8.83398 -30 12.501s-19.167 5.5 -28.5 5.5c-12.667 0 -23.5 -4.33301 -32.5 -13s-16.167 -18.667 -21.5 -30l-61 36c3.33301 9.33301 8.16602 19.5 14.499 30.5s14.333 21.333 24 31s20.5 17.834 32.5 24.501s25.333 10 40 10
c12 0 23.333 -2 34 -6s21.167 -8.16699 31.5 -12.5s20.333 -8.5 30 -12.5s19.167 -6 28.5 -6c12.667 0 23.5 4.5 32.5 13.5s16.167 19.167 21.5 30.5l61 -36c-4 -9.33301 -9.16699 -19.5 -15.5 -30.5z" />
    <glyph glyph-name="odieresis" unicode="&#xf6;" horiz-adv-x="598" 
d="M550 262c0 -41.333 -6 -79 -18 -113s-29 -63 -51 -87s-48.5 -42.667 -79.5 -56s-65.167 -20 -102.5 -20s-71.333 6.66699 -102 20s-57 32 -79 56s-39.167 53 -51.5 87s-18.5 71.667 -18.5 113s6.16699 78.833 18.5 112.5s29.666 62.5 51.999 86.5s48.833 42.5 79.5 55.5
s64.334 19.5 101.001 19.5s70.5 -6.5 101.5 -19.5s57.5 -31.5 79.5 -55.5s39.167 -52.833 51.5 -86.5s18.5 -71.167 18.5 -112.5zM426 262c0 52 -11.167 93.167 -33.5 123.5s-53.5 45.5 -93.5 45.5s-71.167 -15.167 -93.5 -45.5s-33.5 -71.5 -33.5 -123.5
c0 -52.667 11.167 -94.334 33.5 -125.001s53.5 -46 93.5 -46s71.167 15.333 93.5 46s33.5 72.334 33.5 125.001zM195 609c-18 0 -33.667 6 -47 18s-20 28.333 -20 49s6.66699 37.167 20 49.5s29 18.5 47 18.5s33.833 -6.16699 47.5 -18.5s20.5 -28.833 20.5 -49.5
s-6.83301 -37 -20.5 -49s-29.5 -18 -47.5 -18zM402 609c-18 0 -33.833 6 -47.5 18s-20.5 28.333 -20.5 49s6.83301 37.167 20.5 49.5s29.5 18.5 47.5 18.5s33.667 -6.16699 47 -18.5s20 -28.833 20 -49.5s-6.66699 -37 -20 -49s-29 -18 -47 -18z" />
    <glyph glyph-name="divide" unicode="&#xf7;" horiz-adv-x="568" 
d="M357 492c0 -23.333 -7.33301 -41.333 -22 -54s-31.667 -19 -51 -19s-36.166 6.33301 -50.499 19s-21.5 30.667 -21.5 54c0 22.667 7.16699 40.334 21.5 53.001s31.166 19 50.499 19s36.333 -6.33301 51 -19s22 -30.334 22 -53.001zM357 96
c0 -22.667 -7.33301 -40.334 -22 -53.001s-31.667 -19 -51 -19s-36.166 6.33301 -50.499 19s-21.5 30.334 -21.5 53.001c0 23.333 7.16699 41.333 21.5 54s31.166 19 50.499 19s36.333 -6.33301 51 -19s22 -30.667 22 -54zM52 345h464v-102h-464v102z" />
    <glyph glyph-name="oslash" unicode="&#xf8;" horiz-adv-x="598" 
d="M550 262c0 -41.333 -6 -79.001 -18 -113.001s-29 -63 -51 -87s-48.5 -42.667 -79.5 -56s-65.167 -20 -102.5 -20c-25.333 0 -49.333 3.33301 -72 10s-43.667 15.667 -63 27l-47 -61l-62 47l51 66c-18.667 24 -33 51.667 -43 83s-15 66 -15 104
c0 41.333 6.16699 78.833 18.5 112.5s29.666 62.5 51.999 86.5s48.833 42.5 79.5 55.5s64.334 19.5 101.001 19.5c50.667 0 95.667 -12.333 135 -37l47 61l61 -46l-51 -66c18.667 -23.333 33.167 -50.666 43.5 -81.999s15.5 -66 15.5 -104zM430 261.999
c0 32.667 -4.66699 62 -14 88l-188 -243c20 -14 43.667 -21 71 -21c42 0 74.333 15.833 97 47.5s34 74.5 34 128.5zM168 261.999c0 -33.333 4.66602 -63 13.999 -89l187 242c-21.333 14 -44.666 21 -69.999 21c-41.333 0 -73.5 -15.5 -96.5 -46.5s-34.5 -73.5 -34.5 -127.5z
" />
    <glyph glyph-name="ugrave" unicode="&#xf9;" horiz-adv-x="583" 
d="M506 16c-23.333 -6 -53.667 -12.167 -91 -18.5s-78.333 -9.5 -123 -9.5c-42 0 -77.167 6 -105.5 18s-51 28.667 -68 50s-29.167 46.833 -36.5 76.5s-11 62.167 -11 97.5v293h121v-274c0 -56 8.16699 -96 24.5 -120s44.833 -36 85.5 -36c14.667 0 30.167 0.666992 46.5 2
s28.5 3 36.5 5v423h121v-507zM224.999 808l145 -175l-60 -54l-162 159z" />
    <glyph glyph-name="uacute" unicode="&#xfa;" horiz-adv-x="583" 
d="M506 16c-23.333 -6 -53.667 -12.167 -91 -18.5s-78.333 -9.5 -123 -9.5c-42 0 -77.167 6 -105.5 18s-51 28.667 -68 50s-29.167 46.833 -36.5 76.5s-11 62.167 -11 97.5v293h121v-274c0 -56 8.16699 -96 24.5 -120s44.833 -36 85.5 -36c14.667 0 30.167 0.666992 46.5 2
s28.5 3 36.5 5v423h121v-507zM428.999 737l-163 -158l-60 54l147 175z" />
    <glyph glyph-name="ucircumflex" unicode="&#xfb;" horiz-adv-x="583" 
d="M506 16c-23.333 -6 -53.667 -12.167 -91 -18.5s-78.333 -9.5 -123 -9.5c-42 0 -77.167 6 -105.5 18s-51 28.667 -68 50s-29.167 46.833 -36.5 76.5s-11 62.167 -11 97.5v293h121v-274c0 -56 8.16699 -96 24.5 -120s44.833 -36 85.5 -36c14.667 0 30.167 0.666992 46.5 2
s28.5 3 36.5 5v423h121v-507zM434.999 635l-47 -53l-99 81l-98 -81l-48 53l146 140z" />
    <glyph glyph-name="udieresis" unicode="&#xfc;" horiz-adv-x="583" 
d="M506 16c-23.333 -6 -53.667 -12.167 -91 -18.5s-78.333 -9.5 -123 -9.5c-42 0 -77.167 6 -105.5 18s-51 28.667 -68 50s-29.167 46.833 -36.5 76.5s-11 62.167 -11 97.5v293h121v-274c0 -56 8.16699 -96 24.5 -120s44.833 -36 85.5 -36c14.667 0 30.167 0.666992 46.5 2
s28.5 3 36.5 5v423h121v-507zM184.999 609c-18 0 -33.667 6 -47 18s-20 28.333 -20 49s6.66699 37.167 20 49.5s29 18.5 47 18.5s33.833 -6.16699 47.5 -18.5s20.5 -28.833 20.5 -49.5s-6.83301 -37 -20.5 -49s-29.5 -18 -47.5 -18zM391.999 609c-18 0 -33.833 6 -47.5 18
s-20.5 28.333 -20.5 49s6.83301 37.167 20.5 49.5s29.5 18.5 47.5 18.5s33.667 -6.16699 47 -18.5s20 -28.833 20 -49.5s-6.66699 -37 -20 -49s-29 -18 -47 -18z" />
    <glyph glyph-name="yacute" unicode="&#xfd;" horiz-adv-x="519" 
d="M504 523c-54 -198.667 -116.671 -378.666 -188.004 -539.999c-13.333 -30 -27 -55.667 -41 -77s-29.667 -39 -47 -53s-36.666 -24.167 -57.999 -30.5s-46 -9.5 -74 -9.5c-18.667 0 -37.167 2 -55.5 6s-32.166 8.33301 -41.499 13l22 97c24 -9.33301 47.667 -14 71 -14
c31.333 0 55.833 7.5 73.5 22.5s33.167 38.167 46.5 69.5c-38 73.333 -74.5 153.333 -109.5 240s-66.167 178.667 -93.5 276h129c6.66699 -28 14.834 -58.333 24.501 -91s20.167 -65.834 31.5 -99.501s23.333 -67.167 36 -100.5s25.334 -64.333 38.001 -93
c21.333 59.333 41.333 122.5 60 189.5s35.667 131.833 51 194.5h125zM410.996 737.001l-163 -158l-60 54l147 175z" />
    <glyph glyph-name="thorn" unicode="&#xfe;" horiz-adv-x="596" 
d="M550 261c0 -40 -5.16699 -76.666 -15.5 -109.999s-25.333 -62 -45 -86s-43.834 -42.667 -72.501 -56s-61.667 -20 -99 -20c-25.333 0 -48.166 3 -68.499 9s-37.5 12.667 -51.5 20v-203h-121v941l121 20v-257c14 4.66699 29.333 8.33398 46 11.001s32 4 46 4
c39.333 0 75 -6.33301 107 -19s59.333 -30.834 82 -54.501s40.167 -52.334 52.5 -86.001s18.5 -71.5 18.5 -113.5zM426 259.001c0 21.333 -3.00195 42.332 -9.00195 62.999s-15 39 -27 55s-27.333 28.833 -46 38.5s-40.334 14.5 -65.001 14.5
c-18 0 -34.167 -1.33301 -48.5 -4s-25.166 -5.66699 -32.499 -9v-294c10.667 -7.33301 24.834 -14.166 42.501 -20.499s36.834 -9.5 57.501 -9.5c44.667 0 77.167 15 97.5 45s30.5 70.333 30.5 121z" />
    <glyph glyph-name="ydieresis" unicode="&#xff;" horiz-adv-x="519" 
d="M504 523c-54 -198.667 -116.671 -378.666 -188.004 -539.999c-13.333 -30 -27 -55.667 -41 -77s-29.667 -39 -47 -53s-36.666 -24.167 -57.999 -30.5s-46 -9.5 -74 -9.5c-18.667 0 -37.167 2 -55.5 6s-32.166 8.33301 -41.499 13l22 97c24 -9.33301 47.667 -14 71 -14
c31.333 0 55.833 7.5 73.5 22.5s33.167 38.167 46.5 69.5c-38 73.333 -74.5 153.333 -109.5 240s-66.167 178.667 -93.5 276h129c6.66699 -28 14.834 -58.333 24.501 -91s20.167 -65.834 31.5 -99.501s23.333 -67.167 36 -100.5s25.334 -64.333 38.001 -93
c21.333 59.333 41.333 122.5 60 189.5s35.667 131.833 51 194.5h125zM160.996 609.001c-18 0 -33.667 6 -47 18s-20 28.333 -20 49s6.66699 37.167 20 49.5s29 18.5 47 18.5s33.833 -6.16699 47.5 -18.5s20.5 -28.833 20.5 -49.5s-6.83301 -37 -20.5 -49
s-29.5 -18 -47.5 -18zM367.996 609.001c-18 0 -33.833 6 -47.5 18s-20.5 28.333 -20.5 49s6.83301 37.167 20.5 49.5s29.5 18.5 47.5 18.5s33.667 -6.16699 47 -18.5s20 -28.833 20 -49.5s-6.66699 -37 -20 -49s-29 -18 -47 -18z" />
    <glyph glyph-name="Amacron" unicode="&#x100;" horiz-adv-x="684" 
d="M543 0c-9.33301 27.333 -18.999 54.333 -28.999 81s-19.667 54 -29 82h-292c-9.33301 -28 -18.833 -55.5 -28.5 -82.5s-19.167 -53.833 -28.5 -80.5h-131c26 74 50.667 142.333 74 205s46.166 122 68.499 178s44.5 109.333 66.5 160s44.667 100.667 68 150h119
c23.333 -49.333 46 -99.333 68 -150s44.167 -104 66.5 -160s45.333 -115.333 69 -178s48.5 -131 74.5 -205h-136zM339.001 559c-15.333 -35.333 -32.833 -78.332 -52.5 -128.999s-40.167 -105.667 -61.5 -165h228c-21.333 59.333 -42 114.666 -62 165.999
s-37.333 94 -52 128zM492.001 872.001v-87h-303v87h303z" />
    <glyph glyph-name="amacron" unicode="&#x101;" horiz-adv-x="534" 
d="M261 85c37.333 0 65.668 2.00098 85.001 6.00098v134c-6.66699 2 -16.334 4 -29.001 6s-26.667 3 -42 3c-13.333 0 -26.833 -1 -40.5 -3s-26 -5.66699 -37 -11s-19.833 -12.833 -26.5 -22.5s-10 -21.834 -10 -36.501c0 -28.667 9 -48.5 27 -59.5s42.333 -16.5 73 -16.5z
M251.002 536.001c40 0 73.6689 -4.99707 101.002 -14.9971s49.166 -24 65.499 -42s28 -39.833 35 -65.5s10.5 -53.834 10.5 -84.501v-317c-18.667 -4 -46.834 -8.83301 -84.501 -14.5s-80.167 -8.5 -127.5 -8.5c-31.333 0 -60 3 -86 9s-48.167 15.667 -66.5 29
s-32.666 30.666 -42.999 51.999s-15.5 47.666 -15.5 78.999c0 30 5.83301 55.333 17.5 76s27.5 37.5 47.5 50.5s43.167 22.333 69.5 28s53.833 8.5 82.5 8.5c13.333 0 27.333 -0.833008 42 -2.5s30.334 -4.5 47.001 -8.5v20c0 14 -1.66699 27.333 -5 40
s-9.16602 23.834 -17.499 33.501s-19.333 17.167 -33 22.5s-30.834 8 -51.501 8c-28 0 -53.667 -2 -77 -6s-42.333 -8.66699 -57 -14l-15 98c15.333 5.33301 37.666 10.666 66.999 15.999s60.666 8 93.999 8zM420.004 718.004v-87h-303v87h303z" />
    <glyph glyph-name="Abreve" unicode="&#x102;" horiz-adv-x="684" 
d="M543 0c-9.33301 27.333 -18.999 54.333 -28.999 81s-19.667 54 -29 82h-292c-9.33301 -28 -18.833 -55.5 -28.5 -82.5s-19.167 -53.833 -28.5 -80.5h-131c26 74 50.667 142.333 74 205s46.166 122 68.499 178s44.5 109.333 66.5 160s44.667 100.667 68 150h119
c23.333 -49.333 46 -99.333 68 -150s44.167 -104 66.5 -160s45.333 -115.333 69 -178s48.5 -131 74.5 -205h-136zM339.001 559c-15.333 -35.333 -32.833 -78.332 -52.5 -128.999s-40.167 -105.667 -61.5 -165h228c-21.333 59.333 -42 114.666 -62 165.999
s-37.333 94 -52 128zM347.001 758.001c-21.333 0 -40.999 3.33301 -58.999 10s-33.667 16.167 -47 28.5s-23.666 27.5 -30.999 45.5s-11 38.667 -11 62v6h81c1.33301 -21.333 7.16602 -38.5 17.499 -51.5s26.833 -19.5 49.5 -19.5c22 0 38.167 6.5 48.5 19.5
s16.5 30.167 18.5 51.5h80v-7c0 -46 -13.833 -81.667 -41.5 -107s-62.834 -38 -105.501 -38z" />
    <glyph glyph-name="abreve" unicode="&#x103;" horiz-adv-x="534" 
d="M261 85c37.333 0 65.668 2.00098 85.001 6.00098v134c-6.66699 2 -16.334 4 -29.001 6s-26.667 3 -42 3c-13.333 0 -26.833 -1 -40.5 -3s-26 -5.66699 -37 -11s-19.833 -12.833 -26.5 -22.5s-10 -21.834 -10 -36.501c0 -28.667 9 -48.5 27 -59.5s42.333 -16.5 73 -16.5z
M251.002 536.001c40 0 73.6689 -4.99707 101.002 -14.9971s49.166 -24 65.499 -42s28 -39.833 35 -65.5s10.5 -53.834 10.5 -84.501v-317c-18.667 -4 -46.834 -8.83301 -84.501 -14.5s-80.167 -8.5 -127.5 -8.5c-31.333 0 -60 3 -86 9s-48.167 15.667 -66.5 29
s-32.666 30.666 -42.999 51.999s-15.5 47.666 -15.5 78.999c0 30 5.83301 55.333 17.5 76s27.5 37.5 47.5 50.5s43.167 22.333 69.5 28s53.833 8.5 82.5 8.5c13.333 0 27.333 -0.833008 42 -2.5s30.334 -4.5 47.001 -8.5v20c0 14 -1.66699 27.333 -5 40
s-9.16602 23.834 -17.499 33.501s-19.333 17.167 -33 22.5s-30.834 8 -51.501 8c-28 0 -53.667 -2 -77 -6s-42.333 -8.66699 -57 -14l-15 98c15.333 5.33301 37.666 10.666 66.999 15.999s60.666 8 93.999 8zM273.004 604.004c-21.333 0 -40.999 3.33301 -58.999 10
s-33.667 16.167 -47 28.5s-23.666 27.5 -30.999 45.5s-11 38.667 -11 62v6h81c1.33301 -21.333 7.16602 -38.5 17.499 -51.5s26.833 -19.5 49.5 -19.5c22 0 38.167 6.5 48.5 19.5s16.5 30.167 18.5 51.5h80v-7c0 -46 -13.833 -81.667 -41.5 -107s-62.834 -38 -105.501 -38z
" />
    <glyph glyph-name="Aogonek" unicode="&#x104;" horiz-adv-x="684" 
d="M339 559c-15.333 -35.333 -32.833 -78.333 -52.5 -129s-40.167 -105.667 -61.5 -165h228c-21.333 59.333 -41.833 114.333 -61.5 165s-37.167 93.667 -52.5 129zM543 0c-9.33301 27.333 -18.998 54.335 -28.998 81.002s-19.667 54 -29 82h-292
c-9.33301 -28 -18.833 -55.5 -28.5 -82.5s-19.167 -53.833 -28.5 -80.5h-131c26 74 50.667 142.333 74 205s46.166 122 68.499 178s44.5 109.333 66.5 160s44.667 100.667 68 150h119c23.333 -49.333 46 -99.333 68 -150s44.167 -103.834 66.5 -159.501
s45.166 -114.834 68.499 -177.501s48 -131 74 -205c-6.66699 -4.66699 -14.5 -10.667 -23.5 -18s-17.5 -15.166 -25.5 -23.499s-14.833 -16.833 -20.5 -25.5s-8.5 -17 -8.5 -25c0 -18 11.667 -27 35 -27c5.33301 0 12 0.5 20 1.5s16.667 3.16699 26 6.5l9 -81
c-10 -4 -22.667 -7.16699 -38 -9.5s-30 -3.5 -44 -3.5c-41.333 0 -71.333 7.5 -90 22.5s-28 35.167 -28 60.5c0 12.667 3 25.334 9 38.001s13.5 24.167 22.5 34.5s18.333 19.666 28 27.999s18.167 15.166 25.5 20.499h-32z" />
    <glyph glyph-name="aogonek" unicode="&#x105;" horiz-adv-x="534" 
d="M251 536c40 0 73.666 -4.99707 100.999 -14.9971s49.166 -24 65.499 -42s28 -39.833 35 -65.5s10.5 -53.834 10.5 -84.501v-317c-7.33301 -6 -16.5 -13.333 -27.5 -22s-21.833 -18.667 -32.5 -30c-9.33301 -9.33301 -16.666 -18 -21.999 -26s-8 -16.333 -8 -25
c0 -18 11.667 -27 35 -27c5.33301 0 12 0.5 20 1.5s16.667 3.16699 26 6.5l10 -81c-10.667 -4 -23.5 -7.16699 -38.5 -9.5s-29.833 -3.5 -44.5 -3.5c-41.333 0 -71.166 7.5 -89.499 22.5s-27.5 35.167 -27.5 60.5c0 15.333 3.66699 29.833 11 43.5s16.666 26.5 27.999 38.5
c9.33301 11.333 20.666 22 33.999 32c-13.333 -1.33301 -27.166 -2.33301 -41.499 -3s-29.166 -1 -44.499 -1c-31.333 0 -60 3 -86 9s-48.167 15.667 -66.5 29s-32.666 30.666 -42.999 51.999s-15.5 47.666 -15.5 78.999c0 30 5.83301 55.333 17.5 76s27.5 37.5 47.5 50.5
s43.167 22.333 69.5 28s53.833 8.5 82.5 8.5c13.333 0 27.333 -0.833008 42 -2.5s30.334 -4.5 47.001 -8.5v20c0 14 -1.66699 27.333 -5 40s-9.16602 23.834 -17.499 33.501s-19.333 17.167 -33 22.5s-30.834 8 -51.501 8c-28 0 -53.667 -2 -77 -6s-42.333 -8.66699 -57 -14
l-15 98c15.333 5.33301 37.666 10.666 66.999 15.999s60.666 8 93.999 8zM260.999 85.0029c37.333 0 65.668 2.00098 85.001 6.00098v134c-6.66699 2 -16.334 4 -29.001 6s-26.667 3 -42 3c-13.333 0 -26.833 -1 -40.5 -3s-26 -5.66699 -37 -11s-19.833 -12.833 -26.5 -22.5
s-10 -21.834 -10 -36.501c0 -28.667 9 -48.5 27 -59.5s42.333 -16.5 73 -16.5z" />
    <glyph glyph-name="Cacute" unicode="&#x106;" horiz-adv-x="638" 
d="M391 -15c-52 0 -98.6621 7.99707 -139.995 23.9971s-76.333 39.5 -105 70.5s-50.667 68.833 -66 113.5s-23 96 -23 154s8.83301 109.333 26.5 154s41.834 82.5 72.501 113.5s66.667 54.5 108 70.5s85.666 24 132.999 24c28.667 0 54.667 -2.16699 78 -6.5
s43.666 -9.16602 60.999 -14.499s31.666 -11 42.999 -17s19.333 -10.333 24 -13l-37 -103c-16 10 -38.833 19.5 -68.5 28.5s-61.834 13.5 -96.501 13.5c-30 0 -58 -5.16699 -84 -15.5s-48.5 -25.833 -67.5 -46.5s-33.833 -46.667 -44.5 -78s-16 -67.666 -16 -108.999
c0 -36.667 4.16699 -70.334 12.5 -101.001s21.166 -57.167 38.499 -79.5s39.333 -39.666 66 -51.999s58.667 -18.5 96 -18.5c44.667 0 81 4.5 109 13.5s49.667 17.5 65 25.5l34 -103c-8 -5.33301 -18.833 -10.666 -32.5 -15.999s-29.834 -10.5 -48.501 -15.5
s-39.667 -9 -63 -12s-48.333 -4.5 -75 -4.5zM513.005 898.997l-163 -158l-60 54l147 175z" />
    <glyph glyph-name="cacute" unicode="&#x107;" horiz-adv-x="472" 
d="M48 261c0 38.667 6.00195 74.832 18.002 108.499s29.167 62.834 51.5 87.501s49.5 44 81.5 58s68 21 108 21c49.333 0 96 -9 140 -27l-26 -99c-14 6 -29.833 11 -47.5 15s-36.5 6 -56.5 6c-47.333 0 -83.333 -14.833 -108 -44.5s-37 -71.5 -37 -125.5
c0 -52 11.667 -93.167 35 -123.5s62.666 -45.5 117.999 -45.5c20.667 0 41 2 61 6s37.333 9 52 15l17 -100c-13.333 -6.66699 -33.5 -12.667 -60.5 -18s-54.833 -8 -83.5 -8c-44.667 0 -83.5 6.83301 -116.5 20.5s-60.333 32.667 -82 57s-37.834 53.333 -48.501 87
s-16 70.167 -16 109.5zM428.002 736.998l-163 -158l-60 54l147 175z" />
    <glyph glyph-name="Ccircumflex" unicode="&#x108;" horiz-adv-x="638" 
d="M391 -15c-52 0 -98.6621 7.99707 -139.995 23.9971s-76.333 39.5 -105 70.5s-50.667 68.833 -66 113.5s-23 96 -23 154s8.83301 109.333 26.5 154s41.834 82.5 72.501 113.5s66.667 54.5 108 70.5s85.666 24 132.999 24c28.667 0 54.667 -2.16699 78 -6.5
s43.666 -9.16602 60.999 -14.499s31.666 -11 42.999 -17s19.333 -10.333 24 -13l-37 -103c-16 10 -38.833 19.5 -68.5 28.5s-61.834 13.5 -96.501 13.5c-30 0 -58 -5.16699 -84 -15.5s-48.5 -25.833 -67.5 -46.5s-33.833 -46.667 -44.5 -78s-16 -67.666 -16 -108.999
c0 -36.667 4.16699 -70.334 12.5 -101.001s21.166 -57.167 38.499 -79.5s39.333 -39.666 66 -51.999s58.667 -18.5 96 -18.5c44.667 0 81 4.5 109 13.5s49.667 17.5 65 25.5l34 -103c-8 -5.33301 -18.833 -10.666 -32.5 -15.999s-29.834 -10.5 -48.501 -15.5
s-39.667 -9 -63 -12s-48.333 -4.5 -75 -4.5zM529.005 795.997l-47 -53l-99 81l-98 -81l-48 53l146 140z" />
    <glyph glyph-name="ccircumflex" unicode="&#x109;" horiz-adv-x="472" 
d="M48 261c0 38.667 6.00195 74.832 18.002 108.499s29.167 62.834 51.5 87.501s49.5 44 81.5 58s68 21 108 21c49.333 0 96 -9 140 -27l-26 -99c-14 6 -29.833 11 -47.5 15s-36.5 6 -56.5 6c-47.333 0 -83.333 -14.833 -108 -44.5s-37 -71.5 -37 -125.5
c0 -52 11.667 -93.167 35 -123.5s62.666 -45.5 117.999 -45.5c20.667 0 41 2 61 6s37.333 9 52 15l17 -100c-13.333 -6.66699 -33.5 -12.667 -60.5 -18s-54.833 -8 -83.5 -8c-44.667 0 -83.5 6.83301 -116.5 20.5s-60.333 32.667 -82 57s-37.834 53.333 -48.501 87
s-16 70.167 -16 109.5zM437.002 634.998l-47 -53l-99 81l-98 -81l-48 53l146 140z" />
    <glyph glyph-name="Cdotaccent" unicode="&#x10a;" horiz-adv-x="638" 
d="M391 -15c-52 0 -98.6621 7.99707 -139.995 23.9971s-76.333 39.5 -105 70.5s-50.667 68.833 -66 113.5s-23 96 -23 154s8.83301 109.333 26.5 154s41.834 82.5 72.501 113.5s66.667 54.5 108 70.5s85.666 24 132.999 24c28.667 0 54.667 -2.16699 78 -6.5
s43.666 -9.16602 60.999 -14.499s31.666 -11 42.999 -17s19.333 -10.333 24 -13l-37 -103c-16 10 -38.833 19.5 -68.5 28.5s-61.834 13.5 -96.501 13.5c-30 0 -58 -5.16699 -84 -15.5s-48.5 -25.833 -67.5 -46.5s-33.833 -46.667 -44.5 -78s-16 -67.666 -16 -108.999
c0 -36.667 4.16699 -70.334 12.5 -101.001s21.166 -57.167 38.499 -79.5s39.333 -39.666 66 -51.999s58.667 -18.5 96 -18.5c44.667 0 81 4.5 109 13.5s49.667 17.5 65 25.5l34 -103c-8 -5.33301 -18.833 -10.666 -32.5 -15.999s-29.834 -10.5 -48.501 -15.5
s-39.667 -9 -63 -12s-48.333 -4.5 -75 -4.5zM454.005 833.997c0 -22.667 -7.33301 -40.667 -22 -54s-32 -20 -52 -20c-20.667 0 -38.334 6.66699 -53.001 20s-22 31.333 -22 54c0 23.333 7.33301 41.666 22 54.999s32.334 20 53.001 20c20 0 37.333 -6.66699 52 -20
s22 -31.666 22 -54.999z" />
    <glyph glyph-name="cdotaccent" unicode="&#x10b;" horiz-adv-x="472" 
d="M48 261c0 38.667 6.00195 74.832 18.002 108.499s29.167 62.834 51.5 87.501s49.5 44 81.5 58s68 21 108 21c49.333 0 96 -9 140 -27l-26 -99c-14 6 -29.833 11 -47.5 15s-36.5 6 -56.5 6c-47.333 0 -83.333 -14.833 -108 -44.5s-37 -71.5 -37 -125.5
c0 -52 11.667 -93.167 35 -123.5s62.666 -45.5 117.999 -45.5c20.667 0 41 2 61 6s37.333 9 52 15l17 -100c-13.333 -6.66699 -33.5 -12.667 -60.5 -18s-54.833 -8 -83.5 -8c-44.667 0 -83.5 6.83301 -116.5 20.5s-60.333 32.667 -82 57s-37.834 53.333 -48.501 87
s-16 70.167 -16 109.5zM366.002 675.998c0 -22.667 -7.33301 -40.667 -22 -54s-32 -20 -52 -20c-20.667 0 -38.334 6.66699 -53.001 20s-22 31.333 -22 54c0 23.333 7.33301 41.666 22 54.999s32.334 20 53.001 20c20 0 37.333 -6.66699 52 -20s22 -31.666 22 -54.999z" />
    <glyph glyph-name="Ccaron" unicode="&#x10c;" horiz-adv-x="638" 
d="M391 -15c-52 0 -98.6621 7.99707 -139.995 23.9971s-76.333 39.5 -105 70.5s-50.667 68.833 -66 113.5s-23 96 -23 154s8.83301 109.333 26.5 154s41.834 82.5 72.501 113.5s66.667 54.5 108 70.5s85.666 24 132.999 24c28.667 0 54.667 -2.16699 78 -6.5
s43.666 -9.16602 60.999 -14.499s31.666 -11 42.999 -17s19.333 -10.333 24 -13l-37 -103c-16 10 -38.833 19.5 -68.5 28.5s-61.834 13.5 -96.501 13.5c-30 0 -58 -5.16699 -84 -15.5s-48.5 -25.833 -67.5 -46.5s-33.833 -46.667 -44.5 -78s-16 -67.666 -16 -108.999
c0 -36.667 4.16699 -70.334 12.5 -101.001s21.166 -57.167 38.499 -79.5s39.333 -39.666 66 -51.999s58.667 -18.5 96 -18.5c44.667 0 81 4.5 109 13.5s49.667 17.5 65 25.5l34 -103c-8 -5.33301 -18.833 -10.666 -32.5 -15.999s-29.834 -10.5 -48.501 -15.5
s-39.667 -9 -63 -12s-48.333 -4.5 -75 -4.5zM382.005 743.997l-146 140l48 53l98 -81l99 81l47 -53z" />
    <glyph glyph-name="ccaron" unicode="&#x10d;" horiz-adv-x="472" 
d="M48 261c0 38.667 6.00195 74.832 18.002 108.499s29.167 62.834 51.5 87.501s49.5 44 81.5 58s68 21 108 21c49.333 0 96 -9 140 -27l-26 -99c-14 6 -29.833 11 -47.5 15s-36.5 6 -56.5 6c-47.333 0 -83.333 -14.833 -108 -44.5s-37 -71.5 -37 -125.5
c0 -52 11.667 -93.167 35 -123.5s62.666 -45.5 117.999 -45.5c20.667 0 41 2 61 6s37.333 9 52 15l17 -100c-13.333 -6.66699 -33.5 -12.667 -60.5 -18s-54.833 -8 -83.5 -8c-44.667 0 -83.5 6.83301 -116.5 20.5s-60.333 32.667 -82 57s-37.834 53.333 -48.501 87
s-16 70.167 -16 109.5zM292.002 585.998l-146 140l48 53l98 -81l99 81l47 -53z" />
    <glyph glyph-name="Dcaron" unicode="&#x10e;" horiz-adv-x="726" 
d="M209 104c7.33301 -0.666992 16.999 -1.16699 28.999 -1.5s28.333 -0.5 49 -0.5c84.667 0 147.834 21.5 189.501 64.5s62.5 103.167 62.5 180.5c0 78.667 -20.333 139 -61 181s-103.667 63 -189 63c-37.333 0 -64 -1 -80 -3v-484zM670.999 347
c0 -60 -9.33398 -112.167 -28.001 -156.5s-45.167 -81.333 -79.5 -111s-75.666 -51.667 -123.999 -66s-101.833 -21.5 -160.5 -21.5c-28 0 -59.667 1.16699 -95 3.5s-69 7.16602 -101 14.499v673c32 7.33301 66 12 102 14s68 3 96 3c58 0 111 -6.83301 159 -20.5
s89.167 -35 123.5 -64s60.833 -65.667 79.5 -110s28 -97.166 28 -158.499zM335.998 744l-146 140l48 53l98 -81l99 81l47 -53z" />
    <glyph glyph-name="dcaron" unicode="&#x10f;" horiz-adv-x="668" 
d="M172 263c0 -53.333 12.667 -95.166 38 -125.499s60.333 -45.5 105 -45.5c19.333 0 35.833 0.833008 49.5 2.5s24.834 3.5 33.501 5.5v300c-10.667 7.33301 -24.834 14.166 -42.501 20.499s-36.5 9.5 -56.5 9.5c-44 0 -76.167 -15 -96.5 -45s-30.5 -70.667 -30.5 -122z
M519 16c-24 -7.33301 -54.166 -14.002 -90.499 -20.002s-74.5 -9 -114.5 -9c-41.333 0 -78.333 6.33301 -111 19s-60.5 30.834 -83.5 54.501s-40.667 52.334 -53 86.001s-18.5 71.5 -18.5 113.5c0 41.333 5.16699 78.833 15.5 112.5s25.5 62.5 45.5 86.5
s44.333 42.5 73 55.5s61.667 19.5 99 19.5c25.333 0 47.666 -3 66.999 -9s36 -12.667 50 -20v251l121 20v-760zM707.001 775.998l-29 -234h-82v234h111z" />
    <glyph glyph-name="Dcroat" unicode="&#x110;" horiz-adv-x="740" 
d="M16 408h80.999v275c32 7.33301 66 12 102 14s68 3 96 3c58 0 111 -6.83301 159 -20.5s89.167 -35 123.5 -64s60.833 -65.667 79.5 -110s28 -97.166 28 -158.499c0 -60 -9.33301 -112.167 -28 -156.5s-45.167 -81.333 -79.5 -111s-75.666 -51.667 -123.999 -66
s-101.833 -21.5 -160.5 -21.5c-28 0 -59.667 1.16699 -95 3.5s-69 7.16602 -101 14.499v303h-81v95zM222.999 408h127.999v-95h-128v-209c7.33301 -0.666992 17 -1.16699 29 -1.5s28.333 -0.5 49 -0.5c84.667 0 147.834 21.5 189.501 64.5s62.5 103.167 62.5 180.5
c0 78.667 -20.333 139 -61 181s-103.667 63 -189 63c-37.333 0 -64 -1 -80 -3v-180z" />
    <glyph glyph-name="dcroat" unicode="&#x111;" horiz-adv-x="596" 
d="M519 686h68.001v-81h-68v-589c-24 -7.33301 -54.167 -14 -90.5 -20s-74.5 -9 -114.5 -9c-41.333 0 -78.333 6.33301 -111 19s-60.5 30.667 -83.5 54s-40.667 51.5 -53 84.5s-18.5 70.167 -18.5 111.5c0 40 5.16699 76.667 15.5 110s25.5 61.833 45.5 85.5
s44.333 42 73 55s61.667 19.5 99 19.5c25.333 0 47.666 -3 66.999 -9s36 -12.667 50 -20v108h-160v81h160v70l121 20v-90zM172.001 259c0 -51.333 12.667 -91.999 38 -121.999s60.333 -45 105 -45c19.333 0 35.833 0.833008 49.5 2.5s24.834 3.5 33.501 5.5v292
c-10.667 7.33301 -24.834 14.166 -42.501 20.499s-36.5 9.5 -56.5 9.5c-44 0 -76.167 -14.833 -96.5 -44.5s-30.5 -69.167 -30.5 -118.5z" />
    <glyph glyph-name="Emacron" unicode="&#x112;" horiz-adv-x="586" 
d="M83 0v693h445v-107h-319v-171h284v-105h-284v-203h343v-107h-469zM457 872v-87h-303v87h303z" />
    <glyph glyph-name="emacron" unicode="&#x113;" horiz-adv-x="571" 
d="M48 259c0 46 6.83496 86.334 20.502 121.001s31.834 63.5 54.501 86.5s48.667 40.333 78 52s59.333 17.5 90 17.5c72 0 128.167 -22.333 168.5 -67s60.5 -111.334 60.5 -200.001c0 -6.66699 -0.166992 -14.167 -0.5 -22.5s-0.833008 -15.833 -1.5 -22.5h-345
c3.33301 -42 18.166 -74.5 44.499 -97.5s64.5 -34.5 114.5 -34.5c29.333 0 56.166 2.66699 80.499 8s43.5 11 57.5 17l16 -99c-6.66699 -3.33301 -15.834 -6.83301 -27.501 -10.5s-25 -7 -40 -10s-31.167 -5.5 -48.5 -7.5s-35 -3 -53 -3c-46 0 -86 6.83301 -120 20.5
s-62 32.667 -84 57s-38.333 53 -49 86s-16 69.167 -16 108.5zM399.002 313.001c0 16.667 -2.33301 32.5 -7 47.5s-11.5 28 -20.5 39s-20 19.667 -33 26s-28.5 9.5 -46.5 9.5c-18.667 0 -35 -3.5 -49 -10.5s-25.833 -16.167 -35.5 -27.5s-17.167 -24.333 -22.5 -39
s-9 -29.667 -11 -45h225zM435.002 718.001v-87h-303v87h303z" />
    <glyph glyph-name="Ebreve" unicode="&#x114;" horiz-adv-x="586" 
d="M83 0v693h445v-107h-319v-171h284v-105h-284v-203h343v-107h-469zM304 758c-21.333 0 -40.999 3.33301 -58.999 10s-33.667 16.167 -47 28.5s-23.666 27.5 -30.999 45.5s-11 38.667 -11 62v6h81c1.33301 -21.333 7.16602 -38.5 17.499 -51.5s26.833 -19.5 49.5 -19.5
c22 0 38.167 6.5 48.5 19.5s16.5 30.167 18.5 51.5h80v-7c0 -46 -13.833 -81.667 -41.5 -107s-62.834 -38 -105.501 -38z" />
    <glyph glyph-name="ebreve" unicode="&#x115;" horiz-adv-x="571" 
d="M48 259c0 46 6.83496 86.334 20.502 121.001s31.834 63.5 54.501 86.5s48.667 40.333 78 52s59.333 17.5 90 17.5c72 0 128.167 -22.333 168.5 -67s60.5 -111.334 60.5 -200.001c0 -6.66699 -0.166992 -14.167 -0.5 -22.5s-0.833008 -15.833 -1.5 -22.5h-345
c3.33301 -42 18.166 -74.5 44.499 -97.5s64.5 -34.5 114.5 -34.5c29.333 0 56.166 2.66699 80.499 8s43.5 11 57.5 17l16 -99c-6.66699 -3.33301 -15.834 -6.83301 -27.501 -10.5s-25 -7 -40 -10s-31.167 -5.5 -48.5 -7.5s-35 -3 -53 -3c-46 0 -86 6.83301 -120 20.5
s-62 32.667 -84 57s-38.333 53 -49 86s-16 69.167 -16 108.5zM399.002 313.001c0 16.667 -2.33301 32.5 -7 47.5s-11.5 28 -20.5 39s-20 19.667 -33 26s-28.5 9.5 -46.5 9.5c-18.667 0 -35 -3.5 -49 -10.5s-25.833 -16.167 -35.5 -27.5s-17.167 -24.333 -22.5 -39
s-9 -29.667 -11 -45h225zM286.002 604.001c-21.333 0 -40.999 3.33301 -58.999 10s-33.667 16.167 -47 28.5s-23.666 27.5 -30.999 45.5s-11 38.667 -11 62v6h81c1.33301 -21.333 7.16602 -38.5 17.499 -51.5s26.833 -19.5 49.5 -19.5c22 0 38.167 6.5 48.5 19.5
s16.5 30.167 18.5 51.5h80v-7c0 -46 -13.833 -81.667 -41.5 -107s-62.834 -38 -105.501 -38z" />
    <glyph glyph-name="Edotaccent" unicode="&#x116;" horiz-adv-x="586" 
d="M83 0v693h445v-107h-319v-171h284v-105h-284v-203h343v-107h-469zM383 834c0 -22.667 -7.33301 -40.667 -22 -54s-32 -20 -52 -20c-20.667 0 -38.334 6.66699 -53.001 20s-22 31.333 -22 54c0 23.333 7.33301 41.666 22 54.999s32.334 20 53.001 20
c20 0 37.333 -6.66699 52 -20s22 -31.666 22 -54.999z" />
    <glyph glyph-name="edotaccent" unicode="&#x117;" horiz-adv-x="571" 
d="M48 259c0 46 6.83496 86.334 20.502 121.001s31.834 63.5 54.501 86.5s48.667 40.333 78 52s59.333 17.5 90 17.5c72 0 128.167 -22.333 168.5 -67s60.5 -111.334 60.5 -200.001c0 -6.66699 -0.166992 -14.167 -0.5 -22.5s-0.833008 -15.833 -1.5 -22.5h-345
c3.33301 -42 18.166 -74.5 44.499 -97.5s64.5 -34.5 114.5 -34.5c29.333 0 56.166 2.66699 80.499 8s43.5 11 57.5 17l16 -99c-6.66699 -3.33301 -15.834 -6.83301 -27.501 -10.5s-25 -7 -40 -10s-31.167 -5.5 -48.5 -7.5s-35 -3 -53 -3c-46 0 -86 6.83301 -120 20.5
s-62 32.667 -84 57s-38.333 53 -49 86s-16 69.167 -16 108.5zM399.002 313.001c0 16.667 -2.33301 32.5 -7 47.5s-11.5 28 -20.5 39s-20 19.667 -33 26s-28.5 9.5 -46.5 9.5c-18.667 0 -35 -3.5 -49 -10.5s-25.833 -16.167 -35.5 -27.5s-17.167 -24.333 -22.5 -39
s-9 -29.667 -11 -45h225zM361.002 676.001c0 -22.667 -7.33301 -40.667 -22 -54s-32 -20 -52 -20c-20.667 0 -38.334 6.66699 -53.001 20s-22 31.333 -22 54c0 23.333 7.33301 41.666 22 54.999s32.334 20 53.001 20c20 0 37.333 -6.66699 52 -20s22 -31.666 22 -54.999z
" />
    <glyph glyph-name="Eogonek" unicode="&#x118;" horiz-adv-x="586" 
d="M482 -204c-41.333 0 -71.332 7.50195 -89.999 22.502s-28 35.167 -28 60.5c0 15.333 3.5 29.833 10.5 43.5s16.167 26.5 27.5 38.5c6.66699 8 13.167 15.167 19.5 21.5s13.166 12.166 20.499 17.499h-359v693h445v-107h-319v-171h284v-105h-284v-203h343v-106
c-6 -4.66699 -13.5 -10.334 -22.5 -17.001s-17.833 -14.667 -26.5 -24c-9.33301 -9.33301 -16.5 -18 -21.5 -26s-7.5 -16.333 -7.5 -25c0 -18 11.667 -27 35 -27c5.33301 0 12 0.5 20 1.5s16.667 3.16699 26 6.5l9 -81c-10 -4 -22.667 -7.16699 -38 -9.5s-30 -3.5 -44 -3.5z
" />
    <glyph glyph-name="eogonek" unicode="&#x119;" horiz-adv-x="571" 
d="M48 259c0 46 6.83789 86.334 20.5049 121.001s31.834 63.5 54.501 86.5s48.667 40.333 78 52s59.333 17.5 90 17.5c72 0 128.167 -22.333 168.5 -67s60.5 -111.334 60.5 -200.001c0 -6.66699 -0.166992 -14.167 -0.5 -22.5s-0.833008 -15.833 -1.5 -22.5h-345
c3.33301 -42 18.166 -74.5 44.499 -97.5s64.5 -34.5 114.5 -34.5c29.333 0 56.166 2.66699 80.499 8s43.5 11 57.5 17l16 -99c-10 -7.33301 -20.667 -15.5 -32 -24.5s-22 -18.5 -32 -28.5s-18.333 -19.833 -25 -29.5s-10 -18.5 -10 -26.5c0 -18 11.667 -27 35 -27
c13.333 0 28.666 2.66699 45.999 8l9 -81c-10.667 -4.66699 -23.834 -8 -39.501 -10s-29.834 -3 -42.501 -3c-39.333 0 -68.833 7.16699 -88.5 21.5s-29.5 34.833 -29.5 61.5c0 19.333 6.16699 38 18.5 56s28.166 35.667 47.499 53c-4 -0.666992 -8.33301 -1 -13 -1h-13
c-46 0 -86 6.83301 -120 20.5s-62 32.667 -84 57s-38.333 53 -49 86s-16 69.167 -16 108.5zM399.005 313.001c0 16.667 -2.33301 32.5 -7 47.5s-11.5 28 -20.5 39s-20 19.667 -33 26s-28.5 9.5 -46.5 9.5c-18.667 0 -35 -3.5 -49 -10.5s-25.833 -16.167 -35.5 -27.5
s-17.167 -24.333 -22.5 -39s-9 -29.667 -11 -45h225z" />
    <glyph glyph-name="Ecaron" unicode="&#x11a;" horiz-adv-x="586" 
d="M83 0v693h445v-107h-319v-171h284v-105h-284v-203h343v-107h-469zM307 744l-146 140l48 53l98 -81l99 81l47 -53z" />
    <glyph glyph-name="ecaron" unicode="&#x11b;" horiz-adv-x="571" 
d="M48 259c0 46 6.83496 86.334 20.502 121.001s31.834 63.5 54.501 86.5s48.667 40.333 78 52s59.333 17.5 90 17.5c72 0 128.167 -22.333 168.5 -67s60.5 -111.334 60.5 -200.001c0 -6.66699 -0.166992 -14.167 -0.5 -22.5s-0.833008 -15.833 -1.5 -22.5h-345
c3.33301 -42 18.166 -74.5 44.499 -97.5s64.5 -34.5 114.5 -34.5c29.333 0 56.166 2.66699 80.499 8s43.5 11 57.5 17l16 -99c-6.66699 -3.33301 -15.834 -6.83301 -27.501 -10.5s-25 -7 -40 -10s-31.167 -5.5 -48.5 -7.5s-35 -3 -53 -3c-46 0 -86 6.83301 -120 20.5
s-62 32.667 -84 57s-38.333 53 -49 86s-16 69.167 -16 108.5zM399.002 313.001c0 16.667 -2.33301 32.5 -7 47.5s-11.5 28 -20.5 39s-20 19.667 -33 26s-28.5 9.5 -46.5 9.5c-18.667 0 -35 -3.5 -49 -10.5s-25.833 -16.167 -35.5 -27.5s-17.167 -24.333 -22.5 -39
s-9 -29.667 -11 -45h225zM291.002 586.001l-146 140l48 53l98 -81l99 81l47 -53z" />
    <glyph glyph-name="Gcircumflex" unicode="&#x11c;" horiz-adv-x="683" 
d="M407 598c-71.333 0 -125.834 -22.1699 -163.501 -66.5029s-56.5 -105.833 -56.5 -184.5c0 -37.333 4.5 -71.5 13.5 -102.5s22.333 -57.5 40 -79.5s39.667 -39.167 66 -51.5s57.166 -18.5 92.499 -18.5c22 0 41 0.833008 57 2.5s28.667 3.83398 38 6.50098v249h126v-333
c-17.333 -6.66699 -46.666 -14 -87.999 -22s-89 -12 -143 -12c-50 0 -95.667 8 -137 24s-76.5 39.333 -105.5 70s-51.5 68.334 -67.5 113.001s-24 96 -24 154s8.83301 109.333 26.5 154s41.834 82.5 72.501 113.5s66.667 54.5 108 70.5s85.333 24 132 24
c32 0 60.5 -2.16699 85.5 -6.5s46.5 -9.16602 64.5 -14.499s32.833 -11 44.5 -17s19.834 -10.333 24.501 -13l-38 -103c-20 12 -44.833 22.167 -74.5 30.5s-60.834 12.5 -93.501 12.5zM528.999 795.997l-47 -53l-99 81l-98 -81l-48 53l146 140z" />
    <glyph glyph-name="gcircumflex" unicode="&#x11d;" horiz-adv-x="586" 
d="M172 275c0 -51.333 11.1689 -88.832 33.502 -112.499s51.166 -35.5 86.499 -35.5c19.333 0 37.5 2.66699 54.5 8s30.833 11.666 41.5 18.999v271c-8.66699 2 -19.334 3.83301 -32.001 5.5s-28.667 2.5 -48 2.5c-44 0 -77.667 -14.5 -101 -43.5s-35 -67.167 -35 -114.5z
M509.002 53.001c0 -83.333 -21.167 -144.335 -63.5 -183.002s-107.166 -58 -194.499 -58c-32 0 -63.167 2.66699 -93.5 8s-57.833 12.333 -82.5 21l22 103c20.667 -8.66699 44.167 -15.667 70.5 -21s54.833 -8 85.5 -8c48.667 0 83.334 10 104.001 30s31 49.667 31 89v20
c-12 -6 -27.833 -12 -47.5 -18s-42.167 -9 -67.5 -9c-33.333 0 -63.833 5.33301 -91.5 16s-51.334 26.334 -71.001 47.001s-35 46.5 -46 77.5s-16.5 66.833 -16.5 107.5c0 38 5.83301 73 17.5 105s28.667 59.333 51 82s49.5 40.334 81.5 53.001s68.333 19 109 19
c39.333 0 76.666 -3 111.999 -9s65.333 -12.333 90 -19v-453zM456.002 634.999l-47 -53l-99 81l-98 -81l-48 53l146 140z" />
    <glyph glyph-name="Gbreve" unicode="&#x11e;" horiz-adv-x="683" 
d="M407 598c-71.333 0 -125.834 -22.1699 -163.501 -66.5029s-56.5 -105.833 -56.5 -184.5c0 -37.333 4.5 -71.5 13.5 -102.5s22.333 -57.5 40 -79.5s39.667 -39.167 66 -51.5s57.166 -18.5 92.499 -18.5c22 0 41 0.833008 57 2.5s28.667 3.83398 38 6.50098v249h126v-333
c-17.333 -6.66699 -46.666 -14 -87.999 -22s-89 -12 -143 -12c-50 0 -95.667 8 -137 24s-76.5 39.333 -105.5 70s-51.5 68.334 -67.5 113.001s-24 96 -24 154s8.83301 109.333 26.5 154s41.834 82.5 72.501 113.5s66.667 54.5 108 70.5s85.333 24 132 24
c32 0 60.5 -2.16699 85.5 -6.5s46.5 -9.16602 64.5 -14.499s32.833 -11 44.5 -17s19.834 -10.333 24.501 -13l-38 -103c-20 12 -44.833 22.167 -74.5 30.5s-60.834 12.5 -93.501 12.5zM381.999 757.997c-21.333 0 -40.999 3.33301 -58.999 10s-33.667 16.167 -47 28.5
s-23.666 27.5 -30.999 45.5s-11 38.667 -11 62v6h81c1.33301 -21.333 7.16602 -38.5 17.499 -51.5s26.833 -19.5 49.5 -19.5c22 0 38.167 6.5 48.5 19.5s16.5 30.167 18.5 51.5h80v-7c0 -46 -13.833 -81.667 -41.5 -107s-62.834 -38 -105.501 -38z" />
    <glyph glyph-name="gbreve" unicode="&#x11f;" horiz-adv-x="586" 
d="M172 275c0 -51.333 11.1689 -88.832 33.502 -112.499s51.166 -35.5 86.499 -35.5c19.333 0 37.5 2.66699 54.5 8s30.833 11.666 41.5 18.999v271c-8.66699 2 -19.334 3.83301 -32.001 5.5s-28.667 2.5 -48 2.5c-44 0 -77.667 -14.5 -101 -43.5s-35 -67.167 -35 -114.5z
M509.002 53.001c0 -83.333 -21.167 -144.335 -63.5 -183.002s-107.166 -58 -194.499 -58c-32 0 -63.167 2.66699 -93.5 8s-57.833 12.333 -82.5 21l22 103c20.667 -8.66699 44.167 -15.667 70.5 -21s54.833 -8 85.5 -8c48.667 0 83.334 10 104.001 30s31 49.667 31 89v20
c-12 -6 -27.833 -12 -47.5 -18s-42.167 -9 -67.5 -9c-33.333 0 -63.833 5.33301 -91.5 16s-51.334 26.334 -71.001 47.001s-35 46.5 -46 77.5s-16.5 66.833 -16.5 107.5c0 38 5.83301 73 17.5 105s28.667 59.333 51 82s49.5 40.334 81.5 53.001s68.333 19 109 19
c39.333 0 76.666 -3 111.999 -9s65.333 -12.333 90 -19v-453zM309.002 603.999c-21.333 0 -40.999 3.33301 -58.999 10s-33.667 16.167 -47 28.5s-23.666 27.5 -30.999 45.5s-11 38.667 -11 62v6h81c1.33301 -21.333 7.16602 -38.5 17.499 -51.5s26.833 -19.5 49.5 -19.5
c22 0 38.167 6.5 48.5 19.5s16.5 30.167 18.5 51.5h80v-7c0 -46 -13.833 -81.667 -41.5 -107s-62.834 -38 -105.501 -38z" />
    <glyph glyph-name="Gdotaccent" unicode="&#x120;" horiz-adv-x="683" 
d="M407 598c-71.333 0 -125.834 -22.1699 -163.501 -66.5029s-56.5 -105.833 -56.5 -184.5c0 -37.333 4.5 -71.5 13.5 -102.5s22.333 -57.5 40 -79.5s39.667 -39.167 66 -51.5s57.166 -18.5 92.499 -18.5c22 0 41 0.833008 57 2.5s28.667 3.83398 38 6.50098v249h126v-333
c-17.333 -6.66699 -46.666 -14 -87.999 -22s-89 -12 -143 -12c-50 0 -95.667 8 -137 24s-76.5 39.333 -105.5 70s-51.5 68.334 -67.5 113.001s-24 96 -24 154s8.83301 109.333 26.5 154s41.834 82.5 72.501 113.5s66.667 54.5 108 70.5s85.333 24 132 24
c32 0 60.5 -2.16699 85.5 -6.5s46.5 -9.16602 64.5 -14.499s32.833 -11 44.5 -17s19.834 -10.333 24.501 -13l-38 -103c-20 12 -44.833 22.167 -74.5 30.5s-60.834 12.5 -93.501 12.5zM456.999 833.997c0 -22.667 -7.33301 -40.667 -22 -54s-32 -20 -52 -20
c-20.667 0 -38.334 6.66699 -53.001 20s-22 31.333 -22 54c0 23.333 7.33301 41.666 22 54.999s32.334 20 53.001 20c20 0 37.333 -6.66699 52 -20s22 -31.666 22 -54.999z" />
    <glyph glyph-name="gdotaccent" unicode="&#x121;" horiz-adv-x="586" 
d="M172 275c0 -51.333 11.1689 -88.832 33.502 -112.499s51.166 -35.5 86.499 -35.5c19.333 0 37.5 2.66699 54.5 8s30.833 11.666 41.5 18.999v271c-8.66699 2 -19.334 3.83301 -32.001 5.5s-28.667 2.5 -48 2.5c-44 0 -77.667 -14.5 -101 -43.5s-35 -67.167 -35 -114.5z
M509.002 53.001c0 -83.333 -21.167 -144.335 -63.5 -183.002s-107.166 -58 -194.499 -58c-32 0 -63.167 2.66699 -93.5 8s-57.833 12.333 -82.5 21l22 103c20.667 -8.66699 44.167 -15.667 70.5 -21s54.833 -8 85.5 -8c48.667 0 83.334 10 104.001 30s31 49.667 31 89v20
c-12 -6 -27.833 -12 -47.5 -18s-42.167 -9 -67.5 -9c-33.333 0 -63.833 5.33301 -91.5 16s-51.334 26.334 -71.001 47.001s-35 46.5 -46 77.5s-16.5 66.833 -16.5 107.5c0 38 5.83301 73 17.5 105s28.667 59.333 51 82s49.5 40.334 81.5 53.001s68.333 19 109 19
c39.333 0 76.666 -3 111.999 -9s65.333 -12.333 90 -19v-453zM384.002 675.999c0 -22.667 -7.33301 -40.667 -22 -54s-32 -20 -52 -20c-20.667 0 -38.334 6.66699 -53.001 20s-22 31.333 -22 54c0 23.333 7.33301 41.666 22 54.999s32.334 20 53.001 20
c20 0 37.333 -6.66699 52 -20s22 -31.666 22 -54.999z" />
    <glyph glyph-name="Gcommaaccent" unicode="&#x122;" horiz-adv-x="683" 
d="M407 598c-71.333 0 -125.834 -22.1699 -163.501 -66.5029s-56.5 -105.833 -56.5 -184.5c0 -37.333 4.5 -71.5 13.5 -102.5s22.333 -57.5 40 -79.5s39.667 -39.167 66 -51.5s57.166 -18.5 92.499 -18.5c22 0 41 0.833008 57 2.5s28.667 3.83398 38 6.50098v249h126v-333
c-17.333 -6.66699 -46.666 -14 -87.999 -22s-89 -12 -143 -12c-50 0 -95.667 8 -137 24s-76.5 39.333 -105.5 70s-51.5 68.334 -67.5 113.001s-24 96 -24 154s8.83301 109.333 26.5 154s41.834 82.5 72.501 113.5s66.667 54.5 108 70.5s85.333 24 132 24
c32 0 60.5 -2.16699 85.5 -6.5s46.5 -9.16602 64.5 -14.499s32.833 -11 44.5 -17s19.834 -10.333 24.501 -13l-38 -103c-20 12 -44.833 22.167 -74.5 30.5s-60.834 12.5 -93.501 12.5zM443.999 -51.0029c0.666992 -5.33301 1.16602 -10.9971 1.49902 -16.9971
s0.5 -10 0.5 -12c0 -23.333 -3.66699 -42.833 -11 -58.5s-17 -28.334 -29 -38.001s-25.833 -16.667 -41.5 -21s-31.834 -6.5 -48.501 -6.5c-9.33301 0 -18.166 0.5 -26.499 1.5s-14.166 2.16699 -17.499 3.5v70c10 0 19.167 0.666992 27.5 2s15.5 4.16602 21.5 8.49902
s10.667 10.666 14 18.999s5 19.833 5 34.5v14h104z" />
    <glyph glyph-name="gcommaaccent" unicode="&#x123;" horiz-adv-x="586" 
d="M172 275c0 -51.333 11.1689 -88.832 33.502 -112.499s51.166 -35.5 86.499 -35.5c19.333 0 37.5 2.66699 54.5 8s30.833 11.666 41.5 18.999v271c-8.66699 2 -19.334 3.83301 -32.001 5.5s-28.667 2.5 -48 2.5c-44 0 -77.667 -14.5 -101 -43.5s-35 -67.167 -35 -114.5z
M509.002 53.001c0 -83.333 -21.167 -144.335 -63.5 -183.002s-107.166 -58 -194.499 -58c-32 0 -63.167 2.66699 -93.5 8s-57.833 12.333 -82.5 21l22 103c20.667 -8.66699 44.167 -15.667 70.5 -21s54.833 -8 85.5 -8c48.667 0 83.334 10 104.001 30s31 49.667 31 89v20
c-12 -6 -27.833 -12 -47.5 -18s-42.167 -9 -67.5 -9c-33.333 0 -63.833 5.33301 -91.5 16s-51.334 26.334 -71.001 47.001s-35 46.5 -46 77.5s-16.5 66.833 -16.5 107.5c0 38 5.83301 73 17.5 105s28.667 59.333 51 82s49.5 40.334 81.5 53.001s68.333 19 109 19
c39.333 0 76.666 -3 111.999 -9s65.333 -12.333 90 -19v-453zM255.002 603.999c-0.666992 3.33301 -1.00098 7.00391 -1.00098 11.0039v11c0 38.667 10.5 72 31.5 100s51.833 48.333 92.5 61l41 -57c-9.33301 -6.66699 -17.666 -13.334 -24.999 -20.001
s-13.5 -14.334 -18.5 -23.001s-8.83301 -18.834 -11.5 -30.501s-4 -25.834 -4 -42.501v-10h-105z" />
    <glyph glyph-name="Hcircumflex" unicode="&#x124;" horiz-adv-x="719" 
d="M510 693h126v-693h-126v307h-301v-307h-126v693h126v-277h301v277zM505 796l-47 -53l-99 81l-98 -81l-48 53l146 140z" />
    <glyph glyph-name="hcircumflex" unicode="&#x125;" horiz-adv-x="582" 
d="M77 0l-0.000976562 756l121 20v-259c13.333 4.66699 28.833 8.66699 46.5 12s35.167 5 52.5 5c42 0 76.833 -5.83301 104.5 -17.5s49.834 -28 66.501 -49s28.5 -46.167 35.5 -75.5s10.5 -62 10.5 -98v-294h-121v275c0 28 -1.83301 51.833 -5.5 71.5
s-9.66699 35.667 -18 48s-19.5 21.333 -33.5 27s-31.333 8.5 -52 8.5c-16 0 -32.333 -1.66699 -49 -5s-29 -6.33301 -37 -9v-416h-121zM325.999 862l-36 -55l-99 60l-99 -60l-36 55l135 101z" />
    <glyph glyph-name="Hbar" unicode="&#x126;" horiz-adv-x="747" 
d="M16 603h81v90h126v-90h301v90h126v-90h81v-91h-81v-512h-126v307h-301v-307h-126v512h-81v91zM524 512h-301v-96h301v96z" />
    <glyph glyph-name="hbar" unicode="&#x127;" horiz-adv-x="582" 
d="M198 605l-0.000976562 -97c13.333 4.66699 28.833 8.66699 46.5 12s35.167 5 52.5 5c42 0 76.833 -5.83301 104.5 -17.5s49.834 -28 66.501 -49s28.5 -46.167 35.5 -75.5s10.5 -62 10.5 -98v-285h-121v266c0 28 -1.83301 51.833 -5.5 71.5s-9.66699 35.667 -18 48
s-19.5 21.333 -33.5 27s-31.333 8.5 -52 8.5c-16 0 -32.333 -1.66699 -49 -5s-29 -6.33301 -37 -9v-407h-121v605h-68v81h68v70l121 20v-90h160v-81h-160z" />
    <glyph glyph-name="Itilde" unicode="&#x128;" horiz-adv-x="292" 
d="M83 693h126v-693h-126v693zM306.5 838.5c-6.33301 -11 -14.166 -21.335 -23.499 -31.002s-20 -17.834 -32 -24.501s-25.333 -10 -40 -10c-12 0 -23.333 1.83301 -34 5.5s-21.167 7.83398 -31.5 12.501s-20.333 8.83398 -30 12.501s-19.167 5.5 -28.5 5.5
c-12.667 0 -23.5 -4.33301 -32.5 -13s-16.167 -18.667 -21.5 -30l-61 36c3.33301 9.33301 8.16602 19.5 14.499 30.5s14.333 21.333 24 31s20.5 17.834 32.5 24.501s25.333 10 40 10c12 0 23.333 -2 34 -6s21.167 -8.16699 31.5 -12.5s20.333 -8.5 30 -12.5
s19.167 -6 28.5 -6c12.667 0 23.5 4.5 32.5 13.5s16.167 19.167 21.5 30.5l61 -36c-4 -9.33301 -9.16699 -19.5 -15.5 -30.5z" />
    <glyph glyph-name="itilde" unicode="&#x129;" horiz-adv-x="276" 
d="M199 0h-121v523h121v-523zM283.5 679.5c-6.33301 -11 -14.166 -21.335 -23.499 -31.002s-20 -17.834 -32 -24.501s-25.333 -10 -40 -10c-12 0 -23.333 1.83301 -34 5.5s-21.167 7.83398 -31.5 12.501s-20.333 8.83398 -30 12.501s-19.167 5.5 -28.5 5.5
c-12.667 0 -23.5 -4.33301 -32.5 -13s-16.167 -18.667 -21.5 -30l-61 36c3.33301 9.33301 8.16602 19.5 14.499 30.5s14.333 21.333 24 31s20.5 17.834 32.5 24.501s25.333 10 40 10c12 0 23.333 -2 34 -6s21.167 -8.16699 31.5 -12.5s20.333 -8.5 30 -12.5
s19.167 -6 28.5 -6c12.667 0 23.5 4.5 32.5 13.5s16.167 19.167 21.5 30.5l61 -36c-4 -9.33301 -9.16699 -19.5 -15.5 -30.5z" />
    <glyph glyph-name="Imacron" unicode="&#x12a;" horiz-adv-x="292" 
d="M83 693h126v-693h-126v693zM298 872v-87h-303v87h303z" />
    <glyph glyph-name="imacron" unicode="&#x12b;" horiz-adv-x="276" 
d="M199 0h-121v523h121v-523zM275 718v-87h-303v87h303z" />
    <glyph glyph-name="Ibreve" unicode="&#x12c;" horiz-adv-x="292" 
d="M83 693h126v-693h-126v693zM152 758c-21.333 0 -40.999 3.33301 -58.999 10s-33.667 16.167 -47 28.5s-23.666 27.5 -30.999 45.5s-11 38.667 -11 62v6h81c1.33301 -21.333 7.16602 -38.5 17.499 -51.5s26.833 -19.5 49.5 -19.5c22 0 38.167 6.5 48.5 19.5
s16.5 30.167 18.5 51.5h80v-7c0 -46 -13.833 -81.667 -41.5 -107s-62.834 -38 -105.501 -38z" />
    <glyph glyph-name="ibreve" unicode="&#x12d;" horiz-adv-x="276" 
d="M199 0h-121v523h121v-523zM124 604c-21.333 0 -40.999 3.33301 -58.999 10s-33.667 16.167 -47 28.5s-23.666 27.5 -30.999 45.5s-11 38.667 -11 62v6h81c1.33301 -21.333 7.16602 -38.5 17.499 -51.5s26.833 -19.5 49.5 -19.5c22 0 38.167 6.5 48.5 19.5
s16.5 30.167 18.5 51.5h80v-7c0 -46 -13.833 -81.667 -41.5 -107s-62.834 -38 -105.501 -38z" />
    <glyph glyph-name="Iogonek" unicode="&#x12e;" horiz-adv-x="292" 
d="M86 693l125.999 -0.00195312v-693c-7.33301 -6 -15.333 -12.667 -24 -20s-16.667 -15.166 -24 -23.499s-13.666 -16.666 -18.999 -24.999s-8 -15.833 -8 -22.5c0 -18 11.667 -27 35 -27c5.33301 0 12 0.5 20 1.5s16.667 3.16699 26 6.5l9 -81
c-10 -4 -22.667 -7.16699 -38 -9.5s-30 -3.5 -44 -3.5c-40 0 -69.667 7.16699 -89 21.5s-29 33.5 -29 57.5c0 14 2.83301 27 8.5 39s13.167 23.167 22.5 33.5s19.833 19.833 31.5 28.5s23.5 16.667 35.5 24h-39v693z" />
    <glyph glyph-name="iogonek" unicode="&#x12f;" horiz-adv-x="276" 
d="M132 -204c-40 0 -69.501 7.16699 -88.501 21.5s-28.5 33.5 -28.5 57.5c0 13.333 2.66699 26 8 38s12.5 23.167 21.5 33.5s19.333 20 31 29s23.834 17.167 36.501 24.5h-34v523h121v-523c-8 -6 -16.333 -13 -25 -21s-16.667 -16 -24 -24s-13.5 -16 -18.5 -24
s-7.5 -15.333 -7.5 -22c0 -18 11.667 -27 35 -27c5.33301 0 12 0.5 20 1.5s16.667 3.16699 26 6.5l10 -81c-10.667 -4 -23.5 -7.16699 -38.5 -9.5s-29.833 -3.5 -44.5 -3.5zM211.999 676c0 -22.667 -7.33301 -40.667 -22 -54s-32 -20 -52 -20
c-20.667 0 -38.334 6.66699 -53.001 20s-22 31.333 -22 54c0 23.333 7.33301 41.666 22 54.999s32.334 20 53.001 20c20 0 37.333 -6.66699 52 -20s22 -31.666 22 -54.999z" />
    <glyph glyph-name="Idotaccent" unicode="&#x130;" horiz-adv-x="292" 
d="M83 693h126v-693h-126v693zM220 834c0 -22.667 -7.33301 -40.667 -22 -54s-32 -20 -52 -20c-20.667 0 -38.334 6.66699 -53.001 20s-22 31.333 -22 54c0 23.333 7.33301 41.666 22 54.999s32.334 20 53.001 20c20 0 37.333 -6.66699 52 -20s22 -31.666 22 -54.999z" />
    <glyph glyph-name="dotlessi" unicode="&#x131;" horiz-adv-x="276" 
d="M199 0h-121v523h121v-523z" />
    <glyph glyph-name="IJ" unicode="&#x132;" horiz-adv-x="809" 
d="M83 693h126v-693h-126v693zM731 228c0 -34 -3.66797 -65.668 -11.001 -95.001s-20.166 -55 -38.499 -77s-43 -39.333 -74 -52s-70.167 -19 -117.5 -19c-44 0 -82.167 6.16699 -114.5 18.5s-57.166 25.5 -74.499 39.5l45 99c16.667 -11.333 37.167 -22.166 61.5 -32.499
s49.166 -15.5 74.499 -15.5c42.667 0 73.667 10.667 93 32s29 58 29 110v457h127v-465z" />
    <glyph glyph-name="ij" unicode="&#x133;" horiz-adv-x="548" 
d="M199 0h-121v523h121v-523zM212 676c0 -22.667 -7.33301 -40.667 -22 -54s-32 -20 -52 -20c-20.667 0 -38.334 6.66699 -53.001 20s-22 31.333 -22 54c0 23.333 7.33301 41.666 22 54.999s32.334 20 53.001 20c20 0 37.333 -6.66699 52 -20s22 -31.666 22 -54.999z
M283 -186c-8.66699 0 -20.834 0.832031 -36.501 2.49902s-29.5 4.83398 -41.5 9.50098l16 99c14.667 -4.66699 32.334 -7 53.001 -7c28 0 47.667 8.16699 59 24.5s17 40.833 17 73.5v507h121v-509c0 -68 -16.167 -118.333 -48.5 -151s-78.833 -49 -139.5 -49zM484 675.999
c0 -22.667 -7.33301 -40.667 -22 -54s-32 -20 -52 -20c-20.667 0 -38.334 6.66699 -53.001 20s-22 31.333 -22 54c0 23.333 7.33301 41.666 22 54.999s32.334 20 53.001 20c20 0 37.333 -6.66699 52 -20s22 -31.666 22 -54.999z" />
    <glyph glyph-name="Jcircumflex" unicode="&#x134;" horiz-adv-x="513" 
d="M435 228c0 -34 -3.66797 -65.668 -11.001 -95.001s-20.166 -55 -38.499 -77s-43 -39.333 -74 -52s-70.167 -19 -117.5 -19c-44 0 -82.167 6.16699 -114.5 18.5s-57.166 25.5 -74.499 39.5l45 99c16.667 -11.333 37.167 -22.166 61.5 -32.499s49.166 -15.5 74.499 -15.5
c42.667 0 73.667 10.667 93 32s29 58 29 110v457h127v-465zM515.999 795.999l-47 -53l-99 81l-98 -81l-48 53l146 140z" />
    <glyph glyph-name="jcircumflex" unicode="&#x135;" horiz-adv-x="275" 
d="M10 -186c-8.66699 0 -20.834 0.832031 -36.501 2.49902s-29.5 4.83398 -41.5 9.50098l16 99c14.667 -4.66699 32.334 -7 53.001 -7c28 0 47.667 8.16699 59 24.5s17 40.833 17 73.5v507h121v-509c0 -68 -16.167 -118.333 -48.5 -151s-78.833 -49 -139.5 -49zM282 634.999
l-47 -53l-99 81l-98 -81l-48 53l146 140z" />
    <glyph glyph-name="Kcommaaccent" unicode="&#x136;" horiz-adv-x="651" 
d="M497 0c-17.333 26.667 -37.333 54.665 -60 83.998s-46.5 57.666 -71.5 84.999s-50.833 53.333 -77.5 78s-53 46 -79 64v-311h-126v693h126v-286c22 22 45 45.5 69 70.5s47.833 50.333 71.5 76s46.167 50.5 67.5 74.5s40.666 45.667 57.999 65h151
c-22 -25.333 -45.333 -51.666 -70 -78.999s-50 -54.833 -76 -82.5s-52.167 -55.167 -78.5 -82.5s-52.166 -53.333 -77.499 -78c28 -21.333 56.5 -46.166 85.5 -74.499s57.5 -58.666 85.5 -90.999s54.833 -66 80.5 -101s49.167 -69.833 70.5 -104.5h-149zM402 -51.002
c0.666992 -5.33301 1.16602 -10.9971 1.49902 -16.9971s0.5 -10 0.5 -12c0 -23.333 -3.66699 -42.833 -11 -58.5s-17 -28.334 -29 -38.001s-25.833 -16.667 -41.5 -21s-31.834 -6.5 -48.501 -6.5c-9.33301 0 -18.166 0.5 -26.499 1.5s-14.166 2.16699 -17.499 3.5v70
c10 0 19.167 0.666992 27.5 2s15.5 4.16602 21.5 8.49902s10.667 10.666 14 18.999s5 19.833 5 34.5v14h104z" />
    <glyph glyph-name="kcommaaccent" unicode="&#x137;" horiz-adv-x="551" 
d="M198 319c15.333 16 31.667 33.1709 49 51.5039s34.333 36.666 51 54.999s32.5 36 47.5 53s27.833 31.833 38.5 44.5h143c-33.333 -37.333 -68.5 -76 -105.5 -116s-74.167 -79 -111.5 -117c20 -16.667 41 -36.834 63 -60.501s43.333 -48.834 64 -75.501
s40 -53.334 58 -80.001s33 -51.334 45 -74.001h-140c-12 20.667 -25.833 42.334 -41.5 65.001s-32.5 44.667 -50.5 66s-36.333 41.5 -55 60.5s-37 35.167 -55 48.5v-240h-121v756l121 20v-457zM346.001 -50.9961c0.666992 -5.33301 1.16602 -10.9971 1.49902 -16.9971
s0.5 -10 0.5 -12c0 -23.333 -3.66699 -42.833 -11 -58.5s-17 -28.334 -29 -38.001s-25.833 -16.667 -41.5 -21s-31.834 -6.5 -48.501 -6.5c-9.33301 0 -18.166 0.5 -26.499 1.5s-14.166 2.16699 -17.499 3.5v70c10 0 19.167 0.666992 27.5 2s15.5 4.16602 21.5 8.49902
s10.667 10.666 14 18.999s5 19.833 5 34.5v14h104z" />
    <glyph glyph-name="kgreenlandic" unicode="&#x138;" horiz-adv-x="560" 
d="M198 313c15.333 15.333 31.998 32.5 49.998 51.5s35.833 38.167 53.5 57.5s34.5 37.833 50.5 55.5s29.333 32.834 40 45.501h142c-14.667 -17.333 -31.5 -36.333 -50.5 -57s-38.667 -41.834 -59 -63.501s-40.333 -42.667 -60 -63s-37.5 -38.5 -53.5 -54.5
c20.667 -17.333 42.167 -37.5 64.5 -60.5s44.333 -47.333 66 -73s41.834 -51.667 60.501 -78s34.334 -50.833 47.001 -73.5h-140c-12.667 20 -27.5 41 -44.5 63s-34.833 43.5 -53.5 64.5s-37.667 40.833 -57 59.5s-38 34.667 -56 48v-235h-121v523h121v-210z" />
    <glyph glyph-name="Lacute" unicode="&#x139;" horiz-adv-x="534" 
d="M521 109v-109h-438v693h126v-584h312zM303 899l-163 -158l-60 54l147 175z" />
    <glyph glyph-name="lacute" unicode="&#x13a;" horiz-adv-x="297" 
d="M259 -10c-36 0.666992 -65.833 4.66699 -89.5 12s-42.5 17.833 -56.5 31.5s-23.833 30.667 -29.5 51s-8.5 43.5 -8.5 69.5v602l121 20v-599c0 -14.667 1.16699 -27 3.5 -37s6.5 -18.5 12.5 -25.5s14.167 -12.333 24.5 -16s23.5 -6.5 39.5 -8.5zM81 814l-31 69l190 94
l40 -89z" />
    <glyph glyph-name="Lcommaaccent" unicode="&#x13b;" horiz-adv-x="534" 
d="M521 109v-109h-438v693h126v-584h312zM368 -51c0.666992 -5.33301 1.16602 -10.9971 1.49902 -16.9971s0.5 -10 0.5 -12c0 -23.333 -3.66699 -42.833 -11 -58.5s-17 -28.334 -29 -38.001s-25.833 -16.667 -41.5 -21s-31.834 -6.5 -48.501 -6.5
c-9.33301 0 -18.166 0.5 -26.499 1.5s-14.166 2.16699 -17.499 3.5v70c10 0 19.167 0.666992 27.5 2s15.5 4.16602 21.5 8.49902s10.667 10.666 14 18.999s5 19.833 5 34.5v14h104z" />
    <glyph glyph-name="lcommaaccent" unicode="&#x13c;" horiz-adv-x="297" 
d="M259 -10c-36 0.666992 -65.833 4.66699 -89.5 12s-42.5 17.833 -56.5 31.5s-23.833 30.667 -29.5 51s-8.5 43.5 -8.5 69.5v602l121 20v-599c0 -14.667 1.16699 -27 3.5 -37s6.5 -18.5 12.5 -25.5s14.167 -12.333 24.5 -16s23.5 -6.5 39.5 -8.5zM216 -51
c0.666992 -5.33301 1.16602 -10.9971 1.49902 -16.9971s0.5 -10 0.5 -12c0 -23.333 -3.66699 -42.833 -11 -58.5s-17 -28.334 -29 -38.001s-25.833 -16.667 -41.5 -21s-31.834 -6.5 -48.501 -6.5c-9.33301 0 -18.166 0.5 -26.499 1.5s-14.166 2.16699 -17.499 3.5v70
c10 0 19.167 0.666992 27.5 2s15.5 4.16602 21.5 8.49902s10.667 10.666 14 18.999s5 19.833 5 34.5v14h104z" />
    <glyph glyph-name="Lcaron" unicode="&#x13d;" horiz-adv-x="534" 
d="M521 109v-109h-438v693h126v-584h312zM418 694l-29 -234h-82v234h111z" />
    <glyph glyph-name="lcaron" unicode="&#x13e;" horiz-adv-x="359" 
d="M259 -10c-36 0.666992 -65.833 4.66699 -89.5 12s-42.5 17.833 -56.5 31.5s-23.833 30.667 -29.5 51s-8.5 43.5 -8.5 69.5v602l121 20v-599c0 -14.667 1.16699 -27 3.5 -37s6.5 -18.5 12.5 -25.5s14.167 -12.333 24.5 -16s23.5 -6.5 39.5 -8.5zM393 776l-29 -234h-82v234
h111z" />
    <glyph glyph-name="Ldot" unicode="&#x13f;" horiz-adv-x="534" 
d="M521 109v-109h-438v693h126v-584h312zM490 384c0 -22.667 -7.33301 -40.667 -22 -54s-32 -20 -52 -20c-20.667 0 -38.334 6.66699 -53.001 20s-22 31.333 -22 54c0 23.333 7.33301 41.666 22 54.999s32.334 20 53.001 20c20 0 37.333 -6.66699 52 -20
s22 -31.666 22 -54.999z" />
    <glyph glyph-name="ldot" unicode="&#x140;" horiz-adv-x="433" 
d="M259 -10c-36 0.666992 -65.833 4.66699 -89.5 12s-42.5 17.833 -56.5 31.5s-23.833 30.667 -29.5 51s-8.5 43.5 -8.5 69.5v602l121 20v-599c0 -14.667 1.16699 -27 3.5 -37s6.5 -18.5 12.5 -25.5s14.167 -12.333 24.5 -16s23.5 -6.5 39.5 -8.5zM430 389
c0 -22.667 -7.33301 -40.667 -22 -54s-32 -20 -52 -20c-20.667 0 -38.334 6.66699 -53.001 20s-22 31.333 -22 54c0 23.333 7.33301 41.666 22 54.999s32.334 20 53.001 20c20 0 37.333 -6.66699 52 -20s22 -31.666 22 -54.999z" />
    <glyph glyph-name="Lslash" unicode="&#x141;" horiz-adv-x="554" 
d="M-5 319l108 55v319h126v-255l120 61l40 -83l-160 -82v-225h312v-109h-438v270l-67 -34z" />
    <glyph glyph-name="lslash" unicode="&#x142;" horiz-adv-x="324" 
d="M0 383l98 49v324l121 20v-283l72 37l38 -77l-110 -56v-220c0 -14.667 1.16699 -27 3.5 -37s6.5 -18.5 12.5 -25.5s14.167 -12.333 24.5 -16s23.5 -6.5 39.5 -8.5l-17 -100c-36 0.666992 -65.833 4.66699 -89.5 12s-42.5 17.833 -56.5 31.5s-23.833 30.667 -29.5 51
s-8.5 43.5 -8.5 69.5v182l-59 -30z" />
    <glyph glyph-name="Nacute" unicode="&#x143;" horiz-adv-x="740" 
d="M550 0c-22.667 38 -48.001 78.832 -76.001 122.499s-57 87.667 -87 132s-60.5 87.333 -91.5 129s-60.5 79.167 -88.5 112.5v-496h-124v693h103c26.667 -28 55.334 -61.167 86.001 -99.5s61.5 -78.166 92.5 -119.499s61 -82.833 90 -124.5s54.833 -80.5 77.5 -116.5v460
h125v-693h-107zM501.999 898.999l-163 -158l-60 54l147 175z" />
    <glyph glyph-name="nacute" unicode="&#x144;" horiz-adv-x="585" 
d="M77 506c23.333 6.66699 53.666 13 90.999 19s78.666 9 123.999 9c42.667 0 78.334 -5.83301 107.001 -17.5s51.5 -28 68.5 -49s29 -46.333 36 -76s10.5 -62.167 10.5 -97.5v-294h-121v275c0 28 -1.83301 51.833 -5.5 71.5s-9.66699 35.667 -18 48
s-19.666 21.333 -33.999 27s-31.833 8.5 -52.5 8.5c-15.333 0 -31.333 -1 -48 -3s-29 -3.66699 -37 -5v-422h-121v506zM422 737l-163 -158l-60 54l147 175z" />
    <glyph glyph-name="Ncommaaccent" unicode="&#x145;" horiz-adv-x="740" 
d="M550 0c-22.667 38 -48.001 78.832 -76.001 122.499s-57 87.667 -87 132s-60.5 87.333 -91.5 129s-60.5 79.167 -88.5 112.5v-496h-124v693h103c26.667 -28 55.334 -61.167 86.001 -99.5s61.5 -78.166 92.5 -119.499s61 -82.833 90 -124.5s54.833 -80.5 77.5 -116.5v460
h125v-693h-107zM430.999 -51.001c0.666992 -5.33301 1.16602 -10.9971 1.49902 -16.9971s0.5 -10 0.5 -12c0 -23.333 -3.66699 -42.833 -11 -58.5s-17 -28.334 -29 -38.001s-25.833 -16.667 -41.5 -21s-31.834 -6.5 -48.501 -6.5c-9.33301 0 -18.166 0.5 -26.499 1.5
s-14.166 2.16699 -17.499 3.5v70c10 0 19.167 0.666992 27.5 2s15.5 4.16602 21.5 8.49902s10.667 10.666 14 18.999s5 19.833 5 34.5v14h104z" />
    <glyph glyph-name="ncommaaccent" unicode="&#x146;" horiz-adv-x="585" 
d="M77 506c23.333 6.66699 53.666 13 90.999 19s78.666 9 123.999 9c42.667 0 78.334 -5.83301 107.001 -17.5s51.5 -28 68.5 -49s29 -46.333 36 -76s10.5 -62.167 10.5 -97.5v-294h-121v275c0 28 -1.83301 51.833 -5.5 71.5s-9.66699 35.667 -18 48
s-19.666 21.333 -33.999 27s-31.833 8.5 -52.5 8.5c-15.333 0 -31.333 -1 -48 -3s-29 -3.66699 -37 -5v-422h-121v506zM349 -51c0.666992 -5.33301 1.16602 -10.9971 1.49902 -16.9971s0.5 -10 0.5 -12c0 -23.333 -3.66699 -42.833 -11 -58.5s-17 -28.334 -29 -38.001
s-25.833 -16.667 -41.5 -21s-31.834 -6.5 -48.501 -6.5c-9.33301 0 -18.166 0.5 -26.499 1.5s-14.166 2.16699 -17.499 3.5v70c10 0 19.167 0.666992 27.5 2s15.5 4.16602 21.5 8.49902s10.667 10.666 14 18.999s5 19.833 5 34.5v14h104z" />
    <glyph glyph-name="Ncaron" unicode="&#x147;" horiz-adv-x="740" 
d="M550 0c-22.667 38 -48.001 78.832 -76.001 122.499s-57 87.667 -87 132s-60.5 87.333 -91.5 129s-60.5 79.167 -88.5 112.5v-496h-124v693h103c26.667 -28 55.334 -61.167 86.001 -99.5s61.5 -78.166 92.5 -119.499s61 -82.833 90 -124.5s54.833 -80.5 77.5 -116.5v460
h125v-693h-107zM362.999 743.999l-146 140l48 53l98 -81l99 81l47 -53z" />
    <glyph glyph-name="ncaron" unicode="&#x148;" horiz-adv-x="585" 
d="M77 506c23.333 6.66699 53.666 13 90.999 19s78.666 9 123.999 9c42.667 0 78.334 -5.83301 107.001 -17.5s51.5 -28 68.5 -49s29 -46.333 36 -76s10.5 -62.167 10.5 -97.5v-294h-121v275c0 28 -1.83301 51.833 -5.5 71.5s-9.66699 35.667 -18 48
s-19.666 21.333 -33.999 27s-31.833 8.5 -52.5 8.5c-15.333 0 -31.333 -1 -48 -3s-29 -3.66699 -37 -5v-422h-121v506zM287 586l-146 140l48 53l98 -81l99 81l47 -53z" />
    <glyph glyph-name="napostrophe" unicode="&#x149;" horiz-adv-x="598" 
d="M91 506c23.333 6.66699 53.666 13 90.999 19s78.666 9 123.999 9c42.667 0 78.334 -5.83301 107.001 -17.5s51.5 -28 68.5 -49s29 -46.333 36 -76s10.5 -62.167 10.5 -97.5v-294h-121v275c0 28 -1.83301 51.833 -5.5 71.5s-9.66699 35.667 -18 48
s-19.666 21.333 -33.999 27s-31.833 8.5 -52.5 8.5c-15.333 0 -31.333 -1 -48 -3s-29 -3.66699 -37 -5v-422h-121v506zM137.5 708.5c-3 -20.333 -7.16797 -39.332 -12.501 -56.999s-12 -34.5 -20 -50.5s-17.333 -32 -28 -48l-82 25c13.333 28 22.833 54.167 28.5 78.5
s8.5 50.166 8.5 77.499c0 7.33301 -0.166992 15 -0.5 23s-1.16602 14.333 -2.49902 19h113c0 -24.667 -1.5 -47.167 -4.5 -67.5z" />
    <glyph glyph-name="Eng" unicode="&#x14a;" horiz-adv-x="740" 
d="M532 33c-23.333 36.667 -48.332 75.667 -74.999 117s-54.334 82.5 -83.001 123.5s-57.167 80.667 -85.5 119s-55.5 72.833 -81.5 103.5v-496h-124v693h102c26.667 -28 55.5 -61 86.5 -99s62 -77.667 93 -119s60.833 -83 89.5 -125s54.667 -81 78 -117v460h125v-685
c0 -32.667 -2.83301 -61.167 -8.5 -85.5s-15.334 -44.666 -29.001 -60.999s-31.5 -28.5 -53.5 -36.5s-49 -12 -81 -12c-9.33301 0 -21.166 0.833008 -35.499 2.5s-27.5 4.16699 -39.5 7.5l15 97c7.33301 -2.66699 14.833 -4.33398 22.5 -5.00098s16.167 -1 25.5 -1
c22.667 0 38.167 7.5 46.5 22.5s12.5 36.833 12.5 65.5v31z" />
    <glyph glyph-name="eng" unicode="&#x14b;" horiz-adv-x="585" 
d="M393 275c0 28 -1.83594 51.833 -5.50293 71.5s-9.66699 35.667 -18 48s-19.666 21.333 -33.999 27s-31.833 8.5 -52.5 8.5c-15.333 0 -31.333 -1 -48 -3s-29 -3.66699 -37 -5v-422h-121v506c23.333 6.66699 53.666 13 90.999 19s78.666 9 123.999 9
c42.667 0 78.334 -5.83301 107.001 -17.5s51.5 -28 68.5 -49s29 -46.333 36 -76s10.5 -62.167 10.5 -97.5v-293c0 -31.333 -2.83301 -58.666 -8.5 -81.999s-15 -42.833 -28 -58.5s-30.167 -27.334 -51.5 -35.001s-48 -11.5 -80 -11.5
c-9.33301 0 -20.666 0.833008 -33.999 2.5s-25.666 4.16699 -36.999 7.5l13 90c6.66699 -2 13.834 -3.5 21.501 -4.5s15.167 -1.5 22.5 -1.5c22 0 37.667 6.83301 47 20.5s14 34.167 14 61.5v285z" />
    <glyph glyph-name="Omacron" unicode="&#x14c;" horiz-adv-x="782" 
d="M186 347c0 -38 4.66699 -72.5 14 -103.5s22.833 -57.333 40.5 -79s39.167 -38.5 64.5 -50.5s54 -18 86 -18c31.333 0 59.666 6 84.999 18s46.833 28.833 64.5 50.5s31.167 48 40.5 79s14 65.5 14 103.5s-4.66699 72.5 -14 103.5s-22.833 57.333 -40.5 79
s-39.167 38.5 -64.5 50.5s-53.666 18 -84.999 18c-32 0 -60.667 -6 -86 -18s-46.833 -29 -64.5 -51s-31.167 -48.333 -40.5 -79s-14 -65 -14 -103zM727 347c0 -59.333 -8.83301 -111.666 -26.5 -156.999s-41.667 -83.166 -72 -113.499s-65.833 -53.166 -106.5 -68.499
s-84 -23 -130 -23s-89.5 7.66699 -130.5 23s-76.667 38.166 -107 68.499s-54.5 68.166 -72.5 113.499s-27 97.666 -27 156.999s9 111.5 27 156.5s42.5 82.833 73.5 113.5s66.833 53.667 107.5 69s83.667 23 129 23s88.333 -7.66699 129 -23s76.167 -38.333 106.5 -69
s54.5 -68.5 72.5 -113.5s27 -97.167 27 -156.5zM542 872v-87h-303v87h303z" />
    <glyph glyph-name="omacron" unicode="&#x14d;" horiz-adv-x="598" 
d="M550 262c0 -41.333 -6 -79 -18 -113s-29 -63 -51 -87s-48.5 -42.667 -79.5 -56s-65.167 -20 -102.5 -20s-71.333 6.66699 -102 20s-57 32 -79 56s-39.167 53 -51.5 87s-18.5 71.667 -18.5 113s6.16699 78.833 18.5 112.5s29.666 62.5 51.999 86.5s48.833 42.5 79.5 55.5
s64.334 19.5 101.001 19.5s70.5 -6.5 101.5 -19.5s57.5 -31.5 79.5 -55.5s39.167 -52.833 51.5 -86.5s18.5 -71.167 18.5 -112.5zM426 262c0 52 -11.167 93.167 -33.5 123.5s-53.5 45.5 -93.5 45.5s-71.167 -15.167 -93.5 -45.5s-33.5 -71.5 -33.5 -123.5
c0 -52.667 11.167 -94.334 33.5 -125.001s53.5 -46 93.5 -46s71.167 15.333 93.5 46s33.5 72.334 33.5 125.001zM450 718v-87h-303v87h303z" />
    <glyph glyph-name="Obreve" unicode="&#x14e;" horiz-adv-x="782" 
d="M186 347c0 -38 4.66699 -72.5 14 -103.5s22.833 -57.333 40.5 -79s39.167 -38.5 64.5 -50.5s54 -18 86 -18c31.333 0 59.666 6 84.999 18s46.833 28.833 64.5 50.5s31.167 48 40.5 79s14 65.5 14 103.5s-4.66699 72.5 -14 103.5s-22.833 57.333 -40.5 79
s-39.167 38.5 -64.5 50.5s-53.666 18 -84.999 18c-32 0 -60.667 -6 -86 -18s-46.833 -29 -64.5 -51s-31.167 -48.333 -40.5 -79s-14 -65 -14 -103zM727 347c0 -59.333 -8.83301 -111.666 -26.5 -156.999s-41.667 -83.166 -72 -113.499s-65.833 -53.166 -106.5 -68.499
s-84 -23 -130 -23s-89.5 7.66699 -130.5 23s-76.667 38.166 -107 68.499s-54.5 68.166 -72.5 113.499s-27 97.666 -27 156.999s9 111.5 27 156.5s42.5 82.833 73.5 113.5s66.833 53.667 107.5 69s83.667 23 129 23s88.333 -7.66699 129 -23s76.167 -38.333 106.5 -69
s54.5 -68.5 72.5 -113.5s27 -97.167 27 -156.5zM391 758c-21.333 0 -40.999 3.33301 -58.999 10s-33.667 16.167 -47 28.5s-23.666 27.5 -30.999 45.5s-11 38.667 -11 62v6h81c1.33301 -21.333 7.16602 -38.5 17.499 -51.5s26.833 -19.5 49.5 -19.5
c22 0 38.167 6.5 48.5 19.5s16.5 30.167 18.5 51.5h80v-7c0 -46 -13.833 -81.667 -41.5 -107s-62.834 -38 -105.501 -38z" />
    <glyph glyph-name="obreve" unicode="&#x14f;" horiz-adv-x="598" 
d="M550 262c0 -41.333 -6 -79 -18 -113s-29 -63 -51 -87s-48.5 -42.667 -79.5 -56s-65.167 -20 -102.5 -20s-71.333 6.66699 -102 20s-57 32 -79 56s-39.167 53 -51.5 87s-18.5 71.667 -18.5 113s6.16699 78.833 18.5 112.5s29.666 62.5 51.999 86.5s48.833 42.5 79.5 55.5
s64.334 19.5 101.001 19.5s70.5 -6.5 101.5 -19.5s57.5 -31.5 79.5 -55.5s39.167 -52.833 51.5 -86.5s18.5 -71.167 18.5 -112.5zM426 262c0 52 -11.167 93.167 -33.5 123.5s-53.5 45.5 -93.5 45.5s-71.167 -15.167 -93.5 -45.5s-33.5 -71.5 -33.5 -123.5
c0 -52.667 11.167 -94.334 33.5 -125.001s53.5 -46 93.5 -46s71.167 15.333 93.5 46s33.5 72.334 33.5 125.001zM299 604c-21.333 0 -40.999 3.33301 -58.999 10s-33.667 16.167 -47 28.5s-23.666 27.5 -30.999 45.5s-11 38.667 -11 62v6h81
c1.33301 -21.333 7.16602 -38.5 17.499 -51.5s26.833 -19.5 49.5 -19.5c22 0 38.167 6.5 48.5 19.5s16.5 30.167 18.5 51.5h80v-7c0 -46 -13.833 -81.667 -41.5 -107s-62.834 -38 -105.501 -38z" />
    <glyph glyph-name="Ohungarumlaut" unicode="&#x150;" horiz-adv-x="782" 
d="M186 347c0 -38 4.66699 -72.5 14 -103.5s22.833 -57.333 40.5 -79s39.167 -38.5 64.5 -50.5s54 -18 86 -18c31.333 0 59.666 6 84.999 18s46.833 28.833 64.5 50.5s31.167 48 40.5 79s14 65.5 14 103.5s-4.66699 72.5 -14 103.5s-22.833 57.333 -40.5 79
s-39.167 38.5 -64.5 50.5s-53.666 18 -84.999 18c-32 0 -60.667 -6 -86 -18s-46.833 -29 -64.5 -51s-31.167 -48.333 -40.5 -79s-14 -65 -14 -103zM727 347c0 -59.333 -8.83301 -111.666 -26.5 -156.999s-41.667 -83.166 -72 -113.499s-65.833 -53.166 -106.5 -68.499
s-84 -23 -130 -23s-89.5 7.66699 -130.5 23s-76.667 38.166 -107 68.499s-54.5 68.166 -72.5 113.499s-27 97.666 -27 156.999s9 111.5 27 156.5s42.5 82.833 73.5 113.5s66.833 53.667 107.5 69s83.667 23 129 23s88.333 -7.66699 129 -23s76.167 -38.333 106.5 -69
s54.5 -68.5 72.5 -113.5s27 -97.167 27 -156.5zM435 883l-131 -146l-58 44l118 165zM619 883l-132 -146l-57 44l117 165z" />
    <glyph glyph-name="ohungarumlaut" unicode="&#x151;" horiz-adv-x="598" 
d="M550 262c0 -41.333 -6 -79 -18 -113s-29 -63 -51 -87s-48.5 -42.667 -79.5 -56s-65.167 -20 -102.5 -20s-71.333 6.66699 -102 20s-57 32 -79 56s-39.167 53 -51.5 87s-18.5 71.667 -18.5 113s6.16699 78.833 18.5 112.5s29.666 62.5 51.999 86.5s48.833 42.5 79.5 55.5
s64.334 19.5 101.001 19.5s70.5 -6.5 101.5 -19.5s57.5 -31.5 79.5 -55.5s39.167 -52.833 51.5 -86.5s18.5 -71.167 18.5 -112.5zM426 262c0 52 -11.167 93.167 -33.5 123.5s-53.5 45.5 -93.5 45.5s-71.167 -15.167 -93.5 -45.5s-33.5 -71.5 -33.5 -123.5
c0 -52.667 11.167 -94.334 33.5 -125.001s53.5 -46 93.5 -46s71.167 15.333 93.5 46s33.5 72.334 33.5 125.001zM339 724l-131 -146l-58 44l118 165zM523 724l-132 -146l-57 44l117 165z" />
    <glyph glyph-name="OE" unicode="&#x152;" horiz-adv-x="994" 
d="M544 0c-16 -2 -33.5 -3.66504 -52.5 -4.99805s-36.167 -2 -51.5 -2c-56 0 -107.667 7.16699 -155 21.5s-88 36.166 -122 65.499s-60.5 66.166 -79.5 110.499s-28.5 96.5 -28.5 156.5s9.5 112 28.5 156s45.667 80.5 80 109.5s75 50.667 122 65s98.5 21.5 154.5 21.5
c15.333 0 32.5 -0.5 51.5 -1.5s36.5 -2.5 52.5 -4.5h392v-106h-303v-173h267v-103h-267v-205h327v-106h-416zM439 101.002c24.667 0 48 1.00195 70 3.00195v484c-14 1.33301 -26.333 2.16602 -37 2.49902s-21.667 0.5 -33 0.5c-81.333 0 -143.833 -21.167 -187.5 -63.5
s-65.5 -102.5 -65.5 -180.5c0 -78.667 21.833 -139.334 65.5 -182.001s106.167 -64 187.5 -64z" />
    <glyph glyph-name="oe" unicode="&#x153;" horiz-adv-x="943" 
d="M688 -13c-48 0 -89.165 8.16895 -123.498 24.502s-62.166 40.166 -83.499 71.499c-22 -32 -48.667 -56.167 -80 -72.5s-66 -24.5 -104 -24.5c-37.333 0 -71.166 6.66699 -101.499 20s-56.5 32 -78.5 56s-39 53 -51 87s-18 71.667 -18 113s6.16699 78.833 18.5 112.5
s29.5 62.5 51.5 86.5s48.167 42.5 78.5 55.5s63.833 19.5 100.5 19.5c40.667 0 76.667 -8.33301 108 -25s57.666 -41 78.999 -73c23.333 34.667 50.666 59.667 81.999 75s63.666 23 96.999 23c72.667 0 129 -22.333 169 -67s60 -111.334 60 -200.001
c0 -8 -0.166992 -16 -0.5 -24s-0.833008 -15 -1.5 -21h-347c3.33301 -42 18.333 -74.5 45 -97.5s65 -34.5 115 -34.5c30 0 57.167 2.66699 81.5 8s43.5 11 57.5 17l16 -99c-6.66699 -3.33301 -15.834 -6.83301 -27.501 -10.5s-25 -7 -40 -10s-31.333 -5.5 -49 -7.5
s-35.5 -3 -53.5 -3zM771.002 313.002c0 16.667 -2.33301 32.5 -7 47.5s-11.5 28 -20.5 39s-20 19.667 -33 26s-28.5 9.5 -46.5 9.5c-18.667 0 -35 -3.5 -49 -10.5s-25.833 -16.167 -35.5 -27.5s-17.167 -24.333 -22.5 -39s-9 -29.667 -11 -45h225zM425.002 262.002
c0 52 -11.167 93.167 -33.5 123.5s-53.5 45.5 -93.5 45.5s-71.167 -15.167 -93.5 -45.5s-33.5 -71.5 -33.5 -123.5c0 -52.667 11.167 -94.334 33.5 -125.001s53.5 -46 93.5 -46s71.167 15.333 93.5 46s33.5 72.334 33.5 125.001z" />
    <glyph glyph-name="Racute" unicode="&#x154;" horiz-adv-x="640" 
d="M274 700c100 0 176.501 -18.333 229.501 -55s79.5 -92.667 79.5 -168c0 -94 -46.333 -157.667 -139 -191c12.667 -15.333 27 -34 43 -56s32.333 -45.833 49 -71.5s32.667 -52 48 -79s29 -53.5 41 -79.5h-141c-12.667 24 -26.334 48.167 -41.001 72.5s-29.5 48 -44.5 71
s-29.833 44.667 -44.5 65s-28.334 38.5 -41.001 54.5c-9.33301 -0.666992 -17.333 -1 -24 -1h-19h-61v-262h-126v683c30.667 6.66699 63.334 11.167 98.001 13.5s65.667 3.5 93 3.5zM283.001 591c-26.667 0 -51.332 -1.00391 -73.999 -3.00391v-224h55
c30.667 0 57.667 1.66699 81 5s42.833 9.33301 58.5 18s27.5 20.334 35.5 35.001s12 33.334 12 56.001c0 21.333 -4 39.333 -12 54s-19.5 26.334 -34.5 35.001s-32.833 14.834 -53.5 18.501s-43.334 5.5 -68.001 5.5zM439.003 898.996l-163 -158l-60 54l147 175z" />
    <glyph glyph-name="racute" unicode="&#x155;" horiz-adv-x="403" 
d="M375 414c-10 3.33301 -23.834 6.83203 -41.501 10.499s-38.167 5.5 -61.5 5.5c-13.333 0 -27.5 -1.33301 -42.5 -4s-25.5 -5 -31.5 -7v-419h-121v498c23.333 8.66699 52.5 16.834 87.5 24.501s73.833 11.5 116.5 11.5c8 0 17.333 -0.5 28 -1.5s21.334 -2.33301 32.001 -4
s21 -3.66699 31 -6s18 -4.5 24 -6.5zM368.999 736.999l-163 -158l-60 54l147 175z" />
    <glyph glyph-name="Rcommaaccent" unicode="&#x156;" horiz-adv-x="640" 
d="M274 700c100 0 176.501 -18.333 229.501 -55s79.5 -92.667 79.5 -168c0 -94 -46.333 -157.667 -139 -191c12.667 -15.333 27 -34 43 -56s32.333 -45.833 49 -71.5s32.667 -52 48 -79s29 -53.5 41 -79.5h-141c-12.667 24 -26.334 48.167 -41.001 72.5s-29.5 48 -44.5 71
s-29.833 44.667 -44.5 65s-28.334 38.5 -41.001 54.5c-9.33301 -0.666992 -17.333 -1 -24 -1h-19h-61v-262h-126v683c30.667 6.66699 63.334 11.167 98.001 13.5s65.667 3.5 93 3.5zM283.001 591c-26.667 0 -51.332 -1.00391 -73.999 -3.00391v-224h55
c30.667 0 57.667 1.66699 81 5s42.833 9.33301 58.5 18s27.5 20.334 35.5 35.001s12 33.334 12 56.001c0 21.333 -4 39.333 -12 54s-19.5 26.334 -34.5 35.001s-32.833 14.834 -53.5 18.501s-43.334 5.5 -68.001 5.5zM393.003 -51.0039
c0.666992 -5.33301 1.16602 -10.9971 1.49902 -16.9971s0.5 -10 0.5 -12c0 -23.333 -3.66699 -42.833 -11 -58.5s-17 -28.334 -29 -38.001s-25.833 -16.667 -41.5 -21s-31.834 -6.5 -48.501 -6.5c-9.33301 0 -18.166 0.5 -26.499 1.5s-14.166 2.16699 -17.499 3.5v70
c10 0 19.167 0.666992 27.5 2s15.5 4.16602 21.5 8.49902s10.667 10.666 14 18.999s5 19.833 5 34.5v14h104z" />
    <glyph glyph-name="rcommaaccent" unicode="&#x157;" horiz-adv-x="403" 
d="M375 414c-10 3.33301 -23.834 6.83203 -41.501 10.499s-38.167 5.5 -61.5 5.5c-13.333 0 -27.5 -1.33301 -42.5 -4s-25.5 -5 -31.5 -7v-419h-121v498c23.333 8.66699 52.5 16.834 87.5 24.501s73.833 11.5 116.5 11.5c8 0 17.333 -0.5 28 -1.5s21.334 -2.33301 32.001 -4
s21 -3.66699 31 -6s18 -4.5 24 -6.5zM188.999 -51.001c0.666992 -5.33301 1.16602 -10.9971 1.49902 -16.9971s0.5 -10 0.5 -12c0 -23.333 -3.66699 -42.833 -11 -58.5s-17 -28.334 -29 -38.001s-25.833 -16.667 -41.5 -21s-31.834 -6.5 -48.501 -6.5
c-9.33301 0 -18.166 0.5 -26.499 1.5s-14.166 2.16699 -17.499 3.5v70c10 0 19.167 0.666992 27.5 2s15.5 4.16602 21.5 8.49902s10.667 10.666 14 18.999s5 19.833 5 34.5v14h104z" />
    <glyph glyph-name="Rcaron" unicode="&#x158;" horiz-adv-x="640" 
d="M274 700c100 0 176.501 -18.333 229.501 -55s79.5 -92.667 79.5 -168c0 -94 -46.333 -157.667 -139 -191c12.667 -15.333 27 -34 43 -56s32.333 -45.833 49 -71.5s32.667 -52 48 -79s29 -53.5 41 -79.5h-141c-12.667 24 -26.334 48.167 -41.001 72.5s-29.5 48 -44.5 71
s-29.833 44.667 -44.5 65s-28.334 38.5 -41.001 54.5c-9.33301 -0.666992 -17.333 -1 -24 -1h-19h-61v-262h-126v683c30.667 6.66699 63.334 11.167 98.001 13.5s65.667 3.5 93 3.5zM283.001 591c-26.667 0 -51.332 -1.00391 -73.999 -3.00391v-224h55
c30.667 0 57.667 1.66699 81 5s42.833 9.33301 58.5 18s27.5 20.334 35.5 35.001s12 33.334 12 56.001c0 21.333 -4 39.333 -12 54s-19.5 26.334 -34.5 35.001s-32.833 14.834 -53.5 18.501s-43.334 5.5 -68.001 5.5zM304.003 743.996l-146 140l48 53l98 -81l99 81l47 -53z
" />
    <glyph glyph-name="rcaron" unicode="&#x159;" horiz-adv-x="403" 
d="M375 414c-10 3.33301 -23.834 6.83203 -41.501 10.499s-38.167 5.5 -61.5 5.5c-13.333 0 -27.5 -1.33301 -42.5 -4s-25.5 -5 -31.5 -7v-419h-121v498c23.333 8.66699 52.5 16.834 87.5 24.501s73.833 11.5 116.5 11.5c8 0 17.333 -0.5 28 -1.5s21.334 -2.33301 32.001 -4
s21 -3.66699 31 -6s18 -4.5 24 -6.5zM238.999 585.999l-146 140l48 53l98 -81l99 81l47 -53z" />
    <glyph glyph-name="Sacute" unicode="&#x15a;" horiz-adv-x="540" 
d="M251 94c45.333 0 78.3281 7.66602 98.9951 22.999s31 37 31 65c0 16.667 -3.5 31 -10.5 43s-17 22.833 -30 32.5s-28.833 18.667 -47.5 27s-40 16.5 -64 24.5c-24 8.66699 -47.167 18.167 -69.5 28.5s-42 23.166 -59 38.499s-30.667 33.666 -41 54.999s-15.5 47 -15.5 77
c0 62.667 21.667 111.834 65 147.501s102.333 53.5 177 53.5c43.333 0 81.833 -4.83301 115.5 -14.5s60.167 -20.167 79.5 -31.5l-39 -102c-22.667 12.667 -47.5 22.334 -74.5 29.001s-54.833 10 -83.5 10c-34 0 -60.5 -7 -79.5 -21s-28.5 -33.667 -28.5 -59
c0 -15.333 3.16699 -28.5 9.5 -39.5s15.333 -20.833 27 -29.5s25.334 -16.667 41.001 -24s32.834 -14.333 51.501 -21c32.667 -12 61.834 -24.167 87.501 -36.5s47.334 -27 65.001 -44s31.167 -37 40.5 -60s14 -50.833 14 -83.5c0 -62.667 -22.167 -111.167 -66.5 -145.5
s-109.166 -51.5 -194.499 -51.5c-28.667 0 -54.834 1.83301 -78.501 5.5s-44.667 8.16699 -63 13.5s-34.166 10.833 -47.499 16.5s-24 10.834 -32 15.501l37 103c18 -10 42.333 -20 73 -30s67.667 -15 111 -15zM416.995 898.999l-163 -158l-60 54l147 175z" />
    <glyph glyph-name="sacute" unicode="&#x15b;" horiz-adv-x="457" 
d="M208 87c32 0 55.332 3.83496 69.999 11.502s22 20.834 22 39.501c0 17.333 -7.83301 31.666 -23.5 42.999s-41.5 23.666 -77.5 36.999c-22 8 -42.167 16.5 -60.5 25.5s-34.166 19.5 -47.499 31.5s-23.833 26.5 -31.5 43.5s-11.5 37.833 -11.5 62.5
c0 48 17.667 85.833 53 113.5s83.333 41.5 144 41.5c30.667 0 60 -2.83301 88 -8.5s49 -11.167 63 -16.5l-22 -98c-13.333 6 -30.333 11.5 -51 16.5s-44.667 7.5 -72 7.5c-24.667 0 -44.667 -4.16699 -60 -12.5s-23 -21.166 -23 -38.499c0 -8.66699 1.5 -16.334 4.5 -23.001
s8.16699 -12.834 15.5 -18.501s17 -11.334 29 -17.001s26.667 -11.5 44 -17.5c28.667 -10.667 53 -21.167 73 -31.5s36.5 -22 49.5 -35s22.5 -27.833 28.5 -44.5s9 -36.667 9 -60c0 -50 -18.5 -87.833 -55.5 -113.5s-89.833 -38.5 -158.5 -38.5c-46 0 -83 3.83301 -111 11.5
s-47.667 13.834 -59 18.501l21 101c18 -7.33301 39.5 -14.333 64.5 -21s53.5 -10 85.5 -10zM371.999 737.002l-163 -158l-60 54l147 175z" />
    <glyph glyph-name="Scircumflex" unicode="&#x15c;" horiz-adv-x="540" 
d="M251 94c45.333 0 78.3281 7.66602 98.9951 22.999s31 37 31 65c0 16.667 -3.5 31 -10.5 43s-17 22.833 -30 32.5s-28.833 18.667 -47.5 27s-40 16.5 -64 24.5c-24 8.66699 -47.167 18.167 -69.5 28.5s-42 23.166 -59 38.499s-30.667 33.666 -41 54.999s-15.5 47 -15.5 77
c0 62.667 21.667 111.834 65 147.501s102.333 53.5 177 53.5c43.333 0 81.833 -4.83301 115.5 -14.5s60.167 -20.167 79.5 -31.5l-39 -102c-22.667 12.667 -47.5 22.334 -74.5 29.001s-54.833 10 -83.5 10c-34 0 -60.5 -7 -79.5 -21s-28.5 -33.667 -28.5 -59
c0 -15.333 3.16699 -28.5 9.5 -39.5s15.333 -20.833 27 -29.5s25.334 -16.667 41.001 -24s32.834 -14.333 51.501 -21c32.667 -12 61.834 -24.167 87.501 -36.5s47.334 -27 65.001 -44s31.167 -37 40.5 -60s14 -50.833 14 -83.5c0 -62.667 -22.167 -111.167 -66.5 -145.5
s-109.166 -51.5 -194.499 -51.5c-28.667 0 -54.834 1.83301 -78.501 5.5s-44.667 8.16699 -63 13.5s-34.166 10.833 -47.499 16.5s-24 10.834 -32 15.501l37 103c18 -10 42.333 -20 73 -30s67.667 -15 111 -15zM427.995 795.999l-47 -53l-99 81l-98 -81l-48 53l146 140z" />
    <glyph glyph-name="scircumflex" unicode="&#x15d;" horiz-adv-x="457" 
d="M208 87c32 0 55.332 3.83496 69.999 11.502s22 20.834 22 39.501c0 17.333 -7.83301 31.666 -23.5 42.999s-41.5 23.666 -77.5 36.999c-22 8 -42.167 16.5 -60.5 25.5s-34.166 19.5 -47.499 31.5s-23.833 26.5 -31.5 43.5s-11.5 37.833 -11.5 62.5
c0 48 17.667 85.833 53 113.5s83.333 41.5 144 41.5c30.667 0 60 -2.83301 88 -8.5s49 -11.167 63 -16.5l-22 -98c-13.333 6 -30.333 11.5 -51 16.5s-44.667 7.5 -72 7.5c-24.667 0 -44.667 -4.16699 -60 -12.5s-23 -21.166 -23 -38.499c0 -8.66699 1.5 -16.334 4.5 -23.001
s8.16699 -12.834 15.5 -18.501s17 -11.334 29 -17.001s26.667 -11.5 44 -17.5c28.667 -10.667 53 -21.167 73 -31.5s36.5 -22 49.5 -35s22.5 -27.833 28.5 -44.5s9 -36.667 9 -60c0 -50 -18.5 -87.833 -55.5 -113.5s-89.833 -38.5 -158.5 -38.5c-46 0 -83 3.83301 -111 11.5
s-47.667 13.834 -59 18.501l21 101c18 -7.33301 39.5 -14.333 64.5 -21s53.5 -10 85.5 -10zM384.999 635.002l-47 -53l-99 81l-98 -81l-48 53l146 140z" />
    <glyph glyph-name="Scedilla" unicode="&#x15e;" horiz-adv-x="540" 
d="M251 94c45.333 0 78.3281 7.66699 98.9951 23s31 37 31 65c0 16.667 -3.5 31 -10.5 43s-17 22.833 -30 32.5s-28.833 18.667 -47.5 27s-40 16.5 -64 24.5c-24 8.66699 -47.167 18.167 -69.5 28.5s-42 23.166 -59 38.499s-30.667 33.666 -41 54.999s-15.5 47 -15.5 77
c0 62.667 21.667 111.834 65 147.501s102.333 53.5 177 53.5c43.333 0 81.833 -4.83301 115.5 -14.5s60.167 -20.167 79.5 -31.5l-39 -102c-22.667 12.667 -47.5 22.334 -74.5 29.001s-54.833 10 -83.5 10c-34 0 -60.5 -7 -79.5 -21s-28.5 -33.667 -28.5 -59
c0 -15.333 3.16699 -28.5 9.5 -39.5s15.333 -20.833 27 -29.5s25.334 -16.667 41.001 -24s32.834 -14.333 51.501 -21c32.667 -12 61.834 -24.167 87.501 -36.5s47.334 -27 65.001 -44s31.167 -37 40.5 -60s14 -50.833 14 -83.5c0 -56 -17.333 -100.5 -52 -133.5
s-85.334 -53.167 -152.001 -60.5c-2.66699 -5.33301 -5.16699 -10.166 -7.5 -14.499s-4.16602 -8.5 -5.49902 -12.5c21.333 -10 36.166 -21.333 44.499 -34s12.5 -28.334 12.5 -47.001c0 -23.333 -10 -43.333 -30 -60s-50 -25 -90 -25c-32 0 -60.333 4.33301 -85 13l14 72
c6.66699 -2 15.334 -4.33301 26.001 -7s21.667 -4 33 -4s20.166 2 26.499 6s9.5 10 9.5 18c0 10.667 -4.66699 18.5 -14 23.5s-18.666 9.16699 -27.999 12.5l-10 3c2.66699 7.33301 6 15.833 10 25.5s8 19.167 12 28.5c-50.667 2 -92.167 8.66699 -124.5 20
s-56.166 21.333 -71.499 30l37 103c18 -10 42.333 -20 73 -30s67.667 -15 111 -15z" />
    <glyph glyph-name="scedilla" unicode="&#x15f;" horiz-adv-x="457" 
d="M251 -39c21.333 -10 36.165 -21.3252 44.498 -33.9922s12.5 -28.334 12.5 -47.001c0 -23.333 -10 -43.333 -30 -60s-50 -25 -90 -25c-32 0 -60.333 4.33301 -85 13l14 72c6.66699 -2 15.334 -4.33301 26.001 -7s21.667 -4 33 -4s20.166 2 26.499 6s9.5 10 9.5 18
c0 10.667 -4.66699 18.5 -14 23.5s-18.666 9.16699 -27.999 12.5l-10 3c2.66699 7.33301 6 16.166 10 26.499s8.33301 20.166 13 29.499c-38.667 1.33301 -70.167 5.5 -94.5 12.5s-41.5 12.5 -51.5 16.5l21 101c18 -7.33301 39.5 -14.333 64.5 -21s53.5 -10 85.5 -10
s55.333 3.83301 70 11.5s22 20.834 22 39.501c0 17.333 -7.83301 31.666 -23.5 42.999s-41.5 23.666 -77.5 36.999c-22 8 -42.167 16.5 -60.5 25.5s-34.166 19.5 -47.499 31.5s-23.833 26.5 -31.5 43.5s-11.5 37.833 -11.5 62.5c0 48 17.667 85.833 53 113.5
s83.333 41.5 144 41.5c30.667 0 60 -2.83301 88 -8.5s49 -11.167 63 -16.5l-22 -98c-13.333 6 -30.333 11.5 -51 16.5s-44.667 7.5 -72 7.5c-24.667 0 -44.667 -4.16699 -60 -12.5s-23 -21.166 -23 -38.499c0 -8.66699 1.5 -16.334 4.5 -23.001
s8.16699 -12.834 15.5 -18.501s17 -11.334 29 -17.001s26.667 -11.5 44 -17.5c28.667 -10.667 53 -21.167 73 -31.5s36.5 -22 49.5 -35s22.5 -27.833 28.5 -44.5s9 -36.667 9 -60c0 -42.667 -13.5 -76.334 -40.5 -101.001s-65.5 -40.334 -115.5 -47.001
c-6 -10.667 -10.667 -20.667 -14 -30z" />
    <glyph glyph-name="Scaron" unicode="&#x160;" horiz-adv-x="540" 
d="M251 94c45.333 0 78.3281 7.66602 98.9951 22.999s31 37 31 65c0 16.667 -3.5 31 -10.5 43s-17 22.833 -30 32.5s-28.833 18.667 -47.5 27s-40 16.5 -64 24.5c-24 8.66699 -47.167 18.167 -69.5 28.5s-42 23.166 -59 38.499s-30.667 33.666 -41 54.999s-15.5 47 -15.5 77
c0 62.667 21.667 111.834 65 147.501s102.333 53.5 177 53.5c43.333 0 81.833 -4.83301 115.5 -14.5s60.167 -20.167 79.5 -31.5l-39 -102c-22.667 12.667 -47.5 22.334 -74.5 29.001s-54.833 10 -83.5 10c-34 0 -60.5 -7 -79.5 -21s-28.5 -33.667 -28.5 -59
c0 -15.333 3.16699 -28.5 9.5 -39.5s15.333 -20.833 27 -29.5s25.334 -16.667 41.001 -24s32.834 -14.333 51.501 -21c32.667 -12 61.834 -24.167 87.501 -36.5s47.334 -27 65.001 -44s31.167 -37 40.5 -60s14 -50.833 14 -83.5c0 -62.667 -22.167 -111.167 -66.5 -145.5
s-109.166 -51.5 -194.499 -51.5c-28.667 0 -54.834 1.83301 -78.501 5.5s-44.667 8.16699 -63 13.5s-34.166 10.833 -47.499 16.5s-24 10.834 -32 15.501l37 103c18 -10 42.333 -20 73 -30s67.667 -15 111 -15zM282.995 743.999l-146 140l48 53l98 -81l99 81l47 -53z" />
    <glyph glyph-name="scaron" unicode="&#x161;" horiz-adv-x="457" 
d="M208 87c32 0 55.332 3.83496 69.999 11.502s22 20.834 22 39.501c0 17.333 -7.83301 31.666 -23.5 42.999s-41.5 23.666 -77.5 36.999c-22 8 -42.167 16.5 -60.5 25.5s-34.166 19.5 -47.499 31.5s-23.833 26.5 -31.5 43.5s-11.5 37.833 -11.5 62.5
c0 48 17.667 85.833 53 113.5s83.333 41.5 144 41.5c30.667 0 60 -2.83301 88 -8.5s49 -11.167 63 -16.5l-22 -98c-13.333 6 -30.333 11.5 -51 16.5s-44.667 7.5 -72 7.5c-24.667 0 -44.667 -4.16699 -60 -12.5s-23 -21.166 -23 -38.499c0 -8.66699 1.5 -16.334 4.5 -23.001
s8.16699 -12.834 15.5 -18.501s17 -11.334 29 -17.001s26.667 -11.5 44 -17.5c28.667 -10.667 53 -21.167 73 -31.5s36.5 -22 49.5 -35s22.5 -27.833 28.5 -44.5s9 -36.667 9 -60c0 -50 -18.5 -87.833 -55.5 -113.5s-89.833 -38.5 -158.5 -38.5c-46 0 -83 3.83301 -111 11.5
s-47.667 13.834 -59 18.501l21 101c18 -7.33301 39.5 -14.333 64.5 -21s53.5 -10 85.5 -10zM237.999 586.002l-146 140l48 53l98 -81l99 81l47 -53z" />
    <glyph glyph-name="uni0162" unicode="&#x162;" horiz-adv-x="579" 
d="M308 -39c21.333 -10 36.165 -21.332 44.498 -33.999s12.5 -28.334 12.5 -47.001c0 -23.333 -10 -43.333 -30 -60s-50 -25 -90 -25c-32 0 -60.333 4.33301 -85 13l14 72c6.66699 -2 15.334 -4.33301 26.001 -7s21.667 -4 33 -4s20.166 2 26.499 6s9.5 10 9.5 18
c0 10.667 -4.66699 18.5 -14 23.5s-18.666 9.16699 -27.999 12.5l-10 3c3.33301 9.33301 7.83301 20.5 13.5 33.5s11.167 24.5 16.5 34.5h-21v584h-213v109h553v-109h-213v-584h-27c-3.33301 -6.66699 -6.66602 -13.5 -9.99902 -20.5s-6 -13.167 -8 -18.5z" />
    <glyph glyph-name="uni0163" unicode="&#x163;" horiz-adv-x="418" 
d="M284 -39c21.333 -10 36.1631 -21.332 44.4961 -33.999s12.5 -28.334 12.5 -47.001c0 -23.333 -10 -43.333 -30 -60s-50 -25 -90 -25c-32 0 -60.333 4.33301 -85 13l14 72c6.66699 -2 15.334 -4.33301 26.001 -7s21.667 -4 33 -4s20.166 2 26.499 6s9.5 10 9.5 18
c0 10.667 -4.66699 18.5 -14 23.5s-18.666 9.16699 -27.999 12.5l-10 3c2.66699 8 6.33398 17.5 11.001 28.5s9.33398 21.167 14.001 30.5c-28 4 -51.5 11.667 -70.5 23s-34.167 26.333 -45.5 45s-19.333 40.5 -24 65.5s-7 52.833 -7 83.5v453l121 20v-158h186v-101h-186
v-213c0 -42 6.66699 -72 20 -90s36 -27 68 -27c22 0 41.5 2.33301 58.5 7s30.5 9 40.5 13l20 -96c-11.333 -5.33301 -25.5 -10.5 -42.5 -15.5s-36.833 -8.5 -59.5 -10.5c-2.66699 -5.33301 -5.16699 -10.5 -7.5 -15.5s-4.16602 -9.5 -5.49902 -13.5z" />
    <glyph glyph-name="Tcaron" unicode="&#x164;" horiz-adv-x="579" 
d="M566 693v-109h-213v-584h-127v584h-213v109h553zM289 744l-146 140l48 53l98 -81l99 81l47 -53z" />
    <glyph glyph-name="tcaron" unicode="&#x165;" horiz-adv-x="418" 
d="M71 661l121.001 20v-158h186v-101h-186v-213c0 -42 6.66699 -72 20 -90s36 -27 68 -27c22 0 41.5 2.33301 58.5 7s30.5 9 40.5 13l20 -96c-14 -6 -32.333 -12.167 -55 -18.5s-49.334 -9.5 -80.001 -9.5c-37.333 0 -68.5 5 -93.5 15s-44.833 24.5 -59.5 43.5
s-25 42 -31 69s-9 57.833 -9 92.5v453zM368.001 776l-27 -192h-84v192h111z" />
    <glyph glyph-name="Tbar" unicode="&#x166;" horiz-adv-x="579" 
d="M566 693v-109h-213v-199h135v-93h-135v-292h-127v292h-135v93h135v199h-213v109h553z" />
    <glyph glyph-name="tbar" unicode="&#x167;" horiz-adv-x="418" 
d="M71 661l121.001 20v-158h186v-101h-186v-109h186v-81h-186v-23c0 -42 6.66699 -72 20 -90s36 -27 68 -27c22 0 41.5 2.33301 58.5 7s30.5 9 40.5 13l20 -96c-14 -6 -32.333 -12.167 -55 -18.5s-49.334 -9.5 -80.001 -9.5c-37.333 0 -68.5 5 -93.5 15
s-44.833 24.5 -59.5 43.5s-25 42 -31 69s-9 57.833 -9 92.5v453z" />
    <glyph glyph-name="Utilde" unicode="&#x168;" horiz-adv-x="703" 
d="M350 -15c-47.333 0 -88 6.83301 -122 20.5s-62.167 32.834 -84.5 57.501s-38.833 53.667 -49.5 87s-16 70 -16 110v433h127v-421c0 -31.333 3.5 -58.166 10.5 -80.499s17 -40.5 30 -54.5s28.333 -24.333 46 -31s37.5 -10 59.5 -10s42 3.33301 60 10s33.5 17 46.5 31
s23 32.167 30 54.5s10.5 49.166 10.5 80.499v421h127v-433c0 -40 -5.5 -76.667 -16.5 -110s-27.667 -62.333 -50 -87s-50.833 -43.834 -85.5 -57.501s-75.667 -20.5 -123 -20.5zM512.5 838.5c-6.33301 -11 -14.166 -21.335 -23.499 -31.002s-20 -17.834 -32 -24.501
s-25.333 -10 -40 -10c-12 0 -23.333 1.83301 -34 5.5s-21.167 7.83398 -31.5 12.501s-20.333 8.83398 -30 12.501s-19.167 5.5 -28.5 5.5c-12.667 0 -23.5 -4.33301 -32.5 -13s-16.167 -18.667 -21.5 -30l-61 36c3.33301 9.33301 8.16602 19.5 14.499 30.5
s14.333 21.333 24 31s20.5 17.834 32.5 24.501s25.333 10 40 10c12 0 23.333 -2 34 -6s21.167 -8.16699 31.5 -12.5s20.333 -8.5 30 -12.5s19.167 -6 28.5 -6c12.667 0 23.5 4.5 32.5 13.5s16.167 19.167 21.5 30.5l61 -36c-4 -9.33301 -9.16699 -19.5 -15.5 -30.5z" />
    <glyph glyph-name="utilde" unicode="&#x169;" horiz-adv-x="583" 
d="M506 16c-23.333 -6 -53.667 -12.167 -91 -18.5s-78.333 -9.5 -123 -9.5c-42 0 -77.167 6 -105.5 18s-51 28.667 -68 50s-29.167 46.833 -36.5 76.5s-11 62.167 -11 97.5v293h121v-274c0 -56 8.16699 -96 24.5 -120s44.833 -36 85.5 -36c14.667 0 30.167 0.666992 46.5 2
s28.5 3 36.5 5v423h121v-507zM449.499 679.5c-6.33301 -11 -14.166 -21.335 -23.499 -31.002s-20 -17.834 -32 -24.501s-25.333 -10 -40 -10c-12 0 -23.333 1.83301 -34 5.5s-21.167 7.83398 -31.5 12.501s-20.333 8.83398 -30 12.501s-19.167 5.5 -28.5 5.5
c-12.667 0 -23.5 -4.33301 -32.5 -13s-16.167 -18.667 -21.5 -30l-61 36c3.33301 9.33301 8.16602 19.5 14.499 30.5s14.333 21.333 24 31s20.5 17.834 32.5 24.501s25.333 10 40 10c12 0 23.333 -2 34 -6s21.167 -8.16699 31.5 -12.5s20.333 -8.5 30 -12.5
s19.167 -6 28.5 -6c12.667 0 23.5 4.5 32.5 13.5s16.167 19.167 21.5 30.5l61 -36c-4 -9.33301 -9.16699 -19.5 -15.5 -30.5z" />
    <glyph glyph-name="Umacron" unicode="&#x16a;" horiz-adv-x="703" 
d="M350 -15c-47.333 0 -88 6.83301 -122 20.5s-62.167 32.834 -84.5 57.501s-38.833 53.667 -49.5 87s-16 70 -16 110v433h127v-421c0 -31.333 3.5 -58.166 10.5 -80.499s17 -40.5 30 -54.5s28.333 -24.333 46 -31s37.5 -10 59.5 -10s42 3.33301 60 10s33.5 17 46.5 31
s23 32.167 30 54.5s10.5 49.166 10.5 80.499v421h127v-433c0 -40 -5.5 -76.667 -16.5 -110s-27.667 -62.333 -50 -87s-50.833 -43.834 -85.5 -57.501s-75.667 -20.5 -123 -20.5zM502 872v-87h-303v87h303z" />
    <glyph glyph-name="umacron" unicode="&#x16b;" horiz-adv-x="583" 
d="M506 16c-23.333 -6 -53.667 -12.167 -91 -18.5s-78.333 -9.5 -123 -9.5c-42 0 -77.167 6 -105.5 18s-51 28.667 -68 50s-29.167 46.833 -36.5 76.5s-11 62.167 -11 97.5v293h121v-274c0 -56 8.16699 -96 24.5 -120s44.833 -36 85.5 -36c14.667 0 30.167 0.666992 46.5 2
s28.5 3 36.5 5v423h121v-507zM440.999 718v-87h-303v87h303z" />
    <glyph glyph-name="Ubreve" unicode="&#x16c;" horiz-adv-x="703" 
d="M350 -15c-47.333 0 -88 6.83301 -122 20.5s-62.167 32.834 -84.5 57.501s-38.833 53.667 -49.5 87s-16 70 -16 110v433h127v-421c0 -31.333 3.5 -58.166 10.5 -80.499s17 -40.5 30 -54.5s28.333 -24.333 46 -31s37.5 -10 59.5 -10s42 3.33301 60 10s33.5 17 46.5 31
s23 32.167 30 54.5s10.5 49.166 10.5 80.499v421h127v-433c0 -40 -5.5 -76.667 -16.5 -110s-27.667 -62.333 -50 -87s-50.833 -43.834 -85.5 -57.501s-75.667 -20.5 -123 -20.5zM351 758c-21.333 0 -40.999 3.33301 -58.999 10s-33.667 16.167 -47 28.5
s-23.666 27.5 -30.999 45.5s-11 38.667 -11 62v6h81c1.33301 -21.333 7.16602 -38.5 17.499 -51.5s26.833 -19.5 49.5 -19.5c22 0 38.167 6.5 48.5 19.5s16.5 30.167 18.5 51.5h80v-7c0 -46 -13.833 -81.667 -41.5 -107s-62.834 -38 -105.501 -38z" />
    <glyph glyph-name="ubreve" unicode="&#x16d;" horiz-adv-x="583" 
d="M506 16c-23.333 -6 -53.667 -12.167 -91 -18.5s-78.333 -9.5 -123 -9.5c-42 0 -77.167 6 -105.5 18s-51 28.667 -68 50s-29.167 46.833 -36.5 76.5s-11 62.167 -11 97.5v293h121v-274c0 -56 8.16699 -96 24.5 -120s44.833 -36 85.5 -36c14.667 0 30.167 0.666992 46.5 2
s28.5 3 36.5 5v423h121v-507zM289.999 604c-21.333 0 -40.999 3.33301 -58.999 10s-33.667 16.167 -47 28.5s-23.666 27.5 -30.999 45.5s-11 38.667 -11 62v6h81c1.33301 -21.333 7.16602 -38.5 17.499 -51.5s26.833 -19.5 49.5 -19.5c22 0 38.167 6.5 48.5 19.5
s16.5 30.167 18.5 51.5h80v-7c0 -46 -13.833 -81.667 -41.5 -107s-62.834 -38 -105.501 -38z" />
    <glyph glyph-name="Uring" unicode="&#x16e;" horiz-adv-x="703" 
d="M350 -15c-47.333 0 -88 6.83301 -122 20.5s-62.167 32.834 -84.5 57.501s-38.833 53.667 -49.5 87s-16 70 -16 110v433h127v-421c0 -31.333 3.5 -58.166 10.5 -80.499s17 -40.5 30 -54.5s28.333 -24.333 46 -31s37.5 -10 59.5 -10s42 3.33301 60 10s33.5 17 46.5 31
s23 32.167 30 54.5s10.5 49.166 10.5 80.499v421h127v-433c0 -40 -5.5 -76.667 -16.5 -110s-27.667 -62.333 -50 -87s-50.833 -43.834 -85.5 -57.501s-75.667 -20.5 -123 -20.5zM461 841c0 -17.333 -3 -32.666 -9 -45.999s-14.167 -24.666 -24.5 -33.999
s-22.166 -16.5 -35.499 -21.5s-27.333 -7.5 -42 -7.5s-28.667 2.5 -42 7.5s-25 12.167 -35 21.5s-18 20.666 -24 33.999s-9 28.666 -9 45.999c0 16.667 3 31.834 9 45.501s14 25 24 34s21.667 16 35 21s27.333 7.5 42 7.5s28.667 -2.5 42 -7.5s25.166 -12 35.499 -21
s18.5 -20.333 24.5 -34s9 -28.834 9 -45.501zM400 841c0 16 -5 28.5 -15 37.5s-21.667 13.5 -35 13.5c-12.667 0 -24 -4.5 -34 -13.5s-15 -21.5 -15 -37.5c0 -16.667 5 -29.334 15 -38.001s21.333 -13 34 -13c13.333 0 25 4.33301 35 13s15 21.334 15 38.001z" />
    <glyph glyph-name="uring" unicode="&#x16f;" horiz-adv-x="583" 
d="M506 16c-23.333 -6 -53.667 -12.167 -91 -18.5s-78.333 -9.5 -123 -9.5c-42 0 -77.167 6 -105.5 18s-51 28.667 -68 50s-29.167 46.833 -36.5 76.5s-11 62.167 -11 97.5v293h121v-274c0 -56 8.16699 -96 24.5 -120s44.833 -36 85.5 -36c14.667 0 30.167 0.666992 46.5 2
s28.5 3 36.5 5v423h121v-507zM399.999 688c0 -17.333 -3 -32.666 -9 -45.999s-14.167 -24.666 -24.5 -33.999s-22.166 -16.5 -35.499 -21.5s-27.333 -7.5 -42 -7.5s-28.667 2.5 -42 7.5s-25 12.167 -35 21.5s-18 20.666 -24 33.999s-9 28.666 -9 45.999
c0 16.667 3 31.834 9 45.501s14 25 24 34s21.667 16 35 21s27.333 7.5 42 7.5s28.667 -2.5 42 -7.5s25.166 -12 35.499 -21s18.5 -20.333 24.5 -34s9 -28.834 9 -45.501zM338.999 688c0 16 -5 28.5 -15 37.5s-21.667 13.5 -35 13.5c-12.667 0 -24 -4.5 -34 -13.5
s-15 -21.5 -15 -37.5c0 -16.667 5 -29.334 15 -38.001s21.333 -13 34 -13c13.333 0 25 4.33301 35 13s15 21.334 15 38.001z" />
    <glyph glyph-name="Uhungarumlaut" unicode="&#x170;" horiz-adv-x="703" 
d="M350 -15c-47.333 0 -88 6.83301 -122 20.5s-62.167 32.834 -84.5 57.501s-38.833 53.667 -49.5 87s-16 70 -16 110v433h127v-421c0 -31.333 3.5 -58.166 10.5 -80.499s17 -40.5 30 -54.5s28.333 -24.333 46 -31s37.5 -10 59.5 -10s42 3.33301 60 10s33.5 17 46.5 31
s23 32.167 30 54.5s10.5 49.166 10.5 80.499v421h127v-433c0 -40 -5.5 -76.667 -16.5 -110s-27.667 -62.333 -50 -87s-50.833 -43.834 -85.5 -57.501s-75.667 -20.5 -123 -20.5zM395 883l-131 -146l-58 44l118 165zM579 883l-132 -146l-57 44l117 165z" />
    <glyph glyph-name="uhungarumlaut" unicode="&#x171;" horiz-adv-x="583" 
d="M506 16c-23.333 -6 -53.667 -12.167 -91 -18.5s-78.333 -9.5 -123 -9.5c-42 0 -77.167 6 -105.5 18s-51 28.667 -68 50s-29.167 46.833 -36.5 76.5s-11 62.167 -11 97.5v293h121v-274c0 -56 8.16699 -96 24.5 -120s44.833 -36 85.5 -36c14.667 0 30.167 0.666992 46.5 2
s28.5 3 36.5 5v423h121v-507zM328.999 724l-131 -146l-58 44l118 165zM512.999 724l-132 -146l-57 44l117 165z" />
    </font>
</defs>
</svg>
