<?xml version="1.0" standalone="no"?>
<!DOCTYPE svg PUBLIC "-//W3C//DTD SVG 1.1//EN" "http://www.w3.org/Graphics/SVG/1.1/DTD/svg11.dtd" >
<svg version="1.1" xmlns="http://www.w3.org/2000/svg">
<metadata>
Created by FontForge 20120731 at Tue Aug 26 09:13:23 2014

Copyright 2011 Canonical Ltd.  Licensed under the Ubuntu Font Licence 1.0
</metadata>
<defs>
<font id="ubuntu" horiz-adv-x="589" >
  <font-face 
    font-family="Ubuntu"
    font-weight="700"
    font-stretch="normal"
    units-per-em="1000"
    panose-1="2 11 8 4 3 6 2 3 2 4"
    ascent="800"
    descent="-200"
    x-height="525.999"
    cap-height="693"
    bbox="-170 -221.002 3475 962.003"
    underline-thickness="120"
    underline-position="-63"
    unicode-range="U+0008-FB04"
  />
<missing-glyph horiz-adv-x="500" 
d="M50 0v750h400v-750h-400zM400 50v650h-300v-650h300z" />
    <glyph glyph-name="f_f" unicode="ff" horiz-adv-x="841" 
d="M298 776c28 0 53.668 -2.83301 77.001 -8.5s41.333 -11.167 54 -16.5l-29 -119c-13.333 6 -27.833 10.5 -43.5 13.5s-30.167 4.5 -43.5 4.5c-18 0 -33.167 -2.5 -45.5 -7.5s-22 -11.833 -29 -20.5s-12 -19 -15 -31s-4.5 -25 -4.5 -39v-26h184v-124h-184v-402h-149v554
c0 68 19.167 122 57.5 162s95.166 60 170.499 60zM717.001 776c28 0 53.668 -2.83301 77.001 -8.5s41.333 -11.167 54 -16.5l-29 -119c-13.333 6 -27.833 10.5 -43.5 13.5s-30.167 4.5 -43.5 4.5c-18 0 -33.167 -2.5 -45.5 -7.5s-22 -11.833 -29 -20.5s-12 -19 -15 -31
s-4.5 -25 -4.5 -39v-26h184v-124h-184v-402h-149v554c0 68 19.167 122 57.5 162s95.166 60 170.499 60z" />
    <glyph glyph-name="f_i" unicode="fi" horiz-adv-x="708" 
d="M298 776c28 0 51.168 -2.33301 69.501 -7s33.833 -9.66699 46.5 -15l-26 -117c-10.667 4.66699 -22.5 8 -35.5 10s-26.167 3 -39.5 3c-18 0 -33.167 -2.5 -45.5 -7.5s-22 -11.833 -29 -20.5s-12 -19 -15 -31s-4.5 -25 -4.5 -39v-26h184v-124h-184v-402h-149v554
c0 68 19.167 122 57.5 162s95.166 60 170.499 60zM638.001 0h-149v526h149v-526zM652.001 678c0 -27.333 -8.83301 -48.833 -26.5 -64.5s-38.5 -23.5 -62.5 -23.5s-44.833 7.83301 -62.5 23.5s-26.5 37.167 -26.5 64.5s8.83301 48.833 26.5 64.5s38.5 23.5 62.5 23.5
s44.833 -7.83301 62.5 -23.5s26.5 -37.167 26.5 -64.5z" />
    <glyph glyph-name="f_l" unicode="fl" horiz-adv-x="736" 
d="M298 776c28 0 51.168 -2.33301 69.501 -7s33.833 -9.66699 46.5 -15l-26 -117c-10.667 4.66699 -22.5 8 -35.5 10s-26.167 3 -39.5 3c-18 0 -33.167 -2.5 -45.5 -7.5s-22 -11.833 -29 -20.5s-12 -19 -15 -31s-4.5 -25 -4.5 -39v-26h184v-124h-184v-402h-149v554
c0 68 19.167 122 57.5 162s95.166 60 170.499 60zM700.001 -10c-43.333 0.666992 -78.5 5.33203 -105.5 13.999s-48.333 20.834 -64 36.501s-26.334 34.667 -32.001 57s-8.5 47.5 -8.5 75.5v579l149 24v-573c0 -13.333 1 -25.333 3 -36s5.83301 -19.667 11.5 -27
s13.834 -13.333 24.501 -18s25 -7.66699 43 -9z" />
    <glyph glyph-name="f_f_i" unicode="ffi" horiz-adv-x="1127" 
d="M298 776c28 0 53.668 -2.83301 77.001 -8.5s41.333 -11.167 54 -16.5l-29 -119c-13.333 6 -27.833 10.5 -43.5 13.5s-30.167 4.5 -43.5 4.5c-18 0 -33.167 -2.5 -45.5 -7.5s-22 -11.833 -29 -20.5s-12 -19 -15 -31s-4.5 -25 -4.5 -39v-26h184v-124h-184v-402h-149v554
c0 68 19.167 122 57.5 162s95.166 60 170.499 60zM717.001 776c28 0 51.168 -2.33301 69.501 -7s33.833 -9.66699 46.5 -15l-26 -117c-10.667 4.66699 -22.5 8 -35.5 10s-26.167 3 -39.5 3c-18 0 -33.167 -2.5 -45.5 -7.5s-22 -11.833 -29 -20.5s-12 -19 -15 -31
s-4.5 -25 -4.5 -39v-26h184v-124h-184v-402h-149v554c0 68 19.167 122 57.5 162s95.166 60 170.499 60zM1057 0h-149v526h149v-526zM1071 678c0 -27.333 -8.83301 -48.833 -26.5 -64.5s-38.5 -23.5 -62.5 -23.5s-44.833 7.83301 -62.5 23.5s-26.5 37.167 -26.5 64.5
s8.83301 48.833 26.5 64.5s38.5 23.5 62.5 23.5s44.833 -7.83301 62.5 -23.5s26.5 -37.167 26.5 -64.5z" />
    <glyph glyph-name="f_f_l" unicode="ffl" horiz-adv-x="1155" 
d="M298 776c28 0 53.668 -2.83301 77.001 -8.5s41.333 -11.167 54 -16.5l-29 -119c-13.333 6 -27.833 10.5 -43.5 13.5s-30.167 4.5 -43.5 4.5c-18 0 -33.167 -2.5 -45.5 -7.5s-22 -11.833 -29 -20.5s-12 -19 -15 -31s-4.5 -25 -4.5 -39v-26h184v-124h-184v-402h-149v554
c0 68 19.167 122 57.5 162s95.166 60 170.499 60zM717.001 776c28 0 51.168 -2.33301 69.501 -7s33.833 -9.66699 46.5 -15l-26 -117c-10.667 4.66699 -22.5 8 -35.5 10s-26.167 3 -39.5 3c-18 0 -33.167 -2.5 -45.5 -7.5s-22 -11.833 -29 -20.5s-12 -19 -15 -31
s-4.5 -25 -4.5 -39v-26h184v-124h-184v-402h-149v554c0 68 19.167 122 57.5 162s95.166 60 170.499 60zM1119 -10c-43.333 0.666992 -78.5 5.33203 -105.5 13.999s-48.333 20.834 -64 36.501s-26.334 34.667 -32.001 57s-8.5 47.5 -8.5 75.5v579l149 24v-573
c0 -13.333 1 -25.333 3 -36s5.83301 -19.667 11.5 -27s13.834 -13.333 24.501 -18s25 -7.66699 43 -9z" />
    <glyph glyph-name=".notdef" horiz-adv-x="500" 
d="M50 0v750h400v-750h-400zM400 50v650h-300v-650h300z" />
    <glyph glyph-name=".null" horiz-adv-x="0" 
 />
    <glyph glyph-name=".null" horiz-adv-x="0" 
 />
    <glyph glyph-name=".null" horiz-adv-x="0" 
 />
    <glyph glyph-name="nonmarkingreturn" unicode="&#x9;" horiz-adv-x="240" 
 />
    <glyph glyph-name="nonmarkingreturn" unicode="&#xd;" horiz-adv-x="240" 
 />
    <glyph glyph-name="space" unicode=" " horiz-adv-x="240" 
 />
    <glyph glyph-name="exclam" unicode="!" horiz-adv-x="286" 
d="M223 514c0 -54 -2 -104.333 -6 -151s-9.33301 -94 -16 -142h-114c-6.66699 48 -12.167 95.333 -16.5 142s-6.5 97 -6.5 151v179h159v-179zM236 79c0 -29.333 -9.5 -52 -28.5 -68s-40.5 -24 -64.5 -24s-45.5 8 -64.5 24s-28.5 38.667 -28.5 68s9.5 52 28.5 68
s40.5 24 64.5 24s45.5 -8 64.5 -24s28.5 -38.667 28.5 -68z" />
    <glyph glyph-name="quotedbl" unicode="&#x22;" horiz-adv-x="465" 
d="M197 760l-0.000976562 -74c0 -32 -2.5 -67 -7.5 -105s-10.5 -76.333 -16.5 -115h-99c-7.33301 38.667 -13.166 77 -17.499 115s-6.5 73.333 -6.5 106v73h147zM414.999 760l-0.000976562 -74c0 -32 -2.5 -67 -7.5 -105s-10.5 -76.333 -16.5 -115h-99
c-7.33301 38.667 -13.166 77 -17.499 115s-6.5 73.333 -6.5 106v73h147z" />
    <glyph glyph-name="numbersign" unicode="#" horiz-adv-x="699" 
d="M325 523h116l33 170h130l-33 -170h73v-115h-95l-24 -123h119v-115h-141l-32 -170h-130l32 170h-116l-32 -170h-130l32 170h-72v115h94l24 123h-118v115h140l33 170h130zM279 285h116l24 123h-116z" />
    <glyph glyph-name="dollar" unicode="$" horiz-adv-x="568" 
d="M221 10c-48.667 4 -88.1621 11.5029 -118.495 22.5029s-52.833 20.167 -67.5 27.5l43 115c23.333 -11.333 51.166 -21.666 83.499 -30.999s66.5 -14 102.5 -14c40.667 0 68.5 5.5 83.5 16.5s22.5 26.5 22.5 46.5c0 12.667 -3 23.5 -9 32.5s-14.667 17.167 -26 24.5
s-25.666 14.5 -42.999 21.5s-37.333 14.5 -60 22.5c-22 8 -43.5 16.833 -64.5 26.5s-40 21.5 -57 35.5s-30.667 31.167 -41 51.5s-15.5 44.833 -15.5 73.5c0 22 3.16699 43.167 9.5 63.5s16.166 38.833 29.499 55.5s30.666 30.834 51.999 42.501s46.666 20.167 75.999 25.5
v108h126v-104c34.667 -3.33301 64.5 -8.33301 89.5 -15s44.833 -13.334 59.5 -20.001l-31 -120c-22 9.33301 -47.5 17.333 -76.5 24s-59.5 10 -91.5 10s-55 -5.33301 -69 -16s-21 -24.667 -21 -42c0 -10.667 2.16699 -19.834 6.5 -27.501s11.166 -14.5 20.499 -20.5
s20.833 -11.833 34.5 -17.5s30.167 -11.834 49.5 -18.501c29.333 -10.667 56.5 -22.334 81.5 -35.001s46.667 -27.167 65 -43.5s32.666 -35.5 42.999 -57.5s15.5 -47.667 15.5 -77c0 -20 -3 -39.833 -9 -59.5s-16 -37.834 -30 -54.501s-32.167 -31 -54.5 -43
s-49.833 -20.667 -82.5 -26v-122h-126v119z" />
    <glyph glyph-name="percent" unicode="%" horiz-adv-x="918" 
d="M389 515c0 -62.667 -16 -110.667 -48 -144s-75 -50 -129 -50s-97 16.667 -129 50s-48 81.333 -48 144s16 110.667 48 144s75 50 129 50s97 -16.667 129 -50s48 -81.333 48 -144zM276 515c0 34 -6 58.667 -18 74s-27.333 23 -46 23c-19.333 0 -34.833 -7.66699 -46.5 -23
s-17.5 -40 -17.5 -74s5.83301 -58.833 17.5 -74.5s27.167 -23.5 46.5 -23.5c18.667 0 34 7.83301 46 23.5s18 40.5 18 74.5zM584 693h139l-391 -693h-139zM883 178c0 -62.667 -16 -110.667 -48 -144s-75 -50 -129 -50s-97 16.667 -129 50s-48 81.333 -48 144
s16 110.667 48 144s75 50 129 50s97 -16.667 129 -50s48 -81.333 48 -144zM770 178c0 34 -6 58.667 -18 74s-27.333 23 -46 23c-19.333 0 -34.833 -7.66699 -46.5 -23s-17.5 -40 -17.5 -74s5.83301 -58.833 17.5 -74.5s27.167 -23.5 46.5 -23.5c18.667 0 34 7.83301 46 23.5
s18 40.5 18 74.5z" />
    <glyph glyph-name="ampersand" unicode="&#x26;" horiz-adv-x="705" 
d="M35 184c0 25.333 3.66699 48.5 11 69.5s17.166 40 29.499 57s26.666 32 42.999 45s33.5 24.5 51.5 34.5c-16 19.333 -30.333 40.166 -43 62.499s-19 46.833 -19 73.5c0 58.667 17.667 103.834 53 135.501s84 47.5 146 47.5c31.333 0 58.666 -4.16699 81.999 -12.5
s42.833 -19.666 58.5 -33.999s27.5 -31 35.5 -50s12 -39.5 12 -61.5c0 -40.667 -11.5 -76.834 -34.5 -108.501s-52.167 -58.167 -87.5 -79.5l112 -112c6 13.333 11.833 30.166 17.5 50.499s9.16699 38.166 10.5 53.499l124 -16
c-1.33301 -12.667 -3.66602 -26.5 -6.99902 -41.5s-7.5 -30.167 -12.5 -45.5s-10.667 -30.666 -17 -45.999s-13.166 -29.333 -20.499 -42c21.333 -24 42.166 -50.167 62.499 -78.5s37.833 -56.833 52.5 -85.5h-153c-5.33301 8.66699 -12.666 19.5 -21.999 32.5
s-18.666 24.167 -27.999 33.5c-26.667 -21.333 -57.667 -39.166 -93 -53.499s-75 -21.5 -119 -21.5c-46.667 0 -85.667 5.83301 -117 17.5s-56.5 26.667 -75.5 45s-32.5 39 -40.5 62s-12 45.833 -12 68.5zM174 199c0 -10 2 -20.332 6 -30.999s10.5 -20.5 19.5 -29.5
s20.5 -16.333 34.5 -22s31 -8.5 51 -8.5c28 0 52.5 3.66699 73.5 11s38.5 17 52.5 29l-160 161c-9.33301 -4.66699 -18.5 -10.334 -27.5 -17.001s-17.167 -14.5 -24.5 -23.5s-13.333 -19.167 -18 -30.5s-7 -24.333 -7 -39zM368 544.001
c0 15.333 -4.99902 28.998 -14.999 40.998s-26.667 18 -50 18c-21.333 0 -37.833 -6.5 -49.5 -19.5s-17.5 -29.833 -17.5 -50.5c0 -17.333 5 -34.166 15 -50.499s23 -31.833 39 -46.5c21.333 12 39.666 26.333 54.999 43s23 38.334 23 65.001z" />
    <glyph glyph-name="quotesingle" unicode="'" horiz-adv-x="247" 
d="M197 760l-0.000976562 -74c0 -32 -2.5 -67 -7.5 -105s-10.5 -76.333 -16.5 -115h-99c-7.33301 38.667 -13.166 77 -17.499 115s-6.5 73.333 -6.5 106v73h147z" />
    <glyph glyph-name="parenleft" unicode="(" horiz-adv-x="356" 
d="M217 299c0 -78.667 12.333 -153.667 37 -225s57 -135.333 97 -192l-104 -67c-56.667 66 -100.334 140 -131.001 222s-46 169.333 -46 262s15.333 180 46 262s74.334 156 131.001 222l104 -67c-40 -56.667 -72.333 -120.667 -97 -192s-37 -146.333 -37 -225z" />
    <glyph glyph-name="parenright" unicode=")" horiz-adv-x="356" 
d="M139 299c0 78.667 -12.333 153.667 -37 225s-57 135.333 -97 192l104 67c56.667 -66 100.334 -140 131.001 -222s46 -169.333 46 -262s-15.333 -180 -46 -262s-74.334 -156 -131.001 -222l-104 67c40 56.667 72.333 120.667 97 192s37 146.333 37 225z" />
    <glyph glyph-name="asterisk" unicode="*" horiz-adv-x="502" 
d="M283 536c6.66699 6 14.9941 12.5 24.9941 19.5s20.167 14 30.5 21s20.833 13.333 31.5 19s20 9.83398 28 12.501l24 8l40 -124l-24 -8c-8.66699 -2.66699 -18.667 -4.66699 -30 -6s-23.333 -2.16602 -36 -2.49902s-25 -0.5 -37 -0.5h-32
c8 -5.33301 16.833 -11.5 26.5 -18.5s19.334 -14.333 29.001 -22s18.834 -15.5 27.501 -23.5s15.667 -15.667 21 -23l16 -21l-106 -75l-15 20c-5.33301 6.66699 -10.5 15.334 -15.5 26.001s-9.83301 21.834 -14.5 33.501s-8.66699 23.167 -12 34.5
s-6.33301 21.666 -9 30.999c-2.66699 -9.33301 -5.66699 -19.666 -9 -30.999s-7.33301 -22.833 -12 -34.5s-9.5 -22.834 -14.5 -33.501s-10.167 -19.334 -15.5 -26.001l-15 -20l-106 75l16 21c5.33301 7.33301 12.333 15 21 23s17.834 15.833 27.501 23.5
s19.334 15 29.001 22s18.5 13.167 26.5 18.5h-32c-12 0 -24.333 0.166992 -37 0.5s-24.667 1.16602 -36 2.49902s-21.333 3.33301 -30 6l-24 8l40 124l24 -8c8 -2.66699 17.333 -6.83398 28 -12.501s21.167 -12 31.5 -19s20.333 -14 30 -21s18.167 -13.5 25.5 -19.5
c-3.33301 8.66699 -6.83301 18.834 -10.5 30.501s-7.16699 23.5 -10.5 35.5s-6.16602 23.833 -8.49902 35.5s-3.5 21.834 -3.5 30.501v25h130v-25c0 -8.66699 -1.16699 -18.834 -3.5 -30.501s-5.16602 -23.5 -8.49902 -35.5s-6.83301 -23.833 -10.5 -35.5
s-7.16699 -21.834 -10.5 -30.501z" />
    <glyph glyph-name="plus" unicode="+" horiz-adv-x="568" 
d="M49 361h167v185h136v-185h167v-125h-167v-185h-136v185h-167v125z" />
    <glyph glyph-name="comma" unicode="," horiz-adv-x="246" 
d="M211 152c1.33301 -16 2.16602 -27.3301 2.49902 -33.9971s0.5 -12.334 0.5 -17.001c0 -20 -1.83301 -41.167 -5.5 -63.5s-8.83398 -44.833 -15.501 -67.5s-15 -45.334 -25 -68.001s-21.333 -44.334 -34 -65.001l-117 29c15.333 44 26 85.333 32 124s9 70.667 9 96
c0 4 -0.166992 9.16699 -0.5 15.5s-0.666016 12.833 -0.999023 19.5s-0.666016 13 -0.999023 19s-0.5 10 -0.5 12h156z" />
    <glyph glyph-name="hyphen" unicode="-" horiz-adv-x="340" 
d="M25 366h290v-135h-290v135z" />
    <glyph glyph-name="period" unicode="." horiz-adv-x="246" 
d="M216 79c0 -30 -9.5 -52.833 -28.5 -68.5s-40.5 -23.5 -64.5 -23.5s-45.5 7.83301 -64.5 23.5s-28.5 38.5 -28.5 68.5s9.5 52.833 28.5 68.5s40.5 23.5 64.5 23.5s45.5 -7.83301 64.5 -23.5s28.5 -38.5 28.5 -68.5z" />
    <glyph glyph-name="slash" unicode="/" horiz-adv-x="437" 
d="M128 -185h-153l336 968h151z" />
    <glyph glyph-name="zero" unicode="0" horiz-adv-x="568" 
d="M534 348c0 -116.667 -22.167 -206.168 -66.5 -268.501s-105.5 -93.5 -183.5 -93.5s-139.167 31.167 -183.5 93.5s-66.5 151.833 -66.5 268.5c0 58 5.83301 109.333 17.5 154s28.5 82.334 50.5 113.001s48.333 54 79 70s65 24 103 24c78 0 139.167 -31.167 183.5 -93.5
s66.5 -151.5 66.5 -267.5zM382 347.999c0 34.667 -1.66699 66.167 -5 94.5s-8.66602 52.833 -15.999 73.5s-17.333 36.667 -30 48s-28.334 17 -47.001 17s-34.167 -5.66699 -46.5 -17s-22.333 -27.333 -30 -48s-13.167 -45.167 -16.5 -73.5s-5 -59.833 -5 -94.5
s1.66699 -66.334 5 -95.001s8.83301 -53.334 16.5 -74.001s17.667 -36.667 30 -48s27.833 -17 46.5 -17s34.334 5.66699 47.001 17s22.667 27.333 30 48s12.666 45.334 15.999 74.001s5 60.334 5 95.001z" />
    <glyph glyph-name="one" unicode="1" horiz-adv-x="568" 
d="M70 549c19.333 8 39.5 17.168 60.5 27.501s41.5 21.666 61.5 33.999s39.167 25.333 57.5 39s34.833 28.167 49.5 43.5h104v-693h-149v499c-20 -13.333 -42.333 -25.5 -67 -36.5s-48.667 -20.5 -72 -28.5z" />
    <glyph glyph-name="two" unicode="2" horiz-adv-x="568" 
d="M496 511c0 -25.333 -4.99805 -49.6631 -14.998 -72.9961s-23 -45.833 -39 -67.5s-34 -42.5 -54 -62.5s-39.667 -39 -59 -57c-10 -9.33301 -20.833 -19.833 -32.5 -31.5s-22.834 -23.5 -33.501 -35.5s-20.167 -23.167 -28.5 -33.5s-13.5 -18.833 -15.5 -25.5h298v-125
h-462c-1.33301 7.33301 -2 16.666 -2 27.999v24c0 32 5.16699 61.333 15.5 88s23.833 51.5 40.5 74.5s35.5 44.5 56.5 64.5s41.833 40 62.5 60c16 15.333 31 29.833 45 43.5s26.333 27 37 40s19 26 25 39s9 26.167 9 39.5c0 29.333 -8.33301 50 -25 62
s-37.334 18 -62.001 18c-18 0 -34.833 -2.83301 -50.5 -8.5s-30 -12.334 -43 -20.001s-24.167 -15.334 -33.5 -23.001s-16.333 -13.834 -21 -18.501l-74 104c29.333 27.333 63.5 49.833 102.5 67.5s80.833 26.5 125.5 26.5c40.667 0 75.667 -4.66699 105 -14
s53.5 -22.5 72.5 -39.5s33 -37.667 42 -62s13.5 -51.833 13.5 -82.5z" />
    <glyph glyph-name="three" unicode="3" horiz-adv-x="568" 
d="M228 -15c-18 0 -37.002 1.16992 -57.002 3.50293s-39.333 5.5 -58 9.5s-35.667 8.33301 -51 13s-27.333 9 -36 13l29 124c17.333 -7.33301 39.5 -15.166 66.5 -23.499s60.5 -12.5 100.5 -12.5c46 0 79.667 8.66699 101 26s32 40.666 32 69.999
c0 18 -3.83301 33.167 -11.5 45.5s-18.167 22.333 -31.5 30s-29.166 13 -47.499 16s-37.833 4.5 -58.5 4.5h-58v120h66c14.667 0 28.834 1.33301 42.501 4s25.834 7.16699 36.501 13.5s19.167 15 25.5 26s9.5 24.833 9.5 41.5c0 12.667 -2.66699 23.667 -8 33
s-12.166 17 -20.499 23s-18 10.5 -29 13.5s-22.167 4.5 -33.5 4.5c-28.667 0 -55.167 -4.33301 -79.5 -13s-46.5 -19.334 -66.5 -32.001l-53 109c10.667 6.66699 23.167 13.667 37.5 21s30.166 14 47.499 20s35.833 11 55.5 15s40.5 6 62.5 6
c40.667 0 75.834 -4.83301 105.501 -14.5s54.167 -23.334 73.5 -41.001s33.666 -38.334 42.999 -62.001s14 -49.5 14 -77.5c0 -27.333 -7.66699 -53.833 -23 -79.5s-36 -45.167 -62 -58.5c36 -14.667 63.833 -36.5 83.5 -65.5s29.5 -63.833 29.5 -104.5
c0 -32 -5.33301 -61.5 -16 -88.5s-27.334 -50.333 -50.001 -70s-51.5 -35 -86.5 -46s-76.5 -16.5 -124.5 -16.5z" />
    <glyph glyph-name="four" unicode="4" horiz-adv-x="568" 
d="M319 511c-26 -34 -53.667 -71 -83 -111s-54 -81 -74 -123h157v234zM465 693v-416h74v-122h-74v-155h-146v155h-299v109c14.667 29.333 33 62.5 55 99.5s46.5 75 73.5 114s55.5 77.167 85.5 114.5s60 71 90 101h141z" />
    <glyph glyph-name="five" unicode="5" horiz-adv-x="568" 
d="M360 204c0 19.333 -4.33301 36.5 -13 51.5s-23.667 27.5 -45 37.5s-50 17.667 -86 23s-81.333 8 -136 8c7.33301 62 13.333 125 18 189s8.33398 124 11.001 180h375v-125h-250c-1.33301 -24 -2.83301 -47.167 -4.5 -69.5s-3.5 -41.833 -5.5 -58.5
c97.333 -6.66699 169.166 -29.5 215.499 -68.5s69.5 -93.167 69.5 -162.5c0 -32 -5.66699 -61.667 -17 -89s-28.333 -51 -51 -71s-51.167 -35.667 -85.5 -47s-74.5 -17 -120.5 -17c-18 0 -36.833 1.16699 -56.5 3.5s-38.667 5.33301 -57 9s-34.833 7.5 -49.5 11.5
s-26 8 -34 12l27 123c16.667 -7.33301 38.667 -14.5 66 -21.5s60 -10.5 98 -10.5c46 0 79.333 9.16699 100 27.5s31 39.833 31 64.5z" />
    <glyph glyph-name="six" unicode="6" horiz-adv-x="568" 
d="M274 326c-14.667 0 -30.3359 -1.33203 -47.0029 -3.99902s-29.667 -6.33398 -39 -11.001c0 -2.66699 -0.166992 -6.66699 -0.5 -12s-0.5 -10 -0.5 -14c0 -24 1.66699 -46.667 5 -68s9 -40 17 -56s18.667 -28.5 32 -37.5s30 -13.5 50 -13.5
c16.667 0 30.834 3.5 42.501 10.5s21.334 15.833 29.001 26.5s13.334 22.5 17.001 35.5s5.5 25.5 5.5 37.5c0 34 -8.5 60.167 -25.5 78.5s-45.5 27.5 -85.5 27.5zM292.998 442.001c43.333 0 80.1709 -5.83203 110.504 -17.499s55.166 -27.5 74.499 -47.5
s33.333 -43.333 42 -70s13 -55 13 -85c0 -26.667 -4.83301 -54 -14.5 -82s-24.334 -53.333 -44.001 -76s-44.667 -41.334 -75 -56.001s-66.166 -22 -107.499 -22c-83.333 0 -146.666 26.333 -189.999 79s-65 125.334 -65 218.001c0 66.667 10.333 125.667 31 177
s50.167 94.5 88.5 129.5s84.666 61.667 138.999 80s115.5 27.833 183.5 28.5c1.33301 -20.667 2.66602 -40.834 3.99902 -60.501s2.66602 -40.167 3.99902 -61.5c-34 -0.666992 -65.833 -3.83398 -95.5 -9.50098s-56.667 -14.5 -81 -26.5s-45.5 -27.5 -63.5 -46.5
s-32 -42.167 -42 -69.5c14.667 6.66699 29.667 11.334 45 14.001s29.666 4 42.999 4z" />
    <glyph glyph-name="seven" unicode="7" horiz-adv-x="568" 
d="M142 0c4 48.667 12.333 99.3301 25 151.997s28.167 104.334 46.5 155.001s38.833 98.5 61.5 143.5s45.667 83.833 69 116.5h-301v127h485v-108c-21.333 -23.333 -44.833 -55.666 -70.5 -96.999s-50 -88.166 -73 -140.499s-43 -108.5 -60 -168.5s-27.5 -120 -31.5 -180
h-151z" />
    <glyph glyph-name="eight" unicode="8" horiz-adv-x="568" 
d="M530 193c0 -30 -5.16504 -57.502 -15.498 -82.502s-25.833 -46.833 -46.5 -65.5s-46.5 -33.167 -77.5 -43.5s-66.833 -15.5 -107.5 -15.5c-46.667 0 -85.5 6.5 -116.5 19.5s-56 29.167 -75 48.5s-32.5 40.5 -40.5 63.5s-12 44.167 -12 63.5c0 20 2.66699 38.333 8 55
s12.666 31.834 21.999 45.501s19.833 26.167 31.5 37.5s24.167 22 37.5 32c-28.667 23.333 -49.834 46.333 -63.501 69s-20.5 51.667 -20.5 87c0 26.667 5.5 52.334 16.5 77.001s26.5 46.167 46.5 64.5s44.167 33 72.5 44s59.833 16.5 94.5 16.5
c40.667 0 75.5 -5.83301 104.5 -17.5s52.833 -26.5 71.5 -44.5s32.167 -38.167 40.5 -60.5s12.5 -44.5 12.5 -66.5c0 -32 -8.5 -61.833 -25.5 -89.5s-38.167 -49.5 -63.5 -65.5c38 -24.667 65.167 -50.5 81.5 -77.5s24.5 -58.5 24.5 -94.5zM184.002 186.998
c0 -8 1.83398 -16.834 5.50098 -26.501s9.5 -18.5 17.5 -26.5s18.333 -14.667 31 -20s28 -8 46 -8c34.667 0 60 8.33301 76 25s24 35.334 24 56.001c0 15.333 -3.5 29 -10.5 41s-16.5 22.5 -28.5 31.5s-26.167 17 -42.5 24s-33.833 13.5 -52.5 19.5
c-18.667 -14 -34.334 -30.333 -47.001 -49s-19 -41 -19 -67zM369.003 515.997c0 7.33301 -1.49805 15.1719 -4.49805 23.5049s-8 16.166 -15 23.499s-15.833 13.5 -26.5 18.5s-23.667 7.5 -39 7.5c-14.667 0 -27.334 -2.33301 -38.001 -7s-19.5 -10.834 -26.5 -18.501
s-12.167 -15.834 -15.5 -24.501s-5 -17 -5 -25c0 -21.333 7.83301 -41.333 23.5 -60s42.5 -34.667 80.5 -48c21.333 13.333 37.666 28.666 48.999 45.999s17 38.666 17 63.999z" />
    <glyph glyph-name="nine" unicode="9" horiz-adv-x="568" 
d="M289 372c15.333 0 31.333 1.50098 48 4.50098s29 7.16699 37 12.5v9c0 2.66699 0.166992 5.33398 0.5 8.00098s0.5 5 0.5 7c-0.666992 24 -2.66699 46.5 -6 67.5s-9 39.333 -17 55s-18.833 28 -32.5 37s-30.5 13.5 -50.5 13.5c-16 0 -30 -3.33301 -42 -10
s-21.667 -15.334 -29 -26.001s-12.833 -22.334 -16.5 -35.001s-5.5 -25 -5.5 -37c0 -36 8.83301 -62.667 26.5 -80s46.5 -26 86.5 -26zM362 275.001c-14 -6.66699 -29.498 -11.498 -46.498 -14.498s-31.5 -4.5 -43.5 -4.5c-43.333 0 -80.333 5.16699 -111 15.5
s-55.834 25 -75.501 44s-34.167 41.833 -43.5 68.5s-14 56 -14 88c0 26.667 4.5 54 13.5 82s23.167 53.5 42.5 76.5s43.833 42 73.5 57s65.5 22.5 107.5 22.5c86 0 150.833 -26.5 194.5 -79.5s65.5 -129.167 65.5 -228.5c0 -65.333 -8.5 -123 -25.5 -173
s-43.333 -92 -79 -126s-81.167 -59.833 -136.5 -77.5s-121 -26.834 -197 -27.501c-0.666992 21.333 -1.66699 42 -3 62s-2.66602 40.667 -3.99902 62c38 0.666992 72.333 3.5 103 8.5s57.667 13.333 81 25s43.166 27.167 59.499 46.5s29.166 43.666 38.499 72.999z" />
    <glyph glyph-name="colon" unicode=":" horiz-adv-x="246" 
d="M216 434c0 -30 -9.5 -52.833 -28.5 -68.5s-40.5 -23.5 -64.5 -23.5s-45.5 7.83301 -64.5 23.5s-28.5 38.5 -28.5 68.5s9.5 52.833 28.5 68.5s40.5 23.5 64.5 23.5s45.5 -7.83301 64.5 -23.5s28.5 -38.5 28.5 -68.5zM216 79c0 -30 -9.5 -52.833 -28.5 -68.5
s-40.5 -23.5 -64.5 -23.5s-45.5 7.83301 -64.5 23.5s-28.5 38.5 -28.5 68.5s9.5 52.833 28.5 68.5s40.5 23.5 64.5 23.5s45.5 -7.83301 64.5 -23.5s28.5 -38.5 28.5 -68.5z" />
    <glyph glyph-name="semicolon" unicode=";" horiz-adv-x="246" 
d="M216 434c0 -30 -9.5 -52.833 -28.5 -68.5s-40.5 -23.5 -64.5 -23.5s-45.5 7.83301 -64.5 23.5s-28.5 38.5 -28.5 68.5s9.5 52.833 28.5 68.5s40.5 23.5 64.5 23.5s45.5 -7.83301 64.5 -23.5s28.5 -38.5 28.5 -68.5zM211 152
c1.33301 -16 2.16602 -27.3301 2.49902 -33.9971s0.5 -12.334 0.5 -17.001c0 -20 -1.83301 -41.167 -5.5 -63.5s-8.83398 -44.833 -15.501 -67.5s-15 -45.334 -25 -68.001s-21.333 -44.334 -34 -65.001l-117 29c15.333 44 26 85.333 32 124s9 70.667 9 96
c0 4 -0.166992 9.16699 -0.5 15.5s-0.666016 12.833 -0.999023 19.5s-0.666016 13 -0.999023 19s-0.5 10 -0.5 12h156z" />
    <glyph glyph-name="less" unicode="&#x3c;" horiz-adv-x="568" 
d="M50 361l430 181l39 -121l-314 -122l314 -122l-39 -121l-430 181v124z" />
    <glyph glyph-name="equal" unicode="=" horiz-adv-x="568" 
d="M49 251h470v-125h-470v125zM49 470h470v-125h-470v125z" />
    <glyph glyph-name="greater" unicode="&#x3e;" horiz-adv-x="568" 
d="M518 237l-430 -181l-39 121l314 122l-314 122l39 121l430 -181v-124z" />
    <glyph glyph-name="question" unicode="?" horiz-adv-x="455" 
d="M201 582c-24 0 -46.6689 -2.99902 -68.002 -8.99902s-45 -15.667 -71 -29l-42 113c26 16.667 56.667 29.5 92 38.5s70 13.5 104 13.5c42.667 0 77.834 -5.66699 105.501 -17s49.5 -25.666 65.5 -42.999s27.167 -36.333 33.5 -57s9.5 -40.334 9.5 -59.001
s-2.83301 -35.834 -8.5 -51.501s-12.834 -30.167 -21.501 -43.5s-18.667 -26 -30 -38s-22.333 -23.333 -33 -34c-8 -8 -16.333 -16.5 -25 -25.5s-16.5 -18.5 -23.5 -28.5s-12.833 -20.5 -17.5 -31.5s-7 -22.167 -7 -33.5v-12c0 -5.33301 0.333008 -10 1 -14h-132
c-1.33301 6.66699 -2.16602 14.167 -2.49902 22.5s-0.5 15.5 -0.5 21.5c0 18.667 2.33301 35.5 7 50.5s10.834 29 18.501 42s16.5 25.167 26.5 36.5s20.333 22.333 31 33c15.333 15.333 29.333 30.5 42 45.5s19 32.167 19 51.5c0 16 -6.16699 29.667 -18.5 41
s-30.5 17 -54.5 17zM293.998 79.001c0 -29.333 -9.5 -52 -28.5 -68s-40.5 -24 -64.5 -24s-45.5 8 -64.5 24s-28.5 38.667 -28.5 68s9.5 52 28.5 68s40.5 24 64.5 24s45.5 -8 64.5 -24s28.5 -38.667 28.5 -68z" />
    <glyph glyph-name="at" unicode="@" horiz-adv-x="974" 
d="M701 28c-19.333 0 -38.6621 2.33398 -57.9951 7.00098s-35.333 13 -48 25c-29.333 -20.667 -66.333 -31 -111 -31c-33.333 0 -63.833 5.16699 -91.5 15.5s-51.334 25.833 -71.001 46.5s-35 46.167 -46 76.5s-16.5 65.5 -16.5 105.5c0 34 5.5 65.667 16.5 95
s27.167 54.833 48.5 76.5s47.5 38.834 78.5 51.501s66.167 19 105.5 19s74.166 -3.5 104.499 -10.5s55.5 -14.167 75.5 -21.5v-314c0 -15.333 3.16699 -25.666 9.5 -30.999s15.5 -8 27.5 -8c10.667 0 21.167 3 31.5 9s19.166 16.833 26.499 32.5s13.333 37 18 64
s7 61.167 7 102.5s-7.16699 79.166 -21.5 113.499s-35 63.666 -62 87.999s-60 43.333 -99 57s-83.167 20.5 -132.5 20.5c-47.333 0 -90.833 -8 -130.5 -24s-74 -38.833 -103 -68.5s-51.667 -65.834 -68 -108.501s-24.5 -90.667 -24.5 -144c0 -55.333 8 -103.833 24 -145.5
s38.833 -76.5 68.5 -104.5s65.667 -49.167 108 -63.5s90.166 -21.5 143.499 -21.5c33.333 0 64.833 2.16699 94.5 6.5s54.5 8.5 74.5 12.5l15 -94c-16.667 -5.33301 -42 -11 -76 -17s-70 -9 -108 -9c-64 0 -124 8.33301 -180 25s-104.833 42.667 -146.5 78
s-74.5 80.5 -98.5 135.5s-36 120.833 -36 197.5c0 74 12.667 138.833 38 194.5s58.666 102.167 99.999 139.5s88.5 65.333 141.5 84s107.5 28 163.5 28c61.333 0 118.333 -8.5 171 -25.5s98.167 -41.833 136.5 -74.5s68.5 -73.167 90.5 -121.5s33 -103.833 33 -166.5
c0 -48.667 -5.16699 -91.834 -15.5 -129.501s-25.333 -69.167 -45 -94.5s-43.167 -44.666 -70.5 -57.999s-58 -20 -92 -20zM560.004 147.001c-1.33301 5.33301 -2.33398 13.165 -3.00098 23.498s-1 20.166 -1 29.499v204c-13.333 2.66699 -27.333 4 -42 4
c-22 0 -40.667 -3.5 -56 -10.5s-27.666 -16.5 -36.999 -28.5s-16.166 -26.167 -20.499 -42.5s-6.5 -34.166 -6.5 -53.499s1.66699 -37.166 5 -53.499s9.16602 -30.5 17.499 -42.5s19.5 -21.5 33.5 -28.5s31.333 -10.5 52 -10.5c12 0 23.333 0.833008 34 2.5
s18.667 3.83398 24 6.50098z" />
    <glyph glyph-name="A" unicode="A" horiz-adv-x="721" 
d="M544 0c-7.33301 24 -15.498 48.667 -24.498 74s-17.833 50.666 -26.5 75.999h-270c-8.66699 -25.333 -17.5 -50.666 -26.5 -75.999s-17.167 -50 -24.5 -74h-162c26 74.667 50.667 143.667 74 207s46.166 123 68.499 179s44.333 109.167 66 159.5s44.167 99.5 67.5 147.5
h149c22.667 -48 45 -97.167 67 -147.5s44.167 -103.5 66.5 -159.5s45.166 -115.667 68.499 -179s48 -132.333 74 -207h-167zM357.002 536c-3.33301 -10 -8.33203 -23.667 -14.999 -41s-14.334 -37.333 -23.001 -60s-18.167 -47.667 -28.5 -75s-20.833 -56 -31.5 -86h197
c-10.667 30 -21 58.667 -31 86s-19.5 52.333 -28.5 75s-16.833 42.667 -23.5 60s-12 31 -16 41z" />
    <glyph glyph-name="B" unicode="B" horiz-adv-x="672" 
d="M311 -9c-38 0 -75.832 1.16797 -113.499 3.50098s-76.834 7.83301 -117.501 16.5v672c32 6 67 10.5 105 13.5s73.333 4.5 106 4.5c44 0 84.5 -3.16699 121.5 -9.5s68.833 -17.166 95.5 -32.499s47.5 -35.5 62.5 -60.5s22.5 -55.833 22.5 -92.5
c0 -55.333 -26.667 -99 -80 -131c44 -16.667 74 -39.334 90 -68.001s24 -61 24 -97c0 -72.667 -26.5 -127.334 -79.5 -164.001s-131.833 -55 -236.5 -55zM232.001 302.001v-179c11.333 -1.33301 23.666 -2.33301 36.999 -3s28 -1 44 -1c46.667 0 84.334 6.66699 113.001 20
s43 38 43 74c0 32 -12 54.833 -36 68.5s-58.333 20.5 -103 20.5h-98zM232.001 421.001h75.998c48 0 82.333 6.16699 103 18.5s31 32.166 31 59.499c0 28 -10.667 47.667 -32 59s-52.666 17 -93.999 17c-13.333 0 -27.666 -0.166992 -42.999 -0.5s-29 -1.16602 -41 -2.49902
v-151z" />
    <glyph glyph-name="C" unicode="C" horiz-adv-x="648" 
d="M396 -14c-112.667 0 -198.5 31.3311 -257.5 93.998s-88.5 151.667 -88.5 267c0 57.333 9 108.5 27 153.5s42.667 83 74 114s68.666 54.5 111.999 70.5s90.333 24 141 24c29.333 0 56 -2.16699 80 -6.5s45 -9.33301 63 -15s33 -11.5 45 -17.5s20.667 -10.667 26 -14
l-45 -126c-21.333 11.333 -46.166 21 -74.499 29s-60.5 12 -96.5 12c-24 0 -47.5 -4 -70.5 -12s-43.333 -20.833 -61 -38.5s-31.834 -40.5 -42.501 -68.5s-16 -62 -16 -102c0 -32 3.5 -61.833 10.5 -89.5s18.333 -51.5 34 -71.5s36.167 -35.833 61.5 -47.5
s56 -17.5 92 -17.5c22.667 0 43 1.33301 61 4s34 5.83398 48 9.50098s26.333 7.83398 37 12.501s20.334 9 29.001 13l43 -125c-22 -13.333 -53 -25.333 -93 -36s-86.333 -16 -139 -16z" />
    <glyph glyph-name="D" unicode="D" horiz-adv-x="737" 
d="M236 127c7.33301 -0.666992 15.833 -1.16699 25.5 -1.5s21.167 -0.5 34.5 -0.5c78 0 135.833 19.667 173.5 59s56.5 93.666 56.5 162.999c0 72.667 -18 127.667 -54 165s-93 56 -171 56c-10.667 0 -21.667 -0.166992 -33 -0.5s-22 -1.16602 -32 -2.49902v-438zM687 347
c0 -60 -9.33496 -112.33 -28.002 -156.997s-45.167 -81.667 -79.5 -111s-76.166 -51.333 -125.499 -66s-104.666 -22 -165.999 -22c-28 0 -60.667 1.16699 -98 3.5s-74 7.16602 -110 14.499v675c36 6.66699 73.5 11.167 112.5 13.5s72.5 3.5 100.5 3.5
c59.333 0 113.166 -6.66699 161.499 -20s89.833 -34.333 124.5 -63s61.334 -65.334 80.001 -110.001s28 -98.334 28 -161.001z" />
    <glyph glyph-name="E" unicode="E" horiz-adv-x="606" 
d="M80 0v693h468v-131h-312v-136h277v-128h-277v-167h335v-131h-491z" />
    <glyph glyph-name="F" unicode="F" horiz-adv-x="574" 
d="M80 0v693h464v-131h-308v-145h274v-131h-274v-286h-156z" />
    <glyph glyph-name="G" unicode="G" horiz-adv-x="702" 
d="M418 573c-72.667 0 -125.162 -20.168 -157.495 -60.501s-48.5 -95.5 -48.5 -165.5c0 -34 4 -64.833 12 -92.5s20 -51.5 36 -71.5s36 -35.5 60 -46.5s52 -16.5 84 -16.5c17.333 0 32.166 0.333008 44.499 1s23.166 2 32.499 4v241h156v-343
c-18.667 -7.33301 -48.667 -15.166 -90 -23.499s-92.333 -12.5 -153 -12.5c-52 0 -99.167 8 -141.5 24s-78.5 39.333 -108.5 70s-53.167 68.334 -69.5 113.001s-24.5 95.667 -24.5 153c0 58 9 109.333 27 154s42.667 82.5 74 113.5s68.166 54.5 110.499 70.5
s87.5 24 135.5 24c32.667 0 62.167 -2.16699 88.5 -6.5s49 -9.33301 68 -15s34.667 -11.5 47 -17.5s21.166 -10.667 26.499 -14l-45 -125c-21.333 11.333 -45.833 21.166 -73.5 29.499s-57.834 12.5 -90.501 12.5z" />
    <glyph glyph-name="H" unicode="H" horiz-adv-x="734" 
d="M498 693h156v-693h-156v294h-262v-294h-156v693h156v-265h262v265z" />
    <glyph glyph-name="I" unicode="I" horiz-adv-x="316" 
d="M80 693h156v-693h-156v693z" />
    <glyph glyph-name="J" unicode="J" horiz-adv-x="529" 
d="M459 233c0 -34 -3.83398 -66 -11.501 -96s-21 -56.167 -40 -78.5s-44.667 -40 -77 -53s-73.166 -19.5 -122.499 -19.5c-45.333 0 -84.333 5.5 -117 16.5s-59.667 23.833 -81 38.5l52 121c19.333 -11.333 40 -21.333 62 -30s46 -13 72 -13c38 0 65.333 9.33301 82 28
s25 50 25 94v452h156v-460z" />
    <glyph glyph-name="K" unicode="K" horiz-adv-x="684" 
d="M489 0c-14 22.667 -30.499 47.1699 -49.499 73.5029s-39.667 52.666 -62 78.999s-45.5 51.666 -69.5 75.999s-48 45.833 -72 64.5v-293h-156v693h156v-262c40.667 42.667 81.5 87.167 122.5 133.5s79.167 89.166 114.5 128.499h185c-47.333 -56 -94.833 -110 -142.5 -162
s-97.834 -104.333 -150.501 -157c55.333 -46 108.833 -100.667 160.5 -164s101.167 -133.333 148.5 -210h-185z" />
    <glyph glyph-name="L" unicode="L" horiz-adv-x="563" 
d="M543 134v-134h-463v693h156v-559h307z" />
    <glyph glyph-name="M" unicode="M" horiz-adv-x="897" 
d="M264 693c12 -22 25.8232 -49.167 41.4902 -81.5s32 -67.333 49 -105s33.833 -76.167 50.5 -115.5s32.334 -76.333 47.001 -111c14.667 34.667 30.334 71.667 47.001 111s33.5 77.833 50.5 115.5s33.333 72.667 49 105s29.5 59.5 41.5 81.5h142
c6.66699 -46 12.834 -97.5 18.501 -154.5s10.667 -116.333 15 -178s8.33301 -123.5 12 -185.5s6.83398 -120.333 9.50098 -175h-152c-2 67.333 -4.66699 140.666 -8 219.999s-8.33301 159.333 -15 240c-12 -28 -25.333 -59 -40 -93s-29.167 -68 -43.5 -102
s-28.166 -66.5 -41.499 -97.5s-24.666 -57.5 -33.999 -79.5h-109c-9.33301 22 -20.666 48.5 -33.999 79.5s-27.166 63.5 -41.499 97.5s-28.833 68 -43.5 102s-28 65 -40 93c-6.66699 -80.667 -11.667 -160.667 -15 -240s-6 -152.666 -8 -219.999h-152
c2.66699 54.667 5.83398 113 9.50098 175s7.66699 123.833 12 185.5s9.33301 121 15 178s11.834 108.5 18.501 154.5h149z" />
    <glyph glyph-name="N" unicode="N" horiz-adv-x="756" 
d="M545 0c-44.667 79.333 -93.001 157.667 -145.001 235s-107.333 150.333 -166 219v-454h-154v693h127c22 -22 46.333 -49 73 -81s53.834 -66.167 81.501 -102.5s55.167 -74 82.5 -113s53 -76.5 77 -112.5v409h155v-693h-131z" />
    <glyph glyph-name="O" unicode="O" horiz-adv-x="790" 
d="M211 347c0 -34 4.16699 -64.668 12.5 -92.001s20.333 -50.833 36 -70.5s34.834 -34.834 57.501 -45.501s48.667 -16 78 -16c28.667 0 54.5 5.33301 77.5 16s42.333 25.834 58 45.501s27.667 43.167 36 70.5s12.5 58 12.5 92s-4.16699 64.833 -12.5 92.5
s-20.333 51.334 -36 71.001s-35 34.834 -58 45.501s-48.833 16 -77.5 16c-29.333 0 -55.333 -5.5 -78 -16.5s-41.834 -26.333 -57.501 -46s-27.667 -43.334 -36 -71.001s-12.5 -58.167 -12.5 -91.5zM740 346.999c0 -59.333 -8.83398 -111.5 -26.501 -156.5
s-41.834 -82.667 -72.501 -113s-67.167 -53.166 -109.5 -68.499s-87.833 -23 -136.5 -23c-47.333 0 -92 7.66699 -134 23s-78.667 38.166 -110 68.499s-56 68 -74 113s-27 97.167 -27 156.5s9.33301 111.5 28 156.5s43.834 82.833 75.501 113.5s68.334 53.667 110.001 69
s85.5 23 131.5 23c47.333 0 92 -7.66699 134 -23s78.667 -38.333 110 -69s56 -68.5 74 -113.5s27 -97.167 27 -156.5z" />
    <glyph glyph-name="P" unicode="P" horiz-adv-x="644" 
d="M288 701c103.333 0 182.667 -18.168 238 -54.501s83 -95.833 83 -178.5c0 -83.333 -28 -143.5 -84 -180.5s-136 -55.5 -240 -55.5h-49v-232h-156v683c34 6.66699 70 11.334 108 14.001s71.333 4 100 4zM298.001 567.999c-11.333 0 -22.499 -0.333008 -33.499 -1
s-20.5 -1.33398 -28.5 -2.00098v-200h49c54 0 94.667 7.33301 122 22s41 42 41 82c0 19.333 -3.5 35.333 -10.5 48s-17 22.834 -30 30.501s-28.833 13 -47.5 16s-39.334 4.5 -62.001 4.5z" />
    <glyph glyph-name="Q" unicode="Q" horiz-adv-x="790" 
d="M211 347c0 -34 4.16699 -64.668 12.5 -92.001s20.333 -50.833 36 -70.5s34.834 -34.834 57.501 -45.501s48.667 -16 78 -16c28.667 0 54.5 5.33301 77.5 16s42.333 25.834 58 45.501s27.667 43.167 36 70.5s12.5 58 12.5 92s-4.16699 64.833 -12.5 92.5
s-20.333 51.334 -36 71.001s-35 34.834 -58 45.501s-48.833 16 -77.5 16c-29.333 0 -55.333 -5.5 -78 -16.5s-41.834 -26.333 -57.501 -46s-27.667 -43.334 -36 -71.001s-12.5 -58.167 -12.5 -91.5zM740 346.999c0 -48.667 -6.00098 -92.5029 -18.001 -131.503
s-28.833 -73.167 -50.5 -102.5s-47.5 -53.666 -77.5 -72.999s-63 -33.333 -99 -42c3.33301 -13.333 10.666 -24.166 21.999 -32.499s25.666 -15.166 42.999 -20.499s37.5 -9.33301 60.5 -12s47.833 -5 74.5 -7l-32 -114c-52 2 -96.5 7.16699 -133.5 15.5
s-68.333 19.833 -94 34.5s-46 32.667 -61 54s-26.5 46 -34.5 74c-41.333 5.33301 -79.666 16.833 -114.999 34.5s-66 41.5 -92 71.5s-46.333 66 -61 108s-22 89.667 -22 143c0 59.333 9.33301 111.5 28 156.5s43.834 82.833 75.501 113.5s68.334 53.667 110.001 69
s85.5 23 131.5 23c47.333 0 92 -7.66699 134 -23s78.667 -38.333 110 -69s56 -68.5 74 -113.5s27 -97.167 27 -156.5z" />
    <glyph glyph-name="R" unicode="R" horiz-adv-x="667" 
d="M283 701c104 0 183.666 -18.5059 238.999 -55.5059s83 -94.5 83 -172.5c0 -48.667 -11.167 -88.167 -33.5 -118.5s-54.5 -54.166 -96.5 -71.499c14 -17.333 28.667 -37.166 44 -59.499s30.5 -45.666 45.5 -69.999s29.5 -49.666 43.5 -75.999s27 -52.166 39 -77.499h-175
c-12.667 22.667 -25.5 45.667 -38.5 69s-26.333 46 -40 68s-27.167 42.833 -40.5 62.5s-26.666 37.5 -39.999 53.5h-77v-253h-156v683c34 6.66699 69.167 11.334 105.5 14.001s68.833 4 97.5 4zM291.999 567.994c-11.333 0 -21.5 -0.332031 -30.5 -0.999023
s-17.5 -1.33398 -25.5 -2.00098v-188h44c58.667 0 100.667 7.33301 126 22s38 39.667 38 75c0 34 -12.833 58.167 -38.5 72.5s-63.5 21.5 -113.5 21.5z" />
    <glyph glyph-name="S" unicode="S" horiz-adv-x="582" 
d="M269 119c22 0 40.167 1.83105 54.5 5.49805s25.833 8.66699 34.5 15s14.667 13.833 18 22.5s5 18.334 5 29.001c0 22.667 -10.667 41.5 -32 56.5s-58 31.167 -110 48.5c-22.667 8 -45.334 17.167 -68.001 27.5s-43 23.333 -61 39s-32.667 34.667 -44 57
s-17 49.5 -17 81.5s6 60.833 18 86.5s29 47.5 51 65.5s48.667 31.833 80 41.5s66.666 14.5 105.999 14.5c46.667 0 87 -5 121 -15s62 -21 84 -33l-45 -123c-19.333 10 -40.833 18.833 -64.5 26.5s-52.167 11.5 -85.5 11.5c-37.333 0 -64.166 -5.16699 -80.499 -15.5
s-24.5 -26.166 -24.5 -47.499c0 -12.667 3 -23.334 9 -32.001s14.5 -16.5 25.5 -23.5s23.667 -13.333 38 -19s30.166 -11.5 47.499 -17.5c36 -13.333 67.333 -26.5 94 -39.5s48.834 -28.167 66.501 -45.5s30.834 -37.666 39.501 -60.999s13 -51.666 13 -84.999
c0 -64.667 -22.667 -114.834 -68 -150.501s-113.666 -53.5 -204.999 -53.5c-30.667 0 -58.334 1.83301 -83.001 5.5s-46.5 8.16699 -65.5 13.5s-35.333 11 -49 17s-25.167 11.667 -34.5 17l44 124c20.667 -11.333 46.167 -21.5 76.5 -30.5s67.5 -13.5 111.5 -13.5z" />
    <glyph glyph-name="T" unicode="T" horiz-adv-x="614" 
d="M594 693v-133h-209v-560h-156v560h-209v133h574z" />
    <glyph glyph-name="U" unicode="U" horiz-adv-x="707" 
d="M351 -14c-48.667 0 -90.6689 6.83008 -126.002 20.4971s-64.5 32.667 -87.5 57s-40 53.333 -51 87s-16.5 70.834 -16.5 111.501v431h156v-418c0 -28 3.16699 -51.833 9.5 -71.5s15 -35.667 26 -48s24.333 -21.166 40 -26.499s32.834 -8 51.501 -8
c38 0 68.833 11.667 92.5 35s35.5 63 35.5 119v418h156v-431c0 -40.667 -5.66699 -78 -17 -112s-28.666 -63.167 -51.999 -87.5s-53 -43.166 -89 -56.499s-78.667 -20 -128 -20z" />
    <glyph glyph-name="V" unicode="V" horiz-adv-x="722" 
d="M286 0c-27.333 58 -54.332 118.333 -80.999 181s-52 124.667 -76 186s-46.167 120 -66.5 176s-37.833 106 -52.5 150h172c13.333 -40 27.833 -83.167 43.5 -129.5s31.667 -92.5 48 -138.5s32.166 -90 47.499 -132s29.666 -78.333 42.999 -109
c12.667 30.667 26.834 67 42.501 109s31.667 86 48 132s32.333 92.167 48 138.5s30.167 89.5 43.5 129.5h166c-15.333 -44 -33 -94 -53 -150s-42 -114.667 -66 -176s-49.333 -123.333 -76 -186s-53.667 -123 -81 -181h-150z" />
    <glyph glyph-name="W" unicode="W" horiz-adv-x="948" 
d="M545 619c8 -27.333 16.8262 -58.168 26.4932 -92.501s20 -69.833 31 -106.5s22.167 -73.334 33.5 -110.001s22.333 -70.667 33 -102c8.66699 34 17.5 71 26.5 111s17.5 81.333 25.5 124s15.833 85.167 23.5 127.5s14.834 83.166 21.501 122.499h162
c-23.333 -116 -50.166 -233.667 -80.499 -353s-63.166 -232.666 -98.499 -339.999h-143c-23.333 64 -46 131.167 -68 201.5s-43.667 140.833 -65 211.5c-21.333 -70.667 -42.666 -141.167 -63.999 -211.5s-43.666 -137.5 -66.999 -201.5h-143
c-35.333 107.333 -68.166 220.666 -98.499 339.999s-57.166 237 -80.499 353h169c6.66699 -39.333 14 -80.166 22 -122.499s16.333 -84.833 25 -127.5s17.5 -84 26.5 -124s18.167 -77 27.5 -111c12 32.667 23.667 67.334 35 104.001s22.333 73.334 33 110.001
s20.5 72 29.5 106s17.167 64.333 24.5 91h133z" />
    <glyph glyph-name="X" unicode="X" horiz-adv-x="675" 
d="M478 0c-19.333 38.667 -40.502 77.834 -63.502 117.501s-49.5 80.167 -79.5 121.5c-9.33301 -12 -21.166 -28.667 -35.499 -50s-28.666 -44 -42.999 -68s-27.833 -47 -40.5 -69s-22 -39.333 -28 -52h-178c29.333 54 63.5 110.667 102.5 170s82.5 122.333 130.5 189
l-223 334h189l135 -216l132 216h178l-220 -336c56 -72.667 103 -139.834 141 -201.501s68 -113.5 90 -155.5h-187z" />
    <glyph glyph-name="Y" unicode="Y" horiz-adv-x="661" 
d="M334 408c28 47.333 54.668 94.6641 80.001 141.997s48.666 95 69.999 143h172c-38 -74.667 -77.333 -147 -118 -217s-83.667 -140.333 -129 -211v-265h-156v263c-45.333 70.667 -88.5 141.334 -129.5 212.001s-80.5 143.334 -118.5 218.001h181
c21.333 -48 44.333 -95.667 69 -143s51 -94.666 79 -141.999z" />
    <glyph glyph-name="Z" unicode="Z" horiz-adv-x="610" 
d="M569 585c-21.333 -22 -46.667 -50.5 -76 -85.5s-59.666 -73.167 -90.999 -114.5s-62.333 -84 -93 -128s-58 -86 -82 -126h353v-131h-545v93c18.667 34 41.5 71.833 68.5 113.5s55.167 83.667 84.5 126s59.166 83.333 89.499 123s58.5 75.167 84.5 106.5h-311v131h518
v-108z" />
    <glyph glyph-name="bracketleft" unicode="[" horiz-adv-x="371" 
d="M90 783h271v-119h-129v-730h129v-119h-271v968z" />
    <glyph glyph-name="backslash" unicode="\" horiz-adv-x="437" 
d="M-25 783h151l336 -968h-153z" />
    <glyph glyph-name="bracketright" unicode="]" horiz-adv-x="371" 
d="M281 -185h-271v119h129v730h-129v119h271v-968z" />
    <glyph glyph-name="asciicircum" unicode="^" horiz-adv-x="568" 
d="M550 350l-125 -61l-141 245l-141 -245l-125 61l207 347h118z" />
    <glyph glyph-name="underscore" unicode="_" horiz-adv-x="500" 
d="M0 -61h500v-124h-500v124z" />
    <glyph glyph-name="grave" unicode="`" horiz-adv-x="286" 
d="M111 799l142 -162l-68 -61l-165 139z" />
    <glyph glyph-name="a" unicode="a" horiz-adv-x="553" 
d="M271 104c14.667 0 28.665 0.334961 41.998 1.00195s24 1.66699 32 3v113c-6 1.33301 -15 2.66602 -27 3.99902s-23 2 -33 2c-14 0 -27.167 -0.833008 -39.5 -2.5s-23.166 -4.83398 -32.499 -9.50098s-16.666 -11 -21.999 -19s-8 -18 -8 -30
c0 -23.333 7.83301 -39.5 23.5 -48.5s37.167 -13.5 64.5 -13.5zM258.998 540.002c44 0 80.665 -4.99609 109.998 -14.9961s52.833 -24.333 70.5 -43s30.167 -41.334 37.5 -68.001s11 -56.334 11 -89.001v-310c-21.333 -4.66699 -51 -10.167 -89 -16.5s-84 -9.5 -138 -9.5
c-34 0 -64.833 3 -92.5 9s-51.5 15.833 -71.5 29.5s-35.333 31.5 -46 53.5s-16 49 -16 81c0 30.667 6.16699 56.667 18.5 78s28.833 38.333 49.5 51s44.334 21.834 71.001 27.501s54.334 8.5 83.001 8.5c19.333 0 36.5 -0.833008 51.5 -2.5s27.167 -3.83398 36.5 -6.50098
v14c0 25.333 -7.66699 45.666 -23 60.999s-42 23 -80 23c-25.333 0 -50.333 -1.83301 -75 -5.5s-46 -8.83398 -64 -15.501l-19 120c8.66699 2.66699 19.5 5.5 32.5 8.5s27.167 5.66699 42.5 8s31.5 4.33301 48.5 6s34.167 2.5 51.5 2.5z" />
    <glyph glyph-name="b" unicode="b" horiz-adv-x="604" 
d="M407 267c0 96 -35.332 144 -105.999 144c-15.333 0 -30.5 -2 -45.5 -6s-27.167 -9 -36.5 -15v-271c7.33301 -1.33301 16.666 -2.5 27.999 -3.5s23.666 -1.5 36.999 -1.5c40.667 0 71.334 14 92.001 42s31 65 31 111zM559.001 263
c0 -42 -6.16895 -80.002 -18.502 -114.002s-30.166 -63 -53.499 -87s-52 -42.5 -86 -55.5s-72.667 -19.5 -116 -19.5c-18 0 -36.833 0.833008 -56.5 2.5s-39 3.83398 -58 6.50098s-37.167 5.83398 -54.5 9.50098s-32.666 7.5 -45.999 11.5v735l149 24v-262
c16.667 7.33301 34 13 52 17s37.333 6 58 6c37.333 0 70.333 -6.5 99 -19.5s52.667 -31.5 72 -55.5s34 -52.833 44 -86.5s15 -71.167 15 -112.5z" />
    <glyph glyph-name="c" unicode="c" horiz-adv-x="500" 
d="M45 263c0 38 6.16895 73.832 18.502 107.499s30.166 63 53.499 88s51.666 44.833 84.999 59.5s71.333 22 114 22c28 0 53.667 -2.5 77 -7.5s46 -12.167 68 -21.5l-31 -119c-14 5.33301 -29.333 10 -46 14s-35.334 6 -56.001 6c-44 0 -76.833 -13.667 -98.5 -41
s-32.5 -63.333 -32.5 -108c0 -47.333 10.167 -84 30.5 -110s55.833 -39 106.5 -39c18 0 37.333 1.66699 58 5s39.667 8.66602 57 15.999l21 -122c-17.333 -7.33301 -39 -13.666 -65 -18.999s-54.667 -8 -86 -8c-48 0 -89.333 7.16699 -124 21.5s-63.167 33.833 -85.5 58.5
s-38.666 53.834 -48.999 87.501s-15.5 70.167 -15.5 109.5z" />
    <glyph glyph-name="d" unicode="d" horiz-adv-x="604" 
d="M197 267c0 -46 10.334 -83 31.001 -111s51.334 -42 92.001 -42c13.333 0 25.666 0.5 36.999 1.5s20.666 2.16699 27.999 3.5v271c-9.33301 6 -21.5 11 -36.5 15s-30.167 6 -45.5 6c-70.667 0 -106 -48 -106 -144zM534.001 17c-13.333 -4 -28.668 -7.83301 -46.001 -11.5
s-35.5 -6.83398 -54.5 -9.50098s-38.333 -4.83398 -58 -6.50098s-38.5 -2.5 -56.5 -2.5c-43.333 0 -82 6.33301 -116 19s-62.667 30.834 -86 54.501s-41.166 52.334 -53.499 86.001s-18.5 71.5 -18.5 113.5c0 42.667 5.33301 81.167 16 115.5s26 63.5 46 87.5
s44.5 42.333 73.5 55s62.167 19 99.5 19c20.667 0 39.167 -2 55.5 -6s32.833 -9.66699 49.5 -17v238l149 24v-759z" />
    <glyph glyph-name="e" unicode="e" horiz-adv-x="584" 
d="M45 259c0 46.667 7.17188 87.502 21.5049 122.502s33.166 64.167 56.499 87.5s50.166 41 80.499 53s61.5 18 93.5 18c74.667 0 133.667 -22.833 177 -68.5s65 -112.834 65 -201.501c0 -8.66699 -0.333008 -18.167 -1 -28.5s-1.33398 -19.5 -2.00098 -27.5h-338
c3.33301 -30.667 17.666 -55 42.999 -73s59.333 -27 102 -27c27.333 0 54.166 2.5 80.499 7.5s47.833 11.167 64.5 18.5l20 -121c-8 -4 -18.667 -8 -32 -12s-28.166 -7.5 -44.499 -10.5s-33.833 -5.5 -52.5 -7.5s-37.334 -3 -56.001 -3c-47.333 0 -88.5 7 -123.5 21
s-64 33.167 -87 57.5s-40 53.166 -51 86.499s-16.5 69.333 -16.5 108zM395.005 316.002c-0.666992 12.667 -2.83105 24.999 -6.49805 36.999s-9.33398 22.667 -17.001 32s-17.334 17 -29.001 23s-26.167 9 -43.5 9c-16.667 0 -31 -2.83301 -43 -8.5s-22 -13.167 -30 -22.5
s-14.167 -20.166 -18.5 -32.499s-7.5 -24.833 -9.5 -37.5h197z" />
    <glyph glyph-name="f" unicode="f" horiz-adv-x="422" 
d="M298 776c28 0 53.668 -2.83301 77.001 -8.5s41.333 -11.167 54 -16.5l-29 -119c-13.333 6 -27.833 10.5 -43.5 13.5s-30.167 4.5 -43.5 4.5c-18 0 -33.167 -2.5 -45.5 -7.5s-22 -11.833 -29 -20.5s-12 -19 -15 -31s-4.5 -25 -4.5 -39v-26h184v-124h-184v-402h-149v554
c0 68 19.167 122 57.5 162s95.166 60 170.499 60z" />
    <glyph glyph-name="g" unicode="g" horiz-adv-x="594" 
d="M197 280c0 -83.333 33.668 -125 101.001 -125c15.333 0 29.666 2 42.999 6s24.666 8.66699 33.999 14v238c-7.33301 1.33301 -16 2.5 -26 3.5s-21.667 1.5 -35 1.5c-39.333 0 -68.666 -13 -87.999 -39s-29 -59 -29 -99zM524.001 66
c0 -86 -21.834 -149.834 -65.501 -191.501s-111.167 -62.5 -202.5 -62.5c-32 0 -64 2.83301 -96 8.5s-61.667 13.167 -89 22.5l26 125c23.333 -9.33301 47.833 -16.666 73.5 -21.999s54.834 -8 87.501 -8c42.667 0 72.834 9.33301 90.501 28s26.5 42.667 26.5 72v19
c-16 -7.33301 -32.5 -12.833 -49.5 -16.5s-35.5 -5.5 -55.5 -5.5c-72.667 0 -128.334 21.5 -167.001 64.5s-58 103.167 -58 180.5c0 38.667 6 73.834 18 105.501s29.5 58.834 52.5 81.501s51.167 40.167 84.5 52.5s71 18.5 113 18.5c18 0 36.5 -0.833008 55.5 -2.5
s37.833 -3.83398 56.5 -6.50098s36.5 -5.83398 53.5 -9.50098s32.167 -7.5 45.5 -11.5v-442z" />
    <glyph glyph-name="h" unicode="h" 
d="M70 0l-0.00195312 751.999l149 24v-252c10 3.33301 22.833 6.5 38.5 9.5s30.834 4.5 45.501 4.5c42.667 0 78.167 -5.83301 106.5 -17.5s51 -28.167 68 -49.5s29 -46.666 36 -75.999s10.5 -62 10.5 -98v-297h-149v279c0 48 -6.16699 82 -18.5 102s-35.166 30 -68.499 30
c-13.333 0 -25.833 -1.16699 -37.5 -3.5s-22.167 -4.83301 -31.5 -7.5v-400h-149z" />
    <glyph glyph-name="i" unicode="i" horiz-adv-x="289" 
d="M219 0h-149v526h149v-526zM233 678c0 -27.333 -8.83301 -48.833 -26.5 -64.5s-38.5 -23.5 -62.5 -23.5s-44.833 7.83301 -62.5 23.5s-26.5 37.167 -26.5 64.5s8.83301 48.833 26.5 64.5s38.5 23.5 62.5 23.5s44.833 -7.83301 62.5 -23.5s26.5 -37.167 26.5 -64.5z" />
    <glyph glyph-name="j" unicode="j" horiz-adv-x="289" 
d="M21 -185c-9.33301 0 -23.166 0.998047 -41.499 2.99805s-35.5 5.66699 -51.5 11l20 121c10 -3.33301 19.167 -5.66602 27.5 -6.99902s18.833 -2 31.5 -2c23.333 0 39.666 7 48.999 21s14 34.333 14 61v503h149v-507c0 -69.333 -17 -120.666 -51 -153.999
s-83 -50 -147 -50zM233 677.998c0 -27.333 -8.83301 -48.833 -26.5 -64.5s-38.5 -23.5 -62.5 -23.5s-44.833 7.83301 -62.5 23.5s-26.5 37.167 -26.5 64.5s8.83301 48.833 26.5 64.5s38.5 23.5 62.5 23.5s44.833 -7.83301 62.5 -23.5s26.5 -37.167 26.5 -64.5z" />
    <glyph glyph-name="k" unicode="k" horiz-adv-x="579" 
d="M219 336c14.667 16 29.833 32.6699 45.5 50.0029s30.834 34.5 45.501 51.5s28.5 33.167 41.5 48.5s24.167 28.666 33.5 39.999h177c-35.333 -40.667 -69.833 -79.5 -103.5 -116.5s-70.5 -75.167 -110.5 -114.5c20 -18 40.667 -39.5 62 -64.5s42 -50.833 62 -77.5
s38.333 -53.334 55 -80.001s30.667 -51 42 -73h-171c-10.667 17.333 -22.834 36.5 -36.501 57.5s-28.167 42 -43.5 63s-31.5 41.167 -48.5 60.5s-33.833 35.666 -50.5 48.999v-230h-149v752l149 24v-440z" />
    <glyph glyph-name="l" unicode="l" horiz-adv-x="316" 
d="M280 -10c-43.333 0.666992 -78.5 5.33203 -105.5 13.999s-48.333 20.834 -64 36.501s-26.334 34.667 -32.001 57s-8.5 47.5 -8.5 75.5v579l149 24v-573c0 -13.333 1 -25.333 3 -36s5.83301 -19.667 11.5 -27s13.834 -13.333 24.501 -18s25 -7.66699 43 -9z" />
    <glyph glyph-name="m" unicode="m" horiz-adv-x="862" 
d="M359 279c0 48 -6.16797 81.999 -18.501 101.999s-33.5 30 -63.5 30c-9.33301 0 -19 -0.5 -29 -1.5s-19.667 -2.16699 -29 -3.5v-406h-149v508c12.667 3.33301 27.5 6.83301 44.5 10.5s35 7 54 10s38.5 5.33301 58.5 7s39.667 2.5 59 2.5c38 0 68.833 -4.83301 92.5 -14.5
s43.167 -21.167 58.5 -34.5c21.333 15.333 45.833 27.333 73.5 36s53.167 13 76.5 13c42 0 76.5 -5.83301 103.5 -17.5s48.5 -28.167 64.5 -49.5s27 -46.666 33 -75.999s9 -62 9 -98v-297h-149v279c0 48 -6.16699 82 -18.5 102s-33.5 30 -63.5 30c-8 0 -19.167 -2 -33.5 -6
s-26.166 -9 -35.499 -15c4.66699 -15.333 7.66699 -31.5 9 -48.5s2 -35.167 2 -54.5v-287h-149v279z" />
    <glyph glyph-name="n" unicode="n" 
d="M70 508c25.333 7.33301 58.001 14.166 98.001 20.499s82 9.5 126 9.5c44.667 0 81.834 -5.83301 111.501 -17.5s53.167 -28.167 70.5 -49.5s29.666 -46.666 36.999 -75.999s11 -62 11 -98v-297h-149v279c0 48 -6.33301 82 -19 102s-36.334 30 -71.001 30
c-10.667 0 -22 -0.5 -34 -1.5s-22.667 -2.16699 -32 -3.5v-406h-149v508z" />
    <glyph glyph-name="o" unicode="o" horiz-adv-x="607" 
d="M562 264c0 -41.333 -5.99805 -79.166 -17.998 -113.499s-29.333 -63.666 -52 -87.999s-49.834 -43.166 -81.501 -56.499s-67.167 -20 -106.5 -20c-38.667 0 -73.834 6.66699 -105.501 20s-58.834 32.166 -81.501 56.499s-40.334 53.666 -53.001 87.999
s-19 72.166 -19 113.499s6.5 79 19.5 113s31 63 54 87s50.333 42.667 82 56s66.167 20 103.5 20c38 0 72.833 -6.66699 104.5 -20s58.834 -32 81.501 -56s40.334 -53 53.001 -87s19 -71.667 19 -113zM410.002 264c0 46 -9.16699 82.167 -27.5 108.5s-44.5 39.5 -78.5 39.5
s-60.333 -13.167 -79 -39.5s-28 -62.5 -28 -108.5s9.33301 -82.5 28 -109.5s45 -40.5 79 -40.5s60.167 13.5 78.5 40.5s27.5 63.5 27.5 109.5z" />
    <glyph glyph-name="p" unicode="p" horiz-adv-x="604" 
d="M407 259c0 46 -10.334 82.833 -31.001 110.5s-51.334 41.5 -92.001 41.5c-13.333 0 -25.666 -0.5 -36.999 -1.5s-20.666 -2.16699 -27.999 -3.5v-269c9.33301 -6 21.5 -11 36.5 -15s30.167 -6 45.5 -6c70.667 0 106 47.667 106 143zM558.999 263
c0 -40.667 -4.99805 -77.6689 -14.998 -111.002s-24.667 -62 -44 -86s-43.333 -42.667 -72 -56s-61.667 -20 -99 -20c-20.667 0 -40 2 -58 6s-35.333 9.66699 -52 17v-198h-149v693c13.333 4 28.666 7.83301 45.999 11.5s35.5 6.83398 54.5 9.50098
s38.333 4.83398 58 6.50098s38.5 2.5 56.5 2.5c43.333 0 82 -6.5 116 -19.5s62.667 -31.333 86 -55s41.166 -52.5 53.499 -86.5s18.5 -72 18.5 -114z" />
    <glyph glyph-name="q" unicode="q" horiz-adv-x="604" 
d="M197 259c0 -95.333 35.332 -143 105.999 -143c15.333 0 30.5 2 45.5 6s27.167 9 36.5 15v269c-7.33301 1.33301 -16.666 2.5 -27.999 3.5s-23.666 1.5 -36.999 1.5c-40.667 0 -71.334 -13.833 -92.001 -41.5s-31 -64.5 -31 -110.5zM44.999 263
c0 40.667 6.16895 77.8359 18.502 111.503s30.166 62.667 53.499 87s52 43.166 86 56.499s72.667 20 116 20c18 0 36.833 -0.833008 56.5 -2.5s39 -3.83398 58 -6.50098s37.167 -5.83398 54.5 -9.50098s32.666 -7.5 45.999 -11.5v-693h-149v198
c-16.667 -7.33301 -34 -13 -52 -17s-37.333 -6 -58 -6c-74.667 0 -131.667 24.5 -171 73.5s-59 115.5 -59 199.5z" />
    <glyph glyph-name="r" unicode="r" horiz-adv-x="422" 
d="M387 394c-13.333 3.33301 -28.998 6.83301 -46.998 10.5s-37.333 5.5 -58 5.5c-9.33301 0 -20.5 -0.833008 -33.5 -2.5s-22.833 -3.5 -29.5 -5.5v-402h-149v498c26.667 9.33301 58.167 18.166 94.5 26.499s76.833 12.5 121.5 12.5c8 0 17.667 -0.5 29 -1.5
s22.666 -2.33301 33.999 -4s22.666 -3.66699 33.999 -6s21 -5.16602 29 -8.49902z" />
    <glyph glyph-name="s" unicode="s" horiz-adv-x="485" 
d="M221 107c27.333 0 46.666 2.6709 57.999 8.00391s17 15.666 17 30.999c0 12 -7.33301 22.5 -22 31.5s-37 19.167 -67 30.5c-23.333 8.66699 -44.5 17.667 -63.5 27s-35.167 20.5 -48.5 33.5s-23.666 28.5 -30.999 46.5s-11 39.667 -11 65c0 49.333 18.333 88.333 55 117
s87 43 151 43c32 0 62.667 -2.83301 92 -8.5s52.666 -11.834 69.999 -18.501l-26 -116c-17.333 6 -36.166 11.333 -56.499 16s-43.166 7 -68.499 7c-46.667 0 -70 -13 -70 -39c0 -6 1 -11.333 3 -16s6 -9.16699 12 -13.5s14.167 -9 24.5 -14s23.5 -10.5 39.5 -16.5
c32.667 -12 59.667 -23.833 81 -35.5s38.166 -24.334 50.499 -38.001s21 -28.834 26 -45.501s7.5 -36 7.5 -58c0 -52 -19.5 -91.333 -58.5 -118s-94.167 -40 -165.5 -40c-46.667 0 -85.5 4 -116.5 12s-52.5 14.667 -64.5 20l25 121c25.333 -10 51.333 -17.833 78 -23.5
s53 -8.5 79 -8.5z" />
    <glyph glyph-name="t" unicode="t" horiz-adv-x="444" 
d="M65 657l149.001 23.999v-155h179v-124h-179v-185c0 -31.333 5.5 -56.333 16.5 -75s33.167 -28 66.5 -28c16 0 32.5 1.5 49.5 4.5s32.5 7.16699 46.5 12.5l21 -116c-18 -7.33301 -38 -13.666 -60 -18.999s-49 -8 -81 -8c-40.667 0 -74.334 5.5 -101.001 16.5
s-48 26.333 -64 46s-27.167 43.5 -33.5 71.5s-9.5 59 -9.5 93v442z" />
    <glyph glyph-name="u" unicode="u" 
d="M519 18c-25.333 -7.33301 -58.001 -14.167 -98.001 -20.5s-82 -9.5 -126 -9.5c-44.667 0 -81.834 6 -111.501 18s-53.167 28.833 -70.5 50.5s-29.666 47.5 -36.999 77.5s-11 63 -11 99v293h149v-275c0 -48 6.33301 -82.667 19 -104s36.334 -32 71.001 -32
c10.667 0 22 0.5 34 1.5s22.667 2.16699 32 3.5v406h149v-508z" />
    <glyph glyph-name="v" unicode="v" horiz-adv-x="550" 
d="M213 0c-34 66.667 -68.501 144.667 -103.501 234s-68.167 186.666 -99.5 291.999h158c6.66699 -26 14.5 -54.167 23.5 -84.5s18.333 -61 28 -92s19.334 -61.167 29.001 -90.5s19.167 -56 28.5 -80c8.66699 24 18 50.667 28 80s19.833 59.5 29.5 90.5s19 61.667 28 92
s16.833 58.5 23.5 84.5h154c-31.333 -105.333 -64.5 -202.666 -99.5 -291.999s-69.5 -167.333 -103.5 -234h-124z" />
    <glyph glyph-name="w" unicode="w" horiz-adv-x="784" 
d="M390 302c-13.333 -50.667 -27.4961 -101 -42.4961 -151s-30.833 -100.333 -47.5 -151h-116c-12 28 -25 61.333 -39 100s-28.5 80.834 -43.5 126.501s-30.333 94 -46 145s-30.834 102.5 -45.501 154.5h157c5.33301 -24 11.166 -50.167 17.499 -78.5s13 -57.5 20 -87.5
s14.333 -60.167 22 -90.5s15.5 -59.5 23.5 -87.5c8.66699 29.333 17.167 59.333 25.5 90s16.333 60.834 24 90.501s15 58.334 22 86.001s13.167 53.5 18.5 77.5h108c5.33301 -24 11.333 -49.833 18 -77.5s13.667 -56.334 21 -86.001s15 -59.834 23 -90.501
s16.333 -60.667 25 -90c8 28 16 57.167 24 87.5s15.5 60.5 22.5 90.5s13.667 59.167 20 87.5s12.166 54.5 17.499 78.5h155c-14.667 -52 -29.834 -103.5 -45.501 -154.5s-31 -99.333 -46 -145s-29.667 -87.834 -44 -126.501s-27.5 -72 -39.5 -100h-116
c-16.667 50.667 -33 101 -49 151s-30.667 100.333 -44 151z" />
    <glyph glyph-name="x" unicode="x" horiz-adv-x="554" 
d="M279 366l103.999 160.001h154l-180 -253c40 -50 76.333 -98.667 109 -146s58.667 -89.666 78 -126.999h-160l-20 37.5c-8 15 -17 30.667 -27 47s-20.5 32.666 -31.5 48.999s-21.833 31.166 -32.5 44.499c-10 -12.667 -20.167 -26.667 -30.5 -42
s-20.166 -30.833 -29.499 -46.5s-18.5 -31.167 -27.5 -46.5s-16.833 -29.666 -23.5 -42.999h-152c8 16.667 19 36.334 33 59.001s29.167 46.167 45.5 70.5s33.5 48.666 51.5 72.999s35.667 47.166 53 68.499c-30 42 -60 84.5 -90 127.5s-59.667 85.5 -89 127.5h161z" />
    <glyph glyph-name="y" unicode="y" horiz-adv-x="547" 
d="M537 526c-30 -101.333 -61.3301 -196.331 -93.9971 -284.998s-68.334 -174.667 -107.001 -258c-14 -30 -28 -55.5 -42 -76.5s-29.333 -38.333 -46 -52s-35.5 -23.667 -56.5 -30s-45.5 -9.5 -73.5 -9.5c-23.333 0 -44.833 2.16699 -64.5 6.5
s-35.834 9.16602 -48.501 14.499l26 119c15.333 -5.33301 29 -9 41 -11s24.667 -3 38 -3c26.667 0 47.167 7.16699 61.5 21.5s26.5 34.166 36.5 59.499c-34 66.667 -68 141.5 -102 224.5s-66 176.167 -96 279.5h158c6.66699 -26 14.5 -54.167 23.5 -84.5s18.5 -61 28.5 -92
s20.167 -61.167 30.5 -90.5s20.166 -56 29.499 -80c8.66699 24 17.667 50.667 27 80s18.5 59.5 27.5 90.5s17.667 61.667 26 92s15.833 58.5 22.5 84.5h154z" />
    <glyph glyph-name="z" unicode="z" horiz-adv-x="500" 
d="M465 426c-12 -13.333 -28.1689 -31.332 -48.502 -53.999s-42.166 -47.667 -65.499 -75s-46.833 -56 -70.5 -86s-45.167 -59 -64.5 -87h254v-124h-435v88c14 24 30.833 49.833 50.5 77.5s40.334 55.5 62.001 83.5s43.167 55.167 64.5 81.5s41 50.166 59 71.499h-224v124
h418v-100z" />
    <glyph glyph-name="braceleft" unicode="{" horiz-adv-x="371" 
d="M35 358c30 0 51.667 8.66895 65 26.002s20 40 20 68v151c0 28.667 3.66699 54.167 11 76.5s19.5 41.166 36.5 56.499s39.667 27 68 35s63.5 12 105.5 12h20v-119h-25c-30 0 -50.167 -6.66699 -60.5 -20s-15.5 -34 -15.5 -62v-133c0 -34.667 -4.66699 -64 -14 -88
s-28 -44.667 -56 -62c28 -17.333 46.667 -38 56 -62s14 -53.333 14 -88v-133c0 -28 5.16699 -48.667 15.5 -62s30.5 -20 60.5 -20h25v-119h-20c-42 0 -77.167 4 -105.5 12s-51 19.667 -68 35s-29.167 34.166 -36.5 56.499s-11 47.833 -11 76.5v151
c0 28 -6.66699 50.667 -20 68s-35 26 -65 26v118z" />
    <glyph glyph-name="bar" unicode="|" horiz-adv-x="322" 
d="M90 783h142v-968h-142v968z" />
    <glyph glyph-name="braceright" unicode="}" horiz-adv-x="371" 
d="M336 240c-30 0 -51.667 -8.66895 -65 -26.002s-20 -40 -20 -68v-151c0 -28.667 -3.66699 -54.167 -11 -76.5s-19.5 -41.166 -36.5 -56.499s-39.667 -27 -68 -35s-63.5 -12 -105.5 -12h-20v119h25c30 0 50.167 6.66699 60.5 20s15.5 34 15.5 62v133
c0 34.667 4.66699 64 14 88s28 44.667 56 62c-28 17.333 -46.667 38 -56 62s-14 53.333 -14 88v133c0 28 -5.16699 48.667 -15.5 62s-30.5 20 -60.5 20h-25v119h20c42 0 77.167 -4 105.5 -12s51 -19.667 68 -35s29.167 -34.166 36.5 -56.499s11 -47.833 11 -76.5v-151
c0 -28 6.66699 -50.667 20 -68s35 -26 65 -26v-118z" />
    <glyph glyph-name="asciitilde" unicode="~" horiz-adv-x="568" 
d="M386 196c-20 0 -38.832 4 -56.499 12s-34.667 16.667 -51 26s-32 18 -47 26s-29.833 12 -44.5 12c-5.33301 0 -10.833 -0.666992 -16.5 -2s-11.167 -4.5 -16.5 -9.5s-10.5 -12.333 -15.5 -22s-9.5 -22.834 -13.5 -39.501l-102 28
c3.33301 18.667 8.66602 38.334 15.999 59.001s17.166 39.667 29.499 57s27.833 31.666 46.5 42.999s41 17 67 17c20 0 38.833 -4 56.5 -12s34.667 -16.667 51 -26s32 -18 47 -26s29.833 -12 44.5 -12c5.33301 0 10.833 0.666992 16.5 2s11.167 4.5 16.5 9.5
s10.5 12.333 15.5 22s9.5 22.834 13.5 39.501l102 -28c-3.33301 -18.667 -8.66602 -38.334 -15.999 -59.001s-17.333 -39.667 -30 -57s-28.167 -31.666 -46.5 -42.999s-40.5 -17 -66.5 -17z" />
    <glyph glyph-name="uni00A0" unicode="&#xa0;" horiz-adv-x="240" 
 />
    <glyph glyph-name="exclamdown" unicode="&#xa1;" horiz-adv-x="286" 
d="M223 -180h-159v184c0 54 2.16699 104.333 6.5 151s9.83301 94 16.5 142h114c6.66699 -48 12 -95.333 16 -142s6 -97 6 -151v-184zM236 434c0 -29.333 -9.5 -52 -28.5 -68s-40.5 -24 -64.5 -24s-45.5 8 -64.5 24s-28.5 38.667 -28.5 68s9.5 52 28.5 68s40.5 24 64.5 24
s45.5 -8 64.5 -24s28.5 -38.667 28.5 -68z" />
    <glyph glyph-name="cent" unicode="&#xa2;" horiz-adv-x="568" 
d="M224 37c-61.333 16.667 -106.502 48 -135.502 94s-43.5 100 -43.5 162c0 29.333 4 57.5 12 84.5s19.833 51.5 35.5 73.5s34.5 41.167 56.5 57.5s47 28.833 75 37.5v146h142v-135c17.333 -2.66699 33.833 -6 49.5 -10s31.167 -9.33301 46.5 -16l-33 -119
c-14 5.33301 -29.167 10 -45.5 14s-34.833 6 -55.5 6c-42 0 -74.333 -12.5 -97 -37.5s-34 -58.833 -34 -101.5c0 -45.333 10.667 -79.833 32 -103.5s56.333 -35.5 105 -35.5c18 0 37.333 1.66699 58 5s39.667 8.66602 57 15.999l21 -122
c-13.333 -5.33301 -28.666 -10.166 -45.999 -14.499s-36.666 -7.83301 -57.999 -10.5v-137h-142v146z" />
    <glyph glyph-name="sterling" unicode="&#xa3;" horiz-adv-x="568" 
d="M255 394h165.998v-121h-166c-0.666992 -23.333 -2.16699 -48.333 -4.5 -75s-5.16602 -51 -8.49902 -73h261v-125h-425c12 53.333 20 102.666 24 147.999s6.66699 87 8 125h-87v121h87v53c0 50 6 91.5 18 124.5s28.5 59.5 49.5 79.5s46.167 34.167 75.5 42.5
s61.333 12.5 96 12.5c26.667 0 51.667 -2.66699 75 -8s46 -12.666 68 -21.999l-37 -117c-15.333 7.33301 -29.833 12.666 -43.5 15.999s-30.167 5.33301 -49.5 6c-16 0 -30.5 -1.66699 -43.5 -5s-24.167 -9.66602 -33.5 -18.999s-16.666 -22 -21.999 -38s-8 -36 -8 -60v-65z
" />
    <glyph glyph-name="currency" unicode="&#xa4;" horiz-adv-x="568" 
d="M284 544c16.667 0 32.5 -1.33301 47.5 -4s29.833 -7.33398 44.5 -14.001l74 71l93 -91l-72 -69c14 -26 21 -56 21 -90s-7 -64 -21 -90l72 -69l-94 -92l-74 72c-14 -6.66699 -28.333 -11.334 -43 -14.001s-30.667 -4 -48 -4c-16.667 0 -32.5 1.33301 -47.5 4
s-29.833 7.33398 -44.5 14.001l-74 -71l-93 91l72 69c-14 26 -21 56 -21 90s7 64 21 90l-72 69l94 92l74 -72c14 6.66699 28.333 11.334 43 14.001s30.667 4 48 4zM366 347c0 28.667 -8 50.334 -24 65.001s-35.333 22 -58 22s-42 -7.33301 -58 -22s-24 -36.334 -24 -65.001
s8 -50.334 24 -65.001s35.333 -22 58 -22s42 7.33301 58 22s24 36.334 24 65.001z" />
    <glyph glyph-name="yen" unicode="&#xa5;" horiz-adv-x="568" 
d="M209 0v111h-148v99h148v65h-148v99h100c-14 25.333 -28.667 52 -44 80s-30.333 56 -45 84s-28.667 55.333 -42 82s-25 51 -35 73h170c20.667 -46 40.5 -92.167 59.5 -138.5s39.833 -91.5 62.5 -135.5c22 44 42 89.5 60 136.5s37 92.833 57 137.5h169
c-25.333 -51.333 -51.5 -103.833 -78.5 -157.5s-55.833 -107.5 -86.5 -161.5h100v-99h-148v-65h148v-99h-148v-111h-151z" />
    <glyph glyph-name="brokenbar" unicode="&#xa6;" horiz-adv-x="302" 
d="M80 212h142v-397h-142v397zM80 783h142v-397h-142v397z" />
    <glyph glyph-name="section" unicode="&#xa7;" horiz-adv-x="515" 
d="M65 54c15.333 -6 29.8232 -11.332 43.4902 -15.999s27.334 -8.5 41.001 -11.5s27.834 -5.33301 42.501 -7s31 -2.5 49 -2.5c24.667 0 43.334 2.83301 56.001 8.5s19 15.5 19 29.5c0 6.66699 -1.33301 12.5 -4 17.5s-7.5 9.83301 -14.5 14.5s-16.333 9.33398 -28 14.001
s-26.5 10 -44.5 16c-26 8.66699 -50.5 17.834 -73.5 27.501s-43 21.667 -60 36s-30.333 31.666 -40 51.999s-14.5 45.5 -14.5 75.5c0 31.333 7.5 57.666 22.5 78.999s33.167 42.333 54.5 63c-32 26.667 -48 58.667 -48 96c0 51.333 18.833 91.333 56.5 120
s91.834 43 162.501 43c30.667 0 62.167 -3.33301 94.5 -10s61.5 -15.334 87.5 -26.001l-37 -120c-21.333 9.33301 -43.5 16.666 -66.5 21.999s-49.5 8 -79.5 8c-25.333 0 -43.166 -2.83301 -53.499 -8.5s-15.5 -14.167 -15.5 -25.5c0 -14 5.66699 -25.167 17 -33.5
s32 -17.5 62 -27.5c29.333 -10 55.666 -20.333 78.999 -31s43 -23 59 -37s28.333 -30.667 37 -50s13 -42.666 13 -69.999c0 -14.667 -1.66699 -27.834 -5 -39.501s-8.16602 -22.5 -14.499 -32.5s-14.166 -19.833 -23.499 -29.5s-19.666 -19.5 -30.999 -29.5
c20.667 -15.333 35.334 -32.166 44.001 -50.499s13 -39.833 13 -64.5c0 -108.667 -72 -163 -216 -163c-51.333 0 -95.166 4.33301 -131.499 13s-66.166 19 -89.499 31zM207.99 384.001c-10.667 -9.33301 -19.5 -19.6689 -26.5 -31.002s-10.5 -22.666 -10.5 -33.999
c0 -25.333 11.167 -44.666 33.5 -57.999s56.5 -27.666 102.5 -42.999c10.667 9.33301 19.5 19.666 26.5 30.999s10.5 22.666 10.5 33.999c0 12.667 -2.83301 23.5 -8.5 32.5s-14 17.333 -25 25s-25.167 14.834 -42.5 21.501s-37.333 14 -60 22z" />
    <glyph glyph-name="dieresis" unicode="&#xa8;" horiz-adv-x="536" 
d="M156 602c-20.667 0 -38.667 6.83301 -54 20.5s-23 32.167 -23 55.5s7.66699 41.833 23 55.5s33.333 20.5 54 20.5s38.667 -6.83301 54 -20.5s23 -32.167 23 -55.5s-7.66699 -41.833 -23 -55.5s-33.333 -20.5 -54 -20.5zM379 602c-20.667 0 -38.667 6.83301 -54 20.5
s-23 32.167 -23 55.5s7.66699 41.833 23 55.5s33.333 20.5 54 20.5s38.667 -6.83301 54 -20.5s23 -32.167 23 -55.5s-7.66699 -41.833 -23 -55.5s-33.333 -20.5 -54 -20.5z" />
    <glyph glyph-name="copyright" unicode="&#xa9;" horiz-adv-x="796" 
d="M746 347c0 -56.667 -9.5 -107.5 -28.5 -152.5s-44.5 -83 -76.5 -114s-69 -54.667 -111 -71s-86 -24.5 -132 -24.5s-90 8.16699 -132 24.5s-79 40 -111 71s-57.5 69 -76.5 114s-28.5 95.833 -28.5 152.5s9.5 107.5 28.5 152.5s44.5 83 76.5 114s69 54.667 111 71
s86 24.5 132 24.5s90 -8.16699 132 -24.5s79 -40 111 -71s57.5 -69 76.5 -114s28.5 -95.833 28.5 -152.5zM644 347c0 40 -6 76.333 -18 109s-28.833 60.667 -50.5 84s-47.667 41.333 -78 54s-63.5 19 -99.5 19s-69.167 -6.33301 -99.5 -19s-56.333 -30.667 -78 -54
s-38.5 -51.333 -50.5 -84s-18 -69 -18 -109s6 -76.333 18 -109s28.833 -60.667 50.5 -84s47.667 -41.333 78 -54s63.5 -19 99.5 -19s69.167 6.33301 99.5 19s56.333 30.667 78 54s38.5 51.333 50.5 84s18 69 18 109zM414 160c-59.333 0 -104.663 16.3311 -135.996 48.998
s-47 79.334 -47 140.001c0 60 16.5 106.333 49.5 139s76.5 49 130.5 49c32 0 57.833 -4.33301 77.5 -13s33.167 -15 40.5 -19l-32 -88c-9.33301 5.33301 -19.833 9.83301 -31.5 13.5s-26.834 5.5 -45.501 5.5c-22 0 -39.667 -7 -53 -21s-20 -34.333 -20 -61
c0 -12 1 -23.5 3 -34.5s5.66699 -20.667 11 -29s12.666 -15.166 21.999 -20.499s21.666 -8 36.999 -8c20 0 36.667 2.33301 50 7s25.333 9 36 13l28 -91c-8.66699 -4.66699 -23.334 -11 -44.001 -19s-46 -12 -76 -12z" />
    <glyph glyph-name="ordfeminine" unicode="&#xaa;" horiz-adv-x="399" 
d="M200 393c10.667 0 20.834 0.331055 30.501 0.998047s17.5 1.33398 23.5 2.00098v78c-4.66699 1.33301 -11.334 2.5 -20.001 3.5s-16.667 1.5 -24 1.5c-20 0 -37.333 -2.66699 -52 -8s-22 -16.666 -22 -33.999s5.83301 -29 17.5 -35s27.167 -9 46.5 -9zM191 707.998
c32 0 58.833 -3.50098 80.5 -10.501s39.167 -17.167 52.5 -30.5s22.833 -29.333 28.5 -48s8.5 -40 8.5 -64v-227c-15.333 -3.33301 -37.5 -7.5 -66.5 -12.5s-62.833 -7.5 -101.5 -7.5c-52.667 0 -94 9.33301 -124 28s-45 51.334 -45 98.001c0 22.667 4.5 41.5 13.5 56.5
s21 27.167 36 36.5s32.667 16 53 20s41.5 6 63.5 6c13.333 0 25.5 -0.666992 36.5 -2s20.167 -2.66602 27.5 -3.99902v10c0 18.667 -5.66699 33.167 -17 43.5s-30.666 15.5 -57.999 15.5c-18.667 0 -37.334 -1.33301 -56.001 -4s-34.667 -6.33398 -48 -11.001l-15 89
c12.667 4 31.5 8 56.5 12s49.833 6 74.5 6z" />
    <glyph glyph-name="guillemotleft" unicode="&#xab;" horiz-adv-x="597" 
d="M196 284l101 -187l-113 -53l-164 240l164 240l113 -53zM466 284l101 -187l-113 -53l-164 240l164 240l113 -53z" />
    <glyph glyph-name="logicalnot" unicode="&#xac;" horiz-adv-x="568" 
d="M520 47h-136v234h-334v125h470v-359z" />
    <glyph glyph-name="uni00AD" unicode="&#xad;" horiz-adv-x="340" 
d="M25 366h290v-135h-290v135z" />
    <glyph glyph-name="registered" unicode="&#xae;" horiz-adv-x="796" 
d="M746 347c0 -57.333 -9.5 -108.333 -28.5 -153s-44.5 -82.5 -76.5 -113.5s-69 -54.667 -111 -71s-86 -24.5 -132 -24.5s-90 8.16699 -132 24.5s-79 40 -111 71s-57.5 68.833 -76.5 113.5s-28.5 95.667 -28.5 153c0 56.667 9.5 107.5 28.5 152.5s44.5 83 76.5 114
s69 54.667 111 71s86 24.5 132 24.5s90 -8.16699 132 -24.5s79 -40 111 -71s57.5 -69 76.5 -114s28.5 -95.833 28.5 -152.5zM644 347c0 40 -6 76.333 -18 109s-28.833 60.667 -50.5 84s-47.667 41.333 -78 54s-63.5 19 -99.5 19s-69.167 -6.33301 -99.5 -19
s-56.333 -30.667 -78 -54s-38.5 -51.333 -50.5 -84s-18 -69 -18 -109s6 -76.333 18 -109s28.833 -60.667 50.5 -84s47.667 -41.333 78 -54s63.5 -19 99.5 -19s69.167 6.33301 99.5 19s56.333 30.667 78 54s38.5 51.333 50.5 84s18 69 18 109zM459 177
c-11.333 25.333 -21.0039 47.499 -29.0039 66.499s-17 36.167 -27 51.5h-40v-118h-97v342c22.667 5.33301 43.834 9.16602 63.501 11.499s36.834 3.5 51.501 3.5c107.333 0 161 -40.333 161 -121c0 -41.333 -18 -71.666 -54 -90.999
c7.33301 -11.333 13.833 -22.166 19.5 -32.499s11.334 -21 17.001 -32s11.334 -23 17.001 -36s12.167 -27.833 19.5 -44.5h-102zM362.996 372.999l18 0.000976562c21.333 0 37.333 2.83301 48 8.5s16 16.5 16 32.5c0 13.333 -4.66699 22.666 -14 27.999s-23 8 -41 8
c-4.66699 0 -9.5 -0.166992 -14.5 -0.5s-9.16699 -0.833008 -12.5 -1.5v-75z" />
    <glyph glyph-name="macron" unicode="&#xaf;" horiz-adv-x="376" 
d="M27 725h322v-102h-322v102z" />
    <glyph glyph-name="degree" unicode="&#xb0;" horiz-adv-x="363" 
d="M181 781c21.333 0 41.833 -3.5 61.5 -10.5s36.834 -17.333 51.501 -31s26.334 -30 35.001 -49s13 -40.5 13 -64.5s-4.33301 -45.5 -13 -64.5s-20.334 -35.333 -35.001 -49s-31.834 -24 -51.501 -31s-40.167 -10.5 -61.5 -10.5s-41.833 3.5 -61.5 10.5
s-36.834 17.333 -51.501 31s-26.334 30 -35.001 49s-13 40.5 -13 64.5s4.33301 45.5 13 64.5s20.334 35.333 35.001 49s31.834 24 51.501 31s40.167 10.5 61.5 10.5zM181 569c14 0 26.667 5.16699 38 15.5s17 24.166 17 41.499s-5.66699 31.166 -17 41.499
s-24 15.5 -38 15.5s-26.667 -5.16699 -38 -15.5s-17 -24.166 -17 -41.499s5.66699 -31.166 17 -41.499s24 -15.5 38 -15.5z" />
    <glyph glyph-name="plusminus" unicode="&#xb1;" horiz-adv-x="568" 
d="M49 455h167v170h136v-170h167v-125h-167v-170h-136v170h-167v125zM49 125h470v-125h-470v125z" />
    <glyph glyph-name="twosuperior" unicode="&#xb2;" horiz-adv-x="363" 
d="M312 586c0 -14.667 -2.33203 -27.998 -6.99902 -39.998s-10.834 -23.167 -18.501 -33.5s-16.5 -20 -26.5 -29s-20 -17.833 -30 -26.5c-11.333 -9.33301 -23 -19.833 -35 -31.5s-21.667 -22.5 -29 -32.5h156v-91h-287c-0.666992 5.33301 -1 10.166 -1 14.499v13.5
c0 32.667 8.83301 62.167 26.5 88.5s43.5 53.833 77.5 82.5c18 15.333 32.5 28.666 43.5 39.999s16.5 23 16.5 35c0 10 -3 18 -9 24s-14.667 9 -26 9c-19.333 0 -37.166 -3.83301 -53.499 -11.5s-30.166 -16.167 -41.499 -25.5l-52 78c17.333 14.667 39.5 28.167 66.5 40.5
s55.5 18.5 85.5 18.5c26 0 48.167 -3 66.5 -9s33.166 -14.5 44.499 -25.5s19.666 -24 24.999 -39s8 -31.5 8 -49.5z" />
    <glyph glyph-name="threesuperior" unicode="&#xb3;" horiz-adv-x="363" 
d="M149 388c23.333 0 39.6621 3.50195 48.9951 10.502s14 15.833 14 26.5c0 27.333 -23.333 41 -70 41h-41v82h41c15.333 0 28 3 38 9s15 15 15 27c0 21.333 -14.667 32 -44 32c-15.333 0 -30.666 -2.5 -45.999 -7.5s-30 -10.833 -44 -17.5l-38 79
c16.667 10.667 37.5 19.834 62.5 27.501s49.5 11.5 73.5 11.5c26.667 0 49.167 -3 67.5 -9s33 -14.167 44 -24.5s18.833 -22.333 23.5 -36s7 -27.834 7 -42.501c0 -14 -3.16699 -27.333 -9.5 -40s-17.166 -25 -32.499 -37c21.333 -10 36.833 -23.333 46.5 -40
s14.5 -35.334 14.5 -56.001c0 -18 -3 -35 -9 -51s-15.667 -29.833 -29 -41.5s-30.833 -20.834 -52.5 -27.501s-48.167 -10 -79.5 -10c-11.333 0 -23.166 0.666992 -35.499 2s-24.5 3.33301 -36.5 6s-23.167 5.5 -33.5 8.5s-19.5 6.5 -27.5 10.5l23 89
c22.667 -9.33301 41.834 -15.333 57.501 -18s32.834 -4 51.501 -4z" />
    <glyph glyph-name="acute" unicode="&#xb4;" horiz-adv-x="286" 
d="M259 715l-165 -139l-68 61l142 162z" />
    <glyph glyph-name="mu" unicode="&#xb5;" horiz-adv-x="594" 
d="M219 526l-0.000976562 -281.998c0 -25.333 1.83301 -46.333 5.5 -63s9.33398 -29.834 17.001 -39.501s17.167 -16.5 28.5 -20.5s24.666 -6 39.999 -6c10.667 0 21.834 0.5 33.501 1.5s22.167 2.16699 31.5 3.5v406h149v-508c-26 -7.33301 -57.167 -13.833 -93.5 -19.5
s-75.5 -8.5 -117.5 -8.5c-17.333 0 -35 1.66699 -53 5s-33.333 8 -46 14c1.33301 -13.333 2.5 -26.833 3.5 -40.5s1.5 -32.834 1.5 -57.501v-77h-149v692h149z" />
    <glyph glyph-name="paragraph" unicode="&#xb6;" horiz-adv-x="710" 
d="M259 258c-74.667 10 -129.833 32.166 -165.5 66.499s-53.5 84.833 -53.5 151.5c0 72.667 28.5 128.334 85.5 167.001s139.167 58 246.5 58c20.667 0 42.5 -0.666992 65.5 -2s45.833 -3 68.5 -5s44.667 -4.66699 66 -8s40.666 -7 57.999 -11v-861h-141v760
c-9.33301 1.33301 -22.666 2.33301 -39.999 3s-33.333 1 -48 1v-764h-142v444z" />
    <glyph glyph-name="periodcentered" unicode="&#xb7;" horiz-adv-x="246" 
d="M216 295c0 -30 -9.5 -52.833 -28.5 -68.5s-40.5 -23.5 -64.5 -23.5s-45.5 7.83301 -64.5 23.5s-28.5 38.5 -28.5 68.5s9.5 52.833 28.5 68.5s40.5 23.5 64.5 23.5s45.5 -7.83301 64.5 -23.5s28.5 -38.5 28.5 -68.5z" />
    <glyph glyph-name="cedilla" unicode="&#xb8;" horiz-adv-x="326" 
d="M215 -40c21.333 -10.667 36.002 -23.335 44.002 -38.002s12 -29.667 12 -45c0 -32 -12.5 -56.333 -37.5 -73s-58.5 -25 -100.5 -25c-14.667 0 -29.334 1.16699 -44.001 3.5s-29.334 5.5 -44.001 9.5l18 87c4.66699 -1.33301 13.167 -3.5 25.5 -6.5s24.5 -4.5 36.5 -4.5
c9.33301 0 17.5 1.83301 24.5 5.5s10.833 10.167 11.5 19.5c0.666992 8 -2.5 15.333 -9.5 22s-18.167 11.667 -33.5 15l-12 3c2 6.66699 4.83301 14.334 8.5 23.001s7.5 17.167 11.5 25.5s7.66699 16 11 23s6 12.167 8 15.5h99c-4 -7.33301 -9 -17.166 -15 -29.499
s-10.667 -22.5 -14 -30.5z" />
    <glyph glyph-name="onesuperior" unicode="&#xb9;" horiz-adv-x="363" 
d="M38 618c28 11.333 55.168 24.166 81.501 38.499s49.166 29.166 68.499 44.499h87v-399h-114v270c-13.333 -7.33301 -27 -14.166 -41 -20.499s-31 -13.166 -51 -20.499z" />
    <glyph glyph-name="ordmasculine" unicode="&#xba;" horiz-adv-x="457" 
d="M424 506c0 -31.333 -4.83301 -59.333 -14.5 -84s-23 -45.5 -40 -62.5s-37.5 -30.167 -61.5 -39.5s-50.333 -14 -79 -14s-55 4.66699 -79 14s-44.667 22.5 -62 39.5s-30.833 37.833 -40.5 62.5s-14.5 52.667 -14.5 84c0 32 4.83301 60.5 14.5 85.5
s23.167 46.167 40.5 63.5s38 30.666 62 39.999s50.333 14 79 14s55 -4.66699 79 -14s44.5 -22.666 61.5 -39.999s30.333 -38.5 40 -63.5s14.5 -53.5 14.5 -85.5zM310 506c0 32 -7 57.167 -21 75.5s-34 27.5 -60 27.5c-25.333 0 -45.333 -9.16699 -60 -27.5
s-22 -43.5 -22 -75.5c0 -30 7.16699 -54.167 21.5 -72.5s34.5 -27.5 60.5 -27.5s46 9.16699 60 27.5s21 42.5 21 72.5z" />
    <glyph glyph-name="guillemotright" unicode="&#xbb;" horiz-adv-x="597" 
d="M30 471l113 53l164 -240l-164 -240l-113 53l101 187zM300 471l113 53l164 -240l-164 -240l-113 53l101 187z" />
    <glyph glyph-name="onequarter" unicode="&#xbc;" horiz-adv-x="878" 
d="M20 618c28 11.333 55.168 24.166 81.501 38.499s49.166 29.166 68.499 44.499h87v-399h-114v270c-13.333 -7.33301 -27 -14.166 -41 -20.499s-31 -13.166 -51 -20.499zM678.001 693l-355 -693h-138l357 693h136zM816.001 401v-230.998h46v-83h-46v-86h-94v86h-187v72
c28 47.333 56.5 90.166 85.5 128.499s61.167 76.166 96.5 113.499h99zM722.001 290.002c-15.333 -17.333 -29.833 -35.833 -43.5 -55.5s-26.5 -41.167 -38.5 -64.5h82v120z" />
    <glyph glyph-name="onehalf" unicode="&#xbd;" horiz-adv-x="878" 
d="M20 618c28 11.333 55.168 24.166 81.501 38.499s49.166 29.166 68.499 44.499h87v-399h-114v270c-13.333 -7.33301 -27 -14.166 -41 -20.499s-31 -13.166 -51 -20.499zM650.001 693l-355 -693h-138l357 693h136zM827.001 286
c0 -14.667 -2.33203 -27.998 -6.99902 -39.998s-10.834 -23.167 -18.501 -33.5s-16.5 -20 -26.5 -29s-20 -17.833 -30 -26.5c-11.333 -9.33301 -23 -19.833 -35 -31.5s-21.667 -22.5 -29 -32.5h156v-91h-287c-0.666992 5.33301 -1 10.166 -1 14.499v13.5
c0 32.667 8.83301 62.167 26.5 88.5s43.5 53.833 77.5 82.5c18 15.333 32.5 28.666 43.5 39.999s16.5 23 16.5 35c0 10 -3 18 -9 24s-14.667 9 -26 9c-19.333 0 -37.166 -3.83301 -53.499 -11.5s-30.166 -16.167 -41.499 -25.5l-52 78c17.333 14.667 39.5 28.167 66.5 40.5
s55.5 18.5 85.5 18.5c26 0 48.167 -3 66.5 -9s33.166 -14.5 44.499 -25.5s19.666 -24 24.999 -39s8 -31.5 8 -49.5z" />
    <glyph glyph-name="threequarters" unicode="&#xbe;" horiz-adv-x="878" 
d="M155 388c23.333 0 39.6621 3.50195 48.9951 10.502s14 15.833 14 26.5c0 27.333 -23.333 41 -70 41h-41v82h41c15.333 0 28 3 38 9s15 15 15 27c0 21.333 -14.667 32 -44 32c-15.333 0 -30.666 -2.5 -45.999 -7.5s-30 -10.833 -44 -17.5l-38 79
c16.667 10.667 37.5 19.834 62.5 27.501s49.5 11.5 73.5 11.5c26.667 0 49.167 -3 67.5 -9s33 -14.167 44 -24.5s18.833 -22.333 23.5 -36s7 -27.834 7 -42.501c0 -14 -3.16699 -27.333 -9.5 -40s-17.166 -25 -32.499 -37c21.333 -10 36.833 -23.333 46.5 -40
s14.5 -35.334 14.5 -56.001c0 -18 -3 -35 -9 -51s-15.667 -29.833 -29 -41.5s-30.833 -20.834 -52.5 -27.501s-48.167 -10 -79.5 -10c-11.333 0 -23.166 0.666992 -35.499 2s-24.5 3.33301 -36.5 6s-23.167 5.5 -33.5 8.5s-19.5 6.5 -27.5 10.5l23 89
c22.667 -9.33301 41.834 -15.333 57.501 -18s32.834 -4 51.501 -4zM698.996 693.002l-355 -693h-138l357 693h136zM815.996 401.002v-230.998h46v-83h-46v-86h-94v86h-187v72c28 47.333 56.5 90.166 85.5 128.499s61.167 76.166 96.5 113.499h99zM721.996 290.004
c-15.333 -17.333 -29.833 -35.833 -43.5 -55.5s-26.5 -41.167 -38.5 -64.5h82v120z" />
    <glyph glyph-name="questiondown" unicode="&#xbf;" horiz-adv-x="455" 
d="M254 -70c24 0 46.6689 2.99902 68.002 8.99902s45 15.667 71 29l42 -113c-26 -16.667 -56.667 -29.5 -92 -38.5s-70 -13.5 -104 -13.5c-42.667 0 -77.834 5.66699 -105.501 17s-49.5 25.666 -65.5 42.999s-27.167 36.333 -33.5 57s-9.5 40.334 -9.5 59.001
s2.83301 35.834 8.5 51.501s12.834 30.167 21.501 43.5s18.5 26 29.5 38s22.167 23.333 33.5 34c8 8 16.333 16.5 25 25.5s16.5 18.5 23.5 28.5s12.833 20.5 17.5 31.5s7 22.167 7 33.5v12c0 5.33301 -0.333008 10 -1 14h132
c1.33301 -6.66699 2.16602 -14.167 2.49902 -22.5s0.5 -15.5 0.5 -21.5c0 -18.667 -2.33301 -35.667 -7 -51s-10.834 -29.5 -18.501 -42.5s-16.5 -25 -26.5 -36s-20.333 -21.833 -31 -32.5c-15.333 -15.333 -29.333 -30.5 -42 -45.5s-19 -32.167 -19 -51.5
c0 -16 6.16699 -29.667 18.5 -41s30.5 -17 54.5 -17zM161.002 432.999c0 29.333 9.5 52 28.5 68s40.5 24 64.5 24s45.5 -8 64.5 -24s28.5 -38.667 28.5 -68s-9.5 -52 -28.5 -68s-40.5 -24 -64.5 -24s-45.5 8 -64.5 24s-28.5 38.667 -28.5 68z" />
    <glyph glyph-name="Agrave" unicode="&#xc0;" horiz-adv-x="721" 
d="M544 0c-7.33301 24 -15.498 48.667 -24.498 74s-17.833 50.666 -26.5 75.999h-270c-8.66699 -25.333 -17.5 -50.666 -26.5 -75.999s-17.167 -50 -24.5 -74h-162c26 74.667 50.667 143.667 74 207s46.166 123 68.499 179s44.333 109.167 66 159.5s44.167 99.5 67.5 147.5
h149c22.667 -48 45 -97.167 67 -147.5s44.167 -103.5 66.5 -159.5s45.166 -115.667 68.499 -179s48 -132.333 74 -207h-167zM357.002 536c-3.33301 -10 -8.33203 -23.667 -14.999 -41s-14.334 -37.333 -23.001 -60s-18.167 -47.667 -28.5 -75s-20.833 -56 -31.5 -86h197
c-10.667 30 -21 58.667 -31 86s-19.5 52.333 -28.5 75s-16.833 42.667 -23.5 60s-12 31 -16 41zM328.003 959l142 -162l-68 -61l-165 139z" />
    <glyph glyph-name="Aacute" unicode="&#xc1;" horiz-adv-x="721" 
d="M544 0c-7.33301 24 -15.498 48.667 -24.498 74s-17.833 50.666 -26.5 75.999h-270c-8.66699 -25.333 -17.5 -50.666 -26.5 -75.999s-17.167 -50 -24.5 -74h-162c26 74.667 50.667 143.667 74 207s46.166 123 68.499 179s44.333 109.167 66 159.5s44.167 99.5 67.5 147.5
h149c22.667 -48 45 -97.167 67 -147.5s44.167 -103.5 66.5 -159.5s45.166 -115.667 68.499 -179s48 -132.333 74 -207h-167zM357.002 536c-3.33301 -10 -8.33203 -23.667 -14.999 -41s-14.334 -37.333 -23.001 -60s-18.167 -47.667 -28.5 -75s-20.833 -56 -31.5 -86h197
c-10.667 30 -21 58.667 -31 86s-19.5 52.333 -28.5 75s-16.833 42.667 -23.5 60s-12 31 -16 41zM476.003 875l-165 -139l-68 61l142 162z" />
    <glyph glyph-name="Acircumflex" unicode="&#xc2;" horiz-adv-x="721" 
d="M544 0c-7.33301 24 -15.498 48.667 -24.498 74s-17.833 50.666 -26.5 75.999h-270c-8.66699 -25.333 -17.5 -50.666 -26.5 -75.999s-17.167 -50 -24.5 -74h-162c26 74.667 50.667 143.667 74 207s46.166 123 68.499 179s44.333 109.167 66 159.5s44.167 99.5 67.5 147.5
h149c22.667 -48 45 -97.167 67 -147.5s44.167 -103.5 66.5 -159.5s45.166 -115.667 68.499 -179s48 -132.333 74 -207h-167zM357.002 536c-3.33301 -10 -8.33203 -23.667 -14.999 -41s-14.334 -37.333 -23.001 -60s-18.167 -47.667 -28.5 -75s-20.833 -56 -31.5 -86h197
c-10.667 30 -21 58.667 -31 86s-19.5 52.333 -28.5 75s-16.833 42.667 -23.5 60s-12 31 -16 41zM515.003 811l-55 -66l-100 77l-100 -77l-57 66l157 137z" />
    <glyph glyph-name="Atilde" unicode="&#xc3;" horiz-adv-x="721" 
d="M544 0c-7.33301 24 -15.498 48.667 -24.498 74s-17.833 50.666 -26.5 75.999h-270c-8.66699 -25.333 -17.5 -50.666 -26.5 -75.999s-17.167 -50 -24.5 -74h-162c26 74.667 50.667 143.667 74 207s46.166 123 68.499 179s44.333 109.167 66 159.5s44.167 99.5 67.5 147.5
h149c22.667 -48 45 -97.167 67 -147.5s44.167 -103.5 66.5 -159.5s45.166 -115.667 68.499 -179s48 -132.333 74 -207h-167zM357.002 536c-3.33301 -10 -8.33203 -23.667 -14.999 -41s-14.334 -37.333 -23.001 -60s-18.167 -47.667 -28.5 -75s-20.833 -56 -31.5 -86h197
c-10.667 30 -21 58.667 -31 86s-19.5 52.333 -28.5 75s-16.833 42.667 -23.5 60s-12 31 -16 41zM548.003 872c-4 -10 -9.5 -21 -16.5 -33s-15.5 -23.167 -25.5 -33.5s-21.333 -18.833 -34 -25.5s-26.667 -10 -42 -10c-12 0 -23.167 1.83301 -33.5 5.5
s-20.5 7.66699 -30.5 12s-20 8.33301 -30 12s-20.333 5.5 -31 5.5c-13.333 0 -24.333 -4.33301 -33 -13s-15.667 -18.667 -21 -30l-73 48c4 10 9.5 21 16.5 33s15.5 23.167 25.5 33.5s21.333 18.833 34 25.5s26.667 10 42 10c12 0 23.167 -1.83301 33.5 -5.5
s20.5 -7.66699 30.5 -12s19.833 -8.33301 29.5 -12s20.167 -5.5 31.5 -5.5c13.333 0 24.333 4.33301 33 13s15.667 18.667 21 30z" />
    <glyph glyph-name="Adieresis" unicode="&#xc4;" horiz-adv-x="721" 
d="M544 0c-7.33301 24 -15.498 48.667 -24.498 74s-17.833 50.666 -26.5 75.999h-270c-8.66699 -25.333 -17.5 -50.666 -26.5 -75.999s-17.167 -50 -24.5 -74h-162c26 74.667 50.667 143.667 74 207s46.166 123 68.499 179s44.333 109.167 66 159.5s44.167 99.5 67.5 147.5
h149c22.667 -48 45 -97.167 67 -147.5s44.167 -103.5 66.5 -159.5s45.166 -115.667 68.499 -179s48 -132.333 74 -207h-167zM357.002 536c-3.33301 -10 -8.33203 -23.667 -14.999 -41s-14.334 -37.333 -23.001 -60s-18.167 -47.667 -28.5 -75s-20.833 -56 -31.5 -86h197
c-10.667 30 -21 58.667 -31 86s-19.5 52.333 -28.5 75s-16.833 42.667 -23.5 60s-12 31 -16 41zM242.003 762c-20.667 0 -38.667 6.83301 -54 20.5s-23 32.167 -23 55.5s7.66699 41.833 23 55.5s33.333 20.5 54 20.5s38.667 -6.83301 54 -20.5s23 -32.167 23 -55.5
s-7.66699 -41.833 -23 -55.5s-33.333 -20.5 -54 -20.5zM465.003 762c-20.667 0 -38.667 6.83301 -54 20.5s-23 32.167 -23 55.5s7.66699 41.833 23 55.5s33.333 20.5 54 20.5s38.667 -6.83301 54 -20.5s23 -32.167 23 -55.5s-7.66699 -41.833 -23 -55.5
s-33.333 -20.5 -54 -20.5z" />
    <glyph glyph-name="Aring" unicode="&#xc5;" horiz-adv-x="721" 
d="M544 0c-7.33301 24 -15.501 48.668 -24.501 74.001s-17.833 50.666 -26.5 75.999h-270c-8.66699 -25.333 -17.5 -50.666 -26.5 -75.999s-17.167 -50 -24.5 -74h-162c25.333 72.667 49.333 140.167 72 202.5s45 121 67 176s43.667 107.167 65 156.5
s43.333 97.666 66 144.999c-11.333 10 -20.333 22.167 -27 36.5s-10 31.166 -10 50.499c0 18.667 3.16699 35.167 9.5 49.5s15 26.333 26 36s23.5 17 37.5 22s28.667 7.5 44 7.5c16 0 31.167 -2.5 45.5 -7.5s27 -12.333 38 -22s19.667 -21.667 26 -36s9.5 -30.833 9.5 -49.5
c0 -19.333 -3.5 -36.333 -10.5 -51s-16.167 -26.667 -27.5 -36c22 -47.333 43.833 -95.666 65.5 -144.999s43.334 -101.5 65.001 -156.5s44 -113.667 67 -176s47.167 -129.833 72.5 -202.5h-167zM356.999 536.001c-3.33301 -10 -8.33203 -23.667 -14.999 -41
s-14.334 -37.333 -23.001 -60s-18.167 -47.667 -28.5 -75s-20.833 -56 -31.5 -86h197c-10.667 30 -21 58.667 -31 86s-19.5 52.333 -28.5 75s-16.833 42.667 -23.5 60s-12 31 -16 41zM406 767.001c0 15.333 -4.66699 27 -14 35s-20 12 -32 12
c-11.333 0 -21.666 -4 -30.999 -12s-14 -19.667 -14 -35s4.66699 -27 14 -35s19.666 -12 30.999 -12c12 0 22.667 4 32 12s14 19.667 14 35z" />
    <glyph glyph-name="AE" unicode="&#xc6;" horiz-adv-x="994" 
d="M490 164l-220 -0.000976562c-14 -25.333 -29.333 -52.666 -46 -81.999s-31 -56.666 -43 -81.999h-171c81.333 146 157 276.167 227 390.5s136.333 215.166 199 302.499h500v-131h-295v-136h260v-128h-260v-167h318v-131h-469v164zM490 541.999
c-10.667 -15.333 -22.668 -33.667 -36.001 -55s-27.166 -43.5 -41.499 -66.5s-28.333 -46.167 -42 -69.5s-26.167 -44.333 -37.5 -63h157v254z" />
    <glyph glyph-name="Ccedilla" unicode="&#xc7;" horiz-adv-x="648" 
d="M432 -13c-2.66699 -5.33301 -4.99902 -10.332 -6.99902 -14.999s-3.66699 -8.66699 -5 -12c21.333 -10.667 36 -23.334 44 -38.001s12 -29.667 12 -45c0 -32 -12.667 -56.333 -38 -73s-58.666 -25 -99.999 -25c-14.667 0 -29.334 1.16699 -44.001 3.5
s-29.334 5.5 -44.001 9.5l18 87c4.66699 -1.33301 13.167 -3.5 25.5 -6.5s24.5 -4.5 36.5 -4.5c9.33301 0 17.5 1.83301 24.5 5.5s10.833 10.167 11.5 19.5c0.666992 8 -2.5 15.333 -9.5 22s-18.167 11.667 -33.5 15l-12 3c2.66699 8 6.16699 17.167 10.5 27.5
s8.5 20.166 12.5 29.499c-93.333 11.333 -164 47.5 -212 108.5s-72 143.833 -72 248.5c0 57.333 9 108.5 27 153.5s42.667 83 74 114s68.666 54.5 111.999 70.5s90.333 24 141 24c29.333 0 56 -2.16699 80 -6.5s45 -9.33301 63 -15s33 -11.5 45 -17.5s20.667 -10.667 26 -14
l-45 -126c-21.333 11.333 -46.166 21 -74.499 29s-60.5 12 -96.5 12c-24 0 -47.5 -4 -70.5 -12s-43.333 -20.833 -61 -38.5s-31.834 -40.5 -42.501 -68.5s-16 -62 -16 -102c0 -32 3.5 -61.833 10.5 -89.5s18.333 -51.5 34 -71.5s36.167 -35.833 61.5 -47.5
s56 -17.5 92 -17.5c22.667 0 43 1.33301 61 4s34 5.83398 48 9.50098s26.333 7.83398 37 12.501s20.334 9 29.001 13l43 -125c-19.333 -12 -45.833 -22.833 -79.5 -32.5s-72.5 -15.834 -116.5 -18.501z" />
    <glyph glyph-name="Egrave" unicode="&#xc8;" horiz-adv-x="606" 
d="M80 0v693h468v-131h-312v-136h277v-128h-277v-167h335v-131h-491zM282 959l142 -162l-68 -61l-165 139z" />
    <glyph glyph-name="Eacute" unicode="&#xc9;" horiz-adv-x="606" 
d="M80 0v693h468v-131h-312v-136h277v-128h-277v-167h335v-131h-491zM440 875l-165 -139l-68 61l142 162z" />
    <glyph glyph-name="Ecircumflex" unicode="&#xca;" horiz-adv-x="606" 
d="M80 0v693h468v-131h-312v-136h277v-128h-277v-167h335v-131h-491zM471 811l-55 -66l-100 77l-100 -77l-57 66l157 137z" />
    <glyph glyph-name="Edieresis" unicode="&#xcb;" horiz-adv-x="606" 
d="M80 0v693h468v-131h-312v-136h277v-128h-277v-167h335v-131h-491zM200 762c-20.667 0 -38.667 6.83301 -54 20.5s-23 32.167 -23 55.5s7.66699 41.833 23 55.5s33.333 20.5 54 20.5s38.667 -6.83301 54 -20.5s23 -32.167 23 -55.5s-7.66699 -41.833 -23 -55.5
s-33.333 -20.5 -54 -20.5zM423 762c-20.667 0 -38.667 6.83301 -54 20.5s-23 32.167 -23 55.5s7.66699 41.833 23 55.5s33.333 20.5 54 20.5s38.667 -6.83301 54 -20.5s23 -32.167 23 -55.5s-7.66699 -41.833 -23 -55.5s-33.333 -20.5 -54 -20.5z" />
    <glyph glyph-name="Igrave" unicode="&#xcc;" horiz-adv-x="316" 
d="M80 693h156v-693h-156v693zM126 959l142 -162l-68 -61l-165 139z" />
    <glyph glyph-name="Iacute" unicode="&#xcd;" horiz-adv-x="316" 
d="M80 693h156v-693h-156v693zM283 875l-165 -139l-68 61l142 162z" />
    <glyph glyph-name="Icircumflex" unicode="&#xce;" horiz-adv-x="316" 
d="M80 693h156v-693h-156v693zM316 811l-55 -66l-100 77l-100 -77l-57 66l157 137z" />
    <glyph glyph-name="Idieresis" unicode="&#xcf;" horiz-adv-x="316" 
d="M80 693h156v-693h-156v693zM49 762c-20.667 0 -38.667 6.83301 -54 20.5s-23 32.167 -23 55.5s7.66699 41.833 23 55.5s33.333 20.5 54 20.5s38.667 -6.83301 54 -20.5s23 -32.167 23 -55.5s-7.66699 -41.833 -23 -55.5s-33.333 -20.5 -54 -20.5zM272 762
c-20.667 0 -38.667 6.83301 -54 20.5s-23 32.167 -23 55.5s7.66699 41.833 23 55.5s33.333 20.5 54 20.5s38.667 -6.83301 54 -20.5s23 -32.167 23 -55.5s-7.66699 -41.833 -23 -55.5s-33.333 -20.5 -54 -20.5z" />
    <glyph glyph-name="Eth" unicode="&#xd0;" horiz-adv-x="748" 
d="M247 127c7.33301 -0.666992 15.833 -1.16699 25.5 -1.5s21.167 -0.5 34.5 -0.5c78 0 135.833 19.667 173.5 59s56.5 93.666 56.5 162.999c0 72.667 -18 127.667 -54 165s-93 56 -171 56c-10.667 0 -21.667 -0.166992 -33 -0.5s-22 -1.16602 -32 -2.49902v-148h126v-115
h-126v-175zM698 347c0 -60 -9.33496 -112.33 -28.002 -156.997s-45.167 -81.667 -79.5 -111s-76.166 -51.333 -125.499 -66s-104.666 -22 -165.999 -22c-28 0 -60.667 1.16699 -98 3.5s-74 7.16602 -110 14.499v293h-81v115h81v267c36 6.66699 73.5 11.167 112.5 13.5
s72.5 3.5 100.5 3.5c59.333 0 113.166 -6.66699 161.499 -20s89.833 -34.333 124.5 -63s61.334 -65.334 80.001 -110.001s28 -98.334 28 -161.001z" />
    <glyph glyph-name="Ntilde" unicode="&#xd1;" horiz-adv-x="756" 
d="M545 0c-44.667 79.333 -93.001 157.667 -145.001 235s-107.333 150.333 -166 219v-454h-154v693h127c22 -22 46.333 -49 73 -81s53.834 -66.167 81.501 -102.5s55.167 -74 82.5 -113s53 -76.5 77 -112.5v409h155v-693h-131zM564.999 872.001c-4 -10 -9.5 -21 -16.5 -33
s-15.5 -23.167 -25.5 -33.5s-21.333 -18.833 -34 -25.5s-26.667 -10 -42 -10c-12 0 -23.167 1.83301 -33.5 5.5s-20.5 7.66699 -30.5 12s-20 8.33301 -30 12s-20.333 5.5 -31 5.5c-13.333 0 -24.333 -4.33301 -33 -13s-15.667 -18.667 -21 -30l-73 48c4 10 9.5 21 16.5 33
s15.5 23.167 25.5 33.5s21.333 18.833 34 25.5s26.667 10 42 10c12 0 23.167 -1.83301 33.5 -5.5s20.5 -7.66699 30.5 -12s19.833 -8.33301 29.5 -12s20.167 -5.5 31.5 -5.5c13.333 0 24.333 4.33301 33 13s15.667 18.667 21 30z" />
    <glyph glyph-name="Ograve" unicode="&#xd2;" horiz-adv-x="790" 
d="M211 347c0 -34 4.16699 -64.668 12.5 -92.001s20.333 -50.833 36 -70.5s34.834 -34.834 57.501 -45.501s48.667 -16 78 -16c28.667 0 54.5 5.33301 77.5 16s42.333 25.834 58 45.501s27.667 43.167 36 70.5s12.5 58 12.5 92s-4.16699 64.833 -12.5 92.5
s-20.333 51.334 -36 71.001s-35 34.834 -58 45.501s-48.833 16 -77.5 16c-29.333 0 -55.333 -5.5 -78 -16.5s-41.834 -26.333 -57.501 -46s-27.667 -43.334 -36 -71.001s-12.5 -58.167 -12.5 -91.5zM740 346.999c0 -59.333 -8.83398 -111.5 -26.501 -156.5
s-41.834 -82.667 -72.501 -113s-67.167 -53.166 -109.5 -68.499s-87.833 -23 -136.5 -23c-47.333 0 -92 7.66699 -134 23s-78.667 38.166 -110 68.499s-56 68 -74 113s-27 97.167 -27 156.5s9.33301 111.5 28 156.5s43.834 82.833 75.501 113.5s68.334 53.667 110.001 69
s85.5 23 131.5 23c47.333 0 92 -7.66699 134 -23s78.667 -38.333 110 -69s56 -68.5 74 -113.5s27 -97.167 27 -156.5zM362.999 958.999l142 -162l-68 -61l-165 139z" />
    <glyph glyph-name="Oacute" unicode="&#xd3;" horiz-adv-x="790" 
d="M211 347c0 -34 4.16699 -64.668 12.5 -92.001s20.333 -50.833 36 -70.5s34.834 -34.834 57.501 -45.501s48.667 -16 78 -16c28.667 0 54.5 5.33301 77.5 16s42.333 25.834 58 45.501s27.667 43.167 36 70.5s12.5 58 12.5 92s-4.16699 64.833 -12.5 92.5
s-20.333 51.334 -36 71.001s-35 34.834 -58 45.501s-48.833 16 -77.5 16c-29.333 0 -55.333 -5.5 -78 -16.5s-41.834 -26.333 -57.501 -46s-27.667 -43.334 -36 -71.001s-12.5 -58.167 -12.5 -91.5zM740 346.999c0 -59.333 -8.83398 -111.5 -26.501 -156.5
s-41.834 -82.667 -72.501 -113s-67.167 -53.166 -109.5 -68.499s-87.833 -23 -136.5 -23c-47.333 0 -92 7.66699 -134 23s-78.667 38.166 -110 68.499s-56 68 -74 113s-27 97.167 -27 156.5s9.33301 111.5 28 156.5s43.834 82.833 75.501 113.5s68.334 53.667 110.001 69
s85.5 23 131.5 23c47.333 0 92 -7.66699 134 -23s78.667 -38.333 110 -69s56 -68.5 74 -113.5s27 -97.167 27 -156.5zM512.999 874.999l-165 -139l-68 61l142 162z" />
    <glyph glyph-name="Ocircumflex" unicode="&#xd4;" horiz-adv-x="790" 
d="M211 347c0 -34 4.16699 -64.668 12.5 -92.001s20.333 -50.833 36 -70.5s34.834 -34.834 57.501 -45.501s48.667 -16 78 -16c28.667 0 54.5 5.33301 77.5 16s42.333 25.834 58 45.501s27.667 43.167 36 70.5s12.5 58 12.5 92s-4.16699 64.833 -12.5 92.5
s-20.333 51.334 -36 71.001s-35 34.834 -58 45.501s-48.833 16 -77.5 16c-29.333 0 -55.333 -5.5 -78 -16.5s-41.834 -26.333 -57.501 -46s-27.667 -43.334 -36 -71.001s-12.5 -58.167 -12.5 -91.5zM740 346.999c0 -59.333 -8.83398 -111.5 -26.501 -156.5
s-41.834 -82.667 -72.501 -113s-67.167 -53.166 -109.5 -68.499s-87.833 -23 -136.5 -23c-47.333 0 -92 7.66699 -134 23s-78.667 38.166 -110 68.499s-56 68 -74 113s-27 97.167 -27 156.5s9.33301 111.5 28 156.5s43.834 82.833 75.501 113.5s68.334 53.667 110.001 69
s85.5 23 131.5 23c47.333 0 92 -7.66699 134 -23s78.667 -38.333 110 -69s56 -68.5 74 -113.5s27 -97.167 27 -156.5zM550.999 810.999l-55 -66l-100 77l-100 -77l-57 66l157 137z" />
    <glyph glyph-name="Otilde" unicode="&#xd5;" horiz-adv-x="790" 
d="M211 347c0 -34 4.16699 -64.668 12.5 -92.001s20.333 -50.833 36 -70.5s34.834 -34.834 57.501 -45.501s48.667 -16 78 -16c28.667 0 54.5 5.33301 77.5 16s42.333 25.834 58 45.501s27.667 43.167 36 70.5s12.5 58 12.5 92s-4.16699 64.833 -12.5 92.5
s-20.333 51.334 -36 71.001s-35 34.834 -58 45.501s-48.833 16 -77.5 16c-29.333 0 -55.333 -5.5 -78 -16.5s-41.834 -26.333 -57.501 -46s-27.667 -43.334 -36 -71.001s-12.5 -58.167 -12.5 -91.5zM740 346.999c0 -59.333 -8.83398 -111.5 -26.501 -156.5
s-41.834 -82.667 -72.501 -113s-67.167 -53.166 -109.5 -68.499s-87.833 -23 -136.5 -23c-47.333 0 -92 7.66699 -134 23s-78.667 38.166 -110 68.499s-56 68 -74 113s-27 97.167 -27 156.5s9.33301 111.5 28 156.5s43.834 82.833 75.501 113.5s68.334 53.667 110.001 69
s85.5 23 131.5 23c47.333 0 92 -7.66699 134 -23s78.667 -38.333 110 -69s56 -68.5 74 -113.5s27 -97.167 27 -156.5zM581.999 871.999c-4 -10 -9.5 -21 -16.5 -33s-15.5 -23.167 -25.5 -33.5s-21.333 -18.833 -34 -25.5s-26.667 -10 -42 -10
c-12 0 -23.167 1.83301 -33.5 5.5s-20.5 7.66699 -30.5 12s-20 8.33301 -30 12s-20.333 5.5 -31 5.5c-13.333 0 -24.333 -4.33301 -33 -13s-15.667 -18.667 -21 -30l-73 48c4 10 9.5 21 16.5 33s15.5 23.167 25.5 33.5s21.333 18.833 34 25.5s26.667 10 42 10
c12 0 23.167 -1.83301 33.5 -5.5s20.5 -7.66699 30.5 -12s19.833 -8.33301 29.5 -12s20.167 -5.5 31.5 -5.5c13.333 0 24.333 4.33301 33 13s15.667 18.667 21 30z" />
    <glyph glyph-name="Odieresis" unicode="&#xd6;" horiz-adv-x="790" 
d="M211 347c0 -34 4.16699 -64.668 12.5 -92.001s20.333 -50.833 36 -70.5s34.834 -34.834 57.501 -45.501s48.667 -16 78 -16c28.667 0 54.5 5.33301 77.5 16s42.333 25.834 58 45.501s27.667 43.167 36 70.5s12.5 58 12.5 92s-4.16699 64.833 -12.5 92.5
s-20.333 51.334 -36 71.001s-35 34.834 -58 45.501s-48.833 16 -77.5 16c-29.333 0 -55.333 -5.5 -78 -16.5s-41.834 -26.333 -57.501 -46s-27.667 -43.334 -36 -71.001s-12.5 -58.167 -12.5 -91.5zM740 346.999c0 -59.333 -8.83398 -111.5 -26.501 -156.5
s-41.834 -82.667 -72.501 -113s-67.167 -53.166 -109.5 -68.499s-87.833 -23 -136.5 -23c-47.333 0 -92 7.66699 -134 23s-78.667 38.166 -110 68.499s-56 68 -74 113s-27 97.167 -27 156.5s9.33301 111.5 28 156.5s43.834 82.833 75.501 113.5s68.334 53.667 110.001 69
s85.5 23 131.5 23c47.333 0 92 -7.66699 134 -23s78.667 -38.333 110 -69s56 -68.5 74 -113.5s27 -97.167 27 -156.5zM276.999 761.999c-20.667 0 -38.667 6.83301 -54 20.5s-23 32.167 -23 55.5s7.66699 41.833 23 55.5s33.333 20.5 54 20.5s38.667 -6.83301 54 -20.5
s23 -32.167 23 -55.5s-7.66699 -41.833 -23 -55.5s-33.333 -20.5 -54 -20.5zM499.999 761.999c-20.667 0 -38.667 6.83301 -54 20.5s-23 32.167 -23 55.5s7.66699 41.833 23 55.5s33.333 20.5 54 20.5s38.667 -6.83301 54 -20.5s23 -32.167 23 -55.5
s-7.66699 -41.833 -23 -55.5s-33.333 -20.5 -54 -20.5z" />
    <glyph glyph-name="multiply" unicode="&#xd7;" horiz-adv-x="568" 
d="M420 522l87 -87l-136 -136l136 -135l-87 -87l-136 136l-135 -136l-87 87l136 135l-136 136l87 87l135 -136z" />
    <glyph glyph-name="Oslash" unicode="&#xd8;" horiz-adv-x="790" 
d="M740 347c0 -59.333 -8.83496 -111.501 -26.502 -156.501s-41.834 -82.667 -72.501 -113s-67.167 -53.166 -109.5 -68.499s-87.833 -23 -136.5 -23c-33.333 0 -65.166 3.5 -95.499 10.5s-58.5 18.167 -84.5 33.5l-58 -75l-85 63l61 78c-26 30 -46.333 65.833 -61 107.5
s-22 89.5 -22 143.5c0 59.333 9.33301 111.5 28 156.5s43.834 82.833 75.501 113.5s68.334 53.667 110.001 69s85.5 23 131.5 23c66 0 125.333 -14.667 178 -44l56 73l85 -63l-59 -76c26.667 -30 47.5 -66 62.5 -108s22.5 -90 22.5 -144zM578.998 346.999
c0 48 -7.99902 88.999 -23.999 122.999l-251 -325c27.333 -14.667 57.666 -22 90.999 -22c28.667 0 54.5 5.33301 77.5 16s42.333 25.834 58 45.501s27.667 43.167 36 70.5s12.5 58 12.5 92zM210.999 346.998c0 -46 7.66797 -85.999 23.001 -119.999l250 323
c-26 14.667 -55.667 22 -89 22c-29.333 0 -55.333 -5.5 -78 -16.5s-41.834 -26.333 -57.501 -46s-27.667 -43.334 -36 -71.001s-12.5 -58.167 -12.5 -91.5z" />
    <glyph glyph-name="Ugrave" unicode="&#xd9;" horiz-adv-x="707" 
d="M351 -14c-48.667 0 -90.6689 6.83008 -126.002 20.4971s-64.5 32.667 -87.5 57s-40 53.333 -51 87s-16.5 70.834 -16.5 111.501v431h156v-418c0 -28 3.16699 -51.833 9.5 -71.5s15 -35.667 26 -48s24.333 -21.166 40 -26.499s32.834 -8 51.501 -8
c38 0 68.833 11.667 92.5 35s35.5 63 35.5 119v418h156v-431c0 -40.667 -5.66699 -78 -17 -112s-28.666 -63.167 -51.999 -87.5s-53 -43.166 -89 -56.499s-78.667 -20 -128 -20zM300.998 958.997l142 -162l-68 -61l-165 139z" />
    <glyph glyph-name="Uacute" unicode="&#xda;" horiz-adv-x="707" 
d="M351 -14c-48.667 0 -90.6689 6.83008 -126.002 20.4971s-64.5 32.667 -87.5 57s-40 53.333 -51 87s-16.5 70.834 -16.5 111.501v431h156v-418c0 -28 3.16699 -51.833 9.5 -71.5s15 -35.667 26 -48s24.333 -21.166 40 -26.499s32.834 -8 51.501 -8
c38 0 68.833 11.667 92.5 35s35.5 63 35.5 119v418h156v-431c0 -40.667 -5.66699 -78 -17 -112s-28.666 -63.167 -51.999 -87.5s-53 -43.166 -89 -56.499s-78.667 -20 -128 -20zM488.998 874.997l-165 -139l-68 61l142 162z" />
    <glyph glyph-name="Ucircumflex" unicode="&#xdb;" horiz-adv-x="707" 
d="M351 -14c-48.667 0 -90.6689 6.83008 -126.002 20.4971s-64.5 32.667 -87.5 57s-40 53.333 -51 87s-16.5 70.834 -16.5 111.501v431h156v-418c0 -28 3.16699 -51.833 9.5 -71.5s15 -35.667 26 -48s24.333 -21.166 40 -26.499s32.834 -8 51.501 -8
c38 0 68.833 11.667 92.5 35s35.5 63 35.5 119v418h156v-431c0 -40.667 -5.66699 -78 -17 -112s-28.666 -63.167 -51.999 -87.5s-53 -43.166 -89 -56.499s-78.667 -20 -128 -20zM507.998 810.997l-55 -66l-100 77l-100 -77l-57 66l157 137z" />
    <glyph glyph-name="Udieresis" unicode="&#xdc;" horiz-adv-x="707" 
d="M351 -14c-48.667 0 -90.6689 6.83008 -126.002 20.4971s-64.5 32.667 -87.5 57s-40 53.333 -51 87s-16.5 70.834 -16.5 111.501v431h156v-418c0 -28 3.16699 -51.833 9.5 -71.5s15 -35.667 26 -48s24.333 -21.166 40 -26.499s32.834 -8 51.501 -8
c38 0 68.833 11.667 92.5 35s35.5 63 35.5 119v418h156v-431c0 -40.667 -5.66699 -78 -17 -112s-28.666 -63.167 -51.999 -87.5s-53 -43.166 -89 -56.499s-78.667 -20 -128 -20zM241.998 761.997c-20.667 0 -38.667 6.83301 -54 20.5s-23 32.167 -23 55.5
s7.66699 41.833 23 55.5s33.333 20.5 54 20.5s38.667 -6.83301 54 -20.5s23 -32.167 23 -55.5s-7.66699 -41.833 -23 -55.5s-33.333 -20.5 -54 -20.5zM464.998 761.997c-20.667 0 -38.667 6.83301 -54 20.5s-23 32.167 -23 55.5s7.66699 41.833 23 55.5s33.333 20.5 54 20.5
s38.667 -6.83301 54 -20.5s23 -32.167 23 -55.5s-7.66699 -41.833 -23 -55.5s-33.333 -20.5 -54 -20.5z" />
    <glyph glyph-name="Yacute" unicode="&#xdd;" horiz-adv-x="661" 
d="M334 408c28 47.333 54.668 94.6641 80.001 141.997s48.666 95 69.999 143h172c-38 -74.667 -77.333 -147 -118 -217s-83.667 -140.333 -129 -211v-265h-156v263c-45.333 70.667 -88.5 141.334 -129.5 212.001s-80.5 143.334 -118.5 218.001h181
c21.333 -48 44.333 -95.667 69 -143s51 -94.666 79 -141.999zM471.001 874.998l-165 -139l-68 61l142 162z" />
    <glyph glyph-name="Thorn" unicode="&#xde;" horiz-adv-x="644" 
d="M308 596c44 0 84.498 -4.16699 121.498 -12.5s68.833 -21.833 95.5 -40.5s47.334 -42.667 62.001 -72s22 -65 22 -107c0 -83.333 -28 -143.5 -84 -180.5s-136 -55.5 -240 -55.5h-49v-128h-156v693h156v-100c4.66699 0.666992 10.334 1.16699 17.001 1.5l20 1
c6.66699 0.333008 13.167 0.5 19.5 0.5h15.5zM297.998 464c-11.333 0 -22.499 -0.333008 -33.499 -1s-20.5 -1.33398 -28.5 -2.00098v-200h49c54 0 94.667 7.33301 122 22s41 42 41 82c0 19.333 -3.5 35.333 -10.5 48s-17 22.834 -30 30.501s-28.833 13 -47.5 16
s-39.334 4.5 -62.001 4.5z" />
    <glyph glyph-name="germandbls" unicode="&#xdf;" horiz-adv-x="659" 
d="M528 610c0 -28 -2.83398 -50.3301 -8.50098 -66.9971s-15.167 -32.667 -28.5 -48c-14.667 -17.333 -27.834 -33.333 -39.501 -48s-17.5 -31.334 -17.5 -50.001c0 -10 2.66699 -18.667 8 -26s12.333 -14.333 21 -21s18.834 -13.334 30.501 -20.001
s24.167 -13.667 37.5 -21c24 -14 45 -32.333 63 -55s27 -52 27 -88c0 -57.333 -16.333 -101.333 -49 -132s-86.667 -46 -162 -46c-36.667 0 -66 3.33301 -88 10s-39.667 12.667 -53 18l25 120c6.66699 -2.66699 14.667 -5.5 24 -8.5s19 -5.83301 29 -8.5
s20.167 -4.83398 30.5 -6.50098s20.166 -2.5 29.499 -2.5c44.667 0 67 18 67 54c0 17.333 -9 32.833 -27 46.5s-41 26.834 -69 39.501c-19.333 8.66699 -34.833 18 -46.5 28s-20.5 20.5 -26.5 31.5s-10 22.167 -12 33.5s-3 23 -3 35c0 28 6.33301 51.5 19 70.5
s27.667 38.5 45 58.5c11.333 13.333 20 25.666 26 36.999s9 25.666 9 42.999c0 22 -7 38.333 -21 49s-33 16 -57 16c-32 0 -55.833 -10 -71.5 -30s-23.5 -48.667 -23.5 -86v-536h-146v533c0 35.333 4.66699 67.833 14 97.5s23.833 55.334 43.5 77.001
s44.334 38.5 74.001 50.5s64.834 18 105.501 18c38.667 0 72 -4.5 100 -13.5s51 -21 69 -36s31.167 -32.667 39.5 -53s12.5 -41.5 12.5 -63.5z" />
    <glyph glyph-name="agrave" unicode="&#xe0;" horiz-adv-x="553" 
d="M271 104c14.667 0 28.665 0.334961 41.998 1.00195s24 1.66699 32 3v113c-6 1.33301 -15 2.66602 -27 3.99902s-23 2 -33 2c-14 0 -27.167 -0.833008 -39.5 -2.5s-23.166 -4.83398 -32.499 -9.50098s-16.666 -11 -21.999 -19s-8 -18 -8 -30
c0 -23.333 7.83301 -39.5 23.5 -48.5s37.167 -13.5 64.5 -13.5zM258.998 540.002c44 0 80.665 -4.99609 109.998 -14.9961s52.833 -24.333 70.5 -43s30.167 -41.334 37.5 -68.001s11 -56.334 11 -89.001v-310c-21.333 -4.66699 -51 -10.167 -89 -16.5s-84 -9.5 -138 -9.5
c-34 0 -64.833 3 -92.5 9s-51.5 15.833 -71.5 29.5s-35.333 31.5 -46 53.5s-16 49 -16 81c0 30.667 6.16699 56.667 18.5 78s28.833 38.333 49.5 51s44.334 21.834 71.001 27.501s54.334 8.5 83.001 8.5c19.333 0 36.5 -0.833008 51.5 -2.5s27.167 -3.83398 36.5 -6.50098
v14c0 25.333 -7.66699 45.666 -23 60.999s-42 23 -80 23c-25.333 0 -50.333 -1.83301 -75 -5.5s-46 -8.83398 -64 -15.501l-19 120c8.66699 2.66699 19.5 5.5 32.5 8.5s27.167 5.66699 42.5 8s31.5 4.33301 48.5 6s34.167 2.5 51.5 2.5zM233.996 799.006l142 -162l-68 -61
l-165 139z" />
    <glyph glyph-name="aacute" unicode="&#xe1;" horiz-adv-x="553" 
d="M271 104c14.667 0 28.665 0.334961 41.998 1.00195s24 1.66699 32 3v113c-6 1.33301 -15 2.66602 -27 3.99902s-23 2 -33 2c-14 0 -27.167 -0.833008 -39.5 -2.5s-23.166 -4.83398 -32.499 -9.50098s-16.666 -11 -21.999 -19s-8 -18 -8 -30
c0 -23.333 7.83301 -39.5 23.5 -48.5s37.167 -13.5 64.5 -13.5zM258.998 540.002c44 0 80.665 -4.99609 109.998 -14.9961s52.833 -24.333 70.5 -43s30.167 -41.334 37.5 -68.001s11 -56.334 11 -89.001v-310c-21.333 -4.66699 -51 -10.167 -89 -16.5s-84 -9.5 -138 -9.5
c-34 0 -64.833 3 -92.5 9s-51.5 15.833 -71.5 29.5s-35.333 31.5 -46 53.5s-16 49 -16 81c0 30.667 6.16699 56.667 18.5 78s28.833 38.333 49.5 51s44.334 21.834 71.001 27.501s54.334 8.5 83.001 8.5c19.333 0 36.5 -0.833008 51.5 -2.5s27.167 -3.83398 36.5 -6.50098
v14c0 25.333 -7.66699 45.666 -23 60.999s-42 23 -80 23c-25.333 0 -50.333 -1.83301 -75 -5.5s-46 -8.83398 -64 -15.501l-19 120c8.66699 2.66699 19.5 5.5 32.5 8.5s27.167 5.66699 42.5 8s31.5 4.33301 48.5 6s34.167 2.5 51.5 2.5zM396.996 715.006l-165 -139l-68 61
l142 162z" />
    <glyph glyph-name="acircumflex" unicode="&#xe2;" horiz-adv-x="553" 
d="M271 104c14.667 0 28.665 0.334961 41.998 1.00195s24 1.66699 32 3v113c-6 1.33301 -15 2.66602 -27 3.99902s-23 2 -33 2c-14 0 -27.167 -0.833008 -39.5 -2.5s-23.166 -4.83398 -32.499 -9.50098s-16.666 -11 -21.999 -19s-8 -18 -8 -30
c0 -23.333 7.83301 -39.5 23.5 -48.5s37.167 -13.5 64.5 -13.5zM258.998 540.002c44 0 80.665 -4.99609 109.998 -14.9961s52.833 -24.333 70.5 -43s30.167 -41.334 37.5 -68.001s11 -56.334 11 -89.001v-310c-21.333 -4.66699 -51 -10.167 -89 -16.5s-84 -9.5 -138 -9.5
c-34 0 -64.833 3 -92.5 9s-51.5 15.833 -71.5 29.5s-35.333 31.5 -46 53.5s-16 49 -16 81c0 30.667 6.16699 56.667 18.5 78s28.833 38.333 49.5 51s44.334 21.834 71.001 27.501s54.334 8.5 83.001 8.5c19.333 0 36.5 -0.833008 51.5 -2.5s27.167 -3.83398 36.5 -6.50098
v14c0 25.333 -7.66699 45.666 -23 60.999s-42 23 -80 23c-25.333 0 -50.333 -1.83301 -75 -5.5s-46 -8.83398 -64 -15.501l-19 120c8.66699 2.66699 19.5 5.5 32.5 8.5s27.167 5.66699 42.5 8s31.5 4.33301 48.5 6s34.167 2.5 51.5 2.5zM415.996 645.006l-55 -66l-100 77
l-100 -77l-57 66l157 137z" />
    <glyph glyph-name="atilde" unicode="&#xe3;" horiz-adv-x="553" 
d="M271 104c14.667 0 28.665 0.334961 41.998 1.00195s24 1.66699 32 3v113c-6 1.33301 -15 2.66602 -27 3.99902s-23 2 -33 2c-14 0 -27.167 -0.833008 -39.5 -2.5s-23.166 -4.83398 -32.499 -9.50098s-16.666 -11 -21.999 -19s-8 -18 -8 -30
c0 -23.333 7.83301 -39.5 23.5 -48.5s37.167 -13.5 64.5 -13.5zM258.998 540.002c44 0 80.665 -4.99609 109.998 -14.9961s52.833 -24.333 70.5 -43s30.167 -41.334 37.5 -68.001s11 -56.334 11 -89.001v-310c-21.333 -4.66699 -51 -10.167 -89 -16.5s-84 -9.5 -138 -9.5
c-34 0 -64.833 3 -92.5 9s-51.5 15.833 -71.5 29.5s-35.333 31.5 -46 53.5s-16 49 -16 81c0 30.667 6.16699 56.667 18.5 78s28.833 38.333 49.5 51s44.334 21.834 71.001 27.501s54.334 8.5 83.001 8.5c19.333 0 36.5 -0.833008 51.5 -2.5s27.167 -3.83398 36.5 -6.50098
v14c0 25.333 -7.66699 45.666 -23 60.999s-42 23 -80 23c-25.333 0 -50.333 -1.83301 -75 -5.5s-46 -8.83398 -64 -15.501l-19 120c8.66699 2.66699 19.5 5.5 32.5 8.5s27.167 5.66699 42.5 8s31.5 4.33301 48.5 6s34.167 2.5 51.5 2.5zM454.996 709.006
c-4 -10 -9.5 -21 -16.5 -33s-15.5 -23.167 -25.5 -33.5s-21.333 -18.833 -34 -25.5s-26.667 -10 -42 -10c-12 0 -23.167 1.83301 -33.5 5.5s-20.5 7.66699 -30.5 12s-20 8.33301 -30 12s-20.333 5.5 -31 5.5c-13.333 0 -24.333 -4.33301 -33 -13s-15.667 -18.667 -21 -30
l-73 48c4 10 9.5 21 16.5 33s15.5 23.167 25.5 33.5s21.333 18.833 34 25.5s26.667 10 42 10c12 0 23.167 -1.83301 33.5 -5.5s20.5 -7.66699 30.5 -12s19.833 -8.33301 29.5 -12s20.167 -5.5 31.5 -5.5c13.333 0 24.333 4.33301 33 13s15.667 18.667 21 30z" />
    <glyph glyph-name="adieresis" unicode="&#xe4;" horiz-adv-x="553" 
d="M271 104c14.667 0 28.665 0.334961 41.998 1.00195s24 1.66699 32 3v113c-6 1.33301 -15 2.66602 -27 3.99902s-23 2 -33 2c-14 0 -27.167 -0.833008 -39.5 -2.5s-23.166 -4.83398 -32.499 -9.50098s-16.666 -11 -21.999 -19s-8 -18 -8 -30
c0 -23.333 7.83301 -39.5 23.5 -48.5s37.167 -13.5 64.5 -13.5zM258.998 540.002c44 0 80.665 -4.99609 109.998 -14.9961s52.833 -24.333 70.5 -43s30.167 -41.334 37.5 -68.001s11 -56.334 11 -89.001v-310c-21.333 -4.66699 -51 -10.167 -89 -16.5s-84 -9.5 -138 -9.5
c-34 0 -64.833 3 -92.5 9s-51.5 15.833 -71.5 29.5s-35.333 31.5 -46 53.5s-16 49 -16 81c0 30.667 6.16699 56.667 18.5 78s28.833 38.333 49.5 51s44.334 21.834 71.001 27.501s54.334 8.5 83.001 8.5c19.333 0 36.5 -0.833008 51.5 -2.5s27.167 -3.83398 36.5 -6.50098
v14c0 25.333 -7.66699 45.666 -23 60.999s-42 23 -80 23c-25.333 0 -50.333 -1.83301 -75 -5.5s-46 -8.83398 -64 -15.501l-19 120c8.66699 2.66699 19.5 5.5 32.5 8.5s27.167 5.66699 42.5 8s31.5 4.33301 48.5 6s34.167 2.5 51.5 2.5zM153.996 602.006
c-20.667 0 -38.667 6.83301 -54 20.5s-23 32.167 -23 55.5s7.66699 41.833 23 55.5s33.333 20.5 54 20.5s38.667 -6.83301 54 -20.5s23 -32.167 23 -55.5s-7.66699 -41.833 -23 -55.5s-33.333 -20.5 -54 -20.5zM376.996 602.006c-20.667 0 -38.667 6.83301 -54 20.5
s-23 32.167 -23 55.5s7.66699 41.833 23 55.5s33.333 20.5 54 20.5s38.667 -6.83301 54 -20.5s23 -32.167 23 -55.5s-7.66699 -41.833 -23 -55.5s-33.333 -20.5 -54 -20.5z" />
    <glyph glyph-name="aring" unicode="&#xe5;" horiz-adv-x="553" 
d="M271 104c14.667 0 28.665 0.334961 41.998 1.00195s24 1.66699 32 3v113c-6 1.33301 -15 2.66602 -27 3.99902s-23 2 -33 2c-14 0 -27.167 -0.833008 -39.5 -2.5s-23.166 -4.83398 -32.499 -9.50098s-16.666 -11 -21.999 -19s-8 -18 -8 -30
c0 -23.333 7.83301 -39.5 23.5 -48.5s37.167 -13.5 64.5 -13.5zM258.998 540.002c44 0 80.665 -4.99609 109.998 -14.9961s52.833 -24.333 70.5 -43s30.167 -41.334 37.5 -68.001s11 -56.334 11 -89.001v-310c-21.333 -4.66699 -51 -10.167 -89 -16.5s-84 -9.5 -138 -9.5
c-34 0 -64.833 3 -92.5 9s-51.5 15.833 -71.5 29.5s-35.333 31.5 -46 53.5s-16 49 -16 81c0 30.667 6.16699 56.667 18.5 78s28.833 38.333 49.5 51s44.334 21.834 71.001 27.501s54.334 8.5 83.001 8.5c19.333 0 36.5 -0.833008 51.5 -2.5s27.167 -3.83398 36.5 -6.50098
v14c0 25.333 -7.66699 45.666 -23 60.999s-42 23 -80 23c-25.333 0 -50.333 -1.83301 -75 -5.5s-46 -8.83398 -64 -15.501l-19 120c8.66699 2.66699 19.5 5.5 32.5 8.5s27.167 5.66699 42.5 8s31.5 4.33301 48.5 6s34.167 2.5 51.5 2.5zM394.996 699.006
c0 -18.667 -3.16699 -35.167 -9.5 -49.5s-15 -26.333 -26 -36s-23.667 -17 -38 -22s-29.5 -7.5 -45.5 -7.5c-15.333 0 -30 2.5 -44 7.5s-26.5 12.333 -37.5 22s-19.667 21.667 -26 36s-9.5 30.833 -9.5 49.5s3.16699 35.167 9.5 49.5s15 26.333 26 36s23.5 17 37.5 22
s28.667 7.5 44 7.5c16 0 31.167 -2.5 45.5 -7.5s27 -12.333 38 -22s19.667 -21.667 26 -36s9.5 -30.833 9.5 -49.5zM321.996 699.006c0 15.333 -4.66699 27 -14 35s-20 12 -32 12c-11.333 0 -21.666 -4 -30.999 -12s-14 -19.667 -14 -35s4.66699 -27 14 -35
s19.666 -12 30.999 -12c12 0 22.667 4 32 12s14 19.667 14 35z" />
    <glyph glyph-name="ae" unicode="&#xe6;" horiz-adv-x="874" 
d="M259 540c20.667 0 39.3301 -1.32812 55.9971 -3.99512s31.5 -6.83398 44.5 -12.501s24.833 -13 35.5 -22s20.667 -19.833 30 -32.5c22.667 25.333 48.334 43.5 77.001 54.5s59.334 16.5 92.001 16.5c36 0 68.333 -5.83301 97 -17.5s53.334 -28.834 74.001 -51.501
s36.5 -50.834 47.5 -84.501s16.5 -72.5 16.5 -116.5c0 -8.66699 -0.333008 -18.167 -1 -28.5s-1.33398 -19.5 -2.00098 -27.5h-338c3.33301 -30.667 17.666 -55 42.999 -73s59.333 -27 102 -27c27.333 0 54.166 2.5 80.499 7.5s47.833 11.167 64.5 18.5l20 -121
c-8 -4 -18.667 -8 -32 -12s-28.166 -7.5 -44.499 -10.5s-33.833 -5.5 -52.5 -7.5s-37.334 -3 -56.001 -3c-39.333 0 -73.666 4.33301 -102.999 13s-54.333 20 -75 34c-50 -29.333 -108 -44 -174 -44c-34 0 -64.833 3 -92.5 9s-51.5 15.833 -71.5 29.5s-35.333 31.5 -46 53.5
s-16 49 -16 81c0 30.667 6.16699 56.667 18.5 78s28.833 38.333 49.5 51s44.334 21.834 71.001 27.501s54.334 8.5 83.001 8.5c19.333 0 36.5 -0.833008 51.5 -2.5s27.167 -3.83398 36.5 -6.50098v17c0 25.333 -7.66699 45.166 -23 59.499s-42 21.5 -80 21.5
c-25.333 0 -50.333 -1.83301 -75 -5.5s-46 -8.83398 -64 -15.501l-19 120c8.66699 2.66699 19.5 5.5 32.5 8.5s27.167 5.66699 42.5 8s31.5 4.33301 48.5 6s34.167 2.5 51.5 2.5zM270.996 104.005c20.667 0 39.498 1.16895 56.498 3.50195s31.833 6.16602 44.5 11.499
c-9.33301 24 -15.666 43.5 -18.999 58.5s-5.33301 30.167 -6 45.5c-9.33301 1.33301 -20.333 2.33301 -33 3s-22.334 1 -29.001 1c-14 0 -27.167 -0.833008 -39.5 -2.5s-23.166 -4.83398 -32.499 -9.50098s-16.666 -11 -21.999 -19s-8 -18 -8 -30
c0 -23.333 7.83301 -39.5 23.5 -48.5s37.167 -13.5 64.5 -13.5zM683.994 316.007c-0.666992 12.667 -2.83105 24.999 -6.49805 36.999s-9.33398 22.667 -17.001 32s-17.334 17 -29.001 23s-26.167 9 -43.5 9c-16.667 0 -31 -2.83301 -43 -8.5s-22 -13.167 -30 -22.5
s-14.167 -20.166 -18.5 -32.499s-7.5 -24.833 -9.5 -37.5h197z" />
    <glyph glyph-name="ccedilla" unicode="&#xe7;" horiz-adv-x="500" 
d="M328 -40c21.333 -10.667 36.001 -23.3311 44.001 -37.998s12 -29.667 12 -45c0 -32 -12.667 -56.333 -38 -73s-58.666 -25 -99.999 -25c-14.667 0 -29.334 1.16699 -44.001 3.5s-29.334 5.5 -44.001 9.5l18 87c4.66699 -1.33301 13.167 -3.5 25.5 -6.5
s24.5 -4.5 36.5 -4.5c9.33301 0 17.5 1.83301 24.5 5.5s10.833 10.167 11.5 19.5c0.666992 8 -2.5 15.333 -9.5 22s-18.167 11.667 -33.5 15l-12 3c2.66699 8.66699 6.33398 18.5 11.001 29.5s9.33398 21.167 14.001 30.5c-34.667 6.66699 -64.5 18.167 -89.5 34.5
s-45.667 36.333 -62 60s-28.333 50.5 -36 80.5s-11.5 61.667 -11.5 95c0 38 6.16699 73.833 18.5 107.5s30.166 63 53.499 88s51.666 44.833 84.999 59.5s71.333 22 114 22c28 0 53.667 -2.5 77 -7.5s46 -12.167 68 -21.5l-31 -119c-14 5.33301 -29.333 10 -46 14
s-35.334 6 -56.001 6c-44 0 -76.833 -13.667 -98.5 -41s-32.5 -63.333 -32.5 -108c0 -47.333 10.167 -84 30.5 -110s55.833 -39 106.5 -39c18 0 37.333 1.66699 58 5s39.667 8.66602 57 15.999l21 -122c-15.333 -6.66699 -34.166 -12.334 -56.499 -17.001
s-46.833 -7.66699 -73.5 -9c-2.66699 -5.33301 -5 -10.333 -7 -15s-3.66699 -8.66699 -5 -12z" />
    <glyph glyph-name="egrave" unicode="&#xe8;" horiz-adv-x="584" 
d="M45 259c0 46.667 7.17188 87.502 21.5049 122.502s33.166 64.167 56.499 87.5s50.166 41 80.499 53s61.5 18 93.5 18c74.667 0 133.667 -22.833 177 -68.5s65 -112.834 65 -201.501c0 -8.66699 -0.333008 -18.167 -1 -28.5s-1.33398 -19.5 -2.00098 -27.5h-338
c3.33301 -30.667 17.666 -55 42.999 -73s59.333 -27 102 -27c27.333 0 54.166 2.5 80.499 7.5s47.833 11.167 64.5 18.5l20 -121c-8 -4 -18.667 -8 -32 -12s-28.166 -7.5 -44.499 -10.5s-33.833 -5.5 -52.5 -7.5s-37.334 -3 -56.001 -3c-47.333 0 -88.5 7 -123.5 21
s-64 33.167 -87 57.5s-40 53.166 -51 86.499s-16.5 69.333 -16.5 108zM395.005 316.002c-0.666992 12.667 -2.83105 24.999 -6.49805 36.999s-9.33398 22.667 -17.001 32s-17.334 17 -29.001 23s-26.167 9 -43.5 9c-16.667 0 -31 -2.83301 -43 -8.5s-22 -13.167 -30 -22.5
s-14.167 -20.166 -18.5 -32.499s-7.5 -24.833 -9.5 -37.5h197zM260.008 799.001l142 -162l-68 -61l-165 139z" />
    <glyph glyph-name="eacute" unicode="&#xe9;" horiz-adv-x="584" 
d="M45 259c0 46.667 7.17188 87.502 21.5049 122.502s33.166 64.167 56.499 87.5s50.166 41 80.499 53s61.5 18 93.5 18c74.667 0 133.667 -22.833 177 -68.5s65 -112.834 65 -201.501c0 -8.66699 -0.333008 -18.167 -1 -28.5s-1.33398 -19.5 -2.00098 -27.5h-338
c3.33301 -30.667 17.666 -55 42.999 -73s59.333 -27 102 -27c27.333 0 54.166 2.5 80.499 7.5s47.833 11.167 64.5 18.5l20 -121c-8 -4 -18.667 -8 -32 -12s-28.166 -7.5 -44.499 -10.5s-33.833 -5.5 -52.5 -7.5s-37.334 -3 -56.001 -3c-47.333 0 -88.5 7 -123.5 21
s-64 33.167 -87 57.5s-40 53.166 -51 86.499s-16.5 69.333 -16.5 108zM395.005 316.002c-0.666992 12.667 -2.83105 24.999 -6.49805 36.999s-9.33398 22.667 -17.001 32s-17.334 17 -29.001 23s-26.167 9 -43.5 9c-16.667 0 -31 -2.83301 -43 -8.5s-22 -13.167 -30 -22.5
s-14.167 -20.166 -18.5 -32.499s-7.5 -24.833 -9.5 -37.5h197zM418.008 715.001l-165 -139l-68 61l142 162z" />
    <glyph glyph-name="ecircumflex" unicode="&#xea;" horiz-adv-x="584" 
d="M45 259c0 46.667 7.17188 87.502 21.5049 122.502s33.166 64.167 56.499 87.5s50.166 41 80.499 53s61.5 18 93.5 18c74.667 0 133.667 -22.833 177 -68.5s65 -112.834 65 -201.501c0 -8.66699 -0.333008 -18.167 -1 -28.5s-1.33398 -19.5 -2.00098 -27.5h-338
c3.33301 -30.667 17.666 -55 42.999 -73s59.333 -27 102 -27c27.333 0 54.166 2.5 80.499 7.5s47.833 11.167 64.5 18.5l20 -121c-8 -4 -18.667 -8 -32 -12s-28.166 -7.5 -44.499 -10.5s-33.833 -5.5 -52.5 -7.5s-37.334 -3 -56.001 -3c-47.333 0 -88.5 7 -123.5 21
s-64 33.167 -87 57.5s-40 53.166 -51 86.499s-16.5 69.333 -16.5 108zM395.005 316.002c-0.666992 12.667 -2.83105 24.999 -6.49805 36.999s-9.33398 22.667 -17.001 32s-17.334 17 -29.001 23s-26.167 9 -43.5 9c-16.667 0 -31 -2.83301 -43 -8.5s-22 -13.167 -30 -22.5
s-14.167 -20.166 -18.5 -32.499s-7.5 -24.833 -9.5 -37.5h197zM447.008 645.001l-55 -66l-100 77l-100 -77l-57 66l157 137z" />
    <glyph glyph-name="edieresis" unicode="&#xeb;" horiz-adv-x="584" 
d="M45 259c0 46.667 7.17188 87.502 21.5049 122.502s33.166 64.167 56.499 87.5s50.166 41 80.499 53s61.5 18 93.5 18c74.667 0 133.667 -22.833 177 -68.5s65 -112.834 65 -201.501c0 -8.66699 -0.333008 -18.167 -1 -28.5s-1.33398 -19.5 -2.00098 -27.5h-338
c3.33301 -30.667 17.666 -55 42.999 -73s59.333 -27 102 -27c27.333 0 54.166 2.5 80.499 7.5s47.833 11.167 64.5 18.5l20 -121c-8 -4 -18.667 -8 -32 -12s-28.166 -7.5 -44.499 -10.5s-33.833 -5.5 -52.5 -7.5s-37.334 -3 -56.001 -3c-47.333 0 -88.5 7 -123.5 21
s-64 33.167 -87 57.5s-40 53.166 -51 86.499s-16.5 69.333 -16.5 108zM395.005 316.002c-0.666992 12.667 -2.83105 24.999 -6.49805 36.999s-9.33398 22.667 -17.001 32s-17.334 17 -29.001 23s-26.167 9 -43.5 9c-16.667 0 -31 -2.83301 -43 -8.5s-22 -13.167 -30 -22.5
s-14.167 -20.166 -18.5 -32.499s-7.5 -24.833 -9.5 -37.5h197zM186.008 602.001c-20.667 0 -38.667 6.83301 -54 20.5s-23 32.167 -23 55.5s7.66699 41.833 23 55.5s33.333 20.5 54 20.5s38.667 -6.83301 54 -20.5s23 -32.167 23 -55.5s-7.66699 -41.833 -23 -55.5
s-33.333 -20.5 -54 -20.5zM409.008 602.001c-20.667 0 -38.667 6.83301 -54 20.5s-23 32.167 -23 55.5s7.66699 41.833 23 55.5s33.333 20.5 54 20.5s38.667 -6.83301 54 -20.5s23 -32.167 23 -55.5s-7.66699 -41.833 -23 -55.5s-33.333 -20.5 -54 -20.5z" />
    <glyph glyph-name="igrave" unicode="&#xec;" horiz-adv-x="289" 
d="M219 0h-149v526h149v-526zM113 799l142 -162l-68 -61l-165 139z" />
    <glyph glyph-name="iacute" unicode="&#xed;" horiz-adv-x="289" 
d="M219 0h-149v526h149v-526zM274 715l-165 -139l-68 61l142 162z" />
    <glyph glyph-name="icircumflex" unicode="&#xee;" horiz-adv-x="289" 
d="M219 0h-149v526h149v-526zM302 645l-55 -66l-100 77l-100 -77l-57 66l157 137z" />
    <glyph glyph-name="idieresis" unicode="&#xef;" horiz-adv-x="289" 
d="M219 0h-149v526h149v-526zM29 602c-20.667 0 -38.667 6.83301 -54 20.5s-23 32.167 -23 55.5s7.66699 41.833 23 55.5s33.333 20.5 54 20.5s38.667 -6.83301 54 -20.5s23 -32.167 23 -55.5s-7.66699 -41.833 -23 -55.5s-33.333 -20.5 -54 -20.5zM252 602
c-20.667 0 -38.667 6.83301 -54 20.5s-23 32.167 -23 55.5s7.66699 41.833 23 55.5s33.333 20.5 54 20.5s38.667 -6.83301 54 -20.5s23 -32.167 23 -55.5s-7.66699 -41.833 -23 -55.5s-33.333 -20.5 -54 -20.5z" />
    <glyph glyph-name="eth" unicode="&#xf0;" horiz-adv-x="601" 
d="M483 603c23.333 -40 41.666 -83.3301 54.999 -129.997s20 -96.334 20 -149.001c0 -50 -5.16699 -95.667 -15.5 -137s-26.166 -76.833 -47.499 -106.5s-48.5 -52.834 -81.5 -69.501s-72.167 -25 -117.5 -25c-42 0 -78.667 6.66699 -110 20s-57.5 31.166 -78.5 53.499
s-36.667 48.5 -47 78.5s-15.5 62 -15.5 96c0 36.667 5.16699 70.334 15.5 101.001s25.833 56.667 46.5 78s46.667 38 78 50s68 18 110 18c17.333 0 35.5 -2.5 54.5 -7.5s35.167 -10.833 48.5 -17.5c-8 35.333 -22.333 69.666 -43 102.999l-111 -37l-29 84l80 27
c-11.333 11.333 -23.333 22 -36 32s-25.667 19.667 -39 29l83 86c23.333 -13.333 45.5 -28.5 66.5 -45.5s40.5 -35.833 58.5 -56.5l115 39l29 -84zM406 313.003l0.000976562 6.49902c0 3 -0.333008 6.16699 -1 9.5c-16.667 13.333 -33.5 22.166 -50.5 26.499
s-33.5 6.5 -49.5 6.5c-21.333 0 -39 -3.33301 -53 -10s-25.333 -15.667 -34 -27s-14.667 -24.666 -18 -39.999s-5 -31.666 -5 -48.999c0 -36 8.16699 -65.167 24.5 -87.5s41.833 -33.5 76.5 -33.5c22 0 40.167 5.5 54.5 16.5s25.666 25.667 33.999 44s14 39.5 17 63.5
s4.5 48.667 4.5 74z" />
    <glyph glyph-name="ntilde" unicode="&#xf1;" 
d="M70 508c25.333 7.33301 58.001 14.166 98.001 20.499s82 9.5 126 9.5c44.667 0 81.834 -5.83301 111.501 -17.5s53.167 -28.167 70.5 -49.5s29.666 -46.666 36.999 -75.999s11 -62 11 -98v-297h-149v279c0 48 -6.33301 82 -19 102s-36.334 30 -71.001 30
c-10.667 0 -22 -0.5 -34 -1.5s-22.667 -2.16699 -32 -3.5v-406h-149v508zM482.001 709c-4 -10 -9.5 -21 -16.5 -33s-15.5 -23.167 -25.5 -33.5s-21.333 -18.833 -34 -25.5s-26.667 -10 -42 -10c-12 0 -23.167 1.83301 -33.5 5.5s-20.5 7.66699 -30.5 12s-20 8.33301 -30 12
s-20.333 5.5 -31 5.5c-13.333 0 -24.333 -4.33301 -33 -13s-15.667 -18.667 -21 -30l-73 48c4 10 9.5 21 16.5 33s15.5 23.167 25.5 33.5s21.333 18.833 34 25.5s26.667 10 42 10c12 0 23.167 -1.83301 33.5 -5.5s20.5 -7.66699 30.5 -12s19.833 -8.33301 29.5 -12
s20.167 -5.5 31.5 -5.5c13.333 0 24.333 4.33301 33 13s15.667 18.667 21 30z" />
    <glyph glyph-name="ograve" unicode="&#xf2;" horiz-adv-x="607" 
d="M562 264c0 -41.333 -5.99805 -79.166 -17.998 -113.499s-29.333 -63.666 -52 -87.999s-49.834 -43.166 -81.501 -56.499s-67.167 -20 -106.5 -20c-38.667 0 -73.834 6.66699 -105.501 20s-58.834 32.166 -81.501 56.499s-40.334 53.666 -53.001 87.999
s-19 72.166 -19 113.499s6.5 79 19.5 113s31 63 54 87s50.333 42.667 82 56s66.167 20 103.5 20c38 0 72.833 -6.66699 104.5 -20s58.834 -32 81.501 -56s40.334 -53 53.001 -87s19 -71.667 19 -113zM410.002 264c0 46 -9.16699 82.167 -27.5 108.5s-44.5 39.5 -78.5 39.5
s-60.333 -13.167 -79 -39.5s-28 -62.5 -28 -108.5s9.33301 -82.5 28 -109.5s45 -40.5 79 -40.5s60.167 13.5 78.5 40.5s27.5 63.5 27.5 109.5zM271.002 799l142 -162l-68 -61l-165 139z" />
    <glyph glyph-name="oacute" unicode="&#xf3;" horiz-adv-x="607" 
d="M562 264c0 -41.333 -5.99805 -79.166 -17.998 -113.499s-29.333 -63.666 -52 -87.999s-49.834 -43.166 -81.501 -56.499s-67.167 -20 -106.5 -20c-38.667 0 -73.834 6.66699 -105.501 20s-58.834 32.166 -81.501 56.499s-40.334 53.666 -53.001 87.999
s-19 72.166 -19 113.499s6.5 79 19.5 113s31 63 54 87s50.333 42.667 82 56s66.167 20 103.5 20c38 0 72.833 -6.66699 104.5 -20s58.834 -32 81.501 -56s40.334 -53 53.001 -87s19 -71.667 19 -113zM410.002 264c0 46 -9.16699 82.167 -27.5 108.5s-44.5 39.5 -78.5 39.5
s-60.333 -13.167 -79 -39.5s-28 -62.5 -28 -108.5s9.33301 -82.5 28 -109.5s45 -40.5 79 -40.5s60.167 13.5 78.5 40.5s27.5 63.5 27.5 109.5zM427.002 715l-165 -139l-68 61l142 162z" />
    <glyph glyph-name="ocircumflex" unicode="&#xf4;" horiz-adv-x="607" 
d="M562 264c0 -41.333 -5.99805 -79.166 -17.998 -113.499s-29.333 -63.666 -52 -87.999s-49.834 -43.166 -81.501 -56.499s-67.167 -20 -106.5 -20c-38.667 0 -73.834 6.66699 -105.501 20s-58.834 32.166 -81.501 56.499s-40.334 53.666 -53.001 87.999
s-19 72.166 -19 113.499s6.5 79 19.5 113s31 63 54 87s50.333 42.667 82 56s66.167 20 103.5 20c38 0 72.833 -6.66699 104.5 -20s58.834 -32 81.501 -56s40.334 -53 53.001 -87s19 -71.667 19 -113zM410.002 264c0 46 -9.16699 82.167 -27.5 108.5s-44.5 39.5 -78.5 39.5
s-60.333 -13.167 -79 -39.5s-28 -62.5 -28 -108.5s9.33301 -82.5 28 -109.5s45 -40.5 79 -40.5s60.167 13.5 78.5 40.5s27.5 63.5 27.5 109.5zM458.002 645l-55 -66l-100 77l-100 -77l-57 66l157 137z" />
    <glyph glyph-name="otilde" unicode="&#xf5;" horiz-adv-x="607" 
d="M562 264c0 -41.333 -5.99805 -79.166 -17.998 -113.499s-29.333 -63.666 -52 -87.999s-49.834 -43.166 -81.501 -56.499s-67.167 -20 -106.5 -20c-38.667 0 -73.834 6.66699 -105.501 20s-58.834 32.166 -81.501 56.499s-40.334 53.666 -53.001 87.999
s-19 72.166 -19 113.499s6.5 79 19.5 113s31 63 54 87s50.333 42.667 82 56s66.167 20 103.5 20c38 0 72.833 -6.66699 104.5 -20s58.834 -32 81.501 -56s40.334 -53 53.001 -87s19 -71.667 19 -113zM410.002 264c0 46 -9.16699 82.167 -27.5 108.5s-44.5 39.5 -78.5 39.5
s-60.333 -13.167 -79 -39.5s-28 -62.5 -28 -108.5s9.33301 -82.5 28 -109.5s45 -40.5 79 -40.5s60.167 13.5 78.5 40.5s27.5 63.5 27.5 109.5zM488.002 709c-4 -10 -9.5 -21 -16.5 -33s-15.5 -23.167 -25.5 -33.5s-21.333 -18.833 -34 -25.5s-26.667 -10 -42 -10
c-12 0 -23.167 1.83301 -33.5 5.5s-20.5 7.66699 -30.5 12s-20 8.33301 -30 12s-20.333 5.5 -31 5.5c-13.333 0 -24.333 -4.33301 -33 -13s-15.667 -18.667 -21 -30l-73 48c4 10 9.5 21 16.5 33s15.5 23.167 25.5 33.5s21.333 18.833 34 25.5s26.667 10 42 10
c12 0 23.167 -1.83301 33.5 -5.5s20.5 -7.66699 30.5 -12s19.833 -8.33301 29.5 -12s20.167 -5.5 31.5 -5.5c13.333 0 24.333 4.33301 33 13s15.667 18.667 21 30z" />
    <glyph glyph-name="odieresis" unicode="&#xf6;" horiz-adv-x="607" 
d="M562 264c0 -41.333 -5.99805 -79.166 -17.998 -113.499s-29.333 -63.666 -52 -87.999s-49.834 -43.166 -81.501 -56.499s-67.167 -20 -106.5 -20c-38.667 0 -73.834 6.66699 -105.501 20s-58.834 32.166 -81.501 56.499s-40.334 53.666 -53.001 87.999
s-19 72.166 -19 113.499s6.5 79 19.5 113s31 63 54 87s50.333 42.667 82 56s66.167 20 103.5 20c38 0 72.833 -6.66699 104.5 -20s58.834 -32 81.501 -56s40.334 -53 53.001 -87s19 -71.667 19 -113zM410.002 264c0 46 -9.16699 82.167 -27.5 108.5s-44.5 39.5 -78.5 39.5
s-60.333 -13.167 -79 -39.5s-28 -62.5 -28 -108.5s9.33301 -82.5 28 -109.5s45 -40.5 79 -40.5s60.167 13.5 78.5 40.5s27.5 63.5 27.5 109.5zM192.002 602c-20.667 0 -38.667 6.83301 -54 20.5s-23 32.167 -23 55.5s7.66699 41.833 23 55.5s33.333 20.5 54 20.5
s38.667 -6.83301 54 -20.5s23 -32.167 23 -55.5s-7.66699 -41.833 -23 -55.5s-33.333 -20.5 -54 -20.5zM415.002 602c-20.667 0 -38.667 6.83301 -54 20.5s-23 32.167 -23 55.5s7.66699 41.833 23 55.5s33.333 20.5 54 20.5s38.667 -6.83301 54 -20.5s23 -32.167 23 -55.5
s-7.66699 -41.833 -23 -55.5s-33.333 -20.5 -54 -20.5z" />
    <glyph glyph-name="divide" unicode="&#xf7;" horiz-adv-x="568" 
d="M370 501c0 -28 -8.66699 -49 -26 -63s-37 -21 -59 -21s-41.667 7 -59 21s-26 35 -26 63s8.66699 49 26 63s37 21 59 21s41.667 -7 59 -21s26 -35 26 -63zM370 96c0 -28 -8.66699 -49 -26 -63s-37 -21 -59 -21s-41.667 7 -59 21s-26 35 -26 63s8.66699 49 26 63
s37 21 59 21s41.667 -7 59 -21s26 -35 26 -63zM49 361h470v-125h-470v125z" />
    <glyph glyph-name="oslash" unicode="&#xf8;" horiz-adv-x="607" 
d="M562 264c0 -41.333 -5.99805 -79.1689 -17.998 -113.502s-29.333 -63.666 -52 -87.999s-49.834 -43.166 -81.501 -56.499s-67.167 -20 -106.5 -20c-50 0 -94.667 11.333 -134 34l-45 -59l-70 53l49 63c-19.333 24 -34 51.667 -44 83s-15 66 -15 104
c0 41.333 6.5 79 19.5 113s31 63 54 87s50.333 42.667 82 56s66.167 20 103.5 20c24.667 0 48 -2.83301 70 -8.5s42.333 -13.834 61 -24.501l46 59l70 -53l-49 -63c19.333 -23.333 34.166 -50.666 44.499 -81.999s15.5 -66 15.5 -104zM418.002 263.997
c0 22.667 -2.66699 44.667 -8 66l-161 -209c16 -10 34.333 -15 55 -15c36 0 64 14.167 84 42.5s30 66.833 30 115.5zM189.002 263.997c0 -12.667 0.5 -24.499 1.5 -35.499s3.16699 -21.167 6.5 -30.5l160 208c-15.333 9.33301 -33 14 -53 14
c-36 0 -64.167 -13.833 -84.5 -41.5s-30.5 -65.834 -30.5 -114.501z" />
    <glyph glyph-name="ugrave" unicode="&#xf9;" 
d="M519 18c-25.333 -7.33301 -58.001 -14.167 -98.001 -20.5s-82 -9.5 -126 -9.5c-44.667 0 -81.834 6 -111.501 18s-53.167 28.833 -70.5 50.5s-29.666 47.5 -36.999 77.5s-11 63 -11 99v293h149v-275c0 -48 6.33301 -82.667 19 -104s36.334 -32 71.001 -32
c10.667 0 22 0.5 34 1.5s22.667 2.16699 32 3.5v406h149v-508zM238.999 798.999l142 -162l-68 -61l-165 139z" />
    <glyph glyph-name="uacute" unicode="&#xfa;" 
d="M519 18c-25.333 -7.33301 -58.001 -14.167 -98.001 -20.5s-82 -9.5 -126 -9.5c-44.667 0 -81.834 6 -111.501 18s-53.167 28.833 -70.5 50.5s-29.666 47.5 -36.999 77.5s-11 63 -11 99v293h149v-275c0 -48 6.33301 -82.667 19 -104s36.334 -32 71.001 -32
c10.667 0 22 0.5 34 1.5s22.667 2.16699 32 3.5v406h149v-508zM419.999 714.999l-165 -139l-68 61l142 162z" />
    <glyph glyph-name="ucircumflex" unicode="&#xfb;" 
d="M519 18c-25.333 -7.33301 -58.001 -14.167 -98.001 -20.5s-82 -9.5 -126 -9.5c-44.667 0 -81.834 6 -111.501 18s-53.167 28.833 -70.5 50.5s-29.666 47.5 -36.999 77.5s-11 63 -11 99v293h149v-275c0 -48 6.33301 -82.667 19 -104s36.334 -32 71.001 -32
c10.667 0 22 0.5 34 1.5s22.667 2.16699 32 3.5v406h149v-508zM448.999 644.999l-55 -66l-100 77l-100 -77l-57 66l157 137z" />
    <glyph glyph-name="udieresis" unicode="&#xfc;" 
d="M519 18c-25.333 -7.33301 -58.001 -14.167 -98.001 -20.5s-82 -9.5 -126 -9.5c-44.667 0 -81.834 6 -111.501 18s-53.167 28.833 -70.5 50.5s-29.666 47.5 -36.999 77.5s-11 63 -11 99v293h149v-275c0 -48 6.33301 -82.667 19 -104s36.334 -32 71.001 -32
c10.667 0 22 0.5 34 1.5s22.667 2.16699 32 3.5v406h149v-508zM180.999 601.999c-20.667 0 -38.667 6.83301 -54 20.5s-23 32.167 -23 55.5s7.66699 41.833 23 55.5s33.333 20.5 54 20.5s38.667 -6.83301 54 -20.5s23 -32.167 23 -55.5s-7.66699 -41.833 -23 -55.5
s-33.333 -20.5 -54 -20.5zM403.999 601.999c-20.667 0 -38.667 6.83301 -54 20.5s-23 32.167 -23 55.5s7.66699 41.833 23 55.5s33.333 20.5 54 20.5s38.667 -6.83301 54 -20.5s23 -32.167 23 -55.5s-7.66699 -41.833 -23 -55.5s-33.333 -20.5 -54 -20.5z" />
    <glyph glyph-name="yacute" unicode="&#xfd;" horiz-adv-x="547" 
d="M537 526c-30 -101.333 -61.3301 -196.331 -93.9971 -284.998s-68.334 -174.667 -107.001 -258c-14 -30 -28 -55.5 -42 -76.5s-29.333 -38.333 -46 -52s-35.5 -23.667 -56.5 -30s-45.5 -9.5 -73.5 -9.5c-23.333 0 -44.833 2.16699 -64.5 6.5
s-35.834 9.16602 -48.501 14.499l26 119c15.333 -5.33301 29 -9 41 -11s24.667 -3 38 -3c26.667 0 47.167 7.16699 61.5 21.5s26.5 34.166 36.5 59.499c-34 66.667 -68 141.5 -102 224.5s-66 176.167 -96 279.5h158c6.66699 -26 14.5 -54.167 23.5 -84.5s18.5 -61 28.5 -92
s20.167 -61.167 30.5 -90.5s20.166 -56 29.499 -80c8.66699 24 17.667 50.667 27 80s18.5 59.5 27.5 90.5s17.667 61.667 26 92s15.833 58.5 22.5 84.5h154zM430.003 715.002l-165 -139l-68 61l142 162z" />
    <glyph glyph-name="thorn" unicode="&#xfe;" horiz-adv-x="604" 
d="M559 263c0 -40.667 -5.00098 -77.667 -15.001 -111s-24.667 -62 -44 -86s-43.333 -42.667 -72 -56s-61.667 -20 -99 -20c-20.667 0 -40 2 -58 6s-35.333 9.66699 -52 17v-198h-149v937l149 24v-248c11.333 3.33301 24 5.83301 38 7.5s26.333 2.5 37 2.5
c40.667 0 77.334 -6.5 110.001 -19.5s60.5 -31.333 83.5 -55s40.667 -52.5 53 -86.5s18.5 -72 18.5 -114zM406.999 259c0 46 -10.167 82.834 -30.5 110.501s-49.5 41.5 -87.5 41.5c-13.333 0 -26.5 -0.833008 -39.5 -2.5s-23.167 -3.83398 -30.5 -6.50098v-265
c9.33301 -6 21.5 -11 36.5 -15s30.167 -6 45.5 -6c70.667 0 106 47.667 106 143z" />
    <glyph glyph-name="ydieresis" unicode="&#xff;" horiz-adv-x="547" 
d="M537 526c-30 -101.333 -61.3301 -196.331 -93.9971 -284.998s-68.334 -174.667 -107.001 -258c-14 -30 -28 -55.5 -42 -76.5s-29.333 -38.333 -46 -52s-35.5 -23.667 -56.5 -30s-45.5 -9.5 -73.5 -9.5c-23.333 0 -44.833 2.16699 -64.5 6.5
s-35.834 9.16602 -48.501 14.499l26 119c15.333 -5.33301 29 -9 41 -11s24.667 -3 38 -3c26.667 0 47.167 7.16699 61.5 21.5s26.5 34.166 36.5 59.499c-34 66.667 -68 141.5 -102 224.5s-66 176.167 -96 279.5h158c6.66699 -26 14.5 -54.167 23.5 -84.5s18.5 -61 28.5 -92
s20.167 -61.167 30.5 -90.5s20.166 -56 29.499 -80c8.66699 24 17.667 50.667 27 80s18.5 59.5 27.5 90.5s17.667 61.667 26 92s15.833 58.5 22.5 84.5h154zM165.003 602.002c-20.667 0 -38.667 6.83301 -54 20.5s-23 32.167 -23 55.5s7.66699 41.833 23 55.5
s33.333 20.5 54 20.5s38.667 -6.83301 54 -20.5s23 -32.167 23 -55.5s-7.66699 -41.833 -23 -55.5s-33.333 -20.5 -54 -20.5zM388.003 602.002c-20.667 0 -38.667 6.83301 -54 20.5s-23 32.167 -23 55.5s7.66699 41.833 23 55.5s33.333 20.5 54 20.5
s38.667 -6.83301 54 -20.5s23 -32.167 23 -55.5s-7.66699 -41.833 -23 -55.5s-33.333 -20.5 -54 -20.5z" />
    <glyph glyph-name="Amacron" unicode="&#x100;" horiz-adv-x="721" 
d="M544 0c-7.33301 24 -15.498 48.667 -24.498 74s-17.833 50.666 -26.5 75.999h-270c-8.66699 -25.333 -17.5 -50.666 -26.5 -75.999s-17.167 -50 -24.5 -74h-162c26 74.667 50.667 143.667 74 207s46.166 123 68.499 179s44.333 109.167 66 159.5s44.167 99.5 67.5 147.5
h149c22.667 -48 45 -97.167 67 -147.5s44.167 -103.5 66.5 -159.5s45.166 -115.667 68.499 -179s48 -132.333 74 -207h-167zM357.002 536c-3.33301 -10 -8.33203 -23.667 -14.999 -41s-14.334 -37.333 -23.001 -60s-18.167 -47.667 -28.5 -75s-20.833 -56 -31.5 -86h197
c-10.667 30 -21 58.667 -31 86s-19.5 52.333 -28.5 75s-16.833 42.667 -23.5 60s-12 31 -16 41zM199.003 878h322v-102h-322v102z" />
    <glyph glyph-name="amacron" unicode="&#x101;" horiz-adv-x="553" 
d="M271 104c14.667 0 28.665 0.334961 41.998 1.00195s24 1.66699 32 3v113c-6 1.33301 -15 2.66602 -27 3.99902s-23 2 -33 2c-14 0 -27.167 -0.833008 -39.5 -2.5s-23.166 -4.83398 -32.499 -9.50098s-16.666 -11 -21.999 -19s-8 -18 -8 -30
c0 -23.333 7.83301 -39.5 23.5 -48.5s37.167 -13.5 64.5 -13.5zM258.998 540.002c44 0 80.665 -4.99609 109.998 -14.9961s52.833 -24.333 70.5 -43s30.167 -41.334 37.5 -68.001s11 -56.334 11 -89.001v-310c-21.333 -4.66699 -51 -10.167 -89 -16.5s-84 -9.5 -138 -9.5
c-34 0 -64.833 3 -92.5 9s-51.5 15.833 -71.5 29.5s-35.333 31.5 -46 53.5s-16 49 -16 81c0 30.667 6.16699 56.667 18.5 78s28.833 38.333 49.5 51s44.334 21.834 71.001 27.501s54.334 8.5 83.001 8.5c19.333 0 36.5 -0.833008 51.5 -2.5s27.167 -3.83398 36.5 -6.50098
v14c0 25.333 -7.66699 45.666 -23 60.999s-42 23 -80 23c-25.333 0 -50.333 -1.83301 -75 -5.5s-46 -8.83398 -64 -15.501l-19 120c8.66699 2.66699 19.5 5.5 32.5 8.5s27.167 5.66699 42.5 8s31.5 4.33301 48.5 6s34.167 2.5 51.5 2.5zM110.996 725.006h322v-102h-322v102z
" />
    <glyph glyph-name="Abreve" unicode="&#x102;" horiz-adv-x="721" 
d="M544 0c-7.33301 24 -15.498 48.667 -24.498 74s-17.833 50.666 -26.5 75.999h-270c-8.66699 -25.333 -17.5 -50.666 -26.5 -75.999s-17.167 -50 -24.5 -74h-162c26 74.667 50.667 143.667 74 207s46.166 123 68.499 179s44.333 109.167 66 159.5s44.167 99.5 67.5 147.5
h149c22.667 -48 45 -97.167 67 -147.5s44.167 -103.5 66.5 -159.5s45.166 -115.667 68.499 -179s48 -132.333 74 -207h-167zM357.002 536c-3.33301 -10 -8.33203 -23.667 -14.999 -41s-14.334 -37.333 -23.001 -60s-18.167 -47.667 -28.5 -75s-20.833 -56 -31.5 -86h197
c-10.667 30 -21 58.667 -31 86s-19.5 52.333 -28.5 75s-16.833 42.667 -23.5 60s-12 31 -16 41zM370.003 751c-23.333 0 -44.835 3.66699 -64.502 11s-36.667 17.666 -51 30.999s-25.666 29.833 -33.999 49.5s-12.5 41.834 -12.5 66.501v8h101
c2 -28 8.66699 -46.833 20 -56.5s25 -14.5 41 -14.5s29.667 4.83301 41 14.5s18 28.5 20 56.5h101v-8c0 -24.667 -4.16699 -46.834 -12.5 -66.501s-19.666 -36.167 -33.999 -49.5s-31.5 -23.666 -51.5 -30.999s-41.333 -11 -64 -11z" />
    <glyph glyph-name="abreve" unicode="&#x103;" horiz-adv-x="553" 
d="M271 104c14.667 0 28.665 0.334961 41.998 1.00195s24 1.66699 32 3v113c-6 1.33301 -15 2.66602 -27 3.99902s-23 2 -33 2c-14 0 -27.167 -0.833008 -39.5 -2.5s-23.166 -4.83398 -32.499 -9.50098s-16.666 -11 -21.999 -19s-8 -18 -8 -30
c0 -23.333 7.83301 -39.5 23.5 -48.5s37.167 -13.5 64.5 -13.5zM258.998 540.002c44 0 80.665 -4.99609 109.998 -14.9961s52.833 -24.333 70.5 -43s30.167 -41.334 37.5 -68.001s11 -56.334 11 -89.001v-310c-21.333 -4.66699 -51 -10.167 -89 -16.5s-84 -9.5 -138 -9.5
c-34 0 -64.833 3 -92.5 9s-51.5 15.833 -71.5 29.5s-35.333 31.5 -46 53.5s-16 49 -16 81c0 30.667 6.16699 56.667 18.5 78s28.833 38.333 49.5 51s44.334 21.834 71.001 27.501s54.334 8.5 83.001 8.5c19.333 0 36.5 -0.833008 51.5 -2.5s27.167 -3.83398 36.5 -6.50098
v14c0 25.333 -7.66699 45.666 -23 60.999s-42 23 -80 23c-25.333 0 -50.333 -1.83301 -75 -5.5s-46 -8.83398 -64 -15.501l-19 120c8.66699 2.66699 19.5 5.5 32.5 8.5s27.167 5.66699 42.5 8s31.5 4.33301 48.5 6s34.167 2.5 51.5 2.5zM276.996 598.006
c-23.333 0 -44.835 3.66699 -64.502 11s-36.667 17.666 -51 30.999s-25.666 29.833 -33.999 49.5s-12.5 41.834 -12.5 66.501v8h101c2 -28 8.66699 -46.833 20 -56.5s25 -14.5 41 -14.5s29.667 4.83301 41 14.5s18 28.5 20 56.5h101v-8
c0 -24.667 -4.16699 -46.834 -12.5 -66.501s-19.666 -36.167 -33.999 -49.5s-31.5 -23.666 -51.5 -30.999s-41.333 -11 -64 -11z" />
    <glyph glyph-name="Aogonek" unicode="&#x104;" horiz-adv-x="721" 
d="M632 -221c-44.667 0 -76.6641 8.33301 -95.9971 25s-29 38.667 -29 66c0 14 3 27.667 9 41s14 26.333 24 39c8 10 16.5 19.167 25.5 27.5s17.833 15.833 26.5 22.5h-48c-7.33301 24 -15.5 48.667 -24.5 74s-17.833 50.666 -26.5 75.999h-270
c-8.66699 -25.333 -17.5 -50.666 -26.5 -75.999s-17.167 -50 -24.5 -74h-162c26 74.667 50.667 143.667 74 207s46.166 123 68.499 179s44.333 109.167 66 159.5s44.167 99.5 67.5 147.5h149c22.667 -47.333 44.834 -95.833 66.501 -145.5s43.667 -102.334 66 -158.001
s45.166 -115.5 68.499 -179.5s48.333 -134 75 -210c-7.33301 -5.33301 -14.833 -11.666 -22.5 -18.999s-15.167 -14.666 -22.5 -21.999c-8.66699 -8.66699 -15.5 -16.834 -20.5 -24.501s-7.5 -15.167 -7.5 -22.5s2.16699 -13.333 6.5 -18s12.166 -7 23.499 -7
c6 0 13.167 0.5 21.5 1.5s18.166 3.16699 29.499 6.5l12 -100c-13.333 -5.33301 -29.333 -9.33301 -48 -12s-35.667 -4 -51 -4zM357.003 536c-3.33301 -10 -8.33203 -23.667 -14.999 -41s-14.334 -37.333 -23.001 -60s-18.167 -47.667 -28.5 -75s-20.833 -56 -31.5 -86h197
c-10.667 30 -21 58.667 -31 86s-19.5 52.333 -28.5 75s-16.833 42.667 -23.5 60s-12 31 -16 41z" />
    <glyph glyph-name="aogonek" unicode="&#x105;" horiz-adv-x="553" 
d="M271 104c14.667 0 28.665 0.334961 41.998 1.00195s24 1.66699 32 3v113c-6 1.33301 -15 2.66602 -27 3.99902s-23 2 -33 2c-14 0 -27.167 -0.833008 -39.5 -2.5s-23.166 -4.83398 -32.499 -9.50098s-16.666 -11 -21.999 -19s-8 -18 -8 -30
c0 -23.333 7.83301 -39.5 23.5 -48.5s37.167 -13.5 64.5 -13.5zM258.998 540.002c44 0 80.667 -4.99805 110 -14.998s52.833 -24.333 70.5 -43s30.167 -41.334 37.5 -68.001s11 -56.334 11 -89.001v-310c-6.66699 -5.33301 -16 -13.166 -28 -23.499
s-23.667 -21.166 -35 -32.499c-8.66699 -8.66699 -15.5 -16.834 -20.5 -24.501s-7.5 -15.167 -7.5 -22.5s2.16699 -13.333 6.5 -18s12.166 -7 23.499 -7c6 0 13.167 0.5 21.5 1.5s18.166 3.16699 29.499 6.5l12 -100c-13.333 -5.33301 -29.333 -9.33301 -48 -12
s-35.667 -4 -51 -4c-44.667 0 -76.667 8.33301 -96 25s-29 38.667 -29 66c0 14 3 27.667 9 41s14 26.333 24 39c12 15.333 25.667 29.333 41 42c-11.333 -1.33301 -24 -2.16602 -38 -2.49902s-27.667 -0.5 -41 -0.5c-34 0 -64.833 3 -92.5 9s-51.5 15.833 -71.5 29.5
s-35.333 31.5 -46 53.5s-16 49 -16 81c0 30.667 6.16699 56.667 18.5 78s28.833 38.333 49.5 51s44.334 21.834 71.001 27.501s54.334 8.5 83.001 8.5c19.333 0 36.5 -0.833008 51.5 -2.5s27.167 -3.83398 36.5 -6.50098v14c0 25.333 -7.66699 45.666 -23 60.999
s-42 23 -80 23c-25.333 0 -50.333 -1.83301 -75 -5.5s-46 -8.83398 -64 -15.501l-19 120c8.66699 2.66699 19.5 5.5 32.5 8.5s27.167 5.66699 42.5 8s31.5 4.33301 48.5 6s34.167 2.5 51.5 2.5z" />
    <glyph glyph-name="Cacute" unicode="&#x106;" horiz-adv-x="648" 
d="M396 -14c-112.667 0 -198.5 31.3311 -257.5 93.998s-88.5 151.667 -88.5 267c0 57.333 9 108.5 27 153.5s42.667 83 74 114s68.666 54.5 111.999 70.5s90.333 24 141 24c29.333 0 56 -2.16699 80 -6.5s45 -9.33301 63 -15s33 -11.5 45 -17.5s20.667 -10.667 26 -14
l-45 -126c-21.333 11.333 -46.166 21 -74.499 29s-60.5 12 -96.5 12c-24 0 -47.5 -4 -70.5 -12s-43.333 -20.833 -61 -38.5s-31.834 -40.5 -42.501 -68.5s-16 -62 -16 -102c0 -32 3.5 -61.833 10.5 -89.5s18.333 -51.5 34 -71.5s36.167 -35.833 61.5 -47.5
s56 -17.5 92 -17.5c22.667 0 43 1.33301 61 4s34 5.83398 48 9.50098s26.333 7.83398 37 12.501s20.334 9 29.001 13l43 -125c-22 -13.333 -53 -25.333 -93 -36s-86.333 -16 -139 -16zM519 874.998l-165 -139l-68 61l142 162z" />
    <glyph glyph-name="cacute" unicode="&#x107;" horiz-adv-x="500" 
d="M45 263c0 38 6.16895 73.832 18.502 107.499s30.166 63 53.499 88s51.666 44.833 84.999 59.5s71.333 22 114 22c28 0 53.667 -2.5 77 -7.5s46 -12.167 68 -21.5l-31 -119c-14 5.33301 -29.333 10 -46 14s-35.334 6 -56.001 6c-44 0 -76.833 -13.667 -98.5 -41
s-32.5 -63.333 -32.5 -108c0 -47.333 10.167 -84 30.5 -110s55.833 -39 106.5 -39c18 0 37.333 1.66699 58 5s39.667 8.66602 57 15.999l21 -122c-17.333 -7.33301 -39 -13.666 -65 -18.999s-54.667 -8 -86 -8c-48 0 -89.333 7.16699 -124 21.5s-63.167 33.833 -85.5 58.5
s-38.666 53.834 -48.999 87.501s-15.5 70.167 -15.5 109.5zM433.002 714.999l-165 -139l-68 61l142 162z" />
    <glyph glyph-name="Ccircumflex" unicode="&#x108;" horiz-adv-x="648" 
d="M396 -14c-112.667 0 -198.5 31.3311 -257.5 93.998s-88.5 151.667 -88.5 267c0 57.333 9 108.5 27 153.5s42.667 83 74 114s68.666 54.5 111.999 70.5s90.333 24 141 24c29.333 0 56 -2.16699 80 -6.5s45 -9.33301 63 -15s33 -11.5 45 -17.5s20.667 -10.667 26 -14
l-45 -126c-21.333 11.333 -46.166 21 -74.499 29s-60.5 12 -96.5 12c-24 0 -47.5 -4 -70.5 -12s-43.333 -20.833 -61 -38.5s-31.834 -40.5 -42.501 -68.5s-16 -62 -16 -102c0 -32 3.5 -61.833 10.5 -89.5s18.333 -51.5 34 -71.5s36.167 -35.833 61.5 -47.5
s56 -17.5 92 -17.5c22.667 0 43 1.33301 61 4s34 5.83398 48 9.50098s26.333 7.83398 37 12.501s20.334 9 29.001 13l43 -125c-22 -13.333 -53 -25.333 -93 -36s-86.333 -16 -139 -16zM549 810.998l-55 -66l-100 77l-100 -77l-57 66l157 137z" />
    <glyph glyph-name="ccircumflex" unicode="&#x109;" horiz-adv-x="500" 
d="M45 263c0 38 6.16895 73.832 18.502 107.499s30.166 63 53.499 88s51.666 44.833 84.999 59.5s71.333 22 114 22c28 0 53.667 -2.5 77 -7.5s46 -12.167 68 -21.5l-31 -119c-14 5.33301 -29.333 10 -46 14s-35.334 6 -56.001 6c-44 0 -76.833 -13.667 -98.5 -41
s-32.5 -63.333 -32.5 -108c0 -47.333 10.167 -84 30.5 -110s55.833 -39 106.5 -39c18 0 37.333 1.66699 58 5s39.667 8.66602 57 15.999l21 -122c-17.333 -7.33301 -39 -13.666 -65 -18.999s-54.667 -8 -86 -8c-48 0 -89.333 7.16699 -124 21.5s-63.167 33.833 -85.5 58.5
s-38.666 53.834 -48.999 87.501s-15.5 70.167 -15.5 109.5zM454.002 644.999l-55 -66l-100 77l-100 -77l-57 66l157 137z" />
    <glyph glyph-name="Cdotaccent" unicode="&#x10a;" horiz-adv-x="648" 
d="M396 -14c-112.667 0 -198.5 31.3311 -257.5 93.998s-88.5 151.667 -88.5 267c0 57.333 9 108.5 27 153.5s42.667 83 74 114s68.666 54.5 111.999 70.5s90.333 24 141 24c29.333 0 56 -2.16699 80 -6.5s45 -9.33301 63 -15s33 -11.5 45 -17.5s20.667 -10.667 26 -14
l-45 -126c-21.333 11.333 -46.166 21 -74.499 29s-60.5 12 -96.5 12c-24 0 -47.5 -4 -70.5 -12s-43.333 -20.833 -61 -38.5s-31.834 -40.5 -42.501 -68.5s-16 -62 -16 -102c0 -32 3.5 -61.833 10.5 -89.5s18.333 -51.5 34 -71.5s36.167 -35.833 61.5 -47.5
s56 -17.5 92 -17.5c22.667 0 43 1.33301 61 4s34 5.83398 48 9.50098s26.333 7.83398 37 12.501s20.334 9 29.001 13l43 -125c-22 -13.333 -53 -25.333 -93 -36s-86.333 -16 -139 -16zM392 759.998c-21.333 0 -39.833 7 -55.5 21s-23.5 33 -23.5 57s7.83301 43 23.5 57
s34.167 21 55.5 21s39.833 -7 55.5 -21s23.5 -33 23.5 -57s-7.83301 -43 -23.5 -57s-34.167 -21 -55.5 -21z" />
    <glyph glyph-name="cdotaccent" unicode="&#x10b;" horiz-adv-x="500" 
d="M45 263c0 38 6.16895 73.832 18.502 107.499s30.166 63 53.499 88s51.666 44.833 84.999 59.5s71.333 22 114 22c28 0 53.667 -2.5 77 -7.5s46 -12.167 68 -21.5l-31 -119c-14 5.33301 -29.333 10 -46 14s-35.334 6 -56.001 6c-44 0 -76.833 -13.667 -98.5 -41
s-32.5 -63.333 -32.5 -108c0 -47.333 10.167 -84 30.5 -110s55.833 -39 106.5 -39c18 0 37.333 1.66699 58 5s39.667 8.66602 57 15.999l21 -122c-17.333 -7.33301 -39 -13.666 -65 -18.999s-54.667 -8 -86 -8c-48 0 -89.333 7.16699 -124 21.5s-63.167 33.833 -85.5 58.5
s-38.666 53.834 -48.999 87.501s-15.5 70.167 -15.5 109.5zM300.002 599.999c-21.333 0 -39.833 7 -55.5 21s-23.5 33 -23.5 57s7.83301 43 23.5 57s34.167 21 55.5 21s39.833 -7 55.5 -21s23.5 -33 23.5 -57s-7.83301 -43 -23.5 -57s-34.167 -21 -55.5 -21z" />
    <glyph glyph-name="Ccaron" unicode="&#x10c;" horiz-adv-x="648" 
d="M396 -14c-112.667 0 -198.5 31.3311 -257.5 93.998s-88.5 151.667 -88.5 267c0 57.333 9 108.5 27 153.5s42.667 83 74 114s68.666 54.5 111.999 70.5s90.333 24 141 24c29.333 0 56 -2.16699 80 -6.5s45 -9.33301 63 -15s33 -11.5 45 -17.5s20.667 -10.667 26 -14
l-45 -126c-21.333 11.333 -46.166 21 -74.499 29s-60.5 12 -96.5 12c-24 0 -47.5 -4 -70.5 -12s-43.333 -20.833 -61 -38.5s-31.834 -40.5 -42.501 -68.5s-16 -62 -16 -102c0 -32 3.5 -61.833 10.5 -89.5s18.333 -51.5 34 -71.5s36.167 -35.833 61.5 -47.5
s56 -17.5 92 -17.5c22.667 0 43 1.33301 61 4s34 5.83398 48 9.50098s26.333 7.83398 37 12.501s20.334 9 29.001 13l43 -125c-22 -13.333 -53 -25.333 -93 -36s-86.333 -16 -139 -16zM236 883.998l55 66l100 -77l100 77l57 -66l-157 -137z" />
    <glyph glyph-name="ccaron" unicode="&#x10d;" horiz-adv-x="500" 
d="M45 263c0 38 6.16895 73.832 18.502 107.499s30.166 63 53.499 88s51.666 44.833 84.999 59.5s71.333 22 114 22c28 0 53.667 -2.5 77 -7.5s46 -12.167 68 -21.5l-31 -119c-14 5.33301 -29.333 10 -46 14s-35.334 6 -56.001 6c-44 0 -76.833 -13.667 -98.5 -41
s-32.5 -63.333 -32.5 -108c0 -47.333 10.167 -84 30.5 -110s55.833 -39 106.5 -39c18 0 37.333 1.66699 58 5s39.667 8.66602 57 15.999l21 -122c-17.333 -7.33301 -39 -13.666 -65 -18.999s-54.667 -8 -86 -8c-48 0 -89.333 7.16699 -124 21.5s-63.167 33.833 -85.5 58.5
s-38.666 53.834 -48.999 87.501s-15.5 70.167 -15.5 109.5zM145.002 722.999l55 66l100 -77l100 77l57 -66l-157 -137z" />
    <glyph glyph-name="Dcaron" unicode="&#x10e;" horiz-adv-x="737" 
d="M236 127c7.33301 -0.666992 15.833 -1.16699 25.5 -1.5s21.167 -0.5 34.5 -0.5c78 0 135.833 19.667 173.5 59s56.5 93.666 56.5 162.999c0 72.667 -18 127.667 -54 165s-93 56 -171 56c-10.667 0 -21.667 -0.166992 -33 -0.5s-22 -1.16602 -32 -2.49902v-438zM687 347
c0 -60 -9.33496 -112.33 -28.002 -156.997s-45.167 -81.667 -79.5 -111s-76.166 -51.333 -125.499 -66s-104.666 -22 -165.999 -22c-28 0 -60.667 1.16699 -98 3.5s-74 7.16602 -110 14.499v675c36 6.66699 73.5 11.167 112.5 13.5s72.5 3.5 100.5 3.5
c59.333 0 113.166 -6.66699 161.499 -20s89.833 -34.333 124.5 -63s61.334 -65.334 80.001 -110.001s28 -98.334 28 -161.001zM197.998 884.003l55 66l100 -77l100 77l57 -66l-157 -137z" />
    <glyph glyph-name="dcaron" unicode="&#x10f;" horiz-adv-x="685" 
d="M197 267c0 -46 10.334 -83 31.001 -111s51.334 -42 92.001 -42c13.333 0 25.666 0.5 36.999 1.5s20.666 2.16699 27.999 3.5v271c-9.33301 6 -21.5 11 -36.5 15s-30.167 6 -45.5 6c-70.667 0 -106 -48 -106 -144zM534.001 17c-13.333 -4 -28.668 -7.83301 -46.001 -11.5
s-35.5 -6.83398 -54.5 -9.50098s-38.333 -4.83398 -58 -6.50098s-38.5 -2.5 -56.5 -2.5c-43.333 0 -82 6.33301 -116 19s-62.667 30.834 -86 54.501s-41.166 52.334 -53.499 86.001s-18.5 71.5 -18.5 113.5c0 42.667 5.33301 81.167 16 115.5s26 63.5 46 87.5
s44.5 42.333 73.5 55s62.167 19 99.5 19c20.667 0 39.167 -2 55.5 -6s32.833 -9.66699 49.5 -17v238l149 24v-759zM724.999 776l-33 -244h-89v244h122z" />
    <glyph glyph-name="Dcroat" unicode="&#x110;" horiz-adv-x="748" 
d="M247 127c7.33301 -0.666992 15.833 -1.16699 25.5 -1.5s21.167 -0.5 34.5 -0.5c78 0 135.833 19.667 173.5 59s56.5 93.666 56.5 162.999c0 72.667 -18 127.667 -54 165s-93 56 -171 56c-10.667 0 -21.667 -0.166992 -33 -0.5s-22 -1.16602 -32 -2.49902v-148h126v-115
h-126v-175zM698 347c0 -60 -9.33496 -112.33 -28.002 -156.997s-45.167 -81.667 -79.5 -111s-76.166 -51.333 -125.499 -66s-104.666 -22 -165.999 -22c-28 0 -60.667 1.16699 -98 3.5s-74 7.16602 -110 14.499v293h-81v115h81v267c36 6.66699 73.5 11.167 112.5 13.5
s72.5 3.5 100.5 3.5c59.333 0 113.166 -6.66699 161.499 -20s89.833 -34.333 124.5 -63s61.334 -65.334 80.001 -110.001s28 -98.334 28 -161.001z" />
    <glyph glyph-name="dcroat" unicode="&#x111;" horiz-adv-x="606" 
d="M534 689l61.998 0.00195312v-93h-62v-579c-13.333 -4 -28.666 -7.83301 -45.999 -11.5s-35.5 -6.83398 -54.5 -9.50098s-38.333 -4.83398 -58 -6.50098s-38.5 -2.5 -56.5 -2.5c-43.333 0 -82 6.33301 -116 19s-62.667 30.667 -86 54s-41.166 51.333 -53.499 84
s-18.5 69 -18.5 109c0 40.667 5.33301 77.5 16 110.5s26 61.333 46 85s44.5 42 73.5 55s62.167 19.5 99.5 19.5c20.667 0 39.167 -2 55.5 -6s32.833 -9.66699 49.5 -17v96h-143v93h143v63l149 24v-87zM196.998 260.002c0 -42 10.499 -76.833 31.499 -104.5
s51.5 -41.5 91.5 -41.5c26.667 0 48.334 1.66699 65.001 5v257c-9.33301 6 -21.5 11 -36.5 15s-30.167 6 -45.5 6c-36 0 -62.667 -11.833 -80 -35.5s-26 -57.5 -26 -101.5z" />
    <glyph glyph-name="Emacron" unicode="&#x112;" horiz-adv-x="606" 
d="M80 0v693h468v-131h-312v-136h277v-128h-277v-167h335v-131h-491zM155 878h322v-102h-322v102z" />
    <glyph glyph-name="emacron" unicode="&#x113;" horiz-adv-x="584" 
d="M45 259c0 46.667 7.17188 87.502 21.5049 122.502s33.166 64.167 56.499 87.5s50.166 41 80.499 53s61.5 18 93.5 18c74.667 0 133.667 -22.833 177 -68.5s65 -112.834 65 -201.501c0 -8.66699 -0.333008 -18.167 -1 -28.5s-1.33398 -19.5 -2.00098 -27.5h-338
c3.33301 -30.667 17.666 -55 42.999 -73s59.333 -27 102 -27c27.333 0 54.166 2.5 80.499 7.5s47.833 11.167 64.5 18.5l20 -121c-8 -4 -18.667 -8 -32 -12s-28.166 -7.5 -44.499 -10.5s-33.833 -5.5 -52.5 -7.5s-37.334 -3 -56.001 -3c-47.333 0 -88.5 7 -123.5 21
s-64 33.167 -87 57.5s-40 53.166 -51 86.499s-16.5 69.333 -16.5 108zM395.005 316.002c-0.666992 12.667 -2.83105 24.999 -6.49805 36.999s-9.33398 22.667 -17.001 32s-17.334 17 -29.001 23s-26.167 9 -43.5 9c-16.667 0 -31 -2.83301 -43 -8.5s-22 -13.167 -30 -22.5
s-14.167 -20.166 -18.5 -32.499s-7.5 -24.833 -9.5 -37.5h197zM131.008 725.001h322v-102h-322v102z" />
    <glyph glyph-name="Ebreve" unicode="&#x114;" horiz-adv-x="606" 
d="M80 0v693h468v-131h-312v-136h277v-128h-277v-167h335v-131h-491zM320 751c-23.333 0 -44.835 3.66699 -64.502 11s-36.667 17.666 -51 30.999s-25.666 29.833 -33.999 49.5s-12.5 41.834 -12.5 66.501v8h101c2 -28 8.66699 -46.833 20 -56.5s25 -14.5 41 -14.5
s29.667 4.83301 41 14.5s18 28.5 20 56.5h101v-8c0 -24.667 -4.16699 -46.834 -12.5 -66.501s-19.666 -36.167 -33.999 -49.5s-31.5 -23.666 -51.5 -30.999s-41.333 -11 -64 -11z" />
    <glyph glyph-name="ebreve" unicode="&#x115;" horiz-adv-x="584" 
d="M45 259c0 46.667 7.17188 87.502 21.5049 122.502s33.166 64.167 56.499 87.5s50.166 41 80.499 53s61.5 18 93.5 18c74.667 0 133.667 -22.833 177 -68.5s65 -112.834 65 -201.501c0 -8.66699 -0.333008 -18.167 -1 -28.5s-1.33398 -19.5 -2.00098 -27.5h-338
c3.33301 -30.667 17.666 -55 42.999 -73s59.333 -27 102 -27c27.333 0 54.166 2.5 80.499 7.5s47.833 11.167 64.5 18.5l20 -121c-8 -4 -18.667 -8 -32 -12s-28.166 -7.5 -44.499 -10.5s-33.833 -5.5 -52.5 -7.5s-37.334 -3 -56.001 -3c-47.333 0 -88.5 7 -123.5 21
s-64 33.167 -87 57.5s-40 53.166 -51 86.499s-16.5 69.333 -16.5 108zM395.005 316.002c-0.666992 12.667 -2.83105 24.999 -6.49805 36.999s-9.33398 22.667 -17.001 32s-17.334 17 -29.001 23s-26.167 9 -43.5 9c-16.667 0 -31 -2.83301 -43 -8.5s-22 -13.167 -30 -22.5
s-14.167 -20.166 -18.5 -32.499s-7.5 -24.833 -9.5 -37.5h197zM292.008 598.001c-23.333 0 -44.835 3.66699 -64.502 11s-36.667 17.666 -51 30.999s-25.666 29.833 -33.999 49.5s-12.5 41.834 -12.5 66.501v8h101c2 -28 8.66699 -46.833 20 -56.5s25 -14.5 41 -14.5
s29.667 4.83301 41 14.5s18 28.5 20 56.5h101v-8c0 -24.667 -4.16699 -46.834 -12.5 -66.501s-19.666 -36.167 -33.999 -49.5s-31.5 -23.666 -51.5 -30.999s-41.333 -11 -64 -11z" />
    <glyph glyph-name="Edotaccent" unicode="&#x116;" horiz-adv-x="606" 
d="M80 0v693h468v-131h-312v-136h277v-128h-277v-167h335v-131h-491zM323 760c-21.333 0 -39.833 7 -55.5 21s-23.5 33 -23.5 57s7.83301 43 23.5 57s34.167 21 55.5 21s39.833 -7 55.5 -21s23.5 -33 23.5 -57s-7.83301 -43 -23.5 -57s-34.167 -21 -55.5 -21z" />
    <glyph glyph-name="edotaccent" unicode="&#x117;" horiz-adv-x="584" 
d="M45 259c0 46.667 7.17188 87.502 21.5049 122.502s33.166 64.167 56.499 87.5s50.166 41 80.499 53s61.5 18 93.5 18c74.667 0 133.667 -22.833 177 -68.5s65 -112.834 65 -201.501c0 -8.66699 -0.333008 -18.167 -1 -28.5s-1.33398 -19.5 -2.00098 -27.5h-338
c3.33301 -30.667 17.666 -55 42.999 -73s59.333 -27 102 -27c27.333 0 54.166 2.5 80.499 7.5s47.833 11.167 64.5 18.5l20 -121c-8 -4 -18.667 -8 -32 -12s-28.166 -7.5 -44.499 -10.5s-33.833 -5.5 -52.5 -7.5s-37.334 -3 -56.001 -3c-47.333 0 -88.5 7 -123.5 21
s-64 33.167 -87 57.5s-40 53.166 -51 86.499s-16.5 69.333 -16.5 108zM395.005 316.002c-0.666992 12.667 -2.83105 24.999 -6.49805 36.999s-9.33398 22.667 -17.001 32s-17.334 17 -29.001 23s-26.167 9 -43.5 9c-16.667 0 -31 -2.83301 -43 -8.5s-22 -13.167 -30 -22.5
s-14.167 -20.166 -18.5 -32.499s-7.5 -24.833 -9.5 -37.5h197zM291.008 600.001c-21.333 0 -39.833 7 -55.5 21s-23.5 33 -23.5 57s7.83301 43 23.5 57s34.167 21 55.5 21s39.833 -7 55.5 -21s23.5 -33 23.5 -57s-7.83301 -43 -23.5 -57s-34.167 -21 -55.5 -21z" />
    <glyph glyph-name="Eogonek" unicode="&#x118;" horiz-adv-x="606" 
d="M492 -221c-44.667 0 -76.665 8.33203 -95.998 24.999s-29 38.667 -29 66c0 14 3 27.667 9 41s14 26.333 24 39c8 10 16.5 19.167 25.5 27.5s17.833 15.833 26.5 22.5h-372v693h468v-131h-312v-136h277v-128h-277v-167h335v-131
c-6.66699 -5.33301 -14 -11.666 -22 -18.999s-15.667 -14.666 -23 -21.999c-8.66699 -8.66699 -15.5 -16.834 -20.5 -24.501s-7.5 -15.167 -7.5 -22.5s2.16699 -13.333 6.5 -18s12.166 -7 23.499 -7c6 0 13.167 0.5 21.5 1.5s18.166 3.16699 29.499 6.5l12 -100
c-13.333 -5.33301 -29.333 -9.33301 -48 -12s-35.667 -4 -51 -4z" />
    <glyph glyph-name="eogonek" unicode="&#x119;" horiz-adv-x="584" 
d="M402 -221c-44.667 0 -76.6592 8.33594 -95.9922 25.0029s-29 38.667 -29 66c0 14 3 27.667 9 41s14 26.333 24 39c5.33301 7.33301 11 13.833 17 19.5s12 11.167 18 16.5h-22c-47.333 0 -88.5 7 -123.5 21s-64 33.167 -87 57.5s-40 53.166 -51 86.499
s-16.5 69.333 -16.5 108c0 46.667 7.16699 87.5 21.5 122.5s33.166 64.167 56.499 87.5s50.166 41 80.499 53s61.5 18 93.5 18c74.667 0 133.667 -22.833 177 -68.5s65 -112.834 65 -201.501c0 -8.66699 -0.333008 -18.167 -1 -28.5s-1.33398 -19.5 -2.00098 -27.5h-338
c3.33301 -30.667 17.666 -55 42.999 -73s59.333 -27 102 -27c27.333 0 54.166 2.5 80.499 7.5s47.833 11.167 64.5 18.5l20 -121c-10 -6.66699 -21.833 -15.5 -35.5 -26.5s-25.834 -22.167 -36.501 -33.5c-8.66699 -8.66699 -15.5 -16.834 -20.5 -24.501
s-7.5 -15.167 -7.5 -22.5s2.16699 -13.333 6.5 -18s12.166 -7 23.499 -7c6 0 13.167 0.5 21.5 1.5s18.166 3.16699 29.499 6.5l12 -100c-13.333 -5.33301 -29.333 -9.33301 -48 -12s-35.667 -4 -51 -4zM395.008 316.003c-0.666992 12.667 -2.83105 24.999 -6.49805 36.999
s-9.33398 22.667 -17.001 32s-17.334 17 -29.001 23s-26.167 9 -43.5 9c-16.667 0 -31 -2.83301 -43 -8.5s-22 -13.167 -30 -22.5s-14.167 -20.166 -18.5 -32.499s-7.5 -24.833 -9.5 -37.5h197z" />
    <glyph glyph-name="Ecaron" unicode="&#x11a;" horiz-adv-x="606" 
d="M80 0v693h468v-131h-312v-136h277v-128h-277v-167h335v-131h-491zM162 884l55 66l100 -77l100 77l57 -66l-157 -137z" />
    <glyph glyph-name="ecaron" unicode="&#x11b;" horiz-adv-x="584" 
d="M45 259c0 46.667 7.17188 87.502 21.5049 122.502s33.166 64.167 56.499 87.5s50.166 41 80.499 53s61.5 18 93.5 18c74.667 0 133.667 -22.833 177 -68.5s65 -112.834 65 -201.501c0 -8.66699 -0.333008 -18.167 -1 -28.5s-1.33398 -19.5 -2.00098 -27.5h-338
c3.33301 -30.667 17.666 -55 42.999 -73s59.333 -27 102 -27c27.333 0 54.166 2.5 80.499 7.5s47.833 11.167 64.5 18.5l20 -121c-8 -4 -18.667 -8 -32 -12s-28.166 -7.5 -44.499 -10.5s-33.833 -5.5 -52.5 -7.5s-37.334 -3 -56.001 -3c-47.333 0 -88.5 7 -123.5 21
s-64 33.167 -87 57.5s-40 53.166 -51 86.499s-16.5 69.333 -16.5 108zM395.005 316.002c-0.666992 12.667 -2.83105 24.999 -6.49805 36.999s-9.33398 22.667 -17.001 32s-17.334 17 -29.001 23s-26.167 9 -43.5 9c-16.667 0 -31 -2.83301 -43 -8.5s-22 -13.167 -30 -22.5
s-14.167 -20.166 -18.5 -32.499s-7.5 -24.833 -9.5 -37.5h197zM143.008 723.001l55 66l100 -77l100 77l57 -66l-157 -137z" />
    <glyph glyph-name="Gcircumflex" unicode="&#x11c;" horiz-adv-x="702" 
d="M418 573c-72.667 0 -125.162 -20.168 -157.495 -60.501s-48.5 -95.5 -48.5 -165.5c0 -34 4 -64.833 12 -92.5s20 -51.5 36 -71.5s36 -35.5 60 -46.5s52 -16.5 84 -16.5c17.333 0 32.166 0.333008 44.499 1s23.166 2 32.499 4v241h156v-343
c-18.667 -7.33301 -48.667 -15.166 -90 -23.499s-92.333 -12.5 -153 -12.5c-52 0 -99.167 8 -141.5 24s-78.5 39.333 -108.5 70s-53.167 68.334 -69.5 113.001s-24.5 95.667 -24.5 153c0 58 9 109.333 27 154s42.667 82.5 74 113.5s68.166 54.5 110.499 70.5
s87.5 24 135.5 24c32.667 0 62.167 -2.16699 88.5 -6.5s49 -9.33301 68 -15s34.667 -11.5 47 -17.5s21.166 -10.667 26.499 -14l-45 -125c-21.333 11.333 -45.833 21.166 -73.5 29.499s-57.834 12.5 -90.501 12.5zM548.005 810.999l-55 -66l-100 77l-100 -77l-57 66l157 137
z" />
    <glyph glyph-name="gcircumflex" unicode="&#x11d;" horiz-adv-x="594" 
d="M197 280c0 -83.333 33.668 -125 101.001 -125c15.333 0 29.666 2 42.999 6s24.666 8.66699 33.999 14v238c-7.33301 1.33301 -16 2.5 -26 3.5s-21.667 1.5 -35 1.5c-39.333 0 -68.666 -13 -87.999 -39s-29 -59 -29 -99zM524.001 66
c0 -86 -21.834 -149.834 -65.501 -191.501s-111.167 -62.5 -202.5 -62.5c-32 0 -64 2.83301 -96 8.5s-61.667 13.167 -89 22.5l26 125c23.333 -9.33301 47.833 -16.666 73.5 -21.999s54.834 -8 87.501 -8c42.667 0 72.834 9.33301 90.501 28s26.5 42.667 26.5 72v19
c-16 -7.33301 -32.5 -12.833 -49.5 -16.5s-35.5 -5.5 -55.5 -5.5c-72.667 0 -128.334 21.5 -167.001 64.5s-58 103.167 -58 180.5c0 38.667 6 73.834 18 105.501s29.5 58.834 52.5 81.501s51.167 40.167 84.5 52.5s71 18.5 113 18.5c18 0 36.5 -0.833008 55.5 -2.5
s37.833 -3.83398 56.5 -6.50098s36.5 -5.83398 53.5 -9.50098s32.167 -7.5 45.5 -11.5v-442zM472 644.999l-55 -66l-100 77l-100 -77l-57 66l157 137z" />
    <glyph glyph-name="Gbreve" unicode="&#x11e;" horiz-adv-x="702" 
d="M418 573c-72.667 0 -125.162 -20.168 -157.495 -60.501s-48.5 -95.5 -48.5 -165.5c0 -34 4 -64.833 12 -92.5s20 -51.5 36 -71.5s36 -35.5 60 -46.5s52 -16.5 84 -16.5c17.333 0 32.166 0.333008 44.499 1s23.166 2 32.499 4v241h156v-343
c-18.667 -7.33301 -48.667 -15.166 -90 -23.499s-92.333 -12.5 -153 -12.5c-52 0 -99.167 8 -141.5 24s-78.5 39.333 -108.5 70s-53.167 68.334 -69.5 113.001s-24.5 95.667 -24.5 153c0 58 9 109.333 27 154s42.667 82.5 74 113.5s68.166 54.5 110.499 70.5
s87.5 24 135.5 24c32.667 0 62.167 -2.16699 88.5 -6.5s49 -9.33301 68 -15s34.667 -11.5 47 -17.5s21.166 -10.667 26.499 -14l-45 -125c-21.333 11.333 -45.833 21.166 -73.5 29.499s-57.834 12.5 -90.501 12.5zM389.005 750.999c-23.333 0 -44.835 3.66699 -64.502 11
s-36.667 17.666 -51 30.999s-25.666 29.833 -33.999 49.5s-12.5 41.834 -12.5 66.501v8h101c2 -28 8.66699 -46.833 20 -56.5s25 -14.5 41 -14.5s29.667 4.83301 41 14.5s18 28.5 20 56.5h101v-8c0 -24.667 -4.16699 -46.834 -12.5 -66.501s-19.666 -36.167 -33.999 -49.5
s-31.5 -23.666 -51.5 -30.999s-41.333 -11 -64 -11z" />
    <glyph glyph-name="gbreve" unicode="&#x11f;" horiz-adv-x="594" 
d="M197 280c0 -83.333 33.668 -125 101.001 -125c15.333 0 29.666 2 42.999 6s24.666 8.66699 33.999 14v238c-7.33301 1.33301 -16 2.5 -26 3.5s-21.667 1.5 -35 1.5c-39.333 0 -68.666 -13 -87.999 -39s-29 -59 -29 -99zM524.001 66
c0 -86 -21.834 -149.834 -65.501 -191.501s-111.167 -62.5 -202.5 -62.5c-32 0 -64 2.83301 -96 8.5s-61.667 13.167 -89 22.5l26 125c23.333 -9.33301 47.833 -16.666 73.5 -21.999s54.834 -8 87.501 -8c42.667 0 72.834 9.33301 90.501 28s26.5 42.667 26.5 72v19
c-16 -7.33301 -32.5 -12.833 -49.5 -16.5s-35.5 -5.5 -55.5 -5.5c-72.667 0 -128.334 21.5 -167.001 64.5s-58 103.167 -58 180.5c0 38.667 6 73.834 18 105.501s29.5 58.834 52.5 81.501s51.167 40.167 84.5 52.5s71 18.5 113 18.5c18 0 36.5 -0.833008 55.5 -2.5
s37.833 -3.83398 56.5 -6.50098s36.5 -5.83398 53.5 -9.50098s32.167 -7.5 45.5 -11.5v-442zM317 597.999c-23.333 0 -44.835 3.66699 -64.502 11s-36.667 17.666 -51 30.999s-25.666 29.833 -33.999 49.5s-12.5 41.834 -12.5 66.501v8h101c2 -28 8.66699 -46.833 20 -56.5
s25 -14.5 41 -14.5s29.667 4.83301 41 14.5s18 28.5 20 56.5h101v-8c0 -24.667 -4.16699 -46.834 -12.5 -66.501s-19.666 -36.167 -33.999 -49.5s-31.5 -23.666 -51.5 -30.999s-41.333 -11 -64 -11z" />
    <glyph glyph-name="Gdotaccent" unicode="&#x120;" horiz-adv-x="702" 
d="M418 573c-72.667 0 -125.162 -20.168 -157.495 -60.501s-48.5 -95.5 -48.5 -165.5c0 -34 4 -64.833 12 -92.5s20 -51.5 36 -71.5s36 -35.5 60 -46.5s52 -16.5 84 -16.5c17.333 0 32.166 0.333008 44.499 1s23.166 2 32.499 4v241h156v-343
c-18.667 -7.33301 -48.667 -15.166 -90 -23.499s-92.333 -12.5 -153 -12.5c-52 0 -99.167 8 -141.5 24s-78.5 39.333 -108.5 70s-53.167 68.334 -69.5 113.001s-24.5 95.667 -24.5 153c0 58 9 109.333 27 154s42.667 82.5 74 113.5s68.166 54.5 110.499 70.5
s87.5 24 135.5 24c32.667 0 62.167 -2.16699 88.5 -6.5s49 -9.33301 68 -15s34.667 -11.5 47 -17.5s21.166 -10.667 26.499 -14l-45 -125c-21.333 11.333 -45.833 21.166 -73.5 29.499s-57.834 12.5 -90.501 12.5zM392.005 759.999c-21.333 0 -39.833 7 -55.5 21
s-23.5 33 -23.5 57s7.83301 43 23.5 57s34.167 21 55.5 21s39.833 -7 55.5 -21s23.5 -33 23.5 -57s-7.83301 -43 -23.5 -57s-34.167 -21 -55.5 -21z" />
    <glyph glyph-name="gdotaccent" unicode="&#x121;" horiz-adv-x="594" 
d="M197 280c0 -83.333 33.668 -125 101.001 -125c15.333 0 29.666 2 42.999 6s24.666 8.66699 33.999 14v238c-7.33301 1.33301 -16 2.5 -26 3.5s-21.667 1.5 -35 1.5c-39.333 0 -68.666 -13 -87.999 -39s-29 -59 -29 -99zM524.001 66
c0 -86 -21.834 -149.834 -65.501 -191.501s-111.167 -62.5 -202.5 -62.5c-32 0 -64 2.83301 -96 8.5s-61.667 13.167 -89 22.5l26 125c23.333 -9.33301 47.833 -16.666 73.5 -21.999s54.834 -8 87.501 -8c42.667 0 72.834 9.33301 90.501 28s26.5 42.667 26.5 72v19
c-16 -7.33301 -32.5 -12.833 -49.5 -16.5s-35.5 -5.5 -55.5 -5.5c-72.667 0 -128.334 21.5 -167.001 64.5s-58 103.167 -58 180.5c0 38.667 6 73.834 18 105.501s29.5 58.834 52.5 81.501s51.167 40.167 84.5 52.5s71 18.5 113 18.5c18 0 36.5 -0.833008 55.5 -2.5
s37.833 -3.83398 56.5 -6.50098s36.5 -5.83398 53.5 -9.50098s32.167 -7.5 45.5 -11.5v-442zM306 599.999c-21.333 0 -39.833 7 -55.5 21s-23.5 33 -23.5 57s7.83301 43 23.5 57s34.167 21 55.5 21s39.833 -7 55.5 -21s23.5 -33 23.5 -57s-7.83301 -43 -23.5 -57
s-34.167 -21 -55.5 -21z" />
    <glyph glyph-name="Gcommaaccent" unicode="&#x122;" horiz-adv-x="702" 
d="M418 573c-72.667 0 -125.162 -20.168 -157.495 -60.501s-48.5 -95.5 -48.5 -165.5c0 -34 4 -64.833 12 -92.5s20 -51.5 36 -71.5s36 -35.5 60 -46.5s52 -16.5 84 -16.5c17.333 0 32.166 0.333008 44.499 1s23.166 2 32.499 4v241h156v-343
c-18.667 -7.33301 -48.667 -15.166 -90 -23.499s-92.333 -12.5 -153 -12.5c-52 0 -99.167 8 -141.5 24s-78.5 39.333 -108.5 70s-53.167 68.334 -69.5 113.001s-24.5 95.667 -24.5 153c0 58 9 109.333 27 154s42.667 82.5 74 113.5s68.166 54.5 110.499 70.5
s87.5 24 135.5 24c32.667 0 62.167 -2.16699 88.5 -6.5s49 -9.33301 68 -15s34.667 -11.5 47 -17.5s21.166 -10.667 26.499 -14l-45 -125c-21.333 11.333 -45.833 21.166 -73.5 29.499s-57.834 12.5 -90.501 12.5zM347.005 -52.001l118.001 0.00195312
c1.33301 -7.33301 2.16602 -14.666 2.49902 -21.999s0.5 -12.333 0.5 -15c0 -25.333 -4 -46.333 -12 -63s-18.667 -30 -32 -40s-28.5 -17.167 -45.5 -21.5s-34.5 -6.5 -52.5 -6.5c-10 0 -20 0.666992 -30 2s-17 2.66602 -21 3.99902v84c10 0 19.5 0.666992 28.5 2
s16.667 4.16602 23 8.49902s11.333 10.666 15 18.999s5.5 19.833 5.5 34.5v14z" />
    <glyph glyph-name="gcommaaccent" unicode="&#x123;" horiz-adv-x="594" 
d="M197 280c0 -83.333 33.668 -125 101.001 -125c15.333 0 29.666 2 42.999 6s24.666 8.66699 33.999 14v238c-7.33301 1.33301 -16 2.5 -26 3.5s-21.667 1.5 -35 1.5c-39.333 0 -68.666 -13 -87.999 -39s-29 -59 -29 -99zM524.001 66
c0 -86 -21.834 -149.834 -65.501 -191.501s-111.167 -62.5 -202.5 -62.5c-32 0 -64 2.83301 -96 8.5s-61.667 13.167 -89 22.5l26 125c23.333 -9.33301 47.833 -16.666 73.5 -21.999s54.834 -8 87.501 -8c42.667 0 72.834 9.33301 90.501 28s26.5 42.667 26.5 72v19
c-16 -7.33301 -32.5 -12.833 -49.5 -16.5s-35.5 -5.5 -55.5 -5.5c-72.667 0 -128.334 21.5 -167.001 64.5s-58 103.167 -58 180.5c0 38.667 6 73.834 18 105.501s29.5 58.834 52.5 81.501s51.167 40.167 84.5 52.5s71 18.5 113 18.5c18 0 36.5 -0.833008 55.5 -2.5
s37.833 -3.83398 56.5 -6.50098s36.5 -5.83398 53.5 -9.50098s32.167 -7.5 45.5 -11.5v-442zM367 598.999l-122.001 -0.000976562c-5.33301 55.333 4.33398 98.5 29.001 129.5s60 52.5 106 64.5l49 -68c-20.667 -12.667 -36.167 -27.167 -46.5 -43.5
s-15.5 -39.166 -15.5 -68.499v-14z" />
    <glyph glyph-name="Hcircumflex" unicode="&#x124;" horiz-adv-x="734" 
d="M498 693h156v-693h-156v294h-262v-294h-156v693h156v-265h262v265zM522 811l-55 -66l-100 77l-100 -77l-57 66l157 137z" />
    <glyph glyph-name="hcircumflex" unicode="&#x125;" 
d="M70 0l-0.00195312 751.999l149 24v-252c10 3.33301 22.833 6.5 38.5 9.5s30.834 4.5 45.501 4.5c42.667 0 78.167 -5.83301 106.5 -17.5s51 -28.167 68 -49.5s29 -46.666 36 -75.999s10.5 -62 10.5 -98v-297h-149v279c0 48 -6.16699 82 -18.5 102s-35.166 30 -68.499 30
c-13.333 0 -25.833 -1.16699 -37.5 -3.5s-22.167 -4.83301 -31.5 -7.5v-400h-149zM361.998 854.999l-43 -63l-103 60l-105 -60l-43 63l148 107z" />
    <glyph glyph-name="Hbar" unicode="&#x126;" horiz-adv-x="756" 
d="M10 612h81v81h156v-81h262v81h156v-81h81v-110h-81v-502h-156v284h-262v-284h-156v502h-81v110zM509 502h-262v-84h262v84z" />
    <glyph glyph-name="hbar" unicode="&#x127;" horiz-adv-x="599" 
d="M18 689l61.998 -0.000976562v63l149 24v-87h143v-93h-143v-87c10 3.33301 22.833 6.5 38.5 9.5s30.834 4.5 45.501 4.5c42.667 0 78.167 -5.83301 106.5 -17.5s51 -28.167 68 -49.5s29 -46.666 36 -75.999s10.5 -62 10.5 -98v-282h-149v264c0 48 -6.16699 82 -18.5 102
s-35.166 30 -68.499 30c-13.333 0 -25.833 -1.16699 -37.5 -3.5s-22.167 -4.83301 -31.5 -7.5v-385h-149v596h-62v93z" />
    <glyph glyph-name="Itilde" unicode="&#x128;" horiz-adv-x="316" 
d="M80 693h156v-693h-156v693zM345 872c-4 -10 -9.5 -21 -16.5 -33s-15.5 -23.167 -25.5 -33.5s-21.333 -18.833 -34 -25.5s-26.667 -10 -42 -10c-12 0 -23.167 1.83301 -33.5 5.5s-20.5 7.66699 -30.5 12s-20 8.33301 -30 12s-20.333 5.5 -31 5.5
c-13.333 0 -24.333 -4.33301 -33 -13s-15.667 -18.667 -21 -30l-73 48c4 10 9.5 21 16.5 33s15.5 23.167 25.5 33.5s21.333 18.833 34 25.5s26.667 10 42 10c12 0 23.167 -1.83301 33.5 -5.5s20.5 -7.66699 30.5 -12s19.833 -8.33301 29.5 -12s20.167 -5.5 31.5 -5.5
c13.333 0 24.333 4.33301 33 13s15.667 18.667 21 30z" />
    <glyph glyph-name="itilde" unicode="&#x129;" horiz-adv-x="289" 
d="M219 0h-149v526h149v-526zM331 709c-4 -10 -9.5 -21 -16.5 -33s-15.5 -23.167 -25.5 -33.5s-21.333 -18.833 -34 -25.5s-26.667 -10 -42 -10c-12 0 -23.167 1.83301 -33.5 5.5s-20.5 7.66699 -30.5 12s-20 8.33301 -30 12s-20.333 5.5 -31 5.5
c-13.333 0 -24.333 -4.33301 -33 -13s-15.667 -18.667 -21 -30l-73 48c4 10 9.5 21 16.5 33s15.5 23.167 25.5 33.5s21.333 18.833 34 25.5s26.667 10 42 10c12 0 23.167 -1.83301 33.5 -5.5s20.5 -7.66699 30.5 -12s19.833 -8.33301 29.5 -12s20.167 -5.5 31.5 -5.5
c13.333 0 24.333 4.33301 33 13s15.667 18.667 21 30z" />
    <glyph glyph-name="Imacron" unicode="&#x12a;" horiz-adv-x="316" 
d="M80 693h156v-693h-156v693zM-1 878h322v-102h-322v102z" />
    <glyph glyph-name="imacron" unicode="&#x12b;" horiz-adv-x="289" 
d="M219 0h-149v526h149v-526zM-15 725h322v-102h-322v102z" />
    <glyph glyph-name="Ibreve" unicode="&#x12c;" horiz-adv-x="316" 
d="M80 693h156v-693h-156v693zM170 751c-23.333 0 -44.835 3.66699 -64.502 11s-36.667 17.666 -51 30.999s-25.666 29.833 -33.999 49.5s-12.5 41.834 -12.5 66.501v8h101c2 -28 8.66699 -46.833 20 -56.5s25 -14.5 41 -14.5s29.667 4.83301 41 14.5s18 28.5 20 56.5h101
v-8c0 -24.667 -4.16699 -46.834 -12.5 -66.501s-19.666 -36.167 -33.999 -49.5s-31.5 -23.666 -51.5 -30.999s-41.333 -11 -64 -11z" />
    <glyph glyph-name="ibreve" unicode="&#x12d;" horiz-adv-x="289" 
d="M219 0h-149v526h149v-526zM146 598c-23.333 0 -44.835 3.66699 -64.502 11s-36.667 17.666 -51 30.999s-25.666 29.833 -33.999 49.5s-12.5 41.834 -12.5 66.501v8h101c2 -28 8.66699 -46.833 20 -56.5s25 -14.5 41 -14.5s29.667 4.83301 41 14.5s18 28.5 20 56.5h101v-8
c0 -24.667 -4.16699 -46.834 -12.5 -66.501s-19.666 -36.167 -33.999 -49.5s-31.5 -23.666 -51.5 -30.999s-41.333 -11 -64 -11z" />
    <glyph glyph-name="Iogonek" unicode="&#x12e;" horiz-adv-x="316" 
d="M80 693l156.002 -0.000976562v-693c-6.66699 -5.33301 -14 -11.666 -22 -18.999s-15.667 -14.666 -23 -21.999c-8.66699 -8.66699 -15.5 -16.834 -20.5 -24.501s-7.5 -15.167 -7.5 -22.5s2.16699 -13.333 6.5 -18s12.166 -7 23.499 -7c6 0 13.167 0.5 21.5 1.5
s18.166 3.16699 29.499 6.5l12 -100c-13.333 -5.33301 -29.333 -9.33301 -48 -12s-35.667 -4 -51 -4c-44.667 0 -76.667 8.33301 -96 25s-29 38.667 -29 66c0 14 3 27.667 9 41s14 26.333 24 39c8 10 16.5 19.167 25.5 27.5s17.833 15.833 26.5 22.5h-37v693z" />
    <glyph glyph-name="iogonek" unicode="&#x12f;" horiz-adv-x="289" 
d="M140 -221c-44.667 0 -76.665 8.33203 -95.998 24.999s-29 38.667 -29 66c0 14 3 27.667 9 41s14 26.333 24 39c8 10 16.5 19.167 25.5 27.5s17.833 15.833 26.5 22.5h-30v526h149v-526c-6.66699 -5.33301 -14 -11.666 -22 -18.999s-15.667 -14.666 -23 -21.999
c-8.66699 -8.66699 -15.5 -16.834 -20.5 -24.501s-7.5 -15.167 -7.5 -22.5s2.16699 -13.333 6.5 -18s12.166 -7 23.499 -7c6 0 13.167 0.5 21.5 1.5s18.166 3.16699 29.499 6.5l12 -100c-13.333 -5.33301 -29.333 -9.33301 -48 -12s-35.667 -4 -51 -4zM233.002 677.999
c0 -27.333 -8.83301 -48.833 -26.5 -64.5s-38.5 -23.5 -62.5 -23.5s-44.833 7.83301 -62.5 23.5s-26.5 37.167 -26.5 64.5s8.83301 48.833 26.5 64.5s38.5 23.5 62.5 23.5s44.833 -7.83301 62.5 -23.5s26.5 -37.167 26.5 -64.5z" />
    <glyph glyph-name="Idotaccent" unicode="&#x130;" horiz-adv-x="316" 
d="M80 693h156v-693h-156v693zM157 760c-21.333 0 -39.833 7 -55.5 21s-23.5 33 -23.5 57s7.83301 43 23.5 57s34.167 21 55.5 21s39.833 -7 55.5 -21s23.5 -33 23.5 -57s-7.83301 -43 -23.5 -57s-34.167 -21 -55.5 -21z" />
    <glyph glyph-name="dotlessi" unicode="&#x131;" horiz-adv-x="289" 
d="M219 0h-149v526h149v-526z" />
    <glyph glyph-name="IJ" unicode="&#x132;" horiz-adv-x="841" 
d="M80 693h156v-693h-156v693zM771 233c0 -34 -3.83398 -66 -11.501 -96s-21 -56.167 -40 -78.5s-44.667 -40 -77 -53s-73.166 -19.5 -122.499 -19.5c-45.333 0 -84.333 5.5 -117 16.5s-59.667 23.833 -81 38.5l52 121c19.333 -11.333 40 -21.333 62 -30s46 -13 72 -13
c38 0 65.333 9.33301 82 28s25 50 25 94v452h156v-460z" />
    <glyph glyph-name="ij" unicode="&#x133;" horiz-adv-x="576" 
d="M219 0h-149v526h149v-526zM233 678c0 -27.333 -8.83301 -48.833 -26.5 -64.5s-38.5 -23.5 -62.5 -23.5s-44.833 7.83301 -62.5 23.5s-26.5 37.167 -26.5 64.5s8.83301 48.833 26.5 64.5s38.5 23.5 62.5 23.5s44.833 -7.83301 62.5 -23.5s26.5 -37.167 26.5 -64.5z
M308 -185c-9.33301 0 -23.166 0.998047 -41.499 2.99805s-35.5 5.66699 -51.5 11l20 121c10 -3.33301 19.167 -5.66602 27.5 -6.99902s18.833 -2 31.5 -2c23.333 0 39.666 7 48.999 21s14 34.333 14 61v503h149v-507c0 -69.333 -17 -120.666 -51 -153.999s-83 -50 -147 -50z
M520 677.998c0 -27.333 -8.83301 -48.833 -26.5 -64.5s-38.5 -23.5 -62.5 -23.5s-44.833 7.83301 -62.5 23.5s-26.5 37.167 -26.5 64.5s8.83301 48.833 26.5 64.5s38.5 23.5 62.5 23.5s44.833 -7.83301 62.5 -23.5s26.5 -37.167 26.5 -64.5z" />
    <glyph glyph-name="Jcircumflex" unicode="&#x134;" horiz-adv-x="529" 
d="M459 233c0 -34 -3.83398 -66 -11.501 -96s-21 -56.167 -40 -78.5s-44.667 -40 -77 -53s-73.166 -19.5 -122.499 -19.5c-45.333 0 -84.333 5.5 -117 16.5s-59.667 23.833 -81 38.5l52 121c19.333 -11.333 40 -21.333 62 -30s46 -13 72 -13c38 0 65.333 9.33301 82 28
s25 50 25 94v452h156v-460zM533.999 811l-55 -66l-100 77l-100 -77l-57 66l157 137z" />
    <glyph glyph-name="jcircumflex" unicode="&#x135;" horiz-adv-x="289" 
d="M21 -185c-9.33301 0 -23.166 0.998047 -41.499 2.99805s-35.5 5.66699 -51.5 11l20 121c10 -3.33301 19.167 -5.66602 27.5 -6.99902s18.833 -2 31.5 -2c23.333 0 39.666 7 48.999 21s14 34.333 14 61v503h149v-507c0 -69.333 -17 -120.666 -51 -153.999
s-83 -50 -147 -50zM300 644.998l-55 -66l-100 77l-100 -77l-57 66l157 137z" />
    <glyph glyph-name="Kcommaaccent" unicode="&#x136;" horiz-adv-x="684" 
d="M489 0c-14 22.667 -30.499 47.1699 -49.499 73.5029s-39.667 52.666 -62 78.999s-45.5 51.666 -69.5 75.999s-48 45.833 -72 64.5v-293h-156v693h156v-262c40.667 42.667 81.5 87.167 122.5 133.5s79.167 89.166 114.5 128.499h185c-47.333 -56 -94.833 -110 -142.5 -162
s-97.834 -104.333 -150.501 -157c55.333 -46 108.833 -100.667 160.5 -164s101.167 -133.333 148.5 -210h-185zM308.001 -51.9971l118.001 0.00195312c1.33301 -7.33301 2.16602 -14.666 2.49902 -21.999s0.5 -12.333 0.5 -15c0 -25.333 -4 -46.333 -12 -63
s-18.667 -30 -32 -40s-28.5 -17.167 -45.5 -21.5s-34.5 -6.5 -52.5 -6.5c-10 0 -20 0.666992 -30 2s-17 2.66602 -21 3.99902v84c10 0 19.5 0.666992 28.5 2s16.667 4.16602 23 8.49902s11.333 10.666 15 18.999s5.5 19.833 5.5 34.5v14z" />
    <glyph glyph-name="kcommaaccent" unicode="&#x137;" horiz-adv-x="579" 
d="M219 336c14.667 16 29.833 32.6699 45.5 50.0029s30.834 34.5 45.501 51.5s28.5 33.167 41.5 48.5s24.167 28.666 33.5 39.999h177c-35.333 -40.667 -69.833 -79.5 -103.5 -116.5s-70.5 -75.167 -110.5 -114.5c20 -18 40.667 -39.5 62 -64.5s42 -50.833 62 -77.5
s38.333 -53.334 55 -80.001s30.667 -51 42 -73h-171c-10.667 17.333 -22.834 36.5 -36.501 57.5s-28.167 42 -43.5 63s-31.5 41.167 -48.5 60.5s-33.833 35.666 -50.5 48.999v-230h-149v752l149 24v-440zM248.999 -51.9971l118.001 0.00195312
c1.33301 -7.33301 2.16602 -14.666 2.49902 -21.999s0.5 -12.333 0.5 -15c0 -25.333 -4 -46.333 -12 -63s-18.667 -30 -32 -40s-28.5 -17.167 -45.5 -21.5s-34.5 -6.5 -52.5 -6.5c-10 0 -20 0.666992 -30 2s-17 2.66602 -21 3.99902v84c10 0 19.5 0.666992 28.5 2
s16.667 4.16602 23 8.49902s11.333 10.666 15 18.999s5.5 19.833 5.5 34.5v14z" />
    <glyph glyph-name="kgreenlandic" unicode="&#x138;" horiz-adv-x="582" 
d="M219 329c14.667 16 29.834 32.832 45.501 50.499s30.834 35.334 45.501 53.001s28.667 34.5 42 50.5s25 30.333 35 43h177c-14.667 -18 -31.334 -37.667 -50.001 -59s-38 -42.666 -58 -63.999s-39.333 -42.166 -58 -62.499s-35.334 -37.833 -50.001 -52.5
c20 -19.333 40.833 -41 62.5 -65s42.5 -48.833 62.5 -74.5s38.5 -51.334 55.5 -77.001s31.5 -49.5 43.5 -71.5h-171c-10.667 17.333 -23 36.166 -37 56.499s-29 40.5 -45 60.5s-32.5 39.333 -49.5 58s-33.833 35 -50.5 49v-224h-149v526h149v-197z" />
    <glyph glyph-name="Lacute" unicode="&#x139;" horiz-adv-x="563" 
d="M543 134v-134h-463v693h156v-559h307zM307 875l-165 -139l-68 61l142 162z" />
    <glyph glyph-name="lacute" unicode="&#x13a;" horiz-adv-x="316" 
d="M280 -10c-43.333 0.666992 -78.5 5.33203 -105.5 13.999s-48.333 20.834 -64 36.501s-26.334 34.667 -32.001 57s-8.5 47.5 -8.5 75.5v579l149 24v-573c0 -13.333 1 -25.333 3 -36s5.83301 -19.667 11.5 -27s13.834 -13.333 24.501 -18s25 -7.66699 43 -9zM298 860.998
l-218 -69l-30 69l212 101z" />
    <glyph glyph-name="Lcommaaccent" unicode="&#x13b;" horiz-adv-x="563" 
d="M543 134v-134h-463v693h156v-559h307zM276 -52l118.001 0.00195312c1.33301 -7.33301 2.16602 -14.666 2.49902 -21.999s0.5 -12.333 0.5 -15c0 -25.333 -4 -46.333 -12 -63s-18.667 -30 -32 -40s-28.5 -17.167 -45.5 -21.5s-34.5 -6.5 -52.5 -6.5
c-10 0 -20 0.666992 -30 2s-17 2.66602 -21 3.99902v84c10 0 19.5 0.666992 28.5 2s16.667 4.16602 23 8.49902s11.333 10.666 15 18.999s5.5 19.833 5.5 34.5v14z" />
    <glyph glyph-name="lcommaaccent" unicode="&#x13c;" horiz-adv-x="316" 
d="M280 -10c-43.333 0.666992 -78.5 5.33203 -105.5 13.999s-48.333 20.834 -64 36.501s-26.334 34.667 -32.001 57s-8.5 47.5 -8.5 75.5v579l149 24v-573c0 -13.333 1 -25.333 3 -36s5.83301 -19.667 11.5 -27s13.834 -13.333 24.501 -18s25 -7.66699 43 -9zM120 -52.002
l118.001 0.00195312c1.33301 -7.33301 2.16602 -14.666 2.49902 -21.999s0.5 -12.333 0.5 -15c0 -25.333 -4 -46.333 -12 -63s-18.667 -30 -32 -40s-28.5 -17.167 -45.5 -21.5s-34.5 -6.5 -52.5 -6.5c-10 0 -20 0.666992 -30 2s-17 2.66602 -21 3.99902v84
c10 0 19.5 0.666992 28.5 2s16.667 4.16602 23 8.49902s11.333 10.666 15 18.999s5.5 19.833 5.5 34.5v14z" />
    <glyph glyph-name="Lcaron" unicode="&#x13d;" horiz-adv-x="563" 
d="M543 134v-134h-463v693h156v-559h307zM459 695l-33 -244h-89v244h122z" />
    <glyph glyph-name="lcaron" unicode="&#x13e;" horiz-adv-x="370" 
d="M280 -10c-43.333 0.666992 -78.5 5.33203 -105.5 13.999s-48.333 20.834 -64 36.501s-26.334 34.667 -32.001 57s-8.5 47.5 -8.5 75.5v579l149 24v-573c0 -13.333 1 -25.333 3 -36s5.83301 -19.667 11.5 -27s13.834 -13.333 24.501 -18s25 -7.66699 43 -9zM410 775.998
l-33 -244h-89v244h122z" />
    <glyph glyph-name="Ldot" unicode="&#x13f;" horiz-adv-x="563" 
d="M543 134v-134h-463v693h156v-559h307zM531 403c0 -30 -9.5 -52.833 -28.5 -68.5s-40.5 -23.5 -64.5 -23.5s-45.5 7.83301 -64.5 23.5s-28.5 38.5 -28.5 68.5s9.5 52.833 28.5 68.5s40.5 23.5 64.5 23.5s45.5 -7.83301 64.5 -23.5s28.5 -38.5 28.5 -68.5z" />
    <glyph glyph-name="ldot" unicode="&#x140;" horiz-adv-x="518" 
d="M280 -10c-43.333 0.666992 -78.5 5.33203 -105.5 13.999s-48.333 20.834 -64 36.501s-26.334 34.667 -32.001 57s-8.5 47.5 -8.5 75.5v579l149 24v-573c0 -13.333 1 -25.333 3 -36s5.83301 -19.667 11.5 -27s13.834 -13.333 24.501 -18s25 -7.66699 43 -9zM493 411.998
c0 -30 -9.5 -52.833 -28.5 -68.5s-40.5 -23.5 -64.5 -23.5s-45.5 7.83301 -64.5 23.5s-28.5 38.5 -28.5 68.5s9.5 52.833 28.5 68.5s40.5 23.5 64.5 23.5s45.5 -7.83301 64.5 -23.5s28.5 -38.5 28.5 -68.5z" />
    <glyph glyph-name="Lslash" unicode="&#x141;" horiz-adv-x="594" 
d="M0 324l111 56v313h156v-235l122 62l49 -101l-171 -87v-198h307v-134h-463v254l-62 -31z" />
    <glyph glyph-name="lslash" unicode="&#x142;" horiz-adv-x="364" 
d="M-10 393l107 52.998v306l149 24v-256l71 36l45 -92l-116 -58v-203c0 -13.333 1 -25.333 3 -36s5.83301 -19.667 11.5 -27s13.834 -13.333 24.501 -18s25 -7.66699 43 -9l-21 -123c-43.333 0.666992 -78.5 5.33398 -105.5 14.001s-48.333 20.834 -64 36.501
s-26.334 34.667 -32.001 57s-8.5 47.5 -8.5 75.5v159l-62 -31z" />
    <glyph glyph-name="Nacute" unicode="&#x143;" horiz-adv-x="756" 
d="M545 0c-44.667 79.333 -93.001 157.667 -145.001 235s-107.333 150.333 -166 219v-454h-154v693h127c22 -22 46.333 -49 73 -81s53.834 -66.167 81.501 -102.5s55.167 -74 82.5 -113s53 -76.5 77 -112.5v409h155v-693h-131zM503.999 875.001l-165 -139l-68 61l142 162z
" />
    <glyph glyph-name="nacute" unicode="&#x144;" 
d="M70 508c25.333 7.33301 58.001 14.166 98.001 20.499s82 9.5 126 9.5c44.667 0 81.834 -5.83301 111.501 -17.5s53.167 -28.167 70.5 -49.5s29.666 -46.666 36.999 -75.999s11 -62 11 -98v-297h-149v279c0 48 -6.33301 82 -19 102s-36.334 30 -71.001 30
c-10.667 0 -22 -0.5 -34 -1.5s-22.667 -2.16699 -32 -3.5v-406h-149v508zM411.001 715l-165 -139l-68 61l142 162z" />
    <glyph glyph-name="Ncommaaccent" unicode="&#x145;" horiz-adv-x="756" 
d="M545 0c-44.667 79.333 -93.001 157.667 -145.001 235s-107.333 150.333 -166 219v-454h-154v693h127c22 -22 46.333 -49 73 -81s53.834 -66.167 81.501 -102.5s55.167 -74 82.5 -113s53 -76.5 77 -112.5v409h155v-693h-131zM333.999 -51.999l118.001 0.00195312
c1.33301 -7.33301 2.16602 -14.666 2.49902 -21.999s0.5 -12.333 0.5 -15c0 -25.333 -4 -46.333 -12 -63s-18.667 -30 -32 -40s-28.5 -17.167 -45.5 -21.5s-34.5 -6.5 -52.5 -6.5c-10 0 -20 0.666992 -30 2s-17 2.66602 -21 3.99902v84c10 0 19.5 0.666992 28.5 2
s16.667 4.16602 23 8.49902s11.333 10.666 15 18.999s5.5 19.833 5.5 34.5v14z" />
    <glyph glyph-name="ncommaaccent" unicode="&#x146;" 
d="M70 508c25.333 7.33301 58.001 14.166 98.001 20.499s82 9.5 126 9.5c44.667 0 81.834 -5.83301 111.501 -17.5s53.167 -28.167 70.5 -49.5s29.666 -46.666 36.999 -75.999s11 -62 11 -98v-297h-149v279c0 48 -6.33301 82 -19 102s-36.334 30 -71.001 30
c-10.667 0 -22 -0.5 -34 -1.5s-22.667 -2.16699 -32 -3.5v-406h-149v508zM239.001 -52l118.001 0.00195312c1.33301 -7.33301 2.16602 -14.666 2.49902 -21.999s0.5 -12.333 0.5 -15c0 -25.333 -4 -46.333 -12 -63s-18.667 -30 -32 -40s-28.5 -17.167 -45.5 -21.5
s-34.5 -6.5 -52.5 -6.5c-10 0 -20 0.666992 -30 2s-17 2.66602 -21 3.99902v84c10 0 19.5 0.666992 28.5 2s16.667 4.16602 23 8.49902s11.333 10.666 15 18.999s5.5 19.833 5.5 34.5v14z" />
    <glyph glyph-name="Ncaron" unicode="&#x147;" horiz-adv-x="756" 
d="M545 0c-44.667 79.333 -93.001 157.667 -145.001 235s-107.333 150.333 -166 219v-454h-154v693h127c22 -22 46.333 -49 73 -81s53.834 -66.167 81.501 -102.5s55.167 -74 82.5 -113s53 -76.5 77 -112.5v409h155v-693h-131zM209.999 884.001l55 66l100 -77l100 77l57 -66
l-157 -137z" />
    <glyph glyph-name="ncaron" unicode="&#x148;" 
d="M70 508c25.333 7.33301 58.001 14.166 98.001 20.499s82 9.5 126 9.5c44.667 0 81.834 -5.83301 111.501 -17.5s53.167 -28.167 70.5 -49.5s29.666 -46.666 36.999 -75.999s11 -62 11 -98v-297h-149v279c0 48 -6.33301 82 -19 102s-36.334 30 -71.001 30
c-10.667 0 -22 -0.5 -34 -1.5s-22.667 -2.16699 -32 -3.5v-406h-149v508zM136.001 723l55 66l100 -77l100 77l57 -66l-157 -137z" />
    <glyph glyph-name="napostrophe" unicode="&#x149;" horiz-adv-x="619" 
d="M100 508c25.333 7.33301 58.001 14.166 98.001 20.499s82 9.5 126 9.5c44.667 0 81.834 -5.83301 111.501 -17.5s53.167 -28.167 70.5 -49.5s29.666 -46.666 36.999 -75.999s11 -62 11 -98v-297h-149v279c0 48 -6.33301 82 -19 102s-36.334 30 -71.001 30
c-10.667 0 -22 -0.5 -34 -1.5s-22.667 -2.16699 -32 -3.5v-406h-149v508zM146.001 776l-0.00195312 -21.999c0 -6 -0.333008 -13 -1 -21c-2.66699 -41.333 -9.66699 -76.5 -21 -105.5s-26.666 -58.167 -45.999 -87.5l-97 27c14 30 23.833 57.667 29.5 83s8.5 52.333 8.5 81
c0 8 -0.166992 16.167 -0.5 24.5s-1.16602 15.166 -2.49902 20.499h130z" />
    <glyph glyph-name="Eng" unicode="&#x14a;" horiz-adv-x="756" 
d="M521 42c-42 72.667 -87.1689 143.831 -135.502 213.498s-98.833 135.834 -151.5 198.501v-454h-154v693h127c22 -22 46.333 -49 73 -81s53.834 -66.167 81.501 -102.5s55.167 -74 82.5 -113s53 -76.5 77 -112.5v409h155v-676c0 -69.333 -15.667 -120.666 -47 -153.999
s-81.333 -50 -150 -50c-9.33301 0 -22.166 0.833008 -38.499 2.5s-32.5 5.16699 -48.5 10.5l20 121c10 -3.33301 18.167 -5.5 24.5 -6.5s15.833 -1.5 28.5 -1.5c21.333 0 36 7 44 21s12 34.333 12 61v21z" />
    <glyph glyph-name="eng" unicode="&#x14b;" 
d="M375 279c0 48 -6.33203 82.001 -18.999 102.001s-36.334 30 -71.001 30c-10.667 0 -22 -0.5 -34 -1.5s-22.667 -2.16699 -32 -3.5v-406h-149v508c25.333 7.33301 58 14.166 98 20.499s82 9.5 126 9.5c44.667 0 81.834 -5.83301 111.501 -17.5s53.167 -28.167 70.5 -49.5
s29.666 -46.666 36.999 -75.999s11 -62 11 -98v-294c0 -64 -14 -111.333 -42 -142s-76.333 -46 -145 -46c-8.66699 0 -20.5 0.666992 -35.5 2s-29.833 4.66602 -44.5 9.99902l18 107c7.33301 -2 14.5 -3.66699 21.5 -5s14.833 -2 23.5 -2c36.667 0 55 23.667 55 71v281z" />
    <glyph glyph-name="Omacron" unicode="&#x14c;" horiz-adv-x="790" 
d="M211 347c0 -34 4.16699 -64.668 12.5 -92.001s20.333 -50.833 36 -70.5s34.834 -34.834 57.501 -45.501s48.667 -16 78 -16c28.667 0 54.5 5.33301 77.5 16s42.333 25.834 58 45.501s27.667 43.167 36 70.5s12.5 58 12.5 92s-4.16699 64.833 -12.5 92.5
s-20.333 51.334 -36 71.001s-35 34.834 -58 45.501s-48.833 16 -77.5 16c-29.333 0 -55.333 -5.5 -78 -16.5s-41.834 -26.333 -57.501 -46s-27.667 -43.334 -36 -71.001s-12.5 -58.167 -12.5 -91.5zM740 346.999c0 -59.333 -8.83398 -111.5 -26.501 -156.5
s-41.834 -82.667 -72.501 -113s-67.167 -53.166 -109.5 -68.499s-87.833 -23 -136.5 -23c-47.333 0 -92 7.66699 -134 23s-78.667 38.166 -110 68.499s-56 68 -74 113s-27 97.167 -27 156.5s9.33301 111.5 28 156.5s43.834 82.833 75.501 113.5s68.334 53.667 110.001 69
s85.5 23 131.5 23c47.333 0 92 -7.66699 134 -23s78.667 -38.333 110 -69s56 -68.5 74 -113.5s27 -97.167 27 -156.5zM233.999 877.999h322v-102h-322v102z" />
    <glyph glyph-name="omacron" unicode="&#x14d;" horiz-adv-x="607" 
d="M562 264c0 -41.333 -5.99805 -79.166 -17.998 -113.499s-29.333 -63.666 -52 -87.999s-49.834 -43.166 -81.501 -56.499s-67.167 -20 -106.5 -20c-38.667 0 -73.834 6.66699 -105.501 20s-58.834 32.166 -81.501 56.499s-40.334 53.666 -53.001 87.999
s-19 72.166 -19 113.499s6.5 79 19.5 113s31 63 54 87s50.333 42.667 82 56s66.167 20 103.5 20c38 0 72.833 -6.66699 104.5 -20s58.834 -32 81.501 -56s40.334 -53 53.001 -87s19 -71.667 19 -113zM410.002 264c0 46 -9.16699 82.167 -27.5 108.5s-44.5 39.5 -78.5 39.5
s-60.333 -13.167 -79 -39.5s-28 -62.5 -28 -108.5s9.33301 -82.5 28 -109.5s45 -40.5 79 -40.5s60.167 13.5 78.5 40.5s27.5 63.5 27.5 109.5zM142.002 725h322v-102h-322v102z" />
    <glyph glyph-name="Obreve" unicode="&#x14e;" horiz-adv-x="790" 
d="M211 347c0 -34 4.16699 -64.668 12.5 -92.001s20.333 -50.833 36 -70.5s34.834 -34.834 57.501 -45.501s48.667 -16 78 -16c28.667 0 54.5 5.33301 77.5 16s42.333 25.834 58 45.501s27.667 43.167 36 70.5s12.5 58 12.5 92s-4.16699 64.833 -12.5 92.5
s-20.333 51.334 -36 71.001s-35 34.834 -58 45.501s-48.833 16 -77.5 16c-29.333 0 -55.333 -5.5 -78 -16.5s-41.834 -26.333 -57.501 -46s-27.667 -43.334 -36 -71.001s-12.5 -58.167 -12.5 -91.5zM740 346.999c0 -59.333 -8.83398 -111.5 -26.501 -156.5
s-41.834 -82.667 -72.501 -113s-67.167 -53.166 -109.5 -68.499s-87.833 -23 -136.5 -23c-47.333 0 -92 7.66699 -134 23s-78.667 38.166 -110 68.499s-56 68 -74 113s-27 97.167 -27 156.5s9.33301 111.5 28 156.5s43.834 82.833 75.501 113.5s68.334 53.667 110.001 69
s85.5 23 131.5 23c47.333 0 92 -7.66699 134 -23s78.667 -38.333 110 -69s56 -68.5 74 -113.5s27 -97.167 27 -156.5zM394.999 750.999c-23.333 0 -44.835 3.66699 -64.502 11s-36.667 17.666 -51 30.999s-25.666 29.833 -33.999 49.5s-12.5 41.834 -12.5 66.501v8h101
c2 -28 8.66699 -46.833 20 -56.5s25 -14.5 41 -14.5s29.667 4.83301 41 14.5s18 28.5 20 56.5h101v-8c0 -24.667 -4.16699 -46.834 -12.5 -66.501s-19.666 -36.167 -33.999 -49.5s-31.5 -23.666 -51.5 -30.999s-41.333 -11 -64 -11z" />
    <glyph glyph-name="obreve" unicode="&#x14f;" horiz-adv-x="607" 
d="M562 264c0 -41.333 -5.99805 -79.166 -17.998 -113.499s-29.333 -63.666 -52 -87.999s-49.834 -43.166 -81.501 -56.499s-67.167 -20 -106.5 -20c-38.667 0 -73.834 6.66699 -105.501 20s-58.834 32.166 -81.501 56.499s-40.334 53.666 -53.001 87.999
s-19 72.166 -19 113.499s6.5 79 19.5 113s31 63 54 87s50.333 42.667 82 56s66.167 20 103.5 20c38 0 72.833 -6.66699 104.5 -20s58.834 -32 81.501 -56s40.334 -53 53.001 -87s19 -71.667 19 -113zM410.002 264c0 46 -9.16699 82.167 -27.5 108.5s-44.5 39.5 -78.5 39.5
s-60.333 -13.167 -79 -39.5s-28 -62.5 -28 -108.5s9.33301 -82.5 28 -109.5s45 -40.5 79 -40.5s60.167 13.5 78.5 40.5s27.5 63.5 27.5 109.5zM303.002 598c-23.333 0 -44.835 3.66699 -64.502 11s-36.667 17.666 -51 30.999s-25.666 29.833 -33.999 49.5
s-12.5 41.834 -12.5 66.501v8h101c2 -28 8.66699 -46.833 20 -56.5s25 -14.5 41 -14.5s29.667 4.83301 41 14.5s18 28.5 20 56.5h101v-8c0 -24.667 -4.16699 -46.834 -12.5 -66.501s-19.666 -36.167 -33.999 -49.5s-31.5 -23.666 -51.5 -30.999s-41.333 -11 -64 -11z" />
    <glyph glyph-name="Ohungarumlaut" unicode="&#x150;" horiz-adv-x="790" 
d="M211 347c0 -34 4.16699 -64.668 12.5 -92.001s20.333 -50.833 36 -70.5s34.834 -34.834 57.501 -45.501s48.667 -16 78 -16c28.667 0 54.5 5.33301 77.5 16s42.333 25.834 58 45.501s27.667 43.167 36 70.5s12.5 58 12.5 92s-4.16699 64.833 -12.5 92.5
s-20.333 51.334 -36 71.001s-35 34.834 -58 45.501s-48.833 16 -77.5 16c-29.333 0 -55.333 -5.5 -78 -16.5s-41.834 -26.333 -57.501 -46s-27.667 -43.334 -36 -71.001s-12.5 -58.167 -12.5 -91.5zM740 346.999c0 -59.333 -8.83398 -111.5 -26.501 -156.5
s-41.834 -82.667 -72.501 -113s-67.167 -53.166 -109.5 -68.499s-87.833 -23 -136.5 -23c-47.333 0 -92 7.66699 -134 23s-78.667 38.166 -110 68.499s-56 68 -74 113s-27 97.167 -27 156.5s9.33301 111.5 28 156.5s43.834 82.833 75.501 113.5s68.334 53.667 110.001 69
s85.5 23 131.5 23c47.333 0 92 -7.66699 134 -23s78.667 -38.333 110 -69s56 -68.5 74 -113.5s27 -97.167 27 -156.5zM438.999 890.999l-140 -152l-67 51l120 171zM640.999 890.999l-140 -152l-67 51l120 171z" />
    <glyph glyph-name="ohungarumlaut" unicode="&#x151;" horiz-adv-x="607" 
d="M562 264c0 -41.333 -5.99805 -79.166 -17.998 -113.499s-29.333 -63.666 -52 -87.999s-49.834 -43.166 -81.501 -56.499s-67.167 -20 -106.5 -20c-38.667 0 -73.834 6.66699 -105.501 20s-58.834 32.166 -81.501 56.499s-40.334 53.666 -53.001 87.999
s-19 72.166 -19 113.499s6.5 79 19.5 113s31 63 54 87s50.333 42.667 82 56s66.167 20 103.5 20c38 0 72.833 -6.66699 104.5 -20s58.834 -32 81.501 -56s40.334 -53 53.001 -87s19 -71.667 19 -113zM410.002 264c0 46 -9.16699 82.167 -27.5 108.5s-44.5 39.5 -78.5 39.5
s-60.333 -13.167 -79 -39.5s-28 -62.5 -28 -108.5s9.33301 -82.5 28 -109.5s45 -40.5 79 -40.5s60.167 13.5 78.5 40.5s27.5 63.5 27.5 109.5zM340.002 729l-140 -152l-67 51l120 171zM542.002 729l-140 -152l-67 51l120 171z" />
    <glyph glyph-name="OE" unicode="&#x152;" horiz-adv-x="997" 
d="M546 0c-15.333 -2 -32.5 -3.5 -51.5 -4.5s-36.167 -1.5 -51.5 -1.5c-58.667 0 -112.167 7 -160.5 21s-89.666 35.5 -123.999 64.5s-61 65.667 -80 110s-28.5 96.833 -28.5 157.5s9.5 113 28.5 157s45.667 80.5 80 109.5s75.666 50.5 123.999 64.5s101.833 21 160.5 21
c15.333 0 32.5 -0.5 51.5 -1.5s36.167 -2.5 51.5 -4.5h393v-131h-295v-136h260v-128h-260v-167h318v-131h-416zM441 126h22.5c7 0 16.833 0.333008 29.5 1v439c-13.333 0.666992 -23 1 -29 1h-23c-78 0 -136 -18.833 -174 -56.5s-57 -92.167 -57 -163.5s19 -126 57 -164
s96 -57 174 -57z" />
    <glyph glyph-name="oe" unicode="&#x153;" horiz-adv-x="937" 
d="M676 -14c-42.667 0 -81.165 6.83496 -115.498 20.502s-63.166 34.5 -86.499 62.5c-22 -26.667 -48 -47.167 -78 -61.5s-62 -21.5 -96 -21.5c-38.667 0 -73.667 6.66699 -105 20s-58.166 32.166 -80.499 56.499s-39.5 53.666 -51.5 87.999s-18 72.166 -18 113.499
s6.16699 79 18.5 113s29.833 63 52.5 87s49.667 42.667 81 56s65.666 20 102.999 20c77.333 0 137.666 -28.667 180.999 -86c24 32 50.667 54.333 80 67s59 19 89 19c74.667 0 133.667 -22.667 177 -68s65 -112.666 65 -201.999c0 -8.66699 -0.333008 -18.167 -1 -28.5
s-1.33398 -19.5 -2.00098 -27.5h-338c3.33301 -30.667 17.666 -55 42.999 -73s59.333 -27 102 -27c28 0 55 2.5 81 7.5s47.333 11.167 64 18.5l20 -121c-8 -4 -18.667 -8 -32 -12s-28.166 -7.5 -44.499 -10.5s-33.833 -5.5 -52.5 -7.5s-37.334 -3 -56.001 -3z
M410.002 264.002c0 46 -9.16699 82.167 -27.5 108.5s-44.5 39.5 -78.5 39.5s-60.333 -13.167 -79 -39.5s-28 -62.5 -28 -108.5s9.33301 -82.5 28 -109.5s45 -40.5 79 -40.5s60.167 13.5 78.5 40.5s27.5 63.5 27.5 109.5zM748.002 316.002
c-0.666992 12.667 -2.83203 24.999 -6.49902 36.999s-9.33398 22.667 -17.001 32s-17.5 17 -29.5 23s-26.333 9 -43 9c-17.333 0 -31.833 -2.83301 -43.5 -8.5s-21.5 -13.167 -29.5 -22.5s-14.167 -20.166 -18.5 -32.499s-7.5 -24.833 -9.5 -37.5h197z" />
    <glyph glyph-name="Racute" unicode="&#x154;" horiz-adv-x="667" 
d="M283 701c104 0 183.666 -18.5059 238.999 -55.5059s83 -94.5 83 -172.5c0 -48.667 -11.167 -88.167 -33.5 -118.5s-54.5 -54.166 -96.5 -71.499c14 -17.333 28.667 -37.166 44 -59.499s30.5 -45.666 45.5 -69.999s29.5 -49.666 43.5 -75.999s27 -52.166 39 -77.499h-175
c-12.667 22.667 -25.5 45.667 -38.5 69s-26.333 46 -40 68s-27.167 42.833 -40.5 62.5s-26.666 37.5 -39.999 53.5h-77v-253h-156v683c34 6.66699 69.167 11.334 105.5 14.001s68.833 4 97.5 4zM291.999 567.994c-11.333 0 -21.5 -0.332031 -30.5 -0.999023
s-17.5 -1.33398 -25.5 -2.00098v-188h44c58.667 0 100.667 7.33301 126 22s38 39.667 38 75c0 34 -12.833 58.167 -38.5 72.5s-63.5 21.5 -113.5 21.5zM448.999 874.995l-165 -139l-68 61l142 162z" />
    <glyph glyph-name="racute" unicode="&#x155;" horiz-adv-x="422" 
d="M387 394c-13.333 3.33301 -28.998 6.83301 -46.998 10.5s-37.333 5.5 -58 5.5c-9.33301 0 -20.5 -0.833008 -33.5 -2.5s-22.833 -3.5 -29.5 -5.5v-402h-149v498c26.667 9.33301 58.167 18.166 94.5 26.499s76.833 12.5 121.5 12.5c8 0 17.667 -0.5 29 -1.5
s22.666 -2.33301 33.999 -4s22.666 -3.66699 33.999 -6s21 -5.16602 29 -8.49902zM366.002 715l-165 -139l-68 61l142 162z" />
    <glyph glyph-name="Rcommaaccent" unicode="&#x156;" horiz-adv-x="667" 
d="M283 701c104 0 183.666 -18.5059 238.999 -55.5059s83 -94.5 83 -172.5c0 -48.667 -11.167 -88.167 -33.5 -118.5s-54.5 -54.166 -96.5 -71.499c14 -17.333 28.667 -37.166 44 -59.499s30.5 -45.666 45.5 -69.999s29.5 -49.666 43.5 -75.999s27 -52.166 39 -77.499h-175
c-12.667 22.667 -25.5 45.667 -38.5 69s-26.333 46 -40 68s-27.167 42.833 -40.5 62.5s-26.666 37.5 -39.999 53.5h-77v-253h-156v683c34 6.66699 69.167 11.334 105.5 14.001s68.833 4 97.5 4zM291.999 567.994c-11.333 0 -21.5 -0.332031 -30.5 -0.999023
s-17.5 -1.33398 -25.5 -2.00098v-188h44c58.667 0 100.667 7.33301 126 22s38 39.667 38 75c0 34 -12.833 58.167 -38.5 72.5s-63.5 21.5 -113.5 21.5zM297.999 -52.0049l118.001 0.00195312c1.33301 -7.33301 2.16602 -14.666 2.49902 -21.999s0.5 -12.333 0.5 -15
c0 -25.333 -4 -46.333 -12 -63s-18.667 -30 -32 -40s-28.5 -17.167 -45.5 -21.5s-34.5 -6.5 -52.5 -6.5c-10 0 -20 0.666992 -30 2s-17 2.66602 -21 3.99902v84c10 0 19.5 0.666992 28.5 2s16.667 4.16602 23 8.49902s11.333 10.666 15 18.999s5.5 19.833 5.5 34.5v14z" />
    <glyph glyph-name="rcommaaccent" unicode="&#x157;" horiz-adv-x="422" 
d="M387 394c-13.333 3.33301 -28.998 6.83301 -46.998 10.5s-37.333 5.5 -58 5.5c-9.33301 0 -20.5 -0.833008 -33.5 -2.5s-22.833 -3.5 -29.5 -5.5v-402h-149v498c26.667 9.33301 58.167 18.166 94.5 26.499s76.833 12.5 121.5 12.5c8 0 17.667 -0.5 29 -1.5
s22.666 -2.33301 33.999 -4s22.666 -3.66699 33.999 -6s21 -5.16602 29 -8.49902zM86.002 -52l118.001 0.00195312c1.33301 -7.33301 2.16602 -14.666 2.49902 -21.999s0.5 -12.333 0.5 -15c0 -25.333 -4 -46.333 -12 -63s-18.667 -30 -32 -40s-28.5 -17.167 -45.5 -21.5
s-34.5 -6.5 -52.5 -6.5c-10 0 -20 0.666992 -30 2s-17 2.66602 -21 3.99902v84c10 0 19.5 0.666992 28.5 2s16.667 4.16602 23 8.49902s11.333 10.666 15 18.999s5.5 19.833 5.5 34.5v14z" />
    <glyph glyph-name="Rcaron" unicode="&#x158;" horiz-adv-x="667" 
d="M283 701c104 0 183.666 -18.5059 238.999 -55.5059s83 -94.5 83 -172.5c0 -48.667 -11.167 -88.167 -33.5 -118.5s-54.5 -54.166 -96.5 -71.499c14 -17.333 28.667 -37.166 44 -59.499s30.5 -45.666 45.5 -69.999s29.5 -49.666 43.5 -75.999s27 -52.166 39 -77.499h-175
c-12.667 22.667 -25.5 45.667 -38.5 69s-26.333 46 -40 68s-27.167 42.833 -40.5 62.5s-26.666 37.5 -39.999 53.5h-77v-253h-156v683c34 6.66699 69.167 11.334 105.5 14.001s68.833 4 97.5 4zM291.999 567.994c-11.333 0 -21.5 -0.332031 -30.5 -0.999023
s-17.5 -1.33398 -25.5 -2.00098v-188h44c58.667 0 100.667 7.33301 126 22s38 39.667 38 75c0 34 -12.833 58.167 -38.5 72.5s-63.5 21.5 -113.5 21.5zM163.999 883.995l55 66l100 -77l100 77l57 -66l-157 -137z" />
    <glyph glyph-name="rcaron" unicode="&#x159;" horiz-adv-x="422" 
d="M387 394c-13.333 3.33301 -28.998 6.83301 -46.998 10.5s-37.333 5.5 -58 5.5c-9.33301 0 -20.5 -0.833008 -33.5 -2.5s-22.833 -3.5 -29.5 -5.5v-402h-149v498c26.667 9.33301 58.167 18.166 94.5 26.499s76.833 12.5 121.5 12.5c8 0 17.667 -0.5 29 -1.5
s22.666 -2.33301 33.999 -4s22.666 -3.66699 33.999 -6s21 -5.16602 29 -8.49902zM91.002 723l55 66l100 -77l100 77l57 -66l-157 -137z" />
    <glyph glyph-name="Sacute" unicode="&#x15a;" horiz-adv-x="582" 
d="M269 119c22 0 40.167 1.83105 54.5 5.49805s25.833 8.66699 34.5 15s14.667 13.833 18 22.5s5 18.334 5 29.001c0 22.667 -10.667 41.5 -32 56.5s-58 31.167 -110 48.5c-22.667 8 -45.334 17.167 -68.001 27.5s-43 23.333 -61 39s-32.667 34.667 -44 57
s-17 49.5 -17 81.5s6 60.833 18 86.5s29 47.5 51 65.5s48.667 31.833 80 41.5s66.666 14.5 105.999 14.5c46.667 0 87 -5 121 -15s62 -21 84 -33l-45 -123c-19.333 10 -40.833 18.833 -64.5 26.5s-52.167 11.5 -85.5 11.5c-37.333 0 -64.166 -5.16699 -80.499 -15.5
s-24.5 -26.166 -24.5 -47.499c0 -12.667 3 -23.334 9 -32.001s14.5 -16.5 25.5 -23.5s23.667 -13.333 38 -19s30.166 -11.5 47.499 -17.5c36 -13.333 67.333 -26.5 94 -39.5s48.834 -28.167 66.501 -45.5s30.834 -37.666 39.501 -60.999s13 -51.666 13 -84.999
c0 -64.667 -22.667 -114.834 -68 -150.501s-113.666 -53.5 -204.999 -53.5c-30.667 0 -58.334 1.83301 -83.001 5.5s-46.5 8.16699 -65.5 13.5s-35.333 11 -49 17s-25.167 11.667 -34.5 17l44 124c20.667 -11.333 46.167 -21.5 76.5 -30.5s67.5 -13.5 111.5 -13.5z
M434 874.998l-165 -139l-68 61l142 162z" />
    <glyph glyph-name="sacute" unicode="&#x15b;" horiz-adv-x="485" 
d="M221 107c27.333 0 46.666 2.6709 57.999 8.00391s17 15.666 17 30.999c0 12 -7.33301 22.5 -22 31.5s-37 19.167 -67 30.5c-23.333 8.66699 -44.5 17.667 -63.5 27s-35.167 20.5 -48.5 33.5s-23.666 28.5 -30.999 46.5s-11 39.667 -11 65c0 49.333 18.333 88.333 55 117
s87 43 151 43c32 0 62.667 -2.83301 92 -8.5s52.666 -11.834 69.999 -18.501l-26 -116c-17.333 6 -36.166 11.333 -56.499 16s-43.166 7 -68.499 7c-46.667 0 -70 -13 -70 -39c0 -6 1 -11.333 3 -16s6 -9.16699 12 -13.5s14.167 -9 24.5 -14s23.5 -10.5 39.5 -16.5
c32.667 -12 59.667 -23.833 81 -35.5s38.166 -24.334 50.499 -38.001s21 -28.834 26 -45.501s7.5 -36 7.5 -58c0 -52 -19.5 -91.333 -58.5 -118s-94.167 -40 -165.5 -40c-46.667 0 -85.5 4 -116.5 12s-52.5 14.667 -64.5 20l25 121c25.333 -10 51.333 -17.833 78 -23.5
s53 -8.5 79 -8.5zM384 715.004l-165 -139l-68 61l142 162z" />
    <glyph glyph-name="Scircumflex" unicode="&#x15c;" horiz-adv-x="582" 
d="M269 119c22 0 40.167 1.83105 54.5 5.49805s25.833 8.66699 34.5 15s14.667 13.833 18 22.5s5 18.334 5 29.001c0 22.667 -10.667 41.5 -32 56.5s-58 31.167 -110 48.5c-22.667 8 -45.334 17.167 -68.001 27.5s-43 23.333 -61 39s-32.667 34.667 -44 57
s-17 49.5 -17 81.5s6 60.833 18 86.5s29 47.5 51 65.5s48.667 31.833 80 41.5s66.666 14.5 105.999 14.5c46.667 0 87 -5 121 -15s62 -21 84 -33l-45 -123c-19.333 10 -40.833 18.833 -64.5 26.5s-52.167 11.5 -85.5 11.5c-37.333 0 -64.166 -5.16699 -80.499 -15.5
s-24.5 -26.166 -24.5 -47.499c0 -12.667 3 -23.334 9 -32.001s14.5 -16.5 25.5 -23.5s23.667 -13.333 38 -19s30.166 -11.5 47.499 -17.5c36 -13.333 67.333 -26.5 94 -39.5s48.834 -28.167 66.501 -45.5s30.834 -37.666 39.501 -60.999s13 -51.666 13 -84.999
c0 -64.667 -22.667 -114.834 -68 -150.501s-113.666 -53.5 -204.999 -53.5c-30.667 0 -58.334 1.83301 -83.001 5.5s-46.5 8.16699 -65.5 13.5s-35.333 11 -49 17s-25.167 11.667 -34.5 17l44 124c20.667 -11.333 46.167 -21.5 76.5 -30.5s67.5 -13.5 111.5 -13.5z
M459 810.998l-55 -66l-100 77l-100 -77l-57 66l157 137z" />
    <glyph glyph-name="scircumflex" unicode="&#x15d;" horiz-adv-x="485" 
d="M221 107c27.333 0 46.666 2.6709 57.999 8.00391s17 15.666 17 30.999c0 12 -7.33301 22.5 -22 31.5s-37 19.167 -67 30.5c-23.333 8.66699 -44.5 17.667 -63.5 27s-35.167 20.5 -48.5 33.5s-23.666 28.5 -30.999 46.5s-11 39.667 -11 65c0 49.333 18.333 88.333 55 117
s87 43 151 43c32 0 62.667 -2.83301 92 -8.5s52.666 -11.834 69.999 -18.501l-26 -116c-17.333 6 -36.166 11.333 -56.499 16s-43.166 7 -68.499 7c-46.667 0 -70 -13 -70 -39c0 -6 1 -11.333 3 -16s6 -9.16699 12 -13.5s14.167 -9 24.5 -14s23.5 -10.5 39.5 -16.5
c32.667 -12 59.667 -23.833 81 -35.5s38.166 -24.334 50.499 -38.001s21 -28.834 26 -45.501s7.5 -36 7.5 -58c0 -52 -19.5 -91.333 -58.5 -118s-94.167 -40 -165.5 -40c-46.667 0 -85.5 4 -116.5 12s-52.5 14.667 -64.5 20l25 121c25.333 -10 51.333 -17.833 78 -23.5
s53 -8.5 79 -8.5zM413 645.004l-55 -66l-100 77l-100 -77l-57 66l157 137z" />
    <glyph glyph-name="Scedilla" unicode="&#x15e;" horiz-adv-x="582" 
d="M269 119c22 0 40.168 1.83203 54.501 5.49902s25.833 8.66699 34.5 15s14.667 13.833 18 22.5s5 18.334 5 29.001c0 22.667 -10.667 41.5 -32 56.5s-58 31.167 -110 48.5c-22.667 8 -45.334 17.167 -68.001 27.5s-43 23.333 -61 39s-32.667 34.667 -44 57
s-17 49.5 -17 81.5s6 60.833 18 86.5s29 47.5 51 65.5s48.667 31.833 80 41.5s66.666 14.5 105.999 14.5c46.667 0 87 -5 121 -15s62 -21 84 -33l-45 -123c-19.333 10 -40.833 18.833 -64.5 26.5s-52.167 11.5 -85.5 11.5c-37.333 0 -64.166 -5.16699 -80.499 -15.5
s-24.5 -26.166 -24.5 -47.499c0 -12.667 3 -23.334 9 -32.001s14.5 -16.5 25.5 -23.5s23.667 -13.333 38 -19s30.166 -11.5 47.499 -17.5c36 -13.333 67.333 -26.5 94 -39.5s48.834 -28.167 66.501 -45.5s30.834 -37.666 39.501 -60.999s13 -51.666 13 -84.999
c0 -56 -17 -101.167 -51 -135.5s-85 -55.833 -153 -64.5c-6 -10.667 -10.667 -20.667 -14 -30c21.333 -10.667 36 -23.334 44 -38.001s12 -29.667 12 -45c0 -32 -12.667 -56.333 -38 -73s-58.666 -25 -99.999 -25c-14.667 0 -29.334 1.16699 -44.001 3.5
s-29.334 5.5 -44.001 9.5l18 87c4.66699 -1.33301 13.167 -3.5 25.5 -6.5s24.5 -4.5 36.5 -4.5c9.33301 0 17.5 1.83301 24.5 5.5s10.833 10.167 11.5 19.5c0.666992 8 -2.5 15.333 -9.5 22s-18.167 11.667 -33.5 15l-12 3c2.66699 7.33301 6 15.833 10 25.5
s8 19.167 12 28.5c-52 2.66699 -94.167 9.66699 -126.5 21s-56.833 21.666 -73.5 30.999l44 124c20.667 -11.333 46.167 -21.5 76.5 -30.5s67.5 -13.5 111.5 -13.5z" />
    <glyph glyph-name="scedilla" unicode="&#x15f;" horiz-adv-x="485" 
d="M221 107c27.333 0 46.666 2.66992 57.999 8.00293s17 15.666 17 30.999c0 12 -7.33301 22.5 -22 31.5s-37 19.167 -67 30.5c-23.333 8.66699 -44.5 17.667 -63.5 27s-35.167 20.5 -48.5 33.5s-23.666 28.5 -30.999 46.5s-11 39.667 -11 65c0 49.333 18.333 88.333 55 117
s87 43 151 43c32 0 62.667 -2.83301 92 -8.5s52.666 -11.834 69.999 -18.501l-26 -116c-17.333 6 -36.166 11.333 -56.499 16s-43.166 7 -68.499 7c-46.667 0 -70 -13 -70 -39c0 -6 1 -11.333 3 -16s6 -9.16699 12 -13.5s14.167 -9 24.5 -14s23.5 -10.5 39.5 -16.5
c32.667 -12 59.667 -23.833 81 -35.5s38.166 -24.334 50.499 -38.001s21 -28.834 26 -45.501s7.5 -36 7.5 -58c0 -43.333 -13.667 -77.833 -41 -103.5s-66.333 -42.167 -117 -49.5c-3.33301 -5.33301 -6.16602 -10.833 -8.49902 -16.5s-4.16602 -10.5 -5.49902 -14.5
c21.333 -10.667 36 -23.334 44 -38.001s12 -29.667 12 -45c0 -32 -12.667 -56.333 -38 -73s-58.666 -25 -99.999 -25c-14.667 0 -29.334 1.16699 -44.001 3.5s-29.334 5.5 -44.001 9.5l18 87c4.66699 -1.33301 13.167 -3.5 25.5 -6.5s24.5 -4.5 36.5 -4.5
c9.33301 0 17.5 1.83301 24.5 5.5s10.833 10.167 11.5 19.5c0.666992 8 -2.5 15.333 -9.5 22s-18.167 11.667 -33.5 15l-12 3c2.66699 7.33301 6 15.833 10 25.5s8 19.167 12 28.5c-37.333 2.66699 -68.333 7.33398 -93 14.001s-42.334 12.334 -53.001 17.001l25 121
c25.333 -10 51.333 -17.833 78 -23.5s53 -8.5 79 -8.5z" />
    <glyph glyph-name="Scaron" unicode="&#x160;" horiz-adv-x="582" 
d="M269 119c22 0 40.167 1.83105 54.5 5.49805s25.833 8.66699 34.5 15s14.667 13.833 18 22.5s5 18.334 5 29.001c0 22.667 -10.667 41.5 -32 56.5s-58 31.167 -110 48.5c-22.667 8 -45.334 17.167 -68.001 27.5s-43 23.333 -61 39s-32.667 34.667 -44 57
s-17 49.5 -17 81.5s6 60.833 18 86.5s29 47.5 51 65.5s48.667 31.833 80 41.5s66.666 14.5 105.999 14.5c46.667 0 87 -5 121 -15s62 -21 84 -33l-45 -123c-19.333 10 -40.833 18.833 -64.5 26.5s-52.167 11.5 -85.5 11.5c-37.333 0 -64.166 -5.16699 -80.499 -15.5
s-24.5 -26.166 -24.5 -47.499c0 -12.667 3 -23.334 9 -32.001s14.5 -16.5 25.5 -23.5s23.667 -13.333 38 -19s30.166 -11.5 47.499 -17.5c36 -13.333 67.333 -26.5 94 -39.5s48.834 -28.167 66.501 -45.5s30.834 -37.666 39.501 -60.999s13 -51.666 13 -84.999
c0 -64.667 -22.667 -114.834 -68 -150.501s-113.666 -53.5 -204.999 -53.5c-30.667 0 -58.334 1.83301 -83.001 5.5s-46.5 8.16699 -65.5 13.5s-35.333 11 -49 17s-25.167 11.667 -34.5 17l44 124c20.667 -11.333 46.167 -21.5 76.5 -30.5s67.5 -13.5 111.5 -13.5z
M150 883.998l55 66l100 -77l100 77l57 -66l-157 -137z" />
    <glyph glyph-name="scaron" unicode="&#x161;" horiz-adv-x="485" 
d="M221 107c27.333 0 46.666 2.6709 57.999 8.00391s17 15.666 17 30.999c0 12 -7.33301 22.5 -22 31.5s-37 19.167 -67 30.5c-23.333 8.66699 -44.5 17.667 -63.5 27s-35.167 20.5 -48.5 33.5s-23.666 28.5 -30.999 46.5s-11 39.667 -11 65c0 49.333 18.333 88.333 55 117
s87 43 151 43c32 0 62.667 -2.83301 92 -8.5s52.666 -11.834 69.999 -18.501l-26 -116c-17.333 6 -36.166 11.333 -56.499 16s-43.166 7 -68.499 7c-46.667 0 -70 -13 -70 -39c0 -6 1 -11.333 3 -16s6 -9.16699 12 -13.5s14.167 -9 24.5 -14s23.5 -10.5 39.5 -16.5
c32.667 -12 59.667 -23.833 81 -35.5s38.166 -24.334 50.499 -38.001s21 -28.834 26 -45.501s7.5 -36 7.5 -58c0 -52 -19.5 -91.333 -58.5 -118s-94.167 -40 -165.5 -40c-46.667 0 -85.5 4 -116.5 12s-52.5 14.667 -64.5 20l25 121c25.333 -10 51.333 -17.833 78 -23.5
s53 -8.5 79 -8.5zM104 723.004l55 66l100 -77l100 77l57 -66l-157 -137z" />
    <glyph glyph-name="uni0162" unicode="&#x162;" horiz-adv-x="614" 
d="M594 693l0.000976562 -132.999h-209v-560h-32c-3.33301 -7.33301 -6.66602 -14.5 -9.99902 -21.5s-6 -13.167 -8 -18.5c21.333 -10.667 36 -23.334 44 -38.001s12 -29.667 12 -45c0 -32 -12.667 -56.333 -38 -73s-58.666 -25 -99.999 -25
c-14.667 0 -29.334 1.16699 -44.001 3.5s-29.334 5.5 -44.001 9.5l18 87c4.66699 -1.33301 13.167 -3.5 25.5 -6.5s24.5 -4.5 36.5 -4.5c9.33301 0 17.5 1.83301 24.5 5.5s10.833 10.167 11.5 19.5c0.666992 8 -2.5 15.333 -9.5 22s-18.167 11.667 -33.5 15l-12 3
c3.33301 9.33301 7.66602 20.333 12.999 33s10.333 24 15 34h-25v560h-209v133h574z" />
    <glyph glyph-name="uni0163" unicode="&#x163;" horiz-adv-x="444" 
d="M65 657l149.001 24.002v-155h179v-124h-179v-185c0 -31.333 5.5 -56.333 16.5 -75s33.167 -28 66.5 -28c16 0 32.5 1.5 49.5 4.5s32.5 7.16699 46.5 12.5l21 -116c-13.333 -5.33301 -27.833 -10.166 -43.5 -14.499s-33.167 -7.5 -52.5 -9.5l-13 -31
c21.333 -10.667 36 -23.334 44 -38.001s12 -29.667 12 -45c0 -32 -12.667 -56.333 -38 -73s-58.666 -25 -99.999 -25c-14.667 0 -29.334 1.16699 -44.001 3.5s-29.334 5.5 -44.001 9.5l18 87c4.66699 -1.33301 13.167 -3.5 25.5 -6.5s24.5 -4.5 36.5 -4.5
c9.33301 0 17.5 1.83301 24.5 5.5s10.833 10.167 11.5 19.5c0.666992 8 -2.5 15.333 -9.5 22s-18.167 11.667 -33.5 15l-12 3c2.66699 8 6.16699 17.5 10.5 28.5s8.83301 21.167 13.5 30.5c-30 4.66699 -55 13.167 -75 25.5s-35.833 28.166 -47.5 47.499
s-20 41.666 -25 66.999s-7.5 53 -7.5 83v442z" />
    <glyph glyph-name="Tcaron" unicode="&#x164;" horiz-adv-x="614" 
d="M594 693v-133h-209v-560h-156v560h-209v133h574zM151 884l55 66l100 -77l100 77l57 -66l-157 -137z" />
    <glyph glyph-name="tcaron" unicode="&#x165;" horiz-adv-x="444" 
d="M65 657l149.001 23.999v-155h179v-124h-179v-185c0 -31.333 5.5 -56.333 16.5 -75s33.167 -28 66.5 -28c16 0 32.5 1.5 49.5 4.5s32.5 7.16699 46.5 12.5l21 -116c-18 -7.33301 -38 -13.666 -60 -18.999s-49 -8 -81 -8c-40.667 0 -74.334 5.5 -101.001 16.5
s-48 26.333 -64 46s-27.167 43.5 -33.5 71.5s-9.5 59 -9.5 93v442zM393.001 775.999l-33 -191h-86v191h119z" />
    <glyph glyph-name="Tbar" unicode="&#x166;" horiz-adv-x="614" 
d="M594 693v-133h-209v-183h141v-110h-141v-267h-156v267h-141v110h141v183h-209v133h574z" />
    <glyph glyph-name="tbar" unicode="&#x167;" horiz-adv-x="444" 
d="M65 657l149.001 23.999v-155h179v-124h-179v-81h178v-93h-178v-11c0 -31.333 5.5 -56.333 16.5 -75s33.167 -28 66.5 -28c16 0 32.5 1.5 49.5 4.5s32.5 7.16699 46.5 12.5l21 -116c-18 -7.33301 -38 -13.666 -60 -18.999s-49 -8 -81 -8
c-40.667 0 -74.334 5.5 -101.001 16.5s-48 26.333 -64 46s-27.167 43.5 -33.5 71.5s-9.5 59 -9.5 93v442z" />
    <glyph glyph-name="Utilde" unicode="&#x168;" horiz-adv-x="707" 
d="M351 -14c-48.667 0 -90.6689 6.83008 -126.002 20.4971s-64.5 32.667 -87.5 57s-40 53.333 -51 87s-16.5 70.834 -16.5 111.501v431h156v-418c0 -28 3.16699 -51.833 9.5 -71.5s15 -35.667 26 -48s24.333 -21.166 40 -26.499s32.834 -8 51.501 -8
c38 0 68.833 11.667 92.5 35s35.5 63 35.5 119v418h156v-431c0 -40.667 -5.66699 -78 -17 -112s-28.666 -63.167 -51.999 -87.5s-53 -43.166 -89 -56.499s-78.667 -20 -128 -20zM540.998 871.997c-4 -10 -9.5 -21 -16.5 -33s-15.5 -23.167 -25.5 -33.5
s-21.333 -18.833 -34 -25.5s-26.667 -10 -42 -10c-12 0 -23.167 1.83301 -33.5 5.5s-20.5 7.66699 -30.5 12s-20 8.33301 -30 12s-20.333 5.5 -31 5.5c-13.333 0 -24.333 -4.33301 -33 -13s-15.667 -18.667 -21 -30l-73 48c4 10 9.5 21 16.5 33s15.5 23.167 25.5 33.5
s21.333 18.833 34 25.5s26.667 10 42 10c12 0 23.167 -1.83301 33.5 -5.5s20.5 -7.66699 30.5 -12s19.833 -8.33301 29.5 -12s20.167 -5.5 31.5 -5.5c13.333 0 24.333 4.33301 33 13s15.667 18.667 21 30z" />
    <glyph glyph-name="utilde" unicode="&#x169;" 
d="M519 18c-25.333 -7.33301 -58.001 -14.167 -98.001 -20.5s-82 -9.5 -126 -9.5c-44.667 0 -81.834 6 -111.501 18s-53.167 28.833 -70.5 50.5s-29.666 47.5 -36.999 77.5s-11 63 -11 99v293h149v-275c0 -48 6.33301 -82.667 19 -104s36.334 -32 71.001 -32
c10.667 0 22 0.5 34 1.5s22.667 2.16699 32 3.5v406h149v-508zM477.999 708.999c-4 -10 -9.5 -21 -16.5 -33s-15.5 -23.167 -25.5 -33.5s-21.333 -18.833 -34 -25.5s-26.667 -10 -42 -10c-12 0 -23.167 1.83301 -33.5 5.5s-20.5 7.66699 -30.5 12s-20 8.33301 -30 12
s-20.333 5.5 -31 5.5c-13.333 0 -24.333 -4.33301 -33 -13s-15.667 -18.667 -21 -30l-73 48c4 10 9.5 21 16.5 33s15.5 23.167 25.5 33.5s21.333 18.833 34 25.5s26.667 10 42 10c12 0 23.167 -1.83301 33.5 -5.5s20.5 -7.66699 30.5 -12s19.833 -8.33301 29.5 -12
s20.167 -5.5 31.5 -5.5c13.333 0 24.333 4.33301 33 13s15.667 18.667 21 30z" />
    <glyph glyph-name="Umacron" unicode="&#x16a;" horiz-adv-x="707" 
d="M351 -14c-48.667 0 -90.6689 6.83008 -126.002 20.4971s-64.5 32.667 -87.5 57s-40 53.333 -51 87s-16.5 70.834 -16.5 111.501v431h156v-418c0 -28 3.16699 -51.833 9.5 -71.5s15 -35.667 26 -48s24.333 -21.166 40 -26.499s32.834 -8 51.501 -8
c38 0 68.833 11.667 92.5 35s35.5 63 35.5 119v418h156v-431c0 -40.667 -5.66699 -78 -17 -112s-28.666 -63.167 -51.999 -87.5s-53 -43.166 -89 -56.499s-78.667 -20 -128 -20zM191.998 877.997h322v-102h-322v102z" />
    <glyph glyph-name="umacron" unicode="&#x16b;" 
d="M519 18c-25.333 -7.33301 -58.001 -14.167 -98.001 -20.5s-82 -9.5 -126 -9.5c-44.667 0 -81.834 6 -111.501 18s-53.167 28.833 -70.5 50.5s-29.666 47.5 -36.999 77.5s-11 63 -11 99v293h149v-275c0 -48 6.33301 -82.667 19 -104s36.334 -32 71.001 -32
c10.667 0 22 0.5 34 1.5s22.667 2.16699 32 3.5v406h149v-508zM132.999 724.999h322v-102h-322v102z" />
    <glyph glyph-name="Ubreve" unicode="&#x16c;" horiz-adv-x="707" 
d="M351 -14c-48.667 0 -90.6689 6.83008 -126.002 20.4971s-64.5 32.667 -87.5 57s-40 53.333 -51 87s-16.5 70.834 -16.5 111.501v431h156v-418c0 -28 3.16699 -51.833 9.5 -71.5s15 -35.667 26 -48s24.333 -21.166 40 -26.499s32.834 -8 51.501 -8
c38 0 68.833 11.667 92.5 35s35.5 63 35.5 119v418h156v-431c0 -40.667 -5.66699 -78 -17 -112s-28.666 -63.167 -51.999 -87.5s-53 -43.166 -89 -56.499s-78.667 -20 -128 -20zM352.998 750.997c-23.333 0 -44.835 3.66699 -64.502 11s-36.667 17.666 -51 30.999
s-25.666 29.833 -33.999 49.5s-12.5 41.834 -12.5 66.501v8h101c2 -28 8.66699 -46.833 20 -56.5s25 -14.5 41 -14.5s29.667 4.83301 41 14.5s18 28.5 20 56.5h101v-8c0 -24.667 -4.16699 -46.834 -12.5 -66.501s-19.666 -36.167 -33.999 -49.5s-31.5 -23.666 -51.5 -30.999
s-41.333 -11 -64 -11z" />
    <glyph glyph-name="ubreve" unicode="&#x16d;" 
d="M519 18c-25.333 -7.33301 -58.001 -14.167 -98.001 -20.5s-82 -9.5 -126 -9.5c-44.667 0 -81.834 6 -111.501 18s-53.167 28.833 -70.5 50.5s-29.666 47.5 -36.999 77.5s-11 63 -11 99v293h149v-275c0 -48 6.33301 -82.667 19 -104s36.334 -32 71.001 -32
c10.667 0 22 0.5 34 1.5s22.667 2.16699 32 3.5v406h149v-508zM294.999 597.999c-23.333 0 -44.835 3.66699 -64.502 11s-36.667 17.666 -51 30.999s-25.666 29.833 -33.999 49.5s-12.5 41.834 -12.5 66.501v8h101c2 -28 8.66699 -46.833 20 -56.5s25 -14.5 41 -14.5
s29.667 4.83301 41 14.5s18 28.5 20 56.5h101v-8c0 -24.667 -4.16699 -46.834 -12.5 -66.501s-19.666 -36.167 -33.999 -49.5s-31.5 -23.666 -51.5 -30.999s-41.333 -11 -64 -11z" />
    <glyph glyph-name="Uring" unicode="&#x16e;" horiz-adv-x="707" 
d="M351 -14c-48.667 0 -90.6689 6.83008 -126.002 20.4971s-64.5 32.667 -87.5 57s-40 53.333 -51 87s-16.5 70.834 -16.5 111.501v431h156v-418c0 -28 3.16699 -51.833 9.5 -71.5s15 -35.667 26 -48s24.333 -21.166 40 -26.499s32.834 -8 51.501 -8
c38 0 68.833 11.667 92.5 35s35.5 63 35.5 119v418h156v-431c0 -40.667 -5.66699 -78 -17 -112s-28.666 -63.167 -51.999 -87.5s-53 -43.166 -89 -56.499s-78.667 -20 -128 -20zM470.998 833.997c0 -18.667 -3.16699 -35.167 -9.5 -49.5s-15 -26.333 -26 -36
s-23.667 -17 -38 -22s-29.5 -7.5 -45.5 -7.5c-15.333 0 -30 2.5 -44 7.5s-26.5 12.333 -37.5 22s-19.667 21.667 -26 36s-9.5 30.833 -9.5 49.5s3.16699 35.167 9.5 49.5s15 26.333 26 36s23.5 17 37.5 22s28.667 7.5 44 7.5c16 0 31.167 -2.5 45.5 -7.5s27 -12.333 38 -22
s19.667 -21.667 26 -36s9.5 -30.833 9.5 -49.5zM397.998 833.997c0 15.333 -4.66699 27 -14 35s-20 12 -32 12c-11.333 0 -21.666 -4 -30.999 -12s-14 -19.667 -14 -35s4.66699 -27 14 -35s19.666 -12 30.999 -12c12 0 22.667 4 32 12s14 19.667 14 35z" />
    </font>
</defs>
</svg>
