<?xml version="1.0" standalone="no"?>
<!DOCTYPE svg PUBLIC "-//W3C//DTD SVG 1.1//EN" "http://www.w3.org/Graphics/SVG/1.1/DTD/svg11.dtd" >
<svg version="1.1" xmlns="http://www.w3.org/2000/svg">
<metadata>
Created by FontForge 20120731 at Tue Aug 26 09:13:23 2014

Copyright 2011 Canonical Ltd.  Licensed under the Ubuntu Font Licence 1.0
</metadata>
<defs>
<font id="ubuntu" horiz-adv-x="560" >
  <font-face 
    font-family="Ubuntu"
    font-weight="700"
    font-style="italic"
    font-stretch="normal"
    units-per-em="1000"
    panose-1="2 11 8 4 3 6 2 10 2 4"
    ascent="800"
    descent="-200"
    x-height="526"
    cap-height="693"
    bbox="-253 -221.002 3521 962.004"
    underline-thickness="120"
    underline-position="-63"
    slope="-13"
    unicode-range="U+0008-FB04"
  />
<missing-glyph horiz-adv-x="500" 
d="M50 0v750h400v-750h-400zM400 50v650h-300v-650h300z" />
    <glyph glyph-name="f_f" unicode="ff" horiz-adv-x="854" 
d="M478 776c30 0 56.1709 -3.16895 78.5039 -9.50195s39.166 -12.166 50.499 -17.499l-50 -117c-12 6 -25.833 10.5 -41.5 13.5s-30.167 4.5 -43.5 4.5c-36.667 0 -63.834 -9.33301 -81.501 -28s-29.834 -42 -36.501 -70l-6 -26h176l-30 -122h-175l-61 -255
c-22.667 -95.333 -47.334 -169.5 -74.001 -222.5s-56 -91.5 -88 -115.5l-133 19c17.333 16 33.333 35.667 48 59s27.834 48 39.501 74s21.667 52.5 30 79.5s15.166 52.167 20.499 75.5l104 436c16.667 70.667 46.667 125.334 90 164.001s104.333 58 183 58zM895.004 775.998
c30 0 56.1709 -3.16895 78.5039 -9.50195s39.166 -12.166 50.499 -17.499l-50 -117c-12 6 -25.833 10.5 -41.5 13.5s-30.167 4.5 -43.5 4.5c-36.667 0 -63.834 -9.33301 -81.501 -28s-29.834 -42 -36.501 -70l-6 -26h176l-30 -122h-175l-61 -255
c-22.667 -95.333 -47.334 -169.5 -74.001 -222.5s-56 -91.5 -88 -115.5l-133 19c17.333 16 33.333 35.667 48 59s27.834 48 39.501 74s21.667 52.5 30 79.5s15.166 52.167 20.499 75.5l104 436c16.667 70.667 46.667 125.334 90 164.001s104.333 58 183 58z" />
    <glyph glyph-name="f_i" unicode="fi" horiz-adv-x="702" 
d="M637 0h-148l125 526h149zM709 590c-20.667 0 -39.334 6.16699 -56.001 18.5s-25 31.166 -25 56.499c0 14 2.83301 27.167 8.5 39.5s13.167 23 22.5 32s20.166 16.167 32.499 21.5s25.5 8 39.5 8c20.667 0 39.334 -6.16699 56.001 -18.5s25 -31.166 25 -56.499
c0 -14 -2.83301 -27.167 -8.5 -39.5s-13.167 -23 -22.5 -32s-20.166 -16.167 -32.499 -21.5s-25.5 -8 -39.5 -8zM479 776c30 0 54.3359 -2.33301 73.0029 -7s33.667 -9.66699 45 -15l-53 -116c-12 3.33301 -23.5 6.16602 -34.5 8.49902s-23.167 3.5 -36.5 3.5
c-36.667 0 -63.834 -9.33301 -81.501 -28s-29.834 -42 -36.501 -70l-6 -26h176l-30 -122h-175l-61 -255c-22.667 -95.333 -47.334 -169.5 -74.001 -222.5s-56 -91.5 -88 -115.5l-133 19c17.333 16 33.333 35.667 48 59s27.834 48 39.501 74s21.667 52.5 30 79.5
s15.166 52.167 20.499 75.5l104 436c16.667 70.667 46.667 125.334 90 164.001s104.333 58 183 58z" />
    <glyph glyph-name="f_l" unicode="fl" horiz-adv-x="714" 
d="M687 -10c-47.333 0 -84.498 6.16895 -111.498 18.502s-46.333 29.166 -58 50.499s-17.334 45.833 -17.001 73.5s4.16602 57.167 11.499 88.5l127 531l155 24l-139 -576c-2.66699 -12 -4.16699 -23 -4.5 -33s1.5 -18.833 5.5 -26.5s10.833 -13.834 20.5 -18.501
s23.167 -7.66699 40.5 -9zM479.002 776.002c30 0 54.3359 -2.33301 73.0029 -7s33.667 -9.66699 45 -15l-53 -116c-12 3.33301 -23.5 6.16602 -34.5 8.49902s-23.167 3.5 -36.5 3.5c-36.667 0 -63.834 -9.33301 -81.501 -28s-29.834 -42 -36.501 -70l-6 -26h176l-30 -122
h-175l-61 -255c-22.667 -95.333 -47.334 -169.5 -74.001 -222.5s-56 -91.5 -88 -115.5l-133 19c17.333 16 33.333 35.667 48 59s27.834 48 39.501 74s21.667 52.5 30 79.5s15.166 52.167 20.499 75.5l104 436c16.667 70.667 46.667 125.334 90 164.001s104.333 58 183 58z
" />
    <glyph glyph-name="f_f_i" unicode="ffi" horiz-adv-x="1120" 
d="M477 776c30 0 56.1709 -3.16895 78.5039 -9.50195s39.166 -12.166 50.499 -17.499l-50 -117c-12 6 -25.833 10.5 -41.5 13.5s-30.167 4.5 -43.5 4.5c-36.667 0 -63.834 -9.33301 -81.501 -28s-29.834 -42 -36.501 -70l-6 -26h176l-30 -122h-175l-61 -255
c-22.667 -95.333 -47.334 -169.5 -74.001 -222.5s-56 -91.5 -88 -115.5l-133 19c17.333 16 33.333 35.667 48 59s27.834 48 39.501 74s21.667 52.5 30 79.5s15.166 52.167 20.499 75.5l104 436c16.667 70.667 46.667 125.334 90 164.001s104.333 58 183 58z
M1055 -0.00195312h-148l125 526h149zM1127 589.998c-20.667 0 -39.334 6.16699 -56.001 18.5s-25 31.166 -25 56.499c0 14 2.83301 27.167 8.5 39.5s13.167 23 22.5 32s20.166 16.167 32.499 21.5s25.5 8 39.5 8c20.667 0 39.334 -6.16699 56.001 -18.5
s25 -31.166 25 -56.499c0 -14 -2.83301 -27.167 -8.5 -39.5s-13.167 -23 -22.5 -32s-20.166 -16.167 -32.499 -21.5s-25.5 -8 -39.5 -8zM897.004 775.998c30 0 54.3359 -2.33301 73.0029 -7s33.667 -9.66699 45 -15l-53 -116c-12 3.33301 -23.5 6.16602 -34.5 8.49902
s-23.167 3.5 -36.5 3.5c-36.667 0 -63.834 -9.33301 -81.501 -28s-29.834 -42 -36.501 -70l-6 -26h176l-30 -122h-175l-61 -255c-22.667 -95.333 -47.334 -169.5 -74.001 -222.5s-56 -91.5 -88 -115.5l-133 19c17.333 16 33.333 35.667 48 59s27.834 48 39.501 74
s21.667 52.5 30 79.5s15.166 52.167 20.499 75.5l104 436c16.667 70.667 46.667 125.334 90 164.001s104.333 58 183 58z" />
    <glyph glyph-name="f_f_l" unicode="ffl" horiz-adv-x="1153" 
d="M477 776c30 0 56.1709 -3.16895 78.5039 -9.50195s39.166 -12.166 50.499 -17.499l-50 -117c-12 6 -25.833 10.5 -41.5 13.5s-30.167 4.5 -43.5 4.5c-36.667 0 -63.834 -9.33301 -81.501 -28s-29.834 -42 -36.501 -70l-6 -26h176l-30 -122h-175l-61 -255
c-22.667 -95.333 -47.334 -169.5 -74.001 -222.5s-56 -91.5 -88 -115.5l-133 19c17.333 16 33.333 35.667 48 59s27.834 48 39.501 74s21.667 52.5 30 79.5s15.166 52.167 20.499 75.5l104 436c16.667 70.667 46.667 125.334 90 164.001s104.333 58 183 58zM1106 -10.002
c-47.333 0 -84.498 6.16895 -111.498 18.502s-46.333 29.166 -58 50.499s-17.334 45.833 -17.001 73.5s4.16602 57.167 11.499 88.5l127 531l155 24l-139 -576c-2.66699 -12 -4.16699 -23 -4.5 -33s1.5 -18.833 5.5 -26.5s10.833 -13.834 20.5 -18.501
s23.167 -7.66699 40.5 -9zM898.006 776c30 0 54.3359 -2.33301 73.0029 -7s33.667 -9.66699 45 -15l-53 -116c-12 3.33301 -23.5 6.16602 -34.5 8.49902s-23.167 3.5 -36.5 3.5c-36.667 0 -63.834 -9.33301 -81.501 -28s-29.834 -42 -36.501 -70l-6 -26h176l-30 -122h-175
l-61 -255c-22.667 -95.333 -47.334 -169.5 -74.001 -222.5s-56 -91.5 -88 -115.5l-133 19c17.333 16 33.333 35.667 48 59s27.834 48 39.501 74s21.667 52.5 30 79.5s15.166 52.167 20.499 75.5l104 436c16.667 70.667 46.667 125.334 90 164.001s104.333 58 183 58z" />
    <glyph glyph-name=".notdef" horiz-adv-x="500" 
d="M50 0v750h400v-750h-400zM400 50v650h-300v-650h300z" />
    <glyph glyph-name=".null" horiz-adv-x="0" 
 />
    <glyph glyph-name=".null" horiz-adv-x="0" 
 />
    <glyph glyph-name=".null" horiz-adv-x="0" 
 />
    <glyph glyph-name="nonmarkingreturn" unicode="&#x9;" horiz-adv-x="240" 
 />
    <glyph glyph-name="nonmarkingreturn" unicode="&#xd;" horiz-adv-x="240" 
 />
    <glyph glyph-name="space" unicode=" " horiz-adv-x="240" 
 />
    <glyph glyph-name="exclam" unicode="!" horiz-adv-x="295" 
d="M348 514c-13.333 -54 -27.501 -104.333 -42.501 -151s-31.5 -94 -49.5 -142h-114c5.33301 48 11.333 95.333 18 142s16.334 97 29.001 151l43 179h159zM179.999 171c23.333 0 42.833 -6.66699 58.5 -20s23.5 -33.666 23.5 -60.999c0 -15.333 -2.83301 -29.333 -8.5 -42
s-13.167 -23.5 -22.5 -32.5s-20 -16 -32 -21s-24.333 -7.5 -37 -7.5c-23.333 0 -42.833 6.66699 -58.5 20s-23.5 33.666 -23.5 60.999c0 15.333 2.83301 29.333 8.5 42s13.167 23.5 22.5 32.5s20 16 32 21s24.333 7.5 37 7.5z" />
    <glyph glyph-name="quotedbl" unicode="&#x22;" horiz-adv-x="492" 
d="M374 760l-18.0029 -74c-7.33301 -32 -18.166 -67 -32.499 -105s-29.166 -76.333 -44.499 -115h-99c2.66699 38.667 6.33398 77 11.001 115s10.667 73.333 18 106l18 73h147zM591.997 760l-18.0029 -74c-7.33301 -32 -18.166 -67 -32.499 -105
s-29.166 -76.333 -44.499 -115h-99c2.66699 38.667 6.33398 77 11.001 115s10.667 73.333 18 106l18 73h147z" />
    <glyph glyph-name="numbersign" unicode="#" horiz-adv-x="660" 
d="M379 170h-111l-71 -170h-128l71 170h-69l28 115h89l51 123h-110l28 115h130l72 170h128l-72 -170h111l72 170h128l-72 -170h70l-28 -115h-90l-51 -123h111l-28 -115h-131l-71 -170h-128zM316 285h111l51 123h-111z" />
    <glyph glyph-name="dollar" unicode="$" horiz-adv-x="568" 
d="M282 129c14 0 28.168 0.834961 42.501 2.50195s27.166 5 38.499 10s20.5 12.333 27.5 22s10.5 22.5 10.5 38.5c0 10.667 -2.33301 20 -7 28s-11 15.333 -19 22s-17.167 12.834 -27.5 18.501s-20.833 11.167 -31.5 16.5l-26 13c-42.667 21.333 -73.5 48 -92.5 80
s-28.5 65.333 -28.5 100c0 22 4 43.5 12 64.5s20.167 40.167 36.5 57.5s37.333 31.833 63 43.5s56.167 19.5 91.5 23.5l27 107h126l-28 -110c25.333 -5.33301 48.5 -12.5 69.5 -21.5s38.167 -17.833 51.5 -26.5l-60 -106c-17.333 13.333 -38.333 23.5 -63 30.5
s-48.667 10.5 -72 10.5c-28.667 0 -53.334 -5.33301 -74.001 -16s-31 -27.334 -31 -50.001c0 -9.33301 1.33301 -17.666 4 -24.999s7.16699 -14.333 13.5 -21s14.833 -13.5 25.5 -20.5s24.334 -14.5 41.001 -22.5c19.333 -10 37.833 -20.5 55.5 -31.5
s33.334 -23.833 47.001 -38.5s24.667 -31.334 33 -50.001s12.5 -40.667 12.5 -66c0 -31.333 -5 -58.666 -15 -81.999s-24.167 -43.333 -42.5 -60s-40.333 -29.834 -66 -39.501s-54.167 -16.167 -85.5 -19.5l-29 -120h-126l30 122c-36 5.33301 -66.667 13.666 -92 24.999
s-44 21.333 -56 30l61 110c7.33301 -5.33301 16.333 -10.833 27 -16.5s22.667 -10.834 36 -15.501s27.666 -8.66699 42.999 -12s31 -5 47 -5z" />
    <glyph glyph-name="percent" unicode="%" horiz-adv-x="870" 
d="M281 417c10.667 0 20.999 3.16895 30.999 9.50195s18.833 15.666 26.5 27.999s13.834 27.166 18.501 44.499s7 37 7 59c0 18 -4.5 31.833 -13.5 41.5s-20.5 14.5 -34.5 14.5c-10.667 0 -21.167 -3.33301 -31.5 -10s-19.5 -16 -27.5 -28s-14.5 -26.833 -19.5 -44.5
s-7.5 -37.5 -7.5 -59.5c0 -18 5 -31.667 15 -41s22 -14 36 -14zM711.999 693.002h144l-558 -693h-144zM323.999 709.002c22 0 42.167 -3 60.5 -9s34.166 -15.167 47.499 -27.5s23.666 -27.666 30.999 -45.999s11 -39.833 11 -64.5c0 -38 -5.66699 -71.833 -17 -101.5
s-26.5 -54.834 -45.5 -75.501s-40.833 -36.5 -65.5 -47.5s-50 -16.5 -76 -16.5c-22 0 -42.167 3 -60.5 9s-34.166 15.167 -47.499 27.5s-23.666 27.666 -30.999 45.999s-11 39.833 -11 64.5c0 38 5.66699 71.833 17 101.5s26.5 54.834 45.5 75.501s40.833 36.5 65.5 47.5
s50 16.5 76 16.5zM696.999 80.002c10.667 0 20.999 3.16895 30.999 9.50195s18.833 15.666 26.5 27.999s13.834 27.166 18.501 44.499s7 37 7 59c0 18 -4.5 31.833 -13.5 41.5s-20.5 14.5 -34.5 14.5c-10.667 0 -21.167 -3.33301 -31.5 -10s-19.5 -16 -27.5 -28
s-14.5 -26.833 -19.5 -44.5s-7.5 -37.5 -7.5 -59.5c0 -18 5 -31.667 15 -41s22 -14 36 -14zM739.998 372.004c22 0 42.167 -3 60.5 -9s34.166 -15.167 47.499 -27.5s23.666 -27.666 30.999 -45.999s11 -39.833 11 -64.5c0 -38 -5.66699 -71.833 -17 -101.5
s-26.5 -54.834 -45.5 -75.501s-40.833 -36.5 -65.5 -47.5s-50 -16.5 -76 -16.5c-22 0 -42.167 3 -60.5 9s-34.166 15.167 -47.499 27.5s-23.666 27.666 -30.999 45.999s-11 39.833 -11 64.5c0 38 5.66699 71.833 17 101.5s26.5 54.834 45.5 75.501s40.833 36.5 65.5 47.5
s50 16.5 76 16.5z" />
    <glyph glyph-name="ampersand" unicode="&#x26;" horiz-adv-x="663" 
d="M80 157c0 50 12.9951 93.165 38.9951 129.498s68 67.5 126 93.5l17 8c-13.333 22 -23.166 43.833 -29.499 65.5s-9.5 42.834 -9.5 63.501c0 26.667 5.16699 51.834 15.5 75.501s25.333 44 45 61s43.334 30.5 71.001 40.5s58.834 15 93.501 15
c28.667 0 54 -3.83301 76 -11.5s40.167 -17.834 54.5 -30.501s25.166 -27.5 32.499 -44.5s11 -34.833 11 -53.5c0 -16.667 -3 -34 -9 -52s-14.833 -35.667 -26.5 -53s-26.5 -33.666 -44.5 -48.999s-39 -28.333 -63 -39l-37 -17l84 -112c16.667 27.333 32 61 46 101l131 -17
c-28.667 -72.667 -62.334 -134 -101.001 -184c17.333 -24.667 32.833 -49.334 46.5 -74.001s26.167 -49 37.5 -73h-151c-4 8.66699 -8.5 17.667 -13.5 27s-10.167 19 -15.5 29c-63.333 -43.333 -135.666 -65 -216.999 -65c-35.333 0 -66.166 4.66699 -92.499 14
s-48.166 21.833 -65.499 37.5s-30.166 33.334 -38.499 53.001s-12.5 40.167 -12.5 61.5zM307.995 106.998c17.333 0 37.333 2.83398 60 8.50098s46.667 17.167 72 34.5l-117 154l-15 -7c-28 -12.667 -48.333 -29.334 -61 -50.001s-19 -41 -19 -61
c0 -21.333 6.83301 -39.833 20.5 -55.5s33.5 -23.5 59.5 -23.5zM354.995 512.999c0 -18.667 8.66699 -42.334 26 -71.001l12 5c32 14.667 56.833 30.5 74.5 47.5s26.5 37.167 26.5 60.5c0 12.667 -4.66699 23.834 -14 33.501s-24 14.5 -44 14.5s-38.5 -7.5 -55.5 -22.5
s-25.5 -37.5 -25.5 -67.5z" />
    <glyph glyph-name="quotesingle" unicode="'" horiz-adv-x="274" 
d="M374 760l-18.0029 -74c-7.33301 -32 -18.166 -67 -32.499 -105s-29.166 -76.333 -44.499 -115h-99c2.66699 38.667 6.33398 77 11.001 115s10.667 73.333 18 106l18 73h147z" />
    <glyph glyph-name="parenleft" unicode="(" horiz-adv-x="356" 
d="M501 716c-38 -41.333 -72.666 -84.833 -103.999 -130.5s-58.333 -93.167 -81 -142.5s-40.334 -100.166 -53.001 -152.499s-19 -105.5 -19 -159.5c0 -42 4 -83.5 12 -124.5s20.667 -82.5 38 -124.5l-110 -67c-30 50 -51.833 101.667 -65.5 155s-20.5 108.333 -20.5 165
c0 60 7.5 119.667 22.5 179s36 116.833 63 172.5s59.333 108.667 97 159s79.167 96.166 124.5 137.499z" />
    <glyph glyph-name="parenright" unicode=")" horiz-adv-x="356" 
d="M-24 -117c38 40.667 72.833 83.8311 104.5 129.498s58.667 93.334 81 143.001s39.833 100.667 52.5 153s19 105.5 19 159.5c0 42 -4 83.5 -12 124.5s-20.667 82.5 -38 124.5l110 67c30 -50 51.833 -101.667 65.5 -155s20.5 -108.333 20.5 -165
c0 -60 -7.5 -119.667 -22.5 -179s-36 -116.833 -63 -172.5s-59.333 -108.667 -97 -159s-79.167 -96.166 -124.5 -137.499z" />
    <glyph glyph-name="asterisk" unicode="*" horiz-adv-x="502" 
d="M373 536c6.66699 6 14.9941 12.5 24.9941 19.5s20.167 14 30.5 21s20.833 13.333 31.5 19s20 9.83398 28 12.501l24 8l40 -124l-24 -8c-8.66699 -2.66699 -18.667 -4.66699 -30 -6s-23.333 -2.16602 -36 -2.49902s-25 -0.5 -37 -0.5h-32
c8 -5.33301 16.833 -11.5 26.5 -18.5s19.334 -14.333 29.001 -22s18.834 -15.5 27.501 -23.5s15.667 -15.667 21 -23l16 -21l-106 -75l-15 20c-5.33301 6.66699 -10.5 15.334 -15.5 26.001s-9.83301 21.834 -14.5 33.501s-8.66699 23.167 -12 34.5
s-6.33301 21.666 -9 30.999c-2.66699 -9.33301 -5.66699 -19.666 -9 -30.999s-7.33301 -22.833 -12 -34.5s-9.5 -22.834 -14.5 -33.501s-10.167 -19.334 -15.5 -26.001l-15 -20l-106 75l16 21c5.33301 7.33301 12.333 15 21 23s17.834 15.833 27.501 23.5
s19.334 15 29.001 22s18.5 13.167 26.5 18.5h-32c-12 0 -24.333 0.166992 -37 0.5s-24.667 1.16602 -36 2.49902s-21.333 3.33301 -30 6l-24 8l40 124l24 -8c8 -2.66699 17.333 -6.83398 28 -12.501s21.167 -12 31.5 -19s20.333 -14 30 -21s18.167 -13.5 25.5 -19.5
c-3.33301 8.66699 -6.83301 18.834 -10.5 30.501s-7.16699 23.5 -10.5 35.5s-6.16602 23.833 -8.49902 35.5s-3.5 21.834 -3.5 30.501v25h130v-25c0 -8.66699 -1.16699 -18.834 -3.5 -30.501s-5.16602 -23.5 -8.49902 -35.5s-6.83301 -23.833 -10.5 -35.5
s-7.16699 -21.834 -10.5 -30.501z" />
    <glyph glyph-name="plus" unicode="+" horiz-adv-x="568" 
d="M126 361h167l44 185h136l-44 -185h167l-31 -125h-167l-44 -185h-136l44 185h-167z" />
    <glyph glyph-name="comma" unicode="," horiz-adv-x="251" 
d="M241 152c-2 -58 -16.498 -113 -43.498 -165s-59.833 -102 -98.5 -150l-109 29c25.333 44 46.666 89.667 63.999 137s27.666 97 30.999 149h156z" />
    <glyph glyph-name="hyphen" unicode="-" horiz-adv-x="343" 
d="M106 366h290l-33 -135h-290z" />
    <glyph glyph-name="period" unicode="." horiz-adv-x="252" 
d="M160 171c23.333 0 42.833 -6.5 58.5 -19.5s23.5 -33.5 23.5 -61.5c0 -15.333 -2.83301 -29.333 -8.5 -42s-13.167 -23.5 -22.5 -32.5s-20 -16 -32 -21s-24.333 -7.5 -37 -7.5c-23.333 0 -42.833 6.5 -58.5 19.5s-23.5 33.5 -23.5 61.5c0 15.333 2.83301 29.333 8.5 42
s13.167 23.5 22.5 32.5s20 16 32 21s24.333 7.5 37 7.5z" />
    <glyph glyph-name="slash" unicode="/" horiz-adv-x="436" 
d="M62 -185h-152l560 968h151z" />
    <glyph glyph-name="zero" unicode="0" horiz-adv-x="568" 
d="M298 114c21.333 0 40.999 6.33496 58.999 19.002s33.833 29.334 47.5 50.001s25.667 44.167 36 70.5s18.833 53.166 25.5 80.499s11.667 54 15 80s5 49 5 69c0 34 -5.16699 59 -15.5 75s-26.166 24 -47.499 24c-22 0 -42 -6.33301 -60 -19s-34 -29.334 -48 -50.001
s-26.167 -44.334 -36.5 -71.001s-18.833 -53.667 -25.5 -81s-11.667 -54 -15 -80s-5 -49 -5 -69c0 -34.667 5.33301 -59.667 16 -75s27 -23 49 -23zM274.999 -13.998c-32.667 0 -60.334 5.83301 -83.001 17.5s-41.167 27.167 -55.5 46.5s-24.666 41.166 -30.999 65.499
s-9.5 49.5 -9.5 75.5c0 76 8.5 145.667 25.5 209s40.667 118 71 164s66.833 81.667 109.5 107s90 38 142 38c32.667 0 60.334 -5.83301 83.001 -17.5s41.167 -27.167 55.5 -46.5s24.666 -41.166 30.999 -65.499s9.5 -49.5 9.5 -75.5c0 -76 -8.5 -145.667 -25.5 -209
s-40.667 -118 -71 -164s-66.833 -81.667 -109.5 -107s-90 -38 -142 -38z" />
    <glyph glyph-name="one" unicode="1" horiz-adv-x="568" 
d="M200 549c21.333 8 43.666 17.168 66.999 27.501s46.5 21.666 69.5 33.999s45.5 25.333 67.5 39s42 28.167 60 43.5h104l-167 -693h-149l120 499c-23.333 -13.333 -48.666 -25.5 -75.999 -36.5s-53.333 -20.5 -78 -28.5z" />
    <glyph glyph-name="two" unicode="2" horiz-adv-x="568" 
d="M435 709c26.667 0 51.5 -4.33398 74.5 -13.001s43 -20.5 60 -35.5s30.167 -32.5 39.5 -52.5s14 -41.333 14 -64c0 -25.333 -2.66699 -48 -8 -68s-14.333 -39.333 -27 -58s-29.5 -37.667 -50.5 -57s-46.833 -41 -77.5 -65c-18 -14 -36.167 -27.333 -54.5 -40
s-36.333 -25.667 -54 -39s-34.834 -27.5 -51.501 -42.5s-32.334 -31.833 -47.001 -50.5h298l-30 -124h-461c6 42 16.333 78.333 31 109s32.834 58.5 54.501 83.5s46.167 48.333 73.5 70s57 44.834 89 69.501c30 23.333 55.5 43.5 76.5 60.5s38 32.667 51 47
s22.5 27.833 28.5 40.5s9 26 9 40c0 17.333 -6.16699 31.833 -18.5 43.5s-28.166 17.5 -47.499 17.5c-27.333 0 -54 -5.83301 -80 -17.5s-54.333 -29.167 -85 -52.5l-51 109c40 32.667 80 55.667 120 69s81.333 20 124 20z" />
    <glyph glyph-name="three" unicode="3" horiz-adv-x="568" 
d="M474 368c28 -13.333 49.6621 -33.8369 64.9951 -61.5039s23 -57.834 23 -90.501c0 -27.333 -5.66699 -54.666 -17 -81.999s-29.333 -52 -54 -74s-56 -39.833 -94 -53.5s-83.667 -20.5 -137 -20.5c-76 0 -144.333 15.667 -205 47l54 118
c19.333 -13.333 43.333 -24.166 72 -32.499s58 -12.5 88 -12.5c18.667 0 36.834 2 54.501 6s33.167 10.667 46.5 20s24 21.333 32 36s12 32.667 12 54c0 27.333 -11.167 48 -33.5 62s-52.166 21 -89.499 21h-64l29 118h72c14 0 28.667 1.33301 44 4s29.333 7.5 42 14.5
s23.167 16.333 31.5 28s12.5 26.834 12.5 45.501c0 23.333 -8 40.5 -24 51.5s-37 16.5 -63 16.5c-20.667 0 -43.5 -3.66699 -68.5 -11s-50.833 -18 -77.5 -32l-38 112c32.667 18.667 66.334 32.834 101.001 42.501s70.667 14.5 108 14.5c35.333 0 66.333 -4.83301 93 -14.5
s48.834 -22.5 66.501 -38.5s30.834 -34.167 39.501 -54.5s13 -41.166 13 -62.499c0 -17.333 -2.83301 -34.5 -8.5 -51.5s-14 -33 -25 -48s-25 -28.667 -42 -41s-36.5 -22.5 -58.5 -30.5z" />
    <glyph glyph-name="four" unicode="4" horiz-adv-x="568" 
d="M455 517c-17.333 -16.667 -35.501 -34.666 -54.501 -53.999s-38.167 -39.5 -57.5 -60.5s-38.166 -42.333 -56.499 -64s-35.5 -42.834 -51.5 -63.501h162zM637.999 693.001l-101 -418h73l-29 -120h-74l-38 -155h-142l37 155h-297l25 110
c21.333 29.333 47.333 62.5 78 99.5s64 74.833 100 113.5s73.333 76.667 112 114s76.667 71 114 101h142z" />
    <glyph glyph-name="five" unicode="5" horiz-adv-x="568" 
d="M118 154c23.333 -14 48.332 -24.667 74.999 -32s52.334 -11 77.001 -11c48 0 84.667 9 110 27s38 46 38 84c0 16 -4.33301 30.5 -13 43.5s-22.667 24 -42 33s-45.166 16 -77.499 21s-71.833 7.5 -118.5 7.5c22 62 43 124.5 63 187.5s37.667 122.5 53 178.5h370l-30 -124
h-247c-6.66699 -24 -13.834 -48.167 -21.501 -72.5s-14.5 -44.833 -20.5 -61.5c40 -3.33301 74.5 -10.833 103.5 -22.5s53 -26.5 72 -44.5s33.167 -38.5 42.5 -61.5s14 -47.5 14 -73.5c0 -37.333 -6.16699 -71.333 -18.5 -102s-30.833 -56.667 -55.5 -78
s-55.334 -37.833 -92.001 -49.5s-79 -17.5 -127 -17.5c-14 0 -30 1 -48 3s-36.5 4.83301 -55.5 8.5s-37.667 8.5 -56 14.5s-35.166 13 -50.499 21z" />
    <glyph glyph-name="six" unicode="6" horiz-adv-x="568" 
d="M631 581c-41.333 -1.33301 -79.8301 -4.32812 -115.497 -8.99512s-68.334 -13.334 -98.001 -26.001s-55.667 -29.667 -78 -51s-40.833 -49 -55.5 -83c17.333 9.33301 37.5 16.166 60.5 20.499s44.5 6.5 64.5 6.5c24.667 0 47.834 -3.83301 69.501 -11.5
s40.667 -19.334 57 -35.001s29.166 -35.167 38.499 -58.5s14 -50.333 14 -81c0 -43.333 -7 -81.5 -21 -114.5s-33 -60.833 -57 -83.5s-52 -39.834 -84 -51.501s-65.667 -17.5 -101 -17.5c-31.333 0 -60.333 5.33301 -87 16s-49.834 26.167 -69.501 46.5
s-35.167 45.666 -46.5 75.999s-17 65.5 -17 105.5c0 58.667 10 116.167 30 172.5s50.667 106.5 92 150.5s93.666 79.5 156.999 106.5s138.333 40.5 225 40.5h18.5c7 0 14.167 -0.333008 21.5 -1zM446.003 243.005c0 32 -8.66797 54 -26.001 66s-38 18 -62 18
c-16.667 0 -33.5 -2.16699 -50.5 -6.5s-32.833 -9.5 -47.5 -15.5c-8.66699 -25.333 -13 -51.333 -13 -78c0 -32 7.33301 -59.5 22 -82.5s37.334 -34.5 68.001 -34.5c32 0 58.167 11.667 78.5 35s30.5 56 30.5 98z" />
    <glyph glyph-name="seven" unicode="7" horiz-adv-x="568" 
d="M135 0c12.667 49.333 31.002 100.498 55.002 153.498s51 104.667 81 155s61.667 97.833 95 142.5s65.666 83.334 96.999 116.001h-301l31 126h485l-26 -108c-25.333 -21.333 -55.5 -52.333 -90.5 -93s-70.167 -87.167 -105.5 -139.5s-68.333 -108.666 -99 -168.999
s-54.334 -121.5 -71.001 -183.5h-151z" />
    <glyph glyph-name="eight" unicode="8" horiz-adv-x="568" 
d="M93 157c0 20 2.83398 39.168 8.50098 57.501s14.667 36.166 27 53.499s28.166 34.166 47.499 50.499s42.666 32.833 69.999 49.5c-16 15.333 -29.5 32.833 -40.5 52.5s-16.5 43.5 -16.5 71.5c0 26 4.83301 52 14.5 78s24.667 49.333 45 70s45.833 37.334 76.5 50.001
s67 19 109 19c28 0 54 -4 78 -12s44.667 -19.167 62 -33.5s31 -31.833 41 -52.5s15 -43.334 15 -68.001c0 -14.667 -1.66699 -30.167 -5 -46.5s-10 -32.666 -20 -48.999s-24.167 -32.833 -42.5 -49.5s-42.5 -32.334 -72.5 -47.001c11.333 -8 22 -16.667 32 -26
s18.667 -20 26 -32s13.166 -25.333 17.499 -40s6.5 -31.334 6.5 -50.001c0 -30 -5.83301 -58.167 -17.5 -84.5s-28.667 -49.333 -51 -69s-50.166 -35.167 -83.499 -46.5s-71.333 -17 -114 -17c-24.667 0 -49.667 2.83301 -75 8.5s-48.166 15.334 -68.499 29.001
s-37 31.334 -50 53.001s-19.5 48.5 -19.5 80.5zM428.001 199.001c0 13.333 -2.33105 25.165 -6.99805 35.498s-11.167 19.833 -19.5 28.5s-18 16.5 -29 23.5s-22.833 13.833 -35.5 20.5c-20.667 -10 -37.5 -20.5 -50.5 -31.5s-23.333 -22.167 -31 -33.5
s-12.834 -22.666 -15.501 -33.999s-4 -22.333 -4 -33c0 -23.333 8.16699 -40.833 24.5 -52.5s36.166 -17.5 59.499 -17.5c14 0 27.5 2.16699 40.5 6.5s24.5 10.5 34.5 18.5s18 17.833 24 29.5s9 24.834 9 39.501zM326.003 501c0 -21.333 6.66504 -39.334 19.998 -54.001
s29.333 -27.667 48 -39c38.667 18 64.5 36.833 77.5 56.5s19.5 38.834 19.5 57.501c0 21.333 -6.66699 38 -20 50s-31.666 18 -54.999 18c-27.333 0 -49.166 -8.66699 -65.499 -26s-24.5 -38.333 -24.5 -63z" />
    <glyph glyph-name="nine" unicode="9" horiz-adv-x="568" 
d="M95 115c41.333 0.666992 79.8311 3.49609 115.498 8.49609s68.334 13.833 98.001 26.5s55.667 29.667 78 51s40.833 49 55.5 83c-17.333 -9.33301 -37.5 -16.166 -60.5 -20.499s-44.5 -6.5 -64.5 -6.5c-24.667 0 -47.834 3.83301 -69.501 11.5s-40.667 19.334 -57 35.001
s-29.166 35 -38.499 58s-14 50.167 -14 81.5c0 42.667 7 80.667 21 114s33 61.333 57 84s52 39.834 84 51.501s65.667 17.5 101 17.5c30.667 0 59.5 -5.33301 86.5 -16s50.333 -26.167 70 -46.5s35.167 -45.666 46.5 -75.999s17 -65.5 17 -105.5
c0 -58.667 -10 -116.167 -30 -172.5s-50.667 -106.5 -92 -150.5s-93.666 -79.5 -156.999 -106.5s-138.333 -40.5 -225 -40.5h-18.5c-7 0 -14.167 0.333008 -21.5 1zM279.998 452.996c0 -32 8.66797 -54 26.001 -66s38 -18 62 -18c16.667 0 33.5 2.16699 50.5 6.5
s32.833 9.5 47.5 15.5c8.66699 25.333 13 51.333 13 78c0 32 -7.33301 59.5 -22 82.5s-37.334 34.5 -68.001 34.5c-32 0 -58.167 -11.667 -78.5 -35s-30.5 -56 -30.5 -98z" />
    <glyph glyph-name="colon" unicode=":" horiz-adv-x="252" 
d="M235 526c23.333 0 42.833 -6.5 58.5 -19.5s23.5 -33.5 23.5 -61.5c0 -15.333 -2.83301 -29.333 -8.5 -42s-13.167 -23.5 -22.5 -32.5s-20 -16 -32 -21s-24.333 -7.5 -37 -7.5c-23.333 0 -42.833 6.5 -58.5 19.5s-23.5 33.5 -23.5 61.5c0 15.333 2.83301 29.333 8.5 42
s13.167 23.5 22.5 32.5s20 16 32 21s24.333 7.5 37 7.5zM160 171c23.333 0 42.833 -6.5 58.5 -19.5s23.5 -33.5 23.5 -61.5c0 -15.333 -2.83301 -29.333 -8.5 -42s-13.167 -23.5 -22.5 -32.5s-20 -16 -32 -21s-24.333 -7.5 -37 -7.5c-23.333 0 -42.833 6.5 -58.5 19.5
s-23.5 33.5 -23.5 61.5c0 15.333 2.83301 29.333 8.5 42s13.167 23.5 22.5 32.5s20 16 32 21s24.333 7.5 37 7.5z" />
    <glyph glyph-name="semicolon" unicode=";" horiz-adv-x="252" 
d="M235 526c23.333 0 42.833 -6.5 58.5 -19.5s23.5 -33.5 23.5 -61.5c0 -15.333 -2.83301 -29.333 -8.5 -42s-13.167 -23.5 -22.5 -32.5s-20 -16 -32 -21s-24.333 -7.5 -37 -7.5c-23.333 0 -42.833 6.5 -58.5 19.5s-23.5 33.5 -23.5 61.5c0 15.333 2.83301 29.333 8.5 42
s13.167 23.5 22.5 32.5s20 16 32 21s24.333 7.5 37 7.5zM245 152c-2 -58 -16.498 -113 -43.498 -165s-59.833 -102 -98.5 -150l-109 29c25.333 44 46.666 89.667 63.999 137s27.666 97 30.999 149h156z" />
    <glyph glyph-name="less" unicode="&#x3c;" horiz-adv-x="568" 
d="M121 361l474 181l10 -124l-346 -120l284 -131l-63 -111l-386 188z" />
    <glyph glyph-name="equal" unicode="=" horiz-adv-x="568" 
d="M104 251h470l-30 -125h-470zM157 470h470l-30 -125h-470z" />
    <glyph glyph-name="greater" unicode="&#x3e;" horiz-adv-x="568" 
d="M552 237l-474 -181l-10 125l346 120l-284 131l63 110l386 -188z" />
    <glyph glyph-name="question" unicode="?" horiz-adv-x="430" 
d="M292 407c20 15.333 36.998 28.666 50.998 39.999s25.5 21.833 34.5 31.5s15.667 18.834 20 27.501s6.5 17.667 6.5 27c0 17.333 -6.16699 30 -18.5 38s-27.833 12 -46.5 12c-12 0 -24.667 -1.16699 -38 -3.5s-26.333 -5.5 -39 -9.5s-24.667 -8.33301 -36 -13
s-21.333 -9.33398 -30 -14.001l-19 117c26 14.667 55.833 26.5 89.5 35.5s67.5 13.5 101.5 13.5c24 0 47 -3 69 -9s41.333 -15.167 58 -27.5s30 -27.666 40 -45.999s15 -39.5 15 -63.5c0 -28.667 -4.5 -53.667 -13.5 -75s-20.5 -40.333 -34.5 -57
s-29.833 -31.834 -47.5 -45.501s-35.167 -27.167 -52.5 -40.5c-25.333 -19.333 -47.666 -38.666 -66.999 -57.999s-30 -41.333 -32 -66h-132c0 20.667 3.16699 39.667 9.5 57s15 33.333 26 48s23.833 28.667 38.5 42s30.334 26.333 47.001 39zM222.998 171
c23.333 0 42.833 -6.5 58.5 -19.5s23.5 -33.5 23.5 -61.5c0 -15.333 -2.83301 -29.333 -8.5 -42s-13.167 -23.5 -22.5 -32.5s-20 -16 -32 -21s-24.333 -7.5 -37 -7.5c-23.333 0 -42.833 6.5 -58.5 19.5s-23.5 33.5 -23.5 61.5c0 15.333 2.83301 29.333 8.5 42
s13.167 23.5 22.5 32.5s20 16 32 21s24.333 7.5 37 7.5z" />
    <glyph glyph-name="at" unicode="@" horiz-adv-x="941" 
d="M647 -146c-28 -5.33301 -56.8311 -9.67383 -86.498 -13.0068s-57.167 -5 -82.5 -5c-58.667 0 -111.334 8 -158.001 24s-86.334 38.833 -119.001 68.5s-57.667 65.667 -75 108s-26 89.5 -26 141.5c0 86.667 14.833 163.667 44.5 231s69.167 123.833 118.5 169.5
s105.666 80.334 168.999 104.001s129 35.5 197 35.5c46 0 90 -6.5 132 -19.5s79.167 -32.833 111.5 -59.5s58.166 -60.334 77.499 -101.001s29 -89 29 -145c0 -44.667 -5.5 -88.834 -16.5 -132.501s-28.167 -82.667 -51.5 -117s-53 -62.166 -89 -83.499
s-78.667 -32 -128 -32c-17.333 0 -33.666 3.33301 -48.999 10s-28 16.334 -38 29.001c-23.333 -13.333 -46.166 -23.166 -68.499 -29.499s-46.166 -9.5 -71.499 -9.5c-52.667 0 -93.667 17.333 -123 52s-44 80.334 -44 137.001c0 32.667 6.66699 66.667 20 102
s33 67.5 59 96.5s58.5 52.833 97.5 71.5s84.5 28 136.5 28c40 0 73 -3.5 99 -10.5s48 -14.167 66 -21.5l-71 -296c-1.33301 -3.33301 -2 -6.33301 -2 -9v-8c0 -11.333 3.66699 -19.5 11 -24.5s16.666 -7.5 27.999 -7.5c17.333 0 33.333 6.16699 48 18.5
s27.334 29.333 38.001 51s19 47.334 25 77.001s9 61.834 9 96.501c0 42 -6.5 78.167 -19.5 108.5s-30.833 55 -53.5 74s-49 33 -79 42s-62.333 13.5 -97 13.5c-48 0 -95.833 -9.16699 -143.5 -27.5s-90.334 -45.666 -128.001 -81.999s-68.167 -82 -91.5 -137
s-35 -118.833 -35 -191.5c0 -47.333 7.5 -86.666 22.5 -117.999s35.167 -56.333 60.5 -75s54.833 -32 88.5 -40s69.5 -12 107.5 -12c23.333 0 49.333 1.66699 78 5s55 7.33301 79 12zM572.002 156.992c0.666992 5.33301 1.66602 11.332 2.99902 17.999s3 14.667 5 24l49 206
c-11.333 2.66699 -25 4 -41 4c-27.333 0 -50.666 -5.66699 -69.999 -17s-35.5 -25.833 -48.5 -43.5s-22.5 -37.167 -28.5 -58.5s-9 -41.666 -9 -60.999c0 -30 5.33301 -52.833 16 -68.5s28.667 -23.5 54 -23.5c20 0 43.333 6.66699 70 20z" />
    <glyph glyph-name="A" unicode="A" horiz-adv-x="714" 
d="M532 0c-1.33301 26 -2.83398 51.5 -4.50098 76.5s-3.5 49.833 -5.5 74.5h-260c-13.333 -24.667 -27.333 -49.5 -42 -74.5s-28.667 -50.5 -42 -76.5h-163c43.333 74.667 83.833 143.667 121.5 207s74 123 109 179s69.167 109.167 102.5 159.5s67.333 99.5 102 147.5h139
c10.667 -48 20.834 -101.167 30.501 -159.5s18.667 -118 27 -179s16 -122 23 -183s13.5 -118.167 19.5 -171.5h-157zM485.999 541c-28 -44.667 -55.499 -89 -82.499 -133s-53.167 -89 -78.5 -135h187c-3.33301 40.667 -6.83301 84 -10.5 130s-8.83398 92 -15.501 138z" />
    <glyph glyph-name="B" unicode="B" horiz-adv-x="658" 
d="M312 -9c-40 0 -81.001 1.66797 -123.001 5.00098s-80 8.66602 -114 15.999l160 670c38 7.33301 77.833 12.333 119.5 15s79.834 4 114.501 4c40 0 74.5 -4.16699 103.5 -12.5s52.667 -19.5 71 -33.5s32 -30.5 41 -49.5s13.5 -39.167 13.5 -60.5
c0 -14.667 -1.5 -30 -4.5 -46s-9 -31.833 -18 -47.5s-21.333 -30.5 -37 -44.5s-36.167 -26.667 -61.5 -38c30 -13.333 52 -31.5 66 -54.5s21 -48.5 21 -76.5c0 -32 -6.33301 -62.833 -19 -92.5s-33 -56 -61 -79s-64.333 -41.333 -109 -55s-99 -20.5 -163 -20.5z
M297.999 303.001l-43.001 -179.998c10.667 -2 24.167 -3.5 40.5 -4.5s31.5 -1.5 45.5 -1.5c20 0 39.833 1.5 59.5 4.5s37.334 8.5 53.001 16.5s28.5 19 38.5 33s15 32 15 54c0 9.33301 -1.83301 18.666 -5.5 27.999s-9.5 17.666 -17.5 24.999s-18.5 13.333 -31.5 18
s-28.5 7 -46.5 7h-108zM326.998 420.003l98 0.000976562c40 0 69.833 8.66699 89.5 26s29.5 38 29.5 62c0 12.667 -2.83301 23.5 -8.5 32.5s-13.167 16.167 -22.5 21.5s-20 9.16602 -32 11.499s-24.333 3.5 -37 3.5c-14 0 -29 -0.5 -45 -1.5s-28 -2.16699 -36 -3.5z" />
    <glyph glyph-name="C" unicode="C" horiz-adv-x="638" 
d="M614 30c-27.333 -13.333 -57.6709 -23.9961 -91.0039 -31.9961s-74 -12 -122 -12c-41.333 0 -79.166 6.83301 -113.499 20.5s-63.666 33.167 -87.999 58.5s-43.166 56.166 -56.499 92.499s-20 77.166 -20 122.499c0 52 9.16699 103.667 27.5 155
s45.333 97.166 81 137.499s79.334 73.166 131.001 98.499s111.167 38 178.5 38c32 0 63.5 -3.66699 94.5 -11s63.5 -20.333 97.5 -39l-56 -121c-28 14.667 -53 24.667 -75 30s-45.667 8 -71 8c-38 0 -72.167 -7.66699 -102.5 -23s-56.333 -36.166 -78 -62.499
s-38.167 -56.833 -49.5 -91.5s-17 -71.334 -17 -110.001c0 -58.667 12.833 -101.334 38.5 -128.001s62.5 -40 110.5 -40c32 0 61.5 3.33301 88.5 10s52.167 15.334 75.5 26.001z" />
    <glyph glyph-name="D" unicode="D" horiz-adv-x="718" 
d="M257 125c7.33301 -0.666992 14.8359 -1.16602 22.5029 -1.49902s18.167 -0.5 31.5 -0.5c43.333 0 82.5 6.66699 117.5 20s64.667 32.5 89 57.5s43.166 55.667 56.499 92s20 77.166 20 122.499c0 23.333 -3 44.5 -9 63.5s-15.833 35.333 -29.5 49
s-31.334 24.167 -53.001 31.5s-47.834 11 -78.501 11c-20 0 -40.333 -1 -61 -3zM754.003 423.001c0 -67.333 -11 -127.666 -33 -180.999s-53.5 -98.5 -94.5 -135.5s-90.833 -65.5 -149.5 -85.5s-125 -30 -199 -30c-28 0 -60.333 1.66699 -97 5s-72 8.66602 -106 15.999
l161 669c38 7.33301 74.5 12.5 109.5 15.5s66.5 4.5 94.5 4.5c49.333 0 93.5 -6.66699 132.5 -20s72 -32.333 99 -57s47.5 -54 61.5 -88s21 -71.667 21 -113z" />
    <glyph glyph-name="E" unicode="E" horiz-adv-x="594" 
d="M75 0l166 693h453l-32 -128h-297l-32 -140h262l-31 -126h-262l-40 -170h320l-32 -129h-475z" />
    <glyph glyph-name="F" unicode="F" horiz-adv-x="575" 
d="M75 0l166 693h449l-32 -129h-293l-35 -148h259l-31 -129h-259l-69 -287h-155z" />
    <glyph glyph-name="G" unicode="G" horiz-adv-x="688" 
d="M429 120c13.333 0 25.332 0.501953 35.999 1.50195s20.334 2.16699 29.001 3.5l58 241h156l-84 -347c-18.667 -7.33301 -45.667 -14.5 -81 -21.5s-80.333 -10.5 -135 -10.5c-46.667 0 -87.834 6.83301 -123.501 20.5s-65.5 33.167 -89.5 58.5s-42 56 -54 92
s-18 76.667 -18 122c0 52 9.16699 103.667 27.5 155s45.5 97.166 81.5 137.499s80.667 73.166 134 98.499s114.666 38 183.999 38c32 0 65.833 -4.66699 101.5 -14s67.834 -23.333 96.501 -42l-56 -121c-23.333 14.667 -48.166 25.667 -74.499 33s-52.166 11 -77.499 11
c-40.667 0 -76.834 -7.66699 -108.501 -23s-58.5 -36.166 -80.5 -62.499s-38.667 -56.833 -50 -91.5s-17 -71.334 -17 -110.001c0 -58.667 12.167 -101.5 36.5 -128.5s60.5 -40.5 108.5 -40.5z" />
    <glyph glyph-name="H" unicode="H" horiz-adv-x="714" 
d="M643 693h156l-167 -693h-156l71 295h-246l-71 -295h-155l166 693h156l-64 -266h246z" />
    <glyph glyph-name="I" unicode="I" horiz-adv-x="312" 
d="M241 693h156l-167 -693h-155z" />
    <glyph glyph-name="J" unicode="J" horiz-adv-x="516" 
d="M485 210c-8 -34 -18.6699 -64.832 -32.0029 -92.499s-30.666 -51.334 -51.999 -71.001s-47.666 -34.667 -78.999 -45s-69.333 -15.5 -114 -15.5c-36 0 -70.167 5.5 -102.5 16.5s-60.833 25.833 -85.5 44.5l69 116c16 -11.333 33.5 -21.333 52.5 -30s41.5 -13 67.5 -13
c18.667 0 34.834 2.16699 48.501 6.5s25.5 11.333 35.5 21s18.5 22.167 25.5 37.5s13.167 34 18.5 56l108 452h156z" />
    <glyph glyph-name="K" unicode="K" horiz-adv-x="662" 
d="M483 0c-9.33301 22.667 -20.5 47.002 -33.5 73.002s-27.333 52 -43 78s-32.5 51 -50.5 75s-36.333 45.333 -55 64l-71 -290h-155l166 693h156l-61 -250c52 44.667 101 87.5 147 128.5s89 81.5 129 121.5h185c-60.667 -56.667 -120.834 -112.834 -180.501 -168.501
s-122.5 -109.834 -188.5 -162.501c42 -46 82.333 -98.667 121 -158s73.334 -127.333 104.001 -204h-170z" />
    <glyph glyph-name="L" unicode="L" horiz-adv-x="564" 
d="M569 132l-32 -132h-462l166 693h156l-135 -561h307z" />
    <glyph glyph-name="M" unicode="M" horiz-adv-x="878" 
d="M416 693c4 -18 9.1709 -43.5 15.5039 -76.5s13 -69.333 20 -109s14.167 -80.334 21.5 -122.001s14 -79.834 20 -114.501c22.667 34.667 47.334 72 74.001 112s53 79.333 79 118s50.667 74.834 74 108.501s43.333 61.5 60 83.5h138
c-4.66699 -46 -10.834 -97.667 -18.501 -155s-16.334 -116.666 -26.001 -177.999s-19.834 -123 -30.501 -185s-21.334 -120.333 -32.001 -175h-152c14 68 28.833 141.5 44.5 220.5s30.167 158.833 43.5 239.5c-17.333 -27.333 -36.666 -57.833 -57.999 -91.5
s-42.666 -67.667 -63.999 -102s-42 -67.166 -62 -98.499s-37.333 -58 -52 -80h-114c-3.33301 20 -7.33301 45.333 -12 76s-9.83398 63.167 -15.501 97.5s-11.5 69 -17.5 104s-11.667 66.5 -17 94.5c-26 -80.667 -49.5 -160.5 -70.5 -239.5s-40.5 -152.5 -58.5 -220.5h-151
c15.333 54.667 32.166 113 50.499 175s37.333 123.833 57 185.5s39.167 121.167 58.5 178.5s37.666 108.666 54.999 153.999h140z" />
    <glyph glyph-name="N" unicode="N" horiz-adv-x="742" 
d="M543 0c-28 78.667 -59.1699 157.336 -93.5029 236.003s-71.5 153 -111.5 223l-110 -459h-153l166 693h119c15.333 -23.333 31.833 -50.833 49.5 -82.5s35.834 -65.834 54.501 -102.501s37.334 -74.834 56.001 -114.501s36.334 -78.834 53.001 -117.501l99 417h155
l-167 -693h-117z" />
    <glyph glyph-name="O" unicode="O" horiz-adv-x="757" 
d="M500 575c-30.667 0 -59.167 -7.99707 -85.5 -23.9971s-49.333 -37.333 -69 -64s-35 -57.334 -46 -92.001s-16.5 -70.334 -16.5 -107.001c0 -50 10.5 -90.5 31.5 -121.5s55.167 -46.5 102.5 -46.5c30.667 0 59.167 8 85.5 24s49.333 37.333 69 64s35 57.167 46 91.5
s16.5 70.166 16.5 107.499c0 50 -10.5 90.5 -31.5 121.5s-55.167 46.5 -102.5 46.5zM401 -13.9971c-40.667 0 -77.999 6.66699 -111.999 20s-63.333 32.5 -88 57.5s-43.834 55.5 -57.501 91.5s-20.5 76.667 -20.5 122c0 52 9 103.667 27 155s43.833 97.5 77.5 138.5
s74.834 74.333 123.501 100s103.667 38.5 165 38.5c40.667 0 78 -6.66699 112 -20s63.333 -32.5 88 -57.5s43.834 -55.5 57.501 -91.5s20.5 -76.667 20.5 -122c0 -52 -8.83301 -103.833 -26.5 -155.5s-43.334 -98 -77.001 -139s-74.834 -74.167 -123.501 -99.5
s-104 -38 -166 -38z" />
    <glyph glyph-name="P" unicode="P" horiz-adv-x="639" 
d="M432 701c42 0 79.833 -4.50098 113.5 -13.501s62.167 -22 85.5 -39s41.333 -37.833 54 -62.5s19 -52.334 19 -83.001c0 -50 -9.66699 -92.333 -29 -127s-46 -62.667 -80 -84s-74 -36.666 -120 -45.999s-96 -14 -150 -14h-39l-56 -232h-155l163 683
c36 6.66699 70.167 11.334 102.5 14.001s62.833 4 91.5 4zM419 569.999c-11.333 0 -21 -0.333984 -29 -1.00098l-24 -2l-48 -204h39c28 0 53.5 2.16699 76.5 6.5s42.667 11.5 59 21.5s29 22.833 38 38.5s13.5 34.834 13.5 57.501c0 30 -10.833 51.333 -32.5 64
s-52.5 19 -92.5 19z" />
    <glyph glyph-name="Q" unicode="Q" horiz-adv-x="756" 
d="M610 -187c-52.667 2 -96.667 7.33398 -132 16.001s-63.833 20.167 -85.5 34.5s-37.167 31.833 -46.5 52.5s-14 44 -14 70v7c-64 13.333 -114.833 44.333 -152.5 93s-56.5 112.334 -56.5 191.001c0 52 9 103.667 27 155s43.833 97.5 77.5 138.5s74.834 74.333 123.501 100
s103.667 38.5 165 38.5c40.667 0 78 -6.66699 112 -20s63.333 -32.5 88 -57.5s43.834 -55.5 57.501 -91.5s20.5 -76.667 20.5 -122c0 -46 -7 -92.167 -21 -138.5s-34.5 -89 -61.5 -128s-60 -72.5 -99 -100.5s-83.5 -47 -133.5 -57v-3
c0 -14.667 4.83301 -26.334 14.5 -35.001s22.667 -15.334 39 -20.001s35.166 -8 56.499 -10s43.666 -3.66699 66.999 -5zM500 575.001c-30.667 0 -59.167 -7.99707 -85.5 -23.9971s-49.333 -37.333 -69 -64s-35 -57.334 -46 -92.001s-16.5 -70.334 -16.5 -107.001
c0 -50 10.5 -90.5 31.5 -121.5s55.167 -46.5 102.5 -46.5c30.667 0 59.167 8 85.5 24s49.333 37.333 69 64s35 57.167 46 91.5s16.5 70.166 16.5 107.499c0 50 -10.5 90.5 -31.5 121.5s-55.167 46.5 -102.5 46.5z" />
    <glyph glyph-name="R" unicode="R" horiz-adv-x="656" 
d="M436 701c44.667 0 83.666 -5.33691 116.999 -16.0039s61 -25 83 -43s38.333 -39.167 49 -63.5s16 -49.833 16 -76.5c0 -22 -2.5 -43.667 -7.5 -65s-14.333 -41.666 -28 -60.999s-32 -37.166 -55 -53.499s-52.5 -30.166 -88.5 -41.499
c18.667 -34.667 37.834 -76.667 57.501 -126s38.167 -101 55.5 -155h-167c-15.333 46 -30.833 91.5 -46.5 136.5s-33.167 83.833 -52.5 116.5h-78l-61 -253h-155l163 683c36 6.66699 71 11.334 105 14.001s65 4 93 4zM430.999 568.996
c-11.333 0 -22.998 -0.331055 -34.998 -0.998047s-22 -1.33398 -30 -2.00098l-45 -190h53c32 0 59 3 81 9s39.667 14 53 24s22.833 21.5 28.5 34.5s8.5 26.167 8.5 39.5c0 11.333 -1.66699 22.166 -5 32.499s-9.33301 19.5 -18 27.5s-20.334 14.333 -35.001 19
s-33.334 7 -56.001 7z" />
    <glyph glyph-name="S" unicode="S" horiz-adv-x="559" 
d="M269 116c15.333 0 30.666 1.16797 45.999 3.50098s29 6.5 41 12.5s21.833 14.5 29.5 25.5s11.5 25.167 11.5 42.5c0 13.333 -3.66699 24.833 -11 34.5s-16.666 18.5 -27.999 26.5s-24 15.333 -38 22s-28 14 -42 22c-18 10.667 -35 22 -51 34s-29.667 25.5 -41 40.5
s-20.333 31.667 -27 50s-10 39.5 -10 63.5c0 30.667 5.83301 59.167 17.5 85.5s29 49.166 52 68.499s51.833 34.5 86.5 45.5s75.334 16.5 122.001 16.5c21.333 0 42 -1.83301 62 -5.5s38.667 -8.16699 56 -13.5s33.166 -11.5 47.499 -18.5s26.5 -13.833 36.5 -20.5l-65 -115
c-16.667 12.667 -37 23.334 -61 32.001s-50 13 -78 13c-15.333 0 -30 -1.33301 -44 -4s-26.333 -7.16699 -37 -13.5s-19.167 -14.5 -25.5 -24.5s-9.5 -22.333 -9.5 -37c0 -13.333 2.5 -24.5 7.5 -33.5s11.5 -16.833 19.5 -23.5s17.333 -12.667 28 -18l34 -17
c20.667 -10.667 40.667 -22 60 -34s36.333 -25.833 51 -41.5s26.334 -33.5 35.001 -53.5s13 -43.667 13 -71c0 -38 -7 -71 -21 -99s-33.667 -51.333 -59 -70s-55.5 -32.5 -90.5 -41.5s-73.833 -13.5 -116.5 -13.5c-28 0 -54.167 2.33301 -78.5 7s-46.333 10.167 -66 16.5
s-36.667 13.166 -51 20.499s-25.833 14 -34.5 20l66 119c8 -5.33301 17.667 -11 29 -17s24.166 -11.667 38.499 -17s29.5 -9.83301 45.5 -13.5s32.667 -5.5 50 -5.5z" />
    <glyph glyph-name="T" unicode="T" horiz-adv-x="594" 
d="M739 693l-32 -131h-203l-135 -562h-156l135 562h-203l32 131h562z" />
    <glyph glyph-name="U" unicode="U" horiz-adv-x="683" 
d="M668 252c-22.667 -94 -59.499 -161.832 -110.499 -203.499s-118.5 -62.5 -202.5 -62.5c-43.333 0 -79.833 5.16699 -109.5 15.5s-53.834 24.666 -72.501 42.999s-32.167 40.333 -40.5 66s-12.5 53.5 -12.5 83.5c0 34.667 5 71.667 15 111l93 388h156l-98 -410
c-6.66699 -24 -10 -48.333 -10 -73c0 -13.333 1.5 -25.333 4.5 -36s8.33301 -20 16 -28s18 -14.167 31 -18.5s29.167 -6.5 48.5 -6.5c40 0 70.333 12.5 91 37.5s36.667 60.5 48 106.5l102 428h156z" />
    <glyph glyph-name="V" unicode="V" horiz-adv-x="688" 
d="M268 0c-10.667 56.667 -20.832 115.332 -30.499 175.999s-18.834 121 -27.501 181s-16.334 118.5 -23.001 175.5s-12.334 110.5 -17.001 160.5h167c2 -38 4.5 -78.833 7.5 -122.5s6.5 -87.667 10.5 -132s8.16699 -88.333 12.5 -132s8.83301 -84.5 13.5 -122.5
c20.667 34.667 42.834 72.667 66.501 114s47.667 84.333 72 129s48.333 89.667 72 135s45.5 89 65.5 131h166c-25.333 -48 -53 -99.667 -83 -155s-62.167 -112.666 -96.5 -171.999s-70.666 -119.833 -108.999 -181.5s-78.5 -123.167 -120.5 -184.5h-146z" />
    <glyph glyph-name="W" unicode="W" horiz-adv-x="936" 
d="M667 619c1.33301 -27.333 3.16504 -58.3369 5.49805 -93.0039s5 -70.5 8 -107.5s6.16699 -73.833 9.5 -110.5s6.66602 -70.667 9.99902 -102c17.333 34 35 70.667 53 110s36 80 54 122s35.833 84.667 53.5 128s34.5 85.666 50.5 126.999h165
c-52 -126.667 -105 -247.167 -159 -361.5s-112 -224.833 -174 -331.5h-146c-5.33301 36.667 -10.166 71.834 -14.499 105.501s-8.33301 66.834 -12 99.501s-7 65.667 -10 99s-5.83301 68 -8.5 104c-38 -70.667 -75.5 -139.834 -112.5 -207.501s-76.5 -134.5 -118.5 -200.5
h-146c-5.33301 62 -9.16602 123.333 -11.499 184s-3.5 122.334 -3.5 185.001c0 54 1 107.833 3 161.5s4.66699 107.834 8 162.501h157c-3.33301 -58.667 -6.5 -116.167 -9.5 -172.5s-4.5 -114.833 -4.5 -175.5v-69c0 -23.333 0.666992 -46.666 2 -69.999
c18.667 32.667 38.334 67.334 59.001 104.001s41 73.334 61 110.001s39 72.167 57 106.5s33.333 65.166 46 92.499h128z" />
    <glyph glyph-name="X" unicode="X" horiz-adv-x="669" 
d="M487 0c-9.33301 28.667 -17.832 54.001 -25.499 76.001s-15 42.5 -22 61.5s-14.167 37 -21.5 54s-15.333 34.833 -24 53.5l-201 -245h-178l315 377l-141 316h172l83 -214c30 36 59 72.5 87 109.5s53.667 71.833 77 104.5h171c-19.333 -27.333 -39.833 -55.5 -61.5 -84.5
s-44 -58 -67 -87s-46.167 -57.333 -69.5 -85s-46 -53.834 -68 -78.501c14 -31.333 27.167 -61 39.5 -89s24.166 -56.167 35.499 -84.5s22.333 -57.5 33 -87.5s21.667 -62.333 33 -97h-167z" />
    <glyph glyph-name="Y" unicode="Y" horiz-adv-x="652" 
d="M413 408c19.333 24.667 37.832 48.498 55.499 71.498s34.834 46 51.501 69s33.167 46.333 49.5 70s33.166 48.5 50.499 74.5h172c-28 -39.333 -55 -76.666 -81 -111.999s-52 -69.833 -78 -103.5s-52.667 -67.167 -80 -100.5s-56.333 -67.666 -87 -102.999l-66 -274h-156
l66 274c-28 70.667 -53.333 139.667 -76 207s-44 138 -64 212h166c10.667 -48 22.334 -95 35.001 -141s26.667 -94 42 -144z" />
    <glyph glyph-name="Z" unicode="Z" horiz-adv-x="638" 
d="M712 585c-26.667 -22.667 -58.665 -51.499 -95.998 -86.499s-76.333 -73 -117 -114s-81.334 -83.5 -122.001 -127.5s-77.667 -86 -111 -126h348l-32 -131h-537l23 93c26.667 35.333 58 73.833 94 115.5s73.5 83.5 112.5 125.5s78.167 82.667 117.5 122
s75.666 74.666 108.999 105.999h-306l32 131h511z" />
    <glyph glyph-name="bracketleft" unicode="[" horiz-adv-x="373" 
d="M262 783h271l-29 -119h-129l-175 -730h129l-29 -119h-270z" />
    <glyph glyph-name="backslash" unicode="\" horiz-adv-x="406" 
d="M150 783h143l103 -968h-143z" />
    <glyph glyph-name="bracketright" unicode="]" horiz-adv-x="373" 
d="M232 -185h-270l29 119h128l175 730h-129l29 119h271z" />
    <glyph glyph-name="asciicircum" unicode="^" horiz-adv-x="568" 
d="M620 347l-130 -55l-78 247l-202 -243l-106 65l281 336h118z" />
    <glyph glyph-name="underscore" unicode="_" horiz-adv-x="503" 
d="M-2 -61h500l-29 -124h-499z" />
    <glyph glyph-name="grave" unicode="`" horiz-adv-x="247" 
d="M246 799l135 -165l-64 -58l-163 144z" />
    <glyph glyph-name="a" unicode="a" horiz-adv-x="588" 
d="M563 227c-9.33301 -38 -11.998 -76.168 -7.99805 -114.501s11.667 -72.5 23 -102.5l-133 -19c-4 8 -7.66699 15.667 -11 23s-6.66602 15.666 -9.99902 24.999c-18.667 -15.333 -39.334 -28 -62.001 -38s-48 -15 -76 -15c-33.333 0 -61.833 5.83301 -85.5 17.5
s-43 27.334 -58 47.001s-25.833 42.667 -32.5 69s-10 54.5 -10 84.5c0 46 8.16699 89.333 24.5 130s39 76.167 68 106.5s63.167 54.166 102.5 71.499s82 26 128 26c6 0 16.5 -0.333008 31.5 -1s32.167 -2.16699 51.5 -4.5s39.666 -6.16602 60.999 -11.499
s41.666 -12.666 60.999 -21.999zM459.002 410.999c-8.66699 1.33301 -16.498 2.33301 -23.498 3s-15.5 1 -25.5 1c-22.667 0 -43.834 -5.66699 -63.501 -17s-36.834 -26.166 -51.501 -44.499s-26.167 -39.5 -34.5 -63.5s-12.5 -49 -12.5 -75c0 -32 5.33301 -57.333 16 -76
s30.334 -28 59.001 -28c15.333 0 29.166 3 41.499 9s25.5 16 39.5 30c1.33301 16.667 3.5 34.167 6.5 52.5s6.16699 35.166 9.5 50.499z" />
    <glyph glyph-name="b" unicode="b" horiz-adv-x="575" 
d="M419 537c32 0 59.6709 -5.66699 83.0039 -17s42.666 -26.666 57.999 -45.999s26.666 -42 33.999 -68s11 -54 11 -84c0 -46 -8.5 -89.5 -25.5 -130.5s-40.167 -76.667 -69.5 -107s-64 -54.333 -104 -72s-83.333 -26.5 -130 -26.5c-6 0 -16.5 0.166992 -31.5 0.5
s-32.167 1.83301 -51.5 4.5s-39.833 6.66699 -61.5 12s-42.167 12.666 -61.5 21.999l173 727l155 24l-62 -258c13.333 6 26.666 10.667 39.999 14s27.666 5 42.999 5zM289.004 109c23.333 0 45.334 5.66797 66.001 17.001s38.5 26.5 53.5 45.5s26.833 40.5 35.5 64.5
s13 49 13 75c0 32 -5.33301 57 -16 75s-30.334 27 -59.001 27c-9.33301 0 -21.5 -1.66699 -36.5 -5s-28.5 -10.333 -40.5 -21l-66 -274c4 -0.666992 7.5 -1.33398 10.5 -2.00098s6.16699 -1.16699 9.5 -1.5s7.33301 -0.5 12 -0.5h18z" />
    <glyph glyph-name="c" unicode="c" horiz-adv-x="480" 
d="M100 210c0 45.333 7.33301 88.002 22 128.002s35.667 75 63 105s60.5 53.667 99.5 71s82.5 26 130.5 26c30 0 56.833 -2.83301 80.5 -8.5s45.167 -13.167 64.5 -22.5l-51 -116c-13.333 5.33301 -27.166 10.166 -41.499 14.499s-31.833 6.5 -52.5 6.5
c-50 0 -89.333 -16.833 -118 -50.5s-43 -79.5 -43 -137.5c0 -34 7.33301 -61.5 22 -82.5s41.667 -31.5 81 -31.5c19.333 0 38 2 56 6s34 9 48 15l11 -119c-18.667 -7.33301 -39.167 -13.833 -61.5 -19.5s-49.5 -8.5 -81.5 -8.5c-41.333 0 -76.333 6 -105 18
s-52.334 28.167 -71.001 48.5s-32.167 44.166 -40.5 71.499s-12.5 56 -12.5 86z" />
    <glyph glyph-name="d" unicode="d" horiz-adv-x="590" 
d="M287 -14c-33.333 0 -61.834 5.66895 -85.501 17.002s-43 26.833 -58 46.5s-26 42.667 -33 69s-10.5 54.5 -10.5 84.5c0 45.333 8.16699 88.166 24.5 128.499s38.833 75.5 67.5 105.5s62.667 53.667 102 71s82.333 26 129 26c12 0 23.167 -0.666992 33.5 -2
s20.833 -3.33301 31.5 -6l54 226l155 24l-132 -549c-9.33301 -38 -12 -76.167 -8 -114.5s11.667 -72.5 23 -102.5l-133 -19c-4 8 -7.66699 15.667 -11 23s-6.66602 15.666 -9.99902 24.999c-18.667 -15.333 -39.5 -28 -62.5 -38s-48.5 -15 -76.5 -15zM458.999 407.002
c-4 0.666992 -7.5 1.33594 -10.5 2.00293s-6 1.16699 -9 1.5s-6.83301 0.5 -11.5 0.5h-18c-23.333 0 -45 -5.5 -65 -16.5s-37.167 -25.833 -51.5 -44.5s-25.5 -39.834 -33.5 -63.501s-12 -47.834 -12 -72.501c0 -32 5.5 -57.167 16.5 -75.5s30.833 -27.5 59.5 -27.5
c15.333 0 29.333 3 42 9s26 16 40 30c1.33301 16.667 3.5 34.167 6.5 52.5s6.16699 35.166 9.5 50.499z" />
    <glyph glyph-name="e" unicode="e" horiz-adv-x="530" 
d="M100 206c0 42.667 7.5 83.999 22.5 123.999s36.167 75.5 63.5 106.5s60.5 56 99.5 75s82.167 28.5 129.5 28.5c23.333 0 45 -3.33301 65 -10s37.5 -16.334 52.5 -29.001s26.667 -28.167 35 -46.5s12.5 -39.166 12.5 -62.499c0 -37.333 -8.33301 -69 -25 -95
s-39.834 -47.167 -69.501 -63.5s-64.834 -28.166 -105.501 -35.499s-85 -11 -133 -11c4.66699 -28 14.834 -47.833 30.501 -59.5s40.5 -17.5 74.5 -17.5c21.333 0 43 1.83301 65 5.5s42.667 9.16699 62 16.5l11 -117c-18.667 -7.33301 -42.5 -14 -71.5 -20
s-60.5 -9 -94.5 -9c-41.333 0 -76.166 5.83301 -104.499 17.5s-51.333 27.5 -69 47.5s-30.5 43.333 -38.5 70s-12 55 -12 85zM391 421.999c-34 0 -63.832 -12.166 -89.499 -36.499s-42.5 -56.5 -50.5 -96.5c41.333 1.33301 74.666 4.83301 99.999 10.5s45 12.5 59 20.5
s23.333 16.667 28 26s7 18.666 7 27.999c0 32 -18 48 -54 48z" />
    <glyph glyph-name="f" unicode="f" horiz-adv-x="438" 
d="M479 776c30 0 56.1709 -3.16895 78.5039 -9.50195s39.166 -12.166 50.499 -17.499l-50 -117c-12 6 -25.833 10.5 -41.5 13.5s-30.167 4.5 -43.5 4.5c-36.667 0 -63.834 -9.33301 -81.501 -28s-29.834 -42 -36.501 -70l-6 -26h176l-30 -122h-175l-61 -255
c-22.667 -95.333 -47.334 -169.5 -74.001 -222.5s-56 -91.5 -88 -115.5l-133 19c17.333 16 33.333 35.667 48 59s27.834 48 39.501 74s21.667 52.5 30 79.5s15.166 52.167 20.499 75.5l104 436c16.667 70.667 46.667 125.334 90 164.001s104.333 58 183 58z" />
    <glyph glyph-name="g" unicode="g" horiz-adv-x="567" 
d="M524 66c-10 -43.333 -23.1699 -80.833 -39.5029 -112.5s-36.666 -58 -60.999 -79s-53.5 -36.667 -87.5 -47s-73.667 -15.5 -119 -15.5c-42 0 -77.333 3.83301 -106 11.5s-54.667 17.167 -78 28.5l50 118c20.667 -9.33301 42.167 -17.333 64.5 -24s49.833 -10 82.5 -10
c42.667 0 74.834 9.5 96.501 28.5s35.834 43.5 42.501 73.5l4 19c-13.333 -6.66699 -27.5 -12 -42.5 -16s-30.833 -6 -47.5 -6c-31.333 0 -58.333 4.83301 -81 14.5s-41.167 23.167 -55.5 40.5s-25 37.833 -32 61.5s-10.5 49.5 -10.5 77.5c0 50.667 9.33301 95.5 28 134.5
s43.5 71.5 74.5 97.5s66.667 45.667 107 59s82.5 20 126.5 20c32 0 63.667 -3.33301 95 -10s62 -17 92 -31zM457.997 411c-11.333 2.66699 -25.333 4.00195 -42 4.00195c-25.333 0 -48 -4.5 -68 -13.5s-37.167 -21.167 -51.5 -36.5s-25.333 -33.833 -33 -55.5
s-11.5 -44.834 -11.5 -69.501c0 -12 1 -23.167 3 -33.5s5.66699 -19.333 11 -27s12.666 -13.834 21.999 -18.501s21 -7 35 -7c9.33301 0 21.833 1.66699 37.5 5s29.834 11 42.501 23z" />
    <glyph glyph-name="h" unicode="h" horiz-adv-x="565" 
d="M425 535c28.667 0 53.334 -4.16602 74.001 -12.499s37.667 -20 51 -35s23.333 -32.833 30 -53.5s10 -43 10 -67c0 -28 -3.33301 -55.667 -10 -83l-68 -284h-149l66 278c2.66699 11.333 5.16699 23.333 7.5 36s3.5 24.667 3.5 36c0 17.333 -4.5 32.166 -13.5 44.499
s-26.167 18.5 -51.5 18.5c-10.667 0 -20.834 -0.666992 -30.501 -2s-19.167 -3 -28.5 -5l-97 -406h-149l180 752l155 24l-61 -251c13.333 2.66699 26.833 5 40.5 7s27.167 3 40.5 3z" />
    <glyph glyph-name="i" unicode="i" horiz-adv-x="283" 
d="M218 0h-148l125 526h149zM290 590c-20.667 0 -39.334 6.16699 -56.001 18.5s-25 31.166 -25 56.499c0 14 2.83301 27.167 8.5 39.5s13.167 23 22.5 32s20.166 16.167 32.499 21.5s25.5 8 39.5 8c20.667 0 39.334 -6.16699 56.001 -18.5s25 -31.166 25 -56.499
c0 -14 -2.83301 -27.167 -8.5 -39.5s-13.167 -23 -22.5 -32s-20.166 -16.167 -32.499 -21.5s-25.5 -8 -39.5 -8z" />
    <glyph glyph-name="j" unicode="j" horiz-adv-x="290" 
d="M15 -185c-18.667 0 -37.167 1.83203 -55.5 5.49902s-34.833 8.16699 -49.5 13.5l38 118c9.33301 -3.33301 18.5 -6 27.5 -8s19.167 -3 30.5 -3c23.333 0 41.333 7 54 21s21.667 34.333 27 61l121 503h149l-122 -507c-16 -69.333 -41 -120.666 -75 -153.999
s-82.333 -50 -145 -50zM303 589.999c-20.667 0 -39.334 6.16699 -56.001 18.5s-25 31.166 -25 56.499c0 14 2.83301 27.167 8.5 39.5s13.167 23 22.5 32s20.166 16.167 32.499 21.5s25.5 8 39.5 8c20.667 0 39.334 -6.16699 56.001 -18.5s25 -31.166 25 -56.499
c0 -14 -2.83301 -27.167 -8.5 -39.5s-13.167 -23 -22.5 -32s-20.166 -16.167 -32.499 -21.5s-25.5 -8 -39.5 -8z" />
    <glyph glyph-name="k" unicode="k" horiz-adv-x="561" 
d="M299 336c40 32 77.667 64.6709 113 98.0039s65.666 64 90.999 92h168c-37.333 -41.333 -76.166 -81.833 -116.499 -121.5s-86.5 -81.834 -138.5 -126.501c14 -17.333 28.167 -37.333 42.5 -60s28 -46.334 41 -71.001s25 -49.667 36 -75s20.167 -49.333 27.5 -72h-166
c-6 17.333 -13.5 36.333 -22.5 57s-19 41.167 -30 61.5s-22.5 40.166 -34.5 59.499s-24 36.666 -36 51.999l-56 -230h-148l180 752l155 24z" />
    <glyph glyph-name="l" unicode="l" horiz-adv-x="315" 
d="M288 -10c-47.333 0 -84.498 6.16895 -111.498 18.502s-46.333 29.166 -58 50.499s-17.334 45.833 -17.001 73.5s4.16602 57.167 11.499 88.5l127 531l155 24l-139 -576c-2.66699 -12 -4.16699 -23 -4.5 -33s1.5 -18.833 5.5 -26.5s10.833 -13.834 20.5 -18.501
s23.167 -7.66699 40.5 -9z" />
    <glyph glyph-name="m" unicode="m" horiz-adv-x="846" 
d="M191 502c11.333 3.33301 23.501 7.16406 36.501 11.4971s27.667 8.33301 44 12s34.666 6.66699 54.999 9s43.833 3.5 70.5 3.5c32 0 58.5 -4 79.5 -12s40.167 -20 57.5 -36c24.667 14 49.167 25.5 73.5 34.5s52.833 13.5 85.5 13.5
c31.333 0 58.166 -4.16699 80.499 -12.5s40.833 -20.333 55.5 -36s25.334 -34.334 32.001 -56.001s10 -45.5 10 -71.5c0 -12 -0.833008 -24.667 -2.5 -38s-4.16699 -26.666 -7.5 -39.999l-68 -284h-149l66 278c2 9.33301 4.16699 19.833 6.5 31.5s3.5 23.167 3.5 34.5
c0 18.667 -4.33301 34.834 -13 48.501s-25.667 20.5 -51 20.5c-14 0 -27.333 -2.5 -40 -7.5s-24 -10.167 -34 -15.5c1.33301 -5.33301 2 -10.333 2 -15v-13c0 -12 -0.833008 -24.667 -2.5 -38s-4.16699 -26.666 -7.5 -39.999l-68 -284h-149l66 278
c2 9.33301 4.16699 19.833 6.5 31.5s3.5 23.167 3.5 34.5c0 18.667 -4.33301 34.834 -13 48.501s-25.667 20.5 -51 20.5c-10.667 0 -19.667 -0.5 -27 -1.5s-16 -2.5 -26 -4.5l-97 -407h-149z" />
    <glyph glyph-name="n" unicode="n" horiz-adv-x="567" 
d="M191 502c11.333 3.33301 23.835 7.16895 37.502 11.502s29 8.33301 46 12s36 6.66699 57 9s44.833 3.5 71.5 3.5c78.667 0 132.667 -22.667 162 -68s34.333 -107.333 15 -186l-68 -284h-149l66 278c4 17.333 7.16699 34.166 9.5 50.499s2.16602 30.666 -0.500977 42.999
s-8.83398 22.333 -18.501 30s-24.5 11.5 -44.5 11.5c-19.333 0 -39 -2 -59 -6l-97 -407h-149z" />
    <glyph glyph-name="o" unicode="o" horiz-adv-x="574" 
d="M308 -14c-35.333 0 -65.999 5.33301 -91.999 16s-47.5 25.667 -64.5 45s-29.833 42.166 -38.5 68.499s-13 55.5 -13 87.5c0 40 6.5 80 19.5 120s32.167 76 57.5 108s56.333 58.167 93 78.5s78.667 30.5 126 30.5c34.667 0 65.167 -5.33301 91.5 -16s48 -25.667 65 -45
s29.833 -42.166 38.5 -68.499s13 -55.5 13 -87.5c0 -40 -6.33301 -80 -19 -120s-31.334 -76 -56.001 -108s-55.5 -58.167 -92.5 -78.5s-79.833 -30.5 -128.5 -30.5zM382.001 414c-22 0 -41.333 -6.33301 -58 -19s-30.667 -28.667 -42 -48s-19.833 -40.5 -25.5 -63.5
s-8.5 -44.833 -8.5 -65.5c0 -34 5.33301 -60.167 16 -78.5s30 -27.5 58 -27.5c22 0 41.333 6.33301 58 19s30.667 28.667 42 48s19.833 40.5 25.5 63.5s8.5 44.833 8.5 65.5c0 34 -5.33301 60.167 -16 78.5s-30 27.5 -58 27.5z" />
    <glyph glyph-name="p" unicode="p" horiz-adv-x="578" 
d="M245 116c11.333 -2.66699 25.333 -3.99805 42 -3.99805c26 0 49.667 4.83301 71 14.5s39.5 23.167 54.5 40.5s26.667 38.166 35 62.499s12.5 51.166 12.5 80.499c0 28.667 -6.33301 53 -19 73s-34.667 30 -66 30c-21.333 0 -41.333 -2 -60 -6zM608 321.002
c0 -48.667 -7.99707 -93.1689 -23.9971 -133.502s-38.167 -75.166 -66.5 -104.499s-62.333 -52.166 -102 -68.499s-82.834 -24.5 -129.501 -24.5c-22.667 0 -45.334 2 -68.001 6l-45 -181h-148l166 692c26.667 8 57.167 15.167 91.5 21.5s71.5 9.5 111.5 9.5
c37.333 0 69.5 -5.66699 96.5 -17s49.167 -26.833 66.5 -46.5s30.166 -42.667 38.499 -69s12.5 -54.5 12.5 -84.5z" />
    <glyph glyph-name="q" unicode="q" horiz-adv-x="573" 
d="M100 204c0 52 8.83398 98.667 26.501 140s42 76.333 73 105s67.167 50.667 108.5 66s86 23 134 23c62 0 125.667 -13 191 -39l-163 -684h-149l46 194c-29.333 -12.667 -59.333 -19 -90 -19c-25.333 0 -48.833 4.83301 -70.5 14.5s-40.334 23.667 -56.001 42
s-28 40.833 -37 67.5s-13.5 56.667 -13.5 90zM464.001 411c-6.66699 1.33301 -13.668 2.33203 -21.001 2.99902s-14.666 1 -21.999 1c-27.333 0 -51.666 -5.33301 -72.999 -16s-39.5 -25.167 -54.5 -43.5s-26.333 -39.666 -34 -63.999s-11.5 -49.833 -11.5 -76.5
c0 -38 6.33301 -64.333 19 -79s30 -22 52 -22c12.667 0 25.167 1.83301 37.5 5.5s26.166 10.167 41.499 19.5z" />
    <glyph glyph-name="r" unicode="r" horiz-adv-x="426" 
d="M472 398c-13.333 3.33301 -26.5029 6.50098 -39.5029 9.50098s-32.167 4.5 -57.5 4.5c-9.33301 0 -19.666 -0.833008 -30.999 -2.5s-20.666 -3.5 -27.999 -5.5l-97 -404h-149l120 498c28.667 9.33301 60.834 18.166 96.501 26.499s75.834 12.5 120.501 12.5
c16.667 0 35.167 -1.5 55.5 -4.5s38.166 -7.83301 53.499 -14.5z" />
    <glyph glyph-name="s" unicode="s" horiz-adv-x="483" 
d="M241 106c34 0 57.334 4.83691 70.001 14.5039s19 20.167 19 31.5c0 7.33301 -1.16699 13.666 -3.5 18.999s-6.16602 10.333 -11.499 15s-12.666 9.5 -21.999 14.5s-21.333 10.833 -36 17.5c-16.667 7.33301 -32.334 15.166 -47.001 23.499s-27.5 18.333 -38.5 30
s-19.667 25 -26 40s-9.5 32.833 -9.5 53.5c0 54 19.833 96.667 59.5 128s97.5 47 173.5 47c36 0 68 -4 96 -12s50.667 -16.667 68 -26l-51 -111c-14 7.33301 -32 14.333 -54 21s-43.667 10 -65 10c-9.33301 0 -18.5 -0.5 -27.5 -1.5s-17.333 -3.16699 -25 -6.5
s-13.834 -8 -18.501 -14s-7 -14 -7 -24c0 -13.333 5.16699 -23.333 15.5 -30s24.833 -14.667 43.5 -24c26 -12.667 47.667 -24.334 65 -35.001s31.166 -22 41.499 -34s17.833 -25.667 22.5 -41s7 -33.333 7 -54c0 -21.333 -4.5 -42.333 -13.5 -63s-23.167 -39 -42.5 -55
s-44 -29 -74 -39s-66 -15 -108 -15c-26 0 -49.5 1.66699 -70.5 5s-39.5 7.5 -55.5 12.5s-29.5 10.167 -40.5 15.5s-19.5 9.66602 -25.5 12.999l51 114c11.333 -6.66699 29 -15 53 -25s53 -15 87 -15z" />
    <glyph glyph-name="t" unicode="t" horiz-adv-x="416" 
d="M213 657l155 23.9961l-38 -155h166l-30 -122h-165l-44 -184c-4 -15.333 -6.5 -29.666 -7.5 -42.999s0.666992 -24.833 5 -34.5s11.833 -17.167 22.5 -22.5s25.334 -8 44.001 -8c16 0 31.5 1.5 46.5 4.5s30.167 7.16699 45.5 12.5l11 -114
c-20 -7.33301 -41.667 -13.666 -65 -18.999s-51 -8 -83 -8c-46 0 -81.667 6.83301 -107 20.5s-43.333 32.334 -54 56.001s-15.334 50.834 -14.001 81.501s6 63 14 97z" />
    <glyph glyph-name="u" unicode="u" horiz-adv-x="581" 
d="M621 526l-71.002 -299c-9.33301 -38 -12 -76.167 -8 -114.5s11.667 -72.5 23 -102.5l-133 -19c-7.33301 14.667 -14.333 31 -21 49c-18.667 -14.667 -39.667 -27 -63 -37s-49.333 -15 -78 -15c-39.333 0 -71.166 7.16699 -95.499 21.5s-42.5 33.333 -54.5 57
s-18.5 50.834 -19.5 81.501s2.5 62 10.5 94l68 284h149l-67 -282c-3.33301 -14.667 -6.16602 -29.667 -8.49902 -45s-2.5 -29.5 -0.5 -42.5s7.16699 -23.667 15.5 -32s21.5 -12.5 39.5 -12.5c15.333 0 29.5 2.83301 42.5 8.5s26.833 15.5 41.5 29.5
c1.33301 16.667 3.5 34.167 6.5 52.5s6.16699 35.166 9.5 50.499l65 273h149z" />
    <glyph glyph-name="v" unicode="v" horiz-adv-x="546" 
d="M201 0c-17.333 66.667 -33 144.502 -47 233.502s-23.667 186.5 -29 292.5h154c0.666992 -26 1.66699 -54.5 3 -85.5s3 -62.167 5 -93.5s4.33301 -61.833 7 -91.5s5.66699 -56.5 9 -80.5c14.667 20 31.167 44.667 49.5 74s36.166 60 53.499 92s33.333 64.167 48 96.5
s26 61.833 34 88.5h158c-17.333 -47.333 -38.833 -96 -64.5 -146s-53.167 -98.333 -82.5 -145s-59.166 -90.334 -89.499 -131.001s-58.5 -75.334 -84.5 -104.001h-124z" />
    <glyph glyph-name="w" unicode="w" horiz-adv-x="816" 
d="M482 308c-12.667 -27.333 -26.8369 -55.166 -42.5039 -83.499s-31.667 -56 -48 -83s-32.166 -52.667 -47.499 -77s-29 -45.833 -41 -64.5h-116c-5.33301 28 -10.833 61.333 -16.5 100s-11.167 80.834 -16.5 126.501s-10.166 94 -14.499 145s-7.5 102.5 -9.5 154.5h146
c0 -24 0.166992 -50 0.5 -78s1 -57 2 -87s2.5 -60.667 4.5 -92s4.66699 -62.333 8 -93c16.667 28 33.167 57.167 49.5 87.5s32 60.666 47 90.999s29 60.166 42 89.499s24.5 56.666 34.5 81.999h124c0 -48 0.833008 -101.667 2.5 -161s5.83398 -122.333 12.501 -189
c18 30 34.667 60.833 50 92.5s29.5 62.834 42.5 93.501s24.667 60 35 88s19.5 53.333 27.5 76h158c-13.333 -33.333 -29.166 -70.833 -47.499 -112.5s-39.5 -85.5 -63.5 -131.5s-51 -93 -81 -141s-63.333 -95 -100 -141h-116c-8 54.667 -14 107 -18 157
s-6.66699 100.333 -8 151z" />
    <glyph glyph-name="x" unicode="x" horiz-adv-x="549" 
d="M281 526l75.998 -164c22.667 28 44.167 55.333 64.5 82s39.833 54 58.5 82h149c-28 -40 -58.667 -81.5 -92 -124.5s-72 -87.833 -116 -134.5c26.667 -50 49.334 -96.167 68.001 -138.5s35.334 -85.166 50.001 -128.499h-147c-12 32.667 -24 62.667 -36 90
s-23.667 52.666 -35 75.999l-145 -166h-156l239 268l-129 258h151z" />
    <glyph glyph-name="y" unicode="y" horiz-adv-x="532" 
d="M632 526c-18.667 -50.667 -37.5 -98.002 -56.5 -142.002s-38.833 -85.833 -59.5 -125.5s-42 -77.5 -64 -113.5s-45.333 -71.667 -70 -107c-18 -26 -36.667 -52.333 -56 -79s-40.833 -50.667 -64.5 -72s-50 -38.666 -79 -51.999s-62.5 -20 -100.5 -20
c-23.333 0 -43.333 2.16699 -60 6.5s-32.334 10.166 -47.001 17.499l45 117c13.333 -5.33301 25.333 -9.5 36 -12.5s23.667 -4.5 39 -4.5c23.333 0 45.5 7.5 66.5 22.5s38.5 35.167 52.5 60.5c-17.333 66.667 -33.166 141.334 -47.499 224.001s-24.166 176 -29.499 280h153
c0.666992 -26 2 -54.667 4 -86s4.33301 -62.833 7 -94.5s5.66699 -62.5 9 -92.5s7 -57 11 -81c32 48 60.167 101.333 84.5 160s47.166 123.334 68.499 194.001h158z" />
    <glyph glyph-name="z" unicode="z" horiz-adv-x="526" 
d="M582 427c-15.333 -13.333 -35.332 -31.499 -59.999 -54.499s-51.334 -48.333 -80.001 -76s-58 -56.667 -88 -87s-58 -59.5 -84 -87.5h244l-30 -122h-424l21 87c19.333 24 41.5 50 66.5 78s51 56.333 78 85s54 56.167 81 82.5s52.167 50.166 75.5 71.499h-214l30 122h408z
" />
    <glyph glyph-name="braceleft" unicode="{" horiz-adv-x="371" 
d="M109 358c20.667 0 38.3291 2.33398 52.9961 7.00098s27 11.167 37 19.5s17.833 18.166 23.5 29.499s10.167 24 13.5 38l36 151c7.33301 30 17.333 56.333 30 79s29.334 41.5 50.001 56.5s46.167 26.167 76.5 33.5s66.5 11 108.5 11h20l-29 -119h-25
c-16 0 -29.5 -1.83301 -40.5 -5.5s-20.167 -9 -27.5 -16s-13.166 -15.5 -17.499 -25.5s-7.83301 -21.667 -10.5 -35l-31 -133c-4 -17.333 -8.66699 -33.333 -14 -48s-12.666 -28.334 -21.999 -41.001s-21.166 -24 -35.499 -34s-32.5 -19 -54.5 -27
c23.333 -10.667 39.333 -23.5 48 -38.5s13 -32.167 13 -51.5c0 -15.333 -2.66699 -35.333 -8 -60l-31 -133c-4 -16 -6 -29.333 -6 -40c0 -15.333 4.66699 -26.166 14 -32.499s25.333 -9.5 48 -9.5h25l-29 -119h-20c-58.667 0 -103.5 9.16699 -134.5 27.5
s-46.5 51.833 -46.5 100.5c0 20 3.66699 46.333 11 79l29 124c6.66699 32 4 55.667 -8 71s-37 23 -75 23z" />
    <glyph glyph-name="bar" unicode="|" horiz-adv-x="304" 
d="M262 783h142l-233 -968h-141z" />
    <glyph glyph-name="braceright" unicode="}" horiz-adv-x="371" 
d="M397 240c-20.667 0 -38.3301 -2.33301 -52.9971 -7s-27 -11.167 -37 -19.5s-17.833 -18.166 -23.5 -29.499s-10.167 -24 -13.5 -38l-36 -151c-7.33301 -30 -17.333 -56.333 -30 -79s-29.334 -41.5 -50.001 -56.5s-46.167 -26.167 -76.5 -33.5s-66.5 -11 -108.5 -11h-20
l29 119h25c16.667 0 30.334 1.66699 41.001 5s19.5 8.5 26.5 15.5s12.667 15.667 17 26s8.16602 22.166 11.499 35.499l31 133c4 17.333 8.66699 33.333 14 48s12.666 28.334 21.999 41.001s21.166 24 35.499 34s32.5 19 54.5 27c-23.333 10.667 -39.333 23.5 -48 38.5
s-13 32.167 -13 51.5c0 15.333 2.66699 35.333 8 60l31 133c4 16 6 29.333 6 40c0 15.333 -4.66699 26.166 -14 32.499s-25.333 9.5 -48 9.5h-25l29 119h20c58.667 0 103.5 -9.16699 134.5 -27.5s46.5 -51.833 46.5 -100.5c0 -20 -3.66699 -46.333 -11 -79l-29 -124
c-6.66699 -32 -4 -55.667 8 -71s37 -23 75 -23z" />
    <glyph glyph-name="asciitilde" unicode="~" horiz-adv-x="568" 
d="M428 196c-22 0 -41.168 4 -57.501 12s-31.166 16.667 -44.499 26s-26.166 18 -38.499 26s-25.833 12 -40.5 12c-6 0 -11.5 -0.666992 -16.5 -2s-10.167 -4.5 -15.5 -9.5s-11 -12.333 -17 -22s-13 -22.834 -21 -39.501l-95 28c7.33301 22.667 16.5 44.667 27.5 66
s24.333 40.166 40 56.499s33.667 29.333 54 39s43.5 14.5 69.5 14.5c22 0 41.167 -4 57.5 -12s31.166 -16.667 44.499 -26s26.166 -18 38.499 -26s25.833 -12 40.5 -12c6 0 11.5 0.666992 16.5 2s10.167 4.5 15.5 9.5s11 12.333 17 22s13 22.834 21 39.501l95 -28
c-9.33301 -25.333 -19.666 -48.666 -30.999 -69.999s-24.5 -39.833 -39.5 -55.5s-32.333 -28 -52 -37s-42.5 -13.5 -68.5 -13.5z" />
    <glyph glyph-name="uni00A0" unicode="&#xa0;" horiz-adv-x="240" 
 />
    <glyph glyph-name="exclamdown" unicode="&#xa1;" horiz-adv-x="295" 
d="M75 4c13.333 54 27.501 104.333 42.501 151s31.5 94 49.5 142h114c-5.33301 -48 -11.333 -95.333 -18 -142s-16.334 -97 -29.001 -151l-43 -179h-159zM243.001 347c-23.333 0 -42.833 6.5 -58.5 19.5s-23.5 33.5 -23.5 61.5c0 15.333 2.83301 29.333 8.5 42
s13.167 23.5 22.5 32.5s20 16 32 21s24.333 7.5 37 7.5c23.333 0 42.833 -6.5 58.5 -19.5s23.5 -33.5 23.5 -61.5c0 -15.333 -2.83301 -29.333 -8.5 -42s-13.167 -23.5 -22.5 -32.5s-20 -16 -32 -21s-24.333 -7.5 -37 -7.5z" />
    <glyph glyph-name="cent" unicode="&#xa2;" horiz-adv-x="568" 
d="M517 59c-19.333 -8 -39.3311 -14.502 -59.998 -19.502s-41 -8.5 -61 -10.5l-33 -138h-142l37 154c-34 14 -61.167 36 -81.5 66s-30.5 71 -30.5 123c0 42.667 6 81.5 18 116.5s28.5 65.833 49.5 92.5s45.5 49 73.5 67s58 31 90 39l35 144h142l-34 -140
c29.333 -6 57 -16.333 83 -31l-50 -115c-16 9.33301 -32.333 16 -49 20s-32.667 6 -48 6c-22.667 0 -43.5 -4.33301 -62.5 -13s-35.5 -21.167 -49.5 -37.5s-24.833 -36.666 -32.5 -60.999s-11.5 -51.833 -11.5 -82.5c0 -33.333 8.5 -56.166 25.5 -68.499
s37.5 -18.5 61.5 -18.5c19.333 0 39.666 2.66699 60.999 8s40.666 11.333 57.999 18z" />
    <glyph glyph-name="sterling" unicode="&#xa3;" horiz-adv-x="568" 
d="M374 394l176.002 -0.000976562l-29 -122h-176c-6 -23.333 -13.333 -48.166 -22 -74.499s-17.334 -50.5 -26.001 -72.5h271l-30 -125h-434c24 54 43.5 103.333 58.5 148s27.5 86 37.5 124h-87l29 122h87l25 96c10.667 40 25.167 73.833 43.5 101.5s39.166 50 62.499 67
s48.5 29.167 75.5 36.5s55.167 11 84.5 11c30 0 57.833 -3.33301 83.5 -10s49.167 -15.667 70.5 -27l-60 -110c-34 15.333 -65.667 23 -95 23c-14 0 -27.5 -1.66699 -40.5 -5s-25 -9.5 -36 -18.5s-21 -21.5 -30 -37.5s-16.5 -36.667 -22.5 -62z" />
    <glyph glyph-name="currency" unicode="&#xa4;" horiz-adv-x="568" 
d="M354 544c16.667 0 32.5 -1.33301 47.5 -4s29.833 -7.33398 44.5 -14.001l74 71l93 -91l-72 -69c14 -26 21 -56 21 -90s-7 -64 -21 -90l72 -69l-94 -92l-74 72c-14 -6.66699 -28.333 -11.334 -43 -14.001s-30.667 -4 -48 -4c-16.667 0 -32.5 1.33301 -47.5 4
s-29.833 7.33398 -44.5 14.001l-74 -71l-93 91l72 69c-14 26 -21 56 -21 90s7 64 21 90l-72 69l94 92l74 -72c14 6.66699 28.333 11.334 43 14.001s30.667 4 48 4zM436 347c0 28.667 -8 50.334 -24 65.001s-35.333 22 -58 22s-42 -7.33301 -58 -22s-24 -36.334 -24 -65.001
s8 -50.334 24 -65.001s35.333 -22 58 -22s42 7.33301 58 22s24 36.334 24 65.001z" />
    <glyph glyph-name="yen" unicode="&#xa5;" horiz-adv-x="568" 
d="M385 431c34 44 65.999 86.1689 95.999 126.502s61 85.5 93 135.5h162c-37.333 -56 -76 -110 -116 -162s-82.667 -105.667 -128 -161h101l-23 -95h-146l-16 -69h146l-23 -95h-146l-27 -111h-156l27 111h-145l23 95h145l16 69h-145l23 95h115
c-10.667 27.333 -21.167 55.166 -31.5 83.499s-20.166 56.5 -29.499 84.5s-17.833 55.167 -25.5 81.5s-14.167 50.833 -19.5 73.5h156c4.66699 -24 9.66699 -46.5 15 -67.5s11 -41.833 17 -62.5s12.5 -41.834 19.5 -63.501s14.5 -44.5 22.5 -68.5z" />
    <glyph glyph-name="brokenbar" unicode="&#xa6;" horiz-adv-x="302" 
d="M119 212h142l-96 -397h-141zM256 783h142l-96 -397h-142z" />
    <glyph glyph-name="section" unicode="&#xa7;" horiz-adv-x="515" 
d="M111 287c0 32 10.833 63.8301 32.5 95.4971s50.5 58.167 86.5 79.5c-18.667 22.667 -28 49.667 -28 81c0 20.667 5 41 15 61s24.667 37.667 44 53s43.666 27.833 72.999 37.5s63.333 14.5 102 14.5c30 0 59.167 -3.33301 87.5 -10s53.833 -16.667 76.5 -30l-51 -106
c-20.667 10.667 -40.667 18.334 -60 23.001s-37.666 7 -54.999 7c-28 0 -50.167 -5 -66.5 -15s-24.5 -22.667 -24.5 -38c0 -7.33301 2.66699 -14.5 8 -21.5s14.666 -13.833 27.999 -20.5l75 -38c34 -17.333 58.167 -37.166 72.5 -59.499s21.5 -45.833 21.5 -70.5
c0 -32 -10 -63 -30 -93s-46 -54.667 -78 -74l-13 -8c20 -27.333 30 -55.333 30 -84c0 -22 -4.83301 -43.833 -14.5 -65.5s-24.5 -41 -44.5 -58s-45.5 -30.833 -76.5 -41.5s-67.5 -16 -109.5 -16c-32 0 -64 3.66699 -96 11s-58.667 18.333 -80 33l51 106
c40.667 -22.667 81.667 -34 123 -34c38 0 65.167 6.33301 81.5 19s24.5 26.667 24.5 42c0 10.667 -3.16699 20.834 -9.5 30.501s-15.166 17.167 -26.499 22.5l-75 38c-34 16.667 -58.167 36.167 -72.5 58.5s-21.5 45.833 -21.5 70.5zM243 310.997
c0 -13.333 4.83105 -26.499 14.498 -39.499s26.167 -25.167 49.5 -36.5l43 -21c20 13.333 36 27.666 48 42.999s18 31.333 18 48c0 14.667 -5.66699 29 -17 43s-29.666 27 -54.999 39l-35 16c-19.333 -12.667 -35.166 -27 -47.499 -43s-18.5 -32.333 -18.5 -49z" />
    <glyph glyph-name="dieresis" unicode="&#xa8;" horiz-adv-x="536" 
d="M298 602c-19.333 0 -35.335 6 -48.002 18s-19 28 -19 48c0 12.667 2.33301 24.334 7 35.001s10.834 19.667 18.501 27s16.334 13.166 26.001 17.499s19.5 6.5 29.5 6.5c18.667 0 34.667 -6.16699 48 -18.5s20 -28.833 20 -49.5c0 -12 -2.5 -23.167 -7.5 -33.5
s-11.5 -19.333 -19.5 -27s-16.833 -13.5 -26.5 -17.5s-19.167 -6 -28.5 -6zM519.998 602c-19.333 0 -35.335 6 -48.002 18s-19 28 -19 48c0 12.667 2.33301 24.334 7 35.001s10.834 19.667 18.501 27s16.334 13.166 26.001 17.499s19.5 6.5 29.5 6.5
c18.667 0 34.667 -6.16699 48 -18.5s20 -28.833 20 -49.5c0 -12 -2.5 -23.167 -7.5 -33.5s-11.5 -19.333 -19.5 -27s-16.833 -13.5 -26.5 -17.5s-19.167 -6 -28.5 -6z" />
    <glyph glyph-name="copyright" unicode="&#xa9;" horiz-adv-x="796" 
d="M816 347c0 -57.333 -9.5 -108.333 -28.5 -153s-44.5 -82.5 -76.5 -113.5s-69 -54.667 -111 -71s-86 -24.5 -132 -24.5s-90 8.16699 -132 24.5s-79 40 -111 71s-57.5 68.833 -76.5 113.5s-28.5 95.667 -28.5 153c0 56.667 9.5 107.5 28.5 152.5s44.5 83 76.5 114
s69 54.667 111 71s86 24.5 132 24.5s90 -8.16699 132 -24.5s79 -40 111 -71s57.5 -69 76.5 -114s28.5 -95.833 28.5 -152.5zM714 347c0 40 -6 76.333 -18 109s-28.833 60.667 -50.5 84s-47.667 41.333 -78 54s-63.5 19 -99.5 19s-69.167 -6.33301 -99.5 -19
s-56.333 -30.667 -78 -54s-38.5 -51.333 -50.5 -84s-18 -69 -18 -109s6 -76.333 18 -109s28.833 -60.667 50.5 -84s47.667 -41.333 78 -54s63.5 -19 99.5 -19s69.167 6.33301 99.5 19s56.333 30.667 78 54s38.5 51.333 50.5 84s18 69 18 109zM484 160
c-60 0 -105.496 16.3311 -136.496 48.998s-46.5 79.334 -46.5 140.001s16.5 107.167 49.5 139.5s76.5 48.5 130.5 48.5c32 0 57.833 -4.33301 77.5 -13s33.167 -15 40.5 -19l-32 -88c-9.33301 5.33301 -19.833 9.83301 -31.5 13.5s-26.834 5.5 -45.501 5.5
c-22 0 -39.667 -7 -53 -21s-20 -34.333 -20 -61c0 -12 1 -23.5 3 -34.5s5.66699 -20.667 11 -29s12.666 -15.166 21.999 -20.499s21.666 -8 36.999 -8c20 0 36.667 2.33301 50 7s25.333 9 36 13l28 -91c-8.66699 -4.66699 -23.334 -11 -44.001 -19s-46 -12 -76 -12z" />
    <glyph glyph-name="ordfeminine" unicode="&#xaa;" horiz-adv-x="472" 
d="M415 607c-4.66699 0.666992 -9.16602 1.16699 -13.499 1.5s-8.5 0.5 -12.5 0.5c-18 0 -35 -3 -51 -9s-30.167 -14.833 -42.5 -26.5s-22 -25.5 -29 -41.5s-10.5 -34 -10.5 -54s5.16699 -37.167 15.5 -51.5s26.166 -21.5 47.499 -21.5c9.33301 0 19 1.66699 29 5
s20.333 9 31 17c-0.666992 2 -1 6.66699 -1 14c0 10 1 20.333 3 31s4.33301 21 7 31zM498.001 504c-6.66699 -22.667 -10.999 -49.166 -12.999 -79.499s4.33301 -64.5 19 -102.5l-94 -13l-13 31c-35.333 -23.333 -70.333 -35 -105 -35c-23.333 0 -43.833 4.33301 -61.5 13
s-32.5 20.5 -44.5 35.5s-21 32.333 -27 52s-9 40.167 -9 61.5c0 28 5.33301 56.333 16 85s26.834 54.5 48.501 77.5s49 41.833 82 56.5s72.167 22 117.5 22c19.333 0 39.666 -1.33301 60.999 -4s43.666 -7.33398 66.999 -14.001z" />
    <glyph glyph-name="guillemotleft" unicode="&#xab;" horiz-adv-x="613" 
d="M256 271l72 -181l-99 -46l-129 246l219 234l94 -56zM526 271l72 -181l-99 -46l-129 246l219 234l94 -56z" />
    <glyph glyph-name="logicalnot" unicode="&#xac;" horiz-adv-x="568" 
d="M514 51h-136l57 234h-334l30 125h470z" />
    <glyph glyph-name="uni00AD" unicode="&#xad;" horiz-adv-x="343" 
d="M106 366h290l-33 -135h-290z" />
    <glyph glyph-name="registered" unicode="&#xae;" horiz-adv-x="796" 
d="M816 347c0 -57.333 -9.5 -108.333 -28.5 -153s-44.5 -82.5 -76.5 -113.5s-69 -54.667 -111 -71s-86 -24.5 -132 -24.5s-90 8.16699 -132 24.5s-79 40 -111 71s-57.5 68.833 -76.5 113.5s-28.5 95.667 -28.5 153c0 56.667 9.5 107.5 28.5 152.5s44.5 83 76.5 114
s69 54.667 111 71s86 24.5 132 24.5s90 -8.16699 132 -24.5s79 -40 111 -71s57.5 -69 76.5 -114s28.5 -95.833 28.5 -152.5zM714 347c0 40 -6 76.333 -18 109s-28.833 60.667 -50.5 84s-47.667 41.333 -78 54s-63.5 19 -99.5 19s-69.167 -6.33301 -99.5 -19
s-56.333 -30.667 -78 -54s-38.5 -51.333 -50.5 -84s-18 -69 -18 -109s6 -76.333 18 -109s28.833 -60.667 50.5 -84s47.667 -41.333 78 -54s63.5 -19 99.5 -19s69.167 6.33301 99.5 19s56.333 30.667 78 54s38.5 51.333 50.5 84s18 69 18 109zM529 177
c-11.333 25.333 -21.0039 47.499 -29.0039 66.499s-17 36.167 -27 51.5h-40v-118h-97v342c22.667 5.33301 43.834 9.16602 63.501 11.499s36.834 3.5 51.501 3.5c107.333 0 161 -40.333 161 -121c0 -41.333 -18 -71.666 -54 -90.999
c7.33301 -11.333 13.833 -22.166 19.5 -32.499s11.334 -21 17.001 -32s11.334 -23 17.001 -36s12.167 -27.833 19.5 -44.5h-102zM432.996 372.999l18 0.000976562c21.333 0 37.333 2.83301 48 8.5s16 16.5 16 32.5c0 13.333 -4.66699 22.666 -14 27.999s-23 8 -41 8
c-4.66699 0 -9.5 -0.166992 -14.5 -0.5s-9.16699 -0.833008 -12.5 -1.5v-75z" />
    <glyph glyph-name="macron" unicode="&#xaf;" horiz-adv-x="376" 
d="M196 725h322l-25 -102h-322z" />
    <glyph glyph-name="degree" unicode="&#xb0;" horiz-adv-x="382" 
d="M321 781c21.333 0 41.833 -3.5 61.5 -10.5s36.834 -17.333 51.501 -31s26.334 -30 35.001 -49s13 -40.5 13 -64.5s-4.33301 -45.5 -13 -64.5s-20.334 -35.333 -35.001 -49s-31.834 -24 -51.501 -31s-40.167 -10.5 -61.5 -10.5s-41.833 3.5 -61.5 10.5
s-36.834 17.333 -51.501 31s-26.334 30 -35.001 49s-13 40.5 -13 64.5s4.33301 45.5 13 64.5s20.334 35.333 35.001 49s31.834 24 51.501 31s40.167 10.5 61.5 10.5zM321 569c14 0 26.667 5.16699 38 15.5s17 24.166 17 41.499s-5.66699 31.166 -17 41.499
s-24 15.5 -38 15.5s-26.667 -5.16699 -38 -15.5s-17 -24.166 -17 -41.499s5.66699 -31.166 17 -41.499s24 -15.5 38 -15.5z" />
    <glyph glyph-name="plusminus" unicode="&#xb1;" horiz-adv-x="568" 
d="M153 455h167l41 170h136l-41 -170h167l-30 -125h-167l-41 -170h-136l41 170h-167zM73 125h470l-30 -125h-469z" />
    <glyph glyph-name="twosuperior" unicode="&#xb2;" horiz-adv-x="363" 
d="M411 393l-20.001 -91.0029h-287c0 20.667 2 39.834 6 57.501s11 34.5 21 50.5s23.833 31.5 41.5 46.5s40.5 30.167 68.5 45.5c19.333 10.667 34.666 19.834 45.999 27.501s20 14.667 26 21s9.83301 12.333 11.5 18s2.5 11.834 2.5 18.501
c0 8.66699 -3.33301 15.667 -10 21s-15.667 8 -27 8c-12.667 0 -27.5 -3.66699 -44.5 -11s-36.167 -19.666 -57.5 -36.999l-37 79c45.333 41.333 98.333 62 159 62c16.667 0 32.5 -2 47.5 -6s28.167 -10.167 39.5 -18.5s20.333 -19.166 27 -32.499s10 -29 10 -47
c0 -30.667 -8 -57.5 -24 -80.5s-42 -45.833 -78 -68.5c-9.33301 -6 -18.666 -11.833 -27.999 -17.5s-18.166 -11.334 -26.499 -17.001s-15.5 -10.834 -21.5 -15.501s-10 -9 -12 -13h167z" />
    <glyph glyph-name="threesuperior" unicode="&#xb3;" horiz-adv-x="363" 
d="M132 410c12.667 -8 28.665 -14.5 47.998 -19.5s38.666 -7.5 57.999 -7.5c21.333 0 40 3.66699 56 11s24 19.666 24 36.999c0 11.333 -5 20.166 -15 26.499s-26 9.5 -48 9.5h-51l20 77h45c21.333 0 37.833 5 49.5 15s17.5 20.667 17.5 32c0 8 -3.66699 15 -11 21
s-19 9 -35 9c-16.667 0 -33.667 -2.66699 -51 -8s-32.666 -11.333 -45.999 -18l-21 80c16.667 8.66699 38.167 16.5 64.5 23.5s52.833 10.5 79.5 10.5c16 0 31.167 -1.5 45.5 -4.5s27 -8.33301 38 -16s19.667 -17.667 26 -30s9.5 -27.5 9.5 -45.5
c0 -19.333 -5.66699 -38.333 -17 -57s-27.666 -32.667 -48.999 -42c14.667 -7.33301 26.334 -18.5 35.001 -33.5s13 -31.5 13 -49.5c0 -25.333 -5.33301 -46.666 -16 -63.999s-24.667 -31.5 -42 -42.5s-37.166 -19 -59.499 -24s-44.833 -7.5 -67.5 -7.5
c-26.667 0 -52.334 2.83301 -77.001 8.5s-45.667 13.834 -63 24.501z" />
    <glyph glyph-name="acute" unicode="&#xb4;" horiz-adv-x="286" 
d="M414 712l-177 -136l-60 62l160 161z" />
    <glyph glyph-name="mu" unicode="&#xb5;" horiz-adv-x="632" 
d="M652 526l-71.0029 -299c-3.33301 -13.333 -6.16602 -25.5 -8.49902 -36.5s-3.5 -20.833 -3.5 -29.5c0 -15.333 4.33301 -26.833 13 -34.5s24.667 -12.167 48 -13.5l-49 -124c-42 0.666992 -73.667 5.83398 -95 15.501s-36.666 21.5 -45.999 35.5
c-22 -16 -45.167 -28.667 -69.5 -38s-48.166 -14 -71.499 -14c-14.667 0 -29 2.16699 -43 6.5s-27 11.166 -39 20.499c0 -15.333 -1 -30.333 -3 -45s-6 -34.334 -12 -59.001l-19 -77h-148l165 692h149l-67 -282c-2.66699 -11.333 -5.16699 -23.166 -7.5 -35.499
s-3.83301 -24.166 -4.5 -35.499c0 -17.333 4.5 -31.833 13.5 -43.5s27.167 -17.5 54.5 -17.5c8.66699 0 20 2.16699 34 6.5s30.667 15.166 50 32.499c1.33301 16.667 3.5 34.167 6.5 52.5s6.16699 34.833 9.5 49.5l65 273h149z" />
    <glyph glyph-name="paragraph" unicode="&#xb6;" horiz-adv-x="710" 
d="M309 258c-48 7.33301 -85.668 26 -113.001 56s-41 71 -41 123c0 42.667 10 80.5 30 113.5s48.167 60.5 84.5 82.5s80.333 38.667 132 50s109.5 17 173.5 17c30.667 0 62 -1.33301 94 -4s66 -7 102 -13l-208 -868h-142l184 767
c-9.33301 1.33301 -20.666 2.33301 -33.999 3s-27.333 1 -42 1l-185 -771h-142z" />
    <glyph glyph-name="periodcentered" unicode="&#xb7;" horiz-adv-x="242" 
d="M198 387c23.333 0 42.833 -6.5 58.5 -19.5s23.5 -33.5 23.5 -61.5c0 -15.333 -2.83301 -29.333 -8.5 -42s-13.167 -23.5 -22.5 -32.5s-20 -16 -32 -21s-24.333 -7.5 -37 -7.5c-23.333 0 -42.833 6.5 -58.5 19.5s-23.5 33.5 -23.5 61.5c0 15.333 2.83301 29.333 8.5 42
s13.167 23.5 22.5 32.5s20 16 32 21s24.333 7.5 37 7.5z" />
    <glyph glyph-name="cedilla" unicode="&#xb8;" horiz-adv-x="326" 
d="M194 -44c14.667 -7.33301 25.668 -17 33.001 -29s11 -24.667 11 -38c0 -19.333 -3.83301 -36 -11.5 -50s-18 -25.5 -31 -34.5s-27.833 -15.5 -44.5 -19.5s-33.667 -6 -51 -6c-18 0 -35.833 2 -53.5 6s-33.5 9.66699 -47.5 17l36 82c8.66699 -4 18.5 -7.33301 29.5 -10
s21.5 -4 31.5 -4c26.667 0 40 8 40 24c0 7.33301 -2.33301 13.333 -7 18s-12.334 9.33398 -23.001 14.001l-20 9c4 6.66699 9 14.167 15 22.5s11.833 16.666 17.5 24.999s11 15.833 16 22.5s8.5 11.667 10.5 15h94c-2.66699 -3.33301 -6 -7.83301 -10 -13.5
s-8.16699 -11.5 -12.5 -17.5s-8.5 -12 -12.5 -18z" />
    <glyph glyph-name="onesuperior" unicode="&#xb9;" horiz-adv-x="363" 
d="M156 618c32 11.333 62.501 24.166 91.501 38.499s55.167 29.166 78.5 44.499h87l-95 -399h-114l64 270c-14.667 -7.33301 -29.834 -14.166 -45.501 -20.499s-34.167 -13.166 -55.5 -20.499z" />
    <glyph glyph-name="ordmasculine" unicode="&#xba;" horiz-adv-x="439" 
d="M244 456c0 -12.667 1.66699 -22.834 5 -30.501s7.66602 -13.667 12.999 -18s11.5 -7.33301 18.5 -9s14.167 -2.5 21.5 -2.5c14.667 0 28.834 4.16699 42.501 12.5s25.667 19.833 36 34.5s18.666 31.834 24.999 51.501s9.5 41.167 9.5 64.5c0 12 -1.66699 22 -5 30
s-7.66602 14.167 -12.999 18.5s-11.5 7.33301 -18.5 9s-14.167 2.5 -21.5 2.5c-14.667 0 -28.834 -4.16699 -42.501 -12.5s-25.667 -19.833 -36 -34.5s-18.666 -32 -24.999 -52s-9.5 -41.333 -9.5 -64zM140 448c0 33.333 4.83301 65.666 14.5 96.999s24 59.166 43 83.499
s42.833 43.833 71.5 58.5s61.667 22 99 22c52 0 90.167 -12.667 114.5 -38s36.5 -60 36.5 -104c0 -33.333 -4.83301 -65.666 -14.5 -96.999s-24 -59.166 -43 -83.499s-42.833 -43.833 -71.5 -58.5s-61.667 -22 -99 -22c-52 0 -90.167 12.667 -114.5 38s-36.5 60 -36.5 104z
" />
    <glyph glyph-name="guillemotright" unicode="&#xbb;" horiz-adv-x="613" 
d="M218 297l-72 181l99 46l129 -246l-219 -234l-94 56zM487 297l-72 181l99 46l129 -246l-219 -234l-94 56z" />
    <glyph glyph-name="onequarter" unicode="&#xbc;" horiz-adv-x="878" 
d="M137 618c32 11.333 62.501 24.166 91.501 38.499s55.167 29.166 78.5 44.499h87l-95 -399h-114l64 270c-14.667 -7.33301 -29.834 -14.166 -45.501 -20.499s-34.167 -13.166 -55.5 -20.499zM831.001 693l-521 -693h-138l523 693h136zM874.001 401l-56 -231.001h46
l-19 -80h-46l-22 -89h-94l22 89h-190l15 69c36.667 47.333 75.167 90.833 115.5 130.5s85.5 76.834 135.5 111.501h93zM755.001 296.999c-20.667 -18 -41.833 -37.833 -63.5 -59.5s-41.167 -44.167 -58.5 -67.5h91z" />
    <glyph glyph-name="onehalf" unicode="&#xbd;" horiz-adv-x="878" 
d="M147 618c32 11.333 62.501 24.166 91.501 38.499s55.167 29.166 78.5 44.499h87l-95 -399h-114l64 270c-14.667 -7.33301 -29.834 -14.166 -45.501 -20.499s-34.167 -13.166 -55.5 -20.499zM813.001 693l-521 -693h-138l523 693h136zM875.001 93l-20.001 -91.0029h-287
c0 20.667 2 39.834 6 57.501s11 34.5 21 50.5s23.833 31.5 41.5 46.5s40.5 30.167 68.5 45.5c19.333 10.667 34.666 19.834 45.999 27.501s20 14.667 26 21s9.83301 12.333 11.5 18s2.5 11.834 2.5 18.501c0 8.66699 -3.33301 15.667 -10 21s-15.667 8 -27 8
c-12.667 0 -27.5 -3.66699 -44.5 -11s-36.167 -19.666 -57.5 -36.999l-37 79c45.333 41.333 98.333 62 159 62c16.667 0 32.5 -2 47.5 -6s28.167 -10.167 39.5 -18.5s20.333 -19.166 27 -32.499s10 -29 10 -47c0 -30.667 -8 -57.5 -24 -80.5s-42 -45.833 -78 -68.5
c-9.33301 -6 -18.666 -11.833 -27.999 -17.5s-18.166 -11.334 -26.499 -17.001s-15.5 -10.834 -21.5 -15.501s-10 -9 -12 -13h167z" />
    <glyph glyph-name="threequarters" unicode="&#xbe;" horiz-adv-x="878" 
d="M123 410c12.667 -8 28.665 -14.5 47.998 -19.5s38.666 -7.5 57.999 -7.5c21.333 0 40 3.66699 56 11s24 19.666 24 36.999c0 11.333 -5 20.166 -15 26.499s-26 9.5 -48 9.5h-51l20 77h45c21.333 0 37.833 5 49.5 15s17.5 20.667 17.5 32c0 8 -3.66699 15 -11 21
s-19 9 -35 9c-16.667 0 -33.667 -2.66699 -51 -8s-32.666 -11.333 -45.999 -18l-21 80c16.667 8.66699 38.167 16.5 64.5 23.5s52.833 10.5 79.5 10.5c16 0 31.167 -1.5 45.5 -4.5s27 -8.33301 38 -16s19.667 -17.667 26 -30s9.5 -27.5 9.5 -45.5
c0 -19.333 -5.66699 -38.333 -17 -57s-27.666 -32.667 -48.999 -42c14.667 -7.33301 26.334 -18.5 35.001 -33.5s13 -31.5 13 -49.5c0 -25.333 -5.33301 -46.666 -16 -63.999s-24.667 -31.5 -42 -42.5s-37.166 -19 -59.499 -24s-44.833 -7.5 -67.5 -7.5
c-26.667 0 -52.334 2.83301 -77.001 8.5s-45.667 13.834 -63 24.501zM850.998 693l-521 -693h-138l523 693h136zM893.998 401l-56 -231.001h46l-19 -80h-46l-22 -89h-94l22 89h-190l15 69c36.667 47.333 75.167 90.833 115.5 130.5s85.5 76.834 135.5 111.501h93z
M774.998 296.999c-20.667 -18 -41.833 -37.833 -63.5 -59.5s-41.167 -44.167 -58.5 -67.5h91z" />
    <glyph glyph-name="questiondown" unicode="&#xbf;" horiz-adv-x="430" 
d="M298 106c-20 -15.333 -37.166 -28.667 -51.499 -40s-26 -21.833 -35 -31.5s-15.5 -18.667 -19.5 -27s-6 -17.5 -6 -27.5c0 -17.333 6.16699 -30 18.5 -38s27.833 -12 46.5 -12c12 0 24.667 1.16699 38 3.5s26.333 5.33301 39 9s24.667 7.83398 36 12.501
s21.333 9.66699 30 15l19 -117c-26 -14.667 -55.833 -26.5 -89.5 -35.5s-67.5 -13.5 -101.5 -13.5c-24 0 -47 3 -69 9s-41.333 15.167 -58 27.5s-30 27.666 -40 45.999s-15 39.5 -15 63.5c0 28.667 4.5 53.667 13.5 75s20.5 40.333 34.5 57s29.833 31.834 47.5 45.501
s35.167 27.167 52.5 40.5c25.333 18.667 47.5 37.667 66.5 57s29.833 41.666 32.5 66.999h132c0 -21.333 -3.16699 -40.5 -9.5 -57.5s-15 -33 -26 -48s-23.833 -29 -38.5 -42s-30.334 -25.833 -47.001 -38.5zM367.001 341.999c-23.333 0 -42.833 6.5 -58.5 19.5
s-23.5 33.5 -23.5 61.5c0 15.333 2.83301 29.333 8.5 42s13.167 23.5 22.5 32.5s20 16 32 21s24.333 7.5 37 7.5c23.333 0 42.833 -6.5 58.5 -19.5s23.5 -33.5 23.5 -61.5c0 -15.333 -2.83301 -29.333 -8.5 -42s-13.167 -23.5 -22.5 -32.5s-20 -16 -32 -21
s-24.333 -7.5 -37 -7.5z" />
    <glyph glyph-name="Agrave" unicode="&#xc0;" horiz-adv-x="714" 
d="M532 0c-1.33301 26 -2.83398 51.5 -4.50098 76.5s-3.5 49.833 -5.5 74.5h-260c-13.333 -24.667 -27.333 -49.5 -42 -74.5s-28.667 -50.5 -42 -76.5h-163c43.333 74.667 83.833 143.667 121.5 207s74 123 109 179s69.167 109.167 102.5 159.5s67.333 99.5 102 147.5h139
c10.667 -48 20.834 -101.167 30.501 -159.5s18.667 -118 27 -179s16 -122 23 -183s13.5 -118.167 19.5 -171.5h-157zM485.999 541c-28 -44.667 -55.499 -89 -82.499 -133s-53.167 -89 -78.5 -135h187c-3.33301 40.667 -6.83301 84 -10.5 130s-8.83398 92 -15.501 138z
M464 959l135 -165l-64 -58l-163 144z" />
    <glyph glyph-name="Aacute" unicode="&#xc1;" horiz-adv-x="714" 
d="M532 0c-1.33301 26 -2.83398 51.5 -4.50098 76.5s-3.5 49.833 -5.5 74.5h-260c-13.333 -24.667 -27.333 -49.5 -42 -74.5s-28.667 -50.5 -42 -76.5h-163c43.333 74.667 83.833 143.667 121.5 207s74 123 109 179s69.167 109.167 102.5 159.5s67.333 99.5 102 147.5h139
c10.667 -48 20.834 -101.167 30.501 -159.5s18.667 -118 27 -179s16 -122 23 -183s13.5 -118.167 19.5 -171.5h-157zM485.999 541c-28 -44.667 -55.499 -89 -82.499 -133s-53.167 -89 -78.5 -135h187c-3.33301 40.667 -6.83301 84 -10.5 130s-8.83398 92 -15.501 138z
M653 872l-177 -136l-60 62l160 161z" />
    <glyph glyph-name="Acircumflex" unicode="&#xc2;" horiz-adv-x="714" 
d="M532 0c-1.33301 26 -2.83398 51.5 -4.50098 76.5s-3.5 49.833 -5.5 74.5h-260c-13.333 -24.667 -27.333 -49.5 -42 -74.5s-28.667 -50.5 -42 -76.5h-163c43.333 74.667 83.833 143.667 121.5 207s74 123 109 179s69.167 109.167 102.5 159.5s67.333 99.5 102 147.5h139
c10.667 -48 20.834 -101.167 30.501 -159.5s18.667 -118 27 -179s16 -122 23 -183s13.5 -118.167 19.5 -171.5h-157zM485.999 541c-28 -44.667 -55.499 -89 -82.499 -133s-53.167 -89 -78.5 -135h187c-3.33301 40.667 -6.83301 84 -10.5 130s-8.83398 92 -15.501 138z
M689 795l-60 -53l-83 78l-113 -76l-46 61l179 145z" />
    <glyph glyph-name="Atilde" unicode="&#xc3;" horiz-adv-x="714" 
d="M532 0c-1.33301 26 -2.83398 51.5 -4.50098 76.5s-3.5 49.833 -5.5 74.5h-260c-13.333 -24.667 -27.333 -49.5 -42 -74.5s-28.667 -50.5 -42 -76.5h-163c43.333 74.667 83.833 143.667 121.5 207s74 123 109 179s69.167 109.167 102.5 159.5s67.333 99.5 102 147.5h139
c10.667 -48 20.834 -101.167 30.501 -159.5s18.667 -118 27 -179s16 -122 23 -183s13.5 -118.167 19.5 -171.5h-157zM485.999 541c-28 -44.667 -55.499 -89 -82.499 -133s-53.167 -89 -78.5 -135h187c-3.33301 40.667 -6.83301 84 -10.5 130s-8.83398 92 -15.501 138z
M596 770c-12.667 0 -24 1.83301 -34 5.5s-19.333 7.66699 -28 12s-17 8.33301 -25 12s-16 5.5 -24 5.5c-9.33301 0 -17.833 -2.66699 -25.5 -8s-17.167 -16.333 -28.5 -33l-67 41c15.333 36 33.666 62.833 54.999 80.5s47.333 26.5 78 26.5c12.667 0 24 -1.83301 34 -5.5
s19.333 -7.66699 28 -12s17 -8.33301 25 -12s16 -5.5 24 -5.5c9.33301 0 17.833 2.66699 25.5 8s17.167 16.333 28.5 33l67 -41c-15.333 -36 -33.666 -62.833 -54.999 -80.5s-47.333 -26.5 -78 -26.5z" />
    <glyph glyph-name="Adieresis" unicode="&#xc4;" horiz-adv-x="714" 
d="M532 0c-1.33301 26 -2.83398 51.5 -4.50098 76.5s-3.5 49.833 -5.5 74.5h-260c-13.333 -24.667 -27.333 -49.5 -42 -74.5s-28.667 -50.5 -42 -76.5h-163c43.333 74.667 83.833 143.667 121.5 207s74 123 109 179s69.167 109.167 102.5 159.5s67.333 99.5 102 147.5h139
c10.667 -48 20.834 -101.167 30.501 -159.5s18.667 -118 27 -179s16 -122 23 -183s13.5 -118.167 19.5 -171.5h-157zM485.999 541c-28 -44.667 -55.499 -89 -82.499 -133s-53.167 -89 -78.5 -135h187c-3.33301 40.667 -6.83301 84 -10.5 130s-8.83398 92 -15.501 138z
M432 762c-19.333 0 -35.335 6 -48.002 18s-19 28 -19 48c0 12.667 2.33301 24.334 7 35.001s10.834 19.667 18.501 27s16.334 13.166 26.001 17.499s19.5 6.5 29.5 6.5c18.667 0 34.667 -6.16699 48 -18.5s20 -28.833 20 -49.5c0 -12 -2.5 -23.167 -7.5 -33.5
s-11.5 -19.333 -19.5 -27s-16.833 -13.5 -26.5 -17.5s-19.167 -6 -28.5 -6zM653.998 762c-19.333 0 -35.335 6 -48.002 18s-19 28 -19 48c0 12.667 2.33301 24.334 7 35.001s10.834 19.667 18.501 27s16.334 13.166 26.001 17.499s19.5 6.5 29.5 6.5
c18.667 0 34.667 -6.16699 48 -18.5s20 -28.833 20 -49.5c0 -12 -2.5 -23.167 -7.5 -33.5s-11.5 -19.333 -19.5 -27s-16.833 -13.5 -26.5 -17.5s-19.167 -6 -28.5 -6z" />
    <glyph glyph-name="Aring" unicode="&#xc5;" horiz-adv-x="714" 
d="M532 0c-1.33301 26 -2.83203 51.498 -4.49902 76.498s-3.5 49.833 -5.5 74.5h-260c-13.333 -24.667 -27.333 -49.5 -42 -74.5s-28.667 -50.5 -42 -76.5h-163c42.667 73.333 82.667 141.333 120 204s73.166 121.834 107.499 177.501s68 108.334 101 158.001
s66.5 98.167 100.5 145.5c-9.33301 10 -16.833 21.833 -22.5 35.5s-8.5 29.167 -8.5 46.5c0 18.667 3.16699 35.167 9.5 49.5s15 26.333 26 36s23.5 17 37.5 22s28.667 7.5 44 7.5c16 0 31.167 -2.5 45.5 -7.5s27 -12.333 38 -22s19.667 -21.667 26 -36
s9.5 -30.833 9.5 -49.5c0 -23.333 -5.16699 -43.333 -15.5 -60s-23.5 -29.667 -39.5 -39c10 -48 19.667 -100.167 29 -156.5s18 -113.833 26 -172.5s15.333 -117 22 -175s12.667 -112.667 18 -164h-157zM486.001 540.998c-28 -44.667 -55.499 -89 -82.499 -133
s-53.167 -89 -78.5 -135h187c-3.33301 40.667 -6.83301 84 -10.5 130s-8.83398 92 -15.501 138zM576.002 766.998c0 15.333 -4.66699 27 -14 35s-20 12 -32 12c-11.333 0 -21.666 -4 -30.999 -12s-14 -19.667 -14 -35s4.66699 -27 14 -35s19.666 -12 30.999 -12
c12 0 22.667 4 32 12s14 19.667 14 35z" />
    <glyph glyph-name="AE" unicode="&#xc6;" horiz-adv-x="977" 
d="M508 164l-223.999 -0.00195312c-20.667 -25.333 -42 -52.666 -64 -81.999s-42 -56.666 -60 -81.999h-160c56 72 108 138.667 156 200s95 119.5 141 174.5s92.167 108.5 138.5 160.5s95.166 104.667 146.499 158h495l-32 -131h-296l-32 -136h261l-31 -128h-261l-40 -167
h319l-32 -131h-465zM599.001 545.998c-14 -15.333 -30.5 -33.8301 -49.5 -55.4971s-38.667 -44.334 -59 -68.001s-40.5 -47.334 -60.5 -71.001s-38 -44.834 -54 -63.501h161z" />
    <glyph glyph-name="Ccedilla" unicode="&#xc7;" horiz-adv-x="638" 
d="M614 30c-27.333 -13.333 -57.167 -23.833 -89.5 -31.5s-72.166 -11.834 -119.499 -12.501c-4 -5.33301 -7.66699 -10.666 -11 -15.999s-6.33301 -10 -9 -14c14.667 -7.33301 25.667 -17 33 -29s11 -24.667 11 -38c0 -19.333 -3.83301 -36 -11.5 -50s-18 -25.5 -31 -34.5
s-27.833 -15.5 -44.5 -19.5s-33.667 -6 -51 -6c-18 0 -35.833 2 -53.5 6s-33.5 9.66699 -47.5 17l36 82c8.66699 -4 18.5 -7.33301 29.5 -10s21.5 -4 31.5 -4c26.667 0 40 8 40 24c0 7.33301 -2.33301 13.333 -7 18s-12.334 9.33398 -23.001 14.001l-20 9l41 61
c-60.667 15.333 -108.334 47.833 -143.001 97.5s-52 111.834 -52 186.501c0 52 9.16699 103.667 27.5 155s45.333 97.166 81 137.499s79.334 73.166 131.001 98.499s111.167 38 178.5 38c32 0 63.5 -3.66699 94.5 -11s63.5 -20.333 97.5 -39l-56 -121
c-28 14.667 -53 24.667 -75 30s-45.667 8 -71 8c-38 0 -72.167 -7.66699 -102.5 -23s-56.333 -36.166 -78 -62.499s-38.167 -56.833 -49.5 -91.5s-17 -71.334 -17 -110.001c0 -58.667 12.833 -101.334 38.5 -128.001s62.5 -40 110.5 -40c32 0 61.5 3.33301 88.5 10
s52.167 15.334 75.5 26.001z" />
    <glyph glyph-name="Egrave" unicode="&#xc8;" horiz-adv-x="594" 
d="M75 0l166 693h453l-32 -128h-297l-32 -140h262l-31 -126h-262l-40 -170h320l-32 -129h-475zM434 959l135 -165l-64 -58l-163 144z" />
    <glyph glyph-name="Eacute" unicode="&#xc9;" horiz-adv-x="594" 
d="M75 0l166 693h453l-32 -128h-297l-32 -140h262l-31 -126h-262l-40 -170h320l-32 -129h-475zM645 872l-177 -136l-60 62l160 161z" />
    <glyph glyph-name="Ecircumflex" unicode="&#xca;" horiz-adv-x="594" 
d="M75 0l166 693h453l-32 -128h-297l-32 -140h262l-31 -126h-262l-40 -170h320l-32 -129h-475zM654 795l-60 -53l-83 78l-113 -76l-46 61l179 145z" />
    <glyph glyph-name="Edieresis" unicode="&#xcb;" horiz-adv-x="594" 
d="M75 0l166 693h453l-32 -128h-297l-32 -140h262l-31 -126h-262l-40 -170h320l-32 -129h-475zM372 762c-19.333 0 -35.335 6 -48.002 18s-19 28 -19 48c0 12.667 2.33301 24.334 7 35.001s10.834 19.667 18.501 27s16.334 13.166 26.001 17.499s19.5 6.5 29.5 6.5
c18.667 0 34.667 -6.16699 48 -18.5s20 -28.833 20 -49.5c0 -12 -2.5 -23.167 -7.5 -33.5s-11.5 -19.333 -19.5 -27s-16.833 -13.5 -26.5 -17.5s-19.167 -6 -28.5 -6zM593.998 762c-19.333 0 -35.335 6 -48.002 18s-19 28 -19 48c0 12.667 2.33301 24.334 7 35.001
s10.834 19.667 18.501 27s16.334 13.166 26.001 17.499s19.5 6.5 29.5 6.5c18.667 0 34.667 -6.16699 48 -18.5s20 -28.833 20 -49.5c0 -12 -2.5 -23.167 -7.5 -33.5s-11.5 -19.333 -19.5 -27s-16.833 -13.5 -26.5 -17.5s-19.167 -6 -28.5 -6z" />
    <glyph glyph-name="Igrave" unicode="&#xcc;" horiz-adv-x="312" 
d="M241 693h156l-167 -693h-155zM262 959l135 -165l-64 -58l-163 144z" />
    <glyph glyph-name="Iacute" unicode="&#xcd;" horiz-adv-x="312" 
d="M241 693h156l-167 -693h-155zM488 872l-177 -136l-60 62l160 161z" />
    <glyph glyph-name="Icircumflex" unicode="&#xce;" horiz-adv-x="312" 
d="M241 693h156l-167 -693h-155zM500 795l-60 -53l-83 78l-113 -76l-46 61l179 145z" />
    <glyph glyph-name="Idieresis" unicode="&#xcf;" horiz-adv-x="312" 
d="M241 693h156l-167 -693h-155zM234 762c-19.333 0 -35.335 6 -48.002 18s-19 28 -19 48c0 12.667 2.33301 24.334 7 35.001s10.834 19.667 18.501 27s16.334 13.166 26.001 17.499s19.5 6.5 29.5 6.5c18.667 0 34.667 -6.16699 48 -18.5s20 -28.833 20 -49.5
c0 -12 -2.5 -23.167 -7.5 -33.5s-11.5 -19.333 -19.5 -27s-16.833 -13.5 -26.5 -17.5s-19.167 -6 -28.5 -6zM455.998 762c-19.333 0 -35.335 6 -48.002 18s-19 28 -19 48c0 12.667 2.33301 24.334 7 35.001s10.834 19.667 18.501 27s16.334 13.166 26.001 17.499
s19.5 6.5 29.5 6.5c18.667 0 34.667 -6.16699 48 -18.5s20 -28.833 20 -49.5c0 -12 -2.5 -23.167 -7.5 -33.5s-11.5 -19.333 -19.5 -27s-16.833 -13.5 -26.5 -17.5s-19.167 -6 -28.5 -6z" />
    <glyph glyph-name="Eth" unicode="&#xd0;" horiz-adv-x="718" 
d="M257 125c7.33301 -0.666992 14.8359 -1.16602 22.5029 -1.49902s18.167 -0.5 31.5 -0.5c43.333 0 82.5 6.66699 117.5 20s64.667 32.5 89 57.5s43.166 55.667 56.499 92s20 77.166 20 122.499c0 23.333 -3 44.5 -9 63.5s-15.833 35.333 -29.5 49
s-31.334 24.167 -53.001 31.5s-47.834 11 -78.501 11c-20 0 -40.333 -1 -61 -3l-36 -150h127l-27 -115h-128zM754.003 423.001c0 -67.333 -11 -127.666 -33 -180.999s-53.5 -98.5 -94.5 -135.5s-90.833 -65.5 -149.5 -85.5s-125 -30 -199 -30c-28 0 -60.333 1.66699 -97 5
s-72 8.66602 -106 15.999l70 290h-80l26 115h81l64 264c38 7.33301 74.5 12.5 109.5 15.5s66.5 4.5 94.5 4.5c49.333 0 93.5 -6.66699 132.5 -20s72 -32.333 99 -57s47.5 -54 61.5 -88s21 -71.667 21 -113z" />
    <glyph glyph-name="Ntilde" unicode="&#xd1;" horiz-adv-x="742" 
d="M543 0c-28 78.667 -59.1699 157.336 -93.5029 236.003s-71.5 153 -111.5 223l-110 -459h-153l166 693h119c15.333 -23.333 31.833 -50.833 49.5 -82.5s35.834 -65.834 54.501 -102.501s37.334 -74.834 56.001 -114.501s36.334 -78.834 53.001 -117.501l99 417h155
l-167 -693h-117zM610.997 770.002c-12.667 0 -24 1.83301 -34 5.5s-19.333 7.66699 -28 12s-17 8.33301 -25 12s-16 5.5 -24 5.5c-9.33301 0 -17.833 -2.66699 -25.5 -8s-17.167 -16.333 -28.5 -33l-67 41c15.333 36 33.666 62.833 54.999 80.5s47.333 26.5 78 26.5
c12.667 0 24 -1.83301 34 -5.5s19.333 -7.66699 28 -12s17 -8.33301 25 -12s16 -5.5 24 -5.5c9.33301 0 17.833 2.66699 25.5 8s17.167 16.333 28.5 33l67 -41c-15.333 -36 -33.666 -62.833 -54.999 -80.5s-47.333 -26.5 -78 -26.5z" />
    <glyph glyph-name="Ograve" unicode="&#xd2;" horiz-adv-x="757" 
d="M500 575c-30.667 0 -59.167 -7.99707 -85.5 -23.9971s-49.333 -37.333 -69 -64s-35 -57.334 -46 -92.001s-16.5 -70.334 -16.5 -107.001c0 -50 10.5 -90.5 31.5 -121.5s55.167 -46.5 102.5 -46.5c30.667 0 59.167 8 85.5 24s49.333 37.333 69 64s35 57.167 46 91.5
s16.5 70.166 16.5 107.499c0 50 -10.5 90.5 -31.5 121.5s-55.167 46.5 -102.5 46.5zM401 -13.9971c-40.667 0 -77.999 6.66699 -111.999 20s-63.333 32.5 -88 57.5s-43.834 55.5 -57.501 91.5s-20.5 76.667 -20.5 122c0 52 9 103.667 27 155s43.833 97.5 77.5 138.5
s74.834 74.333 123.501 100s103.667 38.5 165 38.5c40.667 0 78 -6.66699 112 -20s63.333 -32.5 88 -57.5s43.834 -55.5 57.501 -91.5s20.5 -76.667 20.5 -122c0 -52 -8.83301 -103.833 -26.5 -155.5s-43.334 -98 -77.001 -139s-74.834 -74.167 -123.501 -99.5
s-104 -38 -166 -38zM530.001 959.003l135 -165l-64 -58l-163 144z" />
    <glyph glyph-name="Oacute" unicode="&#xd3;" horiz-adv-x="757" 
d="M500 575c-30.667 0 -59.167 -7.99707 -85.5 -23.9971s-49.333 -37.333 -69 -64s-35 -57.334 -46 -92.001s-16.5 -70.334 -16.5 -107.001c0 -50 10.5 -90.5 31.5 -121.5s55.167 -46.5 102.5 -46.5c30.667 0 59.167 8 85.5 24s49.333 37.333 69 64s35 57.167 46 91.5
s16.5 70.166 16.5 107.499c0 50 -10.5 90.5 -31.5 121.5s-55.167 46.5 -102.5 46.5zM401 -13.9971c-40.667 0 -77.999 6.66699 -111.999 20s-63.333 32.5 -88 57.5s-43.834 55.5 -57.501 91.5s-20.5 76.667 -20.5 122c0 52 9 103.667 27 155s43.833 97.5 77.5 138.5
s74.834 74.333 123.501 100s103.667 38.5 165 38.5c40.667 0 78 -6.66699 112 -20s63.333 -32.5 88 -57.5s43.834 -55.5 57.501 -91.5s20.5 -76.667 20.5 -122c0 -52 -8.83301 -103.833 -26.5 -155.5s-43.334 -98 -77.001 -139s-74.834 -74.167 -123.501 -99.5
s-104 -38 -166 -38zM652.001 872.003l-177 -136l-60 62l160 161z" />
    <glyph glyph-name="Ocircumflex" unicode="&#xd4;" horiz-adv-x="757" 
d="M500 575c-30.667 0 -59.167 -7.99707 -85.5 -23.9971s-49.333 -37.333 -69 -64s-35 -57.334 -46 -92.001s-16.5 -70.334 -16.5 -107.001c0 -50 10.5 -90.5 31.5 -121.5s55.167 -46.5 102.5 -46.5c30.667 0 59.167 8 85.5 24s49.333 37.333 69 64s35 57.167 46 91.5
s16.5 70.166 16.5 107.499c0 50 -10.5 90.5 -31.5 121.5s-55.167 46.5 -102.5 46.5zM401 -13.9971c-40.667 0 -77.999 6.66699 -111.999 20s-63.333 32.5 -88 57.5s-43.834 55.5 -57.501 91.5s-20.5 76.667 -20.5 122c0 52 9 103.667 27 155s43.833 97.5 77.5 138.5
s74.834 74.333 123.501 100s103.667 38.5 165 38.5c40.667 0 78 -6.66699 112 -20s63.333 -32.5 88 -57.5s43.834 -55.5 57.501 -91.5s20.5 -76.667 20.5 -122c0 -52 -8.83301 -103.833 -26.5 -155.5s-43.334 -98 -77.001 -139s-74.834 -74.167 -123.501 -99.5
s-104 -38 -166 -38zM688.001 795.003l-60 -53l-83 78l-113 -76l-46 61l179 145z" />
    <glyph glyph-name="Otilde" unicode="&#xd5;" horiz-adv-x="757" 
d="M500 575c-30.667 0 -59.167 -7.99707 -85.5 -23.9971s-49.333 -37.333 -69 -64s-35 -57.334 -46 -92.001s-16.5 -70.334 -16.5 -107.001c0 -50 10.5 -90.5 31.5 -121.5s55.167 -46.5 102.5 -46.5c30.667 0 59.167 8 85.5 24s49.333 37.333 69 64s35 57.167 46 91.5
s16.5 70.166 16.5 107.499c0 50 -10.5 90.5 -31.5 121.5s-55.167 46.5 -102.5 46.5zM401 -13.9971c-40.667 0 -77.999 6.66699 -111.999 20s-63.333 32.5 -88 57.5s-43.834 55.5 -57.501 91.5s-20.5 76.667 -20.5 122c0 52 9 103.667 27 155s43.833 97.5 77.5 138.5
s74.834 74.333 123.501 100s103.667 38.5 165 38.5c40.667 0 78 -6.66699 112 -20s63.333 -32.5 88 -57.5s43.834 -55.5 57.501 -91.5s20.5 -76.667 20.5 -122c0 -52 -8.83301 -103.833 -26.5 -155.5s-43.334 -98 -77.001 -139s-74.834 -74.167 -123.501 -99.5
s-104 -38 -166 -38zM590.001 770.003c-12.667 0 -24 1.83301 -34 5.5s-19.333 7.66699 -28 12s-17 8.33301 -25 12s-16 5.5 -24 5.5c-9.33301 0 -17.833 -2.66699 -25.5 -8s-17.167 -16.333 -28.5 -33l-67 41c15.333 36 33.666 62.833 54.999 80.5s47.333 26.5 78 26.5
c12.667 0 24 -1.83301 34 -5.5s19.333 -7.66699 28 -12s17 -8.33301 25 -12s16 -5.5 24 -5.5c9.33301 0 17.833 2.66699 25.5 8s17.167 16.333 28.5 33l67 -41c-15.333 -36 -33.666 -62.833 -54.999 -80.5s-47.333 -26.5 -78 -26.5z" />
    <glyph glyph-name="Odieresis" unicode="&#xd6;" horiz-adv-x="757" 
d="M500 575c-30.667 0 -59.167 -7.99707 -85.5 -23.9971s-49.333 -37.333 -69 -64s-35 -57.334 -46 -92.001s-16.5 -70.334 -16.5 -107.001c0 -50 10.5 -90.5 31.5 -121.5s55.167 -46.5 102.5 -46.5c30.667 0 59.167 8 85.5 24s49.333 37.333 69 64s35 57.167 46 91.5
s16.5 70.166 16.5 107.499c0 50 -10.5 90.5 -31.5 121.5s-55.167 46.5 -102.5 46.5zM401 -13.9971c-40.667 0 -77.999 6.66699 -111.999 20s-63.333 32.5 -88 57.5s-43.834 55.5 -57.501 91.5s-20.5 76.667 -20.5 122c0 52 9 103.667 27 155s43.833 97.5 77.5 138.5
s74.834 74.333 123.501 100s103.667 38.5 165 38.5c40.667 0 78 -6.66699 112 -20s63.333 -32.5 88 -57.5s43.834 -55.5 57.501 -91.5s20.5 -76.667 20.5 -122c0 -52 -8.83301 -103.833 -26.5 -155.5s-43.334 -98 -77.001 -139s-74.834 -74.167 -123.501 -99.5
s-104 -38 -166 -38zM426.001 762.003c-19.333 0 -35.335 6 -48.002 18s-19 28 -19 48c0 12.667 2.33301 24.334 7 35.001s10.834 19.667 18.501 27s16.334 13.166 26.001 17.499s19.5 6.5 29.5 6.5c18.667 0 34.667 -6.16699 48 -18.5s20 -28.833 20 -49.5
c0 -12 -2.5 -23.167 -7.5 -33.5s-11.5 -19.333 -19.5 -27s-16.833 -13.5 -26.5 -17.5s-19.167 -6 -28.5 -6zM647.999 762.003c-19.333 0 -35.335 6 -48.002 18s-19 28 -19 48c0 12.667 2.33301 24.334 7 35.001s10.834 19.667 18.501 27s16.334 13.166 26.001 17.499
s19.5 6.5 29.5 6.5c18.667 0 34.667 -6.16699 48 -18.5s20 -28.833 20 -49.5c0 -12 -2.5 -23.167 -7.5 -33.5s-11.5 -19.333 -19.5 -27s-16.833 -13.5 -26.5 -17.5s-19.167 -6 -28.5 -6z" />
    <glyph glyph-name="multiply" unicode="&#xd7;" horiz-adv-x="568" 
d="M89 166l171 138l-102 135l102 82l101 -135l172 139l70 -92l-171 -138l102 -135l-102 -82l-101 135l-172 -139z" />
    <glyph glyph-name="Oslash" unicode="&#xd8;" horiz-adv-x="757" 
d="M401 -14c-61.333 0 -113.999 14 -157.999 42l-64 -73l-78 63l71 81c-32.667 46.667 -49 106 -49 178c0 52 9 103.667 27 155s43.833 97.5 77.5 138.5s74.834 74.333 123.501 100s103.667 38.5 165 38.5c60 0 112 -14 156 -42l62 71l78 -63l-68 -78
c16 -23.333 28.333 -50 37 -80s13 -63 13 -99c0 -52 -8.83301 -103.833 -26.5 -155.5s-43.334 -98 -77.001 -139s-74.834 -74.167 -123.501 -99.5s-104 -38 -166 -38zM639.001 412c0 21.333 -2.00195 41.001 -6.00195 59.001l-297 -336c19.333 -13.333 44.333 -20 75 -20
s59.834 8.5 87.501 25.5s51.834 39.5 72.501 67.5s37.167 59.667 49.5 95s18.5 71.666 18.5 108.999zM504.999 580.001c-31.333 0 -60.668 -8.66602 -88.001 -25.999s-51.333 -40 -72 -68s-37 -59.833 -49 -95.5s-18 -71.834 -18 -108.501c0 -10.667 0.333008 -20.667 1 -30
s2 -18.333 4 -27l295 335c-19.333 13.333 -43.666 20 -72.999 20z" />
    <glyph glyph-name="Ugrave" unicode="&#xd9;" horiz-adv-x="683" 
d="M668 252c-22.667 -94 -59.499 -161.832 -110.499 -203.499s-118.5 -62.5 -202.5 -62.5c-43.333 0 -79.833 5.16699 -109.5 15.5s-53.834 24.666 -72.501 42.999s-32.167 40.333 -40.5 66s-12.5 53.5 -12.5 83.5c0 34.667 5 71.667 15 111l93 388h156l-98 -410
c-6.66699 -24 -10 -48.333 -10 -73c0 -13.333 1.5 -25.333 4.5 -36s8.33301 -20 16 -28s18 -14.167 31 -18.5s29.167 -6.5 48.5 -6.5c40 0 70.333 12.5 91 37.5s36.667 60.5 48 106.5l102 428h156zM443.001 959.001l135 -165l-64 -58l-163 144z" />
    <glyph glyph-name="Uacute" unicode="&#xda;" horiz-adv-x="683" 
d="M668 252c-22.667 -94 -59.499 -161.832 -110.499 -203.499s-118.5 -62.5 -202.5 -62.5c-43.333 0 -79.833 5.16699 -109.5 15.5s-53.834 24.666 -72.501 42.999s-32.167 40.333 -40.5 66s-12.5 53.5 -12.5 83.5c0 34.667 5 71.667 15 111l93 388h156l-98 -410
c-6.66699 -24 -10 -48.333 -10 -73c0 -13.333 1.5 -25.333 4.5 -36s8.33301 -20 16 -28s18 -14.167 31 -18.5s29.167 -6.5 48.5 -6.5c40 0 70.333 12.5 91 37.5s36.667 60.5 48 106.5l102 428h156zM641.001 872.001l-177 -136l-60 62l160 161z" />
    <glyph glyph-name="Ucircumflex" unicode="&#xdb;" horiz-adv-x="683" 
d="M668 252c-22.667 -94 -59.499 -161.832 -110.499 -203.499s-118.5 -62.5 -202.5 -62.5c-43.333 0 -79.833 5.16699 -109.5 15.5s-53.834 24.666 -72.501 42.999s-32.167 40.333 -40.5 66s-12.5 53.5 -12.5 83.5c0 34.667 5 71.667 15 111l93 388h156l-98 -410
c-6.66699 -24 -10 -48.333 -10 -73c0 -13.333 1.5 -25.333 4.5 -36s8.33301 -20 16 -28s18 -14.167 31 -18.5s29.167 -6.5 48.5 -6.5c40 0 70.333 12.5 91 37.5s36.667 60.5 48 106.5l102 428h156zM671.001 795.001l-60 -53l-83 78l-113 -76l-46 61l179 145z" />
    <glyph glyph-name="Udieresis" unicode="&#xdc;" horiz-adv-x="683" 
d="M668 252c-22.667 -94 -59.499 -161.832 -110.499 -203.499s-118.5 -62.5 -202.5 -62.5c-43.333 0 -79.833 5.16699 -109.5 15.5s-53.834 24.666 -72.501 42.999s-32.167 40.333 -40.5 66s-12.5 53.5 -12.5 83.5c0 34.667 5 71.667 15 111l93 388h156l-98 -410
c-6.66699 -24 -10 -48.333 -10 -73c0 -13.333 1.5 -25.333 4.5 -36s8.33301 -20 16 -28s18 -14.167 31 -18.5s29.167 -6.5 48.5 -6.5c40 0 70.333 12.5 91 37.5s36.667 60.5 48 106.5l102 428h156zM402.001 762.001c-19.333 0 -35.335 6 -48.002 18s-19 28 -19 48
c0 12.667 2.33301 24.334 7 35.001s10.834 19.667 18.501 27s16.334 13.166 26.001 17.499s19.5 6.5 29.5 6.5c18.667 0 34.667 -6.16699 48 -18.5s20 -28.833 20 -49.5c0 -12 -2.5 -23.167 -7.5 -33.5s-11.5 -19.333 -19.5 -27s-16.833 -13.5 -26.5 -17.5
s-19.167 -6 -28.5 -6zM623.999 762.001c-19.333 0 -35.335 6 -48.002 18s-19 28 -19 48c0 12.667 2.33301 24.334 7 35.001s10.834 19.667 18.501 27s16.334 13.166 26.001 17.499s19.5 6.5 29.5 6.5c18.667 0 34.667 -6.16699 48 -18.5s20 -28.833 20 -49.5
c0 -12 -2.5 -23.167 -7.5 -33.5s-11.5 -19.333 -19.5 -27s-16.833 -13.5 -26.5 -17.5s-19.167 -6 -28.5 -6z" />
    <glyph glyph-name="Yacute" unicode="&#xdd;" horiz-adv-x="652" 
d="M413 408c19.333 24.667 37.832 48.498 55.499 71.498s34.834 46 51.501 69s33.167 46.333 49.5 70s33.166 48.5 50.499 74.5h172c-28 -39.333 -55 -76.666 -81 -111.999s-52 -69.833 -78 -103.5s-52.667 -67.167 -80 -100.5s-56.333 -67.666 -87 -102.999l-66 -274h-156
l66 274c-28 70.667 -53.333 139.667 -76 207s-44 138 -64 212h166c10.667 -48 22.334 -95 35.001 -141s26.667 -94 42 -144zM623.999 871.998l-177 -136l-60 62l160 161z" />
    <glyph glyph-name="Thorn" unicode="&#xde;" horiz-adv-x="643" 
d="M453 596c42 0 77.999 -5.33301 107.999 -16s54.833 -25 74.5 -43s34.167 -38.667 43.5 -62s14 -47.666 14 -72.999c0 -30.667 -6.5 -62.167 -19.5 -94.5s-34 -61.833 -63 -88.5s-66.667 -48.5 -113 -65.5s-102.5 -25.5 -168.5 -25.5h-69l-31 -128h-155l166 693h156
l-24 -100c4.66699 0.666992 10.834 1.16699 18.501 1.5s15.5 0.666016 23.5 0.999023s15.5 0.5 22.5 0.5h16.5zM402.999 464c-11.333 0 -22.668 -0.331055 -34.001 -0.998047s-21 -1.33398 -29 -2.00098l-48 -200h49c28 0 53.667 2.16699 77 6.5s43.5 11.5 60.5 21.5
s30.167 23.333 39.5 40s14 37.667 14 63c0 27.333 -11.667 46.166 -35 56.499s-54.666 15.5 -93.999 15.5z" />
    <glyph glyph-name="germandbls" unicode="&#xdf;" horiz-adv-x="637" 
d="M209 568c8.66699 38 21.8301 70.1699 39.4971 96.5029s38.167 47.833 61.5 64.5s48.833 28.667 76.5 36s55.834 11 84.501 11c26.667 0 52.5 -3.5 77.5 -10.5s47 -16.833 66 -29.5s34.167 -28.167 45.5 -46.5s17 -38.833 17 -61.5s-5.16699 -45.334 -15.5 -68.001
s-26.5 -44.334 -48.5 -65.001c-10 -9.33301 -19.833 -18.333 -29.5 -27s-18.334 -17.334 -26.001 -26.001s-14 -17.667 -19 -27s-7.5 -19 -7.5 -29c0 -14 6.33301 -26.167 19 -36.5s27 -21.5 43 -33.5l20 -15c18 -13.333 31.667 -30.333 41 -51s14 -42.667 14 -66
c0 -33.333 -6.66699 -62.333 -20 -87s-31 -45 -53 -61s-47.167 -28 -75.5 -36s-57.5 -12 -87.5 -12c-26.667 0 -52.834 3 -78.501 9s-49.5 15 -71.5 27l53 117c19.333 -11.333 37.666 -19.333 54.999 -24s33.333 -7 48 -7c24.667 0 44.334 5.5 59.001 16.5
s22 24.833 22 41.5c0 8.66699 -2.66699 17.5 -8 26.5s-13.666 17.833 -24.999 26.5l-45 33c-26 19.333 -43 38 -51 56s-12 36.667 -12 56c0 20 3.83301 38 11.5 54s17.334 30.667 29.001 44s24.334 25.5 38.001 36.5s26.334 22 38.001 33s21.334 22.167 29.001 33.5
s11.5 24 11.5 38c0 15.333 -7.33301 26.666 -22 33.999s-31.667 11 -51 11c-24 0 -46.333 -7.66699 -67 -23s-35.667 -41.666 -45 -78.999l-95 -399c-22.667 -95.333 -47.334 -169.5 -74.001 -222.5s-56 -91.5 -88 -115.5l-129 19c17.333 16 33.333 35.667 48 59
s27.834 48 39.501 74s21.667 52.5 30 79.5s15.166 52.167 20.499 75.5z" />
    <glyph glyph-name="agrave" unicode="&#xe0;" horiz-adv-x="588" 
d="M563 227c-9.33301 -38 -11.998 -76.168 -7.99805 -114.501s11.667 -72.5 23 -102.5l-133 -19c-4 8 -7.66699 15.667 -11 23s-6.66602 15.666 -9.99902 24.999c-18.667 -15.333 -39.334 -28 -62.001 -38s-48 -15 -76 -15c-33.333 0 -61.833 5.83301 -85.5 17.5
s-43 27.334 -58 47.001s-25.833 42.667 -32.5 69s-10 54.5 -10 84.5c0 46 8.16699 89.333 24.5 130s39 76.167 68 106.5s63.167 54.166 102.5 71.499s82 26 128 26c6 0 16.5 -0.333008 31.5 -1s32.167 -2.16699 51.5 -4.5s39.666 -6.16602 60.999 -11.499
s41.666 -12.666 60.999 -21.999zM459.002 410.999c-8.66699 1.33301 -16.498 2.33301 -23.498 3s-15.5 1 -25.5 1c-22.667 0 -43.834 -5.66699 -63.501 -17s-36.834 -26.166 -51.501 -44.499s-26.167 -39.5 -34.5 -63.5s-12.5 -49 -12.5 -75c0 -32 5.33301 -57.333 16 -76
s30.334 -28 59.001 -28c15.333 0 29.166 3 41.499 9s25.5 16 39.5 30c1.33301 16.667 3.5 34.167 6.5 52.5s6.16699 35.166 9.5 50.499zM445.004 798.999l135 -165l-64 -58l-163 144z" />
    <glyph glyph-name="aacute" unicode="&#xe1;" horiz-adv-x="588" 
d="M563 227c-9.33301 -38 -11.998 -76.168 -7.99805 -114.501s11.667 -72.5 23 -102.5l-133 -19c-4 8 -7.66699 15.667 -11 23s-6.66602 15.666 -9.99902 24.999c-18.667 -15.333 -39.334 -28 -62.001 -38s-48 -15 -76 -15c-33.333 0 -61.833 5.83301 -85.5 17.5
s-43 27.334 -58 47.001s-25.833 42.667 -32.5 69s-10 54.5 -10 84.5c0 46 8.16699 89.333 24.5 130s39 76.167 68 106.5s63.167 54.166 102.5 71.499s82 26 128 26c6 0 16.5 -0.333008 31.5 -1s32.167 -2.16699 51.5 -4.5s39.666 -6.16602 60.999 -11.499
s41.666 -12.666 60.999 -21.999zM459.002 410.999c-8.66699 1.33301 -16.498 2.33301 -23.498 3s-15.5 1 -25.5 1c-22.667 0 -43.834 -5.66699 -63.501 -17s-36.834 -26.166 -51.501 -44.499s-26.167 -39.5 -34.5 -63.5s-12.5 -49 -12.5 -75c0 -32 5.33301 -57.333 16 -76
s30.334 -28 59.001 -28c15.333 0 29.166 3 41.499 9s25.5 16 39.5 30c1.33301 16.667 3.5 34.167 6.5 52.5s6.16699 35.166 9.5 50.499zM592.004 711.999l-177 -136l-60 62l160 161z" />
    <glyph glyph-name="acircumflex" unicode="&#xe2;" horiz-adv-x="588" 
d="M563 227c-9.33301 -38 -11.998 -76.168 -7.99805 -114.501s11.667 -72.5 23 -102.5l-133 -19c-4 8 -7.66699 15.667 -11 23s-6.66602 15.666 -9.99902 24.999c-18.667 -15.333 -39.334 -28 -62.001 -38s-48 -15 -76 -15c-33.333 0 -61.833 5.83301 -85.5 17.5
s-43 27.334 -58 47.001s-25.833 42.667 -32.5 69s-10 54.5 -10 84.5c0 46 8.16699 89.333 24.5 130s39 76.167 68 106.5s63.167 54.166 102.5 71.499s82 26 128 26c6 0 16.5 -0.333008 31.5 -1s32.167 -2.16699 51.5 -4.5s39.666 -6.16602 60.999 -11.499
s41.666 -12.666 60.999 -21.999zM459.002 410.999c-8.66699 1.33301 -16.498 2.33301 -23.498 3s-15.5 1 -25.5 1c-22.667 0 -43.834 -5.66699 -63.501 -17s-36.834 -26.166 -51.501 -44.499s-26.167 -39.5 -34.5 -63.5s-12.5 -49 -12.5 -75c0 -32 5.33301 -57.333 16 -76
s30.334 -28 59.001 -28c15.333 0 29.166 3 41.499 9s25.5 16 39.5 30c1.33301 16.667 3.5 34.167 6.5 52.5s6.16699 35.166 9.5 50.499zM593.004 628.999l-60 -53l-83 78l-113 -76l-46 61l179 145z" />
    <glyph glyph-name="atilde" unicode="&#xe3;" horiz-adv-x="588" 
d="M563 227c-9.33301 -38 -11.998 -76.168 -7.99805 -114.501s11.667 -72.5 23 -102.5l-133 -19c-4 8 -7.66699 15.667 -11 23s-6.66602 15.666 -9.99902 24.999c-18.667 -15.333 -39.334 -28 -62.001 -38s-48 -15 -76 -15c-33.333 0 -61.833 5.83301 -85.5 17.5
s-43 27.334 -58 47.001s-25.833 42.667 -32.5 69s-10 54.5 -10 84.5c0 46 8.16699 89.333 24.5 130s39 76.167 68 106.5s63.167 54.166 102.5 71.499s82 26 128 26c6 0 16.5 -0.333008 31.5 -1s32.167 -2.16699 51.5 -4.5s39.666 -6.16602 60.999 -11.499
s41.666 -12.666 60.999 -21.999zM459.002 410.999c-8.66699 1.33301 -16.498 2.33301 -23.498 3s-15.5 1 -25.5 1c-22.667 0 -43.834 -5.66699 -63.501 -17s-36.834 -26.166 -51.501 -44.499s-26.167 -39.5 -34.5 -63.5s-12.5 -49 -12.5 -75c0 -32 5.33301 -57.333 16 -76
s30.334 -28 59.001 -28c15.333 0 29.166 3 41.499 9s25.5 16 39.5 30c1.33301 16.667 3.5 34.167 6.5 52.5s6.16699 35.166 9.5 50.499zM510.004 606.999c-12.667 0 -24 1.83301 -34 5.5s-19.333 7.66699 -28 12s-17 8.33301 -25 12s-16 5.5 -24 5.5
c-9.33301 0 -17.833 -2.66699 -25.5 -8s-17.167 -16.333 -28.5 -33l-67 41c15.333 36 33.666 62.833 54.999 80.5s47.333 26.5 78 26.5c12.667 0 24 -1.83301 34 -5.5s19.333 -7.66699 28 -12s17 -8.33301 25 -12s16 -5.5 24 -5.5c9.33301 0 17.833 2.66699 25.5 8
s17.167 16.333 28.5 33l67 -41c-15.333 -36 -33.666 -62.833 -54.999 -80.5s-47.333 -26.5 -78 -26.5z" />
    <glyph glyph-name="adieresis" unicode="&#xe4;" horiz-adv-x="588" 
d="M563 227c-9.33301 -38 -11.998 -76.168 -7.99805 -114.501s11.667 -72.5 23 -102.5l-133 -19c-4 8 -7.66699 15.667 -11 23s-6.66602 15.666 -9.99902 24.999c-18.667 -15.333 -39.334 -28 -62.001 -38s-48 -15 -76 -15c-33.333 0 -61.833 5.83301 -85.5 17.5
s-43 27.334 -58 47.001s-25.833 42.667 -32.5 69s-10 54.5 -10 84.5c0 46 8.16699 89.333 24.5 130s39 76.167 68 106.5s63.167 54.166 102.5 71.499s82 26 128 26c6 0 16.5 -0.333008 31.5 -1s32.167 -2.16699 51.5 -4.5s39.666 -6.16602 60.999 -11.499
s41.666 -12.666 60.999 -21.999zM459.002 410.999c-8.66699 1.33301 -16.498 2.33301 -23.498 3s-15.5 1 -25.5 1c-22.667 0 -43.834 -5.66699 -63.501 -17s-36.834 -26.166 -51.501 -44.499s-26.167 -39.5 -34.5 -63.5s-12.5 -49 -12.5 -75c0 -32 5.33301 -57.333 16 -76
s30.334 -28 59.001 -28c15.333 0 29.166 3 41.499 9s25.5 16 39.5 30c1.33301 16.667 3.5 34.167 6.5 52.5s6.16699 35.166 9.5 50.499zM325.004 601.999c-19.333 0 -35.335 6 -48.002 18s-19 28 -19 48c0 12.667 2.33301 24.334 7 35.001s10.834 19.667 18.501 27
s16.334 13.166 26.001 17.499s19.5 6.5 29.5 6.5c18.667 0 34.667 -6.16699 48 -18.5s20 -28.833 20 -49.5c0 -12 -2.5 -23.167 -7.5 -33.5s-11.5 -19.333 -19.5 -27s-16.833 -13.5 -26.5 -17.5s-19.167 -6 -28.5 -6zM547.002 601.999c-19.333 0 -35.335 6 -48.002 18
s-19 28 -19 48c0 12.667 2.33301 24.334 7 35.001s10.834 19.667 18.501 27s16.334 13.166 26.001 17.499s19.5 6.5 29.5 6.5c18.667 0 34.667 -6.16699 48 -18.5s20 -28.833 20 -49.5c0 -12 -2.5 -23.167 -7.5 -33.5s-11.5 -19.333 -19.5 -27s-16.833 -13.5 -26.5 -17.5
s-19.167 -6 -28.5 -6z" />
    <glyph glyph-name="aring" unicode="&#xe5;" horiz-adv-x="588" 
d="M563 227c-9.33301 -38 -11.998 -76.168 -7.99805 -114.501s11.667 -72.5 23 -102.5l-133 -19c-4 8 -7.66699 15.667 -11 23s-6.66602 15.666 -9.99902 24.999c-18.667 -15.333 -39.334 -28 -62.001 -38s-48 -15 -76 -15c-33.333 0 -61.833 5.83301 -85.5 17.5
s-43 27.334 -58 47.001s-25.833 42.667 -32.5 69s-10 54.5 -10 84.5c0 46 8.16699 89.333 24.5 130s39 76.167 68 106.5s63.167 54.166 102.5 71.499s82 26 128 26c6 0 16.5 -0.333008 31.5 -1s32.167 -2.16699 51.5 -4.5s39.666 -6.16602 60.999 -11.499
s41.666 -12.666 60.999 -21.999zM459.002 410.999c-8.66699 1.33301 -16.498 2.33301 -23.498 3s-15.5 1 -25.5 1c-22.667 0 -43.834 -5.66699 -63.501 -17s-36.834 -26.166 -51.501 -44.499s-26.167 -39.5 -34.5 -63.5s-12.5 -49 -12.5 -75c0 -32 5.33301 -57.333 16 -76
s30.334 -28 59.001 -28c15.333 0 29.166 3 41.499 9s25.5 16 39.5 30c1.33301 16.667 3.5 34.167 6.5 52.5s6.16699 35.166 9.5 50.499zM570.004 698.999c0 -18.667 -3.16699 -35.167 -9.5 -49.5s-15 -26.333 -26 -36s-23.667 -17 -38 -22s-29.5 -7.5 -45.5 -7.5
c-15.333 0 -30 2.5 -44 7.5s-26.5 12.333 -37.5 22s-19.667 21.667 -26 36s-9.5 30.833 -9.5 49.5s3.16699 35.167 9.5 49.5s15 26.333 26 36s23.5 17 37.5 22s28.667 7.5 44 7.5c16 0 31.167 -2.5 45.5 -7.5s27 -12.333 38 -22s19.667 -21.667 26 -36
s9.5 -30.833 9.5 -49.5zM497.004 698.999c0 15.333 -4.66699 27 -14 35s-20 12 -32 12c-11.333 0 -21.666 -4 -30.999 -12s-14 -19.667 -14 -35s4.66699 -27 14 -35s19.666 -12 30.999 -12c12 0 22.667 4 32 12s14 19.667 14 35z" />
    <glyph glyph-name="ae" unicode="&#xe6;" horiz-adv-x="837" 
d="M176 511c23.333 8 49.0039 14.835 77.0039 20.502s56 8.5 84 8.5c38 0 73.333 -6.33301 106 -19s59 -35.334 79 -68.001c12.667 14 27 26.5 43 37.5s32.667 20.167 50 27.5s35.166 12.833 53.499 16.5s36.166 5.5 53.499 5.5c22 0 43 -3 63 -9s37.5 -15.167 52.5 -27.5
s27 -27.833 36 -46.5s13.5 -40.334 13.5 -65.001c0 -37.333 -8.16699 -69 -24.5 -95s-39.166 -47.167 -68.499 -63.5s-64 -28.166 -104 -35.499s-84 -11 -132 -11c4.66699 -28 14.834 -47.833 30.501 -59.5s40.5 -17.5 74.5 -17.5c21.333 0 43 1.83301 65 5.5
s42.667 9.16699 62 16.5l11 -117c-25.333 -8.66699 -51.833 -15.667 -79.5 -21s-55.5 -8 -83.5 -8c-36.667 0 -71 6.16699 -103 18.5s-58.667 34.5 -80 66.5c-11.333 -13.333 -24.833 -25.333 -40.5 -36s-32.334 -19.667 -50.001 -27s-35.834 -12.833 -54.501 -16.5
s-37 -5.5 -55 -5.5c-22 0 -42.833 2.83301 -62.5 8.5s-37.167 14.5 -52.5 26.5s-27.5 27.333 -36.5 46s-13.5 41 -13.5 67c0 37.333 8.16699 69 24.5 95s39.166 47.167 68.499 63.5s64 28.166 104 35.499s84 11 132 11c-4.66699 28 -14.834 47.833 -30.501 59.5
s-40.5 17.5 -74.5 17.5c-21.333 0 -43 -1.83301 -65 -5.5s-42.667 -9.16699 -62 -16.5zM279.004 104.002c34 0 63.166 12.168 87.499 36.501s40.5 56.5 48.5 96.5c-41.333 -1.33301 -74.5 -4.83301 -99.5 -10.5s-44.167 -12.5 -57.5 -20.5s-22.166 -16.833 -26.499 -26.5
s-6.5 -18.834 -6.5 -27.501c0 -32 18 -48 54 -48zM698.003 422.003c-34 0 -63.166 -12.166 -87.499 -36.499s-40.5 -56.5 -48.5 -96.5c41.333 1.33301 74.5 4.83301 99.5 10.5s44.167 12.5 57.5 20.5s22.166 16.667 26.499 26s6.5 18.666 6.5 27.999c0 32 -18 48 -54 48z
" />
    <glyph glyph-name="ccedilla" unicode="&#xe7;" horiz-adv-x="480" 
d="M100 210c0 45.333 7.33301 87.9971 22 127.997s35.667 75 63 105s60.5 53.667 99.5 71s82.5 26 130.5 26c30 0 56.833 -2.83301 80.5 -8.5s45.167 -13.167 64.5 -22.5l-51 -116c-13.333 5.33301 -27.166 10.166 -41.499 14.499s-31.833 6.5 -52.5 6.5
c-50 0 -89.333 -16.833 -118 -50.5s-43 -79.5 -43 -137.5c0 -34 7.33301 -61.5 22 -82.5s41.667 -31.5 81 -31.5c19.333 0 38 2 56 6s34 9 48 15l11 -119c-17.333 -6.66699 -36.333 -12.667 -57 -18s-45 -8.66602 -73 -9.99902c-4 -5.33301 -7.66699 -10.666 -11 -15.999
s-6.33301 -10 -9 -14c14.667 -7.33301 25.667 -17 33 -29s11 -24.667 11 -38c0 -19.333 -3.83301 -36 -11.5 -50s-18 -25.5 -31 -34.5s-27.833 -15.5 -44.5 -19.5s-33.667 -6 -51 -6c-18 0 -35.833 2 -53.5 6s-33.5 9.66699 -47.5 17l36 82
c8.66699 -4 18.5 -7.33301 29.5 -10s21.5 -4 31.5 -4c26.667 0 40 8 40 24c0 7.33301 -2.33301 13.333 -7 18s-12.334 9.33398 -23.001 14.001l-20 9l40 60c-27.333 6.66699 -50.666 16.834 -69.999 30.501s-35.333 30 -48 49s-21.834 40 -27.501 63s-8.5 47.167 -8.5 72.5z
" />
    <glyph glyph-name="egrave" unicode="&#xe8;" horiz-adv-x="530" 
d="M100 206c0 42.667 7.5 83.999 22.5 123.999s36.167 75.5 63.5 106.5s60.5 56 99.5 75s82.167 28.5 129.5 28.5c23.333 0 45 -3.33301 65 -10s37.5 -16.334 52.5 -29.001s26.667 -28.167 35 -46.5s12.5 -39.166 12.5 -62.499c0 -37.333 -8.33301 -69 -25 -95
s-39.834 -47.167 -69.501 -63.5s-64.834 -28.166 -105.501 -35.499s-85 -11 -133 -11c4.66699 -28 14.834 -47.833 30.501 -59.5s40.5 -17.5 74.5 -17.5c21.333 0 43 1.83301 65 5.5s42.667 9.16699 62 16.5l11 -117c-18.667 -7.33301 -42.5 -14 -71.5 -20
s-60.5 -9 -94.5 -9c-41.333 0 -76.166 5.83301 -104.499 17.5s-51.333 27.5 -69 47.5s-30.5 43.333 -38.5 70s-12 55 -12 85zM391 421.999c-34 0 -63.832 -12.166 -89.499 -36.499s-42.5 -56.5 -50.5 -96.5c41.333 1.33301 74.666 4.83301 99.999 10.5s45 12.5 59 20.5
s23.333 16.667 28 26s7 18.666 7 27.999c0 32 -18 48 -54 48zM386.001 799l135 -165l-64 -58l-163 144z" />
    <glyph glyph-name="eacute" unicode="&#xe9;" horiz-adv-x="530" 
d="M100 206c0 42.667 7.5 83.999 22.5 123.999s36.167 75.5 63.5 106.5s60.5 56 99.5 75s82.167 28.5 129.5 28.5c23.333 0 45 -3.33301 65 -10s37.5 -16.334 52.5 -29.001s26.667 -28.167 35 -46.5s12.5 -39.166 12.5 -62.499c0 -37.333 -8.33301 -69 -25 -95
s-39.834 -47.167 -69.501 -63.5s-64.834 -28.166 -105.501 -35.499s-85 -11 -133 -11c4.66699 -28 14.834 -47.833 30.501 -59.5s40.5 -17.5 74.5 -17.5c21.333 0 43 1.83301 65 5.5s42.667 9.16699 62 16.5l11 -117c-18.667 -7.33301 -42.5 -14 -71.5 -20
s-60.5 -9 -94.5 -9c-41.333 0 -76.166 5.83301 -104.499 17.5s-51.333 27.5 -69 47.5s-30.5 43.333 -38.5 70s-12 55 -12 85zM391 421.999c-34 0 -63.832 -12.166 -89.499 -36.499s-42.5 -56.5 -50.5 -96.5c41.333 1.33301 74.666 4.83301 99.999 10.5s45 12.5 59 20.5
s23.333 16.667 28 26s7 18.666 7 27.999c0 32 -18 48 -54 48zM541.001 712l-177 -136l-60 62l160 161z" />
    <glyph glyph-name="ecircumflex" unicode="&#xea;" horiz-adv-x="530" 
d="M100 206c0 42.667 7.5 83.999 22.5 123.999s36.167 75.5 63.5 106.5s60.5 56 99.5 75s82.167 28.5 129.5 28.5c23.333 0 45 -3.33301 65 -10s37.5 -16.334 52.5 -29.001s26.667 -28.167 35 -46.5s12.5 -39.166 12.5 -62.499c0 -37.333 -8.33301 -69 -25 -95
s-39.834 -47.167 -69.501 -63.5s-64.834 -28.166 -105.501 -35.499s-85 -11 -133 -11c4.66699 -28 14.834 -47.833 30.501 -59.5s40.5 -17.5 74.5 -17.5c21.333 0 43 1.83301 65 5.5s42.667 9.16699 62 16.5l11 -117c-18.667 -7.33301 -42.5 -14 -71.5 -20
s-60.5 -9 -94.5 -9c-41.333 0 -76.166 5.83301 -104.499 17.5s-51.333 27.5 -69 47.5s-30.5 43.333 -38.5 70s-12 55 -12 85zM391 421.999c-34 0 -63.832 -12.166 -89.499 -36.499s-42.5 -56.5 -50.5 -96.5c41.333 1.33301 74.666 4.83301 99.999 10.5s45 12.5 59 20.5
s23.333 16.667 28 26s7 18.666 7 27.999c0 32 -18 48 -54 48zM576.001 629l-60 -53l-83 78l-113 -76l-46 61l179 145z" />
    <glyph glyph-name="edieresis" unicode="&#xeb;" horiz-adv-x="530" 
d="M100 206c0 42.667 7.5 83.999 22.5 123.999s36.167 75.5 63.5 106.5s60.5 56 99.5 75s82.167 28.5 129.5 28.5c23.333 0 45 -3.33301 65 -10s37.5 -16.334 52.5 -29.001s26.667 -28.167 35 -46.5s12.5 -39.166 12.5 -62.499c0 -37.333 -8.33301 -69 -25 -95
s-39.834 -47.167 -69.501 -63.5s-64.834 -28.166 -105.501 -35.499s-85 -11 -133 -11c4.66699 -28 14.834 -47.833 30.501 -59.5s40.5 -17.5 74.5 -17.5c21.333 0 43 1.83301 65 5.5s42.667 9.16699 62 16.5l11 -117c-18.667 -7.33301 -42.5 -14 -71.5 -20
s-60.5 -9 -94.5 -9c-41.333 0 -76.166 5.83301 -104.499 17.5s-51.333 27.5 -69 47.5s-30.5 43.333 -38.5 70s-12 55 -12 85zM391 421.999c-34 0 -63.832 -12.166 -89.499 -36.499s-42.5 -56.5 -50.5 -96.5c41.333 1.33301 74.666 4.83301 99.999 10.5s45 12.5 59 20.5
s23.333 16.667 28 26s7 18.666 7 27.999c0 32 -18 48 -54 48zM333.001 602c-19.333 0 -35.335 6 -48.002 18s-19 28 -19 48c0 12.667 2.33301 24.334 7 35.001s10.834 19.667 18.501 27s16.334 13.166 26.001 17.499s19.5 6.5 29.5 6.5c18.667 0 34.667 -6.16699 48 -18.5
s20 -28.833 20 -49.5c0 -12 -2.5 -23.167 -7.5 -33.5s-11.5 -19.333 -19.5 -27s-16.833 -13.5 -26.5 -17.5s-19.167 -6 -28.5 -6zM554.999 602c-19.333 0 -35.335 6 -48.002 18s-19 28 -19 48c0 12.667 2.33301 24.334 7 35.001s10.834 19.667 18.501 27
s16.334 13.166 26.001 17.499s19.5 6.5 29.5 6.5c18.667 0 34.667 -6.16699 48 -18.5s20 -28.833 20 -49.5c0 -12 -2.5 -23.167 -7.5 -33.5s-11.5 -19.333 -19.5 -27s-16.833 -13.5 -26.5 -17.5s-19.167 -6 -28.5 -6z" />
    <glyph glyph-name="igrave" unicode="&#xec;" horiz-adv-x="283" 
d="M218 0h-148l125 526h149zM218 799l135 -165l-64 -58l-163 144z" />
    <glyph glyph-name="iacute" unicode="&#xed;" horiz-adv-x="283" 
d="M218 0h-148l125 526h149zM433 712l-177 -136l-60 62l160 161z" />
    <glyph glyph-name="icircumflex" unicode="&#xee;" horiz-adv-x="283" 
d="M218 0h-148l125 526h149zM445 629l-60 -53l-83 78l-113 -76l-46 61l179 145z" />
    <glyph glyph-name="idieresis" unicode="&#xef;" horiz-adv-x="283" 
d="M218 0h-148l125 526h149zM188 602c-19.333 0 -35.335 6 -48.002 18s-19 28 -19 48c0 12.667 2.33301 24.334 7 35.001s10.834 19.667 18.501 27s16.334 13.166 26.001 17.499s19.5 6.5 29.5 6.5c18.667 0 34.667 -6.16699 48 -18.5s20 -28.833 20 -49.5
c0 -12 -2.5 -23.167 -7.5 -33.5s-11.5 -19.333 -19.5 -27s-16.833 -13.5 -26.5 -17.5s-19.167 -6 -28.5 -6zM409.998 602c-19.333 0 -35.335 6 -48.002 18s-19 28 -19 48c0 12.667 2.33301 24.334 7 35.001s10.834 19.667 18.501 27s16.334 13.166 26.001 17.499
s19.5 6.5 29.5 6.5c18.667 0 34.667 -6.16699 48 -18.5s20 -28.833 20 -49.5c0 -12 -2.5 -23.167 -7.5 -33.5s-11.5 -19.333 -19.5 -27s-16.833 -13.5 -26.5 -17.5s-19.167 -6 -28.5 -6z" />
    <glyph glyph-name="eth" unicode="&#xf0;" horiz-adv-x="606" 
d="M587 612c15.333 -32 26.3359 -65.835 33.0029 -101.502s10 -73.5 10 -113.5c0 -56.667 -6.66699 -110 -20 -160s-33.5 -93.5 -60.5 -130.5s-60.833 -66.333 -101.5 -88s-88.334 -32.5 -143.001 -32.5c-32.667 0 -61.667 5.66699 -87 17s-46.833 26.666 -64.5 45.999
s-31 42.166 -40 68.499s-13.5 54.166 -13.5 83.499c0 54 8.33301 99.333 25 136s38.167 66.167 64.5 88.5s55.666 38.5 87.999 48.5s64.5 15 96.5 15c21.333 0 41.666 -2.16699 60.999 -6.5s37 -10.166 53 -17.499c-2 20 -4.83301 38.833 -8.5 56.5
s-9.16699 34.834 -16.5 51.501l-118 -38l-11 83l84 27c-9.33301 10.667 -19.833 21.334 -31.5 32.001s-25.167 21.334 -40.5 32.001l99 67c38 -25.333 70.667 -55.666 98 -90.999l143 47l10 -85zM323.003 114.998c24 0 45 6.83105 63 20.498s33.167 31.5 45.5 53.5
s22 46.833 29 74.5s11.5 55.167 13.5 82.5c-35.333 16.667 -67.333 25 -96 25c-21.333 0 -40 -4.33301 -56 -13s-29.333 -20.667 -40 -36s-18.667 -33.166 -24 -53.499s-8 -42.166 -8 -65.499c0 -24 5.83301 -44.667 17.5 -62s30.167 -26 55.5 -26z" />
    <glyph glyph-name="ntilde" unicode="&#xf1;" horiz-adv-x="567" 
d="M191 502c11.333 3.33301 23.835 7.16895 37.502 11.502s29 8.33301 46 12s36 6.66699 57 9s44.833 3.5 71.5 3.5c78.667 0 132.667 -22.667 162 -68s34.333 -107.333 15 -186l-68 -284h-149l66 278c4 17.333 7.16699 34.166 9.5 50.499s2.16602 30.666 -0.500977 42.999
s-8.83398 22.333 -18.501 30s-24.5 11.5 -44.5 11.5c-19.333 0 -39 -2 -59 -6l-97 -407h-149zM486.002 607.003c-12.667 0 -24 1.83301 -34 5.5s-19.333 7.66699 -28 12s-17 8.33301 -25 12s-16 5.5 -24 5.5c-9.33301 0 -17.833 -2.66699 -25.5 -8
s-17.167 -16.333 -28.5 -33l-67 41c15.333 36 33.666 62.833 54.999 80.5s47.333 26.5 78 26.5c12.667 0 24 -1.83301 34 -5.5s19.333 -7.66699 28 -12s17 -8.33301 25 -12s16 -5.5 24 -5.5c9.33301 0 17.833 2.66699 25.5 8s17.167 16.333 28.5 33l67 -41
c-15.333 -36 -33.666 -62.833 -54.999 -80.5s-47.333 -26.5 -78 -26.5z" />
    <glyph glyph-name="ograve" unicode="&#xf2;" horiz-adv-x="574" 
d="M308 -14c-35.333 0 -65.999 5.33301 -91.999 16s-47.5 25.667 -64.5 45s-29.833 42.166 -38.5 68.499s-13 55.5 -13 87.5c0 40 6.5 80 19.5 120s32.167 76 57.5 108s56.333 58.167 93 78.5s78.667 30.5 126 30.5c34.667 0 65.167 -5.33301 91.5 -16s48 -25.667 65 -45
s29.833 -42.166 38.5 -68.499s13 -55.5 13 -87.5c0 -40 -6.33301 -80 -19 -120s-31.334 -76 -56.001 -108s-55.5 -58.167 -92.5 -78.5s-79.833 -30.5 -128.5 -30.5zM382.001 414c-22 0 -41.333 -6.33301 -58 -19s-30.667 -28.667 -42 -48s-19.833 -40.5 -25.5 -63.5
s-8.5 -44.833 -8.5 -65.5c0 -34 5.33301 -60.167 16 -78.5s30 -27.5 58 -27.5c22 0 41.333 6.33301 58 19s30.667 28.667 42 48s19.833 40.5 25.5 63.5s8.5 44.833 8.5 65.5c0 34 -5.33301 60.167 -16 78.5s-30 27.5 -58 27.5zM365.001 799l135 -165l-64 -58l-163 144z" />
    <glyph glyph-name="oacute" unicode="&#xf3;" horiz-adv-x="574" 
d="M308 -14c-35.333 0 -65.999 5.33301 -91.999 16s-47.5 25.667 -64.5 45s-29.833 42.166 -38.5 68.499s-13 55.5 -13 87.5c0 40 6.5 80 19.5 120s32.167 76 57.5 108s56.333 58.167 93 78.5s78.667 30.5 126 30.5c34.667 0 65.167 -5.33301 91.5 -16s48 -25.667 65 -45
s29.833 -42.166 38.5 -68.499s13 -55.5 13 -87.5c0 -40 -6.33301 -80 -19 -120s-31.334 -76 -56.001 -108s-55.5 -58.167 -92.5 -78.5s-79.833 -30.5 -128.5 -30.5zM382.001 414c-22 0 -41.333 -6.33301 -58 -19s-30.667 -28.667 -42 -48s-19.833 -40.5 -25.5 -63.5
s-8.5 -44.833 -8.5 -65.5c0 -34 5.33301 -60.167 16 -78.5s30 -27.5 58 -27.5c22 0 41.333 6.33301 58 19s30.667 28.667 42 48s19.833 40.5 25.5 63.5s8.5 44.833 8.5 65.5c0 34 -5.33301 60.167 -16 78.5s-30 27.5 -58 27.5zM560.001 712l-177 -136l-60 62l160 161z" />
    <glyph glyph-name="ocircumflex" unicode="&#xf4;" horiz-adv-x="574" 
d="M308 -14c-35.333 0 -65.999 5.33301 -91.999 16s-47.5 25.667 -64.5 45s-29.833 42.166 -38.5 68.499s-13 55.5 -13 87.5c0 40 6.5 80 19.5 120s32.167 76 57.5 108s56.333 58.167 93 78.5s78.667 30.5 126 30.5c34.667 0 65.167 -5.33301 91.5 -16s48 -25.667 65 -45
s29.833 -42.166 38.5 -68.499s13 -55.5 13 -87.5c0 -40 -6.33301 -80 -19 -120s-31.334 -76 -56.001 -108s-55.5 -58.167 -92.5 -78.5s-79.833 -30.5 -128.5 -30.5zM382.001 414c-22 0 -41.333 -6.33301 -58 -19s-30.667 -28.667 -42 -48s-19.833 -40.5 -25.5 -63.5
s-8.5 -44.833 -8.5 -65.5c0 -34 5.33301 -60.167 16 -78.5s30 -27.5 58 -27.5c22 0 41.333 6.33301 58 19s30.667 28.667 42 48s19.833 40.5 25.5 63.5s8.5 44.833 8.5 65.5c0 34 -5.33301 60.167 -16 78.5s-30 27.5 -58 27.5zM576.001 629l-60 -53l-83 78l-113 -76l-46 61
l179 145z" />
    <glyph glyph-name="otilde" unicode="&#xf5;" horiz-adv-x="574" 
d="M308 -14c-35.333 0 -65.999 5.33301 -91.999 16s-47.5 25.667 -64.5 45s-29.833 42.166 -38.5 68.499s-13 55.5 -13 87.5c0 40 6.5 80 19.5 120s32.167 76 57.5 108s56.333 58.167 93 78.5s78.667 30.5 126 30.5c34.667 0 65.167 -5.33301 91.5 -16s48 -25.667 65 -45
s29.833 -42.166 38.5 -68.499s13 -55.5 13 -87.5c0 -40 -6.33301 -80 -19 -120s-31.334 -76 -56.001 -108s-55.5 -58.167 -92.5 -78.5s-79.833 -30.5 -128.5 -30.5zM382.001 414c-22 0 -41.333 -6.33301 -58 -19s-30.667 -28.667 -42 -48s-19.833 -40.5 -25.5 -63.5
s-8.5 -44.833 -8.5 -65.5c0 -34 5.33301 -60.167 16 -78.5s30 -27.5 58 -27.5c22 0 41.333 6.33301 58 19s30.667 28.667 42 48s19.833 40.5 25.5 63.5s8.5 44.833 8.5 65.5c0 34 -5.33301 60.167 -16 78.5s-30 27.5 -58 27.5zM476.001 607c-12.667 0 -24 1.83301 -34 5.5
s-19.333 7.66699 -28 12s-17 8.33301 -25 12s-16 5.5 -24 5.5c-9.33301 0 -17.833 -2.66699 -25.5 -8s-17.167 -16.333 -28.5 -33l-67 41c15.333 36 33.666 62.833 54.999 80.5s47.333 26.5 78 26.5c12.667 0 24 -1.83301 34 -5.5s19.333 -7.66699 28 -12
s17 -8.33301 25 -12s16 -5.5 24 -5.5c9.33301 0 17.833 2.66699 25.5 8s17.167 16.333 28.5 33l67 -41c-15.333 -36 -33.666 -62.833 -54.999 -80.5s-47.333 -26.5 -78 -26.5z" />
    <glyph glyph-name="odieresis" unicode="&#xf6;" horiz-adv-x="574" 
d="M308 -14c-35.333 0 -65.999 5.33301 -91.999 16s-47.5 25.667 -64.5 45s-29.833 42.166 -38.5 68.499s-13 55.5 -13 87.5c0 40 6.5 80 19.5 120s32.167 76 57.5 108s56.333 58.167 93 78.5s78.667 30.5 126 30.5c34.667 0 65.167 -5.33301 91.5 -16s48 -25.667 65 -45
s29.833 -42.166 38.5 -68.499s13 -55.5 13 -87.5c0 -40 -6.33301 -80 -19 -120s-31.334 -76 -56.001 -108s-55.5 -58.167 -92.5 -78.5s-79.833 -30.5 -128.5 -30.5zM382.001 414c-22 0 -41.333 -6.33301 -58 -19s-30.667 -28.667 -42 -48s-19.833 -40.5 -25.5 -63.5
s-8.5 -44.833 -8.5 -65.5c0 -34 5.33301 -60.167 16 -78.5s30 -27.5 58 -27.5c22 0 41.333 6.33301 58 19s30.667 28.667 42 48s19.833 40.5 25.5 63.5s8.5 44.833 8.5 65.5c0 34 -5.33301 60.167 -16 78.5s-30 27.5 -58 27.5zM308.001 602c-19.333 0 -35.335 6 -48.002 18
s-19 28 -19 48c0 12.667 2.33301 24.334 7 35.001s10.834 19.667 18.501 27s16.334 13.166 26.001 17.499s19.5 6.5 29.5 6.5c18.667 0 34.667 -6.16699 48 -18.5s20 -28.833 20 -49.5c0 -12 -2.5 -23.167 -7.5 -33.5s-11.5 -19.333 -19.5 -27s-16.833 -13.5 -26.5 -17.5
s-19.167 -6 -28.5 -6zM529.999 602c-19.333 0 -35.335 6 -48.002 18s-19 28 -19 48c0 12.667 2.33301 24.334 7 35.001s10.834 19.667 18.501 27s16.334 13.166 26.001 17.499s19.5 6.5 29.5 6.5c18.667 0 34.667 -6.16699 48 -18.5s20 -28.833 20 -49.5
c0 -12 -2.5 -23.167 -7.5 -33.5s-11.5 -19.333 -19.5 -27s-16.833 -13.5 -26.5 -17.5s-19.167 -6 -28.5 -6z" />
    <glyph glyph-name="divide" unicode="&#xf7;" horiz-adv-x="568" 
d="M121 361h470l-31 -125h-470zM296 181c21.333 0 39.166 -6 53.499 -18s21.5 -30.667 21.5 -56c0 -30 -9.5 -53.5 -28.5 -70.5s-40.5 -25.5 -64.5 -25.5c-21.333 0 -39.166 6 -53.499 18s-21.5 30.667 -21.5 56c0 30 9.5 53.5 28.5 70.5s40.5 25.5 64.5 25.5zM393 585
c21.333 0 39.166 -6 53.499 -18s21.5 -30.667 21.5 -56c0 -30 -9.5 -53.5 -28.5 -70.5s-40.5 -25.5 -64.5 -25.5c-21.333 0 -39.166 6 -53.499 18s-21.5 30.667 -21.5 56c0 30 9.5 53.5 28.5 70.5s40.5 25.5 64.5 25.5z" />
    <glyph glyph-name="oslash" unicode="&#xf8;" horiz-adv-x="574" 
d="M274 116c13.333 -4.66699 28 -7 44 -7c26 0 48 6.5 66 19.5s32.667 30 44 51s19.5 44.5 24.5 70.5s7.5 52 7.5 78zM308 -14c-25.333 0 -47.999 2.83496 -67.999 8.50195s-38 13.167 -54 22.5l-49 -56l-65 53l57 65c-19.333 35.333 -29 76.666 -29 123.999
c0 40 6.5 80 19.5 120s32.167 76 57.5 108s56.333 58.167 93 78.5s78.667 30.5 126 30.5c22.667 0 43.5 -2.33301 62.5 -7s36.167 -11.334 51.5 -20.001l46 53l65 -53l-51 -58c11.333 -17.333 19.833 -37.333 25.5 -60s8.5 -46.667 8.5 -72c0 -40 -6.33301 -80 -19 -120
s-31.334 -76 -56.001 -108s-55.5 -58.167 -92.5 -78.5s-79.833 -30.5 -128.5 -30.5zM425.001 416.002c-13.333 4.66699 -28 7 -44 7c-26 0 -48 -6.5 -66 -19.5s-32.667 -30 -44 -51s-19.5 -44.5 -24.5 -70.5s-7.5 -52 -7.5 -78z" />
    <glyph glyph-name="ugrave" unicode="&#xf9;" horiz-adv-x="581" 
d="M621 526l-71.002 -299c-9.33301 -38 -12 -76.167 -8 -114.5s11.667 -72.5 23 -102.5l-133 -19c-7.33301 14.667 -14.333 31 -21 49c-18.667 -14.667 -39.667 -27 -63 -37s-49.333 -15 -78 -15c-39.333 0 -71.166 7.16699 -95.499 21.5s-42.5 33.333 -54.5 57
s-18.5 50.834 -19.5 81.501s2.5 62 10.5 94l68 284h149l-67 -282c-3.33301 -14.667 -6.16602 -29.667 -8.49902 -45s-2.5 -29.5 -0.5 -42.5s7.16699 -23.667 15.5 -32s21.5 -12.5 39.5 -12.5c15.333 0 29.5 2.83301 42.5 8.5s26.833 15.5 41.5 29.5
c1.33301 16.667 3.5 34.167 6.5 52.5s6.16699 35.166 9.5 50.499l65 273h149zM345.998 799l135 -165l-64 -58l-163 144z" />
    <glyph glyph-name="uacute" unicode="&#xfa;" horiz-adv-x="581" 
d="M621 526l-71.002 -299c-9.33301 -38 -12 -76.167 -8 -114.5s11.667 -72.5 23 -102.5l-133 -19c-7.33301 14.667 -14.333 31 -21 49c-18.667 -14.667 -39.667 -27 -63 -37s-49.333 -15 -78 -15c-39.333 0 -71.166 7.16699 -95.499 21.5s-42.5 33.333 -54.5 57
s-18.5 50.834 -19.5 81.501s2.5 62 10.5 94l68 284h149l-67 -282c-3.33301 -14.667 -6.16602 -29.667 -8.49902 -45s-2.5 -29.5 -0.5 -42.5s7.16699 -23.667 15.5 -32s21.5 -12.5 39.5 -12.5c15.333 0 29.5 2.83301 42.5 8.5s26.833 15.5 41.5 29.5
c1.33301 16.667 3.5 34.167 6.5 52.5s6.16699 35.166 9.5 50.499l65 273h149zM566.998 712l-177 -136l-60 62l160 161z" />
    <glyph glyph-name="ucircumflex" unicode="&#xfb;" horiz-adv-x="581" 
d="M621 526l-71.002 -299c-9.33301 -38 -12 -76.167 -8 -114.5s11.667 -72.5 23 -102.5l-133 -19c-7.33301 14.667 -14.333 31 -21 49c-18.667 -14.667 -39.667 -27 -63 -37s-49.333 -15 -78 -15c-39.333 0 -71.166 7.16699 -95.499 21.5s-42.5 33.333 -54.5 57
s-18.5 50.834 -19.5 81.501s2.5 62 10.5 94l68 284h149l-67 -282c-3.33301 -14.667 -6.16602 -29.667 -8.49902 -45s-2.5 -29.5 -0.5 -42.5s7.16699 -23.667 15.5 -32s21.5 -12.5 39.5 -12.5c15.333 0 29.5 2.83301 42.5 8.5s26.833 15.5 41.5 29.5
c1.33301 16.667 3.5 34.167 6.5 52.5s6.16699 35.166 9.5 50.499l65 273h149zM581.998 629l-60 -53l-83 78l-113 -76l-46 61l179 145z" />
    <glyph glyph-name="udieresis" unicode="&#xfc;" horiz-adv-x="581" 
d="M621 526l-71.002 -299c-9.33301 -38 -12 -76.167 -8 -114.5s11.667 -72.5 23 -102.5l-133 -19c-7.33301 14.667 -14.333 31 -21 49c-18.667 -14.667 -39.667 -27 -63 -37s-49.333 -15 -78 -15c-39.333 0 -71.166 7.16699 -95.499 21.5s-42.5 33.333 -54.5 57
s-18.5 50.834 -19.5 81.501s2.5 62 10.5 94l68 284h149l-67 -282c-3.33301 -14.667 -6.16602 -29.667 -8.49902 -45s-2.5 -29.5 -0.5 -42.5s7.16699 -23.667 15.5 -32s21.5 -12.5 39.5 -12.5c15.333 0 29.5 2.83301 42.5 8.5s26.833 15.5 41.5 29.5
c1.33301 16.667 3.5 34.167 6.5 52.5s6.16699 35.166 9.5 50.499l65 273h149zM310.998 602c-19.333 0 -35.335 6 -48.002 18s-19 28 -19 48c0 12.667 2.33301 24.334 7 35.001s10.834 19.667 18.501 27s16.334 13.166 26.001 17.499s19.5 6.5 29.5 6.5
c18.667 0 34.667 -6.16699 48 -18.5s20 -28.833 20 -49.5c0 -12 -2.5 -23.167 -7.5 -33.5s-11.5 -19.333 -19.5 -27s-16.833 -13.5 -26.5 -17.5s-19.167 -6 -28.5 -6zM532.996 602c-19.333 0 -35.335 6 -48.002 18s-19 28 -19 48c0 12.667 2.33301 24.334 7 35.001
s10.834 19.667 18.501 27s16.334 13.166 26.001 17.499s19.5 6.5 29.5 6.5c18.667 0 34.667 -6.16699 48 -18.5s20 -28.833 20 -49.5c0 -12 -2.5 -23.167 -7.5 -33.5s-11.5 -19.333 -19.5 -27s-16.833 -13.5 -26.5 -17.5s-19.167 -6 -28.5 -6z" />
    <glyph glyph-name="yacute" unicode="&#xfd;" horiz-adv-x="532" 
d="M632 526c-18.667 -50.667 -37.5 -98.002 -56.5 -142.002s-38.833 -85.833 -59.5 -125.5s-42 -77.5 -64 -113.5s-45.333 -71.667 -70 -107c-18 -26 -36.667 -52.333 -56 -79s-40.833 -50.667 -64.5 -72s-50 -38.666 -79 -51.999s-62.5 -20 -100.5 -20
c-23.333 0 -43.333 2.16699 -60 6.5s-32.334 10.166 -47.001 17.499l45 117c13.333 -5.33301 25.333 -9.5 36 -12.5s23.667 -4.5 39 -4.5c23.333 0 45.5 7.5 66.5 22.5s38.5 35.167 52.5 60.5c-17.333 66.667 -33.166 141.334 -47.499 224.001s-24.166 176 -29.499 280h153
c0.666992 -26 2 -54.667 4 -86s4.33301 -62.833 7 -94.5s5.66699 -62.5 9 -92.5s7 -57 11 -81c32 48 60.167 101.333 84.5 160s47.166 123.334 68.499 194.001h158zM541 711.998l-177 -136l-60 62l160 161z" />
    <glyph glyph-name="thorn" unicode="&#xfe;" horiz-adv-x="578" 
d="M347 536c7.33301 0.666992 15.001 1.16797 23.001 1.50098s16 0.5 24 0.5c37.333 0 69.5 -5.66699 96.5 -17s49.167 -26.833 66.5 -46.5s30.166 -42.667 38.499 -69s12.5 -54.5 12.5 -84.5c0 -48.667 -7.83301 -93.334 -23.5 -134.001s-37.834 -75.5 -66.501 -104.5
s-62.667 -51.667 -102 -68s-82.666 -24.5 -129.999 -24.5c-22 0 -45 2 -69 6l-43 -181h-148l224 937l155 24zM375.001 413.001c-20.667 0 -40.333 -1.99902 -59 -5.99902l-70 -292c7.33301 -1.33301 14.333 -2.16602 21 -2.49902s13.334 -0.5 20.001 -0.5
c27.333 0 51.666 4.83301 72.999 14.5s39.5 23.167 54.5 40.5s26.333 38.166 34 62.499s11.5 51.166 11.5 80.499c0 28.667 -6.33301 53 -19 73s-34.667 30 -66 30z" />
    <glyph glyph-name="ydieresis" unicode="&#xff;" horiz-adv-x="532" 
d="M632 526c-18.667 -50.667 -37.5 -98.002 -56.5 -142.002s-38.833 -85.833 -59.5 -125.5s-42 -77.5 -64 -113.5s-45.333 -71.667 -70 -107c-18 -26 -36.667 -52.333 -56 -79s-40.833 -50.667 -64.5 -72s-50 -38.666 -79 -51.999s-62.5 -20 -100.5 -20
c-23.333 0 -43.333 2.16699 -60 6.5s-32.334 10.166 -47.001 17.499l45 117c13.333 -5.33301 25.333 -9.5 36 -12.5s23.667 -4.5 39 -4.5c23.333 0 45.5 7.5 66.5 22.5s38.5 35.167 52.5 60.5c-17.333 66.667 -33.166 141.334 -47.499 224.001s-24.166 176 -29.499 280h153
c0.666992 -26 2 -54.667 4 -86s4.33301 -62.833 7 -94.5s5.66699 -62.5 9 -92.5s7 -57 11 -81c32 48 60.167 101.333 84.5 160s47.166 123.334 68.499 194.001h158zM298 601.998c-19.333 0 -35.335 6 -48.002 18s-19 28 -19 48c0 12.667 2.33301 24.334 7 35.001
s10.834 19.667 18.501 27s16.334 13.166 26.001 17.499s19.5 6.5 29.5 6.5c18.667 0 34.667 -6.16699 48 -18.5s20 -28.833 20 -49.5c0 -12 -2.5 -23.167 -7.5 -33.5s-11.5 -19.333 -19.5 -27s-16.833 -13.5 -26.5 -17.5s-19.167 -6 -28.5 -6zM519.998 601.998
c-19.333 0 -35.335 6 -48.002 18s-19 28 -19 48c0 12.667 2.33301 24.334 7 35.001s10.834 19.667 18.501 27s16.334 13.166 26.001 17.499s19.5 6.5 29.5 6.5c18.667 0 34.667 -6.16699 48 -18.5s20 -28.833 20 -49.5c0 -12 -2.5 -23.167 -7.5 -33.5
s-11.5 -19.333 -19.5 -27s-16.833 -13.5 -26.5 -17.5s-19.167 -6 -28.5 -6z" />
    <glyph glyph-name="Amacron" unicode="&#x100;" horiz-adv-x="714" 
d="M532 0c-1.33301 26 -2.83398 51.5 -4.50098 76.5s-3.5 49.833 -5.5 74.5h-260c-13.333 -24.667 -27.333 -49.5 -42 -74.5s-28.667 -50.5 -42 -76.5h-163c43.333 74.667 83.833 143.667 121.5 207s74 123 109 179s69.167 109.167 102.5 159.5s67.333 99.5 102 147.5h139
c10.667 -48 20.834 -101.167 30.501 -159.5s18.667 -118 27 -179s16 -122 23 -183s13.5 -118.167 19.5 -171.5h-157zM485.999 541c-28 -44.667 -55.499 -89 -82.499 -133s-53.167 -89 -78.5 -135h187c-3.33301 40.667 -6.83301 84 -10.5 130s-8.83398 92 -15.501 138z
M404 878h322l-25 -102h-322z" />
    <glyph glyph-name="amacron" unicode="&#x101;" horiz-adv-x="588" 
d="M563 227c-9.33301 -38 -11.998 -76.168 -7.99805 -114.501s11.667 -72.5 23 -102.5l-133 -19c-4 8 -7.66699 15.667 -11 23s-6.66602 15.666 -9.99902 24.999c-18.667 -15.333 -39.334 -28 -62.001 -38s-48 -15 -76 -15c-33.333 0 -61.833 5.83301 -85.5 17.5
s-43 27.334 -58 47.001s-25.833 42.667 -32.5 69s-10 54.5 -10 84.5c0 46 8.16699 89.333 24.5 130s39 76.167 68 106.5s63.167 54.166 102.5 71.499s82 26 128 26c6 0 16.5 -0.333008 31.5 -1s32.167 -2.16699 51.5 -4.5s39.666 -6.16602 60.999 -11.499
s41.666 -12.666 60.999 -21.999zM459.002 410.999c-8.66699 1.33301 -16.498 2.33301 -23.498 3s-15.5 1 -25.5 1c-22.667 0 -43.834 -5.66699 -63.501 -17s-36.834 -26.166 -51.501 -44.499s-26.167 -39.5 -34.5 -63.5s-12.5 -49 -12.5 -75c0 -32 5.33301 -57.333 16 -76
s30.334 -28 59.001 -28c15.333 0 29.166 3 41.499 9s25.5 16 39.5 30c1.33301 16.667 3.5 34.167 6.5 52.5s6.16699 35.166 9.5 50.499zM323.004 724.999h322l-25 -102h-322z" />
    <glyph glyph-name="Abreve" unicode="&#x102;" horiz-adv-x="714" 
d="M532 0c-1.33301 26 -2.83398 51.5 -4.50098 76.5s-3.5 49.833 -5.5 74.5h-260c-13.333 -24.667 -27.333 -49.5 -42 -74.5s-28.667 -50.5 -42 -76.5h-163c43.333 74.667 83.833 143.667 121.5 207s74 123 109 179s69.167 109.167 102.5 159.5s67.333 99.5 102 147.5h139
c10.667 -48 20.834 -101.167 30.501 -159.5s18.667 -118 27 -179s16 -122 23 -183s13.5 -118.167 19.5 -171.5h-157zM485.999 541c-28 -44.667 -55.499 -89 -82.499 -133s-53.167 -89 -78.5 -135h187c-3.33301 40.667 -6.83301 84 -10.5 130s-8.83398 92 -15.501 138z
M497 917c-0.666992 -3.33301 -1.16699 -6.66699 -1.5 -10s-0.5 -6.66602 -0.5 -9.99902c0 -16 3.5 -28.5 10.5 -37.5s18.833 -13.5 35.5 -13.5c16 0 30.167 6 42.5 18s20.5 29.667 24.5 53h102c-2 -28 -8.66699 -52.333 -20 -73s-25.333 -37.834 -42 -51.501
s-35.167 -24 -55.5 -31s-40.833 -10.5 -61.5 -10.5c-18 0 -35.333 2.66699 -52 8s-31.5 13.5 -44.5 24.5s-23.333 24.833 -31 41.5s-11.5 36 -11.5 58c0 12.667 1.33301 24 4 34h101z" />
    <glyph glyph-name="abreve" unicode="&#x103;" horiz-adv-x="588" 
d="M563 227c-9.33301 -38 -11.998 -76.168 -7.99805 -114.501s11.667 -72.5 23 -102.5l-133 -19c-4 8 -7.66699 15.667 -11 23s-6.66602 15.666 -9.99902 24.999c-18.667 -15.333 -39.334 -28 -62.001 -38s-48 -15 -76 -15c-33.333 0 -61.833 5.83301 -85.5 17.5
s-43 27.334 -58 47.001s-25.833 42.667 -32.5 69s-10 54.5 -10 84.5c0 46 8.16699 89.333 24.5 130s39 76.167 68 106.5s63.167 54.166 102.5 71.499s82 26 128 26c6 0 16.5 -0.333008 31.5 -1s32.167 -2.16699 51.5 -4.5s39.666 -6.16602 60.999 -11.499
s41.666 -12.666 60.999 -21.999zM459.002 410.999c-8.66699 1.33301 -16.498 2.33301 -23.498 3s-15.5 1 -25.5 1c-22.667 0 -43.834 -5.66699 -63.501 -17s-36.834 -26.166 -51.501 -44.499s-26.167 -39.5 -34.5 -63.5s-12.5 -49 -12.5 -75c0 -32 5.33301 -57.333 16 -76
s30.334 -28 59.001 -28c15.333 0 29.166 3 41.499 9s25.5 16 39.5 30c1.33301 16.667 3.5 34.167 6.5 52.5s6.16699 35.166 9.5 50.499zM438.004 763.999c-0.666992 -3.33301 -1.16699 -6.66699 -1.5 -10s-0.5 -6.66602 -0.5 -9.99902c0 -16 3.5 -28.5 10.5 -37.5
s18.833 -13.5 35.5 -13.5c16 0 30.167 6 42.5 18s20.5 29.667 24.5 53h102c-2 -28 -8.66699 -52.333 -20 -73s-25.333 -37.834 -42 -51.501s-35.167 -24 -55.5 -31s-40.833 -10.5 -61.5 -10.5c-18 0 -35.333 2.66699 -52 8s-31.5 13.5 -44.5 24.5s-23.333 24.833 -31 41.5
s-11.5 36 -11.5 58c0 12.667 1.33301 24 4 34h101z" />
    <glyph glyph-name="Aogonek" unicode="&#x104;" horiz-adv-x="714" 
d="M532 0c-1.33301 26 -2.83789 51.499 -4.50488 76.499s-3.5 49.833 -5.5 74.5h-260c-13.333 -24.667 -27.333 -49.5 -42 -74.5s-28.667 -50.5 -42 -76.5h-163c43.333 74.667 83.833 143.667 121.5 207s74 123 109 179s69.167 109.167 102.5 159.5s67.333 99.5 102 147.5
h139c10.667 -48 20.834 -101.167 30.501 -159.5s18.667 -118 27 -179s16 -122 23 -183s13.5 -118.167 19.5 -171.5l-4 -3c-34 -23.333 -57.667 -42.666 -71 -57.999s-20 -27.333 -20 -36c0 -10.667 8.33301 -16 25 -16c9.33301 0 19.333 1.5 30 4.5
s18.334 5.16699 23.001 6.5l-10 -99c-13.333 -6 -28.166 -10.833 -44.499 -14.5s-33.166 -5.5 -50.499 -5.5c-14 0 -27.667 1.5 -41 4.5s-25.166 7.83301 -35.499 14.5s-18.5 15.334 -24.5 26.001s-9 24 -9 40c0 20 7 40.667 21 62s37 41.666 69 60.999l22 13h-37z
M485.995 540.999c-28 -44.667 -55.499 -89 -82.499 -133s-53.167 -89 -78.5 -135h187c-3.33301 40.667 -6.83301 84 -10.5 130s-8.83398 92 -15.501 138z" />
    <glyph glyph-name="aogonek" unicode="&#x105;" horiz-adv-x="588" 
d="M563 227c-9.33301 -38 -12 -76.1699 -8 -114.503s11.667 -72.5 23 -102.5l-19 -13c-34 -23.333 -57.667 -42.666 -71 -57.999s-20 -27.333 -20 -36c0 -10.667 8.33301 -16 25 -16c9.33301 0 19.333 1.5 30 4.5s18.334 5.16699 23.001 6.5l-10 -99
c-13.333 -6 -28.166 -10.833 -44.499 -14.5s-33.166 -5.5 -50.499 -5.5c-14 0 -27.667 1.5 -41 4.5s-25.166 7.83301 -35.499 14.5s-18.5 15.334 -24.5 26.001s-9 24 -9 40c0 20 7 40.667 21 62s37 41.666 69 60.999l20 12c-3.33301 6 -6.33301 12.333 -9 19
s-5.33398 13.667 -8.00098 21c-18.667 -15.333 -39.334 -28 -62.001 -38s-48 -15 -76 -15c-33.333 0 -61.833 5.83301 -85.5 17.5s-43 27.334 -58 47.001s-25.833 42.667 -32.5 69s-10 54.5 -10 84.5c0 46 8.16699 89.333 24.5 130s39 76.167 68 106.5
s63.167 54.166 102.5 71.499s82 26 128 26c6 0 16.5 -0.333008 31.5 -1s32.167 -2.16699 51.5 -4.5s39.666 -6.16602 60.999 -11.499s41.666 -12.666 60.999 -21.999zM459 410.997c-8.66699 1.33301 -16.498 2.33301 -23.498 3s-15.5 1 -25.5 1
c-22.667 0 -43.834 -5.66699 -63.501 -17s-36.834 -26.166 -51.501 -44.499s-26.167 -39.5 -34.5 -63.5s-12.5 -49 -12.5 -75c0 -32 5.33301 -57.333 16 -76s30.334 -28 59.001 -28c15.333 0 29.166 3 41.499 9s25.5 16 39.5 30c1.33301 16.667 3.5 34.167 6.5 52.5
s6.16699 35.166 9.5 50.499z" />
    <glyph glyph-name="Cacute" unicode="&#x106;" horiz-adv-x="638" 
d="M614 30c-27.333 -13.333 -57.6709 -23.9961 -91.0039 -31.9961s-74 -12 -122 -12c-41.333 0 -79.166 6.83301 -113.499 20.5s-63.666 33.167 -87.999 58.5s-43.166 56.166 -56.499 92.499s-20 77.166 -20 122.499c0 52 9.16699 103.667 27.5 155
s45.333 97.166 81 137.499s79.334 73.166 131.001 98.499s111.167 38 178.5 38c32 0 63.5 -3.66699 94.5 -11s63.5 -20.333 97.5 -39l-56 -121c-28 14.667 -53 24.667 -75 30s-45.667 8 -71 8c-38 0 -72.167 -7.66699 -102.5 -23s-56.333 -36.166 -78 -62.499
s-38.167 -56.833 -49.5 -91.5s-17 -71.334 -17 -110.001c0 -58.667 12.833 -101.334 38.5 -128.001s62.5 -40 110.5 -40c32 0 61.5 3.33301 88.5 10s52.167 15.334 75.5 26.001zM641.995 872.004l-177 -136l-60 62l160 161z" />
    <glyph glyph-name="cacute" unicode="&#x107;" horiz-adv-x="480" 
d="M100 210c0 45.333 7.33301 88.002 22 128.002s35.667 75 63 105s60.5 53.667 99.5 71s82.5 26 130.5 26c30 0 56.833 -2.83301 80.5 -8.5s45.167 -13.167 64.5 -22.5l-51 -116c-13.333 5.33301 -27.166 10.166 -41.499 14.499s-31.833 6.5 -52.5 6.5
c-50 0 -89.333 -16.833 -118 -50.5s-43 -79.5 -43 -137.5c0 -34 7.33301 -61.5 22 -82.5s41.667 -31.5 81 -31.5c19.333 0 38 2 56 6s34 9 48 15l11 -119c-18.667 -7.33301 -39.167 -13.833 -61.5 -19.5s-49.5 -8.5 -81.5 -8.5c-41.333 0 -76.333 6 -105 18
s-52.334 28.167 -71.001 48.5s-32.167 44.166 -40.5 71.499s-12.5 56 -12.5 86zM531 712.002l-177 -136l-60 62l160 161z" />
    <glyph glyph-name="Ccircumflex" unicode="&#x108;" horiz-adv-x="638" 
d="M614 30c-27.333 -13.333 -57.6709 -23.9961 -91.0039 -31.9961s-74 -12 -122 -12c-41.333 0 -79.166 6.83301 -113.499 20.5s-63.666 33.167 -87.999 58.5s-43.166 56.166 -56.499 92.499s-20 77.166 -20 122.499c0 52 9.16699 103.667 27.5 155
s45.333 97.166 81 137.499s79.334 73.166 131.001 98.499s111.167 38 178.5 38c32 0 63.5 -3.66699 94.5 -11s63.5 -20.333 97.5 -39l-56 -121c-28 14.667 -53 24.667 -75 30s-45.667 8 -71 8c-38 0 -72.167 -7.66699 -102.5 -23s-56.333 -36.166 -78 -62.499
s-38.167 -56.833 -49.5 -91.5s-17 -71.334 -17 -110.001c0 -58.667 12.833 -101.334 38.5 -128.001s62.5 -40 110.5 -40c32 0 61.5 3.33301 88.5 10s52.167 15.334 75.5 26.001zM710.995 795.004l-60 -53l-83 78l-113 -76l-46 61l179 145z" />
    <glyph glyph-name="ccircumflex" unicode="&#x109;" horiz-adv-x="480" 
d="M100 210c0 45.333 7.33301 88.002 22 128.002s35.667 75 63 105s60.5 53.667 99.5 71s82.5 26 130.5 26c30 0 56.833 -2.83301 80.5 -8.5s45.167 -13.167 64.5 -22.5l-51 -116c-13.333 5.33301 -27.166 10.166 -41.499 14.499s-31.833 6.5 -52.5 6.5
c-50 0 -89.333 -16.833 -118 -50.5s-43 -79.5 -43 -137.5c0 -34 7.33301 -61.5 22 -82.5s41.667 -31.5 81 -31.5c19.333 0 38 2 56 6s34 9 48 15l11 -119c-18.667 -7.33301 -39.167 -13.833 -61.5 -19.5s-49.5 -8.5 -81.5 -8.5c-41.333 0 -76.333 6 -105 18
s-52.334 28.167 -71.001 48.5s-32.167 44.166 -40.5 71.499s-12.5 56 -12.5 86zM574 629.002l-60 -53l-83 78l-113 -76l-46 61l179 145z" />
    <glyph glyph-name="Cdotaccent" unicode="&#x10a;" horiz-adv-x="638" 
d="M614 30c-27.333 -13.333 -57.6709 -23.9961 -91.0039 -31.9961s-74 -12 -122 -12c-41.333 0 -79.166 6.83301 -113.499 20.5s-63.666 33.167 -87.999 58.5s-43.166 56.166 -56.499 92.499s-20 77.166 -20 122.499c0 52 9.16699 103.667 27.5 155
s45.333 97.166 81 137.499s79.334 73.166 131.001 98.499s111.167 38 178.5 38c32 0 63.5 -3.66699 94.5 -11s63.5 -20.333 97.5 -39l-56 -121c-28 14.667 -53 24.667 -75 30s-45.667 8 -71 8c-38 0 -72.167 -7.66699 -102.5 -23s-56.333 -36.166 -78 -62.499
s-38.167 -56.833 -49.5 -91.5s-17 -71.334 -17 -110.001c0 -58.667 12.833 -101.334 38.5 -128.001s62.5 -40 110.5 -40c32 0 61.5 3.33301 88.5 10s52.167 15.334 75.5 26.001zM564.995 760.004c-20.667 0 -37.668 6.00098 -51.001 18.001s-20 28.667 -20 50
c0 28 8.83301 49.667 26.5 65s37.5 23 59.5 23c20 0 37 -6 51 -18s21 -29 21 -51c0 -13.333 -2.5 -25.333 -7.5 -36s-11.667 -19.834 -20 -27.501s-17.666 -13.5 -27.999 -17.5s-20.833 -6 -31.5 -6z" />
    <glyph glyph-name="cdotaccent" unicode="&#x10b;" horiz-adv-x="480" 
d="M100 210c0 45.333 7.33301 88.002 22 128.002s35.667 75 63 105s60.5 53.667 99.5 71s82.5 26 130.5 26c30 0 56.833 -2.83301 80.5 -8.5s45.167 -13.167 64.5 -22.5l-51 -116c-13.333 5.33301 -27.166 10.166 -41.499 14.499s-31.833 6.5 -52.5 6.5
c-50 0 -89.333 -16.833 -118 -50.5s-43 -79.5 -43 -137.5c0 -34 7.33301 -61.5 22 -82.5s41.667 -31.5 81 -31.5c19.333 0 38 2 56 6s34 9 48 15l11 -119c-18.667 -7.33301 -39.167 -13.833 -61.5 -19.5s-49.5 -8.5 -81.5 -8.5c-41.333 0 -76.333 6 -105 18
s-52.334 28.167 -71.001 48.5s-32.167 44.166 -40.5 71.499s-12.5 56 -12.5 86zM430 600.002c-20.667 0 -37.668 6.00098 -51.001 18.001s-20 28.667 -20 50c0 28 8.83301 49.667 26.5 65s37.5 23 59.5 23c20 0 37 -6 51 -18s21 -29 21 -51c0 -13.333 -2.5 -25.333 -7.5 -36
s-11.667 -19.834 -20 -27.501s-17.666 -13.5 -27.999 -17.5s-20.833 -6 -31.5 -6z" />
    <glyph glyph-name="Ccaron" unicode="&#x10c;" horiz-adv-x="638" 
d="M614 30c-27.333 -13.333 -57.6709 -23.9961 -91.0039 -31.9961s-74 -12 -122 -12c-41.333 0 -79.166 6.83301 -113.499 20.5s-63.666 33.167 -87.999 58.5s-43.166 56.166 -56.499 92.499s-20 77.166 -20 122.499c0 52 9.16699 103.667 27.5 155
s45.333 97.166 81 137.499s79.334 73.166 131.001 98.499s111.167 38 178.5 38c32 0 63.5 -3.66699 94.5 -11s63.5 -20.333 97.5 -39l-56 -121c-28 14.667 -53 24.667 -75 30s-45.667 8 -71 8c-38 0 -72.167 -7.66699 -102.5 -23s-56.333 -36.166 -78 -62.499
s-38.167 -56.833 -49.5 -91.5s-17 -71.334 -17 -110.001c0 -58.667 12.833 -101.334 38.5 -128.001s62.5 -40 110.5 -40c32 0 61.5 3.33301 88.5 10s52.167 15.334 75.5 26.001zM417.995 901.004l60 53l83 -78l113 76l46 -61l-179 -145z" />
    <glyph glyph-name="ccaron" unicode="&#x10d;" horiz-adv-x="480" 
d="M100 210c0 45.333 7.33301 88.002 22 128.002s35.667 75 63 105s60.5 53.667 99.5 71s82.5 26 130.5 26c30 0 56.833 -2.83301 80.5 -8.5s45.167 -13.167 64.5 -22.5l-51 -116c-13.333 5.33301 -27.166 10.166 -41.499 14.499s-31.833 6.5 -52.5 6.5
c-50 0 -89.333 -16.833 -118 -50.5s-43 -79.5 -43 -137.5c0 -34 7.33301 -61.5 22 -82.5s41.667 -31.5 81 -31.5c19.333 0 38 2 56 6s34 9 48 15l11 -119c-18.667 -7.33301 -39.167 -13.833 -61.5 -19.5s-49.5 -8.5 -81.5 -8.5c-41.333 0 -76.333 6 -105 18
s-52.334 28.167 -71.001 48.5s-32.167 44.166 -40.5 71.499s-12.5 56 -12.5 86zM295 740.002l60 53l83 -78l113 76l46 -61l-179 -145z" />
    <glyph glyph-name="Dcaron" unicode="&#x10e;" horiz-adv-x="718" 
d="M257 125c7.33301 -0.666992 14.8359 -1.16602 22.5029 -1.49902s18.167 -0.5 31.5 -0.5c43.333 0 82.5 6.66699 117.5 20s64.667 32.5 89 57.5s43.166 55.667 56.499 92s20 77.166 20 122.499c0 23.333 -3 44.5 -9 63.5s-15.833 35.333 -29.5 49
s-31.334 24.167 -53.001 31.5s-47.834 11 -78.501 11c-20 0 -40.333 -1 -61 -3zM754.003 423.001c0 -67.333 -11 -127.666 -33 -180.999s-53.5 -98.5 -94.5 -135.5s-90.833 -65.5 -149.5 -85.5s-125 -30 -199 -30c-28 0 -60.333 1.66699 -97 5s-72 8.66602 -106 15.999
l161 669c38 7.33301 74.5 12.5 109.5 15.5s66.5 4.5 94.5 4.5c49.333 0 93.5 -6.66699 132.5 -20s72 -32.333 99 -57s47.5 -54 61.5 -88s21 -71.667 21 -113zM362.003 901.001l60 53l83 -78l113 76l46 -61l-179 -145z" />
    <glyph glyph-name="dcaron" unicode="&#x10f;" horiz-adv-x="652" 
d="M287 -14c-33.333 0 -61.834 5.66895 -85.501 17.002s-43 26.833 -58 46.5s-26 42.667 -33 69s-10.5 54.5 -10.5 84.5c0 45.333 8.16699 88.166 24.5 128.499s38.833 75.5 67.5 105.5s62.667 53.667 102 71s82.333 26 129 26c12 0 23.167 -0.666992 33.5 -2
s20.833 -3.33301 31.5 -6l54 226l155 24l-132 -549c-9.33301 -38 -12 -76.167 -8 -114.5s11.667 -72.5 23 -102.5l-133 -19c-4 8 -7.66699 15.667 -11 23s-6.66602 15.666 -9.99902 24.999c-18.667 -15.333 -39.5 -28 -62.5 -38s-48.5 -15 -76.5 -15zM458.999 407.002
c-4 0.666992 -7.5 1.33594 -10.5 2.00293s-6 1.16699 -9 1.5s-6.83301 0.5 -11.5 0.5h-18c-23.333 0 -45 -5.5 -65 -16.5s-37.167 -25.833 -51.5 -44.5s-25.5 -39.834 -33.5 -63.501s-12 -47.834 -12 -72.501c0 -32 5.5 -57.167 16.5 -75.5s30.833 -27.5 59.5 -27.5
c15.333 0 29.333 3 42 9s26 16 40 30c1.33301 16.667 3.5 34.167 6.5 52.5s6.16699 35.166 9.5 50.499zM891.999 776.004l-93 -244h-88l55 244h126z" />
    <glyph glyph-name="Dcroat" unicode="&#x110;" horiz-adv-x="718" 
d="M257 125c7.33301 -0.666992 14.8359 -1.16602 22.5029 -1.49902s18.167 -0.5 31.5 -0.5c43.333 0 82.5 6.66699 117.5 20s64.667 32.5 89 57.5s43.166 55.667 56.499 92s20 77.166 20 122.499c0 23.333 -3 44.5 -9 63.5s-15.833 35.333 -29.5 49
s-31.334 24.167 -53.001 31.5s-47.834 11 -78.501 11c-20 0 -40.333 -1 -61 -3l-36 -150h127l-27 -115h-128zM754.003 423.001c0 -67.333 -11 -127.666 -33 -180.999s-53.5 -98.5 -94.5 -135.5s-90.833 -65.5 -149.5 -85.5s-125 -30 -199 -30c-28 0 -60.333 1.66699 -97 5
s-72 8.66602 -106 15.999l70 290h-80l26 115h81l64 264c38 7.33301 74.5 12.5 109.5 15.5s66.5 4.5 94.5 4.5c49.333 0 93.5 -6.66699 132.5 -20s72 -32.333 99 -57s47.5 -54 61.5 -88s21 -71.667 21 -113z" />
    <glyph glyph-name="dcroat" unicode="&#x111;" horiz-adv-x="590" 
d="M287 -14c-33.333 0 -61.834 5.66895 -85.501 17.002s-43 26.833 -58 46.5s-26 42.667 -33 69s-10.5 54.5 -10.5 84.5c0 45.333 8.16699 88.166 24.5 128.499s38.833 75.5 67.5 105.5s62.667 53.667 102 71s82.333 26 129 26c12 0 23.167 -0.666992 33.5 -2
s20.833 -3.33301 31.5 -6l16 70h-131l22 93h132l15 63l155 24l-21 -87h73l-22 -93h-74l-88 -369c-9.33301 -38 -12 -76.167 -8 -114.5s11.667 -72.5 23 -102.5l-133 -19c-4 8 -7.66699 15.667 -11 23s-6.66602 15.666 -9.99902 24.999c-18.667 -15.333 -39.5 -28 -62.5 -38
s-48.5 -15 -76.5 -15zM458.999 407.002c-4 0.666992 -7.5 1.33594 -10.5 2.00293s-6 1.16699 -9 1.5s-6.83301 0.5 -11.5 0.5h-18c-23.333 0 -45 -5.5 -65 -16.5s-37.167 -25.833 -51.5 -44.5s-25.5 -39.834 -33.5 -63.501s-12 -47.834 -12 -72.501
c0 -32 5.5 -57.167 16.5 -75.5s30.833 -27.5 59.5 -27.5c15.333 0 29.333 3 42 9s26 16 40 30c1.33301 16.667 3.5 34.167 6.5 52.5s6.16699 35.166 9.5 50.499z" />
    <glyph glyph-name="Emacron" unicode="&#x112;" horiz-adv-x="594" 
d="M75 0l166 693h453l-32 -128h-297l-32 -140h262l-31 -126h-262l-40 -170h320l-32 -129h-475zM353 878h322l-25 -102h-322z" />
    <glyph glyph-name="emacron" unicode="&#x113;" horiz-adv-x="530" 
d="M100 206c0 42.667 7.5 83.999 22.5 123.999s36.167 75.5 63.5 106.5s60.5 56 99.5 75s82.167 28.5 129.5 28.5c23.333 0 45 -3.33301 65 -10s37.5 -16.334 52.5 -29.001s26.667 -28.167 35 -46.5s12.5 -39.166 12.5 -62.499c0 -37.333 -8.33301 -69 -25 -95
s-39.834 -47.167 -69.501 -63.5s-64.834 -28.166 -105.501 -35.499s-85 -11 -133 -11c4.66699 -28 14.834 -47.833 30.501 -59.5s40.5 -17.5 74.5 -17.5c21.333 0 43 1.83301 65 5.5s42.667 9.16699 62 16.5l11 -117c-18.667 -7.33301 -42.5 -14 -71.5 -20
s-60.5 -9 -94.5 -9c-41.333 0 -76.166 5.83301 -104.499 17.5s-51.333 27.5 -69 47.5s-30.5 43.333 -38.5 70s-12 55 -12 85zM391 421.999c-34 0 -63.832 -12.166 -89.499 -36.499s-42.5 -56.5 -50.5 -96.5c41.333 1.33301 74.666 4.83301 99.999 10.5s45 12.5 59 20.5
s23.333 16.667 28 26s7 18.666 7 27.999c0 32 -18 48 -54 48zM290.001 725h322l-25 -102h-322z" />
    <glyph glyph-name="Ebreve" unicode="&#x114;" horiz-adv-x="594" 
d="M75 0l166 693h453l-32 -128h-297l-32 -140h262l-31 -126h-262l-40 -170h320l-32 -129h-475zM454 917c-0.666992 -3.33301 -1.16699 -6.66699 -1.5 -10s-0.5 -6.66602 -0.5 -9.99902c0 -16 3.5 -28.5 10.5 -37.5s18.833 -13.5 35.5 -13.5c16 0 30.167 6 42.5 18
s20.5 29.667 24.5 53h102c-2 -28 -8.66699 -52.333 -20 -73s-25.333 -37.834 -42 -51.501s-35.167 -24 -55.5 -31s-40.833 -10.5 -61.5 -10.5c-18 0 -35.333 2.66699 -52 8s-31.5 13.5 -44.5 24.5s-23.333 24.833 -31 41.5s-11.5 36 -11.5 58c0 12.667 1.33301 24 4 34h101z
" />
    <glyph glyph-name="ebreve" unicode="&#x115;" horiz-adv-x="530" 
d="M100 206c0 42.667 7.5 83.999 22.5 123.999s36.167 75.5 63.5 106.5s60.5 56 99.5 75s82.167 28.5 129.5 28.5c23.333 0 45 -3.33301 65 -10s37.5 -16.334 52.5 -29.001s26.667 -28.167 35 -46.5s12.5 -39.166 12.5 -62.499c0 -37.333 -8.33301 -69 -25 -95
s-39.834 -47.167 -69.501 -63.5s-64.834 -28.166 -105.501 -35.499s-85 -11 -133 -11c4.66699 -28 14.834 -47.833 30.501 -59.5s40.5 -17.5 74.5 -17.5c21.333 0 43 1.83301 65 5.5s42.667 9.16699 62 16.5l11 -117c-18.667 -7.33301 -42.5 -14 -71.5 -20
s-60.5 -9 -94.5 -9c-41.333 0 -76.166 5.83301 -104.499 17.5s-51.333 27.5 -69 47.5s-30.5 43.333 -38.5 70s-12 55 -12 85zM391 421.999c-34 0 -63.832 -12.166 -89.499 -36.499s-42.5 -56.5 -50.5 -96.5c41.333 1.33301 74.666 4.83301 99.999 10.5s45 12.5 59 20.5
s23.333 16.667 28 26s7 18.666 7 27.999c0 32 -18 48 -54 48zM402.001 764c-0.666992 -3.33301 -1.16699 -6.66699 -1.5 -10s-0.5 -6.66602 -0.5 -9.99902c0 -16 3.5 -28.5 10.5 -37.5s18.833 -13.5 35.5 -13.5c16 0 30.167 6 42.5 18s20.5 29.667 24.5 53h102
c-2 -28 -8.66699 -52.333 -20 -73s-25.333 -37.834 -42 -51.501s-35.167 -24 -55.5 -31s-40.833 -10.5 -61.5 -10.5c-18 0 -35.333 2.66699 -52 8s-31.5 13.5 -44.5 24.5s-23.333 24.833 -31 41.5s-11.5 36 -11.5 58c0 12.667 1.33301 24 4 34h101z" />
    <glyph glyph-name="Edotaccent" unicode="&#x116;" horiz-adv-x="594" 
d="M75 0l166 693h453l-32 -128h-297l-32 -140h262l-31 -126h-262l-40 -170h320l-32 -129h-475zM488 760c-20.667 0 -37.668 6.00098 -51.001 18.001s-20 28.667 -20 50c0 28 8.83301 49.667 26.5 65s37.5 23 59.5 23c20 0 37 -6 51 -18s21 -29 21 -51
c0 -13.333 -2.5 -25.333 -7.5 -36s-11.667 -19.834 -20 -27.501s-17.666 -13.5 -27.999 -17.5s-20.833 -6 -31.5 -6z" />
    <glyph glyph-name="edotaccent" unicode="&#x117;" horiz-adv-x="530" 
d="M100 206c0 42.667 7.5 83.999 22.5 123.999s36.167 75.5 63.5 106.5s60.5 56 99.5 75s82.167 28.5 129.5 28.5c23.333 0 45 -3.33301 65 -10s37.5 -16.334 52.5 -29.001s26.667 -28.167 35 -46.5s12.5 -39.166 12.5 -62.499c0 -37.333 -8.33301 -69 -25 -95
s-39.834 -47.167 -69.501 -63.5s-64.834 -28.166 -105.501 -35.499s-85 -11 -133 -11c4.66699 -28 14.834 -47.833 30.501 -59.5s40.5 -17.5 74.5 -17.5c21.333 0 43 1.83301 65 5.5s42.667 9.16699 62 16.5l11 -117c-18.667 -7.33301 -42.5 -14 -71.5 -20
s-60.5 -9 -94.5 -9c-41.333 0 -76.166 5.83301 -104.499 17.5s-51.333 27.5 -69 47.5s-30.5 43.333 -38.5 70s-12 55 -12 85zM391 421.999c-34 0 -63.832 -12.166 -89.499 -36.499s-42.5 -56.5 -50.5 -96.5c41.333 1.33301 74.666 4.83301 99.999 10.5s45 12.5 59 20.5
s23.333 16.667 28 26s7 18.666 7 27.999c0 32 -18 48 -54 48zM428.001 600c-20.667 0 -37.668 6.00098 -51.001 18.001s-20 28.667 -20 50c0 28 8.83301 49.667 26.5 65s37.5 23 59.5 23c20 0 37 -6 51 -18s21 -29 21 -51c0 -13.333 -2.5 -25.333 -7.5 -36
s-11.667 -19.834 -20 -27.501s-17.666 -13.5 -27.999 -17.5s-20.833 -6 -31.5 -6z" />
    <glyph glyph-name="Eogonek" unicode="&#x118;" horiz-adv-x="594" 
d="M75 0l165.996 692.999h453l-32 -128h-297l-32 -140h262l-31 -126h-262l-40 -170h320l-32 -129l-4 -3c-34 -23.333 -57.667 -42.666 -71 -57.999s-20 -27.333 -20 -36c0 -10.667 8.33301 -16 25 -16c9.33301 0 19.333 1.5 30 4.5s18.334 5.16699 23.001 6.5l-10 -99
c-13.333 -6 -28.166 -10.833 -44.499 -14.5s-33.166 -5.5 -50.499 -5.5c-14 0 -27.667 1.5 -41 4.5s-25.166 7.83301 -35.499 14.5s-18.5 15.334 -24.5 26.001s-9 24 -9 40c0 20 7 40.667 21 62s37 41.666 69 60.999l22 13h-355z" />
    <glyph glyph-name="eogonek" unicode="&#x119;" horiz-adv-x="530" 
d="M100 206c0 42.667 7.49609 83.9971 22.4961 123.997s36.167 75.5 63.5 106.5s60.5 56 99.5 75s82.167 28.5 129.5 28.5c23.333 0 45 -3.33301 65 -10s37.5 -16.334 52.5 -29.001s26.667 -28.167 35 -46.5s12.5 -39.166 12.5 -62.499c0 -37.333 -8.33301 -69 -25 -95
s-39.834 -47.167 -69.501 -63.5s-64.834 -28.166 -105.501 -35.499s-85 -11 -133 -11c4.66699 -28 14.834 -47.833 30.501 -59.5s40.5 -17.5 74.5 -17.5c21.333 0 43 1.83301 65 5.5s42.667 9.16699 62 16.5l11 -117l-26 -18c-34 -23.333 -57.667 -42.666 -71 -57.999
s-20 -27.333 -20 -36c0 -10.667 8.33301 -16 25 -16c9.33301 0 19.333 1.5 30 4.5s18.334 5.16699 23.001 6.5l-10 -99c-13.333 -6 -28.166 -10.833 -44.499 -14.5s-33.166 -5.5 -50.499 -5.5c-14 0 -27.667 1.5 -41 4.5s-25.166 7.83301 -35.499 14.5
s-18.5 15.334 -24.5 26.001s-9 24 -9 40c0 20 6.66699 40.5 20 61.5s36 41.167 68 60.5c-41.333 0 -76.166 5.83301 -104.499 17.5s-51.333 27.5 -69 47.5s-30.5 43.333 -38.5 70s-12 55 -12 85zM390.996 421.997c-34 0 -63.832 -12.166 -89.499 -36.499
s-42.5 -56.5 -50.5 -96.5c41.333 1.33301 74.666 4.83301 99.999 10.5s45 12.5 59 20.5s23.333 16.667 28 26s7 18.666 7 27.999c0 32 -18 48 -54 48z" />
    <glyph glyph-name="Ecaron" unicode="&#x11a;" horiz-adv-x="594" 
d="M75 0l166 693h453l-32 -128h-297l-32 -140h262l-31 -126h-262l-40 -170h320l-32 -129h-475zM351 901l60 53l83 -78l113 76l46 -61l-179 -145z" />
    <glyph glyph-name="ecaron" unicode="&#x11b;" horiz-adv-x="530" 
d="M100 206c0 42.667 7.5 83.999 22.5 123.999s36.167 75.5 63.5 106.5s60.5 56 99.5 75s82.167 28.5 129.5 28.5c23.333 0 45 -3.33301 65 -10s37.5 -16.334 52.5 -29.001s26.667 -28.167 35 -46.5s12.5 -39.166 12.5 -62.499c0 -37.333 -8.33301 -69 -25 -95
s-39.834 -47.167 -69.501 -63.5s-64.834 -28.166 -105.501 -35.499s-85 -11 -133 -11c4.66699 -28 14.834 -47.833 30.501 -59.5s40.5 -17.5 74.5 -17.5c21.333 0 43 1.83301 65 5.5s42.667 9.16699 62 16.5l11 -117c-18.667 -7.33301 -42.5 -14 -71.5 -20
s-60.5 -9 -94.5 -9c-41.333 0 -76.166 5.83301 -104.499 17.5s-51.333 27.5 -69 47.5s-30.5 43.333 -38.5 70s-12 55 -12 85zM391 421.999c-34 0 -63.832 -12.166 -89.499 -36.499s-42.5 -56.5 -50.5 -96.5c41.333 1.33301 74.666 4.83301 99.999 10.5s45 12.5 59 20.5
s23.333 16.667 28 26s7 18.666 7 27.999c0 32 -18 48 -54 48zM306.001 740l60 53l83 -78l113 76l46 -61l-179 -145z" />
    <glyph glyph-name="Gcircumflex" unicode="&#x11c;" horiz-adv-x="688" 
d="M429 120c13.333 0 25.332 0.501953 35.999 1.50195s20.334 2.16699 29.001 3.5l58 241h156l-84 -347c-18.667 -7.33301 -45.667 -14.5 -81 -21.5s-80.333 -10.5 -135 -10.5c-46.667 0 -87.834 6.83301 -123.501 20.5s-65.5 33.167 -89.5 58.5s-42 56 -54 92
s-18 76.667 -18 122c0 52 9.16699 103.667 27.5 155s45.5 97.166 81.5 137.499s80.667 73.166 134 98.499s114.666 38 183.999 38c32 0 65.833 -4.66699 101.5 -14s67.834 -23.333 96.501 -42l-56 -121c-23.333 14.667 -48.166 25.667 -74.499 33s-52.166 11 -77.499 11
c-40.667 0 -76.834 -7.66699 -108.501 -23s-58.5 -36.166 -80.5 -62.499s-38.667 -56.833 -50 -91.5s-17 -71.334 -17 -110.001c0 -58.667 12.167 -101.5 36.5 -128.5s60.5 -40.5 108.5 -40.5zM694.999 795.002l-60 -53l-83 78l-113 -76l-46 61l179 145z" />
    <glyph glyph-name="gcircumflex" unicode="&#x11d;" horiz-adv-x="567" 
d="M524 66c-10 -43.333 -23.1699 -80.833 -39.5029 -112.5s-36.666 -58 -60.999 -79s-53.5 -36.667 -87.5 -47s-73.667 -15.5 -119 -15.5c-42 0 -77.333 3.83301 -106 11.5s-54.667 17.167 -78 28.5l50 118c20.667 -9.33301 42.167 -17.333 64.5 -24s49.833 -10 82.5 -10
c42.667 0 74.834 9.5 96.501 28.5s35.834 43.5 42.501 73.5l4 19c-13.333 -6.66699 -27.5 -12 -42.5 -16s-30.833 -6 -47.5 -6c-31.333 0 -58.333 4.83301 -81 14.5s-41.167 23.167 -55.5 40.5s-25 37.833 -32 61.5s-10.5 49.5 -10.5 77.5c0 50.667 9.33301 95.5 28 134.5
s43.5 71.5 74.5 97.5s66.667 45.667 107 59s82.5 20 126.5 20c32 0 63.667 -3.33301 95 -10s62 -17 92 -31zM457.997 411c-11.333 2.66699 -25.333 4.00195 -42 4.00195c-25.333 0 -48 -4.5 -68 -13.5s-37.167 -21.167 -51.5 -36.5s-25.333 -33.833 -33 -55.5
s-11.5 -44.834 -11.5 -69.501c0 -12 1 -23.167 3 -33.5s5.66699 -19.333 11 -27s12.666 -13.834 21.999 -18.501s21 -7 35 -7c9.33301 0 21.833 1.66699 37.5 5s29.834 11 42.501 23zM616.997 629.002l-60 -53l-83 78l-113 -76l-46 61l179 145z" />
    <glyph glyph-name="Gbreve" unicode="&#x11e;" horiz-adv-x="688" 
d="M429 120c13.333 0 25.332 0.501953 35.999 1.50195s20.334 2.16699 29.001 3.5l58 241h156l-84 -347c-18.667 -7.33301 -45.667 -14.5 -81 -21.5s-80.333 -10.5 -135 -10.5c-46.667 0 -87.834 6.83301 -123.501 20.5s-65.5 33.167 -89.5 58.5s-42 56 -54 92
s-18 76.667 -18 122c0 52 9.16699 103.667 27.5 155s45.5 97.166 81.5 137.499s80.667 73.166 134 98.499s114.666 38 183.999 38c32 0 65.833 -4.66699 101.5 -14s67.834 -23.333 96.501 -42l-56 -121c-23.333 14.667 -48.166 25.667 -74.499 33s-52.166 11 -77.499 11
c-40.667 0 -76.834 -7.66699 -108.501 -23s-58.5 -36.166 -80.5 -62.499s-38.667 -56.833 -50 -91.5s-17 -71.334 -17 -110.001c0 -58.667 12.167 -101.5 36.5 -128.5s60.5 -40.5 108.5 -40.5zM500.999 917.002c-0.666992 -3.33301 -1.16699 -6.66699 -1.5 -10
s-0.5 -6.66602 -0.5 -9.99902c0 -16 3.5 -28.5 10.5 -37.5s18.833 -13.5 35.5 -13.5c16 0 30.167 6 42.5 18s20.5 29.667 24.5 53h102c-2 -28 -8.66699 -52.333 -20 -73s-25.333 -37.834 -42 -51.501s-35.167 -24 -55.5 -31s-40.833 -10.5 -61.5 -10.5
c-18 0 -35.333 2.66699 -52 8s-31.5 13.5 -44.5 24.5s-23.333 24.833 -31 41.5s-11.5 36 -11.5 58c0 12.667 1.33301 24 4 34h101z" />
    <glyph glyph-name="gbreve" unicode="&#x11f;" horiz-adv-x="567" 
d="M524 66c-10 -43.333 -23.1699 -80.833 -39.5029 -112.5s-36.666 -58 -60.999 -79s-53.5 -36.667 -87.5 -47s-73.667 -15.5 -119 -15.5c-42 0 -77.333 3.83301 -106 11.5s-54.667 17.167 -78 28.5l50 118c20.667 -9.33301 42.167 -17.333 64.5 -24s49.833 -10 82.5 -10
c42.667 0 74.834 9.5 96.501 28.5s35.834 43.5 42.501 73.5l4 19c-13.333 -6.66699 -27.5 -12 -42.5 -16s-30.833 -6 -47.5 -6c-31.333 0 -58.333 4.83301 -81 14.5s-41.167 23.167 -55.5 40.5s-25 37.833 -32 61.5s-10.5 49.5 -10.5 77.5c0 50.667 9.33301 95.5 28 134.5
s43.5 71.5 74.5 97.5s66.667 45.667 107 59s82.5 20 126.5 20c32 0 63.667 -3.33301 95 -10s62 -17 92 -31zM457.997 411c-11.333 2.66699 -25.333 4.00195 -42 4.00195c-25.333 0 -48 -4.5 -68 -13.5s-37.167 -21.167 -51.5 -36.5s-25.333 -33.833 -33 -55.5
s-11.5 -44.834 -11.5 -69.501c0 -12 1 -23.167 3 -33.5s5.66699 -19.333 11 -27s12.666 -13.834 21.999 -18.501s21 -7 35 -7c9.33301 0 21.833 1.66699 37.5 5s29.834 11 42.501 23zM437.997 764.002c-0.666992 -3.33301 -1.16699 -6.66699 -1.5 -10
s-0.5 -6.66602 -0.5 -9.99902c0 -16 3.5 -28.5 10.5 -37.5s18.833 -13.5 35.5 -13.5c16 0 30.167 6 42.5 18s20.5 29.667 24.5 53h102c-2 -28 -8.66699 -52.333 -20 -73s-25.333 -37.834 -42 -51.501s-35.167 -24 -55.5 -31s-40.833 -10.5 -61.5 -10.5
c-18 0 -35.333 2.66699 -52 8s-31.5 13.5 -44.5 24.5s-23.333 24.833 -31 41.5s-11.5 36 -11.5 58c0 12.667 1.33301 24 4 34h101z" />
    <glyph glyph-name="Gdotaccent" unicode="&#x120;" horiz-adv-x="688" 
d="M429 120c13.333 0 25.332 0.501953 35.999 1.50195s20.334 2.16699 29.001 3.5l58 241h156l-84 -347c-18.667 -7.33301 -45.667 -14.5 -81 -21.5s-80.333 -10.5 -135 -10.5c-46.667 0 -87.834 6.83301 -123.501 20.5s-65.5 33.167 -89.5 58.5s-42 56 -54 92
s-18 76.667 -18 122c0 52 9.16699 103.667 27.5 155s45.5 97.166 81.5 137.499s80.667 73.166 134 98.499s114.666 38 183.999 38c32 0 65.833 -4.66699 101.5 -14s67.834 -23.333 96.501 -42l-56 -121c-23.333 14.667 -48.166 25.667 -74.499 33s-52.166 11 -77.499 11
c-40.667 0 -76.834 -7.66699 -108.501 -23s-58.5 -36.166 -80.5 -62.499s-38.667 -56.833 -50 -91.5s-17 -71.334 -17 -110.001c0 -58.667 12.167 -101.5 36.5 -128.5s60.5 -40.5 108.5 -40.5zM546.999 760.002c-20.667 0 -37.668 6.00098 -51.001 18.001s-20 28.667 -20 50
c0 28 8.83301 49.667 26.5 65s37.5 23 59.5 23c20 0 37 -6 51 -18s21 -29 21 -51c0 -13.333 -2.5 -25.333 -7.5 -36s-11.667 -19.834 -20 -27.501s-17.666 -13.5 -27.999 -17.5s-20.833 -6 -31.5 -6z" />
    <glyph glyph-name="gdotaccent" unicode="&#x121;" horiz-adv-x="567" 
d="M524 66c-10 -43.333 -23.1699 -80.833 -39.5029 -112.5s-36.666 -58 -60.999 -79s-53.5 -36.667 -87.5 -47s-73.667 -15.5 -119 -15.5c-42 0 -77.333 3.83301 -106 11.5s-54.667 17.167 -78 28.5l50 118c20.667 -9.33301 42.167 -17.333 64.5 -24s49.833 -10 82.5 -10
c42.667 0 74.834 9.5 96.501 28.5s35.834 43.5 42.501 73.5l4 19c-13.333 -6.66699 -27.5 -12 -42.5 -16s-30.833 -6 -47.5 -6c-31.333 0 -58.333 4.83301 -81 14.5s-41.167 23.167 -55.5 40.5s-25 37.833 -32 61.5s-10.5 49.5 -10.5 77.5c0 50.667 9.33301 95.5 28 134.5
s43.5 71.5 74.5 97.5s66.667 45.667 107 59s82.5 20 126.5 20c32 0 63.667 -3.33301 95 -10s62 -17 92 -31zM457.997 411c-11.333 2.66699 -25.333 4.00195 -42 4.00195c-25.333 0 -48 -4.5 -68 -13.5s-37.167 -21.167 -51.5 -36.5s-25.333 -33.833 -33 -55.5
s-11.5 -44.834 -11.5 -69.501c0 -12 1 -23.167 3 -33.5s5.66699 -19.333 11 -27s12.666 -13.834 21.999 -18.501s21 -7 35 -7c9.33301 0 21.833 1.66699 37.5 5s29.834 11 42.501 23zM455.997 600.002c-20.667 0 -37.668 6.00098 -51.001 18.001s-20 28.667 -20 50
c0 28 8.83301 49.667 26.5 65s37.5 23 59.5 23c20 0 37 -6 51 -18s21 -29 21 -51c0 -13.333 -2.5 -25.333 -7.5 -36s-11.667 -19.834 -20 -27.501s-17.666 -13.5 -27.999 -17.5s-20.833 -6 -31.5 -6z" />
    <glyph glyph-name="Gcommaaccent" unicode="&#x122;" horiz-adv-x="688" 
d="M465 -50c-3.33301 -31.333 -9.99902 -57.665 -19.999 -78.998s-22.167 -38.333 -36.5 -51s-30.5 -21.667 -48.5 -27s-37 -8 -57 -8c-18 0 -37 2.66699 -57 8l21 79c2.66699 -0.666992 5.16699 -1 7.5 -1h6.5c12.667 0 23 2.16699 31 6.5s14.167 10.166 18.5 17.499
s7.66602 15.666 9.99902 24.999s4.5 19.333 6.5 30h118zM429.001 120.001c13.333 0 25.332 0.501953 35.999 1.50195s20.334 2.16699 29.001 3.5l58 241h156l-84 -347c-18.667 -7.33301 -45.667 -14.5 -81 -21.5s-80.333 -10.5 -135 -10.5
c-46.667 0 -87.834 6.83301 -123.501 20.5s-65.5 33.167 -89.5 58.5s-42 56 -54 92s-18 76.667 -18 122c0 52 9.16699 103.667 27.5 155s45.5 97.166 81.5 137.499s80.667 73.166 134 98.499s114.666 38 183.999 38c32 0 65.833 -4.66699 101.5 -14
s67.834 -23.333 96.501 -42l-56 -121c-23.333 14.667 -48.166 25.667 -74.499 33s-52.166 11 -77.499 11c-40.667 0 -76.834 -7.66699 -108.501 -23s-58.5 -36.166 -80.5 -62.499s-38.667 -56.833 -50 -91.5s-17 -71.334 -17 -110.001c0 -58.667 12.167 -101.5 36.5 -128.5
s60.5 -40.5 108.5 -40.5z" />
    <glyph glyph-name="gcommaaccent" unicode="&#x123;" horiz-adv-x="567" 
d="M524 66c-10 -43.333 -23.1699 -80.833 -39.5029 -112.5s-36.666 -58 -60.999 -79s-53.5 -36.667 -87.5 -47s-73.667 -15.5 -119 -15.5c-42 0 -77.333 3.83301 -106 11.5s-54.667 17.167 -78 28.5l50 118c20.667 -9.33301 42.167 -17.333 64.5 -24s49.833 -10 82.5 -10
c42.667 0 74.834 9.5 96.501 28.5s35.834 43.5 42.501 73.5l4 19c-13.333 -6.66699 -27.5 -12 -42.5 -16s-30.833 -6 -47.5 -6c-31.333 0 -58.333 4.83301 -81 14.5s-41.167 23.167 -55.5 40.5s-25 37.833 -32 61.5s-10.5 49.5 -10.5 77.5c0 50.667 9.33301 95.5 28 134.5
s43.5 71.5 74.5 97.5s66.667 45.667 107 59s82.5 20 126.5 20c32 0 63.667 -3.33301 95 -10s62 -17 92 -31zM457.997 411c-11.333 2.66699 -25.333 4.00195 -42 4.00195c-25.333 0 -48 -4.5 -68 -13.5s-37.167 -21.167 -51.5 -36.5s-25.333 -33.833 -33 -55.5
s-11.5 -44.834 -11.5 -69.501c0 -12 1 -23.167 3 -33.5s5.66699 -19.333 11 -27s12.666 -13.834 21.999 -18.501s21 -7 35 -7c9.33301 0 21.833 1.66699 37.5 5s29.834 11 42.501 23zM388.997 599.002c0.666992 4.66699 1.33301 9.16602 2 13.499s1.66699 8.83301 3 13.5
c11.333 46.667 30.5 83.334 57.5 110.001s62.833 45.667 107.5 57l36 -65c-24.667 -9.33301 -43.667 -23.5 -57 -42.5s-22.333 -47.833 -27 -86.5h-122z" />
    <glyph glyph-name="Hcircumflex" unicode="&#x124;" horiz-adv-x="714" 
d="M643 693h156l-167 -693h-156l71 295h-246l-71 -295h-155l166 693h156l-64 -266h246zM678 795l-60 -53l-83 78l-113 -76l-46 61l179 145z" />
    <glyph glyph-name="hcircumflex" unicode="&#x125;" horiz-adv-x="565" 
d="M425 535c28.667 0 53.334 -4.16602 74.001 -12.499s37.667 -20 51 -35s23.333 -32.833 30 -53.5s10 -43 10 -67c0 -28 -3.33301 -55.667 -10 -83l-68 -284h-149l66 278c2.66699 11.333 5.16699 23.333 7.5 36s3.5 24.667 3.5 36c0 17.333 -4.5 32.166 -13.5 44.499
s-26.167 18.5 -51.5 18.5c-10.667 0 -20.834 -0.666992 -30.501 -2s-19.167 -3 -28.5 -5l-97 -406h-149l180 752l155 24l-61 -251c13.333 2.66699 26.833 5 40.5 7s27.167 3 40.5 3zM547 839.001l-50 -47l-81 63l-106 -63l-38 54l155 116z" />
    <glyph glyph-name="Hbar" unicode="&#x126;" horiz-adv-x="714" 
d="M141 612h80l20 81h156l-20 -81h246l20 81h156l-20 -81h78l-26 -110h-78l-121 -502h-156l71 295h-246l-71 -295h-155l120 502h-80zM597 502h-246l-18 -75h246z" />
    <glyph glyph-name="hbar" unicode="&#x127;" horiz-adv-x="565" 
d="M423 523c27.333 0 51.333 -4.33398 72 -13.001s37.834 -20.834 51.501 -36.501s24 -34 31 -55s10.5 -43.833 10.5 -68.5c0 -12 -0.833008 -24.667 -2.5 -38s-4.16699 -26.666 -7.5 -39.999l-66 -272h-149l64 266c2 9.33301 4.16699 19.833 6.5 31.5s3.5 23.167 3.5 34.5
c0 18.667 -4.33301 34.834 -13 48.501s-25.667 20.5 -51 20.5c-10.667 0 -20.834 -0.666992 -30.501 -2s-19.167 -3 -28.5 -5l-95 -394h-149l142 596h-62l23 93h62l15 63l155 24l-21 -87h143l-23 -93h-142l-20 -83c13.333 2.66699 26.833 5 40.5 7s27.167 3 40.5 3z" />
    <glyph glyph-name="Itilde" unicode="&#x128;" horiz-adv-x="312" 
d="M241 693h156l-167 -693h-155zM403 770c-12.667 0 -24 1.83301 -34 5.5s-19.333 7.66699 -28 12s-17 8.33301 -25 12s-16 5.5 -24 5.5c-9.33301 0 -17.833 -2.66699 -25.5 -8s-17.167 -16.333 -28.5 -33l-67 41c15.333 36 33.666 62.833 54.999 80.5s47.333 26.5 78 26.5
c12.667 0 24 -1.83301 34 -5.5s19.333 -7.66699 28 -12s17 -8.33301 25 -12s16 -5.5 24 -5.5c9.33301 0 17.833 2.66699 25.5 8s17.167 16.333 28.5 33l67 -41c-15.333 -36 -33.666 -62.833 -54.999 -80.5s-47.333 -26.5 -78 -26.5z" />
    <glyph glyph-name="itilde" unicode="&#x129;" horiz-adv-x="283" 
d="M218 0h-148l125 526h149zM354 607c-12.667 0 -24 1.83301 -34 5.5s-19.333 7.66699 -28 12s-17 8.33301 -25 12s-16 5.5 -24 5.5c-9.33301 0 -17.833 -2.66699 -25.5 -8s-17.167 -16.333 -28.5 -33l-67 41c15.333 36 33.666 62.833 54.999 80.5s47.333 26.5 78 26.5
c12.667 0 24 -1.83301 34 -5.5s19.333 -7.66699 28 -12s17 -8.33301 25 -12s16 -5.5 24 -5.5c9.33301 0 17.833 2.66699 25.5 8s17.167 16.333 28.5 33l67 -41c-15.333 -36 -33.666 -62.833 -54.999 -80.5s-47.333 -26.5 -78 -26.5z" />
    <glyph glyph-name="Imacron" unicode="&#x12a;" horiz-adv-x="312" 
d="M241 693h156l-167 -693h-155zM207 878h322l-25 -102h-322z" />
    <glyph glyph-name="imacron" unicode="&#x12b;" horiz-adv-x="283" 
d="M218 0h-148l125 526h149zM158 725h322l-25 -102h-322z" />
    <glyph glyph-name="Ibreve" unicode="&#x12c;" horiz-adv-x="312" 
d="M241 693h156l-167 -693h-155zM310 917c-0.666992 -3.33301 -1.16699 -6.66699 -1.5 -10s-0.5 -6.66602 -0.5 -9.99902c0 -16 3.5 -28.5 10.5 -37.5s18.833 -13.5 35.5 -13.5c16 0 30.167 6 42.5 18s20.5 29.667 24.5 53h102c-2 -28 -8.66699 -52.333 -20 -73
s-25.333 -37.834 -42 -51.501s-35.167 -24 -55.5 -31s-40.833 -10.5 -61.5 -10.5c-18 0 -35.333 2.66699 -52 8s-31.5 13.5 -44.5 24.5s-23.333 24.833 -31 41.5s-11.5 36 -11.5 58c0 12.667 1.33301 24 4 34h101z" />
    <glyph glyph-name="ibreve" unicode="&#x12d;" horiz-adv-x="283" 
d="M218 0h-148l125 526h149zM260 764c-0.666992 -3.33301 -1.16699 -6.66699 -1.5 -10s-0.5 -6.66602 -0.5 -9.99902c0 -16 3.5 -28.5 10.5 -37.5s18.833 -13.5 35.5 -13.5c16 0 30.167 6 42.5 18s20.5 29.667 24.5 53h102c-2 -28 -8.66699 -52.333 -20 -73
s-25.333 -37.834 -42 -51.501s-35.167 -24 -55.5 -31s-40.833 -10.5 -61.5 -10.5c-18 0 -35.333 2.66699 -52 8s-31.5 13.5 -44.5 24.5s-23.333 24.833 -31 41.5s-11.5 36 -11.5 58c0 12.667 1.33301 24 4 34h101z" />
    <glyph glyph-name="Iogonek" unicode="&#x12e;" horiz-adv-x="312" 
d="M241 693l155.998 -0.000976562l-167 -693h-1c-9.33301 -6.66699 -19.666 -14 -30.999 -22s-21.666 -16.333 -30.999 -25s-17.166 -17.167 -23.499 -25.5s-9.5 -16.166 -9.5 -23.499c0 -5.33301 1.83301 -9.5 5.5 -12.5s10.167 -4.5 19.5 -4.5c6 0 13.333 0.5 22 1.5
s19 3.16699 31 6.5l-12 -100c-14 -5.33301 -30.833 -9.33301 -50.5 -12s-37.167 -4 -52.5 -4c-32 0 -56.667 7.16699 -74 21.5s-26 32.833 -26 55.5c0 14 3.33301 27.667 10 41s15.167 26 25.5 38s22.166 23.5 35.499 34.5s27 21.167 41 30.5h-34z" />
    <glyph glyph-name="iogonek" unicode="&#x12f;" horiz-adv-x="283" 
d="M218 0c-9.33301 -6.66699 -19.668 -14.1699 -31.001 -22.5029s-21.666 -16.666 -30.999 -24.999s-17.166 -16.666 -23.499 -24.999s-9.5 -16.166 -9.5 -23.499c0 -5.33301 1.83301 -9.5 5.5 -12.5s10.167 -4.5 19.5 -4.5c6 0 13.333 0.5 22 1.5s19 3.16699 31 6.5
l-12 -100c-14 -5.33301 -30.833 -9.33301 -50.5 -12s-37.167 -4 -52.5 -4c-32 0 -56.667 7.16699 -74 21.5s-26 32.833 -26 55.5c0 14 3.33301 27.667 10 41s15.167 26 25.5 38s22.166 23.5 35.499 34.5s27 21.167 41 30.5h-28l125 526h149zM289.998 589.997
c-20.667 0 -39.334 6.16699 -56.001 18.5s-25 31.166 -25 56.499c0 14 2.83301 27.167 8.5 39.5s13.167 23 22.5 32s20.166 16.167 32.499 21.5s25.5 8 39.5 8c20.667 0 39.334 -6.16699 56.001 -18.5s25 -31.166 25 -56.499c0 -14 -2.83301 -27.167 -8.5 -39.5
s-13.167 -23 -22.5 -32s-20.166 -16.167 -32.499 -21.5s-25.5 -8 -39.5 -8z" />
    <glyph glyph-name="Idotaccent" unicode="&#x130;" horiz-adv-x="312" 
d="M241 693h156l-167 -693h-155zM341 760c-20.667 0 -37.668 6.00098 -51.001 18.001s-20 28.667 -20 50c0 28 8.83301 49.667 26.5 65s37.5 23 59.5 23c20 0 37 -6 51 -18s21 -29 21 -51c0 -13.333 -2.5 -25.333 -7.5 -36s-11.667 -19.834 -20 -27.501
s-17.666 -13.5 -27.999 -17.5s-20.833 -6 -31.5 -6z" />
    <glyph glyph-name="dotlessi" unicode="&#x131;" horiz-adv-x="283" 
d="M218 0h-148l125 526h149z" />
    <glyph glyph-name="IJ" unicode="&#x132;" horiz-adv-x="841" 
d="M241 693h156l-167 -693h-155zM810 210c-8 -34 -18.6699 -64.832 -32.0029 -92.499s-30.666 -51.334 -51.999 -71.001s-47.666 -34.667 -78.999 -45s-69.333 -15.5 -114 -15.5c-36 0 -70.167 5.5 -102.5 16.5s-60.833 25.833 -85.5 44.5l69 116
c16 -11.333 33.5 -21.333 52.5 -30s41.5 -13 67.5 -13c18.667 0 34.834 2.16699 48.501 6.5s25.5 11.333 35.5 21s18.5 22.167 25.5 37.5s13.167 34 18.5 56l108 452h156z" />
    <glyph glyph-name="ij" unicode="&#x133;" horiz-adv-x="588" 
d="M218 0h-148l125 526h149zM290 590c-20.667 0 -39.334 6.16699 -56.001 18.5s-25 31.166 -25 56.499c0 14 2.83301 27.167 8.5 39.5s13.167 23 22.5 32s20.166 16.167 32.499 21.5s25.5 8 39.5 8c20.667 0 39.334 -6.16699 56.001 -18.5s25 -31.166 25 -56.499
c0 -14 -2.83301 -27.167 -8.5 -39.5s-13.167 -23 -22.5 -32s-20.166 -16.167 -32.499 -21.5s-25.5 -8 -39.5 -8zM311 -185c-18.667 0 -37.167 1.83203 -55.5 5.49902s-34.833 8.16699 -49.5 13.5l38 118c9.33301 -3.33301 18.5 -6 27.5 -8s19.167 -3 30.5 -3
c23.333 0 41.333 7 54 21s21.667 34.333 27 61l121 503h149l-122 -507c-16 -69.333 -41 -120.666 -75 -153.999s-82.333 -50 -145 -50zM599 589.999c-20.667 0 -39.334 6.16699 -56.001 18.5s-25 31.166 -25 56.499c0 14 2.83301 27.167 8.5 39.5s13.167 23 22.5 32
s20.166 16.167 32.499 21.5s25.5 8 39.5 8c20.667 0 39.334 -6.16699 56.001 -18.5s25 -31.166 25 -56.499c0 -14 -2.83301 -27.167 -8.5 -39.5s-13.167 -23 -22.5 -32s-20.166 -16.167 -32.499 -21.5s-25.5 -8 -39.5 -8z" />
    <glyph glyph-name="Jcircumflex" unicode="&#x134;" horiz-adv-x="516" 
d="M485 210c-8 -34 -18.6699 -64.832 -32.0029 -92.499s-30.666 -51.334 -51.999 -71.001s-47.666 -34.667 -78.999 -45s-69.333 -15.5 -114 -15.5c-36 0 -70.167 5.5 -102.5 16.5s-60.833 25.833 -85.5 44.5l69 116c16 -11.333 33.5 -21.333 52.5 -30s41.5 -13 67.5 -13
c18.667 0 34.834 2.16699 48.501 6.5s25.5 11.333 35.5 21s18.5 22.167 25.5 37.5s13.167 34 18.5 56l108 452h156zM690.997 795.001l-60 -53l-83 78l-113 -76l-46 61l179 145z" />
    <glyph glyph-name="jcircumflex" unicode="&#x135;" horiz-adv-x="290" 
d="M15 -185c-18.667 0 -37.167 1.83203 -55.5 5.49902s-34.833 8.16699 -49.5 13.5l38 118c9.33301 -3.33301 18.5 -6 27.5 -8s19.167 -3 30.5 -3c23.333 0 41.333 7 54 21s21.667 34.333 27 61l121 503h149l-122 -507c-16 -69.333 -41 -120.666 -75 -153.999
s-82.333 -50 -145 -50zM447 628.999l-60 -53l-83 78l-113 -76l-46 61l179 145z" />
    <glyph glyph-name="Kcommaaccent" unicode="&#x136;" horiz-adv-x="662" 
d="M409 -50c-3.33301 -31.333 -9.99902 -57.665 -19.999 -78.998s-22.167 -38.333 -36.5 -51s-30.5 -21.667 -48.5 -27s-37 -8 -57 -8c-18 0 -37 2.66699 -57 8l21 79c2.66699 -0.666992 5.16699 -1 7.5 -1h6.5c12.667 0 23 2.16699 31 6.5s14.167 10.166 18.5 17.499
s7.66602 15.666 9.99902 24.999s4.5 19.333 6.5 30h118zM483.001 0.000976562c-9.33301 22.667 -20.5 47.002 -33.5 73.002s-27.333 52 -43 78s-32.5 51 -50.5 75s-36.333 45.333 -55 64l-71 -290h-155l166 693h156l-61 -250c52 44.667 101 87.5 147 128.5
s89 81.5 129 121.5h185c-60.667 -56.667 -120.834 -112.834 -180.501 -168.501s-122.5 -109.834 -188.5 -162.501c42 -46 82.333 -98.667 121 -158s73.334 -127.333 104.001 -204h-170z" />
    <glyph glyph-name="kcommaaccent" unicode="&#x137;" horiz-adv-x="561" 
d="M358 -50c-3.33301 -31.333 -9.99902 -57.665 -19.999 -78.998s-22.167 -38.333 -36.5 -51s-30.5 -21.667 -48.5 -27s-37 -8 -57 -8c-18 0 -37 2.66699 -57 8l21 79c2.66699 -0.666992 5.16699 -1 7.5 -1h6.5c12.667 0 23 2.16699 31 6.5s14.167 10.166 18.5 17.499
s7.66602 15.666 9.99902 24.999s4.5 19.333 6.5 30h118zM299.001 336.001c40 32 77.667 64.6709 113 98.0039s65.666 64 90.999 92h168c-37.333 -41.333 -76.166 -81.833 -116.499 -121.5s-86.5 -81.834 -138.5 -126.501c14 -17.333 28.167 -37.333 42.5 -60
s28 -46.334 41 -71.001s25 -49.667 36 -75s20.167 -49.333 27.5 -72h-166c-6 17.333 -13.5 36.333 -22.5 57s-19 41.167 -30 61.5s-22.5 40.166 -34.5 59.499s-24 36.666 -36 51.999l-56 -230h-148l180 752l155 24z" />
    <glyph glyph-name="kgreenlandic" unicode="&#x138;" horiz-adv-x="574" 
d="M299 336c18 16 36.3311 32.6699 54.998 50.0029s36.667 34.333 54 51s33.833 32.667 49.5 48s29.5 29 41.5 41h180c-37.333 -41.333 -76.666 -82 -117.999 -122s-89.666 -82 -144.999 -126c14 -17.333 28.167 -37.333 42.5 -60s28 -46.334 41 -71.001s25 -49.667 36 -75
s20.167 -49.333 27.5 -72h-166c-6 17.333 -13.5 36.333 -22.5 57s-19 41.167 -30 61.5s-22.5 40.166 -34.5 59.499s-24 36.666 -36 51.999l-56 -230h-148l126 526h149z" />
    <glyph glyph-name="Lacute" unicode="&#x139;" horiz-adv-x="564" 
d="M569 132l-32 -132h-462l166 693h156l-135 -561h307zM497 872l-177 -136l-60 62l160 161z" />
    <glyph glyph-name="lacute" unicode="&#x13a;" horiz-adv-x="315" 
d="M288 -10c-47.333 0 -84.498 6.16895 -111.498 18.502s-46.333 29.166 -58 50.499s-17.334 45.833 -17.001 73.5s4.16602 57.167 11.499 88.5l127 531l155 24l-139 -576c-2.66699 -12 -4.16699 -23 -4.5 -33s1.5 -18.833 5.5 -26.5s10.833 -13.834 20.5 -18.501
s23.167 -7.66699 40.5 -9zM489.002 859.002l-228 -67l-18 65l218 105z" />
    <glyph glyph-name="Lcommaaccent" unicode="&#x13b;" horiz-adv-x="564" 
d="M393 -50c-3.33301 -31.333 -9.99902 -57.665 -19.999 -78.998s-22.167 -38.333 -36.5 -51s-30.5 -21.667 -48.5 -27s-37 -8 -57 -8c-18 0 -37 2.66699 -57 8l21 79c2.66699 -0.666992 5.16699 -1 7.5 -1h6.5c12.667 0 23 2.16699 31 6.5s14.167 10.166 18.5 17.499
s7.66602 15.666 9.99902 24.999s4.5 19.333 6.5 30h118zM569.001 132.001l-32 -132h-462l166 693h156l-135 -561h307z" />
    <glyph glyph-name="lcommaaccent" unicode="&#x13c;" horiz-adv-x="315" 
d="M263 -50c-3.33301 -31.333 -9.99902 -57.665 -19.999 -78.998s-22.167 -38.333 -36.5 -51s-30.5 -21.667 -48.5 -27s-37 -8 -57 -8c-18 0 -37 2.66699 -57 8l21 79c2.66699 -0.666992 5.16699 -1 7.5 -1h6.5c12.667 0 23 2.16699 31 6.5s14.167 10.166 18.5 17.499
s7.66602 15.666 9.99902 24.999s4.5 19.333 6.5 30h118zM288.001 -9.99902c-47.333 0 -84.498 6.16895 -111.498 18.502s-46.333 29.166 -58 50.499s-17.334 45.833 -17.001 73.5s4.16602 57.167 11.499 88.5l127 531l155 24l-139 -576c-2.66699 -12 -4.16699 -23 -4.5 -33
s1.5 -18.833 5.5 -26.5s10.833 -13.834 20.5 -18.501s23.167 -7.66699 40.5 -9z" />
    <glyph glyph-name="Lcaron" unicode="&#x13d;" horiz-adv-x="564" 
d="M569 132l-32 -132h-462l166 693h156l-135 -561h307zM605 695l-93 -244h-88l55 244h126z" />
    <glyph glyph-name="lcaron" unicode="&#x13e;" horiz-adv-x="331" 
d="M270 -10c-47.333 0 -84.498 6.16895 -111.498 18.502s-46.333 29.166 -58 50.499s-17.334 45.833 -17.001 73.5s4.16602 57.167 11.499 88.5l127 531l155 24l-139 -576c-2.66699 -12 -4.16699 -23 -4.5 -33s1.5 -18.833 5.5 -26.5s10.833 -13.834 20.5 -18.501
s23.167 -7.66699 40.5 -9zM571.002 776.002l-93 -244h-88l55 244h126z" />
    <glyph glyph-name="Ldot" unicode="&#x13f;" horiz-adv-x="564" 
d="M569 132l-32 -132h-462l166 693h156l-135 -561h307zM542 495c23.333 0 42.833 -6.5 58.5 -19.5s23.5 -33.5 23.5 -61.5c0 -15.333 -2.83301 -29.333 -8.5 -42s-13.167 -23.5 -22.5 -32.5s-20 -16 -32 -21s-24.333 -7.5 -37 -7.5c-23.333 0 -42.833 6.5 -58.5 19.5
s-23.5 33.5 -23.5 61.5c0 15.333 2.83301 29.333 8.5 42s13.167 23.5 22.5 32.5s20 16 32 21s24.333 7.5 37 7.5z" />
    <glyph glyph-name="ldot" unicode="&#x140;" horiz-adv-x="501" 
d="M270 -10c-47.333 0 -84.498 6.16895 -111.498 18.502s-46.333 29.166 -58 50.499s-17.334 45.833 -17.001 73.5s4.16602 57.167 11.499 88.5l127 531l155 24l-139 -576c-2.66699 -12 -4.16699 -23 -4.5 -33s1.5 -18.833 5.5 -26.5s10.833 -13.834 20.5 -18.501
s23.167 -7.66699 40.5 -9zM489.002 504.002c23.333 0 42.833 -6.5 58.5 -19.5s23.5 -33.5 23.5 -61.5c0 -15.333 -2.83301 -29.333 -8.5 -42s-13.167 -23.5 -22.5 -32.5s-20 -16 -32 -21s-24.333 -7.5 -37 -7.5c-23.333 0 -42.833 6.5 -58.5 19.5s-23.5 33.5 -23.5 61.5
c0 15.333 2.83301 29.333 8.5 42s13.167 23.5 22.5 32.5s20 16 32 21s24.333 7.5 37 7.5z" />
    <glyph glyph-name="Lslash" unicode="&#x141;" horiz-adv-x="564" 
d="M569 132l-32 -132h-462l61 256l-74 -33l-24 101l128 58l75 311h156l-56 -233l132 60l25 -101l-187 -84l-49 -203h307z" />
    <glyph glyph-name="lslash" unicode="&#x142;" horiz-adv-x="315" 
d="M268 -10c-47.333 0 -84.498 6.16895 -111.498 18.502s-46.333 29.166 -58 50.499s-17.334 45.833 -17.001 73.5s4.16602 57.167 11.499 88.5l24 101l-47 -21l-22 92l96 43l76 316l155 24l-64 -266l102 46l22 -92l-152 -68l-47 -196c-2.66699 -12 -4.16699 -23 -4.5 -33
s1.5 -18.833 5.5 -26.5s10.833 -13.834 20.5 -18.501s23.167 -7.66699 40.5 -9z" />
    <glyph glyph-name="Nacute" unicode="&#x143;" horiz-adv-x="742" 
d="M543 0c-28 78.667 -59.1699 157.336 -93.5029 236.003s-71.5 153 -111.5 223l-110 -459h-153l166 693h119c15.333 -23.333 31.833 -50.833 49.5 -82.5s35.834 -65.834 54.501 -102.501s37.334 -74.834 56.001 -114.501s36.334 -78.834 53.001 -117.501l99 417h155
l-167 -693h-117zM691.997 872.002l-177 -136l-60 62l160 161z" />
    <glyph glyph-name="nacute" unicode="&#x144;" horiz-adv-x="567" 
d="M191 502c11.333 3.33301 23.835 7.16895 37.502 11.502s29 8.33301 46 12s36 6.66699 57 9s44.833 3.5 71.5 3.5c78.667 0 132.667 -22.667 162 -68s34.333 -107.333 15 -186l-68 -284h-149l66 278c4 17.333 7.16699 34.166 9.5 50.499s2.16602 30.666 -0.500977 42.999
s-8.83398 22.333 -18.501 30s-24.5 11.5 -44.5 11.5c-19.333 0 -39 -2 -59 -6l-97 -407h-149zM579.002 712.003l-177 -136l-60 62l160 161z" />
    <glyph glyph-name="Ncommaaccent" unicode="&#x145;" horiz-adv-x="742" 
d="M438 -50c-3.33301 -31.333 -9.99902 -57.665 -19.999 -78.998s-22.167 -38.333 -36.5 -51s-30.5 -21.667 -48.5 -27s-37 -8 -57 -8c-18 0 -37 2.66699 -57 8l21 79c2.66699 -0.666992 5.16699 -1 7.5 -1h6.5c12.667 0 23 2.16699 31 6.5s14.167 10.166 18.5 17.499
s7.66602 15.666 9.99902 24.999s4.5 19.333 6.5 30h118zM543.001 0.000976562c-28 78.667 -59.1699 157.336 -93.5029 236.003s-71.5 153 -111.5 223l-110 -459h-153l166 693h119c15.333 -23.333 31.833 -50.833 49.5 -82.5s35.834 -65.834 54.501 -102.501
s37.334 -74.834 56.001 -114.501s36.334 -78.834 53.001 -117.501l99 417h155l-167 -693h-117z" />
    <glyph glyph-name="ncommaaccent" unicode="&#x146;" horiz-adv-x="567" 
d="M337 -50c-3.33301 -31.333 -9.99902 -57.665 -19.999 -78.998s-22.167 -38.333 -36.5 -51s-30.5 -21.667 -48.5 -27s-37 -8 -57 -8c-18 0 -37 2.66699 -57 8l21 79c2.66699 -0.666992 5.16699 -1 7.5 -1h6.5c12.667 0 23 2.16699 31 6.5s14.167 10.166 18.5 17.499
s7.66602 15.666 9.99902 24.999s4.5 19.333 6.5 30h118zM191.001 502.001c11.333 3.33301 23.835 7.16895 37.502 11.502s29 8.33301 46 12s36 6.66699 57 9s44.833 3.5 71.5 3.5c78.667 0 132.667 -22.667 162 -68s34.333 -107.333 15 -186l-68 -284h-149l66 278
c4 17.333 7.16699 34.166 9.5 50.499s2.16602 30.666 -0.500977 42.999s-8.83398 22.333 -18.501 30s-24.5 11.5 -44.5 11.5c-19.333 0 -39 -2 -59 -6l-97 -407h-149z" />
    <glyph glyph-name="Ncaron" unicode="&#x147;" horiz-adv-x="742" 
d="M543 0c-28 78.667 -59.1699 157.336 -93.5029 236.003s-71.5 153 -111.5 223l-110 -459h-153l166 693h119c15.333 -23.333 31.833 -50.833 49.5 -82.5s35.834 -65.834 54.501 -102.501s37.334 -74.834 56.001 -114.501s36.334 -78.834 53.001 -117.501l99 417h155
l-167 -693h-117zM400.997 901.002l60 53l83 -78l113 76l46 -61l-179 -145z" />
    <glyph glyph-name="ncaron" unicode="&#x148;" horiz-adv-x="567" 
d="M191 502c11.333 3.33301 23.835 7.16895 37.502 11.502s29 8.33301 46 12s36 6.66699 57 9s44.833 3.5 71.5 3.5c78.667 0 132.667 -22.667 162 -68s34.333 -107.333 15 -186l-68 -284h-149l66 278c4 17.333 7.16699 34.166 9.5 50.499s2.16602 30.666 -0.500977 42.999
s-8.83398 22.333 -18.501 30s-24.5 11.5 -44.5 11.5c-19.333 0 -39 -2 -59 -6l-97 -407h-149zM292.002 740.003l60 53l83 -78l113 76l46 -61l-179 -145z" />
    <glyph glyph-name="napostrophe" unicode="&#x149;" horiz-adv-x="603" 
d="M229 502c11.333 3.33301 23.835 7.16895 37.502 11.502s29 8.33301 46 12s36 6.66699 57 9s44.833 3.5 71.5 3.5c78.667 0 132.667 -22.667 162 -68s34.333 -107.333 15 -186l-68 -284h-149l66 278c4 17.333 7.16699 34.166 9.5 50.499s2.16602 30.666 -0.500977 42.999
s-8.83398 22.333 -18.501 30s-24.5 11.5 -44.5 11.5c-19.333 0 -39 -2 -59 -6l-97 -407h-149zM286.002 776.003c-6.66699 -27.333 -13.667 -50.833 -21 -70.5s-15.333 -37.667 -24 -54s-18.667 -32.333 -30 -48s-24.333 -32.5 -39 -50.5l-89 31
c11.333 18 21.166 34.667 29.499 50s15.333 30.5 21 45.5s10.334 30.333 14.001 46s6.5 32.5 8.5 50.5h130z" />
    <glyph glyph-name="Eng" unicode="&#x14a;" horiz-adv-x="742" 
d="M522 57c-26 70 -54.499 139.331 -85.499 207.998s-63.833 133.334 -98.5 194.001l-110 -459h-153l166 693h119c18.667 -31.333 37.667 -64.5 57 -99.5s38.166 -70.5 56.499 -106.5s36 -72 53 -108s32.5 -70.333 46.5 -103l99 417h155l-162 -676
c-15.333 -63.333 -40 -113.166 -74 -149.499s-80 -54.5 -138 -54.5c-15.333 0 -31.5 1.33301 -48.5 4s-35.167 7 -54.5 13l47 118c16 -6 30 -9 42 -9c24 0 41.667 10.5 53 31.5s21.333 49.833 30 86.5z" />
    <glyph glyph-name="eng" unicode="&#x14b;" horiz-adv-x="567" 
d="M191 502c11.333 3.33301 23.8359 7.16895 37.5029 11.502s29 8.33301 46 12s36 6.66699 57 9s44.833 3.5 71.5 3.5c78.667 0 132.667 -22.667 162 -68s34.333 -107.333 15 -186l-75 -314c-7.33301 -31.333 -17.833 -57 -31.5 -77s-29.167 -36 -46.5 -48
s-35.833 -20.333 -55.5 -25s-39.5 -7 -59.5 -7c-19.333 0 -37.833 1.66699 -55.5 5s-33.5 7.33301 -47.5 12l38 107c18.667 -7.33301 34.667 -11 48 -11c15.333 0 28.666 5.16699 39.999 15.5s20.333 28.5 27 54.5l67 282c4 17.333 7.16699 34.166 9.5 50.499
s2.16602 30.666 -0.500977 42.999s-8.83398 22.333 -18.501 30s-24.5 11.5 -44.5 11.5c-19.333 0 -39 -2 -59 -6l-97 -407h-149z" />
    <glyph glyph-name="Omacron" unicode="&#x14c;" horiz-adv-x="757" 
d="M500 575c-30.667 0 -59.167 -7.99707 -85.5 -23.9971s-49.333 -37.333 -69 -64s-35 -57.334 -46 -92.001s-16.5 -70.334 -16.5 -107.001c0 -50 10.5 -90.5 31.5 -121.5s55.167 -46.5 102.5 -46.5c30.667 0 59.167 8 85.5 24s49.333 37.333 69 64s35 57.167 46 91.5
s16.5 70.166 16.5 107.499c0 50 -10.5 90.5 -31.5 121.5s-55.167 46.5 -102.5 46.5zM401 -13.9971c-40.667 0 -77.999 6.66699 -111.999 20s-63.333 32.5 -88 57.5s-43.834 55.5 -57.501 91.5s-20.5 76.667 -20.5 122c0 52 9 103.667 27 155s43.833 97.5 77.5 138.5
s74.834 74.333 123.501 100s103.667 38.5 165 38.5c40.667 0 78 -6.66699 112 -20s63.333 -32.5 88 -57.5s43.834 -55.5 57.501 -91.5s20.5 -76.667 20.5 -122c0 -52 -8.83301 -103.833 -26.5 -155.5s-43.334 -98 -77.001 -139s-74.834 -74.167 -123.501 -99.5
s-104 -38 -166 -38zM395.001 878.003h322l-25 -102h-322z" />
    <glyph glyph-name="omacron" unicode="&#x14d;" horiz-adv-x="574" 
d="M308 -14c-35.333 0 -65.999 5.33301 -91.999 16s-47.5 25.667 -64.5 45s-29.833 42.166 -38.5 68.499s-13 55.5 -13 87.5c0 40 6.5 80 19.5 120s32.167 76 57.5 108s56.333 58.167 93 78.5s78.667 30.5 126 30.5c34.667 0 65.167 -5.33301 91.5 -16s48 -25.667 65 -45
s29.833 -42.166 38.5 -68.499s13 -55.5 13 -87.5c0 -40 -6.33301 -80 -19 -120s-31.334 -76 -56.001 -108s-55.5 -58.167 -92.5 -78.5s-79.833 -30.5 -128.5 -30.5zM382.001 414c-22 0 -41.333 -6.33301 -58 -19s-30.667 -28.667 -42 -48s-19.833 -40.5 -25.5 -63.5
s-8.5 -44.833 -8.5 -65.5c0 -34 5.33301 -60.167 16 -78.5s30 -27.5 58 -27.5c22 0 41.333 6.33301 58 19s30.667 28.667 42 48s19.833 40.5 25.5 63.5s8.5 44.833 8.5 65.5c0 34 -5.33301 60.167 -16 78.5s-30 27.5 -58 27.5zM278.001 725h322l-25 -102h-322z" />
    <glyph glyph-name="Obreve" unicode="&#x14e;" horiz-adv-x="757" 
d="M500 575c-30.667 0 -59.167 -7.99707 -85.5 -23.9971s-49.333 -37.333 -69 -64s-35 -57.334 -46 -92.001s-16.5 -70.334 -16.5 -107.001c0 -50 10.5 -90.5 31.5 -121.5s55.167 -46.5 102.5 -46.5c30.667 0 59.167 8 85.5 24s49.333 37.333 69 64s35 57.167 46 91.5
s16.5 70.166 16.5 107.499c0 50 -10.5 90.5 -31.5 121.5s-55.167 46.5 -102.5 46.5zM401 -13.9971c-40.667 0 -77.999 6.66699 -111.999 20s-63.333 32.5 -88 57.5s-43.834 55.5 -57.501 91.5s-20.5 76.667 -20.5 122c0 52 9 103.667 27 155s43.833 97.5 77.5 138.5
s74.834 74.333 123.501 100s103.667 38.5 165 38.5c40.667 0 78 -6.66699 112 -20s63.333 -32.5 88 -57.5s43.834 -55.5 57.501 -91.5s20.5 -76.667 20.5 -122c0 -52 -8.83301 -103.833 -26.5 -155.5s-43.334 -98 -77.001 -139s-74.834 -74.167 -123.501 -99.5
s-104 -38 -166 -38zM494.001 917.003c-0.666992 -3.33301 -1.16699 -6.66699 -1.5 -10s-0.5 -6.66602 -0.5 -9.99902c0 -16 3.5 -28.5 10.5 -37.5s18.833 -13.5 35.5 -13.5c16 0 30.167 6 42.5 18s20.5 29.667 24.5 53h102c-2 -28 -8.66699 -52.333 -20 -73
s-25.333 -37.834 -42 -51.501s-35.167 -24 -55.5 -31s-40.833 -10.5 -61.5 -10.5c-18 0 -35.333 2.66699 -52 8s-31.5 13.5 -44.5 24.5s-23.333 24.833 -31 41.5s-11.5 36 -11.5 58c0 12.667 1.33301 24 4 34h101z" />
    <glyph glyph-name="obreve" unicode="&#x14f;" horiz-adv-x="574" 
d="M308 -14c-35.333 0 -65.999 5.33301 -91.999 16s-47.5 25.667 -64.5 45s-29.833 42.166 -38.5 68.499s-13 55.5 -13 87.5c0 40 6.5 80 19.5 120s32.167 76 57.5 108s56.333 58.167 93 78.5s78.667 30.5 126 30.5c34.667 0 65.167 -5.33301 91.5 -16s48 -25.667 65 -45
s29.833 -42.166 38.5 -68.499s13 -55.5 13 -87.5c0 -40 -6.33301 -80 -19 -120s-31.334 -76 -56.001 -108s-55.5 -58.167 -92.5 -78.5s-79.833 -30.5 -128.5 -30.5zM382.001 414c-22 0 -41.333 -6.33301 -58 -19s-30.667 -28.667 -42 -48s-19.833 -40.5 -25.5 -63.5
s-8.5 -44.833 -8.5 -65.5c0 -34 5.33301 -60.167 16 -78.5s30 -27.5 58 -27.5c22 0 41.333 6.33301 58 19s30.667 28.667 42 48s19.833 40.5 25.5 63.5s8.5 44.833 8.5 65.5c0 34 -5.33301 60.167 -16 78.5s-30 27.5 -58 27.5zM371.001 764
c-0.666992 -3.33301 -1.16699 -6.66699 -1.5 -10s-0.5 -6.66602 -0.5 -9.99902c0 -16 3.5 -28.5 10.5 -37.5s18.833 -13.5 35.5 -13.5c16 0 30.167 6 42.5 18s20.5 29.667 24.5 53h102c-2 -28 -8.66699 -52.333 -20 -73s-25.333 -37.834 -42 -51.501s-35.167 -24 -55.5 -31
s-40.833 -10.5 -61.5 -10.5c-18 0 -35.333 2.66699 -52 8s-31.5 13.5 -44.5 24.5s-23.333 24.833 -31 41.5s-11.5 36 -11.5 58c0 12.667 1.33301 24 4 34h101z" />
    <glyph glyph-name="Ohungarumlaut" unicode="&#x150;" horiz-adv-x="757" 
d="M500 575c-30.667 0 -59.167 -7.99707 -85.5 -23.9971s-49.333 -37.333 -69 -64s-35 -57.334 -46 -92.001s-16.5 -70.334 -16.5 -107.001c0 -50 10.5 -90.5 31.5 -121.5s55.167 -46.5 102.5 -46.5c30.667 0 59.167 8 85.5 24s49.333 37.333 69 64s35 57.167 46 91.5
s16.5 70.166 16.5 107.499c0 50 -10.5 90.5 -31.5 121.5s-55.167 46.5 -102.5 46.5zM401 -13.9971c-40.667 0 -77.999 6.66699 -111.999 20s-63.333 32.5 -88 57.5s-43.834 55.5 -57.501 91.5s-20.5 76.667 -20.5 122c0 52 9 103.667 27 155s43.833 97.5 77.5 138.5
s74.834 74.333 123.501 100s103.667 38.5 165 38.5c40.667 0 78 -6.66699 112 -20s63.333 -32.5 88 -57.5s43.834 -55.5 57.501 -91.5s20.5 -76.667 20.5 -122c0 -52 -8.83301 -103.833 -26.5 -155.5s-43.334 -98 -77.001 -139s-74.834 -74.167 -123.501 -99.5
s-104 -38 -166 -38zM571.001 875.003l-164 -136l-54 61l146 161zM774.001 875.003l-164 -136l-54 61l146 161z" />
    <glyph glyph-name="ohungarumlaut" unicode="&#x151;" horiz-adv-x="574" 
d="M308 -14c-35.333 0 -65.999 5.33301 -91.999 16s-47.5 25.667 -64.5 45s-29.833 42.166 -38.5 68.499s-13 55.5 -13 87.5c0 40 6.5 80 19.5 120s32.167 76 57.5 108s56.333 58.167 93 78.5s78.667 30.5 126 30.5c34.667 0 65.167 -5.33301 91.5 -16s48 -25.667 65 -45
s29.833 -42.166 38.5 -68.499s13 -55.5 13 -87.5c0 -40 -6.33301 -80 -19 -120s-31.334 -76 -56.001 -108s-55.5 -58.167 -92.5 -78.5s-79.833 -30.5 -128.5 -30.5zM382.001 414c-22 0 -41.333 -6.33301 -58 -19s-30.667 -28.667 -42 -48s-19.833 -40.5 -25.5 -63.5
s-8.5 -44.833 -8.5 -65.5c0 -34 5.33301 -60.167 16 -78.5s30 -27.5 58 -27.5c22 0 41.333 6.33301 58 19s30.667 28.667 42 48s19.833 40.5 25.5 63.5s8.5 44.833 8.5 65.5c0 34 -5.33301 60.167 -16 78.5s-30 27.5 -58 27.5zM470.001 713l-164 -136l-54 61l146 161z
M673.001 713l-164 -136l-54 61l146 161z" />
    <glyph glyph-name="OE" unicode="&#x152;" horiz-adv-x="985" 
d="M546 0c-17.333 -2.66699 -35.166 -4.66699 -53.499 -6s-36.833 -2 -55.5 -2c-39.333 0 -77.666 4.16699 -114.999 12.5s-70.833 23 -100.5 44s-53.5 49.667 -71.5 86s-27 82.833 -27 139.5c0 68 11.5 128.5 34.5 181.5s55.167 97.667 96.5 134
s90.166 63.833 146.499 82.5s118.166 28 185.499 28c17.333 0 36.5 -0.5 57.5 -1.5s40.5 -2.83301 58.5 -5.5h383l-32 -131h-285l-32 -136h250l-31 -128h-250l-40 -167h308l-32 -131h-395zM558 570c-47.333 0 -88.333 -8.83301 -123 -26.5s-63.5 -40.167 -86.5 -67.5
s-40 -58 -51 -92s-16.5 -67 -16.5 -99c0 -22 3.16699 -43 9.5 -63s16.166 -37.5 29.499 -52.5s30.333 -26.833 51 -35.5s45.334 -13 74.001 -13c21.333 0 44 2 68 6l105 439c-10.667 1.33301 -21 2.33301 -31 3s-19.667 1 -29 1z" />
    <glyph glyph-name="oe" unicode="&#x153;" horiz-adv-x="869" 
d="M308 -14c-34.667 0 -65 5.33203 -91 15.999s-47.667 25.5 -65 44.5s-30.333 41.5 -39 67.5s-13 54.667 -13 86c0 40 6.5 80.167 19.5 120.5s32.167 76.833 57.5 109.5s56.5 59.167 93.5 79.5s79.5 30.5 127.5 30.5c34 0 65.333 -7.16699 94 -21.5
s51.334 -35.833 68.001 -64.5c26.667 28 56 49.333 88 64s67.333 22 106 22c23.333 0 45 -3.33301 65 -10s37.5 -16.334 52.5 -29.001s26.667 -28.167 35 -46.5s12.5 -39.166 12.5 -62.499c0 -37.333 -8.33301 -69 -25 -95s-39.834 -47.167 -69.501 -63.5
s-64.834 -28.166 -105.501 -35.499s-85 -11 -133 -11c4.66699 -28 14.834 -47.833 30.501 -59.5s40.5 -17.5 74.5 -17.5c21.333 0 43 1.83301 65 5.5s42.667 9.16699 62 16.5l11 -117c-18.667 -7.33301 -42.5 -14 -71.5 -20s-60.5 -9 -94.5 -9
c-42 0 -77.333 7.83301 -106 23.5s-51.667 35.167 -69 58.5c-20 -23.333 -45.5 -42.833 -76.5 -58.5s-65.5 -23.5 -103.5 -23.5zM382 413.999c-22 0 -41.333 -6.33301 -58 -19s-30.667 -28.667 -42 -48s-19.833 -40.5 -25.5 -63.5s-8.5 -44.833 -8.5 -65.5
c0 -34 5.33301 -60.167 16 -78.5s30 -27.5 58 -27.5c22 0 41.333 6.33301 58 19s30.667 28.667 42 48s19.833 40.5 25.5 63.5s8.5 44.833 8.5 65.5c0 34 -5.33301 60.167 -16 78.5s-30 27.5 -58 27.5zM730 421.999c-34 0 -63.832 -12.166 -89.499 -36.499
s-42.5 -56.5 -50.5 -96.5c41.333 1.33301 74.666 4.83301 99.999 10.5s45 12.5 59 20.5s23.333 16.667 28 26s7 18.666 7 27.999c0 32 -18 48 -54 48z" />
    <glyph glyph-name="Racute" unicode="&#x154;" horiz-adv-x="656" 
d="M436 701c44.667 0 83.666 -5.33691 116.999 -16.0039s61 -25 83 -43s38.333 -39.167 49 -63.5s16 -49.833 16 -76.5c0 -22 -2.5 -43.667 -7.5 -65s-14.333 -41.666 -28 -60.999s-32 -37.166 -55 -53.499s-52.5 -30.166 -88.5 -41.499
c18.667 -34.667 37.834 -76.667 57.501 -126s38.167 -101 55.5 -155h-167c-15.333 46 -30.833 91.5 -46.5 136.5s-33.167 83.833 -52.5 116.5h-78l-61 -253h-155l163 683c36 6.66699 71 11.334 105 14.001s65 4 93 4zM430.999 568.996
c-11.333 0 -22.998 -0.331055 -34.998 -0.998047s-22 -1.33398 -30 -2.00098l-45 -190h53c32 0 59 3 81 9s39.667 14 53 24s22.833 21.5 28.5 34.5s8.5 26.167 8.5 39.5c0 11.333 -1.66699 22.166 -5 32.499s-9.33301 19.5 -18 27.5s-20.334 14.333 -35.001 19
s-33.334 7 -56.001 7zM613.001 871.998l-177 -136l-60 62l160 161z" />
    <glyph glyph-name="racute" unicode="&#x155;" horiz-adv-x="426" 
d="M472 398c-13.333 3.33301 -26.5029 6.50098 -39.5029 9.50098s-32.167 4.5 -57.5 4.5c-9.33301 0 -19.666 -0.833008 -30.999 -2.5s-20.666 -3.5 -27.999 -5.5l-97 -404h-149l120 498c28.667 9.33301 60.834 18.166 96.501 26.499s75.834 12.5 120.501 12.5
c16.667 0 35.167 -1.5 55.5 -4.5s38.166 -7.83301 53.499 -14.5zM522.997 712.001l-177 -136l-60 62l160 161z" />
    <glyph glyph-name="Rcommaaccent" unicode="&#x156;" horiz-adv-x="656" 
d="M436 701c44.667 0 83.666 -5.33691 116.999 -16.0039s61 -25 83 -43s38.333 -39.167 49 -63.5s16 -49.833 16 -76.5c0 -22 -2.5 -43.667 -7.5 -65s-14.333 -41.666 -28 -60.999s-32 -37.166 -55 -53.499s-52.5 -30.166 -88.5 -41.499
c18.667 -34.667 37.834 -76.667 57.501 -126s38.167 -101 55.5 -155h-167c-15.333 46 -30.833 91.5 -46.5 136.5s-33.167 83.833 -52.5 116.5h-78l-61 -253h-155l163 683c36 6.66699 71 11.334 105 14.001s65 4 93 4zM430.999 568.996
c-11.333 0 -22.998 -0.331055 -34.998 -0.998047s-22 -1.33398 -30 -2.00098l-45 -190h53c32 0 59 3 81 9s39.667 14 53 24s22.833 21.5 28.5 34.5s8.5 26.167 8.5 39.5c0 11.333 -1.66699 22.166 -5 32.499s-9.33301 19.5 -18 27.5s-20.334 14.333 -35.001 19
s-33.334 7 -56.001 7zM395.001 -50.002c-3.33301 -31.333 -9.99902 -57.665 -19.999 -78.998s-22.167 -38.333 -36.5 -51s-30.5 -21.667 -48.5 -27s-37 -8 -57 -8c-18 0 -37 2.66699 -57 8l21 79c2.66699 -0.666992 5.16699 -1 7.5 -1h6.5c12.667 0 23 2.16699 31 6.5
s14.167 10.166 18.5 17.499s7.66602 15.666 9.99902 24.999s4.5 19.333 6.5 30h118z" />
    <glyph glyph-name="rcommaaccent" unicode="&#x157;" horiz-adv-x="426" 
d="M189 -50c-3.33301 -31.333 -9.99902 -57.665 -19.999 -78.998s-22.167 -38.333 -36.5 -51s-30.5 -21.667 -48.5 -27s-37 -8 -57 -8c-18 0 -37 2.66699 -57 8l21 79c2.66699 -0.666992 5.16699 -1 7.5 -1h6.5c12.667 0 23 2.16699 31 6.5s14.167 10.166 18.5 17.499
s7.66602 15.666 9.99902 24.999s4.5 19.333 6.5 30h118zM472.001 398.001c-13.333 3.33301 -26.5029 6.50098 -39.5029 9.50098s-32.167 4.5 -57.5 4.5c-9.33301 0 -19.666 -0.833008 -30.999 -2.5s-20.666 -3.5 -27.999 -5.5l-97 -404h-149l120 498
c28.667 9.33301 60.834 18.166 96.501 26.499s75.834 12.5 120.501 12.5c16.667 0 35.167 -1.5 55.5 -4.5s38.166 -7.83301 53.499 -14.5z" />
    <glyph glyph-name="Rcaron" unicode="&#x158;" horiz-adv-x="656" 
d="M436 701c44.667 0 83.666 -5.33691 116.999 -16.0039s61 -25 83 -43s38.333 -39.167 49 -63.5s16 -49.833 16 -76.5c0 -22 -2.5 -43.667 -7.5 -65s-14.333 -41.666 -28 -60.999s-32 -37.166 -55 -53.499s-52.5 -30.166 -88.5 -41.499
c18.667 -34.667 37.834 -76.667 57.501 -126s38.167 -101 55.5 -155h-167c-15.333 46 -30.833 91.5 -46.5 136.5s-33.167 83.833 -52.5 116.5h-78l-61 -253h-155l163 683c36 6.66699 71 11.334 105 14.001s65 4 93 4zM430.999 568.996
c-11.333 0 -22.998 -0.331055 -34.998 -0.998047s-22 -1.33398 -30 -2.00098l-45 -190h53c32 0 59 3 81 9s39.667 14 53 24s22.833 21.5 28.5 34.5s8.5 26.167 8.5 39.5c0 11.333 -1.66699 22.166 -5 32.499s-9.33301 19.5 -18 27.5s-20.334 14.333 -35.001 19
s-33.334 7 -56.001 7zM340.001 900.998l60 53l83 -78l113 76l46 -61l-179 -145z" />
    <glyph glyph-name="rcaron" unicode="&#x159;" horiz-adv-x="426" 
d="M472 398c-13.333 3.33301 -26.5029 6.50098 -39.5029 9.50098s-32.167 4.5 -57.5 4.5c-9.33301 0 -19.666 -0.833008 -30.999 -2.5s-20.666 -3.5 -27.999 -5.5l-97 -404h-149l120 498c28.667 9.33301 60.834 18.166 96.501 26.499s75.834 12.5 120.501 12.5
c16.667 0 35.167 -1.5 55.5 -4.5s38.166 -7.83301 53.499 -14.5zM262.997 740.001l60 53l83 -78l113 76l46 -61l-179 -145z" />
    <glyph glyph-name="Sacute" unicode="&#x15a;" horiz-adv-x="559" 
d="M269 116c15.333 0 30.666 1.16797 45.999 3.50098s29 6.5 41 12.5s21.833 14.5 29.5 25.5s11.5 25.167 11.5 42.5c0 13.333 -3.66699 24.833 -11 34.5s-16.666 18.5 -27.999 26.5s-24 15.333 -38 22s-28 14 -42 22c-18 10.667 -35 22 -51 34s-29.667 25.5 -41 40.5
s-20.333 31.667 -27 50s-10 39.5 -10 63.5c0 30.667 5.83301 59.167 17.5 85.5s29 49.166 52 68.499s51.833 34.5 86.5 45.5s75.334 16.5 122.001 16.5c21.333 0 42 -1.83301 62 -5.5s38.667 -8.16699 56 -13.5s33.166 -11.5 47.499 -18.5s26.5 -13.833 36.5 -20.5l-65 -115
c-16.667 12.667 -37 23.334 -61 32.001s-50 13 -78 13c-15.333 0 -30 -1.33301 -44 -4s-26.333 -7.16699 -37 -13.5s-19.167 -14.5 -25.5 -24.5s-9.5 -22.333 -9.5 -37c0 -13.333 2.5 -24.5 7.5 -33.5s11.5 -16.833 19.5 -23.5s17.333 -12.667 28 -18l34 -17
c20.667 -10.667 40.667 -22 60 -34s36.333 -25.833 51 -41.5s26.334 -33.5 35.001 -53.5s13 -43.667 13 -71c0 -38 -7 -71 -21 -99s-33.667 -51.333 -59 -70s-55.5 -32.5 -90.5 -41.5s-73.833 -13.5 -116.5 -13.5c-28 0 -54.167 2.33301 -78.5 7s-46.333 10.167 -66 16.5
s-36.667 13.166 -51 20.499s-25.833 14 -34.5 20l66 119c8 -5.33301 17.667 -11 29 -17s24.166 -11.667 38.499 -17s29.5 -9.83301 45.5 -13.5s32.667 -5.5 50 -5.5zM569 872.001l-177 -136l-60 62l160 161z" />
    <glyph glyph-name="sacute" unicode="&#x15b;" horiz-adv-x="483" 
d="M241 106c34 0 57.334 4.83691 70.001 14.5039s19 20.167 19 31.5c0 7.33301 -1.16699 13.666 -3.5 18.999s-6.16602 10.333 -11.499 15s-12.666 9.5 -21.999 14.5s-21.333 10.833 -36 17.5c-16.667 7.33301 -32.334 15.166 -47.001 23.499s-27.5 18.333 -38.5 30
s-19.667 25 -26 40s-9.5 32.833 -9.5 53.5c0 54 19.833 96.667 59.5 128s97.5 47 173.5 47c36 0 68 -4 96 -12s50.667 -16.667 68 -26l-51 -111c-14 7.33301 -32 14.333 -54 21s-43.667 10 -65 10c-9.33301 0 -18.5 -0.5 -27.5 -1.5s-17.333 -3.16699 -25 -6.5
s-13.834 -8 -18.501 -14s-7 -14 -7 -24c0 -13.333 5.16699 -23.333 15.5 -30s24.833 -14.667 43.5 -24c26 -12.667 47.667 -24.334 65 -35.001s31.166 -22 41.499 -34s17.833 -25.667 22.5 -41s7 -33.333 7 -54c0 -21.333 -4.5 -42.333 -13.5 -63s-23.167 -39 -42.5 -55
s-44 -29 -74 -39s-66 -15 -108 -15c-26 0 -49.5 1.66699 -70.5 5s-39.5 7.5 -55.5 12.5s-29.5 10.167 -40.5 15.5s-19.5 9.66602 -25.5 12.999l51 114c11.333 -6.66699 29 -15 53 -25s53 -15 87 -15zM528.001 712.004l-177 -136l-60 62l160 161z" />
    <glyph glyph-name="Scircumflex" unicode="&#x15c;" horiz-adv-x="559" 
d="M269 116c15.333 0 30.666 1.16797 45.999 3.50098s29 6.5 41 12.5s21.833 14.5 29.5 25.5s11.5 25.167 11.5 42.5c0 13.333 -3.66699 24.833 -11 34.5s-16.666 18.5 -27.999 26.5s-24 15.333 -38 22s-28 14 -42 22c-18 10.667 -35 22 -51 34s-29.667 25.5 -41 40.5
s-20.333 31.667 -27 50s-10 39.5 -10 63.5c0 30.667 5.83301 59.167 17.5 85.5s29 49.166 52 68.499s51.833 34.5 86.5 45.5s75.334 16.5 122.001 16.5c21.333 0 42 -1.83301 62 -5.5s38.667 -8.16699 56 -13.5s33.166 -11.5 47.499 -18.5s26.5 -13.833 36.5 -20.5l-65 -115
c-16.667 12.667 -37 23.334 -61 32.001s-50 13 -78 13c-15.333 0 -30 -1.33301 -44 -4s-26.333 -7.16699 -37 -13.5s-19.167 -14.5 -25.5 -24.5s-9.5 -22.333 -9.5 -37c0 -13.333 2.5 -24.5 7.5 -33.5s11.5 -16.833 19.5 -23.5s17.333 -12.667 28 -18l34 -17
c20.667 -10.667 40.667 -22 60 -34s36.333 -25.833 51 -41.5s26.334 -33.5 35.001 -53.5s13 -43.667 13 -71c0 -38 -7 -71 -21 -99s-33.667 -51.333 -59 -70s-55.5 -32.5 -90.5 -41.5s-73.833 -13.5 -116.5 -13.5c-28 0 -54.167 2.33301 -78.5 7s-46.333 10.167 -66 16.5
s-36.667 13.166 -51 20.499s-25.833 14 -34.5 20l66 119c8 -5.33301 17.667 -11 29 -17s24.166 -11.667 38.499 -17s29.5 -9.83301 45.5 -13.5s32.667 -5.5 50 -5.5zM604 795.001l-60 -53l-83 78l-113 -76l-46 61l179 145z" />
    <glyph glyph-name="scircumflex" unicode="&#x15d;" horiz-adv-x="483" 
d="M241 106c34 0 57.334 4.83691 70.001 14.5039s19 20.167 19 31.5c0 7.33301 -1.16699 13.666 -3.5 18.999s-6.16602 10.333 -11.499 15s-12.666 9.5 -21.999 14.5s-21.333 10.833 -36 17.5c-16.667 7.33301 -32.334 15.166 -47.001 23.499s-27.5 18.333 -38.5 30
s-19.667 25 -26 40s-9.5 32.833 -9.5 53.5c0 54 19.833 96.667 59.5 128s97.5 47 173.5 47c36 0 68 -4 96 -12s50.667 -16.667 68 -26l-51 -111c-14 7.33301 -32 14.333 -54 21s-43.667 10 -65 10c-9.33301 0 -18.5 -0.5 -27.5 -1.5s-17.333 -3.16699 -25 -6.5
s-13.834 -8 -18.501 -14s-7 -14 -7 -24c0 -13.333 5.16699 -23.333 15.5 -30s24.833 -14.667 43.5 -24c26 -12.667 47.667 -24.334 65 -35.001s31.166 -22 41.499 -34s17.833 -25.667 22.5 -41s7 -33.333 7 -54c0 -21.333 -4.5 -42.333 -13.5 -63s-23.167 -39 -42.5 -55
s-44 -29 -74 -39s-66 -15 -108 -15c-26 0 -49.5 1.66699 -70.5 5s-39.5 7.5 -55.5 12.5s-29.5 10.167 -40.5 15.5s-19.5 9.66602 -25.5 12.999l51 114c11.333 -6.66699 29 -15 53 -25s53 -15 87 -15zM544.001 629.004l-60 -53l-83 78l-113 -76l-46 61l179 145z" />
    </font>
</defs>
</svg>
