<?xml version="1.0" standalone="no"?>
<!DOCTYPE svg PUBLIC "-//W3C//DTD SVG 1.1//EN" "http://www.w3.org/Graphics/SVG/1.1/DTD/svg11.dtd" >
<svg version="1.1" xmlns="http://www.w3.org/2000/svg">
<metadata>
Created by FontForge 20120731 at Fri Aug  1 16:50:17 2014
 By Alfred Xing
Copyright (c) 2011-2013, Sol Matas (www.huertatipografica.com.ar), with Reserved Font Name "Bitter".
</metadata>
<defs>
<font id="bitter" horiz-adv-x="640" >
  <font-face 
    font-family="Bitter"
    font-weight="700"
    font-style="italic"
    font-stretch="normal"
    units-per-em="1000"
    panose-1="0 0 8 0 0 0 0 0 0 0"
    ascent="800"
    descent="-200"
    x-height="540"
    cap-height="705"
    bbox="-134 -360 1210 1118"
    underline-thickness="50"
    underline-position="-50"
    slope="-9"
    stemh="120"
    stemv="145"
    unicode-range="U+000D-FB02"
  />
<missing-glyph horiz-adv-x="570" 
d="M70 0v700h500v-700h-500zM320 395l170 255h-340zM350 350l170 -255v510zM150 50h340l-170 255zM120 605v-510l170 255z" />
    <glyph glyph-name="fi" unicode="fi" horiz-adv-x="695" 
d="M56 430l14 88l92 15c19 152 68 254 245 254c93 0 261 -23 261 -23l-30 -162h-117v75h-110c-68 0 -90 -32 -98 -82l-10 -60l341 5l-69 -435l76 -15l-13 -80l-220 -10l67 431h-199l-73 -462c-20 -127 -91 -214 -221 -214c-40 0 -102 14 -102 14l19 87h69c52 0 82 33 92 96
l75 478h-89z" />
    <glyph glyph-name="fl" unicode="fl" horiz-adv-x="700" 
d="M425 0l106 670s-65 7 -120 7c-58 0 -90 -32 -98 -82l-10 -65h123l-18 -100h-122l-73 -461c-20 -127 -91 -214 -221 -214c-40 0 -102 14 -102 14l19 87h69c52 0 82 33 92 96l75 478h-89l14 87l92 13c19 154 78 257 265 257c120 0 263 -26 263 -26l-105 -656l76 -15
l-13 -80z" />
    <glyph glyph-name=".notdef" horiz-adv-x="570" 
d="M70 0v700h500v-700h-500zM320 395l170 255h-340zM350 350l170 -255v510zM150 50h340l-170 255zM120 605v-510l170 255z" />
    <glyph glyph-name="CR" unicode="&#xd;" horiz-adv-x="285" 
 />
    <glyph glyph-name="space" unicode=" " horiz-adv-x="285" 
 />
    <glyph glyph-name="exclam" unicode="!" horiz-adv-x="344" 
d="M110 256l66 509h148l-98 -504zM55 58c0 58 32 110 98 110c44 0 72 -28 72 -72c0 -58 -32 -109 -97 -109c-44 0 -73 27 -73 71z" />
    <glyph glyph-name="quotedbl" unicode="&#x22;" horiz-adv-x="449" 
d="M70 500l44 282h131l-66 -282h-109zM265 500l44 282h130l-66 -282h-108z" />
    <glyph glyph-name="numbersign" unicode="#" horiz-adv-x="689" 
d="M234 470l38 130h123l-38 -130h122l38 130h122l-37 -130h92l-16 -103h-105l-36 -123h96l-16 -103h-109l-41 -141h-123l41 141h-122l-40 -141h-123l40 141h-90l16 103h103l36 123h-95l16 103h108zM414 244l36 123h-122l-36 -123h122z" />
    <glyph glyph-name="dollar" unicode="$" horiz-adv-x="570" 
d="M136 203l2 -80s37 -18 89 -18c56 0 114 30 114 81c0 95 -252 76 -252 251c0 121 85 193 196 211l18 110l104 7l-18 -114c80 -8 146 -35 146 -35l-31 -169h-77l-12 79s-41 15 -77 15c-58 0 -102 -26 -102 -73c0 -92 253 -77 253 -244c0 -128 -91 -208 -204 -230l-22 -140
h-103l21 135c-86 6 -160 34 -160 34l29 180h86z" />
    <glyph glyph-name="percent" unicode="%" horiz-adv-x="816" 
d="M285 717c89 0 140 -48 140 -132c0 -131 -77 -235 -204 -235c-93 0 -146 45 -146 134c0 136 87 233 210 233zM236 436c43 0 76 60 76 126c0 44 -10 69 -47 69c-45 0 -77 -60 -77 -128c0 -44 14 -67 48 -67zM678 353c89 0 140 -48 140 -132c0 -131 -77 -234 -204 -234
c-93 0 -146 44 -146 133c0 136 87 233 210 233zM629 72c43 0 76 60 76 126c0 44 -10 69 -47 69c-45 0 -77 -60 -77 -128c0 -44 14 -67 48 -67zM774 712l-519 -719h-140l519 719h140z" />
    <glyph glyph-name="ampersand" unicode="&#x26;" horiz-adv-x="661" 
d="M464 517l-5 65s-36 13 -90 13c-70 0 -104 -38 -104 -88s37 -82 101 -82h295l-14 -85l-71 -23l-17 -105c-23 -142 -133 -224 -291 -224c-156 0 -223 65 -223 167c0 114 84 183 160 217c-20 13 -84 42 -84 127c0 148 115 218 263 218c85 0 177 -31 198 -42l-27 -158h-91z
M435 317h-94c-77 0 -141 -47 -141 -125c0 -53 37 -82 95 -82c67 0 112 37 125 115z" />
    <glyph glyph-name="quotesingle" unicode="'" horiz-adv-x="216" 
d="M97 500l44 282h131l-66 -282h-109z" />
    <glyph glyph-name="parenleft" unicode="(" horiz-adv-x="330" 
d="M318 770h126c-138 -180 -240 -376 -240 -636c0 -130 26 -264 80 -364h-125c-63 117 -94 229 -94 359c0 235 75 435 253 641z" />
    <glyph glyph-name="parenright" unicode=")" horiz-adv-x="331" 
d="M50 -230h-125c138 180 240 376 240 636c0 130 -26 264 -80 364h125c63 -117 94 -229 94 -359c0 -235 -76 -435 -254 -641z" />
    <glyph glyph-name="asterisk" unicode="*" horiz-adv-x="432" 
d="M256 587l-28 30l5 119l91 2l-29 -122zM272 576l23 40l115 49l18 -90l-124 -25zM239 574l-42 -22l-117 21l42 89l106 -45zM241 555l3 -44l-77 -111l-65 54l95 98zM304 550l65 -97l-80 -53l-45 111l17 44z" />
    <glyph glyph-name="plus" unicode="+" horiz-adv-x="617" 
d="M259 328l33 205h128l-33 -205h196l-19 -116h-196l-33 -212h-128l33 212h-195l20 116h194z" />
    <glyph glyph-name="comma" unicode="," horiz-adv-x="278" 
d="M22 -184l-52 52s78 82 78 121c0 25 -18 44 -18 78c0 59 40 101 95 101c46 0 73 -27 73 -73c0 -95 -111 -217 -176 -279z" />
    <glyph glyph-name="hyphen" unicode="-" horiz-adv-x="385" 
d="M345 335l-20 -125h-275l20 125h275z" />
    <glyph glyph-name="period" unicode="." horiz-adv-x="287" 
d="M28 59c0 58 31 109 96 109c44 0 74 -27 74 -71c0 -58 -33 -110 -98 -110c-44 0 -72 28 -72 72z" />
    <glyph glyph-name="slash" unicode="/" horiz-adv-x="448" 
d="M561 705l-439 -705h-147l439 705h147z" />
    <glyph glyph-name="zero" unicode="0" horiz-adv-x="623" 
d="M388 717c147 0 210 -91 210 -223c0 -203 -69 -507 -327 -507c-147 0 -216 76 -216 223c0 213 80 507 333 507zM363 592c-113 0 -154 -254 -154 -376c0 -75 24 -104 84 -104c107 0 150 256 150 378c0 73 -23 102 -80 102z" />
    <glyph glyph-name="one" unicode="1" horiz-adv-x="500" 
d="M30 0l19 115h134l69 430l-162 -97l-46 104l254 153h128l-94 -590h133l-18 -115h-417z" />
    <glyph glyph-name="two" unicode="2" horiz-adv-x="566" 
d="M-10 0l16 122l114 85c180 134 269 222 270 308c0 53 -35 80 -97 80c-42 0 -91 -14 -91 -14l-22 -89h-100l21 187s117 38 214 38c138 0 241 -37 241 -162c0 -141 -110 -252 -256 -367l-84 -66h291l-18 -122h-499z" />
    <glyph glyph-name="three" unicode="3" horiz-adv-x="565" 
d="M75 501l22 176s115 40 218 40c136 0 224 -54 224 -154c0 -93 -51 -165 -152 -195c71 -21 113 -73 113 -143c0 -145 -134 -238 -301 -238c-118 0 -210 57 -210 57l57 107s89 -41 165 -41c75 0 134 46 134 117c0 56 -41 83 -114 83h-79l17 105h76c97 0 140 53 140 110
c0 44 -36 70 -98 70c-44 0 -90 -13 -90 -13l-19 -81h-103z" />
    <glyph glyph-name="four" unicode="4" horiz-adv-x="591" 
d="M447 145l-23 -145h-146l23 145h-301l7 115l377 460l152 -15l-70 -440h100l-19 -120h-100zM362 528l-215 -263h173z" />
    <glyph glyph-name="five" unicode="5" horiz-adv-x="567" 
d="M10 43l56 107s91 -40 163 -40s135 47 135 115c0 57 -43 92 -145 92h-124l71 388h396l-20 -123h-259l-25 -151h35c145 -4 231 -69 231 -179c0 -160 -134 -265 -294 -265c-122 0 -220 56 -220 56z" />
    <glyph glyph-name="six" unicode="6" horiz-adv-x="588" 
d="M581 705l-24 -115s-37 5 -81 5c-204 0 -244 -198 -244 -198s73 43 160 43c103 0 182 -59 182 -172c0 -158 -130 -281 -296 -281c-155 0 -220 104 -220 231c0 210 134 499 420 499c56 0 103 -12 103 -12zM211 287c-6 -34 -8 -57 -8 -70c0 -67 38 -107 94 -107
c71 0 116 52 120 122c3 56 -24 90 -89 90c-62 0 -117 -35 -117 -35z" />
    <glyph glyph-name="seven" unicode="7" horiz-adv-x="509" 
d="M551 597l-347 -597h-160l342 580h-214l-35 -93h-97l35 218h494z" />
    <glyph glyph-name="eight" unicode="8" horiz-adv-x="599" 
d="M584 561c0 -91 -57 -152 -132 -184c49 -29 98 -63 98 -143c0 -150 -132 -247 -299 -247c-150 0 -221 74 -221 166c0 106 73 170 155 208c-45 28 -81 62 -81 130c0 143 117 226 281 226c133 0 199 -65 199 -156zM355 595c-53 0 -104 -29 -104 -84c0 -46 42 -67 91 -87
c44 18 95 56 95 110c0 37 -30 61 -82 61zM274 110c74 0 121 44 121 102c0 50 -47 73 -101 96c-52 -23 -109 -58 -109 -125c0 -45 33 -73 89 -73z" />
    <glyph glyph-name="nine" unicode="9" horiz-adv-x="586" 
d="M45 0l21 114s38 -4 82 -4c209 0 245 201 245 201s-73 -42 -160 -42c-106 0 -183 56 -183 169c0 158 127 279 295 279c126 0 221 -74 221 -231c0 -223 -136 -499 -420 -499c-53 0 -101 13 -101 13zM414 422c6 30 7 51 7 64c0 76 -42 109 -94 109c-70 0 -116 -52 -120 -123
c-3 -55 26 -86 90 -86c62 0 117 36 117 36z" />
    <glyph glyph-name="colon" unicode=":" horiz-adv-x="277" 
d="M77 359c0 58 31 110 96 110c44 0 74 -27 74 -71c0 -58 -33 -110 -98 -110c-44 0 -72 27 -72 71zM30 59c0 58 31 109 96 109c44 0 74 -27 74 -71c0 -58 -33 -110 -98 -110c-44 0 -72 28 -72 72z" />
    <glyph glyph-name="semicolon" unicode=";" horiz-adv-x="296" 
d="M86 359c0 58 32 110 97 110c44 0 73 -26 73 -71c0 -57 -33 -110 -99 -110c-44 0 -71 26 -71 71zM32 -184l-52 52s78 82 78 121c0 25 -18 44 -18 78c0 59 40 101 95 101c46 0 73 -27 73 -73c0 -95 -111 -217 -176 -279z" />
    <glyph glyph-name="less" unicode="&#x3c;" horiz-adv-x="614" 
d="M516 -10l-466 218l20 120l537 219l-22 -133l-367 -148l319 -145z" />
    <glyph glyph-name="equal" unicode="=" horiz-adv-x="647" 
d="M592 437l-18 -115h-485l18 115h485zM558 222l-18 -115h-485l18 115h485z" />
    <glyph glyph-name="greater" unicode="&#x3e;" horiz-adv-x="609" 
d="M80 418l21 129l466 -221l-19 -120l-538 -216c8 45 15 89 22 134l368 143z" />
    <glyph glyph-name="question" unicode="?" horiz-adv-x="458" 
d="M126 249v65c0 141 207 173 207 287c0 39 -32 52 -74 52c-43 0 -90 -9 -90 -9l-8 102s79 24 156 24c93 0 168 -35 168 -133c0 -167 -223 -231 -229 -334l-3 -45zM85 58c0 58 32 110 98 110c44 0 72 -27 72 -71c0 -58 -32 -110 -97 -110c-44 0 -73 27 -73 71z" />
    <glyph glyph-name="at" unicode="@" horiz-adv-x="820" 
d="M480 107l39 -80s-78 -42 -182 -42c-171 0 -277 101 -277 274c0 263 159 458 420 458c190 0 311 -96 311 -275c0 -159 -74 -291 -204 -291c-85 0 -92 81 -94 109c-9 -19 -51 -108 -134 -108c-72 0 -110 55 -110 128c0 180 101 266 208 266c44 0 80 -24 80 -24l17 16h59
l-38 -242c-2 -12 -3 -21 -3 -30c0 -25 9 -34 27 -34c55 0 83 111 83 188c0 130 -72 200 -222 200c-184 0 -289 -152 -289 -337c0 -133 70 -201 189 -201c64 0 120 25 120 25zM491 401l13 61s-22 8 -47 8c-62 0 -109 -81 -109 -173c0 -35 10 -59 34 -59c65 0 109 163 109 163
z" />
    <glyph glyph-name="A" unicode="A" horiz-adv-x="711" 
d="M677 88l-15 -88h-296l14 87l79 25l-12 73h-221l-36 -76l69 -22l-14 -87h-283l14 88l67 23l307 587l154 7l115 -597zM276 292h154l-37 241z" />
    <glyph glyph-name="B" unicode="B" horiz-adv-x="653" 
d="M333 705h96c104 0 196 -50 196 -152s-70 -162 -148 -185c73 -21 122 -62 122 -133c0 -157 -127 -235 -286 -235h-316l14 87l78 24l75 477l-69 29l13 83zM287 417h55c75 0 127 41 127 106c0 44 -33 64 -77 64h-78zM239 117h71c87 0 132 49 132 110s-37 85 -114 85h-58z
" />
    <glyph glyph-name="C" unicode="C" horiz-adv-x="645" 
d="M552 480l-13 94c-18 6 -57 18 -108 18c-141 0 -214 -161 -214 -315c0 -100 55 -161 132 -161c89 0 159 44 196 70l53 -84c-40 -34 -147 -115 -282 -115c-158 0 -261 102 -261 262c0 275 163 468 393 468c118 0 217 -47 217 -47l-30 -190h-83z" />
    <glyph glyph-name="D" unicode="D" horiz-adv-x="711" 
d="M336 705h93c156 0 257 -86 257 -250c0 -293 -162 -455 -402 -455h-282l14 87l78 24l75 477l-69 29l13 83zM242 117h65c150 0 222 160 222 332c0 76 -38 138 -120 138h-92z" />
    <glyph glyph-name="E" unicode="E" horiz-adv-x="611" 
d="M297 420h197l-17 -110h-198l-30 -190h175l36 81h90l-33 -201h-510l14 87l78 24l75 477l-69 29l13 83l225 5h273l-31 -193h-80l-13 73h-168z" />
    <glyph glyph-name="F" unicode="F" horiz-adv-x="554" 
d="M293 410h202l-18 -110h-201l-30 -189l77 -24l-14 -87h-302l14 87l78 24l75 477l-69 29l13 83l222 5h273l-31 -193h-80l-13 75h-167z" />
    <glyph glyph-name="G" unicode="G" horiz-adv-x="716" 
d="M627 262l-31 -203c-61 -34 -156 -71 -277 -71c-160 0 -264 97 -264 261c0 276 166 468 396 468c118 0 220 -47 220 -47l-31 -178h-83l-13 83s-55 17 -112 17c-137 0 -217 -156 -217 -315c0 -107 57 -165 144 -165c45 0 81 8 111 19l22 131l-75 23l13 80l281 5l-13 -85z
" />
    <glyph glyph-name="H" unicode="H" horiz-adv-x="783" 
d="M700 0h-299l14 87l78 24l31 194h-255l-31 -194l70 -24l-14 -87h-297l14 87l77 24l76 477l-69 29l13 83l298 5l-14 -88l-78 -30l-27 -165h255l27 166l-71 29l13 83l300 5l-14 -88l-78 -30l-76 -476l71 -24z" />
    <glyph glyph-name="I" unicode="I" horiz-adv-x="378" 
d="M295 0h-298l14 87l78 24l76 477l-69 29l13 83l298 5l-14 -88l-78 -30l-76 -476l70 -24z" />
    <glyph glyph-name="J" unicode="J" horiz-adv-x="368" 
d="M325 587l-78 -485c-28 -172 -93 -259 -261 -259c-31 0 -73 7 -73 7l29 100h47c54 0 90 34 100 96l86 542l-69 29l13 83l298 5l-14 -88z" />
    <glyph glyph-name="K" unicode="K" horiz-adv-x="670" 
d="M662 0h-286l14 87l57 21l-103 197h-72l-31 -194l68 -24l-14 -87h-293l14 87l78 24l75 477l-69 29l13 83l294 5l-14 -88l-77 -29l-27 -173h65l208 285l165 5l-14 -88l-76 -30l-169 -220l142 -257l66 -23z" />
    <glyph glyph-name="L" unicode="L" horiz-adv-x="529" 
d="M386 120l40 110h92l-38 -230h-488l14 87l78 24l75 477l-69 29l13 83l301 5l-14 -88l-81 -29l-75 -468h152z" />
    <glyph glyph-name="M" unicode="M" horiz-adv-x="853" 
d="M270 0h-278l14 87l77 24l76 477l-69 29l13 83l248 5l96 -338l203 333l237 5l-15 -88l-77 -30l-75 -475l69 -25l-14 -87h-283l14 87l74 25l56 356l-175 -285l-108 -7l-83 288l-56 -353l70 -24z" />
    <glyph glyph-name="N" unicode="N" horiz-adv-x="767" 
d="M-8 0l14 87l78 24l75 477l-69 29l13 83l232 5l191 -466l55 349l-65 29l13 83l277 5l-14 -88l-77 -29l-93 -588h-155l-193 464l-57 -353l67 -24l-14 -87h-278z" />
    <glyph glyph-name="O" unicode="O" horiz-adv-x="732" 
d="M306 -13c-160 0 -252 92 -252 259c0 255 148 471 390 471c164 0 260 -99 260 -262c0 -257 -158 -468 -398 -468zM544 449c0 95 -41 143 -120 143c-143 0 -210 -197 -210 -334c0 -93 39 -146 117 -146c140 0 213 193 213 337z" />
    <glyph glyph-name="P" unicode="P" horiz-adv-x="605" 
d="M-3 0l14 87l78 24l75 477l-69 29l13 83l225 5h94c110 0 205 -50 205 -171c0 -204 -148 -289 -319 -289h-53l-21 -134l72 -24l-14 -87h-300zM278 362h53c105 0 147 63 147 141c0 62 -42 84 -87 84h-77z" />
    <glyph glyph-name="Q" unicode="Q" horiz-adv-x="747" 
d="M457 -149l-183 139c-137 9 -220 103 -220 256c0 255 148 471 391 471c163 0 260 -98 260 -257c0 -211 -109 -393 -273 -452l83 -56c28 -19 58 -37 86 -37c35 0 104 35 104 35l38 -80s-106 -68 -168 -68c-38 0 -83 23 -118 49zM424 592c-143 0 -210 -197 -210 -334
c0 -93 39 -146 118 -146c140 0 213 193 213 342c0 94 -42 138 -121 138z" />
    <glyph glyph-name="R" unicode="R" horiz-adv-x="655" 
d="M298 0h-296l14 87l78 25l75 475l-68 30l13 83l222 5h96c112 0 205 -54 205 -166c0 -115 -61 -194 -159 -228c14 -14 29 -46 41 -81l39 -118l68 -25l-14 -87h-175l-54 190c-20 73 -49 87 -114 87l-26 -165l69 -25zM285 382h57c85 0 141 44 141 128c0 51 -33 77 -85 77h-80
z" />
    <glyph glyph-name="S" unicode="S" horiz-adv-x="592" 
d="M147 217l2 -86s38 -19 97 -19c57 0 121 30 121 89c0 104 -271 84 -271 277c0 159 126 239 275 239c108 0 204 -40 204 -40l-34 -182h-82l-12 85s-43 15 -87 15c-62 0 -105 -29 -105 -78c0 -103 270 -86 270 -270c0 -168 -136 -260 -290 -260c-107 0 -211 38 -211 38
l31 192h92z" />
    <glyph glyph-name="T" unicode="T" horiz-adv-x="577" 
d="M188 111l75 476h-93l-40 -97h-90l36 215h565l-34 -215h-90l-10 97h-94l-75 -476l77 -24l-14 -87h-311l14 87z" />
    <glyph glyph-name="U" unicode="U" horiz-adv-x="756" 
d="M305 587l-51 -317c-3 -20 -5 -39 -5 -56c0 -63 24 -104 108 -104c92 0 131 51 150 173l48 304l-70 30l13 83l297 5l-14 -88l-77 -30l-46 -295c-30 -190 -117 -304 -322 -304c-173 0 -238 71 -238 200c0 25 2 53 7 82l51 317l-71 30l13 83l296 5l-14 -88z" />
    <glyph glyph-name="V" unicode="V" horiz-adv-x="667" 
d="M40 617l14 83l204 5l79 -504l175 387l-66 29l15 83l285 5l-14 -88l-70 -30l-290 -587h-153l-109 590z" />
    <glyph glyph-name="W" unicode="W" horiz-adv-x="978" 
d="M45 617l13 83l193 5l62 -471l194 463l116 8l63 -474l148 357l-69 29l15 83l278 5l-15 -88l-72 -29l-267 -588h-117l-65 440l-197 -440h-117l-93 590z" />
    <glyph glyph-name="X" unicode="X" horiz-adv-x="665" 
d="M244 0h-287l14 87l76 23l206 240l-136 248l-62 19l13 83l295 5l-14 -88l-49 -15l70 -139l113 136l-42 18l13 83l282 5l-14 -88l-76 -21l-207 -233l139 -256l68 -20l-14 -87h-299l14 87l48 12l-70 145l-115 -140l48 -17z" />
    <glyph glyph-name="Y" unicode="Y" horiz-adv-x="617" 
d="M411 0h-296l14 87l78 25l21 134l-107 349l-76 22l13 83l188 5l90 -329l127 219l-68 22l13 83l283 5l-14 -88l-74 -28l-229 -359l-19 -118l70 -25z" />
    <glyph glyph-name="Z" unicode="Z" horiz-adv-x="594" 
d="M25 104l374 483h-200l-36 -85h-88l29 203h494l-12 -111l-371 -477h205l38 104h93l-35 -221h-505z" />
    <glyph glyph-name="bracketleft" unicode="[" horiz-adv-x="339" 
d="M15 -230l159 1000l241 -5l-16 -103l-118 -11l-121 -763l115 -11l-16 -102z" />
    <glyph glyph-name="backslash" unicode="\" horiz-adv-x="508" 
d="M306 0l-216 705h141l215 -705h-140z" />
    <glyph glyph-name="bracketright" unicode="]" horiz-adv-x="349" 
d="M98 -111l122 762l-116 11l17 103l243 5l-159 -1000l-240 5l15 103z" />
    <glyph glyph-name="asciicircum" unicode="^" horiz-adv-x="571" 
d="M35 320l248 385h106l126 -385h-123l-79 245l-156 -245h-122z" />
    <glyph glyph-name="underscore" unicode="_" horiz-adv-x="501" 
d="M433 -80v-100h-504v100h504z" />
    <glyph glyph-name="grave" unicode="`" horiz-adv-x="318" 
d="M122 841l260 -169l-38 -75l-271 132z" />
    <glyph glyph-name="a" unicode="a" horiz-adv-x="615" 
d="M563 10l-215 -10l35 148c-5 -10 -88 -158 -214 -158c-88 0 -143 80 -143 181c0 250 151 379 306 379c69 0 117 -37 117 -37l29 27h91l-70 -436l77 -15zM392 347l15 83s-29 12 -73 12c-92 0 -158 -107 -158 -252c0 -53 19 -83 49 -83c100 0 167 240 167 240z" />
    <glyph glyph-name="b" unicode="b" horiz-adv-x="612" 
d="M71 687l13 80l219 8l-44 -250l-34 -137c5 10 78 162 208 162c95 0 142 -85 142 -185c0 -239 -157 -375 -325 -375c-108 0 -208 30 -208 30l102 647zM217 193l-16 -82s33 -11 68 -11c82 0 158 106 158 242c0 45 -17 88 -55 88c-100 0 -155 -237 -155 -237z" />
    <glyph glyph-name="c" unicode="c" horiz-adv-x="485" 
d="M400 151l43 -79c-22 -15 -118 -82 -228 -82c-115 0 -187 68 -187 193c0 222 127 367 310 367c75 0 135 -31 155 -40l-25 -158h-88l-5 70s-20 9 -53 9c-101 0 -146 -120 -146 -228c0 -58 31 -93 82 -93c58 0 120 31 142 41z" />
    <glyph glyph-name="d" unicode="d" horiz-adv-x="610" 
d="M558 5l-209 -5l37 148c-5 -10 -87 -158 -214 -158c-89 0 -141 79 -141 181c0 249 150 379 305 379c47 0 87 -19 87 -19l23 136l-77 20l12 80l222 8l-108 -671l76 -15zM393 347l14 83s-28 12 -70 12c-103 0 -158 -124 -158 -250c0 -53 18 -85 49 -85
c100 0 165 240 165 240z" />
    <glyph glyph-name="e" unicode="e" horiz-adv-x="522" 
d="M418 141l42 -74c-29 -20 -129 -77 -235 -77c-120 0 -199 68 -199 185c0 221 137 375 301 375c118 0 190 -56 190 -143c0 -113 -125 -192 -345 -194c0 -87 35 -108 94 -108s130 29 152 36zM372 389c0 32 -19 48 -57 48c-60 0 -111 -57 -131 -136c127 3 188 43 188 88z" />
    <glyph glyph-name="f" unicode="f" horiz-adv-x="401" 
d="M56 430l14 87l92 13c19 154 68 257 235 257c83 0 167 -23 167 -23l-30 -162h-85v75h-48c-58 0 -80 -32 -88 -82l-10 -65h133l-18 -100h-132l-73 -461c-20 -127 -91 -214 -221 -214c-40 0 -102 14 -102 14l19 87h69c52 0 82 33 92 96l75 478h-89z" />
    <glyph glyph-name="g" unicode="g" horiz-adv-x="589" 
d="M12 -203l33 98s94 -34 161 -34c86 0 127 44 144 124l35 166c-6 -10 -91 -161 -211 -161c-87 0 -144 75 -144 176c0 248 151 384 303 384c69 0 117 -37 117 -37l29 27h88l-88 -552c-26 -160 -109 -240 -253 -240c-99 0 -214 48 -214 49zM393 347l14 83s-28 12 -72 12
c-93 0 -158 -108 -158 -251c0 -54 19 -84 49 -84c101 0 167 240 167 240z" />
    <glyph glyph-name="h" unicode="h" horiz-adv-x="639" 
d="M315 775l-70 -395c4 10 84 170 215 170c80 0 112 -48 112 -121c0 -18 -2 -38 -5 -59l-42 -265l75 -15l-13 -80l-224 -10l56 342c2 13 3 25 3 36c0 28 -9 49 -38 49c-88 0 -149 -185 -160 -245l-33 -182h-145l107 667l-77 20l13 80z" />
    <glyph glyph-name="i" unicode="i" horiz-adv-x="334" 
d="M147 685c0 59 37 110 95 110c40 0 69 -24 69 -70c0 -61 -37 -112 -93 -112c-42 0 -71 24 -71 72zM214 105l76 -15l-13 -80l-224 -10l68 432l-77 20l14 80l225 8z" />
    <glyph glyph-name="j" unicode="j" horiz-adv-x="329" 
d="M144 685c0 59 37 110 95 110c41 0 70 -24 70 -70c0 -61 -37 -112 -94 -112c-41 0 -71 24 -71 72zM59 532l222 8l-94 -583c-20 -125 -97 -202 -221 -202c-43 0 -100 15 -100 15l20 88c11 0 35 -3 63 -3c71 0 87 38 102 129l72 448l-78 20z" />
    <glyph glyph-name="k" unicode="k" horiz-adv-x="549" 
d="M241 339h65l82 102l-40 14l12 80l238 5l-13 -85l-65 -12l-118 -137l83 -203l72 -23l-11 -80h-173l-88 244h-59l-39 -244h-143l107 667l-77 20l13 80l224 8z" />
    <glyph glyph-name="l" unicode="l" horiz-adv-x="321" 
d="M206 105l76 -15l-13 -80l-223 -10l107 667l-77 20l13 80l224 8z" />
    <glyph glyph-name="m" unicode="m" horiz-adv-x="938" 
d="M278 540l-33 -161c2 4 79 171 211 171c76 0 108 -52 108 -121c0 -12 -1 -24 -3 -37c24 48 93 158 201 158c79 0 110 -50 110 -122c0 -18 -2 -38 -5 -58l-43 -265l75 -15l-13 -80l-221 -10l56 342c2 13 3 26 3 36c0 29 -9 49 -38 49c-74 0 -131 -147 -154 -234l-31 -193
h-141l55 342c2 13 3 25 3 36c0 28 -9 49 -38 49c-71 0 -128 -142 -158 -257l-28 -170h-141l68 432l-77 20l13 80z" />
    <glyph glyph-name="n" unicode="n" horiz-adv-x="648" 
d="M282 540l-34 -160c5 10 88 170 219 170c79 0 115 -50 115 -122c0 -18 -2 -38 -5 -58l-46 -265l78 -15l-13 -80l-226 -10l55 340c2 13 4 25 4 36c0 28 -10 49 -38 49c-88 0 -160 -202 -166 -254l-29 -171h-144l69 432l-77 20l13 80z" />
    <glyph glyph-name="o" unicode="o" horiz-adv-x="579" 
d="M244 -10c-135 0 -214 76 -214 210c0 212 121 350 302 350c138 0 216 -81 216 -211c0 -212 -123 -349 -304 -349zM398 345c-2 57 -33 85 -83 85c-84 0 -135 -101 -135 -222c0 -63 25 -98 81 -98c108 0 137 137 137 235z" />
    <glyph glyph-name="p" unicode="p" horiz-adv-x="616" 
d="M275 540l-40 -152c6 12 78 162 210 162c94 0 144 -85 144 -185c0 -236 -152 -374 -308 -374c-37 0 -67 8 -88 18l-22 -134l77 -25l-13 -80h-297l13 80l79 25l87 557l-73 20l13 80zM225 193l-15 -82s34 -11 71 -11c82 0 158 106 158 242c0 46 -16 88 -55 88
c-101 0 -159 -237 -159 -237z" />
    <glyph glyph-name="q" unicode="q" horiz-adv-x="590" 
d="M520 -230h-300l13 80l89 28l21 122l38 142c-5 -9 -84 -152 -209 -152c-87 0 -141 79 -141 181c0 248 152 379 304 379c69 0 117 -37 117 -37l29 27h88l-106 -662l70 -28zM396 347l15 83s-31 12 -74 12c-92 0 -158 -108 -158 -252c0 -53 19 -83 49 -83
c100 0 168 240 168 240z" />
    <glyph glyph-name="r" unicode="r" horiz-adv-x="447" 
d="M358 342v78c-48 -13 -119 -134 -136 -239l-29 -181h-140l69 440l-77 20l12 72l222 8l-31 -150c4 10 73 160 193 160c28 0 56 -10 56 -10l-39 -198h-100z" />
    <glyph glyph-name="s" unicode="s" horiz-adv-x="487" 
d="M123 175v-70s29 -11 69 -11c53 0 85 20 85 58c0 82 -212 80 -212 228c0 117 98 170 223 170c89 0 170 -28 170 -28l-27 -150h-86l-5 65s-21 9 -58 9c-44 0 -70 -20 -70 -53c0 -82 217 -81 217 -224c0 -115 -102 -179 -244 -179c-90 0 -174 25 -174 25l26 160h86z" />
    <glyph glyph-name="t" unicode="t" horiz-adv-x="404" 
d="M347 122l22 -72c-27 -17 -112 -60 -171 -60c-81 0 -117 45 -117 131c0 18 1 38 5 60l37 236h-90l15 95l92 13l22 137l146 28l-27 -165h134l-17 -108h-134l-35 -217c-4 -22 -5 -35 -5 -49c0 -32 13 -49 42 -49s81 20 81 20z" />
    <glyph glyph-name="u" unicode="u" 
d="M362 0l34 159c-5 -10 -87 -169 -218 -169c-80 0 -110 49 -110 121c0 34 8 79 48 321l-77 20l13 80l222 8c-52 -320 -58 -356 -58 -378c0 -29 9 -50 38 -50c89 0 149 185 161 230l33 198h141l-69 -436l76 -15l-13 -79z" />
    <glyph glyph-name="v" unicode="v" horiz-adv-x="564" 
d="M400 437l-61 15l13 80l252 8l-14 -85l-49 -16l-218 -439h-162l-91 435l-68 17l12 80l190 8l54 -311l8 -85z" />
    <glyph glyph-name="w" unicode="w" horiz-adv-x="822" 
d="M669 437l-64 15l13 80l242 8l-14 -85l-42 -13l-202 -442h-149l-42 300l-121 -300h-148l-69 439l-64 13l13 80l190 8l41 -375l141 361l116 16l49 -377z" />
    <glyph glyph-name="x" unicode="x" horiz-adv-x="548" 
d="M569 455l-71 -16l-138 -168l87 -173l76 -14l-13 -79l-171 -10l-84 184l-127 -179h-154l13 80l67 23l136 172l-85 162l-71 15l13 80l166 8l79 -177l128 172l163 5z" />
    <glyph glyph-name="y" unicode="y" horiz-adv-x="563" 
d="M9 452l12 80l192 8l68 -326l6 -62l118 286l-62 14l12 80l251 8l-14 -85l-49 -16l-191 -423c-85 -189 -133 -256 -256 -256c-60 0 -127 20 -127 20l28 100s39 -5 74 -5c68 0 91 22 125 97l-118 463z" />
    <glyph glyph-name="z" unicode="z" horiz-adv-x="498" 
d="M480 452l-286 -346h141l34 89h80l-24 -195h-418l7 90l294 345h-136l-33 -75h-83l27 180h404z" />
    <glyph glyph-name="braceleft" unicode="{" horiz-adv-x="373" 
d="M303 570l-23 -134c-11 -72 -49 -118 -110 -141c45 -19 68 -54 68 -107c0 -11 -1 -23 -3 -35l-28 -173c-2 -14 -3 -25 -3 -36c0 -51 27 -68 104 -68l-16 -101h-51c-114 0 -165 37 -165 132c0 16 1 33 4 53l29 181c2 12 3 23 3 34c0 42 -19 70 -77 70l17 100
c72 0 96 44 106 104l23 141c22 135 87 185 220 185h50l-15 -101c-94 0 -119 -24 -133 -104z" />
    <glyph glyph-name="bar" unicode="|" horiz-adv-x="295" 
d="M168 755h114l-157 -985h-114z" />
    <glyph glyph-name="braceright" unicode="}" horiz-adv-x="372" 
d="M180 436l17 100c4 25 9 50 9 70c0 50 -27 68 -104 68l17 101h53c115 0 173 -43 162 -145l-24 -164c-3 -19 -6 -37 -6 -50c0 -43 20 -71 78 -71l-16 -100c-73 0 -99 -44 -108 -104l-25 -160c-23 -145 -87 -206 -222 -206h-51l16 101c90 0 120 24 133 104l24 152
c13 82 45 137 115 163c-46 19 -71 55 -71 109c0 10 1 21 3 32z" />
    <glyph glyph-name="asciitilde" unicode="~" horiz-adv-x="625" 
d="M113 209l-53 50s71 119 173 119c85 0 125 -67 195 -67c54 0 99 55 99 55l56 -50s-75 -120 -169 -120c-84 0 -132 67 -203 67c-51 0 -98 -54 -98 -54z" />
    <glyph glyph-name="nbspace" unicode="&#xa0;" horiz-adv-x="285" 
 />
    <glyph glyph-name="exclamdown" unicode="&#xa1;" horiz-adv-x="305" 
d="M116 448c0 58 31 109 96 109c44 0 74 -27 74 -71c0 -58 -33 -110 -98 -110c-44 0 -72 28 -72 72zM235 288l-67 -509h-148l98 504z" />
    <glyph glyph-name="cent" unicode="&#xa2;" horiz-adv-x="492" 
d="M265 609l15 88c35 3 70 5 105 7l-15 -88c61 -5 108 -31 122 -37l-28 -150h-85v69s-20 8 -52 8c-97 0 -142 -94 -142 -192c0 -57 38 -98 92 -98c61 0 101 22 129 37l42 -70c-22 -16 -89 -58 -160 -73l-17 -110h-104l17 110c-84 19 -140 87 -140 182c0 173 88 286 221 317z
" />
    <glyph glyph-name="sterling" unicode="&#xa3;" horiz-adv-x="602" 
d="M16 87l52 18c59 20 61 69 75 215h-90l15 90l86 15c3 28 6 57 10 85c16 125 94 207 239 207c119 0 201 -33 201 -33l-29 -180h-83l-13 90c-9 1 -42 6 -78 6c-58 0 -89 -37 -96 -89c-4 -28 -5 -56 -8 -84h139l-18 -107h-131l-11 -99c-8 -71 -48 -101 -52 -104h181l35 86h91
l-33 -203h-495z" />
    <glyph glyph-name="currency" unicode="&#xa4;" horiz-adv-x="616" 
d="M26 117l84 75c-7 20 -10 43 -10 69c0 53 17 103 45 143l-61 76l84 80l64 -78c32 17 70 28 110 28c39 0 74 -9 101 -25l87 76l60 -78l-83 -74c7 -21 11 -44 11 -69c0 -56 -18 -109 -48 -152l61 -74l-85 -79l-63 76c-32 -16 -67 -26 -107 -26c-41 0 -77 9 -106 27l-85 -75z
M328 404c-63 0 -104 -52 -104 -134c0 -53 28 -79 70 -79c61 0 101 53 101 133c0 53 -25 80 -67 80z" />
    <glyph glyph-name="yen" unicode="&#xa5;" horiz-adv-x="652" 
d="M194 403l-58 192l-76 22l13 83l187 5l90 -329l127 219l-68 22l14 83l283 5l-14 -88l-75 -28l-119 -186h90l-14 -90h-485l15 90h90zM369 112l71 -25l-14 -87h-296l14 87l78 25l8 51h-164l14 90h485l-15 -90h-173z" />
    <glyph glyph-name="brokenbar" unicode="&#xa6;" horiz-adv-x="272" 
d="M179 765h114l-64 -400h-114zM80 145h114l-66 -410h-113z" />
    <glyph glyph-name="section" unicode="&#xa7;" horiz-adv-x="550" 
d="M142 52l3 -90s21 -5 49 -5c48 0 91 33 91 85c0 99 -209 128 -209 278c0 88 47 148 95 177c-4 12 -15 43 -15 73c0 131 108 217 228 217c90 0 153 -31 153 -31l-29 -165h-73l-6 86s-23 5 -43 5c-55 0 -95 -35 -95 -88c0 -97 210 -137 210 -277c0 -77 -41 -136 -97 -175
c9 -18 17 -42 17 -67c0 -130 -105 -223 -231 -223c-84 0 -155 29 -155 29l32 171h75zM230 422c-11 -11 -29 -32 -29 -67c0 -58 89 -90 144 -141c16 15 30 39 30 66c0 59 -89 91 -145 142z" />
    <glyph glyph-name="dieresis" unicode="&#xa8;" horiz-adv-x="515" 
d="M102 694c0 51 29 96 83 96c38 0 62 -23 62 -61c0 -51 -32 -95 -85 -95c-37 0 -60 23 -60 60zM315 694c0 51 29 96 82 96c38 0 62 -23 62 -61c0 -51 -31 -95 -84 -95c-37 0 -60 23 -60 60z" />
    <glyph glyph-name="copyright" unicode="&#xa9;" horiz-adv-x="838" 
d="M45 345c0 215 164 374 379 374s369 -139 369 -364c0 -215 -174 -374 -389 -374s-359 138 -359 364zM147 350c0 -173 100 -275 262 -275s282 112 282 275c0 172 -110 275 -272 275s-272 -113 -272 -275zM531 273l37 -57c-18 -15 -76 -64 -152 -64c-112 0 -184 67 -184 190
c0 127 70 211 195 211c62 0 129 -30 129 -30l-3 -112h-69l-11 55c-9 3 -27 6 -48 6c-55 0 -83 -38 -83 -117c0 -82 29 -120 87 -120c42 0 87 26 102 38z" />
    <glyph glyph-name="ordfeminine" unicode="&#xaa;" horiz-adv-x="483" 
d="M447 326l-158 -5l25 108c-2 -4 -61 -115 -153 -115c-66 0 -103 63 -103 134c0 176 107 269 219 269c47 0 84 -24 84 -24l19 17h70l-49 -307l56 -12zM320 571l11 55s-22 9 -53 9c-59 0 -109 -71 -109 -176c0 -38 14 -57 34 -57c69 0 117 169 117 169zM419 235l-16 -100
h-364l16 100h364z" />
    <glyph glyph-name="guillemotleft" unicode="&#xab;" horiz-adv-x="611" 
d="M186 52l-129 178l12 77l182 170l71 -58l-136 -152l85 -160zM433 52l-133 178l12 77l186 170l71 -58l-141 -152l90 -160z" />
    <glyph glyph-name="logicalnot" unicode="&#xac;" 
d="M590 375l-47 -295h-123l29 180h-389l19 115h511z" />
    <glyph glyph-name="softhyphen" unicode="&#xad;" horiz-adv-x="385" 
d="M345 335l-20 -125h-275l20 125h275z" />
    <glyph glyph-name="registered" unicode="&#xae;" horiz-adv-x="724" 
d="M89 449c0 182 135 317 317 317c180 0 317 -124 317 -306s-146 -317 -327 -317c-180 0 -307 125 -307 306zM188 455c0 -133 80 -224 213 -224s225 91 225 224s-92 223 -225 223s-213 -90 -213 -223zM266 302v45l35 12v198l-35 14v42l143 2c72 1 123 -30 123 -91
c0 -41 -20 -68 -52 -84c2 -3 9 -9 19 -27l29 -54l32 -12v-45h-89l-39 83c-16 33 -26 38 -54 38v-64l33 -12v-45h-145zM378 476h26c26 0 50 16 50 40c0 25 -15 40 -43 40h-33v-80z" />
    <glyph glyph-name="macron" unicode="&#xaf;" horiz-adv-x="309" 
d="M309 747l-18 -105h-291l18 105h291z" />
    <glyph glyph-name="degree" unicode="&#xb0;" horiz-adv-x="407" 
d="M55 568c0 92 77 173 179 173c83 0 147 -48 147 -143c0 -92 -75 -179 -180 -179c-79 0 -146 47 -146 149zM225 649c-41 0 -70 -32 -70 -73c0 -45 23 -66 57 -66c41 0 70 33 70 78c0 42 -24 61 -57 61z" />
    <glyph glyph-name="plusminus" unicode="&#xb1;" horiz-adv-x="616" 
d="M273 405l23 147h129l-23 -147h185l-19 -117h-185l-24 -151h-129l24 151h-187l19 117h187zM535 78l-18 -114h-502l18 114h502z" />
    <glyph glyph-name="twosuperior" unicode="&#xb2;" horiz-adv-x="407" 
d="M51 280l16 100c139 97 220 149 220 204c0 22 -14 34 -46 34c-23 0 -43 -7 -43 -7l-13 -53h-83l17 132s81 25 147 25c94 0 155 -31 155 -101c0 -105 -103 -167 -188 -229h157l-17 -105h-322z" />
    <glyph glyph-name="threesuperior" unicode="&#xb3;" horiz-adv-x="389" 
d="M88 578l15 114s87 23 154 23c96 0 146 -35 146 -99c0 -60 -40 -97 -96 -112c41 -7 74 -38 74 -80c0 -109 -100 -152 -200 -152c-80 0 -148 42 -148 42l38 80s53 -27 109 -27c47 0 76 21 76 53c0 25 -18 39 -60 39h-57l11 75h54c42 0 76 14 76 55c0 21 -16 33 -48 33
c-29 0 -55 -6 -55 -6l-10 -38h-79z" />
    <glyph glyph-name="acute" unicode="&#xb4;" horiz-adv-x="290" 
d="M365 741l-52 104l-249 -172l46 -73z" />
    <glyph glyph-name="micro" unicode="&#xb5;" horiz-adv-x="648" 
d="M373 0l34 160c-4 -11 -73 -170 -188 -170c-11 0 -21 3 -30 7l-40 -232h-141l114 667l-78 20l14 80l222 8l-56 -344c-3 -21 -4 -28 -4 -34c0 -29 12 -50 41 -50c85 0 154 183 167 257l30 171h141l-70 -436l76 -17l-14 -80z" />
    <glyph glyph-name="paragraph" unicode="&#xb6;" horiz-adv-x="720" 
d="M181 -65l54 338c-87 11 -150 79 -150 179c0 137 103 253 256 253h179l198 -8l-13 -80l-80 -20l-123 -767h-122l123 767h-102l-123 -767h-194l13 82z" />
    <glyph glyph-name="periodcentered" unicode="&#xb7;" horiz-adv-x="306" 
d="M65 286c0 61 32 114 100 114c45 0 76 -28 76 -74c0 -60 -34 -114 -102 -114c-45 0 -74 29 -74 74z" />
    <glyph glyph-name="cedilla" unicode="&#xb8;" horiz-adv-x="436" 
d="M108 -204l38 55s32 -19 69 -19c30 0 55 14 55 42c0 26 -30 39 -75 39l14 87h83l-7 -44c42 -9 71 -35 71 -76c0 -70 -64 -114 -133 -114c-68 0 -115 30 -115 30z" />
    <glyph glyph-name="onesuperior" unicode="&#xb9;" horiz-adv-x="372" 
d="M65 280l14 89h89l34 211l-95 -55l-34 81l167 99h103l-53 -336h87l-14 -89h-298z" />
    <glyph glyph-name="ordmasculine" unicode="&#xba;" horiz-adv-x="496" 
d="M297 718c101 0 157 -54 157 -146c0 -147 -86 -258 -227 -258c-103 0 -163 50 -163 147c0 152 96 257 233 257zM277 627c-63 0 -95 -77 -95 -156c0 -45 24 -66 64 -66c60 0 90 80 90 154c0 43 -19 68 -59 68zM396 235l-16 -100h-364l16 100h364z" />
    <glyph glyph-name="guillemotright" unicode="&#xbb;" horiz-adv-x="611" 
d="M178 477l133 -179l-12 -77l-186 -169l-71 57l141 153l-90 159zM425 477l129 -179l-12 -77l-182 -169l-71 57l136 153l-85 159z" />
    <glyph glyph-name="onequarter" unicode="&#xbc;" horiz-adv-x="970" 
d="M872 170h58l-16 -93h-57l-12 -77h-124l12 77h-194l2 84l233 269l137 -15zM813 705l-501 -705h-142l501 705h142zM749 170l20 127l-112 -127h92zM50 280l14 89h92l33 209l-96 -55l-35 83l169 99h106l-53 -336h79l-14 -89h-295z" />
    <glyph glyph-name="onehalf" unicode="&#xbd;" horiz-adv-x="988" 
d="M50 280l14 89h92l33 209l-96 -55l-35 83l169 99h106l-53 -336h79l-14 -89h-295zM814 705l-501 -705h-142l501 705h142zM583 0l16 100c139 97 220 149 220 204c0 22 -14 34 -46 34c-23 0 -43 -7 -43 -7l-13 -53h-83l17 132s81 25 147 25c94 0 155 -31 155 -101
c0 -103 -103 -167 -188 -229h157l-17 -105h-322z" />
    <glyph glyph-name="threequarters" unicode="&#xbe;" horiz-adv-x="982" 
d="M884 170h58l-16 -93h-57l-12 -77h-124l12 77h-194l2 84l233 269l137 -15zM825 705l-501 -705h-142l501 705h142zM761 170l20 127l-112 -127h92zM90 574l15 114s87 23 154 23c96 0 146 -35 146 -99c0 -60 -40 -97 -96 -112c41 -7 74 -38 74 -80
c0 -109 -100 -152 -200 -152c-80 0 -148 42 -148 42l38 80s53 -27 109 -27c47 0 76 21 76 53c0 25 -18 39 -60 39h-57l11 75h54c42 0 76 14 76 55c0 21 -16 33 -48 33c-29 0 -55 -6 -55 -6l-10 -38h-79z" />
    <glyph glyph-name="questiondown" unicode="&#xbf;" horiz-adv-x="453" 
d="M240 448c0 58 31 109 96 109c44 0 74 -27 74 -71c0 -58 -33 -110 -98 -110c-44 0 -72 28 -72 72zM369 296v-66c0 -139 -207 -173 -207 -286c0 -40 32 -53 74 -53c43 0 90 9 90 9l8 -101s-79 -24 -156 -24c-93 0 -168 35 -168 132c0 168 223 231 229 335l3 45z" />
    <glyph glyph-name="Agrave" unicode="&#xc0;" horiz-adv-x="711" 
d="M337 957l242 -131l-38 -80l-251 103zM677 88l-15 -88h-296l14 87l79 25l-12 73h-221l-36 -76l69 -22l-14 -87h-283l14 88l67 23l307 587l154 7l115 -597zM276 292h154l-37 241z" />
    <glyph glyph-name="Aacute" unicode="&#xc1;" horiz-adv-x="711" 
d="M386 738l-38 80l245 130l53 -104zM677 88l-15 -88h-296l14 87l79 25l-12 73h-221l-36 -76l69 -22l-14 -87h-283l14 88l67 23l307 587l154 7l115 -597zM276 292h154l-37 241z" />
    <glyph glyph-name="Acircumflex" unicode="&#xc2;" horiz-adv-x="711" 
d="M252 810l172 137l87 7l130 -144l-56 -65l-127 100l-164 -100zM677 88l-15 -88h-296l14 87l79 25l-12 73h-221l-36 -76l69 -22l-14 -87h-283l14 88l67 23l307 587l154 7l115 -597zM276 292h154l-37 241z" />
    <glyph glyph-name="Atilde" unicode="&#xc3;" horiz-adv-x="711" 
d="M280 780l-38 41s61 107 141 107c68 0 102 -45 160 -45c38 0 73 42 73 42l45 -39s-59 -109 -138 -109c-68 0 -107 44 -165 44c-41 0 -78 -41 -78 -41zM677 88l-15 -88h-296l14 87l79 25l-12 73h-221l-36 -76l69 -22l-14 -87h-283l14 88l67 23l307 587l154 7l115 -597z
M276 292h154l-37 241z" />
    <glyph glyph-name="Adieresis" unicode="&#xc4;" horiz-adv-x="711" 
d="M677 88l-15 -88h-296l14 87l79 25l-12 73h-221l-36 -76l69 -22l-14 -87h-283l14 88l67 23l307 587l154 7l115 -597zM276 292h154l-37 241zM290 830c0 51 29 96 83 96c38 0 62 -23 62 -61c0 -51 -32 -95 -85 -95c-37 0 -60 23 -60 60zM503 830c0 51 29 96 82 96
c38 0 62 -23 62 -61c0 -51 -31 -95 -84 -95c-37 0 -60 23 -60 60z" />
    <glyph glyph-name="Aring" unicode="&#xc5;" horiz-adv-x="711" 
d="M43 111l307 587c-26 18 -41 47 -41 83c0 83 61 156 149 156c62 0 113 -37 113 -103c0 -52 -26 -102 -67 -131l115 -595l58 -20l-15 -88h-296l14 87l79 25l-12 73h-221l-36 -76l69 -22l-14 -87h-283l14 88zM448 865c-35 0 -56 -37 -56 -72c0 -28 13 -43 40 -43
c35 0 56 37 56 72c0 28 -12 43 -40 43zM276 292h154l-37 241z" />
    <glyph glyph-name="AE" unicode="&#xc6;" horiz-adv-x="934" 
d="M817 420l-17 -110h-198l-30 -193h175l36 84h90l-33 -201h-506l15 87l75 25l13 80h-190l-53 -84l59 -21l-15 -87h-276l14 87l71 25l300 477l-77 28l13 83l247 5h409l-31 -193h-80l-13 75h-168l-27 -167h197zM483 587l-174 -287h143l47 287h-16z" />
    <glyph glyph-name="Ccedilla" unicode="&#xc7;" horiz-adv-x="645" 
d="M203 -204l38 55s32 -19 69 -19c30 0 55 14 55 42c0 26 -30 39 -75 39l12 74c-150 6 -247 107 -247 262c0 275 163 468 393 468c118 0 217 -47 217 -47l-30 -190h-83l-13 94c-18 6 -57 18 -108 18c-141 0 -214 -161 -214 -315c0 -100 55 -161 132 -161c89 0 159 44 196 70
l53 -84c-33 -28 -111 -88 -212 -108l-6 -38c42 -9 71 -35 71 -76c0 -70 -64 -114 -133 -114c-68 0 -115 30 -115 30z" />
    <glyph glyph-name="Egrave" unicode="&#xc8;" horiz-adv-x="611" 
d="M292 957l242 -131l-38 -80l-251 103zM297 420h197l-17 -110h-198l-30 -190h175l36 81h90l-33 -201h-510l14 87l78 24l75 477l-69 29l13 83l225 5h273l-31 -193h-80l-13 73h-168z" />
    <glyph glyph-name="Eacute" unicode="&#xc9;" horiz-adv-x="611" 
d="M331 738l-38 80l245 130l53 -104zM297 420h197l-17 -110h-198l-30 -190h175l36 81h90l-33 -201h-510l14 87l78 24l75 477l-69 29l13 83l225 5h273l-31 -193h-80l-13 73h-168z" />
    <glyph glyph-name="Ecircumflex" unicode="&#xca;" horiz-adv-x="609" 
d="M211 810l172 137l87 7l130 -144l-56 -65l-127 100l-164 -100zM295 420h197l-17 -110h-198l-30 -193h175l36 84h90l-33 -201h-508l14 87l78 24l75 477l-69 29l13 83l223 5h273l-31 -193h-80l-13 75h-168z" />
    <glyph glyph-name="Edieresis" unicode="&#xcb;" horiz-adv-x="611" 
d="M224 830c0 51 29 96 83 96c38 0 62 -23 62 -61c0 -51 -32 -95 -85 -95c-37 0 -60 23 -60 60zM437 830c0 51 29 96 82 96c38 0 62 -23 62 -61c0 -51 -31 -95 -84 -95c-37 0 -60 23 -60 60zM297 420h197l-17 -110h-198l-30 -190h175l36 81h90l-33 -201h-510l14 87l78 24
l75 477l-69 29l13 83l225 5h273l-31 -193h-80l-13 73h-168z" />
    <glyph glyph-name="Igrave" unicode="&#xcc;" horiz-adv-x="378" 
d="M167 957l242 -131l-38 -80l-251 103zM295 0h-298l14 87l78 24l76 477l-69 29l13 83l298 5l-14 -88l-78 -30l-76 -476l70 -24z" />
    <glyph glyph-name="Iacute" unicode="&#xcd;" horiz-adv-x="378" 
d="M195 738l-38 80l245 130l53 -104zM295 0h-298l14 87l78 24l76 477l-69 29l13 83l298 5l-14 -88l-78 -30l-76 -476l70 -24z" />
    <glyph glyph-name="Icircumflex" unicode="&#xce;" horiz-adv-x="380" 
d="M90 807l160 137l87 7l118 -144l-56 -65l-115 100l-152 -100zM295 0h-298l14 87l78 24l76 477l-69 29l13 83l298 5l-14 -88l-78 -30l-76 -476l70 -24z" />
    <glyph glyph-name="Idieresis" unicode="&#xcf;" horiz-adv-x="379" 
d="M110 830c0 51 29 96 83 96c38 0 62 -23 62 -61c0 -51 -32 -95 -85 -95c-37 0 -60 23 -60 60zM323 830c0 51 29 96 82 96c38 0 62 -23 62 -61c0 -51 -31 -95 -84 -95c-37 0 -60 23 -60 60zM296 0h-298l14 87l78 24l76 477l-69 29l13 83l298 5l-14 -88l-78 -30l-76 -476
l70 -24z" />
    <glyph glyph-name="Eth" unicode="&#xd0;" horiz-adv-x="720" 
d="M335 705h96c156 0 259 -86 259 -250c0 -293 -164 -455 -403 -455h-285l14 87l76 25l32 198h-73l18 110h72l27 168l-68 29l13 83zM241 117h68c150 0 224 160 224 332c0 88 -36 138 -121 138h-96l-27 -167h118l-15 -110h-120z" />
    <glyph glyph-name="Ntilde" unicode="&#xd1;" horiz-adv-x="767" 
d="M301 780l-38 41s61 107 141 107c68 0 102 -45 160 -45c38 0 73 42 73 42l45 -39s-59 -109 -138 -109c-68 0 -107 44 -165 44c-41 0 -78 -41 -78 -41zM-8 0l14 87l78 24l75 477l-69 29l13 83l232 5l191 -466l55 349l-65 29l13 83l277 5l-14 -88l-77 -29l-93 -588h-155
l-193 464l-57 -353l67 -24l-14 -87h-278z" />
    <glyph glyph-name="Ograve" unicode="&#xd2;" horiz-adv-x="732" 
d="M370 957l242 -131l-38 -80l-251 103zM306 -13c-160 0 -252 92 -252 259c0 255 148 471 390 471c164 0 260 -99 260 -262c0 -257 -158 -468 -398 -468zM544 449c0 95 -41 143 -120 143c-143 0 -210 -197 -210 -334c0 -93 39 -146 117 -146c140 0 213 193 213 337z" />
    <glyph glyph-name="Oacute" unicode="&#xd3;" horiz-adv-x="732" 
d="M386 738l-38 80l245 130l53 -104zM306 -13c-160 0 -252 92 -252 259c0 255 148 471 390 471c164 0 260 -99 260 -262c0 -257 -158 -468 -398 -468zM544 449c0 95 -41 143 -120 143c-143 0 -210 -197 -210 -334c0 -93 39 -146 117 -146c140 0 213 193 213 337z" />
    <glyph glyph-name="Ocircumflex" unicode="&#xd4;" horiz-adv-x="732" 
d="M267 807l172 137l87 7l130 -144l-56 -65l-127 100l-164 -100zM306 -13c-160 0 -252 92 -252 259c0 255 148 471 390 471c164 0 260 -99 260 -262c0 -257 -158 -468 -398 -468zM544 449c0 95 -41 143 -120 143c-143 0 -210 -197 -210 -334c0 -93 39 -146 117 -146
c140 0 213 193 213 337z" />
    <glyph glyph-name="Otilde" unicode="&#xd5;" horiz-adv-x="732" 
d="M299 780l-38 41s61 107 141 107c68 0 102 -45 160 -45c38 0 73 42 73 42l45 -39s-59 -109 -138 -109c-68 0 -107 44 -165 44c-41 0 -78 -41 -78 -41zM306 -13c-160 0 -252 92 -252 259c0 255 148 471 390 471c164 0 260 -99 260 -262c0 -257 -158 -468 -398 -468z
M544 449c0 95 -41 143 -120 143c-143 0 -210 -197 -210 -334c0 -93 39 -146 117 -146c140 0 213 193 213 337z" />
    <glyph glyph-name="Odieresis" unicode="&#xd6;" horiz-adv-x="732" 
d="M306 -13c-160 0 -252 92 -252 259c0 255 148 471 390 471c164 0 260 -99 260 -262c0 -257 -158 -468 -398 -468zM544 449c0 95 -41 143 -120 143c-143 0 -210 -197 -210 -334c0 -93 39 -146 117 -146c140 0 213 193 213 337zM306 830c0 51 29 96 83 96
c38 0 62 -23 62 -61c0 -51 -32 -95 -85 -95c-37 0 -60 23 -60 60zM519 830c0 51 29 96 82 96c38 0 62 -23 62 -61c0 -51 -31 -95 -84 -95c-37 0 -60 23 -60 60z" />
    <glyph glyph-name="multiply" unicode="&#xd7;" horiz-adv-x="629" 
d="M336 354l192 170l68 -83l-191 -171l137 -169l-95 -85l-137 170l-192 -170l-68 85l191 169l-137 170l95 84z" />
    <glyph glyph-name="Oslash" unicode="&#xd8;" horiz-adv-x="738" 
d="M15 -59l97 128c-34 43 -53 103 -53 177c0 255 146 471 388 471c50 0 93 -9 130 -27l77 103l78 -51l-83 -110c36 -43 56 -102 56 -172c0 -262 -156 -472 -396 -472c-48 0 -89 8 -124 24l-92 -122zM227 222l266 356c-18 10 -41 14 -66 14c-131 0 -208 -162 -208 -315
c0 -21 3 -39 8 -55zM537 482l-266 -355c17 -10 38 -15 63 -15c124 0 209 148 209 312c0 22 -2 41 -6 58z" />
    <glyph glyph-name="Ugrave" unicode="&#xd9;" horiz-adv-x="756" 
d="M320 957l242 -131l-38 -80l-251 103zM305 587l-51 -317c-3 -20 -5 -39 -5 -56c0 -63 24 -104 108 -104c92 0 131 51 150 173l48 304l-70 30l13 83l297 5l-14 -88l-77 -30l-46 -295c-30 -190 -117 -304 -322 -304c-173 0 -238 71 -238 200c0 25 2 53 7 82l51 317l-71 30
l13 83l296 5l-14 -88z" />
    <glyph glyph-name="Uacute" unicode="&#xda;" horiz-adv-x="756" 
d="M376 738l-38 80l245 130l53 -104zM305 587l-51 -317c-3 -20 -5 -39 -5 -56c0 -63 24 -104 108 -104c92 0 131 51 150 173l48 304l-70 30l13 83l297 5l-14 -88l-77 -30l-46 -295c-30 -190 -117 -304 -322 -304c-173 0 -238 71 -238 200c0 25 2 53 7 82l51 317l-71 30
l13 83l296 5l-14 -88z" />
    <glyph glyph-name="Ucircumflex" unicode="&#xdb;" horiz-adv-x="735" 
d="M252 807l172 137l87 7l130 -144l-56 -65l-127 100l-164 -100zM295 587l-51 -317c-3 -20 -5 -39 -5 -56c0 -63 24 -104 108 -104c92 0 131 51 150 173l48 304l-70 30l13 83l297 5l-14 -88l-77 -30l-46 -295c-30 -190 -117 -304 -322 -304c-173 0 -238 71 -238 200
c0 25 2 53 7 82l51 317l-71 30l13 83l296 5l-14 -88z" />
    <glyph glyph-name="Udieresis" unicode="&#xdc;" horiz-adv-x="736" 
d="M286 830c0 51 29 96 83 96c38 0 62 -23 62 -61c0 -51 -32 -95 -85 -95c-37 0 -60 23 -60 60zM499 830c0 51 29 96 82 96c38 0 62 -23 62 -61c0 -51 -31 -95 -84 -95c-37 0 -60 23 -60 60zM295 587l-51 -317c-3 -20 -5 -39 -5 -56c0 -63 24 -104 108 -104
c92 0 131 51 150 173l48 304l-70 30l13 83l297 5l-14 -88l-77 -30l-46 -295c-30 -190 -117 -304 -322 -304c-173 0 -238 71 -238 200c0 25 2 53 7 82l51 317l-71 30l13 83l296 5l-14 -88z" />
    <glyph glyph-name="Yacute" unicode="&#xdd;" horiz-adv-x="617" 
d="M347 738l-38 80l245 130l53 -104zM411 0h-296l14 87l78 25l21 134l-107 349l-76 22l13 83l188 5l90 -329l127 219l-68 22l13 83l283 5l-14 -88l-74 -28l-229 -359l-19 -118l70 -25z" />
    <glyph glyph-name="Thorn" unicode="&#xde;" horiz-adv-x="612" 
d="M292 0h-294l13 87l78 25l75 476l-68 29l13 83l296 5l-14 -88l-78 -30l-6 -32h98c123 0 199 -50 199 -153c0 -158 -124 -242 -291 -242h-69l-7 -48l69 -25zM262 267h62c81 0 131 41 131 111c0 45 -28 67 -90 67h-75z" />
    <glyph glyph-name="germandbls" unicode="&#xdf;" horiz-adv-x="729" 
d="M42 430l15 87l103 13l4 26c21 139 127 231 274 231c138 0 217 -52 217 -143c0 -136 -145 -162 -145 -237c0 -86 186 -78 186 -214c0 -119 -113 -203 -242 -203c-88 0 -163 24 -163 24l24 159h85l3 -69s19 -9 55 -9c62 0 87 33 87 67c0 81 -186 80 -186 207
c0 147 149 154 149 243c0 49 -38 65 -85 65c-60 0 -105 -43 -117 -118l-95 -590c-21 -127 -90 -214 -223 -214c-43 0 -98 13 -98 13l17 90h61c56 0 90 29 100 94l76 478h-102z" />
    <glyph glyph-name="agrave" unicode="&#xe0;" horiz-adv-x="615" 
d="M223 841l260 -169l-38 -75l-271 132zM563 10l-215 -10l35 148c-5 -10 -88 -158 -214 -158c-88 0 -143 80 -143 181c0 250 151 379 306 379c69 0 117 -37 117 -37l29 27h91l-70 -436l77 -15zM392 347l15 83s-29 12 -73 12c-92 0 -158 -107 -158 -252c0 -53 19 -83 49 -83
c100 0 167 240 167 240z" />
    <glyph glyph-name="aacute" unicode="&#xe1;" horiz-adv-x="615" 
d="M570 741l-52 104l-249 -172l46 -73zM563 10l-215 -10l35 148c-5 -10 -88 -158 -214 -158c-88 0 -143 80 -143 181c0 250 151 379 306 379c69 0 117 -37 117 -37l29 27h91l-70 -436l77 -15zM392 347l15 83s-29 12 -73 12c-92 0 -158 -107 -158 -252c0 -53 19 -83 49 -83
c100 0 167 240 167 240z" />
    <glyph glyph-name="acircumflex" unicode="&#xe2;" horiz-adv-x="605" 
d="M146 684l172 137l87 7l130 -144l-56 -65l-127 100l-164 -100zM553 10l-212 -10l35 148c-5 -10 -88 -158 -214 -158c-88 0 -141 80 -141 181c0 250 149 379 304 379c69 0 117 -37 117 -37l29 27h88l-70 -436l77 -15zM385 347l15 83s-29 12 -73 12
c-92 0 -158 -107 -158 -252c0 -53 19 -83 49 -83c100 0 167 240 167 240z" />
    <glyph glyph-name="atilde" unicode="&#xe3;" horiz-adv-x="605" 
d="M184 637l-38 41s61 107 141 107c68 0 102 -45 160 -45c38 0 73 42 73 42l45 -39s-59 -109 -138 -109c-68 0 -107 44 -165 44c-41 0 -78 -41 -78 -41zM553 10l-212 -10l35 148c-5 -10 -88 -158 -214 -158c-88 0 -141 80 -141 181c0 250 149 379 304 379
c69 0 117 -37 117 -37l29 27h88l-70 -436l77 -15zM385 347l15 83s-29 12 -73 12c-92 0 -158 -107 -158 -252c0 -53 19 -83 49 -83c100 0 167 240 167 240z" />
    <glyph glyph-name="adieresis" unicode="&#xe4;" horiz-adv-x="615" 
d="M563 10l-215 -10l35 148c-5 -10 -88 -158 -214 -158c-88 0 -143 80 -143 181c0 250 151 379 306 379c69 0 117 -37 117 -37l29 27h91l-70 -436l77 -15zM392 347l15 83s-29 12 -73 12c-92 0 -158 -107 -158 -252c0 -53 19 -83 49 -83c100 0 167 240 167 240zM185 680
c0 51 29 96 83 96c38 0 62 -23 62 -61c0 -51 -32 -95 -85 -95c-37 0 -60 23 -60 60zM398 680c0 51 29 96 82 96c38 0 62 -23 62 -61c0 -51 -31 -95 -84 -95c-37 0 -60 23 -60 60z" />
    <glyph glyph-name="aring" unicode="&#xe5;" horiz-adv-x="615" 
d="M283 701c0 83 61 156 149 156c62 0 113 -37 113 -103c0 -82 -63 -157 -151 -157c-63 0 -111 41 -111 104zM422 785c-35 0 -56 -37 -56 -72c0 -28 13 -43 40 -43c35 0 56 37 56 72c0 28 -12 43 -40 43zM563 10l-215 -10l35 148c-5 -10 -88 -158 -214 -158
c-88 0 -143 80 -143 181c0 250 151 379 306 379c69 0 117 -37 117 -37l29 27h91l-70 -436l77 -15zM392 347l15 83s-29 12 -73 12c-92 0 -158 -107 -158 -252c0 -53 19 -83 49 -83c100 0 167 240 167 240z" />
    <glyph glyph-name="ae" unicode="&#xe6;" horiz-adv-x="811" 
d="M87 365l17 145s115 40 215 40c88 0 126 -29 137 -66c47 41 104 66 167 66c113 0 183 -58 183 -143c0 -115 -122 -188 -342 -191c0 -75 22 -111 93 -111c59 0 129 29 150 36l42 -74c-29 -20 -126 -77 -233 -77c-86 0 -145 35 -171 97c-45 -53 -115 -96 -194 -96
c-83 0 -137 49 -137 129c0 130 102 191 253 191h71l9 56c1 6 2 15 2 20c0 37 -24 55 -64 55c-51 0 -90 -13 -90 -13l-25 -64h-83zM661 389c0 32 -19 48 -57 48c-60 0 -109 -57 -129 -133c128 3 186 38 186 85zM325 226h-56c-78 0 -112 -29 -112 -76c0 -28 24 -50 52 -50
c60 0 109 70 116 126z" />
    <glyph glyph-name="ccedilla" unicode="&#xe7;" horiz-adv-x="485" 
d="M117 -204l38 55s32 -19 69 -19c30 0 55 14 55 42c0 26 -30 39 -75 39l12 77c-113 3 -188 68 -188 193c0 222 127 367 310 367c75 0 135 -31 155 -40l-27 -158h-88l-3 74s-20 9 -53 9c-101 0 -146 -127 -146 -235c0 -61 32 -95 82 -95c58 0 119 31 141 41l44 -74
c-24 -16 -78 -51 -141 -70l-8 -46c42 -9 71 -35 71 -76c0 -70 -64 -114 -133 -114c-68 0 -115 30 -115 30z" />
    <glyph glyph-name="egrave" unicode="&#xe8;" horiz-adv-x="522" 
d="M233 841l260 -169l-38 -75l-271 132zM418 141l42 -74c-29 -20 -129 -77 -235 -77c-120 0 -199 68 -199 185c0 221 137 375 301 375c118 0 190 -56 190 -143c0 -113 -125 -192 -345 -194c0 -87 35 -108 94 -108s130 29 152 36zM372 389c0 32 -19 48 -57 48
c-60 0 -111 -57 -131 -136c127 3 188 43 188 88z" />
    <glyph glyph-name="eacute" unicode="&#xe9;" horiz-adv-x="522" 
d="M545 741l-52 104l-249 -172l46 -73zM418 141l42 -74c-29 -20 -129 -77 -235 -77c-120 0 -199 68 -199 185c0 221 137 375 301 375c118 0 190 -56 190 -143c0 -113 -125 -192 -345 -194c0 -87 35 -108 94 -108s130 29 152 36zM372 389c0 32 -19 48 -57 48
c-60 0 -111 -57 -131 -136c127 3 188 43 188 88z" />
    <glyph glyph-name="ecircumflex" unicode="&#xea;" horiz-adv-x="517" 
d="M140 684l172 137l87 7l130 -144l-56 -65l-127 100l-164 -100zM418 141l42 -74c-29 -20 -129 -77 -235 -77c-120 0 -199 68 -199 185c0 221 137 375 301 375c118 0 190 -56 190 -143c0 -113 -125 -192 -345 -194c0 -87 35 -108 94 -108s130 29 152 36zM372 389
c0 32 -19 48 -57 48c-60 0 -111 -57 -131 -136c127 3 188 43 188 88z" />
    <glyph glyph-name="edieresis" unicode="&#xeb;" horiz-adv-x="522" 
d="M418 141l42 -74c-29 -20 -129 -77 -235 -77c-120 0 -199 68 -199 185c0 221 137 375 301 375c118 0 190 -56 190 -143c0 -113 -125 -192 -345 -194c0 -87 35 -108 94 -108s130 29 152 36zM372 389c0 32 -19 48 -57 48c-60 0 -111 -57 -131 -136c127 3 188 43 188 88z
M176 680c0 51 29 96 83 96c38 0 62 -23 62 -61c0 -51 -32 -95 -85 -95c-37 0 -60 23 -60 60zM389 680c0 51 29 96 82 96c38 0 62 -23 62 -61c0 -51 -31 -95 -84 -95c-37 0 -60 23 -60 60z" />
    <glyph glyph-name="igrave" unicode="&#xec;" horiz-adv-x="330" 
d="M102 841l260 -169l-38 -75l-271 132zM210 105l76 -15l-13 -80l-220 -10l68 432l-77 20l14 80l221 8z" />
    <glyph glyph-name="iacute" unicode="&#xed;" horiz-adv-x="330" 
d="M429 741l-52 104l-249 -172l46 -73zM210 105l76 -15l-13 -80l-220 -10l68 432l-77 20l14 80l221 8z" />
    <glyph glyph-name="icircumflex" unicode="&#xee;" horiz-adv-x="339" 
d="M20 681l164 137l87 7l123 -144l-59 -65l-117 100l-153 -100zM216 105l76 -15l-13 -80l-220 -10l68 432l-77 20l14 80l221 8z" />
    <glyph glyph-name="idieresis" unicode="&#xef;" horiz-adv-x="330" 
d="M60 680c0 51 29 96 83 96c38 0 62 -23 62 -61c0 -51 -32 -95 -85 -95c-37 0 -60 23 -60 60zM254 680c0 51 29 96 82 96c38 0 62 -23 62 -61c0 -51 -31 -95 -84 -95c-37 0 -60 23 -60 60zM210 105l76 -15l-13 -80l-220 -10l68 432l-77 20l14 80l221 8z" />
    <glyph glyph-name="eth" unicode="&#xf0;" horiz-adv-x="564" 
d="M534 711l-89 -48c55 -65 88 -155 88 -274c0 -242 -103 -401 -300 -401c-128 0 -207 69 -207 190c0 195 119 327 287 327c50 0 86 -25 86 -25c-7 48 -27 91 -60 126l-122 -66l-43 78l90 49c-24 14 -52 26 -77 35l53 87c49 -13 95 -33 136 -61l114 61zM255 102
c90 0 123 113 123 205c0 53 -24 83 -79 83c-85 0 -120 -108 -120 -202c0 -53 23 -86 76 -86z" />
    <glyph glyph-name="ntilde" unicode="&#xf1;" 
d="M205 630l-38 46s58 110 138 110c68 0 96 -46 154 -46c38 0 73 42 73 42l45 -46s-59 -109 -138 -109c-68 0 -98 44 -156 44c-41 0 -78 -41 -78 -41zM279 540l-34 -160c5 10 88 170 219 170c79 0 110 -50 110 -122c0 -18 -2 -38 -5 -58l-43 -265l75 -15l-13 -80l-221 -10
l55 342c2 13 4 25 4 36c0 28 -10 49 -38 49c-88 0 -160 -204 -166 -256l-29 -171h-141l69 432l-77 20l13 80z" />
    <glyph glyph-name="ograve" unicode="&#xf2;" horiz-adv-x="579" 
d="M233 841l260 -169l-38 -75l-271 132zM244 -10c-135 0 -214 76 -214 210c0 212 121 350 302 350c138 0 216 -81 216 -211c0 -212 -123 -349 -304 -349zM398 345c-2 57 -33 85 -83 85c-84 0 -135 -101 -135 -222c0 -63 25 -98 81 -98c108 0 137 137 137 235z" />
    <glyph glyph-name="oacute" unicode="&#xf3;" horiz-adv-x="579" 
d="M540 741l-52 104l-249 -172l46 -73zM244 -10c-135 0 -214 76 -214 210c0 212 121 350 302 350c138 0 216 -81 216 -211c0 -212 -123 -349 -304 -349zM398 345c-2 57 -33 85 -83 85c-84 0 -135 -101 -135 -222c0 -63 25 -98 81 -98c108 0 137 137 137 235z" />
    <glyph glyph-name="ocircumflex" unicode="&#xf4;" horiz-adv-x="574" 
d="M151 673l172 137l87 7l130 -144l-56 -65l-127 100l-164 -100zM232 -10c-130 0 -204 70 -204 195c0 220 127 365 312 365c133 0 206 -75 206 -196c0 -220 -129 -364 -314 -364zM398 345c0 62 -29 90 -79 90c-87 0 -143 -113 -143 -240c0 -60 27 -90 77 -90
c87 0 145 105 145 240z" />
    <glyph glyph-name="otilde" unicode="&#xf5;" horiz-adv-x="574" 
d="M180 638l-38 41s61 107 141 107c68 0 102 -45 160 -45c38 0 73 42 73 42l45 -39s-59 -109 -138 -109c-68 0 -107 44 -165 44c-41 0 -78 -41 -78 -41zM232 -10c-130 0 -204 70 -204 195c0 220 127 365 312 365c133 0 206 -75 206 -196c0 -220 -129 -364 -314 -364z
M398 345c0 62 -29 90 -79 90c-87 0 -143 -113 -143 -240c0 -60 27 -90 77 -90c87 0 145 105 145 240z" />
    <glyph glyph-name="odieresis" unicode="&#xf6;" horiz-adv-x="579" 
d="M244 -10c-135 0 -214 76 -214 210c0 212 121 350 302 350c138 0 216 -81 216 -211c0 -212 -123 -349 -304 -349zM398 345c-2 57 -33 85 -83 85c-84 0 -135 -101 -135 -222c0 -63 25 -98 81 -98c108 0 137 137 137 235zM176 680c0 51 29 96 83 96c38 0 62 -23 62 -61
c0 -51 -32 -95 -85 -95c-37 0 -60 23 -60 60zM389 680c0 51 29 96 82 96c38 0 62 -23 62 -61c0 -51 -31 -95 -84 -95c-37 0 -60 23 -60 60z" />
    <glyph glyph-name="divide" unicode="&#xf7;" horiz-adv-x="622" 
d="M261 461c0 60 31 112 98 112c45 0 75 -27 75 -72c0 -60 -33 -113 -100 -113c-45 0 -73 28 -73 73zM577 323l-18 -115h-509l18 115h509zM193 31c0 60 32 112 99 112c45 0 75 -27 75 -72c0 -60 -34 -113 -101 -113c-45 0 -73 28 -73 73z" />
    <glyph glyph-name="oslash" unicode="&#xf8;" horiz-adv-x="586" 
d="M-10 -75l90 122c-31 33 -47 80 -47 138c0 220 127 365 311 365c36 0 67 -6 95 -16l80 109l67 -42l-81 -109c31 -34 48 -79 48 -135c0 -222 -129 -367 -315 -367c-35 0 -65 6 -92 15l-90 -122zM185 190l176 238c-11 4 -23 7 -36 7c-86 0 -141 -107 -141 -226
c0 -7 0 -13 1 -19zM401 350l-177 -239c10 -4 22 -6 35 -6c82 0 143 92 143 218c0 9 -1 18 -1 27z" />
    <glyph glyph-name="ugrave" unicode="&#xf9;" 
d="M230 841l260 -169l-38 -75l-271 132zM362 0l34 159c-5 -10 -87 -169 -218 -169c-80 0 -110 49 -110 121c0 34 8 79 48 321l-77 20l13 80l222 8c-52 -320 -58 -356 -58 -378c0 -29 9 -50 38 -50c89 0 149 185 161 230l33 198h141l-69 -436l76 -15l-13 -79z" />
    <glyph glyph-name="uacute" unicode="&#xfa;" 
d="M555 741l-52 104l-249 -172l46 -73zM362 0l34 159c-5 -10 -87 -169 -218 -169c-80 0 -110 49 -110 121c0 34 8 79 48 321l-77 20l13 80l222 8c-52 -320 -58 -356 -58 -378c0 -29 9 -50 38 -50c89 0 149 185 161 230l33 198h141l-69 -436l76 -15l-13 -79z" />
    <glyph glyph-name="ucircumflex" unicode="&#xfb;" 
d="M150 684l172 137l87 7l130 -144l-56 -65l-127 100l-164 -100zM362 0l34 159c-5 -10 -87 -169 -218 -169c-80 0 -110 49 -110 121c0 18 1 38 5 59l43 262l-77 20l13 80l222 8l-55 -343c-2 -13 -3 -24 -3 -35c0 -29 9 -50 38 -50c89 0 149 185 161 230l33 198h141l-69 -436
l76 -15l-13 -79z" />
    <glyph glyph-name="udieresis" unicode="&#xfc;" 
d="M178 680c0 51 29 96 83 96c38 0 62 -23 62 -61c0 -51 -32 -95 -85 -95c-37 0 -60 23 -60 60zM391 680c0 51 29 96 82 96c38 0 62 -23 62 -61c0 -51 -31 -95 -84 -95c-37 0 -60 23 -60 60zM362 0l34 159c-5 -10 -87 -169 -218 -169c-80 0 -110 49 -110 121
c0 34 8 79 48 321l-77 20l13 80l222 8c-52 -320 -58 -356 -58 -378c0 -29 9 -50 38 -50c89 0 149 185 161 230l33 198h141l-69 -436l76 -15l-13 -79z" />
    <glyph glyph-name="yacute" unicode="&#xfd;" horiz-adv-x="563" 
d="M536 741l-52 104l-249 -172l46 -73zM9 452l12 80l192 8l68 -326l6 -62l118 286l-62 14l12 80l251 8l-14 -85l-49 -16l-191 -423c-85 -189 -133 -256 -256 -256c-60 0 -127 20 -127 20l28 100s39 -5 74 -5c68 0 91 22 125 97l-118 463z" />
    <glyph glyph-name="thorn" unicode="&#xfe;" horiz-adv-x="613" 
d="M279 540l-43 -152c6 12 79 162 207 162c95 0 143 -85 143 -185c0 -242 -156 -374 -315 -374c-27 0 -62 8 -77 13l-21 -131l89 -23l-13 -80h-309l13 80l78 23l126 794l-76 20l13 80l223 8zM227 193l-15 -82s32 -11 67 -11c83 0 159 106 159 242c0 45 -17 88 -56 88
c-99 0 -155 -237 -155 -237z" />
    <glyph glyph-name="ydieresis" unicode="&#xff;" horiz-adv-x="563" 
d="M154 680c0 51 29 96 83 96c38 0 62 -23 62 -61c0 -51 -32 -95 -85 -95c-37 0 -60 23 -60 60zM367 680c0 51 29 96 82 96c38 0 62 -23 62 -61c0 -51 -31 -95 -84 -95c-37 0 -60 23 -60 60zM9 452l12 80l192 8l68 -326l6 -62l118 286l-62 14l12 80l251 8l-14 -85l-49 -16
l-191 -423c-85 -189 -133 -256 -256 -256c-60 0 -127 20 -127 20l28 100s39 -5 74 -5c68 0 91 22 125 97l-118 463z" />
    <glyph glyph-name="Amacron" unicode="&#x100;" horiz-adv-x="711" 
d="M609 901l-18 -105h-291l18 105h291zM677 88l-15 -88h-296l14 87l79 25l-12 73h-221l-36 -76l69 -22l-14 -87h-283l14 88l67 23l307 587l154 7l115 -597zM276 292h154l-37 241z" />
    <glyph glyph-name="amacron" unicode="&#x101;" horiz-adv-x="605" 
d="M500 747l-18 -105h-291l18 105h291zM553 10l-212 -10l35 148c-5 -10 -88 -158 -214 -158c-88 0 -141 80 -141 181c0 250 149 379 304 379c69 0 117 -37 117 -37l29 27h88l-70 -436l77 -15zM385 347l15 83s-29 12 -73 12c-92 0 -158 -107 -158 -252c0 -53 19 -83 49 -83
c100 0 167 240 167 240z" />
    <glyph glyph-name="Abreve" unicode="&#x102;" horiz-adv-x="711" 
d="M314 930l85 9c0 -21 12 -73 65 -73c65 0 82 65 82 65l85 6c-18 -115 -106 -174 -193 -174c-75 0 -127 49 -127 129c0 13 2 29 3 38zM677 88l-15 -88h-296l14 87l79 25l-12 73h-221l-36 -76l69 -22l-14 -87h-283l14 88l67 23l307 587l154 7l115 -597zM276 292h154l-37 241
z" />
    <glyph glyph-name="abreve" unicode="&#x103;" horiz-adv-x="615" 
d="M233 779l85 9c0 -21 12 -73 65 -73c65 0 82 65 82 65l85 6c-18 -115 -106 -174 -193 -174c-75 0 -127 49 -127 129c0 13 2 29 3 38zM563 10l-215 -10l35 148c-5 -10 -88 -158 -214 -158c-88 0 -143 80 -143 181c0 250 151 379 306 379c69 0 117 -37 117 -37l29 27h91
l-70 -436l77 -15zM392 347l15 83s-29 12 -73 12c-92 0 -158 -107 -158 -252c0 -53 19 -83 49 -83c100 0 167 240 167 240z" />
    <glyph glyph-name="Aogonek" unicode="&#x104;" horiz-adv-x="711" 
d="M677 88l-15 -88c-9 -3 -165 -62 -165 -117c0 -18 13 -30 34 -30c17 0 40 7 40 7l5 -71s-53 -24 -102 -24c-52 0 -93 29 -93 83c0 86 102 135 134 152h-149l14 87l79 25l-12 73h-221l-36 -76l69 -22l-14 -87h-283l14 88l67 23l307 587l154 7l115 -597zM276 292h154
l-37 241z" />
    <glyph glyph-name="aogonek" unicode="&#x105;" horiz-adv-x="605" 
d="M566 89l-13 -79c-7 -4 -137 -72 -137 -127c0 -18 13 -30 34 -30c17 0 40 7 40 7l5 -71s-53 -24 -102 -24c-52 0 -93 29 -93 83c0 83 93 138 128 156l-87 -4l35 148c-5 -10 -88 -158 -214 -158c-88 0 -141 80 -141 181c0 250 149 379 304 379c69 0 117 -37 117 -37l29 27
h88l-70 -436zM385 347l15 83s-29 12 -73 12c-92 0 -158 -107 -158 -252c0 -53 19 -83 49 -83c100 0 167 240 167 240z" />
    <glyph glyph-name="Cacute" unicode="&#x106;" horiz-adv-x="645" 
d="M385 738l-38 80l245 130l53 -104zM552 480l-13 94c-18 6 -57 18 -108 18c-141 0 -214 -161 -214 -315c0 -100 55 -161 132 -161c89 0 159 44 196 70l53 -84c-40 -34 -147 -115 -282 -115c-158 0 -261 102 -261 262c0 275 163 468 393 468c118 0 217 -47 217 -47l-30 -190
h-83z" />
    <glyph glyph-name="cacute" unicode="&#x107;" horiz-adv-x="485" 
d="M534 741l-52 104l-249 -172l46 -73zM400 151l43 -79c-22 -15 -118 -82 -228 -82c-115 0 -187 68 -187 193c0 222 127 367 310 367c75 0 135 -31 155 -40l-25 -158h-88l-5 70s-20 9 -53 9c-101 0 -146 -120 -146 -228c0 -58 31 -93 82 -93c58 0 120 31 142 41z" />
    <glyph glyph-name="Ccircumflex" unicode="&#x108;" horiz-adv-x="645" 
d="M258 807l172 137l87 7l130 -144l-56 -65l-127 100l-164 -100zM552 480l-13 94c-18 6 -57 18 -108 18c-141 0 -214 -161 -214 -315c0 -100 55 -161 132 -161c89 0 159 44 196 70l53 -84c-40 -34 -147 -115 -282 -115c-158 0 -261 102 -261 262c0 275 163 468 393 468
c118 0 217 -47 217 -47l-30 -190h-83z" />
    <glyph glyph-name="ccircumflex" unicode="&#x109;" horiz-adv-x="485" 
d="M151 684l172 137l87 7l130 -144l-56 -65l-127 100l-164 -100zM399 146l44 -74c-33 -23 -126 -82 -218 -82c-118 0 -197 65 -197 193c0 222 127 367 310 367c75 0 135 -31 155 -40l-27 -158h-88l-3 74s-20 9 -53 9c-101 0 -146 -127 -146 -235c0 -61 32 -95 82 -95
c58 0 119 31 141 41z" />
    <glyph glyph-name="Cdotaccent" unicode="&#x10a;" horiz-adv-x="645" 
d="M400 829c0 46 33 96 86 96c41 0 60 -22 60 -60c0 -61 -44 -96 -86 -96c-40 0 -60 21 -60 60zM552 480l-13 94c-18 6 -57 18 -108 18c-141 0 -214 -161 -214 -315c0 -100 55 -161 132 -161c89 0 159 44 196 70l53 -84c-40 -34 -147 -115 -282 -115
c-158 0 -261 102 -261 262c0 275 163 468 393 468c118 0 217 -47 217 -47l-30 -190h-83z" />
    <glyph glyph-name="cdotaccent" unicode="&#x10b;" horiz-adv-x="485" 
d="M290 680c0 46 33 96 86 96c41 0 60 -22 60 -60c0 -61 -44 -96 -86 -96c-40 0 -60 21 -60 60zM400 151l43 -79c-22 -15 -118 -82 -228 -82c-115 0 -187 68 -187 193c0 222 127 367 310 367c75 0 135 -31 155 -40l-25 -158h-88l-5 70s-20 9 -53 9
c-101 0 -146 -120 -146 -228c0 -58 31 -93 82 -93c58 0 120 31 142 41z" />
    <glyph glyph-name="Ccaron" unicode="&#x10c;" horiz-adv-x="645" 
d="M648 885l-159 -127l-87 -8l-125 134l65 60l114 -93l151 93zM552 480l-13 94c-18 6 -57 18 -108 18c-141 0 -214 -161 -214 -315c0 -100 55 -161 132 -161c89 0 159 44 196 70l53 -84c-40 -34 -147 -115 -282 -115c-158 0 -261 102 -261 262c0 275 163 468 393 468
c118 0 217 -47 217 -47l-30 -190h-83z" />
    <glyph glyph-name="ccaron" unicode="&#x10d;" horiz-adv-x="485" 
d="M570 766l-176 -154l-83 -7l-138 162l62 57l124 -118l173 119zM400 151l43 -79c-22 -15 -118 -82 -228 -82c-115 0 -187 68 -187 193c0 222 127 367 310 367c75 0 135 -31 155 -40l-25 -158h-88l-5 70s-20 9 -53 9c-101 0 -146 -120 -146 -228c0 -58 31 -93 82 -93
c58 0 120 31 142 41z" />
    <glyph glyph-name="Dcaron" unicode="&#x10e;" horiz-adv-x="711" 
d="M614 885l-159 -127l-87 -8l-125 134l65 60l114 -93l151 93zM336 705h93c156 0 257 -86 257 -250c0 -293 -162 -455 -402 -455h-282l14 87l78 24l75 477l-69 29l13 83zM242 117h65c150 0 222 160 222 332c0 76 -38 138 -120 138h-92z" />
    <glyph glyph-name="dcaron" unicode="&#x10f;" horiz-adv-x="736" 
d="M702 510l-69 28c38 77 63 174 70 237l129 5c-13 -80 -76 -196 -130 -270zM558 5l-209 -5l37 148c-5 -10 -87 -158 -214 -158c-89 0 -141 79 -141 181c0 249 150 379 305 379c47 0 87 -19 87 -19l23 136l-77 20l12 80l222 8l-108 -671l76 -15zM393 347l14 83
s-28 12 -70 12c-103 0 -158 -124 -158 -250c0 -53 18 -85 49 -85c100 0 165 240 165 240z" />
    <glyph glyph-name="Dcroat" unicode="&#x110;" horiz-adv-x="720" 
d="M335 705h96c156 0 259 -86 259 -250c0 -293 -164 -455 -403 -455h-285l14 87l76 25l32 198h-73l18 110h72l27 168l-68 29l13 83zM241 117h68c150 0 224 160 224 332c0 88 -36 138 -121 138h-96l-27 -167h118l-15 -110h-120z" />
    <glyph glyph-name="dcroat" unicode="&#x111;" horiz-adv-x="610" 
d="M443 649l3 18l-77 20l12 80l222 8l-20 -126h82l-14 -80h-81l-75 -465l76 -15l-13 -84l-209 -5l37 148c-5 -10 -87 -158 -214 -158c-89 0 -141 79 -141 181c0 249 150 379 305 379c47 0 87 -19 87 -19l6 38h-99l14 80h99zM393 347l14 83s-28 12 -70 12
c-103 0 -158 -124 -158 -250c0 -53 18 -85 49 -85c100 0 165 240 165 240z" />
    <glyph glyph-name="Emacron" unicode="&#x112;" horiz-adv-x="609" 
d="M561 901l-18 -105h-291l18 105h291zM295 420h197l-17 -110h-198l-30 -193h175l36 84h90l-33 -201h-508l14 87l78 24l75 477l-69 29l13 83l223 5h273l-31 -193h-80l-13 75h-168z" />
    <glyph glyph-name="emacron" unicode="&#x113;" horiz-adv-x="517" 
d="M480 747l-18 -105h-291l18 105h291zM418 141l42 -74c-29 -20 -129 -77 -235 -77c-120 0 -199 68 -199 185c0 221 137 375 301 375c118 0 190 -56 190 -143c0 -113 -125 -192 -345 -194c0 -87 35 -108 94 -108s130 29 152 36zM372 389c0 32 -19 48 -57 48
c-60 0 -111 -57 -131 -136c127 3 188 43 188 88z" />
    <glyph glyph-name="Ebreve" unicode="&#x114;" horiz-adv-x="609" 
d="M283 930l85 9c0 -21 12 -73 65 -73c65 0 82 65 82 65l85 6c-18 -115 -106 -174 -193 -174c-75 0 -127 49 -127 129c0 13 2 29 3 38zM297 420h197l-17 -110h-198l-30 -190h175l36 81h90l-33 -201h-510l14 87l78 24l75 477l-69 29l13 83l225 5h273l-31 -193h-80l-13 73
h-168z" />
    <glyph glyph-name="ebreve" unicode="&#x115;" horiz-adv-x="522" 
d="M222 779l85 9c0 -21 12 -73 65 -73c65 0 82 65 82 65l85 6c-18 -115 -106 -174 -193 -174c-75 0 -127 49 -127 129c0 13 2 29 3 38zM418 141l42 -74c-29 -20 -129 -77 -235 -77c-120 0 -199 68 -199 185c0 221 137 375 301 375c118 0 190 -56 190 -143
c0 -113 -125 -192 -345 -194c0 -87 35 -108 94 -108s130 29 152 36zM372 389c0 32 -19 48 -57 48c-60 0 -111 -57 -131 -136c127 3 188 43 188 88z" />
    <glyph glyph-name="Edotaccent" unicode="&#x116;" horiz-adv-x="611" 
d="M350 829c0 46 33 96 86 96c41 0 60 -22 60 -60c0 -61 -44 -96 -86 -96c-40 0 -60 21 -60 60zM297 420h197l-17 -110h-198l-30 -190h175l36 81h90l-33 -201h-510l14 87l78 24l75 477l-69 29l13 83l225 5h273l-31 -193h-80l-13 73h-168z" />
    <glyph glyph-name="edotaccent" unicode="&#x117;" horiz-adv-x="522" 
d="M305 680c0 46 33 96 86 96c41 0 60 -22 60 -60c0 -61 -44 -96 -86 -96c-40 0 -60 21 -60 60zM418 141l42 -74c-29 -20 -129 -77 -235 -77c-120 0 -199 68 -199 185c0 221 137 375 301 375c118 0 190 -56 190 -143c0 -113 -125 -192 -345 -194c0 -87 35 -108 94 -108
s130 29 152 36zM372 389c0 32 -19 48 -57 48c-60 0 -111 -57 -131 -136c127 3 188 43 188 88z" />
    <glyph glyph-name="Eogonek" unicode="&#x118;" horiz-adv-x="609" 
d="M295 420h197l-17 -110h-198l-30 -193h175l36 84h90l-33 -201c-1 0 -121 -67 -121 -117c0 -18 13 -30 34 -30c17 0 40 7 40 7l5 -71s-53 -24 -102 -24c-52 0 -93 29 -93 83c0 82 94 136 125 152h-396l14 87l78 24l75 477l-69 29l13 83l223 5h273l-31 -193h-80l-13 75h-168
z" />
    <glyph glyph-name="eogonek" unicode="&#x119;" horiz-adv-x="517" 
d="M348 -140l5 -71s-53 -24 -102 -24c-52 0 -93 29 -93 83c0 61 49 108 99 144c-10 -1 -21 -2 -32 -2c-120 0 -199 68 -199 185c0 221 137 375 301 375c118 0 190 -56 190 -143c0 -113 -125 -192 -345 -194c0 -87 35 -108 94 -108s130 29 152 36l42 -74l-11 -7
c-39 -27 -175 -125 -175 -177c0 -18 13 -30 34 -30c17 0 40 7 40 7zM184 301c127 3 188 43 188 88c0 32 -19 48 -57 48c-60 0 -111 -57 -131 -136z" />
    <glyph glyph-name="Ecaron" unicode="&#x11a;" horiz-adv-x="611" 
d="M597 885l-159 -127l-87 -8l-125 134l65 60l114 -93l151 93zM297 420h197l-17 -110h-198l-30 -190h175l36 81h90l-33 -201h-510l14 87l78 24l75 477l-69 29l13 83l225 5h273l-31 -193h-80l-13 73h-168z" />
    <glyph glyph-name="ecaron" unicode="&#x11b;" horiz-adv-x="522" 
d="M573 766l-176 -154l-83 -7l-138 162l62 57l124 -118l173 119zM418 141l42 -74c-29 -20 -129 -77 -235 -77c-120 0 -199 68 -199 185c0 221 137 375 301 375c118 0 190 -56 190 -143c0 -113 -125 -192 -345 -194c0 -87 35 -108 94 -108s130 29 152 36zM372 389
c0 32 -19 48 -57 48c-60 0 -111 -57 -131 -136c127 3 188 43 188 88z" />
    <glyph glyph-name="Gcircumflex" unicode="&#x11c;" horiz-adv-x="716" 
d="M258 807l172 137l87 7l130 -144l-56 -65l-127 100l-164 -100zM627 262l-31 -203c-61 -34 -156 -71 -277 -71c-160 0 -264 97 -264 261c0 276 166 468 396 468c118 0 220 -47 220 -47l-31 -178h-83l-13 83s-55 17 -112 17c-137 0 -217 -156 -217 -315
c0 -107 57 -165 144 -165c45 0 81 8 111 19l22 131l-75 23l13 80l281 5l-13 -85z" />
    <glyph glyph-name="gcircumflex" unicode="&#x11d;" horiz-adv-x="589" 
d="M172 684l172 137l87 7l130 -144l-56 -65l-127 100l-164 -100zM12 -203l33 98s94 -34 161 -34c86 0 127 44 144 124l35 166c-6 -10 -91 -161 -211 -161c-87 0 -144 75 -144 176c0 248 151 384 303 384c69 0 117 -37 117 -37l29 27h88l-88 -552
c-26 -160 -109 -240 -253 -240c-99 0 -214 48 -214 49zM393 347l14 83s-28 12 -72 12c-93 0 -158 -108 -158 -251c0 -54 19 -84 49 -84c101 0 167 240 167 240z" />
    <glyph glyph-name="Gbreve" unicode="&#x11e;" horiz-adv-x="716" 
d="M335 930l85 9c0 -21 12 -73 65 -73c65 0 82 65 82 65l85 6c-18 -115 -106 -174 -193 -174c-75 0 -127 49 -127 129c0 13 2 29 3 38zM627 262l-31 -203c-61 -34 -156 -71 -277 -71c-160 0 -264 97 -264 261c0 276 166 468 396 468c118 0 220 -47 220 -47l-31 -178h-83
l-13 83s-55 17 -112 17c-137 0 -217 -156 -217 -315c0 -107 57 -165 144 -165c45 0 81 8 111 19l22 131l-75 23l13 80l281 5l-13 -85z" />
    <glyph glyph-name="gbreve" unicode="&#x11f;" horiz-adv-x="589" 
d="M230 779l85 9c0 -21 12 -73 65 -73c65 0 82 65 82 65l85 6c-18 -115 -106 -174 -193 -174c-75 0 -127 49 -127 129c0 13 2 29 3 38zM12 -203l33 98s94 -34 161 -34c86 0 127 44 144 124l35 166c-6 -10 -91 -161 -211 -161c-87 0 -144 75 -144 176c0 248 151 384 303 384
c69 0 117 -37 117 -37l29 27h88l-88 -552c-26 -160 -109 -240 -253 -240c-99 0 -214 48 -214 49zM393 347l14 83s-28 12 -72 12c-93 0 -158 -108 -158 -251c0 -54 19 -84 49 -84c101 0 167 240 167 240z" />
    <glyph glyph-name="Gdotaccent" unicode="&#x120;" horiz-adv-x="716" 
d="M395 829c0 46 33 96 86 96c41 0 60 -22 60 -60c0 -61 -44 -96 -86 -96c-40 0 -60 21 -60 60zM627 262l-31 -203c-61 -34 -156 -71 -277 -71c-160 0 -264 97 -264 261c0 276 166 468 396 468c118 0 220 -47 220 -47l-31 -178h-83l-13 83s-55 17 -112 17
c-137 0 -217 -156 -217 -315c0 -107 57 -165 144 -165c45 0 81 8 111 19l22 131l-75 23l13 80l281 5l-13 -85z" />
    <glyph glyph-name="gdotaccent" unicode="&#x121;" horiz-adv-x="589" 
d="M297 680c0 46 33 96 86 96c41 0 60 -22 60 -60c0 -61 -44 -96 -86 -96c-40 0 -60 21 -60 60zM12 -203l33 98s94 -34 161 -34c86 0 127 44 144 124l35 166c-6 -10 -91 -161 -211 -161c-87 0 -144 75 -144 176c0 248 151 384 303 384c69 0 117 -37 117 -37l29 27h88
l-88 -552c-26 -160 -109 -240 -253 -240c-99 0 -214 48 -214 49zM393 347l14 83s-28 12 -72 12c-93 0 -158 -108 -158 -251c0 -54 19 -84 49 -84c101 0 167 240 167 240z" />
    <glyph glyph-name="Gcommaaccent" unicode="&#x122;" horiz-adv-x="716" 
d="M627 262l-31 -203c-61 -34 -156 -71 -277 -71c-160 0 -264 97 -264 261c0 276 166 468 396 468c118 0 220 -47 220 -47l-31 -178h-83l-13 83s-55 17 -112 17c-137 0 -217 -156 -217 -315c0 -107 57 -165 144 -165c45 0 81 8 111 19l22 131l-75 23l13 80l281 5l-13 -85z
M262 -329l-50 53c30 28 61 53 61 87c0 19 -12 31 -12 59c0 50 39 80 79 80s60 -25 60 -65c0 -86 -90 -171 -138 -214z" />
    <glyph glyph-name="gcommaaccent" unicode="&#x123;" horiz-adv-x="589" 
d="M346 583l-50 53c30 28 61 53 61 87c0 19 -12 31 -12 59c0 50 39 80 79 80s60 -25 60 -65c0 -86 -90 -171 -138 -214zM12 -203l33 98s94 -34 161 -34c86 0 127 44 144 124l35 166c-6 -10 -91 -161 -211 -161c-87 0 -144 75 -144 176c0 248 151 384 303 384
c69 0 117 -37 117 -37l29 27h88l-88 -552c-26 -160 -109 -240 -253 -240c-99 0 -214 48 -214 49zM393 347l14 83s-28 12 -72 12c-93 0 -158 -108 -158 -251c0 -54 19 -84 49 -84c101 0 167 240 167 240z" />
    <glyph glyph-name="Hcircumflex" unicode="&#x124;" horiz-adv-x="777" 
d="M270 807l172 137l87 7l130 -144l-56 -65l-127 100l-164 -100zM694 0h-296l14 87l78 24l31 194h-255l-31 -194l70 -24l-14 -87h-294l14 87l77 24l76 477l-69 29l13 83l295 5l-14 -88l-78 -30l-27 -165h255l27 166l-71 29l13 83l297 5l-14 -88l-78 -30l-76 -476l71 -24z
" />
    <glyph glyph-name="hcircumflex" unicode="&#x125;" horiz-adv-x="632" 
d="M44 857l172 137l87 7l130 -144l-56 -65l-127 100l-164 -100zM311 775l-70 -395c4 10 84 170 215 170c80 0 109 -48 109 -121c0 -18 -2 -38 -5 -59l-42 -265l75 -15l-13 -80l-221 -10l56 342c2 13 3 25 3 36c0 28 -9 49 -38 49c-88 0 -149 -185 -160 -245l-33 -182h-141
l107 667l-77 20l13 80z" />
    <glyph glyph-name="Hbar" unicode="&#x126;" horiz-adv-x="788" 
d="M165 564l4 24l-69 29l13 83l295 5l-14 -88l-78 -30l-4 -23h255l4 24l-71 29l13 83l297 5l-14 -88l-78 -30l-4 -23h75l-14 -90h-75l-58 -363l71 -24l-14 -87h-296l14 87l78 24l31 194h-255l-31 -194l70 -24l-14 -87h-294l14 87l77 24l58 363h-74l14 90h74zM552 474h-255
l-8 -52h255z" />
    <glyph glyph-name="hbar" unicode="&#x127;" horiz-adv-x="632" 
d="M288 646h106l-12 -80h-108l-33 -186c4 10 84 170 215 170c80 0 109 -48 109 -121c0 -18 -2 -38 -5 -59l-42 -265l75 -15l-13 -80l-221 -10l56 342c2 13 3 25 3 36c0 28 -9 49 -38 49c-88 0 -149 -185 -160 -245l-33 -182h-141l91 566h-79l13 80h78l4 21l-77 20l13 80
l222 8z" />
    <glyph glyph-name="Itilde" unicode="&#x128;" horiz-adv-x="379" 
d="M105 780l-38 41s61 107 141 107c68 0 102 -45 160 -45c38 0 73 42 73 42l45 -39s-59 -109 -138 -109c-68 0 -107 44 -165 44c-41 0 -78 -41 -78 -41zM295 0h-298l14 87l78 24l76 477l-69 29l13 83l298 5l-14 -88l-78 -30l-76 -476l70 -24z" />
    <glyph glyph-name="itilde" unicode="&#x129;" horiz-adv-x="330" 
d="M32 630l-38 46s53 110 133 110c64 0 90 -46 144 -46c38 0 68 42 68 42l45 -46s-54 -109 -133 -109c-64 0 -92 44 -146 44c-41 0 -73 -41 -73 -41zM210 105l76 -15l-13 -80l-220 -10l68 432l-77 20l14 80l221 8z" />
    <glyph glyph-name="Imacron" unicode="&#x12a;" horiz-adv-x="378" 
d="M438 901l-18 -105h-291l18 105h291zM295 0h-298l14 87l78 24l76 477l-69 29l13 83l298 5l-14 -88l-78 -30l-76 -476l70 -24z" />
    <glyph glyph-name="imacron" unicode="&#x12b;" horiz-adv-x="325" 
d="M360 747l-18 -105h-282l18 105h282zM210 105l76 -15l-13 -80l-220 -10l68 432l-77 20l14 80l221 8z" />
    <glyph glyph-name="Ibreve" unicode="&#x12c;" horiz-adv-x="378" 
d="M139 930l85 9c0 -21 12 -73 65 -73c65 0 82 65 82 65l85 6c-18 -115 -106 -174 -193 -174c-75 0 -127 49 -127 129c0 13 2 29 3 38zM295 0h-298l14 87l78 24l76 477l-69 29l13 83l298 5l-14 -88l-78 -30l-76 -476l70 -24z" />
    <glyph glyph-name="ibreve" unicode="&#x12d;" horiz-adv-x="330" 
d="M60 779l85 9c0 -21 12 -73 65 -73c65 0 82 65 82 65l85 6c-18 -115 -106 -174 -193 -174c-75 0 -127 49 -127 129c0 13 2 29 3 38zM210 105l76 -15l-13 -80l-220 -10l68 432l-77 20l14 80l221 8z" />
    <glyph glyph-name="Iogonek" unicode="&#x12e;" horiz-adv-x="378" 
d="M309 87l-14 -87c-8 -3 -154 -68 -154 -117c0 -18 13 -30 34 -30c17 0 40 7 40 7l5 -71s-53 -24 -102 -24c-52 0 -93 29 -93 83c0 84 100 135 134 152h-162l14 87l78 24l76 477l-69 29l13 83l298 5l-14 -88l-78 -30l-76 -476z" />
    <glyph glyph-name="iogonek" unicode="&#x12f;" horiz-adv-x="330" 
d="M143 685c0 59 37 110 95 110c40 0 69 -24 69 -70c0 -61 -37 -112 -93 -112c-42 0 -71 24 -71 72zM210 105l76 -15l-13 -80c-7 -4 -137 -72 -137 -127c0 -18 13 -30 34 -30c17 0 40 7 40 7l5 -71s-53 -24 -102 -24c-52 0 -93 29 -93 83c0 83 94 139 128 156l-95 -4l68 432
l-77 20l14 80l221 8z" />
    <glyph glyph-name="Idotaccent" unicode="&#x130;" horiz-adv-x="378" 
d="M210 829c0 46 33 96 86 96c41 0 60 -22 60 -60c0 -61 -44 -96 -86 -96c-40 0 -60 21 -60 60zM295 0h-298l14 87l78 24l76 477l-69 29l13 83l298 5l-14 -88l-78 -30l-76 -476l70 -24z" />
    <glyph glyph-name="dotlessi" unicode="&#x131;" horiz-adv-x="330" 
d="M210 105l76 -15l-13 -80l-220 -10l68 432l-77 20l14 80l221 8z" />
    <glyph glyph-name="IJ" unicode="&#x132;" horiz-adv-x="709" 
d="M744 617l-78 -30l-78 -485c-28 -172 -91 -259 -259 -259c-31 0 -73 7 -73 7l29 100h47c54 0 90 34 100 96l86 542l-105 29l-98 -30l-76 -476l65 -24l-14 -87h-293l14 87l78 24l76 477l-69 29l13 83l308 5h341z" />
    <glyph glyph-name="ij" unicode="&#x133;" horiz-adv-x="635" 
d="M138 685c0 59 37 110 95 110c40 0 69 -24 69 -70c0 -61 -37 -112 -93 -112c-42 0 -71 24 -71 72zM475 685c0 59 37 110 95 110c41 0 70 -24 70 -70c0 -61 -37 -112 -94 -112c-41 0 -71 24 -71 72zM376 452l14 80l222 8l-94 -583c-20 -125 -97 -202 -221 -202
c-43 0 -100 15 -100 15l20 88c11 0 35 -3 63 -3c71 0 86 38 102 129l31 181c-25 -35 -100 -173 -235 -173c-80 0 -109 48 -109 121c0 18 2 38 5 59l42 260l-77 20l15 80l221 10l-56 -342c-2 -13 -3 -25 -3 -36c0 -28 9 -49 38 -49c83 0 173 157 184 217l16 100z" />
    <glyph glyph-name="Jcircumflex" unicode="&#x134;" horiz-adv-x="369" 
d="M99 807l160 137l87 7l118 -144l-56 -65l-115 100l-152 -100zM325 587l-78 -485c-28 -172 -93 -259 -261 -259c-31 0 -73 7 -73 7l29 100h47c54 0 90 34 100 96l86 542l-69 29l13 83l298 5l-14 -88z" />
    <glyph glyph-name="jcircumflex" unicode="&#x135;" horiz-adv-x="329" 
d="M5 684l172 137l87 7l130 -144l-56 -65l-127 100l-164 -100zM62 532l222 8l-94 -583c-20 -125 -97 -202 -221 -202c-43 0 -100 15 -100 15l20 88c11 0 35 -3 63 -3c71 0 87 38 102 129l72 448l-78 20z" />
    <glyph glyph-name="Kcommaaccent" unicode="&#x136;" horiz-adv-x="670" 
d="M657 0h-286l14 87l57 21l-103 197h-72l-31 -194l68 -24l-14 -87h-293l14 87l78 24l75 477l-69 29l13 83l294 5l-14 -88l-77 -29l-27 -173h65l208 285l165 5l-14 -88l-76 -30l-169 -220l142 -257l66 -23zM230 -329l-50 53c30 28 61 53 61 87c0 19 -12 31 -12 59
c0 50 39 80 79 80s60 -25 60 -65c0 -86 -90 -171 -138 -214z" />
    <glyph glyph-name="kcommaaccent" unicode="&#x137;" horiz-adv-x="544" 
d="M240 335h59l91 110l-41 12l13 78l233 5l-14 -83l-59 -13l-126 -151c11 -13 19 -30 30 -61l47 -128l76 -24l-13 -80h-168l-59 172c-18 53 -26 73 -53 73h-30l-39 -245h-141l107 667l-77 20l13 80l222 8zM194 -329l-50 53c30 28 61 53 61 87c0 19 -12 31 -12 59
c0 50 39 80 79 80s60 -25 60 -65c0 -86 -90 -171 -138 -214z" />
    <glyph glyph-name="kgreenlandic" unicode="&#x138;" horiz-adv-x="560" 
d="M252 339h65l82 102l-40 14l12 80l238 5l-13 -85l-65 -12l-118 -137l83 -203l72 -23l-11 -80h-173l-88 244h-59l-40 -244h-144l69 433l-78 19l14 81l227 9z" />
    <glyph glyph-name="Lacute" unicode="&#x139;" horiz-adv-x="529" 
d="M191 738l-38 80l245 130l53 -104zM386 120l40 110h92l-38 -230h-488l14 87l78 24l75 477l-69 29l13 83l301 5l-14 -88l-81 -29l-75 -468h152z" />
    <glyph glyph-name="lacute" unicode="&#x13a;" horiz-adv-x="321" 
d="M148 788l-38 80l245 130l53 -104zM206 105l76 -15l-13 -80l-223 -10l107 667l-77 20l13 80l224 8z" />
    <glyph glyph-name="Lcommaaccent" unicode="&#x13b;" horiz-adv-x="527" 
d="M384 117l40 113h92l-38 -230h-486l14 87l78 24l75 477l-69 29l13 83l299 5l-14 -88l-81 -29l-75 -471h152zM156 -329l-50 53c30 28 61 53 61 87c0 19 -12 31 -12 59c0 50 39 80 79 80s60 -25 60 -65c0 -86 -90 -171 -138 -214z" />
    <glyph glyph-name="lcommaaccent" unicode="&#x13c;" horiz-adv-x="321" 
d="M206 105l76 -15l-13 -80l-223 -10l107 667l-77 20l13 80l224 8zM44 -329l-50 53c30 28 61 53 61 87c0 19 -12 31 -12 59c0 50 39 80 79 80s60 -25 60 -65c0 -86 -90 -171 -138 -214z" />
    <glyph glyph-name="Lcaron" unicode="&#x13d;" horiz-adv-x="554" 
d="M386 120l40 110h92l-38 -230h-488l14 87l78 24l75 477l-69 29l13 83l301 5l-14 -88l-81 -29l-75 -468h152zM483 435l-69 28c38 77 63 174 70 237l129 5c-13 -80 -76 -196 -130 -270z" />
    <glyph glyph-name="lcaron" unicode="&#x13e;" horiz-adv-x="439" 
d="M400 510l-69 28c38 77 63 174 70 237l129 5c-13 -80 -76 -196 -130 -270zM206 105l76 -15l-13 -80l-223 -10l107 667l-77 20l13 80l224 8z" />
    <glyph glyph-name="Ldot" unicode="&#x13f;" horiz-adv-x="527" 
d="M384 117l40 113h92l-38 -230h-486l14 87l78 24l75 477l-69 29l13 83l299 5l-14 -88l-81 -29l-75 -471h152zM340 356c0 61 32 114 100 114c45 0 76 -28 76 -74c0 -60 -34 -114 -102 -114c-45 0 -74 29 -74 74z" />
    <glyph glyph-name="ldot" unicode="&#x140;" horiz-adv-x="486" 
d="M206 105l76 -15l-13 -80l-223 -10l107 667l-77 20l13 80l224 8zM308 292c0 61 32 114 100 114c45 0 76 -28 76 -74c0 -60 -34 -114 -102 -114c-45 0 -74 29 -74 74z" />
    <glyph glyph-name="Lslash" unicode="&#x141;" horiz-adv-x="556" 
d="M453 482l11 -95l-176 -71l-32 -199h152l40 113h92l-38 -230h-486l14 87l78 24l22 143l-93 -37l-11 95l121 48l36 228l-69 29l13 83l299 5l-14 -88l-81 -29l-26 -165z" />
    <glyph glyph-name="lslash" unicode="&#x142;" horiz-adv-x="347" 
d="M215 105l76 -15l-13 -80l-223 -10l46 285l-97 -39l-11 100l126 51l43 270l-77 20l13 80l224 8l-51 -316l103 41l11 -100l-131 -53z" />
    <glyph glyph-name="Nacute" unicode="&#x143;" horiz-adv-x="767" 
d="M432 738l-38 80l245 130l53 -104zM-8 0l14 87l78 24l75 477l-69 29l13 83l232 5l191 -466l55 349l-65 29l13 83l277 5l-14 -88l-77 -29l-93 -588h-155l-193 464l-57 -353l67 -24l-14 -87h-278z" />
    <glyph glyph-name="nacute" unicode="&#x144;" horiz-adv-x="648" 
d="M605 741l-52 104l-249 -172l46 -73zM282 540l-34 -160c5 10 88 170 219 170c79 0 115 -50 115 -122c0 -18 -2 -38 -5 -58l-46 -265l78 -15l-13 -80l-226 -10l55 340c2 13 4 25 4 36c0 28 -10 49 -38 49c-88 0 -160 -202 -166 -254l-29 -171h-144l69 432l-77 20l13 80z
" />
    <glyph glyph-name="Ncommaaccent" unicode="&#x145;" horiz-adv-x="767" 
d="M-8 0l14 87l78 24l75 477l-69 29l13 83l232 5l191 -466l55 349l-65 29l13 83l277 5l-14 -88l-77 -29l-93 -588h-155l-193 464l-57 -353l67 -24l-14 -87h-278zM258 -329l-50 53c30 28 61 53 61 87c0 19 -12 31 -12 59c0 50 39 80 79 80s60 -25 60 -65
c0 -86 -90 -171 -138 -214z" />
    <glyph glyph-name="ncommaaccent" unicode="&#x146;" 
d="M279 540l-34 -160c5 10 88 170 219 170c79 0 110 -50 110 -122c0 -18 -2 -38 -5 -58l-43 -265l75 -15l-13 -80l-221 -10l55 342c2 13 4 25 4 36c0 28 -10 49 -38 49c-88 0 -160 -204 -166 -256l-29 -171h-141l69 432l-77 20l13 80zM192 -329l-50 53c30 28 61 53 61 87
c0 19 -12 31 -12 59c0 50 39 80 79 80s60 -25 60 -65c0 -86 -90 -171 -138 -214z" />
    <glyph glyph-name="Ncaron" unicode="&#x147;" horiz-adv-x="767" 
d="M686 885l-159 -127l-87 -8l-125 134l65 60l114 -93l151 93zM-8 0l14 87l78 24l75 477l-69 29l13 83l232 5l191 -466l55 349l-65 29l13 83l277 5l-14 -88l-77 -29l-93 -588h-155l-193 464l-57 -353l67 -24l-14 -87h-278z" />
    <glyph glyph-name="ncaron" unicode="&#x148;" horiz-adv-x="648" 
d="M622 766l-176 -154l-83 -7l-138 162l62 57l124 -118l173 119zM282 540l-34 -160c5 10 88 170 219 170c79 0 115 -50 115 -122c0 -18 -2 -38 -5 -58l-46 -265l78 -15l-13 -80l-226 -10l55 340c2 13 4 25 4 36c0 28 -10 49 -38 49c-88 0 -160 -202 -166 -254l-29 -171h-144
l69 432l-77 20l13 80z" />
    <glyph glyph-name="napostrophe" unicode="&#x149;" horiz-adv-x="656" 
d="M76 573l-50 53c30 28 61 53 61 87c0 19 -12 31 -12 59c0 50 39 80 79 80s60 -25 60 -65c0 -86 -90 -171 -138 -214zM295 540l-34 -160c5 10 88 170 219 170c79 0 110 -50 110 -122c0 -18 -2 -38 -5 -58l-43 -265l75 -15l-13 -80l-221 -10l55 342c2 13 4 25 4 36
c0 28 -10 49 -38 49c-88 0 -157 -204 -166 -256l-29 -171h-141l69 432l-77 20l13 80z" />
    <glyph glyph-name="Eng" unicode="&#x14a;" horiz-adv-x="767" 
d="M-8 0l14 87l78 24l75 477l-69 29l13 83l232 5l191 -466l55 349l-65 29l13 83l277 5l-14 -88l-77 -29l-78 -486c-28 -172 -90 -259 -258 -259c-31 0 -69 7 -69 7l29 100h51c41 0 71 18 88 50l-204 464l-57 -353l67 -24l-14 -87h-278z" />
    <glyph glyph-name="eng" unicode="&#x14b;" horiz-adv-x="643" 
d="M366 -16l55 342c2 13 5 41 5 52c0 28 -10 49 -38 49c-88 0 -160 -204 -166 -256l-29 -171h-141l69 432l-77 20l13 80l222 8l-34 -160c5 10 88 170 219 170c79 0 110 -50 110 -122c0 -18 -2 -38 -5 -58l-67 -413c-20 -125 -97 -202 -221 -202c-43 0 -100 15 -100 15l20 88
c11 0 35 -3 63 -3c69 0 87 38 102 129z" />
    <glyph glyph-name="Omacron" unicode="&#x14c;" horiz-adv-x="732" 
d="M625 901l-18 -105h-291l18 105h291zM306 -13c-160 0 -252 92 -252 259c0 255 148 471 390 471c164 0 260 -99 260 -262c0 -257 -158 -468 -398 -468zM544 449c0 95 -41 143 -120 143c-143 0 -210 -197 -210 -334c0 -93 39 -146 117 -146c140 0 213 193 213 337z" />
    <glyph glyph-name="omacron" unicode="&#x14d;" horiz-adv-x="574" 
d="M517 747l-18 -105h-291l18 105h291zM232 -10c-130 0 -204 70 -204 195c0 220 127 365 312 365c133 0 206 -75 206 -196c0 -220 -129 -364 -314 -364zM398 345c0 62 -29 90 -79 90c-87 0 -143 -113 -143 -240c0 -60 27 -90 77 -90c87 0 145 105 145 240z" />
    <glyph glyph-name="Obreve" unicode="&#x14e;" horiz-adv-x="732" 
d="M345 930l85 9c0 -21 12 -73 65 -73c65 0 82 65 82 65l85 6c-18 -115 -106 -174 -193 -174c-75 0 -127 49 -127 129c0 13 2 29 3 38zM306 -13c-160 0 -252 92 -252 259c0 255 148 471 390 471c164 0 260 -99 260 -262c0 -257 -158 -468 -398 -468zM544 449
c0 95 -41 143 -120 143c-143 0 -210 -197 -210 -334c0 -93 39 -146 117 -146c140 0 213 193 213 337z" />
    <glyph glyph-name="obreve" unicode="&#x14f;" horiz-adv-x="579" 
d="M227 779l85 9c0 -21 12 -73 65 -73c65 0 82 65 82 65l85 6c-18 -115 -106 -174 -193 -174c-75 0 -127 49 -127 129c0 13 2 29 3 38zM244 -10c-135 0 -214 76 -214 210c0 212 121 350 302 350c138 0 216 -81 216 -211c0 -212 -123 -349 -304 -349zM398 345
c-2 57 -33 85 -83 85c-84 0 -135 -101 -135 -222c0 -63 25 -98 81 -98c108 0 137 137 137 235z" />
    <glyph glyph-name="Ohungarumlaut" unicode="&#x150;" horiz-adv-x="732" 
d="M306 -13c-160 0 -252 92 -252 259c0 255 148 471 390 471c164 0 260 -99 260 -262c0 -257 -158 -468 -398 -468zM544 449c0 95 -41 143 -120 143c-143 0 -210 -197 -210 -334c0 -93 39 -146 117 -146c140 0 213 193 213 337zM290 788l181 191l66 -80l-188 -164zM499 788
l181 191l68 -83l-190 -161z" />
    <glyph glyph-name="ohungarumlaut" unicode="&#x151;" horiz-adv-x="579" 
d="M244 -10c-135 0 -214 76 -214 210c0 212 121 350 302 350c138 0 216 -81 216 -211c0 -212 -123 -349 -304 -349zM398 345c-2 57 -33 85 -83 85c-84 0 -135 -101 -135 -222c0 -63 25 -98 81 -98c108 0 137 137 137 235zM182 655l181 191l66 -80l-188 -164zM391 655
l181 191l68 -83l-190 -161z" />
    <glyph glyph-name="OE" unicode="&#x152;" horiz-adv-x="930" 
d="M813 420l-17 -110h-198l-30 -193h175l36 84h90l-33 -201h-311c-59 0 -136 -12 -215 -12c-155 0 -255 97 -255 261c0 283 166 467 382 467c61 0 120 -11 168 -11h330l-31 -193h-80l-13 75h-168l-27 -167h197zM420 117l74 470s-29 5 -64 5c-117 0 -217 -115 -217 -340
c0 -96 50 -140 129 -140c35 0 78 5 78 5z" />
    <glyph glyph-name="oe" unicode="&#x153;" horiz-adv-x="876" 
d="M772 141l42 -74c-29 -20 -126 -77 -233 -77c-71 0 -125 29 -155 79c-50 -49 -117 -77 -192 -77c-129 0 -206 63 -206 193c0 220 126 365 309 365c82 0 136 -33 167 -82c50 52 114 82 184 82c113 0 183 -56 183 -143c0 -115 -122 -189 -342 -191c0 -76 35 -111 93 -111
c59 0 129 29 150 36zM669 437c-59 0 -108 -57 -129 -133c125 3 185 36 185 85c0 29 -17 48 -56 48zM318 435c-87 -1 -142 -113 -142 -240c0 -60 27 -90 76 -90c87 0 144 105 144 240c0 62 -28 90 -78 90z" />
    <glyph glyph-name="Racute" unicode="&#x154;" horiz-adv-x="655" 
d="M326 738l-38 80l245 130l53 -104zM298 0h-296l14 87l78 25l75 475l-68 30l13 83l222 5h96c112 0 205 -54 205 -166c0 -115 -61 -194 -159 -228c14 -14 29 -46 41 -81l39 -118l68 -25l-14 -87h-175l-54 190c-20 73 -49 87 -114 87l-26 -165l69 -25zM285 382h57
c85 0 141 44 141 128c0 51 -33 77 -85 77h-80z" />
    <glyph glyph-name="racute" unicode="&#x155;" horiz-adv-x="447" 
d="M525 741l-52 104l-249 -172l46 -73zM358 342v78c-48 -13 -119 -134 -136 -239l-29 -181h-140l69 440l-77 20l12 72l222 8l-31 -150c4 10 73 160 193 160c28 0 56 -10 56 -10l-39 -198h-100z" />
    <glyph glyph-name="Rcommaaccent" unicode="&#x156;" horiz-adv-x="655" 
d="M298 0h-296l14 87l78 25l75 475l-68 30l13 83l222 5h96c112 0 205 -54 205 -166c0 -115 -61 -194 -159 -228c14 -14 29 -46 41 -81l39 -118l68 -25l-14 -87h-175l-54 190c-20 73 -49 87 -114 87l-26 -165l69 -25zM285 382h57c85 0 141 44 141 128c0 51 -33 77 -85 77h-80
zM232 -329l-50 53c30 28 61 53 61 87c0 19 -12 31 -12 59c0 50 39 80 79 80s60 -25 60 -65c0 -86 -90 -171 -138 -214z" />
    <glyph glyph-name="rcommaaccent" unicode="&#x157;" horiz-adv-x="447" 
d="M358 342v78c-48 -13 -119 -134 -136 -239l-29 -181h-140l69 440l-77 20l12 72l222 8l-31 -150c4 10 73 160 193 160c28 0 56 -10 56 -10l-39 -198h-100zM36 -329l-50 53c30 28 61 53 61 87c0 19 -12 31 -12 59c0 50 39 80 79 80s60 -25 60 -65c0 -86 -90 -171 -138 -214z
" />
    <glyph glyph-name="Rcaron" unicode="&#x158;" horiz-adv-x="655" 
d="M609 885l-159 -127l-87 -8l-125 134l65 60l114 -93l151 93zM298 0h-296l14 87l78 25l75 475l-68 30l13 83l222 5h96c112 0 205 -54 205 -166c0 -115 -61 -194 -159 -228c14 -14 29 -46 41 -81l39 -118l68 -25l-14 -87h-175l-54 190c-20 73 -49 87 -114 87l-26 -165
l69 -25zM285 382h57c85 0 141 44 141 128c0 51 -33 77 -85 77h-80z" />
    <glyph glyph-name="rcaron" unicode="&#x159;" horiz-adv-x="447" 
d="M544 766l-176 -154l-83 -7l-138 162l62 57l124 -118l173 119zM358 342v78c-48 -13 -119 -134 -136 -239l-29 -181h-140l69 440l-77 20l12 72l222 8l-31 -150c4 10 73 160 193 160c28 0 56 -10 56 -10l-39 -198h-100z" />
    <glyph glyph-name="Sacute" unicode="&#x15a;" horiz-adv-x="592" 
d="M321 738l-38 80l245 130l53 -104zM147 217l2 -86s38 -19 97 -19c57 0 121 30 121 89c0 104 -271 84 -271 277c0 159 126 239 275 239c108 0 204 -40 204 -40l-34 -182h-82l-12 85s-43 15 -87 15c-62 0 -105 -29 -105 -78c0 -103 270 -86 270 -270
c0 -168 -136 -260 -290 -260c-107 0 -211 38 -211 38l31 192h92z" />
    <glyph glyph-name="sacute" unicode="&#x15b;" horiz-adv-x="487" 
d="M487 741l-52 104l-249 -172l46 -73zM123 175v-70s29 -11 69 -11c53 0 85 20 85 58c0 82 -212 80 -212 228c0 117 98 170 223 170c89 0 170 -28 170 -28l-27 -150h-86l-5 65s-21 9 -58 9c-44 0 -70 -20 -70 -53c0 -82 217 -81 217 -224c0 -115 -102 -179 -244 -179
c-90 0 -174 25 -174 25l26 160h86z" />
    <glyph glyph-name="Scircumflex" unicode="&#x15c;" horiz-adv-x="592" 
d="M210 807l172 137l87 7l130 -144l-56 -65l-127 100l-164 -100zM147 217l2 -86s38 -19 97 -19c57 0 121 30 121 89c0 104 -271 84 -271 277c0 159 126 239 275 239c108 0 204 -40 204 -40l-34 -182h-82l-12 85s-43 15 -87 15c-62 0 -105 -29 -105 -78
c0 -103 270 -86 270 -270c0 -168 -136 -260 -290 -260c-107 0 -211 38 -211 38l31 192h92z" />
    <glyph glyph-name="scircumflex" unicode="&#x15d;" horiz-adv-x="489" 
d="M105 684l172 137l87 7l130 -144l-56 -65l-127 100l-164 -100zM125 175v-70s29 -11 69 -11c53 0 85 20 85 58c0 82 -212 80 -212 228c0 117 98 170 223 170c89 0 170 -28 170 -28l-27 -150h-86l-5 65s-21 9 -58 9c-44 0 -70 -20 -70 -53c0 -82 217 -81 217 -224
c0 -115 -102 -179 -244 -179c-90 0 -174 25 -174 25l26 160h86z" />
    <glyph glyph-name="Scedilla" unicode="&#x15e;" horiz-adv-x="592" 
d="M459 495l-12 85s-43 15 -87 15c-62 0 -105 -29 -105 -78c0 -103 270 -86 270 -270c0 -153 -113 -243 -250 -258l-5 -33c42 -9 71 -35 71 -76c0 -70 -64 -114 -133 -114c-68 0 -115 30 -115 30l38 55s32 -19 69 -19c30 0 55 14 55 42c0 26 -30 39 -75 39l12 76
c-90 8 -168 36 -168 36l31 192h92l2 -86s38 -19 97 -19c57 0 121 30 121 89c0 104 -271 84 -271 277c0 159 126 239 275 239c108 0 204 -40 204 -40l-34 -182h-82z" />
    <glyph glyph-name="scedilla" unicode="&#x15f;" horiz-adv-x="487" 
d="M71 -204l38 55s32 -19 69 -19c30 0 55 14 55 42c0 26 -30 39 -75 39l12 77c-84 3 -159 25 -159 25l26 160h86v-70s29 -11 69 -11c53 0 85 20 85 58c0 82 -212 80 -212 228c0 117 98 170 223 170c89 0 170 -28 170 -28l-27 -150h-86l-5 65s-21 9 -58 9
c-44 0 -70 -20 -70 -53c0 -82 217 -81 217 -224c0 -95 -70 -155 -175 -173l-6 -40c42 -9 71 -35 71 -76c0 -70 -64 -114 -133 -114c-68 0 -115 30 -115 30z" />
    <glyph glyph-name="Scaron" unicode="&#x160;" horiz-adv-x="592" 
d="M592 885l-159 -127l-87 -8l-125 134l65 60l114 -93l151 93zM147 217l2 -86s38 -19 97 -19c57 0 121 30 121 89c0 104 -271 84 -271 277c0 159 126 239 275 239c108 0 204 -40 204 -40l-34 -182h-82l-12 85s-43 15 -87 15c-62 0 -105 -29 -105 -78
c0 -103 270 -86 270 -270c0 -168 -136 -260 -290 -260c-107 0 -211 38 -211 38l31 192h92z" />
    <glyph glyph-name="scaron" unicode="&#x161;" horiz-adv-x="487" 
d="M522 766l-176 -154l-83 -7l-138 162l62 57l124 -118l173 119zM123 175v-70s29 -11 69 -11c53 0 85 20 85 58c0 82 -212 80 -212 228c0 117 98 170 223 170c89 0 170 -28 170 -28l-27 -150h-86l-5 65s-21 9 -58 9c-44 0 -70 -20 -70 -53c0 -82 217 -81 217 -224
c0 -115 -102 -179 -244 -179c-90 0 -174 25 -174 25l26 160h86z" />
    <glyph glyph-name="Tcedilla" unicode="&#x162;" horiz-adv-x="577" 
d="M641 705l-34 -215h-90l-10 97h-94l-75 -476l77 -24l-14 -87h-109l-7 -44c42 -9 71 -35 71 -76c0 -70 -64 -114 -133 -114c-68 0 -115 30 -115 30l38 55s32 -19 69 -19c30 0 55 14 55 42c0 26 -30 39 -75 39l14 87h-119l14 87l84 24l75 476h-93l-40 -97h-90l36 215h565z
" />
    <glyph glyph-name="tcedilla" unicode="&#x163;" horiz-adv-x="404" 
d="M49 -204l38 55s32 -19 69 -19c30 0 55 14 55 42c0 26 -30 39 -75 39l13 84c-47 15 -68 57 -68 124c0 18 1 38 5 60l37 236h-90l15 95l92 13l22 137l146 28l-27 -165h134l-17 -108h-134l-35 -217c-4 -22 -5 -35 -5 -49c0 -32 13 -49 42 -49s81 20 81 20l22 -72
c-22 -14 -83 -46 -137 -56l-6 -38c42 -9 71 -35 71 -76c0 -70 -64 -114 -133 -114c-68 0 -115 30 -115 30z" />
    <glyph glyph-name="Tcaron" unicode="&#x164;" horiz-adv-x="577" 
d="M564 885l-159 -127l-87 -8l-125 134l65 60l114 -93l151 93zM188 111l75 476h-93l-40 -97h-90l36 215h565l-34 -215h-90l-10 97h-94l-75 -476l77 -24l-14 -87h-311l14 87z" />
    <glyph glyph-name="tcaron" unicode="&#x165;" horiz-adv-x="438" 
d="M409 576l-69 28c38 77 63 174 70 237l129 5c-13 -80 -76 -196 -130 -270zM347 122l22 -72c-27 -17 -112 -60 -171 -60c-81 0 -117 45 -117 131c0 18 1 38 5 60l37 236h-90l15 95l92 13l22 137l146 28l-27 -165h134l-17 -108h-134l-35 -217c-4 -22 -5 -35 -5 -49
c0 -32 13 -49 42 -49s81 20 81 20z" />
    <glyph glyph-name="Tbar" unicode="&#x166;" horiz-adv-x="564" 
d="M235 408l28 179h-93l-40 -95h-90l36 213h563l-34 -213h-90l-10 95h-94l-28 -179h114l-18 -110h-114l-29 -187l77 -24l-14 -87h-309l14 87l84 24l29 187h-110l18 110h110z" />
    <glyph glyph-name="tbar" unicode="&#x167;" horiz-adv-x="405" 
d="M110 332l14 85h-90l15 95l92 13l22 137l146 28l-27 -165h134l-17 -108h-134l-14 -85h133l-17 -105h-133l-4 -27c-4 -22 -5 -35 -5 -49c0 -32 13 -49 42 -49s81 20 81 20l22 -72c-27 -17 -112 -60 -171 -60c-81 0 -117 45 -117 131c0 18 1 38 5 60l7 46h-91l17 105h90z
" />
    <glyph glyph-name="Utilde" unicode="&#x168;" horiz-adv-x="735" 
d="M298 780l-38 41s61 107 141 107c68 0 102 -45 160 -45c38 0 73 42 73 42l45 -39s-59 -109 -138 -109c-68 0 -107 44 -165 44c-41 0 -78 -41 -78 -41zM295 587l-51 -317c-3 -20 -5 -39 -5 -56c0 -63 24 -104 108 -104c92 0 131 51 150 173l48 304l-70 30l13 83l297 5
l-14 -88l-77 -30l-46 -295c-30 -190 -117 -304 -322 -304c-173 0 -238 71 -238 200c0 25 2 53 7 82l51 317l-71 30l13 83l296 5l-14 -88z" />
    <glyph glyph-name="utilde" unicode="&#x169;" 
d="M201 630l-38 46s58 110 138 110c68 0 96 -46 154 -46c38 0 73 42 73 42l45 -46s-59 -109 -138 -109c-68 0 -98 44 -156 44c-41 0 -78 -41 -78 -41zM362 0l34 159c-5 -10 -87 -169 -218 -169c-80 0 -110 49 -110 121c0 18 1 38 5 59l43 262l-77 20l13 80l222 8l-55 -343
c-2 -13 -3 -24 -3 -35c0 -29 9 -50 38 -50c89 0 149 185 161 230l33 198h141l-69 -436l76 -15l-13 -79z" />
    <glyph glyph-name="Umacron" unicode="&#x16a;" horiz-adv-x="735" 
d="M598 901l-18 -105h-291l18 105h291zM295 587l-51 -317c-3 -20 -5 -39 -5 -56c0 -63 24 -104 108 -104c92 0 131 51 150 173l48 304l-70 30l13 83l297 5l-14 -88l-77 -30l-46 -295c-30 -190 -117 -304 -322 -304c-173 0 -238 71 -238 200c0 25 2 53 7 82l51 317l-71 30
l13 83l296 5l-14 -88z" />
    <glyph glyph-name="umacron" unicode="&#x16b;" 
d="M525 747l-18 -105h-291l18 105h291zM362 0l34 159c-5 -10 -87 -169 -218 -169c-80 0 -110 49 -110 121c0 18 1 38 5 59l43 262l-77 20l13 80l222 8l-55 -343c-2 -13 -3 -24 -3 -35c0 -29 9 -50 38 -50c89 0 149 185 161 230l33 198h141l-69 -436l76 -15l-13 -79z" />
    <glyph glyph-name="Ubreve" unicode="&#x16c;" horiz-adv-x="735" 
d="M319 930l85 9c0 -21 12 -73 65 -73c65 0 82 65 82 65l85 6c-18 -115 -106 -174 -193 -174c-75 0 -127 49 -127 129c0 13 2 29 3 38zM296 587l-51 -317c-3 -20 -5 -39 -5 -56c0 -63 24 -104 108 -104c92 0 131 51 150 173l48 304l-70 30l13 83l297 5l-14 -88l-77 -30
l-46 -295c-30 -190 -117 -304 -322 -304c-173 0 -238 71 -238 200c0 25 2 53 7 82l51 317l-71 30l13 83l296 5l-14 -88z" />
    <glyph glyph-name="ubreve" unicode="&#x16d;" 
d="M228 779l85 9c0 -21 12 -73 65 -73c65 0 82 65 82 65l85 6c-18 -115 -106 -174 -193 -174c-75 0 -127 49 -127 129c0 13 2 29 3 38zM362 0l34 159c-5 -10 -87 -169 -218 -169c-80 0 -110 49 -110 121c0 34 8 79 48 321l-77 20l13 80l222 8c-52 -320 -58 -356 -58 -378
c0 -29 9 -50 38 -50c89 0 149 185 161 230l33 198h141l-69 -436l76 -15l-13 -79z" />
    <glyph glyph-name="Uring" unicode="&#x16e;" horiz-adv-x="736" 
d="M339 839c0 83 61 156 149 156c62 0 113 -37 113 -103c0 -82 -63 -157 -151 -157c-63 0 -111 41 -111 104zM478 923c-35 0 -56 -37 -56 -72c0 -28 13 -43 40 -43c35 0 56 37 56 72c0 28 -12 43 -40 43zM295 587l-51 -317c-3 -20 -5 -39 -5 -56c0 -63 24 -104 108 -104
c92 0 131 51 150 173l48 304l-70 30l13 83l297 5l-14 -88l-77 -30l-46 -295c-30 -190 -117 -304 -322 -304c-173 0 -238 71 -238 200c0 25 2 53 7 82l51 317l-71 30l13 83l296 5l-14 -88z" />
    <glyph glyph-name="uring" unicode="&#x16f;" 
d="M250 701c0 83 61 156 149 156c62 0 113 -37 113 -103c0 -82 -63 -157 -151 -157c-63 0 -111 41 -111 104zM389 785c-35 0 -56 -37 -56 -72c0 -28 13 -43 40 -43c35 0 56 37 56 72c0 28 -12 43 -40 43zM362 0l34 159c-5 -10 -87 -169 -218 -169c-80 0 -110 49 -110 121
c0 18 1 38 5 59l43 262l-77 20l13 80l222 8l-55 -343c-2 -13 -3 -24 -3 -35c0 -29 9 -50 38 -50c89 0 149 185 161 230l33 198h141l-69 -436l76 -15l-13 -79z" />
    <glyph glyph-name="Uhungarumlaut" unicode="&#x170;" horiz-adv-x="756" 
d="M281 788l181 191l66 -80l-188 -164zM490 788l181 191l68 -83l-190 -161zM305 587l-51 -317c-3 -20 -5 -39 -5 -56c0 -63 24 -104 108 -104c92 0 131 51 150 173l48 304l-70 30l13 83l297 5l-14 -88l-77 -30l-46 -295c-30 -190 -117 -304 -322 -304
c-173 0 -238 71 -238 200c0 25 2 53 7 82l51 317l-71 30l13 83l296 5l-14 -88z" />
    <glyph glyph-name="uhungarumlaut" unicode="&#x171;" 
d="M185 655l181 191l66 -80l-188 -164zM394 655l181 191l68 -83l-190 -161zM362 0l34 159c-5 -10 -87 -169 -218 -169c-80 0 -110 49 -110 121c0 34 8 79 48 321l-77 20l13 80l222 8c-52 -320 -58 -356 -58 -378c0 -29 9 -50 38 -50c89 0 149 185 161 230l33 198h141
l-69 -436l76 -15l-13 -79z" />
    <glyph glyph-name="Uogonek" unicode="&#x172;" horiz-adv-x="735" 
d="M295 587l-51 -317c-3 -20 -5 -39 -5 -56c0 -63 24 -104 108 -104c92 0 131 51 150 173l48 304l-70 30l13 83l297 5l-14 -88l-77 -30l-46 -295c-34 -220 -133 -255 -192 -284c-42 -21 -138 -75 -138 -125c0 -18 13 -30 34 -30c17 0 40 7 40 7l5 -71s-53 -24 -102 -24
c-52 0 -93 29 -93 83c0 67 61 116 101 141c-156 6 -215 76 -215 199c0 25 2 53 7 82l51 317l-71 30l13 83l296 5l-14 -88z" />
    <glyph glyph-name="uogonek" unicode="&#x173;" 
d="M362 0l34 159c-5 -10 -87 -169 -218 -169c-80 0 -110 49 -110 121c0 18 1 38 5 59l43 262l-77 20l13 80l222 8l-55 -343c-2 -13 -3 -24 -3 -35c0 -29 9 -50 38 -50c89 0 153 184 161 230l33 198h141l-69 -436l76 -15l-13 -79c-7 -4 -137 -72 -137 -127
c0 -18 13 -30 34 -30c17 0 40 7 40 7l5 -71s-53 -24 -102 -24c-52 0 -93 29 -93 83c0 84 95 139 129 156z" />
    <glyph glyph-name="Wcircumflex" unicode="&#x174;" horiz-adv-x="973" 
d="M365 807l172 137l87 7l130 -144l-56 -65l-127 100l-164 -100zM35 617l13 83l193 5l62 -471l194 463l116 8l63 -474l148 357l-69 29l15 83l278 5l-15 -88l-72 -29l-267 -588h-117l-65 440l-197 -440h-117l-93 590z" />
    <glyph glyph-name="wcircumflex" unicode="&#x175;" horiz-adv-x="822" 
d="M295 684l172 137l87 7l130 -144l-56 -65l-127 100l-164 -100zM669 437l-64 15l13 80l242 8l-14 -85l-42 -13l-202 -442h-149l-42 300l-121 -300h-148l-69 439l-64 13l13 80l190 8l41 -375l141 361l116 16l49 -377z" />
    <glyph glyph-name="Ycircumflex" unicode="&#x176;" horiz-adv-x="617" 
d="M172 807l172 137l87 7l130 -144l-56 -65l-127 100l-164 -100zM411 0h-296l14 87l78 25l21 134l-107 349l-76 22l13 83l188 5l90 -329l127 219l-68 22l13 83l283 5l-14 -88l-74 -28l-229 -359l-19 -118l70 -25z" />
    <glyph glyph-name="ycircumflex" unicode="&#x177;" horiz-adv-x="563" 
d="M125 684l172 137l87 7l130 -144l-56 -65l-127 100l-164 -100zM9 452l12 80l192 8l68 -326l6 -62l118 286l-62 14l12 80l251 8l-14 -85l-49 -16l-191 -423c-85 -189 -133 -256 -256 -256c-60 0 -127 20 -127 20l28 100s39 -5 74 -5c68 0 91 22 125 97l-118 463z" />
    <glyph glyph-name="Ydieresis" unicode="&#x178;" horiz-adv-x="617" 
d="M208 830c0 51 29 96 83 96c38 0 62 -23 62 -61c0 -51 -32 -95 -85 -95c-37 0 -60 23 -60 60zM421 830c0 51 29 96 82 96c38 0 62 -23 62 -61c0 -51 -31 -95 -84 -95c-37 0 -60 23 -60 60zM411 0h-296l14 87l78 25l21 134l-107 349l-76 22l13 83l188 5l90 -329l127 219
l-68 22l13 83l283 5l-14 -88l-74 -28l-229 -359l-19 -118l70 -25z" />
    <glyph glyph-name="Zacute" unicode="&#x179;" horiz-adv-x="594" 
d="M260 738l-38 80l245 130l53 -104zM25 104l374 483h-200l-36 -85h-88l29 203h494l-12 -111l-371 -477h205l38 104h93l-35 -221h-505z" />
    <glyph glyph-name="zacute" unicode="&#x17a;" horiz-adv-x="498" 
d="M447 741l-52 104l-249 -172l46 -73zM480 452l-286 -346h141l34 89h80l-24 -195h-418l7 90l294 345h-136l-33 -75h-83l27 180h404z" />
    <glyph glyph-name="Zdotaccent" unicode="&#x17b;" horiz-adv-x="594" 
d="M275 829c0 46 33 96 86 96c41 0 60 -22 60 -60c0 -61 -44 -96 -86 -96c-40 0 -60 21 -60 60zM25 104l374 483h-200l-36 -85h-88l29 203h494l-12 -111l-371 -477h205l38 104h93l-35 -221h-505z" />
    <glyph glyph-name="zdotaccent" unicode="&#x17c;" horiz-adv-x="498" 
d="M214 680c0 46 33 96 86 96c41 0 60 -22 60 -60c0 -61 -44 -96 -86 -96c-40 0 -60 21 -60 60zM480 452l-286 -346h141l34 89h80l-24 -195h-418l7 90l294 345h-136l-33 -75h-83l27 180h404z" />
    <glyph glyph-name="Zcaron" unicode="&#x17d;" horiz-adv-x="594" 
d="M552 885l-159 -127l-87 -8l-125 134l65 60l114 -93l151 93zM25 104l374 483h-200l-36 -85h-88l29 203h494l-12 -111l-371 -477h205l38 104h93l-35 -221h-505z" />
    <glyph glyph-name="zcaron" unicode="&#x17e;" horiz-adv-x="498" 
d="M509 766l-176 -154l-83 -7l-138 162l62 57l124 -118l173 119zM480 452l-286 -346h141l34 89h80l-24 -195h-418l7 90l294 345h-136l-33 -75h-83l27 180h404z" />
    <glyph glyph-name="longs" unicode="&#x17f;" horiz-adv-x="394" 
d="M75 -48l92 578c24 153 68 257 235 257c83 0 167 -23 167 -23l-30 -162h-85v75h-48c-58 0 -80 -32 -88 -82l-100 -626c-20 -127 -91 -214 -221 -214c-40 0 -102 14 -102 14l19 87h69c52 0 82 33 92 96z" />
    <glyph glyph-name="florin" unicode="&#x192;" horiz-adv-x="474" 
d="M83 449l91 16c47 215 91 314 261 314c40 0 98 -10 98 -11l-25 -98h-63c-61 0 -84 -28 -99 -90l-28 -115h130l-19 -100h-135l-90 -368c-29 -120 -96 -197 -229 -197c-34 0 -78 11 -78 11l20 99h51c60 0 79 34 93 93l88 362h-80z" />
    <glyph glyph-name="Aringacute" unicode="&#x1fa;" horiz-adv-x="711" 
d="M677 88l-15 -88h-296l14 87l79 25l-12 73h-221l-36 -76l69 -22l-14 -87h-283l14 88l67 23l302 578c-25 18 -40 46 -40 82c0 83 61 156 149 156c62 0 113 -37 113 -103c0 -50 -23 -97 -62 -127l114 -589zM444 855c-35 0 -56 -37 -56 -72c0 -28 13 -43 40 -43
c35 0 56 37 56 72c0 28 -12 43 -40 43zM430 292l-37 241l-117 -241h154zM355 927l-31 83l255 108l44 -108z" />
    <glyph glyph-name="aringacute" unicode="&#x1fb;" horiz-adv-x="615" 
d="M282 686c0 83 61 156 149 156c62 0 113 -37 113 -103c0 -82 -63 -157 -151 -157c-63 0 -111 41 -111 104zM421 770c-35 0 -56 -37 -56 -72c0 -28 13 -43 40 -43c35 0 56 37 56 72c0 28 -12 43 -40 43zM563 10l-215 -10l35 148c-5 -10 -88 -158 -214 -158
c-88 0 -143 80 -143 181c0 250 151 379 306 379c69 0 117 -37 117 -37l29 27h91l-70 -436l77 -15zM392 347l15 83s-29 12 -73 12c-92 0 -158 -107 -158 -252c0 -53 19 -83 49 -83c100 0 167 240 167 240zM599 962l-40 109l-266 -145l38 -78z" />
    <glyph glyph-name="AEacute" unicode="&#x1fc;" horiz-adv-x="934" 
d="M583 738l-38 80l245 130l53 -104zM817 420l-17 -110h-198l-30 -193h175l36 84h90l-33 -201h-506l15 87l75 25l13 80h-190l-53 -84l59 -21l-15 -87h-276l14 87l71 25l300 477l-77 28l13 83l247 5h409l-31 -193h-80l-13 75h-168l-27 -167h197zM483 587l-174 -287h143
l47 287h-16z" />
    <glyph glyph-name="aeacute" unicode="&#x1fd;" horiz-adv-x="811" 
d="M87 365l17 145s115 40 215 40c88 0 126 -29 137 -66c47 41 104 66 167 66c113 0 183 -58 183 -143c0 -115 -122 -188 -342 -191c0 -75 22 -111 93 -111c59 0 129 29 150 36l42 -74c-29 -20 -126 -77 -233 -77c-86 0 -145 35 -171 97c-45 -53 -115 -96 -194 -96
c-83 0 -137 49 -137 129c0 130 102 191 253 191h71l9 56c1 6 2 15 2 20c0 37 -24 55 -64 55c-51 0 -90 -13 -90 -13l-25 -64h-83zM661 389c0 32 -19 48 -57 48c-60 0 -109 -57 -129 -133c128 3 186 38 186 85zM325 226h-56c-78 0 -112 -29 -112 -76c0 -28 24 -50 52 -50
c60 0 109 70 116 126zM700 741l-52 104l-249 -172l46 -73z" />
    <glyph glyph-name="Oslashacute" unicode="&#x1fe;" horiz-adv-x="738" 
d="M15 -59l97 128c-34 43 -53 103 -53 177c0 255 146 471 388 471c50 0 93 -9 130 -27l77 103l78 -51l-83 -110c36 -43 56 -102 56 -172c0 -262 -156 -472 -396 -472c-48 0 -89 8 -124 24l-92 -122zM227 222l266 356c-18 10 -41 14 -66 14c-131 0 -208 -162 -208 -315
c0 -21 3 -39 8 -55zM537 482l-266 -355c17 -10 38 -15 63 -15c124 0 209 148 209 312c0 22 -2 41 -6 58zM376 738l-38 80l245 130l53 -104z" />
    <glyph glyph-name="oslashacute" unicode="&#x1ff;" horiz-adv-x="586" 
d="M-10 -75l90 122c-31 33 -47 80 -47 138c0 220 127 365 311 365c36 0 67 -6 95 -16l80 109l67 -42l-81 -109c31 -34 48 -79 48 -135c0 -222 -129 -367 -315 -367c-35 0 -65 6 -92 15l-90 -122zM185 190l176 238c-11 4 -23 7 -36 7c-86 0 -141 -107 -141 -226
c0 -7 0 -13 1 -19zM401 350l-177 -239c10 -4 22 -6 35 -6c82 0 143 92 143 218c0 9 -1 18 -1 27zM540 741l-52 104l-249 -172l46 -73z" />
    <glyph glyph-name="Scommaaccent" unicode="&#x218;" horiz-adv-x="592" 
d="M147 217l2 -86s38 -19 97 -19c57 0 121 30 121 89c0 104 -271 84 -271 277c0 159 126 239 275 239c108 0 204 -40 204 -40l-34 -182h-82l-12 85s-43 15 -87 15c-62 0 -105 -29 -105 -78c0 -103 270 -86 270 -270c0 -168 -136 -260 -290 -260c-107 0 -211 38 -211 38
l31 192h92zM56 -332l-46 48s68 66 68 90c0 22 -16 34 -16 67c0 46 38 77 77 77c40 0 65 -25 65 -69c0 -64 -69 -148 -148 -213z" />
    <glyph glyph-name="scommaaccent" unicode="&#x219;" horiz-adv-x="487" 
d="M123 175v-70s29 -11 69 -11c53 0 85 20 85 58c0 82 -212 80 -212 228c0 117 98 170 223 170c89 0 170 -28 170 -28l-27 -150h-86l-5 65s-21 9 -58 9c-44 0 -70 -20 -70 -53c0 -82 217 -81 217 -224c0 -115 -102 -179 -244 -179c-90 0 -174 25 -174 25l26 160h86zM56 -332
l-46 48s68 66 68 90c0 22 -16 34 -16 67c0 46 38 77 77 77c40 0 65 -25 65 -69c0 -64 -69 -148 -148 -213z" />
    <glyph glyph-name="Tcommaaccent" unicode="&#x21a;" horiz-adv-x="577" 
d="M188 111l75 476h-93l-40 -97h-90l36 215h565l-34 -215h-90l-10 97h-94l-75 -476l77 -24l-14 -87h-311l14 87zM152 -332l-46 48s68 66 68 90c0 22 -16 34 -16 67c0 46 38 77 77 77c40 0 65 -25 65 -69c0 -64 -69 -148 -148 -213z" />
    <glyph glyph-name="tcommaaccent" unicode="&#x21b;" horiz-adv-x="404" 
d="M347 122l22 -72c-27 -17 -112 -60 -171 -60c-81 0 -117 45 -117 131c0 18 1 38 5 60l37 236h-90l15 95l92 13l22 137l146 28l-27 -165h134l-17 -108h-134l-35 -217c-4 -22 -5 -35 -5 -49c0 -32 13 -49 42 -49s81 20 81 20zM56 -332l-46 48s68 66 68 90
c0 22 -16 34 -16 67c0 46 38 77 77 77c40 0 65 -25 65 -69c0 -64 -69 -148 -148 -213z" />
    <glyph glyph-name="dotlessj" unicode="&#x237;" horiz-adv-x="328" 
d="M59 532l222 8l-94 -583c-20 -125 -97 -202 -221 -202c-43 0 -100 15 -100 15l20 88c11 0 35 -3 63 -3c71 0 87 38 102 129l72 448l-78 20z" />
    <glyph glyph-name="circumflex" unicode="&#x2c6;" horiz-adv-x="389" 
d="M0 687l172 137l87 7l130 -144l-56 -65l-127 100l-164 -100z" />
    <glyph glyph-name="caron" unicode="&#x2c7;" horiz-adv-x="398" 
d="M476 766l-176 -154l-83 -7l-138 162l62 57l124 -118l173 119z" />
    <glyph glyph-name="firsttonechinese" unicode="&#x2c9;" horiz-adv-x="299" 
d="M299 747l-18 -105h-281l18 105h281z" />
    <glyph glyph-name="breve" unicode="&#x2d8;" horiz-adv-x="440" 
d="M96 763l85 9c0 -21 12 -73 65 -73c65 0 82 65 82 65l85 6c-18 -115 -106 -174 -193 -174c-75 0 -127 49 -127 129c0 13 2 29 3 38z" />
    <glyph glyph-name="dotaccent" unicode="&#x2d9;" horiz-adv-x="143" 
d="M90 829c0 46 33 96 86 96c41 0 60 -22 60 -60c0 -61 -44 -96 -86 -96c-40 0 -60 21 -60 60z" />
    <glyph glyph-name="ring" unicode="&#x2da;" horiz-adv-x="258" 
d="M70 701c0 83 61 156 149 156c62 0 113 -37 113 -103c0 -82 -63 -157 -151 -157c-63 0 -111 41 -111 104zM209 785c-35 0 -56 -37 -56 -72c0 -28 13 -43 40 -43c35 0 56 37 56 72c0 28 -12 43 -40 43z" />
    <glyph glyph-name="ogonek" unicode="&#x2db;" horiz-adv-x="345" 
d="M191 2h111s-120 -69 -120 -119c0 -18 13 -30 34 -30c17 0 40 7 40 7l5 -71s-53 -24 -102 -24c-52 0 -93 29 -93 83c0 82 94 138 125 154z" />
    <glyph glyph-name="tilde" unicode="&#x2dc;" horiz-adv-x="381" 
d="M38 630l-38 46s58 110 138 110c68 0 96 -46 154 -46c38 0 73 42 73 42l45 -46s-59 -109 -138 -109c-68 0 -98 44 -156 44c-41 0 -78 -41 -78 -41z" />
    <glyph glyph-name="hungarumlaut" unicode="&#x2dd;" horiz-adv-x="580" 
d="M78 664l181 191l66 -80l-188 -164zM287 664l181 191l68 -83l-190 -161z" />
    <glyph glyph-name="commaaccent" unicode="&#x326;" horiz-adv-x="0" 
d="M56 -332l-46 48s68 66 68 90c0 22 -16 34 -16 67c0 46 38 77 77 77c40 0 65 -25 65 -69c0 -64 -69 -148 -148 -213z" />
    <glyph glyph-name="Gamma" unicode="&#x393;" horiz-adv-x="559" 
d="M594 490h-91l-9 98h-181l-72 -473l89 -30l-14 -85h-316l14 85l77 30l72 470l-67 30l12 85l224 5h295z" />
    <glyph glyph-name="Delta" unicode="&#x394;" 
d="M464 723l146 -623l-16 -100h-624l17 100l349 623h128zM466 112l-104 448l-244 -448h348z" />
    <glyph glyph-name="Pi" unicode="&#x3a0;" horiz-adv-x="730" 
d="M712 117l23 -70c-17 -11 -80 -57 -170 -57c-77 0 -129 50 -109 180l65 415h-206l-76 -474l70 -24l-14 -87h-295l14 87l78 24l75 477l-69 29l13 83l222 5h429l-14 -89l-78 -29l-67 -423c-7 -43 8 -63 41 -63c28 0 68 16 68 16z" />
    <glyph glyph-name="Omega" unicode="&#x3a9;" horiz-adv-x="778" 
d="M670 0h-265l17 100c29 20 156 96 156 339c0 85 -40 153 -130 153c-143 0 -208 -144 -208 -271c0 -139 55 -204 65 -217l-25 -104h-265l20 120l122 -3c-25 28 -71 103 -71 200c0 215 138 400 380 400c164 0 272 -99 272 -262c0 -169 -113 -293 -161 -334l114 4z" />
    <glyph glyph-name="mu" unicode="&#x3bc;" horiz-adv-x="649" 
d="M373 0l34 160c-4 -11 -73 -170 -188 -170c-11 0 -21 3 -30 7l-40 -232h-141l114 667l-78 20l14 80l222 8l-56 -344c-3 -21 -4 -28 -4 -34c0 -29 12 -50 41 -50c85 0 154 183 167 257l30 171h141l-70 -436l76 -17l-14 -80z" />
    <glyph glyph-name="pi" unicode="&#x3c0;" horiz-adv-x="655" 
d="M622 117l23 -70c-27 -18 -91 -57 -159 -57c-70 0 -116 37 -116 117c0 15 4 44 7 65l37 255h-155l-68 -427h-144l69 430l-72 22l12 78l209 10h387l-14 -88l-81 -20l-40 -247c-3 -16 -4 -35 -4 -41c1 -30 16 -43 43 -43c25 0 66 16 66 16z" />
    <glyph glyph-name="Iegravecy" unicode="&#x400;" horiz-adv-x="611" 
d="M292 957l242 -131l-38 -80l-251 103zM297 420h197l-17 -110h-198l-30 -190h175l36 81h90l-33 -201h-510l14 87l78 24l75 477l-69 29l13 83l225 5h273l-31 -193h-80l-13 73h-168z" />
    <glyph glyph-name="Iocy" unicode="&#x401;" horiz-adv-x="611" 
d="M233 830c0 51 29 96 83 96c38 0 62 -23 62 -61c0 -51 -32 -95 -85 -95c-37 0 -60 23 -60 60zM446 830c0 51 29 96 82 96c38 0 62 -23 62 -61c0 -51 -31 -95 -84 -95c-37 0 -60 23 -60 60zM297 420h197l-17 -110h-198l-30 -190h175l36 81h90l-33 -201h-510l14 87l78 24
l75 477l-69 29l13 83l225 5h273l-31 -193h-80l-13 73h-168z" />
    <glyph glyph-name="Djecy" unicode="&#x402;" horiz-adv-x="732" 
d="M401 585l-37 -233c52 30 126 58 191 58c94 0 146 -53 146 -143c0 -150 -64 -279 -230 -279c-40 0 -93 13 -99 15l24 100c15 -2 44 -3 64 -3c70 0 89 42 89 122c0 45 -28 68 -71 68c-35 0 -88 -17 -129 -39l-40 -251h-242l14 85l95 25l75 475h-83l-39 -95h-89l33 215h566
l-34 -215h-89l-10 95h-105z" />
    <glyph glyph-name="Gjecy" unicode="&#x403;" horiz-adv-x="559" 
d="M336 738l-38 80l245 130l53 -104zM594 490h-91l-9 98h-181l-72 -473l89 -30l-14 -85h-316l14 85l77 30l72 470l-67 30l12 85l224 5h295z" />
    <glyph glyph-name="Ecy" unicode="&#x404;" horiz-adv-x="646" 
d="M531 484l-8 97c-11 3 -45 11 -91 11c-111 0 -170 -86 -197 -179h249l-17 -110h-251l-1 -29c0 -110 51 -157 136 -157s156 40 190 59l41 -85c-44 -33 -143 -104 -268 -104c-170 0 -259 92 -259 265c0 294 177 465 401 465c104 0 204 -43 204 -43l-34 -190h-95z" />
    <glyph glyph-name="Dzecy" unicode="&#x405;" horiz-adv-x="592" 
d="M147 217l2 -86s38 -19 97 -19c57 0 121 30 121 89c0 104 -271 84 -271 277c0 159 126 239 275 239c108 0 204 -40 204 -40l-34 -182h-82l-12 85s-43 15 -87 15c-62 0 -105 -29 -105 -78c0 -103 270 -86 270 -270c0 -168 -136 -260 -290 -260c-107 0 -211 38 -211 38
l31 192h92z" />
    <glyph glyph-name="Icy" unicode="&#x406;" horiz-adv-x="378" 
d="M295 0h-298l14 87l78 24l76 477l-69 29l13 83l298 5l-14 -88l-78 -30l-76 -476l70 -24z" />
    <glyph glyph-name="Yicy" unicode="&#x407;" horiz-adv-x="384" 
d="M107 830c0 51 29 96 83 96c38 0 62 -23 62 -61c0 -51 -32 -95 -85 -95c-37 0 -60 23 -60 60zM320 830c0 51 29 96 82 96c38 0 62 -23 62 -61c0 -51 -31 -95 -84 -95c-37 0 -60 23 -60 60zM293 0h-298l14 87l78 24l76 477l-69 29l13 83l298 5l-14 -88l-78 -30l-76 -476
l70 -24z" />
    <glyph glyph-name="Jecy" unicode="&#x408;" horiz-adv-x="368" 
d="M325 587l-78 -485c-28 -172 -93 -259 -261 -259c-31 0 -73 7 -73 7l29 100h47c54 0 90 34 100 96l86 542l-69 29l13 83l298 5l-14 -88z" />
    <glyph glyph-name="Ljecy" unicode="&#x409;" horiz-adv-x="940" 
d="M617 432h94c122 0 209 -48 209 -165c0 -184 -128 -267 -292 -267h-311l14 87l85 24l76 474h-140c-21 -96 -44 -189 -72 -290c-47 -169 -105 -307 -242 -307c-29 0 -63 7 -90 17l48 155c10 -3 27 -5 36 -5c62 0 105 42 135 137c31 100 52 193 72 293l-126 30l15 90h617
l-13 -88l-90 -29zM568 120h73c75 0 123 53 123 128c0 56 -36 79 -105 79h-58z" />
    <glyph glyph-name="Njecy" unicode="&#x40a;" horiz-adv-x="997" 
d="M690 431h95c119 0 208 -47 208 -159c0 -174 -127 -272 -291 -272h-305l14 87l78 24l32 210h-254l-33 -210l70 -24l-14 -87h-297l14 87l77 24l76 477l-69 29l13 83l298 5l-14 -88l-78 -30l-27 -156h255l27 157l-71 29l13 83l313 5l-14 -88l-91 -30zM641 120h74
c73 0 122 60 122 129c0 50 -35 72 -104 72h-60z" />
    <glyph glyph-name="Tshecy" unicode="&#x40b;" horiz-adv-x="765" 
d="M731 90l-14 -90h-276l13 90l63 30l17 86c2 12 4 26 4 33c0 44 -25 65 -71 65c-38 0 -80 -19 -115 -43l-24 -150l62 -24l-14 -87h-306l14 87l94 24l75 476h-83l-40 -97h-90l36 215h565l-34 -215h-90l-10 97h-104l-35 -225c46 34 112 67 181 67c95 0 145 -51 145 -138
c0 -13 -2 -33 -5 -52l-21 -119z" />
    <glyph glyph-name="Kjecy" unicode="&#x40c;" horiz-adv-x="670" 
d="M392 738l-38 80l245 130l53 -104zM662 0h-286l14 87l57 21l-103 197h-72l-31 -194l68 -24l-14 -87h-293l14 87l78 24l75 477l-69 29l13 83l294 5l-14 -88l-77 -29l-27 -173h65l208 285l165 5l-14 -88l-76 -30l-169 -220l142 -257l66 -23z" />
    <glyph glyph-name="Iigravecy" unicode="&#x40d;" horiz-adv-x="804" 
d="M552 746l-251 103l47 108l242 -131zM827 705l-14 -88l-78 -30l-76 -476l71 -24l-14 -87h-299l14 87l78 24l49 306l-314 -270l-6 -36l70 -24l-14 -87h-297l14 87l77 24l76 477l-69 29l13 83l298 5l-14 -88l-78 -30l-49 -306l314 272l6 35l-71 29l13 83z" />
    <glyph glyph-name="Ushortcy" unicode="&#x40e;" horiz-adv-x="627" 
d="M560 950l48 -33c-36 -68 -123 -140 -223 -140s-156 57 -168 145l111 28c6 -61 42 -85 96 -85c55 0 104 35 136 85zM729 705l-14 -90l-73 -30l-209 -365c-80 -140 -170 -232 -270 -232c-60 0 -112 22 -134 32l44 112c24 -10 65 -19 99 -19c36 0 70 17 101 51l-164 421
l-69 30l13 85l304 5l-14 -90l-83 -30l102 -280l159 280l-78 30l13 85z" />
    <glyph glyph-name="Dzhecy" unicode="&#x40f;" horiz-adv-x="760" 
d="M785 705l-14 -89l-77 -30l-76 -471l72 -30l-13 -85h-274l-53 -195h-93l9 195h-267l12 86l78 26l76 474l-69 30l13 84l301 5l-13 -89l-82 -30l-75 -466h229l75 466l-74 32l13 82z" />
    <glyph glyph-name="Acy" unicode="&#x410;" horiz-adv-x="711" 
d="M677 88l-15 -88h-296l14 87l79 25l-12 73h-221l-36 -76l69 -22l-14 -87h-283l14 88l67 23l307 587l154 7l115 -597zM276 292h154l-37 241z" />
    <glyph glyph-name="Becy" unicode="&#x411;" horiz-adv-x="630" 
d="M315 588l-30 -186h97c136 0 228 -60 209 -190c-23 -142 -130 -212 -288 -212h-306l14 85l78 27l76 476l-69 29l13 83l224 5h295l-33 -206h-90l-11 89h-179zM268 297l-28 -177h77c68 0 111 42 118 92c8 55 -28 85 -106 85h-61z" />
    <glyph glyph-name="Vecy" unicode="&#x412;" horiz-adv-x="653" 
d="M333 705h96c104 0 196 -50 196 -152s-70 -162 -148 -185c73 -21 122 -62 122 -133c0 -157 -127 -235 -286 -235h-316l14 87l78 24l75 477l-69 29l13 83zM287 417h55c75 0 127 41 127 106c0 44 -33 64 -77 64h-78zM239 117h71c87 0 132 49 132 110s-37 85 -114 85h-58z
" />
    <glyph glyph-name="Gecy" unicode="&#x413;" horiz-adv-x="559" 
d="M594 490h-91l-9 98h-181l-72 -473l89 -30l-14 -85h-316l14 85l77 30l72 470l-67 30l12 85l224 5h295z" />
    <glyph glyph-name="Decy" unicode="&#x414;" horiz-adv-x="726" 
d="M646 585l-75 -470l114 -15l-43 -295h-90l-27 195h-414l-81 -195h-92l46 297c73 24 133 57 168 185c27 97 44 182 69 298l-119 30l15 90h620l-14 -90zM496 585h-159c-20 -98 -42 -193 -70 -297c-21 -81 -35 -132 -72 -168h226z" />
    <glyph glyph-name="Iecy" unicode="&#x415;" horiz-adv-x="611" 
d="M297 420h197l-17 -110h-198l-30 -190h175l36 81h90l-33 -201h-510l14 87l78 24l75 477l-69 29l13 83l225 5h273l-31 -193h-80l-13 73h-168z" />
    <glyph glyph-name="Zhecy" unicode="&#x416;" horiz-adv-x="980" 
d="M940 589l-165 -218l145 -256l71 -30l-14 -85h-301l14 85l64 30l-107 190h-77l-30 -190l58 -30l-14 -85h-264l14 85l66 30l37 230l-7 -40h-76l-167 -190l56 -30l-14 -85h-302l14 85l79 30l227 256l-97 218l-90 28l14 88l177 -5l122 -285h75l27 172l-70 30l13 83l291 5
l-14 -88l-80 -30l-27 -171h73l212 285l181 4l-14 -88z" />
    <glyph glyph-name="Zecy" unicode="&#x417;" horiz-adv-x="582" 
d="M77 501l22 176s115 40 228 40c151 0 239 -54 239 -154c0 -93 -51 -165 -152 -195c71 -21 113 -73 113 -143c0 -145 -130 -238 -312 -238c-105 0 -188 31 -233 54l53 109c51 -21 110 -40 185 -40c90 0 152 46 152 117c0 56 -41 83 -129 83h-94l17 105h91
c112 0 155 53 155 110c0 44 -36 70 -113 70c-54 0 -100 -13 -100 -13l-19 -81h-103z" />
    <glyph glyph-name="Iicy" unicode="&#x418;" horiz-adv-x="804" 
d="M827 705l-14 -88l-78 -30l-76 -476l71 -24l-14 -87h-299l14 87l78 24l49 306l-314 -270l-6 -36l70 -24l-14 -87h-297l14 87l77 24l76 477l-69 29l13 83l298 5l-14 -88l-78 -30l-49 -306l314 272l6 35l-71 29l13 83z" />
    <glyph glyph-name="Iishortcy" unicode="&#x419;" horiz-adv-x="804" 
d="M650 950l48 -33c-36 -68 -123 -140 -223 -140s-156 57 -168 145l111 28c6 -61 42 -85 96 -85c55 0 104 35 136 85zM827 705l-14 -88l-78 -30l-76 -476l71 -24l-14 -87h-299l14 87l78 24l49 306l-314 -270l-6 -36l70 -24l-14 -87h-297l14 87l77 24l76 477l-69 29l13 83
l298 5l-14 -88l-78 -30l-49 -306l314 272l6 35l-71 29l13 83z" />
    <glyph glyph-name="Kacy" unicode="&#x41a;" horiz-adv-x="670" 
d="M662 0h-286l14 87l57 21l-103 197h-72l-31 -194l68 -24l-14 -87h-293l14 87l78 24l75 477l-69 29l13 83l294 5l-14 -88l-77 -29l-27 -173h65l208 285l165 5l-14 -88l-76 -30l-169 -220l142 -257l66 -23z" />
    <glyph glyph-name="Elcy" unicode="&#x41b;" horiz-adv-x="711" 
d="M744 705l-14 -90l-78 -30l-74 -470l70 -30l-14 -85h-305l14 85l85 30l74 470h-155c-21 -96 -44 -189 -72 -290c-47 -169 -105 -307 -242 -307c-29 0 -63 7 -90 17l48 155c10 -3 27 -5 36 -5c62 0 105 42 135 137c31 100 52 193 72 293l-126 30l15 90h621z" />
    <glyph glyph-name="Emcy" unicode="&#x41c;" horiz-adv-x="853" 
d="M270 0h-278l14 87l77 24l76 477l-69 29l13 83l248 5l96 -338l203 333l237 5l-15 -88l-77 -30l-75 -475l69 -25l-14 -87h-283l14 87l74 25l56 356l-175 -285l-108 -7l-83 288l-56 -353l70 -24z" />
    <glyph glyph-name="Ency" unicode="&#x41d;" horiz-adv-x="783" 
d="M700 0h-299l14 87l78 24l31 194h-255l-31 -194l70 -24l-14 -87h-297l14 87l77 24l76 477l-69 29l13 83l298 5l-14 -88l-78 -30l-27 -165h255l27 166l-71 29l13 83l300 5l-14 -88l-78 -30l-76 -476l71 -24z" />
    <glyph glyph-name="Ocy" unicode="&#x41e;" horiz-adv-x="732" 
d="M306 -13c-160 0 -252 92 -252 259c0 255 148 471 390 471c164 0 260 -99 260 -262c0 -257 -158 -468 -398 -468zM544 449c0 95 -41 143 -120 143c-143 0 -210 -197 -210 -334c0 -93 39 -146 117 -146c140 0 213 193 213 337z" />
    <glyph glyph-name="Pecy" unicode="&#x41f;" horiz-adv-x="769" 
d="M796 705l-13 -90l-78 -30l-75 -472l69 -28l-14 -85h-296l14 85l77 28l75 472h-242l-73 -472l69 -28l-14 -85h-296l13 85l77 28l74 474l-68 30l13 83l224 5h464z" />
    <glyph glyph-name="Ercy" unicode="&#x420;" horiz-adv-x="605" 
d="M-3 0l14 87l78 24l75 477l-69 29l13 83l225 5h94c110 0 205 -50 205 -171c0 -204 -148 -289 -319 -289h-53l-21 -134l72 -24l-14 -87h-300zM278 362h53c105 0 147 63 147 141c0 62 -42 84 -87 84h-77z" />
    <glyph glyph-name="Escy" unicode="&#x421;" horiz-adv-x="645" 
d="M552 480l-13 94c-18 6 -57 18 -108 18c-141 0 -214 -161 -214 -315c0 -100 55 -161 132 -161c89 0 159 44 196 70l53 -84c-40 -34 -147 -115 -282 -115c-158 0 -261 102 -261 262c0 275 163 468 393 468c118 0 217 -47 217 -47l-30 -190h-83z" />
    <glyph glyph-name="Tecy" unicode="&#x422;" horiz-adv-x="577" 
d="M188 111l75 476h-93l-40 -97h-90l36 215h565l-34 -215h-90l-10 97h-94l-75 -476l77 -24l-14 -87h-311l14 87z" />
    <glyph glyph-name="Ucy" unicode="&#x423;" horiz-adv-x="627" 
d="M729 705l-14 -90l-73 -30l-209 -365c-80 -140 -170 -232 -270 -232c-60 0 -112 22 -134 32l44 112c24 -10 65 -19 99 -19c36 0 70 17 101 51l-164 421l-69 30l13 85l304 5l-14 -90l-83 -30l102 -280l159 280l-78 30l13 85z" />
    <glyph glyph-name="Efcy" unicode="&#x424;" horiz-adv-x="897" 
d="M576 660l-6 -37c204 -9 309 -69 309 -197c0 -170 -108 -285 -385 -303l-5 -33l70 -25l-14 -85h-283l14 85l75 25l5 32c-208 9 -303 71 -303 197c0 187 127 285 378 302l6 39l-70 25l13 90h285l-14 -90zM556 531l-47 -310c176 9 226 59 226 186c0 84 -54 117 -179 124z
M371 221l46 309c-148 -12 -221 -64 -221 -199c0 -73 47 -104 175 -110z" />
    <glyph glyph-name="Hacy" unicode="&#x425;" horiz-adv-x="665" 
d="M244 0h-287l14 87l76 23l206 240l-136 248l-62 19l13 83l295 5l-14 -88l-49 -15l70 -139l113 136l-42 18l13 83l282 5l-14 -88l-76 -21l-207 -233l139 -256l68 -20l-14 -87h-299l14 87l48 12l-70 145l-115 -140l48 -17z" />
    <glyph glyph-name="Tsecy" unicode="&#x426;" horiz-adv-x="775" 
d="M620 115l114 -15l-43 -295h-90l-27 195h-575l12 86l79 29l75 471l-69 30l13 84l301 5l-13 -89l-82 -30l-75 -466h229l75 466l-74 32l13 82l302 5l-14 -89l-77 -30z" />
    <glyph glyph-name="Checy" unicode="&#x427;" horiz-adv-x="712" 
d="M740 705l-15 -89l-77 -28l-75 -476l70 -26l-14 -86h-319l13 86l100 26l23 147c-32 -13 -92 -34 -175 -34c-117 0 -194 70 -172 220l21 143l-64 27l14 90h285l-13 -90l-72 -27l-21 -120c-16 -90 16 -118 80 -118c52 0 105 10 134 18l35 220l-64 27l13 85z" />
    <glyph glyph-name="Shacy" unicode="&#x428;" horiz-adv-x="1070" 
d="M1095 705l-14 -90l-78 -27l-74 -476l71 -26l-13 -86h-989l14 86l78 27l74 475l-68 27l12 85l292 5l-13 -90l-73 -27l-74 -468h195l73 468l-63 27l13 85l287 5l-14 -90l-72 -27l-74 -468h194l74 468l-68 27l13 85z" />
    <glyph glyph-name="Shchacy" unicode="&#x429;" horiz-adv-x="1084" 
d="M1003 588l-74 -473l115 -15l-44 -295h-90l-27 195h-885l14 85l79 30l73 473l-68 27l12 85l292 5l-13 -90l-73 -27l-74 -468h195l73 468l-63 27l13 85l287 5l-14 -90l-72 -27l-74 -468h194l74 468l-68 27l13 85l297 5l-14 -90z" />
    <glyph glyph-name="Hardsigncy" unicode="&#x42a;" horiz-adv-x="687" 
d="M380 432h93c122 0 209 -48 209 -165c0 -184 -128 -267 -292 -267h-303l14 87l78 25l75 473h-82l-39 -95h-90l33 215h443l-13 -89l-102 -30zM330 120h73c75 0 123 53 123 128c0 56 -36 79 -105 79h-58z" />
    <glyph glyph-name="Yerucy" unicode="&#x42b;" horiz-adv-x="953" 
d="M290 432h94c122 0 209 -48 209 -165c0 -184 -128 -267 -292 -267h-303l14 87l77 24l76 477l-70 29l13 83l310 5l-13 -88l-90 -29zM982 705l-14 -88l-78 -30l-76 -476l70 -24l-14 -87h-297l14 87l77 24l76 477l-69 29l13 83zM241 120h73c75 0 123 53 123 128
c0 56 -36 79 -105 79h-58z" />
    <glyph glyph-name="Softsigncy" unicode="&#x42c;" horiz-adv-x="608" 
d="M290 432h94c122 0 209 -48 209 -165c0 -184 -128 -267 -292 -267h-303l14 87l77 24l76 477l-70 29l13 83l310 5l-13 -88l-90 -29zM241 120h73c75 0 123 53 123 128c0 56 -36 79 -105 79h-58z" />
    <glyph glyph-name="Ereversedcy" unicode="&#x42d;" horiz-adv-x="646" 
d="M90 484l23 183c45 19 124 50 241 50c170 0 263 -91 263 -265c0 -278 -166 -464 -391 -464c-115 0 -201 82 -219 98l70 91c19 -13 89 -59 169 -59c102 0 165 84 193 184h-249l16 110h251v19c0 112 -47 157 -136 157c-61 0 -106 -11 -106 -11l-30 -93h-95z" />
    <glyph glyph-name="Iucy" unicode="&#x42e;" horiz-adv-x="1034" 
d="M290 422h120c52 171 179 295 355 295c164 0 260 -99 260 -262c0 -257 -138 -468 -388 -468c-160 0 -252 92 -252 259c0 20 1 40 3 59h-116l-31 -194l70 -24l-14 -87h-297l14 87l77 24l76 477l-69 29l13 83l298 5l-14 -88l-78 -30zM662 112c150 0 203 193 203 337
c0 95 -41 143 -120 143c-133 0 -200 -197 -200 -334c0 -93 39 -146 117 -146z" />
    <glyph glyph-name="Iacy" unicode="&#x42f;" horiz-adv-x="661" 
d="M297 86l76 26l23 145h-44c-38 0 -62 -28 -109 -92l-120 -165h-180l13 85l85 25l87 102c40 47 68 76 97 88c-55 21 -122 76 -122 166c0 146 117 239 288 239h298l-13 -89l-79 -30l-74 -474l69 -26l-14 -86h-295zM447 585h-80c-67 0 -114 -54 -114 -123
c0 -70 39 -100 119 -100h40z" />
    <glyph glyph-name="acy" unicode="&#x430;" horiz-adv-x="615" 
d="M563 10l-215 -10l35 148c-5 -10 -88 -158 -214 -158c-88 0 -143 80 -143 181c0 250 151 379 306 379c69 0 117 -37 117 -37l29 27h91l-70 -436l77 -15zM392 347l15 83s-29 12 -73 12c-92 0 -158 -107 -158 -252c0 -53 19 -83 49 -83c100 0 167 240 167 240z" />
    <glyph glyph-name="becy" unicode="&#x431;" horiz-adv-x="622" 
d="M611 801l24 -110c-80 -20 -146 -30 -214 -53c-68 -22 -163 -66 -192 -181c44 52 114 78 184 78c110 0 172 -67 172 -206c0 -210 -139 -339 -310 -339c-130 0 -200 80 -200 220c0 190 74 462 313 533c72 21 142 41 223 58zM289 105c116 0 151 132 151 215
c0 73 -26 100 -80 100c-77 0 -150 -55 -150 -215c0 -70 26 -100 79 -100z" />
    <glyph glyph-name="vecy" unicode="&#x432;" horiz-adv-x="532" 
d="M414 269c43 -19 63 -51 63 -99c0 -115 -130 -180 -240 -180c-130 0 -206 70 -206 200c0 201 137 360 311 360c108 0 165 -58 165 -133c0 -61 -29 -114 -93 -148zM310 439c-69 0 -115 -66 -133 -149c157 10 193 41 193 95c0 30 -20 54 -60 54zM247 90c50 0 98 30 98 90
c0 24 -10 41 -26 47c-13 5 -36 5 -64 3l-33 -3c-17 -1 -34 -2 -53 -3v-14c0 -80 23 -120 78 -120z" />
    <glyph glyph-name="gecy" unicode="&#x433;" horiz-adv-x="500" 
d="M403 146l40 -74c-45 -30 -138 -82 -238 -82c-95 0 -176 47 -176 142c0 200 286 197 286 282c0 25 -17 36 -45 36c-60 0 -140 -40 -140 -40l-37 70c25 15 127 70 217 70s152 -47 152 -137c0 -200 -292 -198 -292 -283c0 -25 20 -35 50 -35c70 0 163 41 183 51z" />
    <glyph glyph-name="decy" unicode="&#x434;" horiz-adv-x="574" 
d="M188 663l-6 94c41 15 86 24 130 24c120 0 226 -71 226 -286c0 -150 -33 -505 -313 -505c-125 0 -195 75 -195 225c0 180 98 320 242 320c93 0 136 -57 148 -90c20 172 -50 233 -130 233c-31 0 -66 -6 -102 -15zM254 110c104 0 137 119 137 186c0 65 -23 129 -88 129
c-85 0 -128 -110 -128 -200c0 -80 26 -115 79 -115z" />
    <glyph glyph-name="iecy" unicode="&#x435;" horiz-adv-x="522" 
d="M418 141l42 -74c-29 -20 -129 -77 -235 -77c-120 0 -199 68 -199 185c0 221 137 375 301 375c118 0 190 -56 190 -143c0 -113 -125 -192 -345 -194c0 -87 35 -108 94 -108s130 29 152 36zM372 389c0 32 -19 48 -57 48c-60 0 -111 -57 -131 -136c127 3 188 43 188 88z" />
    <glyph glyph-name="zhecy" unicode="&#x436;" horiz-adv-x="956" 
d="M865 375l-8 65c-10 4 -18 9 -35 9c-60 0 -113 -134 -113 -274c0 -60 23 -95 63 -95c45 0 88 24 106 31l28 -65c-25 -16 -100 -56 -175 -56c-90 0 -132 65 -132 170c0 28 2 54 5 80h-70l-38 -240h-120l38 240h-72c-35 -152 -127 -250 -236 -250c-60 0 -109 22 -118 26
l28 149h75l8 -65c10 -4 24 -6 37 -6c60 0 111 131 111 271c0 60 -23 95 -63 95c-45 0 -88 -24 -106 -31l-28 65c25 16 100 56 175 56c90 0 132 -65 132 -170c0 -17 -1 -34 -2 -50h73l33 207l120 5l-33 -212h74c39 135 126 220 228 220c60 0 109 -22 118 -26l-28 -149h-75z
" />
    <glyph glyph-name="zecy" unicode="&#x437;" horiz-adv-x="486" 
d="M-13 49l38 88c49 -24 109 -42 158 -42c52 0 91 20 91 71c0 41 -25 63 -98 63h-48l13 90h43c85 0 115 23 115 68c0 47 -34 58 -71 58c-29 0 -60 -7 -79 -15l-13 -59h-91l20 135c45 28 114 44 180 44c102 0 188 -38 188 -131c0 -74 -55 -119 -130 -137
c56 -6 115 -37 115 -124c0 -94 -107 -169 -234 -169c-92 0 -144 24 -197 60z" />
    <glyph glyph-name="iicy" unicode="&#x438;" 
d="M362 0l34 159c-5 -10 -87 -169 -218 -169c-80 0 -110 49 -110 121c0 18 1 38 5 59l43 262l-77 20l13 80l222 8l-55 -343c-2 -13 -3 -24 -3 -35c0 -29 9 -50 38 -50c89 0 149 185 161 230l33 198h141l-69 -436l76 -15l-13 -79z" />
    <glyph glyph-name="iishortcy" unicode="&#x439;" 
d="M198 755l111 28c6 -61 42 -85 96 -85c55 0 104 35 136 85l48 -33c-36 -68 -123 -140 -223 -140s-156 57 -168 145zM362 0l34 159c-5 -10 -87 -169 -218 -169c-80 0 -110 49 -110 121c0 18 1 38 5 59l43 262l-77 20l13 80l222 8l-55 -343c-2 -13 -3 -24 -3 -35
c0 -29 9 -50 38 -50c89 0 149 185 161 230l33 198h141l-69 -436l76 -15l-13 -79z" />
    <glyph glyph-name="kacy" unicode="&#x43a;" horiz-adv-x="560" 
d="M252 339h65l82 102l-40 14l12 80l238 5l-13 -85l-65 -12l-118 -137l83 -203l72 -23l-11 -80h-173l-88 244h-59l-40 -244h-144l69 433l-78 19l14 81l227 9z" />
    <glyph glyph-name="elcy" unicode="&#x43b;" horiz-adv-x="612" 
d="M568 90l-13 -80l-224 -10l65 420h-109c-59 -277 -111 -430 -267 -430c-30 0 -58 8 -72 14l34 115c9 -3 23 -6 39 -6c91 0 126 101 167 317l-114 22l14 88h472l-68 -435z" />
    <glyph glyph-name="emcy" unicode="&#x43c;" horiz-adv-x="892" 
d="M837 80l-13 -80h-213l63 366l-244 -366l-68 -5l-94 339c-52 -223 -104 -344 -238 -344c-30 0 -58 8 -72 14l34 115c9 -3 23 -6 39 -6c86 0 116 101 157 317l-113 22l15 88h250l103 -365l234 360l158 5l-74 -435z" />
    <glyph glyph-name="ency" unicode="&#x43d;" horiz-adv-x="676" 
d="M632 90l-13 -80l-224 -10l35 227h-195l-35 -227h-146l66 430l-75 25l12 80l226 5l-32 -208h196l31 202l147 6l-68 -435z" />
    <glyph glyph-name="ocy" unicode="&#x43e;" horiz-adv-x="579" 
d="M244 -10c-135 0 -214 76 -214 210c0 212 121 350 302 350c138 0 216 -81 216 -211c0 -212 -123 -349 -304 -349zM398 345c-2 57 -33 85 -83 85c-84 0 -135 -101 -135 -222c0 -63 25 -98 81 -98c108 0 137 137 137 235z" />
    <glyph glyph-name="pecy" unicode="&#x43f;" horiz-adv-x="648" 
d="M282 540l-34 -160c5 10 88 170 219 170c79 0 115 -50 115 -122c0 -18 -2 -38 -5 -58l-46 -265l78 -15l-13 -80l-226 -10l55 340c2 13 4 25 4 36c0 28 -10 49 -38 49c-88 0 -160 -202 -166 -254l-29 -171h-144l69 432l-77 20l13 80z" />
    <glyph glyph-name="ercy" unicode="&#x440;" horiz-adv-x="616" 
d="M275 540l-40 -152c6 12 78 162 210 162c94 0 144 -85 144 -185c0 -236 -152 -374 -308 -374c-37 0 -67 8 -88 18l-22 -134l77 -25l-13 -80h-221l103 662l-73 20l13 80zM225 193l-15 -82s34 -11 71 -11c82 0 158 106 158 242c0 46 -16 88 -55 88
c-101 0 -159 -237 -159 -237z" />
    <glyph glyph-name="escy" unicode="&#x441;" horiz-adv-x="485" 
d="M400 151l43 -79c-22 -15 -118 -82 -228 -82c-115 0 -187 68 -187 193c0 222 127 367 310 367c75 0 135 -31 155 -40l-25 -158h-88l-5 70s-20 9 -53 9c-101 0 -146 -120 -146 -228c0 -58 31 -93 82 -93c58 0 120 31 142 41z" />
    <glyph glyph-name="tecy" unicode="&#x442;" horiz-adv-x="938" 
d="M278 540l-33 -161c2 4 79 171 211 171c76 0 108 -52 108 -121c0 -12 -1 -24 -3 -37c24 48 93 158 201 158c79 0 110 -50 110 -122c0 -18 -2 -38 -5 -58l-43 -265l75 -15l-13 -80l-221 -10l56 342c2 13 3 26 3 36c0 29 -9 49 -38 49c-74 0 -131 -147 -154 -234l-31 -193
h-141l55 342c2 13 3 25 3 36c0 28 -9 49 -38 49c-71 0 -128 -142 -158 -257l-28 -170h-141l68 432l-77 20l13 80z" />
    <glyph glyph-name="ucy" unicode="&#x443;" horiz-adv-x="563" 
d="M9 452l12 80l192 8l68 -326l6 -62l118 286l-62 14l12 80l251 8l-14 -85l-49 -16l-191 -423c-85 -189 -133 -256 -256 -256c-60 0 -127 20 -127 20l28 100s39 -5 74 -5c68 0 91 22 125 97l-118 463z" />
    <glyph glyph-name="efcy" unicode="&#x444;" horiz-adv-x="762" 
d="M522 775l-35 -220c164 -14 246 -95 246 -220c0 -190 -130 -311 -334 -332l-21 -128l77 -25l-14 -80h-197l37 232c-168 13 -251 95 -251 215c0 188 134 315 340 337l18 113l-77 20l13 88h198zM472 461l-58 -362c119 20 180 99 180 227c0 72 -35 122 -122 135zM297 98
l57 360c-118 -22 -186 -104 -186 -223c0 -70 39 -122 129 -137z" />
    <glyph glyph-name="hacy" unicode="&#x445;" horiz-adv-x="548" 
d="M569 455l-71 -16l-138 -168l87 -173l76 -14l-13 -79l-171 -10l-84 184l-127 -179h-154l13 80l67 23l136 172l-85 162l-71 15l13 80l166 8l79 -177l128 172l163 5z" />
    <glyph glyph-name="tsecy" unicode="&#x446;" horiz-adv-x="676" 
d="M588 -175h-127l108 213l-6 6c-36 -30 -60 -47 -102 -47c-63 0 -91 54 -76 157c-16 -30 -95 -164 -215 -164c-80 0 -110 49 -110 121c0 34 8 79 48 321l-77 20l13 80l222 8c-52 -320 -58 -356 -58 -378c0 -29 9 -50 38 -50c89 0 149 185 161 230l33 198h138l-70 -438
l128 8l12 -14z" />
    <glyph glyph-name="checy" unicode="&#x447;" horiz-adv-x="596" 
d="M552 90l-13 -80l-224 -10l45 254c-27 -38 -101 -104 -185 -104c-115 0 -139 80 -118 212l11 69l-64 24l13 80l215 5l-29 -166c-13 -75 -6 -104 44 -104c48 0 102 46 128 83l26 181l144 6l-68 -435z" />
    <glyph glyph-name="shacy" unicode="&#x448;" horiz-adv-x="936" 
d="M892 89l-13 -79l-221 -10l34 159c-5 -10 -83 -169 -204 -169c-97 0 -109 100 -106 167c-20 -40 -93 -167 -198 -167c-80 0 -110 49 -110 121c0 34 5 60 48 321l-77 20l13 80l222 8c-51 -320 -58 -356 -58 -378c0 -29 9 -50 38 -50c65 0 137 166 149 222l30 198l145 8
c-53 -330 -58 -356 -58 -378c0 -29 9 -50 38 -50c65 0 135 185 147 230l33 198h141l-69 -436z" />
    <glyph glyph-name="shchacy" unicode="&#x449;" horiz-adv-x="982" 
d="M875 38l-6 6c-36 -30 -60 -47 -102 -47c-64 0 -92 56 -75 162c-5 -10 -83 -169 -204 -169c-91 0 -107 102 -105 169c-19 -38 -92 -169 -199 -169c-80 0 -110 49 -110 121c0 34 5 56 48 321l-77 20l13 80l222 8c-55 -340 -58 -356 -58 -378c0 -29 9 -50 38 -50
c65 0 137 166 149 222l30 198l145 8c-54 -339 -58 -356 -58 -378c0 -29 9 -50 38 -50c65 0 135 171 147 230l33 198h141l-71 -438l128 8l12 -14l-60 -271h-127z" />
    <glyph glyph-name="hardsigncy" unicode="&#x44a;" horiz-adv-x="592" 
d="M395 540l-15 -85c-44 -67 -85 -136 -108 -198c35 43 102 108 182 108c75 0 121 -50 121 -125c0 -140 -114 -250 -244 -250c-110 0 -179 45 -179 155c0 88 52 196 101 285h-104l-28 -91h-94l16 201h352zM330 100c50 0 94 39 94 102c0 27 -19 43 -49 43
c-33 0 -77 -29 -97 -63c-2 -8 -3 -16 -3 -26c0 -40 20 -56 55 -56z" />
    <glyph glyph-name="yerucy" unicode="&#x44b;" horiz-adv-x="809" 
d="M253 360l-22 -67c19 17 81 63 141 63c75 0 126 -51 126 -131c0 -144 -109 -235 -255 -235c-115 0 -189 70 -161 209l47 231l-74 25l12 80l225 5zM689 105l76 -15l-13 -80l-224 -10l85 540h145zM267 100c55 0 80 51 80 101c0 29 -17 46 -42 46c-35 0 -64 -22 -85 -43
c-10 -66 -3 -104 47 -104z" />
    <glyph glyph-name="softsigncy" unicode="&#x44c;" horiz-adv-x="529" 
d="M253 360l-22 -67c19 17 81 63 141 63c75 0 126 -51 126 -131c0 -144 -109 -235 -255 -235c-115 0 -189 70 -161 209l47 231l-74 25l12 80l225 5zM267 100c55 0 80 51 80 101c0 29 -17 46 -42 46c-35 0 -64 -22 -85 -43c-10 -66 -3 -104 47 -104z" />
    <glyph glyph-name="ereversedcy" unicode="&#x44d;" horiz-adv-x="513" 
d="M58 356l19 153s97 41 185 41c140 0 221 -72 221 -209c0 -204 -129 -351 -303 -351c-118 0 -183 65 -197 79l63 92c27 -18 75 -51 138 -51c56 0 106 39 130 106h-176l21 100h170c-1 70 -23 114 -94 114c-34 0 -66 -8 -66 -8l-23 -66h-88z" />
    <glyph glyph-name="iucy" unicode="&#x44e;" horiz-adv-x="878" 
d="M274 332h64c40 135 144 218 284 218c138 0 216 -81 216 -211c0 -212 -123 -349 -304 -349c-135 0 -214 76 -214 210l1 27h-64l-35 -227h-145l66 430l-73 25l12 80l224 5zM551 110c108 0 137 137 137 235c-2 57 -33 85 -83 85c-84 0 -135 -101 -135 -222
c0 -63 25 -98 81 -98z" />
    <glyph glyph-name="iacy" unicode="&#x44f;" horiz-adv-x="579" 
d="M540 90l-13 -80l-221 -10l32 191c-15 -3 -32 -5 -52 -5h-9c-38 -72 -98 -151 -147 -186h-168l13 80l65 20c46 27 96 76 123 114c-50 28 -73 74 -73 126c0 97 85 209 253 209c70 0 130 -11 190 -25l-66 -419zM353 283l26 155c-13 4 -29 7 -46 7c-60 0 -106 -42 -106 -102
c0 -50 37 -66 82 -66c13 0 29 2 44 6z" />
    <glyph glyph-name="iegravecy" unicode="&#x450;" horiz-adv-x="522" 
d="M233 841l260 -169l-38 -75l-271 132zM418 141l42 -74c-29 -20 -129 -77 -235 -77c-120 0 -199 68 -199 185c0 221 137 375 301 375c118 0 190 -56 190 -143c0 -113 -125 -192 -345 -194c0 -87 35 -108 94 -108s130 29 152 36zM372 389c0 32 -19 48 -57 48
c-60 0 -111 -57 -131 -136c127 3 188 43 188 88z" />
    <glyph glyph-name="iocy" unicode="&#x451;" horiz-adv-x="522" 
d="M418 141l42 -74c-29 -20 -129 -77 -235 -77c-120 0 -199 68 -199 185c0 221 137 375 301 375c118 0 190 -56 190 -143c0 -113 -125 -192 -345 -194c0 -87 35 -108 94 -108s130 29 152 36zM372 389c0 32 -19 48 -57 48c-60 0 -111 -57 -131 -136c127 3 188 43 188 88z
M102 694c0 51 29 96 83 96c38 0 62 -23 62 -61c0 -51 -32 -95 -85 -95c-37 0 -60 23 -60 60zM315 694c0 51 29 96 82 96c38 0 62 -23 62 -61c0 -51 -31 -95 -84 -95c-37 0 -60 23 -60 60z" />
    <glyph glyph-name="djecy" unicode="&#x452;" horiz-adv-x="624" 
d="M276 555l-36 -208c4 10 84 168 215 168c80 0 112 -46 112 -119c0 -25 -4 -82 -25 -196c-67 -363 -107 -435 -261 -435c-58 0 -100 18 -100 18l27 92c17 -3 34 -6 58 -6c57 0 73 15 131 317c18 93 21 121 20 159c-1 28 -9 49 -38 49c-88 0 -150 -185 -155 -212l-33 -182
h-145l89 555h-78l12 75h78l6 37l-77 20l13 80l226 8l-25 -145h188l-12 -75h-190z" />
    <glyph glyph-name="gjecy" unicode="&#x453;" horiz-adv-x="500" 
d="M478 741l-52 104l-249 -172l46 -73zM403 146l40 -74c-45 -30 -138 -82 -238 -82c-95 0 -176 47 -176 142c0 200 286 197 286 282c0 25 -17 36 -45 36c-60 0 -140 -40 -140 -40l-37 70c25 15 127 70 217 70s152 -47 152 -137c0 -200 -292 -198 -292 -283
c0 -25 20 -35 50 -35c70 0 163 41 183 51z" />
    <glyph glyph-name="ecy" unicode="&#x454;" horiz-adv-x="510" 
d="M390 352l-5 70s-30 9 -63 9c-65 0 -107 -50 -129 -115h173l-17 -100h-173v-13c0 -58 41 -93 92 -93c68 0 130 31 152 41l43 -79c-33 -23 -126 -82 -228 -82c-118 0 -207 65 -207 193c0 222 127 367 310 367c85 0 145 -31 165 -40l-25 -158h-88z" />
    <glyph glyph-name="dzecy" unicode="&#x455;" horiz-adv-x="487" 
d="M123 175v-70s29 -11 69 -11c53 0 85 20 85 58c0 82 -212 80 -212 228c0 117 98 170 223 170c89 0 170 -28 170 -28l-27 -150h-86l-5 65s-21 9 -58 9c-44 0 -70 -20 -70 -53c0 -82 217 -81 217 -224c0 -115 -102 -179 -244 -179c-90 0 -174 25 -174 25l26 160h86z" />
    <glyph glyph-name="icy" unicode="&#x456;" horiz-adv-x="334" 
d="M147 685c0 59 37 110 95 110c40 0 69 -24 69 -70c0 -61 -37 -112 -93 -112c-42 0 -71 24 -71 72zM214 105l76 -15l-13 -80l-224 -10l68 432l-77 20l14 80l225 8z" />
    <glyph glyph-name="yicy" unicode="&#x457;" horiz-adv-x="330" 
d="M42 694c0 51 29 96 83 96c38 0 62 -23 62 -61c0 -51 -32 -95 -85 -95c-37 0 -60 23 -60 60zM236 694c0 51 29 96 82 96c38 0 62 -23 62 -61c0 -51 -31 -95 -84 -95c-37 0 -60 23 -60 60zM210 105l76 -15l-13 -80l-220 -10l68 432l-77 20l14 80l221 8z" />
    <glyph glyph-name="jecy" unicode="&#x458;" horiz-adv-x="329" 
d="M144 685c0 59 37 110 95 110c41 0 70 -24 70 -70c0 -61 -37 -112 -94 -112c-41 0 -71 24 -71 72zM59 532l222 8l-94 -583c-20 -125 -97 -202 -221 -202c-43 0 -100 15 -100 15l20 88c11 0 35 -3 63 -3c71 0 87 38 102 129l72 448l-78 20z" />
    <glyph glyph-name="ljecy" unicode="&#x459;" horiz-adv-x="812" 
d="M536 360l-22 -67c19 17 81 63 141 63c75 0 126 -51 126 -131c0 -144 -109 -235 -255 -235c-115 0 -189 70 -161 209l45 221h-123c-59 -277 -111 -430 -267 -430c-30 0 -58 8 -72 14l34 115c9 -3 23 -6 39 -6c91 0 126 101 167 317l-114 22l14 88h487zM550 100
c55 0 80 51 80 101c0 29 -17 46 -42 46c-35 0 -64 -22 -85 -43c-10 -66 -3 -104 47 -104z" />
    <glyph glyph-name="njecy" unicode="&#x45a;" horiz-adv-x="868" 
d="M588 360l-22 -67c19 17 81 63 141 63c75 0 126 -51 126 -131c0 -144 -109 -235 -255 -235c-115 0 -188 70 -161 209l5 28h-190l-35 -227h-145l66 430l-73 25l12 80l224 5l-32 -208h194l39 203l145 5zM602 100c55 0 80 51 80 101c0 29 -17 46 -42 46
c-35 0 -64 -22 -85 -43c-10 -66 -3 -104 47 -104z" />
    <glyph glyph-name="tshecy" unicode="&#x45b;" horiz-adv-x="639" 
d="M600 90l-13 -80l-224 -10l50 309c2 13 3 25 3 36c0 28 -9 49 -38 49c-88 0 -143 -152 -154 -212l-33 -182h-145l89 555h-78l12 75h78l6 37l-77 20l13 80l226 8l-26 -145h189l-12 -75h-190l-31 -175c4 10 78 135 209 135c80 0 112 -46 112 -119c0 -18 -2 -38 -5 -59
l-36 -232z" />
    <glyph glyph-name="kjecy" unicode="&#x45c;" horiz-adv-x="560" 
d="M540 741l-52 104l-249 -172l46 -73zM252 339h65l82 102l-40 14l12 80l238 5l-13 -85l-65 -12l-118 -137l83 -203l72 -23l-11 -80h-173l-88 244h-59l-40 -244h-144l69 433l-78 19l14 81l227 9z" />
    <glyph glyph-name="iigravecy" unicode="&#x45d;" 
d="M230 841l260 -169l-38 -75l-271 132zM362 0l34 159c-5 -10 -87 -169 -218 -169c-80 0 -110 49 -110 121c0 18 1 38 5 59l43 262l-77 20l13 80l222 8l-55 -343c-2 -13 -3 -24 -3 -35c0 -29 9 -50 38 -50c89 0 149 185 161 230l33 198h141l-69 -436l76 -15l-13 -79z" />
    <glyph glyph-name="ushortcy" unicode="&#x45e;" horiz-adv-x="563" 
d="M136 755l111 28c6 -61 42 -85 96 -85c55 0 104 35 136 85l48 -33c-36 -68 -123 -140 -223 -140s-156 57 -168 145zM9 452l12 80l192 8l68 -326l6 -62l118 286l-62 14l12 80l251 8l-14 -85l-49 -16l-191 -423c-85 -189 -133 -256 -256 -256c-60 0 -127 20 -127 20l28 100
s39 -5 74 -5c68 0 91 22 125 97l-118 463z" />
    <glyph glyph-name="dzhecy" unicode="&#x45f;" 
d="M362 0l34 159c-5 -10 -87 -169 -218 -169c-80 0 -110 49 -110 121c0 34 8 79 48 321l-77 20l13 80l222 8c-52 -320 -58 -356 -58 -378c0 -29 9 -50 38 -50c89 0 149 185 161 230l33 198h141l-69 -436l76 -15l-13 -79zM244 -45h84l-34 -175h-121z" />
    <glyph glyph-name="Gheupturncy" unicode="&#x490;" horiz-adv-x="544" 
d="M599 588h-286l-72 -473l109 -30l-14 -85h-336l14 85l77 30l72 470l-67 30l12 85l224 5h142l83 195h92z" />
    <glyph glyph-name="gheupturncy" unicode="&#x491;" horiz-adv-x="486" 
d="M505 420l-2 2l1 -2h-226l-50 -315l94 -25l-12 -80h-323l13 80l83 25l50 325l-73 25l12 80l225 5h110l41 140h92z" />
    <glyph glyph-name="Ustraitstrokecy" unicode="&#x4b0;" horiz-adv-x="620" 
d="M691 705l-14 -88l-74 -28l-198 -311h132l-15 -105h-157l-10 -61l70 -25l-14 -87h-296l14 87l78 25l10 61h-137l15 105h123l-97 317l-76 22l13 83l188 5l90 -329l127 219l-68 22l13 83z" />
    <glyph glyph-name="ustraitstrokecy" unicode="&#x4b1;" horiz-adv-x="576" 
d="M627 540l-12 -85l-63 -13l-190 -352h120l-14 -90h-146l-20 -125l94 -25l-13 -80h-340l13 80l100 25l21 125h-148l15 90h123l-76 349l-55 16l11 80l170 5l66 -398l136 300l-59 13l12 80z" />
    <glyph glyph-name="Wgrave" unicode="&#x1e80;" horiz-adv-x="978" 
d="M409 957l242 -131l-38 -80l-251 103zM45 617l13 83l193 5l62 -471l194 463l116 8l63 -474l148 357l-69 29l15 83l278 5l-15 -88l-72 -29l-267 -588h-117l-65 440l-197 -440h-117l-93 590z" />
    <glyph glyph-name="wgrave" unicode="&#x1e81;" horiz-adv-x="822" 
d="M357 841l260 -169l-38 -75l-271 132zM669 437l-64 15l13 80l242 8l-14 -85l-42 -13l-202 -442h-149l-42 300l-121 -300h-148l-69 439l-64 13l13 80l190 8l41 -375l141 361l116 16l49 -377z" />
    <glyph glyph-name="Wacute" unicode="&#x1e82;" horiz-adv-x="978" 
d="M437 738l-38 80l245 130l53 -104zM45 617l13 83l193 5l62 -471l194 463l116 8l63 -474l148 357l-69 29l15 83l278 5l-15 -88l-72 -29l-267 -588h-117l-65 440l-197 -440h-117l-93 590z" />
    <glyph glyph-name="wacute" unicode="&#x1e83;" horiz-adv-x="822" 
d="M640 741l-52 104l-249 -172l46 -73zM669 437l-64 15l13 80l242 8l-14 -85l-42 -13l-202 -442h-149l-42 300l-121 -300h-148l-69 439l-64 13l13 80l190 8l41 -375l141 361l116 16l49 -377z" />
    <glyph glyph-name="Wdieresis" unicode="&#x1e84;" horiz-adv-x="973" 
d="M394 830c0 51 29 96 83 96c38 0 62 -23 62 -61c0 -51 -32 -95 -85 -95c-37 0 -60 23 -60 60zM607 830c0 51 29 96 82 96c38 0 62 -23 62 -61c0 -51 -31 -95 -84 -95c-37 0 -60 23 -60 60zM35 617l13 83l193 5l62 -471l194 463l116 8l63 -474l148 357l-69 29l15 83l278 5
l-15 -88l-72 -29l-267 -588h-117l-65 440l-197 -440h-117l-93 590z" />
    <glyph glyph-name="wdieresis" unicode="&#x1e85;" horiz-adv-x="822" 
d="M300 680c0 51 29 96 83 96c38 0 62 -23 62 -61c0 -51 -32 -95 -85 -95c-37 0 -60 23 -60 60zM513 680c0 51 29 96 82 96c38 0 62 -23 62 -61c0 -51 -31 -95 -84 -95c-37 0 -60 23 -60 60zM669 437l-64 15l13 80l242 8l-14 -85l-42 -13l-202 -442h-149l-42 300l-121 -300
h-148l-69 439l-64 13l13 80l190 8l41 -375l141 361l116 16l49 -377z" />
    <glyph glyph-name="Ygrave" unicode="&#x1ef2;" horiz-adv-x="617" 
d="M186 957l242 -131l-38 -80l-251 103zM411 0h-296l14 87l78 25l21 134l-107 349l-76 22l13 83l188 5l90 -329l127 219l-68 22l13 83l283 5l-14 -88l-74 -28l-229 -359l-19 -118l70 -25z" />
    <glyph glyph-name="ygrave" unicode="&#x1ef3;" horiz-adv-x="563" 
d="M120 841l260 -169l-38 -75l-271 132zM9 452l12 80l192 8l68 -326l6 -62l118 286l-62 14l12 80l251 8l-14 -85l-49 -16l-191 -423c-85 -189 -133 -256 -256 -256c-60 0 -127 20 -127 20l28 100s39 -5 74 -5c68 0 91 22 125 97l-118 463z" />
    <glyph glyph-name="endash" unicode="&#x2013;" horiz-adv-x="493" 
d="M498 385l-19 -118h-484l18 118h485z" />
    <glyph glyph-name="emdash" unicode="&#x2014;" horiz-adv-x="928" 
d="M943 385l-18 -118h-940l18 118h940z" />
    <glyph glyph-name="horizontalbar" unicode="&#x2015;" horiz-adv-x="928" 
d="M947 385l-19 -118h-930l19 118h930z" />
    <glyph glyph-name="underscoredbl" unicode="&#x2017;" horiz-adv-x="518" 
d="M433 -80v-100h-504v100h504zM433 -260v-100h-504v100h504z" />
    <glyph glyph-name="quoteleft" unicode="&#x2018;" horiz-adv-x="289" 
d="M266 787l53 -52s-79 -82 -79 -121c0 -25 18 -45 18 -79c0 -59 -41 -101 -95 -101c-46 0 -73 27 -73 74c0 95 111 217 176 279z" />
    <glyph glyph-name="quoteright" unicode="&#x2019;" horiz-adv-x="286" 
d="M123 434l-53 53s79 82 79 121c0 25 -18 44 -18 78c0 59 40 101 95 101c46 0 73 -27 73 -73c0 -96 -111 -217 -176 -280z" />
    <glyph glyph-name="quotesinglbase" unicode="&#x201a;" horiz-adv-x="288" 
d="M32 -209l-52 52s78 82 78 121c0 25 -18 44 -18 78c0 59 40 101 95 101c46 0 73 -27 73 -73c0 -95 -111 -217 -176 -279z" />
    <glyph glyph-name="quotereversed" unicode="&#x201b;" horiz-adv-x="302" 
d="M303 487l-61 -53c-55 63 -147 184 -132 280c7 46 38 73 84 73c55 0 89 -42 79 -101c-5 -34 -26 -53 -30 -78c-6 -39 60 -121 60 -121z" />
    <glyph glyph-name="quotedblleft" unicode="&#x201c;" horiz-adv-x="514" 
d="M266 787l53 -52s-79 -82 -79 -121c0 -25 18 -45 18 -79c0 -59 -41 -101 -95 -101c-46 0 -73 27 -73 74c0 95 111 217 176 279zM491 787l53 -52s-79 -82 -79 -121c0 -25 18 -45 18 -79c0 -59 -41 -101 -95 -101c-46 0 -73 27 -73 74c0 95 111 217 176 279z" />
    <glyph glyph-name="quotedblright" unicode="&#x201d;" horiz-adv-x="554" 
d="M123 434l-53 53s79 82 79 121c0 25 -18 44 -18 78c0 59 40 101 95 101c46 0 73 -27 73 -73c0 -96 -111 -217 -176 -280zM348 434l-53 53s79 82 79 121c0 25 -18 44 -18 78c0 59 40 101 95 101c46 0 73 -27 73 -73c0 -96 -111 -217 -176 -280z" />
    <glyph glyph-name="quotedblbase" unicode="&#x201e;" horiz-adv-x="463" 
d="M22 -209l-52 52s78 82 78 121c0 25 -18 44 -18 78c0 59 40 101 95 101c46 0 73 -27 73 -73c0 -95 -111 -217 -176 -279zM247 -209l-53 52s79 82 79 121c0 25 -18 44 -18 78c0 59 40 101 95 101c46 0 73 -27 73 -73c0 -95 -111 -217 -176 -279z" />
    <glyph glyph-name="dagger" unicode="&#x2020;" horiz-adv-x="488" 
d="M246 610l17 142l122 8l-30 -150h161l-14 -95l-223 -34l-209 34l15 95h161zM271 426l79 17l-75 -392l-69 -51l-52 51l44 392z" />
    <glyph glyph-name="daggerdbl" unicode="&#x2021;" horiz-adv-x="488" 
d="M246 610l17 142l122 8l-30 -150h161l-14 -95l-223 -34l-209 34l15 95h161zM272 431l174 29l-15 -99l-177 -42l-165 42l14 99zM247 270l72 16l-44 -235l-69 -51l-52 51l27 235z" />
    <glyph glyph-name="bullet" unicode="&#x2022;" horiz-adv-x="508" 
d="M85 315c0 104 85 189 189 189s189 -85 189 -189s-85 -189 -189 -189s-189 85 -189 189z" />
    <glyph glyph-name="ellipsis" unicode="&#x2026;" horiz-adv-x="770" 
d="M30 59c0 58 31 109 96 109c44 0 74 -27 74 -71c0 -58 -33 -110 -98 -110c-44 0 -72 28 -72 72zM276 59c0 58 31 109 96 109c44 0 73 -27 73 -71c0 -58 -32 -110 -98 -110c-44 0 -71 28 -71 72zM521 59c0 58 31 109 96 109c44 0 73 -27 73 -71c0 -58 -32 -110 -98 -110
c-44 0 -71 28 -71 72z" />
    <glyph glyph-name="perthousand" unicode="&#x2030;" horiz-adv-x="1175" 
d="M290 717c89 0 140 -48 140 -132c0 -131 -77 -235 -204 -235c-93 0 -146 45 -146 134c0 136 87 233 210 233zM241 436c43 0 76 60 76 126c0 44 -10 69 -47 69c-45 0 -77 -60 -77 -128c0 -44 14 -67 48 -67zM683 353c89 0 140 -48 140 -132c0 -131 -77 -234 -204 -234
c-93 0 -146 44 -146 133c0 136 87 233 210 233zM634 72c43 0 76 60 76 126c0 44 -10 69 -47 69c-45 0 -77 -60 -77 -128c0 -44 14 -67 48 -67zM1061 353c89 0 140 -48 140 -132c0 -131 -76 -234 -203 -234c-93 0 -146 44 -146 133c0 136 87 233 209 233zM1012 72
c47 0 76 66 76 135c0 38 -14 60 -47 60c-47 0 -76 -64 -76 -135c0 -39 17 -60 47 -60zM779 712l-519 -719h-140l519 719h140z" />
    <glyph glyph-name="minute" unicode="&#x2032;" horiz-adv-x="237" 
d="M93 508l68 280l121 -14l-88 -278z" />
    <glyph glyph-name="second" unicode="&#x2033;" horiz-adv-x="433" 
d="M93 508l68 280l121 -14l-88 -278zM289 508l68 280l121 -14l-88 -278z" />
    <glyph glyph-name="guilsinglleft" unicode="&#x2039;" horiz-adv-x="374" 
d="M190 52l-133 178l12 77l186 170l71 -58l-141 -152l90 -160z" />
    <glyph glyph-name="guilsinglright" unicode="&#x203a;" horiz-adv-x="366" 
d="M188 477l131 -179l-12 -77l-184 -169l-71 57l139 153l-88 159z" />
    <glyph glyph-name="exclamdbl" unicode="&#x203c;" horiz-adv-x="583" 
d="M113 256l66 509h148l-98 -504zM363 256l66 509h148l-98 -504zM58 58c0 58 32 110 98 110c44 0 72 -28 72 -72c0 -58 -32 -109 -97 -109c-44 0 -73 27 -73 71zM308 58c0 58 32 110 98 110c44 0 72 -28 72 -72c0 -58 -32 -109 -97 -109c-44 0 -73 27 -73 71z" />
    <glyph glyph-name="overline" unicode="&#x203e;" horiz-adv-x="540" 
d="M525 711l-16 -95h-456l16 95h456z" />
    <glyph glyph-name="fraction" unicode="&#x2044;" horiz-adv-x="542" 
d="M672 705l-652 -779c-28 22 -57 44 -85 67l650 779c29 -22 58 -44 87 -67z" />
    <glyph glyph-name="foursuperior" unicode="&#x2074;" horiz-adv-x="453" 
d="M383 450h58l-16 -93h-57l-12 -77h-124l12 77h-194l2 84l233 269l137 -15zM260 450l20 127l-112 -127h92z" />
    <glyph glyph-name="nsuperior" unicode="&#x207f;" horiz-adv-x="514" 
d="M250 711l-25 -119s62 126 161 126c61 0 84 -37 84 -90c0 -13 -1 -28 -3 -43l-33 -184l54 -11l-10 -63l-164 -7l41 245c2 9 3 18 3 26c0 21 -7 36 -28 36c-64 0 -117 -143 -123 -181l-21 -126h-107l52 311l-57 15l10 59z" />
    <glyph glyph-name="franc" unicode="&#x20a3;" horiz-adv-x="555" 
d="M120 245l55 343l-69 29l13 83l222 5h273l-31 -193h-80l-13 75h-167l-29 -177h202l-18 -110h-201l-9 -55h121l-13 -85h-122l-8 -51l78 -22l-14 -87h-302l14 87l77 22l8 51h-74l13 85h74z" />
    <glyph glyph-name="lira" unicode="&#x20a4;" horiz-adv-x="606" 
d="M163 473l5 37c16 125 94 207 239 207c119 0 201 -33 201 -33l-29 -180h-83l-13 90c-9 1 -42 6 -78 6c-58 0 -87 -36 -94 -88l-5 -39h141l-14 -90h-369l14 90h85zM39 235h99c-9 -81 -21 -115 -66 -130l-52 -18l-13 -87h495l33 203h-91l-35 -86h-181c2 1 47 32 52 104l1 14
h128l14 90h-369z" />
    <glyph glyph-name="peseta" unicode="&#x20a7;" horiz-adv-x="700" 
d="M686 435h-70c-41 -133 -165 -190 -305 -190h-53l-21 -134l72 -24l-14 -87h-298l14 87l78 24l51 324h-74l13 85h74l11 68l-69 29l13 83l223 5h94c110 0 205 -50 205 -171c0 -5 -1 -10 -1 -14h70zM301 520h174c-7 49 -46 67 -86 67h-77zM276 362h53c71 0 114 29 133 73
h-175z" />
    <glyph glyph-name="euro" unicode="&#x20ac;" horiz-adv-x="657" 
d="M536 499l-11 82s-39 11 -84 11c-92 0 -127 -73 -144 -128h195l-14 -90h-416l14 90h67c55 160 166 253 319 253c98 0 190 -44 190 -44l-33 -174h-83zM468 311l-14 -90h-190c7 -61 38 -105 105 -105c81 0 167 60 167 60l44 -78s-114 -110 -250 -110
c-143 0 -218 94 -224 233h-69l15 90h416z" />
    <glyph glyph-name="careof" unicode="&#x2105;" horiz-adv-x="1063" 
d="M838 428c106 0 166 -58 166 -154c0 -157 -92 -279 -241 -279c-108 0 -172 53 -172 155c0 168 103 278 247 278zM817 331c-68 0 -102 -81 -102 -170c0 -48 26 -69 69 -69c64 0 96 89 96 168c0 46 -20 71 -63 71zM369 548l-7 58c-11 4 -28 9 -56 9
c-65 0 -105 -70 -105 -166c0 -49 27 -74 64 -74c50 0 86 19 113 33l39 -62c-40 -27 -102 -69 -182 -69c-94 0 -155 61 -155 156c0 163 97 277 233 277c83 0 146 -37 146 -37l-17 -125h-73zM836 705l-501 -705h-142l501 705h142z" />
    <glyph glyph-name="literSign" unicode="&#x2113;" horiz-adv-x="513" 
d="M265 236l10 65c154 107 250 223 250 350c0 85 -53 134 -143 134c-154 0 -194 -135 -213 -255l-31 -193c-72 -47 -130 -80 -130 -80l41 -87c23 11 46 23 68 35l-1 -10c-20 -125 37 -208 161 -208c43 0 110 15 110 15l8 105c-17 -2 -37 -5 -66 -5c-65 0 -78 43 -64 134z
M301 456l14 94c9 61 21 120 55 120c20 0 26 -15 26 -35c0 -56 -42 -125 -95 -179z" />
    <glyph glyph-name="numero" unicode="&#x2116;" horiz-adv-x="1252" 
d="M1053 718c101 0 157 -54 157 -146c0 -147 -86 -258 -227 -258c-103 0 -163 50 -163 147c0 152 96 257 233 257zM1033 627c-63 0 -95 -77 -95 -156c0 -45 24 -66 64 -66c60 0 90 80 90 154c0 43 -19 68 -59 68zM-8 0l14 87l78 24l75 477l-69 29l13 83l232 5l191 -466
l55 349l-65 29l13 83l277 5l-14 -88l-77 -29l-93 -588h-155l-193 464l-57 -353l67 -24l-14 -87h-278zM1152 235l-16 -100h-364l16 100h364z" />
    <glyph glyph-name="trademark" unicode="&#x2122;" horiz-adv-x="956" 
d="M202 383l42 259h-57l-23 -73h-55l21 136h340l-21 -136h-56l-2 73h-56l-42 -259l48 -15l-9 -48h-190l9 48zM440 320l7 48l47 15l41 252l-41 14l8 53l145 3l54 -171l111 168l138 3l-8 -54l-46 -16l-42 -252l40 -15l-9 -48h-168l9 48l46 15l30 183l-94 -140l-62 -7l-47 141
l-29 -177l44 -15l-8 -48h-166z" />
    <glyph glyph-name="Ohm" unicode="&#x2126;" horiz-adv-x="778" 
d="M670 0h-265l17 100c29 20 156 96 156 339c0 85 -40 153 -130 153c-143 0 -208 -144 -208 -271c0 -139 55 -204 65 -217l-25 -104h-265l20 120l122 -3c-25 28 -71 103 -71 200c0 215 138 400 380 400c164 0 272 -99 272 -262c0 -169 -113 -293 -161 -334l114 4z" />
    <glyph glyph-name="estimated" unicode="&#x212e;" horiz-adv-x="665" 
d="M181 360v-197c42 -40 102 -62 164 -62c85 0 173 33 224 85l26 -26c-57 -61 -160 -100 -250 -100c-170 0 -285 110 -285 285c0 165 130 295 295 295c160 0 280 -120 280 -280h-454zM515 395v140c-43 40 -92 65 -160 65c-71 0 -129 -29 -174 -74v-131h334z" />
    <glyph glyph-name="oneeighth" unicode="&#x215b;" horiz-adv-x="1012" 
d="M972 330c0 -50 -31 -86 -70 -106c24 -18 55 -41 55 -85c0 -96 -92 -152 -198 -152c-93 0 -153 44 -153 105c0 60 49 97 91 117c-22 17 -46 36 -46 77c0 100 92 146 185 146c85 0 136 -42 136 -102zM815 342c-30 0 -50 -17 -50 -40c0 -27 35 -37 56 -46c18 8 37 26 37 52
c0 17 -15 34 -43 34zM774 77c39 0 63 21 63 46c0 23 -21 43 -45 53c-21 -8 -66 -21 -66 -61c0 -18 19 -38 48 -38zM50 280l14 89h92l33 209l-96 -55l-35 83l169 99h106l-53 -336h74l-14 -89h-290zM813 705l-501 -705h-142l501 705h142z" />
    <glyph glyph-name="threeeighths" unicode="&#x215c;" horiz-adv-x="1012" 
d="M972 330c0 -50 -31 -86 -70 -106c24 -18 55 -41 55 -85c0 -96 -92 -152 -198 -152c-93 0 -153 44 -153 105c0 60 49 97 91 117c-22 17 -46 36 -46 77c0 100 92 146 185 146c85 0 136 -42 136 -102zM815 342c-30 0 -50 -17 -50 -40c0 -27 35 -37 56 -46c18 8 37 26 37 52
c0 17 -15 34 -43 34zM774 77c39 0 63 21 63 46c0 23 -21 43 -45 53c-21 -8 -66 -21 -66 -61c0 -18 19 -38 48 -38zM85 574l15 114s87 23 154 23c96 0 146 -35 146 -99c0 -60 -40 -97 -96 -112c41 -7 74 -38 74 -80c0 -109 -100 -152 -200 -152c-80 0 -148 42 -148 42l38 80
s53 -27 109 -27c47 0 76 21 76 53c0 25 -18 39 -60 39h-57l11 75h54c42 0 76 14 76 55c0 21 -16 33 -48 33c-29 0 -55 -6 -55 -6l-10 -38h-79zM810 705l-501 -705h-142l501 705h142z" />
    <glyph glyph-name="fiveeighths" unicode="&#x215d;" horiz-adv-x="1012" 
d="M972 330c0 -50 -31 -86 -70 -106c24 -18 55 -41 55 -85c0 -96 -92 -152 -198 -152c-93 0 -153 44 -153 105c0 60 49 97 91 117c-22 17 -46 36 -46 77c0 100 92 146 185 146c85 0 136 -42 136 -102zM815 342c-30 0 -50 -17 -50 -40c0 -27 35 -37 56 -46c18 8 37 26 37 52
c0 17 -15 34 -43 34zM774 77c39 0 63 21 63 46c0 23 -21 43 -45 53c-21 -8 -66 -21 -66 -61c0 -18 19 -38 48 -38zM30 305l45 82s52 -24 101 -24c37 0 70 17 70 51c0 22 -19 42 -76 42h-91l47 249h267l-17 -92h-163l-13 -73h27c84 -3 142 -43 142 -108
c0 -95 -85 -164 -185 -164c-80 0 -154 37 -154 37zM809 705l-501 -705h-142l501 705h142z" />
    <glyph glyph-name="seveneighths" unicode="&#x215e;" horiz-adv-x="992" 
d="M952 330c0 -50 -31 -86 -70 -106c24 -18 55 -41 55 -85c0 -96 -92 -152 -198 -152c-93 0 -153 44 -153 105c0 60 49 97 91 117c-22 17 -46 36 -46 77c0 100 92 146 185 146c85 0 136 -42 136 -102zM795 342c-30 0 -50 -17 -50 -40c0 -27 35 -37 56 -46c18 8 37 26 37 52
c0 17 -15 34 -43 34zM754 77c39 0 63 21 63 46c0 23 -21 43 -45 53c-21 -8 -66 -21 -66 -61c0 -18 19 -38 48 -38zM420 621l-216 -342h-134l206 332h-119l-20 -52h-82l23 146h356zM786 705l-501 -705h-142l501 705h142z" />
    <glyph glyph-name="arrowleft" unicode="&#x2190;" horiz-adv-x="677" 
d="M240 258l104 -150l-93 -68l-196 247l9 60l269 247l69 -75l-143 -141h438l-19 -120h-438z" />
    <glyph glyph-name="arrowup" unicode="&#x2191;" horiz-adv-x="635" 
d="M264 395l-169 -127l-55 83l285 234h56l214 -231l-88 -81l-123 122l-62 -395h-120z" />
    <glyph glyph-name="arrowright" unicode="&#x2192;" horiz-adv-x="677" 
d="M437 378l-99 141l93 75l191 -247l-9 -60l-274 -247l-73 68l152 150h-438l19 120h438z" />
    <glyph glyph-name="arrowdown" unicode="&#x2193;" horiz-adv-x="625" 
d="M371 177l169 127l55 -83l-285 -234h-56l-214 231l88 81l123 -122l62 395h120z" />
    <glyph glyph-name="arrowboth" unicode="&#x2194;" horiz-adv-x="787" 
d="M575 359l-84 120l79 63l162 -214l-8 -47l-233 -209l-62 57l130 128h-347l89 -128l-79 -57l-167 213l8 47l228 210l59 -63l-122 -120h347z" />
    <glyph glyph-name="arrowupdown" unicode="&#x2195;" horiz-adv-x="593" 
d="M320 133l145 110l46 -70l-245 -200h-46l-180 194l74 69l104 -103l55 348l-145 -110l-46 70l245 200h46l180 -194l-74 -69l-104 103z" />
    <glyph glyph-name="arrowupdownbase" unicode="&#x21a8;" horiz-adv-x="628" 
d="M365 133l146 110l46 -70l-245 -200h-47l-179 194l74 69l103 -103l55 348l-145 -110l-46 70l245 200h47l179 -194l-74 -69l-104 103zM517 -85l-16 -100h-471l16 100h471z" />
    <glyph glyph-name="partialdiff" unicode="&#x2202;" horiz-adv-x="608" 
d="M214 648l-4 108s79 29 155 29c134 0 228 -80 228 -265c0 -228 -113 -535 -352 -535c-125 0 -206 77 -206 197c0 168 103 285 268 285c83 0 145 -54 145 -54s10 54 10 91c0 111 -65 156 -138 156c-49 0 -104 -12 -106 -12zM422 288c0 0 -28 59 -112 59
c-78 0 -127 -59 -127 -140c0 -52 38 -87 82 -87c118 0 157 168 157 168z" />
    <glyph glyph-name="increment" unicode="&#x2206;" 
d="M464 723l146 -623l-16 -100h-624l17 100l349 623h128zM466 112l-104 448l-244 -448h348z" />
    <glyph glyph-name="product" unicode="&#x220f;" horiz-adv-x="720" 
d="M182 595l-71 22l11 78l212 10h439l-13 -88l-81 -22l-132 -830h-137l131 827h-221l-132 -827h-138z" />
    <glyph glyph-name="summation" unicode="&#x2211;" horiz-adv-x="611" 
d="M297 238l-204 365l17 102h516l-30 -193h-89l-12 80h-241l196 -345l-315 -369h257l31 87h96l-32 -200h-527l17 103z" />
    <glyph glyph-name="minus" unicode="&#x2212;" horiz-adv-x="593" 
d="M538 347l-18 -117h-465l18 117h465z" />
    <glyph glyph-name="divisionslash" unicode="&#x2215;" horiz-adv-x="568" 
d="M672 705l-652 -779c-28 22 -57 44 -85 67l650 779c29 -22 58 -44 87 -67z" />
    <glyph glyph-name="bulletoperator" unicode="&#x2219;" horiz-adv-x="412" 
d="M100 315c0 53 43 96 96 96s96 -43 96 -96s-43 -96 -96 -96s-96 43 -96 96z" />
    <glyph glyph-name="radical" unicode="&#x221a;" horiz-adv-x="660" 
d="M49 525l178 5l54 -382l271 622l210 5l-13 -84l-106 -18l-314 -673h-158l-79 428l-57 16z" />
    <glyph glyph-name="infinity" unicode="&#x221e;" horiz-adv-x="905" 
d="M627 108c-80 0 -139 43 -188 94c-41 -32 -132 -94 -218 -94c-113 0 -171 59 -171 148c0 129 104 220 232 220c79 0 138 -44 188 -93c41 32 129 93 219 93c113 0 171 -54 171 -148c0 -119 -104 -220 -233 -220zM238 232c29 0 74 23 121 61c-44 46 -69 63 -93 63
c-50 0 -74 -38 -74 -85c0 -25 16 -39 46 -39zM672 356c-29 0 -75 -24 -121 -63c39 -45 66 -64 93 -64c46 0 74 36 74 82c0 29 -16 45 -46 45z" />
    <glyph glyph-name="orthogonal" unicode="&#x221f;" horiz-adv-x="598" 
d="M553 130l-20 -130h-508l85 540h150l-65 -410h358z" />
    <glyph glyph-name="intersection" unicode="&#x2229;" horiz-adv-x="722" 
d="M426 0l65 411c22 139 6 181 -76 181c-84 0 -115 -45 -137 -186l-64 -406h-149l62 402c36 231 116 315 308 315c187 0 242 -83 207 -301l-66 -416h-150z" />
    <glyph glyph-name="integral" unicode="&#x222b;" horiz-adv-x="393" 
d="M-97 -290l25 108s48 -5 73 -5c59 0 88 37 94 102c14 145 40 493 55 681c12 155 70 244 212 244c51 0 108 -18 108 -18l-27 -109s-33 7 -63 7c-52 0 -79 -32 -85 -105c-11 -146 -37 -469 -51 -657c-11 -161 -74 -265 -225 -265c-63 0 -116 17 -116 17z" />
    <glyph glyph-name="approxequal" unicode="&#x2248;" horiz-adv-x="622" 
d="M130 287l-54 44s66 118 172 118c85 0 124 -68 196 -68c55 0 100 55 100 55l56 -44s-68 -121 -167 -121c-83 0 -135 68 -208 68c-52 0 -95 -52 -95 -52zM99 91l-54 44s66 119 172 119c86 0 124 -68 196 -68c55 0 100 54 100 54l56 -44s-67 -120 -167 -120
c-82 0 -135 68 -208 68c-52 0 -95 -53 -95 -53z" />
    <glyph glyph-name="notequal" unicode="&#x2260;" horiz-adv-x="638" 
d="M359 442l68 110h130l-68 -110h112l-18 -115h-165l-62 -98h211l-18 -115h-264l-70 -114h-130l70 114h-105l18 115h158l62 98h-204l18 115h257z" />
    <glyph glyph-name="equivalence" unicode="&#x2261;" horiz-adv-x="677" 
d="M600 437l-18 -115h-485l18 115h485zM570 247l-18 -115h-485l18 115h485zM540 57l-18 -115h-485l18 115h485z" />
    <glyph glyph-name="lessequal" unicode="&#x2264;" horiz-adv-x="614" 
d="M518 135l-450 170l19 120l504 165l-19 -123l-353 -103l319 -107zM512 94l-19 -119h-478l18 119h479z" />
    <glyph glyph-name="greaterequal" unicode="&#x2265;" horiz-adv-x="619" 
d="M94 467l19 123l450 -165l-19 -120l-504 -170l20 122l353 107zM15 -25l19 119h477l-19 -119h-477z" />
    <glyph glyph-name="house" unicode="&#x2302;" horiz-adv-x="627" 
d="M552 316v-316h-477v316l206 226h65zM412 121v146c-37 40 -59 67 -99 110l-98 -109v-147h197z" />
    <glyph glyph-name="logicalnotReversed" unicode="&#x2310;" horiz-adv-x="668" 
d="M202 260l-29 -180h-123l47 295h511l-17 -115h-389z" />
    <glyph glyph-name="integraltp" unicode="&#x2320;" horiz-adv-x="374" 
d="M484 809l-34 -112s-54 13 -77 13c-41 0 -64 -27 -72 -88l-139 -922h-142l137 911c22 144 97 220 219 220c29 0 108 -22 108 -22z" />
    <glyph glyph-name="integralbt" unicode="&#x2321;" horiz-adv-x="366" 
d="M346 830l-135 -890c-21 -143 -97 -220 -216 -220c-33 0 -105 21 -105 21l30 109s63 -9 79 -9c38 0 59 26 68 87l136 902h143z" />
    <glyph glyph-name="lozenge" unicode="&#x25ca;" horiz-adv-x="508" 
d="M275 775h126l127 -410l-255 -410h-125l-128 411zM232 101l158 263l-75 266l-159 -262z" />
    <glyph glyph-name="cyrbreve" unicode="&#xf6d4;" horiz-adv-x="381" 
d="M71 755l111 28c6 -61 42 -85 96 -85c55 0 104 35 136 85l48 -33c-36 -68 -123 -140 -223 -140s-156 57 -168 145z" />
    <glyph glyph-name="grave.Cup" horiz-adv-x="293" 
d="M139 957l242 -131l-38 -80l-251 103z" />
    <glyph glyph-name="tilde.Cup" horiz-adv-x="600" 
d="M280 780l-38 41s61 107 141 107c68 0 102 -45 160 -45c38 0 73 42 73 42l45 -39s-59 -109 -138 -109c-68 0 -107 44 -165 44c-41 0 -78 -41 -78 -41z" />
    <glyph glyph-name="acute.x" horiz-adv-x="301" 
d="M365 741l-52 104l-249 -172l46 -73z" />
    <glyph glyph-name="caron.x" horiz-adv-x="161" 
d="M111 510l-69 28c38 77 63 174 70 237l129 5c-13 -80 -76 -196 -130 -270z" />
    <glyph glyph-name="circumflex.x" horiz-adv-x="389" 
d="M66 687l172 137l87 7l130 -144l-56 -65l-127 100l-164 -100z" />
    <glyph glyph-name="grave.x" horiz-adv-x="309" 
d="M49 832l260 -169l-38 -75l-271 132z" />
    <glyph glyph-name="Igravecy" horiz-adv-x="804" 
d="M552 746l-251 103l47 108l242 -131zM827 705l-14 -88l-78 -30l-76 -476l71 -24l-14 -87h-299l14 87l78 24l49 306l-314 -270l-6 -36l70 -24l-14 -87h-297l14 87l77 24l76 477l-69 29l13 83l298 5l-14 -88l-78 -30l-49 -306l314 272l6 35l-71 29l13 83z" />
    <glyph glyph-name="NULL" horiz-adv-x="600" 
 />
    <glyph glyph-name="ShortIcy" horiz-adv-x="804" 
d="M651 938l48 -33c-36 -68 -123 -140 -223 -140s-156 57 -168 145l111 28c6 -61 42 -85 96 -85c55 0 104 35 136 85zM827 705l-14 -88l-78 -30l-76 -476l71 -24l-14 -87h-299l14 87l78 24l49 306l-314 -270l-6 -36l70 -24l-14 -87h-297l14 87l77 24l76 477l-69 29l13 83
l298 5l-14 -88l-78 -30l-49 -306l314 272l6 35l-71 29l13 83z" />
    <glyph glyph-name="foundryicon" horiz-adv-x="757" 
d="M634 0h-491c-60 0 -92 32 -92 92v491c0 61 32 93 92 93h491c61 0 93 -32 93 -93v-491c0 -60 -32 -92 -93 -92zM317 452l-56 -33c-3 -1 -7 -3 -11 -3c-5 0 -6 3 -6 9v136h-86v-400h86v209c0 10 6 14 27 14c33 0 50 -21 50 -65v-158h86v207c0 49 -39 84 -90 84zM441 403h29
c9 0 13 -3 13 -11v-153c0 -48 38 -85 90 -85l73 43v29c-11 -3 -21 -5 -31 -5c-32 0 -46 21 -46 67v104c0 7 3 11 11 11h67v42h-67c-7 0 -11 5 -11 12v32h-25l-103 -65v-21z" />
    <glyph glyph-name="asterisk.alt" horiz-adv-x="404" 
d="M251 593l-31 40v111h102l-35 -111zM231 582l-54 -6l-101 42l63 90l81 -75zM264 583l23 50l105 75l37 -87l-114 -46zM227 567l-24 -49l-105 -76l-37 88l116 46zM315 575l100 -46l-62 -88l-84 77l-7 47zM244 557l26 -39v-110h-102l35 110z" />
    <glyph glyph-name="acute.Cup" horiz-adv-x="294" 
d="M126 738l-38 80l245 130l53 -104z" />
    <glyph glyph-name="caron.Cup" horiz-adv-x="370" 
d="M467 885l-159 -127l-87 -8l-125 134l65 60l114 -93l151 93z" />
    <glyph glyph-name="circumflex.Cup" horiz-adv-x="403" 
d="M83 798l180 144l87 7l136 -152l-56 -65l-133 108l-172 -107z" />
    </font>
</defs>
</svg>
