<?xml version="1.0" standalone="no"?>
<!DOCTYPE svg PUBLIC "-//W3C//DTD SVG 1.1//EN" "http://www.w3.org/Graphics/SVG/1.1/DTD/svg11.dtd" >
<svg version="1.1" xmlns="http://www.w3.org/2000/svg">
<metadata>
Created by FontForge 20120731 at Fri Aug  1 16:50:19 2014
 By Alfred Xing
Copyright (c) 2012, Pablo Impallari (www.impallari.com|impallari@gmail.com),
Copyright (c) 2012, Rodrigo Fuenzalida (www.rfuenzalida.com|hello@rfuenzalida.com),
Copyright (c) 2012, Brenda Gallo (gbrenda1987@gmail.com), with Reserved Font Name Domine.
</metadata>
<defs>
<font id="Domine-Regular" horiz-adv-x="544" >
  <font-face 
    font-family="Domine"
    font-weight="400"
    font-stretch="normal"
    units-per-em="1000"
    panose-1="2 4 5 3 4 4 3 6 2 4"
    ascent="800"
    descent="-200"
    x-height="540"
    cap-height="720"
    bbox="-200 -240 1366 900"
    underline-thickness="50"
    underline-position="-50"
    unicode-range="U+0020-FB04"
  />
<missing-glyph horiz-adv-x="640" 
d="M80 900h480v-1140h-480v1140zM177 -170h286v1000h-286v-1000z" />
    <glyph glyph-name="f_f" unicode="ff" horiz-adv-x="677" 
d="M18 526l96.9961 14v10c0 68 17.833 120 53.5 156s86.167 54 151.5 54c32 0 61.333 -4 88 -12s47.667 -18.667 63 -32c32.667 49.333 80.334 74 143.001 74c40 0 71.667 -9.5 95 -28.5s35 -43.167 35 -72.5c0 -18.667 -4.66699 -32.834 -14 -42.501s-22 -14.5 -38 -14.5
c-15.333 0 -27.666 4.33301 -36.999 13s-14 21 -14 37c0 17.333 5.33301 34.666 16 51.999c-11.333 12 -26.666 18 -45.999 18c-15.333 0 -28.666 -3.33301 -39.999 -10s-20 -15.5 -26 -26.5s-10.5 -23.167 -13.5 -36.5s-4.66699 -27.666 -5 -42.999
s-0.5 -30.666 -0.5 -45.999v-50h128v-50h-128v-430l108 -19v-41h-262v41l57 19v430h-217v-430l68 -19v-41h-242v41l77 19v430h-97v36zM428.996 563c0 56.667 -8 97.332 -24 121.999s-43 37 -81 37s-66.167 -11.167 -84.5 -33.5s-27.5 -55.166 -27.5 -98.499v-50h217v23z" />
    <glyph glyph-name="f_i" unicode="fi" horiz-adv-x="628" 
d="M18 526l97 13.999v10c0 36.667 5.66699 69.834 17 99.501s27.333 55 48 76s45.834 37 75.501 48s63.167 16.5 100.5 16.5c52 0 93.5 -10.167 124.5 -30.5s46.5 -47.5 46.5 -81.5c0 -37.333 -17.667 -56 -53 -56c-33.333 0 -50 16.667 -50 50c0 16 5.33301 33.333 16 52
c-22.667 18.667 -52 28 -88 28c-24.667 0 -46.334 -3.33301 -65.001 -10c-28 -9.33301 -47.5 -25.5 -58.5 -48.5s-16.5 -57.5 -16.5 -103.5v-50h314v-480l77 -19v-41h-241v41l67 19v430h-217v-430l78 -19v-41h-252v41l77 19v430h-97v36z" />
    <glyph glyph-name="f_l" unicode="fl" horiz-adv-x="632" 
d="M342 790c30 0 56.667 -4.16797 80 -12.501s42 -20.833 56 -37.5l18 40h30v-720l77 -19v-41h-241v41l67 19v430h-217v-430l78 -19v-41h-252v41l77 19v430h-97v36l97 14v10c0 36.667 5.16699 69.834 15.5 99.501s25.333 55 45 76s43.5 37 71.5 48s59.667 16.5 95 16.5z
M212 539.999h217v105c0 34 -9 60.333 -27 79s-43.333 28 -76 28c-76 0 -114 -54 -114 -162v-50z" />
    <glyph glyph-name="f_f_i" unicode="ffi" horiz-adv-x="941" 
d="M18 526l96.998 13.9971v10c0 66.667 17.833 118.334 53.5 155.001s85.834 55 150.501 55c34 0 63.667 -4.66699 89 -14s47.333 -25.333 66 -48c20.667 30.667 45.667 53.667 75 69s68 23 116 23c54 0 96.667 -10.167 128 -30.5s47 -47.5 47 -81.5
c0 -37.333 -18 -56 -54 -56c-32.667 0 -49 16.667 -49 50c0 16 5.33301 33.333 16 52c-10.667 9.33301 -23.667 16.333 -39 21s-31.666 7 -48.999 7c-12 0 -24 -1.16699 -36 -3.5s-23 -5.16602 -33 -8.49902c-25.333 -9.33301 -43.333 -25.666 -54 -48.999s-16 -57 -16 -101
v-50h313v-480l77 -19v-41h-241v41l67 19v430h-216v-430l78 -19v-41h-242v41l67 19v430h-217v-430l78 -19v-41h-252v41l77 19v430h-97v36zM428.998 562.997c0 57.333 -8 98.167 -24 122.5s-42.667 36.5 -80 36.5c-75.333 0 -113 -44 -113 -132v-50h217v23z" />
    <glyph glyph-name="f_f_l" unicode="ffl" horiz-adv-x="945" 
d="M657 790c60 0 104.667 -16.666 134 -49.999l18 40h30v-720l77 -19v-41h-241v41l67 19v430h-216v-430l78 -19v-41h-242v41l67 19v430h-217v-430l78 -19v-41h-252v41l77 19v430h-97v36l97 14v10c0 67.333 18.167 119.166 54.5 155.499s87.833 54.5 154.5 54.5
c33.333 0 62 -5 86 -15s45.333 -25.667 64 -47c38 61.333 99 92 183 92zM526 540.001h216v105c0 34 -8.83301 60.333 -26.5 79s-42.5 28 -74.5 28c-76.667 0 -115 -54 -115 -162v-50zM212 540.001l217 -0.00195312v23c0 56.667 -8 97.334 -24 122.001s-42.667 37 -80 37
s-65.5 -11.167 -84.5 -33.5s-28.5 -55.166 -28.5 -98.499v-50z" />
    <glyph glyph-name="f_b" unicode="fb" horiz-adv-x="947" 
d="M901 275c0 -44 -6.33203 -85.168 -18.999 -123.501s-30.334 -70.5 -53.001 -96.5c-37.333 -43.333 -91 -65 -161 -65c-34 0 -64.333 7.83301 -91 23.5s-50.334 44.834 -71.001 87.501l-30 -101h-47v490h-217v-430l78 -19v-41h-252v41l77 19v430h-97v36l97 14v10
c0 36.667 5.16699 69.834 15.5 99.501s25.333 55 45 76s43.5 37 71.5 48s59.667 16.5 95 16.5c30 0 56.667 -4.16699 80 -12.5s42 -20.833 56 -37.5l18 40h30v-298c20 25.333 42.333 43 67 53s52.334 15 83.001 15c34 0 64.833 -5 92.5 -15s50.167 -26 67.5 -48
c20.667 -25.333 36.667 -56.333 48 -93s17 -76.334 17 -119.001zM526.001 273.999c0 -82 11.666 -141.665 34.999 -178.998c10.667 -17.333 23.667 -30.5 39 -39.5s35.666 -13.5 60.999 -13.5c45.333 0 79 15.667 101 47c12 17.333 20.667 41.333 26 72s8 66 8 106
c0 80 -11.667 139.333 -35 178c-11.333 17.333 -24.666 30.5 -39.999 39.5s-35.666 13.5 -60.999 13.5c-23.333 0 -43.333 -3.83301 -60 -11.5s-29.667 -19.167 -39 -34.5c-11.333 -18.667 -20 -42.834 -26 -72.501s-9 -64.834 -9 -105.501zM212 540.001h217v105
c0 34 -9 60.333 -27 79s-43.333 28 -76 28c-76 0 -114 -54 -114 -162v-50z" />
    <glyph glyph-name="f_f_b" unicode="ffb" horiz-adv-x="1261" 
d="M1215 275c0 -44 -6.33105 -85.166 -18.998 -123.499s-30.334 -70.5 -53.001 -96.5c-37.333 -43.333 -91 -65 -161 -65c-34 0 -64.333 7.83301 -91 23.5s-50.334 44.834 -71.001 87.501l-30 -101h-47v490h-217v-430l78 -19v-41h-252v41l77 19v430h-217v-430l78 -19v-41
h-252v41l77 19v430h-97v36l97 14v10c0 67.333 18.167 119.166 54.5 155.499s87.833 54.5 154.5 54.5c32 0 59.833 -4.66699 83.5 -14s44.5 -24 62.5 -44c19.333 28 44.666 49.667 75.999 65s68 23 110 23c30 0 56.667 -4.16699 80 -12.5s42 -20.833 56 -37.5l18 40h30v-298
c20 25.333 42.333 43 67 53s52.334 15 83.001 15c34 0 64.833 -5 92.5 -15s50.167 -26 67.5 -48c20.667 -25.333 36.667 -56.333 48 -93s17 -76.334 17 -119.001zM840.002 274.001c0 -82 11.666 -141.665 34.999 -178.998c10.667 -17.333 23.667 -30.5 39 -39.5
s35.666 -13.5 60.999 -13.5c45.333 0 79 15.667 101 47c12 17.333 20.667 41.333 26 72s8 66 8 106c0 80 -11.667 139.333 -35 178c-11.333 17.333 -24.666 30.5 -39.999 39.5s-35.666 13.5 -60.999 13.5c-23.333 0 -43.333 -3.83301 -60 -11.5s-29.667 -19.167 -39 -34.5
c-11.333 -18.667 -20 -42.834 -26 -72.501s-9 -64.834 -9 -105.501zM526.001 540.003h217v105c0 34 -9 60.333 -27 79s-43.333 28 -76 28c-76 0 -114 -54 -114 -162v-50zM212.001 540.003l217 -0.00195312v23c0 56.667 -8 97.334 -24 122.001s-42.667 37 -80 37
s-65.5 -11.167 -84.5 -33.5s-28.5 -55.166 -28.5 -98.499v-50z" />
    <glyph glyph-name="f_h" unicode="fh" horiz-adv-x="971" 
d="M775 283c0 42.667 -1.16797 74.832 -3.50098 96.499s-6.5 38.5 -12.5 50.5c-16.667 32.667 -46 49 -88 49c-18.667 0 -36.667 -3.33301 -54 -10s-32.666 -15.667 -45.999 -27c-30 -26 -45 -61.667 -45 -107v-275l67 -19v-41h-241v41l77 19v430h-217v-430l78 -19v-41h-252
v41l77 19v430h-97v36l97 14v10c0 37.333 5.33301 70.833 16 100.5s25.667 54.834 45 75.501s43 36.5 71 47.5s59.667 16.5 95 16.5c62.667 0 108 -16.667 136 -50l18 40h30v-334c20 32.667 46.5 58.167 79.5 76.5s68.5 27.5 106.5 27.5c26.667 0 50.667 -4.66699 72 -14
s38.333 -22.666 51 -39.999c13.333 -18.667 22.833 -44.834 28.5 -78.501s8.5 -79.167 8.5 -136.5v-221l77 -19v-41h-241v41l67 19v223zM211.999 539.998h217v110c0 32 -9.16699 57 -27.5 75s-43.5 27 -75.5 27c-76 0 -114 -54 -114 -162v-50z" />
    <glyph glyph-name="f_f_h" unicode="ffh" horiz-adv-x="1284" 
d="M1088 283c0 42.667 -1.16797 74.834 -3.50098 96.501s-6.5 38.5 -12.5 50.5c-16.667 32.667 -46 49 -88 49c-18.667 0 -36.667 -3.33301 -54 -10s-32.666 -15.667 -45.999 -27c-30 -26 -45 -63 -45 -111v-271l67 -19v-41h-241v41l77 19v430h-216v-430l78 -19v-41h-242v41
l67 19v430h-217v-430l78 -19v-41h-252v41l77 19v430h-97v36l97 14v10c0 67.333 18.167 119.166 54.5 155.499s87.833 54.5 154.5 54.5c33.333 0 62 -5 86 -15s45.333 -25.667 64 -47c38 61.333 99 92 183 92c60 0 104.667 -16.667 134 -50l18 40h30v-334
c20 32.667 46.5 58.167 79.5 76.5s68.5 27.5 106.5 27.5c26.667 0 50.667 -4.66699 72 -14s38.333 -22.666 51 -39.999c13.333 -18.667 22.833 -44.834 28.5 -78.501s8.5 -79.167 8.5 -136.5v-221l77 -19v-41h-241v41l67 19v223zM525.999 540h216v105
c0 34 -8.83301 60.333 -26.5 79s-42.5 28 -74.5 28c-76.667 0 -115 -54 -115 -162v-50zM211.999 540l217 -0.00195312v23c0 56.667 -8 97.334 -24 122.001s-42.667 37 -80 37s-65.5 -11.167 -84.5 -33.5s-28.5 -55.166 -28.5 -98.499v-50z" />
    <glyph glyph-name="f_j" unicode="fj" horiz-adv-x="609" 
d="M526 85c0 -49.333 -1.66699 -88.167 -5 -116.5s-9 -51.5 -17 -69.5c-12.667 -28.667 -31 -50.667 -55 -66s-52 -23 -84 -23c-36 0 -65.5 8.83301 -88.5 26.5s-34.5 40.5 -34.5 68.5c0 17.333 4.83301 31.166 14.5 41.499s22.5 15.5 38.5 15.5c32.667 0 49 -18.333 49 -55
c0 -19.333 -5.33301 -34.333 -16 -45c1.33301 -4.66699 5.5 -8.33398 12.5 -11.001s15.833 -4 26.5 -4c23.333 0 39.5 9.33301 48.5 28s13.5 52.334 13.5 101.001v514h-217v-430l78 -19v-41h-252v41l77 19v430h-97v36l97 14v10c0 36.667 5.66699 69.834 17 99.501
s27.333 55 48 76s45.834 37 75.501 48s63.167 16.5 100.5 16.5c52 0 93.5 -10.167 124.5 -30.5s46.5 -47.5 46.5 -81.5c0 -37.333 -17.667 -56 -53 -56c-33.333 0 -50 16.667 -50 50c0 16 5.33301 33.333 16 52c-22.667 18.667 -52 28 -88 28
c-24.667 0 -46.334 -3.33301 -65.001 -10c-28 -9.33301 -47.5 -25.5 -58.5 -48.5s-16.5 -57.5 -16.5 -103.5v-50h314v-455z" />
    <glyph glyph-name="f_f_j" unicode="ffj" horiz-adv-x="922" 
d="M18 526l96.998 13.9971v10c0 66.667 17.833 118.334 53.5 155.001s85.834 55 150.501 55c34 0 63.667 -4.66699 89 -14s47.333 -25.333 66 -48c20.667 30.667 45.667 53.667 75 69s68 23 116 23c54 0 96.667 -10.167 128 -30.5s47 -47.5 47 -81.5
c0 -37.333 -18 -56 -54 -56c-32.667 0 -49 16.667 -49 50c0 16 5.33301 33.333 16 52c-10.667 9.33301 -23.667 16.333 -39 21s-31.666 7 -48.999 7c-12 0 -24 -1.16699 -36 -3.5s-23 -5.16602 -33 -8.49902c-25.333 -9.33301 -43.333 -25.666 -54 -48.999s-16 -57 -16 -101
v-50h313v-455c0 -49.333 -1.5 -88.166 -4.5 -116.499s-8.5 -51.5 -16.5 -69.5c-12.667 -28.667 -31 -50.667 -55 -66s-52 -23 -84 -23c-36 0 -65.5 8.83301 -88.5 26.5s-34.5 40.5 -34.5 68.5c0 17.333 4.83301 31.166 14.5 41.499s22.5 15.5 38.5 15.5
c32.667 0 49 -18.333 49 -55c0 -19.333 -5.33301 -34.333 -16 -45c1.33301 -4.66699 5.5 -8.33398 12.5 -11.001s15.833 -4 26.5 -4c23.333 0 39.5 9.33301 48.5 28s13.5 52.334 13.5 101.001v514h-217v-430l78 -19v-41h-242v41l67 19v430h-217v-430l78 -19v-41h-252v41
l77 19v430h-97v36zM428.998 562.997c0 57.333 -8 98.167 -24 122.5s-42.667 36.5 -80 36.5c-75.333 0 -113 -44 -113 -132v-50h217v23z" />
    <glyph glyph-name="f_k" unicode="fk" horiz-adv-x="923" 
d="M756 60l-154 207.999l-76 -64v-144l77 -19v-41h-251v41l77 19v430h-217v-430l78 -19v-41h-252v41l77 19v430h-97v36l97 14v10c0 37.333 5.33301 70.833 16 100.5s25.667 54.834 45 75.501s43 36.5 71 47.5s59.667 16.5 95 16.5c62.667 0 108 -16.667 136 -50l18 40h30
v-529l213 229l-66 19v41h215v-41l-73 -19l-151 -155l199 -267l53 -17v-41h-219v41zM212 539.999h217v110c0 32 -9.16699 57 -27.5 75s-43.5 27 -75.5 27c-76 0 -114 -54 -114 -162v-50z" />
    <glyph glyph-name="f_f_k" unicode="ffk" horiz-adv-x="1236" 
d="M1069 60l-154 208.001l-76 -64v-144l77 -19v-41h-251v41l77 19v430h-216v-430l78 -19v-41h-242v41l67 19v430h-217v-430l78 -19v-41h-252v41l77 19v430h-97v36l97 14v10c0 67.333 18.167 119.166 54.5 155.499s87.833 54.5 154.5 54.5c33.333 0 62 -5 86 -15
s45.333 -25.667 64 -47c38 61.333 99 92 183 92c60 0 104.667 -16.667 134 -50l18 40h30v-529l213 229l-66 19v41h215v-41l-73 -19l-151 -155l199 -267l53 -17v-41h-219v41zM526 540.001h216v110c0 32 -8.83301 57 -26.5 75s-42.5 27 -74.5 27c-76.667 0 -115 -54 -115 -162
v-50zM212 540.001l217 -0.00195312v23c0 56.667 -8 97.334 -24 122.001s-42.667 37 -80 37s-65.5 -11.167 -84.5 -33.5s-28.5 -55.166 -28.5 -98.499v-50z" />
    <glyph glyph-name=".notdef" horiz-adv-x="640" 
d="M80 900h480v-1140h-480v1140zM177 -170h286v1000h-286v-1000z" />
    <glyph glyph-name="space" unicode=" " horiz-adv-x="254" 
 />
    <glyph glyph-name="exclam" unicode="!" horiz-adv-x="285" 
d="M114 205c0 26 -0.666016 53.666 -1.99902 82.999s-2.83301 57.666 -4.5 84.999s-3.5 52.333 -5.5 75s-3.33301 40 -4 52c-2 24.667 -4.66699 48.834 -8 72.501s-5 49.5 -5 77.5c0 23.333 4.83301 42.5 14.5 57.5s24.5 22.5 44.5 22.5c20.667 0 35 -7.83301 43 -23.5
s12 -34.167 12 -55.5c0 -28 -1.66699 -54 -5 -78s-6 -48.333 -8 -73c-1.33301 -12 -2.83301 -29.333 -4.5 -52s-3.33398 -47.667 -5.00098 -75s-3.16699 -55.666 -4.5 -84.999s-2 -57 -2 -83h-56zM204.001 51.999c0 -20 -5.33398 -35.333 -16.001 -46s-25.667 -16 -45 -16
s-34.666 5.5 -45.999 16.5s-17 26.167 -17 45.5s5.5 34.666 16.5 45.999s26.167 17 45.5 17s34.5 -5.66699 45.5 -17s16.5 -26.666 16.5 -45.999z" />
    <glyph glyph-name="quotedbl" unicode="&#x22;" horiz-adv-x="377" 
d="M81 485c0 22 -1.33301 44 -4 66s-5.66699 42.833 -9 62.5s-6.33301 37.334 -9 53.001s-4 28.167 -4 37.5c0 16.667 3.5 30.167 10.5 40.5s20.167 15.5 39.5 15.5c18.667 0 31.5 -5 38.5 -15s10.5 -23.667 10.5 -41c0 -9.33301 -1.33301 -21.833 -4 -37.5
s-5.66699 -33.334 -9 -53.001s-6.33301 -40.5 -9 -62.5s-4 -44 -4 -66h-47zM249 485c0 22 -1.33301 44 -4 66s-5.66699 42.833 -9 62.5s-6.33301 37.334 -9 53.001s-4 28.167 -4 37.5c0 16.667 3.5 30.167 10.5 40.5s20.167 15.5 39.5 15.5c18.667 0 31.5 -5 38.5 -15
s10.5 -23.667 10.5 -41c0 -9.33301 -1.33301 -21.833 -4 -37.5s-5.66699 -33.334 -9 -53.001s-6.33301 -40.5 -9 -62.5s-4 -44 -4 -66h-47z" />
    <glyph glyph-name="numbersign" unicode="#" horiz-adv-x="736" 
d="M440 202h-203l-42 -212h-57l42 212h-145v53h155l41 206h-147v53h157l43 216h57l-43 -216h203l43 216h57l-43 -216h143v-53h-153l-41 -206h145v-53h-155l-42 -212h-57zM247 255h203l41 206h-203z" />
    <glyph glyph-name="dollar" unicode="$" horiz-adv-x="568" 
d="M263 -10c-34.667 2.66699 -65.832 9.16797 -93.499 19.501s-51 23.5 -70 39.5s-33.5 33.667 -43.5 53s-15 39.333 -15 60c0 21.333 5.5 38.5 16.5 51.5s26.833 19.5 47.5 19.5c18 0 32.167 -5.16699 42.5 -15.5s15.5 -23.166 15.5 -38.499s-4.33301 -28.5 -13 -39.5
s-18.334 -19.167 -29.001 -24.5c14 -19.333 32.5 -35.5 55.5 -48.5s51.833 -20.5 86.5 -22.5v267c-3.33301 1.33301 -6.16602 2.5 -8.49902 3.5s-4.83301 2.16699 -7.5 3.5c-24 10 -47.667 20.833 -71 32.5s-44 25.5 -62 41.5s-32.667 35.333 -44 58s-17 50 -17 82
c0 29.333 5 56 15 80s24.167 44.667 42.5 62s40.333 30.833 66 40.5s54.5 15.167 86.5 16.5v120h47v-122c30 -3.33301 57 -10.166 81 -20.499s44.5 -23 61.5 -38s30 -31.833 39 -50.5s13.5 -37.334 13.5 -56.001c0 -21.333 -5.33301 -38.5 -16 -51.5
s-25.334 -19.5 -44.001 -19.5c-16.667 0 -30.334 5 -41.001 15s-16 23.333 -16 40c0 13.333 3.33301 25 10 35s15.334 17.667 26.001 23c-24.667 41.333 -62.667 64.333 -114 69v-265c36.667 -16.667 68.834 -32 96.501 -46s50.667 -29 69 -45s32.166 -33.833 41.499 -53.5
s14 -43.834 14 -72.501c0 -62.667 -20 -111.334 -60 -146.001s-93.667 -53.667 -161 -57v-120h-47v120zM423.002 155.001c0 16.667 -2.83301 31.8301 -8.5 45.4971s-13.667 25.834 -24 36.501s-22.333 20.334 -36 29.001s-28.5 16.667 -44.5 24v-245
c36 4.66699 63.833 16.334 83.5 35.001s29.5 43.667 29.5 75zM154.002 556.997c0 -16.667 2.16602 -30.833 6.49902 -42.5s11 -22.334 20 -32.001s20.333 -18.5 34 -26.5s29.834 -16.333 48.501 -25v244c-37.333 -3.33301 -64.833 -15.166 -82.5 -35.499
s-26.5 -47.833 -26.5 -82.5z" />
    <glyph glyph-name="percent" unicode="%" horiz-adv-x="679" 
d="M506 730h54l-386 -740h-54zM36 564c0 56.667 12.3311 100 36.998 130c10.667 12.667 22.834 21.667 36.501 27s31.167 8 52.5 8s38.833 -2.66699 52.5 -8s25.834 -14.333 36.501 -27c24.667 -30 37 -73.333 37 -130c0 -29.333 -3.16699 -55.333 -9.5 -78
s-15.5 -41 -27.5 -55c-19.333 -23.333 -49 -35 -89 -35s-69.667 11.667 -89 35c-12 14 -21.167 32.333 -27.5 55s-9.5 48.667 -9.5 78zM229.998 563c0 47.333 -7 83 -21 107c-6.66699 10 -13.334 17 -20.001 21s-15.667 6 -27 6s-20.666 -2 -27.999 -6
s-13.666 -11 -18.999 -21c-14 -24 -21 -59.667 -21 -107s7 -83 21 -107c5.33301 -10 11.666 -17 18.999 -21s16.666 -6 27.999 -6s20.333 2 27 6s13.334 11 20.001 21c14 24 21 59.667 21 107zM389.998 158c0 56.667 12.3311 100 36.998 130
c10.667 12.667 22.834 21.667 36.501 27s31.167 8 52.5 8s38.833 -2.66699 52.5 -8s25.834 -14.333 36.501 -27c24.667 -30 37 -73.333 37 -130c0 -29.333 -3.16699 -55.333 -9.5 -78s-15.5 -41 -27.5 -55c-19.333 -23.333 -49 -35 -89 -35s-69.667 11.667 -89 35
c-12 14 -21.167 32.333 -27.5 55s-9.5 48.667 -9.5 78zM583.996 157c0 47.333 -7 83 -21 107c-6.66699 10 -13.334 17 -20.001 21s-15.667 6 -27 6s-20.666 -2 -27.999 -6s-13.666 -11 -18.999 -21c-14 -24 -21 -59.667 -21 -107s7 -83 21 -107
c5.33301 -10 11.666 -17 18.999 -21s16.666 -6 27.999 -6s20.333 2 27 6s13.334 11 20.001 21c14 24 21 59.667 21 107z" />
    <glyph glyph-name="ampersand" unicode="&#x26;" horiz-adv-x="767" 
d="M629 325c0 -40.667 -5.99609 -81.5 -17.9961 -122.5s-28.667 -77.5 -50 -109.5c6.66699 -14 18 -25.667 34 -35s33 -14 51 -14c16 0 32.167 4 48.5 12s29.5 18.667 39.5 32l26 -37c-28.667 -40.667 -70.334 -61 -125.001 -61c-47.333 0 -90.666 16.667 -129.999 50
c-24.667 -17.333 -51.167 -30 -79.5 -38s-61.5 -12 -99.5 -12c-82 0 -145.833 17.333 -191.5 52s-68.5 83.334 -68.5 146.001c0 20.667 2.83301 39.667 8.5 57s14.5 34 26.5 50s27.667 31.333 47 46s43 29.667 71 45c-36.667 58.667 -55 114.334 -55 167.001
c0 26 4.16699 49.667 12.5 71s20.166 39.833 35.499 55.5s33.666 27.667 54.999 36s45 12.5 71 12.5c23.333 0 45 -3.5 65 -10.5s37.167 -16.833 51.5 -29.5s25.666 -27.5 33.999 -44.5s12.5 -35.833 12.5 -56.5c0 -76.667 -57.667 -144.334 -173 -203.001l191 -243
c17.333 25.333 30.666 53.666 39.999 84.999s14 64.333 14 99l-77 19v41h209v-41zM338.004 48c25.333 0 47.668 2.66699 67.001 8s37.666 14 54.999 26l-204 261c-28 -15.333 -50 -36.333 -66 -63s-24 -57 -24 -91c0 -46 14.667 -81 44 -105s72 -36 128 -36zM249.006 576
c0 -23.333 3.83301 -46.832 11.5 -70.499s20.167 -48.834 37.5 -75.501c48 26 82.333 50.833 103 74.5s31 49.5 31 77.5s-8.83301 50.5 -26.5 67.5s-41.5 25.5 -71.5 25.5c-56.667 0 -85 -33 -85 -99z" />
    <glyph glyph-name="quotesingle" unicode="'" horiz-adv-x="209" 
d="M81 485c0 22 -1.33301 44 -4 66s-5.66699 42.833 -9 62.5s-6.33301 37.334 -9 53.001s-4 28.167 -4 37.5c0 16.667 3.5 30.167 10.5 40.5s20.167 15.5 39.5 15.5c18.667 0 31.5 -5 38.5 -15s10.5 -23.667 10.5 -41c0 -9.33301 -1.33301 -21.833 -4 -37.5
s-5.66699 -33.334 -9 -53.001s-6.33301 -40.5 -9 -62.5s-4 -44 -4 -66h-47z" />
    <glyph glyph-name="parenleft" unicode="(" horiz-adv-x="371" 
d="M44 353c0 66 7.00098 127.67 21.001 185.003s34 108.333 60 153s57.167 82 93.5 112s76.5 50.667 120.5 62l21 -49c-32 -7.33301 -61.333 -24 -88 -50s-49.334 -59.333 -68.001 -100s-33.167 -87.834 -43.5 -141.501s-15.5 -111.5 -15.5 -173.5
c0 -63.333 5 -121.333 15 -174s24.167 -98.834 42.5 -138.501s40.5 -71.667 66.5 -96s54.667 -39.833 86 -46.5l-26 -55c-42 8.66699 -80.333 27.167 -115 55.5s-64.667 64.666 -90 108.999s-45 96 -59 155s-21 123.167 -21 192.5z" />
    <glyph glyph-name="parenright" unicode=")" horiz-adv-x="371" 
d="M327 353c0 -69.333 -6.99902 -133.503 -20.999 -192.503s-33.667 -110.667 -59 -155s-55.333 -80.666 -90 -108.999s-73 -46.833 -115 -55.5l-26 55c31.333 6.66699 60 22.167 86 46.5s48.167 56.333 66.5 96s32.5 85.834 42.5 138.501s15 110.667 15 174
c0 62 -5.16699 119.833 -15.5 173.5s-24.833 100.834 -43.5 141.501s-41.334 74 -68.001 100s-56 42.667 -88 50l21 49c44 -11.333 84.167 -32 120.5 -62s67.5 -67.333 93.5 -112s46 -95.667 60 -153s21 -119 21 -185z" />
    <glyph glyph-name="asterisk" unicode="*" horiz-adv-x="470" 
d="M274 743c0 -16 -2.83496 -35.002 -8.50195 -57.002s-10.167 -42.667 -13.5 -62c11.333 6 23 12.5 35 19.5s23.5 13.667 34.5 20s21.5 11.5 31.5 15.5s19 6 27 6c8.66699 0 17.334 -3 26.001 -9s13 -16.667 13 -32c0 -14 -5 -24 -15 -30s-22.833 -10 -38.5 -12
s-32.667 -3.16699 -51 -3.5s-35.833 -1.83301 -52.5 -4.5c10.667 -10.667 22 -21.334 34 -32.001s23.167 -21 33.5 -31s18.833 -20 25.5 -30s10 -19.333 10 -28s-4 -17 -12 -25s-17.333 -12 -28 -12c-11.333 0 -21 4.5 -29 13.5s-15.333 20.333 -22 34s-13 28.667 -19 45
s-12.667 31.5 -20 45.5c-7.33301 -15.333 -14 -31.166 -20 -47.499s-12.333 -31.166 -19 -44.499s-13.834 -24.5 -21.501 -33.5s-17.167 -13.5 -28.5 -13.5c-10 0 -19.167 3.83301 -27.5 11.5s-12.5 16.167 -12.5 25.5c0 8 3.16699 16.833 9.5 26.5s14.5 19.834 24.5 30.501
s20.833 21.334 32.5 32.001s23.167 21.667 34.5 33c-16.667 2.66699 -34.167 4.16699 -52.5 4.5s-35.166 1.5 -50.499 3.5s-28 5.83301 -38 11.5s-15 15.167 -15 28.5c0 15.333 4 26.166 12 32.499s16.667 9.5 26 9.5c6.66699 0 15 -2 25 -6s20.833 -9 32.5 -15
s23.334 -12.5 35.001 -19.5s23.167 -13.167 34.5 -18.5c-3.33301 20.667 -7.83301 41.5 -13.5 62.5s-8.5 39.5 -8.5 55.5c0 14 3.33301 25.333 10 34s16.667 13 30 13s23.333 -4.16699 30 -12.5s10 -19.833 10 -34.5z" />
    <glyph glyph-name="plus" unicode="+" horiz-adv-x="488" 
d="M45 396h165v165h68v-165h165v-68h-165v-165h-68v165h-165v68z" />
    <glyph glyph-name="comma" unicode="," horiz-adv-x="247" 
d="M121 118c21.333 0 38.167 -7.49902 50.5 -22.499s18.5 -35.167 18.5 -60.5c0 -36 -10 -68.833 -30 -98.5s-51.333 -58.167 -94 -85.5l-22 25c28.667 23.333 51 45.333 67 66s24.667 39 26 55l-4 3c-1.33301 -2.66699 -4.5 -4.83398 -9.5 -6.50098
s-10.167 -2.5 -15.5 -2.5c-15.333 0 -27.833 5.83301 -37.5 17.5s-14.5 26.5 -14.5 44.5c0 19.333 6 35 18 47s27.667 18 47 18z" />
    <glyph glyph-name="hyphen" unicode="-" horiz-adv-x="389" 
d="M69 311h251v-67h-251v67z" />
    <glyph glyph-name="period" unicode="." horiz-adv-x="240" 
d="M57 53c0 20 5.66797 35.832 17.001 47.499s26.666 17.5 45.999 17.5s34.833 -6 46.5 -18s17.5 -27.667 17.5 -47s-5.83301 -34.666 -17.5 -45.999s-27.167 -17 -46.5 -17c-20 0 -35.5 5.5 -46.5 16.5s-16.5 26.5 -16.5 46.5z" />
    <glyph glyph-name="slash" unicode="/" horiz-adv-x="310" 
d="M200 730h57l-146 -740h-57z" />
    <glyph glyph-name="zero" unicode="0" horiz-adv-x="674" 
d="M57 360c0 64.667 7 121.334 21 170.001s34.667 89.334 62 122.001c24 29.333 51.5 49.666 82.5 60.999s69.167 17 114.5 17s83.5 -5.66699 114.5 -17s58.5 -31.666 82.5 -60.999c27.333 -32.667 48 -73.334 62 -122.001s21 -105.334 21 -170.001
s-7 -121.334 -21 -170.001s-34.667 -89.334 -62 -122.001c-24 -29.333 -51.5 -49.666 -82.5 -60.999s-69.167 -17 -114.5 -17s-83.5 5.66699 -114.5 17s-58.5 31.666 -82.5 60.999c-27.333 32.667 -48 73.334 -62 122.001s-21 105.334 -21 170.001zM505 360
c0 58.667 -3.66699 109 -11 151s-18.666 76 -33.999 102c-12.667 21.333 -28.334 37.166 -47.001 47.499s-44 15.5 -76 15.5s-57.333 -5.16699 -76 -15.5s-34.334 -26.166 -47.001 -47.499c-15.333 -26 -26.666 -60 -33.999 -102s-11 -92.333 -11 -151s3.66699 -109 11 -151
s18.666 -76 33.999 -102c12.667 -21.333 28.334 -37.166 47.001 -47.499s44 -15.5 76 -15.5s57.333 5.16699 76 15.5s34.334 26.166 47.001 47.499c15.333 26 26.666 60 33.999 102s11 92.333 11 151z" />
    <glyph glyph-name="one" unicode="1" horiz-adv-x="400" 
d="M172 633h-127v51c12 0 25.833 1 41.5 3s31 5 46 9s28.667 8.83301 41 14.5s21.5 12.167 27.5 19.5h68v-670l107 -19v-41h-331v41l127 19v573z" />
    <glyph glyph-name="two" unicode="2" horiz-adv-x="589" 
d="M447 95l24 128h55v-223h-475v66c0 34.667 9 66.5 27 95.5s40.5 56.333 67.5 82s56.333 50.5 88 74.5s61 48.5 88 73.5s49.5 51.333 67.5 79s27 58.167 27 91.5c0 37.333 -12.333 65.833 -37 85.5s-60.334 29.5 -107.001 29.5c-80.667 0 -128 -32.333 -142 -97
c21.333 0 37.666 -5.33301 48.999 -16s17 -25.667 17 -45s-5.66699 -34.333 -17 -45s-27.333 -16 -48 -16c-44.667 0 -67 27.667 -67 83c0 28.667 5.5 54.667 16.5 78s26.5 43.333 46.5 60s44 29.5 72 38.5s59 13.5 93 13.5s64.833 -4.5 92.5 -13.5s51.334 -22 71.001 -39
s34.834 -37.5 45.501 -61.5s16 -50.667 16 -80c0 -40.667 -9.5 -76.667 -28.5 -108s-42.833 -59.333 -71.5 -84s-59.5 -47 -92.5 -67s-63.833 -39.5 -92.5 -58.5s-52.5 -38.5 -71.5 -58.5s-28.5 -42 -28.5 -66h315z" />
    <glyph glyph-name="three" unicode="3" horiz-adv-x="580" 
d="M511 543c0 -44 -12.6689 -80.998 -38.002 -110.998s-60 -48.667 -104 -56v-4c102 -22 153 -81 153 -177c0 -30.667 -5.83301 -58.5 -17.5 -83.5s-28.167 -46.5 -49.5 -64.5s-47 -32 -77 -42s-63.333 -15 -100 -15c-33.333 0 -63.833 4.66699 -91.5 14
s-51.334 22.166 -71.001 38.499s-35 36 -46 59s-16.5 48.5 -16.5 76.5c0 56.667 23.333 85 70 85c19.333 0 34.5 -5.5 45.5 -16.5s16.5 -26.167 16.5 -45.5c0 -18 -6 -32.5 -18 -43.5s-28 -16.5 -48 -16.5c12 -64.667 61 -97 147 -97c49.333 0 86.333 11.667 111 35
s37 57.666 37 102.999c0 51.333 -16.167 92 -48.5 122s-76.833 45 -133.5 45v48c26.667 0 51 3.83301 73 11.5s40.833 18.5 56.5 32.5s27.834 30.833 36.501 50.5s13 41.5 13 65.5c0 38.667 -11.5 68.334 -34.5 89.001s-56.167 31 -99.5 31c-85.333 0 -133.333 -29 -144 -87
c20.667 0 36.834 -5.16699 48.501 -15.5s17.5 -25.166 17.5 -44.499s-5.83301 -34.5 -17.5 -45.5s-27.167 -16.5 -46.5 -16.5c-23.333 0 -41.5 7.83301 -54.5 23.5s-19.5 37.5 -19.5 65.5c0 26 5.5 49.667 16.5 71s26.5 39.666 46.5 54.999s44 27.166 72 35.499
s58.667 12.5 92 12.5c32.667 0 62.834 -4.5 90.501 -13.5s51.167 -21.833 70.5 -38.5s34.5 -36.5 45.5 -59.5s16.5 -48.5 16.5 -76.5z" />
    <glyph glyph-name="four" unicode="4" horiz-adv-x="559" 
d="M321 213h-292l-11 44l321 473h79v-460h109l-10 -57h-99v-153l77 -19v-41h-271v41l97 19v153zM87 270h234v348z" />
    <glyph glyph-name="five" unicode="5" horiz-adv-x="550" 
d="M441 625l-275.004 -0.000976562l-33 -218c19.333 14.667 40.333 25.667 63 33s48.667 11 78 11c34.667 0 66.167 -5.16699 94.5 -15.5s52.666 -25.333 72.999 -45s36 -43.334 47 -71.001s16.5 -58.5 16.5 -92.5c0 -35.333 -6 -67.666 -18 -96.999
s-28.667 -54.333 -50 -75s-47.333 -36.667 -78 -48s-64.334 -17 -101.001 -17c-32 0 -61.167 4.33301 -87.5 13s-48.666 20.5 -66.999 35.5s-32.666 32.333 -42.999 52s-15.5 40.5 -15.5 62.5c0 30 7.33301 53.5 22 70.5s32 25.5 52 25.5s35 -6 45 -18s15 -26 15 -42
s-5.83301 -30.333 -17.5 -43s-28.167 -19 -49.5 -19c5.33301 -24.667 21.333 -45 48 -61s59.334 -24 98.001 -24c26.667 0 48.834 4.33301 66.501 13s31.834 20.834 42.501 36.501s18.334 34.5 23.001 56.5s7 46.667 7 74c0 26.667 -2.16699 50.667 -6.5 72
s-11.833 39.5 -22.5 54.5s-24.834 26.667 -42.501 35s-39.5 12.5 -65.5 12.5c-26.667 0 -52.667 -4.16699 -78 -12.5s-44.666 -20.833 -57.999 -37.5l-48 20l57 354h288l18 32h42z" />
    <glyph glyph-name="six" unicode="6" horiz-adv-x="603" 
d="M158 351c18.667 24.667 43.6641 44.001 74.9971 58.001s65.333 21 102 21c32 0 61 -5.33301 87 -16s48.333 -25.5 67 -44.5s33.167 -42.167 43.5 -69.5s15.5 -57.333 15.5 -90c0 -68.667 -21.333 -122.5 -64 -161.5s-101 -58.5 -175 -58.5
c-85.333 0 -148.333 28.5 -189 85.5s-61 145.167 -61 264.5c0 128 21.833 225.167 65.5 291.5s107.5 99.5 191.5 99.5c30.667 0 58.667 -4 84 -12s47 -19.5 65 -34.5s32 -32.833 42 -53.5s15 -43.334 15 -68.001c0 -56 -22.667 -84 -68 -84
c-19.333 0 -34.833 5.33301 -46.5 16s-17.5 25.667 -17.5 45c0 18.667 5.83301 33.5 17.5 44.5s27.834 16.5 48.501 16.5c-5.33301 24.667 -19.166 43.334 -41.499 56.001s-52.166 19 -89.499 19c-60.667 0 -104.667 -22 -132 -66s-41 -114.667 -41 -212v-24
c0 -6.66699 0.666992 -14.334 2 -23.001h4zM440.997 210.001c0 108.667 -44.333 163 -133 163s-133 -54.333 -133 -163c0 -110 44.333 -165 133 -165s133 55 133 165z" />
    <glyph glyph-name="seven" unicode="7" horiz-adv-x="513" 
d="M262 54c0 -19.333 -3.99902 -34.835 -11.999 -46.502s-21 -17.5 -39 -17.5c-19.333 0 -32.833 5.5 -40.5 16.5s-11.5 27.167 -11.5 48.5c0 23.333 3 50 9 80s14.5 62 25.5 96s24.167 68.833 39.5 104.5s32.166 70.667 50.499 105s37.833 67.333 58.5 99
s42 60.167 64 85.5h-295l-19 -117h-52v212h459v-61c-33.333 -39.333 -64.5 -83.666 -93.5 -132.999s-54.167 -100.666 -75.5 -153.999s-38 -107.333 -50 -162s-18 -106.667 -18 -156z" />
    <glyph glyph-name="eight" unicode="8" horiz-adv-x="572" 
d="M486 571c0 -38 -9.50098 -72.667 -28.501 -104s-45.833 -57.333 -80.5 -78c50 -27.333 86.167 -56 108.5 -86s33.5 -65 33.5 -105c0 -31.333 -6 -59.833 -18 -85.5s-29 -47.5 -51 -65.5s-48.333 -32 -79 -42s-64.667 -15 -102 -15c-68.667 0 -121.834 16.5 -159.501 49.5
s-56.5 79.167 -56.5 138.5c0 42.667 10.833 80 32.5 112s55.834 61.333 102.501 88c-18.667 13.333 -34.5 26.333 -47.5 39s-23.5 25.667 -31.5 39s-13.833 27.333 -17.5 42s-5.5 30.667 -5.5 48c0 58 18.333 103.333 55 136s87.667 49 153 49
c60.667 0 107.834 -14.167 141.501 -42.5s50.5 -67.5 50.5 -117.5zM228.999 352c-36.667 -21.333 -63.499 -46 -80.499 -74s-25.5 -61 -25.5 -99c0 -90 49 -135 147 -135c100.667 0 151 41 151 123c0 16 -3 30.833 -9 44.5s-16.5 27.667 -31.5 42s-34.833 29.333 -59.5 45
s-55.334 33.5 -92.001 53.5zM334 415c28.667 14 51.167 34.666 67.5 61.999s24.5 57.333 24.5 90c0 73.333 -43.333 110 -130 110c-83.333 0 -125 -34.333 -125 -103c0 -16 2.83301 -30.667 8.5 -44s15 -26.333 28 -39s29.833 -25.167 50.5 -37.5s46 -25.166 76 -38.499z
" />
    <glyph glyph-name="nine" unicode="9" horiz-adv-x="603" 
d="M445 370c-18.667 -24.667 -43.666 -43.998 -74.999 -57.998s-65.333 -21 -102 -21c-32 0 -61 5.33301 -87 16s-48.333 25.5 -67 44.5s-33.167 42 -43.5 69s-15.5 57.167 -15.5 90.5c0 68.667 21.333 122.5 64 161.5s101 58.5 175 58.5c85.333 0 148.333 -28.5 189 -85.5
s61 -145.5 61 -265.5c0 -128.667 -22.5 -225.834 -67.5 -291.501s-111.833 -98.5 -200.5 -98.5c-60 0 -107.833 14.833 -143.5 44.5s-53.5 69.5 -53.5 119.5c0 56.667 22.667 85 68 85c19.333 0 34.833 -5.33301 46.5 -16s17.5 -25.667 17.5 -45
c0 -18.667 -5.83301 -33.5 -17.5 -44.5s-27.834 -16.5 -48.501 -16.5c7.33301 -48 47 -72 119 -72c33.333 0 61.833 5.16699 85.5 15.5s43 26.666 58 48.999s26 51 33 86s10.5 77.5 10.5 127.5v27c0 6 -0.666992 12.667 -2 20h-4zM162.001 511.002
c0 -108.667 44.333 -163 133 -163s133 54.333 133 163c0 110 -44.333 165 -133 165s-133 -55 -133 -165z" />
    <glyph glyph-name="colon" unicode=":" horiz-adv-x="265" 
d="M69 53c0 20 5.66797 35.832 17.001 47.499s26.666 17.5 45.999 17.5s34.833 -6 46.5 -18s17.5 -27.667 17.5 -47s-5.83301 -34.666 -17.5 -45.999s-27.167 -17 -46.5 -17c-20 0 -35.5 5.5 -46.5 16.5s-16.5 26.5 -16.5 46.5zM69.001 403.999
c0 20 5.66797 35.832 17.001 47.499s26.666 17.5 45.999 17.5s34.833 -6 46.5 -18s17.5 -27.667 17.5 -47s-5.83301 -34.666 -17.5 -45.999s-27.167 -17 -46.5 -17c-20 0 -35.5 5.5 -46.5 16.5s-16.5 26.5 -16.5 46.5z" />
    <glyph glyph-name="semicolon" unicode=";" horiz-adv-x="287" 
d="M144 118c21.333 0 38.167 -7.49902 50.5 -22.499s18.5 -35.167 18.5 -60.5c0 -36 -10 -68.833 -30 -98.5s-51.333 -58.167 -94 -85.5l-22 25c28.667 23.333 51 45.333 67 66s24.667 39 26 55l-4 3c-1.33301 -2.66699 -4.5 -4.83398 -9.5 -6.50098
s-10.167 -2.5 -15.5 -2.5c-15.333 0 -27.833 5.83301 -37.5 17.5s-14.5 26.5 -14.5 44.5c0 19.333 6 35 18 47s27.667 18 47 18zM81.001 404.001c0 20 5.66797 35.832 17.001 47.499s26.666 17.5 45.999 17.5s34.833 -6 46.5 -18s17.5 -27.667 17.5 -47
s-5.83301 -34.666 -17.5 -45.999s-27.167 -17 -46.5 -17c-20 0 -35.5 5.5 -46.5 16.5s-16.5 26.5 -16.5 46.5z" />
    <glyph glyph-name="less" unicode="&#x3c;" horiz-adv-x="471" 
d="M35 331v58l369 195v-75l-298 -149l298 -149v-76z" />
    <glyph glyph-name="equal" unicode="=" horiz-adv-x="576" 
d="M74 481h428v-58h-428v58zM74 294h428v-59h-428v59z" />
    <glyph glyph-name="greater" unicode="&#x3e;" horiz-adv-x="471" 
d="M67 135v76l298 149l-298 149v75l369 -195v-58z" />
    <glyph glyph-name="question" unicode="?" horiz-adv-x="481" 
d="M182 205c0 20 1.66504 38.3359 4.99805 55.0029s8.83301 33 16.5 49s18.167 32.167 31.5 48.5s30 34.5 50 54.5c23.333 23.333 40 45.666 50 66.999s15 45.333 15 72c0 40 -10 70.833 -30 92.5s-49 32.5 -87 32.5c-13.333 0 -26.333 -1.33301 -39 -4
s-23.667 -6.33398 -33 -11.001s-16.833 -9.83398 -22.5 -15.501s-8.5 -11.834 -8.5 -18.501c13.333 -7.33301 23.833 -17.5 31.5 -30.5s11.5 -26.833 11.5 -41.5c0 -18.667 -6.16699 -34 -18.5 -46s-28.166 -18 -47.499 -18c-21.333 0 -38.833 8.16699 -52.5 24.5
s-20.5 37.166 -20.5 62.499c0 21.333 5.33301 41.333 16 60s25.334 34.834 44.001 48.501s40.667 24.5 66 32.5s52.666 12 81.999 12c30.667 0 58.834 -4.33301 84.501 -13s47.667 -20.667 66 -36s32.666 -33.666 42.999 -54.999s15.5 -44.666 15.5 -69.999
c0 -30 -7.16699 -58 -21.5 -84s-38.833 -54.667 -73.5 -86c-23.333 -21.333 -42.666 -40.166 -57.999 -56.499s-27.5 -31.333 -36.5 -45s-15.167 -26.834 -18.5 -39.501s-5 -26.334 -5 -41.001h-56zM271.998 52.0029c0 -19.333 -5.33398 -34.5 -16.001 -45.5
s-25.667 -16.5 -45 -16.5s-34.666 5.5 -45.999 16.5s-17 26.167 -17 45.5s5.5 34.666 16.5 45.999s26.167 17 45.5 17s34.5 -5.66699 45.5 -17s16.5 -26.666 16.5 -45.999z" />
    <glyph glyph-name="at" unicode="@" horiz-adv-x="808" 
d="M409 449c51.333 0 85.002 -18.332 101.002 -54.999l32 37h40l-37 -246c-2.66699 -15.333 -4 -30.333 -4 -45c0 -42.667 16.667 -64 50 -64c16.667 0 32.334 5.33301 47.001 16s27.334 25.167 38.001 43.5s19.167 40 25.5 65s9.5 51.833 9.5 80.5
c0 42 -6.83301 80 -20.5 114s-33 63.167 -58 87.5s-55.167 43 -90.5 56s-75 19.5 -119 19.5c-47.333 0 -91.5 -9.16699 -132.5 -27.5s-76.5 -43.666 -106.5 -75.999s-53.5 -70.333 -70.5 -114s-25.5 -90.834 -25.5 -141.501c0 -94.667 27 -168 81 -220s130 -78 228 -78
c92.667 0 174.667 23 246 69l19 -31c-36.667 -24.667 -77.834 -43.334 -123.501 -56.001s-93.5 -19 -143.5 -19c-54 0 -102.5 7.66699 -145.5 23s-79.667 37.5 -110 66.5s-53.5 64 -69.5 105s-24 87.5 -24 139.5c0 56 9.83301 108 29.5 156s46.5 89.833 80.5 125.5
s74.167 63.667 120.5 84s96.166 30.5 149.499 30.5c49.333 0 94.166 -7.5 134.499 -22.5s75 -36 104 -63s51.333 -59.667 67 -98s23.5 -80.5 23.5 -126.5c0 -35.333 -4.5 -67.833 -13.5 -97.5s-21.333 -55.5 -37 -77.5s-34.334 -39.167 -56.001 -51.5
s-45.167 -18.5 -70.5 -18.5c-28 0 -50.5 6 -67.5 18s-27.5 28.667 -31.5 50c-15.333 -23.333 -35.5 -41.333 -60.5 -54s-52.5 -19 -82.5 -19c-46 0 -81.167 14 -105.5 42s-36.5 68 -36.5 120c0 36 5.5 69.5 16.5 100.5s26.167 57.667 45.5 80s42 40 68 53
s54.333 19.5 85 19.5zM408.002 410.001c-20.667 0 -39.333 -5.33398 -56 -16.001s-31 -25.667 -43 -45s-21.167 -42.833 -27.5 -70.5s-9.5 -58.5 -9.5 -92.5c0 -40 6.16699 -68.833 18.5 -86.5s32.5 -26.5 60.5 -26.5c42.667 0 76 19.5 100 58.5s36 93.833 36 164.5
c0 40.667 -6.16699 69.834 -18.5 87.501s-32.5 26.5 -60.5 26.5z" />
    <glyph glyph-name="A" unicode="A" horiz-adv-x="721" 
d="M473 242h-268l-61 -178l83 -21v-43h-234v43l82 21l240 666h93l237 -666l80 -21v-43h-275v43l82 21zM225 300h229l-108 341h-4z" />
    <glyph glyph-name="B" unicode="B" horiz-adv-x="684" 
d="M601 547c0 -19.333 -3.33203 -37.6689 -9.99902 -55.002s-16 -32.833 -28 -46.5s-26.167 -25 -42.5 -34s-34.166 -14.833 -53.499 -17.5v-4c52 -11.333 93 -33.5 123 -66.5s45 -73.833 45 -122.5c0 -38 -9.83301 -72.667 -29.5 -104s-44.5 -54.666 -74.5 -69.999
c-9.33301 -4.66699 -19.5 -8.66699 -30.5 -12s-23.833 -6.16602 -38.5 -8.49902s-31.334 -4 -50.001 -5s-40.334 -1.5 -65.001 -1.5h-299v43l84 21v592l-84 21v43h336c70 0 124 -17 162 -51c17.333 -16 30.833 -34.667 40.5 -56s14.5 -43.333 14.5 -66zM232.001 346.997
l-0.00195312 -286.999h110c30.667 0 55.334 1.66699 74.001 5s34.334 8.66602 47.001 15.999c18 10.667 32.667 26.667 44 48s17 47 17 77c0 25.333 -4.33301 47.5 -13 66.5s-19.667 34.167 -33 45.5c-12 10 -27.333 17.333 -46 22s-42.667 7 -72 7h-128zM231.999 404.998
l125 0.000976562c46.667 0 81 11.667 103 35c10 10.667 18.667 24.167 26 40.5s11 35.166 11 56.499c0 20.667 -3.66699 39.167 -11 55.5s-16 29.5 -26 39.5c-20 20 -53 30 -99 30h-129v-257z" />
    <glyph glyph-name="C" unicode="C" horiz-adv-x="684" 
d="M371 676c-63.333 0 -110.666 -20.665 -141.999 -61.998c-20 -26 -35.667 -60.167 -47 -102.5s-17 -88.833 -17 -139.5c0 -48 5 -92.5 15 -133.5s24 -75.5 42 -103.5s39.833 -48.5 65.5 -61.5s57.834 -19.5 96.501 -19.5c59.333 0 106.666 14.167 141.999 42.5
s57.666 70.5 66.999 126.5h55c-15.333 -78.667 -45.333 -137.167 -90 -175.5s-106 -57.5 -184 -57.5c-92 0 -165.333 26.667 -220 80c-32.667 32 -57.667 72.167 -75 120.5s-26 102.5 -26 162.5c0 67.333 11 128.166 33 182.499s53 98.166 93 131.499
c50.667 42 117.667 63 201 63c20.667 0 39.167 -1.16699 55.5 -3.5s31.5 -6.33301 45.5 -12s27.167 -13.167 39.5 -22.5s24.833 -21 37.5 -35l20 63h55v-221h-61c-19.333 118 -86.333 177 -201 177z" />
    <glyph glyph-name="D" unicode="D" horiz-adv-x="766" 
d="M387 60c70.667 0 122.667 22 156 66c36.667 46.667 55 122.667 55 228c0 104 -18.333 181.333 -55 232c-34.667 49.333 -90 74 -166 74h-145v-600h155zM384 720c99.333 0 176.667 -27.999 232 -83.999c31.333 -32 55.333 -71.333 72 -118s25 -96.667 25 -150
c0 -56.667 -8.66699 -109.334 -26 -158.001s-42 -89.667 -74 -123c-28 -30 -61.333 -52 -100 -66s-84.667 -21 -138 -21h-327v43l84 21v592l-84 21v43h336z" />
    <glyph glyph-name="E" unicode="E" horiz-adv-x="685" 
d="M421 238l-18 102h-166v-280h302l31 163h58v-223h-585v43l94 21v592l-94 21v43h563v-212h-52l-32 154h-285v-262h166l18 102h51v-264h-51z" />
    <glyph glyph-name="F" unicode="F" horiz-adv-x="636" 
d="M421 227l-17 102h-167v-262l117 -19v-48h-311v43l94 24v589l-94 21v43h563v-214h-54l-32 156h-283v-273h167l17 102h51v-264h-51z" />
    <glyph glyph-name="G" unicode="G" horiz-adv-x="753" 
d="M375 55c113.333 0 170.003 56 170.003 168v70l-84 21v45h268v-45l-84 -21v-293h-52l-25 79c-29.333 -32 -59.333 -54.833 -90 -68.5s-67 -20.5 -109 -20.5c-91.333 0 -164.333 28 -219 84c-31.333 32 -55.333 71.667 -72 119s-25 100.333 -25 159
c0 59.333 8.83301 114.333 26.5 165s42.5 93 74.5 127c54 57.333 127 86 219 86c40 0 74.167 -6.16699 102.5 -18.5s55.166 -32.5 80.499 -60.5l22 69h55v-221h-61c-19.333 118 -87 177 -203 177c-34 0 -62.333 -5.5 -85 -16.5s-42.334 -28.167 -59.001 -51.5
c-19.333 -28 -34.333 -63.333 -45 -106s-16 -88 -16 -136c0 -50 5.83301 -95.833 17.5 -137.5s28.167 -77.167 49.5 -106.5c17.333 -23.333 37.166 -40.333 59.499 -51s50.5 -16 84.5 -16z" />
    <glyph glyph-name="H" unicode="H" horiz-adv-x="803" 
d="M671 64l84 -21v-43h-268v43l84 21v277h-339v-277l84 -21v-43h-268v43l84 21v592l-84 21v43h268v-43l-84 -21v-257h339v257l-84 21v43h268v-43l-84 -21v-592z" />
    <glyph glyph-name="I" unicode="I" horiz-adv-x="374" 
d="M237 64l94 -21v-43h-288v43l94 21v592l-94 21v43h288v-43l-94 -21v-592z" />
    <glyph glyph-name="J" unicode="J" horiz-adv-x="583" 
d="M365 656l-99 21v43h278v-43l-79 -21v-438c0 -34.667 -5.66699 -66 -17 -94s-27.333 -52 -48 -72s-45.5 -35.5 -74.5 -46.5s-61.167 -16.5 -96.5 -16.5c-31.333 0 -60 4.5 -86 13.5s-48.167 21.667 -66.5 38s-32.666 36 -42.999 59s-15.5 48.167 -15.5 75.5
c0 56 22 84 66 84c19.333 0 34.666 -5.33301 45.999 -16s17 -24.667 17 -42c0 -15.333 -4.33301 -30.833 -13 -46.5s-18.667 -26.167 -30 -31.5c0 -21.333 11.5 -39.333 34.5 -54s52.833 -22 89.5 -22c47.333 0 82 13.167 104 39.5s33 66.5 33 120.5v449z" />
    <glyph glyph-name="K" unicode="K" horiz-adv-x="741" 
d="M237 366l280 290l-91 21v43h263v-43l-88 -21l-234 -232l299 -362l84 -19v-43h-279v43l66 20l-237 293l-63 -60v-232l84 -21v-43h-278v43l94 21v592l-94 21v43h278v-43l-84 -21v-290z" />
    <glyph glyph-name="L" unicode="L" horiz-adv-x="629" 
d="M237 60h272l34 173h55v-233h-555v43l94 21v592l-94 21v43h298v-43l-104 -21v-596z" />
    <glyph glyph-name="M" unicode="M" horiz-adv-x="961" 
d="M679 720h234v-43l-84 -21v-592l84 -21v-43h-257v43l73 21v591l-206 -655h-118l-208 655v-591l73 -21v-43h-222v43l84 21v592l-84 21v43h238l196 -629h4z" />
    <glyph glyph-name="N" unicode="N" horiz-adv-x="801" 
d="M132 656l-84 21v43h191l374 -553v489l-84 21v43h233v-43l-84 -21v-656h-71l-410 599v-535l84 -21v-43h-233v43l84 21v592z" />
    <glyph glyph-name="O" unicode="O" horiz-adv-x="764" 
d="M711 368c0 -58.667 -8.66602 -113.334 -25.999 -164.001s-42 -93 -74 -127c-54 -58 -131 -87 -231 -87c-102 0 -179 28 -231 84c-30.667 32 -54.334 72.167 -71.001 120.5s-25 100.833 -25 157.5c0 58.667 8.66699 113.334 26 164.001s42 93 74 127
c28 30 60.5 52 97.5 66s80.833 21 131.5 21c100.667 0 178 -28 232 -84c31.333 -32 55.333 -72.167 72 -120.5s25 -100.833 25 -157.5zM168.001 372c0 -56 4.66895 -105.333 14.002 -148s22.666 -77.667 39.999 -105c33.333 -49.333 87.666 -74 162.999 -74
c70.667 0 122.667 22 156 66c36.667 50 55 131 55 243c0 55.333 -4.66699 104 -14 146s-23 76 -41 102c-34.667 49.333 -88.667 74 -162 74c-70 0 -122 -22 -156 -66c-36.667 -48.667 -55 -128 -55 -238z" />
    <glyph glyph-name="P" unicode="P" horiz-adv-x="631" 
d="M356 341c18.667 0 36.167 2.83398 52.5 8.50098s29.166 13.167 38.499 22.5c13.333 14 24.666 32.333 33.999 55s14 47 14 73c0 25.333 -4.5 48.5 -13.5 69.5s-20.5 39.833 -34.5 56.5c-11.333 11.333 -25.166 20.166 -41.499 26.499s-34.166 9.5 -53.499 9.5h-120v-321
h124zM232 283.001l-0.000976562 -219.001l95 -21v-43h-279v43l84 21v592l-84 21v43h331c31.333 0 59.833 -4.16699 85.5 -12.5s47.167 -20.166 64.5 -35.499c23.333 -21.333 41.833 -46.333 55.5 -75s20.5 -59 20.5 -91c0 -33.333 -7.16699 -65.5 -21.5 -96.5
s-33.166 -56.833 -56.499 -77.5c-17.333 -15.333 -39 -27.333 -65 -36s-54 -13 -84 -13h-146z" />
    <glyph glyph-name="Q" unicode="Q" horiz-adv-x="764" 
d="M711 368c0 -58.667 -8.66602 -113.333 -25.999 -164s-42 -93 -74 -127c-24.667 -26.667 -53.334 -46.834 -86.001 -60.501s-70 -22.167 -112 -25.5v-4l127 -81c25.333 -16 52.333 -24 81 -24c10.667 0 19.834 1.33301 27.501 4s16.5 7.66699 26.5 15l16 -27
c-13.333 -21.333 -30.333 -36.5 -51 -45.5s-46 -13.5 -76 -13.5c-37.333 0 -70 6.33301 -98 19s-49.667 31.667 -65 57l-60 101c-81.333 6 -145.333 33.333 -192 82c-30.667 32 -54.334 72.167 -71.001 120.5s-25 100.833 -25 157.5c0 58.667 8.66699 113.334 26 164.001
s42 93 74 127c28 30 60.333 52 97 66s80.667 21 132 21c100.667 0 178 -28 232 -84c31.333 -32 55.333 -72.167 72 -120.5s25 -100.833 25 -157.5zM168.001 374.001c0 -56.667 4.66895 -106.833 14.002 -150.5s22.666 -78.5 39.999 -104.5
c32.667 -49.333 86.667 -74 162 -74c71.333 0 123.666 22 156.999 66c36.667 50 55 131 55 243c0 55.333 -4.66699 104 -14 146s-23 76 -41 102c-34.667 49.333 -88.667 74 -162 74c-70 0 -122 -22 -156 -66c-36.667 -47.333 -55 -126 -55 -236z" />
    <glyph glyph-name="R" unicode="R" horiz-adv-x="706" 
d="M543 382c-12 -9.33301 -26.001 -17.332 -42.001 -23.999s-35.667 -12.334 -59 -17.001c12 -12 25.333 -30 40 -54l133 -225l89 -19v-43h-206v43l-144 280h-122v-259l95 -21v-43h-279v43l84 21v592l-84 21v43h344c32 0 60 -3 84 -9s45.667 -15.667 65 -29
c24.667 -16 43.834 -38 57.501 -66s20.5 -56 20.5 -84s-6.83301 -55.5 -20.5 -82.5s-32.167 -49.5 -55.5 -67.5zM374.999 381.001c36.667 0 67 10.334 91 31.001c13.333 12 23.833 28.167 31.5 48.5s11.5 42.166 11.5 65.499s-3.83301 44.5 -11.5 63.5
s-18.5 34.5 -32.5 46.5c-11.333 9.33301 -24.5 16 -39.5 20s-33.167 6 -54.5 6h-139v-281h143z" />
    <glyph glyph-name="S" unicode="S" horiz-adv-x="599" 
d="M321 -11c-40 0 -76.001 6.00391 -108.001 18.0039s-58.667 29 -80 51l-11 -58h-56v227h61c4 -64 19.833 -110.5 47.5 -139.5s70.167 -43.5 127.5 -43.5c95.333 0 143 36.333 143 109c0 21.333 -4.16699 40 -12.5 56s-20.166 30.5 -35.499 43.5s-34.166 25 -56.499 36
s-47.5 22.167 -75.5 33.5c-32 12.667 -60.167 25.167 -84.5 37.5s-44.666 26.333 -60.999 42s-28.833 33.667 -37.5 54s-13 45.166 -13 74.499c0 63.333 19.833 112.666 59.5 147.999s92.834 53 159.501 53c66 0 119.667 -18.667 161 -56l8 45h56v-227h-57
c0 64.667 -11.833 111.5 -35.5 140.5s-61.5 43.5 -113.5 43.5c-91.333 0 -137 -41.667 -137 -125c0 -16.667 2 -30.834 6 -42.501s11.5 -22.5 22.5 -32.5s25.833 -19.667 44.5 -29s42.667 -20.333 72 -33c41.333 -18 76.666 -35.167 105.999 -51.5
s53.166 -33.5 71.499 -51.5s31.833 -37.333 40.5 -58s13 -44 13 -70c0 -30.667 -5.5 -58.167 -16.5 -82.5s-26.333 -44.833 -46 -61.5s-43.334 -29.334 -71.001 -38.001s-58.167 -13 -91.5 -13z" />
    <glyph glyph-name="T" unicode="T" horiz-adv-x="658" 
d="M627 720v-210h-52l-32 150h-164v-593l106 -24v-43h-312v43l106 24v593h-165l-31 -150h-52v210h596z" />
    <glyph glyph-name="U" unicode="U" horiz-adv-x="772" 
d="M592 656l-84.001 21v43h231v-43l-84 -21v-413c0 -83.333 -22.167 -146.5 -66.5 -189.5s-109.833 -64.5 -196.5 -64.5c-89.333 0 -157.666 22 -204.999 66s-71 107 -71 189v412l-84 21v43h268v-43l-84 -21v-395c0 -144.667 66 -217 198 -217c62.667 0 108 16.833 136 50.5
s42 88.5 42 164.5v397z" />
    <glyph glyph-name="V" unicode="V" horiz-adv-x="716" 
d="M377 83h4l186 573l-83 21v43h234v-43l-82 -21l-224 -656h-98l-243 656l-80 21v43h270v-43l-82 -21z" />
    <glyph glyph-name="W" unicode="W" horiz-adv-x="1041" 
d="M892 657l-79 20v43h229v-43l-83 -21l-190 -656h-104l-147 481l-133 -481h-104l-208 656l-78 21v43h284v-43l-96 -21l165 -562h4l136 502l-13 60l-78 21v43h264v-43l-92 -21l164 -562h4z" />
    <glyph glyph-name="X" unicode="X" horiz-adv-x="740" 
d="M237 656l141 -224l168 224l-91 21v43h263v-43l-98 -21l-206 -270l214 -322l106 -21v-43h-327l-2 43l103 21l-157 251l-177 -251l109 -21v-43h-272v43l93 21l211 294l-195 298l-106 21v43h317v-43z" />
    <glyph glyph-name="Y" unicode="Y" horiz-adv-x="678" 
d="M533 656l-81 21v43h227v-43l-82 -21l-204 -374v-218l94 -21v-43h-288v43l94 21v202l-215 390l-83 21v43h276v-43l-84 -21l172 -320z" />
    <glyph glyph-name="Z" unicode="Z" horiz-adv-x="647" 
d="M543 223h57v-223h-563v61l426 599h-311l-32 -152h-52v212h509v-61l-426 -599h360z" />
    <glyph glyph-name="bracketleft" unicode="[" horiz-adv-x="368" 
d="M93 855h251v-60h-162v-884h162v-60h-251v1004z" />
    <glyph glyph-name="backslash" unicode="\" horiz-adv-x="310" 
d="M256 -10h-57l-146 740h57z" />
    <glyph glyph-name="bracketright" unicode="]" horiz-adv-x="368" 
d="M275 -149h-251v60h162v884h-162v60h251v-1004z" />
    <glyph glyph-name="asciicircum" unicode="^" horiz-adv-x="382" 
d="M327 639h-53l-83 91l-83 -91h-53l88 151h95z" />
    <glyph glyph-name="underscore" unicode="_" horiz-adv-x="632" 
d="M69 0h494v-58h-494v58z" />
    <glyph glyph-name="grave" unicode="`" horiz-adv-x="259" 
d="M219 639l-53 0.000976562l-38 28c-32 23.333 -54.667 42.166 -68 56.499s-20 26.5 -20 36.5c0 12 4 20.833 12 26.5s19 8.5 33 8.5s26.833 -5.83301 38.5 -17.5s27.167 -32.5 46.5 -62.5z" />
    <glyph glyph-name="a" unicode="a" horiz-adv-x="537" 
d="M38 117c0 26 5.83203 48.999 17.499 68.999s30.167 37.833 55.5 53.5s58 29.167 98 40.5s88 21.333 144 30c-3.33301 39.333 -7.16602 70 -11.499 92s-10.166 39.667 -17.499 53c-9.33301 17.333 -22.333 30.166 -39 38.499s-34.667 12.5 -54 12.5
c-18.667 0 -35.5 -3.33301 -50.5 -10s-25.167 -15.667 -30.5 -27c9.33301 -7.33301 16.166 -16.166 20.499 -26.499s6.5 -20.166 6.5 -29.499c0 -16.667 -5.5 -29.834 -16.5 -39.501s-24.5 -14.5 -40.5 -14.5s-29.167 5.33301 -39.5 16s-15.5 25.667 -15.5 45
c0 20.667 5.66699 39.167 17 55.5s26.166 30 44.499 41s39 19.333 62 25s45.833 8.5 68.5 8.5c56.667 0 101.334 -16.333 134.001 -49c41.333 -41.333 62 -114.666 62 -219.999v-145c0 -33.333 2.16699 -56.166 6.5 -68.499s13.833 -18.5 28.5 -18.5h45v-30
c-48 -19.333 -85.333 -29 -112 -29c-10 0 -18.333 1.66699 -25 5s-12 9.16602 -16 17.499s-6.83301 19.5 -8.5 33.5s-2.5 31.667 -2.5 53h-4c-20.667 -34 -48 -60.667 -82 -80s-70.667 -29 -110 -29c-42 0 -75 11.167 -99 33.5s-36 53.5 -36 93.5zM214.999 47.999
c18.667 0 38.167 4.83496 58.5 14.502s37.5 23.167 51.5 40.5c20.667 25.333 31 62.666 31 111.999c0 11.333 -0.333008 22.5 -1 33.5s-1.66699 21.5 -3 31.5c-40.667 -8 -74.5 -16.333 -101.5 -25s-48.667 -18.5 -65 -29.5s-27.833 -23.667 -34.5 -38
s-10 -30.833 -10 -49.5c0 -28.667 6.5 -50.834 19.5 -66.501s31.167 -23.5 54.5 -23.5z" />
    <glyph glyph-name="b" unicode="b" horiz-adv-x="601" 
d="M555 275c0 -44 -6.33203 -85.167 -18.999 -123.5s-30.334 -70.5 -53.001 -96.5c-37.333 -43.333 -91 -65 -161 -65c-34 0 -64.333 7.83301 -91 23.5s-50.334 44.834 -71.001 87.501l-30 -101h-47v720l-77 19v41h174v-298c20 25.333 42.333 43 67 53s52.334 15 83.001 15
c34 0 64.833 -5 92.5 -15s50.167 -26 67.5 -48c20.667 -25.333 36.667 -56.333 48 -93s17 -76.334 17 -119.001zM180.001 274c0 -82 11.666 -141.665 34.999 -178.998c10.667 -17.333 23.667 -30.5 39 -39.5s35.666 -13.5 60.999 -13.5c45.333 0 79 15.667 101 47
c12 17.333 20.667 41.333 26 72s8 66 8 106c0 80 -11.667 139.333 -35 178c-11.333 17.333 -24.666 30.5 -39.999 39.5s-35.666 13.5 -60.999 13.5c-23.333 0 -43.333 -3.83301 -60 -11.5s-29.667 -19.167 -39 -34.5c-11.333 -18.667 -20 -42.834 -26 -72.501
s-9 -64.834 -9 -105.501z" />
    <glyph glyph-name="c" unicode="c" horiz-adv-x="536" 
d="M302 550c58 0 104.165 -14.1699 138.498 -42.5029s51.5 -66.166 51.5 -113.499c0 -51.333 -20.667 -77 -62 -77c-19.333 0 -34.333 5.33301 -45 16s-16 25 -16 43c0 16.667 4.5 31 13.5 43s21.167 20.333 36.5 25c-19.333 36.667 -56.333 55 -111 55
s-94.5 -17.667 -119.5 -53s-37.5 -91 -37.5 -167c0 -63.333 8.66699 -111.666 26 -144.999c26.667 -51.333 70.334 -77 131.001 -77c30.667 0 60 6.66699 88 20s52 32.333 72 57l30 -24c-26.667 -41.333 -57.334 -71.666 -92.001 -90.999s-75.334 -29 -122.001 -29
s-87.167 9.5 -121.5 28.5s-61.166 46.833 -80.499 83.5c-11.333 21.333 -20.166 45.833 -26.499 73.5s-9.5 57.167 -9.5 88.5c0 43.333 6 82.5 18 117.5s29.167 65 51.5 90s49.333 44.333 81 58s66.834 20.5 105.501 20.5z" />
    <glyph glyph-name="d" unicode="d" horiz-adv-x="620" 
d="M46 265c0 44 5.66797 85.332 17.001 123.999s28.333 70.667 51 96c19.333 21.333 42.166 37.5 68.499 48.5s57.166 16.5 92.499 16.5c30 0 57 -5.66699 81 -17s45.667 -31.666 65 -60.999v248l-77 19v41h174v-720l77 -19v-41l-155 -10l-8 82
c-20.667 -31.333 -44 -52.833 -70 -64.5s-55 -17.5 -87 -17.5c-34 0 -64.667 5 -92 15s-50 26 -68 48c-21.333 26 -38.166 57.167 -50.499 93.5s-18.5 75.833 -18.5 118.5zM421.001 265.999c0 82 -11.666 141.665 -34.999 178.998c-10.667 17.333 -23.667 30.5 -39 39.5
s-35.666 13.5 -60.999 13.5c-45.333 0 -79 -15.667 -101 -47c-12 -17.333 -20.667 -41.333 -26 -72s-8 -66 -8 -106c0 -80 11.667 -139.333 35 -178c11.333 -17.333 24.666 -30.5 39.999 -39.5s35.666 -13.5 60.999 -13.5c23.333 0 43.333 3.83301 60 11.5
s29.667 19.167 39 34.5c11.333 18.667 20 42.834 26 72.501s9 64.834 9 105.501z" />
    <glyph glyph-name="e" unicode="e" 
d="M148 264c0 -48.667 6.66406 -88.999 19.9971 -120.999c13.333 -31.333 32.166 -53.5 56.499 -66.5s51.166 -19.5 80.499 -19.5c32 0 60.833 6.5 86.5 19.5s48.834 30.833 69.501 53.5l32 -24c-12 -16 -24.833 -31 -38.5 -45s-29.167 -26.333 -46.5 -37
s-36.666 -19 -57.999 -25s-45 -9 -71 -9c-46 0 -86.667 9.83301 -122 29.5s-62.333 48.5 -81 86.5c-10 20.667 -17.333 43.5 -22 68.5s-7 52.167 -7 81.5c0 94 21.333 166.5 64 217.5s101.334 76.5 176.001 76.5c68.667 0 121.334 -21.167 158.001 -63.5
s55 -100.833 55 -175.5c0 -6.66699 -0.166992 -12.834 -0.5 -18.501s-1.16602 -15.167 -2.49902 -28.5h-349zM280.997 496.001c-80 0 -124 -61 -132 -183h250v33c0 48 -10.167 85 -30.5 111s-49.5 39 -87.5 39z" />
    <glyph glyph-name="f" unicode="f" horiz-adv-x="363" 
d="M18 526l96.9971 14.0029v10c0 76.667 16.667 135.834 50 177.501s78.333 62.5 135 62.5c40 0 71.667 -9.5 95 -28.5s35 -43.167 35 -72.5c0 -18.667 -4.66699 -32.834 -14 -42.501s-22 -14.5 -38 -14.5c-15.333 0 -27.666 4.33301 -36.999 13s-14 21 -14 37
c0 17.333 5.33301 34.666 16 51.999c-11.333 12 -26.666 18 -45.999 18c-15.333 0 -28.666 -3.33301 -39.999 -10s-20 -15.334 -26 -26.001s-10.5 -22.834 -13.5 -36.501s-4.66699 -28 -5 -43s-0.5 -30.5 -0.5 -46.5v-50h128v-50h-128v-430l108 -19v-41h-282v41l77 19v430
h-97v36z" />
    <glyph glyph-name="g" unicode="g" horiz-adv-x="560" 
d="M507 -10c0 -25.333 -5.50293 -48.6689 -16.5029 -70.002s-27 -39.666 -48 -54.999s-46.667 -27.333 -77 -36s-64.5 -13 -102.5 -13c-76.667 0 -134.667 10.833 -174 32.5s-59 52.5 -59 92.5c0 31.333 9.33301 55.333 28 72s44.334 27.667 77.001 33v4
c-44 12.667 -66 38.667 -66 78c0 20.667 7.5 39.834 22.5 57.501s38.5 32.167 70.5 43.5c-33.333 12 -58.833 30.667 -76.5 56s-26.5 56.333 -26.5 93c0 26.667 4.83301 50.5 14.5 71.5s23.334 39 41.001 54s39 26.5 64 34.5s53.167 12 84.5 12c62 0 111 -15.333 147 -46
l34 12l92 44h17v-88h-17l-70 8h-34c19.333 -26.667 29 -58.667 29 -96c0 -52.667 -18 -94.167 -54 -124.5s-86.333 -45.5 -151 -45.5c-7.33301 0 -14.166 0.166992 -20.499 0.5s-12.833 0.833008 -19.5 1.5c-52.667 -8 -79 -27.667 -79 -59c0 -15.333 6 -25.833 18 -31.5
s35.333 -8.5 70 -8.5h116c54.667 0 96 -10.167 124 -30.5s42 -52.5 42 -96.5zM231.997 39.9971c-44.667 0 -77.002 -7.66797 -97.002 -23.001s-30 -35.333 -30 -60c0 -60.667 52 -91 156 -91c56.667 0 99.834 8.5 129.501 25.5s44.5 42.5 44.5 76.5
c0 26.667 -10.167 45.334 -30.5 56.001s-56.166 16 -107.499 16h-65zM146.995 381.996c0 -40 9 -70.333 27 -91s46.667 -31 86 -31s68 10.333 86 31s27 51 27 91s-9 70.333 -27 91s-46.667 31 -86 31s-68 -10.333 -86 -31s-27 -51 -27 -91z" />
    <glyph glyph-name="h" unicode="h" horiz-adv-x="644" 
d="M448 283c0 42.667 -1.16797 74.832 -3.50098 96.499s-6.5 38.5 -12.5 50.5c-16.667 32.667 -46 49 -88 49c-18.667 0 -36.667 -3.33301 -54 -10s-32.666 -15.667 -45.999 -27c-14.667 -13.333 -25.5 -28.666 -32.5 -45.999s-11.167 -39 -12.5 -65v-271l67 -19v-41h-241
v41l77 19v660l-77 19v41h174v-334c20 32 46.5 57.333 79.5 76s68.5 28 106.5 28c26.667 0 50.667 -4.66699 72 -14s38.333 -22.666 51 -39.999c13.333 -18.667 22.833 -44.834 28.5 -78.501s8.5 -79.167 8.5 -136.5v-221l77 -19v-41h-241v41l67 19v223z" />
    <glyph glyph-name="i" unicode="i" horiz-adv-x="312" 
d="M36 499v41h174v-480l77 -19v-41h-251v41l77 19v420zM99 701c0 19.333 5.5 34.666 16.5 45.999s26.167 17 45.5 17s34.666 -5.66699 45.999 -17s17 -26.666 17 -45.999s-5.66699 -34.5 -17 -45.5s-26.666 -16.5 -45.999 -16.5s-34.5 5.5 -45.5 16.5
s-16.5 26.167 -16.5 45.5z" />
    <glyph glyph-name="j" unicode="j" horiz-adv-x="284" 
d="M201 85c0 -49.333 -1.66699 -88.166 -5 -116.499s-9 -51.5 -17 -69.5c-12.667 -28.667 -31 -50.667 -55 -66s-52 -23 -84 -23c-36 0 -65.5 8.83301 -88.5 26.5s-34.5 40.5 -34.5 68.5c0 17.333 4.83301 31.166 14.5 41.499s22.5 15.5 38.5 15.5
c32.667 0 49 -18.333 49 -55c0 -19.333 -5.33301 -34.333 -16 -45c1.33301 -4.66699 5.5 -8.33398 12.5 -11.001s15.833 -4 26.5 -4c23.333 0 39.5 9.33301 48.5 28s13.5 52.334 13.5 101.001v504l-77 19v41h174v-455zM90 701c0 19.333 5.5 34.666 16.5 45.999
s26.167 17 45.5 17s34.666 -5.66699 45.999 -17s17 -26.666 17 -45.999s-5.66699 -34.5 -17 -45.5s-26.666 -16.5 -45.999 -16.5s-34.5 5.5 -45.5 16.5s-16.5 26.167 -16.5 45.5z" />
    <glyph glyph-name="k" unicode="k" horiz-adv-x="596" 
d="M429 60l-154 208l-76 -64v-144l77 -19v-41h-251v41l77 19v660l-77 19v41h174v-529l213 229l-66 19v41h215v-41l-73 -19l-151 -155l199 -267l53 -17v-41h-219v41z" />
    <glyph glyph-name="l" unicode="l" horiz-adv-x="308" 
d="M105 720l-77 19v41h174v-720l77 -19v-41h-251v41l77 19v660z" />
    <glyph glyph-name="m" unicode="m" horiz-adv-x="975" 
d="M113 480l-76.9971 18.9971v41h144l22 -100h4c19.333 34 45.166 60.833 77.499 80.5s66.833 29.5 103.5 29.5c28 0 52.5 -5.16699 73.5 -15.5s36.5 -23.166 46.5 -38.499c10.667 -16.667 19.334 -38.667 26.001 -66c21.333 38 49 67.5 83 88.5s70.333 31.5 109 31.5
c26.667 0 50.667 -5.16699 72 -15.5s37.666 -24.5 48.999 -42.5c6 -9.33301 11 -20.666 15 -33.999s7.33301 -29.833 10 -49.5s4.5 -42.834 5.5 -69.501s1.5 -58 1.5 -94v-185l77 -19v-41h-241v41l67 19v223c0 42.667 -1.16699 74.834 -3.5 96.501s-6.5 38.5 -12.5 50.5
c-16.667 32.667 -44.667 49 -84 49c-17.333 0 -33.833 -3.33301 -49.5 -10s-29.834 -15.667 -42.501 -27c-14.667 -13.333 -25.5 -28.833 -32.5 -46.5s-11.167 -40.5 -12.5 -68.5v-267l67 -19v-41h-231v41l67 19v223c0 42.667 -1.16699 74.834 -3.5 96.501
s-6.5 38.5 -12.5 50.5c-16.667 32.667 -44.667 49 -84 49c-17.333 0 -33.833 -3.33301 -49.5 -10s-29.834 -15.667 -42.501 -27c-14.667 -13.333 -25.5 -28.833 -32.5 -46.5s-11.167 -40.5 -12.5 -68.5v-267l67 -19v-41h-241v41l77 19v420z" />
    <glyph glyph-name="n" unicode="n" horiz-adv-x="655" 
d="M113 480l-77.001 18.999v41h144l22 -100h4c20 34 46.833 60.833 80.5 80.5s70.167 29.5 109.5 29.5c26.667 0 50.667 -4.66699 72 -14s38.333 -22.666 51 -39.999c13.333 -18.667 22.833 -44.834 28.5 -78.501s8.5 -79.167 8.5 -136.5v-221l77 -19v-41h-241v41l67 19v223
c0 42.667 -1.16699 74.834 -3.5 96.501s-6.5 38.5 -12.5 50.5c-16.667 32.667 -46 49 -88 49c-18.667 0 -36.667 -3.33301 -54 -10s-32.666 -15.667 -45.999 -27c-14.667 -13.333 -25.5 -28.833 -32.5 -46.5s-11.167 -40.5 -12.5 -68.5v-267l67 -19v-41h-241v41l77 19v420z
" />
    <glyph glyph-name="o" unicode="o" horiz-adv-x="582" 
d="M536 275c0 -44 -6.5 -85.333 -19.5 -124s-31.167 -70.667 -54.5 -96c-39.333 -43.333 -97.333 -65 -174 -65c-74.667 0 -131.667 21 -171 63c-22.667 24.667 -40.167 55.167 -52.5 91.5s-18.5 75.833 -18.5 118.5c0 44 6.33301 85.667 19 125s31 71.666 55 96.999
c21.333 22.667 46 39.167 74 49.5s60.667 15.5 98 15.5c36.667 0 69.667 -5.16699 99 -15.5s54 -26.166 74 -47.499c23.333 -24.667 41 -55.5 53 -92.5s18 -76.833 18 -119.5zM153 274c0 -80 12.001 -139.667 36.001 -179c11.333 -17.333 24.833 -30.5 40.5 -39.5
s36.167 -13.5 61.5 -13.5c46 0 80.333 15.667 103 47c12 17.333 20.833 41.333 26.5 72s8.5 66 8.5 106c0 79.333 -12 138.666 -36 177.999c-11.333 17.333 -25 30.5 -41 39.5s-36.667 13.5 -62 13.5c-46.667 0 -80.334 -15.333 -101.001 -46
c-24 -37.333 -36 -96.666 -36 -177.999z" />
    <glyph glyph-name="p" unicode="p" horiz-adv-x="619" 
d="M296 -139v-40.999h-271v41l77 19v600l-77 19v41h144l15 -77c21.333 33.333 45.5 56.166 72.5 68.499s57.5 18.5 91.5 18.5s64.833 -5 92.5 -15s50.167 -26 67.5 -48c20 -25.333 35.833 -55.666 47.5 -90.999s17.5 -74 17.5 -116c0 -42.667 -6.5 -82.834 -19.5 -120.501
s-30.5 -69.167 -52.5 -94.5c-37.333 -43.333 -91 -65 -161 -65c-28.667 0 -54.5 5.33301 -77.5 16s-44.167 30 -63.5 58v-194zM198 279.001c0 -79.333 11.666 -137.334 34.999 -174.001c10.667 -17.333 23.667 -30.5 39 -39.5s35.666 -13.5 60.999 -13.5
c45.333 0 79 15.667 101 47c12 16.667 20.667 39.834 26 69.501s8 64.167 8 103.5c0 78 -11.667 135.667 -35 173c-11.333 17.333 -24.666 30.5 -39.999 39.5s-35.666 13.5 -60.999 13.5c-23.333 0 -43.333 -3.83301 -60 -11.5s-29.667 -19.167 -39 -34.5
c-11.333 -18 -20 -41.333 -26 -70s-9 -63 -9 -103z" />
    <glyph glyph-name="q" unicode="q" horiz-adv-x="601" 
d="M421 67c-19.333 -25.333 -40.999 -42.833 -64.999 -52.5s-51 -14.5 -81 -14.5c-34 0 -64.667 5 -92 15s-50 26 -68 48c-21.333 25.333 -38.166 55.666 -50.499 90.999s-18.5 74 -18.5 116c0 42.667 6 82.834 18 120.501s28.667 69.167 50 94.5
c17.333 21.333 39.666 37.5 66.999 48.5s58.666 16.5 93.999 16.5s66.5 -8.16699 93.5 -24.5s51.167 -45.833 72.5 -88.5l30 103h47v-660l77 -19v-41h-271v41l97 19v187zM421.001 271c0 79.333 -11.666 137.334 -34.999 174.001c-10.667 17.333 -23.667 30.5 -39 39.5
s-35.666 13.5 -60.999 13.5c-45.333 0 -79 -15.667 -101 -47c-12 -16.667 -20.667 -39.834 -26 -69.501s-8 -64.167 -8 -103.5c0 -78 11.667 -135.667 35 -173c11.333 -17.333 24.666 -30.5 39.999 -39.5s35.666 -13.5 60.999 -13.5c23.333 0 43.333 3.83301 60 11.5
s29.667 19.167 39 34.5c11.333 18 20 41.333 26 70s9 63 9 103z" />
    <glyph glyph-name="r" unicode="r" horiz-adv-x="458" 
d="M337 482c-6 4 -12.6689 6 -20.002 6c-12.667 0 -26 -7.83301 -40 -23.5s-26.333 -35.5 -37 -59.5c-9.33301 -22.667 -16.666 -47.5 -21.999 -74.5s-8 -54.833 -8 -83.5v-187l108 -19v-41h-282v41l77 19v420l-77 19v41h144l22 -132h4
c15.333 45.333 35.833 80.333 61.5 105s54.5 37 86.5 37c26 0 47.667 -8.16699 65 -24.5s26 -38.166 26 -65.499c0 -20 -5.16699 -35.833 -15.5 -47.5s-24.166 -17.5 -41.499 -17.5s-31 5.5 -41 16.5s-15 25.5 -15 43.5c0 4 0.333008 7.66699 1 11s2 8.66602 4 15.999z" />
    <glyph glyph-name="s" unicode="s" horiz-adv-x="503" 
d="M244 36c38 0 68.667 7.49902 92 22.499s35 36.5 35 64.5c0 16.667 -4.33301 30.667 -13 42s-19.834 21 -33.501 29s-29 14.833 -46 20.5s-33.5 10.834 -49.5 15.501c-20.667 6 -40.834 13 -60.501 21s-37.334 18.167 -53.001 30.5s-28.167 27.333 -37.5 45
s-14 39.167 -14 64.5c0 48 17.5 86.5 52.5 115.5s83.833 43.5 146.5 43.5c53.333 0 95.5 -11.167 126.5 -33.5s46.5 -52.833 46.5 -91.5c0 -21.333 -4.66699 -38 -14 -50s-22.666 -18 -39.999 -18c-15.333 0 -28 4.66699 -38 14s-15 21.333 -15 36
c0 12.667 3.33301 24.167 10 34.5s15.334 17.833 26.001 22.5c-10 14 -22.833 24.167 -38.5 30.5s-35.834 9.5 -60.501 9.5c-80 0 -120 -28.333 -120 -85c0 -15.333 2.66699 -28 8 -38s13.333 -18.667 24 -26s23.834 -13.833 39.501 -19.5s33.834 -11.834 54.501 -18.501
c22.667 -7.33301 45 -15 67 -23s41.833 -18 59.5 -30s32 -27 43 -45s16.5 -40.333 16.5 -67c0 -26 -5.33301 -49 -16 -69s-25.667 -36.833 -45 -50.5s-42.333 -24.167 -69 -31.5s-56 -11 -88 -11c-59.333 0 -106.833 11.833 -142.5 35.5s-53.5 56.167 -53.5 97.5
c0 21.333 4.83301 38.166 14.5 50.499s23.5 18.5 41.5 18.5c16 0 29.5 -4.66699 40.5 -14s16.5 -21.666 16.5 -36.999c0 -12.667 -3.5 -24.667 -10.5 -36s-15.5 -19.666 -25.5 -24.999c8.66699 -13.333 24.167 -24 46.5 -32s47.833 -12 76.5 -12z" />
    <glyph glyph-name="t" unicode="t" horiz-adv-x="341" 
d="M9 526l97 13.999l13 126l84 12v-138h128v-50h-128v-357c0 -22.667 0.333008 -38.167 1 -46.5s2 -15.166 4 -20.499s5.66699 -8.66602 11 -9.99902s14 -2 26 -2h70v-29c-32 -12 -60.167 -20.833 -84.5 -26.5s-43.833 -8.5 -58.5 -8.5c-30 0 -49.333 12.333 -58 37
c-3.33301 8 -5.5 18.167 -6.5 30.5s-1.5 31.166 -1.5 56.499v376h-97v36z" />
    <glyph glyph-name="u" unicode="u" horiz-adv-x="633" 
d="M193 257c0 -21.333 0.331055 -40 0.998047 -56s1.5 -29.667 2.5 -41s2.5 -21 4.5 -29s4.66699 -15 8 -21c15.333 -32.667 43.333 -49 84 -49c18 0 35.333 3.33301 52 10s31.334 15.667 44.001 27c14.667 13.333 25.5 28.833 32.5 46.5s11.167 40.5 12.5 68.5v267l-87 19
v41h184v-480l77 -19v-41l-155 -10l-11 110h-4c-19.333 -34 -45.666 -60.833 -78.999 -80.5s-69 -29.5 -107 -29.5c-25.333 0 -48.5 4.66699 -69.5 14s-37.5 22.666 -49.5 39.999c-13.333 18.667 -22.833 44.834 -28.5 78.501s-8.5 79.167 -8.5 136.5v221l-67 19v41h164v-283
z" />
    <glyph glyph-name="v" unicode="v" horiz-adv-x="593" 
d="M245 -10l-178 490l-56 19v41h224v-41l-66 -19l141 -419h4l141 419l-62 19v41h190v-41l-58 -19l-177 -490h-103z" />
    <glyph glyph-name="w" unicode="w" horiz-adv-x="877" 
d="M271 120l12 -59h5l12 59l117 430h72l121 -430l12 -59h4l12 59l100 360l-65 19v41h190v-41l-54 -19l-149 -490h-103l-119 390l-116 -390h-103l-153 490l-53 19v41h224v-41l-69 -19z" />
    <glyph glyph-name="x" unicode="x" horiz-adv-x="573" 
d="M303 321l117 159l-60 19v41h188v-41l-57 -19l-162 -193l177 -228l55 -18v-41h-219v41l57 19l-129 166l-124 -166l60 -19v-41h-188v41l56 19l170 200l-170 220l-56 19v41h207v-41l-44 -19z" />
    <glyph glyph-name="y" unicode="y" horiz-adv-x="590" 
d="M348 24c-14 -38.667 -26.8281 -71.667 -38.4951 -99s-23.834 -49.5 -36.501 -66.5s-26.834 -29.333 -42.501 -37s-34.5 -11.5 -56.5 -11.5c-16 0 -30.833 2.16699 -44.5 6.5s-25.667 10.5 -36 18.5s-18.5 17.333 -24.5 28s-9 22.334 -9 35.001
c0 18.667 5.33301 34.167 16 46.5s24.667 18.5 42 18.5c15.333 0 27.5 -4.16699 36.5 -12.5s13.5 -19.833 13.5 -34.5c0 -9.33301 -1.83301 -18.333 -5.5 -27s-8.5 -16.334 -14.5 -23.001c1.33301 -7.33301 5.16602 -12 11.499 -14s12.166 -3 17.499 -3
c6.66699 0 13.167 1 19.5 3s12.666 6.83301 18.999 14.5s13 18.5 20 32.5s14.5 33 22.5 57l12 37l-207 487l-60 19v41h224l8 -41l-71 -19l149 -392h4l126 392l-58 19v41h190v-41l-61 -19z" />
    <glyph glyph-name="z" unicode="z" horiz-adv-x="538" 
d="M430 192h57v-192h-443v56l328 428h-234l-24 -131h-57v187h426v-56l-328 -428h255z" />
    <glyph glyph-name="braceleft" unicode="{" horiz-adv-x="404" 
d="M6 386l33.998 0.00390625c36.667 0 63.334 8.83301 80.001 26.5s25 46.167 25 85.5c0 9.33301 -0.333008 21.666 -1 36.999s-1.5 31.166 -2.5 47.499s-1.83301 32.166 -2.5 47.499s-1 27.666 -1 36.999c0 60.667 19.333 106.167 58 136.5s100 47.5 184 51.5v-60
c-54 -3.33301 -92.167 -13.833 -114.5 -31.5s-33.5 -45.834 -33.5 -84.501c0 -6 0.166992 -15.667 0.5 -29s0.833008 -27.5 1.5 -42.5s1.16699 -29.833 1.5 -44.5s0.5 -26 0.5 -34c0 -46 -8.5 -82 -25.5 -108s-44.833 -45.667 -83.5 -59v-5
c38.667 -9.33301 66.5 -27.166 83.5 -53.499s25.5 -65.833 25.5 -118.5c0 -9.33301 -0.166992 -21.666 -0.5 -36.999s-0.833008 -31 -1.5 -47s-1.16699 -31 -1.5 -45s-0.5 -24 -0.5 -30c0 -39.333 11.333 -67.833 34 -85.5s60.667 -27.834 114 -30.501v-60
c-84 4 -145.333 21 -184 51s-58 76 -58 138c0 9.33301 0.333008 22 1 38s1.5 32.5 2.5 49.5s1.83301 33.5 2.5 49.5s1 28.667 1 38c0 40 -8.16699 68.833 -24.5 86.5s-43.166 26.5 -80.499 26.5h-34v59z" />
    <glyph glyph-name="bar" unicode="|" horiz-adv-x="245" 
d="M94 770h57v-940h-57v940z" />
    <glyph glyph-name="braceright" unicode="}" horiz-adv-x="404" 
d="M398 327l-34.002 -0.00488281c-37.333 0 -64.166 -8.83301 -80.499 -26.5s-24.5 -46.5 -24.5 -86.5c0 -9.33301 0.333008 -22 1 -38s1.5 -32.5 2.5 -49.5s1.83301 -33.5 2.5 -49.5s1 -28.667 1 -38c0 -62 -19.333 -108 -58 -138s-100 -47 -184 -51v60
c53.333 2.66699 91.333 12.834 114 30.501s34 46.167 34 85.5c0 6 -0.166992 16 -0.5 30s-0.833008 29 -1.5 45s-1.16699 31.667 -1.5 47s-0.5 27.666 -0.5 36.999c0 26.667 2 49.667 6 69s10.333 36 19 50s20 25.167 34 33.5s30.667 14.833 50 19.5v5
c-38.667 13.333 -66.5 33 -83.5 59s-25.5 62 -25.5 108c0 8 0.166992 19.333 0.5 34s0.833008 29.5 1.5 44.5s1.16699 29.167 1.5 42.5s0.5 23 0.5 29c0 38.667 -11.167 66.834 -33.5 84.501s-60.5 28.167 -114.5 31.5v60c84 -4 145.333 -21.167 184 -51.5
s58 -75.833 58 -136.5c0 -9.33301 -0.333008 -21.666 -1 -36.999s-1.5 -31.166 -2.5 -47.499s-1.83301 -32.166 -2.5 -47.499s-1 -27.666 -1 -36.999c0 -39.333 8.33301 -67.833 25 -85.5s43.334 -26.5 80.001 -26.5h34v-59z" />
    <glyph glyph-name="asciitilde" unicode="~" horiz-adv-x="485" 
d="M76 304c10 76.667 42.3311 115 96.998 115c16.667 0 31.334 -2.83301 44.001 -8.5s24.167 -12 34.5 -19s20.5 -13.333 30.5 -19s21 -8.5 33 -8.5c28.667 0 46.667 16.667 54 50h45c-10.667 -80.667 -43 -121 -97 -121c-16.667 0 -31.167 2.83301 -43.5 8.5
s-23.833 12 -34.5 19s-21 13.5 -31 19.5s-21 9 -33 9c-14 0 -25.667 -4 -35 -12s-15.666 -19 -18.999 -33h-45z" />
    <glyph glyph-name="uni00A0" unicode="&#xa0;" horiz-adv-x="254" 
 />
    <glyph glyph-name="exclamdown" unicode="&#xa1;" horiz-adv-x="265" 
d="M160 335c0 -26 0.666016 -53.668 1.99902 -83.001s2.83301 -57.666 4.5 -84.999s3.33398 -52.333 5.00098 -75s3.16699 -40 4.5 -52c2 -24.667 4.66699 -49 8 -73s5 -50 5 -78c0 -21.333 -4 -39.833 -12 -55.5s-22.333 -23.5 -43 -23.5c-20 0 -34.833 7.5 -44.5 22.5
s-14.5 34.167 -14.5 57.5c0 28 1.66699 53.833 5 77.5s6 47.834 8 72.501c0.666992 12 2 29.333 4 52s3.83301 47.667 5.5 75s3.16699 55.666 4.5 84.999s2 57 2 83h56zM193.999 487.999c0 -19.333 -5.49902 -34.666 -16.499 -45.999s-26.167 -17 -45.5 -17
s-34.5 5.66699 -45.5 17s-16.5 26.666 -16.5 45.999s5.66699 34.5 17 45.5s26.666 16.5 45.999 16.5s34.333 -5.33301 45 -16s16 -26 16 -46z" />
    <glyph glyph-name="cent" unicode="&#xa2;" horiz-adv-x="551" 
d="M266 -9c-41.333 3.33301 -77.1699 14.165 -107.503 32.498s-54.166 44.5 -71.499 78.5c-11.333 21.333 -20.166 45.833 -26.499 73.5s-9.5 57.167 -9.5 88.5c0 38.667 4.83301 74.334 14.5 107.001s23.834 61.334 42.501 86.001s41.334 44.667 68.001 60
s56.667 25.333 90 30v105h47v-102c28.667 0 55 -3.83301 79 -11.5s44.5 -18.334 61.5 -32.001s30.167 -30.167 39.5 -49.5s14 -40.666 14 -63.999c0 -50.667 -20.667 -76 -62 -76c-19.333 0 -34.333 5.33301 -45 16s-16 25 -16 43c0 16.667 4.5 31 13.5 43
s21.167 20.333 36.5 25c-21.333 36.667 -61.666 55 -120.999 55v-442c30.667 0 60 6.66699 88 20s52 32.333 72 57l30 -24c-24.667 -38 -52.334 -66.5 -83.001 -85.5s-66.334 -30.167 -107.001 -33.5v-99h-47v99zM181.996 133.999c17.333 -36 45.333 -59.668 84 -71.001v430
c-38.667 -9.33301 -66.667 -31.333 -84 -66s-26 -84 -26 -148c0 -63.333 8.66699 -111.666 26 -144.999z" />
    <glyph glyph-name="sterling" unicode="&#xa3;" horiz-adv-x="606" 
d="M75 389l123.999 0.00878906c-14 29.333 -24.167 55.166 -30.5 77.499s-9.5 44.166 -9.5 65.499c0 52.667 18 94 54 124s85.333 45 148 45c54 0 96.667 -11.167 128 -33.5s47 -52.833 47 -91.5c0 -21.333 -4.66699 -38 -14 -50s-22.666 -18 -39.999 -18
c-15.333 0 -28 4.66699 -38 14s-15 21.333 -15 36c0 11.333 3.33301 22.333 10 33s15.334 18.667 26.001 24c-10.667 14 -23.834 24.167 -39.501 30.5s-36.167 9.5 -61.5 9.5c-40.667 0 -70.5 -8 -89.5 -24s-28.5 -41.333 -28.5 -76c0 -21.333 3.33301 -45.333 10 -72
s17.334 -58 32.001 -94h173v-63h-154c3.33301 -20 5.66602 -36 6.99902 -48s2 -23 2 -33c0 -36.667 -7.33301 -76.334 -22 -119.001c18 -10 33.833 -18.167 47.5 -24.5s26 -11.5 37 -15.5s21 -6.83301 30 -8.5s17.833 -2.5 26.5 -2.5c23.333 0 41.5 5.33301 54.5 16
s22.167 28.667 27.5 54h45c-7.33301 -54.667 -20.5 -94.167 -39.5 -118.5s-45.833 -36.5 -80.5 -36.5c-10 0 -20 1.16699 -30 3.5s-21.5 6.66602 -34.5 12.999s-28.333 15.166 -46 26.499s-39.167 25.666 -64.5 42.999c-20.667 -30 -41.834 -51.833 -63.501 -65.5
s-45.167 -20.5 -70.5 -20.5c-30 0 -53.833 8 -71.5 24s-26.5 37.667 -26.5 65c0 29.333 9.83301 52.666 29.5 69.999s45.834 26 78.501 26c14 0 30 -1.5 48 -4.5s34.333 -7.16699 49 -12.5c2 8 3.5 17.833 4.5 29.5s1.5 24.167 1.5 37.5c0 19.333 -1.33301 36.666 -4 51.999
s-7.66699 31.666 -15 48.999h-152v63zM137.999 41.0088c34 0 59.666 22.001 76.999 66.001c-11.333 5.33301 -24 9.66602 -38 12.999s-26 5 -36 5c-15.333 0 -27.166 -4 -35.499 -12s-12.5 -18.667 -12.5 -32c0 -26.667 15 -40 45 -40z" />
    <glyph glyph-name="yen" unicode="&#xa5;" horiz-adv-x="744" 
d="M157 341h129l-173 315l-83 21v43h276v-43l-84 -21l169 -315h5l172 315l-81 21v43h227v-43l-82 -21l-172 -315h125v-58h-157v-79h157v-59h-157v-81l94 -21v-43h-288v43l94 21v81h-171v59h171v62l-10 17h-161v58z" />
    <glyph glyph-name="brokenbar" unicode="&#xa6;" horiz-adv-x="249" 
d="M96 248h57v-418h-57v418zM96 770h57v-402h-57v402z" />
    <glyph glyph-name="section" unicode="&#xa7;" horiz-adv-x="530" 
d="M482 250c0 -34.667 -8.3291 -65.1689 -24.9961 -91.502s-40 -47.166 -70 -62.499c19.333 -17.333 33.333 -35.666 42 -54.999s13 -41.333 13 -66c0 -52 -17.333 -92.5 -52 -121.5s-82.667 -43.5 -144 -43.5c-54.667 0 -97.667 11.167 -129 33.5s-47 52.833 -47 91.5
c0 21.333 4.66699 38 14 50s22.666 18 39.999 18c15.333 0 28 -4.66699 38 -14s15 -21.333 15 -36c0 -12.667 -3.33301 -24.167 -10 -34.5s-15.334 -17.833 -26.001 -22.5c10 -14 22.833 -24.167 38.5 -30.5s36.5 -9.5 62.5 -9.5c40.667 0 70.5 7.5 89.5 22.5
s28.5 38.5 28.5 70.5c0 17.333 -2.5 32 -7.5 44s-12.833 22.833 -23.5 32.5s-23.834 18.834 -39.501 27.501s-34.167 18.334 -55.5 29.001c-23.333 11.333 -46 23.333 -68 36s-41.833 27.167 -59.5 43.5s-31.834 34.833 -42.501 55.5s-16 45 -16 73
c0 34.667 8.33301 65.167 25 91.5s39.667 47.166 69 62.499c-19.333 16.667 -33.166 34.667 -41.499 54s-12.5 41.333 -12.5 66c0 52.667 17.167 93.5 51.5 122.5s82.5 43.5 144.5 43.5c54.667 0 97.667 -11.167 129 -33.5s47 -52.833 47 -91.5
c0 -21.333 -4.66699 -38 -14 -50s-22.666 -18 -39.999 -18c-15.333 0 -28 4.66699 -38 14s-15 21.333 -15 36c0 12 3.33301 23.167 10 33.5s15.334 18.166 26.001 23.499c-10.667 14 -23.834 24.167 -39.501 30.5s-36.5 9.5 -62.5 9.5c-40 0 -69.5 -7.33301 -88.5 -22
s-28.5 -38 -28.5 -70c0 -18 2.83301 -33.167 8.5 -45.5s14 -23.5 25 -33.5s24.167 -19.167 39.5 -27.5s33 -17.5 53 -27.5c23.333 -11.333 46.166 -23.333 68.499 -36s42.166 -27.167 59.499 -43.5s31.333 -34.833 42 -55.5s16 -45 16 -73zM253.004 376.998
c-7.33301 3.33301 -17.332 8.33301 -29.999 15s-27.334 15 -44.001 25c-13.333 -8 -24 -21.5 -32 -40.5s-12 -38.5 -12 -58.5c0 -32.667 11.333 -60.667 34 -84s58.667 -47.333 108 -72l28 -14c12 -6 28.667 -15 50 -27c13.333 10 23.333 24.333 30 43s10 37.667 10 57
c0 16.667 -2.66699 31.834 -8 45.501s-13.833 26.667 -25.5 39s-26.5 24.166 -44.5 35.499s-39.333 23.333 -64 36z" />
    <glyph glyph-name="dieresis" unicode="&#xa8;" horiz-adv-x="407" 
d="M30 705c0 18.667 5.16699 33.167 15.5 43.5s24.5 15.5 42.5 15.5s32.333 -5.33301 43 -16s16 -25 16 -43s-5.16699 -32.167 -15.5 -42.5s-24.833 -15.5 -43.5 -15.5c-18 0 -32.167 5.16699 -42.5 15.5s-15.5 24.5 -15.5 42.5zM260 705c0 18.667 5.16699 33.167 15.5 43.5
s24.5 15.5 42.5 15.5s32.333 -5.33301 43 -16s16 -25 16 -43s-5.16699 -32.167 -15.5 -42.5s-24.833 -15.5 -43.5 -15.5c-18 0 -32.167 5.16699 -42.5 15.5s-15.5 24.5 -15.5 42.5z" />
    <glyph glyph-name="copyright" unicode="&#xa9;" horiz-adv-x="842" 
d="M422 -10c-52 0 -100.5 9.5 -145.5 28.5s-84.167 45.167 -117.5 78.5s-59.5 72.666 -78.5 117.999s-28.5 94 -28.5 146s9.5 100.5 28.5 145.5s45 84 78 117s72.167 59 117.5 78s94 28.5 146 28.5s100.333 -9.5 145 -28.5s83.5 -45 116.5 -78s59 -72 78 -117
s28.5 -93.5 28.5 -145.5s-9.5 -100.667 -28.5 -146s-45 -84.666 -78 -117.999s-71.833 -59.5 -116.5 -78.5s-93 -28.5 -145 -28.5zM422 30c46 0 88.667 8.5 128 25.5s73.5 40.167 102.5 69.5s51.667 64.166 68 104.499s24.5 84.166 24.5 131.499
c0 46.667 -8.16699 90 -24.5 130s-39 74.833 -68 104.5s-63.167 52.834 -102.5 69.501s-82 25 -128 25s-88.667 -8.33301 -128 -25s-73.5 -39.667 -102.5 -69s-51.667 -64.166 -68 -104.499s-24.5 -83.833 -24.5 -130.5c0 -47.333 8.16699 -91.166 24.5 -131.499
s39 -75.333 68 -105s63.167 -52.834 102.5 -69.501s82 -25 128 -25zM419 525c-34.667 0 -59.667 -10.665 -75 -31.998c-11.333 -14 -19.833 -31.833 -25.5 -53.5s-8.5 -45.167 -8.5 -70.5c0 -23.333 2.66699 -45.333 8 -66s12.666 -38.334 21.999 -53.001
c18 -28.667 46.667 -43 86 -43c62 0 98.667 30 110 90h29c-16 -85.333 -64.333 -128 -145 -128c-48 0 -86.333 14 -115 42c-19.333 18 -34 39.833 -44 65.5s-15 53.5 -15 83.5c0 33.333 6.33301 64.833 19 94.5s30.334 53.5 53.001 71.5c26.667 22 62 33 106 33
c21.333 0 38.833 -2.83301 52.5 -8.5s27.5 -15.834 41.5 -30.501l10 33h29v-121h-32c-10 62 -45.333 93 -106 93z" />
    <glyph glyph-name="ordfeminine" unicode="&#xaa;" horiz-adv-x="371" 
d="M54 492c0 28.667 13.1689 51.1699 39.502 67.5029s69.5 29.166 129.5 38.499c-2 20 -4.16699 35.667 -6.5 47s-5.5 20.666 -9.5 27.999c-10.667 18.667 -26 28 -46 28c-10.667 0 -20.167 -1.83301 -28.5 -5.5s-13.833 -8.83398 -16.5 -15.501
c5.33301 -3.33301 9.16602 -7.33301 11.499 -12s3.5 -9 3.5 -13c0 -9.33301 -3.5 -16.666 -10.5 -21.999s-15.833 -8 -26.5 -8c-8.66699 0 -15.834 2.83301 -21.501 8.5s-8.5 13.834 -8.5 24.501c0 11.333 3.33301 21.5 10 30.5s15.334 16.5 26.001 22.5
s22.5 10.667 35.5 14s26.167 5 39.5 5c31.333 0 56 -9 74 -27c22.667 -22.667 34 -63 34 -121v-80c0 -18 1.16699 -30.5 3.5 -37.5s7.5 -10.5 15.5 -10.5h25v-16c-25.333 -10.667 -46 -16 -62 -16c-13.333 0 -22 4.16699 -26 12.5s-6 24.166 -6 47.499h-4
c-10.667 -18.667 -24.834 -33.334 -42.501 -44.001s-36.834 -16 -57.501 -16c-23.333 0 -41.666 6.16699 -54.999 18.5s-20 29.5 -20 51.5zM157.002 459.003c8 0 16.666 2.16797 25.999 6.50098s17.333 10.5 24 18.5c11.333 13.333 17 32.333 17 57
c0 6 -0.166992 12 -0.5 18s-0.833008 11.667 -1.5 17c-20 -4 -36.833 -8.33301 -50.5 -13s-24.667 -9.83398 -33 -15.501s-14.166 -12 -17.499 -19s-5 -15.5 -5 -25.5c0 -29.333 13.667 -44 41 -44z" />
    <glyph glyph-name="guillemotleft" unicode="&#xab;" horiz-adv-x="535" 
d="M274 54l-34 -33l-199 215v34l199 215l33 -27l-132 -203zM485 54l-34 -33l-199 215v34l199 215l33 -27l-132 -203z" />
    <glyph glyph-name="logicalnot" unicode="&#xac;" horiz-adv-x="576" 
d="M74 398h424v-209h-60v139h-364v70z" />
    <glyph glyph-name="registered" unicode="&#xae;" horiz-adv-x="628" 
d="M314 230c-35.333 0 -68.333 6.33301 -99 19s-57.167 30.334 -79.5 53.001s-39.833 49.167 -52.5 79.5s-19 63.5 -19 99.5s6.33301 69.167 19 99.5s30.167 56.666 52.5 78.999s48.833 39.666 79.5 51.999s63.667 18.5 99 18.5s68.333 -6.16699 99 -18.5
s57.167 -29.666 79.5 -51.999s39.833 -48.666 52.5 -78.999s19 -63.5 19 -99.5s-6.33301 -69.167 -19 -99.5s-30.167 -56.833 -52.5 -79.5s-48.833 -40.334 -79.5 -53.001s-63.667 -19 -99 -19zM314 267c65.333 0 116.333 19.332 153 57.999s55 90.667 55 156
c0 64.667 -18.333 116.167 -55 154.5s-87.667 57.5 -153 57.5c-32 0 -60.833 -5 -86.5 -15s-47.5 -24.167 -65.5 -42.5s-31.833 -40.666 -41.5 -66.999s-14.5 -55.5 -14.5 -87.5c0 -32.667 4.83301 -62.167 14.5 -88.5s23.5 -48.833 41.5 -67.5s39.833 -33 65.5 -43
s54.5 -15 86.5 -15zM386 491.999c-4.66699 -3.33301 -9.83203 -6.16699 -15.499 -8.5s-12.5 -4.16602 -20.5 -5.49902l14 -20l47 -80l32 -7v-15h-79v15l-51 100h-38v-92l43 -8v-15h-114v15l30 8v211l-30 8v15h128c25.333 0 45.166 -6.33301 59.499 -19
s21.5 -28.667 21.5 -48c0 -10 -2.5 -19.833 -7.5 -29.5s-11.5 -17.834 -19.5 -24.501zM321.002 496.998c13.333 0 24.5 4.16699 33.5 12.5s13.5 19.833 13.5 34.5c0 13.333 -3.83301 23.833 -11.5 31.5s-20.167 11.5 -37.5 11.5h-44v-90h46z" />
    <glyph glyph-name="macron" unicode="&#xaf;" horiz-adv-x="329" 
d="M25 730h279v-65h-279v65z" />
    <glyph glyph-name="degree" unicode="&#xb0;" horiz-adv-x="361" 
d="M181 458c-40 0 -72.333 12.502 -97 37.502s-37 57.5 -37 97.5c0 19.333 3.33301 37.333 10 54s16 31.167 28 43.5s26.167 22 42.5 29s34.166 10.5 53.499 10.5c20 0 38.167 -3.33301 54.5 -10s30.333 -15.834 42 -27.501s20.834 -25.834 27.501 -42.501s10 -35 10 -55
c0 -19.333 -3.5 -37.333 -10.5 -54s-16.5 -31.167 -28.5 -43.5s-26.167 -22 -42.5 -29s-33.833 -10.5 -52.5 -10.5zM183 494.002c24.667 0 44.5 8.99902 59.5 26.999s22.5 42 22.5 72s-8 54.167 -24 72.5s-36.667 27.5 -62 27.5c-24 0 -43.667 -9.16699 -59 -27.5
s-23 -42.166 -23 -71.499s8 -53.333 24 -72s36.667 -28 62 -28z" />
    <glyph glyph-name="plusminus" unicode="&#xb1;" horiz-adv-x="522" 
d="M72 425h160v155h58v-155h160v-58h-160v-155h-58v155h-160v58zM72 125h378v-58h-378v58z" />
    <glyph glyph-name="twosuperior" unicode="&#xb2;" horiz-adv-x="318" 
d="M226 449l11 52.0029h28v-100h-217v30c0 15.333 4 29.5 12 42.5s17.833 25.333 29.5 37s24.5 22.834 38.5 33.501s26.833 21.667 38.5 33s21.5 23.166 29.5 35.499s12 26.166 12 41.499c0 29.333 -20.333 44 -61 44c-36.667 0 -58 -12 -64 -36c20 0 30 -9 30 -27
c0 -18.667 -9.66699 -28 -29 -28c-20.667 0 -31 12.333 -31 37c0 26 9.33301 46.833 28 62.5s43.667 23.5 75 23.5c32 0 57.5 -7.83301 76.5 -23.5s28.5 -36.834 28.5 -63.501c0 -18 -4 -33.833 -12 -47.5s-18.167 -26 -30.5 -37s-25.5 -20.833 -39.5 -29.5
s-27.167 -17.167 -39.5 -25.5s-22.5 -16.833 -30.5 -25.5s-12 -18.334 -12 -29.001h129z" />
    <glyph glyph-name="threesuperior" unicode="&#xb3;" horiz-adv-x="316" 
d="M258 646c0 -20 -5.99902 -36.498 -17.999 -49.498s-28.667 -21.167 -50 -24.5v-4c48.667 -9.33301 73 -35 73 -77c0 -28 -10.167 -50.667 -30.5 -68s-47.5 -26 -81.5 -26c-31.333 0 -56.333 7.66699 -75 23s-28 35.666 -28 60.999c0 26 10.333 39 31 39
c18.667 0 28 -9.33301 28 -28c0 -18 -8.33301 -27 -25 -27c5.33301 -24 25.666 -36 60.999 -36c42 0 63 18.333 63 55c0 21.333 -6.83301 38.333 -20.5 51s-32.5 19 -56.5 19v30c22.667 0 41 6.16699 55 18.5s21 28.5 21 48.5c0 32.667 -19.667 49 -59 49
c-17.333 0 -31.5 -3 -42.5 -9s-17.5 -14 -19.5 -24c9.33301 0 16.666 -2.33301 21.999 -7s8 -11.334 8 -20.001s-2.66699 -15.5 -8 -20.5s-12.333 -7.5 -21 -7.5c-22 0 -33 13.333 -33 40c0 23.333 9.33301 42.166 28 56.499s43.334 21.5 74.001 21.5
c31.333 0 56.5 -7.66699 75.5 -23s28.5 -35.666 28.5 -60.999z" />
    <glyph glyph-name="acute" unicode="&#xb4;" horiz-adv-x="259" 
d="M89 715c19.333 30 34.833 50.832 46.5 62.499s24.5 17.5 38.5 17.5s25 -2.83301 33 -8.5s12 -14.5 12 -26.5c0 -10 -6.66699 -22.167 -20 -36.5s-36 -33.166 -68 -56.499l-38 -28h-53z" />
    <glyph glyph-name="mu" unicode="&#xb5;" horiz-adv-x="668" 
d="M113 480l-67.001 19v41h164v-283c0 -21.333 0.333008 -40 1 -56s1.5 -29.667 2.5 -41s2.5 -21 4.5 -29s4.66699 -15 8 -21c15.333 -32.667 43.333 -49 84 -49c17.333 0 34.333 3.33301 51 10s31.667 15.667 45 27c14 13.333 24.5 28.833 31.5 46.5s11.5 40.5 13.5 68.5
v267l-87 19v41h184v-480l77 -19v-41l-155 -10l-11 110h-4c-21.333 -35.333 -46.166 -62.5 -74.499 -81.5s-57.833 -28.5 -88.5 -28.5c-48 0 -77.333 23 -88 69h-4l10 -238h-97v659z" />
    <glyph glyph-name="paragraph" unicode="&#xb6;" horiz-adv-x="678" 
d="M484 606h-69.999v-702h-70v299h-66c-81.333 0 -142.833 19.333 -184.5 58s-62.5 95.667 -62.5 171c0 76.667 21.167 135.5 63.5 176.5s103.166 61.5 182.499 61.5h361v-43l-84 -21v-702h-70v702z" />
    <glyph glyph-name="periodcentered" unicode="&#xb7;" horiz-adv-x="260" 
d="M67 298c0 20 5.66797 35.832 17.001 47.499s26.666 17.5 45.999 17.5s34.833 -6 46.5 -18s17.5 -27.667 17.5 -47s-5.83301 -34.666 -17.5 -45.999s-27.167 -17 -46.5 -17c-20 0 -35.5 5.5 -46.5 16.5s-16.5 26.5 -16.5 46.5z" />
    <glyph glyph-name="cedilla" unicode="&#xb8;" horiz-adv-x="254" 
d="M116 -210c-35.333 0 -65.667 9.33105 -91 27.998l27 37c19.333 -13.333 39 -20 59 -20c14 0 25.333 3.33301 34 10s13 15.334 13 26.001c0 20 -18 30 -54 30c-14 0 -28 -2 -42 -6l-13 22l77 100h44l-46 -76l1 -3c37.333 0 64 -5.33301 80 -16s24 -26.667 24 -48
c0 -27.333 -11 -48.166 -33 -62.499s-48.667 -21.5 -80 -21.5z" />
    <glyph glyph-name="onesuperior" unicode="&#xb9;" horiz-adv-x="297" 
d="M128 669l-59.999 0.000976562v31c5.33301 0 11.666 0.5 18.999 1.5s14.5 2.33301 21.5 4s13.5 3.66699 19.5 6s10.333 5.16602 13 8.49902h39v-293l48 -9v-26h-160v26l60 9v242z" />
    <glyph glyph-name="ordmasculine" unicode="&#xba;" horiz-adv-x="369" 
d="M320 579c0 -23.333 -3.50098 -45.835 -10.501 -67.502s-17.167 -39.5 -30.5 -53.5c-22 -24 -54 -36 -96 -36c-41.333 0 -72.666 11.667 -93.999 35c-12.667 13.333 -22.334 30 -29.001 50s-10 41.667 -10 65c0 24 3.5 46.833 10.5 68.5s17.167 39.5 30.5 53.5
c22 24 53.667 36 95 36s73 -11.667 95 -35c12.667 -13.333 22.334 -30.166 29.001 -50.499s10 -42.166 10 -65.499zM113.999 577.998c0 -39.333 6.66699 -70.333 20 -93c10.667 -19.333 27.667 -29 51 -29c22 0 39.333 8.33301 52 25s19 47.667 19 93
c0 39.333 -6.66699 70.333 -20 93c-11.333 19.333 -28.666 29 -51.999 29c-22.667 0 -39.334 -8.33301 -50.001 -25c-13.333 -21.333 -20 -52.333 -20 -93z" />
    <glyph glyph-name="guillemotright" unicode="&#xbb;" horiz-adv-x="535" 
d="M394 255l-132 203l33 27l199 -215v-34l-199 -215l-34 33zM183 255l-132 203l33 27l199 -215v-34l-199 -215l-34 33z" />
    <glyph glyph-name="onequarter" unicode="&#xbc;" horiz-adv-x="611" 
d="M478 730h54l-386 -740h-54zM108 669l-59.999 0.000976562v31c5.33301 0 11.666 0.5 18.999 1.5s14.5 2.33301 21.5 4s13.5 3.66699 19.5 6s10.333 5.16602 13 8.49902h39v-293l48 -9v-26h-160v26l60 9v242zM475.001 92.001h-131l-5 31l136 205h52v-203h49l-4 -33h-45v-58
l35 -9v-25h-137v25l50 9v58zM379.001 125.001h96v147z" />
    <glyph glyph-name="onehalf" unicode="&#xbd;" horiz-adv-x="641" 
d="M478 730h54l-386 -740h-54zM108 669l-59.999 0.000976562v31c5.33301 0 11.666 0.5 18.999 1.5s14.5 2.33301 21.5 4s13.5 3.66699 19.5 6s10.333 5.16602 13 8.49902h39v-293l48 -9v-26h-160v26l60 9v242zM557.001 48.001l11 52.0029h28v-100h-217v30
c0 15.333 4 29.5 12 42.5s17.833 25.333 29.5 37s24.5 22.834 38.5 33.501s26.833 21.667 38.5 33s21.5 23.166 29.5 35.499s12 26.166 12 41.499c0 29.333 -20.333 44 -61 44c-36.667 0 -58 -12 -64 -36c20 0 30 -9 30 -27c0 -18.667 -9.66699 -28 -29 -28
c-20.667 0 -31 12.333 -31 37c0 26 9.33301 46.833 28 62.5s43.667 23.5 75 23.5c32 0 57.5 -7.83301 76.5 -23.5s28.5 -36.834 28.5 -63.501c0 -18 -4 -33.833 -12 -47.5s-18.167 -26 -30.5 -37s-25.5 -20.833 -39.5 -29.5s-27.167 -17.167 -39.5 -25.5
s-22.5 -16.833 -30.5 -25.5s-12 -18.334 -12 -29.001h129z" />
    <glyph glyph-name="threequarters" unicode="&#xbe;" horiz-adv-x="623" 
d="M490 730h54l-386 -740h-54zM487 92h-131l-5 31l136 205h52v-203h49l-4 -33h-45v-58l35 -9v-25h-137v25l50 9v58zM391 125h96v147zM252 646c0 -20 -5.99902 -36.498 -17.999 -49.498s-28.667 -21.167 -50 -24.5v-4c48.667 -9.33301 73 -35 73 -77
c0 -28 -10.167 -50.667 -30.5 -68s-47.5 -26 -81.5 -26c-31.333 0 -56.333 7.66699 -75 23s-28 35.666 -28 60.999c0 26 10.333 39 31 39c18.667 0 28 -9.33301 28 -28c0 -18 -8.33301 -27 -25 -27c5.33301 -24 25.666 -36 60.999 -36c42 0 63 18.333 63 55
c0 21.333 -6.83301 38.333 -20.5 51s-32.5 19 -56.5 19v30c22.667 0 41 6.16699 55 18.5s21 28.5 21 48.5c0 32.667 -19.667 49 -59 49c-17.333 0 -31.5 -3 -42.5 -9s-17.5 -14 -19.5 -24c9.33301 0 16.666 -2.33301 21.999 -7s8 -11.334 8 -20.001s-2.66699 -15.5 -8 -20.5
s-12.333 -7.5 -21 -7.5c-22 0 -33 13.333 -33 40c0 23.333 9.33301 42.166 28 56.499s43.334 21.5 74.001 21.5c31.333 0 56.5 -7.66699 75.5 -23s28.5 -35.666 28.5 -60.999z" />
    <glyph glyph-name="questiondown" unicode="&#xbf;" horiz-adv-x="476" 
d="M297 336c0 -20 -1.66504 -38.333 -4.99805 -55s-8.83301 -33 -16.5 -49s-18.167 -32.167 -31.5 -48.5s-30 -34.5 -50 -54.5c-23.333 -23.333 -40 -45.666 -50 -66.999s-15 -45.333 -15 -72c0 -40 10 -70.833 30 -92.5s49 -32.5 87 -32.5
c13.333 0 26.166 1.33301 38.499 4s23.333 6.16699 33 10.5s17.334 9.5 23.001 15.5s8.5 12.333 8.5 19c-13.333 7.33301 -23.833 17.5 -31.5 30.5s-11.5 26.833 -11.5 41.5c0 18.667 6.16699 34 18.5 46s28.166 18 47.499 18c21.333 0 38.833 -8.16699 52.5 -24.5
s20.5 -37.166 20.5 -62.499c0 -21.333 -5.33301 -41.333 -16 -60s-25.334 -34.834 -44.001 -48.501s-40.667 -24.5 -66 -32.5s-52.666 -12 -81.999 -12c-30.667 0 -58.834 4.33301 -84.501 13s-47.667 20.667 -66 36s-32.666 33.666 -42.999 54.999
s-15.5 44.666 -15.5 69.999c0 30 7.16699 58 21.5 84s38.833 54.667 73.5 86c23.333 21.333 42.666 40.166 57.999 56.499s27.5 31.333 36.5 45s15.167 26.834 18.5 39.501s5 26.334 5 41.001h56zM207.002 489c0 19.333 5.33398 34.5 16.001 45.5s25.667 16.5 45 16.5
s34.666 -5.5 45.999 -16.5s17 -26.167 17 -45.5s-5.5 -34.666 -16.5 -45.999s-26.167 -17 -45.5 -17s-34.5 5.66699 -45.5 17s-16.5 26.666 -16.5 45.999z" />
    <glyph glyph-name="Agrave" unicode="&#xc0;" horiz-adv-x="721" 
d="M473 242h-268l-61 -178l83 -21v-43h-234v43l82 21l240 666h93l237 -666l80 -21v-43h-275v43l82 21zM225 300h229l-108 341h-4zM408 770h-53.001l-47 29c-25.333 15.333 -43.833 27.5 -55.5 36.5s-17.5 18.833 -17.5 29.5c0 20 12.333 30 37 30
c12.667 0 24.834 -3.5 36.501 -10.5s24.5 -19.5 38.5 -37.5z" />
    <glyph glyph-name="Aacute" unicode="&#xc1;" horiz-adv-x="721" 
d="M473 242h-268l-61 -178l83 -21v-43h-234v43l82 21l240 666h93l237 -666l80 -21v-43h-275v43l82 21zM225 300h229l-108 341h-4zM396 847c14 18 26.832 30.5 38.499 37.5s23.834 10.5 36.501 10.5c24.667 0 37 -10 37 -30c0 -10.667 -5.83301 -20.5 -17.5 -29.5
s-30.167 -21.167 -55.5 -36.5l-47 -29h-53z" />
    <glyph glyph-name="Acircumflex" unicode="&#xc2;" horiz-adv-x="721" 
d="M473 242h-268l-61 -178l83 -21v-43h-234v43l82 21l240 666h93l237 -666l80 -21v-43h-275v43l82 21zM225 300h229l-108 341h-4zM528 769h-53l-113 61l-113 -61h-53l118 121h95z" />
    <glyph glyph-name="Atilde" unicode="&#xc3;" horiz-adv-x="721" 
d="M473 242h-268l-61 -178l83 -21v-43h-234v43l82 21l240 666h93l237 -666l80 -21v-43h-275v43l82 21zM225 300h229l-108 341h-4zM178 770c10.667 76.667 48 115 112 115c16.667 0 31.334 -2.83301 44.001 -8.5s24.334 -12 35.001 -19s21.167 -13.333 31.5 -19
s22.166 -8.5 35.499 -8.5c20 0 35 4.33301 45 13s16.667 21 20 37h45c-12 -80.667 -49.333 -121 -112 -121c-16.667 0 -31.167 2.83301 -43.5 8.5s-24 12 -35 19s-21.833 13.5 -32.5 19.5s-22.334 9 -35.001 9c-20 0 -35 -4 -45 -12s-16.667 -19 -20 -33h-45z" />
    <glyph glyph-name="Adieresis" unicode="&#xc4;" horiz-adv-x="721" 
d="M473 242h-268l-61 -178l83 -21v-43h-234v43l82 21l240 666h93l237 -666l80 -21v-43h-275v43l82 21zM225 300h229l-108 341h-4zM189 831c0 18.667 5.16699 33.167 15.5 43.5s24.5 15.5 42.5 15.5s32.333 -5.33301 43 -16s16 -25 16 -43s-5.16699 -32.167 -15.5 -42.5
s-24.833 -15.5 -43.5 -15.5c-18 0 -32.167 5.16699 -42.5 15.5s-15.5 24.5 -15.5 42.5zM419 831c0 18.667 5.16699 33.167 15.5 43.5s24.5 15.5 42.5 15.5s32.333 -5.33301 43 -16s16 -25 16 -43s-5.16699 -32.167 -15.5 -42.5s-24.833 -15.5 -43.5 -15.5
c-18 0 -32.167 5.16699 -42.5 15.5s-15.5 24.5 -15.5 42.5z" />
    <glyph glyph-name="Aring" unicode="&#xc5;" horiz-adv-x="721" 
d="M473 242h-268l-61 -178l83 -21v-43h-234v43l82 21l240 666h93l237 -666l80 -21v-43h-275v43l82 21zM225 300h229l-108 341h-4zM287 824c0 21.333 7.33301 39.333 22 54s32.334 22 53.001 22c21.333 0 39.333 -7.33301 54 -22s22 -32.667 22 -54
c0 -20.667 -7.33301 -38.167 -22 -52.5s-32.667 -21.5 -54 -21.5c-20.667 0 -38.334 7.16699 -53.001 21.5s-22 31.833 -22 52.5zM341 824c0 -6 2 -11 6 -15s9 -6 15 -6c6.66699 0 12.167 2 16.5 6s6.5 9 6.5 15c0 6.66699 -2.16699 12.167 -6.5 16.5
s-9.83301 6.5 -16.5 6.5c-6 0 -11 -2.16699 -15 -6.5s-6 -9.83301 -6 -16.5z" />
    <glyph glyph-name="AE" unicode="&#xc6;" horiz-adv-x="1057" 
d="M793 238l-18 102h-166v-280h302l31 163h58v-223h-585v43l94 21v178h-252l-98 -178l79 -21v-43h-247v43l94 21l337 602l-84 11v43h640v-212h-52l-32 154h-285v-262h166l18 102h51v-264h-51zM486 659l-197 -359h220v356z" />
    <glyph glyph-name="Ccedilla" unicode="&#xc7;" horiz-adv-x="684" 
d="M354 -210c-35.333 0 -65.666 9.33301 -90.999 28l27 37c19.333 -13.333 39 -20 59 -20c14 0 25.333 3.33301 34 10s13 15.334 13 26.001c0 20 -18 30 -54 30c-14 0 -28 -2 -42 -6l-13 22l57 74c-79.333 6 -142.666 32.333 -189.999 79
c-32.667 32 -57.667 72.167 -75 120.5s-26 102.5 -26 162.5c0 67.333 11 128.166 33 182.499s53 98.166 93 131.499c50.667 42 117.667 63 201 63c20.667 0 39.167 -1.16699 55.5 -3.5s31.5 -6.33301 45.5 -12s27.167 -13.167 39.5 -22.5s24.833 -21 37.5 -35l20 63h55v-221
h-61c-19.333 118 -86.333 177 -201 177c-63.333 0 -110.666 -20.667 -141.999 -62c-20 -26 -35.667 -60.167 -47 -102.5s-17 -88.833 -17 -139.5c0 -48 5 -92.5 15 -133.5s24 -75.5 42 -103.5s39.833 -48.5 65.5 -61.5s57.834 -19.5 96.501 -19.5
c59.333 0 106.666 14.167 141.999 42.5s57.666 70.5 66.999 126.5h55c-14.667 -76 -42.834 -133 -84.501 -171s-98.834 -58.333 -171.501 -61l-30 -50l1 -3c37.333 0 64 -5.33301 80 -16s24 -26.667 24 -48c0 -27.333 -11 -48.166 -33 -62.499s-48.667 -21.5 -80 -21.5z" />
    <glyph glyph-name="Egrave" unicode="&#xc8;" horiz-adv-x="685" 
d="M421 238l-18 102h-166v-280h302l31 163h58v-223h-585v43l94 21v592l-94 21v43h563v-212h-52l-32 154h-285v-262h166l18 102h51v-264h-51zM415 770h-53.001l-47 29c-25.333 15.333 -43.833 27.5 -55.5 36.5s-17.5 18.833 -17.5 29.5c0 20 12.333 30 37 30
c12.667 0 24.834 -3.5 36.501 -10.5s24.5 -19.5 38.5 -37.5z" />
    <glyph glyph-name="Eacute" unicode="&#xc9;" horiz-adv-x="685" 
d="M421 238l-18 102h-166v-280h302l31 163h58v-223h-585v43l94 21v592l-94 21v43h563v-212h-52l-32 154h-285v-262h166l18 102h51v-264h-51zM380 847c14 18 26.832 30.5 38.499 37.5s23.834 10.5 36.501 10.5c24.667 0 37 -10 37 -30c0 -10.667 -5.83301 -20.5 -17.5 -29.5
s-30.167 -21.167 -55.5 -36.5l-47 -29h-53z" />
    <glyph glyph-name="Ecircumflex" unicode="&#xca;" horiz-adv-x="685" 
d="M421 238l-18 102h-166v-280h302l31 163h58v-223h-585v43l94 21v592l-94 21v43h563v-212h-52l-32 154h-285v-262h166l18 102h51v-264h-51zM512 769h-53l-113 61l-113 -61h-53l118 121h95z" />
    <glyph glyph-name="Edieresis" unicode="&#xcb;" horiz-adv-x="685" 
d="M421 238l-18 102h-166v-280h302l31 163h58v-223h-585v43l94 21v592l-94 21v43h563v-212h-52l-32 154h-285v-262h166l18 102h51v-264h-51zM173 831c0 18.667 5.16699 33.167 15.5 43.5s24.5 15.5 42.5 15.5s32.333 -5.33301 43 -16s16 -25 16 -43
s-5.16699 -32.167 -15.5 -42.5s-24.833 -15.5 -43.5 -15.5c-18 0 -32.167 5.16699 -42.5 15.5s-15.5 24.5 -15.5 42.5zM403 831c0 18.667 5.16699 33.167 15.5 43.5s24.5 15.5 42.5 15.5s32.333 -5.33301 43 -16s16 -25 16 -43s-5.16699 -32.167 -15.5 -42.5
s-24.833 -15.5 -43.5 -15.5c-18 0 -32.167 5.16699 -42.5 15.5s-15.5 24.5 -15.5 42.5z" />
    <glyph glyph-name="Igrave" unicode="&#xcc;" horiz-adv-x="374" 
d="M237 64l94 -21v-43h-288v43l94 21v592l-94 21v43h288v-43l-94 -21v-592zM255 770h-53.001l-47 29c-25.333 15.333 -43.833 27.5 -55.5 36.5s-17.5 18.833 -17.5 29.5c0 20 12.333 30 37 30c12.667 0 24.834 -3.5 36.501 -10.5s24.5 -19.5 38.5 -37.5z" />
    <glyph glyph-name="Iacute" unicode="&#xcd;" horiz-adv-x="374" 
d="M237 64l94 -21v-43h-288v43l94 21v592l-94 21v43h288v-43l-94 -21v-592zM221 847c14 18 26.832 30.5 38.499 37.5s23.834 10.5 36.501 10.5c24.667 0 37 -10 37 -30c0 -10.667 -5.83301 -20.5 -17.5 -29.5s-30.167 -21.167 -55.5 -36.5l-47 -29h-53z" />
    <glyph glyph-name="Icircumflex" unicode="&#xce;" horiz-adv-x="374" 
d="M237 64l94 -21v-43h-288v43l94 21v592l-94 21v43h288v-43l-94 -21v-592zM353 769h-53l-113 61l-113 -61h-53l118 121h95z" />
    <glyph glyph-name="Idieresis" unicode="&#xcf;" horiz-adv-x="374" 
d="M237 64l94 -21v-43h-288v43l94 21v592l-94 21v43h288v-43l-94 -21v-592zM14 831c0 18.667 5.16699 33.167 15.5 43.5s24.5 15.5 42.5 15.5s32.333 -5.33301 43 -16s16 -25 16 -43s-5.16699 -32.167 -15.5 -42.5s-24.833 -15.5 -43.5 -15.5
c-18 0 -32.167 5.16699 -42.5 15.5s-15.5 24.5 -15.5 42.5zM244 831c0 18.667 5.16699 33.167 15.5 43.5s24.5 15.5 42.5 15.5s32.333 -5.33301 43 -16s16 -25 16 -43s-5.16699 -32.167 -15.5 -42.5s-24.833 -15.5 -43.5 -15.5c-18 0 -32.167 5.16699 -42.5 15.5
s-15.5 24.5 -15.5 42.5z" />
    <glyph glyph-name="Eth" unicode="&#xd0;" horiz-adv-x="771" 
d="M53 397l84.001 0.000976562v259l-84 21v43h336c99.333 0 176.666 -28 231.999 -84c31.333 -32 55.333 -71.333 72 -118s25 -96.667 25 -150c0 -56.667 -8.66699 -109.334 -26 -158.001s-42 -89.667 -74 -123c-28 -30 -61.333 -52 -100 -66s-84.667 -21 -138 -21h-327v43
l84 21v266h-84v67zM392.001 60.001c70.667 0 122.667 22 156 66c36.667 46.667 55 122.667 55 228c0 104 -18.333 181.333 -55 232c-34.667 49.333 -90 74 -166 74h-145v-263h127v-67h-127v-270h155z" />
    <glyph glyph-name="Ntilde" unicode="&#xd1;" horiz-adv-x="801" 
d="M132 656l-84 21v43h191l374 -553v489l-84 21v43h233v-43l-84 -21v-656h-71l-410 599v-535l84 -21v-43h-233v43l84 21v592zM216 770c10.667 76.667 48 115 112 115c16.667 0 31.334 -2.83301 44.001 -8.5s24.334 -12 35.001 -19s21.167 -13.333 31.5 -19
s22.166 -8.5 35.499 -8.5c20 0 35 4.33301 45 13s16.667 21 20 37h45c-12 -80.667 -49.333 -121 -112 -121c-16.667 0 -31.167 2.83301 -43.5 8.5s-24 12 -35 19s-21.833 13.5 -32.5 19.5s-22.334 9 -35.001 9c-20 0 -35 -4 -45 -12s-16.667 -19 -20 -33h-45z" />
    <glyph glyph-name="Ograve" unicode="&#xd2;" horiz-adv-x="764" 
d="M711 368c0 -58.667 -8.66602 -113.334 -25.999 -164.001s-42 -93 -74 -127c-54 -58 -131 -87 -231 -87c-102 0 -179 28 -231 84c-30.667 32 -54.334 72.167 -71.001 120.5s-25 100.833 -25 157.5c0 58.667 8.66699 113.334 26 164.001s42 93 74 127
c28 30 60.5 52 97.5 66s80.833 21 131.5 21c100.667 0 178 -28 232 -84c31.333 -32 55.333 -72.167 72 -120.5s25 -100.833 25 -157.5zM168.001 372c0 -56 4.66895 -105.333 14.002 -148s22.666 -77.667 39.999 -105c33.333 -49.333 87.666 -74 162.999 -74
c70.667 0 122.667 22 156 66c36.667 50 55 131 55 243c0 55.333 -4.66699 104 -14 146s-23 76 -41 102c-34.667 49.333 -88.667 74 -162 74c-70 0 -122 -22 -156 -66c-36.667 -48.667 -55 -128 -55 -238zM453.003 770h-53.001l-47 29
c-25.333 15.333 -43.833 27.5 -55.5 36.5s-17.5 18.833 -17.5 29.5c0 20 12.333 30 37 30c12.667 0 24.834 -3.5 36.501 -10.5s24.5 -19.5 38.5 -37.5z" />
    <glyph glyph-name="Oacute" unicode="&#xd3;" horiz-adv-x="764" 
d="M711 368c0 -58.667 -8.66602 -113.334 -25.999 -164.001s-42 -93 -74 -127c-54 -58 -131 -87 -231 -87c-102 0 -179 28 -231 84c-30.667 32 -54.334 72.167 -71.001 120.5s-25 100.833 -25 157.5c0 58.667 8.66699 113.334 26 164.001s42 93 74 127
c28 30 60.5 52 97.5 66s80.833 21 131.5 21c100.667 0 178 -28 232 -84c31.333 -32 55.333 -72.167 72 -120.5s25 -100.833 25 -157.5zM168.001 372c0 -56 4.66895 -105.333 14.002 -148s22.666 -77.667 39.999 -105c33.333 -49.333 87.666 -74 162.999 -74
c70.667 0 122.667 22 156 66c36.667 50 55 131 55 243c0 55.333 -4.66699 104 -14 146s-23 76 -41 102c-34.667 49.333 -88.667 74 -162 74c-70 0 -122 -22 -156 -66c-36.667 -48.667 -55 -128 -55 -238zM416.003 847c14 18 26.832 30.5 38.499 37.5
s23.834 10.5 36.501 10.5c24.667 0 37 -10 37 -30c0 -10.667 -5.83301 -20.5 -17.5 -29.5s-30.167 -21.167 -55.5 -36.5l-47 -29h-53z" />
    <glyph glyph-name="Ocircumflex" unicode="&#xd4;" horiz-adv-x="764" 
d="M711 368c0 -58.667 -8.66602 -113.334 -25.999 -164.001s-42 -93 -74 -127c-54 -58 -131 -87 -231 -87c-102 0 -179 28 -231 84c-30.667 32 -54.334 72.167 -71.001 120.5s-25 100.833 -25 157.5c0 58.667 8.66699 113.334 26 164.001s42 93 74 127
c28 30 60.5 52 97.5 66s80.833 21 131.5 21c100.667 0 178 -28 232 -84c31.333 -32 55.333 -72.167 72 -120.5s25 -100.833 25 -157.5zM168.001 372c0 -56 4.66895 -105.333 14.002 -148s22.666 -77.667 39.999 -105c33.333 -49.333 87.666 -74 162.999 -74
c70.667 0 122.667 22 156 66c36.667 50 55 131 55 243c0 55.333 -4.66699 104 -14 146s-23 76 -41 102c-34.667 49.333 -88.667 74 -162 74c-70 0 -122 -22 -156 -66c-36.667 -48.667 -55 -128 -55 -238zM548.003 769h-53l-113 61l-113 -61h-53l118 121h95z" />
    <glyph glyph-name="Otilde" unicode="&#xd5;" horiz-adv-x="764" 
d="M711 368c0 -58.667 -8.66602 -113.334 -25.999 -164.001s-42 -93 -74 -127c-54 -58 -131 -87 -231 -87c-102 0 -179 28 -231 84c-30.667 32 -54.334 72.167 -71.001 120.5s-25 100.833 -25 157.5c0 58.667 8.66699 113.334 26 164.001s42 93 74 127
c28 30 60.5 52 97.5 66s80.833 21 131.5 21c100.667 0 178 -28 232 -84c31.333 -32 55.333 -72.167 72 -120.5s25 -100.833 25 -157.5zM168.001 372c0 -56 4.66895 -105.333 14.002 -148s22.666 -77.667 39.999 -105c33.333 -49.333 87.666 -74 162.999 -74
c70.667 0 122.667 22 156 66c36.667 50 55 131 55 243c0 55.333 -4.66699 104 -14 146s-23 76 -41 102c-34.667 49.333 -88.667 74 -162 74c-70 0 -122 -22 -156 -66c-36.667 -48.667 -55 -128 -55 -238zM198.003 770c10.667 76.667 48 115 112 115
c16.667 0 31.334 -2.83301 44.001 -8.5s24.334 -12 35.001 -19s21.167 -13.333 31.5 -19s22.166 -8.5 35.499 -8.5c20 0 35 4.33301 45 13s16.667 21 20 37h45c-12 -80.667 -49.333 -121 -112 -121c-16.667 0 -31.167 2.83301 -43.5 8.5s-24 12 -35 19
s-21.833 13.5 -32.5 19.5s-22.334 9 -35.001 9c-20 0 -35 -4 -45 -12s-16.667 -19 -20 -33h-45z" />
    <glyph glyph-name="Odieresis" unicode="&#xd6;" horiz-adv-x="764" 
d="M711 368c0 -58.667 -8.66602 -113.334 -25.999 -164.001s-42 -93 -74 -127c-54 -58 -131 -87 -231 -87c-102 0 -179 28 -231 84c-30.667 32 -54.334 72.167 -71.001 120.5s-25 100.833 -25 157.5c0 58.667 8.66699 113.334 26 164.001s42 93 74 127
c28 30 60.5 52 97.5 66s80.833 21 131.5 21c100.667 0 178 -28 232 -84c31.333 -32 55.333 -72.167 72 -120.5s25 -100.833 25 -157.5zM168.001 372c0 -56 4.66895 -105.333 14.002 -148s22.666 -77.667 39.999 -105c33.333 -49.333 87.666 -74 162.999 -74
c70.667 0 122.667 22 156 66c36.667 50 55 131 55 243c0 55.333 -4.66699 104 -14 146s-23 76 -41 102c-34.667 49.333 -88.667 74 -162 74c-70 0 -122 -22 -156 -66c-36.667 -48.667 -55 -128 -55 -238zM209.003 831c0 18.667 5.16699 33.167 15.5 43.5
s24.5 15.5 42.5 15.5s32.333 -5.33301 43 -16s16 -25 16 -43s-5.16699 -32.167 -15.5 -42.5s-24.833 -15.5 -43.5 -15.5c-18 0 -32.167 5.16699 -42.5 15.5s-15.5 24.5 -15.5 42.5zM439.003 831c0 18.667 5.16699 33.167 15.5 43.5s24.5 15.5 42.5 15.5
s32.333 -5.33301 43 -16s16 -25 16 -43s-5.16699 -32.167 -15.5 -42.5s-24.833 -15.5 -43.5 -15.5c-18 0 -32.167 5.16699 -42.5 15.5s-15.5 24.5 -15.5 42.5z" />
    <glyph glyph-name="multiply" unicode="&#xd7;" horiz-adv-x="506" 
d="M108 545l145 -145l145 145l48 -48l-145 -145l145 -145l-48 -48l-145 145l-145 -145l-48 48l145 145l-145 145z" />
    <glyph glyph-name="Oslash" unicode="&#xd8;" horiz-adv-x="761" 
d="M709 368c0 -58.667 -8.66797 -113.334 -26.001 -164.001s-42 -93 -74 -127c-54 -58 -131 -87 -231 -87c-82 0 -148 18 -198 54l-38 -54h-71l67 94c-28 32 -49.5 71.167 -64.5 117.5s-22.5 96.5 -22.5 150.5c0 58.667 8.66699 113.334 26 164.001s42 93 74 127
c28 30 60.5 52 97.5 66s80.833 21 131.5 21c74.667 0 136.334 -15.333 185.001 -46l32 46h71l-58 -82c0 -1.33301 0.666992 -2 2 -2c31.333 -32 55.333 -72.167 72 -120.5s25 -100.833 25 -157.5zM593.999 354c0 92.667 -12.666 165.333 -37.999 218l-329 -463
c17.333 -21.333 38.666 -37.333 63.999 -48s56 -16 92 -16c70.667 0 122.667 22 156 66c36.667 50 55 131 55 243zM166 371.999c0 -84.667 10 -153.333 30 -206l325 457c-33.333 35.333 -81.333 53 -144 53c-70 0 -122 -22 -156 -66c-36.667 -48.667 -55 -128 -55 -238z" />
    <glyph glyph-name="Ugrave" unicode="&#xd9;" horiz-adv-x="772" 
d="M592 656l-84.001 21v43h231v-43l-84 -21v-413c0 -83.333 -22.167 -146.5 -66.5 -189.5s-109.833 -64.5 -196.5 -64.5c-89.333 0 -157.666 22 -204.999 66s-71 107 -71 189v412l-84 21v43h268v-43l-84 -21v-395c0 -144.667 66 -217 198 -217c62.667 0 108 16.833 136 50.5
s42 88.5 42 164.5v397zM474.999 770h-53.001l-47 29c-25.333 15.333 -43.833 27.5 -55.5 36.5s-17.5 18.833 -17.5 29.5c0 20 12.333 30 37 30c12.667 0 24.834 -3.5 36.501 -10.5s24.5 -19.5 38.5 -37.5z" />
    <glyph glyph-name="Uacute" unicode="&#xda;" horiz-adv-x="772" 
d="M592 656l-84.001 21v43h231v-43l-84 -21v-413c0 -83.333 -22.167 -146.5 -66.5 -189.5s-109.833 -64.5 -196.5 -64.5c-89.333 0 -157.666 22 -204.999 66s-71 107 -71 189v412l-84 21v43h268v-43l-84 -21v-395c0 -144.667 66 -217 198 -217c62.667 0 108 16.833 136 50.5
s42 88.5 42 164.5v397zM438.999 847c14 18 26.832 30.5 38.499 37.5s23.834 10.5 36.501 10.5c24.667 0 37 -10 37 -30c0 -10.667 -5.83301 -20.5 -17.5 -29.5s-30.167 -21.167 -55.5 -36.5l-47 -29h-53z" />
    <glyph glyph-name="Ucircumflex" unicode="&#xdb;" horiz-adv-x="772" 
d="M592 656l-84.001 21v43h231v-43l-84 -21v-413c0 -83.333 -22.167 -146.5 -66.5 -189.5s-109.833 -64.5 -196.5 -64.5c-89.333 0 -157.666 22 -204.999 66s-71 107 -71 189v412l-84 21v43h268v-43l-84 -21v-395c0 -144.667 66 -217 198 -217c62.667 0 108 16.833 136 50.5
s42 88.5 42 164.5v397zM570.999 769h-53l-113 61l-113 -61h-53l118 121h95z" />
    <glyph glyph-name="Udieresis" unicode="&#xdc;" horiz-adv-x="772" 
d="M592 656l-84.001 21v43h231v-43l-84 -21v-413c0 -83.333 -22.167 -146.5 -66.5 -189.5s-109.833 -64.5 -196.5 -64.5c-89.333 0 -157.666 22 -204.999 66s-71 107 -71 189v412l-84 21v43h268v-43l-84 -21v-395c0 -144.667 66 -217 198 -217c62.667 0 108 16.833 136 50.5
s42 88.5 42 164.5v397zM231.999 831c0 18.667 5.16699 33.167 15.5 43.5s24.5 15.5 42.5 15.5s32.333 -5.33301 43 -16s16 -25 16 -43s-5.16699 -32.167 -15.5 -42.5s-24.833 -15.5 -43.5 -15.5c-18 0 -32.167 5.16699 -42.5 15.5s-15.5 24.5 -15.5 42.5zM461.999 831
c0 18.667 5.16699 33.167 15.5 43.5s24.5 15.5 42.5 15.5s32.333 -5.33301 43 -16s16 -25 16 -43s-5.16699 -32.167 -15.5 -42.5s-24.833 -15.5 -43.5 -15.5c-18 0 -32.167 5.16699 -42.5 15.5s-15.5 24.5 -15.5 42.5z" />
    <glyph glyph-name="Yacute" unicode="&#xdd;" horiz-adv-x="678" 
d="M533 656l-81 21v43h227v-43l-82 -21l-204 -374v-218l94 -21v-43h-288v43l94 21v202l-215 390l-83 21v43h276v-43l-84 -21l172 -320zM393 848c14 18 26.832 30.5 38.499 37.5s23.834 10.5 36.501 10.5c24.667 0 37 -10 37 -30c0 -10.667 -5.83301 -20.5 -17.5 -29.5
s-30.167 -21.167 -55.5 -36.5l-47 -29h-53z" />
    <glyph glyph-name="Thorn" unicode="&#xde;" horiz-adv-x="643" 
d="M235 148v-84.0039l95 -21v-43h-279v43l84 21v592l-95 21v43h279v-43l-84 -21v-81h152c36.667 0 68.667 -5.66699 96 -17s50.333 -26.666 69 -45.999s32.667 -41.666 42 -66.999s14 -51.666 14 -78.999c0 -29.333 -4.83301 -57.166 -14.5 -83.499s-24 -49.5 -43 -69.5
s-42.167 -35.833 -69.5 -47.5s-59 -17.5 -95 -17.5h-151zM364 205.996c23.333 0 43.332 3.83008 59.999 11.4971s30.5 18.334 41.5 32.001s19.167 29.834 24.5 48.501s8 39.334 8 62.001c0 20.667 -3 40.5 -9 59.5s-14.667 35.833 -26 50.5s-25.666 26.167 -42.999 34.5
s-37.333 12.5 -60 12.5h-125v-311h129z" />
    <glyph glyph-name="germandbls" unicode="&#xdf;" horiz-adv-x="630" 
d="M353 424c0 -8 1.33398 -14.9971 4.00098 -20.9971s7.5 -12.333 14.5 -19s16.667 -13.667 29 -21s28.5 -16 48.5 -26c31.333 -16 57.166 -30.5 77.499 -43.5s36.333 -26 48 -39s19.667 -26.5 24 -40.5s6.5 -29.667 6.5 -47c0 -26 -4.5 -49.833 -13.5 -71.5
s-21.667 -40.334 -38 -56.001s-35.833 -27.834 -58.5 -36.501s-47.667 -13 -75 -13c-23.333 0 -44.666 3.16699 -63.999 9.5s-36 15 -50 26s-25 24.333 -33 40s-12 32.5 -12 50.5c0 20.667 5 36.834 15 48.501s23.667 17.5 41 17.5c16.667 0 30.334 -4.83301 41.001 -14.5
s16 -21.834 16 -36.501c0 -12 -3.5 -23.833 -10.5 -35.5s-15.5 -20.167 -25.5 -25.5c6 -10 16.667 -18.167 32 -24.5s32.666 -9.5 51.999 -9.5c30 0 53.5 8 70.5 24s25.5 39 25.5 69c0 11.333 -1.33301 21.333 -4 30s-8 17.334 -16 26.001s-19.333 18 -34 28
s-34 22.333 -58 37c-27.333 16 -49.833 30.167 -67.5 42.5s-31.5 24.166 -41.5 35.499s-16.833 22.666 -20.5 33.999s-5.5 24.333 -5.5 39c0 12 1.16699 22.667 3.5 32s7 18.666 14 27.999s16.333 19.166 28 29.499s27.167 22.5 46.5 36.5c22 16.667 37.667 33.5 47 50.5
s14 37.5 14 61.5c0 36 -9.33301 63.5 -28 82.5s-45 28.5 -79 28.5c-78.667 0 -118 -53.333 -118 -160v-590h-174v41l77 19v490c0 37.333 5.16699 70.833 15.5 100.5s25.166 54.834 44.499 75.501s42.833 36.5 70.5 47.5s59.167 16.5 94.5 16.5
c56.667 0 101.167 -13.667 133.5 -41s48.5 -64.333 48.5 -111c0 -26.667 -5.83301 -49.167 -17.5 -67.5s-31.5 -36.166 -59.5 -53.499c-29.333 -19.333 -49.833 -35.833 -61.5 -49.5s-17.5 -28.167 -17.5 -43.5z" />
    <glyph glyph-name="agrave" unicode="&#xe0;" horiz-adv-x="537" 
d="M38 117c0 26 5.83203 48.999 17.499 68.999s30.167 37.833 55.5 53.5s58 29.167 98 40.5s88 21.333 144 30c-3.33301 39.333 -7.16602 70 -11.499 92s-10.166 39.667 -17.499 53c-9.33301 17.333 -22.333 30.166 -39 38.499s-34.667 12.5 -54 12.5
c-18.667 0 -35.5 -3.33301 -50.5 -10s-25.167 -15.667 -30.5 -27c9.33301 -7.33301 16.166 -16.166 20.499 -26.499s6.5 -20.166 6.5 -29.499c0 -16.667 -5.5 -29.834 -16.5 -39.501s-24.5 -14.5 -40.5 -14.5s-29.167 5.33301 -39.5 16s-15.5 25.667 -15.5 45
c0 20.667 5.66699 39.167 17 55.5s26.166 30 44.499 41s39 19.333 62 25s45.833 8.5 68.5 8.5c56.667 0 101.334 -16.333 134.001 -49c41.333 -41.333 62 -114.666 62 -219.999v-145c0 -33.333 2.16699 -56.166 6.5 -68.499s13.833 -18.5 28.5 -18.5h45v-30
c-48 -19.333 -85.333 -29 -112 -29c-10 0 -18.333 1.66699 -25 5s-12 9.16602 -16 17.499s-6.83301 19.5 -8.5 33.5s-2.5 31.667 -2.5 53h-4c-20.667 -34 -48 -60.667 -82 -80s-70.667 -29 -110 -29c-42 0 -75 11.167 -99 33.5s-36 53.5 -36 93.5zM214.999 47.999
c18.667 0 38.167 4.83496 58.5 14.502s37.5 23.167 51.5 40.5c20.667 25.333 31 62.666 31 111.999c0 11.333 -0.333008 22.5 -1 33.5s-1.66699 21.5 -3 31.5c-40.667 -8 -74.5 -16.333 -101.5 -25s-48.667 -18.5 -65 -29.5s-27.833 -23.667 -34.5 -38
s-10 -30.833 -10 -49.5c0 -28.667 6.5 -50.834 19.5 -66.501s31.167 -23.5 54.5 -23.5zM303.999 639.001l-53 0.000976562l-38 28c-32 23.333 -54.667 42.166 -68 56.499s-20 26.5 -20 36.5c0 12 4 20.833 12 26.5s19 8.5 33 8.5s26.833 -5.83301 38.5 -17.5
s27.167 -32.5 46.5 -62.5z" />
    <glyph glyph-name="aacute" unicode="&#xe1;" horiz-adv-x="537" 
d="M38 117c0 26 5.83203 48.999 17.499 68.999s30.167 37.833 55.5 53.5s58 29.167 98 40.5s88 21.333 144 30c-3.33301 39.333 -7.16602 70 -11.499 92s-10.166 39.667 -17.499 53c-9.33301 17.333 -22.333 30.166 -39 38.499s-34.667 12.5 -54 12.5
c-18.667 0 -35.5 -3.33301 -50.5 -10s-25.167 -15.667 -30.5 -27c9.33301 -7.33301 16.166 -16.166 20.499 -26.499s6.5 -20.166 6.5 -29.499c0 -16.667 -5.5 -29.834 -16.5 -39.501s-24.5 -14.5 -40.5 -14.5s-29.167 5.33301 -39.5 16s-15.5 25.667 -15.5 45
c0 20.667 5.66699 39.167 17 55.5s26.166 30 44.499 41s39 19.333 62 25s45.833 8.5 68.5 8.5c56.667 0 101.334 -16.333 134.001 -49c41.333 -41.333 62 -114.666 62 -219.999v-145c0 -33.333 2.16699 -56.166 6.5 -68.499s13.833 -18.5 28.5 -18.5h45v-30
c-48 -19.333 -85.333 -29 -112 -29c-10 0 -18.333 1.66699 -25 5s-12 9.16602 -16 17.499s-6.83301 19.5 -8.5 33.5s-2.5 31.667 -2.5 53h-4c-20.667 -34 -48 -60.667 -82 -80s-70.667 -29 -110 -29c-42 0 -75 11.167 -99 33.5s-36 53.5 -36 93.5zM214.999 47.999
c18.667 0 38.167 4.83496 58.5 14.502s37.5 23.167 51.5 40.5c20.667 25.333 31 62.666 31 111.999c0 11.333 -0.333008 22.5 -1 33.5s-1.66699 21.5 -3 31.5c-40.667 -8 -74.5 -16.333 -101.5 -25s-48.667 -18.5 -65 -29.5s-27.833 -23.667 -34.5 -38
s-10 -30.833 -10 -49.5c0 -28.667 6.5 -50.834 19.5 -66.501s31.167 -23.5 54.5 -23.5zM265.999 715.001c19.333 30 34.833 50.832 46.5 62.499s24.5 17.5 38.5 17.5s25 -2.83301 33 -8.5s12 -14.5 12 -26.5c0 -10 -6.66699 -22.167 -20 -36.5s-36 -33.166 -68 -56.499
l-38 -28h-53z" />
    <glyph glyph-name="acircumflex" unicode="&#xe2;" horiz-adv-x="537" 
d="M38 117c0 26 5.83203 48.999 17.499 68.999s30.167 37.833 55.5 53.5s58 29.167 98 40.5s88 21.333 144 30c-3.33301 39.333 -7.16602 70 -11.499 92s-10.166 39.667 -17.499 53c-9.33301 17.333 -22.333 30.166 -39 38.499s-34.667 12.5 -54 12.5
c-18.667 0 -35.5 -3.33301 -50.5 -10s-25.167 -15.667 -30.5 -27c9.33301 -7.33301 16.166 -16.166 20.499 -26.499s6.5 -20.166 6.5 -29.499c0 -16.667 -5.5 -29.834 -16.5 -39.501s-24.5 -14.5 -40.5 -14.5s-29.167 5.33301 -39.5 16s-15.5 25.667 -15.5 45
c0 20.667 5.66699 39.167 17 55.5s26.166 30 44.499 41s39 19.333 62 25s45.833 8.5 68.5 8.5c56.667 0 101.334 -16.333 134.001 -49c41.333 -41.333 62 -114.666 62 -219.999v-145c0 -33.333 2.16699 -56.166 6.5 -68.499s13.833 -18.5 28.5 -18.5h45v-30
c-48 -19.333 -85.333 -29 -112 -29c-10 0 -18.333 1.66699 -25 5s-12 9.16602 -16 17.499s-6.83301 19.5 -8.5 33.5s-2.5 31.667 -2.5 53h-4c-20.667 -34 -48 -60.667 -82 -80s-70.667 -29 -110 -29c-42 0 -75 11.167 -99 33.5s-36 53.5 -36 93.5zM214.999 47.999
c18.667 0 38.167 4.83496 58.5 14.502s37.5 23.167 51.5 40.5c20.667 25.333 31 62.666 31 111.999c0 11.333 -0.333008 22.5 -1 33.5s-1.66699 21.5 -3 31.5c-40.667 -8 -74.5 -16.333 -101.5 -25s-48.667 -18.5 -65 -29.5s-27.833 -23.667 -34.5 -38
s-10 -30.833 -10 -49.5c0 -28.667 6.5 -50.834 19.5 -66.501s31.167 -23.5 54.5 -23.5zM389.999 639.001h-53l-83 91l-83 -91h-53l88 151h95z" />
    <glyph glyph-name="atilde" unicode="&#xe3;" horiz-adv-x="537" 
d="M38 117c0 26 5.83203 48.999 17.499 68.999s30.167 37.833 55.5 53.5s58 29.167 98 40.5s88 21.333 144 30c-3.33301 39.333 -7.16602 70 -11.499 92s-10.166 39.667 -17.499 53c-9.33301 17.333 -22.333 30.166 -39 38.499s-34.667 12.5 -54 12.5
c-18.667 0 -35.5 -3.33301 -50.5 -10s-25.167 -15.667 -30.5 -27c9.33301 -7.33301 16.166 -16.166 20.499 -26.499s6.5 -20.166 6.5 -29.499c0 -16.667 -5.5 -29.834 -16.5 -39.501s-24.5 -14.5 -40.5 -14.5s-29.167 5.33301 -39.5 16s-15.5 25.667 -15.5 45
c0 20.667 5.66699 39.167 17 55.5s26.166 30 44.499 41s39 19.333 62 25s45.833 8.5 68.5 8.5c56.667 0 101.334 -16.333 134.001 -49c41.333 -41.333 62 -114.666 62 -219.999v-145c0 -33.333 2.16699 -56.166 6.5 -68.499s13.833 -18.5 28.5 -18.5h45v-30
c-48 -19.333 -85.333 -29 -112 -29c-10 0 -18.333 1.66699 -25 5s-12 9.16602 -16 17.499s-6.83301 19.5 -8.5 33.5s-2.5 31.667 -2.5 53h-4c-20.667 -34 -48 -60.667 -82 -80s-70.667 -29 -110 -29c-42 0 -75 11.167 -99 33.5s-36 53.5 -36 93.5zM214.999 47.999
c18.667 0 38.167 4.83496 58.5 14.502s37.5 23.167 51.5 40.5c20.667 25.333 31 62.666 31 111.999c0 11.333 -0.333008 22.5 -1 33.5s-1.66699 21.5 -3 31.5c-40.667 -8 -74.5 -16.333 -101.5 -25s-48.667 -18.5 -65 -29.5s-27.833 -23.667 -34.5 -38
s-10 -30.833 -10 -49.5c0 -28.667 6.5 -50.834 19.5 -66.501s31.167 -23.5 54.5 -23.5zM59.999 639.001c10.667 76.667 48 115 112 115c16.667 0 31.334 -2.83301 44.001 -8.5s24.334 -12 35.001 -19s21.167 -13.333 31.5 -19s22.166 -8.5 35.499 -8.5
c20 0 35 4.33301 45 13s16.667 21 20 37h45c-12 -80.667 -49.333 -121 -112 -121c-16.667 0 -31.167 2.83301 -43.5 8.5s-24 12 -35 19s-21.833 13.5 -32.5 19.5s-22.334 9 -35.001 9c-20 0 -35 -4 -45 -12s-16.667 -19 -20 -33h-45z" />
    <glyph glyph-name="adieresis" unicode="&#xe4;" horiz-adv-x="537" 
d="M38 117c0 26 5.83203 48.999 17.499 68.999s30.167 37.833 55.5 53.5s58 29.167 98 40.5s88 21.333 144 30c-3.33301 39.333 -7.16602 70 -11.499 92s-10.166 39.667 -17.499 53c-9.33301 17.333 -22.333 30.166 -39 38.499s-34.667 12.5 -54 12.5
c-18.667 0 -35.5 -3.33301 -50.5 -10s-25.167 -15.667 -30.5 -27c9.33301 -7.33301 16.166 -16.166 20.499 -26.499s6.5 -20.166 6.5 -29.499c0 -16.667 -5.5 -29.834 -16.5 -39.501s-24.5 -14.5 -40.5 -14.5s-29.167 5.33301 -39.5 16s-15.5 25.667 -15.5 45
c0 20.667 5.66699 39.167 17 55.5s26.166 30 44.499 41s39 19.333 62 25s45.833 8.5 68.5 8.5c56.667 0 101.334 -16.333 134.001 -49c41.333 -41.333 62 -114.666 62 -219.999v-145c0 -33.333 2.16699 -56.166 6.5 -68.499s13.833 -18.5 28.5 -18.5h45v-30
c-48 -19.333 -85.333 -29 -112 -29c-10 0 -18.333 1.66699 -25 5s-12 9.16602 -16 17.499s-6.83301 19.5 -8.5 33.5s-2.5 31.667 -2.5 53h-4c-20.667 -34 -48 -60.667 -82 -80s-70.667 -29 -110 -29c-42 0 -75 11.167 -99 33.5s-36 53.5 -36 93.5zM214.999 47.999
c18.667 0 38.167 4.83496 58.5 14.502s37.5 23.167 51.5 40.5c20.667 25.333 31 62.666 31 111.999c0 11.333 -0.333008 22.5 -1 33.5s-1.66699 21.5 -3 31.5c-40.667 -8 -74.5 -16.333 -101.5 -25s-48.667 -18.5 -65 -29.5s-27.833 -23.667 -34.5 -38
s-10 -30.833 -10 -49.5c0 -28.667 6.5 -50.834 19.5 -66.501s31.167 -23.5 54.5 -23.5zM90.999 705.001c0 18.667 5.16699 33.167 15.5 43.5s24.5 15.5 42.5 15.5s32.333 -5.33301 43 -16s16 -25 16 -43s-5.16699 -32.167 -15.5 -42.5s-24.833 -15.5 -43.5 -15.5
c-18 0 -32.167 5.16699 -42.5 15.5s-15.5 24.5 -15.5 42.5zM320.999 705.001c0 18.667 5.16699 33.167 15.5 43.5s24.5 15.5 42.5 15.5s32.333 -5.33301 43 -16s16 -25 16 -43s-5.16699 -32.167 -15.5 -42.5s-24.833 -15.5 -43.5 -15.5c-18 0 -32.167 5.16699 -42.5 15.5
s-15.5 24.5 -15.5 42.5z" />
    <glyph glyph-name="aring" unicode="&#xe5;" horiz-adv-x="537" 
d="M38 117c0 26 5.83203 48.999 17.499 68.999s30.167 37.833 55.5 53.5s58 29.167 98 40.5s88 21.333 144 30c-3.33301 39.333 -7.16602 70 -11.499 92s-10.166 39.667 -17.499 53c-9.33301 17.333 -22.333 30.166 -39 38.499s-34.667 12.5 -54 12.5
c-18.667 0 -35.5 -3.33301 -50.5 -10s-25.167 -15.667 -30.5 -27c9.33301 -7.33301 16.166 -16.166 20.499 -26.499s6.5 -20.166 6.5 -29.499c0 -16.667 -5.5 -29.834 -16.5 -39.501s-24.5 -14.5 -40.5 -14.5s-29.167 5.33301 -39.5 16s-15.5 25.667 -15.5 45
c0 20.667 5.66699 39.167 17 55.5s26.166 30 44.499 41s39 19.333 62 25s45.833 8.5 68.5 8.5c56.667 0 101.334 -16.333 134.001 -49c41.333 -41.333 62 -114.666 62 -219.999v-145c0 -33.333 2.16699 -56.166 6.5 -68.499s13.833 -18.5 28.5 -18.5h45v-30
c-48 -19.333 -85.333 -29 -112 -29c-10 0 -18.333 1.66699 -25 5s-12 9.16602 -16 17.499s-6.83301 19.5 -8.5 33.5s-2.5 31.667 -2.5 53h-4c-20.667 -34 -48 -60.667 -82 -80s-70.667 -29 -110 -29c-42 0 -75 11.167 -99 33.5s-36 53.5 -36 93.5zM214.999 47.999
c18.667 0 38.167 4.83496 58.5 14.502s37.5 23.167 51.5 40.5c20.667 25.333 31 62.666 31 111.999c0 11.333 -0.333008 22.5 -1 33.5s-1.66699 21.5 -3 31.5c-40.667 -8 -74.5 -16.333 -101.5 -25s-48.667 -18.5 -65 -29.5s-27.833 -23.667 -34.5 -38
s-10 -30.833 -10 -49.5c0 -28.667 6.5 -50.834 19.5 -66.501s31.167 -23.5 54.5 -23.5zM180.999 713.001c0 24 8.16699 44.333 24.5 61s36.166 25 59.499 25c24 0 44.333 -8.33301 61 -25s25 -37 25 -61c0 -23.333 -8.33301 -43.166 -25 -59.499s-37 -24.5 -61 -24.5
c-23.333 0 -43.166 8.16699 -59.499 24.5s-24.5 36.166 -24.5 59.499zM222.999 713.001c0 -12 4 -22 12 -30s18 -12 30 -12c12.667 0 23.167 4 31.5 12s12.5 18 12.5 30c0 12.667 -4.16699 23.167 -12.5 31.5s-18.833 12.5 -31.5 12.5c-12 0 -22 -4.16699 -30 -12.5
s-12 -18.833 -12 -31.5z" />
    <glyph glyph-name="ae" unicode="&#xe6;" horiz-adv-x="836" 
d="M38 117c0 26 5.8291 49 17.4961 69s30.167 37.833 55.5 53.5s58 29.167 98 40.5s88 21.333 144 30c-3.33301 39.333 -7.16602 70 -11.499 92s-10.166 39.667 -17.499 53c-9.33301 17.333 -22.333 30.166 -39 38.499s-34.667 12.5 -54 12.5
c-18.667 0 -35.5 -3.33301 -50.5 -10s-25.167 -15.667 -30.5 -27c9.33301 -7.33301 16.166 -16.166 20.499 -26.499s6.5 -20.166 6.5 -29.499c0 -16.667 -5.5 -29.834 -16.5 -39.501s-24.5 -14.5 -40.5 -14.5s-29.167 5.33301 -39.5 16s-15.5 25.667 -15.5 45
c0 20.667 5.66699 39.167 17 55.5s26.166 30 44.499 41s39 19.333 62 25s45.833 8.5 68.5 8.5c16.667 0 32.834 -2.16699 48.501 -6.5s30 -10.666 43 -18.999s24.5 -19 34.5 -32s17.333 -28.167 22 -45.5h5c13.333 34 35.333 59.667 66 77s65 26 103 26
c68.667 0 121.334 -21.167 158.001 -63.5s55 -100.833 55 -175.5c0 -6.66699 -0.166992 -12.834 -0.5 -18.501s-1.16602 -15.167 -2.49902 -28.5h-349c0 -48.667 6.66699 -89 20 -121c13.333 -31.333 32.166 -53.5 56.499 -66.5s51.166 -19.5 80.499 -19.5
c32 0 60.833 6.5 86.5 19.5s48.834 30.833 69.501 53.5l32 -24c-12 -16 -24.833 -31 -38.5 -45s-29.167 -26.333 -46.5 -37s-36.666 -19 -57.999 -25s-45 -9 -71 -9c-44.667 0 -84.167 9.16699 -118.5 27.5s-61.166 45.5 -80.499 81.5h-7c-20.667 -34 -48 -60.667 -82 -80
s-70.667 -29 -110 -29c-42 0 -75 11.167 -99 33.5s-36 53.5 -36 93.5zM572.996 496c-80 0 -124 -61 -132 -183h250v33c0 48 -10.167 85 -30.5 111s-49.5 39 -87.5 39zM214.996 48c18.667 0 38.167 4.83496 58.5 14.502s37.5 23.167 51.5 40.5
c20.667 25.333 31 62.666 31 111.999c0 11.333 -0.333008 22.5 -1 33.5s-1.66699 21.5 -3 31.5c-40.667 -8 -74.5 -16.333 -101.5 -25s-48.667 -18.5 -65 -29.5s-27.833 -23.667 -34.5 -38s-10 -30.833 -10 -49.5c0 -28.667 6.5 -50.834 19.5 -66.501
s31.167 -23.5 54.5 -23.5z" />
    <glyph glyph-name="ccedilla" unicode="&#xe7;" horiz-adv-x="536" 
d="M261 -210c-35.333 0 -65.6709 9.3291 -91.0039 27.9961l27 37c19.333 -13.333 39 -20 59 -20c14 0 25.333 3.33301 34 10s13 15.334 13 26.001c0 20 -18 30 -54 30c-14 0 -28 -2 -42 -6l-13 22l57 75c-78 8 -134.333 44.667 -169 110
c-11.333 21.333 -20.166 45.833 -26.499 73.5s-9.5 57.167 -9.5 88.5c0 43.333 6 82.5 18 117.5s29.167 65 51.5 90s49.333 44.333 81 58s66.834 20.5 105.501 20.5c58 0 104.167 -14.167 138.5 -42.5s51.5 -66.166 51.5 -113.499c0 -51.333 -20.667 -77 -62 -77
c-19.333 0 -34.333 5.33301 -45 16s-16 25 -16 43c0 16.667 4.5 31 13.5 43s21.167 20.333 36.5 25c-19.333 36.667 -56.333 55 -111 55s-94.5 -17.667 -119.5 -53s-37.5 -91 -37.5 -167c0 -63.333 8.66699 -111.666 26 -144.999c26.667 -51.333 70.334 -77 131.001 -77
c30.667 0 60 6.66699 88 20s52 32.333 72 57l30 -24c-25.333 -39.333 -54.166 -68.5 -86.499 -87.5s-69.833 -29.5 -112.5 -31.5l-30 -50l1 -3c37.333 0 64 -5.33301 80 -16s24 -26.667 24 -48c0 -27.333 -11 -48.166 -33 -62.499s-48.667 -21.5 -80 -21.5z" />
    <glyph glyph-name="egrave" unicode="&#xe8;" 
d="M148 264c0 -48.667 6.66406 -88.999 19.9971 -120.999c13.333 -31.333 32.166 -53.5 56.499 -66.5s51.166 -19.5 80.499 -19.5c32 0 60.833 6.5 86.5 19.5s48.834 30.833 69.501 53.5l32 -24c-12 -16 -24.833 -31 -38.5 -45s-29.167 -26.333 -46.5 -37
s-36.666 -19 -57.999 -25s-45 -9 -71 -9c-46 0 -86.667 9.83301 -122 29.5s-62.333 48.5 -81 86.5c-10 20.667 -17.333 43.5 -22 68.5s-7 52.167 -7 81.5c0 94 21.333 166.5 64 217.5s101.334 76.5 176.001 76.5c68.667 0 121.334 -21.167 158.001 -63.5
s55 -100.833 55 -175.5c0 -6.66699 -0.166992 -12.834 -0.5 -18.501s-1.16602 -15.167 -2.49902 -28.5h-349zM280.997 496.001c-80 0 -124 -61 -132 -183h250v33c0 48 -10.167 85 -30.5 111s-49.5 39 -87.5 39zM339.997 639.001l-53 0.000976562l-38 28
c-32 23.333 -54.667 42.166 -68 56.499s-20 26.5 -20 36.5c0 12 4 20.833 12 26.5s19 8.5 33 8.5s26.833 -5.83301 38.5 -17.5s27.167 -32.5 46.5 -62.5z" />
    <glyph glyph-name="eacute" unicode="&#xe9;" 
d="M148 264c0 -48.667 6.66406 -88.999 19.9971 -120.999c13.333 -31.333 32.166 -53.5 56.499 -66.5s51.166 -19.5 80.499 -19.5c32 0 60.833 6.5 86.5 19.5s48.834 30.833 69.501 53.5l32 -24c-12 -16 -24.833 -31 -38.5 -45s-29.167 -26.333 -46.5 -37
s-36.666 -19 -57.999 -25s-45 -9 -71 -9c-46 0 -86.667 9.83301 -122 29.5s-62.333 48.5 -81 86.5c-10 20.667 -17.333 43.5 -22 68.5s-7 52.167 -7 81.5c0 94 21.333 166.5 64 217.5s101.334 76.5 176.001 76.5c68.667 0 121.334 -21.167 158.001 -63.5
s55 -100.833 55 -175.5c0 -6.66699 -0.166992 -12.834 -0.5 -18.501s-1.16602 -15.167 -2.49902 -28.5h-349zM280.997 496.001c-80 0 -124 -61 -132 -183h250v33c0 48 -10.167 85 -30.5 111s-49.5 39 -87.5 39zM306.997 715.001c19.333 30 34.833 50.832 46.5 62.499
s24.5 17.5 38.5 17.5s25 -2.83301 33 -8.5s12 -14.5 12 -26.5c0 -10 -6.66699 -22.167 -20 -36.5s-36 -33.166 -68 -56.499l-38 -28h-53z" />
    <glyph glyph-name="ecircumflex" unicode="&#xea;" 
d="M148 264c0 -48.667 6.66406 -88.999 19.9971 -120.999c13.333 -31.333 32.166 -53.5 56.499 -66.5s51.166 -19.5 80.499 -19.5c32 0 60.833 6.5 86.5 19.5s48.834 30.833 69.501 53.5l32 -24c-12 -16 -24.833 -31 -38.5 -45s-29.167 -26.333 -46.5 -37
s-36.666 -19 -57.999 -25s-45 -9 -71 -9c-46 0 -86.667 9.83301 -122 29.5s-62.333 48.5 -81 86.5c-10 20.667 -17.333 43.5 -22 68.5s-7 52.167 -7 81.5c0 94 21.333 166.5 64 217.5s101.334 76.5 176.001 76.5c68.667 0 121.334 -21.167 158.001 -63.5
s55 -100.833 55 -175.5c0 -6.66699 -0.166992 -12.834 -0.5 -18.501s-1.16602 -15.167 -2.49902 -28.5h-349zM280.997 496.001c-80 0 -124 -61 -132 -183h250v33c0 48 -10.167 85 -30.5 111s-49.5 39 -87.5 39zM429.997 639.001h-53l-83 91l-83 -91h-53l88 151h95z" />
    <glyph glyph-name="edieresis" unicode="&#xeb;" 
d="M148 264c0 -48.667 6.66406 -88.999 19.9971 -120.999c13.333 -31.333 32.166 -53.5 56.499 -66.5s51.166 -19.5 80.499 -19.5c32 0 60.833 6.5 86.5 19.5s48.834 30.833 69.501 53.5l32 -24c-12 -16 -24.833 -31 -38.5 -45s-29.167 -26.333 -46.5 -37
s-36.666 -19 -57.999 -25s-45 -9 -71 -9c-46 0 -86.667 9.83301 -122 29.5s-62.333 48.5 -81 86.5c-10 20.667 -17.333 43.5 -22 68.5s-7 52.167 -7 81.5c0 94 21.333 166.5 64 217.5s101.334 76.5 176.001 76.5c68.667 0 121.334 -21.167 158.001 -63.5
s55 -100.833 55 -175.5c0 -6.66699 -0.166992 -12.834 -0.5 -18.501s-1.16602 -15.167 -2.49902 -28.5h-349zM280.997 496.001c-80 0 -124 -61 -132 -183h250v33c0 48 -10.167 85 -30.5 111s-49.5 39 -87.5 39zM113.997 705.001c0 18.667 5.16699 33.167 15.5 43.5
s24.5 15.5 42.5 15.5s32.333 -5.33301 43 -16s16 -25 16 -43s-5.16699 -32.167 -15.5 -42.5s-24.833 -15.5 -43.5 -15.5c-18 0 -32.167 5.16699 -42.5 15.5s-15.5 24.5 -15.5 42.5zM343.997 705.001c0 18.667 5.16699 33.167 15.5 43.5s24.5 15.5 42.5 15.5
s32.333 -5.33301 43 -16s16 -25 16 -43s-5.16699 -32.167 -15.5 -42.5s-24.833 -15.5 -43.5 -15.5c-18 0 -32.167 5.16699 -42.5 15.5s-15.5 24.5 -15.5 42.5z" />
    <glyph glyph-name="igrave" unicode="&#xec;" horiz-adv-x="312" 
d="M36 499v41h174v-480l77 -19v-41h-251v41l77 19v420zM189 639l-53 0.000976562l-38 28c-32 23.333 -54.667 42.166 -68 56.499s-20 26.5 -20 36.5c0 12 4 20.833 12 26.5s19 8.5 33 8.5s26.833 -5.83301 38.5 -17.5s27.167 -32.5 46.5 -62.5z" />
    <glyph glyph-name="iacute" unicode="&#xed;" horiz-adv-x="312" 
d="M36 499v41h174v-480l77 -19v-41h-251v41l77 19v420zM183 715c19.333 30 34.833 50.832 46.5 62.499s24.5 17.5 38.5 17.5s25 -2.83301 33 -8.5s12 -14.5 12 -26.5c0 -10 -6.66699 -22.167 -20 -36.5s-36 -33.166 -68 -56.499l-38 -28h-53z" />
    <glyph glyph-name="icircumflex" unicode="&#xee;" horiz-adv-x="312" 
d="M36 499v41h174v-480l77 -19v-41h-251v41l77 19v420zM297 639h-53l-83 91l-83 -91h-53l88 151h95z" />
    <glyph glyph-name="idieresis" unicode="&#xef;" horiz-adv-x="312" 
d="M36 499v41h174v-480l77 -19v-41h-251v41l77 19v420zM-12 705c0 18.667 5.16699 33.167 15.5 43.5s24.5 15.5 42.5 15.5s32.333 -5.33301 43 -16s16 -25 16 -43s-5.16699 -32.167 -15.5 -42.5s-24.833 -15.5 -43.5 -15.5c-18 0 -32.167 5.16699 -42.5 15.5
s-15.5 24.5 -15.5 42.5zM218 705c0 18.667 5.16699 33.167 15.5 43.5s24.5 15.5 42.5 15.5s32.333 -5.33301 43 -16s16 -25 16 -43s-5.16699 -32.167 -15.5 -42.5s-24.833 -15.5 -43.5 -15.5c-18 0 -32.167 5.16699 -42.5 15.5s-15.5 24.5 -15.5 42.5z" />
    <glyph glyph-name="eth" unicode="&#xf0;" horiz-adv-x="569" 
d="M139 210c0 -110 44.333 -165 133 -165s133 55 133 165c0 108.667 -44.333 163 -133 163s-133 -54.333 -133 -163zM426 351c-2.66699 46 -12.332 89.833 -28.999 131.5s-38.334 78.5 -65.001 110.5l-133 -58l-23 51l121 53c-9.33301 11.333 -19.833 23.333 -31.5 36
s-23.5 24.667 -35.5 36l52 19c8.66699 -6 18.334 -14.167 29.001 -24.5s24.667 -24.5 42 -42.5l89 39l25 -48l-75 -33c23.333 -28.667 43.166 -56.167 59.499 -82.5s29.666 -52.666 39.999 -78.999s17.833 -53 22.5 -80s7 -55.5 7 -85.5c0 -98 -21.667 -173.167 -65 -225.5
s-106 -78.5 -188 -78.5c-36 0 -68.667 5.16699 -98 15.5s-54.166 25.166 -74.499 44.499s-36 42.5 -47 69.5s-16.5 57.5 -16.5 91.5c0 32.667 5.16699 62.5 15.5 89.5s24.833 50 43.5 69s41 33.833 67 44.5s55 16 87 16c36.667 0 70.667 -7 102 -21s56.333 -33.333 75 -58h4
z" />
    <glyph glyph-name="ntilde" unicode="&#xf1;" horiz-adv-x="655" 
d="M113 480l-77.001 18.999v41h144l22 -100h4c20 34 46.833 60.833 80.5 80.5s70.167 29.5 109.5 29.5c26.667 0 50.667 -4.66699 72 -14s38.333 -22.666 51 -39.999c13.333 -18.667 22.833 -44.834 28.5 -78.501s8.5 -79.167 8.5 -136.5v-221l77 -19v-41h-241v41l67 19v223
c0 42.667 -1.16699 74.834 -3.5 96.501s-6.5 38.5 -12.5 50.5c-16.667 32.667 -46 49 -88 49c-18.667 0 -36.667 -3.33301 -54 -10s-32.666 -15.667 -45.999 -27c-14.667 -13.333 -25.5 -28.833 -32.5 -46.5s-11.167 -40.5 -12.5 -68.5v-267l67 -19v-41h-241v41l77 19v420z
M162.999 638.999c10.667 76.667 48 115 112 115c16.667 0 31.334 -2.83301 44.001 -8.5s24.334 -12 35.001 -19s21.167 -13.333 31.5 -19s22.166 -8.5 35.499 -8.5c20 0 35 4.33301 45 13s16.667 21 20 37h45c-12 -80.667 -49.333 -121 -112 -121
c-16.667 0 -31.167 2.83301 -43.5 8.5s-24 12 -35 19s-21.833 13.5 -32.5 19.5s-22.334 9 -35.001 9c-20 0 -35 -4 -45 -12s-16.667 -19 -20 -33h-45z" />
    <glyph glyph-name="ograve" unicode="&#xf2;" horiz-adv-x="582" 
d="M536 275c0 -44 -6.5 -85.333 -19.5 -124s-31.167 -70.667 -54.5 -96c-39.333 -43.333 -97.333 -65 -174 -65c-74.667 0 -131.667 21 -171 63c-22.667 24.667 -40.167 55.167 -52.5 91.5s-18.5 75.833 -18.5 118.5c0 44 6.33301 85.667 19 125s31 71.666 55 96.999
c21.333 22.667 46 39.167 74 49.5s60.667 15.5 98 15.5c36.667 0 69.667 -5.16699 99 -15.5s54 -26.166 74 -47.499c23.333 -24.667 41 -55.5 53 -92.5s18 -76.833 18 -119.5zM153 274c0 -80 12.001 -139.667 36.001 -179c11.333 -17.333 24.833 -30.5 40.5 -39.5
s36.167 -13.5 61.5 -13.5c46 0 80.333 15.667 103 47c12 17.333 20.833 41.333 26.5 72s8.5 66 8.5 106c0 79.333 -12 138.666 -36 177.999c-11.333 17.333 -25 30.5 -41 39.5s-36.667 13.5 -62 13.5c-46.667 0 -80.334 -15.333 -101.001 -46
c-24 -37.333 -36 -96.666 -36 -177.999zM319.001 639l-53 0.000976562l-38 28c-32 23.333 -54.667 42.166 -68 56.499s-20 26.5 -20 36.5c0 12 4 20.833 12 26.5s19 8.5 33 8.5s26.833 -5.83301 38.5 -17.5s27.167 -32.5 46.5 -62.5z" />
    <glyph glyph-name="oacute" unicode="&#xf3;" horiz-adv-x="582" 
d="M536 275c0 -44 -6.5 -85.333 -19.5 -124s-31.167 -70.667 -54.5 -96c-39.333 -43.333 -97.333 -65 -174 -65c-74.667 0 -131.667 21 -171 63c-22.667 24.667 -40.167 55.167 -52.5 91.5s-18.5 75.833 -18.5 118.5c0 44 6.33301 85.667 19 125s31 71.666 55 96.999
c21.333 22.667 46 39.167 74 49.5s60.667 15.5 98 15.5c36.667 0 69.667 -5.16699 99 -15.5s54 -26.166 74 -47.499c23.333 -24.667 41 -55.5 53 -92.5s18 -76.833 18 -119.5zM153 274c0 -80 12.001 -139.667 36.001 -179c11.333 -17.333 24.833 -30.5 40.5 -39.5
s36.167 -13.5 61.5 -13.5c46 0 80.333 15.667 103 47c12 17.333 20.833 41.333 26.5 72s8.5 66 8.5 106c0 79.333 -12 138.666 -36 177.999c-11.333 17.333 -25 30.5 -41 39.5s-36.667 13.5 -62 13.5c-46.667 0 -80.334 -15.333 -101.001 -46
c-24 -37.333 -36 -96.666 -36 -177.999zM313.001 715c19.333 30 34.833 50.832 46.5 62.499s24.5 17.5 38.5 17.5s25 -2.83301 33 -8.5s12 -14.5 12 -26.5c0 -10 -6.66699 -22.167 -20 -36.5s-36 -33.166 -68 -56.499l-38 -28h-53z" />
    <glyph glyph-name="ocircumflex" unicode="&#xf4;" horiz-adv-x="582" 
d="M536 275c0 -44 -6.5 -85.333 -19.5 -124s-31.167 -70.667 -54.5 -96c-39.333 -43.333 -97.333 -65 -174 -65c-74.667 0 -131.667 21 -171 63c-22.667 24.667 -40.167 55.167 -52.5 91.5s-18.5 75.833 -18.5 118.5c0 44 6.33301 85.667 19 125s31 71.666 55 96.999
c21.333 22.667 46 39.167 74 49.5s60.667 15.5 98 15.5c36.667 0 69.667 -5.16699 99 -15.5s54 -26.166 74 -47.499c23.333 -24.667 41 -55.5 53 -92.5s18 -76.833 18 -119.5zM153 274c0 -80 12.001 -139.667 36.001 -179c11.333 -17.333 24.833 -30.5 40.5 -39.5
s36.167 -13.5 61.5 -13.5c46 0 80.333 15.667 103 47c12 17.333 20.833 41.333 26.5 72s8.5 66 8.5 106c0 79.333 -12 138.666 -36 177.999c-11.333 17.333 -25 30.5 -41 39.5s-36.667 13.5 -62 13.5c-46.667 0 -80.334 -15.333 -101.001 -46
c-24 -37.333 -36 -96.666 -36 -177.999zM427.001 639h-53l-83 91l-83 -91h-53l88 151h95z" />
    <glyph glyph-name="otilde" unicode="&#xf5;" horiz-adv-x="582" 
d="M536 275c0 -44 -6.5 -85.333 -19.5 -124s-31.167 -70.667 -54.5 -96c-39.333 -43.333 -97.333 -65 -174 -65c-74.667 0 -131.667 21 -171 63c-22.667 24.667 -40.167 55.167 -52.5 91.5s-18.5 75.833 -18.5 118.5c0 44 6.33301 85.667 19 125s31 71.666 55 96.999
c21.333 22.667 46 39.167 74 49.5s60.667 15.5 98 15.5c36.667 0 69.667 -5.16699 99 -15.5s54 -26.166 74 -47.499c23.333 -24.667 41 -55.5 53 -92.5s18 -76.833 18 -119.5zM153 274c0 -80 12.001 -139.667 36.001 -179c11.333 -17.333 24.833 -30.5 40.5 -39.5
s36.167 -13.5 61.5 -13.5c46 0 80.333 15.667 103 47c12 17.333 20.833 41.333 26.5 72s8.5 66 8.5 106c0 79.333 -12 138.666 -36 177.999c-11.333 17.333 -25 30.5 -41 39.5s-36.667 13.5 -62 13.5c-46.667 0 -80.334 -15.333 -101.001 -46
c-24 -37.333 -36 -96.666 -36 -177.999zM107.001 639c10.667 76.667 48 115 112 115c16.667 0 31.334 -2.83301 44.001 -8.5s24.334 -12 35.001 -19s21.167 -13.333 31.5 -19s22.166 -8.5 35.499 -8.5c20 0 35 4.33301 45 13s16.667 21 20 37h45
c-12 -80.667 -49.333 -121 -112 -121c-16.667 0 -31.167 2.83301 -43.5 8.5s-24 12 -35 19s-21.833 13.5 -32.5 19.5s-22.334 9 -35.001 9c-20 0 -35 -4 -45 -12s-16.667 -19 -20 -33h-45z" />
    <glyph glyph-name="odieresis" unicode="&#xf6;" horiz-adv-x="582" 
d="M536 275c0 -44 -6.5 -85.333 -19.5 -124s-31.167 -70.667 -54.5 -96c-39.333 -43.333 -97.333 -65 -174 -65c-74.667 0 -131.667 21 -171 63c-22.667 24.667 -40.167 55.167 -52.5 91.5s-18.5 75.833 -18.5 118.5c0 44 6.33301 85.667 19 125s31 71.666 55 96.999
c21.333 22.667 46 39.167 74 49.5s60.667 15.5 98 15.5c36.667 0 69.667 -5.16699 99 -15.5s54 -26.166 74 -47.499c23.333 -24.667 41 -55.5 53 -92.5s18 -76.833 18 -119.5zM153 274c0 -80 12.001 -139.667 36.001 -179c11.333 -17.333 24.833 -30.5 40.5 -39.5
s36.167 -13.5 61.5 -13.5c46 0 80.333 15.667 103 47c12 17.333 20.833 41.333 26.5 72s8.5 66 8.5 106c0 79.333 -12 138.666 -36 177.999c-11.333 17.333 -25 30.5 -41 39.5s-36.667 13.5 -62 13.5c-46.667 0 -80.334 -15.333 -101.001 -46
c-24 -37.333 -36 -96.666 -36 -177.999zM118.001 705c0 18.667 5.16699 33.167 15.5 43.5s24.5 15.5 42.5 15.5s32.333 -5.33301 43 -16s16 -25 16 -43s-5.16699 -32.167 -15.5 -42.5s-24.833 -15.5 -43.5 -15.5c-18 0 -32.167 5.16699 -42.5 15.5s-15.5 24.5 -15.5 42.5z
M348.001 705c0 18.667 5.16699 33.167 15.5 43.5s24.5 15.5 42.5 15.5s32.333 -5.33301 43 -16s16 -25 16 -43s-5.16699 -32.167 -15.5 -42.5s-24.833 -15.5 -43.5 -15.5c-18 0 -32.167 5.16699 -42.5 15.5s-15.5 24.5 -15.5 42.5z" />
    <glyph glyph-name="divide" unicode="&#xf7;" horiz-adv-x="555" 
d="M59 379h438v-54h-438v54zM222 174c0 19.333 5.16699 34.333 15.5 45s24.833 16 43.5 16s33.334 -5.5 44.001 -16.5s16 -25.833 16 -44.5s-5.33301 -33.167 -16 -43.5s-25.334 -15.5 -44.001 -15.5c-39.333 0 -59 19.667 -59 59zM222 528c0 19.333 5.16699 34.333 15.5 45
s24.833 16 43.5 16s33.334 -5.5 44.001 -16.5s16 -25.833 16 -44.5s-5.33301 -33.167 -16 -43.5s-25.334 -15.5 -44.001 -15.5c-39.333 0 -59 19.667 -59 59z" />
    <glyph glyph-name="oslash" unicode="&#xf8;" horiz-adv-x="582" 
d="M536 275c0 -44 -6.5 -85.333 -19.5 -124s-31.167 -70.667 -54.5 -96c-39.333 -43.333 -97.333 -65 -174 -65c-34 0 -65.667 4.66699 -95 14l-33 -64h-64l47 90c-10 6.66699 -18.667 14.334 -26 23.001c-22.667 24.667 -40.167 55.167 -52.5 91.5
s-18.5 75.833 -18.5 118.5c0 44 6.33301 85.667 19 125s31 71.666 55 96.999c21.333 22.667 46 39.167 74 49.5s60.667 15.5 98 15.5c42 0 79 -7 111 -21l27 53h64l-43 -82l14 -13c23.333 -24.667 41 -55.5 53 -92.5s18 -76.833 18 -119.5zM153 274
c0 -37.333 2.66895 -69.834 8.00195 -97.501s12.666 -51.167 21.999 -70.5l189 364c-10 9.33301 -21.667 16.333 -35 21s-29 7 -47 7c-46.667 0 -80.334 -15.333 -101.001 -46c-24 -37.333 -36 -96.666 -36 -177.999zM429.002 266.999c0 60 -7.33301 109.333 -22 148
l-185 -356c17.333 -11.333 40.333 -17 69 -17c46 0 80.333 15.667 103 47c12 17.333 20.833 41.333 26.5 72s8.5 66 8.5 106z" />
    <glyph glyph-name="ugrave" unicode="&#xf9;" horiz-adv-x="633" 
d="M193 257c0 -21.333 0.331055 -40 0.998047 -56s1.5 -29.667 2.5 -41s2.5 -21 4.5 -29s4.66699 -15 8 -21c15.333 -32.667 43.333 -49 84 -49c18 0 35.333 3.33301 52 10s31.334 15.667 44.001 27c14.667 13.333 25.5 28.833 32.5 46.5s11.167 40.5 12.5 68.5v267l-87 19
v41h184v-480l77 -19v-41l-155 -10l-11 110h-4c-19.333 -34 -45.666 -60.833 -78.999 -80.5s-69 -29.5 -107 -29.5c-25.333 0 -48.5 4.66699 -69.5 14s-37.5 22.666 -49.5 39.999c-13.333 18.667 -22.833 44.834 -28.5 78.501s-8.5 79.167 -8.5 136.5v221l-67 19v41h164v-283
zM338.998 639l-53 0.000976562l-38 28c-32 23.333 -54.667 42.166 -68 56.499s-20 26.5 -20 36.5c0 12 4 20.833 12 26.5s19 8.5 33 8.5s26.833 -5.83301 38.5 -17.5s27.167 -32.5 46.5 -62.5z" />
    <glyph glyph-name="uacute" unicode="&#xfa;" horiz-adv-x="633" 
d="M193 257c0 -21.333 0.331055 -40 0.998047 -56s1.5 -29.667 2.5 -41s2.5 -21 4.5 -29s4.66699 -15 8 -21c15.333 -32.667 43.333 -49 84 -49c18 0 35.333 3.33301 52 10s31.334 15.667 44.001 27c14.667 13.333 25.5 28.833 32.5 46.5s11.167 40.5 12.5 68.5v267l-87 19
v41h184v-480l77 -19v-41l-155 -10l-11 110h-4c-19.333 -34 -45.666 -60.833 -78.999 -80.5s-69 -29.5 -107 -29.5c-25.333 0 -48.5 4.66699 -69.5 14s-37.5 22.666 -49.5 39.999c-13.333 18.667 -22.833 44.834 -28.5 78.501s-8.5 79.167 -8.5 136.5v221l-67 19v41h164v-283
zM332.998 715c19.333 30 34.833 50.832 46.5 62.499s24.5 17.5 38.5 17.5s25 -2.83301 33 -8.5s12 -14.5 12 -26.5c0 -10 -6.66699 -22.167 -20 -36.5s-36 -33.166 -68 -56.499l-38 -28h-53z" />
    <glyph glyph-name="ucircumflex" unicode="&#xfb;" horiz-adv-x="633" 
d="M193 257c0 -21.333 0.331055 -40 0.998047 -56s1.5 -29.667 2.5 -41s2.5 -21 4.5 -29s4.66699 -15 8 -21c15.333 -32.667 43.333 -49 84 -49c18 0 35.333 3.33301 52 10s31.334 15.667 44.001 27c14.667 13.333 25.5 28.833 32.5 46.5s11.167 40.5 12.5 68.5v267l-87 19
v41h184v-480l77 -19v-41l-155 -10l-11 110h-4c-19.333 -34 -45.666 -60.833 -78.999 -80.5s-69 -29.5 -107 -29.5c-25.333 0 -48.5 4.66699 -69.5 14s-37.5 22.666 -49.5 39.999c-13.333 18.667 -22.833 44.834 -28.5 78.501s-8.5 79.167 -8.5 136.5v221l-67 19v41h164v-283
zM446.998 639h-53l-83 91l-83 -91h-53l88 151h95z" />
    <glyph glyph-name="udieresis" unicode="&#xfc;" horiz-adv-x="633" 
d="M193 257c0 -21.333 0.331055 -40 0.998047 -56s1.5 -29.667 2.5 -41s2.5 -21 4.5 -29s4.66699 -15 8 -21c15.333 -32.667 43.333 -49 84 -49c18 0 35.333 3.33301 52 10s31.334 15.667 44.001 27c14.667 13.333 25.5 28.833 32.5 46.5s11.167 40.5 12.5 68.5v267l-87 19
v41h184v-480l77 -19v-41l-155 -10l-11 110h-4c-19.333 -34 -45.666 -60.833 -78.999 -80.5s-69 -29.5 -107 -29.5c-25.333 0 -48.5 4.66699 -69.5 14s-37.5 22.666 -49.5 39.999c-13.333 18.667 -22.833 44.834 -28.5 78.501s-8.5 79.167 -8.5 136.5v221l-67 19v41h164v-283
zM137.998 705c0 18.667 5.16699 33.167 15.5 43.5s24.5 15.5 42.5 15.5s32.333 -5.33301 43 -16s16 -25 16 -43s-5.16699 -32.167 -15.5 -42.5s-24.833 -15.5 -43.5 -15.5c-18 0 -32.167 5.16699 -42.5 15.5s-15.5 24.5 -15.5 42.5zM367.998 705
c0 18.667 5.16699 33.167 15.5 43.5s24.5 15.5 42.5 15.5s32.333 -5.33301 43 -16s16 -25 16 -43s-5.16699 -32.167 -15.5 -42.5s-24.833 -15.5 -43.5 -15.5c-18 0 -32.167 5.16699 -42.5 15.5s-15.5 24.5 -15.5 42.5z" />
    <glyph glyph-name="yacute" unicode="&#xfd;" horiz-adv-x="590" 
d="M348 24c-14 -38.667 -26.8281 -71.667 -38.4951 -99s-23.834 -49.5 -36.501 -66.5s-26.834 -29.333 -42.501 -37s-34.5 -11.5 -56.5 -11.5c-16 0 -30.833 2.16699 -44.5 6.5s-25.667 10.5 -36 18.5s-18.5 17.333 -24.5 28s-9 22.334 -9 35.001
c0 18.667 5.33301 34.167 16 46.5s24.667 18.5 42 18.5c15.333 0 27.5 -4.16699 36.5 -12.5s13.5 -19.833 13.5 -34.5c0 -9.33301 -1.83301 -18.333 -5.5 -27s-8.5 -16.334 -14.5 -23.001c1.33301 -7.33301 5.16602 -12 11.499 -14s12.166 -3 17.499 -3
c6.66699 0 13.167 1 19.5 3s12.666 6.83301 18.999 14.5s13 18.5 20 32.5s14.5 33 22.5 57l12 37l-207 487l-60 19v41h224l8 -41l-71 -19l149 -392h4l126 392l-58 19v41h190v-41l-61 -19zM307.005 715c19.333 30 34.833 50.832 46.5 62.499s24.5 17.5 38.5 17.5
s25 -2.83301 33 -8.5s12 -14.5 12 -26.5c0 -10 -6.66699 -22.167 -20 -36.5s-36 -33.166 -68 -56.499l-38 -28h-53z" />
    <glyph glyph-name="thorn" unicode="&#xfe;" horiz-adv-x="600" 
d="M554 275c0 -40 -6.33398 -78.667 -19.001 -116s-30 -68.666 -52 -93.999c-37.333 -43.333 -91 -65 -161 -65c-32 0 -59.333 6 -82 18s-42.667 31 -60 57v-195l97 -19v-41h-271v41l77 19v840l-77 19v41h174v-298c18.667 23.333 39.834 40.5 63.501 51.5
s52.5 16.5 86.5 16.5c72.667 0 126 -21 160 -63c20.667 -25.333 36.5 -56.333 47.5 -93s16.5 -76.334 16.5 -119.001zM179.999 274c0 -39.333 2.83105 -72.501 8.49805 -99.501s14.5 -50.167 26.5 -69.5c21.333 -35.333 54.666 -53 99.999 -53c22 0 41.667 4 59 12
s31.333 19.667 42 35s18.834 37.5 24.501 66.5s8.5 62.833 8.5 101.5c0 40 -2.66699 74.833 -8 104.5s-14 54.167 -26 73.5c-11.333 18.667 -25.166 32.167 -41.499 40.5s-36.166 12.5 -59.499 12.5c-48.667 0 -81.667 -15.333 -99 -46
c-23.333 -39.333 -35 -98.666 -35 -177.999z" />
    <glyph glyph-name="ydieresis" unicode="&#xff;" horiz-adv-x="590" 
d="M348 24c-14 -38.667 -26.8281 -71.667 -38.4951 -99s-23.834 -49.5 -36.501 -66.5s-26.834 -29.333 -42.501 -37s-34.5 -11.5 -56.5 -11.5c-16 0 -30.833 2.16699 -44.5 6.5s-25.667 10.5 -36 18.5s-18.5 17.333 -24.5 28s-9 22.334 -9 35.001
c0 18.667 5.33301 34.167 16 46.5s24.667 18.5 42 18.5c15.333 0 27.5 -4.16699 36.5 -12.5s13.5 -19.833 13.5 -34.5c0 -9.33301 -1.83301 -18.333 -5.5 -27s-8.5 -16.334 -14.5 -23.001c1.33301 -7.33301 5.16602 -12 11.499 -14s12.166 -3 17.499 -3
c6.66699 0 13.167 1 19.5 3s12.666 6.83301 18.999 14.5s13 18.5 20 32.5s14.5 33 22.5 57l12 37l-207 487l-60 19v41h224l8 -41l-71 -19l149 -392h4l126 392l-58 19v41h190v-41l-61 -19zM140.005 705c0 18.667 5.16699 33.167 15.5 43.5s24.5 15.5 42.5 15.5
s32.333 -5.33301 43 -16s16 -25 16 -43s-5.16699 -32.167 -15.5 -42.5s-24.833 -15.5 -43.5 -15.5c-18 0 -32.167 5.16699 -42.5 15.5s-15.5 24.5 -15.5 42.5zM370.005 705c0 18.667 5.16699 33.167 15.5 43.5s24.5 15.5 42.5 15.5s32.333 -5.33301 43 -16s16 -25 16 -43
s-5.16699 -32.167 -15.5 -42.5s-24.833 -15.5 -43.5 -15.5c-18 0 -32.167 5.16699 -42.5 15.5s-15.5 24.5 -15.5 42.5z" />
    <glyph glyph-name="Amacron" unicode="&#x100;" horiz-adv-x="721" 
d="M473 242h-268l-61 -178l83 -21v-43h-234v43l82 21l240 666h93l237 -666l80 -21v-43h-275v43l82 21zM225 300h229l-108 341h-4zM222 861h279v-65h-279v65z" />
    <glyph glyph-name="amacron" unicode="&#x101;" horiz-adv-x="537" 
d="M38 117c0 26 5.83203 48.999 17.499 68.999s30.167 37.833 55.5 53.5s58 29.167 98 40.5s88 21.333 144 30c-3.33301 39.333 -7.16602 70 -11.499 92s-10.166 39.667 -17.499 53c-9.33301 17.333 -22.333 30.166 -39 38.499s-34.667 12.5 -54 12.5
c-18.667 0 -35.5 -3.33301 -50.5 -10s-25.167 -15.667 -30.5 -27c9.33301 -7.33301 16.166 -16.166 20.499 -26.499s6.5 -20.166 6.5 -29.499c0 -16.667 -5.5 -29.834 -16.5 -39.501s-24.5 -14.5 -40.5 -14.5s-29.167 5.33301 -39.5 16s-15.5 25.667 -15.5 45
c0 20.667 5.66699 39.167 17 55.5s26.166 30 44.499 41s39 19.333 62 25s45.833 8.5 68.5 8.5c56.667 0 101.334 -16.333 134.001 -49c41.333 -41.333 62 -114.666 62 -219.999v-145c0 -33.333 2.16699 -56.166 6.5 -68.499s13.833 -18.5 28.5 -18.5h45v-30
c-48 -19.333 -85.333 -29 -112 -29c-10 0 -18.333 1.66699 -25 5s-12 9.16602 -16 17.499s-6.83301 19.5 -8.5 33.5s-2.5 31.667 -2.5 53h-4c-20.667 -34 -48 -60.667 -82 -80s-70.667 -29 -110 -29c-42 0 -75 11.167 -99 33.5s-36 53.5 -36 93.5zM214.999 47.999
c18.667 0 38.167 4.83496 58.5 14.502s37.5 23.167 51.5 40.5c20.667 25.333 31 62.666 31 111.999c0 11.333 -0.333008 22.5 -1 33.5s-1.66699 21.5 -3 31.5c-40.667 -8 -74.5 -16.333 -101.5 -25s-48.667 -18.5 -65 -29.5s-27.833 -23.667 -34.5 -38
s-10 -30.833 -10 -49.5c0 -28.667 6.5 -50.834 19.5 -66.501s31.167 -23.5 54.5 -23.5zM122.999 730.001h279v-65h-279v65z" />
    <glyph glyph-name="Abreve" unicode="&#x102;" horiz-adv-x="721" 
d="M473 242h-268l-61 -178l83 -21v-43h-234v43l82 21l240 666h93l237 -666l80 -21v-43h-275v43l82 21zM225 300h229l-108 341h-4zM515 890c-1.33301 -44.667 -16.332 -79.333 -44.999 -104s-64.667 -37 -108 -37c-45.333 0 -80.166 13 -104.499 39s-36.5 60 -36.5 102h48
c1.33301 -25.333 10.666 -43.666 27.999 -54.999s39 -17 65 -17c33.333 0 59.166 5.66699 77.499 17s27.5 29.666 27.5 54.999h48z" />
    <glyph glyph-name="abreve" unicode="&#x103;" horiz-adv-x="537" 
d="M38 117c0 26 5.83203 48.999 17.499 68.999s30.167 37.833 55.5 53.5s58 29.167 98 40.5s88 21.333 144 30c-3.33301 39.333 -7.16602 70 -11.499 92s-10.166 39.667 -17.499 53c-9.33301 17.333 -22.333 30.166 -39 38.499s-34.667 12.5 -54 12.5
c-18.667 0 -35.5 -3.33301 -50.5 -10s-25.167 -15.667 -30.5 -27c9.33301 -7.33301 16.166 -16.166 20.499 -26.499s6.5 -20.166 6.5 -29.499c0 -16.667 -5.5 -29.834 -16.5 -39.501s-24.5 -14.5 -40.5 -14.5s-29.167 5.33301 -39.5 16s-15.5 25.667 -15.5 45
c0 20.667 5.66699 39.167 17 55.5s26.166 30 44.499 41s39 19.333 62 25s45.833 8.5 68.5 8.5c56.667 0 101.334 -16.333 134.001 -49c41.333 -41.333 62 -114.666 62 -219.999v-145c0 -33.333 2.16699 -56.166 6.5 -68.499s13.833 -18.5 28.5 -18.5h45v-30
c-48 -19.333 -85.333 -29 -112 -29c-10 0 -18.333 1.66699 -25 5s-12 9.16602 -16 17.499s-6.83301 19.5 -8.5 33.5s-2.5 31.667 -2.5 53h-4c-20.667 -34 -48 -60.667 -82 -80s-70.667 -29 -110 -29c-42 0 -75 11.167 -99 33.5s-36 53.5 -36 93.5zM214.999 47.999
c18.667 0 38.167 4.83496 58.5 14.502s37.5 23.167 51.5 40.5c20.667 25.333 31 62.666 31 111.999c0 11.333 -0.333008 22.5 -1 33.5s-1.66699 21.5 -3 31.5c-40.667 -8 -74.5 -16.333 -101.5 -25s-48.667 -18.5 -65 -29.5s-27.833 -23.667 -34.5 -38
s-10 -30.833 -10 -49.5c0 -28.667 6.5 -50.834 19.5 -66.501s31.167 -23.5 54.5 -23.5zM396.999 780.001c-0.666992 -24 -5 -45.333 -13 -64s-18.667 -34.5 -32 -47.5s-29.166 -22.833 -47.499 -29.5s-38.5 -10 -60.5 -10c-45.333 0 -80.166 13.833 -104.499 41.5
s-36.5 64.167 -36.5 109.5h48c1.33301 -29.333 10.666 -50.333 27.999 -63s39 -19 65 -19c33.333 0 59.166 6.33301 77.499 19s27.5 33.667 27.5 63h48z" />
    <glyph glyph-name="Aogonek" unicode="&#x104;" horiz-adv-x="721" 
d="M578 -210c-30 0 -54.167 7.83301 -72.5 23.5s-27.5 36.167 -27.5 61.5c0 45.333 30 87 90 125h-118v43l82 21l-59 178h-268l-61 -178l83 -21v-43h-234v43l82 21l240 666h93l237 -666l80 -21v-43h-111c-42.667 -33.333 -64 -68.333 -64 -105c0 -31.333 16.667 -47 50 -47
c12 0 24.333 1.66699 37 5s23 8.33301 31 15l15 -22c-24 -37.333 -59 -56 -105 -56zM225 300h229l-108 341h-4z" />
    <glyph glyph-name="aogonek" unicode="&#x105;" horiz-adv-x="537" 
d="M404 -210c-30 0 -54.168 7.83008 -72.501 23.4971s-27.5 36.167 -27.5 61.5c0 44.667 29 85.667 87 123c-8.66699 6 -14.5 16.833 -17.5 32.5s-4.5 38.5 -4.5 68.5h-4c-20.667 -34 -48 -60.667 -82 -80s-70.667 -29 -110 -29c-42 0 -75 11.167 -99 33.5
s-36 53.5 -36 93.5c0 26 5.83301 49 17.5 69s30.167 37.833 55.5 53.5s58 29.167 98 40.5s88 21.333 144 30c-3.33301 39.333 -7.16602 70 -11.499 92s-10.166 39.667 -17.499 53c-9.33301 17.333 -22.333 30.166 -39 38.499s-34.667 12.5 -54 12.5
c-18.667 0 -35.5 -3.33301 -50.5 -10s-25.167 -15.667 -30.5 -27c9.33301 -7.33301 16.166 -16.166 20.499 -26.499s6.5 -20.166 6.5 -29.499c0 -16.667 -5.5 -29.834 -16.5 -39.501s-24.5 -14.5 -40.5 -14.5s-29.167 5.33301 -39.5 16s-15.5 25.667 -15.5 45
c0 20.667 5.66699 39.167 17 55.5s26.166 30 44.499 41s39 19.333 62 25s45.833 8.5 68.5 8.5c56.667 0 101.334 -16.333 134.001 -49c41.333 -41.333 62 -114.666 62 -219.999v-145c0 -33.333 2.16699 -56.166 6.5 -68.499s13.833 -18.5 28.5 -18.5h45v-30
c-21.333 -9.33301 -40.833 -16.166 -58.5 -20.499s-33.167 -7.16602 -46.5 -8.49902c-34.667 -30.667 -52 -62.334 -52 -95.001c0 -31.333 16.667 -47 50 -47c12 0 24.333 1.66699 37 5s23 8.33301 31 15l15 -22c-24 -37.333 -59 -56 -105 -56zM214.999 47.9971
c18.667 0 38.167 4.83496 58.5 14.502s37.5 23.167 51.5 40.5c20.667 25.333 31 62.666 31 111.999c0 11.333 -0.333008 22.5 -1 33.5s-1.66699 21.5 -3 31.5c-40.667 -8 -74.5 -16.333 -101.5 -25s-48.667 -18.5 -65 -29.5s-27.833 -23.667 -34.5 -38
s-10 -30.833 -10 -49.5c0 -28.667 6.5 -50.834 19.5 -66.501s31.167 -23.5 54.5 -23.5z" />
    <glyph glyph-name="Cacute" unicode="&#x106;" horiz-adv-x="684" 
d="M371 676c-63.333 0 -110.666 -20.665 -141.999 -61.998c-20 -26 -35.667 -60.167 -47 -102.5s-17 -88.833 -17 -139.5c0 -48 5 -92.5 15 -133.5s24 -75.5 42 -103.5s39.833 -48.5 65.5 -61.5s57.834 -19.5 96.501 -19.5c59.333 0 106.666 14.167 141.999 42.5
s57.666 70.5 66.999 126.5h55c-15.333 -78.667 -45.333 -137.167 -90 -175.5s-106 -57.5 -184 -57.5c-92 0 -165.333 26.667 -220 80c-32.667 32 -57.667 72.167 -75 120.5s-26 102.5 -26 162.5c0 67.333 11 128.166 33 182.499s53 98.166 93 131.499
c50.667 42 117.667 63 201 63c20.667 0 39.167 -1.16699 55.5 -3.5s31.5 -6.33301 45.5 -12s27.167 -13.167 39.5 -22.5s24.833 -21 37.5 -35l20 63h55v-221h-61c-19.333 118 -86.333 177 -201 177zM416 847.002c14 18 26.832 30.5 38.499 37.5s23.834 10.5 36.501 10.5
c24.667 0 37 -10 37 -30c0 -10.667 -5.83301 -20.5 -17.5 -29.5s-30.167 -21.167 -55.5 -36.5l-47 -29h-53z" />
    <glyph glyph-name="cacute" unicode="&#x107;" horiz-adv-x="536" 
d="M302 550c58 0 104.165 -14.1699 138.498 -42.5029s51.5 -66.166 51.5 -113.499c0 -51.333 -20.667 -77 -62 -77c-19.333 0 -34.333 5.33301 -45 16s-16 25 -16 43c0 16.667 4.5 31 13.5 43s21.167 20.333 36.5 25c-19.333 36.667 -56.333 55 -111 55
s-94.5 -17.667 -119.5 -53s-37.5 -91 -37.5 -167c0 -63.333 8.66699 -111.666 26 -144.999c26.667 -51.333 70.334 -77 131.001 -77c30.667 0 60 6.66699 88 20s52 32.333 72 57l30 -24c-26.667 -41.333 -57.334 -71.666 -92.001 -90.999s-75.334 -29 -122.001 -29
s-87.167 9.5 -121.5 28.5s-61.166 46.833 -80.499 83.5c-11.333 21.333 -20.166 45.833 -26.499 73.5s-9.5 57.167 -9.5 88.5c0 43.333 6 82.5 18 117.5s29.167 65 51.5 90s49.333 44.333 81 58s66.834 20.5 105.501 20.5zM323.998 714.997
c19.333 30 34.833 50.832 46.5 62.499s24.5 17.5 38.5 17.5s25 -2.83301 33 -8.5s12 -14.5 12 -26.5c0 -10 -6.66699 -22.167 -20 -36.5s-36 -33.166 -68 -56.499l-38 -28h-53z" />
    <glyph glyph-name="Ccircumflex" unicode="&#x108;" horiz-adv-x="684" 
d="M371 676c-63.333 0 -110.666 -20.665 -141.999 -61.998c-20 -26 -35.667 -60.167 -47 -102.5s-17 -88.833 -17 -139.5c0 -48 5 -92.5 15 -133.5s24 -75.5 42 -103.5s39.833 -48.5 65.5 -61.5s57.834 -19.5 96.501 -19.5c59.333 0 106.666 14.167 141.999 42.5
s57.666 70.5 66.999 126.5h55c-15.333 -78.667 -45.333 -137.167 -90 -175.5s-106 -57.5 -184 -57.5c-92 0 -165.333 26.667 -220 80c-32.667 32 -57.667 72.167 -75 120.5s-26 102.5 -26 162.5c0 67.333 11 128.166 33 182.499s53 98.166 93 131.499
c50.667 42 117.667 63 201 63c20.667 0 39.167 -1.16699 55.5 -3.5s31.5 -6.33301 45.5 -12s27.167 -13.167 39.5 -22.5s24.833 -21 37.5 -35l20 63h55v-221h-61c-19.333 118 -86.333 177 -201 177zM548 769.002h-53l-113 61l-113 -61h-53l118 121h95z" />
    <glyph glyph-name="ccircumflex" unicode="&#x109;" horiz-adv-x="536" 
d="M302 550c58 0 104.165 -14.1699 138.498 -42.5029s51.5 -66.166 51.5 -113.499c0 -51.333 -20.667 -77 -62 -77c-19.333 0 -34.333 5.33301 -45 16s-16 25 -16 43c0 16.667 4.5 31 13.5 43s21.167 20.333 36.5 25c-19.333 36.667 -56.333 55 -111 55
s-94.5 -17.667 -119.5 -53s-37.5 -91 -37.5 -167c0 -63.333 8.66699 -111.666 26 -144.999c26.667 -51.333 70.334 -77 131.001 -77c30.667 0 60 6.66699 88 20s52 32.333 72 57l30 -24c-26.667 -41.333 -57.334 -71.666 -92.001 -90.999s-75.334 -29 -122.001 -29
s-87.167 9.5 -121.5 28.5s-61.166 46.833 -80.499 83.5c-11.333 21.333 -20.166 45.833 -26.499 73.5s-9.5 57.167 -9.5 88.5c0 43.333 6 82.5 18 117.5s29.167 65 51.5 90s49.333 44.333 81 58s66.834 20.5 105.501 20.5zM437.998 638.997h-53l-83 91l-83 -91h-53l88 151
h95z" />
    <glyph glyph-name="Cdotaccent" unicode="&#x10a;" horiz-adv-x="684" 
d="M371 676c-63.333 0 -110.666 -20.665 -141.999 -61.998c-20 -26 -35.667 -60.167 -47 -102.5s-17 -88.833 -17 -139.5c0 -48 5 -92.5 15 -133.5s24 -75.5 42 -103.5s39.833 -48.5 65.5 -61.5s57.834 -19.5 96.501 -19.5c59.333 0 106.666 14.167 141.999 42.5
s57.666 70.5 66.999 126.5h55c-15.333 -78.667 -45.333 -137.167 -90 -175.5s-106 -57.5 -184 -57.5c-92 0 -165.333 26.667 -220 80c-32.667 32 -57.667 72.167 -75 120.5s-26 102.5 -26 162.5c0 67.333 11 128.166 33 182.499s53 98.166 93 131.499
c50.667 42 117.667 63 201 63c20.667 0 39.167 -1.16699 55.5 -3.5s31.5 -6.33301 45.5 -12s27.167 -13.167 39.5 -22.5s24.833 -21 37.5 -35l20 63h55v-221h-61c-19.333 118 -86.333 177 -201 177zM320 832.002c0 19.333 5.5 34.666 16.5 45.999s26.167 17 45.5 17
s34.666 -5.66699 45.999 -17s17 -26.666 17 -45.999s-5.66699 -34.5 -17 -45.5s-26.666 -16.5 -45.999 -16.5s-34.5 5.5 -45.5 16.5s-16.5 26.167 -16.5 45.5z" />
    <glyph glyph-name="cdotaccent" unicode="&#x10b;" horiz-adv-x="536" 
d="M302 550c58 0 104.165 -14.1699 138.498 -42.5029s51.5 -66.166 51.5 -113.499c0 -51.333 -20.667 -77 -62 -77c-19.333 0 -34.333 5.33301 -45 16s-16 25 -16 43c0 16.667 4.5 31 13.5 43s21.167 20.333 36.5 25c-19.333 36.667 -56.333 55 -111 55
s-94.5 -17.667 -119.5 -53s-37.5 -91 -37.5 -167c0 -63.333 8.66699 -111.666 26 -144.999c26.667 -51.333 70.334 -77 131.001 -77c30.667 0 60 6.66699 88 20s52 32.333 72 57l30 -24c-26.667 -41.333 -57.334 -71.666 -92.001 -90.999s-75.334 -29 -122.001 -29
s-87.167 9.5 -121.5 28.5s-61.166 46.833 -80.499 83.5c-11.333 21.333 -20.166 45.833 -26.499 73.5s-9.5 57.167 -9.5 88.5c0 43.333 6 82.5 18 117.5s29.167 65 51.5 90s49.333 44.333 81 58s66.834 20.5 105.501 20.5zM239.998 700.997c0 19.333 5.5 34.666 16.5 45.999
s26.167 17 45.5 17s34.666 -5.66699 45.999 -17s17 -26.666 17 -45.999s-5.66699 -34.5 -17 -45.5s-26.666 -16.5 -45.999 -16.5s-34.5 5.5 -45.5 16.5s-16.5 26.167 -16.5 45.5z" />
    <glyph glyph-name="Ccaron" unicode="&#x10c;" horiz-adv-x="684" 
d="M371 676c-63.333 0 -110.666 -20.665 -141.999 -61.998c-20 -26 -35.667 -60.167 -47 -102.5s-17 -88.833 -17 -139.5c0 -48 5 -92.5 15 -133.5s24 -75.5 42 -103.5s39.833 -48.5 65.5 -61.5s57.834 -19.5 96.501 -19.5c59.333 0 106.666 14.167 141.999 42.5
s57.666 70.5 66.999 126.5h55c-15.333 -78.667 -45.333 -137.167 -90 -175.5s-106 -57.5 -184 -57.5c-92 0 -165.333 26.667 -220 80c-32.667 32 -57.667 72.167 -75 120.5s-26 102.5 -26 162.5c0 67.333 11 128.166 33 182.499s53 98.166 93 131.499
c50.667 42 117.667 63 201 63c20.667 0 39.167 -1.16699 55.5 -3.5s31.5 -6.33301 45.5 -12s27.167 -13.167 39.5 -22.5s24.833 -21 37.5 -35l20 63h55v-221h-61c-19.333 118 -86.333 177 -201 177zM429 769.002h-95l-118 121h53l113 -61l113 61h53z" />
    <glyph glyph-name="ccaron" unicode="&#x10d;" horiz-adv-x="536" 
d="M302 550c58 0 104.165 -14.1699 138.498 -42.5029s51.5 -66.166 51.5 -113.499c0 -51.333 -20.667 -77 -62 -77c-19.333 0 -34.333 5.33301 -45 16s-16 25 -16 43c0 16.667 4.5 31 13.5 43s21.167 20.333 36.5 25c-19.333 36.667 -56.333 55 -111 55
s-94.5 -17.667 -119.5 -53s-37.5 -91 -37.5 -167c0 -63.333 8.66699 -111.666 26 -144.999c26.667 -51.333 70.334 -77 131.001 -77c30.667 0 60 6.66699 88 20s52 32.333 72 57l30 -24c-26.667 -41.333 -57.334 -71.666 -92.001 -90.999s-75.334 -29 -122.001 -29
s-87.167 9.5 -121.5 28.5s-61.166 46.833 -80.499 83.5c-11.333 21.333 -20.166 45.833 -26.499 73.5s-9.5 57.167 -9.5 88.5c0 43.333 6 82.5 18 117.5s29.167 65 51.5 90s49.333 44.333 81 58s66.834 20.5 105.501 20.5zM354.998 638.997h-106l-83 141h56l80 -91l83 91h53
z" />
    <glyph glyph-name="Dcaron" unicode="&#x10e;" horiz-adv-x="766" 
d="M387 60c70.667 0 122.667 22 156 66c36.667 46.667 55 122.667 55 228c0 104 -18.333 181.333 -55 232c-34.667 49.333 -90 74 -166 74h-145v-600h155zM384 720c99.333 0 176.667 -27.999 232 -83.999c31.333 -32 55.333 -71.333 72 -118s25 -96.667 25 -150
c0 -56.667 -8.66699 -109.334 -26 -158.001s-42 -89.667 -74 -123c-28 -30 -61.333 -52 -100 -66s-84.667 -21 -138 -21h-327v43l84 21v592l-84 21v43h336zM409.001 769.001h-95l-118 121h53l113 -61l113 61h53z" />
    <glyph glyph-name="dcaron" unicode="&#x10f;" horiz-adv-x="620" 
d="M46 265c0 44 5.66797 85.332 17.001 123.999s28.333 70.667 51 96c19.333 21.333 42.166 37.5 68.499 48.5s57.166 16.5 92.499 16.5c30 0 57 -5.66699 81 -17s45.667 -31.666 65 -60.999v248l-77 19v41h174v-720l77 -19v-41l-155 -10l-8 82
c-20.667 -31.333 -44 -52.833 -70 -64.5s-55 -17.5 -87 -17.5c-34 0 -64.667 5 -92 15s-50 26 -68 48c-21.333 26 -38.166 57.167 -50.499 93.5s-18.5 75.833 -18.5 118.5zM421.001 265.999c0 82 -11.666 141.665 -34.999 178.998c-10.667 17.333 -23.667 30.5 -39 39.5
s-35.666 13.5 -60.999 13.5c-45.333 0 -79 -15.667 -101 -47c-12 -17.333 -20.667 -41.333 -26 -72s-8 -66 -8 -106c0 -80 11.667 -139.333 35 -178c11.333 -17.333 24.666 -30.5 39.999 -39.5s35.666 -13.5 60.999 -13.5c23.333 0 43.333 3.83301 60 11.5
s29.667 19.167 39 34.5c11.333 18.667 20 42.834 26 72.501s9 64.834 9 105.501zM613.002 604.997c0 16.667 -0.999023 31.334 -2.99902 44.001s-4.16699 24.5 -6.5 35.5s-4.5 21.5 -6.5 31.5s-3 20.333 -3 31c0 9.33301 2.5 18.833 7.5 28.5s15.833 14.5 32.5 14.5
c15.333 0 25.666 -4.83301 30.999 -14.5s8 -19.167 8 -28.5c0 -10.667 -1 -21 -3 -31s-4.33301 -20.5 -7 -31.5s-5 -22.833 -7 -35.5s-3 -27.334 -3 -44.001h-40z" />
    <glyph glyph-name="Dcroat" unicode="&#x110;" horiz-adv-x="771" 
d="M53 397l84.001 0.000976562v259l-84 21v43h336c99.333 0 176.666 -28 231.999 -84c31.333 -32 55.333 -71.333 72 -118s25 -96.667 25 -150c0 -56.667 -8.66699 -109.334 -26 -158.001s-42 -89.667 -74 -123c-28 -30 -61.333 -52 -100 -66s-84.667 -21 -138 -21h-327v43
l84 21v268h-84v65zM392.001 60.001c70.667 0 122.667 22 156 66c36.667 46.667 55 122.667 55 228c0 104 -18.333 181.333 -55 232c-34.667 49.333 -90 74 -166 74h-145v-263h145v-65h-145v-272h155z" />
    <glyph glyph-name="dcroat" unicode="&#x111;" horiz-adv-x="620" 
d="M314 672l107.001 -0.000976562v48l-77 19v41h174v-108h77v-62h-77v-550l77 -19v-41l-155 -10l-8 82c-20.667 -31.333 -44 -52.833 -70 -64.5s-55 -17.5 -87 -17.5c-34 0 -64.667 5 -92 15s-50 26 -68 48c-21.333 26 -38.166 57.167 -50.499 93.5
s-18.5 75.833 -18.5 118.5c0 44 5.66699 85.333 17 124s28.333 70.667 51 96c19.333 21.333 42.166 37.5 68.499 48.5s57.166 16.5 92.499 16.5c30 0 57 -5.66699 81 -17s45.667 -31.666 65 -60.999v138h-107v62zM421.001 265.999c0 82 -11.666 141.665 -34.999 178.998
c-10.667 17.333 -23.667 30.5 -39 39.5s-35.666 13.5 -60.999 13.5c-45.333 0 -79 -15.667 -101 -47c-12 -17.333 -20.667 -41.333 -26 -72s-8 -66 -8 -106c0 -80 11.667 -139.333 35 -178c11.333 -17.333 24.666 -30.5 39.999 -39.5s35.666 -13.5 60.999 -13.5
c23.333 0 43.333 3.83301 60 11.5s29.667 19.167 39 34.5c11.333 18.667 20 42.834 26 72.501s9 64.834 9 105.501z" />
    <glyph glyph-name="Emacron" unicode="&#x112;" horiz-adv-x="685" 
d="M421 238l-18 102h-166v-280h302l31 163h58v-223h-585v43l94 21v592l-94 21v43h563v-212h-52l-32 154h-285v-262h166l18 102h51v-264h-51zM206 861h279v-65h-279v65z" />
    <glyph glyph-name="emacron" unicode="&#x113;" 
d="M148 264c0 -48.667 6.66406 -88.999 19.9971 -120.999c13.333 -31.333 32.166 -53.5 56.499 -66.5s51.166 -19.5 80.499 -19.5c32 0 60.833 6.5 86.5 19.5s48.834 30.833 69.501 53.5l32 -24c-12 -16 -24.833 -31 -38.5 -45s-29.167 -26.333 -46.5 -37
s-36.666 -19 -57.999 -25s-45 -9 -71 -9c-46 0 -86.667 9.83301 -122 29.5s-62.333 48.5 -81 86.5c-10 20.667 -17.333 43.5 -22 68.5s-7 52.167 -7 81.5c0 94 21.333 166.5 64 217.5s101.334 76.5 176.001 76.5c68.667 0 121.334 -21.167 158.001 -63.5
s55 -100.833 55 -175.5c0 -6.66699 -0.166992 -12.834 -0.5 -18.501s-1.16602 -15.167 -2.49902 -28.5h-349zM280.997 496.001c-80 0 -124 -61 -132 -183h250v33c0 48 -10.167 85 -30.5 111s-49.5 39 -87.5 39zM144.997 730.001h279v-65h-279v65z" />
    <glyph glyph-name="Ebreve" unicode="&#x114;" horiz-adv-x="685" 
d="M421 238l-18 102h-166v-280h302l31 163h58v-223h-585v43l94 21v592l-94 21v43h563v-212h-52l-32 154h-285v-262h166l18 102h51v-264h-51zM499 890c-1.33301 -44.667 -16.332 -79.333 -44.999 -104s-64.667 -37 -108 -37c-45.333 0 -80.166 13 -104.499 39
s-36.5 60 -36.5 102h48c1.33301 -25.333 10.666 -43.666 27.999 -54.999s39 -17 65 -17c33.333 0 59.166 5.66699 77.499 17s27.5 29.666 27.5 54.999h48z" />
    <glyph glyph-name="ebreve" unicode="&#x115;" 
d="M148 264c0 -48.667 6.66406 -88.999 19.9971 -120.999c13.333 -31.333 32.166 -53.5 56.499 -66.5s51.166 -19.5 80.499 -19.5c32 0 60.833 6.5 86.5 19.5s48.834 30.833 69.501 53.5l32 -24c-12 -16 -24.833 -31 -38.5 -45s-29.167 -26.333 -46.5 -37
s-36.666 -19 -57.999 -25s-45 -9 -71 -9c-46 0 -86.667 9.83301 -122 29.5s-62.333 48.5 -81 86.5c-10 20.667 -17.333 43.5 -22 68.5s-7 52.167 -7 81.5c0 94 21.333 166.5 64 217.5s101.334 76.5 176.001 76.5c68.667 0 121.334 -21.167 158.001 -63.5
s55 -100.833 55 -175.5c0 -6.66699 -0.166992 -12.834 -0.5 -18.501s-1.16602 -15.167 -2.49902 -28.5h-349zM280.997 496.001c-80 0 -124 -61 -132 -183h250v33c0 48 -10.167 85 -30.5 111s-49.5 39 -87.5 39zM437.997 780.001c-0.666992 -24 -5 -45.333 -13 -64
s-18.667 -34.5 -32 -47.5s-29.166 -22.833 -47.499 -29.5s-38.5 -10 -60.5 -10c-45.333 0 -80.166 13.833 -104.499 41.5s-36.5 64.167 -36.5 109.5h48c1.33301 -29.333 10.666 -50.333 27.999 -63s39 -19 65 -19c33.333 0 59.166 6.33301 77.499 19s27.5 33.667 27.5 63h48
z" />
    <glyph glyph-name="Edotaccent" unicode="&#x116;" horiz-adv-x="685" 
d="M421 238l-18 102h-166v-280h302l31 163h58v-223h-585v43l94 21v592l-94 21v43h563v-212h-52l-32 154h-285v-262h166l18 102h51v-264h-51zM286 832c0 19.333 5.5 34.666 16.5 45.999s26.167 17 45.5 17s34.666 -5.66699 45.999 -17s17 -26.666 17 -45.999
s-5.66699 -34.5 -17 -45.5s-26.666 -16.5 -45.999 -16.5s-34.5 5.5 -45.5 16.5s-16.5 26.167 -16.5 45.5z" />
    <glyph glyph-name="edotaccent" unicode="&#x117;" 
d="M148 264c0 -48.667 6.66406 -88.999 19.9971 -120.999c13.333 -31.333 32.166 -53.5 56.499 -66.5s51.166 -19.5 80.499 -19.5c32 0 60.833 6.5 86.5 19.5s48.834 30.833 69.501 53.5l32 -24c-12 -16 -24.833 -31 -38.5 -45s-29.167 -26.333 -46.5 -37
s-36.666 -19 -57.999 -25s-45 -9 -71 -9c-46 0 -86.667 9.83301 -122 29.5s-62.333 48.5 -81 86.5c-10 20.667 -17.333 43.5 -22 68.5s-7 52.167 -7 81.5c0 94 21.333 166.5 64 217.5s101.334 76.5 176.001 76.5c68.667 0 121.334 -21.167 158.001 -63.5
s55 -100.833 55 -175.5c0 -6.66699 -0.166992 -12.834 -0.5 -18.501s-1.16602 -15.167 -2.49902 -28.5h-349zM280.997 496.001c-80 0 -124 -61 -132 -183h250v33c0 48 -10.167 85 -30.5 111s-49.5 39 -87.5 39zM222.997 701.001c0 19.333 5.5 34.666 16.5 45.999
s26.167 17 45.5 17s34.666 -5.66699 45.999 -17s17 -26.666 17 -45.999s-5.66699 -34.5 -17 -45.5s-26.666 -16.5 -45.999 -16.5s-34.5 5.5 -45.5 16.5s-16.5 26.167 -16.5 45.5z" />
    <glyph glyph-name="Eogonek" unicode="&#x118;" horiz-adv-x="685" 
d="M335 -210c-30 0 -54.167 7.83301 -72.5 23.5s-27.5 36.167 -27.5 61.5c0 45.333 30 87 90 125h-282v43l94 21v592l-94 21v43h563v-212h-52l-32 154h-285v-262h166l18 102h51v-264h-51l-18 102h-166v-280h302l31 163h58v-223h-257c-42.667 -33.333 -64 -68.333 -64 -105
c0 -31.333 16.667 -47 50 -47c12 0 24.333 1.66699 37 5s23 8.33301 31 15l15 -22c-24 -37.333 -59 -56 -105 -56z" />
    <glyph glyph-name="eogonek" unicode="&#x119;" 
d="M264 -210c-30 0 -54.1699 7.83594 -72.5029 23.5029s-27.5 36.167 -27.5 61.5c0 41.333 26 80.333 78 117c-38 4.66699 -71.167 16.5 -99.5 35.5s-50.5 45.167 -66.5 78.5c-10 20.667 -17.333 43.5 -22 68.5s-7 52.167 -7 81.5c0 94 21.333 166.5 64 217.5
s101.334 76.5 176.001 76.5c68.667 0 121.334 -21.167 158.001 -63.5s55 -100.833 55 -175.5c0 -6.66699 -0.166992 -12.834 -0.5 -18.501s-1.16602 -15.167 -2.49902 -28.5h-349c0 -48.667 6.66699 -89 20 -121c13.333 -31.333 32.166 -53.5 56.499 -66.5
s51.166 -19.5 80.499 -19.5c32 0 60.833 6.5 86.5 19.5s48.834 30.833 69.501 53.5l32 -24c-11.333 -15.333 -23.833 -29.833 -37.5 -43.5s-28.667 -25.834 -45 -36.501s-34.666 -19.167 -54.999 -25.5s-42.833 -9.83301 -67.5 -10.5
c-34.667 -30.667 -52 -62.334 -52 -95.001c0 -31.333 16.667 -47 50 -47c12 0 24.333 1.66699 37 5s23 8.33301 31 15l15 -22c-24 -37.333 -59 -56 -105 -56zM280.997 496.003c-80 0 -124 -61 -132 -183h250v33c0 48 -10.167 85 -30.5 111s-49.5 39 -87.5 39z" />
    <glyph glyph-name="Ecaron" unicode="&#x11a;" horiz-adv-x="685" 
d="M421 238l-18 102h-166v-280h302l31 163h58v-223h-585v43l94 21v592l-94 21v43h563v-212h-52l-32 154h-285v-262h166l18 102h51v-264h-51zM412 769h-95l-118 121h53l113 -61l113 61h53z" />
    <glyph glyph-name="ecaron" unicode="&#x11b;" 
d="M148 264c0 -48.667 6.66406 -88.999 19.9971 -120.999c13.333 -31.333 32.166 -53.5 56.499 -66.5s51.166 -19.5 80.499 -19.5c32 0 60.833 6.5 86.5 19.5s48.834 30.833 69.501 53.5l32 -24c-12 -16 -24.833 -31 -38.5 -45s-29.167 -26.333 -46.5 -37
s-36.666 -19 -57.999 -25s-45 -9 -71 -9c-46 0 -86.667 9.83301 -122 29.5s-62.333 48.5 -81 86.5c-10 20.667 -17.333 43.5 -22 68.5s-7 52.167 -7 81.5c0 94 21.333 166.5 64 217.5s101.334 76.5 176.001 76.5c68.667 0 121.334 -21.167 158.001 -63.5
s55 -100.833 55 -175.5c0 -6.66699 -0.166992 -12.834 -0.5 -18.501s-1.16602 -15.167 -2.49902 -28.5h-349zM280.997 496.001c-80 0 -124 -61 -132 -183h250v33c0 48 -10.167 85 -30.5 111s-49.5 39 -87.5 39zM337.997 639.001h-106l-83 141h56l80 -91l83 91h53z" />
    <glyph glyph-name="Gcircumflex" unicode="&#x11c;" horiz-adv-x="753" 
d="M375 55c113.333 0 170.003 56 170.003 168v70l-84 21v45h268v-45l-84 -21v-293h-52l-25 79c-29.333 -32 -59.333 -54.833 -90 -68.5s-67 -20.5 -109 -20.5c-91.333 0 -164.333 28 -219 84c-31.333 32 -55.333 71.667 -72 119s-25 100.333 -25 159
c0 59.333 8.83301 114.333 26.5 165s42.5 93 74.5 127c54 57.333 127 86 219 86c40 0 74.167 -6.16699 102.5 -18.5s55.166 -32.5 80.499 -60.5l22 69h55v-221h-61c-19.333 118 -87 177 -203 177c-34 0 -62.333 -5.5 -85 -16.5s-42.334 -28.167 -59.001 -51.5
c-19.333 -28 -34.333 -63.333 -45 -106s-16 -88 -16 -136c0 -50 5.83301 -95.833 17.5 -137.5s28.167 -77.167 49.5 -106.5c17.333 -23.333 37.166 -40.333 59.499 -51s50.5 -16 84.5 -16zM540.003 769h-53l-113 61l-113 -61h-53l118 121h95z" />
    <glyph glyph-name="gcircumflex" unicode="&#x11d;" horiz-adv-x="560" 
d="M507 -10c0 -25.333 -5.50293 -48.6689 -16.5029 -70.002s-27 -39.666 -48 -54.999s-46.667 -27.333 -77 -36s-64.5 -13 -102.5 -13c-76.667 0 -134.667 10.833 -174 32.5s-59 52.5 -59 92.5c0 31.333 9.33301 55.333 28 72s44.334 27.667 77.001 33v4
c-44 12.667 -66 38.667 -66 78c0 20.667 7.5 39.834 22.5 57.501s38.5 32.167 70.5 43.5c-33.333 12 -58.833 30.667 -76.5 56s-26.5 56.333 -26.5 93c0 26.667 4.83301 50.5 14.5 71.5s23.334 39 41.001 54s39 26.5 64 34.5s53.167 12 84.5 12c62 0 111 -15.333 147 -46
l34 12l92 44h17v-88h-17l-70 8h-34c19.333 -26.667 29 -58.667 29 -96c0 -52.667 -18 -94.167 -54 -124.5s-86.333 -45.5 -151 -45.5c-7.33301 0 -14.166 0.166992 -20.499 0.5s-12.833 0.833008 -19.5 1.5c-52.667 -8 -79 -27.667 -79 -59c0 -15.333 6 -25.833 18 -31.5
s35.333 -8.5 70 -8.5h116c54.667 0 96 -10.167 124 -30.5s42 -52.5 42 -96.5zM231.997 39.9971c-44.667 0 -77.002 -7.66797 -97.002 -23.001s-30 -35.333 -30 -60c0 -60.667 52 -91 156 -91c56.667 0 99.834 8.5 129.501 25.5s44.5 42.5 44.5 76.5
c0 26.667 -10.167 45.334 -30.5 56.001s-56.166 16 -107.499 16h-65zM146.995 381.996c0 -40 9 -70.333 27 -91s46.667 -31 86 -31s68 10.333 86 31s27 51 27 91s-9 70.333 -27 91s-46.667 31 -86 31s-68 -10.333 -86 -31s-27 -51 -27 -91zM396.995 638.996h-53l-83 91
l-83 -91h-53l88 151h95z" />
    <glyph glyph-name="Gbreve" unicode="&#x11e;" horiz-adv-x="753" 
d="M375 55c113.333 0 170.003 56 170.003 168v70l-84 21v45h268v-45l-84 -21v-293h-52l-25 79c-29.333 -32 -59.333 -54.833 -90 -68.5s-67 -20.5 -109 -20.5c-91.333 0 -164.333 28 -219 84c-31.333 32 -55.333 71.667 -72 119s-25 100.333 -25 159
c0 59.333 8.83301 114.333 26.5 165s42.5 93 74.5 127c54 57.333 127 86 219 86c40 0 74.167 -6.16699 102.5 -18.5s55.166 -32.5 80.499 -60.5l22 69h55v-221h-61c-19.333 118 -87 177 -203 177c-34 0 -62.333 -5.5 -85 -16.5s-42.334 -28.167 -59.001 -51.5
c-19.333 -28 -34.333 -63.333 -45 -106s-16 -88 -16 -136c0 -50 5.83301 -95.833 17.5 -137.5s28.167 -77.167 49.5 -106.5c17.333 -23.333 37.166 -40.333 59.499 -51s50.5 -16 84.5 -16zM527.003 890c-1.33301 -44.667 -16.332 -79.333 -44.999 -104s-64.667 -37 -108 -37
c-45.333 0 -80.166 13 -104.499 39s-36.5 60 -36.5 102h48c1.33301 -25.333 10.666 -43.666 27.999 -54.999s39 -17 65 -17c33.333 0 59.166 5.66699 77.499 17s27.5 29.666 27.5 54.999h48z" />
    <glyph glyph-name="gbreve" unicode="&#x11f;" horiz-adv-x="560" 
d="M507 -10c0 -25.333 -5.50293 -48.6689 -16.5029 -70.002s-27 -39.666 -48 -54.999s-46.667 -27.333 -77 -36s-64.5 -13 -102.5 -13c-76.667 0 -134.667 10.833 -174 32.5s-59 52.5 -59 92.5c0 31.333 9.33301 55.333 28 72s44.334 27.667 77.001 33v4
c-44 12.667 -66 38.667 -66 78c0 20.667 7.5 39.834 22.5 57.501s38.5 32.167 70.5 43.5c-33.333 12 -58.833 30.667 -76.5 56s-26.5 56.333 -26.5 93c0 26.667 4.83301 50.5 14.5 71.5s23.334 39 41.001 54s39 26.5 64 34.5s53.167 12 84.5 12c62 0 111 -15.333 147 -46
l34 12l92 44h17v-88h-17l-70 8h-34c19.333 -26.667 29 -58.667 29 -96c0 -52.667 -18 -94.167 -54 -124.5s-86.333 -45.5 -151 -45.5c-7.33301 0 -14.166 0.166992 -20.499 0.5s-12.833 0.833008 -19.5 1.5c-52.667 -8 -79 -27.667 -79 -59c0 -15.333 6 -25.833 18 -31.5
s35.333 -8.5 70 -8.5h116c54.667 0 96 -10.167 124 -30.5s42 -52.5 42 -96.5zM231.997 39.9971c-44.667 0 -77.002 -7.66797 -97.002 -23.001s-30 -35.333 -30 -60c0 -60.667 52 -91 156 -91c56.667 0 99.834 8.5 129.501 25.5s44.5 42.5 44.5 76.5
c0 26.667 -10.167 45.334 -30.5 56.001s-56.166 16 -107.499 16h-65zM146.995 381.996c0 -40 9 -70.333 27 -91s46.667 -31 86 -31s68 10.333 86 31s27 51 27 91s-9 70.333 -27 91s-46.667 31 -86 31s-68 -10.333 -86 -31s-27 -51 -27 -91zM413.995 779.996
c-0.666992 -24 -5 -45.333 -13 -64s-18.667 -34.5 -32 -47.5s-29.166 -22.833 -47.499 -29.5s-38.5 -10 -60.5 -10c-45.333 0 -80.166 13.833 -104.499 41.5s-36.5 64.167 -36.5 109.5h48c1.33301 -29.333 10.666 -50.333 27.999 -63s39 -19 65 -19
c33.333 0 59.166 6.33301 77.499 19s27.5 33.667 27.5 63h48z" />
    <glyph glyph-name="Gdotaccent" unicode="&#x120;" horiz-adv-x="753" 
d="M375 55c113.333 0 170.003 56 170.003 168v70l-84 21v45h268v-45l-84 -21v-293h-52l-25 79c-29.333 -32 -59.333 -54.833 -90 -68.5s-67 -20.5 -109 -20.5c-91.333 0 -164.333 28 -219 84c-31.333 32 -55.333 71.667 -72 119s-25 100.333 -25 159
c0 59.333 8.83301 114.333 26.5 165s42.5 93 74.5 127c54 57.333 127 86 219 86c40 0 74.167 -6.16699 102.5 -18.5s55.166 -32.5 80.499 -60.5l22 69h55v-221h-61c-19.333 118 -87 177 -203 177c-34 0 -62.333 -5.5 -85 -16.5s-42.334 -28.167 -59.001 -51.5
c-19.333 -28 -34.333 -63.333 -45 -106s-16 -88 -16 -136c0 -50 5.83301 -95.833 17.5 -137.5s28.167 -77.167 49.5 -106.5c17.333 -23.333 37.166 -40.333 59.499 -51s50.5 -16 84.5 -16zM312.003 832c0 19.333 5.5 34.666 16.5 45.999s26.167 17 45.5 17
s34.666 -5.66699 45.999 -17s17 -26.666 17 -45.999s-5.66699 -34.5 -17 -45.5s-26.666 -16.5 -45.999 -16.5s-34.5 5.5 -45.5 16.5s-16.5 26.167 -16.5 45.5z" />
    <glyph glyph-name="gdotaccent" unicode="&#x121;" horiz-adv-x="560" 
d="M507 -10c0 -25.333 -5.50293 -48.6689 -16.5029 -70.002s-27 -39.666 -48 -54.999s-46.667 -27.333 -77 -36s-64.5 -13 -102.5 -13c-76.667 0 -134.667 10.833 -174 32.5s-59 52.5 -59 92.5c0 31.333 9.33301 55.333 28 72s44.334 27.667 77.001 33v4
c-44 12.667 -66 38.667 -66 78c0 20.667 7.5 39.834 22.5 57.501s38.5 32.167 70.5 43.5c-33.333 12 -58.833 30.667 -76.5 56s-26.5 56.333 -26.5 93c0 26.667 4.83301 50.5 14.5 71.5s23.334 39 41.001 54s39 26.5 64 34.5s53.167 12 84.5 12c62 0 111 -15.333 147 -46
l34 12l92 44h17v-88h-17l-70 8h-34c19.333 -26.667 29 -58.667 29 -96c0 -52.667 -18 -94.167 -54 -124.5s-86.333 -45.5 -151 -45.5c-7.33301 0 -14.166 0.166992 -20.499 0.5s-12.833 0.833008 -19.5 1.5c-52.667 -8 -79 -27.667 -79 -59c0 -15.333 6 -25.833 18 -31.5
s35.333 -8.5 70 -8.5h116c54.667 0 96 -10.167 124 -30.5s42 -52.5 42 -96.5zM231.997 39.9971c-44.667 0 -77.002 -7.66797 -97.002 -23.001s-30 -35.333 -30 -60c0 -60.667 52 -91 156 -91c56.667 0 99.834 8.5 129.501 25.5s44.5 42.5 44.5 76.5
c0 26.667 -10.167 45.334 -30.5 56.001s-56.166 16 -107.499 16h-65zM146.995 381.996c0 -40 9 -70.333 27 -91s46.667 -31 86 -31s68 10.333 86 31s27 51 27 91s-9 70.333 -27 91s-46.667 31 -86 31s-68 -10.333 -86 -31s-27 -51 -27 -91zM198.995 700.996
c0 19.333 5.5 34.666 16.5 45.999s26.167 17 45.5 17s34.666 -5.66699 45.999 -17s17 -26.666 17 -45.999s-5.66699 -34.5 -17 -45.5s-26.666 -16.5 -45.999 -16.5s-34.5 5.5 -45.5 16.5s-16.5 26.167 -16.5 45.5z" />
    <glyph glyph-name="Gcommaaccent" unicode="&#x122;" horiz-adv-x="753" 
d="M375 55c113.333 0 170.003 56 170.003 168v70l-84 21v45h268v-45l-84 -21v-293h-52l-25 79c-29.333 -32 -59.333 -54.833 -90 -68.5s-67 -20.5 -109 -20.5c-91.333 0 -164.333 28 -219 84c-31.333 32 -55.333 71.667 -72 119s-25 100.333 -25 159
c0 59.333 8.83301 114.333 26.5 165s42.5 93 74.5 127c54 57.333 127 86 219 86c40 0 74.167 -6.16699 102.5 -18.5s55.166 -32.5 80.499 -60.5l22 69h55v-221h-61c-19.333 118 -87 177 -203 177c-34 0 -62.333 -5.5 -85 -16.5s-42.334 -28.167 -59.001 -51.5
c-19.333 -28 -34.333 -63.333 -45 -106s-16 -88 -16 -136c0 -50 5.83301 -95.833 17.5 -137.5s28.167 -77.167 49.5 -106.5c17.333 -23.333 37.166 -40.333 59.499 -51s50.5 -16 84.5 -16zM374.003 -44c17.333 0 30.668 -5.66992 40.001 -17.0029s14 -27.333 14 -48
c0 -26 -6.5 -49.167 -19.5 -69.5s-33.5 -39.166 -61.5 -56.499l-22 27c19.333 15.333 32.666 28.5 39.999 39.5s11.666 22.167 12.999 33.5l-3 2c-1.33301 -1.33301 -3.83301 -2.66602 -7.5 -3.99902s-7.16699 -2 -10.5 -2c-11.333 0 -20.666 4.33301 -27.999 13
s-11 19.334 -11 32.001c0 14 5.33301 25.833 16 35.5s24 14.5 40 14.5z" />
    <glyph glyph-name="gcommaaccent" unicode="&#x123;" horiz-adv-x="560" 
d="M507 -10c0 -25.333 -5.50293 -48.6689 -16.5029 -70.002s-27 -39.666 -48 -54.999s-46.667 -27.333 -77 -36s-64.5 -13 -102.5 -13c-76.667 0 -134.667 10.833 -174 32.5s-59 52.5 -59 92.5c0 31.333 9.33301 55.333 28 72s44.334 27.667 77.001 33v4
c-44 12.667 -66 38.667 -66 78c0 20.667 7.5 39.834 22.5 57.501s38.5 32.167 70.5 43.5c-33.333 12 -58.833 30.667 -76.5 56s-26.5 56.333 -26.5 93c0 26.667 4.83301 50.5 14.5 71.5s23.334 39 41.001 54s39 26.5 64 34.5s53.167 12 84.5 12c62 0 111 -15.333 147 -46
l34 12l92 44h17v-88h-17l-70 8h-34c19.333 -26.667 29 -58.667 29 -96c0 -52.667 -18 -94.167 -54 -124.5s-86.333 -45.5 -151 -45.5c-7.33301 0 -14.166 0.166992 -20.499 0.5s-12.833 0.833008 -19.5 1.5c-52.667 -8 -79 -27.667 -79 -59c0 -15.333 6 -25.833 18 -31.5
s35.333 -8.5 70 -8.5h116c54.667 0 96 -10.167 124 -30.5s42 -52.5 42 -96.5zM231.997 39.9971c-44.667 0 -77.002 -7.66797 -97.002 -23.001s-30 -35.333 -30 -60c0 -60.667 52 -91 156 -91c56.667 0 99.834 8.5 129.501 25.5s44.5 42.5 44.5 76.5
c0 26.667 -10.167 45.334 -30.5 56.001s-56.166 16 -107.499 16h-65zM146.995 381.996c0 -40 9 -70.333 27 -91s46.667 -31 86 -31s68 10.333 86 31s27 51 27 91s-9 70.333 -27 91s-46.667 31 -86 31s-68 -10.333 -86 -31s-27 -51 -27 -91zM260.995 637.996
c-17.333 0 -30.668 5.66992 -40.001 17.0029s-14 27.333 -14 48c0 26 6.5 49.167 19.5 69.5s33.5 39.166 61.5 56.499l22 -27c-19.333 -15.333 -32.666 -28.5 -39.999 -39.5s-11.666 -22.167 -12.999 -33.5l3 -2c1.33301 1.33301 3.83301 2.66602 7.5 3.99902
s7.16699 2 10.5 2c11.333 0 20.666 -4.33301 27.999 -13s11 -19.334 11 -32.001c0 -14 -5.33301 -25.833 -16 -35.5s-24 -14.5 -40 -14.5z" />
    <glyph glyph-name="Hcircumflex" unicode="&#x124;" horiz-adv-x="803" 
d="M671 64l84 -21v-43h-268v43l84 21v277h-339v-277l84 -21v-43h-268v43l84 21v592l-84 21v43h268v-43l-84 -21v-257h339v257l-84 21v43h268v-43l-84 -21v-592zM571 769h-53l-113 61l-113 -61h-53l118 121h95z" />
    <glyph glyph-name="hcircumflex" unicode="&#x125;" horiz-adv-x="644" 
d="M448 283c0 42.667 -1.16797 74.832 -3.50098 96.499s-6.5 38.5 -12.5 50.5c-16.667 32.667 -46 49 -88 49c-18.667 0 -36.667 -3.33301 -54 -10s-32.666 -15.667 -45.999 -27c-14.667 -13.333 -25.5 -28.666 -32.5 -45.999s-11.167 -39 -12.5 -65v-271l67 -19v-41h-241
v41l77 19v660l-77 19v41h174v-334c20 32 46.5 57.333 79.5 76s68.5 28 106.5 28c26.667 0 50.667 -4.66699 72 -14s38.333 -22.666 51 -39.999c13.333 -18.667 22.833 -44.834 28.5 -78.501s8.5 -79.167 8.5 -136.5v-221l77 -19v-41h-241v41l67 19v223zM497.999 638.998h-53
l-83 91l-83 -91h-53l88 151h95z" />
    <glyph glyph-name="Hbar" unicode="&#x126;" horiz-adv-x="813" 
d="M676 561h84v-65h-84v-432l84 -21v-43h-268v43l84 21v277h-339v-277l84 -21v-43h-268v43l84 21v432h-83v65h83v95l-84 21v43h268v-43l-84 -21v-95h339v95l-84 21v43h268v-43l-84 -21v-95zM576 399v97h-339v-97h339z" />
    <glyph glyph-name="hbar" unicode="&#x127;" horiz-adv-x="644" 
d="M24 672l77.999 -0.00195312v48l-77 19v41h174v-108h106v-62h-106v-164c20 32 46.5 57.333 79.5 76s68.5 28 106.5 28c26.667 0 50.667 -4.66699 72 -14s38.333 -22.666 51 -39.999c13.333 -18.667 22.833 -44.834 28.5 -78.501s8.5 -79.167 8.5 -136.5v-221l77 -19v-41
h-241v41l67 19v223c0 42.667 -1.16699 74.834 -3.5 96.501s-6.5 38.5 -12.5 50.5c-16.667 32.667 -46 49 -88 49c-18.667 0 -36.667 -3.33301 -54 -10s-32.666 -15.667 -45.999 -27c-14.667 -13.333 -25.5 -28.666 -32.5 -45.999s-11.167 -39 -12.5 -65v-271l67 -19v-41
h-241v41l77 19v550h-78v62z" />
    <glyph glyph-name="Itilde" unicode="&#x128;" horiz-adv-x="374" 
d="M237 64l94 -21v-43h-288v43l94 21v592l-94 21v43h288v-43l-94 -21v-592zM3 770c10.667 76.667 48 115 112 115c16.667 0 31.334 -2.83301 44.001 -8.5s24.334 -12 35.001 -19s21.167 -13.333 31.5 -19s22.166 -8.5 35.499 -8.5c20 0 35 4.33301 45 13s16.667 21 20 37h45
c-12 -80.667 -49.333 -121 -112 -121c-16.667 0 -31.167 2.83301 -43.5 8.5s-24 12 -35 19s-21.833 13.5 -32.5 19.5s-22.334 9 -35.001 9c-20 0 -35 -4 -45 -12s-16.667 -19 -20 -33h-45z" />
    <glyph glyph-name="itilde" unicode="&#x129;" horiz-adv-x="312" 
d="M36 499v41h174v-480l77 -19v-41h-251v41l77 19v420zM-23 639c10.667 76.667 48 115 112 115c16.667 0 31.334 -2.83301 44.001 -8.5s24.334 -12 35.001 -19s21.167 -13.333 31.5 -19s22.166 -8.5 35.499 -8.5c20 0 35 4.33301 45 13s16.667 21 20 37h45
c-12 -80.667 -49.333 -121 -112 -121c-16.667 0 -31.167 2.83301 -43.5 8.5s-24 12 -35 19s-21.833 13.5 -32.5 19.5s-22.334 9 -35.001 9c-20 0 -35 -4 -45 -12s-16.667 -19 -20 -33h-45z" />
    <glyph glyph-name="Imacron" unicode="&#x12a;" horiz-adv-x="374" 
d="M237 64l94 -21v-43h-288v43l94 21v592l-94 21v43h288v-43l-94 -21v-592zM47 861h279v-65h-279v65z" />
    <glyph glyph-name="imacron" unicode="&#x12b;" horiz-adv-x="312" 
d="M36 499v41h174v-480l77 -19v-41h-251v41l77 19v420zM21 730h279v-65h-279v65z" />
    <glyph glyph-name="Ibreve" unicode="&#x12c;" horiz-adv-x="374" 
d="M237 64l94 -21v-43h-288v43l94 21v592l-94 21v43h288v-43l-94 -21v-592zM325 890c-1.33301 -44.667 -16.332 -79.333 -44.999 -104s-64.667 -37 -108 -37c-45.333 0 -80.166 13 -104.499 39s-36.5 60 -36.5 102h48c1.33301 -25.333 10.666 -43.666 27.999 -54.999
s39 -17 65 -17c33.333 0 59.166 5.66699 77.499 17s27.5 29.666 27.5 54.999h48z" />
    <glyph glyph-name="ibreve" unicode="&#x12d;" horiz-adv-x="312" 
d="M36 499v41h174v-480l77 -19v-41h-251v41l77 19v420zM314 780c-0.666992 -24 -5 -45.333 -13 -64s-18.667 -34.5 -32 -47.5s-29.166 -22.833 -47.499 -29.5s-38.5 -10 -60.5 -10c-45.333 0 -80.166 13.833 -104.499 41.5s-36.5 64.167 -36.5 109.5h48
c1.33301 -29.333 10.666 -50.333 27.999 -63s39 -19 65 -19c33.333 0 59.166 6.33301 77.499 19s27.5 33.667 27.5 63h48z" />
    <glyph glyph-name="Iogonek" unicode="&#x12e;" horiz-adv-x="374" 
d="M170 -210c-30 0 -54.167 7.83301 -72.5 23.5s-27.5 36.167 -27.5 61.5c0 45.333 30 87 90 125h-117v43l94 21v592l-94 21v43h288v-43l-94 -21v-592l94 -21v-43h-125c-42.667 -33.333 -64 -68.333 -64 -105c0 -31.333 16.667 -47 50 -47c12 0 24.333 1.66699 37 5
s23 8.33301 31 15l15 -22c-24 -37.333 -59 -56 -105 -56z" />
    <glyph glyph-name="iogonek" unicode="&#x12f;" horiz-adv-x="312" 
d="M145 -210c-30 0 -54.167 7.83301 -72.5 23.5s-27.5 36.167 -27.5 61.5c0 45.333 30 87 90 125h-99v41l77 19v420l-77 19v41h174v-480l77 -19v-41h-106c-42.667 -33.333 -64 -68.333 -64 -105c0 -31.333 16.667 -47 50 -47c12 0 24.333 1.66699 37 5s23 8.33301 31 15
l15 -22c-24 -37.333 -59 -56 -105 -56zM99 701c0 19.333 5.5 34.666 16.5 45.999s26.167 17 45.5 17s34.666 -5.66699 45.999 -17s17 -26.666 17 -45.999s-5.66699 -34.5 -17 -45.5s-26.666 -16.5 -45.999 -16.5s-34.5 5.5 -45.5 16.5s-16.5 26.167 -16.5 45.5z" />
    <glyph glyph-name="Idotaccent" unicode="&#x130;" horiz-adv-x="374" 
d="M237 64l94 -21v-43h-288v43l94 21v592l-94 21v43h288v-43l-94 -21v-592zM125 832c0 19.333 5.5 34.666 16.5 45.999s26.167 17 45.5 17s34.666 -5.66699 45.999 -17s17 -26.666 17 -45.999s-5.66699 -34.5 -17 -45.5s-26.666 -16.5 -45.999 -16.5s-34.5 5.5 -45.5 16.5
s-16.5 26.167 -16.5 45.5z" />
    <glyph glyph-name="dotlessi" unicode="&#x131;" horiz-adv-x="312" 
d="M36 499v41h174v-480l77 -19v-41h-251v41l77 19v420z" />
    <glyph glyph-name="IJ" unicode="&#x132;" horiz-adv-x="957" 
d="M237 64l94 -21v-43h-288v43l94 21v592l-94 21v43h288v-43l-94 -21v-592zM739 656l-99 21v43h278v-43l-79 -21v-438c0 -34.667 -5.66699 -66 -17 -94s-27.333 -52 -48 -72s-45.5 -35.5 -74.5 -46.5s-61.167 -16.5 -96.5 -16.5c-31.333 0 -60 4.5 -86 13.5
s-48.167 21.667 -66.5 38s-32.666 36 -42.999 59s-15.5 48.167 -15.5 75.5c0 56 22 84 66 84c19.333 0 34.666 -5.33301 45.999 -16s17 -24.667 17 -42c0 -15.333 -4.33301 -30.833 -13 -46.5s-18.667 -26.167 -30 -31.5c0 -21.333 11.5 -39.333 34.5 -54
s52.833 -22 89.5 -22c47.333 0 82 13.167 104 39.5s33 66.5 33 120.5v449z" />
    <glyph glyph-name="ij" unicode="&#x133;" horiz-adv-x="596" 
d="M36 499v41h174v-480l77 -19v-41h-251v41l77 19v420zM99 701c0 19.333 5.5 34.666 16.5 45.999s26.167 17 45.5 17s34.666 -5.66699 45.999 -17s17 -26.666 17 -45.999s-5.66699 -34.5 -17 -45.5s-26.666 -16.5 -45.999 -16.5s-34.5 5.5 -45.5 16.5
s-16.5 26.167 -16.5 45.5zM513 85c0 -49.333 -1.66699 -88.166 -5 -116.499s-9 -51.5 -17 -69.5c-12.667 -28.667 -31 -50.667 -55 -66s-52 -23 -84 -23c-36 0 -65.5 8.83301 -88.5 26.5s-34.5 40.5 -34.5 68.5c0 17.333 4.83301 31.166 14.5 41.499s22.5 15.5 38.5 15.5
c32.667 0 49 -18.333 49 -55c0 -19.333 -5.33301 -34.333 -16 -45c1.33301 -4.66699 5.5 -8.33398 12.5 -11.001s15.833 -4 26.5 -4c23.333 0 39.5 9.33301 48.5 28s13.5 52.334 13.5 101.001v504l-77 19v41h174v-455zM402 701c0 19.333 5.5 34.666 16.5 45.999
s26.167 17 45.5 17s34.666 -5.66699 45.999 -17s17 -26.666 17 -45.999s-5.66699 -34.5 -17 -45.5s-26.666 -16.5 -45.999 -16.5s-34.5 5.5 -45.5 16.5s-16.5 26.167 -16.5 45.5z" />
    <glyph glyph-name="Jcircumflex" unicode="&#x134;" horiz-adv-x="583" 
d="M365 656l-99 21v43h278v-43l-79 -21v-438c0 -34.667 -5.66699 -66 -17 -94s-27.333 -52 -48 -72s-45.5 -35.5 -74.5 -46.5s-61.167 -16.5 -96.5 -16.5c-31.333 0 -60 4.5 -86 13.5s-48.167 21.667 -66.5 38s-32.666 36 -42.999 59s-15.5 48.167 -15.5 75.5
c0 56 22 84 66 84c19.333 0 34.666 -5.33301 45.999 -16s17 -24.667 17 -42c0 -15.333 -4.33301 -30.833 -13 -46.5s-18.667 -26.167 -30 -31.5c0 -21.333 11.5 -39.333 34.5 -54s52.833 -22 89.5 -22c47.333 0 82 13.167 104 39.5s33 66.5 33 120.5v449zM583 769h-53
l-113 61l-113 -61h-53l118 121h95z" />
    <glyph glyph-name="jcircumflex" unicode="&#x135;" horiz-adv-x="284" 
d="M201 85c0 -49.333 -1.66699 -88.166 -5 -116.499s-9 -51.5 -17 -69.5c-12.667 -28.667 -31 -50.667 -55 -66s-52 -23 -84 -23c-36 0 -65.5 8.83301 -88.5 26.5s-34.5 40.5 -34.5 68.5c0 17.333 4.83301 31.166 14.5 41.499s22.5 15.5 38.5 15.5
c32.667 0 49 -18.333 49 -55c0 -19.333 -5.33301 -34.333 -16 -45c1.33301 -4.66699 5.5 -8.33398 12.5 -11.001s15.833 -4 26.5 -4c23.333 0 39.5 9.33301 48.5 28s13.5 52.334 13.5 101.001v504l-77 19v41h174v-455zM288 639h-53l-83 91l-83 -91h-53l88 151h95z" />
    <glyph glyph-name="Kcommaaccent" unicode="&#x136;" horiz-adv-x="741" 
d="M237 366l280 290l-91 21v43h263v-43l-88 -21l-234 -232l299 -362l84 -19v-43h-279v43l66 20l-237 293l-63 -60v-232l84 -21v-43h-278v43l94 21v592l-94 21v43h278v-43l-84 -21v-290zM386 -44c17.333 0 30.668 -5.66992 40.001 -17.0029s14 -27.333 14 -48
c0 -26 -6.5 -49.167 -19.5 -69.5s-33.5 -39.166 -61.5 -56.499l-22 27c19.333 15.333 32.666 28.5 39.999 39.5s11.666 22.167 12.999 33.5l-3 2c-1.33301 -1.33301 -3.83301 -2.66602 -7.5 -3.99902s-7.16699 -2 -10.5 -2c-11.333 0 -20.666 4.33301 -27.999 13
s-11 19.334 -11 32.001c0 14 5.33301 25.833 16 35.5s24 14.5 40 14.5z" />
    <glyph glyph-name="kcommaaccent" unicode="&#x137;" horiz-adv-x="596" 
d="M429 60l-154 208l-76 -64v-144l77 -19v-41h-251v41l77 19v660l-77 19v41h174v-529l213 229l-66 19v41h215v-41l-73 -19l-151 -155l199 -267l53 -17v-41h-219v41zM316 -44c17.333 0 30.668 -5.66992 40.001 -17.0029s14 -27.333 14 -48c0 -26 -6.5 -49.167 -19.5 -69.5
s-33.5 -39.166 -61.5 -56.499l-22 27c19.333 15.333 32.666 28.5 39.999 39.5s11.666 22.167 12.999 33.5l-3 2c-1.33301 -1.33301 -3.83301 -2.66602 -7.5 -3.99902s-7.16699 -2 -10.5 -2c-11.333 0 -20.666 4.33301 -27.999 13s-11 19.334 -11 32.001
c0 14 5.33301 25.833 16 35.5s24 14.5 40 14.5z" />
    <glyph glyph-name="kgreenlandic" unicode="&#x138;" horiz-adv-x="607" 
d="M440 60l-154 208l-76 -64v-144l77 -19v-41h-251v41l77 19v420l-77 19v41h174v-289l213 229l-66 19v41h215v-41l-73 -19l-151 -155l199 -267l53 -17v-41h-219v41z" />
    <glyph glyph-name="Lacute" unicode="&#x139;" horiz-adv-x="629" 
d="M237 60h272l34 173h55v-233h-555v43l94 21v592l-94 21v43h298v-43l-104 -21v-596zM220 847c14 18 26.832 30.5 38.499 37.5s23.834 10.5 36.501 10.5c24.667 0 37 -10 37 -30c0 -10.667 -5.83301 -20.5 -17.5 -29.5s-30.167 -21.167 -55.5 -36.5l-47 -29h-53z" />
    <glyph glyph-name="lacute" unicode="&#x13a;" horiz-adv-x="308" 
d="M178 847c14 18 26.832 30.5 38.499 37.5s23.834 10.5 36.501 10.5c24.667 0 37 -10 37 -30c0 -10.667 -5.83301 -20.5 -17.5 -29.5s-30.167 -21.167 -55.5 -36.5l-47 -29h-53zM104.999 660l-77 19v41h174v-660l77 -19v-41h-251v41l77 19v600z" />
    <glyph glyph-name="Lcommaaccent" unicode="&#x13b;" horiz-adv-x="629" 
d="M237 60h272l34 173h55v-233h-555v43l94 21v592l-94 21v43h298v-43l-104 -21v-596zM335 -44c17.333 0 30.668 -5.66992 40.001 -17.0029s14 -27.333 14 -48c0 -26 -6.5 -49.167 -19.5 -69.5s-33.5 -39.166 -61.5 -56.499l-22 27c19.333 15.333 32.666 28.5 39.999 39.5
s11.666 22.167 12.999 33.5l-3 2c-1.33301 -1.33301 -3.83301 -2.66602 -7.5 -3.99902s-7.16699 -2 -10.5 -2c-11.333 0 -20.666 4.33301 -27.999 13s-11 19.334 -11 32.001c0 14 5.33301 25.833 16 35.5s24 14.5 40 14.5z" />
    <glyph glyph-name="lcommaaccent" unicode="&#x13c;" horiz-adv-x="308" 
d="M105 720l-77 19v41h174v-720l77 -19v-41h-251v41l77 19v660zM153 -44c17.333 0 30.668 -5.66992 40.001 -17.0029s14 -27.333 14 -48c0 -26 -6.5 -49.167 -19.5 -69.5s-33.5 -39.166 -61.5 -56.499l-22 27c19.333 15.333 32.666 28.5 39.999 39.5
s11.666 22.167 12.999 33.5l-3 2c-1.33301 -1.33301 -3.83301 -2.66602 -7.5 -3.99902s-7.16699 -2 -10.5 -2c-11.333 0 -20.666 4.33301 -27.999 13s-11 19.334 -11 32.001c0 14 5.33301 25.833 16 35.5s24 14.5 40 14.5z" />
    <glyph glyph-name="Lcaron" unicode="&#x13d;" horiz-adv-x="629" 
d="M237 60h272l34 173h55v-233h-555v43l94 21v592l-94 21v43h298v-43l-104 -21v-596zM233 769h-95l-118 121h53l113 -61l113 61h53z" />
    <glyph glyph-name="lcaron" unicode="&#x13e;" horiz-adv-x="308" 
d="M105 720l-77 19v41h174v-720l77 -19v-41h-251v41l77 19v660zM280 605c0 16.667 -0.999023 31.334 -2.99902 44.001s-4.16699 24.5 -6.5 35.5s-4.5 21.5 -6.5 31.5s-3 20.333 -3 31c0 9.33301 2.5 18.833 7.5 28.5s15.833 14.5 32.5 14.5
c15.333 0 25.666 -4.83301 30.999 -14.5s8 -19.167 8 -28.5c0 -10.667 -1 -21 -3 -31s-4.33301 -20.5 -7 -31.5s-5 -22.833 -7 -35.5s-3 -27.334 -3 -44.001h-40z" />
    <glyph glyph-name="Ldot" unicode="&#x13f;" horiz-adv-x="629" 
d="M237 60h272l34 173h55v-233h-555v43l94 21v592l-94 21v43h298v-43l-104 -21v-596zM331 360c0 20 5.66797 35.832 17.001 47.499s26.666 17.5 45.999 17.5s34.833 -6 46.5 -18s17.5 -27.667 17.5 -47s-5.83301 -34.666 -17.5 -45.999s-27.167 -17 -46.5 -17
c-20 0 -35.5 5.5 -46.5 16.5s-16.5 26.5 -16.5 46.5z" />
    <glyph glyph-name="ldot" unicode="&#x140;" horiz-adv-x="347" 
d="M105 720l-77 19v41h174v-720l77 -19v-41h-251v41l77 19v660zM273 358c0 20 5.66797 35.832 17.001 47.499s26.666 17.5 45.999 17.5s34.833 -6 46.5 -18s17.5 -27.667 17.5 -47s-5.83301 -34.666 -17.5 -45.999s-27.167 -17 -46.5 -17c-20 0 -35.5 5.5 -46.5 16.5
s-16.5 26.5 -16.5 46.5z" />
    <glyph glyph-name="Lslash" unicode="&#x141;" horiz-adv-x="629" 
d="M237 433l108 64v-69l-108 -64v-304h272l34 173h55v-233h-555v43l94 21v242l-80 -47v68l80 47v282l-94 21v43h298v-43l-104 -21v-223z" />
    <glyph glyph-name="lslash" unicode="&#x142;" horiz-adv-x="314" 
d="M25 357l83 52v311l-77 19v41h174v-309l88 56v-69l-88 -56v-342l77 -19v-41h-251v41l77 19v281l-83 -52v68z" />
    <glyph glyph-name="Nacute" unicode="&#x143;" horiz-adv-x="801" 
d="M132 656l-84 21v43h191l374 -553v489l-84 21v43h233v-43l-84 -21v-656h-71l-410 599v-535l84 -21v-43h-233v43l84 21v592zM434 847c14 18 26.832 30.5 38.499 37.5s23.834 10.5 36.501 10.5c24.667 0 37 -10 37 -30c0 -10.667 -5.83301 -20.5 -17.5 -29.5
s-30.167 -21.167 -55.5 -36.5l-47 -29h-53z" />
    <glyph glyph-name="nacute" unicode="&#x144;" horiz-adv-x="655" 
d="M113 480l-77.001 18.999v41h144l22 -100h4c20 34 46.833 60.833 80.5 80.5s70.167 29.5 109.5 29.5c26.667 0 50.667 -4.66699 72 -14s38.333 -22.666 51 -39.999c13.333 -18.667 22.833 -44.834 28.5 -78.501s8.5 -79.167 8.5 -136.5v-221l77 -19v-41h-241v41l67 19v223
c0 42.667 -1.16699 74.834 -3.5 96.501s-6.5 38.5 -12.5 50.5c-16.667 32.667 -46 49 -88 49c-18.667 0 -36.667 -3.33301 -54 -10s-32.666 -15.667 -45.999 -27c-14.667 -13.333 -25.5 -28.833 -32.5 -46.5s-11.167 -40.5 -12.5 -68.5v-267l67 -19v-41h-241v41l77 19v420z
M343.999 714.999c19.333 30 34.833 50.832 46.5 62.499s24.5 17.5 38.5 17.5s25 -2.83301 33 -8.5s12 -14.5 12 -26.5c0 -10 -6.66699 -22.167 -20 -36.5s-36 -33.166 -68 -56.499l-38 -28h-53z" />
    <glyph glyph-name="Ncommaaccent" unicode="&#x145;" horiz-adv-x="801" 
d="M132 656l-84 21v43h191l374 -553v489l-84 21v43h233v-43l-84 -21v-656h-71l-410 599v-535l84 -21v-43h-233v43l84 21v592zM401 -44c17.333 0 30.668 -5.66992 40.001 -17.0029s14 -27.333 14 -48c0 -26 -6.5 -49.167 -19.5 -69.5s-33.5 -39.166 -61.5 -56.499l-22 27
c19.333 15.333 32.666 28.5 39.999 39.5s11.666 22.167 12.999 33.5l-3 2c-1.33301 -1.33301 -3.83301 -2.66602 -7.5 -3.99902s-7.16699 -2 -10.5 -2c-11.333 0 -20.666 4.33301 -27.999 13s-11 19.334 -11 32.001c0 14 5.33301 25.833 16 35.5s24 14.5 40 14.5z" />
    <glyph glyph-name="ncommaaccent" unicode="&#x146;" horiz-adv-x="655" 
d="M113 480l-77.001 18.999v41h144l22 -100h4c20 34 46.833 60.833 80.5 80.5s70.167 29.5 109.5 29.5c26.667 0 50.667 -4.66699 72 -14s38.333 -22.666 51 -39.999c13.333 -18.667 22.833 -44.834 28.5 -78.501s8.5 -79.167 8.5 -136.5v-221l77 -19v-41h-241v41l67 19v223
c0 42.667 -1.16699 74.834 -3.5 96.501s-6.5 38.5 -12.5 50.5c-16.667 32.667 -46 49 -88 49c-18.667 0 -36.667 -3.33301 -54 -10s-32.666 -15.667 -45.999 -27c-14.667 -13.333 -25.5 -28.833 -32.5 -46.5s-11.167 -40.5 -12.5 -68.5v-267l67 -19v-41h-241v41l77 19v420z
M334.999 -44.001c17.333 0 30.668 -5.66992 40.001 -17.0029s14 -27.333 14 -48c0 -26 -6.5 -49.167 -19.5 -69.5s-33.5 -39.166 -61.5 -56.499l-22 27c19.333 15.333 32.666 28.5 39.999 39.5s11.666 22.167 12.999 33.5l-3 2
c-1.33301 -1.33301 -3.83301 -2.66602 -7.5 -3.99902s-7.16699 -2 -10.5 -2c-11.333 0 -20.666 4.33301 -27.999 13s-11 19.334 -11 32.001c0 14 5.33301 25.833 16 35.5s24 14.5 40 14.5z" />
    <glyph glyph-name="Ncaron" unicode="&#x147;" horiz-adv-x="801" 
d="M132 656l-84 21v43h191l374 -553v489l-84 21v43h233v-43l-84 -21v-656h-71l-410 599v-535l84 -21v-43h-233v43l84 21v592zM447 769h-95l-118 121h53l113 -61l113 61h53z" />
    <glyph glyph-name="ncaron" unicode="&#x148;" horiz-adv-x="655" 
d="M113 480l-77.001 18.999v41h144l22 -100h4c20 34 46.833 60.833 80.5 80.5s70.167 29.5 109.5 29.5c26.667 0 50.667 -4.66699 72 -14s38.333 -22.666 51 -39.999c13.333 -18.667 22.833 -44.834 28.5 -78.501s8.5 -79.167 8.5 -136.5v-221l77 -19v-41h-241v41l67 19v223
c0 42.667 -1.16699 74.834 -3.5 96.501s-6.5 38.5 -12.5 50.5c-16.667 32.667 -46 49 -88 49c-18.667 0 -36.667 -3.33301 -54 -10s-32.666 -15.667 -45.999 -27c-14.667 -13.333 -25.5 -28.833 -32.5 -46.5s-11.167 -40.5 -12.5 -68.5v-267l67 -19v-41h-241v41l77 19v420z
M399.999 638.999h-106l-83 141h56l80 -91l83 91h53z" />
    <glyph glyph-name="napostrophe" unicode="&#x149;" horiz-adv-x="751" 
d="M209 480l-77.001 18.999v41h144l22 -100h4c20 34 46.833 60.833 80.5 80.5s70.167 29.5 109.5 29.5c26.667 0 50.667 -4.66699 72 -14s38.333 -22.666 51 -39.999c13.333 -18.667 22.833 -44.834 28.5 -78.501s8.5 -79.167 8.5 -136.5v-221l77 -19v-41h-241v41l67 19v223
c0 42.667 -1.16699 74.834 -3.5 96.501s-6.5 38.5 -12.5 50.5c-16.667 32.667 -46 49 -88 49c-18.667 0 -36.667 -3.33301 -54 -10s-32.666 -15.667 -45.999 -27c-14.667 -13.333 -25.5 -28.833 -32.5 -46.5s-11.167 -40.5 -12.5 -68.5v-267l67 -19v-41h-241v41l77 19v420z
M79.999 789.999c17.333 0 30.668 -5.66797 40.001 -17.001s14 -27.333 14 -48c0 -53.333 -31 -98.666 -93 -135.999l-22 27c21.333 17.333 37.166 32.666 47.499 45.999s16.166 25.666 17.499 36.999l-3 2c-1.33301 -1.33301 -3.83301 -2.66602 -7.5 -3.99902
s-7.16699 -2 -10.5 -2c-11.333 0 -20.666 4.33301 -27.999 13s-11 19.334 -11 32.001c0 14 5.33301 25.833 16 35.5s24 14.5 40 14.5z" />
    <glyph glyph-name="Eng" unicode="&#x14a;" horiz-adv-x="801" 
d="M132 656l-84 21v43h191l373 -553v489l-83 21v43h233v-43l-84 -21v-571c0 -49.333 -1.66699 -88.166 -5 -116.499s-9 -51.5 -17 -69.5c-12.667 -28.667 -28.834 -50.667 -48.501 -66s-45.5 -23 -77.5 -23c-18 0 -35.167 2.33301 -51.5 7s-30.666 11.334 -42.999 20.001
s-22.333 18.667 -30 30s-11.5 24 -11.5 38c0 17.333 4.83301 31.166 14.5 41.499s22.5 15.5 38.5 15.5c32.667 0 49 -18.333 49 -55c0 -19.333 -5.33301 -34.333 -16 -45c1.33301 -4.66699 6.5 -8.33398 15.5 -11.001s20.5 -4 34.5 -4c24.667 0 44.5 10.5 59.5 31.5
s22.5 53.5 22.5 97.5v17l-415 606v-535l84 -21v-43h-233v43l84 21v592z" />
    <glyph glyph-name="eng" unicode="&#x14b;" horiz-adv-x="629" 
d="M459 283c0 42.667 -1.16797 74.833 -3.50098 96.5s-6.5 38.5 -12.5 50.5c-16.667 32.667 -46 49 -88 49c-18.667 0 -36.667 -3.33301 -54 -10s-32.666 -15.667 -45.999 -27c-14.667 -13.333 -25.5 -28.833 -32.5 -46.5s-11.167 -40.5 -12.5 -68.5v-267l67 -19v-41h-241
v41l77 19v420l-77 19v41h144l22 -100h4c20 34 46.833 60.833 80.5 80.5s70.167 29.5 109.5 29.5c26.667 0 50.667 -4.66699 72 -14s38.333 -22.666 51 -39.999c13.333 -18.667 22.833 -44.834 28.5 -78.501s8.5 -79.167 8.5 -136.5v-196
c0 -49.333 -1.66699 -88.166 -5 -116.499s-9 -51.5 -17 -69.5c-12.667 -28.667 -31 -50.667 -55 -66s-52 -23 -84 -23c-36 0 -65.5 8.83301 -88.5 26.5s-34.5 40.5 -34.5 68.5c0 17.333 4.83301 31.166 14.5 41.499s22.5 15.5 38.5 15.5c32.667 0 49 -18.333 49 -55
c0 -19.333 -5.33301 -34.333 -16 -45c1.33301 -4.66699 5.5 -8.33398 12.5 -11.001s15.833 -4 26.5 -4c23.333 0 39.5 9.33301 48.5 28s13.5 52.334 13.5 101.001v307z" />
    <glyph glyph-name="Omacron" unicode="&#x14c;" horiz-adv-x="764" 
d="M711 368c0 -58.667 -8.66602 -113.334 -25.999 -164.001s-42 -93 -74 -127c-54 -58 -131 -87 -231 -87c-102 0 -179 28 -231 84c-30.667 32 -54.334 72.167 -71.001 120.5s-25 100.833 -25 157.5c0 58.667 8.66699 113.334 26 164.001s42 93 74 127
c28 30 60.5 52 97.5 66s80.833 21 131.5 21c100.667 0 178 -28 232 -84c31.333 -32 55.333 -72.167 72 -120.5s25 -100.833 25 -157.5zM168.001 372c0 -56 4.66895 -105.333 14.002 -148s22.666 -77.667 39.999 -105c33.333 -49.333 87.666 -74 162.999 -74
c70.667 0 122.667 22 156 66c36.667 50 55 131 55 243c0 55.333 -4.66699 104 -14 146s-23 76 -41 102c-34.667 49.333 -88.667 74 -162 74c-70 0 -122 -22 -156 -66c-36.667 -48.667 -55 -128 -55 -238zM242.003 861h279v-65h-279v65z" />
    <glyph glyph-name="omacron" unicode="&#x14d;" horiz-adv-x="582" 
d="M536 275c0 -44 -6.5 -85.333 -19.5 -124s-31.167 -70.667 -54.5 -96c-39.333 -43.333 -97.333 -65 -174 -65c-74.667 0 -131.667 21 -171 63c-22.667 24.667 -40.167 55.167 -52.5 91.5s-18.5 75.833 -18.5 118.5c0 44 6.33301 85.667 19 125s31 71.666 55 96.999
c21.333 22.667 46 39.167 74 49.5s60.667 15.5 98 15.5c36.667 0 69.667 -5.16699 99 -15.5s54 -26.166 74 -47.499c23.333 -24.667 41 -55.5 53 -92.5s18 -76.833 18 -119.5zM153 274c0 -80 12.001 -139.667 36.001 -179c11.333 -17.333 24.833 -30.5 40.5 -39.5
s36.167 -13.5 61.5 -13.5c46 0 80.333 15.667 103 47c12 17.333 20.833 41.333 26.5 72s8.5 66 8.5 106c0 79.333 -12 138.666 -36 177.999c-11.333 17.333 -25 30.5 -41 39.5s-36.667 13.5 -62 13.5c-46.667 0 -80.334 -15.333 -101.001 -46
c-24 -37.333 -36 -96.666 -36 -177.999zM151.001 730h279v-65h-279v65z" />
    <glyph glyph-name="Obreve" unicode="&#x14e;" horiz-adv-x="764" 
d="M711 368c0 -58.667 -8.66602 -113.334 -25.999 -164.001s-42 -93 -74 -127c-54 -58 -131 -87 -231 -87c-102 0 -179 28 -231 84c-30.667 32 -54.334 72.167 -71.001 120.5s-25 100.833 -25 157.5c0 58.667 8.66699 113.334 26 164.001s42 93 74 127
c28 30 60.5 52 97.5 66s80.833 21 131.5 21c100.667 0 178 -28 232 -84c31.333 -32 55.333 -72.167 72 -120.5s25 -100.833 25 -157.5zM168.001 372c0 -56 4.66895 -105.333 14.002 -148s22.666 -77.667 39.999 -105c33.333 -49.333 87.666 -74 162.999 -74
c70.667 0 122.667 22 156 66c36.667 50 55 131 55 243c0 55.333 -4.66699 104 -14 146s-23 76 -41 102c-34.667 49.333 -88.667 74 -162 74c-70 0 -122 -22 -156 -66c-36.667 -48.667 -55 -128 -55 -238zM535.003 890c-1.33301 -44.667 -16.332 -79.333 -44.999 -104
s-64.667 -37 -108 -37c-45.333 0 -80.166 13 -104.499 39s-36.5 60 -36.5 102h48c1.33301 -25.333 10.666 -43.666 27.999 -54.999s39 -17 65 -17c33.333 0 59.166 5.66699 77.499 17s27.5 29.666 27.5 54.999h48z" />
    <glyph glyph-name="obreve" unicode="&#x14f;" horiz-adv-x="582" 
d="M536 275c0 -44 -6.5 -85.333 -19.5 -124s-31.167 -70.667 -54.5 -96c-39.333 -43.333 -97.333 -65 -174 -65c-74.667 0 -131.667 21 -171 63c-22.667 24.667 -40.167 55.167 -52.5 91.5s-18.5 75.833 -18.5 118.5c0 44 6.33301 85.667 19 125s31 71.666 55 96.999
c21.333 22.667 46 39.167 74 49.5s60.667 15.5 98 15.5c36.667 0 69.667 -5.16699 99 -15.5s54 -26.166 74 -47.499c23.333 -24.667 41 -55.5 53 -92.5s18 -76.833 18 -119.5zM153 274c0 -80 12.001 -139.667 36.001 -179c11.333 -17.333 24.833 -30.5 40.5 -39.5
s36.167 -13.5 61.5 -13.5c46 0 80.333 15.667 103 47c12 17.333 20.833 41.333 26.5 72s8.5 66 8.5 106c0 79.333 -12 138.666 -36 177.999c-11.333 17.333 -25 30.5 -41 39.5s-36.667 13.5 -62 13.5c-46.667 0 -80.334 -15.333 -101.001 -46
c-24 -37.333 -36 -96.666 -36 -177.999zM444.001 780c-0.666992 -24 -5 -45.333 -13 -64s-18.667 -34.5 -32 -47.5s-29.166 -22.833 -47.499 -29.5s-38.5 -10 -60.5 -10c-45.333 0 -80.166 13.833 -104.499 41.5s-36.5 64.167 -36.5 109.5h48
c1.33301 -29.333 10.666 -50.333 27.999 -63s39 -19 65 -19c33.333 0 59.166 6.33301 77.499 19s27.5 33.667 27.5 63h48z" />
    <glyph glyph-name="Ohungarumlaut" unicode="&#x150;" horiz-adv-x="764" 
d="M711 368c0 -58.667 -8.66602 -113.334 -25.999 -164.001s-42 -93 -74 -127c-54 -58 -131 -87 -231 -87c-102 0 -179 28 -231 84c-30.667 32 -54.334 72.167 -71.001 120.5s-25 100.833 -25 157.5c0 58.667 8.66699 113.334 26 164.001s42 93 74 127
c28 30 60.5 52 97.5 66s80.833 21 131.5 21c100.667 0 178 -28 232 -84c31.333 -32 55.333 -72.167 72 -120.5s25 -100.833 25 -157.5zM168.001 372c0 -56 4.66895 -105.333 14.002 -148s22.666 -77.667 39.999 -105c33.333 -49.333 87.666 -74 162.999 -74
c70.667 0 122.667 22 156 66c36.667 50 55 131 55 243c0 55.333 -4.66699 104 -14 146s-23 76 -41 102c-34.667 49.333 -88.667 74 -162 74c-70 0 -122 -22 -156 -66c-36.667 -48.667 -55 -128 -55 -238zM329.003 847c14 18 26.832 30.5 38.499 37.5
s23.834 10.5 36.501 10.5c24.667 0 37 -10 37 -30c0 -10.667 -5.83301 -20.5 -17.5 -29.5s-30.167 -21.167 -55.5 -36.5l-47 -29h-53zM509.002 847c14 18 26.832 30.5 38.499 37.5s23.834 10.5 36.501 10.5c24.667 0 37 -10 37 -30c0 -10.667 -5.83301 -20.5 -17.5 -29.5
s-30.167 -21.167 -55.5 -36.5l-47 -29h-53z" />
    <glyph glyph-name="ohungarumlaut" unicode="&#x151;" horiz-adv-x="582" 
d="M536 275c0 -44 -6.5 -85.333 -19.5 -124s-31.167 -70.667 -54.5 -96c-39.333 -43.333 -97.333 -65 -174 -65c-74.667 0 -131.667 21 -171 63c-22.667 24.667 -40.167 55.167 -52.5 91.5s-18.5 75.833 -18.5 118.5c0 44 6.33301 85.667 19 125s31 71.666 55 96.999
c21.333 22.667 46 39.167 74 49.5s60.667 15.5 98 15.5c36.667 0 69.667 -5.16699 99 -15.5s54 -26.166 74 -47.499c23.333 -24.667 41 -55.5 53 -92.5s18 -76.833 18 -119.5zM153 274c0 -80 12.001 -139.667 36.001 -179c11.333 -17.333 24.833 -30.5 40.5 -39.5
s36.167 -13.5 61.5 -13.5c46 0 80.333 15.667 103 47c12 17.333 20.833 41.333 26.5 72s8.5 66 8.5 106c0 79.333 -12 138.666 -36 177.999c-11.333 17.333 -25 30.5 -41 39.5s-36.667 13.5 -62 13.5c-46.667 0 -80.334 -15.333 -101.001 -46
c-24 -37.333 -36 -96.666 -36 -177.999zM226.001 715c19.333 30 34.833 50.832 46.5 62.499s24.5 17.5 38.5 17.5s25 -2.83301 33 -8.5s12 -14.5 12 -26.5c0 -10 -6.66699 -22.167 -20 -36.5s-36 -33.166 -68 -56.499l-38 -28h-53zM392.001 714.999
c19.333 30 34.833 50.832 46.5 62.499s24.5 17.5 38.5 17.5s25 -2.83301 33 -8.5s12 -14.5 12 -26.5c0 -10 -6.66699 -22.167 -20 -36.5s-36 -33.166 -68 -56.499l-38 -28h-53z" />
    <glyph glyph-name="OE" unicode="&#x152;" horiz-adv-x="1072" 
d="M808 238l-17.999 101.999h-166v-280h302l31 163h58v-223h-624c-53.333 0 -99.333 7 -138 21s-72 36 -100 66c-32 33.333 -56.667 74.333 -74 123s-26 101.334 -26 158.001c0 53.333 8.33301 103.333 25 150s40.667 86 72 118c55.333 56 132.666 84 231.999 84h611v-212
h-52l-32 154h-285v-262h166l18 102h51v-264h-51zM524.001 659.999h-135c-76 0 -131.333 -24.667 -166 -74c-36.667 -50.667 -55 -128 -55 -232c0 -105.333 18.333 -181.333 55 -228c33.333 -44 85.333 -66 156 -66h145v600z" />
    <glyph glyph-name="oe" unicode="&#x153;" horiz-adv-x="920" 
d="M292 550c19.333 0 38.6641 -1.99805 57.9971 -5.99805s37.333 -10.167 54 -18.5s31.5 -18.833 44.5 -31.5s22.5 -27.667 28.5 -45h4c16.667 32.667 40.167 57.667 70.5 75s67.5 26 111.5 26c68.667 0 121.334 -21.167 158.001 -63.5s55 -100.833 55 -175.5
c0 -6.66699 -0.166992 -12.834 -0.5 -18.501s-1.16602 -15.167 -2.49902 -28.5h-349c0 -48.667 6.66699 -89 20 -121c13.333 -31.333 32.166 -53.5 56.499 -66.5s51.166 -19.5 80.499 -19.5c32 0 60.833 6.5 86.5 19.5s48.834 30.833 69.501 53.5l32 -24
c-12 -16 -24.833 -31 -38.5 -45s-29.167 -26.333 -46.5 -37s-36.666 -19 -57.999 -25s-45 -9 -71 -9c-18 0 -36.333 2 -55 6s-36 10 -52 18s-30 17.833 -42 29.5s-20.333 25.5 -25 41.5h-4c-8 -15.333 -18.667 -29 -32 -41s-28.333 -22 -45 -30s-34.667 -14 -54 -18
s-38.666 -6 -57.999 -6c-74.667 0 -131.667 21 -171 63c-22.667 24.667 -40.167 55.167 -52.5 91.5s-18.5 75.833 -18.5 118.5c0 44 6.33301 85.667 19 125s31 71.666 55 96.999c21.333 22.667 46 39.167 74 49.5s60.667 15.5 98 15.5zM152.998 274.002
c0 -80 12.001 -139.667 36.001 -179c11.333 -17.333 24.833 -30.5 40.5 -39.5s36.167 -13.5 61.5 -13.5c46 0 80.333 15.667 103 47c12 17.333 20.833 41.333 26.5 72s8.5 66 8.5 106c0 79.333 -12 138.666 -36 177.999c-11.333 17.333 -25 30.5 -41 39.5
s-36.667 13.5 -62 13.5c-46.667 0 -80.334 -15.333 -101.001 -46c-24 -37.333 -36 -96.666 -36 -177.999zM656.999 496.002c-80 0 -124 -61 -132 -183h250v33c0 48 -10.167 85 -30.5 111s-49.5 39 -87.5 39z" />
    <glyph glyph-name="Racute" unicode="&#x154;" horiz-adv-x="706" 
d="M543 382c-12 -9.33301 -26.001 -17.332 -42.001 -23.999s-35.667 -12.334 -59 -17.001c12 -12 25.333 -30 40 -54l133 -225l89 -19v-43h-206v43l-144 280h-122v-259l95 -21v-43h-279v43l84 21v592l-84 21v43h344c32 0 60 -3 84 -9s45.667 -15.667 65 -29
c24.667 -16 43.834 -38 57.501 -66s20.5 -56 20.5 -84s-6.83301 -55.5 -20.5 -82.5s-32.167 -49.5 -55.5 -67.5zM374.999 381.001c36.667 0 67 10.334 91 31.001c13.333 12 23.833 28.167 31.5 48.5s11.5 42.166 11.5 65.499s-3.83301 44.5 -11.5 63.5
s-18.5 34.5 -32.5 46.5c-11.333 9.33301 -24.5 16 -39.5 20s-33.167 6 -54.5 6h-139v-281h143zM342.999 847.002c14 18 26.832 30.5 38.499 37.5s23.834 10.5 36.501 10.5c24.667 0 37 -10 37 -30c0 -10.667 -5.83301 -20.5 -17.5 -29.5s-30.167 -21.167 -55.5 -36.5
l-47 -29h-53z" />
    <glyph glyph-name="racute" unicode="&#x155;" horiz-adv-x="458" 
d="M337 482c-6 4 -12.6689 6 -20.002 6c-12.667 0 -26 -7.83301 -40 -23.5s-26.333 -35.5 -37 -59.5c-9.33301 -22.667 -16.666 -47.5 -21.999 -74.5s-8 -54.833 -8 -83.5v-187l108 -19v-41h-282v41l77 19v420l-77 19v41h144l22 -132h4
c15.333 45.333 35.833 80.333 61.5 105s54.5 37 86.5 37c26 0 47.667 -8.16699 65 -24.5s26 -38.166 26 -65.499c0 -20 -5.16699 -35.833 -15.5 -47.5s-24.166 -17.5 -41.499 -17.5s-31 5.5 -41 16.5s-15 25.5 -15 43.5c0 4 0.333008 7.66699 1 11s2 8.66602 4 15.999z
M265.998 715c19.333 30 34.833 50.832 46.5 62.499s24.5 17.5 38.5 17.5s25 -2.83301 33 -8.5s12 -14.5 12 -26.5c0 -10 -6.66699 -22.167 -20 -36.5s-36 -33.166 -68 -56.499l-38 -28h-53z" />
    <glyph glyph-name="Rcommaaccent" unicode="&#x156;" horiz-adv-x="706" 
d="M543 382c-12 -9.33301 -26.001 -17.332 -42.001 -23.999s-35.667 -12.334 -59 -17.001c12 -12 25.333 -30 40 -54l133 -225l89 -19v-43h-206v43l-144 280h-122v-259l95 -21v-43h-279v43l84 21v592l-84 21v43h344c32 0 60 -3 84 -9s45.667 -15.667 65 -29
c24.667 -16 43.834 -38 57.501 -66s20.5 -56 20.5 -84s-6.83301 -55.5 -20.5 -82.5s-32.167 -49.5 -55.5 -67.5zM374.999 381.001c36.667 0 67 10.334 91 31.001c13.333 12 23.833 28.167 31.5 48.5s11.5 42.166 11.5 65.499s-3.83301 44.5 -11.5 63.5
s-18.5 34.5 -32.5 46.5c-11.333 9.33301 -24.5 16 -39.5 20s-33.167 6 -54.5 6h-139v-281h143zM381.999 -43.998c17.333 0 30.668 -5.66992 40.001 -17.0029s14 -27.333 14 -48c0 -26 -6.5 -49.167 -19.5 -69.5s-33.5 -39.166 -61.5 -56.499l-22 27
c19.333 15.333 32.666 28.5 39.999 39.5s11.666 22.167 12.999 33.5l-3 2c-1.33301 -1.33301 -3.83301 -2.66602 -7.5 -3.99902s-7.16699 -2 -10.5 -2c-11.333 0 -20.666 4.33301 -27.999 13s-11 19.334 -11 32.001c0 14 5.33301 25.833 16 35.5s24 14.5 40 14.5z" />
    <glyph glyph-name="rcommaaccent" unicode="&#x157;" horiz-adv-x="458" 
d="M337 482c-6 4 -12.6689 6 -20.002 6c-12.667 0 -26 -7.83301 -40 -23.5s-26.333 -35.5 -37 -59.5c-9.33301 -22.667 -16.666 -47.5 -21.999 -74.5s-8 -54.833 -8 -83.5v-187l108 -19v-41h-282v41l77 19v420l-77 19v41h144l22 -132h4
c15.333 45.333 35.833 80.333 61.5 105s54.5 37 86.5 37c26 0 47.667 -8.16699 65 -24.5s26 -38.166 26 -65.499c0 -20 -5.16699 -35.833 -15.5 -47.5s-24.166 -17.5 -41.499 -17.5s-31 5.5 -41 16.5s-15 25.5 -15 43.5c0 4 0.333008 7.66699 1 11s2 8.66602 4 15.999z
M161.998 -44c17.333 0 30.668 -5.66992 40.001 -17.0029s14 -27.333 14 -48c0 -26 -6.5 -49.167 -19.5 -69.5s-33.5 -39.166 -61.5 -56.499l-22 27c19.333 15.333 32.666 28.5 39.999 39.5s11.666 22.167 12.999 33.5l-3 2
c-1.33301 -1.33301 -3.83301 -2.66602 -7.5 -3.99902s-7.16699 -2 -10.5 -2c-11.333 0 -20.666 4.33301 -27.999 13s-11 19.334 -11 32.001c0 14 5.33301 25.833 16 35.5s24 14.5 40 14.5z" />
    <glyph glyph-name="Rcaron" unicode="&#x158;" horiz-adv-x="706" 
d="M543 382c-12 -9.33301 -26.001 -17.332 -42.001 -23.999s-35.667 -12.334 -59 -17.001c12 -12 25.333 -30 40 -54l133 -225l89 -19v-43h-206v43l-144 280h-122v-259l95 -21v-43h-279v43l84 21v592l-84 21v43h344c32 0 60 -3 84 -9s45.667 -15.667 65 -29
c24.667 -16 43.834 -38 57.501 -66s20.5 -56 20.5 -84s-6.83301 -55.5 -20.5 -82.5s-32.167 -49.5 -55.5 -67.5zM374.999 381.001c36.667 0 67 10.334 91 31.001c13.333 12 23.833 28.167 31.5 48.5s11.5 42.166 11.5 65.499s-3.83301 44.5 -11.5 63.5
s-18.5 34.5 -32.5 46.5c-11.333 9.33301 -24.5 16 -39.5 20s-33.167 6 -54.5 6h-139v-281h143zM391.999 769.002h-95l-118 121h53l113 -61l113 61h53z" />
    <glyph glyph-name="rcaron" unicode="&#x159;" horiz-adv-x="458" 
d="M337 482c-6 4 -12.6689 6 -20.002 6c-12.667 0 -26 -7.83301 -40 -23.5s-26.333 -35.5 -37 -59.5c-9.33301 -22.667 -16.666 -47.5 -21.999 -74.5s-8 -54.833 -8 -83.5v-187l108 -19v-41h-282v41l77 19v420l-77 19v41h144l22 -132h4
c15.333 45.333 35.833 80.333 61.5 105s54.5 37 86.5 37c26 0 47.667 -8.16699 65 -24.5s26 -38.166 26 -65.499c0 -20 -5.16699 -35.833 -15.5 -47.5s-24.166 -17.5 -41.499 -17.5s-31 5.5 -41 16.5s-15 25.5 -15 43.5c0 4 0.333008 7.66699 1 11s2 8.66602 4 15.999z
M296.998 639h-106l-83 141h56l80 -91l83 91h53z" />
    <glyph glyph-name="Sacute" unicode="&#x15a;" horiz-adv-x="599" 
d="M321 -11c-40 0 -76.001 6.00391 -108.001 18.0039s-58.667 29 -80 51l-11 -58h-56v227h61c4 -64 19.833 -110.5 47.5 -139.5s70.167 -43.5 127.5 -43.5c95.333 0 143 36.333 143 109c0 21.333 -4.16699 40 -12.5 56s-20.166 30.5 -35.499 43.5s-34.166 25 -56.499 36
s-47.5 22.167 -75.5 33.5c-32 12.667 -60.167 25.167 -84.5 37.5s-44.666 26.333 -60.999 42s-28.833 33.667 -37.5 54s-13 45.166 -13 74.499c0 63.333 19.833 112.666 59.5 147.999s92.834 53 159.501 53c66 0 119.667 -18.667 161 -56l8 45h56v-227h-57
c0 64.667 -11.833 111.5 -35.5 140.5s-61.5 43.5 -113.5 43.5c-91.333 0 -137 -41.667 -137 -125c0 -16.667 2 -30.834 6 -42.501s11.5 -22.5 22.5 -32.5s25.833 -19.667 44.5 -29s42.667 -20.333 72 -33c41.333 -18 76.666 -35.167 105.999 -51.5
s53.166 -33.5 71.499 -51.5s31.833 -37.333 40.5 -58s13 -44 13 -70c0 -30.667 -5.5 -58.167 -16.5 -82.5s-26.333 -44.833 -46 -61.5s-43.334 -29.334 -71.001 -38.001s-58.167 -13 -91.5 -13zM321.999 847.004c14 18 26.832 30.5 38.499 37.5s23.834 10.5 36.501 10.5
c24.667 0 37 -10 37 -30c0 -10.667 -5.83301 -20.5 -17.5 -29.5s-30.167 -21.167 -55.5 -36.5l-47 -29h-53z" />
    <glyph glyph-name="sacute" unicode="&#x15b;" horiz-adv-x="503" 
d="M244 36c38 0 68.667 7.49902 92 22.499s35 36.5 35 64.5c0 16.667 -4.33301 30.667 -13 42s-19.834 21 -33.501 29s-29 14.833 -46 20.5s-33.5 10.834 -49.5 15.501c-20.667 6 -40.834 13 -60.501 21s-37.334 18.167 -53.001 30.5s-28.167 27.333 -37.5 45
s-14 39.167 -14 64.5c0 48 17.5 86.5 52.5 115.5s83.833 43.5 146.5 43.5c53.333 0 95.5 -11.167 126.5 -33.5s46.5 -52.833 46.5 -91.5c0 -21.333 -4.66699 -38 -14 -50s-22.666 -18 -39.999 -18c-15.333 0 -28 4.66699 -38 14s-15 21.333 -15 36
c0 12.667 3.33301 24.167 10 34.5s15.334 17.833 26.001 22.5c-10 14 -22.833 24.167 -38.5 30.5s-35.834 9.5 -60.501 9.5c-80 0 -120 -28.333 -120 -85c0 -15.333 2.66699 -28 8 -38s13.333 -18.667 24 -26s23.834 -13.833 39.501 -19.5s33.834 -11.834 54.501 -18.501
c22.667 -7.33301 45 -15 67 -23s41.833 -18 59.5 -30s32 -27 43 -45s16.5 -40.333 16.5 -67c0 -26 -5.33301 -49 -16 -69s-25.667 -36.833 -45 -50.5s-42.333 -24.167 -69 -31.5s-56 -11 -88 -11c-59.333 0 -106.833 11.833 -142.5 35.5s-53.5 56.167 -53.5 97.5
c0 21.333 4.83301 38.166 14.5 50.499s23.5 18.5 41.5 18.5c16 0 29.5 -4.66699 40.5 -14s16.5 -21.666 16.5 -36.999c0 -12.667 -3.5 -24.667 -10.5 -36s-15.5 -19.666 -25.5 -24.999c8.66699 -13.333 24.167 -24 46.5 -32s47.833 -12 76.5 -12zM284 714.999
c19.333 30 34.833 50.832 46.5 62.499s24.5 17.5 38.5 17.5s25 -2.83301 33 -8.5s12 -14.5 12 -26.5c0 -10 -6.66699 -22.167 -20 -36.5s-36 -33.166 -68 -56.499l-38 -28h-53z" />
    </font>
</defs>
</svg>
