<?xml version="1.0" standalone="no"?>
<!DOCTYPE svg PUBLIC "-//W3C//DTD SVG 1.1//EN" "http://www.w3.org/Graphics/SVG/1.1/DTD/svg11.dtd" >
<svg version="1.1" xmlns="http://www.w3.org/2000/svg">
<metadata>
Created by FontForge 20120731 at Fri Aug  1 16:50:39 2014
 By Alfred Xing
Copyright 2006, 2009 for TeX Gyre extensions by B. Jackowski and J.M. Nowacki (on behalf of TeX users groups). This work is released under the GUST Font License --  see http://tug.org/fonts/licenses/GUST-FONT-LICENSE.txt for details.
</metadata>
<defs>
<font id="texgyreheros" horiz-adv-x="556" >
  <font-face 
    font-family="TeXGyreHeros"
    font-weight="700"
    font-stretch="normal"
    units-per-em="1000"
    panose-1="0 0 8 0 0 0 0 0 0 0"
    ascent="784"
    descent="-216"
    x-height="540"
    cap-height="729"
    bbox="-531 -307 1359 1125"
    underline-thickness="69"
    underline-position="-52"
    stemh="125"
    stemv="140"
    unicode-range="U+0020-FB04"
  />
<missing-glyph horiz-adv-x="280" 
 />
    <glyph glyph-name="I_J" unicode="IJ" horiz-adv-x="816" 
d="M210 0h-150v729h150v-729zM756 201c0 -136 -85 -213 -234 -213c-136 0 -228 76 -228 221v61h150v-59c0 -67 24 -95 81 -95c52 0 81 30 81 85v528h150v-528z" />
    <glyph glyph-name="i_j" unicode="ij" horiz-adv-x="541" 
d="M200 0h-140v540h140v-540zM202 605h-140v140h140v-140zM481 -94c0 -88 -36 -124 -123 -124c-20 0 -55 2 -83 5v112c10 -3 16 -4 25 -4c30 0 41 11 41 42v603h140v-634zM481 605h-140v140h140v-140z" />
    <glyph glyph-name="f_k" unicode="fk" horiz-adv-x="897" 
d="M313 436h-83v-436h-140v436h-76v93h76v65c0 91 45 135 138 135c19 0 54 -1 80 -3v-105c-12 2 -28 3 -40 3c-26 0 -38 -14 -38 -42v-53h83v-93zM889 0h-164l-129 238l-56 -61v-177h-140v729h140v-399l177 210h159l-184 -204z" />
    <glyph glyph-name="f_f" unicode="ff" horiz-adv-x="637" 
d="M623 436h-83v-436h-140v436h-170v-436h-140v436h-76v93h76v65c0 91 45 135 138 135c19 0 54 -1 80 -3v-105c-12 2 -28 3 -40 3c-26 0 -38 -14 -38 -42v-53h170v65c0 91 45 135 138 135c19 0 54 -1 80 -3v-105c-12 2 -28 3 -40 3c-26 0 -38 -14 -38 -42v-53h83v-93z" />
    <glyph glyph-name="f_i" unicode="fi" horiz-adv-x="611" 
d="M313 436h-83v-436h-140v436h-76v93h76v65c0 91 45 135 138 135c19 0 54 -1 80 -3v-105c-12 2 -28 3 -40 3c-26 0 -38 -14 -38 -42v-53h83v-93zM540 0h-140v540h140v-540zM540 605h-140v140h140v-140z" />
    <glyph glyph-name="f_l" unicode="fl" horiz-adv-x="611" 
d="M313 436h-83v-436h-140v436h-76v93h76v65c0 91 45 135 138 135c19 0 54 -1 80 -3v-105c-12 2 -28 3 -40 3c-26 0 -38 -14 -38 -42v-53h83v-93zM540 0h-140v729h140v-729z" />
    <glyph glyph-name="f_f_i" unicode="&#xfb00;i" horiz-adv-x="921" 
d="M623 436h-83v-436h-140v436h-170v-436h-140v436h-76v93h76v65c0 91 45 135 138 135c19 0 54 -1 80 -3v-105c-12 2 -28 3 -40 3c-26 0 -38 -14 -38 -42v-53h170v65c0 91 45 135 138 135c19 0 54 -1 80 -3v-105c-12 2 -28 3 -40 3c-26 0 -38 -14 -38 -42v-53h83v-93zM850 0
h-140v540h140v-540zM850 605h-140v140h140v-140z" />
    <glyph glyph-name="f_f_l" unicode="ffl" horiz-adv-x="921" 
d="M623 436h-83v-436h-140v436h-170v-436h-140v436h-76v93h76v65c0 91 45 135 138 135c19 0 54 -1 80 -3v-105c-12 2 -28 3 -40 3c-26 0 -38 -14 -38 -42v-53h170v65c0 91 45 135 138 135c19 0 54 -1 80 -3v-105c-12 2 -28 3 -40 3c-26 0 -38 -14 -38 -42v-53h83v-93zM850 0
h-140v729h140v-729z" />
    <glyph glyph-name=".notdef" horiz-adv-x="280" 
 />
    <glyph glyph-name="space" unicode=" " horiz-adv-x="278" 
 />
    <glyph glyph-name="exclam" unicode="!" horiz-adv-x="333" 
d="M242 516l-42 -309h-67l-41 309v210h150v-210zM242 0h-150v146h150v-146z" />
    <glyph glyph-name="quotedbl" unicode="&#x22;" horiz-adv-x="474" 
d="M188 599l-42 -129h-56l-40 129v130h138v-130zM424 599l-42 -129h-56l-40 129v130h138v-130z" />
    <glyph glyph-name="numbersign" unicode="#" 
d="M553 424h-109l-31 -153h100v-99h-119l-40 -204h-105l40 204h-103l-40 -204h-106l40 204h-77v99h97l30 153h-99v99h119l34 174h105l-34 -174h103l34 174h105l-34 -174h90v-99zM338 424h-103l-30 -153h103z" />
    <glyph glyph-name="dollar" unicode="$" 
d="M527 195c0 -75 -32 -140 -86 -175c-33 -21 -75 -35 -130 -41v-105h-68v105c-60 6 -97 19 -135 46c-56 40 -86 100 -86 173v9h131c3 -70 34 -111 90 -121v213c-135 31 -204 102 -204 213c0 112 75 185 204 197v54h68v-54c126 -7 206 -86 206 -211h-128
c0 61 -27 103 -78 110v-201c155 -43 216 -102 216 -212zM243 427v181c-55 -11 -81 -41 -81 -92c0 -44 25 -71 81 -89zM395 183c0 48 -28 82 -84 99v-196c56 14 84 47 84 97z" />
    <glyph glyph-name="percent" unicode="%" horiz-adv-x="889" 
d="M390 517c0 -98 -84 -180 -184 -180c-101 0 -184 82 -184 182s83 182 184 182c103 0 184 -81 184 -184zM291 518c0 47 -38 84 -85 84s-85 -38 -85 -83c0 -46 38 -84 85 -84c46 0 85 38 85 83zM692 709l-395 -729h-107l396 729h106zM863 167c0 -98 -84 -180 -184 -180
c-101 0 -184 82 -184 183c0 100 83 182 184 182c103 0 184 -81 184 -185zM764 168c0 47 -38 85 -85 85s-85 -38 -85 -84s38 -84 85 -84c46 0 85 38 85 83z" />
    <glyph glyph-name="ampersand" unicode="&#x26;" horiz-adv-x="722" 
d="M694 0h-161l-46 56c-81 -61 -127 -79 -195 -79c-142 0 -237 86 -237 216c0 94 40 147 157 208c-6 8 -10 13 -12 15l-28 34c-28 33 -43 69 -42 106c0 94 82 167 189 167s178 -62 178 -155c0 -72 -28 -115 -117 -176l116 -144c22 42 30 72 30 115v10h113v-16
c0 -76 -30 -157 -68 -203zM414 148l-136 171l-47 -29c-28 -17 -43 -48 -43 -80c0 -60 52 -117 106 -117c31 0 73 19 120 55zM377 556c0 37 -21 58 -57 58c-34 0 -58 -20 -58 -48c0 -25 5 -33 55 -96c40 22 60 51 60 86z" />
    <glyph glyph-name="quotesingle" unicode="'" horiz-adv-x="238" 
d="M188 599l-42 -129h-56l-40 129v130h138v-130z" />
    <glyph glyph-name="parenleft" unicode="(" horiz-adv-x="333" 
d="M303 -200h-100c-115 173 -163 311 -163 465c0 153 48 291 163 464h100c-106 -204 -140 -318 -140 -464c0 -147 34 -259 140 -465z" />
    <glyph glyph-name="parenright" unicode=")" horiz-adv-x="333" 
d="M285 264c0 -153 -48 -291 -163 -464h-100c106 204 140 318 140 464c0 147 -34 259 -140 465h100c115 -173 163 -311 163 -465z" />
    <glyph glyph-name="asterisk" unicode="*" horiz-adv-x="389" 
d="M357 579l-109 -35l67 -94l-58 -43l-67 94l-67 -94l-58 43l67 94l-109 36l22 69l109 -36v116h72v-116l109 36z" />
    <glyph glyph-name="plus" unicode="+" horiz-adv-x="584" 
d="M524 200h-182v-182h-100v182h-182v100h182v182h100v-182h182v-100z" />
    <glyph glyph-name="comma" unicode="," horiz-adv-x="278" 
d="M214 9c0 -78 -14 -115 -54 -146c-27 -21 -55 -32 -96 -37v56c59 12 86 47 86 115v3h-86v146h150v-137z" />
    <glyph glyph-name="hyphen" unicode="-" horiz-adv-x="333" 
d="M298 207h-272v135h272v-135z" />
    <glyph glyph-name="period" unicode="." horiz-adv-x="278" 
d="M214 0h-150v146h150v-146z" />
    <glyph glyph-name="slash" unicode="/" horiz-adv-x="278" 
d="M291 714l-206 -728h-97l206 728h97z" />
    <glyph glyph-name="zero" unicode="0" 
d="M517 353c0 -280 -100 -362 -244 -362c-205 0 -244 168 -244 366c0 204 41 367 244 367c208 0 244 -170 244 -371zM377 356c0 220 -35 255 -104 255c-75 0 -104 -47 -104 -253c0 -211 33 -247 104 -247c75 0 104 46 104 245z" />
    <glyph glyph-name="one" unicode="1" 
d="M378 0h-140v489h-170v93c122 0 195 43 217 127h93v-709z" />
    <glyph glyph-name="two" unicode="2" 
d="M515 499c0 -96 -36 -150 -159 -240c-104 -76 -126 -96 -144 -134h300v-125h-482c7 131 44 194 164 276c156 111 181 142 181 220c0 71 -38 114 -100 114c-64 0 -101 -46 -101 -125v-23h-134c-1 11 -1 19 -1 25c0 150 86 237 233 237c149 0 243 -88 243 -225z" />
    <glyph glyph-name="three" unicode="3" 
d="M516 218c0 -138 -97 -227 -248 -227c-145 0 -239 89 -239 231h136c0 -73 40 -111 106 -111c61 0 105 45 105 107c0 76 -54 106 -159 106v94h12c83 0 124 29 124 100c0 59 -32 93 -88 93c-69 0 -97 -37 -97 -125h-130v12c0 154 93 226 230 226s225 -75 225 -193
c0 -65 -27 -103 -93 -144c80 -39 116 -86 116 -169z" />
    <glyph glyph-name="four" unicode="4" 
d="M522 157h-74v-157h-140v157h-284v118l259 434h165v-436h74v-116zM308 273v303l-185 -303h185z" />
    <glyph glyph-name="five" unicode="5" 
d="M517 241c0 -153 -104 -250 -256 -250c-138 0 -234 84 -234 208h138c0 -57 37 -88 98 -88c70 0 114 44 114 127c0 86 -43 130 -114 130c-43 0 -75 -19 -90 -54h-126l63 395h379v-125h-293l-23 -148c41 31 76 43 123 43c131 0 221 -93 221 -238z" />
    <glyph glyph-name="six" unicode="6" 
d="M519 244c0 -154 -96 -253 -237 -253c-84 0 -158 32 -199 98c-36 57 -51 126 -51 248c0 255 91 387 262 387c116 0 195 -59 213 -176h-130c-18 45 -42 63 -87 63c-87 0 -112 -64 -118 -207c44 46 83 63 141 63c122 0 206 -87 206 -223zM386 235c0 78 -42 122 -107 122
s-109 -47 -109 -125c0 -75 44 -121 108 -121c62 0 108 48 108 124z" />
    <glyph glyph-name="seven" unicode="7" 
d="M528 599c-168 -203 -241 -375 -254 -599h-141c18 151 45 244 93 347c29 62 113 191 156 237h-353v125h499v-110z" />
    <glyph glyph-name="eight" unicode="8" 
d="M525 211c0 -134 -103 -220 -251 -220c-149 0 -252 86 -252 220c0 84 34 131 116 175c-64 34 -92 77 -92 145c0 112 96 193 228 193c131 0 227 -81 227 -192c0 -70 -29 -112 -92 -146c82 -44 116 -91 116 -175zM380 518c-1 55 -42 93 -105 93s-106 -38 -106 -92
c0 -55 44 -94 106 -94c61 0 105 39 105 93zM385 217c0 74 -43 113 -112 113c-67 0 -111 -39 -111 -111c0 -70 43 -108 111 -108s112 38 112 106z" />
    <glyph glyph-name="nine" unicode="9" 
d="M516 385c0 -251 -83 -394 -261 -394c-122 0 -214 80 -217 189h135c3 -42 37 -69 86 -69c79 0 117 67 117 202c-49 -55 -73 -70 -136 -70c-126 0 -212 93 -212 239c0 148 97 242 239 242c145 0 249 -91 249 -339zM373 482c0 83 -42 128 -110 128c-62 0 -102 -44 -102 -126
c0 -81 40 -125 104 -125s108 45 108 123z" />
    <glyph glyph-name="colon" unicode=":" horiz-adv-x="333" 
d="M242 0h-150v146h150v-146zM242 374h-150v146h150v-146z" />
    <glyph glyph-name="semicolon" unicode=";" horiz-adv-x="333" 
d="M242 9c0 -78 -14 -115 -54 -146c-27 -21 -55 -32 -96 -37v56c59 12 86 47 86 115v3h-86v146h150v-137zM242 374h-150v146h150v-146z" />
    <glyph glyph-name="less" unicode="&#x3c;" horiz-adv-x="584" 
d="M464 -105l-376 317v76l376 317v-130l-266 -225l266 -225v-130z" />
    <glyph glyph-name="equal" unicode="=" horiz-adv-x="584" 
d="M524 291h-464v100h464v-100zM524 109h-464v100h464v-100z" />
    <glyph glyph-name="greater" unicode="&#x3e;" horiz-adv-x="584" 
d="M464 212l-376 -317v130l266 225l-266 225v130l376 -317v-76z" />
    <glyph glyph-name="question" unicode="?" horiz-adv-x="611" 
d="M552 514c0 -84 -27 -128 -120 -194c-60 -42 -67 -53 -67 -119h-124v14c0 75 24 121 99 184c59 49 71 66 71 112c0 65 -45 115 -105 115c-64 0 -110 -57 -110 -134v-9v-2h-136c0 182 98 263 243 263c147 0 249 -94 249 -230zM381 0h-150v146h150v-146z" />
    <glyph glyph-name="at" unicode="@" horiz-adv-x="975" 
d="M959 366c0 -150 -116 -317 -278 -317c-58 0 -97 21 -113 61c-42 -39 -83 -56 -131 -56c-98 0 -173 82 -173 192c0 148 107 283 244 283c49 0 88 -21 116 -62l13 42h111l-74 -291c-7 -21 -10 -36 -10 -44c0 -16 16 -28 34 -28c76 0 148 104 148 208
c0 155 -150 284 -327 284c-197 0 -367 -169 -367 -365c0 -178 153 -313 350 -313c51 0 105 8 197 32l36 -90c-85 -32 -165 -46 -238 -46c-254 0 -456 179 -456 402c0 261 224 483 491 483c234 0 427 -170 427 -375zM579 360v5c0 42 -33 73 -76 73c-75 0 -132 -93 -132 -193
c0 -56 36 -100 81 -100c78 0 122 107 127 215z" />
    <glyph glyph-name="A" unicode="A" horiz-adv-x="722" 
d="M703 0h-154l-48 147h-273l-49 -147h-153l259 729h166zM460 272l-95 285l-95 -285h190z" />
    <glyph glyph-name="B" unicode="B" horiz-adv-x="722" 
d="M666 210c0 -120 -86 -210 -256 -210h-328v729h325c152 0 238 -89 238 -192c0 -62 -28 -104 -100 -150c82 -48 121 -105 121 -177zM501 521c0 54 -37 83 -106 83h-163v-165h163c69 0 106 29 106 82zM522 219c0 62 -38 95 -111 95h-179v-189h179c73 0 111 33 111 94z" />
    <glyph glyph-name="C" unicode="C" horiz-adv-x="722" 
d="M685 249c-9 -167 -130 -261 -311 -261c-203 0 -330 142 -330 376c0 236 128 377 334 377c164 0 291 -91 304 -259h-143c-22 94 -75 131 -156 131c-118 0 -189 -90 -189 -251c0 -159 68 -248 184 -248c93 0 152 42 161 135h146z" />
    <glyph glyph-name="D" unicode="D" horiz-adv-x="722" 
d="M681 365c0 -113 -32 -212 -89 -280c-50 -59 -119 -85 -230 -85h-285v729h285c112 0 181 -25 230 -84c58 -69 89 -168 89 -280zM531 364c0 161 -56 240 -169 240h-135v-479h135c113 0 169 79 169 239z" />
    <glyph glyph-name="E" unicode="E" horiz-adv-x="667" 
d="M624 0h-545v729h527v-125h-377v-165h349v-125h-349v-189h395v-125z" />
    <glyph glyph-name="F" unicode="F" horiz-adv-x="611" 
d="M586 604h-362v-165h319v-125h-319v-314h-150v729h512v-125z" />
    <glyph glyph-name="G" unicode="G" horiz-adv-x="778" 
d="M711 0h-90l-18 100c-56 -77 -122 -112 -220 -112c-197 0 -341 156 -341 377c0 227 143 376 353 376c176 0 298 -95 316 -245h-141c-29 85 -92 117 -174 117c-127 0 -204 -89 -204 -246c0 -150 87 -251 208 -251c89 0 175 60 185 151h-166v125h292v-392z" />
    <glyph glyph-name="H" unicode="H" horiz-adv-x="722" 
d="M657 0h-150v331h-289v-331h-150v729h150v-273h289v273h150v-729z" />
    <glyph glyph-name="I" unicode="I" horiz-adv-x="278" 
d="M213 0h-150v729h150v-729z" />
    <glyph glyph-name="J" unicode="J" 
d="M486 201c0 -136 -85 -213 -234 -213c-136 0 -228 76 -228 221v61h150v-59c0 -67 24 -95 81 -95c52 0 81 30 81 85v528h150v-528z" />
    <glyph glyph-name="K" unicode="K" horiz-adv-x="722" 
d="M717 0h-179l-239 322l-75 -78v-244h-150v729h150v-320l285 320h177l-291 -314z" />
    <glyph glyph-name="L" unicode="L" horiz-adv-x="611" 
d="M579 0h-499v729h150v-604h349v-125z" />
    <glyph glyph-name="M" unicode="M" horiz-adv-x="833" 
d="M776 0h-150v568l-129 -568h-150l-131 568v-568h-150v729h224l132 -580l128 580h226v-729z" />
    <glyph glyph-name="N" unicode="N" horiz-adv-x="722" 
d="M661 0h-150l-293 504v-504h-150v729h154l289 -496v496h150v-729z" />
    <glyph glyph-name="O" unicode="O" horiz-adv-x="778" 
d="M742 360c0 -213 -139 -372 -351 -372c-214 0 -351 159 -351 377c0 209 136 376 350 376c213 0 352 -161 352 -381zM592 361c0 152 -78 252 -201 252c-121 0 -201 -101 -201 -248c0 -153 80 -249 201 -249c120 0 201 96 201 245z" />
    <glyph glyph-name="P" unicode="P" horiz-adv-x="667" 
d="M633 503c0 -148 -86 -243 -220 -243h-187v-260h-150v729h322c152 0 235 -80 235 -226zM483 494c0 75 -37 110 -117 110h-140v-219h140c80 0 117 35 117 109z" />
    <glyph glyph-name="Q" unicode="Q" horiz-adv-x="778" 
d="M745 38l-76 -81l-86 81c-58 -35 -114 -50 -189 -50c-212 0 -351 158 -351 377s138 376 351 376s351 -159 351 -374c0 -98 -31 -193 -80 -253zM595 364c0 149 -79 249 -201 249c-121 0 -201 -95 -201 -248s80 -249 200 -249c32 0 65 7 88 19l-77 73l76 81l82 -78
c22 44 33 93 33 153z" />
    <glyph glyph-name="R" unicode="R" horiz-adv-x="722" 
d="M677 0h-161c-19 35 -23 57 -23 125l2 77c0 61 -28 87 -93 87h-172v-289h-150v729h391c129 0 196 -84 196 -197c0 -89 -41 -148 -123 -180c93 -40 97 -50 101 -265c0 -32 9 -47 32 -60v-27zM517 511c0 63 -24 93 -106 93h-181v-190h181c85 0 106 32 106 97z" />
    <glyph glyph-name="S" unicode="S" horiz-adv-x="667" 
d="M633 219c0 -148 -111 -231 -299 -231c-186 0 -302 85 -302 241h146c0 -78 62 -121 164 -121c91 0 147 32 147 93c0 59 -37 80 -137 100l-102 20c-148 29 -205 82 -205 196c0 142 101 224 276 224c178 0 286 -80 286 -234h-140c0 74 -58 114 -153 114
c-77 0 -126 -35 -126 -90c0 -53 31 -74 138 -95l114 -22c135 -26 193 -80 193 -195z" />
    <glyph glyph-name="T" unicode="T" horiz-adv-x="611" 
d="M598 604h-213v-604h-150v604h-221v125h584v-125z" />
    <glyph glyph-name="U" unicode="U" horiz-adv-x="722" 
d="M654 246c0 -172 -122 -258 -289 -258s-289 86 -289 258v483h150v-483c0 -88 45 -130 139 -130s139 42 139 130v483h150v-483z" />
    <glyph glyph-name="V" unicode="V" horiz-adv-x="667" 
d="M647 729l-250 -729h-127l-246 729h151l162 -549l159 549h151z" />
    <glyph glyph-name="W" unicode="W" horiz-adv-x="944" 
d="M932 729l-202 -729h-135l-122 569l-119 -569h-135l-206 729h159l113 -546l113 546h148l118 -547l109 547h159z" />
    <glyph glyph-name="X" unicode="X" horiz-adv-x="667" 
d="M653 0h-178l-140 253l-139 -253h-174l230 367l-222 362h178l128 -240l134 240h174l-225 -357z" />
    <glyph glyph-name="Y" unicode="Y" horiz-adv-x="667" 
d="M650 729l-231 -459v-270h-150v270l-242 459h167l149 -322l139 322h168z" />
    <glyph glyph-name="Z" unicode="Z" horiz-adv-x="611" 
d="M578 0h-548v125l373 479h-373v125h548v-125l-372 -479h372v-125z" />
    <glyph glyph-name="bracketleft" unicode="[" horiz-adv-x="333" 
d="M308 -200h-242v929h242v-102h-112v-725h112v-102z" />
    <glyph glyph-name="backslash" unicode="\" horiz-adv-x="278" 
d="M305 -14h-97l-234 728h97z" />
    <glyph glyph-name="bracketright" unicode="]" horiz-adv-x="333" 
d="M260 -200h-242v102h112v725h-112v102h242v-929z" />
    <glyph glyph-name="asciicircum" unicode="^" horiz-adv-x="584" 
d="M522 270h-113l-121 300l-115 -300h-112l165 425h125z" />
    <glyph glyph-name="underscore" unicode="_" 
d="M578 -189h-600v69h600v-69z" />
    <glyph glyph-name="grave" unicode="`" horiz-adv-x="333" 
d="M216 598h-100l-126 154h156z" />
    <glyph glyph-name="a" unicode="a" 
d="M524 0h-152c-13 16 -16 40 -16 68c-49 -51 -104 -77 -164 -77c-90 0 -164 50 -164 155c0 98 52 144 159 163l56 10c70 12 112 6 112 63c0 36 -27 54 -81 54c-69 0 -92 -18 -99 -74h-135c9 125 85 187 231 187s221 -56 221 -166v-300c0 -28 7 -43 32 -66v-17zM355 231v24
c-16 -8 -22 -10 -59 -17l-48 -9c-58 -11 -80 -26 -80 -67c0 -40 29 -58 76 -58c71 0 111 46 111 127z" />
    <glyph glyph-name="b" unicode="b" horiz-adv-x="611" 
d="M575 263c0 -163 -98 -272 -227 -272c-68 0 -115 25 -149 71v-62h-140v729h140v-259c34 54 82 79 149 79c142 0 227 -133 227 -286zM435 269c0 100 -49 163 -118 163c-70 0 -118 -62 -118 -160c0 -103 47 -164 118 -164c69 0 118 63 118 161z" />
    <glyph glyph-name="c" unicode="c" 
d="M522 187c-13 -115 -104 -196 -235 -196c-160 0 -253 97 -253 275c0 184 94 283 255 283c135 0 223 -79 233 -211h-134c-16 71 -43 98 -100 98c-88 0 -114 -71 -114 -170c0 -105 43 -162 114 -162c54 0 82 27 100 83h134z" />
    <glyph glyph-name="d" unicode="d" horiz-adv-x="611" 
d="M545 0h-140v62c-35 -46 -82 -71 -149 -71c-143 0 -227 125 -227 278c0 163 98 280 227 280c67 0 114 -25 149 -79v259h140v-729zM405 267c0 103 -47 165 -118 165c-70 0 -118 -63 -118 -163c0 -99 48 -161 118 -161s118 61 118 159z" />
    <glyph glyph-name="e" unicode="e" 
d="M525 250l-1 -17h-362c4 -105 46 -135 112 -135c51 0 95 15 107 54h138c-31 -106 -129 -161 -250 -161c-153 0 -247 99 -247 272c0 181 95 286 250 286c159 0 253 -113 253 -299zM379 326c-7 77 -49 116 -109 116c-62 0 -97 -41 -106 -116h215z" />
    <glyph glyph-name="f" unicode="f" horiz-adv-x="333" 
d="M313 436h-83v-436h-140v436h-76v93h76v65c0 91 45 135 138 135c19 0 54 -1 80 -3v-105c-12 2 -28 3 -40 3c-26 0 -38 -14 -38 -42v-53h83v-93z" />
    <glyph glyph-name="g" unicode="g" horiz-adv-x="611" 
d="M541 -18c0 -127 -94 -200 -257 -200c-148 0 -237 65 -239 153h145c11 -41 46 -63 99 -63c70 0 119 45 119 110v80c-52 -52 -90 -71 -153 -71c-133 0 -221 105 -221 273c0 167 96 285 224 285c62 0 108 -28 150 -92v83h133v-558zM410 266c0 100 -52 166 -122 166
c-68 0 -114 -64 -114 -166c0 -98 46 -158 112 -158c73 0 124 60 124 158z" />
    <glyph glyph-name="h" unicode="h" horiz-adv-x="611" 
d="M541 0h-140v330c0 73 -36 100 -86 100c-63 0 -108 -44 -108 -106v-324h-140v729h140v-267c39 59 89 87 158 87c102 0 176 -61 176 -187v-362z" />
    <glyph glyph-name="i" unicode="i" horiz-adv-x="278" 
d="M207 0h-140v540h140v-540zM209 605h-140v140h140v-140z" />
    <glyph glyph-name="j" unicode="j" horiz-adv-x="278" 
d="M210 -94c0 -88 -36 -124 -123 -124c-20 0 -55 2 -83 5v112c10 -3 16 -4 25 -4c30 0 41 11 41 42v603h140v-634zM210 605h-140v140h140v-140z" />
    <glyph glyph-name="k" unicode="k" 
d="M548 0h-164l-129 238l-56 -61v-177h-140v729h140v-399l177 210h159l-184 -204z" />
    <glyph glyph-name="l" unicode="l" horiz-adv-x="278" 
d="M207 0h-140v729h140v-729z" />
    <glyph glyph-name="m" unicode="m" horiz-adv-x="889" 
d="M824 0h-140v360c0 43 -29 70 -76 70c-60 0 -96 -40 -96 -106v-324h-140v360c0 43 -29 70 -76 70c-60 0 -96 -40 -96 -106v-324h-140v540h139v-67c46 55 86 76 148 76c67 0 121 -29 147 -80c42 56 90 80 158 80c108 0 172 -62 172 -167v-382z" />
    <glyph glyph-name="n" unicode="n" horiz-adv-x="611" 
d="M546 0h-140v333c0 64 -30 97 -90 97c-68 0 -113 -42 -113 -106v-324h-140v540h140v-78c40 60 89 87 162 87c115 0 181 -68 181 -187v-362z" />
    <glyph glyph-name="o" unicode="o" horiz-adv-x="611" 
d="M569 266c0 -173 -103 -275 -267 -275c-166 0 -267 101 -267 279c0 177 101 279 266 279c169 0 268 -100 268 -283zM429 268c0 106 -50 168 -127 168c-76 0 -127 -63 -127 -166s51 -166 127 -166c75 0 127 63 127 164z" />
    <glyph glyph-name="p" unicode="p" horiz-adv-x="611" 
d="M574 270c0 -164 -96 -279 -226 -279c-68 0 -116 21 -150 81v-290h-140v758h140v-80c34 60 82 89 150 89c141 0 226 -119 226 -279zM434 268c0 103 -47 164 -118 164c-70 0 -118 -61 -118 -162s48 -162 118 -162c69 0 118 62 118 160z" />
    <glyph glyph-name="q" unicode="q" horiz-adv-x="611" 
d="M544 -218h-140v290c-33 -59 -83 -81 -151 -81c-138 0 -225 117 -225 279c0 165 96 279 226 279c67 0 117 -30 150 -89v80h140v-758zM404 267c0 105 -47 165 -118 165c-70 0 -118 -61 -118 -162s48 -162 118 -162s118 61 118 159z" />
    <glyph glyph-name="r" unicode="r" horiz-adv-x="389" 
d="M370 406c-19 3 -29 4 -44 4c-82 0 -123 -41 -123 -123v-287h-140v540h140v-106c30 73 86 115 150 115c4 0 9 0 17 -1v-142z" />
    <glyph glyph-name="s" unicode="s" 
d="M520 160c0 -109 -84 -169 -236 -169c-164 0 -251 62 -255 180h137c12 -58 46 -70 110 -70c65 0 104 13 104 46c0 15 -12 26 -47 37l-167 52c-100 31 -118 67 -118 133c0 111 85 180 222 180c145 0 233 -69 235 -183h-135c-1 49 -34 73 -101 73c-49 0 -81 -20 -81 -50
c0 -22 10 -31 49 -42l177 -51c71 -21 106 -67 106 -129v-7z" />
    <glyph glyph-name="t" unicode="t" horiz-adv-x="333" 
d="M301 0c-25 -1 -50 -4 -81 -4c-92 0 -137 35 -137 120v320h-69v93h69v145h140v-145h78v-93h-78v-282c0 -48 9 -59 46 -59c10 0 18 1 32 3v-98z" />
    <glyph glyph-name="u" unicode="u" horiz-adv-x="611" 
d="M541 0h-140v71c-40 -53 -89 -80 -162 -80c-115 0 -181 68 -181 187v362h140v-333c0 -65 30 -97 90 -97c68 0 113 42 113 106v324h140v-540z" />
    <glyph glyph-name="v" unicode="v" 
d="M536 540l-186 -540h-147l-189 540h148l117 -395l109 395h148z" />
    <glyph glyph-name="w" unicode="w" horiz-adv-x="778" 
d="M766 540l-153 -540h-145l-81 381l-86 -381h-144l-152 540h145l86 -378l82 378h140l81 -378l82 378h145z" />
    <glyph glyph-name="x" unicode="x" 
d="M535 0h-168l-91 168l-92 -168h-168l180 272l-176 268h168l88 -163l87 163h168l-176 -268z" />
    <glyph glyph-name="y" unicode="y" 
d="M538 540l-222 -639c-37 -103 -86 -120 -180 -120c-17 0 -29 1 -50 4v105c18 -5 26 -6 37 -6c49 0 87 39 87 90v3l-201 563h154l119 -393l112 393h144z" />
    <glyph glyph-name="z" unicode="z" horiz-adv-x="500" 
d="M468 0h-447v113l267 314h-249v113h420v-113l-265 -314h274v-113z" />
    <glyph glyph-name="braceleft" unicode="{" horiz-adv-x="389" 
d="M317 -200h-76c-72 0 -123 58 -123 140v210c0 55 -13 72 -77 72l-4 1v92h16c45 0 65 21 65 63v211c0 82 51 140 123 140h76v-99h-37c-31 0 -45 -17 -45 -57v-195c0 -73 -22 -98 -97 -109c75 -12 97 -37 97 -110v-195c0 -49 11 -65 45 -65h37v-99z" />
    <glyph glyph-name="bar" unicode="|" horiz-adv-x="280" 
d="M190 -200h-100v929h100v-929z" />
    <glyph glyph-name="braceright" unicode="}" horiz-adv-x="389" 
d="M352 214h-4h-12c-45 -1 -65 -20 -65 -63v-211c0 -82 -51 -140 -123 -140h-76v99h37c31 0 45 17 45 57v195c0 73 22 98 97 109c-75 12 -97 37 -97 110v195c0 49 -11 65 -45 65h-37v99h76c72 0 123 -58 123 -140v-210c0 -55 13 -72 77 -72l4 -1v-92z" />
    <glyph glyph-name="asciitilde" unicode="~" horiz-adv-x="584" 
d="M519 288c-6 -98 -47 -146 -127 -146c-32 0 -58 7 -83 26l-57 42c-23 17 -40 24 -61 24c-36 0 -51 -13 -53 -65h-78c5 97 48 145 127 145c32 0 59 -8 83 -25l57 -42c26 -19 40 -25 61 -25c36 0 51 12 53 66h78z" />
    <glyph glyph-name="uni00A0" unicode="&#xa0;" horiz-adv-x="278" 
 />
    <glyph glyph-name="exclamdown" unicode="&#xa1;" horiz-adv-x="333" 
d="M242 -186h-150v210l42 309h67l41 -309v-210zM242 394h-150v146h150v-146z" />
    <glyph glyph-name="cent" unicode="&#xa2;" 
d="M522 187c-11 -120 -100 -205 -219 -210v-101h-44v102c-139 9 -223 115 -223 281c0 172 78 274 223 289v86h44v-85c123 -2 211 -87 219 -211h-134c-13 62 -38 90 -85 97v-344c46 7 70 35 85 96h134zM259 94v339c-54 -14 -83 -74 -83 -173c0 -93 29 -150 83 -166z" />
    <glyph glyph-name="sterling" unicode="&#xa3;" 
d="M537 22c-56 -33 -96 -45 -145 -45c-34 0 -162 32 -197 32c-38 0 -65 -8 -109 -30l-55 101c84 57 110 93 110 151c0 25 -5 46 -21 85h-89v55h60c-45 79 -53 101 -53 145c0 110 92 199 238 199c155 0 232 -71 246 -231h-132l-1 11c-11 85 -56 109 -112 109
c-57 0 -98 -38 -98 -91c0 -20 3 -28 27 -77c17 -35 24 -50 30 -65h139v-55h-122c12 -26 15 -39 15 -59c0 -58 -31 -104 -116 -171c63 30 83 37 112 37c11 0 91 -21 127 -21c33 0 65 9 105 29z" />
    <glyph glyph-name="currency" unicode="&#xa4;" 
d="M382 357c0 63 -42 111 -104 111s-102 -48 -102 -111s40 -113 102 -113s104 50 104 113zM559 142l-66 -66l-98 98c-29 -19 -71 -33 -117 -33c-44 0 -86 14 -117 33l-98 -98l-66 66l98 98c-19 31 -31 71 -31 117c0 44 14 88 31 115l-98 98l66 66l98 -98c31 19 73 33 117 33
c46 0 88 -14 117 -33l98 98l66 -66l-98 -98c19 -29 33 -71 33 -115c0 -46 -14 -88 -33 -117z" />
    <glyph glyph-name="yen" unicode="&#xa5;" 
d="M552 704l-192 -353h137v-59h-142v-53h142v-59h-142v-180h-140v180h-145v59h145v53h-145v59h138l-203 353h139l139 -254l134 254h135z" />
    <glyph glyph-name="brokenbar" unicode="&#xa6;" horiz-adv-x="280" 
d="M190 357h-100v372h100v-372zM190 -200h-100v372h100v-372z" />
    <glyph glyph-name="section" unicode="&#xa7;" 
d="M518 262c0 -67 -27 -107 -94 -138c47 -33 70 -77 70 -134c0 -114 -88 -191 -218 -191c-139 0 -210 68 -211 201h131v-10c4 -65 36 -80 81 -80s76 25 76 61c0 33 -1 40 -70 78l-171 100c-51 30 -79 77 -79 132c0 60 21 93 92 147c-48 48 -61 71 -61 123
c0 100 88 172 209 172c126 0 195 -59 200 -179h-127c-7 53 -31 77 -78 77c-38 0 -64 -20 -64 -51c0 -28 19 -46 90 -85l127 -70c66 -37 97 -86 97 -153zM398 232c0 32 -14 49 -61 74l-143 76c-30 -18 -42 -36 -42 -65c0 -31 13 -48 53 -70l147 -80c34 24 46 42 46 65z" />
    <glyph glyph-name="dieresis" unicode="&#xa8;" horiz-adv-x="333" 
d="M132 618h-126v115h126v-115zM327 618h-126v115h126v-115z" />
    <glyph glyph-name="copyright" unicode="&#xa9;" horiz-adv-x="737" 
d="M718 340c0 -192 -157 -348 -349 -348s-348 156 -348 348s156 349 348 349s349 -157 349 -349zM659 340c0 160 -130 290 -290 290s-289 -130 -289 -290s129 -289 289 -289s290 129 290 289zM558 288c-2 -95 -74 -149 -184 -149c-119 0 -194 75 -194 200
c0 126 76 201 196 201c100 0 176 -53 180 -148h-95c-11 48 -38 67 -82 67c-62 0 -98 -44 -98 -121c0 -76 35 -119 95 -119c50 0 82 21 84 69h98z" />
    <glyph glyph-name="ordfeminine" unicode="&#xaa;" horiz-adv-x="370" 
d="M321 262h-284v78h284v-78zM329 400h-92c-8 10 -9 16 -10 32c-28 -30 -62 -46 -98 -46c-59 0 -98 39 -98 98s30 91 95 103l34 6c66 12 67 18 67 37c0 20 -17 31 -49 31c-40 0 -55 -12 -59 -44h-78c1 74 47 112 135 112s133 -34 133 -100v-179c0 -17 4 -26 20 -40v-10z
M227 530v23c-10 -6 -13 -6 -35 -10l-29 -6c-35 -7 -48 -19 -48 -44c0 -24 17 -39 46 -39c42 0 66 28 66 76z" />
    <glyph glyph-name="guillemotleft" unicode="&#xab;" 
d="M255 72l-167 146v114l167 149v-117l-101 -89l101 -89v-114zM468 72l-167 146v114l167 149v-117l-101 -89l101 -89v-114z" />
    <glyph glyph-name="logicalnot" unicode="&#xac;" horiz-adv-x="584" 
d="M524 159h-100v132h-364v100h464v-232z" />
    <glyph glyph-name="uni00AD" unicode="&#xad;" horiz-adv-x="333" 
d="M298 207h-272v135h272v-135z" />
    <glyph glyph-name="registered" unicode="&#xae;" horiz-adv-x="737" 
d="M718 340c0 -192 -157 -348 -349 -348s-348 156 -348 348s156 349 348 349s349 -157 349 -349zM659 340c0 160 -130 290 -290 290s-289 -130 -289 -290s129 -289 289 -289s290 129 290 289zM545 145h-103c-13 21 -17 32 -17 72c0 8 2 32 2 39c0 27 -14 37 -45 37h-89v-148
h-100v389h228c78 0 118 -47 118 -109c0 -43 -18 -73 -56 -92c39 -17 42 -33 44 -138c1 -12 6 -18 18 -23v-27zM439 415c0 27 -12 39 -52 39h-94v-81h94c41 0 52 13 52 42z" />
    <glyph glyph-name="macron" unicode="&#xaf;" horiz-adv-x="333" 
d="M315 636h-299v79h299v-79z" />
    <glyph glyph-name="degree" unicode="&#xb0;" horiz-adv-x="400" 
d="M343 569c0 -79 -64 -143 -143 -143s-143 64 -143 143s64 143 143 143s143 -64 143 -143zM287 569c0 48 -39 87 -87 87s-87 -39 -87 -87s39 -87 87 -87s87 39 87 87z" />
    <glyph glyph-name="plusminus" unicode="&#xb1;" horiz-adv-x="584" 
d="M524 300h-182v-110h-100v110h-182v100h182v182h100v-182h182v-100zM524 0h-464v100h464v-100z" />
    <glyph glyph-name="two.superior" unicode="&#xb2;" horiz-adv-x="333" 
d="M303 600c0 -54 -21 -79 -90 -129c-59 -41 -51 -33 -77 -64h165v-71h-273c2 72 23 104 92 149c87 57 99 73 99 111c0 36 -20 57 -54 57c-33 0 -52 -23 -52 -63l1 -14h-81c-1 7 -1 13 -1 16c0 81 50 126 138 126c85 0 133 -42 133 -118z" />
    <glyph glyph-name="three.superior" unicode="&#xb3;" horiz-adv-x="333" 
d="M307 446c0 -74 -56 -122 -140 -122c-87 0 -136 46 -137 126h81c3 -39 20 -58 57 -58c32 0 55 22 55 53c0 35 -26 55 -74 55h-14v55h10c43 0 66 18 66 51c0 29 -19 48 -47 48c-36 0 -50 -19 -50 -66h-78c4 94 51 130 131 130c77 0 127 -41 127 -103c0 -34 -16 -60 -46 -78
c39 -19 59 -50 59 -91z" />
    <glyph glyph-name="acute" unicode="&#xb4;" horiz-adv-x="333" 
d="M343 752l-126 -154h-100l70 154h156z" />
    <glyph glyph-name="uni00B5" unicode="&#xb5;" horiz-adv-x="611" 
d="M573 -6c-23 -12 -42 -17 -70 -17c-47 0 -71 14 -95 54c-39 -40 -70 -54 -116 -54c-41 0 -72 11 -100 38v-235h-134v760h140v-334c0 -75 31 -110 84 -110c59 0 101 44 101 106v338h140v-390c0 -58 6 -73 30 -73c6 0 10 1 20 4v-87z" />
    <glyph glyph-name="paragraph" unicode="&#xb6;" 
d="M529 657h-43v-848h-98v848h-63v-848h-98v458c-123 6 -208 100 -208 228c0 125 87 234 207 234h303v-72z" />
    <glyph glyph-name="periodcentered" unicode="&#xb7;" horiz-adv-x="278" 
d="M214 250c0 -41 -34 -75 -75 -75s-75 34 -75 75s34 75 75 75s75 -34 75 -75z" />
    <glyph glyph-name="cedilla" unicode="&#xb8;" horiz-adv-x="333" 
d="M294 -127c0 -60 -46 -102 -129 -102c-44 0 -73 6 -138 28l19 61c53 -23 77 -30 105 -30c32 0 57 18 57 41c0 21 -20 31 -51 31h-64l49 103h63l-27 -55h40c47 0 76 -33 76 -77z" />
    <glyph glyph-name="one.superior" unicode="&#xb9;" horiz-adv-x="333" 
d="M231 335h-84v254h-94v54c69 0 109 22 122 66h56v-374z" />
    <glyph glyph-name="ordmasculine" unicode="&#xba;" horiz-adv-x="365" 
d="M334 262h-301v78h301v-78zM343 555c0 -104 -62 -169 -160 -169c-99 0 -160 65 -160 171c0 107 61 172 160 172c101 0 160 -64 160 -174zM259 556c0 63 -30 105 -76 105c-45 0 -76 -42 -76 -103c0 -62 31 -104 76 -104s76 42 76 102z" />
    <glyph glyph-name="guillemotright" unicode="&#xbb;" 
d="M255 220l-167 -148v117l101 89l-101 89v114l167 -146v-115zM462 220l-167 -148v117l101 89l-101 89v114l167 -146v-115z" />
    <glyph glyph-name="onequarter" unicode="&#xbc;" horiz-adv-x="834" 
d="M242 335h-84v254h-94v54c69 0 109 22 122 66h56v-374zM670 715l-423 -740h-87l423 740h87zM758 82h-40v-82h-84v82h-158v65l146 227h96v-226h40v-66zM634 148v144l-93 -144h93z" />
    <glyph glyph-name="onehalf" unicode="&#xbd;" horiz-adv-x="834" 
d="M242 335h-84v254h-94v54c69 0 109 22 122 66h56v-374zM644 715l-423 -740h-87l423 740h87zM774 264c0 -53 -19 -80 -89 -128c-57 -40 -51 -34 -77 -65h165v-71h-273c2 72 23 104 91 149c88 57 100 73 100 111c0 36 -20 57 -54 57c-33 0 -53 -23 -53 -63l2 -14h-81
c-1 7 -1 13 -1 16c0 81 50 126 138 126c85 0 132 -42 132 -118z" />
    <glyph glyph-name="threequarters" unicode="&#xbe;" horiz-adv-x="834" 
d="M340 446c0 -74 -56 -122 -140 -122c-87 0 -136 46 -137 126h81c3 -39 20 -58 57 -58c32 0 55 22 55 53c0 35 -26 55 -74 55h-14v55h10c43 0 66 18 66 51c0 29 -19 48 -47 48c-36 0 -50 -19 -50 -66h-78c4 94 51 130 131 130c77 0 127 -41 127 -103c0 -34 -16 -60 -46 -78
c39 -19 59 -50 59 -91zM702 715l-423 -740h-87l423 740h87zM758 82h-40v-82h-84v82h-158v65l146 227h96v-226h40v-66zM634 148v144l-93 -144h93z" />
    <glyph glyph-name="questiondown" unicode="&#xbf;" horiz-adv-x="611" 
d="M552 59c0 -182 -98 -263 -243 -263c-147 0 -249 94 -249 230c0 84 27 128 120 194c60 42 67 53 67 119h124v-14c0 -75 -24 -121 -99 -184c-59 -49 -71 -66 -71 -112c0 -65 45 -115 105 -115c64 0 110 57 110 134v9v2h136zM381 394h-150v146h150v-146z" />
    <glyph glyph-name="Agrave" unicode="&#xc0;" horiz-adv-x="722" 
d="M703 0h-154l-48 147h-273l-49 -147h-153l259 729h166zM460 272l-95 285l-95 -285h190zM421 786h-106l-135 135h165z" />
    <glyph glyph-name="Aacute" unicode="&#xc1;" horiz-adv-x="722" 
d="M703 0h-154l-48 147h-273l-49 -147h-153l259 729h166zM460 272l-95 285l-95 -285h190zM556 921l-135 -135h-106l76 135h165z" />
    <glyph glyph-name="Acircumflex" unicode="&#xc2;" horiz-adv-x="722" 
d="M703 0h-154l-48 147h-273l-49 -147h-153l259 729h166zM460 272l-95 285l-95 -285h190zM559 787h-94l-98 70l-99 -70h-91l130 135h128z" />
    <glyph glyph-name="Atilde" unicode="&#xc3;" horiz-adv-x="722" 
d="M703 0h-154l-48 147h-273l-49 -147h-153l259 729h166zM460 272l-95 285l-95 -285h190zM547 918c-4 -85 -36 -127 -95 -127c-15 0 -34 4 -55 12l-71 26c-12 4 -21 6 -30 6c-24 0 -35 -13 -40 -45h-63c4 78 39 124 94 124c19 0 20 0 56 -13l71 -25c7 -3 27 -6 34 -6
c21 0 33 16 36 48h63z" />
    <glyph glyph-name="Adieresis" unicode="&#xc4;" horiz-adv-x="722" 
d="M703 0h-154l-48 147h-273l-49 -147h-153l259 729h166zM460 272l-95 285l-95 -285h190zM334 797h-126v115h126v-115zM529 797h-126v115h126v-115z" />
    <glyph glyph-name="Aring" unicode="&#xc5;" horiz-adv-x="722" 
d="M703 0h-154l-48 147h-273l-49 -147h-153l259 729h166zM460 272l-95 285l-95 -285h190zM468 862c0 -54 -46 -98 -99 -98c-56 0 -100 44 -100 99s44 99 101 99c55 0 98 -44 98 -100zM415 863c0 25 -20 46 -45 46c-27 0 -48 -21 -48 -46s21 -46 48 -46c24 0 45 21 45 46z
" />
    <glyph glyph-name="AE" unicode="&#xc6;" horiz-adv-x="1000" 
d="M966 0h-536v152h-223l-53 -152h-153l263 729h682v-125h-366v-165h339v-125h-339v-189h386v-125zM430 277v327h-67l-114 -327h181z" />
    <glyph glyph-name="Ccedilla" unicode="&#xc7;" horiz-adv-x="722" 
d="M685 249c-9 -160 -120 -253 -288 -260l-19 -39h40c47 0 76 -33 76 -77c0 -60 -46 -102 -129 -102c-44 0 -73 6 -138 28l19 61c53 -23 77 -30 105 -30c32 0 57 18 57 41c0 21 -20 31 -51 31h-64l42 88c-180 17 -291 155 -291 374c0 236 128 377 334 377
c164 0 291 -91 304 -259h-143c-22 94 -75 131 -156 131c-118 0 -189 -90 -189 -251c0 -159 68 -248 184 -248c93 0 152 42 161 135h146z" />
    <glyph glyph-name="Egrave" unicode="&#xc8;" horiz-adv-x="667" 
d="M624 0h-545v729h527v-125h-377v-165h349v-125h-349v-189h395v-125zM396 786h-106l-135 135h165z" />
    <glyph glyph-name="Eacute" unicode="&#xc9;" horiz-adv-x="667" 
d="M624 0h-545v729h527v-125h-377v-165h349v-125h-349v-189h395v-125zM531 921l-135 -135h-106l76 135h165z" />
    <glyph glyph-name="Ecircumflex" unicode="&#xca;" horiz-adv-x="667" 
d="M624 0h-545v729h527v-125h-377v-165h349v-125h-349v-189h395v-125zM534 787h-94l-98 70l-99 -70h-91l130 135h128z" />
    <glyph glyph-name="Edieresis" unicode="&#xcb;" horiz-adv-x="667" 
d="M624 0h-545v729h527v-125h-377v-165h349v-125h-349v-189h395v-125zM309 797h-126v115h126v-115zM504 797h-126v115h126v-115z" />
    <glyph glyph-name="Igrave" unicode="&#xcc;" horiz-adv-x="278" 
d="M213 0h-150v729h150v-729zM213 786h-106l-135 135h165z" />
    <glyph glyph-name="Iacute" unicode="&#xcd;" horiz-adv-x="278" 
d="M213 0h-150v729h150v-729zM305 921l-135 -135h-106l76 135h165z" />
    <glyph glyph-name="Icircumflex" unicode="&#xce;" horiz-adv-x="278" 
d="M213 0h-150v729h150v-729zM329 787h-94l-98 70l-99 -70h-91l130 135h128z" />
    <glyph glyph-name="Idieresis" unicode="&#xcf;" horiz-adv-x="278" 
d="M213 0h-150v729h150v-729zM104 797h-126v115h126v-115zM299 797h-126v115h126v-115z" />
    <glyph glyph-name="Eth" unicode="&#xd0;" horiz-adv-x="722" 
d="M681 365c0 -108 -33 -211 -88 -280c-48 -60 -117 -85 -231 -85h-285v339h-77v80h77v310h285c114 0 183 -25 231 -84c55 -68 88 -174 88 -280zM537 364c0 141 -38 240 -175 240h-135v-185h150v-80h-150v-214h135c137 0 175 100 175 239z" />
    <glyph glyph-name="Ntilde" unicode="&#xd1;" horiz-adv-x="722" 
d="M661 0h-150l-293 504v-504h-150v729h154l289 -496v496h150v-729zM540 918c-4 -85 -36 -127 -95 -127c-15 0 -34 4 -55 12l-71 26c-12 4 -21 6 -30 6c-24 0 -35 -13 -40 -45h-63c4 78 39 124 94 124c19 0 20 0 56 -13l71 -25c7 -3 27 -6 34 -6c21 0 33 16 36 48h63z" />
    <glyph glyph-name="Ograve" unicode="&#xd2;" horiz-adv-x="778" 
d="M742 360c0 -213 -139 -372 -351 -372c-214 0 -351 159 -351 377c0 209 136 376 350 376c213 0 352 -161 352 -381zM592 361c0 152 -78 252 -201 252c-121 0 -201 -101 -201 -248c0 -153 80 -249 201 -249c120 0 201 96 201 245zM443 786h-106l-135 135h165z" />
    <glyph glyph-name="Oacute" unicode="&#xd3;" horiz-adv-x="778" 
d="M742 360c0 -213 -139 -372 -351 -372c-214 0 -351 159 -351 377c0 209 136 376 350 376c213 0 352 -161 352 -381zM592 361c0 152 -78 252 -201 252c-121 0 -201 -101 -201 -248c0 -153 80 -249 201 -249c120 0 201 96 201 245zM578 921l-135 -135h-106l76 135h165z" />
    <glyph glyph-name="Ocircumflex" unicode="&#xd4;" horiz-adv-x="778" 
d="M742 360c0 -213 -139 -372 -351 -372c-214 0 -351 159 -351 377c0 209 136 376 350 376c213 0 352 -161 352 -381zM592 361c0 152 -78 252 -201 252c-121 0 -201 -101 -201 -248c0 -153 80 -249 201 -249c120 0 201 96 201 245zM581 787h-94l-98 70l-99 -70h-91l130 135
h128z" />
    <glyph glyph-name="Otilde" unicode="&#xd5;" horiz-adv-x="778" 
d="M742 360c0 -213 -139 -372 -351 -372c-214 0 -351 159 -351 377c0 209 136 376 350 376c213 0 352 -161 352 -381zM592 361c0 152 -78 252 -201 252c-121 0 -201 -101 -201 -248c0 -153 80 -249 201 -249c120 0 201 96 201 245zM569 918c-4 -85 -36 -127 -95 -127
c-15 0 -34 4 -55 12l-71 26c-12 4 -21 6 -30 6c-24 0 -35 -13 -40 -45h-63c4 78 39 124 94 124c19 0 20 0 56 -13l71 -25c7 -3 27 -6 34 -6c21 0 33 16 36 48h63z" />
    <glyph glyph-name="Odieresis" unicode="&#xd6;" horiz-adv-x="778" 
d="M742 360c0 -213 -139 -372 -351 -372c-214 0 -351 159 -351 377c0 209 136 376 350 376c213 0 352 -161 352 -381zM592 361c0 152 -78 252 -201 252c-121 0 -201 -101 -201 -248c0 -153 80 -249 201 -249c120 0 201 96 201 245zM356 797h-126v115h126v-115zM551 797h-126
v115h126v-115z" />
    <glyph glyph-name="multiply" unicode="&#xd7;" horiz-adv-x="584" 
d="M491 121l-70 -70l-129 128l-129 -128l-70 70l128 129l-128 129l70 70l129 -128l129 128l70 -70l-128 -129z" />
    <glyph glyph-name="Oslash" unicode="&#xd8;" horiz-adv-x="778" 
d="M742 360c0 -213 -139 -372 -351 -372c-87 0 -161 26 -218 72l-64 -69l-68 64l68 73c-45 64 -69 145 -69 237c0 209 136 376 350 376c86 0 161 -27 218 -73l65 70l68 -64l-69 -74c45 -64 70 -147 70 -240zM592 361c0 48 -8 91 -23 128l-303 -328c33 -29 76 -45 125 -45
c120 0 201 96 201 245zM515 568c-32 29 -75 45 -124 45c-121 0 -201 -101 -201 -248c0 -48 8 -90 22 -125z" />
    <glyph glyph-name="Ugrave" unicode="&#xd9;" horiz-adv-x="722" 
d="M654 246c0 -172 -122 -258 -289 -258s-289 86 -289 258v483h150v-483c0 -88 45 -130 139 -130s139 42 139 130v483h150v-483zM414 786h-106l-135 135h165z" />
    <glyph glyph-name="Uacute" unicode="&#xda;" horiz-adv-x="722" 
d="M654 246c0 -172 -122 -258 -289 -258s-289 86 -289 258v483h150v-483c0 -88 45 -130 139 -130s139 42 139 130v483h150v-483zM549 921l-135 -135h-106l76 135h165z" />
    <glyph glyph-name="Ucircumflex" unicode="&#xdb;" horiz-adv-x="722" 
d="M654 246c0 -172 -122 -258 -289 -258s-289 86 -289 258v483h150v-483c0 -88 45 -130 139 -130s139 42 139 130v483h150v-483zM552 787h-94l-98 70l-99 -70h-91l130 135h128z" />
    <glyph glyph-name="Udieresis" unicode="&#xdc;" horiz-adv-x="722" 
d="M654 246c0 -172 -122 -258 -289 -258s-289 86 -289 258v483h150v-483c0 -88 45 -130 139 -130s139 42 139 130v483h150v-483zM327 797h-126v115h126v-115zM522 797h-126v115h126v-115z" />
    <glyph glyph-name="Yacute" unicode="&#xdd;" horiz-adv-x="667" 
d="M650 729l-231 -459v-270h-150v270l-242 459h167l149 -322l139 322h168zM532 921l-135 -135h-106l76 135h165z" />
    <glyph glyph-name="Thorn" unicode="&#xde;" horiz-adv-x="667" 
d="M633 382c0 -149 -85 -242 -220 -242h-187v-140h-150v729h150v-120h172c82 0 133 -17 173 -56c42 -41 62 -97 62 -171zM483 374c0 75 -37 110 -117 110h-140v-219h140c80 0 117 35 117 109z" />
    <glyph glyph-name="germandbls" unicode="&#xdf;" horiz-adv-x="611" 
d="M575 236c0 -152 -87 -253 -218 -253c-22 0 -39 2 -72 6v112c6 1 13 1 13 1l20 1c69 3 117 50 117 123c0 76 -52 123 -137 123h-13v95h9c60 1 98 35 98 89c0 52 -37 83 -98 83c-55 0 -87 -29 -87 -79v-537h-140v518c0 152 90 211 236 211c135 0 229 -75 229 -182
c0 -67 -30 -114 -87 -136c83 -17 130 -82 130 -175z" />
    <glyph glyph-name="agrave" unicode="&#xe0;" 
d="M524 0h-152c-13 16 -16 40 -16 68c-49 -51 -104 -77 -164 -77c-90 0 -164 50 -164 155c0 98 52 144 159 163l56 10c70 12 112 6 112 63c0 36 -27 54 -81 54c-69 0 -92 -18 -99 -74h-135c9 125 85 187 231 187s221 -56 221 -166v-300c0 -28 7 -43 32 -66v-17zM355 231v24
c-16 -8 -22 -10 -59 -17l-48 -9c-58 -11 -80 -26 -80 -67c0 -40 29 -58 76 -58c71 0 111 46 111 127zM321 598h-100l-126 154h156z" />
    <glyph glyph-name="aacute" unicode="&#xe1;" 
d="M524 0h-152c-13 16 -16 40 -16 68c-49 -51 -104 -77 -164 -77c-90 0 -164 50 -164 155c0 98 52 144 159 163l56 10c70 12 112 6 112 63c0 36 -27 54 -81 54c-69 0 -92 -18 -99 -74h-135c9 125 85 187 231 187s221 -56 221 -166v-300c0 -28 7 -43 32 -66v-17zM355 231v24
c-16 -8 -22 -10 -59 -17l-48 -9c-58 -11 -80 -26 -80 -67c0 -40 29 -58 76 -58c71 0 111 46 111 127zM447 752l-126 -154h-100l70 154h156z" />
    <glyph glyph-name="acircumflex" unicode="&#xe2;" 
d="M524 0h-152c-13 16 -16 40 -16 68c-49 -51 -104 -77 -164 -77c-90 0 -164 50 -164 155c0 98 52 144 159 163l56 10c70 12 112 6 112 63c0 36 -27 54 -81 54c-69 0 -92 -18 -99 -74h-135c9 125 85 187 231 187s221 -56 221 -166v-300c0 -28 7 -43 32 -66v-17zM355 231v24
c-16 -8 -22 -10 -59 -17l-48 -9c-58 -11 -80 -26 -80 -67c0 -40 29 -58 76 -58c71 0 111 46 111 127zM440 598h-88l-82 77l-82 -77h-86l108 154h127z" />
    <glyph glyph-name="atilde" unicode="&#xe3;" 
d="M524 0h-152c-13 16 -16 40 -16 68c-49 -51 -104 -77 -164 -77c-90 0 -164 50 -164 155c0 98 52 144 159 163l56 10c70 12 112 6 112 63c0 36 -27 54 -81 54c-69 0 -92 -18 -99 -74h-135c9 125 85 187 231 187s221 -56 221 -166v-300c0 -28 7 -43 32 -66v-17zM355 231v24
c-16 -8 -22 -10 -59 -17l-48 -9c-58 -11 -80 -26 -80 -67c0 -40 29 -58 76 -58c71 0 111 46 111 127zM449 739c-4 -85 -36 -127 -95 -127c-15 0 -34 4 -55 12l-71 26c-12 4 -21 6 -30 6c-24 0 -35 -13 -40 -45h-63c4 78 39 124 94 124c19 0 20 0 56 -13l71 -25
c7 -3 27 -6 34 -6c21 0 33 16 36 48h63z" />
    <glyph glyph-name="adieresis" unicode="&#xe4;" 
d="M524 0h-152c-13 16 -16 40 -16 68c-49 -51 -104 -77 -164 -77c-90 0 -164 50 -164 155c0 98 52 144 159 163l56 10c70 12 112 6 112 63c0 36 -27 54 -81 54c-69 0 -92 -18 -99 -74h-135c9 125 85 187 231 187s221 -56 221 -166v-300c0 -28 7 -43 32 -66v-17zM355 231v24
c-16 -8 -22 -10 -59 -17l-48 -9c-58 -11 -80 -26 -80 -67c0 -40 29 -58 76 -58c71 0 111 46 111 127zM236 618h-126v115h126v-115zM431 618h-126v115h126v-115z" />
    <glyph glyph-name="aring" unicode="&#xe5;" 
d="M524 0h-152c-13 16 -16 40 -16 68c-49 -51 -104 -77 -164 -77c-90 0 -164 50 -164 155c0 98 52 144 159 163l56 10c70 12 112 6 112 63c0 36 -27 54 -81 54c-69 0 -92 -18 -99 -74h-135c9 125 85 187 231 187s221 -56 221 -166v-300c0 -28 7 -43 32 -66v-17zM355 231v24
c-16 -8 -22 -10 -59 -17l-48 -9c-58 -11 -80 -26 -80 -67c0 -40 29 -58 76 -58c71 0 111 46 111 127zM370 674c0 -54 -46 -98 -99 -98c-56 0 -100 44 -100 99s44 99 101 99c55 0 98 -44 98 -100zM317 675c0 25 -20 46 -45 46c-27 0 -48 -21 -48 -46s21 -46 48 -46
c24 0 45 21 45 46z" />
    <glyph glyph-name="ae" unicode="&#xe6;" horiz-adv-x="889" 
d="M857 250c0 -5 0 -12 -1 -24h-362c0 -86 47 -127 114 -127c48 0 92 29 104 53h138c-31 -92 -129 -160 -250 -160c-88 0 -158 36 -200 104c-62 -73 -124 -105 -205 -105c-103 0 -168 57 -168 158c0 99 51 144 159 163l56 10c69 12 69 10 88 21c15 8 24 24 24 40
c0 36 -28 53 -85 53c-63 0 -88 -20 -95 -74h-131c2 124 79 187 228 187c78 0 137 -17 175 -50c41 33 94 50 155 50c161 0 256 -110 256 -299zM354 231v23c-17 -10 -29 -15 -59 -19l-48 -7c-53 -8 -80 -24 -80 -65s29 -59 76 -59c72 0 111 45 111 127zM711 319
c-7 81 -44 123 -109 123c-64 0 -101 -42 -107 -123h216z" />
    <glyph glyph-name="ccedilla" unicode="&#xe7;" 
d="M522 187c-12 -109 -94 -187 -214 -195l-20 -42h40c47 0 76 -33 76 -77c0 -60 -46 -102 -129 -102c-44 0 -73 6 -138 28l19 61c53 -23 77 -30 105 -30c32 0 57 18 57 41c0 21 -20 31 -51 31h-64l43 91c-135 16 -212 111 -212 273c0 184 94 283 255 283
c135 0 223 -79 233 -211h-134c-16 71 -43 98 -100 98c-88 0 -114 -71 -114 -170c0 -105 43 -162 114 -162c54 0 82 27 100 83h134z" />
    <glyph glyph-name="egrave" unicode="&#xe8;" 
d="M525 250l-1 -17h-362c4 -105 46 -135 112 -135c51 0 95 15 107 54h138c-31 -106 -129 -161 -250 -161c-153 0 -247 99 -247 272c0 181 95 286 250 286c159 0 253 -113 253 -299zM379 326c-7 77 -49 116 -109 116c-62 0 -97 -41 -106 -116h215zM322 598h-100l-126 154h156
z" />
    <glyph glyph-name="eacute" unicode="&#xe9;" 
d="M525 250l-1 -17h-362c4 -105 46 -135 112 -135c51 0 95 15 107 54h138c-31 -106 -129 -161 -250 -161c-153 0 -247 99 -247 272c0 181 95 286 250 286c159 0 253 -113 253 -299zM379 326c-7 77 -49 116 -109 116c-62 0 -97 -41 -106 -116h215zM448 752l-126 -154h-100
l70 154h156z" />
    <glyph glyph-name="ecircumflex" unicode="&#xea;" 
d="M525 250l-1 -17h-362c4 -105 46 -135 112 -135c51 0 95 15 107 54h138c-31 -106 -129 -161 -250 -161c-153 0 -247 99 -247 272c0 181 95 286 250 286c159 0 253 -113 253 -299zM379 326c-7 77 -49 116 -109 116c-62 0 -97 -41 -106 -116h215zM441 598h-88l-82 77
l-82 -77h-86l108 154h127z" />
    <glyph glyph-name="edieresis" unicode="&#xeb;" 
d="M525 250l-1 -17h-362c4 -105 46 -135 112 -135c51 0 95 15 107 54h138c-31 -106 -129 -161 -250 -161c-153 0 -247 99 -247 272c0 181 95 286 250 286c159 0 253 -113 253 -299zM379 326c-7 77 -49 116 -109 116c-62 0 -97 -41 -106 -116h215zM237 618h-126v115h126v-115
zM432 618h-126v115h126v-115z" />
    <glyph glyph-name="igrave" unicode="&#xec;" horiz-adv-x="278" 
d="M207 0h-140v540h140v-540zM207 598h-100l-126 154h156z" />
    <glyph glyph-name="iacute" unicode="&#xed;" horiz-adv-x="278" 
d="M207 0h-140v540h140v-540zM294 752l-126 -154h-100l70 154h156z" />
    <glyph glyph-name="icircumflex" unicode="&#xee;" horiz-adv-x="278" 
d="M207 0h-140v540h140v-540zM308 598h-88l-82 77l-82 -77h-86l108 154h127z" />
    <glyph glyph-name="idieresis" unicode="&#xef;" horiz-adv-x="278" 
d="M207 0h-140v540h140v-540zM104 618h-126v115h126v-115zM299 618h-126v115h126v-115z" />
    <glyph glyph-name="eth" unicode="&#xf0;" horiz-adv-x="611" 
d="M569 276c0 -184 -99 -285 -267 -285c-167 0 -267 101 -267 281c0 159 97 262 239 262c26 0 46 -4 85 -19c-27 43 -57 74 -95 96l-77 -46l-42 37l70 44c-27 16 -41 24 -90 48l67 47c37 -14 40 -16 87 -42c0 0 7 -4 15 -7l87 52l51 -34l-84 -50c151 -102 221 -218 221 -384
zM428 263v1c0 105 -49 165 -126 165c-76 0 -126 -60 -126 -162c0 -103 50 -163 126 -163s126 59 126 159z" />
    <glyph glyph-name="ntilde" unicode="&#xf1;" horiz-adv-x="611" 
d="M546 0h-140v333c0 64 -30 97 -90 97c-68 0 -113 -42 -113 -106v-324h-140v540h140v-78c40 60 89 87 162 87c115 0 181 -68 181 -187v-362zM484 739c-4 -85 -36 -127 -95 -127c-15 0 -34 4 -55 12l-71 26c-12 4 -21 6 -30 6c-24 0 -35 -13 -40 -45h-63c4 78 39 124 94 124
c19 0 20 0 56 -13l71 -25c7 -3 27 -6 34 -6c21 0 33 16 36 48h63z" />
    <glyph glyph-name="ograve" unicode="&#xf2;" horiz-adv-x="611" 
d="M569 266c0 -173 -103 -275 -267 -275c-166 0 -267 101 -267 279c0 177 101 279 266 279c169 0 268 -100 268 -283zM429 268c0 106 -50 168 -127 168c-76 0 -127 -63 -127 -166s51 -166 127 -166c75 0 127 63 127 164zM355 598h-100l-126 154h156z" />
    <glyph glyph-name="oacute" unicode="&#xf3;" horiz-adv-x="611" 
d="M569 266c0 -173 -103 -275 -267 -275c-166 0 -267 101 -267 279c0 177 101 279 266 279c169 0 268 -100 268 -283zM429 268c0 106 -50 168 -127 168c-76 0 -127 -63 -127 -166s51 -166 127 -166c75 0 127 63 127 164zM482 752l-126 -154h-100l70 154h156z" />
    <glyph glyph-name="ocircumflex" unicode="&#xf4;" horiz-adv-x="611" 
d="M569 266c0 -173 -103 -275 -267 -275c-166 0 -267 101 -267 279c0 177 101 279 266 279c169 0 268 -100 268 -283zM429 268c0 106 -50 168 -127 168c-76 0 -127 -63 -127 -166s51 -166 127 -166c75 0 127 63 127 164zM475 598h-88l-82 77l-82 -77h-86l108 154h127z" />
    <glyph glyph-name="otilde" unicode="&#xf5;" horiz-adv-x="611" 
d="M569 266c0 -173 -103 -275 -267 -275c-166 0 -267 101 -267 279c0 177 101 279 266 279c169 0 268 -100 268 -283zM429 268c0 106 -50 168 -127 168c-76 0 -127 -63 -127 -166s51 -166 127 -166c75 0 127 63 127 164zM484 739c-4 -85 -36 -127 -95 -127
c-15 0 -34 4 -55 12l-71 26c-12 4 -21 6 -30 6c-24 0 -35 -13 -40 -45h-63c4 78 39 124 94 124c19 0 20 0 56 -13l71 -25c7 -3 27 -6 34 -6c21 0 33 16 36 48h63z" />
    <glyph glyph-name="odieresis" unicode="&#xf6;" horiz-adv-x="611" 
d="M569 266c0 -173 -103 -275 -267 -275c-166 0 -267 101 -267 279c0 177 101 279 266 279c169 0 268 -100 268 -283zM429 268c0 106 -50 168 -127 168c-76 0 -127 -63 -127 -166s51 -166 127 -166c75 0 127 63 127 164zM271 618h-126v115h126v-115zM466 618h-126v115h126
v-115z" />
    <glyph glyph-name="divide" unicode="&#xf7;" horiz-adv-x="584" 
d="M524 200h-464v100h464v-100zM367 432c0 -41 -34 -75 -75 -75s-75 34 -75 75c0 42 34 75 75 75s75 -33 75 -75zM367 68c0 -42 -34 -75 -75 -75s-75 33 -75 75c0 41 34 75 75 75s75 -34 75 -75z" />
    <glyph glyph-name="oslash" unicode="&#xf8;" horiz-adv-x="611" 
d="M569 266c0 -173 -103 -275 -267 -275c-65 0 -121 16 -164 46l-38 -40l-60 58l40 42c-29 45 -45 103 -45 173c0 177 101 279 266 279c66 0 122 -15 165 -45l38 39l60 -58l-40 -42c30 -45 45 -105 45 -177zM429 268c0 25 -3 47 -8 66l-194 -204c21 -17 46 -26 75 -26
c75 0 127 63 127 164zM377 410c-20 17 -46 26 -75 26c-76 0 -127 -63 -127 -166c0 -24 3 -45 8 -64z" />
    <glyph glyph-name="ugrave" unicode="&#xf9;" horiz-adv-x="611" 
d="M541 0h-140v71c-40 -53 -89 -80 -162 -80c-115 0 -181 68 -181 187v362h140v-333c0 -65 30 -97 90 -97c68 0 113 42 113 106v324h140v-540zM355 598h-100l-126 154h156z" />
    <glyph glyph-name="uacute" unicode="&#xfa;" horiz-adv-x="611" 
d="M541 0h-140v71c-40 -53 -89 -80 -162 -80c-115 0 -181 68 -181 187v362h140v-333c0 -65 30 -97 90 -97c68 0 113 42 113 106v324h140v-540zM482 752l-126 -154h-100l70 154h156z" />
    <glyph glyph-name="ucircumflex" unicode="&#xfb;" horiz-adv-x="611" 
d="M541 0h-140v71c-40 -53 -89 -80 -162 -80c-115 0 -181 68 -181 187v362h140v-333c0 -65 30 -97 90 -97c68 0 113 42 113 106v324h140v-540zM475 598h-88l-82 77l-82 -77h-86l108 154h127z" />
    <glyph glyph-name="udieresis" unicode="&#xfc;" horiz-adv-x="611" 
d="M541 0h-140v71c-40 -53 -89 -80 -162 -80c-115 0 -181 68 -181 187v362h140v-333c0 -65 30 -97 90 -97c68 0 113 42 113 106v324h140v-540zM271 618h-126v115h126v-115zM466 618h-126v115h126v-115z" />
    <glyph glyph-name="yacute" unicode="&#xfd;" 
d="M538 540l-222 -639c-37 -103 -86 -120 -180 -120c-17 0 -29 1 -50 4v105c18 -5 26 -6 37 -6c49 0 87 39 87 90v3l-201 563h154l119 -393l112 393h144zM454 752l-126 -154h-100l70 154h156z" />
    <glyph glyph-name="thorn" unicode="&#xfe;" horiz-adv-x="611" 
d="M574 262c0 -149 -96 -271 -226 -271c-68 0 -116 28 -150 87v-296h-140v947h140v-269c34 60 82 89 150 89c130 0 226 -122 226 -287zM434 260c0 103 -47 172 -118 172c-70 0 -118 -69 -118 -170c0 -86 48 -154 118 -154c69 0 118 68 118 152z" />
    <glyph glyph-name="ydieresis" unicode="&#xff;" 
d="M538 540l-222 -639c-37 -103 -86 -120 -180 -120c-17 0 -29 1 -50 4v105c18 -5 26 -6 37 -6c49 0 87 39 87 90v3l-201 563h154l119 -393l112 393h144zM243 618h-126v115h126v-115zM438 618h-126v115h126v-115z" />
    <glyph glyph-name="Amacron" unicode="&#x100;" horiz-adv-x="722" 
d="M703 0h-154l-48 147h-273l-49 -147h-153l259 729h166zM460 272l-95 285l-95 -285h190zM517 815h-299v79h299v-79z" />
    <glyph glyph-name="amacron" unicode="&#x101;" 
d="M524 0h-152c-13 16 -16 40 -16 68c-49 -51 -104 -77 -164 -77c-90 0 -164 50 -164 155c0 98 52 144 159 163l56 10c70 12 112 6 112 63c0 36 -27 54 -81 54c-69 0 -92 -18 -99 -74h-135c9 125 85 187 231 187s221 -56 221 -166v-300c0 -28 7 -43 32 -66v-17zM355 231v24
c-16 -8 -22 -10 -59 -17l-48 -9c-58 -11 -80 -26 -80 -67c0 -40 29 -58 76 -58c71 0 111 46 111 127zM419 636h-299v79h299v-79z" />
    <glyph glyph-name="Abreve" unicode="&#x102;" horiz-adv-x="722" 
d="M703 0h-154l-48 147h-273l-49 -147h-153l259 729h166zM460 272l-95 285l-95 -285h190zM548 915c-8 -80 -71 -122 -182 -122c-101 0 -177 35 -179 122h71c6 -29 42 -40 110 -40c65 0 105 12 109 40h71z" />
    <glyph glyph-name="abreve" unicode="&#x103;" 
d="M524 0h-152c-13 16 -16 40 -16 68c-49 -51 -104 -77 -164 -77c-90 0 -164 50 -164 155c0 98 52 144 159 163l56 10c70 12 112 6 112 63c0 36 -27 54 -81 54c-69 0 -92 -18 -99 -74h-135c9 125 85 187 231 187s221 -56 221 -166v-300c0 -28 7 -43 32 -66v-17zM355 231v24
c-16 -8 -22 -10 -59 -17l-48 -9c-58 -11 -80 -26 -80 -67c0 -40 29 -58 76 -58c71 0 111 46 111 127zM432 751c0 -84 -80 -151 -164 -151s-164 67 -164 151h80c0 -43 39 -64 84 -64s84 21 84 64h80z" />
    <glyph glyph-name="Aogonek" unicode="&#x104;" horiz-adv-x="722" 
d="M703 -230h-63c-83 0 -147 30 -147 103c0 48 20 94 56 127l-48 147h-273l-49 -147h-153l259 729h166l252 -729c-36 0 -69 -16 -94 -42c-14 -14 -21 -29 -21 -50c0 -34 17 -48 52 -48h63v-90zM460 272l-95 285l-95 -285h190z" />
    <glyph glyph-name="aogonek" unicode="&#x105;" 
d="M524 -230h-63c-83 0 -147 30 -147 103c0 49 21 95 58 127c-13 16 -16 40 -16 68c-49 -51 -104 -77 -164 -77c-90 0 -164 50 -164 155c0 98 52 144 159 163l56 10c70 12 112 6 112 63c0 36 -27 54 -81 54c-69 0 -92 -18 -99 -74h-135c9 125 85 187 231 187
s221 -56 221 -166v-300c0 -28 7 -43 32 -66v-17h-23c-51 0 -92 -41 -92 -92c0 -34 17 -48 52 -48h63v-90zM355 231v24c-16 -8 -22 -10 -59 -17l-48 -9c-58 -11 -80 -26 -80 -67c0 -40 29 -58 76 -58c71 0 111 46 111 127z" />
    <glyph glyph-name="Cacute" unicode="&#x106;" horiz-adv-x="722" 
d="M685 249c-9 -167 -130 -261 -311 -261c-203 0 -330 142 -330 376c0 236 128 377 334 377c164 0 291 -91 304 -259h-143c-22 94 -75 131 -156 131c-118 0 -189 -90 -189 -251c0 -159 68 -248 184 -248c93 0 152 42 161 135h146zM564 921l-135 -135h-106l76 135h165z" />
    <glyph glyph-name="cacute" unicode="&#x107;" 
d="M522 187c-13 -115 -104 -196 -235 -196c-160 0 -253 97 -253 275c0 184 94 283 255 283c135 0 223 -79 233 -211h-134c-16 71 -43 98 -100 98c-88 0 -114 -71 -114 -170c0 -105 43 -162 114 -162c54 0 82 27 100 83h134zM465 752l-126 -154h-100l70 154h156z" />
    <glyph glyph-name="Ccircumflex" unicode="&#x108;" horiz-adv-x="722" 
d="M685 249c-9 -167 -130 -261 -311 -261c-203 0 -330 142 -330 376c0 236 128 377 334 377c164 0 291 -91 304 -259h-143c-22 94 -75 131 -156 131c-118 0 -189 -90 -189 -251c0 -159 68 -248 184 -248c93 0 152 42 161 135h146zM567 787h-94l-98 70l-99 -70h-91l130 135
h128z" />
    <glyph glyph-name="ccircumflex" unicode="&#x109;" 
d="M522 187c-13 -115 -104 -196 -235 -196c-160 0 -253 97 -253 275c0 184 94 283 255 283c135 0 223 -79 233 -211h-134c-16 71 -43 98 -100 98c-88 0 -114 -71 -114 -170c0 -105 43 -162 114 -162c54 0 82 27 100 83h134zM458 598h-88l-82 77l-82 -77h-86l108 154h127z
" />
    <glyph glyph-name="Cdotaccent" unicode="&#x10a;" horiz-adv-x="722" 
d="M685 249c-9 -167 -130 -261 -311 -261c-203 0 -330 142 -330 376c0 236 128 377 334 377c164 0 291 -91 304 -259h-143c-22 94 -75 131 -156 131c-118 0 -189 -90 -189 -251c0 -159 68 -248 184 -248c93 0 152 42 161 135h146zM447 784h-140v140h140v-140z" />
    <glyph glyph-name="cdotaccent" unicode="&#x10b;" 
d="M522 187c-13 -115 -104 -196 -235 -196c-160 0 -253 97 -253 275c0 184 94 283 255 283c135 0 223 -79 233 -211h-134c-16 71 -43 98 -100 98c-88 0 -114 -71 -114 -170c0 -105 43 -162 114 -162c54 0 82 27 100 83h134zM359 605h-140v140h140v-140z" />
    <glyph glyph-name="Ccaron" unicode="&#x10c;" horiz-adv-x="722" 
d="M685 249c-9 -167 -130 -261 -311 -261c-203 0 -330 142 -330 376c0 236 128 377 334 377c164 0 291 -91 304 -259h-143c-22 94 -75 131 -156 131c-118 0 -189 -90 -189 -251c0 -159 68 -248 184 -248c93 0 152 42 161 135h146zM568 922l-130 -135h-128l-124 135h94
l98 -70l99 70h91z" />
    <glyph glyph-name="ccaron" unicode="&#x10d;" 
d="M522 187c-13 -115 -104 -196 -235 -196c-160 0 -253 97 -253 275c0 184 94 283 255 283c135 0 223 -79 233 -211h-134c-16 71 -43 98 -100 98c-88 0 -114 -71 -114 -170c0 -105 43 -162 114 -162c54 0 82 27 100 83h134zM458 752l-108 -154h-127l-103 154h88l82 -77
l82 77h86z" />
    <glyph glyph-name="Dcaron" unicode="&#x10e;" horiz-adv-x="722" 
d="M681 365c0 -113 -32 -212 -89 -280c-50 -59 -119 -85 -230 -85h-285v729h285c112 0 181 -25 230 -84c58 -69 89 -168 89 -280zM531 364c0 161 -56 240 -169 240h-135v-479h135c113 0 169 79 169 239zM554 922l-130 -135h-128l-124 135h94l98 -70l99 70h91z" />
    <glyph glyph-name="dcaron" unicode="&#x10f;" horiz-adv-x="611" 
d="M545 0h-140v62c-35 -46 -82 -71 -149 -71c-143 0 -227 125 -227 278c0 163 98 280 227 280c67 0 114 -25 149 -79v259h140v-729zM405 267c0 103 -47 165 -118 165c-70 0 -118 -63 -118 -163c0 -99 48 -161 118 -161s118 61 118 159zM727 626c0 -82 -51 -142 -122 -144v46
c46 9 68 39 67 89h-67v112h122v-103z" />
    <glyph glyph-name="Dcroat" unicode="&#x110;" horiz-adv-x="722" 
d="M681 365c0 -108 -33 -211 -88 -280c-48 -60 -117 -85 -231 -85h-285v339h-77v80h77v310h285c114 0 183 -25 231 -84c55 -68 88 -174 88 -280zM537 364c0 141 -38 240 -175 240h-135v-185h150v-80h-150v-214h135c137 0 175 100 175 239z" />
    <glyph glyph-name="dcroat" unicode="&#x111;" horiz-adv-x="611" 
d="M605 596h-60v-596h-140v69c-35 -53 -82 -78 -149 -78c-129 0 -227 116 -227 278c0 163 98 280 227 280c68 0 114 -25 149 -79v126h-133v67h133v66h140v-66h60v-67zM405 267c0 103 -47 165 -118 165c-69 0 -118 -63 -118 -163c0 -99 48 -161 118 -161s118 61 118 159z" />
    <glyph glyph-name="Emacron" unicode="&#x112;" horiz-adv-x="667" 
d="M624 0h-545v729h527v-125h-377v-165h349v-125h-349v-189h395v-125zM492 815h-299v79h299v-79z" />
    <glyph glyph-name="emacron" unicode="&#x113;" 
d="M525 250l-1 -17h-362c4 -105 46 -135 112 -135c51 0 95 15 107 54h138c-31 -106 -129 -161 -250 -161c-153 0 -247 99 -247 272c0 181 95 286 250 286c159 0 253 -113 253 -299zM379 326c-7 77 -49 116 -109 116c-62 0 -97 -41 -106 -116h215zM420 636h-299v79h299v-79z
" />
    <glyph glyph-name="Ebreve" unicode="&#x114;" horiz-adv-x="667" 
d="M624 0h-545v729h527v-125h-377v-165h349v-125h-349v-189h395v-125zM523 915c-8 -80 -71 -122 -182 -122c-101 0 -177 35 -179 122h71c6 -29 42 -40 110 -40c65 0 105 12 109 40h71z" />
    <glyph glyph-name="ebreve" unicode="&#x115;" 
d="M525 250l-1 -17h-362c4 -105 46 -135 112 -135c51 0 95 15 107 54h138c-31 -106 -129 -161 -250 -161c-153 0 -247 99 -247 272c0 181 95 286 250 286c159 0 253 -113 253 -299zM379 326c-7 77 -49 116 -109 116c-62 0 -97 -41 -106 -116h215zM433 751
c0 -84 -80 -151 -164 -151s-164 67 -164 151h80c0 -43 39 -64 84 -64s84 21 84 64h80z" />
    <glyph glyph-name="Edotaccent" unicode="&#x116;" horiz-adv-x="667" 
d="M624 0h-545v729h527v-125h-377v-165h349v-125h-349v-189h395v-125zM414 784h-140v140h140v-140z" />
    <glyph glyph-name="edotaccent" unicode="&#x117;" 
d="M525 250l-1 -17h-362c4 -105 46 -135 112 -135c51 0 95 15 107 54h138c-31 -106 -129 -161 -250 -161c-153 0 -247 99 -247 272c0 181 95 286 250 286c159 0 253 -113 253 -299zM379 326c-7 77 -49 116 -109 116c-62 0 -97 -41 -106 -116h215zM342 605h-140v140h140v-140
z" />
    <glyph glyph-name="Eogonek" unicode="&#x118;" horiz-adv-x="667" 
d="M624 -230h-63c-83 0 -147 30 -147 103c0 45 18 78 73 127h-408v729h527v-125h-377v-165h349v-125h-349v-189h395v-125c-36 0 -69 -16 -94 -42c-14 -14 -21 -29 -21 -50c0 -34 17 -48 52 -48h63v-90z" />
    <glyph glyph-name="eogonek" unicode="&#x119;" 
d="M525 250l-1 -17h-362c4 -105 46 -135 112 -135c51 0 95 15 107 54h138c-19 -64 -61 -109 -119 -135c-44 -20 -75 -61 -75 -109c0 -34 17 -48 52 -48h63v-90h-63c-83 0 -147 30 -147 103c0 42 16 74 64 119c-8 -1 -17 -1 -25 -1c-153 0 -247 99 -247 272
c0 181 95 286 250 286c159 0 253 -113 253 -299zM379 326c-7 77 -49 116 -109 116c-62 0 -97 -41 -106 -116h215z" />
    <glyph glyph-name="Ecaron" unicode="&#x11a;" horiz-adv-x="667" 
d="M624 0h-545v729h527v-125h-377v-165h349v-125h-349v-189h395v-125zM535 922l-130 -135h-128l-124 135h94l98 -70l99 70h91z" />
    <glyph glyph-name="ecaron" unicode="&#x11b;" 
d="M525 250l-1 -17h-362c4 -105 46 -135 112 -135c51 0 95 15 107 54h138c-31 -106 -129 -161 -250 -161c-153 0 -247 99 -247 272c0 181 95 286 250 286c159 0 253 -113 253 -299zM379 326c-7 77 -49 116 -109 116c-62 0 -97 -41 -106 -116h215zM441 752l-108 -154h-127
l-103 154h88l82 -77l82 77h86z" />
    <glyph glyph-name="Gcircumflex" unicode="&#x11c;" horiz-adv-x="778" 
d="M711 0h-90l-18 100c-56 -77 -122 -112 -220 -112c-197 0 -341 156 -341 377c0 227 143 376 353 376c176 0 298 -95 316 -245h-141c-29 85 -92 117 -174 117c-127 0 -204 -89 -204 -246c0 -150 87 -251 208 -251c89 0 175 60 185 151h-166v125h292v-392zM586 787h-94
l-98 70l-99 -70h-91l130 135h128z" />
    <glyph glyph-name="gcircumflex" unicode="&#x11d;" horiz-adv-x="611" 
d="M541 -18c0 -127 -94 -200 -257 -200c-148 0 -237 65 -239 153h145c11 -41 46 -63 99 -63c70 0 119 45 119 110v80c-52 -52 -90 -71 -153 -71c-133 0 -221 105 -221 273c0 167 96 285 224 285c62 0 108 -28 150 -92v83h133v-558zM410 266c0 100 -52 166 -122 166
c-68 0 -114 -64 -114 -166c0 -98 46 -158 112 -158c73 0 124 60 124 158zM475 598h-88l-82 77l-82 -77h-86l108 154h127z" />
    <glyph glyph-name="Gbreve" unicode="&#x11e;" horiz-adv-x="778" 
d="M711 0h-90l-18 100c-56 -77 -122 -112 -220 -112c-197 0 -341 156 -341 377c0 227 143 376 353 376c176 0 298 -95 316 -245h-141c-29 85 -92 117 -174 117c-127 0 -204 -89 -204 -246c0 -150 87 -251 208 -251c89 0 175 60 185 151h-166v125h292v-392zM575 915
c-8 -80 -71 -122 -182 -122c-101 0 -177 35 -179 122h71c6 -29 42 -40 110 -40c65 0 105 12 109 40h71z" />
    <glyph glyph-name="gbreve" unicode="&#x11f;" horiz-adv-x="611" 
d="M541 -18c0 -127 -94 -200 -257 -200c-148 0 -237 65 -239 153h145c11 -41 46 -63 99 -63c70 0 119 45 119 110v80c-52 -52 -90 -71 -153 -71c-133 0 -221 105 -221 273c0 167 96 285 224 285c62 0 108 -28 150 -92v83h133v-558zM410 266c0 100 -52 166 -122 166
c-68 0 -114 -64 -114 -166c0 -98 46 -158 112 -158c73 0 124 60 124 158zM467 751c0 -84 -80 -151 -164 -151s-164 67 -164 151h80c0 -43 39 -64 84 -64s84 21 84 64h80z" />
    <glyph glyph-name="Gdotaccent" unicode="&#x120;" horiz-adv-x="778" 
d="M711 0h-90l-18 100c-56 -77 -122 -112 -220 -112c-197 0 -341 156 -341 377c0 227 143 376 353 376c176 0 298 -95 316 -245h-141c-29 85 -92 117 -174 117c-127 0 -204 -89 -204 -246c0 -150 87 -251 208 -251c89 0 175 60 185 151h-166v125h292v-392zM466 784h-140v140
h140v-140z" />
    <glyph glyph-name="gdotaccent" unicode="&#x121;" horiz-adv-x="611" 
d="M541 -18c0 -127 -94 -200 -257 -200c-148 0 -237 65 -239 153h145c11 -41 46 -63 99 -63c70 0 119 45 119 110v80c-52 -52 -90 -71 -153 -71c-133 0 -221 105 -221 273c0 167 96 285 224 285c62 0 108 -28 150 -92v83h133v-558zM410 266c0 100 -52 166 -122 166
c-68 0 -114 -64 -114 -166c0 -98 46 -158 112 -158c73 0 124 60 124 158zM376 605h-140v140h140v-140z" />
    <glyph glyph-name="Gcommaaccent" unicode="&#x122;" horiz-adv-x="778" 
d="M711 0h-90l-18 100c-56 -77 -122 -112 -220 -112c-197 0 -341 156 -341 377c0 227 143 376 353 376c176 0 298 -95 316 -245h-141c-29 85 -92 117 -174 117c-127 0 -204 -89 -204 -246c0 -150 87 -251 208 -251c89 0 175 60 185 151h-166v125h292v-392zM450 -163
c0 -82 -51 -142 -122 -144v46c46 9 68 39 67 89h-67v112h122v-103z" />
    <glyph glyph-name="gcommaaccent" unicode="&#x123;" horiz-adv-x="611" 
d="M368 589h-122v103c0 82 51 142 122 144v-46c-46 -9 -68 -39 -67 -89h67v-112zM541 -18c0 -127 -94 -200 -257 -200c-148 0 -237 65 -239 153h145c11 -41 46 -63 99 -63c70 0 119 45 119 110v80c-52 -52 -90 -71 -153 -71c-133 0 -221 105 -221 273c0 167 96 285 224 285
c62 0 108 -28 150 -92v83h133v-558zM410 266c0 100 -52 166 -122 166c-68 0 -114 -64 -114 -166c0 -98 46 -158 112 -158c73 0 124 60 124 158z" />
    <glyph glyph-name="Hcircumflex" unicode="&#x124;" horiz-adv-x="722" 
d="M657 0h-150v331h-289v-331h-150v729h150v-273h289v273h150v-729zM554 787h-94l-98 70l-99 -70h-91l130 135h128z" />
    <glyph glyph-name="hcircumflex" unicode="&#x125;" horiz-adv-x="611" 
d="M541 0h-140v330c0 73 -36 100 -86 100c-63 0 -108 -44 -108 -106v-324h-140v729h140v-267c39 59 89 87 158 87c102 0 176 -61 176 -187v-362zM497 787h-94l-98 70l-99 -70h-91l130 135h128z" />
    <glyph glyph-name="Hbar" unicode="&#x126;" horiz-adv-x="722" 
d="M732 549h-75v-549h-150v331h-289v-331h-150v549h-75v68h75v112h150v-112h289v112h150v-112h75v-68zM507 456v93h-289v-93h289z" />
    <glyph glyph-name="hbar" unicode="&#x127;" horiz-adv-x="664" 
d="M604 0h-140v330c0 73 -36 100 -86 100c-63 0 -108 -44 -108 -106v-324h-140v526l-70 -22v72l70 21v132h140v-89l99 30v-71l-99 -30v-107c39 59 89 87 158 87c102 0 176 -61 176 -187v-362z" />
    <glyph glyph-name="Itilde" unicode="&#x128;" horiz-adv-x="278" 
d="M213 0h-150v729h150v-729zM317 918c-4 -85 -36 -127 -95 -127c-15 0 -34 4 -55 12l-71 26c-12 4 -21 6 -30 6c-24 0 -35 -13 -40 -45h-63c4 78 39 124 94 124c19 0 20 0 56 -13l71 -25c7 -3 27 -6 34 -6c21 0 33 16 36 48h63z" />
    <glyph glyph-name="itilde" unicode="&#x129;" horiz-adv-x="278" 
d="M207 0h-140v540h140v-540zM317 739c-4 -85 -36 -127 -95 -127c-15 0 -34 4 -55 12l-71 26c-12 4 -21 6 -30 6c-24 0 -35 -13 -40 -45h-63c4 78 39 124 94 124c19 0 20 0 56 -13l71 -25c7 -3 27 -6 34 -6c21 0 33 16 36 48h63z" />
    <glyph glyph-name="Imacron" unicode="&#x12a;" horiz-adv-x="278" 
d="M213 0h-150v729h150v-729zM287 815h-299v79h299v-79z" />
    <glyph glyph-name="imacron" unicode="&#x12b;" horiz-adv-x="278" 
d="M207 0h-140v540h140v-540zM287 636h-299v79h299v-79z" />
    <glyph glyph-name="Ibreve" unicode="&#x12c;" horiz-adv-x="278" 
d="M213 0h-150v729h150v-729zM318 915c-8 -80 -71 -122 -182 -122c-101 0 -177 35 -179 122h71c6 -29 42 -40 110 -40c65 0 105 12 109 40h71z" />
    <glyph glyph-name="ibreve" unicode="&#x12d;" horiz-adv-x="278" 
d="M207 0h-140v540h140v-540zM300 751c0 -84 -80 -151 -164 -151s-164 67 -164 151h80c0 -43 39 -64 84 -64s84 21 84 64h80z" />
    <glyph glyph-name="Iogonek" unicode="&#x12e;" horiz-adv-x="278" 
d="M233 -230h-63c-83 0 -147 30 -147 103c0 45 18 78 73 127h-33v729h150v-729c-28 -7 -54 -21 -74 -42c-14 -14 -21 -29 -21 -50c0 -34 17 -48 52 -48h63v-90z" />
    <glyph glyph-name="iogonek" unicode="&#x12f;" horiz-adv-x="278" 
d="M237 -230h-63c-83 0 -147 30 -147 103c0 45 18 78 73 127h-33v540h140v-540c-24 -9 -46 -23 -64 -42c-14 -14 -21 -29 -21 -50c0 -34 17 -48 52 -48h63v-90zM209 605h-140v140h140v-140z" />
    <glyph glyph-name="Idotaccent" unicode="&#x130;" horiz-adv-x="278" 
d="M213 0h-150v729h150v-729zM209 784h-140v140h140v-140z" />
    <glyph glyph-name="dotlessi" unicode="&#x131;" horiz-adv-x="278" 
d="M207 0h-140v540h140v-540z" />
    <glyph glyph-name="Jcircumflex" unicode="&#x134;" 
d="M486 201c0 -136 -85 -213 -234 -213c-136 0 -228 76 -228 221v61h150v-59c0 -67 24 -95 81 -95c52 0 81 30 81 85v528h150v-528zM602 787h-94l-98 70l-99 -70h-91l130 135h128z" />
    <glyph glyph-name="jcircumflex" unicode="&#x135;" horiz-adv-x="278" 
d="M210 -94c0 -88 -36 -124 -123 -124c-20 0 -55 2 -83 5v112c10 -3 16 -4 25 -4c30 0 41 11 41 42v603h140v-634zM309 598h-88l-82 77l-82 -77h-86l108 154h127z" />
    <glyph glyph-name="Kcommaaccent" unicode="&#x136;" horiz-adv-x="722" 
d="M717 0h-179l-239 322l-75 -78v-244h-150v729h150v-320l285 320h177l-291 -314zM416 -163c0 -82 -51 -142 -122 -144v46c46 9 68 39 67 89h-67v112h122v-103z" />
    <glyph glyph-name="kcommaaccent" unicode="&#x137;" 
d="M548 0h-164l-129 238l-56 -61v-177h-140v729h140v-399l177 210h159l-184 -204zM333 -163c0 -82 -51 -142 -122 -144v46c46 9 68 39 67 89h-67v112h122v-103z" />
    <glyph glyph-name="Lacute" unicode="&#x139;" horiz-adv-x="611" 
d="M579 0h-499v729h150v-604h349v-125zM322 921l-135 -135h-106l76 135h165z" />
    <glyph glyph-name="lacute" unicode="&#x13a;" horiz-adv-x="278" 
d="M207 0h-140v729h140v-729zM309 921l-135 -135h-106l76 135h165z" />
    <glyph glyph-name="Lcommaaccent" unicode="&#x13b;" horiz-adv-x="611" 
d="M579 0h-499v729h150v-604h349v-125zM385 -163c0 -82 -51 -142 -122 -144v46c46 9 68 39 67 89h-67v112h122v-103z" />
    <glyph glyph-name="lcommaaccent" unicode="&#x13c;" horiz-adv-x="278" 
d="M207 0h-140v729h140v-729zM194 -163c0 -82 -51 -142 -122 -144v46c46 9 68 39 67 89h-67v112h122v-103z" />
    <glyph glyph-name="Lcaron" unicode="&#x13d;" horiz-adv-x="611" 
d="M579 0h-499v729h150v-604h349v-125zM412 626c0 -82 -51 -142 -122 -144v46c46 9 68 39 67 89h-67v112h122v-103z" />
    <glyph glyph-name="lcaron" unicode="&#x13e;" horiz-adv-x="278" 
d="M207 0h-140v729h140v-729zM389 626c0 -82 -51 -142 -122 -144v46c46 9 68 39 67 89h-67v112h122v-103z" />
    <glyph glyph-name="Ldot" unicode="&#x13f;" horiz-adv-x="611" 
d="M579 0h-499v729h150v-604h349v-125zM531 304h-140v140h140v-140z" />
    <glyph glyph-name="ldot" unicode="&#x140;" horiz-adv-x="400" 
d="M207 0h-140v729h140v-729zM407 304h-140v140h140v-140z" />
    <glyph glyph-name="Lslash" unicode="&#x141;" horiz-adv-x="716" 
d="M649 0h-499v217l-116 -70v133l116 71v378h150v-297l210 128v-134l-210 -127v-174h349v-125z" />
    <glyph glyph-name="lslash" unicode="&#x142;" horiz-adv-x="418" 
d="M389 454l-112 -82v-372h-140v279l-105 -77v123l105 77v327h140v-234l112 82v-123z" />
    <glyph glyph-name="Nacute" unicode="&#x143;" horiz-adv-x="722" 
d="M661 0h-150l-293 504v-504h-150v729h154l289 -496v496h150v-729zM549 921l-135 -135h-106l76 135h165z" />
    <glyph glyph-name="nacute" unicode="&#x144;" horiz-adv-x="611" 
d="M546 0h-140v333c0 64 -30 97 -90 97c-68 0 -113 -42 -113 -106v-324h-140v540h140v-78c40 60 89 87 162 87c115 0 181 -68 181 -187v-362zM482 752l-126 -154h-100l70 154h156z" />
    <glyph glyph-name="Ncommaaccent" unicode="&#x145;" horiz-adv-x="722" 
d="M661 0h-150l-293 504v-504h-150v729h154l289 -496v496h150v-729zM416 -163c0 -82 -51 -142 -122 -144v46c46 9 68 39 67 89h-67v112h122v-103z" />
    <glyph glyph-name="ncommaaccent" unicode="&#x146;" horiz-adv-x="611" 
d="M546 0h-140v333c0 64 -30 97 -90 97c-68 0 -113 -42 -113 -106v-324h-140v540h140v-78c40 60 89 87 162 87c115 0 181 -68 181 -187v-362zM361 -163c0 -82 -51 -142 -122 -144v46c46 9 68 39 67 89h-67v112h122v-103z" />
    <glyph glyph-name="Ncaron" unicode="&#x147;" horiz-adv-x="722" 
d="M661 0h-150l-293 504v-504h-150v729h154l289 -496v496h150v-729zM553 922l-130 -135h-128l-124 135h94l98 -70l99 70h91z" />
    <glyph glyph-name="ncaron" unicode="&#x148;" horiz-adv-x="611" 
d="M546 0h-140v333c0 64 -30 97 -90 97c-68 0 -113 -42 -113 -106v-324h-140v540h140v-78c40 60 89 87 162 87c115 0 181 -68 181 -187v-362zM475 752l-108 -154h-127l-103 154h88l82 -77l82 77h86z" />
    <glyph glyph-name="Eng" unicode="&#x14a;" horiz-adv-x="722" 
d="M661 -40c0 -136 -85 -213 -234 -213c-131 0 -222 71 -228 206h151c3 -55 28 -78 80 -78c44 0 81 35 81 78v47l-293 504v-504h-150v729h154l289 -496v496h150v-769z" />
    <glyph glyph-name="eng" unicode="&#x14b;" horiz-adv-x="611" 
d="M546 -94c0 -88 -36 -124 -123 -124c-20 0 -55 2 -83 5v112c10 -3 16 -4 25 -4c30 0 41 11 41 42v396c0 64 -30 97 -90 97c-68 0 -113 -42 -113 -106v-324h-140v540h140v-78c40 60 89 87 162 87c115 0 181 -68 181 -187v-456z" />
    <glyph glyph-name="Omacron" unicode="&#x14c;" horiz-adv-x="778" 
d="M742 360c0 -213 -139 -372 -351 -372c-214 0 -351 159 -351 377c0 209 136 376 350 376c213 0 352 -161 352 -381zM592 361c0 152 -78 252 -201 252c-121 0 -201 -101 -201 -248c0 -153 80 -249 201 -249c120 0 201 96 201 245zM539 815h-299v79h299v-79z" />
    <glyph glyph-name="omacron" unicode="&#x14d;" horiz-adv-x="611" 
d="M569 266c0 -173 -103 -275 -267 -275c-166 0 -267 101 -267 279c0 177 101 279 266 279c169 0 268 -100 268 -283zM429 268c0 106 -50 168 -127 168c-76 0 -127 -63 -127 -166s51 -166 127 -166c75 0 127 63 127 164zM454 636h-299v79h299v-79z" />
    <glyph glyph-name="Obreve" unicode="&#x14e;" horiz-adv-x="778" 
d="M742 360c0 -213 -139 -372 -351 -372c-214 0 -351 159 -351 377c0 209 136 376 350 376c213 0 352 -161 352 -381zM592 361c0 152 -78 252 -201 252c-121 0 -201 -101 -201 -248c0 -153 80 -249 201 -249c120 0 201 96 201 245zM570 915c-8 -80 -71 -122 -182 -122
c-101 0 -177 35 -179 122h71c6 -29 42 -40 110 -40c65 0 105 12 109 40h71z" />
    <glyph glyph-name="obreve" unicode="&#x14f;" horiz-adv-x="611" 
d="M569 266c0 -173 -103 -275 -267 -275c-166 0 -267 101 -267 279c0 177 101 279 266 279c169 0 268 -100 268 -283zM429 268c0 106 -50 168 -127 168c-76 0 -127 -63 -127 -166s51 -166 127 -166c75 0 127 63 127 164zM467 751c0 -84 -80 -151 -164 -151s-164 67 -164 151
h80c0 -43 39 -64 84 -64s84 21 84 64h80z" />
    <glyph glyph-name="Ohungarumlaut" unicode="&#x150;" horiz-adv-x="778" 
d="M742 360c0 -213 -139 -372 -351 -372c-214 0 -351 159 -351 377c0 209 136 376 350 376c213 0 352 -161 352 -381zM592 361c0 152 -78 252 -201 252c-121 0 -201 -101 -201 -248c0 -153 80 -249 201 -249c120 0 201 96 201 245zM445 941l-111 -154h-85l70 154h126z
M643 941l-111 -154h-85l70 154h126z" />
    <glyph glyph-name="ohungarumlaut" unicode="&#x151;" horiz-adv-x="611" 
d="M569 266c0 -173 -103 -275 -267 -275c-166 0 -267 101 -267 279c0 177 101 279 266 279c169 0 268 -100 268 -283zM429 268c0 106 -50 168 -127 168c-76 0 -127 -63 -127 -166s51 -166 127 -166c75 0 127 63 127 164zM361 752l-111 -154h-85l70 154h126zM559 752
l-111 -154h-85l70 154h126z" />
    <glyph glyph-name="OE" unicode="&#x152;" horiz-adv-x="1000" 
d="M970 0h-490v73c-49 -62 -87 -82 -155 -82c-173 0 -297 145 -297 368c0 225 123 382 301 382c64 0 103 -17 151 -64v52h471v-125h-327v-165h299v-125h-299v-189h346v-125zM474 192v348c-29 51 -64 73 -118 73c-107 0 -178 -101 -178 -254c0 -152 71 -240 177 -240
c54 0 90 22 119 73z" />
    <glyph glyph-name="oe" unicode="&#x153;" horiz-adv-x="944" 
d="M920 250c0 -7 0 -12 -1 -24h-362c2 -99 43 -128 114 -128c49 0 92 28 105 54h138c-32 -92 -129 -161 -250 -161c-72 0 -136 26 -179 75c-51 -50 -115 -75 -195 -75c-166 0 -267 108 -267 272c0 178 101 286 267 286c80 0 146 -25 195 -76c43 50 105 76 180 76
c162 0 255 -113 255 -299zM417 261c0 106 -50 175 -127 175c-76 0 -127 -70 -127 -173c0 -89 51 -159 127 -159c75 0 127 70 127 157zM774 319c-9 85 -51 123 -108 123c-63 0 -100 -43 -107 -123h215z" />
    <glyph glyph-name="Racute" unicode="&#x154;" horiz-adv-x="722" 
d="M677 0h-161c-19 35 -23 57 -23 125l2 77c0 61 -28 87 -93 87h-172v-289h-150v729h391c129 0 196 -84 196 -197c0 -89 -41 -148 -123 -180c93 -40 97 -50 101 -265c0 -32 9 -47 32 -60v-27zM517 511c0 63 -24 93 -106 93h-181v-190h181c85 0 106 32 106 97zM549 921
l-135 -135h-106l76 135h165z" />
    <glyph glyph-name="racute" unicode="&#x155;" horiz-adv-x="389" 
d="M370 406c-19 3 -29 4 -44 4c-82 0 -123 -41 -123 -123v-287h-140v540h140v-106c30 73 86 115 150 115c4 0 9 0 17 -1v-142zM379 752l-126 -154h-100l70 154h156z" />
    <glyph glyph-name="Rcommaaccent" unicode="&#x156;" horiz-adv-x="722" 
d="M677 0h-161c-19 35 -23 57 -23 125l2 77c0 61 -28 87 -93 87h-172v-289h-150v729h391c129 0 196 -84 196 -197c0 -89 -41 -148 -123 -180c93 -40 97 -50 101 -265c0 -32 9 -47 32 -60v-27zM517 511c0 63 -24 93 -106 93h-181v-190h181c85 0 106 32 106 97zM416 -163
c0 -82 -51 -142 -122 -144v46c46 9 68 39 67 89h-67v112h122v-103z" />
    <glyph glyph-name="rcommaaccent" unicode="&#x157;" horiz-adv-x="389" 
d="M370 406c-19 3 -29 4 -44 4c-82 0 -123 -41 -123 -123v-287h-140v540h140v-106c30 73 86 115 150 115c4 0 9 0 17 -1v-142zM188 -163c0 -82 -51 -142 -122 -144v46c46 9 68 39 67 89h-67v112h122v-103z" />
    <glyph glyph-name="Rcaron" unicode="&#x158;" horiz-adv-x="722" 
d="M677 0h-161c-19 35 -23 57 -23 125l2 77c0 61 -28 87 -93 87h-172v-289h-150v729h391c129 0 196 -84 196 -197c0 -89 -41 -148 -123 -180c93 -40 97 -50 101 -265c0 -32 9 -47 32 -60v-27zM517 511c0 63 -24 93 -106 93h-181v-190h181c85 0 106 32 106 97zM553 922
l-130 -135h-128l-124 135h94l98 -70l99 70h91z" />
    <glyph glyph-name="rcaron" unicode="&#x159;" horiz-adv-x="389" 
d="M370 406c-19 3 -29 4 -44 4c-82 0 -123 -41 -123 -123v-287h-140v540h140v-106c30 73 86 115 150 115c4 0 9 0 17 -1v-142zM372 752l-108 -154h-127l-103 154h88l82 -77l82 77h86z" />
    <glyph glyph-name="Sacute" unicode="&#x15a;" horiz-adv-x="667" 
d="M633 219c0 -148 -111 -231 -299 -231c-186 0 -302 85 -302 241h146c0 -78 62 -121 164 -121c91 0 147 32 147 93c0 59 -37 80 -137 100l-102 20c-148 29 -205 82 -205 196c0 142 101 224 276 224c178 0 286 -80 286 -234h-140c0 74 -58 114 -153 114
c-77 0 -126 -35 -126 -90c0 -53 31 -74 138 -95l114 -22c135 -26 193 -80 193 -195zM516 921l-135 -135h-106l76 135h165z" />
    <glyph glyph-name="sacute" unicode="&#x15b;" 
d="M520 160c0 -109 -84 -169 -236 -169c-164 0 -251 62 -255 180h137c12 -58 46 -70 110 -70c65 0 104 13 104 46c0 15 -12 26 -47 37l-167 52c-100 31 -118 67 -118 133c0 111 85 180 222 180c145 0 233 -69 235 -183h-135c-1 49 -34 73 -101 73c-49 0 -81 -20 -81 -50
c0 -22 10 -31 49 -42l177 -51c71 -21 106 -67 106 -129v-7zM454 752l-126 -154h-100l70 154h156z" />
    <glyph glyph-name="Scircumflex" unicode="&#x15c;" horiz-adv-x="667" 
d="M633 219c0 -148 -111 -231 -299 -231c-186 0 -302 85 -302 241h146c0 -78 62 -121 164 -121c91 0 147 32 147 93c0 59 -37 80 -137 100l-102 20c-148 29 -205 82 -205 196c0 142 101 224 276 224c178 0 286 -80 286 -234h-140c0 74 -58 114 -153 114
c-77 0 -126 -35 -126 -90c0 -53 31 -74 138 -95l114 -22c135 -26 193 -80 193 -195zM519 787h-94l-98 70l-99 -70h-91l130 135h128z" />
    <glyph glyph-name="scircumflex" unicode="&#x15d;" 
d="M520 160c0 -109 -84 -169 -236 -169c-164 0 -251 62 -255 180h137c12 -58 46 -70 110 -70c65 0 104 13 104 46c0 15 -12 26 -47 37l-167 52c-100 31 -118 67 -118 133c0 111 85 180 222 180c145 0 233 -69 235 -183h-135c-1 49 -34 73 -101 73c-49 0 -81 -20 -81 -50
c0 -22 10 -31 49 -42l177 -51c71 -21 106 -67 106 -129v-7zM447 598h-88l-82 77l-82 -77h-86l108 154h127z" />
    <glyph glyph-name="Scedilla" unicode="&#x15e;" horiz-adv-x="667" 
d="M633 219c0 -141 -100 -222 -271 -230l-19 -39h40c47 0 76 -33 76 -77c0 -60 -46 -102 -129 -102c-44 0 -73 6 -138 28l19 61c53 -23 77 -30 105 -30c32 0 57 18 57 41c0 21 -20 31 -51 31h-64l41 87c-165 10 -267 94 -267 240h146c0 -78 62 -121 164 -121
c91 0 147 32 147 93c0 59 -37 80 -137 100l-102 20c-148 29 -205 82 -205 196c0 142 101 224 276 224c178 0 286 -80 286 -234h-140c0 74 -58 114 -153 114c-77 0 -126 -35 -126 -90c0 -53 31 -74 138 -95l114 -22c135 -26 193 -80 193 -195z" />
    <glyph glyph-name="scedilla" unicode="&#x15f;" 
d="M520 160c0 -106 -79 -165 -222 -169l-20 -41h40c47 0 76 -33 76 -77c0 -60 -46 -102 -129 -102c-44 0 -73 6 -138 28l19 61c53 -23 77 -30 105 -30c32 0 57 18 57 41c0 21 -20 31 -51 31h-64l43 91c-133 11 -203 72 -207 178h137c12 -58 46 -70 110 -70
c65 0 104 13 104 46c0 15 -12 26 -47 37l-167 52c-100 31 -118 67 -118 133c0 111 85 180 222 180c145 0 233 -69 235 -183h-135c-1 49 -34 73 -101 73c-49 0 -81 -20 -81 -50c0 -22 10 -31 49 -42l177 -51c71 -21 106 -67 106 -129v-7z" />
    <glyph glyph-name="Scaron" unicode="&#x160;" horiz-adv-x="667" 
d="M633 219c0 -148 -111 -231 -299 -231c-186 0 -302 85 -302 241h146c0 -78 62 -121 164 -121c91 0 147 32 147 93c0 59 -37 80 -137 100l-102 20c-148 29 -205 82 -205 196c0 142 101 224 276 224c178 0 286 -80 286 -234h-140c0 74 -58 114 -153 114
c-77 0 -126 -35 -126 -90c0 -53 31 -74 138 -95l114 -22c135 -26 193 -80 193 -195zM520 922l-130 -135h-128l-124 135h94l98 -70l99 70h91z" />
    <glyph glyph-name="scaron" unicode="&#x161;" 
d="M520 160c0 -109 -84 -169 -236 -169c-164 0 -251 62 -255 180h137c12 -58 46 -70 110 -70c65 0 104 13 104 46c0 15 -12 26 -47 37l-167 52c-100 31 -118 67 -118 133c0 111 85 180 222 180c145 0 233 -69 235 -183h-135c-1 49 -34 73 -101 73c-49 0 -81 -20 -81 -50
c0 -22 10 -31 49 -42l177 -51c71 -21 106 -67 106 -129v-7zM447 752l-108 -154h-127l-103 154h88l82 -77l82 77h86z" />
    <glyph glyph-name="Tcedilla" unicode="&#x162;" horiz-adv-x="611" 
d="M598 604h-213v-604h-52l-25 -50h40c47 0 76 -33 76 -77c0 -60 -46 -102 -129 -102c-44 0 -73 6 -138 28l19 61c53 -23 77 -30 105 -30c32 0 57 18 57 41c0 21 -20 31 -51 31h-64l47 98h-35v604h-221v125h584v-125z" />
    <glyph glyph-name="tcedilla" unicode="&#x163;" horiz-adv-x="333" 
d="M309 -127c0 -60 -46 -102 -129 -102c-44 0 -73 6 -138 28l19 61c53 -23 77 -30 105 -30c32 0 57 18 57 41c0 21 -20 31 -51 31h-64l48 102c-49 14 -73 50 -73 112v320h-69v93h69v145h140v-145h78v-93h-78v-282c0 -48 9 -59 46 -59c10 0 18 1 32 3v-98
c-25 -1 -50 -4 -81 -4h-4l-23 -46h40c47 0 76 -33 76 -77z" />
    <glyph glyph-name="Tcaron" unicode="&#x164;" horiz-adv-x="611" 
d="M598 604h-213v-604h-150v604h-221v125h584v-125zM498 922l-130 -135h-128l-124 135h94l98 -70l99 70h91z" />
    <glyph glyph-name="tcaron" unicode="&#x165;" horiz-adv-x="333" 
d="M301 0c-25 -1 -50 -4 -81 -4c-92 0 -137 35 -137 120v320h-69v93h69v145h140v-145h78v-93h-78v-282c0 -48 9 -59 46 -59c10 0 18 1 32 3v-98zM375 714c0 -82 -51 -142 -122 -144v46c46 9 68 39 67 89h-67v112h122v-103z" />
    <glyph glyph-name="Utilde" unicode="&#x168;" horiz-adv-x="722" 
d="M654 246c0 -172 -122 -258 -289 -258s-289 86 -289 258v483h150v-483c0 -88 45 -130 139 -130s139 42 139 130v483h150v-483zM540 918c-4 -85 -36 -127 -95 -127c-15 0 -34 4 -55 12l-71 26c-12 4 -21 6 -30 6c-24 0 -35 -13 -40 -45h-63c4 78 39 124 94 124
c19 0 20 0 56 -13l71 -25c7 -3 27 -6 34 -6c21 0 33 16 36 48h63z" />
    <glyph glyph-name="utilde" unicode="&#x169;" horiz-adv-x="611" 
d="M541 0h-140v71c-40 -53 -89 -80 -162 -80c-115 0 -181 68 -181 187v362h140v-333c0 -65 30 -97 90 -97c68 0 113 42 113 106v324h140v-540zM484 739c-4 -85 -36 -127 -95 -127c-15 0 -34 4 -55 12l-71 26c-12 4 -21 6 -30 6c-24 0 -35 -13 -40 -45h-63
c4 78 39 124 94 124c19 0 20 0 56 -13l71 -25c7 -3 27 -6 34 -6c21 0 33 16 36 48h63z" />
    <glyph glyph-name="Umacron" unicode="&#x16a;" horiz-adv-x="722" 
d="M654 246c0 -172 -122 -258 -289 -258s-289 86 -289 258v483h150v-483c0 -88 45 -130 139 -130s139 42 139 130v483h150v-483zM510 815h-299v79h299v-79z" />
    <glyph glyph-name="umacron" unicode="&#x16b;" horiz-adv-x="611" 
d="M541 0h-140v71c-40 -53 -89 -80 -162 -80c-115 0 -181 68 -181 187v362h140v-333c0 -65 30 -97 90 -97c68 0 113 42 113 106v324h140v-540zM454 636h-299v79h299v-79z" />
    <glyph glyph-name="Ubreve" unicode="&#x16c;" horiz-adv-x="722" 
d="M654 246c0 -172 -122 -258 -289 -258s-289 86 -289 258v483h150v-483c0 -88 45 -130 139 -130s139 42 139 130v483h150v-483zM541 915c-8 -80 -71 -122 -182 -122c-101 0 -177 35 -179 122h71c6 -29 42 -40 110 -40c65 0 105 12 109 40h71z" />
    <glyph glyph-name="ubreve" unicode="&#x16d;" horiz-adv-x="611" 
d="M541 0h-140v71c-40 -53 -89 -80 -162 -80c-115 0 -181 68 -181 187v362h140v-333c0 -65 30 -97 90 -97c68 0 113 42 113 106v324h140v-540zM467 751c0 -84 -80 -151 -164 -151s-164 67 -164 151h80c0 -43 39 -64 84 -64s84 21 84 64h80z" />
    <glyph glyph-name="Uring" unicode="&#x16e;" horiz-adv-x="722" 
d="M654 246c0 -172 -122 -258 -289 -258s-289 86 -289 258v483h150v-483c0 -88 45 -130 139 -130s139 42 139 130v483h150v-483zM461 862c0 -54 -46 -98 -99 -98c-56 0 -100 44 -100 99s44 99 101 99c55 0 98 -44 98 -100zM408 863c0 25 -20 46 -45 46
c-27 0 -48 -21 -48 -46s21 -46 48 -46c24 0 45 21 45 46z" />
    <glyph glyph-name="uring" unicode="&#x16f;" horiz-adv-x="611" 
d="M541 0h-140v71c-40 -53 -89 -80 -162 -80c-115 0 -181 68 -181 187v362h140v-333c0 -65 30 -97 90 -97c68 0 113 42 113 106v324h140v-540zM405 674c0 -54 -46 -98 -99 -98c-56 0 -100 44 -100 99s44 99 101 99c55 0 98 -44 98 -100zM352 675c0 25 -20 46 -45 46
c-27 0 -48 -21 -48 -46s21 -46 48 -46c24 0 45 21 45 46z" />
    <glyph glyph-name="Uhungarumlaut" unicode="&#x170;" horiz-adv-x="722" 
d="M654 246c0 -172 -122 -258 -289 -258s-289 86 -289 258v483h150v-483c0 -88 45 -130 139 -130s139 42 139 130v483h150v-483zM416 941l-111 -154h-85l70 154h126zM614 941l-111 -154h-85l70 154h126z" />
    <glyph glyph-name="uhungarumlaut" unicode="&#x171;" horiz-adv-x="611" 
d="M541 0h-140v71c-40 -53 -89 -80 -162 -80c-115 0 -181 68 -181 187v362h140v-333c0 -65 30 -97 90 -97c68 0 113 42 113 106v324h140v-540zM361 752l-111 -154h-85l70 154h126zM559 752l-111 -154h-85l70 154h126z" />
    <glyph glyph-name="Uogonek" unicode="&#x172;" horiz-adv-x="722" 
d="M654 246c0 -120 -60 -199 -153 -235c-47 -18 -89 -54 -89 -103c0 -34 17 -48 52 -48h63v-90h-63c-83 0 -147 30 -147 103c0 41 15 72 60 115h-12c-167 0 -289 86 -289 258v483h150v-483c0 -88 45 -130 139 -130s139 42 139 130v483h150v-483z" />
    <glyph glyph-name="uogonek" unicode="&#x173;" horiz-adv-x="611" 
d="M551 -230h-63c-83 0 -147 30 -147 103c0 49 22 96 60 127v71c-40 -53 -89 -80 -162 -80c-115 0 -181 68 -181 187v362h140v-333c0 -65 30 -97 90 -97c68 0 113 42 113 106v324h140v-540c-32 -4 -62 -19 -84 -42c-14 -14 -21 -29 -21 -50c0 -34 17 -48 52 -48h63v-90z" />
    <glyph glyph-name="Wcircumflex" unicode="&#x174;" horiz-adv-x="944" 
d="M932 729l-202 -729h-135l-122 569l-119 -569h-135l-206 729h159l113 -546l113 546h148l118 -547l109 547h159zM663 787h-94l-98 70l-99 -70h-91l130 135h128z" />
    <glyph glyph-name="wcircumflex" unicode="&#x175;" horiz-adv-x="778" 
d="M766 540l-153 -540h-145l-81 381l-86 -381h-144l-152 540h145l86 -378l82 378h140l81 -378l82 378h145zM558 598h-88l-82 77l-82 -77h-86l108 154h127z" />
    <glyph glyph-name="Ycircumflex" unicode="&#x176;" horiz-adv-x="667" 
d="M650 729l-231 -459v-270h-150v270l-242 459h167l149 -322l139 322h168zM535 787h-94l-98 70l-99 -70h-91l130 135h128z" />
    <glyph glyph-name="ycircumflex" unicode="&#x177;" 
d="M538 540l-222 -639c-37 -103 -86 -120 -180 -120c-17 0 -29 1 -50 4v105c18 -5 26 -6 37 -6c49 0 87 39 87 90v3l-201 563h154l119 -393l112 393h144zM447 598h-88l-82 77l-82 -77h-86l108 154h127z" />
    <glyph glyph-name="Ydieresis" unicode="&#x178;" horiz-adv-x="667" 
d="M650 729l-231 -459v-270h-150v270l-242 459h167l149 -322l139 322h168zM310 797h-126v115h126v-115zM505 797h-126v115h126v-115z" />
    <glyph glyph-name="Zacute" unicode="&#x179;" horiz-adv-x="611" 
d="M578 0h-548v125l373 479h-373v125h548v-125l-372 -479h372v-125zM492 921l-135 -135h-106l76 135h165z" />
    <glyph glyph-name="zacute" unicode="&#x17a;" horiz-adv-x="500" 
d="M468 0h-447v113l267 314h-249v113h420v-113l-265 -314h274v-113zM426 752l-126 -154h-100l70 154h156z" />
    <glyph glyph-name="Zdotaccent" unicode="&#x17b;" horiz-adv-x="611" 
d="M578 0h-548v125l373 479h-373v125h548v-125l-372 -479h372v-125zM375 784h-140v140h140v-140z" />
    <glyph glyph-name="zdotaccent" unicode="&#x17c;" horiz-adv-x="500" 
d="M468 0h-447v113l267 314h-249v113h420v-113l-265 -314h274v-113zM320 605h-140v140h140v-140z" />
    <glyph glyph-name="Zcaron" unicode="&#x17d;" horiz-adv-x="611" 
d="M578 0h-548v125l373 479h-373v125h548v-125l-372 -479h372v-125zM496 922l-130 -135h-128l-124 135h94l98 -70l99 70h91z" />
    <glyph glyph-name="zcaron" unicode="&#x17e;" horiz-adv-x="500" 
d="M468 0h-447v113l267 314h-249v113h420v-113l-265 -314h274v-113zM419 752l-108 -154h-127l-103 154h88l82 -77l82 77h86z" />
    <glyph glyph-name="longs" unicode="&#x17f;" horiz-adv-x="333" 
d="M308 621c-12 2 -28 3 -40 3c-26 0 -38 -14 -38 -42v-582h-140v594c0 91 45 135 138 135c19 0 54 -1 80 -3v-105z" />
    <glyph glyph-name="Ereversed" unicode="&#x18e;" horiz-adv-x="667" 
d="M624 0h-545v125h395v189h-349v125h349v165h-377v125h527v-729z" />
    <glyph glyph-name="florin" unicode="&#x192;" 
d="M535 727l-20 -115c-29 13 -39 16 -55 16c-40 0 -64 -35 -76 -107l-7 -41h123v-97h-137l-59 -382c-25 -163 -87 -221 -193 -221c-32 0 -59 6 -90 22l24 115c25 -15 41 -21 57 -21c35 0 52 28 65 111l60 376h-123v97h138l11 59c23 142 81 205 186 205c31 0 53 -4 96 -17z
" />
    <glyph glyph-name="Ohorn" unicode="&#x1a0;" horiz-adv-x="812" 
d="M789 745c0 -97 -43 -156 -91 -190c28 -59 44 -120 44 -194c0 -103 -39 -209 -102 -276c-63 -68 -145 -94 -249 -94s-186 26 -249 94c-65 69 -102 172 -102 281s37 204 102 274c62 67 146 101 248 101c105 0 186 -32 250 -101c8 -9 16 -18 23 -28c31 26 56 66 56 117h-65
v125h135v-109zM592 362c0 158 -78 251 -201 251c-121 0 -201 -94 -201 -247s80 -247 201 -247c120 0 201 94 201 243z" />
    <glyph glyph-name="ohorn" unicode="&#x1a1;" horiz-adv-x="680" 
d="M650 556c0 -99 -44 -158 -94 -192c9 -32 13 -60 13 -98c0 -173 -103 -275 -267 -275c-166 0 -267 101 -267 279c0 177 101 279 266 279c106 0 185 -43 229 -120c28 26 50 63 50 111h-65v125h135v-109zM429 268c0 106 -50 168 -127 168c-76 0 -127 -63 -127 -166
s51 -166 127 -166c75 0 127 63 127 164z" />
    <glyph glyph-name="Uhorn" unicode="&#x1af;" horiz-adv-x="829" 
d="M813 744c0 -143 -92 -203 -159 -225v-270c0 -82 -22 -140 -71 -184c-53 -48 -130 -74 -218 -74s-165 26 -218 74c-49 44 -71 102 -71 184v480h150v-480c0 -88 45 -130 139 -130s139 42 139 130v480h150v-141c43 24 89 71 89 140h-65v125h135v-109z" />
    <glyph glyph-name="uhorn" unicode="&#x1b0;" horiz-adv-x="720" 
d="M703 556c0 -145 -95 -204 -162 -226v-330h-140v78c-40 -60 -89 -87 -162 -87c-115 0 -181 68 -181 187v362h140v-333c0 -65 30 -97 90 -97c68 0 113 42 113 106v324h140v-142c44 23 92 72 92 142h-65v125h135v-109z" />
    <glyph glyph-name="Acaron" unicode="&#x1cd;" horiz-adv-x="722" 
d="M703 0h-154l-48 147h-273l-49 -147h-153l259 729h166zM460 272l-95 285l-95 -285h190zM560 922l-130 -135h-128l-124 135h94l98 -70l99 70h91z" />
    <glyph glyph-name="acaron" unicode="&#x1ce;" 
d="M524 0h-152c-13 16 -16 40 -16 68c-49 -51 -104 -77 -164 -77c-90 0 -164 50 -164 155c0 98 52 144 159 163l56 10c70 12 112 6 112 63c0 36 -27 54 -81 54c-69 0 -92 -18 -99 -74h-135c9 125 85 187 231 187s221 -56 221 -166v-300c0 -28 7 -43 32 -66v-17zM355 231v24
c-16 -8 -22 -10 -59 -17l-48 -9c-58 -11 -80 -26 -80 -67c0 -40 29 -58 76 -58c71 0 111 46 111 127zM440 752l-108 -154h-127l-103 154h88l82 -77l82 77h86z" />
    <glyph glyph-name="Icaron" unicode="&#x1cf;" horiz-adv-x="278" 
d="M213 0h-150v729h150v-729zM330 922l-130 -135h-128l-124 135h94l98 -70l99 70h91z" />
    <glyph glyph-name="icaron" unicode="&#x1d0;" horiz-adv-x="278" 
d="M207 0h-140v540h140v-540zM308 752l-108 -154h-127l-103 154h88l82 -77l82 77h86z" />
    <glyph glyph-name="Ocaron" unicode="&#x1d1;" horiz-adv-x="778" 
d="M742 360c0 -213 -139 -372 -351 -372c-214 0 -351 159 -351 377c0 209 136 376 350 376c213 0 352 -161 352 -381zM592 361c0 152 -78 252 -201 252c-121 0 -201 -101 -201 -248c0 -153 80 -249 201 -249c120 0 201 96 201 245zM582 922l-130 -135h-128l-124 135h94
l98 -70l99 70h91z" />
    <glyph glyph-name="ocaron" unicode="&#x1d2;" horiz-adv-x="611" 
d="M569 266c0 -173 -103 -275 -267 -275c-166 0 -267 101 -267 279c0 177 101 279 266 279c169 0 268 -100 268 -283zM429 268c0 106 -50 168 -127 168c-76 0 -127 -63 -127 -166s51 -166 127 -166c75 0 127 63 127 164zM475 752l-108 -154h-127l-103 154h88l82 -77l82 77
h86z" />
    <glyph glyph-name="Ucaron" unicode="&#x1d3;" horiz-adv-x="722" 
d="M654 246c0 -172 -122 -258 -289 -258s-289 86 -289 258v483h150v-483c0 -88 45 -130 139 -130s139 42 139 130v483h150v-483zM553 922l-130 -135h-128l-124 135h94l98 -70l99 70h91z" />
    <glyph glyph-name="ucaron" unicode="&#x1d4;" horiz-adv-x="611" 
d="M541 0h-140v71c-40 -53 -89 -80 -162 -80c-115 0 -181 68 -181 187v362h140v-333c0 -65 30 -97 90 -97c68 0 113 42 113 106v324h140v-540zM475 752l-108 -154h-127l-103 154h88l82 -77l82 77h86z" />
    <glyph glyph-name="Udieresisacute" unicode="&#x1d7;" horiz-adv-x="722" 
d="M654 246c0 -172 -122 -258 -289 -258s-289 86 -289 258v483h150v-483c0 -88 45 -130 139 -130s139 42 139 130v483h150v-483zM326 797h-126v115h126v-115zM521 797h-126v115h126v-115zM549 1104l-135 -135h-106l76 135h165z" />
    <glyph glyph-name="udieresisacute" unicode="&#x1d8;" horiz-adv-x="611" 
d="M541 0h-140v71c-40 -53 -89 -80 -162 -80c-115 0 -181 68 -181 187v362h140v-333c0 -65 30 -97 90 -97c68 0 113 42 113 106v324h140v-540zM271 618h-126v115h126v-115zM466 618h-126v115h126v-115zM494 933l-135 -135h-106l76 135h165z" />
    <glyph glyph-name="Udieresiscaron" unicode="&#x1d9;" horiz-adv-x="722" 
d="M654 246c0 -172 -122 -258 -289 -258s-289 86 -289 258v483h150v-483c0 -88 45 -130 139 -130s139 42 139 130v483h150v-483zM326 797h-126v115h126v-115zM521 797h-126v115h126v-115zM552 1105l-130 -135h-128l-124 135h94l98 -70l99 70h91z" />
    <glyph glyph-name="udieresiscaron" unicode="&#x1da;" horiz-adv-x="611" 
d="M541 0h-140v71c-40 -53 -89 -80 -162 -80c-115 0 -181 68 -181 187v362h140v-333c0 -65 30 -97 90 -97c68 0 113 42 113 106v324h140v-540zM271 618h-126v115h126v-115zM466 618h-126v115h126v-115zM498 934l-130 -135h-128l-124 135h94l98 -70l99 70h91z" />
    <glyph glyph-name="Udieresisgrave" unicode="&#x1db;" horiz-adv-x="722" 
d="M654 246c0 -172 -122 -258 -289 -258s-289 86 -289 258v483h150v-483c0 -88 45 -130 139 -130s139 42 139 130v483h150v-483zM326 797h-126v115h126v-115zM521 797h-126v115h126v-115zM413 969h-106l-135 135h165z" />
    <glyph glyph-name="udieresisgrave" unicode="&#x1dc;" horiz-adv-x="611" 
d="M541 0h-140v71c-40 -53 -89 -80 -162 -80c-115 0 -181 68 -181 187v362h140v-333c0 -65 30 -97 90 -97c68 0 113 42 113 106v324h140v-540zM271 618h-126v115h126v-115zM466 618h-126v115h126v-115zM359 798h-106l-135 135h165z" />
    <glyph glyph-name="eturned" unicode="&#x1dd;" 
d="M525 277c0 -181 -95 -286 -250 -286c-159 0 -253 113 -253 299l1 17h362c-4 105 -46 135 -112 135c-51 0 -95 -15 -107 -54h-138c31 106 129 161 250 161c153 0 247 -99 247 -272zM383 214h-215c7 -77 49 -116 109 -116c62 0 97 41 106 116z" />
    <glyph glyph-name="Gcaron" unicode="&#x1e6;" horiz-adv-x="778" 
d="M711 0h-90l-18 100c-56 -77 -122 -112 -220 -112c-197 0 -341 156 -341 377c0 227 143 376 353 376c176 0 298 -95 316 -245h-141c-29 85 -92 117 -174 117c-127 0 -204 -89 -204 -246c0 -150 87 -251 208 -251c89 0 175 60 185 151h-166v125h292v-392zM587 922
l-130 -135h-128l-124 135h94l98 -70l99 70h91z" />
    <glyph glyph-name="gcaron" unicode="&#x1e7;" horiz-adv-x="611" 
d="M541 -18c0 -127 -94 -200 -257 -200c-148 0 -237 65 -239 153h145c11 -41 46 -63 99 -63c70 0 119 45 119 110v80c-52 -52 -90 -71 -153 -71c-133 0 -221 105 -221 273c0 167 96 285 224 285c62 0 108 -28 150 -92v83h133v-558zM410 266c0 100 -52 166 -122 166
c-68 0 -114 -64 -114 -166c0 -98 46 -158 112 -158c73 0 124 60 124 158zM475 752l-108 -154h-127l-103 154h88l82 -77l82 77h86z" />
    <glyph glyph-name="Oogonek" unicode="&#x1ea;" horiz-adv-x="778" 
d="M742 360c0 -160 -78 -289 -207 -344c-51 -22 -102 -55 -102 -108c0 -34 17 -48 52 -48h63v-90h-63c-83 0 -147 30 -147 103c0 41 16 72 60 115h-7c-214 0 -351 159 -351 377c0 209 136 376 350 376c213 0 352 -161 352 -381zM592 361c0 152 -78 252 -201 252
c-121 0 -201 -101 -201 -248c0 -153 80 -249 201 -249c120 0 201 96 201 245z" />
    <glyph glyph-name="oogonek" unicode="&#x1eb;" horiz-adv-x="611" 
d="M569 266c0 -112 -44 -195 -119 -239c-48 -28 -94 -65 -94 -119c0 -34 17 -48 52 -48h63v-90h-63c-83 0 -147 30 -147 103c0 42 16 74 64 119c-8 -1 -15 -1 -23 -1c-166 0 -267 101 -267 279c0 177 101 279 266 279c169 0 268 -100 268 -283zM429 268
c0 106 -50 168 -127 168c-76 0 -127 -63 -127 -166s51 -166 127 -166c75 0 127 63 127 164z" />
    <glyph glyph-name="jcaron" unicode="&#x1f0;" horiz-adv-x="278" 
d="M210 -94c0 -88 -36 -124 -123 -124c-20 0 -55 2 -83 5v112c10 -3 16 -4 25 -4c30 0 41 11 41 42v603h140v-634zM309 752l-108 -154h-127l-103 154h88l82 -77l82 77h86z" />
    <glyph glyph-name="Gacute" unicode="&#x1f4;" horiz-adv-x="778" 
d="M711 0h-90l-18 100c-56 -77 -122 -112 -220 -112c-197 0 -341 156 -341 377c0 227 143 376 353 376c176 0 298 -95 316 -245h-141c-29 85 -92 117 -174 117c-127 0 -204 -89 -204 -246c0 -150 87 -251 208 -251c89 0 175 60 185 151h-166v125h292v-392zM583 921
l-135 -135h-106l76 135h165z" />
    <glyph glyph-name="gacute" unicode="&#x1f5;" horiz-adv-x="611" 
d="M541 -18c0 -127 -94 -200 -257 -200c-148 0 -237 65 -239 153h145c11 -41 46 -63 99 -63c70 0 119 45 119 110v80c-52 -52 -90 -71 -153 -71c-133 0 -221 105 -221 273c0 167 96 285 224 285c62 0 108 -28 150 -92v83h133v-558zM410 266c0 100 -52 166 -122 166
c-68 0 -114 -64 -114 -166c0 -98 46 -158 112 -158c73 0 124 60 124 158zM482 752l-126 -154h-100l70 154h156z" />
    <glyph glyph-name="Aringacute" unicode="&#x1fa;" horiz-adv-x="722" 
d="M703 0h-154l-48 147h-273l-49 -147h-153l259 729h166zM460 272l-95 285l-95 -285h190zM556 1117l-135 -135h-106l76 135h165zM468 862c0 -54 -46 -98 -99 -98c-56 0 -100 44 -100 99s44 99 101 99c55 0 98 -44 98 -100zM415 863c0 25 -20 46 -45 46
c-27 0 -48 -21 -48 -46s21 -46 48 -46c24 0 45 21 45 46z" />
    <glyph glyph-name="aringacute" unicode="&#x1fb;" 
d="M524 0h-152c-13 16 -16 40 -16 68c-49 -51 -104 -77 -164 -77c-90 0 -164 50 -164 155c0 98 52 144 159 163l56 10c70 12 112 6 112 63c0 36 -27 54 -81 54c-69 0 -92 -18 -99 -74h-135c9 125 85 187 231 187s221 -56 221 -166v-300c0 -28 7 -43 32 -66v-17zM355 231v24
c-16 -8 -22 -10 -59 -17l-48 -9c-58 -11 -80 -26 -80 -67c0 -40 29 -58 76 -58c71 0 111 46 111 127zM459 928l-135 -135h-106l76 135h165zM371 673c0 -54 -46 -98 -99 -98c-56 0 -100 44 -100 99s44 99 101 99c55 0 98 -44 98 -100zM318 674c0 25 -20 46 -45 46
c-27 0 -48 -21 -48 -46s21 -46 48 -46c24 0 45 21 45 46z" />
    <glyph glyph-name="AEacute" unicode="&#x1fc;" horiz-adv-x="1000" 
d="M966 0h-536v152h-223l-53 -152h-153l263 729h682v-125h-366v-165h339v-125h-339v-189h386v-125zM430 277v327h-67l-114 -327h181zM693 921l-135 -135h-106l76 135h165z" />
    <glyph glyph-name="aeacute" unicode="&#x1fd;" horiz-adv-x="889" 
d="M857 250c0 -5 0 -12 -1 -24h-362c0 -86 47 -127 114 -127c48 0 92 29 104 53h138c-31 -92 -129 -160 -250 -160c-88 0 -158 36 -200 104c-62 -73 -124 -105 -205 -105c-103 0 -168 57 -168 158c0 99 51 144 159 163l56 10c69 12 69 10 88 21c15 8 24 24 24 40
c0 36 -28 53 -85 53c-63 0 -88 -20 -95 -74h-131c2 124 79 187 228 187c78 0 137 -17 175 -50c41 33 94 50 155 50c161 0 256 -110 256 -299zM354 231v23c-17 -10 -29 -15 -59 -19l-48 -7c-53 -8 -80 -24 -80 -65s29 -59 76 -59c72 0 111 45 111 127zM711 319
c-7 81 -44 123 -109 123c-64 0 -101 -42 -107 -123h216zM621 752l-126 -154h-100l70 154h156z" />
    <glyph glyph-name="Oslashacute" unicode="&#x1fe;" horiz-adv-x="778" 
d="M742 360c0 -213 -139 -372 -351 -372c-87 0 -161 26 -218 72l-64 -69l-68 64l68 73c-45 64 -69 145 -69 237c0 209 136 376 350 376c86 0 161 -27 218 -73l65 70l68 -64l-69 -74c45 -64 70 -147 70 -240zM592 361c0 48 -8 91 -23 128l-303 -328c33 -29 76 -45 125 -45
c120 0 201 96 201 245zM515 568c-32 29 -75 45 -124 45c-121 0 -201 -101 -201 -248c0 -48 8 -90 22 -125zM577 921l-135 -135h-106l76 135h165z" />
    <glyph glyph-name="oslashacute" unicode="&#x1ff;" horiz-adv-x="611" 
d="M569 266c0 -173 -103 -275 -267 -275c-65 0 -121 16 -164 46l-38 -40l-60 58l40 42c-29 45 -45 103 -45 173c0 177 101 279 266 279c66 0 122 -15 165 -45l38 39l60 -58l-40 -42c30 -45 45 -105 45 -177zM429 268c0 25 -3 47 -8 66l-194 -204c21 -17 46 -26 75 -26
c75 0 127 63 127 164zM377 410c-20 17 -46 26 -75 26c-76 0 -127 -63 -127 -166c0 -24 3 -45 8 -64zM482 752l-126 -154h-100l70 154h156z" />
    <glyph glyph-name="Adblgrave" unicode="&#x200;" horiz-adv-x="722" 
d="M703 0h-154l-48 147h-273l-49 -147h-153l259 729h166zM460 272l-95 285l-95 -285h190zM509 787h-85l-111 154h126zM311 787h-85l-111 154h126z" />
    <glyph glyph-name="adblgrave" unicode="&#x201;" 
d="M524 0h-152c-13 16 -16 40 -16 68c-49 -51 -104 -77 -164 -77c-90 0 -164 50 -164 155c0 98 52 144 159 163l56 10c70 12 112 6 112 63c0 36 -27 54 -81 54c-69 0 -92 -18 -99 -74h-135c9 125 85 187 231 187s221 -56 221 -166v-300c0 -28 7 -43 32 -66v-17zM355 231v24
c-16 -8 -22 -10 -59 -17l-48 -9c-58 -11 -80 -26 -80 -67c0 -40 29 -58 76 -58c71 0 111 46 111 127zM412 598h-85l-111 154h126zM214 598h-85l-111 154h126z" />
    <glyph glyph-name="Edblgrave" unicode="&#x204;" horiz-adv-x="667" 
d="M624 0h-545v729h527v-125h-377v-165h349v-125h-349v-189h395v-125zM484 787h-85l-111 154h126zM286 787h-85l-111 154h126z" />
    <glyph glyph-name="edblgrave" unicode="&#x205;" 
d="M525 250l-1 -17h-362c4 -105 46 -135 112 -135c51 0 95 15 107 54h138c-31 -106 -129 -161 -250 -161c-153 0 -247 99 -247 272c0 181 95 286 250 286c159 0 253 -113 253 -299zM379 326c-7 77 -49 116 -109 116c-62 0 -97 -41 -106 -116h215zM413 598h-85l-111 154h126z
M215 598h-85l-111 154h126z" />
    <glyph glyph-name="Idblgrave" unicode="&#x208;" horiz-adv-x="278" 
d="M213 0h-150v729h150v-729zM279 787h-85l-111 154h126zM81 787h-85l-111 154h126z" />
    <glyph glyph-name="idblgrave" unicode="&#x209;" horiz-adv-x="278" 
d="M207 0h-140v540h140v-540zM280 598h-85l-111 154h126zM82 598h-85l-111 154h126z" />
    <glyph glyph-name="Odblgrave" unicode="&#x20c;" horiz-adv-x="778" 
d="M742 360c0 -213 -139 -372 -351 -372c-214 0 -351 159 -351 377c0 209 136 376 350 376c213 0 352 -161 352 -381zM592 361c0 152 -78 252 -201 252c-121 0 -201 -101 -201 -248c0 -153 80 -249 201 -249c120 0 201 96 201 245zM531 787h-85l-111 154h126zM333 787h-85
l-111 154h126z" />
    <glyph glyph-name="odblgrave" unicode="&#x20d;" horiz-adv-x="611" 
d="M569 266c0 -173 -103 -275 -267 -275c-166 0 -267 101 -267 279c0 177 101 279 266 279c169 0 268 -100 268 -283zM429 268c0 106 -50 168 -127 168c-76 0 -127 -63 -127 -166s51 -166 127 -166c75 0 127 63 127 164zM446 598h-85l-111 154h126zM248 598h-85l-111 154
h126z" />
    <glyph glyph-name="Rdblgrave" unicode="&#x210;" horiz-adv-x="722" 
d="M677 0h-161c-19 35 -23 57 -23 125l2 77c0 61 -28 87 -93 87h-172v-289h-150v729h391c129 0 196 -84 196 -197c0 -89 -41 -148 -123 -180c93 -40 97 -50 101 -265c0 -32 9 -47 32 -60v-27zM517 511c0 63 -24 93 -106 93h-181v-190h181c85 0 106 32 106 97zM502 787h-85
l-111 154h126zM304 787h-85l-111 154h126z" />
    <glyph glyph-name="rdblgrave" unicode="&#x211;" horiz-adv-x="389" 
d="M370 406c-19 3 -29 4 -44 4c-82 0 -123 -41 -123 -123v-287h-140v540h140v-106c30 73 86 115 150 115c4 0 9 0 17 -1v-142zM344 598h-85l-111 154h126zM146 598h-85l-111 154h126z" />
    <glyph glyph-name="Udblgrave" unicode="&#x214;" horiz-adv-x="722" 
d="M654 246c0 -172 -122 -258 -289 -258s-289 86 -289 258v483h150v-483c0 -88 45 -130 139 -130s139 42 139 130v483h150v-483zM502 787h-85l-111 154h126zM304 787h-85l-111 154h126z" />
    <glyph glyph-name="udblgrave" unicode="&#x215;" horiz-adv-x="611" 
d="M541 0h-140v71c-40 -53 -89 -80 -162 -80c-115 0 -181 68 -181 187v362h140v-333c0 -65 30 -97 90 -97c68 0 113 42 113 106v324h140v-540zM446 598h-85l-111 154h126zM248 598h-85l-111 154h126z" />
    <glyph glyph-name="uni0218" unicode="&#x218;" horiz-adv-x="667" 
d="M633 219c0 -148 -111 -231 -299 -231c-186 0 -302 85 -302 241h146c0 -78 62 -121 164 -121c91 0 147 32 147 93c0 59 -37 80 -137 100l-102 20c-148 29 -205 82 -205 196c0 142 101 224 276 224c178 0 286 -80 286 -234h-140c0 74 -58 114 -153 114
c-77 0 -126 -35 -126 -90c0 -53 31 -74 138 -95l114 -22c135 -26 193 -80 193 -195zM383 -163c0 -82 -51 -142 -122 -144v46c46 9 68 39 67 89h-67v112h122v-103z" />
    <glyph glyph-name="uni0219" unicode="&#x219;" 
d="M520 160c0 -109 -84 -169 -236 -169c-164 0 -251 62 -255 180h137c12 -58 46 -70 110 -70c65 0 104 13 104 46c0 15 -12 26 -47 37l-167 52c-100 31 -118 67 -118 133c0 111 85 180 222 180c145 0 233 -69 235 -183h-135c-1 49 -34 73 -101 73c-49 0 -81 -20 -81 -50
c0 -22 10 -31 49 -42l177 -51c71 -21 106 -67 106 -129v-7zM333 -163c0 -82 -51 -142 -122 -144v46c46 9 68 39 67 89h-67v112h122v-103z" />
    <glyph glyph-name="uni021A" unicode="&#x21a;" horiz-adv-x="611" 
d="M598 604h-213v-604h-150v604h-221v125h584v-125zM361 -163c0 -82 -51 -142 -122 -144v46c46 9 68 39 67 89h-67v112h122v-103z" />
    <glyph glyph-name="uni021B" unicode="&#x21b;" horiz-adv-x="333" 
d="M301 0c-25 -1 -50 -4 -81 -4c-92 0 -137 35 -137 120v320h-69v93h69v145h140v-145h78v-93h-78v-282c0 -48 9 -59 46 -59c10 0 18 1 32 3v-98zM222 -163c0 -82 -51 -142 -122 -144v46c46 9 68 39 67 89h-67v112h122v-103z" />
    <glyph glyph-name="uni0237" unicode="&#x237;" horiz-adv-x="278" 
d="M210 -94c0 -88 -36 -124 -123 -124c-20 0 -55 2 -83 5v112c10 -3 16 -4 25 -4c30 0 41 11 41 42v603h140v-634z" />
    <glyph glyph-name="ereversed" unicode="&#x258;" 
d="M525 263c0 -173 -94 -272 -247 -272c-121 0 -219 55 -250 161h138c12 -39 56 -54 107 -54c66 0 108 30 112 135h-362l-1 17c0 186 94 299 253 299c155 0 250 -105 250 -286zM383 326c-9 75 -44 116 -106 116c-60 0 -102 -39 -109 -116h215z" />
    <glyph glyph-name="schwa" unicode="&#x259;" 
d="M525 277c0 -181 -95 -286 -250 -286c-159 0 -253 113 -253 299l1 17h362c-4 105 -46 135 -112 135c-51 0 -95 -15 -107 -54h-138c31 106 129 161 250 161c153 0 247 -99 247 -272zM383 214h-215c7 -77 49 -116 109 -116c62 0 97 41 106 116z" />
    <glyph glyph-name="ringhalfright" unicode="&#x2be;" horiz-adv-x="461" 
d="M401 516c0 -128 -66 -197 -178 -197c-95 0 -156 55 -163 148c0 5 3 9 8 9h89c4 0 7 -3 8 -7c9 -42 25 -59 59 -59c54 0 68 45 68 106c0 64 -25 100 -68 100c-32 0 -49 -17 -59 -50c-1 -3 -4 -6 -8 -6h-89c-5 0 -8 4 -8 8v1c9 81 72 138 164 138c112 0 177 -67 177 -191z
" />
    <glyph glyph-name="ringhalfleft" unicode="&#x2bf;" horiz-adv-x="461" 
d="M401 457c-9 -81 -72 -138 -164 -138c-112 0 -177 67 -177 191c0 128 66 197 178 197c95 0 156 -55 163 -148c0 -5 -3 -9 -8 -9h-89c-4 0 -7 3 -8 7c-9 42 -25 59 -59 59c-54 0 -68 -45 -68 -106c0 -64 25 -100 68 -100c32 0 49 17 59 50c1 3 4 6 8 6h89c5 0 8 -4 8 -8v-1
z" />
    <glyph glyph-name="circumflex" unicode="&#x2c6;" horiz-adv-x="333" 
d="M336 598h-88l-82 77l-82 -77h-86l108 154h127z" />
    <glyph glyph-name="caron" unicode="&#x2c7;" horiz-adv-x="333" 
d="M336 752l-108 -154h-127l-103 154h88l82 -77l82 77h86z" />
    <glyph glyph-name="breve" unicode="&#x2d8;" horiz-adv-x="333" 
d="M328 751c0 -84 -80 -151 -164 -151s-164 67 -164 151h80c0 -43 39 -64 84 -64s84 21 84 64h80z" />
    <glyph glyph-name="dotaccent" unicode="&#x2d9;" horiz-adv-x="333" 
d="M237 605h-140v140h140v-140z" />
    <glyph glyph-name="ring" unicode="&#x2da;" horiz-adv-x="333" 
d="M266 674c0 -54 -46 -98 -99 -98c-56 0 -100 44 -100 99s44 99 101 99c55 0 98 -44 98 -100zM213 675c0 25 -20 46 -45 46c-27 0 -48 -21 -48 -46s21 -46 48 -46c24 0 45 21 45 46z" />
    <glyph glyph-name="ogonek" unicode="&#x2db;" horiz-adv-x="333" 
d="M285 -230h-63c-83 0 -147 30 -147 103c0 45 18 78 73 127h105c-55 -30 -83 -51 -83 -92c0 -34 17 -48 52 -48h63v-90z" />
    <glyph glyph-name="tilde" unicode="&#x2dc;" horiz-adv-x="333" 
d="M345 739c-4 -85 -36 -127 -95 -127c-15 0 -34 4 -55 12l-71 26c-12 4 -21 6 -30 6c-24 0 -35 -13 -40 -45h-63c4 78 39 124 94 124c19 0 20 0 56 -13l71 -25c7 -3 27 -6 34 -6c21 0 33 16 36 48h63z" />
    <glyph glyph-name="hungarumlaut" unicode="&#x2dd;" horiz-adv-x="333" 
d="M222 752l-111 -154h-85l70 154h126zM420 752l-111 -154h-85l70 154h126z" />
    <glyph glyph-name="uni0300" unicode="&#x300;" horiz-adv-x="0" 
d="M-228 598h-100l-126 154h156z" />
    <glyph glyph-name="uni0301" unicode="&#x301;" horiz-adv-x="0" 
d="M-101 752l-126 -154h-100l70 154h156z" />
    <glyph glyph-name="uni0302" unicode="&#x302;" horiz-adv-x="0" 
d="M-108 598h-88l-82 77l-82 -77h-86l108 154h127z" />
    <glyph glyph-name="uni0303" unicode="&#x303;" horiz-adv-x="0" 
d="M-99 739c-4 -85 -36 -127 -95 -127c-15 0 -34 4 -55 12l-71 26c-12 4 -21 6 -30 6c-24 0 -35 -13 -40 -45h-63c4 78 39 124 94 124c19 0 20 0 56 -13l71 -25c7 -3 27 -6 34 -6c21 0 33 16 36 48h63z" />
    <glyph glyph-name="uni0304" unicode="&#x304;" horiz-adv-x="0" 
d="M-129 636h-299v79h299v-79z" />
    <glyph glyph-name="uni0306" unicode="&#x306;" horiz-adv-x="0" 
d="M-116 751c0 -84 -80 -151 -164 -151s-164 67 -164 151h80c0 -43 39 -64 84 -64s84 21 84 64h80z" />
    <glyph glyph-name="uni0307" unicode="&#x307;" horiz-adv-x="0" 
d="M-207 605h-140v140h140v-140z" />
    <glyph glyph-name="uni0308" unicode="&#x308;" horiz-adv-x="0" 
d="M-312 618h-126v115h126v-115zM-117 618h-126v115h126v-115z" />
    <glyph glyph-name="uni0309" unicode="&#x309;" horiz-adv-x="0" 
d="M-165 710c0 -31 -13 -48 -55 -73c-25 -14 -29 -18 -29 -43h-62c0 36 11 55 47 79c23 16 29 21 29 35c0 21 -18 36 -43 36c-27 0 -45 -17 -45 -51h-67c0 75 46 104 111 104c67 0 114 -36 114 -87z" />
    <glyph glyph-name="uni030A" unicode="&#x30a;" horiz-adv-x="0" 
d="M-178 674c0 -54 -46 -98 -99 -98c-56 0 -100 44 -100 99s44 99 101 99c55 0 98 -44 98 -100zM-231 675c0 25 -20 46 -45 46c-27 0 -48 -21 -48 -46s21 -46 48 -46c24 0 45 21 45 46z" />
    <glyph glyph-name="uni030B" unicode="&#x30b;" horiz-adv-x="0" 
d="M-222 752l-111 -154h-85l70 154h126zM-24 752l-111 -154h-85l70 154h126z" />
    <glyph glyph-name="uni030C" unicode="&#x30c;" horiz-adv-x="0" 
d="M-108 752l-108 -154h-127l-103 154h88l82 -77l82 77h86z" />
    <glyph glyph-name="uni030F" unicode="&#x30f;" horiz-adv-x="0" 
d="M-137 598h-85l-111 154h126zM-335 598h-85l-111 154h126z" />
    <glyph glyph-name="uni0311" unicode="&#x311;" horiz-adv-x="0" 
d="M-116 600h-80c0 43 -39 64 -84 64s-84 -21 -84 -64h-80c0 84 80 151 164 151s164 -67 164 -151z" />
    <glyph glyph-name="uni0323" unicode="&#x323;" horiz-adv-x="0" 
d="M-207 -205h-140v140h140v-140z" />
    <glyph glyph-name="uni0326" unicode="&#x326;" horiz-adv-x="0" 
d="M-216 -163c0 -82 -51 -142 -122 -144v46c46 9 68 39 67 89h-67v112h122v-103z" />
    <glyph glyph-name="uni032E" unicode="&#x32e;" horiz-adv-x="0" 
d="M-97 -74c-8 -80 -71 -122 -182 -122c-101 0 -177 35 -179 122h71c6 -29 42 -40 110 -40c65 0 105 12 109 40h71z" />
    <glyph glyph-name="uni032F" unicode="&#x32f;" horiz-adv-x="0" 
d="M-97 -196h-71c-6 29 -42 40 -110 40c-65 0 -105 -12 -109 -40h-71c8 80 71 122 182 122c101 0 177 -35 179 -122z" />
    <glyph glyph-name="uni0330" unicode="&#x330;" horiz-adv-x="0" 
d="M-99 -71c-4 -85 -36 -127 -95 -127c-15 0 -34 4 -55 12l-71 26c-12 4 -21 6 -30 6c-24 0 -35 -13 -40 -45h-63c4 78 39 124 94 124c19 0 20 0 56 -13l71 -25c7 -3 27 -6 34 -6c21 0 33 16 36 48h63z" />
    <glyph glyph-name="uni0331" unicode="&#x331;" horiz-adv-x="0" 
d="M-129 -174h-299v79h299v-79z" />
    <glyph glyph-name="uni0332" unicode="&#x332;" horiz-adv-x="0" 
d="M-129 -174h-299v79h299v-79z" />
    <glyph glyph-name="Alpha" unicode="&#x391;" horiz-adv-x="722" 
d="M703 0h-154l-48 147h-273l-49 -147h-153l259 729h166zM460 272l-95 285l-95 -285h190z" />
    <glyph glyph-name="Beta" unicode="&#x392;" horiz-adv-x="722" 
d="M666 210c0 -120 -86 -210 -256 -210h-328v729h325c152 0 238 -89 238 -192c0 -62 -28 -104 -100 -150c82 -48 121 -105 121 -177zM501 521c0 54 -37 83 -106 83h-163v-165h163c69 0 106 29 106 82zM522 219c0 62 -38 95 -111 95h-179v-189h179c73 0 111 33 111 94z" />
    <glyph glyph-name="Gamma" unicode="&#x393;" horiz-adv-x="611" 
d="M586 604h-362v-604h-150v729h512v-125z" />
    <glyph glyph-name="Delta" unicode="&#x394;" horiz-adv-x="729" 
d="M736 0h-743l307 707h129zM522 140l-157 363l-158 -363h315z" />
    <glyph glyph-name="Epsilon" unicode="&#x395;" horiz-adv-x="667" 
d="M624 0h-545v729h527v-125h-377v-165h349v-125h-349v-189h395v-125z" />
    <glyph glyph-name="Zeta" unicode="&#x396;" horiz-adv-x="611" 
d="M578 0h-548v125l373 479h-373v125h548v-125l-372 -479h372v-125z" />
    <glyph glyph-name="Eta" unicode="&#x397;" horiz-adv-x="722" 
d="M657 0h-150v331h-289v-331h-150v729h150v-273h289v273h150v-729z" />
    <glyph glyph-name="Theta" unicode="&#x398;" horiz-adv-x="778" 
d="M742 360c0 -213 -139 -372 -351 -372c-214 0 -351 159 -351 377c0 209 136 376 350 376c213 0 352 -161 352 -381zM592 361c0 152 -78 252 -201 252c-121 0 -201 -101 -201 -248c0 -153 80 -249 201 -249c120 0 201 96 201 245zM521 295h-260v140h260v-140z" />
    <glyph glyph-name="Iota" unicode="&#x399;" horiz-adv-x="278" 
d="M213 0h-150v729h150v-729z" />
    <glyph glyph-name="Kappa" unicode="&#x39a;" horiz-adv-x="722" 
d="M717 0h-179l-239 322l-75 -78v-244h-150v729h150v-320l285 320h177l-291 -314z" />
    <glyph glyph-name="Lambda" unicode="&#x39b;" horiz-adv-x="722" 
d="M703 0h-154l-184 557l-186 -557h-153l259 729h166z" />
    <glyph glyph-name="Mu" unicode="&#x39c;" horiz-adv-x="833" 
d="M776 0h-150v568l-129 -568h-150l-131 568v-568h-150v729h224l132 -580l128 580h226v-729z" />
    <glyph glyph-name="Nu" unicode="&#x39d;" horiz-adv-x="722" 
d="M661 0h-150l-293 504v-504h-150v729h154l289 -496v496h150v-729z" />
    <glyph glyph-name="Xi" unicode="&#x39e;" horiz-adv-x="722" 
d="M647 579h-572v150h572v-150zM497 295h-272v140h272v-140zM647 0h-572v150h572v-150z" />
    <glyph glyph-name="Omicron" unicode="&#x39f;" horiz-adv-x="778" 
d="M742 360c0 -213 -139 -372 -351 -372c-214 0 -351 159 -351 377c0 209 136 376 350 376c213 0 352 -161 352 -381zM592 361c0 152 -78 252 -201 252c-121 0 -201 -101 -201 -248c0 -153 80 -249 201 -249c120 0 201 96 201 245z" />
    <glyph glyph-name="Pi" unicode="&#x3a0;" horiz-adv-x="659" 
d="M624 0h-150v604h-289v-604h-150v729h589v-729z" />
    <glyph glyph-name="Rho" unicode="&#x3a1;" horiz-adv-x="667" 
d="M633 503c0 -148 -86 -243 -220 -243h-187v-260h-150v729h322c152 0 235 -80 235 -226zM483 494c0 75 -37 110 -117 110h-140v-219h140c80 0 117 35 117 109z" />
    <glyph glyph-name="Sigma" unicode="&#x3a3;" horiz-adv-x="612" 
d="M577 0h-542v135l229 230l-229 229v135h542v-125h-375l239 -239l-239 -240h375v-125z" />
    <glyph glyph-name="Tau" unicode="&#x3a4;" horiz-adv-x="611" 
d="M598 604h-213v-604h-150v604h-221v125h584v-125z" />
    <glyph glyph-name="Upsilon" unicode="&#x3a5;" horiz-adv-x="667" 
d="M650 729l-231 -459v-270h-150v270l-242 459h167l149 -322l139 322h168z" />
    <glyph glyph-name="Phi" unicode="&#x3a6;" horiz-adv-x="761" 
d="M702 365c0 -127 -112 -211 -246 -233v-132h-150v132c-134 22 -246 106 -246 233c0 126 112 210 246 232v132h150v-132c134 -22 246 -106 246 -232zM306 479c-60 -17 -106 -56 -106 -114c0 -59 46 -98 106 -115v229zM562 365c0 58 -46 97 -106 114v-229
c60 17 106 56 106 115z" />
    <glyph glyph-name="Chi" unicode="&#x3a7;" horiz-adv-x="667" 
d="M653 0h-178l-140 253l-139 -253h-174l230 367l-222 362h178l128 -240l134 240h174l-225 -357z" />
    <glyph glyph-name="Psi" unicode="&#x3a8;" horiz-adv-x="744" 
d="M684 540c0 -152 -99 -282 -237 -318v-222h-150v222c-138 36 -237 166 -237 318v189h140v-189c0 -81 37 -158 97 -193v382h150v-382c60 35 97 112 97 193v189h140v-189z" />
    <glyph glyph-name="Omega" unicode="&#x3a9;" horiz-adv-x="770" 
d="M735 0h-292v247c65 28 107 100 107 179c0 100 -69 190 -165 190s-165 -90 -165 -190c0 -79 42 -151 107 -179v-247h-292v125h142v64c-66 58 -107 142 -107 237c0 173 141 315 315 315s315 -142 315 -315c0 -95 -41 -179 -107 -237v-64h142v-125z" />
    <glyph glyph-name="alpha" unicode="&#x3b1;" horiz-adv-x="776" 
d="M716 36l-111 -72c-20 30 -40 79 -58 131c-52 -55 -121 -91 -199 -91c-150 0 -288 95 -288 236c0 162 128 296 288 296c84 0 151 -47 200 -115c11 55 26 108 57 155l111 -72c-51 -79 -54 -177 -84 -266c21 -70 44 -140 84 -202zM501 241c-28 89 -66 181 -153 181
c-89 0 -148 -87 -148 -182c0 -73 71 -122 148 -122c71 0 124 56 153 123z" />
    <glyph glyph-name="beta" unicode="&#x3b2;" horiz-adv-x="681" 
d="M610 236c0 -152 -87 -245 -218 -245c-53 0 -104 14 -150 40v-261h-140v748c0 78 18 127 61 161c39 31 106 50 175 50c135 0 229 -75 229 -182c0 -67 -30 -114 -87 -136c34 -7 54 -17 79 -40c36 -35 51 -73 51 -135zM470 226c0 76 -52 123 -137 123h-13v95h9
c60 1 98 35 98 89c0 52 -37 83 -98 83c-55 0 -87 -29 -87 -79v-366c24 -38 66 -60 111 -60c69 0 117 44 117 115z" />
    <glyph glyph-name="gamma" unicode="&#x3b3;" horiz-adv-x="683" 
d="M622 540l-211 -549v-221h-140v221l-211 549h146l135 -349l135 349h146z" />
    <glyph glyph-name="delta" unicode="&#x3b4;" horiz-adv-x="608" 
d="M573 226c0 -139 -125 -235 -269 -235s-269 96 -269 235c0 90 61 146 146 182c-44 43 -71 100 -71 162c0 101 109 159 221 159c72 0 142 -27 196 -75l-75 -84c-34 30 -77 46 -121 46c-40 0 -81 -12 -81 -46c0 -73 87 -96 158 -125c94 -39 165 -118 165 -219zM423 226
c0 43 -28 75 -69 89c-82 0 -169 -18 -169 -89c0 -60 56 -95 119 -95s119 35 119 95z" />
    <glyph glyph-name="epsilon" unicode="&#x3b5;" horiz-adv-x="562" 
d="M502 7c-69 -18 -143 -38 -209 -38c-123 0 -233 83 -233 201c0 55 29 93 74 119c-40 23 -65 57 -65 107c0 103 98 175 206 175c73 0 147 -20 219 -40l-25 -90c-57 16 -129 16 -194 16c-35 0 -66 -26 -66 -61c0 -59 92 -59 169 -59v-91c-83 0 -178 -4 -178 -76
c0 -49 43 -87 93 -87c62 0 135 0 186 13z" />
    <glyph glyph-name="zeta" unicode="&#x3b6;" horiz-adv-x="581" 
d="M551 -45c0 -96 -89 -166 -189 -166v102c30 0 49 31 49 64c0 31 -20 58 -49 58h-39c-144 0 -263 114 -263 257c0 148 77 276 195 357h-195v92h491v-92h-95c-155 -37 -256 -190 -256 -357c0 -76 51 -143 123 -143h39c101 0 189 -74 189 -172z" />
    <glyph glyph-name="eta" unicode="&#x3b7;" horiz-adv-x="611" 
d="M546 -200h-140v533c0 64 -30 97 -90 97c-68 0 -113 -42 -113 -106v-324h-140v540h140v-78c40 60 89 87 162 87c115 0 181 -68 181 -187v-562z" />
    <glyph glyph-name="theta" unicode="&#x3b8;" horiz-adv-x="565" 
d="M505 334c0 -166 -75 -330 -223 -330c-147 0 -222 164 -222 330c0 191 57 391 222 391c166 0 223 -200 223 -391zM365 391c-2 110 -12 220 -83 220c-70 0 -80 -110 -82 -220h165zM364 277h-163c2 -82 14 -159 81 -159s80 77 82 159z" />
    <glyph glyph-name="iota" unicode="&#x3b9;" horiz-adv-x="437" 
d="M377 4c-127 0 -257 47 -257 158v378h140v-378c0 -44 63 -44 117 -44v-114z" />
    <glyph glyph-name="kappa" unicode="&#x3ba;" 
d="M548 0h-164l-129 238l-56 -61v-177h-140v540h140v-210l177 210h159l-184 -204z" />
    <glyph glyph-name="lambda" unicode="&#x3bb;" horiz-adv-x="757" 
d="M698 0h-148l-138 335l-196 -335h-156l288 490l-13 32c-21 52 -71 86 -127 86v102c111 0 219 -51 260 -152z" />
    <glyph glyph-name="mu.greek" unicode="&#x3bc;" horiz-adv-x="731" 
d="M611 0h-140v32c-31 -18 -67 -28 -105 -28c-39 0 -75 10 -106 28v-262h-140v770h140v-342c19 -46 56 -80 106 -80c49 0 86 34 105 80v342h140v-540z" />
    <glyph glyph-name="nu" unicode="&#x3bd;" horiz-adv-x="619" 
d="M589 360c0 -171 -104 -325 -262 -390l-92 40l-205 530h146l160 -405c71 53 113 136 113 225c0 60 -3 120 -9 180h140c6 -60 9 -120 9 -180z" />
    <glyph glyph-name="xi" unicode="&#x3be;" horiz-adv-x="611" 
d="M551 -45c0 -96 -89 -166 -189 -166v102c30 0 49 31 49 64c0 31 -20 58 -49 58h-39c-139 0 -263 93 -263 225c0 70 38 126 96 163c-52 30 -87 76 -87 138c0 36 12 65 32 88h-41v92h491v-92h-237c-58 -10 -105 -35 -105 -88c0 -64 79 -83 153 -83v-102
c-82 0 -162 -42 -162 -116c0 -64 57 -111 123 -111h39c101 0 189 -74 189 -172z" />
    <glyph glyph-name="omicron" unicode="&#x3bf;" horiz-adv-x="611" 
d="M569 266c0 -173 -103 -275 -267 -275c-166 0 -267 101 -267 279c0 177 101 279 266 279c169 0 268 -100 268 -283zM429 268c0 106 -50 168 -127 168c-76 0 -127 -63 -127 -166s51 -166 127 -166c75 0 127 63 127 164z" />
    <glyph glyph-name="pi" unicode="&#x3c0;" horiz-adv-x="742" 
d="M707 427h-100v-427h-140v427h-112v-427h-140v427c-58 0 -67 -41 -67 -107h-113c0 170 73 220 250 220h422v-113z" />
    <glyph glyph-name="rho" unicode="&#x3c1;" horiz-adv-x="670" 
d="M610 270c0 -149 -125 -266 -275 -266c-48 0 -94 12 -135 33v-267h-140v500c0 149 125 266 275 266s275 -117 275 -266zM470 270c0 81 -57 152 -135 152s-135 -71 -135 -152v-104c37 -31 85 -48 135 -48c78 0 135 71 135 152z" />
    <glyph glyph-name="uni03C2" unicode="&#x3c2;" horiz-adv-x="611" 
d="M551 -45c0 -96 -89 -166 -189 -166v102c30 0 49 31 49 64c0 31 -20 58 -49 58h-39c-145 0 -263 117 -263 262c0 144 118 261 263 261c101 0 191 -64 218 -160l-120 -34c-13 46 -51 80 -98 80c-73 0 -123 -70 -123 -147c0 -78 50 -148 123 -148h39c101 0 189 -74 189 -172
z" />
    <glyph glyph-name="sigma" unicode="&#x3c3;" horiz-adv-x="700" 
d="M670 495c-41 -19 -84 -32 -127 -42c33 -46 51 -109 51 -187c0 -173 -103 -275 -267 -275c-166 0 -267 101 -267 279c0 177 101 279 266 279c37 0 70 -5 100 -14c67 14 132 39 194 68zM454 268c0 106 -50 168 -127 168c-76 0 -127 -63 -127 -166s51 -166 127 -166
c75 0 127 63 127 164z" />
    <glyph glyph-name="tau" unicode="&#x3c4;" horiz-adv-x="481" 
d="M421 4c-127 0 -257 47 -257 158v251h-104v114h349v-114h-105v-251c0 -44 63 -44 117 -44v-114z" />
    <glyph glyph-name="upsilon" unicode="&#x3c5;" horiz-adv-x="611" 
d="M551 250c0 -137 -115 -246 -254 -246c-121 0 -237 66 -237 176v360h140v-360c0 -42 48 -62 97 -62c66 0 114 62 114 132c0 97 -6 194 -18 290h140c12 -96 18 -193 18 -290z" />
    <glyph glyph-name="phi" unicode="&#x3c6;" horiz-adv-x="898" 
d="M838 270c0 -154 -150 -243 -319 -262v-238h-140v238c-169 19 -319 108 -319 262c0 124 94 226 216 259l27 -100c-67 -19 -103 -88 -103 -159c0 -87 82 -133 179 -147v127c0 149 91 286 230 286c133 0 229 -125 229 -266zM698 270c0 75 -25 152 -89 152
c-72 0 -90 -89 -90 -172v-127c97 14 179 60 179 147z" />
    <glyph glyph-name="chi" unicode="&#x3c7;" horiz-adv-x="689" 
d="M628 -230h-152l-132 243l-132 -243h-152l208 385l-208 385h152l132 -243l132 243h152l-208 -385z" />
    <glyph glyph-name="psi" unicode="&#x3c8;" horiz-adv-x="778" 
d="M718 180c0 -117 -124 -162 -259 -173v-237h-140v237c-135 11 -259 56 -259 173v360h140v-360c0 -45 55 -58 119 -61v610h140v-610c64 3 119 16 119 61v360h140v-360z" />
    <glyph glyph-name="omega" unicode="&#x3c9;" horiz-adv-x="789" 
d="M729 301c0 -150 -69 -297 -202 -297c-60 0 -105 29 -137 75c-29 -45 -71 -75 -128 -75c-133 0 -202 147 -202 297c0 89 41 173 102 239h123c-60 -65 -85 -152 -85 -239c0 -84 0 -183 62 -183c48 0 69 39 77 90c-10 48 -14 101 -14 152h140c0 -107 0 -242 62 -242
s62 99 62 183c0 87 -25 174 -85 239h123c61 -66 102 -150 102 -239z" />
    <glyph glyph-name="uni03D1" unicode="&#x3d1;" horiz-adv-x="671" 
d="M611 386l-60 1v-207c0 -116 -119 -189 -245 -189c-127 0 -246 73 -246 189v180h140v-180c0 -43 55 -49 106 -49c50 0 105 6 105 49v210c-176 11 -328 49 -328 191c0 112 104 194 223 194c133 0 245 -103 245 -235v-62h60v-92zM411 540c0 73 -39 143 -105 143
c-60 0 -111 -44 -111 -102c0 -67 97 -91 216 -99v58z" />
    <glyph glyph-name="uni03D5" unicode="&#x3d5;" horiz-adv-x="730" 
d="M670 270c0 -136 -103 -243 -235 -272v-228h-140v228c-132 29 -235 136 -235 272s103 243 235 272v187h140v-187c132 -29 235 -136 235 -272zM530 270c0 59 -40 105 -95 126v-252c55 21 95 67 95 126zM295 396c-55 -21 -95 -67 -95 -126s40 -105 95 -126v252z" />
    <glyph glyph-name="uni03D6" unicode="&#x3d6;" horiz-adv-x="789" 
d="M729 301c0 -150 -69 -297 -202 -297c-60 0 -105 29 -137 75c-29 -45 -71 -75 -128 -75c-133 0 -202 147 -202 297c0 89 41 173 102 239h123c-60 -65 -85 -152 -85 -239c0 -84 0 -183 62 -183c48 0 69 39 77 90c-10 48 -14 101 -14 152h140c0 -107 0 -242 62 -242
s62 99 62 183c0 171 -14 364 -161 364c-83 0 -164 -25 -235 -67l-43 73c84 50 180 73 278 73c199 0 301 -221 301 -443z" />
    <glyph glyph-name="uni03F1" unicode="&#x3f1;" horiz-adv-x="654" 
d="M594 266c0 -173 -103 -275 -267 -275c-42 0 -80 7 -113 19c7 -39 19 -67 38 -74c81 -31 178 18 253 -29c54 -33 82 -94 82 -157h-126c0 29 -8 60 -32 75c-72 45 -160 -22 -237 7c-132 51 -132 263 -132 438c0 177 101 279 266 279c169 0 268 -100 268 -283zM454 268
c0 106 -50 168 -127 168c-76 0 -127 -63 -127 -166s51 -166 127 -166c75 0 127 63 127 164z" />
    <glyph glyph-name="uni03F5" unicode="&#x3f5;" 
d="M510 135c-31 -87 -113 -144 -223 -144c-160 0 -253 97 -253 275c0 184 94 283 255 283c110 0 189 -53 220 -144h-148c-17 22 -40 31 -73 31c-71 0 -101 -46 -111 -115h194v-102h-194c12 -75 52 -115 111 -115c33 0 57 10 74 31h148z" />
    <glyph glyph-name="baht" unicode="&#xe3f;" horiz-adv-x="722" 
d="M666 210c0 -120 -86 -210 -256 -210h-13v-83h-80v83h-235v729h235v83h80v-83h10c152 0 238 -89 238 -192c0 -62 -28 -104 -100 -150c82 -48 121 -105 121 -177zM501 521c0 54 -36 82 -104 83v-165c68 1 104 29 104 82zM317 439v165h-85v-165h85zM522 219
c0 62 -38 95 -111 95h-14v-189h14c73 0 111 33 111 94zM317 314h-85v-189h85v189z" />
    <glyph glyph-name="Ddotbelow" unicode="&#x1e0c;" horiz-adv-x="722" 
d="M681 365c0 -113 -32 -212 -89 -280c-50 -59 -119 -85 -230 -85h-285v729h285c112 0 181 -25 230 -84c58 -69 89 -168 89 -280zM531 364c0 161 -56 240 -169 240h-135v-479h135c113 0 169 79 169 239zM432 -205h-140v140h140v-140z" />
    <glyph glyph-name="ddotbelow" unicode="&#x1e0d;" horiz-adv-x="611" 
d="M545 0h-140v62c-35 -46 -82 -71 -149 -71c-143 0 -227 125 -227 278c0 163 98 280 227 280c67 0 114 -25 149 -79v259h140v-729zM405 267c0 103 -47 165 -118 165c-70 0 -118 -63 -118 -163c0 -99 48 -161 118 -161s118 61 118 159zM376 -205h-140v140h140v-140z" />
    <glyph glyph-name="Dlinebelow" unicode="&#x1e0e;" horiz-adv-x="722" 
d="M681 365c0 -113 -32 -212 -89 -280c-50 -59 -119 -85 -230 -85h-285v729h285c112 0 181 -25 230 -84c58 -69 89 -168 89 -280zM531 364c0 161 -56 240 -169 240h-135v-479h135c113 0 169 79 169 239zM511 -174h-299v79h299v-79z" />
    <glyph glyph-name="dlinebelow" unicode="&#x1e0f;" horiz-adv-x="611" 
d="M545 0h-140v62c-35 -46 -82 -71 -149 -71c-143 0 -227 125 -227 278c0 163 98 280 227 280c67 0 114 -25 149 -79v259h140v-729zM405 267c0 103 -47 165 -118 165c-70 0 -118 -63 -118 -163c0 -99 48 -161 118 -161s118 61 118 159zM454 -174h-299v79h299v-79z" />
    <glyph glyph-name="Hdotbelow" unicode="&#x1e24;" horiz-adv-x="722" 
d="M657 0h-150v331h-289v-331h-150v729h150v-273h289v273h150v-729zM433 -205h-140v140h140v-140z" />
    <glyph glyph-name="hdotbelow" unicode="&#x1e25;" horiz-adv-x="611" 
d="M541 0h-140v330c0 73 -36 100 -86 100c-63 0 -108 -44 -108 -106v-324h-140v729h140v-267c39 59 89 87 158 87c102 0 176 -61 176 -187v-362zM374 -205h-140v140h140v-140z" />
    <glyph glyph-name="Hdieresis" unicode="&#x1e26;" horiz-adv-x="722" 
d="M657 0h-150v331h-289v-331h-150v729h150v-273h289v273h150v-729zM329 797h-126v115h126v-115zM524 797h-126v115h126v-115z" />
    <glyph glyph-name="hdieresis" unicode="&#x1e27;" horiz-adv-x="611" 
d="M541 0h-140v330c0 73 -36 100 -86 100c-63 0 -108 -44 -108 -106v-324h-140v729h140v-267c39 59 89 87 158 87c102 0 176 -61 176 -187v-362zM271 797h-126v115h126v-115zM466 797h-126v115h126v-115z" />
    <glyph glyph-name="Hbrevebelow" unicode="&#x1e2a;" horiz-adv-x="722" 
d="M657 0h-150v331h-289v-331h-150v729h150v-273h289v273h150v-729zM543 -74c-8 -80 -71 -122 -182 -122c-101 0 -177 35 -179 122h71c6 -29 42 -40 110 -40c65 0 105 12 109 40h71z" />
    <glyph glyph-name="hbrevebelow" unicode="&#x1e2b;" horiz-adv-x="611" 
d="M541 0h-140v330c0 73 -36 100 -86 100c-63 0 -108 -44 -108 -106v-324h-140v729h140v-267c39 59 89 87 158 87c102 0 176 -61 176 -187v-362zM484 -74c-8 -80 -71 -122 -182 -122c-101 0 -177 35 -179 122h71c6 -29 42 -40 110 -40c65 0 105 12 109 40h71z" />
    <glyph glyph-name="Idieresisacute" unicode="&#x1e2e;" horiz-adv-x="278" 
d="M213 0h-150v729h150v-729zM103 797h-126v115h126v-115zM298 797h-126v115h126v-115zM326 1104l-135 -135h-106l76 135h165z" />
    <glyph glyph-name="idieresisacute" unicode="&#x1e2f;" horiz-adv-x="278" 
d="M207 0h-140v540h140v-540zM104 618h-126v115h126v-115zM299 618h-126v115h126v-115zM327 933l-135 -135h-106l76 135h165z" />
    <glyph glyph-name="Ldotbelow" unicode="&#x1e36;" horiz-adv-x="611" 
d="M579 0h-499v729h150v-604h349v-125zM400 -205h-140v140h140v-140z" />
    <glyph glyph-name="ldotbelow" unicode="&#x1e37;" horiz-adv-x="278" 
d="M207 0h-140v729h140v-729zM209 -205h-140v140h140v-140z" />
    <glyph glyph-name="Ldotbelowmacron" unicode="&#x1e38;" horiz-adv-x="611" 
d="M579 0h-499v729h150v-604h349v-125zM400 -205h-140v140h140v-140zM304 815h-299v79h299v-79z" />
    <glyph glyph-name="ldotbelowmacron" unicode="&#x1e39;" horiz-adv-x="278" 
d="M207 0h-140v729h140v-729zM209 -205h-140v140h140v-140zM286 815h-299v79h299v-79z" />
    <glyph glyph-name="Mdotbelow" unicode="&#x1e42;" horiz-adv-x="833" 
d="M776 0h-150v568l-129 -568h-150l-131 568v-568h-150v729h224l132 -580l128 580h226v-729zM487 -205h-140v140h140v-140z" />
    <glyph glyph-name="mdotbelow" unicode="&#x1e43;" horiz-adv-x="889" 
d="M824 0h-140v360c0 43 -29 70 -76 70c-60 0 -96 -40 -96 -106v-324h-140v360c0 43 -29 70 -76 70c-60 0 -96 -40 -96 -106v-324h-140v540h139v-67c46 55 86 76 148 76c67 0 121 -29 147 -80c42 56 90 80 158 80c108 0 172 -62 172 -167v-382zM515 -205h-140v140h140v-140z
" />
    <glyph glyph-name="Ndotaccent" unicode="&#x1e44;" horiz-adv-x="722" 
d="M661 0h-150l-293 504v-504h-150v729h154l289 -496v496h150v-729zM432 784h-140v140h140v-140z" />
    <glyph glyph-name="ndotaccent" unicode="&#x1e45;" horiz-adv-x="611" 
d="M546 0h-140v333c0 64 -30 97 -90 97c-68 0 -113 -42 -113 -106v-324h-140v540h140v-78c40 60 89 87 162 87c115 0 181 -68 181 -187v-362zM376 605h-140v140h140v-140z" />
    <glyph glyph-name="Ndotbelow" unicode="&#x1e46;" horiz-adv-x="722" 
d="M661 0h-150l-293 504v-504h-150v729h154l289 -496v496h150v-729zM431 -205h-140v140h140v-140z" />
    <glyph glyph-name="ndotbelow" unicode="&#x1e47;" horiz-adv-x="611" 
d="M546 0h-140v333c0 64 -30 97 -90 97c-68 0 -113 -42 -113 -106v-324h-140v540h140v-78c40 60 89 87 162 87c115 0 181 -68 181 -187v-362zM376 -205h-140v140h140v-140z" />
    <glyph glyph-name="Rdotaccent" unicode="&#x1e58;" horiz-adv-x="722" 
d="M677 0h-161c-19 35 -23 57 -23 125l2 77c0 61 -28 87 -93 87h-172v-289h-150v729h391c129 0 196 -84 196 -197c0 -89 -41 -148 -123 -180c93 -40 97 -50 101 -265c0 -32 9 -47 32 -60v-27zM517 511c0 63 -24 93 -106 93h-181v-190h181c85 0 106 32 106 97zM432 784h-140
v140h140v-140z" />
    <glyph glyph-name="rdotaccent" unicode="&#x1e59;" horiz-adv-x="389" 
d="M370 406c-19 3 -29 4 -44 4c-82 0 -123 -41 -123 -123v-287h-140v540h140v-106c30 73 86 115 150 115c4 0 9 0 17 -1v-142zM273 605h-140v140h140v-140z" />
    <glyph glyph-name="Rdotbelow" unicode="&#x1e5a;" horiz-adv-x="722" 
d="M677 0h-161c-19 35 -23 57 -23 125l2 77c0 61 -28 87 -93 87h-172v-289h-150v729h391c129 0 196 -84 196 -197c0 -89 -41 -148 -123 -180c93 -40 97 -50 101 -265c0 -32 9 -47 32 -60v-27zM517 511c0 63 -24 93 -106 93h-181v-190h181c85 0 106 32 106 97zM431 -205h-140
v140h140v-140z" />
    <glyph glyph-name="rdotbelow" unicode="&#x1e5b;" horiz-adv-x="389" 
d="M370 406c-19 3 -29 4 -44 4c-82 0 -123 -41 -123 -123v-287h-140v540h140v-106c30 73 86 115 150 115c4 0 9 0 17 -1v-142zM203 -205h-140v140h140v-140z" />
    <glyph glyph-name="Rdotbelowmacron" unicode="&#x1e5c;" horiz-adv-x="722" 
d="M677 0h-161c-19 35 -23 57 -23 125l2 77c0 61 -28 87 -93 87h-172v-289h-150v729h391c129 0 196 -84 196 -197c0 -89 -41 -148 -123 -180c93 -40 97 -50 101 -265c0 -32 9 -47 32 -60v-27zM517 511c0 63 -24 93 -106 93h-181v-190h181c85 0 106 32 106 97zM431 -205h-140
v140h140v-140zM510 815h-299v79h299v-79z" />
    <glyph glyph-name="rdotbelowmacron" unicode="&#x1e5d;" horiz-adv-x="389" 
d="M370 406c-19 3 -29 4 -44 4c-82 0 -123 -41 -123 -123v-287h-140v540h140v-106c30 73 86 115 150 115c4 0 9 0 17 -1v-142zM203 -205h-140v140h140v-140zM351 645h-299v79h299v-79z" />
    <glyph glyph-name="Sdotbelow" unicode="&#x1e62;" horiz-adv-x="667" 
d="M633 219c0 -148 -111 -231 -299 -231c-186 0 -302 85 -302 241h146c0 -78 62 -121 164 -121c91 0 147 32 147 93c0 59 -37 80 -137 100l-102 20c-148 29 -205 82 -205 196c0 142 101 224 276 224c178 0 286 -80 286 -234h-140c0 74 -58 114 -153 114
c-77 0 -126 -35 -126 -90c0 -53 31 -74 138 -95l114 -22c135 -26 193 -80 193 -195zM398 -205h-140v140h140v-140z" />
    <glyph glyph-name="sdotbelow" unicode="&#x1e63;" 
d="M520 160c0 -109 -84 -169 -236 -169c-164 0 -251 62 -255 180h137c12 -58 46 -70 110 -70c65 0 104 13 104 46c0 15 -12 26 -47 37l-167 52c-100 31 -118 67 -118 133c0 111 85 180 222 180c145 0 233 -69 235 -183h-135c-1 49 -34 73 -101 73c-49 0 -81 -20 -81 -50
c0 -22 10 -31 49 -42l177 -51c71 -21 106 -67 106 -129v-7zM348 -205h-140v140h140v-140z" />
    <glyph glyph-name="Tdotbelow" unicode="&#x1e6c;" horiz-adv-x="611" 
d="M598 604h-213v-604h-150v604h-221v125h584v-125zM376 -205h-140v140h140v-140z" />
    <glyph glyph-name="tdotbelow" unicode="&#x1e6d;" horiz-adv-x="333" 
d="M301 0c-25 -1 -50 -4 -81 -4c-92 0 -137 35 -137 120v320h-69v93h69v145h140v-145h78v-93h-78v-282c0 -48 9 -59 46 -59c10 0 18 1 32 3v-98zM237 -205h-140v140h140v-140z" />
    <glyph glyph-name="Tlinebelow" unicode="&#x1e6e;" horiz-adv-x="611" 
d="M598 604h-213v-604h-150v604h-221v125h584v-125zM455 -174h-299v79h299v-79z" />
    <glyph glyph-name="tlinebelow" unicode="&#x1e6f;" horiz-adv-x="333" 
d="M301 0c-25 -1 -50 -4 -81 -4c-92 0 -137 35 -137 120v320h-69v93h69v145h140v-145h78v-93h-78v-282c0 -48 9 -59 46 -59c10 0 18 1 32 3v-98zM315 -174h-299v79h299v-79z" />
    <glyph glyph-name="Wgrave" unicode="&#x1e80;" horiz-adv-x="944" 
d="M932 729l-202 -729h-135l-122 569l-119 -569h-135l-206 729h159l113 -546l113 546h148l118 -547l109 547h159zM525 786h-106l-135 135h165z" />
    <glyph glyph-name="wgrave" unicode="&#x1e81;" horiz-adv-x="778" 
d="M766 540l-153 -540h-145l-81 381l-86 -381h-144l-152 540h145l86 -378l82 378h140l81 -378l82 378h145zM439 598h-100l-126 154h156z" />
    <glyph glyph-name="Wacute" unicode="&#x1e82;" horiz-adv-x="944" 
d="M932 729l-202 -729h-135l-122 569l-119 -569h-135l-206 729h159l113 -546l113 546h148l118 -547l109 547h159zM660 921l-135 -135h-106l76 135h165z" />
    <glyph glyph-name="wacute" unicode="&#x1e83;" horiz-adv-x="778" 
d="M766 540l-153 -540h-145l-81 381l-86 -381h-144l-152 540h145l86 -378l82 378h140l81 -378l82 378h145zM565 752l-126 -154h-100l70 154h156z" />
    <glyph glyph-name="Wdieresis" unicode="&#x1e84;" horiz-adv-x="944" 
d="M932 729l-202 -729h-135l-122 569l-119 -569h-135l-206 729h159l113 -546l113 546h148l118 -547l109 547h159zM438 797h-126v115h126v-115zM633 797h-126v115h126v-115z" />
    <glyph glyph-name="wdieresis" unicode="&#x1e85;" horiz-adv-x="778" 
d="M766 540l-153 -540h-145l-81 381l-86 -381h-144l-152 540h145l86 -378l82 378h140l81 -378l82 378h145zM354 618h-126v115h126v-115zM549 618h-126v115h126v-115z" />
    <glyph glyph-name="Zdotbelow" unicode="&#x1e92;" horiz-adv-x="611" 
d="M578 0h-548v125l373 479h-373v125h548v-125l-372 -479h372v-125zM374 -205h-140v140h140v-140z" />
    <glyph glyph-name="zdotbelow" unicode="&#x1e93;" horiz-adv-x="500" 
d="M468 0h-447v113l267 314h-249v113h420v-113l-265 -314h274v-113zM320 -205h-140v140h140v-140z" />
    <glyph glyph-name="tdieresis" unicode="&#x1e97;" horiz-adv-x="333" 
d="M301 0c-25 -1 -50 -4 -81 -4c-92 0 -137 35 -137 120v320h-69v93h69v145h140v-145h78v-93h-78v-282c0 -48 9 -59 46 -59c10 0 18 1 32 3v-98zM119 742h-126v115h126v-115zM314 742h-126v115h126v-115z" />
    <glyph glyph-name="Adotbelow" unicode="&#x1ea0;" horiz-adv-x="722" 
d="M703 0h-154l-48 147h-273l-49 -147h-153l259 729h166zM460 272l-95 285l-95 -285h190zM431 -205h-140v140h140v-140z" />
    <glyph glyph-name="adotbelow" unicode="&#x1ea1;" 
d="M524 0h-152c-13 16 -16 40 -16 68c-49 -51 -104 -77 -164 -77c-90 0 -164 50 -164 155c0 98 52 144 159 163l56 10c70 12 112 6 112 63c0 36 -27 54 -81 54c-69 0 -92 -18 -99 -74h-135c9 125 85 187 231 187s221 -56 221 -166v-300c0 -28 7 -43 32 -66v-17zM355 231v24
c-16 -8 -22 -10 -59 -17l-48 -9c-58 -11 -80 -26 -80 -67c0 -40 29 -58 76 -58c71 0 111 46 111 127zM341 -205h-140v140h140v-140z" />
    <glyph glyph-name="Ahookabove" unicode="&#x1ea2;" horiz-adv-x="722" 
d="M703 0h-154l-48 147h-273l-49 -147h-153l259 729h166zM460 272l-95 285l-95 -285h190zM480 899c0 -31 -13 -48 -55 -73c-25 -14 -29 -18 -29 -43h-62c0 36 11 55 47 79c23 16 29 21 29 35c0 21 -18 36 -43 36c-27 0 -45 -17 -45 -51h-67c0 75 46 104 111 104
c67 0 114 -36 114 -87z" />
    <glyph glyph-name="ahookabove" unicode="&#x1ea3;" 
d="M524 0h-152c-13 16 -16 40 -16 68c-49 -51 -104 -77 -164 -77c-90 0 -164 50 -164 155c0 98 52 144 159 163l56 10c70 12 112 6 112 63c0 36 -27 54 -81 54c-69 0 -92 -18 -99 -74h-135c9 125 85 187 231 187s221 -56 221 -166v-300c0 -28 7 -43 32 -66v-17zM355 231v24
c-16 -8 -22 -10 -59 -17l-48 -9c-58 -11 -80 -26 -80 -67c0 -40 29 -58 76 -58c71 0 111 46 111 127zM383 710c0 -31 -13 -48 -55 -73c-25 -14 -29 -18 -29 -43h-62c0 36 11 55 47 79c23 16 29 21 29 35c0 21 -18 36 -43 36c-27 0 -45 -17 -45 -51h-67c0 75 46 104 111 104
c67 0 114 -36 114 -87z" />
    <glyph glyph-name="Acircumflexacute" unicode="&#x1ea4;" horiz-adv-x="722" 
d="M703 0h-154l-48 147h-273l-49 -147h-153l259 729h166zM460 272l-95 285l-95 -285h190zM556 1077l-135 -135h-106l76 135h165zM560 787h-94l-98 70l-99 -70h-91l130 135h128z" />
    <glyph glyph-name="acircumflexacute" unicode="&#x1ea5;" 
d="M524 0h-152c-13 16 -16 40 -16 68c-49 -51 -104 -77 -164 -77c-90 0 -164 50 -164 155c0 98 52 144 159 163l56 10c70 12 112 6 112 63c0 36 -27 54 -81 54c-69 0 -92 -18 -99 -74h-135c9 125 85 187 231 187s221 -56 221 -166v-300c0 -28 7 -43 32 -66v-17zM355 231v24
c-16 -8 -22 -10 -59 -17l-48 -9c-58 -11 -80 -26 -80 -67c0 -40 29 -58 76 -58c71 0 111 46 111 127zM459 888l-135 -135h-106l76 135h165zM463 598h-94l-98 70l-99 -70h-91l130 135h128z" />
    <glyph glyph-name="Acircumflexgrave" unicode="&#x1ea6;" horiz-adv-x="722" 
d="M703 0h-154l-48 147h-273l-49 -147h-153l259 729h166zM460 272l-95 285l-95 -285h190zM421 942h-106l-135 135h165zM560 787h-94l-98 70l-99 -70h-91l130 135h128z" />
    <glyph glyph-name="acircumflexgrave" unicode="&#x1ea7;" 
d="M524 0h-152c-13 16 -16 40 -16 68c-49 -51 -104 -77 -164 -77c-90 0 -164 50 -164 155c0 98 52 144 159 163l56 10c70 12 112 6 112 63c0 36 -27 54 -81 54c-69 0 -92 -18 -99 -74h-135c9 125 85 187 231 187s221 -56 221 -166v-300c0 -28 7 -43 32 -66v-17zM355 231v24
c-16 -8 -22 -10 -59 -17l-48 -9c-58 -11 -80 -26 -80 -67c0 -40 29 -58 76 -58c71 0 111 46 111 127zM324 753h-106l-135 135h165zM463 598h-94l-98 70l-99 -70h-91l130 135h128z" />
    <glyph glyph-name="Acircumflexhookabove" unicode="&#x1ea8;" horiz-adv-x="722" 
d="M703 0h-154l-48 147h-273l-49 -147h-153l259 729h166zM460 272l-95 285l-95 -285h190zM560 1046c0 -28 -13 -43 -55 -65c-25 -13 -29 -17 -29 -39h-62c0 32 11 49 47 71c23 14 29 19 29 31c0 19 -18 33 -43 33c-27 0 -45 -15 -45 -46h-67c0 67 46 94 111 94
c67 0 114 -33 114 -79zM560 787h-94l-98 70l-99 -70h-91l130 135h128z" />
    <glyph glyph-name="acircumflexhookabove" unicode="&#x1ea9;" 
d="M524 0h-152c-13 16 -16 40 -16 68c-49 -51 -104 -77 -164 -77c-90 0 -164 50 -164 155c0 98 52 144 159 163l56 10c70 12 112 6 112 63c0 36 -27 54 -81 54c-69 0 -92 -18 -99 -74h-135c9 125 85 187 231 187s221 -56 221 -166v-300c0 -28 7 -43 32 -66v-17zM355 231v24
c-16 -8 -22 -10 -59 -17l-48 -9c-58 -11 -80 -26 -80 -67c0 -40 29 -58 76 -58c71 0 111 46 111 127zM463 857c0 -28 -13 -43 -55 -65c-25 -13 -29 -17 -29 -39h-62c0 32 11 49 47 71c23 14 29 19 29 31c0 19 -18 33 -43 33c-27 0 -45 -15 -45 -46h-67c0 67 46 94 111 94
c67 0 114 -33 114 -79zM463 598h-94l-98 70l-99 -70h-91l130 135h128z" />
    <glyph glyph-name="Acircumflextilde" unicode="&#x1eaa;" horiz-adv-x="722" 
d="M703 0h-154l-48 147h-273l-49 -147h-153l259 729h166zM460 272l-95 285l-95 -285h190zM547 1080c-4 -85 -36 -127 -95 -127c-15 0 -34 4 -55 12l-71 26c-12 4 -21 6 -30 6c-24 0 -35 -13 -40 -45h-63c4 78 39 124 94 124c19 0 20 0 56 -13l71 -25c7 -3 27 -6 34 -6
c21 0 33 16 36 48h63zM560 787h-94l-98 70l-99 -70h-91l130 135h128z" />
    <glyph glyph-name="acircumflextilde" unicode="&#x1eab;" 
d="M524 0h-152c-13 16 -16 40 -16 68c-49 -51 -104 -77 -164 -77c-90 0 -164 50 -164 155c0 98 52 144 159 163l56 10c70 12 112 6 112 63c0 36 -27 54 -81 54c-69 0 -92 -18 -99 -74h-135c9 125 85 187 231 187s221 -56 221 -166v-300c0 -28 7 -43 32 -66v-17zM355 231v24
c-16 -8 -22 -10 -59 -17l-48 -9c-58 -11 -80 -26 -80 -67c0 -40 29 -58 76 -58c71 0 111 46 111 127zM450 891c-4 -85 -36 -127 -95 -127c-15 0 -34 4 -55 12l-71 26c-12 4 -21 6 -30 6c-24 0 -35 -13 -40 -45h-63c4 78 39 124 94 124c19 0 20 0 56 -13l71 -25
c7 -3 27 -6 34 -6c21 0 33 16 36 48h63zM463 598h-94l-98 70l-99 -70h-91l130 135h128z" />
    <glyph glyph-name="Acircumflexdotbelow" unicode="&#x1eac;" horiz-adv-x="722" 
d="M703 0h-154l-48 147h-273l-49 -147h-153l259 729h166zM460 272l-95 285l-95 -285h190zM559 787h-94l-98 70l-99 -70h-91l130 135h128zM431 -205h-140v140h140v-140z" />
    <glyph glyph-name="acircumflexdotbelow" unicode="&#x1ead;" 
d="M524 0h-152c-13 16 -16 40 -16 68c-49 -51 -104 -77 -164 -77c-90 0 -164 50 -164 155c0 98 52 144 159 163l56 10c70 12 112 6 112 63c0 36 -27 54 -81 54c-69 0 -92 -18 -99 -74h-135c9 125 85 187 231 187s221 -56 221 -166v-300c0 -28 7 -43 32 -66v-17zM355 231v24
c-16 -8 -22 -10 -59 -17l-48 -9c-58 -11 -80 -26 -80 -67c0 -40 29 -58 76 -58c71 0 111 46 111 127zM440 598h-88l-82 77l-82 -77h-86l108 154h127zM341 -205h-140v140h140v-140z" />
    <glyph glyph-name="Abreveacute" unicode="&#x1eae;" horiz-adv-x="722" 
d="M703 0h-154l-48 147h-273l-49 -147h-153l259 729h166zM460 272l-95 285l-95 -285h190zM556 1080l-135 -135h-106l76 135h165zM549 915c-8 -80 -71 -122 -182 -122c-101 0 -177 35 -179 122h71c6 -29 42 -40 110 -40c65 0 105 12 109 40h71z" />
    <glyph glyph-name="abreveacute" unicode="&#x1eaf;" 
d="M524 0h-152c-13 16 -16 40 -16 68c-49 -51 -104 -77 -164 -77c-90 0 -164 50 -164 155c0 98 52 144 159 163l56 10c70 12 112 6 112 63c0 36 -27 54 -81 54c-69 0 -92 -18 -99 -74h-135c9 125 85 187 231 187s221 -56 221 -166v-300c0 -28 7 -43 32 -66v-17zM355 231v24
c-16 -8 -22 -10 -59 -17l-48 -9c-58 -11 -80 -26 -80 -67c0 -40 29 -58 76 -58c71 0 111 46 111 127zM459 891l-135 -135h-106l76 135h165zM452 726c-8 -80 -71 -122 -182 -122c-101 0 -177 35 -179 122h71c6 -29 42 -40 110 -40c65 0 105 12 109 40h71z" />
    <glyph glyph-name="Abrevegrave" unicode="&#x1eb0;" horiz-adv-x="722" 
d="M703 0h-154l-48 147h-273l-49 -147h-153l259 729h166zM460 272l-95 285l-95 -285h190zM421 945h-106l-135 135h165zM549 915c-8 -80 -71 -122 -182 -122c-101 0 -177 35 -179 122h71c6 -29 42 -40 110 -40c65 0 105 12 109 40h71z" />
    <glyph glyph-name="abrevegrave" unicode="&#x1eb1;" 
d="M524 0h-152c-13 16 -16 40 -16 68c-49 -51 -104 -77 -164 -77c-90 0 -164 50 -164 155c0 98 52 144 159 163l56 10c70 12 112 6 112 63c0 36 -27 54 -81 54c-69 0 -92 -18 -99 -74h-135c9 125 85 187 231 187s221 -56 221 -166v-300c0 -28 7 -43 32 -66v-17zM355 231v24
c-16 -8 -22 -10 -59 -17l-48 -9c-58 -11 -80 -26 -80 -67c0 -40 29 -58 76 -58c71 0 111 46 111 127zM324 756h-106l-135 135h165zM452 726c-8 -80 -71 -122 -182 -122c-101 0 -177 35 -179 122h71c6 -29 42 -40 110 -40c65 0 105 12 109 40h71z" />
    <glyph glyph-name="Abrevehookabove" unicode="&#x1eb2;" horiz-adv-x="722" 
d="M703 0h-154l-48 147h-273l-49 -147h-153l259 729h166zM460 272l-95 285l-95 -285h190zM481 1009c0 -28 -13 -43 -55 -65c-25 -13 -29 -17 -29 -39h-62c0 32 11 49 47 71c23 14 29 19 29 31c0 19 -18 33 -43 33c-27 0 -45 -15 -45 -46h-67c0 67 46 94 111 94
c67 0 114 -33 114 -79zM549 915c-8 -80 -71 -122 -182 -122c-101 0 -177 35 -179 122h71c6 -29 42 -40 110 -40c65 0 105 12 109 40h71z" />
    <glyph glyph-name="abrevehookabove" unicode="&#x1eb3;" 
d="M524 0h-152c-13 16 -16 40 -16 68c-49 -51 -104 -77 -164 -77c-90 0 -164 50 -164 155c0 98 52 144 159 163l56 10c70 12 112 6 112 63c0 36 -27 54 -81 54c-69 0 -92 -18 -99 -74h-135c9 125 85 187 231 187s221 -56 221 -166v-300c0 -28 7 -43 32 -66v-17zM355 231v24
c-16 -8 -22 -10 -59 -17l-48 -9c-58 -11 -80 -26 -80 -67c0 -40 29 -58 76 -58c71 0 111 46 111 127zM384 820c0 -28 -13 -43 -55 -65c-25 -13 -29 -17 -29 -39h-62c0 32 11 49 47 71c23 14 29 19 29 31c0 19 -18 33 -43 33c-27 0 -45 -15 -45 -46h-67c0 67 46 94 111 94
c67 0 114 -33 114 -79zM452 726c-8 -80 -71 -122 -182 -122c-101 0 -177 35 -179 122h71c6 -29 42 -40 110 -40c65 0 105 12 109 40h71z" />
    <glyph glyph-name="Abrevetilde" unicode="&#x1eb4;" horiz-adv-x="722" 
d="M703 0h-154l-48 147h-273l-49 -147h-153l259 729h166zM460 272l-95 285l-95 -285h190zM547 1083c-4 -85 -36 -127 -95 -127c-15 0 -34 4 -55 12l-71 26c-12 4 -21 6 -30 6c-24 0 -35 -13 -40 -45h-63c4 78 39 124 94 124c19 0 20 0 56 -13l71 -25c7 -3 27 -6 34 -6
c21 0 33 16 36 48h63zM549 915c-8 -80 -71 -122 -182 -122c-101 0 -177 35 -179 122h71c6 -29 42 -40 110 -40c65 0 105 12 109 40h71z" />
    <glyph glyph-name="abrevetilde" unicode="&#x1eb5;" 
d="M524 0h-152c-13 16 -16 40 -16 68c-49 -51 -104 -77 -164 -77c-90 0 -164 50 -164 155c0 98 52 144 159 163l56 10c70 12 112 6 112 63c0 36 -27 54 -81 54c-69 0 -92 -18 -99 -74h-135c9 125 85 187 231 187s221 -56 221 -166v-300c0 -28 7 -43 32 -66v-17zM355 231v24
c-16 -8 -22 -10 -59 -17l-48 -9c-58 -11 -80 -26 -80 -67c0 -40 29 -58 76 -58c71 0 111 46 111 127zM450 894c-4 -85 -36 -127 -95 -127c-15 0 -34 4 -55 12l-71 26c-12 4 -21 6 -30 6c-24 0 -35 -13 -40 -45h-63c4 78 39 124 94 124c19 0 20 0 56 -13l71 -25
c7 -3 27 -6 34 -6c21 0 33 16 36 48h63zM452 726c-8 -80 -71 -122 -182 -122c-101 0 -177 35 -179 122h71c6 -29 42 -40 110 -40c65 0 105 12 109 40h71z" />
    <glyph glyph-name="Abrevedotbelow" unicode="&#x1eb6;" horiz-adv-x="722" 
d="M703 0h-154l-48 147h-273l-49 -147h-153l259 729h166zM460 272l-95 285l-95 -285h190zM548 915c-8 -80 -71 -122 -182 -122c-101 0 -177 35 -179 122h71c6 -29 42 -40 110 -40c65 0 105 12 109 40h71zM431 -205h-140v140h140v-140z" />
    <glyph glyph-name="abrevedotbelow" unicode="&#x1eb7;" 
d="M524 0h-152c-13 16 -16 40 -16 68c-49 -51 -104 -77 -164 -77c-90 0 -164 50 -164 155c0 98 52 144 159 163l56 10c70 12 112 6 112 63c0 36 -27 54 -81 54c-69 0 -92 -18 -99 -74h-135c9 125 85 187 231 187s221 -56 221 -166v-300c0 -28 7 -43 32 -66v-17zM355 231v24
c-16 -8 -22 -10 -59 -17l-48 -9c-58 -11 -80 -26 -80 -67c0 -40 29 -58 76 -58c71 0 111 46 111 127zM432 751c0 -84 -80 -151 -164 -151s-164 67 -164 151h80c0 -43 39 -64 84 -64s84 21 84 64h80zM341 -205h-140v140h140v-140z" />
    <glyph glyph-name="Edotbelow" unicode="&#x1eb8;" horiz-adv-x="667" 
d="M624 0h-545v729h527v-125h-377v-165h349v-125h-349v-189h395v-125zM404 -205h-140v140h140v-140z" />
    <glyph glyph-name="edotbelow" unicode="&#x1eb9;" 
d="M525 250l-1 -17h-362c4 -105 46 -135 112 -135c51 0 95 15 107 54h138c-31 -106 -129 -161 -250 -161c-153 0 -247 99 -247 272c0 181 95 286 250 286c159 0 253 -113 253 -299zM379 326c-7 77 -49 116 -109 116c-62 0 -97 -41 -106 -116h215zM342 -205h-140v140h140
v-140z" />
    <glyph glyph-name="Ehookabove" unicode="&#x1eba;" horiz-adv-x="667" 
d="M624 0h-545v729h527v-125h-377v-165h349v-125h-349v-189h395v-125zM455 899c0 -31 -13 -48 -55 -73c-25 -14 -29 -18 -29 -43h-62c0 36 11 55 47 79c23 16 29 21 29 35c0 21 -18 36 -43 36c-27 0 -45 -17 -45 -51h-67c0 75 46 104 111 104c67 0 114 -36 114 -87z" />
    <glyph glyph-name="ehookabove" unicode="&#x1ebb;" 
d="M525 250l-1 -17h-362c4 -105 46 -135 112 -135c51 0 95 15 107 54h138c-31 -106 -129 -161 -250 -161c-153 0 -247 99 -247 272c0 181 95 286 250 286c159 0 253 -113 253 -299zM379 326c-7 77 -49 116 -109 116c-62 0 -97 -41 -106 -116h215zM384 710
c0 -31 -13 -48 -55 -73c-25 -14 -29 -18 -29 -43h-62c0 36 11 55 47 79c23 16 29 21 29 35c0 21 -18 36 -43 36c-27 0 -45 -17 -45 -51h-67c0 75 46 104 111 104c67 0 114 -36 114 -87z" />
    <glyph glyph-name="Etilde" unicode="&#x1ebc;" horiz-adv-x="667" 
d="M624 0h-545v729h527v-125h-377v-165h349v-125h-349v-189h395v-125zM522 918c-4 -85 -36 -127 -95 -127c-15 0 -34 4 -55 12l-71 26c-12 4 -21 6 -30 6c-24 0 -35 -13 -40 -45h-63c4 78 39 124 94 124c19 0 20 0 56 -13l71 -25c7 -3 27 -6 34 -6c21 0 33 16 36 48h63z" />
    <glyph glyph-name="etilde" unicode="&#x1ebd;" 
d="M525 250l-1 -17h-362c4 -105 46 -135 112 -135c51 0 95 15 107 54h138c-31 -106 -129 -161 -250 -161c-153 0 -247 99 -247 272c0 181 95 286 250 286c159 0 253 -113 253 -299zM379 326c-7 77 -49 116 -109 116c-62 0 -97 -41 -106 -116h215zM450 739
c-4 -85 -36 -127 -95 -127c-15 0 -34 4 -55 12l-71 26c-12 4 -21 6 -30 6c-24 0 -35 -13 -40 -45h-63c4 78 39 124 94 124c19 0 20 0 56 -13l71 -25c7 -3 27 -6 34 -6c21 0 33 16 36 48h63z" />
    <glyph glyph-name="Ecircumflexacute" unicode="&#x1ebe;" horiz-adv-x="667" 
d="M624 0h-545v729h527v-125h-377v-165h349v-125h-349v-189h395v-125zM531 1077l-135 -135h-106l76 135h165zM535 787h-94l-98 70l-99 -70h-91l130 135h128z" />
    <glyph glyph-name="ecircumflexacute" unicode="&#x1ebf;" 
d="M525 250l-1 -17h-362c4 -105 46 -135 112 -135c51 0 95 15 107 54h138c-31 -106 -129 -161 -250 -161c-153 0 -247 99 -247 272c0 181 95 286 250 286c159 0 253 -113 253 -299zM379 326c-7 77 -49 116 -109 116c-62 0 -97 -41 -106 -116h215zM460 888l-135 -135h-106
l76 135h165zM464 598h-94l-98 70l-99 -70h-91l130 135h128z" />
    <glyph glyph-name="Ecircumflexgrave" unicode="&#x1ec0;" horiz-adv-x="667" 
d="M624 0h-545v729h527v-125h-377v-165h349v-125h-349v-189h395v-125zM396 942h-106l-135 135h165zM535 787h-94l-98 70l-99 -70h-91l130 135h128z" />
    <glyph glyph-name="ecircumflexgrave" unicode="&#x1ec1;" 
d="M525 250l-1 -17h-362c4 -105 46 -135 112 -135c51 0 95 15 107 54h138c-31 -106 -129 -161 -250 -161c-153 0 -247 99 -247 272c0 181 95 286 250 286c159 0 253 -113 253 -299zM379 326c-7 77 -49 116 -109 116c-62 0 -97 -41 -106 -116h215zM325 753h-106l-135 135h165
zM464 598h-94l-98 70l-99 -70h-91l130 135h128z" />
    <glyph glyph-name="Ecircumflexhookabove" unicode="&#x1ec2;" horiz-adv-x="667" 
d="M624 0h-545v729h527v-125h-377v-165h349v-125h-349v-189h395v-125zM535 1046c0 -28 -13 -43 -55 -65c-25 -13 -29 -17 -29 -39h-62c0 32 11 49 47 71c23 14 29 19 29 31c0 19 -18 33 -43 33c-27 0 -45 -15 -45 -46h-67c0 67 46 94 111 94c67 0 114 -33 114 -79zM535 787
h-94l-98 70l-99 -70h-91l130 135h128z" />
    <glyph glyph-name="ecircumflexhookabove" unicode="&#x1ec3;" 
d="M525 250l-1 -17h-362c4 -105 46 -135 112 -135c51 0 95 15 107 54h138c-31 -106 -129 -161 -250 -161c-153 0 -247 99 -247 272c0 181 95 286 250 286c159 0 253 -113 253 -299zM379 326c-7 77 -49 116 -109 116c-62 0 -97 -41 -106 -116h215zM464 857
c0 -28 -13 -43 -55 -65c-25 -13 -29 -17 -29 -39h-62c0 32 11 49 47 71c23 14 29 19 29 31c0 19 -18 33 -43 33c-27 0 -45 -15 -45 -46h-67c0 67 46 94 111 94c67 0 114 -33 114 -79zM464 598h-94l-98 70l-99 -70h-91l130 135h128z" />
    <glyph glyph-name="Ecircumflextilde" unicode="&#x1ec4;" horiz-adv-x="667" 
d="M624 0h-545v729h527v-125h-377v-165h349v-125h-349v-189h395v-125zM522 1080c-4 -85 -36 -127 -95 -127c-15 0 -34 4 -55 12l-71 26c-12 4 -21 6 -30 6c-24 0 -35 -13 -40 -45h-63c4 78 39 124 94 124c19 0 20 0 56 -13l71 -25c7 -3 27 -6 34 -6c21 0 33 16 36 48h63z
M535 787h-94l-98 70l-99 -70h-91l130 135h128z" />
    <glyph glyph-name="ecircumflextilde" unicode="&#x1ec5;" 
d="M525 250l-1 -17h-362c4 -105 46 -135 112 -135c51 0 95 15 107 54h138c-31 -106 -129 -161 -250 -161c-153 0 -247 99 -247 272c0 181 95 286 250 286c159 0 253 -113 253 -299zM379 326c-7 77 -49 116 -109 116c-62 0 -97 -41 -106 -116h215zM451 891
c-4 -85 -36 -127 -95 -127c-15 0 -34 4 -55 12l-71 26c-12 4 -21 6 -30 6c-24 0 -35 -13 -40 -45h-63c4 78 39 124 94 124c19 0 20 0 56 -13l71 -25c7 -3 27 -6 34 -6c21 0 33 16 36 48h63zM464 598h-94l-98 70l-99 -70h-91l130 135h128z" />
    <glyph glyph-name="Ecircumflexdotbelow" unicode="&#x1ec6;" horiz-adv-x="667" 
d="M624 0h-545v729h527v-125h-377v-165h349v-125h-349v-189h395v-125zM534 787h-94l-98 70l-99 -70h-91l130 135h128zM404 -205h-140v140h140v-140z" />
    <glyph glyph-name="ecircumflexdotbelow" unicode="&#x1ec7;" 
d="M525 250l-1 -17h-362c4 -105 46 -135 112 -135c51 0 95 15 107 54h138c-31 -106 -129 -161 -250 -161c-153 0 -247 99 -247 272c0 181 95 286 250 286c159 0 253 -113 253 -299zM379 326c-7 77 -49 116 -109 116c-62 0 -97 -41 -106 -116h215zM441 598h-88l-82 77
l-82 -77h-86l108 154h127zM342 -205h-140v140h140v-140z" />
    <glyph glyph-name="Ihookabove" unicode="&#x1ec8;" horiz-adv-x="278" 
d="M213 0h-150v729h150v-729zM250 899c0 -31 -13 -48 -55 -73c-25 -14 -29 -18 -29 -43h-62c0 36 11 55 47 79c23 16 29 21 29 35c0 21 -18 36 -43 36c-27 0 -45 -17 -45 -51h-67c0 75 46 104 111 104c67 0 114 -36 114 -87z" />
    <glyph glyph-name="ihookabove" unicode="&#x1ec9;" horiz-adv-x="278" 
d="M207 0h-140v540h140v-540zM251 710c0 -31 -13 -48 -55 -73c-25 -14 -29 -18 -29 -43h-62c0 36 11 55 47 79c23 16 29 21 29 35c0 21 -18 36 -43 36c-27 0 -45 -17 -45 -51h-67c0 75 46 104 111 104c67 0 114 -36 114 -87z" />
    <glyph glyph-name="Idotbelow" unicode="&#x1eca;" horiz-adv-x="278" 
d="M213 0h-150v729h150v-729zM208 -205h-140v140h140v-140z" />
    <glyph glyph-name="idotbelow" unicode="&#x1ecb;" horiz-adv-x="278" 
d="M207 0h-140v540h140v-540zM209 605h-140v140h140v-140zM209 -205h-140v140h140v-140z" />
    <glyph glyph-name="Odotbelow" unicode="&#x1ecc;" horiz-adv-x="778" 
d="M742 360c0 -213 -139 -372 -351 -372c-214 0 -351 159 -351 377c0 209 136 376 350 376c213 0 352 -161 352 -381zM592 361c0 152 -78 252 -201 252c-121 0 -201 -101 -201 -248c0 -153 80 -249 201 -249c120 0 201 96 201 245zM460 -205h-140v140h140v-140z" />
    <glyph glyph-name="odotbelow" unicode="&#x1ecd;" horiz-adv-x="611" 
d="M569 266c0 -173 -103 -275 -267 -275c-166 0 -267 101 -267 279c0 177 101 279 266 279c169 0 268 -100 268 -283zM429 268c0 106 -50 168 -127 168c-76 0 -127 -63 -127 -166s51 -166 127 -166c75 0 127 63 127 164zM376 -205h-140v140h140v-140z" />
    <glyph glyph-name="Ohookabove" unicode="&#x1ece;" horiz-adv-x="778" 
d="M742 360c0 -213 -139 -372 -351 -372c-214 0 -351 159 -351 377c0 209 136 376 350 376c213 0 352 -161 352 -381zM592 361c0 152 -78 252 -201 252c-121 0 -201 -101 -201 -248c0 -153 80 -249 201 -249c120 0 201 96 201 245zM502 899c0 -31 -13 -48 -55 -73
c-25 -14 -29 -18 -29 -43h-62c0 36 11 55 47 79c23 16 29 21 29 35c0 21 -18 36 -43 36c-27 0 -45 -17 -45 -51h-67c0 75 46 104 111 104c67 0 114 -36 114 -87z" />
    <glyph glyph-name="ohookabove" unicode="&#x1ecf;" horiz-adv-x="611" 
d="M569 266c0 -173 -103 -275 -267 -275c-166 0 -267 101 -267 279c0 177 101 279 266 279c169 0 268 -100 268 -283zM429 268c0 106 -50 168 -127 168c-76 0 -127 -63 -127 -166s51 -166 127 -166c75 0 127 63 127 164zM418 710c0 -31 -13 -48 -55 -73
c-25 -14 -29 -18 -29 -43h-62c0 36 11 55 47 79c23 16 29 21 29 35c0 21 -18 36 -43 36c-27 0 -45 -17 -45 -51h-67c0 75 46 104 111 104c67 0 114 -36 114 -87z" />
    <glyph glyph-name="Ocircumflexacute" unicode="&#x1ed0;" horiz-adv-x="778" 
d="M742 360c0 -213 -139 -372 -351 -372c-214 0 -351 159 -351 377c0 209 136 376 350 376c213 0 352 -161 352 -381zM592 361c0 152 -78 252 -201 252c-121 0 -201 -101 -201 -248c0 -153 80 -249 201 -249c120 0 201 96 201 245zM578 1077l-135 -135h-106l76 135h165z
M582 787h-94l-98 70l-99 -70h-91l130 135h128z" />
    <glyph glyph-name="ocircumflexacute" unicode="&#x1ed1;" horiz-adv-x="611" 
d="M569 266c0 -173 -103 -275 -267 -275c-166 0 -267 101 -267 279c0 177 101 279 266 279c169 0 268 -100 268 -283zM429 268c0 106 -50 168 -127 168c-76 0 -127 -63 -127 -166s51 -166 127 -166c75 0 127 63 127 164zM493 888l-135 -135h-106l76 135h165zM497 598h-94
l-98 70l-99 -70h-91l130 135h128z" />
    <glyph glyph-name="Ocircumflexgrave" unicode="&#x1ed2;" horiz-adv-x="778" 
d="M742 360c0 -213 -139 -372 -351 -372c-214 0 -351 159 -351 377c0 209 136 376 350 376c213 0 352 -161 352 -381zM592 361c0 152 -78 252 -201 252c-121 0 -201 -101 -201 -248c0 -153 80 -249 201 -249c120 0 201 96 201 245zM443 942h-106l-135 135h165zM582 787h-94
l-98 70l-99 -70h-91l130 135h128z" />
    <glyph glyph-name="ocircumflexgrave" unicode="&#x1ed3;" horiz-adv-x="611" 
d="M569 266c0 -173 -103 -275 -267 -275c-166 0 -267 101 -267 279c0 177 101 279 266 279c169 0 268 -100 268 -283zM429 268c0 106 -50 168 -127 168c-76 0 -127 -63 -127 -166s51 -166 127 -166c75 0 127 63 127 164zM358 753h-106l-135 135h165zM497 598h-94l-98 70
l-99 -70h-91l130 135h128z" />
    <glyph glyph-name="Ocircumflexhookabove" unicode="&#x1ed4;" horiz-adv-x="778" 
d="M742 360c0 -213 -139 -372 -351 -372c-214 0 -351 159 -351 377c0 209 136 376 350 376c213 0 352 -161 352 -381zM592 361c0 152 -78 252 -201 252c-121 0 -201 -101 -201 -248c0 -153 80 -249 201 -249c120 0 201 96 201 245zM582 1046c0 -28 -13 -43 -55 -65
c-25 -13 -29 -17 -29 -39h-62c0 32 11 49 47 71c23 14 29 19 29 31c0 19 -18 33 -43 33c-27 0 -45 -15 -45 -46h-67c0 67 46 94 111 94c67 0 114 -33 114 -79zM582 787h-94l-98 70l-99 -70h-91l130 135h128z" />
    <glyph glyph-name="ocircumflexhookabove" unicode="&#x1ed5;" horiz-adv-x="611" 
d="M569 266c0 -173 -103 -275 -267 -275c-166 0 -267 101 -267 279c0 177 101 279 266 279c169 0 268 -100 268 -283zM429 268c0 106 -50 168 -127 168c-76 0 -127 -63 -127 -166s51 -166 127 -166c75 0 127 63 127 164zM497 857c0 -28 -13 -43 -55 -65
c-25 -13 -29 -17 -29 -39h-62c0 32 11 49 47 71c23 14 29 19 29 31c0 19 -18 33 -43 33c-27 0 -45 -15 -45 -46h-67c0 67 46 94 111 94c67 0 114 -33 114 -79zM497 598h-94l-98 70l-99 -70h-91l130 135h128z" />
    <glyph glyph-name="Ocircumflextilde" unicode="&#x1ed6;" horiz-adv-x="778" 
d="M742 360c0 -213 -139 -372 -351 -372c-214 0 -351 159 -351 377c0 209 136 376 350 376c213 0 352 -161 352 -381zM592 361c0 152 -78 252 -201 252c-121 0 -201 -101 -201 -248c0 -153 80 -249 201 -249c120 0 201 96 201 245zM569 1080c-4 -85 -36 -127 -95 -127
c-15 0 -34 4 -55 12l-71 26c-12 4 -21 6 -30 6c-24 0 -35 -13 -40 -45h-63c4 78 39 124 94 124c19 0 20 0 56 -13l71 -25c7 -3 27 -6 34 -6c21 0 33 16 36 48h63zM582 787h-94l-98 70l-99 -70h-91l130 135h128z" />
    <glyph glyph-name="ocircumflextilde" unicode="&#x1ed7;" horiz-adv-x="611" 
d="M569 266c0 -173 -103 -275 -267 -275c-166 0 -267 101 -267 279c0 177 101 279 266 279c169 0 268 -100 268 -283zM429 268c0 106 -50 168 -127 168c-76 0 -127 -63 -127 -166s51 -166 127 -166c75 0 127 63 127 164zM484 891c-4 -85 -36 -127 -95 -127
c-15 0 -34 4 -55 12l-71 26c-12 4 -21 6 -30 6c-24 0 -35 -13 -40 -45h-63c4 78 39 124 94 124c19 0 20 0 56 -13l71 -25c7 -3 27 -6 34 -6c21 0 33 16 36 48h63zM497 598h-94l-98 70l-99 -70h-91l130 135h128z" />
    <glyph glyph-name="Ocircumflexdotbelow" unicode="&#x1ed8;" horiz-adv-x="778" 
d="M742 360c0 -213 -139 -372 -351 -372c-214 0 -351 159 -351 377c0 209 136 376 350 376c213 0 352 -161 352 -381zM592 361c0 152 -78 252 -201 252c-121 0 -201 -101 -201 -248c0 -153 80 -249 201 -249c120 0 201 96 201 245zM581 787h-94l-98 70l-99 -70h-91l130 135
h128zM460 -205h-140v140h140v-140z" />
    <glyph glyph-name="ocircumflexdotbelow" unicode="&#x1ed9;" horiz-adv-x="611" 
d="M569 266c0 -173 -103 -275 -267 -275c-166 0 -267 101 -267 279c0 177 101 279 266 279c169 0 268 -100 268 -283zM429 268c0 106 -50 168 -127 168c-76 0 -127 -63 -127 -166s51 -166 127 -166c75 0 127 63 127 164zM475 598h-88l-82 77l-82 -77h-86l108 154h127z
M376 -205h-140v140h140v-140z" />
    <glyph glyph-name="Ohornacute" unicode="&#x1eda;" horiz-adv-x="812" 
d="M789 745c0 -97 -43 -156 -91 -190c28 -59 44 -120 44 -194c0 -103 -39 -209 -102 -276c-63 -68 -145 -94 -249 -94s-186 26 -249 94c-65 69 -102 172 -102 281s37 204 102 274c62 67 146 101 248 101c105 0 186 -32 250 -101c8 -9 16 -18 23 -28c31 26 56 66 56 117h-65
v125h135v-109zM592 362c0 158 -78 251 -201 251c-121 0 -201 -94 -201 -247s80 -247 201 -247c120 0 201 94 201 243zM579 921l-135 -135h-106l76 135h165z" />
    <glyph glyph-name="ohornacute" unicode="&#x1edb;" horiz-adv-x="680" 
d="M650 556c0 -99 -44 -158 -94 -192c9 -32 13 -60 13 -98c0 -173 -103 -275 -267 -275c-166 0 -267 101 -267 279c0 177 101 279 266 279c106 0 185 -43 229 -120c28 26 50 63 50 111h-65v125h135v-109zM429 268c0 106 -50 168 -127 168c-76 0 -127 -63 -127 -166
s51 -166 127 -166c75 0 127 63 127 164zM478 752l-126 -154h-100l70 154h156z" />
    <glyph glyph-name="Ohorngrave" unicode="&#x1edc;" horiz-adv-x="812" 
d="M789 745c0 -97 -43 -156 -91 -190c28 -59 44 -120 44 -194c0 -103 -39 -209 -102 -276c-63 -68 -145 -94 -249 -94s-186 26 -249 94c-65 69 -102 172 -102 281s37 204 102 274c62 67 146 101 248 101c105 0 186 -32 250 -101c8 -9 16 -18 23 -28c31 26 56 66 56 117h-65
v125h135v-109zM592 362c0 158 -78 251 -201 251c-121 0 -201 -94 -201 -247s80 -247 201 -247c120 0 201 94 201 243zM444 786h-106l-135 135h165z" />
    <glyph glyph-name="ohorngrave" unicode="&#x1edd;" horiz-adv-x="680" 
d="M650 556c0 -99 -44 -158 -94 -192c9 -32 13 -60 13 -98c0 -173 -103 -275 -267 -275c-166 0 -267 101 -267 279c0 177 101 279 266 279c106 0 185 -43 229 -120c28 26 50 63 50 111h-65v125h135v-109zM429 268c0 106 -50 168 -127 168c-76 0 -127 -63 -127 -166
s51 -166 127 -166c75 0 127 63 127 164zM352 598h-100l-126 154h156z" />
    <glyph glyph-name="Ohornhookabove" unicode="&#x1ede;" horiz-adv-x="812" 
d="M789 745c0 -97 -43 -156 -91 -190c28 -59 44 -120 44 -194c0 -103 -39 -209 -102 -276c-63 -68 -145 -94 -249 -94s-186 26 -249 94c-65 69 -102 172 -102 281s37 204 102 274c62 67 146 101 248 101c105 0 186 -32 250 -101c8 -9 16 -18 23 -28c31 26 56 66 56 117h-65
v125h135v-109zM592 362c0 158 -78 251 -201 251c-121 0 -201 -94 -201 -247s80 -247 201 -247c120 0 201 94 201 243zM503 899c0 -31 -13 -48 -55 -73c-25 -14 -29 -18 -29 -43h-62c0 36 11 55 47 79c23 16 29 21 29 35c0 21 -18 36 -43 36c-27 0 -45 -17 -45 -51h-67
c0 75 46 104 111 104c67 0 114 -36 114 -87z" />
    <glyph glyph-name="ohornhookabove" unicode="&#x1edf;" horiz-adv-x="680" 
d="M650 556c0 -99 -44 -158 -94 -192c9 -32 13 -60 13 -98c0 -173 -103 -275 -267 -275c-166 0 -267 101 -267 279c0 177 101 279 266 279c106 0 185 -43 229 -120c28 26 50 63 50 111h-65v125h135v-109zM429 268c0 106 -50 168 -127 168c-76 0 -127 -63 -127 -166
s51 -166 127 -166c75 0 127 63 127 164zM414 710c0 -31 -13 -48 -55 -73c-25 -14 -29 -18 -29 -43h-62c0 36 11 55 47 79c23 16 29 21 29 35c0 21 -18 36 -43 36c-27 0 -45 -17 -45 -51h-67c0 75 46 104 111 104c67 0 114 -36 114 -87z" />
    <glyph glyph-name="Ohorntilde" unicode="&#x1ee0;" horiz-adv-x="812" 
d="M789 745c0 -97 -43 -156 -91 -190c28 -59 44 -120 44 -194c0 -103 -39 -209 -102 -276c-63 -68 -145 -94 -249 -94s-186 26 -249 94c-65 69 -102 172 -102 281s37 204 102 274c62 67 146 101 248 101c105 0 186 -32 250 -101c8 -9 16 -18 23 -28c31 26 56 66 56 117h-65
v125h135v-109zM592 362c0 158 -78 251 -201 251c-121 0 -201 -94 -201 -247s80 -247 201 -247c120 0 201 94 201 243zM570 918c-4 -85 -36 -127 -95 -127c-15 0 -34 4 -55 12l-71 26c-12 4 -21 6 -30 6c-24 0 -35 -13 -40 -45h-63c4 78 39 124 94 124c19 0 20 0 56 -13
l71 -25c7 -3 27 -6 34 -6c21 0 33 16 36 48h63z" />
    <glyph glyph-name="ohorntilde" unicode="&#x1ee1;" horiz-adv-x="680" 
d="M650 556c0 -99 -44 -158 -94 -192c9 -32 13 -60 13 -98c0 -173 -103 -275 -267 -275c-166 0 -267 101 -267 279c0 177 101 279 266 279c106 0 185 -43 229 -120c28 26 50 63 50 111h-65v125h135v-109zM429 268c0 106 -50 168 -127 168c-76 0 -127 -63 -127 -166
s51 -166 127 -166c75 0 127 63 127 164zM480 739c-4 -85 -36 -127 -95 -127c-15 0 -34 4 -55 12l-71 26c-12 4 -21 6 -30 6c-24 0 -35 -13 -40 -45h-63c4 78 39 124 94 124c19 0 20 0 56 -13l71 -25c7 -3 27 -6 34 -6c21 0 33 16 36 48h63z" />
    <glyph glyph-name="Ohorndotbelow" unicode="&#x1ee2;" horiz-adv-x="812" 
d="M789 745c0 -97 -43 -156 -91 -190c28 -59 44 -120 44 -194c0 -103 -39 -209 -102 -276c-63 -68 -145 -94 -249 -94s-186 26 -249 94c-65 69 -102 172 -102 281s37 204 102 274c62 67 146 101 248 101c105 0 186 -32 250 -101c8 -9 16 -18 23 -28c31 26 56 66 56 117h-65
v125h135v-109zM592 362c0 158 -78 251 -201 251c-121 0 -201 -94 -201 -247s80 -247 201 -247c120 0 201 94 201 243zM461 -205h-140v140h140v-140z" />
    <glyph glyph-name="ohorndotbelow" unicode="&#x1ee3;" horiz-adv-x="680" 
d="M650 556c0 -99 -44 -158 -94 -192c9 -32 13 -60 13 -98c0 -173 -103 -275 -267 -275c-166 0 -267 101 -267 279c0 177 101 279 266 279c106 0 185 -43 229 -120c28 26 50 63 50 111h-65v125h135v-109zM429 268c0 106 -50 168 -127 168c-76 0 -127 -63 -127 -166
s51 -166 127 -166c75 0 127 63 127 164zM372 -205h-140v140h140v-140z" />
    <glyph glyph-name="Udotbelow" unicode="&#x1ee4;" horiz-adv-x="722" 
d="M654 246c0 -172 -122 -258 -289 -258s-289 86 -289 258v483h150v-483c0 -88 45 -130 139 -130s139 42 139 130v483h150v-483zM431 -205h-140v140h140v-140z" />
    <glyph glyph-name="udotbelow" unicode="&#x1ee5;" horiz-adv-x="611" 
d="M541 0h-140v71c-40 -53 -89 -80 -162 -80c-115 0 -181 68 -181 187v362h140v-333c0 -65 30 -97 90 -97c68 0 113 42 113 106v324h140v-540zM376 -205h-140v140h140v-140z" />
    <glyph glyph-name="Uhookabove" unicode="&#x1ee6;" horiz-adv-x="722" 
d="M654 246c0 -172 -122 -258 -289 -258s-289 86 -289 258v483h150v-483c0 -88 45 -130 139 -130s139 42 139 130v483h150v-483zM473 899c0 -31 -13 -48 -55 -73c-25 -14 -29 -18 -29 -43h-62c0 36 11 55 47 79c23 16 29 21 29 35c0 21 -18 36 -43 36c-27 0 -45 -17 -45 -51
h-67c0 75 46 104 111 104c67 0 114 -36 114 -87z" />
    <glyph glyph-name="uhookabove" unicode="&#x1ee7;" horiz-adv-x="611" 
d="M541 0h-140v71c-40 -53 -89 -80 -162 -80c-115 0 -181 68 -181 187v362h140v-333c0 -65 30 -97 90 -97c68 0 113 42 113 106v324h140v-540zM418 710c0 -31 -13 -48 -55 -73c-25 -14 -29 -18 -29 -43h-62c0 36 11 55 47 79c23 16 29 21 29 35c0 21 -18 36 -43 36
c-27 0 -45 -17 -45 -51h-67c0 75 46 104 111 104c67 0 114 -36 114 -87z" />
    <glyph glyph-name="Uhornacute" unicode="&#x1ee8;" horiz-adv-x="829" 
d="M813 744c0 -143 -92 -203 -159 -225v-270c0 -82 -22 -140 -71 -184c-53 -48 -130 -74 -218 -74s-165 26 -218 74c-49 44 -71 102 -71 184v480h150v-480c0 -88 45 -130 139 -130s139 42 139 130v480h150v-141c43 24 89 71 89 140h-65v125h135v-109zM553 921l-135 -135
h-106l76 135h165z" />
    <glyph glyph-name="uhornacute" unicode="&#x1ee9;" horiz-adv-x="720" 
d="M703 556c0 -145 -95 -204 -162 -226v-330h-140v78c-40 -60 -89 -87 -162 -87c-115 0 -181 68 -181 187v362h140v-333c0 -65 30 -97 90 -97c68 0 113 42 113 106v324h140v-142c44 23 92 72 92 142h-65v125h135v-109zM476 752l-126 -154h-100l70 154h156z" />
    <glyph glyph-name="Uhorngrave" unicode="&#x1eea;" horiz-adv-x="829" 
d="M813 744c0 -143 -92 -203 -159 -225v-270c0 -82 -22 -140 -71 -184c-53 -48 -130 -74 -218 -74s-165 26 -218 74c-49 44 -71 102 -71 184v480h150v-480c0 -88 45 -130 139 -130s139 42 139 130v480h150v-141c43 24 89 71 89 140h-65v125h135v-109zM418 786h-106l-135 135
h165z" />
    <glyph glyph-name="uhorngrave" unicode="&#x1eeb;" horiz-adv-x="720" 
d="M703 556c0 -145 -95 -204 -162 -226v-330h-140v78c-40 -60 -89 -87 -162 -87c-115 0 -181 68 -181 187v362h140v-333c0 -65 30 -97 90 -97c68 0 113 42 113 106v324h140v-142c44 23 92 72 92 142h-65v125h135v-109zM350 598h-100l-126 154h156z" />
    <glyph glyph-name="Uhornhookabove" unicode="&#x1eec;" horiz-adv-x="829" 
d="M813 744c0 -143 -92 -203 -159 -225v-270c0 -82 -22 -140 -71 -184c-53 -48 -130 -74 -218 -74s-165 26 -218 74c-49 44 -71 102 -71 184v480h150v-480c0 -88 45 -130 139 -130s139 42 139 130v480h150v-141c43 24 89 71 89 140h-65v125h135v-109zM477 899
c0 -31 -13 -48 -55 -73c-25 -14 -29 -18 -29 -43h-62c0 36 11 55 47 79c23 16 29 21 29 35c0 21 -18 36 -43 36c-27 0 -45 -17 -45 -51h-67c0 75 46 104 111 104c67 0 114 -36 114 -87z" />
    <glyph glyph-name="uhornhookabove" unicode="&#x1eed;" horiz-adv-x="720" 
d="M703 556c0 -145 -95 -204 -162 -226v-330h-140v78c-40 -60 -89 -87 -162 -87c-115 0 -181 68 -181 187v362h140v-333c0 -65 30 -97 90 -97c68 0 113 42 113 106v324h140v-142c44 23 92 72 92 142h-65v125h135v-109zM412 710c0 -31 -13 -48 -55 -73
c-25 -14 -29 -18 -29 -43h-62c0 36 11 55 47 79c23 16 29 21 29 35c0 21 -18 36 -43 36c-27 0 -45 -17 -45 -51h-67c0 75 46 104 111 104c67 0 114 -36 114 -87z" />
    <glyph glyph-name="Uhorntilde" unicode="&#x1eee;" horiz-adv-x="829" 
d="M813 744c0 -143 -92 -203 -159 -225v-270c0 -82 -22 -140 -71 -184c-53 -48 -130 -74 -218 -74s-165 26 -218 74c-49 44 -71 102 -71 184v480h150v-480c0 -88 45 -130 139 -130s139 42 139 130v480h150v-141c43 24 89 71 89 140h-65v125h135v-109zM544 918
c-4 -85 -36 -127 -95 -127c-15 0 -34 4 -55 12l-71 26c-12 4 -21 6 -30 6c-24 0 -35 -13 -40 -45h-63c4 78 39 124 94 124c19 0 20 0 56 -13l71 -25c7 -3 27 -6 34 -6c21 0 33 16 36 48h63z" />
    <glyph glyph-name="uhorntilde" unicode="&#x1eef;" horiz-adv-x="720" 
d="M703 556c0 -145 -95 -204 -162 -226v-330h-140v78c-40 -60 -89 -87 -162 -87c-115 0 -181 68 -181 187v362h140v-333c0 -65 30 -97 90 -97c68 0 113 42 113 106v324h140v-142c44 23 92 72 92 142h-65v125h135v-109zM478 739c-4 -85 -36 -127 -95 -127c-15 0 -34 4 -55 12
l-71 26c-12 4 -21 6 -30 6c-24 0 -35 -13 -40 -45h-63c4 78 39 124 94 124c19 0 20 0 56 -13l71 -25c7 -3 27 -6 34 -6c21 0 33 16 36 48h63z" />
    <glyph glyph-name="Uhorndotbelow" unicode="&#x1ef0;" horiz-adv-x="829" 
d="M813 744c0 -143 -92 -203 -159 -225v-270c0 -82 -22 -140 -71 -184c-53 -48 -130 -74 -218 -74s-165 26 -218 74c-49 44 -71 102 -71 184v480h150v-480c0 -88 45 -130 139 -130s139 42 139 130v480h150v-141c43 24 89 71 89 140h-65v125h135v-109zM435 -205h-140v140h140
v-140z" />
    <glyph glyph-name="uhorndotbelow" unicode="&#x1ef1;" horiz-adv-x="720" 
d="M703 556c0 -145 -95 -204 -162 -226v-330h-140v78c-40 -60 -89 -87 -162 -87c-115 0 -181 68 -181 187v362h140v-333c0 -65 30 -97 90 -97c68 0 113 42 113 106v324h140v-142c44 23 92 72 92 142h-65v125h135v-109zM370 -205h-140v140h140v-140z" />
    <glyph glyph-name="Ygrave" unicode="&#x1ef2;" horiz-adv-x="667" 
d="M650 729l-231 -459v-270h-150v270l-242 459h167l149 -322l139 322h168zM397 786h-106l-135 135h165z" />
    <glyph glyph-name="ygrave" unicode="&#x1ef3;" 
d="M538 540l-222 -639c-37 -103 -86 -120 -180 -120c-17 0 -29 1 -50 4v105c18 -5 26 -6 37 -6c49 0 87 39 87 90v3l-201 563h154l119 -393l112 393h144zM328 598h-100l-126 154h156z" />
    <glyph glyph-name="Ydotbelow" unicode="&#x1ef4;" horiz-adv-x="667" 
d="M650 729l-231 -459v-270h-150v270l-242 459h167l149 -322l139 322h168zM414 -205h-140v140h140v-140z" />
    <glyph glyph-name="ydotbelow" unicode="&#x1ef5;" 
d="M538 540l-222 -639c-37 -103 -86 -120 -180 -120c-17 0 -29 1 -50 4v105c18 -5 26 -6 37 -6c49 0 87 39 87 90v3l-201 563h154l119 -393l112 393h144zM516 -205h-140v140h140v-140z" />
    <glyph glyph-name="Yhookabove" unicode="&#x1ef6;" horiz-adv-x="667" 
d="M650 729l-231 -459v-270h-150v270l-242 459h167l149 -322l139 322h168zM456 899c0 -31 -13 -48 -55 -73c-25 -14 -29 -18 -29 -43h-62c0 36 11 55 47 79c23 16 29 21 29 35c0 21 -18 36 -43 36c-27 0 -45 -17 -45 -51h-67c0 75 46 104 111 104c67 0 114 -36 114 -87z" />
    <glyph glyph-name="yhookabove" unicode="&#x1ef7;" 
d="M538 540l-222 -639c-37 -103 -86 -120 -180 -120c-17 0 -29 1 -50 4v105c18 -5 26 -6 37 -6c49 0 87 39 87 90v3l-201 563h154l119 -393l112 393h144zM390 710c0 -31 -13 -48 -55 -73c-25 -14 -29 -18 -29 -43h-62c0 36 11 55 47 79c23 16 29 21 29 35
c0 21 -18 36 -43 36c-27 0 -45 -17 -45 -51h-67c0 75 46 104 111 104c67 0 114 -36 114 -87z" />
    <glyph glyph-name="Ytilde" unicode="&#x1ef8;" horiz-adv-x="667" 
d="M650 729l-231 -459v-270h-150v270l-242 459h167l149 -322l139 322h168zM523 918c-4 -85 -36 -127 -95 -127c-15 0 -34 4 -55 12l-71 26c-12 4 -21 6 -30 6c-24 0 -35 -13 -40 -45h-63c4 78 39 124 94 124c19 0 20 0 56 -13l71 -25c7 -3 27 -6 34 -6c21 0 33 16 36 48h63z
" />
    <glyph glyph-name="ytilde" unicode="&#x1ef9;" 
d="M538 540l-222 -639c-37 -103 -86 -120 -180 -120c-17 0 -29 1 -50 4v105c18 -5 26 -6 37 -6c49 0 87 39 87 90v3l-201 563h154l119 -393l112 393h144zM456 739c-4 -85 -36 -127 -95 -127c-15 0 -34 4 -55 12l-71 26c-12 4 -21 6 -30 6c-24 0 -35 -13 -40 -45h-63
c4 78 39 124 94 124c19 0 20 0 56 -13l71 -25c7 -3 27 -6 34 -6c21 0 33 16 36 48h63z" />
    <glyph glyph-name="uni2010" unicode="&#x2010;" horiz-adv-x="333" 
d="M303 207h-272v135h272v-135z" />
    <glyph glyph-name="uni2011" unicode="&#x2011;" horiz-adv-x="333" 
d="M303 207h-272v135h272v-135z" />
    <glyph glyph-name="endash" unicode="&#x2013;" 
d="M557 207h-566v104h566v-104z" />
    <glyph glyph-name="emdash" unicode="&#x2014;" horiz-adv-x="1000" 
d="M1003 207h-1010v104h1010v-104z" />
    <glyph glyph-name="dblverticalbar" unicode="&#x2016;" horiz-adv-x="584" 
d="M242 -200h-100v929h100v-929zM442 -200h-100v929h100v-929z" />
    <glyph glyph-name="quoteleft" unicode="&#x2018;" horiz-adv-x="278" 
d="M202 469h-135v109c0 57 13 90 45 117c24 20 56 32 90 34v-46c-56 -10 -82 -39 -80 -89h80v-125z" />
    <glyph glyph-name="quoteright" unicode="&#x2019;" horiz-adv-x="278" 
d="M201 620c0 -57 -13 -90 -45 -117c-24 -20 -56 -32 -90 -34v46c56 10 82 39 80 89h-80v125h135v-109z" />
    <glyph glyph-name="quotesinglbase" unicode="&#x201a;" horiz-adv-x="278" 
d="M201 16c0 -57 -13 -90 -45 -117c-24 -20 -56 -32 -90 -34v46c56 10 82 39 80 89h-80v125h135v-109z" />
    <glyph glyph-name="quotedblleft" unicode="&#x201c;" horiz-adv-x="500" 
d="M206 469h-135v109c0 57 13 90 45 117c24 20 56 32 90 34v-46c-56 -10 -82 -39 -80 -89h80v-125zM433 469h-135v109c0 57 13 90 45 117c24 20 56 32 90 34v-46c-56 -10 -82 -39 -80 -89h80v-125z" />
    <glyph glyph-name="quotedblright" unicode="&#x201d;" horiz-adv-x="500" 
d="M208 620c0 -57 -13 -90 -45 -117c-24 -20 -56 -32 -90 -34v46c56 10 82 39 80 89h-80v125h135v-109zM440 620c0 -57 -13 -90 -45 -117c-24 -20 -56 -32 -90 -34v46c56 10 82 39 80 89h-80v125h135v-109z" />
    <glyph glyph-name="quotedblbase" unicode="&#x201e;" horiz-adv-x="500" 
d="M207 16c0 -57 -13 -90 -45 -117c-24 -20 -56 -32 -90 -34v46c56 10 82 39 80 89h-80v125h135v-109zM432 16c0 -57 -13 -90 -45 -117c-24 -20 -56 -32 -90 -34v46c56 10 82 39 80 89h-80v125h135v-109z" />
    <glyph glyph-name="dagger" unicode="&#x2020;" 
d="M523 369h-179v-563h-134v563h-179v116h179v224h134v-224h179v-116z" />
    <glyph glyph-name="daggerdbl" unicode="&#x2021;" 
d="M520 30h-179v-224h-134v224h-179v116h179v223h-179v116h179v224h134v-224h179v-116h-179v-223h179v-116z" />
    <glyph glyph-name="bullet" unicode="&#x2022;" horiz-adv-x="350" 
d="M300 300c0 -69 -56 -125 -125 -125s-125 56 -125 125c0 70 56 125 127 125c67 0 123 -57 123 -125z" />
    <glyph glyph-name="ellipsis" unicode="&#x2026;" horiz-adv-x="1000" 
d="M242 0h-150v146h150v-146zM575 0h-150v146h150v-146zM908 0h-150v146h150v-146z" />
    <glyph glyph-name="perthousand" unicode="&#x2030;" horiz-adv-x="1000" 
d="M310 589c0 -79 -68 -146 -149 -146c-83 0 -150 67 -150 148s67 148 149 148c84 0 150 -66 150 -150zM573 738l-421 -759h-96l420 759h97zM621 124c0 -80 -68 -146 -149 -146c-83 0 -150 66 -150 148c0 81 67 148 149 148c84 0 150 -66 150 -150zM990 124
c0 -80 -68 -146 -149 -146c-83 0 -150 66 -150 148c0 81 67 148 149 148c84 0 150 -66 150 -150zM231 589c0 39 -31 70 -71 70c-38 0 -70 -31 -70 -69c0 -39 32 -70 70 -70c39 0 71 31 71 69zM542 124c0 39 -31 70 -71 70c-38 0 -70 -31 -70 -69c0 -39 32 -70 71 -70
c38 0 70 31 70 69zM911 124c0 39 -31 70 -71 70c-38 0 -70 -31 -70 -69c0 -39 32 -70 71 -70c38 0 70 31 70 69z" />
    <glyph glyph-name="permyriad" unicode="&#x2031;" horiz-adv-x="1369" 
d="M310 589c0 -79 -68 -146 -149 -146c-83 0 -150 67 -150 148s67 148 149 148c84 0 150 -66 150 -150zM573 738l-421 -759h-96l420 759h97zM621 124c0 -80 -68 -146 -149 -146c-83 0 -150 66 -150 148c0 81 67 148 149 148c84 0 150 -66 150 -150zM990 124
c0 -80 -68 -146 -149 -146c-83 0 -150 66 -150 148c0 81 67 148 149 148c84 0 150 -66 150 -150zM231 589c0 39 -31 70 -71 70c-38 0 -70 -31 -70 -69c0 -39 32 -70 70 -70c39 0 71 31 71 69zM542 124c0 39 -31 70 -71 70c-38 0 -70 -31 -70 -69c0 -39 32 -70 71 -70
c38 0 70 31 70 69zM911 124c0 39 -31 70 -71 70c-38 0 -70 -31 -70 -69c0 -39 32 -70 71 -70c38 0 70 31 70 69zM1359 124c0 -80 -68 -146 -149 -146c-83 0 -150 66 -150 148c0 81 67 148 149 148c84 0 150 -66 150 -150zM1280 124c0 39 -31 70 -71 70
c-38 0 -70 -31 -70 -69c0 -39 32 -70 71 -70c38 0 70 31 70 69z" />
    <glyph glyph-name="guilsinglleft" unicode="&#x2039;" horiz-adv-x="333" 
d="M250 72l-167 146v114l167 149v-117l-101 -89l101 -89v-114z" />
    <glyph glyph-name="guilsinglright" unicode="&#x203a;" horiz-adv-x="333" 
d="M247 220l-167 -148v117l101 89l-101 89v114l167 -146v-115z" />
    <glyph glyph-name="referencemark" unicode="&#x203b;" horiz-adv-x="584" 
d="M491 121l-70 -70l-129 128l-129 -128l-70 70l128 129l-128 129l70 70l129 -128l129 128l70 -70l-128 -129zM367 458c0 -41 -34 -75 -75 -75s-75 34 -75 75c0 42 34 75 75 75s75 -33 75 -75zM367 42c0 -42 -34 -75 -75 -75s-75 33 -75 75c0 41 34 75 75 75s75 -34 75 -75z
M159 250c0 -41 -34 -75 -75 -75c-42 0 -75 34 -75 75s33 75 75 75c41 0 75 -34 75 -75zM575 250c0 -41 -33 -75 -75 -75c-41 0 -75 34 -75 75s34 75 75 75c42 0 75 -34 75 -75z" />
    <glyph glyph-name="interrobang" unicode="&#x203d;" horiz-adv-x="611" 
d="M381 0h-150v146h150v-146zM552 514c0 -84 -27 -128 -120 -194c-60 -42 -67 -53 -67 -119h-124v14c0 40 6 72 24 102l-34 259v17c-22 -25 -35 -60 -35 -101v-9v-2h-136c0 150 66 231 171 255v50h150v-52c103 -27 171 -110 171 -220zM411 511c0 33 -12 61 -30 82v-17
l-22 -161c42 37 52 55 52 96z" />
    <glyph glyph-name="uni203F" unicode="&#x203f;" horiz-adv-x="608" 
d="M578 -62c0 -86 -82 -154 -274 -154s-274 68 -274 154h114c0 -40 59 -40 160 -40s160 0 160 40h114z" />
    <glyph glyph-name="uni2040" unicode="&#x2040;" horiz-adv-x="608" 
d="M578 575h-114c0 40 -59 40 -160 40s-160 0 -160 -40h-114c0 86 82 154 274 154s274 -68 274 -154z" />
    <glyph glyph-name="fraction" unicode="&#x2044;" horiz-adv-x="167" 
d="M337 715l-423 -740h-87l423 740h87z" />
    <glyph glyph-name="quillbracketleft" unicode="&#x2045;" horiz-adv-x="400" 
d="M340 -194c-139 0 -280 56 -280 179v158c0 49 26 93 66 122c-40 28 -66 72 -66 121v159c0 122 141 178 280 178v-114c-66 0 -140 -8 -140 -64v-159c0 -57 74 -64 140 -64v-114c-66 0 -140 -8 -140 -65v-158c0 -57 74 -65 140 -65v-114z" />
    <glyph glyph-name="quillbracketright" unicode="&#x2046;" horiz-adv-x="400" 
d="M340 -15c0 -123 -141 -179 -280 -179v114c66 0 140 8 140 65v158c0 57 -74 65 -140 65v114c66 0 140 7 140 64v159c0 56 -74 64 -140 64v114c139 0 280 -56 280 -178v-159c0 -49 -26 -93 -66 -122c40 -28 66 -72 66 -121v-158z" />
    <glyph glyph-name="discount" unicode="&#x2052;" 
d="M226 578c0 -52 -42 -94 -94 -94s-94 42 -94 94s42 94 94 94s94 -42 94 -94zM518 151c0 -52 -42 -94 -94 -94s-94 42 -94 94s42 94 94 94s94 -42 94 -94zM519 729l-356 -729h-126l356 729h126z" />
    <glyph glyph-name="uni2054" unicode="&#x2054;" horiz-adv-x="608" 
d="M578 -216h-114c0 40 -59 40 -160 40s-160 0 -160 -40h-114c0 86 82 154 274 154s274 -68 274 -154z" />
    <glyph glyph-name="colonmonetary" unicode="&#x20a1;" horiz-adv-x="722" 
d="M685 249c-9 -160 -121 -253 -290 -261v-71h-68v74c-175 20 -283 158 -283 373c0 216 107 352 283 374v74h68v-71c156 -7 274 -97 287 -259h-143c-21 89 -70 127 -144 131v-498c83 5 136 47 144 134h146zM327 605c-84 -25 -133 -109 -133 -243s48 -218 133 -241v484z" />
    <glyph glyph-name="lira" unicode="&#x20a4;" 
d="M537 22c-56 -33 -96 -45 -145 -45c-34 0 -162 32 -197 32c-38 0 -65 -8 -109 -30l-55 101c84 57 110 93 110 151c0 9 -1 19 -5 32h-105v55h84c-6 14 -14 30 -23 51h-61v55h31c-20 39 -24 60 -24 92c0 110 92 199 238 199c155 0 232 -71 246 -231h-132l-1 11
c-11 85 -56 109 -112 109c-57 0 -98 -38 -98 -91c0 -20 3 -28 27 -77c2 -5 4 -8 6 -12h163v-55h-140c5 -13 10 -30 17 -51h123v-55h-107v-6c0 -58 -31 -104 -116 -171c63 30 83 37 112 37c11 0 91 -21 127 -21c33 0 65 9 105 29z" />
    <glyph glyph-name="naira" unicode="&#x20a6;" horiz-adv-x="722" 
d="M736 270h-75v-270h-150l-157 270h-136v-270h-150v270h-75v80h75v102h-75v80h75v197h154l115 -197h174v197h150v-197h75v-80h-75v-102h75v-80zM308 350l-60 102h-30v-102h90zM511 350v102h-128l60 -102h68zM511 270h-22l22 -37v37z" />
    <glyph glyph-name="won" unicode="&#x20a9;" horiz-adv-x="944" 
d="M932 270h-127l-75 -270h-135l-58 270h-127l-56 -270h-135l-76 270h-130v80h107l-29 102h-78v80h56l-56 197h159l41 -197h144l41 197h148l43 -197h145l39 197h159l-55 -197h55v-80h-77l-28 -102h105v-80zM341 452h-112l21 -102h70zM303 270h-36l18 -87zM718 452h-112
l22 -102h69zM682 270h-37l19 -88zM520 350l-22 102h-49l-22 -102h93zM481 532l-8 37l-8 -37h16z" />
    <glyph glyph-name="dong" unicode="&#x20ab;" horiz-adv-x="610" 
d="M549 616h-51v-507h-119v59c-29 -45 -69 -66 -126 -66c-110 0 -193 98 -193 236c0 139 83 238 193 238c57 0 97 -21 126 -67v107h-113v57h113v56h119v-56h51v-57zM549 -114h-489v114h489v-114zM379 336c0 88 -40 141 -100 141c-59 0 -100 -54 -100 -139
c0 -84 40 -137 100 -137c59 0 100 52 100 135z" />
    <glyph glyph-name="Euro" unicode="&#x20ac;" 
d="M546 656l-45 -129c-63 50 -101 67 -146 67c-62 0 -107 -48 -131 -140h251l-24 -68h-240c-2 -16 -3 -27 -3 -41c0 -10 0 -17 2 -27h217l-25 -68h-181c26 -91 74 -128 134 -128c40 0 68 10 146 52l44 -122c-73 -45 -157 -61 -196 -61c-144 0 -239 100 -271 259h-72l24 68
h40c-2 14 -2 23 -2 35s0 21 1 33h-63l24 68h48c37 171 142 270 286 270c70 0 110 -15 182 -68z" />
    <glyph glyph-name="peso" unicode="&#x20b1;" horiz-adv-x="667" 
d="M633 503c0 -148 -86 -243 -220 -243h-187v-46h108v-68h-108v-146h-150v146h-70v68h70v515h322c152 0 235 -80 235 -226zM483 494c0 75 -37 110 -117 110h-140v-219h140c80 0 117 35 117 109z" />
    <glyph glyph-name="centigrade" unicode="&#x2103;" horiz-adv-x="1164" 
d="M343 569c0 -79 -64 -143 -143 -143s-143 64 -143 143s64 143 143 143s143 -64 143 -143zM1044 249c-9 -167 -130 -261 -311 -261c-203 0 -330 142 -330 376c0 236 128 377 334 377c164 0 291 -91 304 -259h-143c-22 94 -75 131 -156 131c-118 0 -189 -90 -189 -251
c0 -159 68 -248 184 -248c93 0 152 42 161 135h146zM287 569c0 48 -39 87 -87 87s-87 -39 -87 -87s39 -87 87 -87s87 39 87 87z" />
    <glyph glyph-name="l.script" unicode="&#x2113;" horiz-adv-x="503" 
d="M468 73c-33 -59 -95 -96 -162 -96c-87 0 -163 61 -163 145v45l-49 -45l-59 60c34 34 72 65 108 98v303c0 82 69 146 151 146s151 -64 151 -146c0 -121 -72 -211 -162 -294v-167c0 -25 31 -32 60 -32c21 0 42 7 59 19zM332 583c0 17 -9 33 -24 33c-16 0 -25 -16 -25 -33
v-154c30 46 49 96 49 154z" />
    <glyph glyph-name="numero" unicode="&#x2116;" horiz-adv-x="1045" 
d="M1003 359c0 -115 -68 -187 -176 -187c-109 0 -176 72 -176 189s67 189 176 189c111 0 176 -70 176 -191zM1003 0h-352v130h352v-130zM911 360c0 69 -33 115 -84 115c-49 0 -84 -46 -84 -113c0 -68 35 -115 84 -115c50 0 84 47 84 113zM586 0h-150l-243 504v-504h-150v729
h154l239 -496v496h150v-729z" />
    <glyph glyph-name="published" unicode="&#x2117;" horiz-adv-x="737" 
d="M718 340c0 -192 -157 -348 -349 -348s-348 156 -348 348s156 349 348 349s349 -157 349 -349zM659 340c0 160 -130 290 -290 290s-289 -130 -289 -290s129 -289 289 -289s290 129 290 289zM563 410c0 -80 -51 -132 -132 -132h-97v-133h-100v389h189
c91 0 140 -44 140 -124zM463 406c0 33 -19 48 -58 48h-71v-96h71c39 0 58 15 58 48z" />
    <glyph glyph-name="weierstrass" unicode="&#x2118;" horiz-adv-x="704" 
d="M644 275c0 -138 -73 -271 -198 -271c-44 0 -85 20 -122 43l52 83c19 -12 46 -12 70 -12c58 0 58 84 58 157c0 74 0 162 -58 162c-53 0 -127 -201 -180 -347c27 -68 38 -142 38 -215c0 -60 -64 -95 -130 -95c-55 0 -102 41 -102 95c0 73 22 143 47 211
c-31 69 -59 140 -59 216c0 108 59 205 135 283l73 -72c-54 -55 -68 -134 -68 -211v-3c60 136 136 252 246 252c126 0 198 -136 198 -276zM206 -125c0 8 -9 32 -21 62c-9 -19 -15 -40 -15 -62c0 -7 0 -15 4 -15c15 0 32 2 32 15z" />
    <glyph glyph-name="recipe" unicode="&#x211e;" horiz-adv-x="722" 
d="M755 214l-111 -69l1 -58c0 -32 9 -47 32 -60v-27h-161c-10 18 -16 33 -19 53l-41 -25l-36 58l73 45l2 71c0 61 -28 87 -93 87h-172v-289h-150v729h391c129 0 196 -84 196 -197c0 -89 -41 -148 -123 -180c67 -29 88 -42 96 -129l79 49zM517 511c0 63 -24 93 -106 93h-181
v-190h181c85 0 106 32 106 97z" />
    <glyph glyph-name="servicemark" unicode="&#x2120;" horiz-adv-x="1027" 
d="M443 449c0 -83 -70 -132 -191 -132c-122 0 -196 53 -191 145h106c-6 -43 30 -64 90 -64c49 0 81 12 81 41c0 28 -22 36 -76 45l-62 11c-96 17 -132 48 -132 113c0 80 64 127 177 127c117 0 186 -49 182 -141h-103c6 41 -28 61 -84 61c-40 0 -68 -14 -68 -40
c0 -25 19 -32 77 -42l69 -12c88 -15 125 -47 125 -112zM967 729v-405h-108v244l-63 -244h-105l-64 245v-245h-108v405h151l74 -283l71 283h152z" />
    <glyph glyph-name="trademark" unicode="&#x2122;" horiz-adv-x="1000" 
d="M432 646h-130v-322h-108v322h-134v83h372v-83zM939 729v-405h-108v244l-63 -244h-105l-64 245v-245h-108v405h151l74 -283l71 283h152z" />
    <glyph glyph-name="ohm" unicode="&#x2126;" horiz-adv-x="770" 
d="M735 0h-292v247c65 28 107 100 107 179c0 100 -69 190 -165 190s-165 -90 -165 -190c0 -79 42 -151 107 -179v-247h-292v125h142v64c-66 58 -107 142 -107 237c0 173 141 315 315 315s315 -142 315 -315c0 -95 -41 -179 -107 -237v-64h142v-125z" />
    <glyph glyph-name="uni2127" unicode="&#x2127;" horiz-adv-x="770" 
d="M735 605h-142v-64c66 -58 107 -142 107 -237c0 -173 -141 -315 -315 -315s-315 142 -315 315c0 95 41 179 107 237v64h-142v125h292v-247c-65 -28 -107 -100 -107 -179c0 -100 69 -190 165 -190s165 90 165 190c0 79 -42 151 -107 179v247h292v-125z" />
    <glyph glyph-name="estimated" unicode="&#x212e;" horiz-adv-x="849" 
d="M789 328v-10l-587 1c-5 0 -9 -5 -9 -9v-182c0 -2 1 -4 2 -6c59 -65 142 -103 230 -103c92 0 176 41 233 108h55c-68 -79 -174 -127 -288 -127c-196 0 -365 140 -365 328s169 328 365 328c195 0 364 -140 364 -328zM656 347v181c0 2 -1 4 -2 6c-59 65 -142 103 -229 103
c-88 0 -171 -38 -230 -103c-1 -2 -2 -4 -2 -6v-181c0 -5 4 -9 9 -9h445c5 0 9 4 9 9z" />
    <glyph glyph-name="uni2190" unicode="&#x2190;" horiz-adv-x="1000" 
d="M880 200h-630l92 -149l-84 -52l-157 251l157 251l84 -52l-92 -149h630v-100z" />
    <glyph glyph-name="uni2191" unicode="&#x2191;" horiz-adv-x="743" 
d="M622 492l-52 -84l-149 92v-630h-100v630l-149 -92l-52 84l251 157z" />
    <glyph glyph-name="uni2192" unicode="&#x2192;" horiz-adv-x="1000" 
d="M899 250l-157 -251l-84 52l92 149h-630v100h630l-92 149l84 52z" />
    <glyph glyph-name="uni2193" unicode="&#x2193;" horiz-adv-x="743" 
d="M622 8l-251 -157l-251 157l52 84l149 -92v630h100v-630l149 92z" />
    <glyph glyph-name="partialdiff" unicode="&#x2202;" horiz-adv-x="490" 
d="M467 365c0 -186 -102 -362 -271 -362c-96 0 -173 80 -173 177c0 121 78 231 191 231c39 0 77 -8 113 -23c-2 129 -21 263 -131 263c-27 0 -47 -21 -65 -42l-75 66c34 39 88 51 140 51c169 0 271 -176 271 -361zM325 305c-33 20 -71 31 -111 31c-51 0 -51 -85 -51 -156
c0 -46 0 -102 33 -102c100 0 124 110 129 227z" />
    <glyph glyph-name="summation" unicode="&#x2211;" horiz-adv-x="711" 
d="M621 -96h-531v140l147 288l-147 288v140h531v-140h-374l147 -288l-147 -288h374v-140z" />
    <glyph glyph-name="minus" unicode="&#x2212;" horiz-adv-x="584" 
d="M524 200h-464v100h464v-100z" />
    <glyph glyph-name="minusplus" unicode="&#x2213;" horiz-adv-x="584" 
d="M524 100h-182v-182h-100v182h-182v100h182v110h100v-110h182v-100zM524 400h-464v100h464v-100z" />
    <glyph glyph-name="fraction.alt" unicode="&#x2215;" horiz-adv-x="0" 
d="M255 715l-423 -740h-87l423 740h87z" />
    <glyph glyph-name="asterisk.math" unicode="&#x2217;" horiz-adv-x="521" 
d="M460 263l-130 -42l80 -113l-70 -51l-80 113l-80 -113l-70 51l80 113l-130 43l26 83l131 -43v139h86v-139l131 43z" />
    <glyph glyph-name="radical" unicode="&#x221a;" horiz-adv-x="542" 
d="M519 872l-183 -942l-229 491l-24 -18l-46 58l97 78l172 -369l139 716z" />
    <glyph glyph-name="infinity" unicode="&#x221e;" horiz-adv-x="781" 
d="M746 270c0 -111 -73 -210 -178 -210c-74 0 -128 55 -175 116c-49 -61 -105 -116 -180 -116c-105 0 -178 99 -178 210s73 210 178 210c75 0 128 -55 175 -116c49 61 106 116 180 116c105 0 178 -99 178 -210zM318 274c-32 38 -65 66 -105 66c-37 0 -65 -32 -65 -70
c0 -47 19 -70 65 -70c38 0 71 32 105 74zM633 270c0 47 -19 70 -65 70c-38 0 -71 -32 -105 -74c32 -38 65 -66 105 -66c37 0 65 32 65 70z" />
    <glyph glyph-name="anglearc" unicode="&#x2222;" horiz-adv-x="584" 
d="M496 113l-44 -90l-51 26c-27 -39 -62 -72 -103 -98l-53 84c25 16 47 36 65 59l-222 111v90l222 111c-18 23 -40 43 -65 59l53 84c41 -26 76 -59 103 -98l51 26l44 -90l-50 -25c12 -36 18 -73 18 -112s-6 -76 -18 -112zM364 250c0 23 -3 45 -9 67l-133 -67l133 -67
c6 22 9 44 9 67z" />
    <glyph glyph-name="approxequal" unicode="&#x2248;" horiz-adv-x="584" 
d="M554 421c-6 -98 -47 -146 -127 -146c-33 0 -57 8 -83 26l-57 42c-23 17 -40 24 -61 24c-24 0 -40 -9 -48 -27c-3 -8 -4 -12 -5 -38h-78c5 97 48 145 127 145c33 0 59 -8 83 -25l57 -42c26 -19 40 -25 61 -25c24 0 40 9 48 27c3 8 4 12 5 39h78zM554 239
c-6 -98 -47 -146 -127 -146c-33 0 -57 8 -83 26l-57 42c-23 17 -40 24 -61 24c-24 0 -40 -9 -48 -27c-3 -8 -4 -12 -5 -38h-78c5 97 48 145 127 145c33 0 59 -8 83 -25l57 -42c26 -19 40 -25 61 -25c24 0 40 9 48 27c3 8 4 12 5 39h78z" />
    <glyph glyph-name="notequal" unicode="&#x2260;" horiz-adv-x="584" 
d="M524 109h-247l-86 -171l-90 44l64 127h-105v100h155l42 82h-197v100h247l86 171l90 -44l-64 -127h105v-100h-155l-42 -82h197v-100z" />
    <glyph glyph-name="lessequal" unicode="&#x2264;" horiz-adv-x="584" 
d="M464 80l-376 317v76l376 317v-130l-266 -225l266 -225v-130zM464 -50h-344v100h344v-100z" />
    <glyph glyph-name="greaterequal" unicode="&#x2265;" horiz-adv-x="584" 
d="M496 397l-376 -317v130l266 225l-266 225v130l376 -317v-76zM464 -50h-344v100h344v-100z" />
    <glyph glyph-name="star" unicode="&#x22c6;" 
d="M540 302l-191 -60l119 -161l-74 -54l-116 163l-116 -163l-74 54l119 161l-191 60l28 88l190 -64l-2 200h92l-2 -200l190 64z" />
    <glyph glyph-name="diameter" unicode="&#x2300;" horiz-adv-x="584" 
d="M534 422l-53 -54c22 -34 34 -75 34 -118c0 -123 -100 -223 -223 -223c-43 0 -84 12 -118 34l-54 -53l-70 70l53 54c-22 34 -34 75 -34 118c0 123 100 223 223 223c43 0 84 -12 118 -34l54 53zM415 250c0 16 -3 30 -8 44l-159 -159c14 -5 28 -8 44 -8c68 0 123 55 123 123
zM336 365c-14 5 -28 8 -44 8c-68 0 -123 -55 -123 -123c0 -16 3 -30 8 -44z" />
    <glyph glyph-name="angleleft" unicode="&#x2329;" horiz-adv-x="412" 
d="M352 -200h-108l-184 465l184 464h108l-184 -464z" />
    <glyph glyph-name="angleright" unicode="&#x232a;" horiz-adv-x="412" 
d="M352 264l-184 -464h-108l184 464l-184 465h108z" />
    <glyph glyph-name="blanksymbol" unicode="&#x2422;" horiz-adv-x="611" 
d="M575 263c0 -163 -98 -272 -227 -272c-68 0 -115 25 -149 71v-62h-140v525l-70 -21v72l70 21v132h140v-91l107 32v-71l-107 -32v-97c34 54 82 79 149 79c142 0 227 -133 227 -286zM435 269c0 100 -49 163 -118 163c-70 0 -118 -62 -118 -160c0 -103 47 -164 118 -164
c69 0 118 63 118 161z" />
    <glyph glyph-name="uni2423" unicode="&#x2423;" horiz-adv-x="500" 
d="M440 -108h-380v321h114v-207h152v207h114v-321z" />
    <glyph glyph-name="lozenge" unicode="&#x25ca;" horiz-adv-x="489" 
d="M483 341l-194 -365h-89l-194 365v47l194 365h89l194 -365v-47zM382 364l-138 259l-137 -259l138 -258z" />
    <glyph glyph-name="openbullet" unicode="&#x25e6;" horiz-adv-x="350" 
d="M300 300c0 -69 -56 -125 -125 -125s-125 56 -125 125s56 125 125 125s125 -56 125 -125zM200 300c0 14 -11 25 -25 25s-25 -11 -25 -25s11 -25 25 -25s25 11 25 25z" />
    <glyph glyph-name="uni266A" unicode="&#x266a;" horiz-adv-x="667" 
d="M624 250h-114c0 67 -38 133 -77 193l1 -330c0 -77 -82 -122 -167 -122s-167 45 -167 122c0 76 82 121 167 121c18 0 36 -2 53 -6v501h114c0 -73 45 -144 86 -209c53 -83 104 -171 104 -270z" />
    <glyph glyph-name="married" unicode="&#x26ad;" 
d="M651 250c0 -149 -121 -270 -270 -270c-34 0 -66 6 -96 18c-30 -12 -62 -18 -96 -18c-149 0 -270 121 -270 270s121 270 270 270c34 0 66 -6 96 -18c30 12 62 18 96 18c149 0 270 -121 270 -270zM345 250c0 55 -25 106 -64 137c-42 -31 -70 -81 -70 -137s28 -106 70 -137
c39 31 64 82 64 137zM171 81c-37 46 -60 105 -60 169s23 123 60 169c-86 -9 -152 -81 -152 -169s66 -160 152 -169zM537 250c0 85 -58 159 -138 169c37 -46 60 -105 60 -169s-23 -123 -60 -169c80 10 138 84 138 169z" />
    <glyph glyph-name="divorced" unicode="&#x26ae;" 
d="M185 250c0 -138 -76 -270 -202 -270s-203 132 -203 270s77 270 203 270s202 -132 202 -270zM776 250c0 -138 -77 -270 -203 -270s-202 132 -202 270s76 270 202 270s203 -132 203 -270zM328 -290h-100v1080h100v-1080zM71 250c0 82 -18 170 -88 170
c-73 0 -103 -86 -103 -170s30 -170 103 -170c70 0 88 88 88 170zM676 250c0 84 -30 170 -103 170c-70 0 -88 -88 -88 -170s18 -170 88 -170c73 0 103 86 103 170z" />
    <glyph glyph-name="dblbracketleft" unicode="&#x27e6;" horiz-adv-x="520" 
d="M460 -200h-400v929h400v-126h-100v-677h100v-126zM260 -74v677h-100v-677h100z" />
    <glyph glyph-name="dblbracketright" unicode="&#x27e7;" horiz-adv-x="520" 
d="M460 -200h-400v126h100v677h-100v126h400v-929zM360 -74v677h-100v-677h100z" />
    <glyph glyph-name="lessequal.slant" unicode="&#x2a7d;" horiz-adv-x="584" 
d="M464 80l-376 317v76l376 317v-130l-266 -225l266 -225v-130zM464 -197l-344 290v131l344 -290v-131z" />
    <glyph glyph-name="greaterequal.slant" unicode="&#x2a7e;" horiz-adv-x="584" 
d="M464 473v-76l-376 -317v130l266 225l-266 225v130zM432 224v-131l-344 -289v130z" />
    <glyph glyph-name="abreveacute.sc" unicode="&#xe000;" horiz-adv-x="617" 
d="M592 0h-144l-38 105h-198l-38 -105h-144l211 540h145zM370 215l-58 160l-59 -160h117zM502 891l-135 -135h-106l76 135h165zM495 726c-8 -80 -71 -122 -182 -122c-101 0 -177 35 -179 122h71c6 -29 42 -40 110 -40c65 0 105 12 109 40h71z" />
    <glyph glyph-name="abrevedotbelow.sc" unicode="&#xe001;" horiz-adv-x="617" 
d="M592 0h-144l-38 105h-198l-38 -105h-144l211 540h145zM370 215l-58 160l-59 -160h117zM475 751c0 -84 -80 -151 -164 -151s-164 67 -164 151h80c0 -43 39 -64 84 -64s84 21 84 64h80zM379 -205h-140v140h140v-140z" />
    <glyph glyph-name="abrevegrave.sc" unicode="&#xe002;" horiz-adv-x="617" 
d="M592 0h-144l-38 105h-198l-38 -105h-144l211 540h145zM370 215l-58 160l-59 -160h117zM367 756h-106l-135 135h165zM495 726c-8 -80 -71 -122 -182 -122c-101 0 -177 35 -179 122h71c6 -29 42 -40 110 -40c65 0 105 12 109 40h71z" />
    <glyph glyph-name="abrevehookabove.sc" unicode="&#xe003;" horiz-adv-x="617" 
d="M592 0h-144l-38 105h-198l-38 -105h-144l211 540h145zM370 215l-58 160l-59 -160h117zM427 820c0 -28 -13 -43 -55 -65c-25 -13 -29 -17 -29 -39h-62c0 32 11 49 47 71c23 14 29 19 29 31c0 19 -18 33 -43 33c-27 0 -45 -15 -45 -46h-67c0 67 46 94 111 94
c67 0 114 -33 114 -79zM495 726c-8 -80 -71 -122 -182 -122c-101 0 -177 35 -179 122h71c6 -29 42 -40 110 -40c65 0 105 12 109 40h71z" />
    <glyph glyph-name="abrevetilde.sc" unicode="&#xe004;" horiz-adv-x="617" 
d="M592 0h-144l-38 105h-198l-38 -105h-144l211 540h145zM370 215l-58 160l-59 -160h117zM493 894c-4 -85 -36 -127 -95 -127c-15 0 -34 4 -55 12l-71 26c-12 4 -21 6 -30 6c-24 0 -35 -13 -40 -45h-63c4 78 39 124 94 124c19 0 20 0 56 -13l71 -25c7 -3 27 -6 34 -6
c21 0 33 16 36 48h63zM495 726c-8 -80 -71 -122 -182 -122c-101 0 -177 35 -179 122h71c6 -29 42 -40 110 -40c65 0 105 12 109 40h71z" />
    <glyph glyph-name="acaron.sc" unicode="&#xe005;" horiz-adv-x="617" 
d="M592 0h-144l-38 105h-198l-38 -105h-144l211 540h145zM370 215l-58 160l-59 -160h117zM483 752l-108 -154h-127l-103 154h88l82 -77l82 77h86z" />
    <glyph glyph-name="acircumflexacute.sc" unicode="&#xe006;" horiz-adv-x="617" 
d="M592 0h-144l-38 105h-198l-38 -105h-144l211 540h145zM370 215l-58 160l-59 -160h117zM502 888l-135 -135h-106l76 135h165zM506 598h-94l-98 70l-99 -70h-91l130 135h128z" />
    <glyph glyph-name="acircumflexdotbelow.sc" unicode="&#xe007;" horiz-adv-x="617" 
d="M592 0h-144l-38 105h-198l-38 -105h-144l211 540h145zM370 215l-58 160l-59 -160h117zM483 598h-88l-82 77l-82 -77h-86l108 154h127zM379 -205h-140v140h140v-140z" />
    <glyph glyph-name="acircumflexgrave.sc" unicode="&#xe008;" horiz-adv-x="617" 
d="M592 0h-144l-38 105h-198l-38 -105h-144l211 540h145zM370 215l-58 160l-59 -160h117zM367 753h-106l-135 135h165zM506 598h-94l-98 70l-99 -70h-91l130 135h128z" />
    <glyph glyph-name="acircumflexhookabove.sc" unicode="&#xe009;" horiz-adv-x="617" 
d="M592 0h-144l-38 105h-198l-38 -105h-144l211 540h145zM370 215l-58 160l-59 -160h117zM506 857c0 -28 -13 -43 -55 -65c-25 -13 -29 -17 -29 -39h-62c0 32 11 49 47 71c23 14 29 19 29 31c0 19 -18 33 -43 33c-27 0 -45 -15 -45 -46h-67c0 67 46 94 111 94
c67 0 114 -33 114 -79zM506 598h-94l-98 70l-99 -70h-91l130 135h128z" />
    <glyph glyph-name="acircumflextilde.sc" unicode="&#xe00a;" horiz-adv-x="617" 
d="M592 0h-144l-38 105h-198l-38 -105h-144l211 540h145zM370 215l-58 160l-59 -160h117zM493 891c-4 -85 -36 -127 -95 -127c-15 0 -34 4 -55 12l-71 26c-12 4 -21 6 -30 6c-24 0 -35 -13 -40 -45h-63c4 78 39 124 94 124c19 0 20 0 56 -13l71 -25c7 -3 27 -6 34 -6
c21 0 33 16 36 48h63zM506 598h-94l-98 70l-99 -70h-91l130 135h128z" />
    <glyph glyph-name="adblgrave.sc" unicode="&#xe00b;" horiz-adv-x="617" 
d="M592 0h-144l-38 105h-198l-38 -105h-144l211 540h145zM370 215l-58 160l-59 -160h117zM455 598h-85l-111 154h126zM257 598h-85l-111 154h126z" />
    <glyph glyph-name="adotbelow.sc" unicode="&#xe00c;" horiz-adv-x="617" 
d="M592 0h-144l-38 105h-198l-38 -105h-144l211 540h145zM370 215l-58 160l-59 -160h117zM379 -205h-140v140h140v-140z" />
    <glyph glyph-name="ahookabove.sc" unicode="&#xe00d;" horiz-adv-x="617" 
d="M592 0h-144l-38 105h-198l-38 -105h-144l211 540h145zM370 215l-58 160l-59 -160h117zM426 710c0 -31 -13 -48 -55 -73c-25 -14 -29 -18 -29 -43h-62c0 36 11 55 47 79c23 16 29 21 29 35c0 21 -18 36 -43 36c-27 0 -45 -17 -45 -51h-67c0 75 46 104 111 104
c67 0 114 -36 114 -87z" />
    <glyph glyph-name="aogonekacute.sc" unicode="&#xe00f;" horiz-adv-x="617" 
d="M592 -230h-63c-83 0 -147 30 -147 103c0 51 24 98 66 127l-38 105h-198l-38 -105h-144l211 540h145l206 -540c-60 0 -115 -36 -115 -92c0 -34 17 -48 52 -48h63v-90zM370 215l-58 160l-59 -160h117zM485 752l-126 -154h-100l70 154h156z" />
    <glyph glyph-name="aringacute.sc" unicode="&#xe010;" horiz-adv-x="617" 
d="M592 0h-144l-38 105h-198l-38 -105h-144l211 540h145zM370 215l-58 160l-59 -160h117zM502 928l-135 -135h-106l76 135h165zM414 673c0 -54 -46 -98 -99 -98c-56 0 -100 44 -100 99s44 99 101 99c55 0 98 -44 98 -100zM361 674c0 25 -20 46 -45 46c-27 0 -48 -21 -48 -46
s21 -46 48 -46c24 0 45 21 45 46z" />
    <glyph glyph-name="dcroat.sc" unicode="&#xe011;" horiz-adv-x="607" 
d="M570 271c0 -80 -27 -156 -72 -207c-39 -45 -95 -64 -189 -64h-234v241h-60v79h60v220h234c94 0 150 -19 189 -63c45 -50 72 -128 72 -206zM435 270c0 93 -26 160 -126 160h-94v-110h117v-79h-117v-130h94c100 0 126 67 126 159z" />
    <glyph glyph-name="ddotbelow.sc" unicode="&#xe012;" horiz-adv-x="607" 
d="M570 271c0 -84 -27 -157 -73 -207c-41 -44 -97 -64 -188 -64h-234v540h234c92 0 148 -19 188 -63c47 -51 73 -124 73 -206zM430 270c0 106 -39 160 -121 160h-94v-319h94c82 0 121 53 121 159zM379 -205h-140v140h140v-140z" />
    <glyph glyph-name="dlinebelow.sc" unicode="&#xe013;" horiz-adv-x="607" 
d="M570 271c0 -84 -27 -157 -73 -207c-41 -44 -97 -64 -188 -64h-234v540h234c92 0 148 -19 188 -63c47 -51 73 -124 73 -206zM430 270c0 106 -39 160 -121 160h-94v-319h94c82 0 121 53 121 159zM458 -174h-299v79h299v-79z" />
    <glyph glyph-name="dotlessi.sc" unicode="&#xe014;" horiz-adv-x="269" 
d="M204 540v-540h-140v540h140z" />
    <glyph glyph-name="dotlessj.sc" unicode="&#xe015;" horiz-adv-x="487" 
d="M417 540v-386c0 -103 -70 -163 -194 -163c-113 0 -189 59 -189 169v54h139v-53c0 -40 15 -57 52 -57c34 0 53 18 53 50v386h139z" />
    <glyph glyph-name="ecircumflexacute.sc" unicode="&#xe016;" horiz-adv-x="559" 
d="M525 111v-111h-448v540h434v-110h-295v-96h273v-111h-273v-112h309zM482 888l-135 -135h-106l76 135h165zM486 598h-94l-98 70l-99 -70h-91l130 135h128z" />
    <glyph glyph-name="ecircumflexdotbelow.sc" unicode="&#xe017;" horiz-adv-x="559" 
d="M525 111v-111h-448v540h434v-110h-295v-96h273v-111h-273v-112h309zM463 598h-88l-82 77l-82 -77h-86l108 154h127zM350 -205h-140v140h140v-140z" />
    <glyph glyph-name="ecircumflexgrave.sc" unicode="&#xe018;" horiz-adv-x="559" 
d="M525 111v-111h-448v540h434v-110h-295v-96h273v-111h-273v-112h309zM347 753h-106l-135 135h165zM486 598h-94l-98 70l-99 -70h-91l130 135h128z" />
    <glyph glyph-name="ecircumflexhookabove.sc" unicode="&#xe019;" horiz-adv-x="559" 
d="M525 111v-111h-448v540h434v-110h-295v-96h273v-111h-273v-112h309zM486 857c0 -28 -13 -43 -55 -65c-25 -13 -29 -17 -29 -39h-62c0 32 11 49 47 71c23 14 29 19 29 31c0 19 -18 33 -43 33c-27 0 -45 -15 -45 -46h-67c0 67 46 94 111 94c67 0 114 -33 114 -79zM486 598
h-94l-98 70l-99 -70h-91l130 135h128z" />
    <glyph glyph-name="ecircumflextilde.sc" unicode="&#xe01a;" horiz-adv-x="559" 
d="M525 111v-111h-448v540h434v-110h-295v-96h273v-111h-273v-112h309zM473 891c-4 -85 -36 -127 -95 -127c-15 0 -34 4 -55 12l-71 26c-12 4 -21 6 -30 6c-24 0 -35 -13 -40 -45h-63c4 78 39 124 94 124c19 0 20 0 56 -13l71 -25c7 -3 27 -6 34 -6c21 0 33 16 36 48h63z
M486 598h-94l-98 70l-99 -70h-91l130 135h128z" />
    <glyph glyph-name="edblgrave.sc" unicode="&#xe01b;" horiz-adv-x="559" 
d="M525 111v-111h-448v540h434v-110h-295v-96h273v-111h-273v-112h309zM435 598h-85l-111 154h126zM237 598h-85l-111 154h126z" />
    <glyph glyph-name="edotbelow.sc" unicode="&#xe01c;" horiz-adv-x="559" 
d="M525 111v-111h-448v540h434v-110h-295v-96h273v-111h-273v-112h309zM350 -205h-140v140h140v-140z" />
    <glyph glyph-name="ehookabove.sc" unicode="&#xe01d;" horiz-adv-x="559" 
d="M525 111v-111h-448v540h434v-110h-295v-96h273v-111h-273v-112h309zM406 710c0 -31 -13 -48 -55 -73c-25 -14 -29 -18 -29 -43h-62c0 36 11 55 47 79c23 16 29 21 29 35c0 21 -18 36 -43 36c-27 0 -45 -17 -45 -51h-67c0 75 46 104 111 104c67 0 114 -36 114 -87z" />
    <glyph glyph-name="eogonekacute.sc" unicode="&#xe01e;" horiz-adv-x="559" 
d="M525 -230h-63c-83 0 -147 30 -147 103c0 45 18 78 73 127h-311v540h434v-110h-295v-96h273v-111h-273v-112h309v-111c-36 0 -69 -16 -94 -42c-14 -14 -21 -29 -21 -50c0 -34 17 -48 52 -48h63v-90zM456 752l-126 -154h-100l70 154h156z" />
    <glyph glyph-name="ereversed.sc" unicode="&#xe01f;" horiz-adv-x="559" 
d="M525 540v-540h-448v111h309v112h-273v111h273v96h-295v110h434z" />
    <glyph glyph-name="etilde.sc" unicode="&#xe020;" horiz-adv-x="559" 
d="M525 111v-111h-448v540h434v-110h-295v-96h273v-111h-273v-112h309zM472 739c-4 -85 -36 -127 -95 -127c-15 0 -34 4 -55 12l-71 26c-12 4 -21 6 -30 6c-24 0 -35 -13 -40 -45h-63c4 78 39 124 94 124c19 0 20 0 56 -13l71 -25c7 -3 27 -6 34 -6c21 0 33 16 36 48h63z
" />
    <glyph glyph-name="eturned.sc" unicode="&#xe021;" horiz-adv-x="559" 
d="M525 0h-434v111h295v95h-273v111h273v113h-309v110h448v-540z" />
    <glyph glyph-name="gacute.sc" unicode="&#xe022;" horiz-adv-x="636" 
d="M584 353h-130c-20 61 -67 83 -128 83c-93 0 -149 -60 -149 -164c0 -100 63 -168 152 -168c59 0 118 33 131 86h-127v111h250v-301h-90l-12 58c-43 -46 -93 -67 -165 -67c-161 0 -278 116 -278 280c0 168 116 278 287 278c150 0 251 -77 259 -196zM501 752l-126 -154h-100
l70 154h156z" />
    <glyph glyph-name="gcaron.sc" unicode="&#xe023;" horiz-adv-x="636" 
d="M584 353h-130c-20 61 -67 83 -128 83c-93 0 -149 -60 -149 -164c0 -100 63 -168 152 -168c59 0 118 33 131 86h-127v111h250v-301h-90l-12 58c-43 -46 -93 -67 -165 -67c-161 0 -278 116 -278 280c0 168 116 278 287 278c150 0 251 -77 259 -196zM494 752l-108 -154h-127
l-103 154h88l82 -77l82 77h86z" />
    <glyph glyph-name="germandbls.sc" unicode="&#xe024;" horiz-adv-x="1178" 
d="M552 167c0 -111 -90 -176 -245 -176c-158 0 -253 70 -247 194h137c-7 -57 40 -86 117 -86c63 0 104 16 104 55c0 38 -29 47 -99 60l-79 14c-124 22 -170 64 -170 151c0 106 82 170 227 170c152 0 240 -66 235 -188h-132c7 54 -37 81 -108 81c-53 0 -88 -19 -88 -53
s24 -44 99 -57l89 -16c113 -20 160 -62 160 -149zM1118 167c0 -111 -90 -176 -245 -176c-157 0 -253 70 -247 194h137c-7 -57 40 -86 117 -86c63 0 104 16 104 55c0 38 -28 47 -98 60l-80 14c-124 22 -170 64 -170 151c0 106 83 170 227 170c152 0 240 -66 235 -188h-132
c7 54 -37 81 -108 81c-53 0 -88 -19 -88 -53s24 -44 99 -57l89 -16c113 -20 160 -62 160 -149z" />
    <glyph glyph-name="h_uni0303.sc" unicode="&#xe025;" horiz-adv-x="617" 
d="M551 540v-540h-139v235h-204v-235h-140v540h140v-194h204v194h139zM489 729c-4 -85 -36 -127 -95 -127c-15 0 -34 4 -55 12l-71 26c-12 4 -21 6 -30 6c-24 0 -35 -13 -40 -45h-63c4 78 39 124 94 124c19 0 20 0 56 -13l71 -25c7 -3 27 -6 34 -6c21 0 33 16 36 48h63z" />
    <glyph glyph-name="hbrevebelow.sc" unicode="&#xe026;" horiz-adv-x="617" 
d="M551 540v-540h-139v235h-204v-235h-140v540h140v-194h204v194h139zM490 -74c-8 -80 -71 -122 -182 -122c-101 0 -177 35 -179 122h71c6 -29 42 -40 110 -40c65 0 105 12 109 40h71z" />
    <glyph glyph-name="hdieresis.sc" unicode="&#xe027;" horiz-adv-x="617" 
d="M551 540v-540h-139v235h-204v-235h-140v540h140v-194h204v194h139zM276 608h-126v115h126v-115zM471 608h-126v115h126v-115z" />
    <glyph glyph-name="icaron.sc" unicode="&#xe028;" horiz-adv-x="269" 
d="M204 540v-540h-140v540h140zM303 752l-108 -154h-127l-103 154h88l82 -77l82 77h86z" />
    <glyph glyph-name="idblgrave.sc" unicode="&#xe029;" horiz-adv-x="269" 
d="M204 540v-540h-140v540h140zM275 598h-85l-111 154h126zM77 598h-85l-111 154h126z" />
    <glyph glyph-name="idieresisacute.sc" unicode="&#xe02a;" horiz-adv-x="269" 
d="M204 540v-540h-140v540h140zM99 618h-126v115h126v-115zM294 618h-126v115h126v-115zM322 933l-135 -135h-106l76 135h165z" />
    <glyph glyph-name="idotbelow.sc" unicode="&#xe02c;" horiz-adv-x="269" 
d="M204 540v-540h-140v540h140zM204 -205h-140v140h140v-140z" />
    <glyph glyph-name="ihookabove.sc" unicode="&#xe02d;" horiz-adv-x="269" 
d="M204 540v-540h-140v540h140zM246 710c0 -31 -13 -48 -55 -73c-25 -14 -29 -18 -29 -43h-62c0 36 11 55 47 79c23 16 29 21 29 35c0 21 -18 36 -43 36c-27 0 -45 -17 -45 -51h-67c0 75 46 104 111 104c67 0 114 -36 114 -87z" />
    <glyph glyph-name="imacron.alt.sc" unicode="&#xe02e;" horiz-adv-x="269" 
d="M204 540v-540h-140v540h140zM227 636h-187v79h187v-79z" />
    <glyph glyph-name="iogonekacute.sc" unicode="&#xe02f;" horiz-adv-x="269" 
d="M224 -230h-63c-83 0 -147 30 -147 103c0 45 18 78 73 127h-23v540h140v-540c-29 -7 -54 -21 -75 -42c-13 -14 -20 -29 -20 -50c0 -34 17 -48 52 -48h63v-90zM291 752l-126 -154h-100l70 154h156z" />
    <glyph glyph-name="jacute.sc" unicode="&#xe030;" horiz-adv-x="487" 
d="M417 540v-386c0 -103 -70 -163 -194 -163c-113 0 -189 59 -189 169v54h139v-53c0 -40 15 -57 52 -57c34 0 53 18 53 50v386h139zM504 752l-126 -154h-100l70 154h156z" />
    <glyph glyph-name="l_uni0303.sc" unicode="&#xe031;" horiz-adv-x="515" 
d="M490 0h-412v540h139v-429h273v-111zM325 739c-4 -85 -36 -127 -95 -127c-15 0 -34 4 -55 12l-71 26c-12 4 -21 6 -30 6c-24 0 -35 -13 -40 -45h-63c4 78 39 124 94 124c19 0 20 0 56 -13l71 -25c7 -3 27 -6 34 -6c21 0 33 16 36 48h63z" />
    <glyph glyph-name="lslash.sc" unicode="&#xe032;" horiz-adv-x="597" 
d="M545 0h-413v147l-90 -50v120l90 50v273h140v-203l164 91v-121l-164 -90v-106h273v-111z" />
    </font>
</defs>
</svg>
