<?xml version="1.0" standalone="no"?>
<!DOCTYPE svg PUBLIC "-//W3C//DTD SVG 1.1//EN" "http://www.w3.org/Graphics/SVG/1.1/DTD/svg11.dtd" >
<svg version="1.1" xmlns="http://www.w3.org/2000/svg">
<metadata>
Created by FontForge 20120731 at Fri Aug  1 16:50:36 2014
 By Alfred Xing
Font data copyright Google 2014
</metadata>
<defs>
<font id="Roboto-ThinItalic" horiz-adv-x="1097" >
  <font-face 
    font-family="Roboto"
    font-weight="250"
    font-style="italic"
    font-stretch="normal"
    units-per-em="2048"
    panose-1="0 0 0 0 0 0 0 0 0 0"
    ascent="1536"
    descent="-512"
    x-height="1082"
    cap-height="1456"
    bbox="-784 -554.995 2332.99 2163"
    underline-thickness="100"
    underline-position="-100"
    unicode-range="U+0002-FFFD"
  />
<missing-glyph horiz-adv-x="485" 
 />
    <glyph glyph-name="fi" unicode="fi" horiz-adv-x="1045" 
d="M143 0l176 1027h-180l7 55h183l23 134c8.66699 48.667 23.167 93.667 43.5 135s46 77.166 77 107.499s67.333 54.166 109 71.499s88.167 26.333 139.5 27c44.667 0.666992 88.334 -4 131.001 -14s84 -24.667 124 -44l-14 -50c-38.667 18.667 -77.5 32.5 -116.5 41.5
s-80.167 13.167 -123.5 12.5c-42.667 -0.666992 -81.667 -8.5 -117 -23.5s-66.333 -35.167 -93 -60.5s-48.834 -55.333 -66.501 -90s-30.5 -72.334 -38.5 -113.001l-24 -134h277l-8 -55h-278l-177 -1027h-54zM755 0.00292969h-54l186 1082h54z" />
    <glyph glyph-name=".notdef" horiz-adv-x="485" 
 />
    <glyph glyph-name="NULL" horiz-adv-x="10" 
 />
    <glyph glyph-name="NULL" horiz-adv-x="10" 
 />
    <glyph glyph-name="uni0002" horiz-adv-x="10" 
 />
    <glyph glyph-name="uni0009" unicode="&#x9;" horiz-adv-x="10" 
 />
    <glyph glyph-name="nonmarkingreturn" unicode="&#xd;" horiz-adv-x="485" 
 />
    <glyph glyph-name="space" unicode=" " horiz-adv-x="485" 
 />
    <glyph glyph-name="exclam" unicode="!" horiz-adv-x="395" 
d="M182 401h-54l181 1055h54zM47 51c2 13.333 9.16602 25.667 21.499 37s25.5 17 39.5 17c15.333 0 27.666 -6 36.999 -18s13 -25.333 11 -40c-2 -13.333 -9.33301 -25.5 -22 -36.5s-26 -16.5 -40 -16.5c-15.333 0.666992 -27.666 6.66699 -36.999 18
s-12.666 24.333 -9.99902 39z" />
    <glyph glyph-name="quotedbl" unicode="&#x22;" horiz-adv-x="515" 
d="M328 1388l-51 -266h-50l47 273l21 141h55zM523 1388l-51 -266h-50l47 273l22 141h54z" />
    <glyph glyph-name="numbersign" unicode="#" horiz-adv-x="1237" 
d="M699 410h-349l-143 -410h-57l142 410h-261l7 52h272l183 524h-289l8 54h300l145 415h57l-145 -415h350l146 415h57l-145 -415h245l-8 -54h-255l-185 -524h275l-7 -52h-285l-144 -410h-56zM368 462h348l185 524h-351z" />
    <glyph glyph-name="dollar" unicode="$" 
d="M878 344c9.33301 51.333 6.83203 95.8311 -7.50098 133.498s-36 70.5 -65 98.5s-63.5 52 -103.5 72s-81 38 -123 54c-48.667 18.667 -95.334 39.334 -140.001 62.001s-83 49.5 -115 80.5s-56 68 -72 111s-19.333 94.5 -10 154.5c8 55.333 24.833 104.833 50.5 148.5
s57.5 81 95.5 112s81.167 55.333 129.5 73s99.5 28.5 153.5 32.5l31 187h55l-31 -187c60.667 -5.33301 112.334 -19.833 155.001 -43.5s76.5 -54.5 101.5 -92.5s41.667 -82 50 -132s8.83301 -103.667 1.5 -161h-53c6.66699 50.667 6 98.667 -2 144s-23.833 85.333 -47.5 120
s-55.167 62.167 -94.5 82.5s-86.666 30.5 -141.999 30.5c-48 0 -94 -7.16699 -138 -21.5s-84 -35 -120 -62s-66.333 -59.667 -91 -98s-41.334 -81.833 -50.001 -130.5c-9.33301 -53.333 -7.16602 -98.833 6.50098 -136.5s35 -70.167 64 -97.5s63.5 -50.666 103.5 -69.999
s82 -37.333 126 -54c48 -18 94.167 -38.333 138.5 -61s82.666 -49.834 114.999 -81.501s56.5 -69.167 72.5 -112.5s19.667 -94.333 11 -153c-8 -55.333 -24.667 -104.666 -50 -147.999s-57 -80.333 -95 -111s-80.833 -55 -128.5 -73s-98.167 -29.333 -151.5 -34l-31 -188
h-55l31 187c-63.333 3.33301 -119.5 15.666 -168.5 36.999s-89.5 50.333 -121.5 87s-54.667 80.834 -68 132.501s-16 109.5 -8 173.5h53c-7.33301 -57.333 -4.83301 -109.333 7.5 -156s33.166 -86.5 62.499 -119.5s66.333 -58.333 111 -76s96 -26.167 154 -25.5
c46.667 0.666992 92.334 8.33398 137.001 23.001s85.167 35.5 121.5 62.5s67.333 59.667 93 98s42.834 81.166 51.501 128.499z" />
    <glyph glyph-name="percent" unicode="%" horiz-adv-x="1491" 
d="M209 1176c6.66699 38 19.001 75 37.001 111s40.5 68 67.5 96s58 50.667 93 68s73.5 26 115.5 26c41.333 0 76.833 -8.83301 106.5 -26.5s53.5 -40.667 71.5 -69s30.167 -60.5 36.5 -96.5s6.83301 -72.333 1.5 -109l-13 -77c-6.66699 -38 -18.834 -74.833 -36.501 -110.5
s-39.667 -67.5 -66 -95.5s-57 -50.5 -92 -67.5s-73.167 -25.5 -114.5 -25.5s-77 8.66699 -107 26s-54.333 40 -73 68s-31.167 59.833 -37.5 95.5s-6.83301 72.167 -1.5 109.5zM251.001 1099c-5.33301 -30 -6.16602 -59.502 -2.49902 -88.502s12.167 -55 25.5 -78
s31.666 -41.667 54.999 -56s52.333 -21.5 87 -21.5c34 0 65.167 7 93.5 21s53.333 32.333 75 55s39.667 48.5 54 77.5s24.5 59.167 30.5 90.5l15 77c4.66699 29.333 5.33398 58.5 2.00098 87.5s-11.333 55.333 -24 79s-30.5 42.834 -53.5 57.501s-51.833 22 -86.5 22
c-34 0 -65.333 -7 -94 -21s-54 -32.5 -76 -55.5s-40.333 -49.167 -55 -78.5s-25.334 -59.666 -32.001 -90.999zM801.001 356.998c6.66699 38 19 75 37 111s40.333 68 67 96s57.5 50.5 92.5 67.5s73.167 25.5 114.5 25.5s77 -8.66699 107 -26s54 -40.166 72 -68.499
s30.167 -60.5 36.5 -96.5s6.83301 -72.333 1.5 -109l-12 -78c-7.33301 -38 -19.666 -75 -36.999 -111s-39.333 -68 -66 -96s-57.5 -50.5 -92.5 -67.5s-73.5 -25.5 -115.5 -25.5c-41.333 0 -77 8.66699 -107 26s-54 40.166 -72 68.499s-30.333 60.333 -37 96
s-7.33398 72.167 -2.00098 109.5zM842.001 278.998c-4.66699 -30 -5.16895 -59.498 -1.50195 -88.498s12 -55 25 -78s31 -41.833 54 -56.5s51.833 -22 86.5 -22s66.167 6.83301 94.5 20.5s53.333 32 75 55s39.667 49.167 54 78.5s24.833 59.666 31.5 90.999l14 78
c4.66699 30 5.5 59.667 2.5 89s-10.833 55.5 -23.5 78.5s-30.667 41.667 -54 56s-52.666 21.5 -87.999 21.5s-67.166 -6.83301 -95.499 -20.5s-53.333 -31.834 -75 -54.501s-39.5 -48.667 -53.5 -78s-24.333 -60 -31 -92zM330.999 132l-42 32l885 1135l42 -32z" />
    <glyph glyph-name="ampersand" unicode="&#x26;" horiz-adv-x="1220" 
d="M441 803c-16.667 28 -32.5029 56.3301 -47.5029 84.9971s-27.5 58.167 -37.5 88.5s-17 61.333 -21 93s-3.33301 64.167 2 97.5c6.66699 43.333 19.667 83.833 39 121.5s43.833 70.5 73.5 98.5s63.834 50 102.501 66s80.667 24 126 24c38 0 72.5 -6.66699 103.5 -20
s57 -31.666 78 -54.999s36.167 -51.166 45.5 -83.499s11 -67.5 5 -105.5c-4.66699 -31.333 -14.667 -61 -30 -89s-33.833 -54.333 -55.5 -79s-45 -47.5 -70 -68.5s-49.5 -40.5 -73.5 -58.5l-171 -124l373 -536c46 54.667 83 113 111 175s48.333 128.333 61 199h55
c-13.333 -79.333 -35.666 -153.666 -66.999 -222.999s-73.666 -134 -126.999 -194l152 -215h-64l-123 175c-31.333 -27.333 -63.833 -52.833 -97.5 -76.5s-68.834 -44.167 -105.501 -61.5s-74.834 -31.166 -114.501 -41.499s-80.834 -15.5 -123.501 -15.5
c-56 0 -108.167 8.16699 -156.5 24.5s-89.666 40.333 -123.999 72s-59.666 70.5 -75.999 116.5s-20.166 99 -11.499 159c6.66699 44 20.167 85.333 40.5 124s44.833 75 73.5 109s60 65.667 94 95s68 56.666 102 81.999zM439.997 33.9971
c39.333 0 77.498 4.66797 114.498 14.001s72.5 22.333 106.5 39s66.833 36.167 98.5 58.5s61.5 46.5 89.5 72.5l-353 507l-26 38l-57 -40c-30 -22.667 -60.5 -47.334 -91.5 -74.001s-60 -55.5 -87 -86.5s-50.167 -64 -69.5 -99s-32.333 -72.167 -39 -111.5
c-8 -50.667 -5.16699 -95.667 8.5 -135s35.334 -72.5 65.001 -99.5s65.334 -47.667 107.001 -62s86.167 -21.5 133.5 -21.5zM392.995 1169c-5.33301 -30 -6.66602 -59.666 -3.99902 -88.999s8.33398 -58 17.001 -86s19.5 -55.333 32.5 -82s27.167 -52.334 42.5 -77.001
l174 125c20.667 15.333 41.834 32 63.501 50s41.667 37.5 60 58.5s34.166 43.5 47.499 67.5s22.666 49.667 27.999 77c5.33301 30 4.83301 57.667 -1.5 83s-17.5 47.333 -33.5 66s-36 33.5 -60 44.5s-51 16.5 -81 16.5c-37.333 0 -72 -6.66699 -104 -20
s-60.333 -31.5 -85 -54.5s-45.334 -49.833 -62.001 -80.5s-28 -63.667 -34 -99z" />
    <glyph glyph-name="quotesingle" unicode="'" horiz-adv-x="340" 
d="M314 1362l-50 -240h-51l47 248l26 166h55z" />
    <glyph glyph-name="parenleft" unicode="(" horiz-adv-x="599" 
d="M141 586c9.33301 60 22 122.834 38 188.501s35.5 131.334 58.5 197.001s49.833 130.5 80.5 194.5s65.167 124.333 103.5 181s81 108.5 128 155.5s98.5 87.167 154.5 120.5l13 -45c-51.333 -33.333 -98.333 -73 -141 -119s-81.834 -96 -117.501 -150
s-67.667 -111.167 -96 -171.5s-53.166 -121.5 -74.499 -183.5s-39.666 -123.833 -54.999 -185.5s-27.666 -121.167 -36.999 -178.5l-5 -26c-7.33301 -48.667 -13.333 -102.334 -18 -161.001s-6.5 -119 -5.5 -181s5.66699 -124.333 14 -187s21.666 -122.667 39.999 -180
s42.333 -110.333 72 -159s66.834 -90 111.501 -124l-24 -41c-48.667 36.667 -89.667 80.167 -123 130.5s-60.333 105 -81 164s-35.834 120.667 -45.501 185s-15.334 128.666 -17.001 192.999s-0.166992 127.333 4.5 189s11 119.5 19 173.5z" />
    <glyph glyph-name="parenright" unicode=")" horiz-adv-x="614" 
d="M443 566c-9.33301 -60.667 -22 -123.999 -38 -189.999s-35.333 -131.833 -58 -197.5s-49.167 -130.167 -79.5 -193.5s-64.833 -123.166 -103.5 -179.499s-81.5 -108 -128.5 -155s-98.833 -87.167 -155.5 -120.5l-13 45c50.667 33.333 97.5 73 140.5 119
s82.167 96.167 117.5 150.5s67.166 111.666 95.499 171.999s53.333 121.5 75 183.5s40.167 123.833 55.5 185.5s27.666 121.167 36.999 178.5l5 26c7.33301 48.667 13.333 102.334 18 161.001s6.5 119 5.5 181s-5.66699 124.333 -14 187s-21.666 122.5 -39.999 179.5
s-42.5 109.833 -72.5 158.5s-67 90 -111 124l24 41c48 -36 88.333 -79.333 121 -130s59.334 -105.5 80.001 -164.5s36 -121 46 -186s16 -129.833 18 -194.5s0.833008 -127.834 -3.5 -189.501s-10.5 -118.834 -18.5 -171.501z" />
    <glyph glyph-name="asterisk" unicode="*" horiz-adv-x="840" 
d="M445 1019l-332 123l24 52l332 -133l62 395h56l-68 -392l362 140l13 -54l-372 -138l194 -317l-49 -31l-185 321l-272 -323l-42 33z" />
    <glyph glyph-name="plus" unicode="+" horiz-adv-x="1126" 
d="M591 702h466l-8 -53h-467l-87 -503h-54l86 503h-447l7 53h449l87 504h55z" />
    <glyph glyph-name="comma" unicode="," horiz-adv-x="382" 
d="M130 27c-10 -55.333 -27.332 -106.5 -51.999 -153.5s-57.334 -89.833 -98.001 -128.5l-34 34c32.667 36.667 60 74.667 82 114s37.667 83.333 47 132l23 134h54z" />
    <glyph glyph-name="hyphen" unicode="-" horiz-adv-x="599" 
d="M524 639h-458l8 54h457z" />
    <glyph glyph-name="period" unicode="." horiz-adv-x="436" 
d="M47 51c2 13.333 9.16602 25.667 21.499 37s25.5 17 39.5 17c15.333 0 27.666 -6 36.999 -18s13 -25.333 11 -40c-2 -13.333 -9.33301 -25.5 -22 -36.5s-26 -16.5 -40 -16.5c-15.333 0.666992 -27.666 6.66699 -36.999 18s-12.666 24.333 -9.99902 39z" />
    <glyph glyph-name="slash" unicode="/" horiz-adv-x="769" 
d="M-25 -124h-60l862 1579h60z" />
    <glyph glyph-name="zero" unicode="0" 
d="M966 594c-8 -46 -18.8311 -93.165 -32.498 -141.498s-30.834 -95.333 -51.501 -141s-44.834 -88.5 -72.501 -128.5s-59.5 -75.167 -95.5 -105.5s-76.5 -54.166 -121.5 -71.499s-94.833 -26 -149.5 -26c-55.333 0 -102.833 9.33301 -142.5 28s-72.5 43.667 -98.5 75
s-46.333 67.666 -61 108.999s-24.667 84.666 -30 129.999s-7 91.333 -5 138s6.66699 91.334 14 134.001l46 268c8 46 19 93.167 33 141.5s31.333 95.166 52 140.499s44.834 88.333 72.501 129s59.5 76 95.5 106s76.5 53.833 121.5 71.5s94.833 26.5 149.5 26.5
c56 0 103.833 -9.33301 143.5 -28s72.5 -43.667 98.5 -75s46.167 -67.666 60.5 -108.999s24.166 -84.833 29.499 -130.5s6.83301 -91.834 4.5 -138.501s-6.83301 -91.334 -13.5 -134.001zM959.002 862.002c6 36.667 10.6699 76.001 14.0029 118.001s3.33301 83.833 0 125.5
s-10.5 81.5 -21.5 119.5s-27.333 71.667 -49 101s-49.834 52.833 -84.501 70.5s-77 26.5 -127 26.5c-49.333 0 -94.166 -8.16699 -134.499 -24.5s-76.666 -38.5 -108.999 -66.5s-61 -60.5 -86 -97.5s-46.667 -76.333 -65 -118s-33.833 -84.334 -46.5 -128.001
s-22.667 -85.834 -30 -126.501l-46 -266c-6 -36 -10.5 -75 -13.5 -117s-2.83301 -83.833 0.5 -125.5s10.5 -81.667 21.5 -120s27.5 -72.333 49.5 -102s50 -53.334 84 -71.001s76 -26.5 126 -26.5c49.333 0 94.166 8.16699 134.499 24.5s76.666 38.5 108.999 66.5
s61 60.667 86 98s46.667 76.833 65 118.5s33.666 84.334 45.999 128.001s22.166 85.834 29.499 126.501z" />
    <glyph glyph-name="one" unicode="1" 
d="M537 0h-54l240 1385l-431 -153l8 58l474 170h13z" />
    <glyph glyph-name="two" unicode="2" 
d="M901 0l-844.999 0.00195312l6 54l546 550c32 32.667 65.833 67.167 101.5 103.5s69.167 74.5 100.5 114.5s58.666 81.833 81.999 125.5s39 89.5 47 137.5c8.66699 50 8.16699 95.833 -1.5 137.5s-27 77.334 -52 107.001s-57.167 52.5 -96.5 68.5s-84.666 24 -135.999 24
c-54 0 -104.167 -10.167 -150.5 -30.5s-87.5 -47.833 -123.5 -82.5s-66.167 -74.667 -90.5 -120s-41.5 -93.333 -51.5 -144h-54c10 58 28.5 113 55.5 165s61 97.667 102 137s87.833 70.666 140.5 93.999s109.667 35 171 35c58.667 0 111.334 -9.33301 158.001 -28
s85.167 -45 115.5 -79s51.666 -75.167 63.999 -123.5s14.166 -101.833 5.49902 -160.5c-8 -54 -25.167 -105.5 -51.5 -154.5s-57.333 -95.833 -93 -140.5s-73.667 -87.334 -114 -128.001s-78.5 -79.334 -114.5 -116.001l-486 -492h772z" />
    <glyph glyph-name="three" unicode="3" 
d="M433 770h104.999c48.667 0.666992 97 7.83398 145 21.501s92.167 33.5 132.5 59.5s74.833 58.5 103.5 97.5s48 84.5 58 136.5c9.33301 50 9.33301 95.5 0 136.5s-26.5 76.333 -51.5 106s-57.167 52.834 -96.5 69.501s-84 25 -134 25c-53.333 0 -103.5 -8.5 -150.5 -25.5
s-89.167 -40.833 -126.5 -71.5s-69.166 -67.334 -95.499 -110.001s-45.166 -89.334 -56.499 -140.001h-54c11.333 58 31.5 111.667 60.5 161s64.833 91.666 107.5 126.999s90.667 63 144 83s110 30 170 30c58 0 110 -9.83301 156 -29.5s84 -47 114 -82s51 -76.667 63 -125
s13.333 -101.166 4 -158.499c-7.33301 -42.667 -20.833 -81.834 -40.5 -117.501s-44 -67.5 -73 -95.5s-61.333 -52.5 -97 -73.5s-73.167 -37.833 -112.5 -50.5c42.667 -12 80.167 -29.167 112.5 -51.5s58.666 -48.666 78.999 -78.999s34.166 -64.666 41.499 -102.999
s7.33301 -79.833 0 -124.5c-10 -61.333 -29.5 -116.833 -58.5 -166.5s-65 -92.334 -108 -128.001s-92 -63.167 -147 -82.5s-112.833 -29 -173.5 -29c-62 0 -118.833 10.333 -170.5 31s-95 49.834 -130 87.501s-60.5 82.5 -76.5 134.5s-20 109.333 -12 172h54
c-8 -54.667 -5.16699 -104.667 8.5 -150s35.5 -84.333 65.5 -117s67.333 -58.167 112 -76.5s94 -27.5 148 -27.5s105.167 8 153.5 24s91.5 39 129.5 69s70 66.5 96 109.5s44 91.5 54 145.5c10.667 60 8.5 110.833 -6.5 152.5s-39.167 75.667 -72.5 102
s-73.666 45.666 -120.999 57.999s-97.333 18.833 -150 19.5h-111z" />
    <glyph glyph-name="four" unicode="4" 
d="M792 451h243l-7 -54h-245l-69 -397h-53l68 397l-684 1l4 29l850 1028l66 1zM139 451h599l162 932l-102 -133z" />
    <glyph glyph-name="five" unicode="5" 
d="M253 763l184.004 693.001h690l-7 -53h-641l-163 -584c44 32 93.167 56 147.5 72s108.5 24.333 162.5 25c65.333 0 121.833 -12.167 169.5 -36.5s86.167 -57.333 115.5 -99s49.166 -89.834 59.499 -144.501s10.5 -112 0.5 -172
c-10.667 -64 -28.334 -125.167 -53.001 -183.5s-56.667 -109.833 -96 -154.5s-86.333 -80.167 -141 -106.5s-117.334 -39.5 -188.001 -39.5c-60.667 0 -113.834 10.167 -159.501 30.5s-83.667 48.333 -114 84s-52.333 78.167 -66 127.5s-18.834 103 -15.501 161h54
c-3.33301 -51.333 0.333984 -98.333 11.001 -141s28.5 -79.5 53.5 -110.5s57.167 -55 96.5 -72s86 -25.5 140 -25.5c62.667 0 118 11.667 166 35s89.333 54.666 124 93.999s63 84.833 85 136.5s38 105.834 48 162.501c9.33301 52 10.333 102 3 150s-23 90.5 -47 127.5
s-56.333 66.5 -97 88.5s-89.667 33.333 -147 34c-63.333 0.666992 -122.5 -8.83301 -177.5 -28.5s-107.5 -48.5 -157.5 -86.5z" />
    <glyph glyph-name="six" unicode="6" 
d="M952 1476l-7.00293 -54.0049h-17c-102 -1.33301 -193.333 -20.666 -274 -57.999s-151.167 -87.5 -211.5 -150.5s-111 -135.833 -152 -218.5s-72.833 -170 -95.5 -262c25.333 34 54 64.833 86 92.5s66.333 51.334 103 71.001s75.334 34.667 116.001 45
s82.667 15.5 126 15.5c67.333 0 124.5 -13.667 171.5 -41s84.5 -63.333 112.5 -108s46.333 -95.5 55 -152.5s8.66699 -115.5 0 -175.5c-6 -40 -15.667 -80 -29 -120s-30.166 -78.5 -50.499 -115.5s-44 -71.5 -71 -103.5s-57 -59.833 -90 -83.5s-69 -42.5 -108 -56.5
s-80.5 -21 -124.5 -21c-72 0 -134.333 14.333 -187 43s-95.167 66.834 -127.5 114.501s-54.5 102.334 -66.5 164.001s-13.333 125.167 -4 190.5l26 168c11.333 71.333 28 141 50 209s49.5 132.167 82.5 192.5s71.5 115.833 115.5 166.5s93.667 94.167 149 130.5
s116.333 64.833 183 85.5s139.334 31.334 218.001 32.001h21zM618.997 902.995c-41.333 0 -85.002 -6.66797 -131.002 -20.001s-89.5 -32.333 -130.5 -57s-77.333 -54.334 -109 -89.001s-53.834 -73.334 -66.501 -116.001l-21 -128
c-8.66699 -57.333 -8.5 -113.666 0.5 -168.999s27 -104.666 54 -147.999s63.333 -78.166 109 -104.499s101.167 -39.166 166.5 -38.499c58.667 0.666992 111.834 14.5 159.501 41.5s89.334 61.833 125.001 104.5s65 90.5 88 143.5s38.833 105.5 47.5 157.5
c8.66699 52.667 9.66699 104.5 3 155.5s-21.667 96.167 -45 135.5s-55.666 71.166 -96.999 95.499s-92.333 36.5 -153 36.5z" />
    <glyph glyph-name="seven" unicode="7" 
d="M1106 1422l-842 -1422h-56l832 1402h-840l7 54h903z" />
    <glyph glyph-name="eight" unicode="8" 
d="M1042 1086c-7.33301 -43.333 -20.665 -83.0039 -39.998 -119.004s-43.333 -68.333 -72 -97s-60.834 -53.5 -96.501 -74.5s-73.5 -38.167 -113.5 -51.5c40 -13.333 76.333 -31.666 109 -54.999s59.834 -50.666 81.501 -81.999s37 -66.166 46 -104.499
s10.167 -79.5 3.5 -123.5c-10 -64 -30.833 -120.667 -62.5 -170s-70.667 -91 -117 -125s-98.333 -59.833 -156 -77.5s-117.167 -26.5 -178.5 -26.5c-60 0 -115.833 8.83301 -167.5 26.5s-95.667 43.5 -132 77.5s-62.833 75.667 -79.5 125s-19.667 106 -9 170
c8 48 23 91.667 45 131s49.167 74.333 81.5 105s68.666 56.834 108.999 78.501s82.5 39.167 126.5 52.5c-36 14 -67.833 32.333 -95.5 55s-50.167 48.667 -67.5 78s-29.333 61.5 -36 96.5s-7 71.833 -1 110.5c9.33301 58.667 28.166 112 56.499 160s63.333 89 105 123
s89 60.333 142 79s108.833 28 167.5 28c56.667 0 108.667 -9.5 156 -28.5s87 -45.5 119 -79.5s55 -75 69 -123s16.333 -101 7 -159zM904.001 373.996c10 53.333 7.66797 101.167 -6.99902 143.5s-37.834 78.333 -69.501 108s-69.834 52.5 -114.501 68.5s-91.667 24 -141 24
c-52.667 0 -104.334 -7.83301 -155.001 -23.5s-97 -38.167 -139 -67.5s-77.833 -65.333 -107.5 -108s-49.5 -91 -59.5 -145c-10 -55.333 -7.83301 -104 6.5 -146s37.333 -77.5 69 -106.5s70 -50.833 115 -65.5s92.833 -22 143.5 -22c52.667 0 104.334 7.5 155.001 22.5
s96.834 37 138.501 66s77.167 64.5 106.5 106.5s49 90.333 59 145zM989.002 1091c8.66699 48 6.83203 92.168 -5.50098 132.501s-32.333 75.166 -60 104.499s-61.5 52.333 -101.5 69s-83.333 25 -130 25c-50 0 -98 -7.83301 -144 -23.5s-87.667 -38 -125 -67
s-69 -63.833 -95 -104.5s-43.667 -86 -53 -136c-9.33301 -49.333 -7.83301 -93.666 4.5 -132.999s32.333 -72.666 60 -99.999s61.5 -48.5 101.5 -63.5s83.333 -22.5 130 -22.5c48 0 95.167 7.5 141.5 22.5s88.333 36.167 126 63.5s69.834 60.666 96.501 99.999
s44.667 83.666 54 132.999z" />
    <glyph glyph-name="nine" unicode="9" 
d="M231 34c104 1.33301 195.33 20 273.997 56s146.334 84.667 203.001 146s103.334 133.333 140.001 216s64.667 171 84 265l1 8c-24 -38 -51.833 -72.833 -83.5 -104.5s-66.334 -58.834 -104.001 -81.501s-78 -40.167 -121 -52.5s-87.5 -18.5 -133.5 -18.5
c-44 0 -83.5 6.83301 -118.5 20.5s-66 32.334 -93 56.001s-49.667 51.334 -68 83.001s-32.666 65.5 -42.999 101.5s-16.666 73.5 -18.999 112.5s-0.5 77.833 5.5 116.5c6 41.333 16 82.833 30 124.5s31.667 81.5 53 119.5s46 73.667 74 107s59.333 62.333 94 87
s72.167 44 112.5 58s83.5 21.333 129.5 22c55.333 0 103.666 -7.66699 144.999 -23s76.666 -36.5 105.999 -63.5s52.833 -58.833 70.5 -95.5s30.834 -76.334 39.501 -119.001s12.834 -87.167 12.501 -133.5s-3.83301 -92.5 -10.5 -138.5l-25 -163
c-16.667 -104.667 -44.167 -203 -82.5 -295s-88.5 -172.333 -150.5 -241s-136.5 -123 -223.5 -163s-187.5 -60.333 -301.5 -61h-35l8 54h30zM490.997 522c46 0 92.9971 8 140.997 24s93 38.167 135 66.5s79 61.833 111 100.5s55 81 69 127l10 62
c6 39.333 9.66699 79.666 11 120.999s-1.16699 81.333 -7.5 120s-16.666 75 -30.999 109s-33.833 63.667 -58.5 89s-55 45.166 -91 59.499s-78.667 21.5 -128 21.5c-40.667 -0.666992 -78.834 -7.33398 -114.501 -20.001s-69 -30.167 -100 -52.5s-59.167 -48.5 -84.5 -78.5
s-47.666 -62.167 -66.999 -96.5s-35.5 -70 -48.5 -107s-22.5 -73.5 -28.5 -109.5c-5.33301 -32.667 -7.5 -66.167 -6.5 -100.5s5.5 -67.666 13.5 -99.999s19.5 -62.666 34.5 -90.999s33.833 -53.166 56.5 -74.499s49.334 -38.333 80.001 -51s65.334 -19 104.001 -19z" />
    <glyph glyph-name="colon" unicode=":" horiz-adv-x="363" 
d="M21 51c2 13.333 9.16602 25.667 21.499 37s25.5 17 39.5 17c15.333 0 27.666 -6 36.999 -18s13 -25.333 11 -40c-2 -13.333 -9.33301 -25.5 -22 -36.5s-26 -16.5 -40 -16.5c-15.333 0.666992 -27.666 6.66699 -36.999 18s-12.666 24.333 -9.99902 39zM190.999 1013
c2 13.333 9.16602 25.667 21.499 37s25.5 17 39.5 17c15.333 0 27.666 -6 36.999 -18s13 -25.333 11 -40c-2 -13.333 -9.33301 -25.5 -22 -36.5s-26 -16.5 -40 -16.5c-15.333 0.666992 -27.666 6.66699 -36.999 18s-12.666 24.333 -9.99902 39z" />
    <glyph glyph-name="semicolon" unicode=";" horiz-adv-x="363" 
d="M192 1013c2 13.333 9.16602 25.667 21.499 37s25.5 17 39.5 17c15.333 0 27.666 -6 36.999 -18s13 -25.333 11 -40c-2 -13.333 -9.33301 -25.5 -22 -36.5s-26 -16.5 -40 -16.5c-15.333 0.666992 -27.666 6.66699 -36.999 18s-12.666 24.333 -9.99902 39zM118.999 27.001
c-10 -55.333 -27.332 -106.5 -51.999 -153.5s-57.334 -89.833 -98.001 -128.5l-34 34c32.667 36.667 60 74.667 82 114s37.667 83.333 47 132l23 134h54z" />
    <glyph glyph-name="less" unicode="&#x3c;" horiz-adv-x="1031" 
d="M162 664l682 -343l-9 -59l-748 379l7 50l878 377l-8 -57z" />
    <glyph glyph-name="equal" unicode="=" horiz-adv-x="1118" 
d="M996 843h-811l8 54h810zM925 436h-810l7 54h811z" />
    <glyph glyph-name="greater" unicode="&#x3e;" horiz-adv-x="1031" 
d="M858 670l-676 343l8 59l748 -378l-7 -50l-877 -378l8 58z" />
    <glyph glyph-name="question" unicode="?" horiz-adv-x="876" 
d="M349 401c6.66699 36 16.001 69.498 28.001 100.498s26.667 60.167 44 87.5s37.333 53.333 60 78s48 49 76 73c30.667 26 60 52.333 88 79s53.167 54.834 75.5 84.501s41.5 61.5 57.5 95.5s27.667 71.667 35 113c7.33301 40.667 8.5 79.834 3.5 117.501
s-16.5 70.667 -34.5 99s-42.833 51.166 -74.5 68.499s-70.167 26 -115.5 26c-46.667 0 -89.5 -7.83301 -128.5 -23.5s-73.833 -37.167 -104.5 -64.5s-56.5 -59.666 -77.5 -96.999s-36.833 -77.666 -47.5 -120.999h-55c10.667 50 28.167 96.833 52.5 140.5
s54.166 81.667 89.499 114s75.833 57.833 121.5 76.5s95.167 28 148.5 28c52.667 0 98.167 -10 136.5 -30s69.166 -46.833 92.499 -80.5s39 -72.5 47 -116.5s8 -90.333 0 -139c-7.33301 -44.667 -19.666 -86.167 -36.999 -124.5s-38.333 -74.333 -63 -108
s-52.5 -65.334 -83.5 -95.001s-63.833 -57.834 -98.5 -84.501c-50 -39.333 -89.667 -83.166 -119 -131.499s-50.333 -103.833 -63 -166.5zM264.001 50.998c2 13.333 9.16504 25.667 21.498 37s25.5 17 39.5 17c15.333 0 27.833 -6 37.5 -18s13.167 -25.333 10.5 -40
c-2 -13.333 -9.33301 -25.5 -22 -36.5s-26 -16.5 -40 -16.5c-15.333 0.666992 -27.666 6.66699 -36.999 18s-12.666 24.333 -9.99902 39z" />
    <glyph glyph-name="at" unicode="@" horiz-adv-x="1855" 
d="M1702 523c-8 -36.667 -18.3291 -75.501 -30.9961 -116.501s-28.167 -81.5 -46.5 -121.5s-39.666 -78.5 -63.999 -115.5s-51.833 -69.5 -82.5 -97.5s-64.667 -50.333 -102 -67s-78.333 -25 -123 -25c-34 0 -63.5 6 -88.5 18s-45.167 28.5 -60.5 49.5
s-26.333 45.5 -33 73.5s-9 57.667 -7 89c-21.333 -31.333 -44.666 -61 -69.999 -89s-53 -52.5 -83 -73.5s-62.333 -37.5 -97 -49.5s-72 -18 -112 -18c-39.333 0 -71.666 7.83301 -96.999 23.5s-45.5 36 -60.5 61s-25.333 53.5 -31 85.5s-8.33398 64.833 -8.00098 98.5
s3 66.834 8 99.501s10.833 62 17.5 88c10 39.333 23.167 80.5 39.5 123.5s35.666 85 57.999 126s47.833 79.833 76.5 116.5s60.5 68.834 95.5 96.501s73 49.5 114 65.5s85.167 24 132.5 24c24.667 0 47.334 -2.66699 68.001 -8s40 -12.833 58 -22.5s35.333 -21.167 52 -34.5
s33.334 -28.333 50.001 -45l-148 -585c-6.66699 -28.667 -10.667 -58.167 -12 -88.5s2.16699 -58 10.5 -83s22.833 -45.667 43.5 -62s49.667 -24.5 87 -24.5c40 0 76.333 7.66699 109 23s62.167 35.833 88.5 61.5s49.833 55.167 70.5 88.5s38.667 68 54 104
s28.333 72.167 39 108.5s19.667 70.5 27 102.5c16.667 74 26.667 145.833 30 215.5s-0.833984 135.334 -12.501 197.001s-31.334 118.167 -59.001 169.5s-64.334 95.333 -110.001 132s-100.834 65.334 -165.501 86.001s-139.334 31 -224.001 31
c-82 0 -159.833 -11.333 -233.5 -34s-142.667 -54 -207 -94s-123.5 -87.5 -177.5 -142.5s-102.333 -114.833 -145 -179.5s-79.334 -133.167 -110.001 -205.5s-54.334 -145.833 -71.001 -220.5c-16 -69.333 -25 -139.333 -27 -210s3.5 -138.5 16.5 -203.5
s33.833 -125.667 62.5 -182s65.834 -105.333 111.501 -147s100.167 -74.334 163.5 -98.001s136.333 -35.5 219 -35.5c58.667 0 116.5 7 173.5 21s111.5 33.667 163.5 59l18 -48c-53.333 -30.667 -111.166 -52.834 -173.499 -66.501s-123.833 -20.5 -184.5 -20.5
c-89.333 0 -168.5 12.333 -237.5 37s-128.333 58.667 -178 102s-90.167 94.5 -121.5 153.5s-54.333 123 -69 192s-21.167 141.5 -19.5 217.5s10.5 152.333 26.5 229c17.333 82 41.833 162 73.5 240s69.834 151.5 114.501 220.5s95.5 132.5 152.5 190.5
s119.833 107.833 188.5 149.5s142.667 74.167 222 97.5s163.666 35 252.999 35s168.5 -11 237.5 -33s128.167 -52.833 177.5 -92.5s89.666 -86.834 120.999 -141.501s54 -115 68 -181s20.167 -136.167 18.5 -210.5s-10.834 -150.833 -27.501 -229.5zM586.004 435.999
c-6 -20 -11.8311 -43.832 -17.498 -71.499s-9.66699 -56.167 -12 -85.5s-2.33301 -58.5 0 -87.5s8.66602 -55 18.999 -78s25.5 -41.833 45.5 -56.5s46.333 -22.334 79 -23.001c44 -1.33301 86 7 126 25s76.667 41.667 110 71s62.666 62.666 87.999 99.999
s45.333 75.333 60 114l133 508c-21.333 28.667 -46.5 49.167 -75.5 61.5s-61.5 18.833 -97.5 19.5c-42 0 -81.333 -7.33301 -118 -22s-70.167 -34.667 -100.5 -60s-58.166 -54.666 -83.499 -87.999s-47.833 -68.5 -67.5 -105.5s-36.834 -74.5 -51.501 -112.5
s-27 -74.333 -37 -109z" />
    <glyph glyph-name="A" unicode="A" horiz-adv-x="1196" 
d="M911 435h-690l-233 -435h-60l778 1455l65 1l280 -1456h-57zM249 489h651l-168 899z" />
    <glyph glyph-name="B" unicode="B" horiz-adv-x="1208" 
d="M89 0l253.002 1456h367c58.667 -0.666992 114.834 -7.83398 168.501 -21.501s99.667 -35.334 138 -65.001s66.666 -68.167 84.999 -115.5s22.166 -104.333 11.499 -171c-7.33301 -42.667 -19.5 -82 -36.5 -118s-38.5 -68.167 -64.5 -96.5s-56.167 -52.333 -90.5 -72
s-72.5 -34.5 -114.5 -44.5c42.667 -7.33301 81 -21.666 115 -42.999s62.333 -47.666 85 -78.999s38.667 -66.666 48 -105.999s10.666 -80.333 3.99902 -123c-10 -63.333 -30.167 -119.833 -60.5 -169.5s-68 -91.5 -113 -125.5s-95.5 -60 -151.5 -78s-115 -27.333 -177 -28
h-467zM268.002 718.999l-115 -665h402c54 0.666992 105.833 8.5 155.5 23.5s94.5 37 134.5 66s73.833 64.833 101.5 107.5s46.834 92 57.501 148c9.33301 51.333 7.16602 96.833 -6.50098 136.5s-35.5 73 -65.5 100s-66.167 47.5 -108.5 61.5s-86.833 21.333 -133.5 22h-422
zM277.002 772.999l333.004 -0.00585938c53.333 0.666992 104.666 6.83398 153.999 18.501s94 29.834 134 54.501s74 56.834 102 96.501s47.333 87.834 58 144.501c10.667 58.667 8.16699 108 -7.5 148s-40.334 72.333 -74.001 97s-73.834 42.334 -120.501 53.001
s-95.334 16.334 -146.001 17.001h-323z" />
    <glyph glyph-name="C" unicode="C" horiz-adv-x="1297" 
d="M1128 445c-19.333 -70 -46.5049 -133.506 -81.5049 -190.506s-77 -106 -126 -147s-104.667 -72.5 -167 -94.5s-130.5 -33 -204.5 -33c-59.333 0 -111.5 9 -156.5 27s-84 42.333 -117 73s-60 66.834 -81 108.501s-36.667 86 -47 133s-15.666 96 -15.999 147
s3.5 101.167 11.5 150.5l37 218c9.33301 52.667 22.833 105 40.5 157s39.667 101.5 66 148.5s56.666 90.833 90.999 131.5s72.833 76 115.5 106s89.5 53.5 140.5 70.5s105.833 25.5 164.5 25.5c71.333 0 134.5 -11 189.5 -33s100.833 -53.167 137.5 -93.5
s63.667 -89.166 81 -146.499s24.333 -121 21 -191h-53c2.66699 62 -3.33301 118.333 -18 169s-37.667 93.834 -69 129.501s-71.166 63.167 -119.499 82.5s-104.5 29 -168.5 29c-53.333 0 -103 -8 -149 -24s-88.5 -37.667 -127.5 -65s-74.167 -59.666 -105.5 -96.999
s-59.166 -77.5 -83.499 -120.5s-44.666 -88 -60.999 -135s-28.833 -94.167 -37.5 -141.5l-39 -220c-7.33301 -44 -11.166 -88.833 -11.499 -134.5s3.5 -90.167 11.5 -133.5s20.833 -84.166 38.5 -122.499s40.834 -71.833 69.501 -100.5s63 -51.5 103 -68.5
s87 -25.5 141 -25.5c68 0 129.833 9.5 185.5 28.5s105.5 46.5 149.5 82.5s82 79.333 114 130s57.667 107.334 77 170.001h54z" />
    <glyph glyph-name="D" unicode="D" horiz-adv-x="1310" 
d="M89 0l253.006 1456h387c59.333 -0.666992 113.666 -9.33398 162.999 -26.001s93.166 -39.5 131.499 -68.5s71 -63.333 98 -103s48.333 -83 64 -130s25.167 -97 28.5 -150s0.666016 -106.833 -8.00098 -161.5l-30 -178c-15.333 -86 -42.833 -167.333 -82.5 -244
s-89.334 -144.167 -149.001 -202.5s-128.334 -104.833 -206.001 -139.5s-161.834 -52.334 -252.501 -53.001h-397zM387.006 1402l-234.001 -1348h333c82 1.33301 158.5 18 229.5 50s134.167 74.667 189.5 128s101.5 115 138.5 185s62.833 144 77.5 222l32 181
c12.667 74 12.834 145.667 0.500977 215s-36.5 131 -72.5 185s-83.5 97.5 -142.5 130.5s-128.833 50.167 -209.5 51.5h-342z" />
    <glyph glyph-name="E" unicode="E" horiz-adv-x="1141" 
d="M978 722h-709l-116 -668h806l-8 -54h-862l253 1456h860l-8 -54h-807l-109 -626h707z" />
    <glyph glyph-name="F" unicode="F" horiz-adv-x="1147" 
d="M992 716h-724l-124 -716h-54l252 1456h875l-7 -54h-823l-110 -630h723z" />
    <glyph glyph-name="G" unicode="G" horiz-adv-x="1374" 
d="M1115 156c-30 -34 -65.335 -62.1699 -106.002 -84.5029s-83.834 -40.333 -129.501 -54s-92.167 -23.334 -139.5 -29.001s-92.333 -8.5 -135 -8.5c-59.333 0 -112.5 8.66699 -159.5 26s-88.167 41 -123.5 71s-65 65.5 -89 106.5s-42.333 85.167 -55 132.5
s-20 96.833 -22 148.5s1.33301 103.5 10 155.5l41 238c9.33301 52.667 23.333 104.5 42 155.5s41.834 99.333 69.501 145s59.5 87.834 95.5 126.501s75.833 72.167 119.5 100.5s90.834 50.5 141.501 66.5s105 24 163 24c64 0 122.667 -9.33301 176 -28
s99.166 -45.667 137.499 -81s67.833 -78.666 88.5 -129.999s30.334 -109.666 29.001 -174.999h-53c0 58 -8.83301 109.333 -26.5 154s-43 82.167 -76 112.5s-72.833 53.5 -119.5 69.5s-98.667 24 -156 24c-78.667 0 -150.334 -15.833 -215.001 -47.5
s-121.5 -73.667 -170.5 -126s-89.667 -112.166 -122 -179.499s-55.166 -137 -68.499 -209l-42 -240c-8 -46.667 -11.5 -93.5 -10.5 -140.5s6.5 -92.167 16.5 -135.5s25.167 -83.833 45.5 -121.5s46 -70.5 77 -98.5s67.667 -50 110 -66s90.833 -24 145.5 -24
c38.667 0 78.834 2.5 120.501 7.5s82.667 13.167 123 24.5s78.833 26.5 115.5 45.5s69.667 42.167 99 69.5l75 424h-430l7 55h487z" />
    <glyph glyph-name="H" unicode="H" horiz-adv-x="1405" 
d="M1099 0h-54l124 722h-900l-125 -722h-54l251 1456h54l-117 -680h900l118 680h53z" />
    <glyph glyph-name="I" unicode="I" horiz-adv-x="528" 
d="M183 0h-54l251 1456h54z" />
    <glyph glyph-name="J" unicode="J" horiz-adv-x="1101" 
d="M997 1456h54.0049l-175 -1014c-11.333 -62 -30.333 -120.833 -57 -176.5s-60.5 -104.667 -101.5 -147s-88.667 -76 -143 -101s-114.833 -37.5 -181.5 -37.5c-65.333 0 -121.5 10.333 -168.5 31s-84.667 49.667 -113 87s-47.666 81.833 -57.999 133.5
s-10.833 108.167 -1.5 169.5h54c-8.66699 -53.333 -9.33398 -102.5 -2.00098 -147.5s22.666 -83.833 45.999 -116.5s55.166 -58 95.499 -76s89.166 -27 146.499 -27c58 0 111.167 11.167 159.5 33.5s90.666 52.333 126.999 90s66.666 81 90.999 130s41.5 100.5 51.5 154.5z
" />
    <glyph glyph-name="K" unicode="K" horiz-adv-x="1271" 
d="M505 765l-267 -217l-94 -548h-54l251 1456h54l-145 -836l268 228l692 608l84 -1l-748 -656l541 -799h-66z" />
    <glyph glyph-name="L" unicode="L" horiz-adv-x="1035" 
d="M154 54h723l-7 -54h-781l252 1456h55z" />
    <glyph glyph-name="M" unicode="M" horiz-adv-x="1713" 
d="M416 1456l342 -1375l821 1375h80l-252 -1456h-54l237 1367l-820 -1367h-42l-347 1369l-237 -1369h-54l252 1456h74z" />
    <glyph glyph-name="N" unicode="N" horiz-adv-x="1416" 
d="M1110 0h-52l-676 1366l-237 -1366h-55l250 1456h53l677 -1363l236 1363h54z" />
    <glyph glyph-name="O" unicode="O" horiz-adv-x="1333" 
d="M1199 619c-9.33301 -54 -23.501 -107.333 -42.501 -160s-42.167 -102.667 -69.5 -150s-59 -91 -95 -131s-76 -74.667 -120 -104s-92 -52.333 -144 -69s-108 -25 -168 -25c-59.333 0 -112.333 8.66699 -159 26s-87.334 41 -122.001 71s-63.334 65.5 -86.001 106.5
s-40 85.167 -52 132.5s-18.667 96.833 -20 148.5s2.33398 103.167 11.001 154.5l37 218c10 54 24.333 107.333 43 160s41.667 102.667 69 150s58.833 91 94.5 131s75.667 74.667 120 104s92.5 52.333 144.5 69s108 25 168 25c59.333 0 112.333 -8.66699 159 -26
s87.334 -41 122.001 -71s63.334 -65.5 86.001 -106.5s40 -85.167 52 -132.5s18.5 -96.833 19.5 -148.5s-2.5 -103.167 -10.5 -154.5zM1183 839c8 46.667 11.8291 93.334 11.4961 140.001s-5.16602 91.5 -14.499 134.5s-23.666 83.333 -42.999 121
s-44.166 70.334 -74.499 98.001s-66.666 49.5 -108.999 65.5s-90.833 24 -145.5 24c-82 0 -155.833 -16.5 -221.5 -49.5s-123 -76.833 -172 -131.5s-89.5 -116.834 -121.5 -186.501s-54.667 -141.5 -68 -215.5l-38 -220c-8 -46.667 -11.833 -93.334 -11.5 -140.001
s5 -91.667 14 -135s23.167 -83.833 42.5 -121.5s44.166 -70.5 74.499 -98.5s66.333 -50 108 -66s90.167 -24 145.5 -24c54.667 0 105.834 7.66699 153.501 23s91.667 36.333 132 63s76.833 58.5 109.5 95.5s61.5 77.167 86.5 120.5s46 89 63 137s30.167 96.667 39.5 146z
" />
    <glyph glyph-name="P" unicode="P" horiz-adv-x="1203" 
d="M250 615l-106.001 -614.999h-54l252 1456h437c64.667 -0.666992 123.334 -10.667 176.001 -30s96.5 -47 131.5 -83s59.833 -80.333 74.5 -133s16.667 -112.334 6 -179.001c-11.333 -68 -32.5 -127.667 -63.5 -179s-69.5 -94.5 -115.5 -129.5s-98.5 -61.5 -157.5 -79.5
s-121.5 -27.333 -187.5 -28h-393zM258.999 669.001l384 -0.00292969c56.667 0.666992 111 8.83398 163 24.501s99 38.5 141 68.5s77.333 67.333 106 112s48.667 96.334 60 155.001c10.667 58.667 10 111 -2 157s-33 84.833 -63 116.5s-68 55.834 -114 72.501
s-97.333 25.667 -154 27h-393z" />
    <glyph glyph-name="Q" unicode="Q" horiz-adv-x="1333" 
d="M1199 619c-11.333 -61.333 -27.667 -121.167 -49 -179.5s-48.333 -113 -81 -164s-71.334 -97.333 -116.001 -139s-96 -76.5 -154 -104.5l214 -262l-41 -33l-228 272c-30 -9.33301 -60.167 -16.5 -90.5 -21.5s-61.5 -7.5 -93.5 -7.5c-59.333 0 -112.333 8.66699 -159 26
s-87.334 41 -122.001 71s-63.334 65.5 -86.001 106.5s-40 85.167 -52 132.5s-18.667 96.833 -20 148.5s2.33398 103.167 11.001 154.5l37 218c10 54 24.333 107.333 43 160s41.667 102.667 69 150s58.833 91 94.5 131s75.667 74.667 120 104s92.5 52.333 144.5 69
s108 25 168 25c59.333 0 112.333 -8.66699 159 -26s87.334 -41 122.001 -71s63.334 -65.5 86.001 -106.5s40 -85.167 52 -132.5s18.5 -96.833 19.5 -148.5s-2.5 -103.167 -10.5 -154.5zM1183 838.999c8 46.667 11.8291 93.334 11.4961 140.001s-5.16602 91.5 -14.499 134.5
s-23.666 83.333 -42.999 121s-44.166 70.334 -74.499 98.001s-66.666 49.5 -108.999 65.5s-90.833 24 -145.5 24c-82 0 -155.833 -16.5 -221.5 -49.5s-123 -76.833 -172 -131.5s-89.5 -116.834 -121.5 -186.501s-54.667 -141.5 -68 -215.5l-38 -220
c-8 -46.667 -11.833 -93.334 -11.5 -140.001s5 -91.667 14 -135s23.167 -83.833 42.5 -121.5s44.166 -70.5 74.499 -98.5s66.333 -50 108 -66s90.167 -24 145.5 -24c54.667 0 105.834 7.66699 153.501 23s91.667 36.333 132 63s76.833 58.5 109.5 95.5
s61.5 77.167 86.5 120.5s46 89 63 137s30.167 96.667 39.5 146z" />
    <glyph glyph-name="R" unicode="R" horiz-adv-x="1310" 
d="M737 623l-489.999 0.00195312l-108 -623h-53l251 1456h446c62.667 -0.666992 120.667 -10.5 174 -29.5s98.333 -46.333 135 -82s63.167 -79.5 79.5 -131.5s19.166 -111 8.49902 -177c-8.66699 -50.667 -24.5 -97.834 -47.5 -141.501s-51.5 -82.834 -85.5 -117.501
s-72.667 -64.167 -116 -88.5s-89.333 -41.833 -138 -52.5l269 -622l-2 -14h-55zM256.001 677.002l439.001 -0.000976562c52.667 0.666992 102.834 10 150.501 28s90.667 42.833 129 74.5s70.666 69.334 96.999 113.001s44.5 91.5 54.5 143.5
c10.667 58.667 9.16699 110.5 -4.5 155.5s-36.5 83 -68.5 114s-71.333 54.667 -118 71s-97.334 24.833 -152.001 25.5h-401z" />
    <glyph glyph-name="S" unicode="S" horiz-adv-x="1185" 
d="M1000 349c6.66699 38.667 6.5 73.499 -0.5 104.499s-19.333 58.5 -37 82.5s-39.334 45.333 -65.001 64s-53.5 35.167 -83.5 49.5s-61.167 27 -93.5 38s-63.5 21.167 -93.5 30.5c-33.333 10 -67.5 21 -102.5 33s-68.667 25.833 -101 41.5s-62.333 33.5 -90 53.5
s-51 43.333 -70 70s-32.833 56.667 -41.5 90s-9.66699 71.333 -3 114c8.66699 62 30.334 115.333 65.001 160s76.334 81.5 125.001 110.5s102 50.5 160 64.5s115 21 171 21c63.333 0 121.833 -10.167 175.5 -30.5s99 -49.333 136 -87s64.5 -82.834 82.5 -135.501
s23 -111.667 15 -177h-54c7.33301 56.667 3.5 108.167 -11.5 154.5s-38.667 86 -71 119s-71.833 58.333 -118.5 76s-98 26.5 -154 26.5c-47.333 0 -96.5 -5.83301 -147.5 -17.5s-98.5 -29.667 -142.5 -54s-82 -55.333 -114 -93s-52.667 -82.834 -62 -135.501
c-10 -56 -4.66699 -103.333 16 -142s50 -71.5 88 -98.5s80.667 -49.167 128 -66.5s92.666 -32.333 135.999 -45c52 -15.333 104.5 -33.5 157.5 -54.5s100.167 -47.667 141.5 -80s73.166 -71.5 95.499 -117.5s28.833 -101.667 19.5 -167
c-9.33301 -64 -31.5 -119.167 -66.5 -165.5s-77.5 -84.666 -127.5 -114.999s-104.667 -53 -164 -68s-118 -22.5 -176 -22.5c-66.667 0 -129.667 8.66699 -189 26s-110.5 44 -153.5 80s-75.333 81 -97 135s-28.167 117.333 -19.5 190h53c-8 -64 -2.5 -119.833 16.5 -167.5
s47.5 -87 85.5 -118s83.333 -54 136 -69s108.334 -22.5 167.001 -22.5c50 0 101.167 6.16699 153.5 18.5s101 31.333 146 57s83.667 58.334 116 98.001s53.5 86.834 63.5 141.501z" />
    <glyph glyph-name="T" unicode="T" horiz-adv-x="1197" 
d="M1275 1402h-515l-242 -1402h-54l242 1402h-513l7 54h1082z" />
    <glyph glyph-name="U" unicode="U" horiz-adv-x="1334" 
d="M1293 1456l-169.998 -987.003c-12.667 -72 -35.167 -137.833 -67.5 -197.5s-72.833 -111.167 -121.5 -154.5s-104.5 -77 -167.5 -101s-131.833 -36 -206.5 -36c-72.667 0 -136.667 12.167 -192 36.5s-100.5 58.333 -135.5 102s-59.333 95.334 -73 155.001
s-14.834 124.834 -3.50098 195.501l171 987h53l-170 -987c-10 -61.333 -9.5 -118.5 1.5 -171.5s31.667 -99 62 -138s69.666 -69.667 117.999 -92s104.5 -33.5 168.5 -33.5c65.333 0 126.333 10.833 183 32.5s107.167 51.834 151.5 90.501s81.5 84.5 111.5 137.5
s51 111.167 63 174.5l170 987h54z" />
    <glyph glyph-name="V" unicode="V" horiz-adv-x="1196" 
d="M494 142l13 -85l43 89l678 1309h60l-753 -1455h-65l-303 1457h57z" />
    <glyph glyph-name="W" unicode="W" horiz-adv-x="1809" 
d="M369 326l25 -232l102 240l507 1122h60l157 -1130l24 -232l105 240l465 1121h60l-606 -1455h-60l-163 1218l-23 147l-73 -155l-540 -1210h-61l-156 1456h58z" />
    <glyph glyph-name="X" unicode="X" horiz-adv-x="1196" 
d="M619 786l561 669h69l-601 -716l393 -739h-64l-366 700l-586 -700h-67l624 747l-379 710h65z" />
    <glyph glyph-name="Y" unicode="Y" horiz-adv-x="1196" 
d="M589 604l642 851l68 -1l-690 -905l-94 -549h-54l96 558l-378 899h69z" />
    <glyph glyph-name="Z" unicode="Z" horiz-adv-x="1197" 
d="M81 54h930l-7 -54h-1006l6 44l1111 1359h-859l6 53l937 -1l-5 -37z" />
    <glyph glyph-name="bracketleft" unicode="[" horiz-adv-x="436" 
d="M610 1610h-223l-292 -1868h221l-7 -54h-277l309 1976h275z" />
    <glyph glyph-name="backslash" unicode="\" horiz-adv-x="761" 
d="M203 1457h56l318 -1583h-56z" />
    <glyph glyph-name="bracketright" unicode="]" horiz-adv-x="436" 
d="M157 1664h277l-309 -1976h-275l7 54h222l291 1868h-220z" />
    <glyph glyph-name="asciicircum" unicode="^" horiz-adv-x="834" 
d="M541 1380l-370 -650h-61l414 726h51l168 -728h-59z" />
    <glyph glyph-name="underscore" unicode="_" horiz-adv-x="830" 
d="M708 -54h-822l8 54h822z" />
    <glyph glyph-name="grave" unicode="`" horiz-adv-x="531" 
d="M494 1249h-56l-152 268h63z" />
    <glyph glyph-name="a" unicode="a" horiz-adv-x="1059" 
d="M741 0c-1.33301 34 -0.167969 67.332 3.49902 99.999s8.83398 65.334 15.501 98.001c-56 -68.667 -122.5 -122.334 -199.5 -161.001s-160.5 -57.667 -250.5 -57c-42.667 0 -82.5 7 -119.5 21s-68.333 33.667 -94 59s-44.667 56 -57 92s-14.833 76.667 -7.5 122
c6.66699 41.333 19.5 78.166 38.5 110.499s42.5 60.666 70.5 84.999s59.5 45 94.5 62s71.333 30.833 109 41.5s75.667 18.334 114 23.001s75.5 7.33398 111.5 8.00098h255l29 158c7.33301 46 6 86.833 -4 122.5s-27 65.5 -51 89.5s-54 42.333 -90 55s-76.333 19 -121 19
c-42 0 -83.667 -5.83301 -125 -17.5s-79.5 -28.5 -114.5 -50.5s-65.333 -49.333 -91 -82s-43.5 -70.334 -53.5 -113.001l-54 2c10 50 29.333 94.5 58 133.5s63 71.833 103 98.5s84 47.167 132 61.5s96.333 21.5 145 21.5c52 0 99.5 -7.66699 142.5 -23
s78.833 -37.666 107.5 -66.999s49.167 -65.166 61.5 -107.499s14.5 -90.5 6.5 -144.5l-93 -542c-6 -34 -10.5 -68.667 -13.5 -104s-1.5 -70.333 4.5 -105l-1 -9h-62zM308.998 32.999c48.667 -0.666992 95.167 5.1709 139.5 17.5039s86 29.666 125 51.999
s75 49.666 108 81.999s62.5 68.166 88.5 107.499l46 257h-242c-30.667 -0.666992 -63.167 -2.83398 -97.5 -6.50098s-68.5 -10 -102.5 -19s-66.833 -20.5 -98.5 -34.5s-60.5 -31.167 -86.5 -51.5s-48.167 -44.333 -66.5 -72s-30.833 -59.5 -37.5 -95.5s-5 -68.5 5 -97.5
s25.667 -53.833 47 -74.5s47 -36.5 77 -47.5s61.667 -16.833 95 -17.5z" />
    <glyph glyph-name="b" unicode="b" 
d="M958 531c-7.33301 -42 -17.4971 -84.668 -30.4971 -128.001s-29.333 -85.5 -49 -126.5s-42.667 -79.333 -69 -115s-56.166 -67 -89.499 -94s-70.5 -48.333 -111.5 -64s-86.167 -23.5 -135.5 -23.5c-35.333 0 -69.333 3.83301 -102 11.5s-63.334 19.334 -92.001 35.001
s-54.334 35.5 -77.001 59.5s-41.334 52.333 -56.001 85l-31 -171h-54l265 1536h54l-116 -651c23.333 32.667 49.166 62.334 77.499 89.001s58.833 49.5 91.5 68.5s67.667 33.667 105 44s76.666 15.5 117.999 15.5c50 0 93.333 -8.16699 130 -24.5
s67.334 -38.166 92.001 -65.499s44.167 -59.333 58.5 -96s24.5 -75.334 30.5 -116.001s8.16699 -82.334 6.5 -125.001s-5.5 -83.667 -11.5 -123zM906.003 551.999c5.33301 33.333 9.33203 68.832 11.999 106.499s2.16699 74.834 -1.5 111.501
s-10.834 71.834 -21.501 105.501s-26.167 63.167 -46.5 88.5s-46.166 45.666 -77.499 60.999s-69.333 23 -114 23c-42 0 -84.333 -6.66699 -127 -20s-82.5 -32.333 -119.5 -57s-69.667 -54 -98 -88s-49.5 -71.667 -63.5 -113l-89 -496c8 -39.333 21.333 -74 40 -104
s41.667 -55 69 -75s58.333 -35.167 93 -45.5s71.667 -15.5 111 -15.5c44 0 84.333 7.16699 121 21.5s69.667 33.666 99 57.999s55.5 52.833 78.5 85.5s43 67.334 60 104.001s31.333 74.5 43 113.5s20.834 77.167 27.501 114.5z" />
    <glyph glyph-name="c" unicode="c" horiz-adv-x="1018" 
d="M420 34c46.667 0 90.9961 6.83789 132.996 20.5049s79.833 33.334 113.5 59.001s62.834 56.5 87.501 92.5s43.667 76.333 57 121h54c-12.667 -52 -32.834 -99.167 -60.501 -141.5s-61 -78.833 -100 -109.5s-82.667 -54.334 -131 -71.001s-99.166 -25 -152.499 -25
c-50.667 0 -95.167 7.5 -133.5 22.5s-71.166 35.5 -98.499 61.5s-49.833 56.5 -67.5 91.5s-30.667 72.5 -39 112.5s-12.5 81.5 -12.5 124.5s3.33301 85.5 10 127.5l7 42c8 44.667 19.333 88.834 34 132.501s32.667 85.5 54 125.5s46.333 77.167 75 111.5
s60.834 64.166 96.501 89.499s74.834 45.166 117.501 59.499s89 21.5 139 21.5c56 0 105.667 -9.5 149 -28.5s79.333 -45.333 108 -79s49.5 -73.5 62.5 -119.5s17.167 -96 12.5 -150h-53c4.66699 46 1.66699 88.667 -9 128s-28 73.5 -52 102.5s-54.167 51.667 -90.5 68
s-78.5 24.5 -126.5 24.5c-68 0 -128.167 -14.167 -180.5 -42.5s-97.5 -65.5 -135.5 -111.5s-69.167 -98 -93.5 -156s-42.166 -116.667 -53.499 -176l-7 -42c-6 -36.667 -9.66699 -74.334 -11 -113.001s1 -75.834 7 -111.501s16 -69.334 30 -101.001
s32.667 -59.334 56 -83.001s51.666 -42.5 84.999 -56.5s73 -21 119 -21z" />
    <glyph glyph-name="d" unicode="d" 
d="M109 552c7.33301 42.667 17.6709 85.8291 31.0039 129.496s29.666 85.834 48.999 126.501s42.166 78.834 68.499 114.501s56.333 66.667 90 93s71 47.333 112 63s86.5 23.5 136.5 23.5c38 0 73.667 -4.83301 107 -14.5s63.666 -23.667 90.999 -42
s51.5 -41.166 72.5 -68.499s37.833 -58.666 50.5 -93.999l114 653h54l-265 -1536h-54l34 173c-48 -60.667 -105.333 -108 -172 -142s-139.334 -51 -218.001 -51c-50 0 -93 8.16699 -129 24.5s-66.333 38.5 -91 66.5s-44 60.333 -58 97s-24 75.5 -30 116.5
s-8.33301 82.667 -7 125s5 82.833 11 121.5zM162.005 530.995c-6 -33.333 -10.166 -68.667 -12.499 -106s-1.83301 -74.5 1.5 -111.5s10.166 -72.333 20.499 -106s25.666 -63.334 45.999 -89.001s46 -46.167 77 -61.5s68.833 -23 113.5 -23
c86.667 -0.666992 164.5 20 233.5 62s125.5 99.333 169.5 172l90 507c-6.66699 41.333 -18.167 78.833 -34.5 112.5s-37.166 62.334 -62.499 86.001s-55.5 42 -90.5 55s-74.167 19.5 -117.5 19.5c-66 0 -123.667 -15.333 -173 -46s-91.333 -70 -126 -118
s-62.667 -101.333 -84 -160s-37 -116 -47 -172z" />
    <glyph glyph-name="e" unicode="e" horiz-adv-x="1011" 
d="M442 -20c-48.667 0 -92.502 7.33008 -131.502 21.9971s-73.5 34.834 -103.5 60.501s-55.167 55.834 -75.5 90.501s-36.166 72 -47.499 112s-18.166 81.5 -20.499 124.5s-0.166016 85.833 6.50098 128.5l7 44c7.33301 43.333 19 86.666 35 129.999s35.5 85 58.5 125
s49.667 77.333 80 112s63.833 64.834 100.5 90.501s76.5 45.834 119.5 60.501s88.5 22 136.5 22c64.667 0 119.667 -13.5 165 -40.5s81.166 -62.167 107.499 -105.5s43.833 -92.666 52.5 -147.999s8.66699 -111.333 0 -168l-10 -63h-785l-4 -15l-8 -44
c-6.66699 -37.333 -9.5 -75 -8.5 -113s6 -75 15 -111s22.167 -69.667 39.5 -101s38.833 -58.833 64.5 -82.5s55.5 -42.5 89.5 -56.5s72.667 -21 116 -21c68 -0.666992 129.667 12.166 185 38.499s107 62.833 155 109.5l36 -29c-49.333 -54.667 -105.5 -97 -168.5 -127
s-131.833 -45 -206.5 -45zM607.998 1048c-59.333 0 -113.667 -12.001 -163 -36.001s-93.5 -55.833 -132.5 -95.5s-72.667 -84.5 -101 -134.5s-50.833 -100.333 -67.5 -151h729l3 13c9.33301 48 10.833 95.833 4.5 143.5s-20.5 90.834 -42.5 129.501
s-52.167 70.167 -90.5 94.5s-84.833 36.5 -139.5 36.5z" />
    <glyph glyph-name="f" unicode="f" horiz-adv-x="636" 
d="M143 0l176.005 1027h-180l7 55h184l25 154c8 43.333 20.667 84.333 38 123s39.666 72.667 66.999 102s59.5 52.5 96.5 69.5s79.167 25.833 126.5 26.5c42 0 84 -6 126 -18l-15 -50c-18.667 4.66699 -37 8.33398 -55 11.001s-36.667 3.66699 -56 3
c-38.667 -0.666992 -73.334 -8.33398 -104.001 -23.001s-57.334 -34.167 -80.001 -58.5s-41.334 -52.5 -56.001 -84.5s-25.334 -65.667 -32.001 -101l-28 -154h277l-8 -55h-278l-177 -1027h-54z" />
    <glyph glyph-name="g" unicode="g" horiz-adv-x="1099" 
d="M108 552c7.33301 42.667 17.6699 85.8311 31.0029 129.498s29.666 85.834 48.999 126.501s42.166 78.834 68.499 114.501s56.333 66.667 90 93s71 47.333 112 63s86.5 23.5 136.5 23.5c37.333 0 72.666 -4.66699 105.999 -14s63.666 -23.333 90.999 -42
s51.5 -41.5 72.5 -68.5s37.833 -58.167 50.5 -93.5l36 198h54l-183 -1067c-11.333 -60.667 -29.833 -118.334 -55.5 -173.001s-58.334 -102.5 -98.001 -143.5s-86 -73.667 -139 -98s-112.5 -36.5 -178.5 -36.5c-69.333 0 -130.666 16 -183.999 48s-98 77.333 -134 136l41 34
c32 -51.333 70 -91.666 114 -120.999s97.333 -44 160 -44c58.667 0 111.5 10.667 158.5 32s88 50 123 86s63.833 78.167 86.5 126.5s39.334 99.5 50.001 153.5l31 156c-48 -60.667 -105.167 -107.667 -171.5 -141s-138.5 -50 -216.5 -50c-50 0 -93 8.16699 -129 24.5
s-66.333 38.5 -91 66.5s-44 60.333 -58 97s-24 75.5 -30 116.5s-8.33301 82.667 -7 125s5 82.833 11 121.5zM160.004 530.997c-6 -33.333 -10.167 -68.667 -12.5 -106s-1.83301 -74.5 1.5 -111.5s10.333 -72.333 21 -106s26.167 -63.334 46.5 -89.001s46 -46.167 77 -61.5
s68.833 -23 113.5 -23c44 0 85.667 5.5 125 16.5s76 27 110 48s65.167 46.5 93.5 76.5s53.166 63.667 74.499 101l88 491c-6 42 -16.667 80.333 -32 115s-35.666 64.334 -60.999 89.001s-55.5 43.667 -90.5 57s-74.833 20 -119.5 20c-66 0 -123.667 -15.333 -173 -46
s-91.5 -70 -126.5 -118s-63.167 -101.333 -84.5 -160s-37 -116 -47 -172z" />
    <glyph glyph-name="h" unicode="h" 
d="M256 830c22.667 36.667 48.6719 71.5029 78.0049 104.503s61.666 61.833 96.999 86.5s73.333 44.334 114 59.001s83.667 22 129 22c61.333 0 111.5 -10.833 150.5 -32.5s68.667 -51 89 -88s32.666 -79.833 36.999 -128.5s2.16602 -99.667 -6.50098 -153l-121 -700h-54
l121 700c7.33301 45.333 10.166 89.166 8.49902 131.499s-10.334 79.666 -26.001 111.999s-39.5 58.166 -71.5 77.499s-75 28.666 -129 27.999c-48 -0.666992 -95 -11 -141 -31s-88.5 -46.5 -127.5 -79.5s-73 -70.833 -102 -113.5s-50.5 -86.667 -64.5 -132l-120 -693h-54
l265 1536h54z" />
    <glyph glyph-name="i" unicode="i" horiz-adv-x="419" 
d="M130 0h-54l186 1082h54zM294 1422c2 13.333 9.16504 25.667 21.498 37s25.5 17 39.5 17c15.333 0 27.833 -6 37.5 -18s13.167 -25.333 10.5 -40c-2 -13.333 -9.33301 -25.5 -22 -36.5s-26 -16.5 -40 -16.5c-15.333 0.666992 -27.666 6.66699 -36.999 18
s-12.666 24.333 -9.99902 39z" />
    <glyph glyph-name="j" unicode="j" horiz-adv-x="442" 
d="M317 1082l-208.999 -1211c-8 -43.333 -20.833 -83.666 -38.5 -120.999s-40.167 -69.833 -67.5 -97.5s-59.5 -49.5 -96.5 -65.5s-78.5 -24 -124.5 -24c-17.333 0 -33.833 2 -49.5 6s-31.167 8.66699 -46.5 14l10 52c14 -5.33301 28.167 -9.66602 42.5 -12.999
s29.166 -5 44.499 -5c38 -0.666992 72.167 5.83301 102.5 19.5s56.833 32 79.5 55s41.5 50 56.5 81s25.833 63.833 32.5 98.5l210 1211h54zM300.001 1422c2 13.333 9.16504 25.667 21.498 37s25.5 17 39.5 17c15.333 0 27.833 -6 37.5 -18s13.167 -25.333 10.5 -40
c-2 -13.333 -9.33301 -25.5 -22 -36.5s-26 -16.5 -40 -16.5c-15.333 0.666992 -27.666 6.66699 -36.999 18s-12.666 24.333 -9.99902 39z" />
    <glyph glyph-name="k" unicode="k" horiz-adv-x="950" 
d="M376 584l-3 -2l-180 -137l-76 -445h-54l265 1536h54l-177 -1023l140 115l555 453h83l-567 -463l406 -618h-66z" />
    <glyph glyph-name="l" unicode="l" horiz-adv-x="419" 
d="M130 0h-54l264 1536h54z" />
    <glyph glyph-name="m" unicode="m" horiz-adv-x="1791" 
d="M815 0l-52.999 0.00488281l124 720c7.33301 45.333 9.5 88.166 6.5 128.499s-13.167 75.333 -30.5 105s-42.333 53.167 -75 70.5s-74.667 25.666 -126 24.999c-49.333 -0.666992 -97.166 -11.334 -143.499 -32.001s-88.833 -48 -127.5 -82
s-72.334 -72.833 -101.001 -116.5s-49.667 -88.5 -63 -134.5l-119 -684h-54l186 1082h55l-48 -256c22.667 37.333 48.5 72.666 77.5 105.999s61 62.5 96 87.5s72.833 45 113.5 60s84 22.5 130 22.5c42 0 80.167 -5.16699 114.5 -15.5s63.833 -26.333 88.5 -48
s43.834 -48.5 57.501 -80.5s21.167 -69.333 22.5 -112c23.333 38 50.333 72.5 81 103.5s64.167 57.833 100.5 80.5s75.333 40.334 117 53.001s85.167 19 130.5 19c61.333 0 111.666 -10.833 150.999 -32.5s69.5 -51 90.5 -88s33.667 -79.833 38 -128.5
s2.16602 -99.667 -6.50098 -153l-121 -700h-53l120 700c8 46 11 90.167 9 132.5s-11 79.666 -27 111.999s-40.333 58 -73 77s-76 28.167 -130 27.5c-46 -1.33301 -92.333 -10.333 -139 -27s-89.834 -39.667 -129.501 -69s-74.167 -63.833 -103.5 -103.5
s-49.666 -82.834 -60.999 -129.501z" />
    <glyph glyph-name="n" unicode="n" 
d="M256 830c22.667 36.667 48.6719 71.5029 78.0049 104.503s61.666 61.833 96.999 86.5s73.333 44.334 114 59.001s83.667 22 129 22c61.333 0 111.5 -10.833 150.5 -32.5s68.667 -51 89 -88s32.666 -79.833 36.999 -128.5s2.16602 -99.667 -6.50098 -153l-121 -700h-54
l121 700c7.33301 45.333 10.166 89.166 8.49902 131.499s-10.334 79.666 -26.001 111.999s-39.5 58.166 -71.5 77.499s-75 28.666 -129 27.999c-48 -0.666992 -95 -11 -141 -31s-88.5 -46.5 -127.5 -79.5s-73 -70.833 -102 -113.5s-50.5 -86.667 -64.5 -132l-120 -693h-54
l186 1082h54l-47 -252v0z" />
    <glyph glyph-name="o" unicode="o" horiz-adv-x="1103" 
d="M80 562c12 68.667 33.333 135.334 64 200.001s69.167 122.167 115.5 172.5s100.5 90.833 162.5 121.5s130.667 46 206 46s139.166 -15.833 191.499 -47.5s93.5 -73 123.5 -124s49.667 -108.667 59 -173s8.66602 -129.5 -2.00098 -195.5l-7 -42
c-12 -68.667 -33.167 -135.334 -63.5 -200.001s-68.666 -122.167 -114.999 -172.5s-100.5 -90.833 -162.5 -121.5s-130.667 -46 -206 -46s-139 15.833 -191 47.5s-93.167 73 -123.5 124s-50.166 108.667 -59.499 173s-9 129.5 1 195.5zM127 520
c-6.66699 -38 -9.50293 -76.334 -8.50293 -115.001s5.83301 -76 14.5 -112s21.5 -69.833 38.5 -101.5s38.333 -59.167 64 -82.5s55.834 -41.666 90.501 -54.999s74.334 -20 119.001 -20c66.667 0 127.834 14 183.501 42s104.5 64.833 146.5 110.5s77 97.667 105 156
s47.667 117.5 59 177.5l7 42c6.66699 37.333 9.5 75.333 8.5 114s-5.83301 76 -14.5 112s-21.5 69.833 -38.5 101.5s-38.333 59.167 -64 82.5s-55.834 41.833 -90.501 55.5s-74 20.5 -118 20.5c-66.667 0 -127.667 -14 -183 -42s-104.166 -65 -146.499 -111
s-77.5 -98 -105.5 -156s-48 -117 -60 -177z" />
    <glyph glyph-name="p" unicode="p" 
d="M958 531c-7.33301 -42 -17.498 -84.667 -30.498 -128s-29.333 -85.5 -49 -126.5s-42.667 -79.333 -69 -115s-56.166 -67 -89.499 -94s-70.5 -48.333 -111.5 -64s-86.167 -23.5 -135.5 -23.5c-34.667 0 -68.334 3.66699 -101.001 11s-63.334 18.833 -92.001 34.5
s-54.5 35.334 -77.5 59.001s-41.833 51.5 -56.5 83.5l-103 -584h-54l258 1498h54l-37 -193c47.333 64 104.166 115.5 170.499 154.5s140.166 58.5 221.499 58.5c50 0 93.333 -8.16699 130 -24.5s67.334 -38.166 92.001 -65.499s44.167 -59.333 58.5 -96
s24.5 -75.334 30.5 -116.001s8.16699 -82.334 6.5 -125.001s-5.5 -83.667 -11.5 -123zM907.002 552c5.33301 33.333 9.16602 68.8311 11.499 106.498s1.83301 74.834 -1.5 111.501s-10.333 71.667 -21 105s-26.334 62.833 -47.001 88.5s-46.667 46.167 -78 61.5
s-69.333 23 -114 23c-41.333 0 -83.166 -6.5 -125.499 -19.5s-82 -31.5 -119 -55.5s-69.833 -52.833 -98.5 -86.5s-50 -70.834 -64 -111.501l-90 -506c8 -39.333 21.5 -73.666 40.5 -102.999s42.167 -53.666 69.5 -72.999s58.166 -34 92.499 -44s71.166 -15 110.499 -15
c44 0 84.333 7.16699 121 21.5s69.834 33.666 99.501 57.999s55.834 52.833 78.501 85.5s42.667 67.334 60 104.001s31.833 74.5 43.5 113.5s20.834 77.167 27.501 114.5z" />
    <glyph glyph-name="q" unicode="q" 
d="M109 552c11.333 64 28.998 128.499 52.998 193.499s55.833 124 95.5 177s87.334 96.167 143.001 129.5s120.834 50 195.501 50s140.167 -18 196.5 -54s97.833 -89 124.5 -159l36 193h53l-258 -1498h-54l105 584c-48.667 -59.333 -106.167 -105.5 -172.5 -138.5
s-138.5 -49.5 -216.5 -49.5c-50 0 -93 8.33301 -129 25s-66.333 38.834 -91 66.501s-44 60 -58 97s-24 75.833 -30 116.5s-8.33301 82.167 -7 124.5s5 82.833 11 121.5zM161.998 530.999c-6 -33.333 -10.1582 -68.6689 -12.4912 -106.002s-1.83301 -74.5 1.5 -111.5
s10.166 -72.333 20.499 -106s25.666 -63.334 45.999 -89.001s46 -46.167 77 -61.5s68.833 -23 113.5 -23c86.667 -0.666992 164.5 20 233.5 62s125.5 99.333 169.5 172l90 507c-6.66699 40.667 -18.334 77.834 -35.001 111.501s-37.834 62.5 -63.501 86.5
s-55.834 42.5 -90.501 55.5s-73.334 19.5 -116.001 19.5c-44 0 -84.333 -7.16699 -121 -21.5s-69.834 -33.666 -99.501 -57.999s-55.834 -52.666 -78.501 -84.999s-42.667 -66.833 -60 -103.5s-31.833 -74.5 -43.5 -113.5s-20.834 -77.167 -27.501 -114.5z" />
    <glyph glyph-name="r" unicode="r" horiz-adv-x="674" 
d="M708 1044c-10.667 1.33301 -21.332 2.50098 -31.999 3.50098s-21.667 1.5 -33 1.5c-47.333 0 -92.666 -9.33301 -135.999 -28s-82.833 -43.834 -118.5 -75.501s-66.334 -68 -92.001 -109s-44.5 -83.5 -56.5 -127.5l-123 -709h-54l186 1082h54l-42 -225
c20.667 35.333 44.334 68 71.001 98s56 56 88 78s66.667 39 104 51s77.666 18 120.999 18c25.333 0 50.666 -4 75.999 -12z" />
    <glyph glyph-name="s" unicode="s" horiz-adv-x="998" 
d="M761 265c8 41.333 4.15918 77.0029 -11.5078 107.003s-37.5 55.5 -65.5 76.5s-59.667 38.167 -95 51.5s-69.333 24 -102 32c-39.333 10 -79.166 21.667 -119.499 35s-76.166 31.166 -107.499 53.499s-55.333 50.166 -72 83.499s-21.334 75 -14.001 125
c6.66699 46 22.834 86.167 48.501 120.5s56.667 62.666 93 84.999s76.333 39.166 120 50.499s86.5 17 128.5 17c48 0 93.333 -6.33301 136 -19s79.5 -31.834 110.5 -57.501s54.5 -57.834 70.5 -96.501s21.333 -84 16 -136h-54c4.66699 42.667 0 79.834 -14 111.501
s-34.167 58.167 -60.5 79.5s-57.166 37.333 -92.499 48s-72.333 16 -111 16c-35.333 0 -71.333 -4.16699 -108 -12.5s-70.667 -21.166 -102 -38.499s-58.5 -39.833 -81.5 -67.5s-38.167 -60.5 -45.5 -98.5c-8 -42 -4.33301 -77.167 11 -105.5s37 -52 65 -71
s59.833 -34.167 95.5 -45.5s69.834 -21.333 102.501 -30c40.667 -10.667 81.334 -23.667 122.001 -39s76.334 -35 107.001 -59s54.167 -53.667 70.5 -89s20.833 -78 13.5 -128c-7.33301 -49.333 -24.333 -91.833 -51 -127.5s-59 -65 -97 -88s-79.833 -40.167 -125.5 -51.5
s-90.834 -17 -135.501 -17c-45.333 0 -90.166 5.66699 -134.499 17s-83.5 29 -117.5 53s-60.667 54.5 -80 91.5s-26.333 81.5 -21 133.5h53c-2 -44 5.16699 -81.333 21.5 -112s38.5 -55.667 66.5 -75s60.333 -33.166 97 -41.499s74.667 -12.5 114 -12.5
c36 0.666992 73.333 5.5 112 14.5s74.834 22.833 108.501 41.5s62.834 42.5 87.501 71.5s40.667 63.5 48 103.5z" />
    <glyph glyph-name="t" unicode="t" horiz-adv-x="639" 
d="M419 1374l-50.001 -292h237l-7 -55h-240l-133 -768c-4.66699 -26 -7.5 -52.333 -8.5 -79s2.16699 -50.667 9.5 -72s19.833 -38.833 37.5 -52.5s42.834 -20.834 75.501 -21.501c18.667 0 37 1 55 3l54 6l2 -51c-18 -4.66699 -36 -7.83398 -54 -9.50098
s-36.333 -2.5 -55 -2.5c-42.667 0 -76.5 7.83301 -101.5 23.5s-43.5 36.334 -55.5 62.001s-18.667 55.334 -20 89.001s1 68.5 7 104.5l132 768h-193l8 55h195l50 292h55z" />
    <glyph glyph-name="u" unicode="u" 
d="M766 0l33.999 174.998c-47.333 -65.333 -104.666 -114.166 -171.999 -146.499s-141.333 -48.5 -222 -48.5c-62 0 -113.167 11.333 -153.5 34s-71.166 53.167 -92.499 91.5s-34.333 82.5 -39 132.5s-2.66699 102.333 6 157l118 687h54l-119 -689
c-7.33301 -45.333 -9.83301 -89.5 -7.5 -132.5s11.666 -81.167 27.999 -114.5s41 -60.333 74 -81s76.167 -31 129.5 -31c45.333 0 90 6.33301 134 19s84.833 31.334 122.5 56.001s70.5 54.667 98.5 90s48.667 76 62 122l131 761h55l-186 -1082h-55z" />
    <glyph glyph-name="v" unicode="v" horiz-adv-x="959" 
d="M393 88l533 993h59l-575 -1081h-53l-241 1083h56z" />
    <glyph glyph-name="w" unicode="w" horiz-adv-x="1514" 
d="M306 308l15 -224l111 229l369 769h54l103 -769l29 -230l101 234l345 764h64l-491 -1081h-54l-120 818l-14 185l-88 -194l-393 -809h-54l-120 1083l60 -1z" />
    <glyph glyph-name="x" unicode="x" horiz-adv-x="959" 
d="M472 603l410 478l69 -1l-452 -529l303 -551h-64l-276 507l-434 -507h-69l476 559l-288 524h65z" />
    <glyph glyph-name="y" unicode="y" horiz-adv-x="959" 
d="M396 84l9.99902 21.0049l533 976h61l-683 -1261c-17.333 -32.667 -36.166 -64.334 -56.499 -95.001s-43.166 -57.834 -68.499 -81.501s-54 -42.834 -86 -57.501s-68.333 -22.334 -109 -23.001c-25.333 0 -52 3.66699 -80 11l6 51l34 -6c11.333 -2 22.666 -3 33.999 -3
c33.333 0 63.333 6.16699 90 18.5s51 28.666 73 48.999s41.667 43.333 59 69s33.333 51.5 48 77.5l97 181l-234 1072h57z" />
    <glyph glyph-name="z" unicode="z" horiz-adv-x="959" 
d="M73 54h744l-7 -54h-819l6 44l841 983h-656l6 55l732 -1l-7 -47z" />
    <glyph glyph-name="braceleft" unicode="{" horiz-adv-x="650" 
d="M463 -440c-52 18.667 -95.1621 43.5029 -129.495 74.5029s-61 66.333 -80 106s-30.833 83.167 -35.5 130.5s-3.33398 97 3.99902 149l39 245c6 40 6.83301 76.5 2.5 109.5s-14.333 61.667 -30 86s-37.5 43.666 -65.5 57.999s-63.333 22.5 -106 24.5l9 66
c42 2 79.167 10 111.5 24s60.166 33 83.499 57s42.5 52.5 57.5 85.5s26.167 69.5 33.5 109.5l38 247c18.667 114.667 59.167 211.667 121.5 291s149.5 137.333 261.5 174l9 -46c-48 -16.667 -91 -38.667 -129 -66s-71 -59 -99 -95s-51.167 -75.833 -69.5 -119.5
s-31.5 -89.834 -39.5 -138.501l-38 -247c-6 -38 -15.667 -73.5 -29 -106.5s-30.333 -62.667 -51 -89s-45.334 -49.333 -74.001 -69s-62 -34.834 -100 -45.501c35.333 -11.333 64.166 -27.5 86.499 -48.5s39.5 -45.333 51.5 -73s19.167 -57.5 21.5 -89.5
s1.16602 -65 -3.50098 -99l-38 -245c-7.33301 -46.667 -8.83301 -91.167 -4.5 -133.5s14.833 -81.333 31.5 -117s40.167 -67.667 70.5 -96s68.5 -51.5 114.5 -69.5z" />
    <glyph glyph-name="bar" unicode="|" horiz-adv-x="404" 
d="M94 -270h-54l268 1726h54z" />
    <glyph glyph-name="braceright" unicode="}" horiz-adv-x="650" 
d="M-156 -393c95.333 34 171.665 86.4971 228.998 157.497s94.333 156.167 111 255.5l38 245c6 38 15.667 73.5 29 106.5s30.333 62.833 51 89.5s45.334 49.834 74.001 69.501s62 35.167 100 46.5c-35.333 10.667 -64.166 26.5 -86.499 47.5s-39.5 45.167 -51.5 72.5
s-19.167 57 -21.5 89s-1.16602 65 3.50098 99l38 247c6.66699 46 8.5 90.5 5.5 133.5s-12.5 82.833 -28.5 119.5s-38.833 69.334 -68.5 98.001s-67.834 52 -114.501 70l20 43c52 -19.333 95.167 -44.5 129.5 -75.5s61 -66.667 80 -107s30.667 -84.333 35 -132
s2.83301 -97.5 -4.5 -149.5l-39 -247c-6 -40 -7 -76.333 -3 -109s14 -61 30 -85s38.167 -43.167 66.5 -57.5s63.5 -22.5 105.5 -24.5l-9 -66c-42 -2 -79.167 -10.167 -111.5 -24.5s-60.166 -33.666 -83.499 -57.999s-42.666 -53 -57.999 -86s-26.333 -69.5 -33 -109.5
l-38 -245c-18.667 -114 -59.334 -210.333 -122.001 -289s-149.334 -136 -260.001 -172z" />
    <glyph glyph-name="asciitilde" unicode="~" horiz-adv-x="1380" 
d="M1233 751c-7.33301 -40 -19.002 -78.333 -35.002 -115s-36.667 -69.334 -62 -98.001s-55.333 -51.5 -90 -68.5s-74 -25.833 -118 -26.5c-29.333 0 -56.166 4 -80.499 12s-47.333 18.833 -69 32.5s-42 29.667 -61 48s-37.833 37.5 -56.5 57.5
c-16 16.667 -32 32.667 -48 48s-32.833 28.833 -50.5 40.5s-36.667 21 -57 28s-42.5 10.5 -66.5 10.5c-38 0 -71 -7.16699 -99 -21.5s-52.167 -33.5 -72.5 -57.5s-37 -51.5 -50 -82.5s-22.833 -63.167 -29.5 -96.5l-55 1c7.33301 40 18.833 78.667 34.5 116s36 70.333 61 99
s54.833 51.667 89.5 69s74.667 26.333 120 27c28.667 0 55.334 -4 80.001 -12s48 -19 70 -33s42.667 -30 62 -48s38.333 -37 57 -57c15.333 -16 31 -31.833 47 -47.5s32.833 -29.5 50.5 -41.5s36.5 -21.5 56.5 -28.5s42 -10.5 66 -10.5c37.333 0.666992 70 8.16699 98 22.5
s52.167 33.333 72.5 57s37 50.834 50 81.501s22.833 62.667 29.5 96z" />
    <glyph glyph-name="nonbreakingspace" unicode="&#xa0;" horiz-adv-x="485" 
 />
    <glyph glyph-name="exclamdown" unicode="&#xa1;" horiz-adv-x="404" 
d="M189 696h54l-181 -1055h-54zM324 1046c-2 -13.333 -9.16504 -25.667 -21.498 -37s-25.5 -17 -39.5 -17c-15.333 0 -27.833 6 -37.5 18s-13.167 25.333 -10.5 40c2 13.333 9.33301 25.5 22 36.5s26 16.5 40 16.5c15.333 -0.666992 27.666 -6.66699 36.999 -18
s12.666 -24.333 9.99902 -39z" />
    <glyph glyph-name="cent" unicode="&#xa2;" horiz-adv-x="1087" 
d="M456 34c46.667 0 91.001 6.83691 133.001 20.5039s79.833 33.334 113.5 59.001s62.834 56.5 87.501 92.5s43.667 76.333 57 121h54c-12 -50 -31.167 -95.667 -57.5 -137s-58 -77.166 -95 -107.499s-78.5 -54.333 -124.5 -72s-94.333 -27.5 -145 -29.5l-38 -226h-55
l38 226c-46 3.33301 -86.5 13.333 -121.5 30s-65 38.167 -90 64.5s-45.333 56.666 -61 90.999s-27.167 71 -34.5 110s-11 79.167 -11 120.5s3.33301 82.333 10 123l7 42c11.333 64.667 30.166 128.667 56.499 192s60 120.166 101 170.499s89.667 91.5 146 123.5
s120.5 49.667 192.5 53l37 217h55l-37 -218c50 -4 94.5 -16.333 133.5 -37s71.5 -47.5 97.5 -80.5s44.667 -71.5 56 -115.5s14.666 -91.333 9.99902 -142h-53c4.66699 46 1.66699 88.667 -9 128s-28 73.5 -52 102.5s-54.167 51.667 -90.5 68s-78.5 24.5 -126.5 24.5
c-68 0 -128.167 -14.167 -180.5 -42.5s-97.5 -65.5 -135.5 -111.5s-69.167 -98 -93.5 -156s-42.166 -116.667 -53.499 -176l-7 -42c-6.66699 -36.667 -10.5 -74.334 -11.5 -113.001s1.5 -75.834 7.5 -111.501s16 -69.334 30 -101.001s32.667 -59.334 56 -83.001
s51.666 -42.5 84.999 -56.5s73 -21 119 -21z" />
    <glyph glyph-name="sterling" unicode="&#xa3;" horiz-adv-x="1126" 
d="M362 667l-47.001 -330.999c-8 -52 -20.333 -102.333 -37 -151s-43 -92.667 -79 -132l735 1l-7 -54h-934l7 54h114c24.667 10.667 45.5 26.834 62.5 48.501s31 45.834 42 72.501s19.667 54.167 26 82.5s11.5 54.5 15.5 78.5l48 331h-204l8 54h203l46 318
c9.33301 55.333 25.333 109.166 48 161.499s51.834 98.833 87.501 139.5s77.834 73.5 126.501 98.5s103.667 37.5 165 37.5c58 0 107.667 -10.167 149 -30.5s74.666 -48 99.999 -83s42.333 -76 51 -123s9.33398 -97.167 2.00098 -150.5h-53c6.66699 46 7 89.167 1 129.5
s-19.167 75.5 -39.5 105.5s-47.833 53.833 -82.5 71.5s-77 26.5 -127 26.5c-54 0 -102.167 -11 -144.5 -33s-79 -50.833 -110 -86.5s-56.333 -76.334 -76 -122.001s-33.834 -92.834 -42.501 -141.501l-47 -318h358l-7 -54h-358z" />
    <glyph glyph-name="currency" unicode="&#xa4;" horiz-adv-x="1467" 
d="M1052 155c-30.667 -26 -62.6621 -49.6689 -95.9951 -71.002s-68.166 -39.666 -104.499 -54.999s-73.833 -27.333 -112.5 -36s-78.334 -13 -119.001 -13c-72.667 0 -141.334 14.667 -206.001 44s-120 72.333 -166 129l-204 -179l-36 41l206 181
c-36 63.333 -59.333 129.833 -70 199.5s-10.334 140.5 0.999023 212.5c13.333 82 39.166 158.833 77.499 230.5s87.166 136.5 146.499 194.5l-151 194l43 37l148 -191c60.667 48 126 86.833 196 116.5s144.333 44.5 223 44.5c70.667 0 137.167 -13.833 199.5 -41.5
s116.833 -68.167 163.5 -121.5l220 194l37 -42l-222 -195c38.667 -64 64 -131.667 76 -203s12 -143.666 0 -216.999c-13.333 -78.667 -37.833 -152.5 -73.5 -221.5s-80.834 -131.833 -135.501 -188.5l145 -187l-44 -38zM200.005 607.998
c-12.667 -70 -12.3359 -139.168 0.99707 -207.501s38.333 -129.833 75 -184.5s84 -98.834 142 -132.501s125.333 -50.5 202 -50.5c78 0 152 16.167 222 48.5s132.833 75.333 188.5 129s102.334 115 140.001 184s63.167 140.167 76.5 213.5
c8.66699 46 11.334 92.167 8.00098 138.5s-12 90.833 -26 133.5s-33.167 82.334 -57.5 119.001s-53.333 68.5 -87 95.5s-72 48.167 -115 63.5s-89.833 23 -140.5 23c-52 0 -102.333 -7.33301 -151 -22s-94.834 -35.167 -138.501 -61.5s-84.167 -57.5 -121.5 -93.5
s-70.666 -75.167 -99.999 -117.5s-54.166 -87.166 -74.499 -134.499s-34.833 -95.333 -43.5 -144z" />
    <glyph glyph-name="yen" unicode="&#xa5;" horiz-adv-x="1181" 
d="M1192 1455l68 -1l-607 -778h408l-8 -55h-439l-42 -240h438l-8 -55h-439l-56 -326h-54l56 326h-436l8 55h437l42 240h-436l8 55h412l-340 781h62l314 -719l13 -51h4l33 51z" />
    <glyph glyph-name="brokenbar" unicode="&#xa6;" horiz-adv-x="396" 
d="M16 -270l129 752h54l-129 -752h-54zM238 698h-54l130 758h54z" />
    <glyph glyph-name="section" unicode="&#xa7;" horiz-adv-x="1196" 
d="M1033 431c-7.33301 -42 -22.1719 -78.333 -44.5049 -109s-49.166 -56.667 -80.499 -78s-65.833 -38.5 -103.5 -51.5s-75.167 -22.833 -112.5 -29.5c34 -15.333 64.667 -32.833 92 -52.5s49.833 -42.167 67.5 -67.5s30 -53.833 37 -85.5s7.5 -67.167 1.5 -106.5
c-10 -60 -30.833 -111.667 -62.5 -155s-70.167 -79.166 -115.5 -107.499s-95.166 -49.333 -149.499 -63s-109.166 -20.5 -164.499 -20.5c-66.667 0 -126.834 9.66699 -180.501 29s-98.5 47.333 -134.5 84s-61.833 81.834 -77.5 135.501s-18.834 114.5 -9.50098 182.5l54 2
c-9.33301 -60 -7.5 -113.5 5.5 -160.5s35 -86.667 66 -119s70 -57 117 -74s99.833 -25.5 158.5 -25.5c47.333 0 94.833 5.66699 142.5 17s91.667 28.666 132 51.999s75 53.333 104 90s48.5 80.334 58.5 131.001c6.66699 34 7.33398 64.333 2.00098 91
s-15.166 50.5 -29.499 71.5s-32.333 39.333 -54 55s-45.334 29.667 -71.001 42s-52.5 23 -80.5 32s-55.667 17.5 -83 25.5c-32 8.66699 -65.333 18.5 -100 29.5s-68.334 23.833 -101.001 38.5s-63.167 31.5 -91.5 50.5s-52.5 41.167 -72.5 66.5s-34.333 54.5 -43 87.5
s-9.33398 70.5 -2.00098 112.5c6.66699 41.333 20.334 77.333 41.001 108s45.667 57 75 79s62 39.833 98 53.5s72.667 24.167 110 31.5c-32 16 -60.5 34 -85.5 54s-45.5 42.5 -61.5 67.5s-27 52.667 -33 83s-6 64.166 0 101.499c9.33301 59.333 30.166 110.833 62.499 154.5
s71.333 79.667 117 108s95.834 49.5 150.501 63.5s109.334 21 164.001 21c66.667 0 125.334 -10.167 176.001 -30.5s92.167 -49.333 124.5 -87s54.833 -83 67.5 -136s14.334 -112.167 5.00098 -177.5h-54c8 54.667 6.5 105 -4.5 151s-30.333 85.667 -58 119
s-63.167 59.5 -106.5 78.5s-93 28.5 -149 28.5c-48 0 -96 -5.5 -144 -16.5s-92.167 -28.167 -132.5 -51.5s-75.166 -53.333 -104.499 -90s-49 -80.667 -59 -132c-7.33301 -34.667 -8.16602 -65.834 -2.49902 -93.501s15.667 -52.167 30 -73.5s32.5 -40.166 54.5 -56.499
s46.167 -30.833 72.5 -43.5s53.833 -24 82.5 -34s57 -19 85 -27c31.333 -9.33301 64 -19.333 98 -30s67.167 -22.834 99.5 -36.501s62.5 -29.5 90.5 -47.5s51.833 -39.167 71.5 -63.5s33.667 -52.5 42 -84.5s9.16602 -69 2.49902 -111zM605.994 766l-50.0039 13.998
c-16.667 4.66699 -33 10 -49 16c-38.667 -3.33301 -76.667 -10 -114 -20s-71.666 -24.667 -102.999 -44s-58.166 -43.666 -80.499 -72.999s-37.833 -64.666 -46.5 -105.999c-8 -38 -8.16699 -71.5 -0.5 -100.5s20.5 -54.5 38.5 -76.5s40.167 -41.167 66.5 -57.5
s54.5 -30.666 84.5 -42.999s60.667 -23.333 92 -33s61.333 -18.834 90 -27.501l64 -19c38 1.33301 77.5 6.16602 118.5 14.499s79.333 21.5 115 39.5s66.834 41.5 93.501 70.5s44.334 64.833 53.001 107.5c8 36.667 8 69.334 0 98.001s-21.167 54.167 -39.5 76.5
s-40.833 42 -67.5 59s-55.167 32 -85.5 45s-61 24.167 -92 33.5s-60.167 18 -87.5 26z" />
    <glyph glyph-name="dieresis" unicode="&#xa8;" horiz-adv-x="889" 
d="M306 1422c2 14 8.99902 26.668 20.999 38.001s25.333 17 40 17c15.333 0 27.833 -5.83301 37.5 -17.5s13.167 -24.834 10.5 -39.501c-2 -14 -9.16699 -26.5 -21.5 -37.5s-25.5 -16.5 -39.5 -16.5c-15.333 0 -27.666 5.66699 -36.999 17s-13 24.333 -11 39zM737.999 1422
c2 14 8.99902 26.668 20.999 38.001s25.333 17 40 17s26.834 -5.83301 36.501 -17.5s13.5 -24.834 11.5 -39.501c-2 -14 -9.16699 -26.5 -21.5 -37.5s-25.833 -16.5 -40.5 -16.5s-26.667 5.66699 -36 17s-13 24.333 -11 39z" />
    <glyph glyph-name="copyright" unicode="&#xa9;" horiz-adv-x="1626" 
d="M1093 615c-8 -44.667 -20.833 -86 -38.5 -124s-40.334 -71 -68.001 -99s-60.5 -50 -98.5 -66s-81 -24 -129 -24c-53.333 0 -97.833 11.667 -133.5 35s-63.5 53.5 -83.5 90.5s-32.833 78.5 -38.5 124.5s-5.5 91.667 0.5 137l12 79c8 47.333 21.667 94 41 140
s44.333 87.333 75 124s67 66.334 109 89.001s89.667 34 143 34c47.333 0 87.833 -8 121.5 -24s60.5 -38.167 80.5 -66.5s33.667 -61.5 41 -99.5s8.33301 -79 3 -123h-51c4.66699 36.667 4.83398 70.834 0.500977 102.501s-14.333 59.167 -30 82.5s-37 41.666 -64 54.999
s-60.833 20 -101.5 20c-45.333 0 -85.666 -10 -120.999 -30s-66 -45.833 -92 -77.5s-47.333 -67.167 -64 -106.5s-28.334 -79 -35.001 -119l-13 -80c-5.33301 -37.333 -6.5 -75.5 -3.5 -114.5s12 -74.5 27 -106.5s36.833 -58.333 65.5 -79s65.667 -31.334 111 -32.001
c40.667 0 77 6.33301 109 19s59.5 30.5 82.5 53.5s42 50.333 57 82s26.167 66.5 33.5 104.5zM195 729c-9.33301 -56.667 -11.5029 -113.333 -6.50293 -170s16.333 -110.667 34 -162s41.667 -99.166 72 -143.499s66.333 -82.666 108 -114.999s88.667 -57.833 141 -76.5
s109.5 -28 171.5 -28c62.667 0 123.334 9 182.001 27s114 42.833 166 74.5s100.333 69.167 145 112.5s84.167 90.833 118.5 142.5s63 106.167 86 163.5s39.5 115.666 49.5 174.999c9.33301 56.667 11.5 113.167 6.5 169.5s-16.5 110.166 -34.5 161.499s-42.167 99 -72.5 143
s-66.333 82.167 -108 114.5s-88.667 57.666 -141 75.999s-109.5 27.5 -171.5 27.5c-62.667 0 -123.334 -8.83301 -182.001 -26.5s-114 -42.334 -166 -74.001s-100.167 -69 -144.5 -112s-83.666 -90.167 -117.999 -141.5s-63.166 -105.666 -86.499 -162.999
s-39.666 -115.666 -48.999 -174.999zM138.997 729.001c10 64.667 27.166 128.168 51.499 190.501s54.833 121.166 91.5 176.499s78.834 106.166 126.501 152.499s99.5 86.333 155.5 120s115.667 60 179 79s129 28.5 197 28.5c67.333 0 129.666 -9.83301 186.999 -29.5
s109 -46.667 155 -81s86 -75.166 120 -122.499s61.167 -98.666 81.5 -153.999s33.5 -113.5 39.5 -174.5s4.33301 -122.833 -5 -185.5c-10 -64.667 -27.167 -128.167 -51.5 -190.5s-54.833 -121.333 -91.5 -177s-78.834 -106.834 -126.501 -153.501s-99.667 -87 -156 -121
s-116.166 -60.5 -179.499 -79.5s-129 -28.5 -197 -28.5c-67.333 0 -129.666 9.83301 -186.999 29.5s-109 47 -155 82s-85.833 76.167 -119.5 123.5s-60.667 98.833 -81 154.5s-33.5 114 -39.5 175s-4.33301 122.833 5 185.5z" />
    <glyph glyph-name="ordfeminine" unicode="&#xaa;" horiz-adv-x="881" 
d="M679 704c-2 20.667 -2.83301 40.6689 -2.5 60.002s1.83301 39 4.5 59c-33.333 -37.333 -71.333 -68.5 -114 -93.5s-90 -37.833 -142 -38.5c-32 0 -61.833 4.33301 -89.5 13s-51.5 21.834 -71.5 39.501s-34.667 39.667 -44 66s-11.333 56.5 -6 90.5
c6.66699 42.667 21.334 78.5 44.001 107.5s50 52.667 82 71s67.167 31.666 105.5 39.999s76.5 12.833 114.5 13.5h166l14 69c5.33301 29.333 6.83301 57.166 4.5 83.499s-9.33301 49.666 -21 69.999s-28.334 36.5 -50.001 48.5s-48.834 18.333 -81.501 19
c-31.333 0 -61.166 -3.33301 -89.499 -10s-54.166 -17.334 -77.499 -32.001s-43.333 -33.167 -60 -55.5s-29 -49.166 -37 -80.499h-55c8 37.333 22.167 70.5 42.5 99.5s44.666 53.333 72.999 73s59.833 34.5 94.5 44.5s70.667 15 108 15c40.667 0 75.167 -7.5 103.5 -22.5
s50.833 -35 67.5 -60s27.667 -54.333 33 -88s5.33301 -68.834 0 -105.501l-54 -314c-10 -61.333 -11.667 -121.666 -5 -180.999zM426 746.002c25.333 0 50.6699 4.00098 76.0029 12.001s49.5 19 72.5 33s44.167 30.167 63.5 48.5s35.666 38.166 48.999 59.499l33 179h-158
c-30.667 -0.666992 -61.834 -3.5 -93.501 -8.5s-61.167 -14 -88.5 -27s-51 -30.667 -71 -53s-33.333 -50.833 -40 -85.5c-5.33301 -27.333 -4.83301 -50.833 1.5 -70.5s16.833 -36 31.5 -49s32.667 -22.667 54 -29s44.666 -9.5 69.999 -9.5z" />
    <glyph glyph-name="guillemotleft" unicode="&#xab;" horiz-adv-x="888" 
d="M197 521l221 -376h-67l-225 371l2 19l349 369l72 -1zM475 521l221 -376h-67l-225 371l2 19l349 369l72 -1z" />
    <glyph glyph-name="logicalnot" unicode="&#xac;" horiz-adv-x="1078" 
d="M854 396h-54l52 304h-716l7 53h770z" />
    <glyph glyph-name="uni00AD" unicode="&#xad;" horiz-adv-x="599" 
d="M524 639h-458l8 54h457z" />
    <glyph glyph-name="registered" unicode="&#xae;" horiz-adv-x="1634" 
d="M131 729c10 64.667 27.167 128.168 51.5 190.501s54.833 121.166 91.5 176.499s78.834 106.166 126.501 152.499s99.667 86.333 156 120s116.166 60 179.499 79s129 28.5 197 28.5c67.333 0 129.666 -9.83301 186.999 -29.5s108.833 -46.667 154.5 -81
s85.5 -75.166 119.5 -122.499s61.167 -98.666 81.5 -153.999s33.5 -113.5 39.5 -174.5s4.33301 -122.833 -5 -185.5c-9.33301 -64.667 -26.333 -128.167 -51 -190.5s-55.334 -121.333 -92.001 -177s-78.667 -106.834 -126 -153.501s-99.166 -87 -155.499 -121
s-116.333 -60.5 -180 -79.5s-129.5 -28.5 -197.5 -28.5c-67.333 0 -129.666 9.83301 -186.999 29.5s-109 47 -155 82s-85.833 76.167 -119.5 123.5s-60.667 98.833 -81 154.5s-33.5 114 -39.5 175s-4.33301 122.833 5 185.5zM186 729.001
c-9.33301 -56.667 -11.502 -113.336 -6.50195 -170.003s16.5 -110.667 34.5 -162s42.333 -99.166 73 -143.499s66.834 -82.666 108.501 -114.999s88.667 -57.833 141 -76.5s109.5 -28 171.5 -28c62.667 0 123.334 9 182.001 27s114 42.833 166 74.5
s100.167 69.167 144.5 112.5s83.666 90.833 117.999 142.5s63 106.167 86 163.5s39.5 115.666 49.5 174.999c9.33301 56.667 11.5 113.167 6.5 169.5s-16.5 110.166 -34.5 161.499s-42.167 99 -72.5 143s-66.333 82.167 -108 114.5s-88.667 57.666 -141 75.999
s-109.5 27.5 -171.5 27.5c-62.667 0 -123.334 -8.83301 -182.001 -26.5s-114 -42.167 -166 -73.5s-100.333 -68.666 -145 -111.999s-84.167 -90.666 -118.5 -141.999s-63.166 -105.666 -86.499 -162.999s-39.666 -115.666 -48.999 -174.999zM641.998 677.999
l-55.001 -352.001h-54l128 830h229c38 -0.666992 73.333 -5.66699 106 -15s60.667 -23.666 84 -42.999s40.333 -44 51 -74s13 -66 7 -108c-4 -26 -11.333 -49.667 -22 -71s-24 -40.333 -40 -57s-34.167 -31.5 -54.5 -44.5s-41.833 -24.5 -64.5 -34.5
c44 -18.667 72.5 -46.167 85.5 -82.5s16.5 -76.833 10.5 -121.5l-6 -36c-3.33301 -22 -4.66602 -43.333 -3.99902 -64s1 -41.667 1 -63l-2 -16h-58c-3.33301 24 -3.66602 48 -0.999023 72s6 48 10 72l5 34c9.33301 59.333 2.16602 102.833 -21.501 130.5
s-65.5 42.167 -125.5 43.5h-209zM649.997 733.998l193.999 0.00390625c28 0.666992 55.167 5.16699 81.5 13.5s50.333 20.166 72 35.499s40 34.166 55 56.499s25.167 48.166 30.5 77.499c6.66699 35.333 6.16699 64.666 -1.5 87.999s-20.5 42 -38.5 56s-40.167 24 -66.5 30
s-55.166 9.33301 -86.499 10h-182z" />
    <glyph glyph-name="macron" unicode="&#xaf;" horiz-adv-x="797" 
d="M825 1403h-610l7 53h609z" />
    <glyph glyph-name="macron" unicode="&#x2c9;" horiz-adv-x="797" 
d="M825 1403h-610l7 53h609z" />
    <glyph glyph-name="degree" unicode="&#xb0;" horiz-adv-x="770" 
d="M261 1236c4.66699 31.333 15.166 61.5 31.499 90.5s36.5 54.5 60.5 76.5s50.833 39.667 80.5 53s60.834 20 93.501 20c32 0 60.833 -6.83301 86.5 -20.5s47 -31.834 64 -54.501s29 -48.334 36 -77.001s8.16699 -58 3.5 -88
c-5.33301 -31.333 -15.833 -61.166 -31.5 -89.499s-35.167 -53.5 -58.5 -75.5s-49.833 -39.5 -79.5 -52.5s-60.5 -19.5 -92.5 -19.5s-61.167 6.5 -87.5 19.5s-48.166 30.5 -65.499 52.5s-29.833 47.333 -37.5 76s-8.83398 58.334 -3.50098 89.001zM315.999 1236
c-4.66699 -24 -4.83008 -46.832 -0.49707 -68.499s12.666 -40.834 24.999 -57.501s28 -30 47 -40s41.167 -15 66.5 -15c26 0 50.5 4.83301 73.5 14.5s43.5 22.667 61.5 39s33.333 35.5 46 57.5s21.334 45.333 26.001 70c4.66699 23.333 5.16699 46 1.5 68
s-11.334 41.667 -23.001 59s-26.834 31.333 -45.501 42s-40.667 16 -66 16c-26 0 -50.833 -5 -74.5 -15s-44.834 -23.5 -63.501 -40.5s-34.5 -36.667 -47.5 -59s-21.833 -45.833 -26.5 -70.5z" />
    <glyph glyph-name="plusminus" unicode="&#xb1;" horiz-adv-x="1055" 
d="M585 805h405l-6 -54h-407l-72 -462h-54l72 462h-429l6 54h431l72 462h53zM839 -1h-811l7 54h811z" />
    <glyph glyph-name="twosuperior" unicode="&#xb2;" horiz-adv-x="716" 
d="M644 664l-527.998 0.000976562l7 44l329 295c18 16 37.333 33 58 51s40.167 37 58.5 57s34.5 41.333 48.5 64s23.667 46.667 29 72c5.33301 26.667 5.16602 50.5 -0.500977 71.5s-15.667 38.5 -30 52.5s-32 24.833 -53 32.5s-44.5 11.5 -70.5 11.5
c-62 0 -114.667 -16.5 -158 -49.5s-72.666 -79.167 -87.999 -138.5h-54c7.33301 36 20.166 68.5 38.499 97.5s40.666 53.833 66.999 74.5s55.833 36.667 88.5 48s67.334 17 104.001 17c32 0 62 -4.83301 90 -14.5s51.833 -23.667 71.5 -42s34 -41 43 -68
s10.833 -57.5 5.5 -91.5c-4.66699 -29.333 -14.834 -57.333 -30.501 -84s-34 -51.834 -55 -75.501s-43.5 -46.167 -67.5 -67.5s-46.333 -41.333 -67 -60l-286 -248h458z" />
    <glyph glyph-name="threesuperior" unicode="&#xb3;" horiz-adv-x="716" 
d="M346 1090l67 0.00292969c25.333 0.666992 51.333 4 78 10s51.5 15.333 74.5 28s42.833 29 59.5 49s28 44 34 72c6 27.333 5.66699 51.333 -1 72s-17.667 37.834 -33 51.501s-34.166 24 -56.499 31s-45.833 10.5 -70.5 10.5c-28 0 -54.667 -3.5 -80 -10.5
s-48.5 -17.667 -69.5 -32s-39.167 -32 -54.5 -53s-27 -44.833 -35 -71.5h-53c7.33301 34 20.166 64.333 38.499 91s40.5 49.334 66.5 68.001s54.833 33 86.5 43s64.5 15 98.5 15c32.667 0 63.5 -4.66699 92.5 -14s53.667 -23.333 74 -42s35.333 -41.5 45 -68.5
s11.5 -58.167 5.5 -93.5c-4 -24 -11.833 -45.333 -23.5 -64s-25.667 -35.334 -42 -50.001s-34.666 -27.334 -54.999 -38.001s-40.833 -20 -61.5 -28c22.667 -7.33301 43.167 -16.666 61.5 -27.999s33.666 -25 45.999 -41s21.166 -34.167 26.499 -54.5s6 -42.833 2 -67.5
c-5.33301 -36 -17.5 -67.833 -36.5 -95.5s-42 -50.834 -69 -69.501s-57.167 -32.834 -90.5 -42.501s-67 -14.5 -101 -14.5c-34.667 0 -67.5 4.83301 -98.5 14.5s-58 24.167 -81 43.5s-40.5 43.166 -52.5 71.499s-16.333 61.166 -13 98.499h53
c-3.33301 -30 -0.5 -56.167 8.5 -78.5s22.5 -41 40.5 -56s39.167 -26.333 63.5 -34s50.5 -11.5 78.5 -11.5s55.333 3.5 82 10.5s51 17.667 73 32s40.833 32.333 56.5 54s26.5 47.167 32.5 76.5c6 32.667 3.83301 59.667 -6.5 81s-25.666 38.333 -45.999 51
s-43.833 21.5 -70.5 26.5s-53 7.83301 -79 8.5h-73z" />
    <glyph glyph-name="acute" unicode="&#xb4;" horiz-adv-x="506" 
d="M446 1515l68 -1l-229 -263l-62 1z" />
    <glyph glyph-name="mu" unicode="&#xb5;" 
d="M300 1082l-110.001 -641.999c-8 -46 -11.833 -93 -11.5 -141s8 -91.667 23 -131s39 -71.5 72 -96.5s78.5 -37.5 136.5 -37.5c58.667 0 111.667 9.5 159 28.5s89 45.333 125 79s66.167 73.667 90.5 120s42.5 97.166 54.5 152.499l115 668h54l-99 -577l-4 -23l-83 -482h-41
l29 207c-44 -70.667 -98.667 -126.167 -164 -166.5s-140.666 -60.5 -225.999 -60.5c-66.667 0 -124 15.833 -172 47.5s-82.333 79.5 -103 143.5l-103 -587h-52l258 1498h52z" />
    <glyph glyph-name="paragraph" unicode="&#xb6;" horiz-adv-x="928" 
d="M591 0l89 520.001h-115c-69.333 0.666992 -131.333 12.5 -186 35.5s-100 55 -136 96s-61.167 90 -75.5 147s-15.833 120.167 -4.5 189.5c11.333 70.667 33.333 134.5 66 191.5s73.5 105.833 122.5 146.5s104.5 72.167 166.5 94.5s128.333 34.166 199 35.499h180
l-252 -1456h-54z" />
    <glyph glyph-name="periodcentered" unicode="&#xb7;" horiz-adv-x="468" 
d="M191 708c2.66699 13.333 10.168 25.667 22.501 37s25.5 17 39.5 17c15.333 0 27.666 -6 36.999 -18s13 -25.333 11 -40c-2.66699 -13.333 -10.167 -25.5 -22.5 -36.5s-25.833 -16.5 -40.5 -16.5c-14.667 0.666992 -26.667 6.66699 -36 18s-13 24.333 -11 39z" />
    <glyph glyph-name="cedilla" unicode="&#xb8;" horiz-adv-x="485" 
d="M97 0l-24.9971 -77.002c23.333 -3.33301 44.833 -9.16602 64.5 -17.499s36 -19.333 49 -33s22.5 -30.167 28.5 -49.5s7 -42 3 -68c-5.33301 -36.667 -18.833 -67 -40.5 -91s-47.334 -43.167 -77.001 -57.5s-61.667 -24.5 -96 -30.5s-66.833 -9.66699 -97.5 -11l1 49
c23.333 0.666992 48.666 3.5 75.999 8.5s53.166 12.667 77.499 23s45.833 24.333 64.5 42s31 40.167 37 67.5c5.33301 25.333 3.5 45.666 -5.5 60.999s-22 27.333 -39 36s-36.167 14.834 -57.5 18.501s-41.333 6.83398 -60 9.50098l44 120h53z" />
    <glyph glyph-name="onesuperior" unicode="&#xb9;" horiz-adv-x="642" 
d="M433 665h-54l124 720l-253 -78l7 52l299 97h11z" />
    <glyph glyph-name="ordmasculine" unicode="&#xba;" horiz-adv-x="897" 
d="M236 1141c8 44 21.665 86.166 40.998 126.499s43.833 76 73.5 107s64.167 55.667 103.5 74s83 27.5 131 27.5s89 -9.33301 123 -28s61 -43.667 81 -75s33.333 -67.166 40 -107.499s6.66699 -81.833 0 -124.5l-20 -117c-8 -44 -21.667 -86.167 -41 -126.5
s-43.666 -75.833 -72.999 -106.5s-63.666 -55.167 -102.999 -73.5s-83 -27.5 -131 -27.5s-88.833 9.33301 -122.5 28s-60.667 43.5 -81 74.5s-33.833 66.5 -40.5 106.5s-6.66699 81.667 0 125zM269.998 1024c-6 -36 -7.16406 -70.834 -3.49707 -104.501s13 -63.5 28 -89.5
s36.167 -46.833 63.5 -62.5s61.666 -23.5 102.999 -23.5c40.667 0 77.5 7.66699 110.5 23s61.833 35.833 86.5 61.5s45.167 55.334 61.5 89.001s28.166 69.167 35.499 106.5l21 117c6 35.333 7.16699 69.833 3.5 103.5s-13 63.5 -28 89.5s-36.167 47.167 -63.5 63.5
s-61.333 24.5 -102 24.5s-77.5 -7.66699 -110.5 -23s-61.833 -36 -86.5 -62s-45.334 -56 -62.001 -90s-28.667 -69.333 -36 -106z" />
    <glyph glyph-name="guillemotright" unicode="&#xbb;" horiz-adv-x="880" 
d="M248 941l223 -381l-3 -19l-347 -369l-72 1l351 381l-218 387h66zM530 941l223 -381l-3 -19l-347 -369l-72 1l351 381l-218 387h66z" />
    <glyph glyph-name="onequarter" unicode="&#xbc;" horiz-adv-x="1433" 
d="M446 664h-54l124 720l-253 -78l7 52l299 97h11zM298 140l-43 32l885 1135l43 -32zM1130 253h142l-8 -49h-143l-35 -204h-52l34 204l-409 1l4 31l497 552l61 1zM738 253h338l82 466l-52 -65z" />
    <glyph glyph-name="onehalf" unicode="&#xbd;" horiz-adv-x="1473" 
d="M256 140l-43 32l885 1135l43 -32zM423 664h-54l124 720l-253 -78l7 52l299 97h11zM1248 0l-527.998 0.000976562l7 44l329 295c18 16 37.333 33 58 51s40.167 37 58.5 57s34.5 41.333 48.5 64s23.667 46.667 29 72c5.33301 26.667 5.16602 50.5 -0.500977 71.5
s-15.667 38.5 -30 52.5s-32 24.833 -53 32.5s-44.5 11.5 -70.5 11.5c-62 0 -114.667 -16.5 -158 -49.5s-72.666 -79.167 -87.999 -138.5h-54c7.33301 36 20.166 68.5 38.499 97.5s40.666 53.833 66.999 74.5s55.833 36.667 88.5 48s67.334 17 104.001 17
c32 0 62 -4.83301 90 -14.5s51.833 -23.667 71.5 -42s34 -41 43 -68s10.833 -57.5 5.5 -91.5c-4.66699 -29.333 -14.834 -57.333 -30.501 -84s-34 -51.834 -55 -75.501s-43.5 -46.167 -67.5 -67.5s-46.333 -41.333 -67 -60l-286 -248h458z" />
    <glyph glyph-name="threequarters" unicode="&#xbe;" horiz-adv-x="1548" 
d="M455 140l-43 32l885 1135l43 -32zM1265 253h142l-8 -49h-143l-35 -204h-52l34 204l-409 1l4 31l497 552l61 1zM873 253h338l82 466l-52 -65zM388 1090l67 0.00292969c25.333 0.666992 51.333 4 78 10s51.5 15.333 74.5 28s42.833 29 59.5 49s28 44 34 72
c6 27.333 5.66699 51.333 -1 72s-17.667 37.834 -33 51.501s-34.166 24 -56.499 31s-45.833 10.5 -70.5 10.5c-28 0 -54.667 -3.5 -80 -10.5s-48.5 -17.667 -69.5 -32s-39.167 -32 -54.5 -53s-27 -44.833 -35 -71.5h-53c7.33301 34 20.166 64.333 38.499 91
s40.5 49.334 66.5 68.001s54.833 33 86.5 43s64.5 15 98.5 15c32.667 0 63.5 -4.66699 92.5 -14s53.667 -23.333 74 -42s35.333 -41.5 45 -68.5s11.5 -58.167 5.5 -93.5c-4 -24 -11.833 -45.333 -23.5 -64s-25.667 -35.334 -42 -50.001s-34.666 -27.334 -54.999 -38.001
s-40.833 -20 -61.5 -28c22.667 -7.33301 43.167 -16.666 61.5 -27.999s33.666 -25 45.999 -41s21.166 -34.167 26.499 -54.5s6 -42.833 2 -67.5c-5.33301 -36 -17.5 -67.833 -36.5 -95.5s-42 -50.834 -69 -69.501s-57.167 -32.834 -90.5 -42.501s-67 -14.5 -101 -14.5
c-34.667 0 -67.5 4.83301 -98.5 14.5s-58 24.167 -81 43.5s-40.5 43.166 -52.5 71.499s-16.333 61.166 -13 98.499h53c-3.33301 -30 -0.5 -56.167 8.5 -78.5s22.5 -41 40.5 -56s39.167 -26.333 63.5 -34s50.5 -11.5 78.5 -11.5s55.333 3.5 82 10.5s51 17.667 73 32
s40.833 32.333 56.5 54s26.5 47.167 32.5 76.5c6 32.667 3.83301 59.667 -6.5 81s-25.666 38.333 -45.999 51s-43.833 21.5 -70.5 26.5s-53 7.83301 -79 8.5h-73z" />
    <glyph glyph-name="questiondown" unicode="&#xbf;" horiz-adv-x="895" 
d="M515 695c-6 -33.333 -13.165 -63.1631 -21.498 -89.4961s-19 -50.833 -32 -73.5s-28.667 -44.334 -47 -65.001s-40.5 -42 -66.5 -64c-34.667 -29.333 -68 -59 -100 -89s-61.167 -61.667 -87.5 -95s-49 -69.333 -68 -108s-32.833 -81.334 -41.5 -128.001
c-8 -42.667 -9.16699 -82.834 -3.5 -120.501s18 -70.667 37 -99s45 -50.666 78 -66.999s72.833 -24.5 119.5 -24.5s89 8 127 24s71.667 37.667 101 65s54.166 59.666 74.499 96.999s35.5 77.333 45.5 120h55c-10.667 -50.667 -27.334 -97.834 -50.001 -141.501
s-51 -81.667 -85 -114s-73.5 -57.666 -118.5 -75.999s-94.5 -27.5 -148.5 -27.5c-53.333 0 -99.833 9.66699 -139.5 29s-71.667 45.666 -96 78.999s-40.666 72.166 -48.999 116.499s-8.5 91.5 -0.5 141.5c8 49.333 22.167 95.5 42.5 138.5s44.666 83.333 72.999 121
s60.166 73 95.499 106s72 64.5 110 94.5c22.667 18 41.834 35.833 57.501 53.5s29 36.334 40 56.001s20 41 27 64s13.167 48.5 18.5 76.5h53zM600.002 1044c-2 -13.333 -9.16504 -25.667 -21.498 -37s-25.5 -17 -39.5 -17c-15.333 0 -27.833 6 -37.5 18
s-13.167 25.333 -10.5 40c2 13.333 9.33301 25.5 22 36.5s26 16.5 40 16.5c15.333 -0.666992 27.666 -6.66699 36.999 -18s12.666 -24.333 9.99902 -39z" />
    <glyph glyph-name="Agrave" unicode="&#xc0;" horiz-adv-x="1196" 
d="M911 435h-690l-233 -435h-60l778 1455l65 1l280 -1456h-57zM249 489h651l-168 899zM805 1568h-56l-152 268h63z" />
    <glyph glyph-name="Aacute" unicode="&#xc1;" horiz-adv-x="1196" 
d="M911 435h-690l-233 -435h-60l778 1455l65 1l280 -1456h-57zM249 489h651l-168 899zM945 1834l68 -1l-229 -263l-62 1z" />
    <glyph glyph-name="Acircumflex" unicode="&#xc2;" horiz-adv-x="1196" 
d="M911 435h-690l-233 -435h-60l778 1455l65 1l280 -1456h-57zM249 489h651l-168 899zM1013 1593l-1 -10l-66 -1l-146 196l-214 -194h-65l1 14l261 238h40z" />
    <glyph glyph-name="Atilde" unicode="&#xc3;" horiz-adv-x="1196" 
d="M911 435h-690l-233 -435h-60l778 1455l65 1l280 -1456h-57zM249 489h651l-168 899zM1117 1805c-5.33301 -24 -13.333 -47.165 -24 -69.498s-24.334 -42 -41.001 -59s-36 -30.667 -58 -41s-46.333 -15.5 -73 -15.5c-28 0 -52.167 6.5 -72.5 19.5s-40 27.333 -59 43
s-38.5 29.834 -58.5 42.501s-43 19 -69 19c-38.667 0 -69.167 -11.833 -91.5 -35.5s-38.5 -52.834 -48.5 -87.501h-55c4.66699 24 12.5 46.833 23.5 68.5s24.833 40.667 41.5 57s35.834 29.166 57.501 38.499s45.834 14 72.501 14c27.333 0 51.333 -6.5 72 -19.5
s40.5 -27.167 59.5 -42.5s38.5 -29.333 58.5 -42s43 -19 69 -19c19.333 0 36.666 3.5 51.999 10.5s28.833 16.5 40.5 28.5s21.5 25.667 29.5 41s14.333 31.666 19 48.999h55z" />
    <glyph glyph-name="Adieresis" unicode="&#xc4;" horiz-adv-x="1196" 
d="M911 435h-690l-233 -435h-60l778 1455l65 1l280 -1456h-57zM249 489h651l-168 899zM530 1741c2 14 8.99902 26.668 20.999 38.001s25.333 17 40 17c15.333 0 27.833 -5.83301 37.5 -17.5s13.167 -24.834 10.5 -39.501c-2 -14 -9.16699 -26.5 -21.5 -37.5
s-25.5 -16.5 -39.5 -16.5c-15.333 0 -27.666 5.66699 -36.999 17s-13 24.333 -11 39zM961.999 1741c2 14 8.99902 26.668 20.999 38.001s25.333 17 40 17s26.834 -5.83301 36.501 -17.5s13.5 -24.834 11.5 -39.501c-2 -14 -9.16699 -26.5 -21.5 -37.5
s-25.833 -16.5 -40.5 -16.5s-26.667 5.66699 -36 17s-13 24.333 -11 39z" />
    <glyph glyph-name="Aring" unicode="&#xc5;" horiz-adv-x="1196" 
d="M911 435h-690l-233 -435h-60l778 1455l65 1l280 -1456h-57zM249 489h651l-168 899zM619 1701c4 23.333 11.6689 45.4971 23.002 66.4971s25.666 39.333 42.999 55s36.833 28.334 58.5 38.001s44.5 14.5 68.5 14.5s45.5 -4.83301 64.5 -14.5s34.667 -22.667 47 -39
s21.166 -35 26.499 -56s6.33301 -42.833 3 -65.5c-3.33301 -23.333 -10.833 -45.166 -22.5 -65.499s-26 -38.166 -43 -53.499s-36.333 -27.5 -58 -36.5s-44.5 -13.5 -68.5 -13.5c-23.333 0 -44.5 4.66699 -63.5 14s-35 21.666 -48 36.999s-22.167 33.333 -27.5 54
s-6.33301 42.334 -3 65.001zM673.002 1701c-3.33301 -15.333 -3.50195 -30 -0.501953 -44s8.33301 -26.333 16 -37s17.834 -19 30.501 -25s27 -9 43 -9c16.667 0 32.667 2.83301 48 8.5s29 13.834 41 24.501s22.333 23 31 37s14.667 29 18 45
c2.66699 15.333 2.83398 30.166 0.500977 44.499s-7.33301 27 -15 38s-17.834 19.833 -30.501 26.5s-27.334 10 -44.001 10c-17.333 0 -33.5 -3 -48.5 -9s-28.667 -14.5 -41 -25.5s-22.666 -23.833 -30.999 -38.5s-14.166 -30 -17.499 -46z" />
    <glyph glyph-name="AE" unicode="&#xc6;" horiz-adv-x="1772" 
d="M1613 0h-732l57 425h-604l-323 -425h-67l1105 1456h755l-7 -54h-676l-82 -616h569l-7 -54h-569l-91 -678h679zM373 478h571l122 913z" />
    <glyph glyph-name="Ccedilla" unicode="&#xc7;" horiz-adv-x="1297" 
d="M1128 445c-19.333 -70 -46.5049 -133.506 -81.5049 -190.506s-77 -106 -126 -147s-104.667 -72.5 -167 -94.5s-130.5 -33 -204.5 -33c-59.333 0 -111.5 9 -156.5 27s-84 42.333 -117 73s-60 66.834 -81 108.501s-36.667 86 -47 133s-15.666 96 -15.999 147
s3.5 101.167 11.5 150.5l37 218c9.33301 52.667 22.833 105 40.5 157s39.667 101.5 66 148.5s56.666 90.833 90.999 131.5s72.833 76 115.5 106s89.5 53.5 140.5 70.5s105.833 25.5 164.5 25.5c71.333 0 134.5 -11 189.5 -33s100.833 -53.167 137.5 -93.5
s63.667 -89.166 81 -146.499s24.333 -121 21 -191h-53c2.66699 62 -3.33301 118.333 -18 169s-37.667 93.834 -69 129.501s-71.166 63.167 -119.499 82.5s-104.5 29 -168.5 29c-53.333 0 -103 -8 -149 -24s-88.5 -37.667 -127.5 -65s-74.167 -59.666 -105.5 -96.999
s-59.166 -77.5 -83.499 -120.5s-44.666 -88 -60.999 -135s-28.833 -94.167 -37.5 -141.5l-39 -220c-7.33301 -44 -11.166 -88.833 -11.499 -134.5s3.5 -90.167 11.5 -133.5s20.833 -84.166 38.5 -122.499s40.834 -71.833 69.501 -100.5s63 -51.5 103 -68.5
s87 -25.5 141 -25.5c68 0 129.833 9.5 185.5 28.5s105.5 46.5 149.5 82.5s82 79.333 114 130s57.667 107.334 77 170.001h54zM578.995 -9.00586l-24.9971 -77.002c23.333 -3.33301 44.833 -9.16602 64.5 -17.499s36 -19.333 49 -33s22.5 -30.167 28.5 -49.5s7 -42 3 -68
c-5.33301 -36.667 -18.833 -67 -40.5 -91s-47.334 -43.167 -77.001 -57.5s-61.667 -24.5 -96 -30.5s-66.833 -9.66699 -97.5 -11l1 49c23.333 0.666992 48.666 3.5 75.999 8.5s53.166 12.667 77.499 23s45.833 24.333 64.5 42s31 40.167 37 67.5
c5.33301 25.333 3.5 45.666 -5.5 60.999s-22 27.333 -39 36s-36.167 14.834 -57.5 18.501s-41.333 6.83398 -60 9.50098l44 120h53z" />
    <glyph glyph-name="Egrave" unicode="&#xc8;" horiz-adv-x="1141" 
d="M978 722h-709l-116 -668h806l-8 -54h-862l253 1456h860l-8 -54h-807l-109 -626h707zM812 1568h-56l-152 268h63z" />
    <glyph glyph-name="Eacute" unicode="&#xc9;" horiz-adv-x="1141" 
d="M978 722h-709l-116 -668h806l-8 -54h-862l253 1456h860l-8 -54h-807l-109 -626h707zM952 1834l68 -1l-229 -263l-62 1z" />
    <glyph glyph-name="Ecircumflex" unicode="&#xca;" horiz-adv-x="1141" 
d="M978 722h-709l-116 -668h806l-8 -54h-862l253 1456h860l-8 -54h-807l-109 -626h707zM1020 1593l-1 -10l-66 -1l-146 196l-214 -194h-65l1 14l261 238h40z" />
    <glyph glyph-name="Edieresis" unicode="&#xcb;" horiz-adv-x="1141" 
d="M978 722h-709l-116 -668h806l-8 -54h-862l253 1456h860l-8 -54h-807l-109 -626h707zM537 1741c2 14 8.99902 26.668 20.999 38.001s25.333 17 40 17c15.333 0 27.833 -5.83301 37.5 -17.5s13.167 -24.834 10.5 -39.501c-2 -14 -9.16699 -26.5 -21.5 -37.5
s-25.5 -16.5 -39.5 -16.5c-15.333 0 -27.666 5.66699 -36.999 17s-13 24.333 -11 39zM968.999 1741c2 14 8.99902 26.668 20.999 38.001s25.333 17 40 17s26.834 -5.83301 36.501 -17.5s13.5 -24.834 11.5 -39.501c-2 -14 -9.16699 -26.5 -21.5 -37.5
s-25.833 -16.5 -40.5 -16.5s-26.667 5.66699 -36 17s-13 24.333 -11 39z" />
    <glyph glyph-name="Igrave" unicode="&#xcc;" horiz-adv-x="528" 
d="M183 0h-54l251 1456h54zM473 1568h-56l-152 268h63z" />
    <glyph glyph-name="Iacute" unicode="&#xcd;" horiz-adv-x="528" 
d="M183 0h-54l251 1456h54zM612 1834l68 -1l-229 -263l-62 1z" />
    <glyph glyph-name="Icircumflex" unicode="&#xce;" horiz-adv-x="528" 
d="M183 0h-54l251 1456h54zM681 1593l-1 -10l-66 -1l-146 196l-214 -194h-65l1 14l261 238h40z" />
    <glyph glyph-name="Idieresis" unicode="&#xcf;" horiz-adv-x="528" 
d="M183 0h-54l251 1456h54zM198 1741c2 14 8.99902 26.668 20.999 38.001s25.333 17 40 17c15.333 0 27.833 -5.83301 37.5 -17.5s13.167 -24.834 10.5 -39.501c-2 -14 -9.16699 -26.5 -21.5 -37.5s-25.5 -16.5 -39.5 -16.5c-15.333 0 -27.666 5.66699 -36.999 17
s-13 24.333 -11 39zM629.999 1741c2 14 8.99902 26.668 20.999 38.001s25.333 17 40 17s26.834 -5.83301 36.501 -17.5s13.5 -24.834 11.5 -39.501c-2 -14 -9.16699 -26.5 -21.5 -37.5s-25.833 -16.5 -40.5 -16.5s-26.667 5.66699 -36 17s-13 24.333 -11 39z" />
    <glyph glyph-name="Eth" unicode="&#xd0;" horiz-adv-x="1340" 
d="M119 0l124.006 713.002h-135l8 54h136l120 689h387c59.333 -0.666992 113.666 -9.33398 162.999 -26.001s93.166 -39.5 131.499 -68.5s71 -63.333 98 -103s48.333 -83 64 -130s25.167 -97 28.5 -150s0.666016 -106.833 -8.00098 -161.5l-30 -178
c-15.333 -86 -42.833 -167.333 -82.5 -244s-89.334 -144.167 -149.001 -202.5s-128.334 -104.833 -206.001 -139.5s-161.834 -52.334 -252.501 -53.001h-397zM679.006 713.002h-382.001l-114 -659h333c82 1.33301 158.5 18 229.5 50s134.167 74.667 189.5 128
s101.5 115 138.5 185s62.833 144 77.5 222l32 181c12.667 74 12.834 145.667 0.500977 215s-36.5 131 -72.5 185s-83.5 97.5 -142.5 130.5s-128.833 50.167 -209.5 51.5h-342l-110 -635h379z" />
    <glyph glyph-name="Ntilde" unicode="&#xd1;" horiz-adv-x="1416" 
d="M1110 0h-52l-676 1366l-237 -1366h-55l250 1456h53l677 -1363l236 1363h54zM1228 1805c-5.33301 -24 -13.333 -47.165 -24 -69.498s-24.334 -42 -41.001 -59s-36 -30.667 -58 -41s-46.333 -15.5 -73 -15.5c-28 0 -52.167 6.5 -72.5 19.5s-40 27.333 -59 43
s-38.5 29.834 -58.5 42.501s-43 19 -69 19c-38.667 0 -69.167 -11.833 -91.5 -35.5s-38.5 -52.834 -48.5 -87.501h-55c4.66699 24 12.5 46.833 23.5 68.5s24.833 40.667 41.5 57s35.834 29.166 57.501 38.499s45.834 14 72.501 14c27.333 0 51.333 -6.5 72 -19.5
s40.5 -27.167 59.5 -42.5s38.5 -29.333 58.5 -42s43 -19 69 -19c19.333 0 36.666 3.5 51.999 10.5s28.833 16.5 40.5 28.5s21.5 25.667 29.5 41s14.333 31.666 19 48.999h55z" />
    <glyph glyph-name="Ograve" unicode="&#xd2;" horiz-adv-x="1333" 
d="M1199 619c-9.33301 -54 -23.501 -107.333 -42.501 -160s-42.167 -102.667 -69.5 -150s-59 -91 -95 -131s-76 -74.667 -120 -104s-92 -52.333 -144 -69s-108 -25 -168 -25c-59.333 0 -112.333 8.66699 -159 26s-87.334 41 -122.001 71s-63.334 65.5 -86.001 106.5
s-40 85.167 -52 132.5s-18.667 96.833 -20 148.5s2.33398 103.167 11.001 154.5l37 218c10 54 24.333 107.333 43 160s41.667 102.667 69 150s58.833 91 94.5 131s75.667 74.667 120 104s92.5 52.333 144.5 69s108 25 168 25c59.333 0 112.333 -8.66699 159 -26
s87.334 -41 122.001 -71s63.334 -65.5 86.001 -106.5s40 -85.167 52 -132.5s18.5 -96.833 19.5 -148.5s-2.5 -103.167 -10.5 -154.5zM1183 839c8 46.667 11.8291 93.334 11.4961 140.001s-5.16602 91.5 -14.499 134.5s-23.666 83.333 -42.999 121
s-44.166 70.334 -74.499 98.001s-66.666 49.5 -108.999 65.5s-90.833 24 -145.5 24c-82 0 -155.833 -16.5 -221.5 -49.5s-123 -76.833 -172 -131.5s-89.5 -116.834 -121.5 -186.501s-54.667 -141.5 -68 -215.5l-38 -220c-8 -46.667 -11.833 -93.334 -11.5 -140.001
s5 -91.667 14 -135s23.167 -83.833 42.5 -121.5s44.166 -70.5 74.499 -98.5s66.333 -50 108 -66s90.167 -24 145.5 -24c54.667 0 105.834 7.66699 153.501 23s91.667 36.333 132 63s76.833 58.5 109.5 95.5s61.5 77.167 86.5 120.5s46 89 63 137s30.167 96.667 39.5 146z
M870.995 1589h-56l-152 268h63z" />
    <glyph glyph-name="Oacute" unicode="&#xd3;" horiz-adv-x="1333" 
d="M1199 619c-9.33301 -54 -23.501 -107.333 -42.501 -160s-42.167 -102.667 -69.5 -150s-59 -91 -95 -131s-76 -74.667 -120 -104s-92 -52.333 -144 -69s-108 -25 -168 -25c-59.333 0 -112.333 8.66699 -159 26s-87.334 41 -122.001 71s-63.334 65.5 -86.001 106.5
s-40 85.167 -52 132.5s-18.667 96.833 -20 148.5s2.33398 103.167 11.001 154.5l37 218c10 54 24.333 107.333 43 160s41.667 102.667 69 150s58.833 91 94.5 131s75.667 74.667 120 104s92.5 52.333 144.5 69s108 25 168 25c59.333 0 112.333 -8.66699 159 -26
s87.334 -41 122.001 -71s63.334 -65.5 86.001 -106.5s40 -85.167 52 -132.5s18.5 -96.833 19.5 -148.5s-2.5 -103.167 -10.5 -154.5zM1183 839c8 46.667 11.8291 93.334 11.4961 140.001s-5.16602 91.5 -14.499 134.5s-23.666 83.333 -42.999 121
s-44.166 70.334 -74.499 98.001s-66.666 49.5 -108.999 65.5s-90.833 24 -145.5 24c-82 0 -155.833 -16.5 -221.5 -49.5s-123 -76.833 -172 -131.5s-89.5 -116.834 -121.5 -186.501s-54.667 -141.5 -68 -215.5l-38 -220c-8 -46.667 -11.833 -93.334 -11.5 -140.001
s5 -91.667 14 -135s23.167 -83.833 42.5 -121.5s44.166 -70.5 74.499 -98.5s66.333 -50 108 -66s90.167 -24 145.5 -24c54.667 0 105.834 7.66699 153.501 23s91.667 36.333 132 63s76.833 58.5 109.5 95.5s61.5 77.167 86.5 120.5s46 89 63 137s30.167 96.667 39.5 146z
M1011 1855l68 -1l-229 -263l-62 1z" />
    <glyph glyph-name="Ocircumflex" unicode="&#xd4;" horiz-adv-x="1333" 
d="M1199 619c-9.33301 -54 -23.501 -107.333 -42.501 -160s-42.167 -102.667 -69.5 -150s-59 -91 -95 -131s-76 -74.667 -120 -104s-92 -52.333 -144 -69s-108 -25 -168 -25c-59.333 0 -112.333 8.66699 -159 26s-87.334 41 -122.001 71s-63.334 65.5 -86.001 106.5
s-40 85.167 -52 132.5s-18.667 96.833 -20 148.5s2.33398 103.167 11.001 154.5l37 218c10 54 24.333 107.333 43 160s41.667 102.667 69 150s58.833 91 94.5 131s75.667 74.667 120 104s92.5 52.333 144.5 69s108 25 168 25c59.333 0 112.333 -8.66699 159 -26
s87.334 -41 122.001 -71s63.334 -65.5 86.001 -106.5s40 -85.167 52 -132.5s18.5 -96.833 19.5 -148.5s-2.5 -103.167 -10.5 -154.5zM1183 839c8 46.667 11.8291 93.334 11.4961 140.001s-5.16602 91.5 -14.499 134.5s-23.666 83.333 -42.999 121
s-44.166 70.334 -74.499 98.001s-66.666 49.5 -108.999 65.5s-90.833 24 -145.5 24c-82 0 -155.833 -16.5 -221.5 -49.5s-123 -76.833 -172 -131.5s-89.5 -116.834 -121.5 -186.501s-54.667 -141.5 -68 -215.5l-38 -220c-8 -46.667 -11.833 -93.334 -11.5 -140.001
s5 -91.667 14 -135s23.167 -83.833 42.5 -121.5s44.166 -70.5 74.499 -98.5s66.333 -50 108 -66s90.167 -24 145.5 -24c54.667 0 105.834 7.66699 153.501 23s91.667 36.333 132 63s76.833 58.5 109.5 95.5s61.5 77.167 86.5 120.5s46 89 63 137s30.167 96.667 39.5 146z
M1079 1614l-1 -10l-66 -1l-146 196l-214 -194h-65l1 14l261 238h40z" />
    <glyph glyph-name="Otilde" unicode="&#xd5;" horiz-adv-x="1333" 
d="M1199 619c-9.33301 -54 -23.501 -107.333 -42.501 -160s-42.167 -102.667 -69.5 -150s-59 -91 -95 -131s-76 -74.667 -120 -104s-92 -52.333 -144 -69s-108 -25 -168 -25c-59.333 0 -112.333 8.66699 -159 26s-87.334 41 -122.001 71s-63.334 65.5 -86.001 106.5
s-40 85.167 -52 132.5s-18.667 96.833 -20 148.5s2.33398 103.167 11.001 154.5l37 218c10 54 24.333 107.333 43 160s41.667 102.667 69 150s58.833 91 94.5 131s75.667 74.667 120 104s92.5 52.333 144.5 69s108 25 168 25c59.333 0 112.333 -8.66699 159 -26
s87.334 -41 122.001 -71s63.334 -65.5 86.001 -106.5s40 -85.167 52 -132.5s18.5 -96.833 19.5 -148.5s-2.5 -103.167 -10.5 -154.5zM1183 839c8 46.667 11.8291 93.334 11.4961 140.001s-5.16602 91.5 -14.499 134.5s-23.666 83.333 -42.999 121
s-44.166 70.334 -74.499 98.001s-66.666 49.5 -108.999 65.5s-90.833 24 -145.5 24c-82 0 -155.833 -16.5 -221.5 -49.5s-123 -76.833 -172 -131.5s-89.5 -116.834 -121.5 -186.501s-54.667 -141.5 -68 -215.5l-38 -220c-8 -46.667 -11.833 -93.334 -11.5 -140.001
s5 -91.667 14 -135s23.167 -83.833 42.5 -121.5s44.166 -70.5 74.499 -98.5s66.333 -50 108 -66s90.167 -24 145.5 -24c54.667 0 105.834 7.66699 153.501 23s91.667 36.333 132 63s76.833 58.5 109.5 95.5s61.5 77.167 86.5 120.5s46 89 63 137s30.167 96.667 39.5 146z
M1183 1826c-5.33301 -24 -13.333 -47.165 -24 -69.498s-24.334 -42 -41.001 -59s-36 -30.667 -58 -41s-46.333 -15.5 -73 -15.5c-28 0 -52.167 6.5 -72.5 19.5s-40 27.333 -59 43s-38.5 29.834 -58.5 42.501s-43 19 -69 19c-38.667 0 -69.167 -11.833 -91.5 -35.5
s-38.5 -52.834 -48.5 -87.501h-55c4.66699 24 12.5 46.833 23.5 68.5s24.833 40.667 41.5 57s35.834 29.166 57.501 38.499s45.834 14 72.501 14c27.333 0 51.333 -6.5 72 -19.5s40.5 -27.167 59.5 -42.5s38.5 -29.333 58.5 -42s43 -19 69 -19
c19.333 0 36.666 3.5 51.999 10.5s28.833 16.5 40.5 28.5s21.5 25.667 29.5 41s14.333 31.666 19 48.999h55z" />
    <glyph glyph-name="Odieresis" unicode="&#xd6;" horiz-adv-x="1333" 
d="M1199 619c-9.33301 -54 -23.501 -107.333 -42.501 -160s-42.167 -102.667 -69.5 -150s-59 -91 -95 -131s-76 -74.667 -120 -104s-92 -52.333 -144 -69s-108 -25 -168 -25c-59.333 0 -112.333 8.66699 -159 26s-87.334 41 -122.001 71s-63.334 65.5 -86.001 106.5
s-40 85.167 -52 132.5s-18.667 96.833 -20 148.5s2.33398 103.167 11.001 154.5l37 218c10 54 24.333 107.333 43 160s41.667 102.667 69 150s58.833 91 94.5 131s75.667 74.667 120 104s92.5 52.333 144.5 69s108 25 168 25c59.333 0 112.333 -8.66699 159 -26
s87.334 -41 122.001 -71s63.334 -65.5 86.001 -106.5s40 -85.167 52 -132.5s18.5 -96.833 19.5 -148.5s-2.5 -103.167 -10.5 -154.5zM1183 839c8 46.667 11.8291 93.334 11.4961 140.001s-5.16602 91.5 -14.499 134.5s-23.666 83.333 -42.999 121
s-44.166 70.334 -74.499 98.001s-66.666 49.5 -108.999 65.5s-90.833 24 -145.5 24c-82 0 -155.833 -16.5 -221.5 -49.5s-123 -76.833 -172 -131.5s-89.5 -116.834 -121.5 -186.501s-54.667 -141.5 -68 -215.5l-38 -220c-8 -46.667 -11.833 -93.334 -11.5 -140.001
s5 -91.667 14 -135s23.167 -83.833 42.5 -121.5s44.166 -70.5 74.499 -98.5s66.333 -50 108 -66s90.167 -24 145.5 -24c54.667 0 105.834 7.66699 153.501 23s91.667 36.333 132 63s76.833 58.5 109.5 95.5s61.5 77.167 86.5 120.5s46 89 63 137s30.167 96.667 39.5 146z
M595.995 1762c2 14 8.99902 26.668 20.999 38.001s25.333 17 40 17c15.333 0 27.833 -5.83301 37.5 -17.5s13.167 -24.834 10.5 -39.501c-2 -14 -9.16699 -26.5 -21.5 -37.5s-25.5 -16.5 -39.5 -16.5c-15.333 0 -27.666 5.66699 -36.999 17s-13 24.333 -11 39zM1027.99 1762
c2 14 8.99902 26.668 20.999 38.001s25.333 17 40 17s26.834 -5.83301 36.501 -17.5s13.5 -24.834 11.5 -39.501c-2 -14 -9.16699 -26.5 -21.5 -37.5s-25.833 -16.5 -40.5 -16.5s-26.667 5.66699 -36 17s-13 24.333 -11 39z" />
    <glyph glyph-name="multiply" unicode="&#xd7;" horiz-adv-x="1030" 
d="M-3 38l441 395l-284 362l42 37l282 -363l410 363l35 -41l-410 -365l306 -392l-42 -35l-304 390l-441 -390z" />
    <glyph glyph-name="Oslash" unicode="&#xd8;" horiz-adv-x="1333" 
d="M1199 619c-9.33301 -54 -23.501 -107.333 -42.501 -160s-42.167 -102.667 -69.5 -150s-59 -91 -95 -131s-76 -74.667 -120 -104s-92 -52.333 -144 -69s-108 -25 -168 -25c-66.667 0 -125 10.5 -175 31.5s-92.667 49.5 -128 85.5l-135 -171l-68 1l168 212
c-23.333 31.333 -42.333 65.833 -57 103.5s-25.667 77.167 -33 118.5s-11 83.833 -11 127.5s3.66699 87.167 11 130.5l37 218c10 54 24.333 107.333 43 160s41.667 102.667 69 150s58.833 91 94.5 131s75.667 74.667 120 104s92.5 52.333 144.5 69s108 25 168 25
c79.333 0 146.833 -14.833 202.5 -44.5s101.5 -69.167 137.5 -118.5l143 181l68 -1l-180 -228c32.667 -60.667 53.334 -128.167 62.001 -202.5s7 -149.5 -5 -225.5zM186.999 619c-6.66699 -39.333 -10.5 -78.6641 -11.5 -117.997s1.16699 -77.833 6.5 -115.5
s14 -73.834 26 -108.501s28 -66.334 48 -95.001l859 1089c-31.333 46 -72 82.667 -122 110s-111.667 41 -185 41c-82 0 -155.833 -16.5 -221.5 -49.5s-123 -76.833 -172 -131.5s-89.5 -116.834 -121.5 -186.501s-54.667 -141.5 -68 -215.5zM1183 839.002
c11.333 66.667 14.166 133.332 8.49902 199.999s-21.5 127.334 -47.5 182.001l-854 -1081c31.333 -32.667 69 -58.5 113 -77.5s96.333 -28.5 157 -28.5c54.667 0 105.834 7.66699 153.501 23s91.667 36.333 132 63s76.833 58.5 109.5 95.5s61.5 77.167 86.5 120.5
s46 89 63 137s30.167 96.667 39.5 146z" />
    <glyph glyph-name="Ugrave" unicode="&#xd9;" horiz-adv-x="1334" 
d="M1293 1456l-169.998 -987.003c-12.667 -72 -35.167 -137.833 -67.5 -197.5s-72.833 -111.167 -121.5 -154.5s-104.5 -77 -167.5 -101s-131.833 -36 -206.5 -36c-72.667 0 -136.667 12.167 -192 36.5s-100.5 58.333 -135.5 102s-59.333 95.334 -73 155.001
s-14.834 124.834 -3.50098 195.501l171 987h53l-170 -987c-10 -61.333 -9.5 -118.5 1.5 -171.5s31.667 -99 62 -138s69.666 -69.667 117.999 -92s104.5 -33.5 168.5 -33.5c65.333 0 126.333 10.833 183 32.5s107.167 51.834 151.5 90.501s81.5 84.5 111.5 137.5
s51 111.167 63 174.5l170 987h54zM888.002 1568h-56l-152 268h63z" />
    <glyph glyph-name="Uacute" unicode="&#xda;" horiz-adv-x="1334" 
d="M1293 1456l-169.998 -987.003c-12.667 -72 -35.167 -137.833 -67.5 -197.5s-72.833 -111.167 -121.5 -154.5s-104.5 -77 -167.5 -101s-131.833 -36 -206.5 -36c-72.667 0 -136.667 12.167 -192 36.5s-100.5 58.333 -135.5 102s-59.333 95.334 -73 155.001
s-14.834 124.834 -3.50098 195.501l171 987h53l-170 -987c-10 -61.333 -9.5 -118.5 1.5 -171.5s31.667 -99 62 -138s69.666 -69.667 117.999 -92s104.5 -33.5 168.5 -33.5c65.333 0 126.333 10.833 183 32.5s107.167 51.834 151.5 90.501s81.5 84.5 111.5 137.5
s51 111.167 63 174.5l170 987h54zM1028 1834l68 -1l-229 -263l-62 1z" />
    <glyph glyph-name="Ucircumflex" unicode="&#xdb;" horiz-adv-x="1334" 
d="M1293 1456l-169.998 -987.003c-12.667 -72 -35.167 -137.833 -67.5 -197.5s-72.833 -111.167 -121.5 -154.5s-104.5 -77 -167.5 -101s-131.833 -36 -206.5 -36c-72.667 0 -136.667 12.167 -192 36.5s-100.5 58.333 -135.5 102s-59.333 95.334 -73 155.001
s-14.834 124.834 -3.50098 195.501l171 987h53l-170 -987c-10 -61.333 -9.5 -118.5 1.5 -171.5s31.667 -99 62 -138s69.666 -69.667 117.999 -92s104.5 -33.5 168.5 -33.5c65.333 0 126.333 10.833 183 32.5s107.167 51.834 151.5 90.501s81.5 84.5 111.5 137.5
s51 111.167 63 174.5l170 987h54zM1096 1593l-1 -10l-66 -1l-146 196l-214 -194h-65l1 14l261 238h40z" />
    <glyph glyph-name="Udieresis" unicode="&#xdc;" horiz-adv-x="1334" 
d="M1293 1456l-169.998 -987.003c-12.667 -72 -35.167 -137.833 -67.5 -197.5s-72.833 -111.167 -121.5 -154.5s-104.5 -77 -167.5 -101s-131.833 -36 -206.5 -36c-72.667 0 -136.667 12.167 -192 36.5s-100.5 58.333 -135.5 102s-59.333 95.334 -73 155.001
s-14.834 124.834 -3.50098 195.501l171 987h53l-170 -987c-10 -61.333 -9.5 -118.5 1.5 -171.5s31.667 -99 62 -138s69.666 -69.667 117.999 -92s104.5 -33.5 168.5 -33.5c65.333 0 126.333 10.833 183 32.5s107.167 51.834 151.5 90.501s81.5 84.5 111.5 137.5
s51 111.167 63 174.5l170 987h54zM613.002 1741c2 14 8.99902 26.668 20.999 38.001s25.333 17 40 17c15.333 0 27.833 -5.83301 37.5 -17.5s13.167 -24.834 10.5 -39.501c-2 -14 -9.16699 -26.5 -21.5 -37.5s-25.5 -16.5 -39.5 -16.5c-15.333 0 -27.666 5.66699 -36.999 17
s-13 24.333 -11 39zM1045 1741c2 14 8.99902 26.668 20.999 38.001s25.333 17 40 17s26.834 -5.83301 36.501 -17.5s13.5 -24.834 11.5 -39.501c-2 -14 -9.16699 -26.5 -21.5 -37.5s-25.833 -16.5 -40.5 -16.5s-26.667 5.66699 -36 17s-13 24.333 -11 39z" />
    <glyph glyph-name="Yacute" unicode="&#xdd;" horiz-adv-x="1196" 
d="M589 604l642 851l68 -1l-690 -905l-94 -549h-54l96 558l-378 899h69zM940 1823l68 -1l-229 -263l-62 1z" />
    <glyph glyph-name="Thorn" unicode="&#xde;" horiz-adv-x="1192" 
d="M395 1456l-53.999 -312.996h355c60 -1.33301 115 -11.333 165 -30s92 -45.334 126 -80.001s58.5 -76.834 73.5 -126.501s17.5 -105.834 7.5 -168.501c-10 -63.333 -30.333 -119.833 -61 -169.5s-68.334 -91.834 -113.001 -126.501s-95.167 -61.167 -151.5 -79.5
s-115.5 -27.833 -177.5 -28.5h-363l-58 -334h-54l251 1456h54zM333.001 1089l-122.002 -701h354c52.667 0.666992 103.834 9.16699 153.501 25.5s94.667 39.333 135 69s74.5 65.834 102.5 108.501s47 91 57 145s9 102.5 -3 145.5s-32.667 79.833 -62 110.5
s-65.666 54.167 -108.999 70.5s-91 25.166 -143 26.499h-363z" />
    <glyph glyph-name="germandbls" unicode="&#xdf;" horiz-adv-x="1158" 
d="M109 0l-53.9922 0.00390625l197 1143c9.33301 50.667 23.833 99.667 43.5 147s45.167 89.166 76.5 125.499s68.666 65.333 111.999 87s93.666 32.5 150.999 32.5c38.667 0 75.167 -7 109.5 -21s63.666 -33.333 87.999 -58s42.333 -54 54 -88s14.5 -71 8.5 -111
s-18 -77.333 -36 -112s-37.167 -68.667 -57.5 -102s-39.833 -67.333 -58.5 -102s-31.334 -72 -38.001 -112c-6.66699 -36.667 -3.5 -69.667 9.5 -99s30.667 -56.833 53 -82.5s47.166 -50.834 74.499 -75.501s52.166 -50.5 74.499 -77.5s40 -56.5 53 -88.5
s16.167 -68.333 9.5 -109c-7.33301 -46.667 -24.166 -89.5 -50.499 -128.5s-58.333 -72.5 -96 -100.5s-79.167 -49.833 -124.5 -65.5s-90.666 -23.5 -135.999 -23.5c-24.667 0 -50.334 1.66699 -77.001 5s-52.834 8.5 -78.501 15.5s-50.334 16.167 -74.001 27.5
s-44.834 25.333 -63.501 42l30 47c34 -28.667 73.833 -49.834 119.5 -63.501s90.5 -20.5 134.5 -20.5c40 0 80 6.66699 120 20s76.667 31.833 110 55.5s62 52.334 86 86.001s40 71.167 48 112.5c7.33301 38 4.83301 72 -7.5 102s-29.666 58 -51.999 84
s-47.333 50.833 -75 74.5s-52.834 48.667 -75.501 75s-40.667 54.666 -54 84.999s-17 65.166 -11 104.499c6 40 17.5 77.5 34.5 112.5s35.5 69.333 55.5 103s38.833 67.667 56.5 102s30.167 71.166 37.5 110.499c5.33301 30 4 58.333 -4 85s-20.833 50 -38.5 70
s-39.167 36 -64.5 48s-53 18.333 -83 19c-50.667 0.666992 -95.167 -8.16602 -133.5 -26.499s-71.333 -43 -99 -74s-50.167 -67.167 -67.5 -108.5s-30.333 -84.333 -39 -129z" />
    <glyph glyph-name="agrave" unicode="&#xe0;" horiz-adv-x="1059" 
d="M741 0c-1.33301 34 -0.167969 67.332 3.49902 99.999s8.83398 65.334 15.501 98.001c-56 -68.667 -122.5 -122.334 -199.5 -161.001s-160.5 -57.667 -250.5 -57c-42.667 0 -82.5 7 -119.5 21s-68.333 33.667 -94 59s-44.667 56 -57 92s-14.833 76.667 -7.5 122
c6.66699 41.333 19.5 78.166 38.5 110.499s42.5 60.666 70.5 84.999s59.5 45 94.5 62s71.333 30.833 109 41.5s75.667 18.334 114 23.001s75.5 7.33398 111.5 8.00098h255l29 158c7.33301 46 6 86.833 -4 122.5s-27 65.5 -51 89.5s-54 42.333 -90 55s-76.333 19 -121 19
c-42 0 -83.667 -5.83301 -125 -17.5s-79.5 -28.5 -114.5 -50.5s-65.333 -49.333 -91 -82s-43.5 -70.334 -53.5 -113.001l-54 2c10 50 29.333 94.5 58 133.5s63 71.833 103 98.5s84 47.167 132 61.5s96.333 21.5 145 21.5c52 0 99.5 -7.66699 142.5 -23
s78.833 -37.666 107.5 -66.999s49.167 -65.166 61.5 -107.499s14.5 -90.5 6.5 -144.5l-93 -542c-6 -34 -10.5 -68.667 -13.5 -104s-1.5 -70.333 4.5 -105l-1 -9h-62zM308.998 32.999c48.667 -0.666992 95.167 5.1709 139.5 17.5039s86 29.666 125 51.999
s75 49.666 108 81.999s62.5 68.166 88.5 107.499l46 257h-242c-30.667 -0.666992 -63.167 -2.83398 -97.5 -6.50098s-68.5 -10 -102.5 -19s-66.833 -20.5 -98.5 -34.5s-60.5 -31.167 -86.5 -51.5s-48.167 -44.333 -66.5 -72s-30.833 -59.5 -37.5 -95.5s-5 -68.5 5 -97.5
s25.667 -53.833 47 -74.5s47 -36.5 77 -47.5s61.667 -16.833 95 -17.5zM715.998 1249h-56l-152 268h63z" />
    <glyph glyph-name="aacute" unicode="&#xe1;" horiz-adv-x="1059" 
d="M741 0c-1.33301 34 -0.167969 67.332 3.49902 99.999s8.83398 65.334 15.501 98.001c-56 -68.667 -122.5 -122.334 -199.5 -161.001s-160.5 -57.667 -250.5 -57c-42.667 0 -82.5 7 -119.5 21s-68.333 33.667 -94 59s-44.667 56 -57 92s-14.833 76.667 -7.5 122
c6.66699 41.333 19.5 78.166 38.5 110.499s42.5 60.666 70.5 84.999s59.5 45 94.5 62s71.333 30.833 109 41.5s75.667 18.334 114 23.001s75.5 7.33398 111.5 8.00098h255l29 158c7.33301 46 6 86.833 -4 122.5s-27 65.5 -51 89.5s-54 42.333 -90 55s-76.333 19 -121 19
c-42 0 -83.667 -5.83301 -125 -17.5s-79.5 -28.5 -114.5 -50.5s-65.333 -49.333 -91 -82s-43.5 -70.334 -53.5 -113.001l-54 2c10 50 29.333 94.5 58 133.5s63 71.833 103 98.5s84 47.167 132 61.5s96.333 21.5 145 21.5c52 0 99.5 -7.66699 142.5 -23
s78.833 -37.666 107.5 -66.999s49.167 -65.166 61.5 -107.499s14.5 -90.5 6.5 -144.5l-93 -542c-6 -34 -10.5 -68.667 -13.5 -104s-1.5 -70.333 4.5 -105l-1 -9h-62zM308.998 32.999c48.667 -0.666992 95.167 5.1709 139.5 17.5039s86 29.666 125 51.999
s75 49.666 108 81.999s62.5 68.166 88.5 107.499l46 257h-242c-30.667 -0.666992 -63.167 -2.83398 -97.5 -6.50098s-68.5 -10 -102.5 -19s-66.833 -20.5 -98.5 -34.5s-60.5 -31.167 -86.5 -51.5s-48.167 -44.333 -66.5 -72s-30.833 -59.5 -37.5 -95.5s-5 -68.5 5 -97.5
s25.667 -53.833 47 -74.5s47 -36.5 77 -47.5s61.667 -16.833 95 -17.5zM855.998 1515l68 -1l-229 -263l-62 1z" />
    <glyph glyph-name="acircumflex" unicode="&#xe2;" horiz-adv-x="1059" 
d="M741 0c-1.33301 34 -0.167969 67.332 3.49902 99.999s8.83398 65.334 15.501 98.001c-56 -68.667 -122.5 -122.334 -199.5 -161.001s-160.5 -57.667 -250.5 -57c-42.667 0 -82.5 7 -119.5 21s-68.333 33.667 -94 59s-44.667 56 -57 92s-14.833 76.667 -7.5 122
c6.66699 41.333 19.5 78.166 38.5 110.499s42.5 60.666 70.5 84.999s59.5 45 94.5 62s71.333 30.833 109 41.5s75.667 18.334 114 23.001s75.5 7.33398 111.5 8.00098h255l29 158c7.33301 46 6 86.833 -4 122.5s-27 65.5 -51 89.5s-54 42.333 -90 55s-76.333 19 -121 19
c-42 0 -83.667 -5.83301 -125 -17.5s-79.5 -28.5 -114.5 -50.5s-65.333 -49.333 -91 -82s-43.5 -70.334 -53.5 -113.001l-54 2c10 50 29.333 94.5 58 133.5s63 71.833 103 98.5s84 47.167 132 61.5s96.333 21.5 145 21.5c52 0 99.5 -7.66699 142.5 -23
s78.833 -37.666 107.5 -66.999s49.167 -65.166 61.5 -107.499s14.5 -90.5 6.5 -144.5l-93 -542c-6 -34 -10.5 -68.667 -13.5 -104s-1.5 -70.333 4.5 -105l-1 -9h-62zM308.998 32.999c48.667 -0.666992 95.167 5.1709 139.5 17.5039s86 29.666 125 51.999
s75 49.666 108 81.999s62.5 68.166 88.5 107.499l46 257h-242c-30.667 -0.666992 -63.167 -2.83398 -97.5 -6.50098s-68.5 -10 -102.5 -19s-66.833 -20.5 -98.5 -34.5s-60.5 -31.167 -86.5 -51.5s-48.167 -44.333 -66.5 -72s-30.833 -59.5 -37.5 -95.5s-5 -68.5 5 -97.5
s25.667 -53.833 47 -74.5s47 -36.5 77 -47.5s61.667 -16.833 95 -17.5zM923.998 1274l-1 -10l-66 -1l-146 196l-214 -194h-65l1 14l261 238h40z" />
    <glyph glyph-name="atilde" unicode="&#xe3;" horiz-adv-x="1059" 
d="M741 0c-1.33301 34 -0.167969 67.332 3.49902 99.999s8.83398 65.334 15.501 98.001c-56 -68.667 -122.5 -122.334 -199.5 -161.001s-160.5 -57.667 -250.5 -57c-42.667 0 -82.5 7 -119.5 21s-68.333 33.667 -94 59s-44.667 56 -57 92s-14.833 76.667 -7.5 122
c6.66699 41.333 19.5 78.166 38.5 110.499s42.5 60.666 70.5 84.999s59.5 45 94.5 62s71.333 30.833 109 41.5s75.667 18.334 114 23.001s75.5 7.33398 111.5 8.00098h255l29 158c7.33301 46 6 86.833 -4 122.5s-27 65.5 -51 89.5s-54 42.333 -90 55s-76.333 19 -121 19
c-42 0 -83.667 -5.83301 -125 -17.5s-79.5 -28.5 -114.5 -50.5s-65.333 -49.333 -91 -82s-43.5 -70.334 -53.5 -113.001l-54 2c10 50 29.333 94.5 58 133.5s63 71.833 103 98.5s84 47.167 132 61.5s96.333 21.5 145 21.5c52 0 99.5 -7.66699 142.5 -23
s78.833 -37.666 107.5 -66.999s49.167 -65.166 61.5 -107.499s14.5 -90.5 6.5 -144.5l-93 -542c-6 -34 -10.5 -68.667 -13.5 -104s-1.5 -70.333 4.5 -105l-1 -9h-62zM308.998 32.999c48.667 -0.666992 95.167 5.1709 139.5 17.5039s86 29.666 125 51.999
s75 49.666 108 81.999s62.5 68.166 88.5 107.499l46 257h-242c-30.667 -0.666992 -63.167 -2.83398 -97.5 -6.50098s-68.5 -10 -102.5 -19s-66.833 -20.5 -98.5 -34.5s-60.5 -31.167 -86.5 -51.5s-48.167 -44.333 -66.5 -72s-30.833 -59.5 -37.5 -95.5s-5 -68.5 5 -97.5
s25.667 -53.833 47 -74.5s47 -36.5 77 -47.5s61.667 -16.833 95 -17.5zM1028 1485c-5.33301 -24 -13.333 -47.165 -24 -69.498s-24.334 -42 -41.001 -59s-36 -30.667 -58 -41s-46.333 -15.5 -73 -15.5c-28 0 -52.167 6.5 -72.5 19.5s-40 27.333 -59 43
s-38.5 29.834 -58.5 42.501s-43 19 -69 19c-38.667 0 -69.167 -11.833 -91.5 -35.5s-38.5 -52.834 -48.5 -87.501h-55c4.66699 24 12.5 46.833 23.5 68.5s24.833 40.667 41.5 57s35.834 29.166 57.501 38.499s45.834 14 72.501 14c27.333 0 51.333 -6.5 72 -19.5
s40.5 -27.167 59.5 -42.5s38.5 -29.333 58.5 -42s43 -19 69 -19c19.333 0 36.666 3.5 51.999 10.5s28.833 16.5 40.5 28.5s21.5 25.667 29.5 41s14.333 31.666 19 48.999h55z" />
    <glyph glyph-name="adieresis" unicode="&#xe4;" horiz-adv-x="1059" 
d="M741 0c-1.33301 34 -0.167969 67.332 3.49902 99.999s8.83398 65.334 15.501 98.001c-56 -68.667 -122.5 -122.334 -199.5 -161.001s-160.5 -57.667 -250.5 -57c-42.667 0 -82.5 7 -119.5 21s-68.333 33.667 -94 59s-44.667 56 -57 92s-14.833 76.667 -7.5 122
c6.66699 41.333 19.5 78.166 38.5 110.499s42.5 60.666 70.5 84.999s59.5 45 94.5 62s71.333 30.833 109 41.5s75.667 18.334 114 23.001s75.5 7.33398 111.5 8.00098h255l29 158c7.33301 46 6 86.833 -4 122.5s-27 65.5 -51 89.5s-54 42.333 -90 55s-76.333 19 -121 19
c-42 0 -83.667 -5.83301 -125 -17.5s-79.5 -28.5 -114.5 -50.5s-65.333 -49.333 -91 -82s-43.5 -70.334 -53.5 -113.001l-54 2c10 50 29.333 94.5 58 133.5s63 71.833 103 98.5s84 47.167 132 61.5s96.333 21.5 145 21.5c52 0 99.5 -7.66699 142.5 -23
s78.833 -37.666 107.5 -66.999s49.167 -65.166 61.5 -107.499s14.5 -90.5 6.5 -144.5l-93 -542c-6 -34 -10.5 -68.667 -13.5 -104s-1.5 -70.333 4.5 -105l-1 -9h-62zM308.998 32.999c48.667 -0.666992 95.167 5.1709 139.5 17.5039s86 29.666 125 51.999
s75 49.666 108 81.999s62.5 68.166 88.5 107.499l46 257h-242c-30.667 -0.666992 -63.167 -2.83398 -97.5 -6.50098s-68.5 -10 -102.5 -19s-66.833 -20.5 -98.5 -34.5s-60.5 -31.167 -86.5 -51.5s-48.167 -44.333 -66.5 -72s-30.833 -59.5 -37.5 -95.5s-5 -68.5 5 -97.5
s25.667 -53.833 47 -74.5s47 -36.5 77 -47.5s61.667 -16.833 95 -17.5zM440.998 1422c2 14 8.99902 26.668 20.999 38.001s25.333 17 40 17c15.333 0 27.833 -5.83301 37.5 -17.5s13.167 -24.834 10.5 -39.501c-2 -14 -9.16699 -26.5 -21.5 -37.5s-25.5 -16.5 -39.5 -16.5
c-15.333 0 -27.666 5.66699 -36.999 17s-13 24.333 -11 39zM872.997 1422c2 14 8.99902 26.668 20.999 38.001s25.333 17 40 17s26.834 -5.83301 36.501 -17.5s13.5 -24.834 11.5 -39.501c-2 -14 -9.16699 -26.5 -21.5 -37.5s-25.833 -16.5 -40.5 -16.5
s-26.667 5.66699 -36 17s-13 24.333 -11 39z" />
    <glyph glyph-name="aring" unicode="&#xe5;" horiz-adv-x="1059" 
d="M741 0c-1.33301 34 -0.167969 67.332 3.49902 99.999s8.83398 65.334 15.501 98.001c-56 -68.667 -122.5 -122.334 -199.5 -161.001s-160.5 -57.667 -250.5 -57c-42.667 0 -82.5 7 -119.5 21s-68.333 33.667 -94 59s-44.667 56 -57 92s-14.833 76.667 -7.5 122
c6.66699 41.333 19.5 78.166 38.5 110.499s42.5 60.666 70.5 84.999s59.5 45 94.5 62s71.333 30.833 109 41.5s75.667 18.334 114 23.001s75.5 7.33398 111.5 8.00098h255l29 158c7.33301 46 6 86.833 -4 122.5s-27 65.5 -51 89.5s-54 42.333 -90 55s-76.333 19 -121 19
c-42 0 -83.667 -5.83301 -125 -17.5s-79.5 -28.5 -114.5 -50.5s-65.333 -49.333 -91 -82s-43.5 -70.334 -53.5 -113.001l-54 2c10 50 29.333 94.5 58 133.5s63 71.833 103 98.5s84 47.167 132 61.5s96.333 21.5 145 21.5c52 0 99.5 -7.66699 142.5 -23
s78.833 -37.666 107.5 -66.999s49.167 -65.166 61.5 -107.499s14.5 -90.5 6.5 -144.5l-93 -542c-6 -34 -10.5 -68.667 -13.5 -104s-1.5 -70.333 4.5 -105l-1 -9h-62zM308.998 32.999c48.667 -0.666992 95.167 5.1709 139.5 17.5039s86 29.666 125 51.999
s75 49.666 108 81.999s62.5 68.166 88.5 107.499l46 257h-242c-30.667 -0.666992 -63.167 -2.83398 -97.5 -6.50098s-68.5 -10 -102.5 -19s-66.833 -20.5 -98.5 -34.5s-60.5 -31.167 -86.5 -51.5s-48.167 -44.333 -66.5 -72s-30.833 -59.5 -37.5 -95.5s-5 -68.5 5 -97.5
s25.667 -53.833 47 -74.5s47 -36.5 77 -47.5s61.667 -16.833 95 -17.5zM529.998 1382c4 23.333 11.6689 45.4971 23.002 66.4971s25.666 39.333 42.999 55s36.833 28.334 58.5 38.001s44.5 14.5 68.5 14.5s45.5 -4.83301 64.5 -14.5s34.667 -22.667 47 -39
s21.166 -35 26.499 -56s6.33301 -42.833 3 -65.5c-3.33301 -23.333 -10.833 -45.166 -22.5 -65.499s-26 -38.166 -43 -53.499s-36.333 -27.5 -58 -36.5s-44.5 -13.5 -68.5 -13.5c-23.333 0 -44.5 4.66699 -63.5 14s-35 21.666 -48 36.999s-22.167 33.333 -27.5 54
s-6.33301 42.334 -3 65.001zM584 1382c-3.33301 -15.333 -3.50195 -30 -0.501953 -44s8.33301 -26.333 16 -37s17.834 -19 30.501 -25s27 -9 43 -9c16.667 0 32.667 2.83301 48 8.5s29 13.834 41 24.501s22.333 23 31 37s14.667 29 18 45
c2.66699 15.333 2.83398 30.166 0.500977 44.499s-7.33301 27 -15 38s-17.834 19.833 -30.501 26.5s-27.334 10 -44.001 10c-17.333 0 -33.5 -3 -48.5 -9s-28.667 -14.5 -41 -25.5s-22.666 -23.833 -30.999 -38.5s-14.166 -30 -17.499 -46z" />
    <glyph glyph-name="ae" unicode="&#xe6;" horiz-adv-x="1693" 
d="M1128 -20c-42 0 -81.499 5.49609 -118.499 16.4961s-70.5 27 -100.5 48s-56 47 -78 78s-39 66.833 -51 107.5l-3 -14h2c-24 -37.333 -52.5 -70.666 -85.5 -99.999s-69 -54 -108 -74s-80 -35.333 -123 -46s-86.5 -16 -130.5 -16c-46 0 -88.833 6.66699 -128.5 20
s-73.167 32.833 -100.5 58.5s-47.5 57.334 -60.5 95.001s-15.5 81.167 -7.5 130.5c9.33301 58.667 28.833 109.667 58.5 153s66 79.166 109 107.499s90.833 49.5 143.5 63.5s106.667 21.333 162 22h285l16 90c7.33301 43.333 9.33301 84.833 6 124.5s-13.5 74.5 -30.5 104.5
s-41.5 54 -73.5 72s-73 27 -123 27c-44.667 0 -88 -5.83301 -130 -17.5s-80.333 -29.167 -115 -52.5s-64.5 -52.166 -89.5 -86.499s-42.833 -74.166 -53.5 -119.499l-52 7c10.667 52.667 29.834 99 57.501 139s61.334 73.667 101.001 101s83.667 48 132 62
s98.166 21 149.499 21c44 0 83.5 -6.83301 118.5 -20.5s64.5 -33 88.5 -58s42.333 -55.167 55 -90.5s18.667 -75 18 -119c22.667 38.667 49 75.334 79 110.001s63 65.167 99 91.5s75 47.333 117 63s87 23.5 135 23.5c64.667 0 119.5 -12.167 164.5 -36.5
s80.667 -56.833 107 -97.5s43.5 -87.667 51.5 -141s7.33301 -109 -2 -167l-15 -83h-760l-3 -13l-13 -64c-10.667 -57.333 -13.667 -113.833 -9 -169.5s18.667 -105.5 42 -149.5s56.666 -79.5 99.999 -106.5s98.666 -40.5 165.999 -40.5c65.333 0 127 11.667 185 35
s112 55 162 95l25 -44c-105.333 -93.333 -229 -140 -371 -140zM331.001 31.9961c34.667 0 70.999 4.33301 108.999 13s74.667 21.167 110 37.5s68 36.5 98 60.5s54.667 51.333 74 82l62 350h-274c-47.333 -0.666992 -94 -7 -140 -19s-88.333 -30 -127 -54
s-71.667 -54.5 -99 -91.5s-45.666 -80.5 -54.999 -130.5c-8 -41.333 -7 -77.333 3 -108s26.167 -56.5 48.5 -77.5s50 -36.667 83 -47s68.833 -15.5 107.5 -15.5zM1298 1048c-59.333 0 -112.832 -12.168 -160.499 -36.501s-90 -56.166 -127 -95.499
s-68.667 -83.833 -95 -133.5s-47.833 -99.834 -64.5 -150.501h706l7 32c9.33301 48.667 11.166 96.167 5.49902 142.5s-19.334 87.333 -41.001 123s-51.667 64.334 -90 86.001s-85.166 32.5 -140.499 32.5z" />
    <glyph glyph-name="ccedilla" unicode="&#xe7;" horiz-adv-x="1018" 
d="M420 34c46.667 0 90.9961 6.83789 132.996 20.5049s79.833 33.334 113.5 59.001s62.834 56.5 87.501 92.5s43.667 76.333 57 121h54c-12.667 -52 -32.834 -99.167 -60.501 -141.5s-61 -78.833 -100 -109.5s-82.667 -54.334 -131 -71.001s-99.166 -25 -152.499 -25
c-50.667 0 -95.167 7.5 -133.5 22.5s-71.166 35.5 -98.499 61.5s-49.833 56.5 -67.5 91.5s-30.667 72.5 -39 112.5s-12.5 81.5 -12.5 124.5s3.33301 85.5 10 127.5l7 42c8 44.667 19.333 88.834 34 132.501s32.667 85.5 54 125.5s46.333 77.167 75 111.5
s60.834 64.166 96.501 89.499s74.834 45.166 117.501 59.499s89 21.5 139 21.5c56 0 105.667 -9.5 149 -28.5s79.333 -45.333 108 -79s49.5 -73.5 62.5 -119.5s17.167 -96 12.5 -150h-53c4.66699 46 1.66699 88.667 -9 128s-28 73.5 -52 102.5s-54.167 51.667 -90.5 68
s-78.5 24.5 -126.5 24.5c-68 0 -128.167 -14.167 -180.5 -42.5s-97.5 -65.5 -135.5 -111.5s-69.167 -98 -93.5 -156s-42.166 -116.667 -53.499 -176l-7 -42c-6 -36.667 -9.66699 -74.334 -11 -113.001s1 -75.834 7 -111.501s16 -69.334 30 -101.001
s32.667 -59.334 56 -83.001s51.666 -42.5 84.999 -56.5s73 -21 119 -21zM451.996 -8.99512l-24.9971 -77.002c23.333 -3.33301 44.833 -9.16602 64.5 -17.499s36 -19.333 49 -33s22.5 -30.167 28.5 -49.5s7 -42 3 -68c-5.33301 -36.667 -18.833 -67 -40.5 -91
s-47.334 -43.167 -77.001 -57.5s-61.667 -24.5 -96 -30.5s-66.833 -9.66699 -97.5 -11l1 49c23.333 0.666992 48.666 3.5 75.999 8.5s53.166 12.667 77.499 23s45.833 24.333 64.5 42s31 40.167 37 67.5c5.33301 25.333 3.5 45.666 -5.5 60.999s-22 27.333 -39 36
s-36.167 14.834 -57.5 18.501s-41.333 6.83398 -60 9.50098l44 120h53z" />
    <glyph glyph-name="egrave" unicode="&#xe8;" horiz-adv-x="1011" 
d="M442 -20c-48.667 0 -92.502 7.33008 -131.502 21.9971s-73.5 34.834 -103.5 60.501s-55.167 55.834 -75.5 90.501s-36.166 72 -47.499 112s-18.166 81.5 -20.499 124.5s-0.166016 85.833 6.50098 128.5l7 44c7.33301 43.333 19 86.666 35 129.999s35.5 85 58.5 125
s49.667 77.333 80 112s63.833 64.834 100.5 90.501s76.5 45.834 119.5 60.501s88.5 22 136.5 22c64.667 0 119.667 -13.5 165 -40.5s81.166 -62.167 107.499 -105.5s43.833 -92.666 52.5 -147.999s8.66699 -111.333 0 -168l-10 -63h-785l-4 -15l-8 -44
c-6.66699 -37.333 -9.5 -75 -8.5 -113s6 -75 15 -111s22.167 -69.667 39.5 -101s38.833 -58.833 64.5 -82.5s55.5 -42.5 89.5 -56.5s72.667 -21 116 -21c68 -0.666992 129.667 12.166 185 38.499s107 62.833 155 109.5l36 -29c-49.333 -54.667 -105.5 -97 -168.5 -127
s-131.833 -45 -206.5 -45zM607.998 1048c-59.333 0 -113.667 -12.001 -163 -36.001s-93.5 -55.833 -132.5 -95.5s-72.667 -84.5 -101 -134.5s-50.833 -100.333 -67.5 -151h729l3 13c9.33301 48 10.833 95.833 4.5 143.5s-20.5 90.834 -42.5 129.501
s-52.167 70.167 -90.5 94.5s-84.833 36.5 -139.5 36.5zM705.997 1248h-56l-152 268h63z" />
    <glyph glyph-name="eacute" unicode="&#xe9;" horiz-adv-x="1011" 
d="M442 -20c-48.667 0 -92.502 7.33008 -131.502 21.9971s-73.5 34.834 -103.5 60.501s-55.167 55.834 -75.5 90.501s-36.166 72 -47.499 112s-18.166 81.5 -20.499 124.5s-0.166016 85.833 6.50098 128.5l7 44c7.33301 43.333 19 86.666 35 129.999s35.5 85 58.5 125
s49.667 77.333 80 112s63.833 64.834 100.5 90.501s76.5 45.834 119.5 60.501s88.5 22 136.5 22c64.667 0 119.667 -13.5 165 -40.5s81.166 -62.167 107.499 -105.5s43.833 -92.666 52.5 -147.999s8.66699 -111.333 0 -168l-10 -63h-785l-4 -15l-8 -44
c-6.66699 -37.333 -9.5 -75 -8.5 -113s6 -75 15 -111s22.167 -69.667 39.5 -101s38.833 -58.833 64.5 -82.5s55.5 -42.5 89.5 -56.5s72.667 -21 116 -21c68 -0.666992 129.667 12.166 185 38.499s107 62.833 155 109.5l36 -29c-49.333 -54.667 -105.5 -97 -168.5 -127
s-131.833 -45 -206.5 -45zM607.998 1048c-59.333 0 -113.667 -12.001 -163 -36.001s-93.5 -55.833 -132.5 -95.5s-72.667 -84.5 -101 -134.5s-50.833 -100.333 -67.5 -151h729l3 13c9.33301 48 10.833 95.833 4.5 143.5s-20.5 90.834 -42.5 129.501
s-52.167 70.167 -90.5 94.5s-84.833 36.5 -139.5 36.5zM845.997 1514l68 -1l-229 -263l-62 1z" />
    <glyph glyph-name="ecircumflex" unicode="&#xea;" horiz-adv-x="1011" 
d="M442 -20c-48.667 0 -92.502 7.33008 -131.502 21.9971s-73.5 34.834 -103.5 60.501s-55.167 55.834 -75.5 90.501s-36.166 72 -47.499 112s-18.166 81.5 -20.499 124.5s-0.166016 85.833 6.50098 128.5l7 44c7.33301 43.333 19 86.666 35 129.999s35.5 85 58.5 125
s49.667 77.333 80 112s63.833 64.834 100.5 90.501s76.5 45.834 119.5 60.501s88.5 22 136.5 22c64.667 0 119.667 -13.5 165 -40.5s81.166 -62.167 107.499 -105.5s43.833 -92.666 52.5 -147.999s8.66699 -111.333 0 -168l-10 -63h-785l-4 -15l-8 -44
c-6.66699 -37.333 -9.5 -75 -8.5 -113s6 -75 15 -111s22.167 -69.667 39.5 -101s38.833 -58.833 64.5 -82.5s55.5 -42.5 89.5 -56.5s72.667 -21 116 -21c68 -0.666992 129.667 12.166 185 38.499s107 62.833 155 109.5l36 -29c-49.333 -54.667 -105.5 -97 -168.5 -127
s-131.833 -45 -206.5 -45zM607.998 1048c-59.333 0 -113.667 -12.001 -163 -36.001s-93.5 -55.833 -132.5 -95.5s-72.667 -84.5 -101 -134.5s-50.833 -100.333 -67.5 -151h729l3 13c9.33301 48 10.833 95.833 4.5 143.5s-20.5 90.834 -42.5 129.501
s-52.167 70.167 -90.5 94.5s-84.833 36.5 -139.5 36.5zM913.997 1273l-1 -10l-66 -1l-146 196l-214 -194h-65l1 14l261 238h40z" />
    <glyph glyph-name="edieresis" unicode="&#xeb;" horiz-adv-x="1011" 
d="M442 -20c-48.667 0 -92.502 7.33008 -131.502 21.9971s-73.5 34.834 -103.5 60.501s-55.167 55.834 -75.5 90.501s-36.166 72 -47.499 112s-18.166 81.5 -20.499 124.5s-0.166016 85.833 6.50098 128.5l7 44c7.33301 43.333 19 86.666 35 129.999s35.5 85 58.5 125
s49.667 77.333 80 112s63.833 64.834 100.5 90.501s76.5 45.834 119.5 60.501s88.5 22 136.5 22c64.667 0 119.667 -13.5 165 -40.5s81.166 -62.167 107.499 -105.5s43.833 -92.666 52.5 -147.999s8.66699 -111.333 0 -168l-10 -63h-785l-4 -15l-8 -44
c-6.66699 -37.333 -9.5 -75 -8.5 -113s6 -75 15 -111s22.167 -69.667 39.5 -101s38.833 -58.833 64.5 -82.5s55.5 -42.5 89.5 -56.5s72.667 -21 116 -21c68 -0.666992 129.667 12.166 185 38.499s107 62.833 155 109.5l36 -29c-49.333 -54.667 -105.5 -97 -168.5 -127
s-131.833 -45 -206.5 -45zM607.998 1048c-59.333 0 -113.667 -12.001 -163 -36.001s-93.5 -55.833 -132.5 -95.5s-72.667 -84.5 -101 -134.5s-50.833 -100.333 -67.5 -151h729l3 13c9.33301 48 10.833 95.833 4.5 143.5s-20.5 90.834 -42.5 129.501
s-52.167 70.167 -90.5 94.5s-84.833 36.5 -139.5 36.5zM430.997 1421c2 14 8.99902 26.668 20.999 38.001s25.333 17 40 17c15.333 0 27.833 -5.83301 37.5 -17.5s13.167 -24.834 10.5 -39.501c-2 -14 -9.16699 -26.5 -21.5 -37.5s-25.5 -16.5 -39.5 -16.5
c-15.333 0 -27.666 5.66699 -36.999 17s-13 24.333 -11 39zM862.996 1421c2 14 8.99902 26.668 20.999 38.001s25.333 17 40 17s26.834 -5.83301 36.501 -17.5s13.5 -24.834 11.5 -39.501c-2 -14 -9.16699 -26.5 -21.5 -37.5s-25.833 -16.5 -40.5 -16.5
s-26.667 5.66699 -36 17s-13 24.333 -11 39z" />
    <glyph glyph-name="igrave" unicode="&#xec;" horiz-adv-x="404" 
d="M126 0h-54l186 1082h54zM356 1226h-56l-152 268h63z" />
    <glyph glyph-name="iacute" unicode="&#xed;" horiz-adv-x="404" 
d="M126 0h-54l186 1082h54zM495 1492l68 -1l-229 -263l-62 1z" />
    <glyph glyph-name="icircumflex" unicode="&#xee;" horiz-adv-x="404" 
d="M126 0h-54l186 1082h54zM564 1251l-1 -10l-66 -1l-146 196l-214 -194h-65l1 14l261 238h40z" />
    <glyph glyph-name="idieresis" unicode="&#xef;" horiz-adv-x="404" 
d="M126 0h-54l186 1082h54zM81 1399c2 14 8.99902 26.668 20.999 38.001s25.333 17 40 17c15.333 0 27.833 -5.83301 37.5 -17.5s13.167 -24.834 10.5 -39.501c-2 -14 -9.16699 -26.5 -21.5 -37.5s-25.5 -16.5 -39.5 -16.5c-15.333 0 -27.666 5.66699 -36.999 17
s-13 24.333 -11 39zM512.999 1399c2 14 8.99902 26.668 20.999 38.001s25.333 17 40 17s26.834 -5.83301 36.501 -17.5s13.5 -24.834 11.5 -39.501c-2 -14 -9.16699 -26.5 -21.5 -37.5s-25.833 -16.5 -40.5 -16.5s-26.667 5.66699 -36 17s-13 24.333 -11 39z" />
    <glyph glyph-name="eth" unicode="&#xf0;" horiz-adv-x="1158" 
d="M901 1307c36 -51.333 63.999 -104.999 83.999 -160.999s33.833 -113.333 41.5 -172s10 -118.167 7 -178.5s-9.5 -120.5 -19.5 -180.5l-14 -80c-7.33301 -41.333 -17.833 -83.666 -31.5 -126.999s-30.667 -85.5 -51 -126.5s-44.166 -79.667 -71.499 -116
s-58 -68.333 -92 -96s-71.5 -49.5 -112.5 -65.5s-85.5 -24 -133.5 -24c-66.667 0 -125 13.667 -175 41s-90.667 63.666 -122 108.999s-52.833 97.166 -64.5 155.499s-12.5 118.166 -2.5 179.499c10.667 65.333 29.167 127.5 55.5 186.5s60.333 110.833 102 155.5
s90.667 80.167 147 106.5s119.833 39.5 190.5 39.5c33.333 0 66.5 -3.33301 99.5 -10s64.333 -17.167 94 -31.5s56.834 -32.333 81.501 -54s45.667 -47.5 63 -77.5c6.66699 90 1 177.333 -17 262s-54 163.667 -108 237l-253 -130l-22 50l235 122
c-44.667 48 -94.667 88.333 -150 121s-113.333 61.334 -174 86.001l26 48c65.333 -26.667 127.666 -58.167 186.999 -94.5s113.333 -80.5 162 -132.5l217 112l23 -50zM959.999 617.001c2 9.33301 3.83008 18.498 5.49707 27.498s3.16699 18.167 4.5 27.5
c-10 38 -25.833 71 -47.5 99s-47.334 51.167 -77.001 69.5s-62.167 32 -97.5 41s-71.666 13.5 -108.999 13.5c-62 0 -117.833 -11.667 -167.5 -35s-93 -54.833 -130 -94.5s-67.5 -85.5 -91.5 -137.5s-41 -106.333 -51 -163c-10 -54 -10.333 -106.5 -1 -157.5
s27.333 -96.5 54 -136.5s61.834 -72.167 105.501 -96.5s95.167 -36.5 154.5 -36.5c42.667 0 82.167 7.33301 118.5 22s69.333 34.334 99 59.001s56.334 53.5 80.001 86.5s44.334 67.833 62.001 104.5s32.667 74.334 45 113.001s21.833 76 28.5 112z" />
    <glyph glyph-name="ntilde" unicode="&#xf1;" 
d="M256 830c22.667 36.667 48.6719 71.5029 78.0049 104.503s61.666 61.833 96.999 86.5s73.333 44.334 114 59.001s83.667 22 129 22c61.333 0 111.5 -10.833 150.5 -32.5s68.667 -51 89 -88s32.666 -79.833 36.999 -128.5s2.16602 -99.667 -6.50098 -153l-121 -700h-54
l121 700c7.33301 45.333 10.166 89.166 8.49902 131.499s-10.334 79.666 -26.001 111.999s-39.5 58.166 -71.5 77.499s-75 28.666 -129 27.999c-48 -0.666992 -95 -11 -141 -31s-88.5 -46.5 -127.5 -79.5s-73 -70.833 -102 -113.5s-50.5 -86.667 -64.5 -132l-120 -693h-54
l186 1082h54l-47 -252v0zM1029 1483c-5.33301 -24 -13.333 -47.165 -24 -69.498s-24.334 -42 -41.001 -59s-36 -30.667 -58 -41s-46.333 -15.5 -73 -15.5c-28 0 -52.167 6.5 -72.5 19.5s-40 27.333 -59 43s-38.5 29.834 -58.5 42.501s-43 19 -69 19
c-38.667 0 -69.167 -11.833 -91.5 -35.5s-38.5 -52.834 -48.5 -87.501h-55c4.66699 24 12.5 46.833 23.5 68.5s24.833 40.667 41.5 57s35.834 29.166 57.501 38.499s45.834 14 72.501 14c27.333 0 51.333 -6.5 72 -19.5s40.5 -27.167 59.5 -42.5s38.5 -29.333 58.5 -42
s43 -19 69 -19c19.333 0 36.666 3.5 51.999 10.5s28.833 16.5 40.5 28.5s21.5 25.667 29.5 41s14.333 31.666 19 48.999h55z" />
    <glyph glyph-name="ograve" unicode="&#xf2;" horiz-adv-x="1103" 
d="M80 562c12 68.667 33.333 135.334 64 200.001s69.167 122.167 115.5 172.5s100.5 90.833 162.5 121.5s130.667 46 206 46s139.166 -15.833 191.499 -47.5s93.5 -73 123.5 -124s49.667 -108.667 59 -173s8.66602 -129.5 -2.00098 -195.5l-7 -42
c-12 -68.667 -33.167 -135.334 -63.5 -200.001s-68.666 -122.167 -114.999 -172.5s-100.5 -90.833 -162.5 -121.5s-130.667 -46 -206 -46s-139 15.833 -191 47.5s-93.167 73 -123.5 124s-50.166 108.667 -59.499 173s-9 129.5 1 195.5zM127 520
c-6.66699 -38 -9.50293 -76.334 -8.50293 -115.001s5.83301 -76 14.5 -112s21.5 -69.833 38.5 -101.5s38.333 -59.167 64 -82.5s55.834 -41.666 90.501 -54.999s74.334 -20 119.001 -20c66.667 0 127.834 14 183.501 42s104.5 64.833 146.5 110.5s77 97.667 105 156
s47.667 117.5 59 177.5l7 42c6.66699 37.333 9.5 75.333 8.5 114s-5.83301 76 -14.5 112s-21.5 69.833 -38.5 101.5s-38.333 59.167 -64 82.5s-55.834 41.833 -90.501 55.5s-74 20.5 -118 20.5c-66.667 0 -127.667 -14 -183 -42s-104.166 -65 -146.499 -111
s-77.5 -98 -105.5 -156s-48 -117 -60 -177zM723.997 1247h-56l-152 268h63z" />
    <glyph glyph-name="oacute" unicode="&#xf3;" horiz-adv-x="1103" 
d="M80 562c12 68.667 33.333 135.334 64 200.001s69.167 122.167 115.5 172.5s100.5 90.833 162.5 121.5s130.667 46 206 46s139.166 -15.833 191.499 -47.5s93.5 -73 123.5 -124s49.667 -108.667 59 -173s8.66602 -129.5 -2.00098 -195.5l-7 -42
c-12 -68.667 -33.167 -135.334 -63.5 -200.001s-68.666 -122.167 -114.999 -172.5s-100.5 -90.833 -162.5 -121.5s-130.667 -46 -206 -46s-139 15.833 -191 47.5s-93.167 73 -123.5 124s-50.166 108.667 -59.499 173s-9 129.5 1 195.5zM127 520
c-6.66699 -38 -9.50293 -76.334 -8.50293 -115.001s5.83301 -76 14.5 -112s21.5 -69.833 38.5 -101.5s38.333 -59.167 64 -82.5s55.834 -41.666 90.501 -54.999s74.334 -20 119.001 -20c66.667 0 127.834 14 183.501 42s104.5 64.833 146.5 110.5s77 97.667 105 156
s47.667 117.5 59 177.5l7 42c6.66699 37.333 9.5 75.333 8.5 114s-5.83301 76 -14.5 112s-21.5 69.833 -38.5 101.5s-38.333 59.167 -64 82.5s-55.834 41.833 -90.501 55.5s-74 20.5 -118 20.5c-66.667 0 -127.667 -14 -183 -42s-104.166 -65 -146.499 -111
s-77.5 -98 -105.5 -156s-48 -117 -60 -177zM863.997 1513l68 -1l-229 -263l-62 1z" />
    <glyph glyph-name="ocircumflex" unicode="&#xf4;" horiz-adv-x="1103" 
d="M80 562c12 68.667 33.333 135.334 64 200.001s69.167 122.167 115.5 172.5s100.5 90.833 162.5 121.5s130.667 46 206 46s139.166 -15.833 191.499 -47.5s93.5 -73 123.5 -124s49.667 -108.667 59 -173s8.66602 -129.5 -2.00098 -195.5l-7 -42
c-12 -68.667 -33.167 -135.334 -63.5 -200.001s-68.666 -122.167 -114.999 -172.5s-100.5 -90.833 -162.5 -121.5s-130.667 -46 -206 -46s-139 15.833 -191 47.5s-93.167 73 -123.5 124s-50.166 108.667 -59.499 173s-9 129.5 1 195.5zM127 520
c-6.66699 -38 -9.50293 -76.334 -8.50293 -115.001s5.83301 -76 14.5 -112s21.5 -69.833 38.5 -101.5s38.333 -59.167 64 -82.5s55.834 -41.666 90.501 -54.999s74.334 -20 119.001 -20c66.667 0 127.834 14 183.501 42s104.5 64.833 146.5 110.5s77 97.667 105 156
s47.667 117.5 59 177.5l7 42c6.66699 37.333 9.5 75.333 8.5 114s-5.83301 76 -14.5 112s-21.5 69.833 -38.5 101.5s-38.333 59.167 -64 82.5s-55.834 41.833 -90.501 55.5s-74 20.5 -118 20.5c-66.667 0 -127.667 -14 -183 -42s-104.166 -65 -146.499 -111
s-77.5 -98 -105.5 -156s-48 -117 -60 -177zM931.997 1272l-1 -10l-66 -1l-146 196l-214 -194h-65l1 14l261 238h40z" />
    <glyph glyph-name="otilde" unicode="&#xf5;" horiz-adv-x="1103" 
d="M80 562c12 68.667 33.333 135.334 64 200.001s69.167 122.167 115.5 172.5s100.5 90.833 162.5 121.5s130.667 46 206 46s139.166 -15.833 191.499 -47.5s93.5 -73 123.5 -124s49.667 -108.667 59 -173s8.66602 -129.5 -2.00098 -195.5l-7 -42
c-12 -68.667 -33.167 -135.334 -63.5 -200.001s-68.666 -122.167 -114.999 -172.5s-100.5 -90.833 -162.5 -121.5s-130.667 -46 -206 -46s-139 15.833 -191 47.5s-93.167 73 -123.5 124s-50.166 108.667 -59.499 173s-9 129.5 1 195.5zM127 520
c-6.66699 -38 -9.50293 -76.334 -8.50293 -115.001s5.83301 -76 14.5 -112s21.5 -69.833 38.5 -101.5s38.333 -59.167 64 -82.5s55.834 -41.666 90.501 -54.999s74.334 -20 119.001 -20c66.667 0 127.834 14 183.501 42s104.5 64.833 146.5 110.5s77 97.667 105 156
s47.667 117.5 59 177.5l7 42c6.66699 37.333 9.5 75.333 8.5 114s-5.83301 76 -14.5 112s-21.5 69.833 -38.5 101.5s-38.333 59.167 -64 82.5s-55.834 41.833 -90.501 55.5s-74 20.5 -118 20.5c-66.667 0 -127.667 -14 -183 -42s-104.166 -65 -146.499 -111
s-77.5 -98 -105.5 -156s-48 -117 -60 -177zM1036 1483c-5.33301 -24 -13.333 -47.165 -24 -69.498s-24.334 -42 -41.001 -59s-36 -30.667 -58 -41s-46.333 -15.5 -73 -15.5c-28 0 -52.167 6.5 -72.5 19.5s-40 27.333 -59 43s-38.5 29.834 -58.5 42.501s-43 19 -69 19
c-38.667 0 -69.167 -11.833 -91.5 -35.5s-38.5 -52.834 -48.5 -87.501h-55c4.66699 24 12.5 46.833 23.5 68.5s24.833 40.667 41.5 57s35.834 29.166 57.501 38.499s45.834 14 72.501 14c27.333 0 51.333 -6.5 72 -19.5s40.5 -27.167 59.5 -42.5s38.5 -29.333 58.5 -42
s43 -19 69 -19c19.333 0 36.666 3.5 51.999 10.5s28.833 16.5 40.5 28.5s21.5 25.667 29.5 41s14.333 31.666 19 48.999h55z" />
    <glyph glyph-name="odieresis" unicode="&#xf6;" horiz-adv-x="1103" 
d="M80 562c12 68.667 33.333 135.334 64 200.001s69.167 122.167 115.5 172.5s100.5 90.833 162.5 121.5s130.667 46 206 46s139.166 -15.833 191.499 -47.5s93.5 -73 123.5 -124s49.667 -108.667 59 -173s8.66602 -129.5 -2.00098 -195.5l-7 -42
c-12 -68.667 -33.167 -135.334 -63.5 -200.001s-68.666 -122.167 -114.999 -172.5s-100.5 -90.833 -162.5 -121.5s-130.667 -46 -206 -46s-139 15.833 -191 47.5s-93.167 73 -123.5 124s-50.166 108.667 -59.499 173s-9 129.5 1 195.5zM127 520
c-6.66699 -38 -9.50293 -76.334 -8.50293 -115.001s5.83301 -76 14.5 -112s21.5 -69.833 38.5 -101.5s38.333 -59.167 64 -82.5s55.834 -41.666 90.501 -54.999s74.334 -20 119.001 -20c66.667 0 127.834 14 183.501 42s104.5 64.833 146.5 110.5s77 97.667 105 156
s47.667 117.5 59 177.5l7 42c6.66699 37.333 9.5 75.333 8.5 114s-5.83301 76 -14.5 112s-21.5 69.833 -38.5 101.5s-38.333 59.167 -64 82.5s-55.834 41.833 -90.501 55.5s-74 20.5 -118 20.5c-66.667 0 -127.667 -14 -183 -42s-104.166 -65 -146.499 -111
s-77.5 -98 -105.5 -156s-48 -117 -60 -177zM448.997 1420c2 14 8.99902 26.668 20.999 38.001s25.333 17 40 17c15.333 0 27.833 -5.83301 37.5 -17.5s13.167 -24.834 10.5 -39.501c-2 -14 -9.16699 -26.5 -21.5 -37.5s-25.5 -16.5 -39.5 -16.5
c-15.333 0 -27.666 5.66699 -36.999 17s-13 24.333 -11 39zM880.996 1420c2 14 8.99902 26.668 20.999 38.001s25.333 17 40 17s26.834 -5.83301 36.501 -17.5s13.5 -24.834 11.5 -39.501c-2 -14 -9.16699 -26.5 -21.5 -37.5s-25.833 -16.5 -40.5 -16.5
s-26.667 5.66699 -36 17s-13 24.333 -11 39z" />
    <glyph glyph-name="divide" unicode="&#xf7;" horiz-adv-x="1134" 
d="M1056 686h-970l7 52h970zM596 1081c2 13.333 9.16602 25.667 21.499 37s25.5 17 39.5 17c15.333 0 27.666 -6 36.999 -18s13 -25.333 11 -40c-2 -13.333 -9.33301 -25.5 -22 -36.5s-26 -16.5 -40 -16.5c-15.333 0.666992 -27.666 6.66699 -36.999 18
s-12.666 24.333 -9.99902 39zM460.999 303.001c2 13.333 9.16504 25.667 21.498 37s25.5 17 39.5 17c15.333 0 27.833 -6 37.5 -18s13.167 -25.333 10.5 -40c-2 -13.333 -9.33301 -25.5 -22 -36.5s-26 -16.5 -40 -16.5c-15.333 0.666992 -27.666 6.66699 -36.999 18
s-12.666 24.333 -9.99902 39z" />
    <glyph glyph-name="oslash" unicode="&#xf8;" 
d="M77 562c12 68.667 33.3301 135.334 63.9971 200.001s69.167 122.167 115.5 172.5s100.5 90.833 162.5 121.5s130.667 46 206 46c42 0 80.333 -5.16699 115 -15.5s66 -24.833 94 -43.5l113 175h64l-134 -209c27.333 -26 50.333 -55.833 69 -89.5s32.834 -70 42.501 -109
s15.167 -79.667 16.5 -122s-1.33398 -84.5 -8.00098 -126.5l-7 -42c-12 -68.667 -33.167 -135.334 -63.5 -200.001s-68.666 -122.167 -114.999 -172.5s-100.5 -90.833 -162.5 -121.5s-130.667 -46 -206 -46c-39.333 0 -75.166 4.5 -107.499 13.5s-62.166 21.5 -89.499 37.5
l-112 -175h-64l133 206c-30 25.333 -55 55.333 -75 90s-35.5 72 -46.5 112s-17.5 81.667 -19.5 125s0.666992 87 8 131zM123.997 520c-6.66699 -38 -9.50098 -76.501 -8.50098 -115.501s5.83301 -76.5 14.5 -112.5s21.5 -69.667 38.5 -101s38.5 -58.666 64.5 -81.999
l571 887c-23.333 16 -49.833 28.667 -79.5 38s-62.5 14 -98.5 14c-66.667 0 -127.667 -14 -183 -42s-104.166 -65 -146.499 -111s-77.5 -98 -105.5 -156s-48 -117 -60 -177zM942.996 561.999c6 36 8.83301 72.5 8.5 109.5s-4.5 73 -12.5 108s-19.833 68 -35.5 99
s-35.167 58.5 -58.5 82.5l-569 -884c22.667 -13.333 47.667 -23.833 75 -31.5s57.666 -11.5 90.999 -11.5c66.667 0 127.834 14 183.501 42s104.5 64.833 146.5 110.5s77 97.667 105 156s47.667 117.5 59 177.5z" />
    <glyph glyph-name="ugrave" unicode="&#xf9;" 
d="M766 0l33.999 174.998c-47.333 -65.333 -104.666 -114.166 -171.999 -146.499s-141.333 -48.5 -222 -48.5c-62 0 -113.167 11.333 -153.5 34s-71.166 53.167 -92.499 91.5s-34.333 82.5 -39 132.5s-2.66699 102.333 6 157l118 687h54l-119 -689
c-7.33301 -45.333 -9.83301 -89.5 -7.5 -132.5s11.666 -81.167 27.999 -114.5s41 -60.333 74 -81s76.167 -31 129.5 -31c45.333 0 90 6.33301 134 19s84.833 31.334 122.5 56.001s70.5 54.667 98.5 90s48.667 76 62 122l131 761h55l-186 -1082h-55zM718.999 1249h-56
l-152 268h63z" />
    <glyph glyph-name="uacute" unicode="&#xfa;" 
d="M766 0l33.999 174.998c-47.333 -65.333 -104.666 -114.166 -171.999 -146.499s-141.333 -48.5 -222 -48.5c-62 0 -113.167 11.333 -153.5 34s-71.166 53.167 -92.499 91.5s-34.333 82.5 -39 132.5s-2.66699 102.333 6 157l118 687h54l-119 -689
c-7.33301 -45.333 -9.83301 -89.5 -7.5 -132.5s11.666 -81.167 27.999 -114.5s41 -60.333 74 -81s76.167 -31 129.5 -31c45.333 0 90 6.33301 134 19s84.833 31.334 122.5 56.001s70.5 54.667 98.5 90s48.667 76 62 122l131 761h55l-186 -1082h-55zM858.999 1515l68 -1
l-229 -263l-62 1z" />
    <glyph glyph-name="ucircumflex" unicode="&#xfb;" 
d="M766 0l33.999 174.998c-47.333 -65.333 -104.666 -114.166 -171.999 -146.499s-141.333 -48.5 -222 -48.5c-62 0 -113.167 11.333 -153.5 34s-71.166 53.167 -92.499 91.5s-34.333 82.5 -39 132.5s-2.66699 102.333 6 157l118 687h54l-119 -689
c-7.33301 -45.333 -9.83301 -89.5 -7.5 -132.5s11.666 -81.167 27.999 -114.5s41 -60.333 74 -81s76.167 -31 129.5 -31c45.333 0 90 6.33301 134 19s84.833 31.334 122.5 56.001s70.5 54.667 98.5 90s48.667 76 62 122l131 761h55l-186 -1082h-55zM926.999 1274l-1 -10
l-66 -1l-146 196l-214 -194h-65l1 14l261 238h40z" />
    <glyph glyph-name="udieresis" unicode="&#xfc;" 
d="M766 0l33.999 174.998c-47.333 -65.333 -104.666 -114.166 -171.999 -146.499s-141.333 -48.5 -222 -48.5c-62 0 -113.167 11.333 -153.5 34s-71.166 53.167 -92.499 91.5s-34.333 82.5 -39 132.5s-2.66699 102.333 6 157l118 687h54l-119 -689
c-7.33301 -45.333 -9.83301 -89.5 -7.5 -132.5s11.666 -81.167 27.999 -114.5s41 -60.333 74 -81s76.167 -31 129.5 -31c45.333 0 90 6.33301 134 19s84.833 31.334 122.5 56.001s70.5 54.667 98.5 90s48.667 76 62 122l131 761h55l-186 -1082h-55zM443.999 1422
c2 14 8.99902 26.668 20.999 38.001s25.333 17 40 17c15.333 0 27.833 -5.83301 37.5 -17.5s13.167 -24.834 10.5 -39.501c-2 -14 -9.16699 -26.5 -21.5 -37.5s-25.5 -16.5 -39.5 -16.5c-15.333 0 -27.666 5.66699 -36.999 17s-13 24.333 -11 39zM875.998 1422
c2 14 8.99902 26.668 20.999 38.001s25.333 17 40 17s26.834 -5.83301 36.501 -17.5s13.5 -24.834 11.5 -39.501c-2 -14 -9.16699 -26.5 -21.5 -37.5s-25.833 -16.5 -40.5 -16.5s-26.667 5.66699 -36 17s-13 24.333 -11 39z" />
    <glyph glyph-name="yacute" unicode="&#xfd;" horiz-adv-x="959" 
d="M396 84l9.99902 21.0049l533 976h61l-683 -1261c-17.333 -32.667 -36.166 -64.334 -56.499 -95.001s-43.166 -57.834 -68.499 -81.501s-54 -42.834 -86 -57.501s-68.333 -22.334 -109 -23.001c-25.333 0 -52 3.66699 -80 11l6 51l34 -6c11.333 -2 22.666 -3 33.999 -3
c33.333 0 63.333 6.16699 90 18.5s51 28.666 73 48.999s41.667 43.333 59 69s33.333 51.5 48 77.5l97 181l-234 1072h57zM799.999 1515l68 -1l-229 -263l-62 1z" />
    <glyph glyph-name="thorn" unicode="&#xfe;" 
d="M301 1082l-32 -187.001c47.333 62.667 103.5 112.834 168.5 150.501s137.833 56.5 218.5 56.5c50 0 93.333 -8.16699 130 -24.5s67.334 -38.166 92.001 -65.499s44.167 -59.333 58.5 -96s24.5 -75.334 30.5 -116.001s8.16699 -82.334 6.5 -125.001
s-5.5 -83.667 -11.5 -123l-4 -21c-7.33301 -42 -17.5 -84.667 -30.5 -128s-29.333 -85.5 -49 -126.5s-42.667 -79.333 -69 -115s-56.166 -67 -89.499 -94s-70.5 -48.333 -111.5 -64s-86.167 -23.5 -135.5 -23.5c-34.667 0 -68.334 3.66699 -101.001 11
s-63.334 18.833 -92.001 34.5s-54.5 35.334 -77.5 59.001s-41.833 51.5 -56.5 83.5l-103 -584h-54l243 1410l15 88l78 454h54zM907 551.999c5.33301 33.333 9.16504 68.833 11.498 106.5s1.83301 74.834 -1.5 111.501s-10.333 71.667 -21 105s-26.334 62.833 -47.001 88.5
s-46.667 46.167 -78 61.5s-69.333 23 -114 23c-41.333 0 -83.166 -6.5 -125.499 -19.5s-82 -31.5 -119 -55.5s-69.833 -52.833 -98.5 -86.5s-50 -70.834 -64 -111.501l-59 -332l-31 -177c8.66699 -38.667 22.5 -72.5 41.5 -101.5s42.167 -53.167 69.5 -72.5
s58.166 -33.833 92.499 -43.5s70.833 -14.5 109.5 -14.5c44 0 84.333 7.16699 121 21.5s69.834 33.666 99.501 57.999s55.834 52.833 78.501 85.5s42.667 67.334 60 104.001s31.833 74.5 43.5 113.5s20.834 77.167 27.501 114.5z" />
    <glyph glyph-name="ydieresis" unicode="&#xff;" horiz-adv-x="959" 
d="M396 84l9.99902 21.0049l533 976h61l-683 -1261c-17.333 -32.667 -36.166 -64.334 -56.499 -95.001s-43.166 -57.834 -68.499 -81.501s-54 -42.834 -86 -57.501s-68.333 -22.334 -109 -23.001c-25.333 0 -52 3.66699 -80 11l6 51l34 -6c11.333 -2 22.666 -3 33.999 -3
c33.333 0 63.333 6.16699 90 18.5s51 28.666 73 48.999s41.667 43.333 59 69s33.333 51.5 48 77.5l97 181l-234 1072h57zM384.999 1422c2 14 8.99902 26.668 20.999 38.001s25.333 17 40 17c15.333 0 27.833 -5.83301 37.5 -17.5s13.167 -24.834 10.5 -39.501
c-2 -14 -9.16699 -26.5 -21.5 -37.5s-25.5 -16.5 -39.5 -16.5c-15.333 0 -27.666 5.66699 -36.999 17s-13 24.333 -11 39zM816.998 1422.01c2 14 8.99902 26.668 20.999 38.001s25.333 17 40 17s26.834 -5.83301 36.501 -17.5s13.5 -24.834 11.5 -39.501
c-2 -14 -9.16699 -26.5 -21.5 -37.5s-25.833 -16.5 -40.5 -16.5s-26.667 5.66699 -36 17s-13 24.333 -11 39z" />
    <glyph glyph-name="Amacron" unicode="&#x100;" horiz-adv-x="1196" 
d="M911 435h-690l-233 -435h-60l778 1455l65 1l280 -1456h-57zM249 489h651l-168 899zM1086 1733h-610l7 53h609z" />
    <glyph glyph-name="amacron" unicode="&#x101;" horiz-adv-x="1059" 
d="M741 0c-1.33301 34 -0.167969 67.332 3.49902 99.999s8.83398 65.334 15.501 98.001c-56 -68.667 -122.5 -122.334 -199.5 -161.001s-160.5 -57.667 -250.5 -57c-42.667 0 -82.5 7 -119.5 21s-68.333 33.667 -94 59s-44.667 56 -57 92s-14.833 76.667 -7.5 122
c6.66699 41.333 19.5 78.166 38.5 110.499s42.5 60.666 70.5 84.999s59.5 45 94.5 62s71.333 30.833 109 41.5s75.667 18.334 114 23.001s75.5 7.33398 111.5 8.00098h255l29 158c7.33301 46 6 86.833 -4 122.5s-27 65.5 -51 89.5s-54 42.333 -90 55s-76.333 19 -121 19
c-42 0 -83.667 -5.83301 -125 -17.5s-79.5 -28.5 -114.5 -50.5s-65.333 -49.333 -91 -82s-43.5 -70.334 -53.5 -113.001l-54 2c10 50 29.333 94.5 58 133.5s63 71.833 103 98.5s84 47.167 132 61.5s96.333 21.5 145 21.5c52 0 99.5 -7.66699 142.5 -23
s78.833 -37.666 107.5 -66.999s49.167 -65.166 61.5 -107.499s14.5 -90.5 6.5 -144.5l-93 -542c-6 -34 -10.5 -68.667 -13.5 -104s-1.5 -70.333 4.5 -105l-1 -9h-62zM308.998 32.999c48.667 -0.666992 95.167 5.1709 139.5 17.5039s86 29.666 125 51.999
s75 49.666 108 81.999s62.5 68.166 88.5 107.499l46 257h-242c-30.667 -0.666992 -63.167 -2.83398 -97.5 -6.50098s-68.5 -10 -102.5 -19s-66.833 -20.5 -98.5 -34.5s-60.5 -31.167 -86.5 -51.5s-48.167 -44.333 -66.5 -72s-30.833 -59.5 -37.5 -95.5s-5 -68.5 5 -97.5
s25.667 -53.833 47 -74.5s47 -36.5 77 -47.5s61.667 -16.833 95 -17.5zM996.998 1413h-610l7 53h609z" />
    <glyph glyph-name="Abreve" unicode="&#x102;" horiz-adv-x="1196" 
d="M911 435h-690l-233 -435h-60l778 1455l65 1l280 -1456h-57zM249 489h651l-168 899zM1069 1809c-7.33301 -38 -20.0029 -72.1709 -38.0029 -102.504s-40.333 -56.166 -67 -77.499s-57 -37.833 -91 -49.5s-70.333 -17.5 -109 -17.5c-38 0 -72.5 5.66699 -103.5 17
s-57 27.833 -78 49.5s-36.5 47.834 -46.5 78.501s-13 65 -9 103h53c-7.33301 -63.333 5.83398 -111.166 39.501 -143.499s81.834 -48.5 144.501 -48.5c63.333 0 117.333 16.333 162 49s74.334 80.334 89.001 143.001z" />
    <glyph glyph-name="abreve" unicode="&#x103;" horiz-adv-x="1059" 
d="M741 0c-1.33301 34 -0.167969 67.332 3.49902 99.999s8.83398 65.334 15.501 98.001c-56 -68.667 -122.5 -122.334 -199.5 -161.001s-160.5 -57.667 -250.5 -57c-42.667 0 -82.5 7 -119.5 21s-68.333 33.667 -94 59s-44.667 56 -57 92s-14.833 76.667 -7.5 122
c6.66699 41.333 19.5 78.166 38.5 110.499s42.5 60.666 70.5 84.999s59.5 45 94.5 62s71.333 30.833 109 41.5s75.667 18.334 114 23.001s75.5 7.33398 111.5 8.00098h255l29 158c7.33301 46 6 86.833 -4 122.5s-27 65.5 -51 89.5s-54 42.333 -90 55s-76.333 19 -121 19
c-42 0 -83.667 -5.83301 -125 -17.5s-79.5 -28.5 -114.5 -50.5s-65.333 -49.333 -91 -82s-43.5 -70.334 -53.5 -113.001l-54 2c10 50 29.333 94.5 58 133.5s63 71.833 103 98.5s84 47.167 132 61.5s96.333 21.5 145 21.5c52 0 99.5 -7.66699 142.5 -23
s78.833 -37.666 107.5 -66.999s49.167 -65.166 61.5 -107.499s14.5 -90.5 6.5 -144.5l-93 -542c-6 -34 -10.5 -68.667 -13.5 -104s-1.5 -70.333 4.5 -105l-1 -9h-62zM308.998 32.999c48.667 -0.666992 95.167 5.1709 139.5 17.5039s86 29.666 125 51.999
s75 49.666 108 81.999s62.5 68.166 88.5 107.499l46 257h-242c-30.667 -0.666992 -63.167 -2.83398 -97.5 -6.50098s-68.5 -10 -102.5 -19s-66.833 -20.5 -98.5 -34.5s-60.5 -31.167 -86.5 -51.5s-48.167 -44.333 -66.5 -72s-30.833 -59.5 -37.5 -95.5s-5 -68.5 5 -97.5
s25.667 -53.833 47 -74.5s47 -36.5 77 -47.5s61.667 -16.833 95 -17.5zM979.998 1489c-7.33301 -38 -20.0029 -72.1709 -38.0029 -102.504s-40.333 -56.166 -67 -77.499s-57 -37.833 -91 -49.5s-70.333 -17.5 -109 -17.5c-38 0 -72.5 5.66699 -103.5 17s-57 27.833 -78 49.5
s-36.5 47.834 -46.5 78.501s-13 65 -9 103h53c-7.33301 -63.333 5.83398 -111.166 39.501 -143.499s81.834 -48.5 144.501 -48.5c63.333 0 117.333 16.333 162 49s74.334 80.334 89.001 143.001z" />
    <glyph glyph-name="Aogonek" unicode="&#x104;" horiz-adv-x="1196" 
d="M1047 0l3.99805 -2.00195c-20.667 -15.333 -43 -31.333 -67 -48s-46.667 -35 -68 -55s-40 -41.667 -56 -65s-26.333 -48.666 -31 -75.999s-1 -49.666 11 -66.999s32.333 -26.333 61 -27c21.333 -0.666992 41.5 2.83301 60.5 10.5s37.167 16.5 54.5 26.5l10 -49
c-19.333 -13.333 -39.333 -23.833 -60 -31.5s-42.667 -11.5 -66 -11.5c-45.333 0 -78.833 14 -100.5 42s-29.5 63.667 -23.5 107c4 28 13.333 54.167 28 78.5s32.334 47 53.001 68s42.834 40.333 66.501 58s46.5 34.167 68.5 49.5l-81 427h-690l-233 -435h-60l778 1455l65 1
l280 -1456h-4zM248.998 488.998h651l-168 899z" />
    <glyph glyph-name="aogonek" unicode="&#x105;" horiz-adv-x="1059" 
d="M798 0l4.00098 -2.00293c-20.667 -15.333 -43 -31.333 -67 -48s-46.667 -35 -68 -55s-40 -41.667 -56 -65s-26.333 -48.666 -31 -75.999s-1 -49.666 11 -66.999s32.333 -26.333 61 -27c21.333 -0.666992 41.5 2.83301 60.5 10.5s37.167 16.5 54.5 26.5l10 -49
c-19.333 -13.333 -39.333 -23.833 -60 -31.5s-42.667 -11.5 -66 -11.5c-45.333 0 -78.833 14 -100.5 42s-29.5 63.667 -23.5 107c4 27.333 13.167 53 27.5 77s31.666 46.5 51.999 67.5s42.333 40.5 66 58.5s46.167 34.333 67.5 49c-1.33301 32.667 0 64.834 4 96.501
s9.33301 63.5 16 95.5c-56 -68.667 -122.5 -122.334 -199.5 -161.001s-160.5 -57.667 -250.5 -57c-42.667 0 -82.5 7 -119.5 21s-68.333 33.667 -94 59s-44.667 56 -57 92s-14.833 76.667 -7.5 122c6.66699 41.333 19.5 78.166 38.5 110.499s42.5 60.666 70.5 84.999
s59.5 45 94.5 62s71.333 30.833 109 41.5s75.667 18.334 114 23.001s75.5 7.33398 111.5 8.00098h255l29 158c7.33301 46 6 86.833 -4 122.5s-27 65.5 -51 89.5s-54 42.333 -90 55s-76.333 19 -121 19c-42 0 -83.667 -5.83301 -125 -17.5s-79.5 -28.5 -114.5 -50.5
s-65.333 -49.333 -91 -82s-43.5 -70.334 -53.5 -113.001l-54 2c10 50 29.333 94.5 58 133.5s63 71.833 103 98.5s84 47.167 132 61.5s96.333 21.5 145 21.5c52 0 99.5 -7.66699 142.5 -23s78.833 -37.666 107.5 -66.999s49.167 -65.166 61.5 -107.499s14.5 -90.5 6.5 -144.5
l-93 -542c-6 -34 -10.5 -68.667 -13.5 -104s-1.5 -70.333 4.5 -105l-1 -9h-5zM309.001 32.9971c48.667 -0.666992 95.167 5.1709 139.5 17.5039s86 29.666 125 51.999s75 49.666 108 81.999s62.5 68.166 88.5 107.499l46 257h-242
c-30.667 -0.666992 -63.167 -2.83398 -97.5 -6.50098s-68.5 -10 -102.5 -19s-66.833 -20.5 -98.5 -34.5s-60.5 -31.167 -86.5 -51.5s-48.167 -44.333 -66.5 -72s-30.833 -59.5 -37.5 -95.5s-5 -68.5 5 -97.5s25.667 -53.833 47 -74.5s47 -36.5 77 -47.5
s61.667 -16.833 95 -17.5z" />
    <glyph glyph-name="Cacute" unicode="&#x106;" horiz-adv-x="1297" 
d="M1128 445c-19.333 -70 -46.5049 -133.506 -81.5049 -190.506s-77 -106 -126 -147s-104.667 -72.5 -167 -94.5s-130.5 -33 -204.5 -33c-59.333 0 -111.5 9 -156.5 27s-84 42.333 -117 73s-60 66.834 -81 108.501s-36.667 86 -47 133s-15.666 96 -15.999 147
s3.5 101.167 11.5 150.5l37 218c9.33301 52.667 22.833 105 40.5 157s39.667 101.5 66 148.5s56.666 90.833 90.999 131.5s72.833 76 115.5 106s89.5 53.5 140.5 70.5s105.833 25.5 164.5 25.5c71.333 0 134.5 -11 189.5 -33s100.833 -53.167 137.5 -93.5
s63.667 -89.166 81 -146.499s24.333 -121 21 -191h-53c2.66699 62 -3.33301 118.333 -18 169s-37.667 93.834 -69 129.501s-71.166 63.167 -119.499 82.5s-104.5 29 -168.5 29c-53.333 0 -103 -8 -149 -24s-88.5 -37.667 -127.5 -65s-74.167 -59.666 -105.5 -96.999
s-59.166 -77.5 -83.499 -120.5s-44.666 -88 -60.999 -135s-28.833 -94.167 -37.5 -141.5l-39 -220c-7.33301 -44 -11.166 -88.833 -11.499 -134.5s3.5 -90.167 11.5 -133.5s20.833 -84.166 38.5 -122.499s40.834 -71.833 69.501 -100.5s63 -51.5 103 -68.5
s87 -25.5 141 -25.5c68 0 129.833 9.5 185.5 28.5s105.5 46.5 149.5 82.5s82 79.333 114 130s57.667 107.334 77 170.001h54zM1013 1854.99l68 -1l-229 -263l-62 1z" />
    <glyph glyph-name="cacute" unicode="&#x107;" horiz-adv-x="1018" 
d="M420 34c46.667 0 90.9961 6.83789 132.996 20.5049s79.833 33.334 113.5 59.001s62.834 56.5 87.501 92.5s43.667 76.333 57 121h54c-12.667 -52 -32.834 -99.167 -60.501 -141.5s-61 -78.833 -100 -109.5s-82.667 -54.334 -131 -71.001s-99.166 -25 -152.499 -25
c-50.667 0 -95.167 7.5 -133.5 22.5s-71.166 35.5 -98.499 61.5s-49.833 56.5 -67.5 91.5s-30.667 72.5 -39 112.5s-12.5 81.5 -12.5 124.5s3.33301 85.5 10 127.5l7 42c8 44.667 19.333 88.834 34 132.501s32.667 85.5 54 125.5s46.333 77.167 75 111.5
s60.834 64.166 96.501 89.499s74.834 45.166 117.501 59.499s89 21.5 139 21.5c56 0 105.667 -9.5 149 -28.5s79.333 -45.333 108 -79s49.5 -73.5 62.5 -119.5s17.167 -96 12.5 -150h-53c4.66699 46 1.66699 88.667 -9 128s-28 73.5 -52 102.5s-54.167 51.667 -90.5 68
s-78.5 24.5 -126.5 24.5c-68 0 -128.167 -14.167 -180.5 -42.5s-97.5 -65.5 -135.5 -111.5s-69.167 -98 -93.5 -156s-42.166 -116.667 -53.499 -176l-7 -42c-6 -36.667 -9.66699 -74.334 -11 -113.001s1 -75.834 7 -111.501s16 -69.334 30 -101.001
s32.667 -59.334 56 -83.001s51.666 -42.5 84.999 -56.5s73 -21 119 -21zM826.996 1513l68 -1l-229 -263l-62 1z" />
    <glyph glyph-name="Ccircumflex" unicode="&#x108;" horiz-adv-x="1297" 
d="M1128 445c-19.333 -70 -46.5049 -133.506 -81.5049 -190.506s-77 -106 -126 -147s-104.667 -72.5 -167 -94.5s-130.5 -33 -204.5 -33c-59.333 0 -111.5 9 -156.5 27s-84 42.333 -117 73s-60 66.834 -81 108.501s-36.667 86 -47 133s-15.666 96 -15.999 147
s3.5 101.167 11.5 150.5l37 218c9.33301 52.667 22.833 105 40.5 157s39.667 101.5 66 148.5s56.666 90.833 90.999 131.5s72.833 76 115.5 106s89.5 53.5 140.5 70.5s105.833 25.5 164.5 25.5c71.333 0 134.5 -11 189.5 -33s100.833 -53.167 137.5 -93.5
s63.667 -89.166 81 -146.499s24.333 -121 21 -191h-53c2.66699 62 -3.33301 118.333 -18 169s-37.667 93.834 -69 129.501s-71.166 63.167 -119.499 82.5s-104.5 29 -168.5 29c-53.333 0 -103 -8 -149 -24s-88.5 -37.667 -127.5 -65s-74.167 -59.666 -105.5 -96.999
s-59.166 -77.5 -83.499 -120.5s-44.666 -88 -60.999 -135s-28.833 -94.167 -37.5 -141.5l-39 -220c-7.33301 -44 -11.166 -88.833 -11.499 -134.5s3.5 -90.167 11.5 -133.5s20.833 -84.166 38.5 -122.499s40.834 -71.833 69.501 -100.5s63 -51.5 103 -68.5
s87 -25.5 141 -25.5c68 0 129.833 9.5 185.5 28.5s105.5 46.5 149.5 82.5s82 79.333 114 130s57.667 107.334 77 170.001h54zM1081 1613.99l-1 -10l-66 -1l-146 196l-214 -194h-65l1 14l261 238h40z" />
    <glyph glyph-name="ccircumflex" unicode="&#x109;" horiz-adv-x="1018" 
d="M420 34c46.667 0 90.9961 6.83789 132.996 20.5049s79.833 33.334 113.5 59.001s62.834 56.5 87.501 92.5s43.667 76.333 57 121h54c-12.667 -52 -32.834 -99.167 -60.501 -141.5s-61 -78.833 -100 -109.5s-82.667 -54.334 -131 -71.001s-99.166 -25 -152.499 -25
c-50.667 0 -95.167 7.5 -133.5 22.5s-71.166 35.5 -98.499 61.5s-49.833 56.5 -67.5 91.5s-30.667 72.5 -39 112.5s-12.5 81.5 -12.5 124.5s3.33301 85.5 10 127.5l7 42c8 44.667 19.333 88.834 34 132.501s32.667 85.5 54 125.5s46.333 77.167 75 111.5
s60.834 64.166 96.501 89.499s74.834 45.166 117.501 59.499s89 21.5 139 21.5c56 0 105.667 -9.5 149 -28.5s79.333 -45.333 108 -79s49.5 -73.5 62.5 -119.5s17.167 -96 12.5 -150h-53c4.66699 46 1.66699 88.667 -9 128s-28 73.5 -52 102.5s-54.167 51.667 -90.5 68
s-78.5 24.5 -126.5 24.5c-68 0 -128.167 -14.167 -180.5 -42.5s-97.5 -65.5 -135.5 -111.5s-69.167 -98 -93.5 -156s-42.166 -116.667 -53.499 -176l-7 -42c-6 -36.667 -9.66699 -74.334 -11 -113.001s1 -75.834 7 -111.501s16 -69.334 30 -101.001
s32.667 -59.334 56 -83.001s51.666 -42.5 84.999 -56.5s73 -21 119 -21zM894.996 1272l-1 -10l-66 -1l-146 196l-214 -194h-65l1 14l261 238h40z" />
    <glyph glyph-name="uni010A" unicode="&#x10a;" horiz-adv-x="1297" 
d="M1128 445c-19.333 -70 -46.5049 -133.506 -81.5049 -190.506s-77 -106 -126 -147s-104.667 -72.5 -167 -94.5s-130.5 -33 -204.5 -33c-59.333 0 -111.5 9 -156.5 27s-84 42.333 -117 73s-60 66.834 -81 108.501s-36.667 86 -47 133s-15.666 96 -15.999 147
s3.5 101.167 11.5 150.5l37 218c9.33301 52.667 22.833 105 40.5 157s39.667 101.5 66 148.5s56.666 90.833 90.999 131.5s72.833 76 115.5 106s89.5 53.5 140.5 70.5s105.833 25.5 164.5 25.5c71.333 0 134.5 -11 189.5 -33s100.833 -53.167 137.5 -93.5
s63.667 -89.166 81 -146.499s24.333 -121 21 -191h-53c2.66699 62 -3.33301 118.333 -18 169s-37.667 93.834 -69 129.501s-71.166 63.167 -119.499 82.5s-104.5 29 -168.5 29c-53.333 0 -103 -8 -149 -24s-88.5 -37.667 -127.5 -65s-74.167 -59.666 -105.5 -96.999
s-59.166 -77.5 -83.499 -120.5s-44.666 -88 -60.999 -135s-28.833 -94.167 -37.5 -141.5l-39 -220c-7.33301 -44 -11.166 -88.833 -11.499 -134.5s3.5 -90.167 11.5 -133.5s20.833 -84.166 38.5 -122.499s40.834 -71.833 69.501 -100.5s63 -51.5 103 -68.5
s87 -25.5 141 -25.5c68 0 129.833 9.5 185.5 28.5s105.5 46.5 149.5 82.5s82 79.333 114 130s57.667 107.334 77 170.001h54zM806.995 1738.99c2 13.333 9.16504 25.667 21.498 37s25.5 17 39.5 17c15.333 0 27.833 -6 37.5 -18s13.167 -25.333 10.5 -40
c-2 -13.333 -9.33301 -25.5 -22 -36.5s-26 -16.5 -40 -16.5c-15.333 0.666992 -27.666 6.66699 -36.999 18s-12.666 24.333 -9.99902 39z" />
    <glyph glyph-name="uni010B" unicode="&#x10b;" horiz-adv-x="1018" 
d="M420 34c46.667 0 90.9961 6.83789 132.996 20.5049s79.833 33.334 113.5 59.001s62.834 56.5 87.501 92.5s43.667 76.333 57 121h54c-12.667 -52 -32.834 -99.167 -60.501 -141.5s-61 -78.833 -100 -109.5s-82.667 -54.334 -131 -71.001s-99.166 -25 -152.499 -25
c-50.667 0 -95.167 7.5 -133.5 22.5s-71.166 35.5 -98.499 61.5s-49.833 56.5 -67.5 91.5s-30.667 72.5 -39 112.5s-12.5 81.5 -12.5 124.5s3.33301 85.5 10 127.5l7 42c8 44.667 19.333 88.834 34 132.501s32.667 85.5 54 125.5s46.333 77.167 75 111.5
s60.834 64.166 96.501 89.499s74.834 45.166 117.501 59.499s89 21.5 139 21.5c56 0 105.667 -9.5 149 -28.5s79.333 -45.333 108 -79s49.5 -73.5 62.5 -119.5s17.167 -96 12.5 -150h-53c4.66699 46 1.66699 88.667 -9 128s-28 73.5 -52 102.5s-54.167 51.667 -90.5 68
s-78.5 24.5 -126.5 24.5c-68 0 -128.167 -14.167 -180.5 -42.5s-97.5 -65.5 -135.5 -111.5s-69.167 -98 -93.5 -156s-42.166 -116.667 -53.499 -176l-7 -42c-6 -36.667 -9.66699 -74.334 -11 -113.001s1 -75.834 7 -111.501s16 -69.334 30 -101.001
s32.667 -59.334 56 -83.001s51.666 -42.5 84.999 -56.5s73 -21 119 -21zM620.996 1397c2 13.333 9.16504 25.667 21.498 37s25.5 17 39.5 17c15.333 0 27.833 -6 37.5 -18s13.167 -25.333 10.5 -40c-2 -13.333 -9.33301 -25.5 -22 -36.5s-26 -16.5 -40 -16.5
c-15.333 0.666992 -27.666 6.66699 -36.999 18s-12.666 24.333 -9.99902 39z" />
    <glyph glyph-name="Ccaron" unicode="&#x10c;" horiz-adv-x="1297" 
d="M1128 445c-19.333 -70 -46.5049 -133.506 -81.5049 -190.506s-77 -106 -126 -147s-104.667 -72.5 -167 -94.5s-130.5 -33 -204.5 -33c-59.333 0 -111.5 9 -156.5 27s-84 42.333 -117 73s-60 66.834 -81 108.501s-36.667 86 -47 133s-15.666 96 -15.999 147
s3.5 101.167 11.5 150.5l37 218c9.33301 52.667 22.833 105 40.5 157s39.667 101.5 66 148.5s56.666 90.833 90.999 131.5s72.833 76 115.5 106s89.5 53.5 140.5 70.5s105.833 25.5 164.5 25.5c71.333 0 134.5 -11 189.5 -33s100.833 -53.167 137.5 -93.5
s63.667 -89.166 81 -146.499s24.333 -121 21 -191h-53c2.66699 62 -3.33301 118.333 -18 169s-37.667 93.834 -69 129.501s-71.166 63.167 -119.499 82.5s-104.5 29 -168.5 29c-53.333 0 -103 -8 -149 -24s-88.5 -37.667 -127.5 -65s-74.167 -59.666 -105.5 -96.999
s-59.166 -77.5 -83.499 -120.5s-44.666 -88 -60.999 -135s-28.833 -94.167 -37.5 -141.5l-39 -220c-7.33301 -44 -11.166 -88.833 -11.499 -134.5s3.5 -90.167 11.5 -133.5s20.833 -84.166 38.5 -122.499s40.834 -71.833 69.501 -100.5s63 -51.5 103 -68.5
s87 -25.5 141 -25.5c68 0 129.833 9.5 185.5 28.5s105.5 46.5 149.5 82.5s82 79.333 114 130s57.667 107.334 77 170.001h54zM831.995 1634.99l227 215h54l-1 -13l-251 -249h-58l-175 252l1 11l55 1z" />
    <glyph glyph-name="ccaron" unicode="&#x10d;" horiz-adv-x="1018" 
d="M420 34c46.667 0 90.9961 6.83789 132.996 20.5049s79.833 33.334 113.5 59.001s62.834 56.5 87.501 92.5s43.667 76.333 57 121h54c-12.667 -52 -32.834 -99.167 -60.501 -141.5s-61 -78.833 -100 -109.5s-82.667 -54.334 -131 -71.001s-99.166 -25 -152.499 -25
c-50.667 0 -95.167 7.5 -133.5 22.5s-71.166 35.5 -98.499 61.5s-49.833 56.5 -67.5 91.5s-30.667 72.5 -39 112.5s-12.5 81.5 -12.5 124.5s3.33301 85.5 10 127.5l7 42c8 44.667 19.333 88.834 34 132.501s32.667 85.5 54 125.5s46.333 77.167 75 111.5
s60.834 64.166 96.501 89.499s74.834 45.166 117.501 59.499s89 21.5 139 21.5c56 0 105.667 -9.5 149 -28.5s79.333 -45.333 108 -79s49.5 -73.5 62.5 -119.5s17.167 -96 12.5 -150h-53c4.66699 46 1.66699 88.667 -9 128s-28 73.5 -52 102.5s-54.167 51.667 -90.5 68
s-78.5 24.5 -126.5 24.5c-68 0 -128.167 -14.167 -180.5 -42.5s-97.5 -65.5 -135.5 -111.5s-69.167 -98 -93.5 -156s-42.166 -116.667 -53.499 -176l-7 -42c-6 -36.667 -9.66699 -74.334 -11 -113.001s1 -75.834 7 -111.501s16 -69.334 30 -101.001
s32.667 -59.334 56 -83.001s51.666 -42.5 84.999 -56.5s73 -21 119 -21zM645.996 1292l227 215h54l-1 -13l-251 -249h-58l-175 252l1 11l55 1z" />
    <glyph glyph-name="Dcaron" unicode="&#x10e;" horiz-adv-x="1310" 
d="M89 0l253.006 1456h387c59.333 -0.666992 113.666 -9.33398 162.999 -26.001s93.166 -39.5 131.499 -68.5s71 -63.333 98 -103s48.333 -83 64 -130s25.167 -97 28.5 -150s0.666016 -106.833 -8.00098 -161.5l-30 -178c-15.333 -86 -42.833 -167.333 -82.5 -244
s-89.334 -144.167 -149.001 -202.5s-128.334 -104.833 -206.001 -139.5s-161.834 -52.334 -252.501 -53.001h-397zM387.006 1402l-234.001 -1348h333c82 1.33301 158.5 18 229.5 50s134.167 74.667 189.5 128s101.5 115 138.5 185s62.833 144 77.5 222l32 181
c12.667 74 12.834 145.667 0.500977 215s-36.5 131 -72.5 185s-83.5 97.5 -142.5 130.5s-128.833 50.167 -209.5 51.5h-342zM743.005 1614l227 215h54l-1 -13l-251 -249h-58l-175 252l1 11l55 1z" />
    <glyph glyph-name="dcaron" unicode="&#x10f;" horiz-adv-x="1247" 
d="M109 552c7.33301 42.667 17.6709 85.8291 31.0039 129.496s29.666 85.834 48.999 126.501s42.166 78.834 68.499 114.501s56.333 66.667 90 93s71 47.333 112 63s86.5 23.5 136.5 23.5c38 0 73.667 -4.83301 107 -14.5s63.666 -23.667 90.999 -42
s51.5 -41.166 72.5 -68.499s37.833 -58.666 50.5 -93.999l114 653h54l-265 -1536h-54l34 173c-48 -60.667 -105.333 -108 -172 -142s-139.334 -51 -218.001 -51c-50 0 -93 8.16699 -129 24.5s-66.333 38.5 -91 66.5s-44 60.333 -58 97s-24 75.5 -30 116.5
s-8.33301 82.667 -7 125s5 82.833 11 121.5zM162.005 530.995c-6 -33.333 -10.166 -68.667 -12.499 -106s-1.83301 -74.5 1.5 -111.5s10.166 -72.333 20.499 -106s25.666 -63.334 45.999 -89.001s46 -46.167 77 -61.5s68.833 -23 113.5 -23
c86.667 -0.666992 164.5 20 233.5 62s125.5 99.333 169.5 172l90 507c-6.66699 41.333 -18.167 78.833 -34.5 112.5s-37.166 62.334 -62.499 86.001s-55.5 42 -90.5 55s-74.167 19.5 -117.5 19.5c-66 0 -123.667 -15.333 -173 -46s-91.333 -70 -126 -118
s-62.667 -101.333 -84 -160s-37 -116 -47 -172zM1338.01 1432.99c-10 -55.333 -27.332 -106.5 -51.999 -153.5s-57.334 -89.833 -98.001 -128.5l-34 34c32.667 36.667 60 74.667 82 114s37.667 83.333 47 132l18 105h54z" />
    <glyph glyph-name="Dcroat" unicode="&#x110;" horiz-adv-x="1340" 
d="M119 0l124.006 713.002h-135l8 54h136l120 689h387c59.333 -0.666992 113.666 -9.33398 162.999 -26.001s93.166 -39.5 131.499 -68.5s71 -63.333 98 -103s48.333 -83 64 -130s25.167 -97 28.5 -150s0.666016 -106.833 -8.00098 -161.5l-30 -178
c-15.333 -86 -42.833 -167.333 -82.5 -244s-89.334 -144.167 -149.001 -202.5s-128.334 -104.833 -206.001 -139.5s-161.834 -52.334 -252.501 -53.001h-397zM679.006 713.002h-382.001l-114 -659h333c82 1.33301 158.5 18 229.5 50s134.167 74.667 189.5 128
s101.5 115 138.5 185s62.833 144 77.5 222l32 181c12.667 74 12.834 145.667 0.500977 215s-36.5 131 -72.5 185s-83.5 97.5 -142.5 130.5s-128.833 50.167 -209.5 51.5h-342l-110 -635h379z" />
    <glyph glyph-name="dcroat" unicode="&#x111;" horiz-adv-x="1127" 
d="M1197 1281l-155.995 -0.00488281l-221 -1281h-54l34 173c-48 -60.667 -105.333 -108 -172 -142s-139.334 -51 -218.001 -51c-50 0 -93 8.16699 -129 24.5s-66.333 38.5 -91 66.5s-44 60.333 -58 97s-24 75.5 -30 116.5s-8.33301 82.667 -7 125s5 82.833 11 121.5l3 21
c7.33301 42.667 17.666 85.834 30.999 129.501s29.666 85.834 48.999 126.501s42.166 78.834 68.499 114.501s56.333 66.667 90 93s71 47.333 112 63s86.5 23.5 136.5 23.5c38 0 73.667 -4.83301 107 -14.5s63.666 -23.667 90.999 -42s51.5 -41.166 72.5 -68.499
s37.833 -58.666 50.5 -93.999l69 398h-360l8 54h362l35 201h54l-35 -201h154zM162.005 530.995c-6 -33.333 -10.166 -68.667 -12.499 -106s-1.83301 -74.5 1.5 -111.5s10.166 -72.333 20.499 -106s25.666 -63.334 45.999 -89.001s46 -46.167 77 -61.5s68.833 -23 113.5 -23
c86.667 -0.666992 164.5 20 233.5 62s125.5 99.333 169.5 172l90 507c-6.66699 41.333 -18.167 78.833 -34.5 112.5s-37.166 62.334 -62.499 86.001s-55.5 42 -90.5 55s-74.167 19.5 -117.5 19.5c-66 0 -123.667 -15.333 -173 -46s-91.333 -70 -126 -118
s-62.667 -101.333 -84 -160s-37 -116 -47 -172z" />
    <glyph glyph-name="Emacron" unicode="&#x112;" horiz-adv-x="1141" 
d="M978 722h-709l-116 -668h806l-8 -54h-862l253 1456h860l-8 -54h-807l-109 -626h707zM1093 1733h-610l7 53h609z" />
    <glyph glyph-name="emacron" unicode="&#x113;" horiz-adv-x="1011" 
d="M442 -20c-48.667 0 -92.502 7.33008 -131.502 21.9971s-73.5 34.834 -103.5 60.501s-55.167 55.834 -75.5 90.501s-36.166 72 -47.499 112s-18.166 81.5 -20.499 124.5s-0.166016 85.833 6.50098 128.5l7 44c7.33301 43.333 19 86.666 35 129.999s35.5 85 58.5 125
s49.667 77.333 80 112s63.833 64.834 100.5 90.501s76.5 45.834 119.5 60.501s88.5 22 136.5 22c64.667 0 119.667 -13.5 165 -40.5s81.166 -62.167 107.499 -105.5s43.833 -92.666 52.5 -147.999s8.66699 -111.333 0 -168l-10 -63h-785l-4 -15l-8 -44
c-6.66699 -37.333 -9.5 -75 -8.5 -113s6 -75 15 -111s22.167 -69.667 39.5 -101s38.833 -58.833 64.5 -82.5s55.5 -42.5 89.5 -56.5s72.667 -21 116 -21c68 -0.666992 129.667 12.166 185 38.499s107 62.833 155 109.5l36 -29c-49.333 -54.667 -105.5 -97 -168.5 -127
s-131.833 -45 -206.5 -45zM607.998 1048c-59.333 0 -113.667 -12.001 -163 -36.001s-93.5 -55.833 -132.5 -95.5s-72.667 -84.5 -101 -134.5s-50.833 -100.333 -67.5 -151h729l3 13c9.33301 48 10.833 95.833 4.5 143.5s-20.5 90.834 -42.5 129.501
s-52.167 70.167 -90.5 94.5s-84.833 36.5 -139.5 36.5zM986.997 1412h-610l7 53h609z" />
    <glyph glyph-name="Ebreve" unicode="&#x114;" horiz-adv-x="1141" 
d="M978 722h-709l-116 -668h806l-8 -54h-862l253 1456h860l-8 -54h-807l-109 -626h707zM1076 1809c-7.33301 -38 -20.0029 -72.1709 -38.0029 -102.504s-40.333 -56.166 -67 -77.499s-57 -37.833 -91 -49.5s-70.333 -17.5 -109 -17.5c-38 0 -72.5 5.66699 -103.5 17
s-57 27.833 -78 49.5s-36.5 47.834 -46.5 78.501s-13 65 -9 103h53c-7.33301 -63.333 5.83398 -111.166 39.501 -143.499s81.834 -48.5 144.501 -48.5c63.333 0 117.333 16.333 162 49s74.334 80.334 89.001 143.001z" />
    <glyph glyph-name="ebreve" unicode="&#x115;" horiz-adv-x="1011" 
d="M442 -20c-48.667 0 -92.502 7.33008 -131.502 21.9971s-73.5 34.834 -103.5 60.501s-55.167 55.834 -75.5 90.501s-36.166 72 -47.499 112s-18.166 81.5 -20.499 124.5s-0.166016 85.833 6.50098 128.5l7 44c7.33301 43.333 19 86.666 35 129.999s35.5 85 58.5 125
s49.667 77.333 80 112s63.833 64.834 100.5 90.501s76.5 45.834 119.5 60.501s88.5 22 136.5 22c64.667 0 119.667 -13.5 165 -40.5s81.166 -62.167 107.499 -105.5s43.833 -92.666 52.5 -147.999s8.66699 -111.333 0 -168l-10 -63h-785l-4 -15l-8 -44
c-6.66699 -37.333 -9.5 -75 -8.5 -113s6 -75 15 -111s22.167 -69.667 39.5 -101s38.833 -58.833 64.5 -82.5s55.5 -42.5 89.5 -56.5s72.667 -21 116 -21c68 -0.666992 129.667 12.166 185 38.499s107 62.833 155 109.5l36 -29c-49.333 -54.667 -105.5 -97 -168.5 -127
s-131.833 -45 -206.5 -45zM607.998 1048c-59.333 0 -113.667 -12.001 -163 -36.001s-93.5 -55.833 -132.5 -95.5s-72.667 -84.5 -101 -134.5s-50.833 -100.333 -67.5 -151h729l3 13c9.33301 48 10.833 95.833 4.5 143.5s-20.5 90.834 -42.5 129.501
s-52.167 70.167 -90.5 94.5s-84.833 36.5 -139.5 36.5zM969.997 1488c-7.33301 -38 -20.0029 -72.1709 -38.0029 -102.504s-40.333 -56.166 -67 -77.499s-57 -37.833 -91 -49.5s-70.333 -17.5 -109 -17.5c-38 0 -72.5 5.66699 -103.5 17s-57 27.833 -78 49.5
s-36.5 47.834 -46.5 78.501s-13 65 -9 103h53c-7.33301 -63.333 5.83398 -111.166 39.501 -143.499s81.834 -48.5 144.501 -48.5c63.333 0 117.333 16.333 162 49s74.334 80.334 89.001 143.001z" />
    <glyph glyph-name="Edotaccent" unicode="&#x116;" horiz-adv-x="1141" 
d="M978 722h-709l-116 -668h806l-8 -54h-862l253 1456h860l-8 -54h-807l-109 -626h707zM746 1718c2 13.333 9.16504 25.667 21.498 37s25.5 17 39.5 17c15.333 0 27.833 -6 37.5 -18s13.167 -25.333 10.5 -40c-2 -13.333 -9.33301 -25.5 -22 -36.5s-26 -16.5 -40 -16.5
c-15.333 0.666992 -27.666 6.66699 -36.999 18s-12.666 24.333 -9.99902 39z" />
    <glyph glyph-name="edotaccent" unicode="&#x117;" horiz-adv-x="1011" 
d="M442 -20c-48.667 0 -92.502 7.33008 -131.502 21.9971s-73.5 34.834 -103.5 60.501s-55.167 55.834 -75.5 90.501s-36.166 72 -47.499 112s-18.166 81.5 -20.499 124.5s-0.166016 85.833 6.50098 128.5l7 44c7.33301 43.333 19 86.666 35 129.999s35.5 85 58.5 125
s49.667 77.333 80 112s63.833 64.834 100.5 90.501s76.5 45.834 119.5 60.501s88.5 22 136.5 22c64.667 0 119.667 -13.5 165 -40.5s81.166 -62.167 107.499 -105.5s43.833 -92.666 52.5 -147.999s8.66699 -111.333 0 -168l-10 -63h-785l-4 -15l-8 -44
c-6.66699 -37.333 -9.5 -75 -8.5 -113s6 -75 15 -111s22.167 -69.667 39.5 -101s38.833 -58.833 64.5 -82.5s55.5 -42.5 89.5 -56.5s72.667 -21 116 -21c68 -0.666992 129.667 12.166 185 38.499s107 62.833 155 109.5l36 -29c-49.333 -54.667 -105.5 -97 -168.5 -127
s-131.833 -45 -206.5 -45zM607.998 1048c-59.333 0 -113.667 -12.001 -163 -36.001s-93.5 -55.833 -132.5 -95.5s-72.667 -84.5 -101 -134.5s-50.833 -100.333 -67.5 -151h729l3 13c9.33301 48 10.833 95.833 4.5 143.5s-20.5 90.834 -42.5 129.501
s-52.167 70.167 -90.5 94.5s-84.833 36.5 -139.5 36.5zM639.997 1398c2 13.333 9.16504 25.667 21.498 37s25.5 17 39.5 17c15.333 0 27.833 -6 37.5 -18s13.167 -25.333 10.5 -40c-2 -13.333 -9.33301 -25.5 -22 -36.5s-26 -16.5 -40 -16.5
c-15.333 0.666992 -27.666 6.66699 -36.999 18s-12.666 24.333 -9.99902 39z" />
    <glyph glyph-name="Eogonek" unicode="&#x118;" horiz-adv-x="1141" 
d="M978 722l-709 -0.00195312l-116 -668h806l-8 -54h-61l4 -2c-20.667 -15.333 -43 -31.333 -67 -48s-46.667 -35 -68 -55s-40 -41.667 -56 -65s-26.333 -48.666 -31 -75.999s-1 -49.666 11 -66.999s32.333 -26.333 61 -27c21.333 -0.666992 41.5 2.83301 60.5 10.5
s37.167 16.5 54.5 26.5l10 -49c-19.333 -13.333 -39.333 -23.833 -60 -31.5s-42.667 -11.5 -66 -11.5c-45.333 0 -78.833 14 -100.5 42s-29.5 63.667 -23.5 107c3.33301 26.667 11.833 51.667 25.5 75s30.167 45.166 49.5 65.499s40.333 39.333 63 57
s44.667 33.834 66 48.501h-734l253 1456h860l-8 -54h-807l-109 -626h707z" />
    <glyph glyph-name="eogonek" unicode="&#x119;" horiz-adv-x="1011" 
d="M442 -20c-48.667 0 -92.501 7.32812 -131.501 21.9951s-73.5 34.834 -103.5 60.501s-55.167 55.834 -75.5 90.501s-36.166 72 -47.499 112s-18.166 81.5 -20.499 124.5s-0.166016 85.833 6.50098 128.5l7 44c7.33301 43.333 19 86.666 35 129.999s35.5 85 58.5 125
s49.667 77.333 80 112s63.833 64.834 100.5 90.501s76.5 45.834 119.5 60.501s88.5 22 136.5 22c64.667 0 119.667 -13.5 165 -40.5s81.166 -62.167 107.499 -105.5s43.833 -92.666 52.5 -147.999s8.66699 -111.333 0 -168l-10 -63h-785l-4 -15l-8 -44
c-6.66699 -37.333 -9.5 -75 -8.5 -113s6 -75 15 -111s22.167 -69.667 39.5 -101s38.833 -58.833 64.5 -82.5s55.5 -42.5 89.5 -56.5s72.667 -21 116 -21c68 -0.666992 129.667 12.166 185 38.499s107 62.833 155 109.5l36 -29c-32.667 -36.667 -69 -68 -109 -94l6 -2
c-20.667 -15.333 -43 -31.333 -67 -48s-46.667 -35 -68 -55s-40 -41.667 -56 -65s-26.333 -48.666 -31 -75.999s-1 -49.666 11 -66.999s32.333 -26.333 61 -27c21.333 -0.666992 41.5 2.83301 60.5 10.5s37.167 16.5 54.5 26.5l10 -49
c-19.333 -13.333 -39.333 -23.833 -60 -31.5s-42.667 -11.5 -66 -11.5c-45.333 0 -78.833 14 -100.5 42s-29.5 63.667 -23.5 107c5.33301 36 19.166 69 41.499 99s48.5 57.667 78.5 83c-38.667 -9.33301 -77.667 -14 -117 -14zM607.999 1048
c-59.333 0 -113.667 -12.001 -163 -36.001s-93.5 -55.833 -132.5 -95.5s-72.667 -84.5 -101 -134.5s-50.833 -100.333 -67.5 -151h729l3 13c9.33301 48 10.833 95.833 4.5 143.5s-20.5 90.834 -42.5 129.501s-52.167 70.167 -90.5 94.5s-84.833 36.5 -139.5 36.5z" />
    <glyph glyph-name="Ecaron" unicode="&#x11a;" horiz-adv-x="1141" 
d="M978 722h-709l-116 -668h806l-8 -54h-862l253 1456h860l-8 -54h-807l-109 -626h707zM771 1614l227 215h54l-1 -13l-251 -249h-58l-175 252l1 11l55 1z" />
    <glyph glyph-name="ecaron" unicode="&#x11b;" horiz-adv-x="1011" 
d="M442 -20c-48.667 0 -92.502 7.33008 -131.502 21.9971s-73.5 34.834 -103.5 60.501s-55.167 55.834 -75.5 90.501s-36.166 72 -47.499 112s-18.166 81.5 -20.499 124.5s-0.166016 85.833 6.50098 128.5l7 44c7.33301 43.333 19 86.666 35 129.999s35.5 85 58.5 125
s49.667 77.333 80 112s63.833 64.834 100.5 90.501s76.5 45.834 119.5 60.501s88.5 22 136.5 22c64.667 0 119.667 -13.5 165 -40.5s81.166 -62.167 107.499 -105.5s43.833 -92.666 52.5 -147.999s8.66699 -111.333 0 -168l-10 -63h-785l-4 -15l-8 -44
c-6.66699 -37.333 -9.5 -75 -8.5 -113s6 -75 15 -111s22.167 -69.667 39.5 -101s38.833 -58.833 64.5 -82.5s55.5 -42.5 89.5 -56.5s72.667 -21 116 -21c68 -0.666992 129.667 12.166 185 38.499s107 62.833 155 109.5l36 -29c-49.333 -54.667 -105.5 -97 -168.5 -127
s-131.833 -45 -206.5 -45zM607.998 1048c-59.333 0 -113.667 -12.001 -163 -36.001s-93.5 -55.833 -132.5 -95.5s-72.667 -84.5 -101 -134.5s-50.833 -100.333 -67.5 -151h729l3 13c9.33301 48 10.833 95.833 4.5 143.5s-20.5 90.834 -42.5 129.501
s-52.167 70.167 -90.5 94.5s-84.833 36.5 -139.5 36.5zM664.997 1293l227 215h54l-1 -13l-251 -249h-58l-175 252l1 11l55 1z" />
    <glyph glyph-name="Gcircumflex" unicode="&#x11c;" horiz-adv-x="1374" 
d="M1115 156c-30 -34 -65.335 -62.1699 -106.002 -84.5029s-83.834 -40.333 -129.501 -54s-92.167 -23.334 -139.5 -29.001s-92.333 -8.5 -135 -8.5c-59.333 0 -112.5 8.66699 -159.5 26s-88.167 41 -123.5 71s-65 65.5 -89 106.5s-42.333 85.167 -55 132.5
s-20 96.833 -22 148.5s1.33301 103.5 10 155.5l41 238c9.33301 52.667 23.333 104.5 42 155.5s41.834 99.333 69.501 145s59.5 87.834 95.5 126.501s75.833 72.167 119.5 100.5s90.834 50.5 141.501 66.5s105 24 163 24c64 0 122.667 -9.33301 176 -28
s99.166 -45.667 137.499 -81s67.833 -78.666 88.5 -129.999s30.334 -109.666 29.001 -174.999h-53c0 58 -8.83301 109.333 -26.5 154s-43 82.167 -76 112.5s-72.833 53.5 -119.5 69.5s-98.667 24 -156 24c-78.667 0 -150.334 -15.833 -215.001 -47.5
s-121.5 -73.667 -170.5 -126s-89.667 -112.166 -122 -179.499s-55.166 -137 -68.499 -209l-42 -240c-8 -46.667 -11.5 -93.5 -10.5 -140.5s6.5 -92.167 16.5 -135.5s25.167 -83.833 45.5 -121.5s46 -70.5 77 -98.5s67.667 -50 110 -66s90.833 -24 145.5 -24
c38.667 0 78.834 2.5 120.501 7.5s82.667 13.167 123 24.5s78.833 26.5 115.5 45.5s69.667 42.167 99 69.5l75 424h-430l7 55h487zM1105 1614l-1 -10l-66 -1l-146 196l-214 -194h-65l1 14l261 238h40z" />
    <glyph glyph-name="gcircumflex" unicode="&#x11d;" horiz-adv-x="1099" 
d="M108 552c7.33301 42.667 17.6699 85.8311 31.0029 129.498s29.666 85.834 48.999 126.501s42.166 78.834 68.499 114.501s56.333 66.667 90 93s71 47.333 112 63s86.5 23.5 136.5 23.5c37.333 0 72.666 -4.66699 105.999 -14s63.666 -23.333 90.999 -42
s51.5 -41.5 72.5 -68.5s37.833 -58.167 50.5 -93.5l36 198h54l-183 -1067c-11.333 -60.667 -29.833 -118.334 -55.5 -173.001s-58.334 -102.5 -98.001 -143.5s-86 -73.667 -139 -98s-112.5 -36.5 -178.5 -36.5c-69.333 0 -130.666 16 -183.999 48s-98 77.333 -134 136l41 34
c32 -51.333 70 -91.666 114 -120.999s97.333 -44 160 -44c58.667 0 111.5 10.667 158.5 32s88 50 123 86s63.833 78.167 86.5 126.5s39.334 99.5 50.001 153.5l31 156c-48 -60.667 -105.167 -107.667 -171.5 -141s-138.5 -50 -216.5 -50c-50 0 -93 8.16699 -129 24.5
s-66.333 38.5 -91 66.5s-44 60.333 -58 97s-24 75.5 -30 116.5s-8.33301 82.667 -7 125s5 82.833 11 121.5zM160.004 530.997c-6 -33.333 -10.167 -68.667 -12.5 -106s-1.83301 -74.5 1.5 -111.5s10.333 -72.333 21 -106s26.167 -63.334 46.5 -89.001s46 -46.167 77 -61.5
s68.833 -23 113.5 -23c44 0 85.667 5.5 125 16.5s76 27 110 48s65.167 46.5 93.5 76.5s53.166 63.667 74.499 101l88 491c-6 42 -16.667 80.333 -32 115s-35.666 64.334 -60.999 89.001s-55.5 43.667 -90.5 57s-74.833 20 -119.5 20c-66 0 -123.667 -15.333 -173 -46
s-91.5 -70 -126.5 -118s-63.167 -101.333 -84.5 -160s-37 -116 -47 -172zM914.004 1272l-1 -10l-66 -1l-146 196l-214 -194h-65l1 14l261 238h40z" />
    <glyph glyph-name="Gbreve" unicode="&#x11e;" horiz-adv-x="1374" 
d="M1115 156c-30 -34 -65.335 -62.1699 -106.002 -84.5029s-83.834 -40.333 -129.501 -54s-92.167 -23.334 -139.5 -29.001s-92.333 -8.5 -135 -8.5c-59.333 0 -112.5 8.66699 -159.5 26s-88.167 41 -123.5 71s-65 65.5 -89 106.5s-42.333 85.167 -55 132.5
s-20 96.833 -22 148.5s1.33301 103.5 10 155.5l41 238c9.33301 52.667 23.333 104.5 42 155.5s41.834 99.333 69.501 145s59.5 87.834 95.5 126.501s75.833 72.167 119.5 100.5s90.834 50.5 141.501 66.5s105 24 163 24c64 0 122.667 -9.33301 176 -28
s99.166 -45.667 137.499 -81s67.833 -78.666 88.5 -129.999s30.334 -109.666 29.001 -174.999h-53c0 58 -8.83301 109.333 -26.5 154s-43 82.167 -76 112.5s-72.833 53.5 -119.5 69.5s-98.667 24 -156 24c-78.667 0 -150.334 -15.833 -215.001 -47.5
s-121.5 -73.667 -170.5 -126s-89.667 -112.166 -122 -179.499s-55.166 -137 -68.499 -209l-42 -240c-8 -46.667 -11.5 -93.5 -10.5 -140.5s6.5 -92.167 16.5 -135.5s25.167 -83.833 45.5 -121.5s46 -70.5 77 -98.5s67.667 -50 110 -66s90.833 -24 145.5 -24
c38.667 0 78.834 2.5 120.501 7.5s82.667 13.167 123 24.5s78.833 26.5 115.5 45.5s69.667 42.167 99 69.5l75 424h-430l7 55h487zM1161 1830c-7.33301 -38 -20.0029 -72.1709 -38.0029 -102.504s-40.333 -56.166 -67 -77.499s-57 -37.833 -91 -49.5
s-70.333 -17.5 -109 -17.5c-38 0 -72.5 5.66699 -103.5 17s-57 27.833 -78 49.5s-36.5 47.834 -46.5 78.501s-13 65 -9 103h53c-7.33301 -63.333 5.83398 -111.166 39.501 -143.499s81.834 -48.5 144.501 -48.5c63.333 0 117.333 16.333 162 49
s74.334 80.334 89.001 143.001z" />
    <glyph glyph-name="gbreve" unicode="&#x11f;" horiz-adv-x="1099" 
d="M108 552c7.33301 42.667 17.6699 85.8311 31.0029 129.498s29.666 85.834 48.999 126.501s42.166 78.834 68.499 114.501s56.333 66.667 90 93s71 47.333 112 63s86.5 23.5 136.5 23.5c37.333 0 72.666 -4.66699 105.999 -14s63.666 -23.333 90.999 -42
s51.5 -41.5 72.5 -68.5s37.833 -58.167 50.5 -93.5l36 198h54l-183 -1067c-11.333 -60.667 -29.833 -118.334 -55.5 -173.001s-58.334 -102.5 -98.001 -143.5s-86 -73.667 -139 -98s-112.5 -36.5 -178.5 -36.5c-69.333 0 -130.666 16 -183.999 48s-98 77.333 -134 136l41 34
c32 -51.333 70 -91.666 114 -120.999s97.333 -44 160 -44c58.667 0 111.5 10.667 158.5 32s88 50 123 86s63.833 78.167 86.5 126.5s39.334 99.5 50.001 153.5l31 156c-48 -60.667 -105.167 -107.667 -171.5 -141s-138.5 -50 -216.5 -50c-50 0 -93 8.16699 -129 24.5
s-66.333 38.5 -91 66.5s-44 60.333 -58 97s-24 75.5 -30 116.5s-8.33301 82.667 -7 125s5 82.833 11 121.5zM160.004 530.997c-6 -33.333 -10.167 -68.667 -12.5 -106s-1.83301 -74.5 1.5 -111.5s10.333 -72.333 21 -106s26.167 -63.334 46.5 -89.001s46 -46.167 77 -61.5
s68.833 -23 113.5 -23c44 0 85.667 5.5 125 16.5s76 27 110 48s65.167 46.5 93.5 76.5s53.166 63.667 74.499 101l88 491c-6 42 -16.667 80.333 -32 115s-35.666 64.334 -60.999 89.001s-55.5 43.667 -90.5 57s-74.833 20 -119.5 20c-66 0 -123.667 -15.333 -173 -46
s-91.5 -70 -126.5 -118s-63.167 -101.333 -84.5 -160s-37 -116 -47 -172zM970.004 1487c-7.33301 -38 -20.0029 -72.1709 -38.0029 -102.504s-40.333 -56.166 -67 -77.499s-57 -37.833 -91 -49.5s-70.333 -17.5 -109 -17.5c-38 0 -72.5 5.66699 -103.5 17
s-57 27.833 -78 49.5s-36.5 47.834 -46.5 78.501s-13 65 -9 103h53c-7.33301 -63.333 5.83398 -111.166 39.501 -143.499s81.834 -48.5 144.501 -48.5c63.333 0 117.333 16.333 162 49s74.334 80.334 89.001 143.001z" />
    <glyph glyph-name="uni0120" unicode="&#x120;" horiz-adv-x="1374" 
d="M1115 156c-30 -34 -65.335 -62.1699 -106.002 -84.5029s-83.834 -40.333 -129.501 -54s-92.167 -23.334 -139.5 -29.001s-92.333 -8.5 -135 -8.5c-59.333 0 -112.5 8.66699 -159.5 26s-88.167 41 -123.5 71s-65 65.5 -89 106.5s-42.333 85.167 -55 132.5
s-20 96.833 -22 148.5s1.33301 103.5 10 155.5l41 238c9.33301 52.667 23.333 104.5 42 155.5s41.834 99.333 69.501 145s59.5 87.834 95.5 126.501s75.833 72.167 119.5 100.5s90.834 50.5 141.501 66.5s105 24 163 24c64 0 122.667 -9.33301 176 -28
s99.166 -45.667 137.499 -81s67.833 -78.666 88.5 -129.999s30.334 -109.666 29.001 -174.999h-53c0 58 -8.83301 109.333 -26.5 154s-43 82.167 -76 112.5s-72.833 53.5 -119.5 69.5s-98.667 24 -156 24c-78.667 0 -150.334 -15.833 -215.001 -47.5
s-121.5 -73.667 -170.5 -126s-89.667 -112.166 -122 -179.499s-55.166 -137 -68.499 -209l-42 -240c-8 -46.667 -11.5 -93.5 -10.5 -140.5s6.5 -92.167 16.5 -135.5s25.167 -83.833 45.5 -121.5s46 -70.5 77 -98.5s67.667 -50 110 -66s90.833 -24 145.5 -24
c38.667 0 78.834 2.5 120.501 7.5s82.667 13.167 123 24.5s78.833 26.5 115.5 45.5s69.667 42.167 99 69.5l75 424h-430l7 55h487zM830.998 1739c2 13.333 9.16504 25.667 21.498 37s25.5 17 39.5 17c15.333 0 27.833 -6 37.5 -18s13.167 -25.333 10.5 -40
c-2 -13.333 -9.33301 -25.5 -22 -36.5s-26 -16.5 -40 -16.5c-15.333 0.666992 -27.666 6.66699 -36.999 18s-12.666 24.333 -9.99902 39z" />
    <glyph glyph-name="uni0121" unicode="&#x121;" horiz-adv-x="1099" 
d="M108 552c7.33301 42.667 17.6699 85.8311 31.0029 129.498s29.666 85.834 48.999 126.501s42.166 78.834 68.499 114.501s56.333 66.667 90 93s71 47.333 112 63s86.5 23.5 136.5 23.5c37.333 0 72.666 -4.66699 105.999 -14s63.666 -23.333 90.999 -42
s51.5 -41.5 72.5 -68.5s37.833 -58.167 50.5 -93.5l36 198h54l-183 -1067c-11.333 -60.667 -29.833 -118.334 -55.5 -173.001s-58.334 -102.5 -98.001 -143.5s-86 -73.667 -139 -98s-112.5 -36.5 -178.5 -36.5c-69.333 0 -130.666 16 -183.999 48s-98 77.333 -134 136l41 34
c32 -51.333 70 -91.666 114 -120.999s97.333 -44 160 -44c58.667 0 111.5 10.667 158.5 32s88 50 123 86s63.833 78.167 86.5 126.5s39.334 99.5 50.001 153.5l31 156c-48 -60.667 -105.167 -107.667 -171.5 -141s-138.5 -50 -216.5 -50c-50 0 -93 8.16699 -129 24.5
s-66.333 38.5 -91 66.5s-44 60.333 -58 97s-24 75.5 -30 116.5s-8.33301 82.667 -7 125s5 82.833 11 121.5zM160.004 530.997c-6 -33.333 -10.167 -68.667 -12.5 -106s-1.83301 -74.5 1.5 -111.5s10.333 -72.333 21 -106s26.167 -63.334 46.5 -89.001s46 -46.167 77 -61.5
s68.833 -23 113.5 -23c44 0 85.667 5.5 125 16.5s76 27 110 48s65.167 46.5 93.5 76.5s53.166 63.667 74.499 101l88 491c-6 42 -16.667 80.333 -32 115s-35.666 64.334 -60.999 89.001s-55.5 43.667 -90.5 57s-74.833 20 -119.5 20c-66 0 -123.667 -15.333 -173 -46
s-91.5 -70 -126.5 -118s-63.167 -101.333 -84.5 -160s-37 -116 -47 -172zM640.004 1397c2 13.333 9.16504 25.667 21.498 37s25.5 17 39.5 17c15.333 0 27.833 -6 37.5 -18s13.167 -25.333 10.5 -40c-2 -13.333 -9.33301 -25.5 -22 -36.5s-26 -16.5 -40 -16.5
c-15.333 0.666992 -27.666 6.66699 -36.999 18s-12.666 24.333 -9.99902 39z" />
    <glyph glyph-name="Gcommaaccent" unicode="&#x122;" horiz-adv-x="1374" 
d="M1115 156c-30 -34 -65.335 -62.1699 -106.002 -84.5029s-83.834 -40.333 -129.501 -54s-92.167 -23.334 -139.5 -29.001s-92.333 -8.5 -135 -8.5c-59.333 0 -112.5 8.66699 -159.5 26s-88.167 41 -123.5 71s-65 65.5 -89 106.5s-42.333 85.167 -55 132.5
s-20 96.833 -22 148.5s1.33301 103.5 10 155.5l41 238c9.33301 52.667 23.333 104.5 42 155.5s41.834 99.333 69.501 145s59.5 87.834 95.5 126.501s75.833 72.167 119.5 100.5s90.834 50.5 141.501 66.5s105 24 163 24c64 0 122.667 -9.33301 176 -28
s99.166 -45.667 137.499 -81s67.833 -78.666 88.5 -129.999s30.334 -109.666 29.001 -174.999h-53c0 58 -8.83301 109.333 -26.5 154s-43 82.167 -76 112.5s-72.833 53.5 -119.5 69.5s-98.667 24 -156 24c-78.667 0 -150.334 -15.833 -215.001 -47.5
s-121.5 -73.667 -170.5 -126s-89.667 -112.166 -122 -179.499s-55.166 -137 -68.499 -209l-42 -240c-8 -46.667 -11.5 -93.5 -10.5 -140.5s6.5 -92.167 16.5 -135.5s25.167 -83.833 45.5 -121.5s46 -70.5 77 -98.5s67.667 -50 110 -66s90.833 -24 145.5 -24
c38.667 0 78.834 2.5 120.501 7.5s82.667 13.167 123 24.5s78.833 26.5 115.5 45.5s69.667 42.167 99 69.5l75 424h-430l7 55h487zM600.998 -175.003c-8.66699 -47.333 -23 -91 -43 -131s-47 -77 -81 -111l-34 34c26 31.333 47.667 63.5 65 96.5s30 69.5 38 109.5l14 79h53z
" />
    <glyph glyph-name="gcommaaccent" unicode="&#x123;" horiz-adv-x="1099" 
d="M108 552c7.33301 42.667 17.6699 85.8311 31.0029 129.498s29.666 85.834 48.999 126.501s42.166 78.834 68.499 114.501s56.333 66.667 90 93s71 47.333 112 63s86.5 23.5 136.5 23.5c37.333 0 72.666 -4.66699 105.999 -14s63.666 -23.333 90.999 -42
s51.5 -41.5 72.5 -68.5s37.833 -58.167 50.5 -93.5l36 198h54l-183 -1067c-11.333 -60.667 -29.833 -118.334 -55.5 -173.001s-58.334 -102.5 -98.001 -143.5s-86 -73.667 -139 -98s-112.5 -36.5 -178.5 -36.5c-69.333 0 -130.666 16 -183.999 48s-98 77.333 -134 136l41 34
c32 -51.333 70 -91.666 114 -120.999s97.333 -44 160 -44c58.667 0 111.5 10.667 158.5 32s88 50 123 86s63.833 78.167 86.5 126.5s39.334 99.5 50.001 153.5l31 156c-48 -60.667 -105.167 -107.667 -171.5 -141s-138.5 -50 -216.5 -50c-50 0 -93 8.16699 -129 24.5
s-66.333 38.5 -91 66.5s-44 60.333 -58 97s-24 75.5 -30 116.5s-8.33301 82.667 -7 125s5 82.833 11 121.5zM160.004 530.997c-6 -33.333 -10.167 -68.667 -12.5 -106s-1.83301 -74.5 1.5 -111.5s10.333 -72.333 21 -106s26.167 -63.334 46.5 -89.001s46 -46.167 77 -61.5
s68.833 -23 113.5 -23c44 0 85.667 5.5 125 16.5s76 27 110 48s65.167 46.5 93.5 76.5s53.166 63.667 74.499 101l88 491c-6 42 -16.667 80.333 -32 115s-35.666 64.334 -60.999 89.001s-55.5 43.667 -90.5 57s-74.833 20 -119.5 20c-66 0 -123.667 -15.333 -173 -46
s-91.5 -70 -126.5 -118s-63.167 -101.333 -84.5 -160s-37 -116 -47 -172zM660.004 1402c7.33301 36 18.668 69 34.001 99s33.666 59.333 54.999 88l44 -17c-17.333 -26 -33 -52.333 -47 -79s-24 -55.667 -30 -87l-23 -132h-54z" />
    <glyph glyph-name="Hcircumflex" unicode="&#x124;" horiz-adv-x="1405" 
d="M1099 0h-54l124 722h-900l-125 -722h-54l251 1456h54l-117 -680h900l118 680h53zM1114 1593l-1 -10l-66 -1l-146 196l-214 -194h-65l1 14l261 238h40z" />
    <glyph glyph-name="hcircumflex" unicode="&#x125;" 
d="M256 830c22.667 36.667 48.6719 71.5029 78.0049 104.503s61.666 61.833 96.999 86.5s73.333 44.334 114 59.001s83.667 22 129 22c61.333 0 111.5 -10.833 150.5 -32.5s68.667 -51 89 -88s32.666 -79.833 36.999 -128.5s2.16602 -99.667 -6.50098 -153l-121 -700h-54
l121 700c7.33301 45.333 10.166 89.166 8.49902 131.499s-10.334 79.666 -26.001 111.999s-39.5 58.166 -71.5 77.499s-75 28.666 -129 27.999c-48 -0.666992 -95 -11 -141 -31s-88.5 -46.5 -127.5 -79.5s-73 -70.833 -102 -113.5s-50.5 -86.667 -64.5 -132l-120 -693h-54
l265 1536h54zM878.005 1592l-1 -10l-66 -1l-146 196l-214 -194h-65l1 14l261 238h40z" />
    <glyph glyph-name="Hbar" unicode="&#x126;" horiz-adv-x="1357" 
d="M1244 1081h151l-7 -53h-153l-176 -1028h-54l124 722h-900l-125 -722h-54l177 1028h-133l7 53h135l65 375h54l-65 -375h900l66 375h53zM1138 776l43 252h-900l-43 -252h900z" />
    <glyph glyph-name="hbar" unicode="&#x127;" horiz-adv-x="1127" 
d="M749 1281l-382.995 0.00292969l-80 -451c22.667 36.667 48.667 71.5 78 104.5s61.666 61.833 96.999 86.5s73.333 44.334 114 59.001s83.667 22 129 22c61.333 0 111.5 -10.833 150.5 -32.5s68.667 -51 89 -88s32.666 -79.833 36.999 -128.5
s2.16602 -99.667 -6.50098 -153l-121 -700h-54l121 700c7.33301 45.333 10.166 89.166 8.49902 131.499s-10.334 79.666 -26.001 111.999s-39.5 58.166 -71.5 77.499s-75 28.666 -129 27.999c-48 -0.666992 -95 -11 -141 -31s-88.5 -46.5 -127.5 -79.5
s-73 -70.833 -102 -113.5s-50.5 -86.667 -64.5 -132l-120 -693h-54l221 1281h-136l8 54h137l35 201h54l-36 -201h380z" />
    <glyph glyph-name="Itilde" unicode="&#x128;" horiz-adv-x="528" 
d="M183 0h-54l251 1456h54zM785 1805c-5.33301 -24 -13.333 -47.165 -24 -69.498s-24.334 -42 -41.001 -59s-36 -30.667 -58 -41s-46.333 -15.5 -73 -15.5c-28 0 -52.167 6.5 -72.5 19.5s-40 27.333 -59 43s-38.5 29.834 -58.5 42.501s-43 19 -69 19
c-38.667 0 -69.167 -11.833 -91.5 -35.5s-38.5 -52.834 -48.5 -87.501h-55c4.66699 24 12.5 46.833 23.5 68.5s24.833 40.667 41.5 57s35.834 29.166 57.501 38.499s45.834 14 72.501 14c27.333 0 51.333 -6.5 72 -19.5s40.5 -27.167 59.5 -42.5s38.5 -29.333 58.5 -42
s43 -19 69 -19c19.333 0 36.666 3.5 51.999 10.5s28.833 16.5 40.5 28.5s21.5 25.667 29.5 41s14.333 31.666 19 48.999h55z" />
    <glyph glyph-name="itilde" unicode="&#x129;" horiz-adv-x="404" 
d="M126 0h-54l186 1082h54zM668 1463c-5.33301 -24 -13.333 -47.165 -24 -69.498s-24.334 -42 -41.001 -59s-36 -30.667 -58 -41s-46.333 -15.5 -73 -15.5c-28 0 -52.167 6.5 -72.5 19.5s-40 27.333 -59 43s-38.5 29.834 -58.5 42.501s-43 19 -69 19
c-38.667 0 -69.167 -11.833 -91.5 -35.5s-38.5 -52.834 -48.5 -87.501h-55c4.66699 24 12.5 46.833 23.5 68.5s24.833 40.667 41.5 57s35.834 29.166 57.501 38.499s45.834 14 72.501 14c27.333 0 51.333 -6.5 72 -19.5s40.5 -27.167 59.5 -42.5s38.5 -29.333 58.5 -42
s43 -19 69 -19c19.333 0 36.666 3.5 51.999 10.5s28.833 16.5 40.5 28.5s21.5 25.667 29.5 41s14.333 31.666 19 48.999h55z" />
    <glyph glyph-name="Imacron" unicode="&#x12a;" horiz-adv-x="528" 
d="M183 0h-54l251 1456h54zM754 1733h-610l7 53h609z" />
    <glyph glyph-name="imacron" unicode="&#x12b;" horiz-adv-x="404" 
d="M126 0h-54l186 1082h54zM637 1391h-610l7 53h609z" />
    <glyph glyph-name="Ibreve" unicode="&#x12c;" horiz-adv-x="528" 
d="M183 0h-54l251 1456h54zM737 1809c-7.33301 -38 -20.0029 -72.1709 -38.0029 -102.504s-40.333 -56.166 -67 -77.499s-57 -37.833 -91 -49.5s-70.333 -17.5 -109 -17.5c-38 0 -72.5 5.66699 -103.5 17s-57 27.833 -78 49.5s-36.5 47.834 -46.5 78.501s-13 65 -9 103h53
c-7.33301 -63.333 5.83398 -111.166 39.501 -143.499s81.834 -48.5 144.501 -48.5c63.333 0 117.333 16.333 162 49s74.334 80.334 89.001 143.001z" />
    <glyph glyph-name="ibreve" unicode="&#x12d;" horiz-adv-x="404" 
d="M126 0h-54l186 1082h54zM620 1467c-7.33301 -38 -20.0029 -72.1709 -38.0029 -102.504s-40.333 -56.166 -67 -77.499s-57 -37.833 -91 -49.5s-70.333 -17.5 -109 -17.5c-38 0 -72.5 5.66699 -103.5 17s-57 27.833 -78 49.5s-36.5 47.834 -46.5 78.501s-13 65 -9 103h53
c-7.33301 -63.333 5.83398 -111.166 39.501 -143.499s81.834 -48.5 144.501 -48.5c63.333 0 117.333 16.333 162 49s74.334 80.334 89.001 143.001z" />
    <glyph glyph-name="Iogonek" unicode="&#x12e;" horiz-adv-x="528" 
d="M183 0l-10 -0.00292969l4 -2c-20.667 -15.333 -43 -31.333 -67 -48s-46.667 -35 -68 -55s-40 -41.667 -56 -65s-26.333 -48.666 -31 -75.999s-1 -49.666 11 -66.999s32.333 -26.333 61 -27c21.333 -0.666992 41.5 2.83301 60.5 10.5s37.167 16.5 54.5 26.5l10 -49
c-19.333 -13.333 -39.333 -23.833 -60 -31.5s-42.667 -11.5 -66 -11.5c-45.333 0 -78.833 14 -100.5 42s-29.5 63.667 -23.5 107c4 28.667 14.167 55.834 30.5 81.501s35.5 49.334 57.5 71.001s45.667 41.667 71 60s49 35.166 71 50.499l248 1439h54z" />
    <glyph glyph-name="iogonek" unicode="&#x12f;" horiz-adv-x="419" 
d="M130 0l-6.00195 -0.00195312l4 -2c-20.667 -15.333 -43 -31.333 -67 -48s-46.667 -35 -68 -55s-40 -41.667 -56 -65s-26.333 -48.666 -31 -75.999s-1 -49.666 11 -66.999s32.333 -26.333 61 -27c21.333 -0.666992 41.5 2.83301 60.5 10.5s37.167 16.5 54.5 26.5l10 -49
c-19.333 -13.333 -39.333 -23.833 -60 -31.5s-42.667 -11.5 -66 -11.5c-45.333 0 -78.833 14 -100.5 42s-29.5 63.667 -23.5 107c4 28.667 13.833 55.5 29.5 80.5s34.334 48.333 56.001 70s44.834 41.5 69.501 59.5s48 34.667 70 50l184 1068h54zM293.998 1422
c2 13.333 9.16504 25.667 21.498 37s25.5 17 39.5 17c15.333 0 27.833 -6 37.5 -18s13.167 -25.333 10.5 -40c-2 -13.333 -9.33301 -25.5 -22 -36.5s-26 -16.5 -40 -16.5c-15.333 0.666992 -27.666 6.66699 -36.999 18s-12.666 24.333 -9.99902 39z" />
    <glyph glyph-name="Idotaccent" unicode="&#x130;" horiz-adv-x="528" 
d="M183 0h-54l251 1456h54zM406 1718c2 13.333 9.16504 25.667 21.498 37s25.5 17 39.5 17c15.333 0 27.833 -6 37.5 -18s13.167 -25.333 10.5 -40c-2 -13.333 -9.33301 -25.5 -22 -36.5s-26 -16.5 -40 -16.5c-15.333 0.666992 -27.666 6.66699 -36.999 18
s-12.666 24.333 -9.99902 39z" />
    <glyph glyph-name="dotlessi" unicode="&#x131;" horiz-adv-x="404" 
d="M126 0h-54l186 1082h54z" />
    <glyph glyph-name="IJ" unicode="&#x132;" horiz-adv-x="1629" 
d="M183 0h-54l251 1456h54zM1525 1456h54.0049l-175 -1014c-11.333 -62 -30.333 -120.833 -57 -176.5s-60.5 -104.667 -101.5 -147s-88.667 -76 -143 -101s-114.833 -37.5 -181.5 -37.5c-65.333 0 -121.5 10.333 -168.5 31s-84.667 49.667 -113 87
s-47.666 81.833 -57.999 133.5s-10.833 108.167 -1.5 169.5h54c-8.66699 -53.333 -9.33398 -102.5 -2.00098 -147.5s22.666 -83.833 45.999 -116.5s55.166 -58 95.499 -76s89.166 -27 146.499 -27c58 0 111.167 11.167 159.5 33.5s90.666 52.333 126.999 90
s66.666 81 90.999 130s41.5 100.5 51.5 154.5z" />
    <glyph glyph-name="ij" unicode="&#x133;" horiz-adv-x="861" 
d="M130 0h-54l186 1082h54zM294 1422c2 13.333 9.16504 25.667 21.498 37s25.5 17 39.5 17c15.333 0 27.833 -6 37.5 -18s13.167 -25.333 10.5 -40c-2 -13.333 -9.33301 -25.5 -22 -36.5s-26 -16.5 -40 -16.5c-15.333 0.666992 -27.666 6.66699 -36.999 18
s-12.666 24.333 -9.99902 39zM735.998 1082l-208.999 -1211c-8 -43.333 -20.833 -83.666 -38.5 -120.999s-40.167 -69.833 -67.5 -97.5s-59.5 -49.5 -96.5 -65.5s-78.5 -24 -124.5 -24c-17.333 0 -33.833 2 -49.5 6s-31.167 8.66699 -46.5 14l10 52
c14 -5.33301 28.167 -9.66602 42.5 -12.999s29.166 -5 44.499 -5c38 -0.666992 72.167 5.83301 102.5 19.5s56.833 32 79.5 55s41.5 50 56.5 81s25.833 63.833 32.5 98.5l210 1211h54zM718.999 1422c2 13.333 9.16504 25.667 21.498 37s25.5 17 39.5 17
c15.333 0 27.833 -6 37.5 -18s13.167 -25.333 10.5 -40c-2 -13.333 -9.33301 -25.5 -22 -36.5s-26 -16.5 -40 -16.5c-15.333 0.666992 -27.666 6.66699 -36.999 18s-12.666 24.333 -9.99902 39z" />
    <glyph glyph-name="Jcircumflex" unicode="&#x134;" horiz-adv-x="1101" 
d="M997 1456h54.0049l-175 -1014c-11.333 -62 -30.333 -120.833 -57 -176.5s-60.5 -104.667 -101.5 -147s-88.667 -76 -143 -101s-114.833 -37.5 -181.5 -37.5c-65.333 0 -121.5 10.333 -168.5 31s-84.667 49.667 -113 87s-47.666 81.833 -57.999 133.5
s-10.833 108.167 -1.5 169.5h54c-8.66699 -53.333 -9.33398 -102.5 -2.00098 -147.5s22.666 -83.833 45.999 -116.5s55.166 -58 95.499 -76s89.166 -27 146.499 -27c58 0 111.167 11.167 159.5 33.5s90.666 52.333 126.999 90s66.666 81 90.999 130s41.5 100.5 51.5 154.5z
M1290 1563l-1 -10l-66 -1l-146 196l-214 -194h-65l1 14l261 238h40z" />
    <glyph glyph-name="jcircumflex" unicode="&#x135;" horiz-adv-x="419" 
d="M317 1082l-202 -1171c-8 -44 -20.5 -87 -37.5 -129s-39.167 -79.167 -66.5 -111.5s-60 -58.333 -98 -78s-82 -29.5 -132 -29.5c-19.333 0 -38 2 -56 6s-36 9 -54 15l20 50c14.667 -5.33301 29.667 -9.5 45 -12.5s30.666 -4.5 45.999 -4.5c41.333 0 77.833 8.5 109.5 25.5
s58.834 39.333 81.501 67s41 59.167 55 94.5s24.667 71 32 107l203 1171h54zM561 1231l-1 -10l-66 -1l-146 196l-214 -194h-65l1 14l261 238h40z" />
    <glyph glyph-name="Kcommaaccent" unicode="&#x136;" horiz-adv-x="1271" 
d="M505 765l-267 -217l-94 -548h-54l251 1456h54l-145 -836l268 228l692 608l84 -1l-748 -656l541 -799h-66zM518 -65c-8.66699 -47.333 -23 -91 -43 -131s-47 -77 -81 -111l-34 34c26 31.333 47.667 63.5 65 96.5s30 69.5 38 109.5l14 79h53z" />
    <glyph glyph-name="kcommaaccent" unicode="&#x137;" horiz-adv-x="950" 
d="M376 584l-3 -2l-180 -137l-76 -445h-54l265 1536h54l-177 -1023l140 115l555 453h83l-567 -463l406 -618h-66zM416 -61c-8.66699 -47.333 -23 -91 -43 -131s-47 -77 -81 -111l-34 34c26 31.333 47.667 63.5 65 96.5s30 69.5 38 109.5l14 79h53z" />
    <glyph glyph-name="kgreenlandic" unicode="&#x138;" horiz-adv-x="1061" 
d="M373 529h-165l-91 -529h-55l186 1082h55l-86 -500h168l561 499l71 -1l-585 -530l460 -550h-67z" />
    <glyph glyph-name="Lacute" unicode="&#x139;" horiz-adv-x="1035" 
d="M154 54h723l-7 -54h-781l252 1456h55zM566 1771l68 -1l-229 -263l-62 1z" />
    <glyph glyph-name="lacute" unicode="&#x13a;" horiz-adv-x="419" 
d="M130 0h-54l264 1536h54zM570 1895l68 -1l-229 -263l-62 1z" />
    <glyph glyph-name="Lcommaaccent" unicode="&#x13b;" horiz-adv-x="1035" 
d="M154 54h723l-7 -54h-781l252 1456h55zM502 -165c-8.66699 -47.333 -23 -91 -43 -131s-47 -77 -81 -111l-34 34c26 31.333 47.667 63.5 65 96.5s30 69.5 38 109.5l14 79h53z" />
    <glyph glyph-name="lcommaaccent" unicode="&#x13c;" horiz-adv-x="419" 
d="M130 0h-54l264 1536h54zM105 -165c-8.66699 -47.333 -23 -91 -43 -131s-47 -77 -81 -111l-34 34c26 31.333 47.667 63.5 65 96.5s30 69.5 38 109.5l14 79h53z" />
    <glyph glyph-name="Lcaron" unicode="&#x13d;" horiz-adv-x="1035" 
d="M154 54h723l-7 -54h-781l252 1456h55zM806 1352c-10 -55.333 -27.332 -106.5 -51.999 -153.5s-57.334 -89.833 -98.001 -128.5l-34 34c32.667 36.667 60 74.667 82 114s37.667 83.333 47 132l18 105h54z" />
    <glyph glyph-name="lcaron" unicode="&#x13e;" horiz-adv-x="569" 
d="M130 0h-54l264 1536h54zM673 1433c-10 -55.333 -27.332 -106.5 -51.999 -153.5s-57.334 -89.833 -98.001 -128.5l-34 34c32.667 36.667 60 74.667 82 114s37.667 83.333 47 132l18 105h54z" />
    <glyph glyph-name="Ldot" unicode="&#x13f;" horiz-adv-x="1035" 
d="M154 54h723l-7 -54h-781l252 1456h55zM616 759c2 13.333 9.16504 25.667 21.498 37s25.5 17 39.5 17c15.333 0 27.833 -6 37.5 -18s13.167 -25.333 10.5 -40c-2 -13.333 -9.33301 -25.5 -22 -36.5s-26 -16.5 -40 -16.5c-15.333 0.666992 -27.666 6.66699 -36.999 18
s-12.666 24.333 -9.99902 39z" />
    <glyph glyph-name="ldot" unicode="&#x140;" horiz-adv-x="639" 
d="M130 0h-54l264 1536h54zM425 798c2 13.333 9.16504 25.667 21.498 37s25.5 17 39.5 17c15.333 0 27.833 -6 37.5 -18s13.167 -25.333 10.5 -40c-2 -13.333 -9.33301 -25.5 -22 -36.5s-26 -16.5 -40 -16.5c-15.333 0.666992 -27.666 6.66699 -36.999 18
s-12.666 24.333 -9.99902 39z" />
    <glyph glyph-name="Lslash" unicode="&#x141;" horiz-adv-x="1039" 
d="M273 790l359 111l-8 -56l-361 -111l-117 -680h723l-7 -54h-781l124 716l-186 -57l8 56l188 57l118 684h55z" />
    <glyph glyph-name="lslash" unicode="&#x142;" horiz-adv-x="500" 
d="M322 850l207 79l-8 -58l-209 -80l-136 -791h-54l132 769l-222 -84l8 58l224 85l122 708h54z" />
    <glyph glyph-name="Nacute" unicode="&#x143;" horiz-adv-x="1416" 
d="M1110 0h-52l-676 1366l-237 -1366h-55l250 1456h53l677 -1363l236 1363h54zM1056 1834l68 -1l-229 -263l-62 1z" />
    <glyph glyph-name="nacute" unicode="&#x144;" 
d="M256 830c22.667 36.667 48.6719 71.5029 78.0049 104.503s61.666 61.833 96.999 86.5s73.333 44.334 114 59.001s83.667 22 129 22c61.333 0 111.5 -10.833 150.5 -32.5s68.667 -51 89 -88s32.666 -79.833 36.999 -128.5s2.16602 -99.667 -6.50098 -153l-121 -700h-54
l121 700c7.33301 45.333 10.166 89.166 8.49902 131.499s-10.334 79.666 -26.001 111.999s-39.5 58.166 -71.5 77.499s-75 28.666 -129 27.999c-48 -0.666992 -95 -11 -141 -31s-88.5 -46.5 -127.5 -79.5s-73 -70.833 -102 -113.5s-50.5 -86.667 -64.5 -132l-120 -693h-54
l186 1082h54l-47 -252v0zM857.005 1513l68 -1l-229 -263l-62 1z" />
    <glyph glyph-name="Ncommaaccent" unicode="&#x145;" horiz-adv-x="1416" 
d="M1110 0h-52l-676 1366l-237 -1366h-55l250 1456h53l677 -1363l236 1363h54zM600 -165c-8.66699 -47.333 -23 -91 -43 -131s-47 -77 -81 -111l-34 34c26 31.333 47.667 63.5 65 96.5s30 69.5 38 109.5l14 79h53z" />
    <glyph glyph-name="ncommaaccent" unicode="&#x146;" 
d="M256 830c22.667 36.667 48.6719 71.5029 78.0049 104.503s61.666 61.833 96.999 86.5s73.333 44.334 114 59.001s83.667 22 129 22c61.333 0 111.5 -10.833 150.5 -32.5s68.667 -51 89 -88s32.666 -79.833 36.999 -128.5s2.16602 -99.667 -6.50098 -153l-121 -700h-54
l121 700c7.33301 45.333 10.166 89.166 8.49902 131.499s-10.334 79.666 -26.001 111.999s-39.5 58.166 -71.5 77.499s-75 28.666 -129 27.999c-48 -0.666992 -95 -11 -141 -31s-88.5 -46.5 -127.5 -79.5s-73 -70.833 -102 -113.5s-50.5 -86.667 -64.5 -132l-120 -693h-54
l186 1082h54l-47 -252v0zM457.005 -164.997c-8.66699 -47.333 -23 -91 -43 -131s-47 -77 -81 -111l-34 34c26 31.333 47.667 63.5 65 96.5s30 69.5 38 109.5l14 79h53z" />
    <glyph glyph-name="Ncaron" unicode="&#x147;" horiz-adv-x="1416" 
d="M1110 0h-52l-676 1366l-237 -1366h-55l250 1456h53l677 -1363l236 1363h54zM875 1614l227 215h54l-1 -13l-251 -249h-58l-175 252l1 11l55 1z" />
    <glyph glyph-name="ncaron" unicode="&#x148;" 
d="M256 830c22.667 36.667 48.6719 71.5029 78.0049 104.503s61.666 61.833 96.999 86.5s73.333 44.334 114 59.001s83.667 22 129 22c61.333 0 111.5 -10.833 150.5 -32.5s68.667 -51 89 -88s32.666 -79.833 36.999 -128.5s2.16602 -99.667 -6.50098 -153l-121 -700h-54
l121 700c7.33301 45.333 10.166 89.166 8.49902 131.499s-10.334 79.666 -26.001 111.999s-39.5 58.166 -71.5 77.499s-75 28.666 -129 27.999c-48 -0.666992 -95 -11 -141 -31s-88.5 -46.5 -127.5 -79.5s-73 -70.833 -102 -113.5s-50.5 -86.667 -64.5 -132l-120 -693h-54
l186 1082h54l-47 -252v0zM676.005 1292l227 215h54l-1 -13l-251 -249h-58l-175 252l1 11l55 1z" />
    <glyph glyph-name="napostrophe" unicode="&#x149;" 
d="M256 830c22.667 36.667 48.6719 71.5029 78.0049 104.503s61.666 61.833 96.999 86.5s73.333 44.334 114 59.001s83.667 22 129 22c61.333 0 111.5 -10.833 150.5 -32.5s68.667 -51 89 -88s32.666 -79.833 36.999 -128.5s2.16602 -99.667 -6.50098 -153l-121 -700h-54
l121 700c7.33301 45.333 10.166 89.166 8.49902 131.499s-10.334 79.666 -26.001 111.999s-39.5 58.166 -71.5 77.499s-75 28.666 -129 27.999c-48 -0.666992 -95 -11 -141 -31s-88.5 -46.5 -127.5 -79.5s-73 -70.833 -102 -113.5s-50.5 -86.667 -64.5 -132l-120 -693h-54
l186 1082h54l-47 -252v0zM270.005 1433c-10 -55.333 -27.332 -106.5 -51.999 -153.5s-57.334 -89.833 -98.001 -128.5l-34 34c32.667 36.667 60 74.667 82 114s37.667 83.333 47 132l18 105h54z" />
    <glyph glyph-name="Eng" unicode="&#x14a;" horiz-adv-x="1417" 
d="M1361 1456l-265.998 -1545c-8 -44 -20.5 -87 -37.5 -129s-39.167 -79.167 -66.5 -111.5s-60 -58.333 -98 -78s-82 -29.5 -132 -29.5c-19.333 0 -38 2 -56 6s-36 9 -54 15l19 50c15.333 -5.33301 30.5 -9.5 45.5 -12.5s30.5 -4.5 46.5 -4.5
c41.333 0 77.666 8.5 108.999 25.5s58.333 39.333 81 67s41.167 59.167 55.5 94.5s25.166 71 32.499 107l17 89l-676 1366l-237 -1366h-54l250 1456h52l679 -1365l236 1365h54z" />
    <glyph glyph-name="eng" unicode="&#x14b;" 
d="M296 1082l-36.9951 -223.998c46 74 102.667 133 170 177s145.666 66.333 234.999 67c46 0 85.333 -6.33301 118 -19s60 -30 82 -52s39 -48 51 -78s20.333 -62.167 25 -96.5s6.16699 -70.333 4.5 -108s-5.5 -74.834 -11.5 -111.501l-125 -726
c-8 -44.667 -20.5 -87.834 -37.5 -129.501s-39.167 -78.5 -66.5 -110.5s-60 -57.833 -98 -77.5s-82 -29.834 -132 -30.501c-22.667 0 -44.834 2 -66.501 6s-43.167 9 -64.5 15l20 50c18 -5.33301 36.167 -9.66602 54.5 -12.999s37.166 -5 56.499 -5
c41.333 0 77.833 8.66699 109.5 26s58.834 39.833 81.501 67.5s41.167 59.167 55.5 94.5s25.166 71 32.499 107l126 728c5.33301 30.667 9.16602 62 11.499 94s2.16602 63.167 -0.500977 93.5s-8.5 59 -17.5 86s-22.167 50.5 -39.5 70.5s-39.666 35.833 -66.999 47.5
s-60.666 17.5 -99.999 17.5c-53.333 0 -103.5 -9.83301 -150.5 -29.5s-89.333 -46.167 -127 -79.5s-69.834 -72.333 -96.501 -117s-46.334 -92 -59.001 -142l-118 -680h-54l187 1082h48z" />
    <glyph glyph-name="Omacron" unicode="&#x14c;" horiz-adv-x="1333" 
d="M1199 619c-9.33301 -54 -23.501 -107.333 -42.501 -160s-42.167 -102.667 -69.5 -150s-59 -91 -95 -131s-76 -74.667 -120 -104s-92 -52.333 -144 -69s-108 -25 -168 -25c-59.333 0 -112.333 8.66699 -159 26s-87.334 41 -122.001 71s-63.334 65.5 -86.001 106.5
s-40 85.167 -52 132.5s-18.667 96.833 -20 148.5s2.33398 103.167 11.001 154.5l37 218c10 54 24.333 107.333 43 160s41.667 102.667 69 150s58.833 91 94.5 131s75.667 74.667 120 104s92.5 52.333 144.5 69s108 25 168 25c59.333 0 112.333 -8.66699 159 -26
s87.334 -41 122.001 -71s63.334 -65.5 86.001 -106.5s40 -85.167 52 -132.5s18.5 -96.833 19.5 -148.5s-2.5 -103.167 -10.5 -154.5zM1183 839c8 46.667 11.8291 93.334 11.4961 140.001s-5.16602 91.5 -14.499 134.5s-23.666 83.333 -42.999 121
s-44.166 70.334 -74.499 98.001s-66.666 49.5 -108.999 65.5s-90.833 24 -145.5 24c-82 0 -155.833 -16.5 -221.5 -49.5s-123 -76.833 -172 -131.5s-89.5 -116.834 -121.5 -186.501s-54.667 -141.5 -68 -215.5l-38 -220c-8 -46.667 -11.833 -93.334 -11.5 -140.001
s5 -91.667 14 -135s23.167 -83.833 42.5 -121.5s44.166 -70.5 74.499 -98.5s66.333 -50 108 -66s90.167 -24 145.5 -24c54.667 0 105.834 7.66699 153.501 23s91.667 36.333 132 63s76.833 58.5 109.5 95.5s61.5 77.167 86.5 120.5s46 89 63 137s30.167 96.667 39.5 146z
M1152 1754h-610l7 53h609z" />
    <glyph glyph-name="omacron" unicode="&#x14d;" horiz-adv-x="1103" 
d="M80 562c12 68.667 33.333 135.334 64 200.001s69.167 122.167 115.5 172.5s100.5 90.833 162.5 121.5s130.667 46 206 46s139.166 -15.833 191.499 -47.5s93.5 -73 123.5 -124s49.667 -108.667 59 -173s8.66602 -129.5 -2.00098 -195.5l-7 -42
c-12 -68.667 -33.167 -135.334 -63.5 -200.001s-68.666 -122.167 -114.999 -172.5s-100.5 -90.833 -162.5 -121.5s-130.667 -46 -206 -46s-139 15.833 -191 47.5s-93.167 73 -123.5 124s-50.166 108.667 -59.499 173s-9 129.5 1 195.5zM127 520
c-6.66699 -38 -9.50293 -76.334 -8.50293 -115.001s5.83301 -76 14.5 -112s21.5 -69.833 38.5 -101.5s38.333 -59.167 64 -82.5s55.834 -41.666 90.501 -54.999s74.334 -20 119.001 -20c66.667 0 127.834 14 183.501 42s104.5 64.833 146.5 110.5s77 97.667 105 156
s47.667 117.5 59 177.5l7 42c6.66699 37.333 9.5 75.333 8.5 114s-5.83301 76 -14.5 112s-21.5 69.833 -38.5 101.5s-38.333 59.167 -64 82.5s-55.834 41.833 -90.501 55.5s-74 20.5 -118 20.5c-66.667 0 -127.667 -14 -183 -42s-104.166 -65 -146.499 -111
s-77.5 -98 -105.5 -156s-48 -117 -60 -177zM1005 1411h-610l7 53h609z" />
    </font>
</defs>
</svg>
