<?xml version="1.0" standalone="no"?>
<!DOCTYPE svg PUBLIC "-//W3C//DTD SVG 1.1//EN" "http://www.w3.org/Graphics/SVG/1.1/DTD/svg11.dtd" >
<svg version="1.1" xmlns="http://www.w3.org/2000/svg">
<metadata>
Created by FontForge 20120731 at Fri Aug  1 16:50:36 2014
 By Alfred Xing
Font data copyright Google 2014
</metadata>
<defs>
<font id="roboto" horiz-adv-x="1279" >
  <font-face 
    font-family="Roboto"
    font-weight="300"
    font-stretch="normal"
    units-per-em="2048"
    panose-1="0 0 0 0 0 0 0 0 0 0"
    ascent="1536"
    descent="-512"
    x-height="1082"
    cap-height="1456"
    bbox="-977 -554.995 2330 2163"
    underline-thickness="100"
    underline-position="-100"
    unicode-range="U+0002-FFFD"
  />
<missing-glyph horiz-adv-x="498" 
 />
    <glyph glyph-name="fi" unicode="fi" horiz-adv-x="1100" 
d="M228 0l-0.000976562 983.999h-180v98h180v114c0 58 8.33301 109.5 25 154.5s40.5 82.833 71.5 113.5s68.667 53.834 113 69.501s94.166 23.5 149.499 23.5c89.333 0 181.333 -19.667 276 -59l-20 -103c-35.333 15.333 -72.166 28 -110.499 38s-84.166 15 -137.499 15
c-82 0 -143.667 -21.5 -185 -64.5s-62 -105.5 -62 -187.5v-114h253v-98h-253v-984h-120zM927.999 -0.000976562h-120v1082h120v-1082z" />
    <glyph glyph-name=".notdef" horiz-adv-x="498" 
 />
    <glyph glyph-name="uni0009" horiz-adv-x="0" 
 />
    <glyph glyph-name="uni0009" horiz-adv-x="0" 
 />
    <glyph glyph-name="uni0002" horiz-adv-x="0" 
 />
    <glyph glyph-name="nonmarkingreturn" unicode="&#xd;" horiz-adv-x="498" 
 />
    <glyph glyph-name="space" unicode=" " horiz-adv-x="498" 
 />
    <glyph glyph-name="exclam" unicode="!" horiz-adv-x="462" 
d="M284 405h-111l-6 1051h124zM153 70c0 22.667 7.33301 41.834 22 57.501s34.667 23.5 60 23.5s45.5 -7.83301 60.5 -23.5s22.5 -34.834 22.5 -57.501c0 -22 -7.5 -40.5 -22.5 -55.5s-35.167 -22.5 -60.5 -22.5s-45.333 7.5 -60 22.5s-22 33.5 -22 55.5z" />
    <glyph glyph-name="quotedbl" unicode="&#x22;" horiz-adv-x="588" 
d="M243 1396l-20 -313h-80l3 307v146h97v-140zM479 1396l-20 -313h-81l4 311v142h97v-140z" />
    <glyph glyph-name="numbersign" unicode="#" horiz-adv-x="1270" 
d="M735 410h-313l-77 -410h-100l77 410h-255v93h272l83 441h-279v96h297l79 416h100l-79 -416h314l79 416h100l-79 -416h229v-96h-247l-83 -441h255v-93h-273l-77 -410h-100zM439 503h314l83 441h-314z" />
    <glyph glyph-name="dollar" unicode="$" horiz-adv-x="1135" 
d="M901 359c0 36.667 -5.50586 69.6611 -16.5059 98.9941s-29.167 56.5 -54.5 81.5s-58.833 48.333 -100.5 70s-93.167 43.167 -154.5 64.5c-63.333 20 -120.166 42 -170.499 66s-93.166 52.333 -128.499 85s-62.333 70.834 -81 114.501s-28 95.5 -28 155.5
c0 54.667 8.66699 104.334 26 149.001s42.166 83.334 74.499 116.001s71.333 58.834 117 78.501s97.167 31.834 154.5 36.501v202h102v-202c58 -5.33301 109.833 -19 155.5 -41s84.334 -51.833 116.001 -89.5s55.834 -83 72.501 -136s25 -113.167 25 -180.5h-119
c0 49.333 -6.5 94.833 -19.5 136.5s-32.333 77.834 -58 108.501s-57.5 54.5 -95.5 71.5s-81.667 25.5 -131 25.5c-51.333 0 -96 -7.16699 -134 -21.5s-69.333 -34 -94 -59s-43 -54 -55 -87s-18 -68.167 -18 -105.5c0 -36.667 4.66699 -69.5 14 -98.5s26.333 -56 51 -81
s58.334 -48.667 101.001 -71s97 -44.5 163 -66.5c62.667 -20.667 119.167 -43 169.5 -67s93 -52.167 128 -84.5s61.833 -70.166 80.5 -113.499s28 -94.666 28 -153.999c0 -56 -9 -106.333 -27 -151s-43.833 -83.167 -77.5 -115.5s-74.167 -58 -121.5 -77
s-100 -30.833 -158 -35.5v-190h-101v189c-53.333 3.33301 -105.333 13.5 -156 30.5s-95.667 42.667 -135 77s-70.833 78.5 -94.5 132.5s-35.5 119.667 -35.5 197h120c0 -64.667 10.5 -118.334 31.5 -161.001s48 -76.834 81 -102.501s70 -43.667 111 -54
s81.5 -15.5 121.5 -15.5c50.667 0 95.834 7.16699 135.501 21.5s73.334 33.833 101.001 58.5s48.667 53.667 63 87s21.5 69 21.5 107z" />
    <glyph glyph-name="percent" unicode="%" horiz-adv-x="1513" 
d="M109 1176c0 41.333 6.66699 80.166 20 116.499s32.333 68.166 57 95.499s54.667 49 90 65s74.666 24 117.999 24c44 0 83.5 -8 118.5 -24s64.833 -37.667 89.5 -65s43.667 -59.166 57 -95.499s20 -75.166 20 -116.499v-77c0 -40.667 -6.66699 -79.167 -20 -115.5
s-32.166 -68 -56.499 -95s-54 -48.5 -89 -64.5s-74.167 -24 -117.5 -24c-44 0 -83.667 8 -119 24s-65.5 37.5 -90.5 64.5s-44.167 58.667 -57.5 95s-20 74.833 -20 115.5v77zM206 1099c0 -26.667 3.83691 -52.832 11.5039 -78.499s19.334 -48.5 35.001 -68.5
s35.5 -36 59.5 -48s52 -18 84 -18c31.333 0 58.666 6 81.999 18s42.666 28 57.999 48s26.833 42.667 34.5 68s11.5 51.666 11.5 78.999v77c0 26.667 -3.83301 52.834 -11.5 78.501s-19.334 48.5 -35.001 68.5s-35.167 36.167 -58.5 48.5s-51 18.5 -83 18.5
c-31.333 0 -58.833 -6.16699 -82.5 -18.5s-43.334 -28.5 -59.001 -48.5s-27.334 -42.833 -35.001 -68.5s-11.5 -51.834 -11.5 -78.501v-77zM842.004 357.002c0 40.667 6.66699 79.334 20 116.001s32.333 68.5 57 95.5s54.5 48.5 89.5 64.5s74.167 24 117.5 24
c44 0 83.5 -8 118.5 -24s65 -37.5 90 -64.5s44.167 -58.833 57.5 -95.5s20 -75.334 20 -116.001v-78c0 -41.333 -6.66699 -80.166 -20 -116.499s-32.333 -68 -57 -95s-54.5 -48.5 -89.5 -64.5s-74.167 -24 -117.5 -24c-44 0 -83.5 8 -118.5 24s-65 37.5 -90 64.5
s-44.167 58.667 -57.5 95s-20 75.166 -20 116.499v78zM938.004 279.002c0 -27.333 3.83398 -53.833 11.501 -79.5s19.334 -48.5 35.001 -68.5s35.5 -36 59.5 -48s52 -18 84 -18s59.667 6 83 18s42.666 28 57.999 48s26.833 42.833 34.5 68.5s11.5 52.167 11.5 79.5v78
c0 28.667 -3.83301 55.834 -11.5 81.501s-19.334 48.167 -35.001 67.5s-35.334 34.833 -59.001 46.5s-51.5 17.5 -83.5 17.5c-31.333 0 -58.666 -5.83301 -81.999 -17.5s-42.833 -27.167 -58.5 -46.5s-27.5 -41.833 -35.5 -67.5s-12 -52.834 -12 -81.501v-78z
M434.005 121.002l-75 48l711 1138l75 -48z" />
    <glyph glyph-name="ampersand" unicode="&#x26;" horiz-adv-x="1260" 
d="M404 794c-26 31.333 -49.1699 61.6709 -69.5029 91.0039s-37.666 58.166 -51.999 86.499s-25.333 56.833 -33 85.5s-11.5 58 -11.5 88c0 50.667 7.83301 96.5 23.5 137.5s38.167 75.833 67.5 104.5s64.5 50.667 105.5 66s87.167 23 138.5 23
c48.667 0 92.334 -7.5 131.001 -22.5s71.334 -35.5 98.001 -61.5s47 -56.333 61 -91s21 -71.334 21 -110.001c0 -33.333 -5.66699 -64.5 -17 -93.5s-26.166 -56.167 -44.499 -81.5s-39.166 -48.833 -62.499 -70.5s-47 -41.834 -71 -60.501l-131 -101l400 -466
c28 45.333 50.167 95.833 66.5 151.5s24.5 116.167 24.5 181.5h111c0 -85.333 -10.833 -162.5 -32.5 -231.5s-53.5 -131.5 -95.5 -187.5l199 -232h-144l-126 146c-52.667 -52 -113.5 -92.667 -182.5 -122s-141.833 -44 -218.5 -44c-70 0 -133 9.33301 -189 28
s-103.5 45.167 -142.5 79.5s-68.833 75.5 -89.5 123.5s-31 101.333 -31 160c0 43.333 7.16699 83.666 21.5 120.999s34.166 72.5 59.499 105.5s55.166 64.833 89.499 95.5s71.5 61 111.5 91zM559.997 81.0049c60.667 0 119.499 12.833 176.499 38.5
s108.167 62.167 153.5 109.5l-407 472l-14 15l-46 -35c-43.333 -35.333 -77.833 -68.166 -103.5 -98.499s-45.334 -58.5 -59.001 -84.5s-22.667 -49.5 -27 -70.5s-6.5 -39.833 -6.5 -56.5c0 -38.667 6.66699 -75.5 20 -110.5s33.833 -65.833 61.5 -92.5
s62.334 -47.834 104.001 -63.501s90.834 -23.5 147.501 -23.5zM357.996 1149c0 -44 11.6699 -89.6689 35.0029 -137.002s56.666 -97.666 99.999 -150.999l131 100c42.667 30.667 77.667 64.334 105 101.001s41 79.667 41 129c0 24 -4.33301 47 -13 69
s-21.334 41.5 -38.001 58.5s-37.334 30.5 -62.001 40.5s-53 15 -85 15c-35.333 0 -66.333 -6 -93 -18s-49 -28.333 -67 -49s-31.5 -44.5 -40.5 -71.5s-13.5 -55.833 -13.5 -86.5z" />
    <glyph glyph-name="quotesingle" unicode="'" horiz-adv-x="348" 
d="M226 1395l-17 -305h-90l5 296v150h102v-141z" />
    <glyph glyph-name="parenleft" unicode="(" horiz-adv-x="653" 
d="M140 588c0 86.667 6.33301 169.834 19 249.501s30 154.667 52 225s47.833 135.833 77.5 196.5s61.167 115.167 94.5 163.5s67.833 90.166 103.5 125.499s70.834 63.333 105.501 84l29 -81c-44 -31.333 -87.667 -77 -131 -137s-82 -131.333 -116 -214
s-61.5 -175.5 -82.5 -278.5s-31.5 -213.167 -31.5 -330.5v-20c0 -117.333 10.5 -227.333 31.5 -330s48.5 -195.5 82.5 -278.5s72.667 -154.833 116 -215.5s87 -107.334 131 -140.001l-29 -77c-34.667 20.667 -69.834 48.334 -105.501 83.001s-70.167 75.834 -103.5 123.501
s-64.833 101.334 -94.5 161.001s-55.5 124.667 -77.5 195s-39.333 145.666 -52 225.999s-19 165.166 -19 254.499v15z" />
    <glyph glyph-name="parenright" unicode=")" horiz-adv-x="667" 
d="M514 573c0 -89.333 -6.33008 -174.163 -18.9971 -254.496s-30 -155.666 -52 -225.999s-47.833 -135.333 -77.5 -195s-61.167 -113.334 -94.5 -161.001s-68 -88.834 -104 -123.501s-71 -62.334 -105 -83.001l-29 77c44 31.333 87.667 77.166 131 137.499
s82 132.333 116 216s61.5 177 82.5 280s31.5 213.167 31.5 330.5v20c0 117.333 -10.833 227.666 -32.5 330.999s-49.834 196.833 -84.501 280.5s-73.334 155.667 -116.001 216s-85.334 105.833 -128.001 136.5l29 77c34 -20.667 69 -48.667 105 -84
s70.667 -77.166 104 -125.499s64.833 -102.833 94.5 -163.5s55.5 -126.167 77.5 -196.5s39.333 -145.333 52 -225s19 -162.834 19 -249.501v-15z" />
    <glyph glyph-name="asterisk" unicode="*" horiz-adv-x="869" 
d="M361 1000l-332 108l32 101l332 -123l-4 370h104l-8 -373l324 127l33 -101l-333 -115l223 -294l-85 -63l-214 305l-204 -303l-85 61z" />
    <glyph glyph-name="plus" unicode="+" horiz-adv-x="1156" 
d="M630 740h443v-112h-443v-482h-121v482h-434v112h434v466h121v-466z" />
    <glyph glyph-name="comma" unicode="," horiz-adv-x="392" 
d="M271 48c0 -30 -3.16699 -60.002 -9.5 -90.002s-15.5 -58.667 -27.5 -86s-26.667 -53.166 -44 -77.499s-37 -46.5 -59 -66.5l-71 52c30.667 41.333 54 82.833 70 124.5s24 88.834 24 141.501v142h117v-140z" />
    <glyph glyph-name="hyphen" unicode="-" horiz-adv-x="586" 
d="M528 592h-479v101h479v-101z" />
    <glyph glyph-name="period" unicode="." horiz-adv-x="489" 
d="M145 72c0 23.333 7.5 43.166 22.5 59.499s35.833 24.5 62.5 24.5s47.667 -8.16699 63 -24.5s23 -36.166 23 -59.499s-7.66699 -42.5 -23 -57.5s-36.333 -22.5 -63 -22.5s-47.5 7.5 -62.5 22.5s-22.5 34.167 -22.5 57.5z" />
    <glyph glyph-name="slash" unicode="/" horiz-adv-x="813" 
d="M139 -125h-109l608 1581h108z" />
    <glyph glyph-name="zero" unicode="0" horiz-adv-x="1135" 
d="M1015 607c0 -106.667 -9.99609 -199.334 -29.9961 -278.001s-49 -143.834 -87 -195.501s-84.667 -90.167 -140 -115.5s-118.333 -38 -189 -38c-70 0 -132.667 12.667 -188 38s-102.333 63.833 -141 115.5s-68.334 116.834 -89.001 195.501s-31 171.334 -31 278.001v246
c0 106.667 10.167 199.167 30.5 277.5s49.666 143 87.999 194s85.166 89 140.499 114s118 37.5 188 37.5s132.833 -12.5 188.5 -37.5s102.667 -63 141 -114s67.666 -115.667 87.999 -194s30.5 -170.833 30.5 -277.5v-246zM895.004 868c0 166.667 -27.167 292.667 -81.5 378
s-136.5 128 -246.5 128c-109.333 0 -191.333 -42.667 -246 -128s-82 -211.333 -82 -378v-274c0 -82 7 -154.833 21 -218.5s34.833 -117.334 62.5 -161.001s62.167 -76.834 103.5 -99.501s89 -34 143 -34c54.667 0 102.5 11.333 143.5 34s75 55.834 102 99.501
s47.167 97.334 60.5 161.001s20 136.5 20 218.5v274z" />
    <glyph glyph-name="one" unicode="1" horiz-adv-x="1135" 
d="M694 0h-120v1312l-396 -147v112l496 184h20v-1461z" />
    <glyph glyph-name="two" unicode="2" horiz-adv-x="1135" 
d="M1049 0l-912.002 -0.00195312v92l477 541c44.667 50.667 82.5 96.334 113.5 137.001s56 78.5 75 113.5s32.667 68 41 99s12.5 61.833 12.5 92.5c0 44 -6.5 84.167 -19.5 120.5s-32.333 67.833 -58 94.5s-57.5 47.334 -95.5 62.001s-81.667 22 -131 22
c-50.667 0 -96.167 -8.5 -136.5 -25.5s-74.666 -40.5 -102.999 -70.5s-50.166 -65.667 -65.499 -107s-23 -86.333 -23 -135h-119c0 60 10.167 116.667 30.5 170s49.833 100 88.5 140s85.5 71.667 140.5 95s117.5 35 187.5 35c65.333 0 124.333 -8.83301 177 -26.5
s97.334 -43.334 134.001 -77.001s64.834 -74.667 84.501 -123s29.5 -103.166 29.5 -164.499c0 -44 -8 -88.333 -24 -133s-37.333 -89 -64 -133s-57.334 -87.667 -92.001 -131s-70.334 -86 -107.001 -128l-406 -459h765v-101z" />
    <glyph glyph-name="three" unicode="3" horiz-adv-x="1135" 
d="M403 793l122.002 0.00488281c56 0 105.167 7.5 147.5 22.5s77.833 35.333 106.5 61s50.167 55.667 64.5 90s21.5 70.833 21.5 109.5c0 44 -6.16699 84.167 -18.5 120.5s-31 67.666 -56 93.999s-56.667 46.833 -95 61.5s-83.833 22 -136.5 22c-46 0 -88.333 -7 -127 -21
s-72.334 -34 -101.001 -60s-51 -57.5 -67 -94.5s-24 -78.5 -24 -124.5h-120c0 58.667 11.167 112.667 33.5 162s53 91.833 92 127.5s85.333 63.334 139 83.001s111.834 29.5 174.501 29.5c64 0 122.333 -9 175 -27s97.5 -44.167 134.5 -78.5s65.667 -76.5 86 -126.5
s30.5 -107.333 30.5 -172c0 -32.667 -5.33301 -65.167 -16 -97.5s-26.334 -62.833 -47.001 -91.5s-46.667 -54.834 -78 -78.501s-67.333 -43.167 -108 -58.5c48 -13.333 89.333 -31.5 124 -54.5s63.167 -49.833 85.5 -80.5s39 -64.334 50 -101.001s16.5 -75 16.5 -115
c0 -66 -11.333 -124.667 -34 -176s-54 -94.833 -94 -130.5s-87.333 -62.667 -142 -81s-114 -27.5 -178 -27.5c-59.333 0 -116.833 8.66699 -172.5 26s-105.334 43.166 -149.001 77.499s-78.667 77.5 -105 129.5s-39.5 112.667 -39.5 182h120c0 -46 8.5 -88.333 25.5 -127
s40.833 -71.834 71.5 -99.501s67.167 -49.167 109.5 -64.5s88.833 -23 139.5 -23c103.333 0 183.833 26.5 241.5 79.5s86.5 129.833 86.5 230.5c0 52.667 -8.83301 98 -26.5 136s-42.667 69.167 -75 93.5s-71 42.166 -116 53.499s-94.833 17 -149.5 17h-122v102z" />
    <glyph glyph-name="four" unicode="4" horiz-adv-x="1135" 
d="M872 469h227v-101h-227v-368h-120v368h-685v68l674 1020h131v-987zM214 469h538v832l-53 -92z" />
    <glyph glyph-name="five" unicode="5" horiz-adv-x="1135" 
d="M218 746l70.9961 710.002h728v-111h-625l-51 -492c12.667 8.66699 28.334 17.834 47.001 27.501s39.667 18.334 63 26.001s48.833 14 76.5 19s56.834 7.5 87.501 7.5c64.667 0 123.5 -10.833 176.5 -32.5s98.333 -52.834 136 -93.501s66.834 -89.834 87.501 -147.501
s31 -122.834 31 -195.501c0 -70 -8.5 -134.5 -25.5 -193.5s-43.333 -110 -79 -153s-80.834 -76.667 -135.501 -101s-119.667 -36.5 -195 -36.5c-58 0 -112.667 8.16699 -164 24.5s-96.666 41.166 -135.999 74.499s-71.5 75.333 -96.5 126s-40.5 110 -46.5 178h115
c11.333 -99.333 45 -174.5 101 -225.5s131.667 -76.5 227 -76.5c104 0 182.5 33 235.5 99s79.5 160 79.5 282c0 51.333 -7.33301 99 -22 143s-36 82.333 -64 115s-62.667 58.167 -104 76.5s-88.666 27.5 -141.999 27.5c-35.333 0 -66.333 -2.5 -93 -7.5s-51 -12 -73 -21
s-42.167 -20 -60.5 -33s-36.5 -27.5 -54.5 -43.5z" />
    <glyph glyph-name="six" unicode="6" horiz-adv-x="1135" 
d="M843 1467l-0.000976562 -105.001h-18c-87.333 0 -165.166 -13.333 -233.499 -40s-126.833 -65 -175.5 -115s-87 -111 -115 -183s-44.667 -153 -50 -243c40 56 91.167 99.167 153.5 129.5s131.833 45.5 208.5 45.5c70 0 131.167 -12.833 183.5 -38.5s96 -60.5 131 -104.5
s61.167 -95 78.5 -153s26 -119 26 -183c0 -70 -9.83301 -135.333 -29.5 -196s-48.167 -113.167 -85.5 -157.5s-82.666 -79.333 -135.999 -105s-113.333 -38.5 -180 -38.5c-73.333 0 -139.166 14 -197.499 42s-107.833 66.333 -148.5 115s-71.834 105.334 -93.501 170.001
s-32.5 133.667 -32.5 207v129c0 124 14.167 236.667 42.5 338s71.333 188 129 260s130.167 127.667 217.5 167s189.666 59 306.999 59h18zM593.999 852.999c-39.333 0 -77.6699 -6.16699 -115.003 -18.5s-71.333 -29.5 -102 -51.5s-57.167 -47.667 -79.5 -77
s-38.5 -61 -48.5 -95v-99c0 -67.333 9.16699 -127.5 27.5 -180.5s43.333 -98 75 -135s68.834 -65.333 111.501 -85s88.667 -29.5 138 -29.5c48.667 0 92.334 10.167 131.001 30.5s71.5 48.333 98.5 84s47.667 77.167 62 124.5s21.5 98 21.5 152
c0 51.333 -6.66699 100 -20 146s-33.166 86.333 -59.499 121s-59.5 62.167 -99.5 82.5s-87 30.5 -141 30.5z" />
    <glyph glyph-name="seven" unicode="7" horiz-adv-x="1135" 
d="M1034 1387l-622 -1387h-125l618 1354h-828v102h957v-69z" />
    <glyph glyph-name="eight" unicode="8" horiz-adv-x="1135" 
d="M995 1081c0 -38.667 -5.83398 -75.167 -17.501 -109.5s-28 -65.666 -49 -93.999s-46.167 -53.666 -75.5 -75.999s-62 -40.5 -98 -54.5c41.333 -14 79 -32.667 113 -56s63.333 -50.5 88 -81.5s43.667 -65.333 57 -103s20 -77.834 20 -120.501
c0 -66.667 -12 -125.334 -36 -176.001s-56.833 -93 -98.5 -127s-90.667 -59.667 -147 -77s-116.833 -26 -181.5 -26c-66 0 -127.167 8.66699 -183.5 26s-105.333 43 -147 77s-74.334 76.333 -98.001 127s-35.5 109.334 -35.5 176.001c0 42.667 6.5 82.834 19.5 120.501
s31.333 72 55 103s52.334 58.167 86.001 81.5s71.167 42 112.5 56c-36 14 -68.5 32.167 -97.5 54.5s-53.667 47.666 -74 75.999s-36.166 59.666 -47.499 93.999s-17 70.833 -17 109.5c0 63.333 10.667 119.5 32 168.5s51 90.333 89 124s82.833 59.167 134.5 76.5
s108.167 26 169.5 26c60 0 116 -8.66699 168 -26s97.167 -42.833 135.5 -76.5s68.5 -75 90.5 -124s33 -105.167 33 -168.5zM912.999 385c0 46.667 -8.83203 89.167 -26.499 127.5s-41.834 71 -72.501 98s-67.167 48 -109.5 63s-87.833 22.5 -136.5 22.5
c-50 0 -96 -7.5 -138 -22.5s-78.167 -36 -108.5 -63s-54 -59.667 -71 -98s-25.5 -80.833 -25.5 -127.5c0 -48.667 8.5 -91.834 25.5 -129.501s40.667 -69.5 71 -95.5s66.666 -45.667 108.999 -59s88.833 -20 139.5 -20c50 0 95.833 6.66699 137.5 20s77.834 33 108.501 59
s54.5 57.833 71.5 95.5s25.5 80.834 25.5 129.501zM875 1082c0 42.667 -7.83301 81.833 -23.5 117.5s-37.167 66.5 -64.5 92.5s-59.666 46.167 -96.999 60.5s-78 21.5 -122 21.5s-84.667 -6.83301 -122 -20.5s-69.5 -33 -96.5 -58s-48.167 -55.667 -63.5 -92
s-23 -76.833 -23 -121.5c0 -43.333 7.5 -82.5 22.5 -117.5s36 -64.833 63 -89.5s59.333 -43.667 97 -57s78.834 -20 123.501 -20c44 0 84.667 6.66699 122 20s69.666 32.333 96.999 57s48.666 54.5 63.999 89.5s23 74.167 23 117.5z" />
    <glyph glyph-name="nine" unicode="9" horiz-adv-x="1135" 
d="M327 93c102.667 0 189.169 14.6611 259.502 43.9941s127.166 70 170.499 122s74.833 113.333 94.5 184s30.5 147.667 32.5 231c-20 -29.333 -43 -56.166 -69 -80.499s-54.5 -45.166 -85.5 -62.499s-64.167 -30.666 -99.5 -39.999s-72.333 -14 -111 -14
c-68 0 -128 13.667 -180 41s-95.667 63.666 -131 108.999s-62 97.333 -80 156s-27 119.334 -27 182.001c0 70 10 135.833 30 197.5s48.833 115.834 86.5 162.501s83.667 83.5 138 110.5s116.166 40.5 185.499 40.5c78 0 146 -14.333 204 -43s106.167 -68.667 144.5 -120
s67 -112.666 86 -183.999s28.5 -149.333 28.5 -234v-116c0 -72 -4.5 -141.5 -13.5 -208.5s-24 -129.833 -45 -188.5s-48.5 -112.167 -82.5 -160.5s-76.167 -89.666 -126.5 -123.999s-109.333 -61 -177 -80s-145.167 -28.5 -232.5 -28.5h-26l1 104h25zM534.002 579.994
c45.333 0 87.002 7.33203 125.002 21.999s71.833 34 101.5 58s55 51.333 76 82s37.167 62.334 48.5 95.001v69c0 76.667 -8.33301 144.167 -25 202.5s-40.167 107 -70.5 146s-66.5 68.5 -108.5 88.5s-88 30 -138 30c-50.667 0 -96 -10.833 -136 -32.5s-74 -51 -102 -88
s-49.333 -79.833 -64 -128.5s-22 -100 -22 -154c0 -50 6.83301 -98.333 20.5 -145s33.667 -88.167 60 -124.5s59.166 -65.5 98.499 -87.5s84.666 -33 135.999 -33z" />
    <glyph glyph-name="colon" unicode=":" horiz-adv-x="430" 
d="M127 72c0 23.333 7.5 43.166 22.5 59.499s35.833 24.5 62.5 24.5s47.667 -8.16699 63 -24.5s23 -36.166 23 -59.499s-7.66699 -42.5 -23 -57.5s-36.333 -22.5 -63 -22.5s-47.5 7.5 -62.5 22.5s-22.5 34.167 -22.5 57.5zM129 995c0 23.333 7.5 43.166 22.5 59.499
s35.833 24.5 62.5 24.5s47.667 -8.16699 63 -24.5s23 -36.166 23 -59.499s-7.66699 -42.5 -23 -57.5s-36.333 -22.5 -63 -22.5s-47.5 7.5 -62.5 22.5s-22.5 34.167 -22.5 57.5z" />
    <glyph glyph-name="semicolon" unicode=";" horiz-adv-x="399" 
d="M118 995c0 23.333 7.5 43.166 22.5 59.499s35.833 24.5 62.5 24.5s47.667 -8.16699 63 -24.5s23 -36.166 23 -59.499s-7.66699 -42.5 -23 -57.5s-36.333 -22.5 -63 -22.5s-47.5 7.5 -62.5 22.5s-22.5 34.167 -22.5 57.5zM271 48c0 -30 -3.16699 -60.002 -9.5 -90.002
s-15.5 -58.667 -27.5 -86s-26.667 -53.166 -44 -77.499s-37 -46.5 -59 -66.5l-71 52c30.667 41.333 54 82.833 70 124.5s24 88.834 24 141.501v142h117v-140z" />
    <glyph glyph-name="less" unicode="&#x3c;" horiz-adv-x="1047" 
d="M208 655l696 -300v-126l-827 379v97l827 378v-126z" />
    <glyph glyph-name="equal" unicode="=" horiz-adv-x="1133" 
d="M983 829h-834v106h834v-106zM983 418h-834v106h834v-106z" />
    <glyph glyph-name="greater" unicode="&#x3e;" horiz-adv-x="1061" 
d="M835 659l-711 303v123l845 -378v-97l-845 -379v124z" />
    <glyph glyph-name="question" unicode="?" horiz-adv-x="930" 
d="M376 404c0.666992 42.667 3.83691 80.001 9.50391 112.001s14.834 61.667 27.501 89s29.5 53.666 50.5 78.999s46.833 53 77.5 83c26.667 26.667 51.167 51.5 73.5 74.5s41.666 47 57.999 72s29 52.5 38 82.5s13.5 65 13.5 105s-5.33301 76.333 -16 109
s-26.5 60.834 -47.5 84.501s-47.333 42 -79 55s-68.167 19.5 -109.5 19.5c-38.667 0 -74.334 -5.66699 -107.001 -17s-61 -28 -85 -50s-42.667 -48.667 -56 -80s-20.333 -67 -21 -107h-119c0.666992 56.667 11.167 107.5 31.5 152.5s48 82.833 83 113.5s76 54.167 123 70.5
s97.167 24.5 150.5 24.5c60 0 113 -9.16699 159 -27.5s84.667 -43.833 116 -76.5s55.166 -72 71.499 -118s24.5 -96.333 24.5 -151c0 -44.667 -5.66699 -85.834 -17 -123.501s-27.333 -73.334 -48 -107.001s-45.5 -66.167 -74.5 -97.5s-60.833 -63 -95.5 -95
c-21.333 -18 -39.333 -37.5 -54 -58.5s-26.334 -43.167 -35.001 -66.5s-14.834 -47.666 -18.501 -72.999s-5.5 -51.333 -5.5 -78h-119zM360.003 70.001c0 22.667 7.16699 41.834 21.5 57.501s34.5 23.5 60.5 23.5c25.333 0 45.5 -7.83301 60.5 -23.5
s22.5 -34.834 22.5 -57.501c0 -22 -7.5 -40.5 -22.5 -55.5s-35.167 -22.5 -60.5 -22.5c-26 0 -46.167 7.5 -60.5 22.5s-21.5 33.5 -21.5 55.5z" />
    <glyph glyph-name="at" unicode="@" horiz-adv-x="1870" 
d="M1751 513c-1.33301 -42 -5.83203 -84.3301 -13.499 -126.997s-18.334 -83.667 -32.001 -123s-31 -76.166 -52 -110.499s-45.667 -64.333 -74 -90s-60.666 -45.834 -96.999 -60.501s-76.833 -22 -121.5 -22c-64.667 0 -117.334 17 -158.001 51s-67.667 81.667 -81 143
c-36 -64.667 -79.5 -113.167 -130.5 -145.5s-106.833 -48.5 -167.5 -48.5c-47.333 0 -88.666 10.667 -123.999 32s-64 51.5 -86 90.5s-37.333 86 -46 141s-10 116.167 -4 183.5c8 86 24.833 163.667 50.5 233s58 128.166 97 176.499s83 85.666 132 111.999
s100.5 39.5 154.5 39.5c34 0 63.833 -2.83301 89.5 -8.5s49 -13.5 70 -23.5s40.333 -21.5 58 -34.5s35.167 -26.833 52.5 -41.5l-51 -570c-4.66699 -53.333 -2.16699 -96.166 7.5 -128.499s22.834 -57 39.501 -74s35 -28.167 55 -33.5s38 -8 54 -8
c44.667 0 84 11.5 118 34.5s63 54.5 87 94.5s42.667 87.167 56 141.5s21.333 113.166 24 176.499c6 126 -2.5 239.333 -25.5 340s-62.167 186 -117.5 256s-127.333 123.833 -216 161.5s-195 56.5 -319 56.5c-107.333 0 -206 -20.167 -296 -60.5s-168.333 -97.5 -235 -171.5
s-119.667 -163.167 -159 -267.5s-62 -220.833 -68 -349.5c-6 -124 4.66699 -237.5 32 -340.5s70 -191.667 128 -266s130.833 -132 218.5 -173s188.5 -61.5 302.5 -61.5c29.333 0 59.166 1.83301 89.499 5.5s59.833 9 88.5 16s56 15.333 82 25s49.333 20.5 70 32.5l31 -80
c-22 -14.667 -47.833 -27.5 -77.5 -38.5s-60.834 -20.333 -93.501 -28s-65.667 -13.334 -99 -17.001s-65 -5.5 -95 -5.5c-126.667 0 -239.5 21.5 -338.5 64.5s-182 104.833 -249 185.5s-116.833 178.5 -149.5 293.5s-46 244.167 -40 387.5c6 140 30.667 267.667 74 383
s102.5 214.5 177.5 297.5s164 147.333 267 193s217.5 68.5 343.5 68.5c132.667 0 248.5 -21.167 347.5 -63.5s180.5 -102.833 244.5 -181.5s110.667 -174 140 -286s41 -237.333 35 -376zM670.001 427.003c-5.33301 -51.333 -5.49902 -98.502 -0.499023 -141.502
s14.833 -80 29.5 -111s34.167 -55 58.5 -72s53.5 -25.5 87.5 -25.5c24 0 48.5 3.83301 73.5 11.5s49.5 21.334 73.5 41.001s46.667 45.834 68 78.501s40.666 74 57.999 124l45 516c-20 14.667 -43 26.5 -69 35.5s-55.667 13.5 -89 13.5c-40 0 -78.5 -9.5 -115.5 -28.5
s-70.333 -48 -100 -87s-55 -88 -76 -147s-35.5 -128.167 -43.5 -207.5z" />
    <glyph glyph-name="A" unicode="A" 
d="M970 408h-661l-150 -408h-129l551 1456h117l551 -1456h-128zM347 513h584l-292 793z" />
    <glyph glyph-name="B" unicode="B" horiz-adv-x="1255" 
d="M184 0l-0.00292969 1456h430c74 0 140.333 -7.5 199 -22.5s108.5 -38 149.5 -69s72.5 -70.5 94.5 -118.5s33 -105 33 -171c0 -37.333 -5.16699 -72.5 -15.5 -105.5s-25.5 -63.167 -45.5 -90.5s-44.167 -51.166 -72.5 -71.499s-60.5 -36.5 -96.5 -48.5
c42.667 -9.33301 81.334 -24.833 116.001 -46.5s64.334 -48 89.001 -79s43.667 -65.5 57 -103.5s20 -78 20 -120c0 -66.667 -11.167 -125.5 -33.5 -176.5s-54 -93.833 -95 -128.5s-90.167 -60.834 -147.5 -78.501s-120.666 -26.5 -189.999 -26.5h-492zM306.997 700
l0.00195312 -596.001h369c53.333 0 101.166 7 143.499 21s78.333 34 108 60s52.334 57.833 68.001 95.5s23.5 80.167 23.5 127.5c0 40.667 -6.66699 78.834 -20 114.501s-33.833 66.667 -61.5 93s-62.334 47 -104.001 62s-90.834 22.5 -147.501 22.5h-379zM306.999 802.999
l336 0.000976562c102.667 2 182.167 26.167 238.5 72.5s84.5 113.833 84.5 202.5c0 93.333 -29.167 162.166 -87.5 206.499s-146.5 66.5 -264.5 66.5h-307v-548z" />
    <glyph glyph-name="C" unicode="C" horiz-adv-x="1330" 
d="M1215 454c-8 -74 -25.334 -140.33 -52.001 -198.997s-62.5 -108.334 -107.5 -149.001s-99 -71.834 -162 -93.501s-134.5 -32.5 -214.5 -32.5c-82.667 0 -157.667 15.667 -225 47s-125 75.833 -173 133.5s-85 126.834 -111 207.501s-39 170 -39 268v183
c0 98 13 187.5 39 268.5s63.167 150.167 111.5 207.5s106.833 101.833 175.5 133.5s145.667 47.5 231 47.5c77.333 0 147 -10.667 209 -32s115.167 -52.5 159.5 -93.5s80 -91 107 -150s44.167 -125.833 51.5 -200.5h-124c-7.33301 58.667 -20.666 111.167 -39.999 157.5
s-45.5 85.166 -78.5 116.499s-73 55.333 -120 72s-101.833 25 -164.5 25c-68 0 -128.667 -13.167 -182 -39.5s-98.666 -63.5 -135.999 -111.5s-65.833 -105.833 -85.5 -173.5s-29.5 -142.834 -29.5 -225.501v-185c0 -80 9.33301 -153.833 28 -221.5s46 -126 82 -175
s80.333 -87.167 133 -114.5s113 -41 181 -41c128.667 0 225.667 30.833 291 92.5s105.666 154.167 120.999 277.5h124z" />
    <glyph glyph-name="D" unicode="D" horiz-adv-x="1341" 
d="M184 0l-0.00195312 1456h407c90.667 0 174.167 -15.667 250.5 -47s142 -76 197 -134s97.833 -127.667 128.5 -209s46 -172 46 -272v-133c0 -100 -15.333 -190.667 -46 -272s-73.667 -150.833 -129 -208.5s-121.666 -102.167 -198.999 -133.5s-162.666 -47 -255.999 -47
h-399zM306.998 1351l-0.000976562 -1247h276c78 0 148.333 13.5 211 40.5s116 65 160 114s77.833 107.667 101.5 176s35.5 143.833 35.5 226.5v136c0 84 -12 160.167 -36 228.5s-57.833 126.5 -101.5 174.5s-96.167 85.167 -157.5 111.5s-129.666 39.5 -204.999 39.5h-284z
" />
    <glyph glyph-name="E" unicode="E" horiz-adv-x="1165" 
d="M988 698h-681v-594h783v-104h-906v1456h901v-105h-778v-549h681v-104z" />
    <glyph glyph-name="F" unicode="F" horiz-adv-x="1152" 
d="M986 680h-679v-680h-123v1456h902v-105h-779v-566h679v-105z" />
    <glyph glyph-name="G" unicode="G" horiz-adv-x="1400" 
d="M1235 173c-12.667 -18 -31.8281 -38.3359 -57.4951 -61.0029s-59 -43.667 -100 -63s-90.333 -35.666 -148 -48.999s-124.5 -20 -200.5 -20c-86 0 -164.667 15.5 -236 46.5s-132.833 75.333 -184.5 133s-91.834 127.5 -120.501 209.5s-43 174 -43 276v177
c0 100 13 190.333 39 271s63.5 149.334 112.5 206.001s108.167 100.334 177.5 131.001s147.666 46 234.999 46c80.667 0 152 -10.833 214 -32.5s114.667 -51.834 158 -90.501s77.666 -84.167 102.999 -136.5s42 -109.166 50 -170.499h-123
c-7.33301 43.333 -20 84.666 -38 123.999s-43 73.833 -75 103.5s-71.5 53.334 -118.5 71.001s-103.5 26.5 -169.5 26.5c-71.333 0 -134.333 -13.167 -189 -39.5s-100.834 -63.333 -138.501 -111s-66.167 -105.167 -85.5 -172.5s-29 -142 -29 -224v-179
c0 -85.333 11 -162.5 33 -231.5s53.167 -127.833 93.5 -176.5s88.833 -86.334 145.5 -113.001s119.667 -40 189 -40c56 0 105.333 4.16699 148 12.5s79.667 18.833 111 31.5s57.166 26.334 77.499 41.001s35.833 28.667 46.5 42v376h-391v104h514v-518z" />
    <glyph glyph-name="H" unicode="H" horiz-adv-x="1449" 
d="M1263 0h-124v698h-832v-698h-123v1456h123v-654h832v654h124v-1456z" />
    <glyph glyph-name="I" unicode="I" horiz-adv-x="545" 
d="M334 0h-123v1456h123v-1456z" />
    <glyph glyph-name="J" unicode="J" horiz-adv-x="1127" 
d="M827 1456h123.999v-1023c0 -73.333 -11.167 -138.166 -33.5 -194.499s-53 -103.666 -92 -141.999s-85.5 -67.333 -139.5 -87s-112.333 -29.5 -175 -29.5c-66 0 -126 8.5 -180 25.5s-100.167 43 -138.5 78s-68.166 78.833 -89.499 131.5s-32 114.667 -32 186h123
c0 -105.333 27.667 -184.5 83 -237.5s133.333 -79.5 234 -79.5c44 0 85.167 7.5 123.5 22.5s71.833 37.167 100.5 66.5s51.167 65.666 67.5 108.999s24.5 93.666 24.5 150.999v1023z" />
    <glyph glyph-name="K" unicode="K" horiz-adv-x="1292" 
d="M512 723l-205 -202v-521h-123v1456h123v-785l198 207l548 578h155l-610 -648l657 -808h-150z" />
    <glyph glyph-name="L" unicode="L" horiz-adv-x="1079" 
d="M308 104h719v-104h-843v1456h124v-1352z" />
    <glyph glyph-name="M" unicode="M" horiz-adv-x="1772" 
d="M347 1456l537 -1285l539 1285h164v-1456h-123v636l10 648l-542 -1284h-95l-540 1279l10 -643v-636h-123v1456h163z" />
    <glyph glyph-name="N" unicode="N" horiz-adv-x="1454" 
d="M1268 0h-123l-837 1246v-1246h-124v1456h124l838 -1247v1247h122v-1456z" />
    <glyph glyph-name="O" unicode="O" horiz-adv-x="1386" 
d="M1260 649c0 -102 -13.333 -194.167 -40 -276.5s-64.5 -152.5 -113.5 -210.5s-108.5 -102.833 -178.5 -134.5s-148 -47.5 -234 -47.5c-85.333 0 -162.833 15.833 -232.5 47.5s-129.5 76.5 -179.5 134.5s-88.667 128.167 -116 210.5s-41 174.5 -41 276.5v156
c0 102 13.667 194.333 41 277s65.666 153.167 114.999 211.5s108.833 103.333 178.5 135s147.167 47.5 232.5 47.5c86 0 164 -15.833 234 -47.5s129.833 -76.667 179.5 -135s87.834 -128.833 114.501 -211.5s40 -175 40 -277v-156zM1137 807
c0 86 -10.0029 163.667 -30.0029 233s-49 128.166 -87 176.499s-84.667 85.666 -140 111.999s-118 39.5 -188 39.5c-68.667 0 -130.5 -13.167 -185.5 -39.5s-101.667 -63.666 -140 -111.999s-67.666 -107.166 -87.999 -176.499s-30.5 -147 -30.5 -233v-158
c0 -86.667 10.333 -164.667 31 -234s50.334 -128.333 89.001 -177s85.5 -86 140.5 -112s116.833 -39 185.5 -39c70.667 0 133.5 13 188.5 39s101.333 63.333 139 112s66.334 107.667 86.001 177s29.5 147.333 29.5 234v158z" />
    <glyph glyph-name="P" unicode="P" horiz-adv-x="1261" 
d="M307 593v-593.002h-123v1456h496c80 0 150.5 -10.667 211.5 -32s112.167 -51.166 153.5 -89.499s72.5 -84.166 93.5 -137.499s31.5 -112 31.5 -176c0 -67.333 -10.5 -127.5 -31.5 -180.5s-52 -97.833 -93 -134.5s-92.167 -64.667 -153.5 -84s-132 -29 -212 -29h-373z
M307 696.998l373 0.00195312c64.667 0 120.334 8.16699 167.001 24.5s84.667 39 114 68s51 63.167 65 102.5s21 81.666 21 126.999c0 44.667 -7 87.167 -21 127.5s-35.667 75.666 -65 105.999s-67.333 54.333 -114 72s-102.334 26.5 -167.001 26.5h-373v-654z" />
    <glyph glyph-name="Q" unicode="Q" horiz-adv-x="1386" 
d="M1256 649c0 -70 -6.33203 -135.5 -18.999 -196.5s-31.167 -116.833 -55.5 -167.5s-54 -95.5 -89 -134.5s-74.833 -71.5 -119.5 -97.5l265 -231l-85 -76l-297 257c-26 -7.33301 -52.833 -13 -80.5 -17s-56.5 -6 -86.5 -6c-84.667 0 -161.834 15.833 -231.501 47.5
s-129.5 76.5 -179.5 134.5s-88.667 128.167 -116 210.5s-41 174.5 -41 276.5v156c0 102 13.667 194.333 41 277s65.666 153.167 114.999 211.5s108.833 103.333 178.5 135s146.834 47.5 231.501 47.5c86.667 0 165 -15.833 235 -47.5s129.667 -76.667 179 -135
s87.5 -128.833 114.5 -211.5s40.5 -175 40.5 -277v-156zM1133 807c0 86 -10 163.667 -30 233s-49 128.166 -87 176.499s-84.667 85.666 -140 111.999s-118.333 39.5 -189 39.5c-68.667 0 -130.334 -13.167 -185.001 -39.5s-101.167 -63.666 -139.5 -111.999
s-67.666 -107.166 -87.999 -176.499s-30.5 -147 -30.5 -233v-158c0 -86.667 10.333 -164.667 31 -234s50.167 -128.333 88.5 -177s85 -86 140 -112s116.833 -39 185.5 -39c70.667 0 133.5 13 188.5 39s101.5 63.333 139.5 112s66.833 107.667 86.5 177
s29.5 147.333 29.5 234v158z" />
    <glyph glyph-name="R" unicode="R" horiz-adv-x="1300" 
d="M728 606l-422.999 -0.00195312v-606h-124v1456h473c76 0 144.5 -9.33301 205.5 -28s113 -46.167 156 -82.5s76 -81.166 99 -134.499s34.5 -114.666 34.5 -183.999c0 -48 -7.33301 -93.167 -22 -135.5s-35.334 -80.5 -62.001 -114.5s-58.5 -63.333 -95.5 -88
s-77.833 -43.667 -122.5 -57l364 -619v-13h-131zM305.001 710.998l377 0.000976562c56.667 0 106.5 8.66699 149.5 26s78.833 40.5 107.5 69.5s50.167 62.667 64.5 101s21.5 78.166 21.5 119.499c0 50 -8 95 -24 135s-39.833 74 -71.5 102s-70.5 49.5 -116.5 64.5
s-99 22.5 -159 22.5h-349v-640z" />
    <glyph glyph-name="S" unicode="S" horiz-adv-x="1213" 
d="M1008 358c0 40 -6.5 75.502 -19.5 106.502s-35 59.333 -66 85s-71.833 49.167 -122.5 70.5s-114 42.666 -190 63.999c-73.333 20.667 -139.333 43.167 -198 67.5s-108.5 52.833 -149.5 85.5s-72.667 70.334 -95 113.001s-33.5 92.667 -33.5 150c0 56 12 107 36 153
s57.667 85.5 101 118.5s95 58.667 155 77s125.667 27.5 197 27.5c76.667 0 145.834 -11.333 207.501 -34s114.167 -53.667 157.5 -93s76.666 -85.333 99.999 -138s35 -109.334 35 -170.001h-124c0 47.333 -8.33301 91.166 -25 131.499s-41 75.166 -73 104.499
s-71.333 52.333 -118 69s-100 25 -160 25s-112.833 -7.16699 -158.5 -21.5s-83.667 -33.666 -114 -57.999s-53.333 -52.833 -69 -85.5s-23.5 -67.334 -23.5 -104.001c0 -34.667 6.5 -66.667 19.5 -96s34.833 -56.5 65.5 -81.5s71 -48.333 121 -70s111.667 -42.167 185 -61.5
c76.667 -21.333 145 -44.666 205 -69.999s110.667 -55.166 152 -89.499s72.666 -73.833 93.999 -118.5s32 -96.334 32 -155.001c0 -59.333 -12.5 -112.5 -37.5 -159.5s-59.667 -86.833 -104 -119.5s-97.166 -57.667 -158.499 -75s-128 -26 -200 -26
c-43.333 0 -86.833 3.66699 -130.5 11s-85.667 18.5 -126 33.5s-78 34.167 -113 57.5s-65.333 51.166 -91 83.499s-46 69.333 -61 111s-22.5 88.167 -22.5 139.5h123c0 -61.333 12.667 -113.166 38 -155.499s58 -76.5 98 -102.5s85 -44.833 135 -56.5s100 -17.5 150 -17.5
c56.667 0 108.167 6.5 154.5 19.5s86 31.5 119 55.5s58.333 52.833 76 86.5s26.5 71.167 26.5 112.5z" />
    <glyph glyph-name="T" unicode="T" horiz-adv-x="1223" 
d="M1172 1351h-499v-1351h-123v1351h-498v105h1120v-105z" />
    <glyph glyph-name="U" unicode="U" horiz-adv-x="1346" 
d="M1187 1456l-0.00292969 -987c0 -82 -13.5 -153.5 -40.5 -214.5s-63.667 -111.833 -110 -152.5s-100.666 -71.167 -162.999 -91.5s-128.833 -30.5 -199.5 -30.5c-72.667 0 -140.167 10.167 -202.5 30.5s-116.5 50.833 -162.5 91.5s-82 91.5 -108 152.5
s-39 132.5 -39 214.5v987h122v-987c0 -64 9.66699 -120 29 -168s46.333 -88 81 -120s75.834 -56.167 123.501 -72.5s99.834 -24.5 156.501 -24.5s108.834 8.16699 156.501 24.5s88.667 40.5 123 72.5s61.166 72 80.499 120s29 104 29 168v987h124z" />
    <glyph glyph-name="V" unicode="V" horiz-adv-x="1263" 
d="M623 180l8 -31l9 31l458 1276h135l-542 -1456h-118l-542 1456h134z" />
    <glyph glyph-name="W" unicode="W" horiz-adv-x="1836" 
d="M453 393l45 -226l55 216l316 1073h111l312 -1073l54 -218l48 228l263 1063h126l-373 -1456h-118l-330 1139l-37 144l-36 -144l-338 -1139h-118l-372 1456h126z" />
    <glyph glyph-name="X" unicode="X" horiz-adv-x="1253" 
d="M627 840l410 616h147l-482 -718l497 -738h-148l-424 636l-426 -636h-146l498 738l-483 718h147z" />
    <glyph glyph-name="Y" unicode="Y" horiz-adv-x="1226" 
d="M611 662l445 794h142l-526 -908v-548h-123v548l-525 908h146z" />
    <glyph glyph-name="Z" unicode="Z" horiz-adv-x="1225" 
d="M239 104h899v-104h-1048v93l864 1258h-838v105h990v-88z" />
    <glyph glyph-name="bracketleft" unicode="[" horiz-adv-x="491" 
d="M493 1562h-210v-1772h210v-102h-330v1976h330v-102z" />
    <glyph glyph-name="backslash" unicode="\" horiz-adv-x="807" 
d="M48 1456h117l608 -1581h-117z" />
    <glyph glyph-name="bracketright" unicode="]" horiz-adv-x="491" 
d="M0 1664h331v-1976h-331v102h211v1772h-211v102z" />
    <glyph glyph-name="asciicircum" unicode="^" horiz-adv-x="852" 
d="M421 1298l-228 -569h-116l299 727h90l298 -727h-116z" />
    <glyph glyph-name="underscore" unicode="_" horiz-adv-x="884" 
d="M882 -101h-881v101h881v-101z" />
    <glyph glyph-name="grave" unicode="`" horiz-adv-x="585" 
d="M438 1245h-109l-226 279h144z" />
    <glyph glyph-name="a" unicode="a" horiz-adv-x="1097" 
d="M839 0c-6.66699 18.667 -11.8301 41.499 -15.4971 68.499s-6.16699 54.5 -7.5 82.5c-18 -23.333 -39.333 -45.333 -64 -66s-52.334 -38.667 -83.001 -54s-64.334 -27.666 -101.001 -36.999s-76.334 -14 -119.001 -14c-52.667 0 -100.5 7.66699 -143.5 23
s-79.667 36.833 -110 64.5s-53.833 60.167 -70.5 97.5s-25 78 -25 122c0 52.667 11.333 100.167 34 142.5s55.334 78.333 98.001 108s94.5 52.334 155.5 68.001s129.5 23.5 205.5 23.5h222v123c0 77.333 -23.833 138.166 -71.5 182.499s-117.167 66.5 -208.5 66.5
c-42 0 -80.667 -5.66699 -116 -17s-65.833 -27 -91.5 -47s-45.667 -43.167 -60 -69.5s-21.5 -54.5 -21.5 -84.5l-120 1c0 40.667 10 80 30 118s48.167 71.833 84.5 101.5s80 53.5 131 71.5s107.5 27 169.5 27c57.333 0 110.166 -7.33301 158.499 -22
s89.833 -36.667 124.5 -66s61.667 -66 81 -110s29 -95.333 29 -154v-524c0 -18.667 0.666992 -38 2 -58s3.5 -39.333 6.5 -58s6.5 -36.5 10.5 -53.5s8.66699 -31.833 14 -44.5v-12h-128zM463.004 85.999c43.333 0 83.498 5.50098 120.498 16.501s70.5 26.167 100.5 45.5
s56 41.833 78 67.5s39.667 53.5 53 83.5v238h-205c-61.333 0 -116.166 -5.5 -164.499 -16.5s-89.166 -26.833 -122.499 -47.5s-58.833 -45.834 -76.5 -75.501s-26.5 -63.167 -26.5 -100.5c0 -29.333 5.66699 -56.833 17 -82.5s27.5 -48 48.5 -67s46.5 -34 76.5 -45
s63.667 -16.5 101 -16.5z" />
    <glyph glyph-name="b" unicode="b" horiz-adv-x="1135" 
d="M1027 530c0 -81.333 -9.1709 -155.668 -27.5039 -223.001s-45.166 -125.166 -80.499 -173.499s-78.666 -86 -129.999 -113s-109.666 -40.5 -174.999 -40.5c-79.333 0 -147.166 15 -203.499 45s-102.5 71 -138.5 123l-5 -148h-112v1536h119v-611
c36 56 81.667 99.5 137 130.5s122.333 46.5 201 46.5c66 0 124.667 -13 176 -39s94.833 -63 130.5 -111s62.667 -105.833 81 -173.5s27.5 -143.5 27.5 -227.5v-21zM906.996 550.998c0 62.667 -6.00098 121.335 -18.001 176.002s-30.833 102 -56.5 142s-58.5 71.5 -98.5 94.5
s-88 34.5 -144 34.5c-45.333 0 -85.333 -6.16699 -120 -18.5s-64.667 -28.833 -90 -49.5s-46.666 -44.334 -63.999 -71.001s-31.333 -54.334 -42 -83.001v-488c12.667 -28.667 28.5 -55.5 47.5 -80.5s41.5 -46.667 67.5 -65s55.833 -32.666 89.5 -42.999
s71.5 -15.5 113.5 -15.5c54 0 100.833 11.333 140.5 34s72.5 54 98.5 94s45.167 87.167 57.5 141.5s18.5 113.166 18.5 176.499v21z" />
    <glyph glyph-name="c" unicode="c" horiz-adv-x="1055" 
d="M556 81c38 0 74.4971 5.49902 109.497 16.499s66.167 27.167 93.5 48.5s49.833 47.666 67.5 78.999s27.834 67.666 30.501 108.999h115c-2.66699 -51.333 -15.5 -98.666 -38.5 -141.999s-53.333 -80.666 -91 -111.999s-81.167 -55.833 -130.5 -73.5
s-101.333 -26.5 -156 -26.5c-76 0 -142.667 13.833 -200 41.5s-105.5 65.834 -144.5 114.501s-68.333 105.834 -88 171.501s-29.5 136.5 -29.5 212.5v42c0 76 9.83301 146.833 29.5 212.5s48.834 122.667 87.501 171s86.834 86.5 144.501 114.5s124.167 42 199.5 42
c58 0 111.833 -9 161.5 -27s93 -43.667 130 -77s66.5 -73.833 88.5 -121.5s34.333 -100.834 37 -159.501h-115c-2.66699 44 -12.167 83.333 -28.5 118s-38 64.334 -65 89.001s-58.333 43.5 -94 56.5s-73.834 19.5 -114.501 19.5c-62 0 -114.5 -12 -157.5 -36
s-78.167 -56.333 -105.5 -97s-47.166 -87.334 -59.499 -140.001s-18.5 -107.667 -18.5 -165v-42c0 -58 6.16699 -113.5 18.5 -166.5s32 -99.667 59 -140s62.333 -72.5 106 -96.5s96.5 -36 158.5 -36z" />
    <glyph glyph-name="d" unicode="d" horiz-adv-x="1138" 
d="M108 551c0 84 9.66602 159.835 28.999 227.502s47 125.5 83 173.5s79.833 85 131.5 111s109.834 39 174.501 39c76.667 0 142.5 -15.333 197.5 -46s100.5 -73 136.5 -127v607h119v-1536h-112l-5 144c-36 -51.333 -81.833 -91.5 -137.5 -120.5s-122.5 -43.5 -200.5 -43.5
c-64 0 -121.667 13.5 -173 40.5s-95 64.667 -131 113s-63.667 106.166 -83 173.499s-29 141.666 -29 222.999v21zM228.999 530.002c0 -63.333 6.33008 -122.166 18.9971 -176.499s32 -101.5 58 -141.5s58.833 -71.333 98.5 -94s86.834 -34 141.501 -34
c40.667 0 77.5 4.83301 110.5 14.5s62.333 23.167 88 40.5s48 38 67 62s35.167 50 48.5 78v508c-12 27.333 -26.667 53.666 -44 78.999s-38.666 47.833 -63.999 67.5s-54.666 35.334 -87.999 47.001s-72 17.5 -116 17.5c-55.333 0 -103 -11.5 -143 -34.5
s-73 -54.5 -99 -94.5s-45.333 -87.333 -58 -142s-19 -113.334 -19 -176.001v-21z" />
    <glyph glyph-name="e" unicode="e" horiz-adv-x="1058" 
d="M575 -20c-70.667 0 -135.667 13.165 -195 39.498s-110.5 63 -153.5 110s-76.5 102.833 -100.5 167.5s-36 135.667 -36 213v43c0 83.333 12.5 158.833 37.5 226.5s58.833 125.334 101.5 173.001s91.834 84.5 147.501 110.5s114.5 39 176.5 39
c68.667 0 129.667 -12.333 183 -37s98.166 -59 134.499 -103s63.833 -96.333 82.5 -157s28 -127 28 -199v-73h-772v-23c0 -59.333 9 -115.166 27 -167.499s43.333 -97.833 76 -136.5s71.667 -69.167 117 -91.5s95.666 -33.5 150.999 -33.5c64 0 120.5 11.667 169.5 35
s93.5 60.666 133.5 111.999l75 -57c-18 -26 -38.833 -50.667 -62.5 -74s-51.167 -43.666 -82.5 -60.999s-66.666 -31 -105.999 -41s-83.333 -15 -132 -15zM553 999.998c-45.333 0 -87.333 -8.66699 -126 -26s-72.834 -42 -102.501 -74s-54 -70.5 -73 -115.5
s-31.833 -94.833 -38.5 -149.5h649v13c-1.33301 45.333 -8.66602 89.166 -21.999 131.499s-32.833 79.833 -58.5 112.5s-57.5 58.834 -95.5 78.501s-82.333 29.5 -133 29.5z" />
    <glyph glyph-name="f" unicode="f" horiz-adv-x="678" 
d="M242 0l-0.00292969 983.998h-179v98h179v134c0 54.667 7.33301 103.334 22 146.001s35.834 78.334 63.501 107.001s61.167 50.5 100.5 65.5s84 22.5 134 22.5c20.667 0 41.834 -1.33301 63.501 -4s42.834 -7 63.501 -13l-9 -100c-16.667 4 -33.5 7 -50.5 9
s-36.5 3 -58.5 3c-66 0 -117.333 -20.5 -154 -61.5s-55 -99.167 -55 -174.5v-134h258v-98h-258v-984h-120z" />
    <glyph glyph-name="g" unicode="g" horiz-adv-x="1136" 
d="M108 551c0 84 9.50293 159.836 28.5029 227.503s46.5 125.5 82.5 173.5s79.833 85 131.5 111s110.167 39 175.5 39c77.333 0 143.666 -15.5 198.999 -46.5s101 -74.167 137 -129.5l6 156h112v-1063c0 -70 -10.333 -132.833 -31 -188.5s-49.834 -102.834 -87.501 -141.501
s-83.167 -68.334 -136.5 -89.001s-113 -31 -179 -31c-34 0 -68.667 3.83301 -104 11.5s-69.5 19.167 -102.5 34.5s-64.167 34.5 -93.5 57.5s-55 50.167 -77 81.5l67 72c44 -54 90.667 -93.5 140 -118.5s103.333 -37.5 162 -37.5c51.333 0 96.833 7.83301 136.5 23.5
s73.167 38.334 100.5 68.001s48.166 65.667 62.499 108s21.5 90.5 21.5 144.5v126c-36 -50 -81.667 -89.167 -137 -117.5s-121.333 -42.5 -198 -42.5c-64.667 0 -122.667 13.5 -174 40.5s-95 64.667 -131 113s-63.5 106.166 -82.5 173.499s-28.5 141.666 -28.5 222.999v21z
M229.003 530.003c0 -63.333 6.33203 -122.168 18.999 -176.501s32 -101.5 58 -141.5s58.833 -71.333 98.5 -94s86.834 -34 141.501 -34c41.333 0 78.5 5 111.5 15s62.167 23.833 87.5 41.5s47.333 38.5 66 62.5s34.667 50.333 48 79v503
c-11.333 28 -25.833 54.833 -43.5 80.5s-39 48.334 -64 68.001s-54.167 35.334 -87.5 47.001s-72 17.5 -116 17.5c-55.333 0 -103 -11.5 -143 -34.5s-73 -54.5 -99 -94.5s-45.333 -87.333 -58 -142s-19 -113.334 -19 -176.001v-21z" />
    <glyph glyph-name="h" unicode="h" horiz-adv-x="1124" 
d="M275 899c18.667 30.667 40.332 58.4971 64.999 83.4971s51.834 46.333 81.501 64s61.667 31.334 96 41.001s70.833 14.5 109.5 14.5c54 0 102.333 -7.33301 145 -22s78.834 -38 108.501 -70s52.334 -73.167 68.001 -123.5s23.5 -111.166 23.5 -182.499v-704h-119v705
c0 56 -6 102.667 -18 140s-29 67.333 -51 90s-48.833 38.834 -80.5 48.501s-66.834 14.5 -105.501 14.5c-42.667 0 -81.334 -7.16699 -116.001 -21.5s-65.334 -33.5 -92.001 -57.5s-49.667 -51.5 -69 -82.5s-34.666 -62.833 -45.999 -95.5v-741h-119v1536h119v-637z" />
    <glyph glyph-name="i" unicode="i" horiz-adv-x="459" 
d="M290 0h-120v1082h120v-1082zM149 1395c0 22.667 7.33301 41.834 22 57.501s34.667 23.5 60 23.5s45.5 -7.83301 60.5 -23.5s22.5 -34.834 22.5 -57.501s-7.5 -41.667 -22.5 -57s-35.167 -23 -60.5 -23s-45.333 7.66699 -60 23s-22 34.333 -22 57z" />
    <glyph glyph-name="j" unicode="j" horiz-adv-x="467" 
d="M285 1082l0.000976562 -1211c0 -100 -24 -176.333 -72 -229s-118.667 -79 -212 -79c-16.667 0 -34.334 1.66699 -53.001 5s-36 8 -52 14l2 99c11.333 -3.33301 25.333 -6.33301 42 -9s32.667 -4 48 -4c57.333 0 101.333 16.667 132 50s46 84.333 46 153v1211h119z
M145.001 1395c0 22.667 7.16699 41.834 21.5 57.501s34.166 23.5 59.499 23.5c26 0 46.333 -7.83301 61 -23.5s22 -34.834 22 -57.501s-7.33301 -41.667 -22 -57s-35 -23 -61 -23c-25.333 0 -45.166 7.66699 -59.499 23s-21.5 34.333 -21.5 57z" />
    <glyph glyph-name="k" unicode="k" horiz-adv-x="1003" 
d="M413 545l-137 -132v-413h-120v1536h120v-983l113 122l414 407h151l-459 -456l499 -626h-143z" />
    <glyph glyph-name="l" unicode="l" horiz-adv-x="459" 
d="M290 0h-120v1536h120v-1536z" />
    <glyph glyph-name="m" unicode="m" horiz-adv-x="1815" 
d="M265 1082l4.00195 -176.001c18 29.333 38.833 56.166 62.5 80.499s50.167 45 79.5 62s61.333 30.167 96 39.5s72 14 112 14c79.333 0 147.333 -16.667 204 -50s97 -86.666 121 -159.999c17.333 30 38.166 57.833 62.499 83.5s52 47.834 83 66.501
s65.167 33.334 102.5 44.001s77.666 16 120.999 16c56 0 106 -7.5 150 -22.5s81.167 -38.667 111.5 -71s53.5 -73.5 69.5 -123.5s24 -110 24 -180v-705h-120v706c0 57.333 -6.33301 104.833 -19 142.5s-30.667 67.667 -54 90s-51.166 37.833 -83.499 46.5
s-67.833 13 -106.5 13c-50.667 -0.666992 -95 -9.83398 -133 -27.501s-70.167 -40 -96.5 -67s-46.833 -57.167 -61.5 -90.5s-23.334 -65.666 -26.001 -96.999v-716h-120v715c0 54 -6.33301 99 -19 135s-30.667 65 -54 87s-51.166 37.667 -83.499 47s-68.166 14 -107.499 14
c-45.333 0 -85.333 -7.16699 -120 -21.5s-64.834 -33.5 -90.501 -57.5s-46.834 -51.333 -63.501 -82s-30 -62.334 -40 -95.001v-742h-120v1082h115z" />
    <glyph glyph-name="n" unicode="n" horiz-adv-x="1125" 
d="M270 1082l3.99902 -185.002c18.667 30.667 40.167 58.667 64.5 84s51.5 47 81.5 65s62.333 31.833 97 41.5s71.334 14.5 110.001 14.5c54 0 102.333 -7.33301 145 -22s78.834 -38 108.501 -70s52.334 -73.167 68.001 -123.5s23.5 -111.166 23.5 -182.499v-704h-119v705
c0 56 -6 102.667 -18 140s-29 67.333 -51 90s-48.833 38.834 -80.5 48.501s-66.834 14.5 -105.501 14.5c-42.667 0 -81.334 -7.16699 -116.001 -21.5s-65.334 -33.5 -92.001 -57.5s-49.667 -51.5 -69 -82.5s-34.666 -62.833 -45.999 -95.5v-741h-119v1082h114z" />
    <glyph glyph-name="o" unicode="o" horiz-adv-x="1147" 
d="M90 557c0 78.667 11.4971 151.334 34.4971 218.001s55.5 124.167 97.5 172.5s92.667 86.166 152 113.499s125.333 41 198 41c74 0 140.833 -13.667 200.5 -41s110.5 -65.166 152.5 -113.499s74.333 -105.833 97 -172.5s34 -139.334 34 -218.001v-33
c0 -78.667 -11.333 -151.334 -34 -218.001s-55 -124.167 -97 -172.5s-92.667 -86 -152 -113s-125.666 -40.5 -198.999 -40.5s-139.666 13.5 -198.999 40.5s-110.166 64.667 -152.499 113s-75 105.833 -98 172.5s-34.5 139.334 -34.5 218.001v33zM209.997 524
c0 -59.333 8.00195 -115.833 24.002 -169.5s39.333 -100.667 70 -141s68.667 -72.5 114 -96.5s97.333 -36 156 -36s110.5 12 155.5 36s82.833 56.167 113.5 96.5s54 87.333 70 141s24 110.167 24 169.5v33c0 58 -8 113.833 -24 167.5s-39.333 100.834 -70 141.501
s-68.834 73.167 -114.501 97.5s-97.834 36.5 -156.501 36.5c-58 0 -109.5 -12.167 -154.5 -36.5s-82.833 -56.833 -113.5 -97.5s-54 -87.834 -70 -141.501s-24 -109.5 -24 -167.5v-33z" />
    <glyph glyph-name="p" unicode="p" horiz-adv-x="1135" 
d="M1026 530c0 -81.333 -9.16797 -155.669 -27.501 -223.002s-45.166 -125.166 -80.499 -173.499s-78.5 -86 -129.5 -113s-109.167 -40.5 -174.5 -40.5c-77.333 0 -144.166 13.833 -200.499 41.5s-102.833 65.834 -139.5 114.501v-552h-119v1498h111l6 -153
c36.667 54 83 96.333 139 127s122.667 46 200 46c66 0 124.833 -13 176.5 -39s95.167 -63 130.5 -111s62.166 -105.833 80.499 -173.5s27.5 -143.5 27.5 -227.5v-21zM905.999 550.997c0 62.667 -6.50195 121.332 -19.502 175.999s-32.667 102 -59 142
s-59.833 71.5 -100.5 94.5s-88.334 34.5 -143.001 34.5c-43.333 0 -81.666 -5.66699 -114.999 -17s-62.5 -26.5 -87.5 -45.5s-46.333 -41 -64 -66s-32.167 -51.167 -43.5 -78.5v-519c12.667 -27.333 28.5 -52.666 47.5 -75.999s41.333 -43.5 67 -60.5
s54.834 -30.333 87.501 -40s69.334 -14.5 110.001 -14.5c54.667 0 102 11.5 142 34.5s73.167 54.667 99.5 95s46 87.833 59 142.5s19.5 113.667 19.5 177v21z" />
    <glyph glyph-name="q" unicode="q" horiz-adv-x="1142" 
d="M108 551c0 84 9.5 159.835 28.5 227.502s46.5 125.5 82.5 173.5s80 85 132 111s111 39 177 39c76 0 141.5 -14.667 196.5 -44s100.5 -70.333 136.5 -123l6 147h112v-1498h-120v550c-36.667 -48 -82.667 -85.667 -138 -113s-120.333 -41 -195 -41
c-65.333 0 -123.833 13.5 -175.5 40.5s-95.5 64.667 -131.5 113s-63.5 106.166 -82.5 173.499s-28.5 141.666 -28.5 222.999v21zM229 530.002c0 -63.333 6.33691 -122.332 19.0039 -176.999s32.167 -102.167 58.5 -142.5s59.5 -72 99.5 -95s87.333 -34.5 142 -34.5
c39.333 0 75.166 4.66699 107.499 14s61.166 22.333 86.499 39s47.666 36.334 66.999 59.001s36 47.667 50 75v530c-12 26 -27.167 51.167 -45.5 75.5s-40 45.833 -65 64.5s-53.833 33.667 -86.5 45s-70 17 -112 17c-55.333 0 -103 -11.5 -143 -34.5
s-73.333 -54.833 -100 -95.5s-46.334 -88.334 -59.001 -143.001s-19 -113.334 -19 -176.001v-21z" />
    <glyph glyph-name="r" unicode="r" horiz-adv-x="689" 
d="M656 980c-25.333 4.66699 -52.3291 7.00195 -80.9961 7.00195c-40.667 0 -77.334 -6 -110.001 -18s-61.5 -28.833 -86.5 -50.5s-46 -47.334 -63 -77.001s-30.5 -62.5 -40.5 -98.5v-743h-119v1082h117l2 -172c29.333 59.333 69.166 106.166 119.499 140.499
s112.166 51.5 185.499 51.5c14.667 0 29.667 -1.33301 45 -4s26.666 -5.66699 33.999 -9z" />
    <glyph glyph-name="s" unicode="s" horiz-adv-x="1037" 
d="M804 275c0 22 -3.83301 43.998 -11.5 65.998s-22 42.833 -43 62.5s-50.333 38 -88 55s-86.5 31.833 -146.5 44.5s-113.5 27.334 -160.5 44.001s-86.667 36.834 -119 60.501s-56.833 51.834 -73.5 84.501s-25 71 -25 115c0 40 8.83301 78 26.5 114s43 67.333 76 94
s73 47.834 120 63.501s99.833 23.5 158.5 23.5c62.667 0 118.834 -8.16699 168.501 -24.5s91.667 -39 126 -68s60.5 -63.167 78.5 -102.5s27 -82 27 -128h-120c0 28 -6.16699 55.333 -18.5 82s-30.333 50.167 -54 70.5s-53 36.833 -88 49.5s-74.833 19 -119.5 19
c-46.667 0 -86.5 -5.66699 -119.5 -17s-60 -26 -81 -44s-36.333 -38.167 -46 -60.5s-14.5 -44.833 -14.5 -67.5c0 -24 3.66699 -45.833 11 -65.5s21.5 -38 42.5 -55s50.333 -32.667 88 -47s86.834 -28.5 147.501 -42.5c65.333 -15.333 121.666 -32.333 168.999 -51
s86.5 -40.834 117.5 -66.501s54 -55 69 -88s22.5 -71.167 22.5 -114.5c0 -44.667 -9.33301 -85.5 -28 -122.5s-45.334 -68.667 -80.001 -95s-76.667 -46.833 -126 -61.5s-104.333 -22 -165 -22c-68.667 0 -129.334 8.83301 -182.001 26.5s-97 41.5 -133 71.5
s-63.167 64.5 -81.5 103.5s-27.5 79.5 -27.5 121.5h120c2.66699 -42.667 13.667 -78.167 33 -106.5s43.333 -51 72 -68s60.5 -29.167 95.5 -36.5s69.5 -11 103.5 -11c45.333 0 85.333 5.33301 120 16s63.834 25 87.501 43s41.5 38.667 53.5 62s18 47.666 18 72.999z" />
    <glyph glyph-name="t" unicode="t" horiz-adv-x="658" 
d="M342 1359l0.00195312 -277h224v-98h-224v-721c0 -38 3.83301 -68.5 11.5 -91.5s18 -41 31 -54s28 -21.667 45 -26s34.833 -6.5 53.5 -6.5c18 0 35.333 1.16699 52 3.5s31.667 4.5 45 6.5l5 -98c-14.667 -5.33301 -33.834 -9.5 -57.501 -12.5s-47.167 -4.5 -70.5 -4.5
c-34 0 -65.5 4.5 -94.5 13.5s-53.833 24.5 -74.5 46.5s-36.834 51.167 -48.501 87.5s-17.5 81.5 -17.5 135.5v721h-199v98h199v277h120z" />
    <glyph glyph-name="u" unicode="u" horiz-adv-x="1125" 
d="M852 137c-34 -49.333 -79.1709 -87.834 -135.504 -115.501s-126.166 -41.5 -209.499 -41.5c-53.333 0 -101.666 7.5 -144.999 22.5s-80.666 38.833 -111.999 71.5s-55.5 74.834 -72.5 126.501s-25.5 114.5 -25.5 188.5v693h119v-695c0 -58 6.66699 -106.333 20 -145
s31.333 -69.667 54 -93s49.167 -40 79.5 -50s62.5 -15 96.5 -15c48 0 90.333 5.33301 127 16s68.334 25.667 95.001 45s48.667 42 66 68s31 54.667 41 86v783h120v-1082h-116z" />
    <glyph glyph-name="v" unicode="v" horiz-adv-x="985" 
d="M493 165l329 917h123l-404 -1082h-97l-406 1082h123z" />
    <glyph glyph-name="w" unicode="w" horiz-adv-x="1544" 
d="M415 249l18 -93l24 98l260 828h102l257 -821l28 -114l23 105l222 830h124l-315 -1082h-102l-278 858l-13 59l-13 -60l-273 -857h-102l-314 1082h123z" />
    <glyph glyph-name="x" unicode="x" horiz-adv-x="996" 
d="M496 643l292 439h142l-367 -531l383 -551h-141l-308 458l-308 -458h-141l382 551l-367 531h141z" />
    <glyph glyph-name="y" unicode="y" horiz-adv-x="973" 
d="M499 172l316.002 910.002h129l-458 -1255c-9.33301 -24.667 -21.166 -52.334 -35.499 -83.001s-33 -59.334 -56 -86.001s-51.667 -49.167 -86 -67.5s-76.166 -27.5 -125.499 -27.5c-6.66699 0 -14.334 0.5 -23.001 1.5s-17.334 2.16699 -26.001 3.5
s-16.834 2.83301 -24.501 4.5s-13.834 3.16699 -18.501 4.5l-1 99c8 -1.33301 18.833 -2.66602 32.5 -3.99902s23.5 -2 29.5 -2c32 0 60.333 4.16699 85 12.5s46.167 20.666 64.5 36.999s34.5 36.833 48.5 61.5s26.667 53 38 85l52 143l-408 1073h131z" />
    <glyph glyph-name="z" unicode="z" horiz-adv-x="996" 
d="M235 101h703v-101h-851v88l656 891h-636v103h787v-89z" />
    <glyph glyph-name="braceleft" unicode="{" horiz-adv-x="676" 
d="M637 -404c-64.667 19.333 -118.666 44.499 -161.999 75.499s-78 66.333 -104 106s-44.5 83.334 -55.5 131.001s-16.5 97.5 -16.5 149.5v226c0 39.333 -4.33301 75 -13 107s-22.334 59.167 -41.001 81.5s-42.667 39.666 -72 51.999s-64.333 18.5 -105 18.5v104
c40.667 0 75.667 6 105 18s53.333 29.333 72 52s32.334 49.667 41.001 81s13 66.666 13 105.999v228c0 52.667 5.5 102.834 16.5 150.501s29.5 91.667 55.5 132s60.667 76 104 107s97.333 56.167 162 75.5l26 -79c-44 -14 -81.5 -33.5 -112.5 -58.5s-56.333 -54.333 -76 -88
s-33.834 -70.667 -42.501 -111s-13 -83.166 -13 -128.499v-228c0 -35.333 -3.5 -68.833 -10.5 -100.5s-18 -60.667 -33 -87s-34.167 -50 -57.5 -71s-51 -37.833 -83 -50.5c32 -13.333 59.667 -30.5 83 -51.5s42.5 -44.833 57.5 -71.5s26 -56 33 -88s10.5 -65.333 10.5 -100
v-226c0 -45.333 4.5 -88 13.5 -128s23.5 -76.5 43.5 -109.5s45.667 -61.667 77 -86s69 -43.833 113 -58.5z" />
    <glyph glyph-name="bar" unicode="|" horiz-adv-x="452" 
d="M279 -270h-101v1726h101v-1726z" />
    <glyph glyph-name="braceright" unicode="}" horiz-adv-x="676" 
d="M9 -324c44 14.667 81.667 34.167 113 58.5s57 53 77 86s34.5 69.5 43.5 109.5s13.5 82.667 13.5 128v226c0 36 3.66699 70 11 102s18.833 61.333 34.5 88s35.667 50.334 60 71.001s53.5 37 87.5 49c-34 12 -63.167 28.167 -87.5 48.5s-44.333 43.833 -60 70.5
s-27.167 56.167 -34.5 88.5s-11 66.5 -11 102.5v228c0 45.333 -4.33301 88.166 -13 128.499s-22.667 77.333 -42 111s-44.5 63 -75.5 88s-68.833 44.5 -113.5 58.5l26 79c64.667 -19.333 118.667 -44.5 162 -75.5s78 -66.667 104 -107s44.5 -84.333 55.5 -132
s16.5 -97.834 16.5 -150.501v-228c0 -39.333 4.33301 -74.666 13 -105.999s22.334 -58.333 41.001 -81s42.667 -40 72 -52s64.333 -18 105 -18v-104c-40.667 0 -75.667 -6.16699 -105 -18.5s-53.333 -29.666 -72 -51.999s-32.334 -49.5 -41.001 -81.5s-13 -67.667 -13 -107
v-226c0 -52 -5.5 -101.833 -16.5 -149.5s-29.5 -91.334 -55.5 -131.001s-60.667 -75 -104 -106s-97.333 -56.167 -162 -75.5z" />
    <glyph glyph-name="asciitilde" unicode="~" horiz-adv-x="1402" 
d="M1254 764c0 -46 -6.66406 -89.665 -19.9971 -130.998s-32.833 -77.5 -58.5 -108.5s-56.834 -55.667 -93.501 -74s-78 -27.5 -124 -27.5c-30 0 -57.333 3.16699 -82 9.5s-48.667 15.5 -72 27.5s-46.666 27 -69.999 45s-48 38.667 -74 62
c-21.333 18.667 -40.833 35.167 -58.5 49.5s-35 26.166 -52 35.499s-34.333 16.333 -52 21s-36.5 7 -56.5 7c-59.333 0 -105.5 -19.667 -138.5 -59s-49.5 -96.333 -49.5 -171l-108 -1c0 46.667 6.66699 90.667 20 132s32.5 77.166 57.5 107.499s55.833 54.333 92.5 72
s78.667 26.5 126 26.5c29.333 0 56.666 -3.33301 81.999 -10s49.833 -16.167 73.5 -28.5s47.167 -27.333 70.5 -45s47.666 -37.834 72.999 -60.501c21.333 -20 41.166 -37.167 59.499 -51.5s36 -26.166 53 -35.499s34 -16.166 51 -20.499s35.167 -6.5 54.5 -6.5
c30 0 57 5.66699 81 17s44.167 27.166 60.5 47.499s28.833 45 37.5 74s13 61.167 13 96.5h104z" />
    <glyph glyph-name="nonbreakingspace" unicode="&#xa0;" horiz-adv-x="498" 
 />
    <glyph glyph-name="exclamdown" unicode="&#xa1;" horiz-adv-x="452" 
d="M174 690h111l7 -1049h-124zM305 1022c0 -22.667 -7.33301 -41.667 -22 -57s-34.667 -23 -60 -23s-45.5 7.66699 -60.5 23s-22.5 34.333 -22.5 57s7.5 41.667 22.5 57s35.167 23 60.5 23s45.333 -7.66699 60 -23s22 -34.333 22 -57z" />
    <glyph glyph-name="cent" unicode="&#xa2;" horiz-adv-x="1115" 
d="M581 81c38 0 74.501 5.49902 109.501 16.499s66.167 27.167 93.5 48.5s49.833 47.666 67.5 78.999s27.834 67.666 30.501 108.999h115c-2.66699 -47.333 -13.834 -91.166 -33.501 -131.499s-45.5 -75.666 -77.5 -105.999s-69.333 -55.333 -112 -75
s-88.334 -32.167 -137.001 -37.5v-229h-120v229c-65.333 8 -122.833 27.167 -172.5 57.5s-91.167 69.166 -124.5 116.499s-58.5 101.833 -75.5 163.5s-25.5 127.834 -25.5 198.501v42c0 70 8.5 135.833 25.5 197.5s42.167 116.334 75.5 164.001s74.833 86.667 124.5 117
s107.167 49.5 172.5 57.5v220h120v-219c50.667 -6 97.5 -19 140.5 -39s80.333 -46.5 112 -79.5s57 -71.667 76 -116s29.5 -93.5 31.5 -147.5h-115c-2.66699 44 -12.167 83.333 -28.5 118s-38 64.334 -65 89.001s-58.333 43.5 -94 56.5s-73.834 19.5 -114.501 19.5
c-62 0 -114.5 -12 -157.5 -36s-78.167 -56.333 -105.5 -97s-47.166 -87.334 -59.499 -140.001s-18.5 -107.667 -18.5 -165v-42c0 -58 6.16699 -113.5 18.5 -166.5s32 -99.667 59 -140s62.333 -72.5 106 -96.5s96.5 -36 158.5 -36z" />
    <glyph glyph-name="sterling" unicode="&#xa3;" horiz-adv-x="1170" 
d="M404 645l9.00195 -277.003c0.666992 -56 -4.33301 -106.5 -15 -151.5s-27 -82.5 -49 -112.5h745v-104h-997v104h98c18 4.66699 33.167 16.167 45.5 34.5s22.166 40 29.499 65s12.666 52 15.999 81s4.66602 56.5 3.99902 82.5l-9 278h-188v104h184l-9 290
c0 68.667 10 130.167 30 184.5s47.833 100.166 83.5 137.499s78.334 65.833 128.001 85.5s104.5 29.5 164.5 29.5c62.667 0 118.334 -9.5 167.001 -28.5s89.667 -45.5 123 -79.5s58.833 -74.833 76.5 -122.5s26.5 -100.167 26.5 -157.5h-123
c0 50.667 -7.5 93.834 -22.5 129.501s-35.333 64.834 -61 87.501s-55.334 39.334 -89.001 50.001s-69.167 16 -106.5 16c-40 0 -76.833 -7.33301 -110.5 -22s-62.5 -36 -86.5 -64s-42.667 -62.667 -56 -104s-20 -88.666 -20 -141.999l9 -290h344v-104h-341z" />
    <glyph glyph-name="currency" unicode="&#xa4;" horiz-adv-x="1481" 
d="M1131 133c-52 -48 -111.333 -85.5 -178 -112.5s-137.667 -40.5 -213 -40.5s-146.333 13.333 -213 40s-126 64 -178 112l-155 -158l-85 86l159 161c-39.333 53.333 -69.833 112.5 -91.5 177.5s-32.5 134.833 -32.5 209.5c0 76.667 11.667 148.667 35 216s56 128 98 182
l-168 171l85 87l167 -170c52 44 110 78.333 174 103s132.333 37 205 37s141 -12.5 205 -37.5s122 -59.833 174 -104.5l170 173l86 -88l-171 -175c40.667 -53.333 72.5 -113.333 95.5 -180s34.5 -138 34.5 -214c0 -73.333 -10.833 -142.5 -32.5 -207.5
s-51.5 -123.833 -89.5 -176.5l163 -164l-86 -87zM257 608c0 -71.333 12.667 -138.5 38 -201.5s60 -117.833 104 -164.5s95.333 -83.5 154 -110.5s121 -40.5 187 -40.5s128.167 13.5 186.5 40.5s109.333 63.833 153 110.5s78.167 101.5 103.5 164.5s38 130.167 38 201.5
s-12.667 138.166 -38 200.499s-59.833 116.833 -103.5 163.5s-94.667 83.334 -153 110.001s-120.5 40 -186.5 40s-128.333 -13.333 -187 -40s-110 -63.334 -154 -110.001s-78.667 -101.167 -104 -163.5s-38 -129.166 -38 -200.499z" />
    <glyph glyph-name="yen" unicode="&#xa5;" horiz-adv-x="1223" 
d="M607 734l421 722h143l-453 -751h367v-89h-418v-204h418v-88h-418v-324h-123v324h-414v88h414v204h-414v89h366l-452 751h143z" />
    <glyph glyph-name="brokenbar" unicode="&#xa6;" horiz-adv-x="444" 
d="M159 -270v771h120v-771h-120zM279 698h-120v758h120v-758z" />
    <glyph glyph-name="section" unicode="&#xa7;" horiz-adv-x="1239" 
d="M1119 431c0 -66.667 -20.5049 -123.173 -61.5049 -169.506s-97.833 -80.5 -170.5 -102.5c60.667 -32 107.167 -71.333 139.5 -118s48.5 -106.667 48.5 -180c0 -56 -11.167 -106 -33.5 -150s-54 -81.333 -95 -112s-90.333 -54 -148 -70s-121.834 -24 -192.501 -24
c-62 0 -123.167 7.33301 -183.5 22s-114.166 38.667 -161.499 72s-85.666 77.5 -114.999 132.5s-44 123.167 -44 204.5l120 2c0 -63.333 11.667 -116.166 35 -158.499s53.333 -76.166 90 -101.499s77.834 -43.5 123.501 -54.5s90.834 -16.5 135.501 -16.5
c56 0 105.5 6.33301 148.5 19s79.333 30.334 109 53.001s52.167 49.334 67.5 80.001s23 64 23 100c0 34.667 -5.5 65.334 -16.5 92.001s-30.5 51 -58.5 73s-65.833 42.833 -113.5 62.5s-107.834 39.5 -180.501 59.5c-73.333 18.667 -139.333 39 -198 61
s-108.667 48.667 -150 80s-73.166 68.333 -95.499 111s-33.5 93.667 -33.5 153c0 66.667 19.5 123.5 58.5 170.5s93.833 81.5 164.5 103.5c-57.333 31.333 -101.333 70.333 -132 117s-46 106 -46 178c0 54 11.167 102.833 33.5 146.5s54 81 95 112s90.5 55 148.5 72
s122.667 25.5 194 25.5c73.333 0 139.333 -9.5 198 -28.5s108.334 -46.667 149.001 -83s71.834 -81.333 93.501 -135s32.5 -115.167 32.5 -184.5h-120c0 45.333 -7.66699 88 -23 128s-37.833 74.833 -67.5 104.5s-66.5 53.167 -110.5 70.5s-94.667 26 -152 26
c-60.667 0 -113 -6.66699 -157 -20s-80.333 -31.5 -109 -54.5s-50 -49.667 -64 -80s-21 -62.833 -21 -97.5c0 -37.333 5.33301 -69.666 16 -96.999s29.834 -52 57.501 -74s65.667 -42.667 114 -62s110.166 -39.666 185.499 -60.999
c74.667 -19.333 141.167 -39.833 199.5 -61.5s107.833 -47.5 148.5 -77.5s71.667 -65.833 93 -107.5s32 -91.834 32 -150.501zM595.995 728.994c-25.333 6.66699 -50.001 13.5 -74.001 20.5s-46.667 14.167 -68 21.5c-38.667 -4.66699 -72.167 -13.5 -100.5 -26.5
s-51.833 -29.167 -70.5 -48.5s-32.5 -41.166 -41.5 -65.499s-13.5 -50.166 -13.5 -77.499c0 -38.667 5.83301 -71.834 17.5 -99.501s32.5 -52.834 62.5 -75.501s71 -43.834 123 -63.501s118.333 -40.834 199 -63.501c22.667 -6 44.334 -12 65.001 -18s40.667 -12.333 60 -19
c39.333 4.66699 74.166 13.334 104.499 26.001s55.833 28.334 76.5 47.001s36.334 40 47.001 64s16 49.667 16 77c0 36 -6.5 67.833 -19.5 95.5s-35 53 -66 76s-72.333 44.833 -124 65.5s-116.167 42 -193.5 64z" />
    <glyph glyph-name="dieresis" unicode="&#xa8;" horiz-adv-x="881" 
d="M143 1396c0 22.667 7.16699 41.834 21.5 57.501s34.5 23.5 60.5 23.5c25.333 0 45.5 -7.83301 60.5 -23.5s22.5 -34.834 22.5 -57.501c0 -22 -7.5 -40.667 -22.5 -56s-35.167 -23 -60.5 -23c-26 0 -46.167 7.66699 -60.5 23s-21.5 34 -21.5 56zM580 1395
c0 22.667 7.33301 41.834 22 57.501s34.667 23.5 60 23.5c26 0 46.333 -7.83301 61 -23.5s22 -34.834 22 -57.501c0 -22 -7.33301 -40.667 -22 -56s-35 -23 -61 -23c-25.333 0 -45.333 7.66699 -60 23s-22 34 -22 56z" />
    <glyph glyph-name="copyright" unicode="&#xa9;" horiz-adv-x="1637" 
d="M1121 607c0 -52.667 -7.33398 -98.6689 -22.001 -138.002s-35.667 -72 -63 -98s-60.333 -45.5 -99 -58.5s-82 -19.5 -130 -19.5c-50.667 0 -96.5 9.33301 -137.5 28s-76 45 -105 79s-51.333 74.833 -67 122.5s-23.5 100.167 -23.5 157.5v96
c0 57.333 7.83301 109.666 23.5 156.999s38 88 67 122s64 60.5 105 79.5s86.833 28.5 137.5 28.5c48 0 91.333 -6.5 130 -19.5s71.834 -32.5 99.501 -58.5s48.834 -58.667 63.501 -98s22 -85 22 -137h-99c0 77.333 -18.333 134 -55 170s-90.334 54 -161.001 54
c-38 0 -71.5 -7.66699 -100.5 -23s-53.333 -36.166 -73 -62.499s-34.667 -57.666 -45 -93.999s-15.5 -75.5 -15.5 -117.5v-97c0 -42.667 5.16699 -82.167 15.5 -118.5s25.333 -67.666 45 -93.999s44 -47 73 -62s62.5 -22.5 100.5 -22.5c70.667 0 124.167 17.667 160.5 53
s54.5 92.333 54.5 171h99zM191.999 728.998c0 -62 7.5 -121.503 22.5 -178.503s36 -110.167 63 -159.5s59.667 -94 98 -134s80.666 -74.167 126.999 -102.5s96 -50.333 149 -66s108.167 -23.5 165.5 -23.5c85.333 0 165.833 17.167 241.5 51.5s141.834 81.333 198.501 141
s101.5 129.834 134.5 210.501s49.5 167.667 49.5 261c0 92.667 -16.5 179.334 -49.5 260.001s-77.833 150.5 -134.5 209.5s-122.834 105.5 -198.501 139.5s-156.167 51 -241.5 51c-57.333 0 -112.5 -7.66699 -165.5 -23s-102.667 -37.166 -149 -65.499
s-88.666 -62.333 -126.999 -102s-71 -84 -98 -133s-48 -101.833 -63 -158.5s-22.5 -116 -22.5 -178zM106.999 728.995c0 70.667 8.5 138.167 25.5 202.5s40.833 124.166 71.5 179.499s67.667 105.5 111 150.5s91.333 83.333 144 115s109.167 56.167 169.5 73.5
s123.166 26 188.499 26s128.166 -8.66699 188.499 -26s116.666 -41.833 168.999 -73.5s100.166 -70 143.499 -115s80.333 -95.167 111 -150.5s54.5 -115.166 71.5 -179.499s25.5 -131.833 25.5 -202.5s-8.5 -138.167 -25.5 -202.5s-40.833 -124.333 -71.5 -180
s-67.667 -106 -111 -151s-91.166 -83.667 -143.499 -116s-108.666 -57.166 -168.999 -74.499s-123.166 -26 -188.499 -26s-128.166 8.66699 -188.499 26s-116.833 42.166 -169.5 74.499s-100.667 71 -144 116s-80.333 95.333 -111 151s-54.5 115.667 -71.5 180
s-25.5 131.833 -25.5 202.5z" />
    <glyph glyph-name="ordfeminine" unicode="&#xaa;" horiz-adv-x="906" 
d="M649 705c-10 28.667 -17 59.9971 -21 93.9971c-11.333 -14 -24.5 -27.5 -39.5 -40.5s-31.833 -24.5 -50.5 -34.5s-39 -18 -61 -24s-45.667 -9 -71 -9c-40 0 -75.5 5.16699 -106.5 15.5s-57 25 -78 44s-37 41.833 -48 68.5s-16.5 56.334 -16.5 89.001
c0 73.333 27.833 130.333 83.5 171s137.5 61 245.5 61h139v61c0 56.667 -13.333 100.667 -40 132s-67 47 -121 47c-60 0 -107.167 -11.833 -141.5 -35.5s-51.5 -59.5 -51.5 -107.5l-107 6c0 34 7.16699 65.167 21.5 93.5s34.5 52.833 60.5 73.5s57.5 36.834 94.5 48.501
s78.167 17.5 123.5 17.5c40 0 76.5 -5.83301 109.5 -17.5s61.5 -29 85.5 -52s42.5 -51.667 55.5 -86s19.5 -74.5 19.5 -120.5v-314c0 -32.667 2.16699 -63.667 6.5 -93s10.833 -58.666 19.5 -87.999h-111zM426 785.997c19.333 0 39.001 3.00098 59.001 9.00098
s38.833 13.833 56.5 23.5s33.667 20.667 48 33s26.166 25.166 35.499 38.499v168h-138c-72.667 0 -127.667 -12.667 -165 -38s-56 -61.333 -56 -108c0 -38 12.5 -68.5 37.5 -91.5s65.833 -34.5 122.5 -34.5z" />
    <glyph glyph-name="guillemotleft" unicode="&#xab;" horiz-adv-x="933" 
d="M247 536l276 -388h-105l-295 379v19l295 379h105zM556 536l276 -388h-105l-295 379v19l295 379h105z" />
    <glyph glyph-name="logicalnot" unicode="&#xac;" horiz-adv-x="1117" 
d="M936 386h-120v284h-692v106h812v-390z" />
    <glyph glyph-name="uni00AD" unicode="&#xad;" horiz-adv-x="586" 
d="M528 592h-479v101h479v-101z" />
    <glyph glyph-name="registered" unicode="&#xae;" horiz-adv-x="1642" 
d="M102 729c0 70.667 8.5 138.167 25.5 202.5s40.833 124.166 71.5 179.499s67.667 105.5 111 150.5s91.333 83.333 144 115s109.167 56.167 169.5 73.5s123.166 26 188.499 26s128.166 -8.66699 188.499 -26s116.833 -41.833 169.5 -73.5s100.667 -70 144 -115
s80.333 -95.167 111 -150.5s54.5 -115.166 71.5 -179.499s25.5 -131.833 25.5 -202.5s-8.5 -138.167 -25.5 -202.5s-40.833 -124.333 -71.5 -180s-67.667 -106 -111 -151s-91.333 -83.667 -144 -116s-109.167 -57.166 -169.5 -74.499s-123.166 -26 -188.499 -26
s-128.166 8.66699 -188.499 26s-116.833 42.166 -169.5 74.499s-100.667 71 -144 116s-80.333 95.333 -111 151s-54.5 115.667 -71.5 180s-25.5 131.833 -25.5 202.5zM187 729c0 -62 7.50098 -121.498 22.501 -178.498s36.167 -110.167 63.5 -159.5s60 -94 98 -134
s80.167 -74.167 126.5 -102.5s96 -50.333 149 -66s108.167 -23.5 165.5 -23.5s112.5 7.83301 165.5 23.5s102.667 37.667 149 66s88.5 62.5 126.5 102.5s70.5 84.667 97.5 134s48 102.5 63 159.5s22.5 116.5 22.5 178.5s-7.5 121.333 -22.5 178s-36 109.5 -63 158.5
s-59.5 93.333 -97.5 133s-80.167 73.667 -126.5 102s-96 50.166 -149 65.499s-108.167 23 -165.5 23c-86 0 -166.833 -17 -242.5 -51s-141.834 -80.5 -198.501 -139.5s-101.5 -128.833 -134.5 -209.5s-49.5 -167.334 -49.5 -260.001zM650.001 666.002v-345.001h-98v839h258
c98 0 173.333 -20.5 226 -61.5s79 -103.167 79 -186.5c0 -45.333 -12.167 -84.333 -36.5 -117s-59.166 -59.334 -104.499 -80.001c48 -17.333 81.333 -44.166 100 -80.499s28 -78.166 28 -125.499v-45c0 -25.333 1.33301 -49 4 -71s7 -40.667 13 -56v-16h-102
c-3.33301 8.66699 -6 19.667 -8 33s-3.5 27 -4.5 41s-1.5 27.333 -1.5 40v30v43c0 55.333 -12.333 95.5 -37 120.5s-67.334 37.5 -128.001 37.5h-188zM650.001 757.001h181c24.667 0 48.334 3.33301 71.001 10s42.5 16.5 59.5 29.5s30.5 28.833 40.5 47.5s15 40.667 15 66
c0 28 -3.5 52.167 -10.5 72.5s-18.5 37 -34.5 50s-37.333 22.5 -64 28.5s-59.334 9 -98.001 9h-160v-313z" />
    <glyph glyph-name="macron" unicode="&#xaf;" horiz-adv-x="874" 
d="M776 1359h-670v97h670v-97z" />
    <glyph glyph-name="macron" unicode="&#x2c9;" horiz-adv-x="874" 
d="M776 1359h-670v97h670v-97z" />
    <glyph glyph-name="degree" unicode="&#xb0;" horiz-adv-x="774" 
d="M143 1226c0 34 6.5 66.167 19.5 96.5s30.667 56.833 53 79.5s48.333 40.667 78 54s61.167 20 94.5 20s64.666 -6.66699 93.999 -20s55 -31.333 77 -54s39.333 -49.167 52 -79.5s19 -62.5 19 -96.5c0 -34.667 -6.33301 -67 -19 -97s-30 -56 -52 -78
s-47.667 -39.333 -77 -52s-60.666 -19 -93.999 -19s-64.833 6.33301 -94.5 19s-55.667 30 -78 52s-40 48 -53 78s-19.5 62.333 -19.5 97zM233 1226c0 -22.667 4 -43.5 12 -62.5s19 -35.333 33 -49s30.333 -24.334 49 -32.001s39 -11.5 61 -11.5s42.333 3.83301 61 11.5
s34.667 18.334 48 32.001s23.833 30 31.5 49s11.5 39.833 11.5 62.5s-3.83301 43.834 -11.5 63.501s-18.167 36.5 -31.5 50.5s-29.333 25 -48 33s-39 12 -61 12s-42.333 -4 -61 -12s-35 -19 -49 -33s-25 -30.833 -33 -50.5s-12 -40.834 -12 -63.501z" />
    <glyph glyph-name="plusminus" unicode="&#xb1;" horiz-adv-x="1086" 
d="M609 829h392v-101h-392v-439h-110v439h-414v101h414v438h110v-438zM963 -1h-835v102h835v-102z" />
    <glyph glyph-name="twosuperior" unicode="&#xb2;" horiz-adv-x="740" 
d="M667 665l-570.999 0.00292969v75l289 283c49.333 48 84.5 88.833 105.5 122.5s31.5 64.167 31.5 91.5c0 42 -13.5 75.833 -40.5 101.5s-66.833 38.5 -119.5 38.5c-30 0 -56.333 -4 -79 -12s-41.5 -19.333 -56.5 -34s-26.333 -31.834 -34 -51.501
s-11.5 -41.167 -11.5 -64.5h-105c0 34 6.5 66.167 19.5 96.5s31.667 56.833 56 79.5s54.166 40.667 89.499 54s75 20 119 20c40.667 0 77.667 -5.16699 111 -15.5s61.5 -25.333 84.5 -45s40.833 -43.5 53.5 -71.5s19 -59.333 19 -94c0 -25.333 -4.83301 -50 -14.5 -74
s-22.667 -47.833 -39 -71.5s-35.833 -47.334 -58.5 -71.001s-47 -47.834 -73 -72.501l-214 -198h438v-87z" />
    <glyph glyph-name="threesuperior" unicode="&#xb3;" horiz-adv-x="740" 
d="M267 1107l78.002 0.000976562c30.667 0 57.5 3.5 80.5 10.5s42.167 16.5 57.5 28.5s26.833 26.167 34.5 42.5s11.5 33.833 11.5 52.5s-3.33301 36.334 -10 53.001s-16.667 31.167 -30 43.5s-30.666 22 -51.999 29s-46.333 10.5 -75 10.5c-24 0 -46.5 -3 -67.5 -9
s-39.333 -14.833 -55 -26.5s-27.834 -25.667 -36.501 -42s-13 -34.5 -13 -54.5h-105c0 33.333 7.16699 63.5 21.5 90.5s34 50.167 59 69.5s54.167 34.166 87.5 44.499s69.333 15.5 108 15.5c40.667 0 77.834 -4.83301 111.501 -14.5s62.5 -24 86.5 -43
s42.667 -42.333 56 -70s20 -59.167 20 -94.5c0 -37.333 -12.667 -71.666 -38 -102.999s-61.333 -55 -108 -71c54 -14 94.5 -37.167 121.5 -69.5s40.5 -72.166 40.5 -119.499c0 -36 -7.33301 -68 -22 -96s-34.834 -51.667 -60.501 -71s-56 -34 -91 -44
s-73.167 -15 -114.5 -15c-36 0 -71.5 4.5 -106.5 13.5s-66.167 23 -93.5 42s-49.5 42.833 -66.5 71.5s-25.5 63 -25.5 103h106c0 -20.667 4.66699 -39.834 14 -57.501s22.333 -32.834 39 -45.501s36.5 -22.5 59.5 -29.5s48.5 -10.5 76.5 -10.5c58 0 102.5 12.667 133.5 38
s46.5 60 46.5 104c0 25.333 -4.83301 47 -14.5 65s-23.334 32.667 -41.001 44s-38.834 19.666 -63.501 24.999s-52 8 -82 8h-78v82z" />
    <glyph glyph-name="acute" unicode="&#xb4;" horiz-adv-x="576" 
d="M315 1524h145l-231 -279h-105z" />
    <glyph glyph-name="mu" unicode="&#xb5;" horiz-adv-x="1140" 
d="M281 1082v-633c0 -74.667 7.16699 -135.834 21.5 -183.501s33.5 -85.167 57.5 -112.5s51.833 -46.166 83.5 -56.499s65.167 -15.5 100.5 -15.5c48 0 89.833 5.5 125.5 16.5s66 26.667 91 47s45.5 44.666 61.5 72.999s28.333 59.833 37 94.5v770h120v-1082h-103l-11 157
c-30.667 -55.333 -71.5 -98.666 -122.5 -129.999s-114.5 -47 -190.5 -47c-55.333 0 -106.333 9.33301 -153 28s-86 51 -118 97v-521h-119v1498h119z" />
    <glyph glyph-name="paragraph" unicode="&#xb6;" horiz-adv-x="973" 
d="M681 0v520h-106c-80 0 -150.5 11.667 -211.5 35s-112.333 55.833 -154 97.5s-73.167 91.167 -94.5 148.5s-32 119.666 -32 186.999c0 66.667 10.667 128.667 32 186s52.833 106.833 94.5 148.5s93 74.334 154 98.001s131.5 35.5 211.5 35.5h226v-1456h-120z" />
    <glyph glyph-name="periodcentered" unicode="&#xb7;" horiz-adv-x="503" 
d="M163 717c0 23.333 7.33301 43 22 59s35.334 24 62.001 24s47.667 -8 63 -24s23 -35.667 23 -59s-7.66699 -42.833 -23 -58.5s-36.333 -23.5 -63 -23.5s-47.334 7.83301 -62.001 23.5s-22 35.167 -22 58.5z" />
    <glyph glyph-name="cedilla" unicode="&#xb8;" horiz-adv-x="498" 
d="M246 0l-12.001 -64.001c20.667 -2.66699 40.834 -7.5 60.501 -14.5s37.334 -17.167 53.001 -30.5s28.167 -30.333 37.5 -51s14 -45.667 14 -75c0 -30 -6.5 -57.167 -19.5 -81.5s-32 -45.333 -57 -63s-55.833 -31.334 -92.5 -41.001s-78.334 -14.5 -125.001 -14.5l-7 78
c24.667 0 49.167 2.33301 73.5 7s46 11.834 65 21.501s34.333 22 46 37s17.5 33.167 17.5 54.5c0 38.667 -14.5 65.334 -43.5 80.001s-73.167 24.667 -132.5 30l29 127h93z" />
    <glyph glyph-name="onesuperior" unicode="&#xb9;" horiz-adv-x="674" 
d="M464 669h-106v663l-232 -70v90l324 107h14v-790z" />
    <glyph glyph-name="ordmasculine" unicode="&#xba;" horiz-adv-x="922" 
d="M135 1132c0 50 7.50098 96 22.501 138s36.5 78.333 64.5 109s61.833 54.5 101.5 71.5s84.5 25.5 134.5 25.5s95 -8.5 135 -25.5s74 -40.833 102 -71.5s49.5 -67 64.5 -109s22.5 -88 22.5 -138v-99c0 -50 -7.5 -96 -22.5 -138s-36.333 -78.167 -64 -108.5
s-61.334 -54 -101.001 -71s-84.5 -25.5 -134.5 -25.5s-95.167 8.5 -135.5 25.5s-74.5 40.667 -102.5 71s-49.5 66.5 -64.5 108.5s-22.5 88 -22.5 138v99zM243.001 1033c0 -34.667 4.33301 -67.167 13 -97.5s21.834 -56.666 39.501 -78.999s40.167 -39.833 67.5 -52.5
s59.666 -19 96.999 -19c36 0 67.333 6.33301 94 19s49 30.167 67 52.5s31.333 48.666 40 78.999s13 62.833 13 97.5v99c0 34 -4.33301 66.167 -13 96.5s-22 56.666 -40 78.999s-40.5 40 -67.5 53s-58.833 19.5 -95.5 19.5c-36 0 -67.5 -6.5 -94.5 -19.5
s-49.333 -30.667 -67 -53s-31 -48.666 -40 -78.999s-13.5 -62.5 -13.5 -96.5v-99z" />
    <glyph glyph-name="guillemotright" unicode="&#xbb;" horiz-adv-x="928" 
d="M221 944l295 -384v-19l-295 -379h-106l276 388l-276 394h106zM540 944l295 -384v-19l-295 -379h-106l276 388l-276 394h106z" />
    <glyph glyph-name="onequarter" unicode="&#xbc;" horiz-adv-x="1484" 
d="M453 664h-106v663l-232 -70v90l324 107h14v-790zM414 129l-74 48l711 1138l74 -48zM1272 275h127v-88h-127v-187h-105v187h-399l-4 66l397 536h111v-514zM878 275h289v384l-31 -50z" />
    <glyph glyph-name="onehalf" unicode="&#xbd;" horiz-adv-x="1548" 
d="M370 129l-74 48l711 1138l74 -48zM438 664h-106v663l-232 -70v90l324 107h14v-790zM1436 0l-570.999 0.00292969v75l289 283c49.333 48 84.5 88.833 105.5 122.5s31.5 64.167 31.5 91.5c0 42 -13.5 75.833 -40.5 101.5s-66.833 38.5 -119.5 38.5
c-30 0 -56.333 -4 -79 -12s-41.5 -19.333 -56.5 -34s-26.333 -31.834 -34 -51.501s-11.5 -41.167 -11.5 -64.5h-105c0 34 6.5 66.167 19.5 96.5s31.667 56.833 56 79.5s54.166 40.667 89.499 54s75 20 119 20c40.667 0 77.667 -5.16699 111 -15.5s61.5 -25.333 84.5 -45
s40.833 -43.5 53.5 -71.5s19 -59.333 19 -94c0 -25.333 -4.83301 -50 -14.5 -74s-22.667 -47.833 -39 -71.5s-35.833 -47.334 -58.5 -71.001s-47 -47.834 -73 -72.501l-214 -198h438v-87z" />
    <glyph glyph-name="threequarters" unicode="&#xbe;" horiz-adv-x="1590" 
d="M558 129l-74 48l711 1138l74 -48zM1387 275h127v-88h-127v-187h-105v187h-399l-4 66l397 536h111v-514zM993 275h289v384l-31 -50zM314 1107l78.002 0.000976562c30.667 0 57.5 3.5 80.5 10.5s42.167 16.5 57.5 28.5s26.833 26.167 34.5 42.5s11.5 33.833 11.5 52.5
s-3.33301 36.334 -10 53.001s-16.667 31.167 -30 43.5s-30.666 22 -51.999 29s-46.333 10.5 -75 10.5c-24 0 -46.5 -3 -67.5 -9s-39.333 -14.833 -55 -26.5s-27.834 -25.667 -36.501 -42s-13 -34.5 -13 -54.5h-105c0 33.333 7.16699 63.5 21.5 90.5s34 50.167 59 69.5
s54.167 34.166 87.5 44.499s69.333 15.5 108 15.5c40.667 0 77.834 -4.83301 111.501 -14.5s62.5 -24 86.5 -43s42.667 -42.333 56 -70s20 -59.167 20 -94.5c0 -37.333 -12.667 -71.666 -38 -102.999s-61.333 -55 -108 -71c54 -14 94.5 -37.167 121.5 -69.5
s40.5 -72.166 40.5 -119.499c0 -36 -7.33301 -68 -22 -96s-34.834 -51.667 -60.501 -71s-56 -34 -91 -44s-73.167 -15 -114.5 -15c-36 0 -71.5 4.5 -106.5 13.5s-66.167 23 -93.5 42s-49.5 42.833 -66.5 71.5s-25.5 63 -25.5 103h106c0 -20.667 4.66699 -39.834 14 -57.501
s22.333 -32.834 39 -45.501s36.5 -22.5 59.5 -29.5s48.5 -10.5 76.5 -10.5c58 0 102.5 12.667 133.5 38s46.5 60 46.5 104c0 25.333 -4.83301 47 -14.5 65s-23.334 32.667 -41.001 44s-38.834 19.666 -63.501 24.999s-52 8 -82 8h-78v82z" />
    <glyph glyph-name="questiondown" unicode="&#xbf;" horiz-adv-x="940" 
d="M551 687c-0.666992 -42 -3.00195 -77.5 -7.00195 -106.5s-11.333 -55.5 -22 -79.5s-25.5 -47.5 -44.5 -70.5s-43.5 -49.5 -73.5 -79.5c-26 -26 -50.833 -51.167 -74.5 -75.5s-44.667 -50.333 -63 -78s-32.833 -58 -43.5 -91s-16 -71.167 -16 -114.5
c0 -86 22.333 -152.333 67 -199s109.667 -70 195 -70c38.667 0 74 5.83301 106 17.5s59.5 28.667 82.5 51s41 49.333 54 81s19.833 67.5 20.5 107.5h120c-0.666992 -58.667 -11 -110.667 -31 -156s-47.167 -83.333 -81.5 -114s-74.666 -53.834 -120.999 -69.501
s-96.166 -23.5 -149.499 -23.5c-60 0 -113.667 8.66699 -161 26s-87.333 42.333 -120 75s-57.5 71.834 -74.5 117.501s-25.5 97.167 -25.5 154.5c0 48 6.66699 92.333 20 133s31.333 79 54 115s49 70.333 79 103s62 65 96 97c21.333 18 38.166 36.167 50.499 54.5
s21.833 37.5 28.5 57.5s10.834 41.167 12.501 63.5s2.5 46.833 2.5 73.5h120zM566.998 1022c0 -22.667 -7.33301 -41.834 -22 -57.501s-34.667 -23.5 -60 -23.5s-45.5 7.83301 -60.5 23.5s-22.5 34.834 -22.5 57.501c0 22 7.5 40.667 22.5 56s35.167 23 60.5 23
s45.333 -7.66699 60 -23s22 -34 22 -56z" />
    <glyph glyph-name="Agrave" unicode="&#xc0;" 
d="M970 408h-661l-150 -408h-129l551 1456h117l551 -1456h-128zM347 513h584l-292 793zM716 1560h-109l-226 279h144z" />
    <glyph glyph-name="Aacute" unicode="&#xc1;" 
d="M970 408h-661l-150 -408h-129l551 1456h117l551 -1456h-128zM347 513h584l-292 793zM762 1839h145l-231 -279h-105z" />
    <glyph glyph-name="Acircumflex" unicode="&#xc2;" 
d="M970 408h-661l-150 -408h-129l551 1456h117l551 -1456h-128zM347 513h584l-292 793zM921 1583v-10h-111l-168 183l-167 -183h-109v13l238 255h76z" />
    <glyph glyph-name="Atilde" unicode="&#xc3;" 
d="M970 408h-661l-150 -408h-129l551 1456h117l551 -1456h-128zM347 513h584l-292 793zM983 1809c0 -32 -4.99805 -61.165 -14.998 -87.498s-23.833 -48.666 -41.5 -66.999s-38.334 -32.666 -62.001 -42.999s-49.167 -15.5 -76.5 -15.5c-23.333 0 -43.833 2.66699 -61.5 8
s-33.5 12.166 -47.5 20.499s-27.167 17.166 -39.5 26.499s-25 18.166 -38 26.499s-26.833 15.166 -41.5 20.499s-31.334 8 -50.001 8c-31.333 0 -57.5 -10.333 -78.5 -31s-31.5 -49.667 -31.5 -87l-90 3c0 32 5 61 15 87s23.667 48.333 41 67s38 33 62 43s49.667 15 77 15
c32 0 59.333 -5.66699 82 -17s44 -24 64 -38s40.167 -26.667 60.5 -38s44.166 -17 71.499 -17c30.667 0 56.834 11 78.501 33s32.5 51.667 32.5 89z" />
    <glyph glyph-name="Adieresis" unicode="&#xc4;" 
d="M970 408h-661l-150 -408h-129l551 1456h117l551 -1456h-128zM347 513h584l-292 793zM349 1711c0 22.667 7.16699 41.834 21.5 57.501s34.5 23.5 60.5 23.5c25.333 0 45.5 -7.83301 60.5 -23.5s22.5 -34.834 22.5 -57.501c0 -22 -7.5 -40.667 -22.5 -56
s-35.167 -23 -60.5 -23c-26 0 -46.167 7.66699 -60.5 23s-21.5 34 -21.5 56zM786 1710c0 22.667 7.33301 41.834 22 57.501s34.667 23.5 60 23.5c26 0 46.333 -7.83301 61 -23.5s22 -34.834 22 -57.501c0 -22 -7.33301 -40.667 -22 -56s-35 -23 -61 -23
c-25.333 0 -45.333 7.66699 -60 23s-22 34 -22 56z" />
    <glyph glyph-name="Aring" unicode="&#xc5;" 
d="M970 408h-661l-150 -408h-129l551 1456h117l551 -1456h-128zM347 513h584l-292 793zM450 1715c0 26.667 5 51.5 15 74.5s23.667 43 41 60s37.666 30.5 60.999 40.5s48.666 15 75.999 15c26.667 0 51.834 -5 75.501 -15s44.167 -23.5 61.5 -40.5s31 -37 41 -60
s15 -47.833 15 -74.5s-5 -51.5 -15 -74.5s-23.667 -42.833 -41 -59.5s-37.833 -29.667 -61.5 -39s-48.834 -14 -75.501 -14c-27.333 0 -52.666 4.66699 -75.999 14s-43.666 22.333 -60.999 39s-31 36.5 -41 59.5s-15 47.833 -15 74.5zM527 1715
c0 -16 2.83301 -31.167 8.5 -45.5s13.667 -26.666 24 -36.999s22.5 -18.5 36.5 -24.5s29.667 -9 47 -9c16.667 0 32.167 3 46.5 9s26.833 14.167 37.5 24.5s18.834 22.666 24.501 36.999s8.5 29.5 8.5 45.5c0 16.667 -2.83301 32.167 -8.5 46.5s-13.834 26.833 -24.501 37.5
s-23.167 19.167 -37.5 25.5s-29.833 9.5 -46.5 9.5c-17.333 0 -33 -3.16699 -47 -9.5s-26.167 -14.833 -36.5 -25.5s-18.333 -23.167 -24 -37.5s-8.5 -29.833 -8.5 -46.5z" />
    <glyph glyph-name="AE" unicode="&#xc6;" horiz-adv-x="1865" 
d="M1823 0h-817l-17 389h-596l-230 -389h-146l881 1456h864v-102h-694l23 -545h589v-102h-585l26 -606h702v-101zM460 502h525l-35 829z" />
    <glyph glyph-name="Ccedilla" unicode="&#xc7;" horiz-adv-x="1330" 
d="M1215 454c-8 -74 -25.334 -140.33 -52.001 -198.997s-62.5 -108.334 -107.5 -149.001s-99 -71.834 -162 -93.501s-134.5 -32.5 -214.5 -32.5c-82.667 0 -157.667 15.667 -225 47s-125 75.833 -173 133.5s-85 126.834 -111 207.501s-39 170 -39 268v183
c0 98 13 187.5 39 268.5s63.167 150.167 111.5 207.5s106.833 101.833 175.5 133.5s145.667 47.5 231 47.5c77.333 0 147 -10.667 209 -32s115.167 -52.5 159.5 -93.5s80 -91 107 -150s44.167 -125.833 51.5 -200.5h-124c-7.33301 58.667 -20.666 111.167 -39.999 157.5
s-45.5 85.166 -78.5 116.499s-73 55.333 -120 72s-101.833 25 -164.5 25c-68 0 -128.667 -13.167 -182 -39.5s-98.666 -63.5 -135.999 -111.5s-65.833 -105.833 -85.5 -173.5s-29.5 -142.834 -29.5 -225.501v-185c0 -80 9.33301 -153.833 28 -221.5s46 -126 82 -175
s80.333 -87.167 133 -114.5s113 -41 181 -41c128.667 0 225.667 30.833 291 92.5s105.666 154.167 120.999 277.5h124zM727.999 -8.99707l-12.001 -64.001c20.667 -2.66699 40.834 -7.5 60.501 -14.5s37.334 -17.167 53.001 -30.5s28.167 -30.333 37.5 -51
s14 -45.667 14 -75c0 -30 -6.5 -57.167 -19.5 -81.5s-32 -45.333 -57 -63s-55.833 -31.334 -92.5 -41.001s-78.334 -14.5 -125.001 -14.5l-7 78c24.667 0 49.167 2.33301 73.5 7s46 11.834 65 21.501s34.333 22 46 37s17.5 33.167 17.5 54.5
c0 38.667 -14.5 65.334 -43.5 80.001s-73.167 24.667 -132.5 30l29 127h93z" />
    <glyph glyph-name="Egrave" unicode="&#xc8;" horiz-adv-x="1165" 
d="M988 698h-681v-594h783v-104h-906v1456h901v-105h-778v-549h681v-104zM693 1566h-109l-226 279h144z" />
    <glyph glyph-name="Eacute" unicode="&#xc9;" horiz-adv-x="1165" 
d="M988 698h-681v-594h783v-104h-906v1456h901v-105h-778v-549h681v-104zM739 1845h145l-231 -279h-105z" />
    <glyph glyph-name="Ecircumflex" unicode="&#xca;" horiz-adv-x="1165" 
d="M988 698h-681v-594h783v-104h-906v1456h901v-105h-778v-549h681v-104zM898 1589v-10h-111l-168 183l-167 -183h-109v13l238 255h76z" />
    <glyph glyph-name="Edieresis" unicode="&#xcb;" horiz-adv-x="1165" 
d="M988 698h-681v-594h783v-104h-906v1456h901v-105h-778v-549h681v-104zM326 1717c0 22.667 7.16699 41.834 21.5 57.501s34.5 23.5 60.5 23.5c25.333 0 45.5 -7.83301 60.5 -23.5s22.5 -34.834 22.5 -57.501c0 -22 -7.5 -40.667 -22.5 -56s-35.167 -23 -60.5 -23
c-26 0 -46.167 7.66699 -60.5 23s-21.5 34 -21.5 56zM763 1716c0 22.667 7.33301 41.834 22 57.501s34.667 23.5 60 23.5c26 0 46.333 -7.83301 61 -23.5s22 -34.834 22 -57.501c0 -22 -7.33301 -40.667 -22 -56s-35 -23 -61 -23c-25.333 0 -45.333 7.66699 -60 23
s-22 34 -22 56z" />
    <glyph glyph-name="Igrave" unicode="&#xcc;" horiz-adv-x="545" 
d="M334 0h-123v1456h123v-1456zM348 1566h-109l-226 279h144z" />
    <glyph glyph-name="Iacute" unicode="&#xcd;" horiz-adv-x="545" 
d="M334 0h-123v1456h123v-1456zM393 1845h145l-231 -279h-105z" />
    <glyph glyph-name="Icircumflex" unicode="&#xce;" horiz-adv-x="545" 
d="M334 0h-123v1456h123v-1456zM553 1589v-10h-111l-168 183l-167 -183h-109v13l238 255h76z" />
    <glyph glyph-name="Idieresis" unicode="&#xcf;" horiz-adv-x="545" 
d="M334 0h-123v1456h123v-1456zM-19 1717c0 22.667 7.16699 41.834 21.5 57.501s34.5 23.5 60.5 23.5c25.333 0 45.5 -7.83301 60.5 -23.5s22.5 -34.834 22.5 -57.501c0 -22 -7.5 -40.667 -22.5 -56s-35.167 -23 -60.5 -23c-26 0 -46.167 7.66699 -60.5 23
s-21.5 34 -21.5 56zM418 1716c0 22.667 7.33301 41.834 22 57.501s34.667 23.5 60 23.5c26 0 46.333 -7.83301 61 -23.5s22 -34.834 22 -57.501c0 -22 -7.33301 -40.667 -22 -56s-35 -23 -61 -23c-25.333 0 -45.333 7.66699 -60 23s-22 34 -22 56z" />
    <glyph glyph-name="Eth" unicode="&#xd0;" horiz-adv-x="1371" 
d="M214 0l-0.00195312 689h-151v102h151v665h407c90.667 0 174.167 -15.667 250.5 -47s142 -76 197 -134s97.833 -127.667 128.5 -209s46 -172 46 -272v-133c0 -100 -15.333 -190.667 -46 -272s-73.667 -150.833 -129 -208.5s-121.666 -102.167 -198.999 -133.5
s-162.666 -47 -255.999 -47h-399zM674.998 689h-338.001v-585h276c78 0 148.333 13.5 211 40.5s116 65 160 114s77.833 107.667 101.5 176s35.5 143.833 35.5 226.5v136c0 84 -12 160.167 -36 228.5s-57.833 126.5 -101.5 174.5s-96.167 85.167 -157.5 111.5
s-129.666 39.5 -204.999 39.5h-284v-560h338v-102z" />
    <glyph glyph-name="Ntilde" unicode="&#xd1;" horiz-adv-x="1454" 
d="M1268 0h-123l-837 1246v-1246h-124v1456h124l838 -1247v1247h122v-1456zM1067 1809c0 -32 -4.99805 -61.165 -14.998 -87.498s-23.833 -48.666 -41.5 -66.999s-38.334 -32.666 -62.001 -42.999s-49.167 -15.5 -76.5 -15.5c-23.333 0 -43.833 2.66699 -61.5 8
s-33.5 12.166 -47.5 20.499s-27.167 17.166 -39.5 26.499s-25 18.166 -38 26.499s-26.833 15.166 -41.5 20.499s-31.334 8 -50.001 8c-31.333 0 -57.5 -10.333 -78.5 -31s-31.5 -49.667 -31.5 -87l-90 3c0 32 5 61 15 87s23.667 48.333 41 67s38 33 62 43s49.667 15 77 15
c32 0 59.333 -5.66699 82 -17s44 -24 64 -38s40.167 -26.667 60.5 -38s44.166 -17 71.499 -17c30.667 0 56.834 11 78.501 33s32.5 51.667 32.5 89z" />
    <glyph glyph-name="Ograve" unicode="&#xd2;" horiz-adv-x="1386" 
d="M1260 649c0 -102 -13.333 -194.167 -40 -276.5s-64.5 -152.5 -113.5 -210.5s-108.5 -102.833 -178.5 -134.5s-148 -47.5 -234 -47.5c-85.333 0 -162.833 15.833 -232.5 47.5s-129.5 76.5 -179.5 134.5s-88.667 128.167 -116 210.5s-41 174.5 -41 276.5v156
c0 102 13.667 194.333 41 277s65.666 153.167 114.999 211.5s108.833 103.333 178.5 135s147.167 47.5 232.5 47.5c86 0 164 -15.833 234 -47.5s129.833 -76.667 179.5 -135s87.834 -128.833 114.501 -211.5s40 -175 40 -277v-156zM1137 807
c0 86 -10.0029 163.667 -30.0029 233s-49 128.166 -87 176.499s-84.667 85.666 -140 111.999s-118 39.5 -188 39.5c-68.667 0 -130.5 -13.167 -185.5 -39.5s-101.667 -63.666 -140 -111.999s-67.666 -107.166 -87.999 -176.499s-30.5 -147 -30.5 -233v-158
c0 -86.667 10.333 -164.667 31 -234s50.334 -128.333 89.001 -177s85.5 -86 140.5 -112s116.833 -39 185.5 -39c70.667 0 133.5 13 188.5 39s101.333 63.333 139 112s66.334 107.667 86.001 177s29.5 147.333 29.5 234v158zM764.997 1572h-109l-226 279h144z" />
    <glyph glyph-name="Oacute" unicode="&#xd3;" horiz-adv-x="1386" 
d="M1260 649c0 -102 -13.333 -194.167 -40 -276.5s-64.5 -152.5 -113.5 -210.5s-108.5 -102.833 -178.5 -134.5s-148 -47.5 -234 -47.5c-85.333 0 -162.833 15.833 -232.5 47.5s-129.5 76.5 -179.5 134.5s-88.667 128.167 -116 210.5s-41 174.5 -41 276.5v156
c0 102 13.667 194.333 41 277s65.666 153.167 114.999 211.5s108.833 103.333 178.5 135s147.167 47.5 232.5 47.5c86 0 164 -15.833 234 -47.5s129.833 -76.667 179.5 -135s87.834 -128.833 114.501 -211.5s40 -175 40 -277v-156zM1137 807
c0 86 -10.0029 163.667 -30.0029 233s-49 128.166 -87 176.499s-84.667 85.666 -140 111.999s-118 39.5 -188 39.5c-68.667 0 -130.5 -13.167 -185.5 -39.5s-101.667 -63.666 -140 -111.999s-67.666 -107.166 -87.999 -176.499s-30.5 -147 -30.5 -233v-158
c0 -86.667 10.333 -164.667 31 -234s50.334 -128.333 89.001 -177s85.5 -86 140.5 -112s116.833 -39 185.5 -39c70.667 0 133.5 13 188.5 39s101.333 63.333 139 112s66.334 107.667 86.001 177s29.5 147.333 29.5 234v158zM810.997 1851h145l-231 -279h-105z" />
    <glyph glyph-name="Ocircumflex" unicode="&#xd4;" horiz-adv-x="1386" 
d="M1260 649c0 -102 -13.333 -194.167 -40 -276.5s-64.5 -152.5 -113.5 -210.5s-108.5 -102.833 -178.5 -134.5s-148 -47.5 -234 -47.5c-85.333 0 -162.833 15.833 -232.5 47.5s-129.5 76.5 -179.5 134.5s-88.667 128.167 -116 210.5s-41 174.5 -41 276.5v156
c0 102 13.667 194.333 41 277s65.666 153.167 114.999 211.5s108.833 103.333 178.5 135s147.167 47.5 232.5 47.5c86 0 164 -15.833 234 -47.5s129.833 -76.667 179.5 -135s87.834 -128.833 114.501 -211.5s40 -175 40 -277v-156zM1137 807
c0 86 -10.0029 163.667 -30.0029 233s-49 128.166 -87 176.499s-84.667 85.666 -140 111.999s-118 39.5 -188 39.5c-68.667 0 -130.5 -13.167 -185.5 -39.5s-101.667 -63.666 -140 -111.999s-67.666 -107.166 -87.999 -176.499s-30.5 -147 -30.5 -233v-158
c0 -86.667 10.333 -164.667 31 -234s50.334 -128.333 89.001 -177s85.5 -86 140.5 -112s116.833 -39 185.5 -39c70.667 0 133.5 13 188.5 39s101.333 63.333 139 112s66.334 107.667 86.001 177s29.5 147.333 29.5 234v158zM969.997 1595v-10h-111l-168 183l-167 -183h-109
v13l238 255h76z" />
    <glyph glyph-name="Otilde" unicode="&#xd5;" horiz-adv-x="1386" 
d="M1260 649c0 -102 -13.333 -194.167 -40 -276.5s-64.5 -152.5 -113.5 -210.5s-108.5 -102.833 -178.5 -134.5s-148 -47.5 -234 -47.5c-85.333 0 -162.833 15.833 -232.5 47.5s-129.5 76.5 -179.5 134.5s-88.667 128.167 -116 210.5s-41 174.5 -41 276.5v156
c0 102 13.667 194.333 41 277s65.666 153.167 114.999 211.5s108.833 103.333 178.5 135s147.167 47.5 232.5 47.5c86 0 164 -15.833 234 -47.5s129.833 -76.667 179.5 -135s87.834 -128.833 114.501 -211.5s40 -175 40 -277v-156zM1137 807
c0 86 -10.0029 163.667 -30.0029 233s-49 128.166 -87 176.499s-84.667 85.666 -140 111.999s-118 39.5 -188 39.5c-68.667 0 -130.5 -13.167 -185.5 -39.5s-101.667 -63.666 -140 -111.999s-67.666 -107.166 -87.999 -176.499s-30.5 -147 -30.5 -233v-158
c0 -86.667 10.333 -164.667 31 -234s50.334 -128.333 89.001 -177s85.5 -86 140.5 -112s116.833 -39 185.5 -39c70.667 0 133.5 13 188.5 39s101.333 63.333 139 112s66.334 107.667 86.001 177s29.5 147.333 29.5 234v158zM1032 1821
c0 -32 -4.99805 -61.165 -14.998 -87.498s-23.833 -48.666 -41.5 -66.999s-38.334 -32.666 -62.001 -42.999s-49.167 -15.5 -76.5 -15.5c-23.333 0 -43.833 2.66699 -61.5 8s-33.5 12.166 -47.5 20.499s-27.167 17.166 -39.5 26.499s-25 18.166 -38 26.499
s-26.833 15.166 -41.5 20.499s-31.334 8 -50.001 8c-31.333 0 -57.5 -10.333 -78.5 -31s-31.5 -49.667 -31.5 -87l-90 3c0 32 5 61 15 87s23.667 48.333 41 67s38 33 62 43s49.667 15 77 15c32 0 59.333 -5.66699 82 -17s44 -24 64 -38s40.167 -26.667 60.5 -38
s44.166 -17 71.499 -17c30.667 0 56.834 11 78.501 33s32.5 51.667 32.5 89z" />
    <glyph glyph-name="Odieresis" unicode="&#xd6;" horiz-adv-x="1386" 
d="M1260 649c0 -102 -13.333 -194.167 -40 -276.5s-64.5 -152.5 -113.5 -210.5s-108.5 -102.833 -178.5 -134.5s-148 -47.5 -234 -47.5c-85.333 0 -162.833 15.833 -232.5 47.5s-129.5 76.5 -179.5 134.5s-88.667 128.167 -116 210.5s-41 174.5 -41 276.5v156
c0 102 13.667 194.333 41 277s65.666 153.167 114.999 211.5s108.833 103.333 178.5 135s147.167 47.5 232.5 47.5c86 0 164 -15.833 234 -47.5s129.833 -76.667 179.5 -135s87.834 -128.833 114.501 -211.5s40 -175 40 -277v-156zM1137 807
c0 86 -10.0029 163.667 -30.0029 233s-49 128.166 -87 176.499s-84.667 85.666 -140 111.999s-118 39.5 -188 39.5c-68.667 0 -130.5 -13.167 -185.5 -39.5s-101.667 -63.666 -140 -111.999s-67.666 -107.166 -87.999 -176.499s-30.5 -147 -30.5 -233v-158
c0 -86.667 10.333 -164.667 31 -234s50.334 -128.333 89.001 -177s85.5 -86 140.5 -112s116.833 -39 185.5 -39c70.667 0 133.5 13 188.5 39s101.333 63.333 139 112s66.334 107.667 86.001 177s29.5 147.333 29.5 234v158zM397.997 1723
c0 22.667 7.16699 41.834 21.5 57.501s34.5 23.5 60.5 23.5c25.333 0 45.5 -7.83301 60.5 -23.5s22.5 -34.834 22.5 -57.501c0 -22 -7.5 -40.667 -22.5 -56s-35.167 -23 -60.5 -23c-26 0 -46.167 7.66699 -60.5 23s-21.5 34 -21.5 56zM834.997 1722
c0 22.667 7.33301 41.834 22 57.501s34.667 23.5 60 23.5c26 0 46.333 -7.83301 61 -23.5s22 -34.834 22 -57.501c0 -22 -7.33301 -40.667 -22 -56s-35 -23 -61 -23c-25.333 0 -45.333 7.66699 -60 23s-22 34 -22 56z" />
    <glyph glyph-name="multiply" unicode="&#xd7;" horiz-adv-x="1072" 
d="M93 179l358 365l-343 350l79 80l342 -350l343 350l79 -80l-343 -350l358 -365l-79 -79l-358 364l-357 -364z" />
    <glyph glyph-name="Oslash" unicode="&#xd8;" horiz-adv-x="1386" 
d="M1260 649c0 -102 -13.3301 -194.167 -39.9971 -276.5s-64.5 -152.5 -113.5 -210.5s-108.5 -102.833 -178.5 -134.5s-148 -47.5 -234 -47.5c-61.333 0 -118.666 8.16699 -171.999 24.5s-102 40.166 -146 71.499l-101 -160h-104l137 218
c-58.667 58.667 -103.834 131.334 -135.501 218.001s-47.5 185.667 -47.5 297v156c0 102 13.667 194.333 41 277s65.666 153.167 114.999 211.5s108.833 103.333 178.5 135s147.167 47.5 232.5 47.5c75.333 0 144.166 -12 206.499 -36s117.5 -58.667 165.5 -104l107 169h104
l-150 -237c43.333 -58 76.666 -125.833 99.999 -203.5s35 -164.167 35 -259.5v-156zM248.003 649c0 -88.667 10.499 -167.67 31.499 -237.003s51.5 -128.666 91.5 -177.999l631 1003c-38 42 -82.833 74.333 -134.5 97s-110.167 34 -175.5 34
c-68.667 0 -130.5 -13.167 -185.5 -39.5s-101.667 -63.666 -140 -111.999s-67.666 -107.166 -87.999 -176.499s-30.5 -147 -30.5 -233v-158zM1137 806.997c0 70.667 -6.83301 135.5 -20.5 194.5s-33.5 111.5 -59.5 157.5l-622 -988c71.333 -56 157.666 -84 258.999 -84
c70.667 0 133.5 13 188.5 39s101.333 63.333 139 112s66.334 107.667 86.001 177s29.5 147.333 29.5 234v158z" />
    <glyph glyph-name="Ugrave" unicode="&#xd9;" horiz-adv-x="1346" 
d="M1187 1456l-0.00292969 -987c0 -82 -13.5 -153.5 -40.5 -214.5s-63.667 -111.833 -110 -152.5s-100.666 -71.167 -162.999 -91.5s-128.833 -30.5 -199.5 -30.5c-72.667 0 -140.167 10.167 -202.5 30.5s-116.5 50.833 -162.5 91.5s-82 91.5 -108 152.5
s-39 132.5 -39 214.5v987h122v-987c0 -64 9.66699 -120 29 -168s46.333 -88 81 -120s75.834 -56.167 123.501 -72.5s99.834 -24.5 156.501 -24.5s108.834 8.16699 156.501 24.5s88.667 40.5 123 72.5s61.166 72 80.499 120s29 104 29 168v987h124zM755.997 1560h-109
l-226 279h144z" />
    <glyph glyph-name="Uacute" unicode="&#xda;" horiz-adv-x="1346" 
d="M1187 1456l-0.00292969 -987c0 -82 -13.5 -153.5 -40.5 -214.5s-63.667 -111.833 -110 -152.5s-100.666 -71.167 -162.999 -91.5s-128.833 -30.5 -199.5 -30.5c-72.667 0 -140.167 10.167 -202.5 30.5s-116.5 50.833 -162.5 91.5s-82 91.5 -108 152.5
s-39 132.5 -39 214.5v987h122v-987c0 -64 9.66699 -120 29 -168s46.333 -88 81 -120s75.834 -56.167 123.501 -72.5s99.834 -24.5 156.501 -24.5s108.834 8.16699 156.501 24.5s88.667 40.5 123 72.5s61.166 72 80.499 120s29 104 29 168v987h124zM801.997 1839h145
l-231 -279h-105z" />
    <glyph glyph-name="Ucircumflex" unicode="&#xdb;" horiz-adv-x="1346" 
d="M1187 1456l-0.00292969 -987c0 -82 -13.5 -153.5 -40.5 -214.5s-63.667 -111.833 -110 -152.5s-100.666 -71.167 -162.999 -91.5s-128.833 -30.5 -199.5 -30.5c-72.667 0 -140.167 10.167 -202.5 30.5s-116.5 50.833 -162.5 91.5s-82 91.5 -108 152.5
s-39 132.5 -39 214.5v987h122v-987c0 -64 9.66699 -120 29 -168s46.333 -88 81 -120s75.834 -56.167 123.501 -72.5s99.834 -24.5 156.501 -24.5s108.834 8.16699 156.501 24.5s88.667 40.5 123 72.5s61.166 72 80.499 120s29 104 29 168v987h124zM960.997 1583v-10h-111
l-168 183l-167 -183h-109v13l238 255h76z" />
    <glyph glyph-name="Udieresis" unicode="&#xdc;" horiz-adv-x="1346" 
d="M1187 1456l-0.00292969 -987c0 -82 -13.5 -153.5 -40.5 -214.5s-63.667 -111.833 -110 -152.5s-100.666 -71.167 -162.999 -91.5s-128.833 -30.5 -199.5 -30.5c-72.667 0 -140.167 10.167 -202.5 30.5s-116.5 50.833 -162.5 91.5s-82 91.5 -108 152.5
s-39 132.5 -39 214.5v987h122v-987c0 -64 9.66699 -120 29 -168s46.333 -88 81 -120s75.834 -56.167 123.501 -72.5s99.834 -24.5 156.501 -24.5s108.834 8.16699 156.501 24.5s88.667 40.5 123 72.5s61.166 72 80.499 120s29 104 29 168v987h124zM388.997 1711
c0 22.667 7.16699 41.834 21.5 57.501s34.5 23.5 60.5 23.5c25.333 0 45.5 -7.83301 60.5 -23.5s22.5 -34.834 22.5 -57.501c0 -22 -7.5 -40.667 -22.5 -56s-35.167 -23 -60.5 -23c-26 0 -46.167 7.66699 -60.5 23s-21.5 34 -21.5 56zM825.997 1710
c0 22.667 7.33301 41.834 22 57.501s34.667 23.5 60 23.5c26 0 46.333 -7.83301 61 -23.5s22 -34.834 22 -57.501c0 -22 -7.33301 -40.667 -22 -56s-35 -23 -61 -23c-25.333 0 -45.333 7.66699 -60 23s-22 34 -22 56z" />
    <glyph glyph-name="Yacute" unicode="&#xdd;" horiz-adv-x="1226" 
d="M611 662l445 794h142l-526 -908v-548h-123v548l-525 908h146zM732 1833h145l-231 -279h-105z" />
    <glyph glyph-name="Thorn" unicode="&#xde;" horiz-adv-x="1214" 
d="M303 1456v-304h324c76 0 143.167 -10.333 201.5 -31s107.333 -49.5 147 -86.5s69.667 -80.833 90 -131.5s30.5 -105.667 30.5 -165c0 -60 -10.167 -115.167 -30.5 -165.5s-50.333 -94 -90 -131s-88.667 -65.833 -147 -86.5s-125.5 -31 -201.5 -31h-324v-324h-120v1456
h120zM303 1051v-625.998h324c62 0 115 9.16699 159 27.5s80.167 42.166 108.5 71.499s49 62.5 62 99.5s19.5 74.5 19.5 112.5c0 38.667 -6.5 77 -19.5 115s-33.667 71.667 -62 101s-64.5 53.166 -108.5 71.499s-97 27.5 -159 27.5h-324z" />
    <glyph glyph-name="germandbls" unicode="&#xdf;" horiz-adv-x="1200" 
d="M271 0l-119.998 0.00195312v1127c0 68 8.33301 128 25 180s40.667 95.5 72 130.5s69.166 61.5 113.499 79.5s94.5 27 150.5 27c46.667 0 91 -6.66699 133 -20s78.5 -33 109.5 -59s55.667 -58 74 -96s27.5 -82 27.5 -132c0 -33.333 -3 -62.666 -9 -87.999
s-13.667 -48.5 -23 -69.5s-19.166 -40.833 -29.499 -59.5s-20.166 -37.667 -29.499 -57s-17 -40.166 -23 -62.499s-9 -47.833 -9 -76.5c0 -32.667 9 -62 27 -88s40.333 -50.833 67 -74.5s55.834 -47.167 87.501 -70.5s60.834 -48.666 87.501 -75.999s49 -58 67 -92
s27 -73 27 -117c0 -54 -10.5 -101.333 -31.5 -142s-49 -74.667 -84 -102s-75.167 -47.833 -120.5 -61.5s-92 -20.5 -140 -20.5c-28 0 -57.333 2.16699 -88 6.5s-59.834 10.166 -87.501 17.499s-53 15.833 -76 25.5s-41.167 19.834 -54.5 30.501l34 101
c12 -9.33301 27.667 -18.666 47 -27.999s40.5 -18 63.5 -26s47.167 -14.5 72.5 -19.5s50.333 -7.5 75 -7.5c42.667 0 80.834 6 114.501 18s62 28.333 85 49s40.5 44.667 52.5 72s18 56.333 18 87c0 35.333 -9 66.666 -27 93.999s-40.333 53.166 -67 77.499
s-55.834 48 -87.501 71s-60.834 48 -87.501 75s-49 56.667 -67 89s-27 70.166 -27 113.499c0 30.667 3.16699 58 9.5 82s14.166 46.333 23.499 67s19.333 40.5 30 59.5s20.667 38.333 30 58s17.166 40.5 23.499 62.5s9.5 47 9.5 75c0 32 -5.83301 61.167 -17.5 87.5
s-27.5 48.666 -47.5 66.999s-43.167 32.5 -69.5 42.5s-53.833 15 -82.5 15c-38.667 0 -73.5 -5.83301 -104.5 -17.5s-57.333 -30.334 -79 -56.001s-38.334 -58.334 -50.001 -98.001s-17.5 -87.5 -17.5 -143.5v-1127z" />
    <glyph glyph-name="agrave" unicode="&#xe0;" horiz-adv-x="1097" 
d="M839 0c-6.66699 18.667 -11.8301 41.499 -15.4971 68.499s-6.16699 54.5 -7.5 82.5c-18 -23.333 -39.333 -45.333 -64 -66s-52.334 -38.667 -83.001 -54s-64.334 -27.666 -101.001 -36.999s-76.334 -14 -119.001 -14c-52.667 0 -100.5 7.66699 -143.5 23
s-79.667 36.833 -110 64.5s-53.833 60.167 -70.5 97.5s-25 78 -25 122c0 52.667 11.333 100.167 34 142.5s55.334 78.333 98.001 108s94.5 52.334 155.5 68.001s129.5 23.5 205.5 23.5h222v123c0 77.333 -23.833 138.166 -71.5 182.499s-117.167 66.5 -208.5 66.5
c-42 0 -80.667 -5.66699 -116 -17s-65.833 -27 -91.5 -47s-45.667 -43.167 -60 -69.5s-21.5 -54.5 -21.5 -84.5l-120 1c0 40.667 10 80 30 118s48.167 71.833 84.5 101.5s80 53.5 131 71.5s107.5 27 169.5 27c57.333 0 110.166 -7.33301 158.499 -22
s89.833 -36.667 124.5 -66s61.667 -66 81 -110s29 -95.333 29 -154v-524c0 -18.667 0.666992 -38 2 -58s3.5 -39.333 6.5 -58s6.5 -36.5 10.5 -53.5s8.66699 -31.833 14 -44.5v-12h-128zM463.004 85.999c43.333 0 83.498 5.50098 120.498 16.501s70.5 26.167 100.5 45.5
s56 41.833 78 67.5s39.667 53.5 53 83.5v238h-205c-61.333 0 -116.166 -5.5 -164.499 -16.5s-89.166 -26.833 -122.499 -47.5s-58.833 -45.834 -76.5 -75.501s-26.5 -63.167 -26.5 -100.5c0 -29.333 5.66699 -56.833 17 -82.5s27.5 -48 48.5 -67s46.5 -34 76.5 -45
s63.667 -16.5 101 -16.5zM653.002 1245h-109l-226 279h144z" />
    <glyph glyph-name="aacute" unicode="&#xe1;" horiz-adv-x="1097" 
d="M839 0c-6.66699 18.667 -11.8301 41.499 -15.4971 68.499s-6.16699 54.5 -7.5 82.5c-18 -23.333 -39.333 -45.333 -64 -66s-52.334 -38.667 -83.001 -54s-64.334 -27.666 -101.001 -36.999s-76.334 -14 -119.001 -14c-52.667 0 -100.5 7.66699 -143.5 23
s-79.667 36.833 -110 64.5s-53.833 60.167 -70.5 97.5s-25 78 -25 122c0 52.667 11.333 100.167 34 142.5s55.334 78.333 98.001 108s94.5 52.334 155.5 68.001s129.5 23.5 205.5 23.5h222v123c0 77.333 -23.833 138.166 -71.5 182.499s-117.167 66.5 -208.5 66.5
c-42 0 -80.667 -5.66699 -116 -17s-65.833 -27 -91.5 -47s-45.667 -43.167 -60 -69.5s-21.5 -54.5 -21.5 -84.5l-120 1c0 40.667 10 80 30 118s48.167 71.833 84.5 101.5s80 53.5 131 71.5s107.5 27 169.5 27c57.333 0 110.166 -7.33301 158.499 -22
s89.833 -36.667 124.5 -66s61.667 -66 81 -110s29 -95.333 29 -154v-524c0 -18.667 0.666992 -38 2 -58s3.5 -39.333 6.5 -58s6.5 -36.5 10.5 -53.5s8.66699 -31.833 14 -44.5v-12h-128zM463.004 85.999c43.333 0 83.498 5.50098 120.498 16.501s70.5 26.167 100.5 45.5
s56 41.833 78 67.5s39.667 53.5 53 83.5v238h-205c-61.333 0 -116.166 -5.5 -164.499 -16.5s-89.166 -26.833 -122.499 -47.5s-58.833 -45.834 -76.5 -75.501s-26.5 -63.167 -26.5 -100.5c0 -29.333 5.66699 -56.833 17 -82.5s27.5 -48 48.5 -67s46.5 -34 76.5 -45
s63.667 -16.5 101 -16.5zM699.002 1524h145l-231 -279h-105z" />
    <glyph glyph-name="acircumflex" unicode="&#xe2;" horiz-adv-x="1097" 
d="M839 0c-6.66699 18.667 -11.8301 41.499 -15.4971 68.499s-6.16699 54.5 -7.5 82.5c-18 -23.333 -39.333 -45.333 -64 -66s-52.334 -38.667 -83.001 -54s-64.334 -27.666 -101.001 -36.999s-76.334 -14 -119.001 -14c-52.667 0 -100.5 7.66699 -143.5 23
s-79.667 36.833 -110 64.5s-53.833 60.167 -70.5 97.5s-25 78 -25 122c0 52.667 11.333 100.167 34 142.5s55.334 78.333 98.001 108s94.5 52.334 155.5 68.001s129.5 23.5 205.5 23.5h222v123c0 77.333 -23.833 138.166 -71.5 182.499s-117.167 66.5 -208.5 66.5
c-42 0 -80.667 -5.66699 -116 -17s-65.833 -27 -91.5 -47s-45.667 -43.167 -60 -69.5s-21.5 -54.5 -21.5 -84.5l-120 1c0 40.667 10 80 30 118s48.167 71.833 84.5 101.5s80 53.5 131 71.5s107.5 27 169.5 27c57.333 0 110.166 -7.33301 158.499 -22
s89.833 -36.667 124.5 -66s61.667 -66 81 -110s29 -95.333 29 -154v-524c0 -18.667 0.666992 -38 2 -58s3.5 -39.333 6.5 -58s6.5 -36.5 10.5 -53.5s8.66699 -31.833 14 -44.5v-12h-128zM463.004 85.999c43.333 0 83.498 5.50098 120.498 16.501s70.5 26.167 100.5 45.5
s56 41.833 78 67.5s39.667 53.5 53 83.5v238h-205c-61.333 0 -116.166 -5.5 -164.499 -16.5s-89.166 -26.833 -122.499 -47.5s-58.833 -45.834 -76.5 -75.501s-26.5 -63.167 -26.5 -100.5c0 -29.333 5.66699 -56.833 17 -82.5s27.5 -48 48.5 -67s46.5 -34 76.5 -45
s63.667 -16.5 101 -16.5zM858.002 1268v-10h-111l-168 183l-167 -183h-109v13l238 255h76z" />
    <glyph glyph-name="atilde" unicode="&#xe3;" horiz-adv-x="1097" 
d="M839 0c-6.66699 18.667 -11.8301 41.499 -15.4971 68.499s-6.16699 54.5 -7.5 82.5c-18 -23.333 -39.333 -45.333 -64 -66s-52.334 -38.667 -83.001 -54s-64.334 -27.666 -101.001 -36.999s-76.334 -14 -119.001 -14c-52.667 0 -100.5 7.66699 -143.5 23
s-79.667 36.833 -110 64.5s-53.833 60.167 -70.5 97.5s-25 78 -25 122c0 52.667 11.333 100.167 34 142.5s55.334 78.333 98.001 108s94.5 52.334 155.5 68.001s129.5 23.5 205.5 23.5h222v123c0 77.333 -23.833 138.166 -71.5 182.499s-117.167 66.5 -208.5 66.5
c-42 0 -80.667 -5.66699 -116 -17s-65.833 -27 -91.5 -47s-45.667 -43.167 -60 -69.5s-21.5 -54.5 -21.5 -84.5l-120 1c0 40.667 10 80 30 118s48.167 71.833 84.5 101.5s80 53.5 131 71.5s107.5 27 169.5 27c57.333 0 110.166 -7.33301 158.499 -22
s89.833 -36.667 124.5 -66s61.667 -66 81 -110s29 -95.333 29 -154v-524c0 -18.667 0.666992 -38 2 -58s3.5 -39.333 6.5 -58s6.5 -36.5 10.5 -53.5s8.66699 -31.833 14 -44.5v-12h-128zM463.004 85.999c43.333 0 83.498 5.50098 120.498 16.501s70.5 26.167 100.5 45.5
s56 41.833 78 67.5s39.667 53.5 53 83.5v238h-205c-61.333 0 -116.166 -5.5 -164.499 -16.5s-89.166 -26.833 -122.499 -47.5s-58.833 -45.834 -76.5 -75.501s-26.5 -63.167 -26.5 -100.5c0 -29.333 5.66699 -56.833 17 -82.5s27.5 -48 48.5 -67s46.5 -34 76.5 -45
s63.667 -16.5 101 -16.5zM920.002 1494c0 -32 -4.99805 -61.165 -14.998 -87.498s-23.833 -48.666 -41.5 -66.999s-38.334 -32.666 -62.001 -42.999s-49.167 -15.5 -76.5 -15.5c-23.333 0 -43.833 2.66699 -61.5 8s-33.5 12.166 -47.5 20.499s-27.167 17.166 -39.5 26.499
s-25 18.166 -38 26.499s-26.833 15.166 -41.5 20.499s-31.334 8 -50.001 8c-31.333 0 -57.5 -10.333 -78.5 -31s-31.5 -49.667 -31.5 -87l-90 3c0 32 5 61 15 87s23.667 48.333 41 67s38 33 62 43s49.667 15 77 15c32 0 59.333 -5.66699 82 -17s44 -24 64 -38
s40.167 -26.667 60.5 -38s44.166 -17 71.499 -17c30.667 0 56.834 11 78.501 33s32.5 51.667 32.5 89z" />
    <glyph glyph-name="adieresis" unicode="&#xe4;" horiz-adv-x="1097" 
d="M839 0c-6.66699 18.667 -11.8301 41.499 -15.4971 68.499s-6.16699 54.5 -7.5 82.5c-18 -23.333 -39.333 -45.333 -64 -66s-52.334 -38.667 -83.001 -54s-64.334 -27.666 -101.001 -36.999s-76.334 -14 -119.001 -14c-52.667 0 -100.5 7.66699 -143.5 23
s-79.667 36.833 -110 64.5s-53.833 60.167 -70.5 97.5s-25 78 -25 122c0 52.667 11.333 100.167 34 142.5s55.334 78.333 98.001 108s94.5 52.334 155.5 68.001s129.5 23.5 205.5 23.5h222v123c0 77.333 -23.833 138.166 -71.5 182.499s-117.167 66.5 -208.5 66.5
c-42 0 -80.667 -5.66699 -116 -17s-65.833 -27 -91.5 -47s-45.667 -43.167 -60 -69.5s-21.5 -54.5 -21.5 -84.5l-120 1c0 40.667 10 80 30 118s48.167 71.833 84.5 101.5s80 53.5 131 71.5s107.5 27 169.5 27c57.333 0 110.166 -7.33301 158.499 -22
s89.833 -36.667 124.5 -66s61.667 -66 81 -110s29 -95.333 29 -154v-524c0 -18.667 0.666992 -38 2 -58s3.5 -39.333 6.5 -58s6.5 -36.5 10.5 -53.5s8.66699 -31.833 14 -44.5v-12h-128zM463.004 85.999c43.333 0 83.498 5.50098 120.498 16.501s70.5 26.167 100.5 45.5
s56 41.833 78 67.5s39.667 53.5 53 83.5v238h-205c-61.333 0 -116.166 -5.5 -164.499 -16.5s-89.166 -26.833 -122.499 -47.5s-58.833 -45.834 -76.5 -75.501s-26.5 -63.167 -26.5 -100.5c0 -29.333 5.66699 -56.833 17 -82.5s27.5 -48 48.5 -67s46.5 -34 76.5 -45
s63.667 -16.5 101 -16.5zM286.002 1396c0 22.667 7.16699 41.834 21.5 57.501s34.5 23.5 60.5 23.5c25.333 0 45.5 -7.83301 60.5 -23.5s22.5 -34.834 22.5 -57.501c0 -22 -7.5 -40.667 -22.5 -56s-35.167 -23 -60.5 -23c-26 0 -46.167 7.66699 -60.5 23s-21.5 34 -21.5 56z
M723.002 1395c0 22.667 7.33301 41.834 22 57.501s34.667 23.5 60 23.5c26 0 46.333 -7.83301 61 -23.5s22 -34.834 22 -57.501c0 -22 -7.33301 -40.667 -22 -56s-35 -23 -61 -23c-25.333 0 -45.333 7.66699 -60 23s-22 34 -22 56z" />
    <glyph glyph-name="aring" unicode="&#xe5;" horiz-adv-x="1097" 
d="M839 0c-6.66699 18.667 -11.8301 41.499 -15.4971 68.499s-6.16699 54.5 -7.5 82.5c-18 -23.333 -39.333 -45.333 -64 -66s-52.334 -38.667 -83.001 -54s-64.334 -27.666 -101.001 -36.999s-76.334 -14 -119.001 -14c-52.667 0 -100.5 7.66699 -143.5 23
s-79.667 36.833 -110 64.5s-53.833 60.167 -70.5 97.5s-25 78 -25 122c0 52.667 11.333 100.167 34 142.5s55.334 78.333 98.001 108s94.5 52.334 155.5 68.001s129.5 23.5 205.5 23.5h222v123c0 77.333 -23.833 138.166 -71.5 182.499s-117.167 66.5 -208.5 66.5
c-42 0 -80.667 -5.66699 -116 -17s-65.833 -27 -91.5 -47s-45.667 -43.167 -60 -69.5s-21.5 -54.5 -21.5 -84.5l-120 1c0 40.667 10 80 30 118s48.167 71.833 84.5 101.5s80 53.5 131 71.5s107.5 27 169.5 27c57.333 0 110.166 -7.33301 158.499 -22
s89.833 -36.667 124.5 -66s61.667 -66 81 -110s29 -95.333 29 -154v-524c0 -18.667 0.666992 -38 2 -58s3.5 -39.333 6.5 -58s6.5 -36.5 10.5 -53.5s8.66699 -31.833 14 -44.5v-12h-128zM463.004 85.999c43.333 0 83.498 5.50098 120.498 16.501s70.5 26.167 100.5 45.5
s56 41.833 78 67.5s39.667 53.5 53 83.5v238h-205c-61.333 0 -116.166 -5.5 -164.499 -16.5s-89.166 -26.833 -122.499 -47.5s-58.833 -45.834 -76.5 -75.501s-26.5 -63.167 -26.5 -100.5c0 -29.333 5.66699 -56.833 17 -82.5s27.5 -48 48.5 -67s46.5 -34 76.5 -45
s63.667 -16.5 101 -16.5zM387.002 1400c0 26.667 5 51.5 15 74.5s23.667 43 41 60s37.666 30.5 60.999 40.5s48.666 15 75.999 15c26.667 0 51.834 -5 75.501 -15s44.167 -23.5 61.5 -40.5s31 -37 41 -60s15 -47.833 15 -74.5s-5 -51.5 -15 -74.5s-23.667 -42.833 -41 -59.5
s-37.833 -29.667 -61.5 -39s-48.834 -14 -75.501 -14c-27.333 0 -52.666 4.66699 -75.999 14s-43.666 22.333 -60.999 39s-31 36.5 -41 59.5s-15 47.833 -15 74.5zM464.002 1400c0 -16 2.83301 -31.167 8.5 -45.5s13.667 -26.666 24 -36.999s22.5 -18.5 36.5 -24.5
s29.667 -9 47 -9c16.667 0 32.167 3 46.5 9s26.833 14.167 37.5 24.5s18.834 22.666 24.501 36.999s8.5 29.5 8.5 45.5c0 16.667 -2.83301 32.167 -8.5 46.5s-13.834 26.833 -24.501 37.5s-23.167 19.167 -37.5 25.5s-29.833 9.5 -46.5 9.5c-17.333 0 -33 -3.16699 -47 -9.5
s-26.167 -14.833 -36.5 -25.5s-18.333 -23.167 -24 -37.5s-8.5 -29.833 -8.5 -46.5z" />
    <glyph glyph-name="ae" unicode="&#xe6;" horiz-adv-x="1732" 
d="M1265 -20c-92.667 0 -172.165 18.1641 -238.498 54.4971s-119.5 86.833 -159.5 151.5c-14.667 -24 -34.334 -48.333 -59.001 -73s-54.834 -46.834 -90.501 -66.501s-76.5 -35.667 -122.5 -48s-97.667 -18.5 -155 -18.5s-108 7.33301 -152 22s-81 35.667 -111 63
s-52.833 60.333 -68.5 99s-23.5 81.667 -23.5 129c0 52 9.33301 98.833 28 140.5s46.5 77.334 83.5 107.001s82.833 52.334 137.5 68.001s118 23.5 190 23.5h257v88c0 88 -21.167 156.667 -63.5 206s-105.5 74 -189.5 74c-46 0 -87.333 -6.16699 -124 -18.5
s-67.834 -29 -93.501 -50s-45.167 -45.833 -58.5 -74.5s-20 -59.334 -20 -92.001l-119 13c0 46.667 9.83301 89.834 29.5 129.501s47.667 73.834 84 102.501s80 51.167 131 67.5s107.833 24.5 170.5 24.5c83.333 0 154.5 -17.833 213.5 -53.5
s101.833 -88.834 128.5 -159.501c40 66.667 91.5 118.834 154.5 156.501s133.167 56.5 210.5 56.5c67.333 0 127.333 -10.833 180 -32.5s97 -52.5 133 -92.5s63.333 -88.667 82 -146s28 -121.666 28 -192.999v-100h-757v-29c0 -59.333 7 -115 21 -167
s35.833 -97.333 65.5 -136s67.334 -69.167 113.001 -91.5s100.5 -33.5 164.5 -33.5c37.333 0 71.833 3.33301 103.5 10s60.834 15.5 87.501 26.5s51 23.5 73 37.5s42 28.667 60 44l47 -87c-14.667 -13.333 -32.667 -27.833 -54 -43.5s-47 -30 -77 -43
s-64.833 -23.833 -104.5 -32.5s-84.834 -13 -135.501 -13zM458.002 79.9971c34.667 0 68.5 4.66699 101.5 14s63.833 21.5 92.5 36.5s54.167 31.833 76.5 50.5s39.833 37 52.5 55v300h-255c-54 0 -101 -6.66699 -141 -20s-73.333 -31.333 -100 -54s-46.5 -49 -59.5 -79
s-19.5 -61.333 -19.5 -94c0 -31.333 5.33301 -59.833 16 -85.5s26.5 -47.667 47.5 -66s47.167 -32.5 78.5 -42.5s68 -15 110 -15zM1235 999.997c-47.333 0 -90.167 -9.33203 -128.5 -27.999s-71.5 -44.167 -99.5 -76.5s-50.667 -70.666 -68 -114.999s-29 -92.5 -35 -144.5
h635v31c0 46 -6 89.167 -18 129.5s-30.5 75.666 -55.5 105.999s-56.667 54.166 -95 71.499s-83.5 26 -135.5 26z" />
    <glyph glyph-name="ccedilla" unicode="&#xe7;" horiz-adv-x="1055" 
d="M556 81c38 0 74.4971 5.49902 109.497 16.499s66.167 27.167 93.5 48.5s49.833 47.666 67.5 78.999s27.834 67.666 30.501 108.999h115c-2.66699 -51.333 -15.5 -98.666 -38.5 -141.999s-53.333 -80.666 -91 -111.999s-81.167 -55.833 -130.5 -73.5
s-101.333 -26.5 -156 -26.5c-76 0 -142.667 13.833 -200 41.5s-105.5 65.834 -144.5 114.501s-68.333 105.834 -88 171.501s-29.5 136.5 -29.5 212.5v42c0 76 9.83301 146.833 29.5 212.5s48.834 122.667 87.501 171s86.834 86.5 144.501 114.5s124.167 42 199.5 42
c58 0 111.833 -9 161.5 -27s93 -43.667 130 -77s66.5 -73.833 88.5 -121.5s34.333 -100.834 37 -159.501h-115c-2.66699 44 -12.167 83.333 -28.5 118s-38 64.334 -65 89.001s-58.333 43.5 -94 56.5s-73.834 19.5 -114.501 19.5c-62 0 -114.5 -12 -157.5 -36
s-78.167 -56.333 -105.5 -97s-47.166 -87.334 -59.499 -140.001s-18.5 -107.667 -18.5 -165v-42c0 -58 6.16699 -113.5 18.5 -166.5s32 -99.667 59 -140s62.333 -72.5 106 -96.5s96.5 -36 158.5 -36zM588.997 -9.00098l-12.001 -64.001
c20.667 -2.66699 40.834 -7.5 60.501 -14.5s37.334 -17.167 53.001 -30.5s28.167 -30.333 37.5 -51s14 -45.667 14 -75c0 -30 -6.5 -57.167 -19.5 -81.5s-32 -45.333 -57 -63s-55.833 -31.334 -92.5 -41.001s-78.334 -14.5 -125.001 -14.5l-7 78
c24.667 0 49.167 2.33301 73.5 7s46 11.834 65 21.501s34.333 22 46 37s17.5 33.167 17.5 54.5c0 38.667 -14.5 65.334 -43.5 80.001s-73.167 24.667 -132.5 30l29 127h93z" />
    <glyph glyph-name="egrave" unicode="&#xe8;" horiz-adv-x="1058" 
d="M575 -20c-70.667 0 -135.667 13.165 -195 39.498s-110.5 63 -153.5 110s-76.5 102.833 -100.5 167.5s-36 135.667 -36 213v43c0 83.333 12.5 158.833 37.5 226.5s58.833 125.334 101.5 173.001s91.834 84.5 147.501 110.5s114.5 39 176.5 39
c68.667 0 129.667 -12.333 183 -37s98.166 -59 134.499 -103s63.833 -96.333 82.5 -157s28 -127 28 -199v-73h-772v-23c0 -59.333 9 -115.166 27 -167.499s43.333 -97.833 76 -136.5s71.667 -69.167 117 -91.5s95.666 -33.5 150.999 -33.5c64 0 120.5 11.667 169.5 35
s93.5 60.666 133.5 111.999l75 -57c-18 -26 -38.833 -50.667 -62.5 -74s-51.167 -43.666 -82.5 -60.999s-66.666 -31 -105.999 -41s-83.333 -15 -132 -15zM553 999.998c-45.333 0 -87.333 -8.66699 -126 -26s-72.834 -42 -102.501 -74s-54 -70.5 -73 -115.5
s-31.833 -94.833 -38.5 -149.5h649v13c-1.33301 45.333 -8.66602 89.166 -21.999 131.499s-32.833 79.833 -58.5 112.5s-57.5 58.834 -95.5 78.501s-82.333 29.5 -133 29.5zM640 1245h-109l-226 279h144z" />
    <glyph glyph-name="eacute" unicode="&#xe9;" horiz-adv-x="1058" 
d="M575 -20c-70.667 0 -135.667 13.165 -195 39.498s-110.5 63 -153.5 110s-76.5 102.833 -100.5 167.5s-36 135.667 -36 213v43c0 83.333 12.5 158.833 37.5 226.5s58.833 125.334 101.5 173.001s91.834 84.5 147.501 110.5s114.5 39 176.5 39
c68.667 0 129.667 -12.333 183 -37s98.166 -59 134.499 -103s63.833 -96.333 82.5 -157s28 -127 28 -199v-73h-772v-23c0 -59.333 9 -115.166 27 -167.499s43.333 -97.833 76 -136.5s71.667 -69.167 117 -91.5s95.666 -33.5 150.999 -33.5c64 0 120.5 11.667 169.5 35
s93.5 60.666 133.5 111.999l75 -57c-18 -26 -38.833 -50.667 -62.5 -74s-51.167 -43.666 -82.5 -60.999s-66.666 -31 -105.999 -41s-83.333 -15 -132 -15zM553 999.998c-45.333 0 -87.333 -8.66699 -126 -26s-72.834 -42 -102.501 -74s-54 -70.5 -73 -115.5
s-31.833 -94.833 -38.5 -149.5h649v13c-1.33301 45.333 -8.66602 89.166 -21.999 131.499s-32.833 79.833 -58.5 112.5s-57.5 58.834 -95.5 78.501s-82.333 29.5 -133 29.5zM686 1524h145l-231 -279h-105z" />
    <glyph glyph-name="ecircumflex" unicode="&#xea;" horiz-adv-x="1058" 
d="M575 -20c-70.667 0 -135.667 13.165 -195 39.498s-110.5 63 -153.5 110s-76.5 102.833 -100.5 167.5s-36 135.667 -36 213v43c0 83.333 12.5 158.833 37.5 226.5s58.833 125.334 101.5 173.001s91.834 84.5 147.501 110.5s114.5 39 176.5 39
c68.667 0 129.667 -12.333 183 -37s98.166 -59 134.499 -103s63.833 -96.333 82.5 -157s28 -127 28 -199v-73h-772v-23c0 -59.333 9 -115.166 27 -167.499s43.333 -97.833 76 -136.5s71.667 -69.167 117 -91.5s95.666 -33.5 150.999 -33.5c64 0 120.5 11.667 169.5 35
s93.5 60.666 133.5 111.999l75 -57c-18 -26 -38.833 -50.667 -62.5 -74s-51.167 -43.666 -82.5 -60.999s-66.666 -31 -105.999 -41s-83.333 -15 -132 -15zM553 999.998c-45.333 0 -87.333 -8.66699 -126 -26s-72.834 -42 -102.501 -74s-54 -70.5 -73 -115.5
s-31.833 -94.833 -38.5 -149.5h649v13c-1.33301 45.333 -8.66602 89.166 -21.999 131.499s-32.833 79.833 -58.5 112.5s-57.5 58.834 -95.5 78.501s-82.333 29.5 -133 29.5zM845 1268v-10h-111l-168 183l-167 -183h-109v13l238 255h76z" />
    <glyph glyph-name="edieresis" unicode="&#xeb;" horiz-adv-x="1058" 
d="M575 -20c-70.667 0 -135.667 13.165 -195 39.498s-110.5 63 -153.5 110s-76.5 102.833 -100.5 167.5s-36 135.667 -36 213v43c0 83.333 12.5 158.833 37.5 226.5s58.833 125.334 101.5 173.001s91.834 84.5 147.501 110.5s114.5 39 176.5 39
c68.667 0 129.667 -12.333 183 -37s98.166 -59 134.499 -103s63.833 -96.333 82.5 -157s28 -127 28 -199v-73h-772v-23c0 -59.333 9 -115.166 27 -167.499s43.333 -97.833 76 -136.5s71.667 -69.167 117 -91.5s95.666 -33.5 150.999 -33.5c64 0 120.5 11.667 169.5 35
s93.5 60.666 133.5 111.999l75 -57c-18 -26 -38.833 -50.667 -62.5 -74s-51.167 -43.666 -82.5 -60.999s-66.666 -31 -105.999 -41s-83.333 -15 -132 -15zM553 999.998c-45.333 0 -87.333 -8.66699 -126 -26s-72.834 -42 -102.501 -74s-54 -70.5 -73 -115.5
s-31.833 -94.833 -38.5 -149.5h649v13c-1.33301 45.333 -8.66602 89.166 -21.999 131.499s-32.833 79.833 -58.5 112.5s-57.5 58.834 -95.5 78.501s-82.333 29.5 -133 29.5zM273 1396c0 22.667 7.16699 41.834 21.5 57.501s34.5 23.5 60.5 23.5
c25.333 0 45.5 -7.83301 60.5 -23.5s22.5 -34.834 22.5 -57.501c0 -22 -7.5 -40.667 -22.5 -56s-35.167 -23 -60.5 -23c-26 0 -46.167 7.66699 -60.5 23s-21.5 34 -21.5 56zM710 1395c0 22.667 7.33301 41.834 22 57.501s34.667 23.5 60 23.5c26 0 46.333 -7.83301 61 -23.5
s22 -34.834 22 -57.501c0 -22 -7.33301 -40.667 -22 -56s-35 -23 -61 -23c-25.333 0 -45.333 7.66699 -60 23s-22 34 -22 56z" />
    <glyph glyph-name="igrave" unicode="&#xec;" horiz-adv-x="456" 
d="M288 0h-120v1082h120v-1082zM305 1233h-109l-226 279h144z" />
    <glyph glyph-name="iacute" unicode="&#xed;" horiz-adv-x="456" 
d="M288 0h-120v1082h120v-1082zM350 1512h145l-231 -279h-105z" />
    <glyph glyph-name="icircumflex" unicode="&#xee;" horiz-adv-x="456" 
d="M288 0h-120v1082h120v-1082zM510 1256v-10h-111l-168 183l-167 -183h-109v13l238 255h76z" />
    <glyph glyph-name="idieresis" unicode="&#xef;" horiz-adv-x="456" 
d="M288 0h-120v1082h120v-1082zM-62 1384c0 22.667 7.16699 41.834 21.5 57.501s34.5 23.5 60.5 23.5c25.333 0 45.5 -7.83301 60.5 -23.5s22.5 -34.834 22.5 -57.501c0 -22 -7.5 -40.667 -22.5 -56s-35.167 -23 -60.5 -23c-26 0 -46.167 7.66699 -60.5 23
s-21.5 34 -21.5 56zM375 1383c0 22.667 7.33301 41.834 22 57.501s34.667 23.5 60 23.5c26 0 46.333 -7.83301 61 -23.5s22 -34.834 22 -57.501c0 -22 -7.33301 -40.667 -22 -56s-35 -23 -61 -23c-25.333 0 -45.333 7.66699 -60 23s-22 34 -22 56z" />
    <glyph glyph-name="eth" unicode="&#xf0;" horiz-adv-x="1191" 
d="M811 1303c79.333 -83.333 139.832 -181.167 181.499 -293.5s62.5 -241.166 62.5 -386.499v-88c0 -82 -11 -157.167 -33 -225.5s-52.5 -126.833 -91.5 -175.5s-85.333 -86.5 -139 -113.5s-112.5 -40.5 -176.5 -40.5c-68.667 0 -131.5 12.5 -188.5 37.5
s-106 59.5 -147 103.5s-73 95.5 -96 154.5s-34.5 122.5 -34.5 190.5c0 77.333 10.5 146.833 31.5 208.5s50.667 114 89 157s84.333 76 138 99s113.5 34.5 179.5 34.5c66.667 0 128.834 -12.833 186.501 -38.5s106.167 -60.834 145.5 -105.501
c-15.333 91.333 -41.166 171 -77.499 239s-80.5 128 -132.5 180l-225 -139l-51 73l206 128c-50 38.667 -103.833 72 -161.5 100s-118.167 52.333 -181.5 73l39 103c161.333 -48 297.666 -118.667 408.999 -212l194 121l51 -73zM934.999 624.999
c0 9.33301 -0.166016 18.833 -0.499023 28.5s-0.833008 19.167 -1.5 28.5c-10.667 22.667 -25.334 44.667 -44.001 66s-41.334 40.333 -68.001 57s-57.667 30.167 -93 40.5s-75 15.5 -119 15.5c-57.333 0 -107.333 -9.83301 -150 -29.5s-78 -47 -106 -82
s-49 -76.667 -63 -125s-21 -101.166 -21 -158.499c0 -47.333 7.66699 -94 23 -140s37.833 -87 67.5 -123s66.334 -65 110.001 -87s93.5 -33 149.5 -33c48.667 0 92.5 11.333 131.5 34s72.167 54 99.5 94s48.333 87.667 63 143s22 115.666 22 180.999v90z" />
    <glyph glyph-name="ntilde" unicode="&#xf1;" horiz-adv-x="1125" 
d="M270 1082l3.99902 -185.002c18.667 30.667 40.167 58.667 64.5 84s51.5 47 81.5 65s62.333 31.833 97 41.5s71.334 14.5 110.001 14.5c54 0 102.333 -7.33301 145 -22s78.834 -38 108.501 -70s52.334 -73.167 68.001 -123.5s23.5 -111.166 23.5 -182.499v-704h-119v705
c0 56 -6 102.667 -18 140s-29 67.333 -51 90s-48.833 38.834 -80.5 48.501s-66.834 14.5 -105.501 14.5c-42.667 0 -81.334 -7.16699 -116.001 -21.5s-65.334 -33.5 -92.001 -57.5s-49.667 -51.5 -69 -82.5s-34.666 -62.833 -45.999 -95.5v-741h-119v1082h114zM915.999 1493
c0 -32 -4.99805 -61.165 -14.998 -87.498s-23.833 -48.666 -41.5 -66.999s-38.334 -32.666 -62.001 -42.999s-49.167 -15.5 -76.5 -15.5c-23.333 0 -43.833 2.66699 -61.5 8s-33.5 12.166 -47.5 20.499s-27.167 17.166 -39.5 26.499s-25 18.166 -38 26.499
s-26.833 15.166 -41.5 20.499s-31.334 8 -50.001 8c-31.333 0 -57.5 -10.333 -78.5 -31s-31.5 -49.667 -31.5 -87l-90 3c0 32 5 61 15 87s23.667 48.333 41 67s38 33 62 43s49.667 15 77 15c32 0 59.333 -5.66699 82 -17s44 -24 64 -38s40.167 -26.667 60.5 -38
s44.166 -17 71.499 -17c30.667 0 56.834 11 78.501 33s32.5 51.667 32.5 89z" />
    <glyph glyph-name="ograve" unicode="&#xf2;" horiz-adv-x="1147" 
d="M90 557c0 78.667 11.4971 151.334 34.4971 218.001s55.5 124.167 97.5 172.5s92.667 86.166 152 113.499s125.333 41 198 41c74 0 140.833 -13.667 200.5 -41s110.5 -65.166 152.5 -113.499s74.333 -105.833 97 -172.5s34 -139.334 34 -218.001v-33
c0 -78.667 -11.333 -151.334 -34 -218.001s-55 -124.167 -97 -172.5s-92.667 -86 -152 -113s-125.666 -40.5 -198.999 -40.5s-139.666 13.5 -198.999 40.5s-110.166 64.667 -152.499 113s-75 105.833 -98 172.5s-34.5 139.334 -34.5 218.001v33zM209.997 524
c0 -59.333 8.00195 -115.833 24.002 -169.5s39.333 -100.667 70 -141s68.667 -72.5 114 -96.5s97.333 -36 156 -36s110.5 12 155.5 36s82.833 56.167 113.5 96.5s54 87.333 70 141s24 110.167 24 169.5v33c0 58 -8 113.833 -24 167.5s-39.333 100.834 -70 141.501
s-68.834 73.167 -114.501 97.5s-97.834 36.5 -156.501 36.5c-58 0 -109.5 -12.167 -154.5 -36.5s-82.833 -56.833 -113.5 -97.5s-54 -87.834 -70 -141.501s-24 -109.5 -24 -167.5v-33zM653.999 1245h-109l-226 279h144z" />
    <glyph glyph-name="oacute" unicode="&#xf3;" horiz-adv-x="1147" 
d="M90 557c0 78.667 11.4971 151.334 34.4971 218.001s55.5 124.167 97.5 172.5s92.667 86.166 152 113.499s125.333 41 198 41c74 0 140.833 -13.667 200.5 -41s110.5 -65.166 152.5 -113.499s74.333 -105.833 97 -172.5s34 -139.334 34 -218.001v-33
c0 -78.667 -11.333 -151.334 -34 -218.001s-55 -124.167 -97 -172.5s-92.667 -86 -152 -113s-125.666 -40.5 -198.999 -40.5s-139.666 13.5 -198.999 40.5s-110.166 64.667 -152.499 113s-75 105.833 -98 172.5s-34.5 139.334 -34.5 218.001v33zM209.997 524
c0 -59.333 8.00195 -115.833 24.002 -169.5s39.333 -100.667 70 -141s68.667 -72.5 114 -96.5s97.333 -36 156 -36s110.5 12 155.5 36s82.833 56.167 113.5 96.5s54 87.333 70 141s24 110.167 24 169.5v33c0 58 -8 113.833 -24 167.5s-39.333 100.834 -70 141.501
s-68.834 73.167 -114.501 97.5s-97.834 36.5 -156.501 36.5c-58 0 -109.5 -12.167 -154.5 -36.5s-82.833 -56.833 -113.5 -97.5s-54 -87.834 -70 -141.501s-24 -109.5 -24 -167.5v-33zM699.999 1524h145l-231 -279h-105z" />
    <glyph glyph-name="ocircumflex" unicode="&#xf4;" horiz-adv-x="1147" 
d="M90 557c0 78.667 11.4971 151.334 34.4971 218.001s55.5 124.167 97.5 172.5s92.667 86.166 152 113.499s125.333 41 198 41c74 0 140.833 -13.667 200.5 -41s110.5 -65.166 152.5 -113.499s74.333 -105.833 97 -172.5s34 -139.334 34 -218.001v-33
c0 -78.667 -11.333 -151.334 -34 -218.001s-55 -124.167 -97 -172.5s-92.667 -86 -152 -113s-125.666 -40.5 -198.999 -40.5s-139.666 13.5 -198.999 40.5s-110.166 64.667 -152.499 113s-75 105.833 -98 172.5s-34.5 139.334 -34.5 218.001v33zM209.997 524
c0 -59.333 8.00195 -115.833 24.002 -169.5s39.333 -100.667 70 -141s68.667 -72.5 114 -96.5s97.333 -36 156 -36s110.5 12 155.5 36s82.833 56.167 113.5 96.5s54 87.333 70 141s24 110.167 24 169.5v33c0 58 -8 113.833 -24 167.5s-39.333 100.834 -70 141.501
s-68.834 73.167 -114.501 97.5s-97.834 36.5 -156.501 36.5c-58 0 -109.5 -12.167 -154.5 -36.5s-82.833 -56.833 -113.5 -97.5s-54 -87.834 -70 -141.501s-24 -109.5 -24 -167.5v-33zM858.999 1268v-10h-111l-168 183l-167 -183h-109v13l238 255h76z" />
    <glyph glyph-name="otilde" unicode="&#xf5;" horiz-adv-x="1147" 
d="M90 557c0 78.667 11.4971 151.334 34.4971 218.001s55.5 124.167 97.5 172.5s92.667 86.166 152 113.499s125.333 41 198 41c74 0 140.833 -13.667 200.5 -41s110.5 -65.166 152.5 -113.499s74.333 -105.833 97 -172.5s34 -139.334 34 -218.001v-33
c0 -78.667 -11.333 -151.334 -34 -218.001s-55 -124.167 -97 -172.5s-92.667 -86 -152 -113s-125.666 -40.5 -198.999 -40.5s-139.666 13.5 -198.999 40.5s-110.166 64.667 -152.499 113s-75 105.833 -98 172.5s-34.5 139.334 -34.5 218.001v33zM209.997 524
c0 -59.333 8.00195 -115.833 24.002 -169.5s39.333 -100.667 70 -141s68.667 -72.5 114 -96.5s97.333 -36 156 -36s110.5 12 155.5 36s82.833 56.167 113.5 96.5s54 87.333 70 141s24 110.167 24 169.5v33c0 58 -8 113.833 -24 167.5s-39.333 100.834 -70 141.501
s-68.834 73.167 -114.501 97.5s-97.834 36.5 -156.501 36.5c-58 0 -109.5 -12.167 -154.5 -36.5s-82.833 -56.833 -113.5 -97.5s-54 -87.834 -70 -141.501s-24 -109.5 -24 -167.5v-33zM920.999 1493c0 -32 -4.99805 -61.165 -14.998 -87.498s-23.833 -48.666 -41.5 -66.999
s-38.334 -32.666 -62.001 -42.999s-49.167 -15.5 -76.5 -15.5c-23.333 0 -43.833 2.66699 -61.5 8s-33.5 12.166 -47.5 20.499s-27.167 17.166 -39.5 26.499s-25 18.166 -38 26.499s-26.833 15.166 -41.5 20.499s-31.334 8 -50.001 8c-31.333 0 -57.5 -10.333 -78.5 -31
s-31.5 -49.667 -31.5 -87l-90 3c0 32 5 61 15 87s23.667 48.333 41 67s38 33 62 43s49.667 15 77 15c32 0 59.333 -5.66699 82 -17s44 -24 64 -38s40.167 -26.667 60.5 -38s44.166 -17 71.499 -17c30.667 0 56.834 11 78.501 33s32.5 51.667 32.5 89z" />
    <glyph glyph-name="odieresis" unicode="&#xf6;" horiz-adv-x="1147" 
d="M90 557c0 78.667 11.4971 151.334 34.4971 218.001s55.5 124.167 97.5 172.5s92.667 86.166 152 113.499s125.333 41 198 41c74 0 140.833 -13.667 200.5 -41s110.5 -65.166 152.5 -113.499s74.333 -105.833 97 -172.5s34 -139.334 34 -218.001v-33
c0 -78.667 -11.333 -151.334 -34 -218.001s-55 -124.167 -97 -172.5s-92.667 -86 -152 -113s-125.666 -40.5 -198.999 -40.5s-139.666 13.5 -198.999 40.5s-110.166 64.667 -152.499 113s-75 105.833 -98 172.5s-34.5 139.334 -34.5 218.001v33zM209.997 524
c0 -59.333 8.00195 -115.833 24.002 -169.5s39.333 -100.667 70 -141s68.667 -72.5 114 -96.5s97.333 -36 156 -36s110.5 12 155.5 36s82.833 56.167 113.5 96.5s54 87.333 70 141s24 110.167 24 169.5v33c0 58 -8 113.833 -24 167.5s-39.333 100.834 -70 141.501
s-68.834 73.167 -114.501 97.5s-97.834 36.5 -156.501 36.5c-58 0 -109.5 -12.167 -154.5 -36.5s-82.833 -56.833 -113.5 -97.5s-54 -87.834 -70 -141.501s-24 -109.5 -24 -167.5v-33zM286.999 1396c0 22.667 7.16699 41.834 21.5 57.501s34.5 23.5 60.5 23.5
c25.333 0 45.5 -7.83301 60.5 -23.5s22.5 -34.834 22.5 -57.501c0 -22 -7.5 -40.667 -22.5 -56s-35.167 -23 -60.5 -23c-26 0 -46.167 7.66699 -60.5 23s-21.5 34 -21.5 56zM723.999 1395c0 22.667 7.33301 41.834 22 57.501s34.667 23.5 60 23.5
c26 0 46.333 -7.83301 61 -23.5s22 -34.834 22 -57.501c0 -22 -7.33301 -40.667 -22 -56s-35 -23 -61 -23c-25.333 0 -45.333 7.66699 -60 23s-22 34 -22 56z" />
    <glyph glyph-name="divide" unicode="&#xf7;" horiz-adv-x="1164" 
d="M1070 644h-998v116h998v-116zM495 1088c0 23.333 7.33301 43 22 59s35.334 24 62.001 24s47.667 -8 63 -24s23 -35.667 23 -59s-7.66699 -42.833 -23 -58.5s-36.333 -23.5 -63 -23.5s-47.334 7.83301 -62.001 23.5s-22 35.167 -22 58.5zM495 291
c0 23.333 7.33301 43 22 59s35.334 24 62.001 24s47.667 -8 63 -24s23 -35.667 23 -59s-7.66699 -42.666 -23 -57.999s-36.333 -23 -63 -23s-47.334 7.66699 -62.001 23s-22 34.666 -22 57.999z" />
    <glyph glyph-name="oslash" unicode="&#xf8;" horiz-adv-x="1141" 
d="M88 557c0 78.667 11.5 151.334 34.5 218.001s55.5 124.167 97.5 172.5s92.667 86.166 152 113.499s125.333 41 198 41c40 0 77.833 -4.16699 113.5 -12.5s69.5 -20.166 101.5 -35.499l79 160h93l-100 -205c62.667 -48 111.167 -110.833 145.5 -188.5
s51.5 -165.5 51.5 -263.5v-33c0 -78.667 -11.333 -151.334 -34 -218.001s-55 -124.167 -97 -172.5s-92.667 -86 -152 -113s-125.666 -40.5 -198.999 -40.5c-72.667 0 -139.334 13.333 -200.001 40l-78 -160h-93l99 202c-67.333 46.667 -119.5 110 -156.5 190
s-55.5 170.667 -55.5 272v33zM208 524c0 -73.333 12 -141.667 36 -205s59 -115.666 105 -156.999l389 795c-24 13.333 -50 23.833 -78 31.5s-58 11.5 -90 11.5c-58 0 -109.5 -12.167 -154.5 -36.5s-82.833 -56.833 -113.5 -97.5s-54 -87.834 -70 -141.501
s-24 -109.5 -24 -167.5v-33zM935 556.999c0 68.667 -11 133.333 -33 194s-54 112 -96 154l-387 -790c45.333 -22.667 96.333 -34 153 -34c58.667 0 110.5 12 155.5 36s82.833 56.167 113.5 96.5s54 87.333 70 141s24 110.167 24 169.5v33z" />
    <glyph glyph-name="ugrave" unicode="&#xf9;" horiz-adv-x="1125" 
d="M852 137c-34 -49.333 -79.1709 -87.834 -135.504 -115.501s-126.166 -41.5 -209.499 -41.5c-53.333 0 -101.666 7.5 -144.999 22.5s-80.666 38.833 -111.999 71.5s-55.5 74.834 -72.5 126.501s-25.5 114.5 -25.5 188.5v693h119v-695c0 -58 6.66699 -106.333 20 -145
s31.333 -69.667 54 -93s49.167 -40 79.5 -50s62.5 -15 96.5 -15c48 0 90.333 5.33301 127 16s68.334 25.667 95.001 45s48.667 42 66 68s31 54.667 41 86v783h120v-1082h-116zM646.996 1245h-109l-226 279h144z" />
    <glyph glyph-name="uacute" unicode="&#xfa;" horiz-adv-x="1125" 
d="M852 137c-34 -49.333 -79.1709 -87.834 -135.504 -115.501s-126.166 -41.5 -209.499 -41.5c-53.333 0 -101.666 7.5 -144.999 22.5s-80.666 38.833 -111.999 71.5s-55.5 74.834 -72.5 126.501s-25.5 114.5 -25.5 188.5v693h119v-695c0 -58 6.66699 -106.333 20 -145
s31.333 -69.667 54 -93s49.167 -40 79.5 -50s62.5 -15 96.5 -15c48 0 90.333 5.33301 127 16s68.334 25.667 95.001 45s48.667 42 66 68s31 54.667 41 86v783h120v-1082h-116zM692.996 1524h145l-231 -279h-105z" />
    <glyph glyph-name="ucircumflex" unicode="&#xfb;" horiz-adv-x="1125" 
d="M852 137c-34 -49.333 -79.1709 -87.834 -135.504 -115.501s-126.166 -41.5 -209.499 -41.5c-53.333 0 -101.666 7.5 -144.999 22.5s-80.666 38.833 -111.999 71.5s-55.5 74.834 -72.5 126.501s-25.5 114.5 -25.5 188.5v693h119v-695c0 -58 6.66699 -106.333 20 -145
s31.333 -69.667 54 -93s49.167 -40 79.5 -50s62.5 -15 96.5 -15c48 0 90.333 5.33301 127 16s68.334 25.667 95.001 45s48.667 42 66 68s31 54.667 41 86v783h120v-1082h-116zM851.996 1268v-10h-111l-168 183l-167 -183h-109v13l238 255h76z" />
    <glyph glyph-name="udieresis" unicode="&#xfc;" horiz-adv-x="1125" 
d="M852 137c-34 -49.333 -79.1709 -87.834 -135.504 -115.501s-126.166 -41.5 -209.499 -41.5c-53.333 0 -101.666 7.5 -144.999 22.5s-80.666 38.833 -111.999 71.5s-55.5 74.834 -72.5 126.501s-25.5 114.5 -25.5 188.5v693h119v-695c0 -58 6.66699 -106.333 20 -145
s31.333 -69.667 54 -93s49.167 -40 79.5 -50s62.5 -15 96.5 -15c48 0 90.333 5.33301 127 16s68.334 25.667 95.001 45s48.667 42 66 68s31 54.667 41 86v783h120v-1082h-116zM279.996 1396c0 22.667 7.16699 41.834 21.5 57.501s34.5 23.5 60.5 23.5
c25.333 0 45.5 -7.83301 60.5 -23.5s22.5 -34.834 22.5 -57.501c0 -22 -7.5 -40.667 -22.5 -56s-35.167 -23 -60.5 -23c-26 0 -46.167 7.66699 -60.5 23s-21.5 34 -21.5 56zM716.996 1395c0 22.667 7.33301 41.834 22 57.501s34.667 23.5 60 23.5
c26 0 46.333 -7.83301 61 -23.5s22 -34.834 22 -57.501c0 -22 -7.33301 -40.667 -22 -56s-35 -23 -61 -23c-25.333 0 -45.333 7.66699 -60 23s-22 34 -22 56z" />
    <glyph glyph-name="yacute" unicode="&#xfd;" horiz-adv-x="973" 
d="M499 172l316.002 910.002h129l-458 -1255c-9.33301 -24.667 -21.166 -52.334 -35.499 -83.001s-33 -59.334 -56 -86.001s-51.667 -49.167 -86 -67.5s-76.166 -27.5 -125.499 -27.5c-6.66699 0 -14.334 0.5 -23.001 1.5s-17.334 2.16699 -26.001 3.5
s-16.834 2.83301 -24.501 4.5s-13.834 3.16699 -18.501 4.5l-1 99c8 -1.33301 18.833 -2.66602 32.5 -3.99902s23.5 -2 29.5 -2c32 0 60.333 4.16699 85 12.5s46.167 20.666 64.5 36.999s34.5 36.833 48.5 61.5s26.667 53 38 85l52 143l-408 1073h131zM633.002 1524h145
l-231 -279h-105z" />
    <glyph glyph-name="thorn" unicode="&#xfe;" horiz-adv-x="1151" 
d="M1030 530c0 -81.333 -9.16699 -155.668 -27.5 -223.001s-45.166 -125.166 -80.499 -173.499s-78.5 -86 -129.5 -113s-109.167 -40.5 -174.5 -40.5c-76.667 0 -143.167 13.667 -199.5 41s-102.833 65 -139.5 113v-134h-1v-416h-119v1952h120v-603
c36.667 53.333 82.667 94.833 138 124.5s121.333 44.5 198 44.5c66 0 124.833 -13 176.5 -39s95.167 -63 130.5 -111s62.166 -105.833 80.499 -173.5s27.5 -143.5 27.5 -227.5v-21zM910 550.998c0 62.667 -6.49902 121.333 -19.499 176s-32.667 102 -59 142
s-59.833 71.5 -100.5 94.5s-88.334 34.5 -143.001 34.5c-42.667 0 -80.667 -5.66699 -114 -17s-62.5 -26.333 -87.5 -45s-46.167 -40.5 -63.5 -65.5s-32 -50.833 -44 -77.5v-523c13.333 -27.333 29.5 -52.5 48.5 -75.5s41.167 -43 66.5 -60s54.333 -30.167 87 -39.5
s69 -14 109 -14c54.667 0 102 11.5 142 34.5s73.167 54.667 99.5 95s46 87.833 59 142.5s19.5 113.667 19.5 177v21z" />
    <glyph glyph-name="ydieresis" unicode="&#xff;" horiz-adv-x="973" 
d="M499 172l316.002 910.002h129l-458 -1255c-9.33301 -24.667 -21.166 -52.334 -35.499 -83.001s-33 -59.334 -56 -86.001s-51.667 -49.167 -86 -67.5s-76.166 -27.5 -125.499 -27.5c-6.66699 0 -14.334 0.5 -23.001 1.5s-17.334 2.16699 -26.001 3.5
s-16.834 2.83301 -24.501 4.5s-13.834 3.16699 -18.501 4.5l-1 99c8 -1.33301 18.833 -2.66602 32.5 -3.99902s23.5 -2 29.5 -2c32 0 60.333 4.16699 85 12.5s46.167 20.666 64.5 36.999s34.5 36.833 48.5 61.5s26.667 53 38 85l52 143l-408 1073h131zM220.002 1396
c0 22.667 7.16699 41.834 21.5 57.501s34.5 23.5 60.5 23.5c25.333 0 45.5 -7.83301 60.5 -23.5s22.5 -34.834 22.5 -57.501c0 -22 -7.5 -40.667 -22.5 -56s-35.167 -23 -60.5 -23c-26 0 -46.167 7.66699 -60.5 23s-21.5 34 -21.5 56zM657.002 1395
c0 22.667 7.33301 41.834 22 57.501s34.667 23.5 60 23.5c26 0 46.333 -7.83301 61 -23.5s22 -34.834 22 -57.501c0 -22 -7.33301 -40.667 -22 -56s-35 -23 -61 -23c-25.333 0 -45.333 7.66699 -60 23s-22 34 -22 56z" />
    <glyph glyph-name="Amacron" unicode="&#x100;" 
d="M970 408h-661l-150 -408h-129l551 1456h117l551 -1456h-128zM347 513h584l-292 793zM975 1683h-670v97h670v-97z" />
    <glyph glyph-name="amacron" unicode="&#x101;" horiz-adv-x="1097" 
d="M839 0c-6.66699 18.667 -11.8301 41.499 -15.4971 68.499s-6.16699 54.5 -7.5 82.5c-18 -23.333 -39.333 -45.333 -64 -66s-52.334 -38.667 -83.001 -54s-64.334 -27.666 -101.001 -36.999s-76.334 -14 -119.001 -14c-52.667 0 -100.5 7.66699 -143.5 23
s-79.667 36.833 -110 64.5s-53.833 60.167 -70.5 97.5s-25 78 -25 122c0 52.667 11.333 100.167 34 142.5s55.334 78.333 98.001 108s94.5 52.334 155.5 68.001s129.5 23.5 205.5 23.5h222v123c0 77.333 -23.833 138.166 -71.5 182.499s-117.167 66.5 -208.5 66.5
c-42 0 -80.667 -5.66699 -116 -17s-65.833 -27 -91.5 -47s-45.667 -43.167 -60 -69.5s-21.5 -54.5 -21.5 -84.5l-120 1c0 40.667 10 80 30 118s48.167 71.833 84.5 101.5s80 53.5 131 71.5s107.5 27 169.5 27c57.333 0 110.166 -7.33301 158.499 -22
s89.833 -36.667 124.5 -66s61.667 -66 81 -110s29 -95.333 29 -154v-524c0 -18.667 0.666992 -38 2 -58s3.5 -39.333 6.5 -58s6.5 -36.5 10.5 -53.5s8.66699 -31.833 14 -44.5v-12h-128zM463.004 85.999c43.333 0 83.498 5.50098 120.498 16.501s70.5 26.167 100.5 45.5
s56 41.833 78 67.5s39.667 53.5 53 83.5v238h-205c-61.333 0 -116.166 -5.5 -164.499 -16.5s-89.166 -26.833 -122.499 -47.5s-58.833 -45.834 -76.5 -75.501s-26.5 -63.167 -26.5 -100.5c0 -29.333 5.66699 -56.833 17 -82.5s27.5 -48 48.5 -67s46.5 -34 76.5 -45
s63.667 -16.5 101 -16.5zM912.002 1368h-670v97h670v-97z" />
    <glyph glyph-name="Abreve" unicode="&#x102;" 
d="M970 408h-661l-150 -408h-129l551 1456h117l551 -1456h-128zM347 513h584l-292 793zM931 1808c0 -38 -6.66699 -72.6699 -20 -104.003s-32.333 -58.333 -57 -81s-55 -40.334 -91 -53.001s-76.333 -19 -121 -19s-84.834 6.33301 -120.501 19s-66 30.334 -91 53.001
s-44.167 49.667 -57.5 81s-20 66 -20 104h102c0 -23.333 3.33301 -45.333 10 -66s17.334 -38.667 32.001 -54s34 -27.666 58 -36.999s53 -14 87 -14c33.333 0 61.833 4.66699 85.5 14s43 21.833 58 37.5s26 33.834 33 54.501s10.5 42.334 10.5 65.001h102z" />
    <glyph glyph-name="abreve" unicode="&#x103;" horiz-adv-x="1097" 
d="M839 0c-6.66699 18.667 -11.8301 41.499 -15.4971 68.499s-6.16699 54.5 -7.5 82.5c-18 -23.333 -39.333 -45.333 -64 -66s-52.334 -38.667 -83.001 -54s-64.334 -27.666 -101.001 -36.999s-76.334 -14 -119.001 -14c-52.667 0 -100.5 7.66699 -143.5 23
s-79.667 36.833 -110 64.5s-53.833 60.167 -70.5 97.5s-25 78 -25 122c0 52.667 11.333 100.167 34 142.5s55.334 78.333 98.001 108s94.5 52.334 155.5 68.001s129.5 23.5 205.5 23.5h222v123c0 77.333 -23.833 138.166 -71.5 182.499s-117.167 66.5 -208.5 66.5
c-42 0 -80.667 -5.66699 -116 -17s-65.833 -27 -91.5 -47s-45.667 -43.167 -60 -69.5s-21.5 -54.5 -21.5 -84.5l-120 1c0 40.667 10 80 30 118s48.167 71.833 84.5 101.5s80 53.5 131 71.5s107.5 27 169.5 27c57.333 0 110.166 -7.33301 158.499 -22
s89.833 -36.667 124.5 -66s61.667 -66 81 -110s29 -95.333 29 -154v-524c0 -18.667 0.666992 -38 2 -58s3.5 -39.333 6.5 -58s6.5 -36.5 10.5 -53.5s8.66699 -31.833 14 -44.5v-12h-128zM463.004 85.999c43.333 0 83.498 5.50098 120.498 16.501s70.5 26.167 100.5 45.5
s56 41.833 78 67.5s39.667 53.5 53 83.5v238h-205c-61.333 0 -116.166 -5.5 -164.499 -16.5s-89.166 -26.833 -122.499 -47.5s-58.833 -45.834 -76.5 -75.501s-26.5 -63.167 -26.5 -100.5c0 -29.333 5.66699 -56.833 17 -82.5s27.5 -48 48.5 -67s46.5 -34 76.5 -45
s63.667 -16.5 101 -16.5zM868.002 1493c0 -38 -6.66699 -72.6699 -20 -104.003s-32.333 -58.333 -57 -81s-55 -40.334 -91 -53.001s-76.333 -19 -121 -19s-84.834 6.33301 -120.501 19s-66 30.334 -91 53.001s-44.167 49.667 -57.5 81s-20 66 -20 104h102
c0 -23.333 3.33301 -45.333 10 -66s17.334 -38.667 32.001 -54s34 -27.666 58 -36.999s53 -14 87 -14c33.333 0 61.833 4.66699 85.5 14s43 21.833 58 37.5s26 33.834 33 54.501s10.5 42.334 10.5 65.001h102z" />
    <glyph glyph-name="Aogonek" unicode="&#x104;" 
d="M698 1456l551.001 -1456h-19c-22.667 -17.333 -44.667 -35 -66 -53s-40.333 -36.5 -57 -55.5s-30.167 -39 -40.5 -60s-15.5 -42.833 -15.5 -65.5c0 -23.333 6 -43.166 18 -59.499s34.333 -24.5 67 -24.5c24.667 0 45.5 3.66699 62.5 11s31.167 14.666 42.5 21.999l15 -84
c-14.667 -10 -33.334 -19.833 -56.001 -29.5s-51.667 -14.5 -87 -14.5c-24.667 0 -47.5 3.5 -68.5 10.5s-39 17.5 -54 31.5s-26.667 31.667 -35 53s-12.5 46 -12.5 74c0 44 15.667 87.5 47 130.5s74.333 82.5 129 118.5l-149 403h-661l-150 -408h-129l551 1456h117z
M347.001 513h584l-292 793z" />
    <glyph glyph-name="aogonek" unicode="&#x105;" horiz-adv-x="1097" 
d="M837 4c-6 18.667 -10.6641 40.999 -13.9971 66.999s-5.66602 52.667 -6.99902 80c-18 -23.333 -39.333 -45.333 -64 -66s-52.334 -38.667 -83.001 -54s-64.334 -27.666 -101.001 -36.999s-76.334 -14 -119.001 -14c-52.667 0 -100.5 7.66699 -143.5 23
s-79.667 36.833 -110 64.5s-53.833 60.167 -70.5 97.5s-25 78 -25 122c0 52.667 11.333 100.167 34 142.5s55.334 78.333 98.001 108s94.5 52.334 155.5 68.001s129.5 23.5 205.5 23.5h222v123c0 77.333 -23.833 138.166 -71.5 182.499s-117.167 66.5 -208.5 66.5
c-42 0 -80.667 -5.66699 -116 -17s-65.833 -27 -91.5 -47s-45.667 -43.167 -60 -69.5s-21.5 -54.5 -21.5 -84.5l-120 1c0 40.667 10 80 30 118s48.167 71.833 84.5 101.5s80 53.5 131 71.5s107.5 27 169.5 27c57.333 0 110.166 -7.33301 158.499 -22
s89.833 -36.667 124.5 -66s61.667 -66 81 -110s29 -95.333 29 -154v-524c0 -18.667 0.666992 -38 2 -58s3.5 -39.333 6.5 -58s6.5 -36.5 10.5 -53.5s8.66699 -31.833 14 -44.5v-12h-16c-22.667 -17.333 -44.667 -35 -66 -53s-40.333 -36.5 -57 -55.5s-30.167 -39 -40.5 -60
s-15.5 -42.833 -15.5 -65.5c0 -23.333 6 -43.166 18 -59.499s34.333 -24.5 67 -24.5c24.667 0 45.5 3.66699 62.5 11s31.167 14.666 42.5 21.999l15 -84c-14.667 -10 -33.334 -19.833 -56.001 -29.5s-51.667 -14.5 -87 -14.5c-24.667 0 -47.5 3.5 -68.5 10.5
s-39 17.5 -54 31.5s-26.667 31.667 -35 53s-12.5 46 -12.5 74c0 43.333 15.333 86.5 46 129.5s73 82.5 127 118.5zM463.003 85.999c43.333 0 83.498 5.50098 120.498 16.501s70.5 26.167 100.5 45.5s56 41.833 78 67.5s39.667 53.5 53 83.5v238h-205
c-61.333 0 -116.166 -5.5 -164.499 -16.5s-89.166 -26.833 -122.499 -47.5s-58.833 -45.834 -76.5 -75.501s-26.5 -63.167 -26.5 -100.5c0 -29.333 5.66699 -56.833 17 -82.5s27.5 -48 48.5 -67s46.5 -34 76.5 -45s63.667 -16.5 101 -16.5z" />
    <glyph glyph-name="Cacute" unicode="&#x106;" horiz-adv-x="1330" 
d="M1215 454c-8 -74 -25.334 -140.33 -52.001 -198.997s-62.5 -108.334 -107.5 -149.001s-99 -71.834 -162 -93.501s-134.5 -32.5 -214.5 -32.5c-82.667 0 -157.667 15.667 -225 47s-125 75.833 -173 133.5s-85 126.834 -111 207.501s-39 170 -39 268v183
c0 98 13 187.5 39 268.5s63.167 150.167 111.5 207.5s106.833 101.833 175.5 133.5s145.667 47.5 231 47.5c77.333 0 147 -10.667 209 -32s115.167 -52.5 159.5 -93.5s80 -91 107 -150s44.167 -125.833 51.5 -200.5h-124c-7.33301 58.667 -20.666 111.167 -39.999 157.5
s-45.5 85.166 -78.5 116.499s-73 55.333 -120 72s-101.833 25 -164.5 25c-68 0 -128.667 -13.167 -182 -39.5s-98.666 -63.5 -135.999 -111.5s-65.833 -105.833 -85.5 -173.5s-29.5 -142.834 -29.5 -225.501v-185c0 -80 9.33301 -153.833 28 -221.5s46 -126 82 -175
s80.333 -87.167 133 -114.5s113 -41 181 -41c128.667 0 225.667 30.833 291 92.5s105.666 154.167 120.999 277.5h124zM797.999 1866h145l-231 -279h-105z" />
    <glyph glyph-name="cacute" unicode="&#x107;" horiz-adv-x="1055" 
d="M556 81c38 0 74.4971 5.49902 109.497 16.499s66.167 27.167 93.5 48.5s49.833 47.666 67.5 78.999s27.834 67.666 30.501 108.999h115c-2.66699 -51.333 -15.5 -98.666 -38.5 -141.999s-53.333 -80.666 -91 -111.999s-81.167 -55.833 -130.5 -73.5
s-101.333 -26.5 -156 -26.5c-76 0 -142.667 13.833 -200 41.5s-105.5 65.834 -144.5 114.501s-68.333 105.834 -88 171.501s-29.5 136.5 -29.5 212.5v42c0 76 9.83301 146.833 29.5 212.5s48.834 122.667 87.501 171s86.834 86.5 144.501 114.5s124.167 42 199.5 42
c58 0 111.833 -9 161.5 -27s93 -43.667 130 -77s66.5 -73.833 88.5 -121.5s34.333 -100.834 37 -159.501h-115c-2.66699 44 -12.167 83.333 -28.5 118s-38 64.334 -65 89.001s-58.333 43.5 -94 56.5s-73.834 19.5 -114.501 19.5c-62 0 -114.5 -12 -157.5 -36
s-78.167 -56.333 -105.5 -97s-47.166 -87.334 -59.499 -140.001s-18.5 -107.667 -18.5 -165v-42c0 -58 6.16699 -113.5 18.5 -166.5s32 -99.667 59 -140s62.333 -72.5 106 -96.5s96.5 -36 158.5 -36zM658.997 1524h145l-231 -279h-105z" />
    <glyph glyph-name="Ccircumflex" unicode="&#x108;" horiz-adv-x="1330" 
d="M1215 454c-8 -74 -25.334 -140.33 -52.001 -198.997s-62.5 -108.334 -107.5 -149.001s-99 -71.834 -162 -93.501s-134.5 -32.5 -214.5 -32.5c-82.667 0 -157.667 15.667 -225 47s-125 75.833 -173 133.5s-85 126.834 -111 207.501s-39 170 -39 268v183
c0 98 13 187.5 39 268.5s63.167 150.167 111.5 207.5s106.833 101.833 175.5 133.5s145.667 47.5 231 47.5c77.333 0 147 -10.667 209 -32s115.167 -52.5 159.5 -93.5s80 -91 107 -150s44.167 -125.833 51.5 -200.5h-124c-7.33301 58.667 -20.666 111.167 -39.999 157.5
s-45.5 85.166 -78.5 116.499s-73 55.333 -120 72s-101.833 25 -164.5 25c-68 0 -128.667 -13.167 -182 -39.5s-98.666 -63.5 -135.999 -111.5s-65.833 -105.833 -85.5 -173.5s-29.5 -142.834 -29.5 -225.501v-185c0 -80 9.33301 -153.833 28 -221.5s46 -126 82 -175
s80.333 -87.167 133 -114.5s113 -41 181 -41c128.667 0 225.667 30.833 291 92.5s105.666 154.167 120.999 277.5h124zM956.999 1610v-10h-111l-168 183l-167 -183h-109v13l238 255h76z" />
    <glyph glyph-name="ccircumflex" unicode="&#x109;" horiz-adv-x="1055" 
d="M556 81c38 0 74.4971 5.49902 109.497 16.499s66.167 27.167 93.5 48.5s49.833 47.666 67.5 78.999s27.834 67.666 30.501 108.999h115c-2.66699 -51.333 -15.5 -98.666 -38.5 -141.999s-53.333 -80.666 -91 -111.999s-81.167 -55.833 -130.5 -73.5
s-101.333 -26.5 -156 -26.5c-76 0 -142.667 13.833 -200 41.5s-105.5 65.834 -144.5 114.501s-68.333 105.834 -88 171.501s-29.5 136.5 -29.5 212.5v42c0 76 9.83301 146.833 29.5 212.5s48.834 122.667 87.501 171s86.834 86.5 144.501 114.5s124.167 42 199.5 42
c58 0 111.833 -9 161.5 -27s93 -43.667 130 -77s66.5 -73.833 88.5 -121.5s34.333 -100.834 37 -159.501h-115c-2.66699 44 -12.167 83.333 -28.5 118s-38 64.334 -65 89.001s-58.333 43.5 -94 56.5s-73.834 19.5 -114.501 19.5c-62 0 -114.5 -12 -157.5 -36
s-78.167 -56.333 -105.5 -97s-47.166 -87.334 -59.499 -140.001s-18.5 -107.667 -18.5 -165v-42c0 -58 6.16699 -113.5 18.5 -166.5s32 -99.667 59 -140s62.333 -72.5 106 -96.5s96.5 -36 158.5 -36zM817.997 1268v-10h-111l-168 183l-167 -183h-109v13l238 255h76z" />
    <glyph glyph-name="uni010A" unicode="&#x10a;" horiz-adv-x="1330" 
d="M1215 454c-8 -74 -25.334 -140.33 -52.001 -198.997s-62.5 -108.334 -107.5 -149.001s-99 -71.834 -162 -93.501s-134.5 -32.5 -214.5 -32.5c-82.667 0 -157.667 15.667 -225 47s-125 75.833 -173 133.5s-85 126.834 -111 207.501s-39 170 -39 268v183
c0 98 13 187.5 39 268.5s63.167 150.167 111.5 207.5s106.833 101.833 175.5 133.5s145.667 47.5 231 47.5c77.333 0 147 -10.667 209 -32s115.167 -52.5 159.5 -93.5s80 -91 107 -150s44.167 -125.833 51.5 -200.5h-124c-7.33301 58.667 -20.666 111.167 -39.999 157.5
s-45.5 85.166 -78.5 116.499s-73 55.333 -120 72s-101.833 25 -164.5 25c-68 0 -128.667 -13.167 -182 -39.5s-98.666 -63.5 -135.999 -111.5s-65.833 -105.833 -85.5 -173.5s-29.5 -142.834 -29.5 -225.501v-185c0 -80 9.33301 -153.833 28 -221.5s46 -126 82 -175
s80.333 -87.167 133 -114.5s113 -41 181 -41c128.667 0 225.667 30.833 291 92.5s105.666 154.167 120.999 277.5h124zM599.999 1724c0 22.667 7.33301 41.834 22 57.501s34.667 23.5 60 23.5c26 0 46.333 -7.83301 61 -23.5s22 -34.834 22 -57.501
c0 -22 -7.33301 -40.667 -22 -56s-35 -23 -61 -23c-25.333 0 -45.333 7.66699 -60 23s-22 34 -22 56z" />
    <glyph glyph-name="uni010B" unicode="&#x10b;" horiz-adv-x="1055" 
d="M556 81c38 0 74.4971 5.49902 109.497 16.499s66.167 27.167 93.5 48.5s49.833 47.666 67.5 78.999s27.834 67.666 30.501 108.999h115c-2.66699 -51.333 -15.5 -98.666 -38.5 -141.999s-53.333 -80.666 -91 -111.999s-81.167 -55.833 -130.5 -73.5
s-101.333 -26.5 -156 -26.5c-76 0 -142.667 13.833 -200 41.5s-105.5 65.834 -144.5 114.501s-68.333 105.834 -88 171.501s-29.5 136.5 -29.5 212.5v42c0 76 9.83301 146.833 29.5 212.5s48.834 122.667 87.501 171s86.834 86.5 144.501 114.5s124.167 42 199.5 42
c58 0 111.833 -9 161.5 -27s93 -43.667 130 -77s66.5 -73.833 88.5 -121.5s34.333 -100.834 37 -159.501h-115c-2.66699 44 -12.167 83.333 -28.5 118s-38 64.334 -65 89.001s-58.333 43.5 -94 56.5s-73.834 19.5 -114.501 19.5c-62 0 -114.5 -12 -157.5 -36
s-78.167 -56.333 -105.5 -97s-47.166 -87.334 -59.499 -140.001s-18.5 -107.667 -18.5 -165v-42c0 -58 6.16699 -113.5 18.5 -166.5s32 -99.667 59 -140s62.333 -72.5 106 -96.5s96.5 -36 158.5 -36zM460.997 1382c0 22.667 7.33301 41.834 22 57.501s34.667 23.5 60 23.5
c26 0 46.333 -7.83301 61 -23.5s22 -34.834 22 -57.501c0 -22 -7.33301 -40.667 -22 -56s-35 -23 -61 -23c-25.333 0 -45.333 7.66699 -60 23s-22 34 -22 56z" />
    <glyph glyph-name="Ccaron" unicode="&#x10c;" horiz-adv-x="1330" 
d="M1215 454c-8 -74 -25.334 -140.33 -52.001 -198.997s-62.5 -108.334 -107.5 -149.001s-99 -71.834 -162 -93.501s-134.5 -32.5 -214.5 -32.5c-82.667 0 -157.667 15.667 -225 47s-125 75.833 -173 133.5s-85 126.834 -111 207.501s-39 170 -39 268v183
c0 98 13 187.5 39 268.5s63.167 150.167 111.5 207.5s106.833 101.833 175.5 133.5s145.667 47.5 231 47.5c77.333 0 147 -10.667 209 -32s115.167 -52.5 159.5 -93.5s80 -91 107 -150s44.167 -125.833 51.5 -200.5h-124c-7.33301 58.667 -20.666 111.167 -39.999 157.5
s-45.5 85.166 -78.5 116.499s-73 55.333 -120 72s-101.833 25 -164.5 25c-68 0 -128.667 -13.167 -182 -39.5s-98.666 -63.5 -135.999 -111.5s-65.833 -105.833 -85.5 -173.5s-29.5 -142.834 -29.5 -225.501v-185c0 -80 9.33301 -153.833 28 -221.5s46 -126 82 -175
s80.333 -87.167 133 -114.5s113 -41 181 -41c128.667 0 225.667 30.833 291 92.5s105.666 154.167 120.999 277.5h124zM676.999 1671l172 194h106v-12l-236 -261h-86l-235 262v11h107z" />
    <glyph glyph-name="ccaron" unicode="&#x10d;" horiz-adv-x="1055" 
d="M556 81c38 0 74.4971 5.49902 109.497 16.499s66.167 27.167 93.5 48.5s49.833 47.666 67.5 78.999s27.834 67.666 30.501 108.999h115c-2.66699 -51.333 -15.5 -98.666 -38.5 -141.999s-53.333 -80.666 -91 -111.999s-81.167 -55.833 -130.5 -73.5
s-101.333 -26.5 -156 -26.5c-76 0 -142.667 13.833 -200 41.5s-105.5 65.834 -144.5 114.501s-68.333 105.834 -88 171.501s-29.5 136.5 -29.5 212.5v42c0 76 9.83301 146.833 29.5 212.5s48.834 122.667 87.501 171s86.834 86.5 144.501 114.5s124.167 42 199.5 42
c58 0 111.833 -9 161.5 -27s93 -43.667 130 -77s66.5 -73.833 88.5 -121.5s34.333 -100.834 37 -159.501h-115c-2.66699 44 -12.167 83.333 -28.5 118s-38 64.334 -65 89.001s-58.333 43.5 -94 56.5s-73.834 19.5 -114.501 19.5c-62 0 -114.5 -12 -157.5 -36
s-78.167 -56.333 -105.5 -97s-47.166 -87.334 -59.499 -140.001s-18.5 -107.667 -18.5 -165v-42c0 -58 6.16699 -113.5 18.5 -166.5s32 -99.667 59 -140s62.333 -72.5 106 -96.5s96.5 -36 158.5 -36zM537.997 1328l172 194h106v-12l-236 -261h-86l-235 262v11h107z" />
    <glyph glyph-name="Dcaron" unicode="&#x10e;" horiz-adv-x="1341" 
d="M184 0l-0.00195312 1456h407c90.667 0 174.167 -15.667 250.5 -47s142 -76 197 -134s97.833 -127.667 128.5 -209s46 -172 46 -272v-133c0 -100 -15.333 -190.667 -46 -272s-73.667 -150.833 -129 -208.5s-121.666 -102.167 -198.999 -133.5s-162.666 -47 -255.999 -47
h-399zM306.998 1351l-0.000976562 -1247h276c78 0 148.333 13.5 211 40.5s116 65 160 114s77.833 107.667 101.5 176s35.5 143.833 35.5 226.5v136c0 84 -12 160.167 -36 228.5s-57.833 126.5 -101.5 174.5s-96.167 85.167 -157.5 111.5s-129.666 39.5 -204.999 39.5h-284z
M597.997 1650l172 194h106v-12l-236 -261h-86l-235 262v11h107z" />
    <glyph glyph-name="dcaron" unicode="&#x10f;" horiz-adv-x="1288" 
d="M108 551c0 84 9.66602 159.835 28.999 227.502s47 125.5 83 173.5s79.833 85 131.5 111s109.834 39 174.501 39c76.667 0 142.5 -15.333 197.5 -46s100.5 -73 136.5 -127v607h119v-1536h-112l-5 144c-36 -51.333 -81.833 -91.5 -137.5 -120.5s-122.5 -43.5 -200.5 -43.5
c-64 0 -121.667 13.5 -173 40.5s-95 64.667 -131 113s-63.667 106.166 -83 173.499s-29 141.666 -29 222.999v21zM228.999 530.002c0 -63.333 6.33008 -122.166 18.9971 -176.499s32 -101.5 58 -141.5s58.833 -71.333 98.5 -94s86.834 -34 141.501 -34
c40.667 0 77.5 4.83301 110.5 14.5s62.333 23.167 88 40.5s48 38 67 62s35.167 50 48.5 78v508c-12 27.333 -26.667 53.666 -44 78.999s-38.666 47.833 -63.999 67.5s-54.666 35.334 -87.999 47.001s-72 17.5 -116 17.5c-55.333 0 -103 -11.5 -143 -34.5
s-73 -54.5 -99 -94.5s-45.333 -87.333 -58 -142s-19 -113.334 -19 -176.001v-21zM1299 1420c0 -61.333 -12.334 -120.167 -37.001 -176.5s-59 -104.5 -103 -144.5l-71 52c15.333 20.667 28.833 41.334 40.5 62.001s21.334 41.667 29.001 63s13.5 43.666 17.5 66.999
s6 48.333 6 75v118h118v-116z" />
    <glyph glyph-name="Dcroat" unicode="&#x110;" horiz-adv-x="1371" 
d="M214 0l-0.00195312 689h-151v102h151v665h407c90.667 0 174.167 -15.667 250.5 -47s142 -76 197 -134s97.833 -127.667 128.5 -209s46 -172 46 -272v-133c0 -100 -15.333 -190.667 -46 -272s-73.667 -150.833 -129 -208.5s-121.666 -102.167 -198.999 -133.5
s-162.666 -47 -255.999 -47h-399zM674.998 689h-338.001v-585h276c78 0 148.333 13.5 211 40.5s116 65 160 114s77.833 107.667 101.5 176s35.5 143.833 35.5 226.5v136c0 84 -12 160.167 -36 228.5s-57.833 126.5 -101.5 174.5s-96.167 85.167 -157.5 111.5
s-129.666 39.5 -204.999 39.5h-284v-560h338v-102z" />
    <glyph glyph-name="dcroat" unicode="&#x111;" horiz-adv-x="1168" 
d="M1154 1257l-175.001 0.00195312v-1257h-112l-5 144c-36 -51.333 -81.833 -91.5 -137.5 -120.5s-122.5 -43.5 -200.5 -43.5c-64 0 -121.667 13.5 -173 40.5s-95 64.667 -131 113s-63.667 106.166 -83 173.499s-29 141.666 -29 222.999v21c0 84 9.66699 159.833 29 227.5
s47 125.5 83 173.5s79.833 85 131.5 111s109.834 39 174.501 39c76.667 0 142.5 -15.333 197.5 -46s100.5 -73 136.5 -127v328h-318v102h318v177h119v-177h175v-102zM228.999 530.002c0 -63.333 6.33008 -122.166 18.9971 -176.499s32 -101.5 58 -141.5
s58.833 -71.333 98.5 -94s86.834 -34 141.501 -34c40.667 0 77.5 4.83301 110.5 14.5s62.333 23.167 88 40.5s48 38 67 62s35.167 50 48.5 78v508c-12 27.333 -26.667 53.666 -44 78.999s-38.666 47.833 -63.999 67.5s-54.666 35.334 -87.999 47.001s-72 17.5 -116 17.5
c-55.333 0 -103 -11.5 -143 -34.5s-73 -54.5 -99 -94.5s-45.333 -87.333 -58 -142s-19 -113.334 -19 -176.001v-21z" />
    <glyph glyph-name="Emacron" unicode="&#x112;" horiz-adv-x="1165" 
d="M988 698h-681v-594h783v-104h-906v1456h901v-105h-778v-549h681v-104zM952 1689h-670v97h670v-97z" />
    <glyph glyph-name="emacron" unicode="&#x113;" horiz-adv-x="1058" 
d="M575 -20c-70.667 0 -135.667 13.165 -195 39.498s-110.5 63 -153.5 110s-76.5 102.833 -100.5 167.5s-36 135.667 -36 213v43c0 83.333 12.5 158.833 37.5 226.5s58.833 125.334 101.5 173.001s91.834 84.5 147.501 110.5s114.5 39 176.5 39
c68.667 0 129.667 -12.333 183 -37s98.166 -59 134.499 -103s63.833 -96.333 82.5 -157s28 -127 28 -199v-73h-772v-23c0 -59.333 9 -115.166 27 -167.499s43.333 -97.833 76 -136.5s71.667 -69.167 117 -91.5s95.666 -33.5 150.999 -33.5c64 0 120.5 11.667 169.5 35
s93.5 60.666 133.5 111.999l75 -57c-18 -26 -38.833 -50.667 -62.5 -74s-51.167 -43.666 -82.5 -60.999s-66.666 -31 -105.999 -41s-83.333 -15 -132 -15zM553 999.998c-45.333 0 -87.333 -8.66699 -126 -26s-72.834 -42 -102.501 -74s-54 -70.5 -73 -115.5
s-31.833 -94.833 -38.5 -149.5h649v13c-1.33301 45.333 -8.66602 89.166 -21.999 131.499s-32.833 79.833 -58.5 112.5s-57.5 58.834 -95.5 78.501s-82.333 29.5 -133 29.5zM899 1367h-670v97h670v-97z" />
    <glyph glyph-name="Ebreve" unicode="&#x114;" horiz-adv-x="1165" 
d="M988 698h-681v-594h783v-104h-906v1456h901v-105h-778v-549h681v-104zM908 1814c0 -38 -6.66699 -72.6699 -20 -104.003s-32.333 -58.333 -57 -81s-55 -40.334 -91 -53.001s-76.333 -19 -121 -19s-84.834 6.33301 -120.501 19s-66 30.334 -91 53.001
s-44.167 49.667 -57.5 81s-20 66 -20 104h102c0 -23.333 3.33301 -45.333 10 -66s17.334 -38.667 32.001 -54s34 -27.666 58 -36.999s53 -14 87 -14c33.333 0 61.833 4.66699 85.5 14s43 21.833 58 37.5s26 33.834 33 54.501s10.5 42.334 10.5 65.001h102z" />
    <glyph glyph-name="ebreve" unicode="&#x115;" horiz-adv-x="1058" 
d="M575 -20c-70.667 0 -135.667 13.165 -195 39.498s-110.5 63 -153.5 110s-76.5 102.833 -100.5 167.5s-36 135.667 -36 213v43c0 83.333 12.5 158.833 37.5 226.5s58.833 125.334 101.5 173.001s91.834 84.5 147.501 110.5s114.5 39 176.5 39
c68.667 0 129.667 -12.333 183 -37s98.166 -59 134.499 -103s63.833 -96.333 82.5 -157s28 -127 28 -199v-73h-772v-23c0 -59.333 9 -115.166 27 -167.499s43.333 -97.833 76 -136.5s71.667 -69.167 117 -91.5s95.666 -33.5 150.999 -33.5c64 0 120.5 11.667 169.5 35
s93.5 60.666 133.5 111.999l75 -57c-18 -26 -38.833 -50.667 -62.5 -74s-51.167 -43.666 -82.5 -60.999s-66.666 -31 -105.999 -41s-83.333 -15 -132 -15zM553 999.998c-45.333 0 -87.333 -8.66699 -126 -26s-72.834 -42 -102.501 -74s-54 -70.5 -73 -115.5
s-31.833 -94.833 -38.5 -149.5h649v13c-1.33301 45.333 -8.66602 89.166 -21.999 131.499s-32.833 79.833 -58.5 112.5s-57.5 58.834 -95.5 78.501s-82.333 29.5 -133 29.5zM855 1492c0 -38 -6.66699 -72.6699 -20 -104.003s-32.333 -58.333 -57 -81
s-55 -40.334 -91 -53.001s-76.333 -19 -121 -19s-84.834 6.33301 -120.501 19s-66 30.334 -91 53.001s-44.167 49.667 -57.5 81s-20 66 -20 104h102c0 -23.333 3.33301 -45.333 10 -66s17.334 -38.667 32.001 -54s34 -27.666 58 -36.999s53 -14 87 -14
c33.333 0 61.833 4.66699 85.5 14s43 21.833 58 37.5s26 33.834 33 54.501s10.5 42.334 10.5 65.001h102z" />
    <glyph glyph-name="Edotaccent" unicode="&#x116;" horiz-adv-x="1165" 
d="M988 698h-681v-594h783v-104h-906v1456h901v-105h-778v-549h681v-104zM541 1703c0 22.667 7.33301 41.834 22 57.501s34.667 23.5 60 23.5c26 0 46.333 -7.83301 61 -23.5s22 -34.834 22 -57.501c0 -22 -7.33301 -40.667 -22 -56s-35 -23 -61 -23
c-25.333 0 -45.333 7.66699 -60 23s-22 34 -22 56z" />
    <glyph glyph-name="edotaccent" unicode="&#x117;" horiz-adv-x="1058" 
d="M575 -20c-70.667 0 -135.667 13.165 -195 39.498s-110.5 63 -153.5 110s-76.5 102.833 -100.5 167.5s-36 135.667 -36 213v43c0 83.333 12.5 158.833 37.5 226.5s58.833 125.334 101.5 173.001s91.834 84.5 147.501 110.5s114.5 39 176.5 39
c68.667 0 129.667 -12.333 183 -37s98.166 -59 134.499 -103s63.833 -96.333 82.5 -157s28 -127 28 -199v-73h-772v-23c0 -59.333 9 -115.166 27 -167.499s43.333 -97.833 76 -136.5s71.667 -69.167 117 -91.5s95.666 -33.5 150.999 -33.5c64 0 120.5 11.667 169.5 35
s93.5 60.666 133.5 111.999l75 -57c-18 -26 -38.833 -50.667 -62.5 -74s-51.167 -43.666 -82.5 -60.999s-66.666 -31 -105.999 -41s-83.333 -15 -132 -15zM553 999.998c-45.333 0 -87.333 -8.66699 -126 -26s-72.834 -42 -102.501 -74s-54 -70.5 -73 -115.5
s-31.833 -94.833 -38.5 -149.5h649v13c-1.33301 45.333 -8.66602 89.166 -21.999 131.499s-32.833 79.833 -58.5 112.5s-57.5 58.834 -95.5 78.501s-82.333 29.5 -133 29.5zM488 1382c0 22.667 7.33301 41.834 22 57.501s34.667 23.5 60 23.5c26 0 46.333 -7.83301 61 -23.5
s22 -34.834 22 -57.501c0 -22 -7.33301 -40.667 -22 -56s-35 -23 -61 -23c-25.333 0 -45.333 7.66699 -60 23s-22 34 -22 56z" />
    <glyph glyph-name="Eogonek" unicode="&#x118;" horiz-adv-x="1165" 
d="M988 698h-680.999v-594h783v-104h-66c-22.667 -17.333 -44.667 -35 -66 -53s-40.333 -36.5 -57 -55.5s-30.167 -39 -40.5 -60s-15.5 -42.833 -15.5 -65.5c0 -23.333 6 -43.166 18 -59.499s34.333 -24.5 67 -24.5c24.667 0 45.5 3.66699 62.5 11
s31.167 14.666 42.5 21.999l15 -84c-14.667 -10 -33.334 -19.833 -56.001 -29.5s-51.667 -14.5 -87 -14.5c-24.667 0 -47.5 3.5 -68.5 10.5s-39 17.5 -54 31.5s-26.667 31.667 -35 53s-12.5 46 -12.5 74c0 42.667 15 85 45 127s71 81 123 117h-721v1456h901v-105h-778v-549
h681v-104z" />
    <glyph glyph-name="eogonek" unicode="&#x119;" horiz-adv-x="1058" 
d="M575 -20c-70.667 0 -135.666 13.165 -194.999 39.498s-110.5 63 -153.5 110s-76.5 102.833 -100.5 167.5s-36 135.667 -36 213v43c0 83.333 12.5 158.833 37.5 226.5s58.833 125.334 101.5 173.001s91.834 84.5 147.501 110.5s114.5 39 176.5 39
c68.667 0 129.667 -12.333 183 -37s98.166 -59 134.499 -103s63.833 -96.333 82.5 -157s28 -127 28 -199v-73h-772v-23c0 -59.333 9 -115.166 27 -167.499s43.333 -97.833 76 -136.5s71.667 -69.167 117 -91.5s95.666 -33.5 150.999 -33.5c64 0 120.5 11.667 169.5 35
s93.5 60.666 133.5 111.999l75 -57c-17.333 -25.333 -37.333 -49.166 -60 -71.499s-49 -42.166 -79 -59.499c-22 -17.333 -43.667 -34.833 -65 -52.5s-40.166 -36 -56.499 -55s-29.5 -38.833 -39.5 -59.5s-15 -42.334 -15 -65.001c0 -23.333 6 -43.166 18 -59.499
s34.333 -24.5 67 -24.5c24.667 0 45.5 3.66699 62.5 11s31.167 14.666 42.5 21.999l15 -84c-14.667 -10 -33.334 -19.833 -56.001 -29.5s-51.667 -14.5 -87 -14.5c-24.667 0 -47.5 3.5 -68.5 10.5s-39 17.5 -54 31.5s-26.667 31.667 -35 53s-12.5 46 -12.5 74
c0 32 8.16699 63.5 24.5 94.5s39.5 61.167 69.5 90.5c-17.333 -2 -35.333 -3 -54 -3zM553.001 999.998c-45.333 0 -87.333 -8.66699 -126 -26s-72.834 -42 -102.501 -74s-54 -70.5 -73 -115.5s-31.833 -94.833 -38.5 -149.5h649v13
c-1.33301 45.333 -8.66602 89.166 -21.999 131.499s-32.833 79.833 -58.5 112.5s-57.5 58.834 -95.5 78.501s-82.333 29.5 -133 29.5z" />
    <glyph glyph-name="Ecaron" unicode="&#x11a;" horiz-adv-x="1165" 
d="M988 698h-681v-594h783v-104h-906v1456h901v-105h-778v-549h681v-104zM618 1650l172 194h106v-12l-236 -261h-86l-235 262v11h107z" />
    <glyph glyph-name="ecaron" unicode="&#x11b;" horiz-adv-x="1058" 
d="M575 -20c-70.667 0 -135.667 13.165 -195 39.498s-110.5 63 -153.5 110s-76.5 102.833 -100.5 167.5s-36 135.667 -36 213v43c0 83.333 12.5 158.833 37.5 226.5s58.833 125.334 101.5 173.001s91.834 84.5 147.501 110.5s114.5 39 176.5 39
c68.667 0 129.667 -12.333 183 -37s98.166 -59 134.499 -103s63.833 -96.333 82.5 -157s28 -127 28 -199v-73h-772v-23c0 -59.333 9 -115.166 27 -167.499s43.333 -97.833 76 -136.5s71.667 -69.167 117 -91.5s95.666 -33.5 150.999 -33.5c64 0 120.5 11.667 169.5 35
s93.5 60.666 133.5 111.999l75 -57c-18 -26 -38.833 -50.667 -62.5 -74s-51.167 -43.666 -82.5 -60.999s-66.666 -31 -105.999 -41s-83.333 -15 -132 -15zM553 999.998c-45.333 0 -87.333 -8.66699 -126 -26s-72.834 -42 -102.501 -74s-54 -70.5 -73 -115.5
s-31.833 -94.833 -38.5 -149.5h649v13c-1.33301 45.333 -8.66602 89.166 -21.999 131.499s-32.833 79.833 -58.5 112.5s-57.5 58.834 -95.5 78.501s-82.333 29.5 -133 29.5zM565 1328l172 194h106v-12l-236 -261h-86l-235 262v11h107z" />
    <glyph glyph-name="Gcircumflex" unicode="&#x11c;" horiz-adv-x="1400" 
d="M1235 173c-12.667 -18 -31.8281 -38.3359 -57.4951 -61.0029s-59 -43.667 -100 -63s-90.333 -35.666 -148 -48.999s-124.5 -20 -200.5 -20c-86 0 -164.667 15.5 -236 46.5s-132.833 75.333 -184.5 133s-91.834 127.5 -120.501 209.5s-43 174 -43 276v177
c0 100 13 190.333 39 271s63.5 149.334 112.5 206.001s108.167 100.334 177.5 131.001s147.666 46 234.999 46c80.667 0 152 -10.833 214 -32.5s114.667 -51.834 158 -90.501s77.666 -84.167 102.999 -136.5s42 -109.166 50 -170.499h-123
c-7.33301 43.333 -20 84.666 -38 123.999s-43 73.833 -75 103.5s-71.5 53.334 -118.5 71.001s-103.5 26.5 -169.5 26.5c-71.333 0 -134.333 -13.167 -189 -39.5s-100.834 -63.333 -138.501 -111s-66.167 -105.167 -85.5 -172.5s-29 -142 -29 -224v-179
c0 -85.333 11 -162.5 33 -231.5s53.167 -127.833 93.5 -176.5s88.833 -86.334 145.5 -113.001s119.667 -40 189 -40c56 0 105.333 4.16699 148 12.5s79.667 18.833 111 31.5s57.166 26.334 77.499 41.001s35.833 28.667 46.5 42v376h-391v104h514v-518zM966.006 1610v-10
h-111l-168 183l-167 -183h-109v13l238 255h76z" />
    <glyph glyph-name="gcircumflex" unicode="&#x11d;" horiz-adv-x="1136" 
d="M108 551c0 84 9.50293 159.836 28.5029 227.503s46.5 125.5 82.5 173.5s79.833 85 131.5 111s110.167 39 175.5 39c77.333 0 143.666 -15.5 198.999 -46.5s101 -74.167 137 -129.5l6 156h112v-1063c0 -70 -10.333 -132.833 -31 -188.5s-49.834 -102.834 -87.501 -141.501
s-83.167 -68.334 -136.5 -89.001s-113 -31 -179 -31c-34 0 -68.667 3.83301 -104 11.5s-69.5 19.167 -102.5 34.5s-64.167 34.5 -93.5 57.5s-55 50.167 -77 81.5l67 72c44 -54 90.667 -93.5 140 -118.5s103.333 -37.5 162 -37.5c51.333 0 96.833 7.83301 136.5 23.5
s73.167 38.334 100.5 68.001s48.166 65.667 62.499 108s21.5 90.5 21.5 144.5v126c-36 -50 -81.667 -89.167 -137 -117.5s-121.333 -42.5 -198 -42.5c-64.667 0 -122.667 13.5 -174 40.5s-95 64.667 -131 113s-63.5 106.166 -82.5 173.499s-28.5 141.666 -28.5 222.999v21z
M229.003 530.003c0 -63.333 6.33203 -122.168 18.999 -176.501s32 -101.5 58 -141.5s58.833 -71.333 98.5 -94s86.834 -34 141.501 -34c41.333 0 78.5 5 111.5 15s62.167 23.833 87.5 41.5s47.333 38.5 66 62.5s34.667 50.333 48 79v503
c-11.333 28 -25.833 54.833 -43.5 80.5s-39 48.334 -64 68.001s-54.167 35.334 -87.5 47.001s-72 17.5 -116 17.5c-55.333 0 -103 -11.5 -143 -34.5s-73 -54.5 -99 -94.5s-45.333 -87.333 -58 -142s-19 -113.334 -19 -176.001v-21zM840.002 1268v-10h-111l-168 183
l-167 -183h-109v13l238 255h76z" />
    <glyph glyph-name="Gbreve" unicode="&#x11e;" horiz-adv-x="1400" 
d="M1235 173c-12.667 -18 -31.8281 -38.3359 -57.4951 -61.0029s-59 -43.667 -100 -63s-90.333 -35.666 -148 -48.999s-124.5 -20 -200.5 -20c-86 0 -164.667 15.5 -236 46.5s-132.833 75.333 -184.5 133s-91.834 127.5 -120.501 209.5s-43 174 -43 276v177
c0 100 13 190.333 39 271s63.5 149.334 112.5 206.001s108.167 100.334 177.5 131.001s147.666 46 234.999 46c80.667 0 152 -10.833 214 -32.5s114.667 -51.834 158 -90.501s77.666 -84.167 102.999 -136.5s42 -109.166 50 -170.499h-123
c-7.33301 43.333 -20 84.666 -38 123.999s-43 73.833 -75 103.5s-71.5 53.334 -118.5 71.001s-103.5 26.5 -169.5 26.5c-71.333 0 -134.333 -13.167 -189 -39.5s-100.834 -63.333 -138.501 -111s-66.167 -105.167 -85.5 -172.5s-29 -142 -29 -224v-179
c0 -85.333 11 -162.5 33 -231.5s53.167 -127.833 93.5 -176.5s88.833 -86.334 145.5 -113.001s119.667 -40 189 -40c56 0 105.333 4.16699 148 12.5s79.667 18.833 111 31.5s57.166 26.334 77.499 41.001s35.833 28.667 46.5 42v376h-391v104h514v-518zM976.006 1835
c0 -38 -6.66699 -72.6699 -20 -104.003s-32.333 -58.333 -57 -81s-55 -40.334 -91 -53.001s-76.333 -19 -121 -19s-84.834 6.33301 -120.501 19s-66 30.334 -91 53.001s-44.167 49.667 -57.5 81s-20 66 -20 104h102c0 -23.333 3.33301 -45.333 10 -66
s17.334 -38.667 32.001 -54s34 -27.666 58 -36.999s53 -14 87 -14c33.333 0 61.833 4.66699 85.5 14s43 21.833 58 37.5s26 33.834 33 54.501s10.5 42.334 10.5 65.001h102z" />
    <glyph glyph-name="gbreve" unicode="&#x11f;" horiz-adv-x="1136" 
d="M108 551c0 84 9.50293 159.836 28.5029 227.503s46.5 125.5 82.5 173.5s79.833 85 131.5 111s110.167 39 175.5 39c77.333 0 143.666 -15.5 198.999 -46.5s101 -74.167 137 -129.5l6 156h112v-1063c0 -70 -10.333 -132.833 -31 -188.5s-49.834 -102.834 -87.501 -141.501
s-83.167 -68.334 -136.5 -89.001s-113 -31 -179 -31c-34 0 -68.667 3.83301 -104 11.5s-69.5 19.167 -102.5 34.5s-64.167 34.5 -93.5 57.5s-55 50.167 -77 81.5l67 72c44 -54 90.667 -93.5 140 -118.5s103.333 -37.5 162 -37.5c51.333 0 96.833 7.83301 136.5 23.5
s73.167 38.334 100.5 68.001s48.166 65.667 62.499 108s21.5 90.5 21.5 144.5v126c-36 -50 -81.667 -89.167 -137 -117.5s-121.333 -42.5 -198 -42.5c-64.667 0 -122.667 13.5 -174 40.5s-95 64.667 -131 113s-63.5 106.166 -82.5 173.499s-28.5 141.666 -28.5 222.999v21z
M229.003 530.003c0 -63.333 6.33203 -122.168 18.999 -176.501s32 -101.5 58 -141.5s58.833 -71.333 98.5 -94s86.834 -34 141.501 -34c41.333 0 78.5 5 111.5 15s62.167 23.833 87.5 41.5s47.333 38.5 66 62.5s34.667 50.333 48 79v503
c-11.333 28 -25.833 54.833 -43.5 80.5s-39 48.334 -64 68.001s-54.167 35.334 -87.5 47.001s-72 17.5 -116 17.5c-55.333 0 -103 -11.5 -143 -34.5s-73 -54.5 -99 -94.5s-45.333 -87.333 -58 -142s-19 -113.334 -19 -176.001v-21zM850.002 1492
c0 -38 -6.66699 -72.6699 -20 -104.003s-32.333 -58.333 -57 -81s-55 -40.334 -91 -53.001s-76.333 -19 -121 -19s-84.834 6.33301 -120.501 19s-66 30.334 -91 53.001s-44.167 49.667 -57.5 81s-20 66 -20 104h102c0 -23.333 3.33301 -45.333 10 -66
s17.334 -38.667 32.001 -54s34 -27.666 58 -36.999s53 -14 87 -14c33.333 0 61.833 4.66699 85.5 14s43 21.833 58 37.5s26 33.834 33 54.501s10.5 42.334 10.5 65.001h102z" />
    <glyph glyph-name="uni0120" unicode="&#x120;" horiz-adv-x="1400" 
d="M1235 173c-12.667 -18 -31.8281 -38.3359 -57.4951 -61.0029s-59 -43.667 -100 -63s-90.333 -35.666 -148 -48.999s-124.5 -20 -200.5 -20c-86 0 -164.667 15.5 -236 46.5s-132.833 75.333 -184.5 133s-91.834 127.5 -120.501 209.5s-43 174 -43 276v177
c0 100 13 190.333 39 271s63.5 149.334 112.5 206.001s108.167 100.334 177.5 131.001s147.666 46 234.999 46c80.667 0 152 -10.833 214 -32.5s114.667 -51.834 158 -90.501s77.666 -84.167 102.999 -136.5s42 -109.166 50 -170.499h-123
c-7.33301 43.333 -20 84.666 -38 123.999s-43 73.833 -75 103.5s-71.5 53.334 -118.5 71.001s-103.5 26.5 -169.5 26.5c-71.333 0 -134.333 -13.167 -189 -39.5s-100.834 -63.333 -138.501 -111s-66.167 -105.167 -85.5 -172.5s-29 -142 -29 -224v-179
c0 -85.333 11 -162.5 33 -231.5s53.167 -127.833 93.5 -176.5s88.833 -86.334 145.5 -113.001s119.667 -40 189 -40c56 0 105.333 4.16699 148 12.5s79.667 18.833 111 31.5s57.166 26.334 77.499 41.001s35.833 28.667 46.5 42v376h-391v104h514v-518zM609.006 1724
c0 22.667 7.33301 41.834 22 57.501s34.667 23.5 60 23.5c26 0 46.333 -7.83301 61 -23.5s22 -34.834 22 -57.501c0 -22 -7.33301 -40.667 -22 -56s-35 -23 -61 -23c-25.333 0 -45.333 7.66699 -60 23s-22 34 -22 56z" />
    <glyph glyph-name="uni0121" unicode="&#x121;" horiz-adv-x="1136" 
d="M108 551c0 84 9.50293 159.836 28.5029 227.503s46.5 125.5 82.5 173.5s79.833 85 131.5 111s110.167 39 175.5 39c77.333 0 143.666 -15.5 198.999 -46.5s101 -74.167 137 -129.5l6 156h112v-1063c0 -70 -10.333 -132.833 -31 -188.5s-49.834 -102.834 -87.501 -141.501
s-83.167 -68.334 -136.5 -89.001s-113 -31 -179 -31c-34 0 -68.667 3.83301 -104 11.5s-69.5 19.167 -102.5 34.5s-64.167 34.5 -93.5 57.5s-55 50.167 -77 81.5l67 72c44 -54 90.667 -93.5 140 -118.5s103.333 -37.5 162 -37.5c51.333 0 96.833 7.83301 136.5 23.5
s73.167 38.334 100.5 68.001s48.166 65.667 62.499 108s21.5 90.5 21.5 144.5v126c-36 -50 -81.667 -89.167 -137 -117.5s-121.333 -42.5 -198 -42.5c-64.667 0 -122.667 13.5 -174 40.5s-95 64.667 -131 113s-63.5 106.166 -82.5 173.499s-28.5 141.666 -28.5 222.999v21z
M229.003 530.003c0 -63.333 6.33203 -122.168 18.999 -176.501s32 -101.5 58 -141.5s58.833 -71.333 98.5 -94s86.834 -34 141.501 -34c41.333 0 78.5 5 111.5 15s62.167 23.833 87.5 41.5s47.333 38.5 66 62.5s34.667 50.333 48 79v503
c-11.333 28 -25.833 54.833 -43.5 80.5s-39 48.334 -64 68.001s-54.167 35.334 -87.5 47.001s-72 17.5 -116 17.5c-55.333 0 -103 -11.5 -143 -34.5s-73 -54.5 -99 -94.5s-45.333 -87.333 -58 -142s-19 -113.334 -19 -176.001v-21zM483.002 1382
c0 22.667 7.33301 41.834 22 57.501s34.667 23.5 60 23.5c26 0 46.333 -7.83301 61 -23.5s22 -34.834 22 -57.501c0 -22 -7.33301 -40.667 -22 -56s-35 -23 -61 -23c-25.333 0 -45.333 7.66699 -60 23s-22 34 -22 56z" />
    <glyph glyph-name="Gcommaaccent" unicode="&#x122;" horiz-adv-x="1400" 
d="M1235 173c-12.667 -18 -31.8281 -38.3359 -57.4951 -61.0029s-59 -43.667 -100 -63s-90.333 -35.666 -148 -48.999s-124.5 -20 -200.5 -20c-86 0 -164.667 15.5 -236 46.5s-132.833 75.333 -184.5 133s-91.834 127.5 -120.501 209.5s-43 174 -43 276v177
c0 100 13 190.333 39 271s63.5 149.334 112.5 206.001s108.167 100.334 177.5 131.001s147.666 46 234.999 46c80.667 0 152 -10.833 214 -32.5s114.667 -51.834 158 -90.501s77.666 -84.167 102.999 -136.5s42 -109.166 50 -170.499h-123
c-7.33301 43.333 -20 84.666 -38 123.999s-43 73.833 -75 103.5s-71.5 53.334 -118.5 71.001s-103.5 26.5 -169.5 26.5c-71.333 0 -134.333 -13.167 -189 -39.5s-100.834 -63.333 -138.501 -111s-66.167 -105.167 -85.5 -172.5s-29 -142 -29 -224v-179
c0 -85.333 11 -162.5 33 -231.5s53.167 -127.833 93.5 -176.5s88.833 -86.334 145.5 -113.001s119.667 -40 189 -40c56 0 105.333 4.16699 148 12.5s79.667 18.833 111 31.5s57.166 26.334 77.499 41.001s35.833 28.667 46.5 42v376h-391v104h514v-518zM759.006 -187.003
c0 -52.667 -9.83398 -104 -29.501 -154s-48.5 -92 -86.5 -126l-71 52c24.667 35.333 42.834 70.5 54.501 105.5s17.5 74.833 17.5 119.5v81h115v-78z" />
    <glyph glyph-name="gcommaaccent" unicode="&#x123;" horiz-adv-x="1136" 
d="M108 551c0 84 9.50293 159.836 28.5029 227.503s46.5 125.5 82.5 173.5s79.833 85 131.5 111s110.167 39 175.5 39c77.333 0 143.666 -15.5 198.999 -46.5s101 -74.167 137 -129.5l6 156h112v-1063c0 -70 -10.333 -132.833 -31 -188.5s-49.834 -102.834 -87.501 -141.501
s-83.167 -68.334 -136.5 -89.001s-113 -31 -179 -31c-34 0 -68.667 3.83301 -104 11.5s-69.5 19.167 -102.5 34.5s-64.167 34.5 -93.5 57.5s-55 50.167 -77 81.5l67 72c44 -54 90.667 -93.5 140 -118.5s103.333 -37.5 162 -37.5c51.333 0 96.833 7.83301 136.5 23.5
s73.167 38.334 100.5 68.001s48.166 65.667 62.499 108s21.5 90.5 21.5 144.5v126c-36 -50 -81.667 -89.167 -137 -117.5s-121.333 -42.5 -198 -42.5c-64.667 0 -122.667 13.5 -174 40.5s-95 64.667 -131 113s-63.5 106.166 -82.5 173.499s-28.5 141.666 -28.5 222.999v21z
M229.003 530.003c0 -63.333 6.33203 -122.168 18.999 -176.501s32 -101.5 58 -141.5s58.833 -71.333 98.5 -94s86.834 -34 141.501 -34c41.333 0 78.5 5 111.5 15s62.167 23.833 87.5 41.5s47.333 38.5 66 62.5s34.667 50.333 48 79v503
c-11.333 28 -25.833 54.833 -43.5 80.5s-39 48.334 -64 68.001s-54.167 35.334 -87.5 47.001s-72 17.5 -116 17.5c-55.333 0 -103 -11.5 -143 -34.5s-73 -54.5 -99 -94.5s-45.333 -87.333 -58 -142s-19 -113.334 -19 -176.001v-21zM498.002 1392c0 24.667 3 48.667 9 72
s13.667 45.5 23 66.5s19.833 40.333 31.5 58s23.5 33.167 35.5 46.5l76 -49c-19.333 -35.333 -33.5 -68 -42.5 -98s-13.5 -62.667 -13.5 -98v-126h-119v128z" />
    <glyph glyph-name="Hcircumflex" unicode="&#x124;" horiz-adv-x="1449" 
d="M1263 0h-124v698h-832v-698h-123v1456h123v-654h832v654h124v-1456zM993 1589v-10h-111l-168 183l-167 -183h-109v13l238 255h76z" />
    <glyph glyph-name="hcircumflex" unicode="&#x125;" horiz-adv-x="1124" 
d="M275 899c18.667 30.667 40.332 58.4971 64.999 83.4971s51.834 46.333 81.501 64s61.667 31.334 96 41.001s70.833 14.5 109.5 14.5c54 0 102.333 -7.33301 145 -22s78.834 -38 108.501 -70s52.334 -73.167 68.001 -123.5s23.5 -111.166 23.5 -182.499v-704h-119v705
c0 56 -6 102.667 -18 140s-29 67.333 -51 90s-48.833 38.834 -80.5 48.501s-66.834 14.5 -105.501 14.5c-42.667 0 -81.334 -7.16699 -116.001 -21.5s-65.334 -33.5 -92.001 -57.5s-49.667 -51.5 -69 -82.5s-34.666 -62.833 -45.999 -95.5v-741h-119v1536h119v-637z
M764.998 1588v-10h-111l-168 183l-167 -183h-109v13l238 255h76z" />
    <glyph glyph-name="Hbar" unicode="&#x126;" horiz-adv-x="1412" 
d="M1240 1123h144v-97h-144v-1026h-124v698h-832v-698h-123v1026h-136v97h136v333h123v-333h832v333h124v-333zM284 802h832v224h-832v-224z" />
    <glyph glyph-name="hbar" unicode="&#x127;" horiz-adv-x="1154" 
d="M642 1257l-337.002 -0.00292969v-358c18.667 30.667 40.334 58.5 65.001 83.5s51.834 46.333 81.501 64s61.667 31.334 96 41.001s70.833 14.5 109.5 14.5c54 0 102.333 -7.33301 145 -22s78.834 -38 108.501 -70s52.334 -73.167 68.001 -123.5
s23.5 -111.166 23.5 -182.499v-704h-119v705c0 56 -6 102.667 -18 140s-29 67.333 -51 90s-48.833 38.834 -80.5 48.501s-66.834 14.5 -105.501 14.5c-42.667 0 -81.334 -7.16699 -116.001 -21.5s-65.334 -33.5 -92.001 -57.5s-49.667 -51.5 -69 -82.5
s-34.666 -62.833 -45.999 -95.5v-741h-119v1257h-156v102h156v177h119v-177h337v-102z" />
    <glyph glyph-name="Itilde" unicode="&#x128;" horiz-adv-x="545" 
d="M334 0h-123v1456h123v-1456zM615 1815c0 -32 -4.99805 -61.165 -14.998 -87.498s-23.833 -48.666 -41.5 -66.999s-38.334 -32.666 -62.001 -42.999s-49.167 -15.5 -76.5 -15.5c-23.333 0 -43.833 2.66699 -61.5 8s-33.5 12.166 -47.5 20.499s-27.167 17.166 -39.5 26.499
s-25 18.166 -38 26.499s-26.833 15.166 -41.5 20.499s-31.334 8 -50.001 8c-31.333 0 -57.5 -10.333 -78.5 -31s-31.5 -49.667 -31.5 -87l-90 3c0 32 5 61 15 87s23.667 48.333 41 67s38 33 62 43s49.667 15 77 15c32 0 59.333 -5.66699 82 -17s44 -24 64 -38
s40.167 -26.667 60.5 -38s44.166 -17 71.499 -17c30.667 0 56.834 11 78.501 33s32.5 51.667 32.5 89z" />
    <glyph glyph-name="itilde" unicode="&#x129;" horiz-adv-x="456" 
d="M288 0h-120v1082h120v-1082zM572 1482c0 -32 -4.99805 -61.165 -14.998 -87.498s-23.833 -48.666 -41.5 -66.999s-38.334 -32.666 -62.001 -42.999s-49.167 -15.5 -76.5 -15.5c-23.333 0 -43.833 2.66699 -61.5 8s-33.5 12.166 -47.5 20.499s-27.167 17.166 -39.5 26.499
s-25 18.166 -38 26.499s-26.833 15.166 -41.5 20.499s-31.334 8 -50.001 8c-31.333 0 -57.5 -10.333 -78.5 -31s-31.5 -49.667 -31.5 -87l-90 3c0 32 5 61 15 87s23.667 48.333 41 67s38 33 62 43s49.667 15 77 15c32 0 59.333 -5.66699 82 -17s44 -24 64 -38
s40.167 -26.667 60.5 -38s44.166 -17 71.499 -17c30.667 0 56.834 11 78.501 33s32.5 51.667 32.5 89z" />
    <glyph glyph-name="Imacron" unicode="&#x12a;" horiz-adv-x="545" 
d="M334 0h-123v1456h123v-1456zM607 1689h-670v97h670v-97z" />
    <glyph glyph-name="imacron" unicode="&#x12b;" horiz-adv-x="456" 
d="M288 0h-120v1082h120v-1082zM564 1356h-670v97h670v-97z" />
    <glyph glyph-name="Ibreve" unicode="&#x12c;" horiz-adv-x="545" 
d="M334 0h-123v1456h123v-1456zM563 1814c0 -38 -6.66699 -72.6699 -20 -104.003s-32.333 -58.333 -57 -81s-55 -40.334 -91 -53.001s-76.333 -19 -121 -19s-84.834 6.33301 -120.501 19s-66 30.334 -91 53.001s-44.167 49.667 -57.5 81s-20 66 -20 104h102
c0 -23.333 3.33301 -45.333 10 -66s17.334 -38.667 32.001 -54s34 -27.666 58 -36.999s53 -14 87 -14c33.333 0 61.833 4.66699 85.5 14s43 21.833 58 37.5s26 33.834 33 54.501s10.5 42.334 10.5 65.001h102z" />
    <glyph glyph-name="ibreve" unicode="&#x12d;" horiz-adv-x="456" 
d="M288 0h-120v1082h120v-1082zM520 1481c0 -38 -6.66699 -72.6699 -20 -104.003s-32.333 -58.333 -57 -81s-55 -40.334 -91 -53.001s-76.333 -19 -121 -19s-84.834 6.33301 -120.501 19s-66 30.334 -91 53.001s-44.167 49.667 -57.5 81s-20 66 -20 104h102
c0 -23.333 3.33301 -45.333 10 -66s17.334 -38.667 32.001 -54s34 -27.666 58 -36.999s53 -14 87 -14c33.333 0 61.833 4.66699 85.5 14s43 21.833 58 37.5s26 33.834 33 54.501s10.5 42.334 10.5 65.001h102z" />
    <glyph glyph-name="Iogonek" unicode="&#x12e;" horiz-adv-x="545" 
d="M334 0h-19.999c-22.667 -17.333 -44.667 -35 -66 -53s-40.333 -36.5 -57 -55.5s-30.167 -39 -40.5 -60s-15.5 -42.833 -15.5 -65.5c0 -23.333 6 -43.166 18 -59.499s34.333 -24.5 67 -24.5c24.667 0 45.5 3.66699 62.5 11s31.167 14.666 42.5 21.999l15 -84
c-14.667 -10 -33.334 -19.833 -56.001 -29.5s-51.667 -14.5 -87 -14.5c-24.667 0 -47.5 3.5 -68.5 10.5s-39 17.5 -54 31.5s-26.667 31.667 -35 53s-12.5 46 -12.5 74c0 44.667 16.333 89 49 133s77.667 84.333 135 121v1446h123v-1456z" />
    <glyph glyph-name="iogonek" unicode="&#x12f;" horiz-adv-x="459" 
d="M290 0h-7.99902c-22.667 -17.333 -44.667 -35 -66 -53s-40.333 -36.5 -57 -55.5s-30.167 -39 -40.5 -60s-15.5 -42.833 -15.5 -65.5c0 -23.333 6 -43.166 18 -59.499s34.333 -24.5 67 -24.5c24.667 0 45.5 3.66699 62.5 11s31.167 14.666 42.5 21.999l15 -84
c-14.667 -10 -33.334 -19.833 -56.001 -29.5s-51.667 -14.5 -87 -14.5c-24.667 0 -47.5 3.5 -68.5 10.5s-39 17.5 -54 31.5s-26.667 31.667 -35 53s-12.5 46 -12.5 74c0 44 15.667 87.333 47 130s74 82 128 118v1078h120v-1082zM149.001 1395
c0 22.667 7.33301 41.834 22 57.501s34.667 23.5 60 23.5s45.5 -7.83301 60.5 -23.5s22.5 -34.834 22.5 -57.501s-7.5 -41.667 -22.5 -57s-35.167 -23 -60.5 -23s-45.333 7.66699 -60 23s-22 34.333 -22 57z" />
    <glyph glyph-name="Idotaccent" unicode="&#x130;" horiz-adv-x="545" 
d="M334 0h-123v1456h123v-1456zM195 1703c0 22.667 7.33301 41.834 22 57.501s34.667 23.5 60 23.5c26 0 46.333 -7.83301 61 -23.5s22 -34.834 22 -57.501c0 -22 -7.33301 -40.667 -22 -56s-35 -23 -61 -23c-25.333 0 -45.333 7.66699 -60 23s-22 34 -22 56z" />
    <glyph glyph-name="dotlessi" unicode="&#x131;" horiz-adv-x="456" 
d="M288 0h-120v1082h120v-1082z" />
    <glyph glyph-name="IJ" unicode="&#x132;" horiz-adv-x="1672" 
d="M334 0h-123v1456h123v-1456zM1372 1456h123.999v-1023c0 -73.333 -11.167 -138.166 -33.5 -194.499s-53 -103.666 -92 -141.999s-85.5 -67.333 -139.5 -87s-112.333 -29.5 -175 -29.5c-66 0 -126 8.5 -180 25.5s-100.167 43 -138.5 78s-68.166 78.833 -89.499 131.5
s-32 114.667 -32 186h123c0 -105.333 27.667 -184.5 83 -237.5s133.333 -79.5 234 -79.5c44 0 85.167 7.5 123.5 22.5s71.833 37.167 100.5 66.5s51.167 65.666 67.5 108.999s24.5 93.666 24.5 150.999v1023z" />
    <glyph glyph-name="ij" unicode="&#x133;" horiz-adv-x="926" 
d="M290 0h-120v1082h120v-1082zM149 1395c0 22.667 7.33301 41.834 22 57.501s34.667 23.5 60 23.5s45.5 -7.83301 60.5 -23.5s22.5 -34.834 22.5 -57.501s-7.5 -41.667 -22.5 -57s-35.167 -23 -60.5 -23s-45.333 7.66699 -60 23s-22 34.333 -22 57zM744 1082
l0.000976562 -1211c0 -100 -24 -176.333 -72 -229s-118.667 -79 -212 -79c-16.667 0 -34.334 1.66699 -53.001 5s-36 8 -52 14l2 99c11.333 -3.33301 25.333 -6.33301 42 -9s32.667 -4 48 -4c57.333 0 101.333 16.667 132 50s46 84.333 46 153v1211h119zM604.001 1395
c0 22.667 7.16699 41.834 21.5 57.501s34.166 23.5 59.499 23.5c26 0 46.333 -7.83301 61 -23.5s22 -34.834 22 -57.501s-7.33301 -41.667 -22 -57s-35 -23 -61 -23c-25.333 0 -45.166 7.66699 -59.499 23s-21.5 34.333 -21.5 57z" />
    <glyph glyph-name="Jcircumflex" unicode="&#x134;" horiz-adv-x="1127" 
d="M827 1456h123.999v-1023c0 -73.333 -11.167 -138.166 -33.5 -194.499s-53 -103.666 -92 -141.999s-85.5 -67.333 -139.5 -87s-112.333 -29.5 -175 -29.5c-66 0 -126 8.5 -180 25.5s-100.167 43 -138.5 78s-68.166 78.833 -89.499 131.5s-32 114.667 -32 186h123
c0 -105.333 27.667 -184.5 83 -237.5s133.333 -79.5 234 -79.5c44 0 85.167 7.5 123.5 22.5s71.833 37.167 100.5 66.5s51.167 65.666 67.5 108.999s24.5 93.666 24.5 150.999v1023zM1155 1567v-10h-111l-168 183l-167 -183h-109v13l238 255h76z" />
    <glyph glyph-name="jcircumflex" unicode="&#x135;" horiz-adv-x="468" 
d="M298 1082v-1171c0 -112.667 -26.667 -198.834 -80 -258.501s-127.333 -89.5 -222 -89.5c-20.667 0 -39.667 1.5 -57 4.5s-35.666 7.83301 -54.999 14.5l13 99c5.33301 -2 12.166 -4 20.499 -6s17.166 -3.66699 26.499 -5s18.5 -2.5 27.5 -3.5s17.167 -1.5 24.5 -1.5
c58.667 0 103.834 21.333 135.501 64s47.5 103.334 47.5 182.001v1171h119zM517 1227v-10h-111l-168 183l-167 -183h-109v13l238 255h76z" />
    <glyph glyph-name="Kcommaaccent" unicode="&#x136;" horiz-adv-x="1292" 
d="M512 723l-205 -202v-521h-123v1456h123v-785l198 207l548 578h155l-610 -648l657 -808h-150zM699 -83c0 -52.667 -9.83398 -104 -29.501 -154s-48.5 -92 -86.5 -126l-71 52c24.667 35.333 42.834 70.5 54.501 105.5s17.5 74.833 17.5 119.5v81h115v-78z" />
    <glyph glyph-name="kcommaaccent" unicode="&#x137;" horiz-adv-x="1003" 
d="M413 545l-137 -132v-413h-120v1536h120v-983l113 122l414 407h151l-459 -456l499 -626h-143zM581 -91c0 -52.667 -9.83398 -104 -29.501 -154s-48.5 -92 -86.5 -126l-71 52c24.667 35.333 42.834 70.5 54.501 105.5s17.5 74.833 17.5 119.5v81h115v-78z" />
    <glyph glyph-name="kgreenlandic" unicode="&#x138;" horiz-adv-x="1111" 
d="M420 496h-137v-496h-121v1082h121v-480h134l443 480h146l-480 -527l530 -555h-152z" />
    <glyph glyph-name="Lacute" unicode="&#x139;" horiz-adv-x="1079" 
d="M308 104h719v-104h-843v1456h124v-1352zM367 1804h145l-231 -279h-105z" />
    <glyph glyph-name="lacute" unicode="&#x13a;" horiz-adv-x="459" 
d="M290 0h-120v1536h120v-1536zM351 1917h145l-231 -279h-105z" />
    <glyph glyph-name="Lcommaaccent" unicode="&#x13b;" horiz-adv-x="1079" 
d="M308 104h719v-104h-843v1456h124v-1352zM680 -173c0 -52.667 -9.83398 -104 -29.501 -154s-48.5 -92 -86.5 -126l-71 52c24.667 35.333 42.834 70.5 54.501 105.5s17.5 74.833 17.5 119.5v81h115v-78z" />
    <glyph glyph-name="lcommaaccent" unicode="&#x13c;" horiz-adv-x="459" 
d="M290 0h-120v1536h120v-1536zM290 -173c0 -52.667 -9.83398 -104 -29.501 -154s-48.5 -92 -86.5 -126l-71 52c24.667 35.333 42.834 70.5 54.501 105.5s17.5 74.833 17.5 119.5v81h115v-78z" />
    <glyph glyph-name="Lcaron" unicode="&#x13d;" horiz-adv-x="1079" 
d="M308 104h719v-104h-843v1456h124v-1352zM776 1340c0 -61.333 -12.334 -120.167 -37.001 -176.5s-59 -104.5 -103 -144.5l-71 52c15.333 20.667 28.833 41.334 40.5 62.001s21.334 41.667 29.001 63s13.5 43.666 17.5 66.999s6 48.333 6 75v118h118v-116z" />
    <glyph glyph-name="lcaron" unicode="&#x13e;" horiz-adv-x="609" 
d="M290 0h-120v1536h120v-1536zM637 1420c0 -61.333 -12.334 -120.167 -37.001 -176.5s-59 -104.5 -103 -144.5l-71 52c15.333 20.667 28.833 41.334 40.5 62.001s21.334 41.667 29.001 63s13.5 43.666 17.5 66.999s6 48.333 6 75v118h118v-116z" />
    <glyph glyph-name="Ldot" unicode="&#x13f;" horiz-adv-x="1079" 
d="M308 104h719v-104h-843v1456h124v-1352zM595 776c0 22.667 7.33301 41.834 22 57.501s34.667 23.5 60 23.5c26 0 46.333 -7.83301 61 -23.5s22 -34.834 22 -57.501c0 -22 -7.33301 -40.667 -22 -56s-35 -23 -61 -23c-25.333 0 -45.333 7.66699 -60 23s-22 34 -22 56z" />
    <glyph glyph-name="ldot" unicode="&#x140;" horiz-adv-x="679" 
d="M290 0h-120v1536h120v-1536zM427 789c0 22.667 7.33301 41.834 22 57.501s34.667 23.5 60 23.5c26 0 46.333 -7.83301 61 -23.5s22 -34.834 22 -57.501c0 -22 -7.33301 -40.667 -22 -56s-35 -23 -61 -23c-25.333 0 -45.333 7.66699 -60 23s-22 34 -22 56z" />
    <glyph glyph-name="Lslash" unicode="&#x141;" horiz-adv-x="1082" 
d="M304 818l307 97v-109l-307 -97v-605h719v-104h-843v669l-159 -50v109l159 50v678h124v-638z" />
    <glyph glyph-name="lslash" unicode="&#x142;" horiz-adv-x="529" 
d="M325 860l180 70v-109l-180 -70v-751h-120v704l-179 -70v109l179 70v723h120v-676z" />
    <glyph glyph-name="Nacute" unicode="&#x143;" horiz-adv-x="1454" 
d="M1268 0h-123l-837 1246v-1246h-124v1456h124l838 -1247v1247h122v-1456zM846 1839h145l-231 -279h-105z" />
    <glyph glyph-name="nacute" unicode="&#x144;" horiz-adv-x="1125" 
d="M270 1082l3.99902 -185.002c18.667 30.667 40.167 58.667 64.5 84s51.5 47 81.5 65s62.333 31.833 97 41.5s71.334 14.5 110.001 14.5c54 0 102.333 -7.33301 145 -22s78.834 -38 108.501 -70s52.334 -73.167 68.001 -123.5s23.5 -111.166 23.5 -182.499v-704h-119v705
c0 56 -6 102.667 -18 140s-29 67.333 -51 90s-48.833 38.834 -80.5 48.501s-66.834 14.5 -105.501 14.5c-42.667 0 -81.334 -7.16699 -116.001 -21.5s-65.334 -33.5 -92.001 -57.5s-49.667 -51.5 -69 -82.5s-34.666 -62.833 -45.999 -95.5v-741h-119v1082h114zM694.999 1524
h145l-231 -279h-105z" />
    <glyph glyph-name="Ncommaaccent" unicode="&#x145;" horiz-adv-x="1454" 
d="M1268 0h-123l-837 1246v-1246h-124v1456h124l838 -1247v1247h122v-1456zM780 -173c0 -52.667 -9.83398 -104 -29.501 -154s-48.5 -92 -86.5 -126l-71 52c24.667 35.333 42.834 70.5 54.501 105.5s17.5 74.833 17.5 119.5v81h115v-78z" />
    <glyph glyph-name="ncommaaccent" unicode="&#x146;" horiz-adv-x="1125" 
d="M270 1082l3.99902 -185.002c18.667 30.667 40.167 58.667 64.5 84s51.5 47 81.5 65s62.333 31.833 97 41.5s71.334 14.5 110.001 14.5c54 0 102.333 -7.33301 145 -22s78.834 -38 108.501 -70s52.334 -73.167 68.001 -123.5s23.5 -111.166 23.5 -182.499v-704h-119v705
c0 56 -6 102.667 -18 140s-29 67.333 -51 90s-48.833 38.834 -80.5 48.501s-66.834 14.5 -105.501 14.5c-42.667 0 -81.334 -7.16699 -116.001 -21.5s-65.334 -33.5 -92.001 -57.5s-49.667 -51.5 -69 -82.5s-34.666 -62.833 -45.999 -95.5v-741h-119v1082h114z
M627.999 -173.002c0 -52.667 -9.83398 -104 -29.501 -154s-48.5 -92 -86.5 -126l-71 52c24.667 35.333 42.834 70.5 54.501 105.5s17.5 74.833 17.5 119.5v81h115v-78z" />
    <glyph glyph-name="Ncaron" unicode="&#x147;" horiz-adv-x="1454" 
d="M1268 0h-123l-837 1246v-1246h-124v1456h124l838 -1247v1247h122v-1456zM725 1644l172 194h106v-12l-236 -261h-86l-235 262v11h107z" />
    <glyph glyph-name="ncaron" unicode="&#x148;" horiz-adv-x="1125" 
d="M270 1082l3.99902 -185.002c18.667 30.667 40.167 58.667 64.5 84s51.5 47 81.5 65s62.333 31.833 97 41.5s71.334 14.5 110.001 14.5c54 0 102.333 -7.33301 145 -22s78.834 -38 108.501 -70s52.334 -73.167 68.001 -123.5s23.5 -111.166 23.5 -182.499v-704h-119v705
c0 56 -6 102.667 -18 140s-29 67.333 -51 90s-48.833 38.834 -80.5 48.501s-66.834 14.5 -105.501 14.5c-42.667 0 -81.334 -7.16699 -116.001 -21.5s-65.334 -33.5 -92.001 -57.5s-49.667 -51.5 -69 -82.5s-34.666 -62.833 -45.999 -95.5v-741h-119v1082h114zM573.999 1328
l172 194h106v-12l-236 -261h-86l-235 262v11h107z" />
    <glyph glyph-name="napostrophe" unicode="&#x149;" horiz-adv-x="1125" 
d="M270 1082l3.99902 -185.002c18.667 30.667 40.167 58.667 64.5 84s51.5 47 81.5 65s62.333 31.833 97 41.5s71.334 14.5 110.001 14.5c54 0 102.333 -7.33301 145 -22s78.834 -38 108.501 -70s52.334 -73.167 68.001 -123.5s23.5 -111.166 23.5 -182.499v-704h-119v705
c0 56 -6 102.667 -18 140s-29 67.333 -51 90s-48.833 38.834 -80.5 48.501s-66.834 14.5 -105.501 14.5c-42.667 0 -81.334 -7.16699 -116.001 -21.5s-65.334 -33.5 -92.001 -57.5s-49.667 -51.5 -69 -82.5s-34.666 -62.833 -45.999 -95.5v-741h-119v1082h114zM178.999 1421
c0 -61.333 -12.334 -120.167 -37.001 -176.5s-59 -104.5 -103 -144.5l-71 52c15.333 20.667 28.833 41.334 40.5 62.001s21.334 41.667 29.001 63s13.5 43.666 17.5 66.999s6 48.333 6 75v118h118v-116z" />
    <glyph glyph-name="Eng" unicode="&#x14a;" horiz-adv-x="1434" 
d="M1257 1456v-1542c0 -114 -27 -201 -81 -261s-129 -90 -225 -90c-20.667 0 -39.834 1.5 -57.501 4.5s-36.167 7.83301 -55.5 14.5l13 102c11.333 -4 27 -7.66699 47 -11s37.333 -5 52 -5c58.667 0 103.834 21.333 135.501 64s47.5 103.334 47.5 182.001v86l-829 1250
v-1250h-123v1456h123l829 -1249v1249h124z" />
    <glyph glyph-name="eng" unicode="&#x14b;" horiz-adv-x="1140" 
d="M264 1082l9.99805 -183.999c34.667 64 80.834 114 138.501 150s127.167 54 208.5 54c56.667 0 107.334 -8.33301 152.001 -25s82.5 -43 113.5 -79s54.5 -82 70.5 -138s24 -123 24 -201v-748c0 -113.333 -26.833 -199.666 -80.5 -258.999s-128.167 -89 -223.5 -89
c-22.667 0 -43.667 1.5 -63 4.5s-39.666 7.83301 -60.999 14.5l14 103c6 -2 13.5 -3.83301 22.5 -5.5s18.667 -3.33398 29 -5.00098s20.666 -2.83398 30.999 -3.50098s19.5 -1 27.5 -1c58.667 0 104 20.5 136 61.5s48 100.833 48 179.5v747c0 66 -6.5 120.833 -19.5 164.5
s-31.167 78.5 -54.5 104.5s-51.333 44.333 -84 55s-69 16 -109 16c-44 0 -83 -5.66699 -117 -17s-64 -27 -90 -47s-48 -43.667 -66 -71s-32.667 -57 -44 -89v-774h-120v1082h107z" />
    <glyph glyph-name="Omacron" unicode="&#x14c;" horiz-adv-x="1386" 
d="M1260 649c0 -102 -13.333 -194.167 -40 -276.5s-64.5 -152.5 -113.5 -210.5s-108.5 -102.833 -178.5 -134.5s-148 -47.5 -234 -47.5c-85.333 0 -162.833 15.833 -232.5 47.5s-129.5 76.5 -179.5 134.5s-88.667 128.167 -116 210.5s-41 174.5 -41 276.5v156
c0 102 13.667 194.333 41 277s65.666 153.167 114.999 211.5s108.833 103.333 178.5 135s147.167 47.5 232.5 47.5c86 0 164 -15.833 234 -47.5s129.833 -76.667 179.5 -135s87.834 -128.833 114.501 -211.5s40 -175 40 -277v-156zM1137 807
c0 86 -10.0029 163.667 -30.0029 233s-49 128.166 -87 176.499s-84.667 85.666 -140 111.999s-118 39.5 -188 39.5c-68.667 0 -130.5 -13.167 -185.5 -39.5s-101.667 -63.666 -140 -111.999s-67.666 -107.166 -87.999 -176.499s-30.5 -147 -30.5 -233v-158
c0 -86.667 10.333 -164.667 31 -234s50.334 -128.333 89.001 -177s85.5 -86 140.5 -112s116.833 -39 185.5 -39c70.667 0 133.5 13 188.5 39s101.333 63.333 139 112s66.334 107.667 86.001 177s29.5 147.333 29.5 234v158zM1024 1695h-670v97h670v-97z" />
    <glyph glyph-name="omacron" unicode="&#x14d;" horiz-adv-x="1147" 
d="M90 557c0 78.667 11.4971 151.334 34.4971 218.001s55.5 124.167 97.5 172.5s92.667 86.166 152 113.499s125.333 41 198 41c74 0 140.833 -13.667 200.5 -41s110.5 -65.166 152.5 -113.499s74.333 -105.833 97 -172.5s34 -139.334 34 -218.001v-33
c0 -78.667 -11.333 -151.334 -34 -218.001s-55 -124.167 -97 -172.5s-92.667 -86 -152 -113s-125.666 -40.5 -198.999 -40.5s-139.666 13.5 -198.999 40.5s-110.166 64.667 -152.499 113s-75 105.833 -98 172.5s-34.5 139.334 -34.5 218.001v33zM209.997 524
c0 -59.333 8.00195 -115.833 24.002 -169.5s39.333 -100.667 70 -141s68.667 -72.5 114 -96.5s97.333 -36 156 -36s110.5 12 155.5 36s82.833 56.167 113.5 96.5s54 87.333 70 141s24 110.167 24 169.5v33c0 58 -8 113.833 -24 167.5s-39.333 100.834 -70 141.501
s-68.834 73.167 -114.501 97.5s-97.834 36.5 -156.501 36.5c-58 0 -109.5 -12.167 -154.5 -36.5s-82.833 -56.833 -113.5 -97.5s-54 -87.834 -70 -141.501s-24 -109.5 -24 -167.5v-33zM912.999 1367h-670v97h670v-97z" />
    <glyph glyph-name="Obreve" unicode="&#x14e;" horiz-adv-x="1386" 
d="M1260 649c0 -102 -13.333 -194.167 -40 -276.5s-64.5 -152.5 -113.5 -210.5s-108.5 -102.833 -178.5 -134.5s-148 -47.5 -234 -47.5c-85.333 0 -162.833 15.833 -232.5 47.5s-129.5 76.5 -179.5 134.5s-88.667 128.167 -116 210.5s-41 174.5 -41 276.5v156
c0 102 13.667 194.333 41 277s65.666 153.167 114.999 211.5s108.833 103.333 178.5 135s147.167 47.5 232.5 47.5c86 0 164 -15.833 234 -47.5s129.833 -76.667 179.5 -135s87.834 -128.833 114.501 -211.5s40 -175 40 -277v-156zM1137 807
c0 86 -10.0029 163.667 -30.0029 233s-49 128.166 -87 176.499s-84.667 85.666 -140 111.999s-118 39.5 -188 39.5c-68.667 0 -130.5 -13.167 -185.5 -39.5s-101.667 -63.666 -140 -111.999s-67.666 -107.166 -87.999 -176.499s-30.5 -147 -30.5 -233v-158
c0 -86.667 10.333 -164.667 31 -234s50.334 -128.333 89.001 -177s85.5 -86 140.5 -112s116.833 -39 185.5 -39c70.667 0 133.5 13 188.5 39s101.333 63.333 139 112s66.334 107.667 86.001 177s29.5 147.333 29.5 234v158zM979.997 1820
c0 -38 -6.66699 -72.6699 -20 -104.003s-32.333 -58.333 -57 -81s-55 -40.334 -91 -53.001s-76.333 -19 -121 -19s-84.834 6.33301 -120.501 19s-66 30.334 -91 53.001s-44.167 49.667 -57.5 81s-20 66 -20 104h102c0 -23.333 3.33301 -45.333 10 -66
s17.334 -38.667 32.001 -54s34 -27.666 58 -36.999s53 -14 87 -14c33.333 0 61.833 4.66699 85.5 14s43 21.833 58 37.5s26 33.834 33 54.501s10.5 42.334 10.5 65.001h102z" />
    <glyph glyph-name="obreve" unicode="&#x14f;" horiz-adv-x="1147" 
d="M90 557c0 78.667 11.4971 151.334 34.4971 218.001s55.5 124.167 97.5 172.5s92.667 86.166 152 113.499s125.333 41 198 41c74 0 140.833 -13.667 200.5 -41s110.5 -65.166 152.5 -113.499s74.333 -105.833 97 -172.5s34 -139.334 34 -218.001v-33
c0 -78.667 -11.333 -151.334 -34 -218.001s-55 -124.167 -97 -172.5s-92.667 -86 -152 -113s-125.666 -40.5 -198.999 -40.5s-139.666 13.5 -198.999 40.5s-110.166 64.667 -152.499 113s-75 105.833 -98 172.5s-34.5 139.334 -34.5 218.001v33zM209.997 524
c0 -59.333 8.00195 -115.833 24.002 -169.5s39.333 -100.667 70 -141s68.667 -72.5 114 -96.5s97.333 -36 156 -36s110.5 12 155.5 36s82.833 56.167 113.5 96.5s54 87.333 70 141s24 110.167 24 169.5v33c0 58 -8 113.833 -24 167.5s-39.333 100.834 -70 141.501
s-68.834 73.167 -114.501 97.5s-97.834 36.5 -156.501 36.5c-58 0 -109.5 -12.167 -154.5 -36.5s-82.833 -56.833 -113.5 -97.5s-54 -87.834 -70 -141.501s-24 -109.5 -24 -167.5v-33zM868.999 1492c0 -38 -6.66699 -72.6699 -20 -104.003s-32.333 -58.333 -57 -81
s-55 -40.334 -91 -53.001s-76.333 -19 -121 -19s-84.834 6.33301 -120.501 19s-66 30.334 -91 53.001s-44.167 49.667 -57.5 81s-20 66 -20 104h102c0 -23.333 3.33301 -45.333 10 -66s17.334 -38.667 32.001 -54s34 -27.666 58 -36.999s53 -14 87 -14
c33.333 0 61.833 4.66699 85.5 14s43 21.833 58 37.5s26 33.834 33 54.501s10.5 42.334 10.5 65.001h102z" />
    <glyph glyph-name="Ohungarumlaut" unicode="&#x150;" horiz-adv-x="1386" 
d="M1260 649c0 -102 -13.333 -194.167 -40 -276.5s-64.5 -152.5 -113.5 -210.5s-108.5 -102.833 -178.5 -134.5s-148 -47.5 -234 -47.5c-85.333 0 -162.833 15.833 -232.5 47.5s-129.5 76.5 -179.5 134.5s-88.667 128.167 -116 210.5s-41 174.5 -41 276.5v156
c0 102 13.667 194.333 41 277s65.666 153.167 114.999 211.5s108.833 103.333 178.5 135s147.167 47.5 232.5 47.5c86 0 164 -15.833 234 -47.5s129.833 -76.667 179.5 -135s87.834 -128.833 114.501 -211.5s40 -175 40 -277v-156zM1137 807
c0 86 -10.0029 163.667 -30.0029 233s-49 128.166 -87 176.499s-84.667 85.666 -140 111.999s-118 39.5 -188 39.5c-68.667 0 -130.5 -13.167 -185.5 -39.5s-101.667 -63.666 -140 -111.999s-67.666 -107.166 -87.999 -176.499s-30.5 -147 -30.5 -233v-158
c0 -86.667 10.333 -164.667 31 -234s50.334 -128.333 89.001 -177s85.5 -86 140.5 -112s116.833 -39 185.5 -39c70.667 0 133.5 13 188.5 39s101.333 63.333 139 112s66.334 107.667 86.001 177s29.5 147.333 29.5 234v158zM987.997 1862h144l-279 -303h-121zM677.997 1862
h137l-231 -303h-109z" />
    <glyph glyph-name="ohungarumlaut" unicode="&#x151;" horiz-adv-x="1147" 
d="M90 557c0 78.667 11.4971 151.334 34.4971 218.001s55.5 124.167 97.5 172.5s92.667 86.166 152 113.499s125.333 41 198 41c74 0 140.833 -13.667 200.5 -41s110.5 -65.166 152.5 -113.499s74.333 -105.833 97 -172.5s34 -139.334 34 -218.001v-33
c0 -78.667 -11.333 -151.334 -34 -218.001s-55 -124.167 -97 -172.5s-92.667 -86 -152 -113s-125.666 -40.5 -198.999 -40.5s-139.666 13.5 -198.999 40.5s-110.166 64.667 -152.499 113s-75 105.833 -98 172.5s-34.5 139.334 -34.5 218.001v33zM209.997 524
c0 -59.333 8.00195 -115.833 24.002 -169.5s39.333 -100.667 70 -141s68.667 -72.5 114 -96.5s97.333 -36 156 -36s110.5 12 155.5 36s82.833 56.167 113.5 96.5s54 87.333 70 141s24 110.167 24 169.5v33c0 58 -8 113.833 -24 167.5s-39.333 100.834 -70 141.501
s-68.834 73.167 -114.501 97.5s-97.834 36.5 -156.501 36.5c-58 0 -109.5 -12.167 -154.5 -36.5s-82.833 -56.833 -113.5 -97.5s-54 -87.834 -70 -141.501s-24 -109.5 -24 -167.5v-33zM876.999 1535h144l-279 -303h-121zM566.999 1535h137l-231 -303h-109z" />
    <glyph glyph-name="OE" unicode="&#x152;" horiz-adv-x="1913" 
d="M1801 0h-844.001c-48 -5.33301 -98 -10.166 -150 -14.499s-105.667 -6.5 -161 -6.5c-79.333 0 -152 14.5 -218 43.5s-122.667 69.833 -170 122.5s-84.166 115.667 -110.499 189s-39.5 154 -39.5 242v304c0 88 13 168.667 39 242s62.5 136.166 109.5 188.499
s103.5 93 169.5 122s138.667 43.5 218 43.5c55.333 0 109.333 -2 162 -6s103 -8.66699 151 -14h839v-105h-778v-549h681v-104h-681v-594h783v-104zM645.999 81c42 0 84.3311 1 126.998 3s83.334 5.66699 122.001 11v1266c-39.333 4.66699 -80 8.16699 -122 10.5
s-85 3.5 -129 3.5c-63.333 0 -120.666 -11.333 -171.999 -34s-95 -55.167 -131 -97.5s-63.833 -94 -83.5 -155s-29.5 -129.833 -29.5 -206.5v-306c0 -76 9.83301 -144.5 29.5 -205.5s47.667 -113 84 -156s80.333 -76 132 -99s109.167 -34.5 172.5 -34.5z" />
    <glyph glyph-name="oe" unicode="&#x153;" horiz-adv-x="1892" 
d="M94 557c0 78.667 11.332 151.334 33.999 218.001s54.667 124.167 96 172.5s91.5 86.166 150.5 113.499s124.833 41 197.5 41c50 0 96.5 -6.33301 139.5 -19s82.5 -30.834 118.5 -54.501s67.833 -52.334 95.5 -86.001s51.167 -71.167 70.5 -112.5c20 42 44 79.667 72 113
s59.333 61.833 94 85.5s71.667 41.834 111 54.501s80.333 19 123 19c66.667 0 126.5 -11 179.5 -33s97.833 -53.167 134.5 -93.5s64.667 -89 84 -146s29 -120.167 29 -189.5v-102h-764v-29c0 -59.333 8.33301 -115 25 -167s40.334 -97.333 71.001 -136
s67.667 -69.167 111 -91.5s91.666 -33.5 144.999 -33.5c78.667 0 143.834 10.833 195.501 32.5s94.834 50.5 129.501 86.5l52 -82c-18.667 -19.333 -40.167 -37.5 -64.5 -54.5s-52 -31.667 -83 -44s-65.5 -22 -103.5 -29s-80 -10.5 -126 -10.5s-90 6.33301 -132 19
s-80.667 30.5 -116 53.5s-67.333 51 -96 84s-52.667 70.167 -72 111.5c-19.333 -41.333 -42.833 -78.5 -70.5 -111.5s-59.167 -61 -94.5 -84s-74.5 -40.833 -117.5 -53.5s-89.167 -19 -138.5 -19c-73.333 0 -139.5 13.5 -198.5 40.5s-109.333 64.667 -151 113
s-73.834 105.833 -96.501 172.5s-34 139.334 -34 218.001v33zM213.999 524c0 -59.333 7.66895 -115.833 23.002 -169.5s38.166 -100.667 68.499 -141s67.833 -72.5 112.5 -96.5s96.667 -36 156 -36c58 0 109.333 12 154 36s82 56.167 112 96.5s52.667 87.333 68 141
s23 110.167 23 169.5v33c0 58 -7.66699 113.833 -23 167.5s-38.166 100.834 -68.499 141.501s-67.833 73.167 -112.5 97.5s-96.334 36.5 -155.001 36.5s-110.334 -12.167 -155.001 -36.5s-82 -56.833 -112 -97.5s-52.667 -87.834 -68 -141.501s-23 -109.5 -23 -167.5v-33z
M1396 1000c-45.333 0 -86.833 -9.16699 -124.5 -27.5s-71 -43.666 -100 -75.999s-52.833 -70.5 -71.5 -114.5s-31 -91.667 -37 -143h640v30c0 45.333 -6.83301 88.166 -20.5 128.499s-33.5 75.5 -59.5 105.5s-58.167 53.667 -96.5 71s-81.833 26 -130.5 26z" />
    <glyph glyph-name="Racute" unicode="&#x154;" horiz-adv-x="1300" 
d="M728 606l-422.999 -0.00195312v-606h-124v1456h473c76 0 144.5 -9.33301 205.5 -28s113 -46.167 156 -82.5s76 -81.166 99 -134.499s34.5 -114.666 34.5 -183.999c0 -48 -7.33301 -93.167 -22 -135.5s-35.334 -80.5 -62.001 -114.5s-58.5 -63.333 -95.5 -88
s-77.833 -43.667 -122.5 -57l364 -619v-13h-131zM305.001 710.998l377 0.000976562c56.667 0 106.5 8.66699 149.5 26s78.833 40.5 107.5 69.5s50.167 62.667 64.5 101s21.5 78.166 21.5 119.499c0 50 -8 95 -24 135s-39.833 74 -71.5 102s-70.5 49.5 -116.5 64.5
s-99 22.5 -159 22.5h-349v-640zM727.001 1839h145l-231 -279h-105z" />
    <glyph glyph-name="racute" unicode="&#x155;" horiz-adv-x="689" 
d="M656 980c-25.333 4.66699 -52.3291 7.00195 -80.9961 7.00195c-40.667 0 -77.334 -6 -110.001 -18s-61.5 -28.833 -86.5 -50.5s-46 -47.334 -63 -77.001s-30.5 -62.5 -40.5 -98.5v-743h-119v1082h117l2 -172c29.333 59.333 69.166 106.166 119.499 140.499
s112.166 51.5 185.499 51.5c14.667 0 29.667 -1.33301 45 -4s26.666 -5.66699 33.999 -9zM530.004 1524h145l-231 -279h-105z" />
    <glyph glyph-name="Rcommaaccent" unicode="&#x156;" horiz-adv-x="1300" 
d="M728 606l-422.999 -0.00195312v-606h-124v1456h473c76 0 144.5 -9.33301 205.5 -28s113 -46.167 156 -82.5s76 -81.166 99 -134.499s34.5 -114.666 34.5 -183.999c0 -48 -7.33301 -93.167 -22 -135.5s-35.334 -80.5 -62.001 -114.5s-58.5 -63.333 -95.5 -88
s-77.833 -43.667 -122.5 -57l364 -619v-13h-131zM305.001 710.998l377 0.000976562c56.667 0 106.5 8.66699 149.5 26s78.833 40.5 107.5 69.5s50.167 62.667 64.5 101s21.5 78.166 21.5 119.499c0 50 -8 95 -24 135s-39.833 74 -71.5 102s-70.5 49.5 -116.5 64.5
s-99 22.5 -159 22.5h-349v-640zM666.001 -173.001c0 -52.667 -9.83398 -104 -29.501 -154s-48.5 -92 -86.5 -126l-71 52c24.667 35.333 42.834 70.5 54.501 105.5s17.5 74.833 17.5 119.5v81h115v-78z" />
    <glyph glyph-name="rcommaaccent" unicode="&#x157;" horiz-adv-x="689" 
d="M656 980c-25.333 4.66699 -52.3291 7.00195 -80.9961 7.00195c-40.667 0 -77.334 -6 -110.001 -18s-61.5 -28.833 -86.5 -50.5s-46 -47.334 -63 -77.001s-30.5 -62.5 -40.5 -98.5v-743h-119v1082h117l2 -172c29.333 59.333 69.166 106.166 119.499 140.499
s112.166 51.5 185.499 51.5c14.667 0 29.667 -1.33301 45 -4s26.666 -5.66699 33.999 -9zM281.004 -168.998c0 -52.667 -9.83398 -104 -29.501 -154s-48.5 -92 -86.5 -126l-71 52c24.667 35.333 42.834 70.5 54.501 105.5s17.5 74.833 17.5 119.5v81h115v-78z" />
    <glyph glyph-name="Rcaron" unicode="&#x158;" horiz-adv-x="1300" 
d="M728 606l-422.999 -0.00195312v-606h-124v1456h473c76 0 144.5 -9.33301 205.5 -28s113 -46.167 156 -82.5s76 -81.166 99 -134.499s34.5 -114.666 34.5 -183.999c0 -48 -7.33301 -93.167 -22 -135.5s-35.334 -80.5 -62.001 -114.5s-58.5 -63.333 -95.5 -88
s-77.833 -43.667 -122.5 -57l364 -619v-13h-131zM305.001 710.998l377 0.000976562c56.667 0 106.5 8.66699 149.5 26s78.833 40.5 107.5 69.5s50.167 62.667 64.5 101s21.5 78.166 21.5 119.499c0 50 -8 95 -24 135s-39.833 74 -71.5 102s-70.5 49.5 -116.5 64.5
s-99 22.5 -159 22.5h-349v-640zM606.001 1644l172 194h106v-12l-236 -261h-86l-235 262v11h107z" />
    <glyph glyph-name="rcaron" unicode="&#x159;" horiz-adv-x="689" 
d="M656 980c-25.333 4.66699 -52.3291 7.00195 -80.9961 7.00195c-40.667 0 -77.334 -6 -110.001 -18s-61.5 -28.833 -86.5 -50.5s-46 -47.334 -63 -77.001s-30.5 -62.5 -40.5 -98.5v-743h-119v1082h117l2 -172c29.333 59.333 69.166 106.166 119.499 140.499
s112.166 51.5 185.499 51.5c14.667 0 29.667 -1.33301 45 -4s26.666 -5.66699 33.999 -9zM410.004 1328l172 194h106v-12l-236 -261h-86l-235 262v11h107z" />
    <glyph glyph-name="Sacute" unicode="&#x15a;" horiz-adv-x="1213" 
d="M1008 358c0 40 -6.5 75.502 -19.5 106.502s-35 59.333 -66 85s-71.833 49.167 -122.5 70.5s-114 42.666 -190 63.999c-73.333 20.667 -139.333 43.167 -198 67.5s-108.5 52.833 -149.5 85.5s-72.667 70.334 -95 113.001s-33.5 92.667 -33.5 150c0 56 12 107 36 153
s57.667 85.5 101 118.5s95 58.667 155 77s125.667 27.5 197 27.5c76.667 0 145.834 -11.333 207.501 -34s114.167 -53.667 157.5 -93s76.666 -85.333 99.999 -138s35 -109.334 35 -170.001h-124c0 47.333 -8.33301 91.166 -25 131.499s-41 75.166 -73 104.499
s-71.333 52.333 -118 69s-100 25 -160 25s-112.833 -7.16699 -158.5 -21.5s-83.667 -33.666 -114 -57.999s-53.333 -52.833 -69 -85.5s-23.5 -67.334 -23.5 -104.001c0 -34.667 6.5 -66.667 19.5 -96s34.833 -56.5 65.5 -81.5s71 -48.333 121 -70s111.667 -42.167 185 -61.5
c76.667 -21.333 145 -44.666 205 -69.999s110.667 -55.166 152 -89.499s72.666 -73.833 93.999 -118.5s32 -96.334 32 -155.001c0 -59.333 -12.5 -112.5 -37.5 -159.5s-59.667 -86.833 -104 -119.5s-97.166 -57.667 -158.499 -75s-128 -26 -200 -26
c-43.333 0 -86.833 3.66699 -130.5 11s-85.667 18.5 -126 33.5s-78 34.167 -113 57.5s-65.333 51.166 -91 83.499s-46 69.333 -61 111s-22.5 88.167 -22.5 139.5h123c0 -61.333 12.667 -113.166 38 -155.499s58 -76.5 98 -102.5s85 -44.833 135 -56.5s100 -17.5 150 -17.5
c56.667 0 108.167 6.5 154.5 19.5s86 31.5 119 55.5s58.333 52.833 76 86.5s26.5 71.167 26.5 112.5zM747 1851h145l-231 -279h-105z" />
    <glyph glyph-name="sacute" unicode="&#x15b;" horiz-adv-x="1037" 
d="M804 275c0 22 -3.83301 43.998 -11.5 65.998s-22 42.833 -43 62.5s-50.333 38 -88 55s-86.5 31.833 -146.5 44.5s-113.5 27.334 -160.5 44.001s-86.667 36.834 -119 60.501s-56.833 51.834 -73.5 84.501s-25 71 -25 115c0 40 8.83301 78 26.5 114s43 67.333 76 94
s73 47.834 120 63.501s99.833 23.5 158.5 23.5c62.667 0 118.834 -8.16699 168.501 -24.5s91.667 -39 126 -68s60.5 -63.167 78.5 -102.5s27 -82 27 -128h-120c0 28 -6.16699 55.333 -18.5 82s-30.333 50.167 -54 70.5s-53 36.833 -88 49.5s-74.833 19 -119.5 19
c-46.667 0 -86.5 -5.66699 -119.5 -17s-60 -26 -81 -44s-36.333 -38.167 -46 -60.5s-14.5 -44.833 -14.5 -67.5c0 -24 3.66699 -45.833 11 -65.5s21.5 -38 42.5 -55s50.333 -32.667 88 -47s86.834 -28.5 147.501 -42.5c65.333 -15.333 121.666 -32.333 168.999 -51
s86.5 -40.834 117.5 -66.501s54 -55 69 -88s22.5 -71.167 22.5 -114.5c0 -44.667 -9.33301 -85.5 -28 -122.5s-45.334 -68.667 -80.001 -95s-76.667 -46.833 -126 -61.5s-104.333 -22 -165 -22c-68.667 0 -129.334 8.83301 -182.001 26.5s-97 41.5 -133 71.5
s-63.167 64.5 -81.5 103.5s-27.5 79.5 -27.5 121.5h120c2.66699 -42.667 13.667 -78.167 33 -106.5s43.333 -51 72 -68s60.5 -29.167 95.5 -36.5s69.5 -11 103.5 -11c45.333 0 85.333 5.33301 120 16s63.834 25 87.501 43s41.5 38.667 53.5 62s18 47.666 18 72.999z
M657 1524h145l-231 -279h-105z" />
    <glyph glyph-name="Scircumflex" unicode="&#x15c;" horiz-adv-x="1213" 
d="M1008 358c0 40 -6.5 75.502 -19.5 106.502s-35 59.333 -66 85s-71.833 49.167 -122.5 70.5s-114 42.666 -190 63.999c-73.333 20.667 -139.333 43.167 -198 67.5s-108.5 52.833 -149.5 85.5s-72.667 70.334 -95 113.001s-33.5 92.667 -33.5 150c0 56 12 107 36 153
s57.667 85.5 101 118.5s95 58.667 155 77s125.667 27.5 197 27.5c76.667 0 145.834 -11.333 207.501 -34s114.167 -53.667 157.5 -93s76.666 -85.333 99.999 -138s35 -109.334 35 -170.001h-124c0 47.333 -8.33301 91.166 -25 131.499s-41 75.166 -73 104.499
s-71.333 52.333 -118 69s-100 25 -160 25s-112.833 -7.16699 -158.5 -21.5s-83.667 -33.666 -114 -57.999s-53.333 -52.833 -69 -85.5s-23.5 -67.334 -23.5 -104.001c0 -34.667 6.5 -66.667 19.5 -96s34.833 -56.5 65.5 -81.5s71 -48.333 121 -70s111.667 -42.167 185 -61.5
c76.667 -21.333 145 -44.666 205 -69.999s110.667 -55.166 152 -89.499s72.666 -73.833 93.999 -118.5s32 -96.334 32 -155.001c0 -59.333 -12.5 -112.5 -37.5 -159.5s-59.667 -86.833 -104 -119.5s-97.166 -57.667 -158.499 -75s-128 -26 -200 -26
c-43.333 0 -86.833 3.66699 -130.5 11s-85.667 18.5 -126 33.5s-78 34.167 -113 57.5s-65.333 51.166 -91 83.499s-46 69.333 -61 111s-22.5 88.167 -22.5 139.5h123c0 -61.333 12.667 -113.166 38 -155.499s58 -76.5 98 -102.5s85 -44.833 135 -56.5s100 -17.5 150 -17.5
c56.667 0 108.167 6.5 154.5 19.5s86 31.5 119 55.5s58.333 52.833 76 86.5s26.5 71.167 26.5 112.5zM906 1595v-10h-111l-168 183l-167 -183h-109v13l238 255h76z" />
    <glyph glyph-name="scircumflex" unicode="&#x15d;" horiz-adv-x="1037" 
d="M804 275c0 22 -3.83301 43.998 -11.5 65.998s-22 42.833 -43 62.5s-50.333 38 -88 55s-86.5 31.833 -146.5 44.5s-113.5 27.334 -160.5 44.001s-86.667 36.834 -119 60.501s-56.833 51.834 -73.5 84.501s-25 71 -25 115c0 40 8.83301 78 26.5 114s43 67.333 76 94
s73 47.834 120 63.501s99.833 23.5 158.5 23.5c62.667 0 118.834 -8.16699 168.501 -24.5s91.667 -39 126 -68s60.5 -63.167 78.5 -102.5s27 -82 27 -128h-120c0 28 -6.16699 55.333 -18.5 82s-30.333 50.167 -54 70.5s-53 36.833 -88 49.5s-74.833 19 -119.5 19
c-46.667 0 -86.5 -5.66699 -119.5 -17s-60 -26 -81 -44s-36.333 -38.167 -46 -60.5s-14.5 -44.833 -14.5 -67.5c0 -24 3.66699 -45.833 11 -65.5s21.5 -38 42.5 -55s50.333 -32.667 88 -47s86.834 -28.5 147.501 -42.5c65.333 -15.333 121.666 -32.333 168.999 -51
s86.5 -40.834 117.5 -66.501s54 -55 69 -88s22.5 -71.167 22.5 -114.5c0 -44.667 -9.33301 -85.5 -28 -122.5s-45.334 -68.667 -80.001 -95s-76.667 -46.833 -126 -61.5s-104.333 -22 -165 -22c-68.667 0 -129.334 8.83301 -182.001 26.5s-97 41.5 -133 71.5
s-63.167 64.5 -81.5 103.5s-27.5 79.5 -27.5 121.5h120c2.66699 -42.667 13.667 -78.167 33 -106.5s43.333 -51 72 -68s60.5 -29.167 95.5 -36.5s69.5 -11 103.5 -11c45.333 0 85.333 5.33301 120 16s63.834 25 87.501 43s41.5 38.667 53.5 62s18 47.666 18 72.999z
M816 1268v-10h-111l-168 183l-167 -183h-109v13l238 255h76z" />
    <glyph glyph-name="Scedilla" unicode="&#x15e;" horiz-adv-x="1213" 
d="M1008 358c0 40 -6.5 75.502 -19.5 106.502s-35 59.333 -66 85s-71.833 49.167 -122.5 70.5s-114 42.666 -190 63.999c-73.333 20.667 -139.333 43.167 -198 67.5s-108.5 52.833 -149.5 85.5s-72.667 70.334 -95 113.001s-33.5 92.667 -33.5 150c0 56 12 107 36 153
s57.667 85.5 101 118.5s95 58.667 155 77s125.667 27.5 197 27.5c76.667 0 145.834 -11.333 207.501 -34s114.167 -53.667 157.5 -93s76.666 -85.333 99.999 -138s35 -109.334 35 -170.001h-124c0 47.333 -8.33301 91.166 -25 131.499s-41 75.166 -73 104.499
s-71.333 52.333 -118 69s-100 25 -160 25s-112.833 -7.16699 -158.5 -21.5s-83.667 -33.666 -114 -57.999s-53.333 -52.833 -69 -85.5s-23.5 -67.334 -23.5 -104.001c0 -34.667 6.5 -66.667 19.5 -96s34.833 -56.5 65.5 -81.5s71 -48.333 121 -70s111.667 -42.167 185 -61.5
c76.667 -21.333 145 -44.666 205 -69.999s110.667 -55.166 152 -89.499s72.666 -73.833 93.999 -118.5s32 -96.334 32 -155.001c0 -59.333 -12.5 -112.5 -37.5 -159.5s-59.667 -86.833 -104 -119.5s-97.166 -57.667 -158.499 -75s-128 -26 -200 -26
c-43.333 0 -86.833 3.66699 -130.5 11s-85.667 18.5 -126 33.5s-78 34.167 -113 57.5s-65.333 51.166 -91 83.499s-46 69.333 -61 111s-22.5 88.167 -22.5 139.5h123c0 -61.333 12.667 -113.166 38 -155.499s58 -76.5 98 -102.5s85 -44.833 135 -56.5s100 -17.5 150 -17.5
c56.667 0 108.167 6.5 154.5 19.5s86 31.5 119 55.5s58.333 52.833 76 86.5s26.5 71.167 26.5 112.5zM680 -3.99805l-12.001 -64.001c20.667 -2.66699 40.834 -7.5 60.501 -14.5s37.334 -17.167 53.001 -30.5s28.167 -30.333 37.5 -51s14 -45.667 14 -75
c0 -30 -6.5 -57.167 -19.5 -81.5s-32 -45.333 -57 -63s-55.833 -31.334 -92.5 -41.001s-78.334 -14.5 -125.001 -14.5l-7 78c24.667 0 49.167 2.33301 73.5 7s46 11.834 65 21.501s34.333 22 46 37s17.5 33.167 17.5 54.5c0 38.667 -14.5 65.334 -43.5 80.001
s-73.167 24.667 -132.5 30l29 127h93z" />
    </font>
</defs>
</svg>
