<?xml version="1.0" standalone="no"?>
<!DOCTYPE svg PUBLIC "-//W3C//DTD SVG 1.1//EN" "http://www.w3.org/Graphics/SVG/1.1/DTD/svg11.dtd" >
<svg version="1.1" xmlns="http://www.w3.org/2000/svg">
<metadata>
Created by FontForge 20120731 at Fri Aug  1 16:50:19 2014

(c) Craig Rozynski 2013
</metadata>
<defs>
<font id="comicneue" horiz-adv-x="324" >
  <font-face 
    font-family="Comic Neue"
    font-weight="400"
    font-style="oblique"
    font-stretch="normal"
    units-per-em="1000"
    panose-1="0 0 0 0 0 0 0 0 0 0"
    ascent="750"
    descent="-250"
    x-height="498.999"
    cap-height="682.001"
    bbox="-99.1667 -204 852.002 849"
    underline-thickness="49"
    underline-position="-50"
    unicode-range="U+000D-25FC"
  />
<missing-glyph horiz-adv-x="365" 
d="M33 0v667h266v-667h-266zM66 33h200v600h-200v-600z" />
    <glyph glyph-name=".notdef" horiz-adv-x="365" 
d="M33 0v667h266v-667h-266zM66 33h200v600h-200v-600z" />
    <glyph glyph-name="glyph1" horiz-adv-x="1000" 
 />
    <glyph glyph-name="glyph1" horiz-adv-x="1000" 
 />
    <glyph glyph-name="uni000D" unicode="&#xd;" horiz-adv-x="1000" 
 />
    <glyph glyph-name="space" unicode=" " horiz-adv-x="329" 
 />
    <glyph glyph-name="exclam" unicode="!" horiz-adv-x="229" 
d="M1 5c-2 4 -1.66602 8.66602 1.00098 13.999v1l6 20c1.33301 5.33301 2.83301 9.83301 4.5 13.5s2.5 5.83398 2.5 6.50098c1.33301 4.66699 4.16602 8.5 8.49902 11.5s8.83301 4.5 13.5 4.5h3c5.33301 -1.33301 9 -4 11 -8s2 -8.66699 0 -14l-14 -43v-1
c-4.66699 -8.66699 -11.667 -13 -21 -13h-5c-4.66699 1.33301 -8 4 -10 8zM41.001 166.999l1.00098 7l104 484l3 11c1.33301 5.33301 4.33301 10 9 14s9.66699 6 15 6s9.66602 -2 12.999 -6s4.33301 -8.66699 3 -14l-4 -11h1l-105 -489v-2
c-1.33301 -5.33301 -4.33301 -10 -9 -14s-9.66699 -6 -15 -6s-9.5 2 -12.5 6s-4.16699 8.66699 -3.5 14z" />
    <glyph glyph-name="quotedbl" unicode="&#x22;" horiz-adv-x="277" 
d="M52 518l32 153c1.33301 5.33301 4.16602 9.66602 8.49902 12.999s9.16602 5 14.499 5s9.5 -1.66699 12.5 -5s3.83301 -7.66602 2.5 -12.999l-32 -153c-1.33301 -5.33301 -4.16602 -9.66602 -8.49902 -12.999s-9.16602 -5 -14.499 -5s-9.5 1.66699 -12.5 5
s-3.83301 7.66602 -2.5 12.999zM151 518l32.001 153c1.33301 5.33301 4.16602 9.66602 8.49902 12.999s9.16602 5 14.499 5s9.33301 -1.66699 12 -5s3.33398 -7.66602 2.00098 -12.999l-32 -153c-1.33301 -5.33301 -4 -9.66602 -8 -12.999s-8.66699 -5 -14 -5
s-9.5 1.66699 -12.5 5s-3.83301 7.66602 -2.5 12.999z" />
    <glyph glyph-name="numbersign" unicode="#" horiz-adv-x="713" 
d="M1 236c1.33301 5.33301 4.17285 9.83691 8.50586 13.5039s9.16602 5.5 14.499 5.5h145l95 189h-154c-5.33301 0 -9.5 1.83301 -12.5 5.5s-3.83301 8.16699 -2.5 13.5s4.16602 9.66602 8.49902 12.999s9.16602 5 14.499 5h165l99 198c2 4 5 7.16699 9 9.5s8 3.5 12 3.5h5
c5.33301 -2.66699 8.33301 -5.66699 9 -9c2 -4.66699 1.66699 -9.33398 -1 -14.001l-94 -188h179l99 198c5.33301 8.66699 12.333 13 21 13h6c1.33301 -1.33301 2.83301 -2.66602 4.5 -3.99902s3.16699 -3 4.5 -5c1.33301 -6 0.666016 -10.667 -2.00098 -14l-94 -188h118
c5.33301 0 9.5 -1.66699 12.5 -5s3.83301 -7.66602 2.5 -12.999s-4.16602 -9.83301 -8.49902 -13.5s-9.16602 -5.5 -14.499 -5.5h-129l-95 -189h138c5.33301 0 9.33301 -1.83301 12 -5.5s3.33398 -8.16699 2.00098 -13.5s-4 -9.66602 -8 -12.999s-8.66699 -5 -14 -5h-149
l-103 -204c-1.33301 -4 -4 -7.33301 -8 -10s-8 -4 -12 -4c-1.33301 0 -2.33301 0.166992 -3 0.5s-1.33398 0.5 -2.00098 0.5c-5.33301 1.33301 -8.83301 4.16602 -10.5 8.49902s-0.833984 9.16602 2.49902 14.499l97 194h-179l-103 -204
c-4.66699 -9.33301 -11.334 -14 -20.001 -14c-1.33301 0 -2.33301 0.166992 -3 0.5s-1.33398 0.5 -2.00098 0.5c-5.33301 1.33301 -8.83301 4.16602 -10.5 8.49902s-0.833984 9.16602 2.49902 14.499l97 194h-134c-5.33301 0 -9.5 1.66699 -12.5 5
s-3.83301 7.66602 -2.5 12.999zM208.007 255.004h179l95 189h-179z" />
    <glyph glyph-name="dollar" unicode="$" horiz-adv-x="599" 
d="M0.5 143.5c-0.333008 1.66699 -0.165039 3.16406 0.501953 4.49707c1.33301 6 4.5 11 9.5 15s10.167 6 15.5 6c10.667 0 16.667 -5.33301 18 -16l1 -1c2.66699 -17.333 8.16699 -33.166 16.5 -47.499s19.833 -26.833 34.5 -37.5c27.333 -18.667 59.333 -30 96 -34l10 -1
l67 313l-7 2c-50.667 17.333 -89.334 39.333 -116.001 66c-30.667 32.667 -39.667 70.334 -27 113.001c26 90.667 96.667 142 212 154l9 1l12 56c1.33301 5.33301 4 9.66602 8 12.999s8.66699 5 14 5s9.5 -1.66699 12.5 -5s3.83301 -7.66602 2.5 -12.999l-12 -55l21 -1
c10.667 0 23 -0.833008 37 -2.5s28 -4.83398 42 -9.50098s27.333 -11 40 -19s22.667 -18.333 30 -31c11.333 -18.667 14.666 -40.667 9.99902 -66v-1v-1c-1.33301 -4.66699 -4 -8.66699 -8 -12s-8.33301 -5 -13 -5s-8.5 1.33301 -11.5 4s-4.16699 6.33398 -3.5 11.001v1
c1.33301 18.667 -1.66699 34.667 -9 48c-13.333 20.667 -37.333 35.334 -72 44.001c-14 3.33301 -26.333 5.66602 -37 6.99902s-17.334 2 -20.001 2l-12 1l-59 -276l7 -2c67.333 -21.333 114 -48.333 140 -81c26 -32 33 -70.333 21 -115
c-14.667 -61.333 -54 -108.666 -118 -141.999c-24 -13.333 -47.167 -22.5 -69.5 -27.5s-39.5 -8.16699 -51.5 -9.5l-9 -1l-12 -58c-1.33301 -5.33301 -4.16602 -9.66602 -8.49902 -12.999s-9.16602 -5 -14.499 -5s-9.33301 1.66699 -12 5s-3.33398 7.66602 -2.00098 12.999
l12 57l-9 1c-50 4 -91.5 18.5 -124.5 43.5s-53.167 57.167 -60.5 96.5v1c0 1.33301 -0.166992 2.83301 -0.5 4.5zM162.001 518.997c-15.333 -53.333 19.333 -96 104 -128l12 -5l55 263l-12 -2c-49.333 -7.33301 -88 -24.333 -116 -51c-13.333 -13.333 -23 -26.833 -29 -40.5
s-10.667 -25.5 -14 -35.5v-1zM240 32.9971l11.0039 2c13.333 2 29.166 5.5 47.499 10.5s36.5 13.167 54.5 24.5c44 26.667 72 64.334 84 113.001c2 7.33301 3.66699 16.666 5 27.999s-1.33398 23.833 -8.00098 37.5s-18.834 27.5 -36.501 41.5s-44.834 27.333 -81.501 40
l-12 5z" />
    <glyph glyph-name="percent" unicode="%" horiz-adv-x="602" 
d="M40 15c0 4.66699 1 8.66699 3 12l490 639c4 5.33301 9.33301 8 16 8c4 0 6.33301 -0.666992 7 -2c2.66699 -1.33301 4.66699 -4.33301 6 -9c1.33301 -4 0 -8 -4 -12l-490 -639c-4 -5.33301 -9.33301 -8 -16 -8c-3.33301 0 -5.33301 0.666992 -6 2c-4 2 -6 5 -6 9zM54 503
c-3.33301 15.333 -3 31.666 1 48.999c3.33301 17.333 10 33.666 20 48.999s22 28.666 36 39.999s29.333 20.333 46 27s33.667 10 51 10s33 -3.33301 47 -10s25.333 -15.667 34 -27s14.667 -24.666 18 -39.999s3.33301 -31.666 0 -48.999
c-4 -17.333 -10.833 -33.666 -20.5 -48.999s-21.5 -28.666 -35.5 -39.999s-29.333 -20.333 -46 -27s-33.667 -10 -51 -10s-33 3.33301 -47 10s-25.5 15.667 -34.5 27s-15.167 24.666 -18.5 39.999zM89 552c-5.33301 -25.333 -1.00098 -47 12.999 -65s33.667 -27 59 -27
c12.667 0 25.167 2.33301 37.5 7s23.5 11.167 33.5 19.5s18.667 18.166 26 29.499s12.333 23.333 15 36c5.33301 25.333 0.833008 47 -13.5 65s-34.166 27 -59.499 27c-12.667 0 -25.167 -2.33301 -37.5 -7s-23.5 -11.167 -33.5 -19.5s-18.5 -18.166 -25.5 -29.499
s-11.833 -23.333 -14.5 -36zM288.999 73c-3.33301 15.333 -3.33203 31.666 0.000976562 48.999c4 17.333 10.833 33.666 20.5 48.999s21.5 28.666 35.5 39.999s29.333 20.333 46 27s33.667 10 51 10s32.833 -3.33301 46.5 -10s25 -15.667 34 -27s15.333 -24.666 19 -39.999
s3.5 -31.666 -0.5 -48.999c-3.33301 -17.333 -10 -33.666 -20 -48.999s-21.833 -28.666 -35.5 -39.999s-28.834 -20.333 -45.501 -27s-33.667 -10 -51 -10s-33 3.33301 -47 10s-25.5 15.667 -34.5 27s-15.167 24.666 -18.5 39.999zM323 86
c2.66699 -11.333 7.16797 -21.167 13.501 -29.5s14.666 -14.833 24.999 -19.5s21.833 -7 34.5 -7s25.167 2.33301 37.5 7s23.5 11.167 33.5 19.5s18.5 18.166 25.5 29.499s11.833 23.333 14.5 36c5.33301 25.333 1 47 -13 65s-33.667 27 -59 27
c-12.667 0 -25.167 -2.33301 -37.5 -7s-23.5 -11.167 -33.5 -19.5s-18.667 -18.166 -26 -29.499s-12.333 -23.333 -15 -36s-2.66699 -24.667 0 -36z" />
    <glyph glyph-name="ampersand" unicode="&#x26;" horiz-adv-x="535" 
d="M4 176c6 27.333 15.332 51.1729 27.999 71.5059s28 38.5 46 54.5s38.167 30.167 60.5 42.5s45.833 24.5 70.5 36.5l13 6l-7 10c-5.33301 8 -11.166 17.667 -17.499 29s-11.833 23.666 -16.5 36.999s-8 27.666 -10 42.999s-1.33301 30.666 2 45.999
c3.33301 17.333 10.666 34.333 21.999 51s25.666 31.667 42.999 45c34 26 68.667 39 104 39s64.666 -13.667 87.999 -41c11.333 -13.333 19 -28 23 -44s4.33301 -32 1 -48c-3.33301 -17.333 -8.16602 -32.5 -14.499 -45.5s-14.5 -25.167 -24.5 -36.5
c-12 -13.333 -27.333 -26.666 -46 -39.999s-42.667 -27.666 -72 -42.999l-4 -2c-1.33301 -0.666992 -3 -1.66699 -5 -3l-12 -6l124 -198l9 15c7.33301 11.333 14.5 22.666 21.5 33.999s13.5 23.666 19.5 36.999l7 13c4 8.66699 10.667 13 20 13
c4.66699 0 8.33398 -1.66699 11.001 -5s3.33398 -7.33301 2.00098 -12c0 -2 -0.666992 -3.66699 -2 -5l-6 -12c-9.33301 -18.667 -19 -36.334 -29 -53.001s-20.667 -32.334 -32 -47.001l-4 -6l77 -123c1.33301 -4 1.66602 -7.66699 0.999023 -11
c-1.33301 -4.66699 -3.83301 -8.66699 -7.5 -12s-8.16699 -5 -13.5 -5c-6 0 -10 2.33301 -12 7l-70 112l-10 -10c-21.333 -22.667 -43.5 -42 -66.5 -58s-46.833 -28.667 -71.5 -38c-19.333 -8 -36.166 -12.833 -50.499 -14.5s-24.166 -2.5 -29.499 -2.5
c-24 0 -46.833 4.16699 -68.5 12.5s-40.334 20.166 -56.001 35.499s-27 34 -34 56s-7.5 47 -1.5 75zM37.999 176.007c-5.33301 -24.667 -4.50488 -46.167 2.49512 -64.5s17.5 -33.5 31.5 -45.5s29.833 -20.833 47.5 -26.5s34.834 -8.5 51.501 -8.5c6 0 15.5 1 28.5 3
s28.333 6.66699 46 14s37.167 18.333 58.5 33s43 35 65 61l5 6l-133 213l-7 -3c-23.333 -11.333 -45.666 -22.5 -66.999 -33.5s-40.666 -23.333 -57.999 -37s-32.166 -29.5 -44.499 -47.5s-21.166 -39.333 -26.499 -64zM204.994 533.507
c-0.666992 -8.33301 0.334961 -18.668 3.00195 -31.001s7.33398 -26.333 14.001 -42s17 -32.5 31 -50.5l4 -6l8 4c4 2 7.83301 3.83301 11.5 5.5s7.16699 3.5 10.5 5.5c52 27.333 87 52 105 74c9.33301 11.333 15.666 22 18.999 32s6 19.667 8 29c2.66699 12 2.5 24 -0.5 36
s-8.83301 22.667 -17.5 32c-18 20 -40.333 30 -67 30c-12 0 -24.833 -2.33301 -38.5 -7s-26.5 -11.667 -38.5 -21c-13.333 -10 -24.333 -21.167 -33 -33.5s-14.334 -25.166 -17.001 -38.499c-0.666992 -4 -1.33398 -10.167 -2.00098 -18.5z" />
    <glyph glyph-name="quotesingle" unicode="'" horiz-adv-x="110" 
d="M41 518l32.001 153c1.33301 5.33301 4.16602 9.66602 8.49902 12.999s9.16602 5 14.499 5s9.33301 -1.66699 12 -5s3.33398 -7.66602 2.00098 -12.999l-32 -153c-1.33301 -5.33301 -4 -9.66602 -8 -12.999s-8.66699 -5 -14 -5s-9.5 1.66699 -12.5 5
s-3.83301 7.66602 -2.5 12.999z" />
    <glyph glyph-name="parenleft" unicode="(" horiz-adv-x="371" 
d="M3 165c-5.33301 62 -1.33496 123.997 11.998 185.997c13.333 63.333 36.333 124.666 69 183.999c13.333 23.333 27.833 46.666 43.5 69.999s33.167 46 52.5 68c16 18.667 31.5 35.5 46.5 50.5s28.167 27.5 39.5 37.5s20.333 17.667 27 23s10.334 8.33301 11.001 9
c5.33301 2.66699 9.66602 4 12.999 4c5.33301 0 9.33301 -2.33301 12 -7c2.66699 -4 3.16699 -8.5 1.5 -13.5s-4.5 -9.16699 -8.5 -12.5h-1c-1.33301 -0.666992 -5.33301 -3.66699 -12 -9s-15.167 -12.833 -25.5 -22.5s-22.333 -21.334 -36 -35.001
s-27.834 -29.167 -42.501 -46.5c-17.333 -20.667 -33.5 -41.834 -48.5 -63.501s-28.5 -43.5 -40.5 -65.5c-15.333 -28 -28.333 -56.167 -39 -84.5s-19 -57.166 -25 -86.499s-10.167 -58.5 -12.5 -87.5s-2.16602 -57.833 0.500977 -86.5
c2 -23.333 5.33301 -46.166 10 -68.499s10.667 -44.5 18 -66.5c13.333 -38 26.5 -67.167 39.5 -87.5s20.167 -31.166 21.5 -32.499c2.66699 -3.33301 3.5 -7.66602 2.5 -12.999s-3.83301 -9.66602 -8.5 -12.999c-3.33301 -4 -8 -6 -14 -6c-5.33301 0 -9.33301 2 -12 6
c-7.33301 9.33301 -14.666 20.333 -21.999 33c-6.66699 10.667 -13.5 23.834 -20.5 39.501s-14.167 33.5 -21.5 53.5c-7.33301 23.333 -13.666 46.833 -18.999 70.5s-9 47.834 -11 72.501z" />
    <glyph glyph-name="parenright" unicode=")" horiz-adv-x="371" 
d="M1.5 -88.5c1.66699 5 4.5 9.16797 8.5 12.501h1c0.666992 0.666992 4.5 3.66699 11.5 9s15.667 12.833 26 22.5s22.333 21.334 36 35.001s27.834 29.167 42.501 46.5c17.333 20.667 33.5 41.834 48.5 63.501s28.5 43.5 40.5 65.5c15.333 28 28.333 56.167 39 84.5
s19 57.166 25 86.499s10.167 58.5 12.5 87.5s2.16602 57.833 -0.500977 86.5c-2 23.333 -5.33301 46.166 -10 68.499s-10.667 44.5 -18 66.5c-13.333 38 -26.5 67.167 -39.5 87.5s-20.167 31.166 -21.5 32.499c-2.66699 3.33301 -3.5 7.66602 -2.5 12.999
s3.83301 9.66602 8.5 12.999c2.66699 4 7.33398 6 14.001 6c4.66699 0 8.66699 -2 12 -6c6.66699 -10 13.667 -21 21 -33c6 -11.333 12.833 -24.666 20.5 -39.999s15.167 -33 22.5 -53c7.33301 -23.333 13.666 -46.833 18.999 -70.5s9 -47.834 11 -72.501
c5.33301 -62 1.33301 -124 -12 -186c-13.333 -63.333 -36.333 -124.666 -69 -183.999c-13.333 -23.333 -27.833 -46.666 -43.5 -69.999s-33.167 -46 -52.5 -68c-16 -19.333 -31.5 -36.333 -46.5 -51s-28.167 -27 -39.5 -37s-20.333 -17.667 -27 -23
s-10.334 -8.33301 -11.001 -9c-5.33301 -2.66699 -9.66602 -4 -12.999 -4c-6 0 -10 2.33301 -12 7c-2.66699 4 -3.16699 8.5 -1.5 13.5z" />
    <glyph glyph-name="asterisk" unicode="*" horiz-adv-x="294" 
d="M1 458c1.33301 4.66699 3.65723 8.6709 6.99023 12.0039h1l6 5c3.33301 3.33301 7.16602 7 11.499 11l13 12c4.33301 4 7.16602 6.66699 8.49902 8c3.33301 3.33301 7.5 6.66602 12.5 9.99902s9.5 6.66602 13.5 9.99902c4.66699 3.33301 9.66699 6.66602 15 9.99902
l20 13l-19 5l-5 2c-3.33301 1.33301 -7.16602 2.66602 -11.499 3.99902s-9 3.16602 -14 5.49902s-9.16699 4.5 -12.5 6.5l-29 17c-3.33301 2.66699 -5.16602 6.16699 -5.49902 10.5s1.16699 8.5 4.5 12.5c4 6 9.33301 9 16 9c2 0 5 -0.666992 9 -2v-1
c0.666992 0 4.33398 -1.83301 11.001 -5.5s11.334 -6.16699 14.001 -7.5c3.33301 -2 6.83301 -4.5 10.5 -7.5s7.16699 -5.83301 10.5 -8.5c3.33301 -3.33301 7 -6.66602 11 -9.99902l18 -18l1 28c0 5.33301 0.333008 11 1 17c0.666992 5.33301 1.16699 10.666 1.5 15.999
s1.16602 10 2.49902 14c0 1.33301 0.333008 3.5 1 6.5s1.33398 6.16699 2.00098 9.5s1.33398 7 2.00098 11c1.33301 4.66699 3.83301 8.66699 7.5 12s8.16699 5 13.5 5s9.33301 -1.66699 12 -5s3.33398 -7.33301 2.00098 -12c-0.666992 -4 -1.33398 -7.66699 -2.00098 -11
c-1.33301 -6.66699 -2.66602 -12.334 -3.99902 -17.001s-2.66602 -9.5 -3.99902 -14.5s-3 -10.167 -5 -15.5c-2.66699 -6 -5 -11.667 -7 -17l-10 -28l25 18c4.66699 3.33301 9.66699 6.33301 15 9c4 2.66699 8.5 5.5 13.5 8.5s9.83301 5.5 14.5 7.5
c3.33301 1.33301 9.33301 4 18 8s13.334 6.33301 14.001 7c2 1.33301 5 2 9 2c7.33301 0 12 -2.66699 14 -8c1.33301 -4.66699 1 -9.33398 -1 -14.001c-2.66699 -4.66699 -6.33398 -8 -11.001 -10c-0.666992 -0.666992 -2.66699 -1.66699 -6 -3s-7 -3 -11 -5l-12 -6
c-4 -2 -7 -3.33301 -9 -4c-7.33301 -3.33301 -16.166 -6.16602 -26.499 -8.49902s-17.833 -4.16602 -22.5 -5.49902l-26 -5l19 -14c4 -3.33301 7.66699 -6.33301 11 -9s6.33301 -5.83398 9 -9.50098s5.33398 -7.16699 8.00098 -10.5c1.33301 -1.33301 3.33301 -4 6 -8
s5.5 -8 8.5 -12s5.66699 -7.66699 8 -11s3.5 -5.33301 3.5 -6c2.66699 -2.66699 3.33398 -6.66699 2.00098 -12s-4 -9.66602 -8 -12.999c-3.33301 -3.33301 -7.66602 -5 -12.999 -5c-4 0 -7.66699 1.66699 -11 5c-0.666992 0.666992 -2.16699 2.83398 -4.5 6.50098
s-5 7.83398 -8 12.501s-6 9 -9 13s-4.83301 6.66699 -5.5 8c-2 3.33301 -4.16699 7.33301 -6.5 12l-6.5 13c-2.66699 4.66699 -4.66699 9.66699 -6 15l-5 16l-13 -16c-4.66699 -5.33301 -9 -10.666 -13 -15.999c-7.33301 -9.33301 -14.666 -17.666 -21.999 -24.999
c-2 -1.33301 -5.33301 -4 -10 -8s-9.5 -8.33301 -14.5 -13s-9.5 -8.83398 -13.5 -12.501s-6.33301 -5.83398 -7 -6.50098c-4.66699 -3.33301 -9 -5 -13 -5c-5.33301 0 -9 1.66699 -11 5c-3.33301 3.33301 -4.33301 7.66602 -3 12.999z" />
    <glyph glyph-name="plus" unicode="+" horiz-adv-x="368" 
d="M1 253c1.33301 4.66699 4 8.66699 8 12s8.33301 5 13 5h129l22 105l3 12c1.33301 4.66699 3.83301 8.66699 7.5 12s7.83398 5 12.501 5c5.33301 0 9.5 -1.66699 12.5 -5s3.83301 -7.33301 2.5 -12l-3 -12l-22 -105h128c5.33301 0 9.33301 -1.66699 12 -5
s3.33398 -7.33301 2.00098 -12c-1.33301 -5.33301 -4 -9.66602 -8 -12.999s-8.66699 -5 -14 -5h-128l-26 -125l-1 -3c-1.33301 -4.66699 -3.83301 -8.66699 -7.5 -12s-8.16699 -5 -13.5 -5c-4.66699 0 -8.5 1.66699 -11.5 5s-3.83301 7.33301 -2.5 12l27 128h-129
c-4.66699 0 -8.33398 1.66699 -11.001 5s-3.33398 7.66602 -2.00098 12.999z" />
    <glyph glyph-name="comma" unicode="," horiz-adv-x="116" 
d="M-57 -73l44.998 73.002l-5 5c-6 6.66699 -7.33301 15.667 -4 27c3.33301 9.33301 8.83301 17.166 16.5 23.499s15.167 9.5 22.5 9.5s12.333 -2.33301 15 -7c4.66699 -6.66699 5.33398 -14.334 2.00098 -23.001l-1 -1c-1.33301 -4 -3.33301 -8.66699 -6 -14
c-2 -3.33301 -6.33301 -10.5 -13 -21.5s-13.667 -22.333 -21 -34s-13.666 -22.167 -18.999 -31.5l-9 -15c-3.33301 -6 -8 -9 -14 -9c-1.33301 0 -2.33301 0.166992 -3 0.5s-1.33398 0.5 -2.00098 0.5c-7.33301 3.33301 -8.66602 9 -3.99902 17z" />
    <glyph glyph-name="hyphen" unicode="-" 
d="M1 249c1.33301 5.33301 4.16602 9.83301 8.49902 13.5s9.16602 5.5 14.499 5.5h245c5.33301 0 9.5 -1.83301 12.5 -5.5s3.83301 -8.16699 2.5 -13.5s-4.16602 -9.83301 -8.49902 -13.5s-9.16602 -5.5 -14.499 -5.5h-245c-5.33301 0 -9.5 1.83301 -12.5 5.5
s-3.83301 8.16699 -2.5 13.5z" />
    <glyph glyph-name="period" unicode="." horiz-adv-x="138" 
d="M2 31c3.33301 9.33301 8.6709 17.332 16.0039 23.999s14.666 10 21.999 10c4 0 7.16699 -0.833008 9.5 -2.5s4.16602 -3.5 5.49902 -5.5c2 -3.33301 3.16699 -7 3.5 -11s0.166016 -8.33301 -0.500977 -13c-3.33301 -9.33301 -8.83301 -17.166 -16.5 -23.499
s-15.167 -9.5 -22.5 -9.5c-8 0 -13 2.33301 -15 7c-4.66699 6.66699 -5.33398 14.667 -2.00098 24z" />
    <glyph glyph-name="slash" unicode="/" horiz-adv-x="537" 
d="M0.5 14c-0.333008 4.66699 0.833008 9.33203 3.5 13.999l501 653c4.66699 6 10.667 9 18 9c2 0 5 -0.666992 9 -2c4 -3.33301 6 -7 6 -11c0 -6 -1.66699 -10.667 -5 -14l-499 -653c-6.66699 -6.66699 -12.667 -10 -18 -10c-4 0 -7 1 -9 3
c-4 2.66699 -6.16699 6.33398 -6.5 11.001z" />
    <glyph glyph-name="zero" unicode="0" horiz-adv-x="521" 
d="M3 185c-5.33301 50 -0.998047 103.333 13.002 160c11.333 46 27.666 89.667 48.999 131s47 78 77 110c30.667 34 62.667 59.667 96 77s66 26 98 26c50 0 90 -20.667 120 -62c23.333 -32 37.666 -73 42.999 -123s1.33301 -103.333 -12 -160
c-12 -46 -28.833 -89.667 -50.5 -131s-47.5 -78 -77.5 -110c-30 -34 -61.5 -59.667 -94.5 -77s-65.5 -26 -97.5 -26c-50.667 0 -90.667 20.667 -120 62c-24 32 -38.667 73 -44 123zM38.002 198c4.66699 -45.333 17.668 -82.333 39.001 -111c24 -34 56.333 -51 97 -51
c27.333 0 55.166 7.83301 83.499 23.5s56.166 38.5 83.499 68.5c25.333 29.333 47.5 62.5 66.5 99.5s33.833 76.167 44.5 117.5c12.667 52 16.667 100.5 12 145.5s-17.667 82.167 -39 111.5c-26 34 -58.333 51 -97 51c-28 0 -56.167 -7.83301 -84.5 -23.5
s-55.5 -38.5 -81.5 -68.5c-26 -29.333 -48.5 -62.5 -67.5 -99.5s-33.5 -76.167 -43.5 -117.5c-13.333 -52 -17.666 -100.667 -12.999 -146z" />
    <glyph glyph-name="one" unicode="1" horiz-adv-x="365" 
d="M1 18c3.33301 12.667 10.668 19.001 22.001 19.001h102l132 576l-123 -108c-4 -4 -8.66699 -6 -14 -6c-4.66699 0 -8.66699 1.66699 -12 5s-4.5 7.66602 -3.5 12.999s3.5 10 7.5 14l164 143c4 4 8.66699 6 14 6c3.33301 0 5.66602 -0.333008 6.99902 -1
c7.33301 -4 10 -10 8 -18l-143 -624h86c5.33301 0 9.5 -1.83301 12.5 -5.5s3.83301 -8.16699 2.5 -13.5s-4 -9.66602 -8 -12.999s-8.66699 -5 -14 -5h-225c-5.33301 0 -9.5 1.66699 -12.5 5s-3.83301 7.66602 -2.5 12.999z" />
    <glyph glyph-name="two" unicode="2" horiz-adv-x="515" 
d="M0 -1l4.00293 18.9971c18 82 55.333 150.333 112 205c24.667 24 51 44.833 79 62.5s55.333 34.167 82 49.5c22 12.667 42.5 24.834 61.5 36.501s36.167 24.167 51.5 37.5c18 15.333 32.167 31.5 42.5 48.5s17.833 35.5 22.5 55.5c7.33301 38 -0.333984 68.667 -23.001 92
c-22.667 24 -55 36 -97 36c-24.667 0 -47.834 -4.16699 -69.501 -12.5s-41 -17.666 -58 -27.999s-30.833 -20.333 -41.5 -30s-17 -15.5 -19 -17.5c-6 -4.66699 -11.333 -7 -16 -7s-8.33398 1.33301 -11.001 4c-3.33301 3.33301 -4.83301 7.5 -4.5 12.5s2.83301 9.5 7.5 13.5
c5.33301 5.33301 15.166 14 29.499 26s32.166 24.333 53.499 37c46.667 26 92.334 39 137.001 39c50 0 89.667 -14.667 119 -44c30 -32 40 -72.333 30 -121c-5.33301 -24 -14 -46.167 -26 -66.5s-28.333 -39.833 -49 -58.5c-18.667 -16.667 -39 -31.667 -61 -45
s-43.667 -26.333 -65 -39c-26 -15.333 -52.167 -31.166 -78.5 -47.499s-50.833 -35.5 -73.5 -57.5c-22 -22 -41.333 -47 -58 -75c-14.667 -24.667 -25.667 -50.334 -33 -77.001l-3 -11h336c5.33301 0 9.33301 -1.66699 12 -5s3.33398 -7.66602 2.00098 -12.999
s-4 -9.83301 -8 -13.5s-8.66699 -5.5 -14 -5.5h-373z" />
    <glyph glyph-name="three" unicode="3" horiz-adv-x="509" 
d="M0.5 115c-0.333008 2 0.163086 3.66699 1.49609 5c3.33301 10 10.333 15 21 15h2c7.33301 -1.33301 11.333 -4.66602 12 -9.99902l1 -4c1.33301 -1.33301 3.83301 -6.33301 7.5 -15s10.5 -18 20.5 -28c26.667 -28 63.667 -42 111 -42c14 0 31.167 2.66699 51.5 8
s40.833 14.666 61.5 27.999c44.667 30.667 73 72.667 85 126c8 38 5.33301 69.667 -8 95c-5.33301 10 -12.166 19.167 -20.499 27.5s-18.833 15.5 -31.5 21.5c-10 5.33301 -20.167 9.5 -30.5 12.5s-19.833 5.16699 -28.5 6.5c-10 2 -19.333 3 -28 3
c-5.33301 0 -9.5 1.83301 -12.5 5.5s-3.83301 8.16699 -2.5 13.5s4.16602 9.66602 8.49902 12.999s9.16602 5 14.499 5c16.667 0 35.334 3.33301 56.001 10s40.667 15.667 60 27c28 16.667 47.333 33.834 58 51.501s17.334 33.167 20.001 46.5
c2.66699 12.667 2.16699 25.5 -1.5 38.5s-10.667 24.5 -21 34.5s-24.166 18.167 -41.499 24.5s-38 9.5 -62 9.5c-20.667 0 -39.167 -2 -55.5 -6s-30.333 -8.5 -42 -13.5s-21 -9.83301 -28 -14.5s-11.167 -7.66699 -12.5 -9l-2 -2c-3.33301 -2.66699 -7.66602 -4 -12.999 -4
s-9.33301 1.66699 -12 5s-3.33398 7.66602 -2.00098 12.999c0.666992 4.66699 3 9 7 13c1.33301 0.666992 6 3.83398 14 9.50098s18.667 11.834 32 18.501c38 18 78.667 27 122 27c55.333 0 97.333 -14.333 126 -43c13.333 -13.333 22.5 -28.833 27.5 -46.5
s5.5 -35.834 1.5 -54.501c-5.33301 -25.333 -16.666 -48.833 -33.999 -70.5s-40 -41.167 -68 -58.5c-3.33301 -2 -7.16602 -4.16699 -11.499 -6.5s-8.83301 -4.5 -13.5 -6.5l-19 -10l17 -9c28.667 -15.333 49.667 -35.333 63 -60c16.667 -31.333 20.334 -70.333 11.001 -117
c-9.33301 -41.333 -24.5 -74.333 -45.5 -99s-41.167 -43.334 -60.5 -56.001c-21.333 -13.333 -44 -24 -68 -32s-47 -12 -69 -12c-36 0 -64.667 5.83301 -86 17.5s-37.333 23.5 -48 35.5c-12 12.667 -20.333 24.334 -25 35.001s-7.33398 16.667 -8.00098 18v1l-1 4
c0 1.33301 -0.166992 3 -0.5 5z" />
    <glyph glyph-name="four" unicode="4" horiz-adv-x="483" 
d="M1 186c-2 5.33301 -0.337891 11.332 4.99512 17.999l384 469c4.66699 6 10.334 9 17.001 9c2.66699 0 4.33398 -0.333008 5.00098 -1c8.66699 -2 12.334 -7.66699 11.001 -17l-97 -456l45 -1c5.33301 0 9.33301 -1.83301 12 -5.5s3.33398 -8.16699 2.00098 -13.5
s-4 -9.66602 -8 -12.999s-8.66699 -5 -14 -5l-45 1l-32 -152c-1.33301 -5.33301 -4.16602 -9.66602 -8.49902 -12.999s-9.16602 -5 -14.499 -5s-9.33301 1.66699 -12 5s-3.33398 7.66602 -2.00098 12.999l32 152l-266 5c-6 0 -10.667 3.33301 -14 10zM55.9951 211.999
l233 -4l83 390z" />
    <glyph glyph-name="five" unicode="5" horiz-adv-x="530" 
d="M0 108l-0.00390625 9.00098c1.33301 5.33301 4.16602 9.66602 8.49902 12.999s9.16602 5 14.499 5c3.33301 0 6.33301 -0.666992 9 -2s4.33398 -3.66602 5.00098 -6.99902l1 -1v-1c1.33301 -2.66699 4.33301 -8.33398 9 -17.001s11.667 -17.667 21 -27
c30 -28.667 67.333 -43 112 -43c22 0 45.5 5.16699 70.5 15.5s48.167 25.166 69.5 44.499c24.667 20.667 45 44.667 61 72s27.333 56 34 86c5.33301 25.333 6.83301 49 4.5 71s-8.16602 41.667 -17.499 59c-21.333 40.667 -59.666 61 -114.999 61
c-24 0 -46.333 -3.66699 -67 -11s-38.834 -15.333 -54.501 -24s-27.834 -16.667 -36.501 -24l-14 -12c-5.33301 -4 -10.333 -6 -15 -6c-3.33301 0 -6 0.333008 -8 1c-3.33301 1.33301 -5.66602 3.83301 -6.99902 7.5s-1.33301 7.5 0 11.5l87 275
c3.33301 10.667 10.333 16 21 16h302c5.33301 0 9.5 -1.66699 12.5 -5s3.83301 -7.66602 2.5 -12.999s-4.16602 -9.83301 -8.49902 -13.5s-9.16602 -5.5 -14.499 -5.5h-285l-65 -209l20 11c46.667 25.333 92.667 38 138 38c28 0 53.167 -4.83301 75.5 -14.5
s40.833 -23.834 55.5 -42.501c16 -21.333 26.333 -46.333 31 -75s3.33398 -60.667 -3.99902 -96s-20.666 -68.666 -39.999 -99.999s-43 -59.333 -71 -84c-26.667 -22.667 -54.5 -40.167 -83.5 -52.5s-57.5 -18.5 -85.5 -18.5s-53.5 4.5 -76.5 13.5
s-43.167 22.167 -60.5 39.5c-12.667 13.333 -21.5 25.333 -26.5 36s-7.83301 16.667 -8.5 18z" />
    <glyph glyph-name="six" unicode="6" horiz-adv-x="463" 
d="M10 245c8.66699 43.333 21.3311 82.6641 37.998 117.997s35 67.333 55 96s40.833 53.834 62.5 75.501s42.5 40.167 62.5 55.5c31.333 24.667 60.333 44 87 58s47.667 24 63 30c1.33301 0.666992 3 1 5 1c10.667 0 15 -5.66699 13 -17
c-1.33301 -6.66699 -5.66602 -11.667 -12.999 -15l-4 -2c-13.333 -5.33301 -32.333 -14.666 -57 -27.999s-51.334 -31 -80.001 -53c-57.333 -46 -103.333 -98.333 -138 -157l-16 -27l28 15c52.667 27.333 105 41 157 41c2 0 6.33301 -0.166992 13 -0.5
s14.334 -1.33301 23.001 -3s18.167 -4.33398 28.5 -8.00098s20.166 -8.83398 29.499 -15.501c50.667 -32 67.334 -88.333 50.001 -169c-5.33301 -26 -12.5 -49.167 -21.5 -69.5s-18.833 -38.166 -29.5 -53.499s-21.5 -28.666 -32.5 -39.999s-21.5 -20.666 -31.5 -27.999
c-24 -18 -47.833 -30.667 -71.5 -38s-43.5 -11 -59.5 -11c-17.333 0 -37.333 2.5 -60 7.5s-43 15.5 -61 31.5c-47.333 41.333 -60.666 110 -39.999 206zM41.9971 244.998c-16.667 -78 -8.99707 -135.002 23.0029 -171.002c24 -27.333 61.667 -41 113 -41
c11.333 0 26.666 2.83301 45.999 8.5s39.333 16.167 60 31.5s40.167 36.5 58.5 63.5s32.166 61.5 41.499 103.5c7.33301 34.667 7.33301 64 0 88c-5.33301 19.333 -16.666 36 -33.999 50c-14.667 10.667 -30 17.334 -46 20.001s-28.667 4 -38 4c-42.667 0 -85 -10 -127 -30
c-17.333 -8 -32 -16.167 -44 -24.5s-21 -15.166 -27 -20.499l-4 -3v-3c-4.66699 -12 -8.83398 -24.333 -12.501 -37s-6.83398 -25.667 -9.50098 -39z" />
    <glyph glyph-name="seven" unicode="7" horiz-adv-x="456" 
d="M1 12c-0.666992 4 0.666992 9 4 15l438 610h-345c-5.33301 0 -9.33301 1.83301 -12 5.5s-3.33398 8.16699 -2.00098 13.5s4 9.83301 8 13.5s8.66699 5.5 14 5.5h375c7.33301 0 12 -3 14 -9c3.33301 -5.33301 2.33301 -11.333 -3 -18l-456 -638
c-6.66699 -6.66699 -13 -10 -19 -10c-4 0 -7 0.666992 -9 2c-3.33301 2 -5.66602 5.33301 -6.99902 10z" />
    <glyph glyph-name="eight" unicode="8" horiz-adv-x="486" 
d="M5 174c12 46.667 35.6689 86.002 71.002 118.002c25.333 24.667 60 46.667 104 66l22 10l-19 8c-63.333 31.333 -87 78.666 -71 141.999c14 57.333 46 100.666 96 129.999c17.333 10 36.166 17.833 56.499 23.5s40.166 8.5 59.499 8.5c26.667 0 50.667 -4.5 72 -13.5
s38 -21.833 50 -38.5c20 -26 25.333 -59.333 16 -100c-9.33301 -36.667 -27 -67 -53 -91c-21.333 -20.667 -49 -38.667 -83 -54l-20 -10l16 -9c36 -20 61.167 -46.167 75.5 -78.5s16.833 -68.166 7.5 -107.499c-5.33301 -25.333 -15.5 -49 -30.5 -71s-33.167 -41 -54.5 -57
c-22 -16 -45.833 -28.333 -71.5 -37s-52.167 -13 -79.5 -13c-31.333 0 -59.5 5.16699 -84.5 15.5s-44.833 25.166 -59.5 44.499c-23.333 32 -30 70 -20 114zM41.002 173.002c-8 -34.667 -3 -63.9961 15 -87.9961c11.333 -15.333 27.5 -27.333 48.5 -36s44.833 -13 71.5 -13
c20 0 40 2.83301 60 8.5s38.667 14.167 56 25.5c40 26 66.333 62.333 79 109c4.66699 21.333 5.16699 41.666 1.5 60.999s-11.834 36.666 -24.501 51.999c-13.333 16.667 -28.666 29.5 -45.999 38.5s-33 15.833 -47 20.5l-3 1l-5 -2
c-1.33301 -0.666992 -2.83301 -1.33398 -4.5 -2.00098s-3.16699 -1.33398 -4.5 -2.00098c-20 -8 -40.167 -16.5 -60.5 -25.5s-39.166 -19.833 -56.499 -32.5c-42.667 -30.667 -69.334 -69 -80.001 -115zM147.002 517.006c-7.33301 -32 -2.3291 -58.001 15.0039 -78.001
c9.33301 -9.33301 21.166 -18 35.499 -26s33.166 -15.333 56.499 -22l3 -1l9 3c19.333 8 38.166 16.167 56.499 24.5s34.166 17.833 47.499 28.5c30 21.333 49 49 57 83c6.66699 28.667 3 53.334 -11 74.001c-10 13.333 -23.833 23.5 -41.5 30.5s-37.167 10.5 -58.5 10.5
c-2 0 -10.167 -0.833008 -24.5 -2.5s-30.833 -6.16699 -49.5 -13.5c-17.333 -7.33301 -35.5 -19.5 -54.5 -36.5s-32.5 -41.833 -40.5 -74.5z" />
    <glyph glyph-name="nine" unicode="9" horiz-adv-x="463" 
d="M7 441c5.33301 26 12.5029 49.1689 21.5029 69.502s18.833 38.166 29.5 53.499s21.5 28.666 32.5 39.999s21.5 20.666 31.5 27.999c24 18 47.833 30.667 71.5 38s43.5 11 59.5 11c17.333 0 37.333 -2.5 60 -7.5s43 -15.5 61 -31.5
c47.333 -41.333 60.666 -110 39.999 -206c-8.66699 -43.333 -21.334 -82.666 -38.001 -117.999s-35 -67.333 -55 -96s-40.833 -53.834 -62.5 -75.501s-42.5 -40.167 -62.5 -55.5c-31.333 -24.667 -60.333 -44 -87 -58s-47.667 -24 -63 -30c-1.33301 -0.666992 -3 -1 -5 -1
c-10.667 0 -15 5.66699 -13 17c1.33301 6.66699 5.66602 11.667 12.999 15l4 2c13.333 5.33301 32.333 14.666 57 27.999s51.334 31 80.001 53c57.333 46 103.333 98.333 138 157l16 27l-28 -15c-52.667 -27.333 -105 -41 -157 -41c-2 0 -6.33301 0.166992 -13 0.5
s-14.334 1.33301 -23.001 3s-18.167 4.33398 -28.5 8.00098s-20.166 8.83398 -29.499 15.501c-50.667 32 -67.334 88.333 -50.001 169zM40.0029 353.002c5.33301 -19.333 16.6631 -35.998 33.9961 -49.998c14.667 -10.667 30 -17.334 46 -20.001s28.667 -4 38 -4
c42.667 0 85 10 127 30c17.333 8 32 16.167 44 24.5s21 15.166 27 20.499l4 3v3c4.66699 12 8.83398 24.333 12.501 37s6.83398 25.667 9.50098 39c16.667 78 9 135 -23 171c-24 27.333 -61.667 41 -113 41c-11.333 0 -26.666 -2.83301 -45.999 -8.5
s-39.333 -16.167 -60 -31.5s-40.167 -36.5 -58.5 -63.5s-32.166 -61.5 -41.499 -103.5c-7.33301 -34.667 -7.33301 -64 0 -88z" />
    <glyph glyph-name="colon" unicode=":" horiz-adv-x="203" 
d="M2 31c3.33301 9.33301 8.6709 17.332 16.0039 23.999s14.666 10 21.999 10c4 0 7.16699 -0.833008 9.5 -2.5s4.16602 -3.5 5.49902 -5.5c2 -3.33301 3.16699 -7 3.5 -11s0.166016 -8.33301 -0.500977 -13c-3.33301 -9.33301 -8.83301 -17.166 -16.5 -23.499
s-15.167 -9.5 -22.5 -9.5c-8 0 -13 2.33301 -15 7c-4.66699 6.66699 -5.33398 14.667 -2.00098 24zM107.005 388.999c3.33301 9.33301 8.6709 17.332 16.0039 23.999s14.666 10 21.999 10c4 0 7.16699 -0.833008 9.5 -2.5s4.16602 -3.5 5.49902 -5.5
c2 -3.33301 3.16699 -7 3.5 -11s0.166016 -8.33301 -0.500977 -13c-3.33301 -9.33301 -8.83301 -17.166 -16.5 -23.499s-15.167 -9.5 -22.5 -9.5c-8 0 -13 2.33301 -15 7c-4.66699 6.66699 -5.33398 14.667 -2.00098 24z" />
    <glyph glyph-name="semicolon" unicode=";" horiz-adv-x="303" 
d="M3 -73l44.998 73.002l-5 5c-6 6.66699 -7.33301 15.667 -4 27c3.33301 9.33301 8.83301 17.166 16.5 23.499s15.167 9.5 22.5 9.5s12.333 -2.33301 15 -7c4.66699 -6.66699 5.33398 -14.334 2.00098 -23.001l-1 -1c-1.33301 -4 -3.33301 -8.66699 -6 -14
c-2 -3.33301 -6.33301 -10.5 -13 -21.5s-13.667 -22.333 -21 -34s-13.666 -22.167 -18.999 -31.5l-9 -15c-3.33301 -6 -8 -9 -14 -9c-1.33301 0 -2.33301 0.166992 -3 0.5s-1.33398 0.5 -2.00098 0.5c-7.33301 3.33301 -8.66602 9 -3.99902 17zM206.998 389.002
c3.33301 9.33301 8.6709 17.332 16.0039 23.999s14.666 10 21.999 10c4 0 7.16699 -0.833008 9.5 -2.5s4.16602 -3.5 5.49902 -5.5c2 -3.33301 3.16699 -7 3.5 -11s0.166016 -8.33301 -0.500977 -13c-3.33301 -9.33301 -8.83301 -17.166 -16.5 -23.499
s-15.167 -9.5 -22.5 -9.5c-8 0 -13 2.33301 -15 7c-4.66699 6.66699 -5.33398 14.667 -2.00098 24z" />
    <glyph glyph-name="less" unicode="&#x3c;" horiz-adv-x="477" 
d="M1 250c1.33301 7.33301 5.33301 12.334 12 15.001l399 225c2.66699 2 6 3 10 3c8 0 12.667 -3 14 -9c2.66699 -3.33301 2.66699 -8 0 -14c-2 -4.66699 -5.66699 -8.66699 -11 -12l-372 -209l265 -204c4 -2 6 -6 6 -12c0 -4 -1.66699 -8.66699 -5 -14
c-6.66699 -5.33301 -12.667 -8 -18 -8c-4 0 -7.33301 1 -10 3l-285 220c-5.33301 3.33301 -7 8.66602 -5 15.999z" />
    <glyph glyph-name="equal" unicode="=" horiz-adv-x="409" 
d="M1 169c1.33301 5.33301 4.16602 9.66602 8.49902 12.999s9.16602 5 14.499 5h297c5.33301 0 9.33301 -1.66699 12 -5s3.33398 -7.66602 2.00098 -12.999s-3.83301 -9.66602 -7.5 -12.999s-8.16699 -5 -13.5 -5h-297c-5.33301 0 -9.66602 1.66699 -12.999 5
s-4.33301 7.66602 -3 12.999zM35 329c1.33301 5.33301 4.16602 9.83301 8.49902 13.5s9.16602 5.5 14.499 5.5h297c5.33301 0 9.33301 -1.83301 12 -5.5s3.33398 -8.16699 2.00098 -13.5s-3.83301 -9.66602 -7.5 -12.999s-8.16699 -5 -13.5 -5h-297
c-5.33301 0 -9.66602 1.66699 -12.999 5s-4.33301 7.66602 -3 12.999z" />
    <glyph glyph-name="greater" unicode="&#x3e;" horiz-adv-x="477" 
d="M2 20c-2.66699 3.33301 -2.66699 7.99902 0 13.999c2 4.66699 5.66699 8.66699 11 12l372 209l-265 204c-4 2 -6 6 -6 12c0 4 1.66699 8.66699 5 14c6.66699 5.33301 12.667 8 18 8c4 0 7.33301 -1 10 -3l285 -220c5.33301 -3.33301 7 -8.66602 5 -15.999
c-1.33301 -7.33301 -5.33301 -12.333 -12 -15l-399 -225c-2.66699 -2 -6 -3 -10 -3c-8 0 -12.667 3 -14 9z" />
    <glyph glyph-name="question" unicode="?" horiz-adv-x="474" 
d="M2 31c3.33301 9.33301 8.66895 17.166 16.002 23.499s14.666 9.5 21.999 9.5c6.66699 0 11.667 -2.33301 15 -7c4 -6.66699 4.66699 -14.667 2 -24s-7.83398 -17.166 -15.501 -23.499s-15.167 -9.5 -22.5 -9.5c-4 0 -7.16699 0.833008 -9.5 2.5
s-4.16602 3.16699 -5.49902 4.5c-4.66699 6.66699 -5.33398 14.667 -2.00098 24zM54.0029 604c-1.33301 6 0.671875 11.668 6.00488 17.001c13.333 12.667 26.666 23.834 39.999 33.501s26.666 18.167 39.999 25.5c38.667 20.667 77 31 115 31c66 0 114.667 -18.667 146 -56
c31.333 -36.667 41 -85.334 29 -146.001c-10 -45.333 -34.333 -88.333 -73 -129c-16.667 -17.333 -34 -32.833 -52 -46.5s-34.667 -25.834 -50 -36.501l-5 -4c-6.66699 -4.66699 -15.5 -11 -26.5 -19s-22.833 -16.667 -35.5 -26s-26 -19.333 -40 -30
s-27.333 -20.667 -40 -30l-3 -2v-1c-4.66699 -3.33301 -9 -5 -13 -5c-5.33301 0 -9.5 1.66699 -12.5 5s-3.83301 7.33301 -2.5 12c0.666992 4.66699 3.66699 9 9 13l4 2l2 2c22.667 16.667 47.5 35.167 74.5 55.5s49.833 37.833 68.5 52.5
c3.33301 2.66699 6.66602 5.16699 9.99902 7.5s6.66602 4.83301 9.99902 7.5c14 10 28.333 20.833 43 32.5s28.5 24.5 41.5 38.5s24.5 29.333 34.5 46s17 35 21 55c4.66699 22.667 5.66699 43.667 3 63s-9.33398 36.333 -20.001 51
c-5.33301 8.66699 -12.333 16.167 -21 22.5s-18 11.833 -28 16.5c-24 9.33301 -51.333 14 -82 14c-18.667 0 -36.334 -2.83301 -53.001 -8.5s-32.167 -12.5 -46.5 -20.5s-27.166 -16.667 -38.499 -26s-21 -17.666 -29 -24.999
c-1.33301 -0.666992 -2.33301 -1.33398 -3 -2.00098s-1.66699 -1 -3 -1c-2 -0.666992 -4.33301 -1 -7 -1c-8.66699 0 -13 4 -13 12z" />
    <glyph glyph-name="at" unicode="@" horiz-adv-x="769" 
d="M9 256c7.33301 35.333 17.6641 67.332 30.9971 95.999s28 54.334 44 77.001s32.667 42.334 50 59.001s34 31 50 43c40 30 83.5 53.167 130.5 69.5s93.833 24.5 140.5 24.5c44.667 0 85.667 -7.66699 123 -23s68.333 -38 93 -68c26.667 -30.667 44.334 -67 53.001 -109
s7.66699 -87 -3 -135c-14 -66 -42 -115.333 -84 -148c-12 -9.33301 -23.833 -16.666 -35.5 -21.999s-22.5 -9.33301 -32.5 -12s-18.833 -4.33398 -26.5 -5.00098s-13.167 -1 -16.5 -1h-2c-0.666992 0 -5.33398 0.5 -14.001 1.5s-18.834 3.33301 -30.501 7
s-23.5 9.16699 -35.5 16.5s-21.333 17.666 -28 30.999c-2 4 -3.83301 8 -5.5 12s-2.83398 8.33301 -3.50098 13l-3 17l-14 -14c-46 -46.667 -89 -70 -129 -70c-24.667 0 -42.834 5 -54.501 15s-19.834 20.667 -24.501 32c-6 14.667 -8.33301 29.5 -7 44.5
s2.66602 25.833 3.99902 32.5c4 18 10.167 35.833 18.5 53.5s18.5 34 30.5 49s25.333 28.5 40 40.5s30.334 22 47.001 30c24.667 10.667 48 16 70 16c30.667 0 58.334 -9.33301 83.001 -28l8 -6c5.33301 -3.33301 7 -8.33301 5 -15
c-1.33301 -5.33301 -4 -9.66602 -8 -12.999s-8.66699 -5 -14 -5c-3.33301 0 -6 1 -8 3l-5 4c-19.333 16.667 -42.333 25 -69 25c-18 0 -36 -4.33301 -54 -13c-26.667 -12 -50 -31 -70 -57s-33 -54 -39 -84c-2.66699 -10.667 -3.83398 -21.334 -3.50098 -32.001
s2.5 -20.167 6.5 -28.5s10.167 -15.166 18.5 -20.499s19.5 -8 33.5 -8c16 0 32.333 5.33301 49 16s32.334 23.5 47.001 38.5s27.834 30.333 39.501 46s20.5 28.167 26.5 37.5v1c4.66699 6.66699 11 10 19 10c4.66699 0 8.5 -1.5 11.5 -4.5s3.83301 -7.16699 2.5 -12.5
c-0.666992 -1.33301 -1 -3 -1 -5h-1c-21.333 -43.333 -25.666 -76.333 -12.999 -99c4.66699 -10 11.667 -17.833 21 -23.5s18.5 -9.83398 27.5 -12.501s17 -4.33398 24 -5.00098s10.833 -1 11.5 -1h2c2 0 5.83301 0.333008 11.5 1s12.334 2 20.001 4s16 5 25 9
s18.167 9.66699 27.5 17c32 24.667 54 65.334 66 122.001c4 18.667 6.5 37.167 7.5 55.5s-0.166992 36.166 -3.5 53.499c-5.33301 37.333 -17.333 69.333 -36 96c-44 63.333 -112.333 95 -205 95c-43.333 0 -85.666 -7.33301 -126.999 -22
c-21.333 -7.33301 -42 -16.333 -62 -27s-39 -22.667 -57 -36c-40.667 -30.667 -74.334 -67.167 -101.001 -109.5s-45.334 -88.833 -56.001 -139.5c-11.333 -51.333 -10.666 -96.666 2.00098 -135.999s32.167 -72.333 58.5 -99s57 -46.834 92 -60.501s69.5 -20.5 103.5 -20.5
c43.333 0 83 6.5 119 19.5s65.333 26.167 88 39.5l7 4c3.33301 2.66699 7.33301 4 12 4s8.33398 -1.66699 11.001 -5s3.33398 -7.66602 2.00098 -12.999c-1.33301 -6 -4.33301 -10.333 -9 -13l-8 -5c-12.667 -7.33301 -27.334 -15 -44.001 -23s-34.667 -15.167 -54 -21.5
s-40.166 -11.5 -62.499 -15.5s-45.5 -6 -69.5 -6c-41.333 0 -81.166 8 -119.499 24s-71.5 38 -99.5 66c-32 33.333 -53.667 72.333 -65 117s-11.333 92.667 0 144z" />
    <glyph glyph-name="A" unicode="A" horiz-adv-x="607" 
d="M1 12c0 1.33301 -0.333008 2.66602 -1 3.99902c0 3.33301 1.33301 6.66602 4 9.99902l105 175l-35 -7c-0.666992 0 -1.16699 -0.166992 -1.5 -0.5s-1.16602 -0.5 -2.49902 -0.5c-4.66699 0 -8.33398 1.5 -11.001 4.5s-4 6.5 -4 10.5c0 4.66699 1.66699 9.66699 5 15
c4.66699 4.66699 9.33398 7.33398 14.001 8.00098l61 13l261 431c4.66699 8 11.667 12 21 12c8 0 13 -4.33301 15 -13l85 -649c0 -1.33301 0.333008 -2.66602 1 -3.99902c0 -4 -1.33301 -7.66699 -4 -11c-4 -4.66699 -8.33301 -7.66699 -13 -9
c-2.66699 -1.33301 -5.33398 -2 -8.00098 -2c-7.33301 0 -12.333 4.33301 -15 13l-34 259l-288 -60l-120 -198c-4 -8 -10.667 -12 -20 -12c-2.66699 0 -5 0.333008 -7 1c-4 2 -6.66699 5.33301 -8 10zM182 254l258 53l-40 306z" />
    <glyph glyph-name="B" unicode="B" horiz-adv-x="610" 
d="M1 20l137.001 644.003c1.33301 5.33301 4.16602 9.83301 8.49902 13.5s9.16602 5.5 14.499 5.5h186c76 0 128.333 -19.333 157 -58c8.66699 -11.333 15 -23 19 -35c4 -12.667 6.33301 -23.667 7 -33v-11c0 -5.33301 -0.333008 -10 -1 -14
c-0.666992 -6.66699 -1 -10.334 -1 -11.001c-13.333 -60 -46 -106.667 -98 -140l-18 -11l18 -7c1.33301 -0.666992 3.16602 -1.33398 5.49902 -2.00098s4.5 -1.33398 6.5 -2.00098c28.667 -12.667 50.667 -30.334 66 -53.001c12 -18.667 17.667 -40 17 -64
c0 -12.667 -1.33301 -26 -4 -40c-8 -40.667 -30.667 -75.667 -68 -105c-58 -46 -149 -76 -273 -90c-27.333 -3.33301 -52.166 -5.33301 -74.499 -6s-41.166 -1 -56.499 -1c-10 0 -17.833 0.166992 -23.5 0.5s-9.16699 0.5 -10.5 0.5c-5.33301 0 -9.33301 2 -12 6
c-2 2.66699 -3 5.33398 -3 8.00098c0.666992 2 1 3.66699 1 5zM42.001 38.0029l11.0039 0.00195312h3c15.333 0 34.166 0.333008 56.499 1s46.166 2.66699 71.499 6c56.667 6 106 15.833 148 29.5s75.667 30.167 101 49.5c28 23.333 45 49.333 51 78
c2.66699 10.667 4 21 4 31c0 18.667 -5 35 -15 49c-11.333 17.333 -29 31.333 -53 42c-10.667 4.66699 -21.334 8.16699 -32.001 10.5s-20.167 4.16602 -28.5 5.49902s-15.333 2.16602 -21 2.49902s-8.83398 0.5 -9.50098 0.5h-223zM114.005 380.005l212.998 -0.000976562
c16.667 0 32.334 2.83301 47.001 8.5s27.5 12.334 38.5 20.001s20.167 15 27.5 22s12 11.833 14 14.5c18 20 30 45.333 36 76c0 0.666992 0.666992 7.66699 2 21v4c0 12 -3.33301 24.667 -10 38c-10 18 -24.333 32 -43 42c-25.333 13.333 -58.666 20 -99.999 20h-168z" />
    <glyph glyph-name="C" unicode="C" horiz-adv-x="616" 
d="M7 166c-4.66699 18.667 -7.00391 38.3291 -7.00391 58.9961c0 22 2.66699 44.667 8 68c10 48 29.333 96.667 58 146c25.333 44.667 56.333 85.334 93 122.001c17.333 18 35.5 34.167 54.5 48.5s37.833 26.833 56.5 37.5c40 22 77.333 33 112 33
c56.667 0 101.667 -13.333 135 -40l8 -6l7 10c5.33301 6.66699 12 10 20 10c5.33301 0 9 -2 11 -6c2 -2 3 -4.66699 3 -8v-5l-13 -65c-1.33301 -5.33301 -4.16602 -9.83301 -8.49902 -13.5s-9.16602 -5.5 -14.499 -5.5s-9.5 1.83301 -12.5 5.5s-3.83301 8.16699 -2.5 13.5
l2 10l-3 3c-5.33301 6.66699 -11.166 13.167 -17.499 19.5s-14.833 12.5 -25.5 18.5c-25.333 14 -57.666 21 -96.999 21c-13.333 0 -27.666 -2.16699 -42.999 -6.5s-31.333 -11.166 -48 -20.499s-33.334 -20.5 -50.001 -33.5s-33 -27.5 -49 -43.5
c-35.333 -35.333 -64.833 -74.166 -88.5 -116.499s-40.167 -85.166 -49.5 -128.499c-4.66699 -21.333 -7 -41.333 -7 -60v-6c0.666992 -20 3.33398 -37.833 8.00098 -53.5s10.5 -29.5 17.5 -41.5s14.167 -22 21.5 -30c18 -20.667 40.333 -36.667 67 -48s54.667 -17 84 -17
c50 0 96.667 11.667 140 35c11.333 5.33301 24.666 13.333 39.999 24s31 24.667 47 42c4 4.66699 9.33301 7 16 7c4 0 7.66699 -1 11 -3c3.33301 -4 4.66602 -8.33301 3.99902 -13c0 -5.33301 -2 -10 -6 -14c-30 -31.333 -63 -56.333 -99 -75
c-51.333 -27.333 -105 -41 -161 -41c-34 0 -66.167 6.5 -96.5 19.5s-56.166 31.5 -77.499 55.5c-24 27.333 -40 58 -48 92z" />
    <glyph glyph-name="D" unicode="D" horiz-adv-x="599" 
d="M1 33l134.002 634c3.33301 12.667 11 19 23 19c20.667 0 43.167 -1 67.5 -3s49 -5.5 74 -10.5s49.667 -12 74 -21s47.166 -20.833 68.499 -35.5c44 -30 74.667 -68.667 92 -116c10.667 -29.333 16 -62 16 -98c0 -28 -3.33301 -58.333 -10 -91
c-15.333 -72 -44.333 -132 -87 -180c-34.667 -40.667 -77.334 -72 -128.001 -94c-20 -9.33301 -46.5 -18.166 -79.5 -26.499s-71.5 -12.5 -115.5 -12.5h-1c-14.667 0 -29 0.833008 -43 2.5s-26.5 3.5 -37.5 5.5s-20.167 4 -27.5 6l-10 3
c-7.33301 1.33301 -11 5.66602 -11 12.999c0.666992 1.33301 1 3 1 5zM40.002 47l7.99902 -0.999023c11.333 -2.66699 24.833 -5.16699 40.5 -7.5s31.834 -3.5 48.501 -3.5h1c40.667 0 76 3.83301 106 11.5s53.667 15.5 71 23.5c44.667 20 82 47 112 81
c36.667 41.333 62 94.666 76 159.999c6 29.333 9 57 9 83c0 32 -4.66699 61 -14 87c-14.667 40.667 -41.667 75 -81 103c-20 13.333 -49.167 26.833 -87.5 40.5s-88.5 21.5 -150.5 23.5h-11z" />
    <glyph glyph-name="E" unicode="E" horiz-adv-x="635" 
d="M1 19l135.996 643.001c1.33301 5.33301 4.16602 9.83301 8.49902 13.5s9.16602 5.5 14.499 5.5h440c4.66699 0 8.66699 -1.66699 12 -5c2 -2.66699 3.33301 -5.66699 4 -9c0 -1.33301 -0.333008 -3 -1 -5c-1.33301 -5.33301 -4.16602 -9.83301 -8.49902 -13.5
s-9.16602 -5.5 -14.499 -5.5h-421l-58 -272h371c5.33301 0 9.5 -1.83301 12.5 -5.5s3.83301 -8.16699 2.5 -13.5s-4.16602 -9.83301 -8.49902 -13.5s-9.16602 -5.5 -14.499 -5.5h-371l-62 -295h419c12 0 17 -6.33301 15 -19
c-1.33301 -5.33301 -4.16602 -9.83301 -8.49902 -13.5s-9.16602 -5.5 -14.499 -5.5h-438c-4.66699 0 -8.66699 2 -12 6c-2 2.66699 -3.33301 5.66699 -4 9c0.666992 1.33301 1 2.66602 1 3.99902z" />
    <glyph glyph-name="F" unicode="F" horiz-adv-x="560" 
d="M1 15l136.997 646c1.33301 5.33301 4.16602 9.83301 8.49902 13.5s9.16602 5.5 14.499 5.5h384c5.33301 0 9.66602 -1.66699 12.999 -5c2 -2.66699 3 -5.66699 3 -9c0 -1.33301 -0.333008 -3 -1 -5c-1.33301 -5.33301 -4.16602 -9.83301 -8.49902 -13.5
s-9.16602 -5.5 -14.499 -5.5h-365l-58 -273h332c5.33301 0 9.5 -1.83301 12.5 -5.5s3.83301 -8.16699 2.5 -13.5s-4.16602 -9.83301 -8.49902 -13.5s-9.16602 -5.5 -14.499 -5.5h-332l-67 -316c-1.33301 -5.33301 -4.16602 -9.83301 -8.49902 -13.5
s-9.16602 -5.5 -14.499 -5.5c-4.66699 0 -8.66699 1.66699 -12 5c-2 2.66699 -3.33301 5.66699 -4 9c0.666992 2 1 3.66699 1 5z" />
    <glyph glyph-name="G" unicode="G" horiz-adv-x="684" 
d="M1 228c-0.666992 8.66699 -1.00098 17.3359 -1.00098 26.0029s0.333008 17.334 1 26.001c1.33301 17.333 3.66602 34 6.99902 50s8.33301 33 15 51s14.667 36.333 24 55c11.333 20.667 23.333 40.667 36 60s26.667 37.333 42 54c14 15.333 30.167 30.833 48.5 46.5
s39 30 62 43s48.167 23.5 75.5 31.5s57 12 89 12c77.333 0 135.666 -22.333 174.999 -67c17.333 -19.333 29.5 -39 36.5 -59s11.167 -36 12.5 -48c0 -1.33301 0.333008 -3 1 -5c0 -3.33301 -1.33301 -6.66602 -4 -9.99902c-3.33301 -4.66699 -7.66602 -7.66699 -12.999 -9
c-2 -0.666992 -4.33301 -1 -7 -1c-4 0 -7.5 1.16699 -10.5 3.5s-4.5 5.16602 -4.5 8.49902c-2.66699 12.667 -7 27.5 -13 44.5s-15.667 33.167 -29 48.5c-34 37.333 -84.667 56 -152 56c-48 0 -93.333 -11.333 -136 -34c-36.667 -18.667 -71.334 -46 -104.001 -82
c-15.333 -17.333 -29 -35.333 -41 -54s-22.5 -36.667 -31.5 -54s-16.167 -33.833 -21.5 -49.5s-9.33301 -29.5 -12 -41.5c-4 -20 -6 -42.667 -6 -68v-21c1.33301 -34 9.66602 -67 24.999 -99c7.33301 -16 16.333 -30.333 27 -43s23 -23.334 37 -32.001
c30.667 -20.667 69.334 -31 116.001 -31c77.333 0 144.333 25.333 201 76c25.333 22.667 45 45.167 59 67.5s23.667 39.833 29 52.5l5 12l-11 1c-5.33301 0 -10.166 0.166992 -14.499 0.5s-9.16602 0.5 -14.499 0.5h-14c-16.667 -1.33301 -32.167 -2.83301 -46.5 -4.5
s-27.166 -3.5 -38.499 -5.5c-12.667 -2.66699 -24.334 -5.33398 -35.001 -8.00098c-1.33301 -0.666992 -3 -1 -5 -1c-9.33301 0 -14.666 4.66699 -15.999 14c-0.666992 5.33301 0.833008 10.166 4.5 14.499s8.16699 7.16602 13.5 8.49902c0.666992 0 4.5 1 11.5 3
s16.167 4 27.5 6s24.833 4 40.5 6s32.167 3.33301 49.5 4c2.66699 0.666992 5.33398 1 8.00098 1h8c31.333 0 56.333 -2.66699 75 -8s28.334 -8.33301 29.001 -9c4.66699 -2 7.66699 -5.33301 9 -10s0.666016 -9.66699 -2.00098 -15c-6 -8 -13 -12 -21 -12
c-1.33301 0 -2.33301 0.166992 -3 0.5s-1.66699 0.5 -3 0.5c-0.666992 0.666992 -1.33398 1 -2.00098 1c-1.33301 0 -2.66602 0.333008 -3.99902 1l-10 4l-4 -11c-7.33301 -15.333 -18.833 -35.833 -34.5 -61.5s-38.167 -51.5 -67.5 -77.5
c-31.333 -27.333 -64.666 -48.333 -99.999 -63c-42 -17.333 -86 -26 -132 -26c-31.333 0 -58.5 3.83301 -81.5 11.5s-42.833 17.334 -59.5 29.001s-30.334 24.834 -41.001 39.501s-19.334 29 -26.001 43c-7.33301 15.333 -13.333 32.166 -18 50.499s-8 37.166 -10 56.499z
" />
    <glyph glyph-name="H" unicode="H" horiz-adv-x="728" 
d="M1 19l136.003 643.001c1.33301 5.33301 4.16602 9.83301 8.49902 13.5s9.16602 5.5 14.499 5.5s9.5 -1.83301 12.5 -5.5s3.83301 -8.16699 2.5 -13.5l-70 -328l490 66l55 262c1.33301 5.33301 4.16602 9.83301 8.49902 13.5s9.16602 5.5 14.499 5.5
s9.66602 -1.66699 12.999 -5c2 -2.66699 2.66699 -5.66699 2 -9v-5l-136 -643c-3.33301 -12.667 -11 -19 -23 -19c-5.33301 0 -9.5 1.83301 -12.5 5.5s-3.83301 8.16699 -2.5 13.5l72 342l-489 -66l-58 -276c-1.33301 -5.33301 -4.16602 -9.83301 -8.49902 -13.5
s-9.16602 -5.5 -14.499 -5.5c-4.66699 0 -8.66699 2 -12 6c-2 2.66699 -3.33301 5.66699 -4 9c0.666992 1.33301 1 2.66602 1 3.99902z" />
    <glyph glyph-name="I" unicode="I" horiz-adv-x="468" 
d="M1 19c1.33301 5.33301 4.16699 9.83398 8.5 13.501s9.16602 5.5 14.499 5.5h113l128 606h-113c-12 0 -17 6.33301 -15 19c1.33301 5.33301 4.16602 9.83301 8.49902 13.5s9.16602 5.5 14.499 5.5h263c5.33301 0 9.66602 -1.66699 12.999 -5c2 -2.66699 2.66699 -6 2 -10
v-4c-1.33301 -5.33301 -4.16602 -9.83301 -8.49902 -13.5s-9.16602 -5.5 -14.499 -5.5h-112l-128 -606h112c12 0 17 -6.33301 15 -19c-1.33301 -5.33301 -4.16602 -9.83301 -8.49902 -13.5s-9.16602 -5.5 -14.499 -5.5h-263c-4.66699 0 -8.66699 2 -12 6
c-2 2.66699 -3.33301 5.66699 -4 9c0.666992 1.33301 1 2.66602 1 3.99902z" />
    <glyph glyph-name="J" unicode="J" horiz-adv-x="527" 
d="M0 114l0.00292969 7.99902c0 8 0.333008 15 1 21c0.666992 8.66699 1.66699 15 3 19v1c0 0.666992 0.333008 1.33398 1 2.00098c1.33301 5.33301 4.16602 9.83301 8.49902 13.5s9.16602 5.5 14.499 5.5s9.5 -1.83301 12.5 -5.5s3.83301 -8.16699 2.5 -13.5l-1 -1l-2 -11
h1c-0.666992 -4.66699 -1 -11 -1 -19c0 -5.33301 0.333008 -11.333 1 -18c0.666992 -16 6 -30.667 16 -44c17.333 -24 48 -36 92 -36h2c49.333 0 88.666 15 117.999 45c11.333 12 19.833 24.333 25.5 37s9.5 23.667 11.5 33l104 491h-140c-5.33301 0 -9.5 1.83301 -12.5 5.5
s-3.83301 8.16699 -2.5 13.5s4.16602 9.83301 8.49902 13.5s9.16602 5.5 14.499 5.5h214c5.33301 0 9.33301 -1.66699 12 -5c2 -2.66699 3 -5.66699 3 -9v-5c-1.33301 -5.33301 -4.16602 -9.83301 -8.49902 -13.5s-9.16602 -5.5 -14.499 -5.5h-36l-104 -491
c-9.33301 -40.667 -29 -75 -59 -103c-38 -34 -85.333 -51 -142 -51c-55.333 0 -95.333 16.333 -120 49c-8 10.667 -13.833 22 -17.5 34s-5.5 23.333 -5.5 34z" />
    <glyph glyph-name="K" unicode="K" horiz-adv-x="585" 
d="M1 18l136.999 644c1.33301 5.33301 4 9.66602 8 12.999s8.66699 5 14 5s9.33301 -1.66699 12 -5s3.33398 -7.66602 2.00098 -12.999l-62 -295l426 309c3.33301 2.66699 7.66602 4 12.999 4c6 0 10 -2 12 -6c1.33301 -2 2 -4.66699 2 -8v-5
c-1.33301 -5.33301 -4.66602 -9.33301 -9.99902 -12l-435 -316l325 -302c3.33301 -3.33301 5 -7.33301 5 -12c-1.33301 -2.66699 -2.33301 -5 -3 -7s-2 -4 -4 -6c-4 -4.66699 -9.33301 -7 -16 -7c-4 0 -7.33301 1.33301 -10 4l-320 297l-60 -282
c-1.33301 -5.33301 -3.83301 -9.66602 -7.5 -12.999s-8.16699 -5 -13.5 -5c-4.66699 0 -8.66699 1.66699 -12 5c-2 2 -3.33301 5 -4 9c0.666992 1.33301 1 2.66602 1 3.99902z" />
    <glyph glyph-name="L" unicode="L" horiz-adv-x="479" 
d="M1 19l136.001 643.001c1.33301 5.33301 4.16602 9.66602 8.49902 12.999s9.16602 5 14.499 5s9.33301 -1.66699 12 -5s3.33398 -7.66602 2.00098 -12.999l-132 -624l341 24h1c5.33301 0 9.33301 -1.66699 12 -5c2 -2.66699 3 -6 3 -10v-2
c-0.666992 -5.33301 -3 -9.83301 -7 -13.5s-8.66699 -5.83398 -14 -6.50098l-361 -25h-1c-4.66699 0 -8.66699 1.66699 -12 5c-2.66699 2.66699 -4 5.66699 -4 9c0 1.33301 0.333008 3 1 5z" />
    <glyph glyph-name="M" unicode="M" horiz-adv-x="859" 
d="M1 9c-0.666992 2 -1.00098 3.99902 -1.00098 5.99902c0 2.66699 0.666992 5.33398 2 8.00098l278 643c4.66699 10 11.334 15 20.001 15h1c8.66699 0 13.667 -4.33301 15 -13l62 -592l340 593c4.66699 8 11.334 12 20.001 12h1c9.33301 -1.33301 14 -6.33301 14 -15
l7 -643c0 -5.33301 -1.83301 -10 -5.5 -14s-7.83398 -6.66699 -12.501 -8c-1.33301 -0.666992 -3 -1 -5 -1c-4 0 -7.5 1.33301 -10.5 4s-4.5 6.33398 -4.5 11.001l-7 581l-334 -584c-5.33301 -8.66699 -12.333 -13 -21 -13c-8 1.33301 -13 5.66602 -15 12.999l-60 579
l-248 -576c-4.66699 -10 -11.667 -15 -21 -15c-2 0 -3.33301 0.333008 -4 1c-5.33301 1.33301 -9 4 -11 8z" />
    <glyph glyph-name="N" unicode="N" horiz-adv-x="680" 
d="M1 18l137.997 643c2 10 7.66699 16 17 18c0.666992 0.666992 2.33398 1 5.00098 1c6.66699 0 11 -2.66699 13 -8l285 -595l124 585c1.33301 5.33301 4 9.83301 8 13.5s8.66699 5.5 14 5.5c4.66699 0 8.66699 -1.66699 12 -5c2 -2.66699 3.33301 -5.66699 4 -9
c0 -1.33301 -0.333008 -3 -1 -5l-137 -644c-1.33301 -9.33301 -6.66602 -15.333 -15.999 -18c-2 -0.666992 -4.33301 -1 -7 -1c-5.33301 0 -9.66602 2.66699 -12.999 8l-284 595l-125 -584c-1.33301 -5.33301 -4 -9.66602 -8 -12.999s-8.66699 -5 -14 -5
c-4.66699 0 -8.66699 1.66699 -12 5c-2 2 -3.33301 5 -4 9c0.666992 1.33301 1 2.66602 1 3.99902z" />
    <glyph glyph-name="O" unicode="O" horiz-adv-x="614" 
d="M1 190c-1.33301 11.333 -1.66602 22.999 -0.999023 34.999c0 36.667 5.66699 75.334 17 116.001c12 45.333 30.5 88.666 55.5 129.999s54.833 78 89.5 110c34 32 69.167 56.5 105.5 73.5s72.166 25.5 107.499 25.5c30 0 57.333 -6.16699 82 -18.5
s45.667 -30.166 63 -53.499c22.667 -32.667 36.667 -72.667 42 -120c1.33301 -11.333 2 -22.666 2 -33.999c0 -36.667 -5.66699 -75.334 -17 -116.001c-12.667 -45.333 -31.5 -88.666 -56.5 -129.999s-54.833 -78 -89.5 -110c-34 -32 -69.167 -56.5 -105.5 -73.5
s-72.166 -25.5 -107.499 -25.5c-30 0 -57.167 6.16699 -81.5 18.5s-44.833 30.166 -61.5 53.499c-24.667 32 -39.334 71.667 -44.001 119zM36 199.999c4 -44 16.666 -79.999 37.999 -107.999c29.333 -40 69.333 -60 120 -60h1c31.333 0 63.333 7.66699 96 23
s64.334 38 95.001 68c30 30 55.833 63.5 77.5 100.5s38.167 76.167 49.5 117.5c8.66699 32 13 63.667 13 95c0 14 -0.666992 27.333 -2 40c-5.33301 44 -19.333 81 -42 111c-28.667 40 -69 60 -121 60c-30.667 0 -61.834 -7.66699 -93.501 -23s-62.167 -38 -91.5 -68
c-29.333 -28.667 -54.833 -61.667 -76.5 -99s-38.167 -77 -49.5 -119c-10 -36.667 -15.333 -72.334 -16 -107.001c0.666992 -10 1.33398 -20.333 2.00098 -31z" />
    <glyph glyph-name="P" unicode="P" horiz-adv-x="587" 
d="M1 18l137.002 641c1.33301 5.33301 3.66602 9.66602 6.99902 12.999s7.33301 5 12 5c1.33301 0.666992 8.66602 1.33398 21.999 2.00098s30.666 1 51.999 1c12 0 24 -0.166992 36 -0.5s23.667 -0.833008 35 -1.5c104.667 -9.33301 176 -35.333 214 -78
c21.333 -24 32 -52 32 -84c0 -11.333 -1.33301 -23.333 -4 -36c-9.33301 -42 -30 -78.667 -62 -110c-43.333 -42.667 -106.333 -75 -189 -97c-22 -6 -43.667 -10.833 -65 -14.5s-40.666 -6.5 -57.999 -8.5s-32.333 -3.33301 -45 -4s-22 -1 -28 -1h-10l-49 -227
c-1.33301 -5.33301 -4 -9.66602 -8 -12.999s-8.66699 -5 -14 -5c-4.66699 0 -8.66699 1.66699 -12 5c-2 2 -3.33301 5 -4 9c0.666992 1.33301 1 2.66602 1 3.99902zM94.002 282l9.99512 0.000976562c6 0 15.333 0.5 28 1.5s27.334 2.5 44.001 4.5s34.834 4.66699 54.501 8
s39.834 7.66602 60.501 12.999c58 15.333 104.333 35.333 139 60c41.333 30.667 67 67.667 77 111c2 10 3 19 3 27c0 26 -8.33301 48 -25 66c-16 18.667 -40.5 33.667 -73.5 45s-73.167 19 -120.5 23c-11.333 0.666992 -22.666 1.16699 -33.999 1.5s-22.666 0.5 -33.999 0.5
h-21.5c-7 0 -14.167 -0.333008 -21.5 -1h-9z" />
    <glyph glyph-name="Q" unicode="Q" horiz-adv-x="686" 
d="M4 191c-2 14.667 -3.33203 29.665 -3.99902 44.998c0 33.333 5.33301 68.333 16 105c13.333 46.667 33.833 90.667 61.5 132s59.667 77.333 96 108s75.333 54.834 117 72.501s83.167 26.5 124.5 26.5c34 0 65.333 -6.16699 94 -18.5s53 -30.166 73 -53.499
c28 -32.667 45.333 -72.334 52 -119.001c2 -14.667 3 -29.667 3 -45c0 -33.333 -5 -68.333 -15 -105c-7.33301 -23.333 -16.333 -46.333 -27 -69s-23 -44.667 -37 -66c-28 -40.667 -61 -77 -99 -109l-11 -9l98 -75c3.33301 -3.33301 5 -7.33301 5 -12
c0 -5.33301 -2 -10 -6 -14c-4 -5.33301 -9.33301 -8 -16 -8c-4.66699 0 -8.33398 1 -11.001 3l-106 81l-6 -4c-30 -19.333 -60.5 -33.666 -91.5 -42.999s-61.5 -14 -91.5 -14c-34 0 -65.5 6.16699 -94.5 18.5s-53.167 30.166 -72.5 53.499
c-28 32.667 -45.333 72.334 -52 119.001zM46.001 201.998c6 -43.333 21.0029 -79.333 45.0029 -108c34.667 -40 81 -60 139 -60c45.333 0 91.666 13.333 138.999 40l16 8l-82 63c-3.33301 3.33301 -5 7.33301 -5 12s2 9 6 13c4 6 9.66699 9 17 9
c3.33301 0 6.66602 -1 9.99902 -3l89 -69l8 6c36 29.333 67 63.666 93 102.999s45.667 81 59 125c8.66699 28.667 13 57 13 85c0 16 -1.33301 32.333 -4 49c-8 44 -25 81 -51 111c-34.667 40 -80.667 60 -138 60c-35.333 0 -70.833 -8 -106.5 -24
s-68.834 -37.667 -99.501 -65s-58 -59.833 -82 -97.5s-42 -77.834 -54 -120.501c-10 -33.333 -15 -65.666 -15 -96.999c0.666992 -13.333 1.66699 -26.666 3 -39.999z" />
    <glyph glyph-name="R" unicode="R" horiz-adv-x="597" 
d="M1 19l135.998 639.999c2 10.667 8.66699 16.667 20 18c0.666992 0 8.33398 0.666992 23.001 2s33.667 2 57 2c11.333 0 22.166 -0.166992 32.499 -0.5s20.5 -0.833008 30.5 -1.5c104.667 -8 176.334 -33.333 215.001 -76c21.333 -24.667 32 -53.667 32 -87
c0 -12 -1.33301 -24.667 -4 -38c-10 -48.667 -37.667 -90.667 -83 -126c-36 -28 -81.667 -51 -137 -69c-1.33301 0 -3.33301 -0.666992 -6 -2l-21 -6l14 -12c12 -8 23 -17 33 -27c10.667 -9.33301 21.834 -20.666 33.501 -33.999s23.167 -28.666 34.5 -45.999
s22.166 -36.666 32.499 -57.999s19.5 -44.666 27.5 -69.999c0.666992 -4.66699 0 -9.33398 -2 -14.001c-3.33301 -6 -7.33301 -9.66699 -12 -11c-2.66699 -1.33301 -5.33398 -2 -8.00098 -2c-7.33301 0 -12 3.33301 -14 10c-10 33.333 -22.167 62.666 -36.5 87.999
s-28.833 47.166 -43.5 65.499s-28.667 33.333 -42 45s-24.333 20.5 -33 26.5c-19.333 13.333 -46.333 20 -81 20c-5.33301 0 -10.666 -0.166992 -15.999 -0.5s-10.666 -0.833008 -15.999 -1.5c-11.333 -1.33301 -22.5 -2.5 -33.5 -3.5s-20.5 -2.16699 -28.5 -3.5l-19 -2
l-48 -226c-1.33301 -5.33301 -4 -9.66602 -8 -12.999s-8.66699 -5 -14 -5c-4.66699 0 -8.66699 1.66699 -12 5c-2 2 -3.33301 5 -4 9c0.666992 1.33301 1 2.66602 1 3.99902zM92.998 281.999l12.002 1.00098c6.66699 0 17.167 0.333008 31.5 1
s31.166 2.33398 50.499 5.00098s40.166 6.33398 62.499 11.001s45.166 10.667 68.499 18c25.333 8 48.333 17 69 27s38.667 21 54 33c35.333 28.667 57 62 65 100c2.66699 11.333 4 21.666 4 30.999c0 7.33301 -1 14.666 -3 21.999c-3.33301 15.333 -10.666 30 -21.999 44
c-34.667 37.333 -99.667 59.666 -195 66.999c-9.33301 0.666992 -19 1.16699 -29 1.5s-20.333 0.5 -31 0.5h-25.5c-8.33301 0 -16.5 -0.333008 -24.5 -1l-10 -1z" />
    <glyph glyph-name="S" unicode="S" horiz-adv-x="575" 
d="M1 149c1.33301 6 4.5 11.168 9.5 15.501s10.5 6.5 16.5 6.5c9.33301 0 14.666 -5.66699 15.999 -17h1v-1c4.66699 -38 25.334 -68.333 62.001 -91c31.333 -18.667 68.333 -28 111 -28c0.666992 0 10.334 0.833008 29.001 2.5s40.334 7.16699 65.001 16.5
c66 25.333 107.333 69.333 124 132c2 7.33301 3.66699 17.333 5 30v5c0 11.333 -4 23.333 -12 36c-21.333 34 -68.666 62 -141.999 84c-58.667 16.667 -102.667 38.334 -132 65.001c-28 25.333 -42 53.333 -42 84c0 12 2 24.333 6 37
c9.33301 30.667 23.666 56.667 42.999 78c17.333 19.333 38.333 35 63 47c21.333 9.33301 44.833 16.666 70.5 21.999s53.834 8 84.501 8l17 -1c10.667 0 23 -1 37 -3s28 -5.16699 42 -9.5s27.167 -10.5 39.5 -18.5s22.166 -18.333 29.499 -31
c7.33301 -13.333 11 -29 11 -47c0 -6 -0.333008 -12 -1 -18v-1v-1c-1.33301 -5.33301 -4 -9.66602 -8 -12.999s-8.66699 -5 -14 -5c-4.66699 0 -8.33398 1.5 -11.001 4.5s-3.66699 6.5 -3 10.5v1c0 2.66699 0.333008 5.33398 1 8.00098c0 16 -3.66699 29.333 -11 40
c-12 20 -35.667 34.667 -71 44c-13.333 3.33301 -25.333 5.66602 -36 6.99902s-17.334 2 -20.001 2h-4c-70 0 -123.667 -14.667 -161 -44c-17.333 -14 -30 -29 -38 -45s-13.667 -30 -17 -42v-1c-2.66699 -8 -4 -16 -4 -24c0 -48.667 48.667 -87.334 146 -116.001
c70.667 -20 121 -47 151 -81c19.333 -22.667 29.333 -48.667 30 -78c0 -12.667 -2 -26 -6 -40c-16 -61.333 -55.333 -108.333 -118 -141c-27.333 -14 -54.5 -23.833 -81.5 -29.5s-49.833 -8.5 -68.5 -8.5c-28 0 -53.833 3.33301 -77.5 10s-44.667 16 -63 28
s-33.333 26.667 -45 44s-19.5 36.666 -23.5 57.999v1c0 0.666992 -0.333008 1.66699 -1 3z" />
    <glyph glyph-name="T" unicode="T" horiz-adv-x="459" 
d="M1 662c1.33301 5.33301 4.16699 9.83301 8.5 13.5s9.16602 5.5 14.499 5.5h480c5.33301 0 9.66602 -1.66699 12.999 -5c2 -2.66699 3 -5.66699 3 -9c0 -1.33301 -0.333008 -3 -1 -5c-1.33301 -5.33301 -4.16602 -9.83301 -8.49902 -13.5s-9.16602 -5.5 -14.499 -5.5h-229
l-133 -625c-1.33301 -5.33301 -4 -9.83301 -8 -13.5s-8.66699 -5.5 -14 -5.5s-9.5 1.83301 -12.5 5.5s-3.83301 8.16699 -2.5 13.5l133 625h-214c-4.66699 0 -8.66699 1.66699 -12 5c-2 2.66699 -3.33301 5.66699 -4 9c0.666992 2 1 3.66699 1 5z" />
    <glyph glyph-name="U" unicode="U" horiz-adv-x="642" 
d="M3 269c2.66699 26.667 7.00293 57.335 13.0029 92.002s12.667 70 20 106s14.666 71 21.999 105s14 63.667 20 89c1.33301 5.33301 4.16602 9.83301 8.49902 13.5s9.16602 5.5 14.499 5.5s9.33301 -1.83301 12 -5.5s3.33398 -8.16699 2.00098 -13.5
c-6 -25.333 -12.667 -55 -20 -89s-14.666 -68.833 -21.999 -104.5s-14 -70.5 -20 -104.5s-10 -64 -12 -90c-1.33301 -15.333 -2 -30 -2 -44c0 -55.333 11.667 -100 35 -134c29.333 -43.333 73.333 -65 132 -65h21c28.667 0 56.5 5.66699 83.5 17s52.167 27.5 75.5 48.5
s44.333 46.5 63 76.5s34 63.667 46 101c8 25.333 16.333 55 25 89s17 68.833 25 104.5s15.333 70.5 22 104.5s12.667 63.667 18 89v1c1.33301 5.33301 4.16602 9.83301 8.49902 13.5s9.16602 5.5 14.499 5.5s9.33301 -1.66699 12 -5c2 -2 3 -4.66699 3 -8
c0 -1.33301 -0.333008 -3 -1 -5v-1c-4.66699 -25.333 -10.334 -55 -17.001 -89s-14 -69 -22 -105s-16.333 -71.333 -25 -106s-17.334 -65.334 -26.001 -92.001c-14 -41.333 -31.333 -78.833 -52 -112.5s-45 -62.167 -73 -85.5c-55.333 -47.333 -117.333 -71 -186 -71h-21
c-34 0 -64.167 6 -90.5 18s-48.166 29.667 -65.499 53s-29.666 51.666 -36.999 84.999c-4.66699 20.667 -7 43 -7 67c0.666992 14.667 1.66699 30 3 46z" />
    <glyph glyph-name="V" unicode="V" horiz-adv-x="490" 
d="M1 655l0.000976562 1.99805c0 4.66699 1.33301 9 4 13c3.33301 4.66699 7.66602 7.66699 12.999 9c1.33301 0 2.33301 0.166992 3 0.5s1.66699 0.5 3 0.5c9.33301 0 14 -4.33301 14 -13l75 -594l361 595c4.66699 8 11.667 12 21 12c2.66699 0 4.66699 -0.333008 6 -1
c4.66699 -2 7.66699 -5.33301 9 -10c0 -1.33301 0.333008 -2.66602 1 -3.99902c0 -3.33301 -1.33301 -6.66602 -4 -9.99902l-391 -643c-4.66699 -8 -11 -12 -19 -12h-1c-8 0 -13 4.33301 -15 13z" />
    <glyph glyph-name="W" unicode="W" horiz-adv-x="771" 
d="M1 657c-0.666992 4.66699 0.668945 9.33105 4.00195 13.998s7.66602 7.66699 12.999 9c1.33301 0 2.33301 0.166992 3 0.5s1.66699 0.5 3 0.5c9.33301 0 14 -4.66699 14 -14l55 -587l313 588c2.66699 3.33301 5.83398 6.33301 9.50098 9s7.5 4 11.5 4
c8.66699 -1.33301 13.667 -6 15 -14l37 -588l337 589c4 8.66699 10.667 13 20 13c1.33301 0 3.33301 -0.666992 6 -2c4.66699 -0.666992 7.66699 -3.66699 9 -9c0 -1.33301 0.333008 -2.66602 1 -3.99902c0 -3.33301 -1.33301 -6.66602 -4 -9.99902l-368 -644
c-4.66699 -8 -11.334 -12 -20.001 -12s-13.667 4.33301 -15 13l-38 584l-312 -585c-4.66699 -8 -11.334 -12 -20.001 -12s-14 4.33301 -16 13z" />
    <glyph glyph-name="X" unicode="X" horiz-adv-x="713" 
d="M0 17c1.33301 5.33301 4.00098 9.66895 8.00098 13.002l331 315l-178 305c-2 4.66699 -2.66699 9 -2 13c2 5.33301 5.33301 9.66602 10 12.999c5.33301 2.66699 9.33301 4 12 4c4.66699 0 9.33398 -2.33301 14.001 -7l174 -299l314 299c4.66699 4.66699 10 7 16 7
c4 0 7.66699 -1.66699 11 -5c2.66699 -4 3.66699 -8 3 -12c0 -4.66699 -2.33301 -9.33398 -7 -14.001l-320 -304l184 -315c2 -3.33301 2.33301 -8 1 -14c-2 -5.33301 -5.33301 -9.33301 -10 -12c-2.66699 -2.66699 -6.33398 -4 -11.001 -4
c-6.66699 0 -11.334 2.33301 -14.001 7l-180 309l-325 -309c-4 -4.66699 -9 -7 -15 -7c-5.33301 0 -9.33301 1.33301 -12 4s-4 7 -4 13z" />
    <glyph glyph-name="Y" unicode="Y" horiz-adv-x="488" 
d="M1 653c0 1.33301 -0.333984 3 -1.00098 5c0 2.66699 0.666992 5.66699 2 9c2 4.66699 5.66699 8.33398 11 11.001c2.66699 2 6 3 10 3c6.66699 0 11.334 -3 14.001 -9l157 -426l342 425c4.66699 6.66699 10.667 10 18 10c4 0 7 -1 9 -3c4 -3.33301 6 -7 6 -11
c0 -4.66699 -1.66699 -9.33398 -5 -14.001l-519 -644c-4 -6 -9.66699 -9 -17 -9c-2 0 -5 0.666992 -9 2c-4.66699 3.33301 -7 7.33301 -7 12c0 4 1.66699 8.66699 5 14l147 182z" />
    <glyph glyph-name="Z" unicode="Z" horiz-adv-x="690" 
d="M1 21c0.666992 5.33301 3.33301 10.667 8 16l6 5l603 573h-454c-5.33301 0 -9.66602 2 -12.999 6s-4.33301 8.66699 -3 14s4.5 9.83301 9.5 13.5s10.167 5.5 15.5 5.5l482 1v-1h7l1 1c6.66699 0 11.667 -2.33301 15 -7c2 -2.66699 3 -6 3 -10c0 -2 -0.333008 -4 -1 -6
c-1.33301 -5.33301 -4 -10 -8 -14l-609 -579h444c12.667 0 18 -6.33301 16 -19c-1.33301 -5.33301 -4.33301 -10 -9 -14s-9.66699 -6 -15 -6h-472v1l-7 -1h-1c-5.33301 0 -10 2 -14 6c-2.66699 2.66699 -4.33398 6.33398 -5.00098 11.001
c0.666992 1.33301 1 2.66602 1 3.99902z" />
    <glyph glyph-name="bracketleft" unicode="[" horiz-adv-x="406" 
d="M1 -105l189 888.999c1.33301 5.33301 4.16602 9.83301 8.49902 13.5s9.16602 5.5 14.499 5.5h139c11.333 0 16 -6.33301 14 -19c-1.33301 -5.33301 -4 -9.66602 -8 -12.999s-8.66699 -5 -14 -5h-120l-181 -852h103c5.33301 0 9.5 -1.83301 12.5 -5.5
s3.83301 -8.16699 2.5 -13.5s-4.16602 -9.66602 -8.49902 -12.999s-9.16602 -5 -14.499 -5h-122c-5.33301 0 -9.5 1.66699 -12.5 5s-3.83301 7.66602 -2.5 12.999z" />
    <glyph glyph-name="backslash" unicode="\" horiz-adv-x="577" 
d="M0 677c0 -6 1.66797 -10.6689 5.00098 -14.002l499 -653c6.66699 -6.66699 12.667 -10 18 -10c4 0 7 1 9 3c4 2.66699 6.16699 6.33398 6.5 11.001s-0.833984 9.33398 -3.50098 14.001l-501 653c-4.66699 6 -10.667 9 -18 9c-2 0 -5 -0.666992 -9 -2
c-4 -3.33301 -6 -7 -6 -11z" />
    <glyph glyph-name="bracketright" unicode="]" horiz-adv-x="406" 
d="M1 -102c1.33301 5.33301 4 9.66699 8 13s8.66699 5 14 5h120l181 852h-103c-5.33301 0 -9.5 1.83301 -12.5 5.5s-3.83301 8.16699 -2.5 13.5s4.16602 9.66602 8.49902 12.999s9.16602 5 14.499 5h122c5.33301 0 9.5 -1.66699 12.5 -5s3.83301 -7.66602 2.5 -12.999
l-189 -889c-1.33301 -5.33301 -4.16602 -9.83301 -8.49902 -13.5s-9.16602 -5.5 -14.499 -5.5h-139c-11.333 0 -16 6.33301 -14 19z" />
    <glyph glyph-name="underscore" unicode="_" horiz-adv-x="534" 
d="M1 -19c1.33301 5.33301 4.16504 9.83301 8.49805 13.5s9.16602 5.5 14.499 5.5h496c5.33301 0 9.33301 -1.83301 12 -5.5s3.33398 -8.16699 2.00098 -13.5s-4.16602 -9.83301 -8.49902 -13.5s-9.16602 -5.5 -14.499 -5.5h-495c-5.33301 0 -9.5 1.83301 -12.5 5.5
s-3.83301 8.16699 -2.5 13.5z" />
    <glyph glyph-name="a" unicode="a" horiz-adv-x="504" 
d="M2 191c2 22.667 7.16406 46.668 15.4971 72.001s19.166 49.666 32.499 72.999c16 30 35 56.833 57 80.5s45.667 43.5 71 59.5c19.333 13.333 39.833 23 61.5 29s44.167 9 67.5 9c18.667 0 36 -1.83301 52 -5.5s30 -7.66699 42 -12s21.5 -8.33301 28.5 -12
s10.5 -5.83398 10.5 -6.50098l5 -2l-97 -456v-1c-1.33301 -5.33301 -4 -9.83301 -8 -13.5s-8.66699 -5.5 -14 -5.5s-9.5 1.83301 -12.5 5.5s-3.83301 8.16699 -2.5 13.5l9 46l-10 -6c-2 -1.33301 -4.33301 -2.66602 -7 -3.99902c-1.33301 -0.666992 -2.66602 -1 -3.99902 -1
c-19.333 -10.667 -42.666 -21 -69.999 -31s-54.666 -15 -81.999 -15h-4c-47.333 1.33301 -84 18.333 -110 51c-22 27.333 -33 62.333 -33 105c0.666992 8.66699 1.33398 17.667 2.00098 27zM40.9971 195.001c-0.666992 -7.33301 -0.999023 -14.3359 -0.999023 -21.0029
c0 -31.333 6.33301 -57.666 19 -78.999c19.333 -32 50.333 -48.667 93 -50h3c5.33301 0 13 0.666992 23 2s22 4 36 8s30.167 10.167 48.5 18.5s38.5 19.5 60.5 33.5l5 3l78 342l-7 2c-6 3.33301 -13.833 6.66602 -23.5 9.99902s-20.834 6.33301 -33.501 9
c-6.66699 1.33301 -13.334 2.33301 -20.001 3s-13 1.33398 -19 2.00098h-5c-37.333 0 -71.333 -10 -102 -30c-22.667 -14.667 -43.667 -32.5 -63 -53.5s-36 -44.833 -50 -71.5c-11.333 -21.333 -20.666 -43.166 -27.999 -65.499s-12 -43.166 -14 -62.499z" />
    <glyph glyph-name="b" unicode="b" horiz-adv-x="536" 
d="M1 18l139.004 654l1 2c3.33301 10.667 10.666 16 21.999 16s16.333 -5.33301 15 -16l-1 -2l-60 -283c6.66699 8.66699 15 17.667 25 27c8.66699 8 19.5 16.5 32.5 25.5s29.167 17.833 48.5 26.5c36.667 15.333 74.334 23 113.001 23h17
c14.667 -0.666992 27.667 -3.16699 39 -7.5s21 -10 29 -17s14.667 -14.5 20 -22.5s9.66602 -16 12.999 -24c7.33301 -19.333 11.333 -42.333 12 -69v-7c0 -25.333 -2.66699 -50.666 -8 -75.999c-2.66699 -12.667 -6.83398 -29.834 -12.501 -51.501
s-14.834 -44.167 -27.501 -67.5c-30.667 -56.667 -73.334 -97.667 -128.001 -123c-19.333 -9.33301 -38 -15.333 -56 -18s-33.667 -4 -47 -4c-25.333 0 -49.833 3 -73.5 9s-42.834 12.333 -57.501 19l-13 6l-5 -20c-1.33301 -5.33301 -3.83301 -9.66602 -7.5 -12.999
s-8.16699 -5 -13.5 -5s-9.66602 1.66699 -12.999 5c-2.66699 2 -4 5 -4 9c0.666992 1.33301 1 2.66602 1 3.99902zM52.0039 80l5.00195 -3c3.33301 -2 8.83301 -5 16.5 -9s17.167 -8 28.5 -12s24 -7.5 38 -10.5s29 -4.5 45 -4.5c35.333 0 66.666 6.33301 93.999 19
c43.333 20 77 50.667 101 92c11.333 19.333 20.166 39.333 26.499 60s11.5 39.667 15.5 57c2.66699 14.667 4.33398 32.334 5.00098 53.001v9c0 18 -2 35 -6 51c-5.33301 18.667 -14.333 34.667 -27 48s-30.667 20.666 -54 21.999h-11c-31.333 0 -59 -4.66699 -83 -14
s-46.667 -21.333 -68 -36s-39.333 -32.5 -54 -53.5s-24.334 -42.167 -29.001 -63.5z" />
    <glyph glyph-name="c" unicode="c" horiz-adv-x="482" 
d="M4 131c-2 13.333 -3.33301 26.3301 -4 38.9971c0 13.333 1.33301 26.333 4 39c4.66699 26 12.167 50 22.5 72s19.5 39.667 27.5 53c12.667 19.333 27.334 38.5 44.001 57.5s34.334 36.167 53.001 51.5c16 13.333 35.833 26.166 59.5 38.499s49.167 18.5 76.5 18.5h5
c28 0 52.5 -5.5 73.5 -16.5s37.833 -26.5 50.5 -46.5l5 -8c0.666992 -2 1 -4.33301 1 -7v-4c-1.33301 -5.33301 -3.83301 -9.66602 -7.5 -12.999s-8.16699 -5 -13.5 -5c-6 0 -10.333 2 -13 6l-1 2c-2 2.66699 -3.66699 5.5 -5 8.5s-2.66602 4.83301 -3.99902 5.5
c-21.333 29.333 -53.333 44 -96 44h-2c-34.667 0 -72.334 -16.667 -113.001 -50c-16 -13.333 -31.167 -28.166 -45.5 -44.499s-26.5 -32.833 -36.5 -49.5c-20.667 -34 -34.334 -64 -41.001 -90c-5.33301 -22 -8 -41.667 -8 -59v-10
c1.33301 -19.333 5.66602 -35.666 12.999 -48.999s14.666 -24 21.999 -32c28.667 -30.667 64 -46.667 106 -48h14c30.667 1.33301 60.334 9 89.001 23c26.667 13.333 50.667 31.666 72 54.999l3 3c6.66699 6 12.667 9 18 9c4.66699 0 8.5 -1.66699 11.5 -5
s3.83301 -7.66602 2.5 -12.999c-1.33301 -4.66699 -4 -8.66699 -8 -12h-1v-1c-11.333 -13.333 -24.5 -25.5 -39.5 -36.5s-30.833 -20.5 -47.5 -28.5c-34.667 -16.667 -69.667 -26 -105 -28h-11c-52 0 -96 19 -132 57c-21.333 22.667 -34.333 47.334 -39 74.001z" />
    <glyph glyph-name="d" unicode="d" horiz-adv-x="525" 
d="M0 146l-0.00488281 8.00195c0 24 3 48.667 9 74c3.33301 14 8.16602 32 14.499 54s16.166 44.667 29.499 68c30.667 56 74.334 97 131.001 123c30.667 14 62.667 21 96 21h6c40.667 -1.33301 82.334 -12 125.001 -32l12 -6l53 225v1
c1.33301 5.33301 4.5 9.83301 9.5 13.5s10.167 5.5 15.5 5.5s9.33301 -2 12 -6c2 -2.66699 3 -5.66699 3 -9c0 -1.33301 -0.333008 -3 -1 -5l-157 -664c-1.33301 -5.33301 -4.16602 -9.66602 -8.49902 -12.999s-9.16602 -5 -14.499 -5s-9.5 2.16699 -12.5 6.5
s-3.83301 9.16602 -2.5 14.499c0.666992 3.33301 1.66699 7 3 11c1.33301 3.33301 2.33301 7.16602 3 11.499s1.66699 8.83301 3 13.5l10 36l-23 -17c-65.333 -50 -127.666 -75 -186.999 -75h-7c-2 0 -4.33301 0.333008 -7 1c-15.333 0.666992 -28.666 3.5 -39.999 8.5
s-21 11.167 -29 18.5s-14.667 15.166 -20 23.499s-9.66602 16.5 -12.999 24.5c-8 20 -12.333 43.333 -13 70zM38.9951 148.002c0 -12 1.33301 -23.667 4 -35c11.333 -47.333 38 -72.666 80 -75.999h14c24 0 49 5.66699 75 17s50.333 24.333 73 39
c19.333 12 35.333 24.333 48 37s20.667 26.667 24 42l57 243l-5 3c-5.33301 3.33301 -12.333 7.33301 -21 12s-19 9.16699 -31 13.5s-25.167 8 -39.5 11s-29.5 4.5 -45.5 4.5c-27.333 0 -53.333 -5.66699 -78 -17c-44 -20.667 -78.667 -52 -104 -94
c-12 -20 -21.333 -40.833 -28 -62.5s-12 -41.167 -16 -58.5c-0.666992 -4 -1.66699 -9.83301 -3 -17.5s-2.33301 -16.834 -3 -27.501c-0.666992 -8 -1 -16.333 -1 -25v-9z" />
    <glyph glyph-name="e" unicode="e" horiz-adv-x="492" 
d="M3 156c-2 9.33301 -2.99902 19.667 -2.99902 31c0 12 1 25 3 39c4 27.333 12.667 55 26 83c5.33301 12.667 12.166 26.167 20.499 40.5s18.5 28.666 30.5 42.999s26 28.333 42 42s34.667 25.834 56 36.501c35.333 18.667 72.333 28 111 28c11.333 0 23.666 -1 36.999 -3
c3.33301 -0.666992 6.33301 -1.16699 9 -1.5s5.66699 -1.16602 9 -2.49902c11.333 -3.33301 22.833 -8 34.5 -14s22.5 -14.667 32.5 -26c4 -4.66699 7.66699 -9.33398 11 -14.001c0.666992 -1.33301 1.16699 -2.66602 1.5 -3.99902s1.16602 -2.66602 2.49902 -3.99902
c0.666992 -2 1.66699 -3.66699 3 -5c1.33301 -3.33301 2.5 -6.33301 3.5 -9s2.16699 -5.66699 3.5 -9s2.16602 -6.5 2.49902 -9.5s0.833008 -5.83301 1.5 -8.5c1.33301 -4.66699 1.66602 -8.66699 0.999023 -12c0 -4.66699 -0.666992 -8.33398 -2 -11.001
c-1.33301 -4.66699 -8 -10.334 -20 -17.001l-30 -15c-17.333 -8.66699 -38.5 -19.334 -63.5 -32.001s-52 -26.5 -81 -41.5s-56.833 -29.333 -83.5 -43s-50.167 -25.834 -70.5 -36.501s-34.166 -17.667 -41.499 -21l-11 -5l3 -9c25.333 -75.333 81.666 -113 168.999 -113h1
c5.33301 0 13.333 0.666992 24 2s22.834 4 36.501 8s28.334 10 44.001 18s31.167 19 46.5 33l2 1c4 4 8.33301 6 13 6s8.16699 -1.66699 10.5 -5s2.83301 -7.33301 1.5 -12c-1.33301 -5.33301 -3.33301 -9.33301 -6 -12l-10 -8
c-17.333 -14.667 -34.666 -26.167 -51.999 -34.5s-33.666 -14.666 -48.999 -18.999s-28.833 -7.16602 -40.5 -8.49902s-20.5 -2 -26.5 -2h-1c-55.333 0 -100 13 -134 39c-34 27.333 -56.333 66.333 -67 117zM32.001 193.001c0 -1.33301 0.333008 -2.00098 1 -2.00098
c61.333 30 117.666 57.667 168.999 83c22 10.667 43.667 21.334 65 32.001s40.833 20.334 58.5 29.001s32.834 16.167 45.501 22.5l25 12.5c6 2 9 5 9 9c0 40 -25 66.667 -75 80c-8.66699 2 -17.167 3.33301 -25.5 4s-15.666 1 -21.999 1s-11.5 -0.333008 -15.5 -1h-6
c-25.333 -2.66699 -50.333 -10.334 -75 -23.001c-48.667 -25.333 -87.334 -64 -116.001 -116c-14.667 -28 -24.5 -53 -29.5 -75s-7.83301 -36.667 -8.5 -44v-12z" />
    <glyph glyph-name="f" unicode="f" horiz-adv-x="345" 
d="M1 483c1.33301 4 3.83398 7.66699 7.50098 11s7.5 5 11.5 5h90l2 11c6.66699 32 15 58 25 78s23 37.667 39 53c34 33.333 85.667 50 155 50h6c3.33301 0 6.66602 0.166992 9.99902 0.5s6.66602 0.5 9.99902 0.5h6c8.66699 -0.666992 12.667 -5 12 -13v-4
c-2 -11.333 -8.66699 -17 -20 -17h-2h-23c-30.667 0 -56.334 -3 -77.001 -9s-37.667 -15 -51 -27s-24 -27.333 -32 -46s-14.667 -40.667 -20 -66l-2 -11h152c4.66699 0 8.33398 -1.66699 11.001 -5s3.33398 -7 2.00098 -11s-3.83301 -7.83301 -7.5 -11.5
s-8.16699 -5.5 -13.5 -5.5h-151l-96 -448v-1c-1.33301 -5.33301 -4.16602 -9.66602 -8.49902 -12.999s-9.16602 -5 -14.499 -5s-9.33301 1.66699 -12 5s-3.33398 7.66602 -2.00098 12.999l-1 1l96 448h-88c-4.66699 0 -8.33398 1.66699 -11.001 5
c-2 2.66699 -3.33301 5.33398 -4 8.00098c0.666992 1.33301 1 2.66602 1 3.99902z" />
    <glyph glyph-name="g" unicode="g" horiz-adv-x="554" 
d="M1 -159c1.33301 5.33301 4.16504 9.8418 8.49805 13.5088s9.16602 5.5 14.499 5.5c2 0 4.33301 -0.666992 7 -2h1l1 -1c34.667 -8 69.667 -12 105 -12h4c6.66699 0 13.167 0.166992 19.5 0.5s12.833 0.833008 19.5 1.5c25.333 2 49 10 71 24
c18.667 12 34.667 27.333 48 46c12 16 21 31.833 27 47.5s10.667 28.167 14 37.5c0.666992 3.33301 2.33398 10.666 5.00098 21.999s6.33398 26.666 11.001 45.999l7 28c-2 -2.66699 -4.33301 -5.33398 -7 -8.00098s-5.66699 -5.83398 -9 -9.50098s-7 -7.83398 -11 -12.501
c-21.333 -24 -45.166 -41.333 -71.499 -52s-53.833 -16.334 -82.5 -17.001h-2h-1c-55.333 0 -95.666 23 -120.999 69c-11.333 19.333 -19.333 40.666 -24 63.999c-2 13.333 -3 26.666 -3 39.999c0 11.333 0.666992 22.666 2 33.999c2.66699 24 8.83398 49.167 18.501 75.5
s22.834 51.833 39.501 76.5s37.167 47.5 61.5 68.5s53.166 38.5 86.499 52.5c32.667 13.333 63 20 91 20c23.333 0 43.666 -3.5 60.999 -10.5s31.666 -14.167 42.999 -21.5l13 -9l4 18c1.33301 2.66699 2 5 2 7l2 10c1.33301 5.33301 4.16602 9.66602 8.49902 12.999
s9.16602 5 14.499 5s9.33301 -2 12 -6c2 -2.66699 3.33301 -5.66699 4 -9c0 -1.33301 -0.333008 -3 -1 -5c0 -0.666992 -1.66699 -8.16699 -5 -22.5s-7.66602 -32.666 -12.999 -54.999s-11.5 -47.833 -18.5 -76.5s-14 -58 -21 -88s-14 -59.5 -21 -88.5
s-13.167 -55 -18.5 -78s-9.83301 -42.167 -13.5 -57.5s-5.83398 -24 -6.50098 -26c-14 -53.333 -39.667 -97.666 -77 -132.999c-17.333 -16.667 -36.5 -29.667 -57.5 -39s-42.833 -15.333 -65.5 -18c-7.33301 -0.666992 -14.666 -1.16699 -21.999 -1.5
s-14.666 -0.5 -21.999 -0.5c-22.667 0 -43.5 1.33301 -62.5 4s-35.5 5.66699 -49.5 9l-9 3c-8 1.33301 -12 5.66602 -12 12.999c0.666992 2 1 3.66699 1 5zM65.999 207.009c-0.666992 -7.33301 -1.00098 -14.333 -1.00098 -21c0 -12.667 1 -25.667 3 -39
c3.33301 -20 9 -37.667 17 -53c22.667 -40.667 56 -61 100 -61h3c22 0.666992 43.667 5.5 65 14.5s40.666 21.833 57.999 38.5c44 41.333 74.667 101.666 92 180.999c2.66699 11.333 5.83398 25.333 9.50098 42s7.16699 32.834 10.5 48.501s6.33301 28.834 9 39.501l3 17
l1 4l-3 3c-0.666992 0.666992 -3.83398 3.16699 -9.50098 7.5s-13.167 9 -22.5 14s-20.166 9.5 -32.499 13.5s-25.166 6 -38.499 6c-27.333 0 -55.333 -5.66699 -84 -17c-36.667 -15.333 -66.334 -34.333 -89.001 -57s-40.5 -45.834 -53.5 -69.501
s-22.167 -45.667 -27.5 -66s-8.66602 -35.5 -9.99902 -45.5z" />
    <glyph glyph-name="h" unicode="h" horiz-adv-x="521" 
d="M1 18l0.996094 1.99902l136 640l2 11v1c1.33301 5.33301 4.16602 9.66602 8.49902 12.999s9.16602 5 14.499 5s9.33301 -1.66699 12 -5s3.33398 -7.66602 2.00098 -12.999v-1l-2 -11l-72 -342c6.66699 10.667 18.667 26 36 46s37.666 40 60.999 60s48.5 37.333 75.5 52
s53.833 22 80.5 22c40 0 66 -21.333 78 -64c5.33301 -20.667 8 -45.667 8 -75v-10c-0.666992 -34 -5.66699 -73.667 -15 -119c-9.33301 -50.667 -18.166 -93.667 -26.499 -129s-14.166 -61 -17.499 -77l-1 -3l-1 -4c-1.33301 -4.66699 -3.83301 -8.66699 -7.5 -12
s-8.16699 -5 -13.5 -5s-9.5 1.66699 -12.5 5s-3.83301 7.33301 -2.5 12v1l1 1v4c4 14.667 10.167 39.667 18.5 75s17.166 79 26.499 131c9.33301 48 14 89 14 123c0 16 -1 30.333 -3 43c-4 28 -12.333 47.333 -25 58c-5.33301 4.66699 -10.666 7.33398 -15.999 8.00098
s-9.66602 1 -12.999 1c-24 0 -48.5 -7.5 -73.5 -22.5s-48.5 -32.5 -70.5 -52.5s-41.167 -39.833 -57.5 -59.5s-27.833 -34.167 -34.5 -43.5c-11.333 -15.333 -19.666 -31.5 -24.999 -48.5s-9.66602 -33.167 -12.999 -48.5l-35 -168l-1 -1
c-1.33301 -5.33301 -3.83301 -9.66602 -7.5 -12.999s-8.16699 -5 -13.5 -5s-9.66602 1.66699 -12.999 5c-2.66699 2 -4 5 -4 9c0.666992 1.33301 1 2.66602 1 3.99902z" />
    <glyph glyph-name="i" unicode="i" horiz-adv-x="204" 
d="M1 16c0 0.666992 2.33301 11.167 7 31.5s10.334 45.666 17.001 75.999s14.167 63.666 22.5 99.999s16.166 71 23.499 104s14 62.167 20 87.5s10 42.333 12 51l1 6c1.33301 5.33301 4.33301 10 9 14s9.66699 6 15 6s9.66602 -2 12.999 -6s4.33301 -8.66699 3 -14l-1 -4
c-17.333 -75.333 -31.666 -138.666 -42.999 -189.999s-20.833 -93.833 -28.5 -127.5s-13.5 -59.5 -17.5 -77.5s-7 -31.167 -9 -39.5s-3 -13.166 -3 -14.499l-1 -3c-1.33301 -5.33301 -4.33301 -9.83301 -9 -13.5s-9.66699 -5.5 -15 -5.5c-11.333 0 -17 4.66699 -17 14
c0.666992 2 1 3.66699 1 5zM138 621l10 42c1.33301 5.33301 4 9.66602 8 12.999s8.66699 5 14 5s9.33301 -1.66699 12 -5c2 -2.66699 3 -5.66699 3 -9c0 -1.33301 -0.333008 -3 -1 -5l-10 -42c-1.33301 -5.33301 -4 -9.66602 -8 -12.999s-8.66699 -5 -14 -5
c-9.33301 0 -14 4.33301 -14 13v6z" />
    <glyph glyph-name="j" unicode="j" horiz-adv-x="358" 
d="M-99 -45c-0.666992 4.66699 0.667969 9.33105 4.00098 13.998s7.66602 7.66699 12.999 9c0.666992 0.666992 2.33398 1 5.00098 1c8.66699 0 13.667 -4.33301 15 -13v-1v-1l1 -5c16 -76.667 44 -115 84 -115h1c11.333 0 24.5 4 39.5 12s29.167 25 42.5 51
c7.33301 15.333 13.166 30.166 17.499 44.499s7.16602 24.5 8.49902 30.5c0.666992 4 2.83398 15 6.50098 33s8.16699 40.167 13.5 66.5s11 55.5 17 87.5s12.167 64 18.5 96s12.5 62.667 18.5 92s11 54.666 15 75.999c1.33301 6.66699 2.5 12.834 3.5 18.501
s2.16699 10.834 3.5 15.501c1.33301 5.33301 2.33301 10.333 3 15v1v1c3.33301 11.333 10.666 17 21.999 17c5.33301 0 9.5 -1.66699 12.5 -5s3.83301 -7.66602 2.5 -12.999v-1l-2 -10c-1.33301 -6.66699 -3.33301 -15.334 -6 -26.001
c-3.33301 -18 -7.83301 -41.167 -13.5 -69.5s-11.667 -58.666 -18 -90.999s-12.833 -65.333 -19.5 -99s-12.667 -64.5 -18 -92.5s-10 -51.667 -14 -71s-6.33301 -31.333 -7 -36c-2 -8 -5.83301 -21.167 -11.5 -39.5s-14.167 -37.166 -25.5 -56.499
c-13.333 -25.333 -30.666 -45 -51.999 -59c-19.333 -13.333 -40.333 -20 -63 -20c-39.333 0 -70 21 -92 63c-4 7.33301 -8.33301 17.5 -13 30.5s-8.66699 29.167 -12 48.5v1zM266.002 623.997c0 2.66699 0.332031 5.33398 0.999023 8.00098l15 44
c4.66699 9.33301 11.667 14 21 14c2 0 3.66699 -0.333008 5 -1c5.33301 -1.33301 8.66602 -4 9.99902 -8c0.666992 -1.33301 1 -3 1 -5c0 -2.66699 -0.666992 -5.66699 -2 -9c-2.66699 -7.33301 -5 -14 -7 -20c-1.33301 -2.66699 -2.16602 -5.16699 -2.49902 -7.5
s-0.833008 -4.5 -1.5 -6.5c-0.666992 -2.66699 -1.33398 -5 -2.00098 -7c-1.33301 -4.66699 -4.16602 -8.5 -8.49902 -11.5s-9.16602 -4.5 -14.499 -4.5h-2c-5.33301 1.33301 -9 3.66602 -11 6.99902c-1.33301 2 -2 4.33301 -2 7z" />
    <glyph glyph-name="k" unicode="k" horiz-adv-x="500" 
d="M1 17v1l136 654l1 1c1.33301 5.33301 4 9.66602 8 12.999s8.66699 5 14 5s9.66602 -1.66699 12.999 -5s4.33301 -7.66602 3 -12.999l-1 -1v-1l-90 -428l19 11c16.667 9.33301 38 22.666 64 39.999s53.833 37.333 83.5 60s60 47 91 73s59.5 52.333 85.5 79h1v1
c4 5.33301 9.33301 8 16 8c5.33301 0 9.33301 -1.66699 12 -5c2 -2 2.66699 -4.66699 2 -8v-5c-0.666992 -2.66699 -1.5 -4.83398 -2.5 -6.50098s-2.16699 -3.16699 -3.5 -4.5l-9 -8h1c-14 -14 -30.167 -29.167 -48.5 -45.5s-36.666 -32.333 -54.999 -48
s-36.333 -30.5 -54 -44.5s-32.834 -26 -45.501 -36l-9 -6c24 -40 46.333 -77.667 67 -113c8.66699 -15.333 17.5 -30.666 26.5 -45.999s17.333 -29.833 25 -43.5s14.667 -26 21 -37s11.5 -19.833 15.5 -26.5h1v-1c2.66699 -4 3.66699 -7.66699 3 -11
c0 -4.66699 -2.33301 -9.33398 -7 -14.001c-3.33301 -3.33301 -8.33301 -5.66602 -15 -6.99902h-1c-6.66699 0 -11 2.33301 -13 7l-1 1c-4.66699 8 -10.5 18.167 -17.5 30.5s-14.5 25.5 -22.5 39.5s-16.5 28.667 -25.5 44s-17.833 30.333 -26.5 45
c-20.667 34 -42.334 70 -65.001 108l-6 -3c-23.333 -15.333 -44.333 -28.5 -63 -39.5s-34 -19.833 -46 -26.5l-6 -3l-38 -180l-1 -4v-1c-1.33301 -5.33301 -4.16602 -9.66602 -8.49902 -12.999s-9.16602 -5 -14.499 -5s-9.33301 1.66699 -12 5c-2 2 -3 4.66699 -3 8
c0.666992 2 1 3.66699 1 5z" />
    <glyph glyph-name="l" unicode="l" horiz-adv-x="198" 
d="M1 15v2l139 654v1c3.33301 12.667 11 19 23 19c5.33301 0 9.66602 -1.66699 12.999 -5c2 -2.66699 3 -5.66699 3 -9c0 -1.33301 -0.333008 -3 -1 -5v-1l-139 -654l-1 -2c-1.33301 -4.66699 -4.16602 -8.5 -8.49902 -11.5s-8.83301 -4.5 -13.5 -4.5
c-4 0 -7.66699 1.33301 -11 4c-2.66699 2 -4 5.33301 -4 10v2z" />
    <glyph glyph-name="m" unicode="m" horiz-adv-x="835" 
d="M1 18l1 2l95 449l3 11c1.33301 5.33301 4 9.66602 8 12.999s8.66699 5 14 5s9.33301 -1.83301 12 -5.5s3.33398 -8.16699 2.00098 -13.5l-2 -10l-26 -122c25.333 30.667 51.666 58 78.999 82c23.333 20.667 49.5 39.5 78.5 56.5s57.833 25.5 86.5 25.5
c65.333 0 98.666 -35.667 99.999 -107v-14c18.667 22.667 39 42.667 61 60c19.333 15.333 41.833 29.333 67.5 42s53.834 19 84.501 19c36 0 62.667 -11 80 -33c14 -17.333 21 -42 21 -74c0 -22 -3.33301 -47 -10 -75l-65 -309l-1 -2
c-1.33301 -5.33301 -4 -9.66602 -8 -12.999s-8.66699 -5 -14 -5s-9.5 1.66699 -12.5 5s-3.83301 7.66602 -2.5 12.999l1 2l66 312c5.33301 23.333 8 44 8 62c0 24 -4.66699 43 -14 57c-10.667 16.667 -29.334 25 -56.001 25c-17.333 0 -37.333 -4.66699 -60 -14
s-44.667 -22 -66 -38c-26 -19.333 -47.5 -41.333 -64.5 -66s-28.167 -51 -33.5 -79l-55 -259l-2 -2c-1.33301 -5.33301 -3.83301 -9.66602 -7.5 -12.999s-8.16699 -5 -13.5 -5s-9.66602 1.66699 -12.999 5s-4.33301 7.66602 -3 12.999l1 2l66 311c5.33301 23.333 8 44 8 62
c0 24 -4.66699 43 -14 57c-10.667 16.667 -29.667 25 -57 25c-13.333 0 -28.333 -3.5 -45 -10.5s-34.334 -17.167 -53.001 -30.5c-21.333 -14.667 -43.166 -32.667 -65.499 -54s-44.5 -45 -66.5 -71c-8.66699 -11.333 -14.834 -22.166 -18.501 -32.499
s-5.5 -15.833 -5.5 -16.5l-51 -240l-1 -2c-1.33301 -5.33301 -3.83301 -9.66602 -7.5 -12.999s-8.16699 -5 -13.5 -5s-9.66602 1.66699 -12.999 5c-2.66699 2 -4 5 -4 9c0.666992 1.33301 1 2.66602 1 3.99902z" />
    <glyph glyph-name="n" unicode="n" horiz-adv-x="544" 
d="M1 18l1.00488 1.00098l98 461v1c1.33301 5.33301 4.16602 9.83301 8.49902 13.5s9.16602 5.5 14.499 5.5s9.5 -1.83301 12.5 -5.5s3.83301 -8.16699 2.5 -13.5v-1l-43 -200c22.667 40.667 47.667 77 75 109c12 14 25 27.5 39 40.5s29.167 24.667 45.5 35
s33.833 18.666 52.5 24.999s38 9.5 58 9.5c32 0 56.333 -8.33301 73 -25c8 -9.33301 14.167 -20.333 18.5 -33s6.83301 -28 7.5 -46v-14c0 -28 -3.33301 -61.667 -10 -101c-8 -45.333 -19 -102.333 -33 -171c-5.33301 -24.667 -9.33301 -43.5 -12 -56.5
s-4.33398 -22.167 -5.00098 -27.5c-0.666992 -1.33301 -1 -3.33301 -1 -6l-1 -1c-1.33301 -4.66699 -3.83301 -8.66699 -7.5 -12s-8.16699 -5 -13.5 -5s-9.5 1.66699 -12.5 5s-3.83301 7.33301 -2.5 12c0.666992 0.666992 1 1.33398 1 2.00098v1
c0 1.33301 0.166992 2.33301 0.5 3s0.5 1.66699 0.5 3c1.33301 6.66699 3.16602 16 5.49902 28s5.83301 29.667 10.5 53c12.667 58 23.667 111.333 33 160c8 42 12 77.667 12 107v11c-1.33301 14 -3.33301 25.833 -6 35.5s-7 17.5 -13 23.5c-11.333 12 -29 18 -53 18
c-30 0 -58.667 -8.33301 -86 -25c-35.333 -20.667 -71.333 -55.334 -108 -104.001c-24.667 -33.333 -46.334 -70.333 -65.001 -111s-32 -79.667 -40 -117l-19 -85v-1v-1c-1.33301 -5.33301 -4 -9.83301 -8 -13.5s-8.66699 -5.5 -14 -5.5c-4.66699 0 -8.66699 1.66699 -12 5
c-2.66699 2.66699 -4 6 -4 10v3z" />
    <glyph glyph-name="o" unicode="o" horiz-adv-x="513" 
d="M3 142c-1.33301 10.667 -2.33496 21.335 -3.00195 32.002c0 24.667 4 50.334 12 77.001c10 34 24.833 66.167 44.5 96.5s42.334 56.666 68.001 78.999s53.334 40 83.001 53s59.167 19.5 88.5 19.5c24.667 0 47.167 -4.5 67.5 -13.5s37.5 -22.167 51.5 -39.5
c18.667 -24 30.667 -53.333 36 -88c1.33301 -10.667 2.33301 -21.334 3 -32.001c0 -24.667 -4 -50.334 -12 -77.001c-10 -34 -24.833 -66.167 -44.5 -96.5s-42.167 -56.833 -67.5 -79.5s-52.833 -40.5 -82.5 -53.5s-59.167 -19.5 -88.5 -19.5c-50 0 -90 18 -120 54
c-18.667 24.667 -30.667 54 -36 88zM40.998 150.001c2.66699 -15.333 6.50195 -29.832 11.502 -43.499s11.5 -25.5 19.5 -35.5c24 -28 54.667 -42 92 -42c24 0 48.333 5.83301 73 17.5s48.667 28.167 72 49.5c22.667 21.333 42.167 45.166 58.5 71.499
s28.5 54.166 36.5 83.499c6 20.667 9 41.667 9 63c0 12 -1 24 -3 36c-6.66699 32.667 -18 58.667 -34 78c-22.667 28.667 -53 43 -91 43c-23.333 0 -47.333 -5.83301 -72 -17.5s-48.334 -28.5 -71.001 -50.5c-21.333 -20.667 -39.833 -44.167 -55.5 -70.5
s-27.834 -54.166 -36.501 -83.499c-6.66699 -24.667 -10 -48.667 -10 -72c0 -9.33301 0.333008 -18.333 1 -27z" />
    <glyph glyph-name="p" unicode="p" horiz-adv-x="530" 
d="M-39 -184l139.004 651.998l2 10v1c1.33301 5.33301 4.16602 9.83301 8.49902 13.5s9.16602 5.5 14.499 5.5s9.5 -1.83301 12.5 -5.5s4.16699 -8.16699 3.5 -13.5v-1l-2 -10l-12 -54l21 15c26.667 20 54 36 82 48c36 14 72 21 108 21h12
c26.667 -1.33301 48.667 -8.66602 66 -21.999s30.5 -30.5 39.5 -51.5s14.167 -44.5 15.5 -70.5v-12c0 -22 -2.33301 -44 -7 -66c-3.33301 -14 -7.83301 -31.833 -13.5 -53.5s-14.834 -44.167 -27.501 -67.5c-14 -28 -32.667 -52.667 -56 -74s-49 -38.666 -77 -51.999
c-32.667 -14.667 -66.334 -22 -101.001 -22c-26 0 -50.167 3.16699 -72.5 9.5s-40.833 12.833 -55.5 19.5l-13 6l-48 -226v-1c-1.33301 -5.33301 -4.33301 -9.83301 -9 -13.5s-9.66699 -5.5 -15 -5.5s-9.33301 2 -12 6c-2 2.66699 -3 6 -3 10v3v1zM57.0039 83.998
l4.99902 -2.99805c5.33301 -2.66699 12.5 -6 21.5 -10s19.5 -8 31.5 -12s25.167 -7.33301 39.5 -10s29.5 -4 45.5 -4c30 0 58 6 84 18c45.333 21.333 79.666 52.666 102.999 93.999c11.333 19.333 20.333 39.666 27 60.999s11.667 40.666 15 57.999
c3.33301 15.333 5.66602 33.333 6.99902 54c0 4 0.333008 8.33301 1 13c0 16.667 -2.33301 32.667 -7 48c-6 24.667 -16.167 42.334 -30.5 53.001s-32.166 16.667 -53.499 18h-12c-31.333 0 -59.5 -4.33301 -84.5 -13s-46.667 -18.5 -65 -29.5
s-33.166 -21.833 -44.499 -32.5s-18.666 -18 -21.999 -22l-1 -2z" />
    <glyph glyph-name="q" unicode="q" horiz-adv-x="528" 
d="M1 142c0 4.66699 -0.332031 9.00098 -0.999023 13.001c0 26.667 5 54.334 15 83.001c28.667 88.667 76 154.667 142 198c52.667 33.333 113 50 181 50c20.667 0 44 -2 70 -6l14 -2l5 20c1.33301 5.33301 4 9.66602 8 12.999s8.33301 5 13 5
c5.33301 0 9.33301 -1.33301 12 -4c2 -2 3 -5 3 -9v-4l-166 -674v-1c-1.33301 -5.33301 -4 -9.5 -8 -12.5s-8.66699 -4.5 -14 -4.5c-4.66699 0 -8.33398 1.66699 -11.001 5s-3.66699 7.66602 -3 12.999l55 226c-12.667 -11.333 -26.667 -21.333 -42 -30
c-13.333 -7.33301 -28.833 -14 -46.5 -20s-37.167 -9 -58.5 -9h-11c-62 3.33301 -106 26 -132 68c-14.667 24 -23 51.333 -25 82zM33.001 150.001c2 -27.333 9.33105 -50.667 21.998 -70c23.333 -38 60.333 -57 111 -57c42 0 78.667 11.667 110 35s53 56.333 65 99l73 289
l-10 2c-12.667 2 -25.167 3.66699 -37.5 5s-24.166 2 -35.499 2c-61.333 0 -114.666 -14.667 -159.999 -44c-58 -37.333 -100 -96.333 -126 -177c-8 -24 -12 -47.667 -12 -71v-13z" />
    <glyph glyph-name="r" unicode="r" horiz-adv-x="433" 
d="M0 17l-0.00292969 1.00195l98 461l1 1c1.33301 5.33301 4.16602 9.83301 8.49902 13.5s9.16602 5.5 14.499 5.5c12 0 17 -6.33301 15 -19l-1 -1l-24 -114c12.667 17.333 27.667 34.333 45 51c14.667 14 32.167 28.167 52.5 42.5s43.166 25.833 68.499 34.5
c10 3.33301 19.167 5.66602 27.5 6.99902s16.5 2 24.5 2c20.667 0 36.667 -5.33301 48 -16c6 -5.33301 10.333 -12.333 13 -21c1.33301 -5.33301 2 -10.333 2 -15c0 -4 -0.333008 -8 -1 -12c-1.33301 -6 -2.66602 -12.333 -3.99902 -19s-2.66602 -13.667 -3.99902 -21l-1 -3
v-1c-1.33301 -5.33301 -4.16602 -9.66602 -8.49902 -12.999s-9.16602 -5 -14.499 -5c-4.66699 0 -8.5 1.66699 -11.5 5s-3.83301 7.66602 -2.5 12.999c0 0.666992 0.333008 1.33398 1 2.00098l1 6c0.666992 3.33301 1.5 7.66602 2.5 12.999s2.16699 10.333 3.5 15
c2.66699 11.333 0.5 20.166 -6.5 26.499s-17.167 9.5 -30.5 9.5c-11.333 0 -23.333 -2 -36 -6c-18 -4.66699 -37.667 -14.667 -59 -30s-44.666 -36 -69.999 -62c-12 -12.667 -22.167 -25.667 -30.5 -39s-14.833 -25.5 -19.5 -36.5s-8.16699 -20.167 -10.5 -27.5
s-3.5 -11.333 -3.5 -12l-50 -235v-1c-3.33301 -11.333 -10.666 -17 -21.999 -17c-10.667 0 -16 5.66699 -16 17z" />
    <glyph glyph-name="s" unicode="s" horiz-adv-x="458" 
d="M-19 124c2 9.33301 7.33594 14.9961 16.0029 16.9961c8 2 13 0.833008 15 -3.5s3 -7.16602 3 -8.49902c4 -30.667 17 -54.334 39 -71.001s51 -25 87 -25c25.333 0 47.333 3.83301 66 11.5s34.334 17 47.001 28s22.334 22.333 29.001 34s11 21.834 13 30.501
c1.33301 8.66699 2 16.334 2 23.001c0 7.33301 -0.666992 13.666 -2 18.999c-3.33301 11.333 -9.83301 20.833 -19.5 28.5s-21.834 14.667 -36.501 21s-31.667 13.166 -51 20.499c-16 6 -32.167 12.5 -48.5 19.5s-30.666 15.667 -42.999 26s-21.833 22.833 -28.5 37.5
c-3.33301 8.66699 -5 18.334 -5 29.001c0 8 1 16.667 3 26c5.33301 24.667 15.666 44.5 30.999 59.5s32.666 26.667 51.999 35s38.833 13.833 58.5 16.5s36.5 4 50.5 4c62 0 102 -15.667 120 -47c4.66699 -9.33301 7.66699 -18.333 9 -27
c0.666992 -4.66699 0.666992 -9.33398 0 -14.001v-12c-0.666992 -8 -2.16699 -14.833 -4.5 -20.5s-3.83301 -9.5 -4.5 -11.5c-2 -4 -5 -7.33301 -9 -10s-8.33301 -3.66699 -13 -3c-5.33301 1.33301 -9 3.66602 -11 6.99902s-2.33301 6.66602 -1 9.99902l3.5 10.5
c1.66699 5 3 10.5 4 16.5s1.16699 12.333 0.5 19s-3 13.334 -7 20.001c-12 20 -42.333 30 -91 30c-39.333 0 -72.666 -6.33301 -99.999 -19c-30 -15.333 -48.333 -36.666 -55 -63.999c-1.33301 -6 -2 -11.333 -2 -16c0 -9.33301 2 -17.666 6 -24.999
c6 -12 14.5 -22 25.5 -30s23.167 -14.667 36.5 -20s25.666 -10 36.999 -14c8.66699 -2.66699 17.834 -5.66699 27.501 -9s19.167 -7 28.5 -11s18.166 -8.5 26.499 -13.5s15.5 -10.167 21.5 -15.5c13.333 -11.333 21.666 -25 24.999 -41c1.33301 -6.66699 2 -13.667 2 -21
c0 -10.667 -1.33301 -22.667 -4 -36c-4 -18.667 -12.167 -36.167 -24.5 -52.5s-27.333 -30.666 -45 -42.999s-37.334 -22.166 -59.001 -29.499s-44.167 -11 -67.5 -11c-30.667 0 -56.167 5.16699 -76.5 15.5s-36.5 22.333 -48.5 36s-20 27.5 -24 41.5
c-2.66699 10.667 -4.33398 19.334 -5.00098 26.001c0.666992 2 1 4 1 6z" />
    <glyph glyph-name="t" unicode="t" horiz-adv-x="341" 
d="M1 481c1.33301 5.33301 3.99707 9.83203 7.99707 13.499s8.66699 5.5 14 5.5c0.666992 0 1.33398 -0.333008 2.00098 -1h1h129l31 146l2 10v1c1.33301 5.33301 4.16602 9.83301 8.49902 13.5s9.16602 5.5 14.499 5.5s9.5 -1.83301 12.5 -5.5s3.83301 -8.16699 2.5 -13.5
v-1l-2 -10l-31 -146h131l2 1c5.33301 0 9.33301 -2 12 -6c2 -2.66699 3 -5.66699 3 -9v-4c-1.33301 -5.33301 -4.16602 -9.83301 -8.49902 -13.5s-9.16602 -5.5 -14.499 -5.5h-11h-122l-94 -443l-1 -2c-1.33301 -5.33301 -4.16602 -9.66602 -8.49902 -12.999
s-9.16602 -5 -14.499 -5s-9.33301 1.66699 -12 5s-3.66699 7.66602 -3 12.999l1 2l94 443h-124h-8c-5.33301 0 -9.33301 2 -12 6c-2 2.66699 -3 5.33398 -3 8.00098c0.666992 2 1 3.66699 1 5z" />
    <glyph glyph-name="u" unicode="u" horiz-adv-x="481" 
d="M1 139c1.33301 23.333 4.33105 48.0029 8.99805 74.0029s9.66699 52 15 78l1 2c5.33301 28 12.333 57.167 21 87.5s18.334 61.166 29.001 92.499l4 10c1.33301 5.33301 3.83301 9.5 7.5 12.5s8.16699 4.5 13.5 4.5c10.667 0 15.334 -5.66699 14.001 -17
c0 -1.33301 -0.333008 -2.33301 -1 -3c-1.33301 -4 -4 -11.833 -8 -23.5s-8.66699 -25.834 -14 -42.501s-10.666 -35.334 -15.999 -56.001s-10.333 -42 -15 -64l-1 -3c-4.66699 -23.333 -9 -47 -13 -71c-4.66699 -24 -7.66699 -47 -9 -69c-0.666992 -10 -1 -19.333 -1 -28
c0 -11.333 0.333008 -21.666 1 -30.999c2 -18 7.33301 -32.333 16 -43c5.33301 -6.66699 13.5 -12 24.5 -16s23.5 -6 37.5 -6c20.667 0 41.167 3.16699 61.5 9.5s37.5 13.166 51.5 20.499c18 8.66699 33.833 18 47.5 28s23.5 17.667 29.5 23c10.667 9.33301 18 20 22 32
s6.33301 18.667 7 20l72 317l1 6c1.33301 5.33301 3.83301 9.33301 7.5 12s8.16699 4 13.5 4c10 0 14 -5.33301 12 -16l1 -3l-98 -459v-2c-2 -5.33301 -5.33301 -9.83301 -10 -13.5s-10 -5.5 -16 -5.5c-5.33301 0 -9.83301 2.33301 -13.5 7s-4.83398 10 -3.50098 16l1 1
l11 54c-16.667 -14.667 -35.667 -28 -57 -40c-18 -10 -39.5 -19.167 -64.5 -27.5s-52.5 -12.5 -82.5 -12.5c-19.333 0 -36.833 2.5 -52.5 7.5s-26.167 11.167 -31.5 18.5c-10.667 13.333 -17.667 29.666 -21 48.999c-2 14 -3.33301 29.333 -4 46
c0.666992 6.66699 1 13.334 1 20.001z" />
    <glyph glyph-name="v" unicode="v" horiz-adv-x="473" 
d="M40 475c0.666992 0.666992 1 1.33203 1 1.99902s0.333008 1.66699 1 3c1.33301 5.33301 4 9.83301 8 13.5s8.66699 5.5 14 5.5c8 0 13.333 -4.66699 16 -14l-1 -1l78 -425l260 426l1 3c5.33301 7.33301 12 11 20 11c4.66699 0 8.66699 -1.66699 12 -5
c2 -2 3.33301 -5 4 -9c0 -1.33301 -0.333008 -2.66602 -1 -3.99902l-2 -4l-2 -4v-1l-283 -459c-4.66699 -8.66699 -11.667 -13 -21 -13c-8 0 -13.333 4.33301 -16 13v7z" />
    <glyph glyph-name="w" unicode="w" horiz-adv-x="647" 
d="M50 17l0.000976562 457.999v1c0 2 0.333008 3.66699 1 5c1.33301 5.33301 4 9.83301 8 13.5s8.66699 5.5 14 5.5s9 -1.66699 11 -5s3 -7.33301 3 -12l-6 -424l234 419c2 4 4.33301 7.66699 7 11c2.66699 2.66699 5.5 5.16699 8.5 7.5s7.16699 3.5 12.5 3.5
c4 0 7 -1.16699 9 -3.5s3.66699 -5.16602 5 -8.49902s2 -7.33301 2 -12l11 -423l220 430l1 1c3.33301 9.33301 10.333 14 21 14c4.66699 0 8.66699 -1.66699 12 -5c2 -2 3 -5 3 -9v-4l-3 -6l-3 -6l-241 -453c-4.66699 -8.66699 -10.334 -13.334 -17.001 -14.001h-4
c-4.66699 0 -8.5 1.33301 -11.5 4s-4.16699 6 -3.5 10l-19 417l-238 -417c-4 -7.33301 -10 -11.666 -18 -12.999c-0.666992 -0.666992 -1.66699 -1 -3 -1c-10.667 0 -16 5.33301 -16 16z" />
    <glyph glyph-name="x" unicode="x" horiz-adv-x="576" 
d="M-40 20c0.666992 5.33301 3.66699 9.66797 9 13.001c13.333 11.333 27.333 23 42 35c12.667 10.667 26.834 22.834 42.501 36.501s32.167 27.5 49.5 41.5c39.333 32.667 83.666 70 132.999 112l-132 210c-2.66699 3.33301 -3.33398 7.66602 -2.00098 12.999
s4 9.66602 8 12.999c4 4 9 6 15 6c4 0 8 -2 12 -6l6 -10c3.33301 -6 8 -14 14 -24s13 -21.5 21 -34.5s16 -26.167 24 -39.5c19.333 -32 41 -67.667 65 -107c46.667 39.333 88.334 75 125.001 107c15.333 13.333 30.5 26.333 45.5 39s28.333 24 40 34s21.167 18 28.5 24
l11 10c4.66699 3.33301 9.33398 5 14.001 5s8.66699 -2 12 -6c2 -2 3 -4.66699 3 -8v-5c-1.33301 -5.33301 -4 -9.66602 -8 -12.999l-252 -210l140 -225c2 -4 2.5 -8.33301 1.5 -13s-3.5 -8.66699 -7.5 -12c-5.33301 -4 -10 -6 -14 -6c-6 0 -10.333 2 -13 6
c-7.33301 11.333 -14.666 23.333 -21.999 36c-6.66699 11.333 -14 23.666 -22 36.999s-16.333 27.333 -25 42c-20.667 33.333 -43.667 71.333 -69 114l-132 -114c-16.667 -14.667 -32.834 -28.667 -48.501 -42s-29.834 -25.333 -42.501 -36c-14.667 -12 -28.667 -24 -42 -36
c-4 -4 -8.66699 -6 -14 -6c-6 0 -10 2 -12 6c-2.66699 2.66699 -4 5.66699 -4 9v4z" />
    <glyph glyph-name="y" unicode="y" horiz-adv-x="488" 
d="M1 -184c0.666992 1.33301 1.1709 2.66699 1.50391 4s1.16602 2.66602 2.49902 3.99902l6 9l149 221l-118 417c-2 2.66699 -2.33301 6 -1 10c1.33301 5.33301 4.16602 9.83301 8.49902 13.5s9.16602 5.5 14.499 5.5c4 0 7.5 -1.16699 10.5 -3.5s4.5 -5.16602 4.5 -8.49902
l111 -389l261 390h1c4 8.66699 10.667 13 20 13c5.33301 0 9.66602 -2 12.999 -6c2 -2.66699 3.33301 -5.66699 4 -9c0 -1.33301 -0.333008 -3 -1 -5c0 -2 -1.33301 -4.33301 -4 -7l-3 -5l-443 -661h-1c-2 -4 -5 -7 -9 -9s-7.66699 -3 -11 -3c-11.333 0 -17 4.66699 -17 14
c0.666992 2 1 3.66699 1 5z" />
    <glyph glyph-name="z" unicode="z" horiz-adv-x="538" 
d="M1 19c0 4 2 7.99805 6 11.998l5 5l430 427h-316h-2c-5.33301 0 -9.5 1.83301 -12.5 5.5s-3.83301 8.16699 -2.5 13.5s4.16602 9.66602 8.49902 12.999s9.16602 5 14.499 5h10v1h340h1c4.66699 -0.666992 8.66699 -2.66699 12 -6c2 -2 3.33301 -5 4 -9
c0 -1.33301 -0.333008 -2.66602 -1 -3.99902c-0.666992 -4 -3 -8 -7 -12l-5 -5l-430 -427h333h1c5.33301 0 9.33301 -1.83301 12 -5.5s3.33398 -8.16699 2.00098 -13.5c-3.33301 -11.333 -10.666 -17.666 -21.999 -18.999h-1h-364h-2c-5.33301 0 -9.33301 2 -12 6
c-2 2.66699 -3 5.33398 -3 8.00098c0.666992 2 1 3.66699 1 5z" />
    <glyph glyph-name="braceleft" unicode="{" horiz-adv-x="385" 
d="M1 350c1.33301 6.66699 4.99805 11.6621 10.998 14.9951l5 2c22 8 39.5 18.167 52.5 30.5s23 24.166 30 35.499s11.667 21.333 14 30s3.5 13.334 3.5 14.001v1l40 187c8.66699 40.667 30.667 74 66 100c28 19.333 61.333 32.666 100 39.999l5 1h3
c5.33301 0 9.33301 -1.66699 12 -5s3.33398 -7.66602 2.00098 -12.999c-1.33301 -4 -3.66602 -7.66699 -6.99902 -11s-7.33301 -5.33301 -12 -6l-4 -1c-9.33301 -1.33301 -20.5 -4 -33.5 -8s-26.167 -10 -39.5 -18c-30.667 -19.333 -49.667 -45.666 -57 -78.999l-40 -186v-1
c-1.33301 -13.333 -8.16602 -31.666 -20.499 -54.999s-32.833 -44.666 -61.5 -63.999l-12 -9l8 -8c18.667 -16.667 30 -38 34 -64c2.66699 -13.333 3.16699 -25.166 1.5 -35.499s-2.83398 -17.166 -3.50098 -20.499l-45 -208c-6.66699 -32.667 1.33301 -59 24 -79
c9.33301 -8 19.833 -14 31.5 -18s21.834 -6.66699 30.501 -8l4 -1c4 -0.666992 7.16699 -2.66699 9.5 -6s2.83301 -7 1.5 -11c-1.33301 -5.33301 -3.83301 -9.66602 -7.5 -12.999s-8.16699 -5 -13.5 -5h-3l-5 1c-36 7.33301 -63.667 20.666 -83 39.999
c-24 26 -32 59.333 -24 100l45 209v1c0 0.666992 0.666992 5.16699 2 13.5s1 18.333 -1 30s-7 23.5 -15 35.5s-21.333 22.333 -40 31c-0.666992 0 -1.66699 0.666992 -3 2c-4.66699 3.33301 -6.33398 8 -5.00098 14z" />
    <glyph glyph-name="bar" unicode="|" horiz-adv-x="284" 
d="M1 -138l206 968c1.33301 5.33301 4.16602 9.83301 8.49902 13.5s8.83301 5.5 13.5 5.5c12 0 17 -6.33301 15 -19l-206 -968c-1.33301 -5.33301 -4.16602 -9.66602 -8.49902 -12.999s-9.16602 -5 -14.499 -5s-9.33301 1.66699 -12 5s-3.33398 7.66602 -2.00098 12.999z
" />
    <glyph glyph-name="braceright" unicode="}" horiz-adv-x="394" 
d="M-8 -104c1.33301 4 3.66797 7.67188 7.00098 11.0049s7.33301 5.33301 12 6l4 1c9.33301 1.33301 20.5 4 33.5 8s26.167 10 39.5 18c30.667 19.333 49.667 45.666 57 78.999l40 186v1c1.33301 13.333 8.16602 31.666 20.499 54.999s32.833 44.666 61.5 63.999l12 9l-8 8
c-18.667 16.667 -30 38 -34 64c-2.66699 13.333 -3.16699 25.166 -1.5 35.499s2.83398 17.166 3.50098 20.499l45 208c6.66699 32.667 -1.33301 59 -24 79c-9.33301 8 -19.833 14 -31.5 18s-21.834 6.66699 -30.501 8l-4 1c-4 0.666992 -7.16699 2.66699 -9.5 6
s-2.83301 7 -1.5 11c1.33301 5.33301 3.83301 9.66602 7.5 12.999s8.16699 5 13.5 5h3l5 -1c36 -7.33301 63.667 -20.666 83 -39.999c24 -26 32 -59.333 24 -100l-45 -209v-1c0 -0.666992 -0.666992 -5.16699 -2 -13.5s-1 -18.333 1 -30s7 -23.5 15 -35.5
s21.333 -22.333 40 -31c0.666992 0 1.66699 -0.666992 3 -2c4.66699 -3.33301 6.33398 -8 5.00098 -14c-1.33301 -6.66699 -5 -11.667 -11 -15l-5 -2c-22 -8 -39.5 -18.167 -52.5 -30.5s-23 -24.166 -30 -35.499s-11.667 -21.333 -14 -30s-3.5 -13.334 -3.5 -14.001v-1
l-40 -187c-8.66699 -40.667 -30.667 -74 -66 -100c-28 -19.333 -61.333 -32.666 -100 -39.999l-5 -1h-3c-5.33301 0 -9.33301 1.66699 -12 5s-3.33398 7.66602 -2.00098 12.999z" />
    <glyph glyph-name="asciitilde" unicode="~" horiz-adv-x="569" 
d="M1 209c0 1.33301 0.327148 2.50098 0.994141 3.50098s1.33398 2.16699 2.00098 3.5l2 3c5.33301 8.66699 10.333 16.667 15 24s9.66699 14.666 15 21.999c42 54 88 81 138 81c14.667 0 27.334 -2.5 38.001 -7.5s19.834 -11.5 27.501 -19.5s14.334 -17 20.001 -27
s11.167 -20 16.5 -30c11.333 -21.333 22.333 -38.5 33 -51.5s25.667 -19.5 45 -19.5c15.333 0 30 4 44 12s27 18 39 30s22.667 24.667 32 38s17 25.333 23 36l4 7c4.66699 8 11 12 19 12c5.33301 0 9.33301 -1.66699 12 -5s3.33398 -7.66602 2.00098 -12.999
c0 -1.33301 -0.666992 -3.33301 -2 -6l-4 -6c-7.33301 -12 -16.5 -26 -27.5 -42s-24.167 -31.667 -39.5 -47c-36 -34 -72.333 -51 -109 -51c-14.667 0 -27.334 2.5 -38.001 7.5s-20 11.5 -28 19.5s-14.833 17 -20.5 27s-11.167 20.333 -16.5 31
c-11.333 21.333 -22.166 38.333 -32.499 51s-25.166 19 -44.499 19c-16 0 -30.667 -3.5 -44 -10.5s-25.5 -15.833 -36.5 -26.5s-20.667 -21.834 -29 -33.501s-15.166 -22.5 -20.499 -32.5l-2 -3c-4.66699 -8.66699 -11.334 -13 -20.001 -13c-11.333 0 -16 5.66699 -14 17z
" />
    <glyph glyph-name="uni00A0" unicode="&#xa0;" horiz-adv-x="329" 
 />
    <glyph glyph-name="cent" unicode="&#xa2;" horiz-adv-x="462" 
d="M3.5 230c-4.33301 26.667 -4.00195 52.8301 0.998047 78.4971s12.667 49.5 23 71.5s19.5 39.667 27.5 53c10 16.667 22 33.334 36 50.001s29 32 45 46c38.667 34.667 77.334 56.667 116.001 66l8 1l19 79c1.33301 4 3.83301 7.5 7.5 10.5s7.5 4.5 11.5 4.5
c4.66699 0 8.33398 -1.5 11.001 -4.5s3.33398 -6.83301 2.00098 -11.5l-19 -75l11 -1c24.667 -1.33301 46.667 -7.33301 66 -18s34.666 -25.334 45.999 -44.001l6 -8c0 -1.33301 0.333008 -2.83301 1 -4.5s0.666992 -3.83398 0 -6.50098
c-1.33301 -5.33301 -4 -9.66602 -8 -12.999s-8.33301 -5 -13 -5c-6 0 -10.333 2 -13 6l-2 2c-1.33301 2.66699 -2.83301 5.33398 -4.5 8.00098s-2.83398 4.66699 -3.50098 6c-9.33301 12.667 -21 22.834 -35 30.501s-29.667 12.167 -47 13.5l-11 1l-104 -434h11
c30.667 2 60 10 88 24c27.333 13.333 51 31.666 71 54.999c0.666992 0 2 1 4 3c6 6 11.667 9 17 9s9.33301 -1.66699 12 -5s3.33398 -7.66602 2.00098 -12.999s-3.66602 -9.33301 -6.99902 -12l-1 -1h-1c-22.667 -26.667 -51.334 -48.334 -86.001 -65.001
c-16.667 -8.66699 -34 -15.167 -52 -19.5s-35.667 -7.16602 -53 -8.49902h-13l-20 -84c-3.33301 -10 -9.66602 -15 -18.999 -15c-4.66699 0 -8.33398 1.5 -11.001 4.5s-3.33398 6.83301 -2.00098 11.5l21 86l-9 1c-34.667 8 -65 25.667 -91 53
c-21.333 22.667 -34.166 47.334 -38.499 74.001zM35.998 261.996c1.33301 -19.333 5.6709 -35.667 13.0039 -49s14.666 -24 21.999 -32c19.333 -20 41.666 -34.333 66.999 -43l12 -3l102 428l-15 -6c-11.333 -4 -23.5 -10 -36.5 -18s-26.333 -17.833 -40 -29.5
s-27 -24.834 -40 -39.501s-24.833 -31 -35.5 -49c-20.667 -34 -34.334 -64.167 -41.001 -90.5s-9.33398 -49.166 -8.00098 -68.499z" />
    <glyph glyph-name="sterling" unicode="&#xa3;" horiz-adv-x="648" 
d="M1 17c1.33301 6 4.66699 10.998 10 14.998l8 6c2 1.33301 4.33301 2.83301 7 4.5s4.66699 3.16699 6 4.5l2 1c16.667 14 31.834 29.333 45.501 46s25.167 34.667 34.5 54c8.66699 17.333 15.334 34.5 20.001 51.5s6.33398 32.5 5.00098 46.5
s-2.16602 27.833 -2.49902 41.5s-0.833008 27.167 -1.5 40.5v8h-113c-4.66699 0 -8.33398 1.66699 -11.001 5s-3.33398 7.66602 -2.00098 12.999s3.83301 9.5 7.5 12.5s7.83398 4.5 12.501 4.5h106l1 12c2 30 5.33301 58.167 10 84.5s10.667 50.5 18 72.5
c14.667 42.667 36 78.334 64 107.001c50.667 52.667 124.667 79 222 79c58.667 0 101 -20 127 -60c14 -20.667 22.833 -41.834 26.5 -63.501s5.16699 -39.167 4.5 -52.5v-5v-3c-1.33301 -5.33301 -3.83301 -9.66602 -7.5 -12.999s-8.16699 -5 -13.5 -5c-10 0 -15 5 -15 15
l1 5c0 8 -0.666992 17.667 -2 29s-3.66602 22.666 -6.99902 33.999c-10 28.667 -24.667 49.667 -44 63c-20 14 -46 21 -78 21c-85.333 0 -148.666 -21.667 -189.999 -65c-48.667 -50 -75.667 -132 -81 -246v-9h252c4.66699 0 8.5 -1.5 11.5 -4.5s3.83301 -7.16699 2.5 -12.5
s-4 -9.66602 -8 -12.999s-8.33301 -5 -13 -5h-245l-1 -12c0.666992 -11.333 1.16699 -22.666 1.5 -33.999s1.16602 -23 2.49902 -35c1.33301 -20 -1.33398 -41.5 -8.00098 -64.5s-17 -46.5 -31 -70.5c-0.666992 -1.33301 -1.33398 -2.5 -2.00098 -3.5
s-1.33398 -2.16699 -2.00098 -3.5l-13 -19l23 6c20 5.33301 37.333 8 52 8c32 0 59 -10 81 -30c19.333 -17.333 40.333 -30.666 63 -39.999s45 -14 67 -14c17.333 0 34 3 50 9c36.667 14 64.667 43.333 84 88l3 5c3.33301 9.33301 10 14 20 14
c4.66699 0 8.5 -1.66699 11.5 -5s3.83301 -7.33301 2.5 -12c-0.666992 -0.666992 -1 -2 -1 -4l-3 -5c-8 -17.333 -16.667 -32.333 -26 -45s-18.833 -23.5 -28.5 -32.5s-19.334 -16.333 -29.001 -22s-18.5 -10.167 -26.5 -13.5c-21.333 -8 -43 -12 -65 -12
c-26.667 0 -52.667 5.33301 -78 16s-49 25.667 -71 45c-16.667 15.333 -37 23 -61 23c-13.333 0 -31.166 -3.33301 -53.499 -10s-49.5 -20.667 -81.5 -42h-1v-1c-2.66699 -1.33301 -6.33398 -3.83301 -11.001 -7.5s-8 -6.16699 -10 -7.5c-4 -3.33301 -8.66699 -5 -14 -5
c-4.66699 0 -8.5 1.66699 -11.5 5s-3.83301 7.33301 -2.5 12z" />
    <glyph glyph-name="yen" unicode="&#xa5;" horiz-adv-x="541" 
d="M1 151c1.33301 4.66699 3.83398 8.66504 7.50098 11.998s7.83398 5 12.501 5h132l27 125h-132c-4.66699 0 -8.33398 1.66699 -11.001 5s-3.33398 7.66602 -2.00098 12.999s3.83301 9.66602 7.5 12.999s7.83398 5 12.501 5h117l-96 337
c-1.33301 4.66699 -0.833008 9.33398 1.5 14.001s6.16602 8.33398 11.499 11.001c5.33301 1.33301 8.66602 2 9.99902 2c7.33301 0 12 -3.66699 14 -11l97 -339l258 341c4.66699 6.66699 10.667 10 18 10c3.33301 0 6.33301 -0.666992 9 -2c4 -3.33301 6 -7 6 -11
c0.666992 -4 -0.666016 -9 -3.99902 -15l-255 -337h114c5.33301 0 9.5 -1.66699 12.5 -5s3.83301 -7.66602 2.5 -12.999s-4 -9.66602 -8 -12.999s-8.66699 -5 -14 -5h-131l-27 -125h131c5.33301 0 9.5 -1.66699 12.5 -5s3.83301 -7.33301 2.5 -12
c-1.33301 -5.33301 -4 -9.66602 -8 -12.999s-8.66699 -5 -14 -5h-131l-24 -114c-1.33301 -5.33301 -4.16602 -9.83301 -8.49902 -13.5s-9.16602 -5.5 -14.499 -5.5s-9.5 1.83301 -12.5 5.5s-3.83301 8.16699 -2.5 13.5l24 114h-132c-4.66699 0 -8.33398 1.66699 -11.001 5
s-3.33398 7.66602 -2.00098 12.999z" />
    <glyph glyph-name="copyright" unicode="&#xa9;" horiz-adv-x="492" 
d="M5 376c-6 27.333 -5.66504 56.666 1.00195 87.999s18.667 60.666 36 87.999s38.166 51.333 62.499 72s51.166 36.834 80.499 48.501s59.333 17.5 90 17.5s58.167 -5.83301 82.5 -17.5s44.166 -27.834 59.499 -48.501s25.833 -44.667 31.5 -72
s5.16699 -56.666 -1.5 -87.999s-18.667 -60.666 -36 -87.999s-38 -51.166 -62 -71.499s-50.667 -36.5 -80 -48.5s-59.333 -18 -90 -18s-58.167 6 -82.5 18s-44.166 28.167 -59.499 48.5s-26 44.166 -32 71.499zM32.502 387c5 -24 14.333 -45 28 -63s31.167 -32.333 52.5 -43
s45.333 -16 72 -16s52.834 5.33301 78.501 16s49.167 25 70.5 43s39.5 39 54.5 63s25.5 49.667 31.5 77s6.5 53.166 1.5 77.499s-14.333 45.5 -28 63.5s-31.167 32.167 -52.5 42.5s-45.333 15.5 -72 15.5s-52.834 -5.16699 -78.501 -15.5s-49 -24.5 -70 -42.5
s-39.167 -39.167 -54.5 -63.5s-26 -50.166 -32 -77.499s-6.5 -53 -1.5 -77zM107.002 465c8 36.667 25.335 66.332 52.002 88.999c28 22 60.333 33 97 33c15.333 0 28.333 -2.83301 39 -8.5s19.334 -11.5 26.001 -17.5l2 -2c4 -2 5.33301 -5.66699 4 -11
c-2.66699 -8.66699 -8.33398 -13 -17.001 -13c-4 0 -6.33301 1 -7 3l-3 1c-5.33301 5.33301 -12 10.166 -20 14.499s-17.667 6.5 -29 6.5c-36.667 0 -66.667 -12.667 -90 -38c-8 -9.33301 -14 -19.166 -18 -29.499s-7 -19.5 -9 -27.5c-2.66699 -12.667 -2.5 -24 0.5 -34
s7.83301 -18.667 14.5 -26s14.667 -13 24 -17s19 -6 29 -6c34.667 0 62.667 10.667 84 32c2.66699 2 5 4.33301 7 7h1l4 5c3.33301 4.66699 7.66602 7 12.999 7c8.66699 0 12.334 -4.66699 11.001 -14c-0.666992 -1.33301 -1.33398 -2.5 -2.00098 -3.5
s-1.33398 -2.16699 -2.00098 -3.5l-4 -5c-4 -5.33301 -9.5 -11 -16.5 -17s-15.5 -11.5 -25.5 -16.5s-21.333 -9.33301 -34 -13s-26.667 -5.5 -42 -5.5c-28.667 0 -52 10 -70 30c-18.667 20.667 -25 47.334 -19 80.001z" />
    <glyph glyph-name="guillemotleft" unicode="&#xab;" horiz-adv-x="607" 
d="M68 259c0.666992 5.33301 4 10.333 10 15l202 151c4.66699 3.33301 9 5 13 5c5.33301 0 9.66602 -2 12.999 -6c2 -4.66699 2.66699 -9.33398 2 -14.001c-2 -4.66699 -5 -9 -9 -13l-184 -137l139 -148c4 -2.66699 5.33301 -7 4 -13
c-1.33301 -5.33301 -3.66602 -9.66602 -6.99902 -12.999c-6 -4.66699 -11.333 -7 -16 -7c-4 0 -7.66699 1.66699 -11 5l-152 161c-4 4 -5.33301 8.66699 -4 14zM254 259c0.666992 6 3.66699 10.9971 9 14.9971l202 151c4.66699 3.33301 9 5 13 5
c5.33301 0 9.66602 -2 12.999 -6c2.66699 -3.33301 3.33398 -8 2.00098 -14c-0.666992 -3.33301 -3.66699 -7.66602 -9 -12.999l-183 -137l139 -148c3.33301 -3.33301 4.33301 -7.66602 3 -12.999c0 -4 -2.33301 -8.33301 -7 -13s-10 -7 -16 -7c-4 0 -7.66699 1.66699 -11 5
l-152 161c-4 4.66699 -5 9.33398 -3 14.001z" />
    <glyph glyph-name="uni00AD" unicode="&#xad;" 
d="M1 249c1.33301 5.33301 4.16602 9.83301 8.49902 13.5s9.16602 5.5 14.499 5.5h245c5.33301 0 9.5 -1.83301 12.5 -5.5s3.83301 -8.16699 2.5 -13.5s-4.16602 -9.83301 -8.49902 -13.5s-9.16602 -5.5 -14.499 -5.5h-245c-5.33301 0 -9.5 1.83301 -12.5 5.5
s-3.83301 8.16699 -2.5 13.5z" />
    <glyph glyph-name="registered" unicode="&#xae;" horiz-adv-x="588" 
d="M73 377c-6 27.333 -5.66895 56.666 0.998047 87.999c6.66699 30.667 18.667 59.667 36 87s38.166 51.333 62.499 72s51.166 36.834 80.499 48.501s59.333 17.5 90 17.5c30 0 57.167 -5.83301 81.5 -17.5s44.333 -27.834 60 -48.501s26.334 -44.667 32.001 -72
s5.16699 -56.333 -1.5 -87c-6.66699 -31.333 -18.667 -60.666 -36 -87.999s-38.166 -51.333 -62.499 -72s-51.166 -36.834 -80.499 -48.501s-59 -17.5 -89 -17.5c-30.667 0 -58.167 5.83301 -82.5 17.5s-44.166 27.834 -59.499 48.501s-26 44.667 -32 72zM100.498 387.5
c5 -24.333 14.333 -45.5 28 -63.5s31.167 -32.167 52.5 -42.5s45.333 -15.5 72 -15.5s52.834 5.16699 78.501 15.5s49.167 24.5 70.5 42.5s39.5 39.167 54.5 63.5s25.5 50.166 31.5 77.499s6.5 53 1.5 77s-14.333 45 -28 63s-31.167 32.167 -52.5 42.5
s-45.333 15.5 -72 15.5s-52.834 -5.16699 -78.501 -15.5s-49 -24.5 -70 -42.5s-39.167 -39 -54.5 -63s-26 -49.667 -32 -77s-6.5 -53.166 -1.5 -77.499zM178.998 383c0 0.666992 0.333984 1.33496 1.00098 2.00195s1 1.66699 1 3l3 9l66 175c2 6 6.33301 9.66699 13 11
c0.666992 0 6.16699 0.666992 16.5 2s22.5 2 36.5 2c2.66699 0 4.66699 -0.333008 6 -1c42.667 0 71.667 -8 87 -24c9.33301 -10.667 12.666 -23.334 9.99902 -38.001c-4 -16.667 -16.667 -30.334 -38 -41.001c-17.333 -10 -41.333 -18 -72 -24l-25 -5l68 -55l4 -4
c4 -2 5.33301 -5.66699 4 -11c-2 -9.33301 -7.33301 -14 -16 -14c-4 0 -6.33301 1 -7 3l-7 5l-97 78l-23 -64l-4 -8c-2 -8 -7 -12 -15 -12c-6.66699 0 -10.667 3.66699 -12 11zM240.999 477.001l14.0039 1.00098c15.333 1.33301 30.666 3.33301 45.999 6s29.666 6 42.999 10
c19.333 6 31.666 11.5 36.999 16.5s8.66602 9.5 9.99902 13.5c1.33301 8 0 14 -4 18c-7.33301 7.33301 -18.5 12.166 -33.5 14.499s-29.167 3.5 -42.5 3.5c-5.33301 0 -10.5 -0.166992 -15.5 -0.5s-10.167 -0.833008 -15.5 -1.5h-8z" />
    <glyph glyph-name="degree" unicode="&#xb0;" horiz-adv-x="393" 
d="M68.5 578.5c-3.66699 15.667 -3.5 32.167 0.5 49.5c4 18 10.833 34.667 20.5 50s21.5 28.833 35.5 40.5s29.5 20.834 46.5 27.501s34.5 10 52.5 10s34 -3.33301 48 -10s25.5 -15.834 34.5 -27.501s15.333 -25.167 19 -40.5s3.5 -32 -0.5 -50
c-4 -17.333 -11 -33.833 -21 -49.5s-22 -29.334 -36 -41.001s-29.333 -20.834 -46 -27.501s-34 -10 -52 -10s-34 3.33301 -48 10s-25.5 15.834 -34.5 27.501s-15.333 25.334 -19 41.001zM107 628c-5.33301 -25.333 -1.16602 -46.666 12.501 -63.999s33.167 -26 58.5 -26
c12.667 0 24.834 2.33301 36.501 7s22.5 11 32.5 19s18.5 17.5 25.5 28.5s11.833 22.833 14.5 35.5c5.33301 25.333 1.16602 46.666 -12.501 63.999s-33.167 26 -58.5 26c-12.667 0 -24.834 -2.33301 -36.501 -7s-22.5 -11 -32.5 -19s-18.5 -17.5 -25.5 -28.5
s-11.833 -22.833 -14.5 -35.5z" />
    <glyph glyph-name="paragraph" unicode="&#xb6;" horiz-adv-x="603" 
d="M74 523c8.66699 41.333 29.499 79.0029 62.499 113.003s76.833 63.333 131.5 88c34 14.667 64.833 25.667 92.5 33s47.167 12 58.5 14c5.33301 1.33301 8.66602 2 9.99902 2c10.667 -1.33301 15 -7 13 -17c-2 -8.66699 -7.33301 -14.334 -16 -17.001
c-0.666992 0 -3.5 -0.5 -8.5 -1.5s-8.83301 -1.83301 -11.5 -2.5l-9 -2l-1 -8c0 -3.33301 -0.666992 -6.33301 -2 -9l-1 -2l1 -1c0 -0.666992 -0.166992 -1.33398 -0.5 -2.00098s-0.5 -1.33398 -0.5 -2.00098c-10 -54 -21 -106.5 -33 -157.5s-24.5 -99.5 -37.5 -145.5
s-25.833 -89 -38.5 -129s-24.667 -76 -36 -108c-23.333 -69.333 -43.166 -124.166 -59.499 -164.499s-25.166 -61.5 -26.499 -63.5c-4.66699 -9.33301 -11.334 -14 -20.001 -14c-2 0 -3.33301 0.333008 -4 1c-10.667 2.66699 -13.667 9.66699 -9 21l7 17
c4.66699 10.667 10.834 25.667 18.501 45s16.667 43 27 71s21.5 59 33.5 93c9.33301 28 18.5 56.167 27.5 84.5s17.833 56.833 26.5 85.5l3 12l-12 -1h-18c-11.333 0 -23.5 0.666992 -36.5 2s-25.833 3.66602 -38.5 6.99902s-25 8 -37 14s-22.333 13.667 -31 23
c-28 28 -36.333 68.333 -25 121zM240.499 -62.9971c-1.66699 4 -1.49805 8.33398 0.501953 13.001l7 17c4.66699 10.667 10.834 25.667 18.501 45s16.667 43 27 71s21.5 59 33.5 93c10.667 31.333 22.334 66.833 35.001 106.5s25.334 82.167 38.001 127.5
s25 93.166 37 143.499s23 102.166 33 155.499c0.666992 5.33301 3 9.83301 7 13.5s8.66699 5.5 14 5.5h1c4.66699 0 8.5 -1.66699 11.5 -5s3.83301 -7.66602 2.5 -12.999c-10 -54 -21.167 -106.5 -33.5 -157.5s-24.833 -99.5 -37.5 -145.5s-25.334 -88.833 -38.001 -128.5
s-24.334 -75.5 -35.001 -107.5c-24.667 -70 -45.167 -125.167 -61.5 -165.5s-24.833 -61.5 -25.5 -63.5c-4.66699 -9.33301 -11.667 -14 -21 -14c-0.666992 0 -1.33398 0.166992 -2.00098 0.5s-1.33398 0.5 -2.00098 0.5c-4.66699 1.33301 -7.83398 4 -9.50098 8z" />
    <glyph glyph-name="guillemotright" unicode="&#xbb;" horiz-adv-x="607" 
d="M68 99c0.666992 2.66699 1.83398 5.00195 3.50098 7.00195s3.5 4 5.5 6l183 137l-139 148c-3.33301 3.33301 -4.33301 7.66602 -3 12.999c0 4 2.33301 8.33301 7 13s10 7 16 7c4 0 7.66699 -1.66699 11 -5l152 -161c4 -4.66699 5 -9.33398 3 -14.001
c-1.33301 -6 -4.33301 -11 -9 -15l-202 -151c-4.66699 -3.33301 -9 -5 -13 -5c-6 0 -10.333 2 -13 6c-2.66699 3.33301 -3.33398 8 -2.00098 14zM253 99.002c2 4.66699 5 8.99902 9 12.999l184 137l-139 148c-4 2.66699 -5.33301 7 -4 13c0.666992 4.66699 3 9 7 13
c6 4.66699 11.333 7 16 7c4 0 7.66699 -1.66699 11 -5l152 -161c4 -4 5.33301 -8.66699 4 -14c-0.666992 -5.33301 -4 -10.333 -10 -15l-202 -151c-4.66699 -3.33301 -9 -5 -13 -5c-6 0 -10.333 2 -13 6c-2 4.66699 -2.66699 9.33398 -2 14.001z" />
    <glyph glyph-name="questiondown" unicode="&#xbf;" horiz-adv-x="500" 
d="M-21 -155c1.33301 5.33301 3.99805 9.83594 7.99805 13.5029s8.66699 5.5 14 5.5c1.33301 0 2.66602 -0.166992 3.99902 -0.5s3 -0.833008 5 -1.5c12 -3.33301 27.167 -6.16602 45.5 -8.49902s38.833 -3.5 61.5 -3.5h19.5c6.33301 0 12.5 0.666992 18.5 2
c25.333 2 48.666 9.66699 69.999 23c18 12 33.667 27 47 45c12 16 21.167 31.667 27.5 47s10.5 27.666 12.5 36.999l1 1c0 4 2 12 6 24c1.33301 5.33301 2.83301 11.5 4.5 18.5s3.5 14.833 5.5 23.5l8 33l-25 -27c-46.667 -48.667 -97.667 -74 -153 -76h-4
c-52.667 0 -92.667 22.667 -120 68c-10.667 18 -18.167 38.667 -22.5 62s-4.83301 47.666 -1.5 72.999c2.66699 24 8.66699 48.833 18 74.5s22.333 50.667 39 75s37 47 61 68s52.333 38.167 85 51.5c30 12.667 59.667 19 89 19c23.333 0 43.333 -3.33301 60 -10
s30.334 -13.667 41.001 -21l14 -9l3 18c0.666992 2.66699 3.33398 14 8.00098 34s9.66699 42.667 15 68s9.83301 47.166 13.5 65.499s6.16699 29.5 7.5 33.5c1.33301 4.66699 4.16602 8.5 8.49902 11.5s9.16602 4.5 14.499 4.5c4.66699 0 8.33398 -1.83301 11.001 -5.5
s3.33398 -8.16699 2.00098 -13.5c0 -0.666992 -2.16699 -10.5 -6.5 -29.5s-10 -43.833 -17 -74.5s-15 -65.667 -24 -105s-18 -79.333 -27 -120s-18 -80.834 -27 -120.501s-17.167 -75.167 -24.5 -106.5s-13.333 -57.166 -18 -77.499s-7.33398 -31.5 -8.00098 -33.5
c-7.33301 -26.667 -17.5 -51 -30.5 -73s-28 -41 -45 -57s-36 -28.833 -57 -38.5s-42.833 -15.5 -65.5 -17.5h-1c-7.33301 -1.33301 -14.166 -2 -20.499 -2h-19.5c-23.333 0 -44.666 1.16699 -63.999 3.5s-36 5.16602 -50 8.49902l1 1l-8 2
c-9.33301 2 -12.666 7.66699 -9.99902 17zM39.998 205.003c-2 -19.333 -1.32715 -38.832 2.00586 -58.499s9 -37.167 17 -52.5c21.333 -40 54.333 -60 99 -60h3c21.333 1.33301 42.666 6.33301 63.999 15s40.666 21 57.999 37c43.333 40.667 73.666 100 90.999 178
c2.66699 11.333 5.66699 25.333 9 42s6.66602 33 9.99902 49s6 29.667 8 41l4 17l1 4l-2 3c-1.33301 1.33301 -4.33301 3.83301 -9 7.5s-11.334 7.5 -20.001 11.5c-8 4 -18.333 7.83301 -31 11.5s-27.667 5.5 -45 5.5c-26 0 -53 -5.66699 -81 -17
c-34 -12.667 -63.667 -31.334 -89 -56.001c-20.667 -18.667 -38.334 -41.667 -53.001 -69c-13.333 -24 -22.333 -46 -27 -66s-7.66699 -34.333 -9 -43z" />
    <glyph glyph-name="uni2000" unicode="&#x2000;" horiz-adv-x="424" 
 />
    <glyph glyph-name="uni2001" unicode="&#x2001;" horiz-adv-x="849" 
 />
    <glyph glyph-name="uni2002" unicode="&#x2002;" horiz-adv-x="424" 
 />
    <glyph glyph-name="uni2003" unicode="&#x2003;" horiz-adv-x="849" 
 />
    <glyph glyph-name="uni2004" unicode="&#x2004;" horiz-adv-x="282" 
 />
    <glyph glyph-name="uni2005" unicode="&#x2005;" horiz-adv-x="211" 
 />
    <glyph glyph-name="uni2006" unicode="&#x2006;" horiz-adv-x="141" 
 />
    <glyph glyph-name="uni2007" unicode="&#x2007;" horiz-adv-x="141" 
 />
    <glyph glyph-name="uni2008" unicode="&#x2008;" horiz-adv-x="105" 
 />
    <glyph glyph-name="uni2009" unicode="&#x2009;" horiz-adv-x="169" 
 />
    <glyph glyph-name="uni200A" unicode="&#x200a;" horiz-adv-x="46" 
 />
    <glyph glyph-name="uni2010" unicode="&#x2010;" 
d="M1 249c1.33301 5.33301 4.16602 9.83301 8.49902 13.5s9.16602 5.5 14.499 5.5h245c5.33301 0 9.5 -1.83301 12.5 -5.5s3.83301 -8.16699 2.5 -13.5s-4.16602 -9.83301 -8.49902 -13.5s-9.16602 -5.5 -14.499 -5.5h-245c-5.33301 0 -9.5 1.83301 -12.5 5.5
s-3.83301 8.16699 -2.5 13.5z" />
    <glyph glyph-name="uni2011" unicode="&#x2011;" 
d="M1 249c1.33301 5.33301 4.16602 9.83301 8.49902 13.5s9.16602 5.5 14.499 5.5h245c5.33301 0 9.5 -1.83301 12.5 -5.5s3.83301 -8.16699 2.5 -13.5s-4.16602 -9.83301 -8.49902 -13.5s-9.16602 -5.5 -14.499 -5.5h-245c-5.33301 0 -9.5 1.83301 -12.5 5.5
s-3.83301 8.16699 -2.5 13.5z" />
    <glyph glyph-name="figuredash" unicode="&#x2012;" 
d="M1 249c1.33301 5.33301 4.16602 9.83301 8.49902 13.5s9.16602 5.5 14.499 5.5h245c5.33301 0 9.5 -1.83301 12.5 -5.5s3.83301 -8.16699 2.5 -13.5s-4.16602 -9.83301 -8.49902 -13.5s-9.16602 -5.5 -14.499 -5.5h-245c-5.33301 0 -9.5 1.83301 -12.5 5.5
s-3.83301 8.16699 -2.5 13.5z" />
    <glyph glyph-name="endash" unicode="&#x2013;" horiz-adv-x="491" 
d="M1 249c3.33301 12.667 10.999 19 22.999 19h412c5.33301 0 9.5 -1.83301 12.5 -5.5s3.83301 -8.16699 2.5 -13.5s-4 -9.66602 -8 -12.999s-8.66699 -5 -14 -5h-412c-5.33301 0 -9.66602 1.66699 -12.999 5s-4.33301 7.66602 -3 12.999z" />
    <glyph glyph-name="emdash" unicode="&#x2014;" horiz-adv-x="778" 
d="M1 249c1.33301 5.33301 4.16699 9.83301 8.5 13.5s9.16602 5.5 14.499 5.5h700c5.33301 0 9.33301 -1.83301 12 -5.5s3.33398 -8.16699 2.00098 -13.5s-4 -9.83301 -8 -13.5s-8.66699 -5.5 -14 -5.5h-700c-5.33301 0 -9.5 1.83301 -12.5 5.5s-3.83301 8.16699 -2.5 13.5z
" />
    <glyph glyph-name="quoteleft" unicode="&#x2018;" horiz-adv-x="136" 
d="M122 590l1.00098 0.998047c1.33301 4 3.33301 8.66699 6 14c2 3.33301 6.33301 10.5 13 21.5s13.667 22.333 21 34s14 22.167 20 31.5l8 15c3.33301 6 8 9 14 9c1.33301 0 2.33301 -0.166992 3 -0.5s1.33398 -0.5 2.00098 -0.5c7.33301 -3.33301 8.66602 -9 3.99902 -17
l-45 -73l5 -5c6 -6.66699 7.33301 -15.667 4 -27c-3.33301 -9.33301 -8.83301 -17.166 -16.5 -23.499s-15.167 -9.5 -22.5 -9.5s-12.333 2.33301 -15 7c-4.66699 6.66699 -5.33398 14.334 -2.00098 23.001z" />
    <glyph glyph-name="quoteright" unicode="&#x2019;" horiz-adv-x="156" 
d="M63 584l44.998 73.002l-5 5c-6 6.66699 -7.33301 15.667 -4 27c3.33301 9.33301 8.83301 17.166 16.5 23.499s15.167 9.5 22.5 9.5s12.333 -2.33301 15 -7c4.66699 -6.66699 5.33398 -14.334 2.00098 -23.001l-1 -1c-1.33301 -4 -3.33301 -8.66699 -6 -14
c-2 -3.33301 -6.33301 -10.5 -13 -21.5s-13.667 -22.333 -21 -34s-13.666 -22.167 -18.999 -31.5l-9 -15c-3.33301 -6 -8 -9 -14 -9c-1.33301 0 -2.33301 0.166992 -3 0.5s-1.33398 0.5 -2.00098 0.5c-7.33301 3.33301 -8.66602 9 -3.99902 17z" />
    <glyph glyph-name="quotedblleft" unicode="&#x201c;" horiz-adv-x="362" 
d="M122 590l1.00098 0.998047c1.33301 4 3.33301 8.66699 6 14c2 3.33301 6.33301 10.5 13 21.5s13.667 22.333 21 34s14 22.167 20 31.5l8 15c3.33301 6 8 9 14 9c1.33301 0 2.33301 -0.166992 3 -0.5s1.33398 -0.5 2.00098 -0.5c7.33301 -3.33301 8.66602 -9 3.99902 -17
l-45 -73l5 -5c6 -6.66699 7.33301 -15.667 4 -27c-3.33301 -9.33301 -8.83301 -17.166 -16.5 -23.499s-15.167 -9.5 -22.5 -9.5s-12.333 2.33301 -15 7c-4.66699 6.66699 -5.33398 14.334 -2.00098 23.001zM268.001 589.998l1.00098 0.998047
c1.33301 4 3.33301 8.66699 6 14c2 3.33301 6.33301 10.5 13 21.5s13.667 22.333 21 34s14 22.167 20 31.5l8 15c3.33301 6 8 9 14 9c1.33301 0 2.33301 -0.166992 3 -0.5s1.33398 -0.5 2.00098 -0.5c7.33301 -3.33301 8.66602 -9 3.99902 -17l-45 -73l5 -5
c6 -6.66699 7.33301 -15.667 4 -27c-3.33301 -9.33301 -8.83301 -17.166 -16.5 -23.499s-15.167 -9.5 -22.5 -9.5s-12.333 2.33301 -15 7c-4.66699 6.66699 -5.33398 14.334 -2.00098 23.001z" />
    <glyph glyph-name="quotedblright" unicode="&#x201d;" horiz-adv-x="283" 
d="M3 584l44.998 73.002l-5 5c-6 6.66699 -7.33301 15.667 -4 27c3.33301 9.33301 8.83301 17.166 16.5 23.499s15.167 9.5 22.5 9.5s12.333 -2.33301 15 -7c4.66699 -6.66699 5.33398 -14.334 2.00098 -23.001l-1 -1c-1.33301 -4 -3.33301 -8.66699 -6 -14
c-2 -3.33301 -6.33301 -10.5 -13 -21.5s-13.667 -22.333 -21 -34s-13.666 -22.167 -18.999 -31.5l-9 -15c-3.33301 -6 -8 -9 -14 -9c-1.33301 0 -2.33301 0.166992 -3 0.5s-1.33398 0.5 -2.00098 0.5c-7.33301 3.33301 -8.66602 9 -3.99902 17zM149.998 584.002
l44.998 73.002l-5 5c-6 6.66699 -7.33301 15.667 -4 27c3.33301 9.33301 8.83301 17.166 16.5 23.499s15.167 9.5 22.5 9.5s12.333 -2.33301 15 -7c4.66699 -6.66699 5.33398 -14.334 2.00098 -23.001l-1 -1c-1.33301 -4 -3.33301 -8.66699 -6 -14
c-2 -3.33301 -6.33301 -10.5 -13 -21.5s-13.667 -22.333 -21 -34s-13.666 -22.167 -18.999 -31.5l-9 -15c-3.33301 -6 -8 -9 -14 -9c-1.33301 0 -2.33301 0.166992 -3 0.5s-1.33398 0.5 -2.00098 0.5c-7.33301 3.33301 -8.66602 9 -3.99902 17z" />
    <glyph glyph-name="bullet" unicode="&#x2022;" horiz-adv-x="207" 
d="M2 253c2.66699 11.333 7.16602 22.001 13.499 32.001s14 18.667 23 26s19 13.166 30 17.499s22.167 6.5 33.5 6.5c22.667 0 40.334 -8 53.001 -24s16.334 -35.333 11.001 -58c-4.66699 -22.667 -16.667 -42 -36 -58s-40.333 -24 -63 -24s-40.334 8 -53.001 24
s-16.667 35.333 -12 58z" />
    <glyph glyph-name="ellipsis" unicode="&#x2026;" horiz-adv-x="610" 
d="M2 31c3.33301 9.33301 8.6709 17.332 16.0039 23.999s14.666 10 21.999 10c4 0 7.16699 -0.833008 9.5 -2.5s4.16602 -3.5 5.49902 -5.5c2 -3.33301 3.16699 -7 3.5 -11s0.166016 -8.33301 -0.500977 -13c-3.33301 -9.33301 -8.83301 -17.166 -16.5 -23.499
s-15.167 -9.5 -22.5 -9.5c-8 0 -13 2.33301 -15 7c-4.66699 6.66699 -5.33398 14.667 -2.00098 24zM257.005 30.999c3.33301 9.33301 8.6709 17.332 16.0039 23.999s14.666 10 21.999 10c4 0 7.16699 -0.833008 9.5 -2.5s4.16602 -3.5 5.49902 -5.5
c2 -3.33301 3.16699 -7 3.5 -11s0.166016 -8.33301 -0.500977 -13c-3.33301 -9.33301 -8.83301 -17.166 -16.5 -23.499s-15.167 -9.5 -22.5 -9.5c-8 0 -13 2.33301 -15 7c-4.66699 6.66699 -5.33398 14.667 -2.00098 24zM514.01 30.998
c3.33301 9.33301 8.6709 17.332 16.0039 23.999s14.666 10 21.999 10c4 0 7.16699 -0.833008 9.5 -2.5s4.16602 -3.5 5.49902 -5.5c2 -3.33301 3.16699 -7 3.5 -11s0.166016 -8.33301 -0.500977 -13c-3.33301 -9.33301 -8.83301 -17.166 -16.5 -23.499
s-15.167 -9.5 -22.5 -9.5c-8 0 -13 2.33301 -15 7c-4.66699 6.66699 -5.33398 14.667 -2.00098 24z" />
    <glyph glyph-name="uni202F" unicode="&#x202f;" horiz-adv-x="169" 
 />
    <glyph glyph-name="guilsinglleft" unicode="&#x2039;" horiz-adv-x="272" 
d="M-7 259c1.33301 6 4.33301 10.998 9 14.998l202 151c4.66699 3.33301 9 5 13 5c6 0 10.333 -2 13 -6c2.66699 -3.33301 3.33398 -8 2.00098 -14c-0.666992 -2.66699 -1.83398 -5 -3.50098 -7s-3.5 -4 -5.5 -6l-183 -137l139 -148
c3.33301 -3.33301 4.33301 -7.66602 3 -12.999c0 -4 -2.33301 -8.33301 -7 -13s-10 -7 -16 -7c-4 0 -7.66699 1.66699 -11 5l-152 161c-3.33301 4.66699 -4.33301 9.33398 -3 14.001z" />
    <glyph glyph-name="guilsinglright" unicode="&#x203a;" horiz-adv-x="280" 
d="M1 99c0.666992 2.66699 1.83398 5.00195 3.50098 7.00195s3.5 4 5.5 6l183 137l-139 148c-3.33301 3.33301 -4.33301 7.66602 -3 12.999c0 4 2.33301 8.33301 7 13s10 7 16 7c4 0 7.66699 -1.66699 11 -5l152 -161c4 -4.66699 5 -9.33398 3 -14.001
c-1.33301 -6 -4.33301 -11 -9 -15l-202 -151c-4.66699 -3.33301 -9 -5 -13 -5c-6 0 -10.333 2 -13 6c-2.66699 3.33301 -3.33398 8 -2.00098 14z" />
    <glyph glyph-name="uni205F" unicode="&#x205f;" horiz-adv-x="211" 
 />
    <glyph glyph-name="Euro" unicode="&#x20ac;" horiz-adv-x="648" 
d="M1 286c1.33301 5.33301 4.3291 9.99707 8.99609 13.9971s9.66699 6 15 6h60l2 9c6 22.667 14 45.334 24 68.001l6 13h-73c-5.33301 0 -9.5 1.83301 -12.5 5.5s-3.83301 8.16699 -2.5 13.5s4.16602 9.83301 8.49902 13.5s9.16602 5.5 14.499 5.5h84l3 7
c2 3.33301 3.83301 6.33301 5.5 9s3.16699 5.66699 4.5 9c2.66699 4.66699 7.5 12.167 14.5 22.5s15.667 22.166 26 35.499s22.333 27.5 36 42.5s29.167 30.167 46.5 45.5c30 26 59.667 46.333 89 61c32.667 16 65.667 24 99 24c59.333 0 106.333 -17.333 141 -52l3 -4
c4.66699 -3.33301 6 -7.66602 4 -12.999c-0.666992 -4.66699 -3 -8.66699 -7 -12s-8.33301 -5 -13 -5c-4 0 -7 1.33301 -9 4c-0.666992 0 -1.5 0.5 -2.5 1.5l-2.5 2.5c-30.667 28.667 -73 43 -127 43c-14 0 -28.167 -2.33301 -42.5 -7s-28.166 -10.5 -41.499 -17.5
s-25.833 -14.833 -37.5 -23.5s-22.5 -17 -32.5 -25c-22 -19.333 -43 -40.666 -63 -63.999s-37 -46.666 -51 -69.999l-8 -14h215c5.33301 0 9.5 -1.83301 12.5 -5.5s3.83301 -8.16699 2.5 -13.5c-3.33301 -12.667 -11 -19 -23 -19h-227l-4 -8
c-5.33301 -12.667 -10.166 -24.834 -14.499 -36.501s-8.16602 -23.167 -11.499 -34.5l-2 -11l239 -1c5.33301 0 9.5 -1.83301 12.5 -5.5s3.83301 -8.16699 2.5 -13.5s-4.16602 -9.83301 -8.49902 -13.5s-9.16602 -5.5 -14.499 -5.5h-239l-1 -12
c-1.33301 -19.333 -0.833008 -36.666 1.5 -51.999s5.83301 -29.333 10.5 -42s10 -23.834 16 -33.501s12 -17.834 18 -24.501c40 -44 88.333 -67 145 -69h1h2c1.33301 0 4 -0.166992 8 -0.5s6.66699 -0.5 8 -0.5h1c36.667 2 73 10.667 109 26l3 1l1 1c4 1.33301 7 2 9 2
c5.33301 0 9.33301 -1.66699 12 -5s3.33398 -7.33301 2.00098 -12c-1.33301 -7.33301 -6 -12.666 -14 -15.999l-5 -2c-40 -17.333 -81 -27 -123 -29h-11h-4c-68.667 0 -125.667 25.667 -171 77c-43.333 48.667 -61 109.334 -53 182.001l1 9h-61
c-5.33301 0 -9.5 1.83301 -12.5 5.5s-3.83301 8.16699 -2.5 13.5z" />
    <glyph glyph-name="trademark" unicode="&#x2122;" horiz-adv-x="571" 
d="M1 676c2.66699 8.66699 7.66602 12.999 14.999 12.999h254c8.66699 0 11.667 -4.33301 9 -13c-1.33301 -8 -6 -12 -14 -12h-111l-38 -177c-0.666992 -3.33301 -2.66699 -6.16602 -6 -8.49902s-6.66602 -3.5 -9.99902 -3.5c-7.33301 0 -10.333 4 -9 12l38 177h-118
c-8 0 -11.333 4 -10 12zM202.999 484.499c-0.666992 3 0.333984 6.16699 3.00098 9.5l121 187c3.33301 4.66699 7.66602 7 12.999 7h1c4.66699 0 7.66699 -2.66699 9 -8l25 -160l107 161c2.66699 4.66699 7 7 13 7h1c4.66699 0 7.66699 -2.66699 9 -8l27 -190
c0 -4 -1 -7.33301 -3 -10s-5 -4.66699 -9 -6c-0.666992 -0.666992 -2 -1 -4 -1c-5.33301 0 -8.66602 2.66699 -9.99902 8l-22 161l-106 -160c-2.66699 -4.66699 -7.33398 -7 -14.001 -7c-5.33301 0 -8.66602 2.66699 -9.99902 8l-25 159l-104 -158
c-2.66699 -4.66699 -6.66699 -7 -12 -7c-2 0 -3.66699 0.333008 -5 1c-2.66699 1.33301 -4.33398 3.5 -5.00098 6.5z" />
    <glyph glyph-name="uni25FC" unicode="&#x25fc;" horiz-adv-x="500" 
d="M0 0v500h500v-500h-500z" />
    </font>
</defs>
</svg>
