<?xml version="1.0" standalone="no"?>
<!DOCTYPE svg PUBLIC "-//W3C//DTD SVG 1.1//EN" "http://www.w3.org/Graphics/SVG/1.1/DTD/svg11.dtd" >
<svg>
<metadata>
Created by FontForge 20120731 at Fri Aug  1 16:50:19 2014
 By Alfred Xing
(c) Craig Rozynski 2013
</metadata>
<defs>
<font id="ComicNeue-Regular" horiz-adv-x="440" >
  <font-face 
    font-family="Comic Neue"
    font-weight="400"
    font-stretch="normal"
    units-per-em="1000"
    panose-1="0 0 0 0 0 0 0 0 0 0"
    ascent="750"
    descent="-250"
    x-height="499.998"
    cap-height="681"
    bbox="-28 -197 856.251 840"
    underline-thickness="49"
    underline-position="-50"
    unicode-range="U+000D-25FC"
  />
<missing-glyph horiz-adv-x="365" 
d="M33 0v667h266v-667h-266zM66 33h200v600h-200v-600z" />
    <glyph glyph-name=".notdef" horiz-adv-x="365" 
d="M33 0v667h266v-667h-266zM66 33h200v600h-200v-600z" />
    <glyph glyph-name="glyph1" horiz-adv-x="1000" 
 />
    <glyph glyph-name="glyph1" horiz-adv-x="1000" 
 />
    <glyph glyph-name="uni000D" unicode="&#xd;" horiz-adv-x="1000" 
 />
    <glyph glyph-name="space" unicode=" " horiz-adv-x="329" 
 />
    <glyph glyph-name="exclam" unicode="!" horiz-adv-x="195" 
d="M55 41c1.33301 11.333 5.83301 21.166 13.5 29.499s16.5 12.5 26.5 12.5s18.167 -4.16699 24.5 -12.5s8.83301 -18.166 7.5 -29.499s-5.83301 -21 -13.5 -29s-16.5 -12 -26.5 -12s-18.167 4 -24.5 12s-8.83301 17.667 -7.5 29zM67 181l1 482v1
c0 8 2.83301 14.833 8.5 20.5s12.5 8.5 20.5 8.5s14.833 -2.83301 20.5 -8.5s8.5 -12.5 8.5 -20.5v-1l-1 -482c0 -8 -2.83301 -14.833 -8.5 -20.5s-12.5 -8.5 -20.5 -8.5s-14.833 2.83301 -20.5 8.5s-8.5 12.5 -8.5 20.5z" />
    <glyph glyph-name="quotedbl" unicode="&#x22;" horiz-adv-x="312" 
d="M69 528v134c0 7.33301 2.66699 13.833 8 19.5s12 8.5 20 8.5c7.33301 0 13.833 -2.83301 19.5 -8.5s8.5 -12.167 8.5 -19.5v-134c0 -8 -2.83301 -14.667 -8.5 -20s-12.167 -8 -19.5 -8c-8 0 -14.667 2.66699 -20 8s-8 12 -8 20zM188 528v134
c0 7.33301 2.66699 13.833 8 19.5s12 8.5 20 8.5c7.33301 0 13.833 -2.83301 19.5 -8.5s8.5 -12.167 8.5 -19.5v-134c0 -8 -2.83301 -14.667 -8.5 -20s-12.167 -8 -19.5 -8c-8 0 -14.667 2.66699 -20 8s-8 12 -8 20z" />
    <glyph glyph-name="numbersign" unicode="#" horiz-adv-x="745" 
d="M61 238c0 7.33301 2.66699 13.833 8 19.5s12 8.5 20 8.5h133l47 163h-135c-8 0 -14.667 2.66699 -20 8s-8 12 -8 20c0 7.33301 2.66699 13.833 8 19.5s12 8.5 20 8.5h152l53 184c2 7.33301 6.5 12.833 13.5 16.5s14.167 4.5 21.5 2.5s12.833 -6.5 16.5 -13.5
s4.5 -14.167 2.5 -21.5l-49 -168h153l53 184c2 7.33301 6.5 12.833 13.5 16.5s14.167 4.5 21.5 2.5s12.833 -6.5 16.5 -13.5s4.5 -14.167 2.5 -21.5l-49 -168h101c7.33301 0 13.833 -2.83301 19.5 -8.5s8.5 -12.167 8.5 -19.5c0 -8 -2.83301 -14.667 -8.5 -20
s-12.167 -8 -19.5 -8h-117l-48 -163h120c7.33301 0 13.833 -2.83301 19.5 -8.5s8.5 -12.167 8.5 -19.5c0 -8 -2.83301 -14.667 -8.5 -20s-12.167 -8 -19.5 -8h-136l-55 -190c-4.66699 -13.333 -13.667 -20 -27 -20c-3.33301 0 -6 0.333008 -8 1
c-7.33301 2 -12.833 6.5 -16.5 13.5s-4.5 14.167 -2.5 21.5l51 174h-153l-55 -190c-4.66699 -13.333 -13.667 -20 -27 -20c-3.33301 0 -6 0.333008 -8 1c-7.33301 2 -12.833 6.5 -16.5 13.5s-4.5 14.167 -2.5 21.5l51 174h-117c-8 0 -14.667 2.66699 -20 8s-8 12 -8 20z
M280 266h153l47 163h-152z" />
    <glyph glyph-name="dollar" unicode="$" horiz-adv-x="603" 
d="M64 154c0 8.66699 3.00195 16.002 9.00195 22.002s13.333 9 22 9c7.33301 0 13.666 -2.16699 18.999 -6.5s9 -9.83301 11 -16.5c6 -16.667 14.5 -31.334 25.5 -44.001s23.5 -23.5 37.5 -32.5s29.167 -16 45.5 -21s32.833 -8.5 49.5 -10.5v283
c-23.333 7.33301 -46.333 16.5 -69 27.5s-42.667 24 -60 39s-31 32.167 -41 51.5s-14 41.333 -12 66c2 27.333 8.66699 50.5 20 69.5s25.333 34.667 42 47s35.334 21.666 56.001 27.999s42 10.5 64 12.5v45c0 7.33301 2.66699 13.833 8 19.5s11.666 8.5 18.999 8.5
s13.833 -2.83301 19.5 -8.5s8.5 -12.167 8.5 -19.5v-43h11c10.667 0 23.167 -1 37.5 -3s29.166 -5.16699 44.499 -9.5s30.166 -10.666 44.499 -18.999s26.833 -19.166 37.5 -32.499c15.333 -19.333 24 -42.333 26 -69v-2v-1c0 -7.33301 -2.83301 -13.666 -8.5 -18.999
s-12.167 -8 -19.5 -8c-6.66699 0 -12.5 2.16699 -17.5 6.5s-8.16699 10.166 -9.5 17.499c-2 15.333 -7.66699 29.333 -17 42c-8.66699 10.667 -19.667 19 -33 25s-26.666 10.667 -39.999 14s-25.166 5.66602 -35.499 6.99902s-16.5 2 -18.5 2h-2v-249
c139.333 -40.667 207 -107 203 -199c-2 -63.333 -32 -112 -90 -146c-18.667 -10.667 -37.834 -18.834 -57.501 -24.501s-38.167 -9.5 -55.5 -11.5v-47c0 -7.33301 -2.83301 -13.833 -8.5 -19.5s-12.167 -8.5 -19.5 -8.5s-13.666 2.83301 -18.999 8.5s-8 12.167 -8 19.5v46
c-25.333 2 -49.5 6.83301 -72.5 14.5s-43.833 17.5 -62.5 29.5s-34.834 26.333 -48.501 43s-24.5 35 -32.5 55c-2 2.66699 -3 6.66699 -3 12zM163.002 512.002c-3.33301 -46 36.667 -83.668 120 -113.001v228c-24.667 -4 -44.667 -10.167 -60 -18.5
s-27.166 -17.666 -35.499 -27.999s-14.333 -21.5 -18 -33.5s-5.83398 -23.333 -6.50098 -34v-1zM338.002 55.001c12 2 25.832 5.33398 41.499 10.001s30.834 12.167 45.501 22.5s27 23.666 37 39.999s15.667 36.833 17 61.5c0 6.66699 -0.5 15 -1.5 25s-5.83301 21 -14.5 33
s-22.667 24.5 -42 37.5s-47 25.167 -83 36.5v-266z" />
    <glyph glyph-name="percent" unicode="%" horiz-adv-x="727" 
d="M61 558c0 18.667 3.5 36.334 10.5 53.001s16.667 31.167 29 43.5s26.833 22 43.5 29s34.334 10.5 53.001 10.5s36.334 -3.5 53.001 -10.5s31.167 -16.667 43.5 -29s22 -26.833 29 -43.5s10.5 -34.334 10.5 -53.001s-3.5 -36.334 -10.5 -53.001s-16.667 -31.167 -29 -43.5
s-26.833 -22 -43.5 -29s-34.334 -10.5 -53.001 -10.5s-36.334 3.5 -53.001 10.5s-31.167 16.667 -43.5 29s-22 26.833 -29 43.5s-10.5 34.334 -10.5 53.001zM115 558c0 -23.333 8 -42.833 24 -58.5s35.333 -23.5 58 -23.5s42 7.83301 58 23.5s24 35.167 24 58.5
c0 22.667 -8 42 -24 58s-35.333 24 -58 24s-42 -8 -58 -24s-24 -35.333 -24 -58zM160.5 18.5c-1.66699 7 -0.832031 13.5 2.50098 19.5l354 639c3.33301 6 8.33301 10 15 12s13.334 1.33301 20.001 -2c6 -3.33301 10 -8.5 12 -15.5s1.33301 -13.5 -2 -19.5l-354 -639
c-4.66699 -8.66699 -12.334 -13 -23.001 -13c-4 0 -8 1 -12 3c-6.66699 3.33301 -10.834 8.5 -12.501 15.5zM387.002 128c0 18.667 3.5 36.334 10.5 53.001s16.667 31.167 29 43.5s26.833 22 43.5 29s34.334 10.5 53.001 10.5s36.334 -3.5 53.001 -10.5
s31.167 -16.667 43.5 -29s22 -26.833 29 -43.5s10.5 -34.334 10.5 -53.001s-3.5 -36.334 -10.5 -53.001s-16.667 -31.167 -29 -43.5s-26.833 -22 -43.5 -29s-34.334 -10.5 -53.001 -10.5s-36.334 3.5 -53.001 10.5s-31.167 16.667 -43.5 29s-22 26.833 -29 43.5
s-10.5 34.334 -10.5 53.001zM441.002 128c0 -23.333 8 -42.833 24 -58.5s35.333 -23.5 58 -23.5s42 7.83301 58 23.5s24 35.167 24 58.5c0 22.667 -8 42 -24 58s-35.333 24 -58 24s-42 -8 -58 -24s-24 -35.333 -24 -58z" />
    <glyph glyph-name="ampersand" unicode="&#x26;" horiz-adv-x="659" 
d="M61 181c0 28.667 4.66895 53.6631 14.002 74.9961s21.666 40.166 36.999 56.499s32.666 30.5 51.999 42.5s39.333 23.667 60 35c-7.33301 8.66699 -15.5 18.834 -24.5 30.501s-17.333 24.334 -25 38.001s-14 28 -19 43s-7.5 30.5 -7.5 46.5c0 19.333 4 37.666 12 54.999
s19.667 33 35 47c14 12.667 29.833 22.5 47.5 29.5s35.167 10.5 52.5 10.5c18.667 0 37 -3.83301 55 -11.5s33.667 -18 47 -31s24.166 -27.833 32.499 -44.5s12.5 -34 12.5 -52c0 -16 -1.5 -31 -4.5 -45s-9 -27.833 -18 -41.5s-21.5 -27.167 -37.5 -40.5
s-37 -27.666 -63 -42.999c-4 -2.66699 -7 -4.33398 -9 -5.00098l144 -172c4.66699 10 9.16699 20.5 13.5 31.5s8.16602 23.167 11.499 36.5l4 12c3.33301 13.333 12 20 26 20c7.33301 0 13.666 -2.66699 18.999 -8s8 -11.666 8 -18.999c0 -2 -0.666992 -4.33301 -2 -7
l-3 -12c-11.333 -38 -24.333 -71 -39 -99l96 -115c4 -5.33301 6 -11 6 -17c0 -7.33301 -2.66699 -13.666 -8 -18.999s-11.666 -8 -18.999 -8c-8.66699 0 -15.667 3.33301 -21 10l-84 100c-19.333 -26.667 -39.333 -47.667 -60 -63s-40.167 -26.666 -58.5 -33.999
s-34.666 -12 -48.999 -14s-24.5 -3 -30.5 -3c-24 0 -48.167 4.33301 -72.5 13s-46.166 21 -65.499 37s-35 35.333 -47 58s-18 48.334 -18 77.001zM115.002 180.996c0 -22.667 5.00195 -42.1689 15.002 -58.502s22.333 -29.833 37 -40.5s30.667 -18.667 48 -24
s33.666 -8 48.999 -8c5.33301 0 13.833 0.833008 25.5 2.5s25 5.83398 40 12.501s30.833 17 47.5 31s33 33 49 57l-164 197c-20.667 -11.333 -39.834 -22.166 -57.501 -32.499s-33.167 -22 -46.5 -35s-23.833 -27.667 -31.5 -44s-11.5 -35.5 -11.5 -57.5zM202.004 547.994
c0 -12 2.33203 -24.334 6.99902 -37.001s10.667 -24.667 18 -36s15 -22.166 23 -32.499s15.667 -18.833 23 -25.5c3.33301 1.33301 6.5 3 9.5 5s6.16699 3.66699 9.5 5c24 14 42.667 26.667 56 38s23 21.833 29 31.5s9.5 18.834 10.5 27.501s1.5 17.667 1.5 27
c0 10.667 -2.66699 21 -8 31s-12.5 19 -21.5 27s-19.167 14.5 -30.5 19.5s-22.666 7.5 -33.999 7.5c-10.667 0 -21.5 -2.16699 -32.5 -6.5s-21 -10.5 -30 -18.5s-16.333 -17.333 -22 -28s-8.5 -22.334 -8.5 -35.001z" />
    <glyph glyph-name="quotesingle" unicode="'" horiz-adv-x="95" 
d="M20 528v134c0 7.33301 2.66699 13.833 8 19.5s12 8.5 20 8.5c7.33301 0 13.833 -2.83301 19.5 -8.5s8.5 -12.167 8.5 -19.5v-134c0 -8 -2.83301 -14.667 -8.5 -20s-12.167 -8 -19.5 -8c-8 0 -14.667 2.66699 -20 8s-8 12 -8 20z" />
    <glyph glyph-name="parenleft" unicode="(" horiz-adv-x="368" 
d="M65 351c0 62 10.001 122.67 30.001 182.003c14.667 46.667 36.334 92.334 65.001 137.001c24.667 38 47.167 67.167 67.5 87.5l31.5 31.5c6 5.33301 12.667 7.5 20 6.5s13.666 -4.5 18.999 -10.5s7.5 -12.833 6.5 -20.5s-4.5 -13.834 -10.5 -18.501l-14 -14
c-8.66699 -8.66699 -19.334 -20.834 -32.001 -36.501s-26.5 -35 -41.5 -58s-28.833 -49 -41.5 -78s-23.167 -61 -31.5 -96s-12.5 -72.5 -12.5 -112.5c0 -40.667 3.83301 -79 11.5 -115s17.334 -69.167 29.001 -99.5s24.334 -57.5 38.001 -81.5s26.5 -44.5 38.5 -61.5
s22 -30 30 -39s12.333 -13.833 13 -14.5c5.33301 -5.33301 8.16602 -11.833 8.49902 -19.5s-2.16699 -14.167 -7.5 -19.5c-6 -6 -12.667 -9 -20 -9c-6.66699 0 -13.334 2.66699 -20.001 8l-13 15c-9.33301 10 -20.5 24.167 -33.5 42.5s-27.167 40.666 -42.5 66.999
s-29.5 56.166 -42.5 89.499s-23.833 69.833 -32.5 109.5s-13 82.167 -13 127.5zM294.001 745.003v1v-1z" />
    <glyph glyph-name="parenright" unicode=")" horiz-adv-x="368" 
d="M63.5 764.5c1 -7.66699 4.49902 -13.8311 10.499 -18.498l14 -14c8.66699 -8.66699 19.334 -20.834 32.001 -36.501s26.5 -35 41.5 -58s28.833 -49 41.5 -78s23.167 -61 31.5 -96s12.5 -72.5 12.5 -112.5c0 -40.667 -3.83301 -79 -11.5 -115
s-17.334 -69.167 -29.001 -99.5s-24.334 -57.5 -38.001 -81.5s-26.5 -44.5 -38.5 -61.5s-22 -30 -30 -39s-12.333 -13.833 -13 -14.5c-5.33301 -5.33301 -8.16602 -11.833 -8.49902 -19.5s2.16699 -14.167 7.5 -19.5c6 -6 12.667 -9 20 -9
c6.66699 0 13.334 2.66699 20.001 8l14 15c9.33301 10 20.333 24.167 33 42.5s26.667 40.666 42 66.999s29.5 56.166 42.5 89.499s23.833 69.833 32.5 109.5s13 82.167 13 127.5c0 62 -10 122.667 -30 182c-14.667 46.667 -36.334 92.334 -65.001 137.001
c-24.667 38 -47.167 67.167 -67.5 87.5l-31.5 31.5c-6 5.33301 -12.667 7.5 -20 6.5s-13.666 -4.5 -18.999 -10.5s-7.5 -12.833 -6.5 -20.5zM73.999 745.003v1v-1z" />
    <glyph glyph-name="asterisk" unicode="*" horiz-adv-x="396" 
d="M72 599c-2 7.33301 -0.99707 14.001 3.00293 20.001c3.33301 6.66699 8.66602 11 15.999 13s14.333 1 21 -3l26 -13c4 -2 8.33301 -4.5 13 -7.5s8.66699 -5.83301 12 -8.5c4 -3.33301 8.33301 -6.66602 13 -9.99902c-1.33301 5.33301 -2.33301 11 -3 17
c-1.33301 5.33301 -2.16602 10.666 -2.49902 15.999s-0.5 10 -0.5 14v26c0 7.33301 2.66699 13.666 8 18.999s11.666 8 18.999 8s13.666 -2.66699 18.999 -8s8 -11.666 8 -18.999v-27c0 -4.66699 -0.333008 -9.66699 -1 -15s-1.33398 -10.333 -2.00098 -15
c-0.666992 -6 -1.33398 -11.667 -2.00098 -17c4 4 8 7.33301 12 10c3.33301 2.66699 7.33301 5.33398 12 8.00098s9 5.33398 13 8.00098l28 14c6 3.33301 12.667 4 20 2s12.666 -6 15.999 -12c4 -6.66699 5 -13.667 3 -21s-6.33301 -12.666 -13 -15.999
c-5.33301 -2 -10 -4.33301 -14 -7c-4 -2 -7.83301 -4 -11.5 -6s-6.16699 -3.33301 -7.5 -4c-9.33301 -4.66699 -19 -8 -29 -10c-6 -2 -12 -3.33301 -18 -4c4.66699 -2.66699 9 -5.66699 13 -9c3.33301 -3.33301 7.16602 -6.83301 11.499 -10.5
s8.16602 -7.16699 11.499 -10.5c1.33301 -2 3.83301 -4.83301 7.5 -8.5s7.16699 -7.5 10.5 -11.5c4 -4.66699 8.66699 -9.66699 14 -15s8 -11.666 8 -18.999s-2.66699 -13.666 -8 -18.999s-11.666 -8 -18.999 -8s-13.666 2.66699 -18.999 8c-6 6 -11.333 11.667 -16 17
c-4 4.66699 -7.83301 9 -11.5 13s-6.16699 6.66699 -7.5 8c-3.33301 3.33301 -6.5 7.16602 -9.5 11.499s-5.83301 8.83301 -8.5 13.5c-2.66699 5.33301 -5.66699 10.666 -9 15.999c-3.33301 -5.33301 -6.33301 -10.666 -9 -15.999
c-2.66699 -4.66699 -5.66699 -9.16699 -9 -13.5s-6.33301 -8.16602 -9 -11.499c-1.33301 -2 -3.83301 -5 -7.5 -9s-7.5 -8.33301 -11.5 -13c-4.66699 -5.33301 -10 -11 -16 -17c-5.33301 -5.33301 -11.666 -8.16602 -18.999 -8.49902s-13.666 2.16699 -18.999 7.5
s-8 11.666 -8 18.999s2.66699 13.666 8 18.999c4.66699 5.33301 9 10.333 13 15c3.33301 4 6.83301 8 10.5 12s6.16699 6.66699 7.5 8c2.66699 3.33301 6 6.66602 10 9.99902s7.66699 6.66602 11 9.99902c4 3.33301 8.33301 6.66602 13 9.99902
c-5.33301 1.33301 -11 3 -17 5c-5.33301 1.33301 -10.666 3.16602 -15.999 5.49902s-10 4.5 -14 6.5c-2.66699 1.33301 -5.83398 3 -9.50098 5s-7.16699 4 -10.5 6l-12 6c-6 3.33301 -10 8.66602 -12 15.999z" />
    <glyph glyph-name="plus" unicode="+" horiz-adv-x="442" 
d="M54 251c0 7.33301 2.66699 13.666 8 18.999s11.666 8 18.999 8h113v91v11c0 7.33301 2.66699 13.666 8 18.999s11.666 8 18.999 8s13.666 -2.66699 18.999 -8s8 -11.666 8 -18.999v-11v-91h114c7.33301 0 13.666 -2.66699 18.999 -8s8 -11.666 8 -18.999
s-2.66699 -13.666 -8 -18.999s-11.666 -8 -18.999 -8h-114v-110v-2c0 -7.33301 -2.66699 -13.666 -8 -18.999s-11.666 -8 -18.999 -8s-13.666 2.66699 -18.999 8s-8 11.666 -8 18.999v112h-113c-7.33301 0 -13.666 2.66699 -18.999 8s-8 11.666 -8 18.999z" />
    <glyph glyph-name="comma" unicode="," horiz-adv-x="260" 
d="M92 -62l24.001 64c-8.66699 8.66699 -12.667 20 -12 34c1.33301 11.333 5.83301 21 13.5 29s16.5 12 26.5 12s18.167 -4 24.5 -12s8.83301 -17.667 7.5 -29c0 -2.66699 -0.666992 -6 -2 -10l-2 -6c-1.33301 -3.33301 -4 -10.333 -8 -21s-8.33301 -21.667 -13 -33
c-5.33301 -13.333 -11 -28 -17 -44c-2.66699 -6 -6.83398 -10.333 -12.501 -13s-11.167 -2.66699 -16.5 0c-6 2 -10.333 5.83301 -13 11.5s-2.66699 11.5 0 17.5z" />
    <glyph glyph-name="hyphen" unicode="-" 
d="M71 250c0 7.33301 2.66699 13.666 8 18.999s11.666 8 18.999 8h247c7.33301 0 13.666 -2.66699 18.999 -8s8 -11.666 8 -18.999s-2.66699 -13.666 -8 -18.999s-11.666 -8 -18.999 -8h-247c-7.33301 0 -13.666 2.66699 -18.999 8s-8 11.666 -8 18.999z" />
    <glyph glyph-name="period" unicode="." horiz-adv-x="213" 
d="M70 42c1.33301 11.333 5.83301 21 13.5 29s16.5 12 26.5 12s18.167 -4 24.5 -12s8.83301 -17.667 7.5 -29s-5.83301 -21.166 -13.5 -29.499s-16.5 -12.5 -26.5 -12.5s-18.167 4.16699 -24.5 12.5s-8.83301 18.166 -7.5 29.499z" />
    <glyph glyph-name="slash" unicode="/" horiz-adv-x="544" 
d="M70 19c-2 7.33301 -1.33105 14.665 2.00195 21.998l353 637c4 6.66699 9.66699 11 17 13s14.666 1 21.999 -3c6.66699 -3.33301 11 -8.66602 13 -15.999s1 -14.666 -3 -21.999l-353 -637c-5.33301 -9.33301 -13.333 -14 -24 -14c-4.66699 0 -9.33398 1 -14.001 3
c-6.66699 4 -11 9.66699 -13 17z" />
    <glyph glyph-name="zero" unicode="0" horiz-adv-x="613" 
d="M69 342c1.33301 45.333 8.50098 88.502 21.501 129.502s30.833 77.833 53.5 110.5c23.333 34 50 59.833 80 77.5s61.667 26.5 95 26.5c50.667 0 96 -21 136 -63c30 -32.667 53 -73.834 69 -123.501s23 -102.834 21 -159.501c-1.33301 -45.333 -8.33301 -88.5 -21 -129.5
s-30.334 -77.5 -53.001 -109.5c-24 -34 -50.833 -59.833 -80.5 -77.5s-61.167 -26.5 -94.5 -26.5c-50.667 0 -96 21 -136 63c-30.667 32.667 -54 73.667 -70 123s-23 102.333 -21 159zM123.001 340.002c-1.33301 -48.667 4.66602 -94.333 17.999 -137
s32.666 -77.667 57.999 -105c28.667 -30.667 61 -46 97 -46c25.333 0 49.5 7.66699 72.5 23s43.5 36 61.5 62s32.5 56.667 43.5 92s17.167 73 18.5 113c1.33301 49.333 -4.66699 95.166 -18 137.499s-32.666 77.166 -57.999 104.499c-29.333 31.333 -61.666 47 -96.999 47
c-26 0 -50.5 -7.66699 -73.5 -23s-43.333 -36.166 -61 -62.499s-32 -57.166 -43 -92.499s-17.167 -73 -18.5 -113z" />
    <glyph glyph-name="one" unicode="1" horiz-adv-x="403" 
d="M61.5 512c-0.333008 8 2.16602 14.6699 7.49902 20.0029l128 139c4 4.66699 8.83301 7.66699 14.5 9s11.167 0.666016 16.5 -2.00098c12 -4.66699 18 -13.334 18 -26.001l-9 -596h73c7.33301 0 13.833 -2.83301 19.5 -8.5s8.5 -12.167 8.5 -19.5
c0 -8 -2.83301 -14.667 -8.5 -20s-12.167 -8 -19.5 -8h-218c-8 0 -14.667 2.66699 -20 8s-8 12 -8 20c0 7.33301 2.66699 13.833 8 19.5s12 8.5 20 8.5h89l8 523l-79 -85c-5.33301 -5.33301 -11.833 -8.33301 -19.5 -9s-14.5 1.66602 -20.5 6.99902
c-5.33301 5.33301 -8.16602 12 -8.49902 20z" />
    <glyph glyph-name="two" unicode="2" horiz-adv-x="527" 
d="M63.5 554c-1 7.33301 0.837891 14.0068 5.50488 20.0068c4.66699 5.33301 12.834 14.166 24.501 26.499s27.167 24.5 46.5 36.5c40.667 26.667 84 40 130 40c51.333 0 94.666 -15 129.999 -45c18.667 -16 33 -34.667 43 -56s15 -44 15 -68c0 -28 -4.5 -52.333 -13.5 -73
s-21 -39.334 -36 -56.001s-31.833 -31.5 -50.5 -44.5s-37.334 -25.833 -56.001 -38.5c-22 -14 -43.833 -28.833 -65.5 -44.5s-40.834 -33.834 -57.501 -54.501c-18 -22 -31.333 -45.667 -40 -71c-4 -10.667 -7 -21.834 -9 -33.501s-3.66699 -24.167 -5 -37.5h314
c7.33301 0 13.833 -2.66699 19.5 -8s8.5 -12 8.5 -20c0 -7.33301 -2.83301 -13.833 -8.5 -19.5s-12.167 -8.5 -19.5 -8.5h-371v28c0 81.333 22.333 149.666 67 204.999c19.333 24 41.166 44.833 65.499 62.5s47.833 33.834 70.5 48.501c18 12 35 23.5 51 34.5
s30 22.833 42 35.5s21.333 26.667 28 42s10 33 10 53c0 32.667 -12.667 59.667 -38 81c-12 10.667 -26.167 18.667 -42.5 24s-33.5 8 -51.5 8c-22.667 0 -43.334 -3.83301 -62.001 -11.5s-34.667 -16.334 -48 -26.001s-24 -18.834 -32 -27.501s-13 -14 -15 -16
c-4.66699 -6 -10.834 -9.5 -18.501 -10.5s-14.5 0.833008 -20.5 5.5c-6 5.33301 -9.5 11.666 -10.5 18.999z" />
    <glyph glyph-name="three" unicode="3" horiz-adv-x="542" 
d="M68 124c1.33301 7.33301 5.00195 13.5029 11.002 18.5029s12.667 6.83301 20 5.5c10.667 -2 18 -7.33301 22 -16l1 -3c2 -4 4.66699 -8.33301 8 -13c3.33301 -4 7 -8.33301 11 -13s9 -9.33398 15 -14.001c30 -26 67 -39 111 -39c13.333 0 28.833 2.5 46.5 7.5
s34.834 13.5 51.501 25.5c35.333 28 53 67 53 117c0 34.667 -8.66699 63.667 -26 87c-13.333 18.667 -32.333 33.667 -57 45c-10.667 4.66699 -21.167 8.5 -31.5 11.5s-19.5 5.16699 -27.5 6.5s-14.667 2.33301 -20 3h-8c-7.33301 0 -13.666 2.83301 -18.999 8.5
s-8 12.167 -8 19.5c0 8 2.66699 14.667 8 20s12 8 20 8c15.333 0 32 3 50 9s34.667 14.333 50 25c22 15.333 36.333 31 43 47s10 30 10 42c0 11.333 -3 22.833 -9 34.5s-14.667 22 -26 31s-25.5 16.333 -42.5 22s-36.5 8.5 -58.5 8.5c-20 0 -37.5 -2 -52.5 -6
s-27.5 -8.5 -37.5 -13.5s-17.5 -9.66699 -22.5 -14s-7.83301 -6.5 -8.5 -6.5l-2 -2c-4.66699 -4.66699 -10.667 -7 -18 -7s-13.833 2.66699 -19.5 8s-8.5 12 -8.5 20c0 7.33301 2.66699 13.666 8 18.999c0.666992 1.33301 4.5 4.83301 11.5 10.5s17.167 12.167 30.5 19.5
c36 18.667 75.667 28 119 28c55.333 0 101.666 -15 138.999 -45c17.333 -14 30.5 -30.333 39.5 -49s13.5 -38 13.5 -58c0 -26 -6.5 -50.667 -19.5 -74s-32.167 -43.666 -57.5 -60.999c-3.33301 -2.66699 -7 -5 -11 -7s-8 -4.33301 -12 -7h1
c32.667 -14.667 59 -35.667 79 -63c24 -33.333 36 -73.333 36 -120c0 -21.333 -2.33301 -40.5 -7 -57.5s-10.667 -32 -18 -45s-15.333 -24.333 -24 -34s-17.334 -17.834 -26.001 -24.501c-18.667 -14 -39.5 -25 -62.5 -33s-46.167 -12 -69.5 -12
c-36 0 -66.333 5.83301 -91 17.5s-44.334 23.834 -59.001 36.501c-15.333 13.333 -26.333 25.666 -33 36.999s-10.667 17.666 -12 18.999l-2 5c-2.66699 4.66699 -3.33398 9.66699 -2.00098 15z" />
    <glyph glyph-name="four" unicode="4" horiz-adv-x="507" 
d="M59 185c-5.33301 9.33301 -5 18.668 1 28.001l278 458c3.33301 5.33301 7.83301 9.16602 13.5 11.499s11.5 2.5 17.5 0.5c6 -1.33301 11 -4.5 15 -9.5s6 -10.833 6 -17.5v-435l35 -1c7.33301 0 13.833 -2.83301 19.5 -8.5s8.16699 -12.167 7.5 -19.5
c0 -8 -2.83301 -14.667 -8.5 -20s-12.167 -8 -19.5 -8l-34 1v-138c0 -7.33301 -2.83301 -13.833 -8.5 -19.5s-12.167 -8.5 -19.5 -8.5c-8 0 -14.667 2.83301 -20 8.5s-8 12.167 -8 19.5v139l-251 4c-10.667 0 -18.667 5 -24 15zM133 225.002l201 -3v334z" />
    <glyph glyph-name="five" unicode="5" horiz-adv-x="558" 
d="M67 120c0 7.33301 2.83301 13.833 8.5 19.5s12.167 8.5 19.5 8.5c11.333 0 19.666 -5 24.999 -15v-1c1.33301 -2 4.83301 -6.83301 10.5 -14.5s14.167 -16.167 25.5 -25.5c32 -26 69 -39 111 -39c20 0 40.167 4.66699 60.5 14s38.5 22.666 54.5 39.999
c38 40 57 88.667 57 146c0 21.333 -3 42.5 -9 63.5s-15.167 39.667 -27.5 56s-28.166 29.5 -47.499 39.5s-42 15 -68 15c-22 0 -41.833 -3.33301 -59.5 -10s-32.834 -14 -45.501 -22s-22.334 -15.667 -29.001 -23l-10 -10c-8.66699 -10 -19.667 -12.333 -33 -7
c-5.33301 2 -9.66602 5.66699 -12.999 11s-4.66602 11 -3.99902 17l27 265c1.33301 7.33301 4.5 13.333 9.5 18s11.167 7 18.5 7h291c7.33301 0 13.833 -2.83301 19.5 -8.5s8.5 -12.167 8.5 -19.5c0 -8 -2.83301 -14.667 -8.5 -20s-12.167 -8 -19.5 -8h-266l-17 -172
c16 9.33301 34.833 18 56.5 26s46.5 12 74.5 12s54.167 -5 78.5 -15s46.166 -24.667 65.499 -44c42.667 -42.667 64 -99.667 64 -171c0 -35.333 -6.16699 -68.833 -18.5 -100.5s-30.166 -59.5 -53.499 -83.5c-21.333 -23.333 -45.666 -41.166 -72.999 -53.499
s-55 -18.5 -83 -18.5c-56 0 -105.667 18 -149 54c-15.333 13.333 -26.833 25.5 -34.5 36.5s-11.834 17.167 -12.501 18.5h-1c-2 4 -3 8.66699 -3 14z" />
    <glyph glyph-name="six" unicode="6" horiz-adv-x="545" 
d="M61 247c0 42.667 4.49902 81.8369 13.499 117.504s20.5 67.667 34.5 96s29.5 53.333 46.5 75s33.833 40.5 50.5 56.5c26.667 24.667 51.834 44 75.501 58s41.834 24 54.501 30h1c2 0.666992 5 1 9 1c7.33301 0 13.5 -2.5 18.5 -7.5s7.5 -11.167 7.5 -18.5
c0 -11.333 -5 -19.333 -15 -24l-4 -2c-11.333 -5.33301 -27.5 -14.333 -48.5 -27s-42.5 -29.667 -64.5 -51c-46 -43.333 -79.667 -93 -101 -149c18.667 11.333 40.334 21.166 65.001 29.499s53 12.5 85 12.5c3.33301 0 10.333 -0.5 21 -1.5s23.167 -3.5 37.5 -7.5
s29.166 -10.167 44.499 -18.5s29.5 -20 42.5 -35s23.833 -33.833 32.5 -56.5s13 -50.334 13 -83.001c0 -26 -2.33301 -49.333 -7 -70s-10.667 -38.834 -18 -54.501s-15.333 -29.167 -24 -40.5s-17.334 -21 -26.001 -29c-21.333 -18.667 -43.333 -31.834 -66 -39.501
s-42.667 -11.5 -60 -11.5s-38 2.5 -62 7.5s-47.333 15.833 -70 32.5c-57.333 42 -86 112 -86 210zM112.999 247.003c0 -40.667 4.99902 -73.834 14.999 -99.501s23 -45.667 39 -60s33.833 -24.166 53.5 -29.499s39.167 -8 58.5 -8c10.667 0 24.334 2.66699 41.001 8
s33 15 49 29s29.833 33.5 41.5 58.5s17.5 57.167 17.5 96.5c0 34.667 -5.66699 61.834 -17 81.501s-24.666 34.5 -39.999 44.5s-30.833 16.333 -46.5 19s-27.5 4 -35.5 4c-23.333 0 -44.5 -2.83301 -63.5 -8.5s-35.667 -12.334 -50 -20.001s-26.333 -15.5 -36 -23.5
s-16.834 -14.333 -21.501 -19c-2 -12 -3.33301 -24 -4 -36s-1 -24.333 -1 -37z" />
    <glyph glyph-name="seven" unicode="7" horiz-adv-x="500" 
d="M64 642c0 7.33301 2.66699 13.833 8 19.5s12 8.5 20 8.5h360c10.667 0 18.667 -4.33301 24 -13c5.33301 -10 5.66602 -19.333 0.999023 -28l-309 -613c-5.33301 -10 -13.666 -15 -24.999 -15c-4.66699 0 -9 1 -13 3c-6.66699 3.33301 -11.167 8.5 -13.5 15.5
s-1.83301 14.167 1.5 21.5l289 573h-315c-8 0 -14.667 2.66699 -20 8s-8 12 -8 20z" />
    <glyph glyph-name="eight" unicode="8" horiz-adv-x="546" 
d="M66 179c0.666992 26 5.33301 48.998 14 68.998s19.5 37.5 32.5 52.5s27.667 28 44 39s32.5 20.5 48.5 28.5c-14.667 6.66699 -28.5 14.334 -41.5 23.001s-24.5 19 -34.5 31s-17.667 25.833 -23 41.5s-7.66602 33.5 -6.99902 53.5c1.33301 59.333 25 104.333 71 135
c16 10.667 34 19 54 25s39.667 9 59 9c28 0 54 -4.66699 78 -14s44 -22.666 60 -39.999c28 -28.667 41.333 -64 40 -106c-0.666992 -20.667 -4.16699 -38.834 -10.5 -54.501s-14.5 -29.5 -24.5 -41.5s-21.333 -22.5 -34 -31.5s-26 -16.833 -40 -23.5
c41.333 -20.667 73 -47.667 95 -81s32.333 -70.666 31 -111.999c-0.666992 -26.667 -6.33398 -51.334 -17.001 -74.001s-25.167 -42.167 -43.5 -58.5s-40 -29.166 -65 -38.499s-51.833 -14 -80.5 -14c-32 0 -61.833 5.5 -89.5 16.5s-51.167 26.167 -70.5 45.5
c-32 34 -47.333 74 -46 120zM120.999 176.998c-1.33301 -30.667 8.66602 -56.9971 29.999 -78.9971c14 -14.667 31.5 -26 52.5 -34s43.833 -12 68.5 -12c18 0 35.833 2.66699 53.5 8s33.667 13.333 48 24s26.166 24.167 35.499 40.5s14.333 35.833 15 58.5
c0.666992 21.333 -3 40.666 -11 57.999s-18.667 32.666 -32 45.999s-28.666 24.666 -45.999 33.999s-35 16.666 -53 21.999c-2.66699 -1.33301 -6 -2.66602 -10 -3.99902c-17.333 -8 -34.833 -16.333 -52.5 -25s-33.667 -19.167 -48 -31.5s-26.166 -27 -35.499 -44
s-14.333 -37.5 -15 -61.5zM152.998 516.001c-0.666992 -28 8.66406 -51.0039 27.9971 -69.0039s51.666 -33.333 96.999 -46l4 2c18.667 8.66699 35.667 16.834 51 24.501s28.333 16.334 39 26.001s18.834 20.334 24.501 32.001s8.83398 25.834 9.50098 42.501
c1.33301 26 -6.66699 47.667 -24 65c-11.333 12 -25.666 21.167 -42.999 27.5s-36 9.5 -56 9.5c-1.33301 0 -8.66602 -0.666992 -21.999 -2s-27.833 -5.5 -43.5 -12.5s-30.167 -18.333 -43.5 -34s-20.333 -37.5 -21 -65.5z" />
    <glyph glyph-name="nine" unicode="9" horiz-adv-x="545" 
d="M61 439c0 26 2.33398 49.3301 7.00098 69.9971s10.667 38.834 18 54.501s15.333 29.167 24 40.5s17.334 21 26.001 29c21.333 18.667 43.333 31.834 66 39.501s42.667 11.5 60 11.5s38 -2.5 62 -7.5s47.333 -15.833 70 -32.5c57.333 -42 86 -112 86 -210
c0 -42.667 -4.5 -81.834 -13.5 -117.501s-20.5 -67.667 -34.5 -96s-29.5 -53.333 -46.5 -75s-33.833 -40.5 -50.5 -56.5c-26.667 -24.667 -51.834 -44 -75.501 -58s-41.834 -24 -54.501 -30h-1c-2 -0.666992 -5 -1 -9 -1c-7.33301 0 -13.5 2.5 -18.5 7.5
s-7.5 11.167 -7.5 18.5c0 11.333 5 19.333 15 24l4 2c11.333 5.33301 27.5 14.333 48.5 27s42.5 29.667 64.5 51c46 43.333 79.667 93 101 149c-18.667 -11.333 -40.334 -21.166 -65.001 -29.499s-53 -12.5 -85 -12.5c-3.33301 0 -10.333 0.5 -21 1.5s-23.167 3.5 -37.5 7.5
s-29.166 10.167 -44.499 18.5s-29.5 20 -42.5 35s-23.833 33.833 -32.5 56.5s-13 50.334 -13 83.001zM113.001 438.997c0 -34.667 5.66797 -61.834 17.001 -81.501s24.666 -34.5 39.999 -44.5s30.833 -16.333 46.5 -19s27.5 -4 35.5 -4c23.333 0 44.5 2.83301 63.5 8.5
s35.667 12.334 50 20.001s26.333 15.5 36 23.5s16.834 14.333 21.501 19c2 12 3.33301 24 4 36s1 24.333 1 37c0 40.667 -5 73.834 -15 99.501s-23 45.667 -39 60s-33.833 24.166 -53.5 29.499s-39.167 8 -58.5 8c-10.667 0 -24.334 -2.66699 -41.001 -8s-33 -15 -49 -29
s-29.833 -33.5 -41.5 -58.5s-17.5 -57.167 -17.5 -96.5z" />
    <glyph glyph-name="colon" unicode=":" horiz-adv-x="234" 
d="M68 42c1.33301 11.333 5.83301 21 13.5 29s16.5 12 26.5 12s18.167 -4 24.5 -12s8.83301 -17.667 7.5 -29s-5.83301 -21.166 -13.5 -29.499s-16.5 -12.5 -26.5 -12.5s-18.167 4.16699 -24.5 12.5s-8.83301 18.166 -7.5 29.499zM96 400c1.33301 11.333 5.83301 21 13.5 29
s16.5 12 26.5 12s18.167 -4 24.5 -12s8.83301 -17.667 7.5 -29s-5.83301 -21.166 -13.5 -29.499s-16.5 -12.5 -26.5 -12.5s-18.167 4.16699 -24.5 12.5s-8.83301 18.166 -7.5 29.499z" />
    <glyph glyph-name="semicolon" unicode=";" horiz-adv-x="270" 
d="M89 -62l24.001 64c-8.66699 8.66699 -12.667 20 -12 34c1.33301 11.333 5.83301 21 13.5 29s16.5 12 26.5 12s18.167 -4 24.5 -12s8.83301 -17.667 7.5 -29c0 -2.66699 -0.666992 -6 -2 -10l-2 -6c-1.33301 -3.33301 -4 -10.333 -8 -21s-8.33301 -21.667 -13 -33
c-5.33301 -13.333 -11 -28 -17 -44c-2.66699 -6 -6.83398 -10.333 -12.501 -13s-11.167 -2.66699 -16.5 0c-6 2 -10.333 5.83301 -13 11.5s-2.66699 11.5 0 17.5zM136.001 400c1.33301 11.333 5.83301 21 13.5 29s16.5 12 26.5 12s18.167 -4 24.5 -12
s8.83301 -17.667 7.5 -29s-5.83301 -21.166 -13.5 -29.499s-16.5 -12.5 -26.5 -12.5s-18.167 4.16699 -24.5 12.5s-8.83301 18.166 -7.5 29.499z" />
    <glyph glyph-name="less" unicode="&#x3c;" horiz-adv-x="539" 
d="M72 248c0 10 4.33203 17.6689 12.999 23.002l338 216c6.66699 4.66699 13.667 6.16699 21 4.5s13 -5.83398 17 -12.501c4.66699 -6.66699 6.16699 -13.834 4.5 -21.501s-5.83398 -13.5 -12.501 -17.5l-302 -193l283 -187c6.66699 -4.66699 10.834 -10.667 12.501 -18
s0.166992 -14.333 -4.5 -21c-5.33301 -8.66699 -13 -13 -23 -13c-5.33301 0 -10.666 1.66699 -15.999 5l-319 211c-8 4.66699 -12 12.667 -12 24z" />
    <glyph glyph-name="equal" unicode="=" horiz-adv-x="492" 
d="M77 172c0 7.33301 2.66699 13.833 8 19.5s11.666 8.5 18.999 8.5h286c7.33301 0 13.833 -2.83301 19.5 -8.5s8.5 -12.167 8.5 -19.5s-2.83301 -13.666 -8.5 -18.999s-12.167 -8 -19.5 -8h-286c-7.33301 0 -13.666 2.66699 -18.999 8s-8 11.666 -8 18.999zM77 326
c0 7.33301 2.66699 13.833 8 19.5s11.666 8.5 18.999 8.5h286c7.33301 0 13.833 -2.83301 19.5 -8.5s8.5 -12.167 8.5 -19.5s-2.83301 -13.666 -8.5 -18.999s-12.167 -8 -19.5 -8h-286c-7.33301 0 -13.666 2.66699 -18.999 8s-8 11.666 -8 18.999z" />
    <glyph glyph-name="greater" unicode="&#x3e;" horiz-adv-x="539" 
d="M76.5 457.5c1.66699 -7.66699 5.83496 -13.498 12.502 -17.498l302 -193l-283 -187c-6.66699 -4.66699 -10.834 -10.667 -12.501 -18s-0.166992 -14.333 4.5 -21c5.33301 -8.66699 13 -13 23 -13c5.33301 0 10.666 1.66699 15.999 5l319 211c8 4.66699 12 12.667 12 24
c0 10 -4.33301 17.667 -13 23l-338 216c-6.66699 4.66699 -13.667 6.16699 -21 4.5s-13 -5.83398 -17 -12.501c-4.66699 -6.66699 -6.16699 -13.834 -4.5 -21.501z" />
    <glyph glyph-name="question" unicode="?" horiz-adv-x="532" 
d="M62 593c-3.33301 10.667 -1.66504 19.6699 5.00195 27.0029c8 9.33301 17.5 19.333 28.5 30s24 20.5 39 29.5s31.667 16.5 50 22.5s38.5 9 60.5 9c32.667 0 62.667 -5 90 -15s50.666 -24 69.999 -42s34.333 -39.667 45 -65s16 -53.333 16 -84
c0 -27.333 -4.5 -52.166 -13.5 -74.499s-20.333 -42.333 -34 -60s-28.334 -33.334 -44.001 -47.001s-29.834 -25.834 -42.501 -36.501c-5.33301 -4.66699 -12.666 -11 -21.999 -19s-19.333 -16.833 -30 -26.5s-21.5 -19.5 -32.5 -29.5s-21.167 -19 -30.5 -27l-2 -2
c-5.33301 -5.33301 -11.666 -8 -18.999 -8s-13.666 2.66699 -18.999 8s-8 11.666 -8 18.999c0 8 3.33301 14.667 10 20l2 2l2 2c8.66699 7.33301 18 15.5 28 24.5s20.333 18.167 31 27.5s20.834 18.5 30.501 27.5s18.5 17.167 26.5 24.5c12 10.667 24.667 21.834 38 33.501
s25.666 24.5 36.999 38.5s20.666 29.5 27.999 46.5s11 35.833 11 56.5c0 18 -3 36.167 -9 54.5s-15.5 34.666 -28.5 48.999s-30.333 26 -52 35s-47.834 13.5 -78.501 13.5c-17.333 0 -33.166 -2.5 -47.499 -7.5s-27.333 -11.333 -39 -19s-21.834 -15.834 -30.501 -24.501
s-16 -16.667 -22 -24h-1c-1.33301 -1.33301 -4.33301 -3.33301 -9 -6c-7.33301 -2 -14.333 -1.5 -21 1.5s-11 8.16699 -13 15.5zM130.001 41.0029c1.33301 11.333 5.83301 21.166 13.5 29.499s16.5 12.5 26.5 12.5s18.167 -4.16699 24.5 -12.5s8.83301 -18.166 7.5 -29.499
s-5.83301 -21 -13.5 -29s-16.5 -12 -26.5 -12s-18.167 4 -24.5 12s-8.83301 17.667 -7.5 29z" />
    <glyph glyph-name="at" unicode="@" horiz-adv-x="827" 
d="M68 253c0 34.667 3.50293 66.1611 10.5029 94.4941s16.167 53.666 27.5 75.999s23.833 41.833 37.5 58.5s27.167 31 40.5 43c32.667 30 70.5 53 113.5 69s87.5 24 133.5 24c44.667 0 87 -7.66699 127 -23s75.333 -37.666 106 -66.999
c32.667 -30.667 57.667 -66.667 75 -108s26 -86 26 -134c0 -66 -17.667 -115.667 -53 -149c-11.333 -10.667 -23 -18.834 -35 -24.501s-23.167 -9.83398 -33.5 -12.501s-19 -4.16699 -26 -4.5s-11.5 -0.5 -13.5 -0.5c-1.33301 0 -6.66602 0.5 -15.999 1.5
s-20.333 3.33301 -33 7s-25.667 9.33398 -39 17.001s-25 18.5 -35 32.5c-6 8 -11 17 -15 27c-14 -18.667 -30.833 -35.167 -50.5 -49.5s-41.834 -21.5 -66.501 -21.5c-26 0 -46.333 5.33301 -61 16s-25.667 21.667 -33 33c-9.33301 15.333 -15.333 30.666 -18 45.999
s-4 26.666 -4 33.999c0 18.667 2.5 36.834 7.5 54.501s12 34.167 21 49.5s19.667 29 32 41s26.166 22 41.499 30c25.333 13.333 51.833 18.833 79.5 16.5s54.5 -11.833 80.5 -28.5l10 -6c8 -6 12 -13.333 12 -22c0 -7.33301 -2.83301 -13.666 -8.5 -18.999
s-12.167 -8 -19.5 -8c-5.33301 0 -10.333 1.33301 -15 4l-5 4c-36.667 24.667 -73.334 28.334 -110.001 11.001c-21.333 -11.333 -38.666 -28.5 -51.999 -51.5s-20 -48.167 -20 -75.5c0 -4.66699 0.5 -11.167 1.5 -19.5s3.66699 -16.666 8 -24.999
s10.666 -15.666 18.999 -21.999s19.5 -9.5 33.5 -9.5s27.333 5 40 15s24.167 22 34.5 36s19.333 28.167 27 42.5s13.167 25.5 16.5 33.5l1 1c4.66699 10.667 13 16 25 16c7.33301 0 13.5 -2.66699 18.5 -8s7.5 -11.666 7.5 -18.999
c0 -3.33301 -0.333008 -5.66602 -1 -6.99902v-1c-11.333 -37.333 -9.33301 -66 6 -86c6 -8.66699 13.667 -15.334 23 -20.001s18.333 -8.16699 27 -10.5s16.334 -3.83301 23.001 -4.5l9 -1h7c4.66699 0 10.334 0.833008 17.001 2.5s14 4.33398 22 8.00098
s15.667 9.16699 23 16.5c24 22.667 36 59.334 36 110.001c0 34.667 -6 68.667 -18 102s-29.667 63 -53 89s-52.5 47 -87.5 63s-75.5 24 -121.5 24c-38.667 0 -76.5 -6.66699 -113.5 -20s-70 -33 -99 -59s-52.333 -58.5 -70 -97.5s-26.5 -83.833 -26.5 -134.5
c0 -48 9.66699 -90.333 29 -127s43.833 -67.334 73.5 -92.001s62.167 -43.334 97.5 -56.001s68.666 -19 99.999 -19c20.667 0 40.334 1.83301 59.001 5.5s35.667 8.33398 51 14.001s29.166 11.667 41.499 18s22.833 12.5 31.5 18.5l5 4c5.33301 3.33301 10.666 5 15.999 5
c7.33301 0 13.666 -2.66699 18.999 -8s8 -11.666 8 -18.999c0 -8.66699 -3.33301 -15.667 -10 -21l-7 -5c-10 -7.33301 -22.167 -14.666 -36.5 -21.999s-30.5 -14.333 -48.5 -21s-37.833 -12 -59.5 -16s-44.834 -6 -69.501 -6c-40.667 0 -81.667 7.83301 -123 23.5
s-78.666 37.5 -111.999 65.5c-38.667 32.667 -68.167 71.167 -88.5 115.5s-30.5 91.833 -30.5 142.5z" />
    <glyph glyph-name="A" unicode="A" horiz-adv-x="623" 
d="M52 39l59.998 153l-14 -3c-1.33301 -0.666992 -3.33301 -1 -6 -1c-15.333 0 -24.666 7.33301 -27.999 22c-2 8 -0.833008 15.333 3.5 22s10.166 10.667 17.499 12l52 12l163 415c5.33301 12 14.666 18 27.999 18c12.667 0 21.334 -6.33301 26.001 -19l218 -633
c0.666992 -3.33301 1 -6.33301 1 -9c0 -4 -1 -8 -3 -12c-3.33301 -7.33301 -8.66602 -12.666 -15.999 -15.999c-2 -0.666992 -5 -1 -9 -1c-6 0 -11.5 1.66699 -16.5 5s-8.5 8 -10.5 14l-84 244l-255 -56l-74 -188c-2.66699 -7.33301 -7.5 -12.666 -14.5 -15.999
s-14.167 -3.33301 -21.5 0s-12.666 8.66602 -15.999 15.999c-2 4 -3 7.66699 -3 11s0.666992 6.66602 2 9.99902zM203.998 270l211 46l-90 262z" />
    <glyph glyph-name="B" unicode="B" horiz-adv-x="602" 
d="M65 27l-0.00195312 625.998c0 7.33301 2.83301 13.833 8.5 19.5s12.167 8.5 19.5 8.5h182c76 0 133 -19.667 171 -59c12 -12 21.167 -24.167 27.5 -36.5s11 -23.666 14 -33.999s4.83301 -19 5.5 -26s1 -11.167 1 -12.5c0 -37.333 -7.33301 -67.333 -22 -90
s-30.667 -40.334 -48 -53.001c2.66699 -1.33301 5 -2.16602 7 -2.49902s4 -1.16602 6 -2.49902c34 -13.333 60.333 -31.333 79 -54c24.667 -28.667 37 -64.334 37 -107.001s-15.667 -79 -47 -109c-48.667 -46.667 -133 -76.667 -253 -90
c-25.333 -3.33301 -49.166 -5.33301 -71.499 -6s-40.833 -1 -55.5 -1h-34c-7.33301 0.666992 -13.666 3.83398 -18.999 9.50098s-8 12.167 -8 19.5zM121.998 53.998c14 0 31.999 0.333008 53.999 1s46 2.66699 72 6c52 6 96.667 15.167 134 27.5
s65.666 28.166 84.999 47.499c20 18.667 30 41.334 30 68.001c0 28 -8 51.667 -24 71c-13.333 15.333 -32.333 28 -57 38c-10.667 4 -21.167 7.16699 -31.5 9.5s-19.666 4 -27.999 5s-15.166 1.83301 -20.499 2.5h-8h-206v-276zM121.997 386.998l196 -0.000976562
c14.667 0 27.667 2.33301 39 7s21.333 10.167 30 16.5s15.667 12.833 21 19.5l12 15c12 18.667 18 41.334 18 68.001c0 0.666992 -1 6.83398 -3 18.501s-8 24.167 -18 37.5c-10.667 15.333 -25.667 27.666 -45 36.999c-26 12 -58.333 18 -97 18h-153v-237z" />
    <glyph glyph-name="C" unicode="C" horiz-adv-x="631" 
d="M50 296c0 49.333 8.99902 97.9951 26.999 145.995c16.667 45.333 39.334 86.333 68.001 123c13.333 17.333 28 33.333 44 48s32.333 27.334 49 38.001c36 22 72 33 108 33c34.667 0 63.834 -4.16699 87.501 -12.5s43.167 -17.5 58.5 -27.5c4.66699 10 13 15 25 15
c8 0 14.667 -2.66699 20 -8s8 -12 8 -20v-64c0 -8 -2.66699 -14.833 -8 -20.5s-12 -8.5 -20 -8.5s-14.833 2.83301 -20.5 8.5s-8.5 12.5 -8.5 20.5v5c-5.33301 5.33301 -11.666 11.166 -18.999 17.499s-16.5 12.333 -27.5 18s-24.333 10.334 -40 14.001
s-34.167 5.5 -55.5 5.5c-25.333 0 -51.333 -8.33301 -78 -25c-28.667 -17.333 -54.667 -41.333 -78 -72c-26.667 -34 -47.167 -71.167 -61.5 -111.5s-21.5 -81.166 -21.5 -122.499c0 -23.333 2.33301 -44.166 7 -62.499s10.667 -34.833 18 -49.5s15.5 -27.5 24.5 -38.5
s17.833 -20.5 26.5 -28.5c21.333 -19.333 45.5 -34.5 72.5 -45.5s54.5 -16.5 82.5 -16.5c46.667 0 88 11 124 33c9.33301 5.33301 20.166 13 32.499 23s24.166 23 35.499 39c4.66699 6.66699 10.834 10.5 18.501 11.5s14.834 -0.833008 21.501 -5.5
c6 -5.33301 9.66699 -11.666 11 -18.999c0 -1.33301 0.333008 -2.66602 1 -3.99902c0 -6 -2 -11.667 -6 -17c-22.667 -30.667 -50.667 -56.334 -84 -77.001c-46.667 -27.333 -98 -41 -154 -41c-34.667 0 -68.834 6.66699 -102.501 20s-63.834 32 -90.501 56
c-30 28 -52.667 59.333 -68 94c-18 38.667 -27 81.334 -27 128.001z" />
    <glyph glyph-name="D" unicode="D" horiz-adv-x="619" 
d="M65 25l-0.00292969 627.999c0 8 2.83301 14.667 8.5 20s12.5 8 20.5 8c20.667 0 43.334 -1 68.001 -3s50.167 -5.5 76.5 -10.5s52.833 -12.167 79.5 -21.5s52.334 -21.333 77.001 -36c50.667 -30 90.334 -69 119.001 -117c30.667 -53.333 46 -117.666 46 -192.999
c0 -73.333 -16 -134.333 -48 -183c-28 -42 -65.333 -74.333 -112 -97c-18.667 -9.33301 -43.667 -18.333 -75 -27s-69.333 -13 -114 -13h-1c-14.667 0 -29.334 0.833008 -44.001 2.5s-27.667 3.66699 -39 6s-20.666 4.33301 -27.999 6s-11.333 2.5 -12 2.5
c-14.667 4.66699 -22 14 -22 28zM121.997 47.999c11.333 -2.66699 24.835 -5.16602 40.502 -7.49902s31.5 -3.5 47.5 -3.5h1c39.333 0 72.666 3.83301 99.999 11.5s48.666 15.167 63.999 22.5c39.333 19.333 69 45 89 77c26 40 39 90.667 39 152c0 64 -13 118.667 -39 164
c-22.667 40 -55.334 72.333 -98.001 97c-22.667 13.333 -53.667 26.666 -93 39.999s-89.666 21 -150.999 23v-576z" />
    <glyph glyph-name="E" unicode="E" horiz-adv-x="609" 
d="M65 29v625c0 8 2.83301 14.667 8.5 20s12.5 8 20.5 8h428c8 0 14.667 -2.66699 20 -8s8 -12 8 -20s-2.66699 -14.833 -8 -20.5s-12 -8.5 -20 -8.5h-400v-244h351c8 0 14.667 -2.66699 20 -8s8 -12 8 -20s-2.66699 -14.833 -8 -20.5s-12 -8.5 -20 -8.5h-351v-267h398
c8 0 14.667 -2.66699 20 -8s8 -12 8 -20s-2.66699 -14.833 -8 -20.5s-12 -8.5 -20 -8.5h-426c-8 0 -14.833 2.83301 -20.5 8.5s-8.5 12.5 -8.5 20.5z" />
    <glyph glyph-name="F" unicode="F" horiz-adv-x="544" 
d="M60 28v624c0 8 2.83301 14.833 8.5 20.5s12.5 8.5 20.5 8.5h428c8 0 14.667 -2.83301 20 -8.5s8 -12.5 8 -20.5c0 -7.33301 -2.66699 -13.833 -8 -19.5s-12 -8.5 -20 -8.5h-400v-244h311c8 0 14.667 -2.83301 20 -8.5s8 -12.5 8 -20.5
c0 -7.33301 -2.66699 -13.833 -8 -19.5s-12 -8.5 -20 -8.5h-311v-295c0 -8 -2.66699 -14.833 -8 -20.5s-12 -8.5 -20 -8.5s-14.833 2.83301 -20.5 8.5s-8.5 12.5 -8.5 20.5z" />
    <glyph glyph-name="G" unicode="G" horiz-adv-x="750" 
d="M60 331c0 32.667 5.6709 67.6631 17.0039 104.996c6.66699 20.667 14.5 40.667 23.5 60s19.167 37.333 30.5 54c10 15.333 22.5 30.833 37.5 46.5s32.667 30 53 43s43.333 23.5 69 31.5s54.5 12 86.5 12c44.667 0 82.667 -6.66699 114 -20s57.333 -29.166 78 -47.499
s36.5 -37.5 47.5 -57.5s18.833 -36.667 23.5 -50c3.33301 -7.33301 3.16602 -14.5 -0.500977 -21.5s-9.16699 -11.833 -16.5 -14.5c-7.33301 -3.33301 -14.5 -3.33301 -21.5 0s-11.833 8.66602 -14.5 15.999c-4.66699 12 -11.5 25.833 -20.5 41.5s-21.5 30.5 -37.5 44.5
c-37.333 34.667 -88 52 -152 52c-44.667 0 -84.334 -10.333 -119.001 -31c-31.333 -18 -58 -43.667 -80 -77c-22.667 -32.667 -38.5 -66.167 -47.5 -100.5s-13.5 -63.166 -13.5 -86.499s4.16699 -51 12.5 -83s22.5 -63 42.5 -93c21.333 -30.667 46.333 -54.334 75 -71.001
c34 -18.667 72 -28 114 -28c71.333 0 128.666 23.667 171.999 71c19.333 21.333 33.166 42.333 41.499 63s13.833 36.667 16.5 48c-6.66699 0.666992 -13.334 1.16699 -20.001 1.5s-13.667 0.166016 -21 -0.500977c-30.667 -1.33301 -56.5 -4.33301 -77.5 -9
s-31.833 -7.33398 -32.5 -8.00098c-1.33301 0 -2.66602 -0.166992 -3.99902 -0.5s-2.66602 -0.5 -3.99902 -0.5c-6 0 -11.5 1.83301 -16.5 5.5s-8.5 8.83398 -10.5 15.501c-2 7.33301 -1.16699 14.333 2.5 21s9.16699 11.334 16.5 14.001c0.666992 0 4.16699 1 10.5 3
s15 4 26 6s23.833 4 38.5 6s30.667 3.33301 48 4h18c28 0 51.667 -2.33301 71 -7c22.667 -6 34.667 -9.33301 36 -10c7.33301 -2.66699 12.666 -7.33398 15.999 -14.001c2 -4 3 -8.33301 3 -13c0 -2.66699 -0.666992 -5.66699 -2 -9
c-3.33301 -7.33301 -8.5 -12.666 -15.5 -15.999s-14.167 -3.66602 -21.5 -0.999023c0 0.666992 -0.333008 1 -1 1c-2 0 -3.33301 0.333008 -4 1c-1.33301 -6.66699 -3.66602 -15.167 -6.99902 -25.5s-7.83301 -21.666 -13.5 -33.999s-12.667 -25.333 -21 -39
s-18.5 -27.167 -30.5 -40.5c-26 -28 -55 -49.333 -87 -64c-38.667 -17.333 -81 -26 -127 -26c-31.333 0 -59.333 3.83301 -84 11.5s-46.667 17.334 -66 29.001s-36 24.834 -50 39.501s-25.667 29 -35 43c-22.667 32.667 -39.334 68.667 -50.001 108
c-5.33301 17.333 -9.33301 34.5 -12 51.5s-4 33.5 -4 49.5z" />
    <glyph glyph-name="H" unicode="H" horiz-adv-x="684" 
d="M65 28v625c0 8 2.66699 14.667 8 20s12 8 20 8s14.833 -2.66699 20.5 -8s8.5 -12 8.5 -20v-307l441 61v246c0 8 2.83301 14.667 8.5 20s12.5 8 20.5 8c7.33301 0 13.833 -2.66699 19.5 -8s8.5 -12 8.5 -20v-625c0 -7.33301 -2.83301 -13.833 -8.5 -19.5
s-12.167 -8.5 -19.5 -8.5c-8 0 -14.833 2.83301 -20.5 8.5s-8.5 12.167 -8.5 19.5v321l-441 -61v-260c0 -7.33301 -2.83301 -13.833 -8.5 -19.5s-12.5 -8.5 -20.5 -8.5s-14.667 2.83301 -20 8.5s-8 12.167 -8 19.5z" />
    <glyph glyph-name="I" unicode="I" horiz-adv-x="432" 
d="M60 28c0 8 2.83301 14.667 8.5 20s12.5 8 20.5 8h100v568h-100c-8 0 -14.833 2.83301 -20.5 8.5s-8.5 12.5 -8.5 20.5s2.83301 14.667 8.5 20s12.5 8 20.5 8h256c8 0 14.667 -2.66699 20 -8s8 -12 8 -20s-2.66699 -14.833 -8 -20.5s-12 -8.5 -20 -8.5h-99v-568h99
c8 0 14.667 -2.66699 20 -8s8 -12 8 -20s-2.66699 -14.833 -8 -20.5s-12 -8.5 -20 -8.5h-256c-8 0 -14.833 2.83301 -20.5 8.5s-8.5 12.5 -8.5 20.5z" />
    <glyph glyph-name="J" unicode="J" horiz-adv-x="471" 
d="M50 169l0.000976562 1.99902c0 8 2.83301 14.833 8.5 20.5s12.5 8.5 20.5 8.5s14.667 -2.83301 20 -8.5s8 -12.5 8 -20.5v-1c-0.666992 -10 0.333008 -19.667 3 -29c2 -8 5 -16.667 9 -26s10 -18 18 -26c19.333 -21.333 49 -32 89 -32h2c26 0 46.5 3.83301 61.5 11.5
s26.333 17 34 28s12.667 22.167 15 33.5s3.5 21 3.5 29v461h-123c-8 0 -14.833 2.83301 -20.5 8.5s-8.5 12.5 -8.5 20.5c0 7.33301 2.83301 13.833 8.5 19.5s12.5 8.5 20.5 8.5h205c7.33301 0 13.833 -2.83301 19.5 -8.5s8.5 -12.167 8.5 -19.5
c0 -8 -2.83301 -14.833 -8.5 -20.5s-12.167 -8.5 -19.5 -8.5h-25v-461c0 -18 -3 -36.5 -9 -55.5s-15.833 -36.167 -29.5 -51.5s-31.334 -27.833 -53.001 -37.5s-48.167 -14.5 -79.5 -14.5c-56.667 0 -100.667 16.667 -132 50c-10.667 10.667 -19.167 22.334 -25.5 35.001
s-11 24.5 -14 35.5s-4.83301 20.833 -5.5 29.5s-1 15 -1 19z" />
    <glyph glyph-name="K" unicode="K" horiz-adv-x="569" 
d="M65 28l0.00195312 625.998c0 7.33301 2.66699 13.666 8 18.999s11.666 8 18.999 8s13.833 -2.66699 19.5 -8s8.5 -11.666 8.5 -18.999v-265l334 286c4.66699 4.66699 10.667 7 18 7h2c8 -0.666992 14 -4 18 -10c5.33301 -5.33301 7.66602 -11.833 6.99902 -19.5
s-3.66699 -14.167 -9 -19.5l-349 -298l368 -286c6 -5.33301 9.66699 -11.666 11 -18.999v-4c0 -5.33301 -2 -10.666 -6 -15.999c-4.66699 -7.33301 -11.667 -11 -21 -11h-1c-6.66699 0 -12.334 2 -17.001 6l-355 277v-254c0 -7.33301 -2.83301 -13.833 -8.5 -19.5
s-12.167 -8.5 -19.5 -8.5s-13.666 2.83301 -18.999 8.5s-8 12.167 -8 19.5z" />
    <glyph glyph-name="L" unicode="L" horiz-adv-x="516" 
d="M65 28l-0.00195312 624.999c0 7.33301 2.66699 13.833 8 19.5s12 8.5 20 8.5c7.33301 0 13.833 -2.83301 19.5 -8.5s8.5 -12.167 8.5 -19.5v-595l315 22c8 0.666992 14.833 -1.5 20.5 -6.5s8.83398 -11.5 9.50098 -19.5v-2c0 -6.66699 -2.33301 -12.667 -7 -18
c-4.66699 -6 -11 -9.33301 -19 -10l-345 -24h-2c-7.33301 0 -13.666 2.66699 -18.999 8c-6 4.66699 -9 11.334 -9 20.001z" />
    <glyph glyph-name="M" unicode="M" horiz-adv-x="856" 
d="M51 34l137.001 625.001c3.33301 14.667 12 22 26 22h3c5.33301 0 10 -1.33301 14 -4c5.33301 -4 9 -9 11 -15l173 -547l198 548c1.33301 5.33301 4.66602 10 9.99902 14c4 3.33301 9 4.66602 15 3.99902h3c6 -0.666992 11.333 -2.83398 16 -6.50098
s7.66699 -8.83398 9 -15.501l140 -625c0 -2 0.333008 -3.66699 1 -5c0 -5.33301 -1.66699 -10.666 -5 -15.999c-4 -6.66699 -9.66699 -10.667 -17 -12s-14.333 0 -21 4s-11 9.66699 -13 17l-118 531l-193 -535c-4.66699 -12 -13.667 -18 -27 -18
c-6 0 -11.5 1.83301 -16.5 5.5s-8.16699 8.16699 -9.5 13.5l-167 526l-115 -523c-1.33301 -7.33301 -5.33301 -13 -12 -17s-13.667 -5.33301 -21 -4s-13.333 5.33301 -18 12c-2.66699 4.66699 -4 9.33398 -4 14.001c0 2.66699 0.333008 5 1 7z" />
    <glyph glyph-name="N" unicode="N" horiz-adv-x="618" 
d="M65 28l1.00098 625.001c0 13.333 6.66699 22.333 20 27c5.33301 1.33301 11 1.16602 17 -0.500977s10.667 -5.16699 14 -10.5l381 -552v537c0 7.33301 2.66699 13.833 8 19.5s12 8.5 20 8.5c7.33301 0 13.833 -2.83301 19.5 -8.5s8.5 -12.167 8.5 -19.5v-626
c0 -13.333 -6.66699 -22.333 -20 -27c-2 -0.666992 -4.66699 -1 -8 -1c-10.667 0 -18.334 4 -23.001 12l-381 551l-1 -535c0 -8 -2.66699 -14.667 -8 -20s-12 -8 -20 -8c-7.33301 0 -13.833 2.83301 -19.5 8.5s-8.5 12.167 -8.5 19.5z" />
    <glyph glyph-name="O" unicode="O" horiz-adv-x="659" 
d="M61 342c2.66699 46.667 12.499 90.666 29.499 131.999s38.5 77.333 64.5 108s55.833 55 89.5 73s69.167 27 106.5 27c30 0 59 -6.33301 87 -19s53.333 -30.667 76 -54c30.667 -32.667 53.334 -72.667 68.001 -120c12 -38 18 -78.667 18 -122
c0 -9.33301 -0.333008 -19 -1 -29c-3.33301 -46.667 -13.333 -90.667 -30 -132s-38 -77.333 -64 -108s-56 -55 -90 -73s-69.333 -27 -106 -27c-30 0 -59 6.33301 -87 19s-53 30.667 -75 54c-31.333 33.333 -54.333 73.333 -69 120c-12 38.667 -18 79.334 -18 122.001
c0 9.33301 0.333008 19 1 29zM113.999 337.999c-0.666992 -9.33301 -1.00098 -18.332 -1.00098 -26.999c0 -36 5 -70.667 15 -104c13.333 -41.333 32.666 -75.333 57.999 -102c34.667 -36.667 75.667 -55 123 -55c30 0 58.667 7.66699 86 23s51.833 36.166 73.5 62.499
s39.334 57.333 53.001 93s21.834 73.5 24.501 113.5v20c0 14.667 -1 29.334 -3 44.001c-2.66699 21.333 -7.33398 42.333 -14.001 63s-15.167 40 -25.5 58s-22.166 34 -35.499 48c-35.333 36.667 -76.666 55 -123.999 55c-29.333 0 -57.333 -7.5 -84 -22.5
s-50.334 -35.667 -71.001 -62s-37.667 -57.333 -51 -93s-21.333 -73.834 -24 -114.501z" />
    <glyph glyph-name="P" unicode="P" horiz-adv-x="546" 
d="M65 28l-0.000976562 622.998c0 7.33301 2.5 13.5 7.5 18.5s11.167 8.16699 18.5 9.5c0.666992 0 4.83398 0.333008 12.501 1s17.834 1.33398 30.501 2.00098h20h24c16.667 0 34.667 -1 54 -3c106 -8 183 -34 231 -78c36 -33.333 54 -74.666 54 -123.999
c0 -17.333 -2.83301 -35.833 -8.5 -55.5s-16 -39 -31 -58s-36.167 -37 -63.5 -54s-62.333 -31.5 -105 -43.5c-20.667 -6 -40.834 -10.667 -60.501 -14s-38 -6 -55 -8s-31.833 -3.33301 -44.5 -4s-22 -1 -28 -1v-211c0 -8 -2.66699 -14.667 -8 -20s-12 -8 -20 -8
c-7.33301 0 -13.833 2.66699 -19.5 8s-8.5 12 -8.5 20zM120.999 294.998c6 0 15 0.333008 27 1s25.833 1.83398 41.5 3.50098s32.5 4.16699 50.5 7.5s36.333 7.66602 55 12.999c50.667 14 90 33 118 57c32 26.667 48 60 48 100c0 33.333 -12 61 -36 83
c-39.333 34.667 -105.333 55.667 -198 63c-21.333 2 -41.333 3 -60 3s-34 -0.333008 -46 -1v-330z" />
    <glyph glyph-name="Q" unicode="Q" horiz-adv-x="713" 
d="M52 341c3.33301 46.667 14.4971 90.666 33.4971 131.999s43.333 77.333 73 108s63.5 54.834 101.5 72.501s78 26.5 120 26.5c34 0 66.833 -6.33301 98.5 -19s60.167 -30.667 85.5 -54c34.667 -33.333 60.667 -73.333 78 -120c14 -38 20.667 -78.333 20 -121
c0 -9.33301 -0.333008 -19 -1 -29c-3.33301 -48 -14.833 -92.833 -34.5 -134.5s-45.167 -78.167 -76.5 -109.5l101 -66c6.66699 -4.66699 10.667 -10.667 12 -18c0 -2 0.333008 -4 1 -6c0 -5.33301 -1.66699 -10.333 -5 -15c-5.33301 -8 -13 -12 -23 -12h-1
c-5.33301 0 -10.333 1.33301 -15 4l-114 76c-25.333 -18.667 -52.666 -33 -81.999 -43s-59.666 -15 -90.999 -15c-34.667 0 -67.667 6.33301 -99 19s-59.666 30.667 -84.999 54c-35.333 33.333 -61.333 73.333 -78 120c-13.333 38 -20 78 -20 120c0 10 0.333008 20 1 30z
M111.997 336.999c-0.666992 -8.66699 -0.99707 -17 -0.99707 -25c0 -36.667 6 -71.334 18 -104.001c14.667 -41.333 36 -75 64 -101c40 -36.667 86.667 -55 140 -55c42.667 0 83.667 12.333 123 37l-79 52c-6.66699 4 -10.834 9.83301 -12.501 17.5
s-0.166992 14.834 4.5 21.501c4 6.66699 9.66699 10.667 17 12s14.333 0 21 -4l95 -63c27.333 26.667 49.666 58.5 66.999 95.5s27.666 77.167 30.999 120.5c0.666992 7.33301 1 14.333 1 21c0 35.333 -6.66699 70.333 -20 105c-16 41.333 -39 76 -69 104
c-40 36.667 -86.667 55 -140 55c-33.333 0 -65 -7.5 -95 -22.5s-56.667 -35.5 -80 -61.5s-42.5 -56.5 -57.5 -91.5s-24.167 -72.833 -27.5 -113.5z" />
    <glyph glyph-name="R" unicode="R" horiz-adv-x="596" 
d="M65 28l-0.00878906 629.001c0 7.33301 2.33301 13.5 7 18.5s10.667 7.83301 18 8.5c0.666992 0 4.83398 0.333008 12.501 1s17.834 1.33398 30.501 2.00098s27.334 1 44.001 1s34.667 -0.666992 54 -2c106.667 -8 184.334 -34 233.001 -78c38 -34 57 -77.333 57 -130
c0 -50 -19.333 -93.333 -58 -130c-29.333 -28 -70.666 -51.333 -123.999 -70c-1.33301 -0.666992 -2.33301 -1 -3 -1s-1.66699 -0.333008 -3 -1c13.333 -7.33301 26 -16.333 38 -27c25.333 -19.333 53.833 -46 85.5 -80s60.5 -76.667 86.5 -128
c2 -4.66699 3 -9.33398 3 -14.001c0 -2.66699 -0.333008 -5.33398 -1 -8.00098c-2 -7.33301 -6.66699 -12.666 -14 -15.999c-4 -2 -8.33301 -3 -13 -3c-11.333 0 -19.666 5.33301 -24.999 16c-14.667 28.667 -30.667 54.667 -48 78s-34.666 44 -51.999 62
s-34.166 33.167 -50.499 45.5s-31.166 22.5 -44.499 30.5c-11.333 7.33301 -26.333 12.666 -45 15.999c-10.667 2 -21.667 3 -33 3c-9.33301 0 -19.333 -0.666992 -30 -2c-14 -2 -27 -3.5 -39 -4.5s-22 -2.16699 -30 -3.5v-213c0 -8 -2.83301 -14.667 -8.5 -20
s-12.167 -8 -19.5 -8c-8 0 -14.667 2.66699 -20 8s-8 12 -8 20zM120.991 297.001c11.333 0 24.8301 0.666992 40.4971 2s32.334 3.33301 50.001 6s35.834 6.16699 54.501 10.5s37 9.5 55 15.5c44 14.667 78.667 33.667 104 57c26.667 26 40 56 40 90c0 36 -13 65.667 -39 89
c-19.333 17.333 -45.666 31.333 -78.999 42s-73 17.667 -119 21c-22 1.33301 -42.333 2 -61 2s-34 -0.333008 -46 -1v-334z" />
    <glyph glyph-name="S" unicode="S" horiz-adv-x="597" 
d="M60 156c0 8 2.8291 14.9941 8.49609 20.9941s12.834 9 21.501 9c15.333 0 25.333 -7.66699 30 -23c6.66699 -19.333 16.667 -35.833 30 -49.5s28.333 -25 45 -34s34.334 -15.667 53.001 -20s37 -6.5 55 -6.5l13 1c8.66699 0.666992 19.167 2.16699 31.5 4.5
s25.666 6.33301 39.999 12s27.833 13.667 40.5 24s23.334 23.166 32.001 38.499s13.334 34.333 14.001 57c0 6.66699 -0.666992 15.667 -2 27s-7.16602 23.333 -17.499 36s-27 25.834 -50 39.501s-56.167 26.5 -99.5 38.5c-25.333 6.66699 -50.833 15.334 -76.5 26.001
s-48.667 23.667 -69 39s-36.5 33.333 -48.5 54c-10 17.333 -15 37 -15 59v13c2.66699 32.667 11.5 59.5 26.5 80.5s33.5 37.333 55.5 49s46.167 19.667 72.5 24s51.833 6.5 76.5 6.5l18 -1c10.667 0 23.167 -1 37.5 -3s29 -5.16699 44 -9.5s29.667 -10.666 44 -18.999
s26.833 -19.166 37.5 -32.499c15.333 -18 24 -41 26 -69v-1v-1v-1c0 -7.33301 -2.66699 -13.666 -8 -18.999s-11.666 -8 -18.999 -8s-13.333 2.33301 -18 7s-7.66699 10.334 -9 17.001c-3.33301 17.333 -9.33301 31.333 -18 42s-19.667 19 -33 25s-26.5 10.667 -39.5 14
s-24.667 5.66602 -35 6.99902s-16.833 2 -19.5 2h-3c-36.667 0 -66.167 -3.83301 -88.5 -11.5s-39.5 -17.167 -51.5 -28.5s-20.333 -24 -25 -38s-7.33398 -27.333 -8.00098 -40v-1v-7c0 -50 53 -89.333 159 -118c76 -22 132 -49.333 168 -82
c34 -31.333 51 -69.666 51 -114.999v-7c-3.33301 -64 -33.333 -112.333 -90 -145c-24.667 -14.667 -50 -24.834 -76 -30.501s-48.333 -8.5 -67 -8.5c-28 0 -54.833 3.33301 -80.5 10s-49 16.334 -70 29.001s-39.333 27.834 -55 45.501s-27.5 37.167 -35.5 58.5
c-2 4 -3 8.33301 -3 13z" />
    <glyph glyph-name="T" unicode="T" horiz-adv-x="521" 
d="M0 653c0 8 2.83301 14.667 8.5 20s12.167 8 19.5 8h466c8 0 14.667 -2.66699 20 -8s8 -12 8 -20c0 -7.33301 -2.66699 -13.833 -8 -19.5s-12 -8.5 -20 -8.5h-212v-597c0 -7.33301 -2.66699 -13.833 -8 -19.5s-12 -8.5 -20 -8.5c-7.33301 0 -13.833 2.83301 -19.5 8.5
s-8.5 12.167 -8.5 19.5v597h-198c-7.33301 0 -13.833 2.83301 -19.5 8.5s-8.5 12.167 -8.5 19.5z" />
    <glyph glyph-name="U" unicode="U" horiz-adv-x="682" 
d="M65 472l-0.00195312 51.999v50c0 32.667 0.666992 59 2 79c0 7.33301 2.66699 13.833 8 19.5s12 8.5 20 8.5c7.33301 0 13.833 -2.66699 19.5 -8s8.5 -12 8.5 -20c-0.666992 -19.333 -1 -45 -1 -77v-49.5v-51.5c0 -36 0.5 -71.5 1.5 -106.5s3.16699 -65.5 6.5 -91.5
c4 -34.667 11.5 -66 22.5 -94s25.167 -52 42.5 -72s37.5 -35.333 60.5 -46s48.167 -16 75.5 -16h20c27.333 0 52.5 5.33301 75.5 16s43.167 26 60.5 46s31.5 44 42.5 72s18.5 59.333 22.5 94c2.66699 26 4.66699 56.333 6 91s2.33301 69.667 3 105v51.5v48.5
c0 32 -0.333008 58 -1 78v2c0 7.33301 2.66699 13.833 8 19.5s12 8.5 20 8.5c7.33301 0 13.666 -2.66699 18.999 -8s8.33301 -11.666 9 -18.999v-1c0.666992 -20 1.33398 -46.333 2.00098 -79v-49.5v-52.5c0 -36 -0.833008 -71.833 -2.5 -107.5s-4.16699 -67.167 -7.5 -94.5
c-4.66699 -41.333 -14.167 -78.666 -28.5 -111.999s-32.5 -61.666 -54.5 -84.999s-47.833 -41.333 -77.5 -54s-61.834 -19 -96.501 -19h-20c-34.667 0 -66.667 6.33301 -96 19s-55.166 30.667 -77.499 54s-40.666 51.666 -54.999 84.999s-23.833 70.666 -28.5 111.999
c-3.33301 27.333 -5.66602 58.833 -6.99902 94.5s-2 71.5 -2 107.5z" />
    <glyph glyph-name="V" unicode="V" horiz-adv-x="534" 
d="M12 643c-0.666992 2.66699 -0.998047 5.33203 -0.998047 7.99902c0 4.66699 1 9.33398 3 14.001c3.33301 6.66699 8.66602 11.334 15.999 14.001c2.66699 0.666992 5.66699 1.33398 9 2.00098c4.66699 0 9 -1 13 -3c7.33301 -4 12 -9.66699 14 -17l186 -551l218 553
c2.66699 7.33301 7.66699 12.666 15 15.999c3.33301 1.33301 7.33301 2 12 2c3.33301 0 6.66602 -0.666992 9.99902 -2c7.33301 -3.33301 12.333 -8.33301 15 -15c1.33301 -3.33301 2 -7 2 -11s-0.666992 -7.66699 -2 -11l-246 -624c-5.33301 -12 -14 -18 -26 -18h-1
c-13.333 1.33301 -22 7.66602 -26 18.999z" />
    <glyph glyph-name="W" unicode="W" horiz-adv-x="866" 
d="M12 645c-0.666992 3.33301 -0.998047 6.33301 -0.998047 9c0 4 1 8.33301 3 13c3.33301 6.66699 8.66602 11 15.999 13c2.66699 0.666992 5.66699 1.33398 9 2.00098c4.66699 0 9 -1.33301 13 -4c7.33301 -4 11.666 -9.66699 12.999 -17l164 -540l175 541
c0.666992 6 3.66699 11 9 15c4 3.33301 9 4.66602 15 3.99902h3c6 0 11.5 -1.83301 16.5 -5.5s8.16699 -8.5 9.5 -14.5l149 -541l196 543c2.66699 7.33301 7.33398 12.666 14.001 15.999c4 2 8 3 12 3c3.33301 0 6.33301 -0.666992 9 -2
c7.33301 -3.33301 13 -8.33301 17 -15c2 -3.33301 2.66699 -7 2 -11c0 -3.33301 -0.666992 -6.66602 -2 -9.99902l-225 -626c-4.66699 -12 -13.334 -18 -26.001 -18h-1c-6 0 -11.5 1.83301 -16.5 5.5s-8.16699 8.5 -9.5 14.5l-148 536l-173 -537
c-1.33301 -6 -4.5 -10.667 -9.5 -14s-10.5 -5 -16.5 -5h-1c-6 0 -11.5 1.83301 -16.5 5.5s-8.16699 8.16699 -9.5 13.5z" />
    <glyph glyph-name="X" unicode="X" horiz-adv-x="680" 
d="M51 25c0 1.33301 -0.333984 2.66797 -1.00098 4.00098c0 6 2.33301 11.667 7 17l252 300l-231 290c-5.33301 6 -7.5 12.833 -6.5 20.5s4.5 13.834 10.5 18.501c5.33301 4.66699 11 7 17 7h4c8 -0.666992 14.333 -4.33398 19 -11.001l223 -281l236 281
c5.33301 6 12 9.66699 20 11h3c6 0 11.667 -2.33301 17 -7c6 -5.33301 9.33301 -12 10 -20v-2c0 -6.66699 -2.33301 -12.667 -7 -18l-243 -290l239 -300c4.66699 -6 6.5 -12.833 5.5 -20.5s-4.5 -13.834 -10.5 -18.501c-5.33301 -4 -11 -6 -17 -6
c-8.66699 0 -16 3.33301 -22 10l-232 291l-244 -291c-4.66699 -6.66699 -11.667 -10 -21 -10c-7.33301 0 -13.333 2 -18 6c-5.33301 4.66699 -8.66602 11 -9.99902 19z" />
    <glyph glyph-name="Y" unicode="Y" horiz-adv-x="592" 
d="M21 661c2 7.33301 6.33496 12.667 13.002 16c5.33301 2.66699 10.666 4 15.999 4h6c7.33301 -1.33301 12.666 -6 15.999 -14l232 -398l236 398c4 7.33301 9.66699 12 17 14h6c5.33301 0 10.333 -1.33301 15 -4c7.33301 -4 12 -9.66699 14 -17v-6
c0 -5.33301 -1.33301 -10.333 -4 -15l-371 -625c-5.33301 -9.33301 -13.333 -14 -24 -14c-6 0 -10.667 1.33301 -14 4c-6.66699 4 -11 9.66699 -13 17s-1 14.333 3 21l102 172l-247 425c-2.66699 4.66699 -4 9.66699 -4 15c0 2.66699 0.333008 5 1 7z" />
    <glyph glyph-name="Z" unicode="Z" horiz-adv-x="638" 
d="M48 30c0 9.33301 2.66797 17.667 8.00098 25l455 564h-417c-8 0 -14.833 3 -20.5 9s-8.5 13.333 -8.5 22c0 8 2.83301 15 8.5 21s12.5 9 20.5 9h462h2c8.66699 0 16 -3.16699 22 -9.5s9 -13.833 9 -22.5c0 -9.33301 -2.66699 -16.666 -8 -21.999l-455 -566h417
c8 0 14.833 -2.83301 20.5 -8.5s8.5 -12.834 8.5 -21.501c0 -8 -2.83301 -15 -8.5 -21s-12.5 -9 -20.5 -9h-462h-2c-7.33301 0 -14 2.66699 -20 8c-6.66699 6 -10.334 13.333 -11.001 22z" />
    <glyph glyph-name="bracketleft" unicode="[" horiz-adv-x="314" 
d="M66 -96v874c0 7.33301 2.66699 13.833 8 19.5s12 8.5 20 8.5h137c7.33301 0 13.833 -2.83301 19.5 -8.5s8.5 -12.167 8.5 -19.5c0 -8 -2.83301 -14.667 -8.5 -20s-12.167 -8 -19.5 -8h-109v-818h93c7.33301 0 13.833 -2.83301 19.5 -8.5s8.5 -12.167 8.5 -19.5
c0 -8 -2.83301 -14.667 -8.5 -20s-12.167 -8 -19.5 -8h-121c-8 0 -14.667 2.66699 -20 8s-8 12 -8 20z" />
    <glyph glyph-name="backslash" unicode="\" horiz-adv-x="544" 
d="M68 672c-2 -7.33301 -1.00195 -14.667 2.99805 -22l353 -637c5.33301 -9.33301 13.333 -14 24 -14c4.66699 0 9.33398 1 14.001 3c6.66699 4 11 9.66699 13 17s1.33301 14.666 -2 21.999l-353 637c-4 6.66699 -9.66699 11 -17 13s-14.666 1 -21.999 -3
c-6.66699 -3.33301 -11 -8.66602 -13 -15.999z" />
    <glyph glyph-name="bracketright" unicode="]" horiz-adv-x="314" 
d="M61 -96c0 8 2.83301 14.667 8.5 20s12.167 8 19.5 8h109v818h-93c-7.33301 0 -13.833 2.83301 -19.5 8.5s-8.5 12.167 -8.5 19.5c0 8 2.83301 14.667 8.5 20s12.167 8 19.5 8h121c8 0 14.667 -2.66699 20 -8s8 -12 8 -20v-874c0 -7.33301 -2.66699 -13.833 -8 -19.5
s-12 -8.5 -20 -8.5h-137c-7.33301 0 -13.833 2.83301 -19.5 8.5s-8.5 12.167 -8.5 19.5z" />
    <glyph glyph-name="underscore" unicode="_" horiz-adv-x="489" 
d="M-28 -28c0 7.33301 2.66699 13.833 8 19.5s12 8.5 20 8.5h490c7.33301 0 13.833 -2.83301 19.5 -8.5s8.5 -12.167 8.5 -19.5c0 -8 -2.83301 -14.667 -8.5 -20s-12.167 -8 -19.5 -8h-490c-8 0 -14.667 2.66699 -20 8s-8 12 -8 20z" />
    <glyph glyph-name="a" unicode="a" horiz-adv-x="504" 
d="M52 193c-0.666992 8.66699 -1.3291 18 -1.99609 28c0 12.667 1 25.667 3 39c2.66699 25.333 8.16699 51 16.5 77s20.5 51.167 36.5 75.5s36.333 45.5 61 63.5c18.667 14 38 23.833 58 29.5s39.333 8.83398 58 9.50098h6c17.333 0 33.666 -1.66699 48.999 -5
c17.333 -3.33301 32.666 -7.33301 45.999 -12s24 -8.83398 32 -12.501s12.667 -5.83398 14 -6.50098l9 -6l1 -443v-2c0 -7.33301 -2.83301 -13.833 -8.5 -19.5s-12.167 -8.5 -19.5 -8.5c-8 0 -14.667 2.83301 -20 8.5s-8 12.167 -8 19.5v4v23
c0 -0.666992 -0.333008 -1 -1 -1s-1.33398 -0.333008 -2.00098 -1c-18.667 -11.333 -40.667 -22 -66 -32c-24 -9.33301 -49 -13.666 -75 -12.999h-5c-50 1.33301 -91.333 18.5 -124 51.5s-52.334 77.5 -59.001 133.5zM109.005 199c2 -16 5.83594 -31.998 11.5029 -47.998
s13.667 -30.5 24 -43.5s23 -23.5 38 -31.5s32.833 -12.333 53.5 -13c15.333 0 30.5 2.16699 45.5 6.5s29 9.66602 42 15.999s24.667 12.833 35 19.5s18.166 12 23.499 16v17c0.666992 25.333 1.16699 53 1.5 83s0.666016 59.167 0.999023 87.5s0.666016 54 0.999023 77
s0.5 40.5 0.5 52.5c-6 2.66699 -14 5.66699 -24 9s-20.667 6 -32 8c-6.66699 1.33301 -13.167 2.33301 -19.5 3s-12.5 1 -18.5 1h-3c-34 0 -63 -9 -87 -27c-20 -14.667 -36.5 -32 -49.5 -52s-23 -40.833 -30 -62.5s-11.5 -42.834 -13.5 -63.501
c-0.666992 -10.667 -1 -20.5 -1 -29.5s0.333008 -17.5 1 -25.5z" />
    <glyph glyph-name="b" unicode="b" horiz-adv-x="523" 
d="M65 26l0.000976562 639c0.666992 7.33301 3.66699 13.333 9 18s11.666 7 18.999 7s13.5 -2.33301 18.5 -7s7.83301 -10.667 8.5 -18v-255c15.333 22 39.166 41 71.499 57s68.5 24 108.5 24h17c26.667 -1.33301 50 -8.66602 70 -21.999s36.333 -30.333 49 -51
s22.167 -43.834 28.5 -69.501s9.5 -51.5 9.5 -77.5c0 -13.333 -0.666992 -30.666 -2 -51.999s-5.83301 -43.5 -13.5 -66.5s-19.5 -45.5 -35.5 -67.5s-38.667 -40.667 -68 -56c-15.333 -8 -31.5 -13.667 -48.5 -17s-33.5 -5 -49.5 -5c-26 0 -51.5 3 -76.5 9
s-45.167 12.333 -60.5 19v-9v1c0 -8 -2.66699 -14.5 -8 -19.5s-11.666 -7.5 -18.999 -7.5c-8 0 -14.667 2.66699 -20 8s-8 11.666 -8 18.999v-1zM120.001 87c6.66699 -3.33301 17.832 -7.33203 33.499 -11.999s33.5 -8.66699 53.5 -12c14 -2 28.333 -2.66699 43 -2h20
c22 1.33301 42.667 7 62 17s34.833 22.167 46.5 36.5s20.667 30 27 47s10.5 34.667 12.5 53s3 37.166 3 56.499c0 14 -1.66699 30.167 -5 48.5s-9 36 -17 53s-18.833 31.5 -32.5 43.5s-31.167 18.333 -52.5 19h-7c-24.667 0 -48 -3 -70 -9
c-23.333 -6.66699 -43.666 -16.5 -60.999 -29.5s-31 -28.333 -41 -46s-15 -36.5 -15 -56.5v-207z" />
    <glyph glyph-name="c" unicode="c" horiz-adv-x="508" 
d="M50 209v7.99414c0 22.667 2.66699 44 8 64c6 22 11.333 40 16 54c6.66699 16.667 16.167 34.5 28.5 53.5s27 36.833 44 53.5s36.167 30.5 57.5 41.5s44 16.5 68 16.5h5c30 0 57.667 -6.33301 83 -19s46.333 -30.334 63 -53.001c4 -4 6 -9.66699 6 -17
s-2.66699 -13.666 -8 -18.999s-11.666 -8 -18.999 -8s-14 3 -20 9h-1c-2 2 -4 4.33301 -6 7c-4 5.33301 -6 8.33301 -6 9c-24.667 26 -56.334 39 -95.001 39h-2c-16.667 0 -32.667 -4.33301 -48 -13s-29.5 -19.5 -42.5 -32.5s-24.5 -27.167 -34.5 -42.5s-17.667 -30 -23 -44
c-12 -31.333 -18.667 -59 -20 -83v-15c0 -18 1.66699 -34 5 -48c5.33301 -18 12.666 -33 21.999 -45s18 -21.667 26 -29c18 -15.333 35.833 -26.333 53.5 -33s34.834 -10.334 51.501 -11.001h13c28 1.33301 53.333 8.33301 76 21s41 29.334 55 50.001
c0.666992 0.666992 1.16699 1.33398 1.5 2.00098s0.833008 1.33398 1.5 2.00098c2.66699 2.66699 5.83398 5.33398 9.50098 8.00098s8.16699 4 13.5 4c7.33301 0 13.666 -2.66699 18.999 -8s8 -11.666 8 -18.999s-2.66699 -13.666 -8 -18.999
c-18.667 -27.333 -43 -49.166 -73 -65.499s-63.667 -25.5 -101 -27.5h-11c-52.667 0 -101 19 -145 57c-26 22.667 -44.167 47.167 -54.5 73.5s-15.833 52.5 -16.5 78.5z" />
    <glyph glyph-name="d" unicode="d" horiz-adv-x="529" 
d="M51 232c0 14 0.830078 31.6689 2.49707 53.002s6.5 43.666 14.5 66.999s20.333 46.166 37 68.499s40 41.166 70 56.499c16 8 32.333 13.667 49 17c14 2.66699 27.333 4 40 4h8c26.667 -0.666992 51.334 -4.16699 74.001 -10.5s41.667 -13.166 57 -20.499l5 201v1
c0 8 2.83301 14.667 8.5 20s12.5 8 20.5 8c7.33301 0 13.833 -2.83301 19.5 -8.5s8.5 -12.5 8.5 -20.5v-1l-15 -640c-0.666992 -8 -3.66699 -14.5 -9 -19.5s-12 -7.5 -20 -7.5s-14.667 3 -20 9s-8 12.667 -8 20v5l2 45c-9.33301 -8.66699 -20 -17.5 -32 -26.5
s-25.333 -17.167 -40 -24.5c-14.667 -8 -31 -14 -49 -18c-15.333 -4 -31.666 -6 -48.999 -6h-7h-9c-28 2 -52 10 -72 24s-36.667 31.667 -50 53s-22.666 45.333 -27.999 72c-5.33301 24 -8 47.667 -8 71v8zM105.997 229.002c0 -14.667 1.33105 -31.666 3.99805 -50.999
s7.83398 -38 15.501 -56s18.334 -33.5 32.001 -46.5s31.167 -20.167 52.5 -21.5h16c21.333 0 41 3 59 9c22.667 8 42.334 18 59.001 30s29.667 24.333 39 37s14 23 14 31l5 245c-6.66699 3.33301 -17.334 8.33301 -32.001 15s-31.5 12.167 -50.5 16.5s-39 6.5 -60 6.5
s-40.833 -5 -59.5 -15c-20 -10 -36 -22.333 -48 -37s-21.333 -30.834 -28 -48.501s-11.167 -36.167 -13.5 -55.5s-3.83301 -39 -4.5 -59z" />
    <glyph glyph-name="e" unicode="e" horiz-adv-x="520" 
d="M51 226c0 4.66699 -0.331055 9.00488 -0.998047 13.0049c0 23.333 3 46.666 9 69.999c2.66699 12.667 6.66699 26.167 12 40.5s12.5 28.666 21.5 42.999s20 28.333 33 42s28.833 25.834 47.5 36.501c23.333 13.333 47.333 22 72 26c12 1.33301 23.667 2 35 2
c12 0 24 -1 36 -3c22.667 -4 43.834 -11.167 63.501 -21.5s35.5 -22.833 47.5 -37.5c7.33301 -8.66699 13.333 -17.334 18 -26.001s8.66699 -16.334 12 -23.001c5.33301 -11.333 7 -21 5 -29s-9.33301 -15.333 -22 -22c-4.66699 -2.66699 -14.167 -8 -28.5 -16
s-31.333 -17.667 -51 -29s-41 -23.666 -64 -36.999s-45.5 -26.333 -67.5 -39s-42.5 -24.5 -61.5 -35.5s-34.167 -19.5 -45.5 -25.5c36.667 -68.667 95.667 -103 177 -103c1.33301 0 6.5 0.5 15.5 1.5s20 3.33301 33 7s26.667 9.16699 41 16.5s27.166 17.666 38.499 30.999
c4 5.33301 10 8 18 8c7.33301 0 13.5 -2.5 18.5 -7.5s7.5 -11.167 7.5 -18.5s-2.33301 -13.333 -7 -18c-15.333 -17.333 -32.333 -30.833 -51 -40.5s-36.167 -16.834 -52.5 -21.501s-30.333 -7.5 -42 -8.5s-17.834 -1.5 -18.501 -1.5h-1c-54.667 0 -101.834 13 -141.501 39
s-70.5 65 -92.5 117c-8 19.333 -12.667 42.666 -14 69.999zM103.002 258.005c-0.666992 -8 -1.00195 -15.665 -1.00195 -22.998c0 -10.667 0.666992 -20.334 2 -29.001c12 6.66699 27.167 15 45.5 25s37.833 20.667 58.5 32s41.5 22.833 62.5 34.5s40.667 22.5 59 32.5
s34 18.5 47 25.5s21.833 11.833 26.5 14.5c0.666992 0.666992 1.5 1.16699 2.5 1.5s1.5 1.16602 1.5 2.49902l1 1c0 1.33301 -1 4.33301 -3 9c-2 5.33301 -6 12 -12 20c-9.33301 11.333 -24.166 21.166 -44.499 29.499s-42.5 12.5 -66.5 12.5
c-14 0 -28.167 -1.66699 -42.5 -5s-28.166 -9 -41.499 -17c-22 -13.333 -39.667 -29.333 -53 -48s-23.333 -38.167 -30 -58.5s-10.667 -40.166 -12 -59.499z" />
    <glyph glyph-name="f" unicode="f" horiz-adv-x="370" 
d="M20 475c0 7.33301 2.66797 13.335 8.00098 18.002s10.666 7 15.999 7v1l77 -1v1c0 62 12.333 107.667 37 137c28 34.667 77.333 52 148 52h16c4 0 8.66699 0.333008 14 1c7.33301 -0.666992 13.333 -3.33398 18 -8.00098s7 -10.667 7 -18s-2.33301 -13.5 -7 -18.5
s-10.667 -7.5 -18 -7.5v-1h-1h-23c-27.333 0 -49.333 -2.66699 -66 -8s-29.834 -13.5 -39.501 -24.5s-16.167 -25.167 -19.5 -42.5s-5 -38 -5 -62v-1h133c5.33301 0 10.833 -2.33301 16.5 -7s8.5 -10.667 8.5 -18s-2.83301 -13.333 -8.5 -18
s-11.167 -7.33398 -16.5 -8.00098h-138v-423c0 -7.33301 -2.83301 -13.5 -8.5 -18.5s-12.167 -7.5 -19.5 -7.5s-13.666 2.5 -18.999 7.5s-8.33301 11.167 -9 18.5v423h-75c-7.33301 0 -13.5 2.5 -18.5 7.5s-7.5 11.167 -7.5 18.5z" />
    <glyph glyph-name="g" unicode="g" horiz-adv-x="520" 
d="M52 207c-0.666992 8 -1.00293 16.334 -1.00293 25.001c0 16 1.33301 32.667 4 50c3.33301 26.667 10.833 52.334 22.5 77.001s27.5 47.5 47.5 68.5s45.333 38.5 76 52.5c21.333 10 41.666 16 60.999 18l26 2c10 0 19.333 -0.666992 28 -2c16.667 -2 32.167 -6 46.5 -12
s26.5 -12 36.5 -18c0 5.33301 0.166992 8.16602 0.5 8.49902s0.5 3.16602 0.5 8.49902c0.666992 7.33301 3.66699 13.5 9 18.5s11.666 7.5 18.999 7.5s13.833 -2.83301 19.5 -8.5s8.5 -12.5 8.5 -20.5v-34c0 -22.667 -0.666992 -51 -2 -85s-2.33301 -71.167 -3 -111.5
s-1.5 -78 -2.5 -113s-1.83301 -64.667 -2.5 -89s-1 -37.833 -1 -40.5c-3.33301 -54.667 -19.666 -99.167 -48.999 -133.5s-67.666 -53.833 -114.999 -58.5c-7.33301 -1.33301 -14.333 -2 -21 -2h-20c-24 0 -46.667 1.5 -68 4.5s-39.666 6.16699 -54.999 9.5v1
c-14.667 3.33301 -22 12.333 -22 27c0 8 2.83301 14.667 8.5 20s12.167 8 19.5 8c2.66699 0 6.66699 -0.666992 12 -2c18 -4 39.333 -7.33301 64 -10c12.667 -1.33301 25.334 -2 38.001 -2s25.667 0.666992 39 2c24 2 43.333 9 58 21s26 25.5 34 40.5s13.333 29.833 16 44.5
s4.33398 26 5.00098 34c0 3.33301 0.166992 10.666 0.5 21.999s0.833008 25.666 1.5 42.999c-18 -24.667 -39 -43.667 -63 -57s-50.333 -20.666 -79 -21.999h-4c-54.667 0 -101 23.667 -139 71c-15.333 18.667 -27.5 39.834 -36.5 63.501s-14.833 48.167 -17.5 73.5z
M99.9971 252.001l-0.000976562 -16.999c0 -10.667 0.333008 -19 1 -25c1.33301 -16.667 5.33301 -34.167 12 -52.5s15.834 -35.333 27.501 -51s25.834 -28.667 42.501 -39s36 -15.5 58 -15.5h3c17.333 0.666992 35 4.5 53 11.5s34.167 18.833 48.5 35.5
s26.166 38.667 35.499 66s14 61.333 14 102v89v56c-0.666992 0.666992 -5.66699 4 -15 10s-21.833 11.167 -37.5 15.5s-34.167 6.5 -55.5 6.5h-1c-20.667 0 -42.667 -5 -66 -15c-31.333 -14 -55.166 -31.5 -71.499 -52.5s-28.333 -42.333 -36 -64
s-11.834 -41.834 -12.501 -60.501z" />
    <glyph glyph-name="h" unicode="h" horiz-adv-x="502" 
d="M65 27l-0.00292969 634v1c0 7.33301 2.83301 13.833 8.5 19.5s12.167 8.5 19.5 8.5c8 0 14.667 -2.83301 20 -8.5s8 -12.167 8 -19.5v-1v-328c8.66699 20 20 40 34 60s29.667 38.167 47 54.5s35.833 29.5 55.5 39.5s39.834 15 60.501 15c84 0 128.667 -89.333 134 -268
c0.666992 -29.333 1.33398 -56.666 2.00098 -81.999c0 -18 -0.333008 -34.667 -1 -50c-0.666992 -36 -1.33398 -60.667 -2.00098 -74v-1h-1c0 -7.33301 -2.66699 -13.666 -8 -18.999s-11.666 -8 -18.999 -8s-13.5 2.66699 -18.5 8s-7.83301 11.666 -8.5 18.999v1v1
c0.666992 12 1.33398 36 2.00098 72v39c0 28 -0.333008 59 -1 93s-2.83398 64 -6.50098 90s-8.83398 48.333 -15.501 67c-5.33301 14 -10.833 25 -16.5 33s-11.167 13.667 -16.5 17s-10.166 5.33301 -14.499 6s-7.5 1 -9.5 1c-21.333 0 -42 -7 -62 -21
s-38.333 -30.333 -55 -49s-30.667 -37 -42 -55s-19 -31.333 -23 -40c-6 -12.667 -10 -26.334 -12 -41.001s-3 -30.667 -3 -48v-166c0 -7.33301 -2.66699 -13.833 -8 -19.5s-12 -8.5 -20 -8.5c-7.33301 0 -13.666 2.83301 -18.999 8.5s-8.33301 12.167 -9 19.5z" />
    <glyph glyph-name="i" unicode="i" horiz-adv-x="193" 
d="M65 29c0 -8 2.83301 -14.833 8.5 -20.5s12.5 -8.5 20.5 -8.5s14.833 2.83301 20.5 8.5s8.5 12.5 8.5 20.5l6 438c0 8 -2.83301 14.833 -8.5 20.5s-12.5 8.5 -20.5 8.5s-14.833 -2.83301 -20.5 -8.5s-8.5 -12.5 -8.5 -20.5zM73 613l1.00098 41
c0 7.33301 2.83301 13.666 8.5 18.999s12.167 8 19.5 8c7.33301 -0.666992 13.666 -3.66699 18.999 -9s8 -11.666 8 -18.999l-1 -41c0 -7.33301 -2.66699 -14 -8 -20c-4.66699 -4.66699 -10.334 -7 -17.001 -7h-3c-7.33301 0 -13.666 2.83301 -18.999 8.5s-8 12.167 -8 19.5
z" />
    <glyph glyph-name="j" unicode="j" horiz-adv-x="332" 
d="M-8 -37c-0.666992 3.33301 -1 6.33105 -1 8.99805c0 4 1 8 3 12c3.33301 6.66699 8.66602 11.334 15.999 14.001s14.333 2.33398 21 -0.999023s11.334 -8.66602 14.001 -15.999c0.666992 -0.666992 1 -1.33398 1 -2.00098l2 -5c4 -10 9 -21 15 -33s13 -23.167 21 -33.5
s17 -19.166 27 -26.499s21 -11 33 -11c15.333 0 27.333 5.5 36 16.5s15.167 23.5 19.5 37.5s7 27.667 8 41s1.5 22.666 1.5 27.999c0 4.66699 -0.166992 19 -0.5 43s-0.833008 52.833 -1.5 86.5s-1.16699 69.834 -1.5 108.501s-0.833008 75 -1.5 109
s-1.16699 63.333 -1.5 88s-0.5 39.667 -0.5 45v1v2c0.666992 7.33301 3.66699 13.5 9 18.5s11.666 7.5 18.999 7.5s13.833 -2.83301 19.5 -8.5s8.5 -12.167 8.5 -19.5c0 -3.33301 0.166992 -16.666 0.5 -39.999s0.666016 -51.833 0.999023 -85.5
s0.833008 -69.834 1.5 -108.501s1.16699 -75.167 1.5 -109.5s0.666016 -63.833 0.999023 -88.5s0.5 -39.334 0.5 -44.001c0 -8.66699 -0.666992 -22.167 -2 -40.5s-5.66602 -37.166 -12.999 -56.499c-9.33301 -26.667 -23.166 -47 -41.499 -61s-39.5 -21 -63.5 -21
s-45.167 6.5 -63.5 19.5s-33.666 27.833 -45.999 44.5s-22 32.667 -29 48s-11.5 25.666 -13.5 30.999v1zM207 624.998l-0.00292969 3l4 33v7l1 1c2 7.33301 6.33301 13 13 17c4.66699 2.66699 9.33398 4 14.001 4c2 0 4.33301 -0.333008 7 -1c7.33301 -2 13 -6 17 -12
c2.66699 -4.66699 4.33398 -10 5.00098 -16c0 -1.33301 -0.333008 -3 -1 -5l-4 -35v-4c-1.33301 -7.33301 -5 -13.333 -11 -18c-5.33301 -4 -11 -6.33301 -17 -7c-1.33301 0 -2.66602 0.333008 -3.99902 1c-8 1.33301 -14.333 5 -19 11c-3.33301 4.66699 -5 10 -5 16v5z" />
    <glyph glyph-name="k" unicode="k" horiz-adv-x="513" 
d="M65 663c0 7.33301 2.83398 13.6621 8.50098 18.9951s12.167 8 19.5 8c8 0 14.667 -2.83301 20 -8.5s8 -12.167 8 -19.5v-1l1 -407c14 9.33301 31.833 23 53.5 41s44.334 38.333 68.001 61s47.5 47 71.5 73s45.667 51.667 65 77c6 8 13.667 12 23 12
c7.33301 0 13.666 -2.66699 18.999 -8s8 -11.666 8 -18.999c0 -5.33301 -2 -10.666 -6 -15.999c-10.667 -14 -23.334 -29.333 -38.001 -46s-29.834 -33.167 -45.501 -49.5s-30.834 -31.666 -45.501 -45.999s-27.334 -26.166 -38.001 -35.499
c0.666992 -1.33301 4.66699 -6.5 12 -15.5s16.833 -20.667 28.5 -35s24.5 -30.333 38.5 -48s28.167 -35.334 42.5 -53.001s28.166 -35 41.499 -52s25 -31.833 35 -44.5c4 -4.66699 6.66699 -10.334 8 -17.001v-2c0 -6.66699 -2 -12.667 -6 -18
c-4.66699 -6 -11 -9.33301 -19 -10c-11.333 -1.33301 -19.666 2 -24.999 10c-16.667 26.667 -35 52.834 -55 78.501s-39.167 49.667 -57.5 72s-35.166 42.333 -50.499 60s-27 31.834 -35 42.501c-19.333 -15.333 -36.666 -28.166 -51.999 -38.499
s-28.666 -18.833 -39.999 -25.5v-174c0 -7.33301 -2.66699 -13.833 -8 -19.5s-12 -8.5 -20 -8.5c-7.33301 0 -13.833 2.83301 -19.5 8.5s-8.5 12.167 -8.5 19.5z" />
    <glyph glyph-name="l" unicode="l" horiz-adv-x="185" 
d="M65 24l0.000976562 639c0 7.33301 2.66699 13.666 8 18.999s12 8 20 8c7.33301 0 13.666 -2.66699 18.999 -8s8.33301 -11.666 9 -18.999v-639c-1.33301 -7.33301 -4.5 -13.166 -9.5 -17.499s-11.167 -6.5 -18.5 -6.5s-13.5 2.16699 -18.5 6.5
s-8.16699 10.166 -9.5 17.499z" />
    <glyph glyph-name="m" unicode="m" horiz-adv-x="812" 
d="M65 27l-0.000976562 443.996c0 7.33301 2.83301 13.833 8.5 19.5s12.167 8.5 19.5 8.5c8 0 14.667 -2.83301 20 -8.5s8 -12.167 8 -19.5v-109c13.333 18.667 27.5 36.834 42.5 54.501s30.667 33.5 47 47.5s33 25.333 50 34s34.167 13 51.5 13
c12.667 0 25.5 -1.5 38.5 -4.5s25.333 -8.66699 37 -17s22 -19.666 31 -33.999s16.167 -32.5 21.5 -54.5c12 16.667 25.167 31.834 39.5 45.501s29 25.167 44 34.5s30.167 16.666 45.5 21.999s29.666 8 42.999 8c15.333 0 31.166 -2.5 47.499 -7.5s31 -14.167 44 -27.5
s23.667 -32 32 -56s12.5 -55 12.5 -93v-300c0 -7.33301 -2.83301 -13.666 -8.5 -18.999s-12.167 -8 -19.5 -8s-13.833 2.66699 -19.5 8s-8.5 11.666 -8.5 18.999v307c0 28.667 -2.5 51.5 -7.5 68.5s-11.5 29.833 -19.5 38.5s-16.667 14.334 -26 17.001s-18.333 4 -27 4
c-14 0 -30.333 -4 -49 -12s-36.667 -19.667 -54 -35s-32 -34.166 -44 -56.499s-18 -47.5 -18 -75.5v-256c0 -7.33301 -2.66699 -13.666 -8 -18.999s-12 -8 -20 -8c-7.33301 0 -13.666 2.66699 -18.999 8s-8.33301 11.666 -9 18.999v307c0 28.667 -2.5 51.5 -7.5 68.5
s-11.333 29.833 -19 38.5s-16.167 14.334 -25.5 17.001s-18.333 4 -27 4c-21.333 0 -48.166 -12.333 -80.499 -37s-65.166 -64 -98.499 -118c-3.33301 -4.66699 -5.5 -9.5 -6.5 -14.5s-2.16699 -9.5 -3.5 -13.5c-1.33301 -4.66699 -2 -9.33398 -2 -14.001v-238
c0 -7.33301 -2.83301 -13.666 -8.5 -18.999s-12.167 -8 -19.5 -8s-13.833 2.66699 -19.5 8s-8.5 11.666 -8.5 18.999z" />
    <glyph glyph-name="n" unicode="n" horiz-adv-x="534" 
d="M65 26l-0.00390625 446.997c0 7.33301 2.83301 13.666 8.5 18.999s12.167 8 19.5 8s13.833 -2.66699 19.5 -8s8.5 -11.666 8.5 -18.999v-174h2c4.66699 28.667 13.167 55.167 25.5 79.5s27.5 45.5 45.5 63.5s38.167 32 60.5 42s46.166 15 71.499 15
c66.667 0 109 -35.667 127 -107c7.33301 -30.667 11.833 -68 13.5 -112s2.5 -99.333 2.5 -166c0 -28 0.166992 -48 0.5 -60s0.5 -20.333 0.5 -25v-1c0 -7.33301 -2.66699 -13.833 -8 -19.5s-11.666 -8.5 -18.999 -8.5s-13.666 2.83301 -18.999 8.5s-8 12.167 -8 19.5v1
c0 6 -0.166992 15 -0.5 27s-0.5 31.333 -0.5 58c0 56 -0.666992 106.833 -2 152.5s-5.66602 82.834 -12.999 111.501c-6 24.667 -14.667 42 -26 52s-27.666 15 -48.999 15c-11.333 0 -23 -1.66699 -35 -5s-24.333 -9.33301 -37 -18s-25.5 -20.667 -38.5 -36
s-26.167 -35.333 -39.5 -60c-16.667 -31.333 -29.834 -66.166 -39.501 -104.499s-14.5 -75.166 -14.5 -110.499l-1 -81v-2c0 -8 -2.66699 -14.667 -8 -20s-11.666 -8 -18.999 -8s-13.666 2.5 -18.999 7.5s-8.33301 11.167 -9 18.5z" />
    <glyph glyph-name="o" unicode="o" horiz-adv-x="534" 
d="M51 252c2 34 9.66602 65.998 22.999 95.998s30.5 56.333 51.5 79s45 40.5 72 53.5s55.5 19.5 85.5 19.5c24.667 0 48.334 -4.83301 71.001 -14.5s43 -23.167 61 -40.5c24.667 -24 43.334 -53.333 56.001 -88c10 -27.333 14.667 -55.666 14 -84.999
c0 -8 -0.333008 -16 -1 -24c-2 -34 -9.66699 -66.167 -23 -96.5s-30.5 -56.666 -51.5 -78.999s-45 -40 -72 -53s-55.5 -19.5 -85.5 -19.5c-50.667 0 -94.667 18 -132 54c-24.667 24 -43.334 53.333 -56.001 88c-10 27.333 -14.667 56 -14 86c0 8 0.333008 16 1 24z
M107.999 247.998c0 -5.33301 -0.333008 -10.668 -1 -16.001c0 -26 4 -51 12 -75c9.33301 -29.333 23.666 -53.333 42.999 -72c26 -24.667 56 -37 90 -37c22 0 43.167 5.5 63.5 16.5s38.5 25.833 54.5 44.5s29 40.334 39 65.001s16 50.667 18 78v14
c0 26.667 -4.66699 52.334 -14 77.001c-11.333 29.333 -26.333 53 -45 71c-26 25.333 -56 38 -90 38c-22 0 -43 -5.5 -63 -16.5s-37.667 -25.833 -53 -44.5s-27.666 -40.334 -36.999 -65.001s-15 -50.667 -17 -78z" />
    <glyph glyph-name="p" unicode="p" horiz-adv-x="519" 
d="M65 -167v637.998c0 8 2.66699 14.833 8 20.5s12 8.5 20 8.5s14.667 -2.83301 20 -8.5s8 -12.5 8 -20.5v-40c19.333 17.333 43.5 33.166 72.5 47.499s63.833 21.5 104.5 21.5h11c28 -1.33301 52 -8.83301 72 -22.5s36.667 -31 50 -52s23.166 -44.667 29.499 -71
s9.5 -52.5 9.5 -78.5c0 -13.333 -0.666992 -30.666 -2 -51.999s-5.66602 -43.666 -12.999 -66.999s-19 -46.166 -35 -68.499s-39 -41.5 -69 -57.5c-15.333 -8.66699 -31.333 -14.667 -48 -18s-33 -5 -49 -5c-26 0 -50.833 3.16699 -74.5 9.5s-43.167 12.5 -58.5 18.5v-203
c0 -7.33301 -2.83301 -13.833 -8.5 -19.5s-12.167 -8.5 -19.5 -8.5s-13.833 2.83301 -19.5 8.5s-8.5 12.167 -8.5 19.5zM121 98.998c6.66699 -3.33301 17.668 -8 33.001 -14s32.666 -11 51.999 -15c17.333 -3.33301 35 -5 53 -5h9c21.333 0.666992 41.666 6 60.999 16
c20 10 36 22.167 48 36.5s21.167 30 27.5 47s10.5 35 12.5 54s3 38.167 3 57.5c0 14 -1.66699 30.833 -5 50.5s-9.16602 38.5 -17.499 56.5s-19.5 33.5 -33.5 46.5s-31.667 20.167 -53 21.5h-8c-24.667 0 -46.667 -3 -66 -9c-21.333 -6 -39.833 -13.833 -55.5 -23.5
s-28.5 -19.667 -38.5 -30s-17.333 -18.833 -22 -25.5v-264z" />
    <glyph glyph-name="q" unicode="q" horiz-adv-x="513" 
d="M52 242c10 88.667 43.334 154.336 100.001 197.003c45.333 33.333 101.666 50 168.999 50c23.333 0 47 -2 71 -6l3 -1v9c0 7.33301 2.66699 13.666 8 18.999s11.666 8 18.999 8s13.666 -2.5 18.999 -7.5s8 -11.167 8 -18.5v-1l-23 -652v-2
c0 -7.33301 -2.66699 -13.5 -8 -18.5s-11.666 -7.5 -18.999 -7.5s-13.666 2.83301 -18.999 8.5s-8.33301 12.167 -9 19.5v-1v-1l1 2l8 222c-5.33301 -12.667 -13.333 -24 -24 -34c-9.33301 -8.66699 -21.833 -16.334 -37.5 -23.001s-35.167 -10 -58.5 -10h-11
c-62 3.33301 -111.333 26.333 -148 69c-19.333 23.333 -33.333 50.666 -42 81.999c-6 21.333 -9 43.333 -9 66c0 10 0.666992 20.333 2 31zM102.001 236.002c-0.666992 -8.66699 -0.999023 -17.667 -0.999023 -27c0 -16.667 1.66699 -33.334 5 -50.001
c6.66699 -24.667 17.667 -45.667 33 -63c29.333 -34.667 66.666 -52 111.999 -52c40 0 71.667 10.333 95 31s36.333 50.334 39 89.001l8 269h-2c-24 4 -47.333 6 -70 6c-57.333 0 -103.333 -13.333 -138 -40c-46 -34.667 -73 -89 -81 -163z" />
    <glyph glyph-name="r" unicode="r" horiz-adv-x="415" 
d="M65 25l0.00390625 447c0.666992 7.33301 3.66699 13.666 9 18.999s11.666 8 18.999 8c8 0 14.667 -2.66699 20 -8s8.33301 -11.666 9 -18.999v-96c4.66699 8.66699 11.167 19 19.5 31s17.666 23.667 27.999 35s21.666 21.666 33.999 30.999s25.166 16 38.499 20
c18 6 34.667 9 50 9h11c18 -2 33 -7.66699 45 -17c8.66699 -6 15.5 -13.833 20.5 -23.5s7.5 -19.834 7.5 -30.501v-42c0 -7.33301 -2.66699 -13.666 -8 -18.999s-12 -8 -20 -8c-7.33301 0 -13.666 2.66699 -18.999 8s-8 11.666 -8 18.999v1v33
c0 11.333 -5.66699 18.666 -17 21.999c-4.66699 1.33301 -10.334 2.33301 -17.001 3c-8.66699 0 -18.667 -1.66699 -30 -5c-18 -5.33301 -35.667 -16.166 -53 -32.499s-33.333 -34.166 -48 -53.499c-8.66699 -11.333 -15.334 -23.166 -20.001 -35.499s-8 -23.5 -10 -33.5
c-2.66699 -12 -4 -23.667 -4 -35v-228h-1c-0.666992 -7.33301 -3.66699 -13.333 -9 -18s-11.666 -7 -18.999 -7s-13.5 2.33301 -18.5 7s-8.16699 10.667 -9.5 18z" />
    <glyph glyph-name="s" unicode="s" horiz-adv-x="457" 
d="M51 128c0 6 1.83398 11.501 5.50098 16.501s8.16699 8.16699 13.5 9.5c8.66699 2 15.834 1.16699 21.501 -2.5s9.5 -8.83398 11.5 -15.501c9.33301 -26.667 25.333 -47.5 48 -62.5s50 -22.5 82 -22.5c22 0 40.667 3.33301 56 10s27.5 14.667 36.5 24s15.5 19 19.5 29
s6 18.667 6 26c0 9.33301 -0.5 17.833 -1.5 25.5s-5.16699 15.167 -12.5 22.5c-15.333 17.333 -50 34.333 -104 51c-53.333 15.333 -92.166 33.833 -116.499 55.5s-36.5 50.167 -36.5 85.5c0 24 5.5 43.667 16.5 59s25 27.5 42 36.5s35.333 15.167 55 18.5s38.5 5 56.5 5
c63.333 0 108 -16.333 134 -49c6.66699 -9.33301 11.667 -18.5 15 -27.5s5.33301 -17.833 6 -26.5v-9c0 -4.66699 -0.333008 -8.66699 -1 -12c-0.666992 -6 -1.33398 -10.667 -2.00098 -14c-1.33301 -6.66699 -4.83301 -12 -10.5 -16s-11.834 -5.33301 -18.501 -4
c-7.33301 1.33301 -13 4.5 -17 9.5s-6 10.833 -6 17.5c0 2 0.333008 5 1 9s1 8.5 1 13.5s-0.833008 10.333 -2.5 16s-4.83398 11.167 -9.50098 16.5c-15.333 17.333 -44.333 26 -87 26c-17.333 0 -33.5 -1.5 -48.5 -4.5s-27.833 -7.5 -38.5 -13.5
c-22.667 -12.667 -34 -30 -34 -52c0 -14 3.66699 -25.833 11 -35.5s16.5 -18 27.5 -25s22.667 -12.667 35 -17s23.5 -7.83301 33.5 -10.5c23.333 -7.33301 45 -14.666 65 -21.999s37.5 -16.5 52.5 -27.5s26.667 -24.5 35 -40.5s12.5 -36.667 12.5 -62
c0 -16.667 -4 -33.334 -12 -50.001s-19.333 -31.834 -34 -45.501s-32.667 -24.667 -54 -33s-45 -12.5 -71 -12.5c-30.667 0 -57.5 5.16699 -80.5 15.5s-42 22.5 -57 36.5s-26.167 28.333 -33.5 43s-11 26.334 -11 35.001z" />
    <glyph glyph-name="t" unicode="t" horiz-adv-x="386" 
d="M20 472c0 8 2.83203 14.668 8.49902 20.001s12.167 8 19.5 8h2h115v143v1c0 7.33301 2.83301 13.833 8.5 19.5s12.167 8.5 19.5 8.5c8 0 14.667 -2.83301 20 -8.5s8 -12.167 8 -19.5v-1v-143h116h2c8 0 14.667 -2.66699 20 -8s8 -12 8 -20
c0 -7.33301 -2.66699 -13.833 -8 -19.5s-12 -8.5 -20 -8.5h-118v-418c0 -7.33301 -2.83301 -13.666 -8.5 -18.999s-12.167 -8 -19.5 -8s-13.666 2.66699 -18.999 8s-8.33301 11.666 -9 18.999v418h-117c-8 0.666992 -14.667 3.66699 -20 9s-8 11.666 -8 18.999z" />
    <glyph glyph-name="u" unicode="u" horiz-adv-x="511" 
d="M66 289l0.000976562 2v18c0 34 1.33301 65 4 93c4 33.333 7 57.666 9 72.999c0.666992 7.33301 3.5 13.333 8.5 18s11.167 7 18.5 7s13.5 -2.5 18.5 -7.5s7.83301 -11.167 8.5 -18.5v-5c-1.33301 -7.33301 -2.83301 -17 -4.5 -29s-3.16699 -25.833 -4.5 -41.5
s-2.33301 -32.667 -3 -51s-1 -36.833 -1 -55.5v-2c0 -22 0.333008 -44.333 1 -67s2.33398 -44.167 5.00098 -64.5s6.66699 -38.666 12 -54.999s13 -29.5 23 -39.5c5.33301 -5.33301 12.666 -9.66602 21.999 -12.999s20.666 -5 33.999 -5c17.333 0 34.333 2.66699 51 8
s32.334 11.666 47.001 18.999s27.334 15.166 38.001 23.499s18.667 15.5 24 21.5c3.33301 3.33301 5.66602 7.5 6.99902 12.5s2.66602 9.83301 3.99902 14.5c1.33301 5.33301 2 10.666 2 15.999l5 314c0.666992 7.33301 3.33398 13.333 8.00098 18s10.667 7 18 7
s13.5 -2.33301 18.5 -7s7.5 -10.667 7.5 -18v-447c0 -7.33301 -3 -13.833 -9 -19.5s-13 -8.5 -21 -8.5c-8.66699 0 -16 3 -22 9s-9 13.333 -9 22v2v43c-6 -9.33301 -14.667 -18.666 -26 -27.999s-24.333 -17.666 -39 -24.999s-30.834 -13.5 -48.501 -18.5
s-36.167 -7.5 -55.5 -7.5c-18 0 -35.833 2.5 -53.5 7.5s-31.167 12.167 -40.5 21.5c-14 13.333 -24.667 29.833 -32 49.5s-12.833 41 -16.5 64s-6 47.167 -7 72.5s-1.5 51 -1.5 77z" />
    <glyph glyph-name="v" unicode="v" horiz-adv-x="435" 
d="M10 471c0 8 2.83301 14.667 8.5 20s12.5 8 20.5 8c6.66699 0 12.5 -2 17.5 -6s8.16699 -9 9.5 -15l152 -384l154 389c5.33301 11.333 14 17 26 17c7.33301 0 13.833 -2.83301 19.5 -8.5s8.5 -12.167 8.5 -19.5c0 -5.33301 -1 -9.33301 -3 -12l-178 -441
c-3.33301 -13.333 -12.333 -20 -27 -20c-6 0 -11.333 2 -16 6s-8 8.66699 -10 14l-180 443c-1.33301 4 -2 7 -2 9z" />
    <glyph glyph-name="w" unicode="w" horiz-adv-x="593" 
d="M10 472c0 7.33301 2.67188 13.834 8.00488 19.501s11.666 8.5 18.999 8.5s13.666 -2.33301 18.999 -7s8.33301 -10.667 9 -18l73 -371l130 375c1.33301 5.33301 4.66602 10.166 9.99902 14.499s11.666 6.5 18.999 6.5s13.666 -2.66699 18.999 -8
s8.66602 -11.333 9.99902 -18l1 -5l89 -370l113 378c1.33301 6 4.5 11.167 9.5 15.5s10.833 6.5 17.5 6.5c7.33301 0 13.833 -2.83301 19.5 -8.5s8.5 -12.167 8.5 -19.5c0 -2 -0.666992 -5 -2 -9l-141 -440c-2 -12 -9 -19 -21 -21c-2 0 -3.66699 -0.333008 -5 -1
c-5.33301 0 -10.666 1.66699 -15.999 5c-6.66699 4 -10.667 9.66699 -12 17l-94 369l-133 -370h-1c-3.33301 -11.333 -10.333 -18 -21 -20c-1.33301 0 -3 -0.333008 -5 -1c-6 0 -11.667 2 -17 6c-6.66699 4.66699 -10.667 10.667 -12 18l-93 440
c-0.666992 2 -1 4.66699 -1 8z" />
    <glyph glyph-name="x" unicode="x" horiz-adv-x="509" 
d="M11 29c0 8 2.66309 14.667 7.99609 20l204 209l-163 194c-5.33301 5.33301 -8 12 -8 20s2.66699 14.667 8 20s11.833 8 19.5 8s14.167 -2.66699 19.5 -8l7 -9c4.66699 -6 10.834 -13.667 18.501 -23s16.5 -19.833 26.5 -31.5s20 -23.834 30 -36.501
c23.333 -29.333 50.333 -62.333 81 -99l189 197c5.33301 5.33301 12 8 20 8s14.667 -2.66699 20 -8s8 -11.833 8 -19.5s-2.66699 -14.167 -8 -19.5l-9 -9c-5.33301 -5.33301 -12.5 -12.666 -21.5 -21.999s-19.167 -19.833 -30.5 -31.5s-23 -23.5 -35 -35.5l-96 -98l175 -210
c4.66699 -5.33301 6.83398 -11.5 6.50098 -18.5s-3.16602 -13.167 -8.49902 -18.5s-12 -8 -20 -8s-14.667 2.66699 -20 8l-173 212c-37.333 -38.667 -70.666 -73.667 -99.999 -105c-12.667 -13.333 -25 -26.333 -37 -39s-22.667 -24 -32 -34c-11.333 -12 -22 -23 -32 -33
c-5.33301 -5.33301 -11.833 -8 -19.5 -8s-14.167 2.66699 -19.5 8s-8 12 -8 20z" />
    <glyph glyph-name="y" unicode="y" horiz-adv-x="488" 
d="M20 471c0 8 2.66699 14.833 8 20.5s12 8.5 20 8.5c13.333 0 22.333 -6.33301 27 -19l176 -354l163 356c2 5.33301 5.33301 9.66602 10 12.999s10.334 5 17.001 5c7.33301 0 13.833 -2.83301 19.5 -8.5s8.5 -12.5 8.5 -20.5c0 -2 -0.166992 -3.83301 -0.5 -5.5
s-0.833008 -3.5 -1.5 -5.5l-294 -640c-2 -5.33301 -5.33301 -9.66602 -10 -12.999s-10.334 -5 -17.001 -5c-7.33301 0 -13.833 2.83301 -19.5 8.5s-8.5 12.5 -8.5 20.5c0 4 1 7.66699 3 11v1l99 217l-196 395c-2.66699 3.33301 -4 8.33301 -4 15z" />
    <glyph glyph-name="z" unicode="z" horiz-adv-x="508" 
d="M50 28c0 3.33301 0.666992 6.33301 2 9l4 8l317 400h-284c-8 0 -14.667 2.66699 -20 8s-8 12 -8 20c0 7.33301 2.66699 13.833 8 19.5s12 8.5 20 8.5h337c7.33301 0 13.833 -2.83301 19.5 -8.5s8.5 -12.167 8.5 -19.5s-2 -13 -6 -17l-317 -400h300
c7.33301 0 13.833 -2.83301 19.5 -8.5s8.5 -12.167 8.5 -19.5s-2.83301 -13.833 -8.5 -19.5s-12.167 -8.5 -19.5 -8.5h-353c-7.33301 0 -13.833 2.83301 -19.5 8.5s-8.5 12.167 -8.5 19.5z" />
    <glyph glyph-name="braceleft" unicode="{" horiz-adv-x="375" 
d="M54 350c0 9.33301 4 16.6621 12 21.9951c2.66699 1.33301 4.33398 2.33301 5.00098 3c18 7.33301 31.667 16.333 41 27s16 21 20 31s6.16699 18.667 6.5 26s0.5 11.333 0.5 12v2v189c0 24 4.33301 44.333 13 61s19.834 30.834 33.501 42.501s28.667 20.667 45 27
s32.166 11.166 47.499 14.499h5c1.33301 0.666992 3 1 5 1c7.33301 0 13.666 -2.66699 18.999 -8s8 -11.666 8 -18.999s-2.16699 -13.333 -6.5 -18s-9.83301 -7.66699 -16.5 -9h-3c-8.66699 -2 -18.5 -4.83301 -29.5 -8.5s-21.5 -9 -31.5 -16s-18.333 -16 -25 -27
s-10 -24.5 -10 -40.5v-188c0.666992 -7.33301 0.333984 -16.166 -0.999023 -26.499s-4.33301 -21 -9 -32s-10.834 -22.167 -18.501 -33.5s-17.834 -22 -30.501 -32c13.333 -10.667 24 -21.834 32 -33.501s13.667 -22.5 17 -32.5c5.33301 -14 8.33301 -26.333 9 -37
s1 -17.667 1 -21v-204c0 -16 3.33301 -29.5 10 -40.5s15 -20 25 -27s20.5 -12.333 31.5 -16s20.833 -6.5 29.5 -8.5h3c6.66699 -1.33301 12.167 -4.33301 16.5 -9s6.5 -10.667 6.5 -18s-2.66699 -13.666 -8 -18.999s-11.666 -8 -18.999 -8c-2 0 -3.66699 0.333008 -5 1h-5
c-15.333 2.66699 -31.166 7.33398 -47.499 14.001s-31.333 15.834 -45 27.501s-24.834 25.834 -33.501 42.501s-13 37 -13 61v205v2c0 0.666992 -0.166992 4.66699 -0.5 12s-2.5 16 -6.5 26s-10.5 20.333 -19.5 31s-22.5 19.667 -40.5 27c-2 0 -4 1 -6 3
c-8 4.66699 -12 12 -12 22z" />
    <glyph glyph-name="bar" unicode="|" horiz-adv-x="192" 
d="M68 -140v952c0 7.33301 2.83301 13.833 8.5 19.5s12.167 8.5 19.5 8.5c8 0 14.667 -2.83301 20 -8.5s8 -12.167 8 -19.5v-952c0 -8 -2.66699 -14.667 -8 -20s-12 -8 -20 -8c-7.33301 0 -13.833 2.66699 -19.5 8s-8.5 12 -8.5 20z" />
    <glyph glyph-name="braceright" unicode="}" horiz-adv-x="375" 
d="M54 -97c0 7.33301 2.16699 13.3369 6.5 18.0039s9.83301 7.66699 16.5 9h3c8.66699 2 18.5 4.83301 29.5 8.5s21.5 9 31.5 16s18.333 16 25 27s10 24.5 10 40.5v188c-0.666992 7.33301 -0.333984 16.166 0.999023 26.499s4.33301 21 9 32s10.834 22.167 18.501 33.5
s17.834 22 30.501 32c-13.333 10.667 -24 21.834 -32 33.501s-13.667 22.5 -17 32.5c-5.33301 14 -8.33301 26.333 -9 37s-1 17.667 -1 21v204c0 16 -3.33301 29.5 -10 40.5s-15 20 -25 27s-20.5 12.333 -31.5 16s-20.833 6.5 -29.5 8.5h-3
c-6.66699 1.33301 -12.167 4.33301 -16.5 9s-6.5 10.667 -6.5 18s2.66699 13.666 8 18.999s11.666 8 18.999 8c2 0 3.66699 -0.333008 5 -1h5c15.333 -2.66699 31.166 -7.33398 47.499 -14.001s31.333 -15.834 45 -27.501s24.834 -25.834 33.501 -42.501s13 -37 13 -61v-205
v-2c0 -0.666992 0.166992 -4.66699 0.5 -12s2.5 -16 6.5 -26s10.5 -20.333 19.5 -31s22.5 -19.667 40.5 -27c2 0 4 -1 6 -3c8 -4.66699 12 -12 12 -22c0 -9.33301 -4 -16.666 -12 -21.999c-2.66699 -1.33301 -4.33398 -2.33301 -5.00098 -3
c-18 -7.33301 -31.667 -16.333 -41 -27s-16 -21 -20 -31s-6.16699 -18.667 -6.5 -26s-0.5 -11.333 -0.5 -12v-2v-189c0 -24 -4.33301 -44.333 -13 -61s-19.834 -30.834 -33.501 -42.501s-28.667 -20.667 -45 -27s-32.166 -11.166 -47.499 -14.499h-5
c-1.33301 -0.666992 -3 -1 -5 -1c-7.33301 0 -13.666 2.66699 -18.999 8s-8 11.666 -8 18.999z" />
    <glyph glyph-name="asciitilde" unicode="~" horiz-adv-x="639" 
d="M65 211c0 2.66699 0.664062 5.99609 1.99707 9.99609l1 3c2.66699 6.66699 5.5 13.834 8.5 21.501s6.83301 15.5 11.5 23.5c31.333 55.333 73 83 125 83c15.333 0 29.166 -2.5 41.499 -7.5s23.333 -11.667 33 -20s18.5 -17.5 26.5 -27.5s15.667 -20 23 -30
c14.667 -19.333 27.834 -34.666 39.501 -45.999s25.5 -17 41.5 -17c13.333 0 25.5 3.66699 36.5 11s20.5 16.333 28.5 27s15 22 21 34s10.667 22.667 14 32l2 7c2 5.33301 5.33301 9.66602 10 12.999s9.66699 5 15 5c7.33301 0 13.666 -2.66699 18.999 -8
s8 -11.666 8 -18.999c0 -4.66699 -0.333008 -7.66699 -1 -9l-2 -6c-4 -12 -10 -26.167 -18 -42.5s-18.167 -31.666 -30.5 -45.999s-27 -26.666 -44 -36.999s-36.5 -15.5 -58.5 -15.5c-15.333 0 -29.166 2.5 -41.499 7.5s-23.333 11.667 -33 20s-18.667 17.666 -27 27.999
s-16.166 20.5 -23.499 30.5c-14 19.333 -26.833 34.5 -38.5 45.5s-25.5 16.5 -41.5 16.5c-13.333 0 -25.166 -3.16699 -35.499 -9.5s-19.333 -14.166 -27 -23.499s-14.167 -19.166 -19.5 -29.499s-9.33301 -19.833 -12 -28.5l-1 -3c-3.33301 -13.333 -12 -20 -26 -20
c-7.33301 0 -13.666 2.66699 -18.999 8s-8 11.666 -8 18.999z" />
    <glyph glyph-name="uni00A0" unicode="&#xa0;" horiz-adv-x="329" 
 />
    <glyph glyph-name="cent" unicode="&#xa2;" horiz-adv-x="555" 
d="M74 308.5c-0.666992 25.667 1.83301 49.4961 7.5 71.4961s11.167 39.667 16.5 53c6 14.667 14 30.5 24 47.5s22 33.167 36 48.5s29.833 28.833 47.5 40.5s36.5 20.167 56.5 25.5l2 71c0 7.33301 2.5 13.333 7.5 18s10.833 7 17.5 7
c7.33301 -0.666992 13.333 -3.33398 18 -8.00098s7 -10.667 7 -18l-2 -67c28 -1.33301 53.667 -8.16602 77 -20.499s42.666 -29.166 57.999 -50.499c4 -5.33301 6 -11 6 -17c0 -7.33301 -2.66699 -13.666 -8 -18.999s-11.666 -8 -18.999 -8c-9.33301 0 -16.333 3 -21 9
c-2 2 -4 4.33301 -6 7l-6 8c-22.667 24 -50.334 37 -83.001 39l-10 -395c28 1.33301 53.167 8.33301 75.5 21s40.5 29 54.5 49c0 0.666992 0.333008 1.33398 1 2.00098s1 1.33398 1 2.00098c0.666992 0 1 0.333008 1 1c2.66699 2.66699 5.83398 5.33398 9.50098 8.00098
s7.83398 4 12.501 4c7.33301 0 13.666 -2.83301 18.999 -8.5s8 -12.167 8 -19.5s-2.33301 -13.333 -7 -18c-18.667 -27.333 -43 -49.333 -73 -66s-63.667 -25.667 -101 -27h-3l-2 -75c0 -6.66699 -2.33301 -12.334 -7 -17.001s-10.667 -7 -18 -7s-13.333 2.5 -18 7.5
s-7 11.167 -7 18.5l2 77c-36 6.66699 -70.333 24 -103 52c-26.667 22.667 -45 47.5 -55 74.5s-15.333 53.333 -16 79zM128 331.996c-1.33301 -24 0.501953 -44.999 5.50195 -62.999s12 -33.167 21 -45.5s17.833 -21.833 26.5 -28.5c11.333 -10.667 22.833 -19 34.5 -25
s23.167 -10.667 34.5 -14l10 384c-12.667 -5.33301 -24.834 -12.833 -36.501 -22.5s-22.334 -20.167 -32.001 -31.5s-18.167 -23.333 -25.5 -36s-13.333 -24.334 -18 -35.001c-12 -31.333 -18.667 -59 -20 -83z" />
    <glyph glyph-name="sterling" unicode="&#xa3;" horiz-adv-x="743" 
d="M64 354c0 7.33301 2.66211 13.6689 7.99512 19.002s11.666 8 18.999 8h91c-18.667 119.333 -6.33398 207.333 36.999 264c40.667 54 109.667 81 207 81c32.667 0 60.834 -5.83301 84.501 -17.5s43.334 -26.334 59.001 -44.001s28 -37 37 -58s15.5 -40.833 19.5 -59.5
l1 -5c0.666992 -1.33301 1 -3 1 -5c0 -7.33301 -2.66699 -13.666 -8 -18.999s-11.666 -8 -18.999 -8s-13.333 2.16699 -18 6.5s-7.66699 9.5 -9 15.5l-1 5c-1.33301 8 -3.83301 17 -7.5 27s-8.16699 20.667 -13.5 32c-26.667 50.667 -68.667 76 -126 76
c-80 0 -135 -20 -165 -60c-34.667 -47.333 -42.667 -124.333 -24 -231h236c7.33301 0 13.666 -2.66699 18.999 -8s8 -11.666 8 -18.999s-2.66699 -13.666 -8 -18.999s-11.666 -8 -18.999 -8h-226c2.66699 -10.667 5.33398 -21.5 8.00098 -32.5s5.66699 -22.167 9 -33.5
c6 -20 8.16699 -41.833 6.5 -65.5s-6.83398 -47.5 -15.501 -71.5c-0.666992 -1.33301 -1.16699 -2.5 -1.5 -3.5s-0.833008 -2.16699 -1.5 -3.5c53.333 16 101 8.33301 143 -23c30 -22.667 60.667 -37.834 92 -45.501s58.666 -6.5 81.999 3.5c30 12 49.333 38 58 78l1 5
c3.33301 14.667 12.333 22 27 22c7.33301 0 13.666 -2.66699 18.999 -8s8 -11.666 8 -18.999c0 -2.66699 -0.333008 -4.66699 -1 -6l-1 -5c-8.66699 -36 -21.667 -62.667 -39 -80s-34.333 -29.666 -51 -36.999c-20 -8 -41.333 -12 -64 -12c-26 0 -53.167 5.16699 -81.5 15.5
s-55.833 25.5 -82.5 45.5c-15.333 11.333 -31.166 17.666 -47.499 18.999s-32.166 -0.333984 -47.499 -5.00098s-29.833 -11 -43.5 -19s-25.167 -15.667 -34.5 -23l-4.5 -4.5c-1.66699 -1.66699 -3.5 -3.16699 -5.5 -4.5c-2.66699 -2 -5 -4 -7 -6
c-5.33301 -5.33301 -11.666 -8 -18.999 -8s-13.666 2.66699 -18.999 8s-8 11.666 -8 18.999c0 9.33301 3.66699 16.666 11 21.999c2 2 4.33301 4 7 6c2 1.33301 3.83301 2.83301 5.5 4.5l4.5 4.5c13.333 13.333 24.666 28 33.999 44s16.333 32.167 21 48.5
s7.33398 32.333 8.00098 48s-0.666016 29.5 -3.99902 41.5c-8 28.667 -15 55.667 -21 81h-101c-7.33301 0 -13.666 2.66699 -18.999 8s-8 11.666 -8 18.999z" />
    <glyph glyph-name="yen" unicode="&#xa5;" horiz-adv-x="572" 
d="M70.5 673.5c2.33301 7 7.16699 12.165 14.5 15.498s14.5 4 21.5 2s12.167 -6.66699 15.5 -14l154 -309l169 311c4 7.33301 9.66699 12 17 14s14.333 1 21 -3c7.33301 -3.33301 12 -8.66602 14 -15.999s1.33301 -14.666 -2 -21.999l-169 -310h94
c7.33301 0 13.666 -2.66699 18.999 -8s8 -11.666 8 -18.999s-2.66699 -13.666 -8 -18.999s-11.666 -8 -18.999 -8h-117v-100h117c7.33301 0 13.666 -2.66699 18.999 -8s8 -11.666 8 -18.999s-2.66699 -13.666 -8 -18.999s-11.666 -8 -18.999 -8h-117v-106
c0 -7.33301 -2.66699 -13.833 -8 -19.5s-12 -8.5 -20 -8.5c-7.33301 0 -13.833 2.83301 -19.5 8.5s-8.5 12.167 -8.5 19.5v106h-116c-7.33301 0 -13.666 2.66699 -18.999 8s-8 11.666 -8 18.999s2.66699 13.666 8 18.999s11.666 8 18.999 8h116v100h-116
c-7.33301 0 -13.666 2.66699 -18.999 8s-8 11.666 -8 18.999s2.66699 13.666 8 18.999s11.666 8 18.999 8h95l-154 310c-3.33301 7.33301 -3.83301 14.5 -1.5 21.5z" />
    <glyph glyph-name="copyright" unicode="&#xa9;" horiz-adv-x="575" 
d="M64 463c0 31.333 5.83301 60.833 17.5 88.5s27.5 51.667 47.5 72s43.5 36.5 70.5 48.5s55.833 18 86.5 18s59.5 -6 86.5 -18s50.5 -28.167 70.5 -48.5s35.833 -44.333 47.5 -72s17.5 -57.167 17.5 -88.5s-5.83301 -60.833 -17.5 -88.5s-27.5 -51.667 -47.5 -72
s-43.5 -36.5 -70.5 -48.5s-55.833 -18 -86.5 -18s-59.5 6 -86.5 18s-50.5 28.167 -70.5 48.5s-35.833 44.333 -47.5 72s-17.5 57.167 -17.5 88.5zM110 463c0 -25.333 4.66699 -48.833 14 -70.5s22 -40.834 38 -57.501s34.667 -29.667 56 -39s44 -14 68 -14
s46.667 4.66699 68 14s40 22.333 56 39s28.667 35.834 38 57.501s14 45.167 14 70.5c0 24.667 -4.66699 48 -14 70s-22 41.333 -38 58s-34.667 29.667 -56 39s-44 14 -68 14s-46.667 -4.66699 -68 -14s-40 -22.333 -56 -39s-28.667 -36 -38 -58s-14 -45.333 -14 -70z
M160 464c0 38.667 11.667 69.5 35 92.5s54.333 34.5 93 34.5c16 0 30.333 -2.83301 43 -8.5s23.334 -11.5 32.001 -17.5l2 -2c6.66699 -5.33301 10 -11.666 10 -18.999c0 -6.66699 -2.16699 -12.167 -6.5 -16.5s-9.83301 -6.5 -16.5 -6.5c-5.33301 0 -10.333 1.66699 -15 5
l-2 2c-5.33301 4 -12 7.83301 -20 11.5s-17 5.5 -27 5.5c-18 0 -32.5 -3 -43.5 -9s-19.167 -13.333 -24.5 -22s-8.83301 -17.667 -10.5 -27s-2.5 -17 -2.5 -23c0 -21.333 7.5 -38.333 22.5 -51s31.167 -19 48.5 -19c29.333 0 51.666 9 66.999 27
c2.66699 2.66699 4.33398 4.66699 5.00098 6l3 5c4 7.33301 10.667 11 20 11c6.66699 0 12.167 -2.16699 16.5 -6.5s6.5 -9.83301 6.5 -16.5c0 -4 -1 -8 -3 -12l-3 -5c-9.33301 -13.333 -23 -25.833 -41 -37.5s-41.667 -17.5 -71 -17.5c-30.667 0 -57.334 10.333 -80.001 31
c-25.333 23.333 -38 51.666 -38 84.999z" />
    <glyph glyph-name="guillemotleft" unicode="&#xab;" horiz-adv-x="590" 
d="M68 250c0 -9.33301 3.00098 -16.334 9.00098 -21.001l163 -146c5.33301 -4.66699 11.666 -7 18.999 -7c8 0 15 3 21 9c5.33301 5.33301 7.66602 11.833 6.99902 19.5s-3.66699 14.167 -9 19.5l-140 125l155 135c6 5.33301 9.33301 11.833 10 19.5
s-1.66602 14.167 -6.99902 19.5c-5.33301 6 -11.833 9.33301 -19.5 10s-14.167 -1.66602 -19.5 -6.99902l-180 -155c-6 -5.33301 -9 -12.333 -9 -21zM273.001 249.999c0 -9.33301 3 -16.334 9 -21.001l163 -146c4.66699 -4.66699 11 -7 19 -7s15 3 21 9
c5.33301 5.33301 7.66602 11.833 6.99902 19.5s-3.66699 14.167 -9 19.5l-140 125l155 135c6 5.33301 9.33301 11.833 10 19.5s-1.66602 14.167 -6.99902 19.5c-5.33301 6 -11.833 9.33301 -19.5 10s-14.167 -1.66602 -19.5 -6.99902l-180 -155
c-6 -5.33301 -9 -12.333 -9 -21z" />
    <glyph glyph-name="uni00AD" unicode="&#xad;" 
d="M71 250c0 7.33301 2.66699 13.666 8 18.999s11.666 8 18.999 8h247c7.33301 0 13.666 -2.66699 18.999 -8s8 -11.666 8 -18.999s-2.66699 -13.666 -8 -18.999s-11.666 -8 -18.999 -8h-247c-7.33301 0 -13.666 2.66699 -18.999 8s-8 11.666 -8 18.999z" />
    <glyph glyph-name="registered" unicode="&#xae;" horiz-adv-x="575" 
d="M64 463c0 31.333 5.83301 60.833 17.5 88.5s27.5 51.667 47.5 72s43.5 36.5 70.5 48.5s55.833 18 86.5 18s59.5 -6 86.5 -18s50.5 -28.167 70.5 -48.5s35.833 -44.333 47.5 -72s17.5 -57.167 17.5 -88.5s-5.83301 -60.833 -17.5 -88.5s-27.5 -51.667 -47.5 -72
s-43.5 -36.5 -70.5 -48.5s-55.833 -18 -86.5 -18s-59.5 6 -86.5 18s-50.5 28.167 -70.5 48.5s-35.833 44.333 -47.5 72s-17.5 57.167 -17.5 88.5zM110 463c0 -25.333 4.66699 -48.833 14 -70.5s22 -40.834 38 -57.501s34.667 -29.667 56 -39s44 -14 68 -14
s46.667 4.66699 68 14s40 22.333 56 39s28.667 35.834 38 57.501s14 45.167 14 70.5c0 24.667 -4.66699 48 -14 70s-22 41.333 -38 58s-34.667 29.667 -56 39s-44 14 -68 14s-46.667 -4.66699 -68 -14s-40 -22.333 -56 -39s-28.667 -36 -38 -58s-14 -45.333 -14 -70z
M181 383c1.33301 -5.33301 3.99902 -10.001 7.99902 -14.001s9 -6 15 -6s11.167 2 15.5 6s6.83301 9 7.5 15l1 7l8 46l96 -66l7 -5c2.66699 -2.66699 7 -4 13 -4c6.66699 0 12.167 2.16699 16.5 6.5s6.5 9.83301 6.5 16.5c0 8.66699 -3.66699 15 -11 19l-4 4l-58 39
c12 2.66699 23.833 5.83398 35.5 9.50098s22.334 8.5 32.001 14.5s17.5 13 23.5 21s9 17.333 9 28c0 18 -6.66699 32.667 -20 44c-18 16 -49.667 24.667 -95 26c-15.333 0 -28.5 -0.5 -39.5 -1.5s-16.833 -1.5 -17.5 -1.5c-11.333 -2 -18 -8.66699 -20 -20l-27 -168l-2 -9
v-7zM243.999 484.999l8.99902 57.999c18 1.33301 36.833 1.16602 56.5 -0.500977s33.834 -6.16699 42.501 -13.5c2.66699 -2 4 -5 4 -9c0 -5.33301 -10.833 -11.666 -32.5 -18.999s-48.167 -12.666 -79.5 -15.999z" />
    <glyph glyph-name="degree" unicode="&#xb0;" horiz-adv-x="397" 
d="M66 633c0 18.667 3.5 36 10.5 52s16.5 30 28.5 42s26.167 21.5 42.5 28.5s33.5 10.5 51.5 10.5s35.167 -3.5 51.5 -10.5s30.5 -16.5 42.5 -28.5s21.5 -26 28.5 -42s10.5 -33.333 10.5 -52c0 -18 -3.5 -35.167 -10.5 -51.5s-16.5 -30.5 -28.5 -42.5
s-26.167 -21.5 -42.5 -28.5s-33.5 -10.5 -51.5 -10.5s-35.167 3.5 -51.5 10.5s-30.5 16.5 -42.5 28.5s-21.5 26.167 -28.5 42.5s-10.5 33.5 -10.5 51.5zM122 633c0 -21.333 7.5 -39.5 22.5 -54.5s33.167 -22.5 54.5 -22.5s39.5 7.5 54.5 22.5s22.5 33.167 22.5 54.5
s-7.5 39.5 -22.5 54.5s-33.167 22.5 -54.5 22.5s-39.5 -7.5 -54.5 -22.5s-22.5 -33.167 -22.5 -54.5z" />
    <glyph glyph-name="paragraph" unicode="&#xb6;" horiz-adv-x="558" 
d="M69 526c0 43.333 13.335 82.8369 40.002 118.504s66 66.167 118 91.5c30.667 15.333 59.5 26.666 86.5 33.999s45.833 12 56.5 14c1.33301 0 2.66602 0.333008 3.99902 1c1.33301 0 2.5 0.166992 3.5 0.5s2.16699 0.5 3.5 0.5c7.33301 -0.666992 13.666 -3.5 18.999 -8.5
s8 -11.167 8 -18.5c0 -6.66699 -2 -12.5 -6 -17.5s-9 -8.16699 -15 -9.5c-2.66699 0 -5.33398 -0.333008 -8.00098 -1c-5.33301 -1.33301 -9 -2 -11 -2c0.666992 -2.66699 0.666992 -6.33398 0 -11.001c0.666992 -0.666992 1 -2.66699 1 -6
c1.33301 -54 1.33301 -106.5 0 -157.5s-3.5 -99.5 -6.5 -145.5s-6.66699 -89.167 -11 -129.5s-8.5 -76.5 -12.5 -108.5c-9.33301 -70 -17.833 -125.167 -25.5 -165.5s-11.834 -61.5 -12.501 -63.5c-3.33301 -14.667 -12.333 -22 -27 -22c-2.66699 0 -4.66699 0.333008 -6 1
c-7.33301 1.33301 -13.166 5.33301 -17.499 12s-5.83301 13.667 -4.5 21c0.666992 0.666992 4.83398 21.167 12.501 61.5s16.167 94.833 25.5 163.5c3.33301 24 6.33301 50.333 9 79s5.66699 59 9 91h-19c-11.333 0 -23.833 0.666992 -37.5 2s-27.667 3.66602 -42 6.99902
s-28.333 8.16602 -42 14.499s-26.5 14.5 -38.5 24.5c-36 30.667 -54 73.667 -54 129zM359.002 -44.9961c0 1.33301 3.83301 21.999 11.5 61.999s16.167 94.333 25.5 163c4 31.333 8 66.833 12 106.5s7.5 82.167 10.5 127.5s5.33301 93 7 143s1.83398 101.667 0.500977 155
c-0.666992 8 1.66602 14.667 6.99902 20s12 8.33301 20 9c7.33301 0 13.833 -2.66699 19.5 -8s8.83398 -11.666 9.50098 -18.999c1.33301 -54 1.16602 -106.667 -0.500977 -158s-4 -100 -7 -146s-6.66699 -89.167 -11 -129.5s-8.5 -76.5 -12.5 -108.5
c-9.33301 -70 -17.833 -125.167 -25.5 -165.5s-11.834 -61.5 -12.501 -63.5c-3.33301 -14.667 -12.333 -22 -27 -22c-1.33301 0 -2.33301 0.166992 -3 0.5s-1.66699 0.5 -3 0.5c-7.33301 1.33301 -13.166 5.33301 -17.499 12s-5.5 13.667 -3.5 21z" />
    <glyph glyph-name="guillemotright" unicode="&#xbb;" horiz-adv-x="590" 
d="M71 403.5c-0.666992 7.66699 1.66602 14.166 6.99902 19.499c5.33301 6 11.833 9.33301 19.5 10s14.167 -1.66602 19.5 -6.99902l180 -155c6 -5.33301 9 -12.333 9 -21c0 -9.33301 -3 -16.333 -9 -21l-163 -146c-4.66699 -4.66699 -11 -7 -19 -7s-15 3 -21 9
c-5.33301 5.33301 -7.66602 11.833 -6.99902 19.5s3.66699 14.167 9 19.5l140 125l-155 135c-6 5.33301 -9.33301 11.833 -10 19.5zM276 403.499c-0.666992 7.66699 1.66504 14.166 6.99805 19.499c5.33301 6 11.833 9.33301 19.5 10s14.167 -1.66602 19.5 -6.99902
l180 -155c6 -5.33301 9 -12.333 9 -21c0 -9.33301 -3 -16.333 -9 -21l-163 -146c-5.33301 -4.66699 -11.666 -7 -18.999 -7c-8 0 -15 3 -21 9c-5.33301 5.33301 -7.66602 11.833 -6.99902 19.5s3.66699 14.167 9 19.5l140 125l-155 135c-6 5.33301 -9.33301 11.833 -10 19.5
z" />
    <glyph glyph-name="questiondown" unicode="&#xbf;" horiz-adv-x="500" 
d="M47 196c-2 24 -1.16699 49.166 2.5 75.499s11.334 51.833 23.001 76.5s27.5 47.5 47.5 68.5s45.333 38.5 76 52.5c21.333 10 41.666 16 60.999 18s37.5 1.83301 54.5 -0.5s32.5 -6.33301 46.5 -12s26 -11.5 36 -17.5v18v38c0 14.667 0.166992 30.334 0.5 47.001
s0.5 32.5 0.5 47.5v38v18.5c0.666992 7.33301 3.66699 13.5 9 18.5s11.666 7.5 18.999 7.5s13.833 -3 19.5 -9s8.5 -12.667 8.5 -20v-28c0 -18.667 -0.333008 -43.167 -1 -73.5s-1.33398 -65 -2.00098 -104s-1.33398 -79 -2.00098 -120s-1.33398 -81.167 -2.00098 -120.5
s-1.33398 -74.833 -2.00098 -106.5s-1.16699 -57.5 -1.5 -77.5s-0.5 -31 -0.5 -33c-3.33301 -54.667 -19.666 -99.167 -48.999 -133.5s-67.666 -53.833 -114.999 -58.5c-7.33301 -1.33301 -14.333 -2 -21 -2h-20c-24 0 -46.667 1.5 -68 4.5s-39.666 6.16699 -54.999 9.5v1
c-14.667 3.33301 -22 12.333 -22 27c0 8 2.83301 14.667 8.5 20s12.167 8 19.5 8c2.66699 0 6.66699 -0.666992 12 -2c18 -4 39.333 -7.33301 64 -10s50.334 -2.66699 77.001 0c24 2 43.333 9 58 21s26 25.5 34 40.5s13.333 29.833 16 44.5s4.33398 26 5.00098 34
c0 3.33301 0.166992 10.666 0.5 21.999s0.833008 25.666 1.5 42.999c-18 -24.667 -39 -43.667 -63 -57s-50.333 -20.666 -79 -21.999h-4c-54.667 0 -101 23.667 -139 71c-15.333 18.667 -27.5 39.834 -36.5 63.501s-14.833 48.167 -17.5 73.5zM95 240.999
c-0.666992 -18.667 -0.333984 -32.6641 0.999023 -41.9971c1.33301 -16.667 5.33301 -34.167 12 -52.5s15.834 -35.333 27.501 -51s25.834 -28.667 42.501 -39s36 -15.5 58 -15.5h3c17.333 0.666992 35 4.5 53 11.5s34.167 18.833 48.5 35.5s26.166 38.667 35.499 66
s14 61.333 14 102v89v56c-0.666992 0.666992 -5.66699 4 -15 10s-21.833 11.167 -37.5 15.5s-34 6.66602 -55 6.99902s-43.5 -4.83398 -67.5 -15.501c-31.333 -14 -55.166 -31.5 -71.499 -52.5s-28.333 -42.333 -36 -64s-11.834 -41.834 -12.501 -60.501z" />
    <glyph glyph-name="uni2000" unicode="&#x2000;" horiz-adv-x="419" 
 />
    <glyph glyph-name="uni2001" unicode="&#x2001;" horiz-adv-x="839" 
 />
    <glyph glyph-name="uni2002" unicode="&#x2002;" horiz-adv-x="419" 
 />
    <glyph glyph-name="uni2003" unicode="&#x2003;" horiz-adv-x="839" 
 />
    <glyph glyph-name="uni2004" unicode="&#x2004;" horiz-adv-x="279" 
 />
    <glyph glyph-name="uni2005" unicode="&#x2005;" horiz-adv-x="209" 
 />
    <glyph glyph-name="uni2006" unicode="&#x2006;" horiz-adv-x="139" 
 />
    <glyph glyph-name="uni2007" unicode="&#x2007;" horiz-adv-x="139" 
 />
    <glyph glyph-name="uni2008" unicode="&#x2008;" horiz-adv-x="104" 
 />
    <glyph glyph-name="uni2009" unicode="&#x2009;" horiz-adv-x="167" 
 />
    <glyph glyph-name="uni200A" unicode="&#x200a;" horiz-adv-x="46" 
 />
    <glyph glyph-name="uni2010" unicode="&#x2010;" 
d="M71 250c0 7.33301 2.66699 13.666 8 18.999s11.666 8 18.999 8h247c7.33301 0 13.666 -2.66699 18.999 -8s8 -11.666 8 -18.999s-2.66699 -13.666 -8 -18.999s-11.666 -8 -18.999 -8h-247c-7.33301 0 -13.666 2.66699 -18.999 8s-8 11.666 -8 18.999z" />
    <glyph glyph-name="uni2011" unicode="&#x2011;" 
d="M71 250c0 7.33301 2.66699 13.666 8 18.999s11.666 8 18.999 8h247c7.33301 0 13.666 -2.66699 18.999 -8s8 -11.666 8 -18.999s-2.66699 -13.666 -8 -18.999s-11.666 -8 -18.999 -8h-247c-7.33301 0 -13.666 2.66699 -18.999 8s-8 11.666 -8 18.999z" />
    <glyph glyph-name="figuredash" unicode="&#x2012;" 
d="M71 250c0 7.33301 2.66699 13.666 8 18.999s11.666 8 18.999 8h247c7.33301 0 13.666 -2.66699 18.999 -8s8 -11.666 8 -18.999s-2.66699 -13.666 -8 -18.999s-11.666 -8 -18.999 -8h-247c-7.33301 0 -13.666 2.66699 -18.999 8s-8 11.666 -8 18.999z" />
    <glyph glyph-name="endash" unicode="&#x2013;" horiz-adv-x="595" 
d="M73 249c0 8 2.66699 14.667 8 20s12 8 20 8h396c8 0 14.667 -2.66699 20 -8s8 -12 8 -20c0 -7.33301 -2.66699 -13.833 -8 -19.5s-12 -8.5 -20 -8.5h-396c-8 0 -14.667 2.83301 -20 8.5s-8 12.167 -8 19.5z" />
    <glyph glyph-name="emdash" unicode="&#x2014;" horiz-adv-x="876" 
d="M72 249c0 7.33301 2.66699 13.833 8 19.5s12 8.5 20 8.5h672c8 0 14.667 -2.83301 20 -8.5s8 -12.167 8 -19.5c0 -8 -2.66699 -14.667 -8 -20s-12 -8 -20 -8h-672c-8 0 -14.667 2.66699 -20 8s-8 12 -8 20z" />
    <glyph glyph-name="quoteleft" unicode="&#x2018;" horiz-adv-x="194" 
d="M53 589c0 2.66699 0.666016 6 1.99902 10l2 6c1.33301 3.33301 4 10.333 8 21s8.33301 21.667 13 33c5.33301 13.333 11 28 17 44c2.66699 6 6.83398 10.333 12.501 13s11.167 2.66699 16.5 0c6 -2 10.333 -5.83301 13 -11.5s2.66699 -11.5 0 -17.5l-24 -64
c8.66699 -8.66699 12.667 -20 12 -34c-1.33301 -11.333 -5.83301 -21 -13.5 -29s-16.5 -12 -26.5 -12s-18.167 4 -24.5 12s-8.83301 17.667 -7.5 29z" />
    <glyph glyph-name="quoteright" unicode="&#x2019;" horiz-adv-x="173" 
d="M44 595l24.001 64c-8.66699 8.66699 -12.667 20 -12 34c1.33301 11.333 5.83301 21 13.5 29s16.5 12 26.5 12s18.167 -4 24.5 -12s8.83301 -17.667 7.5 -29c0 -2.66699 -0.666992 -6 -2 -10l-2 -6c-1.33301 -3.33301 -4 -10.333 -8 -21s-8.33301 -21.667 -13 -33
c-5.33301 -13.333 -11 -28 -17 -44c-2.66699 -6 -6.83398 -10.333 -12.501 -13s-11.167 -2.66699 -16.5 0c-6 2 -10.333 5.83301 -13 11.5s-2.66699 11.5 0 17.5z" />
    <glyph glyph-name="quotedblleft" unicode="&#x201c;" horiz-adv-x="403" 
d="M88 589c0 2.66699 0.666016 6 1.99902 10l2 6c1.33301 3.33301 4 10.333 8 21s8.33301 21.667 13 33c5.33301 13.333 11 28 17 44c2.66699 6 6.83398 10.333 12.501 13s11.167 2.66699 16.5 0c6 -2 10.333 -5.83301 13 -11.5s2.66699 -11.5 0 -17.5l-24 -64
c8.66699 -8.66699 12.667 -20 12 -34c-1.33301 -11.333 -5.83301 -21 -13.5 -29s-16.5 -12 -26.5 -12s-18.167 4 -24.5 12s-8.83301 17.667 -7.5 29zM221.999 589c0 2.66699 0.666016 6 1.99902 10l2 6c1.33301 3.33301 4 10.333 8 21s8.33301 21.667 13 33
c5.33301 13.333 11 28 17 44c2.66699 6 6.83398 10.333 12.501 13s11.167 2.66699 16.5 0c6 -2 10.333 -5.83301 13 -11.5s2.66699 -11.5 0 -17.5l-24 -64c8.66699 -8.66699 12.667 -20 12 -34c-1.33301 -11.333 -5.83301 -21 -13.5 -29s-16.5 -12 -26.5 -12
s-18.167 4 -24.5 12s-8.83301 17.667 -7.5 29z" />
    <glyph glyph-name="quotedblright" unicode="&#x201d;" horiz-adv-x="390" 
d="M86 595l24.001 64c-8.66699 8.66699 -12.667 20 -12 34c1.33301 11.333 5.83301 21 13.5 29s16.5 12 26.5 12s18.167 -4 24.5 -12s8.83301 -17.667 7.5 -29c0 -2.66699 -0.666992 -6 -2 -10l-2 -6c-1.33301 -3.33301 -4 -10.333 -8 -21s-8.33301 -21.667 -13 -33
c-5.33301 -13.333 -11 -28 -17 -44c-2.66699 -6 -6.83398 -10.333 -12.501 -13s-11.167 -2.66699 -16.5 0c-6 2 -10.333 5.83301 -13 11.5s-2.66699 11.5 0 17.5zM221.001 595l24.001 64c-8.66699 8.66699 -12.667 20 -12 34c1.33301 11.333 5.83301 21 13.5 29
s16.5 12 26.5 12s18.167 -4 24.5 -12s8.83301 -17.667 7.5 -29c0 -2.66699 -0.666992 -6 -2 -10l-2 -6c-1.33301 -3.33301 -4 -10.333 -8 -21s-8.33301 -21.667 -13 -33c-5.33301 -13.333 -11 -28 -17 -44c-2.66699 -6 -6.83398 -10.333 -12.501 -13
s-11.167 -2.66699 -16.5 0c-6 2 -10.333 5.83301 -13 11.5s-2.66699 11.5 0 17.5z" />
    <glyph glyph-name="bullet" unicode="&#x2022;" horiz-adv-x="308" 
d="M66 253c0 24.667 8.66699 45.667 26 63s38.333 26 63 26s45.5 -8.66699 62.5 -26s25.5 -38.333 25.5 -63s-8.5 -45.667 -25.5 -63s-37.833 -26 -62.5 -26s-45.667 8.66699 -63 26s-26 38.333 -26 63z" />
    <glyph glyph-name="ellipsis" unicode="&#x2026;" horiz-adv-x="731" 
d="M74 42c1.33301 11.333 5.83301 21 13.5 29s16.5 12 26.5 12s18.167 -4 24.5 -12s8.83301 -17.667 7.5 -29s-5.83301 -21.166 -13.5 -29.499s-16.5 -12.5 -26.5 -12.5s-18.167 4.16699 -24.5 12.5s-8.83301 18.166 -7.5 29.499zM329 42c1.33301 11.333 5.83301 21 13.5 29
s16.5 12 26.5 12s18.167 -4 24.5 -12s8.83301 -17.667 7.5 -29s-5.83301 -21.166 -13.5 -29.499s-16.5 -12.5 -26.5 -12.5s-18.167 4.16699 -24.5 12.5s-8.83301 18.166 -7.5 29.499zM586 42c1.33301 11.333 5.83301 21 13.5 29s16.5 12 26.5 12s18.167 -4 24.5 -12
s8.83301 -17.667 7.5 -29s-5.83301 -21.166 -13.5 -29.499s-16.5 -12.5 -26.5 -12.5s-18.167 4.16699 -24.5 12.5s-8.83301 18.166 -7.5 29.499z" />
    <glyph glyph-name="uni202F" unicode="&#x202f;" horiz-adv-x="167" 
 />
    <glyph glyph-name="guilsinglleft" unicode="&#x2039;" horiz-adv-x="376" 
d="M68 250c0 -9.33301 3 -16.334 9 -21.001l163 -146c4.66699 -4.66699 11 -7 19 -7s15 3 21 9c5.33301 5.33301 7.66602 11.833 6.99902 19.5s-3.66699 14.167 -9 19.5l-140 125l155 135c6 5.33301 9.33301 11.833 10 19.5s-1.66602 14.167 -6.99902 19.5
c-5.33301 6 -11.833 9.33301 -19.5 10s-14.167 -1.66602 -19.5 -6.99902l-180 -155c-6 -5.33301 -9 -12.333 -9 -21z" />
    <glyph glyph-name="guilsinglright" unicode="&#x203a;" horiz-adv-x="376" 
d="M71 403.5c-0.666992 7.66699 1.66602 14.166 6.99902 19.499c5.33301 6 11.833 9.33301 19.5 10s14.167 -1.66602 19.5 -6.99902l180 -155c6 -5.33301 9 -12.333 9 -21c0 -9.33301 -3 -16.333 -9 -21l-163 -146c-4.66699 -4.66699 -11 -7 -19 -7s-15 3 -21 9
c-5.33301 5.33301 -7.66602 11.833 -6.99902 19.5s3.66699 14.167 9 19.5l140 125l-155 135c-6 5.33301 -9.33301 11.833 -10 19.5z" />
    <glyph glyph-name="uni205F" unicode="&#x205f;" horiz-adv-x="209" 
 />
    <glyph glyph-name="Euro" unicode="&#x20ac;" horiz-adv-x="662" 
d="M61 289c0 8 2.66504 14.8301 7.99805 20.4971s12 8.5 20 8.5h49c0.666992 12 1.83398 23.667 3.50098 35s3.5 22 5.5 32h-58c-8 0 -14.667 2.83301 -20 8.5s-8 12.5 -8 20.5s2.66699 14.667 8 20s12 8 20 8h74c2 6.66699 4 12.667 6 18
c7.33301 20 18.666 43.333 33.999 70s34.166 51.834 56.499 75.501s48 43.834 77 60.501s60.833 25 95.5 25c60.667 0 112.334 -17.667 155.001 -53l4 -3c6 -6 9 -13 9 -21c0 -7.33301 -2.5 -13.5 -7.5 -18.5s-11.167 -7.5 -18.5 -7.5c-5.33301 0 -10.666 1.66699 -15.999 5
l-2 2c-0.666992 0.666992 -1.33398 1.16699 -2.00098 1.5s-1.33398 0.833008 -2.00098 1.5c-13.333 10.667 -30.166 19.834 -50.499 27.501s-45.166 11.5 -74.499 11.5c-13.333 0 -26 -2.16699 -38 -6.5s-23.333 -9.66602 -34 -15.999s-20.667 -13.5 -30 -21.5
s-17.666 -15.667 -24.999 -23c-17.333 -18.667 -33.166 -39.167 -47.499 -61.5s-25.5 -44.5 -33.5 -66.5h194c8 0 14.833 -2.66699 20.5 -8s8.5 -12 8.5 -20s-2.83301 -14.833 -8.5 -20.5s-12.5 -8.5 -20.5 -8.5h-212c-3.33301 -12 -5.66602 -23.5 -6.99902 -34.5
s-2.66602 -21.833 -3.99902 -32.5l223 -1c8 0 14.833 -2.66699 20.5 -8s8.5 -12 8.5 -20s-2.83301 -14.833 -8.5 -20.5s-12.5 -8.5 -20.5 -8.5h-221c5.33301 -36 15.333 -65.333 30 -88s29.334 -40.334 44.001 -53.001c45.333 -41.333 94.666 -63 147.999 -65h1h1h16
c17.333 0.666992 34.166 3 50.499 7s31.833 9.66699 46.5 17l3 1c5.33301 2.66699 9.66602 4 12.999 4c7.33301 0 13.666 -2.66699 18.999 -8s8 -11.666 8 -18.999c0 -12 -5.33301 -20.333 -16 -25l-4 -1c-17.333 -8.66699 -35.833 -15.5 -55.5 -20.5
s-40.167 -8.16699 -61.5 -9.5h-11h-4c-68.667 0 -132 26 -190 78c-30 27.333 -51.833 56.666 -65.5 87.999s-22.167 63 -25.5 95h-50c-8 0 -14.667 2.83301 -20 8.5s-8 12.167 -8 19.5z" />
    <glyph glyph-name="trademark" unicode="&#x2122;" horiz-adv-x="737" 
d="M70 668c0 6.66699 2.16699 12 6.5 16s9.5 6 15.5 6h244c6 0 11.167 -2 15.5 -6s6.5 -9.33301 6.5 -16c0 -6 -2.16699 -11.167 -6.5 -15.5s-9.5 -6.5 -15.5 -6.5h-97v-159c0 -6 -2.16699 -11.167 -6.5 -15.5s-9.5 -6.5 -15.5 -6.5s-11.167 2.16699 -15.5 6.5
s-6.5 9.5 -6.5 15.5v159h-103c-6 0 -11.167 2.16699 -15.5 6.5s-6.5 9.5 -6.5 15.5zM333.5 481.5c-2.33301 5.66699 -2.16699 11.1641 0.5 16.4971l79 179c3.33301 8.66699 10.333 13 21 13c8.66699 0 15.334 -4.66699 20.001 -14l48 -131l60 132
c3.33301 10 10.333 14.333 21 13c9.33301 0 15.666 -4.66699 18.999 -14l65 -183c2 -6 1.66699 -11.667 -1 -17s-7 -9 -13 -11c-2.66699 -1.33301 -5 -2 -7 -2c-10.667 0 -17.667 5 -21 15l-46 131l-59 -131c-4 -10 -11 -14.333 -21 -13c-10 0 -16.667 4.66699 -20 14
l-48 130l-57 -129c-2.66699 -5.33301 -6.83398 -9.16602 -12.501 -11.499s-11.167 -2.16602 -16.5 0.500977s-9.16602 6.83398 -11.499 12.501z" />
    <glyph glyph-name="uni25FC" unicode="&#x25fc;" horiz-adv-x="500" 
d="M0 0v500h500v-500h-500z" />
    </font>
</defs>
</svg>
