<?xml version="1.0" standalone="no"?>
<!DOCTYPE svg PUBLIC "-//W3C//DTD SVG 1.1//EN" "http://www.w3.org/Graphics/SVG/1.1/DTD/svg11.dtd" >
<svg version="1.1" xmlns="http://www.w3.org/2000/svg">
<metadata>
Created by FontForge 20120731 at Fri Aug  1 16:50:19 2014
 By Alfred Xing
(c) Craig Rozynski 2013
</metadata>
<defs>
<font id="comicneue" horiz-adv-x="382" >
  <font-face 
    font-family="Comic Neue"
    font-weight="400"
    font-style="oblique"
    font-stretch="normal"
    units-per-em="1000"
    panose-1="0 0 0 0 0 0 0 0 0 0"
    ascent="750"
    descent="-250"
    x-height="498.998"
    cap-height="681.999"
    bbox="-99.998 -180 823.999 820"
    underline-thickness="49"
    underline-position="-50"
    unicode-range="U+000D-25FC"
  />
<missing-glyph horiz-adv-x="365" 
d="M33 0v667h266v-667h-266zM66 33h200v600h-200v-600z" />
    <glyph glyph-name=".notdef" horiz-adv-x="365" 
d="M33 0v667h266v-667h-266zM66 33h200v600h-200v-600z" />
    <glyph glyph-name="glyph1" horiz-adv-x="1000" 
 />
    <glyph glyph-name="glyph1" horiz-adv-x="1000" 
 />
    <glyph glyph-name="uni000D" unicode="&#xd;" horiz-adv-x="1000" 
 />
    <glyph glyph-name="space" unicode=" " horiz-adv-x="329" 
 />
    <glyph glyph-name="exclam" unicode="!" horiz-adv-x="283" 
d="M4 63c4 16.667 13.334 30.667 28.001 42c14.667 12.667 30 19 46 19c17.333 0 29.666 -6 36.999 -18c8.66699 -14 10 -30 4 -48v-1c-6 -16 -15.333 -29 -28 -39c-7.33301 -6.66699 -15 -11.5 -23 -14.5s-16 -4.5 -24 -4.5c-14 0 -25.667 5.66699 -35 17
c-10 13.333 -11.667 29 -5 47zM51.001 249l83.0039 378c3.33301 15.333 11.166 28.166 23.499 38.499s26.166 15.5 41.499 15.5s27.166 -5.16699 35.499 -15.5s10.833 -23.166 7.5 -38.499l-81 -378c-3.33301 -15.333 -11.333 -28.333 -24 -39s-26.667 -16 -42 -16
s-27.333 5.33301 -36 16s-11.334 23.667 -8.00098 39z" />
    <glyph glyph-name="quotedbl" unicode="&#x22;" horiz-adv-x="392" 
d="M53 533l28.001 133c3.33301 14 11.166 26 23.499 36s25.5 15 39.5 15s25 -5 33 -15s10.333 -22 7 -36l-28 -133c-3.33301 -14 -11 -26.167 -23 -36.5s-25 -15.5 -39 -15.5s-25.167 5.16699 -33.5 15.5s-10.833 22.5 -7.5 36.5zM203.001 533l28.001 133
c3.33301 14 11.166 26 23.499 36s25.5 15 39.5 15s25 -5 33 -15s10.333 -22 7 -36l-28 -133c-3.33301 -14 -11 -26.167 -23 -36.5s-25 -15.5 -39 -15.5s-25.167 5.16699 -33.5 15.5s-10.833 22.5 -7.5 36.5z" />
    <glyph glyph-name="numbersign" unicode="#" horiz-adv-x="708" 
d="M2 244c3.33301 14.667 11.3301 27.168 23.9971 37.501s26.334 15.5 41.001 15.5h100l48 94h-87c-14.667 0 -26.167 5 -34.5 15s-10.833 22.333 -7.5 37s11.166 27.167 23.499 37.5s25.833 15.5 40.5 15.5h117l74 148c6 11.333 14.5 20.5 25.5 27.5s22.167 10.5 33.5 10.5
c3.33301 0 8.33301 -0.666992 15 -2c12 -4 20.667 -12.333 26 -25c4 -13.333 2.66699 -27 -4 -41l-60 -118h82l74 148c6 11.333 14.5 20.5 25.5 27.5s22.167 10.5 33.5 10.5c3.33301 0 8.33301 -0.666992 15 -2c13.333 -4.66699 22 -13 26 -25c4 -13.333 2.66699 -27 -4 -41
l-59 -118h55c14.667 0 26.167 -5.16699 34.5 -15.5s10.833 -22.833 7.5 -37.5s-11.166 -27 -23.499 -37s-25.833 -15 -40.5 -15h-86l-47 -94h72c14.667 0 26 -5.16699 34 -15.5s10.333 -22.833 7 -37.5s-11.166 -27.167 -23.499 -37.5s-25.833 -15.5 -40.5 -15.5h-103
l-77 -153c-5.33301 -11.333 -13.5 -20.5 -24.5 -27.5s-22.167 -10.5 -33.5 -10.5c-3.33301 0 -8.33301 0.666992 -15 2c-12.667 4 -21.667 12.333 -27 25c-3.33301 14 -1.66602 27.333 5.00098 40l62 124h-82l-77 -153c-5.33301 -11.333 -13.5 -20.5 -24.5 -27.5
s-22.5 -10.5 -34.5 -10.5c-4 0 -8.66699 0.666992 -14 2c-12.667 4 -21.667 12.333 -27 25c-4 13.333 -2.33301 26.666 5 39.999l62 124h-70c-14.667 0 -26.167 5.16699 -34.5 15.5s-10.833 22.833 -7.5 37.5zM276.997 297.001h83l47 94h-82z" />
    <glyph glyph-name="dollar" unicode="$" horiz-adv-x="616" 
d="M0.5 154.5c-0.333008 3.66699 0.170898 7.49609 1.50391 11.4961c3.33301 15.333 11.666 28.5 24.999 39.5s27.666 16.5 42.999 16.5c12.667 0 23 -3.66699 31 -11s12.667 -17 14 -29c3.33301 -23.333 15 -42 35 -56c5.33301 -4.66699 11.666 -8.5 18.999 -11.5
s14.666 -5.83301 21.999 -8.5l45 210c-34 13.333 -60.667 28 -80 44s-33.166 32.5 -41.499 49.5s-12.5 34 -12.5 51s2 32.833 6 47.5c16 55.333 48 98 96 128c15.333 9.33301 32 17.5 50 24.5s37.333 12.167 58 15.5l4 17c3.33301 15.333 11.166 28.166 23.499 38.499
s25.833 15.5 40.5 15.5c15.333 0 27.166 -5.16699 35.499 -15.5s10.833 -23.166 7.5 -38.499l-3 -13c11.333 -0.666992 23.666 -2.16699 36.999 -4.5s26.5 -6.16602 39.5 -11.499s25.167 -12.333 36.5 -21s20.666 -19.334 27.999 -32.001
c13.333 -21.333 18 -47.666 14 -78.999c-0.666992 -0.666992 -1 -1.33398 -1 -2.00098v-2v-1c-3.33301 -14.667 -11.333 -27.167 -24 -37.5s-26.334 -15.5 -41.001 -15.5c-13.333 0 -24 4.33301 -32 13s-11.667 19.667 -11 33c0.666992 9.33301 -0.666016 18 -3.99902 26
c-8 12 -24 21 -48 27l-8 2l-8 2l-38 -179c56 -20 96 -45 120 -75c29.333 -35.333 37.333 -79 24 -131c-8 -33.333 -23 -63.666 -45 -90.999c-23.333 -27.333 -51.666 -49.666 -84.999 -66.999c-18 -9.33301 -35.5 -16.666 -52.5 -21.999s-32.167 -9.33301 -45.5 -12l-5 -19
c-3.33301 -15.333 -11.166 -28.166 -23.499 -38.499s-26.166 -15.5 -41.499 -15.5c-14.667 0 -26.167 5.16699 -34.5 15.5s-10.833 23.166 -7.5 38.499l4 17c-45.333 7.33301 -82.5 23.833 -111.5 49.5s-47.167 57.834 -54.5 96.501
c-0.666992 3.33301 -1.16699 6.83301 -1.5 10.5zM219.004 494.996c-4 -12.667 -1.50098 -24.168 7.49902 -34.501s20.5 -19.166 34.5 -26.499l28 135c-23.333 -7.33301 -39.666 -17.5 -48.999 -30.5s-16.333 -27.167 -21 -42.5v-1zM299.003 108.995
c14.667 4.66699 27.665 10.667 38.998 18c14.667 8.66699 26.334 19 35.001 31s15.334 26 20.001 42c1.33301 5.33301 2.33301 10.833 3 16.5s-1 12.167 -5 19.5c-4.66699 9.33301 -12.167 17.833 -22.5 25.5s-21.5 14.167 -33.5 19.5z" />
    <glyph glyph-name="percent" unicode="%" horiz-adv-x="677" 
d="M44 473c-4 18 -4.00098 37.333 -0.000976562 58c4.66699 20.667 12.834 40 24.501 58s25.667 33.667 42 47s34.333 24 54 32s39.834 12 60.501 12s39.167 -4 55.5 -12s29.833 -18.667 40.5 -32s18 -29 22 -47s3.66699 -37.333 -1 -58c-4 -20.667 -11.833 -40 -23.5 -58
s-25.667 -33.833 -42 -47.5s-34.333 -24.334 -54 -32.001s-39.834 -11.5 -60.501 -11.5s-39.167 3.83301 -55.5 11.5s-29.833 18.334 -40.5 32.001s-18 29.5 -22 47.5zM69.999 38c-2 12 2.00195 24.667 12.002 38l441 576c6 8 13.667 14.333 23 19s18.666 7 27.999 7
c7.33301 0 14.666 -2.33301 21.999 -7c10.667 -6 16.667 -16 18 -30c0.666992 -12 -3.33301 -24.667 -12 -38l-442 -576c-6 -8 -13.333 -14.333 -22 -19s-17.667 -7 -27 -7s-17.333 2.33301 -24 7c-10 5.33301 -15.667 15.333 -17 30zM148.001 531
c-2.66699 -12.667 -0.332031 -23.334 7.00098 -32.001s17 -13 29 -13c12.667 0 24.167 4.33301 34.5 13s16.833 19.334 19.5 32.001c2.66699 12 0.666992 22.333 -6 31s-16.334 13 -29.001 13c-12 0 -23.5 -4.33301 -34.5 -13s-17.833 -19 -20.5 -31zM336.003 91
c-4 18 -4.00195 37.333 -0.00195312 58c4.66699 20.667 12.834 40 24.501 58s25.667 33.667 42 47s34.333 24 54 32s39.834 12 60.501 12s39.334 -4 56.001 -12s30.167 -18.667 40.5 -32s17.5 -29 21.5 -47s3.66699 -37.333 -1 -58c-4 -20.667 -11.833 -40 -23.5 -58
s-25.667 -33.833 -42 -47.5s-34.333 -24.334 -54 -32.001s-39.834 -11.5 -60.501 -11.5s-39.167 3.83301 -55.5 11.5s-29.833 18.334 -40.5 32.001s-18 29.5 -22 47.5zM441.001 149c-2.66699 -12.667 -0.498047 -23.334 6.50195 -32.001s16.5 -13 28.5 -13
c12.667 0 24.167 4.33301 34.5 13s16.833 19.334 19.5 32.001s0.666992 23.334 -6 32.001s-16.334 13 -29.001 13c-12 0 -23.333 -4.33301 -34 -13s-17.334 -19.334 -20.001 -32.001z" />
    <glyph glyph-name="ampersand" unicode="&#x26;" horiz-adv-x="551" 
d="M5 194c10.667 53.333 38 99.0049 82 137.005c14 12 28.833 22.833 44.5 32.5s31.167 18.5 46.5 26.5c-3.33301 7.33301 -6.5 14.166 -9.5 20.499s-5.5 13.166 -7.5 20.499c-11.333 32 -14 63.333 -8 94c9.33301 43.333 34.333 80.333 75 111
c18.667 14 38.167 24.833 58.5 32.5s40.166 11.5 59.499 11.5c20 0 38.667 -4 56 -12s32.333 -19.333 45 -34c26 -31.333 35 -67 27 -107c-3.33301 -13.333 -8 -28 -14 -44s-16.333 -32 -31 -48c-10.667 -12.667 -23.834 -24.834 -39.501 -36.501
s-34.5 -23.834 -56.5 -36.501l60 -96c1.33301 3.33301 2.83301 6.16602 4.5 8.49902s3.16699 5.16602 4.5 8.49902l5 11c5.33301 11.333 13.5 20.5 24.5 27.5s22.167 10.5 33.5 10.5c14 0 25 -5 33 -15s10.333 -22.333 7 -37c-0.666992 -2 -1.33398 -4.16699 -2.00098 -6.5
s-1.66699 -4.83301 -3 -7.5l-5 -11c-7.33301 -14 -14.833 -27.5 -22.5 -40.5s-15.5 -25.5 -23.5 -37.5l56 -90c6.66699 -9.33301 8.33398 -20.333 5.00098 -33c-3.33301 -14 -11 -26 -23 -36s-25 -15 -39 -15c-16.667 0 -28.667 6.33301 -36 19l-41 65
c-22 -20 -43.667 -35.833 -65 -47.5s-40.666 -20.5 -57.999 -26.5s-32.666 -9.83301 -45.999 -11.5s-23 -2.5 -29 -2.5c-25.333 0 -49.5 4.5 -72.5 13.5s-42.5 21.5 -58.5 37.5c-18 18.667 -30.167 40.334 -36.5 65.001s-6.5 51 -0.5 79zM107 194.005
c-6 -28 1 -50.6689 21 -68.002c10 -9.33301 21.333 -15.666 34 -18.999s23.667 -5 33 -5c3.33301 0 9.33301 0.5 18 1.5s19.667 4.16699 33 9.5c26 10.667 51 28.667 75 54l-89 144c-15.333 -7.33301 -29.833 -14.666 -43.5 -21.999s-25.834 -15.333 -36.501 -24
c-12 -10 -21.667 -20.667 -29 -32s-12.666 -24.333 -15.999 -39zM256 525.003c-2.66699 -12.667 -1.16895 -26.668 4.49805 -42.001s12.5 -29.666 20.5 -42.999c19.333 10.667 37.833 22.167 55.5 34.5s28.834 28.833 33.501 49.5
c3.33301 15.333 -0.166992 27.833 -10.5 37.5s-22.166 14.5 -35.499 14.5c-14 0 -28 -5 -42 -15s-22.667 -22 -26 -36z" />
    <glyph glyph-name="quotesingle" unicode="'" horiz-adv-x="174" 
d="M42 533l28.001 133c3.33301 14 11.166 26 23.499 36s25.5 15 39.5 15s25 -5 33 -15s10.333 -22 7 -36l-28 -133c-3.33301 -14 -11 -26.167 -23 -36.5s-25 -15.5 -39 -15.5s-25.167 5.16699 -33.5 15.5s-10.833 22.5 -7.5 36.5z" />
    <glyph glyph-name="parenleft" unicode="(" horiz-adv-x="406" 
d="M3 177c-5.33301 58 -1.33301 116.665 12 175.998c12 56.667 33.333 114.334 64 173.001c12.667 22 26.5 43.833 41.5 65.5s31.5 42.834 49.5 63.501c15.333 18.667 30.166 35 44.499 49s27 25.833 38 35.5s19.833 17.167 26.5 22.5l10 8c11.333 7.33301 23.333 11 36 11
c16.667 0 28.667 -6.33301 36 -19c6 -11.333 7 -24 3 -38s-12.333 -25.667 -25 -35c-1.33301 -1.33301 -11.333 -9.83301 -30 -25.5s-40.334 -37.834 -65.001 -66.501c-14 -17.333 -27 -34.833 -39 -52.5s-23 -35.5 -33 -53.5c-26 -46 -43.333 -92 -52 -138
c-10.667 -47.333 -14 -95 -10 -143c2.66699 -37.333 10.334 -74.666 23.001 -111.999c10.667 -30.667 21.334 -54.5 32.001 -71.5s16.334 -26.167 17.001 -27.5c8 -10 10.5 -22.167 7.5 -36.5s-10.5 -26.5 -22.5 -36.5c-12.667 -10.667 -26.667 -16 -42 -16
c-14.667 0 -25.334 5 -32.001 15c-6.66699 8 -13.667 18 -21 30c-6 10 -12.5 22.333 -19.5 37s-13.833 31.667 -20.5 51c-15.333 44 -25 88.667 -29 134z" />
    <glyph glyph-name="parenright" unicode=")" horiz-adv-x="406" 
d="M3 -33c4 14 12.334 25.668 25.001 35.001c1.33301 1.33301 11.333 9.83301 30 25.5s40.334 37.834 65.001 66.501c14 17.333 27 34.833 39 52.5s23 35.5 33 53.5c26 46 43.333 92 52 138c10.667 47.333 14 95 10 143c-2.66699 37.333 -10.334 74.666 -23.001 111.999
c-10.667 30.667 -21.334 54.5 -32.001 71.5s-16.334 26.167 -17.001 27.5c-8 10 -10.5 22.167 -7.5 36.5s10.5 26.5 22.5 36.5c12.667 10.667 26.667 16 42 16c14 0 24.667 -5 32 -15c6.66699 -8.66699 13.667 -19 21 -31c6 -10 12.5 -22.167 19.5 -36.5
s13.833 -31.166 20.5 -50.499c15.333 -44 25 -88.667 29 -134c5.33301 -58 1.33301 -116.667 -12 -176c-12 -56.667 -33.333 -114.334 -64 -173.001c-12.667 -22 -26.5 -43.833 -41.5 -65.5s-31.5 -42.834 -49.5 -63.501c-15.333 -18.667 -30.166 -35 -44.499 -49
s-27 -25.833 -38 -35.5s-19.833 -17.167 -26.5 -22.5l-10 -8c-11.333 -7.33301 -23.333 -11 -36 -11c-16.667 0 -28.667 6.33301 -36 19c-6 11.333 -7 24 -3 38z" />
    <glyph glyph-name="asterisk" unicode="*" horiz-adv-x="346" 
d="M2 462c3.33301 15.333 10.667 27.665 22 36.998l5.5 5.5c3 3 6.5 6.16699 10.5 9.5s7.66699 6.66602 11 9.99902s6 5.66602 8 6.99902c-0.666992 0 -1 0.166992 -1 0.5s-0.333008 0.5 -1 0.5l-28 16h-1c-11.333 7.33301 -17.333 18.166 -18 32.499s4 27.833 14 40.5
c15.333 17.333 32.666 26 51.999 26c9.33301 0 17.666 -2 24.999 -6c1.33301 -0.666992 3 -1.66699 5 -3s4.33301 -2.66602 7 -3.99902c0.666992 1.33301 1 3 1 5s0.333008 3.66699 1 5c0 2 0.333008 3.33301 1 4c3.33301 14.667 11.333 27.167 24 37.5
s26.334 15.5 41.001 15.5c15.333 0 26.833 -5.16699 34.5 -15.5s9.83398 -22.833 6.50098 -37.5c-0.666992 -1.33301 -1 -3 -1 -5c-0.666992 -1.33301 -1 -3 -1 -5s-0.333008 -3.66699 -1 -5c4 1.33301 7.5 2.66602 10.5 3.99902s5.16699 2.33301 6.5 3
c8.66699 4.66699 17.667 7 27 7c20 0 33.333 -9 40 -27c5.33301 -12.667 4.33301 -26 -3 -40c-7.33301 -15.333 -18 -26.333 -32 -33h-1c-5.33301 -2.66699 -11.666 -5.66699 -18.999 -9s-12.666 -5.66602 -15.999 -6.99902c3.33301 -4 7.33301 -9.66699 12 -17
s7.66699 -11.666 9 -12.999c8 -10 10.333 -22.667 7 -38c-2.66699 -14 -10.667 -26.333 -24 -37c-12.667 -10.667 -26 -16 -40 -16c-14.667 0 -26.334 5.33301 -35.001 16h-1v1c-0.666992 0.666992 -2.16699 2.66699 -4.5 6s-4.83301 7 -7.5 11l-8 12
c-2.66699 4 -4.66699 6.66699 -6 8c-0.666992 0.666992 -1 1.33398 -1 2.00098s-0.333008 1.33398 -1 2.00098c-0.666992 -1.33301 -1.33398 -2.16602 -2.00098 -2.49902s-1.66699 -1.16602 -3 -2.49902s-4.16602 -4 -8.49902 -8l-13 -12
c-4.33301 -4 -8.5 -7.66699 -12.5 -11s-6.33301 -5.33301 -7 -6l-1 -1c-12.667 -10.667 -26.667 -16 -42 -16c-13.333 0 -24.333 5.33301 -33 16c-8.66699 9.33301 -11.334 21.666 -8.00098 36.999z" />
    <glyph glyph-name="plus" unicode="+" horiz-adv-x="389" 
d="M2 250c2.66699 13.333 9.83496 25 21.502 35s24.5 15 38.5 15h73l12 53l2 10c3.33301 14 10.833 25.833 22.5 35.5s24.167 14.5 37.5 14.5c14 0 25 -4.83301 33 -14.5s10.333 -21.5 7 -35.5l-2 -10l-12 -53h74c14 0 24.833 -5 32.5 -15s10.167 -21.667 7.5 -35
c-3.33301 -14 -10.833 -25.833 -22.5 -35.5s-24.5 -14.5 -38.5 -14.5h-74l-15 -71l-1 -2c-2.66699 -14 -9.83398 -25.833 -21.501 -35.5s-24.5 -14.5 -38.5 -14.5c-13.333 0 -24 4.83301 -32 14.5s-10.667 21.5 -8 35.5l16 73h-73c-14 0 -24.833 4.83301 -32.5 14.5
s-9.83398 21.5 -6.50098 35.5z" />
    <glyph glyph-name="comma" unicode="," horiz-adv-x="173" 
d="M-58.5 -78c-3 11.333 -0.829102 23.001 6.50391 35.001l27 43c-2 5.33301 -2.83301 11.166 -2.5 17.499s1.16602 12.833 2.49902 19.5c5.33301 16 14.666 29.667 27.999 41c16 12.667 31.333 19 46 19c17.333 0 29.666 -6.33301 36.999 -19
c9.33301 -12 10.666 -27.667 3.99902 -47c-1.33301 -3.33301 -2.83301 -7 -4.5 -11s-3.16699 -6.66699 -4.5 -8l-26 -44c-3.33301 -5.33301 -6.5 -10.666 -9.5 -15.999s-5.83301 -10 -8.5 -14c-2.66699 -4.66699 -5.66699 -9.33398 -9 -14.001
c-6 -10.667 -15.5 -19 -28.5 -25s-25.167 -6.33301 -36.5 -1c-11.333 4.66699 -18.5 12.667 -21.5 24z" />
    <glyph glyph-name="hyphen" unicode="-" 
d="M2 248c3.33301 14.667 11.167 27 23.5 37s25.5 15 39.5 15h235c14.667 0 26 -5 34 -15s10.333 -22.333 7 -37s-11 -27 -23 -37s-25.333 -15 -40 -15h-235c-14 0 -25.167 5 -33.5 15s-10.833 22.333 -7.5 37z" />
    <glyph glyph-name="period" unicode="." horiz-adv-x="211" 
d="M2 60l11.999 36.999c4.66699 16 14.167 29.333 28.5 40s29.5 15.334 45.5 14.001c15.333 -1.33301 27 -7.83301 35 -19.5s10.333 -25.5 7 -41.5l-13 -37c-4.66699 -15.333 -14 -28.5 -28 -39.5s-29 -15.833 -45 -14.5c-15.333 1.33301 -27.166 7.83301 -35.499 19.5
s-10.5 25.5 -6.5 41.5z" />
    <glyph glyph-name="slash" unicode="/" horiz-adv-x="556" 
d="M0.5 38.5c-1 13.667 3.16797 27.167 12.501 40.5l448 583c14 18 31.333 27 52 27c9.33301 0 17.666 -2 24.999 -6c11.333 -8 17.333 -18.667 18 -32c1.33301 -14 -3.33398 -27.333 -14.001 -40l-447 -584c-6 -8 -13.667 -14.5 -23 -19.5s-18.666 -7.5 -27.999 -7.5
c-10 0 -18.333 2.33301 -25 7c-11.333 7.33301 -17.5 17.833 -18.5 31.5z" />
    <glyph glyph-name="zero" unicode="0" horiz-adv-x="524" 
d="M2.5 187.5c-5 48.333 -0.830078 99.832 12.5029 154.499c11.333 44 27.166 85.833 47.499 125.5s44.5 75.167 72.5 106.5c30.667 34.667 63 61.167 97 79.5s68 27.5 102 27.5c26 0 49.667 -5.83301 71 -17.5s39.666 -28.167 54.999 -49.5
c23.333 -32 37.5 -72.167 42.5 -120.5s0.5 -100.166 -13.5 -155.499c-10.667 -43.333 -26.334 -84.833 -47.001 -124.5s-45 -75.167 -73 -106.5c-30.667 -34.667 -63 -61.167 -97 -79.5s-68 -27.5 -102 -27.5c-53.333 0 -95.333 22.333 -126 67
c-22.667 32 -36.5 72.167 -41.5 120.5zM107.003 223.999c4 -35.333 12.998 -63.001 26.998 -83.001c16 -22 35.333 -33 58 -33c17.333 0 35.333 5.33301 54 16s37 26.667 55 48c20 22.667 37.167 48.5 51.5 77.5s25.5 59.833 33.5 92.5c5.33301 20 8.83301 39.833 10.5 59.5
s1.83398 38.167 0.500977 55.5c-3.33301 34.667 -12.666 62.334 -27.999 83.001c-14 22 -33.333 33 -58 33c-34.667 0 -71 -21.667 -109 -65c-19.333 -22.667 -36.333 -48.5 -51 -77.5s-26 -59.833 -34 -92.5c-8.66699 -39.333 -12 -77.333 -10 -114z" />
    <glyph glyph-name="one" unicode="1" horiz-adv-x="413" 
d="M2 55c3.33301 15.333 11.5029 28.332 24.5029 38.999s27.167 16 42.5 16h56l85 371l-31 -26c-6 -6 -13 -10.5 -21 -13.5s-15.667 -4.5 -23 -4.5c-15.333 0 -26.333 5 -33 15c-9.33301 10 -12.833 22.5 -10.5 37.5s10.166 28.167 23.499 39.5l150 132
c13.333 12 28 18 44 18c3.33301 0 6.5 -0.333008 9.5 -1s6.16699 -1.66699 9.5 -3c9.33301 -4.66699 16.333 -11.667 21 -21s5.66699 -19.666 3 -30.999l-118 -513h41c15.333 0 27.166 -5.33301 35.499 -16s10.833 -23.667 7.5 -39s-11.333 -28.333 -24 -39
s-26.667 -16 -42 -16h-206c-15.333 0 -27.333 5.33301 -36 16s-11.334 23.667 -8.00098 39z" />
    <glyph glyph-name="two" unicode="2" horiz-adv-x="545" 
d="M0 0l10.9961 52.9912c16.667 81.333 54.334 150.333 113.001 207c24.667 24 50.334 44.5 77.001 61.5s52.667 32.5 78 46.5c20 12 37.833 22.833 53.5 32.5s29 19.334 40 29.001s19.833 19.834 26.5 30.501s11.667 23 15 37c4.66699 21.333 0.333984 39.333 -12.999 54
c-15.333 15.333 -37 23 -65 23c-29.333 0 -60 -9.66699 -92 -29c-12.667 -8 -23 -15.5 -31 -22.5s-12.333 -11.167 -13 -12.5c-14.667 -13.333 -30.334 -20 -47.001 -20c-11.333 0 -21.666 3.66699 -30.999 11c-9.33301 9.33301 -13.333 21.333 -12 36
s7.66602 27.667 18.999 39c5.33301 5.33301 15.333 14.333 30 27s33.334 25.334 56.001 38.001c48.667 27.333 96.334 41 143.001 41c26.667 0 51 -4.33301 73 -13s40.667 -20.667 56 -36c35.333 -35.333 46.666 -80.666 33.999 -135.999
c-5.33301 -26 -14.666 -50.333 -27.999 -73s-31.333 -44 -54 -64c-18 -16.667 -37.333 -31.5 -58 -44.5s-41.667 -25.167 -63 -36.5c-22.667 -13.333 -44.834 -26.666 -66.501 -39.999s-41.167 -28.666 -58.5 -45.999c-18 -18 -33 -37 -45 -57
c-2.66699 -5.33301 -5.16699 -10.166 -7.5 -14.499s-4.5 -9.16602 -6.5 -14.499h259c14.667 0 26.167 -5.16699 34.5 -15.5s10.833 -23.166 7.5 -38.499c-3.33301 -14.667 -11.166 -27.167 -23.499 -37.5s-25.833 -15.5 -40.5 -15.5h-371z" />
    <glyph glyph-name="three" unicode="3" horiz-adv-x="533" 
d="M2 120c-2 8.66699 -1.33496 18.3389 1.99805 29.0059c5.33301 13.333 13.833 24.166 25.5 32.499s23.834 12.5 36.501 12.5c4 0 6.66699 -0.333008 8 -1c17.333 -2 28.666 -11.333 33.999 -28v-3c0.666992 -0.666992 2.16699 -3.83398 4.5 -9.50098
s6.83301 -11.834 13.5 -18.501c19.333 -19.333 45 -29 77 -29c9.33301 0 21 1.83301 35 5.5s28 10.167 42 19.5c29.333 18.667 48 46.667 56 84c5.33301 26.667 3.66602 47.667 -5.00098 63c-7.33301 14 -18.666 24.667 -33.999 32c-14.667 7.33301 -28.667 11.833 -42 13.5
s-20.666 2.5 -21.999 2.5c-14.667 0.666992 -26 6.16699 -34 16.5s-10.333 22.5 -7 36.5c3.33301 14.667 11.166 27.167 23.499 37.5s25.833 15.5 40.5 15.5c11.333 0 24.333 2.33301 39 7s28.667 11 42 19c28 17.333 44.333 36.666 49 57.999
c3.33301 14 -1.33398 26.667 -14.001 38c-5.33301 5.33301 -13.5 10.166 -24.5 14.499s-26.167 6.5 -45.5 6.5c-15.333 0 -28.833 -1.33301 -40.5 -4s-21.5 -5.66699 -29.5 -9s-14.167 -6.5 -18.5 -9.5s-6.83301 -4.83301 -7.5 -5.5l-2 -1l-3 -2
c-12 -8.66699 -24.333 -13 -37 -13c-14.667 0 -26 5.16699 -34 15.5s-10.333 22.833 -7 37.5c3.33301 14 11 26 23 36c1.33301 1.33301 6.5 5.33301 15.5 12s21.167 13.667 36.5 21c40.667 18.667 82.667 28 126 28c56 0 100.667 -15.667 134 -47
c15.333 -15.333 25.833 -33.333 31.5 -54s6.16699 -42 1.5 -64c-5.33301 -25.333 -16.166 -49.5 -32.499 -72.5s-37.166 -43.167 -62.499 -60.5c14 -12.667 25.333 -27 34 -43c17.333 -35.333 21 -77 11 -125c-9.33301 -40 -25.666 -75.333 -48.999 -106
c-18.667 -24.667 -40.667 -45.334 -66 -62.001c-22 -14.667 -45.667 -26 -71 -34s-50 -12 -74 -12c-37.333 0 -67.333 6 -90 18s-40 24.667 -52 38s-20.5 25.5 -25.5 36.5s-8.16699 18.167 -9.5 21.5l-1 5z" />
    <glyph glyph-name="four" unicode="4" horiz-adv-x="512" 
d="M2 210c2 9.33301 6.66797 17.999 14.001 25.999l343 419c6 8 13.5 14.333 22.5 19s18.167 7 27.5 7c3.33301 0 8.33301 -0.666992 15 -2c10 -3.33301 17.667 -9.83301 23 -19.5s6.66602 -20.167 3.99902 -31.5l-79 -371l5 -1c15.333 0 27 -5.16699 35 -15.5
s10.333 -22.833 7 -37.5c-2 -7.33301 -5 -14.166 -9 -20.499s-9 -11.833 -15 -16.5c-12.667 -10.667 -26.334 -16 -41.001 -16h-1l-3 1l-21 -98c-3.33301 -15.333 -11.166 -28 -23.499 -38s-25.833 -15 -40.5 -15s-26.167 5 -34.5 15s-10.833 22.667 -7.5 38l21 99l-201 4
c-9.33301 0 -17.5 2.5 -24.5 7.5s-12.167 11.5 -15.5 19.5c-2.66699 8.66699 -3 17.667 -1 27zM159.001 259.999l107 -2l39 180z" />
    <glyph glyph-name="five" unicode="5" horiz-adv-x="551" 
d="M1 141c3.33301 15.333 11.333 28.167 24 38.5s26.667 15.5 42 15.5c20.667 0 34.334 -9.33301 41.001 -28c0.666992 -1.33301 2.5 -4.83301 5.5 -10.5s8.16699 -12.167 15.5 -19.5c18.667 -20 44.667 -30 78 -30c14.667 0 30.5 3.66699 47.5 11
s32.833 17.666 47.5 30.999c18 15.333 32.833 32.833 44.5 52.5s20.167 40.5 25.5 62.5c3.33301 15.333 4.66602 31 3.99902 47s-4.16699 30.5 -10.5 43.5s-15.833 23.5 -28.5 31.5s-29.334 12 -50.001 12c-16.667 0 -32.334 -2.5 -47.001 -7.5s-27.5 -10.667 -38.5 -17
s-19.833 -12.166 -26.5 -17.499s-10.334 -8 -11.001 -8c-14 -12.667 -29 -19 -45 -19c-7.33301 0 -14 1.33301 -20 4c-10 4.66699 -16.833 12 -20.5 22s-3.5 21 0.5 33l76 245c4.66699 13.333 13 24.666 25 33.999s25 14 39 14h268c15.333 0 27.166 -5.16699 35.499 -15.5
s10.833 -23.166 7.5 -38.499c-3.33301 -14.667 -11.166 -27.167 -23.499 -37.5s-26.166 -15.5 -41.499 -15.5h-220l-27 -85c30 10.667 60.667 16 92 16c29.333 0 56 -5.33301 80 -16s44 -26 60 -46c34.667 -44.667 44.334 -104.334 29.001 -179.001
c-7.33301 -36 -20.833 -70.167 -40.5 -102.5s-44.5 -61.166 -74.5 -86.499c-28 -24 -57.333 -42.5 -88 -55.5s-61 -19.5 -91 -19.5c-29.333 0 -56.166 4.83301 -80.499 14.5s-45.833 23.5 -64.5 41.5c-13.333 13.333 -22.5 25.833 -27.5 37.5s-8.16699 18.834 -9.5 21.501
l-1 1c-2 7.33301 -2.33301 15.666 -1 24.999z" />
    <glyph glyph-name="six" unicode="6" horiz-adv-x="492" 
d="M0 188.5c0.666992 21 3.66699 43.498 9 67.498c8.66699 42 21 80.167 37 114.5s33.833 65.166 53.5 92.499s40.167 51.5 61.5 72.5s41.666 39.167 60.999 54.5c30 23.333 58 42 84 56s45.667 23.667 59 29l2 1l1 1c6.66699 2 13 3 19 3c14.667 0 26 -5 34 -15
s10.333 -22.333 7 -37c-2 -10 -6.66699 -19.167 -14 -27.5s-16 -14.5 -26 -18.5l-4 -2c-11.333 -5.33301 -26.833 -13.166 -46.5 -23.499s-40.834 -24.5 -63.501 -42.5c-12 -9.33301 -23.5 -19.166 -34.5 -29.499s-21.167 -21.166 -30.5 -32.499
c24.667 6.66699 51.334 10 80.001 10c7.33301 0 20.833 -1.33301 40.5 -4s40.167 -10.667 61.5 -24c11.333 -8 21.5 -17.5 30.5 -28.5s15.833 -23.167 20.5 -36.5c12.667 -33.333 14 -72.666 4 -117.999c-5.33301 -26 -12.666 -49.5 -21.999 -70.5s-19.5 -39.667 -30.5 -56
s-22.333 -30.333 -34 -42s-22.834 -21.5 -33.501 -29.5c-26.667 -19.333 -52.834 -33 -78.501 -41s-47.5 -12 -65.5 -12s-39 2.66699 -63 8s-46 16.666 -66 33.999c-25.333 22.667 -41.666 52 -48.999 88c-3.33301 18 -4.66602 37.5 -3.99902 58.5zM111 255.998
c-12.667 -58.667 -8.00293 -100.666 13.9971 -125.999c16 -18 42 -27 78 -27c6.66699 0 16.5 1.83301 29.5 5.5s26.5 10.834 40.5 21.501c35.333 25.333 59 65.666 71 120.999c9.33301 44 2.33301 74.667 -21 92c-9.33301 7.33301 -19.666 11.833 -30.999 13.5
s-19.666 2.5 -24.999 2.5c-33.333 0 -65 -7.33301 -95 -22c-19.333 -10 -34.666 -19.333 -45.999 -28c-6 -16.667 -11 -34.334 -15 -53.001z" />
    <glyph glyph-name="seven" unicode="7" horiz-adv-x="480" 
d="M1 38c-1.33301 6.66699 -0.828125 13.501 1.50488 20.501s5.83301 13.833 10.5 20.5l353 493h-248c-15.333 0 -27 5.16699 -35 15.5s-10.333 23.166 -7 38.499s11.166 28.166 23.499 38.499s26.166 15.5 41.499 15.5h336c20 0 33.667 -8.66699 41 -26
c3.33301 -7.33301 4.16602 -15.833 2.49902 -25.5s-5.83398 -18.5 -12.501 -26.5l-409 -572c-6.66699 -9.33301 -14.834 -16.666 -24.501 -21.999s-19.5 -8 -29.5 -8c-9.33301 0 -17.333 2 -24 6c-11.333 7.33301 -18 18 -20 32z" />
    <glyph glyph-name="eight" unicode="8" horiz-adv-x="501" 
d="M2.5 124c-3.66699 22 -2.16602 44.9971 4.50098 68.9971c5.33301 25.333 14.333 48.833 27 70.5s28.334 41.167 47.001 58.5c16.667 15.333 35 29.333 55 42c-10.667 10 -19.334 20 -26.001 30c-16.667 28.667 -20 63.667 -10 105
c6.66699 30.667 19.334 58.334 38.001 83.001c9.33301 13.333 19.666 25.166 30.999 35.499s24 19.5 38 27.5c18 11.333 37.833 20 59.5 26s42.5 9 62.5 9c28 0 53.333 -5.16699 76 -15.5s40.667 -24.5 54 -42.5c22.667 -30.667 28.334 -69.667 17.001 -117
c-8 -33.333 -21.333 -60.833 -40 -82.5s-38.334 -39.167 -59.001 -52.5c17.333 -16 31 -35.333 41 -58c15.333 -36 18 -75.333 8 -118c-7.33301 -27.333 -18.833 -53.166 -34.5 -77.499s-35.167 -45.166 -58.5 -62.499c-22.667 -17.333 -47.834 -30.833 -75.501 -40.5
s-55.5 -14.5 -83.5 -14.5c-32 0 -60.667 5.83301 -86 17.5s-45.666 27.834 -60.999 48.501c-12.667 17.333 -20.834 37 -24.501 59zM110.001 189.997c-4.66699 -18.667 -2.00098 -35.334 7.99902 -50.001c16 -22 42.333 -33 79 -33c13.333 0 26.666 2 39.999 6
s25.666 9.66699 36.999 17c24.667 16 40.334 38.333 47.001 67c4 17.333 4 32.5 0 45.5s-10 24 -18 33s-17 16.333 -27 22s-18.667 9.83398 -26 12.501c-15.333 -6.66699 -30.666 -13.5 -45.999 -20.5s-29.666 -15.5 -42.999 -25.5c-27.333 -19.333 -44.333 -44 -51 -74z
M204 495.997c-4.66699 -15.333 -2.66504 -28.6621 6.00195 -39.9951c11.333 -12.667 30.666 -23.334 57.999 -32.001c18 7.33301 33 14.166 45 20.499s22 12.5 30 18.5s14.333 12.667 19 20s8 15.666 10 24.999c4 16.667 2.33301 29.667 -5 39
c-5.33301 8 -13.5 14.167 -24.5 18.5s-23.167 6.5 -36.5 6.5c-4.66699 0 -9.66699 -0.333008 -15 -1c-4.66699 -0.666992 -9.83398 -1.83398 -15.501 -3.50098s-11.5 -3.83398 -17.5 -6.50098c-28 -11.333 -46 -33 -54 -65z" />
    <glyph glyph-name="nine" unicode="9" horiz-adv-x="493" 
d="M1 34c-2.66699 13.333 0.50293 26.5 9.50293 39.5s20.833 22.167 35.5 27.5l16 6c0.666992 0 4.5 1.33301 11.5 4s16 6.83398 27 12.501s23.667 12.834 38 21.501s29.166 19 44.499 31c22.667 18 42.667 37 60 57c-12 -3.33301 -24.333 -5.83301 -37 -7.5
s-25.334 -2.5 -38.001 -2.5c-3.33301 0 -8.5 0.166992 -15.5 0.5s-15 1.5 -24 3.5s-18.667 5 -29 9s-20.5 9.33301 -30.5 16c-24.667 14.667 -41.667 36 -51 64c-6.66699 16 -10.167 33.667 -10.5 53s1.83398 40.333 6.50098 63c11.333 52 28.5 93.667 51.5 125
s45.167 54.666 66.5 69.999c25.333 19.333 51 33 77 41s47.667 12 65 12c18.667 0 39.667 -2.66699 63 -8s44.666 -16.333 63.999 -33c24.667 -21.333 41 -50.666 49 -87.999c6 -35.333 4 -76.333 -6 -123c-8.66699 -41.333 -20.834 -79 -36.501 -113s-33 -64.5 -52 -91.5
s-39 -50.833 -60 -71.5s-40.833 -38.334 -59.5 -53.001c-20.667 -16 -40.5 -29.833 -59.5 -41.5s-35.833 -21 -50.5 -28s-26.5 -12.333 -35.5 -16s-13.833 -5.5 -14.5 -5.5l-16 -5c-14.667 -5.33301 -27.667 -4.83301 -39 1.5s-18 16.166 -20 29.499zM117.003 432
c-8.66699 -42 -2.3291 -71.668 19.0039 -89.001c9.33301 -7.33301 19.333 -11.666 30 -12.999s18.667 -2 24 -2c32.667 0 64 7.33301 94 22c9.33301 4.66699 17.666 9.33398 24.999 14.001s13.666 9 18.999 13c2.66699 8 5.16699 16.167 7.5 24.5
s4.16602 17.166 5.49902 26.499c13.333 57.333 8.66602 97.666 -14.001 120.999c-15.333 18 -40.333 27 -75 27c-6 0 -15.167 -1.83301 -27.5 -5.5s-25.5 -10.5 -39.5 -20.5c-33.333 -25.333 -56 -64.666 -68 -117.999z" />
    <glyph glyph-name="colon" unicode=":" horiz-adv-x="260" 
d="M2 60l11.999 36.999c4.66699 16 14.167 29.333 28.5 40s29.5 15.334 45.5 14.001c15.333 -1.33301 27 -7.83301 35 -19.5s10.333 -25.5 7 -41.5l-13 -37c-4.66699 -15.333 -14 -28.5 -28 -39.5s-29 -15.833 -45 -14.5c-15.333 1.33301 -27.166 7.83301 -35.499 19.5
s-10.5 25.5 -6.5 41.5zM90.999 352.999l11.999 36.999c4.66699 16 14.167 29.333 28.5 40s29.5 15.334 45.5 14.001c15.333 -1.33301 27 -7.83301 35 -19.5s10.333 -25.5 7 -41.5l-13 -37c-4.66699 -15.333 -14 -28.5 -28 -39.5s-29 -15.833 -45 -14.5
c-15.333 1.33301 -27.166 7.83301 -35.499 19.5s-10.5 25.5 -6.5 41.5z" />
    <glyph glyph-name="semicolon" unicode=";" horiz-adv-x="352" 
d="M1.5 -76c-3 11.333 -0.829102 23.001 6.50391 35.001l27 43c-2 5.33301 -2.83301 11.166 -2.5 17.499s1.16602 12.833 2.49902 19.5c5.33301 16 14.666 29.667 27.999 41c16 12.667 31.333 19 46 19c17.333 0 29.666 -6.33301 36.999 -19
c9.33301 -12 10.666 -27.667 3.99902 -47c-1.33301 -3.33301 -2.83301 -7 -4.5 -11s-3.16699 -6.66699 -4.5 -8l-26 -44c-3.33301 -5.33301 -6.5 -10.666 -9.5 -15.999s-5.83301 -10 -8.5 -14c-2.66699 -4.66699 -5.66699 -9.33398 -9 -14.001
c-6 -10.667 -15.5 -19 -28.5 -25s-25.167 -6.33301 -36.5 -1c-11.333 4.66699 -18.5 12.667 -21.5 24zM183.004 354.001l11.999 36.999c4.66699 16 14.167 29.333 28.5 40s29.5 15.334 45.5 14.001c15.333 -1.33301 27 -7.83301 35 -19.5s10.333 -25.5 7 -41.5l-13 -37
c-4.66699 -15.333 -14 -28.5 -28 -39.5s-29 -15.833 -45 -14.5c-15.333 1.33301 -27.166 7.83301 -35.499 19.5s-10.5 25.5 -6.5 41.5z" />
    <glyph glyph-name="less" unicode="&#x3c;" horiz-adv-x="503" 
d="M2 248c2 9.33301 6.16797 17.8311 12.501 25.498s13.833 14.167 22.5 19.5l352 198c10 6 20.333 9 31 9c9.33301 0 17.333 -2.16699 24 -6.5s11.667 -10.5 15 -18.5c6 -11.333 5.66699 -24.666 -1 -39.999c-6 -14.667 -16 -25.667 -30 -33l-275 -155l193 -149
c10.667 -8 16 -19.333 16 -34c0 -14 -5.33301 -27.333 -16 -40c-14 -15.333 -30.333 -23 -49 -23c-10.667 0 -20.334 2.66699 -29.001 8l-251 195c-14 10.667 -19 25.334 -15 44.001z" />
    <glyph glyph-name="equal" unicode="=" horiz-adv-x="445" 
d="M2 167c3.33301 14.667 11 27.167 23 37.5s25.667 15.5 41 15.5h262c14.667 0 26 -5.16699 34 -15.5s10.333 -22.833 7 -37.5s-11 -27 -23 -37s-25.333 -15 -40 -15h-262c-15.333 0 -27 5 -35 15s-10.333 22.333 -7 37zM37 332c3.33301 14.667 11 27.167 23 37.5
s25.667 15.5 41 15.5h262c14.667 0 26 -5.16699 34 -15.5s10.333 -22.833 7 -37.5s-11 -27.167 -23 -37.5s-25.333 -15.5 -40 -15.5h-262c-15.333 0 -27 5.16699 -35 15.5s-10.333 22.833 -7 37.5z" />
    <glyph glyph-name="greater" unicode="&#x3e;" horiz-adv-x="503" 
d="M5 26c-6 11.333 -5.66797 24.668 0.999023 40.001c6 14.667 16 25.667 30 33l275 155l-193 149c-10.667 8 -16 19.333 -16 34c0 14 5.33301 27.333 16 40c14 15.333 30.333 23 49 23c10.667 0 20.334 -2.66699 29.001 -8l251 -195c14 -10.667 19 -25.334 15 -44.001
c-2 -9.33301 -6.16699 -17.833 -12.5 -25.5s-13.833 -14.167 -22.5 -19.5l-352 -198c-10 -6 -20.333 -9 -31 -9c-9.33301 0 -17.333 2.16699 -24 6.5s-11.667 10.5 -15 18.5z" />
    <glyph glyph-name="question" unicode="?" horiz-adv-x="504" 
d="M1 38.5c-1.33301 8.33301 -0.330078 16.833 3.00293 25.5c5.33301 16.667 14.666 30.667 27.999 42c14.667 12.667 30 19 46 19c17.333 0 29.666 -6 36.999 -18c8.66699 -14 10 -30 4 -48v-1c-5.33301 -15.333 -14.333 -28.333 -27 -39
c-14.667 -12.667 -30.334 -19 -47.001 -19c-14.667 0 -26.667 5.66699 -36 17c-4 6 -6.66699 13.167 -8 21.5zM67.0029 561c-1.33301 8.66699 -0.334961 17.3291 2.99805 25.9961s8.66602 16.334 15.999 23.001l1 1c24 22.667 50 41.667 78 57
c39.333 21.333 78.333 32 117 32c65.333 0 114.333 -19.333 147 -58c16.667 -18.667 27.334 -40.667 32.001 -66s4 -53.333 -2 -84c-10 -48 -34.333 -91.667 -73 -131c-16 -17.333 -32.333 -32.166 -49 -44.499s-32 -23.5 -46 -33.5l-4 -3c-9.33301 -6 -24 -16.5 -44 -31.5
s-45 -34.167 -75 -57.5h-1l-1 -2c-12.667 -9.33301 -25.334 -14 -38.001 -14c-14 0 -24.833 5 -32.5 15s-10.167 21.667 -7.5 35c2 7.33301 5.16699 14.333 9.5 21s10.166 12.667 17.499 18h1l1 1l1 1c9.33301 6.66699 19.5 14.167 30.5 22.5s21.833 16.5 32.5 24.5
s21 15.833 31 23.5s19 14.5 27 20.5c3.33301 2.66699 6.33301 5 9 7s5.66699 4.33301 9 7c11.333 8 22.5 16.333 33.5 25s21.167 18 30.5 28s17.333 20.5 24 31.5s11.334 23.167 14.001 36.5c6.66699 30.667 3.33398 55 -9.99902 73c-16.667 22.667 -46 34 -88 34
c-12.667 0 -24.667 -2 -36 -6s-22 -8.83301 -32 -14.5s-18.833 -11.667 -26.5 -18s-14.167 -12.166 -19.5 -17.499l-2 -2l-3 -2c-3.33301 -2 -6.33301 -3.66699 -9 -5s-6 -2.66602 -10 -3.99902c-5.33301 -2 -10.333 -3 -15 -3c-11.333 0 -20.666 3.16699 -27.999 9.5
s-11.666 14.5 -12.999 24.5z" />
    <glyph glyph-name="at" unicode="@" horiz-adv-x="729" 
d="M8 158c6.66699 33.333 16.334 63.502 29.001 90.502s26.667 51 42 72s31.333 39.5 48 55.5s32.334 29.667 47.001 41c38 28 78.833 49.833 122.5 65.5s87.5 23.5 131.5 23.5c42.667 0 81.667 -7.33301 117 -22s65 -36 89 -64c24.667 -30 41.167 -64.833 49.5 -104.5
s7.5 -82.5 -2.5 -128.5c-14 -66 -43.333 -116.333 -88 -151c-12.667 -10 -25.167 -17.833 -37.5 -23.5s-24 -10 -35 -13s-20.5 -4.83301 -28.5 -5.5s-14 -1 -18 -1h-3c-2 0 -7.66699 0.5 -17 1.5s-19.666 3.33301 -30.999 7s-23 9.16699 -35 16.5s-22 17.666 -30 30.999
c-10.667 -8.66699 -21 -15.667 -31 -21c-26.667 -15.333 -52.334 -23 -77.001 -23c-46.667 0 -78 18.667 -94 56c-7.33301 16.667 -10.333 33 -9 49s2.66602 27.667 3.99902 35c4 18 10.333 35.833 19 53.5s19 34.5 31 50.5c13.333 16 27.666 30.333 42.999 43
s31.666 22.667 48.999 30c24.667 12 50 18 76 18c33.333 0 62.666 -9.66699 87.999 -29l8 -5v-1c12.667 -10 17 -24 13 -42c-3.33301 -16.667 -12.666 -30 -27.999 -40c5.33301 -4.66699 9.33301 -10.5 12 -17.5s3 -15.167 1 -24.5
c-0.666992 -2 -1.16699 -4.16699 -1.5 -6.5s-1.16602 -4.5 -2.49902 -6.5l-1 -1c-4.66699 -8.66699 -8.33398 -18 -11.001 -28s-2.33398 -18.333 0.999023 -25c4 -8 11.5 -13.5 22.5 -16.5s19.167 -4.5 24.5 -4.5c1.33301 0 6.66602 0.833008 15.999 2.5
s19.333 6.16699 30 13.5c18.667 16 31.667 42 39 78c6 28 7 55.167 3 81.5s-12.667 49.166 -26 68.499c-30.667 46 -80.667 69 -150 69c-15.333 0 -30.833 -1.33301 -46.5 -4s-31.5 -6.66699 -47.5 -12s-31.333 -12 -46 -20s-29 -17 -43 -27
c-30 -22.667 -54.833 -49.667 -74.5 -81s-33.5 -66 -41.5 -104c-4.66699 -21.333 -6.33398 -40.833 -5.00098 -58.5s4.5 -33.667 9.5 -48s11.167 -26.833 18.5 -37.5s15 -20 23 -28c18 -20 40.667 -35 68 -45c24 -10 49.333 -15 76 -15c32.667 0 62.334 4.83301 89.001 14.5
s48.667 19.5 66 29.5l5 3c10 6.66699 20.333 10 31 10c14 0 24.833 -5 32.5 -15s9.83398 -21.667 6.50098 -35c-3.33301 -16.667 -12.333 -29.667 -27 -39v-1l-8 -5h-1c-24 -14 -54.333 -27.833 -91 -41.5s-78 -20.5 -124 -20.5c-39.333 0 -77.166 7.5 -113.499 22.5
s-67.166 35.833 -92.499 62.5c-30.667 32 -51.5 69 -62.5 111s-11.167 87.333 -0.5 136zM249.5 133.502c-0.333008 -5.66699 0.166992 -11.166 1.5 -16.499c2 -8 8.66699 -12 20 -12c6 0 13.5 3 22.5 9s18.833 14.333 29.5 25c11.333 11.333 21.166 22.666 29.499 33.999
s14.5 20 18.5 26v1c6.66699 10 13.334 17 20.001 21v1l-5 3c-12 10 -24.667 15 -38 15c-8 0 -17.667 -2.33301 -29 -7c-16 -7.33301 -30 -19 -42 -35c-13.333 -16 -22 -33.667 -26 -53c-0.666992 -2 -1.16699 -5.83301 -1.5 -11.5z" />
    <glyph glyph-name="A" unicode="A" horiz-adv-x="616" 
d="M1 30c-0.666992 4 -1.00293 8 -1.00293 12c0 9.33301 2.66699 18.666 8 27.999l62 105c-11.333 1.33301 -20.333 5.83301 -27 13.5s-10 17.167 -10 28.5c0 14 5.33301 27 16 39s23.334 19.667 38.001 23l50 10l102 174c12.667 22 25.167 43.333 37.5 64
s23.333 39.167 33 55.5s17.5 29.833 23.5 40.5l9 15c6.66699 12.667 16.334 23 29.001 31s25.667 12 39 12c15.333 0 27.666 -4.66699 36.999 -14s14 -21 14 -35l65 -564v-5c0 -12 -3.66699 -23.667 -11 -35c-9.33301 -13.333 -21.333 -22 -36 -26
c-5.33301 -1.33301 -10.666 -2 -15.999 -2c-8.66699 0 -16.667 2 -24 6c-11.333 6.66699 -17.666 16.667 -18.999 30l-23 202l-201 -40l-97 -165c-8 -14 -19.333 -23.667 -34 -29c-8 -3.33301 -15.333 -4.66602 -22 -3.99902c-6 0 -12 1 -18 3
c-13.333 4.66699 -21.333 13.667 -24 27zM262.997 314l122 24l-17 152z" />
    <glyph glyph-name="B" unicode="B" horiz-adv-x="614" 
d="M2 55l122 574.001c3.33301 14.667 11 27.167 23 37.5s25.333 15.5 40 15.5h163c33.333 0 62.666 -4.16699 87.999 -12.5s45.666 -20.833 60.999 -37.5c24 -24 36 -55.333 36 -94c0 -14.667 -1.66699 -30.334 -5 -47.001c-3.33301 -17.333 -9.16602 -33.333 -17.499 -48
s-18.166 -28.667 -29.499 -42c-4 -4 -8.33301 -8 -13 -12s-9.66699 -8.33301 -15 -13c15.333 -8.66699 27.666 -18.667 36.999 -30c16 -17.333 26.667 -37.333 32 -60c2.66699 -11.333 4 -22.666 4 -33.999c0 -12 -1.33301 -24 -4 -36c-10 -47.333 -36 -88 -78 -122
c-31.333 -25.333 -73 -46 -125 -62c-43.333 -13.333 -86.666 -22 -129.999 -26s-81 -6 -113 -6h-21c-4.66699 0 -9.33398 0.333008 -14.001 1c-14.667 0 -26 5.33301 -34 16c-5.33301 7.33301 -8.33301 15.666 -9 24.999c0.666992 4 1.33398 8.33301 2.00098 13z
M117 108.001c23.333 0.666992 51.667 2.5 85 5.5s66.666 9.16699 99.999 18.5c19.333 5.33301 36.166 11 50.499 17s26.833 13.333 37.5 22c17.333 13.333 27.333 28.333 30 45c1.33301 6 2 11.667 2 17c0 22.667 -11 40 -33 52c-11.333 6 -25.166 10.833 -41.499 14.5
s-34.166 5.5 -53.499 5.5h-135zM182.001 411.001l96 0.00195312c18 0 35.5 1.83301 52.5 5.5s31.833 8.16699 44.5 13.5c28 13.333 45 33.666 51 60.999c2 8.66699 3 16.667 3 24c0 13.333 -3.33301 23.666 -10 30.999c-14 19.333 -44.333 29 -91 29h-111z" />
    <glyph glyph-name="C" unicode="C" horiz-adv-x="601" 
d="M0 231c0 18 2.66797 36.999 8.00098 56.999c3.33301 18 7.66602 35.167 12.999 51.5s11 31.666 17 45.999s12.167 27.166 18.5 38.499s11.833 21 16.5 29c2.66699 4.66699 7.16699 12 13.5 22s14.333 21.5 24 34.5s21 26.833 34 41.5s27.5 29 43.5 43
c14 13.333 28.5 24.833 43.5 34.5s29.833 18.167 44.5 25.5c17.333 9.33301 34.5 16 51.5 20s33.833 6 50.5 6c26.667 0 51.167 -3.5 73.5 -10.5s41.333 -16.167 57 -27.5s27.5 -24.333 35.5 -39c5.33301 -10 8 -20 8 -30c0 -4.66699 -0.666992 -9.66699 -2 -15
c-0.666992 -2 -1.16699 -4.33301 -1.5 -7s-0.833008 -5.66699 -1.5 -9l-2 -10c-3.33301 -13.333 -10.666 -25 -21.999 -35s-23.666 -15 -36.999 -15c-12.667 0 -23 4 -31 12c-5.33301 6 -8 13 -8 21c0 3.33301 0.333008 7.33301 1 12c1.33301 8.66699 -5.5 18.5 -20.5 29.5
s-38.833 16.5 -71.5 16.5c-11.333 0 -22.166 -1.83301 -32.499 -5.5s-20.166 -8 -29.499 -13s-18 -10.667 -26 -17s-14.667 -11.833 -20 -16.5c-16.667 -14.667 -32.667 -31 -48 -49s-28.666 -36.333 -39.999 -55c-9.33301 -16 -18.833 -35 -28.5 -57
s-16.834 -44.667 -21.501 -68c-2.66699 -14 -4 -28 -4 -42c0 -9.33301 0.666992 -18.666 2 -27.999c3.33301 -22.667 13.666 -43.667 30.999 -63v-1c28.667 -34 62.667 -51.333 102 -52l12 1h3c28 1.33301 54.667 7.83301 80 19.5s47.666 27.167 66.999 46.5l8 9
c11.333 12 24.333 19.333 39 22c3.33301 0.666992 6.33301 1 9 1c10.667 0 19.667 -3.33301 27 -10c8.66699 -8.66699 13 -19.667 13 -33v-3c-0.666992 -14 -6.66699 -27 -18 -39l-8 -10c-27.333 -28.667 -59 -52.667 -95 -72c-22 -11.333 -44.833 -20.166 -68.5 -26.499
s-47.5 -10.166 -71.5 -11.499h-14c-33.333 0 -64.333 6.5 -93 19.5s-54.334 32.167 -77.001 57.5c-26.667 31.333 -43 65.666 -49 102.999c-2.66699 14.667 -4.33398 30.334 -5.00098 47.001v4z" />
    <glyph glyph-name="D" unicode="D" horiz-adv-x="606" 
d="M2 53l121.003 572.001c3.33301 15.333 11.166 28.333 23.499 39s26.166 16 41.499 16h9c10 0 23.333 -0.5 40 -1.5s35 -3.33301 55 -7s41.167 -8.83398 63.5 -15.501s44.166 -15.667 65.499 -27c55.333 -29.333 94.666 -72.333 117.999 -129c11.333 -32 17 -67 17 -105
c0 -28 -3 -57.333 -9 -88c-13.333 -60 -34.333 -111.333 -63 -154c-30 -43.333 -69 -79 -117 -107c-62.667 -37.333 -136.667 -56 -222 -56h-3c-22.667 0 -42.667 1 -60 3s-30.666 3.66699 -39.999 5c-1.33301 0.666992 -2.83301 1 -4.5 1s-3.16699 0.333008 -4.5 1
c-2 0 -3.33301 0.333008 -4 1c-10.667 3.33301 -18.667 9.66602 -24 18.999c-3.33301 6 -5 12.333 -5 19c0 4.66699 0.666992 9.33398 2 14.001zM116.003 99.001c6.66699 -0.666992 14.1689 -1.16797 22.502 -1.50098s17.166 -0.5 26.499 -0.5c22 0 48 2.33301 78 7
s59 15 87 31c14.667 8.66699 27.667 18.5 39 29.5s21.666 23.167 30.999 36.5c19.333 29.333 33.333 64.666 42 105.999c5.33301 24 8 46.667 8 68c0 26 -4 49 -12 69c-14 36.667 -41.333 66.334 -82 89.001c-24 12.667 -48.667 21.834 -74 27.501s-47.333 9.16699 -66 10.5
z" />
    <glyph glyph-name="E" unicode="E" horiz-adv-x="625" 
d="M2 54l121.997 572.998c3.33301 14.667 11 27.167 23 37.5s25 15.5 39 15.5h378c14 0 25 -5 33 -15c5.33301 -7.33301 8 -16 8 -26c0 -4 -0.333008 -8 -1 -12c-3.33301 -15.333 -11.166 -28.166 -23.499 -38.499s-25.5 -15.5 -39.5 -15.5h-326l-36 -169h283
c14 0 25 -5 33 -15c5.33301 -7.33301 8 -16 8 -26c0 -4 -0.333008 -8.33301 -1 -13c-3.33301 -14.667 -11 -27.167 -23 -37.5s-25 -15.5 -39 -15.5h-283l-41 -190h324c14 0 25.333 -5 34 -15c6 -7.33301 8.66699 -16 8 -26c0 -4 -0.333008 -8 -1 -12
c-3.33301 -15.333 -11.166 -28.166 -23.499 -38.499s-25.5 -15.5 -39.5 -15.5h-376c-14 0 -25 5.33301 -33 16c-5.33301 7.33301 -8.33301 16 -9 26c0.666992 3.33301 1.33398 7.33301 2.00098 12z" />
    <glyph glyph-name="F" unicode="F" horiz-adv-x="566" 
d="M2 51l122.999 576.999c3.33301 14.667 11 27 23 37s25.333 15 40 15h336c14.667 0 26 -5 34 -15c5.33301 -7.33301 8 -15.666 8 -24.999c0 -4 -0.333008 -8 -1 -12c-3.33301 -14 -11 -26 -23 -36s-25.333 -15 -40 -15h-285l-34 -162h247c14 0 25 -5 33 -15
c5.33301 -7.33301 8.33301 -15.666 9 -24.999c0 -3.33301 -0.666992 -7 -2 -11c-3.33301 -14.667 -11 -27 -23 -37s-25 -15 -39 -15h-247l-56 -261c-3.33301 -14 -10.833 -26 -22.5 -36s-24.5 -15 -38.5 -15s-25.333 5 -34 15c-6 7.33301 -9.33301 15.666 -10 24.999
c0.666992 3.33301 1.33398 7 2.00098 11z" />
    <glyph glyph-name="G" unicode="G" horiz-adv-x="689" 
d="M1 230c-0.666992 8.66699 -1.00977 17.334 -1.00977 26.001s0.333008 17 1 25c1.33301 17.333 3.66602 34 6.99902 50s8.33301 33 15 51s14.334 35.667 23.001 53c11.333 20.667 23.333 40.5 36 59.5s26.334 36.5 41.001 52.5c34.667 38.667 71.334 68.667 110.001 90
c52.667 30 108.334 45 167.001 45c78.667 0 138.667 -23.333 180 -70c16.667 -18.667 28.5 -37.834 35.5 -57.501s11.5 -36.834 13.5 -51.501v-8c0 -11.333 -3.33301 -22.333 -10 -33c-8.66699 -13.333 -20.667 -22.666 -36 -27.999c-7.33301 -2 -13.666 -3 -18.999 -3
c-11.333 0 -20.833 3.16699 -28.5 9.5s-12.167 14.833 -13.5 25.5c-1.33301 9.33301 -4.5 20.166 -9.5 32.499s-12.5 24.166 -22.5 35.499c-24 26.667 -61.333 40 -112 40c-35.333 0 -69 -8 -101 -24c-28 -15.333 -54 -36.333 -78 -63
c-25.333 -28 -44.666 -56.167 -57.999 -84.5s-22 -52.166 -26 -71.499c-3.33301 -16 -5 -34.333 -5 -55v-14c0.666992 -26.667 7.33398 -52.334 20.001 -77.001c10.667 -24 26.334 -42.667 47.001 -56c23.333 -15.333 52 -23 86 -23c57.333 0 107.333 18.667 150 56
c10.667 9.33301 20 19 28 29s14.667 19.333 20 28c-13.333 -0.666992 -25.833 -1.83398 -37.5 -3.50098s-21.834 -3.16699 -30.501 -4.5c-10.667 -2 -20 -4 -28 -6c-3.33301 -1.33301 -8.33301 -2 -15 -2c-12 0 -22 3.5 -30 10.5s-12.667 16.167 -14 27.5v5
c0 12.667 4 24.334 12 35.001c10 13.333 22.667 22.333 38 27c0.666992 0 4.33398 0.833008 11.001 2.5s15.667 3.5 27 5.5s24.333 4 39 6s30.334 3.33301 47.001 4c2.66699 0 5.33398 0.166992 8.00098 0.5s5.33398 0.5 8.00098 0.5c30.667 0 55.5 -2.66699 74.5 -8
s29.167 -8.66602 30.5 -9.99902c13.333 -5.33301 21.333 -14.666 24 -27.999c0.666992 -4 1.33398 -7.66699 2.00098 -11c0 -9.33301 -2.66699 -19.333 -8 -30c-6 -9.33301 -13.667 -17 -23 -23s-19 -9.66699 -29 -11c-8.66699 -16 -20.167 -34.333 -34.5 -55
s-32.833 -41 -55.5 -61c-32 -28 -66.333 -49.667 -103 -65c-44 -17.333 -88.667 -26 -134 -26c-56.667 0 -104.334 13.667 -143.001 41c-30 20.667 -53 48.667 -69 84c-14.667 30.667 -23.667 66 -27 106z" />
    <glyph glyph-name="H" unicode="H" horiz-adv-x="707" 
d="M2 52l122.001 576c3.33301 14.667 11.166 27 23.499 37s25.5 15 39.5 15s25 -5 33 -15c5.33301 -7.33301 8.33301 -15.666 9 -24.999c0 -4 -0.666992 -8 -2 -12l-55 -257l346 47l45 210c3.33301 14.667 11 27 23 37s25.333 15 40 15c14 0 25 -5 33 -15
c5.33301 -7.33301 8 -15.666 8 -24.999c0 -4 -0.333008 -8 -1 -12l-122 -576c-3.33301 -14.667 -11 -27 -23 -37s-25 -15 -39 -15c-14.667 0 -26 5 -34 15c-5.33301 7.33301 -8.33301 15.666 -9 24.999c0 4 0.666992 8 2 12l55 262l-346 -46l-45 -216
c-3.33301 -14.667 -11 -27 -23 -37s-25 -15 -39 -15s-25 5 -33 15c-6 7.33301 -9.33301 15.666 -10 24.999z" />
    <glyph glyph-name="I" unicode="I" horiz-adv-x="484" 
d="M2 51c3.33301 14.667 10.999 27 22.999 37s25 15 39 15h62l102 476h-62c-14 0 -25 5 -33 15c-6 7.33301 -9 15.666 -9 24.999c0 3.33301 0.333008 7 1 11c3.33301 14.667 11 27 23 37s25 15 39 15h226c14 0 25 -5 33 -15c5.33301 -7.33301 8.33301 -15.666 9 -24.999
c0 -4 -0.666992 -8 -2 -12c-3.33301 -14 -10.833 -26 -22.5 -36s-24.5 -15 -38.5 -15h-61l-102 -476h61c14 0 25 -5 33 -15c5.33301 -7.33301 8.33301 -15.666 9 -24.999c0 -4 -0.666992 -8 -2 -12c-3.33301 -14 -10.833 -26 -22.5 -36s-24.5 -15 -38.5 -15h-226
c-14 0 -25 5 -33 15c-6 7.33301 -9.33301 15.666 -10 24.999c0.666992 3.33301 1.33398 7 2.00098 11z" />
    <glyph glyph-name="J" unicode="J" horiz-adv-x="528" 
d="M0 123l-0.00195312 16.499v13.5c0.666992 9.33301 2 16.333 4 21c0.666992 0.666992 1 1.33398 1 2.00098c3.33301 14.667 11 27 23 37s25.333 15 40 15c14 0 25 -5 33 -15c6 -6.66699 8.66699 -15 8 -25c0 -4 -0.333008 -8 -1 -12
c0 -0.666992 -0.333008 -1.33398 -1 -2.00098l1 1l-1 -6c-0.666992 -3.33301 -1 -7.66602 -1 -12.999s0.666992 -11.166 2 -17.499s3.66602 -11.833 6.99902 -16.5c10 -12.667 28.667 -19 56 -19c30.667 0 53.667 7.66699 69 23c6.66699 7.33301 11.334 14.5 14.001 21.5
s4.66699 12.833 6 17.5l87 413h-82c-14.667 0 -26 5 -34 15c-6 7.33301 -8.66699 15.333 -8 24c0 4 0.333008 8 1 12c3.33301 14.667 11 27 23 37s25.333 15 40 15h180c14 0 25 -5 33 -15c5.33301 -7.33301 8 -15.333 8 -24c0 -4 -0.333008 -8.33301 -1 -13
c-2.66699 -13.333 -9.5 -24.833 -20.5 -34.5s-23.167 -15.167 -36.5 -16.5l-87 -413c-4.66699 -21.333 -12.5 -41.5 -23.5 -60.5s-24.5 -35.833 -40.5 -50.5c-13.333 -12.667 -32.166 -24.834 -56.499 -36.501s-55.166 -17.5 -92.499 -17.5c-57.333 0 -99 17 -125 51
c-8 11.333 -14 23.333 -18 36s-6.33301 24.667 -7 36z" />
    <glyph glyph-name="K" unicode="K" horiz-adv-x="579" 
d="M2 54l122.001 573c3.33301 14.667 10.833 27 22.5 37s24.5 15 38.5 15s25 -5 33 -15c5.33301 -7.33301 8.33301 -15.666 9 -24.999c0 -4 -0.666992 -8 -2 -12l-39 -183l297 223c12 8.66699 24 13 36 13c16 0 27.667 -6 35 -18c4 -6.66699 6 -14 6 -22
c0 -5.33301 -0.666992 -11 -2 -17c-4.66699 -14.667 -13.334 -26.667 -26.001 -36l-335 -251l246 -242c8.66699 -6.66699 13 -16 13 -28c0 -2 -0.333008 -4.33301 -1 -7c-1.33301 -15.333 -7.33301 -28.333 -18 -39c-12 -13.333 -26.667 -20 -44 -20
c-12 0 -21.667 3.66699 -29 11l-224 219l-37 -176c-3.33301 -14.667 -11 -27.167 -23 -37.5s-25 -15.5 -39 -15.5s-24.667 5.33301 -32 16c-5.33301 7.33301 -8.33301 15.666 -9 24.999z" />
    <glyph glyph-name="L" unicode="L" horiz-adv-x="492" 
d="M2 51l123.001 577.997c3.33301 14.667 11 27 23 37s25 15 39 15s25 -5 33 -15c5.33301 -7.33301 8.33301 -15.666 9 -24.999c0 -4 -0.666992 -8 -2 -12l-111 -524l253 18h4c13.333 0 23.666 -4.66699 30.999 -14c6 -6.66699 9 -14.667 9 -24
c0 -3.33301 -0.333008 -6.66602 -1 -9.99902c-2 -14 -8.66699 -26.167 -20 -36.5s-24 -16.166 -38 -17.499l-308 -21h-3c-13.333 0 -24.333 4.33301 -33 13c-6 7.33301 -9.33301 16 -10 26z" />
    <glyph glyph-name="M" unicode="M" horiz-adv-x="821" 
d="M3 26c-2 5.33301 -2.99512 10.998 -2.99512 16.998c0 7.33301 1.66699 15 5 23l242 572c5.33301 12 13.166 21.833 23.499 29.5s21.5 11.834 33.5 12.501h2c11.333 0 20.666 -3.33301 27.999 -10s11.666 -15.667 12.999 -27l38 -423l239 425
c5.33301 10.667 13 19.167 23 25.5s20.667 9.5 32 9.5h3c11.333 -1.33301 20.5 -5.83301 27.5 -13.5s10.167 -17.167 9.5 -28.5l2 -572c0.666992 -14 -4.33301 -27.167 -15 -39.5s-23 -20.166 -37 -23.499c-2.66699 -0.666992 -6.33398 -1 -11.001 -1
c-11.333 0 -21.333 3.66699 -30 11c-7.33301 8.66699 -11 17.667 -11 27v3l-2 394l-224 -401c-5.33301 -10.667 -13 -19.167 -23 -25.5s-20.667 -9.5 -32 -9.5h-1c-11.333 0.666992 -20.5 4.16699 -27.5 10.5s-11.167 15.166 -12.5 26.499l-35 384l-160 -379
c-5.33301 -12 -13.5 -21.833 -24.5 -29.5s-22.5 -11.5 -34.5 -11.5c-4.66699 0 -8.33398 0.333008 -11.001 1c-13.333 2.66699 -22.333 10.334 -27 23.001z" />
    <glyph glyph-name="N" unicode="N" horiz-adv-x="664" 
d="M2 52l119 564.999v2c3.33301 17.333 12.166 32 26.499 44s29.833 18 46.5 18c14 0 25.333 -4.33301 34 -13c1.33301 -1.33301 2.66602 -3 3.99902 -5c1.33301 -1.33301 2.5 -3 3.5 -5l3.5 -7c0 -0.666992 2.66699 -7.66699 8 -21s12.166 -30.5 20.499 -51.5
s17.666 -44.833 27.999 -71.5s20.833 -54 31.5 -82c25.333 -65.333 54 -139 86 -221l90 425c3.33301 14.667 11 27 23 37s24.667 15 38 15c14 0 25 -5 33 -15c5.33301 -7.33301 7.66602 -15.333 6.99902 -24c0 -4 -0.333008 -8.33301 -1 -13l-120 -564
c-3.33301 -18 -12.666 -33.5 -27.999 -46.5s-31.666 -19.5 -48.999 -19.5c-11.333 0 -21.166 2.83301 -29.499 8.5s-14.166 13.834 -17.499 24.501l-168 440l-89 -420c-3.33301 -14.667 -11 -27.167 -23 -37.5s-25 -15.5 -39 -15.5s-24.667 5.33301 -32 16
c-5.33301 7.33301 -8 15.333 -8 24c0.666992 4 1.33398 8.33301 2.00098 13z" />
    <glyph glyph-name="O" unicode="O" horiz-adv-x="610" 
d="M1 197c-0.666992 10.667 -1 21.332 -1 31.999c0 37.333 5.66699 76 17 116c12 44.667 30 87.167 54 127.5s52.333 76.5 85 108.5c34 32 68.667 56.333 104 73c37.333 18.667 74.333 28 111 28c30.667 0 58.667 -6.66699 84 -20s46.666 -32 63.999 -56
c22.667 -32.667 36.334 -72.667 41.001 -120c0.666992 -10.667 1 -21.667 1 -33c0 -36.667 -5.33301 -75 -16 -115c-12.667 -44.667 -30.834 -87.167 -54.501 -127.5s-52.167 -76.5 -85.5 -108.5c-32.667 -31.333 -66.667 -55.666 -102 -72.999
c-38 -18.667 -75.333 -28 -112 -28c-31.333 0 -59.666 6.5 -84.999 19.5s-46.333 31.833 -63 56.5c-24 33.333 -38 73.333 -42 120zM107 228.998c2 -33.333 10.666 -60.335 25.999 -81.002c20 -28 46.667 -42 80 -42c21.333 0 43.333 5.83301 66 17.5s44.667 28.5 66 50.5
c22.667 22.667 42.334 48.667 59.001 78s29.667 60.333 39 93c7.33301 24.667 11 49.667 11 75c0 10 -0.666992 19.667 -2 29c-2 17.333 -5.33301 33.166 -10 47.499s-11.334 26.833 -20.001 37.5c-19.333 28 -45.666 42 -78.999 42c-20.667 0 -42 -5.66699 -64 -17
s-43.333 -27.666 -64 -48.999c-22 -22.667 -41.333 -48.667 -58 -78s-29.667 -60.666 -39 -93.999c-8 -29.333 -12 -57.666 -12 -84.999c0 -8 0.333008 -16 1 -24z" />
    <glyph glyph-name="P" unicode="P" horiz-adv-x="584" 
d="M2 53l120.998 570.996c3.33301 14 10.333 26 21 36s22.667 15.667 36 17c2 0.666992 8.83301 1.33398 20.5 2.00098s26.834 1 45.501 1c11.333 0 22.166 -0.166992 32.499 -0.5s20.833 -0.833008 31.5 -1.5c96 -8 163.333 -34.333 202 -79
c7.33301 -9.33301 13.5 -19 18.5 -29s8.5 -20.667 10.5 -32c2.66699 -10.667 4 -22 4 -34c0 -13.333 -1.66699 -26.666 -5 -39.999c-9.33301 -45.333 -31.666 -85.666 -66.999 -120.999c-42.667 -44 -103.334 -76.667 -182.001 -98c-30 -8.66699 -58.5 -14.667 -85.5 -18
s-49.167 -5.66602 -66.5 -6.99902l-35 -167c-3.33301 -15.333 -11.166 -28.166 -23.499 -38.499s-25.5 -15.5 -39.5 -15.5s-24.667 5.33301 -32 16c-5.33301 7.33301 -8.33301 15.666 -9 24.999c0.666992 4 1.33398 8.33301 2.00098 13zM161.998 326.996
c14.667 1.33301 32.999 3.33203 54.999 5.99902s44.667 7.33398 68 14.001c44 12 78.667 27.667 104 47c26 19.333 42 42.666 48 69.999c1.33301 6.66699 2 12.667 2 18c0 14.667 -4.33301 27.334 -13 38.001c-11.333 13.333 -29.666 24.5 -54.999 33.5s-56 14.833 -92 17.5
c-18 2 -36 3 -54 3h-10z" />
    <glyph glyph-name="Q" unicode="Q" horiz-adv-x="668" 
d="M2 195c-1.33301 13.333 -2.00391 26.999 -2.00391 40.999c0 34.667 5.33301 70.667 16 108c13.333 44.667 32.833 87.334 58.5 128.001s56.5 77 92.5 109c35.333 30.667 73 54.667 113 72c40.667 18 81.334 27 122.001 27c34 0 65 -6.33301 93 -19s51.667 -31 71 -55
c26.667 -33.333 43 -73.333 49 -120c2 -14 3 -28.333 3 -43c0 -34 -5 -69.333 -15 -106c-7.33301 -23.333 -16 -46 -26 -68s-21.667 -43.667 -35 -65c-10.667 -15.333 -21.5 -29.833 -32.5 -43.5s-23.167 -26.834 -36.5 -39.501l54 -43c10 -8.66699 15 -20 15 -34
s-5.33301 -27.333 -16 -40c-14 -16 -30 -24 -48 -24c-5.33301 0 -10.166 0.833008 -14.499 2.5s-8.16602 3.83398 -11.499 6.50098l-73 59c-54.667 -31.333 -108.667 -47 -162 -47c-34 0 -65.167 6.33301 -93.5 19s-52.166 31 -71.499 55c-27.333 33.333 -44 73.333 -50 120
zM109.996 229.999c4.66699 -33.333 15.665 -60.6641 32.998 -81.9971c23.333 -28.667 55.333 -43 96 -43c18.667 0 37.667 3.33301 57 10l-27 21c-9.33301 7.33301 -14 18.666 -14 33.999c0 13.333 5 26.666 15 39.999c14 16 30 24 48 24c11.333 0 20 -3 26 -9l55 -44
c23.333 22 43.5 47 60.5 75s30.167 57.333 39.5 88c4.66699 17.333 7.33398 34.666 8.00098 51.999c0 6 0.333008 11.667 1 17c0 12 -0.666992 23.667 -2 35c-6 34.667 -18 63 -36 85c-24.667 28.667 -57 43 -97 43c-24.667 0 -49.667 -5.83301 -75 -17.5
s-49.666 -28.167 -72.999 -49.5c-24.667 -22.667 -46 -48.667 -64 -78s-31.667 -60.666 -41 -93.999c-7.33301 -26.667 -11 -52.334 -11 -77.001c0 -10 0.333008 -20 1 -30z" />
    <glyph glyph-name="R" unicode="R" horiz-adv-x="587" 
d="M2 53l121.005 571.002c3.33301 13.333 10.166 25.166 20.499 35.499s22.166 16.166 35.499 17.499c1.33301 0 8.83301 0.5 22.5 1.5s30.834 1.5 51.501 1.5c9.33301 0 18.833 -0.166992 28.5 -0.5s19.167 -0.833008 28.5 -1.5c98 -7.33301 165.667 -33 203 -77
c15.333 -17.333 25.666 -38 30.999 -62c2.66699 -12 4 -24 4 -36c0 -14 -1.66699 -27.667 -5 -41c-12 -53.333 -41.667 -99.666 -89 -138.999c-12.667 -10 -26.334 -19.333 -41.001 -28s-30.334 -16.667 -47.001 -24c18.667 -18.667 38.667 -43.834 60 -75.501
s38.666 -71.167 51.999 -118.5c0.666992 -4 1 -8.33301 1 -13c0 -9.33301 -2.33301 -18.666 -7 -27.999c-7.33301 -14 -18 -24 -32 -30c-8 -4 -16 -6 -24 -6c-20.667 0 -33.667 9.66699 -39 29c-8 28 -17.5 52.5 -28.5 73.5s-22.5 39 -34.5 54s-23.333 27.333 -34 37
s-19.334 16.834 -26.001 21.501c-12 8.66699 -29.667 13 -53 13c-3.33301 0 -6.83301 -0.166992 -10.5 -0.5s-7.5 -0.833008 -11.5 -1.5c-7.33301 -0.666992 -14.333 -1.33398 -21 -2.00098s-12.667 -1.33398 -18 -2.00098l-36 -169c-3.33301 -15.333 -11 -28 -23 -38
s-25 -15 -39 -15s-25 5 -33 15c-5.33301 7.33301 -8.33301 16 -9 26c0.666992 3.33301 1.33398 7.33301 2.00098 12zM162.005 326.002c21.333 1.33301 44.999 4.33203 70.999 8.99902s51.333 11 76 19c38.667 12.667 69.334 28 92.001 46c22 18.667 35.333 39.334 40 62.001
c1.33301 6.66699 2 12.667 2 18c0 16.667 -5 30.667 -15 42c-11.333 13.333 -29.833 24.333 -55.5 33s-56.5 14.667 -92.5 18c-7.33301 0.666992 -15.166 1.16699 -23.499 1.5s-16.833 0.5 -25.5 0.5h-8c-2.66699 0 -5.33398 -0.333008 -8.00098 -1z" />
    <glyph glyph-name="S" unicode="S" horiz-adv-x="571" 
d="M2 148l-1.99414 8c0 4 1 9 3 15c3.33301 15.333 11.333 28.333 24 39s26.334 16 41.001 16c11.333 0 20.833 -3.66699 28.5 -11s12.167 -16.666 13.5 -27.999c2 -14 6.83301 -26.167 14.5 -36.5s17 -18.833 28 -25.5s23.167 -11.667 36.5 -15s26.666 -5 39.999 -5
c1.33301 0 8.66602 0.5 21.999 1.5s28.666 5.16699 45.999 12.5c41.333 17.333 67 45.666 77 84.999c1.33301 5.33301 2.33301 11.333 3 18s-1.33301 13.667 -6 21c-4 7.33301 -9.83301 14.166 -17.5 20.499s-16.334 12 -26.001 17s-19.834 9.5 -30.501 13.5
s-21 7.66699 -31 11c-53.333 16 -94.333 37.333 -123 64c-18.667 18 -31.334 37.667 -38.001 59c-3.33301 12 -5 24.333 -5 37c0 14 2.33301 28.667 7 44c15.333 56 45.833 98.667 91.5 128s103.834 44 174.501 44h16c10.667 -0.666992 22.834 -1.83398 36.501 -3.50098
s27.5 -5 41.5 -10s27.333 -12 40 -21s23 -20.5 31 -34.5c8.66699 -16 13 -34.667 13 -56c0 -7.33301 -0.333008 -15 -1 -23c0 -0.666992 -0.333008 -1.33398 -1 -2.00098v-2v-1c-3.33301 -14.667 -11 -27 -23 -37s-25 -15 -39 -15c-12.667 0 -23 4.33301 -31 13
c-6.66699 7.33301 -10 16.333 -10 27c0 1.33301 0.333008 3 1 5c0.666992 5.33301 0.5 10.166 -0.5 14.499s-2.16699 8.16602 -3.5 11.499c-6.66699 10.667 -21.334 19.667 -44.001 27c-10 2.66699 -19 4.33398 -27 5.00098s-13 1 -15 1h-2
c-50.667 0 -87.667 -9.66699 -111 -29c-15.333 -12 -26.333 -30 -33 -54c-0.666992 -4 -1.33398 -7.66699 -2.00098 -11c0 -6.66699 2.33301 -13 7 -19c6.66699 -9.33301 15.334 -17.666 26.001 -24.999s22.667 -13.666 36 -18.999s25.666 -9.66602 36.999 -12.999
c33.333 -10 61.666 -21.667 84.999 -35s41.666 -28.666 54.999 -45.999c20.667 -25.333 31 -54.333 31 -87c0 -14.667 -2 -30 -6 -46c-8 -33.333 -22.667 -63.333 -44 -90c-10.667 -13.333 -22.667 -25.5 -36 -36.5s-28.333 -20.833 -45 -29.5
c-27.333 -14.667 -54.166 -25 -80.499 -31s-48.5 -9 -66.5 -9c-27.333 0 -52.833 3.5 -76.5 10.5s-44.5 17 -62.5 30s-32.667 28.5 -44 46.5s-19 38.333 -23 61z" />
    <glyph glyph-name="T" unicode="T" horiz-adv-x="455" 
d="M2 628c3.33301 14.667 10.999 27.168 22.999 37.501s25 15.5 39 15.5h410c14 0 25 -5 33 -15c5.33301 -7.33301 8.33301 -16 9 -26c0 -4 -0.666992 -8 -2 -12c-3.33301 -15.333 -11 -28.166 -23 -38.499s-25 -15.5 -39 -15.5h-160l-111 -521
c-3.33301 -14.667 -11 -27.167 -23 -37.5s-25 -15.5 -39 -15.5s-25 5.33301 -33 16c-5.33301 7.33301 -8 15.666 -8 24.999c0 4 0.333008 8 1 12l111 521h-148c-14 0 -25 5.33301 -33 16c-5.33301 7.33301 -8.33301 15.666 -9 24.999c0.666992 4 1.33398 8.33301 2.00098 13
z" />
    <glyph glyph-name="U" unicode="U" horiz-adv-x="628" 
d="M3 272c2.66699 24 6.66797 51.8311 12.001 83.498s11.333 63.834 18 96.501s13.5 64.334 20.5 95.001s13.167 57.334 18.5 80.001c3.33301 15.333 11 28.166 23 38.499s25 15.5 39 15.5s25 -5 33 -15c5.33301 -7.33301 8 -16 8 -26c0 -3.33301 -0.333008 -7.33301 -1 -12
v-2c-5.33301 -22 -11.333 -48 -18 -78s-13.167 -60.833 -19.5 -92.5s-12.166 -62.5 -17.499 -92.5s-9 -56.333 -11 -79c-1.33301 -13.333 -2.33301 -25.666 -3 -36.999c0 -40.667 8 -74 24 -100c20 -31.333 50 -47 90 -47h18c39.333 0 75.666 15.667 108.999 47
c35.333 34 62 79.667 80 137c7.33301 22.667 14.666 49 21.999 79s14.5 60.667 21.5 92s13.5 61.833 19.5 91.5s11.333 55.5 16 77.5c0 0.666992 0.166992 1.16699 0.5 1.5s0.5 0.833008 0.5 1.5c3.33301 14.667 11 27.167 23 37.5s25 15.5 39 15.5s24.667 -5 32 -15
c6 -6.66699 9 -15 9 -25c0 -3.33301 -0.333008 -6.66602 -1 -9.99902v-2c-4 -22.667 -9.16699 -49.5 -15.5 -80.5s-13.166 -62.833 -20.499 -95.5s-15 -64.834 -23 -96.501s-16 -59.5 -24 -83.5c-26.667 -82.667 -67.334 -148.334 -122.001 -197.001
c-28 -25.333 -57.833 -44.333 -89.5 -57s-64.5 -19 -98.5 -19h-18c-68.667 0 -120.667 25.333 -156 76c-27.333 39.333 -41 90 -41 152c0.666992 14.667 1.66699 29.667 3 45z" />
    <glyph glyph-name="V" unicode="V" horiz-adv-x="486" 
d="M1 609c0 1.33301 -0.335938 2.99805 -1.00293 4.99805c0 12 4 23.667 12 35c8.66699 13.333 20.334 22.333 35.001 27c6 2 11.667 3 17 3c11.333 0 20.5 -3.33301 27.5 -10s11.167 -15.334 12.5 -26.001l49 -435l259 438c6 10 13.833 18 23.5 24s20.167 9 31.5 9
c6.66699 0 12.334 -1.33301 17.001 -4c12 -5.33301 19.333 -14.666 22 -27.999c0.666992 -3.33301 1 -6.66602 1 -9.99902c0 -10 -3 -20.333 -9 -31l-338 -573c-6.66699 -10 -14.667 -18 -24 -24s-19.333 -9 -30 -9h-2c-10.667 0 -19.667 3.33301 -27 10
s-11.666 15.334 -12.999 26.001z" />
    <glyph glyph-name="W" unicode="W" horiz-adv-x="744" 
d="M1 612l0.000976562 4.99805c0 12 4 23.667 12 35c9.33301 13.333 21.666 22 36.999 26c4.66699 2 10 3 16 3c11.333 0 20.833 -3.5 28.5 -10.5s12.167 -16.167 13.5 -27.5l36 -412l219 413c6 11.333 14.333 20.333 25 27s21.667 10 33 10h1
c11.333 -0.666992 20.833 -4.5 28.5 -11.5s11.834 -16.167 12.501 -27.5l25 -413l237 417c5.33301 10.667 13.166 19.167 23.499 25.5s21.166 9.5 32.499 9.5c6 0 12 -1 18 -3c12 -4.66699 20 -14 24 -28c0.666992 -3.33301 1 -6.66602 1 -9.99902
c0 -9.33301 -2.66699 -19.666 -8 -30.999l-326 -575c-6.66699 -10.667 -15.167 -19.167 -25.5 -25.5s-21.166 -9.5 -32.499 -9.5h-2c-11.333 0.666992 -20.5 4.5 -27.5 11.5s-11.167 16.167 -12.5 27.5l-24 403l-215 -405c-6 -11.333 -14.333 -20.333 -25 -27
s-21.667 -10 -33 -10h-1c-11.333 0 -20.833 3.5 -28.5 10.5s-12.167 16.167 -13.5 27.5z" />
    <glyph glyph-name="X" unicode="X" horiz-adv-x="713" 
d="M1 48c0.666992 7.33301 2.83203 14.333 6.49902 21s8.16699 12.667 13.5 18l272 258l-146 249c-3.33301 6.66699 -5 14 -5 22c0 5.33301 0.666992 11 2 17c4.66699 14.667 14 26.667 28 36c10 8 21.667 12 35 12c17.333 0 30 -6.66699 38 -20l136 -232l244 233
c14 12.667 29 19 45 19c12 0 22.333 -4.33301 31 -13c8 -8 12 -17.333 12 -28v-8c-2 -14.667 -8.66699 -27.667 -20 -39l-263 -249l151 -258c3.33301 -6.66699 5 -14 5 -22c0 -6 -1 -12 -3 -18c-4 -13.333 -13 -25 -27 -35c-11.333 -8 -23.333 -12 -36 -12
c-16.667 0 -29 6.66699 -37 20l-140 241l-255 -242c-12.667 -12.667 -27.667 -19 -45 -19c-13.333 0 -23.666 4.33301 -30.999 13c-8 8 -12 17.667 -12 29c0.666992 2 1 4.33301 1 7z" />
    <glyph glyph-name="Y" unicode="Y" horiz-adv-x="504" 
d="M3 602c-2 4.66699 -3 10 -3 16c0 8 2.33301 16.333 7 25c6.66699 14 17 24.667 31 32c4.66699 2 9.16699 3.66699 13.5 5s9.16602 2 14.499 2c20 0 33.667 -9 41 -27l119 -326l264 326c6 8 13.5 14.333 22.5 19s18.167 7 27.5 7c10.667 0 19.667 -2.33301 27 -7
c11.333 -8 17 -19 17 -33v-4c0 -13.333 -5 -25.333 -15 -36l-463 -575c-14 -18 -31.333 -27 -52 -27c-9.33301 0 -17.666 2.66699 -24.999 8c-11.333 7.33301 -17 18.333 -17 33v5c0 12 4.66699 23.667 14 35l116 144z" />
    <glyph glyph-name="Z" unicode="Z" horiz-adv-x="684" 
d="M2 51c1.33301 5.33301 3.49902 10.501 6.49902 15.501s6.16699 9.5 9.5 13.5l481 487h-311c-14.667 0 -26 5.33301 -34 16c-5.33301 8 -8 17 -8 27c0 4 0.666992 8.33301 2 13c3.33301 15.333 10.833 28.666 22.5 39.999s22.5 17 32.5 17h433
c13.333 0 23.666 -5 30.999 -15c4.66699 -6.66699 7.33398 -14.334 8.00098 -23.001c0 -4 -0.666992 -8.33301 -2 -13c-2.66699 -12 -9 -23 -19 -33l-477 -483h311c14.667 0 25.667 -5.33301 33 -16c5.33301 -7.33301 8 -16 8 -26c0 -4 -0.333008 -8.66699 -1 -14
c-3.33301 -15.333 -11.166 -28.666 -23.499 -39.999s-25.833 -17 -40.5 -17h-424h-1c-14 0 -24.333 5 -31 15c-5.33301 6.66699 -8 14.667 -8 24z" />
    <glyph glyph-name="bracketleft" unicode="[" horiz-adv-x="430" 
d="M2 -44l164 770.001c3.33301 14 11 26 23 36s25 15 39 15h121c14 0 25 -5 33 -15s10.333 -22 7 -36c-3.33301 -14.667 -11 -27 -23 -37s-25 -15 -39 -15h-70l-142 -667h56c14 0 25 -4.83301 33 -14.5s10.333 -21.834 7 -36.501c-3.33301 -14 -11 -26 -23 -36
s-25 -15 -39 -15h-107c-14 0 -25 5 -33 15s-10.333 22 -7 36z" />
    <glyph glyph-name="backslash" unicode="\" horiz-adv-x="596" 
d="M1 651c-1.33301 -14 3.33301 -27.333 14 -40l447 -584c6 -8 13.667 -14.5 23 -19.5s18.666 -7.5 27.999 -7.5c10 0 18.333 2.33301 25 7c11.333 7.33301 17.5 17.833 18.5 31.5s-3.16699 27.167 -12.5 40.5l-448 583c-14 18 -31.333 27 -52 27
c-9.33301 0 -17.666 -2 -24.999 -6c-11.333 -8 -17.333 -18.667 -18 -32z" />
    <glyph glyph-name="bracketright" unicode="]" horiz-adv-x="430" 
d="M2 -44c3.33301 14.667 11 26.999 23 36.999s25 15 39 15h70l142 667h-56c-14 0 -25 4.83301 -33 14.5s-10.333 21.834 -7 36.501c3.33301 14 11 26 23 36s25 15 39 15h107c14 0 25 -5 33 -15s10.333 -22 7 -36l-164 -770c-3.33301 -14 -11 -26 -23 -36s-25 -15 -39 -15
h-121c-14 0 -25 5 -33 15s-10.333 22 -7 36z" />
    <glyph glyph-name="underscore" unicode="_" horiz-adv-x="590" 
d="M2 -51c3.33301 14 10.833 26 22.5 36s24.5 15 38.5 15h486c14 0 25 -5 33 -15s10.333 -22 7 -36s-11 -26 -23 -36s-25 -15 -39 -15h-486c-13.333 0 -24 5 -32 15s-10.333 22 -7 36z" />
    <glyph glyph-name="a" unicode="a" horiz-adv-x="510" 
d="M2 188c2.66699 21.333 7.83594 43.9961 15.5029 67.9961s17.834 47.333 30.501 70c15.333 28.667 33.666 54.5 54.999 77.5s44.666 42.5 69.999 58.5c39.333 26.667 83.333 40 132 40c18 0 34.5 -1.66699 49.5 -5s28.167 -7 39.5 -11s20.5 -8 27.5 -12
s11.5 -6.33301 13.5 -7c2.66699 -2.66699 6.33398 -7 11.001 -13c2.66699 -4 4.33398 -9 5.00098 -15c0 -3.33301 -0.666992 -7.33301 -2 -12c-0.666992 -3.33301 -2.33398 -11.166 -5.00098 -23.499s-5.83398 -27.666 -9.50098 -45.999s-7.83398 -38.666 -12.501 -60.999
s-9.33398 -44.833 -14.001 -67.5c-11.333 -53.333 -24 -112.666 -38 -177.999l-2 -11c-3.33301 -14.667 -11.166 -27.167 -23.499 -37.5s-25.833 -15.5 -40.5 -15.5c-12 0 -21.833 3.5 -29.5 10.5s-11.834 16.167 -12.501 27.5l-2 -1c-15.333 -6 -32.333 -11.333 -51 -16
s-36.667 -7 -54 -7h-4c-50.667 1.33301 -89.667 19 -117 53c-22.667 28.667 -34 64.667 -34 108zM110.002 176.496c0 -10.333 1.99902 -20.832 5.99902 -31.499s10.5 -19.834 19.5 -27.501s22.167 -11.834 39.5 -12.501h2c18.667 0 41 6 67 18
c7.33301 3.33301 14.333 6.66602 21 9.99902s12.667 6.66602 18 9.99902c2 8 4.5 19.167 7.5 33.5s6.5 30.5 10.5 48.5l13 58.5c4.66699 21 9.66699 42.167 15 63.5c1.33301 7.33301 2.83301 14.5 4.5 21.5s3.16699 13.167 4.5 18.5c-4 1.33301 -8 2.5 -12 3.5
s-8.33301 2.16699 -13 3.5c-9.33301 2 -18.666 3 -27.999 3h-2c-22.667 0 -44 -6 -64 -18c-19.333 -12.667 -35.333 -27 -48 -43s-22.334 -30.667 -29.001 -44c-8.66699 -15.333 -15.667 -31.166 -21 -47.499s-8.66602 -31.166 -9.99902 -44.499
c-0.666992 -5.33301 -1 -13.166 -1 -23.499z" />
    <glyph glyph-name="b" unicode="b" horiz-adv-x="545" 
d="M2 53l123.997 583.001c3.33301 15.333 11.166 28.166 23.499 38.499s25.833 15.5 40.5 15.5s26.334 -5 35.001 -15c6 -7.33301 8.66699 -16.333 8 -27c0 -4 -0.333008 -8 -1 -12l-37 -173c4 2 8.16699 4.16699 12.5 6.5s8.5 4.16602 12.5 5.49902
c18.667 8 37.667 14 57 18s38.333 6 57 6h17c28.667 -1.33301 52 -9.33301 70 -24c9.33301 -6.66699 17.333 -14.667 24 -24s12.667 -19.666 18 -30.999c8.66699 -23.333 13 -49 13 -77c0 -22 -2.66699 -45.667 -8 -71c-2.66699 -11.333 -6.66699 -27.5 -12 -48.5
s-14.333 -43.167 -27 -66.5c-15.333 -29.333 -34 -54.5 -56 -75.5s-47.667 -38.833 -77 -53.5c-20 -9.33301 -39.167 -15.5 -57.5 -18.5s-34.166 -4.5 -47.499 -4.5c-16 0 -31.667 1.33301 -47 4s-29.666 6 -42.999 10l-9 3c-14 -15.333 -30.333 -23 -49 -23
c-14.667 0 -26 5.33301 -34 16c-5.33301 7.33301 -8.33301 16 -9 26c0.666992 3.33301 1.33398 7.33301 2.00098 12zM122.997 126.001c9.33301 -3.33301 21.167 -6.66602 35.5 -9.99902s30.166 -5 47.499 -5c24.667 0 46 4.33301 64 13c28 13.333 49.667 33.333 65 60
c8.66699 14 15.167 28.833 19.5 44.5s7.83301 30.167 10.5 43.5c2.66699 10.667 4.33398 23.334 5.00098 38.001v7c0 12 -1.33301 23.667 -4 35c-2.66699 10 -6 17.667 -10 23s-8.16699 9.16602 -12.5 11.499s-8.33301 3.83301 -12 4.5s-6.5 1 -8.5 1h-9
c-19.333 0 -38 -2.66699 -56 -8s-34.333 -13 -49 -23c-28 -18.667 -44.667 -41.334 -50 -68.001z" />
    <glyph glyph-name="c" unicode="c" horiz-adv-x="491" 
d="M4 133c-2.66699 12 -4.00391 23.998 -4.00391 35.998c0 14 1.66699 28.667 5 44c4.66699 24.667 11.834 47.5 21.501 68.5s18.5 38.5 26.5 52.5c12 19.333 26 38 42 56s33 34.333 51 49c48.667 39.333 96.334 59 143.001 59h5c29.333 0 55.5 -6 78.5 -18
s41.167 -29 54.5 -51v-1c3.33301 -6.66699 5 -14 5 -22c0 -2.66699 -0.333008 -5.66699 -1 -9c-3.33301 -14.667 -11 -27.167 -23 -37.5s-25.333 -15.5 -40 -15.5c-17.333 0 -29.333 6.33301 -36 19l-1 1c-12.667 21.333 -32.667 32 -60 32h-3
c-12.667 0 -25.167 -3.83301 -37.5 -11.5s-22.166 -14.5 -29.499 -20.5c-11.333 -9.33301 -22 -20 -32 -32s-18.667 -23.667 -26 -35c-13.333 -21.333 -23 -41.333 -29 -60c-4.66699 -15.333 -7.33398 -29.666 -8.00098 -42.999c0 -2.66699 0.333008 -5.33398 1 -8.00098
c1.33301 -13.333 4 -24 8 -32s8.66699 -14.667 14 -20c18.667 -20 41.334 -30.667 68.001 -32h10c10.667 0.666992 21.5 2.5 32.5 5.5s21.167 7.16699 30.5 12.5c10 5.33301 18.667 11.333 26 18l7 6c6 5.33301 12.833 9.83301 20.5 13.5s15.5 5.5 23.5 5.5
c14.667 0 26 -5.33301 34 -16c5.33301 -7.33301 8.33301 -15.333 9 -24c0 -4 -0.666992 -8 -2 -12c-3.33301 -14 -10 -25.667 -20 -35l-9 -7c-9.33301 -8 -18.833 -15.333 -28.5 -22s-20.167 -12.667 -31.5 -18c-17.333 -9.33301 -35.166 -16.166 -53.499 -20.499
s-36.833 -7.16602 -55.5 -8.49902h-1h-10c-54 0 -99 19 -135 57c-20.667 20.667 -34 46 -40 76z" />
    <glyph glyph-name="d" unicode="d" horiz-adv-x="521" 
d="M0 161l-0.00292969 10c0 22.667 3 45.667 9 69v2c3.33301 12.667 7.83301 29.167 13.5 49.5s14.834 41.833 27.501 64.5c31.333 58 75.666 100 132.999 126c30.667 14 63.334 21 98.001 21h5c28 0 55.667 -5 83 -15l32 137l4 11c3.33301 15.333 11 28.166 23 38.499
s25.667 15.5 41 15.5c14.667 0 26 -5 34 -15c5.33301 -7.33301 8 -15.666 8 -24.999c0 -4 -0.333008 -8.66699 -1 -14l-3 -13l-128 -547l-5 -23c-3.33301 -15.333 -11.333 -28.166 -24 -38.499s-26.334 -15.5 -41.001 -15.5c-13.333 0 -24.333 4.66699 -33 14
c-7.33301 8 -10.666 17.333 -9.99902 28v5c-21.333 -12.667 -42.666 -21.834 -63.999 -27.501s-42.666 -8.5 -63.999 -8.5h-5h-7h-2c-28.667 2 -52.667 10.667 -72 26c-16.667 14 -29.667 32.667 -39 56c-8 20.667 -12.333 43.667 -13 69zM105.997 196l-0.000976562 -11.999
c0 -10.667 1 -20.667 3 -30c2.66699 -10 5.83398 -17.833 9.50098 -23.5s7.5 -9.83398 11.5 -12.501s7.66699 -4.33398 11 -5.00098s6 -1 8 -1h10c32.667 0 64.667 9.33301 96 28c13.333 8 23.5 15.833 30.5 23.5s11.167 12.834 12.5 15.501l45 197
c-8.66699 5.33301 -20.5 10.5 -35.5 15.5s-31.167 7.5 -48.5 7.5c-18.667 0 -34.667 -3.33301 -48 -10c-29.333 -14.667 -51 -35 -65 -61s-25 -56.667 -33 -92c-4 -12 -6.33301 -25.333 -7 -40z" />
    <glyph glyph-name="e" unicode="e" horiz-adv-x="505" 
d="M5 151c-2.66699 14 -4.3291 28.668 -4.99609 44.001c0 17.333 2 35.333 6 54c6.66699 32.667 19 63.667 37 93s39.5 55.166 64.5 77.499s52.667 40.333 83 54s61.5 21.5 93.5 23.5c6 0.666992 12 1 18 1c32 0 59.667 -7.66699 83 -23c27.333 -18 47 -42 59 -72
c2 -5.33301 3.66699 -10.666 5 -15.999s3 -10.333 5 -15c1.33301 -3.33301 2 -7 2 -11c0 -7.33301 -2 -15.333 -6 -24c-6 -14 -16.667 -24.333 -32 -31c-14 -6.66699 -33 -16 -57 -28s-50.167 -25 -78.5 -39s-57 -28.333 -86 -43s-55.167 -27.667 -78.5 -39
c6.66699 -12.667 16.667 -24 30 -34c9.33301 -7.33301 19.666 -12.833 30.999 -16.5s23.666 -5.5 36.999 -5.5c18.667 0 37.167 3.83301 55.5 11.5s35.833 18.5 52.5 32.5l25 21c11.333 9.33301 24 14 38 14s25 -5 33 -15c5.33301 -6.66699 8 -14.334 8 -23.001
c0 -4 -0.333008 -8 -1 -12c-2.66699 -12 -9 -23 -19 -33l-24 -21c-28.667 -24.667 -59 -43.667 -91 -57c-32 -12.667 -64.667 -19 -98 -19s-63.333 6.5 -90 19.5s-48.334 30.667 -65.001 53s-28.334 48.5 -35.001 78.5zM109.005 256.001l55.001 27.5
c20.667 10.333 41.5 20.666 62.5 30.999s41 20.333 60 30s35.167 17.834 48.5 24.501c-13.333 17.333 -31.333 26.666 -54 27.999c-22.667 -0.666992 -43.334 -5.16699 -62.001 -13.5s-35.667 -19.166 -51 -32.499c-14 -13.333 -26 -28 -36 -44s-17.667 -33 -23 -51z" />
    <glyph glyph-name="f" unicode="f" horiz-adv-x="353" 
d="M2 53l73.998 348.001h-26c-14 0 -25 5 -33 15c-5.33301 7.33301 -8.33301 15.333 -9 24c0 4 0.666992 8 2 12c3.33301 14 10.833 26 22.5 36s24.5 15 38.5 15h27c12.667 46.667 33.334 83.667 62.001 111c40 38 94.667 57 164 57h12h6c14 0 25 -5 33 -15
c5.33301 -7.33301 8 -15.333 8 -24c0 -4 -0.333008 -8 -1 -12c-3.33301 -14 -11 -26 -23 -36s-25 -15 -39 -15h-4c-6 0 -13 -0.166992 -21 -0.5s-15.833 -1.33301 -23.5 -3s-15 -3.83398 -22 -6.50098s-12.833 -6 -17.5 -10c-9.33301 -9.33301 -17.333 -24.666 -24 -45.999
h72c14 0 25 -5 33 -15c6 -7.33301 9 -15.333 9 -24c0 -3.33301 -0.333008 -7.33301 -1 -12c-3.33301 -14 -11 -26 -23 -36s-25 -15 -39 -15h-77l-74 -348c-3.33301 -14.667 -11.166 -27.167 -23.499 -37.5s-25.833 -15.5 -40.5 -15.5s-26 5.33301 -34 16
c-6 7.33301 -9.33301 15.666 -10 24.999z" />
    <glyph glyph-name="g" unicode="g" horiz-adv-x="532" 
d="M5 -131c-2.66699 6 -4.33398 12.334 -5.00098 19.001c0 6.66699 1.66699 13.667 5 21c6 14 16 25 30 33c10 6 20 9.33301 30 10c3.33301 0 7 -0.666992 11 -2l9 -1c18.667 -3.33301 38.334 -5 59.001 -5h15c4.66699 0 9.66699 0.333008 15 1c26.667 2.66699 49 16 67 40
c6 7.33301 10.833 15 14.5 23s6.83398 15 9.50098 21c-2.66699 -1.33301 -4.83398 -2.33301 -6.50098 -3s-3.83398 -1.66699 -6.50098 -3c-29.333 -14.667 -58.333 -22 -87 -22h-4c-58.667 0 -101.667 24 -129 72c-11.333 19.333 -19 40.666 -23 63.999
c-2 14 -3.33301 28.333 -4 43c0 9.33301 0.666992 19 2 29c3.33301 26 9.83301 51.667 19.5 77s21.834 49 36.501 71c17.333 25.333 38 48.333 62 69c27.333 22 56.333 39.333 87 52c32 13.333 62.667 20 92 20c13.333 0 25.666 -1.33301 36.999 -4s22 -5.66699 32 -9l7 -2
c6 7.33301 13.333 13.333 22 18s18 7 28 7c14.667 0 26 -5 34 -15c6 -7.33301 9 -15.666 9 -24.999c0 -4 -0.666992 -8 -2 -12l-4 -19l-15 -65c-6 -26 -12.333 -53.5 -19 -82.5s-13.5 -58.167 -20.5 -87.5s-13.333 -55.833 -19 -79.5s-10.334 -43.5 -14.001 -59.5
s-5.83398 -25.333 -6.50098 -28c-7.33301 -26.667 -17.666 -51.334 -30.999 -74.001s-29.666 -42.667 -48.999 -60c-18.667 -17.333 -39.167 -31.333 -61.5 -42s-45.833 -17 -70.5 -19c-6.66699 -1.33301 -13.167 -2 -19.5 -2h-20.5c-13.333 0 -26.166 0.5 -38.499 1.5
s-23.833 2.5 -34.5 4.5l-14 2c-14 3.33301 -23.667 11 -29 23zM108 217.001c-0.666992 -6 -1.33398 -12.334 -2.00098 -19.001c0 -7.33301 0.666992 -14.666 2 -21.999c2 -14 6 -26 12 -36c14 -24 34 -36 60 -36h1c10 0 21.667 2 35 6s27 12.333 41 25
c30 28 51.667 71.333 65 130c1.33301 7.33301 3.16602 16 5.49902 26s4.5 20.167 6.5 30.5s4.16699 20.5 6.5 30.5s4.16602 18.333 5.49902 25c-5.33301 3.33301 -13.166 6.83301 -23.499 10.5s-22.166 5.5 -35.499 5.5c-17.333 0 -36 -3.66699 -56 -11
c-43.333 -18 -76 -46.667 -98 -86c-9.33301 -17.333 -15.666 -33.333 -18.999 -48s-5.33301 -25 -6 -31z" />
    <glyph glyph-name="h" unicode="h" horiz-adv-x="534" 
d="M2 54l123.999 581.999c3.33301 15.333 11.166 28.166 23.499 38.499s25.833 15.5 40.5 15.5s26.334 -5 35.001 -15c6 -7.33301 8.66699 -16.333 8 -27c0 -4 -0.333008 -8 -1 -12l-43 -201c5.33301 4.66699 10.333 9 15 13l14 12c48 38.667 93 58 135 58
c8 0 16.667 -1 26 -3s18.333 -5.83301 27 -11.5s16.5 -13.5 23.5 -23.5s12.5 -23 16.5 -39c5.33301 -19.333 8 -41.666 8 -66.999v-14c-1.33301 -31.333 -6 -68.666 -14 -111.999c-2.66699 -14 -6.16699 -32 -10.5 -54s-8.83301 -43.333 -13.5 -64
c-5.33301 -24 -11 -49 -17 -75c-3.33301 -14.667 -11 -27.167 -23 -37.5s-25.333 -15.5 -40 -15.5s-26 5.33301 -34 16c-5.33301 7.33301 -8.33301 15.666 -9 24.999c0 4 0.666992 8 2 12c5.33301 24 10.666 47.333 15.999 70c4.66699 19.333 9.16699 40 13.5 62
s8.16602 41.667 11.499 59c5.33301 30 9 55.333 11 76c0.666992 12 1 22.667 1 32c0 6.66699 -0.333008 13 -1 19c-1.33301 13.333 -3.5 22.833 -6.5 28.5s-6.5 8.5 -10.5 8.5c-24.667 0 -56.334 -17.667 -95.001 -53c-17.333 -16 -32.166 -31.667 -44.499 -47
s-20.166 -25.666 -23.499 -30.999c-6 -8.66699 -11 -18.334 -15 -29.001s-7.66699 -24 -11 -40l-33 -156c-3.33301 -15.333 -11.166 -28.166 -23.499 -38.499s-25.833 -15.5 -40.5 -15.5c-14 0 -25.333 5.33301 -34 16c-6 7.33301 -9.33301 16 -10 26
c0.666992 3.33301 1.33398 7.33301 2.00098 12z" />
    <glyph glyph-name="i" unicode="i" horiz-adv-x="259" 
d="M2 52l82.999 394c3.33301 15.333 11.5 28.166 24.5 38.499s27.167 15.5 42.5 15.5c16 0 28 -5.33301 36 -16c6 -7.33301 8.66699 -15.666 8 -24.999c0 -4 -0.333008 -8.33301 -1 -13l-85 -394c-3.33301 -15.333 -11.333 -28.166 -24 -38.499s-26.667 -15.5 -42 -15.5
s-27 5.33301 -35 16c-5.33301 7.33301 -8.33301 15.666 -9 24.999c0.666992 4 1.33398 8.33301 2.00098 13zM122.999 605l8.99805 33.999c3.33301 14.667 11.333 27.167 24 37.5s26.334 15.5 41.001 15.5s26 -5 34 -15c5.33301 -7.33301 8 -15.666 8 -24.999
c0 -4 -0.333008 -8.33301 -1 -13l-9 -34c-3.33301 -14.667 -11.166 -27.167 -23.499 -37.5s-25.833 -15.5 -40.5 -15.5c-14 0 -25.333 5 -34 15c-6 7.33301 -9 16 -9 26c0 4 0.333008 8 1 12z" />
    <glyph glyph-name="j" unicode="j" horiz-adv-x="372" 
d="M-99 -5c-0.666992 3.33301 -0.998047 7.00098 -0.998047 11.001c0 10 2 19.333 6 28c8 14 18.667 24.333 32 31c8.66699 4.66699 17 7 25 7c5.33301 0 10.333 -0.666992 15 -2c14.667 -4 23.667 -13.333 27 -28c2 -7.33301 4.33301 -14.666 7 -21.999
c2 -6 4.16699 -11.833 6.5 -17.5s4.16602 -10.167 5.49902 -13.5c6.66699 -13.333 12.5 -22 17.5 -26s8.5 -6 10.5 -6c5.33301 0 9.66602 1.66699 12.999 5c5.33301 4 10.666 11.333 15.999 22c6 11.333 10.333 22.166 13 32.499s4.33398 17.166 5.00098 20.499
c0.666992 2 2.16699 9.33301 4.5 22s5.5 28.834 9.5 48.501s8.33301 41.667 13 66s9.66699 49.166 15 74.499c12 59.333 25.333 125.666 40 198.999c3.33301 15.333 11.166 28 23.499 38s25.833 15 40.5 15s26 -5 34 -15c6 -7.33301 9.33301 -16 10 -26
c0 -4 -0.666992 -8 -2 -12c-14 -72 -27 -136.667 -39 -194c-5.33301 -24.667 -10.333 -49 -15 -73s-9 -45.667 -13 -65s-7.16699 -35.666 -9.5 -48.999s-3.83301 -21.333 -4.5 -24c-1.33301 -8 -4.83301 -21 -10.5 -39s-14.167 -36.667 -25.5 -56
c-16.667 -29.333 -37 -52 -61 -68s-50 -24 -78 -24c-26 0 -49.333 9 -70 27c-7.33301 6.66699 -14.333 14.5 -21 23.5s-12.667 19.167 -18 30.5c-3.33301 5.33301 -6.16602 11.5 -8.49902 18.5l-6.5 19.5c-2.66699 7.33301 -4.66699 14.333 -6 21zM216.002 603.001
l9.99805 34c3.33301 14.667 11 27.167 23 37.5s25.333 15.5 40 15.5c15.333 0 27 -5 35 -15c5.33301 -7.33301 8.33301 -16 9 -26c0 -4 -0.666992 -8 -2 -12l-9 -34c-3.33301 -14.667 -11.166 -27.167 -23.499 -37.5s-26.166 -15.5 -41.499 -15.5c-14.667 0 -26 5 -34 15
c-5.33301 7.33301 -8.33301 16 -9 26z" />
    <glyph glyph-name="k" unicode="k" horiz-adv-x="515" 
d="M2 54l121.996 581.999c3.33301 15.333 11 28.166 23 38.499s25.667 15.5 41 15.5c14.667 0 26.334 -5 35.001 -15c6 -7.33301 8.66699 -16.333 8 -27c0 -4 -0.333008 -8 -1 -12l-66 -314c12 9.33301 25 19.333 39 30s28.667 22.334 44 35.001
c12 10 26.167 22.167 42.5 36.5s31.833 28.166 46.5 41.499c17.333 15.333 35 31.333 53 48c11.333 11.333 24.333 18 39 20c2.66699 0 5 0.333008 7 1c11.333 0 20.666 -4 27.999 -12c8 -8 12 -18.333 12 -31v-5c-1.33301 -14 -7.66602 -26.667 -18.999 -38
c-23.333 -21.333 -45.666 -41.666 -66.999 -60.999c-18 -16.667 -36.333 -33.167 -55 -49.5s-33.667 -29.166 -45 -38.499c3.33301 -5.33301 7 -11.833 11 -19.5s8.66699 -15.834 14 -24.501c7.33301 -13.333 16.333 -29.333 27 -48s21 -36.667 31 -54
c12 -20 24 -40.333 36 -61c4.66699 -7.33301 7 -15.333 7 -24c0 -6 -1 -12 -3 -18c-5.33301 -14.667 -15.333 -27 -30 -37c-11.333 -8 -23 -12 -35 -12h-7c-14 1.33301 -24.667 8.66602 -32 21.999c-13.333 26 -26 50.667 -38 74c-10.667 20 -21.5 40.333 -32.5 61
s-20.167 37 -27.5 49c-3.33301 4.66699 -6.16602 9.33398 -8.49902 14.001s-4.83301 8.66699 -7.5 12c-10.667 -6.66699 -20.834 -13 -30.501 -19s-18.167 -11 -25.5 -15l-30 -145c-3.33301 -15.333 -11.166 -28.166 -23.499 -38.499s-25.833 -15.5 -40.5 -15.5
c-15.333 0 -27 5.33301 -35 16c-5.33301 7.33301 -8.33301 16 -9 26c0.666992 3.33301 1.33398 7.33301 2.00098 12z" />
    <glyph glyph-name="l" unicode="l" horiz-adv-x="253" 
d="M2 53l124 583c3.33301 14.667 11.166 27.167 23.499 37.5s25.833 15.5 40.5 15.5c15.333 0 27 -5 35 -15c5.33301 -7.33301 8 -16 8 -26c0 -4 -0.333008 -8 -1 -12l-124 -583c-3.33301 -15.333 -11 -28 -23 -38s-25.667 -15 -41 -15c-14 0 -25.333 5 -34 15
c-6 7.33301 -9.33301 16 -10 26c0.666992 3.33301 1.33398 7.33301 2.00098 12z" />
    <glyph glyph-name="m" unicode="m" horiz-adv-x="797" 
d="M2 53l83.9971 396.003c3.33301 14.667 11.166 27.167 23.499 37.5s25.833 15.5 40.5 15.5s26.334 -5.33301 35.001 -16c6 -7.33301 8.66699 -15.666 8 -24.999c0 -4 -0.333008 -8 -1 -12l-3 -16c6.66699 6 13.167 11.5 19.5 16.5s12.833 10.167 19.5 15.5
c44 32 83.333 48 118 48c33.333 0 59 -8 77 -24c14.667 -12 25 -27.667 31 -47c18.667 15.333 38 28.666 58 39.999c37.333 20.667 70.666 31 99.999 31c42 0 72.667 -13.333 92 -40c16 -20.667 24 -48.667 24 -84c0 -20 -2.66699 -42.333 -8 -67l-57 -269
c-3.33301 -14.667 -11.166 -27.167 -23.499 -37.5s-25.833 -15.5 -40.5 -15.5s-26.334 5.33301 -35.001 16c-6 7.33301 -8.66699 15.666 -8 24.999c0 4 0.333008 8 1 12l58 275c2.66699 10.667 4.66699 24 6 40c0 3.33301 0.333008 6.33301 1 9c0 12 -2.33301 21.333 -7 28
c-5.33301 6 -13.666 9 -24.999 9c-8 0 -19.333 -3 -34 -9s-29.667 -14.667 -45 -26c-12.667 -9.33301 -25.5 -21.833 -38.5 -37.5s-21.833 -35.167 -26.5 -58.5l-49 -230c-3.33301 -14.667 -11.166 -27.167 -23.499 -37.5s-25.833 -15.5 -40.5 -15.5
c-14 0 -25.333 5.33301 -34 16c-6 7.33301 -9 15.666 -9 24.999c0 4 0.333008 8 1 12l58 275c2.66699 10.667 4.66699 24 6 40v9c0 12 -2 21.333 -6 28c-5.33301 6 -13.666 9 -24.999 9s-31.333 -9.16699 -60 -27.5s-61.667 -50.5 -99 -96.5c-3.33301 -4 -6 -8.5 -8 -13.5
s-3.33301 -8.5 -4 -10.5l-45 -213c-3.33301 -14.667 -11.166 -27.167 -23.499 -37.5s-25.833 -15.5 -40.5 -15.5c-14 0 -25.333 5.33301 -34 16c-6 7.33301 -9.33301 15.666 -10 24.999z" />
    <glyph glyph-name="n" unicode="n" horiz-adv-x="551" 
d="M2 53l79.002 375l7 30c3.33301 14.667 11.166 27.167 23.499 37.5s25.833 15.5 40.5 15.5s26.334 -5 35.001 -15c6 -7.33301 8.66699 -15.666 8 -24.999c0 -4 -0.333008 -8.33301 -1 -13l-7 -31c3.33301 3.33301 6.66602 6.33301 9.99902 9s6.66602 5.66699 9.99902 9
c23.333 19.333 47 33.666 71 42.999c24.667 10 50.334 15 77.001 15c36.667 0 65 -10 85 -30c18.667 -18.667 29 -47.334 31 -86.001v-13c0 -25.333 -2.66699 -54.666 -8 -87.999c-7.33301 -40 -17.666 -90 -30.999 -150c-2 -9.33301 -4 -18.833 -6 -28.5
s-3.66699 -18.5 -5 -26.5c-2 -9.33301 -3.66699 -18.666 -5 -27.999c-3.33301 -14.667 -11.166 -27.167 -23.499 -37.5s-25.5 -15.5 -39.5 -15.5c-14.667 0 -26.334 5.33301 -35.001 16c-6 7.33301 -8.66699 15.666 -8 24.999c0 4 0.333008 8 1 12l6 30
c1.33301 8.66699 3 17.667 5 27s3.66699 17.666 5 24.999c11.333 48.667 20.333 93 27 133c6.66699 35.333 10 64 10 86v8c-0.666992 17.333 -3.33398 27.833 -8.00098 31.5s-12.334 5.5 -23.001 5.5c-6.66699 0 -14.167 -0.833008 -22.5 -2.5s-17.833 -5.66699 -28.5 -12
s-22.334 -15.5 -35.001 -27.5s-26.334 -28 -41.001 -48c-19.333 -25.333 -36.166 -53.666 -50.499 -84.999s-24.5 -61.666 -30.5 -90.999l-18 -80c-3.33301 -14.667 -11.166 -27.167 -23.499 -37.5s-25.833 -15.5 -40.5 -15.5s-26 5.33301 -34 16
c-5.33301 7.33301 -8.33301 15.666 -9 24.999z" />
    <glyph glyph-name="o" unicode="o" horiz-adv-x="517" 
d="M2 144c-1.33301 10.667 -2 21.332 -2 31.999c0 24.667 3.66699 50.667 11 78c9.33301 32.667 23.333 63.834 42 93.501s41.667 56.167 69 79.5c27.333 24 55.833 42.333 85.5 55s58.834 19 87.501 19c25.333 0 48.666 -4.66699 69.999 -14s39.333 -23.333 54 -42
c20 -24.667 32.333 -54.334 37 -89.001c1.33301 -10.667 2 -21 2 -31c0 -24.667 -3.66699 -50.667 -11 -78c-9.33301 -33.333 -23.5 -64.833 -42.5 -94.5s-41.833 -56.167 -68.5 -79.5c-27.333 -24 -55.833 -42.333 -85.5 -55s-59.167 -19 -88.5 -19
c-25.333 0 -48.5 4.83301 -69.5 14.5s-39.167 23.834 -54.5 42.501c-19.333 24.667 -31.333 54 -36 88zM109 177.998c2 -21.333 8.66602 -39.001 19.999 -53.001c6.66699 -9.33301 14.667 -16 24 -20s19.666 -6 30.999 -6c14 0 28.833 3.66699 44.5 11
s31.167 18.333 46.5 33s28.833 31.667 40.5 51s20.167 39.333 25.5 60c4.66699 15.333 7 31 7 47c0 6.66699 -0.666992 13.334 -2 20.001c-2.66699 22 -9.66699 40.667 -21 56c-14.667 16.667 -33 25 -55 25c-29.333 0 -58.666 -14.667 -87.999 -44
c-15.333 -14.667 -28.666 -31.667 -39.999 -51s-20 -39.333 -26 -60c-4.66699 -18.667 -7 -36.334 -7 -53.001c-0.666992 -5.33301 -0.666992 -10.666 0 -15.999z" />
    <glyph glyph-name="p" unicode="p" horiz-adv-x="524" 
d="M-38 -127l121.998 574.999c3.33301 14.667 11.166 27.167 23.499 37.5s25.833 15.5 40.5 15.5c12.667 0 22.834 -4 30.501 -12s11.834 -17.667 12.501 -29h1c42.667 22 87.334 33 134.001 33h11c28 -1.33301 52 -9.33301 72 -24
c18.667 -13.333 32.334 -31.666 41.001 -54.999c8.66699 -20 13.667 -42.333 15 -67v-10c0 -22 -2.66699 -45.333 -8 -70c-2.66699 -12.667 -6.66699 -29 -12 -49s-14 -41.667 -26 -65c-30 -56.667 -74 -99 -132 -127c-32 -16 -66.667 -24 -104 -24
c-16 0 -31.167 1.33301 -45.5 4s-27.5 6 -39.5 10l-30 -143c-3.33301 -14.667 -11.333 -27.167 -24 -37.5s-26.334 -15.5 -41.001 -15.5s-26 5 -34 15c-5.33301 7.33301 -8.33301 16 -9 26zM121.998 128.999c9.33301 -4.66699 21.668 -9.16699 37.001 -13.5
s31.666 -6.5 48.999 -6.5c20 0 38 3.66699 54 11c27.333 12.667 49 32.667 65 60c8.66699 14 15.167 28.667 19.5 44s7.83301 29.666 10.5 42.999c2 8 3.33301 19 4 33c0 4.66699 0.333008 9.33398 1 14.001c0 9.33301 -0.666992 18.333 -2 27c-2 14 -6.33301 26 -13 36
s-17 15.333 -31 16h-9c-34.667 0 -67.334 -8.66699 -98.001 -26c-10.667 -5.33301 -19.667 -11 -27 -17s-12.666 -11 -15.999 -15z" />
    <glyph glyph-name="q" unicode="q" horiz-adv-x="537" 
d="M0 157l0.00195312 13.999c0 27.333 4.66699 55.333 14 84c28 88 75.667 153.667 143 197c52.667 33.333 112.334 50 179.001 50h19.5c6.33301 0 12.833 -0.333008 19.5 -1l14 -2c5.33301 5.33301 11.666 9.5 18.999 12.5s14.666 4.5 21.999 4.5
c14.667 0 26 -5.33301 34 -16c6 -7.33301 9 -15.333 9 -24c0 -4 -0.666992 -8 -2 -12l-144 -580c-3.33301 -14.667 -11 -27.167 -23 -37.5s-25.333 -15.5 -40 -15.5s-26.334 5.33301 -35.001 16c-6 7.33301 -8.66699 15.333 -8 24c0 4 0.333008 8.33301 1 13l34 135
c-11.333 -5.33301 -23.5 -9.66602 -36.5 -12.999s-27.833 -5 -44.5 -5h-12c-30.667 2 -57.667 9 -81 21s-42 29.333 -56 52c-15.333 23.333 -24 51 -26 83zM104.002 186.999c0.666992 -18 4.99902 -34 12.999 -48c14.667 -24 38.334 -36 71.001 -36c10 0 20.5 1 31.5 3
s21.5 6 31.5 12s19 14.167 27 24.5s14.333 23.833 19 40.5l53 216c-6 0.666992 -12 1.16699 -18 1.5s-11.667 0.5 -17 0.5c-44.667 0 -83 -10 -115 -30c-38 -25.333 -67.667 -68 -89 -128c-4.66699 -16.667 -7 -32.667 -7 -48v-8z" />
    <glyph glyph-name="r" unicode="r" horiz-adv-x="448" 
d="M2 52l84.998 403.001c3.33301 15.333 11.166 28 23.499 38s25.833 15 40.5 15c15.333 0 27 -5 35 -15c5.33301 -6.66699 8 -15 8 -25c0 -4 -0.333008 -8.33301 -1 -13l-1 -8c11.333 10 23.833 19.167 37.5 27.5s27.167 14.5 40.5 18.5c20 6.66699 38.333 10 55 10
c26 0 46.667 -7 62 -21c9.33301 -8.66699 16 -19.334 20 -32.001c2 -6.66699 3 -13 3 -19s-1 -12.333 -3 -19c-0.666992 -2.66699 -1.66699 -8 -3 -16c-0.666992 -4 -1.66699 -8.33301 -3 -13c-3.33301 -14 -11 -26.167 -23 -36.5s-25.333 -15.5 -40 -15.5
s-26 5.33301 -34 16c-5.33301 7.33301 -8.33301 15.333 -9 24c0 3.33301 0.666992 7.33301 2 12c0 2 0.333008 4.33301 1 7l2 8h-2c-1.33301 0 -3.5 -0.166992 -6.5 -0.5s-7.16699 -1.16602 -12.5 -2.49902c-12 -3.33301 -25.833 -10.833 -41.5 -22.5
s-30.5 -25.5 -44.5 -41.5s-23.667 -29.5 -29 -40.5s-8.66602 -17.833 -9.99902 -20.5l-46 -218c-3.33301 -14.667 -11.166 -27.167 -23.499 -37.5s-26.166 -15.5 -41.499 -15.5c-14.667 0 -26 5.33301 -34 16c-5.33301 7.33301 -8.33301 15.666 -9 24.999z" />
    <glyph glyph-name="s" unicode="s" horiz-adv-x="466" 
d="M-18 143c2.66699 11.333 8.33105 21.3291 16.998 29.9961s19 14.667 31 18c5.33301 1.33301 10 2 14 2c10 0 18.167 -3.33301 24.5 -10s10.833 -15 13.5 -25c3.33301 -18.667 11.166 -34 23.499 -46s29.5 -18 51.5 -18c6.66699 0 14.667 1.16699 24 3.5s18.5 6 27.5 11
s17 11.167 24 18.5s11.5 16 13.5 26s0.833008 18.5 -3.5 25.5s-10.333 13 -18 18s-16 9 -25 12s-16.833 5.5 -23.5 7.5c-48 14.667 -81.333 33.334 -100 56.001c-15.333 18 -23 39.667 -23 65c0 10 1 20.333 3 31c10 48 39 84.333 87 109
c22.667 11.333 44.834 18.333 66.501 21s38.167 4 49.5 4c64 0 105.667 -18 125 -54c8.66699 -14.667 12.667 -30.334 12 -47.001c0 -8.66699 -1 -17.667 -3 -27c-2.66699 -12.667 -8.83398 -23.5 -18.501 -32.5s-20.834 -14.5 -33.501 -16.5h-8c-8 0 -16 2.33301 -24 7
c-10.667 6 -16 18.333 -16 37c0 16 -5.5 27.167 -16.5 33.5s-24.833 9.5 -41.5 9.5c-6 0 -13.333 -0.833008 -22 -2.5s-17.167 -4.16699 -25.5 -7.5s-15.666 -8.16602 -21.999 -14.499s-10.5 -13.833 -12.5 -22.5c-2 -9.33301 -0.5 -17.166 4.5 -23.499
s11.167 -11.666 18.5 -15.999s15.166 -7.66602 23.499 -9.99902s14.833 -4.16602 19.5 -5.49902c52.667 -15.333 89 -35.333 109 -60c14 -17.333 21 -38.333 21 -63c0 -10.667 -1.33301 -22.334 -4 -35.001c-4 -19.333 -12.167 -38.166 -24.5 -56.499
s-28.166 -34.833 -47.499 -49.5c-19.333 -15.333 -40.666 -27 -63.999 -35s-47.333 -12 -72 -12c-34 0 -61 6 -81 18s-35 24 -45 36c-11.333 13.333 -19.666 28.333 -24.999 45c-3.33301 11.333 -5.33301 21.666 -6 30.999c0.666992 5.33301 1.33398 10 2.00098 14z" />
    <glyph glyph-name="t" unicode="t" horiz-adv-x="352" 
d="M2 451c3.33301 14.667 11.332 27.167 23.999 37.5s26.334 15.5 41.001 15.5h69l21 102c3.33301 14.667 11 27 23 37s25.667 15 41 15c14.667 0 26 -5 34 -15c5.33301 -7.33301 8.33301 -15.666 9 -24.999c0 -4 -0.666992 -8 -2 -12l-21 -102h69
c15.333 0 27 -5.33301 35 -16c5.33301 -7.33301 8 -15.333 8 -24c0 -4 -0.666992 -8.33301 -2 -13c-3.33301 -15.333 -11 -28 -23 -38s-25.667 -15 -41 -15h-69l-73 -346c-3.33301 -14.667 -11 -27 -23 -37s-25.333 -15 -40 -15c-15.333 0 -27 5 -35 15
c-5.33301 7.33301 -8 15.666 -8 24.999c0 4 0.333008 8 1 12l73 346h-69c-14 0 -25.333 5 -34 15c-6 7.33301 -9.33301 16 -10 26z" />
    <glyph glyph-name="u" unicode="u" horiz-adv-x="494" 
d="M0 142c0.666992 22 3.33008 44.8281 7.99707 68.4951s9.33398 47.5 14.001 71.5l1 2c2.66699 14 6.66699 30.667 12 50s10.833 38 16.5 56s10.5 33.333 14.5 46s6 19.334 6 20.001c4.66699 12.667 12.667 23.334 24 32.001s23.666 13 36.999 13c14.667 0 26 -5 34 -15
c5.33301 -6.66699 8 -14.667 8 -24c0 -4 -0.333008 -8 -1 -12l-5 -15c-2.66699 -8.66699 -5.83398 -19 -9.50098 -31s-7.5 -24.667 -11.5 -38s-7.83301 -27 -11.5 -41s-6.83398 -27.333 -9.50098 -40v-1l-1 -2c-3.33301 -18.667 -6.83301 -37.667 -10.5 -57
s-6.16699 -37.333 -7.5 -54c-0.666992 -8 -1 -15.333 -1 -22c0 -10 0.666992 -18 2 -24c2 -10 4.66699 -16.667 8 -20c0.666992 -1.33301 3.33398 -3 8.00098 -5s11.334 -3 20.001 -3c12.667 0 25.834 2 39.501 6s26.667 9 39 15s23.333 12 33 18s16.834 11 21.501 15
c1.33301 1.33301 2.66602 4 3.99902 8s2.66602 7.66699 3.99902 11l64 280c3.33301 13.333 11 25 23 35s25 15 39 15c14.667 0 26 -5 34 -15c5.33301 -7.33301 8.33301 -15.333 9 -24c0 -3.33301 -0.666992 -7 -2 -11l-84 -396
c-3.33301 -15.333 -11.333 -28.166 -24 -38.499s-26.667 -15.5 -42 -15.5c-12.667 0 -23 3.33301 -31 10s-13 15.334 -15 26.001l-3 -2c-19.333 -10 -40.166 -18.333 -62.499 -25s-45.166 -10 -68.499 -10c-17.333 0 -34.666 2.66699 -51.999 8
c-10 3.33301 -18.5 7 -25.5 11s-13.167 8.66699 -18.5 14c-11.333 14 -19 30.333 -23 49c-2.66699 14.667 -4 30.334 -4 47.001v14z" />
    <glyph glyph-name="v" unicode="v" horiz-adv-x="480" 
d="M41 426c-0.666992 3.33301 -1.00293 6.33105 -1.00293 8.99805c0 10.667 3.33301 21.334 10 32.001c8.66699 14 20.334 23.667 35.001 29c6.66699 2 13 3.33301 19 4c7.33301 0 14.333 -1.66699 21 -5c12 -6 19.667 -15.667 23 -29l46 -283l168 283
c7.33301 13.333 18.333 23 33 29c8 3.33301 15.333 5 22 5c6 0 12.333 -1 19 -3c12.667 -5.33301 20.334 -14.666 23.001 -27.999c0.666992 -3.33301 1 -7 1 -11c0 -10 -2.66699 -20 -8 -30l-233 -388c-6 -11.333 -14.667 -20.833 -26 -28.5s-23.666 -11.5 -36.999 -11.5
s-24.5 4 -33.5 12s-14.167 18 -15.5 30z" />
    <glyph glyph-name="w" unicode="w" horiz-adv-x="634" 
d="M41 50l2.99902 387c0.666992 14.667 6.16699 27.834 16.5 39.501s23.166 19.167 38.499 22.5c4 0.666992 8 1 12 1c10 0 18.667 -3 26 -9c10 -8.66699 15 -19.667 15 -33l-4 -237l128 234c6 12.667 15 23.167 27 31.5s24.667 12.5 38 12.5c14 0 25.333 -4.66699 34 -14
c8 -8 12 -17.667 12 -29c0 -1.33301 -0.333008 -3 -1 -5l4 -232l124 243c7.33301 14 18 24.333 32 31c8.66699 4.66699 17.334 7 26.001 7c4.66699 0 9.33398 -0.666992 14.001 -2c13.333 -4 22 -12.333 26 -25c1.33301 -4.66699 2.33301 -9.66699 3 -15
c0 -8 -2 -16.333 -6 -25l-208 -394c-9.33301 -14.667 -22 -25.667 -38 -33c-9.33301 -4 -18 -6 -26 -6c-6.66699 0 -13 1 -19 3c-9.33301 4 -16.5 10 -21.5 18s-6.83301 17 -5.5 27l-6 225l-133 -235c-9.33301 -15.333 -22 -26.333 -38 -33
c-8.66699 -4 -17.334 -5.66699 -26.001 -5c-6.66699 0 -13 1 -19 3c-9.33301 4 -16.666 10 -21.999 18c-4 7.33301 -6 15.666 -6 24.999v4z" />
    <glyph glyph-name="x" unicode="x" horiz-adv-x="568" 
d="M-39 52c2.66699 14 10.333 26.334 23 37.001l205 172l-95 152c-4.66699 7.33301 -7 15.333 -7 24c0 4.66699 1 9.66699 3 15c4.66699 14 13.334 25.667 26.001 35c12 8.66699 24.667 13 38 13h4c14 -0.666992 24.667 -7 32 -19l89 -148l175 151
c12.667 10.667 26.334 16 41.001 16s26.334 -5 35.001 -15c6 -8 9 -17 9 -27c0 -3.33301 -0.333008 -7 -1 -11c-2.66699 -14 -10.334 -26.333 -23.001 -37l-184 -154l106 -170c4.66699 -8 7 -16 7 -24c0 -4.66699 -1 -9.66699 -3 -15
c-4.66699 -14 -13.334 -25.667 -26.001 -35c-12 -8.66699 -24.667 -12.667 -38 -12h-3c-14 0.666992 -25 6.66699 -33 18l-100 165l-197 -168c-12.667 -10.667 -26.334 -16 -41.001 -16s-25.667 5.33301 -33 16c-6.66699 7.33301 -10 16.333 -10 27
c0 3.33301 0.333008 6.66602 1 9.99902z" />
    <glyph glyph-name="y" unicode="y" horiz-adv-x="474" 
d="M-10 -129l0.00195312 8.99805c0 10.667 3.66699 21.334 11 32.001l116 172l-96 340c-1.33301 5.33301 -2 10 -2 14c0 8.66699 2.33301 17.334 7 26.001c8 14 19.333 24.333 34 31c8 3.33301 15.667 5 23 5c6 0 12 -1 18 -3c13.333 -4.66699 21.333 -13.667 24 -27
l75 -263l177 261c8.66699 13.333 20.334 22.666 35.001 27.999c7.33301 2.66699 14.333 4 21 4s13 -1.33301 19 -4c12 -6 19.333 -15.667 22 -29c0.666992 -3.33301 1 -6.66602 1 -9.99902c0 -10.667 -3.33301 -21 -10 -31l-377 -558
c-8.66699 -13.333 -20.334 -22.333 -35.001 -27c-6.66699 -2.66699 -13.334 -4 -20.001 -4c-7.33301 0 -14 1.66699 -20 5c-12.667 5.33301 -20.334 15 -23.001 29z" />
    <glyph glyph-name="z" unicode="z" horiz-adv-x="548" 
d="M2 49c3.33301 13.333 9.66602 24.3311 18.999 32.998l313 311h-184c-14.667 0 -26.334 5 -35.001 15c-6 7.33301 -9 16 -9 26c0 4 0.666992 8 2 12c3.33301 14.667 11.333 27.167 24 37.5s26.334 15.5 41.001 15.5h296c13.333 0 24 -5 32 -15
c5.33301 -6.66699 8 -14 8 -22c0 -4 -0.666992 -8.33301 -2 -13c-2 -10 -7.33301 -20 -16 -30l-315 -313h195c15.333 0 27 -5 35 -15c5.33301 -7.33301 8.33301 -15.666 9 -24.999c0 -4 -0.666992 -8.33301 -2 -13c-3.33301 -14.667 -11 -27.167 -23 -37.5
s-25.667 -15.5 -41 -15.5h-308c-14 0 -24.667 5 -32 15c-5.33301 6.66699 -8.33301 14.334 -9 23.001c0.666992 3.33301 1.33398 7 2.00098 11z" />
    <glyph glyph-name="braceleft" unicode="{" horiz-adv-x="435" 
d="M2 350c4.66699 19.333 15.6621 34.3271 32.9951 44.9941c2.66699 1.33301 4.83398 2.33301 6.50098 3s3.83398 1.66699 6.50098 3c21.333 8 37.666 20.667 48.999 38c4.66699 6.66699 7.66699 12.334 9 17.001s2 7.33398 2 8.00098v3l38 180c10 49.333 37 89.333 81 120
c19.333 14 38.833 24.333 58.5 31s36.834 11.667 51.501 15h5c2.66699 0.666992 6 1 10 1c15.333 0 27 -5.16699 35 -15.5s10.333 -23.166 7 -38.499c-3.33301 -13.333 -10.166 -25 -20.499 -35s-22.166 -16 -35.499 -18l-3 -1c-7.33301 -1.33301 -15.5 -3.33301 -24.5 -6
s-17.5 -6.66699 -25.5 -12c-16 -9.33301 -26 -23 -30 -41l-38 -178c-2.66699 -16.667 -9.33398 -35.834 -20.001 -57.501s-26.667 -42.167 -48 -61.5c10.667 -15.333 17.334 -33 20.001 -53c2.66699 -15.333 3.33398 -28.666 2.00098 -39.999
s-2.66602 -19.666 -3.99902 -24.999l-41 -194c-4 -18 0 -31.667 12 -41c6 -5.33301 12.833 -9.33301 20.5 -12s14.834 -4.66699 21.501 -6l3 -1c12.667 -2 22.167 -8 28.5 -18s8.16602 -21.667 5.49902 -35c-3.33301 -15.333 -11.333 -28.166 -24 -38.499
s-26.667 -15.5 -42 -15.5c-4 0 -7 0.333008 -9 1h-5c-13.333 3.33301 -28.5 8.33301 -45.5 15s-32.167 17 -45.5 31c-30.667 30.667 -40.334 70.667 -29.001 120l41 195c0 1.33301 0.666992 2.66602 2 3.99902c0 0.666992 0.166992 3.33398 0.5 8.00098
s-0.166992 10 -1.5 16c-2.66699 16.667 -13.667 29.334 -33 38.001c-2 1.33301 -3.66699 2.33301 -5 3s-3 1.66699 -5 3c-13.333 10.667 -18 25.667 -14 45z" />
    <glyph glyph-name="bar" unicode="|" horiz-adv-x="330" 
d="M2 -86l182.001 854c3.33301 14.667 11.166 27 23.499 37s25.833 15 40.5 15s26 -5 34 -15s10.333 -22.333 7 -37l-182 -854c-3.33301 -14.667 -11 -27.167 -23 -37.5s-25.333 -15.5 -40 -15.5s-26.167 5.16699 -34.5 15.5s-10.833 22.833 -7.5 37.5z" />
    <glyph glyph-name="braceright" unicode="}" horiz-adv-x="394" 
d="M16 -75c3.33301 13.333 10.1709 25.0059 20.5039 35.0059s22.166 16 35.499 18l3 1c7.33301 1.33301 15.5 3.33301 24.5 6s17.5 6.66699 25.5 12c16 9.33301 26 23 30 41l38 178c2.66699 16.667 9.33398 35.834 20.001 57.501s26.667 42.167 48 61.5
c-10.667 15.333 -17.334 33 -20.001 53c-2.66699 15.333 -3.33398 28.666 -2.00098 39.999s2.66602 19.666 3.99902 24.999l41 194c4 18 0 31.667 -12 41c-6 5.33301 -12.833 9.33301 -20.5 12s-14.834 4.66699 -21.501 6l-3 1c-12.667 2 -22.167 8 -28.5 18
s-8.16602 21.667 -5.49902 35c3.33301 15.333 11.333 28.166 24 38.499s26.667 15.5 42 15.5c4 0 7 -0.333008 9 -1h5c13.333 -3.33301 28.5 -8.33301 45.5 -15s32.167 -17 45.5 -31c30.667 -30.667 40.334 -70.667 29.001 -120l-41 -195
c0 -1.33301 -0.666992 -2.66602 -2 -3.99902c0 -0.666992 -0.166992 -3.33398 -0.5 -8.00098s0.166992 -10 1.5 -16c2.66699 -16.667 13.667 -29.334 33 -38.001c2 -1.33301 3.66699 -2.33301 5 -3s3 -1.66699 5 -3c13.333 -10.667 18 -25.667 14 -45
c-4.66699 -19.333 -15.667 -34.333 -33 -45c-2.66699 -1.33301 -4.83398 -2.33301 -6.50098 -3s-3.83398 -1.66699 -6.50098 -3c-21.333 -8 -37.666 -20.667 -48.999 -38c-4.66699 -6.66699 -7.66699 -12.334 -9 -17.001s-2 -7.33398 -2 -8.00098v-3l-38 -180
c-10 -49.333 -37 -89.333 -81 -120c-19.333 -14 -38.833 -24.333 -58.5 -31s-36.834 -11.667 -51.501 -15h-5c-2.66699 -0.666992 -6 -1 -10 -1c-15.333 0 -27 5.16699 -35 15.5s-10.333 23.166 -7 38.499z" />
    <glyph glyph-name="asciitilde" unicode="~" horiz-adv-x="559" 
d="M2 222c0.666992 4.66699 2.66016 10.3301 5.99316 16.9971l2 2v1c8.66699 15.333 18.334 30 29.001 44c20.667 28 44.334 49 71.001 63c24.667 15.333 51.667 23 81 23c15.333 0 29 -2.5 41 -7.5s23.333 -12.5 34 -22.5c8.66699 -8 15.667 -16.833 21 -26.5
s10.666 -19.167 15.999 -28.5c9.33301 -19.333 16.666 -31.666 21.999 -36.999s11.333 -8 18 -8c12.667 0 26.667 7.66699 42 23c7.33301 8.66699 14.333 17.5 21 26.5s12 17.167 16 24.5l3 6c5.33301 10 13 18 23 24s20.333 9 31 9c14 0 24.833 -4.83301 32.5 -14.5
s9.83398 -21.5 6.50098 -35.5c-1.33301 -5.33301 -3.33301 -11 -6 -17l-2 -4c-7.33301 -12 -16.166 -25.833 -26.499 -41.5s-23.166 -30.5 -38.499 -44.5c-39.333 -37.333 -80.333 -56 -123 -56c-30.667 0 -56 10 -76 30c-8 8.66699 -15 17.834 -21 27.501
s-11.333 19.167 -16 28.5c-8.66699 16.667 -15.667 28.167 -21 34.5s-11.666 9.5 -18.999 9.5c-2.66699 0 -7.33398 -0.833008 -14.001 -2.5s-15 -7.16699 -25 -16.5c-7.33301 -7.33301 -13.666 -14.833 -18.999 -22.5s-9.66602 -14.5 -12.999 -20.5l-1 -2
c-5.33301 -11.333 -13.166 -20.166 -23.499 -26.499s-21.166 -9.5 -32.499 -9.5c-13.333 0 -24 4.83301 -32 14.5s-10.333 21.5 -7 35.5z" />
    <glyph glyph-name="uni00A0" unicode="&#xa0;" horiz-adv-x="329" 
 />
    <glyph glyph-name="cent" unicode="&#xa2;" horiz-adv-x="482" 
d="M4 225c-5.33301 26 -5.00488 53.0029 0.995117 81.0029c4.66699 25.333 11.834 48.666 21.501 69.999s18.834 39.333 27.501 54c10 16.667 22 33.167 36 49.5s29 31.5 45 45.5c16 14.667 32.5 27.167 49.5 37.5s33.833 18.5 50.5 24.5l11 45
c3.33301 13.333 10.666 24.666 21.999 33.999c12 10 24.667 15 38 15h1c14 -0.666992 24.667 -6 32 -16s9.33301 -22 6 -36l-8 -35c20 -4 38.167 -11.333 54.5 -22s29.5 -24.334 39.5 -41.001l7 -10c6 -11.333 6.5 -24.166 1.5 -38.499s-14.167 -25.833 -27.5 -34.5
s-27 -11.834 -41 -9.50098s-24 9.16602 -30 20.499c-1.33301 2 -2.33301 3.66699 -3 5s-1.33398 2.33301 -2.00098 3s-1 1.33398 -1 2.00098c-6.66699 8.66699 -14.667 15 -24 19l-70 -292c5.33301 1.33301 10.333 2.83301 15 4.5s9.33398 3.83398 14.001 6.50098
c9.33301 4.66699 18 10 26 16s15.333 12.667 22 20c2 2 3.33301 3 4 3v1c0 0.666992 0.333008 1 1 1c2 2 3.66699 3.33301 5 4c14 12 28 18 42 18c14.667 0 26 -5 34 -15s10.333 -22.333 7 -37c-3.33301 -12.667 -10 -23.667 -20 -33c-26 -28.667 -55.667 -51 -89 -67
c-28 -13.333 -56.667 -22 -86 -26l-10 -43c-1.33301 -7.33301 -4.16602 -13.833 -8.49902 -19.5s-9.16602 -10.834 -14.499 -15.501c-10.667 -9.33301 -23 -14 -37 -14h-1c-14 0.666992 -24.667 6 -32 16s-9.66602 21.667 -6.99902 35l13 49
c-28.667 9.33301 -53.334 25.333 -74.001 48c-11.333 10.667 -20.166 22.5 -26.499 35.5s-11.166 26.833 -14.499 41.5zM105.995 278.003c1.33301 -13.333 4.16992 -24.333 8.50293 -33s9.16602 -15.667 14.499 -21l7.5 -7.5c2.33301 -2.33301 5.16602 -4.5 8.49902 -6.5
l60 254c-11.333 -9.33301 -22.333 -19.833 -33 -31.5s-20.334 -24.834 -29.001 -39.501c-26.667 -43.333 -39 -81.666 -37 -114.999z" />
    <glyph glyph-name="sterling" unicode="&#xa3;" horiz-adv-x="716" 
d="M2 57c3.33301 18.667 13.6631 33.999 30.9961 45.999l9 6c4 2.66699 7.66699 5.33398 11 8.00098c10.667 8.66699 21.167 19.334 31.5 32.001s19.333 25.834 27 39.501s13.667 27.5 18 41.5s6.16602 27 5.49902 39l-2 30c-0.666992 10 -1 19.667 -1 29h-78
c-15.333 0 -27.5 5.66699 -36.5 17s-11.833 24.666 -8.5 39.999c3.33301 16 12 29.667 26 41s28.667 17 44 17h57c5.33301 55.333 16.333 103.666 33 144.999s39 77 67 107c31.333 32.667 68.333 56.334 111 71.001c41.333 14.667 88.333 22 141 22
c34.667 0 64.167 -6 88.5 -18s43.833 -27.667 58.5 -47s25.167 -41.166 31.5 -65.499s9.5 -48.833 9.5 -73.5v-5c-0.666992 -1.33301 -1 -3 -1 -5s-0.333008 -3.66699 -1 -5c-3.33301 -16 -11.833 -29.667 -25.5 -41s-28.5 -17 -44.5 -17c-14 0 -25.333 4.5 -34 13.5
s-12.667 20.167 -12 33.5v4c0 6.66699 -0.333008 14.667 -1 24s-2.66699 18.666 -6 27.999c-13.333 40 -42.333 60 -87 60c-23.333 0 -43.5 -1.5 -60.5 -4.5s-31.333 -6.83301 -43 -11.5s-21.334 -9.83398 -29.001 -15.501s-13.834 -11.167 -18.501 -16.5
c-18.667 -18.667 -33 -44.667 -43 -78c-9.33301 -28.667 -15.666 -63.667 -18.999 -105h211c16 0 28.167 -5.66699 36.5 -17s10.833 -25 7.5 -41c-3.33301 -15.333 -11.666 -28.666 -24.999 -39.999s-28 -17 -44 -17h-188c0.666992 -4.66699 1 -9.16699 1 -13.5
s0.333008 -9.16602 1 -14.499c2.66699 -34 -4.66602 -72.333 -21.999 -115h9c40.667 0 74.334 -12.333 101.001 -37c15.333 -14 32.333 -24.833 51 -32.5s36.667 -11.5 54 -11.5c10 0 20.667 1.66699 32 5c22.667 9.33301 40.334 28.666 53.001 57.999l2 5
c5.33301 13.333 14.333 24.166 27 32.499s25.667 12.5 39 12.5c15.333 0 27.5 -5.5 36.5 -16.5s11.833 -24.5 8.5 -40.5l-2 -6c-0.666992 -2 -1.33398 -3.66699 -2.00098 -5v-1l-3 -6c-9.33301 -21.333 -19.833 -39.666 -31.5 -54.999s-23.5 -28.5 -35.5 -39.5
s-24.167 -20 -36.5 -27s-23.833 -12.5 -34.5 -16.5c-23.333 -9.33301 -49.333 -14 -78 -14h-1c-30 0 -59.333 5.83301 -88 17.5s-55 28.5 -79 50.5c-9.33301 8.66699 -21.666 13 -36.999 13c-9.33301 0 -18.833 -1.33301 -28.5 -4s-19.167 -6.16699 -28.5 -10.5
s-18.166 -8.83301 -26.499 -13.5s-15.5 -9 -21.5 -13c-3.33301 -2.66699 -7 -5.5 -11 -8.5s-6.66699 -5.16699 -8 -6.5c-13.333 -10 -27.666 -15 -42.999 -15s-27.5 5.66699 -36.5 17s-11.833 24.666 -8.5 39.999z" />
    <glyph glyph-name="yen" unicode="&#xa5;" horiz-adv-x="557" 
d="M2 174c3.33301 14 11.1621 26.167 23.4951 36.5s25.833 15.5 40.5 15.5h79l7 37h-79c-14.667 0 -26 5 -34 15s-10.333 22.333 -7 37s11.166 27 23.499 37s25.833 15 40.5 15h43l-70 244c-4 13.333 -2 26.666 6 39.999c7.33301 14 18.333 24.333 33 31c8 4 16.333 6 25 6
c10 0 18.667 -2.66699 26 -8s12.333 -12.666 15 -21.999l67 -236l181 239c6.66699 8.66699 14.667 15.5 24 20.5s19 7.5 29 7.5c4 0 8 -0.5 12 -1.5s7.66699 -2.83301 11 -5.5c12 -6.66699 18.5 -17 19.5 -31s-3.5 -27.667 -13.5 -41l-183 -243h40
c14.667 0 25.834 -5 33.501 -15s9.83398 -22.333 6.50098 -37s-11 -27 -23 -37s-25.333 -15 -40 -15h-80l-7 -37h80c14.667 0 25.834 -5.16699 33.501 -15.5s9.83398 -22.5 6.50098 -36.5c-3.33301 -14.667 -11 -27.167 -23 -37.5s-25.333 -15.5 -40 -15.5h-80l-14 -69
c-3.33301 -14.667 -11.166 -27.167 -23.499 -37.5s-26.166 -15.5 -41.499 -15.5c-14.667 0 -26 5.16699 -34 15.5s-10.333 22.833 -7 37.5l14 69h-79c-14.667 0 -26 5.16699 -34 15.5s-10.333 22.833 -7 37.5z" />
    <glyph glyph-name="copyright" unicode="&#xa9;" horiz-adv-x="494" 
d="M4.5 374.5c-5.66699 27.667 -5.16699 57.167 1.5 88.5s18.667 60.833 36 88.5s38.333 51.667 63 72s51.667 36.5 81 48.5s59.333 18 90 18s58.167 -6 82.5 -18s44.333 -28.167 60 -48.5s26.5 -44.333 32.5 -72s5.66699 -57.167 -1 -88.5s-18.834 -60.833 -36.501 -88.5
s-38.667 -51.667 -63 -72s-51.166 -36.5 -80.499 -48.5s-59.333 -18 -90 -18s-58.167 6 -82.5 18s-44.5 28.167 -60.5 48.5s-26.833 44.333 -32.5 72zM51 392.5c4.66699 -21.667 13.1699 -40.834 25.5029 -57.501s28.166 -29.667 47.499 -39s41 -14 65 -14
s47.833 4.66699 71.5 14s45.167 22.333 64.5 39s36 35.834 50 57.501s23.667 45.167 29 70.5c5.33301 24.667 5.66602 48 0.999023 70s-13.334 41.333 -26.001 58s-28.667 29.667 -48 39s-41 14 -65 14s-47.667 -4.66699 -71 -14s-44.833 -22.333 -64.5 -39
s-36.334 -36 -50.001 -58s-23.167 -45.333 -28.5 -70c-5.33301 -25.333 -5.66602 -48.833 -0.999023 -70.5zM102.003 464c8 38.667 26.167 69.501 54.5 92.501s62.166 34.5 101.499 34.5c15.333 0 28.833 -2.83301 40.5 -8.5s21.167 -11.5 28.5 -17.5l1 -2
c6 -6 8 -12.333 6 -19c-1.33301 -6.66699 -4.66602 -12.167 -9.99902 -16.5s-11.333 -6.5 -18 -6.5c-4.66699 0 -9.33398 1.66699 -14.001 5l-1 2c-4.66699 4 -10.667 7.83301 -18 11.5s-15.666 5.5 -24.999 5.5c-18.667 0 -34 -3 -46 -9s-21.833 -13.333 -29.5 -22
s-13.167 -17.667 -16.5 -27s-5.66602 -17 -6.99902 -23c-2 -10.667 -1.83301 -20.334 0.5 -29.001s6.16602 -16 11.499 -22s11.833 -10.667 19.5 -14s15.834 -5 24.501 -5c29.333 0 53.666 9 72.999 27c1.33301 1.33301 2.5 2.33301 3.5 3s1.83301 1.66699 2.5 3l4 5
c6 7.33301 13.667 11 23 11c6.66699 0 11.667 -2.16699 15 -6.5s4.33301 -9.83301 3 -16.5c-1.33301 -4 -3.33301 -8 -6 -12l-4 -5c-12.667 -13.333 -29.167 -25.833 -49.5 -37.5s-45.166 -17.5 -74.499 -17.5c-30 0 -54.333 10.333 -73 31
c-9.33301 11.333 -15.833 24.333 -19.5 39s-3.83398 30 -0.500977 46z" />
    <glyph glyph-name="guillemotleft" unicode="&#xab;" horiz-adv-x="607" 
d="M77 257c2 7.33301 5.16797 14.5 9.50098 21.5s10.166 13.167 17.499 18.5l174 131c12 8.66699 24.333 13 37 13c16 0 28 -5.66699 36 -17c7.33301 -11.333 9 -24 5 -38c-4 -14.667 -12.333 -26.667 -25 -36l-122 -91l94 -101c9.33301 -9.33301 13 -21.333 11 -36
c-2 -14 -8.66699 -26.667 -20 -38c-14 -12 -28.667 -18 -44 -18c-12 0 -22.333 4.33301 -31 13l-132 140c-10 10 -13.333 22.667 -10 38zM341.001 257c2 7.33301 5.16797 14.5 9.50098 21.5s10.166 13.167 17.499 18.5l174 131c12 8.66699 24.333 13 37 13
c16 0 28 -5.66699 36 -17c7.33301 -11.333 9 -24 5 -38c-4 -14.667 -12.333 -26.667 -25 -36l-122 -91l94 -101c9.33301 -9.33301 13 -21.333 11 -36c-2 -14 -8.66699 -26.667 -20 -38c-14 -12 -28.667 -18 -44 -18c-12 0 -22.333 4.33301 -31 13l-132 140
c-10 10 -13.333 22.667 -10 38z" />
    <glyph glyph-name="uni00AD" unicode="&#xad;" 
d="M2 248c3.33301 14.667 11.167 27 23.5 37s25.5 15 39.5 15h235c14.667 0 26 -5 34 -15s10.333 -22.333 7 -37s-11 -27 -23 -37s-25.333 -15 -40 -15h-235c-14 0 -25.167 5 -33.5 15s-10.833 22.333 -7.5 37z" />
    <glyph glyph-name="registered" unicode="&#xae;" horiz-adv-x="586" 
d="M68.5 374.5c-5.66699 27.667 -5.16406 57.167 1.50293 88.5s18.667 60.833 36 88.5s38.166 51.667 62.499 72s51.333 36.5 81 48.5s59.834 18 90.501 18s58.167 -6 82.5 -18s44.333 -28.167 60 -48.5s26.5 -44.333 32.5 -72s5.66699 -57.167 -1 -88.5
s-18.834 -60.833 -36.501 -88.5s-38.667 -51.667 -63 -72s-51.166 -36.5 -80.499 -48.5s-59.333 -18 -90 -18s-58.334 6 -83.001 18s-44.834 28.167 -60.501 48.5s-26.334 44.333 -32.001 72zM115.003 392.5c4.66699 -21.667 13.1699 -40.834 25.5029 -57.501
s28.166 -29.667 47.499 -39s41 -14 65 -14s47.833 4.66699 71.5 14s45.167 22.333 64.5 39s36 35.834 50 57.501s23.667 45.167 29 70.5c5.33301 24.667 5.66602 48 0.999023 70s-13.334 41.333 -26.001 58s-28.667 29.667 -48 39s-41 14 -65 14s-47.667 -4.66699 -71 -14
s-44.833 -22.333 -64.5 -39s-36.334 -36 -50.001 -58s-23.167 -45.333 -28.5 -70c-5.33301 -25.333 -5.66602 -48.833 -0.999023 -70.5zM170.006 383c0 -5.33301 1.66895 -10.001 5.00195 -14.001s8 -6 14 -6s11.667 2 17 6s8.66602 9 9.99902 15l3 7l17 46l82 -66l6 -5
c2.66699 -2.66699 6.66699 -4 12 -4c6.66699 0 12.667 2.16699 18 6.5s8.66602 9.83301 9.99902 16.5c2 8.66699 0 15 -6 19l-4 4l-49 39c12 2.66699 24.333 5.83398 37 9.50098s24.5 8.5 35.5 14.5s20.333 13 28 21s12.5 17.333 14.5 28c4 18 0.333008 32.667 -11 44
c-14.667 16 -44.334 24.667 -89.001 26c-15.333 0 -28.666 -0.5 -39.999 -1.5s-17.333 -1.5 -18 -1.5c-11.333 -2 -19.333 -8.66699 -24 -20l-63 -168l-3 -9c-0.666992 -0.666992 -1 -1.66699 -1 -3c-0.666992 -0.666992 -1 -1.66699 -1 -3v-1zM255.008 484.999
l20.999 57.999c18.667 1.33301 37.667 1.16602 57 -0.500977s32.333 -6.16699 39 -13.5c2.66699 -1.33301 3.33398 -4.33301 2.00098 -9c-1.33301 -5.33301 -13.5 -11.666 -36.5 -18.999s-50.5 -12.666 -82.5 -15.999z" />
    <glyph glyph-name="degree" unicode="&#xb0;" horiz-adv-x="430" 
d="M69.5 589.5c-3.66699 17.667 -3.49902 36.5 0.500977 56.5s11.667 38.833 23 56.5s25 33 41 46s33.667 23.333 53 31s39 11.5 59 11.5s38.167 -3.83301 54.5 -11.5s29.666 -18 39.999 -31s17.333 -28.333 21 -46s3.5 -36.5 -0.5 -56.5s-11.833 -38.833 -23.5 -56.5
s-25.5 -33 -41.5 -46s-33.667 -23.333 -53 -31s-39 -11.5 -59 -11.5s-38 3.83301 -54 11.5s-29.167 18 -39.5 31s-17.333 28.333 -21 46zM176.001 646c-2.66699 -11.333 -0.833008 -20.666 5.5 -27.999s14.833 -11 25.5 -11c11.333 0 21.5 3.66699 30.5 11
s14.833 16.666 17.5 27.999c2 11.333 0 20.833 -6 28.5s-14.667 11.5 -26 11.5c-10.667 0 -20.667 -3.83301 -30 -11.5s-15 -17.167 -17 -28.5z" />
    <glyph glyph-name="paragraph" unicode="&#xb6;" horiz-adv-x="603" 
d="M64 466c0 12.667 1.66406 25.6738 4.99707 39.0068c4.66699 22 12.5 43 23.5 63s25.167 39 42.5 57c32.667 34 76.667 63.667 132 89c31.333 13.333 60 23.5 86 30.5s44.667 11.5 56 13.5c6.66699 1.33301 11.667 2 15 2h1c13.333 0 23.833 -5 31.5 -15
s9.83398 -21.667 6.50098 -35c-2 -10.667 -7 -20.334 -15 -29.001s-17.333 -14.667 -28 -18c-9.33301 -47.333 -19.333 -93.333 -30 -138s-21.667 -87.167 -33 -127.5s-22.5 -78.166 -33.5 -113.499s-21.167 -67 -30.5 -95c-10.667 -30.667 -20.667 -58.334 -30 -83.001
s-17.5 -45.834 -24.5 -63.501s-12.5 -31.334 -16.5 -41.001s-6 -14.834 -6 -15.501c-6.66699 -12.667 -15 -22.334 -25 -29.001c-10.667 -7.33301 -22 -11 -34 -11c-5.33301 0 -9 0.333008 -11 1c-13.333 3.33301 -22.5 10.833 -27.5 22.5s-4.5 24.5 1.5 38.5
c0 0.666992 7.33301 18.5 22 53.5s32.334 82.167 53.001 141.5c6.66699 20 13.167 40 19.5 60s12.5 40 18.5 60c-22 1.33301 -45.667 5.16602 -71 11.499s-46.666 18.833 -63.999 37.5c-16 15.333 -26.333 34.666 -31 57.999c-2 11.333 -3 23.333 -3 36zM277.497 -29.4932
c-5 11.667 -4.50195 24.498 1.49805 38.498c0.666992 0.666992 8.16699 18.5 22.5 53.5s31.5 82.167 51.5 141.5c9.33301 27.333 19.5 58.333 30.5 93s22 71.834 33 111.501s21.667 81.334 32 125.001s19.833 88.5 28.5 134.5c2.66699 14 10.167 26.167 22.5 36.5
s25.5 15.833 39.5 16.5h1c14 0 25 -5 33 -15s10.333 -21.667 7 -35c-9.33301 -48 -19.333 -94.667 -30 -140s-21.667 -88.5 -33 -129.5s-22.666 -79.333 -33.999 -115s-21.666 -67.5 -30.999 -95.5c-21.333 -62 -39.5 -111.167 -54.5 -147.5s-22.5 -55.166 -22.5 -56.499
c-6 -12.667 -14 -22.334 -24 -29.001c-11.333 -7.33301 -23 -11 -35 -11c-5.33301 0 -9 0.333008 -11 1c-13.333 3.33301 -22.5 10.833 -27.5 22.5z" />
    <glyph glyph-name="guillemotright" unicode="&#xbb;" horiz-adv-x="607" 
d="M71 121c4 14.667 12.332 26.667 24.999 36l122 91l-94 101c-9.33301 9.33301 -13 21.333 -11 36c2 14 8.66699 26.667 20 38c14 12 28.667 18 44 18c12 0 22.333 -4.33301 31 -13l132 -140c10 -10 13.333 -22.667 10 -38c-2 -7.33301 -5.16699 -14.5 -9.5 -21.5
s-10.166 -13.167 -17.499 -18.5l-174 -131c-12 -8.66699 -24.333 -13 -37 -13c-16 0 -28 5.66699 -36 17c-7.33301 11.333 -9 24 -5 38zM334.999 121c4 14.667 12.332 26.667 24.999 36l122 91l-94 101c-9.33301 9.33301 -13 21.333 -11 36c2 14 8.66699 26.667 20 38
c14 12 28.667 18 44 18c12 0 22.333 -4.33301 31 -13l132 -140c10 -10 13.333 -22.667 10 -38c-2 -7.33301 -5.16699 -14.5 -9.5 -21.5s-10.166 -13.167 -17.499 -18.5l-174 -131c-12 -8.66699 -24.333 -13 -37 -13c-16 0 -28 5.66699 -36 17c-7.33301 11.333 -9 24 -5 38z
" />
    <glyph glyph-name="questiondown" unicode="&#xbf;" horiz-adv-x="500" 
d="M-12 -86c6 14 15.9971 25.1709 29.9971 33.5039s28 10.833 42 7.5l9 -1c18.667 -3.33301 38.334 -5 59.001 -5h15c4.66699 0 9.33398 0.333008 14.001 1c26.667 2.66699 49 16 67 40c6 7.33301 10.833 15 14.5 23s6.83398 15 9.50098 21l-12 -6
c-14.667 -7.33301 -29.167 -12.833 -43.5 -16.5s-29.166 -5.5 -44.499 -5.5h-3c-58 0 -101.333 24 -130 72c-10.667 19.333 -18.167 40.666 -22.5 63.999s-4.83301 47.333 -1.5 72c3.33301 26 9.66602 51.667 18.999 77s21.333 49 36 71c18 26 39 49 63 69
c26 22 54.667 39.333 86 52c32.667 13.333 63.334 20 92.001 20c13.333 0 25.833 -1.33301 37.5 -4s22.167 -5.66699 31.5 -9l32 136l2 11c3.33301 15.333 11.166 28 23.499 38s25.833 15 40.5 15s26.167 -5 34.5 -15s10.833 -22.667 7.5 -38l-3 -12
c-24.667 -106.667 -47 -202.334 -67 -287.001c-8.66699 -36 -17 -71.5 -25 -106.5s-15.333 -66.333 -22 -94s-12 -50.334 -16 -68.001s-6.33301 -27.5 -7 -29.5c-7.33301 -26.667 -17.666 -51.334 -30.999 -74.001s-29 -42.667 -47 -60
c-19.333 -17.333 -40.333 -31.333 -63 -42s-46 -17 -70 -19c-6.66699 -1.33301 -13.334 -2 -20.001 -2h-20c-28 0 -52.333 2 -73 6l-15 2c-14 3.33301 -23.667 11 -29 23s-5.33301 25.333 0 40zM91.9971 222.004c-2 -13.333 -1.83496 -26.8311 0.498047 -40.498
s6.16602 -25.834 11.499 -36.501c14 -24 34 -36 60 -36h1c10 0 21.667 2 35 6s27 12.333 41 25c31.333 29.333 53 72.666 65 129.999l24 112c-5.33301 3.33301 -13.166 6.83301 -23.499 10.5s-22.166 5.5 -35.499 5.5c-17.333 0 -36 -3.66699 -56 -11
c-43.333 -18 -76 -46.667 -98 -86c-9.33301 -17.333 -15.666 -33.333 -18.999 -48s-5.33301 -25 -6 -31z" />
    <glyph glyph-name="ccedilla" unicode="&#xe7;" horiz-adv-x="500" 
 />
    <glyph glyph-name="uni2000" unicode="&#x2000;" horiz-adv-x="409" 
 />
    <glyph glyph-name="uni2001" unicode="&#x2001;" horiz-adv-x="819" 
 />
    <glyph glyph-name="uni2002" unicode="&#x2002;" horiz-adv-x="409" 
 />
    <glyph glyph-name="uni2003" unicode="&#x2003;" horiz-adv-x="819" 
 />
    <glyph glyph-name="uni2004" unicode="&#x2004;" horiz-adv-x="272" 
 />
    <glyph glyph-name="uni2005" unicode="&#x2005;" horiz-adv-x="204" 
 />
    <glyph glyph-name="uni2006" unicode="&#x2006;" horiz-adv-x="136" 
 />
    <glyph glyph-name="uni2007" unicode="&#x2007;" horiz-adv-x="136" 
 />
    <glyph glyph-name="uni2008" unicode="&#x2008;" horiz-adv-x="102" 
 />
    <glyph glyph-name="uni2009" unicode="&#x2009;" horiz-adv-x="163" 
 />
    <glyph glyph-name="uni200A" unicode="&#x200a;" horiz-adv-x="45" 
 />
    <glyph glyph-name="uni2010" unicode="&#x2010;" 
d="M2 248c3.33301 14.667 11.167 27 23.5 37s25.5 15 39.5 15h235c14.667 0 26 -5 34 -15s10.333 -22.333 7 -37s-11 -27 -23 -37s-25.333 -15 -40 -15h-235c-14 0 -25.167 5 -33.5 15s-10.833 22.333 -7.5 37z" />
    <glyph glyph-name="uni2011" unicode="&#x2011;" 
d="M2 248c3.33301 14.667 11.167 27 23.5 37s25.5 15 39.5 15h235c14.667 0 26 -5 34 -15s10.333 -22.333 7 -37s-11 -27 -23 -37s-25.333 -15 -40 -15h-235c-14 0 -25.167 5 -33.5 15s-10.833 22.333 -7.5 37z" />
    <glyph glyph-name="figuredash" unicode="&#x2012;" 
d="M2 248c3.33301 14.667 11.167 27 23.5 37s25.5 15 39.5 15h235c14.667 0 26 -5 34 -15s10.333 -22.333 7 -37s-11 -27 -23 -37s-25.333 -15 -40 -15h-235c-14 0 -25.167 5 -33.5 15s-10.833 22.333 -7.5 37z" />
    <glyph glyph-name="endash" unicode="&#x2013;" horiz-adv-x="512" 
d="M2 251c3.33301 14.667 11.167 27 23.5 37s25.5 15 39.5 15h365c14.667 0 26 -5 34 -15s10.333 -22.333 7 -37s-11 -27 -23 -37s-25.333 -15 -40 -15h-365c-14 0 -25.167 5 -33.5 15s-10.833 22.333 -7.5 37z" />
    <glyph glyph-name="emdash" unicode="&#x2014;" horiz-adv-x="794" 
d="M2 251c3.33301 14.667 10.999 27 22.999 37s25.333 15 40 15h647c14 0 25.167 -5 33.5 -15s10.833 -22.333 7.5 -37s-11.166 -27 -23.499 -37s-25.5 -15 -39.5 -15h-647c-14.667 0 -26 5 -34 15s-10.333 22.333 -7 37z" />
    <glyph glyph-name="quoteleft" unicode="&#x2018;" horiz-adv-x="193" 
d="M124 639c1.33301 3.33301 2.8291 6.99902 4.49609 10.999s3.16699 6.66699 4.5 8l26 44c3.33301 5.33301 6.5 10.666 9.5 15.999s5.83301 10 8.5 14c2.66699 4.66699 5.66699 9.33398 9 14.001c6 10.667 15.5 19 28.5 25s25.167 6.33301 36.5 1
c11.333 -4.66699 18.5 -12.667 21.5 -24s0.833008 -23 -6.5 -35l-27 -43c2 -5.33301 2.83301 -11.166 2.5 -17.499s-1.16602 -12.833 -2.49902 -19.5c-5.33301 -16 -14.666 -29.667 -27.999 -41c-16 -12.667 -31.333 -19 -46 -19c-17.333 0 -29.666 6.33301 -36.999 19
c-9.33301 12 -10.666 27.667 -3.99902 47z" />
    <glyph glyph-name="quoteright" unicode="&#x2019;" horiz-adv-x="213" 
d="M61.5 592c-3 11.333 -0.829102 23.001 6.50391 35.001l27 43c-2 5.33301 -2.83301 11.166 -2.5 17.499s1.16602 12.833 2.49902 19.5c5.33301 16 14.666 29.667 27.999 41c16 12.667 31.333 19 46 19c17.333 0 29.666 -6.33301 36.999 -19
c9.33301 -12 10.666 -27.667 3.99902 -47c-1.33301 -3.33301 -2.83301 -7 -4.5 -11s-3.16699 -6.66699 -4.5 -8l-26 -44c-3.33301 -5.33301 -6.5 -10.666 -9.5 -15.999s-5.83301 -10 -8.5 -14c-2.66699 -4.66699 -5.66699 -9.33398 -9 -14.001
c-6 -10.667 -15.5 -19 -28.5 -25s-25.167 -6.33301 -36.5 -1c-11.333 4.66699 -18.5 12.667 -21.5 24z" />
    <glyph glyph-name="quotedblleft" unicode="&#x201c;" horiz-adv-x="443" 
d="M124 639c1.33301 3.33301 2.8291 6.99902 4.49609 10.999s3.16699 6.66699 4.5 8l26 44c3.33301 5.33301 6.5 10.666 9.5 15.999s5.83301 10 8.5 14c2.66699 4.66699 5.66699 9.33398 9 14.001c6 10.667 15.5 19 28.5 25s25.167 6.33301 36.5 1
c11.333 -4.66699 18.5 -12.667 21.5 -24s0.833008 -23 -6.5 -35l-27 -43c2 -5.33301 2.83301 -11.166 2.5 -17.499s-1.16602 -12.833 -2.49902 -19.5c-5.33301 -16 -14.666 -29.667 -27.999 -41c-16 -12.667 -31.333 -19 -46 -19c-17.333 0 -29.666 6.33301 -36.999 19
c-9.33301 12 -10.666 27.667 -3.99902 47zM293.996 638.999c1.33301 3.33301 2.8291 6.99902 4.49609 10.999s3.16699 6.66699 4.5 8l26 44c3.33301 5.33301 6.5 10.666 9.5 15.999s5.83301 10 8.5 14c2.66699 4.66699 5.66699 9.33398 9 14.001c6 10.667 15.5 19 28.5 25
s25.167 6.33301 36.5 1c11.333 -4.66699 18.5 -12.667 21.5 -24s0.833008 -23 -6.5 -35l-27 -43c2 -5.33301 2.83301 -11.166 2.5 -17.499s-1.16602 -12.833 -2.49902 -19.5c-5.33301 -16 -14.666 -29.667 -27.999 -41c-16 -12.667 -31.333 -19 -46 -19
c-17.333 0 -29.666 6.33301 -36.999 19c-9.33301 12 -10.666 27.667 -3.99902 47z" />
    <glyph glyph-name="quotedblright" unicode="&#x201d;" horiz-adv-x="363" 
d="M1.5 603c-3 11.333 -0.829102 23.001 6.50391 35.001l27 43c-2 5.33301 -2.83301 11.166 -2.5 17.499s1.16602 12.833 2.49902 19.5c5.33301 16 14.666 29.667 27.999 41c16 12.667 31.333 19 46 19c17.333 0 29.666 -6.33301 36.999 -19
c9.33301 -12 10.666 -27.667 3.99902 -47c-1.33301 -3.33301 -2.83301 -7 -4.5 -11s-3.16699 -6.66699 -4.5 -8l-26 -44c-3.33301 -5.33301 -6.5 -10.666 -9.5 -15.999s-5.83301 -10 -8.5 -14c-2.66699 -4.66699 -5.66699 -9.33398 -9 -14.001
c-6 -10.667 -15.5 -19 -28.5 -25s-25.167 -6.33301 -36.5 -1c-11.333 4.66699 -18.5 12.667 -21.5 24zM171.504 603.001c-3 11.333 -0.829102 23.001 6.50391 35.001l27 43c-2 5.33301 -2.83301 11.166 -2.5 17.499s1.16602 12.833 2.49902 19.5
c5.33301 16 14.666 29.667 27.999 41c16 12.667 31.333 19 46 19c17.333 0 29.666 -6.33301 36.999 -19c9.33301 -12 10.666 -27.667 3.99902 -47c-1.33301 -3.33301 -2.83301 -7 -4.5 -11s-3.16699 -6.66699 -4.5 -8l-26 -44c-3.33301 -5.33301 -6.5 -10.666 -9.5 -15.999
s-5.83301 -10 -8.5 -14c-2.66699 -4.66699 -5.66699 -9.33398 -9 -14.001c-6 -10.667 -15.5 -19 -28.5 -25s-25.167 -6.33301 -36.5 -1c-11.333 4.66699 -18.5 12.667 -21.5 24z" />
    <glyph glyph-name="bullet" unicode="&#x2022;" horiz-adv-x="257" 
d="M3 249c3.33301 14.667 9.16895 28.5 17.502 41.5s18.333 24.167 30 33.5s24.5 16.833 38.5 22.5s28.333 8.5 43 8.5c29.333 0 52.166 -10.167 68.499 -30.5s21.166 -45.5 14.499 -75.5c-3.33301 -14.667 -9 -28.5 -17 -41.5s-17.833 -24.167 -29.5 -33.5
s-24.5 -16.833 -38.5 -22.5s-28.333 -8.5 -43 -8.5c-30 0 -53 10.167 -69 30.5s-21 45.5 -15 75.5z" />
    <glyph glyph-name="ellipsis" unicode="&#x2026;" horiz-adv-x="676" 
d="M2 60l11.999 36.999c4.66699 16 14.167 29.333 28.5 40s29.5 15.334 45.5 14.001c15.333 -1.33301 27 -7.83301 35 -19.5s10.333 -25.5 7 -41.5l-13 -37c-4.66699 -15.333 -14 -28.5 -28 -39.5s-29 -15.833 -45 -14.5c-15.333 1.33301 -27.166 7.83301 -35.499 19.5
s-10.5 25.5 -6.5 41.5zM254.999 59.999l11.999 36.999c4.66699 16 14.167 29.333 28.5 40s29.5 15.334 45.5 14.001c15.333 -1.33301 27 -7.83301 35 -19.5s10.333 -25.5 7 -41.5l-13 -37c-4.66699 -15.333 -14 -28.5 -28 -39.5s-29 -15.833 -45 -14.5
c-15.333 1.33301 -27.166 7.83301 -35.499 19.5s-10.5 25.5 -6.5 41.5zM506.998 59.998l11.999 36.999c4.66699 16 14.167 29.333 28.5 40s29.5 15.334 45.5 14.001c15.333 -1.33301 27 -7.83301 35 -19.5s10.333 -25.5 7 -41.5l-13 -37
c-4.66699 -15.333 -14 -28.5 -28 -39.5s-29 -15.833 -45 -14.5c-15.333 1.33301 -27.166 7.83301 -35.499 19.5s-10.5 25.5 -6.5 41.5z" />
    <glyph glyph-name="uni202F" unicode="&#x202f;" horiz-adv-x="163" 
 />
    <glyph glyph-name="guilsinglleft" unicode="&#x2039;" horiz-adv-x="322" 
d="M1 257c2 7.33301 5.16797 14.5 9.50098 21.5s10.166 13.167 17.499 18.5l174 131c12 8.66699 24.333 13 37 13c16 0 28 -5.66699 36 -17c7.33301 -11.333 9 -24 5 -38c-4 -14.667 -12.333 -26.667 -25 -36l-122 -91l94 -101c9.33301 -9.33301 13 -21.333 11 -36
c-2 -14 -8.66699 -26.667 -20 -38c-14 -12 -28.667 -18 -44 -18c-12 0 -22.333 4.33301 -31 13l-132 140c-10 10 -13.333 22.667 -10 38z" />
    <glyph glyph-name="guilsinglright" unicode="&#x203a;" horiz-adv-x="322" 
d="M3 121c4 14.667 12.332 26.667 24.999 36l122 91l-94 101c-9.33301 9.33301 -13 21.333 -11 36c2 14 8.66699 26.667 20 38c14 12 28.667 18 44 18c12 0 22.333 -4.33301 31 -13l132 -140c10 -10 13.333 -22.667 10 -38c-2 -7.33301 -5.16699 -14.5 -9.5 -21.5
s-10.166 -13.167 -17.499 -18.5l-174 -131c-12 -8.66699 -24.333 -13 -37 -13c-16 0 -28 5.66699 -36 17c-7.33301 11.333 -9 24 -5 38z" />
    <glyph glyph-name="uni205F" unicode="&#x205f;" horiz-adv-x="204" 
 />
    <glyph glyph-name="Euro" unicode="&#x20ac;" horiz-adv-x="682" 
d="M2 270c3.33301 15.333 11.6709 28.5 25.0039 39.5s27.666 16.5 42.999 16.5h43c2 8 4.66699 16.333 8 25l10 26h-50c-15.333 0 -27.5 5.33301 -36.5 16s-11.833 23.667 -8.5 39s11.666 28.5 24.999 39.5s27.666 16.5 42.999 16.5h85c10 14.667 24.167 33 42.5 55
s40.166 43.667 65.499 65c30 24.667 59.333 44 88 58c34.667 16 69 24 103 24c56 0 102 -15 138 -45l1 -2c11.333 -8 16.666 -19.333 15.999 -34s-6.66699 -28 -18 -40c-11.333 -12.667 -24.333 -20.334 -39 -23.001s-27.667 0.333008 -39 9l-4 4
c-20.667 15.333 -48.334 23 -83.001 23c-10 0 -23.667 -3.33301 -41 -10s-38.666 -21 -63.999 -43c-16 -12.667 -30.333 -26.334 -43 -41.001h111c15.333 0 27.333 -5.5 36 -16.5s11.334 -24.167 8.00098 -39.5s-11.5 -28.333 -24.5 -39s-27.167 -16 -42.5 -16h-160
c-10 -19.333 -16.667 -36.333 -20 -51h169c15.333 0 27.333 -5.5 36 -16.5s11.334 -24.167 8.00098 -39.5s-11.666 -28.333 -24.999 -39s-27.666 -16 -42.999 -16h-152c3.33301 -12.667 7.83301 -23.667 13.5 -33s11.5 -16.666 17.5 -21.999
c28.667 -33.333 63.667 -50.666 105 -51.999h2h1h6.5c2.33301 0 4.16602 -0.333008 5.49902 -1c35.333 2 67.333 11 96 27l2 1c14 7.33301 27.667 9.16602 41 5.49902s22.666 -12.167 27.999 -25.5c5.33301 -12.667 4.5 -26.167 -2.5 -40.5s-17.833 -25.166 -32.5 -32.499
l-2 -1c-46.667 -24 -95.667 -37.667 -147 -41h-12h-4c-70.667 0 -129.667 26.333 -177 79c-34 38 -52.333 83.333 -55 136h-53c-15.333 0 -27.333 5.33301 -36 16s-11.334 23.667 -8.00098 39z" />
    <glyph glyph-name="trademark" unicode="&#x2122;" horiz-adv-x="600" 
d="M1 669c1.33301 6.66699 4.50098 12 9.50098 16s10.5 6 16.5 6h243c14 0 20 -7.33301 18 -22c-1.33301 -6 -4.5 -11.167 -9.5 -15.5s-10.833 -6.5 -17.5 -6.5h-96l-34 -159c-1.33301 -6 -4.5 -11.167 -9.5 -15.5s-10.5 -6.5 -16.5 -6.5s-10.833 2.16699 -14.5 6.5
s-4.83398 9.5 -3.50098 15.5l34 159h-103c-6 0 -10.667 2.16699 -14 6.5s-4.33301 9.5 -3 15.5zM223.001 482.5c-0.666992 5.66699 0.999023 11.1641 4.99902 16.4971l117 179c5.33301 8.66699 13 13 23 13s15.667 -4.66699 17 -14l21 -131l88 132
c6.66699 10 14.334 14.333 23.001 13c10 0 15.667 -4.66699 17 -14l26 -183c0.666992 -6 -1 -11.667 -5 -17s-8.66699 -9 -14 -11c-2 -0.666992 -3.66699 -1.16699 -5 -1.5s-2.66602 -0.5 -3.99902 -0.5c-10 0 -15.667 5 -17 15l-18 131l-87 -131
c-6.66699 -10 -14.334 -14.333 -23.001 -13c-10 0 -15.667 4.66699 -17 14l-21 130l-85 -129c-4 -5.33301 -9 -9.16602 -15 -11.499s-11.667 -2.16602 -17 0.500977s-8.33301 6.83398 -9 12.501z" />
    <glyph glyph-name="uni25FC" unicode="&#x25fc;" horiz-adv-x="500" 
d="M0 0v500h500v-500h-500z" />
    </font>
</defs>
</svg>
