<?xml version="1.0" standalone="no"?>
<!DOCTYPE svg PUBLIC "-//W3C//DTD SVG 1.1//EN" "http://www.w3.org/Graphics/SVG/1.1/DTD/svg11.dtd" >
<svg>
<metadata>
Created by FontForge 20120731 at Fri Aug  1 16:50:30 2014
 By Alfred Xing
Digitized data Copyright (c) 2011-2014, vernon adams.
</metadata>
<defs>
<font id="Muli-LightItalic" horiz-adv-x="1260" >
  <font-face 
    font-family="Muli"
    font-weight="300"
    font-style="italic"
    font-stretch="normal"
    units-per-em="2048"
    panose-1="2 0 3 3 0 0 0 0 0 0"
    ascent="1638"
    descent="-410"
    x-height="1026"
    cap-height="1456"
    bbox="-180.002 -582 4037 2364"
    underline-thickness="0"
    underline-position="0"
    slope="-7"
    unicode-range="U+000D-FB04"
  />
<missing-glyph horiz-adv-x="748" 
d="M68 0v1365h544v-1365h-544zM136 68h408v1229h-408v-1229z" />
    <glyph glyph-name=".notdef" horiz-adv-x="748" 
d="M68 0v1365h544v-1365h-544zM136 68h408v1229h-408v-1229z" />
    <glyph glyph-name="uni000D" unicode="&#xd;" horiz-adv-x="240" 
 />
    <glyph glyph-name="space" unicode=" " horiz-adv-x="599" 
 />
    <glyph glyph-name="exclam" unicode="!" horiz-adv-x="512" 
d="M88 0l23 190h171l-23 -190h-171zM178 370l90 1086h169l-177 -1086h-82z" />
    <glyph glyph-name="quotedbl" unicode="&#x22;" horiz-adv-x="851" 
d="M385 942h88l88 514h-150zM332 942l26 514h150l-87 -514h-89z" />
    <glyph glyph-name="numbersign" unicode="#" horiz-adv-x="1349" 
d="M195 75l137 439h-256l19 91h267l95 309h-259l20 92h267l127 404h115l-126 -404h307l128 404h110l-128 -404h249l-23 -92h-253l-97 -309h254l-23 -91h-258l-139 -439h-110l135 439h-307l-141 -439h-110zM473 605h310l97 309h-308z" />
    <glyph glyph-name="dollar" unicode="$" horiz-adv-x="1170" 
d="M653 1357c-103.333 -5.33301 -183.168 -33.832 -239.501 -85.499s-84.5 -125.834 -84.5 -222.501c0 -55.333 16 -98 48 -128s90.667 -57.667 176 -83c0.666992 0 2.66699 -0.5 6 -1.5s7.83301 -2.33301 13.5 -4s10.834 -3.16699 15.501 -4.5zM578.998 106.001
c96 11.333 170.667 45.666 224 102.999s80 134 80 230c0 56 -17.167 100.333 -51.5 133s-95.5 63.334 -183.5 92.001zM1034 464.001c0 -144 -42.668 -257.834 -128.001 -341.501s-199.333 -130.834 -342 -141.501l-22 -179h-80l22 177c-58 1.33301 -112.333 8.33301 -163 21
s-93.167 28.834 -127.5 48.501s-61 36.5 -80 50.5s-35.5 28.333 -49.5 43l80 106c102 -94 220.333 -142.667 355 -146l72 585c-46.667 12.667 -70.334 19 -71.001 19c-112 32 -194.5 73.167 -247.5 123.5s-79.5 120.5 -79.5 210.5c0 137.333 45.333 244.333 136 321
s210.334 116.667 359.001 120l18 144h80l-18 -146c42.667 -2.66699 82.5 -8.16699 119.5 -16.5s66.667 -17.166 89 -26.499s44 -21 65 -35s35.5 -24.667 43.5 -32s17.667 -16.666 29 -27.999l-84 -102c-23.333 26.667 -58.333 51.667 -105 75s-104 37.333 -172 42l-68 -550
c138.667 -40.667 234.834 -86.334 288.501 -137.001s80.5 -119 80.5 -205z" />
    <glyph glyph-name="percent" unicode="%" horiz-adv-x="1996" 
d="M479 714c137.333 0 219.333 108 246 324c4.66699 40.667 7 73 7 97c0 154 -57.667 231 -173 231c-142.667 0 -227.667 -109.667 -255 -329c-4 -32 -6 -61.667 -6 -89c0 -156 60.333 -234 181 -234zM571 1466c93.333 0 164.332 -28.667 212.999 -86s73 -139 73 -245
c0 -157.333 -35.333 -283.333 -106 -378s-165.667 -142 -285 -142c-96 0 -169 28.333 -219 85s-75 137.667 -75 243c0 157.333 36.333 283.833 109 379.5s169.334 143.5 290.001 143.5zM507.999 0l871 1456h118l-871 -1456h-118zM1445 90
c68.667 0 123.667 27.499 165 82.499s68.333 135.167 81 240.5c4.66699 40.667 7 73.334 7 98.001c0 154 -57.667 231 -173 231c-142.667 0 -227.667 -110 -255 -330c-4 -32 -6 -61.667 -6 -89c0 -155.333 60.333 -233 181 -233zM1538 841.999
c92.667 0 163.332 -29.167 211.999 -87.5s73 -140.5 73 -246.5c0 -155.333 -35.5 -280.5 -106.5 -375.5s-165.833 -142.5 -284.5 -142.5c-95.333 0 -168.166 28.833 -218.499 86.5s-75.5 139.167 -75.5 244.5c0 155.333 36.667 281 110 377s170 144 290 144z" />
    <glyph glyph-name="ampersand" unicode="&#x26;" horiz-adv-x="1503" 
d="M493 839c-41.333 52.667 -73.1748 103.166 -95.5078 151.499s-33.5 100.5 -33.5 156.5c0 70.667 16.833 131.667 50.5 183s76.834 89.166 129.501 113.499s111.334 36.5 176.001 36.5c52.667 0 100.834 -8.33301 144.501 -25s80 -43.834 109 -81.501
s43.5 -82.834 43.5 -135.501c0 -16.667 -0.666992 -29.334 -2 -38.001c-9.33301 -74.667 -45.666 -144.5 -108.999 -209.5s-140.666 -121.833 -231.999 -170.5l347 -435c50.667 64 95.334 141.333 134.001 232s63.334 177 74.001 259l129 -14
c-18 -103.333 -49.5 -206.166 -94.5 -308.499s-99.167 -191.5 -162.5 -267.5l14 -16c9.33301 -11.333 17.666 -21 24.999 -29s18 -19.167 32 -33.5s28.333 -27 43 -38s31.167 -22.5 49.5 -34.5s38.333 -22.5 60 -31.5s43.5 -15.833 65.5 -20.5l-108 -87
c-24.667 4 -52.5 14.833 -83.5 32.5s-60.5 38.667 -88.5 63s-49.5 43.5 -64.5 57.5s-27.167 26 -36.5 36c-138.667 -137.333 -295.667 -206 -471 -206c-132 0 -238.333 32.5 -319 97.5s-121 154.5 -121 268.5c0 38 4.16699 73.833 12.5 107.5s18.5 63.334 30.5 89.001
s29.333 51.5 52 77.5s43 47.333 61 64s43.333 35.834 76 57.501s58.834 38.334 78.501 50.001s47.834 27.834 84.501 48.501zM547.991 106.999c82 0 153.001 14.3311 213.001 42.998s120 71.334 180 128.001l-381 472c-44.667 -22.667 -81.834 -43.667 -111.501 -63
s-59.5 -42.666 -89.5 -69.999s-53.667 -58.5 -71 -93.5s-28.666 -74.167 -33.999 -117.5c-2 -14 -3 -28 -3 -42c0 -76.667 26.667 -138.667 80 -186s125.666 -71 216.999 -71zM496.992 1149c0 -90.667 35.667 -175.334 107 -254.001c72.667 40 135 85.333 187 136
s81.333 103.667 88 159c1.33301 12 2 20.667 2 26c0 48.667 -16.833 85.334 -50.5 110.001s-73.5 37 -119.5 37c-62.667 0 -114 -18.667 -154 -56s-60 -90 -60 -158z" />
    <glyph glyph-name="quotesingle" unicode="'" horiz-adv-x="527" 
d="M186 933l31 523h153l-86 -523h-98z" />
    <glyph glyph-name="parenleft" unicode="(" horiz-adv-x="600" 
d="M312 -174c-114.667 216.667 -172 440.998 -172 672.998c0 56 3.33301 110.333 10 163c18.667 155.333 58.667 301.833 120 439.5s144.333 275.834 249 414.501h136c-207.333 -277.333 -328.333 -560.666 -363 -849.999c-6.66699 -50.667 -10 -104.667 -10 -162
c0 -240 55.333 -466 166 -678h-136z" />
    <glyph glyph-name="parenright" unicode=")" horiz-adv-x="600" 
d="M-56 -194c206.667 276 328 559.333 364 850c6.66699 58 10 111 10 159c0 238.667 -55.667 465.667 -167 681h136c115.333 -217.333 173 -442.333 173 -675c0 -56 -3.33301 -109.667 -10 -161c-18.667 -156 -58.667 -303 -120 -441s-144.333 -275.667 -249 -413h-137z" />
    <glyph glyph-name="asterisk" unicode="*" horiz-adv-x="1151" 
d="M703 755l-124 274l-184 -264l-100 64l209 242l-256 78l49 119l246 -118l9 308h126l-41 -308l242 118l44 -119l-261 -78l161 -255z" />
    <glyph glyph-name="plus" unicode="+" horiz-adv-x="1159" 
d="M454 120l53 429h-387l15 124h387l50 405h130l-50 -405h391l-15 -124h-389l-53 -429h-132z" />
    <glyph glyph-name="comma" unicode="," horiz-adv-x="448" 
d="M57 -260l162 453h163l-215 -453h-110z" />
    <glyph glyph-name="hyphen" unicode="-" horiz-adv-x="638" 
d="M58 507l13 107h507l-13 -107h-507z" />
    <glyph glyph-name="period" unicode="." horiz-adv-x="546" 
d="M166 0l24 196h198l-24 -196h-198z" />
    <glyph glyph-name="slash" unicode="/" horiz-adv-x="821" 
d="M45 0l656 1456h127l-660 -1456h-123z" />
    <glyph glyph-name="zero" unicode="0" horiz-adv-x="1204" 
d="M533 101c106.667 0 192.5 54.167 257.5 162.5s109.833 262.833 134.5 463.5c10 78.667 15 151 15 217c0 133.333 -20.833 235.833 -62.5 307.5s-105.167 107.5 -190.5 107.5c-111.333 0 -201.333 -55.333 -270 -166s-115.334 -266 -140.001 -466
c-9.33301 -76.667 -14 -145 -14 -205c0 -136 22.333 -240.167 67 -312.5s112.334 -108.5 203.001 -108.5zM517 -23c-133.333 0 -234.332 47.501 -302.999 142.501s-103 230.5 -103 406.5c0 64.667 4.33301 131.667 13 201c30 244 94.167 431 192.5 561
s226.833 195 385.5 195c130 0 227.833 -46.333 293.5 -139s98.5 -226.667 98.5 -402c0 -63.333 -4.66699 -135 -14 -215c-29.333 -238.667 -91.833 -423.334 -187.5 -554.001s-220.834 -196 -375.501 -196z" />
    <glyph glyph-name="one" unicode="1" horiz-adv-x="1204" 
d="M186 0l13.999 118.999h287l144 1166c-24 -12.667 -51.333 -26 -82 -40s-54.667 -24.5 -72 -31.5s-47 -18.667 -89 -35s-67 -26.166 -75 -29.499l16 135c52 18 114.833 44 188.5 78s134.834 65.333 183.501 94h100l-164 -1337h267l-14 -119h-704z" />
    <glyph glyph-name="two" unicode="2" horiz-adv-x="1225" 
d="M123 0l14.001 119.998l531 515c92.667 89.333 158.667 164.833 198 226.5s62.666 128.167 69.999 199.5c2 16 3 31.333 3 46c0 76.667 -22.667 137.5 -68 182.5s-115 67.5 -209 67.5c-108.667 0 -234 -37 -376 -111l-35 114c148.667 82 292.667 123 432 123
c132.667 0 232.667 -33.5 300 -100.5s101 -152.5 101 -256.5c0 -18 -1 -36 -3 -54c-5.33301 -48 -16.5 -94 -33.5 -138s-41.167 -87.667 -72.5 -131s-64.333 -84.166 -99 -122.499s-79 -83.166 -133 -134.499l-436 -424h652l-15 -122h-821z" />
    <glyph glyph-name="three" unicode="3" horiz-adv-x="1204" 
d="M866 448c0 82 -29.168 145 -87.501 189s-143.166 66.333 -254.499 67h-91l13 128h92c230.667 0 357.667 93.333 381 280c1.33301 14.667 2 25 2 31c0 67.333 -26.333 120.166 -79 158.499s-121.667 57.5 -207 57.5c-74 0 -144.833 -13.833 -212.5 -41.5
s-123.834 -64.834 -168.501 -111.501l-61 94c54.667 58.667 121.834 103.834 201.501 135.501s168.167 47.5 265.5 47.5c120 0 217.5 -28.667 292.5 -86s112.5 -135.666 112.5 -234.999c0 -14.667 -1 -30.667 -3 -48c-9.33301 -81.333 -42.333 -154.5 -99 -219.5
s-129.667 -106.5 -219 -124.5c85.333 -15.333 151.833 -52 199.5 -110s71.5 -128 71.5 -210c0 -16.667 -1 -34 -3 -52c-16 -128 -74.167 -230.167 -174.5 -306.5s-223.5 -114.5 -369.5 -114.5c-77.333 0 -148.5 9.83301 -213.5 29.5s-114.5 40.167 -148.5 61.5l51 114
c40 -22 89.333 -41 148 -57s115 -24 169 -24c116 0 210.333 31.167 283 93.5s109 146.833 109 253.5z" />
    <glyph glyph-name="four" unicode="4" horiz-adv-x="1204" 
d="M670 0l48 388h-656l12 106l716 962h208l-117 -950h210l-14 -118h-212l-48 -388h-147zM236 506l495 -0.000976562l101 823c-43.333 -61.333 -242 -335.666 -596 -822.999z" />
    <glyph glyph-name="five" unicode="5" horiz-adv-x="1204" 
d="M489 -22c-163.333 0 -298.332 50.001 -404.999 150.001l78 110c98 -92 213.333 -138 346 -138c102 0 188.833 31.5 260.5 94.5s114.5 151.167 128.5 264.5c2 18 3 35.667 3 53c0 84 -24.167 151.333 -72.5 202s-115.833 76 -202.5 76c-56 0 -109.833 -11.333 -161.5 -34
s-92.167 -53.334 -121.5 -92.001l-129 17l108 775h757l-16 -126h-621l-87 -525c34.667 35.333 79 62.833 133 82.5s109 29.5 165 29.5c123.333 0 221.166 -35.667 293.499 -107s108.5 -166 108.5 -284c0 -85.333 -15.833 -163.333 -47.5 -234s-74 -128.5 -127 -173.5
s-113.167 -79.667 -180.5 -104s-137.333 -36.5 -210 -36.5z" />
    <glyph glyph-name="six" unicode="6" horiz-adv-x="1204" 
d="M544 -23c-144.667 0 -252.335 46.999 -323.002 140.999s-106 225 -106 393c0 56.667 4 116.667 12 180c10.667 88 27.667 171 51 249s53.833 150.333 91.5 217s81 124 130 172s105.667 85.667 170 113s133.5 41 207.5 41c66 0 125.833 -10.167 179.5 -30.5
s97.834 -46.166 132.501 -77.499l-67 -108c-30 27.333 -67.5 49.5 -112.5 66.5s-93.833 25.5 -146.5 25.5c-49.333 0 -95.166 -8.33301 -137.499 -25s-79.166 -40 -110.499 -70s-59.333 -63 -84 -99s-45.667 -75.833 -63 -119.5s-31.5 -85 -42.5 -124
s-20.167 -78.833 -27.5 -119.5c-2.66699 -12.667 -6.33398 -35 -11.001 -67c36 51.333 89.167 96 159.5 134s149.5 57 237.5 57c116 0 210 -35.333 282 -106s108 -166 108 -286c0 -21.333 -1.66699 -46.333 -5 -75c-16.667 -139.333 -73 -254.5 -169 -345.5
s-214.667 -136.5 -356 -136.5zM919.999 523.999c0 85.333 -21.667 153.499 -65 204.499s-109.333 76.5 -198 76.5c-52.667 0 -102.5 -8.66699 -149.5 -26s-86.333 -39.5 -118 -66.5s-57.5 -56.667 -77.5 -89s-32 -64.166 -36 -95.499c-4 -30 -6 -59.667 -6 -89
c0 -100.667 23.667 -182.167 71 -244.5s120 -93.5 218 -93.5c107.333 0 194.333 40 261 120s100 181 100 303z" />
    <glyph glyph-name="seven" unicode="7" horiz-adv-x="1204" 
d="M284 0l696 1326h-726l15 130h893l-13 -112l-701 -1344h-164z" />
    <glyph glyph-name="eight" unicode="8" horiz-adv-x="1205" 
d="M697 1483c112.667 0 206.669 -28.6709 282.002 -86.0039s113 -134.666 113 -231.999c0 -15.333 -1 -30.333 -3 -45c-10.667 -87.333 -45 -161.5 -103 -222.5s-134.333 -105.5 -229 -133.5c91.333 -28 160.333 -70.333 207 -127s70 -125.667 70 -207
c0 -71.333 -14.833 -136.166 -44.5 -194.499s-69.167 -106 -118.5 -143s-105 -65.5 -167 -85.5s-126.333 -30 -193 -30c-76.667 0 -146.667 13 -210 39s-114.833 65.5 -154.5 118.5s-59.5 115.5 -59.5 187.5c0 16 1 32.333 3 49c11.333 95.333 49 176.833 113 244.5
s149.667 116.5 257 146.5c-79.333 24.667 -140.333 63.334 -183 116.001s-64 116.334 -64 191.001c0 85.333 23.167 160 69.5 224s105.666 111.667 177.999 143s151.166 47 236.499 47zM887.002 418.996c0 72 -25.667 130.332 -77 174.999s-122 76.334 -212 95.001
c-70.667 -14 -132.167 -35 -184.5 -63s-95 -66.833 -128 -116.5s-49.5 -107.167 -49.5 -172.5c0 -75.333 26.5 -133.5 79.5 -174.5s123.167 -61.5 210.5 -61.5c104 0 190.167 28 258.5 84s102.5 134 102.5 234zM357.002 1080c0 -66 22.167 -119.832 66.5 -161.499
s108.5 -70.5 192.5 -86.5c98 18 175.333 50.833 232 98.5s89.667 109.5 99 185.5c1.33301 14.667 2 25.667 2 33c0 68 -25.333 121.167 -76 159.5s-114 57.5 -190 57.5c-56.667 0 -109.167 -10.333 -157.5 -31s-88.5 -53.334 -120.5 -98.001s-48 -97 -48 -157z" />
    <glyph glyph-name="nine" unicode="9" horiz-adv-x="1207" 
d="M453 -23c-112 0 -217.999 32.335 -317.999 97.002l68 114c77.333 -58 163.333 -87 258 -87c58 0 111.5 11.667 160.5 35s90.333 53.666 124 90.999s63.334 81.166 89.001 131.499s45.5 100.833 59.5 151.5s24.667 103 32 157c1.33301 6 3 16.5 5 31.5
s3.33301 24.167 4 27.5c-33.333 -50.667 -85 -94.167 -155 -130.5s-148.333 -54.5 -235 -54.5c-117.333 0 -211.5 35.333 -282.5 106s-106.5 165.334 -106.5 284.001c0 20.667 1.66699 45 5 73c17.333 138.667 73.666 253.167 168.999 343.5s213.666 135.5 354.999 135.5
c140 0 244.5 -45.333 313.5 -136s103.5 -219.667 103.5 -387c0 -58.667 -4 -121.334 -12 -188.001c-19.333 -158 -56 -296 -110 -414s-126.167 -211 -216.5 -279s-193.833 -102 -310.5 -102zM309.001 937.002c0 -83.333 21.3311 -149.833 63.998 -199.5
s108.334 -74.5 197.001 -74.5c102.667 0 189.334 29 260.001 87s110.667 123.333 120 196c3.33301 31.333 5 59 5 83c0 46 -5.16699 88 -15.5 126s-26.166 72.667 -47.499 104s-50.833 55.833 -88.5 73.5s-81.834 26.5 -132.501 26.5
c-108.667 0 -196.167 -39.667 -262.5 -119s-99.5 -180.333 -99.5 -303z" />
    <glyph glyph-name="colon" unicode=":" horiz-adv-x="508" 
d="M104 4l23 197h186l-23 -197h-186zM207 845l23 196h186l-23 -196h-186z" />
    <glyph glyph-name="semicolon" unicode=";" horiz-adv-x="546" 
d="M32 -260l160 453h165l-215 -453h-110zM211 830l24 197h208l-24 -197h-208z" />
    <glyph glyph-name="less" unicode="&#x3c;" horiz-adv-x="1150" 
d="M872 88l-799 461l11 84l911 412l-17 -137l-732 -323l643 -362z" />
    <glyph glyph-name="equal" unicode="=" horiz-adv-x="1165" 
d="M111 313l15 122h883l-16 -122h-882zM156 694l16 124h883l-15 -124h-884z" />
    <glyph glyph-name="greater" unicode="&#x3e;" horiz-adv-x="1149" 
d="M156 87l16 136l727 328l-637 357l16 136l799 -457l-10 -81z" />
    <glyph glyph-name="question" unicode="?" horiz-adv-x="1086" 
d="M330 358l17.0049 145.996c4 32 15.167 64 33.5 96s40.833 61.5 67.5 88.5s55.667 54.167 87 81.5s62.666 54.833 93.999 82.5s60.166 55.334 86.499 83.001s48.833 58 67.5 91s30 66.5 34 100.5c1.33301 16 2 27.333 2 34c0 64 -23.667 111.833 -71 143.5
s-109.333 47.5 -186 47.5c-54.667 0 -108.167 -8.16699 -160.5 -24.5s-95.5 -34.166 -129.5 -53.499l17 136c97.333 44 200 66 308 66c116.667 0 207.5 -24.167 272.5 -72.5s97.5 -119.833 97.5 -214.5c0 -47.333 -8.83301 -92.833 -26.5 -136.5
s-40.834 -82.667 -69.501 -117s-60.334 -67.333 -95.001 -99s-69.834 -62 -105.501 -91s-68.5 -57.167 -98.5 -84.5s-55.333 -56.666 -76 -87.999s-33 -62.666 -37 -93.999l-15 -121h-114zM256.005 -12.0039l24 194h175l-24 -194h-175z" />
    <glyph glyph-name="at" unicode="@" horiz-adv-x="1737" 
d="M1186 267c-46 0 -82.333 11.498 -109 34.498s-40 56.167 -40 99.5c0 19.333 3 41 9 65c-30 -57.333 -73.5 -103.833 -130.5 -139.5s-119.167 -53.5 -186.5 -53.5c-76.667 0 -139.5 25 -188.5 75s-73.5 118.333 -73.5 205c0 22 1.33301 42.667 4 62
c20 152.667 77.833 279.167 173.5 379.5s203.834 150.5 324.501 150.5c64 0 115.167 -16.5 153.5 -49.5s57.833 -79.167 58.5 -138.5l56 154h114l-188 -531c-24 -70.667 -38.333 -122 -43 -154c-0.666992 -2.66699 -1 -7 -1 -13c0 -20.667 6.5 -37.334 19.5 -50.001
s31.5 -19 55.5 -19c41.333 0 82.833 14.333 124.5 43s78.667 67 111 115s58.666 106 78.999 174s30.5 138.333 30.5 211c0 151.333 -49.833 271.333 -149.5 360s-231.167 133 -394.5 133c-200 0 -371.333 -64 -514 -192s-227 -297.667 -253 -509
c-4.66699 -42 -7 -76.667 -7 -104c0 -175.333 55.833 -312.166 167.5 -410.499s259.834 -147.5 444.501 -147.5c104 0 203.833 16.167 299.5 48.5s173.834 76.5 234.501 132.5l56 -59c-60 -68 -144.333 -121 -253 -159s-226.334 -57 -353.001 -57
c-219.333 0 -393.833 57.167 -523.5 171.5s-194.5 271.5 -194.5 471.5c0 38.667 2.33301 76.334 7 113.001c14.667 118.667 48.167 227.834 100.5 327.501s118 183.667 197 252s170.167 121.5 273.5 159.5s212.666 57 327.999 57c194 0 348.333 -52.333 463 -157
s172 -244.334 172 -419.001c0 -87.333 -13.333 -170.666 -40 -249.999s-61.334 -146.5 -104.001 -201.5s-91.167 -98.833 -145.5 -131.5s-109.166 -49 -164.499 -49zM963 1045c-92 0 -172.497 -43 -241.497 -129s-110.833 -189.667 -125.5 -311c-2 -16 -3 -31 -3 -45
c0 -56.667 14.333 -101.667 43 -135s68 -50 118 -50c85.333 0 161.666 40.667 228.999 122s111.666 183.333 132.999 306c4 23.333 6 45.333 6 66c0 56 -13.833 99.333 -41.5 130s-66.834 46 -117.501 46z" />
    <glyph glyph-name="A" unicode="A" horiz-adv-x="1364" 
d="M-39 0l725 1456h169l371 -1456h-161l-98 394h-649l-193 -394h-164zM372 509l567 0.000976562c-64.667 285.333 -126.667 552.666 -186 801.999c-84.667 -178.667 -211.667 -446 -381 -802z" />
    <glyph glyph-name="B" unicode="B" horiz-adv-x="1354" 
d="M124 0l177.999 1456h399c338.667 0 508 -102.333 508 -307c0 -15.333 -1 -31.666 -3 -48.999c-12 -92.667 -43.667 -167.334 -95 -224.001s-120.666 -93 -207.999 -109c92.667 -11.333 164.5 -43.833 215.5 -97.5s76.5 -124.167 76.5 -211.5
c0 -21.333 -1.33301 -41 -4 -59c-15.333 -122.667 -71 -219.834 -167 -291.501s-226.333 -107.5 -391 -107.5h-509zM1039 459.001c0 82.667 -29 142.667 -87 180s-152.333 56 -283 56h-310l-70 -571h343c132 0 232.833 28 302.5 84s104.5 139.667 104.5 251z
M373.999 817.001h301c114 0 202 21.833 264 65.5s99 112.5 111 206.5c1.33301 8.66699 2 21 2 37c0 72 -29.333 124.333 -88 157s-146.667 49 -264 49h-262z" />
    <glyph glyph-name="C" unicode="C" horiz-adv-x="1394" 
d="M725 -22c-84 0 -163.671 13.833 -239.004 41.5s-141.833 67 -199.5 118s-103.5 115.5 -137.5 193.5s-51 164.333 -51 259c0 35.333 2.66699 75 8 119c18.667 154 65.334 289.667 140.001 407s169.667 207.5 285 270.5s242.333 94.5 381 94.5c177.333 0 318 -48 422 -144
l-72 -99c-95.333 80 -214.333 120 -357 120c-170.667 0 -314.667 -60 -432 -180s-187.666 -276.333 -210.999 -469c-4.66699 -42 -7 -77 -7 -105c0 -155.333 43.833 -277.833 131.5 -367.5s206.834 -134.5 357.501 -134.5c152.667 0 298.334 44.667 437.001 134l36 -113
c-152.667 -96.667 -316.667 -145 -492 -145z" />
    <glyph glyph-name="D" unicode="D" horiz-adv-x="1531" 
d="M288 124h265c204.667 0 366 51 484 153s189 249.333 213 442c5.33301 44.667 8 84.667 8 120c0 328.667 -198.667 493 -596 493h-225zM124 0l177.999 1456h366c244 0 429.5 -50.333 556.5 -151s190.5 -251.667 190.5 -453c0 -41.333 -3 -85.666 -9 -132.999
c-28 -232.667 -116.667 -410.667 -266 -534s-351.666 -185 -606.999 -185h-409z" />
    <glyph glyph-name="E" unicode="E" horiz-adv-x="1211" 
d="M124 0l178 1456h841l-15 -124h-691l-64 -520h653l-15 -124h-654l-70 -564h722l-14 -124h-871z" />
    <glyph glyph-name="F" unicode="F" horiz-adv-x="1103" 
d="M124 0l178 1456h808l-14 -124h-659l-65 -524h608l-15 -124h-608l-84 -684h-149z" />
    <glyph glyph-name="G" unicode="G" horiz-adv-x="1520" 
d="M747 -21c-206.667 0 -366.501 54 -479.501 162s-169.5 255.667 -169.5 443c0 36 2.66699 76.333 8 121c14 114 44.833 219.167 92.5 315.5s107.667 178.333 180 246s157 120.334 254 158.001s200.5 56.5 310.5 56.5c184 0 336 -48.667 456 -146l-75 -105
c-116 85.333 -247.333 128 -394 128c-178 0 -328.167 -59.833 -450.5 -179.5s-195.166 -276.167 -218.499 -469.5c-4.66699 -34.667 -7 -70.334 -7 -107.001c0 -154.667 44.333 -276.667 133 -366s215 -134 379 -134c148 0 272.667 20.333 374 61l57 461h-389l16 125h531
l-82 -667c-154 -68.667 -329.333 -103 -526 -103z" />
    <glyph glyph-name="H" unicode="H" horiz-adv-x="1558" 
d="M124 0l178 1456h152l-80 -650h834l79 650h148l-178 -1456h-149l83 683h-833l-84 -683h-150z" />
    <glyph glyph-name="I" unicode="I" horiz-adv-x="597" 
d="M141 0l178 1456h150l-178 -1456h-150z" />
    <glyph glyph-name="J" unicode="J" horiz-adv-x="727" 
d="M52 -319c-45.333 0 -99.333 7.33301 -162 22l29 118c59.333 -11.333 105.333 -17 138 -17c84.667 0 144.334 22.167 179.001 66.5s59.667 129.5 75 255.5l164 1330h150l-164 -1330c-10.667 -86 -26.834 -158 -48.501 -216s-50 -103.667 -85 -137s-74.333 -57 -118 -71
s-96.167 -21 -157.5 -21z" />
    <glyph glyph-name="K" unicode="K" horiz-adv-x="1264" 
d="M124 0l178 1456h149l-81 -669l752 669h185l-787 -700l655 -756h-184l-631 719l-87 -719h-149z" />
    <glyph glyph-name="L" unicode="L" horiz-adv-x="1077" 
d="M124 0l178 1456h149l-163 -1332h679l-15 -124h-828z" />
    <glyph glyph-name="M" unicode="M" horiz-adv-x="1886" 
d="M124 0l178.002 1456h185c12.667 -40 68.667 -218.333 168 -535s173.666 -559 222.999 -727c91.333 168 227.166 410.333 407.499 727s281.833 495 304.5 535h172l-178 -1456h-143l149 1212l-81 -154l-606 -1058h-100l-335 1054l-48 182l-152 -1236h-144z" />
    <glyph glyph-name="N" unicode="N" horiz-adv-x="1585" 
d="M124 0l178 1456h155l611 -1073l95 -181l154 1254h144l-178 -1456h-154l-614 1061l-96 184l-152 -1245h-143z" />
    <glyph glyph-name="O" unicode="O" horiz-adv-x="1599" 
d="M724 102c167.333 0 304.501 56.001 411.501 168.001s172.167 264 195.5 456c5.33301 46 8 87.333 8 124c0 157.333 -39.833 281.333 -119.5 372s-193.167 136 -340.5 136c-166.667 0 -304.834 -57.5 -414.501 -172.5s-176.167 -268.167 -199.5 -459.5
c-5.33301 -44.667 -8 -84.667 -8 -120c0 -156.667 40.667 -279.834 122 -369.501s196.333 -134.5 345 -134.5zM710.001 -20.999c-191.333 0 -340.834 54.999 -448.501 164.999s-161.5 260.333 -161.5 451c0 47.333 2.66699 91 8 131c28 228.667 112.667 411.667 254 549
s319 206 533 206c188 0 335.5 -56.167 442.5 -168.5s160.5 -264.166 160.5 -455.499c0 -47.333 -2.66699 -91 -8 -131c-27.333 -228 -111.166 -409.5 -251.499 -544.5s-316.5 -202.5 -528.5 -202.5z" />
    <glyph glyph-name="P" unicode="P" horiz-adv-x="1240" 
d="M124 0l177.998 1456h425c164.667 0 287.334 -23.5 368.001 -70.5s121 -128.5 121 -244.5c0 -20 -1.66699 -44.333 -5 -73c-16.667 -137.333 -70.667 -236.166 -162 -296.499s-223.666 -90.5 -396.999 -90.5h-295l-84 -681h-149zM371.998 803.999l294.001 0.000976562
c129.333 0 224.666 20 285.999 60s98 107.667 110 203c2 18.667 3 36 3 52c0 77.333 -25.667 132.166 -77 164.499s-132 48.5 -242 48.5h-32h-277z" />
    <glyph glyph-name="Q" unicode="Q" horiz-adv-x="1599" 
d="M724 102c167.333 0 304.501 56.001 411.501 168.001s172.167 264 195.5 456c5.33301 46 8 87.333 8 124c0 157.333 -39.833 281.333 -119.5 372s-193.167 136 -340.5 136c-166.667 0 -304.834 -57.5 -414.501 -172.5s-176.167 -268.167 -199.5 -459.5
c-5.33301 -44.667 -8 -84.667 -8 -120c0 -156.667 40.667 -279.834 122 -369.501s196.333 -134.5 345 -134.5zM710.001 -20.999c-191.333 0 -340.833 54.9971 -448.5 164.997s-161.5 260.333 -161.5 451c0 47.333 2.66699 91 8 131c28 228.667 112.667 411.667 254 549
s319 206 533 206c188 0 335.5 -56.167 442.5 -168.5s160.5 -264.166 160.5 -455.499c0 -47.333 -2.66699 -91 -8 -131c-22 -179.333 -79.833 -331.166 -173.5 -455.499s-213.834 -209.5 -360.501 -255.5c22.667 -50.667 52.5 -104.667 89.5 -162
s68.5 -101.666 94.5 -132.999l38 -48l-98 -89c-12.667 15.333 -29.167 36 -49.5 62s-53.166 74.5 -98.499 145.5s-80.333 136.5 -105 196.5c-40.667 -5.33301 -79.667 -8 -117 -8z" />
    <glyph glyph-name="R" unicode="R" horiz-adv-x="1367" 
d="M862 716c27.333 -6.66699 50.998 -15.501 70.998 -26.501s36.667 -23.167 50 -36.5s25.333 -32 36 -56s19.334 -47.167 26.001 -69.5s15 -53.166 25 -92.499l108 -435h-152l-101 418c-12.667 52.667 -24 92.5 -34 119.5s-24.167 50.833 -42.5 71.5
s-40.5 34.334 -66.5 41.001s-61 10 -105 10h-323l-81 -660h-149l178 1456h450c148.667 0 260.834 -23.833 336.501 -71.5s113.5 -127.834 113.5 -240.501c0 -118 -29.333 -214.833 -88 -290.5s-142.667 -121.5 -252 -137.5zM1049 1123
c0 74.667 -22.6689 128.167 -68.002 160.5s-116.666 48.5 -213.999 48.5h-27h-302l-68 -549h313c116.667 0 206.834 27.833 270.501 83.5s95.5 141.167 95.5 256.5z" />
    <glyph glyph-name="S" unicode="S" horiz-adv-x="1172" 
d="M883 439c0 59.333 -19.333 105.831 -58 139.498s-108.667 65.5 -210 95.5c-4 1.33301 -42.333 12 -115 32c-112 32 -194.5 73.167 -247.5 123.5s-79.5 120.5 -79.5 210.5c0 140.667 47.5 249.334 142.5 326.001s219.833 115 374.5 115
c50.667 0 97.834 -3.83301 141.501 -11.5s78.667 -16.167 105 -25.5s51.666 -21.666 75.999 -36.999s41 -27 50 -35s19.5 -18.333 31.5 -31l-84 -102c-26.667 30.667 -67 58.167 -121 82.5s-121.333 36.5 -202 36.5c-112.667 0 -200.5 -26.167 -263.5 -78.5
s-94.5 -129.166 -94.5 -230.499c0 -55.333 16 -98 48 -128s90.667 -57.667 176 -83c3.33301 -1.33301 22.5 -6.83301 57.5 -16.5s53.5 -14.834 55.5 -15.501c137.333 -38.667 233 -83.834 287 -135.501s81 -120.5 81 -206.5c0 -153.333 -48.667 -272.5 -146 -357.5
s-225 -127.5 -383 -127.5c-61.333 0 -118.666 6.16699 -171.999 18.5s-98 28.5 -134 48.5s-63.833 37.333 -83.5 52s-36.834 29.334 -51.501 44.001l80 106c106 -97.333 230 -146 372 -146c114.667 0 204.5 29.667 269.5 89s97.5 142 97.5 248z" />
    <glyph glyph-name="T" unicode="T" horiz-adv-x="1121" 
d="M395 0l164 1332h-476l15 124h1102l-15 -124h-477l-163 -1332h-150z" />
    <glyph glyph-name="U" unicode="U" horiz-adv-x="1487" 
d="M647 -21c-171.333 0 -298 38.5 -380 115.5s-123 187.167 -123 330.5c0 38 2.33301 75.333 7 112l113 919h149l-113 -925c-4 -32 -6 -62.333 -6 -91c0 -225.333 123.333 -338 370 -338c136 0 243.833 35.667 323.5 107s128.167 178 145.5 320l114 927h149l-113 -918
c-22.667 -178.667 -86.667 -316.5 -192 -413.5s-253.333 -145.5 -444 -145.5z" />
    <glyph glyph-name="V" unicode="V" horiz-adv-x="1365" 
d="M513 0l-361.999 1456h162c33.333 -144 83.833 -360.167 151.5 -648.5s118.5 -504.5 152.5 -648.5c60 130 124.167 266.667 192.5 410s145.166 303.666 230.499 480.999s150.333 312.666 195 405.999h157l-714 -1456h-165z" />
    <glyph glyph-name="W" unicode="W" horiz-adv-x="2029" 
d="M388 0l-209 1456h160l146 -1123l15 -173l66 171l471 1125h149c14.667 -86 48.667 -280.333 102 -583s93.333 -537.334 120 -704.001c76 210 231.667 639 467 1287h153l-552 -1456h-176l-212 1260l-526 -1260h-174z" />
    <glyph glyph-name="X" unicode="X" horiz-adv-x="1310" 
d="M-11 0l590 740l-396 716h175l323 -601l460 601h165l-555 -710l395 -746h-169l-325 626l-496 -626h-167z" />
    <glyph glyph-name="Y" unicode="Y" horiz-adv-x="1237" 
d="M452 0l71 583l-384 873h161l317 -743l504 743h159l-606 -870l-72 -586h-150z" />
    <glyph glyph-name="Z" unicode="Z" horiz-adv-x="1183" 
d="M27 0l9 82l926 1250h-739l15 124h931l-9 -78l-930 -1254h772l-15 -124h-960z" />
    <glyph glyph-name="bracketleft" unicode="[" horiz-adv-x="688" 
d="M87 -274l210 1721h404l-13 -107h-265l-184 -1508h265l-13 -106h-404z" />
    <glyph glyph-name="backslash" unicode="\" horiz-adv-x="813" 
d="M507 40l-325 1416h132l327 -1416h-134z" />
    <glyph glyph-name="bracketright" unicode="]" horiz-adv-x="688" 
d="M43 -274l13 106h266l185 1508h-267l13 107h406l-211 -1721h-405z" />
    <glyph glyph-name="asciicircum" unicode="^" horiz-adv-x="1675" 
d="M276 584l567 872h86l363 -872h-131l-293 725l-461 -725h-131z" />
    <glyph glyph-name="underscore" unicode="_" horiz-adv-x="894" 
d="M-6 -277l14 113h892l-14 -113h-892z" />
    <glyph glyph-name="grave" unicode="`" horiz-adv-x="589" 
d="M394 1174l-288 320h187l205 -320h-104z" />
    <glyph glyph-name="a" unicode="a" horiz-adv-x="1263" 
d="M651 1052c79.333 0 147.667 -19.332 205 -57.999s97 -88.667 119 -150l23 182h140l-126 -1026h-141l24 195c-39.333 -66.667 -91.666 -119.334 -156.999 -158.001s-139 -58 -221 -58c-134 0 -238.167 40.833 -312.5 122.5s-111.5 189.5 -111.5 323.5
c0 182 52.667 332 158 450s238.666 177 399.999 177zM237.001 439.001c0 -105.333 26.667 -189 80 -251s130 -93 230 -93c108.667 0 197.167 38.333 265.5 115s110.5 180.667 126.5 312c3.33301 31.333 5 58 5 80c0 102.667 -25.667 184 -77 244s-124 90 -218 90
c-123.333 0 -222.833 -46.333 -298.5 -139s-113.5 -212 -113.5 -358z" />
    <glyph glyph-name="b" unicode="b" horiz-adv-x="1266" 
d="M606 -21c-88 0 -163.333 21.1689 -226 63.502s-103.334 97.166 -122.001 164.499l-29 -207h-143c2 12.667 8.16699 53.5 18.5 122.5s17.5 117.833 21.5 146.5l151 1232h141l-83 -676c36 65.333 90.167 119.5 162.5 162.5s152.833 64.5 241.5 64.5
c126.667 0 226 -38.833 298 -116.5s108 -183.167 108 -316.5c0 -94 -14.167 -181.333 -42.5 -262s-66.666 -148.334 -114.999 -203.001s-105.5 -97.5 -171.5 -128.5s-136 -46.5 -210 -46.5zM1000 607.002c0 102 -25 182.333 -75 241s-121.333 88 -214 88
c-122.667 0 -223.667 -46 -303 -138s-119 -211 -119 -357c0 -106.667 28.167 -191 84.5 -253s134.5 -93 234.5 -93c117.333 0 212 47.667 284 143s108 218.333 108 369z" />
    <glyph glyph-name="c" unicode="c" horiz-adv-x="1043" 
d="M237 434c0 -104.667 29.832 -187.331 89.499 -247.998s141.834 -91 246.501 -91c112 0 216 33.333 312 100l34 -99c-99.333 -78 -221.666 -117 -366.999 -117c-142.667 0 -255 40.167 -337 120.5s-123 187.833 -123 322.5c0 23.333 1.66699 50.666 5 81.999
c20 164.667 84.167 297.167 192.5 397.5s242.166 150.5 401.499 150.5c64.667 0 124.5 -9.83301 179.5 -29.5s98.833 -46.834 131.5 -81.501l-61 -97c-62.667 61.333 -148.667 92 -258 92c-126.667 0 -232.667 -45.667 -318 -137s-128 -213 -128 -365z" />
    <glyph glyph-name="d" unicode="d" 
d="M608 1052c84.667 0 157.5 -20.499 218.5 -61.499s101.167 -92.833 120.5 -155.5l81 666h142l-152 -1234c-8 -67.333 -16.333 -156.333 -25 -267h-143l21 207c-32.667 -66.667 -84.667 -121.334 -156 -164.001s-152.333 -64 -243 -64c-124.667 0 -223.667 39.5 -297 118.5
s-110 186.5 -110 322.5c0 185.333 51 337 153 455s232 177 390 177zM915 598.001c0 103.333 -27.333 185.5 -82 246.5s-131 91.5 -229 91.5c-118 0 -213.167 -47 -285.5 -141s-108.5 -215.333 -108.5 -364c0 -104 24.833 -186 74.5 -246s121.167 -90 214.5 -90
c122 0 221.833 46.667 299.5 140s116.5 214.333 116.5 363z" />
    <glyph glyph-name="e" unicode="e" horiz-adv-x="1150" 
d="M1046 497h-805c-2.66699 -20.667 -4 -43 -4 -67c0 -105.333 30.333 -187.5 91 -246.5s144 -88.5 250 -88.5c128 0 244.667 38 350 114l34 -102c-56 -40.667 -119.167 -72.167 -189.5 -94.5s-141.5 -33.5 -213.5 -33.5c-145.333 0 -259.5 39.833 -342.5 119.5
s-124.5 187.834 -124.5 324.501c0 27.333 2 56 6 86c19.333 162 80.833 293 184.5 393s231.167 150 382.5 150c126 0 223.333 -37 292 -111s103 -174.333 103 -301c0 -50.667 -4.66699 -98.334 -14 -143.001zM259 596l675 -0.000976562c0.666992 8 1 19.333 1 34
c0 96.667 -25 172.167 -75 226.5s-118.667 81.5 -206 81.5c-96.667 0 -180.5 -30.667 -251.5 -92s-118.833 -144.666 -143.5 -249.999z" />
    <glyph glyph-name="f" unicode="f" horiz-adv-x="665" 
d="M155 0l115.001 932h-179l12 94h178l15 121c6.66699 52 14.667 95 24 129s23.166 65.833 41.499 95.5s42 52.667 71 69s65.833 29 110.5 38s98.667 13.5 162 13.5h41l-16 -113c-42.667 0 -78.5 -1.16699 -107.5 -3.5s-54 -7.5 -75 -15.5s-37.5 -16.333 -49.5 -25
s-22 -22.334 -30 -41.001s-13.667 -36.667 -17 -54s-7 -41.666 -11 -72.999l-18 -141h254l-11 -94h-254l-115 -932h-141z" />
    <glyph glyph-name="g" unicode="g" horiz-adv-x="1268" 
d="M472 -431c-129.333 0 -247.666 25.666 -354.999 76.999l36 123c104.667 -55.333 214.667 -83 330 -83c118.667 0 215.334 33.667 290.001 101s120.667 171.666 138 312.999l14 114c-36.667 -66 -89.167 -118.333 -157.5 -157s-145.833 -58 -232.5 -58
c-127.333 0 -228.666 38 -303.999 114s-113 180 -113 312c0 28.667 2 58.667 6 90c20 162 79 292 177 390s221.667 147 371 147c83.333 0 153.5 -19.167 210.5 -57.5s97.167 -88.166 120.5 -149.499l29 181h142c-20.667 -118 -33.334 -195.667 -38.001 -233l-81 -666
c-22.667 -177.333 -84.834 -314.666 -186.501 -411.999s-233.834 -146 -396.501 -146zM971 600.999c0 103.333 -26.333 185.002 -79 245.002s-126.667 90 -222 90c-118 0 -215.167 -46.833 -291.5 -140.5s-114.5 -213.834 -114.5 -360.501
c0 -101.333 25.5 -180.5 76.5 -237.5s122.5 -85.5 214.5 -85.5c124 0 224.333 45.167 301 135.5s115 208.166 115 353.499z" />
    <glyph glyph-name="h" unicode="h" horiz-adv-x="1246" 
d="M89 0l184 1501h141l-80 -655c41.333 62 97.833 111.833 169.5 149.5s149.167 56.5 232.5 56.5c98.667 0 178.167 -28.167 238.5 -84.5s90.5 -137.833 90.5 -244.5c0 -20 -1.66699 -44.333 -5 -73l-80 -650h-142l79 637c4 30 6 57.667 6 83
c0 73.333 -17 127.666 -51 162.999s-88 53 -162 53c-95.333 0 -183.833 -31.667 -265.5 -95s-127.5 -135.333 -137.5 -216l-77 -625h-141z" />
    <glyph glyph-name="i" unicode="i" horiz-adv-x="599" 
d="M185 0l126 1026h141l-126 -1026h-141zM348 1316l16 140h140l-17 -140h-139z" />
    <glyph glyph-name="j" unicode="j" horiz-adv-x="503" 
d="M286 1312l18 144h140l-18 -144h-140zM-70 -434c-46 0 -82.6689 3.3291 -110.002 9.99609l14 127c28.667 -5.33301 53.334 -8 74.001 -8c71.333 0 127 26.333 167 79s67 135.667 81 249l123 1003h144l-113 -917c-4.66699 -38.667 -9.66699 -73.5 -15 -104.5
s-12.833 -66.167 -22.5 -105.5s-20.667 -73.666 -33 -102.999s-28.166 -59.166 -47.499 -89.499s-41 -55.166 -65 -74.499s-52.833 -35.166 -86.5 -47.499s-70.5 -18.5 -110.5 -18.5z" />
    <glyph glyph-name="k" unicode="k" horiz-adv-x="1078" 
d="M93 0l184 1501h141l-114 -933l552 458h191l-598 -486l511 -540h-186l-477 510l-63 -510h-141z" />
    <glyph glyph-name="l" unicode="l" horiz-adv-x="517" 
d="M99 0l184 1501h141l-184 -1501h-141z" />
    <glyph glyph-name="m" unicode="m" horiz-adv-x="1913" 
d="M125 0l101 818.999c4 32 9.66699 101 17 207h140l-17 -186c39.333 68 92.833 120.333 160.5 157s141.834 55 222.501 55s146.167 -20.667 196.5 -62s81.833 -101.666 94.5 -180.999c46 78 105.167 138 177.5 180s150.5 63 234.5 63
c101.333 0 177.666 -28.333 228.999 -85s77 -138.667 77 -246c0 -30 -2 -62 -6 -96l-78 -625h-141l76 618c4 31.333 6 60 6 86c0 154.667 -62 232 -186 232c-93.333 0 -174.333 -29.667 -243 -89s-115 -139.333 -139 -240l-75 -607h-142l78 626c3.33301 30 5 56 5 78
c0 74 -15.833 131.167 -47.5 171.5s-79.834 60.5 -144.501 60.5c-89.333 0 -167.166 -25.833 -233.499 -77.5s-112.833 -120.5 -139.5 -206.5l-81 -652h-142z" />
    <glyph glyph-name="n" unicode="n" horiz-adv-x="1251" 
d="M125 0l99.001 810.999c3.33301 28.667 6.5 60.834 9.5 96.501s5.16699 64.5 6.5 86.5l2 32h140l-17 -184c43.333 67.333 101 119.166 173 155.499s148.667 54.5 230 54.5c216.667 0 325 -114 325 -342c0 -36.667 -2.33301 -73.334 -7 -110.001l-74 -600h-142l75 600
c4 34.667 6 66.667 6 96c0 80.667 -16.833 140.834 -50.5 180.501s-87.834 59.5 -162.501 59.5c-88.667 0 -169.5 -25.667 -242.5 -77s-122.5 -117.666 -148.5 -198.999l-81 -660h-141z" />
    <glyph glyph-name="o" unicode="o" horiz-adv-x="1244" 
d="M1004 591c0 107.333 -28.332 191.667 -84.999 253s-138.334 92 -245.001 92c-119.333 0 -216.833 -38.333 -292.5 -115s-121.5 -180 -137.5 -310c-3.33301 -28.667 -5 -54 -5 -76c0 -105.333 28.5 -188.333 85.5 -249s139.167 -91 246.5 -91
c131.333 0 236.333 45.667 315 137s118 211 118 359zM557.001 -20.999c-146.667 0 -260.834 40.166 -342.501 120.499s-122.5 188.5 -122.5 324.5c0 28 2 57 6 87c20 163.333 83.167 294.333 189.5 393s240.5 148 402.5 148c145.333 0 258.5 -40.5 339.5 -121.5
s121.5 -190.5 121.5 -328.5c0 -29.333 -2 -59.666 -6 -90.999c-20 -160 -82.667 -288.667 -188 -386s-238.666 -146 -399.999 -146z" />
    <glyph glyph-name="p" unicode="p" horiz-adv-x="1263" 
d="M662 -24c-86.667 0 -161.502 19.833 -224.502 59.5s-102.833 90.834 -119.5 153.501l-80 -648h-140l147 1202c9.33301 75.333 18 169.666 26 282.999h146l-24 -215c32.667 68 86.334 124.667 161.001 170s155.334 68 242.001 68c125.333 0 223.5 -39.833 294.5 -119.5
s106.5 -186.5 106.5 -320.5c0 -184 -50.667 -335.5 -152 -454.5s-229 -178.5 -383 -178.5zM1052 599c0 103.333 -24.666 184.835 -73.999 244.502s-120.333 89.5 -213 89.5c-120.667 0 -220.334 -48.333 -299.001 -145s-118 -219.334 -118 -368.001
c0 -102 27.333 -182.167 82 -240.5s131.667 -87.5 231 -87.5c118 0 212.667 47.167 284 141.5s107 216.166 107 365.499z" />
    <glyph glyph-name="q" unicode="q" horiz-adv-x="1258" 
d="M495 -24c-124 0 -222.167 39.668 -294.5 119.001s-108.5 185 -108.5 317c0 60 8.66699 125.667 26 197c33.333 134 95.5 240.833 186.5 320.5s199.167 119.5 324.5 119.5c86.667 0 161.667 -22.667 225 -68s103 -102 119 -170l29 215h146
c-17.333 -94 -32 -188.333 -44 -283l-153 -1202h-140l82 648c-32.667 -62.667 -85.5 -113.834 -158.5 -153.501s-152.833 -59.5 -239.5 -59.5zM942 585.001c0 105.333 -27.832 189.667 -83.499 253s-131.5 95 -227.5 95c-92 0 -170.167 -29.833 -234.5 -89.5
s-109.5 -141.167 -135.5 -244.5c-16 -64 -24 -123.667 -24 -179c0 -100.667 25.167 -180.5 75.5 -239.5s121.166 -88.5 212.499 -88.5c124 0 224.5 46 301.5 138s115.5 210.333 115.5 355z" />
    <glyph glyph-name="r" unicode="r" horiz-adv-x="786" 
d="M128 0l95.0029 774.997c4 30.667 7.66699 66.834 11 108.501s5.66602 75.834 6.99902 102.501l2 40h147l-16 -175c34 66.667 78.333 116.334 133 149.001s114.667 49 180 49c36 0 69.667 -3.33301 101 -10l-18 -127c-36.667 8 -71 12 -103 12
c-86.667 0 -159.334 -29.667 -218.001 -89s-95.334 -149.333 -110.001 -270l-70 -565h-141z" />
    <glyph glyph-name="s" unicode="s" horiz-adv-x="957" 
d="M698 295c0 39.333 -13.834 69.832 -41.501 91.499s-75.5 44.167 -143.5 67.5l-141 46c-73.333 25.333 -128.333 55 -165 89s-55 82 -55 144c0 55.333 11 104 33 146s52.167 75.333 90.5 100s81.333 43 129 55s99.834 18 156.501 18c130 0 234.667 -27.667 314 -83
l-54 -102c-78.667 46 -166.667 69 -264 69c-175.333 0 -263 -61.333 -263 -184c0 -34 10.667 -59.833 32 -77.5s61 -36.167 119 -55.5c1.33301 -0.666992 50 -17 146 -49c40.667 -14.667 74.5 -28.667 101.5 -42s52 -29.5 75 -48.5s39.833 -41 50.5 -66s16 -54.167 16 -87.5
c0 -60 -11.5 -113 -34.5 -159s-54 -82.333 -93 -109s-81.667 -46.5 -128 -59.5s-95.5 -19.5 -147.5 -19.5c-142 0 -261.667 40 -359 120l58 107c92 -72.667 194.333 -109 307 -109c32.667 0 63 2.83301 91 8.5s55.5 15.334 82.5 29.001s48.333 34.167 64 61.5
s23.5 60.333 23.5 99z" />
    <glyph glyph-name="t" unicode="t" horiz-adv-x="745" 
d="M565 -1c-3.33301 0 -14.3311 0.166992 -32.998 0.5s-29.334 0.5 -32.001 0.5c-78.667 2 -140.334 12 -185.001 30s-75.167 42.167 -91.5 72.5s-24.5 70.833 -24.5 121.5c0 26 3 64.667 9 116l73 592h-200l12 94h201l34 279l145 41l-40 -320h256l-12 -94h-255l-73 -598
c-5.33301 -39.333 -8 -70.333 -8 -93c0 -52 16 -86.333 48 -103s95.333 -25 190 -25z" />
    <glyph glyph-name="u" unicode="u" 
d="M505 -24c-114.667 0 -200.667 29.168 -258 87.501s-86 141.5 -86 249.5c0 28.667 2 58.334 6 89.001l76 624h141l-77 -626c-3.33301 -28 -5 -51.333 -5 -70c0 -158.667 77.333 -238 232 -238c52.667 0 102.167 9 148.5 27s84.833 41.167 115.5 69.5
s55.5 59.166 74.5 92.499s30.5 66 34.5 98l80 647h141l-97 -787c-10 -84.667 -17.333 -164.334 -22 -239.001h-138l15 178c-96.667 -134.667 -223.667 -202 -381 -202z" />
    <glyph glyph-name="v" unicode="v" horiz-adv-x="1002" 
d="M369 0l-299.999 1026h151c7.33301 -26 42.166 -151.167 104.499 -375.5s107.833 -396.5 136.5 -516.5l76 160l379 732h149l-552 -1026h-144z" />
    <glyph glyph-name="w" unicode="w" horiz-adv-x="1594" 
d="M294 0l-193 1026h150c10 -59.333 32.167 -191.166 66.5 -395.499s61.5 -361.5 81.5 -471.5c50.667 113.333 124.167 273.166 220.5 479.499s156.5 335.5 180.5 387.5h153c20 -96 50 -240.667 90 -434s70 -338 90 -434c38 96.667 95.167 241.334 171.5 434.001
s133.5 337.334 171.5 434.001h143l-435 -1026h-151c-80 386.667 -139.667 677 -179 871c-45.333 -97.333 -182 -387.666 -410 -870.999h-150z" />
    <glyph glyph-name="x" unicode="x" horiz-adv-x="1090" 
d="M-11 0l479 519l-326 509l157 -2l257 -412l375 412h154l-459 -509l347 -517h-154l-283 426l-394 -426h-153z" />
    <glyph glyph-name="y" unicode="y" horiz-adv-x="1024" 
d="M94 -425l-42.001 99c164.667 46.667 279.334 135 344.001 265l27 54l-282 1033h149l222 -875l433 875h141l-547 -1079c-46.667 -93.333 -107 -173.333 -181 -240s-162 -110.667 -264 -132z" />
    <glyph glyph-name="z" unicode="z" horiz-adv-x="952" 
d="M34 0l10 79l690 831h-568l14 116h749l-9 -77l-688 -834h587l-14 -115h-771z" />
    <glyph glyph-name="braceleft" unicode="{" horiz-adv-x="848" 
d="M551 1145l-34.002 -276.003c-17.333 -148 -87.666 -241.333 -210.999 -280c96.667 -34.667 145 -111.667 145 -231c0 -22 -1.33301 -42.333 -4 -61l-33 -272c-2.66699 -24 -4 -41 -4 -51c0 -43.333 14.667 -74 44 -92s84.333 -27 165 -27h12l-13 -111
c-69.333 0.666992 -127.333 6 -174 16s-82.667 25 -108 45s-43 42 -53 66s-15 52.667 -15 86c0 22 1.33301 42.333 4 61l32 267c3.33301 28.667 5 53 5 73c0 59.333 -14.833 104.166 -44.5 134.499s-81.5 49.5 -155.5 57.5l10 84c87.333 8.66699 149.833 33 187.5 73
s61.834 101 72.501 183l32 267c4 34.667 9.83301 64.334 17.5 89.001s20.834 49.834 39.501 75.501s42.5 46.5 71.5 62.5s67.667 29 116 39s105.166 15 170.499 15l-14 -110h-9c-51.333 0 -93 -3.83301 -125 -11.5s-56.667 -20.167 -74 -37.5s-29.5 -35.666 -36.5 -54.999
s-12.5 -45.666 -16.5 -78.999z" />
    <glyph glyph-name="bar" unicode="|" horiz-adv-x="1317" 
d="M464 -499l252 2053h137l-252 -2053h-137z" />
    <glyph glyph-name="braceright" unicode="}" horiz-adv-x="816" 
d="M2 -256l13.999 111h9c51.333 0 93.166 3.83301 125.499 11.5s57 20.167 74 37.5s29 35.833 36 55.5s12.5 45.834 16.5 78.501l34 276c18.667 148.667 89 241.667 211 279c-96 35.333 -144 112 -144 230c0 22.667 1.33301 43.667 4 63l33 272c2.66699 24 4 40.667 4 50
c0 44 -14.667 75 -44 93s-84.666 27 -165.999 27h-12l14 110c69.333 0 127.333 -5 174 -15s82.667 -25 108 -45s43 -42 53 -66s15 -52.667 15 -86c0 -22 -1.33301 -42.333 -4 -61l-33 -267c-3.33301 -28.667 -5 -52.667 -5 -72c0 -59.333 15 -104.333 45 -135
s82 -50 156 -58l-11 -84c-87.333 -8.66699 -149.666 -33 -186.999 -73s-61.333 -101 -72 -183l-33 -267c-4 -34.667 -9.83301 -64.334 -17.5 -89.001s-20.834 -50 -39.501 -76s-42.5 -47 -71.5 -63s-67.667 -29 -116 -39s-105.166 -15 -170.499 -15z" />
    <glyph glyph-name="asciitilde" unicode="~" horiz-adv-x="1085" 
d="M127 396l-89.998 46.001c24 71.333 59.667 125.833 107 163.5s110 56.5 188 56.5c51.333 0 128.333 -19.333 231 -58c10 -4 28.333 -11.167 55 -21.5s44.167 -17 52.5 -20s20.666 -7.16699 36.999 -12.5s29.666 -8.83301 39.999 -10.5s20.833 -2.5 31.5 -2.5
c44 0 82.833 17 116.5 51s59.834 76.333 78.501 127l100 -33c-28.667 -81.333 -69.334 -145.833 -122.001 -193.5s-116 -71.5 -190 -71.5c-6.66699 0 -13.334 0.333008 -20.001 1s-14.167 1.83398 -22.5 3.50098s-15.5 3.16699 -21.5 4.5s-14.167 3.66602 -24.5 6.99902
s-18.166 5.83301 -23.499 7.5s-13.833 4.66699 -25.5 9s-19.667 7.33301 -24 9s-13.333 5.16699 -27 10.5s-22.167 8.66602 -25.5 9.99902c-56.667 23.333 -101 39.833 -133 49.5s-64 14.5 -96 14.5c-52.667 0 -93.667 -12 -123 -36s-52.333 -61 -69 -111z" />
    <glyph glyph-name="uni007F" horiz-adv-x="1521" 
d="M286 124h801l148 1206h-801zM99 0l178 1456h1145l-178 -1456h-1145z" />
    <glyph glyph-name="uni00A0" unicode="&#xa0;" horiz-adv-x="599" 
 />
    <glyph glyph-name="exclamdown" unicode="&#xa1;" horiz-adv-x="481" 
d="M244 1122h171l-25 -190h-171zM241 752h82l-94 -1086h-169z" />
    <glyph glyph-name="cent" unicode="&#xa2;" horiz-adv-x="999" 
d="M485 -196l177 1449h79l-177 -1449h-79zM237 434c0 -104.667 29.832 -187.331 89.499 -247.998s141.834 -91 246.501 -91c112 0 216 33.333 312 100l34 -99c-99.333 -78 -221.666 -117 -366.999 -117c-142.667 0 -255 40.167 -337 120.5s-123 187.833 -123 322.5
c0 23.333 1.66699 50.666 5 81.999c20 164.667 84.167 297.167 192.5 397.5s242.166 150.5 401.499 150.5c64.667 0 124.5 -9.83301 179.5 -29.5s98.833 -46.834 131.5 -81.501l-61 -97c-62.667 61.333 -148.667 92 -258 92c-126.667 0 -232.667 -45.667 -318 -137
s-128 -213 -128 -365z" />
    <glyph glyph-name="sterling" unicode="&#xa3;" horiz-adv-x="1170" 
d="M59 0l15.998 127c64.667 38.667 117.334 100.334 158.001 185.001s66.334 170.667 77.001 258l17 135h-195l12 100h195l20 165c40.667 338 201.667 507 483 507c65.333 0 119.166 -7.33301 161.499 -22s71.5 -32.334 87.5 -53.001l-56 -106c-12.667 12 -36.5 24 -71.5 36
s-74.833 18 -119.5 18c-102.667 0 -180.167 -30.333 -232.5 -91s-85.5 -145.667 -99.5 -255l-24 -199h377l-12 -100h-375l-16 -135c-7.33301 -59.333 -19.833 -116 -37.5 -170s-37.167 -99 -58.5 -135s-41.166 -65.5 -59.499 -88.5s-34.833 -39.833 -49.5 -50.5h681
l-15 -126h-864z" />
    <glyph glyph-name="currency" unicode="&#xa4;" horiz-adv-x="1218" 
d="M344 1279l-170.999 195.001l57 51l173 -196c76.667 55.333 161 83 253 83c90 0 167.667 -27.333 233 -82l219 195l45 -51l-217 -193c45.333 -60 68 -128.667 68 -206c0 -109.333 -40.667 -207 -122 -293l163 -185l-57 -51l-163 186
c-80.667 -60 -168.334 -90 -263.001 -90c-96 0 -176.333 30.333 -241 91l-210 -187l-45 51l210 187c-40.667 57.333 -61 122.666 -61 195.999c0 113.333 43 213 129 299zM913.001 1070c0 76.667 -24.832 139.834 -74.499 189.501s-113.834 74.5 -192.501 74.5
c-92.667 0 -173 -33.333 -241 -100s-102 -149.667 -102 -249c0 -78 24.667 -142.833 74 -194.5s113.333 -77.5 192 -77.5c92.667 0 173.167 34.667 241.5 104s102.5 153.666 102.5 252.999z" />
    <glyph glyph-name="yen" unicode="&#xa5;" horiz-adv-x="1182" 
d="M155 315l11 91h345l16 139h-344l11 94h761l-11 -94h-338l-16 -139h336l-12 -91h-759zM452 0l71 583l-384 873h161l317 -743l504 743h159l-606 -870l-72 -586h-150z" />
    <glyph glyph-name="brokenbar" unicode="&#xa6;" horiz-adv-x="500" 
d="M77 -499l109 887h128l-109 -887h-128zM225 702l104 852h128l-104 -852h-128z" />
    <glyph glyph-name="section" unicode="&#xa7;" horiz-adv-x="1046" 
d="M677 222c0 10 -1.16992 19.667 -3.50293 29s-6.5 18.333 -12.5 27s-12 16.5 -18 23.5s-15 14.667 -27 23s-22.5 15.5 -31.5 21.5s-22.167 13.667 -39.5 23s-31.666 17 -42.999 23s-28 14.5 -50 25.5s-40 20.167 -54 27.5c-70.667 36.667 -122.334 72 -155.001 106
s-49 77 -49 129c0 68 25 126.167 75 174.5s111.667 83.166 185 104.499c-61.333 36.667 -105 70.834 -131 102.501s-39 70.834 -39 117.501c0 52.667 11.667 99.667 35 141s54.333 74.333 93 99s81.334 43.167 128.001 55.5s95.334 18.5 146.001 18.5c80 0 153 -13 219 -39
l-12 -103c-65.333 26.667 -134 40 -206 40c-48 0 -91.5 -6.16699 -130.5 -18.5s-72 -33.5 -99 -63.5s-40.5 -67.333 -40.5 -112c0 -34 14.333 -63.833 43 -89.5s83.334 -59.834 164.001 -102.501c93.333 -50 153.666 -85.333 180.999 -106c55.333 -44 83.333 -94 84 -150
c0 -114.667 -80 -212.667 -240 -294c52.667 -28.667 92.834 -60 120.501 -94s41.5 -74.333 41.5 -121c0 -6.66699 -0.666992 -16.667 -2 -30c-8 -64.667 -31.5 -119.5 -70.5 -164.5s-86.833 -77.667 -143.5 -98s-120 -30.5 -190 -30.5c-97.333 0 -192 17.667 -284 53l15 112
c98.667 -41.333 190.667 -62 276 -62c77.333 0 140.833 17.333 190.5 52s74.5 84.667 74.5 150zM566.997 503c54.667 26 99 58.167 133 96.5s51 81.833 51 130.5c0 32 -12.833 58.333 -38.5 79s-71.167 48 -136.5 82l-36 18c-66.667 -24.667 -119.834 -53 -159.501 -85
s-59.5 -71 -59.5 -117c0 -18 4.33301 -34.833 13 -50.5s18.334 -29 29.001 -40s29 -24 55 -39s47.5 -26.667 64.5 -35s45.167 -21.5 84.5 -39.5z" />
    <glyph glyph-name="dieresis" unicode="&#xa8;" horiz-adv-x="743" 
d="M107 1196l19 148h142l-19 -148h-142zM477 1196l18 148h143l-19 -148h-142z" />
    <glyph glyph-name="copyright" unicode="&#xa9;" horiz-adv-x="1738" 
d="M955 1179c49.333 0 95.501 -8.16797 138.501 -24.501s78.167 -39.166 105.5 -68.499l-51 -82c-24 22.667 -54.5 40.667 -91.5 54s-74.833 20 -113.5 20c-30 0 -59.667 -3.66699 -89 -11s-59 -20 -89 -38s-57 -40.333 -81 -67s-44.833 -61 -62.5 -103
s-29.834 -89 -36.501 -141c-2.66699 -19.333 -4 -41 -4 -65c0 -87.333 23.5 -155.333 70.5 -204s111.167 -73 192.5 -73c98.667 0 184 25.333 256 76l28 -86c-78.667 -60 -176 -90 -292 -90c-114.667 0 -206.667 32.333 -276 97s-104 154.667 -104 270
c0 81.333 13.5 156 40.5 224s63.5 124.5 109.5 169.5s99 80 159 105s123.333 37.5 190 37.5zM789.001 59.999c117.333 0 229.832 30.002 337.499 90.002s196.667 140.833 267 242.5s112.833 211.5 127.5 329.5c3.33301 30 5 57 5 81c0 107.333 -24.5 205.5 -73.5 294.5
s-117.5 159.5 -205.5 211.5s-186.333 78 -295 78c-88.667 0 -175.667 -17.833 -261 -53.5s-160.833 -83.334 -226.5 -143.001s-120.667 -130.5 -165 -212.5s-72.166 -167.333 -83.499 -256c-3.33301 -30 -5 -56.667 -5 -80c0 -106.667 24.667 -204.334 74 -293.001
s118.333 -159 207 -211s187.667 -78 297 -78zM775 -31.999c-126 0 -240.499 29.335 -343.499 88.002s-183.5 138.667 -241.5 240s-87 213.666 -87 336.999c0 30 2 61 6 93c12.667 102.667 44.834 200.834 96.501 294.501s115.667 174.334 192 242.001
s163.666 121.667 261.999 162s198.833 60.5 301.5 60.5c127.333 0 242.666 -29.5 345.999 -88.5s184 -139.333 242 -241s87 -214.167 87 -337.5c0 -30.667 -2 -61.334 -6 -92.001c-17.333 -136.667 -67.333 -263.334 -150 -380.001s-186.5 -208.834 -311.5 -276.501
s-256.167 -101.5 -393.5 -101.5z" />
    <glyph glyph-name="ordfeminine" unicode="&#xaa;" horiz-adv-x="741" 
d="M378 1189l172.001 0.000976562l3 26c2.66699 18.667 4 37.334 4 56.001c0 40.667 -10 70 -30 88s-54.333 27 -103 27c-38 0 -77.667 -4.5 -119 -13.5s-73 -17.833 -95 -26.5l-33 -14l-20 81c9.33301 5.33301 22.333 11.666 39 18.999s49.667 17.166 99 29.499
s96.666 18.5 141.999 18.5c70.667 0 127.834 -16.167 171.501 -48.5s65.5 -81.5 65.5 -147.5c0 -7.33301 -3.83301 -41.5 -11.5 -102.5s-15.167 -120.333 -22.5 -178s-11.333 -86.5 -12 -86.5c-2 -15.333 -5 -55.666 -9 -120.999h-117l10 93
c-24.667 -34 -57.834 -60.5 -99.501 -79.5s-85.834 -28.5 -132.501 -28.5c-67.333 0 -120.666 16.167 -159.999 48.5s-59 75.166 -59 128.499c0 74 27.5 131 82.5 171s133.167 60 234.5 60zM180.001 973.001c0 -66 42.3379 -98.999 127.005 -98.999
c69.333 0 123.5 20.333 162.5 61s62.167 91 69.5 151l3 27h-48c-26.667 0 -47.834 -0.166992 -63.501 -0.5s-34.334 -0.833008 -56.001 -1.5s-38.667 -1.83398 -51 -3.50098s-26.333 -4.16699 -42 -7.5s-27.834 -7.33301 -36.501 -12s-17.834 -10.5 -27.501 -17.5
s-16.834 -15.167 -21.501 -24.5s-8.5 -20 -11.5 -32s-4.5 -25.667 -4.5 -41z" />
    <glyph glyph-name="guillemotleft" unicode="&#xab;" horiz-adv-x="1079" 
d="M343 178l-222 366l318 372h138l-299 -371l200 -367h-135zM765 178l-221 366l317 372h138l-300 -371l201 -367h-135z" />
    <glyph glyph-name="logicalnot" unicode="&#xac;" horiz-adv-x="1468" 
d="M1101 242l52 428h-914l15 124h1043l-68 -552h-128z" />
    <glyph glyph-name="uni00AD" unicode="&#xad;" horiz-adv-x="636" 
d="M58 507l13 107h507l-13 -107h-507z" />
    <glyph glyph-name="registered" unicode="&#xae;" horiz-adv-x="1738" 
d="M503 269l114 928h262c132.667 0 229.5 -18.5 290.5 -55.5s91.5 -91.5 91.5 -163.5c0 -16 -0.666992 -28.333 -2 -37c-8 -69.333 -31 -124.333 -69 -165s-101.333 -68.667 -190 -84l173 -423h-151l-155 410h-183l-50 -410h-131zM1120 967c0 50 -18.332 82.667 -54.999 98
s-107.334 23 -212.001 23h-121l-39 -318h135c107.333 0 182.833 13.167 226.5 39.5s65.5 78.833 65.5 157.5zM789.001 60c117.333 0 229.832 30.002 337.499 90.002s196.667 140.833 267 242.5s112.833 211.5 127.5 329.5c3.33301 30 5 57 5 81
c0 107.333 -24.5 205.5 -73.5 294.5s-117.5 159.5 -205.5 211.5s-186.333 78 -295 78c-88.667 0 -175.667 -17.833 -261 -53.5s-160.833 -83.334 -226.5 -143.001s-120.667 -130.5 -165 -212.5s-72.166 -167.333 -83.499 -256c-3.33301 -30 -5 -56.667 -5 -80
c0 -106.667 24.667 -204.334 74 -293.001s118.333 -159 207 -211s187.667 -78 297 -78zM775 -31.998c-126 0 -240.499 29.335 -343.499 88.002s-183.5 138.667 -241.5 240s-87 213.666 -87 336.999c0 30 2 61 6 93c12.667 102.667 44.834 200.834 96.501 294.501
s115.667 174.334 192 242.001s163.666 121.667 261.999 162s198.833 60.5 301.5 60.5c127.333 0 242.666 -29.5 345.999 -88.5s184 -139.333 242 -241s87 -214.167 87 -337.5c0 -30.667 -2 -61.334 -6 -92.001c-17.333 -136.667 -67.333 -263.334 -150 -380.001
s-186.5 -208.834 -311.5 -276.501s-256.167 -101.5 -393.5 -101.5z" />
    <glyph glyph-name="macron" unicode="&#xaf;" horiz-adv-x="697" 
d="M64 1239l12 99h557l-12 -99h-557z" />
    <glyph glyph-name="degree" unicode="&#xb0;" horiz-adv-x="833" 
d="M606 1178c0 47.333 -14.5 86.332 -43.5 116.999s-69.833 46 -122.5 46c-62 0 -113.167 -21.167 -153.5 -63.5s-60.5 -94.166 -60.5 -155.499c0 -48 14.333 -87.5 43 -118.5s70 -46.5 124 -46.5c64 0 115.5 21.333 154.5 64s58.5 95 58.5 157zM452 1439
c78.667 0 142.333 -24.001 191 -72.001s73 -108 73 -180c0 -92 -33 -170 -99 -234s-144.667 -96 -236 -96c-78 0 -141.5 24.333 -190.5 73s-73.5 109.334 -73.5 182.001c0 92 33 169.5 99 232.5s144.667 94.5 236 94.5z" />
    <glyph glyph-name="plusminus" unicode="&#xb1;" horiz-adv-x="1206" 
d="M506 232l45 363h-348l15 125h347l44 364h127l-44 -364h335l-15 -125h-333l-45 -363h-128zM112 0l14 112h863l-13 -112h-864z" />
    <glyph glyph-name="uni00B2" unicode="&#xb2;" horiz-adv-x="1028" 
d="M199 625l11 84.999l318 286c60 54 102.5 98.833 127.5 134.5s39.5 70.834 43.5 105.501c0.666992 4 1 10 1 18c0 32.667 -11.167 59.167 -33.5 79.5s-56.833 30.5 -103.5 30.5c-45.333 0 -86 -12 -122 -36s-62.667 -61 -80 -111l-71 43
c20.667 61.333 56.667 109.333 108 144s111.333 52 180 52c72 0 128.167 -17.167 168.5 -51.5s60.5 -79.5 60.5 -135.5c0 -6.66699 -0.666992 -16.667 -2 -30c-6 -53.333 -25.667 -103 -59 -149s-87.333 -101.667 -162 -167l-238 -209h396l-12 -89h-531z" />
    <glyph glyph-name="uni00B3" unicode="&#xb3;" horiz-adv-x="971" 
d="M610 869c0 40.667 -15.335 72.333 -46.002 95s-75 34 -133 34h-85l12 92h82c61.333 0 109.666 13.5 144.999 40.5s53 65.833 53 116.5c0 36.667 -12.333 65.334 -37 86.001s-58.334 31 -101.001 31c-77.333 0 -144.666 -26.667 -201.999 -80l-43 68
c29.333 31.333 67.5 56.5 114.5 75.5s95.5 28.5 145.5 28.5c69.333 0 125 -17.167 167 -51.5s63 -81.5 63 -141.5c0 -53.333 -14 -98.666 -42 -135.999s-69.333 -63.333 -124 -78c44.667 -12 78.834 -33.5 102.501 -64.5s35.5 -68.167 35.5 -111.5
c0 -6 -0.666992 -15 -2 -27c-10 -74.667 -42.5 -133.834 -97.5 -177.501s-122.167 -65.5 -201.5 -65.5c-48.667 0 -95 8.16699 -139 24.5s-79.333 38.833 -106 67.5l56 80c24.667 -24.667 54.834 -44.334 90.501 -59.001s71.167 -22 106.5 -22
c52.667 0 96.834 16 132.501 48s53.5 74.333 53.5 127z" />
    <glyph glyph-name="acute" unicode="&#xb4;" horiz-adv-x="607" 
d="M76 1173l255 321h185l-335 -321h-105z" />
    <glyph glyph-name="mu" unicode="&#xb5;" 
d="M238 -304l-141 2.00098l163 1328h141l-77 -626c-3.33301 -28 -5 -51.333 -5 -70c0 -158.667 77.667 -238 233 -238c52.667 0 102.167 9 148.5 27s84.833 41.167 115.5 69.5s55.5 59 74.5 92s30.5 65.833 34.5 98.5l79 647h141l-96 -787
c-10 -80.667 -17.667 -160.334 -23 -239.001h-138l15 178c-96.667 -134.667 -223.667 -202 -381 -202c-106.667 0 -186.667 27 -240 81z" />
    <glyph glyph-name="paragraph" unicode="&#xb6;" horiz-adv-x="1201" 
d="M404 -180l123 1008h-7c-86 0 -160.5 24 -223.5 72s-94.5 114 -94.5 198c0 16.667 0.666992 29.334 2 38.001c7.33301 60.667 24.5 112.334 51.5 155.001s63 75.834 108 99.501s95.167 40.667 150.5 51s119.333 15.5 192 15.5h421l-13 -109h-97l-187 -1528h-105l187 1528
h-217l-187 -1528h-104z" />
    <glyph glyph-name="periodcentered" unicode="&#xb7;" horiz-adv-x="509" 
d="M252 525l23 180h163l-22 -180h-164z" />
    <glyph glyph-name="cedilla" unicode="&#xb8;" horiz-adv-x="529" 
d="M44 -384l22 77.002c13.333 -6.66699 34.833 -13 64.5 -19s57.5 -9 83.5 -9c76 0 114 26 114 78c0 21.333 -13.667 38.166 -41 50.499s-66.333 18.5 -117 18.5h-14l57 195h78l-38 -136c132 -10.667 198 -52.667 198 -126c0 -38.667 -12.5 -70.834 -37.5 -96.501
s-54.5 -43.167 -88.5 -52.5s-71.333 -14 -112 -14c-60 0 -116.333 11.333 -169 34z" />
    <glyph glyph-name="uni00B9" unicode="&#xb9;" horiz-adv-x="976" 
d="M232 633l12.001 90h152l74 609c-2.66699 -1.33301 -58.334 -25.333 -167.001 -72l13 101c8.66699 2.66699 39 16 91 40s82.333 38.333 91 43l89 4l-89 -726h140l-11 -89h-395z" />
    <glyph glyph-name="ordmasculine" unicode="&#xba;" horiz-adv-x="868" 
d="M665 1172c0 63.333 -17.5 112.498 -52.5 147.498s-84.5 52.5 -148.5 52.5c-76 0 -137.667 -26.167 -185 -78.5s-71 -122.166 -71 -209.499c0 -63.333 17 -112.166 51 -146.499s83.667 -51.5 149 -51.5c76 0 137.833 26.167 185.5 78.5s71.5 121.5 71.5 207.5z
M393 778.998c-102.667 0 -181.168 27.501 -235.501 82.501s-81.5 127.167 -81.5 216.5c0 17.333 1 35.666 3 54.999c12.667 101.333 54.834 185 126.501 251s163.167 99 274.5 99c100.667 0 177.834 -27.333 231.501 -82s80.5 -126.667 80.5 -216
c0 -116.667 -36.833 -213.5 -110.5 -290.5s-169.834 -115.5 -288.501 -115.5z" />
    <glyph glyph-name="guillemotright" unicode="&#xbb;" horiz-adv-x="1079" 
d="M78 174l300 370l-201 368h135l222 -367l-317 -371h-139zM501 174l300 370l-201 368h135l221 -367l-317 -371h-138z" />
    <glyph glyph-name="onequarter" unicode="&#xbc;" horiz-adv-x="1812" 
d="M160 640l11 87h160l76 617l-174 -70l13 96c6 2 38 16.167 96 42.5s89 40.833 93 43.5h93l-89 -730h145l-11 -86h-413zM1314 0l22 187h-386l11 82l435 524h122l-63 -515h97l-12 -91h-99l-22 -187h-105zM318 0l1094 1456h113l-1085 -1456h-122zM1070 278h276l48 392z" />
    <glyph glyph-name="onehalf" unicode="&#xbd;" horiz-adv-x="1845" 
d="M1011 0l10.999 98.002l318 278c64 56.667 107.167 100.667 129.5 132s35.166 65.333 38.499 102c0 1.33301 0.166992 3.66602 0.5 6.99902s0.5 6 0.5 8c0 33.333 -10.667 60.333 -32 81s-55.333 31 -102 31c-44.667 0 -85.5 -11.667 -122.5 -35
s-64.833 -59.333 -83.5 -108l-68 49c22.667 59.333 59.834 105.833 111.501 139.5s111.167 50.5 178.5 50.5c72.667 0 129.334 -17.667 170.001 -53s61 -82.333 61 -141c0 -12 -0.333008 -21 -1 -27c-6 -58 -24.5 -107.833 -55.5 -149.5s-87.167 -96.834 -168.5 -165.501
l-230 -200h391l-11 -97h-536zM274.999 0.00195312l1094 1456h113l-1085 -1456h-122zM155.999 640.002l11 87h160l76 617l-173 -70l13 96c6 2 37.833 16.167 95.5 42.5s88.5 40.833 92.5 43.5h93l-89 -730h145l-11 -86h-413z" />
    <glyph glyph-name="threequarters" unicode="&#xbe;" horiz-adv-x="1863" 
d="M613 870c0 40 -15.167 71.332 -45.5 93.999s-73.5 34 -129.5 34h-88l12 91h86c59.333 0 106.333 14 141 42s52 66.667 52 116c0 36.667 -12.667 66 -38 88s-59 33 -101 33c-76 0 -143 -26.667 -201 -80l-44 66c30.667 31.333 69.5 56.333 116.5 75s95.5 28 145.5 28
c70.667 0 127.167 -17.167 169.5 -51.5s63.5 -81.833 63.5 -142.5c0 -51.333 -14.167 -95.166 -42.5 -131.499s-68.833 -62.833 -121.5 -79.5c43.333 -12.667 76.833 -34.667 100.5 -66s35.5 -68 35.5 -110c0 -82.667 -29.667 -148.667 -89 -198s-130.666 -74 -213.999 -74
c-49.333 0 -96 8.16699 -140 24.5s-79.667 38.833 -107 67.5l57 79c55.333 -54 120.666 -81 195.999 -81c52 0 96 16.5 132 49.5s54 75.167 54 126.5zM1347 -0.000976562l23 187h-386l10 82l435 524h123l-63 -515h96l-12 -91h-98l-23 -187h-105zM380 -0.000976562l1095 1456
h113l-1085 -1456h-123zM1104 277.999h275l48 392z" />
    <glyph glyph-name="questiondown" unicode="&#xbf;" horiz-adv-x="1032" 
d="M705 755l-17.0049 -145.996c-4 -32 -15.167 -64 -33.5 -96s-40.833 -61.5 -67.5 -88.5s-55.667 -54.167 -87 -81.5s-62.666 -54.833 -93.999 -82.5s-60.166 -55.334 -86.499 -83.001s-48.833 -58 -67.5 -91s-30 -66.5 -34 -100.5c-1.33301 -16 -2 -27.333 -2 -34
c0 -64 23.667 -111.833 71 -143.5s109.333 -47.5 186 -47.5c54.667 0 108.167 8.16699 160.5 24.5s95.5 34.166 129.5 53.499l-17 -136c-97.333 -44 -200 -66 -308 -66c-116.667 0 -207.5 24.167 -272.5 72.5s-97.5 119.833 -97.5 214.5c0 47.333 8.83301 92.833 26.5 136.5
s40.834 82.667 69.501 117s60.334 67.333 95.001 99s69.834 62 105.501 91s68.5 57.167 98.5 84.5s55.333 56.666 76 87.999s33 62.666 37 93.999l15 121h114zM778.995 1125l-24 -194h-175l24 194h175z" />
    <glyph glyph-name="Agrave" unicode="&#xc0;" horiz-adv-x="1364" 
d="M734 1604l-288 320h187l205 -320h-104zM-39 0l725 1456h169l371 -1456h-161l-98 394h-649l-193 -394h-164zM372 509l567 0.000976562c-64.667 285.333 -126.667 552.666 -186 801.999c-84.667 -178.667 -211.667 -446 -381 -802z" />
    <glyph glyph-name="Aacute" unicode="&#xc1;" horiz-adv-x="1364" 
d="M742 1603l255 321h185l-335 -321h-105zM-39 0l725 1456h169l371 -1456h-161l-98 394h-649l-193 -394h-164zM372 509l567 0.000976562c-64.667 285.333 -126.667 552.666 -186 801.999c-84.667 -178.667 -211.667 -446 -381 -802z" />
    <glyph glyph-name="Acircumflex" unicode="&#xc2;" horiz-adv-x="1364" 
d="M520 1615l258 309h110l180 -309h-106l-146 201l-196 -201h-100zM-39 0l725 1456h169l371 -1456h-161l-98 394h-649l-193 -394h-164zM372 509l567 0.000976562c-64.667 285.333 -126.667 552.666 -186 801.999c-84.667 -178.667 -211.667 -446 -381 -802z" />
    <glyph glyph-name="Atilde" unicode="&#xc3;" horiz-adv-x="1364" 
d="M660 1733c-41.333 0 -67.002 -28.999 -77.002 -86.999h-90c7.33301 59.333 26.333 105.666 57 138.999s69.334 50 116.001 50c36 0 87.5 -16.5 154.5 -49.5s111.5 -49.5 133.5 -49.5c18.667 0 32.334 7.16699 41.001 21.5s15.334 38.166 20.001 71.499h94
c-7.33301 -59.333 -24.333 -106.666 -51 -141.999s-63.334 -53 -110.001 -53c-32.667 0 -83.167 16.5 -151.5 49.5s-113.833 49.5 -136.5 49.5zM-39.002 0.000976562l725 1456h169l371 -1456h-161l-98 394h-649l-193 -394h-164zM371.998 509.001l567 0.000976562
c-64.667 285.333 -126.667 552.666 -186 801.999c-84.667 -178.667 -211.667 -446 -381 -802z" />
    <glyph glyph-name="Adieresis" unicode="&#xc4;" horiz-adv-x="1364" 
d="M535 1626l19 148h142l-19 -148h-142zM905 1626l18 148h143l-19 -148h-142zM-39 0l725 1456h169l371 -1456h-161l-98 394h-649l-193 -394h-164zM372 509l567 0.000976562c-64.667 285.333 -126.667 552.666 -186 801.999c-84.667 -178.667 -211.667 -446 -381 -802z" />
    <glyph glyph-name="Aring" unicode="&#xc5;" horiz-adv-x="1364" 
d="M913 1762c0 28 -8.66699 51.167 -26 69.5s-40 27.5 -68 27.5c-31.333 0 -59.166 -12 -83.499 -36s-36.5 -53.667 -36.5 -89c0 -28 8.66699 -51.167 26 -69.5s39.666 -27.5 66.999 -27.5c32 0 60.167 12 84.5 36s36.5 53.667 36.5 89zM829 1930
c48.667 0 88.667 -14.834 120 -44.501s47 -67.5 47 -113.5c0 -59.333 -21 -108.5 -63 -147.5s-91.667 -58.5 -149 -58.5c-49.333 0 -89.5 14.833 -120.5 44.5s-46.5 67.834 -46.5 114.501c0 58.667 21.167 107.5 63.5 146.5s91.833 58.5 148.5 58.5zM-39 -0.000976562
l725 1456h169l371 -1456h-161l-98 394h-649l-193 -394h-164zM372 508.999l567 0.000976562c-64.667 285.333 -126.667 552.666 -186 801.999c-84.667 -178.667 -211.667 -446 -381 -802z" />
    <glyph glyph-name="AE" unicode="&#xc6;" horiz-adv-x="1961" 
d="M-59 0l1017 1456h963l-15 -126h-711l-21 -518h617l-14 -117h-609l-19 -572h633l-14 -123h-758l14 430h-632l-297 -430h-154zM461 542h564l37 788h-57z" />
    <glyph glyph-name="Ccedilla" unicode="&#xc7;" horiz-adv-x="1394" 
d="M513 -384l22 77.002c13.333 -6.66699 34.833 -13 64.5 -19s57.5 -9 83.5 -9c76 0 114 26 114 78c0 21.333 -13.667 38.166 -41 50.499s-66.333 18.5 -117 18.5h-14l57 195h78l-38 -136c132 -10.667 198 -52.667 198 -126c0 -38.667 -12.5 -70.834 -37.5 -96.501
s-54.5 -43.167 -88.5 -52.5s-71.333 -14 -112 -14c-60 0 -116.333 11.333 -169 34zM725 -21.998c-84 0 -163.671 13.833 -239.004 41.5s-141.833 67 -199.5 118s-103.5 115.5 -137.5 193.5s-51 164.333 -51 259c0 35.333 2.66699 75 8 119
c18.667 154 65.334 289.667 140.001 407s169.667 207.5 285 270.5s242.333 94.5 381 94.5c177.333 0 318 -48 422 -144l-72 -99c-95.333 80 -214.333 120 -357 120c-170.667 0 -314.667 -60 -432 -180s-187.666 -276.333 -210.999 -469c-4.66699 -42 -7 -77 -7 -105
c0 -155.333 43.833 -277.833 131.5 -367.5s206.834 -134.5 357.501 -134.5c152.667 0 298.334 44.667 437.001 134l36 -113c-152.667 -96.667 -316.667 -145 -492 -145z" />
    <glyph glyph-name="Egrave" unicode="&#xc8;" horiz-adv-x="1212" 
d="M694 1604l-288 320h187l205 -320h-104zM124 0l178 1456h841l-15 -124h-691l-64 -520h653l-15 -124h-654l-70 -564h722l-14 -124h-871z" />
    <glyph glyph-name="Eacute" unicode="&#xc9;" horiz-adv-x="1212" 
d="M702 1603l255 321h185l-335 -321h-105zM124 0l178 1456h841l-15 -124h-691l-64 -520h653l-15 -124h-654l-70 -564h722l-14 -124h-871z" />
    <glyph glyph-name="Ecircumflex" unicode="&#xca;" horiz-adv-x="1212" 
d="M480 1615l258 309h110l180 -309h-106l-146 201l-196 -201h-100zM124 0l178 1456h841l-15 -124h-691l-64 -520h653l-15 -124h-654l-70 -564h722l-14 -124h-871z" />
    <glyph glyph-name="Edieresis" unicode="&#xcb;" horiz-adv-x="1212" 
d="M495 1626l19 148h142l-19 -148h-142zM865 1626l18 148h143l-19 -148h-142zM124 0l178 1456h841l-15 -124h-691l-64 -520h653l-15 -124h-654l-70 -564h722l-14 -124h-871z" />
    <glyph glyph-name="Igrave" unicode="&#xcc;" horiz-adv-x="597" 
d="M361 1604l-288 320h187l205 -320h-104zM141 0l178 1456h150l-178 -1456h-150z" />
    <glyph glyph-name="Iacute" unicode="&#xcd;" horiz-adv-x="597" 
d="M369 1603l255 321h185l-335 -321h-105zM141 0l178 1456h150l-178 -1456h-150z" />
    <glyph glyph-name="Icircumflex" unicode="&#xce;" horiz-adv-x="597" 
d="M148 1615l258 309h110l180 -309h-106l-146 201l-196 -201h-100zM141 0l178 1456h150l-178 -1456h-150z" />
    <glyph glyph-name="Idieresis" unicode="&#xcf;" horiz-adv-x="597" 
d="M162 1626l19 148h142l-19 -148h-142zM532 1626l18 148h143l-19 -148h-142zM141 0l178 1456h150l-178 -1456h-150z" />
    <glyph glyph-name="Eth" unicode="&#xd0;" horiz-adv-x="1531" 
d="M53 711l13 107h507l-13 -107h-507zM288 124h265c204.667 0 366 51 484 153s189 249.333 213 442c5.33301 44.667 8 84.667 8 120c0 328.667 -198.667 493 -596 493h-225zM124 0l177.999 1456h366c244 0 429.5 -50.333 556.5 -151s190.5 -251.667 190.5 -453
c0 -41.333 -3 -85.666 -9 -132.999c-28 -232.667 -116.667 -410.667 -266 -534s-351.666 -185 -606.999 -185h-409z" />
    <glyph glyph-name="Ntilde" unicode="&#xd1;" horiz-adv-x="1585" 
d="M792 1733c-41.333 0 -67.002 -28.999 -77.002 -86.999h-90c7.33301 59.333 26.333 105.666 57 138.999s69.334 50 116.001 50c36 0 87.5 -16.5 154.5 -49.5s111.5 -49.5 133.5 -49.5c18.667 0 32.334 7.16699 41.001 21.5s15.334 38.166 20.001 71.499h94
c-7.33301 -59.333 -24.333 -106.666 -51 -141.999s-63.334 -53 -110.001 -53c-32.667 0 -83.167 16.5 -151.5 49.5s-113.833 49.5 -136.5 49.5zM123.998 0.000976562l178 1456h155l611 -1073l95 -181l154 1254h144l-178 -1456h-154l-614 1061l-96 184l-152 -1245h-143z" />
    <glyph glyph-name="Ograve" unicode="&#xd2;" horiz-adv-x="1599" 
d="M854 1604l-288 320h187l205 -320h-104zM724 102c167.333 0 304.501 56.001 411.501 168.001s172.167 264 195.5 456c5.33301 46 8 87.333 8 124c0 157.333 -39.833 281.333 -119.5 372s-193.167 136 -340.5 136c-166.667 0 -304.834 -57.5 -414.501 -172.5
s-176.167 -268.167 -199.5 -459.5c-5.33301 -44.667 -8 -84.667 -8 -120c0 -156.667 40.667 -279.834 122 -369.501s196.333 -134.5 345 -134.5zM710.001 -20.999c-191.333 0 -340.834 54.999 -448.501 164.999s-161.5 260.333 -161.5 451c0 47.333 2.66699 91 8 131
c28 228.667 112.667 411.667 254 549s319 206 533 206c188 0 335.5 -56.167 442.5 -168.5s160.5 -264.166 160.5 -455.499c0 -47.333 -2.66699 -91 -8 -131c-27.333 -228 -111.166 -409.5 -251.499 -544.5s-316.5 -202.5 -528.5 -202.5z" />
    <glyph glyph-name="Oacute" unicode="&#xd3;" horiz-adv-x="1599" 
d="M862 1603l255 321h185l-335 -321h-105zM724 102c167.333 0 304.501 56.001 411.501 168.001s172.167 264 195.5 456c5.33301 46 8 87.333 8 124c0 157.333 -39.833 281.333 -119.5 372s-193.167 136 -340.5 136c-166.667 0 -304.834 -57.5 -414.501 -172.5
s-176.167 -268.167 -199.5 -459.5c-5.33301 -44.667 -8 -84.667 -8 -120c0 -156.667 40.667 -279.834 122 -369.501s196.333 -134.5 345 -134.5zM710.001 -20.999c-191.333 0 -340.834 54.999 -448.501 164.999s-161.5 260.333 -161.5 451c0 47.333 2.66699 91 8 131
c28 228.667 112.667 411.667 254 549s319 206 533 206c188 0 335.5 -56.167 442.5 -168.5s160.5 -264.166 160.5 -455.499c0 -47.333 -2.66699 -91 -8 -131c-27.333 -228 -111.166 -409.5 -251.499 -544.5s-316.5 -202.5 -528.5 -202.5z" />
    <glyph glyph-name="Ocircumflex" unicode="&#xd4;" horiz-adv-x="1599" 
d="M640 1615l258 309h110l180 -309h-106l-146 201l-196 -201h-100zM724 102c167.333 0 304.501 56.001 411.501 168.001s172.167 264 195.5 456c5.33301 46 8 87.333 8 124c0 157.333 -39.833 281.333 -119.5 372s-193.167 136 -340.5 136
c-166.667 0 -304.834 -57.5 -414.501 -172.5s-176.167 -268.167 -199.5 -459.5c-5.33301 -44.667 -8 -84.667 -8 -120c0 -156.667 40.667 -279.834 122 -369.501s196.333 -134.5 345 -134.5zM710.001 -20.999c-191.333 0 -340.834 54.999 -448.501 164.999
s-161.5 260.333 -161.5 451c0 47.333 2.66699 91 8 131c28 228.667 112.667 411.667 254 549s319 206 533 206c188 0 335.5 -56.167 442.5 -168.5s160.5 -264.166 160.5 -455.499c0 -47.333 -2.66699 -91 -8 -131c-27.333 -228 -111.166 -409.5 -251.499 -544.5
s-316.5 -202.5 -528.5 -202.5z" />
    <glyph glyph-name="Otilde" unicode="&#xd5;" horiz-adv-x="1599" 
d="M780 1733c-41.333 0 -67.002 -28.999 -77.002 -86.999h-90c7.33301 59.333 26.333 105.666 57 138.999s69.334 50 116.001 50c36 0 87.5 -16.5 154.5 -49.5s111.5 -49.5 133.5 -49.5c18.667 0 32.334 7.16699 41.001 21.5s15.334 38.166 20.001 71.499h94
c-7.33301 -59.333 -24.333 -106.666 -51 -141.999s-63.334 -53 -110.001 -53c-32.667 0 -83.167 16.5 -151.5 49.5s-113.833 49.5 -136.5 49.5zM723.998 102.001c167.333 0 304.501 56.001 411.501 168.001s172.167 264 195.5 456c5.33301 46 8 87.333 8 124
c0 157.333 -39.833 281.333 -119.5 372s-193.167 136 -340.5 136c-166.667 0 -304.834 -57.5 -414.501 -172.5s-176.167 -268.167 -199.5 -459.5c-5.33301 -44.667 -8 -84.667 -8 -120c0 -156.667 40.667 -279.834 122 -369.501s196.333 -134.5 345 -134.5zM709.999 -20.998
c-191.333 0 -340.834 54.999 -448.501 164.999s-161.5 260.333 -161.5 451c0 47.333 2.66699 91 8 131c28 228.667 112.667 411.667 254 549s319 206 533 206c188 0 335.5 -56.167 442.5 -168.5s160.5 -264.166 160.5 -455.499c0 -47.333 -2.66699 -91 -8 -131
c-27.333 -228 -111.166 -409.5 -251.499 -544.5s-316.5 -202.5 -528.5 -202.5z" />
    <glyph glyph-name="Odieresis" unicode="&#xd6;" horiz-adv-x="1599" 
d="M655 1626l19 148h142l-19 -148h-142zM1025 1626l18 148h143l-19 -148h-142zM724 102c167.333 0 304.501 56.001 411.501 168.001s172.167 264 195.5 456c5.33301 46 8 87.333 8 124c0 157.333 -39.833 281.333 -119.5 372s-193.167 136 -340.5 136
c-166.667 0 -304.834 -57.5 -414.501 -172.5s-176.167 -268.167 -199.5 -459.5c-5.33301 -44.667 -8 -84.667 -8 -120c0 -156.667 40.667 -279.834 122 -369.501s196.333 -134.5 345 -134.5zM710.001 -20.999c-191.333 0 -340.834 54.999 -448.501 164.999
s-161.5 260.333 -161.5 451c0 47.333 2.66699 91 8 131c28 228.667 112.667 411.667 254 549s319 206 533 206c188 0 335.5 -56.167 442.5 -168.5s160.5 -264.166 160.5 -455.499c0 -47.333 -2.66699 -91 -8 -131c-27.333 -228 -111.166 -409.5 -251.499 -544.5
s-316.5 -202.5 -528.5 -202.5z" />
    <glyph glyph-name="multiply" unicode="&#xd7;" horiz-adv-x="1204" 
d="M254 162l-77 90l341 304l-266 303l100 90l266 -304l340 304l79 -92l-342 -301l267 -302l-101 -92l-265 302z" />
    <glyph glyph-name="Oslash" unicode="&#xd8;" horiz-adv-x="1599" 
d="M415 203l723 1087c-71.333 45.333 -157.666 68 -258.999 68c-166.667 0 -304.834 -57.5 -414.501 -172.5s-176.167 -268.167 -199.5 -459.5c-5.33301 -44.667 -8 -84.667 -8 -120c0 -180 52.667 -314.333 158 -403zM724 102c167.333 0 304.5 56 411.5 168
s172.167 264 195.5 456c5.33301 46 8 87.333 8 124c0 170 -45.333 299.667 -136 389l-719 -1083c68.667 -36 148.667 -54 240 -54zM285 -143l-73.002 41.001l123 184c-76 52 -134.167 121.667 -174.5 209s-60.5 188.666 -60.5 303.999c0 47.333 2.66699 91 8 131
c28 228.667 112.667 411.667 254 549s319 206 533 206c122.667 0 229.334 -25 320.001 -75l122 183l71 -41l-124 -187c69.333 -54 122.333 -124 159 -210s55 -184 55 -294c0 -47.333 -2.66699 -91 -8 -131c-27.333 -228 -111.166 -409.5 -251.499 -544.5
s-316.5 -202.5 -528.5 -202.5c-114 0 -215 20.667 -303 62z" />
    <glyph glyph-name="Ugrave" unicode="&#xd9;" horiz-adv-x="1488" 
d="M800 1604l-288 320h187l205 -320h-104zM647 -21c-171.333 0 -298 38.5 -380 115.5s-123 187.167 -123 330.5c0 38 2.33301 75.333 7 112l113 919h149l-113 -925c-4 -32 -6 -62.333 -6 -91c0 -225.333 123.333 -338 370 -338c136 0 243.833 35.667 323.5 107
s128.167 178 145.5 320l114 927h149l-113 -918c-22.667 -178.667 -86.667 -316.5 -192 -413.5s-253.333 -145.5 -444 -145.5z" />
    <glyph glyph-name="Uacute" unicode="&#xda;" horiz-adv-x="1488" 
d="M808 1603l255 321h185l-335 -321h-105zM647 -21c-171.333 0 -298 38.5 -380 115.5s-123 187.167 -123 330.5c0 38 2.33301 75.333 7 112l113 919h149l-113 -925c-4 -32 -6 -62.333 -6 -91c0 -225.333 123.333 -338 370 -338c136 0 243.833 35.667 323.5 107
s128.167 178 145.5 320l114 927h149l-113 -918c-22.667 -178.667 -86.667 -316.5 -192 -413.5s-253.333 -145.5 -444 -145.5z" />
    <glyph glyph-name="Ucircumflex" unicode="&#xdb;" horiz-adv-x="1488" 
d="M587 1615l258 309h110l180 -309h-106l-146 201l-196 -201h-100zM647 -21c-171.333 0 -298 38.5 -380 115.5s-123 187.167 -123 330.5c0 38 2.33301 75.333 7 112l113 919h149l-113 -925c-4 -32 -6 -62.333 -6 -91c0 -225.333 123.333 -338 370 -338
c136 0 243.833 35.667 323.5 107s128.167 178 145.5 320l114 927h149l-113 -918c-22.667 -178.667 -86.667 -316.5 -192 -413.5s-253.333 -145.5 -444 -145.5z" />
    <glyph glyph-name="Udieresis" unicode="&#xdc;" horiz-adv-x="1488" 
d="M602 1626l19 148h142l-19 -148h-142zM972 1626l18 148h143l-19 -148h-142zM647 -21c-171.333 0 -298 38.5 -380 115.5s-123 187.167 -123 330.5c0 38 2.33301 75.333 7 112l113 919h149l-113 -925c-4 -32 -6 -62.333 -6 -91c0 -225.333 123.333 -338 370 -338
c136 0 243.833 35.667 323.5 107s128.167 178 145.5 320l114 927h149l-113 -918c-22.667 -178.667 -86.667 -316.5 -192 -413.5s-253.333 -145.5 -444 -145.5z" />
    <glyph glyph-name="Yacute" unicode="&#xdd;" horiz-adv-x="1237" 
d="M686 1603l255 321h185l-335 -321h-105zM452 0l71 583l-384 873h161l317 -743l504 743h159l-606 -870l-72 -586h-150z" />
    <glyph glyph-name="Thorn" unicode="&#xde;" horiz-adv-x="1267" 
d="M597 352l-285.002 -0.000976562l-43 -352h-151l178 1456h151l-30 -245h223c67.333 0 127.5 -3 180.5 -9s104.333 -16.833 154 -32.5s90.834 -36.667 123.501 -63s58.834 -60.666 78.501 -102.999s29.5 -92.166 29.5 -149.499c0 -86.667 -15.667 -162.834 -47 -228.501
s-75 -118 -131 -157s-120 -68.167 -192 -87.5s-151.667 -29 -239 -29zM1043 831.999c0 38.667 -6.33203 72.501 -18.999 101.501s-30.167 52.833 -52.5 71.5s-50.833 33.667 -85.5 45s-71.667 19.166 -111 23.499s-84.666 6.5 -135.999 6.5h-237l-74 -596h282
c85.333 0 159.666 11.667 222.999 35s114.166 61.5 152.499 114.5s57.5 119.167 57.5 198.5z" />
    <glyph glyph-name="germandbls" unicode="&#xdf;" horiz-adv-x="1246" 
d="M967 382c0 88 -33.1709 162.334 -99.5039 223.001s-172.166 118.334 -317.499 173.001l14 112c67.333 17.333 123.333 36.166 168 56.499s79.5 43.5 104.5 69.5s43 52.333 54 79s18.833 58.667 23.5 96c1.33301 12 2 21 2 27c0 56.667 -21.167 101.5 -63.5 134.5
s-100.166 49.5 -173.499 49.5c-90 0 -162.5 -31 -217.5 -93s-89.5 -150 -103.5 -264l-128 -1045h-140l129 1044c19.333 154 70 271.5 152 352.5s190 121.5 324 121.5c112.667 0 201.334 -25.5 266.001 -76.5s97 -119.833 97 -206.5c0 -18 -0.666992 -31.667 -2 -41
c-11.333 -90 -42.5 -160.667 -93.5 -212s-129.167 -93.666 -234.5 -126.999c-9.33301 -5.33301 -27.333 -11.333 -54 -18c295.333 -84 443 -231.667 443 -443c0 -84.667 -19.833 -159.334 -59.5 -224.001s-92.667 -113.5 -159 -146.5s-140.166 -49.5 -221.499 -49.5
c-56 0 -111.833 6.66699 -167.5 20s-101.5 27.666 -137.5 42.999l33 114c97.333 -40.667 185.333 -61 264 -61c90 0 162.167 25.5 216.5 76.5s81.5 122.833 81.5 215.5z" />
    <glyph glyph-name="agrave" unicode="&#xe0;" horiz-adv-x="1263" 
d="M616 1174l-288 320h187l205 -320h-104zM651 1052c79.333 0 147.667 -19.332 205 -57.999s97 -88.667 119 -150l23 182h140l-126 -1026h-141l24 195c-39.333 -66.667 -91.666 -119.334 -156.999 -158.001s-139 -58 -221 -58c-134 0 -238.167 40.833 -312.5 122.5
s-111.5 189.5 -111.5 323.5c0 182 52.667 332 158 450s238.666 177 399.999 177zM237.001 439.001c0 -105.333 26.667 -189 80 -251s130 -93 230 -93c108.667 0 197.167 38.333 265.5 115s110.5 180.667 126.5 312c3.33301 31.333 5 58 5 80c0 102.667 -25.667 184 -77 244
s-124 90 -218 90c-123.333 0 -222.833 -46.333 -298.5 -139s-113.5 -212 -113.5 -358z" />
    <glyph glyph-name="aacute" unicode="&#xe1;" horiz-adv-x="1263" 
d="M624 1173l255 321h185l-335 -321h-105zM651 1052c79.333 0 147.667 -19.332 205 -57.999s97 -88.667 119 -150l23 182h140l-126 -1026h-141l24 195c-39.333 -66.667 -91.666 -119.334 -156.999 -158.001s-139 -58 -221 -58c-134 0 -238.167 40.833 -312.5 122.5
s-111.5 189.5 -111.5 323.5c0 182 52.667 332 158 450s238.666 177 399.999 177zM237.001 439.001c0 -105.333 26.667 -189 80 -251s130 -93 230 -93c108.667 0 197.167 38.333 265.5 115s110.5 180.667 126.5 312c3.33301 31.333 5 58 5 80c0 102.667 -25.667 184 -77 244
s-124 90 -218 90c-123.333 0 -222.833 -46.333 -298.5 -139s-113.5 -212 -113.5 -358z" />
    <glyph glyph-name="acircumflex" unicode="&#xe2;" horiz-adv-x="1263" 
d="M402 1185l258 309h110l180 -309h-106l-146 201l-196 -201h-100zM651 1052c79.333 0 147.667 -19.332 205 -57.999s97 -88.667 119 -150l23 182h140l-126 -1026h-141l24 195c-39.333 -66.667 -91.666 -119.334 -156.999 -158.001s-139 -58 -221 -58
c-134 0 -238.167 40.833 -312.5 122.5s-111.5 189.5 -111.5 323.5c0 182 52.667 332 158 450s238.666 177 399.999 177zM237.001 439.001c0 -105.333 26.667 -189 80 -251s130 -93 230 -93c108.667 0 197.167 38.333 265.5 115s110.5 180.667 126.5 312
c3.33301 31.333 5 58 5 80c0 102.667 -25.667 184 -77 244s-124 90 -218 90c-123.333 0 -222.833 -46.333 -298.5 -139s-113.5 -212 -113.5 -358z" />
    <glyph glyph-name="atilde" unicode="&#xe3;" horiz-adv-x="1263" 
d="M542 1303c-41.333 0 -67.002 -28.999 -77.002 -86.999h-90c7.33301 59.333 26.333 105.666 57 138.999s69.334 50 116.001 50c36 0 87.5 -16.5 154.5 -49.5s111.5 -49.5 133.5 -49.5c18.667 0 32.334 7.16699 41.001 21.5s15.334 38.166 20.001 71.499h94
c-7.33301 -59.333 -24.333 -106.666 -51 -141.999s-63.334 -53 -110.001 -53c-32.667 0 -83.167 16.5 -151.5 49.5s-113.833 49.5 -136.5 49.5zM650.998 1052c79.333 0 147.667 -19.332 205 -57.999s97 -88.667 119 -150l23 182h140l-126 -1026h-141l24 195
c-39.333 -66.667 -91.666 -119.334 -156.999 -158.001s-139 -58 -221 -58c-134 0 -238.167 40.833 -312.5 122.5s-111.5 189.5 -111.5 323.5c0 182 52.667 332 158 450s238.666 177 399.999 177zM236.999 439.002c0 -105.333 26.667 -189 80 -251s130 -93 230 -93
c108.667 0 197.167 38.333 265.5 115s110.5 180.667 126.5 312c3.33301 31.333 5 58 5 80c0 102.667 -25.667 184 -77 244s-124 90 -218 90c-123.333 0 -222.833 -46.333 -298.5 -139s-113.5 -212 -113.5 -358z" />
    <glyph glyph-name="adieresis" unicode="&#xe4;" horiz-adv-x="1263" 
d="M417 1196l19 148h142l-19 -148h-142zM787 1196l18 148h143l-19 -148h-142zM651 1052c79.333 0 147.667 -19.332 205 -57.999s97 -88.667 119 -150l23 182h140l-126 -1026h-141l24 195c-39.333 -66.667 -91.666 -119.334 -156.999 -158.001s-139 -58 -221 -58
c-134 0 -238.167 40.833 -312.5 122.5s-111.5 189.5 -111.5 323.5c0 182 52.667 332 158 450s238.666 177 399.999 177zM237.001 439.001c0 -105.333 26.667 -189 80 -251s130 -93 230 -93c108.667 0 197.167 38.333 265.5 115s110.5 180.667 126.5 312
c3.33301 31.333 5 58 5 80c0 102.667 -25.667 184 -77 244s-124 90 -218 90c-123.333 0 -222.833 -46.333 -298.5 -139s-113.5 -212 -113.5 -358z" />
    <glyph glyph-name="aring" unicode="&#xe5;" horiz-adv-x="1263" 
d="M795 1332c0 28 -8.66699 51.167 -26 69.5s-40 27.5 -68 27.5c-31.333 0 -59.166 -12 -83.499 -36s-36.5 -53.667 -36.5 -89c0 -28 8.66699 -51.167 26 -69.5s39.666 -27.5 66.999 -27.5c32 0 60.167 12 84.5 36s36.5 53.667 36.5 89zM711 1500
c48.667 0 88.667 -14.834 120 -44.501s47 -67.5 47 -113.5c0 -59.333 -21 -108.5 -63 -147.5s-91.667 -58.5 -149 -58.5c-49.333 0 -89.5 14.833 -120.5 44.5s-46.5 67.834 -46.5 114.501c0 58.667 21.167 107.5 63.5 146.5s91.833 58.5 148.5 58.5zM651 1052
c79.333 0 147.667 -19.332 205 -57.999s97 -88.667 119 -150l23 182h140l-126 -1026h-141l24 195c-39.333 -66.667 -91.666 -119.334 -156.999 -158.001s-139 -58 -221 -58c-134 0 -238.167 40.833 -312.5 122.5s-111.5 189.5 -111.5 323.5c0 182 52.667 332 158 450
s238.666 177 399.999 177zM237.001 439c0 -105.333 26.667 -189 80 -251s130 -93 230 -93c108.667 0 197.167 38.333 265.5 115s110.5 180.667 126.5 312c3.33301 31.333 5 58 5 80c0 102.667 -25.667 184 -77 244s-124 90 -218 90c-123.333 0 -222.833 -46.333 -298.5 -139
s-113.5 -212 -113.5 -358z" />
    <glyph glyph-name="ae" unicode="&#xe6;" horiz-adv-x="1801" 
d="M1349 1052c116.667 0 207.334 -36.667 272.001 -110s97 -176 97 -308c0 -40 -3.66699 -85.667 -11 -137h-739l-4 -31c-2 -20.667 -3 -41.334 -3 -62.001c0 -93.333 23.833 -168.166 71.5 -224.499s121.167 -84.5 220.5 -84.5c56.667 0 112.834 9.5 168.501 28.5
s97.167 37.833 124.5 56.5l41 28l33 -102c-4 -3.33301 -9.83301 -7.83301 -17.5 -13.5s-24.5 -15.834 -50.5 -30.501s-53 -27.667 -81 -39s-63.5 -21.5 -106.5 -30.5s-86.5 -13.5 -130.5 -13.5c-96.667 0 -177.834 24.667 -243.501 74s-109.167 116 -130.5 200
c-38 -78 -96.667 -143.333 -176 -196s-173 -79 -281 -79c-103.333 0 -186 23.333 -248 70s-93 111 -93 193c0 16.667 0.666992 29.667 2 39c6.66699 54 21.334 100 44.001 138s50.667 68.5 84 91.5s76.833 41 130.5 54s108.5 21.667 164.5 26s124.333 6.5 205 6.5h135
c2.66699 20.667 4 42.667 4 66c0 83.333 -21.333 150 -64 200s-104.334 75 -185.001 75c-111.333 0 -227 -28 -347 -84l-32 105c129.333 62.667 265 94 407 94c86 0 159.167 -22.167 219.5 -66.5s96.5 -105.166 108.5 -182.499c44 76 102.167 136.5 174.5 181.5
s151.166 67.5 236.499 67.5zM425 93c113.333 0 203.5 37.667 270.5 113s107.833 172 122.5 290h-188c-141.333 0 -245 -14.333 -311 -43s-104.333 -84 -115 -166c-1.33301 -12 -2 -21 -2 -27c0 -56.667 20.833 -98.667 62.5 -126s95.167 -41 160.5 -41zM981 595
l615 -0.00195312l1 23c0 2.66699 0.166992 6.83398 0.5 12.501s0.5 9.83398 0.5 12.501c0 38.667 -5 75 -15 109s-25.167 65.167 -45.5 93.5s-47.666 50.833 -81.999 67.5s-73.833 25 -118.5 25c-46.667 0 -90.834 -10 -132.501 -30s-77.334 -46.333 -107.001 -79
s-54.667 -69.167 -75 -109.5s-34.166 -81.833 -41.499 -124.5z" />
    <glyph glyph-name="ccedilla" unicode="&#xe7;" horiz-adv-x="1043" 
d="M334 -384l22 77.002c13.333 -6.66699 34.833 -13 64.5 -19s57.5 -9 83.5 -9c76 0 114 26 114 78c0 21.333 -13.667 38.166 -41 50.499s-66.333 18.5 -117 18.5h-14l57 195h78l-38 -136c132 -10.667 198 -52.667 198 -126c0 -38.667 -12.5 -70.834 -37.5 -96.501
s-54.5 -43.167 -88.5 -52.5s-71.333 -14 -112 -14c-60 0 -116.333 11.333 -169 34zM237 434.002c0 -104.667 29.832 -187.331 89.499 -247.998s141.834 -91 246.501 -91c112 0 216 33.333 312 100l34 -99c-99.333 -78 -221.666 -117 -366.999 -117
c-142.667 0 -255 40.167 -337 120.5s-123 187.833 -123 322.5c0 23.333 1.66699 50.666 5 81.999c20 164.667 84.167 297.167 192.5 397.5s242.166 150.5 401.499 150.5c64.667 0 124.5 -9.83301 179.5 -29.5s98.833 -46.834 131.5 -81.501l-61 -97
c-62.667 61.333 -148.667 92 -258 92c-126.667 0 -232.667 -45.667 -318 -137s-128 -213 -128 -365z" />
    <glyph glyph-name="egrave" unicode="&#xe8;" horiz-adv-x="1149" 
d="M614 1174l-288 320h187l205 -320h-104zM1046 497h-805c-2.66699 -20.667 -4 -43 -4 -67c0 -105.333 30.333 -187.5 91 -246.5s144 -88.5 250 -88.5c128 0 244.667 38 350 114l34 -102c-56 -40.667 -119.167 -72.167 -189.5 -94.5s-141.5 -33.5 -213.5 -33.5
c-145.333 0 -259.5 39.833 -342.5 119.5s-124.5 187.834 -124.5 324.501c0 27.333 2 56 6 86c19.333 162 80.833 293 184.5 393s231.167 150 382.5 150c126 0 223.333 -37 292 -111s103 -174.333 103 -301c0 -50.667 -4.66699 -98.334 -14 -143.001zM259 596
l675 -0.000976562c0.666992 8 1 19.333 1 34c0 96.667 -25 172.167 -75 226.5s-118.667 81.5 -206 81.5c-96.667 0 -180.5 -30.667 -251.5 -92s-118.833 -144.666 -143.5 -249.999z" />
    <glyph glyph-name="eacute" unicode="&#xe9;" horiz-adv-x="1149" 
d="M1046 497h-805c-2.66699 -20.667 -4 -43 -4 -67c0 -105.333 30.333 -187.5 91 -246.5s144 -88.5 250 -88.5c128 0 244.667 38 350 114l34 -102c-56 -40.667 -119.167 -72.167 -189.5 -94.5s-141.5 -33.5 -213.5 -33.5c-145.333 0 -259.5 39.833 -342.5 119.5
s-124.5 187.834 -124.5 324.501c0 27.333 2 56 6 86c19.333 162 80.833 293 184.5 393s231.167 150 382.5 150c126 0 223.333 -37 292 -111s103 -174.333 103 -301c0 -50.667 -4.66699 -98.334 -14 -143.001zM259 596l675 -0.000976562c0.666992 8 1 19.333 1 34
c0 96.667 -25 172.167 -75 226.5s-118.667 81.5 -206 81.5c-96.667 0 -180.5 -30.667 -251.5 -92s-118.833 -144.666 -143.5 -249.999zM622 1173l255 321h185l-335 -321h-105z" />
    <glyph glyph-name="ecircumflex" unicode="&#xea;" horiz-adv-x="1149" 
d="M1046 497h-805c-2.66699 -20.667 -4 -43 -4 -67c0 -105.333 30.333 -187.5 91 -246.5s144 -88.5 250 -88.5c128 0 244.667 38 350 114l34 -102c-56 -40.667 -119.167 -72.167 -189.5 -94.5s-141.5 -33.5 -213.5 -33.5c-145.333 0 -259.5 39.833 -342.5 119.5
s-124.5 187.834 -124.5 324.501c0 27.333 2 56 6 86c19.333 162 80.833 293 184.5 393s231.167 150 382.5 150c126 0 223.333 -37 292 -111s103 -174.333 103 -301c0 -50.667 -4.66699 -98.334 -14 -143.001zM259 596l675 -0.000976562c0.666992 8 1 19.333 1 34
c0 96.667 -25 172.167 -75 226.5s-118.667 81.5 -206 81.5c-96.667 0 -180.5 -30.667 -251.5 -92s-118.833 -144.666 -143.5 -249.999zM400 1185l258 309h110l180 -309h-106l-146 201l-196 -201h-100z" />
    <glyph glyph-name="edieresis" unicode="&#xeb;" horiz-adv-x="1149" 
d="M1046 497h-805c-2.66699 -20.667 -4 -43 -4 -67c0 -105.333 30.333 -187.5 91 -246.5s144 -88.5 250 -88.5c128 0 244.667 38 350 114l34 -102c-56 -40.667 -119.167 -72.167 -189.5 -94.5s-141.5 -33.5 -213.5 -33.5c-145.333 0 -259.5 39.833 -342.5 119.5
s-124.5 187.834 -124.5 324.501c0 27.333 2 56 6 86c19.333 162 80.833 293 184.5 393s231.167 150 382.5 150c126 0 223.333 -37 292 -111s103 -174.333 103 -301c0 -50.667 -4.66699 -98.334 -14 -143.001zM259 596l675 -0.000976562c0.666992 8 1 19.333 1 34
c0 96.667 -25 172.167 -75 226.5s-118.667 81.5 -206 81.5c-96.667 0 -180.5 -30.667 -251.5 -92s-118.833 -144.666 -143.5 -249.999zM415 1196l19 148h142l-19 -148h-142zM785 1196l18 148h143l-19 -148h-142z" />
    <glyph glyph-name="igrave" unicode="&#xec;" horiz-adv-x="503" 
d="M278 1174l-288 320h187l205 -320h-104zM119 0l125 1026h143l-125 -1026h-143z" />
    <glyph glyph-name="iacute" unicode="&#xed;" horiz-adv-x="503" 
d="M119 0l125 1026h143l-125 -1026h-143zM286 1173l255 321h185l-335 -321h-105z" />
    <glyph glyph-name="icircumflex" unicode="&#xee;" horiz-adv-x="503" 
d="M119 0l125 1026h143l-125 -1026h-143zM65 1185l258 309h110l180 -309h-106l-146 201l-196 -201h-100z" />
    <glyph glyph-name="idieresis" unicode="&#xef;" horiz-adv-x="503" 
d="M119 0l125 1026h143l-125 -1026h-143zM80 1196l19 148h142l-19 -148h-142zM450 1196l18 148h143l-19 -148h-142z" />
    <glyph glyph-name="eth" unicode="&#xf0;" horiz-adv-x="1227" 
d="M511 -22c-136.667 0 -244.002 36.335 -322.002 109.002s-117 169 -117 289c0 24 1.33301 46.333 4 67c17.333 137.333 74.833 247.5 172.5 330.5s219.167 124.5 364.5 124.5c89.333 0 164 -19.333 224 -58s102 -85 126 -139c1.33301 21.333 2 37.666 2 48.999
c0 91.333 -18 181.333 -54 270s-91.667 165 -167 229l-207 -133l-47 84l174 112c-86.667 58 -187.667 104 -303 138l70 101c132 -36.667 248.333 -92 349 -166l207 133l48 -83l-178 -115c156.667 -144.667 235 -333.334 235 -566.001c0 -45.333 -3 -92.333 -9 -141
c-25.333 -202.667 -87.166 -359.167 -185.499 -469.5s-227.166 -165.5 -386.499 -165.5zM218.998 387.002c0 -88.667 27.668 -158.834 83.001 -210.501s130.666 -77.5 225.999 -77.5c106 0 193.167 34.5 261.5 103.5s109.5 161.5 123.5 277.5c1.33301 8.66699 2 21 2 37
c0 78.667 -29.5 142.334 -88.5 191.001s-134.167 73 -225.5 73c-111.333 0 -202.833 -35.667 -274.5 -107s-107.5 -167 -107.5 -287z" />
    <glyph glyph-name="ntilde" unicode="&#xf1;" horiz-adv-x="1251" 
d="M624 1303c-41.333 0 -67.002 -28.999 -77.002 -86.999h-90c7.33301 59.333 26.333 105.666 57 138.999s69.334 50 116.001 50c36 0 87.5 -16.5 154.5 -49.5s111.5 -49.5 133.5 -49.5c18.667 0 32.334 7.16699 41.001 21.5s15.334 38.166 20.001 71.499h94
c-7.33301 -59.333 -24.333 -106.666 -51 -141.999s-63.334 -53 -110.001 -53c-32.667 0 -83.167 16.5 -151.5 49.5s-113.833 49.5 -136.5 49.5zM124.998 0.000976562l99.001 810.999c3.33301 28.667 6.5 60.834 9.5 96.501s5.16699 64.5 6.5 86.5l2 32h140l-17 -184
c43.333 67.333 101 119.166 173 155.499s148.667 54.5 230 54.5c216.667 0 325 -114 325 -342c0 -36.667 -2.33301 -73.334 -7 -110.001l-74 -600h-142l75 600c4 34.667 6 66.667 6 96c0 80.667 -16.833 140.834 -50.5 180.501s-87.834 59.5 -162.501 59.5
c-88.667 0 -169.5 -25.667 -242.5 -77s-122.5 -117.666 -148.5 -198.999l-81 -660h-141z" />
    <glyph glyph-name="ograve" unicode="&#xf2;" horiz-adv-x="1244" 
d="M1004 591c0 107.333 -28.332 191.667 -84.999 253s-138.334 92 -245.001 92c-119.333 0 -216.833 -38.333 -292.5 -115s-121.5 -180 -137.5 -310c-3.33301 -28.667 -5 -54 -5 -76c0 -105.333 28.5 -188.333 85.5 -249s139.167 -91 246.5 -91
c131.333 0 236.333 45.667 315 137s118 211 118 359zM557.001 -20.999c-146.667 0 -260.834 40.166 -342.501 120.499s-122.5 188.5 -122.5 324.5c0 28 2 57 6 87c20 163.333 83.167 294.333 189.5 393s240.5 148 402.5 148c145.333 0 258.5 -40.5 339.5 -121.5
s121.5 -190.5 121.5 -328.5c0 -29.333 -2 -59.666 -6 -90.999c-20 -160 -82.667 -288.667 -188 -386s-238.666 -146 -399.999 -146zM650.001 1174l-288 320h187l205 -320h-104z" />
    <glyph glyph-name="oacute" unicode="&#xf3;" horiz-adv-x="1244" 
d="M1004 591c0 107.333 -28.332 191.667 -84.999 253s-138.334 92 -245.001 92c-119.333 0 -216.833 -38.333 -292.5 -115s-121.5 -180 -137.5 -310c-3.33301 -28.667 -5 -54 -5 -76c0 -105.333 28.5 -188.333 85.5 -249s139.167 -91 246.5 -91
c131.333 0 236.333 45.667 315 137s118 211 118 359zM557.001 -20.999c-146.667 0 -260.834 40.166 -342.501 120.499s-122.5 188.5 -122.5 324.5c0 28 2 57 6 87c20 163.333 83.167 294.333 189.5 393s240.5 148 402.5 148c145.333 0 258.5 -40.5 339.5 -121.5
s121.5 -190.5 121.5 -328.5c0 -29.333 -2 -59.666 -6 -90.999c-20 -160 -82.667 -288.667 -188 -386s-238.666 -146 -399.999 -146zM658.001 1173l255 321h185l-335 -321h-105z" />
    <glyph glyph-name="ocircumflex" unicode="&#xf4;" horiz-adv-x="1244" 
d="M1004 591c0 107.333 -28.332 191.667 -84.999 253s-138.334 92 -245.001 92c-119.333 0 -216.833 -38.333 -292.5 -115s-121.5 -180 -137.5 -310c-3.33301 -28.667 -5 -54 -5 -76c0 -105.333 28.5 -188.333 85.5 -249s139.167 -91 246.5 -91
c131.333 0 236.333 45.667 315 137s118 211 118 359zM557.001 -20.999c-146.667 0 -260.834 40.166 -342.501 120.499s-122.5 188.5 -122.5 324.5c0 28 2 57 6 87c20 163.333 83.167 294.333 189.5 393s240.5 148 402.5 148c145.333 0 258.5 -40.5 339.5 -121.5
s121.5 -190.5 121.5 -328.5c0 -29.333 -2 -59.666 -6 -90.999c-20 -160 -82.667 -288.667 -188 -386s-238.666 -146 -399.999 -146zM437.001 1185l258 309h110l180 -309h-106l-146 201l-196 -201h-100z" />
    <glyph glyph-name="otilde" unicode="&#xf5;" horiz-adv-x="1244" 
d="M577 1303c-41.333 0 -67.002 -28.999 -77.002 -86.999h-90c7.33301 59.333 26.333 105.666 57 138.999s69.334 50 116.001 50c36 0 87.5 -16.5 154.5 -49.5s111.5 -49.5 133.5 -49.5c18.667 0 32.334 7.16699 41.001 21.5s15.334 38.166 20.001 71.499h94
c-7.33301 -59.333 -24.333 -106.666 -51 -141.999s-63.334 -53 -110.001 -53c-32.667 0 -83.167 16.5 -151.5 49.5s-113.833 49.5 -136.5 49.5zM1004 591.001c0 107.333 -28.332 191.667 -84.999 253s-138.334 92 -245.001 92c-119.333 0 -216.833 -38.333 -292.5 -115
s-121.5 -180 -137.5 -310c-3.33301 -28.667 -5 -54 -5 -76c0 -105.333 28.5 -188.333 85.5 -249s139.167 -91 246.5 -91c131.333 0 236.333 45.667 315 137s118 211 118 359zM556.999 -20.998c-146.667 0 -260.834 40.166 -342.501 120.499s-122.5 188.5 -122.5 324.5
c0 28 2 57 6 87c20 163.333 83.167 294.333 189.5 393s240.5 148 402.5 148c145.333 0 258.5 -40.5 339.5 -121.5s121.5 -190.5 121.5 -328.5c0 -29.333 -2 -59.666 -6 -90.999c-20 -160 -82.667 -288.667 -188 -386s-238.666 -146 -399.999 -146z" />
    <glyph glyph-name="odieresis" unicode="&#xf6;" horiz-adv-x="1244" 
d="M1004 591c0 107.333 -28.332 191.667 -84.999 253s-138.334 92 -245.001 92c-119.333 0 -216.833 -38.333 -292.5 -115s-121.5 -180 -137.5 -310c-3.33301 -28.667 -5 -54 -5 -76c0 -105.333 28.5 -188.333 85.5 -249s139.167 -91 246.5 -91
c131.333 0 236.333 45.667 315 137s118 211 118 359zM557.001 -20.999c-146.667 0 -260.834 40.166 -342.501 120.499s-122.5 188.5 -122.5 324.5c0 28 2 57 6 87c20 163.333 83.167 294.333 189.5 393s240.5 148 402.5 148c145.333 0 258.5 -40.5 339.5 -121.5
s121.5 -190.5 121.5 -328.5c0 -29.333 -2 -59.666 -6 -90.999c-20 -160 -82.667 -288.667 -188 -386s-238.666 -146 -399.999 -146zM452.001 1196l19 148h142l-19 -148h-142zM822.001 1196l18 148h143l-19 -148h-142z" />
    <glyph glyph-name="divide" unicode="&#xf7;" horiz-adv-x="1146" 
d="M428 30l23 196h196l-24 -196h-195zM135 493l15 124h885l-15 -124h-885zM533 880l24 197h195l-23 -197h-196z" />
    <glyph glyph-name="oslash" unicode="&#xf8;" horiz-adv-x="1242" 
d="M247 -221l-61.002 27.998l127 224c-71.333 35.333 -126 86.833 -164 154.5s-57 147.167 -57 238.5c0 28 2 57 6 87c20 163.333 83.167 294.333 189.5 393s240.5 148 402.5 148c67.333 0 129 -9.33301 185 -28l121 214l64 -30l-120 -212
c68.667 -36.667 121 -88.667 157 -156s54 -146.666 54 -237.999c0 -29.333 -2 -59.666 -6 -90.999c-20 -160 -82.667 -288.667 -188 -386s-238.666 -146 -399.999 -146c-65.333 0 -125.666 8.66699 -180.999 26zM376.998 143.998l435 769c-40.667 15.333 -86.667 23 -138 23
c-119.333 0 -216.833 -38.333 -292.5 -115s-121.5 -180 -137.5 -310c-3.33301 -28.667 -5 -54 -5 -76c0 -136.667 46 -233.667 138 -291zM437.998 114.998c40 -13.333 84.333 -20 133 -20c131.333 0 236.333 45.667 315 137s118 211 118 359
c0 135.333 -43.333 232.333 -130 291z" />
    <glyph glyph-name="ugrave" unicode="&#xf9;" 
d="M505 -24c-114.667 0 -200.667 29.168 -258 87.501s-86 141.5 -86 249.5c0 28.667 2 58.334 6 89.001l76 624h141l-77 -626c-3.33301 -28 -5 -51.333 -5 -70c0 -158.667 77.333 -238 232 -238c52.667 0 102.167 9 148.5 27s84.833 41.167 115.5 69.5
s55.5 59.166 74.5 92.499s30.5 66 34.5 98l80 647h141l-97 -787c-10 -84.667 -17.333 -164.334 -22 -239.001h-138l15 178c-96.667 -134.667 -223.667 -202 -381 -202zM657 1174l-288 320h187l205 -320h-104z" />
    <glyph glyph-name="uacute" unicode="&#xfa;" 
d="M505 -24c-114.667 0 -200.667 29.168 -258 87.501s-86 141.5 -86 249.5c0 28.667 2 58.334 6 89.001l76 624h141l-77 -626c-3.33301 -28 -5 -51.333 -5 -70c0 -158.667 77.333 -238 232 -238c52.667 0 102.167 9 148.5 27s84.833 41.167 115.5 69.5
s55.5 59.166 74.5 92.499s30.5 66 34.5 98l80 647h141l-97 -787c-10 -84.667 -17.333 -164.334 -22 -239.001h-138l15 178c-96.667 -134.667 -223.667 -202 -381 -202zM665 1173l255 321h185l-335 -321h-105z" />
    <glyph glyph-name="ucircumflex" unicode="&#xfb;" 
d="M505 -24c-114.667 0 -200.667 29.168 -258 87.501s-86 141.5 -86 249.5c0 28.667 2 58.334 6 89.001l76 624h141l-77 -626c-3.33301 -28 -5 -51.333 -5 -70c0 -158.667 77.333 -238 232 -238c52.667 0 102.167 9 148.5 27s84.833 41.167 115.5 69.5
s55.5 59.166 74.5 92.499s30.5 66 34.5 98l80 647h141l-97 -787c-10 -84.667 -17.333 -164.334 -22 -239.001h-138l15 178c-96.667 -134.667 -223.667 -202 -381 -202zM444 1185l258 309h110l180 -309h-106l-146 201l-196 -201h-100z" />
    <glyph glyph-name="udieresis" unicode="&#xfc;" 
d="M505 -24c-114.667 0 -200.667 29.168 -258 87.501s-86 141.5 -86 249.5c0 28.667 2 58.334 6 89.001l76 624h141l-77 -626c-3.33301 -28 -5 -51.333 -5 -70c0 -158.667 77.333 -238 232 -238c52.667 0 102.167 9 148.5 27s84.833 41.167 115.5 69.5
s55.5 59.166 74.5 92.499s30.5 66 34.5 98l80 647h141l-97 -787c-10 -84.667 -17.333 -164.334 -22 -239.001h-138l15 178c-96.667 -134.667 -223.667 -202 -381 -202zM458 1196l19 148h142l-19 -148h-142zM828 1196l18 148h143l-19 -148h-142z" />
    <glyph glyph-name="yacute" unicode="&#xfd;" horiz-adv-x="1024" 
d="M94 -425l-42.001 99c164.667 46.667 279.334 135 344.001 265l27 54l-282 1033h149l222 -875l433 875h141l-547 -1079c-46.667 -93.333 -107 -173.333 -181 -240s-162 -110.667 -264 -132zM594.999 1173l255 321h185l-335 -321h-105z" />
    <glyph glyph-name="thorn" unicode="&#xfe;" horiz-adv-x="1242" 
d="M602 -23c-77.333 0 -145.669 16.832 -205.002 50.499s-102 80.834 -128 141.501l-74 -603h-149l233 1888h148l-72 -599c41.333 62.667 95 111 161 145s138.667 51 218 51c132.667 0 234.834 -38.667 306.501 -116s107.5 -183 107.5 -317
c0 -122.667 -22.5 -232.5 -67.5 -329.5s-109.167 -173.167 -192.5 -228.5s-178.666 -83 -285.999 -83zM994.997 603.999c0 102 -24.5 182.333 -73.5 241s-120.167 88 -213.5 88c-62.667 0 -118.5 -11.833 -167.5 -35.5s-89 -56.167 -120 -97.5s-55.5 -86.5 -73.5 -135.5
s-30.667 -102.167 -38 -159.5c-3.33301 -31.333 -5 -58 -5 -80c0 -102 25.5 -182.833 76.5 -242.5s125.167 -89.5 222.5 -89.5c116 0 210.333 48.167 283 144.5s109 218.5 109 366.5z" />
    <glyph glyph-name="ydieresis" unicode="&#xff;" horiz-adv-x="1024" 
d="M94 -425l-42.001 99c164.667 46.667 279.334 135 344.001 265l27 54l-282 1033h149l222 -875l433 875h141l-547 -1079c-46.667 -93.333 -107 -173.333 -181 -240s-162 -110.667 -264 -132zM387.999 1196l19 148h142l-19 -148h-142zM757.999 1196l18 148h143l-19 -148
h-142z" />
    <glyph glyph-name="Amacron" unicode="&#x100;" horiz-adv-x="1364" 
d="M524 1669l12 99h557l-12 -99h-557zM-39 0l725 1456h169l371 -1456h-161l-98 394h-649l-193 -394h-164zM372 509l567 0.000976562c-64.667 285.333 -126.667 552.666 -186 801.999c-84.667 -178.667 -211.667 -446 -381 -802z" />
    <glyph glyph-name="amacron" unicode="&#x101;" horiz-adv-x="1263" 
d="M406 1239l12 99h557l-12 -99h-557zM651 1052c79.333 0 147.667 -19.332 205 -57.999s97 -88.667 119 -150l23 182h140l-126 -1026h-141l24 195c-39.333 -66.667 -91.666 -119.334 -156.999 -158.001s-139 -58 -221 -58c-134 0 -238.167 40.833 -312.5 122.5
s-111.5 189.5 -111.5 323.5c0 182 52.667 332 158 450s238.666 177 399.999 177zM237.001 439.001c0 -105.333 26.667 -189 80 -251s130 -93 230 -93c108.667 0 197.167 38.333 265.5 115s110.5 180.667 126.5 312c3.33301 31.333 5 58 5 80c0 102.667 -25.667 184 -77 244
s-124 90 -218 90c-123.333 0 -222.833 -46.333 -298.5 -139s-113.5 -212 -113.5 -358z" />
    <glyph glyph-name="Abreve" unicode="&#x102;" horiz-adv-x="1364" 
d="M786 1601c-76 0 -131.667 17.332 -167 51.999s-53 89 -53 163v22h104c0 -2.66699 -0.166992 -6 -0.5 -10s-0.5 -7 -0.5 -9c0 -39.333 10.667 -68.166 32 -86.499s53.666 -27.5 96.999 -27.5c45.333 0 80.333 10.833 105 32.5s43.334 55.167 56.001 100.5h101
c-30.667 -158 -122 -237 -274 -237zM-39 -0.000976562l725 1456h169l371 -1456h-161l-98 394h-649l-193 -394h-164zM372 508.999l567 0.000976562c-64.667 285.333 -126.667 552.666 -186 801.999c-84.667 -178.667 -211.667 -446 -381 -802z" />
    <glyph glyph-name="abreve" unicode="&#x103;" horiz-adv-x="1263" 
d="M668 1171c-76 0 -131.667 17.332 -167 51.999s-53 89 -53 163v22h104c0 -2.66699 -0.166992 -6 -0.5 -10s-0.5 -7 -0.5 -9c0 -39.333 10.667 -68.166 32 -86.499s53.666 -27.5 96.999 -27.5c45.333 0 80.333 10.833 105 32.5s43.334 55.167 56.001 100.5h101
c-30.667 -158 -122 -237 -274 -237zM651 1052c79.333 0 147.667 -19.332 205 -57.999s97 -88.667 119 -150l23 182h140l-126 -1026h-141l24 195c-39.333 -66.667 -91.666 -119.334 -156.999 -158.001s-139 -58 -221 -58c-134 0 -238.167 40.833 -312.5 122.5
s-111.5 189.5 -111.5 323.5c0 182 52.667 332 158 450s238.666 177 399.999 177zM237.001 439c0 -105.333 26.667 -189 80 -251s130 -93 230 -93c108.667 0 197.167 38.333 265.5 115s110.5 180.667 126.5 312c3.33301 31.333 5 58 5 80c0 102.667 -25.667 184 -77 244
s-124 90 -218 90c-123.333 0 -222.833 -46.333 -298.5 -139s-113.5 -212 -113.5 -358z" />
    <glyph glyph-name="Aogonek" unicode="&#x104;" horiz-adv-x="1364" 
d="M1099 -436c-60.667 0 -111 15.668 -151 47.001s-60 72.666 -60 123.999c0 9.33301 0.333008 16.666 1 21.999c6 46.667 29.333 92.167 70 136.5s91.334 83.166 152.001 116.499l93 -3c-52 -34 -94.333 -72.667 -127 -116s-51 -81.666 -55 -114.999
c-0.666992 -3.33301 -1 -8.66602 -1 -15.999c0 -28 9.66699 -50.167 29 -66.5s46.666 -24.5 81.999 -24.5c31.333 0 67.333 6 108 18l-13 -104c-44 -12.667 -86.667 -19 -128 -19zM-39 0.000976562l725 1456h169l371 -1456h-161l-98 394h-649l-193 -394h-164zM372 509.001
l567 0.000976562c-64.667 285.333 -126.667 552.666 -186 801.999c-84.667 -178.667 -211.667 -446 -381 -802z" />
    <glyph glyph-name="aogonek" unicode="&#x105;" horiz-adv-x="1263" 
d="M896 -436c-60.667 0 -111 15.668 -151 47.001s-60 72.666 -60 123.999c0 9.33301 0.333008 16.666 1 21.999c6 46.667 29.333 92.167 70 136.5s91.334 83.166 152.001 116.499l93 -3c-52 -34 -94.333 -72.667 -127 -116s-51 -81.666 -55 -114.999
c-0.666992 -3.33301 -1 -8.66602 -1 -15.999c0 -28 9.66699 -50.167 29 -66.5s46.666 -24.5 81.999 -24.5c31.333 0 67.333 6 108 18l-13 -104c-44 -12.667 -86.667 -19 -128 -19zM651 1052c79.333 0 147.667 -19.332 205 -57.999s97 -88.667 119 -150l23 182h140
l-126 -1026h-141l24 195c-39.333 -66.667 -91.666 -119.334 -156.999 -158.001s-139 -58 -221 -58c-134 0 -238.167 40.833 -312.5 122.5s-111.5 189.5 -111.5 323.5c0 182 52.667 332 158 450s238.666 177 399.999 177zM237.001 439.002c0 -105.333 26.667 -189 80 -251
s130 -93 230 -93c108.667 0 197.167 38.333 265.5 115s110.5 180.667 126.5 312c3.33301 31.333 5 58 5 80c0 102.667 -25.667 184 -77 244s-124 90 -218 90c-123.333 0 -222.833 -46.333 -298.5 -139s-113.5 -212 -113.5 -358z" />
    <glyph glyph-name="Cacute" unicode="&#x106;" horiz-adv-x="1394" 
d="M870 1603l255 321h185l-335 -321h-105zM725 -22c-84 0 -163.671 13.833 -239.004 41.5s-141.833 67 -199.5 118s-103.5 115.5 -137.5 193.5s-51 164.333 -51 259c0 35.333 2.66699 75 8 119c18.667 154 65.334 289.667 140.001 407s169.667 207.5 285 270.5
s242.333 94.5 381 94.5c177.333 0 318 -48 422 -144l-72 -99c-95.333 80 -214.333 120 -357 120c-170.667 0 -314.667 -60 -432 -180s-187.666 -276.333 -210.999 -469c-4.66699 -42 -7 -77 -7 -105c0 -155.333 43.833 -277.833 131.5 -367.5s206.834 -134.5 357.501 -134.5
c152.667 0 298.334 44.667 437.001 134l36 -113c-152.667 -96.667 -316.667 -145 -492 -145z" />
    <glyph glyph-name="cacute" unicode="&#x107;" horiz-adv-x="1043" 
d="M237 434c0 -104.667 29.832 -187.331 89.499 -247.998s141.834 -91 246.501 -91c112 0 216 33.333 312 100l34 -99c-99.333 -78 -221.666 -117 -366.999 -117c-142.667 0 -255 40.167 -337 120.5s-123 187.833 -123 322.5c0 23.333 1.66699 50.666 5 81.999
c20 164.667 84.167 297.167 192.5 397.5s242.166 150.5 401.499 150.5c64.667 0 124.5 -9.83301 179.5 -29.5s98.833 -46.834 131.5 -81.501l-61 -97c-62.667 61.333 -148.667 92 -258 92c-126.667 0 -232.667 -45.667 -318 -137s-128 -213 -128 -365zM623.999 1173l255 321
h185l-335 -321h-105z" />
    <glyph glyph-name="Ccircumflex" unicode="&#x108;" horiz-adv-x="1394" 
d="M649 1615l258 309h110l180 -309h-106l-146 201l-196 -201h-100zM725 -22c-84 0 -163.671 13.833 -239.004 41.5s-141.833 67 -199.5 118s-103.5 115.5 -137.5 193.5s-51 164.333 -51 259c0 35.333 2.66699 75 8 119c18.667 154 65.334 289.667 140.001 407
s169.667 207.5 285 270.5s242.333 94.5 381 94.5c177.333 0 318 -48 422 -144l-72 -99c-95.333 80 -214.333 120 -357 120c-170.667 0 -314.667 -60 -432 -180s-187.666 -276.333 -210.999 -469c-4.66699 -42 -7 -77 -7 -105c0 -155.333 43.833 -277.833 131.5 -367.5
s206.834 -134.5 357.501 -134.5c152.667 0 298.334 44.667 437.001 134l36 -113c-152.667 -96.667 -316.667 -145 -492 -145z" />
    <glyph glyph-name="ccircumflex" unicode="&#x109;" horiz-adv-x="1043" 
d="M403 1185l258 309h110l180 -309h-106l-146 201l-196 -201h-100zM237 434c0 -104.667 29.832 -187.331 89.499 -247.998s141.834 -91 246.501 -91c112 0 216 33.333 312 100l34 -99c-99.333 -78 -221.666 -117 -366.999 -117c-142.667 0 -255 40.167 -337 120.5
s-123 187.833 -123 322.5c0 23.333 1.66699 50.666 5 81.999c20 164.667 84.167 297.167 192.5 397.5s242.166 150.5 401.499 150.5c64.667 0 124.5 -9.83301 179.5 -29.5s98.833 -46.834 131.5 -81.501l-61 -97c-62.667 61.333 -148.667 92 -258 92
c-126.667 0 -232.667 -45.667 -318 -137s-128 -213 -128 -365z" />
    <glyph glyph-name="Cdotaccent" unicode="&#x10a;" horiz-adv-x="1394" 
d="M848 1677l19 154h155l-19 -154h-155zM725 -22c-84 0 -163.671 13.833 -239.004 41.5s-141.833 67 -199.5 118s-103.5 115.5 -137.5 193.5s-51 164.333 -51 259c0 35.333 2.66699 75 8 119c18.667 154 65.334 289.667 140.001 407s169.667 207.5 285 270.5
s242.333 94.5 381 94.5c177.333 0 318 -48 422 -144l-72 -99c-95.333 80 -214.333 120 -357 120c-170.667 0 -314.667 -60 -432 -180s-187.666 -276.333 -210.999 -469c-4.66699 -42 -7 -77 -7 -105c0 -155.333 43.833 -277.833 131.5 -367.5s206.834 -134.5 357.501 -134.5
c152.667 0 298.334 44.667 437.001 134l36 -113c-152.667 -96.667 -316.667 -145 -492 -145z" />
    <glyph glyph-name="cdotaccent" unicode="&#x10b;" horiz-adv-x="1043" 
d="M602 1247l19 154h155l-19 -154h-155zM237 434c0 -104.667 29.832 -187.331 89.499 -247.998s141.834 -91 246.501 -91c112 0 216 33.333 312 100l34 -99c-99.333 -78 -221.666 -117 -366.999 -117c-142.667 0 -255 40.167 -337 120.5s-123 187.833 -123 322.5
c0 23.333 1.66699 50.666 5 81.999c20 164.667 84.167 297.167 192.5 397.5s242.166 150.5 401.499 150.5c64.667 0 124.5 -9.83301 179.5 -29.5s98.833 -46.834 131.5 -81.501l-61 -97c-62.667 61.333 -148.667 92 -258 92c-126.667 0 -232.667 -45.667 -318 -137
s-128 -213 -128 -365z" />
    <glyph glyph-name="Ccaron" unicode="&#x10c;" horiz-adv-x="1394" 
d="M851 1615l-191 309h121l146 -226l206 226h128l-266 -309h-144zM725 -22c-84 0 -163.671 13.833 -239.004 41.5s-141.833 67 -199.5 118s-103.5 115.5 -137.5 193.5s-51 164.333 -51 259c0 35.333 2.66699 75 8 119c18.667 154 65.334 289.667 140.001 407
s169.667 207.5 285 270.5s242.333 94.5 381 94.5c177.333 0 318 -48 422 -144l-72 -99c-95.333 80 -214.333 120 -357 120c-170.667 0 -314.667 -60 -432 -180s-187.666 -276.333 -210.999 -469c-4.66699 -42 -7 -77 -7 -105c0 -155.333 43.833 -277.833 131.5 -367.5
s206.834 -134.5 357.501 -134.5c152.667 0 298.334 44.667 437.001 134l36 -113c-152.667 -96.667 -316.667 -145 -492 -145z" />
    <glyph glyph-name="ccaron" unicode="&#x10d;" horiz-adv-x="1043" 
d="M605 1185l-191 309h121l146 -226l206 226h128l-266 -309h-144zM237 434c0 -104.667 29.832 -187.331 89.499 -247.998s141.834 -91 246.501 -91c112 0 216 33.333 312 100l34 -99c-99.333 -78 -221.666 -117 -366.999 -117c-142.667 0 -255 40.167 -337 120.5
s-123 187.833 -123 322.5c0 23.333 1.66699 50.666 5 81.999c20 164.667 84.167 297.167 192.5 397.5s242.166 150.5 401.499 150.5c64.667 0 124.5 -9.83301 179.5 -29.5s98.833 -46.834 131.5 -81.501l-61 -97c-62.667 61.333 -148.667 92 -258 92
c-126.667 0 -232.667 -45.667 -318 -137s-128 -213 -128 -365z" />
    <glyph glyph-name="Dcaron" unicode="&#x10e;" horiz-adv-x="1531" 
d="M758 1615l-191 309h121l146 -226l206 226h128l-266 -309h-144zM288 124h265c204.667 0 366 51 484 153s189 249.333 213 442c5.33301 44.667 8 84.667 8 120c0 328.667 -198.667 493 -596 493h-225zM124 0l177.999 1456h366c244 0 429.5 -50.333 556.5 -151
s190.5 -251.667 190.5 -453c0 -41.333 -3 -85.666 -9 -132.999c-28 -232.667 -116.667 -410.667 -266 -534s-351.666 -185 -606.999 -185h-409z" />
    <glyph glyph-name="dcaron" unicode="&#x10f;" 
d="M608 1052c84.667 0 157.5 -20.499 218.5 -61.499s101.167 -92.833 120.5 -155.5l81 666h142l-152 -1234c-8 -67.333 -16.333 -156.333 -25 -267h-143l21 207c-32.667 -66.667 -84.667 -121.334 -156 -164.001s-152.333 -64 -243 -64c-124.667 0 -223.667 39.5 -297 118.5
s-110 186.5 -110 322.5c0 185.333 51 337 153 455s232 177 390 177zM915 598.001c0 103.333 -27.333 185.5 -82 246.5s-131 91.5 -229 91.5c-118 0 -213.167 -47 -285.5 -141s-108.5 -215.333 -108.5 -364c0 -104 24.833 -186 74.5 -246s121.167 -90 214.5 -90
c122 0 221.833 46.667 299.5 140s116.5 214.333 116.5 363zM1203 1038l162 453h163l-215 -453h-110z" />
    <glyph glyph-name="Dcroat" unicode="&#x110;" horiz-adv-x="1531" 
d="M53 711l13 107h507l-13 -107h-507zM288 124h265c204.667 0 366 51 484 153s189 249.333 213 442c5.33301 44.667 8 84.667 8 120c0 328.667 -198.667 493 -596 493h-225zM124 0l177.999 1456h366c244 0 429.5 -50.333 556.5 -151s190.5 -251.667 190.5 -453
c0 -41.333 -3 -85.666 -9 -132.999c-28 -232.667 -116.667 -410.667 -266 -534s-351.666 -185 -606.999 -185h-409z" />
    <glyph glyph-name="dcroat" unicode="&#x111;" 
d="M768 1207l12 99h557l-12 -99h-557zM608 1052c84.667 0 157.5 -20.499 218.5 -61.499s101.167 -92.833 120.5 -155.5l81 666h142l-152 -1234c-8 -67.333 -16.333 -156.333 -25 -267h-143l21 207c-32.667 -66.667 -84.667 -121.334 -156 -164.001s-152.333 -64 -243 -64
c-124.667 0 -223.667 39.5 -297 118.5s-110 186.5 -110 322.5c0 185.333 51 337 153 455s232 177 390 177zM915 598.001c0 103.333 -27.333 185.5 -82 246.5s-131 91.5 -229 91.5c-118 0 -213.167 -47 -285.5 -141s-108.5 -215.333 -108.5 -364
c0 -104 24.833 -186 74.5 -246s121.167 -90 214.5 -90c122 0 221.833 46.667 299.5 140s116.5 214.333 116.5 363z" />
    <glyph glyph-name="Emacron" unicode="&#x112;" horiz-adv-x="1212" 
d="M484 1669l12 99h557l-12 -99h-557zM124 0l178 1456h841l-15 -124h-691l-64 -520h653l-15 -124h-654l-70 -564h722l-14 -124h-871z" />
    <glyph glyph-name="emacron" unicode="&#x113;" horiz-adv-x="1149" 
d="M404 1239l12 99h557l-12 -99h-557zM1046 497h-805c-2.66699 -20.667 -4 -43 -4 -67c0 -105.333 30.333 -187.5 91 -246.5s144 -88.5 250 -88.5c128 0 244.667 38 350 114l34 -102c-56 -40.667 -119.167 -72.167 -189.5 -94.5s-141.5 -33.5 -213.5 -33.5
c-145.333 0 -259.5 39.833 -342.5 119.5s-124.5 187.834 -124.5 324.501c0 27.333 2 56 6 86c19.333 162 80.833 293 184.5 393s231.167 150 382.5 150c126 0 223.333 -37 292 -111s103 -174.333 103 -301c0 -50.667 -4.66699 -98.334 -14 -143.001zM259 596
l675 -0.000976562c0.666992 8 1 19.333 1 34c0 96.667 -25 172.167 -75 226.5s-118.667 81.5 -206 81.5c-96.667 0 -180.5 -30.667 -251.5 -92s-118.833 -144.666 -143.5 -249.999z" />
    <glyph glyph-name="Ebreve" unicode="&#x114;" horiz-adv-x="1212" 
d="M746 1601c-76 0 -131.667 17.332 -167 51.999s-53 89 -53 163v22h104c0 -2.66699 -0.166992 -6 -0.5 -10s-0.5 -7 -0.5 -9c0 -39.333 10.667 -68.166 32 -86.499s53.666 -27.5 96.999 -27.5c45.333 0 80.333 10.833 105 32.5s43.334 55.167 56.001 100.5h101
c-30.667 -158 -122 -237 -274 -237zM124 -0.000976562l178 1456h841l-15 -124h-691l-64 -520h653l-15 -124h-654l-70 -564h722l-14 -124h-871z" />
    <glyph glyph-name="ebreve" unicode="&#x115;" horiz-adv-x="1149" 
d="M1046 497h-805c-2.66699 -20.667 -4 -43 -4 -67c0 -105.333 30.333 -187.5 91 -246.5s144 -88.5 250 -88.5c128 0 244.667 38 350 114l34 -102c-56 -40.667 -119.167 -72.167 -189.5 -94.5s-141.5 -33.5 -213.5 -33.5c-145.333 0 -259.5 39.833 -342.5 119.5
s-124.5 187.834 -124.5 324.501c0 27.333 2 56 6 86c19.333 162 80.833 293 184.5 393s231.167 150 382.5 150c126 0 223.333 -37 292 -111s103 -174.333 103 -301c0 -50.667 -4.66699 -98.334 -14 -143.001zM259 596l675 -0.000976562c0.666992 8 1 19.333 1 34
c0 96.667 -25 172.167 -75 226.5s-118.667 81.5 -206 81.5c-96.667 0 -180.5 -30.667 -251.5 -92s-118.833 -144.666 -143.5 -249.999zM666 1171c-76 0 -131.667 17.332 -167 51.999s-53 89 -53 163v22h104c0 -2.66699 -0.166992 -6 -0.5 -10s-0.5 -7 -0.5 -9
c0 -39.333 10.667 -68.166 32 -86.499s53.666 -27.5 96.999 -27.5c45.333 0 80.333 10.833 105 32.5s43.334 55.167 56.001 100.5h101c-30.667 -158 -122 -237 -274 -237z" />
    <glyph glyph-name="Edotaccent" unicode="&#x116;" horiz-adv-x="1212" 
d="M679 1677l19 154h155l-19 -154h-155zM124 0l178 1456h841l-15 -124h-691l-64 -520h653l-15 -124h-654l-70 -564h722l-14 -124h-871z" />
    <glyph glyph-name="edotaccent" unicode="&#x117;" horiz-adv-x="1149" 
d="M1046 497h-805c-2.66699 -20.667 -4 -43 -4 -67c0 -105.333 30.333 -187.5 91 -246.5s144 -88.5 250 -88.5c128 0 244.667 38 350 114l34 -102c-56 -40.667 -119.167 -72.167 -189.5 -94.5s-141.5 -33.5 -213.5 -33.5c-145.333 0 -259.5 39.833 -342.5 119.5
s-124.5 187.834 -124.5 324.501c0 27.333 2 56 6 86c19.333 162 80.833 293 184.5 393s231.167 150 382.5 150c126 0 223.333 -37 292 -111s103 -174.333 103 -301c0 -50.667 -4.66699 -98.334 -14 -143.001zM259 596l675 -0.000976562c0.666992 8 1 19.333 1 34
c0 96.667 -25 172.167 -75 226.5s-118.667 81.5 -206 81.5c-96.667 0 -180.5 -30.667 -251.5 -92s-118.833 -144.666 -143.5 -249.999zM599 1247l19 154h155l-19 -154h-155z" />
    <glyph glyph-name="Eogonek" unicode="&#x118;" horiz-adv-x="1212" 
d="M717 -436c-60.667 0 -111 15.668 -151 47.001s-60 72.666 -60 123.999c0 9.33301 0.333008 16.666 1 21.999c6 46.667 29.333 92.167 70 136.5s91.334 83.166 152.001 116.499l93 -3c-52 -34 -94.333 -72.667 -127 -116s-51 -81.666 -55 -114.999
c-0.666992 -3.33301 -1 -8.66602 -1 -15.999c0 -28 9.66699 -50.167 29 -66.5s46.666 -24.5 81.999 -24.5c31.333 0 67.333 6 108 18l-13 -104c-44 -12.667 -86.667 -19 -128 -19zM124 0.000976562l178 1456h841l-15 -124h-691l-64 -520h653l-15 -124h-654l-70 -564h722
l-14 -124h-871z" />
    <glyph glyph-name="eogonek" unicode="&#x119;" horiz-adv-x="1149" 
d="M591 -436c-60.667 0 -111 15.668 -151 47.001s-60 72.666 -60 123.999c0 9.33301 0.333008 16.666 1 21.999c6 46.667 29.333 92.167 70 136.5s91.334 83.166 152.001 116.499l93 -3c-52 -34 -94.333 -72.667 -127 -116s-51 -81.666 -55 -114.999
c-0.666992 -3.33301 -1 -8.66602 -1 -15.999c0 -28 9.66699 -50.167 29 -66.5s46.666 -24.5 81.999 -24.5c31.333 0 67.333 6 108 18l-13 -104c-44 -12.667 -86.667 -19 -128 -19zM1046 497.001h-805c-2.66699 -20.667 -4 -43 -4 -67c0 -105.333 30.333 -187.5 91 -246.5
s144 -88.5 250 -88.5c128 0 244.667 38 350 114l34 -102c-56 -40.667 -119.167 -72.167 -189.5 -94.5s-141.5 -33.5 -213.5 -33.5c-145.333 0 -259.5 39.833 -342.5 119.5s-124.5 187.834 -124.5 324.501c0 27.333 2 56 6 86c19.333 162 80.833 293 184.5 393
s231.167 150 382.5 150c126 0 223.333 -37 292 -111s103 -174.333 103 -301c0 -50.667 -4.66699 -98.334 -14 -143.001zM259 596.001l675 -0.000976562c0.666992 8 1 19.333 1 34c0 96.667 -25 172.167 -75 226.5s-118.667 81.5 -206 81.5
c-96.667 0 -180.5 -30.667 -251.5 -92s-118.833 -144.666 -143.5 -249.999z" />
    <glyph glyph-name="Ecaron" unicode="&#x11a;" horiz-adv-x="1212" 
d="M682 1615l-191 309h121l146 -226l206 226h128l-266 -309h-144zM124 0l178 1456h841l-15 -124h-691l-64 -520h653l-15 -124h-654l-70 -564h722l-14 -124h-871z" />
    <glyph glyph-name="ecaron" unicode="&#x11b;" horiz-adv-x="1149" 
d="M1046 497h-805c-2.66699 -20.667 -4 -43 -4 -67c0 -105.333 30.333 -187.5 91 -246.5s144 -88.5 250 -88.5c128 0 244.667 38 350 114l34 -102c-56 -40.667 -119.167 -72.167 -189.5 -94.5s-141.5 -33.5 -213.5 -33.5c-145.333 0 -259.5 39.833 -342.5 119.5
s-124.5 187.834 -124.5 324.501c0 27.333 2 56 6 86c19.333 162 80.833 293 184.5 393s231.167 150 382.5 150c126 0 223.333 -37 292 -111s103 -174.333 103 -301c0 -50.667 -4.66699 -98.334 -14 -143.001zM259 596l675 -0.000976562c0.666992 8 1 19.333 1 34
c0 96.667 -25 172.167 -75 226.5s-118.667 81.5 -206 81.5c-96.667 0 -180.5 -30.667 -251.5 -92s-118.833 -144.666 -143.5 -249.999zM602 1185l-191 309h121l146 -226l206 226h128l-266 -309h-144z" />
    <glyph glyph-name="Gcircumflex" unicode="&#x11c;" horiz-adv-x="1520" 
d="M683 1615l258 309h110l180 -309h-106l-146 201l-196 -201h-100zM747 -21c-206.667 0 -366.501 54 -479.501 162s-169.5 255.667 -169.5 443c0 36 2.66699 76.333 8 121c14 114 44.833 219.167 92.5 315.5s107.667 178.333 180 246s157 120.334 254 158.001
s200.5 56.5 310.5 56.5c184 0 336 -48.667 456 -146l-75 -105c-116 85.333 -247.333 128 -394 128c-178 0 -328.167 -59.833 -450.5 -179.5s-195.166 -276.167 -218.499 -469.5c-4.66699 -34.667 -7 -70.334 -7 -107.001c0 -154.667 44.333 -276.667 133 -366
s215 -134 379 -134c148 0 272.667 20.333 374 61l57 461h-389l16 125h531l-82 -667c-154 -68.667 -329.333 -103 -526 -103z" />
    <glyph glyph-name="gcircumflex" unicode="&#x11d;" horiz-adv-x="1268" 
d="M472 -431c-129.333 0 -247.666 25.666 -354.999 76.999l36 123c104.667 -55.333 214.667 -83 330 -83c118.667 0 215.334 33.667 290.001 101s120.667 171.666 138 312.999l14 114c-36.667 -66 -89.167 -118.333 -157.5 -157s-145.833 -58 -232.5 -58
c-127.333 0 -228.666 38 -303.999 114s-113 180 -113 312c0 28.667 2 58.667 6 90c20 162 79 292 177 390s221.667 147 371 147c83.333 0 153.5 -19.167 210.5 -57.5s97.167 -88.166 120.5 -149.499l29 181h142c-20.667 -118 -33.334 -195.667 -38.001 -233l-81 -666
c-22.667 -177.333 -84.834 -314.666 -186.501 -411.999s-233.834 -146 -396.501 -146zM971 600.999c0 103.333 -26.333 185.002 -79 245.002s-126.667 90 -222 90c-118 0 -215.167 -46.833 -291.5 -140.5s-114.5 -213.834 -114.5 -360.501
c0 -101.333 25.5 -180.5 76.5 -237.5s122.5 -85.5 214.5 -85.5c124 0 224.333 45.167 301 135.5s115 208.166 115 353.499zM403 1185l258 309h110l180 -309h-106l-146 201l-196 -201h-100z" />
    <glyph glyph-name="Gbreve" unicode="&#x11e;" horiz-adv-x="1520" 
d="M948 1601c-76 0 -131.667 17.332 -167 51.999s-53 89 -53 163v22h104c0 -2.66699 -0.166992 -6 -0.5 -10s-0.5 -7 -0.5 -9c0 -39.333 10.667 -68.166 32 -86.499s53.666 -27.5 96.999 -27.5c45.333 0 80.333 10.833 105 32.5s43.334 55.167 56.001 100.5h101
c-30.667 -158 -122 -237 -274 -237zM747 -21.001c-206.667 0 -366.501 54 -479.501 162s-169.5 255.667 -169.5 443c0 36 2.66699 76.333 8 121c14 114 44.833 219.167 92.5 315.5s107.667 178.333 180 246s157 120.334 254 158.001s200.5 56.5 310.5 56.5
c184 0 336 -48.667 456 -146l-75 -105c-116 85.333 -247.333 128 -394 128c-178 0 -328.167 -59.833 -450.5 -179.5s-195.166 -276.167 -218.499 -469.5c-4.66699 -34.667 -7 -70.334 -7 -107.001c0 -154.667 44.333 -276.667 133 -366s215 -134 379 -134
c148 0 272.667 20.333 374 61l57 461h-389l16 125h531l-82 -667c-154 -68.667 -329.333 -103 -526 -103z" />
    <glyph glyph-name="gbreve" unicode="&#x11f;" horiz-adv-x="1268" 
d="M472 -431c-129.333 0 -247.666 25.666 -354.999 76.999l36 123c104.667 -55.333 214.667 -83 330 -83c118.667 0 215.334 33.667 290.001 101s120.667 171.666 138 312.999l14 114c-36.667 -66 -89.167 -118.333 -157.5 -157s-145.833 -58 -232.5 -58
c-127.333 0 -228.666 38 -303.999 114s-113 180 -113 312c0 28.667 2 58.667 6 90c20 162 79 292 177 390s221.667 147 371 147c83.333 0 153.5 -19.167 210.5 -57.5s97.167 -88.166 120.5 -149.499l29 181h142c-20.667 -118 -33.334 -195.667 -38.001 -233l-81 -666
c-22.667 -177.333 -84.834 -314.666 -186.501 -411.999s-233.834 -146 -396.501 -146zM971 600.999c0 103.333 -26.333 185.002 -79 245.002s-126.667 90 -222 90c-118 0 -215.167 -46.833 -291.5 -140.5s-114.5 -213.834 -114.5 -360.501
c0 -101.333 25.5 -180.5 76.5 -237.5s122.5 -85.5 214.5 -85.5c124 0 224.333 45.167 301 135.5s115 208.166 115 353.499zM669 1171c-76 0 -131.667 17.332 -167 51.999s-53 89 -53 163v22h104c0 -2.66699 -0.166992 -6 -0.5 -10s-0.5 -7 -0.5 -9
c0 -39.333 10.667 -68.166 32 -86.499s53.666 -27.5 96.999 -27.5c45.333 0 80.333 10.833 105 32.5s43.334 55.167 56.001 100.5h101c-30.667 -158 -122 -237 -274 -237z" />
    <glyph glyph-name="Gdotaccent" unicode="&#x120;" horiz-adv-x="1520" 
d="M882 1677l19 154h155l-19 -154h-155zM747 -21c-206.667 0 -366.501 54 -479.501 162s-169.5 255.667 -169.5 443c0 36 2.66699 76.333 8 121c14 114 44.833 219.167 92.5 315.5s107.667 178.333 180 246s157 120.334 254 158.001s200.5 56.5 310.5 56.5
c184 0 336 -48.667 456 -146l-75 -105c-116 85.333 -247.333 128 -394 128c-178 0 -328.167 -59.833 -450.5 -179.5s-195.166 -276.167 -218.499 -469.5c-4.66699 -34.667 -7 -70.334 -7 -107.001c0 -154.667 44.333 -276.667 133 -366s215 -134 379 -134
c148 0 272.667 20.333 374 61l57 461h-389l16 125h531l-82 -667c-154 -68.667 -329.333 -103 -526 -103z" />
    <glyph glyph-name="gdotaccent" unicode="&#x121;" horiz-adv-x="1268" 
d="M472 -431c-129.333 0 -247.666 25.666 -354.999 76.999l36 123c104.667 -55.333 214.667 -83 330 -83c118.667 0 215.334 33.667 290.001 101s120.667 171.666 138 312.999l14 114c-36.667 -66 -89.167 -118.333 -157.5 -157s-145.833 -58 -232.5 -58
c-127.333 0 -228.666 38 -303.999 114s-113 180 -113 312c0 28.667 2 58.667 6 90c20 162 79 292 177 390s221.667 147 371 147c83.333 0 153.5 -19.167 210.5 -57.5s97.167 -88.166 120.5 -149.499l29 181h142c-20.667 -118 -33.334 -195.667 -38.001 -233l-81 -666
c-22.667 -177.333 -84.834 -314.666 -186.501 -411.999s-233.834 -146 -396.501 -146zM971 600.999c0 103.333 -26.333 185.002 -79 245.002s-126.667 90 -222 90c-118 0 -215.167 -46.833 -291.5 -140.5s-114.5 -213.834 -114.5 -360.501
c0 -101.333 25.5 -180.5 76.5 -237.5s122.5 -85.5 214.5 -85.5c124 0 224.333 45.167 301 135.5s115 208.166 115 353.499zM602 1247l19 154h155l-19 -154h-155z" />
    <glyph glyph-name="Gcommaaccent" unicode="&#x122;" horiz-adv-x="1520" 
d="M486 -582l163 453h163l-216 -453h-110zM747 -21c-206.667 0 -366.501 54 -479.501 162s-169.5 255.667 -169.5 443c0 36 2.66699 76.333 8 121c14 114 44.833 219.167 92.5 315.5s107.667 178.333 180 246s157 120.334 254 158.001s200.5 56.5 310.5 56.5
c184 0 336 -48.667 456 -146l-75 -105c-116 85.333 -247.333 128 -394 128c-178 0 -328.167 -59.833 -450.5 -179.5s-195.166 -276.167 -218.499 -469.5c-4.66699 -34.667 -7 -70.334 -7 -107.001c0 -154.667 44.333 -276.667 133 -366s215 -134 379 -134
c148 0 272.667 20.333 374 61l57 461h-389l16 125h531l-82 -667c-154 -68.667 -329.333 -103 -526 -103z" />
    <glyph glyph-name="gcommaaccent" unicode="&#x123;" horiz-adv-x="1268" 
d="M923 1682l-163 -461h-163l215 461h111zM472 -431c-129.333 0 -247.666 25.666 -354.999 76.999l36 123c104.667 -55.333 214.667 -83 330 -83c118.667 0 215.334 33.667 290.001 101s120.667 171.666 138 312.999l14 114c-36.667 -66 -89.167 -118.333 -157.5 -157
s-145.833 -58 -232.5 -58c-127.333 0 -228.666 38 -303.999 114s-113 180 -113 312c0 28.667 2 58.667 6 90c20 162 79 292 177 390s221.667 147 371 147c83.333 0 153.5 -19.167 210.5 -57.5s97.167 -88.166 120.5 -149.499l29 181h142
c-20.667 -118 -33.334 -195.667 -38.001 -233l-81 -666c-22.667 -177.333 -84.834 -314.666 -186.501 -411.999s-233.834 -146 -396.501 -146zM971 600.999c0 103.333 -26.333 185.002 -79 245.002s-126.667 90 -222 90c-118 0 -215.167 -46.833 -291.5 -140.5
s-114.5 -213.834 -114.5 -360.501c0 -101.333 25.5 -180.5 76.5 -237.5s122.5 -85.5 214.5 -85.5c124 0 224.333 45.167 301 135.5s115 208.166 115 353.499z" />
    <glyph glyph-name="Hcircumflex" unicode="&#x124;" horiz-adv-x="1558" 
d="M623 1615l258 309h110l180 -309h-106l-146 201l-196 -201h-100zM124 0l178 1456h152l-80 -650h834l79 650h148l-178 -1456h-149l83 683h-833l-84 -683h-150z" />
    <glyph glyph-name="hcircumflex" unicode="&#x125;" horiz-adv-x="1246" 
d="M89 0l184 1501h141l-80 -655c41.333 62 97.833 111.833 169.5 149.5s149.167 56.5 232.5 56.5c98.667 0 178.167 -28.167 238.5 -84.5s90.5 -137.833 90.5 -244.5c0 -20 -1.66699 -44.333 -5 -73l-80 -650h-142l79 637c4 30 6 57.667 6 83
c0 73.333 -17 127.666 -51 162.999s-88 53 -162 53c-95.333 0 -183.833 -31.667 -265.5 -95s-127.5 -135.333 -137.5 -216l-77 -625h-141zM484 1185l258 309h110l180 -309h-106l-146 201l-196 -201h-100z" />
    <glyph glyph-name="Hbar" unicode="&#x126;" horiz-adv-x="1580" 
d="M174 1192l9 82h1341l-10 -82h-1340zM124 0l178 1456h152l-80 -650h834l79 650h148l-178 -1456h-149l83 683h-833l-84 -683h-150z" />
    <glyph glyph-name="hbar" unicode="&#x127;" horiz-adv-x="1246" 
d="M39 1205l12 99h557l-12 -99h-557zM89 0l184 1501h141l-80 -655c41.333 62 97.833 111.833 169.5 149.5s149.167 56.5 232.5 56.5c98.667 0 178.167 -28.167 238.5 -84.5s90.5 -137.833 90.5 -244.5c0 -20 -1.66699 -44.333 -5 -73l-80 -650h-142l79 637
c4 30 6 57.667 6 83c0 73.333 -17 127.666 -51 162.999s-88 53 -162 53c-95.333 0 -183.833 -31.667 -265.5 -95s-127.5 -135.333 -137.5 -216l-77 -625h-141z" />
    <glyph glyph-name="Itilde" unicode="&#x128;" horiz-adv-x="597" 
d="M288 1733c-41.333 0 -67.002 -28.999 -77.002 -86.999h-90c7.33301 59.333 26.333 105.666 57 138.999s69.334 50 116.001 50c36 0 87.5 -16.5 154.5 -49.5s111.5 -49.5 133.5 -49.5c18.667 0 32.334 7.16699 41.001 21.5s15.334 38.166 20.001 71.499h94
c-7.33301 -59.333 -24.333 -106.666 -51 -141.999s-63.334 -53 -110.001 -53c-32.667 0 -83.167 16.5 -151.5 49.5s-113.833 49.5 -136.5 49.5zM140.998 0.000976562l178 1456h150l-178 -1456h-150z" />
    <glyph glyph-name="itilde" unicode="&#x129;" horiz-adv-x="503" 
d="M205 1303c-41.333 0 -67.002 -28.999 -77.002 -86.999h-90c7.33301 59.333 26.333 105.666 57 138.999s69.334 50 116.001 50c36 0 87.5 -16.5 154.5 -49.5s111.5 -49.5 133.5 -49.5c18.667 0 32.334 7.16699 41.001 21.5s15.334 38.166 20.001 71.499h94
c-7.33301 -59.333 -24.333 -106.666 -51 -141.999s-63.334 -53 -110.001 -53c-32.667 0 -83.167 16.5 -151.5 49.5s-113.833 49.5 -136.5 49.5zM118.998 0.000976562l125 1026h143l-125 -1026h-143z" />
    <glyph glyph-name="Imacron" unicode="&#x12a;" horiz-adv-x="597" 
d="M152 1669l12 99h557l-12 -99h-557zM141 0l178 1456h150l-178 -1456h-150z" />
    <glyph glyph-name="imacron" unicode="&#x12b;" horiz-adv-x="503" 
d="M69 1239l12 99h557l-12 -99h-557zM119 0l125 1026h143l-125 -1026h-143z" />
    <glyph glyph-name="Ibreve" unicode="&#x12c;" horiz-adv-x="597" 
d="M413 1601c-76 0 -131.667 17.332 -167 51.999s-53 89 -53 163v22h104c0 -2.66699 -0.166992 -6 -0.5 -10s-0.5 -7 -0.5 -9c0 -39.333 10.667 -68.166 32 -86.499s53.666 -27.5 96.999 -27.5c45.333 0 80.333 10.833 105 32.5s43.334 55.167 56.001 100.5h101
c-30.667 -158 -122 -237 -274 -237zM141 -0.000976562l178 1456h150l-178 -1456h-150z" />
    <glyph glyph-name="ibreve" unicode="&#x12d;" horiz-adv-x="503" 
d="M119 0l125 1026h143l-125 -1026h-143zM330 1171c-76 0 -131.667 17.332 -167 51.999s-53 89 -53 163v22h104c0 -2.66699 -0.166992 -6 -0.5 -10s-0.5 -7 -0.5 -9c0 -39.333 10.667 -68.166 32 -86.499s53.666 -27.5 96.999 -27.5c45.333 0 80.333 10.833 105 32.5
s43.334 55.167 56.001 100.5h101c-30.667 -158 -122 -237 -274 -237z" />
    <glyph glyph-name="Iogonek" unicode="&#x12e;" horiz-adv-x="597" 
d="M254 -436c-60.667 0 -111 15.668 -151 47.001s-60 72.666 -60 123.999c0 9.33301 0.333008 16.666 1 21.999c6 46.667 29.333 92.167 70 136.5s91.334 83.166 152.001 116.499l93 -3c-52 -34 -94.333 -72.667 -127 -116s-51 -81.666 -55 -114.999
c-0.666992 -3.33301 -1 -8.66602 -1 -15.999c0 -28 9.66699 -50.167 29 -66.5s46.666 -24.5 81.999 -24.5c31.333 0 67.333 6 108 18l-13 -104c-44 -12.667 -86.667 -19 -128 -19zM141 0.000976562l178 1456h150l-178 -1456h-150z" />
    <glyph glyph-name="iogonek" unicode="&#x12f;" horiz-adv-x="503" 
d="M151 -436c-60.667 0 -111 15.668 -151 47.001s-60 72.666 -60 123.999c0 9.33301 0.333008 16.666 1 21.999c6 46.667 29.333 92.167 70 136.5s91.334 83.166 152.001 116.499l93 -3c-52 -34 -94.333 -72.667 -127 -116s-51 -81.666 -55 -114.999
c-0.666992 -3.33301 -1 -8.66602 -1 -15.999c0 -28 9.66699 -50.167 29 -66.5s46.666 -24.5 81.999 -24.5c31.333 0 67.333 6 108 18l-13 -104c-44 -12.667 -86.667 -19 -128 -19zM119 0.000976562l125 1026h143l-125 -1026h-143zM264 1247l19 154h155l-19 -154h-155z" />
    <glyph glyph-name="Idotaccent" unicode="&#x130;" horiz-adv-x="597" 
d="M347 1677l19 154h155l-19 -154h-155zM141 0l178 1456h150l-178 -1456h-150z" />
    <glyph glyph-name="dotlessi" unicode="&#x131;" horiz-adv-x="503" 
d="M119 0l125 1026h143l-125 -1026h-143z" />
    <glyph glyph-name="IJ" unicode="&#x132;" horiz-adv-x="1323" 
d="M649 -319c-45.333 0 -99.333 7.33301 -162 22l29 118c59.333 -11.333 105.333 -17 138 -17c84.667 0 144.334 22.167 179.001 66.5s59.667 129.5 75 255.5l164 1330h150l-164 -1330c-10.667 -86 -26.834 -158 -48.501 -216s-50 -103.667 -85 -137s-74.333 -57 -118 -71
s-96.167 -21 -157.5 -21zM141 0l178 1456h150l-178 -1456h-150z" />
    <glyph glyph-name="ij" unicode="&#x133;" horiz-adv-x="1008" 
d="M791 1312l18 144h140l-18 -144h-140zM435 -434c-46 0 -82.6689 3.3291 -110.002 9.99609l14 127c28.667 -5.33301 53.334 -8 74.001 -8c71.333 0 127 26.333 167 79s67 135.667 81 249l123 1003h144l-113 -917c-4.66699 -38.667 -9.66699 -73.5 -15 -104.5
s-12.833 -66.167 -22.5 -105.5s-20.667 -73.666 -33 -102.999s-28.166 -59.166 -47.499 -89.499s-41 -55.166 -65 -74.499s-52.833 -35.166 -86.5 -47.499s-70.5 -18.5 -110.5 -18.5zM184.998 -0.00390625l126 1026h141l-126 -1026h-141zM347.998 1316l16 140h140l-17 -140
h-139z" />
    <glyph glyph-name="Jcircumflex" unicode="&#x134;" horiz-adv-x="727" 
d="M270 1615l258 309h110l180 -309h-106l-146 201l-196 -201h-100zM52 -319c-45.333 0 -99.333 7.33301 -162 22l29 118c59.333 -11.333 105.333 -17 138 -17c84.667 0 144.334 22.167 179.001 66.5s59.667 129.5 75 255.5l164 1330h150l-164 -1330
c-10.667 -86 -26.834 -158 -48.501 -216s-50 -103.667 -85 -137s-74.333 -57 -118 -71s-96.167 -21 -157.5 -21z" />
    <glyph glyph-name="jcircumflex" unicode="&#x135;" horiz-adv-x="503" 
d="M-70 -434c-46 0 -82.6689 3.3291 -110.002 9.99609l14 127c28.667 -5.33301 53.334 -8 74.001 -8c71.333 0 127 26.333 167 79s67 135.667 81 249l123 1003h144l-113 -917c-4.66699 -38.667 -9.66699 -73.5 -15 -104.5s-12.833 -66.167 -22.5 -105.5
s-20.667 -73.666 -33 -102.999s-28.166 -59.166 -47.499 -89.499s-41 -55.166 -65 -74.499s-52.833 -35.166 -86.5 -47.499s-70.5 -18.5 -110.5 -18.5zM101.998 1185l258 309h110l180 -309h-106l-146 201l-196 -201h-100z" />
    <glyph glyph-name="Kcommaaccent" unicode="&#x136;" horiz-adv-x="1264" 
d="M366 -582l163 453h163l-216 -453h-110zM124 0l178 1456h149l-81 -669l752 669h185l-787 -700l655 -756h-184l-631 719l-87 -719h-149z" />
    <glyph glyph-name="kcommaaccent" unicode="&#x137;" horiz-adv-x="1078" 
d="M239 -582l163 453h163l-216 -453h-110zM93 0l184 1501h141l-114 -933l552 458h191l-598 -486l511 -540h-186l-477 510l-63 -510h-141z" />
    <glyph glyph-name="kgreenlandic" unicode="&#x138;" horiz-adv-x="1082" 
d="M124 0l126 1026h143l-58 -478l553 478h192l-605 -510l518 -516h-187l-479 484l-60 -484h-143z" />
    <glyph glyph-name="Lacute" unicode="&#x139;" horiz-adv-x="1077" 
d="M360 1603l255 321h185l-335 -321h-105zM124 0l178 1456h149l-163 -1332h679l-15 -124h-828z" />
    <glyph glyph-name="lacute" unicode="&#x13a;" horiz-adv-x="517" 
d="M99 0l184 1501h141l-184 -1501h-141zM316 1603l255 321h185l-335 -321h-105z" />
    <glyph glyph-name="Lcommaaccent" unicode="&#x13b;" horiz-adv-x="1077" 
d="M317 -582l163 453h163l-216 -453h-110zM124 0l178 1456h149l-163 -1332h679l-15 -124h-828z" />
    <glyph glyph-name="lcommaaccent" unicode="&#x13c;" horiz-adv-x="517" 
d="M30 -582l163 453h163l-216 -453h-110zM99 0l184 1501h141l-184 -1501h-141z" />
    <glyph glyph-name="Lcaron" unicode="&#x13d;" horiz-adv-x="1077" 
d="M608 1038l162 453h163l-215 -453h-110zM124 0l178 1456h149l-163 -1332h679l-15 -124h-828z" />
    <glyph glyph-name="lcaron" unicode="&#x13e;" horiz-adv-x="517" 
d="M99 0l184 1501h141l-184 -1501h-141zM514 1038l162 453h163l-215 -453h-110z" />
    <glyph glyph-name="Ldot" unicode="&#x13f;" horiz-adv-x="1077" 
d="M546 668l23 180h163l-22 -180h-164zM124 0l178 1456h149l-163 -1332h679l-15 -124h-828z" />
    <glyph glyph-name="ldot" unicode="&#x140;" horiz-adv-x="517" 
d="M484 676l23 180h163l-22 -180h-164zM99 0l184 1501h141l-184 -1501h-141z" />
    <glyph glyph-name="Lslash" unicode="&#x141;" horiz-adv-x="1108" 
d="M31 505l14 117l641 371l-15 -117zM124 0l178 1456h149l-163 -1332h679l-15 -124h-828z" />
    <glyph glyph-name="lslash" unicode="&#x142;" horiz-adv-x="503" 
d="M89 0l83 681l-195 -100l15 118l195 100l87 701h143l-77 -621l202 102l-15 -117l-201 -102l-94 -762h-143z" />
    <glyph glyph-name="Nacute" unicode="&#x143;" horiz-adv-x="1585" 
d="M874 1603l255 321h185l-335 -321h-105zM124 0l178 1456h155l611 -1073l95 -181l154 1254h144l-178 -1456h-154l-614 1061l-96 184l-152 -1245h-143z" />
    <glyph glyph-name="nacute" unicode="&#x144;" horiz-adv-x="1251" 
d="M125 0l99.001 810.999c3.33301 28.667 6.5 60.834 9.5 96.501s5.16699 64.5 6.5 86.5l2 32h140l-17 -184c43.333 67.333 101 119.166 173 155.499s148.667 54.5 230 54.5c216.667 0 325 -114 325 -342c0 -36.667 -2.33301 -73.334 -7 -110.001l-74 -600h-142l75 600
c4 34.667 6 66.667 6 96c0 80.667 -16.833 140.834 -50.5 180.501s-87.834 59.5 -162.501 59.5c-88.667 0 -169.5 -25.667 -242.5 -77s-122.5 -117.666 -148.5 -198.999l-81 -660h-141zM706.001 1173l255 321h185l-335 -321h-105z" />
    <glyph glyph-name="Ncommaaccent" unicode="&#x145;" horiz-adv-x="1585" 
d="M481 -582l163 453h163l-216 -453h-110zM124 0l178 1456h155l611 -1073l95 -181l154 1254h144l-178 -1456h-154l-614 1061l-96 184l-152 -1245h-143z" />
    <glyph glyph-name="ncommaaccent" unicode="&#x146;" horiz-adv-x="1251" 
d="M338 -582l163 453h163l-216 -453h-110zM125 0l99.001 810.999c3.33301 28.667 6.5 60.834 9.5 96.501s5.16699 64.5 6.5 86.5l2 32h140l-17 -184c43.333 67.333 101 119.166 173 155.499s148.667 54.5 230 54.5c216.667 0 325 -114 325 -342
c0 -36.667 -2.33301 -73.334 -7 -110.001l-74 -600h-142l75 600c4 34.667 6 66.667 6 96c0 80.667 -16.833 140.834 -50.5 180.501s-87.834 59.5 -162.501 59.5c-88.667 0 -169.5 -25.667 -242.5 -77s-122.5 -117.666 -148.5 -198.999l-81 -660h-141z" />
    <glyph glyph-name="Ncaron" unicode="&#x147;" horiz-adv-x="1585" 
d="M854 1615l-191 309h121l146 -226l206 226h128l-266 -309h-144zM124 0l178 1456h155l611 -1073l95 -181l154 1254h144l-178 -1456h-154l-614 1061l-96 184l-152 -1245h-143z" />
    <glyph glyph-name="ncaron" unicode="&#x148;" horiz-adv-x="1251" 
d="M125 0l99.001 810.999c3.33301 28.667 6.5 60.834 9.5 96.501s5.16699 64.5 6.5 86.5l2 32h140l-17 -184c43.333 67.333 101 119.166 173 155.499s148.667 54.5 230 54.5c216.667 0 325 -114 325 -342c0 -36.667 -2.33301 -73.334 -7 -110.001l-74 -600h-142l75 600
c4 34.667 6 66.667 6 96c0 80.667 -16.833 140.834 -50.5 180.501s-87.834 59.5 -162.501 59.5c-88.667 0 -169.5 -25.667 -242.5 -77s-122.5 -117.666 -148.5 -198.999l-81 -660h-141zM686.001 1185l-191 309h121l146 -226l206 226h128l-266 -309h-144z" />
    <glyph glyph-name="napostrophe" unicode="&#x149;" horiz-adv-x="1250" 
d="M125 0l99.001 810.999c3.33301 28.667 6.5 60.834 9.5 96.501s5.16699 64.5 6.5 86.5l2 32h140l-17 -184c43.333 67.333 101 119.166 173 155.499s148.667 54.5 230 54.5c216.667 0 325 -114 325 -342c0 -36.667 -2.33301 -73.334 -7 -110.001l-74 -600h-142l75 600
c4 34.667 6 66.667 6 96c0 80.667 -16.833 140.834 -50.5 180.501s-87.834 59.5 -162.501 59.5c-88.667 0 -169.5 -25.667 -242.5 -77s-122.5 -117.666 -148.5 -198.999l-81 -660h-141zM44.001 1213l118 563h169l-186 -563h-101z" />
    <glyph glyph-name="Eng" unicode="&#x14a;" horiz-adv-x="1536" 
d="M1494 1456l-176 -1428c-7.33301 -58 -17.333 -109 -30 -153s-31 -86 -55 -126s-53.333 -72.833 -88 -98.5s-78.334 -45.834 -131.001 -60.501s-113.667 -22 -183 -22c-107.333 0 -237.666 17.667 -390.999 53l30 119c146 -38.667 271 -58 375 -58
c96 0 170.167 21.167 222.5 63.5s83.833 108.5 94.5 198.5l10 84l-630 1063l-85 160l-154 -1251h-144l178 1456h157l608 -1045l96 -177l150 1222h146z" />
    <glyph glyph-name="eng" unicode="&#x14b;" horiz-adv-x="1265" 
d="M566 -399c-106.667 0 -233.664 17.001 -380.997 51.001l27 118c148 -38.667 267.333 -58 358 -58c53.333 0 99.333 6.66699 138 20s70.167 30.666 94.5 51.999s44.666 51 60.999 89s28.666 76.167 36.999 114.5s16.166 86.5 23.499 144.5l47 383
c8.66699 74 13 129.333 13 166c0 82.667 -16.833 145 -50.5 187s-93.167 63 -178.5 63c-52.667 0 -103.5 -10.5 -152.5 -31.5s-89 -46.333 -120 -76s-56.167 -59.167 -75.5 -88.5s-30.333 -54.333 -33 -75l-82 -660h-143l100 811l23 215h143l-12 -141
c98 110 228.667 165 392 165c62.667 0 116.167 -8.66699 160.5 -26s78.833 -42.666 103.5 -75.999s42.334 -70.833 53.001 -112.5s16 -89.834 16 -144.501c0 -41.333 -3.33301 -91 -10 -149l-48 -399c-8.66699 -71.333 -19.5 -133 -32.5 -185s-31.833 -101.5 -56.5 -148.5
s-54.834 -85 -90.501 -114s-80.667 -52 -135 -69s-117.5 -25.5 -189.5 -25.5z" />
    <glyph glyph-name="Omacron" unicode="&#x14c;" horiz-adv-x="1599" 
d="M644 1669l12 99h557l-12 -99h-557zM724 102c167.333 0 304.501 56.001 411.501 168.001s172.167 264 195.5 456c5.33301 46 8 87.333 8 124c0 157.333 -39.833 281.333 -119.5 372s-193.167 136 -340.5 136c-166.667 0 -304.834 -57.5 -414.501 -172.5
s-176.167 -268.167 -199.5 -459.5c-5.33301 -44.667 -8 -84.667 -8 -120c0 -156.667 40.667 -279.834 122 -369.501s196.333 -134.5 345 -134.5zM710.001 -20.999c-191.333 0 -340.834 54.999 -448.501 164.999s-161.5 260.333 -161.5 451c0 47.333 2.66699 91 8 131
c28 228.667 112.667 411.667 254 549s319 206 533 206c188 0 335.5 -56.167 442.5 -168.5s160.5 -264.166 160.5 -455.499c0 -47.333 -2.66699 -91 -8 -131c-27.333 -228 -111.166 -409.5 -251.499 -544.5s-316.5 -202.5 -528.5 -202.5z" />
    <glyph glyph-name="omacron" unicode="&#x14d;" horiz-adv-x="1244" 
d="M1004 591c0 107.333 -28.332 191.667 -84.999 253s-138.334 92 -245.001 92c-119.333 0 -216.833 -38.333 -292.5 -115s-121.5 -180 -137.5 -310c-3.33301 -28.667 -5 -54 -5 -76c0 -105.333 28.5 -188.333 85.5 -249s139.167 -91 246.5 -91
c131.333 0 236.333 45.667 315 137s118 211 118 359zM557.001 -20.999c-146.667 0 -260.834 40.166 -342.501 120.499s-122.5 188.5 -122.5 324.5c0 28 2 57 6 87c20 163.333 83.167 294.333 189.5 393s240.5 148 402.5 148c145.333 0 258.5 -40.5 339.5 -121.5
s121.5 -190.5 121.5 -328.5c0 -29.333 -2 -59.666 -6 -90.999c-20 -160 -82.667 -288.667 -188 -386s-238.666 -146 -399.999 -146zM441.001 1239l12 99h557l-12 -99h-557z" />
    <glyph glyph-name="Obreve" unicode="&#x14e;" horiz-adv-x="1599" 
d="M906 1601c-76 0 -131.667 17.332 -167 51.999s-53 89 -53 163v22h104c0 -2.66699 -0.166992 -6 -0.5 -10s-0.5 -7 -0.5 -9c0 -39.333 10.667 -68.166 32 -86.499s53.666 -27.5 96.999 -27.5c45.333 0 80.333 10.833 105 32.5s43.334 55.167 56.001 100.5h101
c-30.667 -158 -122 -237 -274 -237zM724 101.999c167.333 0 304.501 56.001 411.501 168.001s172.167 264 195.5 456c5.33301 46 8 87.333 8 124c0 157.333 -39.833 281.333 -119.5 372s-193.167 136 -340.5 136c-166.667 0 -304.834 -57.5 -414.501 -172.5
s-176.167 -268.167 -199.5 -459.5c-5.33301 -44.667 -8 -84.667 -8 -120c0 -156.667 40.667 -279.834 122 -369.501s196.333 -134.5 345 -134.5zM710.001 -21c-191.333 0 -340.834 54.999 -448.501 164.999s-161.5 260.333 -161.5 451c0 47.333 2.66699 91 8 131
c28 228.667 112.667 411.667 254 549s319 206 533 206c188 0 335.5 -56.167 442.5 -168.5s160.5 -264.166 160.5 -455.499c0 -47.333 -2.66699 -91 -8 -131c-27.333 -228 -111.166 -409.5 -251.499 -544.5s-316.5 -202.5 -528.5 -202.5z" />
    <glyph glyph-name="obreve" unicode="&#x14f;" horiz-adv-x="1244" 
d="M1004 591c0 107.333 -28.332 191.667 -84.999 253s-138.334 92 -245.001 92c-119.333 0 -216.833 -38.333 -292.5 -115s-121.5 -180 -137.5 -310c-3.33301 -28.667 -5 -54 -5 -76c0 -105.333 28.5 -188.333 85.5 -249s139.167 -91 246.5 -91
c131.333 0 236.333 45.667 315 137s118 211 118 359zM557.001 -20.999c-146.667 0 -260.834 40.166 -342.501 120.499s-122.5 188.5 -122.5 324.5c0 28 2 57 6 87c20 163.333 83.167 294.333 189.5 393s240.5 148 402.5 148c145.333 0 258.5 -40.5 339.5 -121.5
s121.5 -190.5 121.5 -328.5c0 -29.333 -2 -59.666 -6 -90.999c-20 -160 -82.667 -288.667 -188 -386s-238.666 -146 -399.999 -146zM702.001 1171c-76 0 -131.667 17.332 -167 51.999s-53 89 -53 163v22h104c0 -2.66699 -0.166992 -6 -0.5 -10s-0.5 -7 -0.5 -9
c0 -39.333 10.667 -68.166 32 -86.499s53.666 -27.5 96.999 -27.5c45.333 0 80.333 10.833 105 32.5s43.334 55.167 56.001 100.5h101c-30.667 -158 -122 -237 -274 -237z" />
    <glyph glyph-name="Ohungarumlaut" unicode="&#x150;" horiz-adv-x="1599" 
d="M704 1597l243 327h149l-290 -327h-102zM997 1597l255 327h161l-312 -327h-104zM724 102c167.333 0 304.501 56.001 411.501 168.001s172.167 264 195.5 456c5.33301 46 8 87.333 8 124c0 157.333 -39.833 281.333 -119.5 372s-193.167 136 -340.5 136
c-166.667 0 -304.834 -57.5 -414.501 -172.5s-176.167 -268.167 -199.5 -459.5c-5.33301 -44.667 -8 -84.667 -8 -120c0 -156.667 40.667 -279.834 122 -369.501s196.333 -134.5 345 -134.5zM710.001 -20.999c-191.333 0 -340.834 54.999 -448.501 164.999
s-161.5 260.333 -161.5 451c0 47.333 2.66699 91 8 131c28 228.667 112.667 411.667 254 549s319 206 533 206c188 0 335.5 -56.167 442.5 -168.5s160.5 -264.166 160.5 -455.499c0 -47.333 -2.66699 -91 -8 -131c-27.333 -228 -111.166 -409.5 -251.499 -544.5
s-316.5 -202.5 -528.5 -202.5z" />
    <glyph glyph-name="ohungarumlaut" unicode="&#x151;" horiz-adv-x="1244" 
d="M1004 591c0 107.333 -28.332 191.667 -84.999 253s-138.334 92 -245.001 92c-119.333 0 -216.833 -38.333 -292.5 -115s-121.5 -180 -137.5 -310c-3.33301 -28.667 -5 -54 -5 -76c0 -105.333 28.5 -188.333 85.5 -249s139.167 -91 246.5 -91
c131.333 0 236.333 45.667 315 137s118 211 118 359zM557.001 -20.999c-146.667 0 -260.834 40.166 -342.501 120.499s-122.5 188.5 -122.5 324.5c0 28 2 57 6 87c20 163.333 83.167 294.333 189.5 393s240.5 148 402.5 148c145.333 0 258.5 -40.5 339.5 -121.5
s121.5 -190.5 121.5 -328.5c0 -29.333 -2 -59.666 -6 -90.999c-20 -160 -82.667 -288.667 -188 -386s-238.666 -146 -399.999 -146zM501.001 1167l243 327h149l-290 -327h-102zM794.001 1167l255 327h161l-312 -327h-104z" />
    <glyph glyph-name="OE" unicode="&#x152;" horiz-adv-x="2043" 
d="M709 -21c-132.667 0 -245.169 26.165 -337.502 78.498s-160.666 124 -204.999 215s-66.5 198.167 -66.5 321.5c0 48.667 2.66699 93.334 8 134.001c13.333 108 42 208.167 86 300.5s100 172 168 239s148.833 119.5 242.5 157.5s194.834 57 303.501 57
c67.333 0 130.833 -10.667 190.5 -32s106.5 -50.666 140.5 -87.999l11 94h795l-16 -132h-643l-63 -512h604l-16 -132h-606l-67 -548h675l-17 -132h-825l15 115c-38 -38 -90.333 -70.167 -157 -96.5s-140 -39.5 -220 -39.5zM1102 245.998l120 979.001
c-30 38 -71.667 69.5 -125 94.5s-117 37.5 -191 37.5c-76 0 -146.833 -11.833 -212.5 -35.5s-122.5 -55.667 -170.5 -96s-90.333 -87.5 -127 -141.5s-65.667 -111 -87 -171s-36 -122.333 -44 -187c-4.66699 -37.333 -7 -76.666 -7 -117.999c0 -72 9 -137.833 27 -197.5
s45.5 -113.334 82.5 -161.001s87.333 -84.667 151 -111s138.167 -39.5 223.5 -39.5c78.667 0 148.667 13.667 210 41s111.333 62.666 150 105.999z" />
    <glyph glyph-name="oe" unicode="&#x153;" horiz-adv-x="1962" 
d="M543 -21c-144 0 -256.498 40.1699 -337.498 120.503s-121.5 188.166 -121.5 323.499c0 32.667 1.66699 61 5 85c20 162.667 83 294 189 394s239.333 150 400 150c96 0 176.5 -22.833 241.5 -68.5s109.833 -108.834 134.5 -189.501
c39.333 81.333 97.5 144.833 174.5 190.5s164.833 68.5 263.5 68.5c121.333 0 215.666 -37.167 282.999 -111.5s101 -175.833 101 -304.5c0 -31.333 -2 -63.333 -6 -96l-7 -52h-775c0 -0.666992 -0.666992 -5.66699 -2 -15s-2 -14.333 -2 -15
c-1.33301 -10.667 -2 -26.667 -2 -48c0 -97.333 28.5 -174.333 85.5 -231s135.833 -85 236.5 -85c63.333 0 125.166 11.5 185.499 34.5s111.5 48.5 153.5 76.5l34 -102c-44.667 -31.333 -102.5 -60 -173.5 -86s-147.167 -39 -228.5 -39c-92.667 0 -175 23 -247 69
s-120 107 -144 183c-40.667 -76.667 -101 -137.834 -181 -183.501s-166.667 -68.5 -260 -68.5zM959.002 598.003c0 104 -25.501 186.333 -76.501 247s-124.167 91 -219.5 91c-113.333 0 -208.166 -39.5 -284.499 -118.5s-122.5 -183.167 -138.5 -312.5
c-2.66699 -22 -4 -46 -4 -72c0 -103.333 28 -185.5 84 -246.5s135.667 -91.5 239 -91.5c119.333 0 215.833 47.333 289.5 142s110.5 215 110.5 361zM1754 647.003c0 87.333 -24.668 157.333 -74.001 210s-116.666 79 -201.999 79c-96 0 -179 -31.833 -249 -95.5
s-112.333 -145.167 -127 -244.5h648c0 4.66699 0.666992 13 2 25s2 20.667 2 26z" />
    <glyph glyph-name="Racute" unicode="&#x154;" horiz-adv-x="1367" 
d="M681 1603l255 321h185l-335 -321h-105zM862 716c27.333 -6.66699 50.998 -15.501 70.998 -26.501s36.667 -23.167 50 -36.5s25.333 -32 36 -56s19.334 -47.167 26.001 -69.5s15 -53.166 25 -92.499l108 -435h-152l-101 418c-12.667 52.667 -24 92.5 -34 119.5
s-24.167 50.833 -42.5 71.5s-40.5 34.334 -66.5 41.001s-61 10 -105 10h-323l-81 -660h-149l178 1456h450c148.667 0 260.834 -23.833 336.501 -71.5s113.5 -127.834 113.5 -240.501c0 -118 -29.333 -214.833 -88 -290.5s-142.667 -121.5 -252 -137.5zM1049 1123
c0 74.667 -22.6689 128.167 -68.002 160.5s-116.666 48.5 -213.999 48.5h-27h-302l-68 -549h313c116.667 0 206.834 27.833 270.501 83.5s95.5 141.167 95.5 256.5z" />
    <glyph glyph-name="racute" unicode="&#x155;" horiz-adv-x="786" 
d="M128 0l95.0029 774.997c4 30.667 7.66699 66.834 11 108.501s5.66602 75.834 6.99902 102.501l2 40h147l-16 -175c34 66.667 78.333 116.334 133 149.001s114.667 49 180 49c36 0 69.667 -3.33301 101 -10l-18 -127c-36.667 8 -71 12 -103 12
c-86.667 0 -159.334 -29.667 -218.001 -89s-95.334 -149.333 -110.001 -270l-70 -565h-141zM531.003 1173l255 321h185l-335 -321h-105z" />
    <glyph glyph-name="Rcommaaccent" unicode="&#x156;" horiz-adv-x="1367" 
d="M366 -582l163 453h163l-216 -453h-110zM862 716c27.333 -6.66699 50.998 -15.501 70.998 -26.501s36.667 -23.167 50 -36.5s25.333 -32 36 -56s19.334 -47.167 26.001 -69.5s15 -53.166 25 -92.499l108 -435h-152l-101 418c-12.667 52.667 -24 92.5 -34 119.5
s-24.167 50.833 -42.5 71.5s-40.5 34.334 -66.5 41.001s-61 10 -105 10h-323l-81 -660h-149l178 1456h450c148.667 0 260.834 -23.833 336.501 -71.5s113.5 -127.834 113.5 -240.501c0 -118 -29.333 -214.833 -88 -290.5s-142.667 -121.5 -252 -137.5zM1049 1123
c0 74.667 -22.6689 128.167 -68.002 160.5s-116.666 48.5 -213.999 48.5h-27h-302l-68 -549h313c116.667 0 206.834 27.833 270.501 83.5s95.5 141.167 95.5 256.5z" />
    <glyph glyph-name="rcommaaccent" unicode="&#x157;" horiz-adv-x="786" 
d="M-12 -582l163 453h163l-216 -453h-110zM128 0l95.0029 774.997c4 30.667 7.66699 66.834 11 108.501s5.66602 75.834 6.99902 102.501l2 40h147l-16 -175c34 66.667 78.333 116.334 133 149.001s114.667 49 180 49c36 0 69.667 -3.33301 101 -10l-18 -127
c-36.667 8 -71 12 -103 12c-86.667 0 -159.334 -29.667 -218.001 -89s-95.334 -149.333 -110.001 -270l-70 -565h-141z" />
    <glyph glyph-name="Rcaron" unicode="&#x158;" horiz-adv-x="1367" 
d="M662 1615l-191 309h121l146 -226l206 226h128l-266 -309h-144zM862 716c27.333 -6.66699 50.998 -15.501 70.998 -26.501s36.667 -23.167 50 -36.5s25.333 -32 36 -56s19.334 -47.167 26.001 -69.5s15 -53.166 25 -92.499l108 -435h-152l-101 418
c-12.667 52.667 -24 92.5 -34 119.5s-24.167 50.833 -42.5 71.5s-40.5 34.334 -66.5 41.001s-61 10 -105 10h-323l-81 -660h-149l178 1456h450c148.667 0 260.834 -23.833 336.501 -71.5s113.5 -127.834 113.5 -240.501c0 -118 -29.333 -214.833 -88 -290.5
s-142.667 -121.5 -252 -137.5zM1049 1123c0 74.667 -22.6689 128.167 -68.002 160.5s-116.666 48.5 -213.999 48.5h-27h-302l-68 -549h313c116.667 0 206.834 27.833 270.501 83.5s95.5 141.167 95.5 256.5z" />
    <glyph glyph-name="rcaron" unicode="&#x159;" horiz-adv-x="786" 
d="M128 0l95.0029 774.997c4 30.667 7.66699 66.834 11 108.501s5.66602 75.834 6.99902 102.501l2 40h147l-16 -175c34 66.667 78.333 116.334 133 149.001s114.667 49 180 49c36 0 69.667 -3.33301 101 -10l-18 -127c-36.667 8 -71 12 -103 12
c-86.667 0 -159.334 -29.667 -218.001 -89s-95.334 -149.333 -110.001 -270l-70 -565h-141zM511.003 1185l-191 309h121l146 -226l206 226h128l-266 -309h-144z" />
    <glyph glyph-name="Sacute" unicode="&#x15a;" horiz-adv-x="1172" 
d="M674 1603l255 321h185l-335 -321h-105zM883 439c0 59.333 -19.333 105.831 -58 139.498s-108.667 65.5 -210 95.5c-4 1.33301 -42.333 12 -115 32c-112 32 -194.5 73.167 -247.5 123.5s-79.5 120.5 -79.5 210.5c0 140.667 47.5 249.334 142.5 326.001
s219.833 115 374.5 115c50.667 0 97.834 -3.83301 141.501 -11.5s78.667 -16.167 105 -25.5s51.666 -21.666 75.999 -36.999s41 -27 50 -35s19.5 -18.333 31.5 -31l-84 -102c-26.667 30.667 -67 58.167 -121 82.5s-121.333 36.5 -202 36.5
c-112.667 0 -200.5 -26.167 -263.5 -78.5s-94.5 -129.166 -94.5 -230.499c0 -55.333 16 -98 48 -128s90.667 -57.667 176 -83c3.33301 -1.33301 22.5 -6.83301 57.5 -16.5s53.5 -14.834 55.5 -15.501c137.333 -38.667 233 -83.834 287 -135.501s81 -120.5 81 -206.5
c0 -153.333 -48.667 -272.5 -146 -357.5s-225 -127.5 -383 -127.5c-61.333 0 -118.666 6.16699 -171.999 18.5s-98 28.5 -134 48.5s-63.833 37.333 -83.5 52s-36.834 29.334 -51.501 44.001l80 106c106 -97.333 230 -146 372 -146c114.667 0 204.5 29.667 269.5 89
s97.5 142 97.5 248z" />
    <glyph glyph-name="sacute" unicode="&#x15b;" horiz-adv-x="957" 
d="M698 295c0 39.333 -13.834 69.832 -41.501 91.499s-75.5 44.167 -143.5 67.5l-141 46c-73.333 25.333 -128.333 55 -165 89s-55 82 -55 144c0 55.333 11 104 33 146s52.167 75.333 90.5 100s81.333 43 129 55s99.834 18 156.501 18c130 0 234.667 -27.667 314 -83
l-54 -102c-78.667 46 -166.667 69 -264 69c-175.333 0 -263 -61.333 -263 -184c0 -34 10.667 -59.833 32 -77.5s61 -36.167 119 -55.5c1.33301 -0.666992 50 -17 146 -49c40.667 -14.667 74.5 -28.667 101.5 -42s52 -29.5 75 -48.5s39.833 -41 50.5 -66s16 -54.167 16 -87.5
c0 -60 -11.5 -113 -34.5 -159s-54 -82.333 -93 -109s-81.667 -46.5 -128 -59.5s-95.5 -19.5 -147.5 -19.5c-142 0 -261.667 40 -359 120l58 107c92 -72.667 194.333 -109 307 -109c32.667 0 63 2.83301 91 8.5s55.5 15.334 82.5 29.001s48.333 34.167 64 61.5
s23.5 60.333 23.5 99zM509.999 1173l255 321h185l-335 -321h-105z" />
    <glyph glyph-name="Scircumflex" unicode="&#x15c;" horiz-adv-x="1172" 
d="M453 1615l258 309h110l180 -309h-106l-146 201l-196 -201h-100zM883 439c0 59.333 -19.333 105.831 -58 139.498s-108.667 65.5 -210 95.5c-4 1.33301 -42.333 12 -115 32c-112 32 -194.5 73.167 -247.5 123.5s-79.5 120.5 -79.5 210.5
c0 140.667 47.5 249.334 142.5 326.001s219.833 115 374.5 115c50.667 0 97.834 -3.83301 141.501 -11.5s78.667 -16.167 105 -25.5s51.666 -21.666 75.999 -36.999s41 -27 50 -35s19.5 -18.333 31.5 -31l-84 -102c-26.667 30.667 -67 58.167 -121 82.5
s-121.333 36.5 -202 36.5c-112.667 0 -200.5 -26.167 -263.5 -78.5s-94.5 -129.166 -94.5 -230.499c0 -55.333 16 -98 48 -128s90.667 -57.667 176 -83c3.33301 -1.33301 22.5 -6.83301 57.5 -16.5s53.5 -14.834 55.5 -15.501c137.333 -38.667 233 -83.834 287 -135.501
s81 -120.5 81 -206.5c0 -153.333 -48.667 -272.5 -146 -357.5s-225 -127.5 -383 -127.5c-61.333 0 -118.666 6.16699 -171.999 18.5s-98 28.5 -134 48.5s-63.833 37.333 -83.5 52s-36.834 29.334 -51.501 44.001l80 106c106 -97.333 230 -146 372 -146
c114.667 0 204.5 29.667 269.5 89s97.5 142 97.5 248z" />
    <glyph glyph-name="scircumflex" unicode="&#x15d;" horiz-adv-x="957" 
d="M698 295c0 39.333 -13.834 69.832 -41.501 91.499s-75.5 44.167 -143.5 67.5l-141 46c-73.333 25.333 -128.333 55 -165 89s-55 82 -55 144c0 55.333 11 104 33 146s52.167 75.333 90.5 100s81.333 43 129 55s99.834 18 156.501 18c130 0 234.667 -27.667 314 -83
l-54 -102c-78.667 46 -166.667 69 -264 69c-175.333 0 -263 -61.333 -263 -184c0 -34 10.667 -59.833 32 -77.5s61 -36.167 119 -55.5c1.33301 -0.666992 50 -17 146 -49c40.667 -14.667 74.5 -28.667 101.5 -42s52 -29.5 75 -48.5s39.833 -41 50.5 -66s16 -54.167 16 -87.5
c0 -60 -11.5 -113 -34.5 -159s-54 -82.333 -93 -109s-81.667 -46.5 -128 -59.5s-95.5 -19.5 -147.5 -19.5c-142 0 -261.667 40 -359 120l58 107c92 -72.667 194.333 -109 307 -109c32.667 0 63 2.83301 91 8.5s55.5 15.334 82.5 29.001s48.333 34.167 64 61.5
s23.5 60.333 23.5 99zM287.999 1185l258 309h110l180 -309h-106l-146 201l-196 -201h-100z" />
    <glyph glyph-name="Scedilla" unicode="&#x15e;" horiz-adv-x="1172" 
d="M323 -384l22 77.002c13.333 -6.66699 34.833 -13 64.5 -19s57.5 -9 83.5 -9c76 0 114 26 114 78c0 21.333 -13.667 38.166 -41 50.499s-66.333 18.5 -117 18.5h-14l57 195h78l-38 -136c132 -10.667 198 -52.667 198 -126c0 -38.667 -12.5 -70.834 -37.5 -96.501
s-54.5 -43.167 -88.5 -52.5s-71.333 -14 -112 -14c-60 0 -116.333 11.333 -169 34zM883 439.002c0 59.333 -19.333 105.831 -58 139.498s-108.667 65.5 -210 95.5c-4 1.33301 -42.333 12 -115 32c-112 32 -194.5 73.167 -247.5 123.5s-79.5 120.5 -79.5 210.5
c0 140.667 47.5 249.334 142.5 326.001s219.833 115 374.5 115c50.667 0 97.834 -3.83301 141.501 -11.5s78.667 -16.167 105 -25.5s51.666 -21.666 75.999 -36.999s41 -27 50 -35s19.5 -18.333 31.5 -31l-84 -102c-26.667 30.667 -67 58.167 -121 82.5
s-121.333 36.5 -202 36.5c-112.667 0 -200.5 -26.167 -263.5 -78.5s-94.5 -129.166 -94.5 -230.499c0 -55.333 16 -98 48 -128s90.667 -57.667 176 -83c3.33301 -1.33301 22.5 -6.83301 57.5 -16.5s53.5 -14.834 55.5 -15.501c137.333 -38.667 233 -83.834 287 -135.501
s81 -120.5 81 -206.5c0 -153.333 -48.667 -272.5 -146 -357.5s-225 -127.5 -383 -127.5c-61.333 0 -118.666 6.16699 -171.999 18.5s-98 28.5 -134 48.5s-63.833 37.333 -83.5 52s-36.834 29.334 -51.501 44.001l80 106c106 -97.333 230 -146 372 -146
c114.667 0 204.5 29.667 269.5 89s97.5 142 97.5 248z" />
    <glyph glyph-name="scedilla" unicode="&#x15f;" horiz-adv-x="957" 
d="M698 295c0 39.333 -13.834 69.832 -41.501 91.499s-75.5 44.167 -143.5 67.5l-141 46c-73.333 25.333 -128.333 55 -165 89s-55 82 -55 144c0 55.333 11 104 33 146s52.167 75.333 90.5 100s81.333 43 129 55s99.834 18 156.501 18c130 0 234.667 -27.667 314 -83
l-54 -102c-78.667 46 -166.667 69 -264 69c-175.333 0 -263 -61.333 -263 -184c0 -34 10.667 -59.833 32 -77.5s61 -36.167 119 -55.5c1.33301 -0.666992 50 -17 146 -49c40.667 -14.667 74.5 -28.667 101.5 -42s52 -29.5 75 -48.5s39.833 -41 50.5 -66s16 -54.167 16 -87.5
c0 -60 -11.5 -113 -34.5 -159s-54 -82.333 -93 -109s-81.667 -46.5 -128 -59.5s-95.5 -19.5 -147.5 -19.5c-142 0 -261.667 40 -359 120l58 107c92 -72.667 194.333 -109 307 -109c32.667 0 63 2.83301 91 8.5s55.5 15.334 82.5 29.001s48.333 34.167 64 61.5
s23.5 60.333 23.5 99zM245.999 -384.001l22 77.002c13.333 -6.66699 34.833 -13 64.5 -19s57.5 -9 83.5 -9c76 0 114 26 114 78c0 21.333 -13.667 38.166 -41 50.499s-66.333 18.5 -117 18.5h-14l57 195h78l-38 -136c132 -10.667 198 -52.667 198 -126
c0 -38.667 -12.5 -70.834 -37.5 -96.501s-54.5 -43.167 -88.5 -52.5s-71.333 -14 -112 -14c-60 0 -116.333 11.333 -169 34z" />
    <glyph glyph-name="Scaron" unicode="&#x160;" horiz-adv-x="1172" 
d="M655 1615l-191 309h121l146 -226l206 226h128l-266 -309h-144zM883 439c0 59.333 -19.333 105.831 -58 139.498s-108.667 65.5 -210 95.5c-4 1.33301 -42.333 12 -115 32c-112 32 -194.5 73.167 -247.5 123.5s-79.5 120.5 -79.5 210.5
c0 140.667 47.5 249.334 142.5 326.001s219.833 115 374.5 115c50.667 0 97.834 -3.83301 141.501 -11.5s78.667 -16.167 105 -25.5s51.666 -21.666 75.999 -36.999s41 -27 50 -35s19.5 -18.333 31.5 -31l-84 -102c-26.667 30.667 -67 58.167 -121 82.5
s-121.333 36.5 -202 36.5c-112.667 0 -200.5 -26.167 -263.5 -78.5s-94.5 -129.166 -94.5 -230.499c0 -55.333 16 -98 48 -128s90.667 -57.667 176 -83c3.33301 -1.33301 22.5 -6.83301 57.5 -16.5s53.5 -14.834 55.5 -15.501c137.333 -38.667 233 -83.834 287 -135.501
s81 -120.5 81 -206.5c0 -153.333 -48.667 -272.5 -146 -357.5s-225 -127.5 -383 -127.5c-61.333 0 -118.666 6.16699 -171.999 18.5s-98 28.5 -134 48.5s-63.833 37.333 -83.5 52s-36.834 29.334 -51.501 44.001l80 106c106 -97.333 230 -146 372 -146
c114.667 0 204.5 29.667 269.5 89s97.5 142 97.5 248z" />
    <glyph glyph-name="scaron" unicode="&#x161;" horiz-adv-x="957" 
d="M698 295c0 39.333 -13.834 69.832 -41.501 91.499s-75.5 44.167 -143.5 67.5l-141 46c-73.333 25.333 -128.333 55 -165 89s-55 82 -55 144c0 55.333 11 104 33 146s52.167 75.333 90.5 100s81.333 43 129 55s99.834 18 156.501 18c130 0 234.667 -27.667 314 -83
l-54 -102c-78.667 46 -166.667 69 -264 69c-175.333 0 -263 -61.333 -263 -184c0 -34 10.667 -59.833 32 -77.5s61 -36.167 119 -55.5c1.33301 -0.666992 50 -17 146 -49c40.667 -14.667 74.5 -28.667 101.5 -42s52 -29.5 75 -48.5s39.833 -41 50.5 -66s16 -54.167 16 -87.5
c0 -60 -11.5 -113 -34.5 -159s-54 -82.333 -93 -109s-81.667 -46.5 -128 -59.5s-95.5 -19.5 -147.5 -19.5c-142 0 -261.667 40 -359 120l58 107c92 -72.667 194.333 -109 307 -109c32.667 0 63 2.83301 91 8.5s55.5 15.334 82.5 29.001s48.333 34.167 64 61.5
s23.5 60.333 23.5 99zM489.999 1185l-191 309h121l146 -226l206 226h128l-266 -309h-144z" />
    <glyph glyph-name="Tcommaaccent" unicode="&#x162;" horiz-adv-x="1121" 
d="M270 -384l22 77.002c13.333 -6.66699 34.833 -13 64.5 -19s57.5 -9 83.5 -9c76 0 114 26 114 78c0 21.333 -13.667 38.166 -41 50.499s-66.333 18.5 -117 18.5h-14l57 195h78l-38 -136c132 -10.667 198 -52.667 198 -126c0 -38.667 -12.5 -70.834 -37.5 -96.501
s-54.5 -43.167 -88.5 -52.5s-71.333 -14 -112 -14c-60 0 -116.333 11.333 -169 34zM395 0.00195312l164 1332h-476l15 124h1102l-15 -124h-477l-163 -1332h-150z" />
    <glyph glyph-name="tcommaaccent" unicode="&#x163;" horiz-adv-x="745" 
d="M565 -1c-3.33301 0 -14.3311 0.166992 -32.998 0.5s-29.334 0.5 -32.001 0.5c-78.667 2 -140.334 12 -185.001 30s-75.167 42.167 -91.5 72.5s-24.5 70.833 -24.5 121.5c0 26 3 64.667 9 116l73 592h-200l12 94h201l34 279l145 41l-40 -320h256l-12 -94h-255l-73 -598
c-5.33301 -39.333 -8 -70.333 -8 -93c0 -52 16 -86.333 48 -103s95.333 -25 190 -25zM197.002 -365l22 77.002c13.333 -6.66699 34.833 -13 64.5 -19s57.5 -9 83.5 -9c76 0 114 26 114 78c0 21.333 -13.667 38.166 -41 50.499s-66.333 18.5 -117 18.5h-14l57 195h78
l-38 -136c132 -10.667 198 -52.667 198 -126c0 -38.667 -12.5 -70.834 -37.5 -96.501s-54.5 -43.167 -88.5 -52.5s-71.333 -14 -112 -14c-60 0 -116.333 11.333 -169 34z" />
    <glyph glyph-name="Tcaron" unicode="&#x164;" horiz-adv-x="1121" 
d="M600 1615l-191 309h121l146 -226l206 226h128l-266 -309h-144zM395 0l164 1332h-476l15 124h1102l-15 -124h-477l-163 -1332h-150z" />
    <glyph glyph-name="tcaron" unicode="&#x165;" horiz-adv-x="745" 
d="M565 -1c-3.33301 0 -14.3311 0.166992 -32.998 0.5s-29.334 0.5 -32.001 0.5c-78.667 2 -140.334 12 -185.001 30s-75.167 42.167 -91.5 72.5s-24.5 70.833 -24.5 121.5c0 26 3 64.667 9 116l73 592h-200l12 94h201l34 279l145 41l-40 -320h256l-12 -94h-255l-73 -598
c-5.33301 -39.333 -8 -70.333 -8 -93c0 -52 16 -86.333 48 -103s95.333 -25 190 -25zM616.002 1284l162 453h163l-215 -453h-110z" />
    <glyph glyph-name="Tbar" unicode="&#x166;" horiz-adv-x="1121" 
d="M280 710l12 99h557l-12 -99h-557zM395 0l164 1332h-476l15 124h1102l-15 -124h-477l-163 -1332h-150z" />
    <glyph glyph-name="tbar" unicode="&#x167;" horiz-adv-x="745" 
d="M565 -1c-3.33301 0 -14.3311 0.166992 -32.998 0.5s-29.334 0.5 -32.001 0.5c-78.667 2 -140.334 12 -185.001 30s-75.167 42.167 -91.5 72.5s-24.5 70.833 -24.5 121.5c0 26 3 64.667 9 116l73 592h-200l12 94h201l34 279l145 41l-40 -320h256l-12 -94h-255l-73 -598
c-5.33301 -39.333 -8 -70.333 -8 -93c0 -52 16 -86.333 48 -103s95.333 -25 190 -25zM36.002 550l12 99h557l-12 -99h-557z" />
    <glyph glyph-name="Utilde" unicode="&#x168;" horiz-adv-x="1488" 
d="M727 1733c-41.333 0 -67.002 -28.999 -77.002 -86.999h-90c7.33301 59.333 26.333 105.666 57 138.999s69.334 50 116.001 50c36 0 87.5 -16.5 154.5 -49.5s111.5 -49.5 133.5 -49.5c18.667 0 32.334 7.16699 41.001 21.5s15.334 38.166 20.001 71.499h94
c-7.33301 -59.333 -24.333 -106.666 -51 -141.999s-63.334 -53 -110.001 -53c-32.667 0 -83.167 16.5 -151.5 49.5s-113.833 49.5 -136.5 49.5zM646.998 -20.999c-171.333 0 -298 38.5 -380 115.5s-123 187.167 -123 330.5c0 38 2.33301 75.333 7 112l113 919h149l-113 -925
c-4 -32 -6 -62.333 -6 -91c0 -225.333 123.333 -338 370 -338c136 0 243.833 35.667 323.5 107s128.167 178 145.5 320l114 927h149l-113 -918c-22.667 -178.667 -86.667 -316.5 -192 -413.5s-253.333 -145.5 -444 -145.5z" />
    <glyph glyph-name="utilde" unicode="&#x169;" 
d="M505 -24c-114.667 0 -200.667 29.168 -258 87.501s-86 141.5 -86 249.5c0 28.667 2 58.334 6 89.001l76 624h141l-77 -626c-3.33301 -28 -5 -51.333 -5 -70c0 -158.667 77.333 -238 232 -238c52.667 0 102.167 9 148.5 27s84.833 41.167 115.5 69.5
s55.5 59.166 74.5 92.499s30.5 66 34.5 98l80 647h141l-97 -787c-10 -84.667 -17.333 -164.334 -22 -239.001h-138l15 178c-96.667 -134.667 -223.667 -202 -381 -202zM584 1303c-41.333 0 -67.002 -28.999 -77.002 -86.999h-90c7.33301 59.333 26.333 105.666 57 138.999
s69.334 50 116.001 50c36 0 87.5 -16.5 154.5 -49.5s111.5 -49.5 133.5 -49.5c18.667 0 32.334 7.16699 41.001 21.5s15.334 38.166 20.001 71.499h94c-7.33301 -59.333 -24.333 -106.666 -51 -141.999s-63.334 -53 -110.001 -53c-32.667 0 -83.167 16.5 -151.5 49.5
s-113.833 49.5 -136.5 49.5z" />
    <glyph glyph-name="Umacron" unicode="&#x16a;" horiz-adv-x="1488" 
d="M591 1669l12 99h557l-12 -99h-557zM647 -21c-171.333 0 -298 38.5 -380 115.5s-123 187.167 -123 330.5c0 38 2.33301 75.333 7 112l113 919h149l-113 -925c-4 -32 -6 -62.333 -6 -91c0 -225.333 123.333 -338 370 -338c136 0 243.833 35.667 323.5 107
s128.167 178 145.5 320l114 927h149l-113 -918c-22.667 -178.667 -86.667 -316.5 -192 -413.5s-253.333 -145.5 -444 -145.5z" />
    <glyph glyph-name="umacron" unicode="&#x16b;" 
d="M505 -24c-114.667 0 -200.667 29.168 -258 87.501s-86 141.5 -86 249.5c0 28.667 2 58.334 6 89.001l76 624h141l-77 -626c-3.33301 -28 -5 -51.333 -5 -70c0 -158.667 77.333 -238 232 -238c52.667 0 102.167 9 148.5 27s84.833 41.167 115.5 69.5
s55.5 59.166 74.5 92.499s30.5 66 34.5 98l80 647h141l-97 -787c-10 -84.667 -17.333 -164.334 -22 -239.001h-138l15 178c-96.667 -134.667 -223.667 -202 -381 -202zM448 1239l12 99h557l-12 -99h-557z" />
    <glyph glyph-name="Ubreve" unicode="&#x16c;" horiz-adv-x="1488" 
d="M852 1601c-76 0 -131.667 17.332 -167 51.999s-53 89 -53 163v22h104c0 -2.66699 -0.166992 -6 -0.5 -10s-0.5 -7 -0.5 -9c0 -39.333 10.667 -68.166 32 -86.499s53.666 -27.5 96.999 -27.5c45.333 0 80.333 10.833 105 32.5s43.334 55.167 56.001 100.5h101
c-30.667 -158 -122 -237 -274 -237zM647 -21.001c-171.333 0 -298 38.5 -380 115.5s-123 187.167 -123 330.5c0 38 2.33301 75.333 7 112l113 919h149l-113 -925c-4 -32 -6 -62.333 -6 -91c0 -225.333 123.333 -338 370 -338c136 0 243.833 35.667 323.5 107
s128.167 178 145.5 320l114 927h149l-113 -918c-22.667 -178.667 -86.667 -316.5 -192 -413.5s-253.333 -145.5 -444 -145.5z" />
    <glyph glyph-name="ubreve" unicode="&#x16d;" 
d="M505 -24c-114.667 0 -200.667 29.168 -258 87.501s-86 141.5 -86 249.5c0 28.667 2 58.334 6 89.001l76 624h141l-77 -626c-3.33301 -28 -5 -51.333 -5 -70c0 -158.667 77.333 -238 232 -238c52.667 0 102.167 9 148.5 27s84.833 41.167 115.5 69.5
s55.5 59.166 74.5 92.499s30.5 66 34.5 98l80 647h141l-97 -787c-10 -84.667 -17.333 -164.334 -22 -239.001h-138l15 178c-96.667 -134.667 -223.667 -202 -381 -202zM709 1171c-76 0 -131.667 17.332 -167 51.999s-53 89 -53 163v22h104c0 -2.66699 -0.166992 -6 -0.5 -10
s-0.5 -7 -0.5 -9c0 -39.333 10.667 -68.166 32 -86.499s53.666 -27.5 96.999 -27.5c45.333 0 80.333 10.833 105 32.5s43.334 55.167 56.001 100.5h101c-30.667 -158 -122 -237 -274 -237z" />
    <glyph glyph-name="Uring" unicode="&#x16e;" horiz-adv-x="1488" 
d="M980 1762c0 28 -8.66699 51.167 -26 69.5s-40 27.5 -68 27.5c-31.333 0 -59.166 -12 -83.499 -36s-36.5 -53.667 -36.5 -89c0 -28 8.66699 -51.167 26 -69.5s39.666 -27.5 66.999 -27.5c32 0 60.167 12 84.5 36s36.5 53.667 36.5 89zM896 1930
c48.667 0 88.667 -14.834 120 -44.501s47 -67.5 47 -113.5c0 -59.333 -21 -108.5 -63 -147.5s-91.667 -58.5 -149 -58.5c-49.333 0 -89.5 14.833 -120.5 44.5s-46.5 67.834 -46.5 114.501c0 58.667 21.167 107.5 63.5 146.5s91.833 58.5 148.5 58.5zM647 -21.001
c-171.333 0 -298 38.5 -380 115.5s-123 187.167 -123 330.5c0 38 2.33301 75.333 7 112l113 919h149l-113 -925c-4 -32 -6 -62.333 -6 -91c0 -225.333 123.333 -338 370 -338c136 0 243.833 35.667 323.5 107s128.167 178 145.5 320l114 927h149l-113 -918
c-22.667 -178.667 -86.667 -316.5 -192 -413.5s-253.333 -145.5 -444 -145.5z" />
    <glyph glyph-name="uring" unicode="&#x16f;" 
d="M505 -24c-114.667 0 -200.667 29.168 -258 87.501s-86 141.5 -86 249.5c0 28.667 2 58.334 6 89.001l76 624h141l-77 -626c-3.33301 -28 -5 -51.333 -5 -70c0 -158.667 77.333 -238 232 -238c52.667 0 102.167 9 148.5 27s84.833 41.167 115.5 69.5
s55.5 59.166 74.5 92.499s30.5 66 34.5 98l80 647h141l-97 -787c-10 -84.667 -17.333 -164.334 -22 -239.001h-138l15 178c-96.667 -134.667 -223.667 -202 -381 -202zM836 1332c0 28 -8.66699 51.167 -26 69.5s-40 27.5 -68 27.5c-31.333 0 -59.166 -12 -83.499 -36
s-36.5 -53.667 -36.5 -89c0 -28 8.66699 -51.167 26 -69.5s39.666 -27.5 66.999 -27.5c32 0 60.167 12 84.5 36s36.5 53.667 36.5 89zM752 1500c48.667 0 88.667 -14.834 120 -44.501s47 -67.5 47 -113.5c0 -59.333 -21 -108.5 -63 -147.5s-91.667 -58.5 -149 -58.5
c-49.333 0 -89.5 14.833 -120.5 44.5s-46.5 67.834 -46.5 114.501c0 58.667 21.167 107.5 63.5 146.5s91.833 58.5 148.5 58.5z" />
    <glyph glyph-name="Uhungarumlaut" unicode="&#x170;" horiz-adv-x="1488" 
d="M651 1597l243 327h149l-290 -327h-102zM944 1597l255 327h161l-312 -327h-104zM647 -21c-171.333 0 -298 38.5 -380 115.5s-123 187.167 -123 330.5c0 38 2.33301 75.333 7 112l113 919h149l-113 -925c-4 -32 -6 -62.333 -6 -91c0 -225.333 123.333 -338 370 -338
c136 0 243.833 35.667 323.5 107s128.167 178 145.5 320l114 927h149l-113 -918c-22.667 -178.667 -86.667 -316.5 -192 -413.5s-253.333 -145.5 -444 -145.5z" />
    <glyph glyph-name="uhungarumlaut" unicode="&#x171;" 
d="M505 -24c-114.667 0 -200.667 29.168 -258 87.501s-86 141.5 -86 249.5c0 28.667 2 58.334 6 89.001l76 624h141l-77 -626c-3.33301 -28 -5 -51.333 -5 -70c0 -158.667 77.333 -238 232 -238c52.667 0 102.167 9 148.5 27s84.833 41.167 115.5 69.5
s55.5 59.166 74.5 92.499s30.5 66 34.5 98l80 647h141l-97 -787c-10 -84.667 -17.333 -164.334 -22 -239.001h-138l15 178c-96.667 -134.667 -223.667 -202 -381 -202zM508 1167l243 327h149l-290 -327h-102zM801 1167l255 327h161l-312 -327h-104z" />
    <glyph glyph-name="Uogonek" unicode="&#x172;" horiz-adv-x="1488" 
d="M661 -436c-60.667 0 -111 15.668 -151 47.001s-60 72.666 -60 123.999c0 9.33301 0.333008 16.666 1 21.999c6 46.667 29.333 92.167 70 136.5s91.334 83.166 152.001 116.499l93 -3c-52 -34 -94.333 -72.667 -127 -116s-51 -81.666 -55 -114.999
c-0.666992 -3.33301 -1 -8.66602 -1 -15.999c0 -28 9.66699 -50.167 29 -66.5s46.666 -24.5 81.999 -24.5c31.333 0 67.333 6 108 18l-13 -104c-44 -12.667 -86.667 -19 -128 -19zM647 -20.999c-171.333 0 -298 38.5 -380 115.5s-123 187.167 -123 330.5
c0 38 2.33301 75.333 7 112l113 919h149l-113 -925c-4 -32 -6 -62.333 -6 -91c0 -225.333 123.333 -338 370 -338c136 0 243.833 35.667 323.5 107s128.167 178 145.5 320l114 927h149l-113 -918c-22.667 -178.667 -86.667 -316.5 -192 -413.5s-253.333 -145.5 -444 -145.5z
" />
    <glyph glyph-name="uogonek" unicode="&#x173;" 
d="M505 -24c-114.667 0 -200.667 29.168 -258 87.501s-86 141.5 -86 249.5c0 28.667 2 58.334 6 89.001l76 624h141l-77 -626c-3.33301 -28 -5 -51.333 -5 -70c0 -158.667 77.333 -238 232 -238c52.667 0 102.167 9 148.5 27s84.833 41.167 115.5 69.5
s55.5 59.166 74.5 92.499s30.5 66 34.5 98l80 647h141l-97 -787c-10 -84.667 -17.333 -164.334 -22 -239.001h-138l15 178c-96.667 -134.667 -223.667 -202 -381 -202zM887 -435.999c-60.667 0 -111 15.668 -151 47.001s-60 72.666 -60 123.999
c0 9.33301 0.333008 16.666 1 21.999c6 46.667 29.333 92.167 70 136.5s91.334 83.166 152.001 116.499l93 -3c-52 -34 -94.333 -72.667 -127 -116s-51 -81.666 -55 -114.999c-0.666992 -3.33301 -1 -8.66602 -1 -15.999c0 -28 9.66699 -50.167 29 -66.5
s46.666 -24.5 81.999 -24.5c31.333 0 67.333 6 108 18l-13 -104c-44 -12.667 -86.667 -19 -128 -19z" />
    <glyph glyph-name="Wcircumflex" unicode="&#x174;" horiz-adv-x="2029" 
d="M865 1615l258 309h110l180 -309h-106l-146 201l-196 -201h-100zM388 0l-209 1456h160l146 -1123l15 -173l66 171l471 1125h149c14.667 -86 48.667 -280.333 102 -583s93.333 -537.334 120 -704.001c76 210 231.667 639 467 1287h153l-552 -1456h-176l-212 1260
l-526 -1260h-174z" />
    <glyph glyph-name="wcircumflex" unicode="&#x175;" horiz-adv-x="1595" 
d="M294 0l-193 1026h150c10 -59.333 32.167 -191.166 66.5 -395.499s61.5 -361.5 81.5 -471.5c50.667 113.333 124.167 273.166 220.5 479.499s156.5 335.5 180.5 387.5h153c20 -96 50 -240.667 90 -434s70 -338 90 -434c38 96.667 95.167 241.334 171.5 434.001
s133.5 337.334 171.5 434.001h143l-435 -1026h-151c-80 386.667 -139.667 677 -179 871c-45.333 -97.333 -182 -387.666 -410 -870.999h-150zM628 1185l258 309h110l180 -309h-106l-146 201l-196 -201h-100z" />
    <glyph glyph-name="Ycircumflex" unicode="&#x176;" horiz-adv-x="1237" 
d="M465 1615l258 309h110l180 -309h-106l-146 201l-196 -201h-100zM452 0l71 583l-384 873h161l317 -743l504 743h159l-606 -870l-72 -586h-150z" />
    <glyph glyph-name="ycircumflex" unicode="&#x177;" horiz-adv-x="1024" 
d="M94 -425l-42.001 99c164.667 46.667 279.334 135 344.001 265l27 54l-282 1033h149l222 -875l433 875h141l-547 -1079c-46.667 -93.333 -107 -173.333 -181 -240s-162 -110.667 -264 -132zM372.999 1185l258 309h110l180 -309h-106l-146 201l-196 -201h-100z" />
    <glyph glyph-name="Ydieresis" unicode="&#x178;" horiz-adv-x="1237" 
d="M479 1626l19 148h142l-19 -148h-142zM849 1626l18 148h143l-19 -148h-142zM452 0l71 583l-384 873h161l317 -743l504 743h159l-606 -870l-72 -586h-150z" />
    <glyph glyph-name="Zacute" unicode="&#x179;" horiz-adv-x="1183" 
d="M676 1603l255 321h185l-335 -321h-105zM27 0l9 82l926 1250h-739l15 124h931l-9 -78l-930 -1254h772l-15 -124h-960z" />
    <glyph glyph-name="zacute" unicode="&#x17a;" horiz-adv-x="952" 
d="M34 0l10 79l690 831h-568l14 116h749l-9 -77l-688 -834h587l-14 -115h-771zM516 1173l255 321h185l-335 -321h-105z" />
    <glyph glyph-name="Zdotaccent" unicode="&#x17b;" horiz-adv-x="1183" 
d="M654 1677l19 154h155l-19 -154h-155zM27 0l9 82l926 1250h-739l15 124h931l-9 -78l-930 -1254h772l-15 -124h-960z" />
    <glyph glyph-name="zdotaccent" unicode="&#x17c;" horiz-adv-x="952" 
d="M34 0l10 79l690 831h-568l14 116h749l-9 -77l-688 -834h587l-14 -115h-771zM494 1247l19 154h155l-19 -154h-155z" />
    <glyph glyph-name="Zcaron" unicode="&#x17d;" horiz-adv-x="1183" 
d="M656 1615l-191 309h121l146 -226l206 226h128l-266 -309h-144zM27 0l9 82l926 1250h-739l15 124h931l-9 -78l-930 -1254h772l-15 -124h-960z" />
    <glyph glyph-name="zcaron" unicode="&#x17e;" horiz-adv-x="952" 
d="M34 0l10 79l690 831h-568l14 116h749l-9 -77l-688 -834h587l-14 -115h-771zM497 1185l-191 309h121l146 -226l206 226h128l-266 -309h-144z" />
    <glyph glyph-name="longs" unicode="&#x17f;" horiz-adv-x="957" 
d="M698 295c0 39.333 -13.834 69.832 -41.501 91.499s-75.5 44.167 -143.5 67.5l-141 46c-73.333 25.333 -128.333 55 -165 89s-55 82 -55 144c0 55.333 11 104 33 146s52.167 75.333 90.5 100s81.333 43 129 55s99.834 18 156.501 18c130 0 234.667 -27.667 314 -83
l-54 -102c-78.667 46 -166.667 69 -264 69c-175.333 0 -263 -61.333 -263 -184c0 -34 10.667 -59.833 32 -77.5s61 -36.167 119 -55.5c1.33301 -0.666992 50 -17 146 -49c40.667 -14.667 74.5 -28.667 101.5 -42s52 -29.5 75 -48.5s39.833 -41 50.5 -66s16 -54.167 16 -87.5
c0 -60 -11.5 -113 -34.5 -159s-54 -82.333 -93 -109s-81.667 -46.5 -128 -59.5s-95.5 -19.5 -147.5 -19.5c-142 0 -261.667 40 -359 120l58 107c92 -72.667 194.333 -109 307 -109c32.667 0 63 2.83301 91 8.5s55.5 15.334 82.5 29.001s48.333 34.167 64 61.5
s23.5 60.333 23.5 99z" />
    <glyph glyph-name="florin" unicode="&#x192;" horiz-adv-x="1043" 
d="M90 -288c-29.333 0 -62.667 5.00098 -100 15.001l24 109c26.667 -8 49 -12 67 -12c101.333 0 170.333 58.667 207 176l279 924h-163l25 100h167l35 115c13.333 50.667 29 95.167 47 133.5s40.833 73.833 68.5 106.5s62.167 57.667 103.5 75s89 26 143 26
c18 0 38.167 -2.16699 60.5 -6.5s40.5 -8.83301 54.5 -13.5l20 -6l-28 -106c-45.333 12.667 -80.666 19 -105.999 19c-62.667 0 -108.834 -14.167 -138.501 -42.5s-53.167 -70.833 -70.5 -127.5l-58 -173h228l-32 -100h-222l-244 -813
c-33.333 -113.333 -60.333 -190 -81 -230c-39.333 -78.667 -94.333 -129.334 -165 -152.001c-34.667 -11.333 -75 -17 -121 -17z" />
    <glyph glyph-name="uni01C4" unicode="&#x1c4;" horiz-adv-x="2714" 
d="M2187 1615l-191 309h121l146 -226l206 226h128l-266 -309h-144zM1558 0l9 82l926 1250h-739l15 124h931l-9 -78l-930 -1254h772l-15 -124h-960zM288 124h265c204.667 0 366 51 484 153s189 249.333 213 442c5.33301 44.667 8 84.667 8 120
c0 328.667 -198.667 493 -596 493h-225zM124 0l177.999 1456h366c244 0 429.5 -50.333 556.5 -151s190.5 -251.667 190.5 -453c0 -41.333 -3 -85.666 -9 -132.999c-28 -232.667 -116.667 -410.667 -266 -534s-351.666 -185 -606.999 -185h-409z" />
    <glyph glyph-name="uni01C5" unicode="&#x1c5;" horiz-adv-x="2483" 
d="M1565 0l10 79l690 831h-568l14 116h749l-9 -77l-688 -834h587l-14 -115h-771zM2028 1185l-191 309h121l146 -226l206 226h128l-266 -309h-144zM288 124h265c204.667 0 366 51 484 153s189 249.333 213 442c5.33301 44.667 8 84.667 8 120
c0 328.667 -198.667 493 -596 493h-225zM124 0l177.999 1456h366c244 0 429.5 -50.333 556.5 -151s190.5 -251.667 190.5 -453c0 -41.333 -3 -85.666 -9 -132.999c-28 -232.667 -116.667 -410.667 -266 -534s-351.666 -185 -606.999 -185h-409z" />
    <glyph glyph-name="uni01C6" unicode="&#x1c6;" horiz-adv-x="2212" 
d="M1294 0l10 79l690 831h-568l14 116h749l-9 -77l-688 -834h587l-14 -115h-771zM1757 1185l-191 309h121l146 -226l206 226h128l-266 -309h-144zM608 1052c84.667 0 157.5 -20.499 218.5 -61.499s101.167 -92.833 120.5 -155.5l81 666h142l-152 -1234
c-8 -67.333 -16.333 -156.333 -25 -267h-143l21 207c-32.667 -66.667 -84.667 -121.334 -156 -164.001s-152.333 -64 -243 -64c-124.667 0 -223.667 39.5 -297 118.5s-110 186.5 -110 322.5c0 185.333 51 337 153 455s232 177 390 177zM915 598.001
c0 103.333 -27.333 185.5 -82 246.5s-131 91.5 -229 91.5c-118 0 -213.167 -47 -285.5 -141s-108.5 -215.333 -108.5 -364c0 -104 24.833 -186 74.5 -246s121.167 -90 214.5 -90c122 0 221.833 46.667 299.5 140s116.5 214.333 116.5 363z" />
    <glyph glyph-name="uni01C7" unicode="&#x1c7;" horiz-adv-x="1804" 
d="M124 0l178 1456h149l-163 -1332h679l-15 -124h-828zM1129 -319c-45.333 0 -99.333 7.33301 -162 22l29 118c59.333 -11.333 105.333 -17 138 -17c84.667 0 144.334 22.167 179.001 66.5s59.667 129.5 75 255.5l164 1330h150l-164 -1330
c-10.667 -86 -26.834 -158 -48.501 -216s-50 -103.667 -85 -137s-74.333 -57 -118 -71s-96.167 -21 -157.5 -21z" />
    <glyph glyph-name="uni01C8" unicode="&#x1c8;" horiz-adv-x="1580" 
d="M1363 1312l18 144h140l-18 -144h-140zM1007 -434c-46 0 -82.6689 3.3291 -110.002 9.99609l14 127c28.667 -5.33301 53.334 -8 74.001 -8c71.333 0 127 26.333 167 79s67 135.667 81 249l123 1003h144l-113 -917c-4.66699 -38.667 -9.66699 -73.5 -15 -104.5
s-12.833 -66.167 -22.5 -105.5s-20.667 -73.666 -33 -102.999s-28.166 -59.166 -47.499 -89.499s-41 -55.166 -65 -74.499s-52.833 -35.166 -86.5 -47.499s-70.5 -18.5 -110.5 -18.5zM123.998 -0.00390625l178 1456h149l-163 -1332h679l-15 -124h-828z" />
    <glyph glyph-name="uni01C9" unicode="&#x1c9;" horiz-adv-x="1020" 
d="M99 0l184 1501h141l-184 -1501h-141zM803 1312l18 144h140l-18 -144h-140zM447 -434c-46 0 -82.6689 3.3291 -110.002 9.99609l14 127c28.667 -5.33301 53.334 -8 74.001 -8c71.333 0 127 26.333 167 79s67 135.667 81 249l123 1003h144l-113 -917
c-4.66699 -38.667 -9.66699 -73.5 -15 -104.5s-12.833 -66.167 -22.5 -105.5s-20.667 -73.666 -33 -102.999s-28.166 -59.166 -47.499 -89.499s-41 -55.166 -65 -74.499s-52.833 -35.166 -86.5 -47.499s-70.5 -18.5 -110.5 -18.5z" />
    <glyph glyph-name="uni01CA" unicode="&#x1ca;" horiz-adv-x="2312" 
d="M124 0l178 1456h155l611 -1073l95 -181l154 1254h144l-178 -1456h-154l-614 1061l-96 184l-152 -1245h-143zM1637 -319c-45.333 0 -99.333 7.33301 -162 22l29 118c59.333 -11.333 105.333 -17 138 -17c84.667 0 144.334 22.167 179.001 66.5s59.667 129.5 75 255.5
l164 1330h150l-164 -1330c-10.667 -86 -26.834 -158 -48.501 -216s-50 -103.667 -85 -137s-74.333 -57 -118 -71s-96.167 -21 -157.5 -21z" />
    <glyph glyph-name="uni01CB" unicode="&#x1cb;" horiz-adv-x="2088" 
d="M1871 1312l18 144h140l-18 -144h-140zM1515 -434c-46 0 -82.6689 3.3291 -110.002 9.99609l14 127c28.667 -5.33301 53.334 -8 74.001 -8c71.333 0 127 26.333 167 79s67 135.667 81 249l123 1003h144l-113 -917c-4.66699 -38.667 -9.66699 -73.5 -15 -104.5
s-12.833 -66.167 -22.5 -105.5s-20.667 -73.666 -33 -102.999s-28.166 -59.166 -47.499 -89.499s-41 -55.166 -65 -74.499s-52.833 -35.166 -86.5 -47.499s-70.5 -18.5 -110.5 -18.5zM123.998 -0.00390625l178 1456h155l611 -1073l95 -181l154 1254h144l-178 -1456h-154
l-614 1061l-96 184l-152 -1245h-143z" />
    <glyph glyph-name="uni01CC" unicode="&#x1cc;" horiz-adv-x="1754" 
d="M125 0l99.001 810.999c3.33301 28.667 6.5 60.834 9.5 96.501s5.16699 64.5 6.5 86.5l2 32h140l-17 -184c43.333 67.333 101 119.166 173 155.499s148.667 54.5 230 54.5c216.667 0 325 -114 325 -342c0 -36.667 -2.33301 -73.334 -7 -110.001l-74 -600h-142l75 600
c4 34.667 6 66.667 6 96c0 80.667 -16.833 140.834 -50.5 180.501s-87.834 59.5 -162.501 59.5c-88.667 0 -169.5 -25.667 -242.5 -77s-122.5 -117.666 -148.5 -198.999l-81 -660h-141zM1537 1312l18 144h140l-18 -144h-140zM1181 -434.001
c-46 0 -82.6689 3.3291 -110.002 9.99609l14 127c28.667 -5.33301 53.334 -8 74.001 -8c71.333 0 127 26.333 167 79s67 135.667 81 249l123 1003h144l-113 -917c-4.66699 -38.667 -9.66699 -73.5 -15 -104.5s-12.833 -66.167 -22.5 -105.5s-20.667 -73.666 -33 -102.999
s-28.166 -59.166 -47.499 -89.499s-41 -55.166 -65 -74.499s-52.833 -35.166 -86.5 -47.499s-70.5 -18.5 -110.5 -18.5z" />
    <glyph glyph-name="uni01CD" unicode="&#x1cd;" horiz-adv-x="1364" 
d="M722 1615l-191 309h121l146 -226l206 226h128l-266 -309h-144zM-39 0l725 1456h169l371 -1456h-161l-98 394h-649l-193 -394h-164zM372 509l567 0.000976562c-64.667 285.333 -126.667 552.666 -186 801.999c-84.667 -178.667 -211.667 -446 -381 -802z" />
    <glyph glyph-name="uni01CE" unicode="&#x1ce;" horiz-adv-x="1263" 
d="M604 1185l-191 309h121l146 -226l206 226h128l-266 -309h-144zM651 1052c79.333 0 147.667 -19.332 205 -57.999s97 -88.667 119 -150l23 182h140l-126 -1026h-141l24 195c-39.333 -66.667 -91.666 -119.334 -156.999 -158.001s-139 -58 -221 -58
c-134 0 -238.167 40.833 -312.5 122.5s-111.5 189.5 -111.5 323.5c0 182 52.667 332 158 450s238.666 177 399.999 177zM237.001 439.001c0 -105.333 26.667 -189 80 -251s130 -93 230 -93c108.667 0 197.167 38.333 265.5 115s110.5 180.667 126.5 312
c3.33301 31.333 5 58 5 80c0 102.667 -25.667 184 -77 244s-124 90 -218 90c-123.333 0 -222.833 -46.333 -298.5 -139s-113.5 -212 -113.5 -358z" />
    <glyph glyph-name="uni01CF" unicode="&#x1cf;" horiz-adv-x="597" 
d="M349 1615l-191 309h121l146 -226l206 226h128l-266 -309h-144zM141 0l178 1456h150l-178 -1456h-150z" />
    <glyph glyph-name="uni01D0" unicode="&#x1d0;" horiz-adv-x="503" 
d="M119 0l125 1026h143l-125 -1026h-143zM267 1185l-191 309h121l146 -226l206 226h128l-266 -309h-144z" />
    <glyph glyph-name="uni01D1" unicode="&#x1d1;" horiz-adv-x="1599" 
d="M842 1615l-191 309h121l146 -226l206 226h128l-266 -309h-144zM724 102c167.333 0 304.501 56.001 411.501 168.001s172.167 264 195.5 456c5.33301 46 8 87.333 8 124c0 157.333 -39.833 281.333 -119.5 372s-193.167 136 -340.5 136
c-166.667 0 -304.834 -57.5 -414.501 -172.5s-176.167 -268.167 -199.5 -459.5c-5.33301 -44.667 -8 -84.667 -8 -120c0 -156.667 40.667 -279.834 122 -369.501s196.333 -134.5 345 -134.5zM710.001 -20.999c-191.333 0 -340.834 54.999 -448.501 164.999
s-161.5 260.333 -161.5 451c0 47.333 2.66699 91 8 131c28 228.667 112.667 411.667 254 549s319 206 533 206c188 0 335.5 -56.167 442.5 -168.5s160.5 -264.166 160.5 -455.499c0 -47.333 -2.66699 -91 -8 -131c-27.333 -228 -111.166 -409.5 -251.499 -544.5
s-316.5 -202.5 -528.5 -202.5z" />
    <glyph glyph-name="uni01D2" unicode="&#x1d2;" horiz-adv-x="1244" 
d="M1004 591c0 107.333 -28.332 191.667 -84.999 253s-138.334 92 -245.001 92c-119.333 0 -216.833 -38.333 -292.5 -115s-121.5 -180 -137.5 -310c-3.33301 -28.667 -5 -54 -5 -76c0 -105.333 28.5 -188.333 85.5 -249s139.167 -91 246.5 -91
c131.333 0 236.333 45.667 315 137s118 211 118 359zM557.001 -20.999c-146.667 0 -260.834 40.166 -342.501 120.499s-122.5 188.5 -122.5 324.5c0 28 2 57 6 87c20 163.333 83.167 294.333 189.5 393s240.5 148 402.5 148c145.333 0 258.5 -40.5 339.5 -121.5
s121.5 -190.5 121.5 -328.5c0 -29.333 -2 -59.666 -6 -90.999c-20 -160 -82.667 -288.667 -188 -386s-238.666 -146 -399.999 -146zM639.001 1185l-191 309h121l146 -226l206 226h128l-266 -309h-144z" />
    <glyph glyph-name="uni01D3" unicode="&#x1d3;" horiz-adv-x="1488" 
d="M789 1615l-191 309h121l146 -226l206 226h128l-266 -309h-144zM647 -21c-171.333 0 -298 38.5 -380 115.5s-123 187.167 -123 330.5c0 38 2.33301 75.333 7 112l113 919h149l-113 -925c-4 -32 -6 -62.333 -6 -91c0 -225.333 123.333 -338 370 -338
c136 0 243.833 35.667 323.5 107s128.167 178 145.5 320l114 927h149l-113 -918c-22.667 -178.667 -86.667 -316.5 -192 -413.5s-253.333 -145.5 -444 -145.5z" />
    <glyph glyph-name="uni01D4" unicode="&#x1d4;" 
d="M505 -24c-114.667 0 -200.667 29.168 -258 87.501s-86 141.5 -86 249.5c0 28.667 2 58.334 6 89.001l76 624h141l-77 -626c-3.33301 -28 -5 -51.333 -5 -70c0 -158.667 77.333 -238 232 -238c52.667 0 102.167 9 148.5 27s84.833 41.167 115.5 69.5
s55.5 59.166 74.5 92.499s30.5 66 34.5 98l80 647h141l-97 -787c-10 -84.667 -17.333 -164.334 -22 -239.001h-138l15 178c-96.667 -134.667 -223.667 -202 -381 -202zM645 1185l-191 309h121l146 -226l206 226h128l-266 -309h-144z" />
    <glyph glyph-name="uni01E2" unicode="&#x1e2;" horiz-adv-x="1961" 
d="M1149 1669l12 99h557l-12 -99h-557zM-59 0l1017 1456h963l-15 -126h-711l-21 -518h617l-14 -117h-609l-19 -572h633l-14 -123h-758l14 430h-632l-297 -430h-154zM461 542h564l37 788h-57z" />
    <glyph glyph-name="uni01E3" unicode="&#x1e3;" horiz-adv-x="1801" 
d="M727 1239l12 99h557l-12 -99h-557zM1349 1052c116.667 0 207.334 -36.667 272.001 -110s97 -176 97 -308c0 -40 -3.66699 -85.667 -11 -137h-739l-4 -31c-2 -20.667 -3 -41.334 -3 -62.001c0 -93.333 23.833 -168.166 71.5 -224.499s121.167 -84.5 220.5 -84.5
c56.667 0 112.834 9.5 168.501 28.5s97.167 37.833 124.5 56.5l41 28l33 -102c-4 -3.33301 -9.83301 -7.83301 -17.5 -13.5s-24.5 -15.834 -50.5 -30.501s-53 -27.667 -81 -39s-63.5 -21.5 -106.5 -30.5s-86.5 -13.5 -130.5 -13.5c-96.667 0 -177.834 24.667 -243.501 74
s-109.167 116 -130.5 200c-38 -78 -96.667 -143.333 -176 -196s-173 -79 -281 -79c-103.333 0 -186 23.333 -248 70s-93 111 -93 193c0 16.667 0.666992 29.667 2 39c6.66699 54 21.334 100 44.001 138s50.667 68.5 84 91.5s76.833 41 130.5 54s108.5 21.667 164.5 26
s124.333 6.5 205 6.5h135c2.66699 20.667 4 42.667 4 66c0 83.333 -21.333 150 -64 200s-104.334 75 -185.001 75c-111.333 0 -227 -28 -347 -84l-32 105c129.333 62.667 265 94 407 94c86 0 159.167 -22.167 219.5 -66.5s96.5 -105.166 108.5 -182.499
c44 76 102.167 136.5 174.5 181.5s151.166 67.5 236.499 67.5zM425 93c113.333 0 203.5 37.667 270.5 113s107.833 172 122.5 290h-188c-141.333 0 -245 -14.333 -311 -43s-104.333 -84 -115 -166c-1.33301 -12 -2 -21 -2 -27c0 -56.667 20.833 -98.667 62.5 -126
s95.167 -41 160.5 -41zM981 595l615 -0.00195312l1 23c0 2.66699 0.166992 6.83398 0.5 12.501s0.5 9.83398 0.5 12.501c0 38.667 -5 75 -15 109s-25.167 65.167 -45.5 93.5s-47.666 50.833 -81.999 67.5s-73.833 25 -118.5 25c-46.667 0 -90.834 -10 -132.501 -30
s-77.334 -46.333 -107.001 -79s-54.667 -69.167 -75 -109.5s-34.166 -81.833 -41.499 -124.5z" />
    <glyph glyph-name="Gcaron" unicode="&#x1e6;" horiz-adv-x="1520" 
d="M885 1615l-191 309h121l146 -226l206 226h128l-266 -309h-144zM747 -21c-206.667 0 -366.501 54 -479.501 162s-169.5 255.667 -169.5 443c0 36 2.66699 76.333 8 121c14 114 44.833 219.167 92.5 315.5s107.667 178.333 180 246s157 120.334 254 158.001
s200.5 56.5 310.5 56.5c184 0 336 -48.667 456 -146l-75 -105c-116 85.333 -247.333 128 -394 128c-178 0 -328.167 -59.833 -450.5 -179.5s-195.166 -276.167 -218.499 -469.5c-4.66699 -34.667 -7 -70.334 -7 -107.001c0 -154.667 44.333 -276.667 133 -366
s215 -134 379 -134c148 0 272.667 20.333 374 61l57 461h-389l16 125h531l-82 -667c-154 -68.667 -329.333 -103 -526 -103z" />
    <glyph glyph-name="gcaron" unicode="&#x1e7;" horiz-adv-x="1268" 
d="M472 -431c-129.333 0 -247.666 25.666 -354.999 76.999l36 123c104.667 -55.333 214.667 -83 330 -83c118.667 0 215.334 33.667 290.001 101s120.667 171.666 138 312.999l14 114c-36.667 -66 -89.167 -118.333 -157.5 -157s-145.833 -58 -232.5 -58
c-127.333 0 -228.666 38 -303.999 114s-113 180 -113 312c0 28.667 2 58.667 6 90c20 162 79 292 177 390s221.667 147 371 147c83.333 0 153.5 -19.167 210.5 -57.5s97.167 -88.166 120.5 -149.499l29 181h142c-20.667 -118 -33.334 -195.667 -38.001 -233l-81 -666
c-22.667 -177.333 -84.834 -314.666 -186.501 -411.999s-233.834 -146 -396.501 -146zM971 600.999c0 103.333 -26.333 185.002 -79 245.002s-126.667 90 -222 90c-118 0 -215.167 -46.833 -291.5 -140.5s-114.5 -213.834 -114.5 -360.501
c0 -101.333 25.5 -180.5 76.5 -237.5s122.5 -85.5 214.5 -85.5c124 0 224.333 45.167 301 135.5s115 208.166 115 353.499zM605 1185l-191 309h121l146 -226l206 226h128l-266 -309h-144z" />
    <glyph glyph-name="uni01E8" unicode="&#x1e8;" horiz-adv-x="1264" 
d="M699 1615l-191 309h121l146 -226l206 226h128l-266 -309h-144zM124 0l178 1456h149l-81 -669l752 669h185l-787 -700l655 -756h-184l-631 719l-87 -719h-149z" />
    <glyph glyph-name="uni01E9" unicode="&#x1e9;" horiz-adv-x="1078" 
d="M93 0l184 1501h141l-114 -933l552 458h191l-598 -486l511 -540h-186l-477 510l-63 -510h-141zM663 1185l-191 309h121l146 -226l206 226h128l-266 -309h-144z" />
    <glyph glyph-name="uni01EA" unicode="&#x1ea;" horiz-adv-x="1599" 
d="M727 -436c-60.667 0 -111 15.668 -151 47.001s-60 72.666 -60 123.999c0 9.33301 0.333008 16.666 1 21.999c6 46.667 29.333 92.167 70 136.5s91.334 83.166 152.001 116.499l93 -3c-52 -34 -94.333 -72.667 -127 -116s-51 -81.666 -55 -114.999
c-0.666992 -3.33301 -1 -8.66602 -1 -15.999c0 -28 9.66699 -50.167 29 -66.5s46.666 -24.5 81.999 -24.5c31.333 0 67.333 6 108 18l-13 -104c-44 -12.667 -86.667 -19 -128 -19zM724 102.001c167.333 0 304.501 56.001 411.501 168.001s172.167 264 195.5 456
c5.33301 46 8 87.333 8 124c0 157.333 -39.833 281.333 -119.5 372s-193.167 136 -340.5 136c-166.667 0 -304.834 -57.5 -414.501 -172.5s-176.167 -268.167 -199.5 -459.5c-5.33301 -44.667 -8 -84.667 -8 -120c0 -156.667 40.667 -279.834 122 -369.501
s196.333 -134.5 345 -134.5zM710.001 -20.998c-191.333 0 -340.834 54.999 -448.501 164.999s-161.5 260.333 -161.5 451c0 47.333 2.66699 91 8 131c28 228.667 112.667 411.667 254 549s319 206 533 206c188 0 335.5 -56.167 442.5 -168.5s160.5 -264.166 160.5 -455.499
c0 -47.333 -2.66699 -91 -8 -131c-27.333 -228 -111.166 -409.5 -251.499 -544.5s-316.5 -202.5 -528.5 -202.5z" />
    <glyph glyph-name="uni01EB" unicode="&#x1eb;" horiz-adv-x="1244" 
d="M524 -436c-60.667 0 -111 15.668 -151 47.001s-60 72.666 -60 123.999c0 9.33301 0.333008 16.666 1 21.999c6 46.667 29.333 92.167 70 136.5s91.334 83.166 152.001 116.499l93 -3c-52 -34 -94.333 -72.667 -127 -116s-51 -81.666 -55 -114.999
c-0.666992 -3.33301 -1 -8.66602 -1 -15.999c0 -28 9.66699 -50.167 29 -66.5s46.666 -24.5 81.999 -24.5c31.333 0 67.333 6 108 18l-13 -104c-44 -12.667 -86.667 -19 -128 -19zM1004 591.001c0 107.333 -28.332 191.667 -84.999 253s-138.334 92 -245.001 92
c-119.333 0 -216.833 -38.333 -292.5 -115s-121.5 -180 -137.5 -310c-3.33301 -28.667 -5 -54 -5 -76c0 -105.333 28.5 -188.333 85.5 -249s139.167 -91 246.5 -91c131.333 0 236.333 45.667 315 137s118 211 118 359zM557.001 -20.998
c-146.667 0 -260.834 40.166 -342.501 120.499s-122.5 188.5 -122.5 324.5c0 28 2 57 6 87c20 163.333 83.167 294.333 189.5 393s240.5 148 402.5 148c145.333 0 258.5 -40.5 339.5 -121.5s121.5 -190.5 121.5 -328.5c0 -29.333 -2 -59.666 -6 -90.999
c-20 -160 -82.667 -288.667 -188 -386s-238.666 -146 -399.999 -146z" />
    <glyph glyph-name="uni01F0" unicode="&#x1f0;" horiz-adv-x="503" 
d="M-70 -434c-46 0 -82.6689 3.3291 -110.002 9.99609l14 127c28.667 -5.33301 53.334 -8 74.001 -8c71.333 0 127 26.333 167 79s67 135.667 81 249l123 1003h144l-113 -917c-4.66699 -38.667 -9.66699 -73.5 -15 -104.5s-12.833 -66.167 -22.5 -105.5
s-20.667 -73.666 -33 -102.999s-28.166 -59.166 -47.499 -89.499s-41 -55.166 -65 -74.499s-52.833 -35.166 -86.5 -47.499s-70.5 -18.5 -110.5 -18.5zM303.998 1185l-191 309h121l146 -226l206 226h128l-266 -309h-144z" />
    <glyph glyph-name="uni01F1" unicode="&#x1f1;" horiz-adv-x="2714" 
d="M1558 0l9 82l926 1250h-739l15 124h931l-9 -78l-930 -1254h772l-15 -124h-960zM288 124h265c204.667 0 366 51 484 153s189 249.333 213 442c5.33301 44.667 8 84.667 8 120c0 328.667 -198.667 493 -596 493h-225zM124 0l177.999 1456h366
c244 0 429.5 -50.333 556.5 -151s190.5 -251.667 190.5 -453c0 -41.333 -3 -85.666 -9 -132.999c-28 -232.667 -116.667 -410.667 -266 -534s-351.666 -185 -606.999 -185h-409z" />
    <glyph glyph-name="uni01F2" unicode="&#x1f2;" horiz-adv-x="2483" 
d="M1565 0l10 79l690 831h-568l14 116h749l-9 -77l-688 -834h587l-14 -115h-771zM288 124h265c204.667 0 366 51 484 153s189 249.333 213 442c5.33301 44.667 8 84.667 8 120c0 328.667 -198.667 493 -596 493h-225zM124 0l177.999 1456h366
c244 0 429.5 -50.333 556.5 -151s190.5 -251.667 190.5 -453c0 -41.333 -3 -85.666 -9 -132.999c-28 -232.667 -116.667 -410.667 -266 -534s-351.666 -185 -606.999 -185h-409z" />
    <glyph glyph-name="uni01F3" unicode="&#x1f3;" horiz-adv-x="2212" 
d="M1294 0l10 79l690 831h-568l14 116h749l-9 -77l-688 -834h587l-14 -115h-771zM608 1052c84.667 0 157.5 -20.499 218.5 -61.499s101.167 -92.833 120.5 -155.5l81 666h142l-152 -1234c-8 -67.333 -16.333 -156.333 -25 -267h-143l21 207
c-32.667 -66.667 -84.667 -121.334 -156 -164.001s-152.333 -64 -243 -64c-124.667 0 -223.667 39.5 -297 118.5s-110 186.5 -110 322.5c0 185.333 51 337 153 455s232 177 390 177zM915 598.001c0 103.333 -27.333 185.5 -82 246.5s-131 91.5 -229 91.5
c-118 0 -213.167 -47 -285.5 -141s-108.5 -215.333 -108.5 -364c0 -104 24.833 -186 74.5 -246s121.167 -90 214.5 -90c122 0 221.833 46.667 299.5 140s116.5 214.333 116.5 363z" />
    <glyph glyph-name="uni01F4" unicode="&#x1f4;" horiz-adv-x="1520" 
d="M904 1603l255 321h185l-335 -321h-105zM747 -21c-206.667 0 -366.501 54 -479.501 162s-169.5 255.667 -169.5 443c0 36 2.66699 76.333 8 121c14 114 44.833 219.167 92.5 315.5s107.667 178.333 180 246s157 120.334 254 158.001s200.5 56.5 310.5 56.5
c184 0 336 -48.667 456 -146l-75 -105c-116 85.333 -247.333 128 -394 128c-178 0 -328.167 -59.833 -450.5 -179.5s-195.166 -276.167 -218.499 -469.5c-4.66699 -34.667 -7 -70.334 -7 -107.001c0 -154.667 44.333 -276.667 133 -366s215 -134 379 -134
c148 0 272.667 20.333 374 61l57 461h-389l16 125h531l-82 -667c-154 -68.667 -329.333 -103 -526 -103z" />
    <glyph glyph-name="uni01F5" unicode="&#x1f5;" horiz-adv-x="1268" 
d="M472 -431c-129.333 0 -247.666 25.666 -354.999 76.999l36 123c104.667 -55.333 214.667 -83 330 -83c118.667 0 215.334 33.667 290.001 101s120.667 171.666 138 312.999l14 114c-36.667 -66 -89.167 -118.333 -157.5 -157s-145.833 -58 -232.5 -58
c-127.333 0 -228.666 38 -303.999 114s-113 180 -113 312c0 28.667 2 58.667 6 90c20 162 79 292 177 390s221.667 147 371 147c83.333 0 153.5 -19.167 210.5 -57.5s97.167 -88.166 120.5 -149.499l29 181h142c-20.667 -118 -33.334 -195.667 -38.001 -233l-81 -666
c-22.667 -177.333 -84.834 -314.666 -186.501 -411.999s-233.834 -146 -396.501 -146zM971 600.999c0 103.333 -26.333 185.002 -79 245.002s-126.667 90 -222 90c-118 0 -215.167 -46.833 -291.5 -140.5s-114.5 -213.834 -114.5 -360.501
c0 -101.333 25.5 -180.5 76.5 -237.5s122.5 -85.5 214.5 -85.5c124 0 224.333 45.167 301 135.5s115 208.166 115 353.499zM625 1173l255 321h185l-335 -321h-105z" />
    <glyph glyph-name="uni01F8" unicode="&#x1f8;" horiz-adv-x="1585" 
d="M866 1604l-288 320h187l205 -320h-104zM124 0l178 1456h155l611 -1073l95 -181l154 1254h144l-178 -1456h-154l-614 1061l-96 184l-152 -1245h-143z" />
    <glyph glyph-name="uni01F9" unicode="&#x1f9;" horiz-adv-x="1251" 
d="M125 0l99.001 810.999c3.33301 28.667 6.5 60.834 9.5 96.501s5.16699 64.5 6.5 86.5l2 32h140l-17 -184c43.333 67.333 101 119.166 173 155.499s148.667 54.5 230 54.5c216.667 0 325 -114 325 -342c0 -36.667 -2.33301 -73.334 -7 -110.001l-74 -600h-142l75 600
c4 34.667 6 66.667 6 96c0 80.667 -16.833 140.834 -50.5 180.501s-87.834 59.5 -162.501 59.5c-88.667 0 -169.5 -25.667 -242.5 -77s-122.5 -117.666 -148.5 -198.999l-81 -660h-141zM698.001 1174l-288 320h187l205 -320h-104z" />
    <glyph glyph-name="Aringacute" unicode="&#x1fa;" horiz-adv-x="1364" 
d="M913 1762c0 28 -8.66699 51.167 -26 69.5s-40 27.5 -68 27.5c-31.333 0 -59.166 -12 -83.499 -36s-36.5 -53.667 -36.5 -89c0 -28 8.66699 -51.167 26 -69.5s39.666 -27.5 66.999 -27.5c32 0 60.167 12 84.5 36s36.5 53.667 36.5 89zM829 1930
c48.667 0 88.667 -14.834 120 -44.501s47 -67.5 47 -113.5c0 -59.333 -21 -108.5 -63 -147.5s-91.667 -58.5 -149 -58.5c-49.333 0 -89.5 14.833 -120.5 44.5s-46.5 67.834 -46.5 114.501c0 58.667 21.167 107.5 63.5 146.5s91.833 58.5 148.5 58.5zM794 2043l255 321h185
l-335 -321h-105zM-39 -0.000976562l725 1456h169l371 -1456h-161l-98 394h-649l-193 -394h-164zM372 508.999l567 0.000976562c-64.667 285.333 -126.667 552.666 -186 801.999c-84.667 -178.667 -211.667 -446 -381 -802z" />
    <glyph glyph-name="aringacute" unicode="&#x1fb;" horiz-adv-x="1263" 
d="M795 1332c0 28 -8.66699 51.167 -26 69.5s-40 27.5 -68 27.5c-31.333 0 -59.166 -12 -83.499 -36s-36.5 -53.667 -36.5 -89c0 -28 8.66699 -51.167 26 -69.5s39.666 -27.5 66.999 -27.5c32 0 60.167 12 84.5 36s36.5 53.667 36.5 89zM711 1500
c48.667 0 88.667 -14.834 120 -44.501s47 -67.5 47 -113.5c0 -59.333 -21 -108.5 -63 -147.5s-91.667 -58.5 -149 -58.5c-49.333 0 -89.5 14.833 -120.5 44.5s-46.5 67.834 -46.5 114.501c0 58.667 21.167 107.5 63.5 146.5s91.833 58.5 148.5 58.5zM676 1613l255 321h185
l-335 -321h-105zM651 1052c79.333 0 147.667 -19.332 205 -57.999s97 -88.667 119 -150l23 182h140l-126 -1026h-141l24 195c-39.333 -66.667 -91.666 -119.334 -156.999 -158.001s-139 -58 -221 -58c-134 0 -238.167 40.833 -312.5 122.5s-111.5 189.5 -111.5 323.5
c0 182 52.667 332 158 450s238.666 177 399.999 177zM237.001 439c0 -105.333 26.667 -189 80 -251s130 -93 230 -93c108.667 0 197.167 38.333 265.5 115s110.5 180.667 126.5 312c3.33301 31.333 5 58 5 80c0 102.667 -25.667 184 -77 244s-124 90 -218 90
c-123.333 0 -222.833 -46.333 -298.5 -139s-113.5 -212 -113.5 -358z" />
    <glyph glyph-name="AEacute" unicode="&#x1fc;" horiz-adv-x="1961" 
d="M1367 1603l255 321h185l-335 -321h-105zM-59 0l1017 1456h963l-15 -126h-711l-21 -518h617l-14 -117h-609l-19 -572h633l-14 -123h-758l14 430h-632l-297 -430h-154zM461 542h564l37 788h-57z" />
    <glyph glyph-name="aeacute" unicode="&#x1fd;" horiz-adv-x="1801" 
d="M1349 1052c116.667 0 207.334 -36.667 272.001 -110s97 -176 97 -308c0 -40 -3.66699 -85.667 -11 -137h-739l-4 -31c-2 -20.667 -3 -41.334 -3 -62.001c0 -93.333 23.833 -168.166 71.5 -224.499s121.167 -84.5 220.5 -84.5c56.667 0 112.834 9.5 168.501 28.5
s97.167 37.833 124.5 56.5l41 28l33 -102c-4 -3.33301 -9.83301 -7.83301 -17.5 -13.5s-24.5 -15.834 -50.5 -30.501s-53 -27.667 -81 -39s-63.5 -21.5 -106.5 -30.5s-86.5 -13.5 -130.5 -13.5c-96.667 0 -177.834 24.667 -243.501 74s-109.167 116 -130.5 200
c-38 -78 -96.667 -143.333 -176 -196s-173 -79 -281 -79c-103.333 0 -186 23.333 -248 70s-93 111 -93 193c0 16.667 0.666992 29.667 2 39c6.66699 54 21.334 100 44.001 138s50.667 68.5 84 91.5s76.833 41 130.5 54s108.5 21.667 164.5 26s124.333 6.5 205 6.5h135
c2.66699 20.667 4 42.667 4 66c0 83.333 -21.333 150 -64 200s-104.334 75 -185.001 75c-111.333 0 -227 -28 -347 -84l-32 105c129.333 62.667 265 94 407 94c86 0 159.167 -22.167 219.5 -66.5s96.5 -105.166 108.5 -182.499c44 76 102.167 136.5 174.5 181.5
s151.166 67.5 236.499 67.5zM425 93c113.333 0 203.5 37.667 270.5 113s107.833 172 122.5 290h-188c-141.333 0 -245 -14.333 -311 -43s-104.333 -84 -115 -166c-1.33301 -12 -2 -21 -2 -27c0 -56.667 20.833 -98.667 62.5 -126s95.167 -41 160.5 -41zM981 595
l615 -0.00195312l1 23c0 2.66699 0.166992 6.83398 0.5 12.501s0.5 9.83398 0.5 12.501c0 38.667 -5 75 -15 109s-25.167 65.167 -45.5 93.5s-47.666 50.833 -81.999 67.5s-73.833 25 -118.5 25c-46.667 0 -90.834 -10 -132.501 -30s-77.334 -46.333 -107.001 -79
s-54.667 -69.167 -75 -109.5s-34.166 -81.833 -41.499 -124.5zM945 1173l255 321h185l-335 -321h-105z" />
    <glyph glyph-name="Oslashacute" unicode="&#x1fe;" horiz-adv-x="1599" 
d="M862 1603l255 321h185l-335 -321h-105zM415 203l723 1087c-71.333 45.333 -157.666 68 -258.999 68c-166.667 0 -304.834 -57.5 -414.501 -172.5s-176.167 -268.167 -199.5 -459.5c-5.33301 -44.667 -8 -84.667 -8 -120c0 -180 52.667 -314.333 158 -403zM724 102
c167.333 0 304.5 56 411.5 168s172.167 264 195.5 456c5.33301 46 8 87.333 8 124c0 170 -45.333 299.667 -136 389l-719 -1083c68.667 -36 148.667 -54 240 -54zM285 -143l-73.002 41.001l123 184c-76 52 -134.167 121.667 -174.5 209s-60.5 188.666 -60.5 303.999
c0 47.333 2.66699 91 8 131c28 228.667 112.667 411.667 254 549s319 206 533 206c122.667 0 229.334 -25 320.001 -75l122 183l71 -41l-124 -187c69.333 -54 122.333 -124 159 -210s55 -184 55 -294c0 -47.333 -2.66699 -91 -8 -131
c-27.333 -228 -111.166 -409.5 -251.499 -544.5s-316.5 -202.5 -528.5 -202.5c-114 0 -215 20.667 -303 62z" />
    <glyph glyph-name="oslashacute" unicode="&#x1ff;" horiz-adv-x="1242" 
d="M247 -221l-61.002 27.998l127 224c-71.333 35.333 -126 86.833 -164 154.5s-57 147.167 -57 238.5c0 28 2 57 6 87c20 163.333 83.167 294.333 189.5 393s240.5 148 402.5 148c67.333 0 129 -9.33301 185 -28l121 214l64 -30l-120 -212
c68.667 -36.667 121 -88.667 157 -156s54 -146.666 54 -237.999c0 -29.333 -2 -59.666 -6 -90.999c-20 -160 -82.667 -288.667 -188 -386s-238.666 -146 -399.999 -146c-65.333 0 -125.666 8.66699 -180.999 26zM376.998 143.998l435 769c-40.667 15.333 -86.667 23 -138 23
c-119.333 0 -216.833 -38.333 -292.5 -115s-121.5 -180 -137.5 -310c-3.33301 -28.667 -5 -54 -5 -76c0 -136.667 46 -233.667 138 -291zM437.998 114.998c40 -13.333 84.333 -20 133 -20c131.333 0 236.333 45.667 315 137s118 211 118 359
c0 135.333 -43.333 232.333 -130 291zM657.998 1173l255 321h185l-335 -321h-105z" />
    <glyph glyph-name="uni0200" unicode="&#x200;" horiz-adv-x="1364" 
d="M609 1604l-249 353h148l193 -353h-92zM915 1604l-237 353h148l179 -353h-90zM-39 0l725 1456h169l371 -1456h-161l-98 394h-649l-193 -394h-164zM372 509l567 0.000976562c-64.667 285.333 -126.667 552.666 -186 801.999c-84.667 -178.667 -211.667 -446 -381 -802z" />
    <glyph glyph-name="uni0201" unicode="&#x201;" horiz-adv-x="1263" 
d="M491 1174l-249 353h148l193 -353h-92zM797 1174l-237 353h148l179 -353h-90zM651 1052c79.333 0 147.667 -19.332 205 -57.999s97 -88.667 119 -150l23 182h140l-126 -1026h-141l24 195c-39.333 -66.667 -91.666 -119.334 -156.999 -158.001s-139 -58 -221 -58
c-134 0 -238.167 40.833 -312.5 122.5s-111.5 189.5 -111.5 323.5c0 182 52.667 332 158 450s238.666 177 399.999 177zM237.001 439.001c0 -105.333 26.667 -189 80 -251s130 -93 230 -93c108.667 0 197.167 38.333 265.5 115s110.5 180.667 126.5 312
c3.33301 31.333 5 58 5 80c0 102.667 -25.667 184 -77 244s-124 90 -218 90c-123.333 0 -222.833 -46.333 -298.5 -139s-113.5 -212 -113.5 -358z" />
    <glyph glyph-name="uni0202" unicode="&#x202;" horiz-adv-x="1364" 
d="M529 1641c12.667 71.333 47.5 126.833 104.5 166.5s119.833 59.5 188.5 59.5c67.333 0 124.5 -18.5 171.5 -55.5s70.5 -89.167 70.5 -156.5v-14h-85c-0.666992 42 -17.334 74.833 -50.001 98.5s-71.667 35.5 -117 35.5s-86.666 -11.667 -123.999 -35
s-61.333 -56.333 -72 -99h-87zM-39 0l725 1456h169l371 -1456h-161l-98 394h-649l-193 -394h-164zM372 509l567 0.000976562c-64.667 285.333 -126.667 552.666 -186 801.999c-84.667 -178.667 -211.667 -446 -381 -802z" />
    <glyph glyph-name="uni0203" unicode="&#x203;" horiz-adv-x="1263" 
d="M411 1211c12.667 71.333 47.5 126.833 104.5 166.5s119.833 59.5 188.5 59.5c67.333 0 124.5 -18.5 171.5 -55.5s70.5 -89.167 70.5 -156.5v-14h-85c-0.666992 42 -17.334 74.833 -50.001 98.5s-71.667 35.5 -117 35.5s-86.666 -11.667 -123.999 -35
s-61.333 -56.333 -72 -99h-87zM651 1052c79.333 0 147.667 -19.332 205 -57.999s97 -88.667 119 -150l23 182h140l-126 -1026h-141l24 195c-39.333 -66.667 -91.666 -119.334 -156.999 -158.001s-139 -58 -221 -58c-134 0 -238.167 40.833 -312.5 122.5
s-111.5 189.5 -111.5 323.5c0 182 52.667 332 158 450s238.666 177 399.999 177zM237.001 439.001c0 -105.333 26.667 -189 80 -251s130 -93 230 -93c108.667 0 197.167 38.333 265.5 115s110.5 180.667 126.5 312c3.33301 31.333 5 58 5 80c0 102.667 -25.667 184 -77 244
s-124 90 -218 90c-123.333 0 -222.833 -46.333 -298.5 -139s-113.5 -212 -113.5 -358z" />
    <glyph glyph-name="uni0204" unicode="&#x204;" horiz-adv-x="1212" 
d="M569 1604l-249 353h148l193 -353h-92zM875 1604l-237 353h148l179 -353h-90zM124 0l178 1456h841l-15 -124h-691l-64 -520h653l-15 -124h-654l-70 -564h722l-14 -124h-871z" />
    <glyph glyph-name="uni0205" unicode="&#x205;" horiz-adv-x="1149" 
d="M489 1174l-249 353h148l193 -353h-92zM795 1174l-237 353h148l179 -353h-90zM1046 497h-805c-2.66699 -20.667 -4 -43 -4 -67c0 -105.333 30.333 -187.5 91 -246.5s144 -88.5 250 -88.5c128 0 244.667 38 350 114l34 -102c-56 -40.667 -119.167 -72.167 -189.5 -94.5
s-141.5 -33.5 -213.5 -33.5c-145.333 0 -259.5 39.833 -342.5 119.5s-124.5 187.834 -124.5 324.501c0 27.333 2 56 6 86c19.333 162 80.833 293 184.5 393s231.167 150 382.5 150c126 0 223.333 -37 292 -111s103 -174.333 103 -301
c0 -50.667 -4.66699 -98.334 -14 -143.001zM259 596l675 -0.000976562c0.666992 8 1 19.333 1 34c0 96.667 -25 172.167 -75 226.5s-118.667 81.5 -206 81.5c-96.667 0 -180.5 -30.667 -251.5 -92s-118.833 -144.666 -143.5 -249.999z" />
    <glyph glyph-name="uni0206" unicode="&#x206;" horiz-adv-x="1212" 
d="M489 1641c12.667 71.333 47.5 126.833 104.5 166.5s119.833 59.5 188.5 59.5c67.333 0 124.5 -18.5 171.5 -55.5s70.5 -89.167 70.5 -156.5v-14h-85c-0.666992 42 -17.334 74.833 -50.001 98.5s-71.667 35.5 -117 35.5s-86.666 -11.667 -123.999 -35
s-61.333 -56.333 -72 -99h-87zM124 0l178 1456h841l-15 -124h-691l-64 -520h653l-15 -124h-654l-70 -564h722l-14 -124h-871z" />
    <glyph glyph-name="uni0207" unicode="&#x207;" horiz-adv-x="1149" 
d="M409 1211c12.667 71.333 47.5 126.833 104.5 166.5s119.833 59.5 188.5 59.5c67.333 0 124.5 -18.5 171.5 -55.5s70.5 -89.167 70.5 -156.5v-14h-85c-0.666992 42 -17.334 74.833 -50.001 98.5s-71.667 35.5 -117 35.5s-86.666 -11.667 -123.999 -35
s-61.333 -56.333 -72 -99h-87zM1046 497h-805c-2.66699 -20.667 -4 -43 -4 -67c0 -105.333 30.333 -187.5 91 -246.5s144 -88.5 250 -88.5c128 0 244.667 38 350 114l34 -102c-56 -40.667 -119.167 -72.167 -189.5 -94.5s-141.5 -33.5 -213.5 -33.5
c-145.333 0 -259.5 39.833 -342.5 119.5s-124.5 187.834 -124.5 324.501c0 27.333 2 56 6 86c19.333 162 80.833 293 184.5 393s231.167 150 382.5 150c126 0 223.333 -37 292 -111s103 -174.333 103 -301c0 -50.667 -4.66699 -98.334 -14 -143.001zM259 596
l675 -0.000976562c0.666992 8 1 19.333 1 34c0 96.667 -25 172.167 -75 226.5s-118.667 81.5 -206 81.5c-96.667 0 -180.5 -30.667 -251.5 -92s-118.833 -144.666 -143.5 -249.999z" />
    <glyph glyph-name="uni0208" unicode="&#x208;" horiz-adv-x="597" 
d="M236 1604l-249 353h148l193 -353h-92zM542 1604l-237 353h148l179 -353h-90zM141 0l178 1456h150l-178 -1456h-150z" />
    <glyph glyph-name="uni0209" unicode="&#x209;" horiz-adv-x="503" 
d="M154 1174l-249 353h148l193 -353h-92zM460 1174l-237 353h148l179 -353h-90zM119 0l125 1026h143l-125 -1026h-143z" />
    <glyph glyph-name="uni020A" unicode="&#x20a;" horiz-adv-x="597" 
d="M156 1641c12.667 71.333 47.5 126.833 104.5 166.5s119.833 59.5 188.5 59.5c67.333 0 124.5 -18.5 171.5 -55.5s70.5 -89.167 70.5 -156.5v-14h-85c-0.666992 42 -17.334 74.833 -50.001 98.5s-71.667 35.5 -117 35.5s-86.666 -11.667 -123.999 -35
s-61.333 -56.333 -72 -99h-87zM141 0l178 1456h150l-178 -1456h-150z" />
    <glyph glyph-name="uni020B" unicode="&#x20b;" horiz-adv-x="503" 
d="M73 1211c12.667 71.333 47.5 126.833 104.5 166.5s119.833 59.5 188.5 59.5c67.333 0 124.5 -18.5 171.5 -55.5s70.5 -89.167 70.5 -156.5v-14h-85c-0.666992 42 -17.334 74.833 -50.001 98.5s-71.667 35.5 -117 35.5s-86.666 -11.667 -123.999 -35
s-61.333 -56.333 -72 -99h-87zM119 0l125 1026h143l-125 -1026h-143z" />
    <glyph glyph-name="uni020C" unicode="&#x20c;" horiz-adv-x="1599" 
d="M729 1604l-249 353h148l193 -353h-92zM1035 1604l-237 353h148l179 -353h-90zM724 102c167.333 0 304.501 56.001 411.501 168.001s172.167 264 195.5 456c5.33301 46 8 87.333 8 124c0 157.333 -39.833 281.333 -119.5 372s-193.167 136 -340.5 136
c-166.667 0 -304.834 -57.5 -414.501 -172.5s-176.167 -268.167 -199.5 -459.5c-5.33301 -44.667 -8 -84.667 -8 -120c0 -156.667 40.667 -279.834 122 -369.501s196.333 -134.5 345 -134.5zM710.001 -20.999c-191.333 0 -340.834 54.999 -448.501 164.999
s-161.5 260.333 -161.5 451c0 47.333 2.66699 91 8 131c28 228.667 112.667 411.667 254 549s319 206 533 206c188 0 335.5 -56.167 442.5 -168.5s160.5 -264.166 160.5 -455.499c0 -47.333 -2.66699 -91 -8 -131c-27.333 -228 -111.166 -409.5 -251.499 -544.5
s-316.5 -202.5 -528.5 -202.5z" />
    <glyph glyph-name="uni020D" unicode="&#x20d;" horiz-adv-x="1244" 
d="M526 1174l-249 353h148l193 -353h-92zM832 1174l-237 353h148l179 -353h-90zM1004 591c0 107.333 -28.332 191.667 -84.999 253s-138.334 92 -245.001 92c-119.333 0 -216.833 -38.333 -292.5 -115s-121.5 -180 -137.5 -310c-3.33301 -28.667 -5 -54 -5 -76
c0 -105.333 28.5 -188.333 85.5 -249s139.167 -91 246.5 -91c131.333 0 236.333 45.667 315 137s118 211 118 359zM557.001 -20.999c-146.667 0 -260.834 40.166 -342.501 120.499s-122.5 188.5 -122.5 324.5c0 28 2 57 6 87c20 163.333 83.167 294.333 189.5 393
s240.5 148 402.5 148c145.333 0 258.5 -40.5 339.5 -121.5s121.5 -190.5 121.5 -328.5c0 -29.333 -2 -59.666 -6 -90.999c-20 -160 -82.667 -288.667 -188 -386s-238.666 -146 -399.999 -146z" />
    <glyph glyph-name="uni020E" unicode="&#x20e;" horiz-adv-x="1599" 
d="M649 1641c12.667 71.333 47.5 126.833 104.5 166.5s119.833 59.5 188.5 59.5c67.333 0 124.5 -18.5 171.5 -55.5s70.5 -89.167 70.5 -156.5v-14h-85c-0.666992 42 -17.334 74.833 -50.001 98.5s-71.667 35.5 -117 35.5s-86.666 -11.667 -123.999 -35
s-61.333 -56.333 -72 -99h-87zM724 102c167.333 0 304.501 56.001 411.501 168.001s172.167 264 195.5 456c5.33301 46 8 87.333 8 124c0 157.333 -39.833 281.333 -119.5 372s-193.167 136 -340.5 136c-166.667 0 -304.834 -57.5 -414.501 -172.5
s-176.167 -268.167 -199.5 -459.5c-5.33301 -44.667 -8 -84.667 -8 -120c0 -156.667 40.667 -279.834 122 -369.501s196.333 -134.5 345 -134.5zM710.001 -20.999c-191.333 0 -340.834 54.999 -448.501 164.999s-161.5 260.333 -161.5 451c0 47.333 2.66699 91 8 131
c28 228.667 112.667 411.667 254 549s319 206 533 206c188 0 335.5 -56.167 442.5 -168.5s160.5 -264.166 160.5 -455.499c0 -47.333 -2.66699 -91 -8 -131c-27.333 -228 -111.166 -409.5 -251.499 -544.5s-316.5 -202.5 -528.5 -202.5z" />
    <glyph glyph-name="uni020F" unicode="&#x20f;" horiz-adv-x="1244" 
d="M445 1211c12.667 71.333 47.5 126.833 104.5 166.5s119.833 59.5 188.5 59.5c67.333 0 124.5 -18.5 171.5 -55.5s70.5 -89.167 70.5 -156.5v-14h-85c-0.666992 42 -17.334 74.833 -50.001 98.5s-71.667 35.5 -117 35.5s-86.666 -11.667 -123.999 -35
s-61.333 -56.333 -72 -99h-87zM1004 591c0 107.333 -28.332 191.667 -84.999 253s-138.334 92 -245.001 92c-119.333 0 -216.833 -38.333 -292.5 -115s-121.5 -180 -137.5 -310c-3.33301 -28.667 -5 -54 -5 -76c0 -105.333 28.5 -188.333 85.5 -249s139.167 -91 246.5 -91
c131.333 0 236.333 45.667 315 137s118 211 118 359zM557.001 -20.999c-146.667 0 -260.834 40.166 -342.501 120.499s-122.5 188.5 -122.5 324.5c0 28 2 57 6 87c20 163.333 83.167 294.333 189.5 393s240.5 148 402.5 148c145.333 0 258.5 -40.5 339.5 -121.5
s121.5 -190.5 121.5 -328.5c0 -29.333 -2 -59.666 -6 -90.999c-20 -160 -82.667 -288.667 -188 -386s-238.666 -146 -399.999 -146z" />
    </font>
</defs>
</svg>
