<?xml version="1.0" standalone="no"?>
<!DOCTYPE svg PUBLIC "-//W3C//DTD SVG 1.1//EN" "http://www.w3.org/Graphics/SVG/1.1/DTD/svg11.dtd" >
<svg>
<metadata>
Created by FontForge 20120731 at Fri Aug  1 16:50:31 2014
 By Alfred Xing
Digitized data Copyright (c) 2011-2014, vernon adams.
</metadata>
<defs>
<font id="Muli" horiz-adv-x="1399" >
  <font-face 
    font-family="Muli"
    font-weight="400"
    font-stretch="normal"
    units-per-em="2048"
    panose-1="2 0 5 3 0 0 0 0 0 0"
    ascent="1638"
    descent="-410"
    x-height="1026"
    cap-height="1456"
    bbox="-255 -607 4034 2412"
    underline-thickness="0"
    underline-position="0"
    unicode-range="U+000D-FB04"
  />
<missing-glyph horiz-adv-x="748" 
d="M68 0v1365h544v-1365h-544zM136 68h408v1229h-408v-1229z" />
    <glyph glyph-name=".notdef" horiz-adv-x="748" 
d="M68 0v1365h544v-1365h-544zM136 68h408v1229h-408v-1229z" />
    <glyph glyph-name="uni000D" unicode="&#xd;" horiz-adv-x="480" 
 />
    <glyph glyph-name="space" unicode=" " horiz-adv-x="596" 
 />
    <glyph glyph-name="exclam" unicode="!" horiz-adv-x="582" 
d="M249 377l-55 1079h218l-55 -1079h-108zM211 0v220h186v-220h-186z" />
    <glyph glyph-name="quotedbl" unicode="&#x22;" horiz-adv-x="932" 
d="M583 955l-43 501h190l-33 -501h-114zM247 955l-42 501h189l-34 -501h-113z" />
    <glyph glyph-name="numbersign" unicode="#" horiz-adv-x="1300" 
d="M497 608h255l54 282h-252zM241 42l86 441h-249l10 125h263l53 282h-262l11 125h275l80 416h150l-80 -416h253l79 416h148l-81 -416h237l-10 -125h-250l-54 -282h252l-11 -125h-265l-86 -441h-147l84 441h-252l-87 -441h-147z" />
    <glyph glyph-name="dollar" unicode="$" horiz-adv-x="1197" 
d="M590 -203l85.001 0.00292969v184c61.333 4.66699 117.5 16.667 168.5 36s95.833 45.333 134.5 78s68.834 73.667 90.501 123s32.5 104.666 32.5 165.999c0 59.333 -6.5 110.166 -19.5 152.499s-36 81.5 -69 117.5s-76.5 67.5 -130.5 94.5s-123 53.167 -207 78.5v493
c63.333 -4 120.666 -17.333 171.999 -40s92.666 -49 123.999 -79l95 129c-18 17.333 -36.5 33 -55.5 47s-44 28.833 -75 44.5s-68.667 28.667 -113 39s-93.5 17.166 -147.5 20.499v147h-85v-146c-88.667 -3.33301 -166.834 -19.5 -234.501 -48.5s-121.5 -72.333 -161.5 -130
s-60 -126.167 -60 -205.5c0 -115.333 31.833 -203.666 95.5 -264.999s165.167 -112 304.5 -152c6.66699 -2 25.334 -7.33301 56.001 -16v-526c-51.333 1.33301 -103.833 10.666 -157.5 27.999s-97.334 35.5 -131.001 54.5s-62.834 38.5 -87.501 58.5l-85 -138
c16 -15.333 37.333 -31.5 64 -48.5s59.334 -34.167 98.001 -51.5s84.334 -32 137.001 -44s106.667 -18.667 162 -20v-181zM675.001 144.003l0.000976562 493.996c20.667 -7.33301 39.667 -14.666 57 -21.999s33 -14.666 47 -21.999s26.5 -14.833 37.5 -22.5
s20.833 -15.5 29.5 -23.5s16.167 -16.667 22.5 -26s11.666 -18.666 15.999 -27.999s7.83301 -19.666 10.5 -30.999s4.5 -22.833 5.5 -34.5s1.5 -24.5 1.5 -38.5c0 -46.667 -8.33301 -87 -25 -121s-42 -61.5 -76 -82.5s-76 -35.167 -126 -42.5zM590.002 850.999
c-52.667 14.667 -95 29.5 -127 44.5s-57.5 32.667 -76.5 53s-32 42.333 -39 66s-10.5 53.5 -10.5 89.5c0 64 22.667 114.167 68 150.5s107 57.833 185 64.5v-468z" />
    <glyph glyph-name="percent" unicode="%" horiz-adv-x="1869" 
d="M1414 -19c-108.667 0 -193.5 35.8311 -254.5 107.498s-91.5 165.834 -91.5 282.501s31 211.5 93 284.5s147.333 109.5 256 109.5c108 0 192.167 -36.167 252.5 -108.5s90.5 -167.166 90.5 -284.499c0 -116.667 -30.667 -211 -92 -283s-146 -108 -254 -108zM1416 103.998
c123.333 0 185 89.333 185 268c0 180.667 -61.333 271 -184 271c-126 0 -189 -90.667 -189 -272c0 -178 62.667 -267 188 -267zM440 -0.00195312l845 1456h156l-847 -1456h-154zM455 691.998c-110 0 -195.166 34.668 -255.499 104.001s-90.5 164.333 -90.5 285
c0 120 30.667 215.667 92 287s146.666 107 255.999 107s194 -35.333 254 -106s90 -166.334 90 -287.001c0 -120 -30.5 -215 -91.5 -285s-145.833 -105 -254.5 -105zM456.001 813.999c123.333 0 185 89.667 185 269c0 180 -61.333 270 -184 270
c-125.333 0 -188 -90.333 -188 -271c0 -178.667 62.333 -268 187 -268z" />
    <glyph glyph-name="ampersand" unicode="&#x26;" horiz-adv-x="1536" 
d="M595 920c136.667 84.667 205 169.667 205 255c0 50 -16.333 87.667 -49 113s-70.667 38 -114 38c-48 0 -87.333 -13.167 -118 -39.5s-46 -63.5 -46 -111.5c0 -90 40.667 -175 122 -255zM627 138c72.667 0 135.498 13.166 188.498 39.499s103.833 64.833 152.5 115.5
l-407 436c-37.333 -20.667 -68.666 -40.167 -93.999 -58.5s-50.166 -40.166 -74.499 -65.499s-42.5 -54 -54.5 -86s-18 -67.333 -18 -106c0 -80.667 28.5 -146.667 85.5 -198s130.833 -77 221.5 -77zM628.998 -24.001c-94.667 0 -179.498 17.002 -254.498 51.002
s-134.5 84.167 -178.5 150.5s-66 144.166 -66 233.499c0 52.667 8.5 101 25.5 145s42.667 83.667 77 119s68 65.166 101 89.499s74.833 51.5 125.5 81.5c-54.667 60.667 -95.667 116 -123 166s-41 105.667 -41 167c0 94 31.667 167 95 219s143.333 78 240 78
c44.667 0 87.167 -6 127.5 -18s77.166 -29.5 110.499 -52.5s59.833 -53.5 79.5 -91.5s29.5 -81 29.5 -129c0 -72 -25.667 -139.333 -77 -202s-117.333 -118.667 -198 -168l359 -392c40 65.333 71.5 140.666 94.5 225.999s34.5 170 34.5 254l170 -28
c-3.33301 -103.333 -20.833 -206.666 -52.5 -309.999s-74.167 -194 -127.5 -272c100.667 -102 205 -166.333 313 -193l-122 -109c-91.333 14.667 -190 75.667 -296 183c-124.667 -132 -273.334 -198 -446.001 -198z" />
    <glyph glyph-name="quotesingle" unicode="'" horiz-adv-x="509" 
d="M199 936l-37 520h197l-28 -520h-132z" />
    <glyph glyph-name="parenleft" unicode="(" horiz-adv-x="635" 
d="M412 -173c-83.333 128 -149.833 263.502 -199.5 406.502s-74.5 286.167 -74.5 429.5c0 284 90 568.333 270 853h178c-176 -280 -264 -563.667 -264 -851c0 -134.667 23.833 -275.834 71.5 -423.501s112.167 -285.834 193.5 -414.501h-175z" />
    <glyph glyph-name="parenright" unicode=")" horiz-adv-x="635" 
d="M49 -193c176.667 279.333 265 563.331 265 851.998c0 134 -23.833 274.667 -71.5 422s-112.167 285.666 -193.5 414.999h175c83.333 -127.333 149.833 -262.666 199.5 -405.999s74.5 -286.666 74.5 -429.999c0 -285.333 -90 -569.666 -270 -852.999h-179z" />
    <glyph glyph-name="asterisk" unicode="*" horiz-adv-x="1112" 
d="M718 711l-162 263l-159 -258l-138 90l194 238l-270 89l55 142l253 -120l-30 302h170l-15 -302l235 120l68 -142l-263 -89l202 -246z" />
    <glyph glyph-name="plus" unicode="+" horiz-adv-x="1202" 
d="M514 103v415h-383v156h384v401h171v-401h386v-156h-386v-415h-172z" />
    <glyph glyph-name="comma" unicode="," horiz-adv-x="487" 
d="M72 -265l108 487h209l-167 -487h-150z" />
    <glyph glyph-name="hyphen" unicode="-" horiz-adv-x="679" 
d="M61 487v142h556v-142h-556z" />
    <glyph glyph-name="period" unicode="." horiz-adv-x="543" 
d="M151 0v225h235v-225h-235z" />
    <glyph glyph-name="slash" unicode="/" horiz-adv-x="910" 
d="M125 0l530 1456h171l-534 -1456h-167z" />
    <glyph glyph-name="zero" unicode="0" horiz-adv-x="1231" 
d="M620 -22c-106.667 0 -197.5 31.333 -272.5 94s-131 150.167 -168 262.5s-55.5 244.833 -55.5 397.5c0 239.333 42.333 424.166 127 554.499s208 195.5 370 195.5c160 0 281 -65.667 363 -197s123 -315.666 123 -552.999c0 -234 -41.333 -418.167 -124 -552.5
s-203.667 -201.5 -363 -201.5zM623 139c190.667 0 285.997 197.668 285.997 593.001c0 87.333 -5.16699 165.666 -15.5 234.999s-26.5 131 -48.5 185s-51.833 95.667 -89.5 125s-82.167 44 -133.5 44c-53.333 0 -99.666 -14.667 -138.999 -44
s-70.666 -70.833 -93.999 -124.5s-40.666 -115.5 -51.999 -185.5s-17 -148.333 -17 -235c0 -121.333 9.83301 -225 29.5 -311s52.5 -154.5 98.5 -205.5s104.333 -76.5 175 -76.5z" />
    <glyph glyph-name="one" unicode="1" horiz-adv-x="1231" 
d="M282 0v150.001h281v1100c-66.667 -36.667 -165.667 -79.334 -297 -128.001v173c49.333 17.333 106.5 41.5 171.5 72.5s120.833 60.5 167.5 88.5h150v-1306h264v-150h-737z" />
    <glyph glyph-name="two" unicode="2" horiz-adv-x="1238" 
d="M599 1482c54 0 104.669 -6.8291 152.002 -20.4961s89.166 -33.5 125.499 -59.5s67.5 -56.833 93.5 -92.5s45.667 -75.834 59 -120.501s20 -92.334 20 -143.001c0 -49.333 -6.33301 -96.833 -19 -142.5s-32.167 -91 -58.5 -136s-55.833 -88 -88.5 -129
s-73 -86.833 -121 -137.5l-324 -343h605v-158h-834v150l443 470c76 80.667 130.167 152.667 162.5 216s48.5 128.333 48.5 195c0 88.667 -23.833 159 -71.5 211s-115.5 78 -203.5 78c-28.667 0 -58.167 -2.83301 -88.5 -8.5s-57.166 -12.334 -80.499 -20.001
s-47.333 -17 -72 -28s-43.834 -20.333 -57.501 -28s-27.667 -15.834 -42 -24.501s-21.833 -13 -22.5 -13l-62 149c0.666992 0 7 3.83301 19 11.5s24.167 14.834 36.5 21.501s28.833 15.167 49.5 25.5s42.667 19.666 66 27.999s48.833 16.333 76.5 24s57.667 13.667 90 18
s65.166 6.5 98.499 6.5z" />
    <glyph glyph-name="three" unicode="3" horiz-adv-x="1231" 
d="M582 -22c-52 0 -102.665 4.5 -151.998 13.5s-91.833 20.333 -127.5 34s-62.334 24.667 -80.001 33s-32.167 15.833 -43.5 22.5l53 146c120 -58.667 231 -88 333 -88c98 0 175.833 24.333 233.5 73s86.5 114.667 86.5 198c0 45.333 -8.66699 85.5 -26 120.5
s-42.666 63.5 -75.999 85.5s-73.333 38.667 -120 50s-99.667 17 -159 17h-8l-77 -1l-2 163h75c122 0 212.167 20.167 270.5 60.5s87.5 107.5 87.5 201.5c0 67.333 -27.833 119.833 -83.5 157.5s-124.167 56.5 -205.5 56.5c-134 0 -247 -44 -339 -132l-88 128
c56 56 120 97.5 192 124.5s157.667 40.5 257 40.5c81.333 0 156 -13.833 224 -41.5s123.5 -70.334 166.5 -128.001s64.5 -125.5 64.5 -203.5c0 -83.333 -23.333 -156.5 -70 -219.5s-113.334 -103.833 -200.001 -122.5c95.333 -18 170.166 -59.833 224.499 -125.5
s81.5 -145.167 81.5 -238.5c0 -86 -21.833 -161.667 -65.5 -227s-102.5 -114.666 -176.5 -147.999s-157.333 -50 -250 -50z" />
    <glyph glyph-name="four" unicode="4" horiz-adv-x="1231" 
d="M305 527l446 -0.00195312v745c-43.333 -76 -88.333 -153.167 -135 -231.5s-104.167 -173.666 -172.5 -285.999s-114.5 -188.166 -138.5 -227.499zM752 -0.00195312v385h-647v128l597 943h234v-929h217v-142h-218v-385h-183z" />
    <glyph glyph-name="five" unicode="5" horiz-adv-x="1231" 
d="M603 -23c-82.667 0 -162.169 14.167 -238.502 42.5s-143.833 70.833 -202.5 127.5l91 142c48.667 -50.667 103.334 -88.334 164.001 -113.001s122 -37 184 -37c93.333 0 168.333 29.833 225 89.5s85 139.834 85 240.501c0 86.667 -23.833 159 -71.5 217
s-112.5 87 -194.5 87c-47.333 0 -92.166 -8.83301 -134.499 -26.5s-73.5 -42.167 -93.5 -73.5l-180 17l4 766h781v-163h-606l-16 -454c29.333 33.333 67.833 58.5 115.5 75.5s98.167 25.5 151.5 25.5c129.333 0 235 -44.833 317 -134.5s123 -203.167 123 -340.5
c0 -148.667 -47.5 -267.167 -142.5 -355.5s-215.5 -132.5 -361.5 -132.5z" />
    <glyph glyph-name="six" unicode="6" horiz-adv-x="1231" 
d="M656 139c86.667 0 155.334 30.333 206.001 91s76 138.334 76 233.001c0 95.333 -23.667 172.666 -71 231.999s-116 89 -206 89c-90.667 0 -164.334 -27.333 -221.001 -82s-85 -121 -85 -199c0 -109.333 26.667 -197.333 80 -264s127 -100 221 -100zM656 -22
c-86.667 0 -163.001 17.1689 -229.001 51.502s-119.833 83.333 -161.5 147s-73 138.834 -94 225.501s-31.5 184 -31.5 292c0 109.333 11.833 211.166 35.5 305.499s58.5 177.666 104.5 249.999s105.5 129.166 178.5 170.499s155.833 62 248.5 62c140 0 254 -38.333 342 -115
l-65 -140c-79.333 62.667 -171 94 -275 94c-62.667 0 -118.167 -16 -166.5 -48s-86.833 -75 -115.5 -129s-50.334 -113.5 -65.001 -178.5s-22 -133.167 -22 -204.5c34.667 54 81.334 97.5 140.001 130.5s127 49.5 205 49.5c132.667 0 240.834 -43.167 324.501 -129.5
s125.5 -201.5 125.5 -345.5c0 -141.333 -43.5 -258 -130.5 -350s-203.167 -138 -348.5 -138z" />
    <glyph glyph-name="seven" unicode="7" horiz-adv-x="1231" 
d="M354 0l522 1295h-705v161h921v-144l-532 -1312h-206z" />
    <glyph glyph-name="eight" unicode="8" horiz-adv-x="1232" 
d="M619 843c83.333 18 148.168 50.5 194.501 97.5s69.5 105.167 69.5 174.5c0 67.333 -25.333 120.5 -76 159.5s-113 58.5 -187 58.5c-74.667 0 -137.334 -19.333 -188.001 -58s-76 -92.667 -76 -162c0 -68.667 23.167 -126.5 69.5 -173.5s110.833 -79.167 193.5 -96.5z
M619.002 131c88 0 158.832 21.835 212.499 65.502s80.5 106.167 80.5 187.5c0 73.333 -27 136.666 -81 189.999s-124 89.333 -210 108c-87.333 -18.667 -158 -54.334 -212 -107.001s-81 -117 -81 -193c0 -79.333 26.833 -141 80.5 -185s123.834 -66 210.501 -66z
M620.001 -21.998c-87.333 0 -166.831 15.1689 -238.498 45.502s-130 76.5 -175 138.5s-67.5 134.667 -67.5 218c0 89.333 26.167 167.166 78.5 233.499s125.5 116.166 219.5 149.499c-82 32 -146.667 77.5 -194 136.5s-71 129.167 -71 210.5c0 114 42.167 204.5 126.5 271.5
s191.166 100.5 320.499 100.5c131.333 0 239 -33.667 323 -101s126 -158.666 126 -273.999c0 -82 -23.333 -152.333 -70 -211s-111.334 -103 -194.001 -133c92 -32.667 164.333 -83 217 -151s79 -146.333 79 -235c0 -82.667 -22.667 -154.834 -68 -216.501
s-103.833 -107.5 -175.5 -137.5s-150.5 -45 -236.5 -45z" />
    <glyph glyph-name="nine" unicode="9" horiz-adv-x="1232" 
d="M597 692c90.667 0 163.833 27.166 219.5 81.499s83.5 124.5 83.5 210.5c0 44 -5.83301 85.833 -17.5 125.5s-29 75.5 -52 107.5s-53.5 57.333 -91.5 76s-81.333 28 -130 28c-88 0 -157.333 -29.5 -208 -88.5s-76 -135.167 -76 -228.5s22.5 -168.666 67.5 -225.999
s113.167 -86 204.5 -86zM558.999 -22.001c-116.667 0 -234.001 31 -352.001 93l66 152c90 -56 181 -84 273 -84c115.333 0 204.5 46.333 267.5 139s94.833 217 95.5 373c0.666992 3.33301 1 20 1 50c-30.667 -53.333 -74.834 -94.5 -132.501 -123.5
s-124.5 -43.5 -200.5 -43.5c-134.667 0 -242.667 42.833 -324 128.5s-122 198.167 -122 337.5s43.333 254.5 130 345.5s202.334 136.5 347.001 136.5c162.667 0 285.334 -60.833 368.001 -182.5s124 -297.5 124 -527.5c0 -250 -47.833 -444.833 -143.5 -584.5
s-228.167 -209.5 -397.5 -209.5z" />
    <glyph glyph-name="colon" unicode=":" horiz-adv-x="541" 
d="M173 832v226h218v-226h-218zM173 1v226h218v-226h-218z" />
    <glyph glyph-name="semicolon" unicode=";" horiz-adv-x="543" 
d="M169 827v226h226v-226h-226zM96 -265l107 487h210l-167 -487h-150z" />
    <glyph glyph-name="less" unicode="&#x3c;" horiz-adv-x="1255" 
d="M1038 67l-933 467v96l937 442v-172l-705 -321l701 -341v-171z" />
    <glyph glyph-name="equal" unicode="=" horiz-adv-x="1290" 
d="M171 683v154h947v-154h-947zM172 292v153h948v-153h-948z" />
    <glyph glyph-name="greater" unicode="&#x3e;" horiz-adv-x="1256" 
d="M215 68v174l699 318l-694 343v172l933 -473v-98z" />
    <glyph glyph-name="question" unicode="?" horiz-adv-x="1058" 
d="M343 -4v221h187v-221h-187zM361 379l-0.000976562 142.005c0 38.667 9.33301 77 28 115s41.834 71.667 69.501 101s57.834 60.166 90.501 92.499s62.834 62.666 90.501 90.999s50.834 60.333 69.501 96s28 71.167 28 106.5c0 66.667 -23 116 -69 148s-106.333 48 -181 48
c-54 0 -107.5 -8 -160.5 -24s-95.833 -32.667 -128.5 -50v166c39.333 19.333 87.5 35.5 144.5 48.5s112.167 19.5 165.5 19.5c126 0 227.5 -29.833 304.5 -89.5s115.5 -146.167 115.5 -259.5c0 -40.667 -7.66699 -79.834 -23 -117.501s-35.333 -71.334 -60 -101.001
s-51.834 -58.834 -81.501 -87.501s-59.334 -56.5 -89.001 -83.5s-56.834 -53.667 -81.501 -80s-44.667 -55.333 -60 -87s-23 -63.5 -23 -95.5v-99h-149z" />
    <glyph glyph-name="at" unicode="@" horiz-adv-x="1768" 
d="M1097 822c0 57.333 -14 102.999 -42 136.999s-66.333 51 -115 51c-32.667 0 -64.167 -8 -94.5 -24s-57 -37.667 -80 -65s-43 -58.666 -60 -93.999s-30 -72.833 -39 -112.5s-13.5 -79.167 -13.5 -118.5c0 -57.333 15 -103.333 45 -138s69.333 -52 118 -52
c50.667 0 97.667 19.5 141 58.5s77.5 90.333 102.5 154s37.5 131.5 37.5 203.5zM925 1142c36.667 0 69.9961 -5.3291 99.9961 -15.9961s55.667 -27.5 77 -50.5s36 -50.833 44 -83.5l28 122h155l-108 -509c-16 -72.667 -24 -126.667 -24 -162
c0 -22.667 6.33301 -42.334 19 -59.001s30.667 -25 54 -25c42 0 82.833 19 122.5 57s72.5 91.667 98.5 161s39 144.333 39 225c0 112.667 -27 211.5 -81 296.5s-125.5 149 -214.5 192s-188.167 64.5 -297.5 64.5c-94 0 -181.833 -15.333 -263.5 -46
s-153 -74.167 -214 -130.5s-109.167 -127.833 -144.5 -214.5s-53 -182.667 -53 -288c0 -102.667 17.833 -195.167 53.5 -277.5s84.5 -149.833 146.5 -202.5s133.333 -92.834 214 -120.501s167 -41.5 259 -41.5c92.667 0 182.834 13.833 270.501 41.5
s162.834 67.167 225.501 118.5l71 -82c-63.333 -64.667 -146.333 -114.167 -249 -148.5s-212 -51.5 -328 -51.5c-156 0 -295.5 30.5 -418.5 91.5s-220.167 149.833 -291.5 266.5s-107 252.334 -107 407.001c0 120.667 21.667 231.5 65 332.5s102.333 185.5 177 253.5
s162.167 120.833 262.5 158.5s207.166 56.5 320.499 56.5c102.667 0 198.834 -16.833 288.501 -50.5s166.5 -80 230.5 -139s114.333 -130.833 151 -215.5s55 -176.334 55 -275.001c0 -96 -17.5 -185.667 -52.5 -269s-81.5 -149.333 -139.5 -198s-120 -73 -186 -73
c-61.333 0 -108.666 16.5 -141.999 49.5s-50 79.5 -50 139.5v15c-22.667 -56.667 -60 -103.5 -112 -140.5s-112 -55.5 -180 -55.5c-40 0 -78.5 7.66699 -115.5 23s-70.5 37.166 -100.5 65.499s-54 65 -72 110s-27 94.833 -27 149.5c0 73.333 12.833 143.166 38.5 209.499
s59.334 122.5 101.001 168.5s89.167 82.5 142.5 109.5s107.333 40.5 162 40.5z" />
    <glyph glyph-name="A" unicode="A" 
d="M438 545h514c-84.667 239.333 -170 476.333 -256 711c-86.667 -238 -172.667 -475 -258 -711zM31 0l565 1456h204l568 -1456h-209l-150 389h-623l-147 -389h-208z" />
    <glyph glyph-name="B" unicode="B" horiz-adv-x="1356" 
d="M393 840h253.001c214.667 0 322 79.333 322 238c0 82 -29.333 138.667 -88 170s-147.334 47 -266.001 47h-221v-455zM394.001 163h293.999c112.667 0 198.834 22 258.501 66s89.5 107.333 89.5 190c0 97.333 -28.5 165.5 -85.5 204.5s-153.167 58.5 -288.5 58.5h-268
v-519zM202 0v1456h385c43.333 0 83.5 -1.16699 120.5 -3.5s75.833 -6.66602 116.5 -12.999s77.167 -14.833 109.5 -25.5s63.666 -25.167 93.999 -43.5s55.5 -39.666 75.5 -63.999s36 -54 48 -89s18 -73.833 18 -116.5c0 -80.667 -20.167 -149.334 -60.5 -206.001
s-100.166 -96 -179.499 -118c98 -16.667 174.167 -57 228.5 -121s81.5 -144.667 81.5 -242c0 -120 -45 -219 -135 -297s-218.333 -117 -385 -117h-517z" />
    <glyph glyph-name="C" unicode="C" 
d="M824 -22c-96.667 0 -188 16.168 -274 48.501s-162 78.666 -228 138.999s-118.333 137.833 -157 232.5s-58 200.667 -58 318c0 113.333 18.167 218.166 54.5 314.499s86.166 177.333 149.499 243s138.5 116.834 225.5 153.501s180.5 55 280.5 55
c183.333 0 336 -50 458 -150l-76 -130c-107.333 79.333 -230 119 -368 119c-104 0 -196 -26.5 -276 -79.5s-141.167 -125.167 -183.5 -216.5s-63.5 -193.666 -63.5 -306.999c0 -176.667 48.833 -317.334 146.5 -422.001s223.834 -157 378.501 -157c146.667 0 284 48 412 144
l64 -152c-139.333 -102 -301 -153 -485 -153z" />
    <glyph glyph-name="D" unicode="D" horiz-adv-x="1539" 
d="M202 0v1456h358c281.333 0 496.333 -59.667 645 -179s223 -303 223 -551c0 -232 -69 -411 -207 -537s-336.667 -189 -596 -189h-423zM393 161h241.998c194.667 0 341.834 49.167 441.501 147.5s149.5 237.5 149.5 417.5c0 194 -53.167 337.333 -159.5 430
s-269.166 139 -488.499 139h-185v-1134z" />
    <glyph glyph-name="E" unicode="E" horiz-adv-x="1204" 
d="M202 0v1456h872v-161h-681v-458h643v-162h-643v-514h710v-161h-901z" />
    <glyph glyph-name="F" unicode="F" horiz-adv-x="1117" 
d="M202 0v1456h840v-161h-649v-458h604v-162h-604v-675h-191z" />
    <glyph glyph-name="G" unicode="G" horiz-adv-x="1527" 
d="M844 -22c-156.667 0 -290.668 30.1689 -402.001 90.502s-194.833 144.666 -250.5 252.999s-83.5 235.833 -83.5 382.5c0 149.333 31.5 283 94.5 401s151.833 210.333 266.5 277s245.334 100 392.001 100c188.667 0 348.334 -48.667 479.001 -146l-77 -133
c-115.333 78.667 -248 118 -398 118c-110.667 0 -208.667 -26.333 -294 -79s-150.833 -125.167 -196.5 -217.5s-68.5 -196.5 -68.5 -312.5c0 -174.667 46.667 -313.834 140 -417.501s228.666 -155.5 405.999 -155.5c120.667 0 226.667 17.333 318 52v412h-368v163h558v-682
c-154.667 -70.667 -326.667 -106 -516 -106z" />
    <glyph glyph-name="H" unicode="H" horiz-adv-x="1559" 
d="M202 0v1456h192v-629h773v629h190v-1456h-189v666h-774v-666h-192z" />
    <glyph glyph-name="I" unicode="I" horiz-adv-x="602" 
d="M218 0v1456h191v-1456h-191z" />
    <glyph glyph-name="J" unicode="J" horiz-adv-x="786" 
d="M229 -326c-73.333 0 -152 13.999 -236 41.999l27 150c70 -20.667 131.333 -31 184 -31c74 0 124.667 21.833 152 65.5s41 116.834 41 219.501v1336h191v-1335c0 -154 -30 -267 -90 -339s-149.667 -108 -269 -108z" />
    <glyph glyph-name="K" unicode="K" horiz-adv-x="1296" 
d="M202 0v1456h191v-656l627 656h237l-673 -701l721 -755h-242l-670 692v-692h-191z" />
    <glyph glyph-name="L" unicode="L" horiz-adv-x="1109" 
d="M202 0v1456h191v-1295h677v-161h-868z" />
    <glyph glyph-name="M" unicode="M" horiz-adv-x="1923" 
d="M202 0l0.000976562 1456h232c16.667 -38.667 91.667 -209.834 225 -513.501s234.333 -535.5 303 -695.5c68.667 160.667 170.167 392.667 304.5 696s210.166 474.333 227.499 513h227v-1456h-182v1145c-65.333 -150.667 -160.5 -365.5 -285.5 -644.5
s-199.5 -445.833 -223.5 -500.5h-137l-432 973l-75 180v-1153h-184z" />
    <glyph glyph-name="N" unicode="N" horiz-adv-x="1598" 
d="M202 0v1456h203l702 -1024l108 -170v1194h182v-1456h-204l-684 986l-128 200v-1186h-179z" />
    <glyph glyph-name="O" unicode="O" horiz-adv-x="1626" 
d="M816 -22c-220 0 -393.167 67.666 -519.5 202.999s-189.5 318 -189.5 548c0 148.667 27.833 279.5 83.5 392.5s137.5 201.333 245.5 265s235.333 95.5 382 95.5c214 0 384.5 -69.167 511.5 -207.5s190.5 -320.166 190.5 -545.499c0 -229.333 -62.667 -411.833 -188 -547.5
s-297.333 -203.5 -516 -203.5zM814 138.999c162.667 0 286.333 52.5 371 157.5s127 249.167 127 432.5c0 179.333 -42.5 322.833 -127.5 430.5s-207.833 161.5 -368.5 161.5c-160 0 -284.167 -54.167 -372.5 -162.5s-132.5 -251.5 -132.5 -429.5
c0 -182.667 43.333 -326.667 130 -432s211 -158 373 -158z" />
    <glyph glyph-name="P" unicode="P" horiz-adv-x="1260" 
d="M393 821l265.001 -0.000976562c115.333 0 200.666 17.333 255.999 52s83 95.667 83 183c0 32.667 -3.33301 61.5 -10 86.5s-17.167 46.333 -31.5 64s-31 32.334 -50 44.001s-42.333 20.667 -70 27s-56.667 10.833 -87 13.5s-65.5 4 -105.5 4h-4h-3.5h-3.5h-3.5h-3.5h-232
v-474zM202.001 -0.000976562v1456h419c73.333 0 137.166 -3 191.499 -9s106.5 -17.667 156.5 -35s90.5 -40.5 121.5 -69.5s55.667 -67.5 74 -115.5s27.5 -104.667 27.5 -170c0 -73.333 -12 -136 -36 -188s-59.5 -93 -106.5 -123s-102.167 -51.833 -165.5 -65.5
s-137.666 -20.5 -222.999 -20.5h-268v-660h-191z" />
    <glyph glyph-name="Q" unicode="Q" horiz-adv-x="1626" 
d="M814 139c162.667 0 286.333 52.5 371 157.5s127 249.167 127 432.5c0 179.333 -42.5 322.833 -127.5 430.5s-207.833 161.5 -368.5 161.5c-160 0 -284.167 -54.167 -372.5 -162.5s-132.5 -251.5 -132.5 -429.5c0 -182.667 43.333 -326.667 130 -432s211 -158 373 -158z
M815.999 -22c-220 0 -393.165 67.667 -519.498 203s-189.5 318 -189.5 548c0 148.667 27.833 279.5 83.5 392.5s137.5 201.333 245.5 265s235.333 95.5 382 95.5c214 0 384.5 -69.167 511.5 -207.5s190.5 -320.166 190.5 -545.499c0 -177.333 -38.333 -327.833 -115 -451.5
s-185 -209.5 -325 -257.5c28.667 -48.667 65.667 -102 111 -160s77.666 -97.667 96.999 -119s35 -38.333 47 -51l-112 -118c-5.33301 5.33301 -12.5 13 -21.5 23s-26.833 30.167 -53.5 60.5s-52.167 61 -76.5 92s-51.5 68.167 -81.5 111.5s-56.333 84.666 -79 123.999
c-15.333 -2 -30.833 -3.33301 -46.5 -4s-31.834 -1 -48.501 -1z" />
    <glyph glyph-name="R" unicode="R" horiz-adv-x="1362" 
d="M392 808h271c96.667 0 171.667 19.167 225 57.5s80 102.5 80 192.5c0 36.667 -3.83301 68.5 -11.5 95.5s-18.667 49.5 -33 67.5s-33.333 32.5 -57 43.5s-50.167 18.833 -79.5 23.5s-64 7 -104 7h-3.5h-3.5h-4h-280v-487zM202 0l-0.00292969 1456h466
c60 0 113.667 -3.16699 161 -9.5s92.833 -18.166 136.5 -35.499s79.834 -40.166 108.501 -68.499s51.5 -65.5 68.5 -111.5s25.5 -100 25.5 -162c0 -91.333 -23.333 -167.666 -70 -228.999s-117.667 -102 -213 -122c54.667 -17.333 97.834 -47.5 129.501 -90.5
s63.834 -105.5 96.501 -187.5l171 -440h-204l-160 428c-22.667 61.333 -43.5 106.333 -62.5 135s-43.833 49.834 -74.5 63.501s-73 20.5 -127 20.5h-261v-647h-191z" />
    <glyph glyph-name="S" unicode="S" horiz-adv-x="1214" 
d="M600 139c40 0 76.1699 3.66992 108.503 11.0029s60.5 17.833 84.5 31.5s44.167 30.667 60.5 51s28.5 43.666 36.5 69.999s12 55.5 12 87.5c0 34.667 -3.66699 63.834 -11 87.501s-21.333 46.167 -42 67.5s-48.834 40.5 -84.501 57.5s-82.834 34.5 -141.501 52.5
c-6 2 -20.5 6.16699 -43.5 12.5s-38.167 10.833 -45.5 13.5c-139.333 40 -240.833 90.667 -304.5 152s-95.5 149.666 -95.5 264.999c0 82 21.333 152.333 64 211s99.834 102.167 171.501 130.5s154.167 42.5 247.5 42.5c196.667 0 346.334 -50.667 449.001 -152l-95 -129
c-34 33.333 -80 61.666 -138 84.999s-122.333 35 -193 35c-92 0 -165.5 -18.333 -220.5 -55s-82.5 -90.667 -82.5 -162c0 -48 6.5 -86 19.5 -114s36.667 -52.333 71 -73s86.166 -42 155.499 -64c1.33301 -0.666992 13.833 -4.33398 37.5 -11.001s39.5 -11 47.5 -13
c85.333 -25.333 155.5 -51.666 210.5 -78.999s99.167 -58.833 132.5 -94.5s56.666 -74.834 69.999 -117.501s20 -94 20 -154c0 -67.333 -12.833 -127.166 -38.5 -179.499s-61.167 -94.833 -106.5 -127.5s-97.333 -57.334 -156 -74.001s-122.667 -25 -192 -25
c-108.667 0 -205.834 17.833 -291.501 53.5s-148.167 72.5 -187.5 110.5l85 138c42.667 -34 98.667 -66 168 -96s142 -45 218 -45z" />
    <glyph glyph-name="T" unicode="T" horiz-adv-x="1145" 
d="M475 0v1295h-465v161h1124v-161h-468v-1295h-191z" />
    <glyph glyph-name="U" unicode="U" horiz-adv-x="1495" 
d="M744 -22c-382.667 0 -574 194.001 -574 582.001v896h191v-900c0 -142.667 32.333 -247.834 97 -315.501s160.667 -101.5 288 -101.5c257.333 0 386 137.667 386 413v904h190v-894c0 -88.667 -10.667 -167.667 -32 -237s-54.333 -130.5 -99 -183.5
s-104.667 -93.5 -180 -121.5s-164.333 -42 -267 -42z" />
    <glyph glyph-name="V" unicode="V" horiz-adv-x="1348" 
d="M576 0l-545.999 1456h213c12 -33.333 73.167 -206 183.5 -518s194.5 -548.667 252.5 -710c57.333 162.667 141.166 398.334 251.499 707.001s172.5 482.334 186.5 521.001h201l-542 -1456h-200z" />
    <glyph glyph-name="W" unicode="W" horiz-adv-x="2022" 
d="M440 0l-398 1456h205l257 -1004l54 -235c44.667 166 113.667 403.5 207 712.5s146 484.5 158 526.5h191c12.667 -41.333 65.667 -216.5 159 -525.5s163.333 -545.833 210 -710.5c36.667 164.667 93 400.334 169 707.001s119.667 483 131 529h197l-387 -1456h-223
l-355 1199l-355 -1199h-220z" />
    <glyph glyph-name="X" unicode="X" horiz-adv-x="1302" 
d="M35 0l510 740l-488 716h231l374 -560l375 560h217l-484 -709l502 -747h-227l-390 589l-399 -589h-221z" />
    <glyph glyph-name="Y" unicode="Y" horiz-adv-x="1239" 
d="M522 0v575l-501 881h212l389 -713l391 713h213l-512 -878v-578h-192z" />
    <glyph glyph-name="Z" unicode="Z" horiz-adv-x="1185" 
d="M97 0v103l738 1192h-707v161h963v-99l-744 -1196h740v-161h-990z" />
    <glyph glyph-name="bracketleft" unicode="[" horiz-adv-x="660" 
d="M172 -227v1697h410v-139h-229v-1419h230v-139h-411z" />
    <glyph glyph-name="backslash" unicode="\" horiz-adv-x="834" 
d="M612 13l-559 1443h167l564 -1443h-172z" />
    <glyph glyph-name="bracketright" unicode="]" horiz-adv-x="660" 
d="M124 -227v139h227v1419h-229v139h410v-1697h-408z" />
    <glyph glyph-name="asciicircum" unicode="^" horiz-adv-x="1628" 
d="M271 563l482 893h115l489 -893h-178l-370 693l-357 -693h-181z" />
    <glyph glyph-name="underscore" unicode="_" horiz-adv-x="941" 
d="M-5 -268v145h951v-145h-951z" />
    <glyph glyph-name="grave" unicode="`" horiz-adv-x="597" 
d="M383 1173l-337 360h240l250 -360h-153z" />
    <glyph glyph-name="a" unicode="a" horiz-adv-x="1273" 
d="M615 128c102 0 179.834 35.501 233.501 106.501s80.5 166.5 80.5 286.5c0 113.333 -27.333 205.166 -82 275.499s-132.667 105.5 -234 105.5c-106.667 0 -187.834 -35.333 -243.501 -106s-83.5 -163.334 -83.5 -278.001c0 -115.333 28 -209.166 84 -281.499
s137.667 -108.5 245 -108.5zM589.001 -21.999c-76.667 0 -146.17 14.332 -208.503 42.999s-113.666 67.5 -153.999 116.5s-71.333 105.667 -93 170s-32.5 132.833 -32.5 205.5c0 100 19.5 190.5 58.5 271.5s95.833 145.833 170.5 194.5s161 73 259 73
c72.667 0 138.834 -17.667 198.501 -53s104.834 -80.666 135.501 -135.999v163h182v-1026h-184v175c-29.333 -61.333 -73 -109.5 -131 -144.5s-125 -52.5 -201 -52.5z" />
    <glyph glyph-name="b" unicode="b" horiz-adv-x="1274" 
d="M679 128c97.333 0 171.833 35.667 223.5 107s77.5 167.666 77.5 288.999c0 112.667 -26.667 203.834 -80 273.501s-127.333 104.5 -222 104.5c-100.667 0 -180.667 -35.667 -240 -107s-89 -164.333 -89 -279c0 -116 29.5 -209.667 88.5 -281s139.5 -107 241.5 -107z
M703 -22c-82 0 -154.167 18.667 -216.5 56s-106.833 84 -133.5 140l-1 -174h-188c4.66699 155.333 7 245.333 7 270v1216h185v-634c24.667 54 67.5 100.833 128.5 140.5s134.833 59.5 221.5 59.5c142 0 255.167 -47.833 339.5 -143.5s126.5 -223.167 126.5 -382.5
c0 -164.667 -44 -297.167 -132 -397.5s-200.333 -150.5 -337 -150.5z" />
    <glyph glyph-name="c" unicode="c" horiz-adv-x="1064" 
d="M624 -22c-158.667 0 -285.5 49.499 -380.5 148.499s-142.5 225.833 -142.5 380.5c0 162 48.333 293.333 145 394s224 151 382 151c143.333 0 256.333 -40.667 339 -122l-65 -122c-71.333 62 -158.333 93 -261 93c-104.667 0 -189.167 -34.167 -253.5 -102.5
s-96.5 -165.166 -96.5 -290.499c0 -116 31.167 -208.333 93.5 -277s146.833 -103 253.5 -103c103.333 0 196.666 32 279.999 96l58 -133c-97.333 -75.333 -214.666 -113 -351.999 -113z" />
    <glyph glyph-name="d" unicode="d" horiz-adv-x="1264" 
d="M597 128c100.667 0 178.332 35.667 232.999 107s82 167 82 287c0 112.667 -27.667 204.167 -83 274.5s-131.666 105.5 -228.999 105.5s-173 -35.5 -227 -106.5s-81 -164.833 -81 -281.5c0 -116 26.333 -209.333 79 -280s128 -106 226 -106zM569.998 -22
c-137.333 0 -249.835 48.499 -337.502 145.499s-131.5 225.833 -131.5 386.5c0 105.333 18.667 198.5 56 279.5s92.5 145 165.5 192s158.833 70.5 257.5 70.5c78.667 0 147.334 -17.667 206.001 -53s99.334 -77.666 122.001 -126.999v614h185v-1220
c0.666992 -61.333 3 -150 7 -266h-187l-4 174c-20.667 -53.333 -60.5 -99.333 -119.5 -138s-132.167 -58 -219.5 -58z" />
    <glyph glyph-name="e" unicode="e" horiz-adv-x="1166" 
d="M296 613h588.999c-6.66699 94 -34 166.333 -82 217s-112 76 -192 76c-84 0 -154.167 -26 -210.5 -78s-91.166 -123.667 -104.499 -215zM633.999 -22c-163.333 0 -293.001 48.501 -389.001 145.501s-144 225.833 -144 386.5c0 158 46.167 287.833 138.5 389.5
s214.5 152.5 366.5 152.5c96 0 178.167 -22.333 246.5 -67s119 -105.334 152 -182.001s49.5 -165.667 49.5 -267c0 -12.667 -1 -29 -3 -49h-760c2 -114.667 35 -203.167 99 -265.5s148.667 -93.5 254 -93.5c122.667 0 231.334 38 326.001 114l55 -136
c-110 -85.333 -240.333 -128 -391 -128z" />
    <glyph glyph-name="f" unicode="f" horiz-adv-x="727" 
d="M252 0l-0.00292969 902.996h-183v123h183v84c0 35.333 0.833008 65.833 2.5 91.5s4.83398 51.334 9.50098 77.001s11.334 47.334 20.001 65.001s19.834 34.834 33.501 51.501s30.167 30.167 49.5 40.5s42.333 19.5 69 27.5s57.167 13.667 91.5 17s73.5 5 117.5 5h47
l-4 -143c-40.667 0 -74.334 -1.16699 -101.001 -3.5s-49.667 -7.16602 -69 -14.499s-34.166 -15.5 -44.499 -24.5s-18.5 -22.667 -24.5 -41s-9.66699 -37 -11 -56s-2 -44.833 -2 -77.5v-99h245v-123h-245v-903h-184z" />
    <glyph glyph-name="g" unicode="g" horiz-adv-x="1267" 
d="M594 158c104 0 183 33.834 237 101.501s81 158.5 81 272.5c0 112.667 -26.833 202.5 -80.5 269.5s-128.5 100.5 -224.5 100.5c-98 0 -175 -35.333 -231 -106s-84 -163.334 -84 -278.001c0 -114 26.333 -202.5 79 -265.5s127 -94.5 223 -94.5zM571 -417.999
c-134.667 0 -260.999 29 -378.999 87l29 159c113.333 -64.667 227.666 -97 342.999 -97c109.333 0 194 29.333 254 88s90 147.334 90 266.001v107c-28.667 -51.333 -70.167 -93.833 -124.5 -127.5s-121.166 -50.5 -200.499 -50.5c-142 0 -257.833 45.167 -347.5 135.5
s-134.5 212.5 -134.5 366.5c0 104.667 18.167 197 54.5 277s91.166 143.167 164.499 189.5s160.666 69.5 261.999 69.5c78 0 144.333 -16.667 199 -50s97 -76 127 -128l3 152h190c-7.33301 -110.667 -11 -202.667 -11 -276v-610c0 -81.333 -10 -155.333 -30 -222
s-50.5 -125.334 -91.5 -176.001s-95.167 -90 -162.5 -118s-145.666 -42 -234.999 -42z" />
    <glyph glyph-name="h" unicode="h" horiz-adv-x="1237" 
d="M166 0l-0.00195312 1486h184v-621c30.667 56 78.334 101.167 143.001 135.5s133.334 51.5 206.001 51.5c64 0 120.667 -11.333 170 -34s89 -53.834 119 -93.501s52.667 -85.334 68 -137.001s23 -107.834 23 -168.501v-619h-185v614
c0 100.667 -17.333 173.834 -52 219.501s-90.667 68.5 -168 68.5c-84 0 -159 -28.333 -225 -85s-99 -121.667 -99 -195v-622h-184z" />
    <glyph glyph-name="i" unicode="i" horiz-adv-x="520" 
d="M173 1285v171h182v-171h-182zM172 0v1026h183v-1026h-183z" />
    <glyph glyph-name="j" unicode="j" horiz-adv-x="503" 
d="M163 1277v179h183v-179h-183zM21 -423c-42.667 0 -84.999 3.99902 -126.999 11.999v151c34.667 -8 64 -12 88 -12c62.667 0 109.5 25 140.5 75s46.5 127.667 46.5 233v990h174v-922c0 -37.333 -0.833008 -71.5 -2.5 -102.5s-5.16699 -65.167 -10.5 -102.5
s-12.5 -70.666 -21.5 -99.999s-21.667 -58.333 -38 -87s-35.5 -52.5 -57.5 -71.5s-49.333 -34.333 -82 -46s-69.334 -17.5 -110.001 -17.5z" />
    <glyph glyph-name="k" unicode="k" horiz-adv-x="1111" 
d="M174 0v1486h184v-899l445 439h252l-520 -489l556 -537h-244l-489 485v-485h-184z" />
    <glyph glyph-name="l" unicode="l" horiz-adv-x="526" 
d="M177 0v1486h184v-1486h-184z" />
    <glyph glyph-name="m" unicode="m" horiz-adv-x="1881" 
d="M177 0v758.002c0 34.667 -3.66699 124 -11 268h191l2 -166c27.333 60 71 107 131 141s125.667 51 197 51c73.333 0 137.5 -19.333 192.5 -58s94.833 -93.334 119.5 -164.001c37.333 69.333 87.833 123.666 151.5 162.999s135.5 59 215.5 59
c116.667 0 205.167 -37.167 265.5 -111.5s90.5 -178.5 90.5 -312.5v-628h-184v613c0 90.667 -15.333 161.5 -46 212.5s-78 76.5 -142 76.5c-82 0 -152.5 -29.833 -211.5 -89.5s-90.5 -133.167 -94.5 -220.5v-592h-184v629c0 82 -16 148 -48 198s-83 75 -153 75
c-80.667 0 -149 -27 -205 -81s-86.667 -119.333 -92 -196v-625h-185z" />
    <glyph glyph-name="n" unicode="n" horiz-adv-x="1244" 
d="M177 0l-0.00195312 742c0 45.333 -0.833008 91.666 -2.5 138.999s-3.5 83.333 -5.5 108l-3 37h190l2 -161c35.333 58.667 84.833 104.5 148.5 137.5s130.834 49.5 201.501 49.5c129.333 0 224.666 -39.167 285.999 -117.5s92 -197.166 92 -356.499v-578h-184v577
c0 111.333 -16.667 193.333 -50 246s-92 79 -176 79c-77.333 0 -147.666 -26.167 -210.999 -78.5s-97.666 -112.5 -102.999 -180.5v-643h-185z" />
    <glyph glyph-name="o" unicode="o" horiz-adv-x="1258" 
d="M631 -22c-166 0 -295.833 49.334 -389.5 148.001s-140.5 227.334 -140.5 386.001c0 161.333 47.167 291.666 141.5 390.999s224.5 149 390.5 149c165.333 0 294 -49.5 386 -148.5s138 -229.5 138 -391.5c0 -158.667 -46.667 -287.334 -140 -386.001s-222 -148 -386 -148z
M631 128.001c108 0 190.5 35 247.5 105s85.5 163 85.5 279c0 118 -28.833 212.5 -86.5 283.5s-140.167 106.5 -247.5 106.5c-108 0 -191 -35.5 -249 -106.5s-87 -165.5 -87 -283.5c0 -116 28.833 -209 86.5 -279s141.167 -105 250.5 -105z" />
    <glyph glyph-name="p" unicode="p" horiz-adv-x="1263" 
d="M669 127c96.667 0 171.168 35.667 223.501 107s78.5 165.333 78.5 282c0 116 -26.167 209.167 -78.5 279.5s-126.5 105.5 -222.5 105.5c-98.667 0 -175.834 -36.5 -231.501 -109.5s-83.5 -169.167 -83.5 -288.5c0 -113.333 27.333 -204.333 82 -273s132 -103 232 -103z
M177.001 -428l-0.00292969 1156c0 44.667 -3.66699 144 -11 298h193l1 -184c19.333 56.667 61.333 105.667 126 147s137.334 62 218.001 62c138.667 0 249.667 -49.333 333 -148s125 -225.667 125 -381c0 -158 -42.167 -288.333 -126.5 -391s-196.166 -154 -335.499 -154
c-81.333 0 -153.666 19 -216.999 57s-104.333 82 -123 132v-594h-183z" />
    <glyph glyph-name="q" unicode="q" horiz-adv-x="1259" 
d="M596 129c98 0 173.5 35.999 226.5 107.999s79.5 170 79.5 294c0 111.333 -26.5 200.833 -79.5 268.5s-126.167 101.5 -219.5 101.5c-96 0 -171.333 -35.5 -226 -106.5s-82 -165.833 -82 -284.5c0 -115.333 26.5 -207.666 79.5 -276.999s126.833 -104 221.5 -104z
M899 -419.001v569c-31.333 -47.333 -74.833 -87.833 -130.5 -121.5s-120.5 -50.5 -194.5 -50.5c-144 0 -259 49.333 -345 148s-129 227.334 -129 386.001c0 161.333 43.5 291.666 130.5 390.999s204.167 149 351.5 149c68 0 129.667 -15 185 -45s99.333 -71 132 -123v142
h191c-4.66699 -126 -7 -204 -7 -234v-1211h-184z" />
    <glyph glyph-name="r" unicode="r" horiz-adv-x="803" 
d="M179 0v774c0 22.667 -1.16699 55 -3.5 97s-4.5 78.333 -6.5 109l-3 46h195l2 -160c62 122.667 153.333 184 274 184c38 0 72.667 -4 104 -12l-1 -163c-39.333 10.667 -77 16 -113 16c-78.667 0 -142 -27.5 -190 -82.5s-72 -134.167 -72 -237.5v-571h-186z" />
    <glyph glyph-name="s" unicode="s" horiz-adv-x="978" 
d="M518 -22c-88.667 0 -166.834 13.333 -234.501 40s-120.167 54.667 -157.5 84l51 137c38 -28 86.5 -53.333 145.5 -76s119.167 -34 180.5 -34c136 0 204 50 204 150c0 42 -15.333 73.333 -46 94s-90.334 46 -179.001 76l-88 30c-34 12 -62.833 23.333 -86.5 34
s-47.5 24.167 -71.5 40.5s-43.333 34 -58 53s-26.5 42 -35.5 69s-13.5 57.5 -13.5 91.5c0 48.667 10.167 91.834 30.5 129.501s48.166 67.334 83.499 89.001s74.333 38 117 49s88.667 16.5 138 16.5c135.333 0 249.333 -29.667 342 -89l-51 -132c-90 48 -180 72 -270 72
c-66 0 -117 -11.333 -153 -34s-54 -54.667 -54 -96c0 -37.333 10.833 -64.833 32.5 -82.5s64.834 -38.167 129.501 -61.5c58 -19.333 92.333 -31 103 -35c42 -14.667 75.667 -27.334 101 -38.001s52.5 -24.834 81.5 -42.501s51.333 -36.167 67 -55.5s28.667 -43.5 39 -72.5
s15.5 -61.833 15.5 -98.5c0 -54.667 -10.333 -102.5 -31 -143.5s-48.667 -73 -84 -96s-73.666 -40.167 -114.999 -51.5s-85.666 -17 -132.999 -17z" />
    <glyph glyph-name="t" unicode="t" horiz-adv-x="803" 
d="M704 0l-84.999 0.00195312c-145.333 1.33301 -244.833 27.333 -298.5 78s-80.5 143 -80.5 277v548h-197v123h201v264l180 53v-317h278v-123h-278v-558c0 -36.667 2.5 -66.334 7.5 -89.001s12.833 -41.834 23.5 -57.501s27.667 -27.167 51 -34.5
s49.666 -12.5 78.999 -15.5s69 -4.5 119 -4.5v-144z" />
    <glyph glyph-name="u" unicode="u" horiz-adv-x="1234" 
d="M555 -23c-131.333 0 -229.999 37.501 -295.999 112.501s-99 175.833 -99 302.5v634h183v-634c0 -88 20.833 -154.167 62.5 -198.5s101.834 -66.5 180.501 -66.5c90 0 160.333 25.667 211 77s76 117.666 76 198.999v623h184v-772c0 -91.333 3 -176 9 -254h-187l-5 165
c-28.667 -52.667 -69.334 -97.167 -122.001 -133.5s-118.334 -54.5 -197.001 -54.5z" />
    <glyph glyph-name="v" unicode="v" horiz-adv-x="1056" 
d="M441 0l-429.999 1026h201c24 -62.667 58.167 -150.334 102.5 -263.001s84.666 -215.5 120.999 -308.5s69.833 -181.167 100.5 -264.5c28.667 84.667 60.5 173.5 95.5 266.5s74.333 195.5 118 307.5s77.167 199.333 100.5 262h197l-430 -1026h-176z" />
    <glyph glyph-name="w" unicode="w" horiz-adv-x="1636" 
d="M372 0l-341 1026h196c10 -33.333 45.333 -150.166 106 -350.499s107.334 -353.5 140.001 -459.5c35.333 106 86.5 258 153.5 456s106.833 316 119.5 354h179c12 -37.333 50.333 -155.5 115 -354.5s114.334 -351.167 149.001 -456.5c31.333 105.333 75.833 257 133.5 455
s92.167 316.667 103.5 356h179l-341 -1026h-173c-8.66699 26 -46.334 139.833 -113.001 341.5s-117.334 355.5 -152.001 461.5c-36 -106.667 -89.5 -259.834 -160.5 -459.501s-111.5 -314.167 -121.5 -343.5h-172z" />
    <glyph glyph-name="x" unicode="x" horiz-adv-x="1066" 
d="M45 0l389 512l-366 515l201 -1l264 -381l284 381h194l-375 -502l383 -524h-200l-284 392l-295 -392h-195z" />
    <glyph glyph-name="y" unicode="y" horiz-adv-x="1065" 
d="M209 -433l-75 126c166 55.333 269 143 309 263l17 52l-419 1018h193l317 -820l297 820h185l-414 -1080c-36.667 -96.667 -90.167 -178 -160.5 -244s-153.5 -111 -249.5 -135z" />
    <glyph glyph-name="z" unicode="z" horiz-adv-x="969" 
d="M104 0v100l536 777h-520v149h757v-98l-535 -780h551v-148h-789z" />
    <glyph glyph-name="braceleft" unicode="{" horiz-adv-x="789" 
d="M504 1130l-0.00390625 -262.003c0 -62 -16 -113.667 -48 -155s-74.333 -71 -127 -89c54 -22 96.667 -56.167 128 -102.5s47 -102.166 47 -167.499v-256c0 -68 15 -114.333 45 -139s80 -37 150 -37v-143c-137.333 0.666992 -235.166 26.834 -293.499 78.501
s-87.5 126.834 -87.5 225.501v246c0 75.333 -14.5 132 -43.5 170s-78.5 60 -148.5 66v126c65.333 4.66699 113.333 25.167 144 61.5s46.334 88.833 47.001 157.5v245c0 48 5.83301 90.333 17.5 127s31.334 70 59.001 100s67.334 53 119.001 69s114.167 24 187.5 24v-143
c-74 -0.666992 -125.167 -17 -153.5 -49s-42.5 -83 -42.5 -153z" />
    <glyph glyph-name="bar" unicode="|" horiz-adv-x="950" 
d="M387 -482v2017h176v-2017h-176z" />
    <glyph glyph-name="braceright" unicode="}" horiz-adv-x="787" 
d="M107 -221l0.00195312 144.001c74.667 0 126.167 16.167 154.5 48.5s42.5 83.5 42.5 153.5v262c0 62 16 113.667 48 155s74.333 71 127 89c-54 22 -96.667 56.167 -128 102.5s-47 102.166 -47 167.499v256c0 68 -15 114.333 -45 139s-80 37 -150 37v142
c137.333 -0.666992 235.166 -26.667 293.499 -78s87.5 -126.333 87.5 -225v-246c0 -75.333 14.5 -132 43.5 -170s78.5 -60 148.5 -66v-126c-65.333 -4.66699 -113.5 -25.167 -144.5 -61.5s-46.833 -88.833 -47.5 -157.5v-245c0 -48 -5.83301 -90.333 -17.5 -127
s-31.334 -70.167 -59.001 -100.5s-67.167 -53.5 -118.5 -69.5s-114 -24 -188 -24z" />
    <glyph glyph-name="asciitilde" unicode="~" horiz-adv-x="1253" 
d="M262 373l-135.003 63.999c16 76 48.833 137.333 98.5 184s115.167 70 196.5 70c53.333 0 140 -24.667 260 -74c9.33301 -3.33301 25.333 -9.5 48 -18.5s41.167 -16.167 55.5 -21.5s30 -10.5 47 -15.5s30.5 -7.5 40.5 -7.5c37.333 0 69.5 17.167 96.5 51.5
s46.167 76.5 57.5 126.5l147 -45c-19.333 -86.667 -54.666 -155.834 -105.999 -207.501s-116.333 -77.5 -195 -77.5c-45.333 0 -121 23.333 -227 70c-1.33301 0.666992 -11.666 4.83398 -30.999 12.501s-32.666 13 -39.999 16s-20 7.66699 -38 14s-32.167 10.833 -42.5 13.5
s-22 5.33398 -35 8.00098s-24.167 4 -33.5 4c-83.333 0 -138 -55.667 -164 -167z" />
    <glyph glyph-name="uni007F" horiz-adv-x="1521" 
d="M188 0v1456h1145v-1456h-1145zM360 124h801v1206h-801v-1206z" />
    <glyph glyph-name="uni00A0" unicode="&#xa0;" horiz-adv-x="599" 
 />
    <glyph glyph-name="exclamdown" unicode="&#xa1;" horiz-adv-x="572" 
d="M194 1140h186v-220h-186v220zM232 763h108l55 -1079h-218z" />
    <glyph glyph-name="cent" unicode="&#xa2;" horiz-adv-x="1030" 
d="M669 -21l0.000976562 -192.001h-83v192c-98 5.33301 -184 31.5 -258 78.5s-130.333 109.333 -169 187s-58 165.167 -58 262.5c0 154.667 44.167 281.667 132.5 381s205.833 153.666 352.5 162.999v201h83v-201c125.333 -8 224.666 -48.333 297.999 -121l-65 -122
c-64 55.333 -141.667 86 -233 92v-771c92 6.66699 175 38.334 249 95.001l58 -133c-86 -67.333 -188.333 -104.666 -307 -111.999zM586.001 130.999v765.998c-90 -11.333 -161.667 -50.666 -215 -117.999s-80 -157.666 -80 -270.999c0 -106 26.333 -192.5 79 -259.5
s124.667 -106.167 216 -117.5z" />
    <glyph glyph-name="sterling" unicode="&#xa3;" horiz-adv-x="1203" 
d="M802 1323c-98 0 -168.665 -28.166 -211.998 -84.499s-65 -141.833 -65 -256.5v-162h363v-124h-361v-107c0 -100.667 -14.833 -188.5 -44.5 -263.5s-62.167 -131.167 -97.5 -168.5h657v-157h-887v150c56 41.333 100.5 99.666 133.5 174.999s49.5 164 49.5 266v105h-191
v124h189v119c0 64 4 121.667 12 173s22.333 100.5 43 147.5s47.5 86.333 80.5 118s75.667 56.667 128 75s113.166 27.5 182.499 27.5c116 0 208 -25 276 -75l-50 -140c-64.667 38.667 -133.334 58 -206.001 58z" />
    <glyph glyph-name="currency" unicode="&#xa4;" horiz-adv-x="1218" 
d="M609 712c86.667 0 158.667 30 216 90s86 134 86 222c0 87.333 -28.667 160.666 -86 219.999s-129.333 89 -216 89s-158.667 -29.667 -216 -89s-86 -132.666 -86 -219.999c0 -88 28.667 -162 86 -222s129.333 -90 216 -90zM171 545l-51 51.002l187 187
c-58.667 70.667 -88 151.667 -88 243c0 96 31.667 180 95 252l-195 195l51 51l197 -196c70 55.333 151 83 243 83c90 0 171 -27.333 243 -82l195 195l51 -51l-193 -193c64 -72.667 96 -157.334 96 -254.001c0 -92.667 -29.667 -174.334 -89 -245.001l186 -185l-51 -51
l-186 186c-72.667 -60 -156.667 -90 -252 -90s-179.333 30.333 -252 91z" />
    <glyph glyph-name="yen" unicode="&#xa5;" horiz-adv-x="1221" 
d="M178 281v116h331v161h-331v120h272l-442 778h212l389 -713l391 713h213l-454 -778h273v-120h-331v-161h332v-116h-332v-281h-192v281h-331z" />
    <glyph glyph-name="brokenbar" unicode="&#xa6;" horiz-adv-x="500" 
d="M197 648v887h160v-887h-160zM198 -482v881h160v-881h-160z" />
    <glyph glyph-name="section" unicode="&#xa7;" horiz-adv-x="1069" 
d="M611 530c32 20 58.667 44.9951 80 74.9951s32 62 32 96c0 12 -1.66699 23.333 -5 34s-7 20 -11 28s-11 16.333 -21 25s-18.167 15.5 -24.5 20.5s-17.333 11.833 -33 20.5s-27.334 14.834 -35.001 18.501s-21.667 10.334 -42 20.001s-34.833 16.5 -43.5 20.5
c-38.667 -17.333 -72.5 -40.166 -101.5 -68.499s-43.5 -59.166 -43.5 -92.499c0 -17.333 4.33301 -33.666 13 -48.999s18.5 -28.5 29.5 -39.5s29.5 -23.5 55.5 -37.5s47.833 -25.167 65.5 -33.5s45.834 -20.833 84.501 -37.5zM507 -75.0049
c-105.333 0 -206.002 18.6709 -302.002 56.0039v150c105.333 -44 202 -66 290 -66c68.667 0 123.167 14 163.5 42s60.5 67.333 60.5 118c0 9.33301 -1.16699 18.166 -3.5 26.499s-6.66602 16.666 -12.999 24.999s-12.333 15.666 -18 21.999s-15.5 13.833 -29.5 22.5
s-25.667 15.834 -35 21.501s-24.5 13.667 -45.5 24s-37.833 18.666 -50.5 24.999s-33 15.833 -61 28.5c-22 10.667 -39 18.667 -51 24c-74 34.667 -129.833 73.167 -167.5 115.5s-56.5 93.833 -56.5 154.5c0 51.333 18.833 99 56.5 143s84.167 77.667 139.5 101
c-57.333 36 -100 72.167 -128 108.5s-42 81.166 -42 134.499c0 62.667 17.833 116 53.5 160s81.167 75.833 136.5 95.5s118 29.5 188 29.5c89.333 0 173 -13.333 251 -40v-135c-73.333 27.333 -148.333 41 -225 41c-65.333 0 -119 -12 -161 -36s-63 -60 -63 -108
c0 -36 17.5 -68.333 52.5 -97s95.167 -63 180.5 -103c38.667 -18.667 69.5 -34.167 92.5 -46.5s48.167 -27.833 75.5 -46.5s48.333 -36.667 63 -54s27 -38 37 -62s15 -50 15 -78c0 -50 -16.833 -97.167 -50.5 -141.5s-76.5 -82.833 -128.5 -115.5
c112.667 -59.333 169 -137 169 -233c0 -66 -18 -122.667 -54 -170s-83.167 -81.833 -141.5 -103.5s-124.166 -32.5 -197.499 -32.5z" />
    <glyph glyph-name="dieresis" unicode="&#xa8;" horiz-adv-x="743" 
d="M480 1182v189h186v-189h-186zM77 1182v189h187v-189h-187z" />
    <glyph glyph-name="copyright" unicode="&#xa9;" horiz-adv-x="1728" 
d="M863 -25c-102 0 -199.5 19.833 -292.5 59.5s-173.333 93.167 -241 160.5s-121.5 147.5 -161.5 240.5s-60 190.5 -60 292.5s20 199.667 60 293s93.833 173.666 161.5 240.999s148 121 241 161s190.5 60 292.5 60c102.667 0 200.667 -20 294 -60
s173.833 -93.667 241.5 -161s121.667 -147.666 162 -240.999s60.5 -191 60.5 -293s-20.167 -199.5 -60.5 -292.5s-94.333 -173.167 -162 -240.5s-148.167 -120.833 -241.5 -160.5s-191.333 -59.5 -294 -59.5zM865 75c86.667 0 169.498 17.3311 248.498 51.998
s146.833 81.167 203.5 139.5s101.834 127.5 135.501 207.5s50.5 163.667 50.5 251c0 116.667 -28.333 225.334 -85 326.001s-134.167 180.834 -232.5 240.501s-205.166 89.5 -320.499 89.5c-86.667 0 -169.667 -17.667 -249 -53s-147.5 -82.5 -204.5 -141.5
s-102.333 -128.833 -136 -209.5s-50.5 -164.667 -50.5 -252s16.833 -171 50.5 -251s79 -149.167 136 -207.5s125 -104.833 204 -139.5s162.167 -52 249.5 -52zM885.998 285.998c-124.667 0 -228.166 40 -310.499 120s-123.5 184 -123.5 312
c0 136.667 40.333 246.667 121 330s186 125 316 125c116 0 207.667 -33.667 275 -101l-53 -102c-60.667 51.333 -131.667 77 -213 77c-82 0 -150.333 -27.667 -205 -83s-82 -137 -82 -245c0 -96.667 26.167 -172.167 78.5 -226.5s120.166 -81.5 203.499 -81.5
c87.333 0 164.333 26.333 231 79l50 -109c-84 -63.333 -180 -95 -288 -95z" />
    <glyph glyph-name="ordfeminine" unicode="&#xaa;" horiz-adv-x="791" 
d="M348 867c58.667 0 106.33 18.501 142.997 55.501s55 85.167 55 144.5v22c-46.667 0 -80.5 -0.166992 -101.5 -0.5s-46.667 -1.5 -77 -3.5s-51.666 -5.33301 -63.999 -10s-25.666 -11.334 -39.999 -20.001s-23.666 -19.5 -27.999 -32.5s-6.5 -29.167 -6.5 -48.5
c0 -34 10.833 -60.333 32.5 -79s50.5 -28 86.5 -28zM332.996 760.001c-70.667 0 -128.667 18.833 -174 56.5s-68 88.5 -68 152.5c0 66 23.667 117.333 71 154s117.333 55 210 55h174v36c0 54.667 -11.167 93.834 -33.5 117.501s-58.5 35.5 -108.5 35.5
c-35.333 0 -72.5 -4.5 -111.5 -13.5s-69.167 -18.167 -90.5 -27.5l-32 -13l-42 101c3.33301 2 8 4.5 14 7.5s18.833 8.33301 38.5 16s40 14.5 61 20.5s47.333 11.333 79 16s62.834 7 93.501 7c53.333 0 100 -7.83301 140 -23.5s73.167 -42.834 99.5 -81.501
s39.833 -87.667 40.5 -147l-1 -312c0 -28 2.33301 -72.667 7 -134h-141l-8 95c-17.333 -34 -45.333 -62.167 -84 -84.5s-83.334 -33.5 -134.001 -33.5z" />
    <glyph glyph-name="guillemotleft" unicode="&#xab;" horiz-adv-x="1118" 
d="M832 170l-271 373l277 375h163l-249 -375l241 -373h-161zM403 170l-271 373l276 375h162l-247 -375l239 -373h-159z" />
    <glyph glyph-name="logicalnot" unicode="&#xac;" horiz-adv-x="1464" 
d="M1079 234v412h-882v156h1052v-568h-170z" />
    <glyph glyph-name="uni00AD" unicode="&#xad;" horiz-adv-x="679" 
d="M61 487v142h556v-142h-556z" />
    <glyph glyph-name="registered" unicode="&#xae;" horiz-adv-x="1728" 
d="M863 -25c-102 0 -199.5 19.833 -292.5 59.5s-173.333 93.167 -241 160.5s-121.5 147.5 -161.5 240.5s-60 190.5 -60 292.5s20 199.667 60 293s93.833 173.666 161.5 240.999s148 121 241 161s190.5 60 292.5 60c102.667 0 200.667 -20 294 -60
s173.833 -93.667 241.5 -161s121.667 -147.666 162 -240.999s60.5 -191 60.5 -293s-20.167 -199.5 -60.5 -292.5s-94.333 -173.167 -162 -240.5s-148.167 -120.833 -241.5 -160.5s-191.333 -59.5 -294 -59.5zM865 75c86.667 0 169.498 17.3311 248.498 51.998
s146.833 81.167 203.5 139.5s101.834 127.5 135.501 207.5s50.5 163.667 50.5 251c0 116.667 -28.333 225.334 -85 326.001s-134.167 180.834 -232.5 240.501s-205.166 89.5 -320.499 89.5c-86.667 0 -169.667 -17.667 -249 -53s-147.5 -82.5 -204.5 -141.5
s-102.333 -128.833 -136 -209.5s-50.5 -164.667 -50.5 -252s16.833 -171 50.5 -251s79 -149.167 136 -207.5s125 -104.833 204 -139.5s162.167 -52 249.5 -52zM705.998 776.998l117.001 -0.000976562c85.333 0 146.666 9.33301 183.999 28s56 55 56 109
c0 60.667 -15.333 99.334 -46 116.001s-95.667 25 -195 25h-116v-278zM543.999 277.997v909h283c141.333 0 244.333 -21.833 309 -65.5s97 -108.167 97 -193.5c0 -64.667 -15.333 -118 -46 -160s-84.667 -71 -162 -87l210 -403h-184l-184 382h-159v-382h-164z" />
    <glyph glyph-name="macron" unicode="&#xaf;" horiz-adv-x="720" 
d="M68 1242v124h584v-124h-584z" />
    <glyph glyph-name="degree" unicode="&#xb0;" horiz-adv-x="854" 
d="M427 854c-85.333 0 -157.333 29 -216 87s-88 128.333 -88 211c0 83.333 29.167 153.833 87.5 211.5s130.5 86.5 216.5 86.5s158.167 -28.833 216.5 -86.5s87.5 -128.167 87.5 -211.5c0 -82.667 -29.333 -153 -88 -211s-130.667 -87 -216 -87zM427 968
c54 0 97.499 17.833 130.499 53.5s49.5 79.5 49.5 131.5c0 51.333 -16.5 94.666 -49.5 129.999s-76.5 53 -130.5 53c-53.333 0 -96.666 -17.667 -129.999 -53s-50 -78.666 -50 -129.999c0 -52 16.5 -95.833 49.5 -131.5s76.5 -53.5 130.5 -53.5z" />
    <glyph glyph-name="plusminus" unicode="&#xb1;" horiz-adv-x="1232" 
d="M184 0v132h873v-132h-873zM532 255v339h-338v155h336v340h170v-340h334v-155h-329v-339h-173z" />
    <glyph glyph-name="uni00B2" unicode="&#xb2;" horiz-adv-x="1114" 
d="M309 619l-0.000976562 99.999l274 266c94.667 90.667 142 170.334 142 239.001c0 34 -12 61.167 -36 81.5s-57.667 30.5 -101 30.5c-41.333 0 -79.333 -10.667 -114 -32s-62.334 -52 -83.001 -92l-77 83c25.333 50.667 62.833 90.167 112.5 118.5
s105.834 42.5 168.501 42.5c78.667 0 142.834 -20.667 192.501 -62s74.5 -97.333 74.5 -168c0 -54 -17 -107.5 -51 -160.5s-84 -110.167 -150 -171.5l-178 -166h376v-109h-550z" />
    <glyph glyph-name="uni00B3" unicode="&#xb3;" horiz-adv-x="1064" 
d="M540 601c-50 0 -98.499 8.16699 -145.499 24.5s-86.833 39.833 -119.5 70.5l56 97c63.333 -52 130.666 -78 201.999 -78c48 0 86.5 12.5 115.5 37.5s43.5 58.833 43.5 101.5c0 44 -17.167 77.5 -51.5 100.5s-82.833 34.5 -145.5 34.5h-73v113h68
c56 0 100 10.167 132 30.5s48 50.5 48 90.5c0 38.667 -12.167 68 -36.5 88s-57.833 30 -100.5 30c-73.333 0 -141 -25.333 -203 -76l-56 92c32.667 30.667 73 54.834 121 72.501s96.667 26.5 146 26.5c75.333 0 138 -19.833 188 -59.5s75 -94.834 75 -165.501
c0 -41.333 -11.667 -78.333 -35 -111s-61 -55.667 -113 -69c55.333 -13.333 97.5 -38 126.5 -74s43.5 -78 43.5 -126c0 -77.333 -27 -138.333 -81 -183s-122.333 -67 -205 -67z" />
    <glyph glyph-name="acute" unicode="&#xb4;" horiz-adv-x="607" 
d="M73 1172l236 360h237l-319 -360h-154z" />
    <glyph glyph-name="mu" unicode="&#xb5;" horiz-adv-x="1197" 
d="M866 259c-74 -97.333 -173.333 -146 -298 -146c-82 0 -141.167 24.833 -177.5 74.5s-54.5 123.167 -54.5 220.5v674h-182v-1370h182v311c56 -28.667 125 -43 207 -43c142.667 0 255 51.667 337 155l10 -135h157v1082h-181v-823z" />
    <glyph glyph-name="paragraph" unicode="&#xb6;" horiz-adv-x="1210" 
d="M483 -179v992.001c-100 2.66699 -183.833 32.167 -251.5 88.5s-101.5 133.5 -101.5 231.5c0 50 7.5 93.667 22.5 131s35.667 68.166 62 92.499s59.5 44 99.5 59s83 25.5 129 31.5s98 9 156 9h450v-141h-104v-1494h-135v1494h-191v-1494h-136z" />
    <glyph glyph-name="periodcentered" unicode="&#xb7;" horiz-adv-x="509" 
d="M282 517v200h199v-200h-199z" />
    <glyph glyph-name="cedilla" unicode="&#xb8;" horiz-adv-x="529" 
d="M221 -447c-63.333 0 -122 9.33496 -176 28.002l13 97c14 -6 36.5 -12 67.5 -18s59.833 -9 86.5 -9h3c34 0 60.5 6.66699 79.5 20s28.5 31.666 28.5 54.999c0 22.667 -13 42.834 -39 60.501s-66.333 26.5 -121 26.5h-22l32 196h97l-20 -128
c70 -6.66699 125.5 -24 166.5 -52s61.5 -64 61.5 -108c0 -26.667 -6.5 -50.834 -19.5 -72.501s-31 -39.334 -54 -53.001s-49.833 -24.167 -80.5 -31.5s-63.667 -11 -99 -11h-2h-2z" />
    <glyph glyph-name="uni00B9" unicode="&#xb9;" horiz-adv-x="1055" 
d="M328 618l-0.000976562 118.001h150v555c-15.333 -8 -71.666 -30 -168.999 -66v127c19.333 6 52.833 19.167 100.5 39.5s77.167 34.166 88.5 41.499l110 8v-708h140v-115h-420z" />
    <glyph glyph-name="ordmasculine" unicode="&#xba;" horiz-adv-x="885" 
d="M447 752c-117.333 0 -208.168 33.5 -272.501 100.5s-96.5 153.167 -96.5 258.5c0 102.667 32.667 187.5 98 254.5s155 100.5 269 100.5c114.667 0 204.167 -33.667 268.5 -101s96.5 -153.333 96.5 -258c0 -101.333 -32.167 -185.833 -96.5 -253.5
s-153.166 -101.5 -266.499 -101.5zM446.998 879c64.667 0 115.999 20.501 153.999 61.501s57 95.833 57 164.5c0 71.333 -19.167 127.666 -57.5 168.999s-90.166 62 -155.499 62c-64 0 -115.167 -20.5 -153.5 -61.5s-57.5 -96.167 -57.5 -165.5
c0 -72.667 18.5 -129.167 55.5 -169.5s89.5 -60.5 157.5 -60.5z" />
    <glyph glyph-name="guillemotright" unicode="&#xbb;" horiz-adv-x="1118" 
d="M565 168l247 375l-239 373h159l271 -373l-276 -375h-162zM135 168l247 375l-239 373h160l271 -373l-277 -375h-162z" />
    <glyph glyph-name="onequarter" unicode="&#xbc;" horiz-adv-x="1970" 
d="M1278 300h244v343zM492 0l902 1456h159l-899 -1456h-162zM1524 0v190h-378v95l369 515h146v-500h110v-110h-112v-190h-135zM212 631v113.001h166v573l-181 -64l1 118c12 3.33301 47 17.166 105 41.499s91 38.833 99 43.5h118v-714h150v-111h-458z" />
    <glyph glyph-name="onehalf" unicode="&#xbd;" horiz-adv-x="2126" 
d="M210 631v113.001h166v573l-180 -64l1 118c12 3.33301 47 17.166 105 41.499s91 38.833 99 43.5h117v-714h151v-111h-459zM461 0.000976562l902 1456h158l-898 -1456h-162zM1572 840.001c82 0 148.165 -21.833 198.498 -65.5s75.5 -104.5 75.5 -182.5
c0 -26.667 -3.33301 -51.667 -10 -75s-14.667 -44.166 -24 -62.499s-24 -38.5 -44 -60.5s-38.5 -41 -55.5 -57s-41.167 -37.667 -72.5 -65l-166 -148h367v-124h-558v126l272 251c54 50 91 89.5 111 118.5s30 60.167 30 93.5c0 38.667 -11.167 69.167 -33.5 91.5
s-55.166 33.5 -98.499 33.5c-39.333 0 -77.5 -10.333 -114.5 -31s-67.5 -49.334 -91.5 -86.001l-74 95c30 46.667 70.333 83 121 109s106.334 39 167.001 39z" />
    <glyph glyph-name="threequarters" unicode="&#xbe;" horiz-adv-x="2126" 
d="M1289 300h244v343zM528 0l903 1456h159l-899 -1456h-163zM1535 0v190h-378v95l369 515h146v-500h110v-110h-112v-190h-135zM474 603c-105.333 0 -194.33 31.333 -266.997 94l57 95c67.333 -51.333 134.666 -77 201.999 -77c46 0 83.833 13.5 113.5 40.5
s44.5 61.5 44.5 103.5s-16.5 74.167 -49.5 96.5s-79.167 33.5 -138.5 33.5h-79v111h75c51.333 0 92.5 11.167 123.5 33.5s46.5 52.5 46.5 90.5s-12.833 68.333 -38.5 91s-59.5 34 -101.5 34c-68.667 0 -135.667 -25 -201 -75l-56 88c35.333 30 77.166 53.5 125.499 70.5
s97.166 25.5 146.499 25.5c76.667 0 140.167 -19.5 190.5 -58.5s75.5 -93.5 75.5 -163.5c0 -38.667 -12 -74.167 -36 -106.5s-60 -56.5 -108 -72.5c54.667 -16 96.167 -41.833 124.5 -77.5s42.5 -76.5 42.5 -122.5c0 -79.333 -27.833 -141.5 -83.5 -186.5
s-125.167 -67.5 -208.5 -67.5z" />
    <glyph glyph-name="questiondown" unicode="&#xbf;" horiz-adv-x="1032" 
d="M695 1136v-221h-187v221h187zM677 753l0.000976562 -142.005c0 -38.667 -9.33301 -77 -28 -115s-41.834 -71.667 -69.501 -101s-57.834 -60.166 -90.501 -92.499s-62.834 -62.666 -90.501 -90.999s-50.834 -60.333 -69.501 -96s-28 -71.167 -28 -106.5
c0 -66.667 23 -116 69 -148s106.333 -48 181 -48c54 0 107.5 8 160.5 24s95.833 32.667 128.5 50v-166c-39.333 -19.333 -87.5 -35.5 -144.5 -48.5s-112.167 -19.5 -165.5 -19.5c-126 0 -227.5 29.833 -304.5 89.5s-115.5 146.167 -115.5 259.5
c0 40.667 7.66699 79.834 23 117.501s35.333 71.334 60 101.001s51.834 58.834 81.501 87.501s59.334 56.5 89.001 83.5s56.834 53.667 81.501 80s44.667 55.333 60 87s23 63.5 23 95.5v99h149z" />
    <glyph glyph-name="Agrave" unicode="&#xc0;" 
d="M619 1603l-337 360h240l250 -360h-153zM438 545h514c-84.667 239.333 -170 476.333 -256 711c-86.667 -238 -172.667 -475 -258 -711zM31 0l565 1456h204l568 -1456h-209l-150 389h-623l-147 -389h-208z" />
    <glyph glyph-name="Aacute" unicode="&#xc1;" 
d="M631 1602l236 360h237l-319 -360h-154zM438 545h514c-84.667 239.333 -170 476.333 -256 711c-86.667 -238 -172.667 -475 -258 -711zM31 0l565 1456h204l568 -1456h-209l-150 389h-623l-147 -389h-208z" />
    <glyph glyph-name="Acircumflex" unicode="&#xc2;" 
d="M387 1584l234 347h162l236 -347h-156l-162 218l-164 -218h-150zM438 545h514c-84.667 239.333 -170 476.333 -256 711c-86.667 -238 -172.667 -475 -258 -711zM31 0l565 1456h204l568 -1456h-209l-150 389h-623l-147 -389h-208z" />
    <glyph glyph-name="Atilde" unicode="&#xc3;" 
d="M854 1605c-25.333 0 -57.499 8.33203 -96.499 24.999s-76.5 33.5 -112.5 50.5s-63.667 25.5 -83 25.5c-40.667 0 -64 -31 -70 -93h-118c0 70.667 16.167 127.167 48.5 169.5s76.166 63.5 131.499 63.5c14 0 29 -1.83301 45 -5.5s31.5 -8.5 46.5 -14.5s30 -12.667 45 -20
s29.667 -14.5 44 -21.5s28 -13.5 41 -19.5s25.5 -10.833 37.5 -14.5s22.667 -5.5 32 -5.5c21.333 0 36.5 7.33301 45.5 22s13.833 40.334 14.5 77.001h122c0 -74.667 -14.833 -133.167 -44.5 -175.5s-72.5 -63.5 -128.5 -63.5zM438.001 544.999h514
c-84.667 239.333 -170 476.333 -256 711c-86.667 -238 -172.667 -475 -258 -711zM31.001 -0.000976562l565 1456h204l568 -1456h-209l-150 389h-623l-147 -389h-208z" />
    <glyph glyph-name="Adieresis" unicode="&#xc4;" 
d="M808 1612v189h186v-189h-186zM405 1612v189h187v-189h-187zM438 545h514c-84.667 239.333 -170 476.333 -256 711c-86.667 -238 -172.667 -475 -258 -711zM31 0l565 1456h204l568 -1456h-209l-150 389h-623l-147 -389h-208z" />
    <glyph glyph-name="Aring" unicode="&#xc5;" 
d="M698 1567c-56.667 0 -104.334 18.667 -143.001 56s-58 83.666 -58 138.999c0 56 19.333 102.5 58 139.5s86.334 55.5 143.001 55.5s104.334 -18.5 143.001 -55.5s58 -83.5 58 -139.5c0 -55.333 -19.333 -101.666 -58 -138.999s-86.334 -56 -143.001 -56zM697 1652
c29.333 0 54.333 10.667 75 32s31 47.333 31 78s-10.333 56.667 -31 78s-45.667 32 -75 32s-54.333 -10.667 -75 -32s-31 -47.333 -31 -78s10.333 -56.667 31 -78s45.667 -32 75 -32zM438 545h514c-84.667 239.333 -170 476.333 -256 711
c-86.667 -238 -172.667 -475 -258 -711zM31 0l565 1456h204l568 -1456h-209l-150 389h-623l-147 -389h-208z" />
    <glyph glyph-name="AE" unicode="&#xc6;" horiz-adv-x="2062" 
d="M546 548h523l-55 743h-48zM25 0l844 1456h1018v-165h-689l39 -462h618v-158h-602l46 -508h613v-163h-794l-35 401h-612l-228 -401h-218z" />
    <glyph glyph-name="Ccedilla" unicode="&#xc7;" 
d="M812 -447c-63.333 0 -122 9.33496 -176 28.002l13 97c14 -6 36.5 -12 67.5 -18s59.833 -9 86.5 -9h3c34 0 60.5 6.66699 79.5 20s28.5 31.666 28.5 54.999c0 22.667 -13 42.834 -39 60.501s-66.333 26.5 -121 26.5h-22l32 196h97l-20 -128
c70 -6.66699 125.5 -24 166.5 -52s61.5 -64 61.5 -108c0 -26.667 -6.5 -50.834 -19.5 -72.501s-31 -39.334 -54 -53.001s-49.833 -24.167 -80.5 -31.5s-63.667 -11 -99 -11h-2h-2zM824 -21.998c-96.667 0 -188 16.168 -274 48.501s-162 78.666 -228 138.999
s-118.333 137.833 -157 232.5s-58 200.667 -58 318c0 113.333 18.167 218.166 54.5 314.499s86.166 177.333 149.499 243s138.5 116.834 225.5 153.501s180.5 55 280.5 55c183.333 0 336 -50 458 -150l-76 -130c-107.333 79.333 -230 119 -368 119
c-104 0 -196 -26.5 -276 -79.5s-141.167 -125.167 -183.5 -216.5s-63.5 -193.666 -63.5 -306.999c0 -176.667 48.833 -317.334 146.5 -422.001s223.834 -157 378.501 -157c146.667 0 284 48 412 144l64 -152c-139.333 -102 -301 -153 -485 -153z" />
    <glyph glyph-name="Egrave" unicode="&#xc8;" horiz-adv-x="1205" 
d="M565 1603l-337 360h240l250 -360h-153zM202 0v1456h872v-161h-681v-458h643v-162h-643v-514h710v-161h-901z" />
    <glyph glyph-name="Eacute" unicode="&#xc9;" horiz-adv-x="1205" 
d="M577 1602l236 360h237l-319 -360h-154zM202 0v1456h872v-161h-681v-458h643v-162h-643v-514h710v-161h-901z" />
    <glyph glyph-name="Ecircumflex" unicode="&#xca;" horiz-adv-x="1205" 
d="M334 1584l234 347h162l236 -347h-156l-162 218l-164 -218h-150zM202 0v1456h872v-161h-681v-458h643v-162h-643v-514h710v-161h-901z" />
    <glyph glyph-name="Edieresis" unicode="&#xcb;" horiz-adv-x="1205" 
d="M754 1612v189h186v-189h-186zM351 1612v189h187v-189h-187zM202 0v1456h872v-161h-681v-458h643v-162h-643v-514h710v-161h-901z" />
    <glyph glyph-name="Igrave" unicode="&#xcc;" horiz-adv-x="602" 
d="M241 1603l-337 360h240l250 -360h-153zM218 0v1456h191v-1456h-191z" />
    <glyph glyph-name="Iacute" unicode="&#xcd;" horiz-adv-x="602" 
d="M253 1602l236 360h237l-319 -360h-154zM218 0v1456h191v-1456h-191z" />
    <glyph glyph-name="Icircumflex" unicode="&#xce;" horiz-adv-x="602" 
d="M9 1584l234 347h162l236 -347h-156l-162 218l-164 -218h-150zM218 0v1456h191v-1456h-191z" />
    <glyph glyph-name="Idieresis" unicode="&#xcf;" horiz-adv-x="602" 
d="M430 1612v189h186v-189h-186zM27 1612v189h187v-189h-187zM218 0v1456h191v-1456h-191z" />
    <glyph glyph-name="Eth" unicode="&#xd0;" horiz-adv-x="1540" 
d="M45 704v142h556v-142h-556zM202 0v1456h358c281.333 0 496.333 -59.667 645 -179s223 -303 223 -551c0 -232 -69 -411 -207 -537s-336.667 -189 -596 -189h-423zM393 161h241.998c194.667 0 341.834 49.167 441.501 147.5s149.5 237.5 149.5 417.5
c0 194 -53.167 337.333 -159.5 430s-269.166 139 -488.499 139h-185v-1134z" />
    <glyph glyph-name="Ntilde" unicode="&#xd1;" horiz-adv-x="1598" 
d="M965 1605c-25.333 0 -57.499 8.33203 -96.499 24.999s-76.5 33.5 -112.5 50.5s-63.667 25.5 -83 25.5c-40.667 0 -64 -31 -70 -93h-118c0 70.667 16.167 127.167 48.5 169.5s76.166 63.5 131.499 63.5c14 0 29 -1.83301 45 -5.5s31.5 -8.5 46.5 -14.5s30 -12.667 45 -20
s29.667 -14.5 44 -21.5s28 -13.5 41 -19.5s25.5 -10.833 37.5 -14.5s22.667 -5.5 32 -5.5c21.333 0 36.5 7.33301 45.5 22s13.833 40.334 14.5 77.001h122c0 -74.667 -14.833 -133.167 -44.5 -175.5s-72.5 -63.5 -128.5 -63.5zM202.001 -0.000976562v1456h203l702 -1024
l108 -170v1194h182v-1456h-204l-684 986l-128 200v-1186h-179z" />
    <glyph glyph-name="Ograve" unicode="&#xd2;" horiz-adv-x="1626" 
d="M737 1603l-337 360h240l250 -360h-153zM816 -22c-220 0 -393.167 67.666 -519.5 202.999s-189.5 318 -189.5 548c0 148.667 27.833 279.5 83.5 392.5s137.5 201.333 245.5 265s235.333 95.5 382 95.5c214 0 384.5 -69.167 511.5 -207.5s190.5 -320.166 190.5 -545.499
c0 -229.333 -62.667 -411.833 -188 -547.5s-297.333 -203.5 -516 -203.5zM814 138.999c162.667 0 286.333 52.5 371 157.5s127 249.167 127 432.5c0 179.333 -42.5 322.833 -127.5 430.5s-207.833 161.5 -368.5 161.5c-160 0 -284.167 -54.167 -372.5 -162.5
s-132.5 -251.5 -132.5 -429.5c0 -182.667 43.333 -326.667 130 -432s211 -158 373 -158z" />
    <glyph glyph-name="Oacute" unicode="&#xd3;" horiz-adv-x="1626" 
d="M749 1602l236 360h237l-319 -360h-154zM816 -22c-220 0 -393.167 67.666 -519.5 202.999s-189.5 318 -189.5 548c0 148.667 27.833 279.5 83.5 392.5s137.5 201.333 245.5 265s235.333 95.5 382 95.5c214 0 384.5 -69.167 511.5 -207.5s190.5 -320.166 190.5 -545.499
c0 -229.333 -62.667 -411.833 -188 -547.5s-297.333 -203.5 -516 -203.5zM814 138.999c162.667 0 286.333 52.5 371 157.5s127 249.167 127 432.5c0 179.333 -42.5 322.833 -127.5 430.5s-207.833 161.5 -368.5 161.5c-160 0 -284.167 -54.167 -372.5 -162.5
s-132.5 -251.5 -132.5 -429.5c0 -182.667 43.333 -326.667 130 -432s211 -158 373 -158z" />
    <glyph glyph-name="Ocircumflex" unicode="&#xd4;" horiz-adv-x="1626" 
d="M506 1584l234 347h162l236 -347h-156l-162 218l-164 -218h-150zM816 -22c-220 0 -393.167 67.666 -519.5 202.999s-189.5 318 -189.5 548c0 148.667 27.833 279.5 83.5 392.5s137.5 201.333 245.5 265s235.333 95.5 382 95.5c214 0 384.5 -69.167 511.5 -207.5
s190.5 -320.166 190.5 -545.499c0 -229.333 -62.667 -411.833 -188 -547.5s-297.333 -203.5 -516 -203.5zM814 138.999c162.667 0 286.333 52.5 371 157.5s127 249.167 127 432.5c0 179.333 -42.5 322.833 -127.5 430.5s-207.833 161.5 -368.5 161.5
c-160 0 -284.167 -54.167 -372.5 -162.5s-132.5 -251.5 -132.5 -429.5c0 -182.667 43.333 -326.667 130 -432s211 -158 373 -158z" />
    <glyph glyph-name="Otilde" unicode="&#xd5;" horiz-adv-x="1626" 
d="M973 1605c-25.333 0 -57.499 8.33203 -96.499 24.999s-76.5 33.5 -112.5 50.5s-63.667 25.5 -83 25.5c-40.667 0 -64 -31 -70 -93h-118c0 70.667 16.167 127.167 48.5 169.5s76.166 63.5 131.499 63.5c14 0 29 -1.83301 45 -5.5s31.5 -8.5 46.5 -14.5s30 -12.667 45 -20
s29.667 -14.5 44 -21.5s28 -13.5 41 -19.5s25.5 -10.833 37.5 -14.5s22.667 -5.5 32 -5.5c21.333 0 36.5 7.33301 45.5 22s13.833 40.334 14.5 77.001h122c0 -74.667 -14.833 -133.167 -44.5 -175.5s-72.5 -63.5 -128.5 -63.5zM816.001 -22.001
c-220 0 -393.167 67.666 -519.5 202.999s-189.5 318 -189.5 548c0 148.667 27.833 279.5 83.5 392.5s137.5 201.333 245.5 265s235.333 95.5 382 95.5c214 0 384.5 -69.167 511.5 -207.5s190.5 -320.166 190.5 -545.499c0 -229.333 -62.667 -411.833 -188 -547.5
s-297.333 -203.5 -516 -203.5zM814.001 138.998c162.667 0 286.333 52.5 371 157.5s127 249.167 127 432.5c0 179.333 -42.5 322.833 -127.5 430.5s-207.833 161.5 -368.5 161.5c-160 0 -284.167 -54.167 -372.5 -162.5s-132.5 -251.5 -132.5 -429.5
c0 -182.667 43.333 -326.667 130 -432s211 -158 373 -158z" />
    <glyph glyph-name="Odieresis" unicode="&#xd6;" horiz-adv-x="1626" 
d="M926 1612v189h186v-189h-186zM523 1612v189h187v-189h-187zM816 -22c-220 0 -393.167 67.666 -519.5 202.999s-189.5 318 -189.5 548c0 148.667 27.833 279.5 83.5 392.5s137.5 201.333 245.5 265s235.333 95.5 382 95.5c214 0 384.5 -69.167 511.5 -207.5
s190.5 -320.166 190.5 -545.499c0 -229.333 -62.667 -411.833 -188 -547.5s-297.333 -203.5 -516 -203.5zM814 138.999c162.667 0 286.333 52.5 371 157.5s127 249.167 127 432.5c0 179.333 -42.5 322.833 -127.5 430.5s-207.833 161.5 -368.5 161.5
c-160 0 -284.167 -54.167 -372.5 -162.5s-132.5 -251.5 -132.5 -429.5c0 -182.667 43.333 -326.667 130 -432s211 -158 373 -158z" />
    <glyph glyph-name="multiply" unicode="&#xd7;" horiz-adv-x="1231" 
d="M335 145l-117 117l289 291l-289 289l117 118l290 -290l289 290l118 -118l-290 -289l290 -290l-118 -118l-289 288z" />
    <glyph glyph-name="Oslash" unicode="&#xd8;" horiz-adv-x="1626" 
d="M816 -22c218.667 0 390.665 67.834 515.998 203.501s188 318.167 188 547.5c0 93.333 -11.667 180.666 -35 261.999s-57.166 153.5 -101.499 216.5s-97.833 115.833 -160.5 158.5l85 159l-92 47l-83 -155c-46 21.333 -95.5 37.5 -148.5 48.5s-108.5 16.5 -166.5 16.5
c-146.667 0 -274 -31.833 -382 -95.5s-189.833 -152 -245.5 -265s-83.5 -243.833 -83.5 -392.5c0 -147.333 26.833 -276.5 80.5 -387.5s130.5 -197.833 230.5 -260.5l-88 -164l93 -48l88 165c90.667 -37.333 192.334 -56 305.001 -56zM1139 1208
c56.667 -51.333 99.667 -118 129 -200s44 -175 44 -279c0 -183.333 -42.333 -327.5 -127 -432.5s-208.334 -157.5 -371.001 -157.5c-83.333 0 -157.666 14.667 -222.999 44zM1053 1268l-551.002 -1030c-62.667 50 -110.167 116.833 -142.5 200.5s-48.5 180.5 -48.5 290.5
c0 178 44.167 321.167 132.5 429.5s212.5 162.5 372.5 162.5c22.667 0 44.834 -1.16699 66.501 -3.5s42.334 -5.83301 62.001 -10.5s38.5 -10.167 56.5 -16.5s35.333 -13.833 52 -22.5z" />
    <glyph glyph-name="Ugrave" unicode="&#xd9;" horiz-adv-x="1495" 
d="M667 1603l-337 360h240l250 -360h-153zM744 -22c-382.667 0 -574 194.001 -574 582.001v896h191v-900c0 -142.667 32.333 -247.834 97 -315.501s160.667 -101.5 288 -101.5c257.333 0 386 137.667 386 413v904h190v-894c0 -88.667 -10.667 -167.667 -32 -237
s-54.333 -130.5 -99 -183.5s-104.667 -93.5 -180 -121.5s-164.333 -42 -267 -42z" />
    <glyph glyph-name="Uacute" unicode="&#xda;" horiz-adv-x="1495" 
d="M679 1602l236 360h237l-319 -360h-154zM744 -22c-382.667 0 -574 194.001 -574 582.001v896h191v-900c0 -142.667 32.333 -247.834 97 -315.501s160.667 -101.5 288 -101.5c257.333 0 386 137.667 386 413v904h190v-894c0 -88.667 -10.667 -167.667 -32 -237
s-54.333 -130.5 -99 -183.5s-104.667 -93.5 -180 -121.5s-164.333 -42 -267 -42z" />
    <glyph glyph-name="Ucircumflex" unicode="&#xdb;" horiz-adv-x="1495" 
d="M435 1584l234 347h162l236 -347h-156l-162 218l-164 -218h-150zM744 -22c-382.667 0 -574 194.001 -574 582.001v896h191v-900c0 -142.667 32.333 -247.834 97 -315.501s160.667 -101.5 288 -101.5c257.333 0 386 137.667 386 413v904h190v-894
c0 -88.667 -10.667 -167.667 -32 -237s-54.333 -130.5 -99 -183.5s-104.667 -93.5 -180 -121.5s-164.333 -42 -267 -42z" />
    <glyph glyph-name="Udieresis" unicode="&#xdc;" horiz-adv-x="1495" 
d="M856 1612v189h186v-189h-186zM453 1612v189h187v-189h-187zM744 -22c-382.667 0 -574 194.001 -574 582.001v896h191v-900c0 -142.667 32.333 -247.834 97 -315.501s160.667 -101.5 288 -101.5c257.333 0 386 137.667 386 413v904h190v-894
c0 -88.667 -10.667 -167.667 -32 -237s-54.333 -130.5 -99 -183.5s-104.667 -93.5 -180 -121.5s-164.333 -42 -267 -42z" />
    <glyph glyph-name="Yacute" unicode="&#xdd;" horiz-adv-x="1239" 
d="M572 1602l236 360h237l-319 -360h-154zM522 0v575l-501 881h212l389 -713l391 713h213l-512 -878v-578h-192z" />
    <glyph glyph-name="Thorn" unicode="&#xde;" horiz-adv-x="1280" 
d="M391 508h257.997c108.667 0 194.334 22.167 257.001 66.5s94 111.5 94 201.5c0 54 -8.66699 99.333 -26 136s-43.666 65 -78.999 85s-75.666 34 -120.999 42s-100 12 -164 12h-219v-543zM199.997 0l0.00195312 1456h191v-244h207c73.333 0 138.166 -3.33301 194.499 -10
s111.333 -19.5 165 -38.5s97.834 -44.333 132.501 -76s62.5 -73.667 83.5 -126s31.5 -113.833 31.5 -184.5c0 -60 -9.33301 -114 -28 -162s-44.834 -88.5 -78.501 -121.5s-74.167 -60.667 -121.5 -83s-98.833 -38.5 -154.5 -48.5s-115.834 -15 -180.501 -15h-251v-347h-191z
" />
    <glyph glyph-name="germandbls" unicode="&#xdf;" horiz-adv-x="1251" 
d="M761 124c66 0 119.164 17.8291 159.497 53.4961s60.5 86.834 60.5 153.501c0 91.333 -34.333 168.833 -103 232.5s-176 126.167 -322 187.5v140c97.333 33.333 166.333 72.5 207 117.5s61 100.167 61 165.5c0 55.333 -20.167 99.333 -60.5 132s-94.166 49 -161.499 49
c-81.333 0 -144 -29.167 -188 -87.5s-66 -138.166 -66 -239.499v-1028h-181l-1 1026c0 154 38.5 272 115.5 354s184.167 123 321.5 123c125.333 0 225.333 -29.5 300 -88.5s112 -136.833 112 -233.5c0 -78 -20 -143.167 -60 -195.5s-102 -96.166 -186 -131.499
c-15.333 -8.66699 -37.666 -17.667 -66.999 -27c20.667 -5.33301 43.667 -12.666 69 -21.999c270.667 -98 406 -252 406 -462c0 -110 -36.167 -198.667 -108.5 -266s-162.166 -101 -269.499 -101c-112.667 0 -220 20.333 -322 61l29 145c10.667 -4.66699 22 -9 34 -13
s31 -10 57 -18s53.5 -14.5 82.5 -19.5s56.167 -7.5 81.5 -7.5z" />
    <glyph glyph-name="agrave" unicode="&#xe0;" horiz-adv-x="1273" 
d="M513 1173l-337 360h240l250 -360h-153zM615 128c102 0 179.834 35.501 233.501 106.501s80.5 166.5 80.5 286.5c0 113.333 -27.333 205.166 -82 275.499s-132.667 105.5 -234 105.5c-106.667 0 -187.834 -35.333 -243.501 -106s-83.5 -163.334 -83.5 -278.001
c0 -115.333 28 -209.166 84 -281.499s137.667 -108.5 245 -108.5zM589.001 -21.999c-76.667 0 -146.17 14.332 -208.503 42.999s-113.666 67.5 -153.999 116.5s-71.333 105.667 -93 170s-32.5 132.833 -32.5 205.5c0 100 19.5 190.5 58.5 271.5s95.833 145.833 170.5 194.5
s161 73 259 73c72.667 0 138.834 -17.667 198.501 -53s104.834 -80.666 135.501 -135.999v163h182v-1026h-184v175c-29.333 -61.333 -73 -109.5 -131 -144.5s-125 -52.5 -201 -52.5z" />
    <glyph glyph-name="aacute" unicode="&#xe1;" horiz-adv-x="1273" 
d="M525 1172l236 360h237l-319 -360h-154zM615 128c102 0 179.834 35.501 233.501 106.501s80.5 166.5 80.5 286.5c0 113.333 -27.333 205.166 -82 275.499s-132.667 105.5 -234 105.5c-106.667 0 -187.834 -35.333 -243.501 -106s-83.5 -163.334 -83.5 -278.001
c0 -115.333 28 -209.166 84 -281.499s137.667 -108.5 245 -108.5zM589.001 -21.999c-76.667 0 -146.17 14.332 -208.503 42.999s-113.666 67.5 -153.999 116.5s-71.333 105.667 -93 170s-32.5 132.833 -32.5 205.5c0 100 19.5 190.5 58.5 271.5s95.833 145.833 170.5 194.5
s161 73 259 73c72.667 0 138.834 -17.667 198.501 -53s104.834 -80.666 135.501 -135.999v163h182v-1026h-184v175c-29.333 -61.333 -73 -109.5 -131 -144.5s-125 -52.5 -201 -52.5z" />
    <glyph glyph-name="acircumflex" unicode="&#xe2;" horiz-adv-x="1273" 
d="M281 1154l234 347h162l236 -347h-156l-162 218l-164 -218h-150zM615 128c102 0 179.834 35.501 233.501 106.501s80.5 166.5 80.5 286.5c0 113.333 -27.333 205.166 -82 275.499s-132.667 105.5 -234 105.5c-106.667 0 -187.834 -35.333 -243.501 -106
s-83.5 -163.334 -83.5 -278.001c0 -115.333 28 -209.166 84 -281.499s137.667 -108.5 245 -108.5zM589.001 -21.999c-76.667 0 -146.17 14.332 -208.503 42.999s-113.666 67.5 -153.999 116.5s-71.333 105.667 -93 170s-32.5 132.833 -32.5 205.5
c0 100 19.5 190.5 58.5 271.5s95.833 145.833 170.5 194.5s161 73 259 73c72.667 0 138.834 -17.667 198.501 -53s104.834 -80.666 135.501 -135.999v163h182v-1026h-184v175c-29.333 -61.333 -73 -109.5 -131 -144.5s-125 -52.5 -201 -52.5z" />
    <glyph glyph-name="atilde" unicode="&#xe3;" horiz-adv-x="1273" 
d="M748 1175c-25.333 0 -57.499 8.33203 -96.499 24.999s-76.5 33.5 -112.5 50.5s-63.667 25.5 -83 25.5c-40.667 0 -64 -31 -70 -93h-118c0 70.667 16.167 127.167 48.5 169.5s76.166 63.5 131.499 63.5c14 0 29 -1.83301 45 -5.5s31.5 -8.5 46.5 -14.5s30 -12.667 45 -20
s29.667 -14.5 44 -21.5s28 -13.5 41 -19.5s25.5 -10.833 37.5 -14.5s22.667 -5.5 32 -5.5c21.333 0 36.5 7.33301 45.5 22s13.833 40.334 14.5 77.001h122c0 -74.667 -14.833 -133.167 -44.5 -175.5s-72.5 -63.5 -128.5 -63.5zM615.001 127.999
c102 0 179.834 35.501 233.501 106.501s80.5 166.5 80.5 286.5c0 113.333 -27.333 205.166 -82 275.499s-132.667 105.5 -234 105.5c-106.667 0 -187.834 -35.333 -243.501 -106s-83.5 -163.334 -83.5 -278.001c0 -115.333 28 -209.166 84 -281.499
s137.667 -108.5 245 -108.5zM589.002 -22c-76.667 0 -146.17 14.332 -208.503 42.999s-113.666 67.5 -153.999 116.5s-71.333 105.667 -93 170s-32.5 132.833 -32.5 205.5c0 100 19.5 190.5 58.5 271.5s95.833 145.833 170.5 194.5s161 73 259 73
c72.667 0 138.834 -17.667 198.501 -53s104.834 -80.666 135.501 -135.999v163h182v-1026h-184v175c-29.333 -61.333 -73 -109.5 -131 -144.5s-125 -52.5 -201 -52.5z" />
    <glyph glyph-name="adieresis" unicode="&#xe4;" horiz-adv-x="1273" 
d="M702 1182v189h186v-189h-186zM299 1182v189h187v-189h-187zM615 128c102 0 179.834 35.501 233.501 106.501s80.5 166.5 80.5 286.5c0 113.333 -27.333 205.166 -82 275.499s-132.667 105.5 -234 105.5c-106.667 0 -187.834 -35.333 -243.501 -106
s-83.5 -163.334 -83.5 -278.001c0 -115.333 28 -209.166 84 -281.499s137.667 -108.5 245 -108.5zM589.001 -21.999c-76.667 0 -146.17 14.332 -208.503 42.999s-113.666 67.5 -153.999 116.5s-71.333 105.667 -93 170s-32.5 132.833 -32.5 205.5
c0 100 19.5 190.5 58.5 271.5s95.833 145.833 170.5 194.5s161 73 259 73c72.667 0 138.834 -17.667 198.501 -53s104.834 -80.666 135.501 -135.999v163h182v-1026h-184v175c-29.333 -61.333 -73 -109.5 -131 -144.5s-125 -52.5 -201 -52.5z" />
    <glyph glyph-name="aring" unicode="&#xe5;" horiz-adv-x="1273" 
d="M592 1137c-56.667 0 -104.334 18.667 -143.001 56s-58 83.666 -58 138.999c0 56 19.333 102.5 58 139.5s86.334 55.5 143.001 55.5s104.334 -18.5 143.001 -55.5s58 -83.5 58 -139.5c0 -55.333 -19.333 -101.666 -58 -138.999s-86.334 -56 -143.001 -56zM591 1222
c29.333 0 54.333 10.667 75 32s31 47.333 31 78s-10.333 56.667 -31 78s-45.667 32 -75 32s-54.333 -10.667 -75 -32s-31 -47.333 -31 -78s10.333 -56.667 31 -78s45.667 -32 75 -32zM615 128c102 0 179.834 35.501 233.501 106.501s80.5 166.5 80.5 286.5
c0 113.333 -27.333 205.166 -82 275.499s-132.667 105.5 -234 105.5c-106.667 0 -187.834 -35.333 -243.501 -106s-83.5 -163.334 -83.5 -278.001c0 -115.333 28 -209.166 84 -281.499s137.667 -108.5 245 -108.5zM589.001 -21.999
c-76.667 0 -146.17 14.332 -208.503 42.999s-113.666 67.5 -153.999 116.5s-71.333 105.667 -93 170s-32.5 132.833 -32.5 205.5c0 100 19.5 190.5 58.5 271.5s95.833 145.833 170.5 194.5s161 73 259 73c72.667 0 138.834 -17.667 198.501 -53
s104.834 -80.666 135.501 -135.999v163h182v-1026h-184v175c-29.333 -61.333 -73 -109.5 -131 -144.5s-125 -52.5 -201 -52.5z" />
    <glyph glyph-name="ae" unicode="&#xe6;" horiz-adv-x="1791" 
d="M978 612h553.001l-2 16c-8 82 -35.333 148.667 -82 200s-108.334 77 -185.001 77c-81.333 0 -146.5 -28.167 -195.5 -84.5s-78.5 -125.833 -88.5 -208.5zM482.001 126c53.333 0 100.329 10.001 140.996 30.001s72.834 47.167 96.501 81.5s41.334 72.333 53.001 114
s17.834 86.167 18.501 133.5h-153c-55.333 0 -104.166 -3 -146.499 -9s-80.833 -15.833 -115.5 -29.5s-61.167 -33.334 -79.5 -59.001s-27.5 -56.834 -27.5 -93.501c0 -57.333 20 -99.666 60 -126.999s91 -41 153 -41zM1285 -21.999
c-92.667 0 -174.498 21.999 -245.498 65.999s-123.833 104.667 -158.5 182c-34.667 -74 -88.167 -134.167 -160.5 -180.5s-156.5 -69.5 -252.5 -69.5c-114.667 0 -207 27.5 -277 82.5s-105 130.5 -105 226.5c0 46.667 6.5 87.834 19.5 123.501s33 65.5 60 89.5
s57.833 43.833 92.5 59.5s77.334 27.667 128.001 36s101.834 14 153.501 17s112.167 4.5 181.5 4.5h68c0 87.333 -22.333 157.333 -67 210s-108.334 79 -191.001 79c-98 0 -205.333 -27.333 -322 -82l-55 130c121.333 67.333 255.666 101 402.999 101
c47.333 0 93.333 -7.83301 138 -23.5s85.5 -40 122.5 -73s63.833 -71.833 80.5 -116.5c38 66 88 118 150 156s132 57 210 57c92.667 0 172 -22.667 238 -68s115.333 -107.333 148 -186s49 -170.667 49 -276l-2 -37h-714v-27c5.33301 -152 59.666 -252.333 162.999 -301
c44 -20 95 -30 153 -30c24.667 0 49.667 2 75 6s48 9.33301 68 16s39.333 13.834 58 21.501s34.667 15.5 48 23.5s25.166 15.333 35.499 22s17.833 12 22.5 16l8 6l54 -134c-4 -3.33301 -9.5 -7.83301 -16.5 -13.5s-22.667 -15.834 -47 -30.501s-50.166 -27.667 -77.499 -39
s-62.333 -21.5 -105 -30.5s-86.334 -13.5 -131.001 -13.5z" />
    <glyph glyph-name="ccedilla" unicode="&#xe7;" horiz-adv-x="1064" 
d="M623 -447c-63.333 0 -122 9.33496 -176 28.002l13 97c14 -6 36.5 -12 67.5 -18s59.833 -9 86.5 -9h3c34 0 60.5 6.66699 79.5 20s28.5 31.666 28.5 54.999c0 22.667 -13 42.834 -39 60.501s-66.333 26.5 -121 26.5h-22l32 196h97l-20 -128
c70 -6.66699 125.5 -24 166.5 -52s61.5 -64 61.5 -108c0 -26.667 -6.5 -50.834 -19.5 -72.501s-31 -39.334 -54 -53.001s-49.833 -24.167 -80.5 -31.5s-63.667 -11 -99 -11h-2h-2zM624 -21.998c-158.667 0 -285.5 49.499 -380.5 148.499s-142.5 225.833 -142.5 380.5
c0 162 48.333 293.333 145 394s224 151 382 151c143.333 0 256.333 -40.667 339 -122l-65 -122c-71.333 62 -158.333 93 -261 93c-104.667 0 -189.167 -34.167 -253.5 -102.5s-96.5 -165.166 -96.5 -290.499c0 -116 31.167 -208.333 93.5 -277s146.833 -103 253.5 -103
c103.333 0 196.666 32 279.999 96l58 -133c-97.333 -75.333 -214.666 -113 -351.999 -113z" />
    <glyph glyph-name="egrave" unicode="&#xe8;" horiz-adv-x="1166" 
d="M511 1173l-337 360h240l250 -360h-153zM296 613h588.999c-6.66699 94 -34 166.333 -82 217s-112 76 -192 76c-84 0 -154.167 -26 -210.5 -78s-91.166 -123.667 -104.499 -215zM633.999 -22c-163.333 0 -293.001 48.501 -389.001 145.501s-144 225.833 -144 386.5
c0 158 46.167 287.833 138.5 389.5s214.5 152.5 366.5 152.5c96 0 178.167 -22.333 246.5 -67s119 -105.334 152 -182.001s49.5 -165.667 49.5 -267c0 -12.667 -1 -29 -3 -49h-760c2 -114.667 35 -203.167 99 -265.5s148.667 -93.5 254 -93.5
c122.667 0 231.334 38 326.001 114l55 -136c-110 -85.333 -240.333 -128 -391 -128z" />
    <glyph glyph-name="eacute" unicode="&#xe9;" horiz-adv-x="1166" 
d="M296 613h588.999c-6.66699 94 -34 166.333 -82 217s-112 76 -192 76c-84 0 -154.167 -26 -210.5 -78s-91.166 -123.667 -104.499 -215zM633.999 -22c-163.333 0 -293.001 48.501 -389.001 145.501s-144 225.833 -144 386.5c0 158 46.167 287.833 138.5 389.5
s214.5 152.5 366.5 152.5c96 0 178.167 -22.333 246.5 -67s119 -105.334 152 -182.001s49.5 -165.667 49.5 -267c0 -12.667 -1 -29 -3 -49h-760c2 -114.667 35 -203.167 99 -265.5s148.667 -93.5 254 -93.5c122.667 0 231.334 38 326.001 114l55 -136
c-110 -85.333 -240.333 -128 -391 -128zM522.998 1172l236 360h237l-319 -360h-154z" />
    <glyph glyph-name="ecircumflex" unicode="&#xea;" horiz-adv-x="1166" 
d="M296 613h588.999c-6.66699 94 -34 166.333 -82 217s-112 76 -192 76c-84 0 -154.167 -26 -210.5 -78s-91.166 -123.667 -104.499 -215zM633.999 -22c-163.333 0 -293.001 48.501 -389.001 145.501s-144 225.833 -144 386.5c0 158 46.167 287.833 138.5 389.5
s214.5 152.5 366.5 152.5c96 0 178.167 -22.333 246.5 -67s119 -105.334 152 -182.001s49.5 -165.667 49.5 -267c0 -12.667 -1 -29 -3 -49h-760c2 -114.667 35 -203.167 99 -265.5s148.667 -93.5 254 -93.5c122.667 0 231.334 38 326.001 114l55 -136
c-110 -85.333 -240.333 -128 -391 -128zM278.998 1154l234 347h162l236 -347h-156l-162 218l-164 -218h-150z" />
    <glyph glyph-name="edieresis" unicode="&#xeb;" horiz-adv-x="1166" 
d="M296 613h588.999c-6.66699 94 -34 166.333 -82 217s-112 76 -192 76c-84 0 -154.167 -26 -210.5 -78s-91.166 -123.667 -104.499 -215zM633.999 -22c-163.333 0 -293.001 48.501 -389.001 145.501s-144 225.833 -144 386.5c0 158 46.167 287.833 138.5 389.5
s214.5 152.5 366.5 152.5c96 0 178.167 -22.333 246.5 -67s119 -105.334 152 -182.001s49.5 -165.667 49.5 -267c0 -12.667 -1 -29 -3 -49h-760c2 -114.667 35 -203.167 99 -265.5s148.667 -93.5 254 -93.5c122.667 0 231.334 38 326.001 114l55 -136
c-110 -85.333 -240.333 -128 -391 -128zM699.998 1182v189h186v-189h-186zM296.998 1182v189h187v-189h-187z" />
    <glyph glyph-name="igrave" unicode="&#xec;" horiz-adv-x="534" 
d="M188 1173l-337 360h240l250 -360h-153zM177 0l-1 1026h185l1 -1026h-185z" />
    <glyph glyph-name="iacute" unicode="&#xed;" horiz-adv-x="534" 
d="M177 0l-1 1026h185l1 -1026h-185zM200 1172l236 360h237l-319 -360h-154z" />
    <glyph glyph-name="icircumflex" unicode="&#xee;" horiz-adv-x="534" 
d="M177 0l-1 1026h185l1 -1026h-185zM-44 1154l234 347h162l236 -347h-156l-162 218l-164 -218h-150z" />
    <glyph glyph-name="idieresis" unicode="&#xef;" horiz-adv-x="534" 
d="M177 0l-1 1026h185l1 -1026h-185zM377 1182v189h186v-189h-186zM-26 1182v189h187v-189h-187z" />
    <glyph glyph-name="eth" unicode="&#xf0;" horiz-adv-x="1223" 
d="M601 138c92.667 0 166.168 30.834 220.501 92.501s81.5 143.167 81.5 244.5c0 80.667 -30.5 147 -91.5 199s-132.833 78 -215.5 78c-88.667 0 -160.334 -26.833 -215.001 -80.5s-82 -126.834 -82 -219.501c0 -95.333 28.333 -171.5 85 -228.5s129 -85.5 217 -85.5z
M597.001 -21.999c-148 0 -266.668 45.167 -356.001 135.5s-134 203.833 -134 340.5c0 133.333 45.333 241.833 136 325.5s207 125.5 349 125.5c78 0 146.833 -17.667 206.5 -53s102.5 -77.333 128.5 -126c-2 60 -24.833 139.667 -68.5 239s-102.5 181.333 -176.5 246
l-221 -142l-66 102l186 119c-97.333 64.667 -201.666 110.334 -312.999 137.001l71 125c136 -30.667 262.333 -89 379 -175l216 139l66 -102l-185 -118c193.333 -180.667 290 -405 290 -673c0 -206.667 -44.167 -365.834 -132.5 -477.501s-213.5 -167.5 -375.5 -167.5z" />
    <glyph glyph-name="ntilde" unicode="&#xf1;" horiz-adv-x="1244" 
d="M840 1175c-25.333 0 -57.499 8.33203 -96.499 24.999s-76.5 33.5 -112.5 50.5s-63.667 25.5 -83 25.5c-40.667 0 -64 -31 -70 -93h-118c0 70.667 16.167 127.167 48.5 169.5s76.166 63.5 131.499 63.5c14 0 29 -1.83301 45 -5.5s31.5 -8.5 46.5 -14.5s30 -12.667 45 -20
s29.667 -14.5 44 -21.5s28 -13.5 41 -19.5s25.5 -10.833 37.5 -14.5s22.667 -5.5 32 -5.5c21.333 0 36.5 7.33301 45.5 22s13.833 40.334 14.5 77.001h122c0 -74.667 -14.833 -133.167 -44.5 -175.5s-72.5 -63.5 -128.5 -63.5zM177.001 -0.000976562l-0.00195312 742
c0 45.333 -0.833008 91.666 -2.5 138.999s-3.5 83.333 -5.5 108l-3 37h190l2 -161c35.333 58.667 84.833 104.5 148.5 137.5s130.834 49.5 201.501 49.5c129.333 0 224.666 -39.167 285.999 -117.5s92 -197.166 92 -356.499v-578h-184v577
c0 111.333 -16.667 193.333 -50 246s-92 79 -176 79c-77.333 0 -147.666 -26.167 -210.999 -78.5s-97.666 -112.5 -102.999 -180.5v-643h-185z" />
    <glyph glyph-name="ograve" unicode="&#xf2;" horiz-adv-x="1258" 
d="M631 -22c-166 0 -295.833 49.334 -389.5 148.001s-140.5 227.334 -140.5 386.001c0 161.333 47.167 291.666 141.5 390.999s224.5 149 390.5 149c165.333 0 294 -49.5 386 -148.5s138 -229.5 138 -391.5c0 -158.667 -46.667 -287.334 -140 -386.001s-222 -148 -386 -148z
M631 128.001c108 0 190.5 35 247.5 105s85.5 163 85.5 279c0 118 -28.833 212.5 -86.5 283.5s-140.167 106.5 -247.5 106.5c-108 0 -191 -35.5 -249 -106.5s-87 -165.5 -87 -283.5c0 -116 28.833 -209 86.5 -279s141.167 -105 250.5 -105zM553 1173l-337 360h240l250 -360
h-153z" />
    <glyph glyph-name="oacute" unicode="&#xf3;" horiz-adv-x="1258" 
d="M631 -22c-166 0 -295.833 49.334 -389.5 148.001s-140.5 227.334 -140.5 386.001c0 161.333 47.167 291.666 141.5 390.999s224.5 149 390.5 149c165.333 0 294 -49.5 386 -148.5s138 -229.5 138 -391.5c0 -158.667 -46.667 -287.334 -140 -386.001s-222 -148 -386 -148z
M631 128.001c108 0 190.5 35 247.5 105s85.5 163 85.5 279c0 118 -28.833 212.5 -86.5 283.5s-140.167 106.5 -247.5 106.5c-108 0 -191 -35.5 -249 -106.5s-87 -165.5 -87 -283.5c0 -116 28.833 -209 86.5 -279s141.167 -105 250.5 -105zM565 1172l236 360h237l-319 -360
h-154z" />
    <glyph glyph-name="ocircumflex" unicode="&#xf4;" horiz-adv-x="1258" 
d="M631 -22c-166 0 -295.833 49.334 -389.5 148.001s-140.5 227.334 -140.5 386.001c0 161.333 47.167 291.666 141.5 390.999s224.5 149 390.5 149c165.333 0 294 -49.5 386 -148.5s138 -229.5 138 -391.5c0 -158.667 -46.667 -287.334 -140 -386.001s-222 -148 -386 -148z
M631 128.001c108 0 190.5 35 247.5 105s85.5 163 85.5 279c0 118 -28.833 212.5 -86.5 283.5s-140.167 106.5 -247.5 106.5c-108 0 -191 -35.5 -249 -106.5s-87 -165.5 -87 -283.5c0 -116 28.833 -209 86.5 -279s141.167 -105 250.5 -105zM321 1154l234 347h162l236 -347
h-156l-162 218l-164 -218h-150z" />
    <glyph glyph-name="otilde" unicode="&#xf5;" horiz-adv-x="1258" 
d="M789 1175c-25.333 0 -57.499 8.33203 -96.499 24.999s-76.5 33.5 -112.5 50.5s-63.667 25.5 -83 25.5c-40.667 0 -64 -31 -70 -93h-118c0 70.667 16.167 127.167 48.5 169.5s76.166 63.5 131.499 63.5c14 0 29 -1.83301 45 -5.5s31.5 -8.5 46.5 -14.5s30 -12.667 45 -20
s29.667 -14.5 44 -21.5s28 -13.5 41 -19.5s25.5 -10.833 37.5 -14.5s22.667 -5.5 32 -5.5c21.333 0 36.5 7.33301 45.5 22s13.833 40.334 14.5 77.001h122c0 -74.667 -14.833 -133.167 -44.5 -175.5s-72.5 -63.5 -128.5 -63.5zM631.001 -22.001
c-166 0 -295.833 49.334 -389.5 148.001s-140.5 227.334 -140.5 386.001c0 161.333 47.167 291.666 141.5 390.999s224.5 149 390.5 149c165.333 0 294 -49.5 386 -148.5s138 -229.5 138 -391.5c0 -158.667 -46.667 -287.334 -140 -386.001s-222 -148 -386 -148z
M631.001 128c108 0 190.5 35 247.5 105s85.5 163 85.5 279c0 118 -28.833 212.5 -86.5 283.5s-140.167 106.5 -247.5 106.5c-108 0 -191 -35.5 -249 -106.5s-87 -165.5 -87 -283.5c0 -116 28.833 -209 86.5 -279s141.167 -105 250.5 -105z" />
    <glyph glyph-name="odieresis" unicode="&#xf6;" horiz-adv-x="1258" 
d="M631 -22c-166 0 -295.833 49.334 -389.5 148.001s-140.5 227.334 -140.5 386.001c0 161.333 47.167 291.666 141.5 390.999s224.5 149 390.5 149c165.333 0 294 -49.5 386 -148.5s138 -229.5 138 -391.5c0 -158.667 -46.667 -287.334 -140 -386.001s-222 -148 -386 -148z
M631 128.001c108 0 190.5 35 247.5 105s85.5 163 85.5 279c0 118 -28.833 212.5 -86.5 283.5s-140.167 106.5 -247.5 106.5c-108 0 -191 -35.5 -249 -106.5s-87 -165.5 -87 -283.5c0 -116 28.833 -209 86.5 -279s141.167 -105 250.5 -105zM742 1182v189h186v-189h-186z
M339 1182v189h187v-189h-187z" />
    <glyph glyph-name="divide" unicode="&#xf7;" horiz-adv-x="1286" 
d="M524 865v225h237v-225h-237zM157 476v156h965v-156h-965zM525 11v226h237v-226h-237z" />
    <glyph glyph-name="oslash" unicode="&#xf8;" horiz-adv-x="1254" 
d="M631 -22c164 0 292.667 49.3311 386 147.998s140 227.334 140 386.001c0 55.333 -5.66699 107.5 -17 156.5s-27.833 94.167 -49.5 135.5s-49 78.166 -82 110.499s-70.5 59.166 -112.5 80.499l88 194l-88 38l-89 -198c-26.667 8 -54.5 13.833 -83.5 17.5
s-59.167 5.5 -90.5 5.5c-166 0 -296.167 -49.667 -390.5 -149s-141.5 -229.666 -141.5 -390.999c0 -107.333 22.167 -202.166 66.5 -284.499s107.833 -145.166 190.5 -188.499l-97 -215l87 -38l99 218c56 -17.333 117.333 -26 184 -26zM827 842.998
c44.667 -33.333 78.667 -78.333 102 -135s35 -122 35 -196c0 -116 -28.5 -209 -85.5 -279s-139.5 -105 -247.5 -105c-22 0 -43 1.5 -63 4.5s-39 7.5 -57 13.5zM742 885.998l-315 -695.999c-44 32.667 -77.167 76.667 -99.5 132s-33.5 118.666 -33.5 189.999
c0 118 29 212.5 87 283.5s141 106.5 249 106.5c40 0 77.333 -5.33301 112 -16z" />
    <glyph glyph-name="ugrave" unicode="&#xf9;" horiz-adv-x="1235" 
d="M555 -23c-131.333 0 -229.999 37.501 -295.999 112.501s-99 175.833 -99 302.5v634h183v-634c0 -88 20.833 -154.167 62.5 -198.5s101.834 -66.5 180.501 -66.5c90 0 160.333 25.667 211 77s76 117.666 76 198.999v623h184v-772c0 -91.333 3 -176 9 -254h-187l-5 165
c-28.667 -52.667 -69.334 -97.167 -122.001 -133.5s-118.334 -54.5 -197.001 -54.5zM528.001 1173l-337 360h240l250 -360h-153z" />
    <glyph glyph-name="uacute" unicode="&#xfa;" horiz-adv-x="1235" 
d="M555 -23c-131.333 0 -229.999 37.501 -295.999 112.501s-99 175.833 -99 302.5v634h183v-634c0 -88 20.833 -154.167 62.5 -198.5s101.834 -66.5 180.501 -66.5c90 0 160.333 25.667 211 77s76 117.666 76 198.999v623h184v-772c0 -91.333 3 -176 9 -254h-187l-5 165
c-28.667 -52.667 -69.334 -97.167 -122.001 -133.5s-118.334 -54.5 -197.001 -54.5zM540.001 1172l236 360h237l-319 -360h-154z" />
    <glyph glyph-name="ucircumflex" unicode="&#xfb;" horiz-adv-x="1235" 
d="M555 -23c-131.333 0 -229.999 37.501 -295.999 112.501s-99 175.833 -99 302.5v634h183v-634c0 -88 20.833 -154.167 62.5 -198.5s101.834 -66.5 180.501 -66.5c90 0 160.333 25.667 211 77s76 117.666 76 198.999v623h184v-772c0 -91.333 3 -176 9 -254h-187l-5 165
c-28.667 -52.667 -69.334 -97.167 -122.001 -133.5s-118.334 -54.5 -197.001 -54.5zM296.001 1154l234 347h162l236 -347h-156l-162 218l-164 -218h-150z" />
    <glyph glyph-name="udieresis" unicode="&#xfc;" horiz-adv-x="1235" 
d="M555 -23c-131.333 0 -229.999 37.501 -295.999 112.501s-99 175.833 -99 302.5v634h183v-634c0 -88 20.833 -154.167 62.5 -198.5s101.834 -66.5 180.501 -66.5c90 0 160.333 25.667 211 77s76 117.666 76 198.999v623h184v-772c0 -91.333 3 -176 9 -254h-187l-5 165
c-28.667 -52.667 -69.334 -97.167 -122.001 -133.5s-118.334 -54.5 -197.001 -54.5zM717.001 1182v189h186v-189h-186zM314.001 1182v189h187v-189h-187z" />
    <glyph glyph-name="yacute" unicode="&#xfd;" horiz-adv-x="1065" 
d="M209 -433l-75 126c166 55.333 269 143 309 263l17 52l-419 1018h193l317 -820l297 820h185l-414 -1080c-36.667 -96.667 -90.167 -178 -160.5 -244s-153.5 -111 -249.5 -135zM482 1172l236 360h237l-319 -360h-154z" />
    <glyph glyph-name="thorn" unicode="&#xfe;" horiz-adv-x="1236" 
d="M639 126c66 0 122.167 17.999 168.5 53.999s80.166 83 101.499 141s32 124 32 198c0 112 -24.5 203.5 -73.5 274.5s-123.5 106.5 -223.5 106.5c-55.333 0 -103.666 -11 -144.999 -33s-73.5 -52.333 -96.5 -91s-40 -81 -51 -127s-16.5 -96.333 -16.5 -151
c0 -111.333 26.5 -201.166 79.5 -269.499s127.833 -102.5 224.5 -102.5zM154 -419.001l-0.000976562 1877h183v-579c30.667 53.333 75.334 95.333 134.001 126s123.334 46 194.001 46c101.333 0 188.166 -23.667 260.499 -71s125.666 -110.166 159.999 -188.499
s51.5 -167.833 51.5 -268.5c0 -74.667 -10.167 -144.667 -30.5 -210s-49.666 -123 -87.999 -173s-87.833 -89.5 -148.5 -118.5s-129 -43.5 -205 -43.5c-69.333 0 -133.333 13.667 -192 41s-104 67 -136 119v-557h-183z" />
    <glyph glyph-name="ydieresis" unicode="&#xff;" horiz-adv-x="1065" 
d="M209 -433l-75 126c166 55.333 269 143 309 263l17 52l-419 1018h193l317 -820l297 820h185l-414 -1080c-36.667 -96.667 -90.167 -178 -160.5 -244s-153.5 -111 -249.5 -135zM659 1182v189h186v-189h-186zM256 1182v189h187v-189h-187z" />
    <glyph glyph-name="Amacron" unicode="&#x100;" 
d="M426 1672v124h584v-124h-584zM438 545h514c-84.667 239.333 -170 476.333 -256 711c-86.667 -238 -172.667 -475 -258 -711zM31 0l565 1456h204l568 -1456h-209l-150 389h-623l-147 -389h-208z" />
    <glyph glyph-name="amacron" unicode="&#x101;" horiz-adv-x="1273" 
d="M320 1242v124h584v-124h-584zM615 128c102 0 179.834 35.501 233.501 106.501s80.5 166.5 80.5 286.5c0 113.333 -27.333 205.166 -82 275.499s-132.667 105.5 -234 105.5c-106.667 0 -187.834 -35.333 -243.501 -106s-83.5 -163.334 -83.5 -278.001
c0 -115.333 28 -209.166 84 -281.499s137.667 -108.5 245 -108.5zM589.001 -21.999c-76.667 0 -146.17 14.332 -208.503 42.999s-113.666 67.5 -153.999 116.5s-71.333 105.667 -93 170s-32.5 132.833 -32.5 205.5c0 100 19.5 190.5 58.5 271.5s95.833 145.833 170.5 194.5
s161 73 259 73c72.667 0 138.834 -17.667 198.501 -53s104.834 -80.666 135.501 -135.999v163h182v-1026h-184v175c-29.333 -61.333 -73 -109.5 -131 -144.5s-125 -52.5 -201 -52.5z" />
    <glyph glyph-name="Abreve" unicode="&#x102;" 
d="M694 1610c-86.667 0 -153.167 21 -199.5 63s-72.5 107.667 -78.5 197h131c3.33301 -46.667 17.333 -79.667 42 -99s59.667 -29 105 -29c43.333 0 77 9.83301 101 29.5s38.333 52.5 43 98.5h129c-11.333 -173.333 -102.333 -260 -273 -260zM438 545h514
c-84.667 239.333 -170 476.333 -256 711c-86.667 -238 -172.667 -475 -258 -711zM31 0l565 1456h204l568 -1456h-209l-150 389h-623l-147 -389h-208z" />
    <glyph glyph-name="abreve" unicode="&#x103;" horiz-adv-x="1273" 
d="M588 1180c-86.667 0 -153.167 21 -199.5 63s-72.5 107.667 -78.5 197h131c3.33301 -46.667 17.333 -79.667 42 -99s59.667 -29 105 -29c43.333 0 77 9.83301 101 29.5s38.333 52.5 43 98.5h129c-11.333 -173.333 -102.333 -260 -273 -260zM615 128
c102 0 179.834 35.501 233.501 106.501s80.5 166.5 80.5 286.5c0 113.333 -27.333 205.166 -82 275.499s-132.667 105.5 -234 105.5c-106.667 0 -187.834 -35.333 -243.501 -106s-83.5 -163.334 -83.5 -278.001c0 -115.333 28 -209.166 84 -281.499
s137.667 -108.5 245 -108.5zM589.001 -21.999c-76.667 0 -146.17 14.332 -208.503 42.999s-113.666 67.5 -153.999 116.5s-71.333 105.667 -93 170s-32.5 132.833 -32.5 205.5c0 100 19.5 190.5 58.5 271.5s95.833 145.833 170.5 194.5s161 73 259 73
c72.667 0 138.834 -17.667 198.501 -53s104.834 -80.666 135.501 -135.999v163h182v-1026h-184v175c-29.333 -61.333 -73 -109.5 -131 -144.5s-125 -52.5 -201 -52.5z" />
    <glyph glyph-name="Aogonek" unicode="&#x104;" 
d="M1255 -424c-66.667 0 -122.166 15.166 -166.499 45.499s-66.5 73.166 -66.5 128.499c0 52.667 21.667 102.334 65 149.001s94 85.334 152 116.001l105 -5c-46 -30 -84.5 -67.5 -115.5 -112.5s-46.5 -84.5 -46.5 -118.5c0 -27.333 9.5 -48.5 28.5 -63.5
s47.5 -22.5 85.5 -22.5c33.333 0 77.666 7.66699 132.999 23v-112c-59.333 -18.667 -117.333 -28 -174 -28zM438.001 544.999h514c-84.667 239.333 -170 476.333 -256 711c-86.667 -238 -172.667 -475 -258 -711zM31.001 -0.000976562l565 1456h204l568 -1456h-209l-150 389
h-623l-147 -389h-208z" />
    <glyph glyph-name="aogonek" unicode="&#x105;" horiz-adv-x="1273" 
d="M996 -424c-66.667 0 -122.166 15.166 -166.499 45.499s-66.5 73.166 -66.5 128.499c0 52.667 21.667 102.334 65 149.001s94 85.334 152 116.001l105 -5c-46 -30 -84.5 -67.5 -115.5 -112.5s-46.5 -84.5 -46.5 -118.5c0 -27.333 9.5 -48.5 28.5 -63.5
s47.5 -22.5 85.5 -22.5c33.333 0 77.666 7.66699 132.999 23v-112c-59.333 -18.667 -117.333 -28 -174 -28zM615.001 127.999c102 0 179.834 35.501 233.501 106.501s80.5 166.5 80.5 286.5c0 113.333 -27.333 205.166 -82 275.499s-132.667 105.5 -234 105.5
c-106.667 0 -187.834 -35.333 -243.501 -106s-83.5 -163.334 -83.5 -278.001c0 -115.333 28 -209.166 84 -281.499s137.667 -108.5 245 -108.5zM589.002 -22c-76.667 0 -146.17 14.332 -208.503 42.999s-113.666 67.5 -153.999 116.5s-71.333 105.667 -93 170
s-32.5 132.833 -32.5 205.5c0 100 19.5 190.5 58.5 271.5s95.833 145.833 170.5 194.5s161 73 259 73c72.667 0 138.834 -17.667 198.501 -53s104.834 -80.666 135.501 -135.999v163h182v-1026h-184v175c-29.333 -61.333 -73 -109.5 -131 -144.5s-125 -52.5 -201 -52.5z" />
    <glyph glyph-name="Cacute" unicode="&#x106;" 
d="M747 1602l236 360h237l-319 -360h-154zM824 -22c-96.667 0 -188 16.168 -274 48.501s-162 78.666 -228 138.999s-118.333 137.833 -157 232.5s-58 200.667 -58 318c0 113.333 18.167 218.166 54.5 314.499s86.166 177.333 149.499 243s138.5 116.834 225.5 153.501
s180.5 55 280.5 55c183.333 0 336 -50 458 -150l-76 -130c-107.333 79.333 -230 119 -368 119c-104 0 -196 -26.5 -276 -79.5s-141.167 -125.167 -183.5 -216.5s-63.5 -193.666 -63.5 -306.999c0 -176.667 48.833 -317.334 146.5 -422.001s223.834 -157 378.501 -157
c146.667 0 284 48 412 144l64 -152c-139.333 -102 -301 -153 -485 -153z" />
    <glyph glyph-name="cacute" unicode="&#x107;" horiz-adv-x="1064" 
d="M624 -22c-158.667 0 -285.5 49.499 -380.5 148.499s-142.5 225.833 -142.5 380.5c0 162 48.333 293.333 145 394s224 151 382 151c143.333 0 256.333 -40.667 339 -122l-65 -122c-71.333 62 -158.333 93 -261 93c-104.667 0 -189.167 -34.167 -253.5 -102.5
s-96.5 -165.166 -96.5 -290.499c0 -116 31.167 -208.333 93.5 -277s146.833 -103 253.5 -103c103.333 0 196.666 32 279.999 96l58 -133c-97.333 -75.333 -214.666 -113 -351.999 -113zM534 1172l236 360h237l-319 -360h-154z" />
    <glyph glyph-name="Ccircumflex" unicode="&#x108;" 
d="M503 1584l234 347h162l236 -347h-156l-162 218l-164 -218h-150zM824 -22c-96.667 0 -188 16.168 -274 48.501s-162 78.666 -228 138.999s-118.333 137.833 -157 232.5s-58 200.667 -58 318c0 113.333 18.167 218.166 54.5 314.499s86.166 177.333 149.499 243
s138.5 116.834 225.5 153.501s180.5 55 280.5 55c183.333 0 336 -50 458 -150l-76 -130c-107.333 79.333 -230 119 -368 119c-104 0 -196 -26.5 -276 -79.5s-141.167 -125.167 -183.5 -216.5s-63.5 -193.666 -63.5 -306.999c0 -176.667 48.833 -317.334 146.5 -422.001
s223.834 -157 378.501 -157c146.667 0 284 48 412 144l64 -152c-139.333 -102 -301 -153 -485 -153z" />
    <glyph glyph-name="ccircumflex" unicode="&#x109;" horiz-adv-x="1064" 
d="M290 1154l234 347h162l236 -347h-156l-162 218l-164 -218h-150zM624 -22c-158.667 0 -285.5 49.499 -380.5 148.499s-142.5 225.833 -142.5 380.5c0 162 48.333 293.333 145 394s224 151 382 151c143.333 0 256.333 -40.667 339 -122l-65 -122
c-71.333 62 -158.333 93 -261 93c-104.667 0 -189.167 -34.167 -253.5 -102.5s-96.5 -165.166 -96.5 -290.499c0 -116 31.167 -208.333 93.5 -277s146.833 -103 253.5 -103c103.333 0 196.666 32 279.999 96l58 -133c-97.333 -75.333 -214.666 -113 -351.999 -113z" />
    <glyph glyph-name="Cdotaccent" unicode="&#x10a;" 
d="M718 1686v182h188v-182h-188zM824 -22c-96.667 0 -188 16.168 -274 48.501s-162 78.666 -228 138.999s-118.333 137.833 -157 232.5s-58 200.667 -58 318c0 113.333 18.167 218.166 54.5 314.499s86.166 177.333 149.499 243s138.5 116.834 225.5 153.501
s180.5 55 280.5 55c183.333 0 336 -50 458 -150l-76 -130c-107.333 79.333 -230 119 -368 119c-104 0 -196 -26.5 -276 -79.5s-141.167 -125.167 -183.5 -216.5s-63.5 -193.666 -63.5 -306.999c0 -176.667 48.833 -317.334 146.5 -422.001s223.834 -157 378.501 -157
c146.667 0 284 48 412 144l64 -152c-139.333 -102 -301 -153 -485 -153z" />
    <glyph glyph-name="cdotaccent" unicode="&#x10b;" horiz-adv-x="1064" 
d="M505 1256v182h188v-182h-188zM624 -22c-158.667 0 -285.5 49.499 -380.5 148.499s-142.5 225.833 -142.5 380.5c0 162 48.333 293.333 145 394s224 151 382 151c143.333 0 256.333 -40.667 339 -122l-65 -122c-71.333 62 -158.333 93 -261 93
c-104.667 0 -189.167 -34.167 -253.5 -102.5s-96.5 -165.166 -96.5 -290.499c0 -116 31.167 -208.333 93.5 -277s146.833 -103 253.5 -103c103.333 0 196.666 32 279.999 96l58 -133c-97.333 -75.333 -214.666 -113 -351.999 -113z" />
    <glyph glyph-name="Ccaron" unicode="&#x10c;" 
d="M734 1584l-247 351h164l162 -230l163 230h168l-246 -351h-164zM824 -22c-96.667 0 -188 16.168 -274 48.501s-162 78.666 -228 138.999s-118.333 137.833 -157 232.5s-58 200.667 -58 318c0 113.333 18.167 218.166 54.5 314.499s86.166 177.333 149.499 243
s138.5 116.834 225.5 153.501s180.5 55 280.5 55c183.333 0 336 -50 458 -150l-76 -130c-107.333 79.333 -230 119 -368 119c-104 0 -196 -26.5 -276 -79.5s-141.167 -125.167 -183.5 -216.5s-63.5 -193.666 -63.5 -306.999c0 -176.667 48.833 -317.334 146.5 -422.001
s223.834 -157 378.501 -157c146.667 0 284 48 412 144l64 -152c-139.333 -102 -301 -153 -485 -153z" />
    <glyph glyph-name="ccaron" unicode="&#x10d;" horiz-adv-x="1064" 
d="M521 1154l-247 351h164l162 -230l163 230h168l-246 -351h-164zM624 -22c-158.667 0 -285.5 49.499 -380.5 148.499s-142.5 225.833 -142.5 380.5c0 162 48.333 293.333 145 394s224 151 382 151c143.333 0 256.333 -40.667 339 -122l-65 -122
c-71.333 62 -158.333 93 -261 93c-104.667 0 -189.167 -34.167 -253.5 -102.5s-96.5 -165.166 -96.5 -290.499c0 -116 31.167 -208.333 93.5 -277s146.833 -103 253.5 -103c103.333 0 196.666 32 279.999 96l58 -133c-97.333 -75.333 -214.666 -113 -351.999 -113z" />
    <glyph glyph-name="Dcaron" unicode="&#x10e;" horiz-adv-x="1540" 
d="M616 1584l-247 351h164l162 -230l163 230h168l-246 -351h-164zM202 0v1456h358c281.333 0 496.333 -59.667 645 -179s223 -303 223 -551c0 -232 -69 -411 -207 -537s-336.667 -189 -596 -189h-423zM393 161h241.998c194.667 0 341.834 49.167 441.501 147.5
s149.5 237.5 149.5 417.5c0 194 -53.167 337.333 -159.5 430s-269.166 139 -488.499 139h-185v-1134z" />
    <glyph glyph-name="dcaron" unicode="&#x10f;" horiz-adv-x="1264" 
d="M597 128c100.667 0 178.332 35.667 232.999 107s82 167 82 287c0 112.667 -27.667 204.167 -83 274.5s-131.666 105.5 -228.999 105.5s-173 -35.5 -227 -106.5s-81 -164.833 -81 -281.5c0 -116 26.333 -209.333 79 -280s128 -106 226 -106zM569.998 -22
c-137.333 0 -249.835 48.499 -337.502 145.499s-131.5 225.833 -131.5 386.5c0 105.333 18.667 198.5 56 279.5s92.5 145 165.5 192s158.833 70.5 257.5 70.5c78.667 0 147.334 -17.667 206.001 -53s99.334 -77.666 122.001 -126.999v614h185v-1220
c0.666992 -61.333 3 -150 7 -266h-187l-4 174c-20.667 -53.333 -60.5 -99.333 -119.5 -138s-132.167 -58 -219.5 -58zM1175 993.999l109 474h209l-168 -474h-150z" />
    <glyph glyph-name="Dcroat" unicode="&#x110;" horiz-adv-x="1540" 
d="M45 704v142h556v-142h-556zM202 0v1456h358c281.333 0 496.333 -59.667 645 -179s223 -303 223 -551c0 -232 -69 -411 -207 -537s-336.667 -189 -596 -189h-423zM393 161h241.998c194.667 0 341.834 49.167 441.501 147.5s149.5 237.5 149.5 417.5
c0 194 -53.167 337.333 -159.5 430s-269.166 139 -488.499 139h-185v-1134z" />
    <glyph glyph-name="dcroat" unicode="&#x111;" horiz-adv-x="1264" 
d="M685 1191v124h584v-124h-584zM597 128c100.667 0 178.332 35.667 232.999 107s82 167 82 287c0 112.667 -27.667 204.167 -83 274.5s-131.666 105.5 -228.999 105.5s-173 -35.5 -227 -106.5s-81 -164.833 -81 -281.5c0 -116 26.333 -209.333 79 -280s128 -106 226 -106z
M569.998 -22c-137.333 0 -249.835 48.499 -337.502 145.499s-131.5 225.833 -131.5 386.5c0 105.333 18.667 198.5 56 279.5s92.5 145 165.5 192s158.833 70.5 257.5 70.5c78.667 0 147.334 -17.667 206.001 -53s99.334 -77.666 122.001 -126.999v614h185v-1220
c0.666992 -61.333 3 -150 7 -266h-187l-4 174c-20.667 -53.333 -60.5 -99.333 -119.5 -138s-132.167 -58 -219.5 -58z" />
    <glyph glyph-name="Emacron" unicode="&#x112;" horiz-adv-x="1205" 
d="M372 1672v124h584v-124h-584zM202 0v1456h872v-161h-681v-458h643v-162h-643v-514h710v-161h-901z" />
    <glyph glyph-name="emacron" unicode="&#x113;" horiz-adv-x="1166" 
d="M318 1242v124h584v-124h-584zM296 613h588.999c-6.66699 94 -34 166.333 -82 217s-112 76 -192 76c-84 0 -154.167 -26 -210.5 -78s-91.166 -123.667 -104.499 -215zM633.999 -22c-163.333 0 -293.001 48.501 -389.001 145.501s-144 225.833 -144 386.5
c0 158 46.167 287.833 138.5 389.5s214.5 152.5 366.5 152.5c96 0 178.167 -22.333 246.5 -67s119 -105.334 152 -182.001s49.5 -165.667 49.5 -267c0 -12.667 -1 -29 -3 -49h-760c2 -114.667 35 -203.167 99 -265.5s148.667 -93.5 254 -93.5
c122.667 0 231.334 38 326.001 114l55 -136c-110 -85.333 -240.333 -128 -391 -128z" />
    <glyph glyph-name="Ebreve" unicode="&#x114;" horiz-adv-x="1205" 
d="M640 1610c-86.667 0 -153.167 21 -199.5 63s-72.5 107.667 -78.5 197h131c3.33301 -46.667 17.333 -79.667 42 -99s59.667 -29 105 -29c43.333 0 77 9.83301 101 29.5s38.333 52.5 43 98.5h129c-11.333 -173.333 -102.333 -260 -273 -260zM202 0v1456h872v-161h-681v-458
h643v-162h-643v-514h710v-161h-901z" />
    <glyph glyph-name="ebreve" unicode="&#x115;" horiz-adv-x="1166" 
d="M296 613h588.999c-6.66699 94 -34 166.333 -82 217s-112 76 -192 76c-84 0 -154.167 -26 -210.5 -78s-91.166 -123.667 -104.499 -215zM633.999 -22c-163.333 0 -293.001 48.501 -389.001 145.501s-144 225.833 -144 386.5c0 158 46.167 287.833 138.5 389.5
s214.5 152.5 366.5 152.5c96 0 178.167 -22.333 246.5 -67s119 -105.334 152 -182.001s49.5 -165.667 49.5 -267c0 -12.667 -1 -29 -3 -49h-760c2 -114.667 35 -203.167 99 -265.5s148.667 -93.5 254 -93.5c122.667 0 231.334 38 326.001 114l55 -136
c-110 -85.333 -240.333 -128 -391 -128zM585.998 1180c-86.667 0 -153.167 21 -199.5 63s-72.5 107.667 -78.5 197h131c3.33301 -46.667 17.333 -79.667 42 -99s59.667 -29 105 -29c43.333 0 77 9.83301 101 29.5s38.333 52.5 43 98.5h129
c-11.333 -173.333 -102.333 -260 -273 -260z" />
    <glyph glyph-name="Edotaccent" unicode="&#x116;" horiz-adv-x="1205" 
d="M549 1686v182h188v-182h-188zM202 0v1456h872v-161h-681v-458h643v-162h-643v-514h710v-161h-901z" />
    <glyph glyph-name="edotaccent" unicode="&#x117;" horiz-adv-x="1166" 
d="M296 613h588.999c-6.66699 94 -34 166.333 -82 217s-112 76 -192 76c-84 0 -154.167 -26 -210.5 -78s-91.166 -123.667 -104.499 -215zM633.999 -22c-163.333 0 -293.001 48.501 -389.001 145.501s-144 225.833 -144 386.5c0 158 46.167 287.833 138.5 389.5
s214.5 152.5 366.5 152.5c96 0 178.167 -22.333 246.5 -67s119 -105.334 152 -182.001s49.5 -165.667 49.5 -267c0 -12.667 -1 -29 -3 -49h-760c2 -114.667 35 -203.167 99 -265.5s148.667 -93.5 254 -93.5c122.667 0 231.334 38 326.001 114l55 -136
c-110 -85.333 -240.333 -128 -391 -128zM493.998 1256v182h188v-182h-188z" />
    <glyph glyph-name="Eogonek" unicode="&#x118;" horiz-adv-x="1205" 
d="M847 -424c-66.667 0 -122.166 15.166 -166.499 45.499s-66.5 73.166 -66.5 128.499c0 52.667 21.667 102.334 65 149.001s94 85.334 152 116.001l105 -5c-46 -30 -84.5 -67.5 -115.5 -112.5s-46.5 -84.5 -46.5 -118.5c0 -27.333 9.5 -48.5 28.5 -63.5
s47.5 -22.5 85.5 -22.5c33.333 0 77.666 7.66699 132.999 23v-112c-59.333 -18.667 -117.333 -28 -174 -28zM202.001 -0.000976562v1456h872v-161h-681v-458h643v-162h-643v-514h710v-161h-901z" />
    <glyph glyph-name="eogonek" unicode="&#x119;" horiz-adv-x="1166" 
d="M707 -424c-66.667 0 -122.166 15.166 -166.499 45.499s-66.5 73.166 -66.5 128.499c0 52.667 21.667 102.334 65 149.001s94 85.334 152 116.001l105 -5c-46 -30 -84.5 -67.5 -115.5 -112.5s-46.5 -84.5 -46.5 -118.5c0 -27.333 9.5 -48.5 28.5 -63.5
s47.5 -22.5 85.5 -22.5c33.333 0 77.666 7.66699 132.999 23v-112c-59.333 -18.667 -117.333 -28 -174 -28zM296.001 612.999h588.999c-6.66699 94 -34 166.333 -82 217s-112 76 -192 76c-84 0 -154.167 -26 -210.5 -78s-91.166 -123.667 -104.499 -215zM634 -22.001
c-163.333 0 -293.001 48.501 -389.001 145.501s-144 225.833 -144 386.5c0 158 46.167 287.833 138.5 389.5s214.5 152.5 366.5 152.5c96 0 178.167 -22.333 246.5 -67s119 -105.334 152 -182.001s49.5 -165.667 49.5 -267c0 -12.667 -1 -29 -3 -49h-760
c2 -114.667 35 -203.167 99 -265.5s148.667 -93.5 254 -93.5c122.667 0 231.334 38 326.001 114l55 -136c-110 -85.333 -240.333 -128 -391 -128z" />
    <glyph glyph-name="Ecaron" unicode="&#x11a;" horiz-adv-x="1205" 
d="M564 1584l-247 351h164l162 -230l163 230h168l-246 -351h-164zM202 0v1456h872v-161h-681v-458h643v-162h-643v-514h710v-161h-901z" />
    <glyph glyph-name="ecaron" unicode="&#x11b;" horiz-adv-x="1166" 
d="M296 613h588.999c-6.66699 94 -34 166.333 -82 217s-112 76 -192 76c-84 0 -154.167 -26 -210.5 -78s-91.166 -123.667 -104.499 -215zM633.999 -22c-163.333 0 -293.001 48.501 -389.001 145.501s-144 225.833 -144 386.5c0 158 46.167 287.833 138.5 389.5
s214.5 152.5 366.5 152.5c96 0 178.167 -22.333 246.5 -67s119 -105.334 152 -182.001s49.5 -165.667 49.5 -267c0 -12.667 -1 -29 -3 -49h-760c2 -114.667 35 -203.167 99 -265.5s148.667 -93.5 254 -93.5c122.667 0 231.334 38 326.001 114l55 -136
c-110 -85.333 -240.333 -128 -391 -128zM509.998 1154l-247 351h164l162 -230l163 230h168l-246 -351h-164z" />
    <glyph glyph-name="Gcircumflex" unicode="&#x11c;" horiz-adv-x="1527" 
d="M521 1584l234 347h162l236 -347h-156l-162 218l-164 -218h-150zM844 -22c-156.667 0 -290.668 30.1689 -402.001 90.502s-194.833 144.666 -250.5 252.999s-83.5 235.833 -83.5 382.5c0 149.333 31.5 283 94.5 401s151.833 210.333 266.5 277s245.334 100 392.001 100
c188.667 0 348.334 -48.667 479.001 -146l-77 -133c-115.333 78.667 -248 118 -398 118c-110.667 0 -208.667 -26.333 -294 -79s-150.833 -125.167 -196.5 -217.5s-68.5 -196.5 -68.5 -312.5c0 -174.667 46.667 -313.834 140 -417.501s228.666 -155.5 405.999 -155.5
c120.667 0 226.667 17.333 318 52v412h-368v163h558v-682c-154.667 -70.667 -326.667 -106 -516 -106z" />
    <glyph glyph-name="gcircumflex" unicode="&#x11d;" horiz-adv-x="1267" 
d="M594 158c104 0 183 33.834 237 101.501s81 158.5 81 272.5c0 112.667 -26.833 202.5 -80.5 269.5s-128.5 100.5 -224.5 100.5c-98 0 -175 -35.333 -231 -106s-84 -163.334 -84 -278.001c0 -114 26.333 -202.5 79 -265.5s127 -94.5 223 -94.5zM571 -417.999
c-134.667 0 -260.999 29 -378.999 87l29 159c113.333 -64.667 227.666 -97 342.999 -97c109.333 0 194 29.333 254 88s90 147.334 90 266.001v107c-28.667 -51.333 -70.167 -93.833 -124.5 -127.5s-121.166 -50.5 -200.499 -50.5c-142 0 -257.833 45.167 -347.5 135.5
s-134.5 212.5 -134.5 366.5c0 104.667 18.167 197 54.5 277s91.166 143.167 164.499 189.5s160.666 69.5 261.999 69.5c78 0 144.333 -16.667 199 -50s97 -76 127 -128l3 152h190c-7.33301 -110.667 -11 -202.667 -11 -276v-610c0 -81.333 -10 -155.333 -30 -222
s-50.5 -125.334 -91.5 -176.001s-95.167 -90 -162.5 -118s-145.666 -42 -234.999 -42zM240.001 1154l234 347h162l236 -347h-156l-162 218l-164 -218h-150z" />
    <glyph glyph-name="Gbreve" unicode="&#x11e;" horiz-adv-x="1527" 
d="M828 1610c-86.667 0 -153.167 21 -199.5 63s-72.5 107.667 -78.5 197h131c3.33301 -46.667 17.333 -79.667 42 -99s59.667 -29 105 -29c43.333 0 77 9.83301 101 29.5s38.333 52.5 43 98.5h129c-11.333 -173.333 -102.333 -260 -273 -260zM844 -22
c-156.667 0 -290.668 30.1689 -402.001 90.502s-194.833 144.666 -250.5 252.999s-83.5 235.833 -83.5 382.5c0 149.333 31.5 283 94.5 401s151.833 210.333 266.5 277s245.334 100 392.001 100c188.667 0 348.334 -48.667 479.001 -146l-77 -133
c-115.333 78.667 -248 118 -398 118c-110.667 0 -208.667 -26.333 -294 -79s-150.833 -125.167 -196.5 -217.5s-68.5 -196.5 -68.5 -312.5c0 -174.667 46.667 -313.834 140 -417.501s228.666 -155.5 405.999 -155.5c120.667 0 226.667 17.333 318 52v412h-368v163h558v-682
c-154.667 -70.667 -326.667 -106 -516 -106z" />
    <glyph glyph-name="gbreve" unicode="&#x11f;" horiz-adv-x="1267" 
d="M594 158c104 0 183 33.834 237 101.501s81 158.5 81 272.5c0 112.667 -26.833 202.5 -80.5 269.5s-128.5 100.5 -224.5 100.5c-98 0 -175 -35.333 -231 -106s-84 -163.334 -84 -278.001c0 -114 26.333 -202.5 79 -265.5s127 -94.5 223 -94.5zM571 -417.999
c-134.667 0 -260.999 29 -378.999 87l29 159c113.333 -64.667 227.666 -97 342.999 -97c109.333 0 194 29.333 254 88s90 147.334 90 266.001v107c-28.667 -51.333 -70.167 -93.833 -124.5 -127.5s-121.166 -50.5 -200.499 -50.5c-142 0 -257.833 45.167 -347.5 135.5
s-134.5 212.5 -134.5 366.5c0 104.667 18.167 197 54.5 277s91.166 143.167 164.499 189.5s160.666 69.5 261.999 69.5c78 0 144.333 -16.667 199 -50s97 -76 127 -128l3 152h190c-7.33301 -110.667 -11 -202.667 -11 -276v-610c0 -81.333 -10 -155.333 -30 -222
s-50.5 -125.334 -91.5 -176.001s-95.167 -90 -162.5 -118s-145.666 -42 -234.999 -42zM547.001 1180c-86.667 0 -153.167 21 -199.5 63s-72.5 107.667 -78.5 197h131c3.33301 -46.667 17.333 -79.667 42 -99s59.667 -29 105 -29c43.333 0 77 9.83301 101 29.5
s38.333 52.5 43 98.5h129c-11.333 -173.333 -102.333 -260 -273 -260z" />
    <glyph glyph-name="Gdotaccent" unicode="&#x120;" horiz-adv-x="1527" 
d="M736 1686v182h188v-182h-188zM844 -22c-156.667 0 -290.668 30.1689 -402.001 90.502s-194.833 144.666 -250.5 252.999s-83.5 235.833 -83.5 382.5c0 149.333 31.5 283 94.5 401s151.833 210.333 266.5 277s245.334 100 392.001 100
c188.667 0 348.334 -48.667 479.001 -146l-77 -133c-115.333 78.667 -248 118 -398 118c-110.667 0 -208.667 -26.333 -294 -79s-150.833 -125.167 -196.5 -217.5s-68.5 -196.5 -68.5 -312.5c0 -174.667 46.667 -313.834 140 -417.501s228.666 -155.5 405.999 -155.5
c120.667 0 226.667 17.333 318 52v412h-368v163h558v-682c-154.667 -70.667 -326.667 -106 -516 -106z" />
    <glyph glyph-name="gdotaccent" unicode="&#x121;" horiz-adv-x="1267" 
d="M594 158c104 0 183 33.834 237 101.501s81 158.5 81 272.5c0 112.667 -26.833 202.5 -80.5 269.5s-128.5 100.5 -224.5 100.5c-98 0 -175 -35.333 -231 -106s-84 -163.334 -84 -278.001c0 -114 26.333 -202.5 79 -265.5s127 -94.5 223 -94.5zM571 -417.999
c-134.667 0 -260.999 29 -378.999 87l29 159c113.333 -64.667 227.666 -97 342.999 -97c109.333 0 194 29.333 254 88s90 147.334 90 266.001v107c-28.667 -51.333 -70.167 -93.833 -124.5 -127.5s-121.166 -50.5 -200.499 -50.5c-142 0 -257.833 45.167 -347.5 135.5
s-134.5 212.5 -134.5 366.5c0 104.667 18.167 197 54.5 277s91.166 143.167 164.499 189.5s160.666 69.5 261.999 69.5c78 0 144.333 -16.667 199 -50s97 -76 127 -128l3 152h190c-7.33301 -110.667 -11 -202.667 -11 -276v-610c0 -81.333 -10 -155.333 -30 -222
s-50.5 -125.334 -91.5 -176.001s-95.167 -90 -162.5 -118s-145.666 -42 -234.999 -42zM455.001 1256v182h188v-182h-188z" />
    <glyph glyph-name="Gcommaaccent" unicode="&#x122;" horiz-adv-x="1527" 
d="M598 -607l109 473h209l-168 -473h-150zM844 -22c-156.667 0 -290.668 30.1689 -402.001 90.502s-194.833 144.666 -250.5 252.999s-83.5 235.833 -83.5 382.5c0 149.333 31.5 283 94.5 401s151.833 210.333 266.5 277s245.334 100 392.001 100
c188.667 0 348.334 -48.667 479.001 -146l-77 -133c-115.333 78.667 -248 118 -398 118c-110.667 0 -208.667 -26.333 -294 -79s-150.833 -125.167 -196.5 -217.5s-68.5 -196.5 -68.5 -312.5c0 -174.667 46.667 -313.834 140 -417.501s228.666 -155.5 405.999 -155.5
c120.667 0 226.667 17.333 318 52v412h-368v163h558v-682c-154.667 -70.667 -326.667 -106 -516 -106z" />
    <glyph glyph-name="gcommaaccent" unicode="&#x123;" horiz-adv-x="1267" 
d="M762 1681l-108 -489h-209l167 489h150zM594 158c104 0 183 33.834 237 101.501s81 158.5 81 272.5c0 112.667 -26.833 202.5 -80.5 269.5s-128.5 100.5 -224.5 100.5c-98 0 -175 -35.333 -231 -106s-84 -163.334 -84 -278.001c0 -114 26.333 -202.5 79 -265.5
s127 -94.5 223 -94.5zM571 -417.999c-134.667 0 -260.999 29 -378.999 87l29 159c113.333 -64.667 227.666 -97 342.999 -97c109.333 0 194 29.333 254 88s90 147.334 90 266.001v107c-28.667 -51.333 -70.167 -93.833 -124.5 -127.5s-121.166 -50.5 -200.499 -50.5
c-142 0 -257.833 45.167 -347.5 135.5s-134.5 212.5 -134.5 366.5c0 104.667 18.167 197 54.5 277s91.166 143.167 164.499 189.5s160.666 69.5 261.999 69.5c78 0 144.333 -16.667 199 -50s97 -76 127 -128l3 152h190c-7.33301 -110.667 -11 -202.667 -11 -276v-610
c0 -81.333 -10 -155.333 -30 -222s-50.5 -125.334 -91.5 -176.001s-95.167 -90 -162.5 -118s-145.666 -42 -234.999 -42z" />
    <glyph glyph-name="Hcircumflex" unicode="&#x124;" horiz-adv-x="1559" 
d="M468 1584l234 347h162l236 -347h-156l-162 218l-164 -218h-150zM202 0v1456h192v-629h773v629h190v-1456h-189v666h-774v-666h-192z" />
    <glyph glyph-name="hcircumflex" unicode="&#x125;" horiz-adv-x="1237" 
d="M166 0l-0.00195312 1486h184v-621c30.667 56 78.334 101.167 143.001 135.5s133.334 51.5 206.001 51.5c64 0 120.667 -11.333 170 -34s89 -53.834 119 -93.501s52.667 -85.334 68 -137.001s23 -107.834 23 -168.501v-619h-185v614
c0 100.667 -17.333 173.834 -52 219.501s-90.667 68.5 -168 68.5c-84 0 -159 -28.333 -225 -85s-99 -121.667 -99 -195v-622h-184zM386.998 1154l234 347h162l236 -347h-156l-162 218l-164 -218h-150z" />
    <glyph glyph-name="Hbar" unicode="&#x126;" horiz-adv-x="1566" 
d="M98 1161l-1 108h1365v-108h-1364zM202 0v1456h192v-629h773v629h190v-1456h-189v666h-774v-666h-192z" />
    <glyph glyph-name="hbar" unicode="&#x127;" horiz-adv-x="1237" 
d="M-24 1190v124h584v-124h-584zM166 0l-0.00195312 1486h184v-621c30.667 56 78.334 101.167 143.001 135.5s133.334 51.5 206.001 51.5c64 0 120.667 -11.333 170 -34s89 -53.834 119 -93.501s52.667 -85.334 68 -137.001s23 -107.834 23 -168.501v-619h-185v614
c0 100.667 -17.333 173.834 -52 219.501s-90.667 68.5 -168 68.5c-84 0 -159 -28.333 -225 -85s-99 -121.667 -99 -195v-622h-184z" />
    <glyph glyph-name="Itilde" unicode="&#x128;" horiz-adv-x="602" 
d="M477 1605c-25.333 0 -57.499 8.33203 -96.499 24.999s-76.5 33.5 -112.5 50.5s-63.667 25.5 -83 25.5c-40.667 0 -64 -31 -70 -93h-118c0 70.667 16.167 127.167 48.5 169.5s76.166 63.5 131.499 63.5c14 0 29 -1.83301 45 -5.5s31.5 -8.5 46.5 -14.5s30 -12.667 45 -20
s29.667 -14.5 44 -21.5s28 -13.5 41 -19.5s25.5 -10.833 37.5 -14.5s22.667 -5.5 32 -5.5c21.333 0 36.5 7.33301 45.5 22s13.833 40.334 14.5 77.001h122c0 -74.667 -14.833 -133.167 -44.5 -175.5s-72.5 -63.5 -128.5 -63.5zM218.001 -0.000976562v1456h191v-1456h-191z
" />
    <glyph glyph-name="itilde" unicode="&#x129;" horiz-adv-x="534" 
d="M423 1175c-25.333 0 -57.499 8.33203 -96.499 24.999s-76.5 33.5 -112.5 50.5s-63.667 25.5 -83 25.5c-40.667 0 -64 -31 -70 -93h-118c0 70.667 16.167 127.167 48.5 169.5s76.166 63.5 131.499 63.5c14 0 29 -1.83301 45 -5.5s31.5 -8.5 46.5 -14.5s30 -12.667 45 -20
s29.667 -14.5 44 -21.5s28 -13.5 41 -19.5s25.5 -10.833 37.5 -14.5s22.667 -5.5 32 -5.5c21.333 0 36.5 7.33301 45.5 22s13.833 40.334 14.5 77.001h122c0 -74.667 -14.833 -133.167 -44.5 -175.5s-72.5 -63.5 -128.5 -63.5zM177.001 -0.000976562l-1 1026h185l1 -1026
h-185z" />
    <glyph glyph-name="Imacron" unicode="&#x12a;" horiz-adv-x="602" 
d="M48 1672v124h584v-124h-584zM218 0v1456h191v-1456h-191z" />
    <glyph glyph-name="imacron" unicode="&#x12b;" horiz-adv-x="534" 
d="M-5 1242v124h584v-124h-584zM177 0l-1 1026h185l1 -1026h-185z" />
    <glyph glyph-name="Ibreve" unicode="&#x12c;" horiz-adv-x="602" 
d="M316 1610c-86.667 0 -153.167 21 -199.5 63s-72.5 107.667 -78.5 197h131c3.33301 -46.667 17.333 -79.667 42 -99s59.667 -29 105 -29c43.333 0 77 9.83301 101 29.5s38.333 52.5 43 98.5h129c-11.333 -173.333 -102.333 -260 -273 -260zM218 0v1456h191v-1456h-191z
" />
    <glyph glyph-name="ibreve" unicode="&#x12d;" horiz-adv-x="534" 
d="M177 0l-1 1026h185l1 -1026h-185zM263 1180c-86.667 0 -153.167 21 -199.5 63s-72.5 107.667 -78.5 197h131c3.33301 -46.667 17.333 -79.667 42 -99s59.667 -29 105 -29c43.333 0 77 9.83301 101 29.5s38.333 52.5 43 98.5h129
c-11.333 -173.333 -102.333 -260 -273 -260z" />
    <glyph glyph-name="Iogonek" unicode="&#x12e;" horiz-adv-x="602" 
d="M323 -424c-66.667 0 -122.166 15.166 -166.499 45.499s-66.5 73.166 -66.5 128.499c0 52.667 21.667 102.334 65 149.001s94 85.334 152 116.001l105 -5c-46 -30 -84.5 -67.5 -115.5 -112.5s-46.5 -84.5 -46.5 -118.5c0 -27.333 9.5 -48.5 28.5 -63.5
s47.5 -22.5 85.5 -22.5c33.333 0 77.666 7.66699 132.999 23v-112c-59.333 -18.667 -117.333 -28 -174 -28zM218.001 -0.000976562v1456h191v-1456h-191z" />
    <glyph glyph-name="iogonek" unicode="&#x12f;" horiz-adv-x="534" 
d="M265 -424c-66.667 0 -122.166 15.166 -166.499 45.499s-66.5 73.166 -66.5 128.499c0 52.667 21.667 102.334 65 149.001s94 85.334 152 116.001l105 -5c-46 -30 -84.5 -67.5 -115.5 -112.5s-46.5 -84.5 -46.5 -118.5c0 -27.333 9.5 -48.5 28.5 -63.5
s47.5 -22.5 85.5 -22.5c33.333 0 77.666 7.66699 132.999 23v-112c-59.333 -18.667 -117.333 -28 -174 -28zM177.001 -0.000976562l-1 1026h185l1 -1026h-185zM171.001 1256v182h188v-182h-188z" />
    <glyph glyph-name="Idotaccent" unicode="&#x130;" horiz-adv-x="602" 
d="M225 1686v182h188v-182h-188zM218 0v1456h191v-1456h-191z" />
    <glyph glyph-name="dotlessi" unicode="&#x131;" horiz-adv-x="533" 
d="M177 0l-1 1026h185l1 -1026h-185z" />
    <glyph glyph-name="IJ" unicode="&#x132;" horiz-adv-x="1388" 
d="M831 -326c-73.333 0 -152 13.999 -236 41.999l27 150c70 -20.667 131.333 -31 184 -31c74 0 124.667 21.833 152 65.5s41 116.834 41 219.501v1336h191v-1335c0 -154 -30 -267 -90 -339s-149.667 -108 -269 -108zM218 -0.000976562v1456h191v-1456h-191z" />
    <glyph glyph-name="ij" unicode="&#x133;" horiz-adv-x="1023" 
d="M683 1277v179h183v-179h-183zM541 -423c-42.667 0 -84.999 3.99902 -126.999 11.999v151c34.667 -8 64 -12 88 -12c62.667 0 109.5 25 140.5 75s46.5 127.667 46.5 233v990h174v-922c0 -37.333 -0.833008 -71.5 -2.5 -102.5s-5.16699 -65.167 -10.5 -102.5
s-12.5 -70.666 -21.5 -99.999s-21.667 -58.333 -38 -87s-35.5 -52.5 -57.5 -71.5s-49.333 -34.333 -82 -46s-69.334 -17.5 -110.001 -17.5zM173.001 1285v171h182v-171h-182zM172.001 -0.000976562v1026h183v-1026h-183z" />
    <glyph glyph-name="Jcircumflex" unicode="&#x134;" horiz-adv-x="786" 
d="M177 1584l234 347h162l236 -347h-156l-162 218l-164 -218h-150zM229 -326c-73.333 0 -152 13.999 -236 41.999l27 150c70 -20.667 131.333 -31 184 -31c74 0 124.667 21.833 152 65.5s41 116.834 41 219.501v1336h191v-1335c0 -154 -30 -267 -90 -339
s-149.667 -108 -269 -108z" />
    <glyph glyph-name="jcircumflex" unicode="&#x135;" horiz-adv-x="503" 
d="M21 -423c-42.667 0 -84.999 3.99902 -126.999 11.999v151c34.667 -8 64 -12 88 -12c62.667 0 109.5 25 140.5 75s46.5 127.667 46.5 233v990h174v-922c0 -37.333 -0.833008 -71.5 -2.5 -102.5s-5.16699 -65.167 -10.5 -102.5s-12.5 -70.666 -21.5 -99.999
s-21.667 -58.333 -38 -87s-35.5 -52.5 -57.5 -71.5s-49.333 -34.333 -82 -46s-69.334 -17.5 -110.001 -17.5zM-52.999 1154l234 347h162l236 -347h-156l-162 218l-164 -218h-150z" />
    <glyph glyph-name="Kcommaaccent" unicode="&#x136;" horiz-adv-x="1295" 
d="M498 -607l109 473h209l-168 -473h-150zM202 0v1456h191v-656l627 656h237l-673 -701l721 -755h-242l-670 692v-692h-191z" />
    <glyph glyph-name="kcommaaccent" unicode="&#x137;" horiz-adv-x="1111" 
d="M381 -607l109 473h209l-168 -473h-150zM174 0v1486h184v-899l445 439h252l-520 -489l556 -537h-244l-489 485v-485h-184z" />
    <glyph glyph-name="kgreenlandic" unicode="&#x138;" horiz-adv-x="1082" 
d="M170 0v1026h185v-455l439 455h244l-521 -509l558 -517h-237l-483 455v-455h-185z" />
    <glyph glyph-name="Lacute" unicode="&#x139;" horiz-adv-x="1109" 
d="M243 1602l236 360h237l-319 -360h-154zM202 0v1456h191v-1295h677v-161h-868z" />
    <glyph glyph-name="lacute" unicode="&#x13a;" horiz-adv-x="526" 
d="M177 0v1486h184v-1486h-184zM200 1602l236 360h237l-319 -360h-154z" />
    <glyph glyph-name="Lcommaaccent" unicode="&#x13b;" horiz-adv-x="1109" 
d="M454 -607l109 473h209l-168 -473h-150zM202 0v1456h191v-1295h677v-161h-868z" />
    <glyph glyph-name="lcommaaccent" unicode="&#x13c;" horiz-adv-x="526" 
d="M67 -607l109 473h209l-168 -473h-150zM177 0v1486h184v-1486h-184z" />
    <glyph glyph-name="Lcaron" unicode="&#x13d;" horiz-adv-x="1109" 
d="M590 994l109 474h209l-168 -474h-150zM202 0v1456h191v-1295h677v-161h-868z" />
    <glyph glyph-name="lcaron" unicode="&#x13e;" horiz-adv-x="526" 
d="M177 0v1486h184v-1486h-184zM530 994l109 474h209l-168 -474h-150z" />
    <glyph glyph-name="Ldot" unicode="&#x13f;" horiz-adv-x="1109" 
d="M583 643v200h199v-200h-199zM202 0v1456h191v-1295h677v-161h-868z" />
    <glyph glyph-name="ldot" unicode="&#x140;" horiz-adv-x="526" 
d="M510 639v200h199v-200h-199zM177 0v1486h184v-1486h-184z" />
    <glyph glyph-name="Lslash" unicode="&#x141;" horiz-adv-x="1131" 
d="M51 472v159l638 407v-159zM202 0v1456h191v-1295h677v-161h-868z" />
    <glyph glyph-name="lslash" unicode="&#x142;" horiz-adv-x="503" 
d="M156 0v698l-155 -100v158l155 100v627h185v-506l154 100v-158l-154 -102v-817h-185z" />
    <glyph glyph-name="Nacute" unicode="&#x143;" horiz-adv-x="1598" 
d="M741 1602l236 360h237l-319 -360h-154zM202 0v1456h203l702 -1024l108 -170v1194h182v-1456h-204l-684 986l-128 200v-1186h-179z" />
    <glyph glyph-name="nacute" unicode="&#x144;" horiz-adv-x="1244" 
d="M177 0l-0.00195312 742c0 45.333 -0.833008 91.666 -2.5 138.999s-3.5 83.333 -5.5 108l-3 37h190l2 -161c35.333 58.667 84.833 104.5 148.5 137.5s130.834 49.5 201.501 49.5c129.333 0 224.666 -39.167 285.999 -117.5s92 -197.166 92 -356.499v-578h-184v577
c0 111.333 -16.667 193.333 -50 246s-92 79 -176 79c-77.333 0 -147.666 -26.167 -210.999 -78.5s-97.666 -112.5 -102.999 -180.5v-643h-185zM616.998 1172l236 360h237l-319 -360h-154z" />
    <glyph glyph-name="Ncommaaccent" unicode="&#x145;" horiz-adv-x="1598" 
d="M622 -607l109 473h209l-168 -473h-150zM202 0v1456h203l702 -1024l108 -170v1194h182v-1456h-204l-684 986l-128 200v-1186h-179z" />
    <glyph glyph-name="ncommaaccent" unicode="&#x146;" horiz-adv-x="1244" 
d="M453 -607l109 473h209l-168 -473h-150zM177 0l-0.00195312 742c0 45.333 -0.833008 91.666 -2.5 138.999s-3.5 83.333 -5.5 108l-3 37h190l2 -161c35.333 58.667 84.833 104.5 148.5 137.5s130.834 49.5 201.501 49.5c129.333 0 224.666 -39.167 285.999 -117.5
s92 -197.166 92 -356.499v-578h-184v577c0 111.333 -16.667 193.333 -50 246s-92 79 -176 79c-77.333 0 -147.666 -26.167 -210.999 -78.5s-97.666 -112.5 -102.999 -180.5v-643h-185z" />
    <glyph glyph-name="Ncaron" unicode="&#x147;" horiz-adv-x="1598" 
d="M728 1584l-247 351h164l162 -230l163 230h168l-246 -351h-164zM202 0v1456h203l702 -1024l108 -170v1194h182v-1456h-204l-684 986l-128 200v-1186h-179z" />
    <glyph glyph-name="ncaron" unicode="&#x148;" horiz-adv-x="1244" 
d="M177 0l-0.00195312 742c0 45.333 -0.833008 91.666 -2.5 138.999s-3.5 83.333 -5.5 108l-3 37h190l2 -161c35.333 58.667 84.833 104.5 148.5 137.5s130.834 49.5 201.501 49.5c129.333 0 224.666 -39.167 285.999 -117.5s92 -197.166 92 -356.499v-578h-184v577
c0 111.333 -16.667 193.333 -50 246s-92 79 -176 79c-77.333 0 -147.666 -26.167 -210.999 -78.5s-97.666 -112.5 -102.999 -180.5v-643h-185zM603.998 1154l-247 351h164l162 -230l163 230h168l-246 -351h-164z" />
    <glyph glyph-name="napostrophe" unicode="&#x149;" horiz-adv-x="1250" 
d="M177 0l-0.00195312 742c0 45.333 -0.833008 91.666 -2.5 138.999s-3.5 83.333 -5.5 108l-3 37h190l2 -161c35.333 58.667 84.833 104.5 148.5 137.5s130.834 49.5 201.501 49.5c129.333 0 224.666 -39.167 285.999 -117.5s92 -197.166 92 -356.499v-578h-184v577
c0 111.333 -16.667 193.333 -50 246s-92 79 -176 79c-77.333 0 -147.666 -26.167 -210.999 -78.5s-97.666 -112.5 -102.999 -180.5v-643h-185zM37.998 1215l68 574h220l-154 -574h-134z" />
    <glyph glyph-name="Eng" unicode="&#x14a;" horiz-adv-x="1570" 
d="M1391 1456v-1400c-0.666992 -162.667 -37.667 -285.334 -111 -368.001s-192 -124 -356 -124v147c92 0 161.833 20.833 209.5 62.5s71.5 107.834 71.5 198.501v83l-719 989l-102 156v-1200h-184v1456h207l691 -968l107 -161v1129h186z" />
    <glyph glyph-name="eng" unicode="&#x14b;" horiz-adv-x="1235" 
d="M602 -408v139.003c111.333 0 188 29.167 230 87.5s63 152.166 63 281.499v449c0 48 -1.66699 88.667 -5 122s-9.66602 65.333 -18.999 96s-22.333 55.167 -39 73.5s-38.667 32.833 -66 43.5s-60.333 16 -99 16c-81.333 0 -152.5 -28.333 -213.5 -85
s-91.833 -114 -92.5 -172v-643h-185v742c0 45.333 -0.833008 91.666 -2.5 138.999s-3.5 83.333 -5.5 108l-2 37h192l1 -144c36.667 55.333 85.167 97.333 145.5 126s126.5 43 198.5 43c135.333 0 232.166 -41.333 290.499 -124s87.5 -205.334 87.5 -368.001v-429
c0 -176.667 -37.667 -310.5 -113 -401.5s-197.333 -136.5 -366 -136.5z" />
    <glyph glyph-name="Omacron" unicode="&#x14c;" horiz-adv-x="1626" 
d="M544 1672v124h584v-124h-584zM816 -22c-220 0 -393.167 67.666 -519.5 202.999s-189.5 318 -189.5 548c0 148.667 27.833 279.5 83.5 392.5s137.5 201.333 245.5 265s235.333 95.5 382 95.5c214 0 384.5 -69.167 511.5 -207.5s190.5 -320.166 190.5 -545.499
c0 -229.333 -62.667 -411.833 -188 -547.5s-297.333 -203.5 -516 -203.5zM814 138.999c162.667 0 286.333 52.5 371 157.5s127 249.167 127 432.5c0 179.333 -42.5 322.833 -127.5 430.5s-207.833 161.5 -368.5 161.5c-160 0 -284.167 -54.167 -372.5 -162.5
s-132.5 -251.5 -132.5 -429.5c0 -182.667 43.333 -326.667 130 -432s211 -158 373 -158z" />
    <glyph glyph-name="omacron" unicode="&#x14d;" horiz-adv-x="1258" 
d="M631 -22c-166 0 -295.833 49.334 -389.5 148.001s-140.5 227.334 -140.5 386.001c0 161.333 47.167 291.666 141.5 390.999s224.5 149 390.5 149c165.333 0 294 -49.5 386 -148.5s138 -229.5 138 -391.5c0 -158.667 -46.667 -287.334 -140 -386.001s-222 -148 -386 -148z
M631 128.001c108 0 190.5 35 247.5 105s85.5 163 85.5 279c0 118 -28.833 212.5 -86.5 283.5s-140.167 106.5 -247.5 106.5c-108 0 -191 -35.5 -249 -106.5s-87 -165.5 -87 -283.5c0 -116 28.833 -209 86.5 -279s141.167 -105 250.5 -105zM360 1242v124h584v-124h-584z" />
    <glyph glyph-name="Obreve" unicode="&#x14e;" horiz-adv-x="1626" 
d="M812 1610c-86.667 0 -153.167 21 -199.5 63s-72.5 107.667 -78.5 197h131c3.33301 -46.667 17.333 -79.667 42 -99s59.667 -29 105 -29c43.333 0 77 9.83301 101 29.5s38.333 52.5 43 98.5h129c-11.333 -173.333 -102.333 -260 -273 -260zM816 -22
c-220 0 -393.167 67.666 -519.5 202.999s-189.5 318 -189.5 548c0 148.667 27.833 279.5 83.5 392.5s137.5 201.333 245.5 265s235.333 95.5 382 95.5c214 0 384.5 -69.167 511.5 -207.5s190.5 -320.166 190.5 -545.499c0 -229.333 -62.667 -411.833 -188 -547.5
s-297.333 -203.5 -516 -203.5zM814 138.999c162.667 0 286.333 52.5 371 157.5s127 249.167 127 432.5c0 179.333 -42.5 322.833 -127.5 430.5s-207.833 161.5 -368.5 161.5c-160 0 -284.167 -54.167 -372.5 -162.5s-132.5 -251.5 -132.5 -429.5
c0 -182.667 43.333 -326.667 130 -432s211 -158 373 -158z" />
    <glyph glyph-name="obreve" unicode="&#x14f;" horiz-adv-x="1258" 
d="M631 -22c-166 0 -295.833 49.334 -389.5 148.001s-140.5 227.334 -140.5 386.001c0 161.333 47.167 291.666 141.5 390.999s224.5 149 390.5 149c165.333 0 294 -49.5 386 -148.5s138 -229.5 138 -391.5c0 -158.667 -46.667 -287.334 -140 -386.001s-222 -148 -386 -148z
M631 128.001c108 0 190.5 35 247.5 105s85.5 163 85.5 279c0 118 -28.833 212.5 -86.5 283.5s-140.167 106.5 -247.5 106.5c-108 0 -191 -35.5 -249 -106.5s-87 -165.5 -87 -283.5c0 -116 28.833 -209 86.5 -279s141.167 -105 250.5 -105zM628 1180
c-86.667 0 -153.167 21 -199.5 63s-72.5 107.667 -78.5 197h131c3.33301 -46.667 17.333 -79.667 42 -99s59.667 -29 105 -29c43.333 0 77 9.83301 101 29.5s38.333 52.5 43 98.5h129c-11.333 -173.333 -102.333 -260 -273 -260z" />
    <glyph glyph-name="Ohungarumlaut" unicode="&#x150;" horiz-adv-x="1626" 
d="M943 1590l241 372h208l-312 -372h-137zM619 1590l212 372h199l-278 -372h-133zM816 -22c-220 0 -393.167 67.666 -519.5 202.999s-189.5 318 -189.5 548c0 148.667 27.833 279.5 83.5 392.5s137.5 201.333 245.5 265s235.333 95.5 382 95.5
c214 0 384.5 -69.167 511.5 -207.5s190.5 -320.166 190.5 -545.499c0 -229.333 -62.667 -411.833 -188 -547.5s-297.333 -203.5 -516 -203.5zM814 138.999c162.667 0 286.333 52.5 371 157.5s127 249.167 127 432.5c0 179.333 -42.5 322.833 -127.5 430.5
s-207.833 161.5 -368.5 161.5c-160 0 -284.167 -54.167 -372.5 -162.5s-132.5 -251.5 -132.5 -429.5c0 -182.667 43.333 -326.667 130 -432s211 -158 373 -158z" />
    <glyph glyph-name="ohungarumlaut" unicode="&#x151;" horiz-adv-x="1258" 
d="M631 -22c-166 0 -295.833 49.334 -389.5 148.001s-140.5 227.334 -140.5 386.001c0 161.333 47.167 291.666 141.5 390.999s224.5 149 390.5 149c165.333 0 294 -49.5 386 -148.5s138 -229.5 138 -391.5c0 -158.667 -46.667 -287.334 -140 -386.001s-222 -148 -386 -148z
M631 128.001c108 0 190.5 35 247.5 105s85.5 163 85.5 279c0 118 -28.833 212.5 -86.5 283.5s-140.167 106.5 -247.5 106.5c-108 0 -191 -35.5 -249 -106.5s-87 -165.5 -87 -283.5c0 -116 28.833 -209 86.5 -279s141.167 -105 250.5 -105zM759 1160l241 372h208l-312 -372
h-137zM435 1160l212 372h199l-278 -372h-133z" />
    <glyph glyph-name="OE" unicode="&#x152;" horiz-adv-x="2049" 
d="M814 132c42 0 81.168 3.83301 117.501 11.5s67.166 18 92.499 31s46.333 26 63 39s31 26.5 43 40.5v958c-31.333 31.333 -71.833 57.166 -121.5 77.499s-109.167 30.5 -178.5 30.5c-80.667 0 -153.667 -14.667 -219 -44s-119.833 -70.166 -163.5 -122.499
s-77.167 -115 -100.5 -188s-35 -153.167 -35 -240.5c0 -86 10.5 -164.833 31.5 -236.5s52 -134.167 93 -187.5s93.667 -94.833 158 -124.5s137.5 -44.5 219.5 -44.5zM1130 94c-12 -12.667 -28.1738 -25.5029 -48.5068 -38.5029s-44.666 -25.5 -72.999 -37.5
s-61.666 -21.667 -99.999 -29s-78.166 -11 -119.499 -11c-138.667 0 -259.167 30 -361.5 90s-181.166 146.667 -236.499 260s-83 247 -83 401c0 110.667 16.833 212.834 50.5 306.501s80.834 173.334 141.501 239.001s134.334 116.834 221.001 153.501
s181.334 55 284.001 55c77.333 0 144 -10.5 200 -31.5s97.667 -44.5 125 -70.5v75h811v-165h-619v-462h580v-166h-580v-498h649v-165h-841v94z" />
    <glyph glyph-name="oe" unicode="&#x153;" horiz-adv-x="1978" 
d="M1115 615h577v24c-9.33301 77.333 -39 140.5 -89 189.5s-113.333 73.5 -190 73.5c-81.333 0 -149.5 -27.667 -204.5 -83s-86.167 -123.333 -93.5 -204zM624 128c66.667 0 123.5 17.5 170.5 52.5s81.5 80.833 103.5 137.5s33 121 33 193c0 118 -26.333 212.667 -79 284
s-130 107 -232 107c-103.333 0 -184.333 -36.833 -243 -110.5s-88 -168.834 -88 -285.501c0 -111.333 28.833 -202.166 86.5 -272.499s140.5 -105.5 248.5 -105.5zM620 -22c-162.667 0 -290.836 49.335 -384.503 148.002s-140.5 226.334 -140.5 383.001
c0 104 20 196.5 60 277.5s100.167 145.5 180.5 193.5s175.5 72 285.5 72c94 0 174.833 -20.167 242.5 -60.5s120.834 -96.5 159.501 -168.5c74.667 154 204.334 231 389.001 231c142 0 252.833 -48.167 332.5 -144.5s119.5 -224.833 119.5 -385.5v-53h-751
c0.666992 -0.666992 1.16699 -5.83398 1.5 -15.501s0.5 -14.834 0.5 -15.501c5.33301 -94.667 38.5 -170.334 99.5 -227.001s141.167 -85 240.5 -85c112.667 0 220 35.667 322 107l56 -134c-107.333 -82 -239.666 -123 -396.999 -123c-88.667 0 -171.5 21 -248.5 63
s-132.5 97.667 -166.5 167c-32 -70.667 -84.5 -126.667 -157.5 -168s-154.167 -62 -243.5 -62z" />
    <glyph glyph-name="Racute" unicode="&#x154;" horiz-adv-x="1362" 
d="M584 1602l236 360h237l-319 -360h-154zM392 808h271c96.667 0 171.667 19.167 225 57.5s80 102.5 80 192.5c0 36.667 -3.83301 68.5 -11.5 95.5s-18.667 49.5 -33 67.5s-33.333 32.5 -57 43.5s-50.167 18.833 -79.5 23.5s-64 7 -104 7h-3.5h-3.5h-4h-280v-487zM202 0
l-0.00292969 1456h466c60 0 113.667 -3.16699 161 -9.5s92.833 -18.166 136.5 -35.499s79.834 -40.166 108.501 -68.499s51.5 -65.5 68.5 -111.5s25.5 -100 25.5 -162c0 -91.333 -23.333 -167.666 -70 -228.999s-117.667 -102 -213 -122
c54.667 -17.333 97.834 -47.5 129.501 -90.5s63.834 -105.5 96.501 -187.5l171 -440h-204l-160 428c-22.667 61.333 -43.5 106.333 -62.5 135s-43.833 49.834 -74.5 63.501s-73 20.5 -127 20.5h-261v-647h-191z" />
    <glyph glyph-name="racute" unicode="&#x155;" horiz-adv-x="803" 
d="M179 0v774c0 22.667 -1.16699 55 -3.5 97s-4.5 78.333 -6.5 109l-3 46h195l2 -160c62 122.667 153.333 184 274 184c38 0 72.667 -4 104 -12l-1 -163c-39.333 10.667 -77 16 -113 16c-78.667 0 -142 -27.5 -190 -82.5s-72 -134.167 -72 -237.5v-571h-186zM450 1172
l236 360h237l-319 -360h-154z" />
    <glyph glyph-name="Rcommaaccent" unicode="&#x156;" horiz-adv-x="1362" 
d="M511 -607l109 473h209l-168 -473h-150zM392 808h271c96.667 0 171.667 19.167 225 57.5s80 102.5 80 192.5c0 36.667 -3.83301 68.5 -11.5 95.5s-18.667 49.5 -33 67.5s-33.333 32.5 -57 43.5s-50.167 18.833 -79.5 23.5s-64 7 -104 7h-3.5h-3.5h-4h-280v-487zM202 0
l-0.00292969 1456h466c60 0 113.667 -3.16699 161 -9.5s92.833 -18.166 136.5 -35.499s79.834 -40.166 108.501 -68.499s51.5 -65.5 68.5 -111.5s25.5 -100 25.5 -162c0 -91.333 -23.333 -167.666 -70 -228.999s-117.667 -102 -213 -122
c54.667 -17.333 97.834 -47.5 129.501 -90.5s63.834 -105.5 96.501 -187.5l171 -440h-204l-160 428c-22.667 61.333 -43.5 106.333 -62.5 135s-43.833 49.834 -74.5 63.501s-73 20.5 -127 20.5h-261v-647h-191z" />
    <glyph glyph-name="rcommaaccent" unicode="&#x157;" horiz-adv-x="803" 
d="M83 -607l109 473h209l-168 -473h-150zM179 0v774c0 22.667 -1.16699 55 -3.5 97s-4.5 78.333 -6.5 109l-3 46h195l2 -160c62 122.667 153.333 184 274 184c38 0 72.667 -4 104 -12l-1 -163c-39.333 10.667 -77 16 -113 16c-78.667 0 -142 -27.5 -190 -82.5
s-72 -134.167 -72 -237.5v-571h-186z" />
    <glyph glyph-name="Rcaron" unicode="&#x158;" horiz-adv-x="1362" 
d="M571 1584l-247 351h164l162 -230l163 230h168l-246 -351h-164zM392 808h271c96.667 0 171.667 19.167 225 57.5s80 102.5 80 192.5c0 36.667 -3.83301 68.5 -11.5 95.5s-18.667 49.5 -33 67.5s-33.333 32.5 -57 43.5s-50.167 18.833 -79.5 23.5s-64 7 -104 7h-3.5h-3.5
h-4h-280v-487zM202 0l-0.00292969 1456h466c60 0 113.667 -3.16699 161 -9.5s92.833 -18.166 136.5 -35.499s79.834 -40.166 108.501 -68.499s51.5 -65.5 68.5 -111.5s25.5 -100 25.5 -162c0 -91.333 -23.333 -167.666 -70 -228.999s-117.667 -102 -213 -122
c54.667 -17.333 97.834 -47.5 129.501 -90.5s63.834 -105.5 96.501 -187.5l171 -440h-204l-160 428c-22.667 61.333 -43.5 106.333 -62.5 135s-43.833 49.834 -74.5 63.501s-73 20.5 -127 20.5h-261v-647h-191z" />
    <glyph glyph-name="rcaron" unicode="&#x159;" horiz-adv-x="803" 
d="M179 0v774c0 22.667 -1.16699 55 -3.5 97s-4.5 78.333 -6.5 109l-3 46h195l2 -160c62 122.667 153.333 184 274 184c38 0 72.667 -4 104 -12l-1 -163c-39.333 10.667 -77 16 -113 16c-78.667 0 -142 -27.5 -190 -82.5s-72 -134.167 -72 -237.5v-571h-186zM437 1154
l-247 351h164l162 -230l163 230h168l-246 -351h-164z" />
    <glyph glyph-name="Sacute" unicode="&#x15a;" horiz-adv-x="1214" 
d="M555 1602l236 360h237l-319 -360h-154zM600 139c40 0 76.1699 3.66992 108.503 11.0029s60.5 17.833 84.5 31.5s44.167 30.667 60.5 51s28.5 43.666 36.5 69.999s12 55.5 12 87.5c0 34.667 -3.66699 63.834 -11 87.501s-21.333 46.167 -42 67.5
s-48.834 40.5 -84.501 57.5s-82.834 34.5 -141.501 52.5c-6 2 -20.5 6.16699 -43.5 12.5s-38.167 10.833 -45.5 13.5c-139.333 40 -240.833 90.667 -304.5 152s-95.5 149.666 -95.5 264.999c0 82 21.333 152.333 64 211s99.834 102.167 171.501 130.5
s154.167 42.5 247.5 42.5c196.667 0 346.334 -50.667 449.001 -152l-95 -129c-34 33.333 -80 61.666 -138 84.999s-122.333 35 -193 35c-92 0 -165.5 -18.333 -220.5 -55s-82.5 -90.667 -82.5 -162c0 -48 6.5 -86 19.5 -114s36.667 -52.333 71 -73s86.166 -42 155.499 -64
c1.33301 -0.666992 13.833 -4.33398 37.5 -11.001s39.5 -11 47.5 -13c85.333 -25.333 155.5 -51.666 210.5 -78.999s99.167 -58.833 132.5 -94.5s56.666 -74.834 69.999 -117.501s20 -94 20 -154c0 -67.333 -12.833 -127.166 -38.5 -179.499s-61.167 -94.833 -106.5 -127.5
s-97.333 -57.334 -156 -74.001s-122.667 -25 -192 -25c-108.667 0 -205.834 17.833 -291.501 53.5s-148.167 72.5 -187.5 110.5l85 138c42.667 -34 98.667 -66 168 -96s142 -45 218 -45z" />
    <glyph glyph-name="sacute" unicode="&#x15b;" horiz-adv-x="978" 
d="M518 -22c-88.667 0 -166.834 13.333 -234.501 40s-120.167 54.667 -157.5 84l51 137c38 -28 86.5 -53.333 145.5 -76s119.167 -34 180.5 -34c136 0 204 50 204 150c0 42 -15.333 73.333 -46 94s-90.334 46 -179.001 76l-88 30c-34 12 -62.833 23.333 -86.5 34
s-47.5 24.167 -71.5 40.5s-43.333 34 -58 53s-26.5 42 -35.5 69s-13.5 57.5 -13.5 91.5c0 48.667 10.167 91.834 30.5 129.501s48.166 67.334 83.499 89.001s74.333 38 117 49s88.667 16.5 138 16.5c135.333 0 249.333 -29.667 342 -89l-51 -132c-90 48 -180 72 -270 72
c-66 0 -117 -11.333 -153 -34s-54 -54.667 -54 -96c0 -37.333 10.833 -64.833 32.5 -82.5s64.834 -38.167 129.501 -61.5c58 -19.333 92.333 -31 103 -35c42 -14.667 75.667 -27.334 101 -38.001s52.5 -24.834 81.5 -42.501s51.333 -36.167 67 -55.5s28.667 -43.5 39 -72.5
s15.5 -61.833 15.5 -98.5c0 -54.667 -10.333 -102.5 -31 -143.5s-48.667 -73 -84 -96s-73.666 -40.167 -114.999 -51.5s-85.666 -17 -132.999 -17zM419 1172l236 360h237l-319 -360h-154z" />
    <glyph glyph-name="Scircumflex" unicode="&#x15c;" horiz-adv-x="1214" 
d="M311 1584l234 347h162l236 -347h-156l-162 218l-164 -218h-150zM600 139c40 0 76.1699 3.66992 108.503 11.0029s60.5 17.833 84.5 31.5s44.167 30.667 60.5 51s28.5 43.666 36.5 69.999s12 55.5 12 87.5c0 34.667 -3.66699 63.834 -11 87.501s-21.333 46.167 -42 67.5
s-48.834 40.5 -84.501 57.5s-82.834 34.5 -141.501 52.5c-6 2 -20.5 6.16699 -43.5 12.5s-38.167 10.833 -45.5 13.5c-139.333 40 -240.833 90.667 -304.5 152s-95.5 149.666 -95.5 264.999c0 82 21.333 152.333 64 211s99.834 102.167 171.501 130.5
s154.167 42.5 247.5 42.5c196.667 0 346.334 -50.667 449.001 -152l-95 -129c-34 33.333 -80 61.666 -138 84.999s-122.333 35 -193 35c-92 0 -165.5 -18.333 -220.5 -55s-82.5 -90.667 -82.5 -162c0 -48 6.5 -86 19.5 -114s36.667 -52.333 71 -73s86.166 -42 155.499 -64
c1.33301 -0.666992 13.833 -4.33398 37.5 -11.001s39.5 -11 47.5 -13c85.333 -25.333 155.5 -51.666 210.5 -78.999s99.167 -58.833 132.5 -94.5s56.666 -74.834 69.999 -117.501s20 -94 20 -154c0 -67.333 -12.833 -127.166 -38.5 -179.499s-61.167 -94.833 -106.5 -127.5
s-97.333 -57.334 -156 -74.001s-122.667 -25 -192 -25c-108.667 0 -205.834 17.833 -291.501 53.5s-148.167 72.5 -187.5 110.5l85 138c42.667 -34 98.667 -66 168 -96s142 -45 218 -45z" />
    <glyph glyph-name="scircumflex" unicode="&#x15d;" horiz-adv-x="978" 
d="M518 -22c-88.667 0 -166.834 13.333 -234.501 40s-120.167 54.667 -157.5 84l51 137c38 -28 86.5 -53.333 145.5 -76s119.167 -34 180.5 -34c136 0 204 50 204 150c0 42 -15.333 73.333 -46 94s-90.334 46 -179.001 76l-88 30c-34 12 -62.833 23.333 -86.5 34
s-47.5 24.167 -71.5 40.5s-43.333 34 -58 53s-26.5 42 -35.5 69s-13.5 57.5 -13.5 91.5c0 48.667 10.167 91.834 30.5 129.501s48.166 67.334 83.499 89.001s74.333 38 117 49s88.667 16.5 138 16.5c135.333 0 249.333 -29.667 342 -89l-51 -132c-90 48 -180 72 -270 72
c-66 0 -117 -11.333 -153 -34s-54 -54.667 -54 -96c0 -37.333 10.833 -64.833 32.5 -82.5s64.834 -38.167 129.501 -61.5c58 -19.333 92.333 -31 103 -35c42 -14.667 75.667 -27.334 101 -38.001s52.5 -24.834 81.5 -42.501s51.333 -36.167 67 -55.5s28.667 -43.5 39 -72.5
s15.5 -61.833 15.5 -98.5c0 -54.667 -10.333 -102.5 -31 -143.5s-48.667 -73 -84 -96s-73.666 -40.167 -114.999 -51.5s-85.666 -17 -132.999 -17zM175 1154l234 347h162l236 -347h-156l-162 218l-164 -218h-150z" />
    <glyph glyph-name="Scedilla" unicode="&#x15e;" horiz-adv-x="1214" 
d="M642 -447c-63.333 0 -122 9.33496 -176 28.002l13 97c14 -6 36.5 -12 67.5 -18s59.833 -9 86.5 -9h3c34 0 60.5 6.66699 79.5 20s28.5 31.666 28.5 54.999c0 22.667 -13 42.834 -39 60.501s-66.333 26.5 -121 26.5h-22l32 196h97l-20 -128
c70 -6.66699 125.5 -24 166.5 -52s61.5 -64 61.5 -108c0 -26.667 -6.5 -50.834 -19.5 -72.501s-31 -39.334 -54 -53.001s-49.833 -24.167 -80.5 -31.5s-63.667 -11 -99 -11h-2h-2zM600 139.002c40 0 76.1699 3.66992 108.503 11.0029s60.5 17.833 84.5 31.5
s44.167 30.667 60.5 51s28.5 43.666 36.5 69.999s12 55.5 12 87.5c0 34.667 -3.66699 63.834 -11 87.501s-21.333 46.167 -42 67.5s-48.834 40.5 -84.501 57.5s-82.834 34.5 -141.501 52.5c-6 2 -20.5 6.16699 -43.5 12.5s-38.167 10.833 -45.5 13.5
c-139.333 40 -240.833 90.667 -304.5 152s-95.5 149.666 -95.5 264.999c0 82 21.333 152.333 64 211s99.834 102.167 171.501 130.5s154.167 42.5 247.5 42.5c196.667 0 346.334 -50.667 449.001 -152l-95 -129c-34 33.333 -80 61.666 -138 84.999s-122.333 35 -193 35
c-92 0 -165.5 -18.333 -220.5 -55s-82.5 -90.667 -82.5 -162c0 -48 6.5 -86 19.5 -114s36.667 -52.333 71 -73s86.166 -42 155.499 -64c1.33301 -0.666992 13.833 -4.33398 37.5 -11.001s39.5 -11 47.5 -13c85.333 -25.333 155.5 -51.666 210.5 -78.999
s99.167 -58.833 132.5 -94.5s56.666 -74.834 69.999 -117.501s20 -94 20 -154c0 -67.333 -12.833 -127.166 -38.5 -179.499s-61.167 -94.833 -106.5 -127.5s-97.333 -57.334 -156 -74.001s-122.667 -25 -192 -25c-108.667 0 -205.834 17.833 -291.501 53.5
s-148.167 72.5 -187.5 110.5l85 138c42.667 -34 98.667 -66 168 -96s142 -45 218 -45z" />
    <glyph glyph-name="scedilla" unicode="&#x15f;" horiz-adv-x="978" 
d="M518 -22c-88.667 0 -166.834 13.333 -234.501 40s-120.167 54.667 -157.5 84l51 137c38 -28 86.5 -53.333 145.5 -76s119.167 -34 180.5 -34c136 0 204 50 204 150c0 42 -15.333 73.333 -46 94s-90.334 46 -179.001 76l-88 30c-34 12 -62.833 23.333 -86.5 34
s-47.5 24.167 -71.5 40.5s-43.333 34 -58 53s-26.5 42 -35.5 69s-13.5 57.5 -13.5 91.5c0 48.667 10.167 91.834 30.5 129.501s48.166 67.334 83.499 89.001s74.333 38 117 49s88.667 16.5 138 16.5c135.333 0 249.333 -29.667 342 -89l-51 -132c-90 48 -180 72 -270 72
c-66 0 -117 -11.333 -153 -34s-54 -54.667 -54 -96c0 -37.333 10.833 -64.833 32.5 -82.5s64.834 -38.167 129.501 -61.5c58 -19.333 92.333 -31 103 -35c42 -14.667 75.667 -27.334 101 -38.001s52.5 -24.834 81.5 -42.501s51.333 -36.167 67 -55.5s28.667 -43.5 39 -72.5
s15.5 -61.833 15.5 -98.5c0 -54.667 -10.333 -102.5 -31 -143.5s-48.667 -73 -84 -96s-73.666 -40.167 -114.999 -51.5s-85.666 -17 -132.999 -17zM530 -447c-63.333 0 -122 9.33496 -176 28.002l13 97c14 -6 36.5 -12 67.5 -18s59.833 -9 86.5 -9h3
c34 0 60.5 6.66699 79.5 20s28.5 31.666 28.5 54.999c0 22.667 -13 42.834 -39 60.501s-66.333 26.5 -121 26.5h-22l32 196h97l-20 -128c70 -6.66699 125.5 -24 166.5 -52s61.5 -64 61.5 -108c0 -26.667 -6.5 -50.834 -19.5 -72.501s-31 -39.334 -54 -53.001
s-49.833 -24.167 -80.5 -31.5s-63.667 -11 -99 -11h-2h-2z" />
    <glyph glyph-name="Scaron" unicode="&#x160;" horiz-adv-x="1214" 
d="M542 1584l-247 351h164l162 -230l163 230h168l-246 -351h-164zM600 139c40 0 76.1699 3.66992 108.503 11.0029s60.5 17.833 84.5 31.5s44.167 30.667 60.5 51s28.5 43.666 36.5 69.999s12 55.5 12 87.5c0 34.667 -3.66699 63.834 -11 87.501s-21.333 46.167 -42 67.5
s-48.834 40.5 -84.501 57.5s-82.834 34.5 -141.501 52.5c-6 2 -20.5 6.16699 -43.5 12.5s-38.167 10.833 -45.5 13.5c-139.333 40 -240.833 90.667 -304.5 152s-95.5 149.666 -95.5 264.999c0 82 21.333 152.333 64 211s99.834 102.167 171.501 130.5
s154.167 42.5 247.5 42.5c196.667 0 346.334 -50.667 449.001 -152l-95 -129c-34 33.333 -80 61.666 -138 84.999s-122.333 35 -193 35c-92 0 -165.5 -18.333 -220.5 -55s-82.5 -90.667 -82.5 -162c0 -48 6.5 -86 19.5 -114s36.667 -52.333 71 -73s86.166 -42 155.499 -64
c1.33301 -0.666992 13.833 -4.33398 37.5 -11.001s39.5 -11 47.5 -13c85.333 -25.333 155.5 -51.666 210.5 -78.999s99.167 -58.833 132.5 -94.5s56.666 -74.834 69.999 -117.501s20 -94 20 -154c0 -67.333 -12.833 -127.166 -38.5 -179.499s-61.167 -94.833 -106.5 -127.5
s-97.333 -57.334 -156 -74.001s-122.667 -25 -192 -25c-108.667 0 -205.834 17.833 -291.501 53.5s-148.167 72.5 -187.5 110.5l85 138c42.667 -34 98.667 -66 168 -96s142 -45 218 -45z" />
    <glyph glyph-name="scaron" unicode="&#x161;" horiz-adv-x="978" 
d="M518 -22c-88.667 0 -166.834 13.333 -234.501 40s-120.167 54.667 -157.5 84l51 137c38 -28 86.5 -53.333 145.5 -76s119.167 -34 180.5 -34c136 0 204 50 204 150c0 42 -15.333 73.333 -46 94s-90.334 46 -179.001 76l-88 30c-34 12 -62.833 23.333 -86.5 34
s-47.5 24.167 -71.5 40.5s-43.333 34 -58 53s-26.5 42 -35.5 69s-13.5 57.5 -13.5 91.5c0 48.667 10.167 91.834 30.5 129.501s48.166 67.334 83.499 89.001s74.333 38 117 49s88.667 16.5 138 16.5c135.333 0 249.333 -29.667 342 -89l-51 -132c-90 48 -180 72 -270 72
c-66 0 -117 -11.333 -153 -34s-54 -54.667 -54 -96c0 -37.333 10.833 -64.833 32.5 -82.5s64.834 -38.167 129.501 -61.5c58 -19.333 92.333 -31 103 -35c42 -14.667 75.667 -27.334 101 -38.001s52.5 -24.834 81.5 -42.501s51.333 -36.167 67 -55.5s28.667 -43.5 39 -72.5
s15.5 -61.833 15.5 -98.5c0 -54.667 -10.333 -102.5 -31 -143.5s-48.667 -73 -84 -96s-73.666 -40.167 -114.999 -51.5s-85.666 -17 -132.999 -17zM406 1154l-247 351h164l162 -230l163 230h168l-246 -351h-164z" />
    <glyph glyph-name="Tcommaaccent" unicode="&#x162;" horiz-adv-x="1144" 
d="M584 -447c-63.333 0 -122 9.33496 -176 28.002l13 97c14 -6 36.5 -12 67.5 -18s59.833 -9 86.5 -9h3c34 0 60.5 6.66699 79.5 20s28.5 31.666 28.5 54.999c0 22.667 -13 42.834 -39 60.501s-66.333 26.5 -121 26.5h-22l32 196h97l-20 -128
c70 -6.66699 125.5 -24 166.5 -52s61.5 -64 61.5 -108c0 -26.667 -6.5 -50.834 -19.5 -72.501s-31 -39.334 -54 -53.001s-49.833 -24.167 -80.5 -31.5s-63.667 -11 -99 -11h-2h-2zM475 0.00195312v1295h-465v161h1124v-161h-468v-1295h-191z" />
    <glyph glyph-name="tcommaaccent" unicode="&#x163;" horiz-adv-x="803" 
d="M704 0l-84.999 0.00195312c-145.333 1.33301 -244.833 27.333 -298.5 78s-80.5 143 -80.5 277v548h-197v123h201v264l180 53v-317h278v-123h-278v-558c0 -36.667 2.5 -66.334 7.5 -89.001s12.833 -41.834 23.5 -57.501s27.667 -27.167 51 -34.5
s49.666 -12.5 78.999 -15.5s69 -4.5 119 -4.5v-144zM536.001 -440.998c-63.333 0 -122 9.33496 -176 28.002l13 97c14 -6 36.5 -12 67.5 -18s59.833 -9 86.5 -9h3c34 0 60.5 6.66699 79.5 20s28.5 31.666 28.5 54.999c0 22.667 -13 42.834 -39 60.501
s-66.333 26.5 -121 26.5h-22l32 196h97l-20 -128c70 -6.66699 125.5 -24 166.5 -52s61.5 -64 61.5 -108c0 -26.667 -6.5 -50.834 -19.5 -72.501s-31 -39.334 -54 -53.001s-49.833 -24.167 -80.5 -31.5s-63.667 -11 -99 -11h-2h-2z" />
    <glyph glyph-name="Tcaron" unicode="&#x164;" horiz-adv-x="1144" 
d="M490 1584l-247 351h164l162 -230l163 230h168l-246 -351h-164zM475 0v1295h-465v161h1124v-161h-468v-1295h-191z" />
    <glyph glyph-name="tcaron" unicode="&#x165;" horiz-adv-x="803" 
d="M704 0l-84.999 0.00195312c-145.333 1.33301 -244.833 27.333 -298.5 78s-80.5 143 -80.5 277v548h-197v123h201v264l180 53v-317h278v-123h-278v-558c0 -36.667 2.5 -66.334 7.5 -89.001s12.833 -41.834 23.5 -57.501s27.667 -27.167 51 -34.5
s49.666 -12.5 78.999 -15.5s69 -4.5 119 -4.5v-144zM537.001 1248l109 474h209l-168 -474h-150z" />
    <glyph glyph-name="Tbar" unicode="&#x166;" horiz-adv-x="1144" 
d="M271 686v124h584v-124h-584zM475 0v1295h-465v161h1124v-161h-468v-1295h-191z" />
    <glyph glyph-name="tbar" unicode="&#x167;" horiz-adv-x="803" 
d="M704 0l-84.999 0.00195312c-145.333 1.33301 -244.833 27.333 -298.5 78s-80.5 143 -80.5 277v548h-197v123h201v264l180 53v-317h278v-123h-278v-558c0 -36.667 2.5 -66.334 7.5 -89.001s12.833 -41.834 23.5 -57.501s27.667 -27.167 51 -34.5
s49.666 -12.5 78.999 -15.5s69 -4.5 119 -4.5v-144zM57.001 540.002v124h584v-124h-584z" />
    <glyph glyph-name="Utilde" unicode="&#x168;" horiz-adv-x="1495" 
d="M903 1605c-25.333 0 -57.499 8.33203 -96.499 24.999s-76.5 33.5 -112.5 50.5s-63.667 25.5 -83 25.5c-40.667 0 -64 -31 -70 -93h-118c0 70.667 16.167 127.167 48.5 169.5s76.166 63.5 131.499 63.5c14 0 29 -1.83301 45 -5.5s31.5 -8.5 46.5 -14.5s30 -12.667 45 -20
s29.667 -14.5 44 -21.5s28 -13.5 41 -19.5s25.5 -10.833 37.5 -14.5s22.667 -5.5 32 -5.5c21.333 0 36.5 7.33301 45.5 22s13.833 40.334 14.5 77.001h122c0 -74.667 -14.833 -133.167 -44.5 -175.5s-72.5 -63.5 -128.5 -63.5zM744.001 -22.001
c-382.667 0 -574 194.001 -574 582.001v896h191v-900c0 -142.667 32.333 -247.834 97 -315.501s160.667 -101.5 288 -101.5c257.333 0 386 137.667 386 413v904h190v-894c0 -88.667 -10.667 -167.667 -32 -237s-54.333 -130.5 -99 -183.5s-104.667 -93.5 -180 -121.5
s-164.333 -42 -267 -42z" />
    <glyph glyph-name="utilde" unicode="&#x169;" horiz-adv-x="1235" 
d="M555 -23c-131.333 0 -229.999 37.501 -295.999 112.501s-99 175.833 -99 302.5v634h183v-634c0 -88 20.833 -154.167 62.5 -198.5s101.834 -66.5 180.501 -66.5c90 0 160.333 25.667 211 77s76 117.666 76 198.999v623h184v-772c0 -91.333 3 -176 9 -254h-187l-5 165
c-28.667 -52.667 -69.334 -97.167 -122.001 -133.5s-118.334 -54.5 -197.001 -54.5zM764.001 1175c-25.333 0 -57.499 8.33203 -96.499 24.999s-76.5 33.5 -112.5 50.5s-63.667 25.5 -83 25.5c-40.667 0 -64 -31 -70 -93h-118c0 70.667 16.167 127.167 48.5 169.5
s76.166 63.5 131.499 63.5c14 0 29 -1.83301 45 -5.5s31.5 -8.5 46.5 -14.5s30 -12.667 45 -20s29.667 -14.5 44 -21.5s28 -13.5 41 -19.5s25.5 -10.833 37.5 -14.5s22.667 -5.5 32 -5.5c21.333 0 36.5 7.33301 45.5 22s13.833 40.334 14.5 77.001h122
c0 -74.667 -14.833 -133.167 -44.5 -175.5s-72.5 -63.5 -128.5 -63.5z" />
    <glyph glyph-name="Umacron" unicode="&#x16a;" horiz-adv-x="1495" 
d="M474 1672v124h584v-124h-584zM744 -22c-382.667 0 -574 194.001 -574 582.001v896h191v-900c0 -142.667 32.333 -247.834 97 -315.501s160.667 -101.5 288 -101.5c257.333 0 386 137.667 386 413v904h190v-894c0 -88.667 -10.667 -167.667 -32 -237
s-54.333 -130.5 -99 -183.5s-104.667 -93.5 -180 -121.5s-164.333 -42 -267 -42z" />
    <glyph glyph-name="umacron" unicode="&#x16b;" horiz-adv-x="1235" 
d="M555 -23c-131.333 0 -229.999 37.501 -295.999 112.501s-99 175.833 -99 302.5v634h183v-634c0 -88 20.833 -154.167 62.5 -198.5s101.834 -66.5 180.501 -66.5c90 0 160.333 25.667 211 77s76 117.666 76 198.999v623h184v-772c0 -91.333 3 -176 9 -254h-187l-5 165
c-28.667 -52.667 -69.334 -97.167 -122.001 -133.5s-118.334 -54.5 -197.001 -54.5zM335.001 1242v124h584v-124h-584z" />
    <glyph glyph-name="Ubreve" unicode="&#x16c;" horiz-adv-x="1495" 
d="M742 1610c-86.667 0 -153.167 21 -199.5 63s-72.5 107.667 -78.5 197h131c3.33301 -46.667 17.333 -79.667 42 -99s59.667 -29 105 -29c43.333 0 77 9.83301 101 29.5s38.333 52.5 43 98.5h129c-11.333 -173.333 -102.333 -260 -273 -260zM744 -22
c-382.667 0 -574 194.001 -574 582.001v896h191v-900c0 -142.667 32.333 -247.834 97 -315.501s160.667 -101.5 288 -101.5c257.333 0 386 137.667 386 413v904h190v-894c0 -88.667 -10.667 -167.667 -32 -237s-54.333 -130.5 -99 -183.5s-104.667 -93.5 -180 -121.5
s-164.333 -42 -267 -42z" />
    <glyph glyph-name="ubreve" unicode="&#x16d;" horiz-adv-x="1235" 
d="M555 -23c-131.333 0 -229.999 37.501 -295.999 112.501s-99 175.833 -99 302.5v634h183v-634c0 -88 20.833 -154.167 62.5 -198.5s101.834 -66.5 180.501 -66.5c90 0 160.333 25.667 211 77s76 117.666 76 198.999v623h184v-772c0 -91.333 3 -176 9 -254h-187l-5 165
c-28.667 -52.667 -69.334 -97.167 -122.001 -133.5s-118.334 -54.5 -197.001 -54.5zM603.001 1180c-86.667 0 -153.167 21 -199.5 63s-72.5 107.667 -78.5 197h131c3.33301 -46.667 17.333 -79.667 42 -99s59.667 -29 105 -29c43.333 0 77 9.83301 101 29.5
s38.333 52.5 43 98.5h129c-11.333 -173.333 -102.333 -260 -273 -260z" />
    <glyph glyph-name="Uring" unicode="&#x16e;" horiz-adv-x="1495" 
d="M747 1567c-56.667 0 -104.334 18.667 -143.001 56s-58 83.666 -58 138.999c0 56 19.333 102.5 58 139.5s86.334 55.5 143.001 55.5s104.334 -18.5 143.001 -55.5s58 -83.5 58 -139.5c0 -55.333 -19.333 -101.666 -58 -138.999s-86.334 -56 -143.001 -56zM746 1652
c29.333 0 54.333 10.667 75 32s31 47.333 31 78s-10.333 56.667 -31 78s-45.667 32 -75 32s-54.333 -10.667 -75 -32s-31 -47.333 -31 -78s10.333 -56.667 31 -78s45.667 -32 75 -32zM744 -22c-382.667 0 -574 194.001 -574 582.001v896h191v-900
c0 -142.667 32.333 -247.834 97 -315.501s160.667 -101.5 288 -101.5c257.333 0 386 137.667 386 413v904h190v-894c0 -88.667 -10.667 -167.667 -32 -237s-54.333 -130.5 -99 -183.5s-104.667 -93.5 -180 -121.5s-164.333 -42 -267 -42z" />
    <glyph glyph-name="uring" unicode="&#x16f;" horiz-adv-x="1235" 
d="M555 -23c-131.333 0 -229.999 37.501 -295.999 112.501s-99 175.833 -99 302.5v634h183v-634c0 -88 20.833 -154.167 62.5 -198.5s101.834 -66.5 180.501 -66.5c90 0 160.333 25.667 211 77s76 117.666 76 198.999v623h184v-772c0 -91.333 3 -176 9 -254h-187l-5 165
c-28.667 -52.667 -69.334 -97.167 -122.001 -133.5s-118.334 -54.5 -197.001 -54.5zM608.001 1137c-56.667 0 -104.334 18.667 -143.001 56s-58 83.666 -58 138.999c0 56 19.333 102.5 58 139.5s86.334 55.5 143.001 55.5s104.334 -18.5 143.001 -55.5s58 -83.5 58 -139.5
c0 -55.333 -19.333 -101.666 -58 -138.999s-86.334 -56 -143.001 -56zM607.001 1222c29.333 0 54.333 10.667 75 32s31 47.333 31 78s-10.333 56.667 -31 78s-45.667 32 -75 32s-54.333 -10.667 -75 -32s-31 -47.333 -31 -78s10.333 -56.667 31 -78s45.667 -32 75 -32z" />
    <glyph glyph-name="Uhungarumlaut" unicode="&#x170;" horiz-adv-x="1495" 
d="M873 1590l241 372h208l-312 -372h-137zM549 1590l212 372h199l-278 -372h-133zM744 -22c-382.667 0 -574 194.001 -574 582.001v896h191v-900c0 -142.667 32.333 -247.834 97 -315.501s160.667 -101.5 288 -101.5c257.333 0 386 137.667 386 413v904h190v-894
c0 -88.667 -10.667 -167.667 -32 -237s-54.333 -130.5 -99 -183.5s-104.667 -93.5 -180 -121.5s-164.333 -42 -267 -42z" />
    <glyph glyph-name="uhungarumlaut" unicode="&#x171;" horiz-adv-x="1235" 
d="M555 -23c-131.333 0 -229.999 37.501 -295.999 112.501s-99 175.833 -99 302.5v634h183v-634c0 -88 20.833 -154.167 62.5 -198.5s101.834 -66.5 180.501 -66.5c90 0 160.333 25.667 211 77s76 117.666 76 198.999v623h184v-772c0 -91.333 3 -176 9 -254h-187l-5 165
c-28.667 -52.667 -69.334 -97.167 -122.001 -133.5s-118.334 -54.5 -197.001 -54.5zM734.001 1160l241 372h208l-312 -372h-137zM410.001 1160l212 372h199l-278 -372h-133z" />
    <glyph glyph-name="Uogonek" unicode="&#x172;" horiz-adv-x="1495" 
d="M775 -424c-66.667 0 -122.166 15.166 -166.499 45.499s-66.5 73.166 -66.5 128.499c0 52.667 21.667 102.334 65 149.001s94 85.334 152 116.001l105 -5c-46 -30 -84.5 -67.5 -115.5 -112.5s-46.5 -84.5 -46.5 -118.5c0 -27.333 9.5 -48.5 28.5 -63.5
s47.5 -22.5 85.5 -22.5c33.333 0 77.666 7.66699 132.999 23v-112c-59.333 -18.667 -117.333 -28 -174 -28zM744.001 -22.001c-382.667 0 -574 194.001 -574 582.001v896h191v-900c0 -142.667 32.333 -247.834 97 -315.501s160.667 -101.5 288 -101.5
c257.333 0 386 137.667 386 413v904h190v-894c0 -88.667 -10.667 -167.667 -32 -237s-54.333 -130.5 -99 -183.5s-104.667 -93.5 -180 -121.5s-164.333 -42 -267 -42z" />
    <glyph glyph-name="uogonek" unicode="&#x173;" horiz-adv-x="1235" 
d="M555 -23c-131.333 0 -229.999 37.501 -295.999 112.501s-99 175.833 -99 302.5v634h183v-634c0 -88 20.833 -154.167 62.5 -198.5s101.834 -66.5 180.501 -66.5c90 0 160.333 25.667 211 77s76 117.666 76 198.999v623h184v-772c0 -91.333 3 -176 9 -254h-187l-5 165
c-28.667 -52.667 -69.334 -97.167 -122.001 -133.5s-118.334 -54.5 -197.001 -54.5zM955.001 -423.999c-66.667 0 -122.166 15.166 -166.499 45.499s-66.5 73.166 -66.5 128.499c0 52.667 21.667 102.334 65 149.001s94 85.334 152 116.001l105 -5
c-46 -30 -84.5 -67.5 -115.5 -112.5s-46.5 -84.5 -46.5 -118.5c0 -27.333 9.5 -48.5 28.5 -63.5s47.5 -22.5 85.5 -22.5c33.333 0 77.666 7.66699 132.999 23v-112c-59.333 -18.667 -117.333 -28 -174 -28z" />
    <glyph glyph-name="Wcircumflex" unicode="&#x174;" horiz-adv-x="2022" 
d="M710 1584l234 347h162l236 -347h-156l-162 218l-164 -218h-150zM440 0l-398 1456h205l257 -1004l54 -235c44.667 166 113.667 403.5 207 712.5s146 484.5 158 526.5h191c12.667 -41.333 65.667 -216.5 159 -525.5s163.333 -545.833 210 -710.5
c36.667 164.667 93 400.334 169 707.001s119.667 483 131 529h197l-387 -1456h-223l-355 1199l-355 -1199h-220z" />
    <glyph glyph-name="wcircumflex" unicode="&#x175;" horiz-adv-x="1636" 
d="M372 0l-341 1026h196c10 -33.333 45.333 -150.166 106 -350.499s107.334 -353.5 140.001 -459.5c35.333 106 86.5 258 153.5 456s106.833 316 119.5 354h179c12 -37.333 50.333 -155.5 115 -354.5s114.334 -351.167 149.001 -456.5c31.333 105.333 75.833 257 133.5 455
s92.167 316.667 103.5 356h179l-341 -1026h-173c-8.66699 26 -46.334 139.833 -113.001 341.5s-117.334 355.5 -152.001 461.5c-36 -106.667 -89.5 -259.834 -160.5 -459.501s-111.5 -314.167 -121.5 -343.5h-172zM528 1154l234 347h162l236 -347h-156l-162 218l-164 -218
h-150z" />
    <glyph glyph-name="Ycircumflex" unicode="&#x176;" horiz-adv-x="1239" 
d="M328 1584l234 347h162l236 -347h-156l-162 218l-164 -218h-150zM522 0v575l-501 881h212l389 -713l391 713h213l-512 -878v-578h-192z" />
    <glyph glyph-name="ycircumflex" unicode="&#x177;" horiz-adv-x="1065" 
d="M209 -433l-75 126c166 55.333 269 143 309 263l17 52l-419 1018h193l317 -820l297 820h185l-414 -1080c-36.667 -96.667 -90.167 -178 -160.5 -244s-153.5 -111 -249.5 -135zM238 1154l234 347h162l236 -347h-156l-162 218l-164 -218h-150z" />
    <glyph glyph-name="Ydieresis" unicode="&#x178;" horiz-adv-x="1239" 
d="M749 1612v189h186v-189h-186zM346 1612v189h187v-189h-187zM522 0v575l-501 881h212l389 -713l391 713h213l-512 -878v-578h-192z" />
    <glyph glyph-name="Zacute" unicode="&#x179;" horiz-adv-x="1184" 
d="M542 1602l236 360h237l-319 -360h-154zM97 0v103l738 1192h-707v161h963v-99l-744 -1196h740v-161h-990z" />
    <glyph glyph-name="zacute" unicode="&#x17a;" horiz-adv-x="969" 
d="M104 0v100l536 777h-520v149h757v-98l-535 -780h551v-148h-789zM438 1172l236 360h237l-319 -360h-154z" />
    <glyph glyph-name="Zdotaccent" unicode="&#x17b;" horiz-adv-x="1184" 
d="M514 1686v182h188v-182h-188zM97 0v103l738 1192h-707v161h963v-99l-744 -1196h740v-161h-990z" />
    <glyph glyph-name="zdotaccent" unicode="&#x17c;" horiz-adv-x="969" 
d="M104 0v100l536 777h-520v149h757v-98l-535 -780h551v-148h-789zM409 1256v182h188v-182h-188z" />
    <glyph glyph-name="Zcaron" unicode="&#x17d;" horiz-adv-x="1184" 
d="M529 1584l-247 351h164l162 -230l163 230h168l-246 -351h-164zM97 0v103l738 1192h-707v161h963v-99l-744 -1196h740v-161h-990z" />
    <glyph glyph-name="zcaron" unicode="&#x17e;" horiz-adv-x="969" 
d="M104 0v100l536 777h-520v149h757v-98l-535 -780h551v-148h-789zM425 1154l-247 351h164l162 -230l163 230h168l-246 -351h-164z" />
    <glyph glyph-name="longs" unicode="&#x17f;" horiz-adv-x="978" 
d="M518 -22c-88.667 0 -166.834 13.333 -234.501 40s-120.167 54.667 -157.5 84l51 137c38 -28 86.5 -53.333 145.5 -76s119.167 -34 180.5 -34c136 0 204 50 204 150c0 42 -15.333 73.333 -46 94s-90.334 46 -179.001 76l-88 30c-34 12 -62.833 23.333 -86.5 34
s-47.5 24.167 -71.5 40.5s-43.333 34 -58 53s-26.5 42 -35.5 69s-13.5 57.5 -13.5 91.5c0 48.667 10.167 91.834 30.5 129.501s48.166 67.334 83.499 89.001s74.333 38 117 49s88.667 16.5 138 16.5c135.333 0 249.333 -29.667 342 -89l-51 -132c-90 48 -180 72 -270 72
c-66 0 -117 -11.333 -153 -34s-54 -54.667 -54 -96c0 -37.333 10.833 -64.833 32.5 -82.5s64.834 -38.167 129.501 -61.5c58 -19.333 92.333 -31 103 -35c42 -14.667 75.667 -27.334 101 -38.001s52.5 -24.834 81.5 -42.501s51.333 -36.167 67 -55.5s28.667 -43.5 39 -72.5
s15.5 -61.833 15.5 -98.5c0 -54.667 -10.333 -102.5 -31 -143.5s-48.667 -73 -84 -96s-73.666 -40.167 -114.999 -51.5s-85.666 -17 -132.999 -17z" />
    <glyph glyph-name="florin" unicode="&#x192;" horiz-adv-x="1070" 
d="M201 -299c-29.333 0 -64.333 5.66602 -105 16.999l14 125c25.333 -6.66699 49 -10 71 -10c95.333 0 154.666 67 177.999 201l141 781h-153l22 120h152l35 191c6.66699 38 14.167 71.667 22.5 101s21 59.833 38 91.5s37 58 60 79s52.833 38.167 89.5 51.5
s78.334 20 125.001 20c26 0 52.333 -2.83301 79 -8.5s46.667 -11.167 60 -16.5l20 -9l-16 -122c-43.333 13.333 -82 20 -116 20c-52 0 -92 -14 -120 -42s-48 -72.667 -60 -134l-45 -222h214l-23 -120h-212l-131 -729c-9.33301 -54 -19.166 -99.5 -29.499 -136.5
s-24 -72.333 -41 -106s-37.167 -60.167 -60.5 -79.5s-52.333 -34.666 -87 -45.999s-75.334 -17 -122.001 -17z" />
    <glyph glyph-name="uni01C4" unicode="&#x1c4;" horiz-adv-x="2723" 
d="M2068 1584l-247 351h164l162 -230l163 230h168l-246 -351h-164zM1636 0v103l738 1192h-707v161h963v-99l-744 -1196h740v-161h-990zM202 0v1456h358c281.333 0 496.333 -59.667 645 -179s223 -303 223 -551c0 -232 -69 -411 -207 -537s-336.667 -189 -596 -189h-423z
M393 161h241.998c194.667 0 341.834 49.167 441.501 147.5s149.5 237.5 149.5 417.5c0 194 -53.167 337.333 -159.5 430s-269.166 139 -488.499 139h-185v-1134z" />
    <glyph glyph-name="uni01C5" unicode="&#x1c5;" horiz-adv-x="2508" 
d="M1643 0v100l536 777h-520v149h757v-98l-535 -780h551v-148h-789zM1964 1154l-247 351h164l162 -230l163 230h168l-246 -351h-164zM202 0v1456h358c281.333 0 496.333 -59.667 645 -179s223 -303 223 -551c0 -232 -69 -411 -207 -537s-336.667 -189 -596 -189h-423z
M393 161h241.998c194.667 0 341.834 49.167 441.501 147.5s149.5 237.5 149.5 417.5c0 194 -53.167 337.333 -159.5 430s-269.166 139 -488.499 139h-185v-1134z" />
    <glyph glyph-name="uni01C6" unicode="&#x1c6;" horiz-adv-x="2233" 
d="M1368 0v100l536 777h-520v149h757v-98l-535 -780h551v-148h-789zM1689 1154l-247 351h164l162 -230l163 230h168l-246 -351h-164zM597 128c100.667 0 178.332 35.667 232.999 107s82 167 82 287c0 112.667 -27.667 204.167 -83 274.5s-131.666 105.5 -228.999 105.5
s-173 -35.5 -227 -106.5s-81 -164.833 -81 -281.5c0 -116 26.333 -209.333 79 -280s128 -106 226 -106zM569.998 -22c-137.333 0 -249.835 48.499 -337.502 145.499s-131.5 225.833 -131.5 386.5c0 105.333 18.667 198.5 56 279.5s92.5 145 165.5 192
s158.833 70.5 257.5 70.5c78.667 0 147.334 -17.667 206.001 -53s99.334 -77.666 122.001 -126.999v614h185v-1220c0.666992 -61.333 3 -150 7 -266h-187l-4 174c-20.667 -53.333 -60.5 -99.333 -119.5 -138s-132.167 -58 -219.5 -58z" />
    <glyph glyph-name="uni01C7" unicode="&#x1c7;" horiz-adv-x="1895" 
d="M202 0v1456h191v-1295h677v-161h-868zM1338 -326c-73.333 0 -152 13.999 -236 41.999l27 150c70 -20.667 131.333 -31 184 -31c74 0 124.667 21.833 152 65.5s41 116.834 41 219.501v1336h191v-1335c0 -154 -30 -267 -90 -339s-149.667 -108 -269 -108z" />
    <glyph glyph-name="uni01C8" unicode="&#x1c8;" horiz-adv-x="1612" 
d="M1272 1277v179h183v-179h-183zM1130 -423c-42.667 0 -84.999 3.99902 -126.999 11.999v151c34.667 -8 64 -12 88 -12c62.667 0 109.5 25 140.5 75s46.5 127.667 46.5 233v990h174v-922c0 -37.333 -0.833008 -71.5 -2.5 -102.5s-5.16699 -65.167 -10.5 -102.5
s-12.5 -70.666 -21.5 -99.999s-21.667 -58.333 -38 -87s-35.5 -52.5 -57.5 -71.5s-49.333 -34.333 -82 -46s-69.334 -17.5 -110.001 -17.5zM202.001 -0.000976562v1456h191v-1295h677v-161h-868z" />
    <glyph glyph-name="uni01C9" unicode="&#x1c9;" horiz-adv-x="1029" 
d="M177 0v1486h184v-1486h-184zM689 1277v179h183v-179h-183zM547 -423c-42.667 0 -84.999 3.99902 -126.999 11.999v151c34.667 -8 64 -12 88 -12c62.667 0 109.5 25 140.5 75s46.5 127.667 46.5 233v990h174v-922c0 -37.333 -0.833008 -71.5 -2.5 -102.5
s-5.16699 -65.167 -10.5 -102.5s-12.5 -70.666 -21.5 -99.999s-21.667 -58.333 -38 -87s-35.5 -52.5 -57.5 -71.5s-49.333 -34.333 -82 -46s-69.334 -17.5 -110.001 -17.5z" />
    <glyph glyph-name="uni01CA" unicode="&#x1ca;" horiz-adv-x="2384" 
d="M202 0v1456h203l702 -1024l108 -170v1194h182v-1456h-204l-684 986l-128 200v-1186h-179zM1827 -326c-73.333 0 -152 13.999 -236 41.999l27 150c70 -20.667 131.333 -31 184 -31c74 0 124.667 21.833 152 65.5s41 116.834 41 219.501v1336h191v-1335
c0 -154 -30 -267 -90 -339s-149.667 -108 -269 -108z" />
    <glyph glyph-name="uni01CB" unicode="&#x1cb;" horiz-adv-x="2101" 
d="M1761 1277v179h183v-179h-183zM1619 -423c-42.667 0 -84.999 3.99902 -126.999 11.999v151c34.667 -8 64 -12 88 -12c62.667 0 109.5 25 140.5 75s46.5 127.667 46.5 233v990h174v-922c0 -37.333 -0.833008 -71.5 -2.5 -102.5s-5.16699 -65.167 -10.5 -102.5
s-12.5 -70.666 -21.5 -99.999s-21.667 -58.333 -38 -87s-35.5 -52.5 -57.5 -71.5s-49.333 -34.333 -82 -46s-69.334 -17.5 -110.001 -17.5zM202.001 -0.000976562v1456h203l702 -1024l108 -170v1194h182v-1456h-204l-684 986l-128 200v-1186h-179z" />
    <glyph glyph-name="uni01CC" unicode="&#x1cc;" horiz-adv-x="1747" 
d="M177 0l-0.00195312 742c0 45.333 -0.833008 91.666 -2.5 138.999s-3.5 83.333 -5.5 108l-3 37h190l2 -161c35.333 58.667 84.833 104.5 148.5 137.5s130.834 49.5 201.501 49.5c129.333 0 224.666 -39.167 285.999 -117.5s92 -197.166 92 -356.499v-578h-184v577
c0 111.333 -16.667 193.333 -50 246s-92 79 -176 79c-77.333 0 -147.666 -26.167 -210.999 -78.5s-97.666 -112.5 -102.999 -180.5v-643h-185zM1407 1277v179h183v-179h-183zM1265 -423c-42.667 0 -84.999 3.99902 -126.999 11.999v151c34.667 -8 64 -12 88 -12
c62.667 0 109.5 25 140.5 75s46.5 127.667 46.5 233v990h174v-922c0 -37.333 -0.833008 -71.5 -2.5 -102.5s-5.16699 -65.167 -10.5 -102.5s-12.5 -70.666 -21.5 -99.999s-21.667 -58.333 -38 -87s-35.5 -52.5 -57.5 -71.5s-49.333 -34.333 -82 -46
s-69.334 -17.5 -110.001 -17.5z" />
    <glyph glyph-name="uni01CD" unicode="&#x1cd;" 
d="M618 1584l-247 351h164l162 -230l163 230h168l-246 -351h-164zM438 545h514c-84.667 239.333 -170 476.333 -256 711c-86.667 -238 -172.667 -475 -258 -711zM31 0l565 1456h204l568 -1456h-209l-150 389h-623l-147 -389h-208z" />
    <glyph glyph-name="uni01CE" unicode="&#x1ce;" horiz-adv-x="1273" 
d="M512 1154l-247 351h164l162 -230l163 230h168l-246 -351h-164zM615 128c102 0 179.834 35.501 233.501 106.501s80.5 166.5 80.5 286.5c0 113.333 -27.333 205.166 -82 275.499s-132.667 105.5 -234 105.5c-106.667 0 -187.834 -35.333 -243.501 -106
s-83.5 -163.334 -83.5 -278.001c0 -115.333 28 -209.166 84 -281.499s137.667 -108.5 245 -108.5zM589.001 -21.999c-76.667 0 -146.17 14.332 -208.503 42.999s-113.666 67.5 -153.999 116.5s-71.333 105.667 -93 170s-32.5 132.833 -32.5 205.5
c0 100 19.5 190.5 58.5 271.5s95.833 145.833 170.5 194.5s161 73 259 73c72.667 0 138.834 -17.667 198.501 -53s104.834 -80.666 135.501 -135.999v163h182v-1026h-184v175c-29.333 -61.333 -73 -109.5 -131 -144.5s-125 -52.5 -201 -52.5z" />
    <glyph glyph-name="uni01CF" unicode="&#x1cf;" horiz-adv-x="602" 
d="M240 1584l-247 351h164l162 -230l163 230h168l-246 -351h-164zM218 0v1456h191v-1456h-191z" />
    <glyph glyph-name="uni01D0" unicode="&#x1d0;" horiz-adv-x="534" 
d="M177 0l-1 1026h185l1 -1026h-185zM187 1154l-247 351h164l162 -230l163 230h168l-246 -351h-164z" />
    <glyph glyph-name="uni01D1" unicode="&#x1d1;" horiz-adv-x="1626" 
d="M736 1584l-247 351h164l162 -230l163 230h168l-246 -351h-164zM816 -22c-220 0 -393.167 67.666 -519.5 202.999s-189.5 318 -189.5 548c0 148.667 27.833 279.5 83.5 392.5s137.5 201.333 245.5 265s235.333 95.5 382 95.5c214 0 384.5 -69.167 511.5 -207.5
s190.5 -320.166 190.5 -545.499c0 -229.333 -62.667 -411.833 -188 -547.5s-297.333 -203.5 -516 -203.5zM814 138.999c162.667 0 286.333 52.5 371 157.5s127 249.167 127 432.5c0 179.333 -42.5 322.833 -127.5 430.5s-207.833 161.5 -368.5 161.5
c-160 0 -284.167 -54.167 -372.5 -162.5s-132.5 -251.5 -132.5 -429.5c0 -182.667 43.333 -326.667 130 -432s211 -158 373 -158z" />
    <glyph glyph-name="uni01D2" unicode="&#x1d2;" horiz-adv-x="1258" 
d="M631 -22c-166 0 -295.833 49.334 -389.5 148.001s-140.5 227.334 -140.5 386.001c0 161.333 47.167 291.666 141.5 390.999s224.5 149 390.5 149c165.333 0 294 -49.5 386 -148.5s138 -229.5 138 -391.5c0 -158.667 -46.667 -287.334 -140 -386.001s-222 -148 -386 -148z
M631 128.001c108 0 190.5 35 247.5 105s85.5 163 85.5 279c0 118 -28.833 212.5 -86.5 283.5s-140.167 106.5 -247.5 106.5c-108 0 -191 -35.5 -249 -106.5s-87 -165.5 -87 -283.5c0 -116 28.833 -209 86.5 -279s141.167 -105 250.5 -105zM552 1154l-247 351h164l162 -230
l163 230h168l-246 -351h-164z" />
    <glyph glyph-name="uni01D3" unicode="&#x1d3;" horiz-adv-x="1495" 
d="M666 1584l-247 351h164l162 -230l163 230h168l-246 -351h-164zM744 -22c-382.667 0 -574 194.001 -574 582.001v896h191v-900c0 -142.667 32.333 -247.834 97 -315.501s160.667 -101.5 288 -101.5c257.333 0 386 137.667 386 413v904h190v-894
c0 -88.667 -10.667 -167.667 -32 -237s-54.333 -130.5 -99 -183.5s-104.667 -93.5 -180 -121.5s-164.333 -42 -267 -42z" />
    <glyph glyph-name="uni01D4" unicode="&#x1d4;" horiz-adv-x="1235" 
d="M555 -23c-131.333 0 -229.999 37.501 -295.999 112.501s-99 175.833 -99 302.5v634h183v-634c0 -88 20.833 -154.167 62.5 -198.5s101.834 -66.5 180.501 -66.5c90 0 160.333 25.667 211 77s76 117.666 76 198.999v623h184v-772c0 -91.333 3 -176 9 -254h-187l-5 165
c-28.667 -52.667 -69.334 -97.167 -122.001 -133.5s-118.334 -54.5 -197.001 -54.5zM527.001 1154l-247 351h164l162 -230l163 230h168l-246 -351h-164z" />
    <glyph glyph-name="uni01E2" unicode="&#x1e2;" horiz-adv-x="2062" 
d="M1077 1672v124h584v-124h-584zM546 548h523l-55 743h-48zM25 0l844 1456h1018v-165h-689l39 -462h618v-158h-602l46 -508h613v-163h-794l-35 401h-612l-228 -401h-218z" />
    <glyph glyph-name="uni01E3" unicode="&#x1e3;" horiz-adv-x="1791" 
d="M629 1242v124h584v-124h-584zM978 612h553.001l-2 16c-8 82 -35.333 148.667 -82 200s-108.334 77 -185.001 77c-81.333 0 -146.5 -28.167 -195.5 -84.5s-78.5 -125.833 -88.5 -208.5zM482.001 126c53.333 0 100.329 10.001 140.996 30.001s72.834 47.167 96.501 81.5
s41.334 72.333 53.001 114s17.834 86.167 18.501 133.5h-153c-55.333 0 -104.166 -3 -146.499 -9s-80.833 -15.833 -115.5 -29.5s-61.167 -33.334 -79.5 -59.001s-27.5 -56.834 -27.5 -93.501c0 -57.333 20 -99.666 60 -126.999s91 -41 153 -41zM1285 -21.999
c-92.667 0 -174.498 21.999 -245.498 65.999s-123.833 104.667 -158.5 182c-34.667 -74 -88.167 -134.167 -160.5 -180.5s-156.5 -69.5 -252.5 -69.5c-114.667 0 -207 27.5 -277 82.5s-105 130.5 -105 226.5c0 46.667 6.5 87.834 19.5 123.501s33 65.5 60 89.5
s57.833 43.833 92.5 59.5s77.334 27.667 128.001 36s101.834 14 153.501 17s112.167 4.5 181.5 4.5h68c0 87.333 -22.333 157.333 -67 210s-108.334 79 -191.001 79c-98 0 -205.333 -27.333 -322 -82l-55 130c121.333 67.333 255.666 101 402.999 101
c47.333 0 93.333 -7.83301 138 -23.5s85.5 -40 122.5 -73s63.833 -71.833 80.5 -116.5c38 66 88 118 150 156s132 57 210 57c92.667 0 172 -22.667 238 -68s115.333 -107.333 148 -186s49 -170.667 49 -276l-2 -37h-714v-27c5.33301 -152 59.666 -252.333 162.999 -301
c44 -20 95 -30 153 -30c24.667 0 49.667 2 75 6s48 9.33301 68 16s39.333 13.834 58 21.501s34.667 15.5 48 23.5s25.166 15.333 35.499 22s17.833 12 22.5 16l8 6l54 -134c-4 -3.33301 -9.5 -7.83301 -16.5 -13.5s-22.667 -15.834 -47 -30.501s-50.166 -27.667 -77.499 -39
s-62.333 -21.5 -105 -30.5s-86.334 -13.5 -131.001 -13.5z" />
    <glyph glyph-name="Gcaron" unicode="&#x1e6;" horiz-adv-x="1527" 
d="M752 1584l-247 351h164l162 -230l163 230h168l-246 -351h-164zM844 -22c-156.667 0 -290.668 30.1689 -402.001 90.502s-194.833 144.666 -250.5 252.999s-83.5 235.833 -83.5 382.5c0 149.333 31.5 283 94.5 401s151.833 210.333 266.5 277s245.334 100 392.001 100
c188.667 0 348.334 -48.667 479.001 -146l-77 -133c-115.333 78.667 -248 118 -398 118c-110.667 0 -208.667 -26.333 -294 -79s-150.833 -125.167 -196.5 -217.5s-68.5 -196.5 -68.5 -312.5c0 -174.667 46.667 -313.834 140 -417.501s228.666 -155.5 405.999 -155.5
c120.667 0 226.667 17.333 318 52v412h-368v163h558v-682c-154.667 -70.667 -326.667 -106 -516 -106z" />
    <glyph glyph-name="gcaron" unicode="&#x1e7;" horiz-adv-x="1267" 
d="M594 158c104 0 183 33.834 237 101.501s81 158.5 81 272.5c0 112.667 -26.833 202.5 -80.5 269.5s-128.5 100.5 -224.5 100.5c-98 0 -175 -35.333 -231 -106s-84 -163.334 -84 -278.001c0 -114 26.333 -202.5 79 -265.5s127 -94.5 223 -94.5zM571 -417.999
c-134.667 0 -260.999 29 -378.999 87l29 159c113.333 -64.667 227.666 -97 342.999 -97c109.333 0 194 29.333 254 88s90 147.334 90 266.001v107c-28.667 -51.333 -70.167 -93.833 -124.5 -127.5s-121.166 -50.5 -200.499 -50.5c-142 0 -257.833 45.167 -347.5 135.5
s-134.5 212.5 -134.5 366.5c0 104.667 18.167 197 54.5 277s91.166 143.167 164.499 189.5s160.666 69.5 261.999 69.5c78 0 144.333 -16.667 199 -50s97 -76 127 -128l3 152h190c-7.33301 -110.667 -11 -202.667 -11 -276v-610c0 -81.333 -10 -155.333 -30 -222
s-50.5 -125.334 -91.5 -176.001s-95.167 -90 -162.5 -118s-145.666 -42 -234.999 -42zM471.001 1154l-247 351h164l162 -230l163 230h168l-246 -351h-164z" />
    <glyph glyph-name="uni01E8" unicode="&#x1e8;" horiz-adv-x="1295" 
d="M590 1584l-247 351h164l162 -230l163 230h168l-246 -351h-164zM202 0v1456h191v-656l627 656h237l-673 -701l721 -755h-242l-670 692v-692h-191z" />
    <glyph glyph-name="uni01E9" unicode="&#x1e9;" horiz-adv-x="1111" 
d="M174 0v1486h184v-899l445 439h252l-520 -489l556 -537h-244l-489 485v-485h-184zM615 1154l-247 351h164l162 -230l163 230h168l-246 -351h-164z" />
    <glyph glyph-name="uni01EA" unicode="&#x1ea;" horiz-adv-x="1626" 
d="M851 -424c-66.667 0 -122.166 15.166 -166.499 45.499s-66.5 73.166 -66.5 128.499c0 52.667 21.667 102.334 65 149.001s94 85.334 152 116.001l105 -5c-46 -30 -84.5 -67.5 -115.5 -112.5s-46.5 -84.5 -46.5 -118.5c0 -27.333 9.5 -48.5 28.5 -63.5
s47.5 -22.5 85.5 -22.5c33.333 0 77.666 7.66699 132.999 23v-112c-59.333 -18.667 -117.333 -28 -174 -28zM816.001 -22.001c-220 0 -393.167 67.666 -519.5 202.999s-189.5 318 -189.5 548c0 148.667 27.833 279.5 83.5 392.5s137.5 201.333 245.5 265
s235.333 95.5 382 95.5c214 0 384.5 -69.167 511.5 -207.5s190.5 -320.166 190.5 -545.499c0 -229.333 -62.667 -411.833 -188 -547.5s-297.333 -203.5 -516 -203.5zM814.001 138.998c162.667 0 286.333 52.5 371 157.5s127 249.167 127 432.5
c0 179.333 -42.5 322.833 -127.5 430.5s-207.833 161.5 -368.5 161.5c-160 0 -284.167 -54.167 -372.5 -162.5s-132.5 -251.5 -132.5 -429.5c0 -182.667 43.333 -326.667 130 -432s211 -158 373 -158z" />
    <glyph glyph-name="uni01EB" unicode="&#x1eb;" horiz-adv-x="1258" 
d="M621 -424c-66.667 0 -122.166 15.166 -166.499 45.499s-66.5 73.166 -66.5 128.499c0 52.667 21.667 102.334 65 149.001s94 85.334 152 116.001l105 -5c-46 -30 -84.5 -67.5 -115.5 -112.5s-46.5 -84.5 -46.5 -118.5c0 -27.333 9.5 -48.5 28.5 -63.5
s47.5 -22.5 85.5 -22.5c33.333 0 77.666 7.66699 132.999 23v-112c-59.333 -18.667 -117.333 -28 -174 -28zM631.001 -22.001c-166 0 -295.833 49.334 -389.5 148.001s-140.5 227.334 -140.5 386.001c0 161.333 47.167 291.666 141.5 390.999s224.5 149 390.5 149
c165.333 0 294 -49.5 386 -148.5s138 -229.5 138 -391.5c0 -158.667 -46.667 -287.334 -140 -386.001s-222 -148 -386 -148zM631.001 128c108 0 190.5 35 247.5 105s85.5 163 85.5 279c0 118 -28.833 212.5 -86.5 283.5s-140.167 106.5 -247.5 106.5
c-108 0 -191 -35.5 -249 -106.5s-87 -165.5 -87 -283.5c0 -116 28.833 -209 86.5 -279s141.167 -105 250.5 -105z" />
    <glyph glyph-name="uni01F0" unicode="&#x1f0;" horiz-adv-x="503" 
d="M21 -423c-42.667 0 -84.999 3.99902 -126.999 11.999v151c34.667 -8 64 -12 88 -12c62.667 0 109.5 25 140.5 75s46.5 127.667 46.5 233v990h174v-922c0 -37.333 -0.833008 -71.5 -2.5 -102.5s-5.16699 -65.167 -10.5 -102.5s-12.5 -70.666 -21.5 -99.999
s-21.667 -58.333 -38 -87s-35.5 -52.5 -57.5 -71.5s-49.333 -34.333 -82 -46s-69.334 -17.5 -110.001 -17.5zM178.001 1154l-247 351h164l162 -230l163 230h168l-246 -351h-164z" />
    <glyph glyph-name="uni01F1" unicode="&#x1f1;" horiz-adv-x="2724" 
d="M1636 0v103l738 1192h-707v161h963v-99l-744 -1196h740v-161h-990zM202 0v1456h358c281.333 0 496.333 -59.667 645 -179s223 -303 223 -551c0 -232 -69 -411 -207 -537s-336.667 -189 -596 -189h-423zM393 161h241.998c194.667 0 341.834 49.167 441.501 147.5
s149.5 237.5 149.5 417.5c0 194 -53.167 337.333 -159.5 430s-269.166 139 -488.499 139h-185v-1134z" />
    <glyph glyph-name="uni01F2" unicode="&#x1f2;" horiz-adv-x="2508" 
d="M1643 0v100l536 777h-520v149h757v-98l-535 -780h551v-148h-789zM202 0v1456h358c281.333 0 496.333 -59.667 645 -179s223 -303 223 -551c0 -232 -69 -411 -207 -537s-336.667 -189 -596 -189h-423zM393 161h241.998c194.667 0 341.834 49.167 441.501 147.5
s149.5 237.5 149.5 417.5c0 194 -53.167 337.333 -159.5 430s-269.166 139 -488.499 139h-185v-1134z" />
    <glyph glyph-name="uni01F3" unicode="&#x1f3;" horiz-adv-x="2233" 
d="M1368 0v100l536 777h-520v149h757v-98l-535 -780h551v-148h-789zM597 128c100.667 0 178.332 35.667 232.999 107s82 167 82 287c0 112.667 -27.667 204.167 -83 274.5s-131.666 105.5 -228.999 105.5s-173 -35.5 -227 -106.5s-81 -164.833 -81 -281.5
c0 -116 26.333 -209.333 79 -280s128 -106 226 -106zM569.998 -22c-137.333 0 -249.835 48.499 -337.502 145.499s-131.5 225.833 -131.5 386.5c0 105.333 18.667 198.5 56 279.5s92.5 145 165.5 192s158.833 70.5 257.5 70.5c78.667 0 147.334 -17.667 206.001 -53
s99.334 -77.666 122.001 -126.999v614h185v-1220c0.666992 -61.333 3 -150 7 -266h-187l-4 174c-20.667 -53.333 -60.5 -99.333 -119.5 -138s-132.167 -58 -219.5 -58z" />
    <glyph glyph-name="uni01F4" unicode="&#x1f4;" horiz-adv-x="1527" 
d="M765 1602l236 360h237l-319 -360h-154zM844 -22c-156.667 0 -290.668 30.1689 -402.001 90.502s-194.833 144.666 -250.5 252.999s-83.5 235.833 -83.5 382.5c0 149.333 31.5 283 94.5 401s151.833 210.333 266.5 277s245.334 100 392.001 100
c188.667 0 348.334 -48.667 479.001 -146l-77 -133c-115.333 78.667 -248 118 -398 118c-110.667 0 -208.667 -26.333 -294 -79s-150.833 -125.167 -196.5 -217.5s-68.5 -196.5 -68.5 -312.5c0 -174.667 46.667 -313.834 140 -417.501s228.666 -155.5 405.999 -155.5
c120.667 0 226.667 17.333 318 52v412h-368v163h558v-682c-154.667 -70.667 -326.667 -106 -516 -106z" />
    <glyph glyph-name="uni01F5" unicode="&#x1f5;" horiz-adv-x="1267" 
d="M594 158c104 0 183 33.834 237 101.501s81 158.5 81 272.5c0 112.667 -26.833 202.5 -80.5 269.5s-128.5 100.5 -224.5 100.5c-98 0 -175 -35.333 -231 -106s-84 -163.334 -84 -278.001c0 -114 26.333 -202.5 79 -265.5s127 -94.5 223 -94.5zM571 -417.999
c-134.667 0 -260.999 29 -378.999 87l29 159c113.333 -64.667 227.666 -97 342.999 -97c109.333 0 194 29.333 254 88s90 147.334 90 266.001v107c-28.667 -51.333 -70.167 -93.833 -124.5 -127.5s-121.166 -50.5 -200.499 -50.5c-142 0 -257.833 45.167 -347.5 135.5
s-134.5 212.5 -134.5 366.5c0 104.667 18.167 197 54.5 277s91.166 143.167 164.499 189.5s160.666 69.5 261.999 69.5c78 0 144.333 -16.667 199 -50s97 -76 127 -128l3 152h190c-7.33301 -110.667 -11 -202.667 -11 -276v-610c0 -81.333 -10 -155.333 -30 -222
s-50.5 -125.334 -91.5 -176.001s-95.167 -90 -162.5 -118s-145.666 -42 -234.999 -42zM484.001 1172l236 360h237l-319 -360h-154z" />
    <glyph glyph-name="uni01F8" unicode="&#x1f8;" horiz-adv-x="1598" 
d="M729 1603l-337 360h240l250 -360h-153zM202 0v1456h203l702 -1024l108 -170v1194h182v-1456h-204l-684 986l-128 200v-1186h-179z" />
    <glyph glyph-name="uni01F9" unicode="&#x1f9;" horiz-adv-x="1244" 
d="M177 0l-0.00195312 742c0 45.333 -0.833008 91.666 -2.5 138.999s-3.5 83.333 -5.5 108l-3 37h190l2 -161c35.333 58.667 84.833 104.5 148.5 137.5s130.834 49.5 201.501 49.5c129.333 0 224.666 -39.167 285.999 -117.5s92 -197.166 92 -356.499v-578h-184v577
c0 111.333 -16.667 193.333 -50 246s-92 79 -176 79c-77.333 0 -147.666 -26.167 -210.999 -78.5s-97.666 -112.5 -102.999 -180.5v-643h-185zM604.998 1173l-337 360h240l250 -360h-153z" />
    <glyph glyph-name="Aringacute" unicode="&#x1fa;" 
d="M698 1567c-56.667 0 -104.334 18.667 -143.001 56s-58 83.666 -58 138.999c0 56 19.333 102.5 58 139.5s86.334 55.5 143.001 55.5s104.334 -18.5 143.001 -55.5s58 -83.5 58 -139.5c0 -55.333 -19.333 -101.666 -58 -138.999s-86.334 -56 -143.001 -56zM697 1652
c29.333 0 54.333 10.667 75 32s31 47.333 31 78s-10.333 56.667 -31 78s-45.667 32 -75 32s-54.333 -10.667 -75 -32s-31 -47.333 -31 -78s10.333 -56.667 31 -78s45.667 -32 75 -32zM630 2052l236 360h237l-319 -360h-154zM438 545h514
c-84.667 239.333 -170 476.333 -256 711c-86.667 -238 -172.667 -475 -258 -711zM31 0l565 1456h204l568 -1456h-209l-150 389h-623l-147 -389h-208z" />
    <glyph glyph-name="aringacute" unicode="&#x1fb;" horiz-adv-x="1273" 
d="M592 1137c-56.667 0 -104.334 18.667 -143.001 56s-58 83.666 -58 138.999c0 56 19.333 102.5 58 139.5s86.334 55.5 143.001 55.5s104.334 -18.5 143.001 -55.5s58 -83.5 58 -139.5c0 -55.333 -19.333 -101.666 -58 -138.999s-86.334 -56 -143.001 -56zM591 1222
c29.333 0 54.333 10.667 75 32s31 47.333 31 78s-10.333 56.667 -31 78s-45.667 32 -75 32s-54.333 -10.667 -75 -32s-31 -47.333 -31 -78s10.333 -56.667 31 -78s45.667 -32 75 -32zM524 1622l236 360h237l-319 -360h-154zM615 128c102 0 179.834 35.501 233.501 106.501
s80.5 166.5 80.5 286.5c0 113.333 -27.333 205.166 -82 275.499s-132.667 105.5 -234 105.5c-106.667 0 -187.834 -35.333 -243.501 -106s-83.5 -163.334 -83.5 -278.001c0 -115.333 28 -209.166 84 -281.499s137.667 -108.5 245 -108.5zM589.001 -21.999
c-76.667 0 -146.17 14.332 -208.503 42.999s-113.666 67.5 -153.999 116.5s-71.333 105.667 -93 170s-32.5 132.833 -32.5 205.5c0 100 19.5 190.5 58.5 271.5s95.833 145.833 170.5 194.5s161 73 259 73c72.667 0 138.834 -17.667 198.501 -53
s104.834 -80.666 135.501 -135.999v163h182v-1026h-184v175c-29.333 -61.333 -73 -109.5 -131 -144.5s-125 -52.5 -201 -52.5z" />
    <glyph glyph-name="AEacute" unicode="&#x1fc;" horiz-adv-x="2062" 
d="M1282 1602l236 360h237l-319 -360h-154zM546 548h523l-55 743h-48zM25 0l844 1456h1018v-165h-689l39 -462h618v-158h-602l46 -508h613v-163h-794l-35 401h-612l-228 -401h-218z" />
    <glyph glyph-name="aeacute" unicode="&#x1fd;" horiz-adv-x="1791" 
d="M978 612h553.001l-2 16c-8 82 -35.333 148.667 -82 200s-108.334 77 -185.001 77c-81.333 0 -146.5 -28.167 -195.5 -84.5s-78.5 -125.833 -88.5 -208.5zM482.001 126c53.333 0 100.329 10.001 140.996 30.001s72.834 47.167 96.501 81.5s41.334 72.333 53.001 114
s17.834 86.167 18.501 133.5h-153c-55.333 0 -104.166 -3 -146.499 -9s-80.833 -15.833 -115.5 -29.5s-61.167 -33.334 -79.5 -59.001s-27.5 -56.834 -27.5 -93.501c0 -57.333 20 -99.666 60 -126.999s91 -41 153 -41zM1285 -21.999
c-92.667 0 -174.498 21.999 -245.498 65.999s-123.833 104.667 -158.5 182c-34.667 -74 -88.167 -134.167 -160.5 -180.5s-156.5 -69.5 -252.5 -69.5c-114.667 0 -207 27.5 -277 82.5s-105 130.5 -105 226.5c0 46.667 6.5 87.834 19.5 123.501s33 65.5 60 89.5
s57.833 43.833 92.5 59.5s77.334 27.667 128.001 36s101.834 14 153.501 17s112.167 4.5 181.5 4.5h68c0 87.333 -22.333 157.333 -67 210s-108.334 79 -191.001 79c-98 0 -205.333 -27.333 -322 -82l-55 130c121.333 67.333 255.666 101 402.999 101
c47.333 0 93.333 -7.83301 138 -23.5s85.5 -40 122.5 -73s63.833 -71.833 80.5 -116.5c38 66 88 118 150 156s132 57 210 57c92.667 0 172 -22.667 238 -68s115.333 -107.333 148 -186s49 -170.667 49 -276l-2 -37h-714v-27c5.33301 -152 59.666 -252.333 162.999 -301
c44 -20 95 -30 153 -30c24.667 0 49.667 2 75 6s48 9.33301 68 16s39.333 13.834 58 21.501s34.667 15.5 48 23.5s25.166 15.333 35.499 22s17.833 12 22.5 16l8 6l54 -134c-4 -3.33301 -9.5 -7.83301 -16.5 -13.5s-22.667 -15.834 -47 -30.501s-50.166 -27.667 -77.499 -39
s-62.333 -21.5 -105 -30.5s-86.334 -13.5 -131.001 -13.5zM833.999 1172l236 360h237l-319 -360h-154z" />
    <glyph glyph-name="Oslashacute" unicode="&#x1fe;" horiz-adv-x="1626" 
d="M749 1602l236 360h237l-319 -360h-154zM816 -22c218.667 0 390.665 67.834 515.998 203.501s188 318.167 188 547.5c0 93.333 -11.667 180.666 -35 261.999s-57.166 153.5 -101.499 216.5s-97.833 115.833 -160.5 158.5l85 159l-92 47l-83 -155
c-46 21.333 -95.5 37.5 -148.5 48.5s-108.5 16.5 -166.5 16.5c-146.667 0 -274 -31.833 -382 -95.5s-189.833 -152 -245.5 -265s-83.5 -243.833 -83.5 -392.5c0 -147.333 26.833 -276.5 80.5 -387.5s130.5 -197.833 230.5 -260.5l-88 -164l93 -48l88 165
c90.667 -37.333 192.334 -56 305.001 -56zM1139 1208c56.667 -51.333 99.667 -118 129 -200s44 -175 44 -279c0 -183.333 -42.333 -327.5 -127 -432.5s-208.334 -157.5 -371.001 -157.5c-83.333 0 -157.666 14.667 -222.999 44zM1053 1268l-551.002 -1030
c-62.667 50 -110.167 116.833 -142.5 200.5s-48.5 180.5 -48.5 290.5c0 178 44.167 321.167 132.5 429.5s212.5 162.5 372.5 162.5c22.667 0 44.834 -1.16699 66.501 -3.5s42.334 -5.83301 62.001 -10.5s38.5 -10.167 56.5 -16.5s35.333 -13.833 52 -22.5z" />
    <glyph glyph-name="oslashacute" unicode="&#x1ff;" horiz-adv-x="1254" 
d="M631 -22c164 0 292.667 49.3311 386 147.998s140 227.334 140 386.001c0 55.333 -5.66699 107.5 -17 156.5s-27.833 94.167 -49.5 135.5s-49 78.166 -82 110.499s-70.5 59.166 -112.5 80.499l88 194l-88 38l-89 -198c-26.667 8 -54.5 13.833 -83.5 17.5
s-59.167 5.5 -90.5 5.5c-166 0 -296.167 -49.667 -390.5 -149s-141.5 -229.666 -141.5 -390.999c0 -107.333 22.167 -202.166 66.5 -284.499s107.833 -145.166 190.5 -188.499l-97 -215l87 -38l99 218c56 -17.333 117.333 -26 184 -26zM827 842.998
c44.667 -33.333 78.667 -78.333 102 -135s35 -122 35 -196c0 -116 -28.5 -209 -85.5 -279s-139.5 -105 -247.5 -105c-22 0 -43 1.5 -63 4.5s-39 7.5 -57 13.5zM742 885.998l-315 -695.999c-44 32.667 -77.167 76.667 -99.5 132s-33.5 118.666 -33.5 189.999
c0 118 29 212.5 87 283.5s141 106.5 249 106.5c40 0 77.333 -5.33301 112 -16zM565 1172l236 360h237l-319 -360h-154z" />
    <glyph glyph-name="uni0200" unicode="&#x200;" 
d="M826 1604l-283 393h180l225 -393h-122zM484 1604l-308 393h180l252 -393h-124zM438 545h514c-84.667 239.333 -170 476.333 -256 711c-86.667 -238 -172.667 -475 -258 -711zM31 0l565 1456h204l568 -1456h-209l-150 389h-623l-147 -389h-208z" />
    <glyph glyph-name="uni0201" unicode="&#x201;" horiz-adv-x="1273" 
d="M720 1174l-283 393h180l225 -393h-122zM378 1174l-308 393h180l252 -393h-124zM615 128c102 0 179.834 35.501 233.501 106.501s80.5 166.5 80.5 286.5c0 113.333 -27.333 205.166 -82 275.499s-132.667 105.5 -234 105.5c-106.667 0 -187.834 -35.333 -243.501 -106
s-83.5 -163.334 -83.5 -278.001c0 -115.333 28 -209.166 84 -281.499s137.667 -108.5 245 -108.5zM589.001 -21.999c-76.667 0 -146.17 14.332 -208.503 42.999s-113.666 67.5 -153.999 116.5s-71.333 105.667 -93 170s-32.5 132.833 -32.5 205.5
c0 100 19.5 190.5 58.5 271.5s95.833 145.833 170.5 194.5s161 73 259 73c72.667 0 138.834 -17.667 198.501 -53s104.834 -80.666 135.501 -135.999v163h182v-1026h-184v175c-29.333 -61.333 -73 -109.5 -131 -144.5s-125 -52.5 -201 -52.5z" />
    <glyph glyph-name="uni0202" unicode="&#x202;" 
d="M693 1870c86.667 0 153.167 -21 199.5 -63s72.5 -107.667 78.5 -197h-131c-3.33301 46.667 -17.333 79.667 -42 99s-59.667 29 -105 29c-43.333 0 -77 -9.83301 -101 -29.5s-38.333 -52.5 -43 -98.5h-129c11.333 173.333 102.333 260 273 260zM438 545h514
c-84.667 239.333 -170 476.333 -256 711c-86.667 -238 -172.667 -475 -258 -711zM31 0l565 1456h204l568 -1456h-209l-150 389h-623l-147 -389h-208z" />
    <glyph glyph-name="uni0203" unicode="&#x203;" horiz-adv-x="1273" 
d="M587 1440c86.667 0 153.167 -21 199.5 -63s72.5 -107.667 78.5 -197h-131c-3.33301 46.667 -17.333 79.667 -42 99s-59.667 29 -105 29c-43.333 0 -77 -9.83301 -101 -29.5s-38.333 -52.5 -43 -98.5h-129c11.333 173.333 102.333 260 273 260zM615 128
c102 0 179.834 35.501 233.501 106.501s80.5 166.5 80.5 286.5c0 113.333 -27.333 205.166 -82 275.499s-132.667 105.5 -234 105.5c-106.667 0 -187.834 -35.333 -243.501 -106s-83.5 -163.334 -83.5 -278.001c0 -115.333 28 -209.166 84 -281.499
s137.667 -108.5 245 -108.5zM589.001 -21.999c-76.667 0 -146.17 14.332 -208.503 42.999s-113.666 67.5 -153.999 116.5s-71.333 105.667 -93 170s-32.5 132.833 -32.5 205.5c0 100 19.5 190.5 58.5 271.5s95.833 145.833 170.5 194.5s161 73 259 73
c72.667 0 138.834 -17.667 198.501 -53s104.834 -80.666 135.501 -135.999v163h182v-1026h-184v175c-29.333 -61.333 -73 -109.5 -131 -144.5s-125 -52.5 -201 -52.5z" />
    <glyph glyph-name="uni0204" unicode="&#x204;" horiz-adv-x="1205" 
d="M772 1604l-283 393h180l225 -393h-122zM430 1604l-308 393h180l252 -393h-124zM202 0v1456h872v-161h-681v-458h643v-162h-643v-514h710v-161h-901z" />
    <glyph glyph-name="uni0205" unicode="&#x205;" horiz-adv-x="1166" 
d="M718 1174l-283 393h180l225 -393h-122zM376 1174l-308 393h180l252 -393h-124zM296 613h588.999c-6.66699 94 -34 166.333 -82 217s-112 76 -192 76c-84 0 -154.167 -26 -210.5 -78s-91.166 -123.667 -104.499 -215zM633.999 -22
c-163.333 0 -293.001 48.501 -389.001 145.501s-144 225.833 -144 386.5c0 158 46.167 287.833 138.5 389.5s214.5 152.5 366.5 152.5c96 0 178.167 -22.333 246.5 -67s119 -105.334 152 -182.001s49.5 -165.667 49.5 -267c0 -12.667 -1 -29 -3 -49h-760
c2 -114.667 35 -203.167 99 -265.5s148.667 -93.5 254 -93.5c122.667 0 231.334 38 326.001 114l55 -136c-110 -85.333 -240.333 -128 -391 -128z" />
    <glyph glyph-name="uni0206" unicode="&#x206;" horiz-adv-x="1205" 
d="M640 1870c86.667 0 153.167 -21 199.5 -63s72.5 -107.667 78.5 -197h-131c-3.33301 46.667 -17.333 79.667 -42 99s-59.667 29 -105 29c-43.333 0 -77 -9.83301 -101 -29.5s-38.333 -52.5 -43 -98.5h-129c11.333 173.333 102.333 260 273 260zM202 0v1456h872v-161h-681
v-458h643v-162h-643v-514h710v-161h-901z" />
    <glyph glyph-name="uni0207" unicode="&#x207;" horiz-adv-x="1166" 
d="M585 1440c86.667 0 153.167 -21 199.5 -63s72.5 -107.667 78.5 -197h-131c-3.33301 46.667 -17.333 79.667 -42 99s-59.667 29 -105 29c-43.333 0 -77 -9.83301 -101 -29.5s-38.333 -52.5 -43 -98.5h-129c11.333 173.333 102.333 260 273 260zM296 613h588.999
c-6.66699 94 -34 166.333 -82 217s-112 76 -192 76c-84 0 -154.167 -26 -210.5 -78s-91.166 -123.667 -104.499 -215zM633.999 -22c-163.333 0 -293.001 48.501 -389.001 145.501s-144 225.833 -144 386.5c0 158 46.167 287.833 138.5 389.5s214.5 152.5 366.5 152.5
c96 0 178.167 -22.333 246.5 -67s119 -105.334 152 -182.001s49.5 -165.667 49.5 -267c0 -12.667 -1 -29 -3 -49h-760c2 -114.667 35 -203.167 99 -265.5s148.667 -93.5 254 -93.5c122.667 0 231.334 38 326.001 114l55 -136c-110 -85.333 -240.333 -128 -391 -128z" />
    <glyph glyph-name="uni0208" unicode="&#x208;" horiz-adv-x="602" 
d="M448 1604l-283 393h180l225 -393h-122zM106 1604l-308 393h180l252 -393h-124zM218 0v1456h191v-1456h-191z" />
    <glyph glyph-name="uni0209" unicode="&#x209;" horiz-adv-x="533" 
d="M395 1174l-283 393h180l225 -393h-122zM53 1174l-308 393h180l252 -393h-124zM177 0l-1 1026h185l1 -1026h-185z" />
    <glyph glyph-name="uni020A" unicode="&#x20a;" horiz-adv-x="602" 
d="M315 1870c86.667 0 153.167 -21 199.5 -63s72.5 -107.667 78.5 -197h-131c-3.33301 46.667 -17.333 79.667 -42 99s-59.667 29 -105 29c-43.333 0 -77 -9.83301 -101 -29.5s-38.333 -52.5 -43 -98.5h-129c11.333 173.333 102.333 260 273 260zM218 0v1456h191v-1456h-191
z" />
    <glyph glyph-name="uni020B" unicode="&#x20b;" horiz-adv-x="533" 
d="M262 1440c86.667 0 153.167 -21 199.5 -63s72.5 -107.667 78.5 -197h-131c-3.33301 46.667 -17.333 79.667 -42 99s-59.667 29 -105 29c-43.333 0 -77 -9.83301 -101 -29.5s-38.333 -52.5 -43 -98.5h-129c11.333 173.333 102.333 260 273 260zM177 0l-1 1026h185l1 -1026
h-185z" />
    <glyph glyph-name="uni020C" unicode="&#x20c;" horiz-adv-x="1626" 
d="M944 1604l-283 393h180l225 -393h-122zM602 1604l-308 393h180l252 -393h-124zM816 -22c-220 0 -393.167 67.666 -519.5 202.999s-189.5 318 -189.5 548c0 148.667 27.833 279.5 83.5 392.5s137.5 201.333 245.5 265s235.333 95.5 382 95.5
c214 0 384.5 -69.167 511.5 -207.5s190.5 -320.166 190.5 -545.499c0 -229.333 -62.667 -411.833 -188 -547.5s-297.333 -203.5 -516 -203.5zM814 138.999c162.667 0 286.333 52.5 371 157.5s127 249.167 127 432.5c0 179.333 -42.5 322.833 -127.5 430.5
s-207.833 161.5 -368.5 161.5c-160 0 -284.167 -54.167 -372.5 -162.5s-132.5 -251.5 -132.5 -429.5c0 -182.667 43.333 -326.667 130 -432s211 -158 373 -158z" />
    <glyph glyph-name="uni020D" unicode="&#x20d;" horiz-adv-x="1258" 
d="M760 1174l-283 393h180l225 -393h-122zM418 1174l-308 393h180l252 -393h-124zM631 -22c-166 0 -295.833 49.334 -389.5 148.001s-140.5 227.334 -140.5 386.001c0 161.333 47.167 291.666 141.5 390.999s224.5 149 390.5 149c165.333 0 294 -49.5 386 -148.5
s138 -229.5 138 -391.5c0 -158.667 -46.667 -287.334 -140 -386.001s-222 -148 -386 -148zM631 128.001c108 0 190.5 35 247.5 105s85.5 163 85.5 279c0 118 -28.833 212.5 -86.5 283.5s-140.167 106.5 -247.5 106.5c-108 0 -191 -35.5 -249 -106.5s-87 -165.5 -87 -283.5
c0 -116 28.833 -209 86.5 -279s141.167 -105 250.5 -105z" />
    <glyph glyph-name="uni020E" unicode="&#x20e;" horiz-adv-x="1626" 
d="M812 1870c86.667 0 153.167 -21 199.5 -63s72.5 -107.667 78.5 -197h-131c-3.33301 46.667 -17.333 79.667 -42 99s-59.667 29 -105 29c-43.333 0 -77 -9.83301 -101 -29.5s-38.333 -52.5 -43 -98.5h-129c11.333 173.333 102.333 260 273 260zM816 -22
c-220 0 -393.167 67.666 -519.5 202.999s-189.5 318 -189.5 548c0 148.667 27.833 279.5 83.5 392.5s137.5 201.333 245.5 265s235.333 95.5 382 95.5c214 0 384.5 -69.167 511.5 -207.5s190.5 -320.166 190.5 -545.499c0 -229.333 -62.667 -411.833 -188 -547.5
s-297.333 -203.5 -516 -203.5zM814 138.999c162.667 0 286.333 52.5 371 157.5s127 249.167 127 432.5c0 179.333 -42.5 322.833 -127.5 430.5s-207.833 161.5 -368.5 161.5c-160 0 -284.167 -54.167 -372.5 -162.5s-132.5 -251.5 -132.5 -429.5
c0 -182.667 43.333 -326.667 130 -432s211 -158 373 -158z" />
    <glyph glyph-name="uni020F" unicode="&#x20f;" horiz-adv-x="1258" 
d="M627 1440c86.667 0 153.167 -21 199.5 -63s72.5 -107.667 78.5 -197h-131c-3.33301 46.667 -17.333 79.667 -42 99s-59.667 29 -105 29c-43.333 0 -77 -9.83301 -101 -29.5s-38.333 -52.5 -43 -98.5h-129c11.333 173.333 102.333 260 273 260zM631 -22
c-166 0 -295.833 49.334 -389.5 148.001s-140.5 227.334 -140.5 386.001c0 161.333 47.167 291.666 141.5 390.999s224.5 149 390.5 149c165.333 0 294 -49.5 386 -148.5s138 -229.5 138 -391.5c0 -158.667 -46.667 -287.334 -140 -386.001s-222 -148 -386 -148z
M631 128.001c108 0 190.5 35 247.5 105s85.5 163 85.5 279c0 118 -28.833 212.5 -86.5 283.5s-140.167 106.5 -247.5 106.5c-108 0 -191 -35.5 -249 -106.5s-87 -165.5 -87 -283.5c0 -116 28.833 -209 86.5 -279s141.167 -105 250.5 -105z" />
    <glyph glyph-name="uni0210" unicode="&#x210;" horiz-adv-x="1362" 
d="M779 1604l-283 393h180l225 -393h-122zM437 1604l-308 393h180l252 -393h-124zM392 808h271c96.667 0 171.667 19.167 225 57.5s80 102.5 80 192.5c0 36.667 -3.83301 68.5 -11.5 95.5s-18.667 49.5 -33 67.5s-33.333 32.5 -57 43.5s-50.167 18.833 -79.5 23.5
s-64 7 -104 7h-3.5h-3.5h-4h-280v-487zM202 0l-0.00292969 1456h466c60 0 113.667 -3.16699 161 -9.5s92.833 -18.166 136.5 -35.499s79.834 -40.166 108.501 -68.499s51.5 -65.5 68.5 -111.5s25.5 -100 25.5 -162c0 -91.333 -23.333 -167.666 -70 -228.999
s-117.667 -102 -213 -122c54.667 -17.333 97.834 -47.5 129.501 -90.5s63.834 -105.5 96.501 -187.5l171 -440h-204l-160 428c-22.667 61.333 -43.5 106.333 -62.5 135s-43.833 49.834 -74.5 63.501s-73 20.5 -127 20.5h-261v-647h-191z" />
    <glyph glyph-name="uni0211" unicode="&#x211;" horiz-adv-x="803" 
d="M645 1174l-283 393h180l225 -393h-122zM303 1174l-308 393h180l252 -393h-124zM179 0v774c0 22.667 -1.16699 55 -3.5 97s-4.5 78.333 -6.5 109l-3 46h195l2 -160c62 122.667 153.333 184 274 184c38 0 72.667 -4 104 -12l-1 -163c-39.333 10.667 -77 16 -113 16
c-78.667 0 -142 -27.5 -190 -82.5s-72 -134.167 -72 -237.5v-571h-186z" />
    <glyph glyph-name="uni0212" unicode="&#x212;" horiz-adv-x="1362" 
d="M646 1870c86.667 0 153.167 -21 199.5 -63s72.5 -107.667 78.5 -197h-131c-3.33301 46.667 -17.333 79.667 -42 99s-59.667 29 -105 29c-43.333 0 -77 -9.83301 -101 -29.5s-38.333 -52.5 -43 -98.5h-129c11.333 173.333 102.333 260 273 260zM392 808h271
c96.667 0 171.667 19.167 225 57.5s80 102.5 80 192.5c0 36.667 -3.83301 68.5 -11.5 95.5s-18.667 49.5 -33 67.5s-33.333 32.5 -57 43.5s-50.167 18.833 -79.5 23.5s-64 7 -104 7h-3.5h-3.5h-4h-280v-487zM202 0l-0.00292969 1456h466c60 0 113.667 -3.16699 161 -9.5
s92.833 -18.166 136.5 -35.499s79.834 -40.166 108.501 -68.499s51.5 -65.5 68.5 -111.5s25.5 -100 25.5 -162c0 -91.333 -23.333 -167.666 -70 -228.999s-117.667 -102 -213 -122c54.667 -17.333 97.834 -47.5 129.501 -90.5s63.834 -105.5 96.501 -187.5l171 -440h-204
l-160 428c-22.667 61.333 -43.5 106.333 -62.5 135s-43.833 49.834 -74.5 63.501s-73 20.5 -127 20.5h-261v-647h-191z" />
    <glyph glyph-name="uni0213" unicode="&#x213;" horiz-adv-x="803" 
d="M512 1440c86.667 0 153.167 -21 199.5 -63s72.5 -107.667 78.5 -197h-131c-3.33301 46.667 -17.333 79.667 -42 99s-59.667 29 -105 29c-43.333 0 -77 -9.83301 -101 -29.5s-38.333 -52.5 -43 -98.5h-129c11.333 173.333 102.333 260 273 260zM179 0v774
c0 22.667 -1.16699 55 -3.5 97s-4.5 78.333 -6.5 109l-3 46h195l2 -160c62 122.667 153.333 184 274 184c38 0 72.667 -4 104 -12l-1 -163c-39.333 10.667 -77 16 -113 16c-78.667 0 -142 -27.5 -190 -82.5s-72 -134.167 -72 -237.5v-571h-186z" />
    <glyph glyph-name="uni0214" unicode="&#x214;" horiz-adv-x="1495" 
d="M874 1604l-283 393h180l225 -393h-122zM532 1604l-308 393h180l252 -393h-124zM744 -22c-382.667 0 -574 194.001 -574 582.001v896h191v-900c0 -142.667 32.333 -247.834 97 -315.501s160.667 -101.5 288 -101.5c257.333 0 386 137.667 386 413v904h190v-894
c0 -88.667 -10.667 -167.667 -32 -237s-54.333 -130.5 -99 -183.5s-104.667 -93.5 -180 -121.5s-164.333 -42 -267 -42z" />
    <glyph glyph-name="uni0215" unicode="&#x215;" horiz-adv-x="1235" 
d="M735 1174l-283 393h180l225 -393h-122zM393 1174l-308 393h180l252 -393h-124zM555 -23c-131.333 0 -229.999 37.501 -295.999 112.501s-99 175.833 -99 302.5v634h183v-634c0 -88 20.833 -154.167 62.5 -198.5s101.834 -66.5 180.501 -66.5c90 0 160.333 25.667 211 77
s76 117.666 76 198.999v623h184v-772c0 -91.333 3 -176 9 -254h-187l-5 165c-28.667 -52.667 -69.334 -97.167 -122.001 -133.5s-118.334 -54.5 -197.001 -54.5z" />
    <glyph glyph-name="uni0216" unicode="&#x216;" horiz-adv-x="1495" 
d="M741 1870c86.667 0 153.167 -21 199.5 -63s72.5 -107.667 78.5 -197h-131c-3.33301 46.667 -17.333 79.667 -42 99s-59.667 29 -105 29c-43.333 0 -77 -9.83301 -101 -29.5s-38.333 -52.5 -43 -98.5h-129c11.333 173.333 102.333 260 273 260zM744 -22
c-382.667 0 -574 194.001 -574 582.001v896h191v-900c0 -142.667 32.333 -247.834 97 -315.501s160.667 -101.5 288 -101.5c257.333 0 386 137.667 386 413v904h190v-894c0 -88.667 -10.667 -167.667 -32 -237s-54.333 -130.5 -99 -183.5s-104.667 -93.5 -180 -121.5
s-164.333 -42 -267 -42z" />
    <glyph glyph-name="uni0217" unicode="&#x217;" horiz-adv-x="1235" 
d="M602 1440c86.667 0 153.167 -21 199.5 -63s72.5 -107.667 78.5 -197h-131c-3.33301 46.667 -17.333 79.667 -42 99s-59.667 29 -105 29c-43.333 0 -77 -9.83301 -101 -29.5s-38.333 -52.5 -43 -98.5h-129c11.333 173.333 102.333 260 273 260zM555 -23
c-131.333 0 -229.999 37.501 -295.999 112.501s-99 175.833 -99 302.5v634h183v-634c0 -88 20.833 -154.167 62.5 -198.5s101.834 -66.5 180.501 -66.5c90 0 160.333 25.667 211 77s76 117.666 76 198.999v623h184v-772c0 -91.333 3 -176 9 -254h-187l-5 165
c-28.667 -52.667 -69.334 -97.167 -122.001 -133.5s-118.334 -54.5 -197.001 -54.5z" />
    <glyph glyph-name="Scommaaccent" unicode="&#x218;" horiz-adv-x="1214" 
d="M420 -607l109 473h209l-168 -473h-150zM600 139c40 0 76.1699 3.66992 108.503 11.0029s60.5 17.833 84.5 31.5s44.167 30.667 60.5 51s28.5 43.666 36.5 69.999s12 55.5 12 87.5c0 34.667 -3.66699 63.834 -11 87.501s-21.333 46.167 -42 67.5
s-48.834 40.5 -84.501 57.5s-82.834 34.5 -141.501 52.5c-6 2 -20.5 6.16699 -43.5 12.5s-38.167 10.833 -45.5 13.5c-139.333 40 -240.833 90.667 -304.5 152s-95.5 149.666 -95.5 264.999c0 82 21.333 152.333 64 211s99.834 102.167 171.501 130.5
s154.167 42.5 247.5 42.5c196.667 0 346.334 -50.667 449.001 -152l-95 -129c-34 33.333 -80 61.666 -138 84.999s-122.333 35 -193 35c-92 0 -165.5 -18.333 -220.5 -55s-82.5 -90.667 -82.5 -162c0 -48 6.5 -86 19.5 -114s36.667 -52.333 71 -73s86.166 -42 155.499 -64
c1.33301 -0.666992 13.833 -4.33398 37.5 -11.001s39.5 -11 47.5 -13c85.333 -25.333 155.5 -51.666 210.5 -78.999s99.167 -58.833 132.5 -94.5s56.666 -74.834 69.999 -117.501s20 -94 20 -154c0 -67.333 -12.833 -127.166 -38.5 -179.499s-61.167 -94.833 -106.5 -127.5
s-97.333 -57.334 -156 -74.001s-122.667 -25 -192 -25c-108.667 0 -205.834 17.833 -291.501 53.5s-148.167 72.5 -187.5 110.5l85 138c42.667 -34 98.667 -66 168 -96s142 -45 218 -45z" />
    <glyph glyph-name="scommaaccent" unicode="&#x219;" horiz-adv-x="978" 
d="M308 -607l109 473h209l-168 -473h-150zM518 -22c-88.667 0 -166.834 13.333 -234.501 40s-120.167 54.667 -157.5 84l51 137c38 -28 86.5 -53.333 145.5 -76s119.167 -34 180.5 -34c136 0 204 50 204 150c0 42 -15.333 73.333 -46 94s-90.334 46 -179.001 76l-88 30
c-34 12 -62.833 23.333 -86.5 34s-47.5 24.167 -71.5 40.5s-43.333 34 -58 53s-26.5 42 -35.5 69s-13.5 57.5 -13.5 91.5c0 48.667 10.167 91.834 30.5 129.501s48.166 67.334 83.499 89.001s74.333 38 117 49s88.667 16.5 138 16.5c135.333 0 249.333 -29.667 342 -89
l-51 -132c-90 48 -180 72 -270 72c-66 0 -117 -11.333 -153 -34s-54 -54.667 -54 -96c0 -37.333 10.833 -64.833 32.5 -82.5s64.834 -38.167 129.501 -61.5c58 -19.333 92.333 -31 103 -35c42 -14.667 75.667 -27.334 101 -38.001s52.5 -24.834 81.5 -42.501
s51.333 -36.167 67 -55.5s28.667 -43.5 39 -72.5s15.5 -61.833 15.5 -98.5c0 -54.667 -10.333 -102.5 -31 -143.5s-48.667 -73 -84 -96s-73.666 -40.167 -114.999 -51.5s-85.666 -17 -132.999 -17z" />
    <glyph glyph-name="uni021A" unicode="&#x21a;" horiz-adv-x="1144" 
d="M362 -607l109 473h209l-168 -473h-150zM475 0v1295h-465v161h1124v-161h-468v-1295h-191z" />
    <glyph glyph-name="uni021B" unicode="&#x21b;" horiz-adv-x="803" 
d="M314 -601l109 473h209l-168 -473h-150zM704 0l-84.999 0.00195312c-145.333 1.33301 -244.833 27.333 -298.5 78s-80.5 143 -80.5 277v548h-197v123h201v264l180 53v-317h278v-123h-278v-558c0 -36.667 2.5 -66.334 7.5 -89.001s12.833 -41.834 23.5 -57.501
s27.667 -27.167 51 -34.5s49.666 -12.5 78.999 -15.5s69 -4.5 119 -4.5v-144z" />
    <glyph glyph-name="uni021E" unicode="&#x21e;" horiz-adv-x="1559" 
d="M699 1584l-247 351h164l162 -230l163 230h168l-246 -351h-164zM202 0v1456h192v-629h773v629h190v-1456h-189v666h-774v-666h-192z" />
    <glyph glyph-name="uni021F" unicode="&#x21f;" horiz-adv-x="1237" 
d="M166 0l-0.00195312 1486h184v-621c30.667 56 78.334 101.167 143.001 135.5s133.334 51.5 206.001 51.5c64 0 120.667 -11.333 170 -34s89 -53.834 119 -93.501s52.667 -85.334 68 -137.001s23 -107.834 23 -168.501v-619h-185v614
c0 100.667 -17.333 173.834 -52 219.501s-90.667 68.5 -168 68.5c-84 0 -159 -28.333 -225 -85s-99 -121.667 -99 -195v-622h-184zM616.998 1154l-247 351h164l162 -230l163 230h168l-246 -351h-164z" />
    <glyph glyph-name="uni0226" unicode="&#x226;" 
d="M602 1686v182h188v-182h-188zM438 545h514c-84.667 239.333 -170 476.333 -256 711c-86.667 -238 -172.667 -475 -258 -711zM31 0l565 1456h204l568 -1456h-209l-150 389h-623l-147 -389h-208z" />
    <glyph glyph-name="uni0227" unicode="&#x227;" horiz-adv-x="1273" 
d="M496 1256v182h188v-182h-188zM615 128c102 0 179.834 35.501 233.501 106.501s80.5 166.5 80.5 286.5c0 113.333 -27.333 205.166 -82 275.499s-132.667 105.5 -234 105.5c-106.667 0 -187.834 -35.333 -243.501 -106s-83.5 -163.334 -83.5 -278.001
c0 -115.333 28 -209.166 84 -281.499s137.667 -108.5 245 -108.5zM589.001 -21.999c-76.667 0 -146.17 14.332 -208.503 42.999s-113.666 67.5 -153.999 116.5s-71.333 105.667 -93 170s-32.5 132.833 -32.5 205.5c0 100 19.5 190.5 58.5 271.5s95.833 145.833 170.5 194.5
s161 73 259 73c72.667 0 138.834 -17.667 198.501 -53s104.834 -80.666 135.501 -135.999v163h182v-1026h-184v175c-29.333 -61.333 -73 -109.5 -131 -144.5s-125 -52.5 -201 -52.5z" />
    <glyph glyph-name="uni0228" unicode="&#x228;" horiz-adv-x="1205" 
d="M666 -447c-63.333 0 -122 9.33496 -176 28.002l13 97c14 -6 36.5 -12 67.5 -18s59.833 -9 86.5 -9h3c34 0 60.5 6.66699 79.5 20s28.5 31.666 28.5 54.999c0 22.667 -13 42.834 -39 60.501s-66.333 26.5 -121 26.5h-22l32 196h97l-20 -128
c70 -6.66699 125.5 -24 166.5 -52s61.5 -64 61.5 -108c0 -26.667 -6.5 -50.834 -19.5 -72.501s-31 -39.334 -54 -53.001s-49.833 -24.167 -80.5 -31.5s-63.667 -11 -99 -11h-2h-2zM202 0.00195312v1456h872v-161h-681v-458h643v-162h-643v-514h710v-161h-901z" />
    </font>
</defs>
</svg>
