<?xml version="1.0" standalone="no"?>
<!DOCTYPE svg PUBLIC "-//W3C//DTD SVG 1.1//EN" "http://www.w3.org/Graphics/SVG/1.1/DTD/svg11.dtd" >
<svg>
<metadata>
Created by FontForge 20120731 at Thu Aug 21 10:50:48 2014
 By Alfred Xing
Digitized data Copyright (c) 2011-2014, vernon adams.
</metadata>
<defs>
<font id="Muli-Bold" horiz-adv-x="1671" >
  <font-face 
    font-family="Muli"
    font-weight="700"
    font-stretch="normal"
    units-per-em="2048"
    panose-1="2 0 8 3 0 0 0 0 0 0"
    ascent="1638"
    descent="-410"
    x-height="1026"
    cap-height="1456"
    bbox="-351 -647 4041 2384"
    underline-thickness="0"
    underline-position="0"
    unicode-range="U+000D-FB04"
  />
<missing-glyph horiz-adv-x="748" 
d="M68 0v1365h544v-1365h-544zM136 68h408v1229h-408v-1229z" />
    <glyph glyph-name=".notdef" horiz-adv-x="748" 
d="M68 0v1365h544v-1365h-544zM136 68h408v1229h-408v-1229z" />
    <glyph glyph-name=".null" horiz-adv-x="0" 
 />
    <glyph glyph-name="uni000D" unicode="&#xd;" horiz-adv-x="599" 
 />
    <glyph glyph-name="space" unicode=" " horiz-adv-x="601" 
 />
    <glyph glyph-name="exclam" unicode="!" horiz-adv-x="688" 
d="M265 387l-74 1069h295l-74 -1069h-147zM180 0v273h314v-273h-314z" />
    <glyph glyph-name="quotedbl" unicode="&#x22;" horiz-adv-x="703" 
d="M458 957l-53 499h238l-51 -499h-134zM115 957l-53 499h239l-51 -499h-135z" />
    <glyph glyph-name="numbersign" unicode="#" horiz-adv-x="1465" 
d="M600 608h230l52 262h-230zM236 -10l89 459h-236l9 159h259l52 262h-267l9 158h290l85 434h243l-85 -434h230l86 434h243l-85 -434h221l-7 -158h-247l-52 -262h252l-7 -159h-276l-90 -459h-243l90 459h-230l-90 -459h-243z" />
    <glyph glyph-name="dollar" unicode="$" horiz-adv-x="1238" 
d="M578 1259v-366q-120 44 -155.5 85.5t-35.5 119.5q0 69 51.5 109t139.5 52zM678 198v405q65 -24 104 -46t58.5 -48t25 -50t5.5 -63q0 -174 -193 -198zM578 -219h100v198q96 6 176.5 32t146.5 73.5t103 126t37 180.5q0 164 -70 256t-248 163q-28 11 -145 49v405
q199 -4 318 -117l130 168q-90 86 -186.5 124t-261.5 43v144h-100v-144q-206 -9 -334 -111.5t-128 -283.5q0 -158 81 -250.5t261 -160.5q17 -6 37 -12.5t45 -14.5t38 -12v-442q-86 6 -188 42.5t-167 87.5l-108 -182q74 -72 199 -115.5t264 -49.5v-197z" />
    <glyph glyph-name="percent" unicode="%" horiz-adv-x="1899" 
d="M1434 -20q-166 0 -267 107t-101 272q0 162 101 271.5t266 109.5t267 -110t102 -271q0 -166 -101 -272.5t-267 -106.5zM1433 136q79 0 118.5 53t39.5 170q0 112 -38 168t-120 56q-81 0 -119 -55t-38 -168q0 -117 39 -170.5t118 -53.5zM386 0l931 1456h203l-931 -1456h-203
zM465 715q-170 0 -269 100.5t-99 278.5q0 175 99 277.5t269 102.5q169 0 268.5 -103t99.5 -277q0 -179 -99 -279t-269 -100zM465 871q79 0 118 52.5t39 169.5q0 113 -37.5 169t-119.5 56t-119.5 -55.5t-37.5 -168.5q0 -117 39 -170t118 -53z" />
    <glyph glyph-name="ampersand" unicode="&#x26;" horiz-adv-x="1587" 
d="M612 960q73 46 113.5 92t40.5 101q0 58 -36.5 85.5t-86.5 27.5q-56 0 -90 -28.5t-34 -87.5q0 -95 93 -190zM629 186q157 0 296 128l-358 384q-98 -56 -152.5 -119t-54.5 -156q0 -103 76.5 -170t192.5 -67zM628 -28q-224 0 -369.5 121.5t-145.5 328.5q0 77 24 142.5
t71 118.5t97.5 92t121.5 81q-81 89 -117 153t-36 146q0 150 102 232.5t256 82.5q72 0 138 -19t119.5 -55.5t85.5 -96.5t32 -136q0 -193 -248 -354l298 -326q101 190 101 461l228 -49q1 -154 -45 -313t-124 -278q38 -40 76.5 -69t86.5 -51t71.5 -30.5t78.5 -26.5l-161 -146
q-99 17 -155 51t-140 123q-198 -183 -446 -183z" />
    <glyph glyph-name="quotesingle" unicode="'" horiz-adv-x="484" 
d="M170 910l-39 546h258l-37 -546h-182z" />
    <glyph glyph-name="parenleft" unicode="(" horiz-adv-x="689" 
d="M406 -171q-130 198 -209 415t-79 421q0 409 279 851h242q-131 -205 -202 -426t-71 -427q0 -188 74.5 -410t198.5 -424h-233z" />
    <glyph glyph-name="parenright" unicode=")" horiz-adv-x="689" 
d="M51 -191q131 205 202 426t71 428q0 188 -75 410t-198 423h234q129 -197 208 -414.5t79 -421.5q0 -409 -279 -851h-242z" />
    <glyph glyph-name="asterisk" unicode="*" horiz-adv-x="1054" 
d="M674 644l-169 248l-169 -249l-183 127l217 232l-279 108l86 179l243 -125l-30 292h235l-34 -292l248 125l82 -179l-280 -108l216 -231z" />
    <glyph glyph-name="plus" unicode="+" horiz-adv-x="1268" 
d="M516 77v393h-379v206h382v395h231v-395h380v-206h-381v-393h-233z" />
    <glyph glyph-name="comma" unicode="," horiz-adv-x="545" 
d="M52 -229l112 497h278l-179 -497h-211z" />
    <glyph glyph-name="hyphen" unicode="-" horiz-adv-x="741" 
d="M54 457v190h632v-190h-632z" />
    <glyph glyph-name="period" unicode="." horiz-adv-x="539" 
d="M111 0v271h290v-271h-290z" />
    <glyph glyph-name="slash" unicode="/" horiz-adv-x="684" 
d="M-81 -237l645 1693h220l-650 -1693h-215z" />
    <glyph glyph-name="zero" unicode="0" horiz-adv-x="1272" 
d="M636 -23q-243 0 -377.5 207.5t-134.5 556.5q0 353 132.5 547.5t381.5 194.5q245 0 377.5 -199t132.5 -543q0 -229 -57 -399.5t-173.5 -267.5t-281.5 -97zM640 194q249 0 249 546q0 106 -13 196t-40.5 166.5t-77 120t-117.5 43.5q-71 0 -123 -43.5t-80 -120t-41 -166.5
t-13 -197q0 -124 13 -219t41.5 -170.5t79.5 -115.5t122 -40z" />
    <glyph glyph-name="one" unicode="1" horiz-adv-x="1272" 
d="M293 0v202h257v996q-143 -67 -291 -114v230q147 47 320 142h225v-1258h262v-198h-773z" />
    <glyph glyph-name="two" unicode="2" horiz-adv-x="1272" 
d="M600 1481q201 0 322.5 -122t121.5 -351q0 -48 -8.5 -94t-19.5 -81t-34.5 -76t-39 -66t-49 -64t-49.5 -56.5t-54 -57.5l-290 -305h533v-208h-844v183l421 468q51 57 70 78.5t50.5 63t42.5 66.5t20.5 61t9.5 75q0 29 -7 80q-9 55 -29.5 93.5t-50 59t-63 29.5t-75.5 9
q-28 0 -58 -4.5t-58 -12t-56 -17t-52 -20t-46.5 -21t-39.5 -20t-30 -17t-20 -12.5l-7 -4l-85 199q8 6 22.5 15.5t63.5 34.5t100.5 44t130.5 34.5t157 15.5z" />
    <glyph glyph-name="three" unicode="3" horiz-adv-x="1272" 
d="M622 -23q-83 0 -160.5 12.5t-128.5 30.5t-90.5 36.5t-57.5 31.5l-18 12l77 191q15 -10 52.5 -28.5t122 -43.5t160.5 -25q135 0 207 61.5t72 168.5q0 114 -97.5 170.5t-270.5 56.5h-32l-64 -2l-2 215h72q194 0 273.5 51t79.5 182q0 80 -75 124.5t-173 44.5q-47 0 -90 -8
t-78 -22.5t-57 -26t-49 -28.5t-33 -21l-113 183q117 78 207.5 109t246.5 31q92 0 174.5 -24t149 -69.5t106 -119.5t39.5 -167q0 -77 -26.5 -146t-90 -123.5t-155.5 -68.5q143 -26 224.5 -123.5t81.5 -228.5q0 -100 -39.5 -183.5t-106 -138t-154 -84.5t-184.5 -30zM243 291h1
h-1z" />
    <glyph glyph-name="four" unicode="4" horiz-adv-x="1272" 
d="M389 580h339v554q-170 -276 -339 -554zM724 0v381h-617v189l584 886h286v-876h229v-199h-224v-381h-258z" />
    <glyph glyph-name="five" unicode="5" horiz-adv-x="1272" 
d="M622 -23q-126 0 -247.5 51.5t-213.5 148.5l133 190q69 -84 155 -128.5t168 -44.5q112 0 190 73t78 208q0 107 -52.5 183.5t-140.5 76.5q-122 0 -167 -65l-253 34v752h809v-217h-585l-12 -373q71 94 259 94q165 0 284.5 -141t119.5 -348q0 -96 -29.5 -178t-80 -139.5
t-118 -98t-143 -59.5t-154.5 -19z" />
    <glyph glyph-name="six" unicode="6" horiz-adv-x="1272" 
d="M680 194q108 0 175 79.5t67 199.5q0 123 -59.5 202t-167.5 79q-120 0 -190.5 -79.5t-70.5 -205.5q0 -62 22 -115.5t58 -87.5t79 -53t87 -19zM687 -23q-175 0 -297 91t-180 251.5t-58 378.5q0 163 38.5 304.5t111 249t185.5 169.5t253 62q230 0 370 -130l-84 -189
q-130 102 -284 102q-137 0 -226 -130t-97 -326q107 152 290 152q217 0 345.5 -131.5t128.5 -354.5q0 -218 -136 -358.5t-360 -140.5z" />
    <glyph glyph-name="seven" unicode="7" horiz-adv-x="1272" 
d="M313 0l551 1248h-719v208h1013v-194l-573 -1262h-272z" />
    <glyph glyph-name="eight" unicode="8" horiz-adv-x="1274" 
d="M634 858q99 29 154 89.5t55 147.5q0 76 -60 120.5t-150 44.5q-97 0 -153 -44.5t-56 -132.5q0 -81 55.5 -140t154.5 -85zM635 199q112 0 175.5 53t63.5 161q0 85 -67.5 160t-165.5 101q-107 -24 -175 -96t-68 -169q0 -101 63.5 -155.5t173.5 -54.5zM639 -23
q-143 0 -255 48t-178.5 144t-66.5 226q0 121 65.5 216.5t181.5 152.5q-218 124 -218 335q0 178 129.5 281t334.5 103q218 0 343.5 -105.5t125.5 -289.5q0 -222 -215 -327q106 -53 175.5 -155.5t69.5 -218.5q0 -128 -70 -223t-180.5 -141t-241.5 -46z" />
    <glyph glyph-name="nine" unicode="9" horiz-adv-x="1272" 
d="M601 728q117 0 189.5 74t72.5 214q0 105 -66.5 177.5t-176.5 72.5q-116 0 -185.5 -74.5t-69.5 -195.5q0 -119 60.5 -193.5t175.5 -74.5zM558 -26q-168 0 -377 103l92 206q131 -87 264 -87q67 0 125 24.5t105 74.5t74 135.5t27 198.5v26q-91 -138 -292 -138
q-212 0 -339.5 131t-127.5 343q0 214 137 353t363 139q245 0 378.5 -181.5t133.5 -530.5q0 -234 -65 -413t-193.5 -281.5t-304.5 -102.5z" />
    <glyph glyph-name="colon" unicode=":" horiz-adv-x="591" 
d="M134 900v271h310l1 -271h-311zM134 -15v270h311v-270h-311z" />
    <glyph glyph-name="semicolon" unicode=";" horiz-adv-x="539" 
d="M179 900v271h252v-271h-252zM66 -229l108 497h280l-178 -497h-210z" />
    <glyph glyph-name="less" unicode="&#x3c;" horiz-adv-x="1416" 
d="M1197 36l-1049 473v115l1053 491v-227l-725 -319l721 -310v-223z" />
    <glyph glyph-name="equal" unicode="=" horiz-adv-x="1479" 
d="M217 667v201h1043v-201h-1043zM216 261v200h1046v-200h-1046z" />
    <glyph glyph-name="greater" unicode="&#x3e;" horiz-adv-x="1418" 
d="M214 39v233l720 301l-715 324v226l1050 -499v-124z" />
    <glyph glyph-name="question" unicode="?" horiz-adv-x="1018" 
d="M259 0v273h313v-273h-313zM301 411v137q0 53 19.5 103t50 90t68 78.5t75 74t68 70t50 74t19.5 79.5q0 78 -55.5 114.5t-147.5 36.5q-78 0 -164.5 -22t-137.5 -44v211q135 72 325 72q119 0 216 -38.5t159 -122t62 -200.5q0 -61 -22.5 -116t-58.5 -97t-79.5 -81.5t-87 -78
t-79.5 -78.5t-58.5 -90.5t-22.5 -106.5v-65h-199z" />
    <glyph glyph-name="at" unicode="@" horiz-adv-x="1814" 
d="M856 448q67 0 120 53.5t80.5 137t27.5 178.5q0 65 -33.5 99.5t-89.5 34.5q-72 0 -126.5 -56.5t-80.5 -136.5t-26 -165q0 -65 36 -105t92 -40zM943 -101q-178 0 -331.5 54t-265.5 152t-176 242.5t-64 317.5q0 187 68 342.5t185 258.5t273.5 160t333.5 57q156 0 292.5 -51
t235.5 -141t156.5 -219t57.5 -279q0 -127 -47.5 -250.5t-133.5 -206t-185 -82.5q-103 0 -165 61.5t-62 148.5q-28 -92 -102 -150t-190 -58q-61 0 -120.5 23.5t-109.5 67.5t-81 117.5t-31 163.5q0 112 43.5 210.5t111 162t145.5 99.5t150 36q158 0 204 -114l20 96h218
l-89 -474q-20 -101 -20 -164v-14q0 -31 14.5 -60t42.5 -29q30 0 67.5 30.5t73 82.5t60 134.5t24.5 173.5q0 106 -32.5 194.5t-87.5 148t-128.5 101t-154.5 60t-167 18.5q-139 0 -258 -40t-211 -118.5t-144.5 -205.5t-52.5 -291q0 -121 36.5 -222.5t99.5 -172t147 -119.5
t177.5 -72t193.5 -23q240 0 472 132l81 -118q-244 -171 -574 -171z" />
    <glyph glyph-name="A" unicode="A" horiz-adv-x="1458" 
d="M524 592h390q-115 341 -193 567q-65 -189 -197 -567zM12 0l585 1456h258l590 -1456h-287l-141 355h-588l-138 -355h-279z" />
    <glyph glyph-name="B" unicode="B" horiz-adv-x="1367" 
d="M444 852h217q51 0 94 9.5t81.5 31.5t60.5 62t22 96q0 108 -75 147.5t-236 39.5h-164v-386zM447 217h229q307 0 307 205q0 128 -68.5 176t-244.5 48h-223v-429zM190 0v1456h403q63 0 113 -2.5t114.5 -11t113.5 -24t99 -43.5t82.5 -66.5t53 -96t20.5 -129.5
q0 -216 -193 -311q130 -35 195 -131.5t65 -229.5q0 -83 -33 -155.5t-97 -130.5t-168.5 -91.5t-236.5 -33.5h-531z" />
    <glyph glyph-name="C" unicode="C" horiz-adv-x="1436" 
d="M835 -22q-144 0 -274 49.5t-232 141.5t-162.5 236.5t-60.5 321.5q0 148 40.5 273.5t109.5 213t160 149.5t192 91t207 29q286 0 486 -157l-99 -177q-166 115 -366 115q-93 0 -176.5 -37t-147.5 -104t-102 -169t-38 -224q0 -241 136 -387t344 -146q219 0 402 147l85 -201
q-212 -165 -504 -165z" />
    <glyph glyph-name="D" unicode="D" horiz-adv-x="1571" 
d="M190 0v1456h406q437 0 653 -185.5t216 -533.5q0 -361 -211.5 -549t-616.5 -188h-447zM444 218h206q264 0 405 132t141 388q0 243 -142.5 371.5t-434.5 128.5h-175v-1020z" />
    <glyph glyph-name="E" unicode="E" horiz-adv-x="1249" 
d="M190 0v1456h919v-218h-665v-389h629v-219h-626v-412h691v-218h-948z" />
    <glyph glyph-name="F" unicode="F" horiz-adv-x="1145" 
d="M190 0v1456h889v-218h-635v-397h598v-219h-598v-622h-254z" />
    <glyph glyph-name="G" unicode="G" horiz-adv-x="1538" 
d="M851 -23q-359 0 -552.5 196t-193.5 531q0 125 31.5 240.5t96 213.5t155.5 170.5t216.5 113.5t272.5 41q103 0 187.5 -14.5t144.5 -41.5t89 -44.5t64 -44.5l-102 -178q-143 104 -382 104q-126 0 -226 -47t-160 -126t-91 -175t-31 -201q0 -115 31 -210t91 -164.5
t154.5 -108t216.5 -38.5q121 0 249 38v344h-340v217h598v-705q-249 -111 -519 -111z" />
    <glyph glyph-name="H" unicode="H" horiz-adv-x="1572" 
d="M190 0v1456h254v-599h683v599h254v-1456h-249v637h-683v-637h-259z" />
    <glyph glyph-name="I" unicode="I" horiz-adv-x="586" 
d="M160 0v1456h254v-1456h-254z" />
    <glyph glyph-name="J" unicode="J" horiz-adv-x="1019" 
d="M417 -331q-143 0 -321 64l46 193q137 -44 229 -44q205 0 205 228v1346h254v-1334q0 -218 -109 -335.5t-304 -117.5z" />
    <glyph glyph-name="K" unicode="K" horiz-adv-x="1351" 
d="M190 0v1456h254v-636l561 636h317l-631 -703l680 -753h-330l-594 651v-651h-257z" />
    <glyph glyph-name="L" unicode="L" horiz-adv-x="1173" 
d="M326 1026zM190 0v1456h254v-1238h674v-218h-928z" />
    <glyph glyph-name="M" unicode="M" horiz-adv-x="1987" 
d="M190 0v1456h298q31 -69 219.5 -489t289.5 -641q77 167 158.5 350.5t188 426.5t155.5 353h298v-1456h-238v1040q-53 -115 -469 -1040h-187q-52 114 -146 323.5t-172 380t-150 319.5v-1023h-245z" />
    <glyph glyph-name="N" unicode="N" horiz-adv-x="1630" 
d="M190 0v1456h269q694 -1006 739 -1072v1072h242v-1456h-270q-671 969 -745 1074v-1074h-235z" />
    <glyph glyph-name="O" unicode="O" 
d="M840 -23q-341 0 -537.5 205.5t-196.5 552.5q0 338 197.5 543t539.5 205q331 0 526.5 -204.5t195.5 -543.5q0 -348 -193 -553t-532 -205zM834 194q223 0 339 140.5t116 400.5q0 252 -116 391.5t-335 139.5q-221 0 -339.5 -139.5t-118.5 -391.5q0 -261 115 -401t339 -140z
" />
    <glyph glyph-name="P" unicode="P" horiz-adv-x="1299" 
d="M444 845h218q73 0 124 8t93.5 28.5t63.5 60t21 97.5q0 32 -5.5 58t-13.5 45.5t-25.5 34.5t-31 24.5t-42 16t-47 10t-56.5 5t-60 2t-68 0.5h-171v-390zM190 0v1456h415q73 0 126.5 -2t116 -8.5t107.5 -19.5t91.5 -33.5t78 -51.5t57 -73t37.5 -99t12 -128
q0 -117 -37.5 -198t-113 -127.5t-176 -67t-238.5 -20.5h-222v-628h-254z" />
    <glyph glyph-name="Q" unicode="Q" 
d="M834 194q-224 0 -339 140t-115 401q0 252 118.5 391.5t339.5 139.5q219 0 335 -139.5t116 -391.5q0 -260 -116 -400.5t-339 -140.5zM1261 -447l139 150q-155 174 -250 329q199 79 307 262t108 441q0 339 -195.5 543.5t-526.5 204.5q-342 0 -539.5 -205t-197.5 -543
q0 -347 196.5 -552.5t537.5 -205.5q51 0 91 4q60 -100 142.5 -207t134.5 -164z" />
    <glyph glyph-name="R" unicode="R" horiz-adv-x="1388" 
d="M441 831h243q272 0 272 211q0 115 -57 155.5t-188 40.5h-270v-407zM190 0v1456h525q120 0 207.5 -18t158.5 -61.5t107 -124t36 -198.5q0 -123 -73 -217.5t-220 -127.5q131 -73 193 -228l197 -481h-275l-167 433q-41 107 -89 145t-145 38h-201v-616h-254z" />
    <glyph glyph-name="S" unicode="S" horiz-adv-x="1256" 
d="M623 -23q-150 0 -289 44t-219 122l108 182q71 -55 184.5 -93t199.5 -38q135 0 199.5 50t64.5 152q0 40 -6 64.5t-27 51t-62.5 49t-111.5 47.5q-30 10 -101.5 33t-104.5 35q-180 68 -261 160.5t-81 250.5q0 128 67.5 219t179.5 134t256 43q195 0 303 -38t204 -130
l-130 -168q-123 117 -341 117q-119 0 -193.5 -41t-74.5 -125q0 -41 7 -67.5t29.5 -52t64.5 -47t112 -46.5q25 -9 104.5 -34.5t118.5 -40.5q178 -71 248 -163t70 -256q0 -109 -43 -191.5t-117 -129.5t-164 -70t-194 -23z" />
    <glyph glyph-name="T" unicode="T" horiz-adv-x="1181" 
d="M460 0v1238h-449v218h1159v-218h-456v-1238h-254z" />
    <glyph glyph-name="U" unicode="U" horiz-adv-x="1509" 
d="M755 -23q-140 0 -246 34t-170.5 89.5t-104.5 138t-55 168.5t-15 192v857h254v-868q0 -90 17 -159t46.5 -113t73 -72t92 -39t107.5 -11q76 0 134.5 19t105.5 62.5t72 122.5t25 191v867h254v-858q0 -105 -14 -190t-53.5 -168t-103.5 -139t-170.5 -90t-248.5 -34z" />
    <glyph glyph-name="V" unicode="V" horiz-adv-x="1393" 
d="M571 0l-554 1456h285q22 -62 170.5 -483t230.5 -640q87 239 406 1123h267l-553 -1456h-252z" />
    <glyph glyph-name="W" unicode="W" horiz-adv-x="2096" 
d="M428 0l-416 1456h270q28 -105 95 -355.5t115 -435.5t91 -359q47 177 103 362.5t135.5 434t111.5 353.5h242l260 -814l100 -341q41 175 87.5 362t109 435t90.5 358h262l-406 -1456h-291l-340 1105l-332 -1105h-287z" />
    <glyph glyph-name="X" unicode="X" horiz-adv-x="1407" 
d="M22 0l535 736l-497 720h317l340 -504l359 504h295l-508 -709l518 -747h-316l-363 532l-376 -532h-304z" />
    <glyph glyph-name="Y" unicode="Y" horiz-adv-x="1280" 
d="M505 0v563l-519 893h289l361 -667l358 667h296l-531 -892v-564h-254z" />
    <glyph glyph-name="Z" unicode="Z" horiz-adv-x="1202" 
d="M71 0v136l689 1102h-663v218h1014v-132l-693 -1106h692v-218h-1039z" />
    <glyph glyph-name="bracketleft" unicode="[" horiz-adv-x="620" 
d="M140 -158v1660h421v-190h-169v-1280h170v-190h-422z" />
    <glyph glyph-name="backslash" unicode="\" horiz-adv-x="650" 
d="M531 -112l-705 1568h275l697 -1568h-267z" />
    <glyph glyph-name="bracketright" unicode="]" horiz-adv-x="620" 
d="M91 -158v190h164v1280h-163v190h416v-1660h-417z" />
    <glyph glyph-name="asciicircum" unicode="^" horiz-adv-x="1559" 
d="M183 532l513 924h161l519 -924h-251l-352 641l-335 -641h-255z" />
    <glyph glyph-name="underscore" unicode="_" horiz-adv-x="1012" 
d="M-14 -254v195h1039v-195h-1039z" />
    <glyph glyph-name="grave" unicode="`" horiz-adv-x="610" 
d="M336 1166l-351 289h318l262 -289h-229z" />
    <glyph glyph-name="a" unicode="a" horiz-adv-x="1291" 
d="M644 177q144 0 209.5 91.5t65.5 244.5q0 157 -69.5 247.5t-210.5 90.5q-138 0 -211.5 -91t-73.5 -245t73.5 -246t216.5 -92zM613 -23q-125 0 -224 45t-159 120t-91 167t-31 193q0 107 32 203.5t93.5 175t162.5 125t229 46.5q186 0 286 -135v109h243v-1026h-249v140
q-112 -163 -292 -163z" />
    <glyph glyph-name="b" unicode="b" horiz-adv-x="1291" 
d="M658 177q69 0 121.5 27.5t83 75.5t46 106t15.5 125q0 148 -66 244t-192 96q-131 0 -208 -96.5t-77 -239.5q0 -91 29.5 -165.5t93.5 -123.5t154 -49zM704 -23q-103 0 -187.5 44.5t-121.5 105.5v-127h-254q2 68 4 121t3 75.5t1.5 39t0.5 22.5v14v1185h246v-575q5 18 25 44
t56.5 55.5t100 50t139.5 20.5q216 0 341 -149t125 -385q0 -118 -38.5 -220t-103.5 -172t-152.5 -109.5t-184.5 -39.5z" />
    <glyph glyph-name="c" unicode="c" horiz-adv-x="1071" 
d="M644 -23q-125 0 -228.5 44t-169.5 119t-102 171.5t-36 202.5q0 152 62.5 273.5t185 193t285.5 71.5q242 0 372 -138l-89 -160q-111 98 -257 98t-224 -92t-78 -247q0 -151 83 -243.5t227 -92.5q20 0 40 2t36 5t33.5 8.5t29.5 10t27 12.5t23.5 12.5t21.5 13.5t17.5 12
t16 11.5t12.5 9.5l75 -182q-86 -60 -172 -87.5t-191 -27.5z" />
    <glyph glyph-name="d" unicode="d" horiz-adv-x="1267" 
d="M962 1026zM627 177q68 0 119 27.5t80.5 76t44 106.5t14.5 125q0 150 -65 244.5t-195 94.5q-87 0 -146.5 -47t-85 -120t-25.5 -168q0 -69 14.5 -128t44 -107.5t81 -76t119.5 -27.5zM576 -23q-199 0 -333.5 146t-134.5 385q0 109 31 206t89.5 173t153.5 120.5t213 44.5
q106 0 179.5 -43.5t102.5 -90.5v539h246v-1183q0 -6 9 -274h-254l-2 131q-9 -23 -30 -47t-56 -49.5t-91 -41.5t-123 -16z" />
    <glyph glyph-name="e" unicode="e" horiz-adv-x="1206" 
d="M373 636h510q-18 109 -81 167t-154 58q-107 0 -179 -60t-96 -165zM666 -23q-259 0 -408.5 148t-149.5 387q0 108 36 205t101.5 172t166 119t222.5 44t213 -42t144 -117.5t78.5 -169.5t25.5 -208q0 -29 -5 -44h-720q6 -150 91.5 -222t227.5 -72q166 0 324 110l67 -180
q-97 -67 -195.5 -98.5t-218.5 -31.5z" />
    <glyph glyph-name="f" unicode="f" horiz-adv-x="820" 
d="M261 0v860h-191v166h191v40q0 70 3 116t13 94.5t28.5 78t50 57t77.5 42t110.5 23t149.5 8.5h53l-9 -193q-57 0 -90.5 -2t-62 -11.5t-41.5 -22t-22 -41t-11 -60t-2 -86.5v-43h231v-166h-231v-860h-247z" />
    <glyph glyph-name="g" unicode="g" horiz-adv-x="1235" 
d="M626 187q59 0 104 19.5t73 51t45.5 75.5t24 88.5t6.5 94.5q0 150 -62.5 242.5t-187.5 92.5q-86 0 -146.5 -48.5t-87.5 -122.5t-27 -165q0 -154 63 -241t195 -87zM578 -418q-200 0 -390 70l43 214q150 -78 329 -78q144 0 225 61.5t81 185.5v87q-88 -122 -257 -122
q-227 0 -364 139.5t-137 375.5q0 108 29 202.5t86 170.5t151.5 120t215.5 44q95 0 166.5 -38t110.5 -98v110h263q-20 -152 -20 -344v-535q0 -565 -532 -565z" />
    <glyph glyph-name="h" unicode="h" horiz-adv-x="1219" 
d="M144 0v1457h248v-564q37 71 130 115t177 44q71 0 129.5 -17t98.5 -45t70 -68.5t47 -82t27.5 -91.5t14 -91t3.5 -86v-571h-248v579q0 145 -45 208.5t-135 63.5q-102 0 -185.5 -70.5t-83.5 -162.5v-618h-248z" />
    <glyph glyph-name="i" unicode="i" horiz-adv-x="524" 
d="M142 1238v218h240v-218h-240zM143 0v1026h239v-1026h-239z" />
    <glyph glyph-name="j" unicode="j" horiz-adv-x="600" 
d="M224 1228v228h246v-228h-246zM100 -362q-55 0 -101.5 7t-64.5 13l-19 7l28 170q62 -19 143 -19q36 0 58 6.5t40 27.5t26 62t8 108v1006h253v-1035q0 -90 -16.5 -152t-57 -109t-114 -69.5t-183.5 -22.5zM-57 -165l-3 1h3v-1z" />
    <glyph glyph-name="k" unicode="k" horiz-adv-x="1076" 
d="M140 0v1457h248v-850l371 419h342l-489 -496l521 -530h-328l-417 444v-444h-248z" />
    <glyph glyph-name="l" unicode="l" horiz-adv-x="526" 
d="M187 1026zM142 0v1457h245v-1457h-245z" />
    <glyph glyph-name="m" unicode="m" horiz-adv-x="1839" 
d="M160 0v696q0 106 -10 218l-9 112h261v-134q38 70 116.5 115t170.5 45q99 0 181 -48t126 -142q132 190 333 190q188 0 282.5 -113t94.5 -310v-629h-248v614q0 41 -7 79t-22.5 75.5t-46 60t-72.5 22.5q-110 0 -181 -84t-71 -186v-581h-248v627q0 30 -3.5 57.5t-13.5 59
t-26.5 54.5t-46 38t-67.5 15q-105 0 -175 -68.5t-70 -159.5v-623h-248z" />
    <glyph glyph-name="n" unicode="n" horiz-adv-x="1224" 
d="M158 0v635q0 109 -5 206.5t-10 140.5l-5 44h263v-137q53 80 141.5 121.5t171.5 41.5q89 0 156 -23.5t118.5 -76t78.5 -144.5t27 -223v-585h-248v602q0 136 -42.5 192.5t-140.5 56.5q-36 0 -79 -16t-83.5 -44.5t-67.5 -75t-27 -101.5v-614h-248z" />
    <glyph glyph-name="o" unicode="o" horiz-adv-x="1286" 
d="M648 -23q-134 0 -239 43.5t-169.5 118t-98 170t-33.5 204.5q0 111 34 207.5t99.5 171t170 117.5t235.5 43q134 0 238 -42.5t167 -117t94.5 -171t31.5 -210.5q0 -107 -33 -201.5t-96.5 -169.5t-167 -119t-233.5 -44zM643 177q73 0 128 27.5t86.5 76t47 107.5t15.5 128
q0 147 -69.5 241t-206.5 94q-93 0 -157 -46.5t-92.5 -120.5t-28.5 -168q0 -93 26.5 -167t91 -123t159.5 -49z" />
    <glyph glyph-name="p" unicode="p" horiz-adv-x="1273" 
d="M650 177q69 0 120.5 27.5t81 75.5t44 106.5t14.5 127.5q0 95 -26 169t-86.5 121t-148.5 47q-87 0 -147 -46.5t-86 -119t-26 -166.5q0 -70 14.5 -129.5t44.5 -108t81.5 -76.5t119.5 -28zM160 -395v1076q0 89 -19 345h263v-147q12 56 100.5 114.5t216.5 58.5
q135 0 238.5 -74.5t156 -193.5t52.5 -259q0 -105 -31 -202.5t-88 -175t-146 -124t-196 -46.5q-121 0 -206 57t-97 107v-536h-244z" />
    <glyph glyph-name="q" unicode="q" horiz-adv-x="1250" 
d="M622 177q90 0 150 48.5t85 121t25 164.5q0 149 -66 244.5t-196 95.5q-87 0 -146.5 -47t-85 -120t-25.5 -168q0 -69 14.5 -128t44 -107.5t81 -76t119.5 -27.5zM868 -395v477q-132 -105 -281 -105q-96 0 -176 30.5t-136 83t-95 123.5t-57 150t-18 164q0 104 32 198
t91.5 167t152.5 116t208 43q72 0 147 -34t134 -102v110h253q-10 -135 -10 -296v-1125h-245z" />
    <glyph glyph-name="r" unicode="r" horiz-adv-x="780" 
d="M162 0v766q0 60 -5 125t-10 100l-5 35h264v-135q61 80 121.5 120.5t136.5 40.5q45 0 102 -15v-217q-67 22 -124 22q-103 0 -168 -67t-65 -194v-581h-247z" />
    <glyph glyph-name="s" unicode="s" horiz-adv-x="988" 
d="M534 -23q-135 0 -248 38t-180 91l62 178q63 -49 159 -80.5t185 -31.5q83 0 125.5 28t42.5 91v18q0 32 -25 54.5t-115 51.5l-146 47q-56 18 -93 33.5t-75.5 39.5t-60 52.5t-35 70t-13.5 95.5q0 78 30.5 137t84.5 93t120 50.5t145 16.5q98 0 196 -25t172 -74l-64 -170
q-60 32 -140.5 54t-145.5 22q-85 0 -123 -21t-38 -69q0 -32 12 -50t50 -37t122 -47l133 -45q80 -27 128.5 -59t78 -91t29.5 -148q0 -68 -22.5 -123t-59 -90t-86 -58t-100.5 -32.5t-105 -9.5z" />
    <glyph glyph-name="t" unicode="t" horiz-adv-x="804" 
d="M267 1360zM738 1h-100q-60 0 -104 3t-90.5 13t-79 26.5t-62.5 44.5t-48 67.5t-28.5 94.5t-10.5 126v484h-214v166h224v240l237 73v-313h268v-166h-268v-499q0 -48 7.5 -77.5t22.5 -49t50.5 -28.5t77.5 -12t118 -3v-190z" />
    <glyph glyph-name="u" unicode="u" horiz-adv-x="1186" 
d="M524 -23q-186 0 -290 106.5t-104 292.5v650h246v-646q0 -102 53 -152.5t146 -50.5q111 0 164.5 55.5t53.5 178.5v615h248v-750l12 -276h-256l-4 152q-5 -22 -22.5 -48.5t-48 -56.5t-83 -50t-115.5 -20z" />
    <glyph glyph-name="v" unicode="v" horiz-adv-x="1126" 
d="M449 0l-432 1026h276q266 -715 279 -749q79 215 269 749h269l-436 -1026h-225z" />
    <glyph glyph-name="w" unicode="w" horiz-adv-x="1685" 
d="M386 0l-372 1026h264q156 -480 234 -721q40 121 242 721h216q26 -80 72.5 -227.5t85 -268t73.5 -227.5q29 91 239 723h231l-389 -1026h-207q-211 631 -233 698q-39 -111 -248 -698h-208z" />
    <glyph glyph-name="x" unicode="x" horiz-adv-x="1040" 
d="M11 0l370 500l-353 526h276l221 -331l246 331h256l-362 -492l364 -534h-275l-232 339l-250 -339h-261z" />
    <glyph glyph-name="y" unicode="y" horiz-adv-x="1114" 
d="M254 -445l-104 168q139 54 208.5 111.5t93.5 138.5l14 50l-436 1003h258l297 -736l256 736h253l-416 -1082q-43 -106 -113 -187.5t-146 -127.5t-165 -74z" />
    <glyph glyph-name="z" unicode="z" horiz-adv-x="997" 
d="M97 0v131l484 697h-459v198h781v-129l-488 -700h514v-197h-832z" />
    <glyph glyph-name="braceleft" unicode="{" horiz-adv-x="987" 
d="M598 1176v-223q0 -263 -244 -270q244 -3 244 -259v-226q0 -48 2 -76.5t16 -51t25.5 -32t50.5 -15.5t69 -7t102 -1h1v-195h-9q-116 0 -194.5 6.5t-138 25t-93 44.5t-54 72.5t-27 100.5t-6.5 137v230q0 102 -37 136t-143 34h-13v149h13q109 0 145 35.5t36 142.5v231
q0 83 7 137.5t29 99.5t56 70t95 42.5t139 23t195 5.5v-195h-77q-45 0 -69.5 -1t-49.5 -7t-35.5 -16t-20 -30.5t-12 -47.5t-2.5 -69z" />
    <glyph glyph-name="bar" unicode="|" horiz-adv-x="395" 
d="M79 -455v1961h237v-1961h-237z" />
    <glyph glyph-name="braceright" unicode="}" horiz-adv-x="982" 
d="M108 -180v194h77q45 0 69.5 1t49.5 7t35.5 16t20 30.5t12 47.5t2.5 69v223q0 263 244 271q-244 1 -244 258v226q0 48 -2 76.5t-16 51t-25.5 32t-50.5 15.5t-69.5 7t-102.5 1h-1v196h9q116 0 194.5 -6.5t138 -25.5t93 -45t54 -72.5t27 -100.5t6.5 -137v-230
q0 -102 37.5 -136t143.5 -34h13v-149h-13q-109 0 -145 -35.5t-36 -142.5v-231q0 -83 -7 -137.5t-29 -99.5t-56 -69.5t-95 -42t-139 -23t-195 -5.5z" />
    <glyph glyph-name="asciitilde" unicode="~" horiz-adv-x="1508" 
d="M335 367l-153 74q27 93 58.5 152.5t70 88t74.5 38t87 9.5q112 0 293 -64q154 -59 258 -59q39 0 57 8t33 39.5t31 102.5l158 -71q-31 -123 -68 -187t-79 -84t-112 -20q-121 0 -337 70q-146 50 -215 50q-63 0 -92.5 -26t-63.5 -121z" />
    <glyph glyph-name="uni007F" horiz-adv-x="1521" 
d="M188 0v1456h1145v-1456h-1145zM360 124h801v1206h-801v-1206z" />
    <glyph glyph-name="uni00A0" unicode="&#xa0;" horiz-adv-x="599" 
 />
    <glyph glyph-name="exclamdown" unicode="&#xa1;" horiz-adv-x="786" 
d="M223 1156h314v-273h-314v273zM308 769h147l74 -1069h-295z" />
    <glyph glyph-name="cent" unicode="&#xa2;" horiz-adv-x="1076" 
d="M606 -242h138v226q136 20 263 108l-75 182q-1 -1 -12.5 -9.5t-16.5 -12t-18 -12.5t-22.5 -14t-24.5 -12.5t-28.5 -12.5t-30.5 -10t-35 -8v662q99 -19 180 -91l89 160q-101 107 -269 131v205h-138v-199q-230 -12 -364 -162t-134 -375q0 -102 33 -195.5t95 -167t157.5 -120
t212.5 -53.5v-220zM606 847v-664q-114 22 -177.5 110.5t-63.5 219.5q0 137 61.5 226t179.5 108z" />
    <glyph glyph-name="sterling" unicode="&#xa3;" horiz-adv-x="1255" 
d="M1091 1219q-139 63 -261 63q-131 0 -191 -76.5t-60 -256.5v-107h338v-193h-339v-31q0 -155 -15.5 -254t-59.5 -160h675v-204h-1032v186q5 5 32.5 30t37.5 36.5t33 40.5t33.5 56t24 67.5t19 92t5.5 113.5v27h-185v193h182v50q0 105 11.5 186.5t43.5 160.5t85 130.5
t140.5 83t205.5 31.5q203 0 338 -73z" />
    <glyph glyph-name="currency" unicode="&#xa4;" horiz-adv-x="1218" 
d="M609 710q130 0 216 89.5t86 220.5t-86 221t-216 90t-216 -90t-86 -221t86 -220.5t216 -89.5zM171 543l-51 51l187 187q-88 106 -88 243q0 144 95 252l-195 195l51 51l197 -196q105 83 243 83q135 0 243 -82l195 195l51 -51l-193 -193q96 -109 96 -254q0 -139 -89 -245
l186 -185l-51 -51l-186 186q-109 -90 -252 -90t-252 91z" />
    <glyph glyph-name="yen" unicode="&#xa5;" horiz-adv-x="1280" 
d="M136 275v144h371v140h-371v150h286l-434 747h289l361 -667l358 667h296l-445 -747h284v-150h-370v-140h373v-144h-373v-275h-254v275h-371z" />
    <glyph glyph-name="brokenbar" unicode="&#xa6;" horiz-adv-x="500" 
d="M92 565v941h247v-941h-247zM94 -455v870h247v-870h-247z" />
    <glyph glyph-name="section" unicode="&#xa7;" horiz-adv-x="1104" 
d="M643 592q31 41 31 93q0 17 -3 30.5t-13.5 25.5t-18.5 20t-29 19t-33.5 17t-44 20t-48.5 22q-19 -13 -39 -41.5t-20 -64.5q0 -20 7.5 -33.5t29 -27t40.5 -21.5t63.5 -26t77.5 -33zM522 -61q-170 0 -335 61v209q69 -27 159 -46t166 -19q68 0 111.5 28t43.5 84
q0 33 -49.5 64t-238.5 122q-97 46 -152.5 115t-55.5 155q0 138 130 231q-56 44 -81.5 100t-25.5 136q0 148 110 225t279 77q151 0 299 -50v-202q-17 3 -66.5 19t-102 28t-97.5 12q-61 0 -105 -24.5t-44 -70.5q0 -44 53.5 -87t162.5 -94q66 -34 102.5 -57t80 -59t63.5 -79
t20 -95q0 -123 -129 -229q120 -70 120 -231q0 -107 -58.5 -181.5t-150.5 -108t-209 -33.5z" />
    <glyph glyph-name="dieresis" unicode="&#xa8;" horiz-adv-x="743" 
d="M476 1151v225h245v-225h-245zM18 1151v225h247v-225h-247z" />
    <glyph glyph-name="copyright" unicode="&#xa9;" horiz-adv-x="1713" 
d="M857 -22q-122 0 -236.5 38.5t-207 108.5t-162 162.5t-107.5 207.5t-38 237q0 152 59.5 291t160 240t240 160.5t291.5 59.5t291 -59.5t239.5 -160.5t160 -240t59.5 -291t-59.5 -292t-160 -241t-239.5 -161t-291 -60zM855 93q169 0 311.5 86.5t224.5 232.5t82 317
q0 170 -82 315.5t-224.5 231t-311.5 85.5t-311.5 -85.5t-224.5 -231t-82 -315.5q0 -171 82 -317t224.5 -232.5t311.5 -86.5zM876 283q-106 0 -191.5 36.5t-138.5 99t-81 141.5t-28 167q0 191 118.5 316.5t318.5 125.5q198 0 306 -114l-72 -131q-93 80 -212 80t-182.5 -75.5
t-63.5 -201.5q0 -125 66 -202t187 -77q33 0 65.5 7t50.5 13.5t44 22.5t28.5 18t21.5 17l62 -151q-131 -92 -299 -92z" />
    <glyph glyph-name="ordfeminine" unicode="&#xaa;" horiz-adv-x="868" 
d="M361 850q30 0 60.5 10t60 29.5t48 56t18.5 83.5v14q-170 0 -221.5 -17.5t-51.5 -89.5q0 -38 26.5 -62t59.5 -24zM348 721q-99 0 -170 56.5t-71 158.5q0 104 67 160t199 56h178v40q0 123 -130 123q-46 0 -102 -13.5t-89 -26.5l-34 -13l-58 145q14 8 39 19.5t105 30.5
t162 19q64 0 116.5 -15t96 -47.5t67.5 -91t24 -138.5q0 -21 3 -276q3 -106 10 -154h-181l-17 98q-14 -49 -70.5 -90t-144.5 -41z" />
    <glyph glyph-name="guillemotleft" unicode="&#xab;" horiz-adv-x="1177" 
d="M854 158l-277 383l283 381h200l-238 -383l230 -381h-198zM413 158l-277 383l283 381h200l-238 -383l230 -381h-198z" />
    <glyph glyph-name="logicalnot" unicode="&#xac;" horiz-adv-x="1457" 
d="M995 220v389h-832v205h1065v-594h-233z" />
    <glyph glyph-name="uni00AD" unicode="&#xad;" horiz-adv-x="739" 
d="M54 457v190h632v-190h-632z" />
    <glyph glyph-name="registered" unicode="&#xae;" horiz-adv-x="1713" 
d="M857 -22q-122 0 -236.5 38.5t-207 108.5t-162 162.5t-107.5 207.5t-38 237q0 152 59.5 291t160 240t240 160.5t291.5 59.5t291 -59.5t239.5 -160.5t160 -240t59.5 -291t-59.5 -292t-160 -241t-239.5 -161t-291 -60zM855 93q169 0 311.5 86.5t224.5 232.5t82 317
q0 170 -82 315.5t-224.5 231t-311.5 85.5t-311.5 -85.5t-224.5 -231t-82 -315.5q0 -171 82 -317t224.5 -232.5t311.5 -86.5zM735 788h90q98 0 146 22.5t48 84.5q0 72 -32 90t-144 18h-108v-215zM519 290v881h318q205 0 300.5 -66.5t95.5 -197.5q0 -194 -177 -242l188 -375
h-235l-152 340h-123v-340h-215z" />
    <glyph glyph-name="macron" unicode="&#xaf;" horiz-adv-x="756" 
d="M66 1146v157h624v-157h-624z" />
    <glyph glyph-name="degree" unicode="&#xb0;" horiz-adv-x="886" 
d="M443 849q-129 0 -221.5 89.5t-92.5 218.5q0 128 92.5 218.5t221.5 90.5t221.5 -90t92.5 -219q0 -130 -92 -219t-222 -89zM443 984q72 0 120.5 49.5t48.5 122.5t-48.5 122.5t-120.5 49.5q-71 0 -118.5 -49.5t-47.5 -122.5t48 -122.5t118 -49.5z" />
    <glyph glyph-name="plusminus" unicode="&#xb1;" horiz-adv-x="1272" 
d="M190 0v184h890v-184h-890zM515 291v301h-325v200h319v307h237v-307h332v-200h-322v-301h-241z" />
    <glyph glyph-name="uni00B2" unicode="&#xb2;" horiz-adv-x="1072" 
d="M225 613v182l261 227q135 115 135 179q0 86 -102 86q-101 0 -250 -64l-60 166q166 77 325 77q130 0 214 -65.5t84 -197.5q0 -85 -55.5 -158.5t-157.5 -158.5l-89 -73h289v-200h-594z" />
    <glyph glyph-name="uni00B3" unicode="&#xb3;" horiz-adv-x="909" 
d="M502 604q-164 0 -299 93l62 134q129 -75 221 -75q62 0 97 34t35 88q0 46 -41 76t-112 30h-95v142h93q57 0 95.5 28t38.5 67q0 48 -34 73.5t-90 25.5q-99 0 -220 -65l-61 123q155 85 318 85q120 0 196 -53.5t76 -160.5q0 -128 -137 -176q89 -24 128.5 -78.5t39.5 -119.5
q0 -91 -45 -154t-113.5 -90t-152.5 -27z" />
    <glyph glyph-name="acute" unicode="&#xb4;" horiz-adv-x="607" 
d="M39 1166l264 290h318l-354 -290h-228z" />
    <glyph glyph-name="mu" unicode="&#xb5;" horiz-adv-x="1230" 
d="M801 285q-78 -105 -202 -105q-88 0 -127 60t-39 200v642h-306v-1398h306v301q33 -5 70 -5q216 0 326 172l15 -152h264v1082h-307v-797z" />
    <glyph glyph-name="paragraph" unicode="&#xb6;" horiz-adv-x="1226" 
d="M412 -178v967q-160 14 -240.5 101t-80.5 239q0 77 23.5 134.5t64.5 93.5t103 58.5t131 31t157 8.5h494v-192h-73v-1441h-206v1441h-168v-1441h-205z" />
    <glyph glyph-name="periodcentered" unicode="&#xb7;" horiz-adv-x="596" 
d="M187 561v282h304v-282h-304z" />
    <glyph glyph-name="cedilla" unicode="&#xb8;" horiz-adv-x="529" 
d="M17 -426l11 132q33 -14 82 -26t92 -12q101 0 101 73q0 96 -153 119l-29 4l31 175h124l-17 -114q108 -8 165 -68t57 -140q0 -30 -6.5 -56t-18.5 -46.5t-29 -37t-37.5 -28t-45 -19.5t-50 -11.5t-53.5 -3.5q-120 0 -224 59z" />
    <glyph glyph-name="uni00B9" unicode="&#xb9;" horiz-adv-x="851" 
d="M147 625v165h219v480q5 3 -48.5 -9.5t-114.5 -27t-67 -15.5v171q18 5 47.5 14t91 27.5t100.5 29t35 8.5l160 -4v-676h189v-163h-612z" />
    <glyph glyph-name="ordmasculine" unicode="&#xba;" horiz-adv-x="913" 
d="M460 713q-185 0 -286 102t-101 265q0 157 103.5 260t280.5 103q178 0 280.5 -104.5t102.5 -262.5q0 -155 -101.5 -259t-278.5 -104zM457 873q86 0 138 56t52 147q0 96 -51.5 151.5t-137.5 55.5q-84 0 -138 -56t-54 -149q0 -95 51 -150t140 -55z" />
    <glyph glyph-name="guillemotright" unicode="&#xbb;" horiz-adv-x="1177" 
d="M575 158l239 383l-231 381h199l277 -383l-283 -381h-201zM134 158l239 383l-231 381h199l277 -383l-283 -381h-201z" />
    <glyph glyph-name="onequarter" unicode="&#xbc;" horiz-adv-x="2113" 
d="M1551 329h178v254zM629 0l885 1456h213l-884 -1456h-214zM1731 1v194h-369v113l369 506h180v-485h116v-134h-116v-194h-180zM225 619v167h211v471l-224 -53v175q17 5 45.5 13.5t88 26t97.5 28.5t35 9h156v-672h184v-165h-593z" />
    <glyph glyph-name="onehalf" unicode="&#xbd;" horiz-adv-x="2554" 
d="M194 619v167h211v471l-224 -53v175q17 5 45.5 13.5t88 26t97.5 28.5t35 9h156v-672h184v-165h-593zM638 0l885 1456h213l-884 -1456h-214zM2005 562q0 113 -107 113q-109 0 -245 -67l-62 160q158 83 322 83q82 0 145 -26t104 -85.5t45 -148.5v-11q0 -84 -56.5 -160.5
t-156.5 -154.5l-93 -72h294v-193h-590v169l274 220q73 59 99.5 97t26.5 76z" />
    <glyph glyph-name="threequarters" unicode="&#xbe;" horiz-adv-x="2534" 
d="M1582 329h178v254zM650 0l885 1456h213l-884 -1456h-214zM1762 1v194h-369v113l368 506h181v-485h115v-134h-115v-194h-180zM536 603q-166 0 -297 94l61 135q125 -76 221 -76q63 0 98 32t35 87q0 48 -42.5 78.5t-115.5 30.5h-92v143h90q59 0 98.5 26t39.5 67
q0 96 -122 96q-104 0 -221 -66l-61 126q154 86 315 86q120 0 195 -54.5t75 -161.5q0 -133 -139 -176q90 -22 130 -76.5t40 -121.5q0 -133 -88.5 -201t-219.5 -68z" />
    <glyph glyph-name="questiondown" unicode="&#xbf;" horiz-adv-x="1032" 
d="M756 1164v-273h-313v273h313zM714 753v-137q0 -53 -19.5 -103t-50 -90t-68 -78.5t-75 -74t-68 -70t-50 -74t-19.5 -79.5q0 -78 55.5 -114.5t147.5 -36.5q78 0 164.5 22t137.5 44v-211q-135 -72 -325 -72q-119 0 -216 38.5t-159 122t-62 200.5q0 61 22.5 116t58.5 97
t79.5 81.5t87 78t79.5 78.5t58.5 90.5t22.5 106.5v65h199z" />
    <glyph glyph-name="Agrave" unicode="&#xc0;" horiz-adv-x="1458" 
d="M626 1596l-351 289h318l262 -289h-229zM524 592h390q-115 341 -193 567q-65 -189 -197 -567zM12 0l585 1456h258l590 -1456h-287l-141 355h-588l-138 -355h-279z" />
    <glyph glyph-name="Aacute" unicode="&#xc1;" horiz-adv-x="1458" 
d="M620 1596l264 290h318l-354 -290h-228zM524 592h390q-115 341 -193 567q-65 -189 -197 -567zM12 0l585 1456h258l590 -1456h-287l-141 355h-588l-138 -355h-279z" />
    <glyph glyph-name="Acircumflex" unicode="&#xc2;" horiz-adv-x="1458" 
d="M341 1615l257 370h252l265 -370h-247l-136 196l-139 -196h-252zM524 592h390q-115 341 -193 567q-65 -189 -197 -567zM12 0l585 1456h258l590 -1456h-287l-141 355h-588l-138 -355h-279z" />
    <glyph glyph-name="Atilde" unicode="&#xc3;" horiz-adv-x="1458" 
d="M791 1604h-1q-42 0 -101 27t-111 53.5t-76 26.5q-22 0 -42.5 -25t-25.5 -77h-160q0 128 60.5 209.5t157.5 81.5q51 0 109.5 -25t107 -52t68.5 -30q3 0 8 -0.5t7 -0.5q30 0 46.5 22.5t15.5 85.5h162q0 -148 -60 -221.5t-165 -74.5zM524 592h390q-115 341 -193 567
q-65 -189 -197 -567zM12 0l585 1456h258l590 -1456h-287l-141 355h-588l-138 -355h-279z" />
    <glyph glyph-name="Adieresis" unicode="&#xc4;" horiz-adv-x="1458" 
d="M830 1581v225h245v-225h-245zM372 1581v225h247v-225h-247zM524 592h390q-115 341 -193 567q-65 -189 -197 -567zM12 0l585 1456h258l590 -1456h-287l-141 355h-588l-138 -355h-279z" />
    <glyph glyph-name="Aring" unicode="&#xc5;" horiz-adv-x="1458" 
d="M725 1583q-92 0 -156 61t-64 152q0 92 63.5 152.5t156.5 60.5q92 0 156.5 -60.5t64.5 -152.5q0 -91 -64.5 -152t-156.5 -61zM726 1687q44 0 75.5 32t31.5 77t-31.5 76.5t-75.5 31.5t-75 -31.5t-31 -76.5t31 -77t75 -32zM524 592h390q-115 341 -193 567
q-65 -189 -197 -567zM12 0l585 1456h258l590 -1456h-287l-141 355h-588l-138 -355h-279z" />
    <glyph glyph-name="AE" unicode="&#xc6;" horiz-adv-x="2215" 
d="M634 558h467l-47 672h-34zM19 0l867 1456h1084v-226h-657l34 -376h621v-220h-593l39 -408h582v-226h-848l-29 355h-584l-202 -355h-314z" />
    <glyph glyph-name="Ccedilla" unicode="&#xc7;" horiz-adv-x="1436" 
d="M636 -426l11 132q33 -14 82 -26t92 -12q101 0 101 73q0 96 -153 119l-29 4l31 175h124l-17 -114q108 -8 165 -68t57 -140q0 -30 -6.5 -56t-18.5 -46.5t-29 -37t-37.5 -28t-45 -19.5t-50 -11.5t-53.5 -3.5q-120 0 -224 59zM835 -22q-144 0 -274 49.5t-232 141.5
t-162.5 236.5t-60.5 321.5q0 148 40.5 273.5t109.5 213t160 149.5t192 91t207 29q286 0 486 -157l-99 -177q-166 115 -366 115q-93 0 -176.5 -37t-147.5 -104t-102 -169t-38 -224q0 -241 136 -387t344 -146q219 0 402 147l85 -201q-212 -165 -504 -165z" />
    <glyph glyph-name="Egrave" unicode="&#xc8;" horiz-adv-x="1249" 
d="M565 1596l-351 289h318l262 -289h-229zM190 0v1456h919v-218h-665v-389h629v-219h-626v-412h691v-218h-948z" />
    <glyph glyph-name="Eacute" unicode="&#xc9;" horiz-adv-x="1249" 
d="M559 1596l264 290h318l-354 -290h-228zM190 0v1456h919v-218h-665v-389h629v-219h-626v-412h691v-218h-948z" />
    <glyph glyph-name="Ecircumflex" unicode="&#xca;" horiz-adv-x="1249" 
d="M279 1615l257 370h252l265 -370h-247l-136 196l-139 -196h-252zM190 0v1456h919v-218h-665v-389h629v-219h-626v-412h691v-218h-948z" />
    <glyph glyph-name="Edieresis" unicode="&#xcb;" horiz-adv-x="1249" 
d="M768 1581v225h245v-225h-245zM310 1581v225h247v-225h-247zM190 0v1456h919v-218h-665v-389h629v-219h-626v-412h691v-218h-948z" />
    <glyph glyph-name="Igrave" unicode="&#xcc;" horiz-adv-x="586" 
d="M182 1596l-351 289h318l262 -289h-229zM160 0v1456h254v-1456h-254z" />
    <glyph glyph-name="Iacute" unicode="&#xcd;" horiz-adv-x="586" 
d="M176 1596l264 290h318l-354 -290h-228zM160 0v1456h254v-1456h-254z" />
    <glyph glyph-name="Icircumflex" unicode="&#xce;" horiz-adv-x="586" 
d="M-104 1615l257 370h252l265 -370h-247l-136 196l-139 -196h-252zM160 0v1456h254v-1456h-254z" />
    <glyph glyph-name="Idieresis" unicode="&#xcf;" horiz-adv-x="586" 
d="M385 1581v225h245v-225h-245zM-73 1581v225h247v-225h-247zM160 0v1456h254v-1456h-254z" />
    <glyph glyph-name="Eth" unicode="&#xd0;" horiz-adv-x="1571" 
d="M26.9717 664.769v149.992h619.965v-149.992h-619.965zM190 0v1456h406q437 0 653 -185.5t216 -533.5q0 -361 -211.5 -549t-616.5 -188h-447zM444 218h206q264 0 405 132t141 388q0 243 -142.5 371.5t-434.5 128.5h-175v-1020z" />
    <glyph glyph-name="Ntilde" unicode="&#xd1;" horiz-adv-x="1630" 
d="M898 1604h-1q-42 0 -101 27t-111 53.5t-76 26.5q-22 0 -42.5 -25t-25.5 -77h-160q0 128 60.5 209.5t157.5 81.5q51 0 109.5 -25t107 -52t68.5 -30q3 0 8 -0.5t7 -0.5q30 0 46.5 22.5t15.5 85.5h162q0 -148 -60 -221.5t-165 -74.5zM190 0v1456h269q694 -1006 739 -1072
v1072h242v-1456h-270q-671 969 -745 1074v-1074h-235z" />
    <glyph glyph-name="Ograve" unicode="&#xd2;" 
d="M733 1596l-351 289h318l262 -289h-229zM840 -23q-341 0 -537.5 205.5t-196.5 552.5q0 338 197.5 543t539.5 205q331 0 526.5 -204.5t195.5 -543.5q0 -348 -193 -553t-532 -205zM834 194q223 0 339 140.5t116 400.5q0 252 -116 391.5t-335 139.5q-221 0 -339.5 -139.5
t-118.5 -391.5q0 -261 115 -401t339 -140z" />
    <glyph glyph-name="Oacute" unicode="&#xd3;" 
d="M727 1596l264 290h318l-354 -290h-228zM840 -23q-341 0 -537.5 205.5t-196.5 552.5q0 338 197.5 543t539.5 205q331 0 526.5 -204.5t195.5 -543.5q0 -348 -193 -553t-532 -205zM834 194q223 0 339 140.5t116 400.5q0 252 -116 391.5t-335 139.5q-221 0 -339.5 -139.5
t-118.5 -391.5q0 -261 115 -401t339 -140z" />
    <glyph glyph-name="Ocircumflex" unicode="&#xd4;" 
d="M448 1615l257 370h252l265 -370h-247l-136 196l-139 -196h-252zM840 -23q-341 0 -537.5 205.5t-196.5 552.5q0 338 197.5 543t539.5 205q331 0 526.5 -204.5t195.5 -543.5q0 -348 -193 -553t-532 -205zM834 194q223 0 339 140.5t116 400.5q0 252 -116 391.5t-335 139.5
q-221 0 -339.5 -139.5t-118.5 -391.5q0 -261 115 -401t339 -140z" />
    <glyph glyph-name="Otilde" unicode="&#xd5;" 
d="M898 1604h-1q-42 0 -101 27t-111 53.5t-76 26.5q-22 0 -42.5 -25t-25.5 -77h-160q0 128 60.5 209.5t157.5 81.5q51 0 109.5 -25t107 -52t68.5 -30q3 0 8 -0.5t7 -0.5q30 0 46.5 22.5t15.5 85.5h162q0 -148 -60 -221.5t-165 -74.5zM840 -23q-341 0 -537.5 205.5
t-196.5 552.5q0 338 197.5 543t539.5 205q331 0 526.5 -204.5t195.5 -543.5q0 -348 -193 -553t-532 -205zM834 194q223 0 339 140.5t116 400.5q0 252 -116 391.5t-335 139.5q-221 0 -339.5 -139.5t-118.5 -391.5q0 -261 115 -401t339 -140z" />
    <glyph glyph-name="Odieresis" unicode="&#xd6;" 
d="M937 1581v225h245v-225h-245zM479 1581v225h247v-225h-247zM840 -23q-341 0 -537.5 205.5t-196.5 552.5q0 338 197.5 543t539.5 205q331 0 526.5 -204.5t195.5 -543.5q0 -348 -193 -553t-532 -205zM834 194q223 0 339 140.5t116 400.5q0 252 -116 391.5t-335 139.5
q-221 0 -339.5 -139.5t-118.5 -391.5q0 -261 115 -401t339 -140z" />
    <glyph glyph-name="multiply" unicode="&#xd7;" horiz-adv-x="1272" 
d="M362 116l-161 162l269 269l-269 269l161 161l269 -268l271 268l160 -160l-270 -270l270 -271l-160 -160l-271 270z" />
    <glyph glyph-name="Oslash" unicode="&#xd8;" 
d="M840 -23q339 0 532 205t193 553q0 213 -80.5 377.5t-229.5 259.5l81 151l-116 52l-78 -145q-133 53 -299 53q-342 0 -539.5 -205t-197.5 -543q0 -220 82 -387.5t235 -262.5l-86 -160l115 -53l84 157q136 -52 304 -52zM1141 1160q148 -137 148 -425q0 -260 -116 -400.5
t-339 -140.5q-110 0 -192 33zM1035 1229l-501 -936q-154 136 -154 442q0 252 118.5 391.5t339.5 139.5q111 0 197 -37z" />
    <glyph glyph-name="Ugrave" unicode="&#xd9;" horiz-adv-x="1509" 
d="M641 1596l-351 289h318l262 -289h-229zM755 -23q-140 0 -246 34t-170.5 89.5t-104.5 138t-55 168.5t-15 192v857h254v-868q0 -90 17 -159t46.5 -113t73 -72t92 -39t107.5 -11q76 0 134.5 19t105.5 62.5t72 122.5t25 191v867h254v-858q0 -105 -14 -190t-53.5 -168
t-103.5 -139t-170.5 -90t-248.5 -34z" />
    <glyph glyph-name="Uacute" unicode="&#xda;" horiz-adv-x="1509" 
d="M635 1596l264 290h318l-354 -290h-228zM755 -23q-140 0 -246 34t-170.5 89.5t-104.5 138t-55 168.5t-15 192v857h254v-868q0 -90 17 -159t46.5 -113t73 -72t92 -39t107.5 -11q76 0 134.5 19t105.5 62.5t72 122.5t25 191v867h254v-858q0 -105 -14 -190t-53.5 -168
t-103.5 -139t-170.5 -90t-248.5 -34z" />
    <glyph glyph-name="Ucircumflex" unicode="&#xdb;" horiz-adv-x="1509" 
d="M356 1615l257 370h252l265 -370h-247l-136 196l-139 -196h-252zM755 -23q-140 0 -246 34t-170.5 89.5t-104.5 138t-55 168.5t-15 192v857h254v-868q0 -90 17 -159t46.5 -113t73 -72t92 -39t107.5 -11q76 0 134.5 19t105.5 62.5t72 122.5t25 191v867h254v-858
q0 -105 -14 -190t-53.5 -168t-103.5 -139t-170.5 -90t-248.5 -34z" />
    <glyph glyph-name="Udieresis" unicode="&#xdc;" horiz-adv-x="1509" 
d="M845 1581v225h245v-225h-245zM387 1581v225h247v-225h-247zM755 -23q-140 0 -246 34t-170.5 89.5t-104.5 138t-55 168.5t-15 192v857h254v-868q0 -90 17 -159t46.5 -113t73 -72t92 -39t107.5 -11q76 0 134.5 19t105.5 62.5t72 122.5t25 191v867h254v-858q0 -105 -14 -190
t-53.5 -168t-103.5 -139t-170.5 -90t-248.5 -34z" />
    <glyph glyph-name="Yacute" unicode="&#xdd;" horiz-adv-x="1281" 
d="M545 1596l264 290h318l-354 -290h-228zM505 0v563l-519 893h289l361 -667l358 667h296l-531 -892v-564h-254z" />
    <glyph glyph-name="Thorn" unicode="&#xde;" horiz-adv-x="1300" 
d="M440 545h221q287 0 287 229q0 69 -22.5 115.5t-68.5 72t-104 35.5t-141 10h-172v-462zM190 0v1456h253v-233h157q111 0 197.5 -10.5t168.5 -40.5t136 -79t86.5 -130t32.5 -190q0 -91 -32 -166t-88 -126.5t-132.5 -87t-164 -51.5t-184.5 -16h-180v-326h-250z" />
    <glyph glyph-name="germandbls" unicode="&#xdf;" horiz-adv-x="1265" 
d="M763 175q159 0 159 160q0 113 -77.5 194.5t-273.5 179.5v188q80 35 140.5 103.5t60.5 145.5q0 62 -48.5 98t-115.5 36q-100 0 -160.5 -72.5t-60.5 -208.5v-999h-240l-3 1000q-1 238 122 358t341 120q192 0 314 -89t122 -228q0 -92 -50.5 -178t-141.5 -131
q-49 -25 -107 -41q95 -21 174.5 -58t143.5 -92t100 -133.5t36 -173.5q0 -170 -106 -273t-264 -103q-78 0 -159 15t-123 29l-42 15l44 193q13 -6 34 -15t78 -24.5t103 -15.5z" />
    <glyph glyph-name="agrave" unicode="&#xe0;" horiz-adv-x="1291" 
d="M588 1166l-351 289h318l262 -289h-229zM644 177q144 0 209.5 91.5t65.5 244.5q0 157 -69.5 247.5t-210.5 90.5q-138 0 -211.5 -91t-73.5 -245t73.5 -246t216.5 -92zM613 -23q-125 0 -224 45t-159 120t-91 167t-31 193q0 107 32 203.5t93.5 175t162.5 125t229 46.5
q186 0 286 -135v109h243v-1026h-249v140q-112 -163 -292 -163z" />
    <glyph glyph-name="aacute" unicode="&#xe1;" horiz-adv-x="1291" 
d="M581 1166l264 290h318l-354 -290h-228zM644 177q144 0 209.5 91.5t65.5 244.5q0 157 -69.5 247.5t-210.5 90.5q-138 0 -211.5 -91t-73.5 -245t73.5 -246t216.5 -92zM613 -23q-125 0 -224 45t-159 120t-91 167t-31 193q0 107 32 203.5t93.5 175t162.5 125t229 46.5
q186 0 286 -135v109h243v-1026h-249v140q-112 -163 -292 -163z" />
    <glyph glyph-name="acircumflex" unicode="&#xe2;" horiz-adv-x="1291" 
d="M302 1185l257 370h252l265 -370h-247l-136 196l-139 -196h-252zM644 177q144 0 209.5 91.5t65.5 244.5q0 157 -69.5 247.5t-210.5 90.5q-138 0 -211.5 -91t-73.5 -245t73.5 -246t216.5 -92zM613 -23q-125 0 -224 45t-159 120t-91 167t-31 193q0 107 32 203.5t93.5 175
t162.5 125t229 46.5q186 0 286 -135v109h243v-1026h-249v140q-112 -163 -292 -163z" />
    <glyph glyph-name="atilde" unicode="&#xe3;" horiz-adv-x="1291" 
d="M752 1174h-1q-42 0 -101 27t-111 53.5t-76 26.5q-22 0 -42.5 -25t-25.5 -77h-160q0 128 60.5 209.5t157.5 81.5q51 0 109.5 -25t107 -52t68.5 -30q3 0 8 -0.5t7 -0.5q30 0 46.5 22.5t15.5 85.5h162q0 -148 -60 -221.5t-165 -74.5zM644 177q144 0 209.5 91.5t65.5 244.5
q0 157 -69.5 247.5t-210.5 90.5q-138 0 -211.5 -91t-73.5 -245t73.5 -246t216.5 -92zM613 -23q-125 0 -224 45t-159 120t-91 167t-31 193q0 107 32 203.5t93.5 175t162.5 125t229 46.5q186 0 286 -135v109h243v-1026h-249v140q-112 -163 -292 -163z" />
    <glyph glyph-name="adieresis" unicode="&#xe4;" horiz-adv-x="1291" 
d="M791 1151v225h245v-225h-245zM333 1151v225h247v-225h-247zM644 177q144 0 209.5 91.5t65.5 244.5q0 157 -69.5 247.5t-210.5 90.5q-138 0 -211.5 -91t-73.5 -245t73.5 -246t216.5 -92zM613 -23q-125 0 -224 45t-159 120t-91 167t-31 193q0 107 32 203.5t93.5 175
t162.5 125t229 46.5q186 0 286 -135v109h243v-1026h-249v140q-112 -163 -292 -163z" />
    <glyph glyph-name="aring" unicode="&#xe5;" horiz-adv-x="1291" 
d="M686 1153q-92 0 -156 61t-64 152q0 92 63.5 152.5t156.5 60.5q92 0 156.5 -60.5t64.5 -152.5q0 -91 -64.5 -152t-156.5 -61zM687 1257q44 0 75.5 32t31.5 77t-31.5 76.5t-75.5 31.5t-75 -31.5t-31 -76.5t31 -77t75 -32zM644 177q144 0 209.5 91.5t65.5 244.5
q0 157 -69.5 247.5t-210.5 90.5q-138 0 -211.5 -91t-73.5 -245t73.5 -246t216.5 -92zM613 -23q-125 0 -224 45t-159 120t-91 167t-31 193q0 107 32 203.5t93.5 175t162.5 125t229 46.5q186 0 286 -135v109h243v-1026h-249v140q-112 -163 -292 -163z" />
    <glyph glyph-name="ae" unicode="&#xe6;" horiz-adv-x="1776" 
d="M979 632h462l-1 23q-3 103 -67.5 160t-145.5 57q-96 0 -158.5 -66.5t-89.5 -173.5zM481 177q54 0 98 17.5t72 45.5t47 66.5t27.5 78t9.5 82.5h-100q-65 0 -120.5 -8.5t-102.5 -26.5t-74 -51t-27 -77q0 -65 47.5 -96t122.5 -31zM474 -22q-186 0 -295 82.5t-109 233.5
q0 195 146.5 269.5t478.5 74.5h41q-2 99 -61 160t-166 61q-117 0 -286 -81l-72 164q182 110 413 110q84 0 177.5 -49.5t139.5 -138.5q46 88 147.5 138t200.5 50h3q112 -1 195.5 -43t133 -116t73.5 -168t24 -206l-5 -52h-677v-19q26 -271 278 -271h9q73 2 151.5 30t120.5 55
l42 27l67 -181q-7 -5 -19.5 -14t-53.5 -31t-83.5 -39.5t-106.5 -31.5t-126 -15h-12q-143 0 -238 44t-148 151q-51 -102 -156 -148t-227 -46z" />
    <glyph glyph-name="ccedilla" unicode="&#xe7;" horiz-adv-x="1071" 
d="M425 -426l11 132q33 -14 82 -26t92 -12q101 0 101 73q0 96 -153 119l-29 4l31 175h124l-17 -114q108 -8 165 -68t57 -140q0 -30 -6.5 -56t-18.5 -46.5t-29 -37t-37.5 -28t-45 -19.5t-50 -11.5t-53.5 -3.5q-120 0 -224 59zM644 -23q-125 0 -228.5 44t-169.5 119
t-102 171.5t-36 202.5q0 152 62.5 273.5t185 193t285.5 71.5q242 0 372 -138l-89 -160q-111 98 -257 98t-224 -92t-78 -247q0 -151 83 -243.5t227 -92.5q20 0 40 2t36 5t33.5 8.5t29.5 10t27 12.5t23.5 12.5t21.5 13.5t17.5 12t16 11.5t12.5 9.5l75 -182q-86 -60 -172 -87.5
t-191 -27.5z" />
    <glyph glyph-name="egrave" unicode="&#xe8;" horiz-adv-x="1206" 
d="M574 1166l-351 289h318l262 -289h-229zM373 636h510q-18 109 -81 167t-154 58q-107 0 -179 -60t-96 -165zM666 -23q-259 0 -408.5 148t-149.5 387q0 108 36 205t101.5 172t166 119t222.5 44t213 -42t144 -117.5t78.5 -169.5t25.5 -208q0 -29 -5 -44h-720
q6 -150 91.5 -222t227.5 -72q166 0 324 110l67 -180q-97 -67 -195.5 -98.5t-218.5 -31.5z" />
    <glyph glyph-name="eacute" unicode="&#xe9;" horiz-adv-x="1206" 
d="M373 636h510q-18 109 -81 167t-154 58q-107 0 -179 -60t-96 -165zM666 -23q-259 0 -408.5 148t-149.5 387q0 108 36 205t101.5 172t166 119t222.5 44t213 -42t144 -117.5t78.5 -169.5t25.5 -208q0 -29 -5 -44h-720q6 -150 91.5 -222t227.5 -72q166 0 324 110l67 -180
q-97 -67 -195.5 -98.5t-218.5 -31.5zM568 1166l264 290h318l-354 -290h-228z" />
    <glyph glyph-name="ecircumflex" unicode="&#xea;" horiz-adv-x="1206" 
d="M373 636h510q-18 109 -81 167t-154 58q-107 0 -179 -60t-96 -165zM666 -23q-259 0 -408.5 148t-149.5 387q0 108 36 205t101.5 172t166 119t222.5 44t213 -42t144 -117.5t78.5 -169.5t25.5 -208q0 -29 -5 -44h-720q6 -150 91.5 -222t227.5 -72q166 0 324 110l67 -180
q-97 -67 -195.5 -98.5t-218.5 -31.5zM243 1185l257 370h252l265 -370h-247l-136 196l-139 -196h-252z" />
    <glyph glyph-name="edieresis" unicode="&#xeb;" horiz-adv-x="1206" 
d="M373 636h510q-18 109 -81 167t-154 58q-107 0 -179 -60t-96 -165zM666 -23q-259 0 -408.5 148t-149.5 387q0 108 36 205t101.5 172t166 119t222.5 44t213 -42t144 -117.5t78.5 -169.5t25.5 -208q0 -29 -5 -44h-720q6 -150 91.5 -222t227.5 -72q166 0 324 110l67 -180
q-97 -67 -195.5 -98.5t-218.5 -31.5zM778 1151v225h245v-225h-245zM320 1151v225h247v-225h-247z" />
    <glyph glyph-name="igrave" unicode="&#xec;" horiz-adv-x="485" 
d="M123 1166l-351 289h318l262 -289h-229zM103 0v1026h249v-1026h-249z" />
    <glyph glyph-name="iacute" unicode="&#xed;" horiz-adv-x="485" 
d="M103 0v1026h249v-1026h-249zM117 1166l264 290h318l-354 -290h-228z" />
    <glyph glyph-name="icircumflex" unicode="&#xee;" horiz-adv-x="485" 
d="M103 0v1026h249v-1026h-249zM-163 1185l257 370h252l265 -370h-247l-136 196l-139 -196h-252z" />
    <glyph glyph-name="idieresis" unicode="&#xef;" horiz-adv-x="485" 
d="M103 0v1026h249v-1026h-249zM326 1151v225h245v-225h-245zM-132 1151v225h247v-225h-247z" />
    <glyph glyph-name="eth" unicode="&#xf0;" horiz-adv-x="1217" 
d="M603 172q41 0 81 16.5t75.5 48.5t57.5 85t22 119q0 114 -77 183t-176 69q-45 0 -85 -14t-74 -41.5t-54 -76.5t-20 -112q0 -135 74.5 -206t175.5 -71zM583 -25q-109 0 -201 40.5t-153.5 109t-95.5 158t-34 188.5q0 200 112.5 315.5t318.5 115.5q204 0 344 -149q0 6 2 26.5
t2 34.5q0 149 -209 301l-253 -126l-66 133l160 79q-71 23 -214 57l78 159q45 0 143.5 -27t200.5 -84l256 128l66 -134l-185 -91q245 -212 245 -588q0 -338 -132.5 -492t-384.5 -154z" />
    <glyph glyph-name="ntilde" unicode="&#xf1;" horiz-adv-x="1224" 
d="M728 1174h-1q-42 0 -101 27t-111 53.5t-76 26.5q-22 0 -42.5 -25t-25.5 -77h-160q0 128 60.5 209.5t157.5 81.5q51 0 109.5 -25t107 -52t68.5 -30q3 0 8 -0.5t7 -0.5q30 0 46.5 22.5t15.5 85.5h162q0 -148 -60 -221.5t-165 -74.5zM158 0v635q0 109 -5 206.5t-10 140.5
l-5 44h263v-137q53 80 141.5 121.5t171.5 41.5q89 0 156 -23.5t118.5 -76t78.5 -144.5t27 -223v-585h-248v602q0 136 -42.5 192.5t-140.5 56.5q-36 0 -79 -16t-83.5 -44.5t-67.5 -75t-27 -101.5v-614h-248z" />
    <glyph glyph-name="ograve" unicode="&#xf2;" horiz-adv-x="1286" 
d="M648 -23q-134 0 -239 43.5t-169.5 118t-98 170t-33.5 204.5q0 111 34 207.5t99.5 171t170 117.5t235.5 43q134 0 238 -42.5t167 -117t94.5 -171t31.5 -210.5q0 -107 -33 -201.5t-96.5 -169.5t-167 -119t-233.5 -44zM643 177q73 0 128 27.5t86.5 76t47 107.5t15.5 128
q0 147 -69.5 241t-206.5 94q-93 0 -157 -46.5t-92.5 -120.5t-28.5 -168q0 -93 26.5 -167t91 -123t159.5 -49zM541 1166l-351 289h318l262 -289h-229z" />
    <glyph glyph-name="oacute" unicode="&#xf3;" horiz-adv-x="1286" 
d="M648 -23q-134 0 -239 43.5t-169.5 118t-98 170t-33.5 204.5q0 111 34 207.5t99.5 171t170 117.5t235.5 43q134 0 238 -42.5t167 -117t94.5 -171t31.5 -210.5q0 -107 -33 -201.5t-96.5 -169.5t-167 -119t-233.5 -44zM643 177q73 0 128 27.5t86.5 76t47 107.5t15.5 128
q0 147 -69.5 241t-206.5 94q-93 0 -157 -46.5t-92.5 -120.5t-28.5 -168q0 -93 26.5 -167t91 -123t159.5 -49zM535 1166l264 290h318l-354 -290h-228z" />
    <glyph glyph-name="ocircumflex" unicode="&#xf4;" horiz-adv-x="1286" 
d="M648 -23q-134 0 -239 43.5t-169.5 118t-98 170t-33.5 204.5q0 111 34 207.5t99.5 171t170 117.5t235.5 43q134 0 238 -42.5t167 -117t94.5 -171t31.5 -210.5q0 -107 -33 -201.5t-96.5 -169.5t-167 -119t-233.5 -44zM643 177q73 0 128 27.5t86.5 76t47 107.5t15.5 128
q0 147 -69.5 241t-206.5 94q-93 0 -157 -46.5t-92.5 -120.5t-28.5 -168q0 -93 26.5 -167t91 -123t159.5 -49zM255 1185l257 370h252l265 -370h-247l-136 196l-139 -196h-252z" />
    <glyph glyph-name="otilde" unicode="&#xf5;" horiz-adv-x="1286" 
d="M706 1174h-1q-42 0 -101 27t-111 53.5t-76 26.5q-22 0 -42.5 -25t-25.5 -77h-160q0 128 60.5 209.5t157.5 81.5q51 0 109.5 -25t107 -52t68.5 -30q3 0 8 -0.5t7 -0.5q30 0 46.5 22.5t15.5 85.5h162q0 -148 -60 -221.5t-165 -74.5zM648 -23q-134 0 -239 43.5t-169.5 118
t-98 170t-33.5 204.5q0 111 34 207.5t99.5 171t170 117.5t235.5 43q134 0 238 -42.5t167 -117t94.5 -171t31.5 -210.5q0 -107 -33 -201.5t-96.5 -169.5t-167 -119t-233.5 -44zM643 177q73 0 128 27.5t86.5 76t47 107.5t15.5 128q0 147 -69.5 241t-206.5 94q-93 0 -157 -46.5
t-92.5 -120.5t-28.5 -168q0 -93 26.5 -167t91 -123t159.5 -49z" />
    <glyph glyph-name="odieresis" unicode="&#xf6;" horiz-adv-x="1286" 
d="M648 -23q-134 0 -239 43.5t-169.5 118t-98 170t-33.5 204.5q0 111 34 207.5t99.5 171t170 117.5t235.5 43q134 0 238 -42.5t167 -117t94.5 -171t31.5 -210.5q0 -107 -33 -201.5t-96.5 -169.5t-167 -119t-233.5 -44zM643 177q73 0 128 27.5t86.5 76t47 107.5t15.5 128
q0 147 -69.5 241t-206.5 94q-93 0 -157 -46.5t-92.5 -120.5t-28.5 -168q0 -93 26.5 -167t91 -123t159.5 -49zM744 1151v225h245v-225h-245zM286 1151v225h247v-225h-247z" />
    <glyph glyph-name="divide" unicode="&#xf7;" horiz-adv-x="1499" 
d="M617 840v271h201v-271h-201zM167 449v207h1086v-207h-1086zM620 -19v272h201l2 -272h-203z" />
    <glyph glyph-name="oslash" unicode="&#xf8;" horiz-adv-x="1271" 
d="M734 838l-276 -591q-92 92 -92 269q0 94 28.5 168t92.5 120.5t157 46.5q46 0 90 -13zM828 782q92 -91 92 -266q0 -69 -15.5 -128t-47 -107.5t-86.5 -76t-128 -27.5q-52 0 -91 13zM648 -23q130 0 233.5 44t167 119t96.5 169.5t33 201.5q0 161 -63 287.5t-189 192.5l81 174
l-99 46l-84 -181q-83 22 -177 22q-131 0 -235.5 -43t-170 -117.5t-99.5 -171t-34 -207.5q0 -153 64.5 -277.5t189.5 -192.5l-89 -191l99 -47l92 196q82 -24 184 -24z" />
    <glyph glyph-name="ugrave" unicode="&#xf9;" horiz-adv-x="1186" 
d="M524 -23q-186 0 -290 106.5t-104 292.5v650h246v-646q0 -102 53 -152.5t146 -50.5q111 0 164.5 55.5t53.5 178.5v615h248v-750l12 -276h-256l-4 152q-5 -22 -22.5 -48.5t-48 -56.5t-83 -50t-115.5 -20zM497 1166l-351 289h318l262 -289h-229z" />
    <glyph glyph-name="uacute" unicode="&#xfa;" horiz-adv-x="1186" 
d="M524 -23q-186 0 -290 106.5t-104 292.5v650h246v-646q0 -102 53 -152.5t146 -50.5q111 0 164.5 55.5t53.5 178.5v615h248v-750l12 -276h-256l-4 152q-5 -22 -22.5 -48.5t-48 -56.5t-83 -50t-115.5 -20zM490 1166l264 290h318l-354 -290h-228z" />
    <glyph glyph-name="ucircumflex" unicode="&#xfb;" horiz-adv-x="1186" 
d="M524 -23q-186 0 -290 106.5t-104 292.5v650h246v-646q0 -102 53 -152.5t146 -50.5q111 0 164.5 55.5t53.5 178.5v615h248v-750l12 -276h-256l-4 152q-5 -22 -22.5 -48.5t-48 -56.5t-83 -50t-115.5 -20zM211 1185l257 370h252l265 -370h-247l-136 196l-139 -196h-252z" />
    <glyph glyph-name="udieresis" unicode="&#xfc;" horiz-adv-x="1186" 
d="M524 -23q-186 0 -290 106.5t-104 292.5v650h246v-646q0 -102 53 -152.5t146 -50.5q111 0 164.5 55.5t53.5 178.5v615h248v-750l12 -276h-256l-4 152q-5 -22 -22.5 -48.5t-48 -56.5t-83 -50t-115.5 -20zM700 1151v225h245v-225h-245zM242 1151v225h247v-225h-247z" />
    <glyph glyph-name="yacute" unicode="&#xfd;" horiz-adv-x="1114" 
d="M254 -445l-104 168q139 54 208.5 111.5t93.5 138.5l14 50l-436 1003h258l297 -736l256 736h253l-416 -1082q-43 -106 -113 -187.5t-146 -127.5t-165 -74zM483 1166l264 290h318l-354 -290h-228z" />
    <glyph glyph-name="thorn" unicode="&#xfe;" horiz-adv-x="1229" 
d="M618 177q64 0 113 28t78.5 76.5t44 109t14.5 130.5q0 67 -12.5 123.5t-39.5 103.5t-75 74t-114 27q-68 0 -119 -29t-79.5 -79.5t-42 -112t-13.5 -134.5q0 -142 63.5 -229.5t181.5 -87.5zM140 -395v1859h238l-3 -516q41 45 124 74t147 29q115 0 208 -42t152 -115
t90.5 -167.5t31.5 -201.5q0 -87 -19 -166.5t-58.5 -149.5t-96 -121.5t-136 -81t-174.5 -29.5q-71 0 -143.5 24t-128.5 61l-1 -457h-231z" />
    <glyph glyph-name="ydieresis" unicode="&#xff;" horiz-adv-x="1114" 
d="M254 -445l-104 168q139 54 208.5 111.5t93.5 138.5l14 50l-436 1003h258l297 -736l256 736h253l-416 -1082q-43 -106 -113 -187.5t-146 -127.5t-165 -74zM692 1151v225h245v-225h-245zM234 1151v225h247v-225h-247z" />
    <glyph glyph-name="Amacron" unicode="&#x100;" horiz-adv-x="1458" 
d="M387 1576v157h624v-157h-624zM524 592h390q-115 341 -193 567q-65 -189 -197 -567zM12 0l585 1456h258l590 -1456h-287l-141 355h-588l-138 -355h-279z" />
    <glyph glyph-name="amacron" unicode="&#x101;" horiz-adv-x="1291" 
d="M348 1146v157h624v-157h-624zM644 177q144 0 209.5 91.5t65.5 244.5q0 157 -69.5 247.5t-210.5 90.5q-138 0 -211.5 -91t-73.5 -245t73.5 -246t216.5 -92zM613 -23q-125 0 -224 45t-159 120t-91 167t-31 193q0 107 32 203.5t93.5 175t162.5 125t229 46.5q186 0 286 -135
v109h243v-1026h-249v140q-112 -163 -292 -163z" />
    <glyph glyph-name="Abreve" unicode="&#x102;" horiz-adv-x="1458" 
d="M736 1590q-302 0 -322 296h174q3 -38 16 -63.5t35.5 -37.5t44.5 -16.5t52 -4.5q63 0 101 24.5t45 97.5h173q-11 -154 -91.5 -225t-227.5 -71zM524 592h390q-115 341 -193 567q-65 -189 -197 -567zM12 0l585 1456h258l590 -1456h-287l-141 355h-588l-138 -355h-279z" />
    <glyph glyph-name="abreve" unicode="&#x103;" horiz-adv-x="1291" 
d="M697 1160q-302 0 -322 296h174q3 -38 16 -63.5t35.5 -37.5t44.5 -16.5t52 -4.5q63 0 101 24.5t45 97.5h173q-11 -154 -91.5 -225t-227.5 -71zM644 177q144 0 209.5 91.5t65.5 244.5q0 157 -69.5 247.5t-210.5 90.5q-138 0 -211.5 -91t-73.5 -245t73.5 -246t216.5 -92z
M613 -23q-125 0 -224 45t-159 120t-91 167t-31 193q0 107 32 203.5t93.5 175t162.5 125t229 46.5q186 0 286 -135v109h243v-1026h-249v140q-112 -163 -292 -163z" />
    <glyph glyph-name="Aogonek" unicode="&#x104;" horiz-adv-x="1458" 
d="M1201 -356q-99 0 -155.5 32t-56.5 97q0 27 8 51.5t19 43.5t31 38.5t35.5 31.5t41 27t39.5 22t38.5 19t31.5 15l135 2q-69 -39 -109 -90t-40 -90q0 -47 63 -47q51 0 173 37v-148q-135 -41 -254 -41zM524 592h390q-115 341 -193 567q-65 -189 -197 -567zM12 0l585 1456h258
l590 -1456h-287l-141 355h-588l-138 -355h-279z" />
    <glyph glyph-name="aogonek" unicode="&#x105;" horiz-adv-x="1291" 
d="M944 -356q-99 0 -155.5 32t-56.5 97q0 27 8 51.5t19 43.5t31 38.5t35.5 31.5t41 27t39.5 22t38.5 19t31.5 15l135 2q-69 -39 -109 -90t-40 -90q0 -47 63 -47q51 0 173 37v-148q-135 -41 -254 -41zM644 177q144 0 209.5 91.5t65.5 244.5q0 157 -69.5 247.5t-210.5 90.5
q-138 0 -211.5 -91t-73.5 -245t73.5 -246t216.5 -92zM613 -23q-125 0 -224 45t-159 120t-91 167t-31 193q0 107 32 203.5t93.5 175t162.5 125t229 46.5q186 0 286 -135v109h243v-1026h-249v140q-112 -163 -292 -163z" />
    <glyph glyph-name="Cacute" unicode="&#x106;" horiz-adv-x="1436" 
d="M716 1596l264 290h318l-354 -290h-228zM835 -22q-144 0 -274 49.5t-232 141.5t-162.5 236.5t-60.5 321.5q0 148 40.5 273.5t109.5 213t160 149.5t192 91t207 29q286 0 486 -157l-99 -177q-166 115 -366 115q-93 0 -176.5 -37t-147.5 -104t-102 -169t-38 -224
q0 -241 136 -387t344 -146q219 0 402 147l85 -201q-212 -165 -504 -165z" />
    <glyph glyph-name="cacute" unicode="&#x107;" horiz-adv-x="1071" 
d="M644 -23q-125 0 -228.5 44t-169.5 119t-102 171.5t-36 202.5q0 152 62.5 273.5t185 193t285.5 71.5q242 0 372 -138l-89 -160q-111 98 -257 98t-224 -92t-78 -247q0 -151 83 -243.5t227 -92.5q20 0 40 2t36 5t33.5 8.5t29.5 10t27 12.5t23.5 12.5t21.5 13.5t17.5 12
t16 11.5t12.5 9.5l75 -182q-86 -60 -172 -87.5t-191 -27.5zM535 1166l264 290h318l-354 -290h-228z" />
    <glyph glyph-name="Ccircumflex" unicode="&#x108;" horiz-adv-x="1436" 
d="M437 1615l257 370h252l265 -370h-247l-136 196l-139 -196h-252zM835 -22q-144 0 -274 49.5t-232 141.5t-162.5 236.5t-60.5 321.5q0 148 40.5 273.5t109.5 213t160 149.5t192 91t207 29q286 0 486 -157l-99 -177q-166 115 -366 115q-93 0 -176.5 -37t-147.5 -104
t-102 -169t-38 -224q0 -241 136 -387t344 -146q219 0 402 147l85 -201q-212 -165 -504 -165z" />
    <glyph glyph-name="ccircumflex" unicode="&#x109;" horiz-adv-x="1071" 
d="M256 1185l257 370h252l265 -370h-247l-136 196l-139 -196h-252zM644 -23q-125 0 -228.5 44t-169.5 119t-102 171.5t-36 202.5q0 152 62.5 273.5t185 193t285.5 71.5q242 0 372 -138l-89 -160q-111 98 -257 98t-224 -92t-78 -247q0 -151 83 -243.5t227 -92.5q20 0 40 2
t36 5t33.5 8.5t29.5 10t27 12.5t23.5 12.5t21.5 13.5t17.5 12t16 11.5t12.5 9.5l75 -182q-86 -60 -172 -87.5t-191 -27.5z" />
    <glyph glyph-name="Cdotaccent" unicode="&#x10a;" horiz-adv-x="1436" 
d="M712 1596v228h246v-228h-246zM835 -22q-144 0 -274 49.5t-232 141.5t-162.5 236.5t-60.5 321.5q0 148 40.5 273.5t109.5 213t160 149.5t192 91t207 29q286 0 486 -157l-99 -177q-166 115 -366 115q-93 0 -176.5 -37t-147.5 -104t-102 -169t-38 -224q0 -241 136 -387
t344 -146q219 0 402 147l85 -201q-212 -165 -504 -165z" />
    <glyph glyph-name="cdotaccent" unicode="&#x10b;" horiz-adv-x="1071" 
d="M532 1166v228h246v-228h-246zM644 -23q-125 0 -228.5 44t-169.5 119t-102 171.5t-36 202.5q0 152 62.5 273.5t185 193t285.5 71.5q242 0 372 -138l-89 -160q-111 98 -257 98t-224 -92t-78 -247q0 -151 83 -243.5t227 -92.5q20 0 40 2t36 5t33.5 8.5t29.5 10t27 12.5
t23.5 12.5t21.5 13.5t17.5 12t16 11.5t12.5 9.5l75 -182q-86 -60 -172 -87.5t-191 -27.5z" />
    <glyph glyph-name="Ccaron" unicode="&#x10c;" horiz-adv-x="1436" 
d="M709 1615l-281 367h254l119 -145l123 145h266l-279 -367h-202zM835 -22q-144 0 -274 49.5t-232 141.5t-162.5 236.5t-60.5 321.5q0 148 40.5 273.5t109.5 213t160 149.5t192 91t207 29q286 0 486 -157l-99 -177q-166 115 -366 115q-93 0 -176.5 -37t-147.5 -104
t-102 -169t-38 -224q0 -241 136 -387t344 -146q219 0 402 147l85 -201q-212 -165 -504 -165z" />
    <glyph glyph-name="ccaron" unicode="&#x10d;" horiz-adv-x="1071" 
d="M528 1185l-281 367h254l119 -145l123 145h266l-279 -367h-202zM644 -23q-125 0 -228.5 44t-169.5 119t-102 171.5t-36 202.5q0 152 62.5 273.5t185 193t285.5 71.5q242 0 372 -138l-89 -160q-111 98 -257 98t-224 -92t-78 -247q0 -151 83 -243.5t227 -92.5q20 0 40 2
t36 5t33.5 8.5t29.5 10t27 12.5t23.5 12.5t21.5 13.5t17.5 12t16 11.5t12.5 9.5l75 -182q-86 -60 -172 -87.5t-191 -27.5z" />
    <glyph glyph-name="Dcaron" unicode="&#x10e;" horiz-adv-x="1571" 
d="M621 1615l-281 367h254l119 -145l123 145h266l-279 -367h-202zM190 0v1456h406q437 0 653 -185.5t216 -533.5q0 -361 -211.5 -549t-616.5 -188h-447zM444 218h206q264 0 405 132t141 388q0 243 -142.5 371.5t-434.5 128.5h-175v-1020z" />
    <glyph glyph-name="dcaron" unicode="&#x10f;" horiz-adv-x="1267" 
d="M962 1026zM627 177q68 0 119 27.5t80.5 76t44 106.5t14.5 125q0 150 -65 244.5t-195 94.5q-87 0 -146.5 -47t-85 -120t-25.5 -168q0 -69 14.5 -128t44 -107.5t81 -76t119.5 -27.5zM576 -23q-199 0 -333.5 146t-134.5 385q0 109 31 206t89.5 173t153.5 120.5t213 44.5
q106 0 179.5 -43.5t102.5 -90.5v539h246v-1183q0 -6 9 -274h-254l-2 131q-9 -23 -30 -47t-56 -49.5t-91 -41.5t-123 -16zM962 1026zM1248 951l113 505h280l-181 -505h-212z" />
    <glyph glyph-name="Dcroat" unicode="&#x110;" horiz-adv-x="1571" 
d="M26.9717 664.769v149.992h619.965v-149.992h-619.965zM190 0v1456h406q437 0 653 -185.5t216 -533.5q0 -361 -211.5 -549t-616.5 -188h-447zM444 218h206q264 0 405 132t141 388q0 243 -142.5 371.5t-434.5 128.5h-175v-1020z" />
    <glyph glyph-name="dcroat" unicode="&#x111;" horiz-adv-x="1267" 
d="M653 1149v157h624v-157h-624zM962 1026zM627 177q68 0 119 27.5t80.5 76t44 106.5t14.5 125q0 150 -65 244.5t-195 94.5q-87 0 -146.5 -47t-85 -120t-25.5 -168q0 -69 14.5 -128t44 -107.5t81 -76t119.5 -27.5zM576 -23q-199 0 -333.5 146t-134.5 385q0 109 31 206
t89.5 173t153.5 120.5t213 44.5q106 0 179.5 -43.5t102.5 -90.5v539h246v-1183q0 -6 9 -274h-254l-2 131q-9 -23 -30 -47t-56 -49.5t-91 -41.5t-123 -16z" />
    <glyph glyph-name="Emacron" unicode="&#x112;" horiz-adv-x="1249" 
d="M325 1576v157h624v-157h-624zM190 0v1456h919v-218h-665v-389h629v-219h-626v-412h691v-218h-948z" />
    <glyph glyph-name="emacron" unicode="&#x113;" horiz-adv-x="1206" 
d="M335 1146v157h624v-157h-624zM373 636h510q-18 109 -81 167t-154 58q-107 0 -179 -60t-96 -165zM666 -23q-259 0 -408.5 148t-149.5 387q0 108 36 205t101.5 172t166 119t222.5 44t213 -42t144 -117.5t78.5 -169.5t25.5 -208q0 -29 -5 -44h-720q6 -150 91.5 -222
t227.5 -72q166 0 324 110l67 -180q-97 -67 -195.5 -98.5t-218.5 -31.5z" />
    <glyph glyph-name="Ebreve" unicode="&#x114;" horiz-adv-x="1249" 
d="M675 1590q-302 0 -322 296h174q3 -38 16 -63.5t35.5 -37.5t44.5 -16.5t52 -4.5q63 0 101 24.5t45 97.5h173q-11 -154 -91.5 -225t-227.5 -71zM190 0v1456h919v-218h-665v-389h629v-219h-626v-412h691v-218h-948z" />
    <glyph glyph-name="ebreve" unicode="&#x115;" horiz-adv-x="1206" 
d="M373 636h510q-18 109 -81 167t-154 58q-107 0 -179 -60t-96 -165zM666 -23q-259 0 -408.5 148t-149.5 387q0 108 36 205t101.5 172t166 119t222.5 44t213 -42t144 -117.5t78.5 -169.5t25.5 -208q0 -29 -5 -44h-720q6 -150 91.5 -222t227.5 -72q166 0 324 110l67 -180
q-97 -67 -195.5 -98.5t-218.5 -31.5zM684 1160q-302 0 -322 296h174q3 -38 16 -63.5t35.5 -37.5t44.5 -16.5t52 -4.5q63 0 101 24.5t45 97.5h173q-11 -154 -91.5 -225t-227.5 -71z" />
    <glyph glyph-name="Edotaccent" unicode="&#x116;" horiz-adv-x="1249" 
d="M555 1596v228h246v-228h-246zM190 0v1456h919v-218h-665v-389h629v-219h-626v-412h691v-218h-948z" />
    <glyph glyph-name="edotaccent" unicode="&#x117;" horiz-adv-x="1206" 
d="M373 636h510q-18 109 -81 167t-154 58q-107 0 -179 -60t-96 -165zM666 -23q-259 0 -408.5 148t-149.5 387q0 108 36 205t101.5 172t166 119t222.5 44t213 -42t144 -117.5t78.5 -169.5t25.5 -208q0 -29 -5 -44h-720q6 -150 91.5 -222t227.5 -72q166 0 324 110l67 -180
q-97 -67 -195.5 -98.5t-218.5 -31.5zM564 1166v228h246v-228h-246z" />
    <glyph glyph-name="Eogonek" unicode="&#x118;" horiz-adv-x="1249" 
d="M727 -356q-99 0 -155.5 32t-56.5 97q0 27 8 51.5t19 43.5t31 38.5t35.5 31.5t41 27t39.5 22t38.5 19t31.5 15l135 2q-69 -39 -109 -90t-40 -90q0 -47 63 -47q51 0 173 37v-148q-135 -41 -254 -41zM190 0v1456h919v-218h-665v-389h629v-219h-626v-412h691v-218h-948z" />
    <glyph glyph-name="eogonek" unicode="&#x119;" horiz-adv-x="1206" 
d="M764 -356q-99 0 -155.5 32t-56.5 97q0 27 8 51.5t19 43.5t31 38.5t35.5 31.5t41 27t39.5 22t38.5 19t31.5 15l135 2q-69 -39 -109 -90t-40 -90q0 -47 63 -47q51 0 173 37v-148q-135 -41 -254 -41zM373 636h510q-18 109 -81 167t-154 58q-107 0 -179 -60t-96 -165z
M666 -23q-259 0 -408.5 148t-149.5 387q0 108 36 205t101.5 172t166 119t222.5 44t213 -42t144 -117.5t78.5 -169.5t25.5 -208q0 -29 -5 -44h-720q6 -150 91.5 -222t227.5 -72q166 0 324 110l67 -180q-97 -67 -195.5 -98.5t-218.5 -31.5z" />
    <glyph glyph-name="Ecaron" unicode="&#x11a;" horiz-adv-x="1249" 
d="M551 1615l-281 367h254l119 -145l123 145h266l-279 -367h-202zM190 0v1456h919v-218h-665v-389h629v-219h-626v-412h691v-218h-948z" />
    <glyph glyph-name="ecaron" unicode="&#x11b;" horiz-adv-x="1206" 
d="M373 636h510q-18 109 -81 167t-154 58q-107 0 -179 -60t-96 -165zM666 -23q-259 0 -408.5 148t-149.5 387q0 108 36 205t101.5 172t166 119t222.5 44t213 -42t144 -117.5t78.5 -169.5t25.5 -208q0 -29 -5 -44h-720q6 -150 91.5 -222t227.5 -72q166 0 324 110l67 -180
q-97 -67 -195.5 -98.5t-218.5 -31.5zM561 1185l-281 367h254l119 -145l123 145h266l-279 -367h-202z" />
    <glyph glyph-name="Gcircumflex" unicode="&#x11c;" horiz-adv-x="1538" 
d="M447 1615l257 370h252l265 -370h-247l-136 196l-139 -196h-252zM851 -23q-359 0 -552.5 196t-193.5 531q0 125 31.5 240.5t96 213.5t155.5 170.5t216.5 113.5t272.5 41q103 0 187.5 -14.5t144.5 -41.5t89 -44.5t64 -44.5l-102 -178q-143 104 -382 104q-126 0 -226 -47
t-160 -126t-91 -175t-31 -201q0 -115 31 -210t91 -164.5t154.5 -108t216.5 -38.5q121 0 249 38v344h-340v217h598v-705q-249 -111 -519 -111z" />
    <glyph glyph-name="gcircumflex" unicode="&#x11d;" horiz-adv-x="1235" 
d="M626 187q59 0 104 19.5t73 51t45.5 75.5t24 88.5t6.5 94.5q0 150 -62.5 242.5t-187.5 92.5q-86 0 -146.5 -48.5t-87.5 -122.5t-27 -165q0 -154 63 -241t195 -87zM578 -418q-200 0 -390 70l43 214q150 -78 329 -78q144 0 225 61.5t81 185.5v87q-88 -122 -257 -122
q-227 0 -364 139.5t-137 375.5q0 108 29 202.5t86 170.5t151.5 120t215.5 44q95 0 166.5 -38t110.5 -98v110h263q-20 -152 -20 -344v-535q0 -565 -532 -565zM229 1185l257 370h252l265 -370h-247l-136 196l-139 -196h-252z" />
    <glyph glyph-name="Gbreve" unicode="&#x11e;" horiz-adv-x="1538" 
d="M842 1590q-302 0 -322 296h174q3 -38 16 -63.5t35.5 -37.5t44.5 -16.5t52 -4.5q63 0 101 24.5t45 97.5h173q-11 -154 -91.5 -225t-227.5 -71zM851 -23q-359 0 -552.5 196t-193.5 531q0 125 31.5 240.5t96 213.5t155.5 170.5t216.5 113.5t272.5 41q103 0 187.5 -14.5
t144.5 -41.5t89 -44.5t64 -44.5l-102 -178q-143 104 -382 104q-126 0 -226 -47t-160 -126t-91 -175t-31 -201q0 -115 31 -210t91 -164.5t154.5 -108t216.5 -38.5q121 0 249 38v344h-340v217h598v-705q-249 -111 -519 -111z" />
    <glyph glyph-name="gbreve" unicode="&#x11f;" horiz-adv-x="1235" 
d="M626 187q59 0 104 19.5t73 51t45.5 75.5t24 88.5t6.5 94.5q0 150 -62.5 242.5t-187.5 92.5q-86 0 -146.5 -48.5t-87.5 -122.5t-27 -165q0 -154 63 -241t195 -87zM578 -418q-200 0 -390 70l43 214q150 -78 329 -78q144 0 225 61.5t81 185.5v87q-88 -122 -257 -122
q-227 0 -364 139.5t-137 375.5q0 108 29 202.5t86 170.5t151.5 120t215.5 44q95 0 166.5 -38t110.5 -98v110h263q-20 -152 -20 -344v-535q0 -565 -532 -565zM624 1160q-302 0 -322 296h174q3 -38 16 -63.5t35.5 -37.5t44.5 -16.5t52 -4.5q63 0 101 24.5t45 97.5h173
q-11 -154 -91.5 -225t-227.5 -71z" />
    <glyph glyph-name="Gdotaccent" unicode="&#x120;" horiz-adv-x="1538" 
d="M722 1596v228h246v-228h-246zM851 -23q-359 0 -552.5 196t-193.5 531q0 125 31.5 240.5t96 213.5t155.5 170.5t216.5 113.5t272.5 41q103 0 187.5 -14.5t144.5 -41.5t89 -44.5t64 -44.5l-102 -178q-143 104 -382 104q-126 0 -226 -47t-160 -126t-91 -175t-31 -201
q0 -115 31 -210t91 -164.5t154.5 -108t216.5 -38.5q121 0 249 38v344h-340v217h598v-705q-249 -111 -519 -111z" />
    <glyph glyph-name="gdotaccent" unicode="&#x121;" horiz-adv-x="1235" 
d="M626 187q59 0 104 19.5t73 51t45.5 75.5t24 88.5t6.5 94.5q0 150 -62.5 242.5t-187.5 92.5q-86 0 -146.5 -48.5t-87.5 -122.5t-27 -165q0 -154 63 -241t195 -87zM578 -418q-200 0 -390 70l43 214q150 -78 329 -78q144 0 225 61.5t81 185.5v87q-88 -122 -257 -122
q-227 0 -364 139.5t-137 375.5q0 108 29 202.5t86 170.5t151.5 120t215.5 44q95 0 166.5 -38t110.5 -98v110h263q-20 -152 -20 -344v-535q0 -565 -532 -565zM505 1166v228h246v-228h-246z" />
    <glyph glyph-name="Gcommaaccent" unicode="&#x122;" horiz-adv-x="1538" 
d="M629 -647l113 505h279l-180 -505h-212zM851 -23q-359 0 -552.5 196t-193.5 531q0 125 31.5 240.5t96 213.5t155.5 170.5t216.5 113.5t272.5 41q103 0 187.5 -14.5t144.5 -41.5t89 -44.5t64 -44.5l-102 -178q-143 104 -382 104q-126 0 -226 -47t-160 -126t-91 -175
t-31 -201q0 -115 31 -210t91 -164.5t154.5 -108t216.5 -38.5q121 0 249 38v344h-340v217h598v-705q-249 -111 -519 -111z" />
    <glyph glyph-name="gcommaaccent" unicode="&#x123;" horiz-adv-x="1235" 
d="M920 1736l-112 -497h-278l180 497h210zM626 187q59 0 104 19.5t73 51t45.5 75.5t24 88.5t6.5 94.5q0 150 -62.5 242.5t-187.5 92.5q-86 0 -146.5 -48.5t-87.5 -122.5t-27 -165q0 -154 63 -241t195 -87zM578 -418q-200 0 -390 70l43 214q150 -78 329 -78q144 0 225 61.5
t81 185.5v87q-88 -122 -257 -122q-227 0 -364 139.5t-137 375.5q0 108 29 202.5t86 170.5t151.5 120t215.5 44q95 0 166.5 -38t110.5 -98v110h263q-20 -152 -20 -344v-535q0 -565 -532 -565z" />
    <glyph glyph-name="Hcircumflex" unicode="&#x124;" horiz-adv-x="1572" 
d="M381 1615l257 370h252l265 -370h-247l-136 196l-139 -196h-252zM190 0v1456h254v-599h683v599h254v-1456h-249v637h-683v-637h-259z" />
    <glyph glyph-name="hcircumflex" unicode="&#x125;" horiz-adv-x="1219" 
d="M144 0v1457h248v-564q37 71 130 115t177 44q71 0 129.5 -17t98.5 -45t70 -68.5t47 -82t27.5 -91.5t14 -91t3.5 -86v-571h-248v579q0 145 -45 208.5t-135 63.5q-102 0 -185.5 -70.5t-83.5 -162.5v-618h-248zM401 1185l257 370h252l265 -370h-247l-136 196l-139 -196h-252z
" />
    <glyph glyph-name="Hbar" unicode="&#x126;" horiz-adv-x="1572" 
d="M95 1062v151h1365v-151h-1365zM190 0v1456h254v-599h683v599h254v-1456h-249v637h-683v-637h-259z" />
    <glyph glyph-name="hbar" unicode="&#x127;" horiz-adv-x="1219" 
d="M-24 1149v157h624v-157h-624zM144 0v1457h248v-564q37 71 130 115t177 44q71 0 129.5 -17t98.5 -45t70 -68.5t47 -82t27.5 -91.5t14 -91t3.5 -86v-571h-248v579q0 145 -45 208.5t-135 63.5q-102 0 -185.5 -70.5t-83.5 -162.5v-618h-248z" />
    <glyph glyph-name="Itilde" unicode="&#x128;" horiz-adv-x="586" 
d="M433 1646h-1q-42 0 -101 27t-111 53.5t-76 26.5q-22 0 -42.5 -25t-25.5 -77h-160q0 128 60.5 209.5t157.5 81.5q51 0 109.5 -25t107 -52t68.5 -30q3 0 8 -0.5t7 -0.5q30 0 46.5 22.5t15.5 85.5h162q0 -148 -60 -221.5t-165 -74.5zM160 0v1456h254v-1456h-254z" />
    <glyph glyph-name="itilde" unicode="&#x129;" horiz-adv-x="485" 
d="M373 1215h-1q-42 0 -101 27t-111 53.5t-76 26.5q-22 0 -42.5 -25t-25.5 -77h-160q0 128 60.5 209.5t157.5 81.5q51 0 109.5 -25t107 -52t68.5 -30q3 0 8 -0.5t7 -0.5q30 0 46.5 22.5t15.5 85.5h162q0 -148 -60 -221.5t-165 -74.5zM103 0v1026h249v-1026h-249z" />
    <glyph glyph-name="Imacron" unicode="&#x12a;" horiz-adv-x="586" 
d="M-25 1646v157h624v-157h-624zM160 0v1456h254v-1456h-254z" />
    <glyph glyph-name="imacron" unicode="&#x12b;" horiz-adv-x="485" 
d="M-84 1215v157h624v-157h-624zM103 0v1026h249v-1026h-249z" />
    <glyph glyph-name="Ibreve" unicode="&#x12c;" horiz-adv-x="586" 
d="M288 1646q-302 0 -322 296h174q3 -38 16 -63.5t35.5 -37.5t44.5 -16.5t52 -4.5q63 0 101 24.5t45 97.5h173q-11 -154 -91.5 -225t-227.5 -71zM160 0v1456h254v-1456h-254z" />
    <glyph glyph-name="ibreve" unicode="&#x12d;" horiz-adv-x="485" 
d="M103 0v1026h249v-1026h-249zM229 1215q-302 0 -322 296h174q3 -38 16 -63.5t35.5 -37.5t44.5 -16.5t52 -4.5q63 0 101 24.5t45 97.5h173q-11 -154 -91.5 -225t-227.5 -71z" />
    <glyph glyph-name="Iogonek" unicode="&#x12e;" horiz-adv-x="586" 
d="M233 -356q-99 0 -155.5 32t-56.5 97q0 27 8 51.5t19 43.5t31 38.5t35.5 31.5t41 27t39.5 22t38.5 19t31.5 15l135 2q-69 -39 -109 -90t-40 -90q0 -47 63 -47q51 0 173 37v-148q-135 -41 -254 -41zM160 0v1456h254v-1456h-254z" />
    <glyph glyph-name="iogonek" unicode="&#x12f;" horiz-adv-x="485" 
d="M199 -356q-99 0 -155.5 32t-56.5 97q0 27 8 51.5t19 43.5t31 38.5t35.5 31.5t41 27t39.5 22t38.5 19t31.5 15l135 2q-69 -39 -109 -90t-40 -90q0 -47 63 -47q51 0 173 37v-148q-135 -41 -254 -41zM103 0v1026h249v-1026h-249zM113 1166v228h246v-228h-246z" />
    <glyph glyph-name="Idotaccent" unicode="&#x130;" horiz-adv-x="586" 
d="M172 1596v228h246v-228h-246zM160 0v1456h254v-1456h-254z" />
    <glyph glyph-name="dotlessi" unicode="&#x131;" horiz-adv-x="485" 
d="M103 0v1026h249v-1026h-249z" />
    <glyph glyph-name="IJ" unicode="&#x132;" horiz-adv-x="1605" 
d="M1003 -331q-143 0 -321 64l46 193q137 -44 229 -44q205 0 205 228v1346h254v-1334q0 -218 -109 -335.5t-304 -117.5zM160 0v1456h254v-1456h-254z" />
    <glyph glyph-name="ij" unicode="&#x133;" horiz-adv-x="1124" 
d="M748 1228v228h246v-228h-246zM624 -362q-55 0 -101.5 7t-64.5 13l-19 7l28 170q62 -19 143 -19q36 0 58 6.5t40 27.5t26 62t8 108v1006h253v-1035q0 -90 -16.5 -152t-57 -109t-114 -69.5t-183.5 -22.5zM467 -165l-3 1h3v-1zM142 1238v218h240v-218h-240zM143 0v1026h239
v-1026h-239z" />
    <glyph glyph-name="Jcircumflex" unicode="&#x134;" horiz-adv-x="1019" 
d="M315 1615l257 370h252l265 -370h-247l-136 196l-139 -196h-252zM417 -331q-143 0 -321 64l46 193q137 -44 229 -44q205 0 205 228v1346h254v-1334q0 -218 -109 -335.5t-304 -117.5z" />
    <glyph glyph-name="jcircumflex" unicode="&#x135;" horiz-adv-x="600" 
d="M100 -362q-55 0 -101.5 7t-64.5 13l-19 7l28 170q62 -19 143 -19q36 0 58 6.5t40 27.5t26 62t8 108v1006h253v-1035q0 -90 -16.5 -152t-57 -109t-114 -69.5t-183.5 -22.5zM-57 -165l-3 1h3v-1zM-51 1185l257 370h252l265 -370h-247l-136 196l-139 -196h-252z" />
    <glyph glyph-name="Kcommaaccent" unicode="&#x136;" horiz-adv-x="1352" 
d="M525 -647l113 505h279l-180 -505h-212zM190 0v1456h254v-636l561 636h317l-631 -703l680 -753h-330l-594 651v-651h-257z" />
    <glyph glyph-name="kcommaaccent" unicode="&#x137;" horiz-adv-x="1076" 
d="M344 -647l113 505h279l-180 -505h-212zM140 0v1457h248v-850l371 419h342l-489 -496l521 -530h-328l-417 444v-444h-248z" />
    <glyph glyph-name="kgreenlandic" unicode="&#x138;" horiz-adv-x="1082" 
d="M145 0v1026h247v-394l355 394h342l-516 -521q103 -95 163 -150t73 -67.5t23 -22t31 -28.5t78.5 -71.5t181.5 -165.5h-333l-398 383v-383h-247z" />
    <glyph glyph-name="Lacute" unicode="&#x139;" horiz-adv-x="1173" 
d="M273 1596l264 290h318l-354 -290h-228zM326 1026zM190 0v1456h254v-1238h674v-218h-928z" />
    <glyph glyph-name="lacute" unicode="&#x13a;" horiz-adv-x="526" 
d="M187 1026zM142 0v1457h245v-1457h-245zM164 1596l264 290h318l-354 -290h-228z" />
    <glyph glyph-name="Lcommaaccent" unicode="&#x13b;" horiz-adv-x="1173" 
d="M398 -647l113 505h279l-180 -505h-212zM326 1026zM190 0v1456h254v-1238h674v-218h-928z" />
    <glyph glyph-name="lcommaaccent" unicode="&#x13c;" horiz-adv-x="526" 
d="M27 -647l113 505h279l-180 -505h-212zM187 1026zM142 0v1457h245v-1457h-245z" />
    <glyph glyph-name="Lcaron" unicode="&#x13d;" horiz-adv-x="1173" 
d="M326 1026zM612 951l113 505h280l-181 -505h-212zM326 1026zM190 0v1456h254v-1238h674v-218h-928z" />
    <glyph glyph-name="lcaron" unicode="&#x13e;" horiz-adv-x="526" 
d="M187 1026zM142 0v1457h245v-1457h-245zM187 1026zM473 951l113 505h280l-181 -505h-212z" />
    <glyph glyph-name="Ldot" unicode="&#x13f;" horiz-adv-x="1173" 
d="M599 643v282h304v-282h-304zM326 1026zM190 0v1456h254v-1238h674v-218h-928z" />
    <glyph glyph-name="ldot" unicode="&#x140;" horiz-adv-x="526" 
d="M460 668v282h304v-282h-304zM187 1026zM142 0v1457h245v-1457h-245z" />
    <glyph glyph-name="Lslash" unicode="&#x141;" horiz-adv-x="1166" 
d="M35 421v225l577 450v-225zM326 1026zM190 0v1456h254v-1238h674v-218h-928z" />
    <glyph glyph-name="lslash" unicode="&#x142;" horiz-adv-x="503" 
d="M118 0v727l-111 -100v218l109 100v513h250v-328l102 96v-223l-101 -99v-904h-249z" />
    <glyph glyph-name="Nacute" unicode="&#x143;" horiz-adv-x="1630" 
d="M727 1596l264 290h318l-354 -290h-228zM190 0v1456h269q694 -1006 739 -1072v1072h242v-1456h-270q-671 969 -745 1074v-1074h-235z" />
    <glyph glyph-name="nacute" unicode="&#x144;" horiz-adv-x="1224" 
d="M158 0v635q0 109 -5 206.5t-10 140.5l-5 44h263v-137q53 80 141.5 121.5t171.5 41.5q89 0 156 -23.5t118.5 -76t78.5 -144.5t27 -223v-585h-248v602q0 136 -42.5 192.5t-140.5 56.5q-36 0 -79 -16t-83.5 -44.5t-67.5 -75t-27 -101.5v-614h-248zM557 1166l264 290h318
l-354 -290h-228z" />
    <glyph glyph-name="Ncommaaccent" unicode="&#x145;" horiz-adv-x="1630" 
d="M610 -647l113 505h279l-180 -505h-212zM190 0v1456h269q694 -1006 739 -1072v1072h242v-1456h-270q-671 969 -745 1074v-1074h-235z" />
    <glyph glyph-name="ncommaaccent" unicode="&#x146;" horiz-adv-x="1224" 
d="M385 -647l113 505h279l-180 -505h-212zM158 0v635q0 109 -5 206.5t-10 140.5l-5 44h263v-137q53 80 141.5 121.5t171.5 41.5q89 0 156 -23.5t118.5 -76t78.5 -144.5t27 -223v-585h-248v602q0 136 -42.5 192.5t-140.5 56.5q-36 0 -79 -16t-83.5 -44.5t-67.5 -75
t-27 -101.5v-614h-248z" />
    <glyph glyph-name="Ncaron" unicode="&#x147;" horiz-adv-x="1630" 
d="M720 1615l-281 367h254l119 -145l123 145h266l-279 -367h-202zM190 0v1456h269q694 -1006 739 -1072v1072h242v-1456h-270q-671 969 -745 1074v-1074h-235z" />
    <glyph glyph-name="ncaron" unicode="&#x148;" horiz-adv-x="1224" 
d="M158 0v635q0 109 -5 206.5t-10 140.5l-5 44h263v-137q53 80 141.5 121.5t171.5 41.5q89 0 156 -23.5t118.5 -76t78.5 -144.5t27 -223v-585h-248v602q0 136 -42.5 192.5t-140.5 56.5q-36 0 -79 -16t-83.5 -44.5t-67.5 -75t-27 -101.5v-614h-248zM549 1185l-281 367h254
l119 -145l123 145h266l-279 -367h-202z" />
    <glyph glyph-name="napostrophe" unicode="&#x149;" horiz-adv-x="1221" 
d="M158 0v635q0 109 -5 206.5t-10 140.5l-5 44h263v-137q53 80 141.5 121.5t171.5 41.5q89 0 156 -23.5t118.5 -76t78.5 -144.5t27 -223v-585h-248v602q0 136 -42.5 192.5t-140.5 56.5q-36 0 -79 -16t-83.5 -44.5t-67.5 -75t-27 -101.5v-614h-248zM64 1227l98 590h280
l-196 -590h-182z" />
    <glyph glyph-name="Eng" unicode="&#x14a;" horiz-adv-x="1622" 
d="M1428 1456v-1455q0 -475 -546 -475v195q55 0 94.5 4t82.5 18t69 39t43 70t17 107v139l-632 849l-131 191v-1138h-232v1456h267l601 -819l127 -187v1006h240z" />
    <glyph glyph-name="eng" unicode="&#x14b;" horiz-adv-x="1191" 
d="M524 -396v199q59 0 108 11.5t92 38t67.5 77t24.5 120.5v552q0 138 -37 194t-133 56q-35 0 -76 -16t-78.5 -44.5t-62.5 -75.5t-25 -102v-614h-248v635q0 109 -5 206.5t-10 140.5l-5 44h263v-148q40 82 127.5 128t170.5 46q88 0 153 -23t114.5 -76t74.5 -145t25 -223v-475
q0 -127 -39.5 -224.5t-111.5 -158.5t-170 -92t-219 -31z" />
    <glyph glyph-name="Omacron" unicode="&#x14c;" 
d="M494 1576v157h624v-157h-624zM840 -23q-341 0 -537.5 205.5t-196.5 552.5q0 338 197.5 543t539.5 205q331 0 526.5 -204.5t195.5 -543.5q0 -348 -193 -553t-532 -205zM834 194q223 0 339 140.5t116 400.5q0 252 -116 391.5t-335 139.5q-221 0 -339.5 -139.5
t-118.5 -391.5q0 -261 115 -401t339 -140z" />
    <glyph glyph-name="omacron" unicode="&#x14d;" horiz-adv-x="1286" 
d="M648 -23q-134 0 -239 43.5t-169.5 118t-98 170t-33.5 204.5q0 111 34 207.5t99.5 171t170 117.5t235.5 43q134 0 238 -42.5t167 -117t94.5 -171t31.5 -210.5q0 -107 -33 -201.5t-96.5 -169.5t-167 -119t-233.5 -44zM643 177q73 0 128 27.5t86.5 76t47 107.5t15.5 128
q0 147 -69.5 241t-206.5 94q-93 0 -157 -46.5t-92.5 -120.5t-28.5 -168q0 -93 26.5 -167t91 -123t159.5 -49zM301 1146v157h624v-157h-624z" />
    <glyph glyph-name="Obreve" unicode="&#x14e;" 
d="M843 1590q-302 0 -322 296h174q3 -38 16 -63.5t35.5 -37.5t44.5 -16.5t52 -4.5q63 0 101 24.5t45 97.5h173q-11 -154 -91.5 -225t-227.5 -71zM840 -23q-341 0 -537.5 205.5t-196.5 552.5q0 338 197.5 543t539.5 205q331 0 526.5 -204.5t195.5 -543.5q0 -348 -193 -553
t-532 -205zM834 194q223 0 339 140.5t116 400.5q0 252 -116 391.5t-335 139.5q-221 0 -339.5 -139.5t-118.5 -391.5q0 -261 115 -401t339 -140z" />
    <glyph glyph-name="obreve" unicode="&#x14f;" horiz-adv-x="1286" 
d="M648 -23q-134 0 -239 43.5t-169.5 118t-98 170t-33.5 204.5q0 111 34 207.5t99.5 171t170 117.5t235.5 43q134 0 238 -42.5t167 -117t94.5 -171t31.5 -210.5q0 -107 -33 -201.5t-96.5 -169.5t-167 -119t-233.5 -44zM643 177q73 0 128 27.5t86.5 76t47 107.5t15.5 128
q0 147 -69.5 241t-206.5 94q-93 0 -157 -46.5t-92.5 -120.5t-28.5 -168q0 -93 26.5 -167t91 -123t159.5 -49zM651 1160q-302 0 -322 296h174q3 -38 16 -63.5t35.5 -37.5t44.5 -16.5t52 -4.5q63 0 101 24.5t45 97.5h173q-11 -154 -91.5 -225t-227.5 -71z" />
    <glyph glyph-name="Ohungarumlaut" unicode="&#x150;" 
d="M940 1582l209 344h296l-318 -344h-187zM602 1582l153 344h264l-238 -344h-179zM840 -23q-341 0 -537.5 205.5t-196.5 552.5q0 338 197.5 543t539.5 205q331 0 526.5 -204.5t195.5 -543.5q0 -348 -193 -553t-532 -205zM834 194q223 0 339 140.5t116 400.5
q0 252 -116 391.5t-335 139.5q-221 0 -339.5 -139.5t-118.5 -391.5q0 -261 115 -401t339 -140z" />
    <glyph glyph-name="ohungarumlaut" unicode="&#x151;" horiz-adv-x="1286" 
d="M648 -23q-134 0 -239 43.5t-169.5 118t-98 170t-33.5 204.5q0 111 34 207.5t99.5 171t170 117.5t235.5 43q134 0 238 -42.5t167 -117t94.5 -171t31.5 -210.5q0 -107 -33 -201.5t-96.5 -169.5t-167 -119t-233.5 -44zM643 177q73 0 128 27.5t86.5 76t47 107.5t15.5 128
q0 147 -69.5 241t-206.5 94q-93 0 -157 -46.5t-92.5 -120.5t-28.5 -168q0 -93 26.5 -167t91 -123t159.5 -49zM748 1152l209 344h296l-318 -344h-187zM410 1152l153 344h264l-238 -344h-179z" />
    <glyph glyph-name="OE" unicode="&#x152;" horiz-adv-x="2057" 
d="M822 174h3q50 0 93.5 7t70.5 16.5t49 22t30.5 19.5t13.5 12v940q-96 77 -242 77q-28 0 -60 -3q-62 -7 -117.5 -27.5t-108 -62t-90.5 -101t-61 -149t-23 -200.5q0 -266 119.5 -408t322.5 -143zM1082 251zM1082 1398v58h836v-217h-583v-385h546v-218h-543v-419h608v-217
h-864v62q-3 -3 -14 -10.5t-35.5 -20.5t-53.5 -24.5t-72.5 -20.5t-88.5 -10h-28q-142 0 -263.5 46t-216.5 136t-149.5 237.5t-54.5 335.5q0 171 52.5 312t142.5 234t207.5 146t250.5 59q6 0 17.5 0.5t16.5 0.5q57 0 106.5 -8t80 -18.5t55 -24.5t33.5 -21.5t14 -12.5z" />
    <glyph glyph-name="oe" unicode="&#x153;" horiz-adv-x="2003" 
d="M1618 641v21q0 92 -68 143.5t-161 51.5q-98 0 -163.5 -54t-77.5 -162h470zM642 177q63 0 112 27t78.5 73.5t44.5 106t15 127.5q0 154 -63 247t-194 93q-130 0 -202.5 -95.5t-72.5 -244.5q0 -147 71 -240.5t211 -93.5zM640 -22q-247 0 -393 148.5t-146 384.5
q0 237 141 389t390 152q134 0 232 -49t156 -130q63 91 150.5 136.5t223.5 45.5q218 0 341 -151t123 -405v-66h-712l2 -23q19 -233 310 -233q48 0 98.5 11.5t88 27.5t68 32.5t46.5 27.5l16 12l68 -181q-7 -5 -19 -14t-53.5 -31t-86.5 -39t-114.5 -31t-140.5 -14
q-121 0 -236 50.5t-171 130.5q-49 -79 -157.5 -130t-224.5 -51z" />
    <glyph glyph-name="Racute" unicode="&#x154;" horiz-adv-x="1388" 
d="M551 1596l264 290h318l-354 -290h-228zM441 831h243q272 0 272 211q0 115 -57 155.5t-188 40.5h-270v-407zM190 0v1456h525q120 0 207.5 -18t158.5 -61.5t107 -124t36 -198.5q0 -123 -73 -217.5t-220 -127.5q131 -73 193 -228l197 -481h-275l-167 433q-41 107 -89 145
t-145 38h-201v-616h-254z" />
    <glyph glyph-name="racute" unicode="&#x155;" horiz-adv-x="780" 
d="M162 0v766q0 60 -5 125t-10 100l-5 35h264v-135q61 80 121.5 120.5t136.5 40.5q45 0 102 -15v-217q-67 22 -124 22q-103 0 -168 -67t-65 -194v-581h-247zM328 1166l264 290h318l-354 -290h-228z" />
    <glyph glyph-name="Rcommaaccent" unicode="&#x156;" horiz-adv-x="1388" 
d="M489 -647l113 505h279l-180 -505h-212zM441 831h243q272 0 272 211q0 115 -57 155.5t-188 40.5h-270v-407zM190 0v1456h525q120 0 207.5 -18t158.5 -61.5t107 -124t36 -198.5q0 -123 -73 -217.5t-220 -127.5q131 -73 193 -228l197 -481h-275l-167 433q-41 107 -89 145
t-145 38h-201v-616h-254z" />
    <glyph glyph-name="rcommaaccent" unicode="&#x157;" horiz-adv-x="780" 
d="M103 -647l113 505h279l-180 -505h-212zM162 0v766q0 60 -5 125t-10 100l-5 35h264v-135q61 80 121.5 120.5t136.5 40.5q45 0 102 -15v-217q-67 22 -124 22q-103 0 -168 -67t-65 -194v-581h-247z" />
    <glyph glyph-name="Rcaron" unicode="&#x158;" horiz-adv-x="1388" 
d="M543 1615l-281 367h254l119 -145l123 145h266l-279 -367h-202zM441 831h243q272 0 272 211q0 115 -57 155.5t-188 40.5h-270v-407zM190 0v1456h525q120 0 207.5 -18t158.5 -61.5t107 -124t36 -198.5q0 -123 -73 -217.5t-220 -127.5q131 -73 193 -228l197 -481h-275
l-167 433q-41 107 -89 145t-145 38h-201v-616h-254z" />
    <glyph glyph-name="rcaron" unicode="&#x159;" horiz-adv-x="780" 
d="M162 0v766q0 60 -5 125t-10 100l-5 35h264v-135q61 80 121.5 120.5t136.5 40.5q45 0 102 -15v-217q-67 22 -124 22q-103 0 -168 -67t-65 -194v-581h-247zM321 1185l-281 367h254l119 -145l123 145h266l-279 -367h-202z" />
    <glyph glyph-name="Sacute" unicode="&#x15a;" horiz-adv-x="1256" 
d="M498 1596l264 290h318l-354 -290h-228zM623 -23q-150 0 -289 44t-219 122l108 182q71 -55 184.5 -93t199.5 -38q135 0 199.5 50t64.5 152q0 40 -6 64.5t-27 51t-62.5 49t-111.5 47.5q-30 10 -101.5 33t-104.5 35q-180 68 -261 160.5t-81 250.5q0 128 67.5 219t179.5 134
t256 43q195 0 303 -38t204 -130l-130 -168q-123 117 -341 117q-119 0 -193.5 -41t-74.5 -125q0 -41 7 -67.5t29.5 -52t64.5 -47t112 -46.5q25 -9 104.5 -34.5t118.5 -40.5q178 -71 248 -163t70 -256q0 -109 -43 -191.5t-117 -129.5t-164 -70t-194 -23z" />
    <glyph glyph-name="sacute" unicode="&#x15b;" horiz-adv-x="988" 
d="M534 -23q-135 0 -248 38t-180 91l62 178q63 -49 159 -80.5t185 -31.5q83 0 125.5 28t42.5 91v18q0 32 -25 54.5t-115 51.5l-146 47q-56 18 -93 33.5t-75.5 39.5t-60 52.5t-35 70t-13.5 95.5q0 78 30.5 137t84.5 93t120 50.5t145 16.5q98 0 196 -25t172 -74l-64 -170
q-60 32 -140.5 54t-145.5 22q-85 0 -123 -21t-38 -69q0 -32 12 -50t50 -37t122 -47l133 -45q80 -27 128.5 -59t78 -91t29.5 -148q0 -68 -22.5 -123t-59 -90t-86 -58t-100.5 -32.5t-105 -9.5zM390 1166l264 290h318l-354 -290h-228z" />
    <glyph glyph-name="Scircumflex" unicode="&#x15c;" horiz-adv-x="1256" 
d="M232 1646l257 370h252l265 -370h-247l-136 196l-139 -196h-252zM623 -23q-150 0 -289 44t-219 122l108 182q71 -55 184.5 -93t199.5 -38q135 0 199.5 50t64.5 152q0 40 -6 64.5t-27 51t-62.5 49t-111.5 47.5q-30 10 -101.5 33t-104.5 35q-180 68 -261 160.5t-81 250.5
q0 128 67.5 219t179.5 134t256 43q195 0 303 -38t204 -130l-130 -168q-123 117 -341 117q-119 0 -193.5 -41t-74.5 -125q0 -41 7 -67.5t29.5 -52t64.5 -47t112 -46.5q25 -9 104.5 -34.5t118.5 -40.5q178 -71 248 -163t70 -256q0 -109 -43 -191.5t-117 -129.5t-164 -70
t-194 -23z" />
    <glyph glyph-name="scircumflex" unicode="&#x15d;" horiz-adv-x="988" 
d="M534 -23q-135 0 -248 38t-180 91l62 178q63 -49 159 -80.5t185 -31.5q83 0 125.5 28t42.5 91v18q0 32 -25 54.5t-115 51.5l-146 47q-56 18 -93 33.5t-75.5 39.5t-60 52.5t-35 70t-13.5 95.5q0 78 30.5 137t84.5 93t120 50.5t145 16.5q98 0 196 -25t172 -74l-64 -170
q-60 32 -140.5 54t-145.5 22q-85 0 -123 -21t-38 -69q0 -32 12 -50t50 -37t122 -47l133 -45q80 -27 128.5 -59t78 -91t29.5 -148q0 -68 -22.5 -123t-59 -90t-86 -58t-100.5 -32.5t-105 -9.5zM110 1215l257 370h252l265 -370h-247l-136 196l-139 -196h-252z" />
    <glyph glyph-name="Scedilla" unicode="&#x15e;" horiz-adv-x="1256" 
d="M436 -426l11 132q33 -14 82 -26t92 -12q101 0 101 73q0 96 -153 119l-29 4l31 175h124l-17 -114q108 -8 165 -68t57 -140q0 -30 -6.5 -56t-18.5 -46.5t-29 -37t-37.5 -28t-45 -19.5t-50 -11.5t-53.5 -3.5q-120 0 -224 59zM623 -23q-150 0 -289 44t-219 122l108 182
q71 -55 184.5 -93t199.5 -38q135 0 199.5 50t64.5 152q0 40 -6 64.5t-27 51t-62.5 49t-111.5 47.5q-30 10 -101.5 33t-104.5 35q-180 68 -261 160.5t-81 250.5q0 128 67.5 219t179.5 134t256 43q195 0 303 -38t204 -130l-130 -168q-123 117 -341 117q-119 0 -193.5 -41
t-74.5 -125q0 -41 7 -67.5t29.5 -52t64.5 -47t112 -46.5q25 -9 104.5 -34.5t118.5 -40.5q178 -71 248 -163t70 -256q0 -109 -43 -191.5t-117 -129.5t-164 -70t-194 -23z" />
    <glyph glyph-name="scedilla" unicode="&#x15f;" horiz-adv-x="988" 
d="M534 -23q-135 0 -248 38t-180 91l62 178q63 -49 159 -80.5t185 -31.5q83 0 125.5 28t42.5 91v18q0 32 -25 54.5t-115 51.5l-146 47q-56 18 -93 33.5t-75.5 39.5t-60 52.5t-35 70t-13.5 95.5q0 78 30.5 137t84.5 93t120 50.5t145 16.5q98 0 196 -25t172 -74l-64 -170
q-60 32 -140.5 54t-145.5 22q-85 0 -123 -21t-38 -69q0 -32 12 -50t50 -37t122 -47l133 -45q80 -27 128.5 -59t78 -91t29.5 -148q0 -68 -22.5 -123t-59 -90t-86 -58t-100.5 -32.5t-105 -9.5zM324 -426l11 132q33 -14 82 -26t92 -12q101 0 101 73q0 96 -153 119l-29 4l31 175
h124l-17 -114q108 -8 165 -68t57 -140q0 -30 -6.5 -56t-18.5 -46.5t-29 -37t-37.5 -28t-45 -19.5t-50 -11.5t-53.5 -3.5q-120 0 -224 59z" />
    <glyph glyph-name="Scaron" unicode="&#x160;" horiz-adv-x="1256" 
d="M491 1615l-281 367h254l119 -145l123 145h266l-279 -367h-202zM623 -23q-150 0 -289 44t-219 122l108 182q71 -55 184.5 -93t199.5 -38q135 0 199.5 50t64.5 152q0 40 -6 64.5t-27 51t-62.5 49t-111.5 47.5q-30 10 -101.5 33t-104.5 35q-180 68 -261 160.5t-81 250.5
q0 128 67.5 219t179.5 134t256 43q195 0 303 -38t204 -130l-130 -168q-123 117 -341 117q-119 0 -193.5 -41t-74.5 -125q0 -41 7 -67.5t29.5 -52t64.5 -47t112 -46.5q25 -9 104.5 -34.5t118.5 -40.5q178 -71 248 -163t70 -256q0 -109 -43 -191.5t-117 -129.5t-164 -70
t-194 -23z" />
    <glyph glyph-name="scaron" unicode="&#x161;" horiz-adv-x="988" 
d="M534 -23q-135 0 -248 38t-180 91l62 178q63 -49 159 -80.5t185 -31.5q83 0 125.5 28t42.5 91v18q0 32 -25 54.5t-115 51.5l-146 47q-56 18 -93 33.5t-75.5 39.5t-60 52.5t-35 70t-13.5 95.5q0 78 30.5 137t84.5 93t120 50.5t145 16.5q98 0 196 -25t172 -74l-64 -170
q-60 32 -140.5 54t-145.5 22q-85 0 -123 -21t-38 -69q0 -32 12 -50t50 -37t122 -47l133 -45q80 -27 128.5 -59t78 -91t29.5 -148q0 -68 -22.5 -123t-59 -90t-86 -58t-100.5 -32.5t-105 -9.5zM382 1185l-281 367h254l119 -145l123 145h266l-279 -367h-202z" />
    <glyph glyph-name="Tcommaaccent" unicode="&#x162;" horiz-adv-x="1181" 
d="M397 -426l11 132q33 -14 82 -26t92 -12q101 0 101 73q0 96 -153 119l-29 4l31 175h124l-17 -114q108 -8 165 -68t57 -140q0 -30 -6.5 -56t-18.5 -46.5t-29 -37t-37.5 -28t-45 -19.5t-50 -11.5t-53.5 -3.5q-120 0 -224 59zM460 0v1238h-449v218h1159v-218h-456v-1238h-254
z" />
    <glyph glyph-name="tcommaaccent" unicode="&#x163;" horiz-adv-x="804" 
d="M267 1360zM738 1h-100q-60 0 -104 3t-90.5 13t-79 26.5t-62.5 44.5t-48 67.5t-28.5 94.5t-10.5 126v484h-214v166h224v240l237 73v-313h268v-166h-268v-499q0 -48 7.5 -77.5t22.5 -49t50.5 -28.5t77.5 -12t118 -3v-190zM244 -426l11 132q33 -14 82 -26t92 -12
q101 0 101 73q0 96 -153 119l-29 4l31 175h124l-17 -114q108 -8 165 -68t57 -140q0 -30 -6.5 -56t-18.5 -46.5t-29 -37t-37.5 -28t-45 -19.5t-50 -11.5t-53.5 -3.5q-120 0 -224 59z" />
    <glyph glyph-name="Tcaron" unicode="&#x164;" horiz-adv-x="1181" 
d="M483 1615l-281 367h254l119 -145l123 145h266l-279 -367h-202zM460 0v1238h-449v218h1159v-218h-456v-1238h-254z" />
    <glyph glyph-name="tcaron" unicode="&#x165;" horiz-adv-x="804" 
d="M267 1360zM738 1h-100q-60 0 -104 3t-90.5 13t-79 26.5t-62.5 44.5t-48 67.5t-28.5 94.5t-10.5 126v484h-214v166h224v240l237 73v-313h268v-166h-268v-499q0 -48 7.5 -77.5t22.5 -49t50.5 -28.5t77.5 -12t118 -3v-190zM267 1360zM553 1285l113 505h280l-181 -505h-212z
" />
    <glyph glyph-name="Tbar" unicode="&#x166;" horiz-adv-x="1181" 
d="M284 658v157h624v-157h-624zM460 0v1238h-449v218h1159v-218h-456v-1238h-254z" />
    <glyph glyph-name="tbar" unicode="&#x167;" horiz-adv-x="804" 
d="M267 1360zM738 1h-100q-60 0 -104 3t-90.5 13t-79 26.5t-62.5 44.5t-48 67.5t-28.5 94.5t-10.5 126v484h-214v166h224v240l237 73v-313h268v-166h-268v-499q0 -48 7.5 -77.5t22.5 -49t50.5 -28.5t77.5 -12t118 -3v-190zM24 522v157h624v-157h-624z" />
    <glyph glyph-name="Utilde" unicode="&#x168;" horiz-adv-x="1509" 
d="M806 1604h-1q-42 0 -101 27t-111 53.5t-76 26.5q-22 0 -42.5 -25t-25.5 -77h-160q0 128 60.5 209.5t157.5 81.5q51 0 109.5 -25t107 -52t68.5 -30q3 0 8 -0.5t7 -0.5q30 0 46.5 22.5t15.5 85.5h162q0 -148 -60 -221.5t-165 -74.5zM755 -23q-140 0 -246 34t-170.5 89.5
t-104.5 138t-55 168.5t-15 192v857h254v-868q0 -90 17 -159t46.5 -113t73 -72t92 -39t107.5 -11q76 0 134.5 19t105.5 62.5t72 122.5t25 191v867h254v-858q0 -105 -14 -190t-53.5 -168t-103.5 -139t-170.5 -90t-248.5 -34z" />
    <glyph glyph-name="utilde" unicode="&#x169;" horiz-adv-x="1186" 
d="M524 -23q-186 0 -290 106.5t-104 292.5v650h246v-646q0 -102 53 -152.5t146 -50.5q111 0 164.5 55.5t53.5 178.5v615h248v-750l12 -276h-256l-4 152q-5 -22 -22.5 -48.5t-48 -56.5t-83 -50t-115.5 -20zM661 1174h-1q-42 0 -101 27t-111 53.5t-76 26.5q-22 0 -42.5 -25
t-25.5 -77h-160q0 128 60.5 209.5t157.5 81.5q51 0 109.5 -25t107 -52t68.5 -30q3 0 8 -0.5t7 -0.5q30 0 46.5 22.5t15.5 85.5h162q0 -148 -60 -221.5t-165 -74.5z" />
    <glyph glyph-name="Umacron" unicode="&#x16a;" horiz-adv-x="1509" 
d="M402 1576v157h624v-157h-624zM755 -23q-140 0 -246 34t-170.5 89.5t-104.5 138t-55 168.5t-15 192v857h254v-868q0 -90 17 -159t46.5 -113t73 -72t92 -39t107.5 -11q76 0 134.5 19t105.5 62.5t72 122.5t25 191v867h254v-858q0 -105 -14 -190t-53.5 -168t-103.5 -139
t-170.5 -90t-248.5 -34z" />
    <glyph glyph-name="umacron" unicode="&#x16b;" horiz-adv-x="1186" 
d="M524 -23q-186 0 -290 106.5t-104 292.5v650h246v-646q0 -102 53 -152.5t146 -50.5q111 0 164.5 55.5t53.5 178.5v615h248v-750l12 -276h-256l-4 152q-5 -22 -22.5 -48.5t-48 -56.5t-83 -50t-115.5 -20zM257 1146v157h624v-157h-624z" />
    <glyph glyph-name="Ubreve" unicode="&#x16c;" horiz-adv-x="1509" 
d="M751 1590q-302 0 -322 296h174q3 -38 16 -63.5t35.5 -37.5t44.5 -16.5t52 -4.5q63 0 101 24.5t45 97.5h173q-11 -154 -91.5 -225t-227.5 -71zM755 -23q-140 0 -246 34t-170.5 89.5t-104.5 138t-55 168.5t-15 192v857h254v-868q0 -90 17 -159t46.5 -113t73 -72t92 -39
t107.5 -11q76 0 134.5 19t105.5 62.5t72 122.5t25 191v867h254v-858q0 -105 -14 -190t-53.5 -168t-103.5 -139t-170.5 -90t-248.5 -34z" />
    <glyph glyph-name="ubreve" unicode="&#x16d;" horiz-adv-x="1186" 
d="M524 -23q-186 0 -290 106.5t-104 292.5v650h246v-646q0 -102 53 -152.5t146 -50.5q111 0 164.5 55.5t53.5 178.5v615h248v-750l12 -276h-256l-4 152q-5 -22 -22.5 -48.5t-48 -56.5t-83 -50t-115.5 -20zM606 1160q-302 0 -322 296h174q3 -38 16 -63.5t35.5 -37.5
t44.5 -16.5t52 -4.5q63 0 101 24.5t45 97.5h173q-11 -154 -91.5 -225t-227.5 -71z" />
    <glyph glyph-name="Uring" unicode="&#x16e;" horiz-adv-x="1509" 
d="M740 1583q-92 0 -156 61t-64 152q0 92 63.5 152.5t156.5 60.5q92 0 156.5 -60.5t64.5 -152.5q0 -91 -64.5 -152t-156.5 -61zM741 1687q44 0 75.5 32t31.5 77t-31.5 76.5t-75.5 31.5t-75 -31.5t-31 -76.5t31 -77t75 -32zM755 -23q-140 0 -246 34t-170.5 89.5t-104.5 138
t-55 168.5t-15 192v857h254v-868q0 -90 17 -159t46.5 -113t73 -72t92 -39t107.5 -11q76 0 134.5 19t105.5 62.5t72 122.5t25 191v867h254v-858q0 -105 -14 -190t-53.5 -168t-103.5 -139t-170.5 -90t-248.5 -34z" />
    <glyph glyph-name="uring" unicode="&#x16f;" horiz-adv-x="1186" 
d="M524 -23q-186 0 -290 106.5t-104 292.5v650h246v-646q0 -102 53 -152.5t146 -50.5q111 0 164.5 55.5t53.5 178.5v615h248v-750l12 -276h-256l-4 152q-5 -22 -22.5 -48.5t-48 -56.5t-83 -50t-115.5 -20zM595 1153q-92 0 -156 61t-64 152q0 92 63.5 152.5t156.5 60.5
q92 0 156.5 -60.5t64.5 -152.5q0 -91 -64.5 -152t-156.5 -61zM596 1257q44 0 75.5 32t31.5 77t-31.5 76.5t-75.5 31.5t-75 -31.5t-31 -76.5t31 -77t75 -32z" />
    <glyph glyph-name="Uhungarumlaut" unicode="&#x170;" horiz-adv-x="1509" 
d="M848 1582l209 344h296l-318 -344h-187zM510 1582l153 344h264l-238 -344h-179zM755 -23q-140 0 -246 34t-170.5 89.5t-104.5 138t-55 168.5t-15 192v857h254v-868q0 -90 17 -159t46.5 -113t73 -72t92 -39t107.5 -11q76 0 134.5 19t105.5 62.5t72 122.5t25 191v867h254
v-858q0 -105 -14 -190t-53.5 -168t-103.5 -139t-170.5 -90t-248.5 -34z" />
    <glyph glyph-name="uhungarumlaut" unicode="&#x171;" horiz-adv-x="1186" 
d="M524 -23q-186 0 -290 106.5t-104 292.5v650h246v-646q0 -102 53 -152.5t146 -50.5q111 0 164.5 55.5t53.5 178.5v615h248v-750l12 -276h-256l-4 152q-5 -22 -22.5 -48.5t-48 -56.5t-83 -50t-115.5 -20zM703 1152l209 344h296l-318 -344h-187zM365 1152l153 344h264
l-238 -344h-179z" />
    <glyph glyph-name="Uogonek" unicode="&#x172;" horiz-adv-x="1509" 
d="M832 -356q-99 0 -155.5 32t-56.5 97q0 27 8 51.5t19 43.5t31 38.5t35.5 31.5t41 27t39.5 22t38.5 19t31.5 15l135 2q-69 -39 -109 -90t-40 -90q0 -47 63 -47q51 0 173 37v-148q-135 -41 -254 -41zM755 -23q-140 0 -246 34t-170.5 89.5t-104.5 138t-55 168.5t-15 192v857
h254v-868q0 -90 17 -159t46.5 -113t73 -72t92 -39t107.5 -11q76 0 134.5 19t105.5 62.5t72 122.5t25 191v867h254v-858q0 -105 -14 -190t-53.5 -168t-103.5 -139t-170.5 -90t-248.5 -34z" />
    <glyph glyph-name="uogonek" unicode="&#x173;" horiz-adv-x="1186" 
d="M524 -23q-186 0 -290 106.5t-104 292.5v650h246v-646q0 -102 53 -152.5t146 -50.5q111 0 164.5 55.5t53.5 178.5v615h248v-750l12 -276h-256l-4 152q-5 -22 -22.5 -48.5t-48 -56.5t-83 -50t-115.5 -20zM862 -356q-99 0 -155.5 32t-56.5 97q0 27 8 51.5t19 43.5t31 38.5
t35.5 31.5t41 27t39.5 22t38.5 19t31.5 15l135 2q-69 -39 -109 -90t-40 -90q0 -47 63 -47q51 0 173 37v-148q-135 -41 -254 -41z" />
    <glyph glyph-name="Wcircumflex" unicode="&#x174;" horiz-adv-x="2096" 
d="M657 1615l257 370h252l265 -370h-247l-136 196l-139 -196h-252zM428 0l-416 1456h270q28 -105 95 -355.5t115 -435.5t91 -359q47 177 103 362.5t135.5 434t111.5 353.5h242l260 -814l100 -341q41 175 87.5 362t109 435t90.5 358h262l-406 -1456h-291l-340 1105
l-332 -1105h-287z" />
    <glyph glyph-name="wcircumflex" unicode="&#x175;" horiz-adv-x="1685" 
d="M386 0l-372 1026h264q156 -480 234 -721q40 121 242 721h216q26 -80 72.5 -227.5t85 -268t73.5 -227.5q29 91 239 723h231l-389 -1026h-207q-211 631 -233 698q-39 -111 -248 -698h-208zM471 1185l257 370h252l265 -370h-247l-136 196l-139 -196h-252z" />
    <glyph glyph-name="Ycircumflex" unicode="&#x176;" horiz-adv-x="1281" 
d="M265 1615l257 370h252l265 -370h-247l-136 196l-139 -196h-252zM505 0v563l-519 893h289l361 -667l358 667h296l-531 -892v-564h-254z" />
    <glyph glyph-name="ycircumflex" unicode="&#x177;" horiz-adv-x="1114" 
d="M254 -445l-104 168q139 54 208.5 111.5t93.5 138.5l14 50l-436 1003h258l297 -736l256 736h253l-416 -1082q-43 -106 -113 -187.5t-146 -127.5t-165 -74zM203 1185l257 370h252l265 -370h-247l-136 196l-139 -196h-252z" />
    <glyph glyph-name="Ydieresis" unicode="&#x178;" horiz-adv-x="1281" 
d="M754 1581v225h245v-225h-245zM296 1581v225h247v-225h-247zM505 0v563l-519 893h289l361 -667l358 667h296l-531 -892v-564h-254z" />
    <glyph glyph-name="Zacute" unicode="&#x179;" horiz-adv-x="1202" 
d="M520 1596l264 290h318l-354 -290h-228zM71 0v136l689 1102h-663v218h1014v-132l-693 -1106h692v-218h-1039z" />
    <glyph glyph-name="zacute" unicode="&#x17a;" horiz-adv-x="998" 
d="M97 0v131l484 697h-459v198h781v-129l-488 -700h514v-197h-832zM441 1166l264 290h318l-354 -290h-228z" />
    <glyph glyph-name="Zdotaccent" unicode="&#x17b;" horiz-adv-x="1202" 
d="M516 1596v228h246v-228h-246zM71 0v136l689 1102h-663v218h1014v-132l-693 -1106h692v-218h-1039z" />
    <glyph glyph-name="zdotaccent" unicode="&#x17c;" horiz-adv-x="998" 
d="M97 0v131l484 697h-459v198h781v-129l-488 -700h514v-197h-832zM437 1166v228h246v-228h-246z" />
    <glyph glyph-name="Zcaron" unicode="&#x17d;" horiz-adv-x="1202" 
d="M513 1615l-281 367h254l119 -145l123 145h266l-279 -367h-202zM71 0v136l689 1102h-663v218h1014v-132l-693 -1106h692v-218h-1039z" />
    <glyph glyph-name="zcaron" unicode="&#x17e;" horiz-adv-x="998" 
d="M97 0v131l484 697h-459v198h781v-129l-488 -700h514v-197h-832zM434 1185l-281 367h254l119 -145l123 145h266l-279 -367h-202z" />
    <glyph glyph-name="longs" unicode="&#x17f;" horiz-adv-x="988" 
d="M534 -23q-135 0 -248 38t-180 91l62 178q63 -49 159 -80.5t185 -31.5q83 0 125.5 28t42.5 91v18q0 32 -25 54.5t-115 51.5l-146 47q-56 18 -93 33.5t-75.5 39.5t-60 52.5t-35 70t-13.5 95.5q0 78 30.5 137t84.5 93t120 50.5t145 16.5q98 0 196 -25t172 -74l-64 -170
q-60 32 -140.5 54t-145.5 22q-85 0 -123 -21t-38 -69q0 -32 12 -50t50 -37t122 -47l133 -45q80 -27 128.5 -59t78 -91t29.5 -148q0 -68 -22.5 -123t-59 -90t-86 -58t-100.5 -32.5t-105 -9.5z" />
    <glyph glyph-name="florin" unicode="&#x192;" horiz-adv-x="1111" 
d="M203 -315q-52 0 -108 18l17 207q54 -10 99 -10q23 0 40 5t38.5 22t38.5 57.5t29 102.5l98 546h-139l41 163h130l57 311q7 35 14 62.5t21 65t31 65.5t44.5 57.5t61 49t81.5 31.5t104 12q58 0 105.5 -11t65.5 -23l19 -11l-17 -200q-65 20 -115 20q-17 0 -30.5 -2
t-31.5 -9.5t-31.5 -21t-25.5 -38.5t-19 -59l-58 -299h150l-33 -163h-154l-106 -588q-36 -198 -140.5 -279t-276.5 -81zM1077 1204q-1 0 -3 1z" />
    <glyph glyph-name="uni01C4" unicode="&#x1c4;" horiz-adv-x="2773" 
d="M2084 1615l-281 367h254l119 -145l123 145h266l-279 -367h-202zM1642 0v136l689 1102h-663v218h1014v-132l-693 -1106h692v-218h-1039zM190 0v1456h406q437 0 653 -185.5t216 -533.5q0 -361 -211.5 -549t-616.5 -188h-447zM444 218h206q264 0 405 132t141 388
q0 243 -142.5 371.5t-434.5 128.5h-175v-1020z" />
    <glyph glyph-name="uni01C5" unicode="&#x1c5;" horiz-adv-x="2569" 
d="M1668 0v131l484 697h-459v198h781v-129l-488 -700h514v-197h-832zM2005 1185l-281 367h254l119 -145l123 145h266l-279 -367h-202zM190 0v1456h406q437 0 653 -185.5t216 -533.5q0 -361 -211.5 -549t-616.5 -188h-447zM444 218h206q264 0 405 132t141 388
q0 243 -142.5 371.5t-434.5 128.5h-175v-1020z" />
    <glyph glyph-name="uni01C6" unicode="&#x1c6;" horiz-adv-x="2265" 
d="M1364 0v131l484 697h-459v198h781v-129l-488 -700h514v-197h-832zM1701 1185l-281 367h254l119 -145l123 145h266l-279 -367h-202zM962 1026zM627 177q68 0 119 27.5t80.5 76t44 106.5t14.5 125q0 150 -65 244.5t-195 94.5q-87 0 -146.5 -47t-85 -120t-25.5 -168
q0 -69 14.5 -128t44 -107.5t81 -76t119.5 -27.5zM576 -23q-199 0 -333.5 146t-134.5 385q0 109 31 206t89.5 173t153.5 120.5t213 44.5q106 0 179.5 -43.5t102.5 -90.5v539h246v-1183q0 -6 9 -274h-254l-2 131q-9 -23 -30 -47t-56 -49.5t-91 -41.5t-123 -16z" />
    <glyph glyph-name="uni01C7" unicode="&#x1c7;" horiz-adv-x="2192" 
d="M326 1026zM190 0v1456h254v-1238h674v-218h-928zM1590 -331q-143 0 -321 64l46 193q137 -44 229 -44q205 0 205 228v1346h254v-1334q0 -218 -109 -335.5t-304 -117.5z" />
    <glyph glyph-name="uni01C8" unicode="&#x1c8;" horiz-adv-x="1773" 
d="M1397 1228v228h246v-228h-246zM1273 -362q-55 0 -101.5 7t-64.5 13l-19 7l28 170q62 -19 143 -19q36 0 58 6.5t40 27.5t26 62t8 108v1006h253v-1035q0 -90 -16.5 -152t-57 -109t-114 -69.5t-183.5 -22.5zM1116 -165l-3 1h3v-1zM326 1026zM190 0v1456h254v-1238h674v-218
h-928z" />
    <glyph glyph-name="uni01C9" unicode="&#x1c9;" horiz-adv-x="1126" 
d="M187 1026zM142 0v1457h245v-1457h-245zM750 1228v228h246v-228h-246zM626 -362q-55 0 -101.5 7t-64.5 13l-19 7l28 170q62 -19 143 -19q36 0 58 6.5t40 27.5t26 62t8 108v1006h253v-1035q0 -90 -16.5 -152t-57 -109t-114 -69.5t-183.5 -22.5zM469 -165l-3 1h3v-1z" />
    <glyph glyph-name="uni01CA" unicode="&#x1ca;" horiz-adv-x="2649" 
d="M190 0v1456h269q694 -1006 739 -1072v1072h242v-1456h-270q-671 969 -745 1074v-1074h-235zM2047 -331q-143 0 -321 64l46 193q137 -44 229 -44q205 0 205 228v1346h254v-1334q0 -218 -109 -335.5t-304 -117.5z" />
    <glyph glyph-name="uni01CB" unicode="&#x1cb;" horiz-adv-x="2230" 
d="M1854 1228v228h246v-228h-246zM1730 -362q-55 0 -101.5 7t-64.5 13l-19 7l28 170q62 -19 143 -19q36 0 58 6.5t40 27.5t26 62t8 108v1006h253v-1035q0 -90 -16.5 -152t-57 -109t-114 -69.5t-183.5 -22.5zM1573 -165l-3 1h3v-1zM190 0v1456h269q694 -1006 739 -1072v1072
h242v-1456h-270q-671 969 -745 1074v-1074h-235z" />
    <glyph glyph-name="uni01CC" unicode="&#x1cc;" horiz-adv-x="1824" 
d="M158 0v635q0 109 -5 206.5t-10 140.5l-5 44h263v-137q53 80 141.5 121.5t171.5 41.5q89 0 156 -23.5t118.5 -76t78.5 -144.5t27 -223v-585h-248v602q0 136 -42.5 192.5t-140.5 56.5q-36 0 -79 -16t-83.5 -44.5t-67.5 -75t-27 -101.5v-614h-248zM1448 1228v228h246v-228
h-246zM1324 -362q-55 0 -101.5 7t-64.5 13l-19 7l28 170q62 -19 143 -19q36 0 58 6.5t40 27.5t26 62t8 108v1006h253v-1035q0 -90 -16.5 -152t-57 -109t-114 -69.5t-183.5 -22.5zM1167 -165l-3 1h3v-1z" />
    <glyph glyph-name="uni01CD" unicode="&#x1cd;" horiz-adv-x="1458" 
d="M613 1615l-281 367h254l119 -145l123 145h266l-279 -367h-202zM524 592h390q-115 341 -193 567q-65 -189 -197 -567zM12 0l585 1456h258l590 -1456h-287l-141 355h-588l-138 -355h-279z" />
    <glyph glyph-name="uni01CE" unicode="&#x1ce;" horiz-adv-x="1291" 
d="M574 1185l-281 367h254l119 -145l123 145h266l-279 -367h-202zM644 177q144 0 209.5 91.5t65.5 244.5q0 157 -69.5 247.5t-210.5 90.5q-138 0 -211.5 -91t-73.5 -245t73.5 -246t216.5 -92zM613 -23q-125 0 -224 45t-159 120t-91 167t-31 193q0 107 32 203.5t93.5 175
t162.5 125t229 46.5q186 0 286 -135v109h243v-1026h-249v140q-112 -163 -292 -163z" />
    <glyph glyph-name="uni01CF" unicode="&#x1cf;" horiz-adv-x="586" 
d="M168 1615l-281 367h254l119 -145l123 145h266l-279 -367h-202zM160 0v1456h254v-1456h-254z" />
    <glyph glyph-name="uni01D0" unicode="&#x1d0;" horiz-adv-x="485" 
d="M103 0v1026h249v-1026h-249zM109 1185l-281 367h254l119 -145l123 145h266l-279 -367h-202z" />
    <glyph glyph-name="uni01D1" unicode="&#x1d1;" 
d="M719 1615l-281 367h254l119 -145l123 145h266l-279 -367h-202zM840 -23q-341 0 -537.5 205.5t-196.5 552.5q0 338 197.5 543t539.5 205q331 0 526.5 -204.5t195.5 -543.5q0 -348 -193 -553t-532 -205zM834 194q223 0 339 140.5t116 400.5q0 252 -116 391.5t-335 139.5
q-221 0 -339.5 -139.5t-118.5 -391.5q0 -261 115 -401t339 -140z" />
    <glyph glyph-name="uni01D2" unicode="&#x1d2;" horiz-adv-x="1286" 
d="M648 -23q-134 0 -239 43.5t-169.5 118t-98 170t-33.5 204.5q0 111 34 207.5t99.5 171t170 117.5t235.5 43q134 0 238 -42.5t167 -117t94.5 -171t31.5 -210.5q0 -107 -33 -201.5t-96.5 -169.5t-167 -119t-233.5 -44zM643 177q73 0 128 27.5t86.5 76t47 107.5t15.5 128
q0 147 -69.5 241t-206.5 94q-93 0 -157 -46.5t-92.5 -120.5t-28.5 -168q0 -93 26.5 -167t91 -123t159.5 -49zM527 1185l-281 367h254l119 -145l123 145h266l-279 -367h-202z" />
    <glyph glyph-name="uni01D3" unicode="&#x1d3;" horiz-adv-x="1509" 
d="M627 1615l-281 367h254l119 -145l123 145h266l-279 -367h-202zM755 -23q-140 0 -246 34t-170.5 89.5t-104.5 138t-55 168.5t-15 192v857h254v-868q0 -90 17 -159t46.5 -113t73 -72t92 -39t107.5 -11q76 0 134.5 19t105.5 62.5t72 122.5t25 191v867h254v-858
q0 -105 -14 -190t-53.5 -168t-103.5 -139t-170.5 -90t-248.5 -34z" />
    <glyph glyph-name="uni01D4" unicode="&#x1d4;" horiz-adv-x="1186" 
d="M524 -23q-186 0 -290 106.5t-104 292.5v650h246v-646q0 -102 53 -152.5t146 -50.5q111 0 164.5 55.5t53.5 178.5v615h248v-750l12 -276h-256l-4 152q-5 -22 -22.5 -48.5t-48 -56.5t-83 -50t-115.5 -20zM483 1185l-281 367h254l119 -145l123 145h266l-279 -367h-202z" />
    <glyph glyph-name="uni01E2" unicode="&#x1e2;" horiz-adv-x="2215" 
d="M958 1576v157h624v-157h-624zM634 558h467l-47 672h-34zM19 0l867 1456h1084v-226h-657l34 -376h621v-220h-593l39 -408h582v-226h-848l-29 355h-584l-202 -355h-314z" />
    <glyph glyph-name="uni01E3" unicode="&#x1e3;" horiz-adv-x="1776" 
d="M541 1146v157h624v-157h-624zM979 632h462l-1 23q-3 103 -67.5 160t-145.5 57q-96 0 -158.5 -66.5t-89.5 -173.5zM481 177q54 0 98 17.5t72 45.5t47 66.5t27.5 78t9.5 82.5h-100q-65 0 -120.5 -8.5t-102.5 -26.5t-74 -51t-27 -77q0 -65 47.5 -96t122.5 -31zM474 -22
q-186 0 -295 82.5t-109 233.5q0 195 146.5 269.5t478.5 74.5h41q-2 99 -61 160t-166 61q-117 0 -286 -81l-72 164q182 110 413 110q84 0 177.5 -49.5t139.5 -138.5q46 88 147.5 138t200.5 50h3q112 -1 195.5 -43t133 -116t73.5 -168t24 -206l-5 -52h-677v-19
q26 -271 278 -271h9q73 2 151.5 30t120.5 55l42 27l67 -181q-7 -5 -19.5 -14t-53.5 -31t-83.5 -39.5t-106.5 -31.5t-126 -15h-12q-143 0 -238 44t-148 151q-51 -102 -156 -148t-227 -46z" />
    <glyph glyph-name="Gcaron" unicode="&#x1e6;" horiz-adv-x="1538" 
d="M719 1615l-281 367h254l119 -145l123 145h266l-279 -367h-202zM851 -23q-359 0 -552.5 196t-193.5 531q0 125 31.5 240.5t96 213.5t155.5 170.5t216.5 113.5t272.5 41q103 0 187.5 -14.5t144.5 -41.5t89 -44.5t64 -44.5l-102 -178q-143 104 -382 104q-126 0 -226 -47
t-160 -126t-91 -175t-31 -201q0 -115 31 -210t91 -164.5t154.5 -108t216.5 -38.5q121 0 249 38v344h-340v217h598v-705q-249 -111 -519 -111z" />
    <glyph glyph-name="gcaron" unicode="&#x1e7;" horiz-adv-x="1235" 
d="M626 187q59 0 104 19.5t73 51t45.5 75.5t24 88.5t6.5 94.5q0 150 -62.5 242.5t-187.5 92.5q-86 0 -146.5 -48.5t-87.5 -122.5t-27 -165q0 -154 63 -241t195 -87zM578 -418q-200 0 -390 70l43 214q150 -78 329 -78q144 0 225 61.5t81 185.5v87q-88 -122 -257 -122
q-227 0 -364 139.5t-137 375.5q0 108 29 202.5t86 170.5t151.5 120t215.5 44q95 0 166.5 -38t110.5 -98v110h263q-20 -152 -20 -344v-535q0 -565 -532 -565zM501 1185l-281 367h254l119 -145l123 145h266l-279 -367h-202z" />
    <glyph glyph-name="uni01E8" unicode="&#x1e8;" horiz-adv-x="1352" 
d="M583 1615l-281 367h254l119 -145l123 145h266l-279 -367h-202zM190 0v1456h254v-636l561 636h317l-631 -703l680 -753h-330l-594 651v-651h-257z" />
    <glyph glyph-name="uni01E9" unicode="&#x1e9;" horiz-adv-x="1076" 
d="M140 0v1457h248v-850l371 419h342l-489 -496l521 -530h-328l-417 444v-444h-248zM529 1185l-281 367h254l119 -145l123 145h266l-279 -367h-202z" />
    <glyph glyph-name="uni01EA" unicode="&#x1ea;" 
d="M773 -356q-99 0 -155.5 32t-56.5 97q0 27 8 51.5t19 43.5t31 38.5t35.5 31.5t41 27t39.5 22t38.5 19t31.5 15l135 2q-69 -39 -109 -90t-40 -90q0 -47 63 -47q51 0 173 37v-148q-135 -41 -254 -41zM840 -23q-341 0 -537.5 205.5t-196.5 552.5q0 338 197.5 543t539.5 205
q331 0 526.5 -204.5t195.5 -543.5q0 -348 -193 -553t-532 -205zM834 194q223 0 339 140.5t116 400.5q0 252 -116 391.5t-335 139.5q-221 0 -339.5 -139.5t-118.5 -391.5q0 -261 115 -401t339 -140z" />
    <glyph glyph-name="uni01EB" unicode="&#x1eb;" horiz-adv-x="1286" 
d="M584 -356q-99 0 -155.5 32t-56.5 97q0 27 8 51.5t19 43.5t31 38.5t35.5 31.5t41 27t39.5 22t38.5 19t31.5 15l135 2q-69 -39 -109 -90t-40 -90q0 -47 63 -47q51 0 173 37v-148q-135 -41 -254 -41zM648 -23q-134 0 -239 43.5t-169.5 118t-98 170t-33.5 204.5
q0 111 34 207.5t99.5 171t170 117.5t235.5 43q134 0 238 -42.5t167 -117t94.5 -171t31.5 -210.5q0 -107 -33 -201.5t-96.5 -169.5t-167 -119t-233.5 -44zM643 177q73 0 128 27.5t86.5 76t47 107.5t15.5 128q0 147 -69.5 241t-206.5 94q-93 0 -157 -46.5t-92.5 -120.5
t-28.5 -168q0 -93 26.5 -167t91 -123t159.5 -49z" />
    <glyph glyph-name="uni01F0" unicode="&#x1f0;" horiz-adv-x="600" 
d="M100 -362q-55 0 -101.5 7t-64.5 13l-19 7l28 170q62 -19 143 -19q36 0 58 6.5t40 27.5t26 62t8 108v1006h253v-1035q0 -90 -16.5 -152t-57 -109t-114 -69.5t-183.5 -22.5zM-57 -165l-3 1h3v-1zM220 1185l-281 367h254l119 -145l123 145h266l-279 -367h-202z" />
    <glyph glyph-name="uni01F1" unicode="&#x1f1;" horiz-adv-x="2773" 
d="M1642 0v136l689 1102h-663v218h1014v-132l-693 -1106h692v-218h-1039zM190 0v1456h406q437 0 653 -185.5t216 -533.5q0 -361 -211.5 -549t-616.5 -188h-447zM444 218h206q264 0 405 132t141 388q0 243 -142.5 371.5t-434.5 128.5h-175v-1020z" />
    <glyph glyph-name="uni01F2" unicode="&#x1f2;" horiz-adv-x="2568" 
d="M1668 0v131l484 697h-459v198h781v-129l-488 -700h514v-197h-832zM190 0v1456h406q437 0 653 -185.5t216 -533.5q0 -361 -211.5 -549t-616.5 -188h-447zM444 218h206q264 0 405 132t141 388q0 243 -142.5 371.5t-434.5 128.5h-175v-1020z" />
    <glyph glyph-name="uni01F3" unicode="&#x1f3;" horiz-adv-x="2264" 
d="M1364 0v131l484 697h-459v198h781v-129l-488 -700h514v-197h-832zM962 1026zM627 177q68 0 119 27.5t80.5 76t44 106.5t14.5 125q0 150 -65 244.5t-195 94.5q-87 0 -146.5 -47t-85 -120t-25.5 -168q0 -69 14.5 -128t44 -107.5t81 -76t119.5 -27.5zM576 -23
q-199 0 -333.5 146t-134.5 385q0 109 31 206t89.5 173t153.5 120.5t213 44.5q106 0 179.5 -43.5t102.5 -90.5v539h246v-1183q0 -6 9 -274h-254l-2 131q-9 -23 -30 -47t-56 -49.5t-91 -41.5t-123 -16z" />
    <glyph glyph-name="uni01F4" unicode="&#x1f4;" horiz-adv-x="1538" 
d="M726 1596l264 290h318l-354 -290h-228zM851 -23q-359 0 -552.5 196t-193.5 531q0 125 31.5 240.5t96 213.5t155.5 170.5t216.5 113.5t272.5 41q103 0 187.5 -14.5t144.5 -41.5t89 -44.5t64 -44.5l-102 -178q-143 104 -382 104q-126 0 -226 -47t-160 -126t-91 -175
t-31 -201q0 -115 31 -210t91 -164.5t154.5 -108t216.5 -38.5q121 0 249 38v344h-340v217h598v-705q-249 -111 -519 -111z" />
    <glyph glyph-name="uni01F5" unicode="&#x1f5;" horiz-adv-x="1235" 
d="M626 187q59 0 104 19.5t73 51t45.5 75.5t24 88.5t6.5 94.5q0 150 -62.5 242.5t-187.5 92.5q-86 0 -146.5 -48.5t-87.5 -122.5t-27 -165q0 -154 63 -241t195 -87zM578 -418q-200 0 -390 70l43 214q150 -78 329 -78q144 0 225 61.5t81 185.5v87q-88 -122 -257 -122
q-227 0 -364 139.5t-137 375.5q0 108 29 202.5t86 170.5t151.5 120t215.5 44q95 0 166.5 -38t110.5 -98v110h263q-20 -152 -20 -344v-535q0 -565 -532 -565zM508 1166l264 290h318l-354 -290h-228z" />
    <glyph glyph-name="uni01F8" unicode="&#x1f8;" horiz-adv-x="1630" 
d="M733 1596l-351 289h318l262 -289h-229zM190 0v1456h269q694 -1006 739 -1072v1072h242v-1456h-270q-671 969 -745 1074v-1074h-235z" />
    <glyph glyph-name="uni01F9" unicode="&#x1f9;" horiz-adv-x="1224" 
d="M158 0v635q0 109 -5 206.5t-10 140.5l-5 44h263v-137q53 80 141.5 121.5t171.5 41.5q89 0 156 -23.5t118.5 -76t78.5 -144.5t27 -223v-585h-248v602q0 136 -42.5 192.5t-140.5 56.5q-36 0 -79 -16t-83.5 -44.5t-67.5 -75t-27 -101.5v-614h-248zM563 1166l-351 289h318
l262 -289h-229z" />
    <glyph glyph-name="Aringacute" unicode="&#x1fa;" horiz-adv-x="1458" 
d="M725 1583q-92 0 -156 61t-64 152q0 92 63.5 152.5t156.5 60.5q92 0 156.5 -60.5t64.5 -152.5q0 -91 -64.5 -152t-156.5 -61zM726 1687q44 0 75.5 32t31.5 77t-31.5 76.5t-75.5 31.5t-75 -31.5t-31 -76.5t31 -77t75 -32zM606 2094l264 290h318l-354 -290h-228zM524 592
h390q-115 341 -193 567q-65 -189 -197 -567zM12 0l585 1456h258l590 -1456h-287l-141 355h-588l-138 -355h-279z" />
    <glyph glyph-name="aringacute" unicode="&#x1fb;" horiz-adv-x="1291" 
d="M686 1153q-92 0 -156 61t-64 152q0 92 63.5 152.5t156.5 60.5q92 0 156.5 -60.5t64.5 -152.5q0 -91 -64.5 -152t-156.5 -61zM687 1257q44 0 75.5 32t31.5 77t-31.5 76.5t-75.5 31.5t-75 -31.5t-31 -76.5t31 -77t75 -32zM567 1664l264 290h318l-354 -290h-228zM644 177
q144 0 209.5 91.5t65.5 244.5q0 157 -69.5 247.5t-210.5 90.5q-138 0 -211.5 -91t-73.5 -245t73.5 -246t216.5 -92zM613 -23q-125 0 -224 45t-159 120t-91 167t-31 193q0 107 32 203.5t93.5 175t162.5 125t229 46.5q186 0 286 -135v109h243v-1026h-249v140
q-112 -163 -292 -163z" />
    <glyph glyph-name="AEacute" unicode="&#x1fc;" horiz-adv-x="2215" 
d="M1192 1596l264 290h318l-354 -290h-228zM634 558h467l-47 672h-34zM19 0l867 1456h1084v-226h-657l34 -376h621v-220h-593l39 -408h582v-226h-848l-29 355h-584l-202 -355h-314z" />
    <glyph glyph-name="aeacute" unicode="&#x1fd;" horiz-adv-x="1776" 
d="M979 632h462l-1 23q-3 103 -67.5 160t-145.5 57q-96 0 -158.5 -66.5t-89.5 -173.5zM481 177q54 0 98 17.5t72 45.5t47 66.5t27.5 78t9.5 82.5h-100q-65 0 -120.5 -8.5t-102.5 -26.5t-74 -51t-27 -77q0 -65 47.5 -96t122.5 -31zM474 -22q-186 0 -295 82.5t-109 233.5
q0 195 146.5 269.5t478.5 74.5h41q-2 99 -61 160t-166 61q-117 0 -286 -81l-72 164q182 110 413 110q84 0 177.5 -49.5t139.5 -138.5q46 88 147.5 138t200.5 50h3q112 -1 195.5 -43t133 -116t73.5 -168t24 -206l-5 -52h-677v-19q26 -271 278 -271h9q73 2 151.5 30t120.5 55
l42 27l67 -181q-7 -5 -19.5 -14t-53.5 -31t-83.5 -39.5t-106.5 -31.5t-126 -15h-12q-143 0 -238 44t-148 151q-51 -102 -156 -148t-227 -46zM775 1166l264 290h318l-354 -290h-228z" />
    <glyph glyph-name="Oslashacute" unicode="&#x1fe;" 
d="M727 1596l264 290h318l-354 -290h-228zM840 -23q339 0 532 205t193 553q0 213 -80.5 377.5t-229.5 259.5l81 151l-116 52l-78 -145q-133 53 -299 53q-342 0 -539.5 -205t-197.5 -543q0 -220 82 -387.5t235 -262.5l-86 -160l115 -53l84 157q136 -52 304 -52zM1141 1160
q148 -137 148 -425q0 -260 -116 -400.5t-339 -140.5q-110 0 -192 33zM1035 1229l-501 -936q-154 136 -154 442q0 252 118.5 391.5t339.5 139.5q111 0 197 -37z" />
    <glyph glyph-name="oslashacute" unicode="&#x1ff;" horiz-adv-x="1271" 
d="M734 838l-276 -591q-92 92 -92 269q0 94 28.5 168t92.5 120.5t157 46.5q46 0 90 -13zM828 782q92 -91 92 -266q0 -69 -15.5 -128t-47 -107.5t-86.5 -76t-128 -27.5q-52 0 -91 13zM648 -23q130 0 233.5 44t167 119t96.5 169.5t33 201.5q0 161 -63 287.5t-189 192.5l81 174
l-99 46l-84 -181q-83 22 -177 22q-131 0 -235.5 -43t-170 -117.5t-99.5 -171t-34 -207.5q0 -153 64.5 -277.5t189.5 -192.5l-89 -191l99 -47l92 196q82 -24 184 -24zM535 1166l264 290h318l-354 -290h-228z" />
    <glyph glyph-name="uni0200" unicode="&#x200;" horiz-adv-x="1458" 
d="M625 1582l-209 344h-296l318 -344h187zM963 1582l-153 344h-264l238 -344h179zM524 592h390q-115 341 -193 567q-65 -189 -197 -567zM12 0l585 1456h258l590 -1456h-287l-141 355h-588l-138 -355h-279z" />
    <glyph glyph-name="uni0201" unicode="&#x201;" horiz-adv-x="1291" 
d="M586 1152l-209 344h-296l318 -344h187zM924 1152l-153 344h-264l238 -344h179zM644 177q144 0 209.5 91.5t65.5 244.5q0 157 -69.5 247.5t-210.5 90.5q-138 0 -211.5 -91t-73.5 -245t73.5 -246t216.5 -92zM613 -23q-125 0 -224 45t-159 120t-91 167t-31 193
q0 107 32 203.5t93.5 175t162.5 125t229 46.5q186 0 286 -135v109h243v-1026h-249v140q-112 -163 -292 -163z" />
    <glyph glyph-name="uni0202" unicode="&#x202;" horiz-adv-x="1458" 
d="M400 1581q10 157 90 230t238 73q157 0 237.5 -73.5t90.5 -229.5h-187q-9 116 -143 116q-131 0 -137 -116h-189zM524 592h390q-115 341 -193 567q-65 -189 -197 -567zM12 0l585 1456h258l590 -1456h-287l-141 355h-588l-138 -355h-279z" />
    <glyph glyph-name="uni0203" unicode="&#x203;" horiz-adv-x="1291" 
d="M361 1151q10 157 90 230t238 73q157 0 237.5 -73.5t90.5 -229.5h-187q-9 116 -143 116q-131 0 -137 -116h-189zM644 177q144 0 209.5 91.5t65.5 244.5q0 157 -69.5 247.5t-210.5 90.5q-138 0 -211.5 -91t-73.5 -245t73.5 -246t216.5 -92zM613 -23q-125 0 -224 45
t-159 120t-91 167t-31 193q0 107 32 203.5t93.5 175t162.5 125t229 46.5q186 0 286 -135v109h243v-1026h-249v140q-112 -163 -292 -163z" />
    <glyph glyph-name="uni0204" unicode="&#x204;" horiz-adv-x="1249" 
d="M596 1582l-209 344h-296l318 -344h187zM934 1582l-153 344h-264l238 -344h179zM190 0v1456h919v-218h-665v-389h629v-219h-626v-412h691v-218h-948z" />
    <glyph glyph-name="uni0205" unicode="&#x205;" horiz-adv-x="1206" 
d="M560 1152l-209 344h-296l318 -344h187zM898 1152l-153 344h-264l238 -344h179zM373 636h510q-18 109 -81 167t-154 58q-107 0 -179 -60t-96 -165zM666 -23q-259 0 -408.5 148t-149.5 387q0 108 36 205t101.5 172t166 119t222.5 44t213 -42t144 -117.5t78.5 -169.5
t25.5 -208q0 -29 -5 -44h-720q6 -150 91.5 -222t227.5 -72q166 0 324 110l67 -180q-97 -67 -195.5 -98.5t-218.5 -31.5z" />
    <glyph glyph-name="uni0206" unicode="&#x206;" horiz-adv-x="1249" 
d="M338 1581q10 157 90 230t238 73q157 0 237.5 -73.5t90.5 -229.5h-187q-9 116 -143 116q-131 0 -137 -116h-189zM190 0v1456h919v-218h-665v-389h629v-219h-626v-412h691v-218h-948z" />
    <glyph glyph-name="uni0207" unicode="&#x207;" horiz-adv-x="1206" 
d="M302 1151q10 157 90 230t238 73q157 0 237.5 -73.5t90.5 -229.5h-187q-9 116 -143 116q-131 0 -137 -116h-189zM373 636h510q-18 109 -81 167t-154 58q-107 0 -179 -60t-96 -165zM666 -23q-259 0 -408.5 148t-149.5 387q0 108 36 205t101.5 172t166 119t222.5 44t213 -42
t144 -117.5t78.5 -169.5t25.5 -208q0 -29 -5 -44h-720q6 -150 91.5 -222t227.5 -72q166 0 324 110l67 -180q-97 -67 -195.5 -98.5t-218.5 -31.5z" />
    <glyph glyph-name="uni0208" unicode="&#x208;" horiz-adv-x="586" 
d="M213 1582l-209 344h-296l318 -344h187zM551 1582l-153 344h-264l238 -344h179zM160 0v1456h254v-1456h-254z" />
    <glyph glyph-name="uni0209" unicode="&#x209;" horiz-adv-x="485" 
d="M154 1152l-209 344h-296l318 -344h187zM492 1152l-153 344h-264l238 -344h179zM103 0v1026h249v-1026h-249z" />
    <glyph glyph-name="uni020A" unicode="&#x20a;" horiz-adv-x="586" 
d="M-45 1581q10 157 90 230t238 73q157 0 237.5 -73.5t90.5 -229.5h-187q-9 116 -143 116q-131 0 -137 -116h-189zM160 0v1456h254v-1456h-254z" />
    <glyph glyph-name="uni020B" unicode="&#x20b;" horiz-adv-x="485" 
d="M-104 1151q10 157 90 230t238 73q157 0 237.5 -73.5t90.5 -229.5h-187q-9 116 -143 116q-131 0 -137 -116h-189zM103 0v1026h249v-1026h-249z" />
    <glyph glyph-name="uni020C" unicode="&#x20c;" 
d="M764 1582l-209 344h-296l318 -344h187zM1102 1582l-153 344h-264l238 -344h179zM840 -23q-341 0 -537.5 205.5t-196.5 552.5q0 338 197.5 543t539.5 205q331 0 526.5 -204.5t195.5 -543.5q0 -348 -193 -553t-532 -205zM834 194q223 0 339 140.5t116 400.5
q0 252 -116 391.5t-335 139.5q-221 0 -339.5 -139.5t-118.5 -391.5q0 -261 115 -401t339 -140z" />
    <glyph glyph-name="uni020D" unicode="&#x20d;" horiz-adv-x="1286" 
d="M572 1152l-209 344h-296l318 -344h187zM910 1152l-153 344h-264l238 -344h179zM648 -23q-134 0 -239 43.5t-169.5 118t-98 170t-33.5 204.5q0 111 34 207.5t99.5 171t170 117.5t235.5 43q134 0 238 -42.5t167 -117t94.5 -171t31.5 -210.5q0 -107 -33 -201.5t-96.5 -169.5
t-167 -119t-233.5 -44zM643 177q73 0 128 27.5t86.5 76t47 107.5t15.5 128q0 147 -69.5 241t-206.5 94q-93 0 -157 -46.5t-92.5 -120.5t-28.5 -168q0 -93 26.5 -167t91 -123t159.5 -49z" />
    <glyph glyph-name="uni020E" unicode="&#x20e;" 
d="M506 1581q10 157 90 230t238 73q157 0 237.5 -73.5t90.5 -229.5h-187q-9 116 -143 116q-131 0 -137 -116h-189zM840 -23q-341 0 -537.5 205.5t-196.5 552.5q0 338 197.5 543t539.5 205q331 0 526.5 -204.5t195.5 -543.5q0 -348 -193 -553t-532 -205zM834 194
q223 0 339 140.5t116 400.5q0 252 -116 391.5t-335 139.5q-221 0 -339.5 -139.5t-118.5 -391.5q0 -261 115 -401t339 -140z" />
    <glyph glyph-name="uni020F" unicode="&#x20f;" horiz-adv-x="1286" 
d="M314 1151q10 157 90 230t238 73q157 0 237.5 -73.5t90.5 -229.5h-187q-9 116 -143 116q-131 0 -137 -116h-189zM648 -23q-134 0 -239 43.5t-169.5 118t-98 170t-33.5 204.5q0 111 34 207.5t99.5 171t170 117.5t235.5 43q134 0 238 -42.5t167 -117t94.5 -171t31.5 -210.5
q0 -107 -33 -201.5t-96.5 -169.5t-167 -119t-233.5 -44zM643 177q73 0 128 27.5t86.5 76t47 107.5t15.5 128q0 147 -69.5 241t-206.5 94q-93 0 -157 -46.5t-92.5 -120.5t-28.5 -168q0 -93 26.5 -167t91 -123t159.5 -49z" />
    <glyph glyph-name="uni0210" unicode="&#x210;" horiz-adv-x="1388" 
d="M588 1582l-209 344h-296l318 -344h187zM926 1582l-153 344h-264l238 -344h179zM441 831h243q272 0 272 211q0 115 -57 155.5t-188 40.5h-270v-407zM190 0v1456h525q120 0 207.5 -18t158.5 -61.5t107 -124t36 -198.5q0 -123 -73 -217.5t-220 -127.5q131 -73 193 -228
l197 -481h-275l-167 433q-41 107 -89 145t-145 38h-201v-616h-254z" />
    <glyph glyph-name="uni0211" unicode="&#x211;" horiz-adv-x="780" 
d="M365 1152l-209 344h-296l318 -344h187zM703 1152l-153 344h-264l238 -344h179zM162 0v766q0 60 -5 125t-10 100l-5 35h264v-135q61 80 121.5 120.5t136.5 40.5q45 0 102 -15v-217q-67 22 -124 22q-103 0 -168 -67t-65 -194v-581h-247z" />
    <glyph glyph-name="uni0212" unicode="&#x212;" horiz-adv-x="1388" 
d="M330 1581q10 157 90 230t238 73q157 0 237.5 -73.5t90.5 -229.5h-187q-9 116 -143 116q-131 0 -137 -116h-189zM441 831h243q272 0 272 211q0 115 -57 155.5t-188 40.5h-270v-407zM190 0v1456h525q120 0 207.5 -18t158.5 -61.5t107 -124t36 -198.5q0 -123 -73 -217.5
t-220 -127.5q131 -73 193 -228l197 -481h-275l-167 433q-41 107 -89 145t-145 38h-201v-616h-254z" />
    <glyph glyph-name="uni0213" unicode="&#x213;" horiz-adv-x="780" 
d="M107 1151q10 157 90 230t238 73q157 0 237.5 -73.5t90.5 -229.5h-187q-9 116 -143 116q-131 0 -137 -116h-189zM162 0v766q0 60 -5 125t-10 100l-5 35h264v-135q61 80 121.5 120.5t136.5 40.5q45 0 102 -15v-217q-67 22 -124 22q-103 0 -168 -67t-65 -194v-581h-247z" />
    <glyph glyph-name="uni0214" unicode="&#x214;" horiz-adv-x="1509" 
d="M672 1582l-209 344h-296l318 -344h187zM1010 1582l-153 344h-264l238 -344h179zM755 -23q-140 0 -246 34t-170.5 89.5t-104.5 138t-55 168.5t-15 192v857h254v-868q0 -90 17 -159t46.5 -113t73 -72t92 -39t107.5 -11q76 0 134.5 19t105.5 62.5t72 122.5t25 191v867h254
v-858q0 -105 -14 -190t-53.5 -168t-103.5 -139t-170.5 -90t-248.5 -34z" />
    <glyph glyph-name="uni0215" unicode="&#x215;" horiz-adv-x="1186" 
d="M528 1152l-209 344h-296l318 -344h187zM866 1152l-153 344h-264l238 -344h179zM524 -23q-186 0 -290 106.5t-104 292.5v650h246v-646q0 -102 53 -152.5t146 -50.5q111 0 164.5 55.5t53.5 178.5v615h248v-750l12 -276h-256l-4 152q-5 -22 -22.5 -48.5t-48 -56.5t-83 -50
t-115.5 -20z" />
    <glyph glyph-name="uni0216" unicode="&#x216;" horiz-adv-x="1509" 
d="M414 1581q10 157 90 230t238 73q157 0 237.5 -73.5t90.5 -229.5h-187q-9 116 -143 116q-131 0 -137 -116h-189zM755 -23q-140 0 -246 34t-170.5 89.5t-104.5 138t-55 168.5t-15 192v857h254v-868q0 -90 17 -159t46.5 -113t73 -72t92 -39t107.5 -11q76 0 134.5 19
t105.5 62.5t72 122.5t25 191v867h254v-858q0 -105 -14 -190t-53.5 -168t-103.5 -139t-170.5 -90t-248.5 -34z" />
    <glyph glyph-name="uni0217" unicode="&#x217;" horiz-adv-x="1186" 
d="M270 1151q10 157 90 230t238 73q157 0 237.5 -73.5t90.5 -229.5h-187q-9 116 -143 116q-131 0 -137 -116h-189zM524 -23q-186 0 -290 106.5t-104 292.5v650h246v-646q0 -102 53 -152.5t146 -50.5q111 0 164.5 55.5t53.5 178.5v615h248v-750l12 -276h-256l-4 152
q-5 -22 -22.5 -48.5t-48 -56.5t-83 -50t-115.5 -20z" />
    <glyph glyph-name="Scommaaccent" unicode="&#x218;" horiz-adv-x="1256" 
d="M400 -647l113 505h279l-180 -505h-212zM623 -23q-150 0 -289 44t-219 122l108 182q71 -55 184.5 -93t199.5 -38q135 0 199.5 50t64.5 152q0 40 -6 64.5t-27 51t-62.5 49t-111.5 47.5q-30 10 -101.5 33t-104.5 35q-180 68 -261 160.5t-81 250.5q0 128 67.5 219t179.5 134
t256 43q195 0 303 -38t204 -130l-130 -168q-123 117 -341 117q-119 0 -193.5 -41t-74.5 -125q0 -41 7 -67.5t29.5 -52t64.5 -47t112 -46.5q25 -9 104.5 -34.5t118.5 -40.5q178 -71 248 -163t70 -256q0 -109 -43 -191.5t-117 -129.5t-164 -70t-194 -23z" />
    <glyph glyph-name="scommaaccent" unicode="&#x219;" horiz-adv-x="988" 
d="M288 -647l113 505h279l-180 -505h-212zM534 -23q-135 0 -248 38t-180 91l62 178q63 -49 159 -80.5t185 -31.5q83 0 125.5 28t42.5 91v18q0 32 -25 54.5t-115 51.5l-146 47q-56 18 -93 33.5t-75.5 39.5t-60 52.5t-35 70t-13.5 95.5q0 78 30.5 137t84.5 93t120 50.5
t145 16.5q98 0 196 -25t172 -74l-64 -170q-60 32 -140.5 54t-145.5 22q-85 0 -123 -21t-38 -69q0 -32 12 -50t50 -37t122 -47l133 -45q80 -27 128.5 -59t78 -91t29.5 -148q0 -68 -22.5 -123t-59 -90t-86 -58t-100.5 -32.5t-105 -9.5z" />
    <glyph glyph-name="uni021A" unicode="&#x21a;" horiz-adv-x="1181" 
d="M361 -647l113 505h279l-180 -505h-212zM460 0v1238h-449v218h1159v-218h-456v-1238h-254z" />
    <glyph glyph-name="uni021B" unicode="&#x21b;" horiz-adv-x="804" 
d="M208 -647l113 505h279l-180 -505h-212zM267 1360zM738 1h-100q-60 0 -104 3t-90.5 13t-79 26.5t-62.5 44.5t-48 67.5t-28.5 94.5t-10.5 126v484h-214v166h224v240l237 73v-313h268v-166h-268v-499q0 -48 7.5 -77.5t22.5 -49t50.5 -28.5t77.5 -12t118 -3v-190z" />
    <glyph glyph-name="uni021E" unicode="&#x21e;" horiz-adv-x="1572" 
d="M653 1615l-281 367h254l119 -145l123 145h266l-279 -367h-202zM190 0v1456h254v-599h683v599h254v-1456h-249v637h-683v-637h-259z" />
    <glyph glyph-name="uni021F" unicode="&#x21f;" horiz-adv-x="1219" 
d="M144 0v1457h248v-564q37 71 130 115t177 44q71 0 129.5 -17t98.5 -45t70 -68.5t47 -82t27.5 -91.5t14 -91t3.5 -86v-571h-248v579q0 145 -45 208.5t-135 63.5q-102 0 -185.5 -70.5t-83.5 -162.5v-618h-248zM672 1185l-281 367h254l119 -145l123 145h266l-279 -367h-202z
" />
    <glyph glyph-name="uni0226" unicode="&#x226;" horiz-adv-x="1458" 
d="M616 1596v228h246v-228h-246zM524 592h390q-115 341 -193 567q-65 -189 -197 -567zM12 0l585 1456h258l590 -1456h-287l-141 355h-588l-138 -355h-279z" />
    <glyph glyph-name="uni0227" unicode="&#x227;" horiz-adv-x="1291" 
d="M578 1166v228h246v-228h-246zM644 177q144 0 209.5 91.5t65.5 244.5q0 157 -69.5 247.5t-210.5 90.5q-138 0 -211.5 -91t-73.5 -245t73.5 -246t216.5 -92zM613 -23q-125 0 -224 45t-159 120t-91 167t-31 193q0 107 32 203.5t93.5 175t162.5 125t229 46.5q186 0 286 -135
v109h243v-1026h-249v140q-112 -163 -292 -163z" />
    <glyph glyph-name="uni0228" unicode="&#x228;" horiz-adv-x="1249" 
d="M455 -426l11 132q33 -14 82 -26t92 -12q101 0 101 73q0 96 -153 119l-29 4l31 175h124l-17 -114q108 -8 165 -68t57 -140q0 -30 -6.5 -56t-18.5 -46.5t-29 -37t-37.5 -28t-45 -19.5t-50 -11.5t-53.5 -3.5q-120 0 -224 59zM190 0v1456h919v-218h-665v-389h629v-219h-626
v-412h691v-218h-948z" />
    <glyph glyph-name="uni0229" unicode="&#x229;" horiz-adv-x="1206" 
d="M373 636h510q-18 109 -81 167t-154 58q-107 0 -179 -60t-96 -165zM666 -23q-259 0 -408.5 148t-149.5 387q0 108 36 205t101.5 172t166 119t222.5 44t213 -42t144 -117.5t78.5 -169.5t25.5 -208q0 -29 -5 -44h-720q6 -150 91.5 -222t227.5 -72q166 0 324 110l67 -180
q-97 -67 -195.5 -98.5t-218.5 -31.5zM465 -426l11 132q33 -14 82 -26t92 -12q101 0 101 73q0 96 -153 119l-29 4l31 175h124l-17 -114q108 -8 165 -68t57 -140q0 -30 -6.5 -56t-18.5 -46.5t-29 -37t-37.5 -28t-45 -19.5t-50 -11.5t-53.5 -3.5q-120 0 -224 59z" />
    <glyph glyph-name="uni022E" unicode="&#x22e;" 
d="M723 1596v228h246v-228h-246zM840 -23q-341 0 -537.5 205.5t-196.5 552.5q0 338 197.5 543t539.5 205q331 0 526.5 -204.5t195.5 -543.5q0 -348 -193 -553t-532 -205zM834 194q223 0 339 140.5t116 400.5q0 252 -116 391.5t-335 139.5q-221 0 -339.5 -139.5
t-118.5 -391.5q0 -261 115 -401t339 -140z" />
    <glyph glyph-name="uni022F" unicode="&#x22f;" horiz-adv-x="1286" 
d="M648 -23q-134 0 -239 43.5t-169.5 118t-98 170t-33.5 204.5q0 111 34 207.5t99.5 171t170 117.5t235.5 43q134 0 238 -42.5t167 -117t94.5 -171t31.5 -210.5q0 -107 -33 -201.5t-96.5 -169.5t-167 -119t-233.5 -44zM643 177q73 0 128 27.5t86.5 76t47 107.5t15.5 128
q0 147 -69.5 241t-206.5 94q-93 0 -157 -46.5t-92.5 -120.5t-28.5 -168q0 -93 26.5 -167t91 -123t159.5 -49zM531 1166v228h246v-228h-246z" />
    <glyph glyph-name="uni0232" unicode="&#x232;" horiz-adv-x="1280" 
d="M311 1576v157h624v-157h-624zM505 0v563l-519 893h289l361 -667l358 667h296l-531 -892v-564h-254z" />
    <glyph glyph-name="uni0233" unicode="&#x233;" horiz-adv-x="1114" 
d="M254 -445l-104 168q139 54 208.5 111.5t93.5 138.5l14 50l-436 1003h258l297 -736l256 736h253l-416 -1082q-43 -106 -113 -187.5t-146 -127.5t-165 -74zM249 1146v157h624v-157h-624z" />
    <glyph glyph-name="uni0237" unicode="&#x237;" horiz-adv-x="600" 
d="M100 -362q-55 0 -101.5 7t-64.5 13l-19 7l28 170q62 -19 143 -19q36 0 58 6.5t40 27.5t26 62t8 108v1006h253v-1035q0 -90 -16.5 -152t-57 -109t-114 -69.5t-183.5 -22.5zM-57 -165l-3 1h3v-1z" />
    <glyph glyph-name="afii57929" unicode="&#x2bc;" horiz-adv-x="600" 
d="M64 1227l98 590h280l-196 -590h-182z" />
    <glyph glyph-name="circumflex" unicode="&#x2c6;" horiz-adv-x="699" 
d="M-37 1185l257 370h252l265 -370h-247l-136 196l-139 -196h-252z" />
    <glyph glyph-name="caron" unicode="&#x2c7;" horiz-adv-x="699" 
d="M250 1185l-281 367h254l119 -145l123 145h266l-279 -367h-202z" />
    <glyph glyph-name="uni02C9" unicode="&#x2c9;" horiz-adv-x="600" 
d="M-50 1339h686v167h-686v-167z" />
    <glyph glyph-name="breve" unicode="&#x2d8;" horiz-adv-x="700" 
d="M352 1160q-302 0 -322 296h174q3 -38 16 -63.5t35.5 -37.5t44.5 -16.5t52 -4.5q63 0 101 24.5t45 97.5h173q-11 -154 -91.5 -225t-227.5 -71z" />
    <glyph glyph-name="dotaccent" unicode="&#x2d9;" horiz-adv-x="524" 
d="M128 1166v228h246v-228h-246z" />
    <glyph glyph-name="ring" unicode="&#x2da;" horiz-adv-x="700" 
d="M338 1153q-92 0 -156 61t-64 152q0 92 63.5 152.5t156.5 60.5q92 0 156.5 -60.5t64.5 -152.5q0 -91 -64.5 -152t-156.5 -61zM339 1257q44 0 75.5 32t31.5 77t-31.5 76.5t-75.5 31.5t-75 -31.5t-31 -76.5t31 -77t75 -32z" />
    <glyph glyph-name="ogonek" unicode="&#x2db;" horiz-adv-x="508" 
d="M234 -356q-99 0 -155.5 32t-56.5 97q0 27 8 51.5t19 43.5t31 38.5t35.5 31.5t41 27t39.5 22t38.5 19t31.5 15l135 2q-69 -39 -109 -90t-40 -90q0 -47 63 -47q51 0 173 37v-148q-135 -41 -254 -41z" />
    <glyph glyph-name="tilde" unicode="&#x2dc;" horiz-adv-x="739" 
d="M515 1174h-1q-42 0 -101 27t-111 53.5t-76 26.5q-22 0 -42.5 -25t-25.5 -77h-160q0 128 60.5 209.5t157.5 81.5q51 0 109.5 -25t107 -52t68.5 -30q3 0 8 -0.5t7 -0.5q30 0 46.5 22.5t15.5 85.5h162q0 -148 -60 -221.5t-165 -74.5z" />
    <glyph glyph-name="hungarumlaut" unicode="&#x2dd;" horiz-adv-x="969" 
d="M407 1152l209 344h296l-318 -344h-187zM69 1152l153 344h264l-238 -344h-179z" />
    <glyph glyph-name="uni0307" unicode="&#x307;" horiz-adv-x="524" 
d="M136 1153v233h252v-233h-252z" />
    <glyph glyph-name="uni030F" unicode="&#x30f;" horiz-adv-x="969" 
d="M561 1152l-209 344h-296l318 -344h187zM899 1152l-153 344h-264l238 -344h179z" />
    <glyph glyph-name="uni0311" unicode="&#x311;" horiz-adv-x="629" 
d="M-14 1151q10 157 90 230t238 73q157 0 237.5 -73.5t90.5 -229.5h-187q-9 116 -143 116q-131 0 -137 -116h-189z" />
    <glyph glyph-name="uni0312" unicode="&#x312;" horiz-adv-x="600" 
d="M582 1736l-112 -497h-278l180 497h210z" />
    <glyph glyph-name="uni0326" unicode="&#x326;" horiz-adv-x="540" 
d="M74 -647l113 505h279l-180 -505h-212z" />
    <glyph glyph-name="uni0358" unicode="&#x358;" horiz-adv-x="524" 
d="M136 1153v233h252v-233h-252z" />
    <glyph glyph-name="uni0394" unicode="&#x394;" horiz-adv-x="1502" 
d="M322 217h800l-412 942zM61 0v219l550 1237h271l554 -1222v-234h-1375z" />
    <glyph glyph-name="Sigma" unicode="&#x3a3;" horiz-adv-x="1262" 
d="M82 -267v133l519 738l-497 724v128h1066v-204h-693l429 -646l-442 -661h748v-212h-1130z" />
    <glyph glyph-name="uni03A9" unicode="&#x3a9;" horiz-adv-x="1603" 
d="M70 0l-22 211l317 -3q-149 115 -211 257.5t-62 345.5q0 200 91.5 353t251 234t361.5 81q150 0 280 -46t226.5 -129.5t151.5 -210t55 -279.5q0 -205 -59.5 -348t-210.5 -258l327 3l-25 -211h-626v170q148 93 238 248t90 351q0 38 -4 78t-16.5 91t-32.5 96.5t-55 90.5
t-80 77t-111 52t-146 20q-82 0 -149 -20.5t-112 -53.5t-79 -79t-52.5 -91t-29.5 -97t-14.5 -90t-3.5 -75q0 -195 91 -349t239 -249v-170h-618z" />
    <glyph glyph-name="uni03BC" unicode="&#x3bc;" horiz-adv-x="1230" 
d="M801 285q-78 -105 -202 -105q-88 0 -127 60t-39 200v642h-306v-1398h306v301q33 -5 70 -5q216 0 326 172l15 -152h264v1082h-307v-797z" />
    <glyph glyph-name="pi" unicode="&#x3c0;" horiz-adv-x="1477" 
d="M1147 -13q118 0 177 57v128q-42 -15 -99 -15q-50 0 -78.5 17t-28.5 64q0 359 18 623h236v221h-888q-169 0 -240 -89.5t-71 -262.5h96q20 130 131 131h83l-64 -473q-8 -62 -28.5 -111.5t-45.5 -79.5t-55 -50.5t-56 -28t-49 -7.5v-107q128 0 210 18t128.5 60.5t65 97.5
t22.5 143l26 538h336q-27 -145 -48 -346t-21 -304q0 -125 64 -174.5t179 -49.5z" />
    <glyph glyph-name="uni1E02" unicode="&#x1e02;" horiz-adv-x="1367" 
d="M532 1596v228h246v-228h-246zM444 852h217q51 0 94 9.5t81.5 31.5t60.5 62t22 96q0 108 -75 147.5t-236 39.5h-164v-386zM447 217h229q307 0 307 205q0 128 -68.5 176t-244.5 48h-223v-429zM190 0v1456h403q63 0 113 -2.5t114.5 -11t113.5 -24t99 -43.5t82.5 -66.5
t53 -96t20.5 -129.5q0 -216 -193 -311q130 -35 195 -131.5t65 -229.5q0 -83 -33 -155.5t-97 -130.5t-168.5 -91.5t-236.5 -33.5h-531z" />
    <glyph glyph-name="uni1E03" unicode="&#x1e03;" horiz-adv-x="1291" 
d="M641 1166v228h246v-228h-246zM658 177q69 0 121.5 27.5t83 75.5t46 106t15.5 125q0 148 -66 244t-192 96q-131 0 -208 -96.5t-77 -239.5q0 -91 29.5 -165.5t93.5 -123.5t154 -49zM704 -23q-103 0 -187.5 44.5t-121.5 105.5v-127h-254q2 68 4 121t3 75.5t1.5 39t0.5 22.5
v14v1185h246v-575q5 18 25 44t56.5 55.5t100 50t139.5 20.5q216 0 341 -149t125 -385q0 -118 -38.5 -220t-103.5 -172t-152.5 -109.5t-184.5 -39.5z" />
    <glyph glyph-name="uni1E0A" unicode="&#x1e0a;" horiz-adv-x="1571" 
d="M624 1596v228h246v-228h-246zM190 0v1456h406q437 0 653 -185.5t216 -533.5q0 -361 -211.5 -549t-616.5 -188h-447zM444 218h206q264 0 405 132t141 388q0 243 -142.5 371.5t-434.5 128.5h-175v-1020z" />
    <glyph glyph-name="uni1E0B" unicode="&#x1e0b;" horiz-adv-x="1267" 
d="M457 1166v228h246v-228h-246zM962 1026zM627 177q68 0 119 27.5t80.5 76t44 106.5t14.5 125q0 150 -65 244.5t-195 94.5q-87 0 -146.5 -47t-85 -120t-25.5 -168q0 -69 14.5 -128t44 -107.5t81 -76t119.5 -27.5zM576 -23q-199 0 -333.5 146t-134.5 385q0 109 31 206
t89.5 173t153.5 120.5t213 44.5q106 0 179.5 -43.5t102.5 -90.5v539h246v-1183q0 -6 9 -274h-254l-2 131q-9 -23 -30 -47t-56 -49.5t-91 -41.5t-123 -16z" />
    <glyph glyph-name="uni1E1E" unicode="&#x1e1e;" horiz-adv-x="1145" 
d="M532 1596v228h246v-228h-246zM190 0v1456h889v-218h-635v-397h598v-219h-598v-622h-254z" />
    <glyph glyph-name="uni1E1F" unicode="&#x1e1f;" horiz-adv-x="820" 
d="M261 0v860h-191v166h191v40q0 70 3 116t13 94.5t28.5 78t50 57t77.5 42t110.5 23t149.5 8.5h53l-9 -193q-57 0 -90.5 -2t-62 -11.5t-41.5 -22t-22 -41t-11 -60t-2 -86.5v-43h231v-166h-231v-860h-247zM258 1596v228h246v-228h-246z" />
    <glyph glyph-name="uni1E40" unicode="&#x1e40;" horiz-adv-x="1987" 
d="M875 1596v228h246v-228h-246zM190 0v1456h298q31 -69 219.5 -489t289.5 -641q77 167 158.5 350.5t188 426.5t155.5 353h298v-1456h-238v1040q-53 -115 -469 -1040h-187q-52 114 -146 323.5t-172 380t-150 319.5v-1023h-245z" />
    <glyph glyph-name="uni1E41" unicode="&#x1e41;" horiz-adv-x="1839" 
d="M160 0v696q0 106 -10 218l-9 112h261v-134q38 70 116.5 115t170.5 45q99 0 181 -48t126 -142q132 190 333 190q188 0 282.5 -113t94.5 -310v-629h-248v614q0 41 -7 79t-22.5 75.5t-46 60t-72.5 22.5q-110 0 -181 -84t-71 -186v-581h-248v627q0 30 -3.5 57.5t-13.5 59
t-26.5 54.5t-46 38t-67.5 15q-105 0 -175 -68.5t-70 -159.5v-623h-248zM850 1166v228h246v-228h-246z" />
    <glyph glyph-name="uni1E56" unicode="&#x1e56;" horiz-adv-x="1299" 
d="M556 1596v228h246v-228h-246zM444 845h218q73 0 124 8t93.5 28.5t63.5 60t21 97.5q0 32 -5.5 58t-13.5 45.5t-25.5 34.5t-31 24.5t-42 16t-47 10t-56.5 5t-60 2t-68 0.5h-171v-390zM190 0v1456h415q73 0 126.5 -2t116 -8.5t107.5 -19.5t91.5 -33.5t78 -51.5t57 -73
t37.5 -99t12 -128q0 -117 -37.5 -198t-113 -127.5t-176 -67t-238.5 -20.5h-222v-628h-254z" />
    <glyph glyph-name="uni1E57" unicode="&#x1e57;" horiz-adv-x="1273" 
d="M650 177q69 0 120.5 27.5t81 75.5t44 106.5t14.5 127.5q0 95 -26 169t-86.5 121t-148.5 47q-87 0 -147 -46.5t-86 -119t-26 -166.5q0 -70 14.5 -129.5t44.5 -108t81.5 -76.5t119.5 -28zM160 -395v1076q0 89 -19 345h263v-147q12 56 100.5 114.5t216.5 58.5
q135 0 238.5 -74.5t156 -193.5t52.5 -259q0 -105 -31 -202.5t-88 -175t-146 -124t-196 -46.5q-121 0 -206 57t-97 107v-536h-244zM575 1166v228h246v-228h-246z" />
    <glyph glyph-name="uni1E60" unicode="&#x1e60;" horiz-adv-x="1256" 
d="M494 1596v228h246v-228h-246zM623 -23q-150 0 -289 44t-219 122l108 182q71 -55 184.5 -93t199.5 -38q135 0 199.5 50t64.5 152q0 40 -6 64.5t-27 51t-62.5 49t-111.5 47.5q-30 10 -101.5 33t-104.5 35q-180 68 -261 160.5t-81 250.5q0 128 67.5 219t179.5 134t256 43
q195 0 303 -38t204 -130l-130 -168q-123 117 -341 117q-119 0 -193.5 -41t-74.5 -125q0 -41 7 -67.5t29.5 -52t64.5 -47t112 -46.5q25 -9 104.5 -34.5t118.5 -40.5q178 -71 248 -163t70 -256q0 -109 -43 -191.5t-117 -129.5t-164 -70t-194 -23z" />
    <glyph glyph-name="uni1E61" unicode="&#x1e61;" horiz-adv-x="988" 
d="M534 -23q-135 0 -248 38t-180 91l62 178q63 -49 159 -80.5t185 -31.5q83 0 125.5 28t42.5 91v18q0 32 -25 54.5t-115 51.5l-146 47q-56 18 -93 33.5t-75.5 39.5t-60 52.5t-35 70t-13.5 95.5q0 78 30.5 137t84.5 93t120 50.5t145 16.5q98 0 196 -25t172 -74l-64 -170
q-60 32 -140.5 54t-145.5 22q-85 0 -123 -21t-38 -69q0 -32 12 -50t50 -37t122 -47l133 -45q80 -27 128.5 -59t78 -91t29.5 -148q0 -68 -22.5 -123t-59 -90t-86 -58t-100.5 -32.5t-105 -9.5zM386 1166v228h246v-228h-246z" />
    <glyph glyph-name="uni1E6A" unicode="&#x1e6a;" horiz-adv-x="1181" 
d="M486 1596v228h246v-228h-246zM460 0v1238h-449v218h1159v-218h-456v-1238h-254z" />
    <glyph glyph-name="uni1E6B" unicode="&#x1e6b;" horiz-adv-x="804" 
d="M267 1360zM738 1h-100q-60 0 -104 3t-90.5 13t-79 26.5t-62.5 44.5t-48 67.5t-28.5 94.5t-10.5 126v484h-214v166h224v240l237 73v-313h268v-166h-268v-499q0 -48 7.5 -77.5t22.5 -49t50.5 -28.5t77.5 -12t118 -3v-190zM246 1412v228h246v-228h-246z" />
    <glyph glyph-name="Wgrave" unicode="&#x1e80;" horiz-adv-x="2096" 
d="M943 1596l-351 289h318l262 -289h-229zM428 0l-416 1456h270q28 -105 95 -355.5t115 -435.5t91 -359q47 177 103 362.5t135.5 434t111.5 353.5h242l260 -814l100 -341q41 175 87.5 362t109 435t90.5 358h262l-406 -1456h-291l-340 1105l-332 -1105h-287z" />
    <glyph glyph-name="wgrave" unicode="&#x1e81;" horiz-adv-x="1685" 
d="M386 0l-372 1026h264q156 -480 234 -721q40 121 242 721h216q26 -80 72.5 -227.5t85 -268t73.5 -227.5q29 91 239 723h231l-389 -1026h-207q-211 631 -233 698q-39 -111 -248 -698h-208zM756 1166l-351 289h318l262 -289h-229z" />
    <glyph glyph-name="Wacute" unicode="&#x1e82;" horiz-adv-x="2096" 
d="M936 1596l264 290h318l-354 -290h-228zM428 0l-416 1456h270q28 -105 95 -355.5t115 -435.5t91 -359q47 177 103 362.5t135.5 434t111.5 353.5h242l260 -814l100 -341q41 175 87.5 362t109 435t90.5 358h262l-406 -1456h-291l-340 1105l-332 -1105h-287z" />
    <glyph glyph-name="wacute" unicode="&#x1e83;" horiz-adv-x="1685" 
d="M386 0l-372 1026h264q156 -480 234 -721q40 121 242 721h216q26 -80 72.5 -227.5t85 -268t73.5 -227.5q29 91 239 723h231l-389 -1026h-207q-211 631 -233 698q-39 -111 -248 -698h-208zM750 1166l264 290h318l-354 -290h-228z" />
    <glyph glyph-name="Wdieresis" unicode="&#x1e84;" horiz-adv-x="2096" 
d="M1146 1581v225h245v-225h-245zM688 1581v225h247v-225h-247zM428 0l-416 1456h270q28 -105 95 -355.5t115 -435.5t91 -359q47 177 103 362.5t135.5 434t111.5 353.5h242l260 -814l100 -341q41 175 87.5 362t109 435t90.5 358h262l-406 -1456h-291l-340 1105l-332 -1105
h-287z" />
    <glyph glyph-name="wdieresis" unicode="&#x1e85;" horiz-adv-x="1685" 
d="M386 0l-372 1026h264q156 -480 234 -721q40 121 242 721h216q26 -80 72.5 -227.5t85 -268t73.5 -227.5q29 91 239 723h231l-389 -1026h-207q-211 631 -233 698q-39 -111 -248 -698h-208zM960 1151v225h245v-225h-245zM502 1151v225h247v-225h-247z" />
    <glyph glyph-name="uni1EBC" unicode="&#x1ebc;" horiz-adv-x="1249" 
d="M730 1604h-1q-42 0 -101 27t-111 53.5t-76 26.5q-22 0 -42.5 -25t-25.5 -77h-160q0 128 60.5 209.5t157.5 81.5q51 0 109.5 -25t107 -52t68.5 -30q3 0 8 -0.5t7 -0.5q30 0 46.5 22.5t15.5 85.5h162q0 -148 -60 -221.5t-165 -74.5zM190 0v1456h919v-218h-665v-389h629
v-219h-626v-412h691v-218h-948z" />
    <glyph glyph-name="uni1EBD" unicode="&#x1ebd;" horiz-adv-x="1206" 
d="M739 1174h-1q-42 0 -101 27t-111 53.5t-76 26.5q-22 0 -42.5 -25t-25.5 -77h-160q0 128 60.5 209.5t157.5 81.5q51 0 109.5 -25t107 -52t68.5 -30q3 0 8 -0.5t7 -0.5q30 0 46.5 22.5t15.5 85.5h162q0 -148 -60 -221.5t-165 -74.5zM373 636h510q-18 109 -81 167t-154 58
q-107 0 -179 -60t-96 -165zM666 -23q-259 0 -408.5 148t-149.5 387q0 108 36 205t101.5 172t166 119t222.5 44t213 -42t144 -117.5t78.5 -169.5t25.5 -208q0 -29 -5 -44h-720q6 -150 91.5 -222t227.5 -72q166 0 324 110l67 -180q-97 -67 -195.5 -98.5t-218.5 -31.5z" />
    <glyph glyph-name="Ygrave" unicode="&#x1ef2;" horiz-adv-x="1281" 
d="M551 1596l-351 289h318l262 -289h-229zM505 0v563l-519 893h289l361 -667l358 667h296l-531 -892v-564h-254z" />
    <glyph glyph-name="ygrave" unicode="&#x1ef3;" horiz-adv-x="1114" 
d="M254 -445l-104 168q139 54 208.5 111.5t93.5 138.5l14 50l-436 1003h258l297 -736l256 736h253l-416 -1082q-43 -106 -113 -187.5t-146 -127.5t-165 -74zM489 1166l-351 289h318l262 -289h-229z" />
    <glyph glyph-name="uni1EF8" unicode="&#x1ef8;" horiz-adv-x="1281" 
d="M716 1604h-1q-42 0 -101 27t-111 53.5t-76 26.5q-22 0 -42.5 -25t-25.5 -77h-160q0 128 60.5 209.5t157.5 81.5q51 0 109.5 -25t107 -52t68.5 -30q3 0 8 -0.5t7 -0.5q30 0 46.5 22.5t15.5 85.5h162q0 -148 -60 -221.5t-165 -74.5zM505 0v563l-519 893h289l361 -667
l358 667h296l-531 -892v-564h-254z" />
    <glyph glyph-name="uni1EF9" unicode="&#x1ef9;" horiz-adv-x="1114" 
d="M254 -445l-104 168q139 54 208.5 111.5t93.5 138.5l14 50l-436 1003h258l297 -736l256 736h253l-416 -1082q-43 -106 -113 -187.5t-146 -127.5t-165 -74zM654 1174h-1q-42 0 -101 27t-111 53.5t-76 26.5q-22 0 -42.5 -25t-25.5 -77h-160q0 128 60.5 209.5t157.5 81.5
q51 0 109.5 -25t107 -52t68.5 -30q3 0 8 -0.5t7 -0.5q30 0 46.5 22.5t15.5 85.5h162q0 -148 -60 -221.5t-165 -74.5z" />
    <glyph glyph-name="endash" unicode="&#x2013;" horiz-adv-x="1074" 
d="M-15 449v209h1105v-209h-1105z" />
    <glyph glyph-name="emdash" unicode="&#x2014;" horiz-adv-x="2171" 
d="M30 453v205h2111v-205h-2111z" />
    <glyph glyph-name="afii00208" unicode="&#x2015;" horiz-adv-x="4095" 
d="M54 453v188h3987v-188h-3987z" />
    <glyph glyph-name="quoteleft" unicode="&#x2018;" horiz-adv-x="576" 
d="M308 865l-166 591h284l38 -591h-156z" />
    <glyph glyph-name="quoteright" unicode="&#x2019;" horiz-adv-x="632" 
d="M112 866l98 590h280l-196 -590h-182z" />
    <glyph glyph-name="quotesinglbase" unicode="&#x201a;" horiz-adv-x="696" 
d="M159 -325l115 587h275l-170 -587h-220z" />
    <glyph glyph-name="quotedblleft" unicode="&#x201c;" horiz-adv-x="1024" 
d="M592 865l179 591h210l-113 -591h-276zM130 865l191 591h209l-114 -591h-286z" />
    <glyph glyph-name="quotedblright" unicode="&#x201d;" horiz-adv-x="1024" 
d="M592 865l114 591h272l-171 -591h-215zM176 865l110 591h276l-169 -591h-217z" />
    <glyph glyph-name="quotedblbase" unicode="&#x201e;" horiz-adv-x="1024" 
d="M487 -220l112 482h273l-169 -482h-216zM87 -220l111 482h273l-162 -482h-222z" />
    <glyph glyph-name="dagger" unicode="&#x2020;" horiz-adv-x="1022" 
d="M380 0v901h-326v178h326v333h198v-333h329v-178h-326v-901h-201z" />
    <glyph glyph-name="daggerdbl" unicode="&#x2021;" horiz-adv-x="1174" 
d="M147 1083h338v373h220v-373h325v-188h-325v-363h316v-180h-316v-464h-220v464h-342v180h342v363h-338v188z" />
    <glyph glyph-name="bullet" unicode="&#x2022;" horiz-adv-x="989" 
d="M489 358q-150 0 -245 95.5t-95 228.5q0 134 99.5 231t240.5 97q147 0 244.5 -96.5t97.5 -231.5q0 -132 -99.5 -228t-242.5 -96z" />
    <glyph glyph-name="ellipsis" unicode="&#x2026;" horiz-adv-x="1620" 
d="M1157 -11v271h299v-271h-299zM636 -11v271h301l1 -271h-302zM115 -11v271h301l1 -271h-302z" />
    <glyph glyph-name="perthousand" unicode="&#x2030;" horiz-adv-x="2755" 
d="M2290 -20q-166 0 -267 107t-101 272q0 162 101 271.5t266 109.5t266.5 -110t101.5 -271q0 -166 -100.5 -272.5t-266.5 -106.5zM2290 136q79 0 118 53t39 170q0 112 -38 168t-120 56t-119.5 -55t-37.5 -168q0 -117 39.5 -170.5t118.5 -53.5zM1434 -20q-166 0 -267 107
t-101 272q0 162 101 271.5t266 109.5t267 -110t102 -271q0 -166 -101 -272.5t-267 -106.5zM1433 136q79 0 118.5 53t39.5 170q0 112 -38 168t-120 56q-81 0 -119 -55t-38 -168q0 -117 39 -170.5t118 -53.5zM386 0l931 1456h203l-931 -1456h-203zM465 715q-170 0 -269 100.5
t-99 278.5q0 175 99 277.5t269 102.5q169 0 268.5 -103t99.5 -277q0 -179 -99 -279t-269 -100zM465 871q79 0 118 52.5t39 169.5q0 113 -37.5 169t-119.5 56t-119.5 -55.5t-37.5 -168.5q0 -117 39 -170t118 -53z" />
    <glyph glyph-name="guilsinglleft" unicode="&#x2039;" horiz-adv-x="725" 
d="M415 158l-277 383l283 381h200l-238 -382l230 -382h-198z" />
    <glyph glyph-name="guilsinglright" unicode="&#x203a;" horiz-adv-x="725" 
d="M91 157l238 382l-230 382h198l278 -383l-284 -381h-200z" />
    <glyph glyph-name="fraction" unicode="&#x2044;" horiz-adv-x="1134" 
d="M-12 0l885 1456h249l-885 -1456h-249z" />
    <glyph glyph-name="uni2074" unicode="&#x2074;" horiz-adv-x="762" 
d="M236 973h180v256zM418 642v195h-367v115l368 504h185v-483h117v-136h-117v-195h-186z" />
    <glyph glyph-name="Euro" unicode="&#x20ac;" horiz-adv-x="1460" 
d="M138 504l5 112h154q-6 54 -6 111q0 45 5 97h-159l5 118h173q25 106 76 195.5t118 152.5t148 107t167.5 65t175.5 21q286 0 486 -157l-99 -177q-166 115 -366 115q-144 0 -261 -85.5t-169 -236.5h465l-7 -118h-486q-6 -45 -6 -94q0 -60 9 -114h454l-7 -112h-418
q54 -144 172 -225.5t270 -81.5q219 0 402 147l85 -201q-212 -165 -504 -165q-160 0 -302 59t-249.5 180t-150.5 287h-180z" />
    <glyph glyph-name="afii61289" unicode="&#x2113;" horiz-adv-x="526" 
d="M187 1026zM142 0v1457h245v-1457h-245z" />
    <glyph glyph-name="trademark" unicode="&#x2122;" horiz-adv-x="1869" 
d="M289 628v614h-216v170h634v-170h-224v-614h-194zM805 628v784h228l227 -490l223 490h229v-784h-198v447l-194 -447h-122l-200 436v-436h-193z" />
    <glyph glyph-name="Omega" unicode="&#x2126;" horiz-adv-x="1603" 
d="M70 0l-22 211l317 -3q-149 115 -211 257.5t-62 345.5q0 200 91.5 353t251 234t361.5 81q150 0 280 -46t226.5 -129.5t151.5 -210t55 -279.5q0 -205 -59.5 -348t-210.5 -258l327 3l-25 -211h-626v170q148 93 238 248t90 351q0 38 -4 78t-16.5 91t-32.5 96.5t-55 90.5
t-80 77t-111 52t-146 20q-82 0 -149 -20.5t-112 -53.5t-79 -79t-52.5 -91t-29.5 -97t-14.5 -90t-3.5 -75q0 -195 91 -349t239 -249v-170h-618z" />
    <glyph glyph-name="estimated" unicode="&#x212e;" horiz-adv-x="1191" 
d="M357 713h507q0 117 -21 203t-58 133.5t-80.5 69.5t-95.5 22q-51 0 -94.5 -22t-80 -70t-57 -133.5t-20.5 -202.5zM627 114q-108 0 -203 34.5t-169 99.5t-116.5 169.5t-42.5 234.5q0 116 29.5 209.5t79 155.5t116.5 104t139 60t151 18q73 0 138.5 -15.5t126 -52.5
t103.5 -93t69 -142.5t26 -195.5q0 -25 -5 -45h-718q1 -236 89 -357.5t242 -121.5q157 0 347 123l27 -52q-203 -133 -429 -133z" />
    <glyph glyph-name="partialdiff" unicode="&#x2202;" horiz-adv-x="1162" 
d="M478 179q46 0 83.5 13t74 45.5t65 85t52 133.5t39.5 188q-30 66 -86.5 114t-120.5 48q-120 0 -202.5 -113t-82.5 -269q0 -112 47.5 -178.5t130.5 -66.5zM478 -24q-206 0 -318.5 126t-112.5 326q0 157 71 289.5t191.5 208.5t262.5 76q86 0 151.5 -34t83.5 -82q0 72 -1 86
q-8 149 -79 237t-182 88q-23 0 -46 -2t-45 -6.5t-40 -8.5t-39 -11.5t-33.5 -11.5t-31.5 -13t-25.5 -12t-23.5 -12t-18 -9l-14 179q66 49 154.5 77t176.5 28q241 0 371.5 -165.5t130.5 -505.5q0 -128 -22 -249t-69.5 -230.5t-114.5 -191t-164.5 -129.5t-213.5 -48z" />
    <glyph glyph-name="emptyset" unicode="&#x2205;" horiz-adv-x="1678" 
d="M82 733q0 159 62.5 303t166 245.5t240.5 161.5t281 60q85 0 169 -21t159 -60t141 -94l176 198l85 -66l-184 -205q96 -105 150 -239t54 -283q0 -159 -62.5 -303t-166 -245.5t-240.5 -161.5t-281 -60q-124 0 -242.5 44t-217.5 123l-193 -216l-76 70l193 217
q-101 106 -157.5 242.5t-56.5 289.5zM441 207q178 -140 391 -140q124 0 242 52t207 140t143.5 212.5t54.5 261.5q0 126 -45 240t-126 205zM365 278l867 973q-86 71 -189 109.5t-211 38.5q-124 0 -242 -52t-207 -140t-143.5 -212.5t-54.5 -261.5q0 -130 48 -247t132 -208z
" />
    <glyph glyph-name="Delta" unicode="&#x2206;" horiz-adv-x="1502" 
d="M322 217h800l-412 942zM61 0v219l550 1237h271l554 -1222v-234h-1375z" />
    <glyph glyph-name="product" unicode="&#x220f;" horiz-adv-x="1568" 
d="M195 -100v1355h-157v201h1414l3 -201h-125v-1355h-285v1355h-573v-1355h-277z" />
    <glyph glyph-name="summation" unicode="&#x2211;" horiz-adv-x="1262" 
d="M82 -267v133l519 738l-497 724v128h1066v-204h-693l429 -646l-442 -661h748v-212h-1130z" />
    <glyph glyph-name="minus" unicode="&#x2212;" horiz-adv-x="1499" 
d="M201 284v202h1096v-202h-1096z" />
    <glyph glyph-name="uni2215" unicode="&#x2215;" horiz-adv-x="417" 
d="M-81 -237l645 1693h220l-650 -1693h-215z" />
    <glyph glyph-name="uni2219" unicode="&#x2219;" horiz-adv-x="636" 
d="M199 521v228h246v-228h-246z" />
    <glyph glyph-name="radical" unicode="&#x221a;" horiz-adv-x="1314" 
d="M515 -142l-305 777l-160 -30l-45 180l370 58l219 -580l350 1291h228l-452 -1696h-205z" />
    <glyph glyph-name="infinity" unicode="&#x221e;" horiz-adv-x="1742" 
d="M1280 385q104 0 152 66.5t48 175.5q0 81 -56 137t-149 56q-161 0 -318 -217q94 -114 166.5 -166t156.5 -52zM484 385q155 0 316 216q-155 219 -326 219q-99 0 -153.5 -62t-54.5 -155q0 -88 59.5 -153t158.5 -65zM467 231q-162 0 -266.5 115.5t-104.5 279.5
q0 143 109.5 245.5t256.5 102.5q226 0 414 -255q90 125 186.5 190t219.5 65q165 0 265 -102.5t100 -264.5q0 -163 -108 -269.5t-259 -106.5q-113 0 -209 61t-197 194q-192 -255 -407 -255z" />
    <glyph glyph-name="integral" unicode="&#x222b;" horiz-adv-x="820" 
d="M199 -324q-48 0 -91 7t-62 14l-20 7v187q75 -16 137 -16q59 0 78.5 38.5t19.5 126.5v1118q0 174 84 279t249 105q41 0 85 -6.5t67 -13.5l24 -6v-195q-80 22 -137 22q-64 0 -88.5 -40t-24.5 -124v-1120q0 -176 -78 -279.5t-243 -103.5z" />
    <glyph glyph-name="approxequal" unicode="&#x2248;" horiz-adv-x="1351" 
d="M220 105l-153 87q26 90 56 148t67.5 87.5t74.5 39.5t89 10q112 0 298 -62q147 -53 257 -53q56 0 79 28t40 127l165 -77q-23 -93 -48.5 -152t-58.5 -91t-68 -43.5t-86 -11.5q-97 0 -320 61q-179 54 -236 54q-63 0 -93 -28t-63 -124zM220 696l-152 90q26 90 56.5 148t68 87
t74 39t88.5 10q95 0 301 -61q172 -54 254 -54q55 0 78 28t41 127l165 -78q-31 -123 -69 -188.5t-81 -87t-111 -21.5q-87 0 -320 62q-181 52 -236 52q-64 0 -94.5 -28.5t-62.5 -124.5z" />
    <glyph glyph-name="notequal" unicode="&#x2260;" horiz-adv-x="1387" 
d="M505 35l-195 31l111 234h-266v188h362l97 185h-459v189h549l127 260l201 -30l-114 -230h306v-189h-396l-100 -185h496v-188h-588z" />
    <glyph glyph-name="lessequal" unicode="&#x2264;" horiz-adv-x="1351" 
d="M101 0v189h1071v-189h-1071zM1153 262l-1049 474v114l1053 492v-228l-725 -318l721 -310v-224z" />
    <glyph glyph-name="greaterequal" unicode="&#x2265;" horiz-adv-x="1351" 
d="M96 0v189h1071v-189h-1071zM103 261v228l725 318l-721 310v223l1049 -473v-115z" />
    <glyph glyph-name="lozenge" unicode="&#x25ca;" horiz-adv-x="1248" 
d="M593 226l283 471l-277 457l-283 -457zM510 -40l-439 737l445 739h163l443 -738l-449 -738h-163z" />
    <glyph glyph-name="uniFB00" unicode="&#xfb00;" horiz-adv-x="1692" 
d="M1377 855v-855h-253v855h-609v-855h-253v855h-192v171h192v36q0 71 3 117t12.5 95t28.5 79t50.5 58t78.5 42.5t111.5 23t151.5 8.5h54l-10 -198q-56 0 -89 -2t-61.5 -11t-41 -22t-22 -41t-11.5 -60t-2 -88v-37h609v36q0 71 3 117t12.5 95t28.5 79t50.5 58t78.5 42.5
t111.5 23t151.5 8.5h54l-10 -198q-56 0 -89 -2t-61.5 -11t-41 -22t-22 -41t-11.5 -60t-2 -88v-37h230v-171h-230z" />
    <glyph glyph-name="uniFB01" unicode="&#xfb01;" horiz-adv-x="1292" 
d="M262 0v855h-192v171h192v36q0 71 3 117t12.5 95t28.5 79t50.5 58t78.5 42.5t111.5 23t151.5 8.5h54l-10 -198q-56 0 -89 -2t-61.5 -11t-41 -22t-22 -41t-11.5 -60t-2 -88v-37h409v-171h-409v-855h-253zM902 1238v218h240v-218h-240zM903 0v1026h239v-1026h-239z" />
    <glyph glyph-name="uniFB02" unicode="&#xfb02;" horiz-adv-x="1264" 
d="M256 0v855h-186v171h186v11q0 116 17 191t62.5 130.5t127 79.5t208.5 24h459v-1462h-252v1266h-151q-129 0 -173 -37t-44 -136v-67h230v-171h-230v-855h-254z" />
    <glyph glyph-name="uniFB03" unicode="&#xfb03;" horiz-adv-x="2235" 
d="M2097 1233h-245v223h245v-223zM2097 0h-245v855h-466v-855h-253v855h-618v-855h-253v855h-192v171h192v36q0 71 3 117t12.5 95t28.5 79t50.5 58t78.5 42.5t111.5 23t151.5 8.5h54l-10 -197q-56 0 -89 -2t-61.5 -11t-41 -22t-22 -41t-11.5 -60t-2 -88v-38h618v36
q0 71 3 117t12.5 95t28.5 79t50.5 58t78.5 42.5t111.5 23t151.5 8.5h54l-10 -197q-56 0 -89 -2t-61.5 -11t-41 -22t-22 -41t-11.5 -60t-2 -88v-38h711v-1026z" />
    <glyph glyph-name="uniFB04" unicode="&#xfb04;" horiz-adv-x="2207" 
d="M261 0v855h-191v171h191v40q0 70 3 116t13 94.5t28.5 78t50 57t77.5 42t110.5 23t149.5 8.5h53l-9 -193q-57 0 -90.5 -2t-62 -11.5t-41.5 -22t-22 -41t-11 -60t-2 -86.5v-43h402v-171h-402v-855h-247zM993 0v855h-186v171h186v11q0 116 17 191t62.5 130.5t127 79.5
t208.5 24h459v-1462h-252v1266h-151q-129 0 -173 -37t-44 -136v-67h230v-171h-230v-855h-254z" />
    <glyph glyph-name="NULL" horiz-adv-x="0" 
 />
    <glyph glyph-name="caron.alt" horiz-adv-x="600" 
d="M-16 1026zM270 951l113 505h280l-181 -505h-212z" />
    <glyph glyph-name="fj" horiz-adv-x="1420" 
d="M1044 1228v228h246v-228h-246zM920 -362q-55 0 -101.5 7t-64.5 13l-19 7l28 170q62 -19 143 -19q36 0 58 6.5t40 27.5t26 62t8 108v1006h253v-1035q0 -90 -16.5 -152t-57 -109t-114 -69.5t-183.5 -22.5zM763 -165l-3 1h3v-1zM261 0v860h-191v166h191v40q0 70 3 116
t13 94.5t28.5 78t50 57t77.5 42t110.5 23t149.5 8.5h53l-9 -193q-57 0 -90.5 -2t-62 -11.5t-41.5 -22t-22 -41t-11 -60t-2 -86.5v-43h231v-166h-231v-860h-247z" />
    <glyph glyph-name="foundryicon" horiz-adv-x="1347" 
d="M280 2l143 459l-389 294h485l150 460l159 -460h485l-391 -294l144 -459l-397 276zM485 405h106v147l170 -147h106v267h-106v-149l-170 149h-106v-267z" />
    <glyph glyph-name="i.loclTRK" horiz-adv-x="485" 
d="M103 0v1026h249v-1026h-249zM113 1166v228h246v-228h-246z" />
    <glyph glyph-name="middot" horiz-adv-x="600" 
 />
    <glyph glyph-name="slashbar" horiz-adv-x="600" 
 />
    </font>
</defs>
</svg>
