<?xml version="1.0" encoding="utf-8"?>
<!-- Generator: Adobe Illustrator 15.0.2, SVG Export Plug-In . SVG Version: 6.00 Build 0)  -->
<svg version="1.2" baseProfile="tiny" id="Layer_1" xmlns="http://www.w3.org/2000/svg" xmlns:xlink="http://www.w3.org/1999/xlink"
	 x="0px" y="0px" width="356.609px" height="203.025px" viewBox="0 0 356.609 203.025" xml:space="preserve">
<g>
	<g>
		<g>
			<path fill="#EE6650" d="M187.008,22.548c0.062,25.722,2.479,51.366,2.659,77.085c0.189,26.968-1.162,53.918,0.14,80.877
				c0.041,0.84,0.652,1.47,1.5,1.5c21.17,0.759,42.07-3.91,63.251-3.335c21.55,0.585,42.746,5.187,64.376,4.222
				c0.847-0.038,1.46-0.655,1.5-1.5c0.634-13.405-0.275-26.794-0.648-40.192c-0.374-13.442-0.106-26.922-0.106-40.369
				c0-5.691,1.267-11.064,2.416-16.604c0.782-3.772,1.511-7.783,0.336-11.538c-2.399-7.671-10.533-13.76-16.017-19.156
				c-2.921-2.875-5.859-5.829-8.006-9.343c-3.099-5.075-4.77-10.82-8.143-15.764c-5.039-7.387-12.161-7.717-20.355-8.073
				c-26.883-1.167-53.69,2.252-80.57,1.58c-1.936-0.048-1.931,2.952,0,3c24.384,0.61,48.7-2.139,73.084-1.816
				c5.362,0.071,10.955,0.017,16.269,0.824c5.651,0.858,8.947,5.452,11.519,10.143c2.387,4.354,3.87,9.138,6.672,13.273
				c2.074,3.063,4.801,5.702,7.409,8.298c5.423,5.398,13.146,11.119,15.516,18.694c1.42,4.54-0.962,10.729-1.908,15.208
				c-1.071,5.07-1.221,9.956-1.221,15.126c0,12.806-0.197,25.63,0.159,38.432c0.355,12.766,1.199,25.506,0.596,38.278
				c0.5-0.5,1-1,1.5-1.5c-20.984,0.936-41.626-3.155-62.521-4.152c-21.807-1.039-43.314,4.047-65.105,3.266c0.5,0.5,1,1,1.5,1.5
				c-1.27-26.294-0.164-52.608-0.135-78.914c0.029-26.376-2.6-52.672-2.664-79.048C190.003,20.614,187.003,20.613,187.008,22.548
				L187.008,22.548z"/>
		</g>
		<g>
			<path fill="#EE6650" d="M281.236,24.652c-0.062,14.75-3.053,28.964-9.512,42.256c-0.533,1.096,0.135,2.121,1.295,2.257
				c16.007,1.873,31.867,4.85,47.914,6.398c1.926,0.186,1.908-2.816,0-3c-16.046-1.548-31.907-4.525-47.914-6.398
				c0.432,0.752,0.863,1.505,1.295,2.257c6.69-13.767,9.858-28.487,9.922-43.77C284.244,22.717,281.244,22.718,281.236,24.652
				L281.236,24.652z"/>
		</g>
		<g>
			<g>
				<path fill="#EE6650" d="M229.752,134.237c0.283-5.499,5.107-11.278,7.327-16.281c2.415-5.445,4.634-10.987,6.704-16.572
					c3.404-9.186,6.224-20.217,13.376-27.304c-0.836-0.221-1.671-0.441-2.507-0.662c2.788,11.174,8.124,21.309,13.104,31.617
					c4.809,9.954,6.734,21.097,12.489,30.625c0.998,1.653,3.593,0.146,2.59-1.514c-5.211-8.628-7.226-18.606-11.211-27.779
					c-4.889-11.25-11.083-21.74-14.08-33.748c-0.276-1.107-1.721-1.44-2.507-0.662c-6.955,6.891-10.055,17.362-13.313,26.335
					c-2.437,6.715-5.104,13.34-8.001,19.869c-2.367,5.336-6.663,10.073-6.973,16.073
					C226.652,136.172,229.652,136.162,229.752,134.237L229.752,134.237z"/>
			</g>
			<g>
				<path fill="#EE6650" d="M239.575,111.703c9.876-3.385,20.705-1.377,30.91-1.279c1.936,0.019,1.934-2.981,0-3
					c-10.49-0.101-21.55-2.095-31.707,1.386C236.959,109.434,237.74,112.332,239.575,111.703L239.575,111.703z"/>
			</g>
			<g>
				<path fill="#EE6650" d="M220.438,136.929c4.761-1.623,10.007-0.458,14.917-0.392c1.936,0.026,1.933-2.974,0-3
					c-5.201-0.07-10.665-1.223-15.714,0.499C217.821,134.656,218.603,137.555,220.438,136.929L220.438,136.929z"/>
			</g>
			<g>
				<path fill="#EE6650" d="M272.882,137.735c5.329,0,10.658,0,15.987,0c1.935,0,1.935-3,0-3c-5.329,0-10.658,0-15.987,0
					C270.947,134.735,270.947,137.735,272.882,137.735L272.882,137.735z"/>
			</g>
		</g>
	</g>
	<g>
		<g>
			<path fill="#EE6650" d="M86.366,47.141c26.646,0,53.291,0,79.936,0c1.935,0,1.935-3,0-3c-26.646,0-53.291,0-79.936,0
				C84.431,44.141,84.431,47.141,86.366,47.141L86.366,47.141z"/>
		</g>
		<g>
			<path fill="#EE6650" d="M54.392,84.445c33.75,0,67.501,0,101.251,0c1.935,0,1.935-3,0-3c-33.75,0-67.501,0-101.251,0
				C52.457,81.445,52.457,84.445,54.392,84.445L54.392,84.445z"/>
		</g>
		<g>
			<path fill="#EE6650" d="M100.576,122.636c20.737-0.149,41.434-1.729,62.173-1.773c1.935-0.004,1.935-3.004,0-3
				c-20.74,0.044-41.436,1.624-62.173,1.773C98.642,119.649,98.641,122.649,100.576,122.636L100.576,122.636z"/>
		</g>
		<g>
			<path fill="#EE6650" d="M75.707,159.052c24.869,0,49.738,0,74.607,0c1.935,0,1.935-3,0-3c-24.869,0-49.738,0-74.607,0
				C73.772,156.052,73.772,159.052,75.707,159.052L75.707,159.052z"/>
		</g>
	</g>
</g>
</svg>
