<?xml version="1.0" encoding="utf-8"?>
<!-- Generator: Adobe Illustrator 16.0.0, SVG Export Plug-In . SVG Version: 6.00 Build 0)  -->
<svg version="1.2" baseProfile="tiny" id="Layer_1" xmlns="http://www.w3.org/2000/svg" xmlns:xlink="http://www.w3.org/1999/xlink"
	 x="0px" y="0px" width="47.095px" height="16.918px" viewBox="0 0 47.095 16.918" xml:space="preserve">
<g>
	<path fill="#FFFFFF" d="M0,1.056h5.368c0.587,0,1.173,0.066,1.76,0.198c0.586,0.132,1.111,0.352,1.573,0.66
		c0.462,0.308,0.836,0.711,1.122,1.21c0.286,0.499,0.429,1.122,0.429,1.87c0,0.866-0.25,1.592-0.748,2.178
		c-0.499,0.587-1.159,0.99-1.98,1.21v0.044c0.499,0.059,0.96,0.187,1.386,0.385c0.425,0.198,0.792,0.458,1.1,0.781
		c0.308,0.322,0.546,0.704,0.715,1.145c0.168,0.439,0.253,0.932,0.253,1.474c0,0.748-0.154,1.401-0.462,1.958
		c-0.308,0.558-0.726,1.016-1.254,1.375c-0.528,0.359-1.147,0.631-1.859,0.814s-1.471,0.274-2.277,0.274H0V1.056z M2.178,7.634
		h2.838c0.41,0,0.803-0.047,1.177-0.143c0.374-0.095,0.7-0.242,0.979-0.44C7.45,6.853,7.67,6.604,7.832,6.303
		c0.161-0.3,0.242-0.664,0.242-1.089c0-0.836-0.308-1.434-0.924-1.793S5.705,2.882,4.664,2.882H2.178V7.634z M2.178,14.783h2.728
		c0.455,0,0.913-0.039,1.375-0.121c0.462-0.08,0.88-0.223,1.254-0.428c0.374-0.205,0.675-0.48,0.902-0.826
		c0.227-0.344,0.341-0.78,0.341-1.309c0-0.924-0.315-1.591-0.946-2.002c-0.631-0.41-1.54-0.615-2.728-0.615H2.178V14.783z"/>
	<path fill="#FFFFFF" d="M13.64,7.37c-0.015-0.44-0.037-0.828-0.066-1.166h1.958c0.029,0.264,0.051,0.569,0.066,0.913
		c0.015,0.345,0.022,0.627,0.022,0.847h0.066c0.293-0.616,0.722-1.111,1.287-1.485s1.199-0.561,1.903-0.561
		c0.322,0,0.594,0.029,0.814,0.088L19.602,7.92c-0.294-0.073-0.609-0.11-0.946-0.11c-0.499,0-0.932,0.092-1.298,0.275
		c-0.367,0.184-0.671,0.429-0.913,0.737c-0.242,0.308-0.422,0.665-0.539,1.067c-0.118,0.404-0.176,0.825-0.176,1.266v5.478h-2.068
		V8.448C13.662,8.169,13.654,7.81,13.64,7.37z"/>
	<path fill="#FFFFFF" d="M23.863,2.442c0,0.381-0.135,0.697-0.404,0.946c-0.269,0.25-0.593,0.374-0.971,0.374
		c-0.378,0-0.698-0.128-0.96-0.385c-0.262-0.256-0.393-0.568-0.393-0.935c0-0.381,0.131-0.7,0.393-0.957
		C21.79,1.229,22.11,1.1,22.488,1.1c0.378,0,0.702,0.129,0.971,0.385C23.729,1.742,23.863,2.061,23.863,2.442z M23.533,16.632
		h-2.068V6.204h2.068V16.632z"/>
	<path fill="#FFFFFF" d="M34.036,8.844c-0.22-0.337-0.55-0.619-0.99-0.847c-0.439-0.228-0.909-0.341-1.407-0.341
		c-0.543,0-1.023,0.103-1.441,0.308c-0.418,0.206-0.773,0.48-1.067,0.825c-0.293,0.345-0.517,0.744-0.671,1.199
		c-0.153,0.454-0.23,0.932-0.23,1.43s0.077,0.976,0.23,1.43c0.154,0.455,0.378,0.855,0.671,1.199
		c0.294,0.345,0.652,0.619,1.078,0.825s0.909,0.308,1.452,0.308c0.528,0,1.008-0.102,1.441-0.308
		c0.432-0.206,0.788-0.484,1.066-0.837l1.386,1.255c-0.439,0.513-0.989,0.913-1.649,1.198c-0.66,0.287-1.408,0.43-2.244,0.43
		c-0.807,0-1.551-0.133-2.233-0.396c-0.682-0.264-1.272-0.634-1.771-1.111c-0.499-0.476-0.891-1.052-1.177-1.727
		c-0.286-0.674-0.43-1.43-0.43-2.266c0-0.821,0.14-1.569,0.418-2.244c0.279-0.674,0.668-1.254,1.166-1.738
		c0.499-0.484,1.09-0.858,1.771-1.122c0.682-0.264,1.419-0.396,2.211-0.396c0.733,0,1.463,0.146,2.189,0.44
		c0.726,0.293,1.301,0.719,1.727,1.276L34.036,8.844z"/>
	<path fill="#FFFFFF" d="M39.46,10.736h0.066l4.378-4.533h2.772l-4.885,4.73l5.303,5.698h-2.86l-4.708-5.412H39.46v5.412h-2.067V0
		h2.067V10.736z"/>
</g>
</svg>
