<?xml version="1.0" encoding="utf-8"?>
<!-- Generator: Adobe Illustrator 15.0.2, SVG Export Plug-In . SVG Version: 6.00 Build 0)  -->
<svg version="1.2" baseProfile="tiny" id="Layer_1" xmlns="http://www.w3.org/2000/svg" xmlns:xlink="http://www.w3.org/1999/xlink"
	 x="0px" y="0px" width="323.333px" height="202.688px" viewBox="0 0 323.333 202.688" xml:space="preserve">
<g>
	<path fill="#EE6650" d="M145.199,15.66c-8.144-7.281-20.676-5.904-29.268-0.131c-9.92,6.666-9.959,18.249-2.901,27.071
		c6.916,8.646,20.206,8.763,28.515,2.163c4.413-3.505,7.272-8.25,8.051-13.852C150.299,25.848,149.294,19.058,145.199,15.66
		c-1.477-1.226-3.611,0.884-2.121,2.121c3.792,3.147,4.178,9.801,3.287,14.354c-0.871,4.451-3.808,8.227-7.416,10.834
		c-7.541,5.45-17.646,4.391-23.798-2.49c-15.32-17.134,13.848-35.284,27.927-22.698C144.515,19.066,146.644,16.952,145.199,15.66
		L145.199,15.66z"/>
</g>
<g>
	<path fill="#EE6650" d="M127.31,48.082c-0.02,39.101-1.215,78.189-1.235,117.29c-0.001,1.935,2.999,1.935,3,0
		c0.021-39.101,1.215-78.189,1.235-117.29C130.311,46.147,127.311,46.147,127.31,48.082L127.31,48.082z"/>
</g>
<g>
	<path fill="#EE6650" d="M146.326,178.983c-2.579-9.802-12.882-15.494-22.695-14.089c-12.385,1.775-16.66,13.089-14.072,24.326
		c2.434,10.57,12.521,15.565,22.597,12.644C142.194,198.953,148.23,189.168,146.326,178.983c-0.355-1.9-3.246-1.094-2.893,0.797
		c3.409,18.234-24.445,28.724-30.703,9.649c-3.126-9.531,0.517-19.582,10.887-21.525c8.427-1.58,17.612,3.502,19.815,11.876
		C143.925,181.65,146.819,180.856,146.326,178.983L146.326,178.983z"/>
</g>
<g>
	<path fill="#EE6650" d="M129.284,135.13c0.54-6.166,1.585-12.98,6.462-17.299c3.66-3.241,9.363-3.333,13.956-3.43
		c10.694-0.227,21.829,0.255,31.05-6.134c9.181-6.361,11.908-18.375,13.043-28.782c1.339-12.275,0.016-24.615,0.261-36.917
		c0.039-1.936-2.962-1.932-3,0c-0.422,21.146,6.766,58.078-19.388,66.801c-10.096,3.367-20.804,0.706-31.033,2.936
		c-10.747,2.342-13.513,13.236-14.352,22.825C126.115,137.058,129.116,137.042,129.284,135.13L129.284,135.13z"/>
</g>
<g>
	<path fill="#EE6650" d="M207.74,7.996c-7.873-8.987-19.742-10.706-29.499-3.583c-8.807,6.429-11.932,18.002-7.024,27.755
		c5.595,11.115,18.79,15.244,28.994,7.992c9.943-7.068,13.3-21.125,7.764-31.86c-0.887-1.72-3.476-0.203-2.59,1.514
		c4.702,9.119,1.877,19.774-5.373,26.654c-8.865,8.413-20.659,3.856-26.204-5.814c-4.889-8.526-0.669-18.82,6.736-24.226
		c8.412-6.141,18.512-3.801,25.075,3.689C206.896,11.575,209.009,9.444,207.74,7.996L207.74,7.996z"/>
</g>
</svg>
