<?xml version="1.0" encoding="utf-8"?>
<!-- Generator: Adobe Illustrator 16.0.0, SVG Export Plug-In . SVG Version: 6.00 Build 0)  -->
<svg version="1.2" baseProfile="tiny" id="Layer_1" xmlns="http://www.w3.org/2000/svg" xmlns:xlink="http://www.w3.org/1999/xlink"
	 x="0px" y="0px" width="811.29px" height="64px" viewBox="0 0 811.29 64" overflow="auto" xml:space="preserve">
<path fill-rule="evenodd" fill="#BBBBBB" d="M402.607,31.91c0,2.114,0,4.206,0,6.336c0.986,0,1.976,0,3.053,0
	c0.008,0.432,0.02,0.83,0.022,1.228c0.005,0.408,0.002,0.817,0.002,1.26c-3.092,0-6.147,0-9.253,0c0-0.776,0-1.584,0-2.429
	c0.916,0,1.836,0,2.752,0c0.115-0.901,0.144-16.249,0.034-17.785c-0.917,0-1.838,0-2.797,0c0-0.816,0-1.599,0-2.426
	c0.194-0.164,0.479-0.061,0.736-0.061c3.514-0.008,7.028-0.058,10.54,0.017c1.657,0.035,3.283,0.437,4.663,1.435
	c0.983,0.711,1.645,1.698,2.002,2.863c0.363,1.188,0.495,2.41,0.414,3.65c-0.039,0.585-0.711,2.701-1.039,3.078
	c-0.81,0.932-1.719,1.77-2.917,2.168c-0.609,0.202-1.246,0.331-1.888,0.446c-2.002,0.365-4.012,0.093-6.015,0.187
	C402.821,31.881,402.726,31.898,402.607,31.91z M411.304,23.254c-0.359-0.029-0.287-0.359-0.386-0.546
	c-0.706-1.339-1.783-2.003-3.289-1.995c-0.758,0.004-1.516,0-2.273,0c-0.919,0-1.838,0-2.746,0c0,2.934,0,5.783,0,8.682
	c1.535,0,3.043,0.001,4.552-0.001c0.13,0,0.249-0.037,0.379-0.08c0.668-0.223,1.351-0.4,2.021-0.592
	c0.396-0.395,0.792-0.778,1.173-1.178c0.248-0.259,0.228-0.678,0.547-0.949c-0.173-0.556,0.211-1.06,0.211-1.635
	C411.491,24.385,411.104,23.877,411.304,23.254z"/>
<path fill-rule="evenodd" fill="#BBBBBB" d="M447.648,48c-0.276,0-0.552,0-0.828,0c-0.378,0-0.757,0-1.137,0
	c-0.097-0.098-0.194-0.194-0.291-0.293c-0.182-0.814,0.388-1.549,0.141-2.386c1.296,0.308,2.475,0.298,3.712-0.056
	c0.551-0.476,0.999-1.17,1.223-1.889c0.389-1.246,0.981-2.443,1.139-3.812c-0.557,0-1.063,0-1.659,0
	c-1.801-4.04-3.535-8.11-5.283-12.226c-0.748,0-1.53,0-2.353,0c0-0.815,0-1.598,0-2.388c0.784-0.146,5.35-0.188,7.991-0.064
	c0,0.779,0,1.562,0,2.418c-0.64,0-1.312,0-2.114,0c1.336,3.451,2.631,6.793,3.931,10.149c0.104,0,0.241,0,0.35,0
	c1.062-3.325,2.161-6.635,3.087-10.069c-0.709-0.121-1.389-0.004-2.086-0.082c0-0.791,0-1.573,0-2.406c2.638,0,5.305,0,8,0
	c0,0.78,0,1.562,0,2.388c-0.767,0-1.549,0-2.393,0c-0.368,1.104-0.73,2.188-1.093,3.273c-0.932,2.783-1.861,5.568-2.797,8.35
	c-0.509,1.512-0.97,3.043-1.562,4.521c-0.584,1.455-1.229,2.904-2.528,3.914c-0.531,0.414-1.126,0.633-1.796,0.656
	C448.75,48,448.199,48,447.648,48z"/>
<path fill-rule="evenodd" fill="#BBBBBB" d="M426.486,27.832c0.694-1.334,1.784-2.054,3.06-2.573
	c1.653-0.675,3.39-0.716,5.117-0.592c1.083,0.078,2.165,0.394,3.079,1.021c1.009,0.691,1.605,1.654,1.874,2.896
	c0.242,1.118,0.15,2.222,0.167,3.331c0.032,2.098,0.009,4.195,0.009,6.331c0.875,0,1.728,0,2.663,0
	c0.009,0.432,0.02,0.831,0.023,1.23c0.005,0.408,0.002,0.817,0.002,1.257c-1.785,0-3.532,0-5.349,0
	c-0.043-0.4-0.006-0.879-0.341-1.217c-0.662,0.129-1.098,0.604-1.644,0.877c-1.022,0.51-2.042,0.856-3.19,0.788
	c-0.31-0.018-0.62-0.015-0.93-0.001c-1.793,0.082-3.101-0.82-4.179-2.117c-0.298-0.357-0.431-0.853-0.699-1.41
	c0-0.541-0.003-1.227,0-1.912c0.005-1.145,0.735-2.366,1.687-3.049c0.938-0.67,1.999-0.832,3.087-1.055
	c0.981-0.2,1.945-0.156,2.918-0.164c0.766-0.007,1.51,0.298,2.292,0.207c0.143-0.017,0.223,0.262,0.432,0.19
	c0.203-0.849,0.175-1.991-0.079-3.147c-0.037-0.054-0.071-0.109-0.11-0.16c-0.898-1.172-2.103-1.532-3.538-1.461
	c-0.873,0.044-1.666,0.174-2.45,0.598c-0.412,0.223-0.632,0.598-1.04,0.834C428.605,28.565,427.77,28.371,426.486,27.832z
	 M429.043,35.581c0,0.38,0.013,0.86-0.003,1.339c-0.015,0.424,0.135,0.769,0.426,1.063c0.576,0.589,1.231,0.976,2.096,0.928
	c0.649-0.037,1.342,0.115,1.94-0.064c0.75-0.227,1.514-0.479,2.212-0.891c0.33-0.197,0.58-0.526,0.94-0.602c0-1.133,0-2.258,0-3.382
	c-0.668-0.012-1.251-0.331-1.904-0.244c-0.631,0.085-1.222-0.261-1.875-0.218c-0.633,0.04-1.22,0.412-1.718,0.25
	C430.155,34.1,429.479,34.648,429.043,35.581z"/>
<path fill-rule="evenodd" fill="#BBBBBB" d="M484.932,40.17c-0.156,0.136-0.035,0.32-0.078,0.484
	c-0.018,0.021-0.039,0.068-0.061,0.068c-0.852,0.005-1.703,0.004-2.589,0.004c0-1.674,0-3.352,0-5.08c0.844,0,1.72,0,2.634,0
	c0,0.296,0,0.598,0,0.883c0.197,0.11,0.191,0.293,0.262,0.437c0.402,0.817,1.211,1.273,2.129,1.549
	c0.945,0.286,1.881,0.183,2.814,0.158c0.703-0.018,1.385-0.346,1.926-0.805c0.512-0.437,0.615-1.101,0.52-1.729
	c-0.078-0.509-0.324-0.945-0.891-1.188c-0.355-0.153-0.725-0.31-1.082-0.369c-1.545-0.254-3.109-0.444-4.605-0.881
	c-0.773-0.227-1.543-0.618-2.197-1.188c-0.752-0.655-1.274-1.458-1.497-2.381c-0.273-1.128,0.053-2.234,0.675-3.197
	c0.756-1.168,1.904-1.759,3.24-2.107c1.078-0.282,2.162-0.242,3.223-0.151c0.902,0.078,1.863,0.197,2.646,0.78
	c0.211-0.15-0.014-0.408,0.172-0.587c0.83,0,1.682,0,2.57,0c0,1.684,0,3.361,0,5.141c-0.391,0.002-0.826,0.005-1.26,0.005
	c-0.443,0.001-0.885,0-1.363,0c0-0.477,0-0.914,0-1.312c-0.662-0.685-1.334-1.229-2.244-1.458c-0.223-0.057-0.443-0.112-0.668-0.12
	c-0.482-0.014-0.967,0.018-1.447-0.008c-1.219-0.064-2.086,0.47-2.662,1.52c-0.266,1.373,0.643,1.842,1.627,2.18
	c0.662,0.228,1.363,0.439,2.092,0.443c0.467,0.001,3.59,0.611,3.994,0.832c0.918,0.499,1.697,1.18,2.383,1.967
	c0.301,0.344,0.055,0.855,0.375,1.189c0.143,1.49,0.047,2.898-1.084,4.07c-0.877,0.911-1.945,1.351-3.139,1.676
	c-1.15,0.314-2.299,0.201-3.432,0.144c-0.738-0.038-1.521-0.21-2.236-0.558C485.422,40.454,485.33,40.027,484.932,40.17z"/>
<path fill-rule="evenodd" fill="#BBBBBB" d="M464.569,20.503c-0.962,0-1.882,0-2.832,0c0-0.816,0-1.598,0-2.429
	c1.949,0,3.926,0,5.933,0c0,6.697,0,13.398,0,20.186c0.422,0.009,0.82,0.02,1.219,0.023c0.408,0.004,0.815,0.001,1.258,0.001
	c0,0.816,0,1.599,0,2.431c-2.84,0-5.711,0-8.616,0c0-0.768,0-1.551,0-2.404c0.983,0,1.998,0,3.039,0
	C464.569,32.364,464.569,26.489,464.569,20.503z"/>
<path fill-rule="evenodd" fill="#BBBBBB" d="M418.671,20.501c-1.025,0-2.015,0-3.034,0c0-0.749,0-1.463,0-2.195
	c0.079-0.079,0.177-0.177,0.276-0.277c1.857,0,3.717,0,5.58,0c0.021,0.02,0.052,0.039,0.07,0.065
	c0.019,0.025,0.036,0.058,0.036,0.087c0.002,6.679,0.002,13.357,0.002,20.073c0.886,0,1.738,0,2.639,0c0,0.841,0,1.647,0,2.483
	c-2.85,0-5.699,0-8.591,0c0-0.797,0-1.604,0-2.448c1.007,0,1.996,0,3.021,0C418.671,32.374,418.671,26.492,418.671,20.501z"/>
<path fill-rule="evenodd" fill="#BBBBBB" d="M499.947,27.33c-0.848,0-1.631,0-2.445,0c0-0.816,0-1.599,0-2.453
	c0.771,0,1.58,0,2.422,0c0-1.128,0-2.186,0-3.228c1-0.824,1.973-1.625,3.037-2.502c0.17,1.011,0.062,1.92,0.084,2.822
	c0.02,0.927,0.004,1.856,0.004,2.855c1.018,0,2.033,0,3.074,0c0,0.854,0,1.636,0,2.488c-1.002,0-2.016,0-3.053,0
	c0,3.402,0,6.731,0,9.852c0.193,0.848,0.713,1.103,1.287,1.292c0.162,0.054,0.352,0.094,0.48-0.009
	c0.402-0.324,0.838-0.087,1.285-0.185c0,0.853,0,1.634,0,2.425c-0.135,0.127-0.395,0.063-0.49,0.283
	c-0.859,0-1.721,0.041-2.58-0.008c-1.572-0.09-2.59-1.185-2.906-2.664c-0.287-1.343-0.186-2.695-0.195-4.045
	C499.938,31.983,499.947,29.711,499.947,27.33z"/>
<path fill-rule="evenodd" fill="#BBBBBB" d="M477.824,24.883c0,4.465,0,8.895,0,13.395c0.902,0,1.778,0,2.672,0
	c0,0.852,0,1.635,0,2.452c-2.812,0-5.614,0-8.437,0c0-0.81,0-1.591,0-2.409c0.86,0,1.711,0,2.555,0
	c0.164-0.926,0.211-7.323,0.084-10.953c-0.847,0-1.696,0-2.634,0c-0.009-0.431-0.02-0.828-0.023-1.227c-0.004-0.408,0-0.816,0-1.258
	C473.957,24.883,475.839,24.883,477.824,24.883z"/>
<path fill-rule="evenodd" fill="#BBBBBB" d="M474.521,19.273c0.418-1.093,1.197-1.369,2.191-1.223
	c0.248,0.27,0.641,0.287,0.838,0.419c0.649,0.667,0.453,1.401,0.488,2.134c-0.34,0.319-0.61,0.76-1.144,0.887
	c-0.951,0.187-1.787-0.021-2.374-0.944C474.521,20.127,474.521,19.646,474.521,19.273z"/>
<path fill-rule="evenodd" fill="#BBBBBB" d="M579.265,24.227c0-2.565-0.006-4.988,0.01-7.408c0-0.166,0.092-0.398,0.221-0.487
	c2.029-1.396,4.008-2.887,6.33-3.782c5.66-2.181,10.953-1.674,15.814,2.167c1.93,1.525,3.83,3.146,5.951,4.36
	c5.941,3.4,12.115,3.836,18.248,0.539c2.729-1.468,5.248-3.33,7.869-5.002c0.707-0.45,1.438-0.865,2.229-1.338
	c0.02,0.239,0.047,0.4,0.047,0.56c0.004,2.293,0.012,4.587-0.012,6.881c-0.002,0.237-0.133,0.561-0.314,0.697
	c-2.48,1.853-4.992,3.688-7.992,4.604c-6.42,1.962-12.457,1.411-17.896-2.892c-1.996-1.578-3.959-3.275-6.174-4.486
	c-4.938-2.698-10.029-2.91-15.016,0.012c-2.516,1.475-4.965,3.062-7.453,4.582C580.558,23.578,579.954,23.86,579.265,24.227z"/>
<path fill-rule="evenodd" fill="#BBBBBB" d="M579.306,8.026c-0.018-0.215-0.039-0.34-0.039-0.466c-0.002-2.12,0.004-4.24-0.01-6.36
	c0-0.322,0.057-0.507,0.408-0.596c4.838-1.198,9.305-0.537,13.324,2.546c1.971,1.511,3.863,3.164,5.98,4.438
	c6.188,3.724,12.607,4.15,19.037,0.631c2.494-1.366,4.807-3.062,7.193-4.619c2.67-1.741,5.463-3.166,8.693-3.494
	c0.664-0.068,1.334-0.069,2.094-0.106c0,0.966,0,1.868,0,2.769c0,0.866,0.018,1.731-0.018,2.596
	c-0.006,0.169-0.193,0.441-0.346,0.479c-3.285,0.843-5.973,2.774-8.643,4.733c-2.697,1.977-5.475,3.819-8.775,4.617
	c-6.203,1.5-11.916,0.616-16.955-3.556c-1.645-1.36-3.307-2.749-5.137-3.832c-5.314-3.146-10.738-3.369-16.156-0.15
	C579.763,7.775,579.562,7.884,579.306,8.026z"/>
<path fill-rule="evenodd" fill="#BBBBBB" d="M584.894,48.414c0.854-2.148,1.686-4.175,2.459-6.221
	c0.236-0.616,0.492-0.973,1.234-0.886c0.727,0.082,1.471,0.007,2.203,0.026c0.133,0.006,0.262,0.143,0.391,0.218
	c-0.121,0.106-0.242,0.305-0.365,0.306c-0.744,0.005-0.871,0.425-0.865,1.063c0.021,2.337,0.025,4.674,0,7.009
	c-0.01,0.647,0.141,1.051,0.871,1.057c0.119,0,0.242,0.169,0.361,0.26c-0.135,0.093-0.27,0.262-0.404,0.266
	c-1.213,0.021-2.422,0.019-3.633,0c-0.125,0-0.248-0.153-0.371-0.234c0.107-0.101,0.219-0.288,0.326-0.285
	c0.826,0.01,0.908-0.48,0.902-1.152c-0.027-2.163-0.006-4.326-0.006-6.49c0-0.1-0.01-0.198-0.125-0.325
	c-0.369,0.928-0.744,1.854-1.107,2.784c-0.643,1.647-1.271,3.3-1.936,4.94c-0.088,0.212-0.326,0.435-0.541,0.506
	c-0.404,0.132-0.475-0.241-0.586-0.521c-0.986-2.483-1.975-4.97-2.963-7.455c-0.039-0.098-0.09-0.191-0.184-0.385
	c-0.043,0.15-0.08,0.215-0.08,0.277c0.002,2.013,0.008,4.024,0.02,6.036c0.002,0.301,0.062,0.602,0.076,0.904
	c0.025,0.557,0.316,0.797,0.863,0.84c0.197,0.017,0.381,0.213,0.572,0.329c-0.188,0.081-0.375,0.227-0.566,0.231
	c-0.822,0.027-1.645,0.026-2.465,0c-0.164-0.007-0.322-0.166-0.484-0.257c0.135-0.104,0.26-0.281,0.404-0.303
	c0.525-0.074,0.682-0.422,0.691-0.866c0.039-1.708,0.062-3.415,0.084-5.122c0.008-0.714-0.025-1.431,0.008-2.144
	c0.033-0.62-0.201-0.931-0.838-0.958c-0.137-0.006-0.266-0.179-0.4-0.273c0.139-0.088,0.279-0.249,0.422-0.252
	c0.928-0.022,1.859-0.035,2.787,0.008c0.182,0.007,0.438,0.226,0.514,0.411c0.844,2.031,1.656,4.075,2.48,6.115
	C584.702,48.02,584.778,48.164,584.894,48.414z"/>
<path fill-rule="evenodd" fill="#BBBBBB" d="M580.587,30.536c0,2.416,0.004,4.732-0.004,7.044c-0.004,0.671,0.299,0.983,0.977,1.008
	c0.18,0.006,0.354,0.199,0.529,0.307c-0.031,0.063-0.064,0.129-0.098,0.194c-1.139,0-2.275,0-3.412,0
	c-0.039-0.052-0.076-0.102-0.113-0.152c0.143-0.122,0.273-0.325,0.434-0.348c0.475-0.07,0.691-0.34,0.715-0.777
	c0.043-0.8,0.074-1.601,0.076-2.399c0.014-1.645-0.02-3.29,0.018-4.933c0.014-0.625-0.193-0.929-0.824-0.979
	c-0.156-0.011-0.297-0.207-0.445-0.317c0.037-0.067,0.07-0.135,0.107-0.202c1.078,0,2.156-0.019,3.232,0.019
	c0.152,0.006,0.361,0.255,0.436,0.435c0.863,2.095,1.705,4.198,2.553,6.302c0.029,0.072,0.074,0.144,0.16,0.307
	c0.832-2.095,1.664-4.093,2.418-6.12c0.258-0.703,0.576-1.046,1.377-0.962c0.811,0.085,1.631,0.019,2.451,0.019
	c0.035,0.064,0.074,0.129,0.111,0.194c-0.131,0.111-0.262,0.319-0.395,0.32c-0.758,0.012-0.924,0.421-0.918,1.099
	c0.025,2.334,0.023,4.673,0.004,7.009c-0.006,0.625,0.162,0.998,0.859,1.007c0.148,0,0.293,0.21,0.438,0.322
	c-0.037,0.057-0.072,0.108-0.109,0.164c-1.422,0-2.844,0-4.266,0c-0.045-0.045-0.084-0.092-0.129-0.137
	c0.135-0.121,0.27-0.346,0.408-0.35c0.689-0.008,0.861-0.351,0.852-0.993c-0.031-2.303-0.012-4.61-0.129-6.945
	c-0.561,1.412-1.123,2.825-1.678,4.239c-0.457,1.166-0.889,2.342-1.369,3.497c-0.086,0.212-0.375,0.508-0.531,0.484
	c-0.215-0.031-0.486-0.288-0.576-0.51c-1.018-2.499-2.006-5.011-3.002-7.518C580.708,30.774,580.661,30.691,580.587,30.536z"/>
<path fill-rule="evenodd" fill="#BBBBBB" d="M626.149,44.168c0.094,0.351,0.172,0.656,0.271,1.025
	c1.5-0.992,2.982-1.738,4.436,0.032c0.438-0.25,0.865-0.526,1.324-0.755c0.775-0.382,1.582-0.438,2.375-0.058
	c0.738,0.356,1.07,0.987,1.076,1.786c0.014,1.232,0.008,2.464,0.012,3.698c0,0.976,0,0.976,1.189,1.194
	c-0.24,0.209-0.375,0.427-0.516,0.431c-1.037,0.028-2.078,0.025-3.115,0.007c-0.125-0.003-0.25-0.152-0.375-0.231
	c0.107-0.1,0.207-0.275,0.326-0.29c0.48-0.052,0.59-0.335,0.584-0.76c-0.014-1.19,0.008-2.379-0.012-3.568
	c-0.014-0.946-0.438-1.441-1.197-1.475c-0.82-0.035-1.477,0.546-1.51,1.443c-0.047,1.231-0.041,2.465,0.006,3.696
	c0.008,0.216,0.303,0.432,0.484,0.628c0.113,0.122,0.262,0.206,0.395,0.31c-0.164,0.084-0.322,0.24-0.484,0.245
	c-0.91,0.023-1.818,0.023-2.727,0c-0.166-0.005-0.328-0.157-0.49-0.242c0.131-0.103,0.281-0.189,0.393-0.31
	c0.184-0.196,0.48-0.409,0.488-0.624c0.043-1.272,0.049-2.551,0.006-3.825c-0.031-0.896-0.461-1.324-1.188-1.321
	c-0.812,0.001-1.463,0.588-1.48,1.406c-0.027,1.252-0.002,2.509-0.016,3.762c-0.004,0.364,0.121,0.556,0.496,0.623
	c0.137,0.026,0.248,0.208,0.369,0.318c-0.15,0.075-0.301,0.212-0.455,0.215c-0.973,0.019-1.945,0.021-2.92-0.002
	c-0.143-0.002-0.283-0.157-0.426-0.242c0.113-0.097,0.219-0.26,0.342-0.274c0.521-0.06,0.676-0.351,0.67-0.841
	c-0.02-1.406-0.018-2.812-0.004-4.219c0.006-0.47-0.088-0.806-0.633-0.862c-0.105-0.012-0.195-0.162-0.295-0.246
	c0.113-0.101,0.213-0.263,0.34-0.288C624.608,44.412,625.337,44.301,626.149,44.168z"/>
<path fill-rule="evenodd" fill="#BBBBBB" d="M603.063,63.773c-1.094,0-1.953,0-2.838,0c-0.031-0.178-0.061-0.334-0.1-0.554
	c-0.143,0.088-0.248,0.147-0.348,0.213c-1.385,0.864-2.922,0.67-3.701-0.468c-0.781-1.147-0.781-3.316,0.004-4.516
	c0.707-1.078,2.197-1.575,3.766-1.255c0.082,0.017,0.162,0.036,0.316,0.07c0-0.682,0.041-1.325-0.023-1.96
	c-0.02-0.203-0.312-0.378-0.486-0.562c-0.102-0.109-0.213-0.212-0.32-0.316c0.111-0.08,0.213-0.217,0.332-0.233
	c0.744-0.112,1.494-0.2,2.361-0.31c0,0.287,0,0.51,0,0.734c0,2.597,0.006,5.19-0.006,7.785c-0.002,0.472,0.012,0.868,0.637,0.899
	C602.765,63.304,602.86,63.53,603.063,63.773z M600.169,60.389c0-0.476-0.004-0.95,0.002-1.426c0.002-0.599-0.193-1.071-0.824-1.236
	c-0.627-0.163-1.158,0.074-1.426,0.621c-0.643,1.312-0.656,2.679-0.029,4c0.262,0.554,0.805,0.778,1.428,0.629
	c0.635-0.15,0.828-0.642,0.846-1.226C600.179,61.298,600.169,60.844,600.169,60.389z"/>
<path fill-rule="evenodd" fill="#BBBBBB" d="M606.501,54.569c1.768,0,3.537-0.064,5.305,0.021c1.391,0.065,2.166,0.856,2.371,2.144
	c0.205,1.275-0.357,2.55-1.533,2.981c-0.93,0.338-1.955,0.412-3.061,0.626c0,0.698-0.045,1.599,0.037,2.486
	c0.018,0.181,0.512,0.312,0.785,0.475c0.158,0.094,0.309,0.203,0.459,0.307c-0.158,0.062-0.318,0.18-0.477,0.181
	c-1.168,0.016-2.336,0.019-3.504,0c-0.148-0.003-0.299-0.137-0.449-0.209c0.137-0.098,0.268-0.275,0.41-0.281
	c0.537-0.031,0.676-0.312,0.672-0.807c-0.016-2.203-0.014-4.409-0.002-6.612c0.004-0.506-0.1-0.841-0.701-0.833
	c-0.148,0.002-0.299-0.18-0.449-0.276C606.409,54.703,606.454,54.636,606.501,54.569z M609.567,57.245c0,0.41,0,0.819,0,1.231
	c0,0.963,0.457,1.301,1.4,1.031c0.645-0.182,0.959-0.672,1.035-1.277c0.068-0.554,0.072-1.129,0.01-1.682
	c-0.109-0.928-0.994-1.557-1.916-1.441c-0.357,0.044-0.547,0.189-0.533,0.579C609.581,56.205,609.567,56.723,609.567,57.245z"/>
<path fill-rule="evenodd" fill="#BBBBBB" d="M611.987,31.791c0.09,0.348,0.164,0.634,0.25,0.97c0.52-0.269,0.994-0.562,1.502-0.769
	c1.818-0.737,3.229,0.211,3.244,2.167c0.012,1.19,0.014,2.38-0.002,3.572c-0.008,0.5,0.096,0.84,0.688,0.877
	c0.133,0.007,0.258,0.219,0.389,0.336c-0.039,0.059-0.076,0.119-0.115,0.178c-1.143,0-2.285,0.005-3.428-0.009
	c-0.111-0.001-0.221-0.13-0.332-0.201c0.1-0.106,0.193-0.3,0.299-0.306c0.469-0.029,0.562-0.294,0.559-0.698
	c-0.008-1.231,0.01-2.465-0.008-3.699c-0.012-0.922-0.455-1.422-1.227-1.44c-0.811-0.018-1.529,0.612-1.549,1.431
	c-0.033,1.254-0.008,2.509-0.018,3.765c-0.006,0.395,0.154,0.587,0.557,0.638c0.154,0.021,0.279,0.213,0.418,0.325
	c-0.037,0.051-0.07,0.104-0.105,0.154c-0.127,0.014-0.252,0.04-0.377,0.04c-1.123,0.004-2.244,0.004-3.365,0.004
	c-0.039-0.061-0.078-0.119-0.115-0.18c0.141-0.118,0.27-0.323,0.424-0.339c0.486-0.06,0.656-0.291,0.65-0.773
	c-0.023-1.45-0.016-2.899-0.006-4.35c0.002-0.438-0.064-0.771-0.611-0.796c-0.109-0.005-0.211-0.194-0.316-0.298
	c0.098-0.091,0.186-0.246,0.297-0.265C610.433,32,611.181,31.905,611.987,31.791z"/>
<path fill-rule="evenodd" fill="#BBBBBB" d="M594.212,44.107c0,1.099-0.004,2.046,0.002,2.994c0.002,0.779-0.014,1.557,0.025,2.335
	c0.039,0.765,0.525,1.208,1.242,1.216c0.758,0.009,1.443-0.477,1.475-1.176c0.059-1.293,0.053-2.594,0.01-3.887
	c-0.008-0.182-0.379-0.351-0.578-0.527c-0.111-0.098-0.217-0.2-0.324-0.304c0.1-0.084,0.193-0.226,0.307-0.244
	c0.807-0.144,1.615-0.259,2.514-0.4c0.012,0.293,0.031,0.519,0.031,0.744c0.004,1.75,0.014,3.5-0.006,5.253
	c-0.006,0.515,0.131,0.828,0.699,0.875c0.117,0.01,0.221,0.178,0.332,0.275c-0.115,0.087-0.23,0.246-0.35,0.25
	c-0.795,0.021-1.594,0.01-2.422,0.01c-0.059-0.272-0.109-0.514-0.174-0.813c-0.361,0.197-0.658,0.422-0.992,0.532
	c-0.545,0.184-1.109,0.393-1.672,0.415c-1.285,0.05-2.021-0.688-2.053-1.978c-0.027-1.208-0.012-2.42-0.006-3.631
	c0.004-0.501,0.018-0.982-0.686-1.003c-0.078-0.004-0.225-0.186-0.209-0.247c0.031-0.112,0.15-0.264,0.254-0.282
	C592.456,44.368,593.284,44.25,594.212,44.107z"/>
<path fill-rule="evenodd" fill="#BBBBBB" d="M620.263,51.539c-0.072-0.303-0.119-0.509-0.186-0.787
	c-0.352,0.188-0.646,0.409-0.979,0.514c-0.568,0.179-1.156,0.383-1.74,0.397c-1.219,0.029-1.912-0.683-1.949-1.933
	c-0.035-1.166-0.016-2.335-0.008-3.504c0-0.55,0.082-1.13-0.744-1.151c-0.064-0.005-0.182-0.186-0.17-0.27
	c0.012-0.091,0.137-0.223,0.23-0.237c0.822-0.144,1.652-0.268,2.584-0.412c0,0.544,0,1.008,0.004,1.475
	c0.002,1.231-0.01,2.464,0.02,3.696c0.014,0.597,0.252,1.097,0.889,1.288c0.6,0.184,1.307-0.051,1.648-0.595
	c0.139-0.222,0.213-0.52,0.215-0.786c0.025-1.122,0-2.247,0.021-3.372c0.008-0.429-0.09-0.704-0.568-0.763
	c-0.127-0.017-0.234-0.18-0.35-0.274c0.119-0.094,0.227-0.248,0.357-0.272c0.781-0.144,1.57-0.257,2.449-0.395
	c0.014,0.272,0.037,0.498,0.037,0.723c0.002,1.728,0.014,3.459-0.006,5.187c-0.006,0.519,0.076,0.896,0.693,0.95
	c0.107,0.01,0.201,0.2,0.303,0.307c-0.113,0.071-0.225,0.203-0.338,0.206C621.88,51.546,621.083,51.539,620.263,51.539z"/>
<path fill-rule="evenodd" fill="#BBBBBB" d="M630.571,60.195c0.518-0.738,1.055-1.462,1.537-2.222
	c0.342-0.534,0.764-0.774,1.398-0.715c0.445,0.043,0.9,0.009,1.352,0.009c0.031,0.072,0.062,0.141,0.094,0.213
	c-0.188,0.105-0.365,0.283-0.562,0.306c-1.1,0.128-1.857,0.744-2.488,1.663c0.9,1.365,1.689,2.834,3.066,3.844
	c0.104,0.078,0.146,0.234,0.221,0.353c-0.123,0.058-0.242,0.15-0.369,0.168c-1.457,0.189-2.574-0.283-3.27-1.643
	c-0.291-0.565-0.66-1.094-1.1-1.812c0,0.953-0.031,1.719,0.021,2.478c0.012,0.156,0.328,0.294,0.506,0.436
	c0.141,0.111,0.281,0.218,0.424,0.324c-0.033,0.067-0.068,0.135-0.102,0.2c-1.098,0-2.197,0.006-3.295-0.01
	c-0.102-0.002-0.203-0.147-0.303-0.228c0.094-0.093,0.186-0.26,0.281-0.266c0.582-0.031,0.623-0.4,0.623-0.854
	c-0.012-2.249-0.012-4.498-0.004-6.746c0.004-0.484-0.002-0.922-0.645-0.985c-0.076-0.008-0.201-0.177-0.193-0.262
	c0.01-0.087,0.143-0.222,0.234-0.236c0.783-0.116,1.57-0.21,2.428-0.322c0,2.144,0,4.209,0,6.271
	C630.476,60.17,630.524,60.183,630.571,60.195z"/>
<path fill-rule="evenodd" fill="#BBBBBB" d="M595.302,38.613c-0.812,0.576-1.818,1.03-2.988,0.45
	c-0.789-0.389-1.082-1.074-1.08-1.914c0.002-0.816,0.418-1.341,1.162-1.616c0.85-0.312,1.695-0.644,2.564-0.901
	c0.623-0.187,0.537-0.637,0.518-1.08c-0.02-0.496-0.125-0.956-0.693-1.114c-0.508-0.142-0.906,0.055-1.182,0.461
	c-0.201,0.3-0.371,0.634-0.488,0.978c-0.18,0.522-0.512,0.588-0.967,0.425c-0.578-0.208-0.895-0.64-0.641-1.056
	c0.244-0.402,0.607-0.815,1.02-1.016c1.102-0.536,2.289-0.618,3.48-0.298c0.938,0.251,1.324,0.757,1.344,1.736
	c0.021,1.19,0,2.382,0.01,3.569c0.006,0.89,0.111,1.002,0.961,1.215c0.113,0.029,0.227,0.161,0.275,0.273
	c0.02,0.044-0.127,0.221-0.221,0.243c-0.588,0.133-1.186,0.351-1.77,0.32C596.204,39.27,595.821,38.899,595.302,38.613z
	 M595.483,34.989c-0.713,0.375-1.35,0.638-1.898,1.024c-0.463,0.326-0.529,1.136-0.227,1.658c0.287,0.497,0.723,0.748,1.301,0.598
	c0.66-0.17,0.83-0.68,0.826-1.293C595.481,36.375,595.483,35.774,595.483,34.989z"/>
<path fill-rule="evenodd" fill="#BBBBBB" d="M589.282,57.131c0.08,0.298,0.145,0.542,0.225,0.836
	c0.455-0.229,0.877-0.481,1.328-0.663c1.693-0.672,2.949,0.171,2.979,1.988c0.016,1.081,0.014,2.162-0.004,3.241
	c-0.006,0.418,0.062,0.718,0.562,0.765c0.123,0.011,0.23,0.179,0.348,0.277c-0.125,0.072-0.254,0.21-0.381,0.212
	c-0.93,0.02-1.861,0.017-2.787,0.001c-0.117-0.001-0.232-0.115-0.35-0.178c0.1-0.11,0.186-0.3,0.299-0.318
	c0.414-0.062,0.445-0.329,0.445-0.66c-0.006-1.124,0.008-2.246-0.008-3.371c-0.012-0.729-0.383-1.152-1.004-1.203
	c-0.65-0.054-1.328,0.378-1.365,1.016c-0.076,1.247-0.061,2.503-0.043,3.756c0.002,0.146,0.244,0.296,0.381,0.438
	c0.105,0.108,0.221,0.206,0.332,0.31c-0.127,0.071-0.256,0.209-0.387,0.211c-1.012,0.017-2.025,0.011-3.037,0.011
	c-0.039-0.062-0.076-0.123-0.113-0.185c0.145-0.112,0.281-0.294,0.443-0.325c0.379-0.068,0.494-0.271,0.488-0.628
	c-0.008-1.341-0.008-2.679,0-4.021c0.004-0.376-0.105-0.619-0.521-0.671c-0.105-0.015-0.193-0.167-0.291-0.255
	c0.117-0.098,0.219-0.262,0.35-0.282C587.847,57.314,588.532,57.233,589.282,57.131z"/>
<path fill-rule="evenodd" fill="#BBBBBB" d="M619.731,35.387c-0.1,1.458,0.412,2.508,1.334,2.839
	c0.996,0.36,1.791-0.002,2.699-1.237c0.467,0.044,0.504,0.299,0.312,0.654c-0.443,0.818-1.082,1.396-2.02,1.581
	c-1.957,0.378-4.18-0.255-4.396-3.091c-0.105-1.383,0.082-2.681,1.234-3.644c1.062-0.885,3.213-0.984,4.342-0.186
	c0.857,0.607,1.121,1.498,1.113,2.496c-0.002,0.495-0.35,0.588-0.756,0.588C622.321,35.387,621.05,35.387,619.731,35.387z
	 M619.589,34.725c0.65,0,1.16,0,1.67,0.001c1.09,0,1.271-0.244,0.967-1.312c-0.023-0.083-0.055-0.163-0.086-0.243
	c-0.182-0.459-0.52-0.847-1.002-0.753c-0.389,0.075-0.842,0.362-1.049,0.691C619.819,33.538,619.769,34.101,619.589,34.725z"/>
<path fill-rule="evenodd" fill="#BBBBBB" d="M609.372,47.808c-0.121,1.353,0.391,2.461,1.256,2.77
	c1.061,0.38,1.879,0.022,2.766-1.214c0.365,0.063,0.508,0.206,0.326,0.609c-0.564,1.237-1.719,1.815-3.473,1.697
	c-1.338-0.091-2.439-0.903-2.746-2.106c-0.357-1.4-0.387-2.788,0.461-4.056c1.141-1.701,4.281-1.865,5.426-0.221
	c0.367,0.525,0.451,1.276,0.559,1.943c0.074,0.449-0.334,0.546-0.707,0.546c-1.082,0.006-2.162,0.001-3.244,0.005
	C609.784,47.783,609.575,47.799,609.372,47.808z M609.259,47c0.176,0.077,0.213,0.108,0.254,0.108
	c0.471,0.01,0.943,0.017,1.414,0.018c1.043,0.001,1.162-0.143,0.955-1.157c-0.023-0.104-0.061-0.206-0.094-0.307
	c-0.168-0.479-0.445-0.842-1-0.862c-0.531-0.019-0.92,0.246-1.104,0.728C609.503,45.997,609.401,46.497,609.259,47z"/>
<path fill-rule="evenodd" fill="#BBBBBB" d="M618.903,63.324c-0.562,0.225-1.064,0.497-1.598,0.621
	c-1.023,0.232-2.018-0.391-2.273-1.34c-0.277-1.022,0.168-1.816,1.262-2.216c0.67-0.244,1.338-0.487,2.02-0.687
	c0.545-0.157,0.607-0.526,0.559-0.995c-0.051-0.457-0.178-0.868-0.678-0.993c-0.486-0.125-0.838,0.105-1.068,0.524
	c-0.125,0.226-0.213,0.47-0.309,0.71c-0.23,0.581-0.535,0.703-1.109,0.431c-0.537-0.254-0.713-0.678-0.389-1.149
	c0.213-0.307,0.52-0.613,0.855-0.757c1.039-0.445,2.135-0.519,3.23-0.204c0.863,0.248,1.246,0.754,1.264,1.651
	c0.02,1.081,0.006,2.159,0.008,3.24c0,0.509,0.057,0.971,0.738,0.981c0.08,0.003,0.193,0.144,0.223,0.24
	c0.02,0.074-0.043,0.208-0.111,0.266C620.817,64.242,619.37,64.045,618.903,63.324z M618.872,60.05
	c-0.578,0.282-1.078,0.479-1.525,0.758c-0.459,0.287-0.609,1.053-0.352,1.58c0.23,0.479,0.625,0.729,1.16,0.592
	c0.621-0.156,0.727-0.659,0.719-1.216C618.864,61.249,618.872,60.73,618.872,60.05z"/>
<path fill-rule="evenodd" fill="#BBBBBB" d="M583.503,63.239c-0.781,0.544-1.559,0.935-2.508,0.663
	c-0.816-0.234-1.293-0.82-1.363-1.694c-0.062-0.762,0.264-1.361,1.033-1.69c0.754-0.318,1.531-0.579,2.316-0.818
	c0.535-0.163,0.525-0.541,0.504-0.966c-0.021-0.457-0.109-0.944-0.625-0.988c-0.326-0.029-0.727,0.173-1.002,0.385
	c-0.195,0.147-0.205,0.513-0.359,0.737c-0.17,0.241-0.43,0.613-0.621,0.598c-0.342-0.031-0.771-0.237-0.953-0.51
	c-0.129-0.193-0.012-0.752,0.188-0.912c0.434-0.354,0.967-0.713,1.502-0.79c0.812-0.116,1.676-0.089,2.488,0.05
	c0.818,0.142,1.176,0.704,1.193,1.549c0.02,1.081-0.008,2.16,0.014,3.241c0.012,0.5,0.035,1.033,0.76,1.053
	c0.08,0.003,0.189,0.15,0.219,0.25c0.02,0.072-0.053,0.203-0.123,0.262C585.421,64.251,584.034,64.051,583.503,63.239z
	 M583.481,60.132c-0.254,0.089-0.461,0.145-0.65,0.231c-0.254,0.116-0.51,0.237-0.746,0.388c-0.57,0.365-0.783,1.331-0.318,1.808
	c0.242,0.249,0.734,0.442,1.053,0.375c0.266-0.055,0.584-0.507,0.633-0.82C583.55,61.486,583.481,60.83,583.481,60.132z"/>
<path fill-rule="evenodd" fill="#BBBBBB" d="M635.476,34.218c-0.148-0.163-0.367-0.301-0.438-0.492
	c-0.217-0.602-0.549-1.075-1.18-1.275c-0.541-0.172-1.109,0.049-1.324,0.517c-0.266,0.575,0.012,0.988,0.484,1.244
	c0.545,0.296,1.145,0.494,1.715,0.75c1.012,0.459,1.5,1.238,1.426,2.239c-0.07,0.939-0.682,1.64-1.719,1.952
	c-1.059,0.318-2.104,0.203-3.104-0.21c-0.236-0.098-0.467-0.437-0.523-0.7c-0.113-0.541-0.107-1.105-0.15-1.662
	c0.062-0.042,0.123-0.081,0.186-0.123c0.152,0.16,0.359,0.294,0.447,0.485c0.311,0.678,0.648,1.321,1.391,1.625
	c0.678,0.275,1.4,0.081,1.654-0.438c0.26-0.534,0.035-1.136-0.621-1.517c-0.371-0.212-0.783-0.358-1.186-0.513
	c-1.551-0.594-2.139-1.695-1.592-3.006c0.316-0.766,0.965-1.166,1.707-1.212c0.863-0.053,1.744,0.093,2.607,0.214
	c0.154,0.021,0.361,0.332,0.383,0.526c0.055,0.488,0.018,0.988,0.018,1.481C635.597,34.143,635.538,34.18,635.476,34.218z"/>
<path fill-rule="evenodd" fill="#BBBBBB" d="M605.728,46.601c-0.145-0.15-0.309-0.287-0.434-0.455
	c-0.279-0.37-0.48-0.826-0.824-1.119c-0.498-0.428-1.293-0.27-1.605,0.225c-0.33,0.519-0.148,1.066,0.535,1.423
	c0.629,0.327,1.32,0.54,1.934,0.894c1.471,0.845,1.467,2.909-0.029,3.703c-1.266,0.673-2.59,0.568-3.865-0.041
	c-0.168-0.082-0.311-0.349-0.342-0.548c-0.088-0.555-0.107-1.117-0.02-1.824c0.15,0.122,0.348,0.212,0.447,0.365
	c0.246,0.377,0.408,0.812,0.678,1.167c0.355,0.468,0.861,0.786,1.461,0.648c0.338-0.075,0.812-0.309,0.889-0.571
	c0.105-0.344-0.037-0.836-0.236-1.169c-0.156-0.263-0.543-0.402-0.85-0.553c-0.443-0.22-0.928-0.366-1.357-0.608
	c-0.676-0.385-1.119-0.95-1.092-1.779c0.029-0.851,0.404-1.493,1.195-1.851c1.107-0.5,2.229-0.443,3.334-0.002
	c0.164,0.064,0.332,0.328,0.35,0.519c0.051,0.469,0.018,0.945,0.018,1.419C605.851,46.496,605.79,46.549,605.728,46.601z"/>
<path fill-rule="evenodd" fill="#BBBBBB" d="M603.151,39.089c-1.369,0-2.742,0-4.113,0c-0.037-0.057-0.074-0.113-0.111-0.169
	c0.15-0.112,0.289-0.296,0.451-0.32c0.457-0.063,0.613-0.287,0.609-0.737c-0.018-1.469-0.016-2.938-0.004-4.406
	c0.006-0.45-0.084-0.761-0.623-0.771c-0.107-0.002-0.207-0.192-0.312-0.294c0.098-0.092,0.184-0.244,0.291-0.261
	c0.764-0.126,1.531-0.225,2.332-0.336c0.074,0.386,0.139,0.736,0.207,1.105c0.506-0.361,0.938-0.781,1.453-0.995
	c0.312-0.13,0.863-0.066,1.109,0.145c0.217,0.181,0.254,0.708,0.191,1.051c-0.111,0.606-0.629,0.79-1.197,0.519
	c-1.209-0.581-1.52-0.396-1.531,0.944c-0.008,1.059,0.023,2.118-0.01,3.175c-0.018,0.589,0.229,0.831,0.787,0.846
	C602.981,38.589,603.333,38.568,603.151,39.089z"/>
<path fill-rule="evenodd" fill="#BBBBBB" d="M628.702,39.093c-1.354,0-2.707,0-4.059,0c-0.037-0.057-0.074-0.111-0.111-0.167
	c0.148-0.114,0.283-0.302,0.445-0.33c0.426-0.069,0.58-0.282,0.574-0.702c-0.014-1.488-0.012-2.98-0.002-4.47
	c0.002-0.426-0.088-0.716-0.592-0.737c-0.109-0.004-0.213-0.188-0.318-0.292c0.094-0.092,0.18-0.251,0.285-0.269
	c0.764-0.125,1.531-0.222,2.332-0.333c0.076,0.381,0.15,0.731,0.225,1.089c0.482-0.347,0.895-0.769,1.396-0.963
	c0.33-0.128,0.906-0.065,1.158,0.156c0.217,0.192,0.24,0.753,0.156,1.104c-0.127,0.527-0.635,0.684-1.137,0.453
	c-0.178-0.078-0.336-0.201-0.512-0.276c-0.549-0.239-0.947-0.081-0.975,0.512c-0.068,1.4-0.062,2.806-0.057,4.208
	c0.002,0.485,0.438,0.431,0.764,0.514c0.197,0.049,0.375,0.184,0.557,0.279C628.79,38.944,628.747,39.018,628.702,39.093z"/>
<path fill-rule="evenodd" fill="#BBBBBB" d="M624.651,57.129c0.051,0.371,0.094,0.682,0.143,1.041
	c0.445-0.335,0.828-0.676,1.258-0.932c0.43-0.251,0.904-0.226,1.232,0.188c0.346,0.432,0.242,0.897-0.082,1.307
	c-0.326,0.413-0.695,0.415-1.127,0.117c-0.787-0.541-1.193-0.336-1.223,0.614c-0.027,1.012,0.012,2.027-0.02,3.042
	c-0.014,0.52,0.174,0.751,0.693,0.786c0.166,0.012,0.32,0.183,0.48,0.281c-0.168,0.074-0.336,0.21-0.506,0.215
	c-0.994,0.02-1.986,0.016-2.98,0c-0.139-0.001-0.275-0.115-0.414-0.178c0.121-0.11,0.232-0.303,0.367-0.322
	c0.43-0.056,0.508-0.303,0.504-0.675c-0.01-1.295-0.012-2.591,0-3.887c0.004-0.408-0.051-0.726-0.557-0.763
	c-0.094-0.008-0.174-0.181-0.26-0.275c0.102-0.088,0.191-0.236,0.303-0.253C623.163,57.32,623.87,57.236,624.651,57.129z"/>
<path fill-rule="evenodd" fill="#BBBBBB" d="M604.946,38.918c0.154-0.111,0.295-0.297,0.461-0.319
	c0.43-0.062,0.594-0.285,0.594-0.697c-0.006-1.493-0.004-2.983,0-4.476c0-0.413-0.098-0.725-0.605-0.74
	c-0.094-0.003-0.23-0.161-0.264-0.272c-0.02-0.071,0.104-0.259,0.182-0.272c0.846-0.134,1.695-0.242,2.633-0.369
	c0,0.812,0,1.541,0,2.271c0,1.232,0.012,2.463-0.006,3.698c-0.006,0.494,0.08,0.851,0.682,0.865c0.105,0.004,0.205,0.194,0.307,0.3
	c-0.109,0.073-0.217,0.204-0.326,0.204c-1.184,0.015-2.369,0.009-3.555,0.009C605.015,39.052,604.981,38.987,604.946,38.918z"/>
<path fill-rule="evenodd" fill="#BBBBBB" d="M597.882,19.847c-0.355,1.466-0.678,2.795-1.004,4.139
	c0.428-0.465,0.807-0.93,1.244-1.332c0.229-0.21,0.541-0.357,0.842-0.454c0.787-0.25,1.27,0.145,1.096,0.956
	c-0.188,0.904-0.494,1.784-0.744,2.675c-0.053,0.191-0.082,0.389-0.121,0.584c0.062,0.037,0.125,0.072,0.188,0.109
	c0.303-0.328,0.607-0.655,0.908-0.983c-0.082,0.636-0.389,1.112-0.938,1.345c-0.227,0.098-0.613,0.101-0.783-0.034
	c-0.16-0.125-0.219-0.514-0.162-0.746c0.211-0.88,0.506-1.74,0.732-2.617c0.061-0.241-0.02-0.518-0.037-0.779
	c-0.275,0.056-0.611,0.029-0.818,0.18c-0.934,0.678-1.383,1.682-1.715,2.748c-0.062,0.206-0.098,0.421-0.156,0.628
	c-0.186,0.658-0.188,0.658-0.992,0.657c0.477-2.144,0.951-4.275,1.432-6.438c-0.275-0.079-0.496-0.144-0.719-0.207
	c-0.008-0.054-0.016-0.108-0.023-0.163C596.671,20.031,597.228,19.945,597.882,19.847z"/>
<path fill-rule="evenodd" fill="#BBBBBB" d="M595.882,20.356c-0.156,0.575-0.285,1.053-0.426,1.584
	c-0.221-0.453-0.305-0.942-0.59-1.126c-0.32-0.208-0.82-0.144-1.301-0.205c-0.352,1.541-0.688,3.009-1.025,4.479
	c-0.006,0.021-0.006,0.042-0.008,0.063c-0.08,0.381-0.279,0.795-0.191,1.131c0.059,0.213,0.547,0.312,0.994,0.54
	c-1.109,0-2.061,0-3.104,0c0.115-0.109,0.176-0.21,0.227-0.206c0.844,0.081,0.945-0.505,1.076-1.127
	c0.312-1.479,0.666-2.95,0.998-4.425c0.021-0.104,0.02-0.214,0.033-0.346c-1.072-0.224-1.877,0.037-2.182,1.306
	c-0.07-0.063-0.145-0.125-0.215-0.188c0.1-0.493,0.199-0.984,0.301-1.478C592.288,20.356,594.034,20.356,595.882,20.356z"/>
<path fill-rule="evenodd" fill="#BBBBBB" d="M604.101,25.476c-0.074,0.928-1.111,1.602-2.123,1.508
	c-0.85-0.078-1.283-0.641-1.262-1.641c0.037-1.552,1.098-2.915,2.473-3.176c0.707-0.134,1.309,0.101,1.496,0.586
	c0.199,0.515-0.01,1.101-0.65,1.458c-0.537,0.301-1.127,0.562-1.729,0.69c-0.615,0.131-0.715,0.413-0.572,0.943
	c0.143,0.546,0.514,0.791,1.012,0.627c0.387-0.129,0.717-0.443,1.062-0.688C603.921,25.703,604.003,25.58,604.101,25.476z
	 M601.702,24.726c0.916-0.213,1.682-0.463,2.041-1.27c0.104-0.23,0.035-0.664-0.129-0.847c-0.117-0.128-0.596-0.088-0.795,0.048
	C602.147,23.116,601.858,23.823,601.702,24.726z"/>
<path fill-rule="evenodd" fill="#BBBBBB" d="M636.376,32.616c0.152-0.235,0.314-0.465,0.457-0.705
	c0.332-0.562,0.398-1.118,0.016-1.705c-0.271-0.413-0.434-0.922-0.035-1.313c0.205-0.201,0.623-0.297,0.926-0.263
	c0.545,0.06,0.83,0.532,0.836,1.016c0.006,0.519-0.061,1.108-0.307,1.542c-0.336,0.586-0.861,1.068-1.344,1.558
	c-0.105,0.108-0.363,0.067-0.551,0.093C636.376,32.764,636.376,32.689,636.376,32.616z"/>
<path fill-rule="evenodd" fill="#BBBBBB" d="M606.897,28.602c0.691-0.008,1.182,0.438,1.203,1.09
	c0.021,0.651-0.506,1.202-1.168,1.213c-0.67,0.013-1.193-0.504-1.186-1.175C605.753,29.067,606.22,28.608,606.897,28.602z"/>
<path fill-rule="evenodd" fill="#BBBBBB" d="M193.291,32.556c1.391,1.517,2.702,2.911,3.972,4.347
	c0.982,1.105,1.09,2.126,0.443,3.325c-1.001,1.852-3.385,2.132-4.847,0.495c-1.28-1.435-2.451-2.966-3.677-4.447
	c-0.446-0.538-0.913-1.059-1.613-1.868c0,1.657,0.016,2.944-0.005,4.23c-0.029,1.874-1.148,3.158-2.87,3.13
	c-1.863-0.031-3.079-1.186-3.07-3.129c0.023-5.446-0.011-10.891,0.017-16.337c0.012-2.256,0.975-3.219,3.218-3.245
	c2.2-0.025,4.409-0.08,6.599,0.082c3.778,0.275,6.115,2.759,6.414,6.095C198.19,28.788,197.123,30.713,193.291,32.556z
	 M187.592,28.322c0.997,0,1.873,0.078,2.727-0.02c1.036-0.117,1.575-0.904,1.52-1.986c-0.053-1.04-0.542-1.558-1.658-1.628
	c-0.848-0.054-1.701-0.011-2.589-0.011C187.592,25.947,187.592,27.033,187.592,28.322z M242.16,34.612
	c1.734,1.842,3.444,3.707,5.172,5.553c0.487,0.522,0.976,1.052,1.61,1.405c1.129,0.625,2.77,0.382,3.67-0.53
	c0.75-0.764,0.868-2.072,0.292-3.23c-0.374-0.752-0.958-1.335-1.528-1.934c-1.921-2.02-3.835-4.049-5.727-6.047
	c0.334-0.698,0.846-1.045,1.265-1.47c1.428-1.451,2.89-2.869,4.309-4.33c0.752-0.775,1.254-1.696,0.948-2.824
	c-0.596-2.2-3.167-2.946-4.812-1.346c-1.814,1.764-3.526,3.633-5.298,5.441c-0.246,0.252-0.342,0.729-0.993,0.647
	c0-1.398,0.042-2.812-0.01-4.223c-0.061-1.645-1.092-2.609-2.736-2.665c-2.012-0.069-3.158,1.014-3.171,3.118
	c-0.033,5.503-0.037,11.007-0.028,16.511c0.004,1.96,1.197,3.223,2.961,3.227c1.765,0.003,2.958-1.263,2.979-3.203
	c0.02-1.634,0.004-3.269,0.004-4.928C241.666,33.871,241.872,34.305,242.16,34.612z M293.562,25.088
	c2.575-1.473,5.159-1.564,7.645,0.015c1.841,1.167,2.889,2.971,3.351,5.088c0.693,3.184,0.412,6.165-1.614,8.901
	c-1.524,2.059-4.813,3.574-7.928,2.471c-0.251-0.089-0.502-0.181-0.985-0.353c-0.022,1.39-0.072,2.667-0.052,3.945
	c0.012,0.893-0.306,1.593-0.964,2.175c-1.383,1.227-3.697,0.699-4.408-1.012c-0.212-0.511-0.315-1.036-0.314-1.599
	c0.012-5.774,0.05-11.55-0.017-17.322c-0.021-1.802,1.405-3.322,2.938-3.319C292.167,24.081,292.845,24.605,293.562,25.088z
	 M299.198,33.055c0.033-1.026-0.195-1.919-0.788-2.686c-1.147-1.482-3.024-1.318-3.86,0.375c-0.781,1.584-0.675,3.19,0.253,4.686
	c0.898,1.447,2.718,1.459,3.65,0.034C298.933,34.729,299.295,33.919,299.198,33.055z M267.822,35.131
	c0.269,0.283,0.52,0.502,0.715,0.761c0.933,1.243,0.874,2.7-0.291,3.691c-3.395,2.891-9.548,3.442-12.917-0.085
	c-1.708-1.788-2.453-3.922-2.466-6.413c-0.015-2.68,0.842-4.919,2.685-6.834c3.313-3.445,9.365-2.777,12.03,0.893
	c1.127,1.552,1.913,3.145,1.945,5.114C269.544,33.608,269.152,34.596,267.822,35.131z M265.667,35.127c-2.273,0-4.44,0-6.656,0
	C260.32,37.217,262.681,37.212,265.667,35.127z M263.445,30.651c-0.628-1.297-1.322-1.759-2.534-1.604
	c-0.923,0.118-1.734,0.461-1.963,1.604C260.504,30.651,261.957,30.651,263.445,30.651z M321.044,35.182
	c0.191,0.203,0.396,0.385,0.564,0.596c1.07,1.354,1.019,2.855-0.331,3.923c-4.621,3.656-13.021,3.255-14.912-4.025
	c-1.087-4.185,0.08-8.124,3.764-10.538c2.872-1.882,7.685-1.516,10.306,1.609c1.282,1.529,2.233,3.239,2.237,5.335
	C322.677,33.875,322.547,34.164,321.044,35.182z M312.084,35.09c1.551,2.127,4.043,2.073,6.735,0
	C316.598,35.09,314.435,35.09,312.084,35.09z M316.644,30.623c-0.425-1.144-1.205-1.586-2.283-1.591
	c-1.068-0.003-1.827,0.459-2.376,1.591C313.594,30.623,315.031,30.623,316.644,30.623z M285.2,35.166
	c0.369,0.3,0.623,0.441,0.788,0.651c1.056,1.341,0.939,2.877-0.386,3.922c-3.121,2.463-8.373,3.152-11.805,0.568
	c-1.704-1.282-2.796-2.951-3.183-5.006c-0.63-3.347-0.062-6.419,2.389-8.989c3.329-3.489,9.359-2.925,12.17,0.866
	c1.128,1.522,1.885,3.174,1.869,5.15C287.031,33.618,286.687,34.583,285.2,35.166z M276.513,35.137
	c0.767,1.148,1.163,1.402,2.223,1.496c1.682,0.146,3.087-0.47,4.464-1.496C280.892,35.137,278.733,35.137,276.513,35.137z
	 M276.382,30.638c1.603,0.097,3.079,0.16,4.718-0.038c-0.603-1.187-1.455-1.623-2.577-1.561
	C277.532,29.094,276.796,29.542,276.382,30.638z M218.19,24.533c-1.266,0.664-1.587,1.852-1.576,3.213
	c0.028,3.466,0.008,6.935,0.012,10.4c0,0.386-0.014,0.776,0.049,1.154c0.25,1.486,1.423,2.536,2.81,2.55
	c1.345,0.012,2.406-0.896,2.795-2.34c0.191-0.706,0.169-1.416,0.167-2.13c-0.003-2.037-0.02-4.072-0.013-6.107
	c0.002-0.733,0.131-1.425,0.834-1.863c1.385-0.864,3.096,0.091,3.059,1.666c-0.048,2.146-0.02,4.292-0.015,6.438
	c0,0.603-0.022,1.202,0.118,1.804c0.369,1.594,1.54,2.606,2.98,2.529c1.504-0.082,2.667-1.3,2.697-2.998
	c0.05-2.916,0.097-5.835-0.003-8.749c-0.112-3.221-2.283-5.611-5.324-5.976c-1.711-0.206-3.415-0.135-5.043,0.988
	C220.639,24.075,219.434,23.881,218.19,24.533z M199.438,31.222c0,1.375-0.034,2.75,0.008,4.125
	c0.082,2.676,1.412,4.545,3.783,5.723c0.903,0.448,1.89,0.627,2.86,0.713c4.37,0.387,9.033-1.452,8.854-7.575
	c-0.064-2.199-0.019-4.401-0.023-6.6c-0.001-0.55-0.011-1.089-0.208-1.623c-0.48-1.304-1.359-1.942-2.739-1.929
	c-1.34,0.012-2.246,0.713-2.656,2.026c-0.2,0.642-0.208,1.296-0.209,1.958c-0.001,2.255,0.023,4.511-0.032,6.766
	c-0.028,1.177-0.622,1.763-1.672,1.872c-1.156,0.119-1.896-0.381-2.161-1.537c-0.109-0.476-0.116-0.978-0.119-1.47
	c-0.014-2.255,0.021-4.512-0.023-6.766c-0.027-1.413-0.793-2.434-1.931-2.771c-1.869-0.553-3.593,0.625-3.711,2.634
	c-0.087,1.48-0.018,2.97-0.018,4.455C199.442,31.222,199.44,31.222,199.438,31.222z M328.87,24.944
	c-2.755-1.481-4.942-0.212-4.953,2.894c-0.012,2.744,0.002,5.488,0.008,8.233c0.003,1.099-0.017,2.196,0.03,3.293
	c0.053,1.229,0.74,2.044,1.869,2.45c1.144,0.409,2.271,0.027,3.08-0.958c0.51-0.622,0.709-1.33,0.702-2.134
	c-0.02-1.975,0.02-3.95-0.021-5.927c-0.022-1.122,0.413-1.9,1.436-2.345c0.65-0.282,1.313-0.537,1.962-0.823
	c1.401-0.619,1.875-1.597,1.574-3.209c-0.219-1.182-1.28-1.972-2.606-2.049c-0.982-0.057-1.806,0.328-2.598,0.801
	C329.158,25.08,329.01,25.019,328.87,24.944z"/>
<path fill-rule="evenodd" fill="#BBBBBB" d="M758.756,25.464c-1.484,0.617-2.533,1.675-3.23,3.062
	c-0.998,1.986-1.103,4.008,0.002,6.007c0.343,0.621,0.677,1.251,1.078,1.834c1.139,1.649,1.971,3.407,2.301,5.409
	c0.107,0.648,0.074,1.252,0.006,1.882c-0.294,2.669-1.81,4.452-4.15,5.556c-0.598,0.281-1.359,0.216-1.994,0.304
	c-0.455-0.673-0.455-0.673,0.052-1.314c1.03,0.427,1.896,0.022,2.739-0.626c-0.213-0.811-0.705-1.379-1.14-1.973
	c-2.281-3.106-4.973-5.867-7.44-8.817c-0.333-0.398-0.659-0.804-1.058-1.29c-0.559,0.838-1.068,1.608-1.584,2.375
	c-0.626,0.93-1.273,1.845-1.881,2.786c-0.616,0.954-0.978,1.919-0.772,3.153c0.218,1.313,0.086,2.684,0.107,4.029
	c0.008,0.562,0.039,1.123,0.016,1.683c-0.01,0.23-0.137,0.456-0.197,0.644c-0.494,0.058-0.658-0.184-0.715-0.498
	c-0.04-0.215-0.027-0.447,0.001-0.668c0.271-2.076,0.026-4.152-0.028-6.226c-0.057-2.111-0.287-4.218-0.396-6.328
	c-0.064-1.267-0.041-2.539-0.054-3.809c-0.005-0.403,0-0.806,0-1.483c-0.411,0.535-0.665,0.841-0.892,1.166
	c-0.832,1.195-1.642,2.408-2.489,3.592c-0.431,0.605-0.535,1.221-0.556,1.975c-0.036,1.329,0.366,2.545,0.65,3.79
	c0.264,1.155,0.2,2.302,0.139,3.456c-0.013,0.219-0.052,0.461-0.159,0.646c-0.719,1.241-0.566,2.584-0.496,3.921
	c0.014,0.257,0.027,0.515,0.047,0.867c-0.265,0.08-0.512,0.154-0.793,0.239c-0.418-0.888,0.029-1.73-0.22-2.568
	c-0.271,0.188-0.533,0.363-0.792,0.543c-1.87,1.309-3.878,1.354-5.967,0.654c-0.104-0.035-0.202-0.1-0.294-0.162
	c-1.72-1.158-3.265-2.453-3.9-4.555c-0.346-1.141-0.346-2.321-0.161-3.434c0.153-0.918,0.653-1.82,1.351-2.539
	c0.976-1.004,2.078-1.812,3.44-2.229c0.355-0.533-0.292-1.319,0.488-1.763c0.133,0.065,0.292,0.144,0.476,0.234
	c0.021,0.397,0.039,0.763,0.061,1.196c0.266,0,0.535,0,0.867,0c0-0.498,0-0.95,0-1.41c0.319-0.102,0.565-0.18,0.881-0.279
	c0,0.621,0,1.208,0,1.846c0.592,0.191,1.213,0.321,1.767,0.592c0.557,0.271,1.046,0.682,1.662,1.097
	c-0.058-0.318-0.034-0.601-0.155-0.79c-0.622-0.971-1.296-1.908-1.926-2.874c-1.138-1.746-2.248-3.51-3.389-5.254
	c-1.062-1.623-2.151-3.229-3.225-4.844c-1.095-1.648-2.206-3.285-3.266-4.955c-0.499-0.787-0.928-1.614-1.654-2.234
	c-0.128-0.11-0.169-0.323-0.274-0.538c0.157-0.185,0.314-0.369,0.468-0.55c0.165,0.069,0.307,0.083,0.358,0.158
	c0.403,0.583,0.79,1.176,1.177,1.769c1.648,2.533,3.292,5.068,4.945,7.599c0.856,1.309,1.728,2.608,2.592,3.912
	c0.638,0.963,1.262,1.938,1.918,2.888c0.635,0.92,1.292,1.824,1.962,2.719c0.218,0.291,0.509,0.527,0.854,0.879
	c1.27-1.585,2.247-3.254,3.396-4.794c1.159-1.554,2.263-3.15,3.375-4.737c1.091-1.558,2.2-3.104,3.23-4.701
	c1.04-1.611,2.012-3.267,3.163-4.803c0.617,0.438,0.684,0.784,0.304,1.321c-0.688,0.976-1.409,1.929-2.08,2.915
	c-1.679,2.466-3.334,4.948-5.007,7.417c-0.354,0.525-0.741,1.028-1.12,1.551c-0.133,3.353,0.011,6.702,0.418,10.139
	c0.275-0.335,0.521-0.61,0.74-0.906c0.223-0.3,0.419-0.619,0.624-0.932c1.837-2.812,3.723-5.594,5.498-8.445
	c1.6-2.569,3.453-4.958,5.115-7.476c1.474-2.231,3.018-4.438,4.017-6.877c0.444-0.356,0.74-0.246,1.02,0.23
	c-0.124,0.285-0.232,0.643-0.422,0.95c-1.43,2.315-2.848,4.64-4.326,6.923c-0.913,1.407-1.94,2.738-2.891,4.122
	c-1.161,1.692-2.297,3.402-3.44,5.107c-0.353,0.526-0.692,1.06-1.104,1.689c0.392,0.545,0.766,1.141,1.213,1.675
	c2.206,2.634,4.437,5.248,6.646,7.878c0.716,0.852,1.397,1.73,2.117,2.625c1.88-1.877,2.112-4.001,1.419-6.354
	c-0.453-1.54-1.47-2.757-2.227-4.122c-0.38-0.685-0.81-1.351-1.113-2.069c-0.638-1.511-0.734-3.028-0.228-4.652
	c0.646-2.073,1.959-3.567,3.643-4.799c0.528-0.387,1.162-0.629,1.522-0.82c0.899-1.33,1.601-2.439,2.612-3.361
	c1.613-1.471,3.512-2.505,5.296-3.71c1.233-0.832,2.701-1.057,4.127-1.307c1.611-0.283,3.242-0.444,4.87-0.66
	c1.634,0.524,3.27,1.015,4.881,1.576c1.661,0.58,3.004,1.661,4.117,2.99c0.764,0.911,1.398,1.93,2.085,2.905
	c0.107,0.152,0.183,0.325,0.273,0.487c0.084-0.041,0.169-0.083,0.255-0.124c0.024-0.267,0.111-0.545,0.064-0.799
	c-0.312-1.701-0.207-3.416-0.214-5.128c-0.002-0.373-0.007-0.745-0.006-1.118c0.003-0.383,0.026-0.76,0.358-0.916
	c1.456,0.385,2.854,0.751,4.249,1.127c0.25,0.068,0.51,0.143,0.726,0.276c1.17,0.723,2.328,1.466,3.541,2.233
	c0.189-0.699,0.134-1.4-0.122-2.079c-0.155-0.411-0.259-0.782,0.085-1.14c0.974-0.486,1.947-0.061,2.912,0.032
	c2.255,0.215,4.346,0.943,6.293,2.117c0.981,0.59,1.763,1.376,2.504,2.22c1.631,1.856,2.409,4.123,2.828,6.477
	c0.246,1.379,0.093,2.835,0.064,4.256c-0.035,1.771-0.537,3.432-1.123,5.101c-0.614,1.75-1.623,3.183-2.889,4.468
	c-2.1,2.131-4.621,3.486-7.575,4.04c-0.765,0.143-1.508,0.405-2.301,0.625c-0.021,0.235-0.072,0.454-0.052,0.665
	c0.062,0.627,0.157,1.252,0.229,1.878c0.064,0.552,0.133,1.105,0.17,1.66c0.028,0.43,0.179,0.916-0.421,1.202
	c-0.506-0.146-0.649-0.614-0.579-1.035c0.206-1.235-0.122-2.437-0.141-3.656c-0.025-1.742-0.032-3.5-0.271-5.221
	c-0.223-1.604-0.076-3.188-0.136-4.779c-0.001-0.031-0.043-0.061-0.125-0.168c-1.87,1.289-3.908,2.199-6.266,2.271
	c-0.245,0.871-0.396,1.697-0.38,2.545c0.041,2.146,0.102,4.293,0.159,6.439c0.035,1.292,0.078,2.584,0.119,3.952
	c-0.324,0-0.582,0-0.959,0c0-3.249,0-6.4,0-9.552c-0.067-0.021-0.137-0.044-0.203-0.066c-0.354,0.484-0.72,0.959-1.057,1.456
	c-1.094,1.611-2.364,3.073-3.771,4.415c-1.028,0.98-2.391,1.326-3.661,1.839c-0.93,0.375-1.854,0.764-2.787,1.129
	c-0.621,0.242-1.256,0.421-1.942,0.294c-0.286-0.053-0.585-0.057-0.877-0.051c-1.633,0.033-3.119-0.586-4.646-1.027
	c-3.043-0.878-5.497-2.676-7.515-5.041c-1.554-1.82-2.842-3.824-3.183-6.299c-0.179-1.289-0.586-2.55-0.714-3.842
	c-0.14-1.396-0.151-2.817-0.076-4.22C758.313,28.072,758.571,26.806,758.756,25.464z M758.994,31.318
	c-0.04,2.351,0.537,4.594,1.089,6.837c0.158,0.646,0.369,1.301,0.683,1.883c1.878,3.498,4.543,6.142,8.344,7.508
	c0.805,0.288,1.611,0.577,2.435,0.799c0.752,0.203,1.522,0.351,2.294,0.453c0.378,0.051,0.809-0.168,1.16-0.068
	c0.553,0.158,1.016,0.019,1.512-0.151c1.197-0.409,2.397-0.813,3.604-1.192c1.567-0.494,2.873-1.433,4.021-2.543
	c0.876-0.848,1.579-1.882,2.316-2.865c1.171-1.562,2.122-3.229,2.512-5.187c0.529-2.655,0.446-5.316,0.177-7.981
	c-0.07-0.699-0.204-1.417-0.459-2.067c-1.217-3.098-2.966-5.851-5.608-7.928c-0.778-0.61-1.727-1.016-2.628-1.449
	c-0.532-0.256-1.135-0.36-1.691-0.569c-1.051-0.394-2.142-0.709-3.249-0.69c-1.293,0.022-2.597,0.186-3.868,0.432
	c-1.126,0.219-2.263,0.525-3.31,0.988c-2.229,0.988-4.133,2.486-5.979,4.071c-1.712,1.47-2.428,3.482-2.992,5.508
	C758.983,28.439,759.098,29.909,758.994,31.318z M797.13,43.431c2.28-0.341,4.34-0.785,6.228-1.829
	c2.701-1.493,4.818-3.617,5.977-6.449c1.559-3.812,1.74-7.768,0.269-11.69c-0.794-2.116-2.161-3.812-4.04-5.085
	c-2.192-1.485-4.67-2.045-7.256-2.243c-0.264-0.021-0.538,0.113-0.815,0.177c0,0.82,0.011,1.527-0.003,2.233
	c-0.014,0.675,0.229,1.212,0.693,1.709c0.719,0.773,1.198,1.704,1.521,2.708c0.45,1.408,0.479,2.83,0.251,4.296
	c-0.313,2.011-0.753,3.949-2.041,5.597c-0.32,0.41-0.6,0.854-0.87,1.242C796.555,37.185,797.013,40.215,797.13,43.431z
	 M788.713,16.017c-0.101,0.337-0.178,0.474-0.175,0.61c0.024,1.191,0.029,2.385,0.108,3.573c0.103,1.559,0.27,3.113,0.429,4.891
	c0.208,0.659,0.593,1.526,0.745,2.433c0.32,1.903,0.509,3.824,0.308,5.766c-0.102,0.98-0.088,1.972-0.128,3.008
	c0.398-0.029,0.732-0.041,1.064-0.081c0.258-0.032,0.517-0.082,0.767-0.152c2.596-0.738,4.569-2.268,5.943-4.601
	c0.932-1.582,1.313-3.325,1.515-5.103c0.134-1.186,0.047-2.396-0.485-3.51c-1.371-2.868-3.669-4.757-6.545-5.938
	C791.177,16.47,789.974,16.326,788.713,16.017z M729.523,37.639c-0.808,0.096-0.808,0.096-1.65,0.643
	c-1.199,0.776-2.059,1.826-2.488,3.193c-0.762,2.43,0.828,6.057,3.918,7.136c1.944,0.679,3.754,0.357,5.388-0.839
	c0.885-0.646,1.552-1.518,1.747-2.634c0.373-2.136-0.064-4.118-1.281-5.911c-0.538-0.796-1.319-1.308-2.228-1.604
	c-0.216-0.07-0.474-0.011-0.747-0.011c0.127,0.744,0.276,1.417-0.53,1.803c-0.689-0.614-0.399-1.45-0.608-2.22
	c-0.257,0.066-0.482,0.126-0.648,0.17c-0.262,0.615,0.343,1.391-0.494,1.729C729.098,38.77,729.575,38.129,729.523,37.639z"/>
<path fill-rule="evenodd" fill="#BBBBBB" d="M709.804,50.706c-0.372-0.063-0.584-0.1-0.854-0.146
	c-0.046-0.26-0.186-0.537-0.117-0.75c0.662-2.087,0.136-4.193,0.118-6.287c-0.016-1.816-0.163-3.633-0.201-5.449
	c-0.036-1.74-0.068-3.478-0.292-5.208c-0.056-0.429,0.025-0.875,0.032-1.313c0.007-0.411,0-0.822-0.007-1.233
	c-0.042-3.211-0.097-6.422-0.121-9.634c-0.004-0.592,0.159-1.187,0.153-1.779c-0.009-0.924-0.097-1.848-0.161-2.942
	c0.104-0.12,0.316-0.364,0.472-0.543c1.073,0.181,2.039,0.354,3.01,0.504c0.689,0.108,1.386,0.185,2.078,0.279
	c0.369,0.05,0.745,0.189,1.103,0.15c1.217-0.131,2.367,0.231,3.521,0.467c0.63,0.129,1.236,0.513,1.782,0.885
	c1.648,1.126,2.462,2.822,3.119,4.641c0.78,2.162,0.64,4.307,0.151,6.496c-0.514,2.31-1.773,4.157-3.392,5.8
	c-0.702,0.713-1.451,1.379-2.179,2.066c0.181,1.258,5.097,9.074,7.646,12.129c-0.119,0.193-0.259,0.416-0.397,0.639
	c-0.201-0.09-0.339-0.107-0.396-0.184c-2.2-2.969-4.233-6.047-6.104-9.234c-0.584-0.995-1.19-1.979-2.071-2.754
	c-0.105-0.094-0.157-0.249-0.251-0.404c0.075-0.314,0.153-0.637,0.237-0.99c2.207-0.76,3.528-2.546,4.82-4.306
	c0.789-1.076,1.251-2.361,1.408-3.721c0.029-0.258,0.114-0.509,0.15-0.767c0.376-2.635-0.229-5.044-1.761-7.2
	c-1.171-1.647-2.922-2.228-4.844-2.425c-1.438-0.148-2.877-0.302-4.315-0.448c-0.328-0.034-0.659-0.046-0.988-0.074
	c-0.402-0.034-0.804-0.075-1.341-0.125c-0.477,0.12-0.519,0.646-0.538,1.119c-0.136,3.274-0.402,6.546-0.214,9.829
	c0.094,1.636,0.128,3.276,0.186,4.915c0.068,1.935,0.112,3.871,0.203,5.805c0.127,2.677,0.286,5.351,0.434,8.026
	c0.06,1.077,0.144,2.154,0.174,3.232C710.066,50.045,709.913,50.325,709.804,50.706z"/>
<path fill-rule="evenodd" fill="#BBBBBB" d="M39.397,39.851c0,0.715,0,1.429,0,2.156c-1.522,0-3.031,0-4.55,0
	c0-7.99,0-15.979,0-23.983c1.507,0,3.015,0,4.542,0c0,2.928,0,5.853,0,8.778c0.019,0.013,0.039,0.025,0.058,0.039
	c0.022-0.041,0.039-0.087,0.068-0.123c1.031-1.265,2.339-2.079,3.944-2.398c0.78-0.155,1.567-0.157,2.355-0.057
	c1.111,0.142,2.138,0.512,3.072,1.132c1.059,0.703,1.85,1.644,2.433,2.765c0.579,1.111,0.917,2.297,1.061,3.541
	c0.077,0.665,0.108,1.333,0.092,2.002c-0.039,1.625-0.336,3.192-1.067,4.66c-0.958,1.922-2.438,3.237-4.523,3.813
	c-1.511,0.418-3.023,0.412-4.506-0.154c-1.116-0.427-2.039-1.127-2.812-2.03c-0.045-0.053-0.091-0.104-0.137-0.156
	C39.417,39.84,39.408,39.846,39.397,39.851z M47.754,33.375c0.008-1.005-0.151-1.96-0.621-2.842
	c-0.701-1.315-1.781-2.093-3.277-2.247c-0.92-0.095-1.797,0.075-2.628,0.485c-0.667,0.33-1.258,0.755-1.716,1.351
	c-0.085,0.11-0.122,0.224-0.122,0.364c0.004,1.909,0.004,3.819,0,5.729c0,0.161,0.044,0.285,0.145,0.409
	c0.474,0.585,1.08,0.989,1.755,1.299c1.166,0.536,2.368,0.632,3.585,0.22c1.151-0.391,1.918-1.212,2.407-2.303
	C47.635,35.053,47.761,34.218,47.754,33.375z"/>
<path fill-rule="evenodd" fill="#BBBBBB" d="M112.666,34.783c-4.318,0-8.613,0-12.925,0c0.028,0.343,0.104,0.657,0.222,0.958
	c0.629,1.605,1.759,2.627,3.472,2.966c1.156,0.228,2.288,0.107,3.406-0.229c0.928-0.278,1.78-0.697,2.511-1.344
	c0.008-0.008,0.021-0.01,0.05-0.022c0.666,0.974,1.334,1.95,2.007,2.935c-0.305,0.291-0.632,0.535-0.975,0.759
	c-0.989,0.648-2.08,1.051-3.225,1.318c-1.156,0.271-2.33,0.38-3.516,0.324c-1.772-0.084-3.428-0.556-4.921-1.534
	c-1.708-1.119-2.816-2.688-3.417-4.626c-0.318-1.027-0.426-2.084-0.409-3.157c0.03-1.895,0.55-3.639,1.637-5.191
	c1.387-1.981,3.302-3.167,5.675-3.595c1.555-0.28,3.101-0.207,4.602,0.31c2.294,0.791,3.915,2.328,4.903,4.538
	c0.421,0.94,0.673,1.927,0.807,2.948C112.684,33.009,112.666,33.881,112.666,34.783z M108.251,31.677
	c-0.036-0.224-0.057-0.428-0.102-0.626c-0.337-1.507-1.243-2.509-2.699-3.01c-0.561-0.192-1.144-0.219-1.731-0.206
	c-1.008,0.022-1.902,0.349-2.653,1.025c-0.685,0.615-1.09,1.398-1.31,2.283c-0.042,0.172-0.066,0.348-0.101,0.533
	C102.527,31.677,105.369,31.677,108.251,31.677z"/>
<path fill-rule="evenodd" fill="#BBBBBB" d="M54.475,24.638c1.531,0,3.031,0,4.558,0c0,0.081,0,0.156,0,0.232
	c0,3.375-0.001,6.751,0.001,10.126c0,0.458,0.028,0.913,0.124,1.364c0.204,0.962,0.79,1.575,1.72,1.833
	c1.431,0.396,2.791,0.236,4.036-0.621c0.418-0.287,0.807-0.608,1.149-0.985c0.112-0.124,0.163-0.247,0.163-0.418
	c-0.005-3.755-0.004-7.51-0.004-11.266c0-0.083,0-0.166,0-0.26c1.523,0,3.027,0,4.547,0c0,5.783,0,11.571,0,17.368
	c-1.507,0-3.011,0-4.537,0c0-0.709,0-1.416,0-2.123c-0.014-0.007-0.028-0.015-0.042-0.022c-0.082,0.082-0.162,0.165-0.246,0.245
	c-0.837,0.81-1.799,1.43-2.881,1.857c-0.688,0.271-1.41,0.399-2.146,0.456c-0.584,0.046-1.168,0.047-1.75-0.008
	c-0.816-0.075-1.606-0.252-2.332-0.65c-1.099-0.604-1.746-1.559-2.099-2.734c-0.179-0.597-0.26-1.211-0.26-1.835
	c0-4.104,0-8.21,0-12.314C54.475,24.806,54.475,24.73,54.475,24.638z"/>
<path fill-rule="evenodd" fill="#BBBBBB" d="M91.295,42.015c-1.547,0-3.059,0-4.598,0c0-4.461,0-8.916,0-13.392
	c-0.97,0-1.914,0-2.874,0c0-1.335,0-2.65,0-3.986c0.946,0,1.896,0,2.869,0c0-0.084,0-0.148,0-0.213
	c0.004-0.452-0.012-0.905,0.016-1.355c0.074-1.196,0.396-2.312,1.134-3.279c0.792-1.037,1.834-1.701,3.104-1.974
	c1.577-0.338,3.127-0.202,4.631,0.379c0.546,0.211,1.017,0.547,1.423,0.969c0.029,0.03,0.054,0.063,0.087,0.103
	c-0.573,0.895-1.144,1.786-1.722,2.689c-0.252-0.238-0.525-0.423-0.84-0.538c-0.497-0.181-1.01-0.236-1.529-0.139
	c-0.872,0.165-1.465,0.769-1.631,1.648c-0.043,0.229-0.062,0.466-0.07,0.699c-0.012,0.325-0.003,0.65-0.003,1.001
	c1.173,0,2.343,0,3.523,0c0,1.336,0,2.646,0,3.982c-1.171,0-2.337,0-3.523,0C91.295,33.09,91.295,37.546,91.295,42.015z"/>
<path fill-rule="evenodd" fill="#BBBBBB" d="M79.529,24.63c1.163,0,2.329,0,3.505,0c0,1.329,0,2.641,0,3.984
	c-1.169,0.004-2.339-0.002-3.526,0.002c0,4.477,0,8.929,0,13.393c-1.533,0-3.05,0-4.59,0c0-4.451,0-8.907,0-13.386
	c-0.973,0-1.922,0-2.884,0c0-1.338,0-2.654,0-3.988c0.952,0,1.901,0,2.876,0c0-0.081,0-0.146,0-0.209
	c0.002-0.41-0.013-0.82,0.008-1.229c0.056-1.112,0.312-2.168,0.935-3.109c0.799-1.209,1.919-1.973,3.329-2.274
	c1.57-0.337,3.115-0.198,4.614,0.381c0.563,0.218,1.046,0.567,1.462,1.007c0.016,0.017,0.029,0.037,0.05,0.065
	c-0.571,0.892-1.142,1.783-1.705,2.662c-0.232-0.148-0.441-0.313-0.676-0.426c-0.596-0.286-1.229-0.352-1.866-0.187
	c-0.688,0.179-1.161,0.613-1.392,1.296C79.525,23.041,79.444,24.163,79.529,24.63z"/>
<path fill-rule="evenodd" fill="#BBBBBB" d="M12.272,28.938c-0.334-0.001-0.623-0.065-0.902-0.196
	c-2.515-1.178-5.033-2.351-7.549-3.526c-1.141-0.532-2.281-1.065-3.42-1.602C0.293,23.563,0.185,23.5,0.099,23.42
	c-0.133-0.124-0.132-0.271,0.001-0.396c0.086-0.08,0.193-0.144,0.3-0.194c0.872-0.411,1.746-0.817,2.619-1.225
	c2.489-1.163,4.978-2.326,7.466-3.489c0.289-0.135,0.58-0.268,0.868-0.404c0.593-0.28,1.185-0.281,1.778-0.004
	c2.238,1.046,4.476,2.092,6.713,3.137c1.408,0.658,2.817,1.314,4.224,1.975c0.113,0.053,0.228,0.116,0.319,0.198
	c0.141,0.127,0.139,0.28,0.001,0.41c-0.077,0.072-0.174,0.129-0.271,0.175c-0.719,0.34-1.44,0.675-2.161,1.012
	c-1.621,0.758-3.242,1.516-4.863,2.273c-1.354,0.632-2.707,1.264-4.062,1.896C12.784,28.899,12.517,28.937,12.272,28.938z"/>
<path fill-rule="evenodd" fill="#BBBBBB" d="M114.567,24.639c1.517,0,3.016,0,4.535,0c0,0.773,0,1.541,0,2.31
	c0.012,0.006,0.024,0.012,0.037,0.018c0.038-0.041,0.077-0.082,0.114-0.124c0.966-1.083,2.129-1.873,3.502-2.345
	c0.555-0.189,1.132-0.283,1.72-0.298c0.058-0.002,0.117,0.005,0.184,0.008c0,1.479,0,2.948,0,4.437
	c-0.157-0.019-0.303-0.037-0.45-0.052c-1.659-0.172-3.15,0.255-4.467,1.274c-0.193,0.149-0.349,0.348-0.52,0.524
	c-0.088,0.091-0.117,0.199-0.116,0.329c0.007,0.53,0.003,1.061,0.003,1.591c0,3.152,0,6.305,0,9.456c0,0.077,0,0.155,0,0.243
	c-1.519,0-3.023,0-4.542,0C114.567,36.226,114.567,30.439,114.567,24.639z"/>
<path fill-rule="evenodd" fill="#BBBBBB" d="M3.171,35.266c0.311,0.034,0.601,0.094,0.88,0.225c2.465,1.155,4.931,2.31,7.401,3.455
	c0.523,0.242,1.071,0.24,1.595-0.003c2.061-0.955,4.116-1.92,6.173-2.881c0.442-0.207,0.878-0.427,1.328-0.616
	c0.505-0.213,1.029-0.219,1.531,0.002c0.689,0.302,1.367,0.631,2.048,0.953c0.102,0.048,0.201,0.112,0.28,0.191
	c0.116,0.114,0.118,0.256,0,0.369c-0.089,0.085-0.2,0.155-0.312,0.208c-0.872,0.411-1.746,0.817-2.619,1.226
	c-2.488,1.162-4.977,2.325-7.465,3.488c-0.3,0.14-0.6,0.282-0.901,0.42c-0.577,0.263-1.155,0.265-1.729-0.004
	c-2.544-1.187-5.086-2.376-7.63-3.564c-1.102-0.515-2.205-1.028-3.307-1.546c-0.113-0.053-0.229-0.112-0.324-0.192
	c-0.157-0.134-0.154-0.295-0.005-0.438c0.051-0.049,0.114-0.09,0.178-0.12c0.719-0.34,1.434-0.688,2.162-1.007
	C2.676,35.335,2.932,35.319,3.171,35.266z"/>
<path fill-rule="evenodd" fill="#BBBBBB" d="M12.242,35.705c-0.321,0.021-0.618-0.064-0.907-0.2
	c-1.805-0.847-3.612-1.69-5.418-2.534c-1.85-0.864-3.701-1.728-5.55-2.594c-0.086-0.04-0.173-0.09-0.244-0.152
	c-0.159-0.139-0.159-0.309,0.001-0.45c0.066-0.059,0.147-0.106,0.228-0.145C1,29.324,1.649,29.021,2.299,28.718
	c0.581-0.27,1.164-0.275,1.746-0.005c1.829,0.853,3.657,1.707,5.485,2.562c0.633,0.295,1.264,0.596,1.9,0.884
	c0.539,0.244,1.091,0.25,1.628,0.002c1.771-0.819,3.538-1.648,5.306-2.475c0.71-0.331,1.417-0.668,2.129-0.991
	c0.539-0.245,1.09-0.248,1.629-0.006c0.687,0.309,1.367,0.632,2.047,0.954c0.09,0.043,0.176,0.107,0.245,0.18
	c0.106,0.112,0.105,0.246-0.003,0.356c-0.074,0.076-0.166,0.142-0.262,0.187c-2.471,1.157-4.944,2.311-7.417,3.465
	c-1.206,0.563-2.413,1.126-3.617,1.692C12.837,35.655,12.549,35.723,12.242,35.705z"/>
<g>
</g>
<g>
</g>
<g>
</g>
<g>
</g>
<g>
</g>
<g>
</g>
<g>
</g>
<g>
</g>
<g>
</g>
<g>
</g>
<g>
</g>
<g>
</g>
<g>
</g>
<g>
</g>
<g>
</g>
</svg>
