<?xml version="1.0" standalone="no"?>
<!DOCTYPE svg PUBLIC "-//W3C//DTD SVG 1.1//EN" "http://www.w3.org/Graphics/SVG/1.1/DTD/svg11.dtd" >
<svg version="1.1" xmlns="http://www.w3.org/2000/svg">
<metadata>
Created by FontForge 20120731 at Fri Aug  1 16:50:28 2014
 By Alfred Xing
Libre Baskerville is webfont optimized for web body text (typically 16px). It's based on 1941 ATF Specimens, but it has a taller x height, wider counters and minor contrast that allow it to work on small sizes in any screen.
</metadata>
<defs>
<font id="librebaskerville" horiz-adv-x="670" >
  <font-face 
    font-family="Libre Baskerville"
    font-weight="400"
    font-stretch="normal"
    units-per-em="1000"
    panose-1="2 0 0 0 0 0 0 0 0 0"
    ascent="800"
    descent="-200"
    x-height="530"
    cap-height="770"
    bbox="-280 -260 1606 970"
    underline-thickness="50"
    underline-position="-50"
    stemh="38"
    stemv="105"
    unicode-range="U+000D-FB06"
  />
<missing-glyph horiz-adv-x="756" 
d="M130 -260v1230h496v-1230h-496zM240 911v-1110h275v1110h-275z" />
    <glyph glyph-name="f_f" unicode="ff" horiz-adv-x="729" 
d="M226 467v-306c0 -99 18 -124 94 -126v-35h-264v35c67 4 76 17 76 118v314h-113v47h113v32c2 153 84 244 233 244c56 0 100 -22 123 -43c38 44 107 83 199 83c82 0 140 -28 140 -68c0 -27 -19 -47 -44 -47c-16 0 -32 9 -61 33c-33 28 -47 34 -72 34c-40 0 -69 -21 -86 -61
c-12 -26 -16 -62 -16 -129v-78h161v-47h-161v-306c0 -99 18 -124 94 -126v-35h-264v35c67 4 76 17 76 118v314h-228zM226 514h228v156c-17 11 -35 26 -50 39c-33 28 -51 33 -76 33c-40 0 -69 -21 -86 -61c-12 -26 -16 -62 -16 -129v-38z" />
    <glyph glyph-name="f_i" unicode="fi" horiz-adv-x="651" 
d="M547 540v-378c0 -104 12 -125 73 -125v-37h-257v37c74 0 86 23 86 117v126c0 77 -3 128 -7 146c-7 32 -24 41 -91 41h-125v-306c0 -99 16 -126 84 -126v-35h-254v35c67 0 76 17 76 118v314h-113v47h113v72c0 153 93 244 253 244c94 0 160 -26 160 -63
c0 -27 -19 -47 -44 -47c-16 0 -34 9 -65 30c-41 28 -54 32 -88 32c-83 0 -122 -36 -122 -190v-78h160z" />
    <glyph glyph-name="f_l" unicode="fl" horiz-adv-x="678" 
d="M562 830v-674c0 -101 13 -121 89 -121v-35h-266v35c71 0 84 22 84 114v562l-22 19c-47 41 -74 52 -110 52c-73 0 -108 -34 -108 -190v-78h161v-47h-161v-306c0 -99 20 -126 94 -126v-35h-274v35c74 0 86 17 86 118v314h-113v47h113v72c0 153 85 244 232 244
c46 0 84 -9 109 -23z" />
    <glyph glyph-name="f_f_i" unicode="ffi" horiz-adv-x="973" 
d="M869 540v-378c0 -104 12 -125 73 -125v-37h-257v37c73 0 86 23 86 117v126c0 77 -3 128 -7 146c-7 32 -24 41 -91 41h-125v-321c0 -87 21 -111 94 -111v-35h-264v35c62 0 76 19 76 118v314h-228v-306c0 -99 18 -126 94 -126v-35h-264v35c69 0 76 17 76 118v314h-113v47
h113v32c0 153 85 244 233 244c54 0 94 -18 131 -52c43 56 111 92 211 92c94 0 160 -26 160 -63c0 -27 -19 -47 -44 -47c-16 0 -34 9 -65 30c-41 28 -54 32 -88 32c-83 0 -122 -35 -122 -190v-78h160zM226 514h228v156c-17 12 -35 26 -50 39c-33 28 -51 33 -76 33
c-65 0 -102 -39 -102 -190v-38z" />
    <glyph glyph-name="f_f_l" unicode="ffl" horiz-adv-x="997" 
d="M881 830v-674c0 -101 12 -118 89 -121v-35h-266v35c71 4 84 22 84 114v562l-22 19c-47 41 -74 52 -110 52c-49 0 -75 -21 -92 -61c-11 -26 -16 -53 -16 -129v-78h161v-47h-161v-306c0 -99 18 -124 94 -126v-35h-274v35c76 4 86 17 86 118v314h-228v-306
c0 -99 18 -124 94 -126v-35h-264v35c67 4 76 17 76 118v314h-113v47h113v32c2 153 84 244 233 244c56 0 102 -20 129 -51c42 59 102 91 192 91c46 0 84 -9 109 -23zM226 514h228v156c-17 11 -35 26 -50 39c-33 28 -51 33 -76 33c-40 0 -69 -21 -86 -61
c-12 -26 -16 -62 -16 -129v-38z" />
    <glyph glyph-name="f_b" unicode="fb" horiz-adv-x="1032" 
d="M565 830v-371h4c43 56 93 81 160 81c144 0 255 -120 255 -275c0 -157 -112 -276 -258 -276c-75 0 -146 30 -188 78l-47 -67h-22v711l-22 19c-47 41 -74 52 -110 52c-73 0 -108 -34 -108 -190v-78h161v-47h-161v-306c0 -99 18 -126 94 -126v-35h-274v35c77 0 86 17 86 118
v314h-113v47h113v72c0 153 85 244 232 244c46 0 84 -9 109 -23zM567 298v-89c0 -100 62 -172 148 -172c93 0 156 90 156 225c0 136 -66 231 -160 231c-91 0 -144 -65 -144 -195z" />
    <glyph glyph-name="f_h" unicode="fh" horiz-adv-x="1047" 
d="M567 287v-128c0 -110 7 -124 82 -124v-35h-266v35c76 0 86 16 86 117v559l-22 19c-47 41 -74 52 -110 52c-73 0 -108 -34 -108 -190v-78h161v-47h-161v-306c0 -99 19 -126 94 -126v-35h-274v35c76 0 86 17 86 118v314h-113v47h113v72c0 153 85 244 232 244
c46 0 84 -9 109 -23l86 23l-3 -4l6 4v-381h4c41 53 123 91 196 91c61 0 116 -23 144 -59c23 -30 33 -77 33 -162v-160c0 -109 6 -124 82 -124v-35h-265v35c76 0 84 16 84 117v126c0 150 -31 207 -113 207c-62 0 -117 -34 -146 -90c-14 -28 -17 -47 -17 -108z" />
    <glyph glyph-name="f_f_b" unicode="ffb" horiz-adv-x="1350" 
d="M883 830v-371h4c43 56 93 81 160 81c144 0 255 -120 255 -275c0 -157 -112 -276 -258 -276c-75 0 -146 30 -188 78l-47 -67h-22v712l-21 18c-47 41 -74 52 -110 52c-73 0 -108 -34 -108 -190v-78h161v-47h-161v-306c0 -99 18 -124 94 -126v-35h-274v35c76 0 86 17 86 118
v314h-228v-306c0 -99 18 -126 94 -126v-35h-264v35c67 0 76 17 76 118v314h-113v47h113v32c0 153 85 244 233 244c56 0 102 -20 129 -51c42 59 102 91 192 91c46 0 84 -9 109 -23zM885 298v-89c0 -100 62 -172 148 -172c93 0 156 90 156 225c0 136 -66 231 -160 231
c-91 0 -144 -65 -144 -195zM226 514h228v156c-17 11 -35 26 -50 39c-33 28 -51 33 -76 33c-65 0 -102 -39 -102 -190v-38z" />
    <glyph glyph-name="f_f_h" unicode="ffh" horiz-adv-x="1366" 
d="M886 287v-128c0 -110 6 -119 82 -124v-35h-266v35c77 5 86 16 86 117v559l-22 19c-47 41 -74 52 -110 52c-49 0 -75 -21 -92 -61c-11 -26 -16 -53 -16 -129v-78h161v-47h-161v-306c0 -99 18 -124 94 -126v-35h-274v35c76 4 86 17 86 118v314h-228v-306
c0 -99 18 -124 94 -126v-35h-264v35c67 4 76 17 76 118v314h-113v47h113v32c2 153 84 244 233 244c56 0 102 -20 129 -51c42 59 102 91 192 91c46 0 84 -9 109 -23l86 23l-3 -4l6 4v-381h4c41 53 123 91 196 91c61 0 116 -23 144 -59c23 -30 33 -77 33 -162v-160
c0 -109 6 -119 82 -124v-35h-265v35c76 4 84 16 84 117v126c0 150 -31 207 -113 207c-62 0 -117 -34 -146 -90c-14 -28 -17 -47 -17 -108zM226 514h228v156c-17 11 -35 26 -50 39c-33 28 -51 33 -76 33c-40 0 -69 -21 -86 -61c-12 -26 -16 -62 -16 -129v-38z" />
    <glyph glyph-name="f_j" unicode="fj" horiz-adv-x="638" 
d="M547 540v-542c0 -166 -73 -258 -205 -258c-85 0 -145 38 -145 93c0 30 19 47 51 47c24 0 32 -7 52 -47c19 -40 30 -50 63 -50c64 0 86 38 86 149v348c0 77 -3 129 -7 147c-7 31 -24 40 -91 40h-125v-306c0 -99 17 -126 84 -126v-35h-254v35c67 0 76 17 76 118v314h-113
v47h113v72c0 153 93 244 253 244c94 0 160 -26 160 -63c0 -27 -19 -47 -44 -47c-16 0 -34 9 -65 30c-41 28 -54 32 -88 32c-83 0 -122 -36 -122 -190v-79h160z" />
    <glyph glyph-name="f_f_j" unicode="ffj" horiz-adv-x="960" 
d="M869 540v-542c0 -166 -73 -258 -205 -258c-85 0 -145 38 -145 93c0 30 19 47 51 47c24 0 36 -14 52 -47c19 -40 30 -50 63 -50c64 0 86 38 86 149v348c0 77 -3 129 -7 147c-7 31 -24 40 -91 40h-125v-321c0 -87 22 -111 94 -111v-35h-264v35c62 0 76 19 76 118v314h-228
v-306c0 -99 19 -126 94 -126v-35h-264v35c66 0 76 17 76 118v314h-113v47h113v32c0 153 85 244 233 244c54 0 94 -18 131 -52c43 56 111 92 211 92c94 0 160 -26 160 -63c0 -27 -19 -47 -44 -47c-16 0 -34 9 -65 30c-41 28 -54 32 -88 32c-83 0 -122 -35 -122 -190v-79h160z
M226 514h228v156c-17 11 -35 26 -50 39c-33 28 -51 33 -76 33c-65 0 -102 -39 -102 -190v-38z" />
    <glyph glyph-name="f_k" unicode="fk" horiz-adv-x="971" 
d="M703 0v35c47 0 56 3 56 13c0 9 -7 22 -53 77l-106 128l-37 -35v-59c0 -103 13 -124 93 -124v-35h-284v35c80 0 96 22 96 117v560l-21 18c-46 39 -69 52 -112 52c-71 0 -106 -35 -106 -190v-78h161v-47h-161v-306c0 -99 19 -126 94 -126v-35h-274v35c76 0 86 17 86 118
v314h-113v47h113v72c0 153 85 244 232 244c46 0 84 -9 109 -23l87 23v-549l93 91c77 75 87 89 87 101c0 16 -18 22 -79 22v35h260v-35c-50 0 -69 -10 -118 -53l-144 -128l198 -224c38 -44 60 -55 106 -55v-35h-263z" />
    <glyph glyph-name="f_f_k" unicode="ffk" horiz-adv-x="1291" 
d="M1023 0v35c49 0 58 4 58 11c0 8 -9 24 -55 79l-106 128l-37 -35v-59c0 -103 14 -124 93 -124v-35h-284v35c80 0 96 22 96 117v559l-22 19c-47 41 -74 52 -110 52c-73 0 -108 -34 -108 -190v-78h161v-47h-161v-306c0 -99 19 -126 94 -126v-35h-274v35c76 0 86 17 86 118
v314h-228v-306c0 -99 19 -126 94 -126v-35h-264v35c67 0 76 17 76 118v314h-113v47h113v32c0 153 85 244 233 244c56 0 102 -20 129 -51c42 59 102 91 192 91c46 0 84 -9 109 -23l88 23v-549l93 91c82 80 89 91 89 103c0 10 -24 20 -81 20v35h260v-35
c-49 0 -69 -10 -118 -53l-144 -128l198 -224c37 -43 63 -55 106 -55v-35h-263zM226 514h228v156c-17 11 -35 26 -50 39c-33 28 -51 33 -76 33c-65 0 -102 -39 -102 -190v-38z" />
    <glyph glyph-name="f_t" unicode="ft" horiz-adv-x="762" 
d="M484 467h-255v-306c0 -99 20 -126 104 -126v-35h-284v35c77 0 86 17 86 118v314h-113v47h113v72c0 153 85 244 233 244c82 0 140 -28 140 -68c0 -27 -19 -47 -44 -47c-16 0 -33 9 -61 33c-33 28 -47 34 -72 34c-65 0 -102 -39 -102 -190v-78h175c57 0 126 62 149 126h29
v-126h134v-47h-134v-304c0 -94 16 -124 69 -124c33 0 55 13 77 46l25 -19c-19 -49 -66 -76 -134 -76c-88 0 -135 44 -135 122v355z" />
    <glyph glyph-name="f_f_t" unicode="fft" horiz-adv-x="1057" 
d="M779 467h-231v-306c0 -99 18 -124 94 -126v-35h-264v35c67 4 76 17 76 118v314h-228v-306c0 -99 18 -124 94 -126v-35h-264v35c67 4 76 17 76 118v314h-113v47h113v32c2 153 84 244 233 244c56 0 100 -22 123 -43c38 44 107 83 199 83c82 0 140 -28 140 -68
c0 -27 -19 -47 -44 -47c-16 0 -32 9 -61 33c-33 28 -47 34 -72 34c-40 0 -69 -21 -86 -61c-12 -26 -16 -62 -16 -129v-78h151c57 0 126 62 149 126h29v-126h134v-47h-134v-304c0 -94 16 -124 69 -124c33 0 55 13 77 46l25 -19c-19 -49 -66 -76 -134 -76
c-88 0 -135 44 -135 122v355zM226 514h228v156c-17 11 -35 26 -50 39c-33 28 -51 33 -76 33c-40 0 -69 -21 -86 -61c-12 -26 -16 -62 -16 -129v-38z" />
    <glyph glyph-name=".notdef" horiz-adv-x="756" 
d="M130 -260v1230h496v-1230h-496zM240 911v-1110h275v1110h-275z" />
    <glyph glyph-name="NULL" horiz-adv-x="0" 
 />
    <glyph glyph-name="NULL" horiz-adv-x="0" 
 />
    <glyph glyph-name="CR" unicode="&#xd;" horiz-adv-x="333" 
 />
    <glyph glyph-name="space" unicode=" " horiz-adv-x="287" 
 />
    <glyph glyph-name="exclam" unicode="!" horiz-adv-x="308" 
d="M89 55c0 37 29 66 65 66c37 0 66 -29 66 -66c0 -36 -29 -65 -66 -65c-36 0 -65 29 -65 65zM178 207h-48c0 214 -9 285 -26 377c-14 76 -15 90 -15 130c0 36 25 66 65 66s65 -30 65 -66c0 -37 0 -54 -15 -134c-16 -88 -26 -160 -26 -373z" />
    <glyph glyph-name="quotedbl" unicode="&#x22;" horiz-adv-x="367" 
d="M122 564h-29c-10 76 -33 185 -33 217c0 28 20 49 47 49s47 -21 47 -50c0 -33 -22 -140 -32 -216zM274 564h-29c-10 76 -33 185 -33 217c0 28 20 49 47 49s47 -21 47 -50c0 -33 -22 -140 -32 -216z" />
    <glyph glyph-name="numbersign" unicode="#" horiz-adv-x="666" 
d="M598 305l-8 -50h-139l-37 -255h-59l35 255h-151l-38 -255h-60l38 255h-140l8 50h142l24 170h-143l8 50h144l35 245h60l-35 -245h151l34 245h60l-34 -245h134l-8 -50h-135l-23 -170h137zM423 475h-150l-24 -170h151z" />
    <glyph glyph-name="dollar" unicode="$" horiz-adv-x="622" 
d="M288 900h55v-122c113 -11 208 -80 208 -154c0 -34 -20 -54 -52 -54c-88 0 -20 146 -156 161v-276c175 -76 235 -140 235 -238c0 -126 -96 -213 -235 -225v-162h-55v161c-133 6 -250 76 -250 177c0 45 24 62 49 62c51 0 58 -71 67 -104c11 -42 42 -82 134 -85v300
c-102 42 -206 91 -206 227c0 120 82 203 206 211v121zM474 169c0 78 -59 116 -131 148v-274c87 11 131 58 131 126zM176 618c0 -55 34 -100 112 -139v251c-69 -10 -112 -51 -112 -112z" />
    <glyph glyph-name="percent" unicode="%" horiz-adv-x="671" 
d="M636 770l-544 -770h-57l553 770h48zM200 780c65 0 118 -70 118 -160c0 -87 -53 -156 -118 -156s-118 69 -118 156c0 90 53 160 118 160zM200 489c38 0 61 29 61 129c0 105 -22 137 -61 137s-61 -32 -61 -137c0 -100 22 -129 61 -129zM471 306c65 0 118 -70 118 -160
c0 -87 -53 -156 -118 -156s-118 69 -118 156c0 90 53 160 118 160zM471 15c38 0 61 29 61 129c0 105 -22 137 -61 137s-61 -32 -61 -137c0 -100 22 -129 61 -129z" />
    <glyph glyph-name="ampersand" unicode="&#x26;" horiz-adv-x="878" 
d="M347 458c63 49 92 99 92 159c0 62 -30 102 -77 102c-43 0 -66 -35 -66 -101c0 -58 18 -113 51 -160zM465 133l-175 231c-84 -48 -133 -116 -133 -185c0 -73 53 -126 127 -126c55 0 124 30 181 80zM375 420l162 -211c65 79 111 158 111 193c0 21 -18 30 -61 30v35h230v-35
c-58 0 -80 -11 -108 -53l-142 -208c56 -76 118 -116 178 -116c35 0 51 12 73 57l25 -7c-14 -74 -67 -115 -148 -115c-66 0 -116 28 -199 110c-66 -69 -159 -110 -249 -110c-122 0 -211 75 -211 177c0 90 69 164 227 241c-43 62 -61 114 -61 174c0 117 71 198 174 198
c91 0 156 -62 156 -149c0 -74 -46 -135 -157 -211z" />
    <glyph glyph-name="quotesingle" unicode="'" horiz-adv-x="215" 
d="M122 564h-29c-10 76 -33 185 -33 217c0 28 20 49 47 49s47 -21 47 -50c0 -33 -22 -140 -32 -216z" />
    <glyph glyph-name="parenleft" unicode="(" horiz-adv-x="332" 
d="M281 831l31 -28c-131 -177 -165 -282 -165 -463c0 -220 50 -369 173 -506l-31 -28c-159 155 -242 333 -242 517c0 180 80 354 234 508z" />
    <glyph glyph-name="parenright" unicode=")" horiz-adv-x="332" 
d="M20 803l31 28c154 -154 234 -328 234 -508c0 -184 -83 -362 -242 -517l-31 28c123 137 173 286 173 506c0 181 -34 286 -165 463z" />
    <glyph glyph-name="asterisk" unicode="*" horiz-adv-x="516" 
d="M272 539c0 -82 29 -122 29 -145c0 -24 -20 -45 -44 -45c-28 0 -46 22 -46 49c0 19 29 55 31 141c-109 -61 -86 -104 -133 -104c-25 0 -46 21 -46 46c0 62 74 33 164 84c-81 45 -113 30 -138 45c-16 9 -24 24 -24 40c0 27 23 45 47 45c35 0 58 -63 131 -104
c0 40 -6 76 -17 102c-7 11 -13 30 -13 41c0 26 19 46 45 46s46 -20 46 -46c0 -11 -7 -28 -13 -41c-13 -28 -17 -60 -18 -102c97 57 87 104 131 104c25 0 47 -20 47 -45c0 -64 -54 -23 -162 -85c99 -58 164 -18 164 -85c0 -27 -23 -44 -47 -44c-16 0 -31 6 -51 38
c-12 19 -43 45 -83 65z" />
    <glyph glyph-name="plus" unicode="+" horiz-adv-x="550" 
d="M301 104h-52v209h-208v50h208v209h52v-209h208v-50h-208v-209z" />
    <glyph glyph-name="comma" unicode="," horiz-adv-x="273" 
d="M72 -175l-23 32c71 50 100 94 100 151c-8 -5 -19 -8 -30 -8c-30 0 -52 24 -52 59c0 37 27 62 67 62c47 0 72 -35 72 -100c0 -74 -34 -124 -134 -196z" />
    <glyph glyph-name="hyphen" unicode="-" horiz-adv-x="463" 
d="M386 248h-309v83h309v-83z" />
    <glyph glyph-name="period" unicode="." horiz-adv-x="265" 
d="M67 55c0 37 29 66 65 66c37 0 66 -29 66 -66c0 -36 -29 -65 -66 -65c-36 0 -65 29 -65 65z" />
    <glyph glyph-name="slash" unicode="/" horiz-adv-x="460" 
d="M431 770l-344 -770h-58l353 770h49z" />
    <glyph glyph-name="zero" unicode="0" horiz-adv-x="714" 
d="M357 780c163 0 296 -175 296 -401c0 -217 -133 -389 -296 -389s-296 172 -296 389c0 226 133 401 296 401zM357 38c103 0 166 78 166 338c0 271 -62 356 -166 356s-166 -85 -166 -356c0 -260 62 -338 166 -338z" />
    <glyph glyph-name="one" unicode="1" horiz-adv-x="446" 
d="M276 780v-618c0 -103 14 -121 104 -124v-38h-306v38c89 4 104 23 104 117v367c0 77 0 130 -4 146c-7 29 -39 32 -105 32v38c65 3 142 19 207 42z" />
    <glyph glyph-name="two" unicode="2" horiz-adv-x="616" 
d="M195 103l1 -5h199c64 0 93 21 121 115h37l-38 -213h-465v33c305 272 377 393 377 533c0 103 -53 168 -136 168c-79 0 -135 -58 -135 -140c0 -72 43 -118 110 -118c-6 -32 -37 -53 -78 -53c-74 0 -129 63 -129 150c0 119 106 208 248 208c141 0 240 -90 240 -217
c0 -165 -158 -317 -352 -461z" />
    <glyph glyph-name="three" unicode="3" horiz-adv-x="616" 
d="M429 214c0 110 -47 174 -128 174c-20 -10 -47 -18 -67 -18c-27 0 -46 14 -46 34c0 18 17 28 44 28c17 0 41 -4 61 -11c71 0 119 70 119 176c0 95 -38 140 -118 140c-70 0 -114 -34 -114 -90c0 -45 29 -76 72 -76c-6 -22 -35 -38 -70 -38c-58 0 -102 46 -102 106
c0 85 86 141 214 141c144 0 238 -71 238 -178c0 -90 -67 -164 -150 -185v-6c100 -26 173 -103 173 -204c0 -124 -111 -217 -265 -217c-138 0 -239 75 -239 177c0 72 50 127 115 127c37 0 70 -19 77 -44c-50 0 -86 -41 -86 -98c0 -68 53 -115 131 -115c91 0 141 63 141 177z
" />
    <glyph glyph-name="four" unicode="4" horiz-adv-x="585" 
d="M18 179v50l352 551h31v-553c83 3 93 14 93 91h35v-223h-35c0 73 -10 86 -93 88v-21c0 -103 13 -124 79 -124v-38h-281v38c88 0 104 23 104 117v24h-285zM303 229v356h-5l-230 -356h235z" />
    <glyph glyph-name="five" unicode="5" horiz-adv-x="568" 
d="M245 661l-47 -179l2 -3c20 15 63 26 102 26c118 0 207 -100 207 -231c0 -159 -128 -284 -293 -284c-113 0 -194 58 -194 138c0 36 17 57 48 57c83 0 24 -151 149 -151c104 0 166 104 166 263c0 113 -29 165 -102 165c-55 0 -90 -29 -112 -95c-8 -24 -13 -28 -24 -28
c-13 0 -22 8 -22 20c0 2 0 5 1 8l107 413c29 -12 65 -18 117 -18c61 0 108 7 133 19l6 -1c-16 -76 -73 -119 -156 -119h-88z" />
    <glyph glyph-name="six" unicode="6" horiz-adv-x="643" 
d="M586 259c0 -150 -118 -269 -265 -269c-153 0 -260 143 -260 347c0 243 143 443 317 443c96 0 173 -45 173 -102c0 -32 -21 -52 -54 -52c-78 0 -46 109 -148 109c-92 0 -161 -135 -161 -315l3 -2c43 62 91 90 158 90c135 0 237 -107 237 -249zM186 332v-49
c0 -164 48 -248 139 -248c92 0 136 70 136 220c0 133 -44 204 -126 204c-61 0 -105 -38 -149 -127z" />
    <glyph glyph-name="seven" unicode="7" horiz-adv-x="502" 
d="M281 410l136 261h-186c-104 0 -118 -8 -146 -82l-15 -39h-38l70 280h40c-2 -6 -4 -22 -4 -31c0 -23 15 -29 76 -29h293v-20c-133 -299 -161 -368 -254 -614c-45 -119 -70 -146 -104 -146c-24 0 -43 22 -43 41c0 34 10 61 175 379z" />
    <glyph glyph-name="eight" unicode="8" horiz-adv-x="606" 
d="M329 331l-60 34c-75 -42 -115 -106 -115 -182c0 -90 58 -147 150 -147c91 0 150 56 150 143c0 60 -32 98 -125 152zM385 433c106 -56 160 -130 160 -221c0 -126 -106 -222 -245 -222c-136 0 -241 83 -241 190c0 83 56 152 168 206c-95 51 -141 114 -141 194
c0 54 23 105 64 144c40 37 90 56 150 56c51 0 100 -15 140 -42c49 -34 76 -82 76 -135c0 -67 -40 -126 -131 -170zM296 479l47 -25c57 38 90 90 90 144c0 78 -59 137 -138 137c-74 0 -123 -47 -123 -116c0 -53 36 -93 124 -140z" />
    <glyph glyph-name="nine" unicode="9" horiz-adv-x="643" 
d="M57 511c0 150 118 269 265 269c153 0 260 -143 260 -347c0 -243 -143 -443 -317 -443c-96 0 -173 45 -173 102c0 32 21 52 54 52c78 0 46 -109 148 -109c92 0 161 135 161 315l-3 2c-43 -62 -91 -90 -158 -90c-135 0 -237 107 -237 249zM457 438v49
c0 164 -48 248 -139 248c-92 0 -136 -70 -136 -220c0 -133 44 -204 126 -204c61 0 105 38 149 127z" />
    <glyph glyph-name="colon" unicode=":" horiz-adv-x="285" 
d="M77 55c0 37 29 66 65 66c37 0 66 -29 66 -66c0 -36 -29 -65 -66 -65c-36 0 -65 29 -65 65zM77 381c0 37 29 66 65 66c37 0 66 -29 66 -66c0 -36 -29 -65 -66 -65c-36 0 -65 29 -65 65z" />
    <glyph glyph-name="semicolon" unicode=";" horiz-adv-x="311" 
d="M89 381c0 37 29 66 65 66c37 0 66 -29 66 -66c0 -36 -29 -65 -66 -65c-36 0 -65 29 -65 65zM94 -175l-23 32c71 50 100 94 100 151c-8 -5 -19 -8 -30 -8c-30 0 -52 24 -52 59c0 37 27 62 67 62c47 0 72 -35 72 -100c0 -74 -34 -124 -134 -196z" />
    <glyph glyph-name="less" unicode="&#x3c;" horiz-adv-x="581" 
d="M84 336l413 -210v-54l-458 232v64l458 232v-56z" />
    <glyph glyph-name="equal" unicode="=" horiz-adv-x="620" 
d="M537 472v-50h-454v50h454zM537 302v-50h-454v50h454z" />
    <glyph glyph-name="greater" unicode="&#x3e;" horiz-adv-x="581" 
d="M84 126l413 210l-413 208v56l458 -232v-64l-458 -232v54z" />
    <glyph glyph-name="question" unicode="?" horiz-adv-x="399" 
d="M180 237h-55v229h29c86 0 130 34 130 99c0 64 -39 116 -87 116c-24 0 -53 -11 -75 -11c-31 0 -53 22 -53 54c0 37 22 56 62 56c110 0 210 -119 210 -250c0 -101 -59 -160 -161 -160v-133zM84 55c0 37 29 66 65 66c37 0 66 -29 66 -66c0 -36 -29 -65 -66 -65
c-36 0 -65 29 -65 65z" />
    <glyph glyph-name="at" unicode="@" horiz-adv-x="1029" 
d="M671 441l22 89h96l-67 -237c-15 -53 -26 -106 -26 -126c0 -25 17 -40 44 -40c88 0 181 150 181 293c0 181 -148 315 -350 315c-241 0 -428 -190 -428 -436c0 -229 164 -385 407 -385c112 0 217 33 314 100l21 -31c-117 -81 -223 -117 -348 -117c-284 0 -485 180 -485 434
c0 270 225 480 513 480c239 0 401 -145 401 -358c0 -183 -119 -345 -254 -345c-65 0 -99 39 -105 115h-4c-41 -69 -108 -115 -169 -115c-86 0 -150 72 -150 171c0 146 133 292 266 292c62 0 98 -31 117 -98zM558 498c-88 0 -176 -136 -176 -271c0 -69 23 -105 67 -105
c86 0 185 145 185 272c0 65 -28 104 -76 104z" />
    <glyph glyph-name="A" unicode="A" horiz-adv-x="772" 
d="M529 171l-41 108h-267c-46 -110 -62 -165 -62 -192c0 -37 23 -49 78 -49v-38h-243v38c61 7 86 24 109 81l260 651h43l227 -564c61 -150 83 -167 152 -167v-39h-326v39c71 0 93 12 93 43c0 26 -5 43 -23 89zM358 624l-117 -295h228z" />
    <glyph glyph-name="B" unicode="B" horiz-adv-x="767" 
d="M398 0h-360v38c103 3 120 20 120 114v466c0 93 -14 110 -100 114v38h299c179 0 285 -68 285 -183c0 -87 -54 -141 -173 -177v-4c82 -9 118 -20 159 -48c58 -41 89 -96 89 -158c0 -70 -42 -135 -112 -170c-45 -23 -91 -30 -207 -30zM401 43c121 0 181 51 181 155
c0 75 -31 128 -93 158c-42 20 -73 24 -181 24h-45v-223c0 -81 40 -114 138 -114zM263 430h56c83 0 105 4 138 24c42 26 59 61 59 121c0 105 -50 148 -159 148h-77c-11 0 -17 -7 -17 -17v-276z" />
    <glyph glyph-name="C" unicode="C" horiz-adv-x="802" 
d="M671 708l18 62h28l9 -230h-37c-29 116 -119 188 -237 188c-162 0 -258 -132 -258 -350c0 -214 93 -334 261 -334c127 0 212 70 248 205h41v-249h-35l-23 79c-71 -60 -155 -89 -254 -89c-226 0 -372 149 -372 382c0 242 156 408 383 408c80 0 146 -21 228 -72z" />
    <glyph glyph-name="D" unicode="D" horiz-adv-x="884" 
d="M429 0h-391v38c102 3 120 19 120 114v466c0 93 -14 110 -100 114v38h351c241 0 416 -168 416 -398c0 -219 -163 -372 -396 -372zM407 721h-127c-11 0 -17 -7 -17 -17v-541c0 -77 48 -114 149 -114c181 0 283 111 283 321c0 221 -110 351 -288 351z" />
    <glyph glyph-name="E" unicode="E" horiz-adv-x="726" 
d="M260 710v-287c144 0 189 34 189 115h35v-273h-35c0 80 -39 117 -189 118v-226c0 -87 40 -114 166 -114c141 0 191 36 217 154h38l-15 -197h-621v38c94 3 110 20 110 114v466c0 93 -14 110 -100 114v38h578l9 -176h-35c-16 106 -67 133 -203 133h-127
c-11 0 -17 -7 -17 -17z" />
    <glyph glyph-name="F" unicode="F" 
d="M260 363v-204c0 -102 18 -118 139 -121v-38h-354v38c94 3 110 20 110 114v466c0 93 -14 110 -100 114v38h578l11 -191h-35c-17 114 -62 143 -205 143h-127c-11 0 -17 -7 -17 -17v-302c129 0 180 24 189 125h35v-293h-35c-14 102 -53 127 -189 128z" />
    <glyph glyph-name="G" unicode="G" horiz-adv-x="870" 
d="M428 -10c-226 0 -368 149 -368 382c0 242 156 408 383 408c80 0 146 -21 228 -72l21 62h35l-13 -230h-48c0 130 -106 188 -214 188c-162 0 -258 -132 -258 -350c0 -214 93 -334 261 -334c129 0 204 67 204 141c0 78 -29 99 -100 99v38h284v-38c-65 0 -82 -20 -82 -89
v-112c-51 0 -77 -6 -153 -49c-46 -26 -109 -44 -180 -44z" />
    <glyph glyph-name="H" unicode="H" horiz-adv-x="925" 
d="M770 611v-452c0 -102 15 -118 109 -121v-38h-324v38c94 3 110 20 110 114v217h-405v-210c0 -102 15 -118 109 -121v-38h-324v38c94 3 110 20 110 114v466c0 93 -14 110 -100 114v38h304v-38c-86 -3 -99 -20 -99 -121v-192h405v199c0 93 -14 110 -100 114v38h304v-38
c-86 -3 -99 -20 -99 -121z" />
    <glyph glyph-name="I" unicode="I" horiz-adv-x="415" 
d="M260 581v-392c0 -132 15 -148 109 -151v-38h-324v38c94 3 110 20 110 144v406c0 113 -14 140 -100 144v38h304v-38c-86 -3 -99 -30 -99 -151z" />
    <glyph glyph-name="J" unicode="J" horiz-adv-x="394" 
d="M145 -43v661c0 93 -14 110 -100 114v38h304v-38c-86 -3 -99 -20 -99 -121v-613c0 -167 -73 -258 -208 -258c-91 0 -152 39 -152 97c0 34 19 53 51 53c25 0 37 -10 57 -47c23 -43 36 -55 62 -55c54 0 85 62 85 169z" />
    <glyph glyph-name="K" unicode="K" horiz-adv-x="779" 
d="M260 285v-126c0 -102 17 -121 109 -121v-38h-324v38c93 0 110 20 110 114v466c0 102 -21 114 -100 114v38h304v-38c-80 0 -99 -15 -99 -121v-247l250 301c13 16 20 29 20 39c0 18 -19 28 -57 28v38h241v-37c-53 0 -76 -10 -132 -75l-188 -217l292 -351
c33 -39 57 -52 106 -52v-38h-307v38c52 0 73 8 73 27c0 11 -10 31 -34 60l-195 240z" />
    <glyph glyph-name="L" unicode="L" horiz-adv-x="727" 
d="M706 197l-15 -197h-646v38c94 3 110 20 110 114v466c0 93 -14 110 -100 114v38h304v-38c-86 -3 -99 -20 -99 -121v-431c0 -112 40 -135 178 -135c153 0 201 28 230 152h38z" />
    <glyph glyph-name="M" unicode="M" horiz-adv-x="1090" 
d="M546 179h4l260 591h224v-38c-86 -3 -99 -30 -99 -151v-392c0 -132 15 -148 109 -151v-38h-324v38c94 3 110 20 110 144v464h-10l-292 -656h-22l-287 656h-4v-457c0 -132 15 -148 109 -151v-38h-279v38c94 3 110 20 110 144v406c0 113 -14 140 -100 144v38h239z" />
    <glyph glyph-name="N" unicode="N" horiz-adv-x="902" 
d="M754 -10h-60l-475 626h-4v-427c0 -132 14 -148 99 -151v-38h-269v38c94 3 110 20 110 144v406c0 113 -14 140 -100 144v38h198l437 -583h4v394c0 132 -14 148 -99 151v38h269v-38c-94 -3 -110 -20 -110 -144v-598z" />
    <glyph glyph-name="O" unicode="O" horiz-adv-x="946" 
d="M473 780c234 0 416 -175 416 -401c0 -217 -184 -389 -416 -389s-416 172 -416 389c0 226 182 401 416 401zM473 45c175 0 286 128 286 331c0 214 -110 349 -286 349s-286 -135 -286 -349c0 -203 110 -331 286 -331z" />
    <glyph glyph-name="P" unicode="P" horiz-adv-x="687" 
d="M658 577c0 -140 -85 -227 -308 -227h-90v-193c0 -99 17 -119 138 -119v-38h-353v38c94 3 110 20 110 114v466c0 93 -14 110 -100 114v38h314c183 0 289 -72 289 -193zM260 706v-306h71c132 0 197 48 197 165c0 112 -50 158 -159 158h-92c-11 0 -17 -7 -17 -17z" />
    <glyph glyph-name="Q" unicode="Q" horiz-adv-x="948" 
d="M474 780c234 0 416 -175 416 -402c0 -125 -56 -231 -141 -305c-55 -48 -127 -78 -203 -106c-36 -14 -71 -30 -99 -51v-4c8 1 24 2 35 2c119 0 203 -75 312 -75c62 0 90 24 110 89h25c2 -12 4 -28 4 -42c0 -84 -76 -146 -175 -146c-148 0 -251 137 -352 137
c-69 0 -79 -65 -124 -65c-18 0 -29 10 -29 25c0 18 6 25 66 60l130 74c-225 7 -391 185 -391 405c0 230 182 404 416 404zM474 20c175 0 286 138 286 356c0 214 -110 349 -286 349s-286 -135 -286 -349c0 -218 110 -356 286 -356z" />
    <glyph glyph-name="R" unicode="R" horiz-adv-x="788" 
d="M658 577c0 -106 -61 -180 -201 -204l221 -266c36 -44 78 -60 137 -69v-38h-193l-245 314c-35 46 -55 51 -117 51v-208c0 -99 17 -119 138 -119v-38h-353v38c94 3 110 20 110 114v466c0 93 -14 110 -100 114v38h314c183 0 289 -72 289 -193zM260 706v-291h71
c132 0 197 46 197 157c0 107 -50 151 -159 151h-92c-11 0 -17 -7 -17 -17z" />
    <glyph glyph-name="S" unicode="S" horiz-adv-x="645" 
d="M73 11l-15 224h37c19 -121 107 -194 227 -194c98 0 160 51 160 130c0 68 -40 107 -175 166c-166 73 -217 128 -217 231c0 124 93 212 224 212c58 0 107 -18 159 -59l26 45h23l11 -199h-37c-32 109 -94 162 -179 162c-81 0 -133 -44 -133 -111c0 -63 39 -101 153 -152
c198 -89 254 -144 254 -249c0 -134 -111 -227 -272 -227c-76 0 -133 20 -195 70l-28 -49h-23z" />
    <glyph glyph-name="T" unicode="T" horiz-adv-x="803" 
d="M776 770l10 -191h-41c-9 116 -55 148 -171 148c-99 0 -113 -8 -113 -31v-535c0 -86 16 -119 129 -123v-38h-378v38c113 4 130 37 130 123v535c0 23 -13 31 -98 31c-104 0 -182 -6 -186 -148h-37v191h755z" />
    <glyph glyph-name="U" unicode="U" horiz-adv-x="861" 
d="M722 512v-202c0 -211 -79 -320 -288 -320c-197 0 -294 73 -294 283v264c0 99 -1 148 -24 173c-16 17 -42 22 -87 22v38h341v-38c-45 0 -72 -3 -88 -24c-18 -24 -22 -73 -22 -171v-272c0 -136 53 -213 202 -213c133 0 200 76 200 219v241c0 119 -7 175 -33 200
c-18 17 -46 20 -87 20v38h290v-38c-42 0 -69 -4 -85 -27c-20 -28 -25 -83 -25 -193z" />
    <glyph glyph-name="V" unicode="V" horiz-adv-x="784" 
d="M246 603l178 -450l176 434c20 49 27 74 27 96c0 36 -19 49 -78 49v38h243v-38c-61 -7 -86 -25 -109 -81l-271 -661h-35l-258 623c-34 81 -62 114 -132 118v39h326v-39c-74 0 -91 -14 -91 -42c0 -19 6 -40 24 -86z" />
    <glyph glyph-name="W" unicode="W" horiz-adv-x="1176" 
d="M700 600l134 -449l156 434c19 52 26 79 26 102c0 34 -20 45 -75 45v38h243v-38c-61 0 -88 -24 -109 -81l-251 -661h-35l-192 569l-213 -569h-35l-208 574c-47 129 -71 167 -152 167v39h326v-39c-68 0 -92 -10 -92 -44c0 -17 6 -40 16 -70l152 -463l123 346
c18 52 38 97 49 133c-36 77 -61 98 -99 98v39h306v-39c-77 0 -91 -10 -91 -40c0 -20 8 -47 21 -91z" />
    <glyph glyph-name="X" unicode="X" horiz-adv-x="818" 
d="M465 421l230 -312c34 -46 77 -71 127 -71v-38h-341v38c59 0 78 12 78 32c0 19 -6 34 -51 102l-114 170l-86 -108c-83 -105 -109 -145 -109 -170c0 -20 19 -26 81 -26v-38h-278v38c64 0 101 23 163 101l196 250l-203 277c-33 46 -73 66 -130 66v38h332v-38
c-44 0 -65 -12 -65 -39c0 -17 9 -38 28 -66l109 -162l98 124c37 47 50 72 50 99c0 33 -19 44 -75 44v38h275v-38c-65 0 -83 -12 -156 -106z" />
    <glyph glyph-name="Y" unicode="Y" horiz-adv-x="733" 
d="M314 304l-200 342c-41 69 -64 86 -119 86v38h315v-38c-66 0 -91 -9 -91 -34c0 -13 7 -33 23 -60l155 -265h4l113 190c42 71 59 110 59 135s-17 34 -65 34v38h229v-38c-56 0 -82 -26 -164 -164l-154 -260v-119c0 -130 13 -151 109 -151v-38h-324v38c95 0 110 22 110 144
v122z" />
    <glyph glyph-name="Z" unicode="Z" horiz-adv-x="770" 
d="M722 235l-12 -235h-694v4l526 724h-274c-94 0 -137 -38 -155 -142h-37l15 184h609v-4l-521 -720h310c137 0 166 33 190 189h43z" />
    <glyph glyph-name="bracketleft" unicode="[" horiz-adv-x="371" 
d="M348 773h-151v-876h151v-47h-241v970h241v-47z" />
    <glyph glyph-name="backslash" unicode="\" horiz-adv-x="460" 
d="M373 0l-344 770h49l353 -770h-58z" />
    <glyph glyph-name="bracketright" unicode="]" horiz-adv-x="371" 
d="M23 -103h151v876h-151v47h241v-970h-241v47z" />
    <glyph glyph-name="asciicircum" unicode="^" horiz-adv-x="480" 
d="M195 409h90l119 -179h-45l-119 118l-119 -118h-45z" />
    <glyph glyph-name="underscore" unicode="_" horiz-adv-x="722" 
d="M646 -143h-570v68h570v-68z" />
    <glyph glyph-name="grave" unicode="`" horiz-adv-x="275" 
d="M255 651h-47l-137 65c-32 15 -51 31 -51 52c0 22 15 35 38 35c21 0 42 -10 67 -33z" />
    <glyph glyph-name="a" unicode="a" horiz-adv-x="554" 
d="M349 217v79c-153 -58 -205 -111 -205 -170c0 -44 32 -75 80 -75c69 0 125 75 125 166zM205 276l144 63v41c0 83 -33 122 -104 122c-46 0 -59 -13 -76 -65c-15 -38 -26 -48 -52 -48c-32 0 -50 18 -50 50c0 64 71 101 196 101c134 0 184 -42 184 -156v-224
c0 -77 15 -114 45 -114c18 0 37 2 49 22l14 -24c-16 -31 -64 -54 -111 -54c-58 0 -87 39 -87 107h-5c-35 -65 -100 -106 -174 -106c-83 0 -135 47 -135 118c0 64 41 115 162 167z" />
    <glyph glyph-name="b" unicode="b" horiz-adv-x="654" 
d="M189 298v-89c0 -100 62 -172 148 -172c93 0 156 90 156 225c0 136 -66 231 -160 231c-54 0 -99 -28 -122 -74c-14 -28 -22 -69 -22 -121zM187 830v-371h4c43 56 93 81 160 81c144 0 255 -120 255 -275c0 -157 -112 -276 -258 -276c-75 0 -146 30 -188 78l-47 -67h-22v604
c0 67 -5 112 -13 129c-9 19 -16 23 -79 32v25z" />
    <glyph glyph-name="c" unicode="c" horiz-adv-x="536" 
d="M476 112l30 -29c-48 -58 -128 -93 -216 -93c-142 0 -241 109 -241 271c0 170 112 279 278 279c103 0 176 -36 176 -88c0 -26 -19 -42 -49 -42c-24 0 -36 7 -61 41c-26 31 -47 42 -86 42c-94 0 -144 -75 -144 -217c0 -152 56 -234 159 -234c55 0 104 21 154 70z" />
    <glyph glyph-name="d" unicode="d" horiz-adv-x="675" 
d="M484 -10v94h-4c-48 -67 -99 -94 -172 -94c-151 0 -260 115 -260 276c0 158 110 274 260 274c63 0 112 -21 158 -67v102c0 75 -2 129 -6 147c-7 29 -34 40 -103 40v30l205 38v-577c0 -92 1 -152 7 -177c8 -32 19 -41 81 -41v-34zM464 239v66c0 70 -6 99 -27 126
c-30 40 -83 61 -129 61c-95 0 -147 -86 -147 -221c0 -141 51 -233 147 -233c47 0 104 23 130 63c19 29 26 66 26 138z" />
    <glyph glyph-name="e" unicode="e" horiz-adv-x="573" 
d="M491 121l31 -28c-58 -70 -126 -103 -211 -103c-156 0 -262 109 -262 269c0 164 113 281 274 281c128 0 203 -73 203 -203c0 -18 -4 -20 -31 -20h-329c-3 -11 -4 -27 -4 -45c0 -139 70 -230 177 -230c55 0 102 24 152 79zM173 363h184c54 0 60 4 60 28
c0 61 -43 101 -110 101c-71 0 -117 -44 -134 -129z" />
    <glyph glyph-name="f" unicode="f" horiz-adv-x="412" 
d="M22 467v47h113v72c0 153 84 244 233 244c82 0 140 -28 140 -68c0 -27 -19 -47 -44 -47c-16 0 -32 9 -61 33c-33 28 -47 34 -72 34c-40 0 -69 -21 -86 -61c-12 -26 -16 -62 -16 -129v-78h161v-47h-161v-306c0 -99 20 -124 104 -126v-35h-284v35c76 4 86 17 86 118v314
h-113z" />
    <glyph glyph-name="g" unicode="g" horiz-adv-x="599" 
d="M274 215c56 0 89 54 89 145c0 90 -33 143 -90 143s-94 -55 -94 -142c0 -88 38 -146 95 -146zM219 98c64 -5 104 -10 165 -19c96 -14 159 -78 159 -167c0 -111 -92 -172 -259 -172c-149 0 -252 57 -252 140c0 56 40 100 89 100c23 0 43 -7 61 -21c-36 -8 -61 -43 -61 -83
c0 -58 61 -92 167 -92c114 0 171 35 171 105c0 53 -42 91 -91 98c-63 9 -143 18 -179 22c-74 8 -114 41 -114 96c0 47 43 87 102 96v4c-59 24 -103 90 -103 159c0 101 83 176 197 176c58 0 113 -19 150 -53c45 37 79 53 109 53c48 0 79 -24 79 -61c0 -22 -17 -37 -40 -37
c-37 0 -42 31 -75 31c-16 0 -33 -6 -49 -17c17 -26 24 -54 24 -93c0 -112 -72 -180 -212 -190c-81 -6 -109 -14 -109 -42c0 -21 25 -30 71 -33z" />
    <glyph glyph-name="h" unicode="h" horiz-adv-x="688" 
d="M208 287v-128c0 -110 6 -119 82 -124v-35h-266v35c77 5 86 16 86 117v419c0 78 -2 123 -7 147c-6 32 -21 40 -81 40v34l184 38v-381h4c41 53 123 91 196 91c61 0 116 -23 144 -59c23 -30 33 -77 33 -162v-160c0 -109 6 -119 82 -124v-35h-265v35c76 4 84 16 84 117v126
c0 150 -31 207 -113 207c-62 0 -117 -34 -146 -90c-14 -28 -17 -47 -17 -108z" />
    <glyph glyph-name="i" unicode="i" horiz-adv-x="341" 
d="M228 540v-381c0 -103 14 -121 93 -124v-35h-287v35c81 4 96 23 96 117v128c0 77 -2 129 -7 147c-6 31 -25 40 -91 40v35zM113 743c0 35 27 62 62 62s62 -27 62 -62s-27 -62 -62 -62s-62 27 -62 62z" />
    <glyph glyph-name="j" unicode="j" horiz-adv-x="304" 
d="M213 540v-542c0 -166 -73 -258 -205 -258c-85 0 -145 38 -145 93c0 30 19 47 51 47c24 0 32 -7 52 -47c19 -40 30 -50 63 -50c64 0 86 38 86 149v348c0 77 -2 129 -7 147c-6 31 -25 40 -91 40v35zM100 743c0 35 27 62 62 62s62 -27 62 -62s-27 -62 -62 -62s-62 27 -62 62
z" />
    <glyph glyph-name="k" unicode="k" horiz-adv-x="616" 
d="M348 0v35c44 0 58 4 58 11c-1 10 -23 40 -55 79l-106 128l-37 -35v-59c0 -103 13 -121 93 -124v-35h-284v35c80 3 96 22 96 117v419c0 101 0 150 -12 168c-12 19 -39 19 -86 19v34l193 38v-549l93 91c60 59 89 85 89 99s-29 24 -81 24v35h260v-35c-50 0 -69 -10 -118 -53
l-144 -128l198 -224c38 -44 55 -55 106 -55v-35h-263z" />
    <glyph glyph-name="l" unicode="l" horiz-adv-x="325" 
d="M209 830v-674c0 -101 12 -118 89 -121v-35h-276v35c79 4 94 22 94 114v431c0 72 -2 123 -6 140c-7 31 -26 39 -90 39v34z" />
    <glyph glyph-name="m" unicode="m" horiz-adv-x="1073" 
d="M221 287v-127c0 -111 6 -120 82 -125v-35h-266v35c77 5 86 16 86 117v128c0 76 -2 129 -7 147c-7 34 -20 40 -81 40v35l163 38l13 -100h5c60 68 124 100 204 100c84 0 144 -36 166 -99h4c49 62 124 99 203 99c62 0 117 -22 144 -58c24 -31 33 -76 33 -163v-159
c0 -110 7 -120 83 -125v-35h-266v35c76 4 85 17 85 117v126c0 153 -31 207 -117 207c-58 0 -114 -36 -143 -90c-14 -27 -17 -45 -17 -108v-127c0 -110 6 -120 84 -125v-35h-266v35c76 5 84 16 84 117v126c0 155 -29 207 -115 207c-59 0 -117 -36 -144 -90
c-14 -27 -17 -45 -17 -108z" />
    <glyph glyph-name="n" unicode="n" horiz-adv-x="689" 
d="M216 291v-134c0 -108 6 -118 83 -123v-34h-262v34c74 5 84 16 84 116v133c0 78 -2 128 -6 145c-8 36 -22 42 -80 42v32l160 38l12 -99h4c50 62 121 99 200 99c61 0 115 -22 142 -56c23 -31 31 -75 31 -160v-167c0 -108 8 -118 81 -123v-34h-259v34c75 4 83 17 83 116v132
c0 151 -31 204 -114 204c-59 0 -113 -34 -141 -88c-14 -27 -18 -44 -18 -107z" />
    <glyph glyph-name="o" unicode="o" horiz-adv-x="654" 
d="M325 540c152 0 281 -114 281 -271c0 -162 -129 -279 -281 -279c-150 0 -277 116 -277 279c0 158 127 271 277 271zM325 492c-99 0 -164 -90 -164 -224c0 -138 64 -227 164 -227c102 0 168 90 168 227c0 133 -67 224 -168 224z" />
    <glyph glyph-name="p" unicode="p" horiz-adv-x="679" 
d="M210 536v-78h4c42 51 90 82 155 82c151 0 261 -116 261 -276c0 -163 -113 -274 -262 -274c-61 0 -110 19 -154 66v-146c0 -106 15 -122 114 -125v-35h-308v35c80 3 96 22 96 118v374c0 77 -2 128 -7 146c-6 32 -25 41 -91 41v34zM240 429c-17 -27 -26 -61 -26 -119v-78
c0 -72 6 -99 27 -126c31 -42 76 -67 122 -67c91 0 154 82 154 221c0 138 -64 232 -160 232c-48 0 -91 -23 -117 -63z" />
    <glyph glyph-name="q" unicode="q" horiz-adv-x="653" 
d="M464 232v88c0 99 -63 171 -147 171c-95 0 -156 -89 -156 -226c0 -139 61 -227 157 -227c54 0 101 27 124 73c14 28 22 69 22 121zM467 -97v169h-4c-47 -58 -93 -82 -163 -82c-148 0 -252 110 -252 268c0 157 115 282 258 282c71 0 143 -32 187 -81l44 69h25v-618
c0 -111 8 -122 103 -125v-35h-305v35c85 2 107 27 107 118z" />
    <glyph glyph-name="r" unicode="r" horiz-adv-x="477" 
d="M222 193v-34c0 -110 6 -119 82 -124v-35h-266v35c77 4 86 16 86 117v117c0 182 -2 187 -88 187v35l175 38l14 -124h4c36 80 106 135 174 135c43 0 69 -22 69 -57c0 -32 -21 -51 -58 -51c-42 0 -55 25 -79 25c-36 0 -76 -52 -96 -122c-11 -38 -17 -89 -17 -142z" />
    <glyph glyph-name="s" unicode="s" horiz-adv-x="454" 
d="M106 35l-20 -35h-22v172h25c26 -95 72 -141 142 -141c53 0 87 26 87 79c0 39 -18 51 -116 112c-90 57 -135 89 -135 164c0 91 65 154 149 154c36 0 78 -12 107 -31l20 21h19v-144h-26c-29 81 -61 113 -112 113c-45 0 -75 -25 -75 -68c0 -44 30 -65 98 -107
c115 -72 160 -106 160 -182c0 -94 -68 -152 -167 -152c-52 0 -98 16 -134 45z" />
    <glyph glyph-name="t" unicode="t" horiz-adv-x="378" 
d="M100 467h-60v37c71 42 108 79 129 136h29v-126h134v-47h-134v-304c0 -94 16 -124 69 -124c33 0 55 13 77 46l25 -19c-19 -49 -66 -76 -134 -76c-88 0 -135 44 -135 122v355z" />
    <glyph glyph-name="u" unicode="u" 
d="M463 272v98c0 109 -6 117 -83 125v35h181v-307c0 -76 2 -123 6 -147c6 -34 20 -40 81 -40v-35l-165 -12l-11 120h-4c-51 -82 -119 -119 -191 -119c-56 0 -114 23 -141 59c-22 29 -32 80 -32 162v159c0 109 -6 118 -83 125v35h181v-273c0 -144 33 -207 107 -207
c57 0 104 38 137 115c13 31 17 50 17 107z" />
    <glyph glyph-name="v" unicode="v" horiz-adv-x="610" 
d="M273 -11l-169 417c-32 81 -47 87 -99 89v35h265v-35c-53 -2 -67 -3 -67 -35c0 -22 7 -42 14 -62l106 -290h4l91 215c28 66 39 103 39 133s-11 39 -64 39v35h199v-35c-21 0 -39 -12 -52 -28c-21 -29 -47 -106 -62 -139l-147 -339h-58z" />
    <glyph glyph-name="w" unicode="w" horiz-adv-x="852" 
d="M425 359l-147 -369h-37l-130 416c-23 74 -41 89 -99 89v35h265v-35c-52 0 -71 -11 -71 -40c0 -13 4 -31 11 -57l68 -239h4l147 371h31l133 -371h4l60 162c33 89 41 115 41 138c0 29 -13 36 -67 36v35h200v-35c-39 0 -53 -18 -95 -122l-155 -383h-37l-122 369h-4z" />
    <glyph glyph-name="x" unicode="x" horiz-adv-x="609" 
d="M324 324l68 88c16 20 24 38 24 51c0 21 -21 32 -59 32v35h219v-35c-48 0 -74 -18 -122 -80l-103 -131l133 -175c41 -54 74 -74 114 -74v-35h-266v35c48 0 64 6 64 27c0 9 -11 26 -37 60l-70 90l-85 -108c-10 -12 -15 -25 -15 -36c0 -19 15 -33 50 -33v-35h-229v35
c62 0 90 18 149 91l102 125l-133 189c-30 43 -52 55 -90 55v35h246v-35c-36 0 -51 -9 -51 -24c0 -11 7 -25 19 -42z" />
    <glyph glyph-name="y" unicode="y" horiz-adv-x="639" 
d="M499 328l-218 -485c-30 -67 -80 -103 -143 -103c-42 0 -63 15 -63 47c0 33 19 46 82 56c55 9 78 26 103 76l35 70l-192 417c-34 74 -46 85 -99 89v35h265v-35c-46 0 -67 -10 -67 -33c0 -17 12 -59 28 -98l110 -266h5l91 225c36 87 42 106 42 128c0 35 -15 44 -70 44v35
h220v-35c-50 0 -64 -18 -129 -167z" />
    <glyph glyph-name="z" unicode="z" horiz-adv-x="557" 
d="M515 155l-17 -155h-480v4l346 484h-111c-114 0 -142 -14 -156 -96h-32l16 138h430v-4l-341 -480h117c137 0 171 17 195 109h33z" />
    <glyph glyph-name="braceleft" unicode="{" horiz-adv-x="335" 
d="M208 198v-198c0 -72 18 -109 86 -128v-22c-134 0 -176 33 -176 154v196c0 60 -21 124 -89 130v25c75 15 89 53 89 129v175c0 127 30 171 172 171v-23c-62 -16 -82 -56 -82 -127v-179c0 -82 -13 -138 -98 -156v-5c81 -14 98 -62 98 -142z" />
    <glyph glyph-name="bar" unicode="|" horiz-adv-x="290" 
d="M105 820h80v-1070h-80v1070z" />
    <glyph glyph-name="braceright" unicode="}" horiz-adv-x="335" 
d="M127 0v198c0 80 17 128 98 142v5c-85 18 -98 74 -98 156v179c0 71 -20 111 -82 127v23c142 0 172 -44 172 -171v-175c0 -76 14 -114 89 -129v-25c-68 -6 -89 -70 -89 -130v-196c0 -121 -42 -154 -176 -154v22c68 19 86 56 86 128z" />
    <glyph glyph-name="asciitilde" unicode="~" horiz-adv-x="553" 
d="M118 249h-34c12 70 54 114 110 114c57 0 135 -46 197 -46c25 0 36 10 46 42h33c-10 -70 -51 -118 -103 -118c-57 0 -139 48 -204 48c-25 0 -36 -10 -45 -40z" />
    <glyph glyph-name="uni00A0" unicode="&#xa0;" horiz-adv-x="287" 
 />
    <glyph glyph-name="exclamdown" unicode="&#xa1;" horiz-adv-x="308" 
d="M89 715c0 36 29 65 65 65c37 0 66 -29 66 -65c0 -37 -29 -66 -66 -66c-36 0 -65 29 -65 66zM130 563h48c0 -213 10 -285 26 -373c15 -80 15 -97 15 -134c0 -36 -25 -66 -65 -66s-65 30 -65 66c0 40 1 54 15 130c17 92 26 163 26 377z" />
    <glyph glyph-name="cent" unicode="&#xa2;" horiz-adv-x="555" 
d="M288 683h50v-143c99 -2 169 -37 169 -88c0 -26 -19 -42 -49 -42c-24 0 -36 7 -61 41c-20 23 -36 35 -59 40v-449c50 3 95 24 142 70l30 -29c-40 -48 -102 -81 -172 -90v-140h-50v137c-139 3 -235 111 -235 271c0 155 93 259 235 276v146zM167 276
c0 -132 42 -211 121 -230v445c-79 -11 -121 -85 -121 -215z" />
    <glyph glyph-name="sterling" unicode="&#xa3;" horiz-adv-x="680" 
d="M235 83c-33 16 -62 26 -88 26s-44 -12 -44 -32c0 -22 19 -32 50 -32c33 0 61 13 82 38zM288 534l26 -103h217v-61h-204c11 -40 14 -64 14 -100c0 -66 -11 -116 -34 -159c47 -12 120 -22 169 -22c65 0 111 21 148 69l10 -4c0 -115 -58 -164 -146 -164
c-55 0 -101 14 -208 69c-26 -40 -89 -70 -146 -70c-58 0 -95 32 -95 82c0 55 44 94 104 94c33 0 70 -10 106 -31c4 15 6 44 6 60c0 40 -17 112 -41 176h-139v61h120c-16 54 -23 97 -23 135c0 132 92 214 235 214c110 0 192 -49 192 -115c0 -30 -16 -46 -44 -46
c-73 0 -37 113 -158 113c-75 0 -122 -43 -122 -111c0 -22 5 -57 13 -87z" />
    <glyph glyph-name="currency" unicode="&#xa4;" horiz-adv-x="613" 
d="M65 57l71 71c-30 37 -47 83 -47 135s16 98 47 136l-72 72l35 35l72 -72c37 30 83 47 135 47s97 -17 135 -47l72 72l35 -35l-72 -72c31 -38 48 -84 48 -136s-17 -98 -47 -135l71 -71l-35 -35l-71 71c-38 -31 -84 -47 -136 -47c-53 0 -99 17 -136 48l-71 -71zM139 263
c0 -92 75 -167 167 -167s168 75 168 167s-76 168 -168 168s-167 -76 -167 -168z" />
    <glyph glyph-name="yen" unicode="&#xa5;" horiz-adv-x="802" 
d="M626 235v-60h-172c1 -117 16 -137 109 -137v-38h-324v38c94 0 109 21 110 137h-177v60h177v69h-177v60h142l-165 282c-41 69 -64 86 -119 86v38h315v-38c-76 0 -91 -9 -91 -34c0 -13 7 -33 23 -60l155 -265h4l113 190c42 71 59 110 59 135s-17 34 -65 34v38h229v-38
c-56 0 -82 -26 -164 -164l-121 -204h139v-60h-172v-69h172z" />
    <glyph glyph-name="brokenbar" unicode="&#xa6;" horiz-adv-x="298" 
d="M109 750h80v-385h-80v385zM109 205h80v-385h-80v385z" />
    <glyph glyph-name="section" unicode="&#xa7;" horiz-adv-x="566" 
d="M213 292l162 -96c41 32 56 53 56 82c0 43 -33 88 -92 124l-133 79c-51 -27 -69 -47 -69 -80c0 -41 28 -81 76 -109zM302 112l-59 33c-131 73 -180 131 -180 216c0 70 35 122 99 148c-46 38 -71 93 -71 153c0 103 74 168 189 168c109 0 189 -57 189 -135
c0 -42 -24 -70 -62 -70c-35 0 -59 23 -59 56c0 36 28 42 28 63c0 26 -42 46 -97 46c-72 0 -114 -35 -114 -96c0 -49 28 -83 105 -127l60 -35c123 -72 174 -136 174 -218c0 -59 -26 -102 -87 -147c50 -41 77 -94 77 -153c0 -111 -91 -188 -221 -188c-124 0 -213 69 -213 164
c0 50 25 83 63 83c35 0 64 -28 64 -62c0 -42 -44 -62 -44 -85c0 -29 65 -55 135 -55c86 0 137 41 137 111c0 49 -29 82 -113 130z" />
    <glyph glyph-name="dieresis" unicode="&#xa8;" horiz-adv-x="323" 
d="M20 709c0 33 25 58 58 58s58 -25 58 -58s-25 -58 -58 -58s-58 25 -58 58zM187 709c0 33 25 58 58 58s58 -25 58 -58s-25 -58 -58 -58s-58 25 -58 58z" />
    <glyph glyph-name="copyright" unicode="&#xa9;" horiz-adv-x="888" 
d="M831 386c0 -220 -174 -396 -389 -396c-213 0 -385 178 -385 395s171 395 384 395c216 0 390 -175 390 -394zM783 386c0 193 -153 346 -342 346c-188 0 -336 -157 -336 -347c0 -191 149 -347 337 -347s341 156 341 348zM584 305h33c-19 -88 -74 -148 -173 -148
c-133 0 -218 86 -218 218c0 139 91 234 224 234c44 0 80 -12 126 -41l10 35h21l5 -131h-26c-16 60 -66 97 -131 97c-90 0 -142 -71 -142 -190c0 -117 51 -181 144 -181c65 0 108 37 127 107z" />
    <glyph glyph-name="ordfeminine" unicode="&#xaa;" horiz-adv-x="378" 
d="M218 620v34c-68 -25 -93 -49 -93 -74c0 -22 14 -38 35 -38c31 0 58 36 58 78zM148 651l70 31v19c0 38 -15 55 -50 55c-29 0 -39 -5 -45 -31c-4 -17 -14 -24 -26 -24c-16 0 -25 9 -25 29c0 27 40 50 105 50c71 0 97 -21 97 -77v-112c0 -38 7 -58 22 -58c9 0 18 4 24 13
l7 -12c-9 -16 -35 -27 -60 -27c-30 0 -44 17 -44 48h-4c-17 -29 -48 -48 -84 -48c-44 0 -72 24 -72 59c0 34 21 57 85 85z" />
    <glyph glyph-name="guillemotleft" unicode="&#xab;" horiz-adv-x="489" 
d="M219 104l-170 158l170 159l20 -21l-99 -138l98 -138zM390 104l-170 158l170 159l20 -21l-99 -138l98 -138z" />
    <glyph glyph-name="logicalnot" unicode="&#xac;" horiz-adv-x="625" 
d="M491 110v203h-408v50h458v-253h-50z" />
    <glyph glyph-name="uni00AD" unicode="&#xad;" horiz-adv-x="463" 
d="M386 248h-309v83h309v-83z" />
    <glyph glyph-name="registered" unicode="&#xae;" horiz-adv-x="888" 
d="M831 386c0 -220 -174 -396 -389 -396c-213 0 -385 178 -385 395s171 395 384 395c216 0 390 -175 390 -394zM783 386c0 193 -153 346 -342 346c-188 0 -336 -157 -336 -347c0 -191 149 -347 337 -347s341 156 341 348zM592 507c0 -60 -33 -102 -108 -114l124 -150
c19 -23 37 -33 67 -38v-22h-108l-138 171c-18 25 -28 29 -60 29v-112c0 -54 8 -66 72 -66v-22h-198v22c48 2 56 12 56 63v259c0 51 -7 61 -50 63v25h175c107 0 168 -41 168 -108zM369 576v-160h40c67 0 100 26 100 88c0 59 -26 81 -85 81h-46c-7 0 -9 -4 -9 -9z" />
    <glyph glyph-name="macron" unicode="&#xaf;" horiz-adv-x="310" 
d="M290 702h-270v50h270v-50z" />
    <glyph glyph-name="degree" unicode="&#xb0;" horiz-adv-x="346" 
d="M53 660c0 66 54 120 120 120s120 -54 120 -120s-54 -120 -120 -120s-120 54 -120 120zM83 660c0 -49 41 -90 90 -90s89 41 89 90s-40 89 -89 89s-90 -40 -90 -89z" />
    <glyph glyph-name="plusminus" unicode="&#xb1;" horiz-adv-x="634" 
d="M343 234h-52v209h-208v50h208v209h52v-209h208v-50h-208v-209zM551 145v-50h-468v50h468z" />
    <glyph glyph-name="twosuperior" unicode="&#xb2;" horiz-adv-x="285" 
d="M97 511v-4h85c26 0 37 9 48 46h20l-15 -85h-201v13c122 109 151 157 151 213c0 39 -21 63 -55 63c-28 0 -49 -22 -49 -51c0 -26 18 -43 44 -43c-2 -15 -16 -26 -36 -26c-29 0 -51 25 -51 60c0 48 42 83 99 83c59 0 101 -36 101 -86c0 -66 -63 -125 -141 -183z" />
    <glyph glyph-name="threesuperior" unicode="&#xb3;" horiz-adv-x="279" 
d="M186 554c0 43 -19 67 -51 67c-8 -4 -19 -7 -27 -7c-11 0 -18 7 -18 16s7 14 17 14c7 0 17 -2 25 -5c28 0 47 27 47 68c0 35 -15 51 -47 51c-25 0 -40 -12 -40 -31c0 -15 11 -26 28 -26c-2 -11 -17 -20 -33 -20c-23 0 -40 19 -40 43c0 34 34 56 85 56
c61 0 100 -28 100 -71c0 -36 -28 -66 -65 -74v-4c43 -10 75 -40 75 -80c0 -50 -47 -87 -111 -87c-56 0 -96 30 -96 71c0 29 20 51 46 51c17 0 33 -10 36 -23c-20 0 -35 -14 -35 -34c0 -24 20 -41 48 -41c36 0 56 23 56 66z" />
    <glyph glyph-name="acute" unicode="&#xb4;" horiz-adv-x="275" 
d="M67 651h-47l130 119c25 23 46 33 67 33c23 0 38 -13 38 -35c0 -21 -19 -37 -51 -52z" />
    <glyph glyph-name="mu" unicode="&#xb5;" horiz-adv-x="721" 
d="M207 82l-4 -1c21 -104 41 -234 41 -271c0 -43 -22 -70 -56 -70c-33 0 -58 27 -58 62v568c0 106 -12 125 -83 125v35h181v-273c0 -149 32 -213 108 -213c58 0 100 37 136 121c14 31 17 51 17 107v98c0 107 -12 125 -83 125v35h181v-307c0 -75 2 -123 6 -147
c6 -33 19 -40 81 -40v-35l-165 -12l-11 120h-4c-42 -77 -101 -119 -163 -119c-54 0 -97 32 -124 92z" />
    <glyph glyph-name="paragraph" unicode="&#xb6;" horiz-adv-x="631" 
d="M473 573v-510c0 -75 5 -133 13 -154c9 -26 35 -36 96 -36v-38h-183v891h-52v-891h-194v38c70 0 100 11 109 39c5 17 10 86 10 151v310c-11 0 -19 -1 -34 -1c-127 0 -202 71 -202 192c0 133 95 206 270 206h276v-38c-65 0 -86 -8 -98 -36c-8 -21 -11 -51 -11 -123z" />
    <glyph glyph-name="periodcentered" unicode="&#xb7;" horiz-adv-x="285" 
d="M77 274c0 37 29 66 65 66c37 0 66 -29 66 -66c0 -36 -29 -65 -66 -65c-36 0 -65 29 -65 65z" />
    <glyph glyph-name="cedilla" unicode="&#xb8;" horiz-adv-x="232" 
d="M154 12l-31 -84c83 0 124 -28 124 -86c0 -63 -49 -102 -126 -102c-68 0 -115 31 -115 76c0 23 12 36 31 36c14 0 21 -7 33 -32c12 -28 23 -37 45 -37c29 0 50 20 50 50c0 35 -28 54 -79 54c-10 0 -25 -1 -35 -2l-3 5l53 122h53z" />
    <glyph glyph-name="onesuperior" unicode="&#xb9;" horiz-adv-x="246" 
d="M147 780v-242c0 -41 6 -49 42 -50v-20h-128v20c36 2 42 9 42 47v137c0 31 0 53 -2 58c-2 11 -15 13 -42 13v20c28 1 60 8 88 17z" />
    <glyph glyph-name="ordmasculine" unicode="&#xba;" horiz-adv-x="383" 
d="M190 780c75 0 140 -57 140 -135c0 -80 -65 -138 -140 -138c-74 0 -137 58 -137 138c0 78 63 135 137 135zM190 754c-43 0 -73 -45 -73 -109c0 -67 29 -111 73 -111c45 0 75 44 75 111c0 64 -30 109 -75 109z" />
    <glyph glyph-name="guillemotright" unicode="&#xbb;" horiz-adv-x="489" 
d="M440 262l-170 -158l-19 20l98 138l-99 138l20 21zM269 262l-170 -158l-19 20l98 138l-99 138l20 21z" />
    <glyph glyph-name="onequarter" unicode="&#xbc;" horiz-adv-x="669" 
d="M632 770l-544 -770h-57l553 770h48zM219 780v-242c0 -41 6 -49 42 -50v-20h-128v20c36 2 42 9 42 47v137c0 31 0 53 -2 58c-2 11 -15 13 -42 13v20c28 1 60 8 88 17zM353 72v25l141 215h22v-216c34 1 37 5 37 36h19v-94h-19c0 29 -4 34 -37 35v-8c0 -41 5 -49 32 -50v-15
h-123v15c36 2 42 9 42 47v10h-114zM467 97v130h-4l-85 -130h89z" />
    <glyph glyph-name="onehalf" unicode="&#xbd;" horiz-adv-x="675" 
d="M632 770l-544 -770h-57l553 770h48zM219 780v-242c0 -41 6 -49 42 -50v-20h-128v20c36 2 42 9 42 47v137c0 31 0 53 -2 58c-2 11 -15 13 -42 13v20c28 1 60 8 88 17zM432 43v-4h85c26 0 37 9 48 46h20l-15 -85h-201v13c122 109 151 157 151 213c0 39 -21 63 -55 63
c-28 0 -49 -22 -49 -51c0 -26 18 -43 44 -43c-2 -15 -16 -26 -36 -26c-29 0 -51 25 -51 60c0 48 42 83 99 83c59 0 101 -36 101 -86c0 -66 -63 -125 -141 -183z" />
    <glyph glyph-name="threequarters" unicode="&#xbe;" horiz-adv-x="671" 
d="M639 770l-544 -770h-57l553 770h48zM360 72v25l141 215h22v-216c34 1 37 5 37 36h19v-94h-19c0 29 -4 34 -37 35v-8c0 -41 5 -49 32 -50v-15h-123v15c36 2 42 9 42 47v10h-114zM474 97v130h-4l-85 -130h89zM241 554c0 43 -19 67 -51 67c-8 -4 -19 -7 -27 -7
c-11 0 -18 7 -18 16s7 14 17 14c7 0 17 -2 25 -5c28 0 47 27 47 68c0 35 -15 51 -47 51c-25 0 -40 -12 -40 -31c0 -15 11 -26 28 -26c-2 -11 -17 -20 -33 -20c-23 0 -40 19 -40 43c0 34 34 56 85 56c61 0 100 -28 100 -71c0 -36 -28 -66 -65 -74v-4c43 -10 75 -40 75 -80
c0 -50 -47 -87 -111 -87c-56 0 -96 30 -96 71c0 29 20 51 46 51c17 0 33 -10 36 -23c-20 0 -35 -14 -35 -34c0 -24 20 -41 48 -41c36 0 56 23 56 66z" />
    <glyph glyph-name="questiondown" unicode="&#xbf;" horiz-adv-x="399" 
d="M219 533h55v-229h-29c-86 0 -130 -34 -130 -99c0 -64 39 -116 87 -116c24 0 53 11 75 11c31 0 53 -22 53 -54c0 -37 -22 -56 -62 -56c-110 0 -210 119 -210 250c0 101 59 160 161 160v133zM315 715c0 -37 -29 -66 -65 -66c-37 0 -66 29 -66 66c0 36 29 65 66 65
c36 0 65 -29 65 -65z" />
    <glyph glyph-name="Agrave" unicode="&#xc0;" horiz-adv-x="772" 
d="M529 171l-41 108h-267c-46 -110 -62 -165 -62 -192c0 -37 23 -49 78 -49v-38h-243v38c61 7 86 24 109 81l260 651h43l227 -564c61 -150 83 -167 152 -167v-39h-326v39c71 0 93 12 93 43c0 26 -5 43 -23 89zM358 624l-117 -295h228zM489 850h-60l-120 28
c-45 10 -75 26 -75 47c0 22 15 35 38 35c27 0 50 -11 87 -33z" />
    <glyph glyph-name="Aacute" unicode="&#xc1;" horiz-adv-x="772" 
d="M529 171l-41 108h-267c-46 -110 -62 -165 -62 -192c0 -37 23 -49 78 -49v-38h-243v38c61 7 86 24 109 81l260 651h43l227 -564c61 -150 83 -167 152 -167v-39h-326v39c71 0 93 12 93 43c0 26 -5 43 -23 89zM358 624l-117 -295h228zM343 850h-60l130 77c37 22 60 33 87 33
c23 0 38 -13 38 -35c0 -21 -30 -37 -75 -47z" />
    <glyph glyph-name="Acircumflex" unicode="&#xc2;" horiz-adv-x="772" 
d="M529 171l-41 108h-267c-46 -110 -62 -165 -62 -192c0 -37 23 -49 78 -49v-38h-243v38c61 7 86 24 109 81l260 651h43l227 -564c61 -150 83 -167 152 -167v-39h-326v39c71 0 93 12 93 43c0 26 -5 43 -23 89zM358 624l-117 -295h228zM328 960h110l109 -109h-45l-119 54
l-119 -54h-45z" />
    <glyph glyph-name="Atilde" unicode="&#xc3;" horiz-adv-x="772" 
d="M529 171l-41 108h-267c-46 -110 -62 -165 -62 -192c0 -37 23 -49 78 -49v-38h-243v38c61 7 86 24 109 81l260 651h43l227 -564c61 -150 83 -167 152 -167v-39h-326v39c71 0 93 12 93 43c0 26 -5 43 -23 89zM358 624l-117 -295h228zM246 846h-34c11 68 54 114 106 114
c53 0 104 -46 155 -46c25 0 37 11 47 42h33c-7 -67 -50 -118 -100 -118c-53 0 -108 48 -162 48c-25 0 -36 -10 -45 -40z" />
    <glyph glyph-name="Adieresis" unicode="&#xc4;" horiz-adv-x="772" 
d="M529 171l-41 108h-267c-46 -110 -62 -165 -62 -192c0 -37 23 -49 78 -49v-38h-243v38c61 7 86 24 109 81l260 651h43l227 -564c61 -150 83 -167 152 -167v-39h-326v39c71 0 93 12 93 43c0 26 -5 43 -23 89zM358 624l-117 -295h228zM242 910c0 28 22 50 50 50
c29 0 51 -22 51 -50c0 -29 -22 -51 -51 -51c-28 0 -50 22 -50 51zM424 910c0 28 22 50 51 50c28 0 50 -22 50 -50c0 -29 -22 -51 -50 -51c-29 0 -51 22 -51 51z" />
    <glyph glyph-name="Aring" unicode="&#xc5;" horiz-adv-x="772" 
d="M529 171l-41 108h-267c-46 -110 -62 -165 -62 -192c0 -37 23 -49 78 -49v-38h-243v38c61 7 86 24 109 81l260 651h43l227 -564c61 -150 83 -167 152 -167v-39h-326v39c71 0 93 12 93 43c0 26 -5 43 -23 89zM358 624l-117 -295h228zM318 895c0 37 28 65 65 65
s65 -28 65 -65s-28 -65 -65 -65s-65 28 -65 65zM349 895c0 -20 14 -34 34 -34c19 0 33 14 33 34c0 19 -14 33 -33 33c-20 0 -34 -14 -34 -33z" />
    <glyph glyph-name="AE" unicode="&#xc6;" horiz-adv-x="1051" 
d="M370 38c94 3 110 20 110 114v132h-231l-4 -9c-40 -77 -87 -154 -87 -197c0 -40 41 -37 73 -40v-38h-242v38c61 7 82 25 113 81c38 68 71 122 300 565c4 9 7 16 7 23c0 18 -22 25 -83 25v38h636v-176h-35c-16 106 -62 133 -198 133h-127c-11 0 -17 -7 -17 -17v-287
c129 0 180 22 189 115h35v-273h-35c-14 94 -53 117 -189 118v-226c0 -87 40 -114 166 -114c141 0 191 36 217 154h38l-15 -197h-621v38zM273 329h207v392z" />
    <glyph glyph-name="Ccedilla" unicode="&#xc7;" horiz-adv-x="802" 
d="M671 708l18 62h28l9 -230h-37c-29 116 -119 188 -237 188c-162 0 -258 -132 -258 -350c0 -214 93 -334 261 -334c127 0 212 70 248 205h41v-249h-35l-23 79c-67 -56 -145 -85 -235 -88l-23 -63c83 0 124 -28 124 -86c0 -63 -49 -102 -126 -102c-68 0 -115 31 -115 76
c0 23 12 36 31 36c14 0 21 -7 33 -32c12 -28 23 -37 45 -37c29 0 50 20 50 50c0 35 -28 54 -79 54c-10 0 -25 -1 -35 -2l-3 5l44 101c-206 14 -337 160 -337 381c0 242 156 408 383 408c80 0 146 -21 228 -72z" />
    <glyph glyph-name="Egrave" unicode="&#xc8;" horiz-adv-x="726" 
d="M260 710v-287c144 0 189 34 189 115h35v-273h-35c0 80 -39 117 -189 118v-226c0 -87 40 -114 166 -114c141 0 191 36 217 154h38l-15 -197h-621v38c94 3 110 20 110 114v466c0 93 -14 110 -100 114v38h578l9 -176h-35c-16 106 -67 133 -203 133h-127
c-11 0 -17 -7 -17 -17zM485 850h-60l-120 28c-45 10 -75 26 -75 47c0 22 15 35 38 35c27 0 50 -11 87 -33z" />
    <glyph glyph-name="Eacute" unicode="&#xc9;" horiz-adv-x="726" 
d="M260 710v-287c144 0 189 34 189 115h35v-273h-35c0 80 -39 117 -189 118v-226c0 -87 40 -114 166 -114c141 0 191 36 217 154h38l-15 -197h-621v38c94 3 110 20 110 114v466c0 93 -14 110 -100 114v38h578l9 -176h-35c-16 106 -67 133 -203 133h-127
c-11 0 -17 -7 -17 -17zM339 850h-60l130 77c37 22 60 33 87 33c23 0 38 -13 38 -35c0 -21 -30 -37 -75 -47z" />
    <glyph glyph-name="Ecircumflex" unicode="&#xca;" horiz-adv-x="726" 
d="M260 710v-287c144 0 189 34 189 115h35v-273h-35c0 80 -39 117 -189 118v-226c0 -87 40 -114 166 -114c141 0 191 36 217 154h38l-15 -197h-621v38c94 3 110 20 110 114v466c0 93 -14 110 -100 114v38h578l9 -176h-35c-16 106 -67 133 -203 133h-127
c-11 0 -17 -7 -17 -17zM324 960h110l109 -109h-45l-119 54l-119 -54h-45z" />
    <glyph glyph-name="Edieresis" unicode="&#xcb;" horiz-adv-x="726" 
d="M260 710v-287c144 0 189 34 189 115h35v-273h-35c0 80 -39 117 -189 118v-226c0 -87 40 -114 166 -114c141 0 191 36 217 154h38l-15 -197h-621v38c94 3 110 20 110 114v466c0 93 -14 110 -100 114v38h578l9 -176h-35c-16 106 -67 133 -203 133h-127
c-11 0 -17 -7 -17 -17zM224 910c0 28 22 50 50 50c29 0 51 -22 51 -50c0 -29 -22 -51 -51 -51c-28 0 -50 22 -50 51zM406 910c0 28 22 50 51 50c28 0 50 -22 50 -50c0 -29 -22 -51 -50 -51c-29 0 -51 22 -51 51z" />
    <glyph glyph-name="Igrave" unicode="&#xcc;" horiz-adv-x="415" 
d="M260 581v-392c0 -132 15 -148 109 -151v-38h-324v38c94 3 110 20 110 144v406c0 113 -14 140 -100 144v38h304v-38c-86 -3 -99 -30 -99 -151zM312 850h-60l-120 28c-45 10 -75 26 -75 47c0 22 15 35 38 35c27 0 50 -11 87 -33z" />
    <glyph glyph-name="Iacute" unicode="&#xcd;" horiz-adv-x="415" 
d="M260 581v-392c0 -132 15 -148 109 -151v-38h-324v38c94 3 110 20 110 144v406c0 113 -14 140 -100 144v38h304v-38c-86 -3 -99 -30 -99 -151zM166 850h-60l130 77c37 22 60 33 87 33c23 0 38 -13 38 -35c0 -21 -30 -37 -75 -47z" />
    <glyph glyph-name="Icircumflex" unicode="&#xce;" horiz-adv-x="415" 
d="M260 581v-392c0 -132 15 -148 109 -151v-38h-324v38c94 3 110 20 110 144v406c0 113 -14 140 -100 144v38h304v-38c-86 -3 -99 -30 -99 -151zM151 960h110l109 -109h-45l-119 54l-119 -54h-45z" />
    <glyph glyph-name="Idieresis" unicode="&#xcf;" horiz-adv-x="415" 
d="M260 581v-392c0 -132 15 -148 109 -151v-38h-324v38c94 3 110 20 110 144v406c0 113 -14 140 -100 144v38h304v-38c-86 -3 -99 -30 -99 -151zM67 910c0 28 22 50 50 50c29 0 51 -22 51 -50c0 -29 -22 -51 -51 -51c-28 0 -50 22 -50 51zM249 910c0 28 22 50 51 50
c28 0 50 -22 50 -50c0 -29 -22 -51 -50 -51c-29 0 -51 22 -51 51z" />
    <glyph glyph-name="Eth" unicode="&#xd0;" horiz-adv-x="882" 
d="M156 383h-80v53h80v182c0 93 -14 110 -100 114v38h351c241 0 416 -168 416 -398c0 -219 -163 -372 -396 -372h-391v38c102 3 120 19 120 114v231zM405 721h-127c-11 0 -17 -7 -17 -17v-268h164v-53h-164v-220c0 -77 48 -114 149 -114c181 0 283 111 283 321
c0 221 -110 351 -288 351z" />
    <glyph glyph-name="Ntilde" unicode="&#xd1;" horiz-adv-x="902" 
d="M754 -10h-60l-475 626h-4v-427c0 -132 14 -148 99 -151v-38h-269v38c94 3 110 20 110 144v406c0 113 -14 140 -100 144v38h198l437 -583h4v394c0 132 -14 148 -99 151v38h269v-38c-94 -3 -110 -20 -110 -144v-598zM327 846h-34c11 68 54 114 106 114
c53 0 104 -46 155 -46c25 0 37 11 47 42h33c-7 -67 -50 -118 -100 -118c-53 0 -108 48 -162 48c-25 0 -36 -10 -45 -40z" />
    <glyph glyph-name="Ograve" unicode="&#xd2;" horiz-adv-x="946" 
d="M473 780c234 0 416 -175 416 -401c0 -217 -184 -389 -416 -389s-416 172 -416 389c0 226 182 401 416 401zM473 45c175 0 286 128 286 331c0 214 -110 349 -286 349s-286 -135 -286 -349c0 -203 110 -331 286 -331zM580 850h-60l-120 28c-45 10 -75 26 -75 47
c0 22 15 35 38 35c27 0 50 -11 87 -33z" />
    <glyph glyph-name="Oacute" unicode="&#xd3;" horiz-adv-x="946" 
d="M473 780c234 0 416 -175 416 -401c0 -217 -184 -389 -416 -389s-416 172 -416 389c0 226 182 401 416 401zM473 45c175 0 286 128 286 331c0 214 -110 349 -286 349s-286 -135 -286 -349c0 -203 110 -331 286 -331zM434 850h-60l130 77c37 22 60 33 87 33
c23 0 38 -13 38 -35c0 -21 -30 -37 -75 -47z" />
    <glyph glyph-name="Ocircumflex" unicode="&#xd4;" horiz-adv-x="946" 
d="M473 780c234 0 416 -175 416 -401c0 -217 -184 -389 -416 -389s-416 172 -416 389c0 226 182 401 416 401zM473 45c175 0 286 128 286 331c0 214 -110 349 -286 349s-286 -135 -286 -349c0 -203 110 -331 286 -331zM419 960h110l109 -109h-45l-119 54l-119 -54h-45z" />
    <glyph glyph-name="Otilde" unicode="&#xd5;" horiz-adv-x="946" 
d="M473 780c234 0 416 -175 416 -401c0 -217 -184 -389 -416 -389s-416 172 -416 389c0 226 182 401 416 401zM473 45c175 0 286 128 286 331c0 214 -110 349 -286 349s-286 -135 -286 -349c0 -203 110 -331 286 -331zM337 846h-34c11 68 54 114 106 114
c53 0 104 -46 155 -46c25 0 37 11 47 42h33c-7 -67 -50 -118 -100 -118c-53 0 -108 48 -162 48c-25 0 -36 -10 -45 -40z" />
    <glyph glyph-name="Odieresis" unicode="&#xd6;" horiz-adv-x="946" 
d="M473 780c234 0 416 -175 416 -401c0 -217 -184 -389 -416 -389s-416 172 -416 389c0 226 182 401 416 401zM473 45c175 0 286 128 286 331c0 214 -110 349 -286 349s-286 -135 -286 -349c0 -203 110 -331 286 -331zM333 910c0 28 22 50 50 50c29 0 51 -22 51 -50
c0 -29 -22 -51 -51 -51c-28 0 -50 22 -50 51zM515 910c0 28 22 50 51 50c28 0 50 -22 50 -50c0 -29 -22 -51 -50 -51c-29 0 -51 22 -51 51z" />
    <glyph glyph-name="multiply" unicode="&#xd7;" horiz-adv-x="519" 
d="M105 147l-37 37l155 155l-154 154l35 35l154 -154l155 155l37 -37l-155 -155l154 -154l-35 -35l-154 154z" />
    <glyph glyph-name="Oslash" unicode="&#xd8;" horiz-adv-x="946" 
d="M473 780c82 0 158 -22 222 -60l87 110h69l-111 -141c91 -73 149 -183 149 -310c0 -217 -184 -389 -416 -389c-87 0 -167 24 -234 66l-108 -137h-68l133 168c-86 71 -139 175 -139 292c0 226 182 401 416 401zM473 45c175 0 286 128 286 331c0 103 -25 187 -71 247
l-404 -510c48 -44 112 -68 189 -68zM187 376c0 -91 21 -166 61 -222l402 509c-46 40 -106 62 -177 62c-176 0 -286 -135 -286 -349z" />
    <glyph glyph-name="Ugrave" unicode="&#xd9;" horiz-adv-x="861" 
d="M722 512v-202c0 -211 -79 -320 -288 -320c-197 0 -294 73 -294 283v264c0 99 -1 148 -24 173c-16 17 -42 22 -87 22v38h341v-38c-45 0 -72 -3 -88 -24c-18 -24 -22 -73 -22 -171v-272c0 -136 53 -213 202 -213c133 0 200 76 200 219v241c0 119 -7 175 -33 200
c-18 17 -46 20 -87 20v38h290v-38c-42 0 -69 -4 -85 -27c-20 -28 -25 -83 -25 -193zM565 850h-60l-120 28c-45 10 -75 26 -75 47c0 22 15 35 38 35c27 0 50 -11 87 -33z" />
    <glyph glyph-name="Uacute" unicode="&#xda;" horiz-adv-x="861" 
d="M722 512v-202c0 -211 -79 -320 -288 -320c-197 0 -294 73 -294 283v264c0 99 -1 148 -24 173c-16 17 -42 22 -87 22v38h341v-38c-45 0 -72 -3 -88 -24c-18 -24 -22 -73 -22 -171v-272c0 -136 53 -213 202 -213c133 0 200 76 200 219v241c0 119 -7 175 -33 200
c-18 17 -46 20 -87 20v38h290v-38c-42 0 -69 -4 -85 -27c-20 -28 -25 -83 -25 -193zM419 850h-60l130 77c37 22 60 33 87 33c23 0 38 -13 38 -35c0 -21 -30 -37 -75 -47z" />
    <glyph glyph-name="Ucircumflex" unicode="&#xdb;" horiz-adv-x="861" 
d="M722 512v-202c0 -211 -79 -320 -288 -320c-197 0 -294 73 -294 283v264c0 99 -1 148 -24 173c-16 17 -42 22 -87 22v38h341v-38c-45 0 -72 -3 -88 -24c-18 -24 -22 -73 -22 -171v-272c0 -136 53 -213 202 -213c133 0 200 76 200 219v241c0 119 -7 175 -33 200
c-18 17 -46 20 -87 20v38h290v-38c-42 0 -69 -4 -85 -27c-20 -28 -25 -83 -25 -193zM404 960h110l109 -109h-45l-119 54l-119 -54h-45z" />
    <glyph glyph-name="Udieresis" unicode="&#xdc;" horiz-adv-x="861" 
d="M722 512v-202c0 -211 -79 -320 -288 -320c-197 0 -294 73 -294 283v264c0 99 -1 148 -24 173c-16 17 -42 22 -87 22v38h341v-38c-45 0 -72 -3 -88 -24c-18 -24 -22 -73 -22 -171v-272c0 -136 53 -213 202 -213c133 0 200 76 200 219v241c0 119 -7 175 -33 200
c-18 17 -46 20 -87 20v38h290v-38c-42 0 -69 -4 -85 -27c-20 -28 -25 -83 -25 -193zM318 910c0 28 22 50 50 50c29 0 51 -22 51 -50c0 -29 -22 -51 -51 -51c-28 0 -50 22 -50 51zM500 910c0 28 22 50 51 50c28 0 50 -22 50 -50c0 -29 -22 -51 -50 -51c-29 0 -51 22 -51 51z
" />
    <glyph glyph-name="Yacute" unicode="&#xdd;" horiz-adv-x="733" 
d="M314 304l-200 342c-41 69 -64 86 -119 86v38h315v-38c-66 0 -91 -9 -91 -34c0 -13 7 -33 23 -60l155 -265h4l113 190c42 71 59 110 59 135s-17 34 -65 34v38h229v-38c-56 0 -82 -26 -164 -164l-154 -260v-119c0 -130 13 -151 109 -151v-38h-324v38c95 0 110 22 110 144
v122zM338 850h-60l130 77c37 22 60 33 87 33c23 0 38 -13 38 -35c0 -21 -30 -37 -75 -47z" />
    <glyph glyph-name="Thorn" unicode="&#xde;" horiz-adv-x="699" 
d="M262 613v-17h109c183 0 289 -84 289 -205c0 -140 -85 -215 -308 -215h-90v-19c0 -99 17 -119 138 -119v-38h-353v38c94 3 110 20 110 114v466c0 94 -16 111 -110 114v38h353v-38c-121 0 -138 -20 -138 -119zM262 532v-306h71c132 0 197 48 197 165
c0 112 -50 158 -159 158h-92c-11 0 -17 -7 -17 -17z" />
    <glyph glyph-name="germandbls" unicode="&#xdf;" horiz-adv-x="658" 
d="M338 830c123 0 211 -76 211 -186c0 -91 -40 -155 -144 -177v-5c117 0 205 -103 205 -244c0 -131 -94 -228 -210 -228c-69 0 -110 34 -110 80c0 30 15 48 35 48c17 0 32 -11 41 -34c9 -22 15 -48 41 -48c45 0 83 77 83 179c0 125 -58 221 -185 221v51c85 0 124 46 124 146
c0 97 -36 147 -105 147c-49 0 -86 -21 -104 -61c-12 -26 -16 -59 -16 -127v-431c0 -99 12 -123 64 -123v-38h-244v38c75 0 86 14 86 115v433c0 151 85 244 228 244z" />
    <glyph glyph-name="agrave" unicode="&#xe0;" horiz-adv-x="554" 
d="M349 217v79c-153 -58 -205 -111 -205 -170c0 -44 32 -75 80 -75c69 0 125 75 125 166zM205 276l144 63v41c0 83 -33 122 -104 122c-46 0 -59 -13 -76 -65c-15 -38 -26 -48 -52 -48c-32 0 -50 18 -50 50c0 64 71 101 196 101c134 0 184 -42 184 -156v-224
c0 -77 15 -114 45 -114c18 0 37 2 49 22l14 -24c-16 -31 -64 -54 -111 -54c-58 0 -87 39 -87 107h-5c-35 -65 -100 -106 -174 -106c-83 0 -135 47 -135 118c0 64 41 115 162 167zM365 651h-47l-137 65c-32 15 -51 31 -51 52c0 22 15 35 38 35c21 0 42 -10 67 -33z" />
    <glyph glyph-name="aacute" unicode="&#xe1;" horiz-adv-x="554" 
d="M349 217v79c-153 -58 -205 -111 -205 -170c0 -44 32 -75 80 -75c69 0 125 75 125 166zM205 276l144 63v41c0 83 -33 122 -104 122c-46 0 -59 -13 -76 -65c-15 -38 -26 -48 -52 -48c-32 0 -50 18 -50 50c0 64 71 101 196 101c134 0 184 -42 184 -156v-224
c0 -77 15 -114 45 -114c18 0 37 2 49 22l14 -24c-16 -31 -64 -54 -111 -54c-58 0 -87 39 -87 107h-5c-35 -65 -100 -106 -174 -106c-83 0 -135 47 -135 118c0 64 41 115 162 167zM222 651h-47l130 119c25 23 46 33 67 33c23 0 38 -13 38 -35c0 -21 -19 -37 -51 -52z" />
    <glyph glyph-name="acircumflex" unicode="&#xe2;" horiz-adv-x="554" 
d="M349 217v79c-153 -58 -205 -111 -205 -170c0 -44 32 -75 80 -75c69 0 125 75 125 166zM205 276l144 63v41c0 83 -33 122 -104 122c-46 0 -59 -13 -76 -65c-15 -38 -26 -48 -52 -48c-32 0 -50 18 -50 50c0 64 71 101 196 101c134 0 184 -42 184 -156v-224
c0 -77 15 -114 45 -114c18 0 37 2 49 22l14 -24c-16 -31 -64 -54 -111 -54c-58 0 -87 39 -87 107h-5c-35 -65 -100 -106 -174 -106c-83 0 -135 47 -135 118c0 64 41 115 162 167zM220 780h90l119 -129h-45l-119 68l-119 -68h-45z" />
    <glyph glyph-name="atilde" unicode="&#xe3;" horiz-adv-x="554" 
d="M349 217v79c-153 -58 -205 -111 -205 -170c0 -44 32 -75 80 -75c69 0 125 75 125 166zM205 276l144 63v41c0 83 -33 122 -104 122c-46 0 -59 -13 -76 -65c-15 -38 -26 -48 -52 -48c-32 0 -50 18 -50 50c0 64 71 101 196 101c134 0 184 -42 184 -156v-224
c0 -77 15 -114 45 -114c18 0 37 2 49 22l14 -24c-16 -31 -64 -54 -111 -54c-58 0 -87 39 -87 107h-5c-35 -65 -100 -106 -174 -106c-83 0 -135 47 -135 118c0 64 41 115 162 167zM129 660h-34c11 68 54 114 106 114c53 0 104 -46 155 -46c25 0 37 11 47 42h33
c-7 -67 -50 -118 -100 -118c-53 0 -108 48 -162 48c-25 0 -36 -10 -45 -40z" />
    <glyph glyph-name="adieresis" unicode="&#xe4;" horiz-adv-x="554" 
d="M349 217v79c-153 -58 -205 -111 -205 -170c0 -44 32 -75 80 -75c69 0 125 75 125 166zM205 276l144 63v41c0 83 -33 122 -104 122c-46 0 -59 -13 -76 -65c-15 -38 -26 -48 -52 -48c-32 0 -50 18 -50 50c0 64 71 101 196 101c134 0 184 -42 184 -156v-224
c0 -77 15 -114 45 -114c18 0 37 2 49 22l14 -24c-16 -31 -64 -54 -111 -54c-58 0 -87 39 -87 107h-5c-35 -65 -100 -106 -174 -106c-83 0 -135 47 -135 118c0 64 41 115 162 167zM124 709c0 33 25 58 58 58s58 -25 58 -58s-25 -58 -58 -58s-58 25 -58 58zM291 709
c0 33 25 58 58 58s58 -25 58 -58s-25 -58 -58 -58s-58 25 -58 58z" />
    <glyph glyph-name="aring" unicode="&#xe5;" horiz-adv-x="554" 
d="M349 217v79c-153 -58 -205 -111 -205 -170c0 -44 32 -75 80 -75c69 0 125 75 125 166zM205 276l144 63v41c0 83 -33 122 -104 122c-46 0 -59 -13 -76 -65c-15 -38 -26 -48 -52 -48c-32 0 -50 18 -50 50c0 64 71 101 196 101c134 0 184 -42 184 -156v-224
c0 -77 15 -114 45 -114c18 0 37 2 49 22l14 -24c-16 -31 -64 -54 -111 -54c-58 0 -87 39 -87 107h-5c-35 -65 -100 -106 -174 -106c-83 0 -135 47 -135 118c0 64 41 115 162 167zM186 742c0 51 37 88 86 88c51 0 88 -37 88 -88c0 -49 -37 -86 -88 -86c-49 0 -86 37 -86 86z
M225 742c0 -27 20 -47 47 -47c26 0 45 20 45 47c0 26 -19 45 -45 45c-27 0 -47 -19 -47 -45z" />
    <glyph glyph-name="ae" unicode="&#xe6;" horiz-adv-x="852" 
d="M771 121l31 -28c-59 -69 -127 -103 -208 -103c-98 0 -174 48 -214 128c-37 -81 -109 -127 -198 -127c-86 0 -139 45 -139 118s52 126 162 167l144 53v51c0 84 -33 122 -106 122c-43 0 -55 -14 -74 -65c-14 -38 -26 -48 -51 -48c-33 0 -51 18 -51 50c0 64 72 101 197 101
c91 0 141 -21 166 -69c44 44 105 69 176 69c125 0 200 -76 200 -201c0 -15 -7 -22 -31 -22h-309c-3 -9 -4 -24 -4 -44c0 -142 61 -231 160 -231c52 0 100 25 149 79zM349 197v89c-144 -53 -205 -100 -205 -160c0 -44 33 -75 80 -75c68 0 125 66 125 146zM473 363h164
c53 0 60 3 60 27c0 61 -43 102 -107 102s-101 -41 -117 -129z" />
    <glyph glyph-name="ccedilla" unicode="&#xe7;" horiz-adv-x="536" 
d="M476 112l30 -29c-44 -54 -116 -87 -195 -92l-23 -63c83 0 124 -28 124 -86c0 -63 -49 -102 -126 -102c-68 0 -115 31 -115 76c0 23 12 36 31 36c14 0 21 -7 33 -32c12 -28 23 -37 45 -37c29 0 50 20 50 50c0 35 -28 54 -79 54c-10 0 -25 -1 -35 -2l-3 5l44 102
c-124 15 -208 119 -208 269c0 170 112 279 278 279c103 0 176 -36 176 -88c0 -26 -19 -42 -49 -42c-24 0 -36 7 -61 41c-26 31 -47 42 -86 42c-94 0 -144 -75 -144 -217c0 -152 56 -234 159 -234c55 0 104 21 154 70z" />
    <glyph glyph-name="egrave" unicode="&#xe8;" horiz-adv-x="573" 
d="M491 121l31 -28c-58 -70 -126 -103 -211 -103c-156 0 -262 109 -262 269c0 164 113 281 274 281c128 0 203 -73 203 -203c0 -18 -4 -20 -31 -20h-329c-3 -11 -4 -27 -4 -45c0 -139 70 -230 177 -230c55 0 102 24 152 79zM173 363h184c54 0 60 4 60 28
c0 61 -43 101 -110 101c-71 0 -117 -44 -134 -129zM446 651h-47l-137 65c-32 15 -51 31 -51 52c0 22 15 35 38 35c21 0 42 -10 67 -33z" />
    <glyph glyph-name="eacute" unicode="&#xe9;" horiz-adv-x="573" 
d="M491 121l31 -28c-58 -70 -126 -103 -211 -103c-156 0 -262 109 -262 269c0 164 113 281 274 281c128 0 203 -73 203 -203c0 -18 -4 -20 -31 -20h-329c-3 -11 -4 -27 -4 -45c0 -139 70 -230 177 -230c55 0 102 24 152 79zM173 363h184c54 0 60 4 60 28
c0 61 -43 101 -110 101c-71 0 -117 -44 -134 -129zM287 651h-47l130 119c25 23 46 33 67 33c23 0 38 -13 38 -35c0 -21 -19 -37 -51 -52z" />
    <glyph glyph-name="ecircumflex" unicode="&#xea;" horiz-adv-x="573" 
d="M491 121l31 -28c-58 -70 -126 -103 -211 -103c-156 0 -262 109 -262 269c0 164 113 281 274 281c128 0 203 -73 203 -203c0 -18 -4 -20 -31 -20h-329c-3 -11 -4 -27 -4 -45c0 -139 70 -230 177 -230c55 0 102 24 152 79zM173 363h184c54 0 60 4 60 28
c0 61 -43 101 -110 101c-71 0 -117 -44 -134 -129zM268 780h90l119 -129h-45l-119 68l-119 -68h-45z" />
    <glyph glyph-name="edieresis" unicode="&#xeb;" horiz-adv-x="573" 
d="M491 121l31 -28c-58 -70 -126 -103 -211 -103c-156 0 -262 109 -262 269c0 164 113 281 274 281c128 0 203 -73 203 -203c0 -18 -4 -20 -31 -20h-329c-3 -11 -4 -27 -4 -45c0 -139 70 -230 177 -230c55 0 102 24 152 79zM173 363h184c54 0 60 4 60 28
c0 61 -43 101 -110 101c-71 0 -117 -44 -134 -129zM172 709c0 33 25 58 58 58s58 -25 58 -58s-25 -58 -58 -58s-58 25 -58 58zM339 709c0 33 25 58 58 58s58 -25 58 -58s-25 -58 -58 -58s-58 25 -58 58z" />
    <glyph glyph-name="igrave" unicode="&#xec;" horiz-adv-x="341" 
d="M228 540v-378c0 -104 14 -122 93 -125v-37h-287v37c81 4 96 23 96 117v124c0 77 -2 128 -7 146c-6 32 -25 41 -91 41v37zM254 651h-47l-137 65c-32 15 -51 31 -51 52c0 22 15 35 38 35c21 0 42 -10 67 -33z" />
    <glyph glyph-name="iacute" unicode="&#xed;" horiz-adv-x="341" 
d="M228 540v-378c0 -104 14 -122 93 -125v-37h-287v37c81 4 96 23 96 117v124c0 77 -2 128 -7 146c-6 32 -25 41 -91 41v37zM137 651h-47l130 119c25 23 46 33 67 33c23 0 38 -13 38 -35c0 -21 -19 -37 -51 -52z" />
    <glyph glyph-name="icircumflex" unicode="&#xee;" horiz-adv-x="341" 
d="M228 540v-378c0 -104 14 -122 93 -125v-37h-287v37c81 4 96 23 96 117v124c0 77 -2 128 -7 146c-6 32 -25 41 -91 41v37zM135 780h90l119 -129h-45l-119 68l-119 -68h-45z" />
    <glyph glyph-name="idieresis" unicode="&#xef;" horiz-adv-x="341" 
d="M228 540v-378c0 -104 14 -122 93 -125v-37h-287v37c81 4 96 23 96 117v124c0 77 -2 128 -7 146c-6 32 -25 41 -91 41v37zM39 709c0 33 25 58 58 58s58 -25 58 -58s-25 -58 -58 -58s-58 25 -58 58zM206 709c0 33 25 58 58 58s58 -25 58 -58s-25 -58 -58 -58s-58 25 -58 58
z" />
    <glyph glyph-name="eth" unicode="&#xf0;" horiz-adv-x="640" 
d="M175 244c0 -132 50 -209 134 -209c85 0 139 80 139 209c0 127 -53 205 -138 205s-135 -76 -135 -205zM160 746l19 34c62 -18 126 -40 173 -68l130 75l25 -32l-117 -68c117 -82 185 -228 185 -379c0 -186 -113 -318 -267 -318c-145 0 -258 108 -258 254
c0 141 107 254 250 254c71 0 125 -30 153 -86l3 2c-27 106 -68 183 -126 238l-130 -75l-24 32l121 71c-30 23 -69 42 -137 66z" />
    <glyph glyph-name="ntilde" unicode="&#xf1;" horiz-adv-x="689" 
d="M216 291v-134c0 -108 6 -118 83 -123v-34h-262v34c74 5 84 16 84 116v133c0 78 -2 128 -6 145c-8 36 -22 42 -80 42v32l160 38l12 -99h4c50 62 121 99 200 99c61 0 115 -22 142 -56c23 -31 31 -75 31 -160v-167c0 -108 8 -118 81 -123v-34h-259v34c75 4 83 17 83 116v132
c0 151 -31 204 -114 204c-59 0 -113 -34 -141 -88c-14 -27 -18 -44 -18 -107zM209 660h-34c11 68 54 114 106 114c53 0 104 -46 155 -46c25 0 37 11 47 42h33c-7 -67 -50 -118 -100 -118c-53 0 -108 48 -162 48c-25 0 -36 -10 -45 -40z" />
    <glyph glyph-name="ograve" unicode="&#xf2;" horiz-adv-x="654" 
d="M325 540c152 0 281 -114 281 -271c0 -162 -129 -279 -281 -279c-150 0 -277 116 -277 279c0 158 127 271 277 271zM325 492c-99 0 -164 -90 -164 -224c0 -138 64 -227 164 -227c102 0 168 90 168 227c0 133 -67 224 -168 224zM445 651h-47l-137 65c-32 15 -51 31 -51 52
c0 22 15 35 38 35c21 0 42 -10 67 -33z" />
    <glyph glyph-name="oacute" unicode="&#xf3;" horiz-adv-x="654" 
d="M325 540c152 0 281 -114 281 -271c0 -162 -129 -279 -281 -279c-150 0 -277 116 -277 279c0 158 127 271 277 271zM325 492c-99 0 -164 -90 -164 -224c0 -138 64 -227 164 -227c102 0 168 90 168 227c0 133 -67 224 -168 224zM282 651h-47l130 119c25 23 46 33 67 33
c23 0 38 -13 38 -35c0 -21 -19 -37 -51 -52z" />
    <glyph glyph-name="ocircumflex" unicode="&#xf4;" horiz-adv-x="654" 
d="M325 540c152 0 281 -114 281 -271c0 -162 -129 -279 -281 -279c-150 0 -277 116 -277 279c0 158 127 271 277 271zM325 492c-99 0 -164 -90 -164 -224c0 -138 64 -227 164 -227c102 0 168 90 168 227c0 133 -67 224 -168 224zM280 780h90l119 -129h-45l-119 68l-119 -68
h-45z" />
    <glyph glyph-name="otilde" unicode="&#xf5;" horiz-adv-x="654" 
d="M325 540c152 0 281 -114 281 -271c0 -162 -129 -279 -281 -279c-150 0 -277 116 -277 279c0 158 127 271 277 271zM325 492c-99 0 -164 -90 -164 -224c0 -138 64 -227 164 -227c102 0 168 90 168 227c0 133 -67 224 -168 224zM181 660h-34c11 68 54 114 106 114
c53 0 104 -46 155 -46c25 0 37 11 47 42h33c-7 -67 -50 -118 -100 -118c-53 0 -108 48 -162 48c-25 0 -36 -10 -45 -40z" />
    <glyph glyph-name="odieresis" unicode="&#xf6;" horiz-adv-x="654" 
d="M325 540c152 0 281 -114 281 -271c0 -162 -129 -279 -281 -279c-150 0 -277 116 -277 279c0 158 127 271 277 271zM325 492c-99 0 -164 -90 -164 -224c0 -138 64 -227 164 -227c102 0 168 90 168 227c0 133 -67 224 -168 224zM184 709c0 33 25 58 58 58s58 -25 58 -58
s-25 -58 -58 -58s-58 25 -58 58zM351 709c0 33 25 58 58 58s58 -25 58 -58s-25 -58 -58 -58s-58 25 -58 58z" />
    <glyph glyph-name="divide" unicode="&#xf7;" horiz-adv-x="599" 
d="M237 162c0 37 29 66 65 66c37 0 66 -29 66 -66c0 -36 -29 -65 -66 -65c-36 0 -65 29 -65 65zM237 512c0 37 29 66 65 66c37 0 66 -29 66 -66c0 -36 -29 -65 -66 -65c-36 0 -65 29 -65 65zM534 363v-50h-468v50h468z" />
    <glyph glyph-name="oslash" unicode="&#xf8;" horiz-adv-x="651" 
d="M324 540c57 0 110 -16 155 -45l77 97h69l-103 -130c51 -48 83 -115 83 -193c0 -162 -129 -279 -281 -279c-53 0 -102 14 -145 39l-71 -90h-68l96 122c-54 50 -89 122 -89 208c0 158 127 271 277 271zM324 492c-99 0 -164 -90 -164 -224c0 -56 10 -103 29 -140l247 313
c-28 32 -67 51 -112 51zM492 268c0 48 -9 90 -25 125l-246 -311c27 -27 62 -41 103 -41c102 0 168 90 168 227z" />
    <glyph glyph-name="ugrave" unicode="&#xf9;" 
d="M463 272v98c0 109 -6 117 -83 125v35h181v-307c0 -76 2 -123 6 -147c6 -34 20 -40 81 -40v-35l-165 -12l-11 120h-4c-51 -82 -119 -119 -191 -119c-56 0 -114 23 -141 59c-22 29 -32 80 -32 162v159c0 109 -6 118 -83 125v35h181v-273c0 -144 33 -207 107 -207
c57 0 104 38 137 115c13 31 17 50 17 107zM413 651h-47l-137 65c-32 15 -51 31 -51 52c0 22 15 35 38 35c21 0 42 -10 67 -33z" />
    <glyph glyph-name="uacute" unicode="&#xfa;" 
d="M463 272v98c0 109 -6 117 -83 125v35h181v-307c0 -76 2 -123 6 -147c6 -34 20 -40 81 -40v-35l-165 -12l-11 120h-4c-51 -82 -119 -119 -191 -119c-56 0 -114 23 -141 59c-22 29 -32 80 -32 162v159c0 109 -6 118 -83 125v35h181v-273c0 -144 33 -207 107 -207
c57 0 104 38 137 115c13 31 17 50 17 107zM270 651h-47l130 119c25 23 46 33 67 33c23 0 38 -13 38 -35c0 -21 -19 -37 -51 -52z" />
    <glyph glyph-name="ucircumflex" unicode="&#xfb;" 
d="M463 272v98c0 109 -6 117 -83 125v35h181v-307c0 -76 2 -123 6 -147c6 -34 20 -40 81 -40v-35l-165 -12l-11 120h-4c-51 -82 -119 -119 -191 -119c-56 0 -114 23 -141 59c-22 29 -32 80 -32 162v159c0 109 -6 118 -83 125v35h181v-273c0 -144 33 -207 107 -207
c57 0 104 38 137 115c13 31 17 50 17 107zM268 780h90l119 -129h-45l-119 68l-119 -68h-45z" />
    <glyph glyph-name="udieresis" unicode="&#xfc;" 
d="M463 272v98c0 109 -6 117 -83 125v35h181v-307c0 -76 2 -123 6 -147c6 -34 20 -40 81 -40v-35l-165 -12l-11 120h-4c-51 -82 -119 -119 -191 -119c-56 0 -114 23 -141 59c-22 29 -32 80 -32 162v159c0 109 -6 118 -83 125v35h181v-273c0 -144 33 -207 107 -207
c57 0 104 38 137 115c13 31 17 50 17 107zM172 709c0 33 25 58 58 58s58 -25 58 -58s-25 -58 -58 -58s-58 25 -58 58zM339 709c0 33 25 58 58 58s58 -25 58 -58s-25 -58 -58 -58s-58 25 -58 58z" />
    <glyph glyph-name="yacute" unicode="&#xfd;" horiz-adv-x="639" 
d="M499 328l-218 -485c-30 -67 -80 -103 -143 -103c-42 0 -63 15 -63 47c0 33 19 46 82 56c55 9 78 26 103 76l35 70l-192 417c-34 74 -46 85 -99 89v35h265v-35c-46 0 -67 -10 -67 -33c0 -17 12 -59 28 -98l110 -266h5l91 225c36 87 42 106 42 128c0 35 -15 44 -70 44v35
h220v-35c-50 0 -64 -18 -129 -167zM306 651h-47l130 119c25 23 46 33 67 33c23 0 38 -13 38 -35c0 -21 -19 -37 -51 -52z" />
    <glyph glyph-name="thorn" unicode="&#xfe;" horiz-adv-x="654" 
d="M91 -97v701c0 67 -5 112 -13 129c-9 19 -16 23 -79 32v25l188 40v-371h4c43 56 93 81 160 81c144 0 255 -120 255 -275c0 -157 -112 -276 -258 -276c-64 0 -119 24 -157 67v-146c0 -106 15 -122 114 -125v-35h-308v35c80 3 94 22 94 118zM189 298v-89
c0 -100 62 -172 148 -172c93 0 156 90 156 225c0 136 -66 231 -160 231c-54 0 -99 -28 -122 -74c-14 -28 -22 -69 -22 -121z" />
    <glyph glyph-name="ydieresis" unicode="&#xff;" horiz-adv-x="639" 
d="M499 328l-218 -485c-30 -67 -80 -103 -143 -103c-42 0 -63 15 -63 47c0 33 19 46 82 56c55 9 78 26 103 76l35 70l-192 417c-34 74 -46 85 -99 89v35h265v-35c-46 0 -67 -10 -67 -33c0 -17 12 -59 28 -98l110 -266h5l91 225c36 87 42 106 42 128c0 35 -15 44 -70 44v35
h220v-35c-50 0 -64 -18 -129 -167zM208 709c0 33 25 58 58 58s58 -25 58 -58s-25 -58 -58 -58s-58 25 -58 58zM375 709c0 33 25 58 58 58s58 -25 58 -58s-25 -58 -58 -58s-58 25 -58 58z" />
    <glyph glyph-name="Amacron" unicode="&#x100;" horiz-adv-x="772" 
d="M529 171l-41 108h-267c-46 -110 -62 -165 -62 -192c0 -37 23 -49 78 -49v-38h-243v38c61 7 86 24 109 81l260 651h43l227 -564c61 -150 83 -167 152 -167v-39h-326v39c71 0 93 12 93 43c0 26 -5 43 -23 89zM358 624l-117 -295h228zM518 880h-270v50h270v-50z" />
    <glyph glyph-name="amacron" unicode="&#x101;" horiz-adv-x="554" 
d="M349 217v79c-153 -58 -205 -111 -205 -170c0 -44 32 -75 80 -75c69 0 125 75 125 166zM205 276l144 63v41c0 83 -33 122 -104 122c-46 0 -59 -13 -76 -65c-15 -38 -26 -48 -52 -48c-32 0 -50 18 -50 50c0 64 71 101 196 101c134 0 184 -42 184 -156v-224
c0 -77 15 -114 45 -114c18 0 37 2 49 22l14 -24c-16 -31 -64 -54 -111 -54c-58 0 -87 39 -87 107h-5c-35 -65 -100 -106 -174 -106c-83 0 -135 47 -135 118c0 64 41 115 162 167zM400 702h-270v50h270v-50z" />
    <glyph glyph-name="Abreve" unicode="&#x102;" horiz-adv-x="772" 
d="M529 171l-41 108h-267c-46 -110 -62 -165 -62 -192c0 -37 23 -49 78 -49v-38h-243v38c61 7 86 24 109 81l260 651h43l227 -564c61 -150 83 -167 152 -167v-39h-326v39c71 0 93 12 93 43c0 26 -5 43 -23 89zM358 624l-117 -295h228zM484 960h37c-5 -67 -63 -115 -138 -115
c-77 0 -135 49 -138 115h36c11 -28 51 -46 101 -46s91 18 102 46z" />
    <glyph glyph-name="abreve" unicode="&#x103;" horiz-adv-x="554" 
d="M349 217v79c-153 -58 -205 -111 -205 -170c0 -44 32 -75 80 -75c69 0 125 75 125 166zM205 276l144 63v41c0 83 -33 122 -104 122c-46 0 -59 -13 -76 -65c-15 -38 -26 -48 -52 -48c-32 0 -50 18 -50 50c0 64 71 101 196 101c134 0 184 -42 184 -156v-224
c0 -77 15 -114 45 -114c18 0 37 2 49 22l14 -24c-16 -31 -64 -54 -111 -54c-58 0 -87 39 -87 107h-5c-35 -65 -100 -106 -174 -106c-83 0 -135 47 -135 118c0 64 41 115 162 167zM366 776h37c-5 -76 -63 -130 -138 -130c-77 0 -135 55 -138 130h36c12 -37 52 -61 101 -61
c50 0 91 24 102 61z" />
    <glyph glyph-name="Aogonek" unicode="&#x104;" horiz-adv-x="772" 
d="M708 -121l29 -31c-47 -61 -99 -82 -157 -82c-61 0 -97 32 -97 85c0 57 45 112 123 149h-147v39c71 0 93 12 93 43c0 26 -5 43 -23 89l-41 108h-267c-46 -110 -62 -165 -62 -192c0 -37 23 -49 78 -49v-38h-243v38c61 7 86 24 109 81l260 651h43l227 -564
c61 -150 83 -167 152 -167v-39h-114c-65 -35 -109 -87 -109 -126c0 -27 19 -48 51 -48c25 0 60 17 95 53zM358 624l-117 -295h228z" />
    <glyph glyph-name="aogonek" unicode="&#x105;" horiz-adv-x="555" 
d="M505 -121l29 -31c-47 -61 -99 -82 -157 -82c-61 0 -97 32 -97 85c0 57 44 111 121 148c-30 15 -44 49 -44 98h-5c-35 -65 -100 -106 -174 -106c-83 0 -135 47 -135 118c0 64 41 115 162 167l144 63v41c0 83 -33 122 -104 122c-46 0 -59 -13 -76 -65
c-15 -38 -26 -48 -52 -48c-32 0 -50 18 -50 50c0 64 71 101 196 101c134 0 184 -42 184 -156v-224c0 -77 15 -114 45 -114c18 0 37 2 49 22l14 -24c-15 -30 -60 -52 -104 -54c-56 -34 -92 -80 -92 -116c0 -27 19 -48 51 -48c25 0 60 17 95 53zM349 217v79
c-153 -58 -205 -111 -205 -170c0 -44 32 -75 80 -75c69 0 125 75 125 166z" />
    <glyph glyph-name="Cacute" unicode="&#x106;" horiz-adv-x="802" 
d="M671 708l18 62h28l9 -230h-37c-29 116 -119 188 -237 188c-162 0 -258 -132 -258 -350c0 -214 93 -334 261 -334c127 0 212 70 248 205h41v-249h-35l-23 79c-71 -60 -155 -89 -254 -89c-226 0 -372 149 -372 382c0 242 156 408 383 408c80 0 146 -21 228 -72zM408 850
h-60l130 77c37 22 60 33 87 33c23 0 38 -13 38 -35c0 -21 -30 -37 -75 -47z" />
    <glyph glyph-name="cacute" unicode="&#x107;" horiz-adv-x="536" 
d="M476 112l30 -29c-48 -58 -128 -93 -216 -93c-142 0 -241 109 -241 271c0 170 112 279 278 279c103 0 176 -36 176 -88c0 -26 -19 -42 -49 -42c-24 0 -36 7 -61 41c-26 31 -47 42 -86 42c-94 0 -144 -75 -144 -217c0 -152 56 -234 159 -234c55 0 104 21 154 70zM299 651
h-47l130 119c25 23 46 33 67 33c23 0 38 -13 38 -35c0 -21 -19 -37 -51 -52z" />
    <glyph glyph-name="Ccircumflex" unicode="&#x108;" horiz-adv-x="802" 
d="M671 708l18 62h28l9 -230h-37c-29 116 -119 188 -237 188c-162 0 -258 -132 -258 -350c0 -214 93 -334 261 -334c127 0 212 70 248 205h41v-249h-35l-23 79c-71 -60 -155 -89 -254 -89c-226 0 -372 149 -372 382c0 242 156 408 383 408c80 0 146 -21 228 -72zM393 960
h110l109 -109h-45l-119 54l-119 -54h-45z" />
    <glyph glyph-name="ccircumflex" unicode="&#x109;" horiz-adv-x="536" 
d="M476 112l30 -29c-48 -58 -128 -93 -216 -93c-142 0 -241 109 -241 271c0 170 112 279 278 279c103 0 176 -36 176 -88c0 -26 -19 -42 -49 -42c-24 0 -36 7 -61 41c-26 31 -47 42 -86 42c-94 0 -144 -75 -144 -217c0 -152 56 -234 159 -234c55 0 104 21 154 70zM271 780
h90l119 -129h-45l-119 68l-119 -68h-45z" />
    <glyph glyph-name="Cdotaccent" unicode="&#x10a;" horiz-adv-x="802" 
d="M671 708l18 62h28l9 -230h-37c-29 116 -119 188 -237 188c-162 0 -258 -132 -258 -350c0 -214 93 -334 261 -334c127 0 212 70 248 205h41v-249h-35l-23 79c-71 -60 -155 -89 -254 -89c-226 0 -372 149 -372 382c0 242 156 408 383 408c80 0 146 -21 228 -72zM396 904
c0 31 24 55 52 55c31 0 55 -24 55 -55c0 -28 -24 -52 -55 -52c-28 0 -52 24 -52 52z" />
    <glyph glyph-name="cdotaccent" unicode="&#x10b;" horiz-adv-x="536" 
d="M476 112l30 -29c-48 -58 -128 -93 -216 -93c-142 0 -241 109 -241 271c0 170 112 279 278 279c103 0 176 -36 176 -88c0 -26 -19 -42 -49 -42c-24 0 -36 7 -61 41c-26 31 -47 42 -86 42c-94 0 -144 -75 -144 -217c0 -152 56 -234 159 -234c55 0 104 21 154 70zM254 743
c0 35 27 62 62 62s62 -27 62 -62s-27 -62 -62 -62s-62 27 -62 62z" />
    <glyph glyph-name="Ccaron" unicode="&#x10c;" horiz-adv-x="802" 
d="M671 708l18 62h28l9 -230h-37c-29 116 -119 188 -237 188c-162 0 -258 -132 -258 -350c0 -214 93 -334 261 -334c127 0 212 70 248 205h41v-249h-35l-23 79c-71 -60 -155 -89 -254 -89c-226 0 -372 149 -372 382c0 242 156 408 383 408c80 0 146 -21 228 -72zM503 851
h-110l-109 109h45l119 -54l119 54h45z" />
    <glyph glyph-name="ccaron" unicode="&#x10d;" horiz-adv-x="536" 
d="M476 112l30 -29c-48 -58 -128 -93 -216 -93c-142 0 -241 109 -241 271c0 170 112 279 278 279c103 0 176 -36 176 -88c0 -26 -19 -42 -49 -42c-24 0 -36 7 -61 41c-26 31 -47 42 -86 42c-94 0 -144 -75 -144 -217c0 -152 56 -234 159 -234c55 0 104 21 154 70zM361 651
h-90l-119 129h45l119 -68l119 68h45z" />
    <glyph glyph-name="Dcaron" unicode="&#x10e;" horiz-adv-x="884" 
d="M429 0h-391v38c102 3 120 19 120 114v466c0 93 -14 110 -100 114v38h351c241 0 416 -168 416 -398c0 -219 -163 -372 -396 -372zM407 721h-127c-11 0 -17 -7 -17 -17v-541c0 -77 48 -114 149 -114c181 0 283 111 283 321c0 221 -110 351 -288 351zM498 851h-110l-109 109
h45l119 -54l119 54h45z" />
    <glyph glyph-name="dcaron" unicode="&#x10f;" horiz-adv-x="675" 
d="M484 -10v94h-4c-48 -67 -99 -94 -172 -94c-151 0 -260 115 -260 276c0 158 110 274 260 274c63 0 112 -21 158 -67v102c0 75 -2 129 -6 147c-7 29 -34 40 -103 40v30l205 38v-577c0 -92 1 -152 7 -177c8 -32 19 -41 81 -41v-34zM464 239v66c0 70 -6 99 -27 126
c-30 40 -83 61 -129 61c-95 0 -147 -86 -147 -221c0 -141 51 -233 147 -233c47 0 104 23 130 63c19 29 26 66 26 138zM669 584l-22 26c45 25 65 49 65 78c-6 -5 -15 -8 -26 -8c-26 0 -44 19 -44 47c0 31 24 53 59 53c40 0 63 -29 63 -79c0 -43 -26 -80 -95 -117z" />
    <glyph glyph-name="Dcroat" unicode="&#x110;" horiz-adv-x="882" 
d="M156 383h-80v53h80v182c0 93 -14 110 -100 114v38h351c241 0 416 -168 416 -398c0 -219 -163 -372 -396 -372h-391v38c102 3 120 19 120 114v231zM405 721h-127c-11 0 -17 -7 -17 -17v-268h164v-53h-164v-220c0 -77 48 -114 149 -114c181 0 283 111 283 321
c0 221 -110 351 -288 351z" />
    <glyph glyph-name="dcroat" unicode="&#x111;" horiz-adv-x="675" 
d="M484 -10v94h-4c-48 -67 -99 -94 -172 -94c-151 0 -260 115 -260 276c0 158 110 274 260 274c63 0 112 -21 158 -67v125h-98v53h97c-1 35 -3 60 -5 71c-7 29 -34 40 -103 40v30l205 38v-179h85v-53h-85v-345c0 -92 1 -152 7 -177c8 -32 19 -41 81 -41v-34zM464 239v66
c0 70 -6 99 -27 126c-30 40 -83 61 -129 61c-95 0 -147 -86 -147 -221c0 -141 51 -233 147 -233c47 0 104 23 130 63c19 29 26 66 26 138z" />
    <glyph glyph-name="Emacron" unicode="&#x112;" horiz-adv-x="726" 
d="M260 710v-287c144 0 189 34 189 115h35v-273h-35c0 80 -39 117 -189 118v-226c0 -87 40 -114 166 -114c141 0 191 36 217 154h38l-15 -197h-621v38c94 3 110 20 110 114v466c0 93 -14 110 -100 114v38h578l9 -176h-35c-16 106 -67 133 -203 133h-127
c-11 0 -17 -7 -17 -17zM514 880h-270v50h270v-50z" />
    <glyph glyph-name="emacron" unicode="&#x113;" horiz-adv-x="573" 
d="M491 121l31 -28c-58 -70 -126 -103 -211 -103c-156 0 -262 109 -262 269c0 164 113 281 274 281c128 0 203 -73 203 -203c0 -18 -4 -20 -31 -20h-329c-3 -11 -4 -27 -4 -45c0 -139 70 -230 177 -230c55 0 102 24 152 79zM173 363h184c54 0 60 4 60 28
c0 61 -43 101 -110 101c-71 0 -117 -44 -134 -129zM448 702h-270v50h270v-50z" />
    <glyph glyph-name="Ebreve" unicode="&#x114;" horiz-adv-x="726" 
d="M260 710v-287c144 0 189 34 189 115h35v-273h-35c0 80 -39 117 -189 118v-226c0 -87 40 -114 166 -114c141 0 191 36 217 154h38l-15 -197h-621v38c94 3 110 20 110 114v466c0 93 -14 110 -100 114v38h578l9 -176h-35c-16 106 -67 133 -203 133h-127
c-11 0 -17 -7 -17 -17zM480 960h37c-5 -67 -63 -115 -138 -115c-77 0 -135 49 -138 115h36c11 -28 51 -46 101 -46s91 18 102 46z" />
    <glyph glyph-name="ebreve" unicode="&#x115;" horiz-adv-x="573" 
d="M491 121l31 -28c-58 -70 -126 -103 -211 -103c-156 0 -262 109 -262 269c0 164 113 281 274 281c128 0 203 -73 203 -203c0 -18 -4 -20 -31 -20h-329c-3 -11 -4 -27 -4 -45c0 -139 70 -230 177 -230c55 0 102 24 152 79zM173 363h184c54 0 60 4 60 28
c0 61 -43 101 -110 101c-71 0 -117 -44 -134 -129zM414 776h37c-5 -76 -63 -130 -138 -130c-77 0 -135 55 -138 130h36c12 -37 52 -61 101 -61c50 0 91 24 102 61z" />
    <glyph glyph-name="Edotaccent" unicode="&#x116;" horiz-adv-x="726" 
d="M260 710v-287c144 0 189 34 189 115h35v-273h-35c0 80 -39 117 -189 118v-226c0 -87 40 -114 166 -114c141 0 191 36 217 154h38l-15 -197h-621v38c94 3 110 20 110 114v466c0 93 -14 110 -100 114v38h578l9 -176h-35c-16 106 -67 133 -203 133h-127
c-11 0 -17 -7 -17 -17zM306 904c0 31 24 55 52 55c31 0 55 -24 55 -55c0 -28 -24 -52 -55 -52c-28 0 -52 24 -52 52z" />
    <glyph glyph-name="edotaccent" unicode="&#x117;" horiz-adv-x="573" 
d="M491 121l31 -28c-58 -70 -126 -103 -211 -103c-156 0 -262 109 -262 269c0 164 113 281 274 281c128 0 203 -73 203 -203c0 -18 -4 -20 -31 -20h-329c-3 -11 -4 -27 -4 -45c0 -139 70 -230 177 -230c55 0 102 24 152 79zM173 363h184c54 0 60 4 60 28
c0 61 -43 101 -110 101c-71 0 -117 -44 -134 -129zM251 743c0 35 27 62 62 62s62 -27 62 -62s-27 -62 -62 -62s-62 27 -62 62z" />
    <glyph glyph-name="Eogonek" unicode="&#x118;" horiz-adv-x="726" 
d="M454 -121l29 -31c-47 -61 -99 -82 -157 -82c-61 0 -97 32 -97 85c0 57 45 112 123 149h-307v38c94 3 110 20 110 114v466c0 93 -14 110 -100 114v38h578l9 -176h-35c-16 106 -67 133 -203 133h-127c-11 0 -17 -7 -17 -17v-287c144 0 189 34 189 115h35v-273h-35
c0 80 -39 117 -189 118v-226c0 -87 40 -114 166 -114c141 0 191 36 217 154h38l-15 -197h-249c-65 -35 -109 -87 -109 -126c0 -27 19 -48 51 -48c25 0 60 17 95 53z" />
    <glyph glyph-name="eogonek" unicode="&#x119;" horiz-adv-x="573" 
d="M371 -121l29 -31c-47 -61 -99 -82 -157 -82c-61 0 -97 32 -97 85c0 55 41 107 112 144c-126 21 -209 122 -209 264c0 164 113 281 274 281c128 0 203 -73 203 -203c0 -18 -4 -20 -31 -20h-329c-3 -11 -4 -27 -4 -45c0 -139 70 -230 177 -230c55 0 102 24 152 79l31 -28
c-57 -69 -123 -101 -205 -103c-56 -34 -92 -80 -92 -116c0 -27 19 -48 51 -48c25 0 60 17 95 53zM173 363h184c54 0 60 4 60 28c0 61 -43 101 -110 101c-71 0 -117 -44 -134 -129z" />
    <glyph glyph-name="Ecaron" unicode="&#x11a;" horiz-adv-x="726" 
d="M260 710v-287c144 0 189 34 189 115h35v-273h-35c0 80 -39 117 -189 118v-226c0 -87 40 -114 166 -114c141 0 191 36 217 154h38l-15 -197h-621v38c94 3 110 20 110 114v466c0 93 -14 110 -100 114v38h578l9 -176h-35c-16 106 -67 133 -203 133h-127
c-11 0 -17 -7 -17 -17zM434 851h-110l-109 109h45l119 -54l119 54h45z" />
    <glyph glyph-name="ecaron" unicode="&#x11b;" horiz-adv-x="573" 
d="M491 121l31 -28c-58 -70 -126 -103 -211 -103c-156 0 -262 109 -262 269c0 164 113 281 274 281c128 0 203 -73 203 -203c0 -18 -4 -20 -31 -20h-329c-3 -11 -4 -27 -4 -45c0 -139 70 -230 177 -230c55 0 102 24 152 79zM173 363h184c54 0 60 4 60 28
c0 61 -43 101 -110 101c-71 0 -117 -44 -134 -129zM358 651h-90l-119 129h45l119 -68l119 68h45z" />
    <glyph glyph-name="Gcircumflex" unicode="&#x11c;" horiz-adv-x="870" 
d="M428 -10c-226 0 -368 149 -368 382c0 242 156 408 383 408c80 0 146 -21 228 -72l21 62h35l-13 -230h-48c0 130 -106 188 -214 188c-162 0 -258 -132 -258 -350c0 -214 93 -334 261 -334c129 0 204 67 204 141c0 78 -29 99 -100 99v38h284v-38c-65 0 -82 -20 -82 -89
v-112c-51 0 -77 -6 -153 -49c-46 -26 -109 -44 -180 -44zM391 960h110l109 -109h-45l-119 54l-119 -54h-45z" />
    <glyph glyph-name="gcircumflex" unicode="&#x11d;" horiz-adv-x="599" 
d="M274 215c56 0 89 54 89 145c0 90 -33 143 -90 143s-94 -55 -94 -142c0 -88 38 -146 95 -146zM219 98c64 -5 104 -10 165 -19c96 -14 159 -78 159 -167c0 -111 -92 -172 -259 -172c-149 0 -252 57 -252 140c0 56 40 100 89 100c23 0 43 -7 61 -21c-36 -8 -61 -43 -61 -83
c0 -58 61 -92 167 -92c114 0 171 35 171 105c0 53 -42 91 -91 98c-63 9 -143 18 -179 22c-74 8 -114 41 -114 96c0 47 43 87 102 96v4c-59 24 -103 90 -103 159c0 101 83 176 197 176c58 0 113 -19 150 -53c45 37 79 53 109 53c48 0 79 -24 79 -61c0 -22 -17 -37 -40 -37
c-37 0 -42 31 -75 31c-16 0 -33 -6 -49 -17c17 -26 24 -54 24 -93c0 -112 -72 -180 -212 -190c-81 -6 -109 -14 -109 -42c0 -21 25 -30 71 -33zM246 780h90l119 -129h-45l-119 68l-119 -68h-45z" />
    <glyph glyph-name="Gbreve" unicode="&#x11e;" horiz-adv-x="870" 
d="M428 -10c-226 0 -368 149 -368 382c0 242 156 408 383 408c80 0 146 -21 228 -72l21 62h35l-13 -230h-48c0 130 -106 188 -214 188c-162 0 -258 -132 -258 -350c0 -214 93 -334 261 -334c129 0 204 67 204 141c0 78 -29 99 -100 99v38h284v-38c-65 0 -82 -20 -82 -89
v-112c-51 0 -77 -6 -153 -49c-46 -26 -109 -44 -180 -44zM547 960h37c-5 -67 -63 -115 -138 -115c-77 0 -135 49 -138 115h36c11 -28 51 -46 101 -46s91 18 102 46z" />
    <glyph glyph-name="gbreve" unicode="&#x11f;" horiz-adv-x="599" 
d="M274 215c56 0 89 54 89 145c0 90 -33 143 -90 143s-94 -55 -94 -142c0 -88 38 -146 95 -146zM219 98c64 -5 104 -10 165 -19c96 -14 159 -78 159 -167c0 -111 -92 -172 -259 -172c-149 0 -252 57 -252 140c0 56 40 100 89 100c23 0 43 -7 61 -21c-36 -8 -61 -43 -61 -83
c0 -58 61 -92 167 -92c114 0 171 35 171 105c0 53 -42 91 -91 98c-63 9 -143 18 -179 22c-74 8 -114 41 -114 96c0 47 43 87 102 96v4c-59 24 -103 90 -103 159c0 101 83 176 197 176c58 0 113 -19 150 -53c45 37 79 53 109 53c48 0 79 -24 79 -61c0 -22 -17 -37 -40 -37
c-37 0 -42 31 -75 31c-16 0 -33 -6 -49 -17c17 -26 24 -54 24 -93c0 -112 -72 -180 -212 -190c-81 -6 -109 -14 -109 -42c0 -21 25 -30 71 -33zM383 776h37c-5 -76 -63 -130 -138 -130c-77 0 -135 55 -138 130h36c12 -37 52 -61 101 -61c50 0 91 24 102 61z" />
    <glyph glyph-name="Gdotaccent" unicode="&#x120;" horiz-adv-x="870" 
d="M428 -10c-226 0 -368 149 -368 382c0 242 156 408 383 408c80 0 146 -21 228 -72l21 62h35l-13 -230h-48c0 130 -106 188 -214 188c-162 0 -258 -132 -258 -350c0 -214 93 -334 261 -334c129 0 204 67 204 141c0 78 -29 99 -100 99v38h284v-38c-65 0 -82 -20 -82 -89
v-112c-51 0 -77 -6 -153 -49c-46 -26 -109 -44 -180 -44zM394 904c0 31 24 55 52 55c31 0 55 -24 55 -55c0 -28 -24 -52 -55 -52c-28 0 -52 24 -52 52z" />
    <glyph glyph-name="gdotaccent" unicode="&#x121;" horiz-adv-x="599" 
d="M274 215c56 0 89 54 89 145c0 90 -33 143 -90 143s-94 -55 -94 -142c0 -88 38 -146 95 -146zM219 98c64 -5 104 -10 165 -19c96 -14 159 -78 159 -167c0 -111 -92 -172 -259 -172c-149 0 -252 57 -252 140c0 56 40 100 89 100c23 0 43 -7 61 -21c-36 -8 -61 -43 -61 -83
c0 -58 61 -92 167 -92c114 0 171 35 171 105c0 53 -42 91 -91 98c-63 9 -143 18 -179 22c-74 8 -114 41 -114 96c0 47 43 87 102 96v4c-59 24 -103 90 -103 159c0 101 83 176 197 176c58 0 113 -19 150 -53c45 37 79 53 109 53c48 0 79 -24 79 -61c0 -22 -17 -37 -40 -37
c-37 0 -42 31 -75 31c-16 0 -33 -6 -49 -17c17 -26 24 -54 24 -93c0 -112 -72 -180 -212 -190c-81 -6 -109 -14 -109 -42c0 -21 25 -30 71 -33zM224 743c0 35 27 62 62 62s62 -27 62 -62s-27 -62 -62 -62s-62 27 -62 62z" />
    <glyph glyph-name="Gcommaaccent" unicode="&#x122;" horiz-adv-x="870" 
d="M428 -10c-226 0 -368 149 -368 382c0 242 156 408 383 408c80 0 146 -21 228 -72l21 62h35l-13 -230h-48c0 130 -106 188 -214 188c-162 0 -258 -132 -258 -350c0 -214 93 -334 261 -334c129 0 204 67 204 141c0 78 -29 99 -100 99v38h284v-38c-65 0 -82 -20 -82 -89
v-112c-51 0 -77 -6 -153 -49c-46 -26 -109 -44 -180 -44zM397 -250l-22 26c45 25 65 49 65 78c-6 -5 -15 -8 -26 -8c-26 0 -44 19 -44 47c0 31 24 53 59 53c40 0 63 -29 63 -79c0 -43 -26 -80 -95 -117z" />
    <glyph glyph-name="gcommaaccent" unicode="&#x123;" horiz-adv-x="599" 
d="M322 847l22 -26c-45 -25 -65 -49 -65 -78c6 5 15 8 26 8c26 0 44 -19 44 -47c0 -31 -24 -53 -59 -53c-40 0 -63 29 -63 73c0 43 26 86 95 123zM274 215c56 0 89 54 89 145c0 90 -33 143 -90 143s-94 -55 -94 -142c0 -88 38 -146 95 -146zM219 98c64 -5 104 -10 165 -19
c96 -14 159 -78 159 -167c0 -111 -92 -172 -259 -172c-149 0 -252 57 -252 140c0 56 40 100 89 100c23 0 43 -7 61 -21c-36 -8 -61 -43 -61 -83c0 -58 61 -92 167 -92c114 0 171 35 171 105c0 53 -42 91 -91 98c-63 9 -143 18 -179 22c-74 8 -114 41 -114 96
c0 47 43 87 102 96v4c-59 24 -103 90 -103 159c0 101 83 176 197 176c58 0 113 -19 150 -53c45 37 79 53 109 53c48 0 79 -24 79 -61c0 -22 -17 -37 -40 -37c-37 0 -42 31 -75 31c-16 0 -33 -6 -49 -17c17 -26 24 -54 24 -93c0 -112 -72 -180 -212 -190
c-81 -6 -109 -14 -109 -42c0 -21 25 -30 71 -33z" />
    <glyph glyph-name="Hcircumflex" unicode="&#x124;" horiz-adv-x="925" 
d="M770 611v-452c0 -102 15 -118 109 -121v-38h-324v38c94 3 110 20 110 114v217h-405v-210c0 -102 15 -118 109 -121v-38h-324v38c94 3 110 20 110 114v466c0 93 -14 110 -100 114v38h304v-38c-86 -3 -99 -20 -99 -121v-192h405v199c0 93 -14 110 -100 114v38h304v-38
c-86 -3 -99 -20 -99 -121zM409 960h110l109 -109h-45l-119 54l-119 -54h-45z" />
    <glyph glyph-name="hcircumflex" unicode="&#x125;" horiz-adv-x="688" 
d="M208 287v-128c0 -110 6 -119 82 -124v-35h-266v35c77 5 86 16 86 117v419c0 78 -2 123 -7 147c-6 32 -21 40 -81 40v34l184 38v-381h4c41 53 123 91 196 91c61 0 116 -23 144 -59c23 -30 33 -77 33 -162v-160c0 -109 6 -119 82 -124v-35h-265v35c76 4 84 16 84 117v126
c0 150 -31 207 -113 207c-62 0 -117 -34 -146 -90c-14 -28 -17 -47 -17 -108zM341 780h90l119 -129h-45l-119 68l-119 -68h-45z" />
    <glyph glyph-name="Hbar" unicode="&#x126;" horiz-adv-x="927" 
d="M771 611v-20h79v-50h-79v-382c0 -102 15 -118 109 -121v-38h-324v38c94 3 110 20 110 114v217h-405v-210c0 -102 15 -118 109 -121v-38h-324v38c94 3 110 20 110 114v389h-80v50h80v27c0 93 -14 110 -100 114v38h304v-38c-86 -3 -99 -20 -99 -121v-20h405v27
c0 93 -14 110 -100 114v38h304v-38c-86 -3 -99 -20 -99 -121zM261 419h405v122h-405v-122z" />
    <glyph glyph-name="hbar" unicode="&#x127;" horiz-adv-x="688" 
d="M208 287v-128c0 -110 6 -119 82 -124v-35h-266v35c77 5 86 16 86 117v446h-87v53h86c-1 31 -3 53 -6 67c-6 32 -21 40 -81 40v34l184 38v-179h96v-53h-96v-149h4c41 53 123 91 196 91c61 0 116 -23 144 -59c23 -30 33 -77 33 -162v-160c0 -109 6 -119 82 -124v-35h-265
v35c76 4 84 16 84 117v126c0 150 -31 207 -113 207c-62 0 -117 -34 -146 -90c-14 -28 -17 -47 -17 -108z" />
    <glyph glyph-name="Itilde" unicode="&#x128;" horiz-adv-x="415" 
d="M260 581v-392c0 -132 15 -148 109 -151v-38h-324v38c94 3 110 20 110 144v406c0 113 -14 140 -100 144v38h304v-38c-86 -3 -99 -30 -99 -151zM69 846h-34c11 68 54 114 106 114c53 0 104 -46 155 -46c25 0 37 11 47 42h33c-7 -67 -50 -118 -100 -118
c-53 0 -108 48 -162 48c-25 0 -36 -10 -45 -40z" />
    <glyph glyph-name="itilde" unicode="&#x129;" horiz-adv-x="341" 
d="M228 540v-378c0 -104 14 -122 93 -125v-37h-287v37c81 4 96 23 96 117v124c0 77 -2 128 -7 146c-6 32 -25 41 -91 41v37zM36 660h-34c11 68 54 114 106 114c53 0 104 -46 155 -46c25 0 37 11 47 42h33c-7 -67 -50 -118 -100 -118c-53 0 -108 48 -162 48
c-25 0 -36 -10 -45 -40z" />
    <glyph glyph-name="Imacron" unicode="&#x12a;" horiz-adv-x="415" 
d="M260 581v-392c0 -132 15 -148 109 -151v-38h-324v38c94 3 110 20 110 144v406c0 113 -14 140 -100 144v38h304v-38c-86 -3 -99 -30 -99 -151zM341 880h-270v50h270v-50z" />
    <glyph glyph-name="imacron" unicode="&#x12b;" horiz-adv-x="341" 
d="M228 540v-378c0 -104 14 -122 93 -125v-37h-287v37c81 4 96 23 96 117v124c0 77 -2 128 -7 146c-6 32 -25 41 -91 41v37zM315 702h-270v50h270v-50z" />
    <glyph glyph-name="Ibreve" unicode="&#x12c;" horiz-adv-x="415" 
d="M260 581v-392c0 -132 15 -148 109 -151v-38h-324v38c94 3 110 20 110 144v406c0 113 -14 140 -100 144v38h304v-38c-86 -3 -99 -30 -99 -151zM307 960h37c-5 -67 -63 -115 -138 -115c-77 0 -135 49 -138 115h36c11 -28 51 -46 101 -46s91 18 102 46z" />
    <glyph glyph-name="ibreve" unicode="&#x12d;" horiz-adv-x="341" 
d="M228 540v-378c0 -104 14 -122 93 -125v-37h-287v37c81 4 96 23 96 117v124c0 77 -2 128 -7 146c-6 32 -25 41 -91 41v37zM281 776h37c-5 -76 -63 -130 -138 -130c-77 0 -135 55 -138 130h36c12 -37 52 -61 101 -61c50 0 91 24 102 61z" />
    <glyph glyph-name="Iogonek" unicode="&#x12e;" horiz-adv-x="415" 
d="M283 -121l29 -31c-47 -61 -99 -82 -157 -82c-61 0 -97 32 -97 85c0 57 45 112 123 149h-136v38c94 3 110 20 110 144v406c0 113 -14 140 -100 144v38h304v-38c-86 -3 -99 -30 -99 -151v-392c0 -132 15 -148 109 -151v-38h-123c-65 -35 -109 -87 -109 -126
c0 -27 19 -48 51 -48c25 0 60 17 95 53z" />
    <glyph glyph-name="iogonek" unicode="&#x12f;" horiz-adv-x="341" 
d="M238 -121l29 -31c-47 -61 -99 -82 -157 -82c-61 0 -97 32 -97 85c0 57 45 112 123 149h-102v35c81 4 96 23 96 117v128c0 77 -2 129 -7 147c-6 31 -25 40 -91 40v35l196 38v-381c0 -103 14 -121 93 -124v-35h-120c-65 -35 -109 -87 -109 -126c0 -27 19 -48 51 -48
c25 0 60 17 95 53zM113 743c0 35 27 62 62 62s62 -27 62 -62s-27 -62 -62 -62s-62 27 -62 62z" />
    <glyph glyph-name="Idotaccent" unicode="&#x130;" horiz-adv-x="415" 
d="M260 581v-392c0 -132 15 -148 109 -151v-38h-324v38c94 3 110 20 110 144v406c0 113 -14 140 -100 144v38h304v-38c-86 -3 -99 -30 -99 -151zM155 904c0 31 24 55 52 55c31 0 55 -24 55 -55c0 -28 -24 -52 -55 -52c-28 0 -52 24 -52 52z" />
    <glyph glyph-name="dotlessi" unicode="&#x131;" horiz-adv-x="341" 
d="M228 540v-378c0 -104 14 -122 93 -125v-37h-287v37c81 4 96 23 96 117v124c0 77 -2 128 -7 146c-6 32 -25 41 -91 41v37z" />
    <glyph glyph-name="IJ" unicode="&#x132;" horiz-adv-x="809" 
d="M260 581v-392c0 -132 15 -148 109 -151v-38h-324v38c94 3 110 20 110 144v406c0 113 -14 140 -100 144v38h304v-38c-86 -3 -99 -30 -99 -151zM560 -43v661c0 93 -14 110 -100 114v38h304v-38c-86 -3 -99 -20 -99 -121v-613c0 -167 -73 -258 -208 -258
c-91 0 -152 39 -152 97c0 34 19 53 51 53c25 0 37 -10 57 -47c23 -43 36 -55 62 -55c54 0 85 62 85 169z" />
    <glyph glyph-name="ij" unicode="&#x133;" horiz-adv-x="645" 
d="M228 540v-381c0 -103 14 -121 93 -124v-35h-287v35c81 4 96 23 96 117v128c0 77 -2 129 -7 147c-6 31 -25 40 -91 40v35zM113 743c0 35 27 62 62 62s62 -27 62 -62s-27 -62 -62 -62s-62 27 -62 62zM554 540v-542c0 -166 -73 -258 -205 -258c-85 0 -145 38 -145 93
c0 30 19 47 51 47c24 0 32 -7 52 -47c19 -40 30 -50 63 -50c64 0 86 38 86 149v348c0 77 -2 129 -7 147c-6 31 -25 40 -91 40v35zM441 743c0 35 27 62 62 62s62 -27 62 -62s-27 -62 -62 -62s-62 27 -62 62z" />
    <glyph glyph-name="Jcircumflex" unicode="&#x134;" horiz-adv-x="394" 
d="M145 -43v661c0 93 -14 110 -100 114v38h304v-38c-86 -3 -99 -20 -99 -121v-613c0 -167 -73 -258 -208 -258c-91 0 -152 39 -152 97c0 34 19 53 51 53c25 0 37 -10 57 -47c23 -43 36 -55 62 -55c54 0 85 62 85 169zM144 960h110l109 -109h-45l-119 54l-119 -54h-45z" />
    <glyph glyph-name="jcircumflex" unicode="&#x135;" horiz-adv-x="304" 
d="M213 540v-542c0 -166 -73 -258 -205 -258c-85 0 -145 38 -145 93c0 30 19 47 51 47c24 0 32 -7 52 -47c19 -40 30 -50 63 -50c64 0 86 38 86 149v348c0 77 -2 129 -7 147c-6 31 -25 40 -91 40v35zM117 780h90l119 -129h-45l-119 68l-119 -68h-45z" />
    <glyph glyph-name="Kcommaaccent" unicode="&#x136;" horiz-adv-x="779" 
d="M260 285v-126c0 -102 17 -121 109 -121v-38h-324v38c93 0 110 20 110 114v466c0 102 -21 114 -100 114v38h304v-38c-80 0 -99 -15 -99 -121v-247l250 301c13 16 20 29 20 39c0 18 -19 28 -57 28v38h241v-37c-53 0 -76 -10 -132 -75l-188 -217l292 -351
c33 -39 57 -52 106 -52v-38h-307v38c52 0 73 8 73 27c0 11 -10 31 -34 60l-195 240zM378 -250l-22 26c45 25 65 49 65 78c-6 -5 -15 -8 -26 -8c-26 0 -44 19 -44 47c0 31 24 53 59 53c40 0 63 -29 63 -79c0 -43 -26 -80 -95 -117z" />
    <glyph glyph-name="kcommaaccent" unicode="&#x137;" horiz-adv-x="616" 
d="M348 0v35c44 0 58 4 58 11c-1 10 -23 40 -55 79l-106 128l-37 -35v-59c0 -103 13 -121 93 -124v-35h-284v35c80 3 96 22 96 117v419c0 101 0 150 -12 168c-12 19 -39 19 -86 19v34l193 38v-549l93 91c60 59 89 85 89 99s-29 24 -81 24v35h260v-35c-50 0 -69 -10 -118 -53
l-144 -128l198 -224c38 -44 55 -55 106 -55v-35h-263zM292 -250l-22 26c45 25 65 49 65 78c-6 -5 -15 -8 -26 -8c-26 0 -44 19 -44 47c0 31 24 53 59 53c40 0 63 -29 63 -79c0 -43 -26 -80 -95 -117z" />
    <glyph glyph-name="kgreenlandic" unicode="&#x138;" horiz-adv-x="633" 
d="M365 0v35c42 0 52 3 52 15s-10 28 -49 75l-106 128l-37 -35v-59c0 -104 15 -124 93 -124v-35h-284v35c79 0 96 21 96 117v208c0 106 -10 118 -98 118v34l193 38v-269l93 91c65 63 86 88 86 103s-20 20 -78 20v35h260v-35c-49 0 -68 -9 -118 -53l-144 -128l198 -224
c39 -44 62 -55 106 -55v-35h-263z" />
    <glyph glyph-name="Lacute" unicode="&#x139;" horiz-adv-x="727" 
d="M706 197l-15 -197h-646v38c94 3 110 20 110 114v466c0 93 -14 110 -100 114v38h304v-38c-86 -3 -99 -20 -99 -121v-431c0 -112 40 -135 178 -135c153 0 201 28 230 152h38zM166 850h-60l130 77c37 22 60 33 87 33c23 0 38 -13 38 -35c0 -21 -30 -37 -75 -47z" />
    <glyph glyph-name="lacute" unicode="&#x13a;" horiz-adv-x="325" 
d="M209 810v-654c0 -101 12 -118 89 -121v-35h-276v35c79 4 94 22 94 114v411c0 72 -2 123 -6 140c-7 31 -26 39 -90 39v34zM123 850h-60l130 77c37 22 60 33 87 33c23 0 38 -13 38 -35c0 -21 -30 -37 -75 -47z" />
    <glyph glyph-name="Lcommaaccent" unicode="&#x13b;" horiz-adv-x="727" 
d="M706 197l-15 -197h-646v38c94 3 110 20 110 114v466c0 93 -14 110 -100 114v38h304v-38c-86 -3 -99 -20 -99 -121v-431c0 -112 40 -135 178 -135c153 0 201 28 230 152h38zM347 -250l-22 26c45 25 65 49 65 78c-6 -5 -15 -8 -26 -8c-26 0 -44 19 -44 47c0 31 24 53 59 53
c40 0 63 -29 63 -79c0 -43 -26 -80 -95 -117z" />
    <glyph glyph-name="lcommaaccent" unicode="&#x13c;" horiz-adv-x="325" 
d="M209 830v-674c0 -101 12 -118 89 -121v-35h-276v35c79 4 94 22 94 114v431c0 72 -2 123 -6 140c-7 31 -26 39 -90 39v34zM130 -250l-22 26c45 25 65 49 65 78c-6 -5 -15 -8 -26 -8c-26 0 -44 19 -44 47c0 31 24 53 59 53c40 0 63 -29 63 -79c0 -43 -26 -80 -95 -117z" />
    <glyph glyph-name="Lcaron" unicode="&#x13d;" horiz-adv-x="727" 
d="M706 197l-15 -197h-646v38c94 3 110 20 110 114v466c0 93 -14 110 -100 114v38h304v-38c-86 -3 -99 -20 -99 -121v-431c0 -112 40 -135 178 -135c153 0 201 28 230 152h38zM261 851h-110l-109 109h45l119 -54l119 54h45z" />
    <glyph glyph-name="lcaron" unicode="&#x13e;" horiz-adv-x="325" 
d="M209 830v-674c0 -101 12 -118 89 -121v-35h-276v35c79 4 94 22 94 114v431c0 72 -2 123 -6 140c-7 31 -26 39 -90 39v34zM316 584l-22 26c45 25 65 49 65 78c-6 -5 -15 -8 -26 -8c-26 0 -44 19 -44 47c0 31 24 53 59 53c40 0 63 -29 63 -79c0 -43 -26 -80 -95 -117z" />
    <glyph glyph-name="Ldot" unicode="&#x13f;" horiz-adv-x="727" 
d="M706 197l-15 -197h-646v38c94 3 110 20 110 114v466c0 93 -14 110 -100 114v38h304v-38c-86 -3 -99 -20 -99 -121v-431c0 -112 40 -135 178 -135c153 0 201 28 230 152h38zM392 401c0 37 29 66 65 66c37 0 66 -29 66 -66c0 -36 -29 -65 -66 -65c-36 0 -65 29 -65 65z" />
    <glyph glyph-name="ldot" unicode="&#x140;" horiz-adv-x="403" 
d="M209 830v-674c0 -101 12 -118 89 -121v-35h-276v35c79 4 94 22 94 114v431c0 72 -2 123 -6 140c-7 31 -26 39 -90 39v34zM296 416c0 37 29 66 65 66c37 0 66 -29 66 -66c0 -36 -29 -65 -66 -65c-36 0 -65 29 -65 65z" />
    <glyph glyph-name="Lslash" unicode="&#x141;" horiz-adv-x="728" 
d="M707 197l-15 -197h-646v38c94 3 110 20 110 114v171l-90 -56v60l90 56v235c0 93 -14 110 -100 114v38h304v-38c-86 -3 -99 -20 -99 -121v-162l129 81v-60l-129 -81v-209c0 -112 40 -135 178 -135c153 0 201 28 230 152h38z" />
    <glyph glyph-name="lslash" unicode="&#x142;" horiz-adv-x="327" 
d="M210 830v-365l79 49v-65l-79 -49v-244c0 -101 12 -118 89 -121v-35h-276v35c79 4 94 22 94 114v193l-80 -50v65l80 50v173c0 72 -2 123 -6 140c-7 31 -26 39 -90 39v34z" />
    <glyph glyph-name="Nacute" unicode="&#x143;" horiz-adv-x="902" 
d="M754 -10h-60l-475 626h-4v-427c0 -132 14 -148 99 -151v-38h-269v38c94 3 110 20 110 144v406c0 113 -14 140 -100 144v38h198l437 -583h4v394c0 132 -14 148 -99 151v38h269v-38c-94 -3 -110 -20 -110 -144v-598zM424 850h-60l130 77c37 22 60 33 87 33
c23 0 38 -13 38 -35c0 -21 -30 -37 -75 -47z" />
    <glyph glyph-name="nacute" unicode="&#x144;" horiz-adv-x="689" 
d="M216 291v-134c0 -108 6 -118 83 -123v-34h-262v34c74 5 84 16 84 116v133c0 78 -2 128 -6 145c-8 36 -22 42 -80 42v32l160 38l12 -99h4c50 62 121 99 200 99c61 0 115 -22 142 -56c23 -31 31 -75 31 -160v-167c0 -108 8 -118 81 -123v-34h-259v34c75 4 83 17 83 116v132
c0 151 -31 204 -114 204c-59 0 -113 -34 -141 -88c-14 -27 -18 -44 -18 -107zM310 651h-47l130 119c25 23 46 33 67 33c23 0 38 -13 38 -35c0 -21 -19 -37 -51 -52z" />
    <glyph glyph-name="Ncommaaccent" unicode="&#x145;" horiz-adv-x="902" 
d="M754 -10h-60l-475 626h-4v-427c0 -132 14 -148 99 -151v-38h-269v38c94 3 110 20 110 144v406c0 113 -14 140 -100 144v38h198l437 -583h4v394c0 132 -14 148 -99 151v38h269v-38c-94 -3 -110 -20 -110 -144v-598zM425 -250l-22 26c45 25 65 49 65 78
c-6 -5 -15 -8 -26 -8c-26 0 -44 19 -44 47c0 31 24 53 59 53c40 0 63 -29 63 -79c0 -43 -26 -80 -95 -117z" />
    <glyph glyph-name="ncommaaccent" unicode="&#x146;" horiz-adv-x="689" 
d="M216 291v-134c0 -108 6 -118 83 -123v-34h-262v34c74 5 84 16 84 116v133c0 78 -2 128 -6 145c-8 36 -22 42 -80 42v32l160 38l12 -99h4c50 62 121 99 200 99c61 0 115 -22 142 -56c23 -31 31 -75 31 -160v-167c0 -108 8 -118 81 -123v-34h-259v34c75 4 83 17 83 116v132
c0 151 -31 204 -114 204c-59 0 -113 -34 -141 -88c-14 -27 -18 -44 -18 -107zM319 -250l-22 26c45 25 65 49 65 78c-6 -5 -15 -8 -26 -8c-26 0 -44 19 -44 47c0 31 24 53 59 53c40 0 63 -29 63 -79c0 -43 -26 -80 -95 -117z" />
    <glyph glyph-name="Ncaron" unicode="&#x147;" horiz-adv-x="902" 
d="M754 -10h-60l-475 626h-4v-427c0 -132 14 -148 99 -151v-38h-269v38c94 3 110 20 110 144v406c0 113 -14 140 -100 144v38h198l437 -583h4v394c0 132 -14 148 -99 151v38h269v-38c-94 -3 -110 -20 -110 -144v-598zM519 851h-110l-109 109h45l119 -54l119 54h45z" />
    <glyph glyph-name="ncaron" unicode="&#x148;" horiz-adv-x="689" 
d="M216 291v-134c0 -108 6 -118 83 -123v-34h-262v34c74 5 84 16 84 116v133c0 78 -2 128 -6 145c-8 36 -22 42 -80 42v32l160 38l12 -99h4c50 62 121 99 200 99c61 0 115 -22 142 -56c23 -31 31 -75 31 -160v-167c0 -108 8 -118 81 -123v-34h-259v34c75 4 83 17 83 116v132
c0 151 -31 204 -114 204c-59 0 -113 -34 -141 -88c-14 -27 -18 -44 -18 -107zM398 651h-90l-119 129h45l119 -68l119 68h45z" />
    <glyph glyph-name="napostrophe" unicode="&#x149;" horiz-adv-x="759" 
d="M286 291v-134c0 -108 6 -118 83 -123v-34h-262v34c74 5 84 16 84 116v133c0 78 -2 128 -6 145c-8 36 -22 42 -80 42v32l160 38l12 -99h4c50 62 121 99 200 99c61 0 115 -22 142 -56c23 -31 31 -75 31 -160v-167c0 -108 8 -118 81 -123v-34h-259v34c75 4 83 17 83 116v132
c0 151 -31 204 -114 204c-59 0 -113 -34 -141 -88c-14 -27 -18 -44 -18 -107zM90 611h-29c-10 56 -33 147 -33 170c0 28 20 49 47 49s47 -21 47 -50c0 -23 -22 -113 -32 -169z" />
    <glyph glyph-name="Eng" unicode="&#x14a;" horiz-adv-x="902" 
d="M694 -43v33l-475 626h-4v-427c0 -132 14 -148 99 -151v-38h-269v38c94 3 110 20 110 144v406c0 113 -14 140 -100 144v38h198l437 -583h4v394c0 132 -14 148 -99 151v38h269v-38c-94 -3 -110 -20 -110 -144v-598c0 -162 -75 -250 -208 -250c-91 0 -152 39 -152 97
c0 34 19 53 51 53c25 0 37 -10 57 -47c23 -43 36 -55 62 -55c82 0 130 62 130 169z" />
    <glyph glyph-name="eng" unicode="&#x14b;" horiz-adv-x="664" 
d="M216 291v-134c0 -108 6 -118 83 -123v-34h-262v34c74 5 84 16 84 116v133c0 78 -2 128 -6 145c-8 36 -22 42 -80 42v32l160 38l12 -99h4c50 62 121 99 200 99c61 0 115 -22 142 -56c23 -31 31 -75 31 -160v-326c0 -166 -73 -258 -205 -258c-85 0 -145 38 -145 93
c0 30 19 47 51 47c24 0 32 -7 52 -47c19 -40 30 -50 63 -50c64 0 89 38 89 149v350c0 151 -31 204 -114 204c-59 0 -113 -34 -141 -88c-14 -27 -18 -44 -18 -107z" />
    <glyph glyph-name="Omacron" unicode="&#x14c;" horiz-adv-x="946" 
d="M473 780c234 0 416 -175 416 -401c0 -217 -184 -389 -416 -389s-416 172 -416 389c0 226 182 401 416 401zM473 45c175 0 286 128 286 331c0 214 -110 349 -286 349s-286 -135 -286 -349c0 -203 110 -331 286 -331zM609 880h-270v50h270v-50z" />
    <glyph glyph-name="omacron" unicode="&#x14d;" horiz-adv-x="654" 
d="M325 540c152 0 281 -114 281 -271c0 -162 -129 -279 -281 -279c-150 0 -277 116 -277 279c0 158 127 271 277 271zM325 492c-99 0 -164 -90 -164 -224c0 -138 64 -227 164 -227c102 0 168 90 168 227c0 133 -67 224 -168 224zM460 702h-270v50h270v-50z" />
    <glyph glyph-name="Obreve" unicode="&#x14e;" horiz-adv-x="946" 
d="M473 780c234 0 416 -175 416 -401c0 -217 -184 -389 -416 -389s-416 172 -416 389c0 226 182 401 416 401zM473 45c175 0 286 128 286 331c0 214 -110 349 -286 349s-286 -135 -286 -349c0 -203 110 -331 286 -331zM575 960h37c-5 -67 -63 -115 -138 -115
c-77 0 -135 49 -138 115h36c11 -28 51 -46 101 -46s91 18 102 46z" />
    <glyph glyph-name="obreve" unicode="&#x14f;" horiz-adv-x="654" 
d="M325 540c152 0 281 -114 281 -271c0 -162 -129 -279 -281 -279c-150 0 -277 116 -277 279c0 158 127 271 277 271zM325 492c-99 0 -164 -90 -164 -224c0 -138 64 -227 164 -227c102 0 168 90 168 227c0 133 -67 224 -168 224zM426 776h37c-5 -76 -63 -130 -138 -130
c-77 0 -135 55 -138 130h36c12 -37 52 -61 101 -61c50 0 91 24 102 61z" />
    <glyph glyph-name="Ohungarumlaut" unicode="&#x150;" horiz-adv-x="946" 
d="M473 780c234 0 416 -175 416 -401c0 -217 -184 -389 -416 -389s-416 172 -416 389c0 226 182 401 416 401zM473 45c175 0 286 128 286 331c0 214 -110 349 -286 349s-286 -135 -286 -349c0 -203 110 -331 286 -331zM349 850h-60l120 77c36 23 60 33 87 33
c23 0 38 -13 38 -35c0 -21 -30 -36 -75 -47zM536 850h-60l120 77c36 23 60 33 87 33c23 0 38 -13 38 -35c0 -21 -30 -36 -75 -47z" />
    <glyph glyph-name="ohungarumlaut" unicode="&#x151;" horiz-adv-x="654" 
d="M325 540c152 0 281 -114 281 -271c0 -162 -129 -279 -281 -279c-150 0 -277 116 -277 279c0 158 127 271 277 271zM325 492c-99 0 -164 -90 -164 -224c0 -138 64 -227 164 -227c102 0 168 90 168 227c0 133 -67 224 -168 224zM213 651h-47l130 119c25 23 46 33 67 33
c23 0 38 -13 38 -35c0 -21 -19 -37 -51 -52zM411 651h-47l130 119c25 23 46 33 67 33c23 0 38 -13 38 -35c0 -21 -19 -37 -51 -52z" />
    <glyph glyph-name="OE" unicode="&#x152;" horiz-adv-x="1152" 
d="M474 770h585l9 -176h-35c-16 106 -67 133 -203 133h-127c-11 0 -17 -7 -17 -17v-287c129 0 189 22 189 115h35v-273h-35c0 95 -53 117 -189 118v-226c0 -87 40 -114 166 -114c141 0 191 36 217 154h38l-15 -197h-621c-232 0 -413 168 -413 379c0 220 182 391 416 391z
M474 730c-176 0 -286 -135 -286 -354c0 -206 110 -334 286 -334c94 0 107 16 107 110v466c0 93 -21 112 -107 112z" />
    <glyph glyph-name="oe" unicode="&#x153;" horiz-adv-x="1017" 
d="M935 121l31 -28c-58 -70 -126 -103 -211 -103c-92 0 -166 37 -212 101c-52 -63 -132 -101 -218 -101c-150 0 -277 116 -277 279c0 158 127 271 277 271c89 0 171 -40 223 -104c48 65 125 104 219 104c128 0 203 -73 203 -203c0 -18 -4 -20 -31 -20h-329
c-3 -11 -4 -27 -4 -45v-11c3 -133 72 -219 177 -219c55 0 102 24 152 79zM325 492c-99 0 -164 -90 -164 -224c0 -138 64 -227 164 -227c99 0 165 86 168 218v9c0 133 -67 224 -168 224zM617 363h184c54 0 60 4 60 28c0 61 -43 101 -110 101c-71 0 -117 -44 -134 -129z" />
    <glyph glyph-name="Racute" unicode="&#x154;" horiz-adv-x="788" 
d="M658 577c0 -106 -61 -180 -201 -204l221 -266c36 -44 78 -60 137 -69v-38h-193l-245 314c-35 46 -55 51 -117 51v-208c0 -99 17 -119 138 -119v-38h-353v38c94 3 110 20 110 114v466c0 93 -14 110 -100 114v38h314c183 0 289 -72 289 -193zM260 706v-291h71
c132 0 197 46 197 157c0 107 -50 151 -159 151h-92c-11 0 -17 -7 -17 -17zM335 850h-60l130 77c37 22 60 33 87 33c23 0 38 -13 38 -35c0 -21 -30 -37 -75 -47z" />
    <glyph glyph-name="racute" unicode="&#x155;" horiz-adv-x="477" 
d="M222 193v-34c0 -110 6 -119 82 -124v-35h-266v35c77 4 86 16 86 117v117c0 182 -2 187 -88 187v35l175 38l14 -124h4c36 80 106 135 174 135c43 0 69 -22 69 -57c0 -32 -21 -51 -58 -51c-42 0 -55 25 -79 25c-36 0 -76 -52 -96 -122c-11 -38 -17 -89 -17 -142zM227 651
h-47l130 119c25 23 46 33 67 33c23 0 38 -13 38 -35c0 -21 -19 -37 -51 -52z" />
    <glyph glyph-name="Rcommaaccent" unicode="&#x156;" horiz-adv-x="788" 
d="M658 577c0 -106 -61 -180 -201 -204l221 -266c36 -44 78 -60 137 -69v-38h-193l-245 314c-35 46 -55 51 -117 51v-208c0 -99 17 -119 138 -119v-38h-353v38c94 3 110 20 110 114v466c0 93 -14 110 -100 114v38h314c183 0 289 -72 289 -193zM260 706v-291h71
c132 0 197 46 197 157c0 107 -50 151 -159 151h-92c-11 0 -17 -7 -17 -17zM378 -250l-22 26c45 25 65 49 65 78c-6 -5 -15 -8 -26 -8c-26 0 -44 19 -44 47c0 31 24 53 59 53c40 0 63 -29 63 -79c0 -43 -26 -80 -95 -117z" />
    <glyph glyph-name="rcommaaccent" unicode="&#x157;" horiz-adv-x="477" 
d="M222 193v-34c0 -110 6 -119 82 -124v-35h-266v35c77 4 86 16 86 117v117c0 182 -2 187 -88 187v35l175 38l14 -124h4c36 80 106 135 174 135c43 0 69 -22 69 -57c0 -32 -21 -51 -58 -51c-42 0 -55 25 -79 25c-36 0 -76 -52 -96 -122c-11 -38 -17 -89 -17 -142zM141 -250
l-22 26c45 25 65 49 65 78c-6 -5 -15 -8 -26 -8c-26 0 -44 19 -44 47c0 31 24 53 59 53c40 0 63 -29 63 -79c0 -43 -26 -80 -95 -117z" />
    <glyph glyph-name="Rcaron" unicode="&#x158;" horiz-adv-x="788" 
d="M658 577c0 -106 -61 -180 -201 -204l221 -266c36 -44 78 -60 137 -69v-38h-193l-245 314c-35 46 -55 51 -117 51v-208c0 -99 17 -119 138 -119v-38h-353v38c94 3 110 20 110 114v466c0 93 -14 110 -100 114v38h314c183 0 289 -72 289 -193zM260 706v-291h71
c132 0 197 46 197 157c0 107 -50 151 -159 151h-92c-11 0 -17 -7 -17 -17zM430 851h-110l-109 109h45l119 -54l119 54h45z" />
    <glyph glyph-name="rcaron" unicode="&#x159;" horiz-adv-x="477" 
d="M222 193v-34c0 -110 6 -119 82 -124v-35h-266v35c77 4 86 16 86 117v117c0 182 -2 187 -88 187v35l175 38l14 -124h4c36 80 106 135 174 135c43 0 69 -22 69 -57c0 -32 -21 -51 -58 -51c-42 0 -55 25 -79 25c-36 0 -76 -52 -96 -122c-11 -38 -17 -89 -17 -142zM315 651
h-90l-119 129h45l119 -68l119 68h45z" />
    <glyph glyph-name="Sacute" unicode="&#x15a;" horiz-adv-x="645" 
d="M73 11l-15 224h37c19 -121 107 -194 227 -194c98 0 160 51 160 130c0 68 -40 107 -175 166c-166 73 -217 128 -217 231c0 124 93 212 224 212c58 0 107 -18 159 -59l26 45h23l11 -199h-37c-32 109 -94 162 -179 162c-81 0 -133 -44 -133 -111c0 -63 39 -101 153 -152
c198 -89 254 -144 254 -249c0 -134 -111 -227 -272 -227c-76 0 -133 20 -195 70l-28 -49h-23zM276 850h-60l130 77c37 22 60 33 87 33c23 0 38 -13 38 -35c0 -21 -30 -37 -75 -47z" />
    <glyph glyph-name="sacute" unicode="&#x15b;" horiz-adv-x="454" 
d="M106 35l-20 -35h-22v172h25c26 -95 72 -141 142 -141c53 0 87 26 87 79c0 39 -18 51 -116 112c-90 57 -135 89 -135 164c0 91 65 154 149 154c36 0 78 -12 107 -31l20 21h19v-144h-26c-29 81 -61 113 -112 113c-45 0 -75 -25 -75 -68c0 -44 30 -65 98 -107
c115 -72 160 -106 160 -182c0 -94 -68 -152 -167 -152c-52 0 -98 16 -134 45zM195 651h-47l130 119c25 23 46 33 67 33c23 0 38 -13 38 -35c0 -21 -19 -37 -51 -52z" />
    <glyph glyph-name="Scircumflex" unicode="&#x15c;" horiz-adv-x="645" 
d="M73 11l-15 224h37c19 -121 107 -194 227 -194c98 0 160 51 160 130c0 68 -40 107 -175 166c-166 73 -217 128 -217 231c0 124 93 212 224 212c58 0 107 -18 159 -59l26 45h23l11 -199h-37c-32 109 -94 162 -179 162c-81 0 -133 -44 -133 -111c0 -63 39 -101 153 -152
c198 -89 254 -144 254 -249c0 -134 -111 -227 -272 -227c-76 0 -133 20 -195 70l-28 -49h-23zM261 960h110l109 -109h-45l-119 54l-119 -54h-45z" />
    <glyph glyph-name="scircumflex" unicode="&#x15d;" horiz-adv-x="454" 
d="M106 35l-20 -35h-22v172h25c26 -95 72 -141 142 -141c53 0 87 26 87 79c0 39 -18 51 -116 112c-90 57 -135 89 -135 164c0 91 65 154 149 154c36 0 78 -12 107 -31l20 21h19v-144h-26c-29 81 -61 113 -112 113c-45 0 -75 -25 -75 -68c0 -44 30 -65 98 -107
c115 -72 160 -106 160 -182c0 -94 -68 -152 -167 -152c-52 0 -98 16 -134 45zM178 780h90l119 -129h-45l-119 68l-119 -68h-45z" />
    <glyph glyph-name="uni015E" unicode="&#x15e;" horiz-adv-x="645" 
d="M73 11l-15 224h37c19 -121 107 -194 227 -194c98 0 160 51 160 130c0 68 -40 107 -175 166c-166 73 -217 128 -217 231c0 124 93 212 224 212c58 0 107 -18 159 -59l26 45h23l11 -199h-37c-32 109 -94 162 -179 162c-81 0 -133 -44 -133 -111c0 -63 39 -101 153 -152
c198 -89 254 -144 254 -249c0 -129 -103 -219 -253 -226l-23 -63c83 0 124 -28 124 -86c0 -63 -49 -102 -126 -102c-68 0 -115 31 -115 76c0 23 12 36 31 36c14 0 21 -7 33 -32c12 -28 23 -37 45 -37c29 0 50 20 50 50c0 35 -28 54 -79 54c-10 0 -25 -1 -35 -2l-3 5l44 102
c-60 5 -108 26 -160 68l-28 -49h-23z" />
    <glyph glyph-name="uni015F" unicode="&#x15f;" horiz-adv-x="454" 
d="M106 35l-20 -35h-22v172h25c26 -95 72 -141 142 -141c53 0 87 26 87 79c0 39 -18 51 -116 112c-90 57 -135 89 -135 164c0 91 65 154 149 154c36 0 78 -12 107 -31l20 21h19v-144h-26c-29 81 -61 113 -112 113c-45 0 -75 -25 -75 -68c0 -44 30 -65 98 -107
c115 -72 160 -106 160 -182c0 -89 -61 -145 -150 -151l-23 -63c83 0 124 -28 124 -86c0 -63 -49 -102 -126 -102c-68 0 -115 31 -115 76c0 23 12 36 31 36c14 0 21 -7 33 -32c12 -28 23 -37 45 -37c29 0 50 20 50 50c0 35 -28 54 -79 54c-10 0 -25 -1 -35 -2l-3 5l44 103
c-37 6 -70 20 -97 42z" />
    <glyph glyph-name="Scaron" unicode="&#x160;" horiz-adv-x="645" 
d="M73 11l-15 224h37c19 -121 107 -194 227 -194c98 0 160 51 160 130c0 68 -40 107 -175 166c-166 73 -217 128 -217 231c0 124 93 212 224 212c58 0 107 -18 159 -59l26 45h23l11 -199h-37c-32 109 -94 162 -179 162c-81 0 -133 -44 -133 -111c0 -63 39 -101 153 -152
c198 -89 254 -144 254 -249c0 -134 -111 -227 -272 -227c-76 0 -133 20 -195 70l-28 -49h-23zM371 851h-110l-109 109h45l119 -54l119 54h45z" />
    <glyph glyph-name="scaron" unicode="&#x161;" horiz-adv-x="454" 
d="M106 35l-20 -35h-22v172h25c26 -95 72 -141 142 -141c53 0 87 26 87 79c0 39 -18 51 -116 112c-90 57 -135 89 -135 164c0 91 65 154 149 154c36 0 78 -12 107 -31l20 21h19v-144h-26c-29 81 -61 113 -112 113c-45 0 -75 -25 -75 -68c0 -44 30 -65 98 -107
c115 -72 160 -106 160 -182c0 -94 -68 -152 -167 -152c-52 0 -98 16 -134 45zM268 651h-90l-119 129h45l119 -68l119 68h45z" />
    <glyph glyph-name="uni0162" unicode="&#x162;" horiz-adv-x="803" 
d="M776 770l10 -191h-41c-9 116 -55 148 -171 148c-99 0 -113 -8 -113 -31v-535c0 -86 16 -119 129 -123v-38h-167l-26 -72c83 0 124 -28 124 -86c0 -63 -49 -102 -126 -102c-68 0 -115 31 -115 76c0 23 12 36 31 36c14 0 21 -7 33 -32c12 -28 23 -37 45 -37
c29 0 50 20 50 50c0 35 -28 54 -79 54c-10 0 -25 -1 -35 -2l-3 5l48 110h-158v38c113 4 130 37 130 123v535c0 23 -13 31 -98 31c-104 0 -182 -6 -186 -148h-37v191h755z" />
    <glyph glyph-name="uni0163" unicode="&#x163;" horiz-adv-x="378" 
d="M100 467h-60v37c71 42 108 79 129 136h29v-126h134v-47h-134v-304c0 -94 16 -124 69 -124c33 0 55 13 77 46l25 -19c-19 -49 -66 -76 -134 -76h-9l-23 -62c83 0 124 -28 124 -86c0 -63 -49 -102 -126 -102c-68 0 -115 31 -115 76c0 23 12 36 31 36c14 0 21 -7 33 -32
c12 -28 23 -37 45 -37c29 0 50 20 50 50c0 35 -28 54 -79 54c-10 0 -25 -1 -35 -2l-3 5l47 109c-49 16 -75 55 -75 113v355z" />
    <glyph glyph-name="Tcaron" unicode="&#x164;" horiz-adv-x="803" 
d="M776 770l10 -191h-41c-9 116 -55 148 -171 148c-99 0 -113 -8 -113 -31v-535c0 -86 16 -119 129 -123v-38h-378v38c113 4 130 37 130 123v535c0 23 -13 31 -98 31c-104 0 -182 -6 -186 -148h-37v191h755zM457 851h-110l-109 109h45l119 -54l119 54h45z" />
    <glyph glyph-name="tcaron" unicode="&#x165;" horiz-adv-x="378" 
d="M100 467h-60v37c71 42 108 79 129 136h29v-126h134v-47h-134v-304c0 -94 16 -124 69 -124c33 0 55 13 77 46l25 -19c-19 -49 -66 -76 -134 -76c-88 0 -135 44 -135 122v355zM330 584l-22 26c45 25 65 49 65 78c-6 -5 -15 -8 -26 -8c-26 0 -44 19 -44 47c0 31 24 53 59 53
c40 0 63 -29 63 -79c0 -43 -26 -80 -95 -117z" />
    <glyph glyph-name="Tbar" unicode="&#x166;" horiz-adv-x="805" 
d="M777 770l10 -191h-41c-9 116 -55 148 -171 148c-99 0 -113 -8 -113 -31v-229h204v-50h-204v-256c0 -86 16 -119 129 -123v-38h-378v38c113 4 130 37 130 123v256h-204v50h204v229c0 23 -13 31 -98 31c-104 0 -182 -6 -186 -148h-37v191h755z" />
    <glyph glyph-name="tbar" unicode="&#x167;" horiz-adv-x="381" 
d="M103 467h-60v37c71 42 108 79 129 136h29v-126h134v-47h-134v-86h121v-53h-121v-165c0 -94 16 -124 69 -124c33 0 55 13 77 46l25 -19c-19 -49 -66 -76 -134 -76c-88 0 -135 44 -135 122v216h-60v53h60v86z" />
    <glyph glyph-name="Utilde" unicode="&#x168;" horiz-adv-x="861" 
d="M722 512v-202c0 -211 -79 -320 -288 -320c-197 0 -294 73 -294 283v264c0 99 -1 148 -24 173c-16 17 -42 22 -87 22v38h341v-38c-45 0 -72 -3 -88 -24c-18 -24 -22 -73 -22 -171v-272c0 -136 53 -213 202 -213c133 0 200 76 200 219v241c0 119 -7 175 -33 200
c-18 17 -46 20 -87 20v38h290v-38c-42 0 -69 -4 -85 -27c-20 -28 -25 -83 -25 -193zM322 846h-34c11 68 54 114 106 114c53 0 104 -46 155 -46c25 0 37 11 47 42h33c-7 -67 -50 -118 -100 -118c-53 0 -108 48 -162 48c-25 0 -36 -10 -45 -40z" />
    <glyph glyph-name="utilde" unicode="&#x169;" 
d="M463 272v98c0 109 -6 117 -83 125v35h181v-307c0 -76 2 -123 6 -147c6 -34 20 -40 81 -40v-35l-165 -12l-11 120h-4c-51 -82 -119 -119 -191 -119c-56 0 -114 23 -141 59c-22 29 -32 80 -32 162v159c0 109 -6 118 -83 125v35h181v-273c0 -144 33 -207 107 -207
c57 0 104 38 137 115c13 31 17 50 17 107zM169 660h-34c11 68 54 114 106 114c53 0 104 -46 155 -46c25 0 37 11 47 42h33c-7 -67 -50 -118 -100 -118c-53 0 -108 48 -162 48c-25 0 -36 -10 -45 -40z" />
    <glyph glyph-name="Umacron" unicode="&#x16a;" horiz-adv-x="861" 
d="M722 512v-202c0 -211 -79 -320 -288 -320c-197 0 -294 73 -294 283v264c0 99 -1 148 -24 173c-16 17 -42 22 -87 22v38h341v-38c-45 0 -72 -3 -88 -24c-18 -24 -22 -73 -22 -171v-272c0 -136 53 -213 202 -213c133 0 200 76 200 219v241c0 119 -7 175 -33 200
c-18 17 -46 20 -87 20v38h290v-38c-42 0 -69 -4 -85 -27c-20 -28 -25 -83 -25 -193zM594 880h-270v50h270v-50z" />
    <glyph glyph-name="umacron" unicode="&#x16b;" 
d="M463 272v98c0 109 -6 117 -83 125v35h181v-307c0 -76 2 -123 6 -147c6 -34 20 -40 81 -40v-35l-165 -12l-11 120h-4c-51 -82 -119 -119 -191 -119c-56 0 -114 23 -141 59c-22 29 -32 80 -32 162v159c0 109 -6 118 -83 125v35h181v-273c0 -144 33 -207 107 -207
c57 0 104 38 137 115c13 31 17 50 17 107zM448 702h-270v50h270v-50z" />
    <glyph glyph-name="Ubreve" unicode="&#x16c;" horiz-adv-x="861" 
d="M722 512v-202c0 -211 -79 -320 -288 -320c-197 0 -294 73 -294 283v264c0 99 -1 148 -24 173c-16 17 -42 22 -87 22v38h341v-38c-45 0 -72 -3 -88 -24c-18 -24 -22 -73 -22 -171v-272c0 -136 53 -213 202 -213c133 0 200 76 200 219v241c0 119 -7 175 -33 200
c-18 17 -46 20 -87 20v38h290v-38c-42 0 -69 -4 -85 -27c-20 -28 -25 -83 -25 -193zM560 960h37c-5 -67 -63 -115 -138 -115c-77 0 -135 49 -138 115h36c11 -28 51 -46 101 -46s91 18 102 46z" />
    <glyph glyph-name="ubreve" unicode="&#x16d;" 
d="M463 272v98c0 109 -6 117 -83 125v35h181v-307c0 -76 2 -123 6 -147c6 -34 20 -40 81 -40v-35l-165 -12l-11 120h-4c-51 -82 -119 -119 -191 -119c-56 0 -114 23 -141 59c-22 29 -32 80 -32 162v159c0 109 -6 118 -83 125v35h181v-273c0 -144 33 -207 107 -207
c57 0 104 38 137 115c13 31 17 50 17 107zM414 776h37c-5 -76 -63 -130 -138 -130c-77 0 -135 55 -138 130h36c12 -37 52 -61 101 -61c50 0 91 24 102 61z" />
    <glyph glyph-name="Uring" unicode="&#x16e;" horiz-adv-x="861" 
d="M722 512v-202c0 -211 -79 -320 -288 -320c-197 0 -294 73 -294 283v264c0 99 -1 148 -24 173c-16 17 -42 22 -87 22v38h341v-38c-45 0 -72 -3 -88 -24c-18 -24 -22 -73 -22 -171v-272c0 -136 53 -213 202 -213c133 0 200 76 200 219v241c0 119 -7 175 -33 200
c-18 17 -46 20 -87 20v38h290v-38c-42 0 -69 -4 -85 -27c-20 -28 -25 -83 -25 -193zM394 895c0 37 28 65 65 65s65 -28 65 -65s-28 -65 -65 -65s-65 28 -65 65zM425 895c0 -20 14 -34 34 -34c19 0 33 14 33 34c0 19 -14 33 -33 33c-20 0 -34 -14 -34 -33z" />
    <glyph glyph-name="uring" unicode="&#x16f;" 
d="M463 272v98c0 109 -6 117 -83 125v35h181v-307c0 -76 2 -123 6 -147c6 -34 20 -40 81 -40v-35l-165 -12l-11 120h-4c-51 -82 -119 -119 -191 -119c-56 0 -114 23 -141 59c-22 29 -32 80 -32 162v159c0 109 -6 118 -83 125v35h181v-273c0 -144 33 -207 107 -207
c57 0 104 38 137 115c13 31 17 50 17 107zM236 742c0 51 37 88 86 88c51 0 88 -37 88 -88c0 -49 -37 -86 -88 -86c-49 0 -86 37 -86 86zM275 742c0 -27 20 -47 47 -47c26 0 45 20 45 47c0 26 -19 45 -45 45c-27 0 -47 -19 -47 -45z" />
    <glyph glyph-name="Uhungarumlaut" unicode="&#x170;" horiz-adv-x="861" 
d="M722 512v-202c0 -211 -79 -320 -288 -320c-197 0 -294 73 -294 283v264c0 99 -1 148 -24 173c-16 17 -42 22 -87 22v38h341v-38c-45 0 -72 -3 -88 -24c-18 -24 -22 -73 -22 -171v-272c0 -136 53 -213 202 -213c133 0 200 76 200 219v241c0 119 -7 175 -33 200
c-18 17 -46 20 -87 20v38h290v-38c-42 0 -69 -4 -85 -27c-20 -28 -25 -83 -25 -193zM334 850h-60l120 77c36 23 60 33 87 33c23 0 38 -13 38 -35c0 -21 -30 -36 -75 -47zM521 850h-60l120 77c36 23 60 33 87 33c23 0 38 -13 38 -35c0 -21 -30 -36 -75 -47z" />
    <glyph glyph-name="uhungarumlaut" unicode="&#x171;" 
d="M463 272v98c0 109 -6 117 -83 125v35h181v-307c0 -76 2 -123 6 -147c6 -34 20 -40 81 -40v-35l-165 -12l-11 120h-4c-51 -82 -119 -119 -191 -119c-56 0 -114 23 -141 59c-22 29 -32 80 -32 162v159c0 109 -6 118 -83 125v35h181v-273c0 -144 33 -207 107 -207
c57 0 104 38 137 115c13 31 17 50 17 107zM187 651h-47l130 119c25 23 46 33 67 33c23 0 38 -13 38 -35c0 -21 -19 -37 -51 -52zM385 651h-47l130 119c25 23 46 33 67 33c23 0 38 -13 38 -35c0 -21 -19 -37 -51 -52z" />
    <glyph glyph-name="Uogonek" unicode="&#x172;" horiz-adv-x="861" 
d="M522 -121l29 -31c-47 -61 -99 -82 -157 -82c-61 0 -97 32 -97 85s38 103 105 140c-176 7 -262 83 -262 282v264c0 99 -1 148 -24 173c-16 17 -42 22 -87 22v38h341v-38c-45 0 -72 -3 -88 -24c-18 -24 -22 -73 -22 -171v-272c0 -136 53 -213 202 -213
c133 0 200 76 200 219v241c0 119 -7 175 -33 200c-18 17 -46 20 -87 20v38h290v-38c-42 0 -69 -4 -85 -27c-20 -28 -25 -83 -25 -193v-202c0 -199 -70 -306 -252 -318c-56 -35 -94 -82 -94 -118c0 -27 19 -48 51 -48c25 0 60 17 95 53z" />
    <glyph glyph-name="uogonek" unicode="&#x173;" 
d="M605 -121l29 -31c-47 -61 -99 -82 -157 -82c-61 0 -97 32 -97 85c0 52 37 102 103 139l-11 119h-4c-51 -82 -119 -119 -191 -119c-56 0 -114 23 -141 59c-22 29 -32 80 -32 162v159c0 109 -6 118 -83 125v35h181v-273c0 -144 33 -207 107 -207c57 0 104 38 137 115
c13 31 17 50 17 107v98c0 109 -6 117 -83 125v35h181v-307c0 -76 2 -123 6 -147c6 -34 20 -40 81 -40v-35l-90 -6c-59 -35 -99 -83 -99 -121c0 -27 19 -48 51 -48c25 0 60 17 95 53z" />
    <glyph glyph-name="Wcircumflex" unicode="&#x174;" horiz-adv-x="1176" 
d="M700 600l134 -449l156 434c19 52 26 79 26 102c0 34 -20 45 -75 45v38h243v-38c-61 0 -88 -24 -109 -81l-251 -661h-35l-192 569l-213 -569h-35l-208 574c-47 129 -71 167 -152 167v39h326v-39c-68 0 -92 -10 -92 -44c0 -17 6 -40 16 -70l152 -463l123 346
c18 52 38 97 49 133c-36 77 -61 98 -99 98v39h306v-39c-77 0 -91 -10 -91 -40c0 -20 8 -47 21 -91zM560 960h110l109 -109h-45l-119 54l-119 -54h-45z" />
    <glyph glyph-name="wcircumflex" unicode="&#x175;" horiz-adv-x="852" 
d="M425 359l-147 -369h-37l-130 416c-23 74 -41 89 -99 89v35h265v-35c-52 0 -71 -11 -71 -40c0 -13 4 -31 11 -57l68 -239h4l147 371h31l133 -371h4l60 162c33 89 41 115 41 138c0 29 -13 36 -67 36v35h200v-35c-39 0 -53 -18 -95 -122l-155 -383h-37l-122 369h-4zM406 780
h90l119 -129h-45l-119 68l-119 -68h-45z" />
    <glyph glyph-name="Ycircumflex" unicode="&#x176;" horiz-adv-x="733" 
d="M314 304l-200 342c-41 69 -64 86 -119 86v38h315v-38c-66 0 -91 -9 -91 -34c0 -13 7 -33 23 -60l155 -265h4l113 190c42 71 59 110 59 135s-17 34 -65 34v38h229v-38c-56 0 -82 -26 -164 -164l-154 -260v-119c0 -130 13 -151 109 -151v-38h-324v38c95 0 110 22 110 144
v122zM353 960h110l109 -109h-45l-119 54l-119 -54h-45z" />
    <glyph glyph-name="ycircumflex" unicode="&#x177;" horiz-adv-x="639" 
d="M499 328l-218 -485c-30 -67 -80 -103 -143 -103c-42 0 -63 15 -63 47c0 33 19 46 82 56c55 9 78 26 103 76l35 70l-192 417c-34 74 -46 85 -99 89v35h265v-35c-46 0 -67 -10 -67 -33c0 -17 12 -59 28 -98l110 -266h5l91 225c36 87 42 106 42 128c0 35 -15 44 -70 44v35
h220v-35c-50 0 -64 -18 -129 -167zM304 780h90l119 -129h-45l-119 68l-119 -68h-45z" />
    <glyph glyph-name="Ydieresis" unicode="&#x178;" horiz-adv-x="733" 
d="M314 304l-200 342c-41 69 -64 86 -119 86v38h315v-38c-66 0 -91 -9 -91 -34c0 -13 7 -33 23 -60l155 -265h4l113 190c42 71 59 110 59 135s-17 34 -65 34v38h229v-38c-56 0 -82 -26 -164 -164l-154 -260v-119c0 -130 13 -151 109 -151v-38h-324v38c95 0 110 22 110 144
v122zM267 910c0 28 22 50 50 50c29 0 51 -22 51 -50c0 -29 -22 -51 -51 -51c-28 0 -50 22 -50 51zM449 910c0 28 22 50 51 50c28 0 50 -22 50 -50c0 -29 -22 -51 -50 -51c-29 0 -51 22 -51 51z" />
    <glyph glyph-name="Zacute" unicode="&#x179;" horiz-adv-x="770" 
d="M722 235l-12 -235h-694v4l526 724h-274c-94 0 -137 -38 -155 -142h-37l15 184h609v-4l-521 -720h310c137 0 166 33 190 189h43zM497 850h-60l-120 28c-45 10 -75 26 -75 47c0 22 15 35 38 35c27 0 50 -11 87 -33z" />
    <glyph glyph-name="zacute" unicode="&#x17a;" horiz-adv-x="557" 
d="M515 155l-17 -155h-480v4l346 484h-111c-114 0 -142 -14 -156 -96h-32l16 138h430v-4l-341 -480h117c137 0 171 17 195 109h33zM244 651h-47l130 119c25 23 46 33 67 33c23 0 38 -13 38 -35c0 -21 -19 -37 -51 -52z" />
    <glyph glyph-name="Zdotaccent" unicode="&#x17b;" horiz-adv-x="770" 
d="M722 235l-12 -235h-694v4l526 724h-274c-94 0 -137 -38 -155 -142h-37l15 184h609v-4l-521 -720h310c137 0 166 33 190 189h43zM339 904c0 31 24 55 52 55c31 0 55 -24 55 -55c0 -28 -24 -52 -55 -52c-28 0 -52 24 -52 52z" />
    <glyph glyph-name="zdotaccent" unicode="&#x17c;" horiz-adv-x="557" 
d="M515 155l-17 -155h-480v4l346 484h-111c-114 0 -142 -14 -156 -96h-32l16 138h430v-4l-341 -480h117c137 0 171 17 195 109h33zM225 743c0 35 27 62 62 62s62 -27 62 -62s-27 -62 -62 -62s-62 27 -62 62z" />
    <glyph glyph-name="Zcaron" unicode="&#x17d;" horiz-adv-x="770" 
d="M722 235l-12 -235h-694v4l526 724h-274c-94 0 -137 -38 -155 -142h-37l15 184h609v-4l-521 -720h310c137 0 166 33 190 189h43zM446 851h-110l-109 109h45l119 -54l119 54h45z" />
    <glyph glyph-name="zcaron" unicode="&#x17e;" horiz-adv-x="557" 
d="M515 155l-17 -155h-480v4l346 484h-111c-114 0 -142 -14 -156 -96h-32l16 138h430v-4l-341 -480h117c137 0 171 17 195 109h33zM332 651h-90l-119 129h45l119 -68l119 68h45z" />
    <glyph glyph-name="Schwa" unicode="&#x18f;" horiz-adv-x="803" 
d="M99 606l-40 31c83 101 186 144 308 144c225 0 377 -157 377 -387c0 -236 -163 -404 -394 -404c-184 0 -292 105 -292 292c0 26 6 29 45 29h507c4 16 5 39 5 64c0 210 -112 349 -288 349c-93 0 -152 -29 -228 -118zM600 245h-314c-78 0 -86 -6 -86 -41
c0 -94 66 -156 173 -156c121 0 199 66 227 197z" />
    <glyph glyph-name="florin" unicode="&#x192;" horiz-adv-x="667" 
d="M65 -211c55 0 88 82 120 293l50 337h-105l14 48h100l11 58c30 160 125 255 256 255c76 0 133 -30 133 -70c0 -25 -20 -45 -44 -45c-16 0 -32 9 -61 33c-32 26 -47 34 -68 34c-57 0 -97 -69 -121 -209l-10 -56h124l-13 -48h-116l-31 -193c-26 -163 -48 -249 -82 -325
c-49 -108 -113 -161 -195 -161c-69 0 -120 37 -120 87c0 30 18 49 47 49c22 0 40 -11 53 -34c24 -43 35 -53 58 -53z" />
    <glyph glyph-name="uni01C4" unicode="&#x1c4;" horiz-adv-x="1654" 
d="M429 0h-391v38c102 3 120 19 120 114v466c0 93 -14 110 -100 114v38h351c241 0 416 -168 416 -398c0 -219 -163 -372 -396 -372zM407 721h-127c-11 0 -17 -7 -17 -17v-541c0 -77 48 -114 149 -114c181 0 283 111 283 321c0 221 -110 351 -288 351zM1606 235l-12 -235
h-694v4l526 724h-274c-94 0 -137 -38 -155 -142h-37l15 184h609v-4l-521 -720h310c137 0 166 33 190 189h43zM1330 851h-110l-109 109h45l119 -54l119 54h45z" />
    <glyph glyph-name="uni01C5" unicode="&#x1c5;" horiz-adv-x="1441" 
d="M429 0h-391v38c102 3 120 19 120 114v466c0 93 -14 110 -100 114v38h351c241 0 416 -168 416 -398c0 -219 -163 -372 -396 -372zM407 721h-127c-11 0 -17 -7 -17 -17v-541c0 -77 48 -114 149 -114c181 0 283 111 283 321c0 221 -110 351 -288 351zM1399 155l-17 -155
h-480v4l346 484h-111c-114 0 -142 -14 -156 -96h-32l16 138h430v-4l-341 -480h117c137 0 171 17 195 109h33zM1216 651h-90l-119 129h45l119 -68l119 68h45z" />
    <glyph glyph-name="uni01C6" unicode="&#x1c6;" horiz-adv-x="1232" 
d="M484 -10v94h-4c-48 -67 -99 -94 -172 -94c-151 0 -260 115 -260 276c0 158 110 274 260 274c63 0 112 -21 158 -67v102c0 75 -2 129 -6 147c-7 29 -34 40 -103 40v30l205 38v-577c0 -92 1 -152 7 -177c8 -32 19 -41 81 -41v-34zM464 239v66c0 70 -6 99 -27 126
c-30 40 -83 61 -129 61c-95 0 -147 -86 -147 -221c0 -141 51 -233 147 -233c47 0 104 23 130 63c19 29 26 66 26 138zM1190 155l-17 -155h-480v4l346 484h-111c-114 0 -142 -14 -156 -96h-32l16 138h430v-4l-341 -480h117c137 0 171 17 195 109h33zM1007 651h-90l-119 129
h45l119 -68l119 68h45z" />
    <glyph glyph-name="uni01C7" unicode="&#x1c7;" horiz-adv-x="1112" 
d="M706 197l-15 -197h-646v38c94 3 110 20 110 114v466c0 93 -14 110 -100 114v38h304v-38c-86 -3 -99 -20 -99 -121v-431c0 -112 40 -135 178 -135c153 0 201 28 230 152h38zM863 -43v661c0 93 -14 110 -100 114v38h304v-38c-86 -3 -99 -20 -99 -121v-613
c0 -167 -73 -258 -208 -258c-91 0 -152 39 -152 97c0 34 19 53 51 53c25 0 37 -10 57 -47c23 -43 36 -55 62 -55c54 0 85 62 85 169z" />
    <glyph glyph-name="uni01C8" unicode="&#x1c8;" horiz-adv-x="1026" 
d="M706 197l-15 -197h-646v38c94 3 110 20 110 114v466c0 93 -14 110 -100 114v38h304v-38c-86 -3 -99 -20 -99 -121v-431c0 -112 40 -135 178 -135c153 0 201 28 230 152h38zM935 540v-542c0 -166 -73 -258 -205 -258c-85 0 -145 38 -145 93c0 30 19 47 51 47
c24 0 32 -7 52 -47c19 -40 30 -50 63 -50c64 0 86 38 86 149v348c0 77 -2 129 -7 147c-6 31 -25 40 -91 40v35zM822 743c0 35 27 62 62 62s62 -27 62 -62s-27 -62 -62 -62s-62 27 -62 62z" />
    <glyph glyph-name="uni01C9" unicode="&#x1c9;" horiz-adv-x="629" 
d="M209 830v-674c0 -101 12 -118 89 -121v-35h-276v35c79 4 94 22 94 114v431c0 72 -2 123 -6 140c-7 31 -26 39 -90 39v34zM538 540v-542c0 -166 -73 -258 -205 -258c-85 0 -145 38 -145 93c0 30 19 47 51 47c24 0 32 -7 52 -47c19 -40 30 -50 63 -50c64 0 86 38 86 149
v348c0 77 -2 129 -7 147c-6 31 -25 40 -91 40v35zM425 743c0 35 27 62 62 62s62 -27 62 -62s-27 -62 -62 -62s-62 27 -62 62z" />
    <glyph glyph-name="uni01CA" unicode="&#x1ca;" horiz-adv-x="1296" 
d="M754 -10h-60l-475 626h-4v-427c0 -132 14 -148 99 -151v-38h-269v38c94 3 110 20 110 144v406c0 113 -14 140 -100 144v38h198l437 -583h4v394c0 132 -14 148 -99 151v38h269v-38c-94 -3 -110 -20 -110 -144v-598zM1047 -43v661c0 93 -14 110 -100 114v38h304v-38
c-86 -3 -99 -20 -99 -121v-613c0 -167 -73 -258 -208 -258c-91 0 -152 39 -152 97c0 34 19 53 51 53c25 0 37 -10 57 -47c23 -43 36 -55 62 -55c54 0 85 62 85 169z" />
    <glyph glyph-name="uni01CB" unicode="&#x1cb;" horiz-adv-x="1195" 
d="M754 -10h-60l-475 626h-4v-427c0 -132 14 -148 99 -151v-38h-269v38c94 3 110 20 110 144v406c0 113 -14 140 -100 144v38h198l437 -583h4v394c0 132 -14 148 -99 151v38h269v-38c-94 -3 -110 -20 -110 -144v-598zM1104 540v-542c0 -166 -73 -258 -205 -258
c-85 0 -145 38 -145 93c0 30 19 47 51 47c24 0 32 -7 52 -47c19 -40 30 -50 63 -50c64 0 86 38 86 149v348c0 77 -2 129 -7 147c-6 31 -25 40 -91 40v35zM991 743c0 35 27 62 62 62s62 -27 62 -62s-27 -62 -62 -62s-62 27 -62 62z" />
    <glyph glyph-name="uni01CC" unicode="&#x1cc;" horiz-adv-x="993" 
d="M216 291v-134c0 -108 6 -118 83 -123v-34h-262v34c74 5 84 16 84 116v133c0 78 -2 128 -6 145c-8 36 -22 42 -80 42v32l160 38l12 -99h4c50 62 121 99 200 99c61 0 115 -22 142 -56c23 -31 31 -75 31 -160v-167c0 -108 8 -118 81 -123v-34h-259v34c75 4 83 17 83 116v132
c0 151 -31 204 -114 204c-59 0 -113 -34 -141 -88c-14 -27 -18 -44 -18 -107zM902 540v-542c0 -166 -73 -258 -205 -258c-85 0 -145 38 -145 93c0 30 19 47 51 47c24 0 32 -7 52 -47c19 -40 30 -50 63 -50c64 0 86 38 86 149v348c0 77 -2 129 -7 147c-6 31 -25 40 -91 40v35
zM789 743c0 35 27 62 62 62s62 -27 62 -62s-27 -62 -62 -62s-62 27 -62 62z" />
    <glyph glyph-name="Oogonek" unicode="&#x1ea;" horiz-adv-x="946" 
d="M549 -121l29 -31c-47 -61 -99 -82 -157 -82c-61 0 -97 32 -97 85s39 104 108 141c-213 19 -375 183 -375 387c0 226 182 401 416 401s416 -175 416 -401c0 -210 -172 -377 -393 -388c-56 -34 -93 -81 -93 -117c0 -27 19 -48 51 -48c25 0 60 17 95 53zM473 45
c175 0 286 128 286 331c0 214 -110 349 -286 349s-286 -135 -286 -349c0 -203 110 -331 286 -331z" />
    <glyph glyph-name="oogonek" unicode="&#x1eb;" horiz-adv-x="653" 
d="M414 -121l29 -31c-47 -61 -99 -82 -157 -82c-61 0 -97 32 -97 85s39 104 107 141c-137 13 -248 124 -248 277c0 158 127 271 277 271c152 0 281 -114 281 -271c0 -148 -107 -258 -242 -276c-58 -34 -96 -82 -96 -119c0 -27 19 -48 51 -48c25 0 60 17 95 53zM325 492
c-99 0 -164 -90 -164 -224c0 -138 64 -227 164 -227c102 0 168 90 168 227c0 133 -67 224 -168 224z" />
    <glyph glyph-name="uni01F1" unicode="&#x1f1;" horiz-adv-x="1642" 
d="M429 0h-391v38c102 3 120 19 120 114v466c0 93 -14 110 -100 114v38h351c241 0 416 -168 416 -398c0 -219 -163 -372 -396 -372zM407 721h-127c-11 0 -17 -7 -17 -17v-541c0 -77 48 -114 149 -114c181 0 283 111 283 321c0 221 -110 351 -288 351zM1594 235l-12 -235
h-694v4l526 724h-274c-94 0 -137 -38 -155 -142h-37l15 184h609v-4l-521 -720h310c137 0 166 33 190 189h43z" />
    <glyph glyph-name="uni01F2" unicode="&#x1f2;" horiz-adv-x="1433" 
d="M429 0h-391v38c102 3 120 19 120 114v466c0 93 -14 110 -100 114v38h351c241 0 416 -168 416 -398c0 -219 -163 -372 -396 -372zM407 721h-127c-11 0 -17 -7 -17 -17v-541c0 -77 48 -114 149 -114c181 0 283 111 283 321c0 221 -110 351 -288 351zM1391 155l-17 -155
h-480v4l346 484h-111c-114 0 -142 -14 -156 -96h-32l16 138h430v-4l-341 -480h117c137 0 171 17 195 109h33z" />
    <glyph glyph-name="uni01F3" unicode="&#x1f3;" horiz-adv-x="1232" 
d="M484 -10v94h-4c-48 -67 -99 -94 -172 -94c-151 0 -260 115 -260 276c0 158 110 274 260 274c63 0 112 -21 158 -67v102c0 75 -2 129 -6 147c-7 29 -34 40 -103 40v30l205 38v-577c0 -92 1 -152 7 -177c8 -32 19 -41 81 -41v-34zM464 239v66c0 70 -6 99 -27 126
c-30 40 -83 61 -129 61c-95 0 -147 -86 -147 -221c0 -141 51 -233 147 -233c47 0 104 23 130 63c19 29 26 66 26 138zM1190 155l-17 -155h-480v4l346 484h-111c-114 0 -142 -14 -156 -96h-32l16 138h430v-4l-341 -480h117c137 0 171 17 195 109h33z" />
    <glyph glyph-name="Aringacute" unicode="&#x1fa;" horiz-adv-x="775" 
d="M530 171l-46 108h-261l-42 -106c-17 -43 -22 -63 -22 -84c0 -37 25 -51 79 -51v-38h-243v38c56 0 85 25 109 81l260 601h43l254 -578c33 -76 67 -103 125 -103v-39h-326v39c67 0 93 14 93 49c0 21 -8 48 -23 83zM359 594l-113 -265h217zM300 878c0 48 34 82 79 82
c17 0 33 -5 45 -13c17 17 31 23 47 23c17 0 29 -10 29 -26c0 -18 -16 -35 -43 -50c1 -5 2 -11 2 -16c0 -44 -34 -79 -80 -79c-20 0 -37 6 -51 17l-32 -15h-54l60 56c-1 7 -2 14 -2 21zM337 878c0 -24 17 -41 42 -41s42 17 42 41c0 25 -17 42 -42 42s-42 -17 -42 -42z" />
    <glyph glyph-name="aringacute" unicode="&#x1fb;" horiz-adv-x="554" 
d="M183 738c0 48 34 82 79 82c17 0 33 -5 45 -13c17 17 31 23 47 23c17 0 29 -10 29 -26c0 -18 -16 -35 -43 -50c1 -5 2 -11 2 -16c0 -44 -34 -79 -80 -79c-20 0 -37 6 -51 17l-32 -15h-54l60 56c-1 7 -2 14 -2 21zM220 738c0 -24 17 -41 42 -41s42 17 42 41
c0 25 -17 42 -42 42s-42 -17 -42 -42zM349 217v79c-153 -58 -205 -111 -205 -170c0 -44 32 -75 80 -75c69 0 125 75 125 166zM205 276l144 63v41c0 83 -33 122 -104 122c-46 0 -59 -13 -76 -65c-15 -38 -26 -48 -52 -48c-32 0 -50 18 -50 50c0 64 71 101 196 101
c134 0 184 -42 184 -156v-224c0 -77 15 -114 45 -114c18 0 37 2 49 22l14 -24c-16 -31 -64 -54 -111 -54c-58 0 -87 39 -87 107h-5c-35 -65 -100 -106 -174 -106c-83 0 -135 47 -135 118c0 64 41 115 162 167z" />
    <glyph glyph-name="AEacute" unicode="&#x1fc;" horiz-adv-x="1051" 
d="M370 38c94 3 110 20 110 114v132h-231l-4 -9c-40 -77 -87 -154 -87 -197c0 -40 41 -37 73 -40v-38h-242v38c61 7 82 25 113 81c38 68 71 122 300 565c4 9 7 16 7 23c0 18 -22 25 -83 25v38h636v-176h-35c-16 106 -62 133 -198 133h-127c-11 0 -17 -7 -17 -17v-287
c129 0 180 22 189 115h35v-273h-35c-14 94 -53 117 -189 118v-226c0 -87 40 -114 166 -114c141 0 191 36 217 154h38l-15 -197h-621v38zM273 329h207v392zM532 850h-60l130 77c37 22 60 33 87 33c23 0 38 -13 38 -35c0 -21 -30 -37 -75 -47z" />
    <glyph glyph-name="aeacute" unicode="&#x1fd;" horiz-adv-x="852" 
d="M771 121l31 -28c-59 -69 -127 -103 -208 -103c-98 0 -174 48 -214 128c-37 -81 -109 -127 -198 -127c-86 0 -139 45 -139 118s52 126 162 167l144 53v51c0 84 -33 122 -106 122c-43 0 -55 -14 -74 -65c-14 -38 -26 -48 -51 -48c-33 0 -51 18 -51 50c0 64 72 101 197 101
c91 0 141 -21 166 -69c44 44 105 69 176 69c125 0 200 -76 200 -201c0 -15 -7 -22 -31 -22h-309c-3 -9 -4 -24 -4 -44c0 -142 61 -231 160 -231c52 0 100 25 149 79zM349 197v89c-144 -53 -205 -100 -205 -160c0 -44 33 -75 80 -75c68 0 125 66 125 146zM473 363h164
c53 0 60 3 60 27c0 61 -43 102 -107 102s-101 -41 -117 -129zM388 651h-47l130 119c25 23 46 33 67 33c23 0 38 -13 38 -35c0 -21 -19 -37 -51 -52z" />
    <glyph glyph-name="Oslashacute" unicode="&#x1fe;" horiz-adv-x="943" 
d="M473 780c82 0 158 -22 222 -60l87 110h69l-111 -141c91 -73 149 -183 149 -310c0 -217 -184 -389 -416 -389c-87 0 -167 24 -234 66l-108 -137h-68l133 168c-86 71 -139 175 -139 292c0 226 182 401 416 401zM473 45c175 0 286 128 286 331c0 103 -25 187 -71 247
l-404 -510c48 -44 112 -68 189 -68zM187 376c0 -91 21 -166 61 -222l402 509c-46 40 -106 62 -177 62c-176 0 -286 -135 -286 -349zM436 850h-60l130 77c37 22 60 33 87 33c23 0 38 -13 38 -35c0 -21 -30 -37 -75 -47z" />
    <glyph glyph-name="oslashacute" unicode="&#x1ff;" horiz-adv-x="651" 
d="M324 540c57 0 110 -16 155 -45l77 97h69l-103 -130c51 -48 83 -115 83 -193c0 -162 -129 -279 -281 -279c-53 0 -102 14 -145 39l-71 -90h-68l96 122c-54 50 -89 122 -89 208c0 158 127 271 277 271zM324 492c-99 0 -164 -90 -164 -224c0 -56 10 -103 29 -140l247 313
c-28 32 -67 51 -112 51zM492 268c0 48 -9 90 -25 125l-246 -311c27 -27 62 -41 103 -41c102 0 168 90 168 227zM320 651h-47l130 119c25 23 46 33 67 33c23 0 38 -13 38 -35c0 -21 -19 -37 -51 -52z" />
    <glyph glyph-name="uni0218" unicode="&#x218;" horiz-adv-x="645" 
d="M73 11l-15 224h37c19 -121 107 -194 227 -194c98 0 160 51 160 130c0 68 -40 107 -175 166c-166 73 -217 128 -217 231c0 124 93 212 224 212c58 0 107 -18 159 -59l26 45h23l11 -199h-37c-32 109 -94 162 -179 162c-81 0 -133 -44 -133 -111c0 -63 39 -101 153 -152
c198 -89 254 -144 254 -249c0 -134 -111 -227 -272 -227c-76 0 -133 20 -195 70l-28 -49h-23zM284 -250l-22 26c45 25 65 49 65 78c-6 -5 -15 -8 -26 -8c-26 0 -44 19 -44 47c0 31 24 53 59 53c40 0 63 -29 63 -79c0 -43 -26 -80 -95 -117z" />
    <glyph glyph-name="uni0219" unicode="&#x219;" horiz-adv-x="454" 
d="M106 35l-20 -35h-22v172h25c26 -95 72 -141 142 -141c53 0 87 26 87 79c0 39 -18 51 -116 112c-90 57 -135 89 -135 164c0 91 65 154 149 154c36 0 78 -12 107 -31l20 21h19v-144h-26c-29 81 -61 113 -112 113c-45 0 -75 -25 -75 -68c0 -44 30 -65 98 -107
c115 -72 160 -106 160 -182c0 -94 -68 -152 -167 -152c-52 0 -98 16 -134 45zM206 -249l-22 26c45 25 65 49 65 78c-6 -5 -15 -8 -26 -8c-26 0 -44 19 -44 47c0 31 24 53 59 53c40 0 63 -29 63 -79c0 -43 -26 -80 -95 -117z" />
    <glyph glyph-name="uni021A" unicode="&#x21a;" horiz-adv-x="803" 
d="M776 770l10 -191h-41c-9 116 -55 148 -171 148c-99 0 -113 -8 -113 -31v-535c0 -86 16 -119 129 -123v-38h-378v38c113 4 130 37 130 123v535c0 23 -13 31 -98 31c-104 0 -182 -6 -186 -148h-37v191h755zM368 -250l-22 26c45 25 65 49 65 78c-6 -5 -15 -8 -26 -8
c-26 0 -44 19 -44 47c0 31 24 53 59 53c40 0 63 -29 63 -79c0 -43 -26 -80 -95 -117z" />
    <glyph glyph-name="uni021B" unicode="&#x21b;" horiz-adv-x="378" 
d="M100 467h-60v37c71 42 108 79 129 136h29v-126h134v-47h-134v-304c0 -94 16 -124 69 -124c33 0 55 13 77 46l25 -19c-19 -49 -66 -76 -134 -76c-88 0 -135 44 -135 122v355zM201 -250l-22 26c45 25 65 49 65 78c-6 -5 -15 -8 -26 -8c-26 0 -44 19 -44 47
c0 31 24 53 59 53c40 0 63 -29 63 -79c0 -43 -26 -80 -95 -117z" />
    <glyph glyph-name="dotlessj" unicode="&#x237;" horiz-adv-x="304" 
d="M213 540v-542c0 -166 -73 -258 -205 -258c-85 0 -145 38 -145 93c0 30 19 47 51 47c24 0 32 -7 52 -47c19 -40 30 -50 63 -50c64 0 86 38 86 149v348c0 77 -2 129 -7 147c-6 31 -25 40 -91 40v35z" />
    <glyph glyph-name="schwa" unicode="&#x259;" horiz-adv-x="574" 
d="M83 409l-31 28c58 70 126 103 211 103c156 0 262 -109 262 -269c0 -164 -113 -281 -274 -281c-128 0 -203 73 -203 203c0 18 4 20 31 20h329c3 11 4 27 4 45c0 139 -70 230 -177 230c-55 0 -102 -24 -152 -79zM401 167h-184c-54 0 -60 -4 -60 -28c0 -61 43 -101 110 -101
c71 0 117 44 134 129z" />
    <glyph glyph-name="apostrophe" unicode="&#x2bc;" horiz-adv-x="194" 
d="M112 611h-29c-10 56 -33 147 -33 170c0 28 20 49 47 49s47 -21 47 -50c0 -23 -22 -113 -32 -169z" />
    <glyph glyph-name="circumflex" unicode="&#x2c6;" horiz-adv-x="368" 
d="M139 780h90l119 -129h-45l-119 68l-119 -68h-45z" />
    <glyph glyph-name="caron" unicode="&#x2c7;" horiz-adv-x="368" 
d="M229 651h-90l-119 129h45l119 -68l119 68h45z" />
    <glyph glyph-name="breve" unicode="&#x2d8;" horiz-adv-x="316" 
d="M259 776h37c-5 -76 -63 -130 -138 -130c-77 0 -135 55 -138 130h36c12 -37 52 -61 101 -61c50 0 91 24 102 61z" />
    <glyph glyph-name="dotaccent" unicode="&#x2d9;" horiz-adv-x="164" 
d="M20 743c0 35 27 62 62 62s62 -27 62 -62s-27 -62 -62 -62s-62 27 -62 62z" />
    <glyph glyph-name="ring" unicode="&#x2da;" horiz-adv-x="214" 
d="M20 742c0 51 37 88 86 88c51 0 88 -37 88 -88c0 -49 -37 -86 -88 -86c-49 0 -86 37 -86 86zM59 742c0 -27 20 -47 47 -47c26 0 45 20 45 47c0 26 -19 45 -45 45c-27 0 -47 -19 -47 -45z" />
    <glyph glyph-name="ogonek" unicode="&#x2db;" horiz-adv-x="265" 
d="M225 -121l29 -31c-47 -61 -99 -82 -157 -82c-61 0 -97 32 -97 85c0 63 55 123 149 160h53v-4c-72 -35 -123 -91 -123 -133c0 -27 19 -48 51 -48c25 0 60 17 95 53z" />
    <glyph glyph-name="tilde" unicode="&#x2dc;" horiz-adv-x="381" 
d="M54 660h-34c11 68 54 114 106 114c53 0 104 -46 155 -46c25 0 37 11 47 42h33c-7 -67 -50 -118 -100 -118c-53 0 -108 48 -162 48c-25 0 -36 -10 -45 -40z" />
    <glyph glyph-name="hungarumlaut" unicode="&#x2dd;" horiz-adv-x="473" 
d="M67 651h-47l130 119c25 23 46 33 67 33c23 0 38 -13 38 -35c0 -21 -19 -37 -51 -52zM265 651h-47l130 119c25 23 46 33 67 33c23 0 38 -13 38 -35c0 -21 -19 -37 -51 -52z" />
    <glyph glyph-name="uni03BC" unicode="&#x3bc;" horiz-adv-x="721" 
d="M207 82l-4 -1c21 -104 41 -234 41 -271c0 -43 -22 -70 -56 -70c-33 0 -58 27 -58 62v568c0 106 -12 125 -83 125v35h181v-273c0 -149 32 -213 108 -213c58 0 100 37 136 121c14 31 17 51 17 107v98c0 107 -12 125 -83 125v35h181v-307c0 -75 2 -123 6 -147
c6 -33 19 -40 81 -40v-35l-165 -12l-11 120h-4c-42 -77 -101 -119 -163 -119c-54 0 -97 32 -124 92z" />
    <glyph glyph-name="Ddotbelow" unicode="&#x1e0c;" horiz-adv-x="884" 
d="M429 0h-391v38c102 3 120 19 120 114v466c0 93 -14 110 -100 114v38h351c241 0 416 -168 416 -398c0 -219 -163 -372 -396 -372zM407 721h-127c-11 0 -17 -7 -17 -17v-541c0 -77 48 -114 149 -114c181 0 283 111 283 321c0 221 -110 351 -288 351zM379 -168
c0 35 27 62 62 62s62 -27 62 -62s-27 -62 -62 -62s-62 27 -62 62z" />
    <glyph glyph-name="ddotbelow" unicode="&#x1e0d;" horiz-adv-x="675" 
d="M484 -10v94h-4c-48 -67 -99 -94 -172 -94c-151 0 -260 115 -260 276c0 158 110 274 260 274c63 0 112 -21 158 -67v102c0 75 -2 129 -6 147c-7 29 -34 40 -103 40v30l205 38v-577c0 -92 1 -152 7 -177c8 -32 19 -41 81 -41v-34zM464 239v66c0 70 -6 99 -27 126
c-30 40 -83 61 -129 61c-95 0 -147 -86 -147 -221c0 -141 51 -233 147 -233c47 0 104 23 130 63c19 29 26 66 26 138zM246 -168c0 35 27 62 62 62s62 -27 62 -62s-27 -62 -62 -62s-62 27 -62 62z" />
    <glyph glyph-name="Hdotbelow" unicode="&#x1e24;" horiz-adv-x="925" 
d="M770 611v-452c0 -102 15 -118 109 -121v-38h-324v38c94 3 110 20 110 114v217h-405v-210c0 -102 15 -118 109 -121v-38h-324v38c94 3 110 20 110 114v466c0 93 -14 110 -100 114v38h304v-38c-86 -3 -99 -20 -99 -121v-192h405v199c0 93 -14 110 -100 114v38h304v-38
c-86 -3 -99 -20 -99 -121zM402 -168c0 35 27 62 62 62s62 -27 62 -62s-27 -62 -62 -62s-62 27 -62 62z" />
    <glyph glyph-name="hdotbelow" unicode="&#x1e25;" horiz-adv-x="688" 
d="M208 287v-128c0 -110 6 -119 82 -124v-35h-266v35c77 5 86 16 86 117v419c0 78 -2 123 -7 147c-6 32 -21 40 -81 40v34l184 38v-381h4c41 53 123 91 196 91c61 0 116 -23 144 -59c23 -30 33 -77 33 -162v-160c0 -109 6 -119 82 -124v-35h-265v35c76 4 84 16 84 117v126
c0 150 -31 207 -113 207c-62 0 -117 -34 -146 -90c-14 -28 -17 -47 -17 -108zM283 -168c0 35 27 62 62 62s62 -27 62 -62s-27 -62 -62 -62s-62 27 -62 62z" />
    <glyph glyph-name="Ndotaccent" unicode="&#x1e44;" horiz-adv-x="902" 
d="M754 -10h-60l-475 626h-4v-427c0 -132 14 -148 99 -151v-38h-269v38c94 3 110 20 110 144v406c0 113 -14 140 -100 144v38h198l437 -583h4v394c0 132 -14 148 -99 151v38h269v-38c-94 -3 -110 -20 -110 -144v-598zM412 904c0 31 24 55 52 55c31 0 55 -24 55 -55
c0 -28 -24 -52 -55 -52c-28 0 -52 24 -52 52z" />
    <glyph glyph-name="ndotaccent" unicode="&#x1e45;" horiz-adv-x="689" 
d="M216 291v-134c0 -108 6 -118 83 -123v-34h-262v34c74 5 84 16 84 116v133c0 78 -2 128 -6 145c-8 36 -22 42 -80 42v32l160 38l12 -99h4c50 62 121 99 200 99c61 0 115 -22 142 -56c23 -31 31 -75 31 -160v-167c0 -108 8 -118 81 -123v-34h-259v34c75 4 83 17 83 116v132
c0 151 -31 204 -114 204c-59 0 -113 -34 -141 -88c-14 -27 -18 -44 -18 -107zM291 743c0 35 27 62 62 62s62 -27 62 -62s-27 -62 -62 -62s-62 27 -62 62z" />
    <glyph glyph-name="Rdotbelow" unicode="&#x1e5a;" horiz-adv-x="788" 
d="M658 577c0 -106 -61 -180 -201 -204l221 -266c36 -44 78 -60 137 -69v-38h-193l-245 314c-35 46 -55 51 -117 51v-208c0 -99 17 -119 138 -119v-38h-353v38c94 3 110 20 110 114v466c0 93 -14 110 -100 114v38h314c183 0 289 -72 289 -193zM260 706v-291h71
c132 0 197 46 197 157c0 107 -50 151 -159 151h-92c-11 0 -17 -7 -17 -17zM350 -168c0 35 27 62 62 62s62 -27 62 -62s-27 -62 -62 -62s-62 27 -62 62z" />
    <glyph glyph-name="rdotbelow" unicode="&#x1e5b;" horiz-adv-x="477" 
d="M222 193v-34c0 -110 6 -119 82 -124v-35h-266v35c77 4 86 16 86 117v117c0 182 -2 187 -88 187v35l175 38l14 -124h4c36 80 106 135 174 135c43 0 69 -22 69 -57c0 -32 -21 -51 -58 -51c-42 0 -55 25 -79 25c-36 0 -76 -52 -96 -122c-11 -38 -17 -89 -17 -142zM113 -168
c0 35 27 62 62 62s62 -27 62 -62s-27 -62 -62 -62s-62 27 -62 62z" />
    <glyph glyph-name="Sdotbelow" unicode="&#x1e62;" horiz-adv-x="645" 
d="M73 11l-15 224h37c19 -121 107 -194 227 -194c98 0 160 51 160 130c0 68 -40 107 -175 166c-166 73 -217 128 -217 231c0 124 93 212 224 212c58 0 107 -18 159 -59l26 45h23l11 -199h-37c-32 109 -94 162 -179 162c-81 0 -133 -44 -133 -111c0 -63 39 -101 153 -152
c198 -89 254 -144 254 -249c0 -134 -111 -227 -272 -227c-76 0 -133 20 -195 70l-28 -49h-23zM256 -168c0 35 27 62 62 62s62 -27 62 -62s-27 -62 -62 -62s-62 27 -62 62z" />
    <glyph glyph-name="sdotbelow" unicode="&#x1e63;" horiz-adv-x="454" 
d="M106 35l-20 -35h-22v172h25c26 -95 72 -141 142 -141c53 0 87 26 87 79c0 39 -18 51 -116 112c-90 57 -135 89 -135 164c0 91 65 154 149 154c36 0 78 -12 107 -31l20 21h19v-144h-26c-29 81 -61 113 -112 113c-45 0 -75 -25 -75 -68c0 -44 30 -65 98 -107
c115 -72 160 -106 160 -182c0 -94 -68 -152 -167 -152c-52 0 -98 16 -134 45zM178 -167c0 35 27 62 62 62s62 -27 62 -62s-27 -62 -62 -62s-62 27 -62 62z" />
    <glyph glyph-name="Tdotbelow" unicode="&#x1e6c;" horiz-adv-x="803" 
d="M776 770l10 -191h-41c-9 116 -55 148 -171 148c-99 0 -113 -8 -113 -31v-535c0 -86 16 -119 129 -123v-38h-378v38c113 4 130 37 130 123v535c0 23 -13 31 -98 31c-104 0 -182 -6 -186 -148h-37v191h755zM340 -168c0 35 27 62 62 62s62 -27 62 -62s-27 -62 -62 -62
s-62 27 -62 62z" />
    <glyph glyph-name="tdotbelow" unicode="&#x1e6d;" horiz-adv-x="378" 
d="M100 467h-60v37c71 42 108 79 129 136h29v-126h134v-47h-134v-304c0 -94 16 -124 69 -124c33 0 55 13 77 46l25 -19c-19 -49 -66 -76 -134 -76c-88 0 -135 44 -135 122v355zM173 -168c0 35 27 62 62 62s62 -27 62 -62s-27 -62 -62 -62s-62 27 -62 62z" />
    <glyph glyph-name="Wgrave" unicode="&#x1e80;" horiz-adv-x="1176" 
d="M700 600l134 -449l156 434c19 52 26 79 26 102c0 34 -20 45 -75 45v38h243v-38c-61 0 -88 -24 -109 -81l-251 -661h-35l-192 569l-213 -569h-35l-208 574c-47 129 -71 167 -152 167v39h326v-39c-68 0 -92 -10 -92 -44c0 -17 6 -40 16 -70l152 -463l123 346
c18 52 38 97 49 133c-36 77 -61 98 -99 98v39h306v-39c-77 0 -91 -10 -91 -40c0 -20 8 -47 21 -91zM721 850h-60l-120 28c-45 10 -75 26 -75 47c0 22 15 35 38 35c27 0 50 -11 87 -33z" />
    <glyph glyph-name="wgrave" unicode="&#x1e81;" horiz-adv-x="852" 
d="M425 359l-147 -369h-37l-130 416c-23 74 -41 89 -99 89v35h265v-35c-52 0 -71 -11 -71 -40c0 -13 4 -31 11 -57l68 -239h4l147 371h31l133 -371h4l60 162c33 89 41 115 41 138c0 29 -13 36 -67 36v35h200v-35c-39 0 -53 -18 -95 -122l-155 -383h-37l-122 369h-4zM551 651
h-47l-137 65c-32 15 -51 31 -51 52c0 22 15 35 38 35c21 0 42 -10 67 -33z" />
    <glyph glyph-name="Wacute" unicode="&#x1e82;" horiz-adv-x="1176" 
d="M700 600l134 -449l156 434c19 52 26 79 26 102c0 34 -20 45 -75 45v38h243v-38c-61 0 -88 -24 -109 -81l-251 -661h-35l-192 569l-213 -569h-35l-208 574c-47 129 -71 167 -152 167v39h326v-39c-68 0 -92 -10 -92 -44c0 -17 6 -40 16 -70l152 -463l123 346
c18 52 38 97 49 133c-36 77 -61 98 -99 98v39h306v-39c-77 0 -91 -10 -91 -40c0 -20 8 -47 21 -91zM546 850h-60l130 77c37 22 60 33 87 33c23 0 38 -13 38 -35c0 -21 -30 -37 -75 -47z" />
    <glyph glyph-name="wacute" unicode="&#x1e83;" horiz-adv-x="852" 
d="M425 359l-147 -369h-37l-130 416c-23 74 -41 89 -99 89v35h265v-35c-52 0 -71 -11 -71 -40c0 -13 4 -31 11 -57l68 -239h4l147 371h31l133 -371h4l60 162c33 89 41 115 41 138c0 29 -13 36 -67 36v35h200v-35c-39 0 -53 -18 -95 -122l-155 -383h-37l-122 369h-4zM408 651
h-47l130 119c25 23 46 33 67 33c23 0 38 -13 38 -35c0 -21 -19 -37 -51 -52z" />
    <glyph glyph-name="Wdieresis" unicode="&#x1e84;" horiz-adv-x="1176" 
d="M700 600l134 -449l156 434c19 52 26 79 26 102c0 34 -20 45 -75 45v38h243v-38c-61 0 -88 -24 -109 -81l-251 -661h-35l-192 569l-213 -569h-35l-208 574c-47 129 -71 167 -152 167v39h326v-39c-68 0 -92 -10 -92 -44c0 -17 6 -40 16 -70l152 -463l123 346
c18 52 38 97 49 133c-36 77 -61 98 -99 98v39h306v-39c-77 0 -91 -10 -91 -40c0 -20 8 -47 21 -91zM474 910c0 28 22 50 50 50c29 0 51 -22 51 -50c0 -29 -22 -51 -51 -51c-28 0 -50 22 -50 51zM656 910c0 28 22 50 51 50c28 0 50 -22 50 -50c0 -29 -22 -51 -50 -51
c-29 0 -51 22 -51 51z" />
    <glyph glyph-name="wdieresis" unicode="&#x1e85;" horiz-adv-x="852" 
d="M425 359l-147 -369h-37l-130 416c-23 74 -41 89 -99 89v35h265v-35c-52 0 -71 -11 -71 -40c0 -13 4 -31 11 -57l68 -239h4l147 371h31l133 -371h4l60 162c33 89 41 115 41 138c0 29 -13 36 -67 36v35h200v-35c-39 0 -53 -18 -95 -122l-155 -383h-37l-122 369h-4zM310 709
c0 33 25 58 58 58s58 -25 58 -58s-25 -58 -58 -58s-58 25 -58 58zM477 709c0 33 25 58 58 58s58 -25 58 -58s-25 -58 -58 -58s-58 25 -58 58z" />
    <glyph glyph-name="Zdotbelow" unicode="&#x1e92;" horiz-adv-x="770" 
d="M722 235l-12 -235h-694v4l526 724h-274c-94 0 -137 -38 -155 -142h-37l15 184h609v-4l-521 -720h310c137 0 166 33 190 189h43zM325 -168c0 35 27 62 62 62s62 -27 62 -62s-27 -62 -62 -62s-62 27 -62 62z" />
    <glyph glyph-name="zdotbelow" unicode="&#x1e93;" horiz-adv-x="557" 
d="M515 155l-17 -155h-480v4l346 484h-111c-114 0 -142 -14 -156 -96h-32l16 138h430v-4l-341 -480h117c137 0 171 17 195 109h33zM213 -168c0 35 27 62 62 62s62 -27 62 -62s-27 -62 -62 -62s-62 27 -62 62z" />
    <glyph glyph-name="Edotbelow" unicode="&#x1eb8;" horiz-adv-x="726" 
d="M260 710v-287c144 0 189 34 189 115h35v-273h-35c0 80 -39 117 -189 118v-226c0 -87 40 -114 166 -114c141 0 191 36 217 154h38l-15 -197h-621v38c94 3 110 20 110 114v466c0 93 -14 110 -100 114v38h578l9 -176h-35c-16 106 -67 133 -203 133h-127
c-11 0 -17 -7 -17 -17zM317 -168c0 35 27 62 62 62s62 -27 62 -62s-27 -62 -62 -62s-62 27 -62 62z" />
    <glyph glyph-name="edotbelow" unicode="&#x1eb9;" horiz-adv-x="573" 
d="M491 121l31 -28c-58 -70 -126 -103 -211 -103c-156 0 -262 109 -262 269c0 164 113 281 274 281c128 0 203 -73 203 -203c0 -18 -4 -20 -31 -20h-329c-3 -11 -4 -27 -4 -45c0 -139 70 -230 177 -230c55 0 102 24 152 79zM173 363h184c54 0 60 4 60 28
c0 61 -43 101 -110 101c-71 0 -117 -44 -134 -129zM250 -168c0 35 27 62 62 62s62 -27 62 -62s-27 -62 -62 -62s-62 27 -62 62z" />
    <glyph glyph-name="Etilde" unicode="&#x1ebc;" horiz-adv-x="726" 
d="M260 710v-287c144 0 189 34 189 115h35v-273h-35c0 80 -39 117 -189 118v-226c0 -87 40 -114 166 -114c141 0 191 36 217 154h38l-15 -197h-621v38c94 3 110 20 110 114v466c0 93 -14 110 -100 114v38h578l9 -176h-35c-16 106 -67 133 -203 133h-127
c-11 0 -17 -7 -17 -17zM242 846h-34c11 68 54 114 106 114c53 0 104 -46 155 -46c25 0 37 11 47 42h33c-7 -67 -50 -118 -100 -118c-53 0 -108 48 -162 48c-25 0 -36 -10 -45 -40z" />
    <glyph glyph-name="etilde" unicode="&#x1ebd;" horiz-adv-x="573" 
d="M491 121l31 -28c-58 -70 -126 -103 -211 -103c-156 0 -262 109 -262 269c0 164 113 281 274 281c128 0 203 -73 203 -203c0 -18 -4 -20 -31 -20h-329c-3 -11 -4 -27 -4 -45c0 -139 70 -230 177 -230c55 0 102 24 152 79zM173 363h184c54 0 60 4 60 28
c0 61 -43 101 -110 101c-71 0 -117 -44 -134 -129zM169 660h-34c11 68 54 114 106 114c53 0 104 -46 155 -46c25 0 37 11 47 42h33c-7 -67 -50 -118 -100 -118c-53 0 -108 48 -162 48c-25 0 -36 -10 -45 -40z" />
    <glyph glyph-name="Idotbelow" unicode="&#x1eca;" horiz-adv-x="415" 
d="M260 581v-392c0 -132 15 -148 109 -151v-38h-324v38c94 3 110 20 110 144v406c0 113 -14 140 -100 144v38h304v-38c-86 -3 -99 -30 -99 -151zM144 -168c0 35 27 62 62 62s62 -27 62 -62s-27 -62 -62 -62s-62 27 -62 62z" />
    <glyph glyph-name="idotbelow" unicode="&#x1ecb;" horiz-adv-x="341" 
d="M228 540v-381c0 -103 14 -121 93 -124v-35h-287v35c81 4 96 23 96 117v128c0 77 -2 129 -7 147c-6 31 -25 40 -91 40v35zM113 743c0 35 27 62 62 62s62 -27 62 -62s-27 -62 -62 -62s-62 27 -62 62zM117 -168c0 35 27 62 62 62s62 -27 62 -62s-27 -62 -62 -62
s-62 27 -62 62z" />
    <glyph glyph-name="Odotbelow" unicode="&#x1ecc;" horiz-adv-x="946" 
d="M473 780c234 0 416 -175 416 -401c0 -217 -184 -389 -416 -389s-416 172 -416 389c0 226 182 401 416 401zM473 45c175 0 286 128 286 331c0 214 -110 349 -286 349s-286 -135 -286 -349c0 -203 110 -331 286 -331zM412 -168c0 35 27 62 62 62s62 -27 62 -62
s-27 -62 -62 -62s-62 27 -62 62z" />
    <glyph glyph-name="odotbelow" unicode="&#x1ecd;" horiz-adv-x="654" 
d="M325 540c152 0 281 -114 281 -271c0 -162 -129 -279 -281 -279c-150 0 -277 116 -277 279c0 158 127 271 277 271zM325 492c-99 0 -164 -90 -164 -224c0 -138 64 -227 164 -227c102 0 168 90 168 227c0 133 -67 224 -168 224zM263 -168c0 35 27 62 62 62s62 -27 62 -62
s-27 -62 -62 -62s-62 27 -62 62z" />
    <glyph glyph-name="Udotbelow" unicode="&#x1ee4;" horiz-adv-x="861" 
d="M722 512v-202c0 -211 -79 -320 -288 -320c-197 0 -294 73 -294 283v264c0 99 -1 148 -24 173c-16 17 -42 22 -87 22v38h341v-38c-45 0 -72 -3 -88 -24c-18 -24 -22 -73 -22 -171v-272c0 -136 53 -213 202 -213c133 0 200 76 200 219v241c0 119 -7 175 -33 200
c-18 17 -46 20 -87 20v38h290v-38c-42 0 -69 -4 -85 -27c-20 -28 -25 -83 -25 -193zM390 -168c0 35 27 62 62 62s62 -27 62 -62s-27 -62 -62 -62s-62 27 -62 62z" />
    <glyph glyph-name="udotbelow" unicode="&#x1ee5;" 
d="M463 272v98c0 109 -6 117 -83 125v35h181v-307c0 -76 2 -123 6 -147c6 -34 20 -40 81 -40v-35l-165 -12l-11 120h-4c-51 -82 -119 -119 -191 -119c-56 0 -114 23 -141 59c-22 29 -32 80 -32 162v159c0 109 -6 118 -83 125v35h181v-273c0 -144 33 -207 107 -207
c57 0 104 38 137 115c13 31 17 50 17 107zM229 -168c0 35 27 62 62 62s62 -27 62 -62s-27 -62 -62 -62s-62 27 -62 62z" />
    <glyph glyph-name="Ygrave" unicode="&#x1ef2;" horiz-adv-x="733" 
d="M314 304l-200 342c-41 69 -64 86 -119 86v38h315v-38c-66 0 -91 -9 -91 -34c0 -13 7 -33 23 -60l155 -265h4l113 190c42 71 59 110 59 135s-17 34 -65 34v38h229v-38c-56 0 -82 -26 -164 -164l-154 -260v-119c0 -130 13 -151 109 -151v-38h-324v38c95 0 110 22 110 144
v122zM514 850h-60l-120 28c-45 10 -75 26 -75 47c0 22 15 35 38 35c27 0 50 -11 87 -33z" />
    <glyph glyph-name="ygrave" unicode="&#x1ef3;" horiz-adv-x="639" 
d="M499 328l-218 -485c-30 -67 -80 -103 -143 -103c-42 0 -63 15 -63 47c0 33 19 46 82 56c55 9 78 26 103 76l35 70l-192 417c-34 74 -46 85 -99 89v35h265v-35c-46 0 -67 -10 -67 -33c0 -17 12 -59 28 -98l110 -266h5l91 225c36 87 42 106 42 128c0 35 -15 44 -70 44v35
h220v-35c-50 0 -64 -18 -129 -167zM449 651h-47l-137 65c-32 15 -51 31 -51 52c0 22 15 35 38 35c21 0 42 -10 67 -33z" />
    <glyph glyph-name="Ytilde" unicode="&#x1ef8;" horiz-adv-x="733" 
d="M314 304l-200 342c-41 69 -64 86 -119 86v38h315v-38c-66 0 -91 -9 -91 -34c0 -13 7 -33 23 -60l155 -265h4l113 190c42 71 59 110 59 135s-17 34 -65 34v38h229v-38c-56 0 -82 -26 -164 -164l-154 -260v-119c0 -130 13 -151 109 -151v-38h-324v38c95 0 110 22 110 144
v122zM271 846h-34c11 68 54 114 106 114c53 0 104 -46 155 -46c25 0 37 11 47 42h33c-7 -67 -50 -118 -100 -118c-53 0 -108 48 -162 48c-25 0 -36 -10 -45 -40z" />
    <glyph glyph-name="ytilde" unicode="&#x1ef9;" horiz-adv-x="639" 
d="M499 328l-218 -485c-30 -67 -80 -103 -143 -103c-42 0 -63 15 -63 47c0 33 19 46 82 56c55 9 78 26 103 76l35 70l-192 417c-34 74 -46 85 -99 89v35h265v-35c-46 0 -67 -10 -67 -33c0 -17 12 -59 28 -98l110 -266h5l91 225c36 87 42 106 42 128c0 35 -15 44 -70 44v35
h220v-35c-50 0 -64 -18 -129 -167zM205 660h-34c11 68 54 114 106 114c53 0 104 -46 155 -46c25 0 37 11 47 42h33c-7 -67 -50 -118 -100 -118c-53 0 -108 48 -162 48c-25 0 -36 -10 -45 -40z" />
    <glyph glyph-name="endash" unicode="&#x2013;" horiz-adv-x="724" 
d="M647 248h-570v83h570v-83z" />
    <glyph glyph-name="emdash" unicode="&#x2014;" horiz-adv-x="1112" 
d="M1035 248h-958v83h958v-83z" />
    <glyph glyph-name="quoteleft" unicode="&#x2018;" horiz-adv-x="257" 
d="M175 830l23 -27c-61 -46 -85 -85 -85 -136c8 5 19 8 30 8c31 0 52 -23 52 -55c0 -36 -27 -61 -68 -61c-46 0 -71 33 -71 94c0 68 28 110 119 177z" />
    <glyph glyph-name="quoteright" unicode="&#x2019;" horiz-adv-x="254" 
d="M87 559l-23 27c61 46 85 85 85 136c-8 -5 -19 -8 -30 -8c-31 0 -52 23 -52 55c0 36 27 61 68 61c46 0 71 -33 71 -94c0 -68 -28 -110 -119 -177z" />
    <glyph glyph-name="quotesinglbase" unicode="&#x201a;" horiz-adv-x="275" 
d="M89 -165l-23 27c61 46 85 85 85 136c-8 -5 -19 -8 -30 -8c-31 0 -52 23 -52 55c0 36 27 61 68 61c46 0 71 -33 71 -94c0 -68 -28 -110 -119 -177z" />
    <glyph glyph-name="quotedblleft" unicode="&#x201c;" horiz-adv-x="449" 
d="M367 830l23 -27c-61 -46 -85 -85 -85 -136c8 5 19 8 30 8c31 0 52 -23 52 -55c0 -36 -27 -61 -68 -61c-46 0 -71 33 -71 94c0 68 28 110 119 177zM175 830l23 -27c-61 -46 -85 -85 -85 -136c8 5 19 8 30 8c31 0 52 -23 52 -55c0 -36 -27 -61 -68 -61c-46 0 -71 33 -71 94
c0 68 28 110 119 177z" />
    <glyph glyph-name="quotedblright" unicode="&#x201d;" horiz-adv-x="446" 
d="M87 559l-23 27c61 46 85 85 85 136c-8 -5 -19 -8 -30 -8c-31 0 -52 23 -52 55c0 36 27 61 68 61c46 0 71 -33 71 -94c0 -68 -28 -110 -119 -177zM279 559l-23 27c61 46 85 85 85 136c-8 -5 -19 -8 -30 -8c-31 0 -52 23 -52 55c0 36 27 61 68 61c46 0 71 -33 71 -94
c0 -68 -28 -110 -119 -177z" />
    <glyph glyph-name="quotedblbase" unicode="&#x201e;" horiz-adv-x="467" 
d="M89 -165l-23 27c61 46 85 85 85 136c-8 -5 -19 -8 -30 -8c-31 0 -52 23 -52 55c0 36 27 61 68 61c46 0 71 -33 71 -94c0 -68 -28 -110 -119 -177zM281 -165l-23 27c61 46 85 85 85 136c-8 -5 -19 -8 -30 -8c-31 0 -52 23 -52 55c0 36 27 61 68 61c46 0 71 -33 71 -94
c0 -68 -28 -110 -119 -177z" />
    <glyph glyph-name="dagger" unicode="&#x2020;" horiz-adv-x="552" 
d="M92 429c-35 0 -62 27 -62 62s27 62 62 62c45 0 73 -33 164 -41c-3 120 -41 150 -41 206c0 35 27 62 62 62s62 -27 62 -62c0 -55 -37 -85 -42 -206c90 9 117 41 163 41c35 0 62 -27 62 -62s-27 -62 -62 -62c-46 0 -74 32 -163 40c0 -99 18 -152 55 -208
c-29 -108 -55 -354 -55 -521h-40c0 167 -26 413 -55 521c37 56 54 109 55 208c-91 -8 -119 -40 -165 -40z" />
    <glyph glyph-name="daggerdbl" unicode="&#x2021;" horiz-adv-x="594" 
d="M373 261c-37 -56 -55 -111 -55 -210c89 8 117 40 163 40c35 0 62 -27 62 -62s-27 -62 -62 -62c-46 0 -73 32 -163 41c5 -121 42 -151 42 -206c0 -35 -27 -62 -62 -62s-62 27 -62 62c0 56 38 86 41 206c-91 -8 -119 -41 -164 -41c-35 0 -62 27 -62 62s27 62 62 62
c46 0 74 -32 165 -40c-1 99 -18 152 -55 210c37 56 54 109 55 208c-91 -8 -119 -40 -165 -40c-35 0 -62 27 -62 62s27 62 62 62c45 0 73 -33 164 -41c-3 120 -41 150 -41 206c0 35 27 62 62 62s62 -27 62 -62c0 -55 -37 -85 -42 -206c90 9 117 41 163 41c35 0 62 -27 62 -62
s-27 -62 -62 -62c-46 0 -74 32 -163 40c0 -99 18 -152 55 -208z" />
    <glyph glyph-name="bullet" unicode="&#x2022;" horiz-adv-x="476" 
d="M235 216c-80 0 -151 68 -151 153s71 152 156 152c82 0 152 -67 152 -152s-70 -153 -157 -153z" />
    <glyph glyph-name="ellipsis" unicode="&#x2026;" horiz-adv-x="697" 
d="M67 55c0 37 29 66 65 66c37 0 66 -29 66 -66c0 -36 -29 -65 -66 -65c-36 0 -65 29 -65 65zM283 55c0 37 29 66 65 66c37 0 66 -29 66 -66c0 -36 -29 -65 -66 -65c-36 0 -65 29 -65 65zM499 55c0 37 29 66 65 66c37 0 66 -29 66 -66c0 -36 -29 -65 -66 -65
c-36 0 -65 29 -65 65z" />
    <glyph glyph-name="perthousand" unicode="&#x2030;" horiz-adv-x="916" 
d="M636 770l-544 -770h-57l553 770h48zM200 780c65 0 118 -70 118 -160c0 -87 -53 -156 -118 -156s-118 69 -118 156c0 90 53 160 118 160zM200 489c38 0 61 29 61 129c0 105 -22 137 -61 137s-61 -32 -61 -137c0 -100 22 -129 61 -129zM762 306c65 0 118 -70 118 -160
c0 -87 -53 -156 -118 -156s-118 69 -118 156c0 90 53 160 118 160zM762 15c38 0 61 29 61 129c0 105 -22 137 -61 137s-61 -32 -61 -137c0 -100 22 -129 61 -129zM471 306c65 0 118 -70 118 -160c0 -87 -53 -156 -118 -156s-118 69 -118 156c0 90 53 160 118 160zM471 15
c38 0 61 29 61 129c0 105 -22 137 -61 137s-61 -32 -61 -137c0 -100 22 -129 61 -129z" />
    <glyph glyph-name="guilsinglleft" unicode="&#x2039;" horiz-adv-x="318" 
d="M219 104l-170 158l170 159l20 -21l-99 -138l98 -138z" />
    <glyph glyph-name="guilsinglright" unicode="&#x203a;" horiz-adv-x="318" 
d="M269 262l-170 -158l-19 20l98 138l-99 138l20 21z" />
    <glyph glyph-name="fraction" unicode="&#x2044;" horiz-adv-x="40" 
d="M321 770l-544 -770h-57l553 770h48z" />
    <glyph glyph-name="zerosuperior" unicode="&#x2070;" horiz-adv-x="310" 
d="M155 780c65 0 118 -70 118 -160c0 -87 -53 -156 -118 -156s-118 69 -118 156c0 90 53 160 118 160zM155 489c38 0 61 29 61 129c0 105 -22 137 -61 137s-61 -32 -61 -137c0 -100 22 -129 61 -129z" />
    <glyph glyph-name="foursuperior" unicode="&#x2074;" horiz-adv-x="274" 
d="M20 540v25l141 215h22v-216c34 1 37 5 37 36h19v-94h-19c0 29 -4 34 -37 35v-8c0 -41 5 -49 32 -50v-15h-123v15c36 2 42 9 42 47v10h-114zM134 565v130h-4l-85 -130h89z" />
    <glyph glyph-name="fivesuperior" unicode="&#x2075;" horiz-adv-x="261" 
d="M110 732l-18 -69l3 -2c9 7 23 11 40 11c54 0 91 -36 91 -95c0 -64 -54 -113 -125 -113c-48 0 -80 22 -80 55c0 16 7 23 17 23c11 0 16 -4 28 -32c7 -17 16 -23 34 -23c44 0 71 39 71 100c0 43 -13 63 -42 63c-21 0 -34 -10 -48 -35c-4 -8 -8 -11 -15 -11c-6 0 -9 2 -9 7
c0 2 1 8 2 11l42 158c9 -4 27 -7 47 -7c23 0 54 4 61 7h4c-6 -30 -31 -48 -67 -48h-36z" />
    <glyph glyph-name="sixsuperior" unicode="&#x2076;" horiz-adv-x="292" 
d="M257 572c0 -60 -50 -108 -111 -108c-65 0 -109 57 -109 139c0 97 57 177 126 177c42 0 75 -18 75 -41c0 -13 -9 -21 -22 -21c-34 0 -20 39 -64 39c-34 0 -64 -52 -64 -121l4 -1c17 25 38 36 65 36c57 0 100 -43 100 -99zM92 601v-20c0 -62 19 -94 55 -94
c37 0 55 26 55 83c0 50 -18 77 -51 77c-24 0 -42 -14 -59 -46z" />
    <glyph glyph-name="sevensuperior" unicode="&#x2077;" horiz-adv-x="238" 
d="M131 626l54 104h-74c-42 0 -48 -3 -59 -32l-6 -16h-20l28 112h21c-1 -2 -2 -9 -2 -12c0 -10 5 -12 31 -12h122v-8c-59 -128 -68 -157 -102 -246c-16 -42 -29 -58 -45 -58c-14 0 -23 9 -23 22c0 14 11 32 75 146z" />
    <glyph glyph-name="eightsuperior" unicode="&#x2078;" horiz-adv-x="278" 
d="M150 600l-24 14c-28 -15 -46 -40 -46 -72c0 -36 24 -55 62 -55c30 0 58 20 58 49c0 25 -10 41 -50 64zM177 641c35 -18 64 -46 64 -88c0 -55 -49 -89 -103 -89c-45 0 -101 24 -101 75c0 42 32 67 67 83c-31 17 -57 40 -57 79c0 21 10 42 26 57c17 16 42 22 65 22
c21 0 44 -5 61 -17c18 -12 30 -31 30 -53c0 -34 -23 -52 -52 -69zM136 660l19 -10c18 11 36 34 36 54c0 29 -20 53 -54 53c-32 0 -50 -19 -50 -39c0 -25 13 -39 49 -58z" />
    <glyph glyph-name="ninesuperior" unicode="&#x2079;" horiz-adv-x="292" 
d="M35 672c0 60 50 108 111 108c65 0 109 -57 109 -139c0 -97 -57 -177 -126 -177c-42 0 -75 18 -75 41c0 13 9 21 22 21c34 0 20 -39 64 -39c34 0 64 52 64 121l-4 1c-17 -25 -38 -36 -65 -36c-57 0 -100 43 -100 99zM200 643v20c0 62 -19 94 -55 94c-37 0 -55 -26 -55 -83
c0 -50 18 -77 51 -77c24 0 42 14 59 46z" />
    <glyph glyph-name="zeroinferior" unicode="&#x2080;" horiz-adv-x="310" 
d="M155 306c65 0 118 -70 118 -160c0 -87 -53 -156 -118 -156s-118 69 -118 156c0 90 53 160 118 160zM155 15c38 0 61 29 61 129c0 105 -22 137 -61 137s-61 -32 -61 -137c0 -100 22 -129 61 -129z" />
    <glyph glyph-name="oneinferior" unicode="&#x2081;" horiz-adv-x="246" 
d="M147 312v-242c0 -41 6 -49 42 -50v-20h-128v20c36 2 42 9 42 47v137c0 31 0 53 -2 58c-2 11 -15 13 -42 13v20c28 1 60 8 88 17z" />
    <glyph glyph-name="twoinferior" unicode="&#x2082;" horiz-adv-x="285" 
d="M97 43v-4h85c26 0 37 9 48 46h20l-15 -85h-201v13c122 109 151 157 151 213c0 39 -21 63 -55 63c-28 0 -49 -22 -49 -51c0 -26 18 -43 44 -43c-2 -15 -16 -26 -36 -26c-29 0 -51 25 -51 60c0 48 42 83 99 83c59 0 101 -36 101 -86c0 -66 -63 -125 -141 -183z" />
    <glyph glyph-name="threeinferior" unicode="&#x2083;" horiz-adv-x="280" 
d="M186 80c0 43 -19 67 -51 67c-8 -4 -19 -7 -27 -7c-11 0 -18 7 -18 16s7 14 17 14c7 0 17 -2 25 -5c28 0 47 27 47 68c0 35 -15 51 -47 51c-25 0 -40 -12 -40 -31c0 -15 11 -26 28 -26c-2 -11 -17 -20 -33 -20c-23 0 -40 19 -40 43c0 34 34 56 85 56c61 0 100 -28 100 -71
c0 -36 -28 -66 -65 -74v-4c43 -10 75 -40 75 -80c0 -50 -47 -87 -111 -87c-56 0 -96 30 -96 71c0 29 20 51 46 51c17 0 33 -10 36 -23c-20 0 -35 -14 -35 -34c0 -24 20 -41 48 -41c36 0 56 23 56 66z" />
    <glyph glyph-name="fourinferior" unicode="&#x2084;" horiz-adv-x="274" 
d="M20 72v25l141 215h22v-216c34 1 37 5 37 36h19v-94h-19c0 29 -4 34 -37 35v-8c0 -41 5 -49 32 -50v-15h-123v15c36 2 42 9 42 47v10h-114zM134 97v130h-4l-85 -130h89z" />
    <glyph glyph-name="fiveinferior" unicode="&#x2085;" horiz-adv-x="262" 
d="M110 258l-18 -69l3 -2c9 7 23 11 40 11c54 0 91 -36 91 -95c0 -64 -54 -113 -125 -113c-48 0 -80 22 -80 55c0 16 7 23 17 23c11 0 16 -4 28 -32c7 -17 16 -23 34 -23c44 0 71 39 71 100c0 43 -13 63 -42 63c-21 0 -34 -10 -48 -35c-4 -8 -8 -11 -15 -11c-6 0 -9 2 -9 7
c0 2 1 8 2 11l42 158c9 -4 27 -7 47 -7c23 0 54 4 61 7h4c-6 -30 -31 -48 -67 -48h-36z" />
    <glyph glyph-name="sixinferior" unicode="&#x2086;" horiz-adv-x="292" 
d="M257 98c0 -60 -50 -108 -111 -108c-65 0 -109 57 -109 139c0 97 57 177 126 177c42 0 75 -18 75 -41c0 -13 -9 -21 -22 -21c-34 0 -20 39 -64 39c-34 0 -64 -52 -64 -121l4 -1c17 25 38 36 65 36c57 0 100 -43 100 -99zM92 127v-20c0 -62 19 -94 55 -94c37 0 55 26 55 83
c0 50 -18 77 -51 77c-24 0 -42 -14 -59 -46z" />
    <glyph glyph-name="seveninferior" unicode="&#x2087;" horiz-adv-x="238" 
d="M131 158l54 104h-74c-42 0 -48 -3 -59 -32l-6 -16h-20l28 112h21c-1 -2 -2 -9 -2 -12c0 -10 5 -12 31 -12h122v-8c-59 -128 -68 -157 -102 -246c-16 -42 -29 -58 -45 -58c-14 0 -23 9 -23 22c0 14 11 32 75 146z" />
    <glyph glyph-name="eightinferior" unicode="&#x2088;" horiz-adv-x="280" 
d="M150 126l-24 14c-28 -15 -46 -40 -46 -72c0 -36 24 -55 62 -55c30 0 58 20 58 49c0 25 -10 41 -50 64zM177 167c35 -18 64 -46 64 -88c0 -55 -49 -89 -103 -89c-45 0 -101 24 -101 75c0 42 32 67 67 83c-31 17 -57 40 -57 79c0 21 10 42 26 57c17 16 42 22 65 22
c21 0 44 -5 61 -17c18 -12 30 -31 30 -53c0 -34 -23 -52 -52 -69zM136 186l19 -10c18 11 36 34 36 54c0 29 -20 53 -54 53c-32 0 -50 -19 -50 -39c0 -25 13 -39 49 -58z" />
    <glyph glyph-name="nineinferior" unicode="&#x2089;" horiz-adv-x="292" 
d="M35 198c0 60 50 108 111 108c65 0 109 -57 109 -139c0 -97 -57 -177 -126 -177c-42 0 -75 18 -75 41c0 13 9 21 22 21c34 0 20 -39 64 -39c34 0 64 52 64 121l-4 1c-17 -25 -38 -36 -65 -36c-57 0 -100 43 -100 99zM200 169v20c0 62 -19 94 -55 94c-37 0 -55 -26 -55 -83
c0 -50 18 -77 51 -77c24 0 42 14 59 46z" />
    <glyph glyph-name="Euro" unicode="&#x20ac;" horiz-adv-x="717" 
d="M488 358v-58h-233c0 -155 72 -262 176 -262c91 0 159 86 170 214h43v-252h-34l-12 69c-45 -53 -104 -79 -175 -79c-151 0 -265 120 -294 310h-86v58h81c-1 10 -1 20 -1 30c0 14 1 28 3 42h-84v58h90c34 187 149 292 302 292c61 0 94 -11 150 -61l17 51h28v-216h-43
c-22 115 -73 178 -148 178c-98 0 -162 -82 -181 -244h231v-58h-234c-1 -14 -2 -29 -2 -43c0 -10 0 -20 1 -29h235z" />
    <glyph glyph-name="servicemark" unicode="&#x2120;" horiz-adv-x="797" 
d="M514 544h4l98 226h100v-20c-34 0 -40 -10 -40 -61v-146c0 -52 6 -61 44 -61v-20h-135v20c38 0 44 10 44 58v180h-4l-117 -262h-8l-113 262h-4v-177c0 -52 6 -61 44 -61v-20h-117v20c38 0 44 8 44 58v152c0 46 -8 58 -40 58v20h108zM82 472l-7 90h18c7 -45 42 -73 88 -73
c38 0 60 17 60 48c0 26 -13 42 -65 64c-66 28 -87 51 -87 93c0 50 37 86 90 86c22 0 41 -7 63 -24l11 18h9l5 -79h-17c-14 40 -37 60 -70 60c-30 0 -48 -15 -48 -40s14 -39 56 -58c81 -38 102 -59 102 -102c0 -55 -43 -91 -109 -91c-32 0 -55 8 -78 28l-11 -20h-10z" />
    <glyph glyph-name="trademark" unicode="&#x2122;" horiz-adv-x="886" 
d="M375 770v-76h-21c-5 46 -14 54 -62 54c-29 0 -38 -7 -38 -17v-200c0 -39 11 -49 52 -49v-20h-161v20c41 0 52 11 52 49v200c0 10 -9 17 -39 17c-50 0 -63 -11 -65 -54h-20v76h302zM602 544h4l99 226h100v-20c-32 0 -40 -12 -40 -61v-146c0 -52 6 -61 44 -61v-20h-135v20
c38 0 44 10 44 58v180h-4l-117 -262h-8l-113 262h-4v-177c0 -53 6 -61 44 -61v-20h-117v20c38 0 44 8 44 58v152c0 46 -8 58 -40 58v20h108z" />
    <glyph glyph-name="onethird" unicode="&#x2153;" horiz-adv-x="673" 
d="M632 770l-544 -770h-57l553 770h48zM219 780v-242c0 -41 6 -49 42 -50v-20h-128v20c36 2 42 9 42 47v137c0 31 0 53 -2 58c-2 11 -15 13 -42 13v20c28 1 60 8 88 17zM523 80c0 43 -19 67 -51 67c-8 -4 -19 -7 -27 -7c-11 0 -18 7 -18 16s7 14 17 14c7 0 17 -2 25 -5
c28 0 47 27 47 68c0 35 -15 51 -47 51c-25 0 -40 -12 -40 -31c0 -15 11 -26 28 -26c-2 -11 -17 -20 -33 -20c-23 0 -40 19 -40 43c0 34 34 56 85 56c61 0 100 -28 100 -71c0 -36 -28 -66 -65 -74v-4c43 -10 75 -40 75 -80c0 -50 -47 -87 -111 -87c-56 0 -96 30 -96 71
c0 29 20 51 46 51c17 0 33 -10 36 -23c-20 0 -35 -14 -35 -34c0 -24 20 -41 48 -41c36 0 56 23 56 66z" />
    <glyph glyph-name="twothirds" unicode="&#x2154;" horiz-adv-x="676" 
d="M642 770l-544 -770h-57l553 770h48zM533 80c0 43 -19 67 -51 67c-8 -4 -19 -7 -27 -7c-11 0 -18 7 -18 16s7 14 17 14c7 0 17 -2 25 -5c28 0 47 27 47 68c0 35 -15 51 -47 51c-25 0 -40 -12 -40 -31c0 -15 11 -26 28 -26c-2 -11 -17 -20 -33 -20c-23 0 -40 19 -40 43
c0 34 34 56 85 56c61 0 100 -28 100 -71c0 -36 -28 -66 -65 -74v-4c43 -10 75 -40 75 -80c0 -50 -47 -87 -111 -87c-56 0 -96 30 -96 71c0 29 20 51 46 51c17 0 33 -10 36 -23c-20 0 -35 -14 -35 -34c0 -24 20 -41 48 -41c36 0 56 23 56 66zM146 511v-4h85c26 0 37 9 48 46
h20l-15 -85h-201v13c122 109 151 157 151 213c0 39 -21 63 -55 63c-28 0 -49 -22 -49 -51c0 -26 18 -43 44 -43c-2 -15 -16 -26 -36 -26c-29 0 -51 25 -51 60c0 48 42 83 99 83c59 0 101 -36 101 -86c0 -66 -63 -125 -141 -183z" />
    <glyph glyph-name="oneeighth" unicode="&#x215b;" horiz-adv-x="673" 
d="M632 770l-544 -770h-57l553 770h48zM219 780v-242c0 -41 6 -49 42 -50v-20h-128v20c36 2 42 9 42 47v137c0 31 0 53 -2 58c-2 11 -15 13 -42 13v20c28 1 60 8 88 17zM486 126l-24 14c-28 -15 -46 -40 -46 -72c0 -36 24 -55 62 -55c30 0 58 20 58 49c0 25 -10 41 -50 64z
M513 167c35 -18 64 -46 64 -88c0 -55 -49 -89 -103 -89c-45 0 -101 24 -101 75c0 42 32 67 67 83c-31 17 -57 40 -57 79c0 21 10 42 26 57c17 16 42 22 65 22c21 0 44 -5 61 -17c18 -12 30 -31 30 -53c0 -34 -23 -52 -52 -69zM472 186l19 -10c18 11 36 34 36 54
c0 29 -20 53 -54 53c-32 0 -50 -19 -50 -39c0 -25 13 -39 49 -58z" />
    <glyph glyph-name="threeeighths" unicode="&#x215c;" horiz-adv-x="674" 
d="M640 770l-544 -770h-57l553 770h48zM494 126l-24 14c-28 -15 -46 -40 -46 -72c0 -36 24 -55 62 -55c30 0 58 20 58 49c0 25 -10 41 -50 64zM521 167c35 -18 64 -46 64 -88c0 -55 -49 -89 -103 -89c-45 0 -101 24 -101 75c0 42 32 67 67 83c-31 17 -57 40 -57 79
c0 21 10 42 26 57c17 16 42 22 65 22c21 0 44 -5 61 -17c18 -12 30 -31 30 -53c0 -34 -23 -52 -52 -69zM480 186l19 -10c18 11 36 34 36 54c0 29 -20 53 -54 53c-32 0 -50 -19 -50 -39c0 -25 13 -39 49 -58zM232 554c0 43 -19 67 -51 67c-8 -4 -19 -7 -27 -7
c-11 0 -18 7 -18 16s7 14 17 14c7 0 17 -2 25 -5c28 0 47 27 47 68c0 35 -15 51 -47 51c-25 0 -40 -12 -40 -31c0 -15 11 -26 28 -26c-2 -11 -17 -20 -33 -20c-23 0 -40 19 -40 43c0 34 34 56 85 56c61 0 100 -28 100 -71c0 -36 -28 -66 -65 -74v-4c43 -10 75 -40 75 -80
c0 -50 -47 -87 -111 -87c-56 0 -96 30 -96 71c0 29 20 51 46 51c17 0 33 -10 36 -23c-20 0 -35 -14 -35 -34c0 -24 20 -41 48 -41c36 0 56 23 56 66z" />
    <glyph glyph-name="fiveeighths" unicode="&#x215d;" horiz-adv-x="672" 
d="M637 770l-544 -770h-57l553 770h48zM491 126l-24 14c-28 -15 -46 -40 -46 -72c0 -36 24 -55 62 -55c30 0 58 20 58 49c0 25 -10 41 -50 64zM518 167c35 -18 64 -46 64 -88c0 -55 -49 -89 -103 -89c-45 0 -101 24 -101 75c0 42 32 67 67 83c-31 17 -57 40 -57 79
c0 21 10 42 26 57c17 16 42 22 65 22c21 0 44 -5 61 -17c18 -12 30 -31 30 -53c0 -34 -23 -52 -52 -69zM477 186l19 -10c18 11 36 34 36 54c0 29 -20 53 -54 53c-32 0 -50 -19 -50 -39c0 -25 13 -39 49 -58zM165 732l-18 -69l3 -2c9 7 23 11 40 11c54 0 91 -36 91 -95
c0 -64 -54 -113 -125 -113c-48 0 -80 22 -80 55c0 16 7 23 17 23c11 0 16 -4 28 -32c7 -17 16 -23 34 -23c44 0 71 39 71 100c0 43 -13 63 -42 63c-21 0 -34 -10 -48 -35c-4 -8 -8 -11 -15 -11c-6 0 -9 2 -9 7c0 2 1 8 2 11l42 158c9 -4 27 -7 47 -7c23 0 54 4 61 7h4
c-6 -30 -31 -48 -67 -48h-36z" />
    <glyph glyph-name="seveneighths" unicode="&#x215e;" horiz-adv-x="674" 
d="M633 770l-544 -770h-57l553 770h48zM487 126l-24 14c-28 -15 -46 -40 -46 -72c0 -36 24 -55 62 -55c30 0 58 20 58 49c0 25 -10 41 -50 64zM514 167c35 -18 64 -46 64 -88c0 -55 -49 -89 -103 -89c-45 0 -101 24 -101 75c0 42 32 67 67 83c-31 17 -57 40 -57 79
c0 21 10 42 26 57c17 16 42 22 65 22c21 0 44 -5 61 -17c18 -12 30 -31 30 -53c0 -34 -23 -52 -52 -69zM473 186l19 -10c18 11 36 34 36 54c0 29 -20 53 -54 53c-32 0 -50 -19 -50 -39c0 -25 13 -39 49 -58zM219 626l54 104h-74c-42 0 -48 -3 -59 -32l-6 -16h-20l28 112h21
c-1 -2 -2 -9 -2 -12c0 -10 5 -12 31 -12h122v-8c-59 -128 -68 -157 -102 -246c-16 -42 -29 -58 -45 -58c-14 0 -23 9 -23 22c0 14 11 32 75 146z" />
    <glyph glyph-name="minus" unicode="&#x2212;" horiz-adv-x="634" 
d="M551 363v-50h-468v50h468z" />
    <glyph glyph-name="uni2215" unicode="&#x2215;" horiz-adv-x="562" 
d="M585 770l-544 -770h-63l553 770h54z" />
    <glyph glyph-name="uni2219" unicode="&#x2219;" horiz-adv-x="285" 
d="M77 274c0 37 29 66 65 66c37 0 66 -29 66 -66c0 -36 -29 -65 -66 -65c-36 0 -65 29 -65 65z" />
    <glyph glyph-name="commaaccent" unicode="&#xf6c3;" horiz-adv-x="162" 
d="M47 -260l-22 26c45 25 65 49 65 78c-6 -5 -15 -8 -26 -8c-26 0 -44 19 -44 47c0 31 24 53 59 53c40 0 63 -29 63 -79c0 -43 -26 -80 -95 -117z" />
    <glyph glyph-name="s_t" unicode="&#xfb06;" horiz-adv-x="849" 
d="M683 514h120v-47h-134v-304c0 -94 16 -124 68 -124c34 0 56 13 78 46l25 -19c-19 -49 -67 -76 -135 -76c-86 0 -134 43 -134 122v355h-60v37c73 0 120 49 120 123c0 78 -52 127 -134 127c-88 0 -145 -55 -145 -141c0 -46 10 -78 45 -113c14 -13 22 -29 22 -47
c0 -26 -19 -42 -49 -42c-24 0 -36 8 -61 41c-26 35 -47 47 -86 47c-44 0 -74 -26 -74 -62c0 -43 19 -65 98 -113c128 -77 160 -117 160 -185c0 -90 -68 -149 -167 -149c-52 0 -98 16 -134 45l-20 -35h-22v172h25c26 -95 72 -141 142 -141c53 0 87 29 87 76
c0 37 -12 52 -116 115c-107 65 -135 104 -135 168c0 85 65 156 176 156c25 0 49 -2 70 -7c-9 24 -13 49 -13 77c0 119 73 188 200 188c122 0 183 -65 183 -195v-95z" />
    <glyph glyph-name="dotaccent.cap" horiz-adv-x="165" 
d="M30 904c0 31 24 55 52 55c31 0 55 -24 55 -55c0 -28 -24 -52 -55 -52c-28 0 -52 24 -52 52z" />
    <glyph glyph-name="dieresis.cap" horiz-adv-x="323" 
d="M20 910c0 28 22 50 50 50c29 0 51 -22 51 -50c0 -29 -22 -51 -51 -51c-28 0 -50 22 -50 51zM202 910c0 28 22 50 51 50c28 0 50 -22 50 -50c0 -29 -22 -51 -50 -51c-29 0 -51 22 -51 51z" />
    <glyph glyph-name="dotbelow" horiz-adv-x="164" 
d="M20 -168c0 35 27 62 62 62s62 -27 62 -62s-27 -62 -62 -62s-62 27 -62 62z" />
    <glyph glyph-name="acute.cap" horiz-adv-x="295" 
d="M80 850h-60l130 77c37 22 60 33 87 33c23 0 38 -13 38 -35c0 -21 -30 -37 -75 -47z" />
    <glyph glyph-name="hungarumlaut.cap" horiz-adv-x="473" 
d="M80 850h-60l120 77c36 23 60 33 87 33c23 0 38 -13 38 -35c0 -21 -30 -36 -75 -47zM267 850h-60l120 77c36 23 60 33 87 33c23 0 38 -13 38 -35c0 -21 -30 -36 -75 -47z" />
    <glyph glyph-name="tilde.cap" horiz-adv-x="381" 
d="M54 846h-34c11 68 54 114 106 114c53 0 104 -46 155 -46c25 0 37 11 47 42h33c-7 -67 -50 -118 -100 -118c-53 0 -108 48 -162 48c-25 0 -36 -10 -45 -40z" />
    <glyph glyph-name="grave.cap" horiz-adv-x="295" 
d="M275 850h-60l-120 28c-45 10 -75 26 -75 47c0 22 15 35 38 35c27 0 50 -11 87 -33z" />
    <glyph glyph-name="breve.cap" horiz-adv-x="316" 
d="M259 960h37c-5 -67 -63 -115 -138 -115c-77 0 -135 49 -138 115h36c11 -28 51 -46 101 -46s91 18 102 46z" />
    <glyph glyph-name="circumflex.cap" horiz-adv-x="368" 
d="M129 960h110l109 -109h-45l-119 54l-119 -54h-45z" />
    <glyph glyph-name="caron.cap" horiz-adv-x="368" 
d="M239 851h-110l-109 109h45l119 -54l119 54h45z" />
    <glyph glyph-name="ring.cap" horiz-adv-x="170" 
d="M20 895c0 37 28 65 65 65s65 -28 65 -65s-28 -65 -65 -65s-65 28 -65 65zM51 895c0 -20 14 -34 34 -34c19 0 33 14 33 34c0 19 -14 33 -33 33c-20 0 -34 -14 -34 -33z" />
    <glyph glyph-name="macron.cap" horiz-adv-x="310" 
d="M290 880h-270v50h270v-50z" />
    <glyph glyph-name="caron.alt" horiz-adv-x="162" 
d="M47 584l-22 26c45 25 65 49 65 78c-6 -5 -15 -8 -26 -8c-26 0 -44 19 -44 47c0 31 24 53 59 53c40 0 63 -29 63 -79c0 -43 -26 -80 -95 -117z" />
    <glyph glyph-name="c_t" horiz-adv-x="929" 
d="M763 514h120v-47h-134v-304c0 -94 16 -124 68 -124c34 0 56 13 78 46l25 -19c-19 -49 -67 -76 -135 -76c-86 0 -134 43 -134 122v355h-60v37c73 0 120 49 120 123c0 78 -52 127 -134 127c-88 0 -145 -55 -145 -141c0 -47 17 -85 54 -121c11 -12 17 -26 17 -40
c0 -26 -19 -42 -51 -42c-24 0 -36 9 -59 41c-27 31 -49 42 -85 42c-96 0 -145 -74 -145 -218c0 -152 56 -233 160 -233c54 0 103 22 153 70l30 -29c-49 -58 -130 -93 -213 -93c-146 0 -244 109 -244 270c0 171 110 280 281 280c23 0 46 -2 66 -6c-11 25 -16 51 -16 82
c0 119 73 188 200 188c122 0 183 -65 183 -195v-95z" />
    <glyph glyph-name="s_p" horiz-adv-x="1088" 
d="M106 35l-20 -35h-22v172h25c25 -94 72 -141 143 -141c55 0 86 25 86 62c0 42 -18 66 -116 129c-109 70 -135 108 -135 179c0 84 69 145 184 145h7c-17 22 -25 48 -25 78c0 92 76 166 169 166c86 0 137 -65 177 -77c9 45 28 65 58 65s53 -19 53 -45c0 -32 -34 -60 -70 -60
v-215h4c50 59 95 82 160 82c146 0 256 -119 256 -277s-110 -273 -262 -273c-64 0 -112 21 -154 66v-146c0 -106 15 -125 114 -125v-35h-308v35c81 0 96 22 96 118v547c0 101 18 165 42 226c-58 20 -103 64 -167 64c-67 0 -118 -48 -118 -114c0 -48 28 -76 87 -106
c31 -16 49 -41 49 -67s-19 -42 -50 -42c-25 0 -36 9 -60 41c-27 35 -51 47 -83 47c-49 0 -77 -26 -77 -62c0 -42 25 -70 98 -113c116 -68 160 -123 160 -183c0 -92 -66 -151 -167 -151c-52 0 -98 16 -134 45zM650 429c-18 -29 -26 -65 -26 -119v-78c0 -75 5 -97 27 -126
c33 -44 76 -67 124 -67c92 0 152 87 152 221c0 139 -64 232 -160 232c-46 0 -91 -22 -117 -63z" />
    </font>
</defs>
</svg>
