<?xml version="1.0" standalone="no"?>
<!DOCTYPE svg PUBLIC "-//W3C//DTD SVG 1.1//EN" "http://www.w3.org/Graphics/SVG/1.1/DTD/svg11.dtd" >
<svg version="1.1" xmlns="http://www.w3.org/2000/svg">
<metadata>
Created by FontForge 20120731 at Fri Aug  1 16:50:28 2014

Libre Baskerville is webfont optimized for web body text (typically 16px). It's based on 1941 ATF Specimens, but it has a taller x height, wider counters and minor contrast that allow it to work on small sizes in any screen.
</metadata>
<defs>
<font id="librebaskerville" horiz-adv-x="763" >
  <font-face 
    font-family="Libre Baskerville"
    font-weight="400"
    font-style="italic"
    font-stretch="normal"
    units-per-em="1000"
    panose-1="2 0 0 0 0 0 0 0 0 0"
    ascent="800"
    descent="-200"
    x-height="540"
    cap-height="770"
    bbox="-301 -260 1532 970"
    underline-thickness="50"
    underline-position="-50"
    stemh="50"
    stemv="121"
    unicode-range="U+000D-FB06"
  />
<missing-glyph horiz-adv-x="756" 
d="M130 -260v1230h496v-1230h-496zM240 911v-1110h275v1110h-275z" />
    <glyph glyph-name="f_f" unicode="ff" horiz-adv-x="633" 
d="M246 450l-94 -377c-60 -240 -127 -333 -240 -333c-65 0 -106 30 -106 77c0 32 19 53 49 53c55 0 32 -70 80 -70c32 0 59 32 73 87l145 563h-96l13 46h95c60 214 120 284 245 284c57 0 105 -12 136 -33c41 57 88 83 147 83c73 0 130 -38 130 -87c0 -32 -21 -54 -51 -54
c-68 0 -36 96 -89 96c-55 0 -106 -102 -144 -289h121l-14 -46h-118l-93 -377c-60 -242 -123 -333 -233 -333c-61 0 -99 26 -99 68c0 28 18 47 44 47c44 0 38 -55 78 -55c29 0 51 29 66 87l144 563h-189zM447 496c16 66 41 140 63 190c-20 31 -56 49 -96 49
c-72 0 -110 -57 -157 -239h190z" />
    <glyph glyph-name="f_i" unicode="fi" horiz-adv-x="614" 
d="M246 450l-94 -377c-68 -271 -136 -333 -250 -333c-55 0 -96 33 -96 76c0 33 18 54 49 54c56 0 30 -70 82 -70c31 0 58 35 71 87l145 563h-96l13 46h95c59 239 137 334 241 334c78 0 135 -37 135 -86c0 -30 -18 -55 -48 -55c-77 0 -33 96 -96 96
c-53 0 -106 -121 -140 -289h88c78 0 119 10 149 10c20 0 31 -4 31 -27c0 -17 -7 -45 -21 -92l-67 -219c-4 -14 -16 -56 -16 -76c0 -13 6 -25 22 -25c39 0 88 77 101 104l31 -17c-27 -65 -99 -164 -185 -164c-41 0 -62 22 -62 75c0 35 10 75 28 137l38 128c10 35 16 60 16 78
c0 37 -26 42 -87 42h-77z" />
    <glyph glyph-name="f_l" unicode="fl" horiz-adv-x="617" 
d="M354 202l130 477c3 12 5 23 5 33c0 38 -21 63 -56 63c-69 0 -131 -99 -176 -279h108l-14 -46h-105l-94 -377c-60 -240 -127 -333 -240 -333c-65 0 -106 30 -106 77c0 32 19 53 49 53c55 0 32 -70 80 -70c32 0 59 32 73 87l145 563h-96l13 46h95c62 227 142 324 267 324
c31 0 61 -6 81 -16l104 25l-179 -657c-11 -39 -16 -65 -16 -79c0 -17 7 -26 21 -26c29 0 86 55 117 114l30 -17c-47 -100 -133 -174 -202 -174c-40 0 -61 23 -61 66c0 27 7 74 27 146z" />
    <glyph glyph-name="f_f_i" unicode="ffi" horiz-adv-x="893" 
d="M602 450h-74l-93 -377c-60 -242 -123 -333 -233 -333c-61 0 -99 26 -99 68c0 28 18 47 44 47c44 0 38 -55 78 -55c29 0 51 29 66 87l144 563h-189l-94 -377c-60 -240 -127 -333 -240 -333c-65 0 -106 30 -106 77c0 32 19 53 49 53c55 0 32 -70 80 -70c32 0 59 32 73 87
l145 563h-96l13 46h95c60 214 120 284 245 284c57 0 105 -12 136 -33c41 57 88 83 147 83c73 0 130 -38 130 -87c0 -32 -21 -54 -51 -54c-68 0 -36 96 -89 96c-55 0 -106 -102 -144 -289h66c91 0 136 10 168 10c20 0 31 -4 31 -27c0 -17 -7 -45 -21 -92l-67 -219
c-4 -14 -16 -56 -16 -76c0 -13 6 -25 22 -25c39 0 88 77 101 104l31 -17c-27 -65 -99 -164 -185 -164c-41 0 -62 22 -62 75c0 35 10 75 28 137l38 128c10 35 16 60 16 78c0 37 -26 42 -87 42zM447 496c16 66 41 140 63 190c-20 31 -56 49 -96 49c-72 0 -110 -57 -157 -239
h190z" />
    <glyph glyph-name="f_f_l" unicode="ffl" horiz-adv-x="899" 
d="M636 202l130 477c3 12 5 23 5 33c0 38 -21 63 -56 63c-69 0 -131 -99 -176 -279h108l-14 -46h-105l-94 -377c-60 -240 -127 -333 -240 -333c-59 0 -96 26 -96 67c0 32 19 53 49 53c48 0 28 -60 70 -60c32 0 59 32 73 87l145 563h-189l-94 -377
c-60 -240 -127 -333 -240 -333c-65 0 -106 30 -106 77c0 32 19 53 49 53c55 0 32 -70 80 -70c32 0 59 32 73 87l145 563h-96l13 46h95c60 214 120 284 245 284c55 0 110 -13 145 -39c44 54 95 79 159 79c31 0 61 -6 81 -16l104 25l-179 -657c-11 -39 -16 -65 -16 -79
c0 -17 7 -26 21 -26c29 0 86 55 117 114l30 -17c-47 -100 -133 -174 -202 -174c-40 0 -61 23 -61 66c0 27 7 74 27 146zM447 496c20 74 42 134 67 182c-20 37 -63 57 -100 57c-72 0 -110 -57 -157 -239h190z" />
    <glyph glyph-name="f_b" unicode="fb" horiz-adv-x="829" 
d="M626 829l-127 -385l3 -2c39 61 100 97 165 97c81 0 127 -55 127 -142c0 -190 -179 -407 -341 -407c-76 0 -130 51 -130 124c0 35 15 99 43 187l118 378c5 18 5 26 5 33c0 38 -21 63 -56 63c-69 0 -131 -99 -176 -279h108l-14 -46h-105l-94 -377
c-60 -240 -127 -333 -240 -333c-65 0 -106 30 -106 77c0 32 19 53 49 53c55 0 32 -70 80 -70c32 0 59 32 73 87l145 563h-96l13 46h95c62 227 142 324 267 324c31 0 61 -6 81 -16zM469 41c93 0 226 215 226 364c0 46 -24 81 -55 81c-90 0 -222 -216 -222 -363
c0 -54 17 -82 51 -82z" />
    <glyph glyph-name="f_f_b" unicode="ffb" horiz-adv-x="1111" 
d="M908 829l-127 -385l3 -2c39 61 100 97 165 97c81 0 127 -55 127 -142c0 -190 -179 -407 -341 -407c-76 0 -130 51 -130 124c0 35 15 99 43 187l119 380c3 10 4 22 4 31c0 38 -21 63 -56 63c-69 0 -131 -99 -176 -279h108l-14 -46h-105l-94 -377
c-60 -240 -127 -333 -240 -333c-59 0 -96 26 -96 67c0 32 19 53 49 53c48 0 28 -60 70 -60c32 0 59 32 73 87l145 563h-189l-94 -377c-60 -240 -127 -333 -240 -333c-65 0 -106 30 -106 77c0 32 19 53 49 53c55 0 32 -70 80 -70c32 0 59 32 73 87l145 563h-96l13 46h95
c60 214 120 284 245 284c55 0 110 -13 145 -39c44 54 95 79 159 79c31 0 61 -6 81 -16zM751 41c93 0 226 215 226 364c0 46 -24 81 -55 81c-90 0 -222 -216 -222 -363c0 -54 17 -82 51 -82zM447 496c20 74 42 134 67 182c-20 37 -63 57 -100 57c-72 0 -110 -57 -157 -239
h190z" />
    <glyph glyph-name="f_h" unicode="fh" horiz-adv-x="867" 
d="M649 311c23 68 32 104 32 134c0 31 -9 42 -33 42c-82 0 -157 -124 -255 -418l-23 -69h-84l199 682c3 11 4 21 4 30c0 38 -21 63 -56 63c-69 0 -131 -99 -176 -279h108l-14 -46h-105l-94 -377c-60 -240 -127 -333 -240 -333c-65 0 -106 30 -106 77c0 32 19 53 49 53
c55 0 32 -70 80 -70c32 0 59 32 73 87l145 563h-96l13 46h95c62 227 142 324 267 324c31 0 61 -6 81 -16l108 26l-114 -386l3 -2c43 62 101 98 162 98c63 0 98 -39 98 -109c0 -44 -13 -102 -41 -178c-52 -145 -55 -153 -55 -165c0 -15 6 -23 19 -23c27 0 69 34 109 89
l28 -21c-42 -78 -133 -143 -200 -143c-36 0 -51 19 -51 63c0 45 12 91 70 258z" />
    <glyph glyph-name="f_f_h" unicode="ffh" horiz-adv-x="1149" 
d="M931 311c23 68 32 104 32 134c0 31 -9 42 -33 42c-82 0 -157 -124 -255 -418l-23 -69h-84l199 682c3 11 4 21 4 30c0 38 -21 63 -56 63c-69 0 -131 -99 -176 -279h108l-14 -46h-105l-94 -377c-60 -240 -127 -333 -240 -333c-59 0 -96 26 -96 67c0 32 19 53 49 53
c48 0 28 -60 70 -60c32 0 59 32 73 87l145 563h-189l-94 -377c-60 -240 -127 -333 -240 -333c-65 0 -106 30 -106 77c0 32 19 53 49 53c55 0 32 -70 80 -70c32 0 59 32 73 87l145 563h-96l13 46h95c60 214 120 284 245 284c55 0 110 -13 145 -39c44 54 95 79 159 79
c31 0 61 -6 81 -16l108 26l-114 -386l3 -2c43 62 101 98 162 98c63 0 98 -39 98 -109c0 -44 -13 -102 -41 -178c-52 -145 -55 -153 -55 -165c0 -15 6 -23 19 -23c27 0 69 34 109 89l28 -21c-42 -78 -133 -143 -200 -143c-36 0 -51 19 -51 63c0 45 12 91 70 258zM447 496
c20 74 42 134 67 182c-20 37 -63 57 -100 57c-72 0 -110 -57 -157 -239h190z" />
    <glyph glyph-name="f_k" unicode="fk" horiz-adv-x="817" 
d="M661 80c20 0 47 25 82 75l26 -14c-48 -100 -98 -151 -149 -151c-32 0 -49 18 -74 78l-67 160l-22 -10l-63 -218h-91l183 689c2 8 3 16 3 23c0 38 -21 63 -56 63c-69 0 -131 -99 -176 -279h108l-14 -46h-105l-94 -377c-60 -240 -127 -333 -240 -333c-65 0 -106 30 -106 77
c0 32 19 53 49 53c55 0 32 -70 80 -70c32 0 59 32 73 87l145 563h-96l13 46h95c62 227 142 324 267 324c31 0 61 -6 81 -16l105 26l-104 -385l4 -1c38 64 88 97 147 97c62 0 101 -32 101 -83c0 -62 -66 -129 -176 -179l-26 -12l51 -132c14 -38 28 -55 46 -55zM466 268
c116 40 200 110 200 164c0 26 -15 41 -41 41c-55 0 -129 -95 -159 -205z" />
    <glyph glyph-name="f_f_k" unicode="ffk" horiz-adv-x="1099" 
d="M943 80c20 0 47 25 82 75l26 -14c-48 -100 -98 -151 -149 -151c-32 0 -49 18 -74 78l-67 160l-22 -10l-63 -218h-91l183 689c2 8 3 16 3 23c0 38 -21 63 -56 63c-69 0 -131 -99 -176 -279h108l-14 -46h-105l-94 -377c-60 -240 -127 -333 -240 -333c-59 0 -96 26 -96 67
c0 32 19 53 49 53c48 0 28 -60 70 -60c32 0 59 32 73 87l145 563h-189l-94 -377c-60 -240 -127 -333 -240 -333c-65 0 -106 30 -106 77c0 32 19 53 49 53c55 0 32 -70 80 -70c32 0 59 32 73 87l145 563h-96l13 46h95c60 214 120 284 245 284c55 0 110 -13 145 -39
c44 54 95 79 159 79c31 0 61 -6 81 -16l105 26l-104 -385l4 -1c38 64 88 97 147 97c62 0 101 -32 101 -83c0 -62 -66 -129 -176 -179l-26 -12l51 -132c14 -38 28 -55 46 -55zM447 496c20 74 42 134 67 182c-20 37 -63 57 -100 57c-72 0 -110 -57 -157 -239h190zM748 268
c116 40 200 110 200 164c0 26 -15 41 -41 41c-55 0 -129 -95 -159 -205z" />
    <glyph glyph-name="f_j" unicode="fj" horiz-adv-x="568" 
d="M246 450l-94 -377c-68 -271 -136 -333 -250 -333c-55 0 -96 33 -96 76c0 33 18 54 49 54c56 0 30 -70 82 -70c31 0 58 35 71 87l145 563h-96l13 46h95c59 239 137 334 241 334c78 0 135 -37 135 -86c0 -30 -18 -55 -48 -55c-77 0 -33 96 -96 96
c-53 0 -106 -121 -140 -289h88c75 0 115 10 144 10c20 0 31 -4 31 -27c0 -17 -4 -44 -16 -92l-107 -421c-29 -114 -119 -226 -210 -226c-49 0 -86 33 -86 76c0 36 18 59 49 59c48 0 39 -75 72 -75c27 0 47 31 61 87l111 443c9 35 16 60 16 78c0 33 -21 42 -70 42h-94z" />
    <glyph glyph-name="f_f_j" unicode="ffj" horiz-adv-x="858" 
d="M794 387l-107 -421c-29 -114 -119 -226 -210 -226c-49 0 -86 33 -86 76c0 36 18 59 49 59c48 0 39 -75 72 -75c27 0 48 35 61 87l111 443c9 35 16 60 16 78c0 35 -25 42 -81 42h-91l-93 -377c-60 -242 -123 -333 -233 -333c-61 0 -99 26 -99 68c0 28 18 47 44 47
c44 0 38 -55 78 -55c29 0 51 29 66 87l144 563h-189l-94 -377c-60 -240 -127 -333 -240 -333c-65 0 -106 30 -106 77c0 32 19 53 49 53c55 0 32 -70 80 -70c32 0 59 32 73 87l145 563h-96l13 46h95c60 214 120 284 245 284c57 0 105 -12 136 -33c41 57 88 83 147 83
c73 0 130 -38 130 -87c0 -32 -21 -54 -51 -54c-68 0 -36 96 -89 96c-55 0 -106 -102 -144 -289h77c88 0 132 10 163 10c20 0 31 -4 31 -27c0 -17 -4 -44 -16 -92zM447 496c16 66 41 140 63 190c-20 31 -56 49 -96 49c-72 0 -110 -57 -157 -239h190z" />
    <glyph glyph-name="f_t" unicode="ft" horiz-adv-x="641" 
d="M246 450l-94 -377c-68 -271 -136 -333 -250 -333c-55 0 -96 33 -96 76c0 33 18 54 49 54c56 0 30 -70 82 -70c31 0 58 35 71 87l145 563h-96l13 46h95c59 239 137 334 241 334c78 0 135 -37 135 -86c0 -30 -18 -55 -48 -55c-77 0 -33 96 -96 96
c-53 0 -106 -121 -140 -289h178l26 86h92l-26 -86h109l-14 -46h-109l-84 -278c-11 -36 -17 -63 -18 -82c0 -12 5 -23 20 -23c47 0 113 84 131 114l29 -17c-46 -91 -145 -174 -210 -174c-46 0 -66 19 -66 65c0 27 8 69 31 147l75 248h-175z" />
    <glyph glyph-name="f_f_t" unicode="fft" horiz-adv-x="933" 
d="M914 450h-109l-84 -278c-11 -36 -17 -63 -18 -82c0 -12 5 -23 20 -23c47 0 113 84 131 114l29 -17c-46 -91 -145 -174 -210 -174c-46 0 -66 19 -66 65c0 27 8 69 31 147l75 248h-185l-93 -377c-60 -242 -123 -333 -233 -333c-61 0 -99 26 -99 68c0 28 18 47 44 47
c44 0 38 -55 78 -55c29 0 51 29 66 87l144 563h-189l-94 -377c-60 -240 -127 -333 -240 -333c-65 0 -106 30 -106 77c0 32 19 53 49 53c55 0 32 -70 80 -70c32 0 59 32 73 87l145 563h-96l13 46h95c60 214 120 284 245 284c57 0 105 -12 136 -33c41 57 88 83 147 83
c73 0 130 -38 130 -87c0 -32 -21 -54 -51 -54c-68 0 -36 96 -89 96c-55 0 -106 -102 -144 -289h188l26 86h92l-26 -86h109zM447 496c16 66 41 140 63 190c-20 31 -56 49 -96 49c-72 0 -110 -57 -157 -239h190z" />
    <glyph glyph-name=".notdef" horiz-adv-x="756" 
d="M130 -260v1230h496v-1230h-496zM240 911v-1110h275v1110h-275z" />
    <glyph glyph-name="NULL" horiz-adv-x="0" 
 />
    <glyph glyph-name="NULL" horiz-adv-x="0" 
 />
    <glyph glyph-name="CR" unicode="&#xd;" horiz-adv-x="313" 
 />
    <glyph glyph-name="space" unicode=" " horiz-adv-x="275" 
 />
    <glyph glyph-name="exclam" unicode="!" horiz-adv-x="317" 
d="M164 207h-35l48 455c9 85 29 118 75 118c37 0 55 -22 55 -75c0 -50 -16 -91 -64 -211c-37 -93 -68 -214 -79 -287zM119 -10c-33 0 -62 25 -62 61s27 65 63 65s63 -30 63 -64c0 -35 -29 -62 -64 -62z" />
    <glyph glyph-name="quotedbl" unicode="&#x22;" horiz-adv-x="359" 
d="M183 564h-29c21 160 5 266 85 266c22 0 36 -14 36 -35c0 -16 -54 -134 -92 -231zM335 564h-29c21 160 5 266 85 266c22 0 36 -14 36 -35c0 -16 -54 -134 -92 -231z" />
    <glyph glyph-name="numbersign" unicode="#" horiz-adv-x="670" 
d="M620 305l-8 -50h-139l-37 -255h-59l35 255h-151l-38 -255h-60l38 255h-140l8 50h142l24 170h-143l8 50h144l35 245h60l-35 -245h151l34 245h60l-34 -245h134l-8 -50h-135l-23 -170h137zM445 475h-150l-24 -170h151z" />
    <glyph glyph-name="dollar" unicode="$" horiz-adv-x="584" 
d="M141 -146l34 143c-87 21 -153 88 -153 165c0 61 46 117 97 117c20 0 37 -9 49 -24c-37 -15 -61 -55 -61 -101c0 -53 30 -90 81 -105l79 325c-69 52 -135 108 -135 200c0 113 101 202 233 206l21 85h57l-22 -89c84 -14 140 -66 140 -135c0 -58 -39 -97 -95 -97
c-22 0 -33 6 -41 21c31 9 55 45 55 85s-25 67 -71 76l-64 -265c74 -54 158 -113 158 -228c0 -132 -122 -243 -268 -243h-4l-33 -136h-57zM414 185c0 64 -45 109 -99 152l-71 -294c97 3 170 63 170 142zM230 613c0 -48 28 -82 67 -115l55 229c-73 -7 -122 -51 -122 -114z" />
    <glyph glyph-name="percent" unicode="%" horiz-adv-x="683" 
d="M694 770l-614 -770h-67l623 770h58zM207 465c-51 0 -86 43 -86 107c0 103 80 209 157 209c52 0 87 -41 87 -102c0 -102 -83 -214 -158 -214zM274 755c-46 0 -99 -111 -99 -209c0 -35 14 -55 38 -55c46 0 97 112 97 212c0 33 -13 52 -36 52zM449 -10c-51 0 -86 43 -86 107
c0 103 80 209 157 209c52 0 87 -41 87 -102c0 -102 -83 -214 -158 -214zM516 280c-46 0 -99 -111 -99 -209c0 -35 14 -55 38 -55c46 0 97 112 97 212c0 33 -13 52 -36 52z" />
    <glyph glyph-name="ampersand" unicode="&#x26;" horiz-adv-x="898" 
d="M388 780c81 0 136 -46 136 -113c0 -32 -13 -56 -33 -60c-22 50 -65 81 -115 81c-61 0 -105 -45 -105 -109c0 -33 12 -55 34 -62c65 -21 81 -34 81 -65c0 -29 -18 -46 -48 -46c-55 0 -62 57 -111 57c-46 0 -81 -52 -81 -121c0 -138 129 -247 291 -247
c150 0 277 104 277 226c0 84 -61 149 -140 149c-65 0 -109 -36 -109 -90c0 -40 24 -71 54 -71c15 0 23 8 23 24c0 9 -2 22 -2 31c0 23 16 40 39 40c28 0 51 -28 51 -62c0 -47 -46 -86 -103 -86c-64 0 -111 54 -111 128c0 96 80 163 194 163h105c80 0 132 36 132 92
c0 34 -25 65 -52 65c-46 0 -5 -69 -71 -69c-32 0 -51 19 -51 51c0 44 36 72 93 72c83 0 144 -61 144 -144c0 -93 -80 -161 -193 -164l-2 -4c35 -21 59 -82 59 -149c0 -171 -161 -307 -365 -307c-199 0 -350 129 -350 299c0 116 65 205 169 231c-10 22 -17 62 -17 94
c0 98 73 166 177 166z" />
    <glyph glyph-name="quotesingle" unicode="'" horiz-adv-x="207" 
d="M183 564h-29c21 160 5 266 85 266c22 0 36 -14 36 -35c0 -16 -54 -134 -92 -231z" />
    <glyph glyph-name="parenleft" unicode="(" horiz-adv-x="337" 
d="M419 831l24 -28c-224 -227 -321 -418 -321 -702c0 -101 24 -186 76 -267l-38 -28c-85 111 -128 233 -128 361c0 233 138 466 387 664z" />
    <glyph glyph-name="parenright" unicode=")" horiz-adv-x="335" 
d="M153 803l39 28c79 -108 118 -226 118 -349c0 -237 -147 -478 -402 -676l-23 28c187 159 339 434 339 703c0 86 -23 164 -71 266z" />
    <glyph glyph-name="asterisk" unicode="*" horiz-adv-x="532" 
d="M332 536c-17 -50 -18 -77 -19 -115c-1 -39 -15 -61 -45 -61c-32 0 -46 24 -46 48c0 17 7 25 29 47c19 19 29 33 52 91c-109 -19 -115 -55 -146 -55c-25 0 -45 23 -45 47c0 23 18 45 49 45c23 0 46 -13 81 -13c14 0 34 2 56 6c-76 87 -126 68 -126 117c0 34 24 47 47 47
c51 0 37 -66 103 -145c16 46 17 80 17 118c0 36 19 57 45 57c28 0 47 -24 47 -45c0 -35 -52 -64 -81 -141c95 18 116 56 146 56c23 0 44 -23 44 -47c0 -19 -14 -44 -46 -44c-21 0 -39 11 -75 11c-16 0 -39 -2 -63 -6c61 -73 128 -67 128 -119c0 -30 -22 -45 -46 -45
c-36 0 -46 34 -51 56c-5 21 -29 63 -55 90z" />
    <glyph glyph-name="plus" unicode="+" horiz-adv-x="578" 
d="M315 104h-52v209h-208v50h208v209h52v-209h208v-50h-208v-209z" />
    <glyph glyph-name="comma" unicode="," horiz-adv-x="265" 
d="M71 3c-8 -2 -15 -3 -21 -3c-34 0 -51 24 -51 58c0 40 30 72 69 72c41 0 71 -33 71 -71c0 -74 -55 -162 -155 -234l-23 32c71 50 110 107 110 146z" />
    <glyph glyph-name="hyphen" unicode="-" horiz-adv-x="465" 
d="M369 248h-309l23 83h309z" />
    <glyph glyph-name="period" unicode="." horiz-adv-x="262" 
d="M68 -10c-37 0 -69 28 -69 68s30 72 69 72c41 0 71 -33 71 -71c0 -39 -32 -69 -71 -69z" />
    <glyph glyph-name="slash" unicode="/" horiz-adv-x="390" 
d="M457 770l-417 -770h-69l424 770h62z" />
    <glyph glyph-name="zero" unicode="0" horiz-adv-x="656" 
d="M260 -10c-114 0 -191 108 -191 268c0 256 188 522 368 522c115 0 192 -102 192 -255c0 -254 -194 -535 -369 -535zM427 728c-115 0 -247 -293 -247 -549c0 -86 34 -136 93 -136c115 0 244 294 244 555c0 83 -32 130 -90 130z" />
    <glyph glyph-name="one" unicode="1" horiz-adv-x="474" 
d="M426 780l-129 -512c-13 -53 -27 -102 -27 -141c0 -53 25 -87 107 -87l-11 -40h-370l11 40c93 0 138 29 165 139l102 411c1 6 2 12 2 16c0 10 -4 13 -15 13c-22 0 -69 -16 -146 -16l6 42c115 0 196 64 268 135h37z" />
    <glyph glyph-name="two" unicode="2" horiz-adv-x="625" 
d="M165 103v-5h204c65 0 95 17 132 75h37l-63 -173h-464l9 53c334 266 452 408 452 547c0 77 -43 128 -113 128c-78 0 -139 -62 -139 -137c0 -60 34 -95 94 -95c-12 -33 -45 -53 -86 -53c-65 0 -109 50 -109 123c0 119 117 215 261 215c126 0 210 -73 210 -184
c0 -136 -119 -275 -425 -494z" />
    <glyph glyph-name="three" unicode="3" horiz-adv-x="617" 
d="M411 219c0 89 -48 156 -112 156c-23 0 -57 -8 -79 -8c-21 0 -32 7 -32 20c0 67 267 -3 267 231c0 76 -28 111 -90 111c-70 0 -119 -43 -119 -103c0 -41 23 -65 62 -65c-10 -23 -37 -38 -68 -38c-51 0 -85 37 -85 93c0 94 93 164 218 164c117 0 192 -60 192 -154
c0 -93 -80 -186 -181 -209v-6c91 -24 145 -90 145 -176c0 -135 -134 -245 -298 -245c-123 0 -207 63 -207 155c0 75 56 139 123 139c35 0 63 -18 68 -44c-49 0 -91 -48 -91 -106s42 -92 115 -92c103 0 172 71 172 177z" />
    <glyph glyph-name="four" unicode="4" horiz-adv-x="578" 
d="M535 780l-111 -434h123l-15 -61h-123l-69 -285h-104l72 285h-295l13 51l465 444h44zM117 346h208l72 262l-3 1z" />
    <glyph glyph-name="five" unicode="5" horiz-adv-x="610" 
d="M318 491c135 0 235 -94 235 -223c0 -153 -142 -278 -316 -278c-124 0 -206 63 -206 159c0 73 48 135 106 135c32 0 60 -19 65 -44c-43 0 -76 -41 -76 -95c0 -63 46 -103 117 -103c111 0 192 100 192 238c0 105 -48 161 -140 161c-96 0 -127 -59 -152 -59
c-8 0 -15 7 -15 17c0 4 1 10 2 13l125 368c32 -11 92 -18 163 -18c73 0 133 7 167 19l6 -1c-28 -80 -86 -119 -174 -119c-39 0 -97 8 -139 18l-67 -197l4 -6c18 8 68 15 103 15z" />
    <glyph glyph-name="six" unicode="6" horiz-adv-x="635" 
d="M559 279c0 -154 -129 -289 -275 -289c-131 0 -213 108 -213 280c0 264 192 510 397 510c89 0 156 -46 156 -107c0 -34 -21 -57 -54 -57c-28 0 -49 18 -49 55c0 43 -12 64 -53 64c-107 0 -214 -118 -258 -285l3 -2c44 27 88 40 137 40c125 0 209 -84 209 -209zM332 439
c-96 0 -160 -95 -160 -237c0 -108 37 -167 106 -167c92 0 162 109 162 250c0 102 -37 154 -108 154z" />
    <glyph glyph-name="seven" unicode="7" horiz-adv-x="524" 
d="M499 680h-186c-97 0 -113 -6 -148 -72l-21 -39h-43l93 237h30c0 -3 -1 -4 -1 -8c0 -20 20 -28 73 -28h303l-3 -20c-80 -116 -183 -308 -354 -614c-64 -115 -93 -146 -132 -146c-28 0 -48 16 -48 41c0 26 21 57 156 249z" />
    <glyph glyph-name="eight" unicode="8" horiz-adv-x="639" 
d="M416 429c89 -55 127 -126 127 -207c0 -135 -116 -232 -277 -232c-139 0 -223 72 -223 192c0 109 69 182 210 222c-69 46 -107 108 -107 173c0 112 114 203 246 203c116 0 205 -69 205 -161c0 -89 -79 -171 -181 -190zM342 349l-52 34c-98 -44 -146 -113 -146 -208
c0 -86 44 -132 128 -132c98 0 167 62 167 149c0 65 -33 113 -97 157zM337 476l41 -26c80 43 124 96 124 165c0 65 -43 113 -118 113s-134 -48 -134 -117c0 -45 29 -97 87 -135z" />
    <glyph glyph-name="nine" unicode="9" horiz-adv-x="634" 
d="M113 501c0 149 129 279 275 279c131 0 213 -108 213 -280c0 -264 -192 -510 -397 -510c-89 0 -156 46 -156 107c0 34 21 57 54 57c28 0 49 -18 49 -55c0 -43 12 -64 53 -64c107 0 214 122 258 295l-3 2c-44 -27 -88 -40 -137 -40c-125 0 -209 84 -209 209zM340 341
c96 0 160 91 160 227c0 108 -37 167 -106 167c-92 0 -162 -105 -162 -240c0 -102 37 -154 108 -154z" />
    <glyph glyph-name="colon" unicode=":" horiz-adv-x="304" 
d="M84 -10c-37 0 -69 28 -69 68s30 72 69 72c41 0 71 -33 71 -71c0 -39 -32 -69 -71 -69zM166 300c-37 0 -69 28 -69 68s30 72 69 72c41 0 71 -33 71 -71c0 -39 -32 -69 -71 -69z" />
    <glyph glyph-name="semicolon" unicode=";" horiz-adv-x="306" 
d="M166 300c-37 0 -69 28 -69 68s30 72 69 72c41 0 71 -33 71 -71c0 -39 -32 -69 -71 -69zM87 3c-8 -2 -15 -3 -21 -3c-34 0 -51 24 -51 58c0 40 30 72 69 72c41 0 71 -33 71 -71c0 -74 -55 -162 -155 -234l-23 32c71 50 110 107 110 146z" />
    <glyph glyph-name="less" unicode="&#x3c;" horiz-adv-x="618" 
d="M101 336l413 -210v-54l-458 232v64l458 232v-56z" />
    <glyph glyph-name="equal" unicode="=" horiz-adv-x="637" 
d="M538 302l-14 -50h-454l14 50h454zM588 472l-14 -50h-454l14 50h454z" />
    <glyph glyph-name="greater" unicode="&#x3e;" horiz-adv-x="621" 
d="M122 126l413 210l-413 208v56l458 -232v-64l-458 -232v54z" />
    <glyph glyph-name="question" unicode="?" horiz-adv-x="468" 
d="M195 -10c-35 0 -62 27 -62 62c0 36 28 64 63 64s63 -29 63 -64c0 -34 -28 -62 -64 -62zM142 290c0 190 280 211 280 348c0 55 -45 95 -108 95c-56 0 -99 -31 -99 -73c0 -54 70 -20 70 -78c0 -31 -21 -49 -55 -49c-54 0 -96 44 -96 101c0 81 83 147 185 147
c101 0 167 -64 167 -160c0 -202 -290 -237 -290 -347c0 -26 16 -40 46 -40c32 0 55 16 74 51l27 -16c-26 -53 -63 -78 -111 -78c-58 0 -90 35 -90 99z" />
    <glyph glyph-name="at" unicode="@" horiz-adv-x="1030" 
d="M684 441l23 89h96l-67 -237c-15 -53 -26 -106 -26 -126c0 -25 17 -40 44 -40c88 0 181 150 181 293c0 181 -148 315 -350 315c-241 0 -428 -190 -428 -436c0 -229 164 -385 407 -385c112 0 217 33 314 100l21 -31c-117 -81 -223 -117 -348 -117c-284 0 -485 180 -485 434
c0 270 225 480 513 480c239 0 401 -145 401 -358c0 -183 -119 -345 -254 -345c-65 0 -101 38 -107 114l-3 1c-41 -69 -107 -115 -168 -115c-86 0 -150 72 -150 171c0 146 133 292 266 292c62 0 98 -31 117 -98zM572 498c-88 0 -176 -136 -176 -271c0 -69 23 -105 67 -105
c86 0 185 145 185 272c0 65 -28 104 -76 104z" />
    <glyph glyph-name="A" unicode="A" 
d="M690 780l-139 -614c-8 -35 -12 -61 -12 -77c0 -39 20 -49 93 -49l-10 -40h-296l10 40c78 0 95 18 119 127l27 123h-215l-63 -66c-109 -114 -118 -134 -118 -150c0 -25 20 -34 75 -34l-10 -40h-259l10 40c63 0 120 45 243 191l461 549h84zM310 340h181l82 310h-4z" />
    <glyph glyph-name="B" unicode="B" horiz-adv-x="736" 
d="M280 385l-49 -178c-7 -25 -21 -77 -21 -102c0 -54 52 -60 94 -60c147 0 233 83 233 194c0 101 -65 146 -200 146h-57zM-29 0l11 40c81 0 107 15 135 119l118 441c7 28 11 51 11 69c0 45 -26 61 -92 61l11 40h268c115 0 253 -35 253 -173c0 -130 -119 -172 -212 -186v-4
c116 -24 180 -89 180 -186c0 -136 -134 -221 -317 -221h-366zM349 645l-56 -209h74c126 0 213 67 213 166c0 86 -45 123 -160 123c-36 0 -56 -23 -71 -80z" />
    <glyph glyph-name="C" unicode="C" horiz-adv-x="728" 
d="M665 189c-92 -142 -177 -199 -300 -199c-180 0 -292 120 -292 311c0 253 200 479 425 479c64 0 121 -19 180 -60l37 50h37l-46 -251h-38c-10 144 -60 209 -162 209c-175 0 -312 -188 -312 -428c0 -164 66 -248 193 -248c96 0 171 50 242 161z" />
    <glyph glyph-name="D" unicode="D" horiz-adv-x="836" 
d="M152 730l13 40h271c91 0 182 -19 252 -77c75 -62 109 -153 109 -246c0 -121 -58 -246 -139 -326c-93 -92 -208 -121 -337 -121h-350l11 40c86 0 108 15 135 118l115 442c5 18 22 65 22 88c0 39 -50 42 -83 42h-19zM355 669l-118 -438c-22 -81 -25 -99 -25 -113
c0 -71 71 -74 100 -74c261 0 369 235 369 413c0 167 -96 263 -253 263c-39 0 -61 -6 -73 -51z" />
    <glyph glyph-name="E" unicode="E" horiz-adv-x="740" 
d="M-26 0l11 40c88 0 109 23 134 118l116 441c9 34 14 59 14 78c0 44 -28 53 -100 53l11 40h546v-202h-38c-34 127 -84 158 -168 158h-130l-78 -297h63c71 0 97 22 139 114h37l-60 -296h-40c2 20 3 37 3 52c0 59 -19 86 -80 86h-75l-57 -215c-6 -22 -9 -40 -9 -56
c0 -48 38 -71 142 -71c153 0 218 44 273 168h47l-78 -211h-623z" />
    <glyph glyph-name="F" unicode="F" horiz-adv-x="659" 
d="M-26 0l11 40c88 0 109 23 134 118l116 441c9 34 14 59 14 78c0 44 -28 53 -100 53l11 40h546v-202h-38c-34 127 -84 158 -168 158h-130l-78 -297h68c71 0 97 22 139 114h37l-70 -316h-40c2 24 3 44 3 62c0 66 -17 96 -70 96h-80l-57 -215c-6 -22 -9 -40 -9 -56
c0 -48 32 -71 122 -71l-11 -43h-350z" />
    <glyph glyph-name="G" unicode="G" horiz-adv-x="809" 
d="M387 44c112 0 195 62 195 178c0 53 -19 78 -85 78l9 39h274l-10 -39c-57 0 -71 -8 -104 -134c-10 -39 -22 -78 -23 -117c-61 -10 -131 -59 -278 -59c-180 0 -292 120 -292 311c0 253 210 479 445 479c72 0 135 -19 200 -60l37 50h37l-36 -220h-38
c-13 122 -72 178 -192 178c-187 0 -332 -188 -332 -428c0 -170 66 -256 193 -256z" />
    <glyph glyph-name="H" unicode="H" horiz-adv-x="911" 
d="M820 566l-105 -398c-8 -29 -12 -52 -12 -70c0 -45 27 -58 91 -58l-12 -40h-319l11 40c79 0 109 20 135 118l55 209h-388l-52 -199c-8 -29 -12 -52 -12 -70c0 -45 27 -58 91 -58l-12 -40h-319l11 40c79 0 109 20 135 118l117 442c10 37 15 63 15 82c0 41 -27 48 -99 48
l11 40h325l-11 -40c-88 0 -111 -28 -147 -164l-39 -148h388l48 182c10 37 15 63 15 82c0 41 -27 48 -99 48l11 40h325l-11 -40c-88 0 -111 -28 -147 -164z" />
    <glyph glyph-name="I" unicode="I" horiz-adv-x="420" 
d="M329 566l-105 -398c-8 -29 -12 -52 -12 -70c0 -45 27 -58 91 -58l-12 -40h-319l11 40c79 0 109 20 135 118l117 442c10 37 15 63 15 82c0 41 -27 48 -99 48l11 40h325l-11 -40c-88 0 -111 -28 -147 -164z" />
    <glyph glyph-name="J" unicode="J" horiz-adv-x="543" 
d="M134 43c65 0 118 66 148 179l99 378c10 37 15 64 15 82c0 38 -22 48 -109 48l11 40h325l-11 -40c-81 0 -101 -26 -137 -164l-100 -380c-33 -126 -121 -196 -240 -196c-101 0 -158 48 -158 131c0 63 38 110 88 110c36 0 62 -24 62 -58c0 -50 -52 -51 -52 -86
c0 -26 25 -44 59 -44z" />
    <glyph glyph-name="K" unicode="K" horiz-adv-x="825" 
d="M328 566l-37 -139l207 148c84 60 121 102 121 127c0 19 -24 28 -67 28l10 40h284l-10 -40c-43 0 -74 -29 -284 -177l-154 -108l196 -258c107 -142 120 -147 174 -147l-11 -40h-314l11 40c47 0 74 5 74 28c0 19 -18 52 -57 105l-158 212l-40 -28l-50 -189
c-8 -29 -12 -52 -12 -70c0 -45 30 -58 101 -58l-12 -40h-319l11 40c74 0 99 20 125 118l117 442c10 37 15 63 15 82c0 41 -27 48 -99 48l11 40h325l-11 -40c-88 0 -111 -28 -147 -164z" />
    <glyph glyph-name="L" unicode="L" horiz-adv-x="702" 
d="M-25 0l11 40c87 0 110 23 134 118l113 442c9 37 15 63 15 82c0 41 -27 48 -99 48l11 40h325l-11 -40c-88 0 -111 -28 -147 -164l-104 -396c-6 -22 -9 -40 -9 -56c0 -48 29 -71 112 -71c159 0 226 50 283 188h47l-88 -231h-593z" />
    <glyph glyph-name="M" unicode="M" horiz-adv-x="1020" 
d="M849 655h-4l-410 -655h-43l-78 655h-4l-128 -487c-4 -16 -7 -31 -7 -44c0 -54 34 -83 86 -84l-12 -40h-276l11 40c62 0 117 50 135 118l117 442c10 37 15 63 15 82c0 41 -27 48 -99 48l11 40h240l71 -596h4l377 596h211l-11 -40c-76 0 -91 -29 -127 -164l-105 -398
c-8 -29 -12 -52 -12 -70c0 -45 30 -58 101 -58l-12 -40h-319l11 40c74 0 99 20 125 118z" />
    <glyph glyph-name="N" unicode="N" horiz-adv-x="842" 
d="M620 0h-40l-262 602h-4l-114 -434c-4 -16 -6 -30 -6 -43c0 -55 36 -84 95 -85l-12 -40h-286l11 40c62 0 117 50 135 118l118 444c3 11 4 21 4 31c0 63 -59 96 -147 97l12 40h235l250 -573h4l106 405c3 13 5 26 5 37c0 57 -37 90 -84 91l12 40h256l-11 -40
c-51 0 -97 -50 -115 -118z" />
    <glyph glyph-name="O" unicode="O" horiz-adv-x="820" 
d="M505 780c170 0 279 -121 279 -311c0 -257 -199 -479 -428 -479c-171 0 -282 124 -282 313c0 255 201 477 431 477zM505 728c-174 0 -310 -188 -310 -428c0 -169 61 -256 175 -256c168 0 293 190 293 452c0 159 -50 232 -158 232z" />
    <glyph glyph-name="P" unicode="P" horiz-adv-x="667" 
d="M275 358l-42 -151c-13 -47 -21 -85 -21 -102c0 -40 38 -60 114 -60l-11 -45h-332l11 40c64 0 103 37 125 119l118 441c9 33 13 58 13 75c0 40 -23 53 -104 55l11 40h278c171 0 273 -64 273 -172c0 -139 -152 -240 -361 -240h-72zM351 645l-63 -236h49
c151 0 260 81 260 195c0 80 -54 121 -160 121c-54 0 -69 -16 -86 -80z" />
    <glyph glyph-name="Q" unicode="Q" horiz-adv-x="834" 
d="M513 780c174 0 285 -122 285 -313c0 -180 -99 -347 -239 -423l-217 -118l2 -3c112 0 163 -91 270 -91c67 0 124 35 144 104l33 -15c-24 -109 -114 -181 -226 -181c-151 0 -223 131 -307 131c-73 0 -72 -97 -145 -97c-32 0 -51 19 -51 50c0 34 22 55 93 85l192 81
c-166 7 -273 129 -273 314c0 254 204 476 439 476zM513 728c-178 0 -318 -187 -318 -427c0 -162 63 -249 180 -249c173 0 302 189 302 442c0 160 -52 234 -164 234z" />
    <glyph glyph-name="R" unicode="R" 
d="M280 375l-47 -168c-13 -47 -21 -85 -21 -102c0 -40 38 -60 114 -60l-11 -45h-332l11 40c64 0 103 37 125 119l118 441c9 33 13 58 13 75c0 40 -23 53 -104 55l11 40h278c160 0 258 -64 258 -172c0 -109 -87 -184 -219 -211l74 -183c55 -136 81 -164 168 -164l-11 -40
h-190l-147 375h-88zM351 645l-58 -219h49c140 0 240 64 240 178c0 80 -51 121 -145 121c-54 0 -69 -16 -86 -80z" />
    <glyph glyph-name="S" unicode="S" horiz-adv-x="598" 
d="M538 713l20 42h30l-42 -197h-34c-4 120 -42 171 -127 171c-82 0 -141 -49 -141 -117c0 -144 273 -173 273 -378c0 -135 -113 -244 -254 -244c-74 0 -136 28 -191 86l-21 -76h-35l42 254h33c9 -137 70 -211 173 -211c95 0 164 59 164 139c0 167 -282 205 -282 390
c0 115 105 208 236 208c62 0 110 -21 156 -67z" />
    <glyph glyph-name="T" unicode="T" horiz-adv-x="780" 
d="M525 610l-118 -442c-8 -30 -16 -52 -16 -70c0 -43 31 -58 115 -58l-12 -40h-348l11 40c79 0 117 14 145 118l122 456c6 24 9 44 9 60c0 38 -17 54 -55 54c-117 0 -203 -63 -260 -171h-40l95 213h668l-20 -213h-38c0 128 -48 171 -141 171c-66 0 -92 -22 -117 -118z" />
    <glyph glyph-name="U" unicode="U" horiz-adv-x="808" 
d="M134 353l66 246c7 27 13 58 13 77c0 40 -25 54 -94 54l13 40h319l-11 -40c-95 0 -111 -20 -148 -165l-65 -251c-9 -34 -13 -66 -13 -94c0 -106 56 -174 161 -174c132 0 202 104 247 244c41 128 80 334 80 380c0 40 -40 57 -102 60l12 40h263l-12 -40
c-65 0 -84 -18 -110 -138l-43 -200c-57 -264 -171 -402 -343 -402c-169 0 -253 83 -253 229c0 42 7 85 20 134z" />
    <glyph glyph-name="V" unicode="V" horiz-adv-x="752" 
d="M248 142l338 404c74 88 112 135 112 159c0 20 -23 25 -69 25l10 40h259l-10 -40c-63 0 -122 -43 -243 -191l-451 -549h-84l139 614c8 35 12 61 12 77c0 39 -20 49 -93 49l10 40h296l-10 -40c-78 0 -95 -18 -119 -127l-101 -461h4z" />
    <glyph glyph-name="W" unicode="W" horiz-adv-x="1064" 
d="M588 152l308 394c71 91 106 138 106 161c0 19 -21 23 -63 23l10 40h259l-10 -40c-63 0 -127 -39 -243 -191l-421 -549h-84l108 477l-366 -477h-84l139 614c8 35 12 61 12 77c0 39 -20 49 -93 49l10 40h276l-10 -40c-56 0 -75 -19 -99 -127l-101 -451h4l339 435l4 17
c8 35 12 61 12 77c0 39 -18 49 -83 49l10 40h286l-10 -40c-78 0 -95 -18 -119 -127l-101 -451h4z" />
    <glyph glyph-name="X" unicode="X" horiz-adv-x="781" 
d="M454 422l117 -255c46 -100 78 -127 151 -127l-9 -40h-330l9 40c57 0 84 16 84 50c0 17 -7 44 -18 69l-81 179l-83 -92c-79 -87 -113 -141 -113 -170c0 -25 24 -36 78 -36l-9 -40h-289l10 40c75 7 84 12 151 89l231 266l-108 227c-42 87 -70 108 -137 108l11 40h311
l-11 -40c-46 0 -67 -16 -67 -50c0 -23 10 -54 31 -101l49 -108l86 96c61 68 88 109 88 133c0 20 -19 30 -58 30l12 40h258l-11 -40c-58 0 -98 -28 -178 -116z" />
    <glyph glyph-name="Y" unicode="Y" horiz-adv-x="689" 
d="M440 348l-47 -180c-8 -29 -12 -52 -12 -70c0 -45 30 -58 101 -58l-12 -40h-339l11 40c86 0 119 19 145 118l46 178l-120 288c-40 96 -57 106 -123 106l11 40h281l-11 -40c-50 0 -71 -9 -71 -35c0 -9 2 -22 8 -36l107 -258l139 203c29 42 41 59 41 83c0 28 -28 43 -74 43
l11 40h247l-11 -40c-54 0 -67 -14 -114 -81z" />
    <glyph glyph-name="Z" unicode="Z" horiz-adv-x="672" 
d="M696 751l-538 -701h125c126 0 224 46 282 171h43l-84 -221h-531v21l543 701h-101c-159 0 -205 -24 -282 -150h-43l101 198h485v-19z" />
    <glyph glyph-name="bracketleft" unicode="[" horiz-adv-x="369" 
d="M470 773h-151l-237 -876h151l-13 -47h-240l262 970h241z" />
    <glyph glyph-name="backslash" unicode="\" horiz-adv-x="463" 
d="M287 0l-137 770h55l146 -770h-64z" />
    <glyph glyph-name="bracketright" unicode="]" horiz-adv-x="369" 
d="M-89 -103h150l237 876h-151l13 47h241l-263 -970h-240z" />
    <glyph glyph-name="asciicircum" unicode="^" horiz-adv-x="481" 
d="M225 409h90l72 -179h-45l-88 118l-150 -118h-44z" />
    <glyph glyph-name="underscore" unicode="_" horiz-adv-x="731" 
d="M525 -143h-570l23 68h570z" />
    <glyph glyph-name="grave" unicode="`" horiz-adv-x="275" 
d="M234 651h-47l-119 65c-24 13 -39 27 -39 44c0 27 25 43 49 43c21 0 39 -10 58 -33z" />
    <glyph glyph-name="a" unicode="a" horiz-adv-x="570" 
d="M332 488c-102 0 -227 -210 -227 -348c0 -48 22 -79 56 -79c93 0 212 242 212 371c0 35 -16 56 -41 56zM414 474l21 56h83l-57 -153c-38 -101 -74 -242 -74 -286c0 -19 7 -29 19 -29c19 0 56 43 100 104l26 -21c-55 -98 -124 -155 -184 -155c-31 0 -48 22 -48 75
c0 12 1 27 3 53l-4 1c-39 -74 -115 -129 -181 -129c-67 0 -108 55 -108 145c0 184 172 405 316 405c44 0 71 -20 88 -66z" />
    <glyph glyph-name="b" unicode="b" horiz-adv-x="534" 
d="M331 829l-127 -385l3 -2c39 61 100 97 165 97c81 0 127 -55 127 -142c0 -190 -179 -407 -341 -407c-76 0 -130 51 -130 124c0 35 15 99 43 187l121 390c7 24 15 52 15 64c0 24 -24 35 -76 35l8 30zM174 41c93 0 226 215 226 364c0 46 -24 81 -55 81
c-90 0 -222 -216 -222 -363c0 -54 17 -82 51 -82z" />
    <glyph glyph-name="c" unicode="c" horiz-adv-x="441" 
d="M338 181l35 -20c-55 -110 -132 -171 -216 -171c-86 0 -143 65 -143 163c0 178 165 387 306 387c63 0 110 -39 110 -91c0 -33 -22 -56 -52 -56s-52 22 -52 50c0 17 8 27 8 36s-8 14 -24 14c-89 0 -191 -182 -191 -341c0 -64 26 -103 70 -103c47 0 109 56 149 132z" />
    <glyph glyph-name="d" unicode="d" horiz-adv-x="598" 
d="M410 486l58 206c10 36 16 60 16 71c0 20 -23 27 -92 27l11 40h193l-111 -405c-57 -209 -72 -284 -72 -327c0 -30 11 -41 25 -41c29 0 67 54 93 134l38 -9c-45 -131 -98 -192 -166 -192c-48 0 -75 32 -75 89c0 14 3 31 7 46l-8 2c-50 -88 -130 -137 -195 -137
c-68 0 -121 63 -121 156c0 174 175 394 313 394c46 0 63 -17 86 -54zM331 487c-104 0 -223 -213 -223 -353c0 -48 26 -79 66 -79c91 0 207 239 207 366c0 41 -16 66 -50 66z" />
    <glyph glyph-name="e" unicode="e" horiz-adv-x="456" 
d="M339 154l32 -21c-57 -94 -131 -143 -214 -143c-91 0 -143 60 -143 163c0 184 168 387 320 387c64 0 109 -36 109 -87c0 -93 -149 -204 -327 -244c-3 -19 -4 -37 -4 -55c0 -71 27 -109 77 -109c49 0 105 41 150 109zM314 493c-70 0 -154 -117 -188 -239
c128 35 223 117 223 197c0 28 -12 42 -35 42z" />
    <glyph glyph-name="f" unicode="f" horiz-adv-x="334" 
d="M246 450l-94 -377c-68 -271 -136 -333 -250 -333c-55 0 -96 33 -96 76c0 33 18 54 49 54c56 0 30 -70 82 -70c31 0 58 35 71 87l145 563h-96l13 46h95c59 239 137 334 241 334c78 0 135 -37 135 -86c0 -30 -18 -55 -48 -55c-77 0 -33 96 -96 96
c-53 0 -106 -121 -140 -289h101l-14 -46h-98z" />
    <glyph glyph-name="g" unicode="g" horiz-adv-x="550" 
d="M435 -73c0 -115 -103 -187 -265 -187c-146 0 -245 57 -245 141c0 54 40 95 94 95c16 0 29 -3 51 -14c-36 -15 -56 -46 -56 -87c0 -56 61 -90 159 -90c108 0 184 52 184 98c0 37 -47 70 -128 84c-145 25 -211 54 -211 114c0 38 29 63 117 89l2 4c-51 36 -76 81 -76 139
c0 124 109 228 238 228c51 0 90 -17 124 -54c31 35 61 53 91 53c42 0 80 -31 80 -65c0 -27 -20 -47 -47 -47c-41 0 -36 42 -72 42c-9 0 -14 -2 -35 -16c7 -18 9 -33 9 -58c0 -146 -87 -238 -229 -249c-63 -5 -89 -15 -89 -36c0 -83 304 -24 304 -184zM225 191
c64 0 129 111 129 223c0 53 -26 87 -65 87c-62 0 -134 -120 -134 -225c0 -50 28 -85 70 -85z" />
    <glyph glyph-name="h" unicode="h" horiz-adv-x="574" 
d="M356 311c23 68 32 104 32 134c0 31 -9 42 -33 42c-82 0 -157 -124 -255 -418l-23 -69h-84l198 678c9 33 15 60 15 74c0 27 -21 36 -89 38l7 40h204l-114 -386l3 -2c43 62 101 98 162 98c63 0 98 -39 98 -109c0 -44 -13 -102 -41 -178c-52 -145 -55 -153 -55 -165
c0 -15 6 -23 19 -23c27 0 69 34 109 89l28 -21c-42 -78 -133 -143 -200 -143c-36 0 -51 19 -51 63c0 45 12 91 70 258z" />
    <glyph glyph-name="i" unicode="i" horiz-adv-x="344" 
d="M86 202l45 128c19 52 26 83 26 101s-7 23 -14 23c-28 0 -76 -64 -87 -85l-29 18c31 60 124 153 193 153c33 0 50 -17 50 -67c0 -39 -26 -102 -63 -204l-37 -101c-5 -14 -21 -59 -21 -78c0 -12 6 -23 21 -23c39 0 92 77 107 104l30 -17c-32 -65 -112 -164 -200 -164
c-39 0 -58 19 -58 65c0 38 13 79 37 147zM278 704c-33 0 -62 25 -62 61s27 65 62 65c37 0 64 -30 64 -64c0 -35 -29 -62 -64 -62z" />
    <glyph glyph-name="j" unicode="j" horiz-adv-x="299" 
d="M237 704c-33 0 -62 25 -62 61s27 65 62 65c37 0 64 -30 64 -64c0 -35 -29 -62 -64 -62zM11 -113l111 444c13 52 21 84 21 103c0 13 -4 20 -15 20c-29 0 -75 -64 -86 -85l-29 18c31 60 124 153 193 153c35 0 50 -18 50 -56c0 -44 -20 -116 -48 -217l-83 -301
c-32 -114 -125 -226 -220 -226c-55 0 -96 33 -96 76c0 36 18 59 49 59c55 0 44 -75 82 -75c32 0 58 35 71 87z" />
    <glyph glyph-name="k" unicode="k" horiz-adv-x="513" 
d="M357 80c20 0 47 25 82 75l26 -14c-48 -100 -98 -151 -149 -151c-32 0 -49 19 -74 78l-67 160l-22 -10l-63 -218h-91l193 717c5 19 7 29 7 37c0 28 -20 36 -93 36l9 30l199 10l-104 -385l4 -1c38 64 88 97 147 97c62 0 101 -32 101 -83c0 -62 -66 -129 -176 -179l-26 -12
l51 -132c14 -38 28 -55 46 -55zM162 268c116 40 200 110 200 164c0 26 -15 41 -41 41c-55 0 -129 -95 -159 -205z" />
    <glyph glyph-name="l" unicode="l" horiz-adv-x="313" 
d="M50 202l133 489c6 24 15 52 15 64c0 24 -24 35 -76 35l8 30l183 9l-179 -657c-10 -36 -16 -63 -16 -82c0 -12 6 -23 21 -23c43 0 101 84 117 114l30 -17c-41 -91 -133 -174 -195 -174c-46 0 -68 19 -68 65c0 27 7 69 27 147z" />
    <glyph glyph-name="m" unicode="m" horiz-adv-x="870" 
d="M663 333c35 99 38 109 38 126c0 21 -6 29 -20 29c-36 0 -87 -51 -144 -142c-41 -65 -60 -112 -142 -346h-94l66 201c56 170 72 226 72 254c0 21 -9 33 -25 33c-53 0 -158 -134 -205 -261l-84 -227h-88l74 229c50 156 63 202 63 228c0 18 -6 28 -17 28
c-29 0 -81 -76 -110 -161l-30 15c47 136 104 201 178 201c43 0 59 -22 59 -78c0 -32 -5 -61 -17 -92l3 -3c61 114 128 173 197 173c52 0 83 -34 83 -89c0 -19 -4 -38 -17 -85l2 -3c75 127 132 177 202 177c52 0 78 -27 78 -87c0 -38 -14 -84 -50 -191
c-46 -137 -50 -152 -50 -175c0 -14 3 -19 10 -19c20 0 59 37 123 117l26 -14c-45 -89 -150 -181 -206 -181c-33 0 -54 31 -54 79c0 33 10 66 79 264z" />
    <glyph glyph-name="n" unicode="n" horiz-adv-x="627" 
d="M425 488c-63 0 -172 -143 -226 -288l-74 -200h-88l74 229c47 146 63 203 63 229c0 17 -6 27 -17 27c-30 0 -84 -80 -110 -161l-30 15c47 136 104 201 178 201c43 0 59 -22 59 -79c0 -34 -5 -63 -17 -91l3 -3c68 119 136 173 218 173c58 0 90 -29 90 -81
c0 -35 -12 -78 -53 -197c-31 -90 -53 -154 -53 -179c0 -10 3 -15 10 -15c19 0 53 29 114 97l26 -14c-43 -79 -143 -161 -196 -161c-33 0 -54 32 -54 80c0 37 8 62 79 263c24 69 31 94 31 118c0 25 -9 37 -27 37z" />
    <glyph glyph-name="o" unicode="o" horiz-adv-x="523" 
d="M187 -10c-90 0 -163 75 -163 201c0 174 141 349 287 349c96 0 165 -76 165 -192c0 -168 -145 -358 -289 -358zM193 40c90 0 187 209 187 360c0 70 -27 93 -69 93c-90 0 -182 -203 -182 -351c0 -74 27 -102 64 -102z" />
    <glyph glyph-name="p" unicode="p" horiz-adv-x="563" 
d="M42 347l-27 28c49 56 113 102 180 130l47 160h76l-35 -133c21 4 42 7 63 7c113 0 179 -65 179 -175c0 -176 -181 -320 -379 -346l-37 -139c-6 -20 -8 -33 -8 -43c0 -33 24 -45 93 -46l-6 -40h-283l6 40c56 0 78 11 88 46l181 618c-51 -26 -98 -64 -138 -107zM320 490
c-17 0 -34 -2 -50 -5l-113 -424c134 26 264 153 264 297c0 80 -40 132 -101 132z" />
    <glyph glyph-name="q" unicode="q" horiz-adv-x="535" 
d="M230 -164l73 249l-3 2c-36 -63 -91 -97 -154 -97c-83 0 -131 60 -131 163c0 181 153 387 293 387c46 0 77 -21 106 -71l24 71h76l-184 -679c-5 -18 -7 -27 -7 -35c0 -24 18 -35 77 -36l-6 -40h-258l6 40c55 0 78 11 88 46zM313 488c-86 0 -194 -195 -194 -342
c0 -63 19 -96 58 -96c89 0 194 182 194 329c0 73 -21 109 -58 109z" />
    <glyph glyph-name="r" unicode="r" horiz-adv-x="463" 
d="M47 378l-26 13c30 67 130 149 183 149c32 0 46 -23 46 -76c0 -21 -2 -40 -7 -66l3 -3c33 78 123 155 183 155c38 0 68 -28 68 -64c0 -35 -25 -60 -59 -60c-42 0 -46 37 -70 37c-51 0 -139 -144 -198 -325l-45 -138h-93l65 207c51 159 63 205 63 233c0 15 -5 22 -15 22
c-27 0 -81 -46 -98 -84z" />
    <glyph glyph-name="s" unicode="s" horiz-adv-x="381" 
d="M77 387c0 88 70 153 166 153c64 0 112 -36 112 -86c0 -28 -17 -45 -43 -45c-61 0 -42 88 -92 88c-29 0 -52 -29 -52 -66c0 -89 126 -142 126 -276c0 -90 -85 -165 -176 -165c-79 0 -131 38 -131 94c0 38 20 62 50 62c28 0 45 -20 49 -59c4 -43 11 -53 41 -53
c48 0 78 31 78 81c0 108 -128 151 -128 272z" />
    <glyph glyph-name="t" unicode="t" horiz-adv-x="365" 
d="M344 447h-109l-83 -275c-11 -36 -17 -63 -18 -82c0 -12 5 -23 20 -23c47 0 113 84 131 114l29 -17c-46 -91 -145 -174 -210 -174c-46 0 -66 19 -66 65c0 26 8 69 31 147l74 245h-86l13 46h87l52 172h92l-52 -172h109z" />
    <glyph glyph-name="u" unicode="u" horiz-adv-x="593" 
d="M169 62c43 0 149 130 200 268l74 200h93l-74 -229c-43 -134 -58 -185 -58 -210c0 -16 6 -26 18 -26c27 0 78 56 104 116l30 -15c-35 -88 -115 -176 -184 -176c-41 0 -53 31 -53 85c0 22 2 50 7 75l-3 3c-71 -127 -136 -163 -194 -163c-62 0 -84 39 -84 90
c0 56 26 128 50 188c48 119 65 162 65 183c0 5 -1 11 -9 11c-17 0 -48 -29 -104 -97l-26 14c40 78 128 161 193 161c32 0 50 -21 50 -58c0 -47 -29 -121 -70 -223c-26 -65 -46 -117 -46 -159c0 -28 9 -38 21 -38z" />
    <glyph glyph-name="v" unicode="v" horiz-adv-x="578" 
d="M461 357c0 54 -23 85 -23 126c0 37 18 57 52 57c41 0 58 -28 58 -95c0 -212 -169 -455 -316 -455c-73 0 -127 60 -127 141c0 76 43 184 119 293l-2 3c-73 0 -89 52 -117 52c-11 0 -17 -7 -17 -17c0 -25 35 -34 35 -66c0 -24 -21 -41 -50 -41c-34 0 -54 23 -54 61
c0 66 58 124 124 124c53 0 69 -43 111 -43c14 0 23 4 34 15c28 25 32 28 48 28c13 0 20 -6 20 -17s-1 -12 -41 -60c-61 -74 -105 -194 -105 -285c0 -71 27 -119 66 -119c74 0 185 179 185 298z" />
    <glyph glyph-name="w" unicode="w" horiz-adv-x="850" 
d="M407 97c-59 -69 -127 -107 -192 -107c-73 0 -117 50 -117 135c0 83 43 183 129 299l-2 3c-73 0 -88 52 -118 52c-10 0 -16 -6 -16 -17c0 -25 35 -34 35 -66c0 -24 -21 -41 -50 -41c-34 0 -54 23 -54 61c0 65 58 124 123 124c55 0 71 -43 111 -43c11 0 18 3 30 15
c14 15 28 28 47 28c14 0 21 -7 21 -20c0 -9 -4 -14 -41 -57c-77 -90 -120 -207 -120 -295c0 -65 23 -104 61 -104c36 0 86 37 140 101c-3 28 -5 59 -5 83c0 145 72 292 144 292c29 0 57 -24 57 -83c0 -71 -40 -170 -113 -274c12 -63 48 -108 87 -108c74 0 165 154 165 279
c0 62 -23 86 -23 129c0 37 18 57 52 57c41 0 58 -29 58 -100c0 -214 -153 -450 -291 -450c-55 0 -97 37 -118 107zM463 247c35 57 59 115 59 173c0 24 -4 38 -15 38c-26 0 -49 -73 -49 -162c0 -18 1 -34 5 -49z" />
    <glyph glyph-name="x" unicode="x" horiz-adv-x="578" 
d="M328 294l-14 -61c-11 -47 -16 -83 -16 -112c0 -53 17 -77 53 -77c44 0 90 36 152 117l30 -18c-48 -90 -133 -153 -205 -153c-61 0 -103 45 -111 119l-3 1c-40 -71 -112 -120 -177 -120c-52 0 -88 33 -88 79c0 37 23 62 59 62c66 0 34 -83 80 -83c43 0 92 73 125 185
l28 97c12 41 18 73 18 97c0 35 -12 54 -33 54c-37 0 -109 -58 -152 -122l-30 18c36 79 141 163 204 163c50 0 88 -45 88 -104c39 62 99 104 149 104c46 0 83 -35 83 -79c0 -32 -20 -54 -50 -54c-57 0 -32 75 -73 75c-43 0 -92 -78 -117 -188z" />
    <glyph glyph-name="y" unicode="y" horiz-adv-x="515" 
d="M215 11l-54 281c-21 110 -43 145 -67 145c-25 0 -45 -37 -66 -119l-37 10c28 124 89 212 148 212c25 0 41 -16 60 -66c16 -42 36 -115 55 -205l34 -161h4c50 63 110 170 110 251c0 27 -7 88 -7 111c0 48 29 70 56 70c34 0 50 -34 50 -73c0 -109 -127 -361 -260 -533
c-101 -131 -187 -194 -261 -194c-55 0 -91 35 -91 79c0 33 21 56 51 56c54 0 40 -75 78 -75c50 0 167 125 197 211z" />
    <glyph glyph-name="z" unicode="z" horiz-adv-x="519" 
d="M424 408l-264 -253l2 -3c59 0 126 -67 188 -67c38 0 65 21 89 84l34 -13c-27 -98 -99 -166 -177 -166c-92 0 -130 91 -189 91c-56 0 -25 -81 -83 -81c-21 0 -33 11 -33 30c0 25 21 48 66 92l276 267l-2 3c-53 0 -123 84 -180 84c-22 0 -36 -12 -36 -31
c0 -37 51 -29 51 -77c0 -29 -18 -46 -49 -46c-42 0 -67 29 -67 77c0 79 69 141 158 141c99 0 125 -78 174 -78c46 0 35 68 79 68c18 0 29 -12 29 -31c0 -22 -6 -33 -66 -91z" />
    <glyph glyph-name="braceleft" unicode="{" horiz-adv-x="336" 
d="M179 198l-53 -198c-6 -22 -10 -42 -10 -58c0 -35 17 -57 61 -70l-6 -22c-103 0 -146 19 -146 82c0 20 4 43 12 72l53 196c5 18 8 37 8 54c0 39 -16 72 -62 76l7 25c80 15 102 53 123 129l48 175c35 127 75 171 218 171l-6 -23c-66 -16 -98 -56 -117 -127l-48 -179
c-22 -82 -50 -138 -140 -156l-1 -5c52 -10 70 -34 70 -74c0 -19 -4 -42 -11 -68z" />
    <glyph glyph-name="bar" unicode="|" horiz-adv-x="350" 
d="M127 820h80v-1070h-80v1070z" />
    <glyph glyph-name="braceright" unicode="}" horiz-adv-x="336" 
d="M41 0l53 198c21 80 52 128 137 142l1 5c-52 11 -69 39 -69 79c0 22 5 48 13 77l48 179c6 22 9 40 9 57c0 36 -17 59 -56 70l6 23c103 0 141 -23 141 -84c0 -24 -6 -52 -15 -87l-48 -175c-7 -25 -11 -45 -11 -62c0 -36 18 -57 66 -67l-7 -25c-70 -6 -108 -70 -124 -130
l-53 -196c-33 -121 -84 -154 -217 -154l6 22c71 19 101 56 120 128z" />
    <glyph glyph-name="asciitilde" unicode="~" horiz-adv-x="533" 
d="M104 249h-34c11 66 55 114 104 114c26 0 58 -6 112 -24c48 -16 73 -22 94 -22c22 0 34 12 43 42h33c-3 -27 -15 -57 -32 -82c-21 -25 -41 -36 -65 -36s-49 7 -106 25c-64 20 -86 23 -107 23s-33 -11 -42 -40z" />
    <glyph glyph-name="uni00A0" unicode="&#xa0;" horiz-adv-x="275" 
 />
    <glyph glyph-name="exclamdown" unicode="&#xa1;" horiz-adv-x="318" 
d="M192 563h34l-47 -455c-9 -85 -29 -118 -75 -118c-37 0 -55 22 -55 75c0 50 16 91 64 211c37 93 68 214 79 287zM237 780c33 0 62 -25 62 -61s-27 -65 -63 -65s-63 30 -63 64c0 35 29 62 64 62z" />
    <glyph glyph-name="cent" unicode="&#xa2;" horiz-adv-x="468" 
d="M346 181l35 -20c-53 -106 -126 -166 -206 -170l-44 -138h-52l45 143c-63 17 -102 75 -102 157c0 164 140 354 272 383l54 162h52l-52 -159c52 -8 90 -44 90 -90c0 -33 -22 -56 -52 -56s-52 22 -52 50c0 17 8 27 8 36s-8 14 -24 14c-89 0 -191 -182 -191 -341
c0 -64 26 -103 70 -103c47 0 109 56 149 132z" />
    <glyph glyph-name="sterling" unicode="&#xa3;" horiz-adv-x="682" 
d="M511 780c100 0 164 -41 164 -105c0 -55 -35 -94 -84 -94c-16 0 -36 5 -42 12c12 9 25 46 25 72c0 43 -27 64 -81 64c-94 0 -146 -70 -146 -195v-103h217l-14 -50h-204c0 -96 -34 -204 -86 -270c49 -13 119 -22 162 -22c67 0 118 21 167 69l9 -4
c-29 -109 -93 -164 -192 -164c-54 0 -99 17 -186 69c-37 -41 -101 -69 -157 -69c-53 0 -81 24 -81 68c0 61 55 107 126 107c35 0 71 -12 103 -33c19 41 26 79 26 144c0 52 -1 80 -4 105h-139l14 50h120v39c0 180 119 310 283 310zM181 83c-33 18 -58 26 -80 26
c-31 0 -53 -16 -53 -39c0 -17 13 -25 40 -25c33 0 64 13 93 38z" />
    <glyph glyph-name="currency" unicode="&#xa4;" horiz-adv-x="697" 
d="M94 57l71 71c-30 37 -47 83 -47 135s16 98 47 136l-72 72l35 35l72 -72c37 30 83 47 135 47s97 -17 135 -47l72 72l35 -35l-72 -72c31 -38 48 -84 48 -136s-17 -98 -47 -135l71 -71l-35 -35l-71 71c-38 -31 -84 -47 -136 -47c-53 0 -99 17 -136 48l-71 -71zM168 263
c0 -92 75 -167 167 -167s168 75 168 167s-76 168 -168 168s-167 -76 -167 -168z" />
    <glyph glyph-name="yen" unicode="&#xa5;" horiz-adv-x="765" 
d="M638 243l-14 -50h-176l-6 -25c-8 -29 -12 -52 -12 -70c0 -45 30 -58 101 -58l-12 -40h-339l11 40c86 0 119 19 145 118l9 35h-175l14 50h174l24 93h-171l14 50h136l-99 238c-40 96 -57 106 -123 106l11 40h281l-11 -40c-50 0 -71 -9 -71 -35c0 -9 2 -22 8 -36l107 -258
l139 203c29 42 41 59 41 83c0 28 -28 43 -74 43l11 40h247l-11 -40c-54 0 -67 -14 -114 -81l-187 -263h163l-14 -50h-179l-25 -93h177z" />
    <glyph glyph-name="brokenbar" unicode="&#xa6;" horiz-adv-x="338" 
d="M122 750h80v-385h-80v385zM122 205h80v-385h-80v385z" />
    <glyph glyph-name="section" unicode="&#xa7;" horiz-adv-x="621" 
d="M121 -47c0 -57 19 -80 48 -80c46 0 68 45 68 129c0 136 -104 381 -104 527c0 221 169 301 309 301c88 0 171 -49 171 -132c0 -42 -23 -70 -56 -70c-26 0 -55 12 -55 65c0 11 3 26 3 39c0 32 -14 58 -60 58c-33 0 -64 -29 -64 -97c0 -154 121 -386 121 -561
c0 -225 -185 -305 -321 -305c-97 0 -182 44 -182 131c0 43 25 70 65 70c39 0 57 -23 57 -75zM401 89c0 143 -102 393 -102 532c0 68 2 104 45 150c-78 -37 -111 -94 -111 -182c0 -136 97 -394 97 -553c0 -74 -14 -120 -67 -158c97 24 138 102 138 211z" />
    <glyph glyph-name="dieresis" unicode="&#xa8;" horiz-adv-x="323" 
d="M19 709c8 33 40 58 73 58c28 0 45 -18 45 -43c0 -40 -39 -73 -76 -73c-27 0 -44 17 -44 42c0 5 0 10 2 16zM186 709c8 33 40 58 73 58c28 0 45 -18 45 -43c0 -40 -39 -73 -76 -73c-27 0 -44 17 -44 42c0 5 0 10 2 16z" />
    <glyph glyph-name="copyright" unicode="&#xa9;" horiz-adv-x="918" 
d="M865 386c0 -220 -174 -396 -389 -396c-213 0 -385 178 -385 395s171 395 384 395c216 0 390 -175 390 -394zM817 386c0 193 -153 346 -342 346c-188 0 -336 -157 -336 -347c0 -191 149 -347 337 -347s341 156 341 348zM618 305h33c-19 -88 -74 -148 -173 -148
c-133 0 -218 86 -218 218c0 139 91 234 224 234c44 0 80 -12 126 -41l10 35h21l5 -131h-26c-16 60 -66 97 -131 97c-90 0 -142 -71 -142 -190c0 -117 51 -181 144 -181c65 0 108 37 127 107z" />
    <glyph glyph-name="ordfeminine" unicode="&#xaa;" horiz-adv-x="379" 
d="M293 749c-45 0 -102 -100 -102 -160c0 -27 11 -42 27 -42c43 0 97 114 97 171c0 23 -9 31 -22 31zM339 748l11 27h51l-28 -76c-18 -49 -37 -116 -37 -137c0 -7 2 -14 9 -14c11 0 28 20 50 51l13 -15c-30 -48 -69 -77 -99 -77c-17 0 -26 9 -26 31c0 7 1 17 2 28h-4
c-18 -34 -55 -59 -90 -59c-36 0 -62 26 -62 74c0 88 90 199 166 199c23 0 36 -10 44 -32z" />
    <glyph glyph-name="guillemotleft" unicode="&#xab;" horiz-adv-x="478" 
d="M157 104l-128 158l213 159l14 -21l-136 -138l61 -138zM328 104l-128 158l213 159l14 -21l-136 -138l61 -138z" />
    <glyph glyph-name="logicalnot" unicode="&#xac;" horiz-adv-x="676" 
d="M504 110v203h-408v50h458v-253h-50z" />
    <glyph glyph-name="uni00AD" unicode="&#xad;" horiz-adv-x="488" 
d="M390 248h-309v83h309v-83z" />
    <glyph glyph-name="registered" unicode="&#xae;" horiz-adv-x="918" 
d="M865 386c0 -220 -174 -396 -389 -396c-213 0 -385 178 -385 395s171 395 384 395c216 0 390 -175 390 -394zM817 386c0 193 -153 346 -342 346c-188 0 -336 -157 -336 -347c0 -191 149 -347 337 -347s341 156 341 348zM626 507c0 -60 -33 -102 -108 -114l124 -150
c19 -23 37 -33 67 -38v-22h-108l-138 171c-18 25 -28 29 -60 29v-112c0 -54 8 -66 72 -66v-22h-198v22c48 2 56 12 56 63v259c0 51 -7 61 -50 63v25h175c107 0 168 -41 168 -108zM403 576v-160h40c67 0 100 26 100 88c0 59 -26 81 -85 81h-46c-7 0 -9 -4 -9 -9z" />
    <glyph glyph-name="macron" unicode="&#xaf;" horiz-adv-x="310" 
d="M283 702h-270l13 50h270z" />
    <glyph glyph-name="degree" unicode="&#xb0;" horiz-adv-x="342" 
d="M139 660c0 66 54 120 120 120s120 -54 120 -120s-54 -120 -120 -120s-120 54 -120 120zM169 660c0 -49 41 -90 90 -90s89 41 89 90s-40 89 -89 89s-90 -40 -90 -89z" />
    <glyph glyph-name="plusminus" unicode="&#xb1;" horiz-adv-x="659" 
d="M351 234h-52v209h-208v50h208v209h52v-209h208v-50h-208v-209zM559 145v-50h-468v50h468z" />
    <glyph glyph-name="twosuperior" unicode="&#xb2;" horiz-adv-x="282" 
d="M163 511v-4h72c26 0 38 7 53 30h19l-25 -69h-185l3 21c134 107 181 164 181 219c0 28 -17 46 -45 46c-31 0 -56 -22 -56 -49c0 -24 14 -38 38 -38c-5 -14 -18 -22 -35 -22c-29 0 -48 20 -48 50c0 47 49 86 109 86c54 0 89 -30 89 -74c0 -54 -48 -112 -170 -196z" />
    <glyph glyph-name="threesuperior" unicode="&#xb3;" horiz-adv-x="287" 
d="M258 556c0 35 -19 62 -45 62c-9 0 -23 -3 -31 -3c-9 0 -13 3 -13 8c0 36 107 -1 107 87c0 31 -12 45 -36 45c-28 0 -48 -16 -48 -37c0 -16 9 -26 25 -26c-4 -9 -15 -15 -27 -15c-24 0 -39 15 -39 37c0 38 39 66 92 66c50 0 82 -24 82 -62c0 -37 -32 -73 -73 -82v-4
c37 -9 58 -36 58 -70c0 -54 -55 -98 -124 -98c-52 0 -88 25 -88 62c0 30 25 56 54 56c14 0 26 -8 28 -18c-20 0 -37 -19 -37 -42c0 -21 17 -32 46 -32c41 0 69 26 69 66z" />
    <glyph glyph-name="acute" unicode="&#xb4;" horiz-adv-x="275" 
d="M67 651h-47l130 119c25 23 46 33 67 33c23 0 38 -13 38 -35c0 -21 -19 -37 -51 -52z" />
    <glyph glyph-name="mu" unicode="&#xb5;" horiz-adv-x="685" 
d="M143 268c32 99 41 135 41 160c0 14 -4 21 -11 21c-16 0 -48 -29 -93 -84l-26 14c43 85 134 161 193 161c31 0 50 -21 50 -55c0 -31 -5 -48 -66 -226c-22 -65 -35 -122 -35 -155c0 -29 9 -42 27 -42c51 0 141 124 194 268l74 200h93l-74 -229c-44 -136 -58 -186 -58 -210
c0 -17 6 -26 17 -26c28 0 79 56 105 116l30 -15c-40 -99 -121 -176 -185 -176c-37 0 -52 26 -52 91c0 20 2 38 5 57l-3 3c-43 -97 -97 -151 -151 -151c-31 0 -52 12 -63 36l-3 -1l-34 -206c-9 -54 -29 -79 -67 -79c-31 0 -45 15 -45 50c0 12 2 25 6 41c16 65 83 288 131 437
z" />
    <glyph glyph-name="paragraph" unicode="&#xb6;" horiz-adv-x="548" 
d="M480 573l-126 -500c-68 -271 -136 -333 -250 -333c-55 0 -96 33 -96 76c0 33 18 54 49 54c56 0 30 -70 82 -70c31 0 57 35 71 87l116 449c-14 -3 -29 -4 -43 -4c-91 0 -181 51 -181 169c0 171 141 269 334 269h166l-10 -38c-61 0 -75 -10 -112 -159z" />
    <glyph glyph-name="periodcentered" unicode="&#xb7;" horiz-adv-x="275" 
d="M61 274c0 37 29 66 65 66c37 0 66 -29 66 -66c0 -36 -29 -65 -66 -65c-36 0 -65 29 -65 65z" />
    <glyph glyph-name="cedilla" unicode="&#xb8;" horiz-adv-x="232" 
d="M190 12l-54 -84c67 0 104 -22 104 -63c0 -69 -77 -125 -152 -125c-59 0 -99 27 -99 63c0 28 18 49 41 49c33 0 13 -69 60 -69c32 0 65 27 65 63c0 27 -24 41 -67 41c-13 0 -29 -1 -35 -2l-1 3l85 124h53z" />
    <glyph glyph-name="onesuperior" unicode="&#xb9;" horiz-adv-x="273" 
d="M287 780l-51 -200c-5 -20 -10 -41 -10 -56c0 -21 10 -35 42 -35l-5 -21h-153l5 21c38 0 55 13 66 56l40 159c1 2 1 5 1 6c0 4 -2 6 -6 6c-9 0 -28 -7 -58 -7l7 22c44 0 74 23 102 49h20z" />
    <glyph glyph-name="ordmasculine" unicode="&#xba;" horiz-adv-x="338" 
d="M224 507c-49 0 -91 38 -91 100c0 86 75 173 153 173c54 0 92 -37 92 -95c0 -83 -77 -178 -154 -178zM232 537c41 0 83 98 83 168c0 36 -13 47 -34 47c-41 0 -81 -94 -81 -165c0 -36 14 -50 32 -50z" />
    <glyph glyph-name="guillemotright" unicode="&#xbb;" horiz-adv-x="478" 
d="M421 262l-212 -158l-14 20l135 138l-62 138l26 21zM250 262l-212 -158l-14 20l135 138l-62 138l26 21z" />
    <glyph glyph-name="onequarter" unicode="&#xbc;" horiz-adv-x="634" 
d="M668 770l-614 -770h-67l623 770h58zM286 780l-51 -200c-5 -20 -10 -41 -10 -56c0 -21 10 -35 42 -35l-5 -21h-153l5 21c38 0 55 13 66 56l40 159c1 2 1 5 1 6c0 4 -2 6 -6 6c-9 0 -28 -7 -58 -7l7 22c44 0 74 23 102 49h20zM542 312l-44 -174h49l-6 -24h-49l-33 -114h-42
l29 114h-118l5 20l186 178h23zM370 138h83l29 105l-3 1z" />
    <glyph glyph-name="onehalf" unicode="&#xbd;" horiz-adv-x="656" 
d="M669 770l-614 -770h-67l623 770h58zM287 780l-51 -200c-5 -20 -10 -41 -10 -56c0 -21 10 -35 42 -35l-5 -21h-153l5 21c38 0 55 13 66 56l40 159c1 2 1 5 1 6c0 4 -2 6 -6 6c-9 0 -28 -7 -58 -7l7 22c44 0 74 23 102 49h20zM408 43v-4h72c26 0 38 7 53 30h19l-25 -69
h-185l3 21c134 107 181 164 181 219c0 28 -17 46 -45 46c-31 0 -56 -22 -56 -49c0 -24 14 -38 38 -38c-5 -14 -18 -22 -35 -22c-29 0 -48 20 -48 50c0 47 49 86 109 86c54 0 89 -30 89 -74c0 -54 -47 -110 -170 -196z" />
    <glyph glyph-name="threequarters" unicode="&#xbe;" horiz-adv-x="660" 
d="M694 770l-614 -770h-67l623 770h58zM568 312l-44 -174h49l-6 -24h-49l-33 -114h-42l29 114h-118l5 20l186 178h23zM396 138h83l29 105l-3 1zM266 556c0 35 -19 62 -45 62c-9 0 -23 -3 -31 -3c-9 0 -13 3 -13 8c0 36 107 -1 107 87c0 31 -12 45 -36 45
c-28 0 -48 -16 -48 -37c0 -16 9 -26 25 -26c-4 -9 -15 -15 -27 -15c-24 0 -39 15 -39 37c0 38 39 66 92 66c50 0 82 -24 82 -62c0 -37 -32 -73 -73 -82v-4c37 -9 58 -36 58 -70c0 -54 -55 -98 -124 -98c-52 0 -88 25 -88 62c0 30 25 56 54 56c14 0 26 -8 28 -18
c-20 0 -37 -19 -37 -42c0 -21 17 -32 46 -32c41 0 69 26 69 66z" />
    <glyph glyph-name="questiondown" unicode="&#xbf;" horiz-adv-x="470" 
d="M312 781c35 0 62 -27 62 -62c0 -36 -28 -64 -63 -64s-63 29 -63 64c0 34 28 62 64 62zM365 481c0 -190 -280 -211 -280 -348c0 -55 45 -95 108 -95c56 0 99 31 99 73c0 54 -70 20 -70 78c0 31 21 49 55 49c54 0 96 -44 96 -101c0 -81 -83 -147 -185 -147
c-101 0 -167 64 -167 160c0 202 290 237 290 347c0 26 -16 40 -46 40c-32 0 -55 -16 -74 -51l-27 16c26 53 63 78 111 78c58 0 90 -35 90 -99z" />
    <glyph glyph-name="Agrave" unicode="&#xc0;" 
d="M690 780l-139 -614c-8 -35 -12 -61 -12 -77c0 -39 20 -49 93 -49l-10 -40h-296l10 40c78 0 95 18 119 127l27 123h-215l-63 -66c-109 -114 -118 -134 -118 -150c0 -25 20 -34 75 -34l-10 -40h-259l10 40c63 0 120 45 243 191l461 549h84zM310 340h181l82 310h-4zM702 850
h-60l-113 28c-38 9 -63 23 -63 41c0 25 26 41 48 41c27 0 47 -11 78 -33z" />
    <glyph glyph-name="Aacute" unicode="&#xc1;" 
d="M690 780l-139 -614c-8 -35 -12 -61 -12 -77c0 -39 20 -49 93 -49l-10 -40h-296l10 40c78 0 95 18 119 127l27 123h-215l-63 -66c-109 -114 -118 -134 -118 -150c0 -25 20 -34 75 -34l-10 -40h-259l10 40c63 0 120 45 243 191l461 549h84zM310 340h181l82 310h-4zM685 850
h-60l150 77c43 22 69 33 96 33c19 0 30 -9 30 -25c0 -27 -32 -45 -89 -57z" />
    <glyph glyph-name="Acircumflex" unicode="&#xc2;" 
d="M690 780l-139 -614c-8 -35 -12 -61 -12 -77c0 -39 20 -49 93 -49l-10 -40h-296l10 40c78 0 95 18 119 127l27 123h-215l-63 -66c-109 -114 -118 -134 -118 -150c0 -25 20 -34 75 -34l-10 -40h-259l10 40c63 0 120 45 243 191l461 549h84zM310 340h181l82 310h-4zM647 960
h110l80 -109h-45l-105 54l-133 -54h-45z" />
    <glyph glyph-name="Atilde" unicode="&#xc3;" 
d="M690 780l-139 -614c-8 -35 -12 -61 -12 -77c0 -39 20 -49 93 -49l-10 -40h-296l10 40c78 0 95 18 119 127l27 123h-215l-63 -66c-109 -114 -118 -134 -118 -150c0 -25 20 -34 75 -34l-10 -40h-259l10 40c63 0 120 45 243 191l461 549h84zM310 340h181l82 310h-4zM547 846
h-34c11 67 54 114 105 114c60 0 111 -46 159 -46c22 0 35 12 44 42h33c-7 -60 -46 -118 -99 -118c-59 0 -122 48 -166 48c-22 0 -33 -11 -42 -40z" />
    <glyph glyph-name="Adieresis" unicode="&#xc4;" 
d="M690 780l-139 -614c-8 -35 -12 -61 -12 -77c0 -39 20 -49 93 -49l-10 -40h-296l10 40c78 0 95 18 119 127l27 123h-215l-63 -66c-109 -114 -118 -134 -118 -150c0 -25 20 -34 75 -34l-10 -40h-259l10 40c63 0 120 45 243 191l461 549h84zM310 340h181l82 310h-4zM551 910
c7 28 35 50 63 50c24 0 40 -16 40 -37c0 -35 -35 -64 -67 -64c-23 0 -38 15 -38 36c0 5 0 10 2 15zM733 910c7 28 35 50 64 50c23 0 39 -16 39 -37c0 -35 -35 -64 -66 -64c-24 0 -39 15 -39 36c0 5 0 10 2 15z" />
    <glyph glyph-name="Aring" unicode="&#xc5;" 
d="M690 780l-139 -614c-8 -35 -12 -61 -12 -77c0 -39 20 -49 93 -49l-10 -40h-296l10 40c78 0 95 18 119 127l27 123h-215l-63 -66c-109 -114 -118 -134 -118 -150c0 -25 20 -34 75 -34l-10 -40h-259l10 40c63 0 120 45 243 191l461 549h84zM310 340h181l82 310h-4zM616 878
c0 42 41 82 85 82c30 0 50 -19 50 -49c0 -42 -42 -81 -86 -81c-30 0 -49 19 -49 48zM692 928c-23 0 -44 -21 -44 -43c0 -15 10 -24 25 -24c23 0 45 20 45 42c0 15 -10 25 -26 25z" />
    <glyph glyph-name="AE" unicode="&#xc6;" horiz-adv-x="1071" 
d="M928 0h-579l10 40c78 0 95 18 119 127l27 123h-215l-63 -66c-109 -114 -118 -134 -118 -150c0 -25 20 -34 75 -34l-10 -40h-259l10 40c63 0 120 45 243 191l374 446c10 12 16 21 16 29c0 17 -31 24 -108 24l11 40h576v-202h-38c-34 127 -84 158 -168 158h-130l-68 -297
h53c71 0 97 22 139 114h37l-60 -296h-40c2 20 3 37 3 52c0 59 -19 86 -80 86h-62l-49 -219c-8 -35 -12 -61 -12 -77c0 -32 30 -46 124 -46c153 0 218 44 273 168h47zM333 340h181l82 310h-4z" />
    <glyph glyph-name="Ccedilla" unicode="&#xc7;" horiz-adv-x="728" 
d="M665 189c-81 -125 -156 -184 -256 -196l-41 -65c67 0 104 -22 104 -63c0 -69 -77 -125 -152 -125c-59 0 -99 27 -99 63c0 28 18 49 41 49c33 0 13 -69 60 -69c32 0 65 27 65 63c0 27 -24 41 -67 41c-13 0 -29 -1 -35 -2l-1 3l70 102c-174 5 -281 124 -281 311
c0 253 200 479 425 479c64 0 121 -19 180 -60l37 50h37l-46 -251h-38c-10 144 -60 209 -162 209c-175 0 -312 -188 -312 -428c0 -164 66 -248 193 -248c96 0 171 50 242 161z" />
    <glyph glyph-name="Egrave" unicode="&#xc8;" horiz-adv-x="740" 
d="M-26 0l11 40c88 0 109 23 134 118l116 441c9 34 14 59 14 78c0 44 -28 53 -100 53l11 40h546v-202h-38c-34 127 -84 158 -168 158h-130l-78 -297h63c71 0 97 22 139 114h37l-60 -296h-40c2 20 3 37 3 52c0 59 -19 86 -80 86h-75l-57 -215c-6 -22 -9 -40 -9 -56
c0 -48 38 -71 142 -71c153 0 218 44 273 168h47l-78 -211h-623zM584 850h-60l-113 28c-38 9 -63 23 -63 41c0 25 26 41 48 41c27 0 47 -11 78 -33z" />
    <glyph glyph-name="Eacute" unicode="&#xc9;" horiz-adv-x="740" 
d="M-26 0l11 40c88 0 109 23 134 118l116 441c9 34 14 59 14 78c0 44 -28 53 -100 53l11 40h546v-202h-38c-34 127 -84 158 -168 158h-130l-78 -297h63c71 0 97 22 139 114h37l-60 -296h-40c2 20 3 37 3 52c0 59 -19 86 -80 86h-75l-57 -215c-6 -22 -9 -40 -9 -56
c0 -48 38 -71 142 -71c153 0 218 44 273 168h47l-78 -211h-623zM438 850h-60l150 77c43 22 69 33 96 33c19 0 30 -9 30 -25c0 -27 -32 -45 -89 -57z" />
    <glyph glyph-name="Ecircumflex" unicode="&#xca;" horiz-adv-x="740" 
d="M-26 0l11 40c88 0 109 23 134 118l116 441c9 34 14 59 14 78c0 44 -28 53 -100 53l11 40h546v-202h-38c-34 127 -84 158 -168 158h-130l-78 -297h63c71 0 97 22 139 114h37l-60 -296h-40c2 20 3 37 3 52c0 59 -19 86 -80 86h-75l-57 -215c-6 -22 -9 -40 -9 -56
c0 -48 38 -71 142 -71c153 0 218 44 273 168h47l-78 -211h-623zM452 960h110l80 -109h-45l-105 54l-133 -54h-45z" />
    <glyph glyph-name="Edieresis" unicode="&#xcb;" horiz-adv-x="740" 
d="M-26 0l11 40c88 0 109 23 134 118l116 441c9 34 14 59 14 78c0 44 -28 53 -100 53l11 40h546v-202h-38c-34 127 -84 158 -168 158h-130l-78 -297h63c71 0 97 22 139 114h37l-60 -296h-40c2 20 3 37 3 52c0 59 -19 86 -80 86h-75l-57 -215c-6 -22 -9 -40 -9 -56
c0 -48 38 -71 142 -71c153 0 218 44 273 168h47l-78 -211h-623zM352 910c7 28 35 50 63 50c24 0 40 -16 40 -37c0 -35 -35 -64 -67 -64c-23 0 -38 15 -38 36c0 5 0 10 2 15zM534 910c7 28 35 50 64 50c23 0 39 -16 39 -37c0 -35 -35 -64 -66 -64c-24 0 -39 15 -39 36
c0 5 0 10 2 15z" />
    <glyph glyph-name="Igrave" unicode="&#xcc;" horiz-adv-x="420" 
d="M329 566l-105 -398c-8 -29 -12 -52 -12 -70c0 -45 27 -58 91 -58l-12 -40h-319l11 40c79 0 109 20 135 118l117 442c10 37 15 63 15 82c0 41 -27 48 -99 48l11 40h325l-11 -40c-88 0 -111 -28 -147 -164zM442 850h-60l-113 28c-38 9 -63 23 -63 41c0 25 26 41 48 41
c27 0 47 -11 78 -33z" />
    <glyph glyph-name="Iacute" unicode="&#xcd;" horiz-adv-x="420" 
d="M329 566l-105 -398c-8 -29 -12 -52 -12 -70c0 -45 27 -58 91 -58l-12 -40h-319l11 40c79 0 109 20 135 118l117 442c10 37 15 63 15 82c0 41 -27 48 -99 48l11 40h325l-11 -40c-88 0 -111 -28 -147 -164zM296 850h-60l150 77c43 22 69 33 96 33c19 0 30 -9 30 -25
c0 -27 -32 -45 -89 -57z" />
    <glyph glyph-name="Icircumflex" unicode="&#xce;" horiz-adv-x="420" 
d="M329 566l-105 -398c-8 -29 -12 -52 -12 -70c0 -45 27 -58 91 -58l-12 -40h-319l11 40c79 0 109 20 135 118l117 442c10 37 15 63 15 82c0 41 -27 48 -99 48l11 40h325l-11 -40c-88 0 -111 -28 -147 -164zM318 960h110l80 -109h-45l-105 54l-133 -54h-45z" />
    <glyph glyph-name="Idieresis" unicode="&#xcf;" horiz-adv-x="420" 
d="M329 566l-105 -398c-8 -29 -12 -52 -12 -70c0 -45 27 -58 91 -58l-12 -40h-319l11 40c79 0 109 20 135 118l117 442c10 37 15 63 15 82c0 41 -27 48 -99 48l11 40h325l-11 -40c-88 0 -111 -28 -147 -164zM226 910c7 28 35 50 63 50c24 0 40 -16 40 -37
c0 -35 -35 -64 -67 -64c-23 0 -38 15 -38 36c0 5 0 10 2 15zM408 910c7 28 35 50 64 50c23 0 39 -16 39 -37c0 -35 -35 -64 -66 -64c-24 0 -39 15 -39 36c0 5 0 10 2 15z" />
    <glyph glyph-name="Eth" unicode="&#xd0;" horiz-adv-x="839" 
d="M155 730l13 40h271c91 0 182 -19 252 -77c75 -62 109 -153 109 -246c0 -121 -58 -246 -139 -326c-93 -92 -208 -121 -337 -121h-350l11 40c86 0 108 15 135 118l54 208h-93l13 50h93l48 184c5 18 22 65 22 88c0 39 -50 42 -83 42h-19zM358 669l-68 -253h114l-13 -50h-115
l-36 -135c-22 -81 -25 -99 -25 -113c0 -71 71 -74 100 -74c261 0 369 235 369 413c0 167 -96 263 -253 263c-39 0 -61 -6 -73 -51z" />
    <glyph glyph-name="Ntilde" unicode="&#xd1;" horiz-adv-x="842" 
d="M620 0h-40l-262 602h-4l-114 -434c-4 -16 -6 -30 -6 -43c0 -55 36 -84 95 -85l-12 -40h-286l11 40c62 0 117 50 135 118l118 444c3 11 4 21 4 31c0 63 -59 96 -147 97l12 40h235l250 -573h4l106 405c3 13 5 26 5 37c0 57 -37 90 -84 91l12 40h256l-11 -40
c-51 0 -97 -50 -115 -118zM420 846h-34c11 67 54 114 105 114c60 0 111 -46 159 -46c22 0 35 12 44 42h33c-7 -60 -46 -118 -99 -118c-59 0 -122 48 -166 48c-22 0 -33 -11 -42 -40z" />
    <glyph glyph-name="Ograve" unicode="&#xd2;" horiz-adv-x="820" 
d="M505 780c170 0 279 -121 279 -311c0 -257 -199 -479 -428 -479c-171 0 -282 124 -282 313c0 255 201 477 431 477zM505 728c-174 0 -310 -188 -310 -428c0 -169 61 -256 175 -256c168 0 293 190 293 452c0 159 -50 232 -158 232zM625 850h-60l-113 28
c-38 9 -63 23 -63 41c0 25 26 41 48 41c27 0 47 -11 78 -33z" />
    <glyph glyph-name="Oacute" unicode="&#xd3;" horiz-adv-x="820" 
d="M505 780c170 0 279 -121 279 -311c0 -257 -199 -479 -428 -479c-171 0 -282 124 -282 313c0 255 201 477 431 477zM505 728c-174 0 -310 -188 -310 -428c0 -169 61 -256 175 -256c168 0 293 190 293 452c0 159 -50 232 -158 232zM479 850h-60l150 77c43 22 69 33 96 33
c19 0 30 -9 30 -25c0 -27 -32 -45 -89 -57z" />
    <glyph glyph-name="Ocircumflex" unicode="&#xd4;" horiz-adv-x="820" 
d="M505 780c170 0 279 -121 279 -311c0 -257 -199 -479 -428 -479c-171 0 -282 124 -282 313c0 255 201 477 431 477zM505 728c-174 0 -310 -188 -310 -428c0 -169 61 -256 175 -256c168 0 293 190 293 452c0 159 -50 232 -158 232zM509 960h110l80 -109h-45l-105 54
l-133 -54h-45z" />
    <glyph glyph-name="Otilde" unicode="&#xd5;" horiz-adv-x="820" 
d="M505 780c170 0 279 -121 279 -311c0 -257 -199 -479 -428 -479c-171 0 -282 124 -282 313c0 255 201 477 431 477zM505 728c-174 0 -310 -188 -310 -428c0 -169 61 -256 175 -256c168 0 293 190 293 452c0 159 -50 232 -158 232zM415 846h-34c11 67 54 114 105 114
c60 0 111 -46 159 -46c22 0 35 12 44 42h33c-7 -60 -46 -118 -99 -118c-59 0 -122 48 -166 48c-22 0 -33 -11 -42 -40z" />
    <glyph glyph-name="Odieresis" unicode="&#xd6;" horiz-adv-x="820" 
d="M505 780c170 0 279 -121 279 -311c0 -257 -199 -479 -428 -479c-171 0 -282 124 -282 313c0 255 201 477 431 477zM505 728c-174 0 -310 -188 -310 -428c0 -169 61 -256 175 -256c168 0 293 190 293 452c0 159 -50 232 -158 232zM418 910c7 28 35 50 63 50
c24 0 40 -16 40 -37c0 -35 -35 -64 -67 -64c-23 0 -38 15 -38 36c0 5 0 10 2 15zM600 910c7 28 35 50 64 50c23 0 39 -16 39 -37c0 -35 -35 -64 -66 -64c-24 0 -39 15 -39 36c0 5 0 10 2 15z" />
    <glyph glyph-name="multiply" unicode="&#xd7;" horiz-adv-x="543" 
d="M119 147l-37 37l155 155l-154 154l35 35l154 -154l155 155l37 -37l-155 -155l154 -154l-35 -35l-154 154z" />
    <glyph glyph-name="Oslash" unicode="&#xd8;" horiz-adv-x="820" 
d="M505 780c65 0 121 -18 166 -51l78 99h69l-107 -135c47 -54 73 -131 73 -224c0 -257 -199 -479 -428 -479c-63 0 -119 16 -163 47l-78 -99h-68l106 135c-50 54 -79 134 -79 230c0 255 201 477 431 477zM505 728c-174 0 -310 -188 -310 -428c0 -59 7 -108 22 -147l408 518
c-26 38 -66 57 -120 57zM663 496c0 47 -5 86 -14 119l-405 -513c30 -38 72 -58 126 -58c168 0 293 190 293 452z" />
    <glyph glyph-name="Ugrave" unicode="&#xd9;" horiz-adv-x="808" 
d="M134 353l66 246c7 27 13 58 13 77c0 40 -25 54 -94 54l13 40h319l-11 -40c-95 0 -111 -20 -148 -165l-65 -251c-9 -34 -13 -66 -13 -94c0 -106 56 -174 161 -174c132 0 202 104 247 244c41 128 80 334 80 380c0 40 -40 57 -102 60l12 40h263l-12 -40
c-65 0 -84 -18 -110 -138l-43 -200c-57 -264 -171 -402 -343 -402c-169 0 -253 83 -253 229c0 42 7 85 20 134zM634 850h-60l-113 28c-38 9 -63 23 -63 41c0 25 26 41 48 41c27 0 47 -11 78 -33z" />
    <glyph glyph-name="Uacute" unicode="&#xda;" horiz-adv-x="808" 
d="M134 353l66 246c7 27 13 58 13 77c0 40 -25 54 -94 54l13 40h319l-11 -40c-95 0 -111 -20 -148 -165l-65 -251c-9 -34 -13 -66 -13 -94c0 -106 56 -174 161 -174c132 0 202 104 247 244c41 128 80 334 80 380c0 40 -40 57 -102 60l12 40h263l-12 -40
c-65 0 -84 -18 -110 -138l-43 -200c-57 -264 -171 -402 -343 -402c-169 0 -253 83 -253 229c0 42 7 85 20 134zM488 850h-60l150 77c43 22 69 33 96 33c19 0 30 -9 30 -25c0 -27 -32 -45 -89 -57z" />
    <glyph glyph-name="Ucircumflex" unicode="&#xdb;" horiz-adv-x="808" 
d="M134 353l66 246c7 27 13 58 13 77c0 40 -25 54 -94 54l13 40h319l-11 -40c-95 0 -111 -20 -148 -165l-65 -251c-9 -34 -13 -66 -13 -94c0 -106 56 -174 161 -174c132 0 202 104 247 244c41 128 80 334 80 380c0 40 -40 57 -102 60l12 40h263l-12 -40
c-65 0 -84 -18 -110 -138l-43 -200c-57 -264 -171 -402 -343 -402c-169 0 -253 83 -253 229c0 42 7 85 20 134zM502 960h110l80 -109h-45l-105 54l-133 -54h-45z" />
    <glyph glyph-name="Udieresis" unicode="&#xdc;" horiz-adv-x="808" 
d="M134 353l66 246c7 27 13 58 13 77c0 40 -25 54 -94 54l13 40h319l-11 -40c-95 0 -111 -20 -148 -165l-65 -251c-9 -34 -13 -66 -13 -94c0 -106 56 -174 161 -174c132 0 202 104 247 244c41 128 80 334 80 380c0 40 -40 57 -102 60l12 40h263l-12 -40
c-65 0 -84 -18 -110 -138l-43 -200c-57 -264 -171 -402 -343 -402c-169 0 -253 83 -253 229c0 42 7 85 20 134zM402 910c7 28 35 50 63 50c24 0 40 -16 40 -37c0 -35 -35 -64 -67 -64c-23 0 -38 15 -38 36c0 5 0 10 2 15zM584 910c7 28 35 50 64 50c23 0 39 -16 39 -37
c0 -35 -35 -64 -66 -64c-24 0 -39 15 -39 36c0 5 0 10 2 15z" />
    <glyph glyph-name="Yacute" unicode="&#xdd;" horiz-adv-x="689" 
d="M440 348l-47 -180c-8 -29 -12 -52 -12 -70c0 -45 30 -58 101 -58l-12 -40h-339l11 40c86 0 119 19 145 118l46 178l-120 288c-40 96 -57 106 -123 106l11 40h281l-11 -40c-50 0 -71 -9 -71 -35c0 -9 2 -22 8 -36l107 -258l139 203c29 42 41 59 41 83c0 28 -28 43 -74 43
l11 40h247l-11 -40c-54 0 -67 -14 -114 -81zM425 850h-60l150 77c43 22 69 33 96 33c19 0 30 -9 30 -25c0 -27 -32 -45 -89 -57z" />
    <glyph glyph-name="Thorn" unicode="&#xde;" horiz-adv-x="705" 
d="M343 613l-5 -17h109c160 0 241 -57 241 -171c0 -152 -145 -249 -373 -249h-90l-5 -19c-8 -30 -11 -49 -11 -64c0 -43 27 -55 118 -55l-11 -38h-352l11 38c93 3 114 20 139 114l125 466c8 29 11 49 11 64c0 37 -20 48 -91 50l11 38h353l-11 -38c-119 0 -139 -14 -169 -119
zM321 532l-82 -306h71c153 0 251 86 251 220c0 74 -36 103 -127 103h-92c-10 0 -18 -6 -21 -17z" />
    <glyph glyph-name="germandbls" unicode="&#xdf;" horiz-adv-x="586" 
d="M-24 -113l174 699c38 154 128 244 249 244c104 0 168 -56 168 -147c0 -105 -81 -195 -194 -216l-2 -5c96 0 155 -67 155 -174c0 -155 -130 -298 -270 -298c-56 0 -90 24 -90 63c0 35 25 65 54 65c49 0 5 -82 63 -82c74 0 138 112 138 242c0 109 -48 158 -156 158l13 51
c95 0 152 48 181 146c3 22 8 40 8 58c0 63 -32 89 -100 89c-59 0 -89 -52 -122 -188l-125 -519c-58 -239 -126 -333 -240 -333c-66 0 -106 29 -106 77c0 32 19 53 49 53c55 0 32 -70 80 -70c32 0 59 32 73 87z" />
    <glyph glyph-name="agrave" unicode="&#xe0;" horiz-adv-x="570" 
d="M332 488c-102 0 -227 -210 -227 -348c0 -48 22 -79 56 -79c93 0 212 242 212 371c0 35 -16 56 -41 56zM414 474l21 56h83l-57 -153c-38 -101 -74 -242 -74 -286c0 -19 7 -29 19 -29c19 0 56 43 100 104l26 -21c-55 -98 -124 -155 -184 -155c-31 0 -48 22 -48 75
c0 12 1 27 3 53l-4 1c-39 -74 -115 -129 -181 -129c-67 0 -108 55 -108 145c0 184 172 405 316 405c44 0 71 -20 88 -66zM449 651h-47l-119 65c-24 13 -39 27 -39 44c0 27 25 43 49 43c21 0 39 -10 58 -33z" />
    <glyph glyph-name="aacute" unicode="&#xe1;" horiz-adv-x="570" 
d="M332 488c-102 0 -227 -210 -227 -348c0 -48 22 -79 56 -79c93 0 212 242 212 371c0 35 -16 56 -41 56zM414 474l21 56h83l-57 -153c-38 -101 -74 -242 -74 -286c0 -19 7 -29 19 -29c19 0 56 43 100 104l26 -21c-55 -98 -124 -155 -184 -155c-31 0 -48 22 -48 75
c0 12 1 27 3 53l-4 1c-39 -74 -115 -129 -181 -129c-67 0 -108 55 -108 145c0 184 172 405 316 405c44 0 71 -20 88 -66zM327 651h-47l130 119c25 23 46 33 67 33c23 0 38 -13 38 -35c0 -21 -19 -37 -51 -52z" />
    <glyph glyph-name="acircumflex" unicode="&#xe2;" horiz-adv-x="570" 
d="M332 488c-102 0 -227 -210 -227 -348c0 -48 22 -79 56 -79c93 0 212 242 212 371c0 35 -16 56 -41 56zM414 474l21 56h83l-57 -153c-38 -101 -74 -242 -74 -286c0 -19 7 -29 19 -29c19 0 56 43 100 104l26 -21c-55 -98 -124 -155 -184 -155c-31 0 -48 22 -48 75
c0 12 1 27 3 53l-4 1c-39 -74 -115 -129 -181 -129c-67 0 -108 55 -108 145c0 184 172 405 316 405c44 0 71 -20 88 -66zM342 780h90l84 -129h-45l-101 68l-137 -68h-45z" />
    <glyph glyph-name="atilde" unicode="&#xe3;" horiz-adv-x="570" 
d="M332 488c-102 0 -227 -210 -227 -348c0 -48 22 -79 56 -79c93 0 212 242 212 371c0 35 -16 56 -41 56zM414 474l21 56h83l-57 -153c-38 -101 -74 -242 -74 -286c0 -19 7 -29 19 -29c19 0 56 43 100 104l26 -21c-55 -98 -124 -155 -184 -155c-31 0 -48 22 -48 75
c0 12 1 27 3 53l-4 1c-39 -74 -115 -129 -181 -129c-67 0 -108 55 -108 145c0 184 172 405 316 405c44 0 71 -20 88 -66zM233 660h-34c11 67 54 114 105 114c20 0 47 -7 86 -24s56 -22 73 -22c22 0 35 12 44 42h33c-3 -27 -16 -61 -32 -82c-17 -23 -41 -36 -67 -36
c-18 0 -37 6 -84 25c-45 17 -66 23 -82 23c-22 0 -33 -11 -42 -40z" />
    <glyph glyph-name="adieresis" unicode="&#xe4;" horiz-adv-x="570" 
d="M332 488c-102 0 -227 -210 -227 -348c0 -48 22 -79 56 -79c93 0 212 242 212 371c0 35 -16 56 -41 56zM414 474l21 56h83l-57 -153c-38 -101 -74 -242 -74 -286c0 -19 7 -29 19 -29c19 0 56 43 100 104l26 -21c-55 -98 -124 -155 -184 -155c-31 0 -48 22 -48 75
c0 12 1 27 3 53l-4 1c-39 -74 -115 -129 -181 -129c-67 0 -108 55 -108 145c0 184 172 405 316 405c44 0 71 -20 88 -66zM229 709c8 33 40 58 73 58c28 0 45 -18 45 -43c0 -40 -39 -73 -76 -73c-27 0 -44 17 -44 42c0 5 0 10 2 16zM396 709c8 33 40 58 73 58
c28 0 45 -18 45 -43c0 -40 -39 -73 -76 -73c-27 0 -44 17 -44 42c0 5 0 10 2 16z" />
    <glyph glyph-name="aring" unicode="&#xe5;" horiz-adv-x="570" 
d="M332 488c-102 0 -227 -210 -227 -348c0 -48 22 -79 56 -79c93 0 212 242 212 371c0 35 -16 56 -41 56zM414 474l21 56h83l-57 -153c-38 -101 -74 -242 -74 -286c0 -19 7 -29 19 -29c19 0 56 43 100 104l26 -21c-55 -98 -124 -155 -184 -155c-31 0 -48 22 -48 75
c0 12 1 27 3 53l-4 1c-39 -74 -115 -129 -181 -129c-67 0 -108 55 -108 145c0 184 172 405 316 405c44 0 71 -20 88 -66zM280 718c0 56 52 112 113 112c42 0 68 -25 68 -62c0 -61 -56 -112 -115 -112c-41 0 -66 25 -66 62zM383 788c-29 0 -61 -25 -61 -58
c0 -20 14 -34 37 -34c29 0 59 27 59 60c0 19 -14 32 -35 32z" />
    <glyph glyph-name="ae" unicode="&#xe6;" horiz-adv-x="756" 
d="M639 154l32 -21c-57 -94 -131 -143 -214 -143c-82 0 -133 49 -142 134c-46 -76 -131 -134 -198 -134c-66 0 -107 55 -107 145c0 184 172 405 316 405c44 0 71 -20 88 -66l28 76h83l-30 -74l3 -2c36 48 88 66 136 66c64 0 109 -36 109 -87c0 -93 -149 -204 -327 -244
c-3 -19 -4 -37 -4 -55c0 -71 27 -109 77 -109c49 0 105 41 150 109zM329 488c-91 0 -224 -204 -224 -344c0 -52 21 -83 55 -83c95 0 213 210 213 366c0 41 -14 61 -44 61zM614 493c-70 0 -154 -117 -188 -239c128 35 223 117 223 197c0 28 -12 42 -35 42z" />
    <glyph glyph-name="ccedilla" unicode="&#xe7;" horiz-adv-x="441" 
d="M338 181l35 -20c-44 -88 -102 -145 -167 -164l-44 -69c67 0 104 -22 104 -63c0 -69 -77 -125 -152 -125c-59 0 -99 27 -99 63c0 28 18 49 41 49c33 0 13 -69 60 -69c32 0 65 27 65 63c0 27 -24 41 -67 41c-13 0 -29 -1 -35 -2l-1 3l70 102c-81 5 -134 68 -134 163
c0 178 165 387 306 387c63 0 110 -39 110 -91c0 -33 -22 -56 -52 -56s-52 22 -52 50c0 17 8 27 8 36s-8 14 -24 14c-89 0 -191 -182 -191 -341c0 -64 26 -103 70 -103c47 0 109 56 149 132z" />
    <glyph glyph-name="egrave" unicode="&#xe8;" horiz-adv-x="456" 
d="M339 154l32 -21c-57 -94 -131 -143 -214 -143c-91 0 -143 60 -143 163c0 184 168 387 320 387c64 0 109 -36 109 -87c0 -93 -149 -204 -327 -244c-3 -19 -4 -37 -4 -55c0 -71 27 -109 77 -109c49 0 105 41 150 109zM314 493c-70 0 -154 -117 -188 -239
c128 35 223 117 223 197c0 28 -12 42 -35 42zM439 651h-47l-119 65c-24 13 -39 27 -39 44c0 27 25 43 49 43c21 0 39 -10 58 -33z" />
    <glyph glyph-name="eacute" unicode="&#xe9;" horiz-adv-x="456" 
d="M339 154l32 -21c-57 -94 -131 -143 -214 -143c-91 0 -143 60 -143 163c0 184 168 387 320 387c64 0 109 -36 109 -87c0 -93 -149 -204 -327 -244c-3 -19 -4 -37 -4 -55c0 -71 27 -109 77 -109c49 0 105 41 150 109zM314 493c-70 0 -154 -117 -188 -239
c128 35 223 117 223 197c0 28 -12 42 -35 42zM317 651h-47l130 119c25 23 46 33 67 33c23 0 38 -13 38 -35c0 -21 -19 -37 -51 -52z" />
    <glyph glyph-name="ecircumflex" unicode="&#xea;" horiz-adv-x="456" 
d="M339 154l32 -21c-57 -94 -131 -143 -214 -143c-91 0 -143 60 -143 163c0 184 168 387 320 387c64 0 109 -36 109 -87c0 -93 -149 -204 -327 -244c-3 -19 -4 -37 -4 -55c0 -71 27 -109 77 -109c49 0 105 41 150 109zM314 493c-70 0 -154 -117 -188 -239
c128 35 223 117 223 197c0 28 -12 42 -35 42zM332 780h90l84 -129h-45l-101 68l-137 -68h-45z" />
    <glyph glyph-name="edieresis" unicode="&#xeb;" horiz-adv-x="456" 
d="M339 154l32 -21c-57 -94 -131 -143 -214 -143c-91 0 -143 60 -143 163c0 184 168 387 320 387c64 0 109 -36 109 -87c0 -93 -149 -204 -327 -244c-3 -19 -4 -37 -4 -55c0 -71 27 -109 77 -109c49 0 105 41 150 109zM314 493c-70 0 -154 -117 -188 -239
c128 35 223 117 223 197c0 28 -12 42 -35 42zM219 709c8 33 40 58 73 58c28 0 45 -18 45 -43c0 -40 -39 -73 -76 -73c-27 0 -44 17 -44 42c0 5 0 10 2 16zM386 709c8 33 40 58 73 58c28 0 45 -18 45 -43c0 -40 -39 -73 -76 -73c-27 0 -44 17 -44 42c0 5 0 10 2 16z" />
    <glyph glyph-name="igrave" unicode="&#xec;" horiz-adv-x="344" 
d="M86 202l45 128c19 52 26 83 26 101s-7 23 -14 23c-28 0 -76 -64 -87 -85l-29 18c31 60 124 153 193 153c33 0 50 -17 50 -67c0 -39 -25 -100 -63 -204l-37 -101c-5 -14 -21 -59 -21 -78c0 -12 6 -23 21 -23c39 0 92 77 107 104l30 -17c-32 -65 -112 -164 -200 -164
c-39 0 -58 19 -58 65c0 38 13 79 37 147zM343 651h-47l-119 65c-24 13 -39 27 -39 44c0 27 25 43 49 43c21 0 39 -10 58 -33z" />
    <glyph glyph-name="iacute" unicode="&#xed;" horiz-adv-x="344" 
d="M86 202l45 128c19 52 26 83 26 101s-7 23 -14 23c-28 0 -76 -64 -87 -85l-29 18c31 60 124 153 193 153c33 0 50 -17 50 -67c0 -39 -25 -100 -63 -204l-37 -101c-5 -14 -21 -59 -21 -78c0 -12 6 -23 21 -23c39 0 92 77 107 104l30 -17c-32 -65 -112 -164 -200 -164
c-39 0 -58 19 -58 65c0 38 13 79 37 147zM221 651h-47l130 119c25 23 46 33 67 33c23 0 38 -13 38 -35c0 -21 -19 -37 -51 -52z" />
    <glyph glyph-name="icircumflex" unicode="&#xee;" horiz-adv-x="344" 
d="M86 202l45 128c19 52 26 83 26 101s-7 23 -14 23c-28 0 -76 -64 -87 -85l-29 18c31 60 124 153 193 153c33 0 50 -17 50 -67c0 -39 -25 -100 -63 -204l-37 -101c-5 -14 -21 -59 -21 -78c0 -12 6 -23 21 -23c39 0 92 77 107 104l30 -17c-32 -65 -112 -164 -200 -164
c-39 0 -58 19 -58 65c0 38 13 79 37 147zM236 780h90l84 -129h-45l-101 68l-137 -68h-45z" />
    <glyph glyph-name="idieresis" unicode="&#xef;" horiz-adv-x="344" 
d="M86 202l45 128c19 52 26 83 26 101s-7 23 -14 23c-28 0 -76 -64 -87 -85l-29 18c31 60 124 153 193 153c33 0 50 -17 50 -67c0 -39 -25 -100 -63 -204l-37 -101c-5 -14 -21 -59 -21 -78c0 -12 6 -23 21 -23c39 0 92 77 107 104l30 -17c-32 -65 -112 -164 -200 -164
c-39 0 -58 19 -58 65c0 38 13 79 37 147zM123 709c8 33 40 58 73 58c28 0 45 -18 45 -43c0 -40 -39 -73 -76 -73c-27 0 -44 17 -44 42c0 5 0 10 2 16zM290 709c8 33 40 58 73 58c28 0 45 -18 45 -43c0 -40 -39 -73 -76 -73c-27 0 -44 17 -44 42c0 5 0 10 2 16z" />
    <glyph glyph-name="eth" unicode="&#xf0;" horiz-adv-x="581" 
d="M301 449c-106 0 -160 -189 -160 -297c0 -75 26 -117 75 -117c123 0 183 192 183 295c0 75 -35 119 -98 119zM225 746l27 34c58 -18 116 -40 156 -68l149 75l20 -38l-134 -68c70 -60 102 -147 102 -251c0 -246 -166 -440 -341 -440c-111 0 -183 78 -183 190
c0 169 141 318 282 318c71 0 117 -30 131 -86l4 2c-1 106 -20 177 -64 232l-149 -75l-19 38l139 71c-24 23 -58 42 -120 66z" />
    <glyph glyph-name="ntilde" unicode="&#xf1;" horiz-adv-x="627" 
d="M425 488c-63 0 -172 -143 -226 -288l-74 -200h-88l74 229c47 146 63 203 63 229c0 17 -6 27 -17 27c-30 0 -84 -80 -110 -161l-30 15c47 136 104 201 178 201c43 0 59 -22 59 -79c0 -34 -5 -63 -17 -91l3 -3c68 119 136 173 218 173c58 0 90 -29 90 -81
c0 -35 -12 -78 -53 -197c-31 -90 -53 -154 -53 -179c0 -10 3 -15 10 -15c19 0 53 29 114 97l26 -14c-43 -79 -143 -161 -196 -161c-33 0 -54 32 -54 80c0 37 8 62 79 263c24 69 31 94 31 118c0 25 -9 37 -27 37zM246 660h-34c11 67 54 114 105 114c20 0 47 -7 86 -24
s56 -22 73 -22c22 0 35 12 44 42h33c-3 -27 -16 -61 -32 -82c-17 -23 -41 -36 -67 -36c-18 0 -37 6 -84 25c-45 17 -66 23 -82 23c-22 0 -33 -11 -42 -40z" />
    <glyph glyph-name="ograve" unicode="&#xf2;" horiz-adv-x="523" 
d="M187 -10c-90 0 -163 75 -163 201c0 174 141 349 287 349c96 0 165 -76 165 -192c0 -168 -145 -358 -289 -358zM193 40c90 0 187 209 187 360c0 70 -27 93 -69 93c-90 0 -182 -203 -182 -351c0 -74 27 -102 64 -102zM430 651h-47l-119 65c-24 13 -39 27 -39 44
c0 27 25 43 49 43c21 0 39 -10 58 -33z" />
    <glyph glyph-name="oacute" unicode="&#xf3;" horiz-adv-x="523" 
d="M187 -10c-90 0 -163 75 -163 201c0 174 141 349 287 349c96 0 165 -76 165 -192c0 -168 -145 -358 -289 -358zM193 40c90 0 187 209 187 360c0 70 -27 93 -69 93c-90 0 -182 -203 -182 -351c0 -74 27 -102 64 -102zM308 651h-47l130 119c25 23 46 33 67 33
c23 0 38 -13 38 -35c0 -21 -19 -37 -51 -52z" />
    <glyph glyph-name="ocircumflex" unicode="&#xf4;" horiz-adv-x="523" 
d="M187 -10c-90 0 -163 75 -163 201c0 174 141 349 287 349c96 0 165 -76 165 -192c0 -168 -145 -358 -289 -358zM193 40c90 0 187 209 187 360c0 70 -27 93 -69 93c-90 0 -182 -203 -182 -351c0 -74 27 -102 64 -102zM351 780h90l84 -129h-45l-101 68l-137 -68h-45z" />
    <glyph glyph-name="otilde" unicode="&#xf5;" horiz-adv-x="523" 
d="M187 -10c-90 0 -163 75 -163 201c0 174 141 349 287 349c96 0 165 -76 165 -192c0 -168 -145 -358 -289 -358zM193 40c90 0 187 209 187 360c0 70 -27 93 -69 93c-90 0 -182 -203 -182 -351c0 -74 27 -102 64 -102zM214 660h-34c11 67 54 114 105 114c20 0 47 -7 86 -24
s56 -22 73 -22c22 0 35 12 44 42h33c-3 -27 -16 -61 -32 -82c-17 -23 -41 -36 -67 -36c-18 0 -37 6 -84 25c-45 17 -66 23 -82 23c-22 0 -33 -11 -42 -40z" />
    <glyph glyph-name="odieresis" unicode="&#xf6;" horiz-adv-x="523" 
d="M187 -10c-90 0 -163 75 -163 201c0 174 141 349 287 349c96 0 165 -76 165 -192c0 -168 -145 -358 -289 -358zM193 40c90 0 187 209 187 360c0 70 -27 93 -69 93c-90 0 -182 -203 -182 -351c0 -74 27 -102 64 -102zM235 709c8 33 40 58 73 58c28 0 45 -18 45 -43
c0 -40 -39 -73 -76 -73c-27 0 -44 17 -44 42c0 5 0 10 2 16zM402 709c8 33 40 58 73 58c28 0 45 -18 45 -43c0 -40 -39 -73 -76 -73c-27 0 -44 17 -44 42c0 5 0 10 2 16z" />
    <glyph glyph-name="divide" unicode="&#xf7;" horiz-adv-x="602" 
d="M243 162c0 37 29 66 65 66c37 0 66 -29 66 -66c0 -36 -29 -65 -66 -65c-36 0 -65 29 -65 65zM243 512c0 37 29 66 65 66c37 0 66 -29 66 -66c0 -36 -29 -65 -66 -65c-36 0 -65 29 -65 65zM540 363v-50h-468v50h468z" />
    <glyph glyph-name="oslash" unicode="&#xf8;" horiz-adv-x="523" 
d="M187 -10c-36 0 -69 12 -95 33l-67 -84h-68l99 125c-20 33 -32 76 -32 127c0 174 141 349 287 349c37 0 69 -11 96 -32l66 84h69l-98 -124c20 -32 32 -73 32 -120c0 -168 -145 -358 -289 -358zM193 40c87 0 182 197 187 347l-242 -306c11 -29 30 -41 55 -41zM311 493
c-87 0 -177 -190 -182 -337l240 304c-12 24 -32 33 -58 33z" />
    <glyph glyph-name="ugrave" unicode="&#xf9;" horiz-adv-x="593" 
d="M169 62c43 0 149 130 200 268l74 200h93l-74 -229c-43 -134 -58 -185 -58 -210c0 -16 6 -26 18 -26c27 0 78 56 104 116l30 -15c-35 -88 -115 -176 -184 -176c-41 0 -53 31 -53 85c0 22 2 50 7 75l-3 3c-71 -127 -136 -163 -194 -163c-62 0 -84 39 -84 90
c0 56 26 128 50 188c48 119 65 162 65 183c0 5 -1 11 -9 11c-17 0 -48 -29 -104 -97l-26 14c40 78 128 161 193 161c32 0 50 -21 50 -58c0 -47 -29 -121 -70 -223c-26 -65 -46 -117 -46 -159c0 -28 9 -38 21 -38zM451 651h-47l-119 65c-24 13 -39 27 -39 44
c0 27 25 43 49 43c21 0 39 -10 58 -33z" />
    <glyph glyph-name="uacute" unicode="&#xfa;" horiz-adv-x="593" 
d="M169 62c43 0 149 130 200 268l74 200h93l-74 -229c-43 -134 -58 -185 -58 -210c0 -16 6 -26 18 -26c27 0 78 56 104 116l30 -15c-35 -88 -115 -176 -184 -176c-41 0 -53 31 -53 85c0 22 2 50 7 75l-3 3c-71 -127 -136 -163 -194 -163c-62 0 -84 39 -84 90
c0 56 26 128 50 188c48 119 65 162 65 183c0 5 -1 11 -9 11c-17 0 -48 -29 -104 -97l-26 14c40 78 128 161 193 161c32 0 50 -21 50 -58c0 -47 -29 -121 -70 -223c-26 -65 -46 -117 -46 -159c0 -28 9 -38 21 -38zM329 651h-47l130 119c25 23 46 33 67 33c23 0 38 -13 38 -35
c0 -21 -19 -37 -51 -52z" />
    <glyph glyph-name="ucircumflex" unicode="&#xfb;" horiz-adv-x="593" 
d="M169 62c43 0 149 130 200 268l74 200h93l-74 -229c-43 -134 -58 -185 -58 -210c0 -16 6 -26 18 -26c27 0 78 56 104 116l30 -15c-35 -88 -115 -176 -184 -176c-41 0 -53 31 -53 85c0 22 2 50 7 75l-3 3c-71 -127 -136 -163 -194 -163c-62 0 -84 39 -84 90
c0 56 26 128 50 188c48 119 65 162 65 183c0 5 -1 11 -9 11c-17 0 -48 -29 -104 -97l-26 14c40 78 128 161 193 161c32 0 50 -21 50 -58c0 -47 -29 -121 -70 -223c-26 -65 -46 -117 -46 -159c0 -28 9 -38 21 -38zM344 780h90l84 -129h-45l-101 68l-137 -68h-45z" />
    <glyph glyph-name="udieresis" unicode="&#xfc;" horiz-adv-x="593" 
d="M169 62c43 0 149 130 200 268l74 200h93l-74 -229c-43 -134 -58 -185 -58 -210c0 -16 6 -26 18 -26c27 0 78 56 104 116l30 -15c-35 -88 -115 -176 -184 -176c-41 0 -53 31 -53 85c0 22 2 50 7 75l-3 3c-71 -127 -136 -163 -194 -163c-62 0 -84 39 -84 90
c0 56 26 128 50 188c48 119 65 162 65 183c0 5 -1 11 -9 11c-17 0 -48 -29 -104 -97l-26 14c40 78 128 161 193 161c32 0 50 -21 50 -58c0 -47 -29 -121 -70 -223c-26 -65 -46 -117 -46 -159c0 -28 9 -38 21 -38zM231 709c8 33 40 58 73 58c28 0 45 -18 45 -43
c0 -40 -39 -73 -76 -73c-27 0 -44 17 -44 42c0 5 0 10 2 16zM398 709c8 33 40 58 73 58c28 0 45 -18 45 -43c0 -40 -39 -73 -76 -73c-27 0 -44 17 -44 42c0 5 0 10 2 16z" />
    <glyph glyph-name="yacute" unicode="&#xfd;" horiz-adv-x="515" 
d="M215 11l-54 281c-21 110 -43 145 -67 145c-25 0 -45 -37 -66 -119l-37 10c28 124 89 212 148 212c25 0 41 -16 60 -66c16 -42 36 -115 55 -205l34 -161h4c50 63 110 170 110 251c0 27 -7 88 -7 111c0 48 29 70 56 70c34 0 50 -34 50 -73c0 -109 -127 -361 -260 -533
c-101 -131 -187 -194 -261 -194c-55 0 -91 35 -91 79c0 33 21 56 51 56c54 0 40 -75 78 -75c50 0 167 125 197 211zM273 651h-47l130 119c25 23 46 33 67 33c23 0 38 -13 38 -35c0 -21 -19 -37 -51 -52z" />
    <glyph glyph-name="thorn" unicode="&#xfe;" horiz-adv-x="540" 
d="M164 -10c-31 0 -55 11 -73 35l-3 -1l-37 -145c-5 -20 -8 -33 -8 -43c0 -33 24 -45 93 -46l-6 -40h-283l6 40c56 0 78 11 88 46l257 855c7 24 15 52 15 64c0 24 -24 35 -76 35l8 30l192 9l-127 -385l3 -2c39 61 100 97 165 97c81 0 127 -55 127 -142
c0 -190 -179 -407 -341 -407zM180 41c93 0 226 215 226 364c0 46 -24 81 -55 81c-90 0 -222 -216 -222 -363c0 -54 17 -82 51 -82z" />
    <glyph glyph-name="ydieresis" unicode="&#xff;" horiz-adv-x="515" 
d="M215 11l-54 281c-21 110 -43 145 -67 145c-25 0 -45 -37 -66 -119l-37 10c28 124 89 212 148 212c25 0 41 -16 60 -66c16 -42 36 -115 55 -205l34 -161h4c50 63 110 170 110 251c0 27 -7 88 -7 111c0 48 29 70 56 70c34 0 50 -34 50 -73c0 -109 -127 -361 -260 -533
c-101 -131 -187 -194 -261 -194c-55 0 -91 35 -91 79c0 33 21 56 51 56c54 0 40 -75 78 -75c50 0 167 125 197 211zM178 709c8 33 40 58 73 58c28 0 45 -18 45 -43c0 -40 -39 -73 -76 -73c-27 0 -44 17 -44 42c0 5 0 10 2 16zM345 709c8 33 40 58 73 58c28 0 45 -18 45 -43
c0 -40 -39 -73 -76 -73c-27 0 -44 17 -44 42c0 5 0 10 2 16z" />
    <glyph glyph-name="Amacron" unicode="&#x100;" 
d="M690 780l-139 -614c-8 -35 -12 -61 -12 -77c0 -39 20 -49 93 -49l-10 -40h-296l10 40c78 0 95 18 119 127l27 123h-215l-63 -66c-109 -114 -118 -134 -118 -150c0 -25 20 -34 75 -34l-10 -40h-259l10 40c63 0 120 45 243 191l461 549h84zM310 340h181l82 310h-4zM810 880
h-270l13 50h270z" />
    <glyph glyph-name="amacron" unicode="&#x101;" horiz-adv-x="570" 
d="M332 488c-102 0 -227 -210 -227 -348c0 -48 22 -79 56 -79c93 0 212 242 212 371c0 35 -16 56 -41 56zM414 474l21 56h83l-57 -153c-38 -101 -74 -242 -74 -286c0 -19 7 -29 19 -29c19 0 56 43 100 104l26 -21c-55 -98 -124 -155 -184 -155c-31 0 -48 22 -48 75
c0 12 1 27 3 53l-4 1c-39 -74 -115 -129 -181 -129c-67 0 -108 55 -108 145c0 184 172 405 316 405c44 0 71 -20 88 -66zM498 702h-270l13 50h270z" />
    <glyph glyph-name="Abreve" unicode="&#x102;" 
d="M690 780l-139 -614c-8 -35 -12 -61 -12 -77c0 -39 20 -49 93 -49l-10 -40h-296l10 40c78 0 95 18 119 127l27 123h-215l-63 -66c-109 -114 -118 -134 -118 -150c0 -25 20 -34 75 -34l-10 -40h-259l10 40c63 0 120 45 243 191l461 549h84zM310 340h181l82 310h-4zM808 960
h37c-23 -67 -94 -115 -169 -115c-67 0 -110 37 -110 90c0 8 1 16 3 25h36c3 -28 39 -46 89 -46s95 18 114 46z" />
    <glyph glyph-name="abreve" unicode="&#x103;" horiz-adv-x="570" 
d="M332 488c-102 0 -227 -210 -227 -348c0 -48 22 -79 56 -79c93 0 212 242 212 371c0 35 -16 56 -41 56zM414 474l21 56h83l-57 -153c-38 -101 -74 -242 -74 -286c0 -19 7 -29 19 -29c19 0 56 43 100 104l26 -21c-55 -98 -124 -155 -184 -155c-31 0 -48 22 -48 75
c0 12 1 27 3 53l-4 1c-39 -74 -115 -129 -181 -129c-67 0 -108 55 -108 145c0 184 172 405 316 405c44 0 71 -20 88 -66zM488 776h37c-25 -76 -98 -130 -173 -130c-66 0 -107 40 -107 98c0 10 1 21 4 32h36c2 -37 36 -61 85 -61c50 0 97 24 118 61z" />
    <glyph glyph-name="Aogonek" unicode="&#x104;" 
d="M523 -121l29 -31c-41 -53 -97 -82 -157 -82c-61 0 -97 32 -97 85c0 58 45 112 125 149h-97l10 40c78 0 95 18 119 127l27 123h-215l-63 -66c-109 -114 -118 -134 -118 -150c0 -25 20 -34 75 -34l-10 -40h-259l10 40c63 0 120 45 243 191l461 549h84l-139 -614
c-8 -35 -12 -61 -12 -77c0 -39 20 -49 93 -49l-10 -40h-134c-66 -35 -111 -86 -111 -126c0 -27 23 -48 51 -48c25 0 60 19 95 53zM310 340h181l82 310h-4z" />
    <glyph glyph-name="aogonek" unicode="&#x105;" horiz-adv-x="570" 
d="M409 -121l29 -31c-41 -53 -97 -82 -157 -82c-61 0 -97 32 -97 85c0 59 48 115 132 152c-11 12 -16 32 -16 62c0 12 1 27 3 53l-4 1c-39 -74 -115 -129 -181 -129c-67 0 -108 55 -108 145c0 184 172 405 316 405c44 0 71 -20 88 -66l21 56h83l-57 -153
c-38 -101 -74 -242 -74 -286c0 -19 7 -29 19 -29c19 0 56 43 100 104l26 -21c-52 -93 -117 -149 -175 -154c-56 -35 -94 -81 -94 -117c0 -27 23 -48 51 -48c25 0 60 19 95 53zM332 488c-102 0 -227 -210 -227 -348c0 -48 22 -79 56 -79c93 0 212 242 212 371
c0 35 -16 56 -41 56z" />
    <glyph glyph-name="Cacute" unicode="&#x106;" horiz-adv-x="728" 
d="M665 189c-92 -142 -177 -199 -300 -199c-180 0 -292 120 -292 311c0 253 200 479 425 479c64 0 121 -19 180 -60l37 50h37l-46 -251h-38c-10 144 -60 209 -162 209c-175 0 -312 -188 -312 -428c0 -164 66 -248 193 -248c96 0 171 50 242 161zM468 850h-60l150 77
c43 22 69 33 96 33c19 0 30 -9 30 -25c0 -27 -32 -45 -89 -57z" />
    <glyph glyph-name="cacute" unicode="&#x107;" horiz-adv-x="441" 
d="M338 181l35 -20c-55 -110 -132 -171 -216 -171c-86 0 -143 65 -143 163c0 178 165 387 306 387c63 0 110 -39 110 -91c0 -33 -22 -56 -52 -56s-52 22 -52 50c0 17 8 27 8 36s-8 14 -24 14c-89 0 -191 -182 -191 -341c0 -64 26 -103 70 -103c47 0 109 56 149 132zM304 651
h-47l130 119c25 23 46 33 67 33c23 0 38 -13 38 -35c0 -21 -19 -37 -51 -52z" />
    <glyph glyph-name="Ccircumflex" unicode="&#x108;" horiz-adv-x="728" 
d="M665 189c-92 -142 -177 -199 -300 -199c-180 0 -292 120 -292 311c0 253 200 479 425 479c64 0 121 -19 180 -60l37 50h37l-46 -251h-38c-10 144 -60 209 -162 209c-175 0 -312 -188 -312 -428c0 -164 66 -248 193 -248c96 0 171 50 242 161zM501 960h110l80 -109h-45
l-105 54l-133 -54h-45z" />
    <glyph glyph-name="ccircumflex" unicode="&#x109;" horiz-adv-x="441" 
d="M338 181l35 -20c-55 -110 -132 -171 -216 -171c-86 0 -143 65 -143 163c0 178 165 387 306 387c63 0 110 -39 110 -91c0 -33 -22 -56 -52 -56s-52 22 -52 50c0 17 8 27 8 36s-8 14 -24 14c-89 0 -191 -182 -191 -341c0 -64 26 -103 70 -103c47 0 109 56 149 132zM319 780
h90l84 -129h-45l-101 68l-137 -68h-45z" />
    <glyph glyph-name="Cdotaccent" unicode="&#x10a;" horiz-adv-x="728" 
d="M665 189c-92 -142 -177 -199 -300 -199c-180 0 -292 120 -292 311c0 253 200 479 425 479c64 0 121 -19 180 -60l37 50h37l-46 -251h-38c-10 144 -60 209 -162 209c-175 0 -312 -188 -312 -428c0 -164 66 -248 193 -248c96 0 171 50 242 161zM500 904c0 31 24 55 52 55
c31 0 55 -24 55 -55c0 -28 -24 -52 -55 -52c-28 0 -52 24 -52 52z" />
    <glyph glyph-name="cdotaccent" unicode="&#x10b;" horiz-adv-x="441" 
d="M338 181l35 -20c-55 -110 -132 -171 -216 -171c-86 0 -143 65 -143 163c0 178 165 387 306 387c63 0 110 -39 110 -91c0 -33 -22 -56 -52 -56s-52 22 -52 50c0 17 8 27 8 36s-8 14 -24 14c-89 0 -191 -182 -191 -341c0 -64 26 -103 70 -103c47 0 109 56 149 132zM285 743
c0 35 27 62 62 62s62 -27 62 -62s-27 -62 -62 -62s-62 27 -62 62z" />
    <glyph glyph-name="Ccaron" unicode="&#x10c;" horiz-adv-x="728" 
d="M665 189c-92 -142 -177 -199 -300 -199c-180 0 -292 120 -292 311c0 253 200 479 425 479c64 0 121 -19 180 -60l37 50h37l-46 -251h-38c-10 144 -60 209 -162 209c-175 0 -312 -188 -312 -428c0 -164 66 -248 193 -248c96 0 171 50 242 161zM577 851h-110l-80 109h45
l105 -54l133 54h45z" />
    <glyph glyph-name="ccaron" unicode="&#x10d;" horiz-adv-x="441" 
d="M338 181l35 -20c-55 -110 -132 -171 -216 -171c-86 0 -143 65 -143 163c0 178 165 387 306 387c63 0 110 -39 110 -91c0 -33 -22 -56 -52 -56s-52 22 -52 50c0 17 8 27 8 36s-8 14 -24 14c-89 0 -191 -182 -191 -341c0 -64 26 -103 70 -103c47 0 109 56 149 132zM374 651
h-90l-84 129h45l101 -68l137 68h45z" />
    <glyph glyph-name="Dcaron" unicode="&#x10e;" horiz-adv-x="836" 
d="M152 730l13 40h271c91 0 182 -19 252 -77c75 -62 109 -153 109 -246c0 -121 -58 -246 -139 -326c-93 -92 -208 -121 -337 -121h-350l11 40c86 0 108 15 135 118l115 442c5 18 22 65 22 88c0 39 -50 42 -83 42h-19zM355 669l-118 -438c-22 -81 -25 -99 -25 -113
c0 -71 71 -74 100 -74c261 0 369 235 369 413c0 167 -96 263 -253 263c-39 0 -61 -6 -73 -51zM543 851h-110l-80 109h45l105 -54l133 54h45z" />
    <glyph glyph-name="dcaron" unicode="&#x10f;" horiz-adv-x="598" 
d="M410 486l58 206c10 36 16 60 16 71c0 20 -23 27 -92 27l11 40h193l-111 -405c-57 -209 -72 -284 -72 -327c0 -30 11 -41 25 -41c29 0 67 54 93 134l38 -9c-45 -131 -98 -192 -166 -192c-48 0 -75 32 -75 89c0 14 3 31 7 46l-8 2c-50 -88 -130 -137 -195 -137
c-68 0 -121 63 -121 156c0 174 175 394 313 394c46 0 63 -17 86 -54zM331 487c-104 0 -223 -213 -223 -353c0 -48 26 -79 66 -79c91 0 207 239 207 366c0 41 -16 66 -50 66zM622 584l-15 26c52 25 78 49 86 78c-7 -5 -17 -8 -28 -8c-21 0 -33 12 -33 31c0 39 35 69 75 69
c30 0 46 -17 46 -47c0 -56 -34 -104 -131 -149z" />
    <glyph glyph-name="Dcroat" unicode="&#x110;" horiz-adv-x="839" 
d="M155 730l13 40h271c91 0 182 -19 252 -77c75 -62 109 -153 109 -246c0 -121 -58 -246 -139 -326c-93 -92 -208 -121 -337 -121h-350l11 40c86 0 108 15 135 118l54 208h-93l13 50h93l48 184c5 18 22 65 22 88c0 39 -50 42 -83 42h-19zM358 669l-68 -253h114l-13 -50h-115
l-36 -135c-22 -81 -25 -99 -25 -113c0 -71 71 -74 100 -74c261 0 369 235 369 413c0 167 -96 263 -253 263c-39 0 -61 -6 -73 -51z" />
    <glyph glyph-name="dcroat" unicode="&#x111;" horiz-adv-x="598" 
d="M410 486l43 153h-113l15 53h113c10 36 16 60 16 71c0 20 -23 27 -92 27l11 40h193l-38 -138h76l-15 -53h-76l-58 -214c-57 -209 -72 -284 -72 -327c0 -30 11 -41 25 -41c29 0 67 54 93 134l38 -9c-45 -131 -98 -192 -166 -192c-48 0 -75 32 -75 89c0 14 3 31 7 46l-8 2
c-50 -88 -130 -137 -195 -137c-68 0 -121 63 -121 156c0 174 175 394 313 394c46 0 63 -17 86 -54zM331 487c-104 0 -223 -213 -223 -353c0 -48 26 -79 66 -79c91 0 207 239 207 366c0 41 -16 66 -50 66z" />
    <glyph glyph-name="Emacron" unicode="&#x112;" horiz-adv-x="740" 
d="M-26 0l11 40c88 0 109 23 134 118l116 441c9 34 14 59 14 78c0 44 -28 53 -100 53l11 40h546v-202h-38c-34 127 -84 158 -168 158h-130l-78 -297h63c71 0 97 22 139 114h37l-60 -296h-40c2 20 3 37 3 52c0 59 -19 86 -80 86h-75l-57 -215c-6 -22 -9 -40 -9 -56
c0 -48 38 -71 142 -71c153 0 218 44 273 168h47l-78 -211h-623zM621 880h-270l13 50h270z" />
    <glyph glyph-name="emacron" unicode="&#x113;" horiz-adv-x="456" 
d="M339 154l32 -21c-57 -94 -131 -143 -214 -143c-91 0 -143 60 -143 163c0 184 168 387 320 387c64 0 109 -36 109 -87c0 -93 -149 -204 -327 -244c-3 -19 -4 -37 -4 -55c0 -71 27 -109 77 -109c49 0 105 41 150 109zM314 493c-70 0 -154 -117 -188 -239
c128 35 223 117 223 197c0 28 -12 42 -35 42zM488 702h-270l13 50h270z" />
    <glyph glyph-name="Ebreve" unicode="&#x114;" horiz-adv-x="740" 
d="M-26 0l11 40c88 0 109 23 134 118l116 441c9 34 14 59 14 78c0 44 -28 53 -100 53l11 40h546v-202h-38c-34 127 -84 158 -168 158h-130l-78 -297h63c71 0 97 22 139 114h37l-60 -296h-40c2 20 3 37 3 52c0 59 -19 86 -80 86h-75l-57 -215c-6 -22 -9 -40 -9 -56
c0 -48 38 -71 142 -71c153 0 218 44 273 168h47l-78 -211h-623zM617 960h37c-23 -67 -94 -115 -169 -115c-67 0 -110 37 -110 90c0 8 1 16 3 25h36c3 -28 39 -46 89 -46s95 18 114 46z" />
    <glyph glyph-name="ebreve" unicode="&#x115;" horiz-adv-x="456" 
d="M339 154l32 -21c-57 -94 -131 -143 -214 -143c-91 0 -143 60 -143 163c0 184 168 387 320 387c64 0 109 -36 109 -87c0 -93 -149 -204 -327 -244c-3 -19 -4 -37 -4 -55c0 -71 27 -109 77 -109c49 0 105 41 150 109zM314 493c-70 0 -154 -117 -188 -239
c128 35 223 117 223 197c0 28 -12 42 -35 42zM478 776h37c-25 -76 -98 -130 -173 -130c-66 0 -107 40 -107 98c0 10 1 21 4 32h36c2 -37 36 -61 85 -61c50 0 97 24 118 61z" />
    <glyph glyph-name="Edotaccent" unicode="&#x116;" horiz-adv-x="740" 
d="M-26 0l11 40c88 0 109 23 134 118l116 441c9 34 14 59 14 78c0 44 -28 53 -100 53l11 40h546v-202h-38c-34 127 -84 158 -168 158h-130l-78 -297h63c71 0 97 22 139 114h37l-60 -296h-40c2 20 3 37 3 52c0 59 -19 86 -80 86h-75l-57 -215c-6 -22 -9 -40 -9 -56
c0 -48 38 -71 142 -71c153 0 218 44 273 168h47l-78 -211h-623zM456 904c0 31 24 55 52 55c31 0 55 -24 55 -55c0 -28 -24 -52 -55 -52c-28 0 -52 24 -52 52z" />
    <glyph glyph-name="edotaccent" unicode="&#x117;" horiz-adv-x="456" 
d="M339 154l32 -21c-57 -94 -131 -143 -214 -143c-91 0 -143 60 -143 163c0 184 168 387 320 387c64 0 109 -36 109 -87c0 -93 -149 -204 -327 -244c-3 -19 -4 -37 -4 -55c0 -71 27 -109 77 -109c49 0 105 41 150 109zM314 493c-70 0 -154 -117 -188 -239
c128 35 223 117 223 197c0 28 -12 42 -35 42zM298 743c0 35 27 62 62 62s62 -27 62 -62s-27 -62 -62 -62s-62 27 -62 62z" />
    <glyph glyph-name="Eogonek" unicode="&#x118;" horiz-adv-x="740" 
d="M-26 0l11 40c88 0 109 23 134 118l116 441c9 34 14 59 14 78c0 44 -28 53 -100 53l11 40h546v-202h-38c-34 127 -84 158 -168 158h-130l-78 -297h63c71 0 97 22 139 114h37l-60 -296h-40c2 20 3 37 3 52c0 59 -19 86 -80 86h-75l-57 -215c-6 -22 -9 -40 -9 -56
c0 -48 38 -71 142 -71c153 0 218 44 273 168h47l-78 -211h-271c-66 -35 -111 -86 -111 -126c0 -27 23 -48 51 -48c25 0 60 19 95 53l29 -31c-41 -53 -97 -82 -157 -82c-61 0 -97 32 -97 85c0 58 45 112 125 149h-287z" />
    <glyph glyph-name="eogonek" unicode="&#x119;" horiz-adv-x="456" 
d="M211 -121l29 -31c-41 -53 -97 -82 -157 -82c-61 0 -97 32 -97 85c0 56 44 110 120 147c-59 18 -92 73 -92 155c0 184 168 387 320 387c64 0 109 -36 109 -87c0 -93 -149 -204 -327 -244c-3 -19 -4 -37 -4 -55c0 -71 27 -109 77 -109c49 0 105 41 150 109l32 -21
c-57 -94 -130 -142 -213 -143c-56 -34 -93 -80 -93 -116c0 -27 23 -48 51 -48c25 0 60 19 95 53zM314 493c-70 0 -154 -117 -188 -239c128 35 223 117 223 197c0 28 -12 42 -35 42z" />
    <glyph glyph-name="Ecaron" unicode="&#x11a;" horiz-adv-x="740" 
d="M-26 0l11 40c88 0 109 23 134 118l116 441c9 34 14 59 14 78c0 44 -28 53 -100 53l11 40h546v-202h-38c-34 127 -84 158 -168 158h-130l-78 -297h63c71 0 97 22 139 114h37l-60 -296h-40c2 20 3 37 3 52c0 59 -19 86 -80 86h-75l-57 -215c-6 -22 -9 -40 -9 -56
c0 -48 38 -71 142 -71c153 0 218 44 273 168h47l-78 -211h-623zM533 851h-110l-80 109h45l105 -54l133 54h45z" />
    <glyph glyph-name="ecaron" unicode="&#x11b;" horiz-adv-x="456" 
d="M339 154l32 -21c-57 -94 -131 -143 -214 -143c-91 0 -143 60 -143 163c0 184 168 387 320 387c64 0 109 -36 109 -87c0 -93 -149 -204 -327 -244c-3 -19 -4 -37 -4 -55c0 -71 27 -109 77 -109c49 0 105 41 150 109zM314 493c-70 0 -154 -117 -188 -239
c128 35 223 117 223 197c0 28 -12 42 -35 42zM387 651h-90l-84 129h45l101 -68l137 68h45z" />
    <glyph glyph-name="Gcircumflex" unicode="&#x11c;" horiz-adv-x="809" 
d="M387 44c112 0 195 62 195 178c0 53 -19 78 -85 78l9 39h274l-10 -39c-57 0 -71 -8 -104 -134c-10 -39 -22 -78 -23 -117c-61 -10 -131 -59 -278 -59c-180 0 -292 120 -292 311c0 253 210 479 445 479c72 0 135 -19 200 -60l37 50h37l-36 -220h-38
c-13 122 -72 178 -192 178c-187 0 -332 -188 -332 -428c0 -170 66 -256 193 -256zM517 960h110l80 -109h-45l-105 54l-133 -54h-45z" />
    <glyph glyph-name="gcircumflex" unicode="&#x11d;" horiz-adv-x="550" 
d="M435 -73c0 -115 -103 -187 -265 -187c-146 0 -245 57 -245 141c0 54 40 95 94 95c16 0 29 -3 51 -14c-36 -15 -56 -46 -56 -87c0 -56 61 -90 159 -90c108 0 184 52 184 98c0 37 -47 70 -128 84c-145 25 -211 54 -211 114c0 38 29 63 117 89l2 4c-51 36 -76 81 -76 139
c0 124 109 228 238 228c51 0 90 -17 124 -54c31 35 61 53 91 53c42 0 80 -31 80 -65c0 -27 -20 -47 -47 -47c-41 0 -36 42 -72 42c-9 0 -14 -2 -35 -16c7 -18 9 -33 9 -58c0 -146 -87 -238 -229 -249c-63 -5 -89 -15 -89 -36c0 -83 304 -24 304 -184zM225 191
c64 0 129 111 129 223c0 53 -26 87 -65 87c-62 0 -134 -120 -134 -225c0 -50 28 -85 70 -85zM316 780h90l84 -129h-45l-101 68l-137 -68h-45z" />
    <glyph glyph-name="Gbreve" unicode="&#x11e;" horiz-adv-x="809" 
d="M387 44c112 0 195 62 195 178c0 53 -19 78 -85 78l9 39h274l-10 -39c-57 0 -71 -8 -104 -134c-10 -39 -22 -78 -23 -117c-61 -10 -131 -59 -278 -59c-180 0 -292 120 -292 311c0 253 210 479 445 479c72 0 135 -19 200 -60l37 50h37l-36 -220h-38
c-13 122 -72 178 -192 178c-187 0 -332 -188 -332 -428c0 -170 66 -256 193 -256zM677 960h37c-23 -67 -94 -115 -169 -115c-67 0 -110 37 -110 90c0 8 1 16 3 25h36c3 -28 39 -46 89 -46s95 18 114 46z" />
    <glyph glyph-name="gbreve" unicode="&#x11f;" horiz-adv-x="550" 
d="M435 -73c0 -115 -103 -187 -265 -187c-146 0 -245 57 -245 141c0 54 40 95 94 95c16 0 29 -3 51 -14c-36 -15 -56 -46 -56 -87c0 -56 61 -90 159 -90c108 0 184 52 184 98c0 37 -47 70 -128 84c-145 25 -211 54 -211 114c0 38 29 63 117 89l2 4c-51 36 -76 81 -76 139
c0 124 109 228 238 228c51 0 90 -17 124 -54c31 35 61 53 91 53c42 0 80 -31 80 -65c0 -27 -20 -47 -47 -47c-41 0 -36 42 -72 42c-9 0 -14 -2 -35 -16c7 -18 9 -33 9 -58c0 -146 -87 -238 -229 -249c-63 -5 -89 -15 -89 -36c0 -83 304 -24 304 -184zM225 191
c64 0 129 111 129 223c0 53 -26 87 -65 87c-62 0 -134 -120 -134 -225c0 -50 28 -85 70 -85zM462 776h37c-25 -76 -98 -130 -173 -130c-66 0 -107 40 -107 98c0 10 1 21 4 32h36c2 -37 36 -61 85 -61c50 0 97 24 118 61z" />
    <glyph glyph-name="Gdotaccent" unicode="&#x120;" horiz-adv-x="809" 
d="M387 44c112 0 195 62 195 178c0 53 -19 78 -85 78l9 39h274l-10 -39c-57 0 -71 -8 -104 -134c-10 -39 -22 -78 -23 -117c-61 -10 -131 -59 -278 -59c-180 0 -292 120 -292 311c0 253 210 479 445 479c72 0 135 -19 200 -60l37 50h37l-36 -220h-38
c-13 122 -72 178 -192 178c-187 0 -332 -188 -332 -428c0 -170 66 -256 193 -256zM514 904c0 31 24 55 52 55c31 0 55 -24 55 -55c0 -28 -24 -52 -55 -52c-28 0 -52 24 -52 52z" />
    <glyph glyph-name="gdotaccent" unicode="&#x121;" horiz-adv-x="550" 
d="M435 -73c0 -115 -103 -187 -265 -187c-146 0 -245 57 -245 141c0 54 40 95 94 95c16 0 29 -3 51 -14c-36 -15 -56 -46 -56 -87c0 -56 61 -90 159 -90c108 0 184 52 184 98c0 37 -47 70 -128 84c-145 25 -211 54 -211 114c0 38 29 63 117 89l2 4c-51 36 -76 81 -76 139
c0 124 109 228 238 228c51 0 90 -17 124 -54c31 35 61 53 91 53c42 0 80 -31 80 -65c0 -27 -20 -47 -47 -47c-41 0 -36 42 -72 42c-9 0 -14 -2 -35 -16c7 -18 9 -33 9 -58c0 -146 -87 -238 -229 -249c-63 -5 -89 -15 -89 -36c0 -83 304 -24 304 -184zM225 191
c64 0 129 111 129 223c0 53 -26 87 -65 87c-62 0 -134 -120 -134 -225c0 -50 28 -85 70 -85zM282 743c0 35 27 62 62 62s62 -27 62 -62s-27 -62 -62 -62s-62 27 -62 62z" />
    <glyph glyph-name="Gcommaaccent" unicode="&#x122;" horiz-adv-x="809" 
d="M387 44c112 0 195 62 195 178c0 53 -19 78 -85 78l9 39h274l-10 -39c-57 0 -71 -8 -104 -134c-10 -39 -22 -78 -23 -117c-61 -10 -131 -59 -278 -59c-180 0 -292 120 -292 311c0 253 210 479 445 479c72 0 135 -19 200 -60l37 50h37l-36 -220h-38
c-13 122 -72 178 -192 178c-187 0 -332 -188 -332 -428c0 -170 66 -256 193 -256zM309 -250l-22 26c45 25 65 49 65 78c-6 -5 -15 -8 -26 -8c-26 0 -44 19 -44 47c0 31 24 53 59 53c40 0 63 -29 63 -79c0 -43 -26 -80 -95 -117z" />
    <glyph glyph-name="gcommaaccent" unicode="&#x123;" horiz-adv-x="550" 
d="M377 847l22 -26c-45 -25 -65 -49 -65 -78c6 5 15 8 26 8c26 0 44 -19 44 -47c0 -31 -24 -53 -59 -53c-40 0 -63 29 -63 79c0 43 26 80 95 117zM435 -73c0 -115 -103 -187 -265 -187c-146 0 -245 57 -245 141c0 54 40 95 94 95c16 0 29 -3 51 -14c-36 -15 -56 -46 -56 -87
c0 -56 61 -90 159 -90c108 0 184 52 184 98c0 37 -47 70 -128 84c-145 25 -211 54 -211 114c0 38 29 63 117 89l2 4c-51 36 -76 81 -76 139c0 124 109 228 238 228c51 0 90 -17 124 -54c31 35 61 53 91 53c42 0 80 -31 80 -65c0 -27 -20 -47 -47 -47c-41 0 -36 42 -72 42
c-9 0 -14 -2 -35 -16c7 -18 9 -33 9 -58c0 -146 -87 -238 -229 -249c-63 -5 -89 -15 -89 -36c0 -83 304 -24 304 -184zM225 191c64 0 129 111 129 223c0 53 -26 87 -65 87c-62 0 -134 -120 -134 -225c0 -50 28 -85 70 -85z" />
    <glyph glyph-name="Hcircumflex" unicode="&#x124;" horiz-adv-x="911" 
d="M820 566l-105 -398c-8 -29 -12 -52 -12 -70c0 -45 27 -58 91 -58l-12 -40h-319l11 40c79 0 109 20 135 118l55 209h-388l-52 -199c-8 -29 -12 -52 -12 -70c0 -45 27 -58 91 -58l-12 -40h-319l11 40c79 0 109 20 135 118l117 442c10 37 15 63 15 82c0 41 -27 48 -99 48
l11 40h325l-11 -40c-88 0 -111 -28 -147 -164l-39 -148h388l48 182c10 37 15 63 15 82c0 41 -27 48 -99 48l11 40h325l-11 -40c-88 0 -111 -28 -147 -164zM571 960h110l80 -109h-45l-105 54l-133 -54h-45z" />
    <glyph glyph-name="hcircumflex" unicode="&#x125;" horiz-adv-x="574" 
d="M437 780h90l64 -129h-45l-81 68l-117 -68h-45zM356 311c23 68 32 104 32 134c0 31 -9 42 -33 42c-82 0 -157 -124 -255 -418l-23 -69h-84l198 678c9 33 15 60 15 74c0 27 -21 36 -89 38l7 40h204l-114 -386l3 -2c43 62 101 98 162 98c63 0 98 -39 98 -109
c0 -44 -13 -102 -41 -178c-52 -145 -55 -153 -55 -165c0 -15 6 -23 19 -23c27 0 69 34 109 89l28 -21c-42 -78 -133 -143 -200 -143c-36 0 -51 19 -51 63c0 45 12 91 70 258z" />
    <glyph glyph-name="Hbar" unicode="&#x126;" horiz-adv-x="913" 
d="M929 541h-114l-98 -373c-8 -29 -12 -52 -12 -70c0 -45 27 -58 91 -58l-12 -40h-319l11 40c79 0 109 20 135 118l55 209h-388l-52 -199c-8 -29 -12 -52 -12 -70c0 -45 27 -58 91 -58l-12 -40h-319l11 40c79 0 109 20 135 118l101 383h-106l13 50h106l3 9
c10 37 15 63 15 82c0 41 -27 48 -99 48l11 40h325l-11 -40c-83 0 -108 -25 -140 -139h387l3 9c10 37 15 63 15 82c0 41 -27 48 -99 48l11 40h325l-11 -40c-83 0 -108 -25 -140 -139h113zM292 418h388l32 123h-388z" />
    <glyph glyph-name="hbar" unicode="&#x127;" horiz-adv-x="574" 
d="M356 311c23 68 32 104 32 134c0 31 -9 42 -33 42c-82 0 -157 -124 -255 -418l-23 -69h-84l184 630h-88l13 50h89c9 32 15 58 15 72c0 27 -21 36 -89 38l7 40h204l-45 -150h119l-13 -50h-120l-55 -186l3 -2c43 62 101 98 162 98c63 0 98 -39 98 -109
c0 -44 -13 -102 -41 -178c-52 -145 -55 -153 -55 -165c0 -15 6 -23 19 -23c27 0 69 34 109 89l28 -21c-42 -78 -133 -143 -200 -143c-36 0 -51 19 -51 63c0 45 12 91 70 258z" />
    <glyph glyph-name="Itilde" unicode="&#x128;" horiz-adv-x="420" 
d="M329 566l-105 -398c-8 -29 -12 -52 -12 -70c0 -45 27 -58 91 -58l-12 -40h-319l11 40c79 0 109 20 135 118l117 442c10 37 15 63 15 82c0 41 -27 48 -99 48l11 40h325l-11 -40c-88 0 -111 -28 -147 -164zM222 846h-34c11 67 54 114 105 114c60 0 111 -46 159 -46
c22 0 35 12 44 42h33c-7 -60 -46 -118 -99 -118c-59 0 -122 48 -166 48c-22 0 -33 -11 -42 -40z" />
    <glyph glyph-name="itilde" unicode="&#x129;" horiz-adv-x="344" 
d="M86 202l45 128c19 52 26 83 26 101s-7 23 -14 23c-28 0 -76 -64 -87 -85l-29 18c31 60 124 153 193 153c33 0 50 -17 50 -67c0 -39 -25 -100 -63 -204l-37 -101c-5 -14 -21 -59 -21 -78c0 -12 6 -23 21 -23c39 0 92 77 107 104l30 -17c-32 -65 -112 -164 -200 -164
c-39 0 -58 19 -58 65c0 38 13 79 37 147zM127 660h-34c11 67 54 114 105 114c20 0 47 -7 86 -24s56 -22 73 -22c22 0 35 12 44 42h33c-3 -27 -16 -61 -32 -82c-17 -23 -41 -36 -67 -36c-18 0 -37 6 -84 25c-45 17 -66 23 -82 23c-22 0 -33 -11 -42 -40z" />
    <glyph glyph-name="Imacron" unicode="&#x12a;" horiz-adv-x="420" 
d="M329 566l-105 -398c-8 -29 -12 -52 -12 -70c0 -45 27 -58 91 -58l-12 -40h-319l11 40c79 0 109 20 135 118l117 442c10 37 15 63 15 82c0 41 -27 48 -99 48l11 40h325l-11 -40c-88 0 -111 -28 -147 -164zM488 880h-270l13 50h270z" />
    <glyph glyph-name="imacron" unicode="&#x12b;" horiz-adv-x="344" 
d="M86 202l45 128c19 52 26 83 26 101s-7 23 -14 23c-28 0 -76 -64 -87 -85l-29 18c31 60 124 153 193 153c33 0 50 -17 50 -67c0 -39 -25 -100 -63 -204l-37 -101c-5 -14 -21 -59 -21 -78c0 -12 6 -23 21 -23c39 0 92 77 107 104l30 -17c-32 -65 -112 -164 -200 -164
c-39 0 -58 19 -58 65c0 38 13 79 37 147zM392 702h-270l13 50h270z" />
    <glyph glyph-name="Ibreve" unicode="&#x12c;" horiz-adv-x="420" 
d="M329 566l-105 -398c-8 -29 -12 -52 -12 -70c0 -45 27 -58 91 -58l-12 -40h-319l11 40c79 0 109 20 135 118l117 442c10 37 15 63 15 82c0 41 -27 48 -99 48l11 40h325l-11 -40c-88 0 -111 -28 -147 -164zM484 960h37c-23 -67 -94 -115 -169 -115c-67 0 -110 37 -110 90
c0 8 1 16 3 25h36c3 -28 39 -46 89 -46s95 18 114 46z" />
    <glyph glyph-name="ibreve" unicode="&#x12d;" horiz-adv-x="344" 
d="M86 202l45 128c19 52 26 83 26 101s-7 23 -14 23c-28 0 -76 -64 -87 -85l-29 18c31 60 124 153 193 153c33 0 50 -17 50 -67c0 -39 -25 -100 -63 -204l-37 -101c-5 -14 -21 -59 -21 -78c0 -12 6 -23 21 -23c39 0 92 77 107 104l30 -17c-32 -65 -112 -164 -200 -164
c-39 0 -58 19 -58 65c0 38 13 79 37 147zM382 776h37c-25 -76 -98 -130 -173 -130c-66 0 -107 40 -107 98c0 10 1 21 4 32h36c2 -37 36 -61 85 -61c50 0 97 24 118 61z" />
    <glyph glyph-name="Iogonek" unicode="&#x12e;" horiz-adv-x="420" 
d="M183 -121l29 -31c-41 -53 -97 -82 -157 -82c-61 0 -97 32 -97 85c0 58 45 112 125 149h-111l11 40c79 0 109 20 135 118l117 442c10 37 15 63 15 82c0 41 -27 48 -99 48l11 40h325l-11 -40c-88 0 -111 -28 -147 -164l-105 -398c-8 -29 -12 -52 -12 -70
c0 -45 27 -58 91 -58l-12 -40h-143c-66 -35 -111 -86 -111 -126c0 -27 23 -48 51 -48c25 0 60 19 95 53z" />
    <glyph glyph-name="iogonek" unicode="&#x12f;" horiz-adv-x="343" 
d="M166 -121l29 -31c-41 -53 -97 -82 -157 -82c-61 0 -97 32 -97 85c0 58 47 113 127 150c-13 10 -19 27 -19 54c0 38 13 79 37 147l45 128c19 52 26 83 26 101s-7 23 -14 23c-28 0 -76 -64 -87 -85l-29 18c31 60 124 153 193 153c33 0 50 -17 50 -67
c0 -39 -26 -102 -63 -204l-37 -101c-5 -14 -21 -59 -21 -78c0 -12 6 -23 21 -23c39 0 92 77 107 104l30 -17c-31 -64 -108 -159 -194 -164c-56 -34 -93 -80 -93 -116c0 -27 23 -48 51 -48c25 0 60 19 95 53zM278 704c-33 0 -62 25 -62 61s27 65 62 65c37 0 64 -30 64 -64
c0 -35 -29 -62 -64 -62z" />
    <glyph glyph-name="Idotaccent" unicode="&#x130;" horiz-adv-x="420" 
d="M329 566l-105 -398c-8 -29 -12 -52 -12 -70c0 -45 27 -58 91 -58l-12 -40h-319l11 40c79 0 109 20 135 118l117 442c10 37 15 63 15 82c0 41 -27 48 -99 48l11 40h325l-11 -40c-88 0 -111 -28 -147 -164zM316 904c0 31 24 55 52 55c31 0 55 -24 55 -55
c0 -28 -24 -52 -55 -52c-28 0 -52 24 -52 52z" />
    <glyph glyph-name="dotlessi" unicode="&#x131;" horiz-adv-x="344" 
d="M86 202l45 128c19 52 26 83 26 101s-7 23 -14 23c-28 0 -76 -64 -87 -85l-29 18c31 60 124 153 193 153c33 0 50 -17 50 -67c0 -39 -25 -100 -63 -204l-37 -101c-5 -14 -21 -59 -21 -78c0 -12 6 -23 21 -23c39 0 92 77 107 104l30 -17c-32 -65 -112 -164 -200 -164
c-39 0 -58 19 -58 65c0 38 13 79 37 147z" />
    <glyph glyph-name="IJ" unicode="&#x132;" horiz-adv-x="963" 
d="M329 566l-105 -398c-8 -29 -12 -52 -12 -70c0 -45 27 -58 91 -58l-12 -40h-319l11 40c79 0 109 20 135 118l117 442c10 37 15 63 15 82c0 41 -27 48 -99 48l11 40h325l-11 -40c-88 0 -111 -28 -147 -164zM554 43c65 0 118 66 148 179l99 378c10 37 15 64 15 82
c0 38 -22 48 -109 48l11 40h325l-11 -40c-81 0 -101 -26 -137 -164l-100 -380c-33 -126 -121 -196 -240 -196c-101 0 -158 48 -158 131c0 63 38 110 88 110c36 0 62 -24 62 -58c0 -50 -52 -51 -52 -86c0 -26 25 -44 59 -44z" />
    <glyph glyph-name="ij" unicode="&#x133;" horiz-adv-x="643" 
d="M86 202l45 128c19 52 26 83 26 101s-7 23 -14 23c-28 0 -76 -64 -87 -85l-29 18c31 60 124 153 193 153c33 0 50 -17 50 -67c0 -39 -26 -102 -63 -204l-37 -101c-5 -14 -21 -59 -21 -78c0 -12 6 -23 21 -23c39 0 92 77 107 104l30 -17c-32 -65 -112 -164 -200 -164
c-39 0 -58 19 -58 65c0 38 13 79 37 147zM278 704c-33 0 -62 25 -62 61s27 65 62 65c37 0 64 -30 64 -64c0 -35 -29 -62 -64 -62zM581 704c-33 0 -62 25 -62 61s27 65 62 65c37 0 64 -30 64 -64c0 -35 -29 -62 -64 -62zM355 -113l111 444c13 52 21 84 21 103
c0 13 -4 20 -15 20c-29 0 -75 -64 -86 -85l-29 18c31 60 124 153 193 153c35 0 50 -18 50 -56c0 -44 -20 -116 -48 -217l-83 -301c-32 -114 -125 -226 -220 -226c-55 0 -96 33 -96 76c0 36 18 59 49 59c55 0 44 -75 82 -75c32 0 58 35 71 87z" />
    <glyph glyph-name="Jcircumflex" unicode="&#x134;" horiz-adv-x="543" 
d="M134 43c65 0 118 66 148 179l99 378c10 37 15 64 15 82c0 38 -22 48 -109 48l11 40h325l-11 -40c-81 0 -101 -26 -137 -164l-100 -380c-33 -126 -121 -196 -240 -196c-101 0 -158 48 -158 131c0 63 38 110 88 110c36 0 62 -24 62 -58c0 -50 -52 -51 -52 -86
c0 -26 25 -44 59 -44zM455 960h110l80 -109h-45l-105 54l-133 -54h-45z" />
    <glyph glyph-name="jcircumflex" unicode="&#x135;" horiz-adv-x="299" 
d="M11 -113l111 444c13 52 21 84 21 103c0 13 -4 20 -15 20c-29 0 -75 -64 -86 -85l-29 18c31 60 124 153 193 153c35 0 50 -18 50 -56c0 -44 -20 -116 -48 -217l-83 -301c-32 -114 -125 -226 -220 -226c-55 0 -96 33 -96 76c0 36 18 59 49 59c55 0 44 -75 82 -75
c32 0 58 35 71 87zM228 780h90l84 -129h-45l-101 68l-137 -68h-45z" />
    <glyph glyph-name="Kcommaaccent" unicode="&#x136;" horiz-adv-x="825" 
d="M328 566l-37 -139l207 148c84 60 121 102 121 127c0 19 -24 28 -67 28l10 40h284l-10 -40c-43 0 -74 -29 -284 -177l-154 -108l196 -258c107 -142 120 -147 174 -147l-11 -40h-314l11 40c47 0 74 5 74 28c0 19 -18 52 -57 105l-158 212l-40 -28l-50 -189
c-8 -29 -12 -52 -12 -70c0 -45 30 -58 101 -58l-12 -40h-319l11 40c74 0 99 20 125 118l117 442c10 37 15 63 15 82c0 41 -27 48 -99 48l11 40h325l-11 -40c-88 0 -111 -28 -147 -164zM326 -250l-22 26c45 25 65 49 65 78c-6 -5 -15 -8 -26 -8c-26 0 -44 19 -44 47
c0 31 24 53 59 53c40 0 63 -29 63 -79c0 -43 -26 -80 -95 -117z" />
    <glyph glyph-name="kcommaaccent" unicode="&#x137;" horiz-adv-x="513" 
d="M357 80c20 0 47 25 82 75l26 -14c-48 -100 -98 -151 -149 -151c-32 0 -49 19 -74 78l-67 160l-22 -10l-63 -218h-91l193 717c5 19 7 29 7 37c0 28 -20 36 -93 36l9 30l199 10l-104 -385l4 -1c38 64 88 97 147 97c62 0 101 -32 101 -83c0 -62 -66 -129 -176 -179l-26 -12
l51 -132c14 -38 28 -55 46 -55zM162 268c116 40 200 110 200 164c0 26 -15 41 -41 41c-55 0 -129 -95 -159 -205zM130 -250l-22 26c45 25 65 49 65 78c-6 -5 -15 -8 -26 -8c-26 0 -44 19 -44 47c0 31 24 53 59 53c40 0 63 -29 63 -79c0 -43 -26 -80 -95 -117z" />
    <glyph glyph-name="kgreenlandic" unicode="&#x138;" horiz-adv-x="542" 
d="M386 80c20 0 47 25 82 75l26 -14c-48 -100 -98 -151 -149 -151c-32 0 -49 18 -74 78l-67 160l-22 -10l-63 -218h-91l115 427c5 19 7 29 7 37c0 28 -20 36 -93 36l9 30l199 10l-26 -95l4 -1c38 64 88 97 147 97c62 0 101 -32 101 -83c0 -62 -66 -129 -176 -179l-26 -12
l51 -132c14 -38 28 -55 46 -55zM191 268c116 40 200 110 200 164c0 26 -15 41 -41 41c-55 0 -129 -95 -159 -205z" />
    <glyph glyph-name="Lacute" unicode="&#x139;" horiz-adv-x="702" 
d="M-25 0l11 40c87 0 110 23 134 118l113 442c9 37 15 63 15 82c0 41 -27 48 -99 48l11 40h325l-11 -40c-88 0 -111 -28 -147 -164l-104 -396c-6 -22 -9 -40 -9 -56c0 -48 29 -71 112 -71c159 0 226 50 283 188h47l-88 -231h-593zM284 850h-60l150 77c43 22 69 33 96 33
c19 0 30 -9 30 -25c0 -27 -32 -45 -89 -57z" />
    <glyph glyph-name="lacute" unicode="&#x13a;" horiz-adv-x="313" 
d="M50 202l133 489c6 24 15 52 15 64c0 24 -24 35 -76 35l8 30l183 9l-179 -657c-10 -36 -16 -63 -16 -82c0 -12 6 -23 21 -23c43 0 101 84 117 114l30 -17c-41 -91 -133 -174 -195 -174c-46 0 -68 19 -68 65c0 27 7 69 27 147zM229 850h-60l150 77c43 22 69 33 96 33
c19 0 30 -9 30 -25c0 -27 -32 -45 -89 -57z" />
    <glyph glyph-name="Lcommaaccent" unicode="&#x13b;" horiz-adv-x="702" 
d="M-25 0l11 40c87 0 110 23 134 118l113 442c9 37 15 63 15 82c0 41 -27 48 -99 48l11 40h325l-11 -40c-88 0 -111 -28 -147 -164l-104 -396c-6 -22 -9 -40 -9 -56c0 -48 29 -71 112 -71c159 0 226 50 283 188h47l-88 -231h-593zM246 -250l-22 26c45 25 65 49 65 78
c-6 -5 -15 -8 -26 -8c-26 0 -44 19 -44 47c0 31 24 53 59 53c40 0 63 -29 63 -79c0 -43 -26 -80 -95 -117z" />
    <glyph glyph-name="lcommaaccent" unicode="&#x13c;" horiz-adv-x="313" 
d="M50 202l133 489c6 24 15 52 15 64c0 24 -24 35 -76 35l8 30l183 9l-179 -657c-10 -36 -16 -63 -16 -82c0 -12 6 -23 21 -23c43 0 101 84 117 114l30 -17c-41 -91 -133 -174 -195 -174c-46 0 -68 19 -68 65c0 27 7 69 27 147zM23 -250l-22 26c45 25 65 49 65 78
c-6 -5 -15 -8 -26 -8c-26 0 -44 19 -44 47c0 31 24 53 59 53c40 0 63 -29 63 -79c0 -43 -26 -80 -95 -117z" />
    <glyph glyph-name="Lcaron" unicode="&#x13d;" horiz-adv-x="702" 
d="M-25 0l11 40c87 0 110 23 134 118l113 442c9 37 15 63 15 82c0 41 -27 48 -99 48l11 40h325l-11 -40c-88 0 -111 -28 -147 -164l-104 -396c-6 -22 -9 -40 -9 -56c0 -48 29 -71 112 -71c159 0 226 50 283 188h47l-88 -231h-593zM379 851h-110l-80 109h45l105 -54l133 54
h45z" />
    <glyph glyph-name="lcaron" unicode="&#x13e;" horiz-adv-x="313" 
d="M50 202l133 489c6 24 15 52 15 64c0 24 -24 35 -76 35l8 30l183 9l-179 -657c-10 -36 -16 -63 -16 -82c0 -12 6 -23 21 -23c43 0 101 84 117 114l30 -17c-41 -91 -133 -174 -195 -174c-46 0 -68 19 -68 65c0 27 7 69 27 147zM344 584l-15 26c52 25 78 49 86 78
c-7 -5 -17 -8 -28 -8c-21 0 -33 12 -33 31c0 39 35 69 75 69c30 0 46 -17 46 -47c0 -56 -34 -104 -131 -149z" />
    <glyph glyph-name="Ldot" unicode="&#x13f;" horiz-adv-x="702" 
d="M-25 0l11 40c87 0 110 23 134 118l113 442c9 37 15 63 15 82c0 41 -27 48 -99 48l11 40h325l-11 -40c-88 0 -111 -28 -147 -164l-104 -396c-6 -22 -9 -40 -9 -56c0 -48 29 -71 112 -71c159 0 226 50 283 188h47l-88 -231h-593zM416 400c0 35 27 62 62 62s62 -27 62 -62
s-27 -62 -62 -62s-62 27 -62 62z" />
    <glyph glyph-name="ldot" unicode="&#x140;" horiz-adv-x="374" 
d="M50 202l133 489c6 24 15 52 15 64c0 24 -24 35 -76 35l8 30l183 9l-179 -657c-10 -36 -16 -63 -16 -82c0 -12 6 -23 21 -23c43 0 101 84 117 114l30 -17c-41 -91 -133 -174 -195 -174c-46 0 -68 19 -68 65c0 27 7 69 27 147zM289 430c0 35 27 62 62 62s62 -27 62 -62
s-27 -62 -62 -62s-62 27 -62 62z" />
    <glyph glyph-name="Lslash" unicode="&#x141;" horiz-adv-x="704" 
d="M-23 0l11 40c87 0 110 23 134 118l47 186l-86 -46l17 65l86 45l49 192c9 37 15 63 15 82c0 41 -27 48 -99 48l11 40h325l-11 -40c-88 0 -111 -28 -147 -164l-25 -95l107 57l-17 -65l-107 -57l-62 -236c-6 -22 -9 -40 -9 -56c0 -48 29 -71 112 -71c159 0 226 50 283 188
h47l-88 -231h-593z" />
    <glyph glyph-name="lslash" unicode="&#x142;" horiz-adv-x="328" 
d="M65 202l53 197l-90 -48l17 65l91 49l62 226c6 24 15 52 15 64c0 24 -24 35 -76 35l8 30l183 9l-84 -307l95 51l-17 -65l-96 -51l-77 -285c-10 -36 -16 -63 -16 -82c0 -12 6 -23 21 -23c43 0 101 84 117 114l30 -17c-41 -91 -133 -174 -195 -174c-46 0 -68 19 -68 65
c0 27 7 69 27 147z" />
    <glyph glyph-name="Nacute" unicode="&#x143;" horiz-adv-x="842" 
d="M620 0h-40l-262 602h-4l-114 -434c-4 -16 -6 -30 -6 -43c0 -55 36 -84 95 -85l-12 -40h-286l11 40c62 0 117 50 135 118l118 444c3 11 4 21 4 31c0 63 -59 96 -147 97l12 40h235l250 -573h4l106 405c3 13 5 26 5 37c0 57 -37 90 -84 91l12 40h256l-11 -40
c-51 0 -97 -50 -115 -118zM502 850h-60l150 77c43 22 69 33 96 33c19 0 30 -9 30 -25c0 -27 -32 -45 -89 -57z" />
    <glyph glyph-name="nacute" unicode="&#x144;" horiz-adv-x="627" 
d="M425 488c-63 0 -172 -143 -226 -288l-74 -200h-88l74 229c47 146 63 203 63 229c0 17 -6 27 -17 27c-30 0 -84 -80 -110 -161l-30 15c47 136 104 201 178 201c43 0 59 -22 59 -79c0 -34 -5 -63 -17 -91l3 -3c68 119 136 173 218 173c58 0 90 -29 90 -81
c0 -35 -12 -78 -53 -197c-31 -90 -53 -154 -53 -179c0 -10 3 -15 10 -15c19 0 53 29 114 97l26 -14c-43 -79 -143 -161 -196 -161c-33 0 -54 32 -54 80c0 37 8 62 79 263c24 69 31 94 31 118c0 25 -9 37 -27 37zM340 651h-47l130 119c25 23 46 33 67 33c23 0 38 -13 38 -35
c0 -21 -19 -37 -51 -52z" />
    <glyph glyph-name="Ncommaaccent" unicode="&#x145;" horiz-adv-x="842" 
d="M620 0h-40l-262 602h-4l-114 -434c-4 -16 -6 -30 -6 -43c0 -55 36 -84 95 -85l-12 -40h-286l11 40c62 0 117 50 135 118l118 444c3 11 4 21 4 31c0 63 -59 96 -147 97l12 40h235l250 -573h4l106 405c3 13 5 26 5 37c0 57 -37 90 -84 91l12 40h256l-11 -40
c-51 0 -97 -50 -115 -118zM352 -250l-22 26c45 25 65 49 65 78c-6 -5 -15 -8 -26 -8c-26 0 -44 19 -44 47c0 31 24 53 59 53c40 0 63 -29 63 -79c0 -43 -26 -80 -95 -117z" />
    <glyph glyph-name="ncommaaccent" unicode="&#x146;" horiz-adv-x="627" 
d="M425 488c-63 0 -172 -143 -226 -288l-74 -200h-88l74 229c47 146 63 203 63 229c0 17 -6 27 -17 27c-30 0 -84 -80 -110 -161l-30 15c47 136 104 201 178 201c43 0 59 -22 59 -79c0 -34 -5 -63 -17 -91l3 -3c68 119 136 173 218 173c58 0 90 -29 90 -81
c0 -35 -12 -78 -53 -197c-31 -90 -53 -154 -53 -179c0 -10 3 -15 10 -15c19 0 53 29 114 97l26 -14c-43 -79 -143 -161 -196 -161c-33 0 -54 32 -54 80c0 37 8 62 79 263c24 69 31 94 31 118c0 25 -9 37 -27 37zM202 -250l-22 26c45 25 65 49 65 78c-6 -5 -15 -8 -26 -8
c-26 0 -44 19 -44 47c0 31 24 53 59 53c40 0 63 -29 63 -79c0 -43 -26 -80 -95 -117z" />
    <glyph glyph-name="Ncaron" unicode="&#x147;" horiz-adv-x="842" 
d="M620 0h-40l-262 602h-4l-114 -434c-4 -16 -6 -30 -6 -43c0 -55 36 -84 95 -85l-12 -40h-286l11 40c62 0 117 50 135 118l118 444c3 11 4 21 4 31c0 63 -59 96 -147 97l12 40h235l250 -573h4l106 405c3 13 5 26 5 37c0 57 -37 90 -84 91l12 40h256l-11 -40
c-51 0 -97 -50 -115 -118zM597 851h-110l-80 109h45l105 -54l133 54h45z" />
    <glyph glyph-name="ncaron" unicode="&#x148;" horiz-adv-x="627" 
d="M425 488c-63 0 -172 -143 -226 -288l-74 -200h-88l74 229c47 146 63 203 63 229c0 17 -6 27 -17 27c-30 0 -84 -80 -110 -161l-30 15c47 136 104 201 178 201c43 0 59 -22 59 -79c0 -34 -5 -63 -17 -91l3 -3c68 119 136 173 218 173c58 0 90 -29 90 -81
c0 -35 -12 -78 -53 -197c-31 -90 -53 -154 -53 -179c0 -10 3 -15 10 -15c19 0 53 29 114 97l26 -14c-43 -79 -143 -161 -196 -161c-33 0 -54 32 -54 80c0 37 8 62 79 263c24 69 31 94 31 118c0 25 -9 37 -27 37zM410 651h-90l-84 129h45l101 -68l137 68h45z" />
    <glyph glyph-name="napostrophe" unicode="&#x149;" horiz-adv-x="789" 
d="M566 488c-63 0 -172 -143 -226 -288l-74 -200h-88l74 229c47 146 63 203 63 229c0 17 -6 27 -17 27c-30 0 -84 -80 -110 -161l-30 15c47 136 104 201 178 201c43 0 59 -22 59 -79c0 -34 -5 -63 -17 -91l3 -3c68 119 136 173 218 173c58 0 90 -29 90 -81
c0 -35 -12 -78 -53 -197c-31 -90 -53 -154 -53 -179c0 -10 3 -15 10 -15c19 0 53 29 114 97l26 -14c-43 -79 -143 -161 -196 -161c-33 0 -54 32 -54 80c0 37 8 62 79 263c24 69 31 94 31 118c0 25 -9 37 -27 37zM157 611h-29c12 140 -3 219 73 219c22 0 35 -14 35 -35
c0 -4 -1 -10 -2 -15c-6 -23 -52 -113 -77 -169z" />
    <glyph glyph-name="Eng" unicode="&#x14a;" horiz-adv-x="842" 
d="M410 -207c61 0 115 66 145 179l14 53l-251 577h-4l-114 -434c-4 -16 -6 -30 -6 -43c0 -55 36 -84 95 -85l-12 -40h-286l11 40c62 0 117 50 135 118l118 444c3 11 4 21 4 31c0 63 -59 96 -147 97l12 40h235l250 -573h4l106 405c3 13 5 26 5 37c0 57 -37 90 -84 91l12 40
h256l-11 -40c-51 0 -97 -50 -115 -118l-177 -676c-34 -132 -102 -196 -205 -196c-86 0 -140 45 -140 117c0 61 38 109 87 109c31 0 53 -22 53 -53c0 -44 -42 -44 -42 -77c0 -25 21 -43 52 -43z" />
    <glyph glyph-name="eng" unicode="&#x14b;" horiz-adv-x="590" 
d="M299 -113c144 519 153 553 153 570c0 19 -11 31 -28 31c-62 0 -172 -144 -225 -288l-74 -200h-88l74 229c48 148 63 203 63 230c0 16 -6 26 -17 26c-30 0 -84 -80 -110 -161l-30 15c47 136 104 201 178 201c43 0 59 -22 59 -80c0 -35 -5 -63 -17 -90l3 -3
c67 118 136 173 217 173c58 0 91 -28 91 -79c0 -33 -17 -102 -134 -495c-38 -128 -135 -226 -223 -226c-54 0 -94 33 -94 79c0 34 19 56 49 56c56 0 42 -75 84 -75c28 0 54 33 69 87z" />
    <glyph glyph-name="Omacron" unicode="&#x14c;" horiz-adv-x="820" 
d="M505 780c170 0 279 -121 279 -311c0 -257 -199 -479 -428 -479c-171 0 -282 124 -282 313c0 255 201 477 431 477zM505 728c-174 0 -310 -188 -310 -428c0 -169 61 -256 175 -256c168 0 293 190 293 452c0 159 -50 232 -158 232zM677 880h-270l13 50h270z" />
    <glyph glyph-name="omacron" unicode="&#x14d;" horiz-adv-x="523" 
d="M187 -10c-90 0 -163 75 -163 201c0 174 141 349 287 349c96 0 165 -76 165 -192c0 -168 -145 -358 -289 -358zM193 40c90 0 187 209 187 360c0 70 -27 93 -69 93c-90 0 -182 -203 -182 -351c0 -74 27 -102 64 -102zM511 702h-270l13 50h270z" />
    <glyph glyph-name="Obreve" unicode="&#x14e;" horiz-adv-x="820" 
d="M505 780c170 0 279 -121 279 -311c0 -257 -199 -479 -428 -479c-171 0 -282 124 -282 313c0 255 201 477 431 477zM505 728c-174 0 -310 -188 -310 -428c0 -169 61 -256 175 -256c168 0 293 190 293 452c0 159 -50 232 -158 232zM687 960h37c-23 -67 -94 -115 -169 -115
c-67 0 -110 37 -110 90c0 8 1 16 3 25h36c3 -28 39 -46 89 -46s95 18 114 46z" />
    <glyph glyph-name="obreve" unicode="&#x14f;" horiz-adv-x="523" 
d="M187 -10c-90 0 -163 75 -163 201c0 174 141 349 287 349c96 0 165 -76 165 -192c0 -168 -145 -358 -289 -358zM193 40c90 0 187 209 187 360c0 70 -27 93 -69 93c-90 0 -182 -203 -182 -351c0 -74 27 -102 64 -102zM485 776h37c-25 -76 -98 -130 -173 -130
c-66 0 -107 40 -107 98c0 10 1 21 4 32h36c2 -37 36 -61 85 -61c50 0 97 24 118 61z" />
    <glyph glyph-name="Ohungarumlaut" unicode="&#x150;" horiz-adv-x="820" 
d="M505 780c170 0 279 -121 279 -311c0 -257 -199 -479 -428 -479c-171 0 -282 124 -282 313c0 255 201 477 431 477zM505 728c-174 0 -310 -188 -310 -428c0 -169 61 -256 175 -256c168 0 293 190 293 452c0 159 -50 232 -158 232zM421 850h-60l120 77c36 23 60 33 87 33
c23 0 38 -13 38 -35c0 -21 -30 -36 -75 -47zM608 850h-60l120 77c36 23 60 33 87 33c23 0 38 -13 38 -35c0 -21 -30 -36 -75 -47z" />
    <glyph glyph-name="ohungarumlaut" unicode="&#x151;" horiz-adv-x="523" 
d="M187 -10c-90 0 -163 75 -163 201c0 174 141 349 287 349c96 0 165 -76 165 -192c0 -168 -145 -358 -289 -358zM193 40c90 0 187 209 187 360c0 70 -27 93 -69 93c-90 0 -182 -203 -182 -351c0 -74 27 -102 64 -102zM213 651h-47l130 119c25 23 46 33 67 33
c23 0 38 -13 38 -35c0 -21 -19 -37 -51 -52zM411 651h-47l130 119c25 23 46 33 67 33c23 0 38 -13 38 -35c0 -21 -19 -37 -51 -52z" />
    <glyph glyph-name="OE" unicode="&#x152;" horiz-adv-x="1158" 
d="M585 770h539v-202h-38c-36 132 -78 159 -202 159h-81c-11 0 -19 -7 -19 -17l-68 -283c123 0 157 15 195 115h38l-60 -295h-40c1 21 2 39 2 55c0 69 -23 84 -144 85l-55 -230c-4 -17 -5 -32 -5 -44c1 -53 44 -70 146 -70c141 0 200 50 253 168h47l-78 -211h-614
c-203 0 -333 127 -333 299c0 256 261 471 517 471zM575 730c-177 0 -318 -135 -368 -354c-10 -42 -15 -78 -15 -113c0 -138 83 -221 223 -221c94 0 109 16 131 110l111 466c4 23 8 42 8 56c0 45 -26 56 -90 56z" />
    <glyph glyph-name="oe" unicode="&#x153;" horiz-adv-x="792" 
d="M675 154l32 -21c-57 -94 -131 -143 -214 -143c-66 0 -112 31 -132 88c-50 -53 -112 -88 -174 -88c-90 0 -163 75 -163 201c0 174 141 349 287 349c72 0 128 -43 152 -113c60 67 135 113 207 113c64 0 109 -36 109 -87c0 -93 -149 -204 -327 -244c-3 -19 -4 -37 -4 -55
c0 -71 27 -109 77 -109c49 0 105 41 150 109zM193 40c90 0 187 209 187 360c0 70 -27 93 -69 93c-90 0 -182 -203 -182 -351c0 -74 27 -102 64 -102zM650 493c-69 0 -151 -112 -186 -231l-2 -8c128 35 223 117 223 197c0 28 -12 42 -35 42z" />
    <glyph glyph-name="Racute" unicode="&#x154;" 
d="M280 375l-47 -168c-13 -47 -21 -85 -21 -102c0 -40 38 -60 114 -60l-11 -45h-332l11 40c64 0 103 37 125 119l118 441c9 33 13 58 13 75c0 40 -23 53 -104 55l11 40h278c160 0 258 -64 258 -172c0 -109 -87 -184 -219 -211l74 -183c55 -136 81 -164 168 -164l-11 -40
h-190l-147 375h-88zM351 645l-58 -219h49c140 0 240 64 240 178c0 80 -51 121 -145 121c-54 0 -69 -16 -86 -80zM409 850h-60l150 77c43 22 69 33 96 33c19 0 30 -9 30 -25c0 -27 -32 -45 -89 -57z" />
    <glyph glyph-name="racute" unicode="&#x155;" horiz-adv-x="463" 
d="M47 378l-26 13c30 67 130 149 183 149c32 0 46 -23 46 -76c0 -21 -2 -40 -7 -66l3 -3c33 78 123 155 183 155c38 0 68 -28 68 -64c0 -35 -25 -60 -59 -60c-42 0 -46 37 -70 37c-51 0 -139 -144 -198 -325l-45 -138h-93l65 207c51 159 63 205 63 233c0 15 -5 22 -15 22
c-27 0 -81 -46 -98 -84zM286 651h-47l130 119c25 23 46 33 67 33c23 0 38 -13 38 -35c0 -21 -19 -37 -51 -52z" />
    <glyph glyph-name="Rcommaaccent" unicode="&#x156;" 
d="M280 375l-47 -168c-13 -47 -21 -85 -21 -102c0 -40 38 -60 114 -60l-11 -45h-332l11 40c64 0 103 37 125 119l118 441c9 33 13 58 13 75c0 40 -23 53 -104 55l11 40h278c160 0 258 -64 258 -172c0 -109 -87 -184 -219 -211l74 -183c55 -136 81 -164 168 -164l-11 -40
h-190l-147 375h-88zM351 645l-58 -219h49c140 0 240 64 240 178c0 80 -51 121 -145 121c-54 0 -69 -16 -86 -80zM305 -250l-22 26c45 25 65 49 65 78c-6 -5 -15 -8 -26 -8c-26 0 -44 19 -44 47c0 31 24 53 59 53c40 0 63 -29 63 -79c0 -43 -26 -80 -95 -117z" />
    <glyph glyph-name="rcommaaccent" unicode="&#x157;" horiz-adv-x="463" 
d="M47 378l-26 13c30 67 130 149 183 149c32 0 46 -23 46 -76c0 -21 -2 -40 -7 -66l3 -3c33 78 123 155 183 155c38 0 68 -28 68 -64c0 -35 -25 -60 -59 -60c-42 0 -46 37 -70 37c-51 0 -139 -144 -198 -325l-45 -138h-93l65 207c51 159 63 205 63 233c0 15 -5 22 -15 22
c-27 0 -81 -46 -98 -84zM25 -250l-22 26c45 25 65 49 65 78c-6 -5 -15 -8 -26 -8c-26 0 -44 19 -44 47c0 31 24 53 59 53c40 0 63 -29 63 -79c0 -43 -26 -80 -95 -117z" />
    <glyph glyph-name="Rcaron" unicode="&#x158;" 
d="M280 375l-47 -168c-13 -47 -21 -85 -21 -102c0 -40 38 -60 114 -60l-11 -45h-332l11 40c64 0 103 37 125 119l118 441c9 33 13 58 13 75c0 40 -23 53 -104 55l11 40h278c160 0 258 -64 258 -172c0 -109 -87 -184 -219 -211l74 -183c55 -136 81 -164 168 -164l-11 -40
h-190l-147 375h-88zM351 645l-58 -219h49c140 0 240 64 240 178c0 80 -51 121 -145 121c-54 0 -69 -16 -86 -80zM504 851h-110l-80 109h45l105 -54l133 54h45z" />
    <glyph glyph-name="rcaron" unicode="&#x159;" horiz-adv-x="463" 
d="M47 378l-26 13c30 67 130 149 183 149c32 0 46 -23 46 -76c0 -21 -2 -40 -7 -66l3 -3c33 78 123 155 183 155c38 0 68 -28 68 -64c0 -35 -25 -60 -59 -60c-42 0 -46 37 -70 37c-51 0 -139 -144 -198 -325l-45 -138h-93l65 207c51 159 63 205 63 233c0 15 -5 22 -15 22
c-27 0 -81 -46 -98 -84zM356 651h-90l-84 129h45l101 -68l137 68h45z" />
    <glyph glyph-name="Sacute" unicode="&#x15a;" horiz-adv-x="598" 
d="M538 713l20 42h30l-42 -197h-34c-4 120 -42 171 -127 171c-82 0 -141 -49 -141 -117c0 -144 273 -173 273 -378c0 -135 -113 -244 -254 -244c-74 0 -136 28 -191 86l-21 -76h-35l42 254h33c9 -137 70 -211 173 -211c95 0 164 59 164 139c0 167 -282 205 -282 390
c0 115 105 208 236 208c62 0 110 -21 156 -67zM355 850h-60l150 77c43 22 69 33 96 33c19 0 30 -9 30 -25c0 -27 -32 -45 -89 -57z" />
    <glyph glyph-name="sacute" unicode="&#x15b;" horiz-adv-x="381" 
d="M77 387c0 88 70 153 166 153c64 0 112 -36 112 -86c0 -28 -17 -45 -43 -45c-61 0 -42 88 -92 88c-29 0 -52 -29 -52 -66c0 -89 126 -142 126 -276c0 -90 -85 -165 -176 -165c-79 0 -131 38 -131 94c0 38 20 62 50 62c28 0 45 -20 49 -59c4 -43 11 -53 41 -53
c48 0 78 31 78 81c0 108 -128 151 -128 272zM239 651h-47l130 119c25 23 46 33 67 33c23 0 38 -13 38 -35c0 -21 -19 -37 -51 -52z" />
    <glyph glyph-name="Scircumflex" unicode="&#x15c;" horiz-adv-x="598" 
d="M538 713l20 42h30l-42 -197h-34c-4 120 -42 171 -127 171c-82 0 -141 -49 -141 -117c0 -144 273 -173 273 -378c0 -135 -113 -244 -254 -244c-74 0 -136 28 -191 86l-21 -76h-35l42 254h33c9 -137 70 -211 173 -211c95 0 164 59 164 139c0 167 -282 205 -282 390
c0 115 105 208 236 208c62 0 110 -21 156 -67zM379 960h110l80 -109h-45l-105 54l-133 -54h-45z" />
    <glyph glyph-name="scircumflex" unicode="&#x15d;" horiz-adv-x="381" 
d="M77 387c0 88 70 153 166 153c64 0 112 -36 112 -86c0 -28 -17 -45 -43 -45c-61 0 -42 88 -92 88c-29 0 -52 -29 -52 -66c0 -89 126 -142 126 -276c0 -90 -85 -165 -176 -165c-79 0 -131 38 -131 94c0 38 20 62 50 62c28 0 45 -20 49 -59c4 -43 11 -53 41 -53
c48 0 78 31 78 81c0 108 -128 151 -128 272zM254 780h90l84 -129h-45l-101 68l-137 -68h-45z" />
    <glyph glyph-name="uni015E" unicode="&#x15e;" horiz-adv-x="598" 
d="M538 713l20 42h30l-42 -197h-34c-4 120 -42 171 -127 171c-82 0 -141 -49 -141 -117c0 -144 273 -173 273 -378c0 -132 -108 -239 -245 -244l-40 -62c67 0 104 -22 104 -63c0 -69 -77 -125 -152 -125c-59 0 -99 27 -99 63c0 28 18 49 41 49c33 0 13 -69 60 -69
c32 0 65 27 65 63c0 27 -24 41 -67 41c-13 0 -29 -1 -35 -2l-1 3l72 106c-56 8 -104 35 -148 82l-21 -76h-35l42 254h33c9 -137 70 -211 173 -211c95 0 164 59 164 139c0 167 -282 205 -282 390c0 115 105 208 236 208c62 0 110 -21 156 -67z" />
    <glyph glyph-name="uni015F" unicode="&#x15f;" horiz-adv-x="381" 
d="M77 387c0 88 70 153 166 153c64 0 112 -36 112 -86c0 -28 -17 -45 -43 -45c-61 0 -42 88 -92 88c-29 0 -52 -29 -52 -66c0 -89 126 -142 126 -276c0 -90 -85 -165 -176 -165h-5l-40 -62c67 0 104 -22 104 -63c0 -69 -77 -125 -152 -125c-59 0 -99 27 -99 63
c0 28 18 49 41 49c33 0 13 -69 60 -69c32 0 65 27 65 63c0 27 -24 41 -67 41c-13 0 -29 -1 -35 -2l-1 3l74 109c-47 13 -76 45 -76 87c0 38 20 62 50 62c28 0 45 -20 49 -59c4 -43 11 -53 41 -53c48 0 78 31 78 81c0 108 -128 151 -128 272z" />
    <glyph glyph-name="Scaron" unicode="&#x160;" horiz-adv-x="598" 
d="M538 713l20 42h30l-42 -197h-34c-4 120 -42 171 -127 171c-82 0 -141 -49 -141 -117c0 -144 273 -173 273 -378c0 -135 -113 -244 -254 -244c-74 0 -136 28 -191 86l-21 -76h-35l42 254h33c9 -137 70 -211 173 -211c95 0 164 59 164 139c0 167 -282 205 -282 390
c0 115 105 208 236 208c62 0 110 -21 156 -67zM458 851h-110l-80 109h45l105 -54l133 54h45z" />
    <glyph glyph-name="scaron" unicode="&#x161;" horiz-adv-x="381" 
d="M77 387c0 88 70 153 166 153c64 0 112 -36 112 -86c0 -28 -17 -45 -43 -45c-61 0 -42 88 -92 88c-29 0 -52 -29 -52 -66c0 -89 126 -142 126 -276c0 -90 -85 -165 -176 -165c-79 0 -131 38 -131 94c0 38 20 62 50 62c28 0 45 -20 49 -59c4 -43 11 -53 41 -53
c48 0 78 31 78 81c0 108 -128 151 -128 272zM309 651h-90l-84 129h45l101 -68l137 68h45z" />
    <glyph glyph-name="uni0162" unicode="&#x162;" horiz-adv-x="780" 
d="M525 610l-118 -442c-8 -30 -16 -52 -16 -70c0 -43 31 -58 115 -58l-12 -40h-126l-46 -72c67 0 104 -22 104 -63c0 -69 -77 -125 -152 -125c-59 0 -99 27 -99 63c0 28 18 49 41 49c33 0 13 -69 60 -69c32 0 65 27 65 63c0 27 -24 41 -67 41c-13 0 -29 -1 -35 -2l-1 3
l77 112h-169l11 40c79 0 117 14 145 118l122 456c6 24 9 44 9 60c0 38 -17 54 -55 54c-117 0 -203 -63 -260 -171h-40l95 213h668l-20 -213h-38c0 128 -48 171 -141 171c-66 0 -92 -22 -117 -118z" />
    <glyph glyph-name="uni0163" unicode="&#x163;" horiz-adv-x="365" 
d="M344 447h-109l-83 -275c-11 -36 -17 -63 -18 -82c0 -12 5 -23 20 -23c47 0 113 84 131 114l29 -17c-41 -80 -121 -154 -184 -170l-42 -66c67 0 104 -22 104 -63c0 -69 -77 -125 -152 -125c-59 0 -99 27 -99 63c0 28 18 49 41 49c33 0 13 -69 60 -69c32 0 65 27 65 63
c0 27 -24 41 -67 41c-13 0 -29 -1 -35 -2l-1 3l72 105c-26 7 -38 27 -38 62c0 26 8 69 31 147l74 245h-86l13 46h87l52 172h92l-52 -172h109z" />
    <glyph glyph-name="Tcaron" unicode="&#x164;" horiz-adv-x="780" 
d="M525 610l-118 -442c-8 -30 -16 -52 -16 -70c0 -43 31 -58 115 -58l-12 -40h-348l11 40c79 0 117 14 145 118l122 456c6 24 9 44 9 60c0 38 -17 54 -55 54c-117 0 -203 -63 -260 -171h-40l95 213h668l-20 -213h-38c0 128 -48 171 -141 171c-66 0 -92 -22 -117 -118z
M587 851h-110l-80 109h45l105 -54l133 54h45z" />
    <glyph glyph-name="tcaron" unicode="&#x165;" horiz-adv-x="365" 
d="M344 447h-109l-83 -275c-11 -36 -17 -63 -18 -82c0 -12 5 -23 20 -23c47 0 113 84 131 114l29 -17c-46 -91 -145 -174 -210 -174c-46 0 -66 19 -66 65c0 26 8 69 31 147l74 245h-86l13 46h87l52 172h92l-52 -172h109zM371 584l-15 26c52 25 78 49 86 78
c-7 -5 -17 -8 -28 -8c-21 0 -33 12 -33 31c0 39 35 69 75 69c30 0 46 -17 46 -47c0 -56 -34 -104 -131 -149z" />
    <glyph glyph-name="Tbar" unicode="&#x166;" horiz-adv-x="797" 
d="M529 610l-43 -161h271l-13 -50h-272l-61 -231c-8 -30 -16 -52 -16 -70c0 -43 31 -58 115 -58l-12 -40h-348l11 40c79 0 117 14 145 118l64 241h-260l13 50h261l44 165c6 24 9 44 9 60c0 38 -17 54 -55 54c-117 0 -203 -63 -260 -171h-40l95 213h668l-20 -213h-38
c0 128 -48 171 -141 171c-66 0 -92 -22 -117 -118z" />
    <glyph glyph-name="tbar" unicode="&#x167;" horiz-adv-x="366" 
d="M345 447h-109l-20 -66h112l-15 -53h-113l-47 -156c-11 -36 -17 -63 -18 -82c0 -12 5 -23 20 -23c47 0 113 84 131 114l29 -17c-46 -91 -145 -174 -210 -174c-46 0 -66 19 -66 65c0 26 8 69 31 147l38 126h-74l15 53h75l20 66h-86l13 46h87l52 172h92l-52 -172h109z" />
    <glyph glyph-name="Utilde" unicode="&#x168;" horiz-adv-x="808" 
d="M134 353l66 246c7 27 13 58 13 77c0 40 -25 54 -94 54l13 40h319l-11 -40c-95 0 -111 -20 -148 -165l-65 -251c-9 -34 -13 -66 -13 -94c0 -106 56 -174 161 -174c132 0 202 104 247 244c41 128 80 334 80 380c0 40 -40 57 -102 60l12 40h263l-12 -40
c-65 0 -84 -18 -110 -138l-43 -200c-57 -264 -171 -402 -343 -402c-169 0 -253 83 -253 229c0 42 7 85 20 134zM406 846h-34c11 67 54 114 105 114c60 0 111 -46 159 -46c22 0 35 12 44 42h33c-7 -60 -46 -118 -99 -118c-59 0 -122 48 -166 48c-22 0 -33 -11 -42 -40z" />
    <glyph glyph-name="utilde" unicode="&#x169;" horiz-adv-x="593" 
d="M169 62c43 0 149 130 200 268l74 200h93l-74 -229c-43 -134 -58 -185 -58 -210c0 -16 6 -26 18 -26c27 0 78 56 104 116l30 -15c-35 -88 -115 -176 -184 -176c-41 0 -53 31 -53 85c0 22 2 50 7 75l-3 3c-71 -127 -136 -163 -194 -163c-62 0 -84 39 -84 90
c0 56 26 128 50 188c48 119 65 162 65 183c0 5 -1 11 -9 11c-17 0 -48 -29 -104 -97l-26 14c40 78 128 161 193 161c32 0 50 -21 50 -58c0 -47 -29 -121 -70 -223c-26 -65 -46 -117 -46 -159c0 -28 9 -38 21 -38zM235 660h-34c11 67 54 114 105 114c20 0 47 -7 86 -24
s56 -22 73 -22c22 0 35 12 44 42h33c-3 -27 -16 -61 -32 -82c-17 -23 -41 -36 -67 -36c-18 0 -37 6 -84 25c-45 17 -66 23 -82 23c-22 0 -33 -11 -42 -40z" />
    <glyph glyph-name="Umacron" unicode="&#x16a;" horiz-adv-x="808" 
d="M134 353l66 246c7 27 13 58 13 77c0 40 -25 54 -94 54l13 40h319l-11 -40c-95 0 -111 -20 -148 -165l-65 -251c-9 -34 -13 -66 -13 -94c0 -106 56 -174 161 -174c132 0 202 104 247 244c41 128 80 334 80 380c0 40 -40 57 -102 60l12 40h263l-12 -40
c-65 0 -84 -18 -110 -138l-43 -200c-57 -264 -171 -402 -343 -402c-169 0 -253 83 -253 229c0 42 7 85 20 134zM671 880h-270l13 50h270z" />
    <glyph glyph-name="umacron" unicode="&#x16b;" horiz-adv-x="593" 
d="M169 62c43 0 149 130 200 268l74 200h93l-74 -229c-43 -134 -58 -185 -58 -210c0 -16 6 -26 18 -26c27 0 78 56 104 116l30 -15c-35 -88 -115 -176 -184 -176c-41 0 -53 31 -53 85c0 22 2 50 7 75l-3 3c-71 -127 -136 -163 -194 -163c-62 0 -84 39 -84 90
c0 56 26 128 50 188c48 119 65 162 65 183c0 5 -1 11 -9 11c-17 0 -48 -29 -104 -97l-26 14c40 78 128 161 193 161c32 0 50 -21 50 -58c0 -47 -29 -121 -70 -223c-26 -65 -46 -117 -46 -159c0 -28 9 -38 21 -38zM500 702h-270l13 50h270z" />
    <glyph glyph-name="Ubreve" unicode="&#x16c;" horiz-adv-x="808" 
d="M134 353l66 246c7 27 13 58 13 77c0 40 -25 54 -94 54l13 40h319l-11 -40c-95 0 -111 -20 -148 -165l-65 -251c-9 -34 -13 -66 -13 -94c0 -106 56 -174 161 -174c132 0 202 104 247 244c41 128 80 334 80 380c0 40 -40 57 -102 60l12 40h263l-12 -40
c-65 0 -84 -18 -110 -138l-43 -200c-57 -264 -171 -402 -343 -402c-169 0 -253 83 -253 229c0 42 7 85 20 134zM659 960h37c-23 -67 -94 -115 -169 -115c-67 0 -110 37 -110 90c0 8 1 16 3 25h36c3 -28 39 -46 89 -46s95 18 114 46z" />
    <glyph glyph-name="ubreve" unicode="&#x16d;" horiz-adv-x="593" 
d="M169 62c43 0 149 130 200 268l74 200h93l-74 -229c-43 -134 -58 -185 -58 -210c0 -16 6 -26 18 -26c27 0 78 56 104 116l30 -15c-35 -88 -115 -176 -184 -176c-41 0 -53 31 -53 85c0 22 2 50 7 75l-3 3c-71 -127 -136 -163 -194 -163c-62 0 -84 39 -84 90
c0 56 26 128 50 188c48 119 65 162 65 183c0 5 -1 11 -9 11c-17 0 -48 -29 -104 -97l-26 14c40 78 128 161 193 161c32 0 50 -21 50 -58c0 -47 -29 -121 -70 -223c-26 -65 -46 -117 -46 -159c0 -28 9 -38 21 -38zM490 776h37c-25 -76 -98 -130 -173 -130
c-66 0 -107 40 -107 98c0 10 1 21 4 32h36c2 -37 36 -61 85 -61c50 0 97 24 118 61z" />
    <glyph glyph-name="Uring" unicode="&#x16e;" horiz-adv-x="808" 
d="M134 353l66 246c7 27 13 58 13 77c0 40 -25 54 -94 54l13 40h319l-11 -40c-95 0 -111 -20 -148 -165l-65 -251c-9 -34 -13 -66 -13 -94c0 -106 56 -174 161 -174c132 0 202 104 247 244c41 128 80 334 80 380c0 40 -40 57 -102 60l12 40h263l-12 -40
c-65 0 -84 -18 -110 -138l-43 -200c-57 -264 -171 -402 -343 -402c-169 0 -253 83 -253 229c0 42 7 85 20 134zM475 878c0 42 41 82 85 82c30 0 50 -19 50 -49c0 -42 -42 -81 -86 -81c-30 0 -49 19 -49 48zM551 928c-23 0 -44 -21 -44 -43c0 -15 10 -24 25 -24
c23 0 45 20 45 42c0 15 -10 25 -26 25z" />
    <glyph glyph-name="uring" unicode="&#x16f;" horiz-adv-x="593" 
d="M169 62c43 0 149 130 200 268l74 200h93l-74 -229c-43 -134 -58 -185 -58 -210c0 -16 6 -26 18 -26c27 0 78 56 104 116l30 -15c-35 -88 -115 -176 -184 -176c-41 0 -53 31 -53 85c0 22 2 50 7 75l-3 3c-71 -127 -136 -163 -194 -163c-62 0 -84 39 -84 90
c0 56 26 128 50 188c48 119 65 162 65 183c0 5 -1 11 -9 11c-17 0 -48 -29 -104 -97l-26 14c40 78 128 161 193 161c32 0 50 -21 50 -58c0 -47 -29 -121 -70 -223c-26 -65 -46 -117 -46 -159c0 -28 9 -38 21 -38zM282 718c0 56 52 112 113 112c42 0 68 -25 68 -62
c0 -61 -56 -112 -115 -112c-41 0 -66 25 -66 62zM385 788c-29 0 -61 -25 -61 -58c0 -20 14 -34 37 -34c29 0 59 27 59 60c0 19 -14 32 -35 32z" />
    <glyph glyph-name="Uhungarumlaut" unicode="&#x170;" horiz-adv-x="808" 
d="M134 353l66 246c7 27 13 58 13 77c0 40 -25 54 -94 54l13 40h319l-11 -40c-95 0 -111 -20 -148 -165l-65 -251c-9 -34 -13 -66 -13 -94c0 -106 56 -174 161 -174c132 0 202 104 247 244c41 128 80 334 80 380c0 40 -40 57 -102 60l12 40h263l-12 -40
c-65 0 -84 -18 -110 -138l-43 -200c-57 -264 -171 -402 -343 -402c-169 0 -253 83 -253 229c0 42 7 85 20 134zM418 850h-60l120 77c36 23 60 33 87 33c23 0 38 -13 38 -35c0 -21 -30 -36 -75 -47zM605 850h-60l120 77c36 23 60 33 87 33c23 0 38 -13 38 -35
c0 -21 -30 -36 -75 -47z" />
    <glyph glyph-name="uhungarumlaut" unicode="&#x171;" horiz-adv-x="593" 
d="M169 62c43 0 149 130 200 268l74 200h93l-74 -229c-43 -134 -58 -185 -58 -210c0 -16 6 -26 18 -26c27 0 78 56 104 116l30 -15c-35 -88 -115 -176 -184 -176c-41 0 -53 31 -53 85c0 22 2 50 7 75l-3 3c-71 -127 -136 -163 -194 -163c-62 0 -84 39 -84 90
c0 56 26 128 50 188c48 119 65 162 65 183c0 5 -1 11 -9 11c-17 0 -48 -29 -104 -97l-26 14c40 78 128 161 193 161c32 0 50 -21 50 -58c0 -47 -29 -121 -70 -223c-26 -65 -46 -117 -46 -159c0 -28 9 -38 21 -38zM234 651h-47l130 119c25 23 46 33 67 33c23 0 38 -13 38 -35
c0 -21 -19 -37 -51 -52zM432 651h-47l130 119c25 23 46 33 67 33c23 0 38 -13 38 -35c0 -21 -19 -37 -51 -52z" />
    <glyph glyph-name="Uogonek" unicode="&#x172;" horiz-adv-x="808" 
d="M404 -121l29 -31c-41 -53 -97 -82 -157 -82c-61 0 -97 32 -97 85c0 56 42 108 116 145c-121 20 -181 99 -181 223c0 42 7 85 20 134l66 246c7 27 13 58 13 77c0 40 -25 54 -94 54l13 40h319l-11 -40c-95 0 -111 -20 -148 -165l-65 -251c-9 -34 -13 -66 -13 -94
c0 -106 56 -174 161 -174c132 0 202 104 247 244c41 128 80 334 80 380c0 40 -40 57 -102 60l12 40h263l-12 -40c-65 0 -84 -18 -110 -138l-43 -200c-57 -264 -171 -402 -343 -402h-15c-57 -34 -94 -80 -94 -116c0 -27 23 -48 51 -48c25 0 60 19 95 53z" />
    <glyph glyph-name="uogonek" unicode="&#x173;" horiz-adv-x="593" 
d="M417 -121l29 -31c-41 -53 -97 -82 -157 -82c-61 0 -97 32 -97 85c0 62 52 119 141 156c-10 14 -14 37 -14 68c0 22 2 50 7 75l-3 3c-71 -127 -136 -163 -194 -163c-62 0 -84 39 -84 90c0 56 26 128 50 188c48 119 65 162 65 183c0 5 -1 11 -9 11c-17 0 -48 -29 -104 -97
l-26 14c40 78 128 161 193 161c32 0 50 -21 50 -58c0 -47 -29 -121 -70 -223c-26 -65 -46 -117 -46 -159c0 -28 9 -38 21 -38c43 0 149 130 200 268l74 200h93l-74 -229c-43 -134 -58 -185 -58 -210c0 -16 6 -26 18 -26c27 0 78 56 104 116l30 -15
c-35 -88 -115 -176 -184 -176h-7c-57 -34 -94 -80 -94 -116c0 -27 23 -48 51 -48c25 0 60 19 95 53z" />
    <glyph glyph-name="Wcircumflex" unicode="&#x174;" horiz-adv-x="1064" 
d="M588 152l308 394c71 91 106 138 106 161c0 19 -21 23 -63 23l10 40h259l-10 -40c-63 0 -127 -39 -243 -191l-421 -549h-84l108 477l-366 -477h-84l139 614c8 35 12 61 12 77c0 39 -20 49 -93 49l10 40h276l-10 -40c-56 0 -75 -19 -99 -127l-101 -451h4l339 435l4 17
c8 35 12 61 12 77c0 39 -18 49 -83 49l10 40h286l-10 -40c-78 0 -95 -18 -119 -127l-101 -451h4zM642 960h110l80 -109h-45l-105 54l-133 -54h-45z" />
    <glyph glyph-name="wcircumflex" unicode="&#x175;" horiz-adv-x="850" 
d="M407 97c-59 -69 -127 -107 -192 -107c-73 0 -117 50 -117 135c0 83 43 183 129 299l-2 3c-73 0 -88 52 -118 52c-10 0 -16 -6 -16 -17c0 -25 35 -34 35 -66c0 -24 -21 -41 -50 -41c-34 0 -54 23 -54 61c0 65 58 124 123 124c55 0 71 -43 111 -43c11 0 18 3 30 15
c14 15 28 28 47 28c14 0 21 -7 21 -20c0 -9 -4 -14 -41 -57c-77 -90 -120 -207 -120 -295c0 -65 23 -104 61 -104c36 0 86 37 140 101c-3 28 -5 59 -5 83c0 145 72 292 144 292c29 0 57 -24 57 -83c0 -71 -40 -170 -113 -274c12 -63 48 -108 87 -108c74 0 165 154 165 279
c0 62 -23 86 -23 129c0 37 18 57 52 57c41 0 58 -29 58 -100c0 -214 -153 -450 -291 -450c-55 0 -97 37 -118 107zM463 247c35 57 59 115 59 173c0 24 -4 38 -15 38c-26 0 -49 -73 -49 -162c0 -18 1 -34 5 -49zM537 780h90l84 -129h-45l-101 68l-137 -68h-45z" />
    <glyph glyph-name="Ycircumflex" unicode="&#x176;" horiz-adv-x="689" 
d="M440 348l-47 -180c-8 -29 -12 -52 -12 -70c0 -45 30 -58 101 -58l-12 -40h-339l11 40c86 0 119 19 145 118l46 178l-120 288c-40 96 -57 106 -123 106l11 40h281l-11 -40c-50 0 -71 -9 -71 -35c0 -9 2 -22 8 -36l107 -258l139 203c29 42 41 59 41 83c0 28 -28 43 -74 43
l11 40h247l-11 -40c-54 0 -67 -14 -114 -81zM453 960h110l80 -109h-45l-105 54l-133 -54h-45z" />
    <glyph glyph-name="ycircumflex" unicode="&#x177;" horiz-adv-x="515" 
d="M215 11l-54 281c-21 110 -43 145 -67 145c-25 0 -45 -37 -66 -119l-37 10c28 124 89 212 148 212c25 0 41 -16 60 -66c16 -42 36 -115 55 -205l34 -161h4c50 63 110 170 110 251c0 27 -7 88 -7 111c0 48 29 70 56 70c34 0 50 -34 50 -73c0 -109 -127 -361 -260 -533
c-101 -131 -187 -194 -261 -194c-55 0 -91 35 -91 79c0 33 21 56 51 56c54 0 40 -75 78 -75c50 0 167 125 197 211zM302 780h90l84 -129h-45l-101 68l-137 -68h-45z" />
    <glyph glyph-name="Ydieresis" unicode="&#x178;" horiz-adv-x="689" 
d="M440 348l-47 -180c-8 -29 -12 -52 -12 -70c0 -45 30 -58 101 -58l-12 -40h-339l11 40c86 0 119 19 145 118l46 178l-120 288c-40 96 -57 106 -123 106l11 40h281l-11 -40c-50 0 -71 -9 -71 -35c0 -9 2 -22 8 -36l107 -258l139 203c29 42 41 59 41 83c0 28 -28 43 -74 43
l11 40h247l-11 -40c-54 0 -67 -14 -114 -81zM355 910c7 28 35 50 63 50c24 0 40 -16 40 -37c0 -35 -35 -64 -67 -64c-23 0 -38 15 -38 36c0 5 0 10 2 15zM537 910c7 28 35 50 64 50c23 0 39 -16 39 -37c0 -35 -35 -64 -66 -64c-24 0 -39 15 -39 36c0 5 0 10 2 15z" />
    <glyph glyph-name="Zacute" unicode="&#x179;" horiz-adv-x="672" 
d="M696 751l-538 -701h125c126 0 224 46 282 171h43l-84 -221h-531v21l543 701h-101c-159 0 -205 -24 -282 -150h-43l101 198h485v-19zM413 850h-60l150 77c43 22 69 33 96 33c19 0 30 -9 30 -25c0 -27 -32 -45 -89 -57z" />
    <glyph glyph-name="zacute" unicode="&#x17a;" horiz-adv-x="519" 
d="M424 408l-264 -253l2 -3c59 0 126 -67 188 -67c38 0 65 21 89 84l34 -13c-27 -98 -99 -166 -177 -166c-92 0 -130 91 -189 91c-56 0 -25 -81 -83 -81c-21 0 -33 11 -33 30c0 25 21 48 66 92l276 267l-2 3c-53 0 -123 84 -180 84c-22 0 -36 -12 -36 -31
c0 -37 51 -29 51 -77c0 -29 -18 -46 -49 -46c-42 0 -67 29 -67 77c0 79 69 141 158 141c99 0 125 -78 174 -78c46 0 35 68 79 68c18 0 29 -12 29 -31c0 -22 -6 -33 -66 -91zM284 651h-47l130 119c25 23 46 33 67 33c23 0 38 -13 38 -35c0 -21 -19 -37 -51 -52z" />
    <glyph glyph-name="Zdotaccent" unicode="&#x17b;" horiz-adv-x="672" 
d="M696 751l-538 -701h125c126 0 224 46 282 171h43l-84 -221h-531v21l543 701h-101c-159 0 -205 -24 -282 -150h-43l101 198h485v-19zM416 904c0 31 24 55 52 55c31 0 55 -24 55 -55c0 -28 -24 -52 -55 -52c-28 0 -52 24 -52 52z" />
    <glyph glyph-name="zdotaccent" unicode="&#x17c;" horiz-adv-x="519" 
d="M424 408l-264 -253l2 -3c59 0 126 -67 188 -67c38 0 65 21 89 84l34 -13c-27 -98 -99 -166 -177 -166c-92 0 -130 91 -189 91c-56 0 -25 -81 -83 -81c-21 0 -33 11 -33 30c0 25 21 48 66 92l276 267l-2 3c-53 0 -123 84 -180 84c-22 0 -36 -12 -36 -31
c0 -37 51 -29 51 -77c0 -29 -18 -46 -49 -46c-42 0 -67 29 -67 77c0 79 69 141 158 141c99 0 125 -78 174 -78c46 0 35 68 79 68c18 0 29 -12 29 -31c0 -22 -6 -33 -66 -91zM265 743c0 35 27 62 62 62s62 -27 62 -62s-27 -62 -62 -62s-62 27 -62 62z" />
    <glyph glyph-name="Zcaron" unicode="&#x17d;" horiz-adv-x="672" 
d="M696 751l-538 -701h125c126 0 224 46 282 171h43l-84 -221h-531v21l543 701h-101c-159 0 -205 -24 -282 -150h-43l101 198h485v-19zM508 851h-110l-80 109h45l105 -54l133 54h45z" />
    <glyph glyph-name="zcaron" unicode="&#x17e;" horiz-adv-x="519" 
d="M424 408l-264 -253l2 -3c59 0 126 -67 188 -67c38 0 65 21 89 84l34 -13c-27 -98 -99 -166 -177 -166c-92 0 -130 91 -189 91c-56 0 -25 -81 -83 -81c-21 0 -33 11 -33 30c0 25 21 48 66 92l276 267l-2 3c-53 0 -123 84 -180 84c-22 0 -36 -12 -36 -31
c0 -37 51 -29 51 -77c0 -29 -18 -46 -49 -46c-42 0 -67 29 -67 77c0 79 69 141 158 141c99 0 125 -78 174 -78c46 0 35 68 79 68c18 0 29 -12 29 -31c0 -22 -6 -33 -66 -91zM354 651h-90l-84 129h45l101 -68l137 68h45z" />
    <glyph glyph-name="Schwa" unicode="&#x18f;" horiz-adv-x="644" 
d="M176 570l-46 30c80 119 182 181 297 181c128 0 201 -86 201 -234c0 -265 -239 -557 -455 -557c-92 0 -157 52 -157 125c0 134 221 294 485 351c5 27 6 53 6 79c0 111 -41 172 -116 172c-70 0 -151 -55 -215 -147zM199 48c110 0 234 172 288 353
c-199 -52 -346 -174 -346 -293c0 -40 24 -60 58 -60z" />
    <glyph glyph-name="florin" unicode="&#x192;" horiz-adv-x="460" 
d="M77 -96c33 0 52 30 61 83l87 503h-86l8 41h85c35 211 94 299 202 299c69 0 119 -37 119 -88c0 -42 -33 -73 -77 -73c-20 0 -32 6 -41 22c24 4 44 29 44 56c0 25 -19 43 -46 43c-59 0 -99 -87 -119 -259h90l-8 -41h-88l-55 -337c-35 -216 -88 -298 -190 -298
c-66 0 -108 35 -108 90c0 44 30 76 72 76c21 0 33 -8 42 -27c-19 -4 -32 -24 -32 -50c0 -25 15 -40 40 -40z" />
    <glyph glyph-name="uni01C4" unicode="&#x1c4;" horiz-adv-x="1508" 
d="M152 730l13 40h271c91 0 182 -19 252 -77c75 -62 109 -153 109 -246c0 -121 -58 -246 -139 -326c-93 -92 -208 -121 -337 -121h-350l11 40c86 0 108 15 135 118l115 442c5 18 22 65 22 88c0 39 -50 42 -83 42h-19zM355 669l-118 -438c-22 -81 -25 -99 -25 -113
c0 -71 71 -74 100 -74c261 0 369 235 369 413c0 167 -96 263 -253 263c-39 0 -61 -6 -73 -51zM1532 751l-538 -701h125c126 0 224 46 282 171h43l-84 -221h-531v21l543 701h-101c-159 0 -205 -24 -282 -150h-43l101 198h485v-19zM1344 851h-110l-80 109h45l105 -54l133 54
h45z" />
    <glyph glyph-name="uni01C5" unicode="&#x1c5;" horiz-adv-x="1355" 
d="M152 730l13 40h271c91 0 182 -19 252 -77c75 -62 109 -153 109 -246c0 -121 -58 -246 -139 -326c-93 -92 -208 -121 -337 -121h-350l11 40c86 0 108 15 135 118l115 442c5 18 22 65 22 88c0 39 -50 42 -83 42h-19zM355 669l-118 -438c-22 -81 -25 -99 -25 -113
c0 -71 71 -74 100 -74c261 0 369 235 369 413c0 167 -96 263 -253 263c-39 0 -61 -6 -73 -51zM1260 408l-264 -253l2 -3c59 0 126 -67 188 -67c38 0 65 21 89 84l34 -13c-27 -98 -99 -166 -177 -166c-92 0 -130 91 -189 91c-56 0 -25 -81 -83 -81c-21 0 -33 11 -33 30
c0 25 21 48 66 92l276 267l-2 3c-53 0 -123 84 -180 84c-22 0 -36 -12 -36 -31c0 -37 51 -29 51 -77c0 -29 -18 -46 -49 -46c-42 0 -67 29 -67 77c0 79 69 141 158 141c99 0 125 -78 174 -78c46 0 35 68 79 68c18 0 29 -12 29 -31c0 -22 -6 -33 -66 -91zM1190 651h-90
l-84 129h45l101 -68l137 68h45z" />
    <glyph glyph-name="uni01C6" unicode="&#x1c6;" horiz-adv-x="1117" 
d="M410 486l58 206c10 36 16 60 16 71c0 20 -23 27 -92 27l11 40h193l-111 -405c-57 -209 -72 -284 -72 -327c0 -30 11 -41 25 -41c29 0 67 54 93 134l38 -9c-45 -131 -98 -192 -166 -192c-48 0 -75 32 -75 89c0 14 3 31 7 46l-8 2c-50 -88 -130 -137 -195 -137
c-68 0 -121 63 -121 156c0 174 175 394 313 394c46 0 63 -17 86 -54zM331 487c-104 0 -223 -213 -223 -353c0 -48 26 -79 66 -79c91 0 207 239 207 366c0 41 -16 66 -50 66zM1022 408l-264 -253l2 -3c59 0 126 -67 188 -67c38 0 65 21 89 84l34 -13
c-27 -98 -99 -166 -177 -166c-92 0 -130 91 -189 91c-56 0 -25 -81 -83 -81c-21 0 -33 11 -33 30c0 25 21 48 66 92l276 267l-2 3c-53 0 -123 84 -180 84c-22 0 -36 -12 -36 -31c0 -37 51 -29 51 -77c0 -29 -18 -46 -49 -46c-42 0 -67 29 -67 77c0 79 69 141 158 141
c99 0 125 -78 174 -78c46 0 35 68 79 68c18 0 29 -12 29 -31c0 -22 -6 -33 -66 -91zM952 651h-90l-84 129h45l101 -68l137 68h45z" />
    <glyph glyph-name="uni01C7" unicode="&#x1c7;" horiz-adv-x="1245" 
d="M-25 0l11 40c87 0 110 23 134 118l113 442c9 37 15 63 15 82c0 41 -27 48 -99 48l11 40h325l-11 -40c-88 0 -111 -28 -147 -164l-104 -396c-6 -22 -9 -40 -9 -56c0 -48 29 -71 112 -71c159 0 226 50 283 188h47l-88 -231h-593zM836 43c65 0 118 66 148 179l99 378
c10 37 15 64 15 82c0 38 -22 48 -109 48l11 40h325l-11 -40c-81 0 -101 -26 -137 -164l-100 -380c-33 -126 -121 -196 -240 -196c-101 0 -158 48 -158 131c0 63 38 110 88 110c36 0 62 -24 62 -58c0 -50 -52 -51 -52 -86c0 -26 25 -44 59 -44z" />
    <glyph glyph-name="uni01C8" unicode="&#x1c8;" horiz-adv-x="977" 
d="M-25 0l11 40c87 0 110 23 134 118l113 442c9 37 15 63 15 82c0 41 -27 48 -99 48l11 40h325l-11 -40c-88 0 -111 -28 -147 -164l-104 -396c-6 -22 -9 -40 -9 -56c0 -48 29 -71 112 -71c159 0 226 50 283 188h47l-88 -231h-593zM915 704c-33 0 -62 25 -62 61s27 65 62 65
c37 0 64 -30 64 -64c0 -35 -29 -62 -64 -62zM689 -113l111 444c13 52 21 84 21 103c0 13 -4 20 -15 20c-29 0 -75 -64 -86 -85l-29 18c31 60 124 153 193 153c35 0 50 -18 50 -56c0 -44 -20 -116 -48 -217l-83 -301c-32 -114 -125 -226 -220 -226c-55 0 -96 33 -96 76
c0 36 18 59 49 59c55 0 44 -75 82 -75c32 0 58 35 71 87z" />
    <glyph glyph-name="uni01C9" unicode="&#x1c9;" horiz-adv-x="612" 
d="M50 202l133 489c6 24 15 52 15 64c0 24 -24 35 -76 35l8 30l183 9l-179 -657c-10 -36 -16 -63 -16 -82c0 -12 6 -23 21 -23c43 0 101 84 117 114l30 -17c-41 -91 -133 -174 -195 -174c-46 0 -68 19 -68 65c0 27 7 69 27 147zM550 704c-33 0 -62 25 -62 61s27 65 62 65
c37 0 64 -30 64 -64c0 -35 -29 -62 -64 -62zM324 -113l111 444c13 52 21 84 21 103c0 13 -4 20 -15 20c-29 0 -75 -64 -86 -85l-29 18c31 60 124 153 193 153c35 0 50 -18 50 -56c0 -44 -20 -116 -48 -217l-83 -301c-32 -114 -125 -226 -220 -226c-55 0 -96 33 -96 76
c0 36 18 59 49 59c55 0 44 -75 82 -75c32 0 58 35 71 87z" />
    <glyph glyph-name="uni01CA" unicode="&#x1ca;" horiz-adv-x="1385" 
d="M620 0h-40l-262 602h-4l-114 -434c-4 -16 -6 -30 -6 -43c0 -55 36 -84 95 -85l-12 -40h-286l11 40c62 0 117 50 135 118l118 444c3 11 4 21 4 31c0 63 -59 96 -147 97l12 40h235l250 -573h4l106 405c3 13 5 26 5 37c0 57 -37 90 -84 91l12 40h256l-11 -40
c-51 0 -97 -50 -115 -118zM976 43c65 0 118 66 148 179l99 378c10 37 15 64 15 82c0 38 -22 48 -109 48l11 40h325l-11 -40c-81 0 -101 -26 -137 -164l-100 -380c-33 -126 -121 -196 -240 -196c-101 0 -158 48 -158 131c0 63 38 110 88 110c36 0 62 -24 62 -58
c0 -50 -52 -51 -52 -86c0 -26 25 -44 59 -44z" />
    <glyph glyph-name="uni01CB" unicode="&#x1cb;" horiz-adv-x="1136" 
d="M620 0h-40l-262 602h-4l-114 -434c-4 -16 -6 -30 -6 -43c0 -55 36 -84 95 -85l-12 -40h-286l11 40c62 0 117 50 135 118l118 444c3 11 4 21 4 31c0 63 -59 96 -147 97l12 40h235l250 -573h4l106 405c3 13 5 26 5 37c0 57 -37 90 -84 91l12 40h256l-11 -40
c-51 0 -97 -50 -115 -118zM1074 704c-33 0 -62 25 -62 61s27 65 62 65c37 0 64 -30 64 -64c0 -35 -29 -62 -64 -62zM848 -113l111 444c13 52 21 84 21 103c0 13 -4 20 -15 20c-29 0 -75 -64 -86 -85l-29 18c31 60 124 153 193 153c35 0 50 -18 50 -56
c0 -44 -20 -116 -48 -217l-83 -301c-32 -114 -125 -226 -220 -226c-55 0 -96 33 -96 76c0 36 18 59 49 59c55 0 44 -75 82 -75c32 0 58 35 71 87z" />
    <glyph glyph-name="uni01CC" unicode="&#x1cc;" horiz-adv-x="926" 
d="M425 488c-63 0 -172 -143 -226 -288l-74 -200h-88l74 229c47 146 63 203 63 229c0 17 -6 27 -17 27c-30 0 -84 -80 -110 -161l-30 15c47 136 104 201 178 201c43 0 59 -22 59 -79c0 -34 -5 -63 -17 -91l3 -3c68 119 136 173 218 173c58 0 90 -29 90 -81
c0 -35 -12 -78 -53 -197c-31 -90 -53 -154 -53 -179c0 -10 3 -15 10 -15c19 0 53 29 114 97l26 -14c-43 -79 -143 -161 -196 -161c-33 0 -54 32 -54 80c0 37 8 62 79 263c24 69 31 94 31 118c0 25 -9 37 -27 37zM864 704c-33 0 -62 25 -62 61s27 65 62 65
c37 0 64 -30 64 -64c0 -35 -29 -62 -64 -62zM638 -113l111 444c13 52 21 84 21 103c0 13 -4 20 -15 20c-29 0 -75 -64 -86 -85l-29 18c31 60 124 153 193 153c35 0 50 -18 50 -56c0 -44 -20 -116 -48 -217l-83 -301c-32 -114 -125 -226 -220 -226c-55 0 -96 33 -96 76
c0 36 18 59 49 59c55 0 44 -75 82 -75c32 0 58 35 71 87z" />
    <glyph glyph-name="Oogonek" unicode="&#x1ea;" horiz-adv-x="820" 
d="M383 -121l29 -31c-41 -53 -97 -82 -157 -82c-61 0 -97 32 -97 85c0 57 44 111 122 148c-127 31 -206 144 -206 304c0 255 201 477 431 477c170 0 279 -121 279 -311c0 -257 -199 -479 -428 -479c-8 0 -16 1 -24 1c-57 -34 -95 -80 -95 -117c0 -27 23 -48 51 -48
c25 0 60 19 95 53zM505 728c-174 0 -310 -188 -310 -428c0 -169 61 -256 175 -256c168 0 293 190 293 452c0 159 -50 232 -158 232z" />
    <glyph glyph-name="oogonek" unicode="&#x1eb;" horiz-adv-x="523" 
d="M255 -121l29 -31c-41 -53 -97 -82 -157 -82c-61 0 -97 32 -97 85c0 56 42 108 116 145c-70 18 -122 88 -122 195c0 174 141 349 287 349c96 0 165 -76 165 -192c0 -161 -134 -343 -272 -357c-57 -34 -95 -80 -95 -117c0 -27 23 -48 51 -48c25 0 60 19 95 53zM193 40
c90 0 187 209 187 360c0 70 -27 93 -69 93c-90 0 -182 -203 -182 -351c0 -74 27 -102 64 -102z" />
    <glyph glyph-name="uni01F1" unicode="&#x1f1;" horiz-adv-x="1499" 
d="M152 730l13 40h271c91 0 182 -19 252 -77c75 -62 109 -153 109 -246c0 -121 -58 -246 -139 -326c-93 -92 -208 -121 -337 -121h-350l11 40c86 0 108 15 135 118l115 442c5 18 22 65 22 88c0 39 -50 42 -83 42h-19zM355 669l-118 -438c-22 -81 -25 -99 -25 -113
c0 -71 71 -74 100 -74c261 0 369 235 369 413c0 167 -96 263 -253 263c-39 0 -61 -6 -73 -51zM1523 751l-538 -701h125c126 0 224 46 282 171h43l-84 -221h-531v21l543 701h-101c-159 0 -205 -24 -282 -150h-43l101 198h485v-19z" />
    <glyph glyph-name="uni01F2" unicode="&#x1f2;" horiz-adv-x="1350" 
d="M152 730l13 40h271c91 0 182 -19 252 -77c75 -62 109 -153 109 -246c0 -121 -58 -246 -139 -326c-93 -92 -208 -121 -337 -121h-350l11 40c86 0 108 15 135 118l115 442c5 18 22 65 22 88c0 39 -50 42 -83 42h-19zM355 669l-118 -438c-22 -81 -25 -99 -25 -113
c0 -71 71 -74 100 -74c261 0 369 235 369 413c0 167 -96 263 -253 263c-39 0 -61 -6 -73 -51zM1255 408l-264 -253l2 -3c59 0 126 -67 188 -67c38 0 65 21 89 84l34 -13c-27 -98 -99 -166 -177 -166c-92 0 -130 91 -189 91c-56 0 -25 -81 -83 -81c-21 0 -33 11 -33 30
c0 25 21 48 66 92l276 267l-2 3c-53 0 -123 84 -180 84c-22 0 -36 -12 -36 -31c0 -37 51 -29 51 -77c0 -29 -18 -46 -49 -46c-42 0 -67 29 -67 77c0 79 69 141 158 141c99 0 125 -78 174 -78c46 0 35 68 79 68c18 0 29 -12 29 -31c0 -22 -6 -33 -66 -91z" />
    <glyph glyph-name="uni01F3" unicode="&#x1f3;" horiz-adv-x="1117" 
d="M410 486l58 206c10 36 16 60 16 71c0 20 -23 27 -92 27l11 40h193l-111 -405c-57 -209 -72 -284 -72 -327c0 -30 11 -41 25 -41c29 0 67 54 93 134l38 -9c-45 -131 -98 -192 -166 -192c-48 0 -75 32 -75 89c0 14 3 31 7 46l-8 2c-50 -88 -130 -137 -195 -137
c-68 0 -121 63 -121 156c0 174 175 394 313 394c46 0 63 -17 86 -54zM331 487c-104 0 -223 -213 -223 -353c0 -48 26 -79 66 -79c91 0 207 239 207 366c0 41 -16 66 -50 66zM1022 408l-264 -253l2 -3c59 0 126 -67 188 -67c38 0 65 21 89 84l34 -13
c-27 -98 -99 -166 -177 -166c-92 0 -130 91 -189 91c-56 0 -25 -81 -83 -81c-21 0 -33 11 -33 30c0 25 21 48 66 92l276 267l-2 3c-53 0 -123 84 -180 84c-22 0 -36 -12 -36 -31c0 -37 51 -29 51 -77c0 -29 -18 -46 -49 -46c-42 0 -67 29 -67 77c0 79 69 141 158 141
c99 0 125 -78 174 -78c46 0 35 68 79 68c18 0 29 -12 29 -31c0 -22 -6 -33 -66 -91z" />
    <glyph glyph-name="Aringacute" unicode="&#x1fa;" 
d="M517 850l105 44c9 36 45 66 83 66c17 0 31 -7 40 -18c18 8 32 13 48 13c19 0 30 -7 30 -20c0 -20 -26 -35 -71 -44c-11 -34 -46 -61 -83 -61c-23 0 -39 11 -46 28l-46 -8h-60zM696 928c-23 0 -44 -21 -44 -43c0 -15 10 -24 25 -24c23 0 45 20 45 42c0 15 -10 25 -26 25z
M690 780l-139 -614c-8 -35 -12 -61 -12 -77c0 -39 20 -49 93 -49l-10 -40h-296l10 40c78 0 95 18 119 127l27 123h-215l-63 -66c-109 -114 -118 -134 -118 -150c0 -25 20 -34 75 -34l-10 -40h-259l10 40c63 0 120 45 243 191l461 549h84zM310 340h181l82 310h-4z" />
    <glyph glyph-name="aringacute" unicode="&#x1fb;" horiz-adv-x="570" 
d="M332 488c-102 0 -227 -210 -227 -348c0 -48 22 -79 56 -79c93 0 212 242 212 371c0 35 -16 56 -41 56zM414 474l21 56h83l-57 -153c-38 -101 -74 -242 -74 -286c0 -19 7 -29 19 -29c19 0 56 43 100 104l26 -21c-55 -98 -124 -155 -184 -155c-31 0 -48 22 -48 75
c0 12 1 27 3 53l-4 1c-39 -74 -115 -129 -181 -129c-67 0 -108 55 -108 145c0 184 172 405 316 405c44 0 71 -20 88 -66zM301 646c0 56 52 112 113 112c42 0 68 -25 68 -62c0 -61 -56 -112 -115 -112c-41 0 -66 25 -66 62zM404 716c-29 0 -61 -25 -61 -58
c0 -20 14 -34 37 -34c29 0 59 27 59 60c0 19 -14 32 -35 32zM377 790h-47l130 119c25 23 46 33 67 33c23 0 38 -13 38 -35c0 -21 -19 -37 -51 -52z" />
    <glyph glyph-name="AEacute" unicode="&#x1fc;" horiz-adv-x="1071" 
d="M928 0h-579l10 40c78 0 95 18 119 127l27 123h-215l-63 -66c-109 -114 -118 -134 -118 -150c0 -25 20 -34 75 -34l-10 -40h-259l10 40c63 0 120 45 243 191l374 446c10 12 16 21 16 29c0 17 -31 24 -108 24l11 40h576v-202h-38c-34 127 -84 158 -168 158h-130l-68 -297
h53c71 0 97 22 139 114h37l-60 -296h-40c2 20 3 37 3 52c0 59 -19 86 -80 86h-62l-49 -219c-8 -35 -12 -61 -12 -77c0 -32 30 -46 124 -46c153 0 218 44 273 168h47zM333 340h181l82 310h-4zM704 850h-60l150 77c43 22 69 33 96 33c19 0 30 -9 30 -25c0 -27 -32 -45 -89 -57
z" />
    <glyph glyph-name="aeacute" unicode="&#x1fd;" horiz-adv-x="756" 
d="M639 154l32 -21c-57 -94 -131 -143 -214 -143c-82 0 -133 49 -142 134c-46 -76 -131 -134 -198 -134c-66 0 -107 55 -107 145c0 184 172 405 316 405c44 0 71 -20 88 -66l28 76h83l-30 -74l3 -2c36 48 88 66 136 66c64 0 109 -36 109 -87c0 -93 -149 -204 -327 -244
c-3 -19 -4 -37 -4 -55c0 -71 27 -109 77 -109c49 0 105 41 150 109zM329 488c-91 0 -224 -204 -224 -344c0 -52 21 -83 55 -83c95 0 213 210 213 366c0 41 -14 61 -44 61zM614 493c-70 0 -154 -117 -188 -239c128 35 223 117 223 197c0 28 -12 42 -35 42zM462 651h-47
l130 119c25 23 46 33 67 33c23 0 38 -13 38 -35c0 -21 -19 -37 -51 -52z" />
    <glyph glyph-name="Oslashacute" unicode="&#x1fe;" horiz-adv-x="820" 
d="M505 780c65 0 121 -18 166 -51l78 99h69l-107 -135c47 -54 73 -131 73 -224c0 -257 -199 -479 -428 -479c-63 0 -119 16 -163 47l-78 -99h-68l106 135c-50 54 -79 134 -79 230c0 255 201 477 431 477zM505 728c-174 0 -310 -188 -310 -428c0 -59 7 -108 22 -147l408 518
c-26 38 -66 57 -120 57zM663 496c0 47 -5 86 -14 119l-405 -513c30 -38 72 -58 126 -58c168 0 293 190 293 452zM492 850h-60l150 77c43 22 69 33 96 33c19 0 30 -9 30 -25c0 -27 -32 -45 -89 -57z" />
    <glyph glyph-name="oslashacute" unicode="&#x1ff;" horiz-adv-x="522" 
d="M187 -10c-36 0 -69 12 -95 33l-67 -84h-68l99 125c-20 33 -32 76 -32 127c0 174 141 349 287 349c37 0 69 -11 96 -32l66 84h69l-98 -124c20 -32 32 -73 32 -120c0 -168 -145 -358 -289 -358zM193 40c87 0 182 197 187 347l-242 -306c11 -29 30 -41 55 -41zM311 493
c-87 0 -177 -190 -182 -337l240 304c-12 24 -32 33 -58 33zM319 651h-47l130 119c25 23 46 33 67 33c23 0 38 -13 38 -35c0 -21 -19 -37 -51 -52z" />
    <glyph glyph-name="uni0218" unicode="&#x218;" horiz-adv-x="598" 
d="M538 713l20 42h30l-42 -197h-34c-4 120 -42 171 -127 171c-82 0 -141 -49 -141 -117c0 -144 273 -173 273 -378c0 -135 -113 -244 -254 -244c-74 0 -136 28 -191 86l-21 -76h-35l42 254h33c9 -137 70 -211 173 -211c95 0 164 59 164 139c0 167 -282 205 -282 390
c0 115 105 208 236 208c62 0 110 -21 156 -67zM207 -250l-22 26c45 25 65 49 65 78c-6 -5 -15 -8 -26 -8c-26 0 -44 19 -44 47c0 31 24 53 59 53c40 0 63 -29 63 -79c0 -43 -26 -80 -95 -117z" />
    <glyph glyph-name="uni0219" unicode="&#x219;" horiz-adv-x="381" 
d="M77 387c0 88 70 153 166 153c64 0 112 -36 112 -86c0 -28 -17 -45 -43 -45c-61 0 -42 88 -92 88c-29 0 -52 -29 -52 -66c0 -89 126 -142 126 -276c0 -90 -85 -165 -176 -165c-79 0 -131 38 -131 94c0 38 20 62 50 62c28 0 45 -20 49 -59c4 -43 11 -53 41 -53
c48 0 78 31 78 81c0 108 -128 151 -128 272zM51 -250l-22 26c45 25 65 49 65 78c-6 -5 -15 -8 -26 -8c-26 0 -44 19 -44 47c0 31 24 53 59 53c40 0 63 -29 63 -79c0 -43 -26 -80 -95 -117z" />
    <glyph glyph-name="uni021A" unicode="&#x21a;" horiz-adv-x="780" 
d="M525 610l-118 -442c-8 -30 -16 -52 -16 -70c0 -43 31 -58 115 -58l-12 -40h-348l11 40c79 0 117 14 145 118l122 456c6 24 9 44 9 60c0 38 -17 54 -55 54c-117 0 -203 -63 -260 -171h-40l95 213h668l-20 -213h-38c0 128 -48 171 -141 171c-66 0 -92 -22 -117 -118z
M276 -250l-22 26c45 25 65 49 65 78c-6 -5 -15 -8 -26 -8c-26 0 -44 19 -44 47c0 31 24 53 59 53c40 0 63 -29 63 -79c0 -43 -26 -80 -95 -117z" />
    <glyph glyph-name="uni021B" unicode="&#x21b;" horiz-adv-x="365" 
d="M344 447h-109l-83 -275c-11 -36 -17 -63 -18 -82c0 -12 5 -23 20 -23c47 0 113 84 131 114l29 -17c-46 -91 -145 -174 -210 -174c-46 0 -66 19 -66 65c0 26 8 69 31 147l74 245h-86l13 46h87l52 172h92l-52 -172h109zM40 -250l-22 26c45 25 65 49 65 78
c-6 -5 -15 -8 -26 -8c-26 0 -44 19 -44 47c0 31 24 53 59 53c40 0 63 -29 63 -79c0 -43 -26 -80 -95 -117z" />
    <glyph glyph-name="dotlessj" unicode="&#x237;" horiz-adv-x="299" 
d="M11 -113l111 444c13 52 21 84 21 103c0 13 -4 20 -15 20c-29 0 -75 -64 -86 -85l-29 18c31 60 124 153 193 153c35 0 50 -18 50 -56c0 -44 -20 -116 -48 -217l-83 -301c-32 -114 -125 -226 -220 -226c-55 0 -96 33 -96 76c0 36 18 59 49 59c55 0 44 -75 82 -75
c32 0 58 35 71 87z" />
    <glyph glyph-name="schwa" unicode="&#x259;" horiz-adv-x="457" 
d="M92 376l-32 21c57 94 131 143 214 143c91 0 143 -60 143 -163c0 -184 -168 -387 -320 -387c-64 0 -109 36 -109 87c0 93 149 204 327 244c3 19 4 37 4 55c0 71 -27 109 -77 109c-49 0 -105 -41 -150 -109zM117 37c70 0 154 117 188 239c-128 -35 -223 -117 -223 -197
c0 -28 12 -42 35 -42z" />
    <glyph glyph-name="apostrophe" unicode="&#x2bc;" horiz-adv-x="194" 
d="M82 611h-29c12 140 -3 219 73 219c22 0 35 -14 35 -35c0 -4 -1 -10 -2 -15c-6 -23 -52 -113 -77 -169z" />
    <glyph glyph-name="circumflex" unicode="&#x2c6;" horiz-adv-x="368" 
d="M156 780h90l84 -129h-45l-101 68l-137 -68h-45z" />
    <glyph glyph-name="caron" unicode="&#x2c7;" horiz-adv-x="368" 
d="M211 651h-90l-84 129h45l101 -68l137 68h45z" />
    <glyph glyph-name="breve" unicode="&#x2d8;" horiz-adv-x="316" 
d="M276 776h37c-25 -76 -98 -130 -173 -130c-66 0 -107 40 -107 98c0 10 1 21 4 32h36c2 -37 36 -61 85 -61c50 0 97 24 118 61z" />
    <glyph glyph-name="dotaccent" unicode="&#x2d9;" horiz-adv-x="164" 
d="M20 743c0 35 27 62 62 62s62 -27 62 -62s-27 -62 -62 -62s-62 27 -62 62z" />
    <glyph glyph-name="ring" unicode="&#x2da;" horiz-adv-x="214" 
d="M16 718c0 56 52 112 113 112c42 0 68 -25 68 -62c0 -61 -56 -112 -115 -112c-41 0 -66 25 -66 62zM119 788c-29 0 -61 -25 -61 -58c0 -20 14 -34 37 -34c29 0 59 27 59 60c0 19 -14 32 -35 32z" />
    <glyph glyph-name="ogonek" unicode="&#x2db;" horiz-adv-x="265" 
d="M225 -121l29 -31c-41 -53 -97 -82 -157 -82c-61 0 -97 32 -97 85c0 63 55 122 149 159h53v-4c-72 -35 -123 -90 -123 -132c0 -27 23 -48 51 -48c25 0 60 19 95 53z" />
    <glyph glyph-name="tilde" unicode="&#x2dc;" horiz-adv-x="381" 
d="M54 660h-34c11 67 54 114 105 114c20 0 47 -7 86 -24s56 -22 73 -22c22 0 35 12 44 42h33c-3 -27 -16 -61 -32 -82c-17 -23 -41 -36 -67 -36c-18 0 -37 6 -84 25c-45 17 -66 23 -82 23c-22 0 -33 -11 -42 -40z" />
    <glyph glyph-name="hungarumlaut" unicode="&#x2dd;" horiz-adv-x="473" 
d="M67 651h-47l130 119c25 23 46 33 67 33c23 0 38 -13 38 -35c0 -21 -19 -37 -51 -52zM265 651h-47l130 119c25 23 46 33 67 33c23 0 38 -13 38 -35c0 -21 -19 -37 -51 -52z" />
    <glyph glyph-name="uni03BC" unicode="&#x3bc;" horiz-adv-x="640" 
d="M123 268c32 99 41 135 41 160c0 14 -4 21 -11 21c-16 0 -48 -29 -93 -84l-26 14c43 85 134 161 193 161c31 0 50 -21 50 -55c0 -31 -5 -48 -66 -226c-22 -65 -35 -122 -35 -155c0 -29 9 -42 27 -42c51 0 141 124 194 268l74 200h93l-74 -229c-44 -136 -58 -186 -58 -210
c0 -17 6 -26 17 -26c28 0 79 56 105 116l30 -15c-40 -99 -121 -176 -185 -176c-37 0 -52 26 -52 91c0 20 2 38 5 57l-3 3c-43 -97 -97 -151 -151 -151c-31 0 -52 12 -63 36l-3 -1l-34 -206c-9 -54 -29 -79 -67 -79c-31 0 -45 15 -45 50c0 12 2 25 6 41c16 65 83 288 131 437
z" />
    <glyph glyph-name="Ddotbelow" unicode="&#x1e0c;" horiz-adv-x="836" 
d="M152 730l13 40h271c91 0 182 -19 252 -77c75 -62 109 -153 109 -246c0 -121 -58 -246 -139 -326c-93 -92 -208 -121 -337 -121h-350l11 40c86 0 108 15 135 118l115 442c5 18 22 65 22 88c0 39 -50 42 -83 42h-19zM355 669l-118 -438c-22 -81 -25 -99 -25 -113
c0 -71 71 -74 100 -74c261 0 369 235 369 413c0 167 -96 263 -253 263c-39 0 -61 -6 -73 -51zM229 -170c0 35 27 62 62 62s62 -27 62 -62s-27 -62 -62 -62s-62 27 -62 62z" />
    <glyph glyph-name="ddotbelow" unicode="&#x1e0d;" horiz-adv-x="598" 
d="M410 486l58 206c10 36 16 60 16 71c0 20 -23 27 -92 27l11 40h193l-111 -405c-57 -209 -72 -284 -72 -327c0 -30 11 -41 25 -41c29 0 67 54 93 134l38 -9c-45 -131 -98 -192 -166 -192c-48 0 -75 32 -75 89c0 14 3 31 7 46l-8 2c-50 -88 -130 -137 -195 -137
c-68 0 -121 63 -121 156c0 174 175 394 313 394c46 0 63 -17 86 -54zM331 487c-104 0 -223 -213 -223 -353c0 -48 26 -79 66 -79c91 0 207 239 207 366c0 41 -16 66 -50 66zM145 -168c0 35 27 62 62 62s62 -27 62 -62s-27 -62 -62 -62s-62 27 -62 62z" />
    <glyph glyph-name="Hdotbelow" unicode="&#x1e24;" horiz-adv-x="911" 
d="M820 566l-105 -398c-8 -29 -12 -52 -12 -70c0 -45 27 -58 91 -58l-12 -40h-319l11 40c79 0 109 20 135 118l55 209h-388l-52 -199c-8 -29 -12 -52 -12 -70c0 -45 27 -58 91 -58l-12 -40h-319l11 40c79 0 109 20 135 118l117 442c10 37 15 63 15 82c0 41 -27 48 -99 48
l11 40h325l-11 -40c-88 0 -111 -28 -147 -164l-39 -148h388l48 182c10 37 15 63 15 82c0 41 -27 48 -99 48l11 40h325l-11 -40c-88 0 -111 -28 -147 -164zM315 -168c0 35 27 62 62 62s62 -27 62 -62s-27 -62 -62 -62s-62 27 -62 62z" />
    <glyph glyph-name="hdotbelow" unicode="&#x1e25;" horiz-adv-x="574" 
d="M356 311c23 68 32 104 32 134c0 31 -9 42 -33 42c-82 0 -157 -124 -255 -418l-23 -69h-84l198 678c9 33 15 60 15 74c0 27 -21 36 -89 38l7 40h204l-114 -386l3 -2c43 62 101 98 162 98c63 0 98 -39 98 -109c0 -44 -13 -102 -41 -178c-52 -145 -55 -153 -55 -165
c0 -15 6 -23 19 -23c27 0 69 34 109 89l28 -21c-42 -78 -133 -143 -200 -143c-36 0 -51 19 -51 63c0 45 12 91 70 258zM72 -168c0 35 27 62 62 62s62 -27 62 -62s-27 -62 -62 -62s-62 27 -62 62z" />
    <glyph glyph-name="Ndotaccent" unicode="&#x1e44;" horiz-adv-x="842" 
d="M620 0h-40l-262 602h-4l-114 -434c-4 -16 -6 -30 -6 -43c0 -55 36 -84 95 -85l-12 -40h-286l11 40c62 0 117 50 135 118l118 444c3 11 4 21 4 31c0 63 -59 96 -147 97l12 40h235l250 -573h4l106 405c3 13 5 26 5 37c0 57 -37 90 -84 91l12 40h256l-11 -40
c-51 0 -97 -50 -115 -118zM505 904c0 31 24 55 52 55c31 0 55 -24 55 -55c0 -28 -24 -52 -55 -52c-28 0 -52 24 -52 52z" />
    <glyph glyph-name="ndotaccent" unicode="&#x1e45;" horiz-adv-x="627" 
d="M425 488c-63 0 -172 -143 -226 -288l-74 -200h-88l74 229c47 146 63 203 63 229c0 17 -6 27 -17 27c-30 0 -84 -80 -110 -161l-30 15c47 136 104 201 178 201c43 0 59 -22 59 -79c0 -34 -5 -63 -17 -91l3 -3c68 119 136 173 218 173c58 0 90 -29 90 -81
c0 -35 -12 -78 -53 -197c-31 -90 -53 -154 -53 -179c0 -10 3 -15 10 -15c19 0 53 29 114 97l26 -14c-43 -79 -143 -161 -196 -161c-33 0 -54 32 -54 80c0 37 8 62 79 263c24 69 31 94 31 118c0 25 -9 37 -27 37zM352 743c0 35 27 62 62 62s62 -27 62 -62s-27 -62 -62 -62
s-62 27 -62 62z" />
    <glyph glyph-name="Rdotbelow" unicode="&#x1e5a;" 
d="M280 375l-47 -168c-13 -47 -21 -85 -21 -102c0 -40 38 -60 114 -60l-11 -45h-332l11 40c64 0 103 37 125 119l118 441c9 33 13 58 13 75c0 40 -23 53 -104 55l11 40h278c160 0 258 -64 258 -172c0 -109 -87 -184 -219 -211l74 -183c55 -136 81 -164 168 -164l-11 -40
h-190l-147 375h-88zM351 645l-58 -219h49c140 0 240 64 240 178c0 80 -51 121 -145 121c-54 0 -69 -16 -86 -80zM275 -168c0 35 27 62 62 62s62 -27 62 -62s-27 -62 -62 -62s-62 27 -62 62z" />
    <glyph glyph-name="rdotbelow" unicode="&#x1e5b;" horiz-adv-x="463" 
d="M47 378l-26 13c30 67 130 149 183 149c32 0 46 -23 46 -76c0 -21 -2 -40 -7 -66l3 -3c33 78 123 155 183 155c38 0 68 -28 68 -64c0 -35 -25 -60 -59 -60c-42 0 -46 37 -70 37c-51 0 -139 -144 -198 -325l-45 -138h-93l65 207c51 159 63 205 63 233c0 15 -5 22 -15 22
c-27 0 -81 -46 -98 -84zM-25 -168c0 35 27 62 62 62s62 -27 62 -62s-27 -62 -62 -62s-62 27 -62 62z" />
    <glyph glyph-name="Sdotbelow" unicode="&#x1e62;" horiz-adv-x="598" 
d="M538 713l20 42h30l-42 -197h-34c-4 120 -42 171 -127 171c-82 0 -141 -49 -141 -117c0 -144 273 -173 273 -378c0 -135 -113 -244 -254 -244c-74 0 -136 28 -191 86l-21 -76h-35l42 254h33c9 -137 70 -211 173 -211c95 0 164 59 164 139c0 167 -282 205 -282 390
c0 115 105 208 236 208c62 0 110 -21 156 -67zM158 -168c0 35 27 62 62 62s62 -27 62 -62s-27 -62 -62 -62s-62 27 -62 62z" />
    <glyph glyph-name="sdotbelow" unicode="&#x1e63;" horiz-adv-x="381" 
d="M77 387c0 88 70 153 166 153c64 0 112 -36 112 -86c0 -28 -17 -45 -43 -45c-61 0 -42 88 -92 88c-29 0 -52 -29 -52 -66c0 -89 126 -142 126 -276c0 -90 -85 -165 -176 -165c-79 0 -131 38 -131 94c0 38 20 62 50 62c28 0 45 -20 49 -59c4 -43 11 -53 41 -53
c48 0 78 31 78 81c0 108 -128 151 -128 272zM46 -168c0 35 27 62 62 62s62 -27 62 -62s-27 -62 -62 -62s-62 27 -62 62z" />
    <glyph glyph-name="Tdotbelow" unicode="&#x1e6c;" horiz-adv-x="780" 
d="M525 610l-118 -442c-8 -30 -16 -52 -16 -70c0 -43 31 -58 115 -58l-12 -40h-348l11 40c79 0 117 14 145 118l122 456c6 24 9 44 9 60c0 38 -17 54 -55 54c-117 0 -203 -63 -260 -171h-40l95 213h668l-20 -213h-38c0 128 -48 171 -141 171c-66 0 -92 -22 -117 -118z
M226 -168c0 35 27 62 62 62s62 -27 62 -62s-27 -62 -62 -62s-62 27 -62 62z" />
    <glyph glyph-name="tdotbelow" unicode="&#x1e6d;" horiz-adv-x="365" 
d="M344 447h-109l-83 -275c-11 -36 -17 -63 -18 -82c0 -12 5 -23 20 -23c47 0 113 84 131 114l29 -17c-46 -91 -145 -174 -210 -174c-46 0 -66 19 -66 65c0 26 8 69 31 147l74 245h-86l13 46h87l52 172h92l-52 -172h109zM2 -168c0 35 27 62 62 62s62 -27 62 -62
s-27 -62 -62 -62s-62 27 -62 62z" />
    <glyph glyph-name="Wgrave" unicode="&#x1e80;" horiz-adv-x="1064" 
d="M588 152l308 394c71 91 106 138 106 161c0 19 -21 23 -63 23l10 40h259l-10 -40c-63 0 -127 -39 -243 -191l-421 -549h-84l108 477l-366 -477h-84l139 614c8 35 12 61 12 77c0 39 -20 49 -93 49l10 40h276l-10 -40c-56 0 -75 -19 -99 -127l-101 -451h4l339 435l4 17
c8 35 12 61 12 77c0 39 -18 49 -83 49l10 40h286l-10 -40c-78 0 -95 -18 -119 -127l-101 -451h4zM774 850h-60l-113 28c-38 9 -63 23 -63 41c0 25 26 41 48 41c27 0 47 -11 78 -33z" />
    <glyph glyph-name="wgrave" unicode="&#x1e81;" horiz-adv-x="850" 
d="M407 97c-59 -69 -127 -107 -192 -107c-73 0 -117 50 -117 135c0 83 43 183 129 299l-2 3c-73 0 -88 52 -118 52c-10 0 -16 -6 -16 -17c0 -25 35 -34 35 -66c0 -24 -21 -41 -50 -41c-34 0 -54 23 -54 61c0 65 58 124 123 124c55 0 71 -43 111 -43c11 0 18 3 30 15
c14 15 28 28 47 28c14 0 21 -7 21 -20c0 -9 -4 -14 -41 -57c-77 -90 -120 -207 -120 -295c0 -65 23 -104 61 -104c36 0 86 37 140 101c-3 28 -5 59 -5 83c0 145 72 292 144 292c29 0 57 -24 57 -83c0 -71 -40 -170 -113 -274c12 -63 48 -108 87 -108c74 0 165 154 165 279
c0 62 -23 86 -23 129c0 37 18 57 52 57c41 0 58 -29 58 -100c0 -214 -153 -450 -291 -450c-55 0 -97 37 -118 107zM463 247c35 57 59 115 59 173c0 24 -4 38 -15 38c-26 0 -49 -73 -49 -162c0 -18 1 -34 5 -49zM644 651h-47l-119 65c-24 13 -39 27 -39 44c0 27 25 43 49 43
c21 0 39 -10 58 -33z" />
    <glyph glyph-name="Wacute" unicode="&#x1e82;" horiz-adv-x="1064" 
d="M588 152l308 394c71 91 106 138 106 161c0 19 -21 23 -63 23l10 40h259l-10 -40c-63 0 -127 -39 -243 -191l-421 -549h-84l108 477l-366 -477h-84l139 614c8 35 12 61 12 77c0 39 -20 49 -93 49l10 40h276l-10 -40c-56 0 -75 -19 -99 -127l-101 -451h4l339 435l4 17
c8 35 12 61 12 77c0 39 -18 49 -83 49l10 40h286l-10 -40c-78 0 -95 -18 -119 -127l-101 -451h4zM628 850h-60l150 77c43 22 69 33 96 33c19 0 30 -9 30 -25c0 -27 -32 -45 -89 -57z" />
    <glyph glyph-name="wacute" unicode="&#x1e83;" horiz-adv-x="850" 
d="M407 97c-59 -69 -127 -107 -192 -107c-73 0 -117 50 -117 135c0 83 43 183 129 299l-2 3c-73 0 -88 52 -118 52c-10 0 -16 -6 -16 -17c0 -25 35 -34 35 -66c0 -24 -21 -41 -50 -41c-34 0 -54 23 -54 61c0 65 58 124 123 124c55 0 71 -43 111 -43c11 0 18 3 30 15
c14 15 28 28 47 28c14 0 21 -7 21 -20c0 -9 -4 -14 -41 -57c-77 -90 -120 -207 -120 -295c0 -65 23 -104 61 -104c36 0 86 37 140 101c-3 28 -5 59 -5 83c0 145 72 292 144 292c29 0 57 -24 57 -83c0 -71 -40 -170 -113 -274c12 -63 48 -108 87 -108c74 0 165 154 165 279
c0 62 -23 86 -23 129c0 37 18 57 52 57c41 0 58 -29 58 -100c0 -214 -153 -450 -291 -450c-55 0 -97 37 -118 107zM463 247c35 57 59 115 59 173c0 24 -4 38 -15 38c-26 0 -49 -73 -49 -162c0 -18 1 -34 5 -49zM522 651h-47l130 119c25 23 46 33 67 33c23 0 38 -13 38 -35
c0 -21 -19 -37 -51 -52z" />
    <glyph glyph-name="Wdieresis" unicode="&#x1e84;" horiz-adv-x="1064" 
d="M588 152l308 394c71 91 106 138 106 161c0 19 -21 23 -63 23l10 40h259l-10 -40c-63 0 -127 -39 -243 -191l-421 -549h-84l108 477l-366 -477h-84l139 614c8 35 12 61 12 77c0 39 -20 49 -93 49l10 40h276l-10 -40c-56 0 -75 -19 -99 -127l-101 -451h4l339 435l4 17
c8 35 12 61 12 77c0 39 -18 49 -83 49l10 40h286l-10 -40c-78 0 -95 -18 -119 -127l-101 -451h4zM542 910c7 28 35 50 63 50c24 0 40 -16 40 -37c0 -35 -35 -64 -67 -64c-23 0 -38 15 -38 36c0 5 0 10 2 15zM724 910c7 28 35 50 64 50c23 0 39 -16 39 -37
c0 -35 -35 -64 -66 -64c-24 0 -39 15 -39 36c0 5 0 10 2 15z" />
    <glyph glyph-name="wdieresis" unicode="&#x1e85;" horiz-adv-x="850" 
d="M407 97c-59 -69 -127 -107 -192 -107c-73 0 -117 50 -117 135c0 83 43 183 129 299l-2 3c-73 0 -88 52 -118 52c-10 0 -16 -6 -16 -17c0 -25 35 -34 35 -66c0 -24 -21 -41 -50 -41c-34 0 -54 23 -54 61c0 65 58 124 123 124c55 0 71 -43 111 -43c11 0 18 3 30 15
c14 15 28 28 47 28c14 0 21 -7 21 -20c0 -9 -4 -14 -41 -57c-77 -90 -120 -207 -120 -295c0 -65 23 -104 61 -104c36 0 86 37 140 101c-3 28 -5 59 -5 83c0 145 72 292 144 292c29 0 57 -24 57 -83c0 -71 -40 -170 -113 -274c12 -63 48 -108 87 -108c74 0 165 154 165 279
c0 62 -23 86 -23 129c0 37 18 57 52 57c41 0 58 -29 58 -100c0 -214 -153 -450 -291 -450c-55 0 -97 37 -118 107zM463 247c35 57 59 115 59 173c0 24 -4 38 -15 38c-26 0 -49 -73 -49 -162c0 -18 1 -34 5 -49zM424 709c8 33 40 58 73 58c28 0 45 -18 45 -43
c0 -40 -39 -73 -76 -73c-27 0 -44 17 -44 42c0 5 0 10 2 16zM591 709c8 33 40 58 73 58c28 0 45 -18 45 -43c0 -40 -39 -73 -76 -73c-27 0 -44 17 -44 42c0 5 0 10 2 16z" />
    <glyph glyph-name="Zdotbelow" unicode="&#x1e92;" horiz-adv-x="672" 
d="M696 751l-538 -701h125c126 0 224 46 282 171h43l-84 -221h-531v21l543 701h-101c-159 0 -205 -24 -282 -150h-43l101 198h485v-19zM167 -168c0 35 27 62 62 62s62 -27 62 -62s-27 -62 -62 -62s-62 27 -62 62z" />
    <glyph glyph-name="zdotbelow" unicode="&#x1e93;" horiz-adv-x="519" 
d="M424 408l-264 -253l2 -3c59 0 126 -67 188 -67c38 0 65 21 89 84l34 -13c-27 -98 -99 -166 -177 -166c-92 0 -130 91 -189 91c-56 0 -25 -81 -83 -81c-21 0 -33 11 -33 30c0 25 21 48 66 92l276 267l-2 3c-53 0 -123 84 -180 84c-22 0 -36 -12 -36 -31
c0 -37 51 -29 51 -77c0 -29 -18 -46 -49 -46c-42 0 -67 29 -67 77c0 79 69 141 158 141c99 0 125 -78 174 -78c46 0 35 68 79 68c18 0 29 -12 29 -31c0 -22 -6 -33 -66 -91zM88 -168c0 35 27 62 62 62s62 -27 62 -62s-27 -62 -62 -62s-62 27 -62 62z" />
    <glyph glyph-name="Edotbelow" unicode="&#x1eb8;" horiz-adv-x="740" 
d="M-26 0l11 40c88 0 109 23 134 118l116 441c9 34 14 59 14 78c0 44 -28 53 -100 53l11 40h546v-202h-38c-34 127 -84 158 -168 158h-130l-78 -297h63c71 0 97 22 139 114h37l-60 -296h-40c2 20 3 37 3 52c0 59 -19 86 -80 86h-75l-57 -215c-6 -22 -9 -40 -9 -56
c0 -48 38 -71 142 -71c153 0 218 44 273 168h47l-78 -211h-623zM240 -168c0 35 27 62 62 62s62 -27 62 -62s-27 -62 -62 -62s-62 27 -62 62z" />
    <glyph glyph-name="edotbelow" unicode="&#x1eb9;" horiz-adv-x="456" 
d="M339 154l32 -21c-57 -94 -131 -143 -214 -143c-91 0 -143 60 -143 163c0 184 168 387 320 387c64 0 109 -36 109 -87c0 -93 -149 -204 -327 -244c-3 -19 -4 -37 -4 -55c0 -71 27 -109 77 -109c49 0 105 41 150 109zM314 493c-70 0 -154 -117 -188 -239
c128 35 223 117 223 197c0 28 -12 42 -35 42zM57 -168c0 35 27 62 62 62s62 -27 62 -62s-27 -62 -62 -62s-62 27 -62 62z" />
    <glyph glyph-name="Etilde" unicode="&#x1ebc;" horiz-adv-x="740" 
d="M-26 0l11 40c88 0 109 23 134 118l116 441c9 34 14 59 14 78c0 44 -28 53 -100 53l11 40h546v-202h-38c-34 127 -84 158 -168 158h-130l-78 -297h63c71 0 97 22 139 114h37l-60 -296h-40c2 20 3 37 3 52c0 59 -19 86 -80 86h-75l-57 -215c-6 -22 -9 -40 -9 -56
c0 -48 38 -71 142 -71c153 0 218 44 273 168h47l-78 -211h-623zM358 846h-34c11 67 54 114 105 114c60 0 111 -46 159 -46c22 0 35 12 44 42h33c-7 -60 -46 -118 -99 -118c-59 0 -122 48 -166 48c-22 0 -33 -11 -42 -40z" />
    <glyph glyph-name="etilde" unicode="&#x1ebd;" horiz-adv-x="456" 
d="M339 154l32 -21c-57 -94 -131 -143 -214 -143c-91 0 -143 60 -143 163c0 184 168 387 320 387c64 0 109 -36 109 -87c0 -93 -149 -204 -327 -244c-3 -19 -4 -37 -4 -55c0 -71 27 -109 77 -109c49 0 105 41 150 109zM314 493c-70 0 -154 -117 -188 -239
c128 35 223 117 223 197c0 28 -12 42 -35 42zM223 660h-34c11 67 54 114 105 114c20 0 47 -7 86 -24s56 -22 73 -22c22 0 35 12 44 42h33c-3 -27 -16 -61 -32 -82c-17 -23 -41 -36 -67 -36c-18 0 -37 6 -84 25c-45 17 -66 23 -82 23c-22 0 -33 -11 -42 -40z" />
    <glyph glyph-name="Idotbelow" unicode="&#x1eca;" horiz-adv-x="420" 
d="M329 566l-105 -398c-8 -29 -12 -52 -12 -70c0 -45 27 -58 91 -58l-12 -40h-319l11 40c79 0 109 20 135 118l117 442c10 37 15 63 15 82c0 41 -27 48 -99 48l11 40h325l-11 -40c-88 0 -111 -28 -147 -164zM39 -168c0 35 27 62 62 62s62 -27 62 -62s-27 -62 -62 -62
s-62 27 -62 62z" />
    <glyph glyph-name="idotbelow" unicode="&#x1ecb;" horiz-adv-x="344" 
d="M86 202l45 128c19 52 26 83 26 101s-7 23 -14 23c-28 0 -76 -64 -87 -85l-29 18c31 60 124 153 193 153c33 0 50 -17 50 -67c0 -39 -26 -102 -63 -204l-37 -101c-5 -14 -21 -59 -21 -78c0 -12 6 -23 21 -23c39 0 92 77 107 104l30 -17c-32 -65 -112 -164 -200 -164
c-39 0 -58 19 -58 65c0 38 13 79 37 147zM278 704c-33 0 -62 25 -62 61s27 65 62 65c37 0 64 -30 64 -64c0 -35 -29 -62 -64 -62zM45 -168c0 35 27 62 62 62s62 -27 62 -62s-27 -62 -62 -62s-62 27 -62 62z" />
    <glyph glyph-name="Odotbelow" unicode="&#x1ecc;" horiz-adv-x="820" 
d="M505 780c170 0 279 -121 279 -311c0 -257 -199 -479 -428 -479c-171 0 -282 124 -282 313c0 255 201 477 431 477zM505 728c-174 0 -310 -188 -310 -428c0 -169 61 -256 175 -256c168 0 293 190 293 452c0 159 -50 232 -158 232zM262 -168c0 35 27 62 62 62
s62 -27 62 -62s-27 -62 -62 -62s-62 27 -62 62z" />
    <glyph glyph-name="odotbelow" unicode="&#x1ecd;" horiz-adv-x="523" 
d="M187 -10c-90 0 -163 75 -163 201c0 174 141 349 287 349c96 0 165 -76 165 -192c0 -168 -145 -358 -289 -358zM193 40c90 0 187 209 187 360c0 70 -27 93 -69 93c-90 0 -182 -203 -182 -351c0 -74 27 -102 64 -102zM87 -168c0 35 27 62 62 62s62 -27 62 -62
s-27 -62 -62 -62s-62 27 -62 62z" />
    <glyph glyph-name="Udotbelow" unicode="&#x1ee4;" horiz-adv-x="808" 
d="M134 353l66 246c7 27 13 58 13 77c0 40 -25 54 -94 54l13 40h319l-11 -40c-95 0 -111 -20 -148 -165l-65 -251c-9 -34 -13 -66 -13 -94c0 -106 56 -174 161 -174c132 0 202 104 247 244c41 128 80 334 80 380c0 40 -40 57 -102 60l12 40h263l-12 -40
c-65 0 -84 -18 -110 -138l-43 -200c-57 -264 -171 -402 -343 -402c-169 0 -253 83 -253 229c0 42 7 85 20 134zM283 -168c0 35 27 62 62 62s62 -27 62 -62s-27 -62 -62 -62s-62 27 -62 62z" />
    <glyph glyph-name="udotbelow" unicode="&#x1ee5;" horiz-adv-x="593" 
d="M169 62c43 0 149 130 200 268l74 200h93l-74 -229c-43 -134 -58 -185 -58 -210c0 -16 6 -26 18 -26c27 0 78 56 104 116l30 -15c-35 -88 -115 -176 -184 -176c-41 0 -53 31 -53 85c0 22 2 50 7 75l-3 3c-71 -127 -136 -163 -194 -163c-62 0 -84 39 -84 90
c0 56 26 128 50 188c48 119 65 162 65 183c0 5 -1 11 -9 11c-17 0 -48 -29 -104 -97l-26 14c40 78 128 161 193 161c32 0 50 -21 50 -58c0 -47 -29 -121 -70 -223c-26 -65 -46 -117 -46 -159c0 -28 9 -38 21 -38zM100 -168c0 35 27 62 62 62s62 -27 62 -62s-27 -62 -62 -62
s-62 27 -62 62z" />
    <glyph glyph-name="Ygrave" unicode="&#x1ef2;" horiz-adv-x="689" 
d="M440 348l-47 -180c-8 -29 -12 -52 -12 -70c0 -45 30 -58 101 -58l-12 -40h-339l11 40c86 0 119 19 145 118l46 178l-120 288c-40 96 -57 106 -123 106l11 40h281l-11 -40c-50 0 -71 -9 -71 -35c0 -9 2 -22 8 -36l107 -258l139 203c29 42 41 59 41 83c0 28 -28 43 -74 43
l11 40h247l-11 -40c-54 0 -67 -14 -114 -81zM571 850h-60l-113 28c-38 9 -63 23 -63 41c0 25 26 41 48 41c27 0 47 -11 78 -33z" />
    <glyph glyph-name="ygrave" unicode="&#x1ef3;" horiz-adv-x="515" 
d="M215 11l-54 281c-21 110 -43 145 -67 145c-25 0 -45 -37 -66 -119l-37 10c28 124 89 212 148 212c25 0 41 -16 60 -66c16 -42 36 -115 55 -205l34 -161h4c50 63 110 170 110 251c0 27 -7 88 -7 111c0 48 29 70 56 70c34 0 50 -34 50 -73c0 -109 -127 -361 -260 -533
c-101 -131 -187 -194 -261 -194c-55 0 -91 35 -91 79c0 33 21 56 51 56c54 0 40 -75 78 -75c50 0 167 125 197 211zM398 651h-47l-119 65c-24 13 -39 27 -39 44c0 27 25 43 49 43c21 0 39 -10 58 -33z" />
    <glyph glyph-name="Ytilde" unicode="&#x1ef8;" horiz-adv-x="689" 
d="M440 348l-47 -180c-8 -29 -12 -52 -12 -70c0 -45 30 -58 101 -58l-12 -40h-339l11 40c86 0 119 19 145 118l46 178l-120 288c-40 96 -57 106 -123 106l11 40h281l-11 -40c-50 0 -71 -9 -71 -35c0 -9 2 -22 8 -36l107 -258l139 203c29 42 41 59 41 83c0 28 -28 43 -74 43
l11 40h247l-11 -40c-54 0 -67 -14 -114 -81zM343 846h-34c11 67 54 114 105 114c60 0 111 -46 159 -46c22 0 35 12 44 42h33c-7 -60 -46 -118 -99 -118c-59 0 -122 48 -166 48c-22 0 -33 -11 -42 -40z" />
    <glyph glyph-name="ytilde" unicode="&#x1ef9;" horiz-adv-x="515" 
d="M215 11l-54 281c-21 110 -36 145 -67 145c-25 0 -45 -37 -66 -119l-37 10c28 124 89 212 148 212c25 0 41 -16 60 -66c16 -42 36 -115 55 -205l34 -161h4c50 63 110 170 110 251c0 27 -7 88 -7 111c0 48 29 70 56 70c34 0 50 -34 50 -73c0 -109 -127 -361 -260 -533
c-101 -131 -187 -194 -261 -194c-55 0 -91 35 -91 79c0 33 21 56 51 56c54 0 40 -75 78 -75c50 0 167 125 197 211zM189 660h-34c11 67 54 114 105 114c20 0 47 -7 86 -24s56 -22 73 -22c22 0 35 12 44 42h33c-3 -27 -16 -61 -32 -82c-17 -23 -41 -36 -67 -36
c-18 0 -37 6 -84 25c-45 17 -66 23 -82 23c-22 0 -33 -11 -42 -40z" />
    <glyph glyph-name="endash" unicode="&#x2013;" horiz-adv-x="726" 
d="M630 248h-570l23 83h570z" />
    <glyph glyph-name="emdash" unicode="&#x2014;" horiz-adv-x="1114" 
d="M1018 248h-958l23 83h958z" />
    <glyph glyph-name="quoteleft" unicode="&#x2018;" horiz-adv-x="251" 
d="M309 830l16 -27c-74 -46 -108 -85 -122 -136c9 5 21 8 32 8c25 0 40 -16 40 -39c0 -44 -42 -77 -87 -77c-35 0 -52 18 -52 53c0 86 50 142 173 218z" />
    <glyph glyph-name="quoteright" unicode="&#x2019;" horiz-adv-x="249" 
d="M145 559l-16 27c74 46 108 85 122 136c-9 -5 -21 -8 -32 -8c-26 0 -40 15 -40 39c0 44 42 77 87 77c34 0 52 -19 52 -53c0 -87 -50 -143 -173 -218z" />
    <glyph glyph-name="quotesinglbase" unicode="&#x201a;" horiz-adv-x="260" 
d="M-42 -165l-16 27c74 46 108 85 122 136c-9 -5 -21 -8 -32 -8c-26 0 -40 15 -40 39c0 44 42 77 87 77c34 0 52 -19 52 -53c0 -87 -50 -143 -173 -218z" />
    <glyph glyph-name="quotedblleft" unicode="&#x201c;" horiz-adv-x="443" 
d="M501 830l16 -27c-74 -46 -108 -85 -122 -136c9 5 21 8 32 8c25 0 40 -16 40 -39c0 -44 -42 -77 -87 -77c-35 0 -52 18 -52 53c0 86 50 142 173 218zM309 830l16 -27c-74 -46 -108 -85 -122 -136c9 5 21 8 32 8c25 0 40 -16 40 -39c0 -44 -42 -77 -87 -77
c-35 0 -52 18 -52 53c0 86 50 142 173 218z" />
    <glyph glyph-name="quotedblright" unicode="&#x201d;" horiz-adv-x="441" 
d="M145 559l-16 27c74 46 108 85 122 136c-9 -5 -21 -8 -32 -8c-26 0 -40 15 -40 39c0 44 42 77 87 77c34 0 52 -19 52 -53c0 -87 -50 -143 -173 -218zM337 559l-16 27c74 46 108 85 122 136c-9 -5 -21 -8 -32 -8c-26 0 -40 15 -40 39c0 44 42 77 87 77c34 0 52 -19 52 -53
c0 -87 -50 -143 -173 -218z" />
    <glyph glyph-name="quotedblbase" unicode="&#x201e;" horiz-adv-x="452" 
d="M-42 -165l-16 27c74 46 108 85 122 136c-9 -5 -21 -8 -32 -8c-26 0 -40 15 -40 39c0 44 42 77 87 77c34 0 52 -19 52 -53c0 -87 -50 -143 -173 -218zM150 -165l-16 27c74 46 108 85 122 136c-9 -5 -21 -8 -32 -8c-26 0 -40 15 -40 39c0 44 42 77 87 77
c34 0 52 -19 52 -53c0 -87 -50 -143 -173 -218z" />
    <glyph glyph-name="dagger" unicode="&#x2020;" horiz-adv-x="560" 
d="M128 429c-29 0 -48 19 -48 46c0 42 42 78 81 78c45 0 64 -33 153 -41c10 43 13 75 13 100c0 29 -4 50 -4 71c0 51 34 97 84 97c29 0 47 -19 47 -45c0 -62 -59 -93 -99 -223c92 9 128 41 174 41c29 0 47 -19 47 -45c0 -42 -40 -79 -80 -79c-46 0 -66 32 -152 40
c-13 -48 -19 -85 -19 -117c0 -34 7 -62 18 -91c-58 -108 -150 -354 -195 -521h-40c45 167 85 413 85 521c52 56 83 109 111 208c-94 -8 -130 -40 -176 -40z" />
    <glyph glyph-name="daggerdbl" unicode="&#x2021;" horiz-adv-x="595" 
d="M363 261c-52 -56 -85 -111 -112 -210c92 8 128 40 174 40c29 0 48 -19 48 -46c0 -42 -42 -78 -81 -78c-46 0 -64 32 -152 41c-10 -43 -12 -74 -12 -99c0 -30 3 -51 3 -72c0 -51 -33 -97 -83 -97c-29 0 -48 18 -48 44c0 64 61 95 99 224c-93 -8 -130 -41 -175 -41
c-28 0 -47 18 -47 44c0 43 40 80 80 80c46 0 66 -32 154 -40c13 49 19 86 19 119s-7 62 -17 91c52 56 83 109 111 208c-94 -8 -130 -40 -176 -40c-29 0 -48 19 -48 46c0 42 42 78 81 78c45 0 64 -33 153 -41c10 43 13 75 13 100c0 29 -4 50 -4 71c0 51 34 97 84 97
c29 0 47 -19 47 -45c0 -62 -59 -93 -99 -223c92 9 128 41 174 41c29 0 47 -19 47 -45c0 -42 -40 -79 -80 -79c-46 0 -66 32 -152 40c-13 -48 -19 -85 -19 -117c0 -34 7 -62 18 -91z" />
    <glyph glyph-name="bullet" unicode="&#x2022;" horiz-adv-x="485" 
d="M250 216c-80 0 -151 68 -151 153s71 152 156 152c82 0 152 -67 152 -152s-70 -153 -157 -153z" />
    <glyph glyph-name="ellipsis" unicode="&#x2026;" horiz-adv-x="722" 
d="M68 -10c-37 0 -69 28 -69 68s30 72 69 72c41 0 71 -33 71 -71c0 -39 -32 -69 -71 -69zM298 -10c-37 0 -69 28 -69 68s30 72 69 72c41 0 71 -33 71 -71c0 -39 -32 -69 -71 -69zM528 -10c-37 0 -69 28 -69 68s30 72 69 72c41 0 71 -33 71 -71c0 -39 -32 -69 -71 -69z" />
    <glyph glyph-name="perthousand" unicode="&#x2030;" horiz-adv-x="988" 
d="M694 770l-614 -770h-67l623 770h58zM207 465c-51 0 -86 43 -86 107c0 103 80 209 157 209c52 0 87 -41 87 -102c0 -102 -83 -214 -158 -214zM274 755c-46 0 -99 -111 -99 -209c0 -35 14 -55 38 -55c46 0 97 112 97 212c0 33 -13 52 -36 52zM449 -10c-51 0 -86 43 -86 107
c0 103 80 209 157 209c52 0 87 -41 87 -102c0 -102 -83 -214 -158 -214zM516 280c-46 0 -99 -111 -99 -209c0 -35 14 -55 38 -55c46 0 97 112 97 212c0 33 -13 52 -36 52zM757 -10c-51 0 -86 43 -86 107c0 103 80 209 157 209c52 0 87 -41 87 -102
c0 -102 -83 -214 -158 -214zM824 280c-46 0 -99 -111 -99 -209c0 -35 14 -55 38 -55c46 0 97 112 97 212c0 33 -13 52 -36 52z" />
    <glyph glyph-name="guilsinglleft" unicode="&#x2039;" horiz-adv-x="307" 
d="M157 104l-128 158l213 159l14 -21l-136 -138l61 -138z" />
    <glyph glyph-name="guilsinglright" unicode="&#x203a;" horiz-adv-x="307" 
d="M250 262l-212 -158l-14 20l135 138l-62 138l26 21z" />
    <glyph glyph-name="fraction" unicode="&#x2044;" horiz-adv-x="40" 
d="M380 770l-614 -770h-67l623 770h58z" />
    <glyph glyph-name="zerosuperior" unicode="&#x2070;" horiz-adv-x="307" 
d="M201 465c-51 0 -86 43 -86 107c0 103 80 209 157 209c52 0 87 -41 87 -102c0 -102 -83 -214 -158 -214zM268 755c-46 0 -99 -111 -99 -209c0 -35 14 -55 38 -55c46 0 97 112 97 212c0 33 -13 52 -36 52z" />
    <glyph glyph-name="foursuperior" unicode="&#x2074;" horiz-adv-x="260" 
d="M306 780l-44 -174h49l-6 -24h-49l-33 -114h-42l29 114h-118l5 20l186 178h23zM134 606h83l29 105l-3 1z" />
    <glyph glyph-name="fivesuperior" unicode="&#x2075;" horiz-adv-x="286" 
d="M225 665c57 0 99 -38 99 -90c0 -61 -59 -111 -132 -111c-52 0 -87 25 -87 64c0 29 21 54 47 54c13 0 24 -8 26 -18c-17 0 -30 -16 -30 -38s18 -36 47 -36c44 0 77 38 77 90c0 39 -22 60 -61 60s-51 -24 -61 -24c-3 0 -6 3 -6 7c0 3 3 11 4 14l50 143c12 -4 38 -7 67 -7
s52 3 66 8l3 -1c-11 -32 -34 -49 -70 -49c-15 0 -38 3 -55 7l-27 -77l3 -2c7 3 26 6 40 6z" />
    <glyph glyph-name="sixsuperior" unicode="&#x2076;" horiz-adv-x="291" 
d="M321 580c0 -62 -54 -116 -115 -116c-55 0 -90 43 -90 112c0 106 79 204 164 204c38 0 67 -18 67 -43c0 -16 -10 -28 -27 -28c-11 0 -19 8 -19 22c0 19 -5 26 -21 26c-43 0 -86 -45 -104 -109l3 -1c17 11 34 16 53 16c53 0 89 -33 89 -83zM225 639c-38 0 -64 -34 -64 -85
c0 -43 15 -67 43 -67c36 0 64 40 64 90c0 41 -14 62 -43 62z" />
    <glyph glyph-name="sevensuperior" unicode="&#x2077;" horiz-adv-x="245" 
d="M286 729h-70c-31 0 -47 -1 -59 -24l-8 -16h-22l37 95h17c0 -2 -1 -1 -1 -3c0 -8 9 -11 30 -11h121l-1 -13c-56 -88 -63 -99 -142 -241c-26 -47 -41 -58 -56 -58s-21 10 -21 19c0 11 8 23 62 97z" />
    <glyph glyph-name="eightsuperior" unicode="&#x2078;" horiz-adv-x="296" 
d="M266 640c36 -22 51 -51 51 -83c0 -54 -48 -93 -116 -93c-58 0 -94 29 -94 77c0 43 28 73 84 89c-27 18 -43 43 -43 69c0 45 48 81 104 81c49 0 87 -28 87 -64s-32 -69 -73 -76zM232 608l-21 13c-39 -16 -58 -42 -58 -78c0 -34 17 -53 51 -53c39 0 67 23 67 55
c0 26 -13 47 -39 63zM230 658l16 -10c32 16 50 35 50 61s-17 45 -47 45s-54 -17 -54 -42c0 -18 12 -38 35 -54z" />
    <glyph glyph-name="ninesuperior" unicode="&#x2079;" horiz-adv-x="292" 
d="M136 664c0 62 54 116 115 116c55 0 90 -43 90 -112c0 -106 -79 -204 -164 -204c-38 0 -67 18 -67 43c0 16 10 28 27 28c30 0 7 -48 40 -48c43 0 86 45 104 109l-3 1c-17 -11 -34 -16 -53 -16c-53 0 -89 33 -89 83zM232 605c38 0 64 34 64 85c0 43 -15 67 -43 67
c-36 0 -64 -40 -64 -90c0 -41 14 -62 43 -62z" />
    <glyph glyph-name="zeroinferior" unicode="&#x2080;" horiz-adv-x="307" 
d="M74 -10c-51 0 -86 43 -86 107c0 103 80 209 157 209c52 0 87 -41 87 -102c0 -102 -83 -214 -158 -214zM141 280c-46 0 -99 -111 -99 -209c0 -35 14 -55 38 -55c46 0 97 112 97 212c0 33 -13 52 -36 52z" />
    <glyph glyph-name="oneinferior" unicode="&#x2081;" horiz-adv-x="273" 
d="M162 312l-51 -200c-6 -22 -10 -41 -10 -56c0 -21 10 -35 42 -35l-5 -21h-153l5 21c38 0 55 12 66 56l40 159c1 2 1 5 1 6c0 4 -2 6 -6 6c-9 0 -28 -7 -58 -7l7 22c44 0 74 23 102 49h20z" />
    <glyph glyph-name="twoinferior" unicode="&#x2082;" horiz-adv-x="283" 
d="M38 43v-4h72c26 0 38 7 53 30h19l-25 -69h-185l3 21c134 107 181 164 181 219c0 28 -17 46 -45 46c-31 0 -56 -22 -56 -49c0 -24 14 -38 38 -38c-5 -14 -18 -22 -35 -22c-29 0 -48 20 -48 50c0 47 49 86 109 86c54 0 89 -30 89 -74c0 -54 -47 -110 -170 -196z" />
    <glyph glyph-name="threeinferior" unicode="&#x2083;" horiz-adv-x="287" 
d="M132 82c0 35 -19 62 -45 62c-9 0 -23 -3 -31 -3c-9 0 -13 3 -13 8c0 36 107 -1 107 87c0 31 -12 45 -36 45c-28 0 -48 -16 -48 -37c0 -16 9 -26 25 -26c-4 -9 -15 -15 -27 -15c-24 0 -39 15 -39 37c0 38 39 66 92 66c50 0 82 -24 82 -62c0 -37 -32 -73 -73 -82v-4
c37 -9 58 -36 58 -70c0 -54 -55 -98 -124 -98c-52 0 -88 25 -88 62c0 30 25 56 54 56c14 0 26 -8 28 -18c-20 0 -37 -19 -37 -42c0 -21 17 -32 46 -32c41 0 69 26 69 66z" />
    <glyph glyph-name="fourinferior" unicode="&#x2084;" horiz-adv-x="259" 
d="M180 312l-44 -174h49l-6 -24h-49l-33 -114h-42l29 114h-118l5 20l186 178h23zM8 138h83l29 105l-3 1z" />
    <glyph glyph-name="fiveinferior" unicode="&#x2085;" horiz-adv-x="285" 
d="M98 191c57 0 99 -38 99 -90c0 -61 -59 -111 -132 -111c-52 0 -87 25 -87 64c0 29 21 54 47 54c13 0 24 -8 26 -18c-17 0 -30 -16 -30 -38s18 -36 47 -36c44 0 77 38 77 90c0 39 -22 60 -61 60s-51 -24 -61 -24c-3 0 -6 3 -6 7c0 3 5 17 8 25l46 132c12 -4 38 -7 67 -7
s52 3 66 8l3 -1c-11 -32 -34 -49 -70 -49c-15 0 -38 3 -55 7l-27 -77l3 -2c7 3 26 6 40 6z" />
    <glyph glyph-name="sixinferior" unicode="&#x2086;" horiz-adv-x="293" 
d="M194 106c0 -62 -54 -116 -115 -116c-55 0 -90 43 -90 112c0 106 79 204 164 204c38 0 67 -18 67 -43c0 -16 -10 -28 -27 -28c-11 0 -19 8 -19 22c0 19 -5 26 -21 26c-43 0 -86 -45 -104 -109l3 -1c17 11 34 16 53 16c53 0 89 -33 89 -83zM98 165c-38 0 -64 -34 -64 -85
c0 -43 15 -67 43 -67c36 0 64 40 64 90c0 41 -14 62 -43 62z" />
    <glyph glyph-name="seveninferior" unicode="&#x2087;" horiz-adv-x="246" 
d="M161 261h-70c-31 0 -47 -1 -59 -24l-8 -16h-22l37 95h17c0 -2 -1 -1 -1 -3c0 -8 9 -11 30 -11h121l-1 -13c-56 -88 -63 -99 -142 -241c-26 -47 -41 -58 -56 -58s-21 10 -21 19c0 11 8 23 62 97z" />
    <glyph glyph-name="eightinferior" unicode="&#x2088;" horiz-adv-x="295" 
d="M139 166c36 -22 51 -51 51 -83c0 -54 -48 -93 -116 -93c-58 0 -94 29 -94 77c0 43 28 73 84 89c-27 18 -43 43 -43 69c0 45 48 81 104 81c49 0 87 -28 87 -64s-32 -69 -73 -76zM105 134l-21 13c-39 -16 -58 -42 -58 -78c0 -34 17 -53 51 -53c39 0 67 23 67 55
c0 26 -14 45 -39 63zM103 184l16 -10c32 16 50 35 50 61s-17 45 -47 45s-54 -17 -54 -42c0 -18 12 -38 35 -54z" />
    <glyph glyph-name="nineinferior" unicode="&#x2089;" horiz-adv-x="293" 
d="M10 190c0 62 54 116 115 116c55 0 90 -43 90 -112c0 -106 -79 -204 -164 -204c-38 0 -67 18 -67 43c0 16 10 28 27 28c30 0 7 -48 40 -48c43 0 86 45 104 109l-3 1c-17 -11 -34 -16 -53 -16c-53 0 -89 33 -89 83zM106 131c38 0 64 34 64 85c0 43 -15 67 -43 67
c-36 0 -64 -40 -64 -90c0 -41 14 -62 43 -62z" />
    <glyph glyph-name="Euro" unicode="&#x20ac;" horiz-adv-x="712" 
d="M368 43c84 0 160 55 160 124c0 28 -9 43 -26 53c20 15 40 24 60 24c34 0 54 -25 54 -71c0 -99 -130 -183 -268 -183c-142 0 -224 90 -224 247c0 17 0 29 4 63h-85l14 52h80c5 27 16 62 25 84h-83l12 52h90c79 178 224 292 374 292c101 0 168 -55 168 -137
c0 -60 -38 -99 -95 -99c-22 0 -33 6 -41 21c32 9 55 45 55 86c0 50 -33 78 -91 78c-100 0 -184 -83 -245 -241h231l-13 -52h-234c-7 -19 -18 -55 -24 -84h235l-14 -52h-233c-10 -37 -16 -74 -16 -107c0 -95 47 -150 130 -150z" />
    <glyph glyph-name="servicemark" unicode="&#x2120;" horiz-adv-x="812" 
d="M589 544h4l98 226h100v-20c-35 -1 -40 -12 -40 -61v-146c0 -53 6 -60 44 -61v-20h-135v20c39 1 44 8 44 58v180h-4l-117 -262h-8l-113 262h-4v-177c0 -53 6 -60 44 -61v-20h-117v20c38 1 44 8 44 58v152c0 45 -5 56 -40 58v20h106zM153 472v90h18c7 -39 33 -73 85 -73
c33 0 60 16 60 47c0 80 -152 50 -152 160c0 54 43 84 90 84c22 0 42 -7 63 -24l11 18h11v-79h-17c-10 30 -27 60 -67 60c-25 0 -48 -12 -48 -39c0 -77 158 -59 158 -162c0 -61 -57 -90 -110 -90c-31 0 -54 9 -77 28l-11 -20h-14z" />
    <glyph glyph-name="trademark" unicode="&#x2122;" horiz-adv-x="939" 
d="M480 770l4 -76h-21c-4 42 -18 54 -59 54c-39 0 -45 -3 -45 -13v-204c0 -35 7 -47 52 -49v-20h-161v20c45 2 52 15 52 49v204c0 10 -6 13 -40 13c-35 0 -62 -3 -64 -54h-20v76h302zM708 544h4l98 226h100v-20c-35 -1 -40 -12 -40 -61v-146c0 -53 6 -60 44 -61v-20h-135v20
c39 1 44 8 44 58v180h-4l-117 -262h-8l-113 262h-4v-177c0 -53 6 -60 44 -61v-20h-117v20c38 1 44 8 44 58v152c0 45 -5 56 -40 58v20h106z" />
    <glyph glyph-name="onethird" unicode="&#x2153;" horiz-adv-x="652" 
d="M669 770l-614 -770h-67l623 770h58zM287 780l-51 -200c-5 -20 -10 -41 -10 -56c0 -21 10 -35 42 -35l-5 -21h-153l5 21c38 0 55 13 66 56l40 159c1 2 1 5 1 6c0 4 -2 6 -6 6c-9 0 -28 -7 -58 -7l7 22c44 0 74 23 102 49h20zM499 82c0 35 -19 62 -45 62
c-9 0 -23 -3 -31 -3c-9 0 -13 3 -13 8c0 36 107 -1 107 87c0 31 -12 45 -36 45c-28 0 -48 -16 -48 -37c0 -16 9 -26 25 -26c-4 -9 -15 -15 -27 -15c-24 0 -39 15 -39 37c0 38 39 66 92 66c50 0 82 -24 82 -62c0 -37 -32 -73 -73 -82v-4c37 -9 58 -36 58 -70
c0 -54 -55 -98 -124 -98c-52 0 -88 25 -88 62c0 30 25 56 54 56c14 0 26 -8 28 -18c-20 0 -37 -19 -37 -42c0 -21 17 -32 46 -32c41 0 69 26 69 66z" />
    <glyph glyph-name="twothirds" unicode="&#x2154;" horiz-adv-x="661" 
d="M678 770l-614 -770h-67l623 770h58zM180 511v-4h72c26 0 38 7 53 30h19l-25 -69h-185l3 21c134 107 181 164 181 219c0 28 -17 46 -45 46c-31 0 -56 -22 -56 -49c0 -24 14 -38 38 -38c-5 -14 -18 -22 -35 -22c-29 0 -48 20 -48 50c0 47 49 86 109 86c54 0 89 -30 89 -74
c0 -54 -48 -112 -170 -196zM508 82c0 35 -19 62 -45 62c-9 0 -23 -3 -31 -3c-9 0 -13 3 -13 8c0 36 107 -1 107 87c0 31 -12 45 -36 45c-28 0 -48 -16 -48 -37c0 -16 9 -26 25 -26c-4 -9 -15 -15 -27 -15c-24 0 -39 15 -39 37c0 38 39 66 92 66c50 0 82 -24 82 -62
c0 -37 -32 -73 -73 -82v-4c37 -9 58 -36 58 -70c0 -54 -55 -98 -124 -98c-52 0 -88 25 -88 62c0 30 25 56 54 56c14 0 26 -8 28 -18c-20 0 -37 -19 -37 -42c0 -21 17 -32 46 -32c41 0 69 26 69 66z" />
    <glyph glyph-name="oneeighth" unicode="&#x215b;" horiz-adv-x="652" 
d="M669 770l-614 -770h-67l623 770h58zM287 780l-51 -200c-5 -20 -10 -41 -10 -56c0 -21 10 -35 42 -35l-5 -21h-153l5 21c38 0 55 13 66 56l40 159c1 2 1 5 1 6c0 4 -2 6 -6 6c-9 0 -28 -7 -58 -7l7 22c44 0 74 23 102 49h20zM497 166c36 -22 51 -51 51 -83
c0 -54 -48 -93 -116 -93c-58 0 -94 29 -94 77c0 43 28 73 84 89c-27 18 -43 43 -43 69c0 45 48 81 104 81c49 0 87 -28 87 -64s-32 -69 -73 -76zM463 134l-21 13c-39 -16 -58 -42 -58 -78c0 -34 17 -53 51 -53c39 0 67 23 67 55c0 26 -14 45 -39 63zM461 184l16 -10
c32 16 50 35 50 61s-17 45 -47 45s-54 -17 -54 -42c0 -18 12 -38 35 -54z" />
    <glyph glyph-name="threeeighths" unicode="&#x215c;" horiz-adv-x="678" 
d="M695 770l-614 -770h-67l623 770h58zM523 166c36 -22 51 -51 51 -83c0 -54 -48 -93 -116 -93c-58 0 -94 29 -94 77c0 43 28 73 84 89c-27 18 -43 43 -43 69c0 45 48 81 104 81c49 0 87 -28 87 -64s-32 -69 -73 -76zM489 134l-21 13c-39 -16 -58 -42 -58 -78
c0 -34 17 -53 51 -53c39 0 67 23 67 55c0 26 -14 45 -39 63zM487 184l16 -10c32 16 50 35 50 61s-17 45 -47 45s-54 -17 -54 -42c0 -18 12 -38 35 -54zM267 556c0 35 -19 62 -45 62c-9 0 -23 -3 -31 -3c-9 0 -13 3 -13 8c0 36 107 -1 107 87c0 31 -12 45 -36 45
c-28 0 -48 -16 -48 -37c0 -16 9 -26 25 -26c-4 -9 -15 -15 -27 -15c-24 0 -39 15 -39 37c0 38 39 66 92 66c50 0 82 -24 82 -62c0 -37 -32 -73 -73 -82v-4c37 -9 58 -36 58 -70c0 -54 -55 -98 -124 -98c-52 0 -88 25 -88 62c0 30 25 56 54 56c14 0 26 -8 28 -18
c-20 0 -37 -19 -37 -42c0 -21 17 -32 46 -32c41 0 69 26 69 66z" />
    <glyph glyph-name="fiveeighths" unicode="&#x215d;" horiz-adv-x="679" 
d="M696 770l-614 -770h-67l623 770h58zM524 166c36 -22 51 -51 51 -83c0 -54 -48 -93 -116 -93c-58 0 -94 29 -94 77c0 43 28 73 84 89c-27 18 -43 43 -43 69c0 45 48 81 104 81c49 0 87 -28 87 -64s-32 -69 -73 -76zM490 134l-21 13c-39 -16 -58 -42 -58 -78
c0 -34 17 -53 51 -53c39 0 67 23 67 55c0 26 -14 45 -39 63zM488 184l16 -10c32 16 50 35 50 61s-17 45 -47 45s-54 -17 -54 -42c0 -18 12 -38 35 -54zM226 665c57 0 99 -38 99 -90c0 -61 -59 -111 -132 -111c-52 0 -87 25 -87 64c0 29 21 54 47 54c13 0 24 -8 26 -18
c-17 0 -30 -16 -30 -38s18 -36 47 -36c44 0 77 38 77 90c0 39 -22 60 -61 60s-51 -24 -61 -24c-3 0 -6 3 -6 7c0 3 3 11 4 14l50 143c12 -4 38 -7 67 -7s52 3 66 8l3 -1c-11 -32 -34 -49 -70 -49c-15 0 -38 3 -55 7l-27 -77l3 -2c7 3 26 6 40 6z" />
    <glyph glyph-name="seveneighths" unicode="&#x215e;" horiz-adv-x="650" 
d="M667 770l-614 -770h-67l623 770h58zM495 166c36 -22 51 -51 51 -83c0 -54 -48 -93 -116 -93c-58 0 -94 29 -94 77c0 43 28 73 84 89c-27 18 -43 43 -43 69c0 45 48 81 104 81c49 0 87 -28 87 -64s-32 -69 -73 -76zM461 134l-21 13c-39 -16 -58 -42 -58 -78
c0 -34 17 -53 51 -53c39 0 67 23 67 55c0 26 -14 45 -39 63zM459 184l16 -10c32 16 50 35 50 61s-17 45 -47 45s-54 -17 -54 -42c0 -18 12 -38 35 -54zM310 729h-70c-31 0 -47 -1 -59 -24l-8 -16h-22l37 95h17c0 -2 -1 -1 -1 -3c0 -8 9 -11 30 -11h121l-1 -13
c-56 -88 -63 -99 -142 -241c-26 -47 -41 -58 -56 -58s-21 10 -21 19c0 11 8 23 62 97z" />
    <glyph glyph-name="minus" unicode="&#x2212;" horiz-adv-x="657" 
d="M566 363v-50h-468v50h468z" />
    <glyph glyph-name="uni2215" unicode="&#x2215;" horiz-adv-x="464" 
d="M592 770l-614 -770h-67l623 770h58z" />
    <glyph glyph-name="uni2219" unicode="&#x2219;" horiz-adv-x="275" 
d="M61 274c0 37 29 66 65 66c37 0 66 -29 66 -66c0 -36 -29 -65 -66 -65c-36 0 -65 29 -65 65z" />
    <glyph glyph-name="commaaccent" unicode="&#xf6c3;" horiz-adv-x="162" 
d="M47 -260l-22 26c45 25 65 49 65 78c-6 -5 -15 -8 -26 -8c-26 0 -44 19 -44 47c0 31 24 53 59 53c40 0 63 -29 63 -79c0 -43 -26 -80 -95 -117z" />
    <glyph glyph-name="s_t" unicode="&#xfb06;" horiz-adv-x="721" 
d="M77 387c0 88 70 153 166 153h4c-15 22 -27 50 -27 82c0 61 52 108 119 108c52 0 105 -32 154 -32c40 0 78 24 102 67l2 4h92l-84 -276h109l-14 -46h-109l-83 -275c-11 -36 -18 -68 -18 -82c0 -15 7 -23 21 -23c31 0 95 57 130 114l29 -17c-51 -98 -145 -174 -216 -174
c-40 0 -60 23 -60 65c0 28 9 73 31 147l74 245h-86l13 46h87l57 188c-21 -20 -47 -33 -79 -33c-64 0 -103 31 -147 31c-45 0 -74 -30 -74 -77c0 -36 16 -62 49 -83c22 -16 36 -39 36 -65c0 -28 -17 -45 -43 -45c-61 0 -42 88 -92 88c-29 0 -52 -29 -52 -66
c0 -89 126 -142 126 -276c0 -90 -85 -165 -176 -165c-79 0 -131 38 -131 94c0 38 20 62 50 62c28 0 45 -20 49 -59c4 -43 11 -53 41 -53c48 0 78 31 78 81c0 108 -128 151 -128 272z" />
    <glyph glyph-name="caron.alt" horiz-adv-x="162" 
d="M20 584l-15 26c52 25 78 49 86 78c-7 -5 -17 -8 -28 -8c-21 0 -33 12 -33 31c0 39 35 69 75 69c30 0 46 -17 46 -47c0 -56 -34 -104 -131 -149z" />
    <glyph glyph-name="dotbelow" horiz-adv-x="164" 
d="M20 -168c0 35 27 62 62 62s62 -27 62 -62s-27 -62 -62 -62s-62 27 -62 62z" />
    <glyph glyph-name="A.ss01" horiz-adv-x="728" 
d="M550 780l-3 -614c0 -32 1 -61 5 -77c9 -40 35 -49 104 -49l-2 -40h-296l2 40c78 0 91 18 91 127v123h-223l-44 -66c-78 -117 -82 -135 -82 -146c0 -29 31 -38 83 -38l-2 -40h-258l2 40c63 0 109 45 199 191l340 549h84zM258 340h191l13 333h-4z" />
    <glyph glyph-name="V.ss01" horiz-adv-x="723" 
d="M308 116l268 430c78 125 82 133 82 145c0 29 -25 39 -79 39l2 40h258l-2 -40c-63 0 -109 -45 -199 -191l-340 -549h-84c0 230 3 551 3 618c0 103 -7 122 -109 122l2 40h296l-2 -40c-78 0 -89 -18 -91 -127c-7 -351 -7 -346 -9 -487h4z" />
    <glyph glyph-name="W.ss01" horiz-adv-x="1028" 
d="M655 142l222 404c50 91 71 138 71 161c0 19 -27 23 -69 23l2 40h259l-2 -40c-63 0 -117 -40 -200 -191l-302 -549h-81v477l-261 -477h-84c1 205 3 409 5 614c0 35 -1 61 -5 77c-9 39 -31 49 -104 49l2 40h276l-2 -40c-56 0 -70 -19 -71 -127c-1 -153 -2 -306 -2 -459h4
l244 435v25c0 35 -1 61 -5 77c-9 39 -29 49 -94 49l2 40h286l-2 -40c-78 0 -90 -18 -91 -127c-1 -154 -2 -307 -2 -461h4z" />
    <glyph glyph-name="dotaccent.cap" horiz-adv-x="165" 
d="M30 904c0 31 24 55 52 55c31 0 55 -24 55 -55c0 -28 -24 -52 -55 -52c-28 0 -52 24 -52 52z" />
    <glyph glyph-name="dieresis.cap" horiz-adv-x="323" 
d="M20 910c7 28 35 50 63 50c24 0 40 -16 40 -37c0 -35 -35 -64 -67 -64c-23 0 -38 15 -38 36c0 5 0 10 2 15zM202 910c7 28 35 50 64 50c23 0 39 -16 39 -37c0 -35 -35 -64 -66 -64c-24 0 -39 15 -39 36c0 5 0 10 2 15z" />
    <glyph glyph-name="acute.cap" horiz-adv-x="295" 
d="M65 850h-60l150 77c43 22 69 33 96 33c19 0 30 -9 30 -25c0 -27 -32 -45 -89 -57z" />
    <glyph glyph-name="grave.cap" horiz-adv-x="295" 
d="M260 850h-60l-113 28c-38 9 -63 23 -63 41c0 25 26 41 48 41c27 0 47 -11 78 -33z" />
    <glyph glyph-name="hungarumlaut.cap" horiz-adv-x="473" 
d="M80 850h-60l120 77c36 23 60 33 87 33c23 0 38 -13 38 -35c0 -21 -30 -36 -75 -47zM267 850h-60l120 77c36 23 60 33 87 33c23 0 38 -13 38 -35c0 -21 -30 -36 -75 -47z" />
    <glyph glyph-name="tilde.cap" horiz-adv-x="381" 
d="M54 846h-34c11 67 54 114 105 114c60 0 111 -46 159 -46c22 0 35 12 44 42h33c-7 -60 -46 -118 -99 -118c-59 0 -122 48 -166 48c-22 0 -33 -11 -42 -40z" />
    </font>
</defs>
</svg>
