<?xml version="1.0" standalone="no"?>
<!DOCTYPE svg PUBLIC "-//W3C//DTD SVG 1.1//EN" "http://www.w3.org/Graphics/SVG/1.1/DTD/svg11.dtd" >
<svg version="1.1" xmlns="http://www.w3.org/2000/svg">
<metadata>
Created by FontForge 20120731 at Fri Aug  1 16:50:38 2014

Copyright 2010, 2012 Adobe Systems Incorporated. All Rights Reserved.
</metadata>
<defs>
<font id="sourcesanspro" horiz-adv-x="0" >
  <font-face 
    font-family="Source Sans Pro"
    font-weight="200"
    font-stretch="normal"
    units-per-em="1000"
    panose-1="2 11 3 3 3 4 3 2 2 4"
    ascent="750"
    descent="-250"
    x-height="478"
    cap-height="660"
    bbox="-164 -274 1108 934"
    underline-thickness="50"
    underline-position="-50"
    stemh="40"
    stemv="44"
    unicode-range="U+0020-FEFF"
  />
<missing-glyph horiz-adv-x="624" 
d="M96 0v660h432v-660h-432zM134 74l154 266l-154 270v-536zM336 340l152 -266v536zM144 32h332l-100 176l-62 106h-4l-64 -106zM310 366h4l54 92l94 168h-302l94 -168z" />
    <glyph glyph-name="f_f" unicode="ff" horiz-adv-x="508" 
d="M535 718l-10 -26c-20 10 -40 14 -58 14c-54 0 -78 -42 -78 -114v-114h114v-28h-114v-450h-30v450h-229v-450h-30v450h-65v24l65 4v98c0 100 48 148 122 148c24 0 52 -6 78 -18l-10 -26c-25 12 -48 16 -70 16c-60 0 -90 -46 -90 -124v-94h229v118c0 94 42 138 110 138
c20 0 44 -6 66 -16z" />
    <glyph glyph-name="f_t" unicode="ft" horiz-adv-x="518" 
d="M498 32l10 -26c-28 -10 -58 -18 -74 -18c-88 0 -112 56 -112 138v324h-192v-450h-30v450h-66v24l66 4v118c0 94 42 138 110 138c20 0 44 -6 66 -16l-10 -26c-20 10 -40 14 -58 14c-54 0 -78 -42 -78 -114v-114h192l4 140h26v-140h142v-28h-142v-328
c0 -62 14 -106 84 -106c18 0 44 8 62 16z" />
    <glyph glyph-name=".notdef" horiz-adv-x="624" 
d="M96 0v660h432v-660h-432zM134 74l154 266l-154 270v-536zM336 340l152 -266v536zM144 32h332l-100 176l-62 106h-4l-64 -106zM310 366h4l54 92l94 168h-302l94 -168z" />
    <glyph glyph-name="space" unicode=" " horiz-adv-x="198" 
 />
    <glyph glyph-name="exclam" unicode="!" horiz-adv-x="248" 
d="M112 172l-4 436v62h32v-62l-4 -436h-24zM88 26c0 26 18 40 36 40s36 -14 36 -40c0 -24 -18 -38 -36 -38s-36 14 -36 38z" />
    <glyph glyph-name="quotedbl" unicode="&#x22;" horiz-adv-x="336" 
d="M90 494l-6 140v60h38v-60l-6 -140h-26zM218 494l-6 140v60h38v-60l-6 -140h-26z" />
    <glyph glyph-name="numbersign" unicode="#" horiz-adv-x="472" 
d="M94 0l26 218h-84v28h88l22 178h-90v28h92l26 198h28l-26 -198h156l26 198h28l-26 -198h82v-28h-84l-22 -178h86v-28h-90l-26 -218h-28l26 218h-156l-26 -218h-28zM152 246h156l22 178h-156z" />
    <glyph glyph-name="dollar" unicode="$" horiz-adv-x="472" 
d="M394 582l-20 -20c-38 38 -68 62 -132 62c-72 0 -122 -54 -122 -122c0 -186 292 -120 292 -354c0 -95 -68 -154 -154 -160v-98h-30v99c-71 5 -129 42 -166 77l18 22c36 -34 92 -72 164 -72c88 0 136 54 136 130c0 210 -292 148 -292 354c0 83 60 144 140 151v99h30v-98
c65 -4 102 -34 136 -70z" />
    <glyph glyph-name="percent" unicode="%" horiz-adv-x="798" 
d="M180 258c-86 0 -138 74 -138 208c0 132 52 206 138 206s138 -74 138 -206c0 -134 -52 -208 -138 -208zM180 284c66 0 108 68 108 182s-42 180 -108 180s-108 -66 -108 -180s42 -182 108 -182zM228 -12h-32l370 684h32zM618 -12c-86 0 -138 74 -138 208
c0 132 52 206 138 206s138 -74 138 -206c0 -134 -52 -208 -138 -208zM618 14c66 0 108 68 108 182s-42 180 -108 180s-108 -66 -108 -180s42 -182 108 -182z" />
    <glyph glyph-name="ampersand" unicode="&#x26;" horiz-adv-x="562" 
d="M226 16c58 0 111 32 154 77c-72 67 -145 155 -193 246c-63 -49 -117 -100 -117 -171c0 -92 72 -152 156 -152zM160 530c0 -47 15 -98 39 -150c69 52 135 102 135 174c0 44 -20 90 -76 90c-62 0 -98 -52 -98 -114zM550 16l-12 -28c-40 15 -86 43 -137 86
c-48 -51 -104 -86 -177 -86c-100 0 -186 68 -186 178c0 85 67 143 137 196c-28 57 -45 114 -45 166c0 84 54 144 130 144c68 0 104 -50 104 -116c0 -84 -78 -141 -154 -199c47 -90 119 -178 189 -242c50 62 85 139 109 227h30c-26 -92 -65 -178 -118 -245
c47 -39 91 -66 130 -81z" />
    <glyph glyph-name="quotesingle" unicode="'" horiz-adv-x="208" 
d="M90 494l-6 140v60h38v-60l-6 -140h-26z" />
    <glyph glyph-name="parenleft" unicode="(" horiz-adv-x="270" 
d="M222 -174c-82 132 -132 276 -132 452s50 320 132 452l18 -12c-80 -126 -122 -280 -122 -440s42 -314 122 -440z" />
    <glyph glyph-name="parenright" unicode=")" horiz-adv-x="270" 
d="M30 -162c80 126 122 280 122 440s-42 314 -122 440l18 12c82 -132 132 -276 132 -452s-50 -320 -132 -452z" />
    <glyph glyph-name="asterisk" unicode="*" horiz-adv-x="386" 
d="M130 478l-22 16l54 86l-88 34l8 24l92 -26l6 100h26l6 -98l92 24l8 -24l-88 -34l54 -86l-22 -16l-62 82z" />
    <glyph glyph-name="plus" unicode="+" horiz-adv-x="472" 
d="M220 112v204h-186v28h186v204h32v-204h186v-28h-186v-204h-32z" />
    <glyph glyph-name="comma" unicode="," horiz-adv-x="208" 
d="M60 -150l-12 24c41 24 71 65 72 121c-4 -1 -8 -1 -12 -1c-20 0 -36 12 -36 36s18 36 36 36c26 0 44 -24 44 -62c0 -68 -40 -122 -92 -154z" />
    <glyph glyph-name="hyphen" unicode="-" horiz-adv-x="294" 
d="M40 234v30h216v-30h-216z" />
    <glyph glyph-name="period" unicode="." horiz-adv-x="208" 
d="M68 26c0 26 18 40 36 40s36 -14 36 -40c0 -24 -18 -38 -36 -38s-36 14 -36 38z" />
    <glyph glyph-name="slash" unicode="/" horiz-adv-x="360" 
d="M8 -160l320 870h30l-320 -870h-30z" />
    <glyph glyph-name="zero" unicode="0" horiz-adv-x="472" 
d="M236 -12c-120 0 -186 122 -186 334s66 330 186 330s186 -118 186 -330s-66 -334 -186 -334zM236 16c94 0 154 108 154 306s-60 302 -154 302s-154 -104 -154 -302s60 -306 154 -306z" />
    <glyph glyph-name="one" unicode="1" horiz-adv-x="472" 
d="M86 0v28h152v552h-114v22c50 8 90 22 118 38h26v-612h142v-28h-324z" />
    <glyph glyph-name="two" unicode="2" horiz-adv-x="472" 
d="M42 0v20c216 222 320 342 320 456c0 82 -44 148 -146 148c-60 0 -114 -36 -154 -86l-22 20c46 52 102 94 178 94c112 0 176 -70 176 -176c0 -130 -118 -253 -306 -452c36 2 72 4 108 4h230v-28h-384z" />
    <glyph glyph-name="three" unicode="3" horiz-adv-x="472" 
d="M30 78l20 22c38 -42 90 -84 182 -84c90 0 156 60 156 150c0 92 -68 156 -230 156v30c152 0 206 66 206 146c0 76 -54 126 -136 126c-60 0 -114 -32 -150 -72l-20 22c42 42 96 78 170 78c94 0 168 -56 168 -152c0 -86 -54 -137 -124 -160v-4c80 -16 148 -76 148 -168
c0 -110 -82 -180 -190 -180c-102 0 -160 48 -200 90z" />
    <glyph glyph-name="four" unicode="4" horiz-adv-x="472" 
d="M58 224h254v252c0 28 2 78 4 106h-4c-16 -26 -34 -48 -52 -76zM440 224v-28h-98v-196h-30v196h-296v16l306 428h20v-416h98z" />
    <glyph glyph-name="five" unicode="5" horiz-adv-x="472" 
d="M26 74l20 22c38 -40 88 -80 180 -80c88 0 166 74 166 182s-64 174 -164 174c-50 0 -84 -18 -122 -44l-26 16l24 296h286v-28h-258l-22 -246c34 21 70 36 120 36c108 0 194 -62 194 -202c0 -136 -100 -212 -200 -212c-102 0 -158 46 -198 86z" />
    <glyph glyph-name="six" unicode="6" horiz-adv-x="472" 
d="M260 16c78 0 136 76 136 170c0 96 -42 170 -146 170c-47 0 -108 -28 -163 -101c7 -139 60 -239 173 -239zM414 592l-20 -22c-29 36 -68 54 -110 54c-105 0 -197 -85 -198 -331c45 55 104 91 166 91c112 0 176 -70 176 -198c0 -114 -78 -198 -170 -198
c-128 0 -204 110 -204 300c0 272 110 364 232 364c56 0 96 -24 128 -60z" />
    <glyph glyph-name="seven" unicode="7" horiz-adv-x="472" 
d="M192 0c10 264 66 430 196 612h-344v28h386v-18c-154 -206 -194 -372 -204 -622h-34z" />
    <glyph glyph-name="eight" unicode="8" horiz-adv-x="472" 
d="M72 164c0 -82 70 -148 168 -148c96 0 158 62 158 138c0 104 -102 140 -204 180c-70 -40 -122 -96 -122 -170zM288 330c58 46 90 98 90 156c0 74 -50 138 -138 138c-76 0 -130 -54 -130 -126c0 -96 92 -134 178 -168zM40 164c0 88 70 152 130 184v4c-46 30 -92 78 -92 146
c0 90 72 154 162 154c108 0 170 -72 170 -166c0 -72 -56 -136 -92 -166v-4c54 -34 112 -76 112 -162c0 -92 -76 -166 -190 -166c-116 0 -200 76 -200 176z" />
    <glyph glyph-name="nine" unicode="9" horiz-adv-x="472" 
d="M222 284c47 0 108 28 163 101c-7 139 -60 239 -173 239c-78 0 -136 -76 -136 -170c0 -96 42 -170 146 -170zM58 48l20 22c29 -36 68 -54 110 -54c105 0 197 85 198 331c-45 -55 -104 -91 -166 -91c-112 0 -176 70 -176 198c0 114 78 198 170 198c128 0 204 -110 204 -300
c0 -272 -110 -364 -232 -364c-56 0 -97 24 -128 60z" />
    <glyph glyph-name="colon" unicode=":" horiz-adv-x="208" 
d="M68 416c0 26 18 40 36 40s36 -14 36 -40c0 -24 -18 -38 -36 -38s-36 14 -36 38zM68 26c0 26 18 40 36 40s36 -14 36 -40c0 -24 -18 -38 -36 -38s-36 14 -36 38z" />
    <glyph glyph-name="semicolon" unicode=";" horiz-adv-x="208" 
d="M104 378c-18 0 -36 14 -36 38c0 26 18 40 36 40s36 -14 36 -40c0 -24 -18 -38 -36 -38zM60 -150l-12 24c41 24 71 65 72 121c-4 -1 -8 -1 -12 -1c-20 0 -36 12 -36 36s18 36 36 36c26 0 44 -24 44 -62c0 -68 -40 -122 -92 -154z" />
    <glyph glyph-name="less" unicode="&#x3c;" horiz-adv-x="472" 
d="M34 314v36l404 162v-32l-240 -94l-132 -52v-4l132 -52l240 -94v-32z" />
    <glyph glyph-name="equal" unicode="=" horiz-adv-x="472" 
d="M34 416v28h404v-28h-404zM34 216v28h404v-28h-404z" />
    <glyph glyph-name="greater" unicode="&#x3e;" horiz-adv-x="472" 
d="M438 350v-36l-404 -162v32l240 94l132 52v4l-132 52l-240 94v32z" />
    <glyph glyph-name="question" unicode="?" horiz-adv-x="394" 
d="M164 172c-22 170 146 228 146 358c0 64 -36 124 -120 124c-50 0 -100 -24 -134 -66l-20 18c38 42 88 76 156 76c96 0 150 -68 150 -150c0 -138 -170 -203 -150 -360h-28zM146 26c0 26 18 40 36 40s36 -14 36 -40c0 -24 -18 -38 -36 -38s-36 14 -36 38z" />
    <glyph glyph-name="at" unicode="@" horiz-adv-x="802" 
d="M52 202c0 258 184 426 390 426c190 0 308 -124 308 -312c0 -168 -98 -258 -178 -258c-52 0 -90 24 -94 76h-2c-36 -38 -76 -70 -122 -70c-60 0 -112 44 -112 134c0 94 66 222 184 222c36 0 64 -16 84 -48h2l8 40h26l-34 -184c-24 -96 -2 -142 62 -142s146 82 146 228
c0 176 -110 286 -280 286c-184 0 -358 -156 -358 -396c0 -194 120 -318 302 -318c68 0 122 20 170 50l14 -24c-56 -36 -118 -54 -186 -54c-192 0 -330 128 -330 344zM272 200c0 -80 38 -108 84 -108c34 0 72 22 114 70l32 178c-26 40 -46 52 -78 52
c-94 0 -152 -104 -152 -192z" />
    <glyph glyph-name="A" unicode="A" horiz-adv-x="520" 
d="M135 264h249l-46 132c-28 80 -52 148 -76 230h-4c-24 -82 -48 -150 -76 -230zM476 0l-82 236h-269l-83 -236h-32l236 660h28l236 -660h-34z" />
    <glyph glyph-name="B" unicode="B" horiz-adv-x="574" 
d="M100 0v660h172c132 0 214 -52 214 -160c0 -70 -40 -124 -118 -144v-4c98 -14 160 -68 160 -160c0 -126 -94 -192 -244 -192h-184zM132 366h120c144 0 202 46 202 138c0 90 -68 128 -196 128h-126v-266zM132 28h140c138 0 224 50 224 162c0 100 -82 148 -224 148h-140
v-310z" />
    <glyph glyph-name="C" unicode="C" horiz-adv-x="562" 
d="M56 332c0 208 110 340 278 340c76 0 134 -38 168 -78l-20 -22c-36 42 -86 70 -148 70c-152 0 -244 -120 -244 -310s92 -314 240 -314c70 0 122 28 172 84l20 -20c-50 -58 -108 -94 -194 -94c-162 0 -272 136 -272 344z" />
    <glyph glyph-name="D" unicode="D" horiz-adv-x="600" 
d="M100 0v660h148c204 0 296 -132 296 -328s-92 -332 -296 -332h-148zM132 28h112c188 0 266 130 266 304s-78 300 -266 300h-112v-604z" />
    <glyph glyph-name="E" unicode="E" horiz-adv-x="510" 
d="M100 0v660h354v-28h-322v-266h270v-28h-270v-310h332v-28h-364z" />
    <glyph glyph-name="F" unicode="F" horiz-adv-x="470" 
d="M100 0v660h352v-28h-320v-278h270v-28h-270v-326h-32z" />
    <glyph glyph-name="G" unicode="G" horiz-adv-x="600" 
d="M56 332c0 208 114 340 288 340c88 0 142 -42 176 -78l-20 -22c-34 38 -82 70 -156 70c-158 0 -254 -120 -254 -310s92 -314 246 -314c64 0 124 20 158 54v218h-164v28h196v-256c-40 -44 -106 -74 -192 -74c-168 0 -278 136 -278 344z" />
    <glyph glyph-name="H" unicode="H" horiz-adv-x="634" 
d="M100 0v660h32v-294h370v294h32v-660h-32v338h-370v-338h-32z" />
    <glyph glyph-name="I" unicode="I" horiz-adv-x="232" 
d="M100 0v660h32v-660h-32z" />
    <glyph glyph-name="J" unicode="J" horiz-adv-x="456" 
d="M44 82l26 16c34 -58 74 -80 132 -80c84 0 124 50 124 160v482h32v-486c0 -104 -42 -186 -158 -186c-70 0 -124 34 -156 94z" />
    <glyph glyph-name="K" unicode="K" horiz-adv-x="550" 
d="M100 0v660h32v-380h2l336 380h40l-212 -242l240 -418h-38l-226 394l-142 -160v-234h-32z" />
    <glyph glyph-name="L" unicode="L" horiz-adv-x="460" 
d="M100 0v660h32v-632h310v-28h-342z" />
    <glyph glyph-name="M" unicode="M" horiz-adv-x="698" 
d="M100 0v660h52l142 -400l54 -150h4l52 150l142 400h52v-660h-32v460c0 52 2 118 4 172h-4l-51 -144l-147 -414h-38l-148 414l-52 144h-4c2 -54 4 -120 4 -172v-460h-30z" />
    <glyph glyph-name="N" unicode="N" horiz-adv-x="632" 
d="M100 0v660h34l292 -484l76 -130h4c-2 64 -4 124 -4 186v428h30v-660h-34l-292 484l-76 130h-4c2 -62 4 -118 4 -180v-434h-30z" />
    <glyph glyph-name="O" unicode="O" horiz-adv-x="648" 
d="M324 -12c-156 0 -268 136 -268 344s112 340 268 340s268 -132 268 -340s-112 -344 -268 -344zM324 18c140 0 234 124 234 314s-94 310 -234 310s-234 -120 -234 -310s94 -314 234 -314z" />
    <glyph glyph-name="P" unicode="P" horiz-adv-x="552" 
d="M100 0v660h172c148 0 232 -48 232 -180c0 -126 -84 -188 -232 -188h-140v-292h-32zM132 320h128c142 0 210 46 210 160c0 116 -68 152 -210 152h-128v-312z" />
    <glyph glyph-name="Q" unicode="Q" horiz-adv-x="648" 
d="M90 332c0 -190 94 -316 234 -316s234 126 234 316s-94 310 -234 310s-234 -120 -234 -310zM582 -112l8 -30c-16 -4 -46 -10 -76 -10c-107 0 -179 60 -210 141c-146 11 -248 144 -248 343c0 208 112 340 268 340s268 -132 268 -340c0 -201 -104 -334 -251 -343
c29 -69 90 -109 175 -109c30 0 50 4 66 8z" />
    <glyph glyph-name="R" unicode="R" horiz-adv-x="552" 
d="M132 340h138c122 0 190 48 190 150c0 104 -68 142 -190 142h-138v-292zM504 0h-38l-186 312h-148v-312h-32v660h182c130 0 212 -48 212 -170c0 -105 -68 -166 -178 -176z" />
    <glyph glyph-name="S" unicode="S" horiz-adv-x="516" 
d="M48 88l22 22c48 -56 118 -92 198 -92c106 0 174 58 174 142c0 88 -56 116 -122 146l-102 46c-56 25 -134 64 -134 162c0 94 80 158 186 158c80 0 142 -37 180 -78l-20 -22c-38 42 -92 70 -160 70c-92 0 -154 -50 -154 -126c0 -82 69 -113 116 -134l102 -46
c73 -33 140 -72 140 -174c0 -100 -82 -174 -206 -174c-98 0 -170 42 -220 100z" />
    <glyph glyph-name="T" unicode="T" horiz-adv-x="520" 
d="M244 0v632h-214v28h460v-28h-214v-632h-32z" />
    <glyph glyph-name="U" unicode="U" horiz-adv-x="630" 
d="M98 246v414h32v-406c0 -182 88 -236 184 -236c98 0 188 54 188 236v406h30v-414c0 -204 -112 -258 -218 -258s-216 54 -216 258z" />
    <glyph glyph-name="V" unicode="V" horiz-adv-x="482" 
d="M226 0l-220 660h34l128 -396c26 -82 44 -142 72 -223h4c28 81 46 141 72 223l128 396h32l-218 -660h-32z" />
    <glyph glyph-name="W" unicode="W" horiz-adv-x="764" 
d="M184 0l-154 660h34l88 -400l48 -216h4c16 72 34 144 52 216l108 400h36l108 -400l54 -216h4c16 72 30 144 46 216l88 400h32l-152 -660h-32l-128 474c-12 52 -24 96 -36 148h-4c-12 -52 -26 -96 -38 -148l-126 -474h-32z" />
    <glyph glyph-name="X" unicode="X" horiz-adv-x="470" 
d="M18 0l200 342l-186 318h34l116 -204c18 -30 32 -52 54 -88h4c20 36 32 58 50 88l116 204h32l-186 -320l200 -340h-34l-122 212c-18 32 -38 64 -62 104h-4c-22 -40 -40 -72 -58 -104l-122 -212h-32z" />
    <glyph glyph-name="Y" unicode="Y" horiz-adv-x="436" 
d="M202 0v272l-198 388h34l106 -214c24 -48 46 -94 72 -142h4c26 48 52 94 74 142l106 214h32l-198 -388v-272h-32z" />
    <glyph glyph-name="Z" unicode="Z" horiz-adv-x="538" 
d="M52 0v18l392 614h-358v28h398v-18l-392 -614h396v-28h-436z" />
    <glyph glyph-name="bracketleft" unicode="[" horiz-adv-x="270" 
d="M100 -152v860h152v-22h-128v-816h128v-22h-152z" />
    <glyph glyph-name="backslash" unicode="\" horiz-adv-x="360" 
d="M322 -160l-320 870h30l320 -870h-30z" />
    <glyph glyph-name="bracketright" unicode="]" horiz-adv-x="270" 
d="M18 -130h128v816h-128v22h152v-860h-152v22z" />
    <glyph glyph-name="asciicircum" unicode="^" horiz-adv-x="472" 
d="M68 292l150 378h36l150 -378h-32l-82 214l-52 132h-4l-52 -132l-82 -214h-32z" />
    <glyph glyph-name="underscore" unicode="_" horiz-adv-x="500" 
d="M12 -82h476v-32h-476v32z" />
    <glyph glyph-name="grave" unicode="`" horiz-adv-x="532" 
d="M290 572l-104 134h40l92 -134h-28z" />
    <glyph glyph-name="a" unicode="a" horiz-adv-x="494" 
d="M68 117c0 107 98 157 314 181c2 78 -18 164 -118 164c-68 0 -126 -34 -156 -58l-16 24c30 22 96 62 174 62c112 0 146 -84 146 -180v-310h-26l-4 64h-2c-50 -40 -110 -76 -174 -76c-74 0 -138 38 -138 129zM100 118c0 -74 50 -102 108 -102s110 28 174 82v174
c-210 -24 -282 -72 -282 -154z" />
    <glyph glyph-name="b" unicode="b" horiz-adv-x="540" 
d="M96 0v722h30v-214l-2 -96c50 42 110 78 170 78c130 0 192 -96 192 -244c0 -162 -98 -258 -212 -258c-46 0 -100 22 -146 56h-2l-4 -44h-26zM126 82c56 -48 112 -66 150 -66c104 0 178 96 178 230c0 122 -44 216 -162 216c-50 0 -106 -30 -166 -84v-296z" />
    <glyph glyph-name="c" unicode="c" horiz-adv-x="446" 
d="M54 238c0 160 100 252 214 252c66 0 108 -30 140 -60l-20 -22c-32 30 -70 54 -120 54c-102 0 -182 -92 -182 -224s72 -222 182 -222c54 0 100 26 134 58l18 -22c-40 -36 -90 -64 -152 -64c-122 0 -214 92 -214 250z" />
    <glyph glyph-name="d" unicode="d" horiz-adv-x="540" 
d="M54 238c0 154 98 252 214 252c58 0 98 -22 148 -60l-2 90v202h30v-722h-26l-4 64h-2c-40 -40 -94 -76 -160 -76c-120 0 -198 88 -198 250zM86 238c0 -132 60 -222 168 -222c56 0 106 30 160 84v296c-54 48 -98 66 -148 66c-102 0 -180 -100 -180 -224z" />
    <glyph glyph-name="e" unicode="e" horiz-adv-x="478" 
d="M54 238c0 156 100 252 206 252c110 0 180 -78 180 -220c0 -10 0 -20 -2 -32h-352c0 -128 74 -222 188 -222c54 0 96 18 132 44l14 -26c-36 -22 -76 -46 -148 -46c-120 0 -218 94 -218 250zM86 264h324c0 132 -60 198 -150 198c-86 0 -164 -76 -174 -198z" />
    <glyph glyph-name="f" unicode="f" horiz-adv-x="252" 
d="M276 718l-10 -26c-20 10 -40 14 -58 14c-54 0 -78 -42 -78 -114v-114h114v-28h-114v-450h-30v450h-66v24l66 4v118c0 94 42 138 110 138c20 0 44 -6 66 -16z" />
    <glyph glyph-name="g" unicode="g" horiz-adv-x="480" 
d="M86 -98c0 -64 60 -108 166 -108c114 0 186 66 186 130c0 56 -40 78 -116 78h-110c-6 0 -32 2 -58 8c-48 -32 -68 -72 -68 -108zM54 -100c0 42 28 86 72 118v4c-24 14 -42 40 -42 76c0 44 32 74 52 88v4c-30 26 -60 74 -60 132c0 96 72 168 164 168c26 0 48 -6 62 -12h160
v-28h-116c34 -28 58 -74 58 -128c0 -96 -72 -170 -164 -170c-28 0 -60 8 -82 22c-22 -18 -42 -40 -42 -74c0 -36 20 -66 94 -66h106c106 0 154 -34 154 -108c0 -80 -86 -160 -220 -160c-122 0 -196 54 -196 134zM240 180c70 0 132 58 132 142c0 85 -60 140 -132 140
s-132 -54 -132 -140c0 -84 62 -142 132 -142z" />
    <glyph glyph-name="h" unicode="h" horiz-adv-x="522" 
d="M96 0v722h30v-214v-108c52 52 102 90 168 90c98 0 144 -58 144 -182v-308h-30v304c0 106 -34 158 -116 158c-60 0 -104 -32 -166 -96v-366h-30z" />
    <glyph glyph-name="i" unicode="i" horiz-adv-x="222" 
d="M112 600c-18 0 -34 14 -34 34c0 22 16 34 34 34s34 -12 34 -34c0 -20 -16 -34 -34 -34zM96 0v478h30v-478h-30z" />
    <glyph glyph-name="j" unicode="j" horiz-adv-x="222" 
d="M96 -98v576h30v-580c0 -92 -32 -132 -98 -132c-20 0 -44 6 -58 12l8 26c12 -4 32 -10 52 -10c56 0 66 46 66 108zM112 600c-18 0 -34 14 -34 34c0 22 16 34 34 34s34 -12 34 -34c0 -20 -16 -34 -34 -34z" />
    <glyph glyph-name="k" unicode="k" horiz-adv-x="452" 
d="M96 0v722h30v-548h2l248 304h36l-154 -188l182 -290h-34l-166 266l-114 -134v-132h-30z" />
    <glyph glyph-name="l" unicode="l" horiz-adv-x="230" 
d="M96 52v670h30v-676c0 -20 8 -30 20 -30c4 0 8 0 18 2l6 -26c-8 -2 -14 -4 -26 -4c-30 0 -48 18 -48 64z" />
    <glyph glyph-name="m" unicode="m" horiz-adv-x="806" 
d="M96 0v478h26l4 -76h2c44 50 100 88 152 88c78 0 116 -40 132 -100c56 62 110 100 164 100c94 0 142 -58 142 -182v-308h-30v304c0 106 -36 158 -114 158c-48 0 -96 -32 -152 -96v-366h-30v304c0 106 -36 158 -114 158c-46 0 -96 -32 -152 -96v-366h-30z" />
    <glyph glyph-name="n" unicode="n" horiz-adv-x="526" 
d="M96 0v478h26l4 -76h2c50 50 100 88 166 88c98 0 144 -58 144 -182v-308h-30v304c0 106 -34 158 -116 158c-60 0 -104 -32 -166 -96v-366h-30z" />
    <glyph glyph-name="o" unicode="o" horiz-adv-x="532" 
d="M54 238c0 160 98 252 212 252s212 -92 212 -252c0 -158 -98 -250 -212 -250s-212 92 -212 250zM86 238c0 -132 78 -222 180 -222s180 90 180 222s-78 224 -180 224s-180 -92 -180 -224z" />
    <glyph glyph-name="p" unicode="p" horiz-adv-x="540" 
d="M126 48v-90v-180h-30v700h26l4 -62h2c48 38 106 74 166 74c130 0 192 -96 192 -244c0 -162 -98 -258 -212 -258c-46 0 -96 22 -148 60zM126 82c58 -48 112 -66 150 -66c104 0 178 96 178 230c0 122 -44 216 -162 216c-50 0 -104 -30 -166 -84v-296z" />
    <glyph glyph-name="q" unicode="q" horiz-adv-x="532" 
d="M54 238c0 154 98 252 214 252c58 0 98 -22 144 -56h2l4 44h26v-700h-30v190l2 96c-44 -40 -98 -76 -164 -76c-120 0 -198 88 -198 250zM86 238c0 -132 60 -222 168 -222c56 0 106 30 160 84v296c-54 48 -98 66 -148 66c-102 0 -180 -100 -180 -224z" />
    <glyph glyph-name="r" unicode="r" horiz-adv-x="306" 
d="M96 0v478h26l4 -90h2c32 58 78 102 136 102c16 0 30 -2 46 -10l-8 -28c-16 6 -24 8 -42 8c-44 0 -96 -34 -134 -128v-332h-30z" />
    <glyph glyph-name="s" unicode="s" horiz-adv-x="400" 
d="M34 54l20 24c40 -34 84 -62 156 -62c80 0 122 48 122 102c0 64 -64 92 -120 112c-74 26 -156 54 -156 136c0 66 52 124 150 124c48 0 98 -20 132 -48l-18 -24c-32 24 -66 44 -116 44c-80 0 -116 -47 -116 -94c0 -58 58 -80 116 -102c76 -29 160 -52 160 -146
c0 -70 -56 -132 -156 -132c-72 0 -132 30 -174 66z" />
    <glyph glyph-name="t" unicode="t" horiz-adv-x="302" 
d="M106 126v324h-76v24l76 4l4 140h26v-140h142v-28h-142v-328c0 -62 14 -106 84 -106c18 0 44 8 62 16l10 -26c-28 -10 -58 -18 -74 -18c-88 0 -112 56 -112 138z" />
    <glyph glyph-name="u" unicode="u" horiz-adv-x="524" 
d="M88 170v308h30v-304c0 -106 34 -158 116 -158c60 0 104 32 164 104v358h30v-478h-26l-4 82h-2c-48 -56 -98 -94 -164 -94c-98 0 -144 58 -144 182z" />
    <glyph glyph-name="v" unicode="v" horiz-adv-x="422" 
d="M194 0l-182 478h34l114 -310c16 -46 34 -94 50 -136h4c16 42 34 90 50 136l114 310h32l-180 -478h-36z" />
    <glyph glyph-name="w" unicode="w" horiz-adv-x="672" 
d="M168 0l-144 478h34l92 -322c12 -44 24 -84 34 -126h4c12 42 24 82 36 126l92 322h42l92 -322c12 -44 24 -84 36 -126h4c12 42 24 82 36 126l90 322h32l-140 -478h-42l-90 312c-14 46 -24 90 -38 136h-4c-12 -46 -24 -92 -40 -138l-88 -310h-38z" />
    <glyph glyph-name="x" unicode="x" horiz-adv-x="392" 
d="M14 0l164 250l-150 228h34l82 -128c16 -26 34 -52 52 -78h4c18 26 34 52 52 78l80 128h32l-150 -230l164 -248h-34l-90 138c-18 30 -38 60 -58 88h-4c-20 -28 -38 -58 -58 -88l-88 -138h-32z" />
    <glyph glyph-name="y" unicode="y" horiz-adv-x="424" 
d="M28 -184c10 -4 26 -8 40 -8c60 0 102 58 128 136l14 44l-198 490h34l122 -314c16 -40 36 -92 54 -134h4c16 42 32 94 46 134l108 314h32l-192 -546c-24 -74 -72 -154 -154 -154c-16 0 -34 4 -46 10z" />
    <glyph glyph-name="z" unicode="z" horiz-adv-x="396" 
d="M26 0v16l294 434h-262v28h302v-16l-294 -434h304v-28h-344z" />
    <glyph glyph-name="braceleft" unicode="{" horiz-adv-x="270" 
d="M220 -130h32v-22h-30c-72 0 -108 26 -108 126c0 74 8 140 8 210c0 42 -16 82 -86 82v24c70 0 86 40 86 80c0 72 -8 138 -8 212c0 100 36 126 108 126h30v-22h-32c-64 0 -80 -36 -80 -108c0 -66 6 -122 6 -196c0 -56 -10 -90 -48 -102v-4c38 -12 48 -48 48 -102
c0 -74 -6 -130 -6 -196c0 -72 16 -108 80 -108z" />
    <glyph glyph-name="bar" unicode="|" horiz-adv-x="220" 
d="M96 -250v1000h28v-1000h-28z" />
    <glyph glyph-name="braceright" unicode="}" horiz-adv-x="270" 
d="M18 -130h32c64 0 80 36 80 108c0 66 -6 122 -6 196c0 54 10 90 48 102v4c-38 12 -48 46 -48 102c0 74 6 130 6 196c0 72 -16 108 -80 108h-32v22h30c72 0 108 -26 108 -126c0 -74 -8 -140 -8 -212c0 -40 16 -80 86 -80v-24c-70 0 -86 -40 -86 -82c0 -70 8 -136 8 -210
c0 -100 -36 -126 -108 -126h-30v22z" />
    <glyph glyph-name="asciitilde" unicode="~" horiz-adv-x="472" 
d="M64 298l-22 12c26 54 66 80 104 80c76 0 124 -92 182 -92c30 0 56 16 80 64l22 -14c-26 -52 -66 -78 -104 -78c-76 0 -124 92 -182 92c-30 0 -56 -16 -80 -64z" />
    <glyph glyph-name="uni00A0" unicode="&#xa0;" horiz-adv-x="198" 
 />
    <glyph glyph-name="exclamdown" unicode="&#xa1;" horiz-adv-x="248" 
d="M136 306l4 -436v-62h-32v62l4 436h24zM160 452c0 -26 -18 -40 -36 -40s-36 14 -36 40c0 24 18 38 36 38s36 -14 36 -38z" />
    <glyph glyph-name="cent" unicode="&#xa2;" horiz-adv-x="472" 
d="M252 113v397c-90 -11 -158 -88 -158 -198c0 -111 62 -188 158 -199zM410 168l18 -20c-39 -35 -88 -63 -148 -64v-110h-28v111c-110 10 -190 91 -190 227c0 138 86 216 190 227v113h28v-112c64 -1 105 -31 136 -60l-18 -20c-31 29 -70 51 -118 52v-400c52 1 97 26 130 56z
" />
    <glyph glyph-name="sterling" unicode="&#xa3;" horiz-adv-x="472" 
d="M118 28h300v-28h-360v18c76 44 106 122 106 200c0 27 -4 53 -10 78h-100v26l66 2h26c-15 54 -34 106 -34 162c0 102 62 166 164 166c68 0 112 -34 140 -70l-22 -20c-28 34 -64 62 -120 62c-86 0 -130 -62 -130 -136c0 -57 20 -108 35 -164h167v-28h-161
c6 -24 9 -50 9 -78c0 -88 -28 -140 -76 -186v-4z" />
    <glyph glyph-name="currency" unicode="&#xa4;" horiz-adv-x="472" 
d="M52 118l-20 22l66 68c-24 32 -38 73 -38 120c0 49 14 91 38 123l-66 69l20 22l66 -69c31 30 73 47 118 47c44 0 86 -17 118 -47l66 69l20 -22l-67 -69c24 -32 39 -74 39 -123c0 -47 -15 -88 -38 -120l66 -68l-20 -22l-66 68c-31 -31 -74 -48 -118 -48
c-45 0 -87 17 -119 48zM92 328c0 -96 66 -162 144 -162s144 66 144 162s-66 164 -144 164s-144 -68 -144 -164z" />
    <glyph glyph-name="yen" unicode="&#xa5;" horiz-adv-x="472" 
d="M32 640h34l100 -202c22 -44 44 -88 68 -138h4c26 50 46 94 70 138l100 202h32l-178 -342h158v-28h-170v-74h170v-28h-170v-168h-30v168h-168v28h168v74h-168v28h156z" />
    <glyph glyph-name="brokenbar" unicode="&#xa6;" horiz-adv-x="220" 
d="M96 274v476h28v-476h-28zM96 222h28v-472h-28v472z" />
    <glyph glyph-name="section" unicode="&#xa7;" horiz-adv-x="472" 
d="M309 176c51 24 81 48 81 106c0 115 -143 129 -225 186c-49 -27 -83 -55 -83 -110c0 -112 143 -124 227 -182zM372 628l-18 -22c-32 26 -64 46 -116 46c-72 0 -100 -42 -100 -82c0 -139 282 -100 282 -286c0 -68 -37 -101 -87 -127c21 -21 35 -48 35 -85
c0 -70 -66 -120 -136 -120c-68 0 -118 26 -156 60l22 22c34 -32 70 -54 134 -54s106 42 106 90c0 144 -286 104 -286 286c0 66 40 103 90 131c-21 20 -34 46 -34 81c0 52 40 112 130 112c52 0 98 -22 134 -52z" />
    <glyph glyph-name="dieresis" unicode="&#xa8;" horiz-adv-x="532" 
d="M190 602c-18 0 -32 14 -32 32s14 32 32 32s32 -14 32 -32s-14 -32 -32 -32zM342 602c-18 0 -32 14 -32 32s14 32 32 32s32 -14 32 -32s-14 -32 -32 -32z" />
    <glyph glyph-name="copyright" unicode="&#xa9;" horiz-adv-x="740" 
d="M52 322c0 200 146 330 318 330s318 -130 318 -330c0 -202 -146 -334 -318 -334s-318 132 -318 334zM82 322c0 -184 134 -308 288 -308s288 124 288 308c0 182 -134 304 -288 304s-288 -122 -288 -304zM202 322c0 116 84 186 178 186c52 0 86 -22 118 -54l-18 -22
c-32 30 -60 46 -102 46c-82 0 -142 -62 -142 -156c0 -104 56 -168 140 -168c50 0 88 23 120 52l16 -22c-36 -33 -72 -60 -138 -60c-92 0 -172 72 -172 198z" />
    <glyph glyph-name="ordfeminine" unicode="&#xaa;" horiz-adv-x="334" 
d="M140 262c-56 0 -96 32 -96 90c0 70 64 104 208 118c0 54 -14 98 -72 98c-42 0 -88 -22 -110 -38l-12 22c24 16 72 42 124 42c76 0 98 -50 98 -122v-202h-22l-6 40h-4c-28 -24 -64 -48 -108 -48zM146 288c32 0 68 16 106 52v108c-132 -14 -178 -46 -178 -94
c0 -46 28 -66 72 -66z" />
    <glyph glyph-name="guillemotleft" unicode="&#xab;" horiz-adv-x="388" 
d="M180 74l-138 164v28l138 164l20 -18l-124 -160l124 -162zM314 74l-138 164v28l138 164l20 -18l-124 -160l124 -162z" />
    <glyph glyph-name="logicalnot" unicode="&#xac;" horiz-adv-x="472" 
d="M34 316v28h404v-232h-32v204h-372z" />
    <glyph glyph-name="uni00AD" unicode="&#xad;" horiz-adv-x="294" 
d="M40 234v30h216v-30h-216z" />
    <glyph glyph-name="registered" unicode="&#xae;" horiz-adv-x="392" 
d="M196 326c-98 0 -180 76 -180 192s82 194 180 194s180 -78 180 -194s-82 -192 -180 -192zM196 352c84 0 152 70 152 166s-68 168 -152 168s-152 -72 -152 -168s68 -166 152 -166zM130 418v208h66c38 0 76 -14 76 -64c0 -26 -18 -50 -40 -56l50 -88h-34l-40 78h-50v-78h-28
zM158 522h30c32 0 54 10 54 38c0 24 -12 40 -50 40h-34v-78z" />
    <glyph glyph-name="macron" unicode="&#xaf;" horiz-adv-x="532" 
d="M156 608v28h220v-28h-220z" />
    <glyph glyph-name="degree" unicode="&#xb0;" horiz-adv-x="304" 
d="M152 454c-56 0 -110 42 -110 114c0 74 54 116 110 116s110 -42 110 -116c0 -72 -54 -114 -110 -114zM152 480c48 0 82 38 82 88c0 52 -34 90 -82 90s-82 -38 -82 -90c0 -50 34 -88 82 -88z" />
    <glyph glyph-name="plusminus" unicode="&#xb1;" horiz-adv-x="472" 
d="M220 102v210h-186v28h186v208h32v-208h186v-28h-186v-210h-32zM34 0v28h404v-28h-404z" />
    <glyph glyph-name="two.sups" unicode="&#xb2;" horiz-adv-x="360" 
d="M58 440v20c138 130 196 190 196 258c0 60 -36 98 -90 98c-38 0 -72 -30 -94 -64l-20 18c22 38 68 72 116 72c70 0 118 -40 118 -122c0 -84 -72 -150 -178 -254h202v-26h-250z" />
    <glyph glyph-name="three.sups" unicode="&#xb3;" horiz-adv-x="360" 
d="M42 502l24 18c24 -38 66 -66 112 -66c52 0 96 32 96 88c0 54 -56 84 -144 84v24c82 0 128 42 128 88s-34 78 -88 78c-32 0 -66 -22 -92 -54l-20 18c26 34 66 62 114 62c64 0 116 -38 116 -102c0 -50 -34 -84 -78 -100c48 -8 94 -42 94 -98c0 -72 -56 -114 -128 -114
c-60 0 -108 36 -134 74z" />
    <glyph glyph-name="acute" unicode="&#xb4;" horiz-adv-x="532" 
d="M346 706l-104 -134h-28l92 134h40z" />
    <glyph glyph-name="uni00B5" unicode="&#xb5;" horiz-adv-x="532" 
d="M96 -200v678h30v-304c0 -106 34 -158 116 -158c60 0 104 32 164 104v358h30v-478h-26l-4 82h-2c-48 -56 -98 -94 -164 -94c-52 0 -88 12 -116 60l2 -90v-158h-30z" />
    <glyph glyph-name="paragraph" unicode="&#xb6;" horiz-adv-x="498" 
d="M370 -80v740h32v-740h-32zM290 250c-148 0 -248 56 -248 204s94 206 230 206h44v-410h-26z" />
    <glyph glyph-name="periodcentered" unicode="&#xb7;" horiz-adv-x="208" 
d="M68 322c0 26 18 40 36 40s36 -14 36 -40c0 -24 -18 -38 -36 -38s-36 14 -36 38z" />
    <glyph glyph-name="cedilla" unicode="&#xb8;" horiz-adv-x="532" 
d="M232 -74l40 76h28l-30 -58c32 -10 60 -28 60 -68c0 -50 -58 -74 -118 -82l-6 26c56 8 94 24 94 52c0 32 -30 44 -68 54z" />
    <glyph glyph-name="one.sups" unicode="&#xb9;" horiz-adv-x="360" 
d="M178 440v330h-82v22c36 8 62 20 84 38h26v-390h-28z" />
    <glyph glyph-name="ordmasculine" unicode="&#xba;" horiz-adv-x="358" 
d="M178 262c-80 0 -144 62 -144 166c0 106 64 166 144 166s144 -60 144 -166c0 -104 -64 -166 -144 -166zM178 288c68 0 114 58 114 140c0 84 -46 140 -114 140s-114 -56 -114 -140c0 -82 46 -140 114 -140z" />
    <glyph glyph-name="guillemotright" unicode="&#xbb;" horiz-adv-x="388" 
d="M54 90l124 162l-124 160l20 18l138 -164v-28l-138 -164zM188 90l124 162l-124 160l20 18l138 -164v-28l-138 -164z" />
    <glyph glyph-name="onequarter" unicode="&#xbc;" horiz-adv-x="758" 
d="M186 270h-28v330h-82v22c36 8 62 20 84 38h26v-390zM546 672h32l-370 -684h-32zM486 144h136v94l4 102h-4l-58 -84zM708 144v-26h-58v-118h-28v118h-176v16l182 256h22v-246h58z" />
    <glyph glyph-name="onehalf" unicode="&#xbd;" horiz-adv-x="778" 
d="M158 270v330h-82v22c36 8 62 20 84 38h26v-390h-28zM184 -12h-32l370 684h32zM476 0v20c138 130 196 190 196 258c0 60 -36 98 -90 98c-38 0 -72 -30 -94 -64l-20 18c22 38 68 72 116 72c70 0 118 -40 118 -122c0 -84 -72 -150 -178 -254h202v-26h-250z" />
    <glyph glyph-name="threequarters" unicode="&#xbe;" horiz-adv-x="778" 
d="M78 592l-20 18c26 34 66 62 114 62c64 0 116 -38 116 -102c0 -50 -34 -84 -78 -100c48 -8 94 -42 94 -98c0 -72 -56 -114 -128 -114c-60 0 -108 36 -134 74l24 18c24 -38 66 -66 112 -66c52 0 96 32 96 88c0 54 -56 84 -144 84v24c82 0 128 42 128 88s-34 78 -88 78
c-32 0 -66 -22 -92 -54zM596 672h32l-370 -684h-32zM506 144h136v94l4 102h-4l-58 -84zM728 144v-26h-58v-118h-28v118h-176v16l182 256h22v-246h58z" />
    <glyph glyph-name="questiondown" unicode="&#xbf;" horiz-adv-x="394" 
d="M230 306c22 -170 -146 -228 -146 -358c0 -64 36 -124 120 -124c50 0 100 24 134 66l20 -18c-38 -42 -88 -76 -156 -76c-96 0 -150 68 -150 150c0 138 170 203 150 360h28zM248 452c0 -26 -18 -40 -36 -40s-36 14 -36 40c0 24 18 38 36 38s36 -14 36 -38z" />
    <glyph glyph-name="Agrave" unicode="&#xc0;" horiz-adv-x="520" 
d="M292 710h-30l-108 104h44zM135 264h249l-46 132c-28 80 -52 148 -76 230h-4c-24 -82 -48 -150 -76 -230zM476 0l-82 236h-269l-83 -236h-32l236 660h28l236 -660h-34z" />
    <glyph glyph-name="Aacute" unicode="&#xc1;" horiz-adv-x="520" 
d="M366 814l-108 -104h-30l94 104h44zM135 264h249l-46 132c-28 80 -52 148 -76 230h-4c-24 -82 -48 -150 -76 -230zM476 0l-82 236h-269l-83 -236h-32l236 660h28l236 -660h-34z" />
    <glyph glyph-name="Acircumflex" unicode="&#xc2;" horiz-adv-x="520" 
d="M258 784l-78 -74h-30l96 104h28l96 -104h-30l-78 74h-4zM135 264h249l-46 132c-28 80 -52 148 -76 230h-4c-24 -82 -48 -150 -76 -230zM476 0l-82 236h-269l-83 -236h-32l236 660h28l236 -660h-34z" />
    <glyph glyph-name="Atilde" unicode="&#xc3;" horiz-adv-x="520" 
d="M362 804h22c-2 -38 -22 -86 -66 -86c-52 0 -76 58 -118 58c-22 0 -38 -24 -42 -58h-22c2 38 22 86 66 86c52 0 76 -58 118 -58c22 0 38 24 42 58zM135 264h249l-46 132c-28 80 -52 148 -76 230h-4c-24 -82 -48 -150 -76 -230zM476 0l-82 236h-269l-83 -236h-32l236 660
h28l236 -660h-34z" />
    <glyph glyph-name="Adieresis" unicode="&#xc4;" horiz-adv-x="520" 
d="M336 728c-18 0 -32 12 -32 32s14 32 32 32s32 -12 32 -32s-14 -32 -32 -32zM184 728c-18 0 -32 12 -32 32s14 32 32 32s32 -12 32 -32s-14 -32 -32 -32zM135 264h249l-46 132c-28 80 -52 148 -76 230h-4c-24 -82 -48 -150 -76 -230zM476 0l-82 236h-269l-83 -236h-32
l236 660h28l236 -660h-34z" />
    <glyph glyph-name="Aring" unicode="&#xc5;" horiz-adv-x="520" 
d="M260 838c-30 0 -54 -22 -54 -58c0 -38 24 -58 54 -58c28 0 52 20 52 58c0 36 -24 58 -52 58zM260 700c-44 0 -78 32 -78 80s34 80 78 80c42 0 78 -32 78 -80s-36 -80 -78 -80zM135 264h249l-46 132c-28 80 -52 148 -76 230h-4c-24 -82 -48 -150 -76 -230zM476 0l-82 236
h-269l-83 -236h-32l236 660h28l236 -660h-34z" />
    <glyph glyph-name="AE" unicode="&#xc6;" horiz-adv-x="804" 
d="M203 254h211v376h-4c-42 -76 -86 -156 -130 -238zM446 28h312v-28h-344v226h-227l-127 -226h-34l372 660h350v-28h-302v-266h250v-28h-250v-310z" />
    <glyph glyph-name="Ccedilla" unicode="&#xc7;" horiz-adv-x="562" 
d="M502 102l20 -20c-44 -52 -95 -86 -167 -93l-23 -45c32 -10 60 -28 60 -68c0 -50 -58 -74 -118 -82l-6 26c56 8 94 24 94 52c0 32 -30 44 -68 54l33 62c-162 1 -271 137 -271 344c0 208 110 340 278 340c76 0 134 -38 168 -78l-20 -22c-36 42 -86 70 -148 70
c-152 0 -244 -120 -244 -310s92 -314 240 -314c70 0 122 28 172 84z" />
    <glyph glyph-name="Egrave" unicode="&#xc8;" horiz-adv-x="510" 
d="M100 0v660h354v-28h-322v-266h270v-28h-270v-310h332v-28h-364zM283 710l-108 104h44l94 -104h-30z" />
    <glyph glyph-name="Eacute" unicode="&#xc9;" horiz-adv-x="510" 
d="M100 0v660h354v-28h-322v-266h270v-28h-270v-310h332v-28h-364zM387 814l-108 -104h-30l94 104h44z" />
    <glyph glyph-name="Ecircumflex" unicode="&#xca;" horiz-adv-x="510" 
d="M100 0v660h354v-28h-322v-266h270v-28h-270v-310h332v-28h-364zM201 710h-30l96 104h28l96 -104h-30l-78 74h-4z" />
    <glyph glyph-name="Edieresis" unicode="&#xcb;" horiz-adv-x="510" 
d="M100 0v660h354v-28h-322v-266h270v-28h-270v-310h332v-28h-364zM205 728c-18 0 -32 12 -32 32s14 32 32 32s32 -12 32 -32s-14 -32 -32 -32zM357 728c-18 0 -32 12 -32 32s14 32 32 32s32 -12 32 -32s-14 -32 -32 -32z" />
    <glyph glyph-name="Igrave" unicode="&#xcc;" horiz-adv-x="232" 
d="M100 0v660h32v-660h-32zM118 710l-108 104h44l94 -104h-30z" />
    <glyph glyph-name="Iacute" unicode="&#xcd;" horiz-adv-x="232" 
d="M100 0v660h32v-660h-32zM222 814l-108 -104h-30l94 104h44z" />
    <glyph glyph-name="Icircumflex" unicode="&#xce;" horiz-adv-x="232" 
d="M100 0v660h32v-660h-32zM36 710h-30l96 104h28l96 -104h-30l-78 74h-4z" />
    <glyph glyph-name="Idieresis" unicode="&#xcf;" horiz-adv-x="232" 
d="M100 0v660h32v-660h-32zM40 728c-18 0 -32 12 -32 32s14 32 32 32s32 -12 32 -32s-14 -32 -32 -32zM192 728c-18 0 -32 12 -32 32s14 32 32 32s32 -12 32 -32s-14 -32 -32 -32z" />
    <glyph glyph-name="Eth" unicode="&#xd0;" horiz-adv-x="620" 
d="M152 28h112c188 0 266 130 266 304s-78 300 -266 300h-112v-268h168v-28h-168v-308zM120 660h148c204 0 296 -132 296 -328s-92 -332 -296 -332h-148v336h-82v26l82 2v296z" />
    <glyph glyph-name="Ntilde" unicode="&#xd1;" horiz-adv-x="632" 
d="M100 0v660h34l292 -484l76 -130h4c-2 64 -4 124 -4 186v428h30v-660h-34l-292 484l-76 130h-4c2 -62 4 -118 4 -180v-434h-30zM379 718c-52 0 -76 58 -118 58c-22 0 -38 -24 -42 -58h-22c2 38 22 86 66 86c52 0 76 -58 118 -58c22 0 38 24 42 58h22
c-2 -38 -22 -86 -66 -86z" />
    <glyph glyph-name="Ograve" unicode="&#xd2;" horiz-adv-x="648" 
d="M324 -12c-156 0 -268 136 -268 344s112 340 268 340s268 -132 268 -340s-112 -344 -268 -344zM324 18c140 0 234 124 234 314s-94 310 -234 310s-234 -120 -234 -310s94 -314 234 -314zM326 710l-108 104h44l94 -104h-30z" />
    <glyph glyph-name="Oacute" unicode="&#xd3;" horiz-adv-x="648" 
d="M324 -12c-156 0 -268 136 -268 344s112 340 268 340s268 -132 268 -340s-112 -344 -268 -344zM324 18c140 0 234 124 234 314s-94 310 -234 310s-234 -120 -234 -310s94 -314 234 -314zM430 814l-108 -104h-30l94 104h44z" />
    <glyph glyph-name="Ocircumflex" unicode="&#xd4;" horiz-adv-x="648" 
d="M324 -12c-156 0 -268 136 -268 344s112 340 268 340s268 -132 268 -340s-112 -344 -268 -344zM324 18c140 0 234 124 234 314s-94 310 -234 310s-234 -120 -234 -310s94 -314 234 -314zM244 710h-30l96 104h28l96 -104h-30l-78 74h-4z" />
    <glyph glyph-name="Otilde" unicode="&#xd5;" horiz-adv-x="648" 
d="M324 -12c-156 0 -268 136 -268 344s112 340 268 340s268 -132 268 -340s-112 -344 -268 -344zM324 18c140 0 234 124 234 314s-94 310 -234 310s-234 -120 -234 -310s94 -314 234 -314zM382 718c-52 0 -76 58 -118 58c-22 0 -38 -24 -42 -58h-22c2 38 22 86 66 86
c52 0 76 -58 118 -58c22 0 38 24 42 58h22c-2 -38 -22 -86 -66 -86z" />
    <glyph glyph-name="Odieresis" unicode="&#xd6;" horiz-adv-x="648" 
d="M324 -12c-156 0 -268 136 -268 344s112 340 268 340s268 -132 268 -340s-112 -344 -268 -344zM324 18c140 0 234 124 234 314s-94 310 -234 310s-234 -120 -234 -310s94 -314 234 -314zM248 728c-18 0 -32 12 -32 32s14 32 32 32s32 -12 32 -32s-14 -32 -32 -32zM400 728
c-18 0 -32 12 -32 32s14 32 32 32s32 -12 32 -32s-14 -32 -32 -32z" />
    <glyph glyph-name="multiply" unicode="&#xd7;" horiz-adv-x="472" 
d="M72 138l-20 22l164 170l-164 170l20 22l164 -172l164 172l20 -22l-164 -170l164 -170l-20 -22l-164 172z" />
    <glyph glyph-name="Oslash" unicode="&#xd8;" horiz-adv-x="648" 
d="M503 551l-338 -456c41 -49 97 -77 163 -77c140 0 234 124 234 314c0 91 -22 166 -59 219zM148 118l337 455c-40 45 -94 69 -157 69c-140 0 -234 -120 -234 -310c0 -87 20 -160 54 -214zM586 664l-64 -86c47 -59 74 -143 74 -246c0 -208 -112 -344 -268 -344
c-72 0 -135 29 -182 81l-66 -89l-22 16l70 95c-43 60 -68 142 -68 241c0 208 112 340 268 340c69 0 130 -26 176 -73l60 81z" />
    <glyph glyph-name="Ugrave" unicode="&#xd9;" horiz-adv-x="630" 
d="M98 246v414h32v-406c0 -182 88 -236 184 -236c98 0 188 54 188 236v406h30v-414c0 -204 -112 -258 -218 -258s-216 54 -216 258zM317 710l-108 104h44l94 -104h-30z" />
    <glyph glyph-name="Uacute" unicode="&#xda;" horiz-adv-x="630" 
d="M98 246v414h32v-406c0 -182 88 -236 184 -236c98 0 188 54 188 236v406h30v-414c0 -204 -112 -258 -218 -258s-216 54 -216 258zM421 814l-108 -104h-30l94 104h44z" />
    <glyph glyph-name="Ucircumflex" unicode="&#xdb;" horiz-adv-x="630" 
d="M98 246v414h32v-406c0 -182 88 -236 184 -236c98 0 188 54 188 236v406h30v-414c0 -204 -112 -258 -218 -258s-216 54 -216 258zM235 710h-30l96 104h28l96 -104h-30l-78 74h-4z" />
    <glyph glyph-name="Udieresis" unicode="&#xdc;" horiz-adv-x="630" 
d="M98 246v414h32v-406c0 -182 88 -236 184 -236c98 0 188 54 188 236v406h30v-414c0 -204 -112 -258 -218 -258s-216 54 -216 258zM239 728c-18 0 -32 12 -32 32s14 32 32 32s32 -12 32 -32s-14 -32 -32 -32zM391 728c-18 0 -32 12 -32 32s14 32 32 32s32 -12 32 -32
s-14 -32 -32 -32z" />
    <glyph glyph-name="Yacute" unicode="&#xdd;" horiz-adv-x="436" 
d="M202 0v272l-198 388h34l106 -214c24 -48 46 -94 72 -142h4c26 48 52 94 74 142l106 214h32l-198 -388v-272h-32zM324 814l-108 -104h-30l94 104h44z" />
    <glyph glyph-name="Thorn" unicode="&#xde;" horiz-adv-x="556" 
d="M100 0v660h32v-120h140c148 0 232 -48 232 -180c0 -126 -84 -188 -232 -188h-140v-172h-32zM132 200h128c142 0 210 46 210 160c0 116 -68 152 -210 152h-128v-312z" />
    <glyph glyph-name="germandbls" unicode="&#xdf;" horiz-adv-x="530" 
d="M96 0v538c0 122 66 194 162 194c80 0 130 -56 130 -130c0 -104 -102 -140 -102 -224c0 -122 214 -84 214 -254c0 -78 -60 -136 -140 -136c-52 0 -98 20 -134 52l18 24c38 -32 72 -48 116 -48c72 0 108 52 108 106c0 148 -214 108 -214 254c0 100 102 132 102 224
c0 60 -34 104 -100 104c-78 0 -130 -56 -130 -180v-524h-30z" />
    <glyph glyph-name="agrave" unicode="&#xe0;" horiz-adv-x="494" 
d="M68 117c0 107 98 157 314 181c2 78 -18 164 -118 164c-68 0 -126 -34 -156 -58l-16 24c30 22 96 62 174 62c112 0 146 -84 146 -180v-310h-26l-4 64h-2c-50 -40 -110 -76 -174 -76c-74 0 -138 38 -138 129zM100 118c0 -74 50 -102 108 -102s110 28 174 82v174
c-210 -24 -282 -72 -282 -154zM284 572l-104 134h40l92 -134h-28z" />
    <glyph glyph-name="aacute" unicode="&#xe1;" horiz-adv-x="494" 
d="M68 117c0 107 98 157 314 181c2 78 -18 164 -118 164c-68 0 -126 -34 -156 -58l-16 24c30 22 96 62 174 62c112 0 146 -84 146 -180v-310h-26l-4 64h-2c-50 -40 -110 -76 -174 -76c-74 0 -138 38 -138 129zM100 118c0 -74 50 -102 108 -102s110 28 174 82v174
c-210 -24 -282 -72 -282 -154zM340 706l-104 -134h-28l92 134h40z" />
    <glyph glyph-name="acircumflex" unicode="&#xe2;" horiz-adv-x="494" 
d="M68 117c0 107 98 157 314 181c2 78 -18 164 -118 164c-68 0 -126 -34 -156 -58l-16 24c30 22 96 62 174 62c112 0 146 -84 146 -180v-310h-26l-4 64h-2c-50 -40 -110 -76 -174 -76c-74 0 -138 38 -138 129zM100 118c0 -74 50 -102 108 -102s110 28 174 82v174
c-210 -24 -282 -72 -282 -154zM152 572l94 134h28l94 -134h-28l-78 102h-4l-78 -102h-28z" />
    <glyph glyph-name="atilde" unicode="&#xe3;" horiz-adv-x="494" 
d="M68 117c0 107 98 157 314 181c2 78 -18 164 -118 164c-68 0 -126 -34 -156 -58l-16 24c30 22 96 62 174 62c112 0 146 -84 146 -180v-310h-26l-4 64h-2c-50 -40 -110 -76 -174 -76c-74 0 -138 38 -138 129zM100 118c0 -74 50 -102 108 -102s110 28 174 82v174
c-210 -24 -282 -72 -282 -154zM142 582c2 36 17 82 64 82c48 0 75 -56 110 -56c22 0 34 22 38 56h24c-2 -35 -17 -82 -64 -82c-48 0 -73 56 -110 56c-22 0 -34 -21 -38 -56h-24z" />
    <glyph glyph-name="adieresis" unicode="&#xe4;" horiz-adv-x="494" 
d="M68 117c0 107 98 157 314 181c2 78 -18 164 -118 164c-68 0 -126 -34 -156 -58l-16 24c30 22 96 62 174 62c112 0 146 -84 146 -180v-310h-26l-4 64h-2c-50 -40 -110 -76 -174 -76c-74 0 -138 38 -138 129zM100 118c0 -74 50 -102 108 -102s110 28 174 82v174
c-210 -24 -282 -72 -282 -154zM184 602c-18 0 -32 14 -32 32s14 32 32 32s32 -14 32 -32s-14 -32 -32 -32zM336 602c-18 0 -32 14 -32 32s14 32 32 32s32 -14 32 -32s-14 -32 -32 -32z" />
    <glyph glyph-name="aring" unicode="&#xe5;" horiz-adv-x="494" 
d="M68 117c0 107 98 157 314 181c2 78 -18 164 -118 164c-68 0 -126 -34 -156 -58l-16 24c30 22 96 62 174 62c112 0 146 -84 146 -180v-310h-26l-4 64h-2c-50 -40 -110 -76 -174 -76c-74 0 -138 38 -138 129zM100 118c0 -74 50 -102 108 -102s110 28 174 82v174
c-210 -24 -282 -72 -282 -154zM260 538c-44 0 -78 34 -78 84s34 84 78 84s78 -34 78 -84s-34 -84 -78 -84zM260 560c30 0 54 24 54 62s-24 62 -54 62s-54 -24 -54 -62s24 -62 54 -62z" />
    <glyph glyph-name="ae" unicode="&#xe6;" horiz-adv-x="784" 
d="M100 118c0 -74 50 -102 108 -102c54 0 132 36 190 100c-14 30 -22 80 -22 128v28c-200 -24 -276 -72 -276 -154zM108 404l-16 24c30 22 96 62 168 62c80 0 126 -50 140 -126c34 76 98 126 170 126c110 0 176 -78 176 -220c0 -10 0 -20 -2 -32h-338
c-2 -128 76 -222 178 -222c54 0 92 18 128 44l14 -26c-36 -22 -72 -46 -144 -46c-88 0 -138 52 -172 102c-62 -62 -144 -102 -204 -102c-74 0 -138 38 -138 128c0 108 100 158 308 182c2 78 -18 164 -118 164c-62 0 -120 -34 -150 -58zM406 264h310c0 132 -56 198 -146 198
c-84 0 -154 -82 -164 -198z" />
    <glyph glyph-name="ccedilla" unicode="&#xe7;" horiz-adv-x="446" 
d="M280 -12l-23 -44c32 -10 60 -28 60 -68c0 -50 -58 -74 -118 -82l-6 26c56 8 94 24 94 52c0 32 -30 44 -68 54l33 63c-114 7 -198 98 -198 249c0 160 100 252 214 252c66 0 108 -30 140 -60l-20 -22c-32 30 -70 54 -120 54c-102 0 -182 -92 -182 -224s72 -222 182 -222
c54 0 100 26 134 58l18 -22c-37 -34 -84 -60 -140 -64z" />
    <glyph glyph-name="egrave" unicode="&#xe8;" horiz-adv-x="478" 
d="M54 238c0 156 100 252 206 252c110 0 180 -78 180 -220c0 -10 0 -20 -2 -32h-352c0 -128 74 -222 188 -222c54 0 96 18 132 44l14 -26c-36 -22 -76 -46 -148 -46c-120 0 -218 94 -218 250zM86 264h324c0 132 -60 198 -150 198c-86 0 -164 -76 -174 -198zM284 572
l-104 134h40l92 -134h-28z" />
    <glyph glyph-name="eacute" unicode="&#xe9;" horiz-adv-x="478" 
d="M54 238c0 156 100 252 206 252c110 0 180 -78 180 -220c0 -10 0 -20 -2 -32h-352c0 -128 74 -222 188 -222c54 0 96 18 132 44l14 -26c-36 -22 -76 -46 -148 -46c-120 0 -218 94 -218 250zM86 264h324c0 132 -60 198 -150 198c-86 0 -164 -76 -174 -198zM340 706
l-104 -134h-28l92 134h40z" />
    <glyph glyph-name="ecircumflex" unicode="&#xea;" horiz-adv-x="478" 
d="M54 238c0 156 100 252 206 252c110 0 180 -78 180 -220c0 -10 0 -20 -2 -32h-352c0 -128 74 -222 188 -222c54 0 96 18 132 44l14 -26c-36 -22 -76 -46 -148 -46c-120 0 -218 94 -218 250zM86 264h324c0 132 -60 198 -150 198c-86 0 -164 -76 -174 -198zM152 572l94 134
h28l94 -134h-28l-78 102h-4l-78 -102h-28z" />
    <glyph glyph-name="edieresis" unicode="&#xeb;" horiz-adv-x="478" 
d="M54 238c0 156 100 252 206 252c110 0 180 -78 180 -220c0 -10 0 -20 -2 -32h-352c0 -128 74 -222 188 -222c54 0 96 18 132 44l14 -26c-36 -22 -76 -46 -148 -46c-120 0 -218 94 -218 250zM86 264h324c0 132 -60 198 -150 198c-86 0 -164 -76 -174 -198zM184 602
c-18 0 -32 14 -32 32s14 32 32 32s32 -14 32 -32s-14 -32 -32 -32zM336 602c-18 0 -32 14 -32 32s14 32 32 32s32 -14 32 -32s-14 -32 -32 -32z" />
    <glyph glyph-name="igrave" unicode="&#xec;" horiz-adv-x="222" 
d="M96 0v478h30v-478h-30zM135 572l-104 134h40l92 -134h-28z" />
    <glyph glyph-name="iacute" unicode="&#xed;" horiz-adv-x="222" 
d="M96 0v478h30v-478h-30zM191 706l-104 -134h-28l92 134h40z" />
    <glyph glyph-name="icircumflex" unicode="&#xee;" horiz-adv-x="222" 
d="M96 0v478h30v-478h-30zM3 572l94 134h28l94 -134h-28l-78 102h-4l-78 -102h-28z" />
    <glyph glyph-name="idieresis" unicode="&#xef;" horiz-adv-x="222" 
d="M96 0v478h30v-478h-30zM35 602c-18 0 -32 14 -32 32s14 32 32 32s32 -14 32 -32s-14 -32 -32 -32zM187 602c-18 0 -32 14 -32 32s14 32 32 32s32 -14 32 -32s-14 -32 -32 -32z" />
    <glyph glyph-name="eth" unicode="&#xf0;" horiz-adv-x="532" 
d="M266 16c116 0 166 106 166 234c0 23 -1 45 -3 65c-54 80 -109 97 -161 97c-115 0 -174 -92 -174 -194c0 -118 78 -202 172 -202zM464 678l-135 -71c80 -81 135 -192 135 -357c0 -160 -82 -262 -198 -262c-104 0 -204 86 -204 230c0 130 82 222 208 222
c59 0 112 -27 153 -79c-18 104 -62 176 -120 233l-141 -74l-12 22l133 70c-38 34 -82 62 -127 88l16 22c49 -27 96 -58 138 -96l142 74z" />
    <glyph glyph-name="ntilde" unicode="&#xf1;" horiz-adv-x="526" 
d="M96 0v478h26l4 -76h2c50 50 100 88 166 88c98 0 144 -58 144 -182v-308h-30v304c0 106 -34 158 -116 158c-60 0 -104 -32 -166 -96v-366h-30zM161 582c2 36 17 82 64 82c48 0 75 -56 110 -56c22 0 34 22 38 56h24c-2 -35 -17 -82 -64 -82c-48 0 -73 56 -110 56
c-22 0 -34 -21 -38 -56h-24z" />
    <glyph glyph-name="ograve" unicode="&#xf2;" horiz-adv-x="532" 
d="M54 238c0 160 98 252 212 252s212 -92 212 -252c0 -158 -98 -250 -212 -250s-212 92 -212 250zM86 238c0 -132 78 -222 180 -222s180 90 180 222s-78 224 -180 224s-180 -92 -180 -224zM290 572l-104 134h40l92 -134h-28z" />
    <glyph glyph-name="oacute" unicode="&#xf3;" horiz-adv-x="532" 
d="M54 238c0 160 98 252 212 252s212 -92 212 -252c0 -158 -98 -250 -212 -250s-212 92 -212 250zM86 238c0 -132 78 -222 180 -222s180 90 180 222s-78 224 -180 224s-180 -92 -180 -224zM346 706l-104 -134h-28l92 134h40z" />
    <glyph glyph-name="ocircumflex" unicode="&#xf4;" horiz-adv-x="532" 
d="M54 238c0 160 98 252 212 252s212 -92 212 -252c0 -158 -98 -250 -212 -250s-212 92 -212 250zM86 238c0 -132 78 -222 180 -222s180 90 180 222s-78 224 -180 224s-180 -92 -180 -224zM158 572l94 134h28l94 -134h-28l-78 102h-4l-78 -102h-28z" />
    <glyph glyph-name="otilde" unicode="&#xf5;" horiz-adv-x="532" 
d="M54 238c0 160 98 252 212 252s212 -92 212 -252c0 -158 -98 -250 -212 -250s-212 92 -212 250zM86 238c0 -132 78 -222 180 -222s180 90 180 222s-78 224 -180 224s-180 -92 -180 -224zM148 582c2 36 17 82 64 82c48 0 75 -56 110 -56c22 0 34 22 38 56h24
c-2 -35 -17 -82 -64 -82c-48 0 -73 56 -110 56c-22 0 -34 -21 -38 -56h-24z" />
    <glyph glyph-name="odieresis" unicode="&#xf6;" horiz-adv-x="532" 
d="M54 238c0 160 98 252 212 252s212 -92 212 -252c0 -158 -98 -250 -212 -250s-212 92 -212 250zM86 238c0 -132 78 -222 180 -222s180 90 180 222s-78 224 -180 224s-180 -92 -180 -224zM190 602c-18 0 -32 14 -32 32s14 32 32 32s32 -14 32 -32s-14 -32 -32 -32zM342 602
c-18 0 -32 14 -32 32s14 32 32 32s32 -14 32 -32s-14 -32 -32 -32z" />
    <glyph glyph-name="divide" unicode="&#xf7;" horiz-adv-x="472" 
d="M236 474c-18 0 -32 14 -32 36c0 20 14 34 32 34s32 -14 32 -34c0 -22 -14 -36 -32 -36zM204 150c0 20 14 34 32 34s32 -14 32 -34c0 -22 -14 -36 -32 -36s-32 14 -32 36zM34 316v28h404v-28h-404z" />
    <glyph glyph-name="oslash" unicode="&#xf8;" horiz-adv-x="532" 
d="M406 384l-262 -314c32 -34 74 -54 122 -54c102 0 180 90 180 222c0 58 -15 108 -40 146zM126 93l262 314c-32 35 -74 55 -122 55c-102 0 -180 -92 -180 -224c0 -58 15 -108 40 -145zM486 480l-59 -71c32 -42 51 -100 51 -171c0 -158 -98 -250 -212 -250
c-53 0 -103 20 -141 58l-57 -68l-22 18l60 72c-32 42 -52 99 -52 170c0 160 98 252 212 252c54 0 104 -21 142 -59l56 67z" />
    <glyph glyph-name="ugrave" unicode="&#xf9;" horiz-adv-x="524" 
d="M88 170v308h30v-304c0 -106 34 -158 116 -158c60 0 104 32 164 104v358h30v-478h-26l-4 82h-2c-48 -56 -98 -94 -164 -94c-98 0 -144 58 -144 182zM286 572l-104 134h40l92 -134h-28z" />
    <glyph glyph-name="uacute" unicode="&#xfa;" horiz-adv-x="524" 
d="M88 170v308h30v-304c0 -106 34 -158 116 -158c60 0 104 32 164 104v358h30v-478h-26l-4 82h-2c-48 -56 -98 -94 -164 -94c-98 0 -144 58 -144 182zM342 706l-104 -134h-28l92 134h40z" />
    <glyph glyph-name="ucircumflex" unicode="&#xfb;" horiz-adv-x="524" 
d="M88 170v308h30v-304c0 -106 34 -158 116 -158c60 0 104 32 164 104v358h30v-478h-26l-4 82h-2c-48 -56 -98 -94 -164 -94c-98 0 -144 58 -144 182zM154 572l94 134h28l94 -134h-28l-78 102h-4l-78 -102h-28z" />
    <glyph glyph-name="udieresis" unicode="&#xfc;" horiz-adv-x="524" 
d="M88 170v308h30v-304c0 -106 34 -158 116 -158c60 0 104 32 164 104v358h30v-478h-26l-4 82h-2c-48 -56 -98 -94 -164 -94c-98 0 -144 58 -144 182zM186 602c-18 0 -32 14 -32 32s14 32 32 32s32 -14 32 -32s-14 -32 -32 -32zM338 602c-18 0 -32 14 -32 32s14 32 32 32
s32 -14 32 -32s-14 -32 -32 -32z" />
    <glyph glyph-name="yacute" unicode="&#xfd;" horiz-adv-x="424" 
d="M28 -184c10 -4 26 -8 40 -8c60 0 102 58 128 136l14 44l-198 490h34l122 -314c16 -40 36 -92 54 -134h4c16 42 32 94 46 134l108 314h32l-192 -546c-24 -74 -72 -154 -154 -154c-16 0 -34 4 -46 10zM304 706l-104 -134h-28l92 134h40z" />
    <glyph glyph-name="thorn" unicode="&#xfe;" horiz-adv-x="540" 
d="M126 -42v-180h-30v944h30v-212v-94c50 38 108 74 168 74c130 0 192 -96 192 -244c0 -162 -98 -258 -212 -258c-46 0 -96 22 -148 60v-90zM126 82c58 -48 112 -66 150 -66c104 0 178 96 178 230c0 122 -44 216 -162 216c-50 0 -104 -30 -166 -84v-296z" />
    <glyph glyph-name="ydieresis" unicode="&#xff;" horiz-adv-x="424" 
d="M28 -184c10 -4 26 -8 40 -8c60 0 102 58 128 136l14 44l-198 490h34l122 -314c16 -40 36 -92 54 -134h4c16 42 32 94 46 134l108 314h32l-192 -546c-24 -74 -72 -154 -154 -154c-16 0 -34 4 -46 10zM148 602c-18 0 -32 14 -32 32s14 32 32 32s32 -14 32 -32
s-14 -32 -32 -32zM300 602c-18 0 -32 14 -32 32s14 32 32 32s32 -14 32 -32s-14 -32 -32 -32z" />
    <glyph glyph-name="Amacron" unicode="&#x100;" horiz-adv-x="520" 
d="M370 764v-28h-220v28h220zM135 264h249l-46 132c-28 80 -52 148 -76 230h-4c-24 -82 -48 -150 -76 -230zM476 0l-82 236h-269l-83 -236h-32l236 660h28l236 -660h-34z" />
    <glyph glyph-name="amacron" unicode="&#x101;" horiz-adv-x="494" 
d="M68 117c0 107 98 157 314 181c2 78 -18 164 -118 164c-68 0 -126 -34 -156 -58l-16 24c30 22 96 62 174 62c112 0 146 -84 146 -180v-310h-26l-4 64h-2c-50 -40 -110 -76 -174 -76c-74 0 -138 38 -138 129zM100 118c0 -74 50 -102 108 -102s110 28 174 82v174
c-210 -24 -282 -72 -282 -154zM150 608v28h220v-28h-220z" />
    <glyph glyph-name="Abreve" unicode="&#x102;" horiz-adv-x="520" 
d="M346 814h26c-6 -42 -38 -102 -112 -102s-106 60 -112 102h26c6 -36 32 -76 86 -76s80 40 86 76zM135 264h249l-46 132c-28 80 -52 148 -76 230h-4c-24 -82 -48 -150 -76 -230zM476 0l-82 236h-269l-83 -236h-32l236 660h28l236 -660h-34z" />
    <glyph glyph-name="abreve" unicode="&#x103;" horiz-adv-x="494" 
d="M68 117c0 107 98 157 314 181c2 78 -18 164 -118 164c-68 0 -126 -34 -156 -58l-16 24c30 22 96 62 174 62c112 0 146 -84 146 -180v-310h-26l-4 64h-2c-50 -40 -110 -76 -174 -76c-74 0 -138 38 -138 129zM100 118c0 -74 50 -102 108 -102s110 28 174 82v174
c-210 -24 -282 -72 -282 -154zM260 576c-80 0 -110 68 -116 116h26c6 -44 34 -90 90 -90s84 46 90 90h26c-6 -48 -36 -116 -116 -116z" />
    <glyph glyph-name="Aogonek" unicode="&#x104;" horiz-adv-x="520" 
d="M135 264h249l-46 132c-28 80 -52 148 -76 230h-4c-24 -82 -48 -150 -76 -230zM534 -160l14 -20c-14 -12 -40 -22 -60 -22c-44 0 -80 26 -80 80c0 48 34 96 70 122h-2l-82 236h-269l-83 -236h-32l236 660h28l236 -660c-40 -30 -72 -78 -72 -120c0 -36 26 -54 52 -54
c18 0 30 4 44 14z" />
    <glyph glyph-name="aogonek" unicode="&#x105;" horiz-adv-x="494" 
d="M100 118c0 -74 50 -102 108 -102s110 28 174 82v174c-210 -24 -282 -72 -282 -154zM68 116c0 108 98 158 314 182c2 78 -18 164 -118 164c-68 0 -126 -34 -156 -58l-16 24c30 22 96 62 174 62c112 0 146 -84 146 -180v-310c-48 -26 -86 -76 -86 -120c0 -36 24 -54 50 -54
c18 0 30 4 44 14l14 -20c-14 -12 -40 -22 -60 -22c-44 0 -78 26 -78 80c0 50 40 100 90 130l-4 56h-2c-50 -40 -110 -76 -174 -76c-74 0 -138 38 -138 128z" />
    <glyph glyph-name="Cacute" unicode="&#x106;" horiz-adv-x="562" 
d="M56 332c0 208 110 340 278 340c76 0 134 -38 168 -78l-20 -22c-36 42 -86 70 -148 70c-152 0 -244 -120 -244 -310s92 -314 240 -314c70 0 122 28 172 84l20 -20c-50 -58 -108 -94 -194 -94c-162 0 -272 136 -272 344zM426 814l-108 -104h-30l94 104h44z" />
    <glyph glyph-name="cacute" unicode="&#x107;" horiz-adv-x="446" 
d="M54 238c0 160 100 252 214 252c66 0 108 -30 140 -60l-20 -22c-32 30 -70 54 -120 54c-102 0 -182 -92 -182 -224s72 -222 182 -222c54 0 100 26 134 58l18 -22c-40 -36 -90 -64 -152 -64c-122 0 -214 92 -214 250zM349 706l-104 -134h-28l92 134h40z" />
    <glyph glyph-name="Ccircumflex" unicode="&#x108;" horiz-adv-x="562" 
d="M56 332c0 208 110 340 278 340c76 0 134 -38 168 -78l-20 -22c-36 42 -86 70 -148 70c-152 0 -244 -120 -244 -310s92 -314 240 -314c70 0 122 28 172 84l20 -20c-50 -58 -108 -94 -194 -94c-162 0 -272 136 -272 344zM240 710h-30l96 104h28l96 -104h-30l-78 74h-4z" />
    <glyph glyph-name="ccircumflex" unicode="&#x109;" horiz-adv-x="446" 
d="M54 238c0 160 100 252 214 252c66 0 108 -30 140 -60l-20 -22c-32 30 -70 54 -120 54c-102 0 -182 -92 -182 -224s72 -222 182 -222c54 0 100 26 134 58l18 -22c-40 -36 -90 -64 -152 -64c-122 0 -214 92 -214 250zM161 572l94 134h28l94 -134h-28l-78 102h-4l-78 -102
h-28z" />
    <glyph glyph-name="Cdotaccent" unicode="&#x10a;" horiz-adv-x="562" 
d="M56 332c0 208 110 340 278 340c76 0 134 -38 168 -78l-20 -22c-36 42 -86 70 -148 70c-152 0 -244 -120 -244 -310s92 -314 240 -314c70 0 122 28 172 84l20 -20c-50 -58 -108 -94 -194 -94c-162 0 -272 136 -272 344zM320 724c-18 0 -34 14 -34 36c0 20 16 34 34 34
s34 -14 34 -34c0 -22 -16 -36 -34 -36z" />
    <glyph glyph-name="cdotaccent" unicode="&#x10b;" horiz-adv-x="446" 
d="M54 238c0 160 100 252 214 252c66 0 108 -30 140 -60l-20 -22c-32 30 -70 54 -120 54c-102 0 -182 -92 -182 -224s72 -222 182 -222c54 0 100 26 134 58l18 -22c-40 -36 -90 -64 -152 -64c-122 0 -214 92 -214 250zM269 600c-18 0 -32 14 -32 36c0 20 14 34 32 34
s32 -14 32 -34c0 -22 -14 -36 -32 -36z" />
    <glyph glyph-name="Ccaron" unicode="&#x10c;" horiz-adv-x="562" 
d="M56 332c0 208 110 340 278 340c76 0 134 -38 168 -78l-20 -22c-36 42 -86 70 -148 70c-152 0 -244 -120 -244 -310s92 -314 240 -314c70 0 122 28 172 84l20 -20c-50 -58 -108 -94 -194 -94c-162 0 -272 136 -272 344zM400 814h30l-96 -104h-28l-96 104h30l78 -74h4z" />
    <glyph glyph-name="ccaron" unicode="&#x10d;" horiz-adv-x="446" 
d="M54 238c0 160 100 252 214 252c66 0 108 -30 140 -60l-20 -22c-32 30 -70 54 -120 54c-102 0 -182 -92 -182 -224s72 -222 182 -222c54 0 100 26 134 58l18 -22c-40 -36 -90 -64 -152 -64c-122 0 -214 92 -214 250zM255 572l-94 134h28l78 -102h4l78 102h28l-94 -134h-28
z" />
    <glyph glyph-name="Dcaron" unicode="&#x10e;" horiz-adv-x="600" 
d="M100 0v660h148c204 0 296 -132 296 -328s-92 -332 -296 -332h-148zM132 28h112c188 0 266 130 266 304s-78 300 -266 300h-112v-604zM380 814h30l-96 -104h-28l-96 104h30l78 -74h4z" />
    <glyph glyph-name="dcaron" unicode="&#x10f;" horiz-adv-x="540" 
d="M54 238c0 154 98 252 214 252c58 0 98 -22 148 -60l-2 90v202h30v-722h-26l-4 64h-2c-40 -40 -94 -76 -160 -76c-120 0 -198 88 -198 250zM86 238c0 -132 60 -222 168 -222c56 0 106 30 160 84v296c-54 48 -98 66 -148 66c-102 0 -180 -100 -180 -224zM534 548h-22
l-2 204h30v-48z" />
    <glyph glyph-name="Dcroat" unicode="&#x110;" horiz-adv-x="620" 
d="M152 28h112c188 0 266 130 266 304s-78 300 -266 300h-112v-268h168v-28h-168v-308zM120 660h148c204 0 296 -132 296 -328s-92 -332 -296 -332h-148v336h-82v26l82 2v296z" />
    <glyph glyph-name="dcroat" unicode="&#x111;" horiz-adv-x="540" 
d="M414 100v276c-54 48 -98 66 -148 66c-102 0 -180 -96 -180 -214c0 -126 60 -212 168 -212c56 0 106 30 160 84zM444 612h76v-24l-76 -4v-584h-26l-4 64h-2c-40 -40 -94 -76 -160 -76c-120 0 -198 84 -198 240c0 148 98 242 214 242c58 0 98 -22 148 -60l-2 90v84h-172v28
h172v110h30v-110z" />
    <glyph glyph-name="Emacron" unicode="&#x112;" horiz-adv-x="510" 
d="M100 0v660h354v-28h-322v-266h270v-28h-270v-310h332v-28h-364zM171 736v28h220v-28h-220z" />
    <glyph glyph-name="emacron" unicode="&#x113;" horiz-adv-x="478" 
d="M54 238c0 156 100 252 206 252c110 0 180 -78 180 -220c0 -10 0 -20 -2 -32h-352c0 -128 74 -222 188 -222c54 0 96 18 132 44l14 -26c-36 -22 -76 -46 -148 -46c-120 0 -218 94 -218 250zM86 264h324c0 132 -60 198 -150 198c-86 0 -164 -76 -174 -198zM150 608v28h220
v-28h-220z" />
    <glyph glyph-name="Ebreve" unicode="&#x114;" horiz-adv-x="510" 
d="M100 0v660h354v-28h-322v-266h270v-28h-270v-310h332v-28h-364zM281 712c-74 0 -106 60 -112 102h26c6 -36 32 -76 86 -76s80 40 86 76h26c-6 -42 -38 -102 -112 -102z" />
    <glyph glyph-name="ebreve" unicode="&#x115;" horiz-adv-x="478" 
d="M54 238c0 156 100 252 206 252c110 0 180 -78 180 -220c0 -10 0 -20 -2 -32h-352c0 -128 74 -222 188 -222c54 0 96 18 132 44l14 -26c-36 -22 -76 -46 -148 -46c-120 0 -218 94 -218 250zM86 264h324c0 132 -60 198 -150 198c-86 0 -164 -76 -174 -198zM260 576
c-80 0 -110 68 -116 116h26c6 -44 34 -90 90 -90s84 46 90 90h26c-6 -48 -36 -116 -116 -116z" />
    <glyph glyph-name="Edotaccent" unicode="&#x116;" horiz-adv-x="510" 
d="M100 0v660h354v-28h-322v-266h270v-28h-270v-310h332v-28h-364zM281 724c-18 0 -34 14 -34 36c0 20 16 34 34 34s34 -14 34 -34c0 -22 -16 -36 -34 -36z" />
    <glyph glyph-name="edotaccent" unicode="&#x117;" horiz-adv-x="478" 
d="M54 238c0 156 100 252 206 252c110 0 180 -78 180 -220c0 -10 0 -20 -2 -32h-352c0 -128 74 -222 188 -222c54 0 96 18 132 44l14 -26c-36 -22 -76 -46 -148 -46c-120 0 -218 94 -218 250zM86 264h324c0 132 -60 198 -150 198c-86 0 -164 -76 -174 -198zM260 600
c-18 0 -32 14 -32 36c0 20 14 34 32 34s32 -14 32 -34c0 -22 -14 -36 -32 -36z" />
    <glyph glyph-name="Eogonek" unicode="&#x118;" horiz-adv-x="510" 
d="M100 0v660h354v-28h-322v-266h270v-28h-270v-310h332v-28h-2c-45 -10 -96 -60 -96 -120c0 -36 26 -54 52 -54c18 0 30 4 44 14l14 -20c-14 -12 -40 -22 -60 -22c-44 0 -80 26 -80 80c0 50 32 96 72 122h-308z" />
    <glyph glyph-name="eogonek" unicode="&#x119;" horiz-adv-x="478" 
d="M54 238c0 156 100 252 206 252c110 0 180 -78 180 -220c0 -12 0 -20 -2 -32h-352c0 -128 74 -222 188 -222c54 0 96 18 132 44l14 -26c-86 -64 -114 -110 -114 -154c0 -36 24 -54 50 -54c18 0 30 4 44 14l14 -20c-14 -12 -40 -22 -60 -22c-44 0 -78 26 -78 80
c0 50 36 96 64 120c-22 -8 -44 -10 -68 -10c-120 0 -218 94 -218 250zM86 264h324c0 132 -59 198 -150 198c-86 0 -164 -76 -174 -198z" />
    <glyph glyph-name="Ecaron" unicode="&#x11a;" horiz-adv-x="510" 
d="M100 0v660h354v-28h-322v-266h270v-28h-270v-310h332v-28h-364zM361 814h30l-96 -104h-28l-96 104h30l78 -74h4z" />
    <glyph glyph-name="ecaron" unicode="&#x11b;" horiz-adv-x="478" 
d="M54 238c0 156 100 252 206 252c110 0 180 -78 180 -220c0 -10 0 -20 -2 -32h-352c0 -128 74 -222 188 -222c54 0 96 18 132 44l14 -26c-36 -22 -76 -46 -148 -46c-120 0 -218 94 -218 250zM86 264h324c0 132 -60 198 -150 198c-86 0 -164 -76 -174 -198zM246 572l-94 134
h28l78 -102h4l78 102h28l-94 -134h-28z" />
    <glyph glyph-name="Gcircumflex" unicode="&#x11c;" horiz-adv-x="600" 
d="M56 332c0 208 114 340 288 340c88 0 142 -42 176 -78l-20 -22c-34 38 -82 70 -156 70c-158 0 -254 -120 -254 -310s92 -314 246 -314c64 0 124 20 158 54v218h-164v28h196v-256c-40 -44 -106 -74 -192 -74c-168 0 -278 136 -278 344zM263 710h-30l96 104h28l96 -104h-30
l-78 74h-4z" />
    <glyph glyph-name="gcircumflex" unicode="&#x11d;" horiz-adv-x="480" 
d="M86 -98c0 -64 60 -108 166 -108c114 0 186 66 186 130c0 56 -40 78 -116 78h-110c-6 0 -32 2 -58 8c-48 -32 -68 -72 -68 -108zM54 -100c0 42 28 86 72 118v4c-24 14 -42 40 -42 76c0 44 32 74 52 88v4c-30 26 -60 74 -60 132c0 96 72 168 164 168c26 0 48 -6 62 -12h160
v-28h-116c34 -28 58 -74 58 -128c0 -96 -72 -170 -164 -170c-28 0 -60 8 -82 22c-22 -18 -42 -40 -42 -74c0 -36 20 -66 94 -66h106c106 0 154 -34 154 -108c0 -80 -86 -160 -220 -160c-122 0 -196 54 -196 134zM240 180c70 0 132 58 132 142c0 85 -60 140 -132 140
s-132 -54 -132 -140c0 -84 62 -142 132 -142zM122 572l94 134h28l94 -134h-28l-78 102h-4l-78 -102h-28z" />
    <glyph glyph-name="Gbreve" unicode="&#x11e;" horiz-adv-x="600" 
d="M56 332c0 208 114 340 288 340c88 0 142 -42 176 -78l-20 -22c-34 38 -82 70 -156 70c-158 0 -254 -120 -254 -310s92 -314 246 -314c64 0 124 20 158 54v218h-164v28h196v-256c-40 -44 -106 -74 -192 -74c-168 0 -278 136 -278 344zM343 712c-74 0 -106 60 -112 102h26
c6 -36 32 -76 86 -76s80 40 86 76h26c-6 -42 -38 -102 -112 -102z" />
    <glyph glyph-name="gbreve" unicode="&#x11f;" horiz-adv-x="480" 
d="M86 -98c0 -64 60 -108 166 -108c114 0 186 66 186 130c0 56 -40 78 -116 78h-110c-6 0 -32 2 -58 8c-48 -32 -68 -72 -68 -108zM54 -100c0 42 28 86 72 118v4c-24 14 -42 40 -42 76c0 44 32 74 52 88v4c-30 26 -60 74 -60 132c0 96 72 168 164 168c26 0 48 -6 62 -12h160
v-28h-116c34 -28 58 -74 58 -128c0 -96 -72 -170 -164 -170c-28 0 -60 8 -82 22c-22 -18 -42 -40 -42 -74c0 -36 20 -66 94 -66h106c106 0 154 -34 154 -108c0 -80 -86 -160 -220 -160c-122 0 -196 54 -196 134zM240 180c70 0 132 58 132 142c0 85 -60 140 -132 140
s-132 -54 -132 -140c0 -84 62 -142 132 -142zM230 576c-80 0 -110 68 -116 116h26c6 -44 34 -90 90 -90s84 46 90 90h26c-6 -48 -36 -116 -116 -116z" />
    <glyph glyph-name="Gdotaccent" unicode="&#x120;" horiz-adv-x="600" 
d="M56 332c0 208 114 340 288 340c88 0 142 -42 176 -78l-20 -22c-34 38 -82 70 -156 70c-158 0 -254 -120 -254 -310s92 -314 246 -314c64 0 124 20 158 54v218h-164v28h196v-256c-40 -44 -106 -74 -192 -74c-168 0 -278 136 -278 344zM343 724c-18 0 -34 14 -34 36
c0 20 16 34 34 34s34 -14 34 -34c0 -22 -16 -36 -34 -36z" />
    <glyph glyph-name="gdotaccent" unicode="&#x121;" horiz-adv-x="480" 
d="M86 -98c0 -64 60 -108 166 -108c114 0 186 66 186 130c0 56 -40 78 -116 78h-110c-6 0 -32 2 -58 8c-48 -32 -68 -72 -68 -108zM54 -100c0 42 28 86 72 118v4c-24 14 -42 40 -42 76c0 44 32 74 52 88v4c-30 26 -60 74 -60 132c0 96 72 168 164 168c26 0 48 -6 62 -12h160
v-28h-116c34 -28 58 -74 58 -128c0 -96 -72 -170 -164 -170c-28 0 -60 8 -82 22c-22 -18 -42 -40 -42 -74c0 -36 20 -66 94 -66h106c106 0 154 -34 154 -108c0 -80 -86 -160 -220 -160c-122 0 -196 54 -196 134zM240 180c70 0 132 58 132 142c0 85 -60 140 -132 140
s-132 -54 -132 -140c0 -84 62 -142 132 -142zM230 600c-18 0 -32 14 -32 36c0 20 14 34 32 34s32 -14 32 -34c0 -22 -14 -36 -32 -36z" />
    <glyph glyph-name="uni0122" unicode="&#x122;" horiz-adv-x="600" 
d="M56 332c0 208 114 340 288 340c88 0 142 -42 176 -78l-20 -22c-34 38 -82 70 -156 70c-158 0 -254 -120 -254 -310s92 -314 246 -314c64 0 124 20 158 54v218h-164v28h196v-256c-40 -44 -106 -74 -192 -74c-168 0 -278 136 -278 344zM313 -52c50 -12 78 -32 78 -72
c0 -50 -58 -74 -118 -82l-6 26c56 8 94 24 94 52c0 32 -30 44 -58 50z" />
    <glyph glyph-name="uni0123" unicode="&#x123;" horiz-adv-x="480" 
d="M86 -98c0 -64 60 -108 166 -108c114 0 186 66 186 130c0 56 -40 78 -116 78h-110c-6 0 -32 2 -58 8c-48 -32 -68 -72 -68 -108zM54 -100c0 42 28 86 72 118v4c-24 14 -42 40 -42 76c0 44 32 74 52 88v4c-30 26 -60 74 -60 132c0 96 72 168 164 168c26 0 48 -6 62 -12h160
v-28h-116c34 -28 58 -74 58 -128c0 -96 -72 -170 -164 -170c-28 0 -60 8 -82 22c-22 -18 -42 -40 -42 -74c0 -36 20 -66 94 -66h106c106 0 154 -34 154 -108c0 -80 -86 -160 -220 -160c-122 0 -196 54 -196 134zM240 180c70 0 132 58 132 142c0 85 -60 140 -132 140
s-132 -54 -132 -140c0 -84 62 -142 132 -142zM252 538c-50 12 -78 32 -78 72c0 50 58 74 118 82l6 -26c-56 -8 -94 -24 -94 -52c0 -32 30 -44 58 -50z" />
    <glyph glyph-name="Hcircumflex" unicode="&#x124;" horiz-adv-x="634" 
d="M100 0v660h32v-294h370v294h32v-660h-32v338h-370v-338h-32zM237 710h-30l96 104h28l96 -104h-30l-78 74h-4z" />
    <glyph glyph-name="hcircumflex" unicode="&#x125;" horiz-adv-x="522" 
d="M96 0v722h30v-214v-108c52 52 102 90 168 90c98 0 144 -58 144 -182v-308h-30v304c0 106 -34 158 -116 158c-60 0 -104 -32 -166 -96v-366h-30zM33 748h-30l96 104h28l96 -104h-30l-78 74h-4z" />
    <glyph glyph-name="Hbar" unicode="&#x126;" horiz-adv-x="666" 
d="M522 366v130h-370v-130h370zM628 524v-28h-74v-496h-32v338h-370v-338h-32v496h-82v24l82 4v136h32v-136h370v136h32v-136h74z" />
    <glyph glyph-name="hbar" unicode="&#x127;" horiz-adv-x="522" 
d="M126 488v-108c52 52 102 90 168 90c98 0 144 -58 144 -182v-288h-30v284c0 106 -34 158 -116 158c-60 0 -104 -32 -166 -96v-346h-30v584h-78v24l78 4v110h30v-110h192v-28h-192v-96z" />
    <glyph glyph-name="Itilde" unicode="&#x128;" horiz-adv-x="232" 
d="M100 0v660h32v-660h-32zM174 718c-52 0 -76 58 -118 58c-22 0 -38 -24 -42 -58h-22c2 38 22 86 66 86c52 0 76 -58 118 -58c22 0 38 24 42 58h22c-2 -38 -22 -86 -66 -86z" />
    <glyph glyph-name="itilde" unicode="&#x129;" horiz-adv-x="222" 
d="M96 0v478h30v-478h-30zM-7 582c2 36 17 82 64 82c48 0 75 -56 110 -56c22 0 34 22 38 56h24c-2 -35 -17 -82 -64 -82c-48 0 -73 56 -110 56c-22 0 -34 -21 -38 -56h-24z" />
    <glyph glyph-name="Imacron" unicode="&#x12a;" horiz-adv-x="232" 
d="M100 0v660h32v-660h-32zM6 736v28h220v-28h-220z" />
    <glyph glyph-name="imacron" unicode="&#x12b;" horiz-adv-x="222" 
d="M96 0v478h30v-478h-30zM1 608v28h220v-28h-220z" />
    <glyph glyph-name="uni012C" unicode="&#x12c;" horiz-adv-x="232" 
d="M100 0v660h32v-660h-32zM116 712c-74 0 -106 60 -112 102h26c6 -36 32 -76 86 -76s80 40 86 76h26c-6 -42 -38 -102 -112 -102z" />
    <glyph glyph-name="uni012D" unicode="&#x12d;" horiz-adv-x="222" 
d="M96 0v478h30v-478h-30zM112 576c-80 0 -110 68 -116 116h26c6 -44 34 -90 90 -90s84 46 90 90h26c-6 -48 -36 -116 -116 -116z" />
    <glyph glyph-name="Iogonek" unicode="&#x12e;" horiz-adv-x="232" 
d="M100 0v660h32v-660c-32 -40 -58 -74 -58 -120c0 -36 26 -54 52 -54c18 0 30 4 44 14l14 -20c-14 -12 -40 -22 -60 -22c-44 0 -80 26 -80 80c0 52 26 86 60 122h-4z" />
    <glyph glyph-name="iogonek" unicode="&#x12f;" horiz-adv-x="222" 
d="M96 0v478h30v-478c-30 -36 -60 -76 -60 -120c0 -36 24 -54 50 -54c18 0 30 4 44 14l14 -20c-14 -12 -40 -22 -60 -22c-44 0 -78 26 -78 80c0 50 32 88 62 122h-2zM110 600c-18 0 -34 14 -34 34c0 22 16 34 34 34s34 -12 34 -34c0 -20 -16 -34 -34 -34z" />
    <glyph glyph-name="Idotaccent" unicode="&#x130;" horiz-adv-x="232" 
d="M100 0v660h32v-660h-32zM116 724c-18 0 -34 14 -34 36c0 20 16 34 34 34s34 -14 34 -34c0 -22 -16 -36 -34 -36z" />
    <glyph glyph-name="dotlessi" unicode="&#x131;" horiz-adv-x="222" 
d="M96 0v478h30v-478h-30z" />
    <glyph glyph-name="Jcircumflex" unicode="&#x134;" horiz-adv-x="456" 
d="M44 82l26 16c34 -58 74 -80 132 -80c84 0 124 50 124 160v482h32v-486c0 -104 -42 -186 -158 -186c-70 0 -124 34 -156 94zM258 710h-30l96 104h28l96 -104h-30l-78 74h-4z" />
    <glyph glyph-name="jcircumflex" unicode="&#x135;" horiz-adv-x="222" 
d="M96 -98v576h30v-580c0 -92 -32 -132 -98 -132c-20 0 -44 6 -58 12l8 26c12 -4 32 -10 52 -10c56 0 66 46 66 108zM3 572l94 134h28l94 -134h-28l-78 102h-4l-78 -102h-28z" />
    <glyph glyph-name="uni0136" unicode="&#x136;" horiz-adv-x="550" 
d="M100 0v660h32v-380h2l336 380h40l-212 -242l240 -418h-38l-226 394l-142 -160v-234h-32zM297 -52c50 -12 78 -32 78 -72c0 -50 -58 -74 -118 -82l-6 26c56 8 94 24 94 52c0 32 -30 44 -58 50z" />
    <glyph glyph-name="uni0137" unicode="&#x137;" horiz-adv-x="452" 
d="M96 0v722h30v-548h2l248 304h36l-154 -188l182 -290h-34l-166 266l-114 -134v-132h-30zM228 -52c50 -12 78 -32 78 -72c0 -50 -58 -74 -118 -82l-6 26c56 8 94 24 94 52c0 32 -30 44 -58 50z" />
    <glyph glyph-name="kgreenlandic" unicode="&#x138;" horiz-adv-x="452" 
d="M96 0v478h30v-304h2l248 304h36l-154 -188l182 -290h-34l-166 266l-114 -134v-132h-30z" />
    <glyph glyph-name="Lacute" unicode="&#x139;" horiz-adv-x="460" 
d="M100 0v660h32v-632h310v-28h-342zM224 814l-108 -104h-30l94 104h44z" />
    <glyph glyph-name="lacute" unicode="&#x13a;" horiz-adv-x="230" 
d="M96 52v670h30v-676c0 -20 8 -30 20 -30c4 0 8 0 18 2l6 -26c-8 -2 -14 -4 -26 -4c-30 0 -48 18 -48 64zM208 864l-108 -104h-30l94 104h44z" />
    <glyph glyph-name="uni013B" unicode="&#x13b;" horiz-adv-x="460" 
d="M100 0v660h32v-632h310v-28h-342zM262 -52c50 -12 78 -32 78 -72c0 -50 -58 -74 -118 -82l-6 26c56 8 94 24 94 52c0 32 -30 44 -58 50z" />
    <glyph glyph-name="uni013C" unicode="&#x13c;" horiz-adv-x="230" 
d="M96 52v670h30v-676c0 -20 8 -30 20 -30c4 0 8 0 18 2l6 -26c-8 -2 -14 -4 -26 -4c-30 0 -48 18 -48 64zM130 -52c50 -12 78 -32 78 -72c0 -50 -58 -74 -118 -82l-6 26c56 8 94 24 94 52c0 32 -30 44 -58 50z" />
    <glyph glyph-name="Lcaron" unicode="&#x13d;" horiz-adv-x="460" 
d="M100 0v660h32v-632h310v-28h-342zM340 518h-22l-2 204h30v-48z" />
    <glyph glyph-name="lcaron" unicode="&#x13e;" horiz-adv-x="222" 
d="M96 52v670h30v-676c0 -20 8 -30 20 -30c4 0 8 0 18 2l6 -26c-8 -2 -14 -4 -26 -4c-30 0 -48 18 -48 64zM216 548h-22l-2 204h30v-48z" />
    <glyph glyph-name="Ldot" unicode="&#x13f;" horiz-adv-x="460" 
d="M100 0v660h32v-632h310v-28h-342zM314 322c0 26 18 40 36 40s36 -14 36 -40c0 -24 -18 -38 -36 -38s-36 14 -36 38z" />
    <glyph glyph-name="ldot" unicode="&#x140;" horiz-adv-x="288" 
d="M96 52v670h30v-676c0 -20 8 -30 20 -30c4 0 8 0 18 2l6 -26c-8 -2 -14 -4 -26 -4c-30 0 -48 18 -48 64zM218 322c0 26 18 40 36 40s36 -14 36 -40c0 -24 -18 -38 -36 -38s-36 14 -36 38z" />
    <glyph glyph-name="Lslash" unicode="&#x141;" horiz-adv-x="460" 
d="M136 28h310v-28h-342v264l-90 -48v30l90 48v366h32v-352l196 102v-30l-196 -102v-250z" />
    <glyph glyph-name="lslash" unicode="&#x142;" horiz-adv-x="230" 
d="M200 444l-74 -50v-348c0 -20 8 -30 20 -30c4 0 8 0 18 2l6 -26c-8 -2 -14 -4 -26 -4c-30 0 -48 18 -48 64v324l-66 -44v32l66 44v314h30v-296l74 50v-32z" />
    <glyph glyph-name="Nacute" unicode="&#x143;" horiz-adv-x="632" 
d="M100 0v660h34l292 -484l76 -130h4c-2 64 -4 124 -4 186v428h30v-660h-34l-292 484l-76 130h-4c2 -62 4 -118 4 -180v-434h-30zM427 814l-108 -104h-30l94 104h44z" />
    <glyph glyph-name="nacute" unicode="&#x144;" horiz-adv-x="526" 
d="M96 0v478h26l4 -76h2c50 50 100 88 166 88c98 0 144 -58 144 -182v-308h-30v304c0 106 -34 158 -116 158c-60 0 -104 -32 -166 -96v-366h-30zM359 706l-104 -134h-28l92 134h40z" />
    <glyph glyph-name="uni0145" unicode="&#x145;" horiz-adv-x="632" 
d="M100 0v660h34l292 -484l76 -130h4c-2 64 -4 124 -4 186v428h30v-660h-34l-292 484l-76 130h-4c2 -62 4 -118 4 -180v-434h-30zM291 -52c50 -12 78 -32 78 -72c0 -50 -58 -74 -118 -82l-6 26c56 8 94 24 94 52c0 32 -30 44 -58 50z" />
    <glyph glyph-name="uni0146" unicode="&#x146;" horiz-adv-x="526" 
d="M96 0v478h26l4 -76h2c50 50 100 88 166 88c98 0 144 -58 144 -182v-308h-30v304c0 106 -34 158 -116 158c-60 0 -104 -32 -166 -96v-366h-30zM245 -52c50 -12 78 -32 78 -72c0 -50 -58 -74 -118 -82l-6 26c56 8 94 24 94 52c0 32 -30 44 -58 50z" />
    <glyph glyph-name="Ncaron" unicode="&#x147;" horiz-adv-x="632" 
d="M100 0v660h34l292 -484l76 -130h4c-2 64 -4 124 -4 186v428h30v-660h-34l-292 484l-76 130h-4c2 -62 4 -118 4 -180v-434h-30zM401 814h30l-96 -104h-28l-96 104h30l78 -74h4z" />
    <glyph glyph-name="ncaron" unicode="&#x148;" horiz-adv-x="526" 
d="M96 0v478h26l4 -76h2c50 50 100 88 166 88c98 0 144 -58 144 -182v-308h-30v304c0 106 -34 158 -116 158c-60 0 -104 -32 -166 -96v-366h-30zM265 572l-94 134h28l78 -102h4l78 102h28l-94 -134h-28z" />
    <glyph glyph-name="napostrophe" unicode="&#x149;" horiz-adv-x="712" 
d="M72 494l-16 18c42 36 64 67 64 123c-2 -1 -5 -1 -8 -1c-16 0 -34 10 -34 32s14 34 34 34c22 0 38 -20 38 -58c0 -68 -30 -114 -78 -148zM303 402h2c50 50 100 88 166 88c98 0 144 -58 144 -182v-308h-30v304c0 106 -34 158 -116 158c-60 0 -104 -32 -166 -96v-366h-30
v478h26z" />
    <glyph glyph-name="Omacron" unicode="&#x14c;" horiz-adv-x="648" 
d="M324 -12c-156 0 -268 136 -268 344s112 340 268 340s268 -132 268 -340s-112 -344 -268 -344zM324 18c140 0 234 124 234 314s-94 310 -234 310s-234 -120 -234 -310s94 -314 234 -314zM214 736v28h220v-28h-220z" />
    <glyph glyph-name="omacron" unicode="&#x14d;" horiz-adv-x="532" 
d="M54 238c0 160 98 252 212 252s212 -92 212 -252c0 -158 -98 -250 -212 -250s-212 92 -212 250zM86 238c0 -132 78 -222 180 -222s180 90 180 222s-78 224 -180 224s-180 -92 -180 -224zM156 608v28h220v-28h-220z" />
    <glyph glyph-name="uni014E" unicode="&#x14e;" horiz-adv-x="648" 
d="M324 -12c-156 0 -268 136 -268 344s112 340 268 340s268 -132 268 -340s-112 -344 -268 -344zM324 18c140 0 234 124 234 314s-94 310 -234 310s-234 -120 -234 -310s94 -314 234 -314zM324 712c-74 0 -106 60 -112 102h26c6 -36 32 -76 86 -76s80 40 86 76h26
c-6 -42 -38 -102 -112 -102z" />
    <glyph glyph-name="uni014F" unicode="&#x14f;" horiz-adv-x="532" 
d="M54 238c0 160 98 252 212 252s212 -92 212 -252c0 -158 -98 -250 -212 -250s-212 92 -212 250zM86 238c0 -132 78 -222 180 -222s180 90 180 222s-78 224 -180 224s-180 -92 -180 -224zM266 576c-80 0 -110 68 -116 116h26c6 -44 34 -90 90 -90s84 46 90 90h26
c-6 -48 -36 -116 -116 -116z" />
    <glyph glyph-name="Ohungarumlaut" unicode="&#x150;" horiz-adv-x="648" 
d="M324 -12c-156 0 -268 136 -268 344s112 340 268 340s268 -132 268 -340s-112 -344 -268 -344zM324 18c140 0 234 124 234 314s-94 310 -234 310s-234 -120 -234 -310s94 -314 234 -314zM266 710h-28l68 104h38zM378 710l68 104h38l-78 -104h-28z" />
    <glyph glyph-name="ohungarumlaut" unicode="&#x151;" horiz-adv-x="532" 
d="M54 238c0 160 98 252 212 252s212 -92 212 -252c0 -158 -98 -250 -212 -250s-212 92 -212 250zM86 238c0 -132 78 -222 180 -222s180 90 180 222s-78 224 -180 224s-180 -92 -180 -224zM190 570l72 136h36l-82 -136h-26zM318 570l72 136h36l-82 -136h-26z" />
    <glyph glyph-name="OE" unicode="&#x152;" horiz-adv-x="828" 
d="M56 332c0 196 100 328 310 328h406v-28h-302v-266h250v-28h-250v-310h312v-28h-416c-210 0 -310 136 -310 332zM90 332c0 -174 86 -304 280 -304h68v604h-68c-194 0 -280 -126 -280 -300z" />
    <glyph glyph-name="oe" unicode="&#x153;" horiz-adv-x="852" 
d="M86 238c0 -132 76 -222 176 -222c102 0 176 90 176 222s-74 224 -176 224c-100 0 -176 -92 -176 -224zM54 238c0 160 98 252 208 252c78 0 156 -50 190 -150c34 92 102 150 182 150c110 0 180 -78 180 -220c0 -10 0 -20 -2 -32h-344c-2 -128 78 -222 180 -222
c54 0 96 18 132 44l14 -26c-36 -22 -76 -46 -148 -46c-88 0 -160 58 -194 148c-36 -98 -104 -148 -190 -148c-110 0 -208 92 -208 250zM468 264h316c0 132 -60 198 -150 198c-84 0 -156 -82 -166 -198z" />
    <glyph glyph-name="Racute" unicode="&#x154;" horiz-adv-x="552" 
d="M387 814l-108 -104h-30l94 104h44zM132 340h138c122 0 190 48 190 150c0 104 -68 142 -190 142h-138v-292zM504 0h-38l-186 312h-148v-312h-32v660h182c130 0 212 -48 212 -170c0 -105 -68 -166 -178 -176z" />
    <glyph glyph-name="racute" unicode="&#x155;" horiz-adv-x="306" 
d="M96 0v478h26l4 -90h2c32 58 78 102 136 102c16 0 30 -2 46 -10l-8 -28c-16 6 -24 8 -42 8c-44 0 -96 -34 -134 -128v-332h-30zM274 706l-104 -134h-28l92 134h40z" />
    <glyph glyph-name="uni0156" unicode="&#x156;" horiz-adv-x="552" 
d="M261 -78l10 26c50 -12 78 -32 78 -72c0 -50 -58 -74 -118 -82l-6 26c56 8 94 24 94 52c0 32 -30 44 -58 50zM132 340h138c122 0 190 48 190 150c0 104 -68 142 -190 142h-138v-292zM316 314l188 -314h-38l-186 312h-148v-312h-32v660h182c130 0 212 -48 212 -170
c0 -105 -68 -166 -178 -176z" />
    <glyph glyph-name="uni0157" unicode="&#x157;" horiz-adv-x="306" 
d="M96 0v478h26l4 -90h2c32 58 78 102 136 102c16 0 30 -2 46 -10l-8 -28c-16 6 -24 8 -42 8c-44 0 -96 -34 -134 -128v-332h-30zM84 -52c50 -12 78 -32 78 -72c0 -50 -58 -74 -118 -82l-6 26c56 8 94 24 94 52c0 32 -30 44 -58 50z" />
    <glyph glyph-name="Rcaron" unicode="&#x158;" horiz-adv-x="552" 
d="M295 710h-28l-96 104h30l78 -74h4l78 74h30zM132 340h138c122 0 190 48 190 150c0 104 -68 142 -190 142h-138v-292zM504 0h-38l-186 312h-148v-312h-32v660h182c130 0 212 -48 212 -170c0 -105 -68 -166 -178 -176z" />
    <glyph glyph-name="rcaron" unicode="&#x159;" horiz-adv-x="306" 
d="M96 0v478h26l4 -90h2c32 58 78 102 136 102c16 0 30 -2 46 -10l-8 -28c-16 6 -24 8 -42 8c-44 0 -96 -34 -134 -128v-332h-30zM180 572l-94 134h28l78 -102h4l78 102h28l-94 -134h-28z" />
    <glyph glyph-name="Sacute" unicode="&#x15a;" horiz-adv-x="516" 
d="M48 88l22 22c48 -56 118 -92 198 -92c106 0 174 58 174 142c0 88 -56 116 -122 146l-102 46c-56 25 -134 64 -134 162c0 94 80 158 186 158c80 0 142 -37 180 -78l-20 -22c-38 42 -92 70 -160 70c-92 0 -154 -50 -154 -126c0 -82 69 -113 116 -134l102 -46
c73 -33 140 -72 140 -174c0 -100 -82 -174 -206 -174c-98 0 -170 42 -220 100zM375 814l-108 -104h-30l94 104h44z" />
    <glyph glyph-name="sacute" unicode="&#x15b;" horiz-adv-x="400" 
d="M34 54l20 24c40 -34 84 -62 156 -62c80 0 122 48 122 102c0 64 -64 92 -120 112c-74 26 -156 54 -156 136c0 66 52 124 150 124c48 0 98 -20 132 -48l-18 -24c-32 24 -66 44 -116 44c-80 0 -116 -47 -116 -94c0 -58 58 -80 116 -102c76 -29 160 -52 160 -146
c0 -70 -56 -132 -156 -132c-72 0 -132 30 -174 66zM287 706l-104 -134h-28l92 134h40z" />
    <glyph glyph-name="Scircumflex" unicode="&#x15c;" horiz-adv-x="516" 
d="M48 88l22 22c48 -56 118 -92 198 -92c106 0 174 58 174 142c0 88 -56 116 -122 146l-102 46c-56 25 -134 64 -134 162c0 94 80 158 186 158c80 0 142 -37 180 -78l-20 -22c-38 42 -92 70 -160 70c-92 0 -154 -50 -154 -126c0 -82 69 -113 116 -134l102 -46
c73 -33 140 -72 140 -174c0 -100 -82 -174 -206 -174c-98 0 -170 42 -220 100zM189 710h-30l96 104h28l96 -104h-30l-78 74h-4z" />
    <glyph glyph-name="scircumflex" unicode="&#x15d;" horiz-adv-x="400" 
d="M34 54l20 24c40 -34 84 -62 156 -62c80 0 122 48 122 102c0 64 -64 92 -120 112c-74 26 -156 54 -156 136c0 66 52 124 150 124c48 0 98 -20 132 -48l-18 -24c-32 24 -66 44 -116 44c-80 0 -116 -47 -116 -94c0 -58 58 -80 116 -102c76 -29 160 -52 160 -146
c0 -70 -56 -132 -156 -132c-72 0 -132 30 -174 66zM99 572l94 134h28l94 -134h-28l-78 102h-4l-78 -102h-28z" />
    <glyph glyph-name="uni015E" unicode="&#x15e;" horiz-adv-x="516" 
d="M232 382l102 -46c73 -33 140 -72 140 -174c0 -96 -75 -167 -190 -174l-23 -44c32 -10 60 -28 60 -68c0 -50 -58 -74 -118 -82l-6 26c56 8 94 24 94 52c0 32 -30 44 -68 54l33 62c-92 4 -160 44 -208 100l22 22c48 -56 118 -92 198 -92c106 0 174 58 174 142
c0 88 -56 116 -122 146l-102 46c-56 25 -134 64 -134 162c0 94 80 158 186 158c80 0 142 -37 180 -78l-20 -22c-38 42 -92 70 -160 70c-92 0 -154 -50 -154 -126c0 -82 69 -113 116 -134z" />
    <glyph glyph-name="uni015F" unicode="&#x15f;" horiz-adv-x="400" 
d="M338 442l-18 -24c-32 24 -66 44 -116 44c-80 0 -116 -47 -116 -94c0 -58 58 -80 116 -102c76 -29 160 -52 160 -146c0 -65 -48 -123 -136 -131l-23 -45c32 -10 60 -28 60 -68c0 -50 -58 -74 -118 -82l-6 26c56 8 94 24 94 52c0 32 -30 44 -68 54l33 62
c-69 2 -126 31 -166 66l20 24c40 -34 84 -62 156 -62c80 0 122 48 122 102c0 64 -64 92 -120 112c-74 26 -156 54 -156 136c0 66 52 124 150 124c48 0 98 -20 132 -48z" />
    <glyph glyph-name="Scaron" unicode="&#x160;" horiz-adv-x="516" 
d="M48 88l22 22c48 -56 118 -92 198 -92c106 0 174 58 174 142c0 88 -56 116 -122 146l-102 46c-56 25 -134 64 -134 162c0 94 80 158 186 158c80 0 142 -37 180 -78l-20 -22c-38 42 -92 70 -160 70c-92 0 -154 -50 -154 -126c0 -82 69 -113 116 -134l102 -46
c73 -33 140 -72 140 -174c0 -100 -82 -174 -206 -174c-98 0 -170 42 -220 100zM349 814h30l-96 -104h-28l-96 104h30l78 -74h4z" />
    <glyph glyph-name="scaron" unicode="&#x161;" horiz-adv-x="400" 
d="M34 54l20 24c40 -34 84 -62 156 -62c80 0 122 48 122 102c0 64 -64 92 -120 112c-74 26 -156 54 -156 136c0 66 52 124 150 124c48 0 98 -20 132 -48l-18 -24c-32 24 -66 44 -116 44c-80 0 -116 -47 -116 -94c0 -58 58 -80 116 -102c76 -29 160 -52 160 -146
c0 -70 -56 -132 -156 -132c-72 0 -132 30 -174 66zM193 572l-94 134h28l78 -102h4l78 102h28l-94 -134h-28z" />
    <glyph glyph-name="uni0162" unicode="&#x162;" horiz-adv-x="520" 
d="M276 0h-1l-29 -56c32 -10 60 -28 60 -68c0 -50 -58 -74 -118 -82l-6 26c56 8 94 24 94 52c0 32 -30 44 -68 54l39 74h-3v632h-214v28h460v-28h-214v-632z" />
    <glyph glyph-name="uni0163" unicode="&#x163;" horiz-adv-x="302" 
d="M214 -12l-23 -44c32 -10 60 -28 60 -68c0 -50 -58 -74 -118 -82l-6 26c56 8 94 24 94 52c0 32 -30 44 -68 54l34 65c-63 12 -81 64 -81 135v324h-76v24l76 4l4 140h26v-140h142v-28h-142v-328c0 -62 14 -106 84 -106c18 0 44 8 62 16l10 -26c-28 -10 -58 -18 -74 -18h-4z
" />
    <glyph glyph-name="Tcaron" unicode="&#x164;" horiz-adv-x="520" 
d="M244 0v632h-214v28h460v-28h-214v-632h-32zM339 814h30l-96 -104h-28l-96 104h30l78 -74h4z" />
    <glyph glyph-name="tcaron" unicode="&#x165;" horiz-adv-x="302" 
d="M106 126v324h-76v24l76 4l4 140h26v-140h142v-28h-142v-328c0 -62 14 -106 84 -106c18 0 44 8 62 16l10 -26c-28 -10 -58 -18 -74 -18c-88 0 -112 56 -112 138zM260 548h-22l-2 204h30v-48z" />
    <glyph glyph-name="Utilde" unicode="&#x168;" horiz-adv-x="630" 
d="M98 246v414h32v-406c0 -182 88 -236 184 -236c98 0 188 54 188 236v406h30v-414c0 -204 -112 -258 -218 -258s-216 54 -216 258zM373 718c-52 0 -76 58 -118 58c-22 0 -38 -24 -42 -58h-22c2 38 22 86 66 86c52 0 76 -58 118 -58c22 0 38 24 42 58h22
c-2 -38 -22 -86 -66 -86z" />
    <glyph glyph-name="utilde" unicode="&#x169;" horiz-adv-x="524" 
d="M88 170v308h30v-304c0 -106 34 -158 116 -158c60 0 104 32 164 104v358h30v-478h-26l-4 82h-2c-48 -56 -98 -94 -164 -94c-98 0 -144 58 -144 182zM144 582c2 36 17 82 64 82c48 0 75 -56 110 -56c22 0 34 22 38 56h24c-2 -35 -17 -82 -64 -82c-48 0 -73 56 -110 56
c-22 0 -34 -21 -38 -56h-24z" />
    <glyph glyph-name="Umacron" unicode="&#x16a;" horiz-adv-x="630" 
d="M98 246v414h32v-406c0 -182 88 -236 184 -236c98 0 188 54 188 236v406h30v-414c0 -204 -112 -258 -218 -258s-216 54 -216 258zM205 736v28h220v-28h-220z" />
    <glyph glyph-name="umacron" unicode="&#x16b;" horiz-adv-x="524" 
d="M88 170v308h30v-304c0 -106 34 -158 116 -158c60 0 104 32 164 104v358h30v-478h-26l-4 82h-2c-48 -56 -98 -94 -164 -94c-98 0 -144 58 -144 182zM147 608v28h220v-28h-220z" />
    <glyph glyph-name="Ubreve" unicode="&#x16c;" horiz-adv-x="630" 
d="M98 246v414h32v-406c0 -182 88 -236 184 -236c98 0 188 54 188 236v406h30v-414c0 -204 -112 -258 -218 -258s-216 54 -216 258zM315 712c-74 0 -106 60 -112 102h26c6 -36 32 -76 86 -76s80 40 86 76h26c-6 -42 -38 -102 -112 -102z" />
    <glyph glyph-name="ubreve" unicode="&#x16d;" horiz-adv-x="524" 
d="M88 170v308h30v-304c0 -106 34 -158 116 -158c60 0 104 32 164 104v358h30v-478h-26l-4 82h-2c-48 -56 -98 -94 -164 -94c-98 0 -144 58 -144 182zM262 576c-80 0 -110 68 -116 116h26c6 -44 34 -90 90 -90s84 46 90 90h26c-6 -48 -36 -116 -116 -116z" />
    <glyph glyph-name="Uring" unicode="&#x16e;" horiz-adv-x="630" 
d="M98 246v414h32v-406c0 -182 88 -236 184 -236c98 0 188 54 188 236v406h30v-414c0 -204 -112 -258 -218 -258s-216 54 -216 258zM315 700c-44 0 -78 32 -78 80s34 80 78 80c42 0 78 -32 78 -80s-36 -80 -78 -80zM315 722c28 0 52 20 52 58c0 36 -24 58 -52 58
c-30 0 -54 -22 -54 -58c0 -38 24 -58 54 -58z" />
    <glyph glyph-name="uring" unicode="&#x16f;" horiz-adv-x="524" 
d="M88 170v308h30v-304c0 -106 34 -158 116 -158c60 0 104 32 164 104v358h30v-478h-26l-4 82h-2c-48 -56 -98 -94 -164 -94c-98 0 -144 58 -144 182zM262 538c-44 0 -78 34 -78 84s34 84 78 84s78 -34 78 -84s-34 -84 -78 -84zM262 560c30 0 54 24 54 62s-24 62 -54 62
s-54 -24 -54 -62s24 -62 54 -62z" />
    <glyph glyph-name="Uhungarumlaut" unicode="&#x170;" horiz-adv-x="630" 
d="M98 246v414h32v-406c0 -182 88 -236 184 -236c98 0 188 54 188 236v406h30v-414c0 -204 -112 -258 -218 -258s-216 54 -216 258zM257 710h-28l68 104h38zM369 710l68 104h38l-78 -104h-28z" />
    <glyph glyph-name="uhungarumlaut" unicode="&#x171;" horiz-adv-x="524" 
d="M88 170v308h30v-304c0 -106 34 -158 116 -158c60 0 104 32 164 104v358h30v-478h-26l-4 82h-2c-48 -56 -98 -94 -164 -94c-98 0 -144 58 -144 182zM186 570l72 136h36l-82 -136h-26zM314 570l72 136h36l-82 -136h-26z" />
    <glyph glyph-name="Uogonek" unicode="&#x172;" horiz-adv-x="630" 
d="M98 246v414h32v-406c0 -182 88 -236 184 -236c98 0 188 54 188 236v406h30v-414c0 -170 -76 -216 -152 -254c-54 -28 -86 -76 -86 -112s26 -54 52 -54c18 0 30 4 44 14l14 -20c-14 -12 -40 -22 -60 -22c-44 0 -80 26 -80 80c0 50 32 78 64 110c-126 -2 -230 58 -230 258z
" />
    <glyph glyph-name="uogonek" unicode="&#x173;" horiz-adv-x="524" 
d="M88 170v308h30v-304c0 -106 33 -158 116 -158c60 0 104 32 164 104v358h30v-478c-54 -36 -86 -76 -86 -120c0 -36 24 -54 50 -54c18 0 30 4 44 14l14 -20c-14 -12 -40 -22 -60 -22c-44 0 -78 26 -78 80c0 50 34 90 90 130l-4 74h-2c-48 -56 -98 -94 -164 -94
c-98 0 -144 58 -144 182z" />
    <glyph glyph-name="Wcircumflex" unicode="&#x174;" horiz-adv-x="764" 
d="M184 0l-154 660h34l88 -400l48 -216h4c16 72 34 144 52 216l108 400h36l108 -400l54 -216h4c16 72 30 144 46 216l88 400h32l-152 -660h-32l-128 474c-12 52 -24 96 -36 148h-4c-12 -52 -26 -96 -38 -148l-126 -474h-32zM302 710h-30l96 104h28l96 -104h-30l-78 74h-4z
" />
    <glyph glyph-name="wcircumflex" unicode="&#x175;" horiz-adv-x="672" 
d="M168 0l-144 478h34l92 -322c12 -44 24 -84 34 -126h4c12 42 24 82 36 126l92 322h42l92 -322c12 -44 24 -84 36 -126h4c12 42 24 82 36 126l90 322h32l-140 -478h-42l-90 312c-14 46 -24 90 -38 136h-4c-12 -46 -24 -92 -40 -138l-88 -310h-38zM229 572l94 134h28
l94 -134h-28l-78 102h-4l-78 -102h-28z" />
    <glyph glyph-name="Ycircumflex" unicode="&#x176;" horiz-adv-x="436" 
d="M202 0v272l-198 388h34l106 -214c24 -48 46 -94 72 -142h4c26 48 52 94 74 142l106 214h32l-198 -388v-272h-32zM138 710h-30l96 104h28l96 -104h-30l-78 74h-4z" />
    <glyph glyph-name="ycircumflex" unicode="&#x177;" horiz-adv-x="424" 
d="M28 -184c10 -4 26 -8 40 -8c60 0 102 58 128 136l14 44l-198 490h34l122 -314c16 -40 36 -92 54 -134h4c16 42 32 94 46 134l108 314h32l-192 -546c-24 -74 -72 -154 -154 -154c-16 0 -34 4 -46 10zM116 572l94 134h28l94 -134h-28l-78 102h-4l-78 -102h-28z" />
    <glyph glyph-name="Ydieresis" unicode="&#x178;" horiz-adv-x="436" 
d="M202 0v272l-198 388h34l106 -214c24 -48 46 -94 72 -142h4c26 48 52 94 74 142l106 214h32l-198 -388v-272h-32zM142 728c-18 0 -32 12 -32 32s14 32 32 32s32 -12 32 -32s-14 -32 -32 -32zM294 728c-18 0 -32 12 -32 32s14 32 32 32s32 -12 32 -32s-14 -32 -32 -32z" />
    <glyph glyph-name="Zacute" unicode="&#x179;" horiz-adv-x="538" 
d="M52 0v18l392 614h-358v28h398v-18l-392 -614h396v-28h-436zM385 814l-108 -104h-30l94 104h44z" />
    <glyph glyph-name="zacute" unicode="&#x17a;" horiz-adv-x="396" 
d="M26 0v16l294 434h-262v28h302v-16l-294 -434h304v-28h-344zM295 706l-104 -134h-28l92 134h40z" />
    <glyph glyph-name="Zdotaccent" unicode="&#x17b;" horiz-adv-x="538" 
d="M52 0v18l392 614h-358v28h398v-18l-392 -614h396v-28h-436zM279 724c-18 0 -34 14 -34 36c0 20 16 34 34 34s34 -14 34 -34c0 -22 -16 -36 -34 -36z" />
    <glyph glyph-name="zdotaccent" unicode="&#x17c;" horiz-adv-x="396" 
d="M26 0v16l294 434h-262v28h302v-16l-294 -434h304v-28h-344zM215 600c-18 0 -32 14 -32 36c0 20 14 34 32 34s32 -14 32 -34c0 -22 -14 -36 -32 -36z" />
    <glyph glyph-name="Zcaron" unicode="&#x17d;" horiz-adv-x="538" 
d="M52 0v18l392 614h-358v28h398v-18l-392 -614h396v-28h-436zM359 814h30l-96 -104h-28l-96 104h30l78 -74h4z" />
    <glyph glyph-name="zcaron" unicode="&#x17e;" horiz-adv-x="396" 
d="M26 0v16l294 434h-262v28h302v-16l-294 -434h304v-28h-344zM201 572l-94 134h28l78 -102h4l78 102h28l-94 -134h-28z" />
    <glyph glyph-name="uni0180" unicode="&#x180;" horiz-adv-x="522" 
d="M126 358v-276c56 -48 112 -66 150 -66c104 0 178 92 178 220c0 116 -44 206 -162 206c-50 0 -106 -30 -166 -84zM126 488l-2 -96c50 42 110 78 170 78c130 0 192 -92 192 -234c0 -156 -98 -248 -212 -248c-46 0 -100 22 -146 56h-2l-4 -44h-26v584h-78v24l78 4v110h30
v-110h192v-28h-192v-96z" />
    <glyph glyph-name="uni018F" unicode="&#x18f;" horiz-adv-x="644" 
d="M555 304h-459c8 -174 96 -288 224 -288c135 0 226 115 235 288zM152 576l-18 22c42 42 110 74 190 74c166 0 264 -132 264 -340s-110 -344 -268 -344s-256 144 -256 338v6h492c0 188 -84 312 -230 312c-68 0 -132 -26 -174 -68z" />
    <glyph glyph-name="uni0192" unicode="&#x192;" horiz-adv-x="472" 
d="M436 654l-10 -26c-16 7 -35 16 -64 16c-72 0 -97 -86 -106 -172l-7 -68h143v-28h-146l-30 -276c-13 -124 -54 -198 -146 -198c-24 0 -44 6 -62 16l12 24c16 -8 34 -12 54 -12c74 0 102 76 112 168l30 278h-98v24l66 4h35l7 66c13 122 52 202 138 202c34 0 54 -10 72 -18z
" />
    <glyph glyph-name="Ohorn" unicode="&#x1a0;" horiz-adv-x="648" 
d="M328 18c140 0 234 124 234 314s-94 310 -234 310s-234 -120 -234 -310s94 -314 234 -314zM536 748l26 16c12 -18 18 -34 18 -52c0 -51 -37 -80 -97 -94c70 -57 113 -157 113 -286c0 -208 -112 -344 -268 -344s-268 136 -268 344s112 340 268 340c45 0 86 -11 123 -32
c68 9 99 32 99 70c0 12 -4 24 -14 38z" />
    <glyph glyph-name="ohorn" unicode="&#x1a1;" horiz-adv-x="532" 
d="M266 16c102 0 180 90 180 222s-78 224 -180 224s-180 -92 -180 -224s78 -222 180 -222zM434 576l26 16c12 -18 18 -34 18 -52c0 -57 -45 -80 -89 -92c54 -42 89 -114 89 -210c0 -158 -98 -250 -212 -250s-212 92 -212 250c0 160 98 252 212 252c33 0 64 -8 92 -22
c60 9 90 31 90 70c0 12 -4 24 -14 38z" />
    <glyph glyph-name="Uhorn" unicode="&#x1af;" horiz-adv-x="640" 
d="M586 768l26 16c12 -18 18 -34 18 -52c0 -60 -48 -82 -98 -94v-392c0 -204 -112 -258 -218 -258s-216 54 -216 258v414h32v-406c0 -182 88 -236 184 -236c98 0 188 54 188 236v406h2c68 8 96 30 96 70c0 12 -4 24 -14 38z" />
    <glyph glyph-name="uhorn" unicode="&#x1b0;" horiz-adv-x="524" 
d="M472 586l26 16c12 -18 18 -34 18 -52c0 -60 -50 -82 -88 -92v-458h-26l-4 82h-2c-48 -56 -98 -94 -164 -94c-98 0 -144 58 -144 182v308h30v-304c0 -106 34 -158 116 -158c60 0 104 32 164 104v358h2c54 8 86 30 86 70c0 12 -4 24 -14 38z" />
    <glyph glyph-name="uni01CD" unicode="&#x1cd;" horiz-adv-x="520" 
d="M274 710h-28l-96 104h30l78 -74h4l78 74h30zM135 264h249l-46 132c-28 80 -52 148 -76 230h-4c-24 -82 -48 -150 -76 -230zM476 0l-82 236h-269l-83 -236h-32l236 660h28l236 -660h-34z" />
    <glyph glyph-name="uni01CE" unicode="&#x1ce;" horiz-adv-x="494" 
d="M68 117c0 107 98 157 314 181c2 78 -18 164 -118 164c-68 0 -126 -34 -156 -58l-16 24c30 22 96 62 174 62c112 0 146 -84 146 -180v-310h-26l-4 64h-2c-50 -40 -110 -76 -174 -76c-74 0 -138 38 -138 129zM100 118c0 -74 50 -102 108 -102s110 28 174 82v174
c-210 -24 -282 -72 -282 -154zM246 572l-94 134h28l78 -102h4l78 102h28l-94 -134h-28z" />
    <glyph glyph-name="uni01CF" unicode="&#x1cf;" horiz-adv-x="232" 
d="M100 0v660h32v-660h-32zM196 814h30l-96 -104h-28l-96 104h30l78 -74h4z" />
    <glyph glyph-name="uni01D0" unicode="&#x1d0;" horiz-adv-x="222" 
d="M96 0v478h30v-478h-30zM97 572l-94 134h28l78 -102h4l78 102h28l-94 -134h-28z" />
    <glyph glyph-name="uni01D1" unicode="&#x1d1;" horiz-adv-x="648" 
d="M324 -12c-156 0 -268 136 -268 344s112 340 268 340s268 -132 268 -340s-112 -344 -268 -344zM324 18c140 0 234 124 234 314s-94 310 -234 310s-234 -120 -234 -310s94 -314 234 -314zM404 814h30l-96 -104h-28l-96 104h30l78 -74h4z" />
    <glyph glyph-name="uni01D2" unicode="&#x1d2;" horiz-adv-x="532" 
d="M54 238c0 160 98 252 212 252s212 -92 212 -252c0 -158 -98 -250 -212 -250s-212 92 -212 250zM86 238c0 -132 78 -222 180 -222s180 90 180 222s-78 224 -180 224s-180 -92 -180 -224zM252 572l-94 134h28l78 -102h4l78 102h28l-94 -134h-28z" />
    <glyph glyph-name="uni01D3" unicode="&#x1d3;" horiz-adv-x="630" 
d="M98 246v414h32v-406c0 -182 88 -236 184 -236c98 0 188 54 188 236v406h30v-414c0 -204 -112 -258 -218 -258s-216 54 -216 258zM395 814h30l-96 -104h-28l-96 104h30l78 -74h4z" />
    <glyph glyph-name="uni01D4" unicode="&#x1d4;" horiz-adv-x="524" 
d="M88 170v308h30v-304c0 -106 34 -158 116 -158c60 0 104 32 164 104v358h30v-478h-26l-4 82h-2c-48 -56 -98 -94 -164 -94c-98 0 -144 58 -144 182zM248 572l-94 134h28l78 -102h4l78 102h28l-94 -134h-28z" />
    <glyph glyph-name="uni01D5" unicode="&#x1d5;" horiz-adv-x="630" 
d="M98 246v414h32v-406c0 -182 88 -236 184 -236c98 0 188 54 188 236v406h30v-414c0 -204 -112 -258 -218 -258s-216 54 -216 258zM205 852v28h220v-28h-220zM239 728c-18 0 -32 12 -32 32s14 32 32 32s32 -12 32 -32s-14 -32 -32 -32zM391 728c-18 0 -32 12 -32 32
s14 32 32 32s32 -12 32 -32s-14 -32 -32 -32z" />
    <glyph glyph-name="uni01D6" unicode="&#x1d6;" horiz-adv-x="524" 
d="M88 170v308h30v-304c0 -106 34 -158 116 -158c60 0 104 32 164 104v358h30v-478h-26l-4 82h-2c-48 -56 -98 -94 -164 -94c-98 0 -144 58 -144 182zM186 602c-18 0 -32 14 -32 32s14 32 32 32s32 -14 32 -32s-14 -32 -32 -32zM338 602c-18 0 -32 14 -32 32s14 32 32 32
s32 -14 32 -32s-14 -32 -32 -32zM150 746v28h222v-28h-222z" />
    <glyph glyph-name="uni01D7" unicode="&#x1d7;" horiz-adv-x="630" 
d="M98 246v414h32v-406c0 -182 88 -236 184 -236c98 0 188 54 188 236v406h30v-414c0 -204 -112 -258 -218 -258s-216 54 -216 258zM283 826l96 104h40l-108 -104h-28zM239 728c-18 0 -32 12 -32 32s14 32 32 32s32 -12 32 -32s-14 -32 -32 -32zM391 728
c-18 0 -32 12 -32 32s14 32 32 32s32 -12 32 -32s-14 -32 -32 -32z" />
    <glyph glyph-name="uni01D8" unicode="&#x1d8;" horiz-adv-x="524" 
d="M88 170v308h30v-304c0 -106 34 -158 116 -158c60 0 104 32 164 104v358h30v-478h-26l-4 82h-2c-48 -56 -98 -94 -164 -94c-98 0 -144 58 -144 182zM222 706l80 96h42l-94 -96h-28zM186 602c-18 0 -32 14 -32 32s14 32 32 32s32 -14 32 -32s-14 -32 -32 -32zM338 602
c-18 0 -32 14 -32 32s14 32 32 32s32 -14 32 -32s-14 -32 -32 -32z" />
    <glyph glyph-name="uni01D9" unicode="&#x1d9;" horiz-adv-x="630" 
d="M98 246v414h32v-406c0 -182 88 -236 184 -236c98 0 188 54 188 236v406h30v-414c0 -204 -112 -258 -218 -258s-216 54 -216 258zM239 728c-18 0 -32 12 -32 32s14 32 32 32s32 -12 32 -32s-14 -32 -32 -32zM391 728c-18 0 -32 12 -32 32s14 32 32 32s32 -12 32 -32
s-14 -32 -32 -32zM395 930h30l-96 -104h-28l-96 104h30l78 -74h4z" />
    <glyph glyph-name="uni01DA" unicode="&#x1da;" horiz-adv-x="524" 
d="M88 170v308h30v-304c0 -106 34 -158 116 -158c60 0 104 32 164 104v358h30v-478h-26l-4 82h-2c-48 -56 -98 -94 -164 -94c-98 0 -144 58 -144 182zM248 706l-94 96h30l76 -68h4l76 68h30l-94 -96h-28zM186 602c-18 0 -32 14 -32 32s14 32 32 32s32 -14 32 -32
s-14 -32 -32 -32zM338 602c-18 0 -32 14 -32 32s14 32 32 32s32 -14 32 -32s-14 -32 -32 -32z" />
    <glyph glyph-name="uni01DB" unicode="&#x1db;" horiz-adv-x="630" 
d="M98 246v414h32v-406c0 -182 88 -236 184 -236c98 0 188 54 188 236v406h30v-414c0 -204 -112 -258 -218 -258s-216 54 -216 258zM251 930l96 -104h-28l-108 104h40zM391 728c-18 0 -32 12 -32 32s14 32 32 32s32 -12 32 -32s-14 -32 -32 -32zM239 728
c-18 0 -32 12 -32 32s14 32 32 32s32 -12 32 -32s-14 -32 -32 -32z" />
    <glyph glyph-name="uni01DC" unicode="&#x1dc;" horiz-adv-x="524" 
d="M88 170v308h30v-304c0 -106 34 -158 116 -158c60 0 104 32 164 104v358h30v-478h-26l-4 82h-2c-48 -56 -98 -94 -164 -94c-98 0 -144 58 -144 182zM222 802l80 -96h-28l-94 96h42zM338 602c-18 0 -32 14 -32 32s14 32 32 32s32 -14 32 -32s-14 -32 -32 -32zM186 602
c-18 0 -32 14 -32 32s14 32 32 32s32 -14 32 -32s-14 -32 -32 -32z" />
    <glyph glyph-name="Gcaron" unicode="&#x1e6;" horiz-adv-x="600" 
d="M56 332c0 208 114 340 288 340c88 0 142 -42 176 -78l-20 -22c-34 38 -82 70 -156 70c-158 0 -254 -120 -254 -310s92 -314 246 -314c64 0 124 20 158 54v218h-164v28h196v-256c-40 -44 -106 -74 -192 -74c-168 0 -278 136 -278 344zM423 814h30l-96 -104h-28l-96 104h30
l78 -74h4z" />
    <glyph glyph-name="gcaron" unicode="&#x1e7;" horiz-adv-x="480" 
d="M86 -98c0 -64 60 -108 166 -108c114 0 186 66 186 130c0 56 -40 78 -116 78h-110c-6 0 -32 2 -58 8c-48 -32 -68 -72 -68 -108zM54 -100c0 42 28 86 72 118v4c-24 14 -42 40 -42 76c0 44 32 74 52 88v4c-30 26 -60 74 -60 132c0 96 72 168 164 168c26 0 48 -6 62 -12h160
v-28h-116c34 -28 58 -74 58 -128c0 -96 -72 -170 -164 -170c-28 0 -60 8 -82 22c-22 -18 -42 -40 -42 -74c0 -36 20 -66 94 -66h106c106 0 154 -34 154 -108c0 -80 -86 -160 -220 -160c-122 0 -196 54 -196 134zM240 180c70 0 132 58 132 142c0 85 -60 140 -132 140
s-132 -54 -132 -140c0 -84 62 -142 132 -142zM216 572l-94 134h28l78 -102h4l78 102h28l-94 -134h-28z" />
    <glyph glyph-name="uni01EA" unicode="&#x1ea;" horiz-adv-x="648" 
d="M276 -122c0 38 20 78 60 110c-172 -2 -280 136 -280 344s112 340 268 340s268 -132 268 -340c0 -174 -70 -280 -202 -340c-58 -26 -84 -74 -84 -112c0 -36 26 -54 52 -54c18 0 30 4 44 14l14 -20c-14 -12 -40 -22 -60 -22c-44 0 -80 26 -80 80zM324 18
c140 0 234 124 234 314s-94 310 -234 310s-234 -120 -234 -310s94 -314 234 -314z" />
    <glyph glyph-name="uni01EB" unicode="&#x1eb;" horiz-adv-x="532" 
d="M216 -122c0 50 34 92 56 110c-120 0 -218 92 -218 250c0 160 98 252 212 252s212 -92 212 -252c0 -138 -64 -204 -156 -246c-44 -20 -76 -68 -76 -112c0 -36 24 -54 50 -54c18 0 30 4 44 14l14 -20c-14 -12 -40 -22 -60 -22c-44 0 -78 26 -78 80zM86 238
c0 -132 78 -222 180 -222s180 90 180 222s-78 224 -180 224s-180 -92 -180 -224z" />
    <glyph glyph-name="uni0218" unicode="&#x218;" horiz-adv-x="516" 
d="M48 88l22 22c48 -56 118 -92 198 -92c106 0 174 58 174 142c0 88 -56 116 -122 146l-102 46c-56 25 -134 64 -134 162c0 94 80 158 186 158c80 0 142 -37 180 -78l-20 -22c-38 42 -92 70 -160 70c-92 0 -154 -50 -154 -126c0 -82 69 -113 116 -134l102 -46
c73 -33 140 -72 140 -174c0 -100 -82 -174 -206 -174c-98 0 -170 42 -220 100zM243 -52c50 -12 78 -32 78 -72c0 -50 -58 -74 -118 -82l-6 26c56 8 94 24 94 52c0 32 -30 44 -58 50z" />
    <glyph glyph-name="uni0219" unicode="&#x219;" horiz-adv-x="400" 
d="M34 54l20 24c40 -34 84 -62 156 -62c80 0 122 48 122 102c0 64 -64 92 -120 112c-74 26 -156 54 -156 136c0 66 52 124 150 124c48 0 98 -20 132 -48l-18 -24c-32 24 -66 44 -116 44c-80 0 -116 -47 -116 -94c0 -58 58 -80 116 -102c76 -29 160 -52 160 -146
c0 -70 -56 -132 -156 -132c-72 0 -132 30 -174 66zM191 -52c50 -12 78 -32 78 -72c0 -50 -58 -74 -118 -82l-6 26c56 8 94 24 94 52c0 32 -30 44 -58 50z" />
    <glyph glyph-name="uni021A" unicode="&#x21a;" horiz-adv-x="520" 
d="M244 0v632h-214v28h460v-28h-214v-632h-32zM237 -52c50 -12 78 -32 78 -72c0 -50 -58 -74 -118 -82l-6 26c56 8 94 24 94 52c0 32 -30 44 -58 50z" />
    <glyph glyph-name="uni021B" unicode="&#x21b;" horiz-adv-x="302" 
d="M106 126v324h-76v24l76 4l4 140h26v-140h142v-28h-142v-328c0 -62 14 -106 84 -106c18 0 44 8 62 16l10 -26c-28 -10 -58 -18 -74 -18c-88 0 -112 56 -112 138zM171 -52c50 -12 78 -32 78 -72c0 -50 -58 -74 -118 -82l-6 26c56 8 94 24 94 52c0 32 -30 44 -58 50z" />
    <glyph glyph-name="uni0237" unicode="&#x237;" horiz-adv-x="222" 
d="M96 -98v576h30v-580c0 -92 -32 -132 -98 -132c-20 0 -44 6 -58 12l8 26c12 -4 32 -10 52 -10c56 0 66 46 66 108z" />
    <glyph glyph-name="uni0243" unicode="&#x243;" horiz-adv-x="582" 
d="M144 28h140c138 0 224 50 224 162c0 100 -82 148 -224 148h-140v-132h172v-28h-172v-150zM144 632v-266h120c144 0 202 46 202 138c0 90 -68 128 -196 128h-126zM380 356v-4c98 -14 160 -68 160 -160c0 -126 -94 -192 -244 -192h-184v178h-78v26l78 2v454h172
c132 0 214 -52 214 -160c0 -70 -40 -124 -118 -144z" />
    <glyph glyph-name="uni0251" unicode="&#x251;" horiz-adv-x="540" 
d="M86 238c0 -132 60 -222 168 -222c56 0 106 30 160 84v296c-54 48 -98 66 -148 66c-102 0 -180 -100 -180 -224zM54 238c0 154 98 252 214 252c58 0 98 -22 144 -58h2l2 46h28v-478h-26l-4 64h-2c-40 -40 -94 -76 -160 -76c-120 0 -198 88 -198 250z" />
    <glyph glyph-name="uni0259" unicode="&#x259;" horiz-adv-x="478" 
d="M38 218c0 10 0 20 2 32h352c0 120 -62 212 -170 212c-58 0 -101 -20 -140 -48l-14 26c38 26 84 50 156 50c116 0 200 -90 200 -250c0 -156 -82 -252 -196 -252c-108 0 -190 78 -190 230zM68 224c0 -144 68 -208 160 -208c96 0 155 80 164 208h-324z" />
    <glyph glyph-name="uni0261" unicode="&#x261;" horiz-adv-x="540" 
d="M108 -156c48 -36 98 -51 150 -51c102 0 156 63 156 167v116c-40 -41 -96 -78 -162 -78c-120 0 -198 86 -198 246c0 152 98 246 214 246c58 0 98 -22 142 -56h2l4 44h28v-526c0 -112 -68 -186 -186 -186c-66 0 -120 20 -166 52zM254 26c56 0 106 30 160 84v286
c-54 48 -98 66 -148 66c-102 0 -180 -96 -180 -218c0 -130 60 -218 168 -218z" />
    <glyph glyph-name="h.sups" unicode="&#x2b0;" horiz-adv-x="352" 
d="M60 270v474h28v-136v-72c30 32 70 58 112 58c76 0 100 -50 100 -120v-204h-28v198c0 60 -14 100 -78 100c-30 0 -64 -18 -106 -60v-238h-28z" />
    <glyph glyph-name="j.sups" unicode="&#x2b2;" horiz-adv-x="152" 
d="M20 118c-16 0 -24 2 -40 8l8 26c10 -4 16 -6 30 -6c36 0 44 26 44 66v374h28v-370c0 -70 -24 -98 -70 -98zM78 662c-16 0 -28 12 -28 28s12 28 28 28s28 -12 28 -28s-12 -28 -28 -28z" />
    <glyph glyph-name="r.sups" unicode="&#x2b3;" horiz-adv-x="214" 
d="M60 270v316h22l6 -56h4c24 40 52 64 90 64c12 0 26 -2 34 -6l-8 -28c-6 2 -18 4 -28 4c-31 0 -64 -20 -90 -78v-216h-30z" />
    <glyph glyph-name="w.sups" unicode="&#x2b7;" horiz-adv-x="458" 
d="M110 270l-94 316h32l56 -204l24 -86h4l24 86l56 204h34l58 -204l24 -86h4l26 86l54 204h30l-94 -316h-38l-54 194l-26 92h-2l-24 -92l-56 -194h-38z" />
    <glyph glyph-name="y.sups" unicode="&#x2b8;" horiz-adv-x="292" 
d="M24 162c8 -4 17 -6 26 -6c38 0 66 34 82 84l8 25l-132 321h30l78 -196c10 -26 24 -60 36 -92h4c10 32 22 62 32 92l66 196h30l-124 -350c-18 -54 -52 -108 -110 -108c-12 0 -24 2 -34 6z" />
    <glyph glyph-name="uni02B9" unicode="&#x2b9;" horiz-adv-x="208" 
d="M82 498l24 196h28l-8 -64l-24 -132h-20z" />
    <glyph glyph-name="uni02BB" unicode="&#x2bb;" horiz-adv-x="208" 
d="M136 706l16 -18c-42 -36 -64 -67 -64 -123c2 1 5 1 8 1c16 0 34 -10 34 -32s-14 -34 -34 -34c-22 0 -38 20 -38 58c0 68 30 114 78 148z" />
    <glyph glyph-name="uni02BC" unicode="&#x2bc;" horiz-adv-x="208" 
d="M72 494l-16 18c42 36 64 67 64 123c-2 -1 -5 -1 -8 -1c-16 0 -34 10 -34 32s14 34 34 34c22 0 38 -20 38 -58c0 -68 -30 -114 -78 -148z" />
    <glyph glyph-name="uni02BE" unicode="&#x2be;" horiz-adv-x="138" 
d="M34 538v20c48 0 70 26 70 64s-22 64 -70 64v20c58 2 96 -30 96 -84s-38 -86 -96 -84z" />
    <glyph glyph-name="uni02BF" unicode="&#x2bf;" horiz-adv-x="158" 
d="M122 706v-20c-48 0 -70 -26 -70 -64s22 -64 70 -64v-20c-58 -2 -96 30 -96 84s38 86 96 84z" />
    <glyph glyph-name="circumflex" unicode="&#x2c6;" horiz-adv-x="532" 
d="M158 572l94 134h28l94 -134h-28l-78 102h-4l-78 -102h-28z" />
    <glyph glyph-name="caron" unicode="&#x2c7;" horiz-adv-x="532" 
d="M252 572l-94 134h28l78 -102h4l78 102h28l-94 -134h-28z" />
    <glyph glyph-name="uni02C8" unicode="&#x2c8;" horiz-adv-x="88" 
d="M34 528l-6 168h32l-6 -168h-20z" />
    <glyph glyph-name="uni02C9" unicode="&#x2c9;" horiz-adv-x="252" 
d="M16 608v28h220v-28h-220z" />
    <glyph glyph-name="uni02CA" unicode="&#x2ca;" horiz-adv-x="216" 
d="M186 706l-104 -134h-28l92 134h40z" />
    <glyph glyph-name="uni02CB" unicode="&#x2cb;" horiz-adv-x="216" 
d="M130 572l-104 134h40l92 -134h-28z" />
    <glyph glyph-name="uni02CC" unicode="&#x2cc;" horiz-adv-x="88" 
d="M34 -76h20l6 -168h-32z" />
    <glyph glyph-name="breve" unicode="&#x2d8;" horiz-adv-x="532" 
d="M266 576c-80 0 -110 68 -116 116h26c6 -44 34 -90 90 -90s84 46 90 90h26c-6 -48 -36 -116 -116 -116z" />
    <glyph glyph-name="dotaccent" unicode="&#x2d9;" horiz-adv-x="532" 
d="M266 600c-18 0 -32 14 -32 36c0 20 14 34 32 34s32 -14 32 -34c0 -22 -14 -36 -32 -36z" />
    <glyph glyph-name="ring" unicode="&#x2da;" horiz-adv-x="532" 
d="M266 538c-44 0 -78 34 -78 84s34 84 78 84s78 -34 78 -84s-34 -84 -78 -84zM266 560c30 0 54 24 54 62s-24 62 -54 62s-54 -24 -54 -62s24 -62 54 -62z" />
    <glyph glyph-name="ogonek" unicode="&#x2db;" horiz-adv-x="532" 
d="M216 -122c0 50 34 96 72 126h38c-48 -34 -80 -80 -80 -124c0 -36 24 -54 50 -54c18 0 30 4 44 14l14 -20c-14 -12 -40 -22 -60 -22c-44 0 -78 26 -78 80z" />
    <glyph glyph-name="tilde" unicode="&#x2dc;" horiz-adv-x="532" 
d="M148 582c2 36 17 82 64 82c48 0 75 -56 110 -56c22 0 34 22 38 56h24c-2 -35 -17 -82 -64 -82c-48 0 -73 56 -110 56c-22 0 -34 -21 -38 -56h-24z" />
    <glyph glyph-name="hungarumlaut" unicode="&#x2dd;" horiz-adv-x="532" 
d="M190 570l72 136h36l-82 -136h-26zM318 570l72 136h36l-82 -136h-26z" />
    <glyph glyph-name="l.sups" unicode="&#x2e1;" horiz-adv-x="158" 
d="M60 316v428h28v-434c0 -16 6 -22 16 -22c4 0 8 0 14 2l6 -24c-6 -2 -12 -4 -22 -4c-30 0 -42 18 -42 54z" />
    <glyph glyph-name="s.sups" unicode="&#x2e2;" horiz-adv-x="272" 
d="M22 306l18 22c28 -22 60 -40 104 -40c46 0 74 28 74 62c0 38 -40 54 -78 68c-48 18 -102 38 -102 94c0 40 34 82 98 82c40 0 72 -14 96 -32l-18 -22c-24 18 -42 28 -78 28c-46 0 -68 -28 -68 -54c0 -38 36 -50 76 -66c50 -20 104 -34 104 -94c0 -54 -44 -92 -104 -92
c-50 0 -92 20 -122 44z" />
    <glyph glyph-name="x.sups" unicode="&#x2e3;" horiz-adv-x="274" 
d="M8 270l112 166l-102 150h34l52 -78l34 -52h4l32 52l50 78h32l-100 -152l108 -164h-34l-54 84l-38 58h-4l-40 -58l-54 -84h-32z" />
    <glyph glyph-name="uni0300" unicode="&#x300;" 
d="M24 572l-104 134h40l92 -134h-28z" />
    <glyph glyph-name="uni0301" unicode="&#x301;" 
d="M80 706l-104 -134h-28l92 134h40z" />
    <glyph glyph-name="uni0302" unicode="&#x302;" 
d="M-108 572l94 134h28l94 -134h-28l-78 102h-4l-78 -102h-28z" />
    <glyph glyph-name="uni0303" unicode="&#x303;" 
d="M-118 582c2 36 17 82 64 82c48 0 75 -56 110 -56c22 0 34 22 38 56h24c-2 -35 -17 -82 -64 -82c-48 0 -73 56 -110 56c-22 0 -34 -21 -38 -56h-24z" />
    <glyph glyph-name="uni0304" unicode="&#x304;" 
d="M-110 608v28h220v-28h-220z" />
    <glyph glyph-name="uni0306" unicode="&#x306;" 
d="M0 576c-80 0 -110 68 -116 116h26c6 -44 34 -90 90 -90s84 46 90 90h26c-6 -48 -36 -116 -116 -116z" />
    <glyph glyph-name="uni0307" unicode="&#x307;" 
d="M0 600c-18 0 -32 14 -32 36c0 20 14 34 32 34s32 -14 32 -34c0 -22 -14 -36 -32 -36z" />
    <glyph glyph-name="uni0308" unicode="&#x308;" 
d="M-76 602c-18 0 -32 14 -32 32s14 32 32 32s32 -14 32 -32s-14 -32 -32 -32zM76 602c-18 0 -32 14 -32 32s14 32 32 32s32 -14 32 -32s-14 -32 -32 -32z" />
    <glyph glyph-name="uni0309" unicode="&#x309;" 
d="M-22 550l-8 22c38 12 66 28 66 58c0 32 -32 48 -86 50l2 26c58 -2 114 -22 114 -72s-44 -70 -88 -84z" />
    <glyph glyph-name="uni030A" unicode="&#x30a;" 
d="M0 538c-44 0 -78 34 -78 84s34 84 78 84s78 -34 78 -84s-34 -84 -78 -84zM0 560c30 0 54 24 54 62s-24 62 -54 62s-54 -24 -54 -62s24 -62 54 -62z" />
    <glyph glyph-name="uni030B" unicode="&#x30b;" 
d="M-76 570l72 136h36l-82 -136h-26zM52 570l72 136h36l-82 -136h-26z" />
    <glyph glyph-name="uni030C" unicode="&#x30c;" 
d="M-14 572l-94 134h28l78 -102h4l78 102h28l-94 -134h-28z" />
    <glyph glyph-name="uni030F" unicode="&#x30f;" 
d="M4 706l72 -136h-26l-82 136h36zM-124 706l72 -136h-26l-82 136h36z" />
    <glyph glyph-name="uni0312" unicode="&#x312;" 
d="M26 712l14 -22c-38 -22 -52 -49 -52 -81c2 1 5 1 8 1c14 0 32 -8 32 -30c0 -24 -14 -34 -30 -34c-24 0 -38 20 -38 58c0 40 18 82 66 108z" />
    <glyph glyph-name="uni0313" unicode="&#x313;" 
d="M-26 546l-14 22c38 22 52 49 52 81c-2 -1 -5 -1 -8 -1c-14 0 -32 8 -32 30c0 24 14 34 30 34c24 0 38 -20 38 -58c0 -40 -18 -82 -66 -108z" />
    <glyph glyph-name="uni031B" unicode="&#x31b;" 
d="M-2 440l-6 26c68 8 98 30 98 70c0 12 -4 24 -14 38l26 16c12 -18 18 -34 18 -52c0 -60 -50 -88 -122 -98z" />
    <glyph glyph-name="uni0323" unicode="&#x323;" 
d="M0 -190c-18 0 -32 14 -32 36c0 20 14 34 32 34s32 -14 32 -34c0 -22 -14 -36 -32 -36z" />
    <glyph glyph-name="uni0324" unicode="&#x324;" 
d="M-76 -188c-18 0 -32 14 -32 32s14 32 32 32s32 -14 32 -32s-14 -32 -32 -32zM76 -188c-18 0 -32 14 -32 32s14 32 32 32s32 -14 32 -32s-14 -32 -32 -32z" />
    <glyph glyph-name="uni0326" unicode="&#x326;" 
d="M-24 -52c50 -12 78 -32 78 -72c0 -50 -58 -74 -118 -82l-6 26c56 8 94 24 94 52c0 32 -30 44 -58 50z" />
    <glyph glyph-name="uni0327" unicode="&#x327;" 
d="M-44 -74l40 76h28l-30 -58c32 -10 60 -28 60 -68c0 -50 -58 -74 -118 -82l-6 26c56 8 94 24 94 52c0 32 -30 44 -68 54z" />
    <glyph glyph-name="uni0328" unicode="&#x328;" 
d="M-50 -122c0 50 34 96 72 126h38c-48 -34 -80 -80 -80 -124c0 -36 24 -54 50 -54c18 0 30 4 44 14l14 -20c-14 -12 -40 -22 -60 -22c-44 0 -78 26 -78 80z" />
    <glyph glyph-name="uni032E" unicode="&#x32e;" 
d="M0 -202c-80 0 -110 68 -116 116h26c6 -44 34 -90 90 -90s84 46 90 90h26c-6 -48 -36 -116 -116 -116z" />
    <glyph glyph-name="uni0331" unicode="&#x331;" 
d="M110 -128v-28h-222v28h222z" />
    <glyph glyph-name="pi" unicode="&#x3c0;" horiz-adv-x="524" 
d="M114 0v448h-86v26l66 4h396v-30h-80v-378c0 -30 10 -54 38 -54c8 0 16 2 28 6l6 -26c-16 -6 -26 -8 -38 -8c-46 0 -64 32 -64 88v372h-236v-448h-30z" />
    <glyph glyph-name="a.sups" unicode="&#x1d43;" horiz-adv-x="334" 
d="M140 262c-56 0 -96 32 -96 90c0 70 64 104 208 118c0 54 -14 98 -72 98c-42 0 -88 -22 -110 -38l-12 22c24 16 72 42 124 42c76 0 98 -50 98 -122v-202h-22l-6 40h-4c-28 -24 -64 -48 -108 -48zM146 288c32 0 68 16 106 52v108c-132 -14 -178 -46 -178 -94
c0 -46 28 -66 72 -66z" />
    <glyph glyph-name="b.sups" unicode="&#x1d47;" horiz-adv-x="364" 
d="M60 270v474h28v-138l-2 -64c34 28 68 52 110 52c88 0 130 -62 130 -160c0 -108 -64 -172 -140 -172c-30 0 -66 14 -96 38h-4l-4 -30h-22zM88 330c34 -30 72 -42 100 -42c62 0 108 58 108 146c0 78 -30 134 -102 134c-32 0 -70 -20 -106 -54v-184z" />
    <glyph glyph-name="d.sups" unicode="&#x1d48;" horiz-adv-x="364" 
d="M176 262c-86 0 -138 62 -138 172c0 98 66 160 142 160c36 0 66 -14 98 -38l-2 58v130h28v-474h-22l-6 38h-4c-28 -24 -56 -46 -96 -46zM178 288c32 0 62 20 98 52v186c-34 30 -68 42 -98 42c-60 0 -110 -58 -110 -134c0 -88 34 -146 110 -146z" />
    <glyph glyph-name="e.sups" unicode="&#x1d49;" horiz-adv-x="328" 
d="M180 262c-82 0 -148 58 -148 166c0 102 64 166 142 166c102 0 124 -92 124 -140c0 -10 0 -14 -2 -30h-234c0 -80 46 -136 120 -136c36 0 68 14 90 30l14 -22c-26 -16 -58 -34 -106 -34zM62 450h208c0 54 -24 118 -96 118c-62 0 -104 -46 -112 -118z" />
    <glyph glyph-name="g.sups" unicode="&#x1d4d;" horiz-adv-x="328" 
d="M64 209c0 -41 38 -65 106 -65c72 0 120 38 120 78c0 34 -28 46 -76 46h-68c-8 0 -26 0 -40 4c-28 -18 -42 -40 -42 -63zM36 206c0 28 16 54 46 74v4c-16 10 -28 28 -28 52c0 26 20 46 35 56v4c-21 17 -41 48 -41 86c0 66 50 112 114 112c21 0 35 -4 49 -10h103v-26h-72
c20 -16 34 -46 34 -76c0 -66 -51 -114 -114 -114c-18 0 -38 4 -54 14c-14 -10 -26 -24 -26 -44c0 -24 16 -40 62 -40h69c73 0 105 -22 105 -74c0 -54 -58 -106 -152 -106c-82 0 -130 34 -130 88zM162 394c46 0 86 36 86 88c0 53 -40 86 -86 86c-50 0 -86 -32 -86 -86
c0 -52 36 -88 86 -88z" />
    <glyph glyph-name="k.sups" unicode="&#x1d4f;" horiz-adv-x="310" 
d="M60 270v474h28v-346h4l158 188h36l-106 -126l124 -190h-34l-110 168l-72 -86v-82h-28z" />
    <glyph glyph-name="m.sups" unicode="&#x1d50;" horiz-adv-x="544" 
d="M60 270v316h22l4 -48h4c28 32 60 56 102 56c44 0 76 -20 88 -64c32 34 70 64 112 64c70 0 96 -50 96 -120v-204h-28v198c0 60 -16 100 -74 100c-30 0 -58 -18 -98 -60v-238h-28v198c0 60 -16 100 -74 100c-30 0 -58 -18 -98 -60v-238h-28z" />
    <glyph glyph-name="o.sups" unicode="&#x1d52;" horiz-adv-x="358" 
d="M178 262c-80 0 -144 62 -144 166c0 106 64 166 144 166s144 -60 144 -166c0 -104 -64 -166 -144 -166zM178 288c68 0 114 58 114 140c0 84 -46 140 -114 140s-114 -56 -114 -140c0 -82 46 -140 114 -140z" />
    <glyph glyph-name="p.sups" unicode="&#x1d56;" horiz-adv-x="364" 
d="M60 130v456h22l6 -40h4c28 24 62 48 104 48c88 0 130 -62 130 -160c0 -108 -64 -172 -140 -172c-30 0 -70 14 -100 39l2 -59v-112h-28zM88 330c34 -30 72 -42 100 -42c62 0 108 58 108 146c0 78 -30 134 -102 134c-32 0 -70 -20 -106 -54v-184z" />
    <glyph glyph-name="t.sups" unicode="&#x1d57;" horiz-adv-x="210" 
d="M70 360v200h-51v24l51 2l4 94h24v-94h96v-26h-96v-202c0 -42 14 -70 56 -70c14 0 28 4 42 10l8 -24c-16 -6 -40 -12 -54 -12c-62 0 -80 40 -80 98z" />
    <glyph glyph-name="u.sups" unicode="&#x1d58;" horiz-adv-x="360" 
d="M160 262c-76 0 -100 50 -100 120v204h28v-198c0 -60 14 -100 76 -100c32 0 66 18 108 60v238h28v-316h-22l-4 48h-4c-30 -32 -68 -56 -110 -56z" />
    <glyph glyph-name="v.sups" unicode="&#x1d5b;" horiz-adv-x="294" 
d="M128 270l-120 316h30l72 -196l34 -92h4l36 92l72 196h30l-122 -316h-36z" />
    <glyph glyph-name="c.sups" unicode="&#x1d9c;" horiz-adv-x="300" 
d="M182 262c-86 0 -148 60 -148 166s70 166 148 166c44 0 72 -18 94 -36l-16 -20c-24 20 -42 30 -80 30c-66 0 -116 -58 -116 -140s48 -140 118 -140c38 0 64 14 86 32l14 -20c-24 -20 -52 -38 -100 -38z" />
    <glyph glyph-name="f.sups" unicode="&#x1da0;" horiz-adv-x="176" 
d="M194 742l-8 -24c-10 4 -22 8 -40 8c-34 0 -50 -30 -50 -70v-70h76v-24h-76v-292h-28v292h-46v22l46 2v66c0 62 28 100 78 100c18 0 30 -2 48 -10z" />
    <glyph glyph-name="z.sups" unicode="&#x1dbb;" horiz-adv-x="272" 
d="M18 270v16l192 274h-170v26h208v-18l-192 -272h198v-26h-236z" />
    <glyph glyph-name="uni1E06" unicode="&#x1e06;" horiz-adv-x="574" 
d="M100 0v660h172c132 0 214 -52 214 -160c0 -70 -40 -124 -118 -144v-4c98 -14 160 -68 160 -160c0 -126 -94 -192 -244 -192h-184zM132 366h120c144 0 202 46 202 138c0 90 -68 128 -196 128h-126v-266zM132 28h140c138 0 224 50 224 162c0 100 -82 148 -224 148h-140
v-310zM398 -128v-28h-222v28h222z" />
    <glyph glyph-name="uni1E07" unicode="&#x1e07;" horiz-adv-x="540" 
d="M96 0v722h30v-214l-2 -96c50 42 110 78 170 78c130 0 192 -96 192 -244c0 -162 -98 -258 -212 -258c-46 0 -100 22 -146 56h-2l-4 -44h-26zM126 82c56 -48 112 -66 150 -66c104 0 178 96 178 230c0 122 -44 216 -162 216c-50 0 -106 -30 -166 -84v-296zM386 -128v-28
h-222v28h222z" />
    <glyph glyph-name="uni1E0C" unicode="&#x1e0c;" horiz-adv-x="600" 
d="M100 0v660h148c204 0 296 -132 296 -328s-92 -332 -296 -332h-148zM132 28h112c188 0 266 130 266 304s-78 300 -266 300h-112v-604zM298 -190c-18 0 -32 14 -32 36c0 20 14 34 32 34s32 -14 32 -34c0 -22 -14 -36 -32 -36z" />
    <glyph glyph-name="uni1E0D" unicode="&#x1e0d;" horiz-adv-x="540" 
d="M54 238c0 154 98 252 214 252c58 0 98 -22 148 -60l-2 90v202h30v-722h-26l-4 64h-2c-40 -40 -94 -76 -160 -76c-120 0 -198 88 -198 250zM86 238c0 -132 60 -222 168 -222c56 0 106 30 160 84v296c-54 48 -98 66 -148 66c-102 0 -180 -100 -180 -224zM294 -190
c-18 0 -32 14 -32 36c0 20 14 34 32 34s32 -14 32 -34c0 -22 -14 -36 -32 -36z" />
    <glyph glyph-name="uni1E0E" unicode="&#x1e0e;" horiz-adv-x="600" 
d="M100 0v660h148c204 0 296 -132 296 -328s-92 -332 -296 -332h-148zM132 28h112c188 0 266 130 266 304s-78 300 -266 300h-112v-604zM408 -128v-28h-222v28h222z" />
    <glyph glyph-name="uni1E0F" unicode="&#x1e0f;" horiz-adv-x="540" 
d="M54 238c0 154 98 252 214 252c58 0 98 -22 148 -60l-2 90v202h30v-722h-26l-4 64h-2c-40 -40 -94 -76 -160 -76c-120 0 -198 88 -198 250zM86 238c0 -132 60 -222 168 -222c56 0 106 30 160 84v296c-54 48 -98 66 -148 66c-102 0 -180 -100 -180 -224zM403 -128v-28h-222
v28h222z" />
    <glyph glyph-name="uni1E16" unicode="&#x1e16;" horiz-adv-x="510" 
d="M100 0v660h354v-28h-322v-266h270v-28h-270v-310h332v-28h-364zM246 826l96 104h40l-108 -104h-28zM168 736v28h220v-28h-220z" />
    <glyph glyph-name="uni1E17" unicode="&#x1e17;" horiz-adv-x="478" 
d="M54 238c0 156 100 252 206 252c110 0 180 -78 180 -220c0 -10 0 -20 -2 -32h-352c0 -128 74 -222 188 -222c54 0 96 18 132 44l14 -26c-36 -22 -76 -46 -148 -46c-120 0 -218 94 -218 250zM86 264h324c0 132 -60 198 -150 198c-86 0 -164 -76 -174 -198zM220 706l80 96
h42l-94 -96h-28zM150 608v28h220v-28h-220z" />
    <glyph glyph-name="uni1E20" unicode="&#x1e20;" horiz-adv-x="600" 
d="M56 332c0 208 114 340 288 340c88 0 142 -42 176 -78l-20 -22c-34 38 -82 70 -156 70c-158 0 -254 -120 -254 -310s92 -314 246 -314c64 0 124 20 158 54v218h-164v28h196v-256c-40 -44 -106 -74 -192 -74c-168 0 -278 136 -278 344zM233 736v28h220v-28h-220z" />
    <glyph glyph-name="uni1E21" unicode="&#x1e21;" horiz-adv-x="480" 
d="M86 -98c0 -64 60 -108 166 -108c114 0 186 66 186 130c0 56 -40 78 -116 78h-110c-6 0 -32 2 -58 8c-48 -32 -68 -72 -68 -108zM54 -100c0 42 28 86 72 118v4c-24 14 -42 40 -42 76c0 44 32 74 52 88v4c-30 26 -60 74 -60 132c0 96 72 168 164 168c26 0 48 -6 62 -12h160
v-28h-116c34 -28 58 -74 58 -128c0 -96 -72 -170 -164 -170c-28 0 -60 8 -82 22c-22 -18 -42 -40 -42 -74c0 -36 20 -66 94 -66h106c106 0 154 -34 154 -108c0 -80 -86 -160 -220 -160c-122 0 -196 54 -196 134zM240 180c70 0 132 58 132 142c0 85 -60 140 -132 140
s-132 -54 -132 -140c0 -84 62 -142 132 -142zM120 608v28h220v-28h-220z" />
    <glyph glyph-name="uni1E24" unicode="&#x1e24;" horiz-adv-x="634" 
d="M100 0v660h32v-294h370v294h32v-660h-32v338h-370v-338h-32zM317 -190c-18 0 -32 14 -32 36c0 20 14 34 32 34s32 -14 32 -34c0 -22 -14 -36 -32 -36z" />
    <glyph glyph-name="uni1E25" unicode="&#x1e25;" horiz-adv-x="522" 
d="M96 0v722h30v-214v-108c52 52 102 90 168 90c98 0 144 -58 144 -182v-308h-30v304c0 106 -34 158 -116 158c-60 0 -104 -32 -166 -96v-366h-30zM280 -190c-18 0 -32 14 -32 36c0 20 14 34 32 34s32 -14 32 -34c0 -22 -14 -36 -32 -36z" />
    <glyph glyph-name="uni1E2A" unicode="&#x1e2a;" horiz-adv-x="634" 
d="M100 0v660h32v-294h370v294h32v-660h-32v338h-370v-338h-32zM317 -202c-80 0 -110 68 -116 116h26c6 -44 34 -90 90 -90s84 46 90 90h26c-6 -48 -36 -116 -116 -116z" />
    <glyph glyph-name="uni1E2B" unicode="&#x1e2b;" horiz-adv-x="522" 
d="M96 0v722h30v-214v-108c52 52 102 90 168 90c98 0 144 -58 144 -182v-308h-30v304c0 106 -34 158 -116 158c-60 0 -104 -32 -166 -96v-366h-30zM279 -202c-80 0 -110 68 -116 116h26c6 -44 34 -90 90 -90s84 46 90 90h26c-6 -48 -36 -116 -116 -116z" />
    <glyph glyph-name="uni1E34" unicode="&#x1e34;" horiz-adv-x="550" 
d="M100 0v660h32v-380h2l336 380h40l-212 -242l240 -418h-38l-226 394l-142 -160v-234h-32zM430 -128v-28h-222v28h222z" />
    <glyph glyph-name="uni1E35" unicode="&#x1e35;" horiz-adv-x="452" 
d="M96 0v722h30v-548h2l248 304h36l-154 -188l182 -290h-34l-166 266l-114 -134v-132h-30zM362 -128v-28h-222v28h222z" />
    <glyph glyph-name="uni1E36" unicode="&#x1e36;" horiz-adv-x="460" 
d="M100 0v660h32v-632h310v-28h-342zM286 -190c-18 0 -32 14 -32 36c0 20 14 34 32 34s32 -14 32 -34c0 -22 -14 -36 -32 -36z" />
    <glyph glyph-name="uni1E37" unicode="&#x1e37;" horiz-adv-x="230" 
d="M96 52v670h30v-676c0 -20 8 -30 20 -30c4 0 8 0 18 2l6 -26c-8 -2 -14 -4 -26 -4c-30 0 -48 18 -48 64zM154 -190c-18 0 -32 14 -32 36c0 20 14 34 32 34s32 -14 32 -34c0 -22 -14 -36 -32 -36z" />
    <glyph glyph-name="uni1E38" unicode="&#x1e38;" horiz-adv-x="460" 
d="M100 0v660h32v-632h310v-28h-342zM8 736v28h220v-28h-220zM286 -190c-18 0 -32 14 -32 36c0 20 14 34 32 34s32 -14 32 -34c0 -22 -14 -36 -32 -36z" />
    <glyph glyph-name="uni1E39" unicode="&#x1e39;" horiz-adv-x="230" 
d="M96 52v670h30v-676c0 -20 8 -30 20 -30c4 0 8 0 18 2l6 -26c-8 -2 -14 -4 -26 -4c-30 0 -48 18 -48 64zM0 836v28h220v-28h-220zM154 -190c-18 0 -32 14 -32 36c0 20 14 34 32 34s32 -14 32 -34c0 -22 -14 -36 -32 -36z" />
    <glyph glyph-name="uni1E3A" unicode="&#x1e3a;" horiz-adv-x="460" 
d="M100 0v660h32v-632h310v-28h-342zM396 -128v-28h-222v28h222z" />
    <glyph glyph-name="uni1E3B" unicode="&#x1e3b;" horiz-adv-x="230" 
d="M96 52v670h30v-676c0 -20 8 -30 20 -30c4 0 8 0 18 2l6 -26c-8 -2 -14 -4 -26 -4c-30 0 -48 18 -48 64zM264 -128v-28h-222v28h222z" />
    <glyph glyph-name="uni1E42" unicode="&#x1e42;" horiz-adv-x="698" 
d="M100 0v660h52l142 -400l54 -150h4l52 150l142 400h52v-660h-32v460c0 52 2 118 4 172h-4l-51 -144l-147 -414h-38l-148 414l-52 144h-4c2 -54 4 -120 4 -172v-460h-30zM350 -190c-18 0 -32 14 -32 36c0 20 14 34 32 34s32 -14 32 -34c0 -22 -14 -36 -32 -36z" />
    <glyph glyph-name="uni1E43" unicode="&#x1e43;" horiz-adv-x="806" 
d="M96 0v478h26l4 -76h2c44 50 100 88 152 88c78 0 116 -40 132 -100c56 62 110 100 164 100c94 0 142 -58 142 -182v-308h-30v304c0 106 -36 158 -114 158c-48 0 -96 -32 -152 -96v-366h-30v304c0 106 -36 158 -114 158c-46 0 -96 -32 -152 -96v-366h-30zM416 -190
c-18 0 -32 14 -32 36c0 20 14 34 32 34s32 -14 32 -34c0 -22 -14 -36 -32 -36z" />
    <glyph glyph-name="uni1E44" unicode="&#x1e44;" horiz-adv-x="632" 
d="M100 0v660h34l292 -484l76 -130h4c-2 64 -4 124 -4 186v428h30v-660h-34l-292 484l-76 130h-4c2 -62 4 -118 4 -180v-434h-30zM321 724c-18 0 -34 14 -34 36c0 20 16 34 34 34s34 -14 34 -34c0 -22 -16 -36 -34 -36z" />
    <glyph glyph-name="uni1E45" unicode="&#x1e45;" horiz-adv-x="526" 
d="M96 0v478h26l4 -76h2c50 50 100 88 166 88c98 0 144 -58 144 -182v-308h-30v304c0 106 -34 158 -116 158c-60 0 -104 -32 -166 -96v-366h-30zM279 600c-18 0 -32 14 -32 36c0 20 14 34 32 34s32 -14 32 -34c0 -22 -14 -36 -32 -36z" />
    <glyph glyph-name="uni1E46" unicode="&#x1e46;" horiz-adv-x="632" 
d="M100 0v660h34l292 -484l76 -130h4c-2 64 -4 124 -4 186v428h30v-660h-34l-292 484l-76 130h-4c2 -62 4 -118 4 -180v-434h-30zM315 -190c-18 0 -32 14 -32 36c0 20 14 34 32 34s32 -14 32 -34c0 -22 -14 -36 -32 -36z" />
    <glyph glyph-name="uni1E47" unicode="&#x1e47;" horiz-adv-x="526" 
d="M96 0v478h26l4 -76h2c50 50 100 88 166 88c98 0 144 -58 144 -182v-308h-30v304c0 106 -34 158 -116 158c-60 0 -104 -32 -166 -96v-366h-30zM270 -190c-18 0 -32 14 -32 36c0 20 14 34 32 34s32 -14 32 -34c0 -22 -14 -36 -32 -36z" />
    <glyph glyph-name="uni1E48" unicode="&#x1e48;" horiz-adv-x="632" 
d="M100 0v660h34l292 -484l76 -130h4c-2 64 -4 124 -4 186v428h30v-660h-34l-292 484l-76 130h-4c2 -62 4 -118 4 -180v-434h-30zM425 -128v-28h-222v28h222z" />
    <glyph glyph-name="uni1E49" unicode="&#x1e49;" horiz-adv-x="526" 
d="M96 0v478h26l4 -76h2c50 50 100 88 166 88c98 0 144 -58 144 -182v-308h-30v304c0 106 -34 158 -116 158c-60 0 -104 -32 -166 -96v-366h-30zM379 -128v-28h-222v28h222z" />
    <glyph glyph-name="uni1E52" unicode="&#x1e52;" horiz-adv-x="648" 
d="M324 -12c-156 0 -268 136 -268 344s112 340 268 340s268 -132 268 -340s-112 -344 -268 -344zM324 18c140 0 234 124 234 314s-94 310 -234 310s-234 -120 -234 -310s94 -314 234 -314zM288 826l96 104h40l-108 -104h-28zM210 736v28h220v-28h-220z" />
    <glyph glyph-name="uni1E53" unicode="&#x1e53;" horiz-adv-x="532" 
d="M54 238c0 160 98 252 212 252s212 -92 212 -252c0 -158 -98 -250 -212 -250s-212 92 -212 250zM86 238c0 -132 78 -222 180 -222s180 90 180 222s-78 224 -180 224s-180 -92 -180 -224zM226 706l80 96h42l-94 -96h-28zM156 608v28h220v-28h-220z" />
    <glyph glyph-name="uni1E5A" unicode="&#x1e5a;" horiz-adv-x="552" 
d="M295 -120c18 0 32 -14 32 -34c0 -22 -14 -36 -32 -36s-32 14 -32 36c0 20 14 34 32 34zM132 340h138c122 0 190 48 190 150c0 104 -68 142 -190 142h-138v-292zM316 314l188 -314h-38l-186 312h-148v-312h-32v660h182c130 0 212 -48 212 -170c0 -105 -68 -166 -178 -176z
" />
    <glyph glyph-name="uni1E5B" unicode="&#x1e5b;" horiz-adv-x="306" 
d="M96 0v478h26l4 -90h2c32 58 78 102 136 102c16 0 30 -2 46 -10l-8 -28c-16 6 -24 8 -42 8c-44 0 -96 -34 -134 -128v-332h-30zM109 -190c-18 0 -32 14 -32 36c0 20 14 34 32 34s32 -14 32 -34c0 -22 -14 -36 -32 -36z" />
    <glyph glyph-name="uni1E5C" unicode="&#x1e5c;" horiz-adv-x="552" 
d="M391 764v-28h-220v28h220zM295 -120c18 0 32 -14 32 -34c0 -22 -14 -36 -32 -36s-32 14 -32 36c0 20 14 34 32 34zM132 340h138c122 0 190 48 190 150c0 104 -68 142 -190 142h-138v-292zM316 314l188 -314h-38l-186 312h-148v-312h-32v660h182c130 0 212 -48 212 -170
c0 -105 -68 -166 -178 -176z" />
    <glyph glyph-name="uni1E5D" unicode="&#x1e5d;" horiz-adv-x="306" 
d="M96 0v478h26l4 -90h2c32 58 78 102 136 102c16 0 30 -2 46 -10l-8 -28c-16 6 -24 8 -42 8c-44 0 -96 -34 -134 -128v-332h-30zM84 608v28h220v-28h-220zM109 -190c-18 0 -32 14 -32 36c0 20 14 34 32 34s32 -14 32 -34c0 -22 -14 -36 -32 -36z" />
    <glyph glyph-name="uni1E5E" unicode="&#x1e5e;" horiz-adv-x="552" 
d="M183 -156v28h222v-28h-222zM132 340h138c122 0 190 48 190 150c0 104 -68 142 -190 142h-138v-292zM316 314l188 -314h-38l-186 312h-148v-312h-32v660h182c130 0 212 -48 212 -170c0 -105 -68 -166 -178 -176z" />
    <glyph glyph-name="uni1E5F" unicode="&#x1e5f;" horiz-adv-x="306" 
d="M96 0v478h26l4 -90h2c32 58 78 102 136 102c16 0 30 -2 46 -10l-8 -28c-16 6 -24 8 -42 8c-44 0 -96 -34 -134 -128v-332h-30zM218 -128v-28h-222v28h222z" />
    <glyph glyph-name="uni1E60" unicode="&#x1e60;" horiz-adv-x="516" 
d="M48 88l22 22c48 -56 118 -92 198 -92c106 0 174 58 174 142c0 88 -56 116 -122 146l-102 46c-56 25 -134 64 -134 162c0 94 80 158 186 158c80 0 142 -37 180 -78l-20 -22c-38 42 -92 70 -160 70c-92 0 -154 -50 -154 -126c0 -82 69 -113 116 -134l102 -46
c73 -33 140 -72 140 -174c0 -100 -82 -174 -206 -174c-98 0 -170 42 -220 100zM269 724c-18 0 -34 14 -34 36c0 20 16 34 34 34s34 -14 34 -34c0 -22 -16 -36 -34 -36z" />
    <glyph glyph-name="uni1E61" unicode="&#x1e61;" horiz-adv-x="400" 
d="M34 54l20 24c40 -34 84 -62 156 -62c80 0 122 48 122 102c0 64 -64 92 -120 112c-74 26 -156 54 -156 136c0 66 52 124 150 124c48 0 98 -20 132 -48l-18 -24c-32 24 -66 44 -116 44c-80 0 -116 -47 -116 -94c0 -58 58 -80 116 -102c76 -29 160 -52 160 -146
c0 -70 -56 -132 -156 -132c-72 0 -132 30 -174 66zM207 600c-18 0 -32 14 -32 36c0 20 14 34 32 34s32 -14 32 -34c0 -22 -14 -36 -32 -36z" />
    <glyph glyph-name="uni1E62" unicode="&#x1e62;" horiz-adv-x="516" 
d="M48 88l22 22c48 -56 118 -92 198 -92c106 0 174 58 174 142c0 88 -56 116 -122 146l-102 46c-56 25 -134 64 -134 162c0 94 80 158 186 158c80 0 142 -37 180 -78l-20 -22c-38 42 -92 70 -160 70c-92 0 -154 -50 -154 -126c0 -82 69 -113 116 -134l102 -46
c73 -33 140 -72 140 -174c0 -100 -82 -174 -206 -174c-98 0 -170 42 -220 100zM267 -190c-18 0 -32 14 -32 36c0 20 14 34 32 34s32 -14 32 -34c0 -22 -14 -36 -32 -36z" />
    <glyph glyph-name="uni1E63" unicode="&#x1e63;" horiz-adv-x="400" 
d="M34 54l20 24c40 -34 84 -62 156 -62c80 0 122 48 122 102c0 64 -64 92 -120 112c-74 26 -156 54 -156 136c0 66 52 124 150 124c48 0 98 -20 132 -48l-18 -24c-32 24 -66 44 -116 44c-80 0 -116 -47 -116 -94c0 -58 58 -80 116 -102c76 -29 160 -52 160 -146
c0 -70 -56 -132 -156 -132c-72 0 -132 30 -174 66zM216 -190c-18 0 -32 14 -32 36c0 20 14 34 32 34s32 -14 32 -34c0 -22 -14 -36 -32 -36z" />
    <glyph glyph-name="uni1E6C" unicode="&#x1e6c;" horiz-adv-x="520" 
d="M244 0v632h-214v28h460v-28h-214v-632h-32zM261 -190c-18 0 -32 14 -32 36c0 20 14 34 32 34s32 -14 32 -34c0 -22 -14 -36 -32 -36z" />
    <glyph glyph-name="uni1E6D" unicode="&#x1e6d;" horiz-adv-x="302" 
d="M106 126v324h-76v24l76 4l4 140h26v-140h142v-28h-142v-328c0 -62 14 -106 84 -106c18 0 44 8 62 16l10 -26c-28 -10 -58 -18 -74 -18c-88 0 -112 56 -112 138zM196 -190c-18 0 -32 14 -32 36c0 20 14 34 32 34s32 -14 32 -34c0 -22 -14 -36 -32 -36z" />
    <glyph glyph-name="uni1E6E" unicode="&#x1e6e;" horiz-adv-x="520" 
d="M244 0v632h-214v28h460v-28h-214v-632h-32zM371 -128v-28h-222v28h222z" />
    <glyph glyph-name="uni1E6F" unicode="&#x1e6f;" horiz-adv-x="302" 
d="M106 126v324h-76v24l76 4l4 140h26v-140h142v-28h-142v-328c0 -62 14 -106 84 -106c18 0 44 8 62 16l10 -26c-28 -10 -58 -18 -74 -18c-88 0 -112 56 -112 138zM305 -128v-28h-222v28h222z" />
    <glyph glyph-name="Wgrave" unicode="&#x1e80;" horiz-adv-x="764" 
d="M184 0l-154 660h34l88 -400l48 -216h4c16 72 34 144 52 216l108 400h36l108 -400l54 -216h4c16 72 30 144 46 216l88 400h32l-152 -660h-32l-128 474c-12 52 -24 96 -36 148h-4c-12 -52 -26 -96 -38 -148l-126 -474h-32zM384 710l-108 104h44l94 -104h-30z" />
    <glyph glyph-name="wgrave" unicode="&#x1e81;" horiz-adv-x="672" 
d="M168 0l-144 478h34l92 -322c12 -44 24 -84 34 -126h4c12 42 24 82 36 126l92 322h42l92 -322c12 -44 24 -84 36 -126h4c12 42 24 82 36 126l90 322h32l-140 -478h-42l-90 312c-14 46 -24 90 -38 136h-4c-12 -46 -24 -92 -40 -138l-88 -310h-38zM361 572l-104 134h40
l92 -134h-28z" />
    <glyph glyph-name="Wacute" unicode="&#x1e82;" horiz-adv-x="764" 
d="M184 0l-154 660h34l88 -400l48 -216h4c16 72 34 144 52 216l108 400h36l108 -400l54 -216h4c16 72 30 144 46 216l88 400h32l-152 -660h-32l-128 474c-12 52 -24 96 -36 148h-4c-12 -52 -26 -96 -38 -148l-126 -474h-32zM488 814l-108 -104h-30l94 104h44z" />
    <glyph glyph-name="wacute" unicode="&#x1e83;" horiz-adv-x="672" 
d="M168 0l-144 478h34l92 -322c12 -44 24 -84 34 -126h4c12 42 24 82 36 126l92 322h42l92 -322c12 -44 24 -84 36 -126h4c12 42 24 82 36 126l90 322h32l-140 -478h-42l-90 312c-14 46 -24 90 -38 136h-4c-12 -46 -24 -92 -40 -138l-88 -310h-38zM417 706l-104 -134h-28
l92 134h40z" />
    <glyph glyph-name="Wdieresis" unicode="&#x1e84;" horiz-adv-x="764" 
d="M184 0l-154 660h34l88 -400l48 -216h4c16 72 34 144 52 216l108 400h36l108 -400l54 -216h4c16 72 30 144 46 216l88 400h32l-152 -660h-32l-128 474c-12 52 -24 96 -36 148h-4c-12 -52 -26 -96 -38 -148l-126 -474h-32zM306 728c-18 0 -32 12 -32 32s14 32 32 32
s32 -12 32 -32s-14 -32 -32 -32zM458 728c-18 0 -32 12 -32 32s14 32 32 32s32 -12 32 -32s-14 -32 -32 -32z" />
    <glyph glyph-name="wdieresis" unicode="&#x1e85;" horiz-adv-x="672" 
d="M168 0l-144 478h34l92 -322c12 -44 24 -84 34 -126h4c12 42 24 82 36 126l92 322h42l92 -322c12 -44 24 -84 36 -126h4c12 42 24 82 36 126l90 322h32l-140 -478h-42l-90 312c-14 46 -24 90 -38 136h-4c-12 -46 -24 -92 -40 -138l-88 -310h-38zM261 602
c-18 0 -32 14 -32 32s14 32 32 32s32 -14 32 -32s-14 -32 -32 -32zM413 602c-18 0 -32 14 -32 32s14 32 32 32s32 -14 32 -32s-14 -32 -32 -32z" />
    <glyph glyph-name="uni1E8E" unicode="&#x1e8e;" horiz-adv-x="436" 
d="M202 0v272l-198 388h34l106 -214c24 -48 46 -94 72 -142h4c26 48 52 94 74 142l106 214h32l-198 -388v-272h-32zM218 724c-18 0 -34 14 -34 36c0 20 16 34 34 34s34 -14 34 -34c0 -22 -16 -36 -34 -36z" />
    <glyph glyph-name="uni1E8F" unicode="&#x1e8f;" horiz-adv-x="424" 
d="M28 -184c10 -4 26 -8 40 -8c60 0 102 58 128 136l14 44l-198 490h34l122 -314c16 -40 36 -92 54 -134h4c16 42 32 94 46 134l108 314h32l-192 -546c-24 -74 -72 -154 -154 -154c-16 0 -34 4 -46 10zM224 600c-18 0 -32 14 -32 36c0 20 14 34 32 34s32 -14 32 -34
c0 -22 -14 -36 -32 -36z" />
    <glyph glyph-name="uni1E92" unicode="&#x1e92;" horiz-adv-x="538" 
d="M52 0v18l392 614h-358v28h398v-18l-392 -614h396v-28h-436zM281 -190c-18 0 -32 14 -32 36c0 20 14 34 32 34s32 -14 32 -34c0 -22 -14 -36 -32 -36z" />
    <glyph glyph-name="uni1E93" unicode="&#x1e93;" horiz-adv-x="396" 
d="M26 0v16l294 434h-262v28h302v-16l-294 -434h304v-28h-344zM214 -190c-18 0 -32 14 -32 36c0 20 14 34 32 34s32 -14 32 -34c0 -22 -14 -36 -32 -36z" />
    <glyph glyph-name="uni1E97" unicode="&#x1e97;" horiz-adv-x="302" 
d="M106 126v324h-76v24l76 4l4 140h26v-140h142v-28h-142v-328c0 -62 14 -106 84 -106c18 0 44 8 62 16l10 -26c-28 -10 -58 -18 -74 -18c-88 0 -112 56 -112 138zM49 734c-18 0 -32 14 -32 32s14 32 32 32s32 -14 32 -32s-14 -32 -32 -32zM201 734c-18 0 -32 14 -32 32
s14 32 32 32s32 -14 32 -32s-14 -32 -32 -32z" />
    <glyph glyph-name="uni1E9E" unicode="&#x1e9e;" horiz-adv-x="636" 
d="M100 0v424c0 163 100 248 236 248c96 0 152 -52 192 -132l-162 -176c172 -26 224 -106 224 -198c0 -102 -78 -178 -180 -178c-68 0 -133 28 -176 80l24 24c43 -50 90 -74 154 -74c92 0 144 62 144 146c0 80 -38 144 -226 174l-2 28l160 176c-26 56 -76 100 -154 100
c-122 0 -202 -70 -202 -230v-412h-32z" />
    <glyph glyph-name="uni1EA0" unicode="&#x1ea0;" horiz-adv-x="520" 
d="M260 -120c18 0 32 -14 32 -34c0 -22 -14 -36 -32 -36s-32 14 -32 36c0 20 14 34 32 34zM135 264h249l-46 132c-28 80 -52 148 -76 230h-4c-24 -82 -48 -150 -76 -230zM510 0h-34l-82 236h-269l-83 -236h-32l236 660h28z" />
    <glyph glyph-name="uni1EA1" unicode="&#x1ea1;" horiz-adv-x="494" 
d="M68 117c0 107 98 157 314 181c2 78 -18 164 -118 164c-68 0 -126 -34 -156 -58l-16 24c30 22 96 62 174 62c112 0 146 -84 146 -180v-310h-26l-4 64h-2c-50 -40 -110 -76 -174 -76c-74 0 -138 38 -138 129zM100 118c0 -74 50 -102 108 -102s110 28 174 82v174
c-210 -24 -282 -72 -282 -154zM244 -190c-18 0 -32 14 -32 36c0 20 14 34 32 34s32 -14 32 -34c0 -22 -14 -36 -32 -36z" />
    <glyph glyph-name="uni1EA2" unicode="&#x1ea2;" horiz-adv-x="520" 
d="M238 704l-8 22c38 12 66 28 66 58c0 32 -32 48 -86 50l2 26c58 -2 114 -22 114 -72s-44 -70 -88 -84zM135 264h249l-46 132c-28 80 -52 148 -76 230h-4c-24 -82 -48 -150 -76 -230zM476 0l-82 236h-269l-83 -236h-32l236 660h28l236 -660h-34z" />
    <glyph glyph-name="uni1EA3" unicode="&#x1ea3;" horiz-adv-x="494" 
d="M68 117c0 107 98 157 314 181c2 78 -18 164 -118 164c-68 0 -126 -34 -156 -58l-16 24c30 22 96 62 174 62c112 0 146 -84 146 -180v-310h-26l-4 64h-2c-50 -40 -110 -76 -174 -76c-74 0 -138 38 -138 129zM100 118c0 -74 50 -102 108 -102s110 28 174 82v174
c-210 -24 -282 -72 -282 -154zM238 550l-8 22c38 12 66 28 66 58c0 32 -32 48 -86 50l2 26c58 -2 114 -22 114 -72s-44 -70 -88 -84z" />
    <glyph glyph-name="uni1EA4" unicode="&#x1ea4;" horiz-adv-x="520" 
d="M444 874l-84 -104h-26l72 104h38zM258 778l-72 -68h-30l90 98h28l90 -98h-30l-72 68h-4zM135 264h249l-46 132c-28 80 -52 148 -76 230h-4c-24 -82 -48 -150 -76 -230zM476 0l-82 236h-269l-83 -236h-32l236 660h28l236 -660h-34z" />
    <glyph glyph-name="uni1EA5" unicode="&#x1ea5;" horiz-adv-x="494" 
d="M68 117c0 107 98 157 314 181c2 78 -18 164 -118 164c-68 0 -126 -34 -156 -58l-16 24c30 22 96 62 174 62c112 0 146 -84 146 -180v-310h-26l-4 64h-2c-50 -40 -110 -76 -174 -76c-74 0 -138 38 -138 129zM100 118c0 -74 50 -102 108 -102s110 28 174 82v174
c-210 -24 -282 -72 -282 -154zM162 572l84 112h28l84 -112h-28l-68 80h-4l-68 -80h-28zM334 636l78 110h38l-90 -110h-26z" />
    <glyph glyph-name="uni1EA6" unicode="&#x1ea6;" horiz-adv-x="520" 
d="M400 770h-26l-84 104h38zM258 778l-72 -68h-30l90 98h28l90 -98h-30l-72 68h-4zM135 264h249l-46 132c-28 80 -52 148 -76 230h-4c-24 -82 -48 -150 -76 -230zM476 0l-82 236h-269l-83 -236h-32l236 660h28l236 -660h-34z" />
    <glyph glyph-name="uni1EA7" unicode="&#x1ea7;" horiz-adv-x="494" 
d="M68 117c0 107 98 157 314 181c2 78 -18 164 -118 164c-68 0 -126 -34 -156 -58l-16 24c30 22 96 62 174 62c112 0 146 -84 146 -180v-310h-26l-4 64h-2c-50 -40 -110 -76 -174 -76c-74 0 -138 38 -138 129zM100 118c0 -74 50 -102 108 -102s110 28 174 82v174
c-210 -24 -282 -72 -282 -154zM162 572l84 112h28l84 -112h-28l-68 80h-4l-68 -80h-28zM344 746l78 -110h-26l-90 110h38z" />
    <glyph glyph-name="uni1EA8" unicode="&#x1ea8;" horiz-adv-x="520" 
d="M357 758l-10 24c30 8 54 20 54 44c0 32 -26 42 -74 44l4 26c52 -2 100 -18 100 -66c0 -44 -40 -62 -74 -72zM258 778l-72 -68h-30l90 98h28l90 -98h-30l-72 68h-4zM135 264h249l-46 132c-28 80 -52 148 -76 230h-4c-24 -82 -48 -150 -76 -230zM476 0l-82 236h-269
l-83 -236h-32l236 660h28l236 -660h-34z" />
    <glyph glyph-name="uni1EA9" unicode="&#x1ea9;" horiz-adv-x="494" 
d="M68 117c0 107 98 157 314 181c2 78 -18 164 -118 164c-68 0 -126 -34 -156 -58l-16 24c30 22 96 62 174 62c112 0 146 -84 146 -180v-310h-26l-4 64h-2c-50 -40 -110 -76 -174 -76c-74 0 -138 38 -138 129zM100 118c0 -74 50 -102 108 -102s110 28 174 82v174
c-210 -24 -282 -72 -282 -154zM162 572l84 112h28l84 -112h-28l-68 80h-4l-68 -80h-28zM358 628l-8 22c30 10 52 24 52 48c0 32 -24 46 -72 48l2 24c52 -2 100 -20 100 -68c0 -44 -40 -62 -74 -74z" />
    <glyph glyph-name="uni1EAA" unicode="&#x1eaa;" horiz-adv-x="520" 
d="M354 918h24c-2 -32 -21 -76 -68 -76c-48 0 -66 50 -102 50c-22 0 -38 -20 -42 -50h-24c2 32 21 76 68 76c48 0 66 -50 102 -50c22 0 38 20 42 50zM246 808h28l90 -98h-30l-72 68h-4l-72 -68h-30zM135 264h249l-46 132c-28 80 -52 148 -76 230h-4
c-24 -82 -48 -150 -76 -230zM476 0l-82 236h-269l-83 -236h-32l236 660h28l236 -660h-34z" />
    <glyph glyph-name="uni1EAB" unicode="&#x1eab;" horiz-adv-x="494" 
d="M68 117c0 107 98 157 314 181c2 78 -18 164 -118 164c-68 0 -126 -34 -156 -58l-16 24c30 22 96 62 174 62c112 0 146 -84 146 -180v-310h-26l-4 64h-2c-50 -40 -110 -76 -174 -76c-74 0 -138 38 -138 129zM100 118c0 -74 50 -102 108 -102s110 28 174 82v174
c-210 -24 -282 -72 -282 -154zM154 570l92 98h28l92 -98h-28l-76 70h-4l-76 -70h-28zM166 704h-24c2 32 21 72 68 72c48 0 66 -46 102 -46c22 0 38 16 42 46h24c-2 -32 -21 -72 -68 -72c-48 0 -66 46 -102 46c-22 0 -38 -16 -42 -46z" />
    <glyph glyph-name="uni1EAC" unicode="&#x1eac;" horiz-adv-x="520" 
d="M258 784l-78 -74h-30l96 104h28l96 -104h-30l-78 74h-4zM260 -120c18 0 32 -14 32 -34c0 -22 -14 -36 -32 -36s-32 14 -32 36c0 20 14 34 32 34zM135 264h249l-46 132c-28 80 -52 148 -76 230h-4c-24 -82 -48 -150 -76 -230zM510 0h-34l-82 236h-269l-83 -236h-32
l236 660h28z" />
    <glyph glyph-name="uni1EAD" unicode="&#x1ead;" horiz-adv-x="494" 
d="M68 117c0 107 98 157 314 181c2 78 -18 164 -118 164c-68 0 -126 -34 -156 -58l-16 24c30 22 96 62 174 62c112 0 146 -84 146 -180v-310h-26l-4 64h-2c-50 -40 -110 -76 -174 -76c-74 0 -138 38 -138 129zM100 118c0 -74 50 -102 108 -102s110 28 174 82v174
c-210 -24 -282 -72 -282 -154zM152 572l94 134h28l94 -134h-28l-78 102h-4l-78 -102h-28zM244 -190c-18 0 -32 14 -32 36c0 20 14 34 32 34s32 -14 32 -34c0 -22 -14 -36 -32 -36z" />
    <glyph glyph-name="uni1EAE" unicode="&#x1eae;" horiz-adv-x="520" 
d="M348 892l-94 -94h-28l82 94h40zM344 810h26c-6 -42 -40 -98 -110 -98s-104 56 -110 98h26c8 -36 32 -72 84 -72s76 36 84 72zM135 264h249l-46 132c-28 80 -52 148 -76 230h-4c-24 -82 -48 -150 -76 -230zM476 0l-82 236h-269l-83 -236h-32l236 660h28l236 -660h-34z" />
    <glyph glyph-name="uni1EAF" unicode="&#x1eaf;" horiz-adv-x="494" 
d="M68 117c0 107 98 157 314 181c2 78 -18 164 -118 164c-68 0 -126 -34 -156 -58l-16 24c30 22 96 62 174 62c112 0 146 -84 146 -180v-310h-26l-4 64h-2c-50 -40 -110 -76 -174 -76c-74 0 -138 38 -138 129zM100 118c0 -74 50 -102 108 -102s110 28 174 82v174
c-210 -24 -282 -72 -282 -154zM230 664l76 108h38l-86 -108h-28zM260 576c-80 0 -110 68 -116 116h26c6 -44 34 -90 90 -90s84 46 90 90h26c-6 -48 -36 -116 -116 -116z" />
    <glyph glyph-name="uni1EB0" unicode="&#x1eb0;" horiz-adv-x="520" 
d="M294 798h-28l-94 94h40zM344 810h26c-6 -42 -40 -98 -110 -98s-104 56 -110 98h26c8 -36 32 -72 84 -72s76 36 84 72zM135 264h249l-46 132c-28 80 -52 148 -76 230h-4c-24 -82 -48 -150 -76 -230zM476 0l-82 236h-269l-83 -236h-32l236 660h28l236 -660h-34z" />
    <glyph glyph-name="uni1EB1" unicode="&#x1eb1;" horiz-adv-x="494" 
d="M68 117c0 107 98 157 314 181c2 78 -18 164 -118 164c-68 0 -126 -34 -156 -58l-16 24c30 22 96 62 174 62c112 0 146 -84 146 -180v-310h-26l-4 64h-2c-50 -40 -110 -76 -174 -76c-74 0 -138 38 -138 129zM100 118c0 -74 50 -102 108 -102s110 28 174 82v174
c-210 -24 -282 -72 -282 -154zM214 772l76 -108h-28l-86 108h38zM260 576c-80 0 -110 68 -116 116h26c6 -44 34 -90 90 -90s84 46 90 90h26c-6 -48 -36 -116 -116 -116z" />
    <glyph glyph-name="uni1EB2" unicode="&#x1eb2;" horiz-adv-x="520" 
d="M245 796l-10 24c30 8 54 20 54 44c0 32 -26 42 -74 44l4 26c52 -2 100 -18 100 -66c0 -44 -40 -62 -74 -72zM344 810h26c-6 -42 -40 -98 -110 -98s-104 56 -110 98h26c8 -36 32 -72 84 -72s76 36 84 72zM135 264h249l-46 132c-28 80 -52 148 -76 230h-4
c-24 -82 -48 -150 -76 -230zM476 0l-82 236h-269l-83 -236h-32l236 660h28l236 -660h-34z" />
    <glyph glyph-name="uni1EB3" unicode="&#x1eb3;" horiz-adv-x="494" 
d="M68 117c0 107 98 157 314 181c2 78 -18 164 -118 164c-68 0 -126 -34 -156 -58l-16 24c30 22 96 62 174 62c112 0 146 -84 146 -180v-310h-26l-4 64h-2c-50 -40 -110 -76 -174 -76c-74 0 -138 38 -138 129zM100 118c0 -74 50 -102 108 -102s110 28 174 82v174
c-210 -24 -282 -72 -282 -154zM260 576c-80 0 -110 68 -116 116h26c6 -44 34 -90 90 -90s84 46 90 90h26c-6 -48 -36 -116 -116 -116zM240 672l-8 22c30 10 52 24 52 48c0 32 -24 46 -72 48l2 24c52 -2 100 -20 100 -68c0 -44 -40 -62 -74 -74z" />
    <glyph glyph-name="uni1EB4" unicode="&#x1eb4;" horiz-adv-x="520" 
d="M354 918h24c-2 -32 -21 -76 -68 -76c-48 0 -66 50 -102 50c-22 0 -38 -20 -42 -50h-24c2 32 21 76 68 76c48 0 66 -50 102 -50c22 0 38 20 42 50zM150 810h26c8 -36 32 -72 84 -72s76 36 84 72h26c-6 -42 -40 -98 -110 -98s-104 56 -110 98zM135 264h249l-46 132
c-28 80 -52 148 -76 230h-4c-24 -82 -48 -150 -76 -230zM476 0l-82 236h-269l-83 -236h-32l236 660h28l236 -660h-34z" />
    <glyph glyph-name="uni1EB5" unicode="&#x1eb5;" horiz-adv-x="494" 
d="M68 117c0 107 98 157 314 181c2 78 -18 164 -118 164c-68 0 -126 -34 -156 -58l-16 24c30 22 96 62 174 62c112 0 146 -84 146 -180v-310h-26l-4 64h-2c-50 -40 -110 -76 -174 -76c-74 0 -138 38 -138 129zM100 118c0 -74 50 -102 108 -102s110 28 174 82v174
c-210 -24 -282 -72 -282 -154zM260 576c-80 0 -108 52 -114 96h26c6 -36 34 -70 88 -70s82 34 88 70h26c-6 -44 -34 -96 -114 -96zM142 704c2 32 21 72 68 72c48 0 66 -46 102 -46c22 0 38 16 42 46h24c-2 -32 -21 -72 -68 -72c-48 0 -66 46 -102 46c-22 0 -38 -16 -42 -46
h-24z" />
    <glyph glyph-name="uni1EB6" unicode="&#x1eb6;" horiz-adv-x="520" 
d="M346 814h26c-6 -42 -38 -102 -112 -102s-106 60 -112 102h26c6 -36 32 -76 86 -76s80 40 86 76zM260 -120c18 0 32 -14 32 -34c0 -22 -14 -36 -32 -36s-32 14 -32 36c0 20 14 34 32 34zM135 264h249l-46 132c-28 80 -52 148 -76 230h-4c-24 -82 -48 -150 -76 -230zM510 0
h-34l-82 236h-269l-83 -236h-32l236 660h28z" />
    <glyph glyph-name="uni1EB7" unicode="&#x1eb7;" horiz-adv-x="494" 
d="M68 117c0 107 98 157 314 181c2 78 -18 164 -118 164c-68 0 -126 -34 -156 -58l-16 24c30 22 96 62 174 62c112 0 146 -84 146 -180v-310h-26l-4 64h-2c-50 -40 -110 -76 -174 -76c-74 0 -138 38 -138 129zM100 118c0 -74 50 -102 108 -102s110 28 174 82v174
c-210 -24 -282 -72 -282 -154zM260 576c-80 0 -110 68 -116 116h26c6 -44 34 -90 90 -90s84 46 90 90h26c-6 -48 -36 -116 -116 -116zM244 -190c-18 0 -32 14 -32 36c0 20 14 34 32 34s32 -14 32 -34c0 -22 -14 -36 -32 -36z" />
    <glyph glyph-name="uni1EB8" unicode="&#x1eb8;" horiz-adv-x="510" 
d="M100 0v660h354v-28h-322v-266h270v-28h-270v-310h332v-28h-364zM297 -190c-18 0 -32 14 -32 36c0 20 14 34 32 34s32 -14 32 -34c0 -22 -14 -36 -32 -36z" />
    <glyph glyph-name="uni1EB9" unicode="&#x1eb9;" horiz-adv-x="478" 
d="M54 238c0 156 100 252 206 252c110 0 180 -78 180 -220c0 -10 0 -20 -2 -32h-352c0 -128 74 -222 188 -222c54 0 96 18 132 44l14 -26c-36 -22 -76 -46 -148 -46c-120 0 -218 94 -218 250zM86 264h324c0 132 -60 198 -150 198c-86 0 -164 -76 -174 -198zM257 -190
c-18 0 -32 14 -32 36c0 20 14 34 32 34s32 -14 32 -34c0 -22 -14 -36 -32 -36z" />
    <glyph glyph-name="uni1EBA" unicode="&#x1eba;" horiz-adv-x="510" 
d="M100 0v660h354v-28h-322v-266h270v-28h-270v-310h332v-28h-364zM259 704l-8 22c38 12 66 28 66 58c0 32 -32 48 -86 50l2 26c58 -2 114 -22 114 -72s-44 -70 -88 -84z" />
    <glyph glyph-name="uni1EBB" unicode="&#x1ebb;" horiz-adv-x="478" 
d="M54 238c0 156 100 252 206 252c110 0 180 -78 180 -220c0 -10 0 -20 -2 -32h-352c0 -128 74 -222 188 -222c54 0 96 18 132 44l14 -26c-36 -22 -76 -46 -148 -46c-120 0 -218 94 -218 250zM86 264h324c0 132 -60 198 -150 198c-86 0 -164 -76 -174 -198zM238 550l-8 22
c38 12 66 28 66 58c0 32 -32 48 -86 50l2 26c58 -2 114 -22 114 -72s-44 -70 -88 -84z" />
    <glyph glyph-name="uni1EBC" unicode="&#x1ebc;" horiz-adv-x="510" 
d="M100 0v660h354v-28h-322v-266h270v-28h-270v-310h332v-28h-364zM339 718c-52 0 -76 58 -118 58c-22 0 -38 -24 -42 -58h-22c2 38 22 86 66 86c52 0 76 -58 118 -58c22 0 38 24 42 58h22c-2 -38 -22 -86 -66 -86z" />
    <glyph glyph-name="uni1EBD" unicode="&#x1ebd;" horiz-adv-x="478" 
d="M54 238c0 156 100 252 206 252c110 0 180 -78 180 -220c0 -10 0 -20 -2 -32h-352c0 -128 74 -222 188 -222c54 0 96 18 132 44l14 -26c-36 -22 -76 -46 -148 -46c-120 0 -218 94 -218 250zM86 264h324c0 132 -60 198 -150 198c-86 0 -164 -76 -174 -198zM142 582
c2 36 17 82 64 82c48 0 75 -56 110 -56c22 0 34 22 38 56h24c-2 -35 -17 -82 -64 -82c-48 0 -73 56 -110 56c-22 0 -34 -21 -38 -56h-24z" />
    <glyph glyph-name="uni1EBE" unicode="&#x1ebe;" horiz-adv-x="510" 
d="M100 0v660h354v-28h-322v-266h270v-28h-270v-310h332v-28h-364zM355 770l72 104h38l-84 -104h-26zM177 710l90 98h28l90 -98h-30l-72 68h-4l-72 -68h-30z" />
    <glyph glyph-name="uni1EBF" unicode="&#x1ebf;" horiz-adv-x="478" 
d="M54 238c0 156 100 252 206 252c110 0 180 -78 180 -220c0 -10 0 -20 -2 -32h-352c0 -128 74 -222 188 -222c54 0 96 18 132 44l14 -26c-36 -22 -76 -46 -148 -46c-120 0 -218 94 -218 250zM86 264h324c0 132 -60 198 -150 198c-86 0 -164 -76 -174 -198zM162 572l84 112
h28l84 -112h-28l-68 80h-4l-68 -80h-28zM334 636l78 110h38l-90 -110h-26z" />
    <glyph glyph-name="uni1EC0" unicode="&#x1ec0;" horiz-adv-x="510" 
d="M100 0v660h354v-28h-322v-266h270v-28h-270v-310h332v-28h-364zM349 874l72 -104h-26l-84 104h38zM177 710l90 98h28l90 -98h-30l-72 68h-4l-72 -68h-30z" />
    <glyph glyph-name="uni1EC1" unicode="&#x1ec1;" horiz-adv-x="478" 
d="M54 238c0 156 100 252 206 252c110 0 180 -78 180 -220c0 -10 0 -20 -2 -32h-352c0 -128 74 -222 188 -222c54 0 96 18 132 44l14 -26c-36 -22 -76 -46 -148 -46c-120 0 -218 94 -218 250zM86 264h324c0 132 -60 198 -150 198c-86 0 -164 -76 -174 -198zM162 572l84 112
h28l84 -112h-28l-68 80h-4l-68 -80h-28zM344 746l78 -110h-26l-90 110h38z" />
    <glyph glyph-name="uni1EC2" unicode="&#x1ec2;" horiz-adv-x="510" 
d="M100 0v660h354v-28h-322v-266h270v-28h-270v-310h332v-28h-364zM378 758l-10 24c30 8 54 20 54 44c0 32 -26 42 -74 44l4 26c52 -2 100 -18 100 -66c0 -44 -40 -62 -74 -72zM177 710l90 98h28l90 -98h-30l-72 68h-4l-72 -68h-30z" />
    <glyph glyph-name="uni1EC3" unicode="&#x1ec3;" horiz-adv-x="478" 
d="M54 238c0 156 100 252 206 252c110 0 180 -78 180 -220c0 -10 0 -20 -2 -32h-352c0 -128 74 -222 188 -222c54 0 96 18 132 44l14 -26c-36 -22 -76 -46 -148 -46c-120 0 -218 94 -218 250zM86 264h324c0 132 -60 198 -150 198c-86 0 -164 -76 -174 -198zM162 572l84 112
h28l84 -112h-28l-68 80h-4l-68 -80h-28zM358 628l-8 22c30 10 52 24 52 48c0 32 -24 46 -72 48l2 24c52 -2 100 -20 100 -68c0 -44 -40 -62 -74 -74z" />
    <glyph glyph-name="uni1EC4" unicode="&#x1ec4;" horiz-adv-x="510" 
d="M100 0v660h354v-28h-322v-266h270v-28h-270v-310h332v-28h-364zM177 710l90 98h28l90 -98h-30l-72 68h-4l-72 -68h-30zM187 842h-24c2 32 21 76 68 76c48 0 66 -50 102 -50c22 0 38 20 42 50h24c-2 -32 -21 -76 -68 -76c-48 0 -66 50 -102 50c-22 0 -38 -20 -42 -50z" />
    <glyph glyph-name="uni1EC5" unicode="&#x1ec5;" horiz-adv-x="478" 
d="M54 238c0 156 100 252 206 252c110 0 180 -78 180 -220c0 -10 0 -20 -2 -32h-352c0 -128 74 -222 188 -222c54 0 96 18 132 44l14 -26c-36 -22 -76 -46 -148 -46c-120 0 -218 94 -218 250zM86 264h324c0 132 -60 198 -150 198c-86 0 -164 -76 -174 -198zM154 570l92 98
h28l92 -98h-28l-76 70h-4l-76 -70h-28zM166 704h-24c2 32 21 72 68 72c48 0 66 -46 102 -46c22 0 38 16 42 46h24c-2 -32 -21 -72 -68 -72c-48 0 -66 46 -102 46c-22 0 -38 -16 -42 -46z" />
    <glyph glyph-name="uni1EC6" unicode="&#x1ec6;" horiz-adv-x="510" 
d="M100 0v660h354v-28h-322v-266h270v-28h-270v-310h332v-28h-364zM201 710h-30l96 104h28l96 -104h-30l-78 74h-4zM297 -190c-18 0 -32 14 -32 36c0 20 14 34 32 34s32 -14 32 -34c0 -22 -14 -36 -32 -36z" />
    <glyph glyph-name="uni1EC7" unicode="&#x1ec7;" horiz-adv-x="478" 
d="M54 238c0 156 100 252 206 252c110 0 180 -78 180 -220c0 -10 0 -20 -2 -32h-352c0 -128 74 -222 188 -222c54 0 96 18 132 44l14 -26c-36 -22 -76 -46 -148 -46c-120 0 -218 94 -218 250zM86 264h324c0 132 -60 198 -150 198c-86 0 -164 -76 -174 -198zM152 572l94 134
h28l94 -134h-28l-78 102h-4l-78 -102h-28zM256 -190c-18 0 -32 14 -32 36c0 20 14 34 32 34s32 -14 32 -34c0 -22 -14 -36 -32 -36z" />
    <glyph glyph-name="uni1EC8" unicode="&#x1ec8;" horiz-adv-x="232" 
d="M100 0v660h32v-660h-32zM94 704l-8 22c38 12 66 28 66 58c0 32 -32 48 -86 50l2 26c58 -2 114 -22 114 -72s-44 -70 -88 -84z" />
    <glyph glyph-name="uni1EC9" unicode="&#x1ec9;" horiz-adv-x="222" 
d="M96 0v478h30v-478h-30zM89 550l-8 22c38 12 66 28 66 58c0 32 -32 48 -86 50l2 26c58 -2 114 -22 114 -72s-44 -70 -88 -84z" />
    <glyph glyph-name="uni1ECA" unicode="&#x1eca;" horiz-adv-x="232" 
d="M100 0v660h32v-660h-32zM117 -190c-18 0 -32 14 -32 36c0 20 14 34 32 34s32 -14 32 -34c0 -22 -14 -36 -32 -36z" />
    <glyph glyph-name="uni1ECB" unicode="&#x1ecb;" horiz-adv-x="222" 
d="M112 600c-18 0 -34 14 -34 34c0 22 16 34 34 34s34 -12 34 -34c0 -20 -16 -34 -34 -34zM96 0v478h30v-478h-30zM112 -190c-18 0 -32 14 -32 36c0 20 14 34 32 34s32 -14 32 -34c0 -22 -14 -36 -32 -36z" />
    <glyph glyph-name="uni1ECC" unicode="&#x1ecc;" horiz-adv-x="648" 
d="M324 -12c-156 0 -268 136 -268 344s112 340 268 340s268 -132 268 -340s-112 -344 -268 -344zM324 18c140 0 234 124 234 314s-94 310 -234 310s-234 -120 -234 -310s94 -314 234 -314zM324 -190c-18 0 -32 14 -32 36c0 20 14 34 32 34s32 -14 32 -34
c0 -22 -14 -36 -32 -36z" />
    <glyph glyph-name="uni1ECD" unicode="&#x1ecd;" horiz-adv-x="532" 
d="M54 238c0 160 98 252 212 252s212 -92 212 -252c0 -158 -98 -250 -212 -250s-212 92 -212 250zM86 238c0 -132 78 -222 180 -222s180 90 180 222s-78 224 -180 224s-180 -92 -180 -224zM267 -190c-18 0 -32 14 -32 36c0 20 14 34 32 34s32 -14 32 -34
c0 -22 -14 -36 -32 -36z" />
    <glyph glyph-name="uni1ECE" unicode="&#x1ece;" horiz-adv-x="648" 
d="M324 -12c-156 0 -268 136 -268 344s112 340 268 340s268 -132 268 -340s-112 -344 -268 -344zM324 18c140 0 234 124 234 314s-94 310 -234 310s-234 -120 -234 -310s94 -314 234 -314zM302 704l-8 22c38 12 66 28 66 58c0 32 -32 48 -86 50l2 26c58 -2 114 -22 114 -72
s-44 -70 -88 -84z" />
    <glyph glyph-name="uni1ECF" unicode="&#x1ecf;" horiz-adv-x="532" 
d="M54 238c0 160 98 252 212 252s212 -92 212 -252c0 -158 -98 -250 -212 -250s-212 92 -212 250zM86 238c0 -132 78 -222 180 -222s180 90 180 222s-78 224 -180 224s-180 -92 -180 -224zM244 550l-8 22c38 12 66 28 66 58c0 32 -32 48 -86 50l2 26c58 -2 114 -22 114 -72
s-44 -70 -88 -84z" />
    <glyph glyph-name="uni1ED0" unicode="&#x1ed0;" horiz-adv-x="648" 
d="M324 -12c-156 0 -268 136 -268 344s112 340 268 340s268 -132 268 -340s-112 -344 -268 -344zM324 18c140 0 234 124 234 314s-94 310 -234 310s-234 -120 -234 -310s94 -314 234 -314zM398 770l72 104h38l-84 -104h-26zM220 710l90 98h28l90 -98h-30l-72 68h-4l-72 -68
h-30z" />
    <glyph glyph-name="uni1ED1" unicode="&#x1ed1;" horiz-adv-x="532" 
d="M54 238c0 160 98 252 212 252s212 -92 212 -252c0 -158 -98 -250 -212 -250s-212 92 -212 250zM86 238c0 -132 78 -222 180 -222s180 90 180 222s-78 224 -180 224s-180 -92 -180 -224zM168 572l84 112h28l84 -112h-28l-68 80h-4l-68 -80h-28zM340 636l78 110h38
l-90 -110h-26z" />
    <glyph glyph-name="uni1ED2" unicode="&#x1ed2;" horiz-adv-x="648" 
d="M324 -12c-156 0 -268 136 -268 344s112 340 268 340s268 -132 268 -340s-112 -344 -268 -344zM324 18c140 0 234 124 234 314s-94 310 -234 310s-234 -120 -234 -310s94 -314 234 -314zM392 874l72 -104h-26l-84 104h38zM220 710l90 98h28l90 -98h-30l-72 68h-4l-72 -68
h-30z" />
    <glyph glyph-name="uni1ED3" unicode="&#x1ed3;" horiz-adv-x="532" 
d="M54 238c0 160 98 252 212 252s212 -92 212 -252c0 -158 -98 -250 -212 -250s-212 92 -212 250zM86 238c0 -132 78 -222 180 -222s180 90 180 222s-78 224 -180 224s-180 -92 -180 -224zM168 572l84 112h28l84 -112h-28l-68 80h-4l-68 -80h-28zM350 746l78 -110h-26
l-90 110h38z" />
    <glyph glyph-name="uni1ED4" unicode="&#x1ed4;" horiz-adv-x="648" 
d="M324 -12c-156 0 -268 136 -268 344s112 340 268 340s268 -132 268 -340s-112 -344 -268 -344zM324 18c140 0 234 124 234 314s-94 310 -234 310s-234 -120 -234 -310s94 -314 234 -314zM421 758l-10 24c30 8 54 20 54 44c0 32 -26 42 -74 44l4 26c52 -2 100 -18 100 -66
c0 -44 -40 -62 -74 -72zM220 710l90 98h28l90 -98h-30l-72 68h-4l-72 -68h-30z" />
    <glyph glyph-name="uni1ED5" unicode="&#x1ed5;" horiz-adv-x="532" 
d="M54 238c0 160 98 252 212 252s212 -92 212 -252c0 -158 -98 -250 -212 -250s-212 92 -212 250zM86 238c0 -132 78 -222 180 -222s180 90 180 222s-78 224 -180 224s-180 -92 -180 -224zM168 572l84 112h28l84 -112h-28l-68 80h-4l-68 -80h-28zM364 628l-8 22
c30 10 52 24 52 48c0 32 -24 46 -72 48l2 24c52 -2 100 -20 100 -68c0 -44 -40 -62 -74 -74z" />
    <glyph glyph-name="uni1ED6" unicode="&#x1ed6;" horiz-adv-x="648" 
d="M324 -12c-156 0 -268 136 -268 344s112 340 268 340s268 -132 268 -340s-112 -344 -268 -344zM324 18c140 0 234 124 234 314s-94 310 -234 310s-234 -120 -234 -310s94 -314 234 -314zM220 710l90 98h28l90 -98h-30l-72 68h-4l-72 -68h-30zM230 842h-24
c2 32 21 76 68 76c48 0 66 -50 102 -50c22 0 38 20 42 50h24c-2 -32 -21 -76 -68 -76c-48 0 -66 50 -102 50c-22 0 -38 -20 -42 -50z" />
    <glyph glyph-name="uni1ED7" unicode="&#x1ed7;" horiz-adv-x="532" 
d="M54 238c0 160 98 252 212 252s212 -92 212 -252c0 -158 -98 -250 -212 -250s-212 92 -212 250zM86 238c0 -132 78 -222 180 -222s180 90 180 222s-78 224 -180 224s-180 -92 -180 -224zM160 570l92 98h28l92 -98h-28l-76 70h-4l-76 -70h-28zM172 704h-24
c2 32 21 72 68 72c48 0 66 -46 102 -46c22 0 38 16 42 46h24c-2 -32 -21 -72 -68 -72c-48 0 -66 46 -102 46c-22 0 -38 -16 -42 -46z" />
    <glyph glyph-name="uni1ED8" unicode="&#x1ed8;" horiz-adv-x="648" 
d="M324 -12c-156 0 -268 136 -268 344s112 340 268 340s268 -132 268 -340s-112 -344 -268 -344zM324 18c140 0 234 124 234 314s-94 310 -234 310s-234 -120 -234 -310s94 -314 234 -314zM244 710h-30l96 104h28l96 -104h-30l-78 74h-4zM324 -190c-18 0 -32 14 -32 36
c0 20 14 34 32 34s32 -14 32 -34c0 -22 -14 -36 -32 -36z" />
    <glyph glyph-name="uni1ED9" unicode="&#x1ed9;" horiz-adv-x="532" 
d="M54 238c0 160 98 252 212 252s212 -92 212 -252c0 -158 -98 -250 -212 -250s-212 92 -212 250zM86 238c0 -132 78 -222 180 -222s180 90 180 222s-78 224 -180 224s-180 -92 -180 -224zM158 572l94 134h28l94 -134h-28l-78 102h-4l-78 -102h-28zM267 -190
c-18 0 -32 14 -32 36c0 20 14 34 32 34s32 -14 32 -34c0 -22 -14 -36 -32 -36z" />
    <glyph glyph-name="uni1EDA" unicode="&#x1eda;" horiz-adv-x="648" 
d="M430 814l-108 -104h-30l94 104h44zM328 18c140 0 234 124 234 314s-94 310 -234 310s-234 -120 -234 -310s94 -314 234 -314zM536 748l26 16c12 -18 18 -34 18 -52c0 -51 -37 -80 -97 -94c70 -57 113 -157 113 -286c0 -208 -112 -344 -268 -344s-268 136 -268 344
s112 340 268 340c45 0 86 -11 123 -32c68 9 99 32 99 70c0 12 -4 24 -14 38z" />
    <glyph glyph-name="uni1EDB" unicode="&#x1edb;" horiz-adv-x="532" 
d="M346 706l-104 -134h-28l92 134h40zM266 16c102 0 180 90 180 222s-78 224 -180 224s-180 -92 -180 -224s78 -222 180 -222zM434 576l26 16c12 -18 18 -34 18 -52c0 -57 -45 -80 -89 -92c54 -42 89 -114 89 -210c0 -158 -98 -250 -212 -250s-212 92 -212 250
c0 160 98 252 212 252c33 0 64 -8 92 -22c60 9 90 31 90 70c0 12 -4 24 -14 38z" />
    <glyph glyph-name="uni1EDC" unicode="&#x1edc;" horiz-adv-x="648" 
d="M356 710h-30l-108 104h44zM328 18c140 0 234 124 234 314s-94 310 -234 310s-234 -120 -234 -310s94 -314 234 -314zM536 748l26 16c12 -18 18 -34 18 -52c0 -51 -37 -80 -97 -94c70 -57 113 -157 113 -286c0 -208 -112 -344 -268 -344s-268 136 -268 344
s112 340 268 340c45 0 86 -11 123 -32c68 9 99 32 99 70c0 12 -4 24 -14 38z" />
    <glyph glyph-name="uni1EDD" unicode="&#x1edd;" horiz-adv-x="532" 
d="M318 572h-28l-104 134h40zM266 16c102 0 180 90 180 222s-78 224 -180 224s-180 -92 -180 -224s78 -222 180 -222zM434 576l26 16c12 -18 18 -34 18 -52c0 -57 -45 -80 -89 -92c54 -42 89 -114 89 -210c0 -158 -98 -250 -212 -250s-212 92 -212 250c0 160 98 252 212 252
c33 0 64 -8 92 -22c60 9 90 31 90 70c0 12 -4 24 -14 38z" />
    <glyph glyph-name="uni1EDE" unicode="&#x1ede;" horiz-adv-x="648" 
d="M302 704l-8 22c38 12 66 28 66 58c0 32 -32 48 -86 50l2 26c58 -2 114 -22 114 -72s-44 -70 -88 -84zM328 18c140 0 234 124 234 314s-94 310 -234 310s-234 -120 -234 -310s94 -314 234 -314zM536 748l26 16c12 -18 18 -34 18 -52c0 -51 -37 -80 -97 -94
c70 -57 113 -157 113 -286c0 -208 -112 -344 -268 -344s-268 136 -268 344s112 340 268 340c45 0 86 -11 123 -32c68 9 99 32 99 70c0 12 -4 24 -14 38z" />
    <glyph glyph-name="uni1EDF" unicode="&#x1edf;" horiz-adv-x="532" 
d="M244 550l-8 22c38 12 66 28 66 58c0 32 -32 48 -86 50l2 26c58 -2 114 -22 114 -72s-44 -70 -88 -84zM266 16c102 0 180 90 180 222s-78 224 -180 224s-180 -92 -180 -224s78 -222 180 -222zM434 576l26 16c12 -18 18 -34 18 -52c0 -57 -45 -80 -89 -92
c54 -42 89 -114 89 -210c0 -158 -98 -250 -212 -250s-212 92 -212 250c0 160 98 252 212 252c33 0 64 -8 92 -22c60 9 90 31 90 70c0 12 -4 24 -14 38z" />
    <glyph glyph-name="uni1EE0" unicode="&#x1ee0;" horiz-adv-x="648" 
d="M426 804h22c-2 -38 -22 -86 -66 -86c-52 0 -76 58 -118 58c-22 0 -38 -24 -42 -58h-22c2 38 22 86 66 86c52 0 76 -58 118 -58c22 0 38 24 42 58zM328 18c140 0 234 124 234 314s-94 310 -234 310s-234 -120 -234 -310s94 -314 234 -314zM536 748l26 16
c12 -18 18 -34 18 -52c0 -51 -37 -80 -97 -94c70 -57 113 -157 113 -286c0 -208 -112 -344 -268 -344s-268 136 -268 344s112 340 268 340c45 0 86 -11 123 -32c68 9 99 32 99 70c0 12 -4 24 -14 38z" />
    <glyph glyph-name="uni1EE1" unicode="&#x1ee1;" horiz-adv-x="532" 
d="M360 664h24c-2 -35 -17 -82 -64 -82c-48 0 -73 56 -110 56c-22 0 -34 -21 -38 -56h-24c2 36 17 82 64 82c48 0 75 -56 110 -56c22 0 34 22 38 56zM266 16c102 0 180 90 180 222s-78 224 -180 224s-180 -92 -180 -224s78 -222 180 -222zM434 576l26 16
c12 -18 18 -34 18 -52c0 -57 -45 -80 -89 -92c54 -42 89 -114 89 -210c0 -158 -98 -250 -212 -250s-212 92 -212 250c0 160 98 252 212 252c33 0 64 -8 92 -22c60 9 90 31 90 70c0 12 -4 24 -14 38z" />
    <glyph glyph-name="uni1EE2" unicode="&#x1ee2;" horiz-adv-x="648" 
d="M324 -120c18 0 32 -14 32 -34c0 -22 -14 -36 -32 -36s-32 14 -32 36c0 20 14 34 32 34zM328 18c140 0 234 124 234 314s-94 310 -234 310s-234 -120 -234 -310s94 -314 234 -314zM536 748l26 16c12 -18 18 -34 18 -52c0 -51 -37 -80 -97 -94c70 -57 113 -157 113 -286
c0 -208 -112 -344 -268 -344s-268 136 -268 344s112 340 268 340c45 0 86 -11 123 -32c68 9 99 32 99 70c0 12 -4 24 -14 38z" />
    <glyph glyph-name="uni1EE3" unicode="&#x1ee3;" horiz-adv-x="532" 
d="M267 -120c18 0 32 -14 32 -34c0 -22 -14 -36 -32 -36s-32 14 -32 36c0 20 14 34 32 34zM266 16c102 0 180 90 180 222s-78 224 -180 224s-180 -92 -180 -224s78 -222 180 -222zM434 576l26 16c12 -18 18 -34 18 -52c0 -57 -45 -80 -89 -92c54 -42 89 -114 89 -210
c0 -158 -98 -250 -212 -250s-212 92 -212 250c0 160 98 252 212 252c33 0 64 -8 92 -22c60 9 90 31 90 70c0 12 -4 24 -14 38z" />
    <glyph glyph-name="uni1EE4" unicode="&#x1ee4;" horiz-adv-x="630" 
d="M98 246v414h32v-406c0 -182 88 -236 184 -236c98 0 188 54 188 236v406h30v-414c0 -204 -112 -258 -218 -258s-216 54 -216 258zM315 -190c-18 0 -32 14 -32 36c0 20 14 34 32 34s32 -14 32 -34c0 -22 -14 -36 -32 -36z" />
    <glyph glyph-name="uni1EE5" unicode="&#x1ee5;" horiz-adv-x="524" 
d="M88 170v308h30v-304c0 -106 34 -158 116 -158c60 0 104 32 164 104v358h30v-478h-26l-4 82h-2c-48 -56 -98 -94 -164 -94c-98 0 -144 58 -144 182zM280 -190c-18 0 -32 14 -32 36c0 20 14 34 32 34s32 -14 32 -34c0 -22 -14 -36 -32 -36z" />
    <glyph glyph-name="uni1EE6" unicode="&#x1ee6;" horiz-adv-x="630" 
d="M98 246v414h32v-406c0 -182 88 -236 184 -236c98 0 188 54 188 236v406h30v-414c0 -204 -112 -258 -218 -258s-216 54 -216 258zM293 704l-8 22c38 12 66 28 66 58c0 32 -32 48 -86 50l2 26c58 -2 114 -22 114 -72s-44 -70 -88 -84z" />
    <glyph glyph-name="uni1EE7" unicode="&#x1ee7;" horiz-adv-x="524" 
d="M88 170v308h30v-304c0 -106 34 -158 116 -158c60 0 104 32 164 104v358h30v-478h-26l-4 82h-2c-48 -56 -98 -94 -164 -94c-98 0 -144 58 -144 182zM240 550l-8 22c38 12 66 28 66 58c0 32 -32 48 -86 50l2 26c58 -2 114 -22 114 -72s-44 -70 -88 -84z" />
    <glyph glyph-name="uni1EE8" unicode="&#x1ee8;" horiz-adv-x="640" 
d="M420 814l-108 -104h-30l94 104h44zM586 768l26 16c12 -18 18 -34 18 -52c0 -60 -48 -82 -98 -94v-392c0 -204 -112 -258 -218 -258s-216 54 -216 258v414h32v-406c0 -182 88 -236 184 -236c98 0 188 54 188 236v406h2c68 8 96 30 96 70c0 12 -4 24 -14 38z" />
    <glyph glyph-name="uni1EE9" unicode="&#x1ee9;" horiz-adv-x="524" 
d="M339 706l-104 -134h-28l92 134h40zM472 586l26 16c12 -18 18 -34 18 -52c0 -60 -50 -82 -88 -92v-458h-26l-4 82h-2c-48 -56 -98 -94 -164 -94c-98 0 -144 58 -144 182v308h30v-304c0 -106 34 -158 116 -158c60 0 104 32 164 104v358h2c54 8 86 30 86 70
c0 12 -4 24 -14 38z" />
    <glyph glyph-name="uni1EEA" unicode="&#x1eea;" horiz-adv-x="640" 
d="M346 710h-30l-108 104h44zM586 768l26 16c12 -18 18 -34 18 -52c0 -60 -48 -82 -98 -94v-392c0 -204 -112 -258 -218 -258s-216 54 -216 258v414h32v-406c0 -182 88 -236 184 -236c98 0 188 54 188 236v406h2c68 8 96 30 96 70c0 12 -4 24 -14 38z" />
    <glyph glyph-name="uni1EEB" unicode="&#x1eeb;" horiz-adv-x="524" 
d="M311 572h-28l-104 134h40zM472 586l26 16c12 -18 18 -34 18 -52c0 -60 -50 -82 -88 -92v-458h-26l-4 82h-2c-48 -56 -98 -94 -164 -94c-98 0 -144 58 -144 182v308h30v-304c0 -106 34 -158 116 -158c60 0 104 32 164 104v358h2c54 8 86 30 86 70c0 12 -4 24 -14 38z" />
    <glyph glyph-name="uni1EEC" unicode="&#x1eec;" horiz-adv-x="640" 
d="M292 704l-8 22c38 12 66 28 66 58c0 32 -32 48 -86 50l2 26c58 -2 114 -22 114 -72s-44 -70 -88 -84zM586 768l26 16c12 -18 18 -34 18 -52c0 -60 -48 -82 -98 -94v-392c0 -204 -112 -258 -218 -258s-216 54 -216 258v414h32v-406c0 -182 88 -236 184 -236
c98 0 188 54 188 236v406h2c68 8 96 30 96 70c0 12 -4 24 -14 38z" />
    <glyph glyph-name="uni1EED" unicode="&#x1eed;" horiz-adv-x="524" 
d="M237 550l-8 22c38 12 66 28 66 58c0 32 -32 48 -86 50l2 26c58 -2 114 -22 114 -72s-44 -70 -88 -84zM472 586l26 16c12 -18 18 -34 18 -52c0 -60 -50 -82 -88 -92v-458h-26l-4 82h-2c-48 -56 -98 -94 -164 -94c-98 0 -144 58 -144 182v308h30v-304
c0 -106 34 -158 116 -158c60 0 104 32 164 104v358h2c54 8 86 30 86 70c0 12 -4 24 -14 38z" />
    <glyph glyph-name="uni1EEE" unicode="&#x1eee;" horiz-adv-x="640" 
d="M416 804h22c-2 -38 -22 -86 -66 -86c-52 0 -76 58 -118 58c-22 0 -38 -24 -42 -58h-22c2 38 22 86 66 86c52 0 76 -58 118 -58c22 0 38 24 42 58zM586 768l26 16c12 -18 18 -34 18 -52c0 -60 -48 -82 -98 -94v-392c0 -204 -112 -258 -218 -258s-216 54 -216 258v414h32
v-406c0 -182 88 -236 184 -236c98 0 188 54 188 236v406h2c68 8 96 30 96 70c0 12 -4 24 -14 38z" />
    <glyph glyph-name="uni1EEF" unicode="&#x1eef;" horiz-adv-x="524" 
d="M353 664h24c-2 -35 -17 -82 -64 -82c-48 0 -73 56 -110 56c-22 0 -34 -21 -38 -56h-24c2 36 17 82 64 82c48 0 75 -56 110 -56c22 0 34 22 38 56zM472 586l26 16c12 -18 18 -34 18 -52c0 -60 -50 -82 -88 -92v-458h-26l-4 82h-2c-48 -56 -98 -94 -164 -94
c-98 0 -144 58 -144 182v308h30v-304c0 -106 34 -158 116 -158c60 0 104 32 164 104v358h2c54 8 86 30 86 70c0 12 -4 24 -14 38z" />
    <glyph glyph-name="uni1EF0" unicode="&#x1ef0;" horiz-adv-x="640" 
d="M314 -120c18 0 32 -14 32 -34c0 -22 -14 -36 -32 -36s-32 14 -32 36c0 20 14 34 32 34zM586 768l26 16c12 -18 18 -34 18 -52c0 -60 -48 -82 -98 -94v-392c0 -204 -112 -258 -218 -258s-216 54 -216 258v414h32v-406c0 -182 88 -236 184 -236c98 0 188 54 188 236v406h2
c68 8 96 30 96 70c0 12 -4 24 -14 38z" />
    <glyph glyph-name="uni1EF1" unicode="&#x1ef1;" horiz-adv-x="524" 
d="M278 -120c18 0 32 -14 32 -34c0 -22 -14 -36 -32 -36s-32 14 -32 36c0 20 14 34 32 34zM472 586l26 16c12 -18 18 -34 18 -52c0 -60 -50 -82 -88 -92v-458h-26l-4 82h-2c-48 -56 -98 -94 -164 -94c-98 0 -144 58 -144 182v308h30v-304c0 -106 34 -158 116 -158
c60 0 104 32 164 104v358h2c54 8 86 30 86 70c0 12 -4 24 -14 38z" />
    <glyph glyph-name="Ygrave" unicode="&#x1ef2;" horiz-adv-x="436" 
d="M202 0v272l-198 388h34l106 -214c24 -48 46 -94 72 -142h4c26 48 52 94 74 142l106 214h32l-198 -388v-272h-32zM220 710l-108 104h44l94 -104h-30z" />
    <glyph glyph-name="ygrave" unicode="&#x1ef3;" horiz-adv-x="424" 
d="M28 -184c10 -4 26 -8 40 -8c60 0 102 58 128 136l14 44l-198 490h34l122 -314c16 -40 36 -92 54 -134h4c16 42 32 94 46 134l108 314h32l-192 -546c-24 -74 -72 -154 -154 -154c-16 0 -34 4 -46 10zM248 572l-104 134h40l92 -134h-28z" />
    <glyph glyph-name="uni1EF4" unicode="&#x1ef4;" horiz-adv-x="436" 
d="M202 0v272l-198 388h34l106 -214c24 -48 46 -94 72 -142h4c26 48 52 94 74 142l106 214h32l-198 -388v-272h-32zM220 -190c-18 0 -32 14 -32 36c0 20 14 34 32 34s32 -14 32 -34c0 -22 -14 -36 -32 -36z" />
    <glyph glyph-name="uni1EF5" unicode="&#x1ef5;" horiz-adv-x="424" 
d="M28 -184c10 -4 26 -8 40 -8c60 0 102 58 128 136l14 44l-198 490h34l122 -314c16 -40 36 -92 54 -134h4c16 42 32 94 46 134l108 314h32l-192 -546c-24 -74 -72 -154 -154 -154c-16 0 -34 4 -46 10zM348 -190c-18 0 -32 14 -32 36c0 20 14 34 32 34s32 -14 32 -34
c0 -22 -14 -36 -32 -36z" />
    <glyph glyph-name="uni1EF6" unicode="&#x1ef6;" horiz-adv-x="436" 
d="M202 0v272l-198 388h34l106 -214c24 -48 46 -94 72 -142h4c26 48 52 94 74 142l106 214h32l-198 -388v-272h-32zM196 704l-8 22c38 12 66 28 66 58c0 32 -32 48 -86 50l2 26c58 -2 114 -22 114 -72s-44 -70 -88 -84z" />
    <glyph glyph-name="uni1EF7" unicode="&#x1ef7;" horiz-adv-x="424" 
d="M28 -184c10 -4 26 -8 40 -8c60 0 102 58 128 136l14 44l-198 490h34l122 -314c16 -40 36 -92 54 -134h4c16 42 32 94 46 134l108 314h32l-192 -546c-24 -74 -72 -154 -154 -154c-16 0 -34 4 -46 10zM202 550l-8 22c38 12 66 28 66 58c0 32 -32 48 -86 50l2 26
c58 -2 114 -22 114 -72s-44 -70 -88 -84z" />
    <glyph glyph-name="uni1EF8" unicode="&#x1ef8;" horiz-adv-x="436" 
d="M202 0v272l-198 388h34l106 -214c24 -48 46 -94 72 -142h4c26 48 52 94 74 142l106 214h32l-198 -388v-272h-32zM276 718c-52 0 -76 58 -118 58c-22 0 -38 -24 -42 -58h-22c2 38 22 86 66 86c52 0 76 -58 118 -58c22 0 38 24 42 58h22c-2 -38 -22 -86 -66 -86z" />
    <glyph glyph-name="uni1EF9" unicode="&#x1ef9;" horiz-adv-x="424" 
d="M28 -184c10 -4 26 -8 40 -8c60 0 102 58 128 136l14 44l-198 490h34l122 -314c16 -40 36 -92 54 -134h4c16 42 32 94 46 134l108 314h32l-192 -546c-24 -74 -72 -154 -154 -154c-16 0 -34 4 -46 10zM106 582c2 36 17 82 64 82c48 0 75 -56 110 -56c22 0 34 22 38 56h24
c-2 -35 -17 -82 -64 -82c-48 0 -73 56 -110 56c-22 0 -34 -21 -38 -56h-24z" />
    <glyph glyph-name="uni2007" unicode="&#x2007;" horiz-adv-x="472" 
 />
    <glyph glyph-name="figuredash" unicode="&#x2012;" horiz-adv-x="472" 
d="M40 236v28h394v-28h-394z" />
    <glyph glyph-name="endash" unicode="&#x2013;" horiz-adv-x="480" 
d="M40 236v28h400v-28h-400z" />
    <glyph glyph-name="emdash" unicode="&#x2014;" horiz-adv-x="800" 
d="M40 236v28h720v-28h-720z" />
    <glyph glyph-name="uni2015" unicode="&#x2015;" horiz-adv-x="800" 
d="M40 236v28h720v-28h-720z" />
    <glyph glyph-name="uni2016" unicode="&#x2016;" horiz-adv-x="340" 
d="M96 -250v1000h28v-1000h-28zM216 -250v1000h28v-1000h-28z" />
    <glyph glyph-name="quoteleft" unicode="&#x2018;" horiz-adv-x="208" 
d="M136 706l16 -18c-42 -36 -64 -67 -64 -123c2 1 5 1 8 1c16 0 34 -10 34 -32s-14 -34 -34 -34c-22 0 -38 20 -38 58c0 68 30 114 78 148z" />
    <glyph glyph-name="quoteright" unicode="&#x2019;" horiz-adv-x="208" 
d="M72 494l-16 18c42 36 64 67 64 123c-2 -1 -5 -1 -8 -1c-16 0 -34 10 -34 32s14 34 34 34c22 0 38 -20 38 -58c0 -68 -30 -114 -78 -148z" />
    <glyph glyph-name="quotesinglbase" unicode="&#x201a;" horiz-adv-x="208" 
d="M72 -126l-16 18c42 36 64 67 64 123c-2 -1 -5 -1 -8 -1c-16 0 -34 10 -34 32s14 34 34 34c22 0 38 -20 38 -58c0 -68 -30 -114 -78 -148z" />
    <glyph glyph-name="quotedblleft" unicode="&#x201c;" horiz-adv-x="336" 
d="M136 706l16 -18c-42 -36 -64 -67 -64 -123c2 1 5 1 8 1c16 0 34 -10 34 -32s-14 -34 -34 -34c-22 0 -38 20 -38 58c0 68 30 114 78 148zM264 706l16 -18c-42 -36 -64 -67 -64 -123c2 1 5 1 8 1c16 0 34 -10 34 -32s-14 -34 -34 -34c-22 0 -38 20 -38 58
c0 68 30 114 78 148z" />
    <glyph glyph-name="quotedblright" unicode="&#x201d;" horiz-adv-x="336" 
d="M72 494l-16 18c42 36 64 67 64 123c-2 -1 -5 -1 -8 -1c-16 0 -34 10 -34 32s14 34 34 34c22 0 38 -20 38 -58c0 -68 -30 -114 -78 -148zM200 494l-16 18c42 36 64 67 64 123c-2 -1 -5 -1 -8 -1c-16 0 -34 10 -34 32s14 34 34 34c22 0 38 -20 38 -58
c0 -68 -30 -114 -78 -148z" />
    <glyph glyph-name="quotedblbase" unicode="&#x201e;" horiz-adv-x="336" 
d="M72 -126l-16 18c42 36 64 67 64 123c-2 -1 -5 -1 -8 -1c-16 0 -34 10 -34 32s14 34 34 34c22 0 38 -20 38 -58c0 -68 -30 -114 -78 -148zM200 -126l-16 18c42 36 64 67 64 123c-2 -1 -5 -1 -8 -1c-16 0 -34 10 -34 32s14 34 34 34c22 0 38 -20 38 -58
c0 -68 -30 -114 -78 -148z" />
    <glyph glyph-name="dagger" unicode="&#x2020;" horiz-adv-x="408" 
d="M188 -80l2 614l-128 -2v32l128 -2l-2 150h32l-2 -150l128 2v-32l-128 2l2 -614h-32z" />
    <glyph glyph-name="daggerdbl" unicode="&#x2021;" horiz-adv-x="408" 
d="M62 68v32l128 -2l-2 218l2 218l-128 -2v32l128 -2l-2 150h32l-2 -150l128 2v-32l-128 2l2 -218l-2 -218l128 2v-32l-128 2l2 -150h-32l2 150z" />
    <glyph glyph-name="bullet" unicode="&#x2022;" horiz-adv-x="272" 
d="M136 158c-48 0 -96 40 -96 106s48 106 96 106s96 -40 96 -106s-48 -106 -96 -106z" />
    <glyph glyph-name="ellipsis" unicode="&#x2026;" horiz-adv-x="924" 
d="M108 26c0 26 18 40 36 40s36 -14 36 -40c0 -24 -18 -38 -36 -38s-36 14 -36 38zM446 26c0 26 18 40 36 40s36 -14 36 -40c0 -24 -18 -38 -36 -38s-36 14 -36 38zM784 26c0 26 18 40 36 40s36 -14 36 -40c0 -24 -18 -38 -36 -38s-36 14 -36 38z" />
    <glyph glyph-name="perthousand" unicode="&#x2030;" horiz-adv-x="1150" 
d="M224 -12h-32l370 684h32zM180 258c-86 0 -138 74 -138 208c0 132 52 206 138 206s138 -74 138 -206c0 -134 -52 -208 -138 -208zM180 284c66 0 108 68 108 182s-42 180 -108 180s-108 -66 -108 -180s42 -182 108 -182zM614 -12c-86 0 -138 74 -138 208
c0 132 52 206 138 206s138 -74 138 -206c0 -134 -52 -208 -138 -208zM614 14c66 0 108 68 108 182s-42 180 -108 180s-108 -66 -108 -180s42 -182 108 -182zM970 -12c-86 0 -138 74 -138 208c0 132 52 206 138 206s138 -74 138 -206c0 -134 -52 -208 -138 -208zM970 14
c66 0 108 68 108 182s-42 180 -108 180s-108 -66 -108 -180s42 -182 108 -182z" />
    <glyph glyph-name="uni2032" unicode="&#x2032;" horiz-adv-x="208" 
d="M82 498l24 196h28l-8 -64l-24 -132h-20z" />
    <glyph glyph-name="uni2033" unicode="&#x2033;" horiz-adv-x="336" 
d="M82 498l24 196h28l-8 -64l-24 -132h-20zM210 498l24 196h28l-8 -64l-24 -132h-20z" />
    <glyph glyph-name="guilsinglleft" unicode="&#x2039;" horiz-adv-x="254" 
d="M180 74l-138 164v28l138 164l20 -18l-124 -160l124 -162z" />
    <glyph glyph-name="guilsinglright" unicode="&#x203a;" horiz-adv-x="254" 
d="M54 90l124 162l-124 160l20 18l138 -164v-28l-138 -164z" />
    <glyph glyph-name="uni203D" unicode="&#x203d;" horiz-adv-x="394" 
d="M198 488l-4 -186c39 84 116 137 116 228c0 64 -36 124 -120 124c-50 0 -100 -24 -134 -66l-20 18c38 42 88 76 156 76c96 0 150 -68 150 -150c0 -120 -128 -184 -149 -302l-1 -58h-18h-4l-4 316v62h32v-62zM182 66c18 0 36 -14 36 -40c0 -24 -18 -38 -36 -38
s-36 14 -36 38c0 26 18 40 36 40z" />
    <glyph glyph-name="fraction" unicode="&#x2044;" horiz-adv-x="78" 
d="M-132 -12h-32l370 684h32z" />
    <glyph glyph-name="zero.sups" unicode="&#x2070;" horiz-adv-x="360" 
d="M180 428c-86 0 -138 74 -138 208c0 132 52 206 138 206s138 -74 138 -206c0 -134 -52 -208 -138 -208zM180 454c66 0 108 68 108 182s-42 180 -108 180s-108 -66 -108 -180s42 -182 108 -182z" />
    <glyph glyph-name="i.sups" unicode="&#x2071;" horiz-adv-x="148" 
d="M76 662c-16 0 -28 12 -28 28s12 28 28 28s28 -12 28 -28s-12 -28 -28 -28zM60 270v316h28v-316h-28z" />
    <glyph glyph-name="four.sups" unicode="&#x2074;" horiz-adv-x="360" 
d="M88 584h136v94l4 102h-4l-58 -84zM310 584v-26h-58v-118h-28v118h-176v16l182 256h22v-246h58z" />
    <glyph glyph-name="five.sups" unicode="&#x2075;" horiz-adv-x="360" 
d="M42 502l24 18c26 -38 62 -66 116 -66c56 0 98 44 98 108c0 66 -40 108 -100 108c-38 0 -64 -20 -86 -38l-20 14l20 184h194v-28h-168l-14 -128c20 12 44 22 76 22c72 0 128 -46 128 -134c0 -82 -58 -134 -130 -134c-68 0 -110 36 -138 74z" />
    <glyph glyph-name="six.sups" unicode="&#x2076;" horiz-adv-x="360" 
d="M194 454c54 0 90 46 90 102s-32 100 -94 100c-38 0 -69 -13 -108 -54c5 -93 46 -148 112 -148zM292 820l-14 -26c-18 12 -40 22 -68 22c-58 0 -123 -50 -128 -180c33 30 69 46 110 46c80 0 122 -54 122 -126s-52 -128 -122 -128c-82 0 -140 68 -140 190
c0 166 80 224 160 224c36 0 58 -8 80 -22z" />
    <glyph glyph-name="seven.sups" unicode="&#x2077;" horiz-adv-x="360" 
d="M142 440c10 146 42 250 130 364h-222v26h256v-18c-100 -128 -126 -232 -134 -372h-30z" />
    <glyph glyph-name="eight.sups" unicode="&#x2078;" horiz-adv-x="360" 
d="M80 538c0 -42 38 -84 98 -84c54 0 98 38 98 84c0 62 -62 76 -126 100c-46 -26 -70 -60 -70 -100zM206 650c38 28 56 60 56 94c0 42 -38 70 -84 70c-44 0 -80 -30 -80 -72c0 -48 48 -74 108 -92zM50 536c0 52 36 92 76 114v4c-34 22 -58 46 -58 88c0 58 48 100 110 100
c64 0 114 -40 114 -100c0 -52 -38 -82 -60 -100v-4c48 -24 74 -52 74 -98c0 -64 -56 -112 -128 -112c-78 0 -128 50 -128 108z" />
    <glyph glyph-name="nine.sups" unicode="&#x2079;" horiz-adv-x="360" 
d="M166 614c38 0 69 13 108 54c-5 93 -46 148 -112 148c-54 0 -90 -46 -90 -102s32 -100 94 -100zM64 450l14 26c18 -12 40 -22 68 -22c58 0 123 50 128 180c-33 -30 -69 -46 -110 -46c-80 0 -122 54 -122 126s52 128 122 128c82 0 140 -68 140 -190
c0 -166 -80 -224 -160 -224c-36 0 -58 8 -80 22z" />
    <glyph glyph-name="parenleft.sups" unicode="&#x207d;" horiz-adv-x="212" 
d="M152 370c-56 76 -86 156 -86 264c0 106 30 186 86 262l18 -14c-56 -76 -74 -160 -74 -248s18 -172 74 -250z" />
    <glyph glyph-name="parenright.sups" unicode="&#x207e;" horiz-adv-x="212" 
d="M42 384c56 78 74 162 74 250s-18 172 -74 248l20 14c54 -76 84 -156 84 -262c0 -108 -30 -188 -84 -264z" />
    <glyph glyph-name="n.sups" unicode="&#x207f;" horiz-adv-x="356" 
d="M60 270v316h22l4 -48h4c30 32 68 56 110 56c76 0 100 -50 100 -120v-204h-28v198c0 60 -14 100 -76 100c-32 0 -66 -18 -108 -60v-238h-28z" />
    <glyph glyph-name="zero.subs" unicode="&#x2080;" horiz-adv-x="360" 
d="M180 -182c-86 0 -138 74 -138 208c0 132 52 206 138 206s138 -74 138 -206c0 -134 -52 -208 -138 -208zM180 -156c66 0 108 68 108 182s-42 180 -108 180s-108 -66 -108 -180s42 -182 108 -182z" />
    <glyph glyph-name="one.subs" unicode="&#x2081;" horiz-adv-x="360" 
d="M178 -170v330h-82v22c36 8 62 20 84 38h26v-390h-28z" />
    <glyph glyph-name="two.subs" unicode="&#x2082;" horiz-adv-x="360" 
d="M58 -170v20c138 130 196 190 196 258c0 60 -36 98 -90 98c-38 0 -72 -30 -94 -64l-20 18c22 38 68 72 116 72c70 0 118 -40 118 -122c0 -84 -72 -150 -178 -254h202v-26h-250z" />
    <glyph glyph-name="three.subs" unicode="&#x2083;" horiz-adv-x="360" 
d="M42 -108l24 18c24 -38 66 -66 112 -66c52 0 96 32 96 88c0 54 -56 84 -144 84v24c82 0 128 42 128 88s-34 78 -88 78c-32 0 -66 -22 -92 -54l-20 18c26 34 66 62 114 62c64 0 116 -38 116 -102c0 -50 -34 -84 -78 -100c48 -8 94 -42 94 -98c0 -72 -56 -114 -128 -114
c-60 0 -108 36 -134 74z" />
    <glyph glyph-name="four.subs" unicode="&#x2084;" horiz-adv-x="360" 
d="M88 -26h136v94l4 102h-4l-58 -84zM310 -26v-26h-58v-118h-28v118h-176v16l182 256h22v-246h58z" />
    <glyph glyph-name="five.subs" unicode="&#x2085;" horiz-adv-x="360" 
d="M42 -108l24 18c26 -38 62 -66 116 -66c56 0 98 44 98 108c0 66 -40 108 -100 108c-38 0 -64 -20 -86 -38l-20 14l20 184h194v-28h-168l-14 -128c20 12 44 22 76 22c72 0 128 -46 128 -134c0 -82 -58 -134 -130 -134c-68 0 -110 36 -138 74z" />
    <glyph glyph-name="six.subs" unicode="&#x2086;" horiz-adv-x="360" 
d="M194 -156c54 0 90 46 90 102s-32 100 -94 100c-38 0 -69 -13 -108 -54c5 -93 46 -148 112 -148zM292 210l-14 -26c-18 12 -40 22 -68 22c-58 0 -123 -50 -128 -180c33 30 69 46 110 46c80 0 122 -54 122 -126s-52 -128 -122 -128c-82 0 -140 68 -140 190
c0 166 80 224 160 224c36 0 58 -8 80 -22z" />
    <glyph glyph-name="seven.subs" unicode="&#x2087;" horiz-adv-x="360" 
d="M142 -170c10 146 42 250 130 364h-222v26h256v-18c-100 -128 -126 -232 -134 -372h-30z" />
    <glyph glyph-name="eight.subs" unicode="&#x2088;" horiz-adv-x="360" 
d="M80 -72c0 -42 38 -84 98 -84c54 0 98 38 98 84c0 62 -62 76 -126 100c-46 -26 -70 -60 -70 -100zM206 40c38 28 56 60 56 94c0 42 -38 70 -84 70c-44 0 -80 -30 -80 -72c0 -48 48 -74 108 -92zM50 -74c0 52 36 92 76 114v4c-34 22 -58 46 -58 88c0 58 48 100 110 100
c64 0 114 -40 114 -100c0 -52 -38 -82 -60 -100v-4c48 -24 74 -52 74 -98c0 -64 -56 -112 -128 -112c-78 0 -128 50 -128 108z" />
    <glyph glyph-name="nine.subs" unicode="&#x2089;" horiz-adv-x="360" 
d="M166 4c38 0 69 13 108 54c-5 93 -46 148 -112 148c-54 0 -90 -46 -90 -102s32 -100 94 -100zM64 -160l14 26c18 -12 40 -22 68 -22c58 0 123 50 128 180c-33 -30 -69 -46 -110 -46c-80 0 -122 54 -122 126s52 128 122 128c82 0 140 -68 140 -190
c0 -166 -80 -224 -160 -224c-36 0 -58 8 -80 22z" />
    <glyph glyph-name="parenleft.subs" unicode="&#x208d;" horiz-adv-x="212" 
d="M152 -240c-56 76 -86 156 -86 264c0 106 30 186 86 262l18 -14c-56 -76 -74 -160 -74 -248s18 -172 74 -250z" />
    <glyph glyph-name="parenright.subs" unicode="&#x208e;" horiz-adv-x="212" 
d="M42 -226c56 78 74 162 74 250s-18 172 -74 248l20 14c54 -76 84 -156 84 -262c0 -108 -30 -188 -84 -264z" />
    <glyph glyph-name="uni0259.sups" unicode="&#x2094;" horiz-adv-x="328" 
d="M156 262c-104 0 -128 92 -128 146c0 10 0 14 2 30h234c2 74 -36 130 -110 130c-38 0 -64 -14 -88 -30l-14 22c26 16 54 34 100 34c88 0 142 -58 142 -166c0 -102 -58 -166 -138 -166zM156 288c62 0 104 42 108 124h-208c0 -68 28 -124 100 -124z" />
    <glyph glyph-name="colonmonetary" unicode="&#x20a1;" horiz-adv-x="472" 
d="M267 621l-69 -577c20 -15 43 -24 69 -27l71 601c-12 4 -24 6 -38 6c-12 0 -23 -1 -33 -3zM173 67l65 546c-89 -33 -138 -139 -138 -291c0 -113 26 -203 73 -255zM426 100l22 -18c-40 -56 -87 -91 -156 -94l-12 -98h-28l12 99c-25 3 -49 10 -70 23l-14 -122h-28l17 140
c-65 54 -103 157 -103 292c0 173 66 292 175 322l13 106h28l-12 -100c10 1 20 2 30 2c15 0 28 -2 42 -6l12 104h28l-14 -115c30 -15 54 -38 70 -61l-22 -20c-15 21 -32 38 -51 51l-70 -589c53 3 92 31 131 84z" />
    <glyph glyph-name="lira" unicode="&#x20a4;" horiz-adv-x="472" 
d="M118 28h300v-28h-360v18c76 44 106 122 106 200c0 11 -1 21 -2 32h-108v24l64 4h40c-5 23 -11 46 -18 68h-86v24l64 4h14c-11 37 -20 73 -20 112c0 102 62 166 164 166c68 0 112 -34 140 -70l-22 -20c-28 34 -64 62 -120 62c-86 0 -130 -62 -130 -136
c0 -40 10 -76 21 -114h181v-28h-173c6 -22 12 -44 16 -68h157v-28h-154c1 -10 2 -21 2 -32c0 -88 -28 -140 -76 -186v-4z" />
    <glyph glyph-name="uni20A6" unicode="&#x20a6;" horiz-adv-x="472" 
d="M344 274v70h-100l25 -70h75zM350 46l-5 198h-65l6 -18l60 -180h4zM128 274h109l-25 70h-84v-70zM122 594l6 -222h74l-16 44l-60 178h-4zM450 344h-74v-70h74v-30h-74v-244h-42l-87 244h-119v-244h-32v244h-78v26l78 4v70h-78v24l78 4v268h42l96 -268h110v268h32v-268h74
v-28z" />
    <glyph glyph-name="peseta" unicode="&#x20a7;" horiz-adv-x="472" 
d="M128 298h38c118 0 185 47 192 148h-230v-148zM128 612v-138h230c-5 103 -73 138 -192 138h-38zM456 474v-28h-66c-7 -119 -91 -176 -212 -176h-50v-270h-30v446h-82v24l82 4v166h80c122 0 206 -47 212 -166h66z" />
    <glyph glyph-name="dong" unicode="&#x20ab;" horiz-adv-x="472" 
d="M80 0v28h326v-28h-326zM346 200v190c-42 38 -70 54 -116 54c-72 0 -128 -68 -128 -148c0 -98 44 -162 124 -162c40 0 80 20 120 66zM376 594h82v-24l-82 -4v-450h-24l-4 48h-4c-30 -32 -68 -58 -120 -58c-94 0 -154 66 -154 188c0 108 76 178 162 178
c52 0 82 -20 118 -52l-4 96v50h-146v28h146v82h30v-82z" />
    <glyph glyph-name="Euro" unicode="&#x20ac;" horiz-adv-x="472" 
d="M446 100l22 -18c-41 -58 -90 -94 -164 -94c-116 0 -196 101 -214 262h-66v24l63 4c-1 14 -1 29 -1 44c0 12 0 24 1 36h-63v24l65 4c17 165 103 266 231 266c60 0 110 -38 138 -78l-22 -20c-30 42 -68 70 -116 70c-112 0 -182 -91 -197 -238h287v-28h-289
c-1 -12 -1 -24 -1 -36c0 -15 0 -30 1 -44h249v-28h-246c16 -143 80 -234 182 -234c58 0 99 28 140 84z" />
    <glyph glyph-name="uni20B1" unicode="&#x20b1;" horiz-adv-x="472" 
d="M128 430h228c1 10 2 21 2 32c0 14 -1 26 -3 38h-227v-70zM128 298h38c99 0 163 33 184 104h-222v-104zM128 612v-84h219c-23 61 -86 84 -181 84h-38zM456 528v-28h-69c2 -12 3 -24 3 -38c0 -11 -1 -22 -2 -32h68v-28h-73c-23 -89 -100 -132 -205 -132h-50v-270h-30v402
h-82v24l82 4v70h-82v24l82 4v112h80c102 0 177 -32 203 -112h75z" />
    <glyph glyph-name="uni20B2" unicode="&#x20b2;" horiz-adv-x="472" 
d="M274 306h158v-246c-36 -43 -86 -67 -142 -71v-99h-30v98c-125 8 -206 138 -206 334c0 189 78 313 206 328v100h30v-98c59 -1 108 -38 136 -78l-22 -20c-30 42 -68 70 -116 70c-128 0 -200 -118 -200 -302s68 -306 186 -306c54 0 105 26 128 56v206h-128v28z" />
    <glyph glyph-name="uni20B5" unicode="&#x20b5;" horiz-adv-x="472" 
d="M272 17v605c-110 -16 -172 -130 -172 -300c0 -177 63 -296 172 -305zM426 100l22 -18c-38 -53 -82 -88 -146 -93v-99h-30v98c-125 8 -206 138 -206 334c0 189 78 313 206 328v102h30v-100c59 -1 108 -38 136 -78l-22 -20c-30 41 -67 69 -114 70v-607c50 5 87 32 124 83z
" />
    <glyph glyph-name="uni20B9" unicode="&#x20b9;" horiz-adv-x="472" 
d="M440 640v-28h-150c43 -19 75 -58 84 -108h66v-28h-64c-1 -113 -72 -174 -182 -183l206 -293h-38l-205 292h-83v28h76c122 0 194 48 194 156h-270v24l66 4h202c-13 77 -82 108 -192 108h-76v28h366z" />
    <glyph glyph-name="uni20BA" unicode="&#x20ba;" horiz-adv-x="472" 
d="M168 18c100 0 240 60 240 192c0 16 0 32 -6 54l28 10c6 -26 8 -40 8 -62c0 -158 -150 -226 -302 -224v306l-106 -54v30l106 54v86l-106 -54v30l106 54v200h32v-184l180 94v-30l-180 -94v-86l180 94v-30l-180 -94v-292z" />
    <glyph glyph-name="uni2113" unicode="&#x2113;" horiz-adv-x="360" 
d="M136 534v-284c88 93 156 213 156 326c0 86 -32 116 -74 116c-44 0 -82 -52 -82 -158zM326 60l16 -20c-24 -24 -60 -52 -108 -52c-70 0 -128 60 -128 174v22c-20 -18 -40 -34 -60 -48l-16 22c26 18 51 39 76 62v304c0 144 50 196 112 196c60 0 106 -48 106 -142
c0 -127 -87 -266 -188 -366v-40c0 -114 46 -156 100 -156c42 0 66 20 90 44z" />
    <glyph glyph-name="uni2117" unicode="&#x2117;" horiz-adv-x="738" 
d="M264 136v360h132c74 0 130 -36 130 -106c0 -78 -56 -120 -130 -120h-100v-134h-32zM296 298h88c66 0 108 28 108 92c0 54 -42 78 -108 78h-88v-170zM52 322c0 200 146 330 318 330s318 -130 318 -330c0 -202 -146 -334 -318 -334s-318 132 -318 334zM82 322
c0 -184 134 -308 288 -308s288 124 288 308c0 182 -134 304 -288 304s-288 -122 -288 -304z" />
    <glyph glyph-name="uni2120" unicode="&#x2120;" horiz-adv-x="600" 
d="M140 358c-44 0 -82 18 -106 46l20 20c26 -26 50 -40 88 -40c40 0 64 22 64 54c0 34 -14 40 -48 58l-50 26c-27 14 -58 36 -58 80c0 50 40 78 94 78c32 0 64 -16 84 -36l-18 -22c-20 18 -44 32 -68 32c-40 0 -62 -24 -62 -52c0 -24 18 -40 46 -54l50 -26
c38 -18 60 -40 60 -84c0 -42 -36 -80 -96 -80zM306 370v306h44l54 -130l32 -88h4l32 88l52 130h44v-306h-30v170l4 96h-4l-86 -218h-30l-86 218h-4l4 -96v-170h-30z" />
    <glyph glyph-name="trademark" unicode="&#x2122;" horiz-adv-x="600" 
d="M306 370v306h44l54 -130l32 -88h4l32 88l52 130h44v-306h-30v170l4 96h-4l-86 -218h-30l-86 218h-4l4 -96v-170h-30zM112 370v278h-110v28h250v-28h-110v-278h-30z" />
    <glyph glyph-name="uni2126" unicode="&#x2126;" horiz-adv-x="652" 
d="M44 0v28h148v4c-68 64 -136 162 -136 314c0 196 106 326 270 326s270 -130 270 -326c0 -152 -68 -250 -136 -314v-4h148v-28h-206v24c82 56 160 158 160 324c0 176 -88 294 -236 294s-236 -118 -236 -294c0 -166 78 -268 160 -324v-24h-206z" />
    <glyph glyph-name="estimated" unicode="&#x212e;" horiz-adv-x="800" 
d="M184 108c54 -62 132 -100 218 -100c90 0 172 44 228 112h52c-66 -80 -168 -132 -282 -132c-196 0 -354 150 -354 336s158 336 354 336s354 -150 354 -336v-8h-574c-2 0 -4 -2 -4 -4v-184c0 -8 4 -14 8 -20zM180 334h440c4 0 6 2 6 6v184c0 8 -4 16 -10 22
c-56 58 -132 94 -214 94c-86 0 -162 -38 -218 -98c-4 -6 -8 -14 -8 -22v-180c0 -4 2 -6 4 -6z" />
    <glyph glyph-name="onethird" unicode="&#x2153;" horiz-adv-x="778" 
d="M158 270v330h-82v22c36 8 62 20 84 38h26v-390h-28zM178 -12h-32l370 684h32zM460 62l24 18c24 -38 66 -66 112 -66c52 0 96 32 96 88c0 54 -56 84 -144 84v24c82 0 128 42 128 88s-34 78 -88 78c-32 0 -66 -22 -92 -54l-20 18c26 34 66 62 114 62c64 0 116 -38 116 -102
c0 -50 -34 -84 -78 -100c48 -8 94 -42 94 -98c0 -72 -56 -114 -128 -114c-60 0 -108 36 -134 74z" />
    <glyph glyph-name="twothirds" unicode="&#x2154;" horiz-adv-x="798" 
d="M58 270v20c138 130 196 190 196 258c0 60 -36 98 -90 98c-38 0 -72 -30 -94 -64l-20 18c22 38 68 72 116 72c70 0 118 -40 118 -122c0 -84 -72 -150 -178 -254h202v-26h-250zM228 -12h-32l370 684h32zM480 62l24 18c24 -38 66 -66 112 -66c52 0 96 32 96 88
c0 54 -56 84 -144 84v24c82 0 128 42 128 88s-34 78 -88 78c-32 0 -66 -22 -92 -54l-20 18c26 34 66 62 114 62c64 0 116 -38 116 -102c0 -50 -34 -84 -78 -100c48 -8 94 -42 94 -98c0 -72 -56 -114 -128 -114c-60 0 -108 36 -134 74z" />
    <glyph glyph-name="oneeighth" unicode="&#x215b;" horiz-adv-x="778" 
d="M158 270v330h-82v22c36 8 62 20 84 38h26v-390h-28zM188 -12h-32l370 684h32zM498 98c0 -42 38 -84 98 -84c54 0 98 38 98 84c0 62 -62 76 -126 100c-46 -26 -70 -60 -70 -100zM624 210c38 28 56 60 56 94c0 42 -38 70 -84 70c-44 0 -80 -30 -80 -72
c0 -48 48 -74 108 -92zM468 96c0 52 36 92 76 114v4c-34 22 -58 46 -58 88c0 58 48 100 110 100c64 0 114 -40 114 -100c0 -52 -38 -82 -60 -100v-4c48 -24 74 -52 74 -98c0 -64 -56 -112 -128 -112c-78 0 -128 50 -128 108z" />
    <glyph glyph-name="threeeighths" unicode="&#x215c;" horiz-adv-x="798" 
d="M42 332l24 18c24 -38 66 -66 112 -66c52 0 96 32 96 88c0 54 -56 84 -144 84v24c82 0 128 42 128 88s-34 78 -88 78c-32 0 -66 -22 -92 -54l-20 18c26 34 66 62 114 62c64 0 116 -38 116 -102c0 -50 -34 -84 -78 -100c48 -8 94 -42 94 -98c0 -72 -56 -114 -128 -114
c-60 0 -108 36 -134 74zM228 -12h-32l370 684h32zM518 98c0 -42 38 -84 98 -84c54 0 98 38 98 84c0 62 -62 76 -126 100c-46 -26 -70 -60 -70 -100zM644 210c38 28 56 60 56 94c0 42 -38 70 -84 70c-44 0 -80 -30 -80 -72c0 -48 48 -74 108 -92zM488 96c0 52 36 92 76 114v4
c-34 22 -58 46 -58 88c0 58 48 100 110 100c64 0 114 -40 114 -100c0 -52 -38 -82 -60 -100v-4c48 -24 74 -52 74 -98c0 -64 -56 -112 -128 -112c-78 0 -128 50 -128 108z" />
    <glyph glyph-name="fiveeighths" unicode="&#x215d;" horiz-adv-x="798" 
d="M42 332l24 18c26 -38 62 -66 116 -66c56 0 98 44 98 108c0 66 -40 108 -100 108c-38 0 -64 -20 -86 -38l-20 14l20 184h194v-28h-168l-14 -128c20 12 44 22 76 22c72 0 128 -46 128 -134c0 -82 -58 -134 -130 -134c-68 0 -110 36 -138 74zM228 -12h-32l370 684h32z
M518 98c0 -42 38 -84 98 -84c54 0 98 38 98 84c0 62 -62 76 -126 100c-46 -26 -70 -60 -70 -100zM644 210c38 28 56 60 56 94c0 42 -38 70 -84 70c-44 0 -80 -30 -80 -72c0 -48 48 -74 108 -92zM488 96c0 52 36 92 76 114v4c-34 22 -58 46 -58 88c0 58 48 100 110 100
c64 0 114 -40 114 -100c0 -52 -38 -82 -60 -100v-4c48 -24 74 -52 74 -98c0 -64 -56 -112 -128 -112c-78 0 -128 50 -128 108z" />
    <glyph glyph-name="seveneighths" unicode="&#x215e;" horiz-adv-x="778" 
d="M122 270c10 146 42 250 130 364h-222v26h256v-18c-100 -128 -126 -232 -134 -372h-30zM178 -12h-32l370 684h32zM498 98c0 -42 38 -84 98 -84c54 0 98 38 98 84c0 62 -62 76 -126 100c-46 -26 -70 -60 -70 -100zM624 210c38 28 56 60 56 94c0 42 -38 70 -84 70
c-44 0 -80 -30 -80 -72c0 -48 48 -74 108 -92zM468 96c0 52 36 92 76 114v4c-34 22 -58 46 -58 88c0 58 48 100 110 100c64 0 114 -40 114 -100c0 -52 -38 -82 -60 -100v-4c48 -24 74 -52 74 -98c0 -64 -56 -112 -128 -112c-78 0 -128 50 -128 108z" />
    <glyph glyph-name="uni2190" unicode="&#x2190;" horiz-adv-x="620" 
d="M30 250v4l268 264l20 -20l-242 -232h504v-28h-504l242 -232l-20 -20z" />
    <glyph glyph-name="arrowup" unicode="&#x2191;" horiz-adv-x="620" 
d="M308 526h4l264 -268l-20 -20l-232 242v-504h-28v504l-232 -242l-20 20z" />
    <glyph glyph-name="uni2192" unicode="&#x2192;" horiz-adv-x="620" 
d="M588 254v-4l-268 -264l-20 20l242 232h-504v28h504l-242 232l20 20z" />
    <glyph glyph-name="arrowdown" unicode="&#x2193;" horiz-adv-x="620" 
d="M312 -24h-4l-264 268l20 20l232 -242v504h28v-504l232 242l20 -20z" />
    <glyph glyph-name="partialdiff" unicode="&#x2202;" horiz-adv-x="488" 
d="M206 16c118 0 190 115 209 265c-57 64 -114 87 -165 87c-132 0 -184 -92 -184 -190c0 -96 64 -162 140 -162zM136 590l-18 20c34 38 84 62 140 62c108 0 194 -84 194 -310c0 -222 -98 -374 -248 -374c-88 0 -170 70 -170 188c0 128 76 220 218 220c60 0 121 -30 167 -78
c1 14 1 29 1 44c0 212 -72 282 -164 282c-44 0 -88 -20 -120 -54z" />
    <glyph glyph-name="uni2206" unicode="&#x2206;" horiz-adv-x="546" 
d="M26 0v18l232 642h30l232 -642v-18h-494zM62 28h422l-130 364l-78 224h-4l-80 -224z" />
    <glyph glyph-name="product" unicode="&#x220f;" horiz-adv-x="644" 
d="M96 -120v760h452v-760h-34v732h-386v-732h-32z" />
    <glyph glyph-name="summation" unicode="&#x2211;" horiz-adv-x="480" 
d="M18 -94l264 354l-252 354v26h420v-28h-378v-4l248 -346l-260 -350v-4h422v-28h-464v26z" />
    <glyph glyph-name="minus" unicode="&#x2212;" horiz-adv-x="472" 
d="M34 316v28h404v-28h-404z" />
    <glyph glyph-name="uni2215" unicode="&#x2215;" horiz-adv-x="78" 
d="M-132 -12h-32l370 684h32z" />
    <glyph glyph-name="uni2219" unicode="&#x2219;" horiz-adv-x="480" 
d="M198 322c0 26 18 40 36 40s36 -14 36 -40c0 -24 -18 -38 -36 -38s-36 14 -36 38z" />
    <glyph glyph-name="radical" unicode="&#x221a;" horiz-adv-x="532" 
d="M152 376l130 -388c6 -16 10 -32 14 -48h4c4 16 6 32 10 48l194 832h30l-218 -928h-32l-150 442l-68 -32l-14 26z" />
    <glyph glyph-name="infinity" unicode="&#x221e;" horiz-adv-x="756" 
d="M178 188c-72 0 -136 60 -136 142c0 86 64 142 142 142c84 0 138 -68 174 -114h4c44 60 107 130 196 130c94 0 156 -64 156 -156c0 -88 -60 -158 -152 -158c-86 0 -141 56 -200 126h-4c-34 -36 -90 -112 -180 -112zM378 332c68 -88 120 -126 186 -126c76 0 120 56 120 124
c0 73 -46 130 -128 130c-68 0 -122 -48 -178 -128zM182 216c66 0 120 52 160 112c-52 68 -100 112 -160 112s-110 -38 -110 -108s52 -116 110 -116z" />
    <glyph glyph-name="integral" unicode="&#x222b;" horiz-adv-x="286" 
d="M66 -126c8 -2 20 -4 34 -4c60 0 70 72 70 182c0 140 -46 388 -46 522c0 120 18 214 100 214c16 0 32 -2 38 -6l-6 -26c-8 2 -20 4 -34 4c-58 0 -68 -74 -68 -184c0 -140 44 -386 44 -520c0 -122 -18 -214 -98 -214c-18 0 -32 2 -40 6z" />
    <glyph glyph-name="approxequal" unicode="&#x2248;" horiz-adv-x="472" 
d="M64 398l-22 12c26 54 66 80 104 80c76 0 124 -92 182 -92c30 0 56 16 80 64l22 -14c-26 -52 -66 -78 -104 -78c-76 0 -124 92 -182 92c-30 0 -56 -16 -80 -64zM64 198l-22 12c26 54 66 80 104 80c76 0 124 -92 182 -92c30 0 56 16 80 64l22 -14c-26 -52 -66 -78 -104 -78
c-76 0 -124 92 -182 92c-30 0 -56 -16 -80 -64z" />
    <glyph glyph-name="notequal" unicode="&#x2260;" horiz-adv-x="472" 
d="M68 86l80 130h-114v28h132l106 172h-238v28h256l80 130h34l-80 -130h114v-28h-132l-106 -172h238v-28h-256l-80 -130h-34z" />
    <glyph glyph-name="lessequal" unicode="&#x2264;" horiz-adv-x="472" 
d="M34 0v28h404v-28h-404zM34 314v36l404 162v-32l-240 -94l-132 -52v-4l132 -52l240 -94v-32z" />
    <glyph glyph-name="greaterequal" unicode="&#x2265;" horiz-adv-x="472" 
d="M34 0v28h404v-28h-404zM438 350v-36l-404 -162v32l240 94l132 52v4l-132 52l-240 94v32z" />
    <glyph glyph-name="uni231C" unicode="&#x231c;" horiz-adv-x="270" 
d="M100 0v688h152v-22h-128v-666h-24z" />
    <glyph glyph-name="uni231D" unicode="&#x231d;" horiz-adv-x="270" 
d="M170 688v-688h-24v666h-128v22h152z" />
    <glyph glyph-name="uni231E" unicode="&#x231e;" horiz-adv-x="270" 
d="M100 -48v688h24v-666h128v-22h-152z" />
    <glyph glyph-name="uni231F" unicode="&#x231f;" horiz-adv-x="270" 
d="M170 640v-688h-152v22h128v666h24z" />
    <glyph glyph-name="uni25A0" unicode="&#x25a0;" horiz-adv-x="274" 
d="M54 178v172h166v-172h-166z" />
    <glyph glyph-name="triagup" unicode="&#x25b2;" horiz-adv-x="554" 
d="M26 52v2l250 470h4l248 -470v-2h-502z" />
    <glyph glyph-name="uni25B3" unicode="&#x25b3;" horiz-adv-x="554" 
d="M80 80h396l-198 386zM26 52v2l250 470h4l248 -470v-2h-502z" />
    <glyph glyph-name="uni25B6" unicode="&#x25b6;" horiz-adv-x="554" 
d="M60 30v502h2l470 -248v-4l-470 -250h-2z" />
    <glyph glyph-name="uni25B7" unicode="&#x25b7;" horiz-adv-x="554" 
d="M90 84l380 198l-380 198v-396zM60 30v502h2l470 -248v-4l-470 -250h-2z" />
    <glyph glyph-name="triagdn" unicode="&#x25bc;" horiz-adv-x="554" 
d="M276 40l-250 468v2h502v-2l-248 -468h-4z" />
    <glyph glyph-name="uni25BD" unicode="&#x25bd;" horiz-adv-x="554" 
d="M476 482h-396l198 -386zM26 508v2h502v-2l-248 -470h-4z" />
    <glyph glyph-name="uni25C0" unicode="&#x25c0;" horiz-adv-x="554" 
d="M22 280v4l470 248h2v-502h-2z" />
    <glyph glyph-name="uni25C1" unicode="&#x25c1;" horiz-adv-x="554" 
d="M84 282l380 -198v396zM494 532v-502h-2l-470 250v4l470 248h2z" />
    <glyph glyph-name="uni25C6" unicode="&#x25c6;" horiz-adv-x="274" 
d="M138 144l-122 120l122 120l120 -120z" />
    <glyph glyph-name="uni25C9" unicode="&#x25c9;" horiz-adv-x="412" 
d="M206 210c-26 0 -50 20 -50 54c0 32 24 52 50 52s50 -20 50 -52c0 -34 -24 -54 -50 -54zM206 96c-86 0 -164 60 -164 168c0 106 78 168 164 168s164 -62 164 -168c0 -108 -78 -168 -164 -168zM206 124c66 0 132 48 132 140s-66 140 -132 140s-132 -48 -132 -140
s66 -140 132 -140z" />
    <glyph glyph-name="lozenge" unicode="&#x25ca;" horiz-adv-x="492" 
d="M226 -10l-166 340l166 340h40l166 -340l-166 -340h-40zM244 16h4l70 142l80 172l-80 170l-70 144h-4l-70 -144l-80 -170l80 -172z" />
    <glyph glyph-name="uni2610" unicode="&#x2610;" horiz-adv-x="792" 
d="M104 20h550v586h-550v-586zM74 -10v638l50 40h594v-628l-42 -50h-602z" />
    <glyph glyph-name="uni2611" unicode="&#x2611;" horiz-adv-x="792" 
d="M654 20v569c-107 -141 -195 -311 -244 -483l-44 -6c-36 103 -86 201 -140 282l26 19c52 -80 102 -176 130 -267h4c46 157 135 328 241 472h-523v-586h550zM778 780l24 -26c-29 -27 -57 -56 -84 -87v-627l-42 -50h-602v638l50 40h551c33 41 68 78 103 112z" />
    <glyph glyph-name="uni266A" unicode="&#x266a;" horiz-adv-x="470" 
d="M32 48c0 52 56 104 148 104c26 0 52 -6 62 -12v554h26c10 -30 20 -40 70 -76c86 -64 104 -120 104 -192c0 -48 -10 -90 -18 -118l-24 8c10 34 12 56 12 92c0 66 -48 130 -136 156v-444c0 -94 -82 -140 -152 -140c-52 0 -92 26 -92 68z" />
    <glyph glyph-name="uni2713" unicode="&#x2713;" horiz-adv-x="584" 
d="M184 -14l-44 -6c-38 107 -88 208 -146 292l26 19c56 -83 108 -183 138 -277h4c70 236 230 500 404 666l24 -26c-176 -164 -334 -414 -406 -668z" />
    <glyph glyph-name="uni2752" unicode="&#x2752;" horiz-adv-x="344" 
d="M82 164h144v152h-144v-152zM54 138v200l52 42h184v-190l-42 -52h-194z" />
    <glyph glyph-name="uni27E6" unicode="&#x27e6;" horiz-adv-x="330" 
d="M100 -152v860h212v-22h-124v-816h124v-22h-212zM124 686v-816h40v816h-40z" />
    <glyph glyph-name="uni27E7" unicode="&#x27e7;" horiz-adv-x="330" 
d="M230 708v-860h-212v22h124v816h-124v22h212zM206 686h-40v-816h40v816z" />
    <glyph glyph-name="uni2E22" unicode="&#x2e22;" horiz-adv-x="270" 
d="M100 278v430h152v-22h-128v-408h-24z" />
    <glyph glyph-name="uni2E23" unicode="&#x2e23;" horiz-adv-x="270" 
d="M170 708v-430h-24v408h-128v22h152z" />
    <glyph glyph-name="uni2E24" unicode="&#x2e24;" horiz-adv-x="270" 
d="M100 -152v430h24v-408h128v-22h-152z" />
    <glyph glyph-name="uni2E25" unicode="&#x2e25;" horiz-adv-x="270" 
d="M170 278v-430h-152v22h128v408h24z" />
    <glyph glyph-name="fi" unicode="&#xfb01;" horiz-adv-x="492" 
d="M100 478v118c0 94 42 138 110 138c20 0 44 -6 66 -16l-10 -26c-20 10 -40 14 -58 14c-54 0 -78 -42 -78 -114v-114h114v-28h-114v-450h-30v450h-66v24zM366 0v478h30v-478h-30zM382 668c18 0 34 -12 34 -34c0 -20 -16 -34 -34 -34s-34 14 -34 34c0 22 16 34 34 34z" />
    <glyph glyph-name="fl" unicode="&#xfb02;" horiz-adv-x="482" 
d="M100 478v118c0 94 42 138 110 138c20 0 44 -6 66 -16l-10 -26c-20 10 -40 14 -58 14c-54 0 -78 -42 -78 -114v-114h114v-28h-114v-450h-30v450h-66v24zM416 18l6 -26c-8 -2 -14 -4 -26 -4c-30 0 -48 18 -48 64v670h30v-676c0 -20 8 -30 20 -30c4 0 8 0 18 2z" />
    <glyph glyph-name="uniFEFF" unicode="&#xfeff;" 
 />
    <glyph glyph-name="uni00470303" horiz-adv-x="600" 
d="M56 332c0 208 114 340 288 340c88 0 142 -42 176 -78l-20 -22c-34 38 -82 70 -156 70c-158 0 -254 -120 -254 -310s92 -314 246 -314c64 0 124 20 158 54v218h-164v28h196v-256c-40 -44 -106 -74 -192 -74c-168 0 -278 136 -278 344zM401 718c-52 0 -76 58 -118 58
c-22 0 -38 -24 -42 -58h-22c2 38 22 86 66 86c52 0 76 -58 118 -58c22 0 38 24 42 58h22c-2 -38 -22 -86 -66 -86z" />
    <glyph glyph-name="uni00670303" horiz-adv-x="480" 
d="M86 -98c0 -64 60 -108 166 -108c114 0 186 66 186 130c0 56 -40 78 -116 78h-110c-6 0 -32 2 -58 8c-48 -32 -68 -72 -68 -108zM54 -100c0 42 28 86 72 118v4c-24 14 -42 40 -42 76c0 44 32 74 52 88v4c-30 26 -60 74 -60 132c0 96 72 168 164 168c26 0 48 -6 62 -12h160
v-28h-116c34 -28 58 -74 58 -128c0 -96 -72 -170 -164 -170c-28 0 -60 8 -82 22c-22 -18 -42 -40 -42 -74c0 -36 20 -66 94 -66h106c106 0 154 -34 154 -108c0 -80 -86 -160 -220 -160c-122 0 -196 54 -196 134zM240 180c70 0 132 58 132 142c0 85 -60 140 -132 140
s-132 -54 -132 -140c0 -84 62 -142 132 -142zM112 582c2 36 17 82 64 82c48 0 75 -56 110 -56c22 0 34 22 38 56h24c-2 -35 -17 -82 -64 -82c-48 0 -73 56 -110 56c-22 0 -34 -21 -38 -56h-24z" />
    <glyph glyph-name="iogonek.d" horiz-adv-x="222" 
d="M96 0v478h30v-478c-30 -36 -60 -76 -60 -120c0 -36 24 -54 50 -54c18 0 30 4 44 14l14 -20c-14 -12 -40 -22 -60 -22c-44 0 -78 26 -78 80c0 50 32 88 62 122h-2z" />
    <glyph glyph-name="I.a" horiz-adv-x="302" 
d="M42 0v28h92v604h-92v28h216v-28h-92v-604h92v-28h-216z" />
    <glyph glyph-name="Igrave.a" horiz-adv-x="302" 
d="M42 0v28h92v604h-92v28h216v-28h-92v-604h92v-28h-216zM153 710l-108 104h44l94 -104h-30z" />
    <glyph glyph-name="Iacute.a" horiz-adv-x="302" 
d="M42 0v28h92v604h-92v28h216v-28h-92v-604h92v-28h-216zM257 814l-108 -104h-30l94 104h44z" />
    <glyph glyph-name="Icircumflex.a" horiz-adv-x="302" 
d="M42 0v28h92v604h-92v28h216v-28h-92v-604h92v-28h-216zM71 710h-30l96 104h28l96 -104h-30l-78 74h-4z" />
    <glyph glyph-name="Itilde.a" horiz-adv-x="302" 
d="M42 0v28h92v604h-92v28h216v-28h-92v-604h92v-28h-216zM209 718c-52 0 -76 58 -118 58c-22 0 -38 -24 -42 -58h-22c2 38 22 86 66 86c52 0 76 -58 118 -58c22 0 38 24 42 58h22c-2 -38 -22 -86 -66 -86z" />
    <glyph glyph-name="Idieresis.a" horiz-adv-x="302" 
d="M42 0v28h92v604h-92v28h216v-28h-92v-604h92v-28h-216zM75 728c-18 0 -32 12 -32 32s14 32 32 32s32 -12 32 -32s-14 -32 -32 -32zM227 728c-18 0 -32 12 -32 32s14 32 32 32s32 -12 32 -32s-14 -32 -32 -32z" />
    <glyph glyph-name="Imacron.a" horiz-adv-x="302" 
d="M42 0v28h92v604h-92v28h216v-28h-92v-604h92v-28h-216zM41 736v28h220v-28h-220z" />
    <glyph glyph-name="Idotaccent.a" horiz-adv-x="302" 
d="M42 0v28h92v604h-92v28h216v-28h-92v-604h92v-28h-216zM151 724c-18 0 -34 14 -34 36c0 20 16 34 34 34s34 -14 34 -34c0 -22 -16 -36 -34 -36z" />
    <glyph glyph-name="uni01CF.a" horiz-adv-x="302" 
d="M42 0v28h92v604h-92v28h216v-28h-92v-604h92v-28h-216zM231 814h30l-96 -104h-28l-96 104h30l78 -74h4z" />
    <glyph glyph-name="uni1EC8.a" horiz-adv-x="302" 
d="M42 0v28h92v604h-92v28h216v-28h-92v-604h92v-28h-216zM129 704l-8 22c38 12 66 28 66 58c0 32 -32 48 -86 50l2 26c58 -2 114 -22 114 -72s-44 -70 -88 -84z" />
    <glyph glyph-name="uni1ECA.a" horiz-adv-x="302" 
d="M42 0v28h92v604h-92v28h216v-28h-92v-604h92v-28h-216zM153 -190c-18 0 -32 14 -32 36c0 20 14 34 32 34s32 -14 32 -34c0 -22 -14 -36 -32 -36z" />
    <glyph glyph-name="Iogonek.a" horiz-adv-x="302" 
d="M42 0v28h92v604h-92v28h216v-28h-92v-604h92v-28h-82c-44 -33 -70 -77 -70 -120c0 -36 26 -54 52 -54c18 0 30 4 44 14l14 -20c-14 -12 -40 -22 -60 -22c-44 0 -80 26 -80 80c0 48 29 92 65 122h-99z" />
    <glyph glyph-name="a.a" horiz-adv-x="540" 
d="M86 238c0 -132 60 -222 168 -222c56 0 106 30 160 84v296c-54 48 -98 66 -148 66c-102 0 -180 -100 -180 -224zM54 238c0 154 98 252 214 252c58 0 98 -22 144 -58h2l2 46h28v-478h-26l-4 64h-2c-40 -40 -94 -76 -160 -76c-120 0 -198 88 -198 250z" />
    <glyph glyph-name="agrave.a" horiz-adv-x="540" 
d="M86 238c0 -132 60 -222 168 -222c56 0 106 30 160 84v296c-54 48 -98 66 -148 66c-102 0 -180 -100 -180 -224zM54 238c0 154 98 252 214 252c58 0 98 -22 144 -58h2l2 46h28v-478h-26l-4 64h-2c-40 -40 -94 -76 -160 -76c-120 0 -198 88 -198 250zM293 572l-104 134h40
l92 -134h-28z" />
    <glyph glyph-name="aacute.a" horiz-adv-x="540" 
d="M86 238c0 -132 60 -222 168 -222c56 0 106 30 160 84v296c-54 48 -98 66 -148 66c-102 0 -180 -100 -180 -224zM54 238c0 154 98 252 214 252c58 0 98 -22 144 -58h2l2 46h28v-478h-26l-4 64h-2c-40 -40 -94 -76 -160 -76c-120 0 -198 88 -198 250zM349 706l-104 -134
h-28l92 134h40z" />
    <glyph glyph-name="acircumflex.a" horiz-adv-x="540" 
d="M86 238c0 -132 60 -222 168 -222c56 0 106 30 160 84v296c-54 48 -98 66 -148 66c-102 0 -180 -100 -180 -224zM54 238c0 154 98 252 214 252c58 0 98 -22 144 -58h2l2 46h28v-478h-26l-4 64h-2c-40 -40 -94 -76 -160 -76c-120 0 -198 88 -198 250zM161 572l94 134h28
l94 -134h-28l-78 102h-4l-78 -102h-28z" />
    <glyph glyph-name="atilde.a" horiz-adv-x="540" 
d="M86 238c0 -132 60 -222 168 -222c56 0 106 30 160 84v296c-54 48 -98 66 -148 66c-102 0 -180 -100 -180 -224zM54 238c0 154 98 252 214 252c58 0 98 -22 144 -58h2l2 46h28v-478h-26l-4 64h-2c-40 -40 -94 -76 -160 -76c-120 0 -198 88 -198 250zM151 582
c2 36 17 82 64 82c48 0 75 -56 110 -56c22 0 34 22 38 56h24c-2 -35 -17 -82 -64 -82c-48 0 -73 56 -110 56c-22 0 -34 -21 -38 -56h-24z" />
    <glyph glyph-name="adieresis.a" horiz-adv-x="540" 
d="M86 238c0 -132 60 -222 168 -222c56 0 106 30 160 84v296c-54 48 -98 66 -148 66c-102 0 -180 -100 -180 -224zM54 238c0 154 98 252 214 252c58 0 98 -22 144 -58h2l2 46h28v-478h-26l-4 64h-2c-40 -40 -94 -76 -160 -76c-120 0 -198 88 -198 250zM193 602
c-18 0 -32 14 -32 32s14 32 32 32s32 -14 32 -32s-14 -32 -32 -32zM345 602c-18 0 -32 14 -32 32s14 32 32 32s32 -14 32 -32s-14 -32 -32 -32z" />
    <glyph glyph-name="amacron.a" horiz-adv-x="540" 
d="M86 238c0 -132 60 -222 168 -222c56 0 106 30 160 84v296c-54 48 -98 66 -148 66c-102 0 -180 -100 -180 -224zM54 238c0 154 98 252 214 252c58 0 98 -22 144 -58h2l2 46h28v-478h-26l-4 64h-2c-40 -40 -94 -76 -160 -76c-120 0 -198 88 -198 250zM159 608v28h220v-28
h-220z" />
    <glyph glyph-name="abreve.a" horiz-adv-x="540" 
d="M86 238c0 -132 60 -222 168 -222c56 0 106 30 160 84v296c-54 48 -98 66 -148 66c-102 0 -180 -100 -180 -224zM54 238c0 154 98 252 214 252c58 0 98 -22 144 -58h2l2 46h28v-478h-26l-4 64h-2c-40 -40 -94 -76 -160 -76c-120 0 -198 88 -198 250zM269 576
c-80 0 -110 68 -116 116h26c6 -44 34 -90 90 -90s84 46 90 90h26c-6 -48 -36 -116 -116 -116z" />
    <glyph glyph-name="aring.a" horiz-adv-x="540" 
d="M86 238c0 -132 60 -222 168 -222c56 0 106 30 160 84v296c-54 48 -98 66 -148 66c-102 0 -180 -100 -180 -224zM54 238c0 154 98 252 214 252c58 0 98 -22 144 -58h2l2 46h28v-478h-26l-4 64h-2c-40 -40 -94 -76 -160 -76c-120 0 -198 88 -198 250zM269 538
c-44 0 -78 34 -78 84s34 84 78 84s78 -34 78 -84s-34 -84 -78 -84zM269 560c30 0 54 24 54 62s-24 62 -54 62s-54 -24 -54 -62s24 -62 54 -62z" />
    <glyph glyph-name="uni01CE.a" horiz-adv-x="540" 
d="M86 238c0 -132 60 -222 168 -222c56 0 106 30 160 84v296c-54 48 -98 66 -148 66c-102 0 -180 -100 -180 -224zM54 238c0 154 98 252 214 252c58 0 98 -22 144 -58h2l2 46h28v-478h-26l-4 64h-2c-40 -40 -94 -76 -160 -76c-120 0 -198 88 -198 250zM255 572l-94 134h28
l78 -102h4l78 102h28l-94 -134h-28z" />
    <glyph glyph-name="uni1EA1.a" horiz-adv-x="540" 
d="M86 238c0 -132 60 -222 168 -222c56 0 106 30 160 84v296c-54 48 -98 66 -148 66c-102 0 -180 -100 -180 -224zM54 238c0 154 98 252 214 252c58 0 98 -22 144 -58h2l2 46h28v-478h-26l-4 64h-2c-40 -40 -94 -76 -160 -76c-120 0 -198 88 -198 250zM270 -190
c-18 0 -32 14 -32 36c0 20 14 34 32 34s32 -14 32 -34c0 -22 -14 -36 -32 -36z" />
    <glyph glyph-name="uni1EA3.a" horiz-adv-x="540" 
d="M86 238c0 -132 60 -222 168 -222c56 0 106 30 160 84v296c-54 48 -98 66 -148 66c-102 0 -180 -100 -180 -224zM54 238c0 154 98 252 214 252c58 0 98 -22 144 -58h2l2 46h28v-478h-26l-4 64h-2c-40 -40 -94 -76 -160 -76c-120 0 -198 88 -198 250zM247 550l-8 22
c38 12 66 28 66 58c0 32 -32 48 -86 50l2 26c58 -2 114 -22 114 -72s-44 -70 -88 -84z" />
    <glyph glyph-name="uni1EA5.a" horiz-adv-x="540" 
d="M86 238c0 -132 60 -222 168 -222c56 0 106 30 160 84v296c-54 48 -98 66 -148 66c-102 0 -180 -100 -180 -224zM54 238c0 154 98 252 214 252c58 0 98 -22 144 -58h2l2 46h28v-478h-26l-4 64h-2c-40 -40 -94 -76 -160 -76c-120 0 -198 88 -198 250zM171 572l84 112h28
l84 -112h-28l-68 80h-4l-68 -80h-28zM343 636l78 110h38l-90 -110h-26z" />
    <glyph glyph-name="uni1EA7.a" horiz-adv-x="540" 
d="M86 238c0 -132 60 -222 168 -222c56 0 106 30 160 84v296c-54 48 -98 66 -148 66c-102 0 -180 -100 -180 -224zM54 238c0 154 98 252 214 252c58 0 98 -22 144 -58h2l2 46h28v-478h-26l-4 64h-2c-40 -40 -94 -76 -160 -76c-120 0 -198 88 -198 250zM171 572l84 112h28
l84 -112h-28l-68 80h-4l-68 -80h-28zM353 746l78 -110h-26l-90 110h38z" />
    </font>
</defs>
</svg>
