<?xml version="1.0" standalone="no"?>
<!DOCTYPE svg PUBLIC "-//W3C//DTD SVG 1.1//EN" "http://www.w3.org/Graphics/SVG/1.1/DTD/svg11.dtd" >
<svg version="1.1" xmlns="http://www.w3.org/2000/svg">
<metadata>
Created by FontForge 20120731 at Fri Aug  1 16:50:38 2014

Copyright 2010, 2012 Adobe Systems Incorporated. All Rights Reserved.
</metadata>
<defs>
<font id="sourcesanspro" horiz-adv-x="0" >
  <font-face 
    font-family="Source Sans Pro"
    font-weight="400"
    font-style="italic"
    font-stretch="normal"
    units-per-em="1000"
    panose-1="2 11 5 3 3 4 3 9 2 4"
    ascent="750"
    descent="-250"
    x-height="486"
    cap-height="656"
    bbox="-211 -284 1105 948"
    underline-thickness="50"
    underline-position="-50"
    slope="-11"
    stemh="68"
    stemv="82"
    unicode-range="U+0020-FEFF"
  />
<missing-glyph horiz-adv-x="628" 
d="M36 0l130 660h456l-130 -660h-456zM289 340l-75 235l-94 -470zM375 340l75 -235l96 470zM249 192l-99 -136h249l-44 136l-31 101h-4zM342 384l67 93l90 127h-229l40 -127l28 -93h4z" />
    <glyph glyph-name="f_f" unicode="ff" horiz-adv-x="552" 
d="M411 486l16 81c20 98 73 157 154 157c35 0 61 -10 87 -23l-28 -56c-13 9 -31 17 -53 17c-44 0 -72 -36 -83 -93l-17 -83h99l-13 -62h-98l-85 -424h-77l85 424h-193l-86 -424h-76l85 424h-63l11 57l65 5l14 71c21 98 76 157 160 157c39 0 66 -10 93 -23l-27 -56
c-16 9 -34 17 -60 17c-47 0 -78 -36 -89 -93l-15 -73h194z" />
    <glyph glyph-name="f_t" unicode="ft" horiz-adv-x="561" 
d="M444 424l-57 -278c-2 -12 -3 -23 -3 -36c0 -40 16 -60 62 -60c19 0 36 8 51 15l16 -55c-21 -10 -53 -22 -91 -22c-85 0 -116 48 -116 108c0 20 1 36 5 54l57 274h-163l-86 -424h-76l85 424h-63l11 57l65 5l16 81c20 98 72 157 154 157c35 0 61 -10 86 -23l-27 -56
c-14 9 -31 17 -54 17c-44 0 -71 -36 -82 -93l-17 -83h167l36 134h65l-27 -134h123l-12 -62h-125z" />
    <glyph glyph-name=".notdef" horiz-adv-x="628" 
d="M36 0l130 660h456l-130 -660h-456zM289 340l-75 235l-94 -470zM375 340l75 -235l96 470zM249 192l-99 -136h249l-44 136l-31 101h-4zM342 384l67 93l90 127h-229l40 -127l28 -93h4z" />
    <glyph glyph-name="space" unicode=" " horiz-adv-x="192" 
 />
    <glyph glyph-name="exclam" unicode="!" horiz-adv-x="282" 
d="M102 196l67 383l15 92h77l-19 -92l-86 -383h-54zM91 -12c-29 0 -48 21 -48 50c0 34 29 70 67 70c30 0 46 -22 46 -51c0 -34 -27 -69 -65 -69z" />
    <glyph glyph-name="quotedbl" unicode="&#x22;" horiz-adv-x="407" 
d="M128 426l23 153l15 92h75l-19 -92l-42 -153h-52zM294 426l22 153l15 92h76l-20 -92l-41 -153h-52z" />
    <glyph glyph-name="numbersign" unicode="#" horiz-adv-x="479" 
d="M38 0l65 205h-79l13 55h82l46 150h-80l14 55h84l59 185h51l-58 -185h125l59 185h51l-58 -185h79l-14 -55h-82l-46 -150h81l-14 -55h-85l-64 -205h-52l65 205h-126l-64 -205h-52zM171 260h127l46 150h-127z" />
    <glyph glyph-name="dollar" unicode="$" horiz-adv-x="480" 
d="M464 566l-50 -45c-27 39 -67 69 -113 69c-64 0 -110 -42 -110 -102c0 -122 213 -135 213 -308c0 -104 -73 -185 -186 -192l-20 -98h-56l20 102c-59 12 -111 49 -145 90l49 48c30 -40 78 -78 138 -78c73 0 125 47 125 116c0 144 -214 157 -214 310c0 98 73 169 176 175
l20 98h56l-21 -103c47 -12 89 -43 118 -82z" />
    <glyph glyph-name="percent" unicode="%" horiz-adv-x="791" 
d="M184 258c-77 0 -123 65 -123 152c0 124 66 263 182 263c77 0 123 -65 123 -152c0 -125 -66 -263 -182 -263zM239 623c-76 0 -119 -113 -119 -209c0 -61 20 -106 69 -106c75 0 118 113 118 208c0 61 -20 107 -68 107zM187 -12h-52l484 684h52zM570 -12
c-77 0 -123 65 -123 152c0 124 66 263 182 263c77 0 123 -65 123 -152c0 -125 -66 -263 -182 -263zM624 353c-75 0 -118 -113 -118 -209c0 -61 20 -106 69 -106c75 0 118 113 118 208c0 61 -20 107 -69 107z" />
    <glyph glyph-name="ampersand" unicode="&#x26;" horiz-adv-x="582" 
d="M91 151c0 -61 42 -102 103 -102c46 0 93 20 136 53c-52 57 -98 128 -128 202c-62 -42 -111 -88 -111 -153zM229 480c0 -26 4 -54 11 -82c75 45 140 89 140 160c0 30 -15 56 -50 56c-57 0 -101 -56 -101 -134zM510 352h70c-41 -88 -91 -172 -155 -241
c36 -29 71 -50 102 -61l-32 -62c-40 13 -82 38 -123 73c-56 -45 -120 -73 -192 -73c-99 0 -165 60 -165 153c0 108 80 170 166 222c-12 39 -18 77 -18 113c0 112 80 192 172 192c72 0 108 -46 108 -107c0 -102 -93 -162 -184 -219c28 -70 73 -138 123 -191
c54 57 93 124 128 201z" />
    <glyph glyph-name="quotesingle" unicode="'" horiz-adv-x="242" 
d="M128 426l23 153l15 92h75l-19 -92l-42 -153h-52z" />
    <glyph glyph-name="parenleft" unicode="(" horiz-adv-x="291" 
d="M122 -176c-32 85 -57 199 -57 309c0 233 85 411 233 598l45 -25c-141 -179 -214 -371 -214 -581c0 -93 14 -206 43 -282z" />
    <glyph glyph-name="parenright" unicode=")" horiz-adv-x="293" 
d="M177 731c32 -85 57 -199 57 -308c0 -234 -86 -412 -233 -599l-45 26c141 178 213 371 213 580c0 94 -13 206 -42 282z" />
    <glyph glyph-name="asterisk" unicode="*" horiz-adv-x="403" 
d="M176 434l-32 29l69 88l-88 49l18 40l99 -33l25 106l44 -4l-8 -107l103 14l7 -43l-103 -31l38 -97l-40 -23l-52 88z" />
    <glyph glyph-name="plus" unicode="+" horiz-adv-x="480" 
d="M222 103v199h-174v57h175v195h60v-195h175v-57h-176v-199h-60z" />
    <glyph glyph-name="comma" unicode="," horiz-adv-x="242" 
d="M-20 -164l-11 46c62 24 101 65 111 114h-2c-30 0 -52 18 -52 48c0 33 25 64 64 64c35 0 54 -26 54 -66c0 -98 -66 -178 -164 -206z" />
    <glyph glyph-name="hyphen" unicode="-" horiz-adv-x="299" 
d="M35 222l12 59h219l-13 -59h-218z" />
    <glyph glyph-name="period" unicode="." horiz-adv-x="242" 
d="M70 -12c-29 0 -47 21 -47 50c0 34 29 70 67 70c29 0 46 -22 46 -51c0 -34 -28 -69 -66 -69z" />
    <glyph glyph-name="slash" unicode="/" horiz-adv-x="340" 
d="M-72 -160l434 870h56l-435 -870h-55z" />
    <glyph glyph-name="zero" unicode="0" horiz-adv-x="480" 
d="M200 -12c-101 0 -158 92 -158 217c0 238 122 445 264 445c100 0 156 -95 156 -219c0 -239 -120 -443 -262 -443zM301 588c-103 0 -187 -206 -187 -386c0 -88 28 -153 90 -153c103 0 187 204 187 385c0 89 -29 154 -90 154z" />
    <glyph glyph-name="one" unicode="1" horiz-adv-x="480" 
d="M26 0l13 64h139l96 478h-113l10 50c57 8 103 23 140 46h59l-116 -574h130l-12 -64h-346z" />
    <glyph glyph-name="two" unicode="2" horiz-adv-x="480" 
d="M-10 0l8 46c255 216 379 313 379 437c0 58 -34 104 -104 104c-43 0 -86 -23 -131 -64l-39 48c58 50 115 79 179 79c109 0 170 -66 170 -157c0 -141 -111 -236 -331 -427h276l-12 -66h-395z" />
    <glyph glyph-name="three" unicode="3" horiz-adv-x="480" 
d="M-9 98l51 40c31 -45 80 -86 146 -86c91 0 155 56 155 132c0 68 -50 117 -185 117l12 58c158 0 209 71 209 132c0 56 -33 96 -101 96c-39 0 -87 -20 -125 -51l-39 51c54 41 115 63 176 63c107 0 167 -58 167 -146c0 -81 -50 -146 -149 -174v-4c70 -23 112 -73 112 -139
c0 -122 -99 -199 -233 -199c-87 0 -156 50 -196 110z" />
    <glyph glyph-name="four" unicode="4" horiz-adv-x="480" 
d="M316 0h-72l36 176h-272l9 52l342 410h84l-80 -400h84l-13 -62h-83zM102 238h190l37 189c8 38 21 83 31 127h-4c-27 -37 -53 -73 -77 -104z" />
    <glyph glyph-name="five" unicode="5" horiz-adv-x="480" 
d="M-4 96l50 41c29 -44 68 -85 143 -85c83 0 158 67 158 170c0 82 -46 122 -115 122c-41 0 -65 -10 -107 -33l-33 26l80 301h299l-13 -66h-233l-52 -188c23 11 51 20 84 20c96 0 167 -57 167 -168c0 -152 -114 -248 -240 -248c-87 0 -149 48 -188 108z" />
    <glyph glyph-name="six" unicode="6" horiz-adv-x="480" 
d="M261 329c-31 0 -87 -18 -137 -81c-1 -15 -1 -30 -1 -46c0 -92 42 -154 109 -154c73 0 131 80 131 161c0 73 -35 120 -102 120zM488 569l-52 -41c-22 37 -50 58 -91 58c-100 0 -187 -107 -214 -274c44 50 104 74 148 74c94 0 155 -62 155 -166c0 -125 -89 -232 -206 -232
c-109 0 -177 90 -177 216c0 260 127 446 298 446c69 0 112 -38 139 -81z" />
    <glyph glyph-name="seven" unicode="7" horiz-adv-x="480" 
d="M120 0c57 239 131 411 293 572h-306l14 66h394l-10 -50c-197 -186 -259 -370 -305 -588h-80z" />
    <glyph glyph-name="eight" unicode="8" horiz-adv-x="480" 
d="M220 320c-67 -37 -115 -84 -115 -158s55 -117 121 -117c69 0 137 45 137 125c0 74 -67 109 -143 150zM308 345c49 32 96 80 96 147c0 63 -42 100 -96 100c-58 0 -111 -42 -111 -112c0 -67 41 -101 111 -135zM35 154c0 97 71 158 149 192v4c-37 37 -57 74 -57 126
c0 109 87 174 187 174c81 0 157 -48 157 -148c0 -85 -51 -140 -122 -180v-4c38 -26 86 -76 86 -144c0 -115 -99 -186 -213 -186c-92 0 -187 53 -187 166z" />
    <glyph glyph-name="nine" unicode="9" horiz-adv-x="480" 
d="M245 309c31 0 87 18 137 81c1 15 1 30 1 46c0 92 -42 154 -109 154c-73 0 -130 -81 -130 -161c0 -74 35 -120 101 -120zM18 69l52 41c22 -37 50 -58 92 -58c99 0 185 107 212 272c-44 -49 -103 -72 -146 -72c-95 0 -156 62 -156 166c0 125 89 232 206 232
c110 0 177 -90 177 -216c0 -260 -127 -446 -298 -446c-69 0 -112 38 -139 81z" />
    <glyph glyph-name="colon" unicode=":" horiz-adv-x="242" 
d="M134 357c-29 0 -47 22 -47 50c0 34 29 70 67 70c29 0 46 -22 46 -51c0 -34 -28 -69 -66 -69zM70 -12c-29 0 -47 21 -47 50c0 34 29 70 67 70c29 0 46 -22 46 -51c0 -34 -28 -69 -66 -69z" />
    <glyph glyph-name="semicolon" unicode=";" horiz-adv-x="242" 
d="M-20 -164l-11 46c62 24 101 65 111 114h-2c-30 0 -52 18 -52 48c0 33 25 64 64 64c35 0 54 -26 54 -66c0 -98 -66 -178 -164 -206zM154 477c29 0 46 -22 46 -51c0 -34 -28 -69 -66 -69c-29 0 -47 22 -47 50c0 34 29 70 67 70z" />
    <glyph glyph-name="less" unicode="&#x3c;" horiz-adv-x="480" 
d="M46 301v58l412 167v-65l-203 -80l-125 -48v-4l125 -49l203 -79v-66z" />
    <glyph glyph-name="equal" unicode="=" horiz-adv-x="480" 
d="M458 408h-410v58h410v-58zM458 194h-410v58h410v-58z" />
    <glyph glyph-name="greater" unicode="&#x3e;" horiz-adv-x="480" 
d="M48 135v66l204 79l124 49v4l-124 48l-204 80v65l412 -167v-58z" />
    <glyph glyph-name="question" unicode="?" horiz-adv-x="409" 
d="M141 -12c-29 0 -47 21 -47 50c0 34 29 70 67 70c29 0 46 -22 46 -51c0 -34 -27 -69 -66 -69zM145 201c10 169 198 207 198 330c0 55 -33 87 -86 87c-38 0 -76 -20 -105 -51l-41 46c39 40 95 69 155 69c93 0 152 -52 152 -138c0 -162 -194 -197 -207 -349z" />
    <glyph glyph-name="at" unicode="@" horiz-adv-x="814" 
d="M581 100c65 0 141 85 141 238c0 145 -77 255 -249 255c-182 0 -371 -181 -371 -419c0 -178 116 -277 256 -277c49 0 96 13 135 37l23 -46c-54 -29 -109 -43 -164 -43c-172 0 -307 116 -307 318c0 274 211 481 435 481c189 0 297 -125 297 -296
c0 -195 -102 -301 -210 -301c-47 0 -81 29 -90 76h-3c-31 -38 -71 -67 -115 -67c-61 0 -115 49 -115 135c0 118 88 238 196 238c31 0 56 -18 73 -51h2l13 43h51l-50 -217c-14 -62 -1 -104 52 -104zM305 198c0 -60 29 -89 68 -89c29 0 59 19 90 61l36 161
c-18 34 -37 45 -59 45c-79 0 -135 -100 -135 -178z" />
    <glyph glyph-name="A" unicode="A" horiz-adv-x="510" 
d="M169 265h195l-10 112c-6 69 -13 139 -18 214h-4c-35 -76 -68 -142 -105 -214zM388 0l-18 205h-232l-105 -205h-86l356 656h90l76 -656h-81z" />
    <glyph glyph-name="B" unicode="B" horiz-adv-x="583" 
d="M35 0l131 656h175c126 0 203 -50 203 -145c0 -89 -74 -148 -146 -164l-1 -4c68 -16 121 -58 121 -133c0 -146 -117 -210 -273 -210h-210zM187 374h94c125 0 184 52 184 126c0 60 -44 95 -143 95h-91zM124 61h114c125 0 204 43 204 145c0 66 -53 111 -150 111h-116z" />
    <glyph glyph-name="C" unicode="C" horiz-adv-x="550" 
d="M57 253c0 206 136 415 339 415c75 0 129 -41 161 -97l-54 -41c-26 42 -61 71 -111 71c-156 0 -255 -182 -255 -341c0 -119 49 -205 167 -205c53 0 96 23 139 59l35 -50c-48 -42 -109 -76 -188 -76c-150 0 -233 108 -233 265z" />
    <glyph glyph-name="D" unicode="D" horiz-adv-x="592" 
d="M35 0l131 656h122c182 0 278 -95 278 -256c0 -238 -133 -400 -355 -400h-176zM125 64h86c170 0 276 136 276 331c0 124 -70 198 -202 198h-54z" />
    <glyph glyph-name="E" unicode="E" horiz-adv-x="503" 
d="M35 0l131 656h362l-13 -65h-285l-42 -213h241l-14 -66h-239l-51 -246h294l-14 -66h-370z" />
    <glyph glyph-name="F" unicode="F" horiz-adv-x="473" 
d="M35 0l131 656h362l-13 -65h-285l-45 -228h241l-13 -66h-240l-60 -297h-78z" />
    <glyph glyph-name="G" unicode="G" horiz-adv-x="588" 
d="M57 253c0 208 134 415 349 415c78 0 132 -41 165 -97l-55 -41c-25 42 -61 71 -114 71c-165 0 -265 -182 -265 -341c0 -117 48 -206 174 -206c48 0 86 18 112 40l37 181h-136l13 64h206l-57 -284c-48 -40 -111 -67 -186 -67c-158 0 -243 105 -243 265z" />
    <glyph glyph-name="H" unicode="H" horiz-adv-x="622" 
d="M35 0l131 656h78l-56 -277h296l56 277h77l-131 -656h-78l63 312h-296l-62 -312h-78z" />
    <glyph glyph-name="I" unicode="I" horiz-adv-x="252" 
d="M35 0l131 656h78l-131 -656h-78z" />
    <glyph glyph-name="J" unicode="J" horiz-adv-x="456" 
d="M362 184c-22 -113 -89 -196 -203 -196c-78 0 -133 40 -161 101l51 43c19 -48 57 -77 112 -77c66 0 108 53 125 140l92 461h78z" />
    <glyph glyph-name="K" unicode="K" horiz-adv-x="559" 
d="M35 0l131 656h78l-65 -324h3l329 324h88l-246 -252l149 -404h-81l-126 354l-137 -134l-45 -220h-78z" />
    <glyph glyph-name="L" unicode="L" horiz-adv-x="462" 
d="M35 0l131 656h78l-118 -590h276l-13 -66h-354z" />
    <glyph glyph-name="M" unicode="M" horiz-adv-x="705" 
d="M35 0l131 656h93l57 -354l22 -136h4l70 136l195 354h93l-131 -656h-75l76 370c12 59 31 136 47 193h-4l-79 -146l-193 -348h-44l-61 348l-22 146h-4c-8 -59 -17 -134 -28 -193l-74 -370h-73z" />
    <glyph glyph-name="N" unicode="N" horiz-adv-x="619" 
d="M35 0l131 656h78l150 -420l42 -137h4c8 65 16 141 30 209l69 348h75l-131 -656h-77l-148 419l-43 141h-4c-8 -68 -18 -141 -31 -207l-70 -353h-75z" />
    <glyph glyph-name="O" unicode="O" horiz-adv-x="633" 
d="M287 -12c-147 0 -227 109 -227 275c0 200 131 405 319 405c147 0 227 -109 227 -274c0 -201 -131 -406 -319 -406zM375 601c-141 0 -236 -178 -236 -332c0 -128 47 -214 152 -214c141 0 236 179 236 332c0 129 -48 214 -152 214z" />
    <glyph glyph-name="P" unicode="P" horiz-adv-x="550" 
d="M35 0l131 656h185c123 0 206 -46 206 -160c0 -161 -120 -232 -287 -232h-105l-52 -264h-78zM178 327h95c135 0 207 54 207 159c0 76 -52 108 -148 108h-101z" />
    <glyph glyph-name="Q" unicode="Q" horiz-adv-x="633" 
d="M139 269c0 -128 47 -214 152 -214c141 0 236 179 236 332c0 129 -48 214 -152 214c-141 0 -236 -178 -236 -332zM519 -90l5 -61c-21 -7 -43 -11 -65 -11c-111 0 -196 49 -229 156c-111 25 -170 126 -170 269c0 200 131 405 319 405c147 0 227 -109 227 -274
c0 -193 -121 -389 -296 -405c23 -58 84 -86 154 -86c20 0 37 3 55 7z" />
    <glyph glyph-name="R" unicode="R" horiz-adv-x="555" 
d="M181 341h99c125 0 194 59 194 152c0 72 -51 101 -147 101h-96zM166 656h180c122 0 205 -43 205 -153c0 -121 -82 -196 -193 -218l115 -285h-83l-108 278h-114l-55 -278h-78z" />
    <glyph glyph-name="S" unicode="S" horiz-adv-x="506" 
d="M12 104l57 43c39 -58 96 -93 169 -93c80 0 141 49 141 124c0 48 -33 78 -82 108l-76 46c-56 34 -101 80 -101 154c0 99 86 182 204 182c78 0 145 -39 186 -92l-51 -46c-34 40 -80 71 -141 71c-74 0 -119 -53 -119 -106c0 -51 37 -78 85 -107l76 -45
c63 -37 99 -81 99 -154c0 -117 -95 -201 -228 -201c-90 0 -166 38 -219 116z" />
    <glyph glyph-name="T" unicode="T" horiz-adv-x="510" 
d="M166 0l117 589h-190l13 67h459l-13 -67h-191l-117 -589h-78z" />
    <glyph glyph-name="U" unicode="U" horiz-adv-x="616" 
d="M89 288l74 368h78l-75 -375c-6 -30 -9 -55 -9 -79c0 -94 41 -147 133 -147c75 0 139 56 167 199l81 402h76l-82 -405c-37 -189 -129 -263 -246 -263c-133 0 -207 71 -207 207c0 28 4 60 10 93z" />
    <glyph glyph-name="V" unicode="V" horiz-adv-x="496" 
d="M141 0l-59 656h79l27 -364c6 -71 12 -144 16 -216h4c33 70 69 146 104 216l181 364h84l-343 -656h-93z" />
    <glyph glyph-name="W" unicode="W" horiz-adv-x="756" 
d="M95 0l9 656h80l-10 -361c-4 -70 -5 -142 -10 -213h4c31 71 64 143 93 213l164 361h71l9 -361c1 -69 1 -141 1 -213h4c27 72 56 143 83 213l142 361h77l-270 -656h-99l-7 401c0 48 1 102 3 154h-4c-19 -52 -42 -102 -64 -154l-179 -401h-97z" />
    <glyph glyph-name="X" unicode="X" horiz-adv-x="494" 
d="M-36 0l252 340l-108 316h84l56 -174c9 -30 16 -58 27 -92h3c23 32 46 65 66 95l120 171h82l-237 -322l117 -334h-84l-60 184c-10 33 -21 67 -31 102h-3c-26 -35 -51 -73 -73 -106l-128 -180h-83z" />
    <glyph glyph-name="Y" unicode="Y" horiz-adv-x="461" 
d="M139 0l51 256l-107 400h80l45 -189c12 -48 21 -92 33 -142h4c30 49 58 95 90 143l124 188h83l-274 -400l-52 -256h-77z" />
    <glyph glyph-name="Z" unicode="Z" horiz-adv-x="512" 
d="M-1 0l10 47l425 544h-300l14 65h393l-10 -46l-422 -544h331l-15 -66h-426z" />
    <glyph glyph-name="bracketleft" unicode="[" horiz-adv-x="292" 
d="M76 -107h112l-11 -45h-169l172 860h169l-7 -45h-113z" />
    <glyph glyph-name="backslash" unicode="\" horiz-adv-x="340" 
d="M203 -160l-115 870h52l117 -870h-54z" />
    <glyph glyph-name="bracketright" unicode="]" horiz-adv-x="293" 
d="M-39 -107h111l155 770h-112l8 45h171l-172 -860h-171z" />
    <glyph glyph-name="asciicircum" unicode="^" horiz-adv-x="479" 
d="M83 283l146 387h62l146 -387h-64l-65 178l-45 133h-3l-47 -133l-64 -178h-66z" />
    <glyph glyph-name="underscore" unicode="_" horiz-adv-x="483" 
d="M-25 -74h457l-10 -50h-458z" />
    <glyph glyph-name="grave" unicode="`" horiz-adv-x="517" 
d="M332 571l-78 141h75l59 -141h-56z" />
    <glyph glyph-name="a" unicode="a" horiz-adv-x="537" 
d="M39 164c0 187 128 334 263 334c52 0 94 -29 117 -73h4l19 61h62l-97 -486h-63l8 72h-4c-47 -50 -108 -84 -169 -84c-85 0 -140 62 -140 176zM207 52c51 0 105 30 153 93l44 217c-28 51 -62 72 -99 72c-97 0 -187 -124 -187 -258c0 -84 35 -124 89 -124z" />
    <glyph glyph-name="b" unicode="b" horiz-adv-x="536" 
d="M94 0h-63l142 712h77l-39 -190l-22 -96h2c48 39 105 72 165 72c85 0 140 -62 140 -176c0 -187 -128 -334 -262 -334c-52 0 -94 29 -117 73h-3zM328 434c-45 0 -104 -30 -150 -79l-46 -231c27 -51 61 -72 99 -72c97 0 186 124 186 259c0 82 -34 123 -89 123z" />
    <glyph glyph-name="c" unicode="c" horiz-adv-x="435" 
d="M37 183c0 181 130 315 271 315c58 0 97 -26 126 -59l-45 -48c-25 30 -48 44 -86 44c-97 0 -188 -114 -188 -247c0 -88 38 -136 115 -136c43 0 78 20 108 43l34 -50c-35 -27 -85 -57 -156 -57c-106 0 -179 71 -179 195z" />
    <glyph glyph-name="d" unicode="d" horiz-adv-x="535" 
d="M420 427l16 95l38 190h77l-144 -712h-63l8 72h-4c-47 -50 -108 -84 -169 -84c-85 0 -140 62 -140 176c0 187 128 334 263 334c52 0 91 -28 115 -71h3zM207 52c51 0 104 30 153 93l44 217c-28 51 -62 72 -99 72c-97 0 -187 -124 -187 -258c0 -84 35 -124 89 -124z" />
    <glyph glyph-name="e" unicode="e" horiz-adv-x="481" 
d="M37 191c0 183 133 307 260 307c109 0 150 -76 150 -176c0 -39 -11 -77 -17 -95h-316c-18 -125 47 -178 132 -178c38 0 78 19 109 42l30 -51c-39 -28 -94 -52 -157 -52c-115 0 -191 73 -191 203zM122 279h255c3 16 5 31 5 50c0 55 -24 108 -94 108
c-71 0 -141 -62 -166 -158z" />
    <glyph glyph-name="f" unicode="f" horiz-adv-x="282" 
d="M65 424l11 57l65 5l16 81c20 98 72 157 154 157c35 0 62 -10 86 -24l-27 -55c-14 9 -31 17 -54 17c-44 0 -71 -36 -82 -93l-17 -83h98l-12 -62h-99l-85 -424h-76l85 424h-63z" />
    <glyph glyph-name="g" unicode="g" horiz-adv-x="531" 
d="M435 486h63l-102 -509c-26 -129 -106 -201 -228 -201c-65 0 -123 28 -170 67l36 53c37 -32 83 -58 137 -58c83 0 132 57 153 145l24 100h-3c-48 -46 -103 -78 -165 -78c-82 0 -141 58 -141 171c0 178 126 322 257 322c51 0 94 -29 117 -73h3zM205 69c46 0 104 29 150 85
l43 208c-30 51 -62 72 -99 72c-94 0 -181 -120 -181 -247c0 -79 33 -118 87 -118z" />
    <glyph glyph-name="h" unicode="h" horiz-adv-x="519" 
d="M31 0l142 712h77l-48 -235l-16 -61h4c55 47 108 82 167 82c82 0 115 -46 115 -121c0 -23 -2 -40 -8 -67l-62 -310h-76l60 300c5 26 8 40 8 57c0 49 -22 75 -72 75c-38 0 -85 -27 -146 -88l-69 -344h-76z" />
    <glyph glyph-name="i" unicode="i" horiz-adv-x="237" 
d="M31 0l97 486h77l-98 -486h-76zM193 587c-26 0 -49 16 -49 45c0 33 27 58 58 58c26 0 49 -17 49 -46c0 -33 -27 -57 -58 -57z" />
    <glyph glyph-name="j" unicode="j" horiz-adv-x="238" 
d="M206 486l-111 -547c-19 -93 -60 -156 -144 -156c-31 0 -53 7 -75 19l25 57c13 -8 25 -13 46 -13c37 0 58 34 71 92l111 548h77zM193 587c-25 0 -48 16 -48 45c0 33 26 58 58 58c25 0 48 -17 48 -46c0 -33 -27 -57 -58 -57z" />
    <glyph glyph-name="k" unicode="k" horiz-adv-x="476" 
d="M31 0l142 712h77l-96 -483h2l249 257h88l-194 -203l117 -283h-78l-93 237l-112 -114l-26 -123h-76z" />
    <glyph glyph-name="l" unicode="l" horiz-adv-x="248" 
d="M50 93l123 619h77l-125 -623c-2 -10 -2 -15 -2 -19c0 -12 7 -18 17 -18c4 0 7 0 16 3l1 -59c-13 -5 -27 -8 -48 -8c-43 0 -65 23 -65 63c0 11 2 25 6 42z" />
    <glyph glyph-name="m" unicode="m" horiz-adv-x="799" 
d="M31 0l96 486h63l-7 -73h4c51 48 109 85 160 85c77 0 105 -42 112 -95c62 59 122 95 172 95c81 0 115 -46 115 -121c0 -23 -3 -40 -8 -67l-62 -310h-77l61 300c5 26 8 40 8 57c0 49 -23 75 -71 75c-28 0 -79 -27 -137 -88l-69 -344h-76l60 300c5 26 8 40 8 57
c0 49 -22 75 -70 75c-29 0 -80 -27 -137 -88l-69 -344h-76z" />
    <glyph glyph-name="n" unicode="n" horiz-adv-x="525" 
d="M31 0l96 486h63l-7 -73h4c55 48 109 85 170 85c82 0 115 -46 115 -121c0 -23 -2 -40 -8 -67l-62 -310h-76l60 300c5 26 8 40 8 57c0 49 -22 75 -72 75c-38 0 -85 -27 -146 -88l-69 -344h-76z" />
    <glyph glyph-name="o" unicode="o" horiz-adv-x="515" 
d="M212 -12c-105 0 -173 74 -173 195c0 184 129 315 262 315c105 0 174 -74 174 -195c0 -184 -130 -315 -263 -315zM293 435c-89 0 -177 -111 -177 -247c0 -88 37 -136 104 -136c90 0 177 110 177 246c0 88 -37 137 -104 137z" />
    <glyph glyph-name="p" unicode="p" horiz-adv-x="535" 
d="M115 58l-18 -104l-31 -159h-76l138 691h63l-6 -64h3c49 41 107 76 168 76c85 0 140 -63 140 -176c0 -187 -128 -334 -262 -334c-51 0 -92 29 -117 70h-2zM328 434c-45 0 -104 -30 -150 -80l-46 -232c27 -50 61 -70 99 -70c97 0 186 124 186 259c0 82 -34 123 -89 123z
" />
    <glyph glyph-name="q" unicode="q" horiz-adv-x="537" 
d="M322 -46l30 119h-2c-48 -49 -110 -85 -171 -85c-85 0 -140 62 -140 176c0 187 128 334 263 334c52 0 94 -29 117 -73h4l19 61h62l-138 -691h-77zM207 52c45 0 104 30 153 93l44 217c-28 51 -62 72 -99 72c-97 0 -187 -124 -187 -258c0 -84 35 -124 89 -124z" />
    <glyph glyph-name="r" unicode="r" horiz-adv-x="342" 
d="M31 0l96 486h63l-11 -93h4c39 59 91 105 151 105c18 0 32 -3 46 -9l-27 -68c-10 5 -24 8 -42 8c-48 0 -102 -43 -143 -122l-61 -307h-76z" />
    <glyph glyph-name="s" unicode="s" horiz-adv-x="402" 
d="M-4 80l48 38c30 -42 74 -71 125 -71c56 0 103 37 103 81c0 35 -21 55 -89 92c-75 41 -111 78 -111 133c0 86 76 145 167 145c59 0 107 -27 143 -65l-44 -43c-26 27 -57 48 -101 48c-52 0 -92 -35 -92 -76s42 -62 86 -86c87 -48 114 -85 114 -138
c0 -91 -77 -150 -182 -150c-65 0 -134 41 -167 92z" />
    <glyph glyph-name="t" unicode="t" horiz-adv-x="325" 
d="M74 150l57 274h-71l11 57l76 5l36 134h65l-27 -134h123l-12 -62h-125l-57 -278c-2 -12 -3 -23 -3 -36c0 -40 16 -60 62 -60c19 0 36 8 51 15l17 -55c-22 -10 -54 -22 -92 -22c-85 0 -116 48 -116 108c0 20 3 36 5 54z" />
    <glyph glyph-name="u" unicode="u" horiz-adv-x="528" 
d="M495 486l-97 -486h-63l8 74h-4c-53 -47 -109 -86 -168 -86c-82 0 -115 47 -115 121c0 23 2 41 8 67l62 310h77l-61 -300c-5 -26 -8 -40 -8 -57c0 -49 22 -75 72 -75c38 0 85 27 144 88l69 344h76z" />
    <glyph glyph-name="v" unicode="v" horiz-adv-x="448" 
d="M130 0l-71 486h76l36 -281c5 -47 9 -98 14 -145h4c23 48 47 97 72 145l143 281h77l-259 -486h-92z" />
    <glyph glyph-name="w" unicode="w" horiz-adv-x="707" 
d="M105 0l-35 486h76l16 -286c1 -46 2 -91 3 -136h4c20 45 37 90 58 136l128 286h75l17 -286c2 -46 3 -91 5 -136h4c19 45 35 90 56 136l127 286h72l-221 -486h-95l-14 266c-1 46 -2 95 -3 143h-4c-20 -48 -39 -97 -59 -143l-118 -266h-92z" />
    <glyph glyph-name="x" unicode="x" horiz-adv-x="429" 
d="M-44 0l218 258l-91 228h78l42 -108c11 -29 19 -54 29 -82h4c20 27 42 54 62 82l85 108h83l-200 -245l99 -241h-79l-44 114c-11 29 -22 60 -35 90h-4c-21 -30 -44 -58 -69 -89l-94 -115h-84z" />
    <glyph glyph-name="y" unicode="y" horiz-adv-x="448" 
d="M-37 -138c12 -6 23 -9 36 -9c49 0 94 44 127 111l18 35l-83 487h76l38 -273c7 -44 12 -99 16 -145h4c23 46 48 99 72 145l140 273h76l-286 -527c-51 -95 -110 -168 -203 -168c-14 0 -37 4 -56 14z" />
    <glyph glyph-name="z" unicode="z" horiz-adv-x="410" 
d="M-10 0l8 44l323 380h-221l13 62h317l-8 -45l-323 -379h254l-12 -62h-351z" />
    <glyph glyph-name="braceleft" unicode="{" horiz-adv-x="290" 
d="M47 -72c0 74 55 211 55 269c0 28 -13 56 -70 56l11 50c68 0 90 42 98 79c12 64 17 123 31 191c20 104 54 135 134 135h46l-10 -45h-26c-53 0 -71 -30 -84 -94c-11 -57 -18 -119 -30 -180c-13 -65 -37 -100 -84 -112v-4c32 -11 44 -32 44 -61c0 -70 -52 -207 -52 -270
c0 -33 12 -49 55 -49h24l-10 -45h-44c-62 0 -88 24 -88 80z" />
    <glyph glyph-name="bar" unicode="|" horiz-adv-x="231" 
d="M95 -250v1000h52v-1000h-52z" />
    <glyph glyph-name="braceright" unicode="}" horiz-adv-x="293" 
d="M253 628c0 -74 -55 -212 -55 -271c0 -26 12 -54 70 -54l-11 -50c-69 0 -91 -42 -98 -79c-12 -64 -17 -124 -31 -193c-21 -103 -56 -133 -134 -133h-46l9 45h26c53 0 72 28 84 93c11 57 19 118 30 180c14 66 37 101 84 113v4c-33 11 -44 32 -44 61c0 69 52 206 52 269
c0 34 -12 50 -54 50h-25l10 45h44c63 0 89 -26 89 -80z" />
    <glyph glyph-name="asciitilde" unicode="~" horiz-adv-x="480" 
d="M88 285l-43 28c33 62 78 89 119 89c73 0 117 -86 170 -86c29 0 52 18 74 61l43 -28c-33 -62 -78 -89 -119 -89c-73 0 -117 86 -170 86c-29 0 -52 -18 -74 -61z" />
    <glyph glyph-name="uni00A0" unicode="&#xa0;" horiz-adv-x="192" 
 />
    <glyph glyph-name="exclamdown" unicode="&#xa1;" horiz-adv-x="282" 
d="M180 290l-67 -383l-15 -92h-77l19 92l86 383h54zM191 498c29 0 47 -21 47 -50c0 -34 -28 -70 -67 -70c-29 0 -45 22 -45 51c0 35 27 69 65 69z" />
    <glyph glyph-name="cent" unicode="&#xa2;" horiz-adv-x="480" 
d="M237 158l69 345c-79 -14 -152 -93 -152 -203c0 -75 28 -127 83 -142zM478 501l-47 -45c-23 26 -44 43 -76 48l-69 -349c43 3 78 21 109 43l27 -52c-42 -27 -87 -51 -148 -55l-21 -105h-50l21 106c-90 13 -146 82 -146 195c0 166 124 270 241 281l20 102h49l-20 -103
c49 -7 83 -35 110 -66z" />
    <glyph glyph-name="sterling" unicode="&#xa3;" horiz-adv-x="480" 
d="M72 337l81 5c-3 32 -6 64 -6 91c0 136 86 220 204 220c67 0 112 -38 140 -83l-52 -41c-22 36 -52 61 -92 61c-73 0 -128 -61 -128 -162c0 -26 3 -56 6 -86h155l-12 -59h-140c-1 -91 -29 -156 -88 -213l-1 -4h259l-12 -66h-382l9 46c95 47 144 133 144 229v8h-96z" />
    <glyph glyph-name="currency" unicode="&#xa4;" horiz-adv-x="480" 
d="M391 113l-54 68c-35 -26 -77 -42 -119 -42s-76 13 -100 39l-72 -63l-35 42l71 62c-9 21 -15 46 -15 76c0 60 23 115 60 155l-47 61l44 37l48 -63c34 24 74 38 115 38s75 -14 100 -37l73 63l35 -42l-73 -63c10 -21 16 -47 16 -76c0 -59 -22 -112 -57 -151l53 -68zM279 466
c-69 0 -140 -71 -140 -163c0 -68 31 -106 87 -106c69 0 140 70 140 163c0 68 -31 106 -87 106z" />
    <glyph glyph-name="yen" unicode="&#xa5;" horiz-adv-x="480" 
d="M104 638h78l41 -176c9 -44 19 -88 30 -136h3c31 49 57 93 86 136l108 176h77l-216 -323h136l-10 -43h-155l-13 -69h156l-10 -42h-156l-32 -161h-76l33 161h-156l9 42h156l12 69h-155l9 43h136z" />
    <glyph glyph-name="brokenbar" unicode="&#xa6;" horiz-adv-x="231" 
d="M95 289v461h52v-461h-52zM95 213h52v-463h-52v463z" />
    <glyph glyph-name="section" unicode="&#xa7;" horiz-adv-x="477" 
d="M298 186c46 17 72 43 72 96c0 78 -105 108 -171 162c-44 -19 -75 -50 -75 -100c0 -80 109 -103 174 -158zM450 611l-43 -45c-28 32 -66 58 -109 58c-41 0 -79 -27 -79 -74c0 -95 219 -110 219 -258c0 -77 -40 -117 -106 -147c8 -16 13 -34 13 -55
c0 -86 -68 -150 -163 -150c-60 0 -120 28 -167 75l41 50c35 -37 82 -65 130 -65c50 0 89 33 89 79c0 105 -219 106 -219 254c0 72 45 122 108 149c-10 17 -16 36 -16 58c0 87 64 144 151 144c59 0 112 -31 151 -73z" />
    <glyph glyph-name="dieresis" unicode="&#xa8;" horiz-adv-x="517" 
d="M254 589c-24 0 -41 15 -41 40c0 30 23 55 51 55c24 0 41 -16 41 -42c0 -30 -24 -53 -51 -53zM420 589c-24 0 -41 15 -41 40c0 30 23 55 51 55c24 0 41 -16 41 -42c0 -30 -24 -53 -51 -53z" />
    <glyph glyph-name="copyright" unicode="&#xa9;" horiz-adv-x="665" 
d="M180 276c0 146 112 236 208 236c47 0 76 -23 98 -51l-37 -34c-19 23 -38 35 -68 35c-64 0 -142 -74 -142 -177c0 -72 38 -109 98 -109c37 0 65 18 98 39l25 -39c-41 -30 -81 -51 -134 -51c-86 0 -146 53 -146 151zM298 -11c-155 0 -262 115 -262 277
c0 197 145 387 362 387c155 0 263 -114 263 -276c0 -197 -146 -388 -363 -388zM395 613c-187 0 -316 -173 -316 -342c0 -141 83 -241 222 -241c187 0 317 173 317 342c0 141 -83 241 -223 241z" />
    <glyph glyph-name="ordfeminine" unicode="&#xaa;" horiz-adv-x="354" 
d="M60 377c0 122 86 219 176 219c31 0 59 -15 74 -47h4l14 39h46l-64 -322h-47l6 48h-4c-31 -34 -71 -56 -111 -56c-57 0 -94 42 -94 119zM173 307c31 0 70 23 100 62l26 133c-17 34 -39 46 -61 46c-60 0 -120 -78 -120 -164c0 -53 23 -77 55 -77z" />
    <glyph glyph-name="guillemotleft" unicode="&#xab;" horiz-adv-x="412" 
d="M143 67l-103 158l11 62l156 148l28 -29l-142 -156l85 -161zM302 67l-102 158l11 62l155 148l28 -29l-141 -156l85 -161z" />
    <glyph glyph-name="logicalnot" unicode="&#xac;" horiz-adv-x="480" 
d="M48 302v57h410v-256h-60v199h-350z" />
    <glyph glyph-name="uni00AD" unicode="&#xad;" horiz-adv-x="299" 
d="M35 222l13 59h218l-12 -59h-219z" />
    <glyph glyph-name="registered" unicode="&#xae;" horiz-adv-x="406" 
d="M169 417l41 202h66c39 0 63 -21 63 -58c0 -30 -19 -55 -49 -65l28 -79h-40l-22 70h-34l-15 -70h-38zM228 517h22c30 0 49 16 49 40c0 19 -10 30 -33 30h-25zM235 323c-88 0 -162 69 -162 169c0 111 84 218 199 218c88 0 162 -70 163 -169c0 -113 -86 -218 -200 -218z
M269 675c-90 0 -159 -83 -159 -179c0 -79 48 -139 128 -139c89 0 160 83 160 180c0 79 -50 138 -129 138z" />
    <glyph glyph-name="macron" unicode="&#xaf;" horiz-adv-x="517" 
d="M217 601l10 54h235l-10 -54h-235z" />
    <glyph glyph-name="degree" unicode="&#xb0;" horiz-adv-x="313" 
d="M208 432c-62 0 -107 45 -107 111c0 77 59 142 131 142c61 0 106 -45 106 -111c0 -77 -59 -142 -130 -142zM228 642c-48 0 -80 -48 -80 -97c0 -38 23 -69 63 -69c48 0 80 47 80 96c0 39 -23 70 -63 70z" />
    <glyph glyph-name="plusminus" unicode="&#xb1;" horiz-adv-x="480" 
d="M222 130v185h-174v58h175v181h60v-181h175v-58h-176v-185h-60zM458 0h-410v58h410v-58z" />
    <glyph glyph-name="two.sups" unicode="&#xb2;" horiz-adv-x="353" 
d="M87 440l7 38c164 115 232 178 232 250c0 38 -21 62 -65 62c-28 0 -56 -20 -81 -47l-35 36c37 36 76 63 125 63c72 0 116 -40 116 -105c0 -83 -66 -149 -195 -246h164l-10 -51h-258z" />
    <glyph glyph-name="three.sups" unicode="&#xb3;" horiz-adv-x="351" 
d="M86 508l41 29c20 -35 47 -60 91 -60c47 0 84 26 84 72c0 39 -31 71 -107 71l9 41c90 0 120 41 120 78c0 33 -23 55 -61 55c-28 0 -54 -11 -83 -33l-26 41c39 28 77 40 120 40c65 0 111 -36 111 -95c0 -49 -34 -91 -92 -109c46 -16 68 -54 68 -88
c0 -77 -65 -122 -141 -122c-65 0 -110 37 -134 80z" />
    <glyph glyph-name="acute" unicode="&#xb4;" horiz-adv-x="517" 
d="M263 571l116 141h82l-136 -141h-62z" />
    <glyph glyph-name="uni00B5" unicode="&#xb5;" horiz-adv-x="526" 
d="M202 486l-61 -300c-5 -26 -8 -40 -8 -57c0 -49 22 -75 72 -75c38 0 84 27 144 88l69 344h75l-96 -486h-63l8 74h-4c-47 -47 -95 -83 -145 -83c-38 0 -71 13 -85 51l-13 -83l-29 -150h-76l135 677h77z" />
    <glyph glyph-name="paragraph" unicode="&#xb6;" horiz-adv-x="535" 
d="M300 -80l146 736h77l-147 -736h-76zM293 227c-119 0 -220 61 -220 176c0 172 133 253 274 253h48l-87 -429h-15z" />
    <glyph glyph-name="periodcentered" unicode="&#xb7;" horiz-adv-x="242" 
d="M126 268c-29 0 -47 22 -47 50c0 34 29 71 67 71c29 0 46 -22 46 -52c0 -34 -28 -69 -66 -69z" />
    <glyph glyph-name="cedilla" unicode="&#xb8;" horiz-adv-x="517" 
d="M138 -75l54 78h52l-38 -56c25 -9 45 -26 45 -57c0 -65 -72 -95 -150 -103l-4 35c53 9 94 27 94 60c0 22 -14 33 -53 43z" />
    <glyph glyph-name="one.sups" unicode="&#xb9;" horiz-adv-x="356" 
d="M206 440l62 312h-89l7 39c53 8 79 18 110 39h47l-77 -390h-60z" />
    <glyph glyph-name="ordmasculine" unicode="&#xba;" horiz-adv-x="348" 
d="M177 258c-71 0 -118 48 -118 130c0 126 90 208 178 208c71 0 119 -48 119 -129c0 -127 -90 -209 -179 -209zM233 549c-63 0 -117 -73 -117 -158c0 -54 23 -85 66 -85c62 0 116 72 116 158c0 53 -23 85 -65 85z" />
    <glyph glyph-name="guillemotright" unicode="&#xbb;" horiz-adv-x="412" 
d="M115 435l103 -158l-11 -62l-156 -148l-28 29l141 156l-85 161zM274 435l103 -158l-11 -62l-156 -148l-28 29l142 156l-85 161z" />
    <glyph glyph-name="onequarter" unicode="&#xbc;" horiz-adv-x="748" 
d="M146 270l63 312h-90l8 39c52 8 78 18 110 39h47l-78 -390h-60zM605 672h52l-483 -684h-53zM470 149h117l15 76l25 108h-4l-67 -84zM696 149l-9 -43h-56l-21 -106h-53l21 106h-176l7 33l213 251h65l-48 -241h57z" />
    <glyph glyph-name="onehalf" unicode="&#xbd;" horiz-adv-x="772" 
d="M142 270l63 312h-90l8 39c52 8 78 18 110 39h47l-78 -390h-60zM151 -12h-52l484 684h52zM420 0l7 38c164 115 232 178 232 250c0 38 -21 62 -65 62c-28 0 -55 -20 -80 -47l-35 36c36 36 75 63 125 63c71 0 115 -40 115 -105c0 -83 -66 -149 -194 -246h163l-10 -51h-258z
" />
    <glyph glyph-name="threequarters" unicode="&#xbe;" horiz-adv-x="764" 
d="M140 591l-26 41c39 28 77 40 120 40c65 0 111 -36 111 -95c0 -49 -34 -91 -92 -109c46 -16 68 -54 68 -88c0 -77 -65 -122 -141 -122c-65 0 -110 37 -134 80l41 29c20 -35 47 -60 91 -60c47 0 84 26 84 72c0 39 -31 71 -107 71l9 41c90 0 120 41 120 78
c0 33 -23 55 -61 55c-28 0 -54 -11 -83 -33zM639 672h52l-484 -684h-52zM488 149h116l15 76l26 108h-4l-67 -84zM714 149l-10 -43h-56l-21 -106h-53l21 106h-176l7 33l213 251h66l-48 -241h57z" />
    <glyph glyph-name="questiondown" unicode="&#xbf;" horiz-adv-x="409" 
d="M272 499c29 0 48 -21 48 -50c0 -33 -29 -70 -67 -70c-30 0 -46 22 -46 51c0 35 27 69 65 69zM269 286c-10 -168 -198 -207 -198 -330c0 -54 32 -87 85 -87c39 0 77 20 106 52l40 -46c-38 -41 -94 -70 -154 -70c-93 0 -152 52 -152 139c0 161 193 197 207 348z" />
    <glyph glyph-name="Agrave" unicode="&#xc0;" horiz-adv-x="510" 
d="M391 706h-60l-89 110h81zM169 265h195l-10 112c-6 69 -13 139 -18 214h-4c-35 -76 -68 -142 -105 -214zM388 0l-18 205h-232l-105 -205h-86l356 656h90l76 -656h-81z" />
    <glyph glyph-name="Aacute" unicode="&#xc1;" horiz-adv-x="510" 
d="M488 816l-128 -110h-65l106 110h87zM169 265h195l-10 112c-6 69 -13 139 -18 214h-4c-35 -76 -68 -142 -105 -214zM303 656h90l76 -656h-81l-18 205h-232l-105 -205h-86z" />
    <glyph glyph-name="Acircumflex" unicode="&#xc2;" horiz-adv-x="510" 
d="M359 776l-78 -70h-66l114 109h73l70 -109h-59l-51 70h-3zM169 265h195l-10 112c-6 69 -13 139 -18 214h-4c-35 -76 -68 -142 -105 -214zM303 656h90l76 -656h-81l-18 205h-232l-105 -205h-86z" />
    <glyph glyph-name="Atilde" unicode="&#xc3;" horiz-adv-x="510" 
d="M458 814h44c-14 -59 -54 -105 -99 -105c-50 0 -65 56 -104 56c-21 0 -37 -21 -49 -54h-44c14 59 54 105 99 105c50 0 65 -55 104 -55c21 0 37 20 49 53zM169 265h195l-10 112c-6 69 -13 139 -18 214h-4c-35 -76 -68 -142 -105 -214zM303 656h90l76 -656h-81l-18 205h-232
l-105 -205h-86z" />
    <glyph glyph-name="Adieresis" unicode="&#xc4;" horiz-adv-x="510" 
d="M433 715c-23 0 -40 15 -40 40c0 29 23 55 51 55c22 0 40 -15 40 -41c0 -28 -23 -54 -51 -54zM267 715c-23 0 -40 15 -40 40c0 29 23 55 51 55c23 0 40 -15 40 -41c0 -28 -23 -54 -51 -54zM169 265h195l-10 112c-6 69 -13 139 -18 214h-4c-35 -76 -68 -142 -105 -214z
M303 656h90l76 -656h-81l-18 205h-232l-105 -205h-86z" />
    <glyph glyph-name="Aring" unicode="&#xc5;" horiz-adv-x="510" 
d="M364 839c-29 0 -53 -26 -53 -59c0 -28 15 -47 42 -47c29 0 54 26 54 60c0 28 -16 46 -43 46zM351 697c-46 0 -84 25 -84 79c0 55 46 99 99 99c46 0 84 -25 84 -79c0 -55 -45 -99 -99 -99zM169 265h195l-10 112c-6 69 -13 139 -18 214h-4c-35 -76 -68 -142 -105 -214z
M388 0l-18 205h-232l-105 -205h-86l356 656h90l76 -656h-81z" />
    <glyph glyph-name="AE" unicode="&#xc6;" horiz-adv-x="803" 
d="M397 256l68 341h-3c-50 -74 -99 -144 -149 -217l-84 -124h168zM814 591h-273l-42 -213h229l-13 -66h-228l-51 -246h282l-13 -66h-359l39 194h-198l-131 -194h-89l459 656h402z" />
    <glyph glyph-name="Ccedilla" unicode="&#xc7;" horiz-adv-x="550" 
d="M557 571l-54 -41c-26 42 -61 71 -111 71c-156 0 -255 -182 -255 -341c0 -119 49 -205 167 -205c53 0 96 23 139 59l35 -50c-46 -40 -104 -73 -179 -76l-28 -41c25 -9 45 -26 45 -57c0 -65 -72 -95 -150 -103l-4 35c53 9 94 27 94 60c0 22 -14 33 -52 43l46 66
c-125 18 -193 120 -193 262c0 206 136 415 339 415c75 0 129 -41 161 -97z" />
    <glyph glyph-name="Egrave" unicode="&#xc8;" horiz-adv-x="503" 
d="M35 0l131 656h362l-13 -65h-285l-42 -213h241l-14 -66h-239l-51 -246h294l-14 -66h-370zM342 706l-89 110h81l69 -110h-61z" />
    <glyph glyph-name="Eacute" unicode="&#xc9;" horiz-adv-x="503" 
d="M35 0l131 656h362l-13 -65h-285l-42 -213h241l-14 -66h-239l-51 -246h294l-14 -66h-370zM306 706l106 110h88l-128 -110h-66z" />
    <glyph glyph-name="Ecircumflex" unicode="&#xca;" horiz-adv-x="503" 
d="M35 0l131 656h362l-13 -65h-285l-42 -213h241l-14 -66h-239l-51 -246h294l-14 -66h-370zM227 706l113 109h73l70 -109h-59l-50 70h-4l-78 -70h-65z" />
    <glyph glyph-name="Edieresis" unicode="&#xcb;" horiz-adv-x="503" 
d="M35 0l131 656h362l-13 -65h-285l-42 -213h241l-14 -66h-239l-51 -246h294l-14 -66h-370zM279 715c-24 0 -40 15 -40 40c0 29 22 55 50 55c23 0 40 -15 40 -41c0 -28 -22 -54 -50 -54zM445 715c-24 0 -40 15 -40 40c0 29 22 55 50 55c23 0 40 -15 40 -41
c0 -28 -23 -54 -50 -54z" />
    <glyph glyph-name="Igrave" unicode="&#xcc;" horiz-adv-x="252" 
d="M35 0l131 656h78l-131 -656h-78zM192 706l-89 110h81l69 -110h-61z" />
    <glyph glyph-name="Iacute" unicode="&#xcd;" horiz-adv-x="252" 
d="M35 0l131 656h78l-131 -656h-78zM156 706l107 110h87l-128 -110h-66z" />
    <glyph glyph-name="Icircumflex" unicode="&#xce;" horiz-adv-x="252" 
d="M35 0l131 656h78l-131 -656h-78zM77 706l114 109h72l71 -109h-59l-51 70h-3l-79 -70h-65z" />
    <glyph glyph-name="Idieresis" unicode="&#xcf;" horiz-adv-x="252" 
d="M35 0l131 656h78l-131 -656h-78zM129 715c-23 0 -40 15 -40 40c0 29 23 55 51 55c22 0 40 -15 40 -41c0 -28 -23 -54 -51 -54zM295 715c-23 0 -40 15 -40 40c0 29 23 55 50 55c23 0 40 -15 40 -41c0 -28 -22 -54 -50 -54z" />
    <glyph glyph-name="Eth" unicode="&#xd0;" horiz-adv-x="610" 
d="M143 64h86c170 0 276 136 276 331c0 124 -70 198 -202 198h-54l-45 -225h150l-10 -44h-149zM184 656h122c182 0 278 -95 278 -256c0 -238 -133 -400 -355 -400h-176l65 324h-71l9 41l70 3z" />
    <glyph glyph-name="Ntilde" unicode="&#xd1;" horiz-adv-x="619" 
d="M35 0l131 656h78l150 -420l42 -137h4c8 65 16 141 30 209l69 348h75l-131 -656h-77l-148 419l-43 141h-4c-8 -68 -18 -141 -31 -207l-70 -353h-75zM302 711h-44c14 59 54 105 99 105c50 0 65 -55 104 -55c21 0 37 20 49 53h44c-14 -59 -54 -105 -99 -105
c-50 0 -65 56 -104 56c-21 0 -37 -21 -49 -54z" />
    <glyph glyph-name="Ograve" unicode="&#xd2;" horiz-adv-x="633" 
d="M287 -12c-147 0 -227 109 -227 275c0 200 131 405 319 405c147 0 227 -109 227 -274c0 -201 -131 -406 -319 -406zM375 601c-141 0 -236 -178 -236 -332c0 -128 47 -214 152 -214c141 0 236 179 236 332c0 129 -48 214 -152 214zM390 706l-89 110h81l68 -110h-60z" />
    <glyph glyph-name="Oacute" unicode="&#xd3;" horiz-adv-x="633" 
d="M287 -12c-147 0 -227 109 -227 275c0 200 131 405 319 405c147 0 227 -109 227 -274c0 -201 -131 -406 -319 -406zM375 601c-141 0 -236 -178 -236 -332c0 -128 47 -214 152 -214c141 0 236 179 236 332c0 129 -48 214 -152 214zM354 706l106 110h87l-128 -110h-65z" />
    <glyph glyph-name="Ocircumflex" unicode="&#xd4;" horiz-adv-x="633" 
d="M287 -12c-147 0 -227 109 -227 275c0 200 131 405 319 405c147 0 227 -109 227 -274c0 -201 -131 -406 -319 -406zM375 601c-141 0 -236 -178 -236 -332c0 -128 47 -214 152 -214c141 0 236 179 236 332c0 129 -48 214 -152 214zM275 706l113 109h73l70 -109h-59l-51 70
h-3l-78 -70h-65z" />
    <glyph glyph-name="Otilde" unicode="&#xd5;" horiz-adv-x="633" 
d="M287 -12c-147 0 -227 109 -227 275c0 200 131 405 319 405c147 0 227 -109 227 -274c0 -201 -131 -406 -319 -406zM375 601c-141 0 -236 -178 -236 -332c0 -128 47 -214 152 -214c141 0 236 179 236 332c0 129 -48 214 -152 214zM309 711h-44c14 59 54 105 99 105
c50 0 65 -55 104 -55c21 0 37 20 49 53h44c-14 -59 -54 -105 -99 -105c-50 0 -65 56 -104 56c-21 0 -37 -21 -49 -54z" />
    <glyph glyph-name="Odieresis" unicode="&#xd6;" horiz-adv-x="633" 
d="M287 -12c-147 0 -227 109 -227 275c0 200 131 405 319 405c147 0 227 -109 227 -274c0 -201 -131 -406 -319 -406zM375 601c-141 0 -236 -178 -236 -332c0 -128 47 -214 152 -214c141 0 236 179 236 332c0 129 -48 214 -152 214zM327 715c-24 0 -40 15 -40 40
c0 29 22 55 50 55c23 0 40 -15 40 -41c0 -28 -23 -54 -50 -54zM492 715c-23 0 -40 15 -40 40c0 29 23 55 51 55c22 0 40 -15 40 -41c0 -28 -23 -54 -51 -54z" />
    <glyph glyph-name="multiply" unicode="&#xd7;" horiz-adv-x="480" 
d="M253 291l-148 -156l-40 41l148 155l-148 155l40 40l148 -155l148 155l41 -40l-149 -155l149 -155l-41 -41z" />
    <glyph glyph-name="Oslash" unicode="&#xd8;" horiz-adv-x="633" 
d="M516 483l-342 -366c25 -39 63 -62 117 -62c141 0 236 179 236 332c0 36 -4 68 -11 96zM151 169l344 366c-25 42 -65 66 -120 66c-141 0 -236 -178 -236 -332c0 -37 4 -71 12 -100zM673 652l-97 -104c20 -43 30 -95 30 -154c0 -201 -131 -406 -319 -406
c-72 0 -128 26 -166 72l-84 -90l-40 35l95 101c-21 43 -32 96 -32 157c0 200 131 405 319 405c74 0 131 -27 169 -76l89 95z" />
    <glyph glyph-name="Ugrave" unicode="&#xd9;" horiz-adv-x="616" 
d="M89 288l74 368h78l-75 -375c-6 -30 -9 -55 -9 -79c0 -94 41 -147 133 -147c75 0 139 56 167 199l81 402h76l-82 -405c-37 -189 -129 -263 -246 -263c-133 0 -207 71 -207 207c0 28 4 60 10 93zM380 706l-89 110h81l68 -110h-60z" />
    <glyph glyph-name="Uacute" unicode="&#xda;" horiz-adv-x="616" 
d="M89 288l74 368h78l-75 -375c-6 -30 -9 -55 -9 -79c0 -94 41 -147 133 -147c75 0 139 56 167 199l81 402h76l-82 -405c-37 -189 -129 -263 -246 -263c-133 0 -207 71 -207 207c0 28 4 60 10 93zM344 706l106 110h88l-129 -110h-65z" />
    <glyph glyph-name="Ucircumflex" unicode="&#xdb;" horiz-adv-x="616" 
d="M89 288l74 368h78l-75 -375c-6 -30 -9 -55 -9 -79c0 -94 41 -147 133 -147c75 0 139 56 167 199l81 402h76l-82 -405c-37 -189 -129 -263 -246 -263c-133 0 -207 71 -207 207c0 28 4 60 10 93zM265 706l113 109h73l70 -109h-59l-50 70h-4l-78 -70h-65z" />
    <glyph glyph-name="Udieresis" unicode="&#xdc;" horiz-adv-x="616" 
d="M89 288l74 368h78l-75 -375c-6 -30 -9 -55 -9 -79c0 -94 41 -147 133 -147c75 0 139 56 167 199l81 402h76l-82 -405c-37 -189 -129 -263 -246 -263c-133 0 -207 71 -207 207c0 28 4 60 10 93zM317 715c-24 0 -40 15 -40 40c0 29 22 55 50 55c23 0 40 -15 40 -41
c0 -28 -22 -54 -50 -54zM483 715c-24 0 -40 15 -40 40c0 29 22 55 50 55c23 0 40 -15 40 -41c0 -28 -23 -54 -50 -54z" />
    <glyph glyph-name="Yacute" unicode="&#xdd;" horiz-adv-x="461" 
d="M139 0l51 256l-107 400h80l45 -189c12 -48 21 -92 33 -142h4c30 49 58 95 90 143l124 188h83l-274 -400l-52 -256h-77zM258 706l106 110h88l-128 -110h-66z" />
    <glyph glyph-name="Thorn" unicode="&#xde;" horiz-adv-x="562" 
d="M35 0l131 660h78l-23 -115h115c119 0 199 -47 199 -160c0 -161 -120 -233 -287 -233h-106l-30 -152h-77zM156 215h94c136 0 208 55 208 159c0 76 -51 108 -145 108h-105z" />
    <glyph glyph-name="germandbls" unicode="&#xdf;" horiz-adv-x="555" 
d="M31 0l105 525c23 109 97 199 210 199c80 0 144 -43 144 -132c0 -124 -132 -150 -132 -229s147 -95 147 -218c0 -87 -71 -157 -166 -157c-49 0 -99 17 -140 50l35 51c31 -25 64 -41 105 -41c52 0 94 36 94 87c0 95 -150 112 -150 214c0 105 133 129 133 235
c0 45 -21 78 -73 78c-68 0 -116 -70 -134 -155l-102 -507h-76z" />
    <glyph glyph-name="agrave" unicode="&#xe0;" horiz-adv-x="537" 
d="M39 164c0 187 128 334 263 334c52 0 94 -29 117 -73h4l19 61h62l-97 -486h-63l8 72h-4c-47 -50 -108 -84 -169 -84c-85 0 -140 62 -140 176zM207 52c51 0 105 30 153 93l44 217c-28 51 -62 72 -99 72c-97 0 -187 -124 -187 -258c0 -84 35 -124 89 -124zM330 571l-78 141
h75l58 -141h-55z" />
    <glyph glyph-name="aacute" unicode="&#xe1;" horiz-adv-x="537" 
d="M39 164c0 187 128 334 263 334c52 0 94 -29 117 -73h4l19 61h62l-97 -486h-63l8 72h-4c-47 -50 -108 -84 -169 -84c-85 0 -140 62 -140 176zM207 52c51 0 105 30 153 93l44 217c-28 51 -62 72 -99 72c-97 0 -187 -124 -187 -258c0 -84 35 -124 89 -124zM260 571l116 141
h83l-137 -141h-62z" />
    <glyph glyph-name="acircumflex" unicode="&#xe2;" horiz-adv-x="537" 
d="M39 164c0 187 128 334 263 334c52 0 94 -29 117 -73h4l19 61h62l-97 -486h-63l8 72h-4c-47 -50 -108 -84 -169 -84c-85 0 -140 62 -140 176zM207 52c51 0 105 30 153 93l44 217c-28 51 -62 72 -99 72c-97 0 -187 -124 -187 -258c0 -84 35 -124 89 -124zM203 571l122 141
h58l66 -141h-53l-47 92h-4l-84 -92h-58z" />
    <glyph glyph-name="atilde" unicode="&#xe3;" horiz-adv-x="537" 
d="M39 164c0 187 128 334 263 334c52 0 94 -29 117 -73h4l19 61h62l-97 -486h-63l8 72h-4c-47 -50 -108 -84 -169 -84c-85 0 -140 62 -140 176zM207 52c51 0 105 30 153 93l44 217c-28 51 -62 72 -99 72c-97 0 -187 -124 -187 -258c0 -84 35 -124 89 -124zM239 580h-44
c17 60 51 102 93 102c58 0 67 -53 109 -53c17 0 32 20 44 51h44c-17 -59 -51 -102 -93 -102c-58 0 -66 53 -109 53c-16 0 -32 -20 -44 -51z" />
    <glyph glyph-name="adieresis" unicode="&#xe4;" horiz-adv-x="537" 
d="M39 164c0 187 128 334 263 334c52 0 94 -29 117 -73h4l19 61h62l-97 -486h-63l8 72h-4c-47 -50 -108 -84 -169 -84c-85 0 -140 62 -140 176zM207 52c51 0 105 30 153 93l44 217c-28 51 -62 72 -99 72c-97 0 -187 -124 -187 -258c0 -84 35 -124 89 -124zM251 589
c-24 0 -41 15 -41 40c0 30 24 55 52 55c23 0 40 -16 40 -42c0 -30 -23 -53 -51 -53zM417 589c-24 0 -41 15 -41 40c0 30 24 55 51 55c24 0 41 -16 41 -42c0 -30 -23 -53 -51 -53z" />
    <glyph glyph-name="aring" unicode="&#xe5;" horiz-adv-x="537" 
d="M39 164c0 187 128 334 263 334c52 0 94 -29 117 -73h4l19 61h62l-97 -486h-63l8 72h-4c-47 -50 -108 -84 -169 -84c-85 0 -140 62 -140 176zM207 52c51 0 105 30 153 93l44 217c-28 51 -62 72 -99 72c-97 0 -187 -124 -187 -258c0 -84 35 -124 89 -124zM331 540
c-48 0 -83 29 -83 82c0 56 44 102 98 102c48 0 83 -29 83 -82c0 -56 -44 -102 -98 -102zM344 688c-28 0 -53 -29 -53 -63c0 -29 15 -49 42 -49c29 0 53 29 53 63c0 28 -15 49 -42 49z" />
    <glyph glyph-name="ae" unicode="&#xe6;" horiz-adv-x="761" 
d="M32 106c0 138 132 189 318 195c4 18 5 30 5 44c0 59 -24 91 -84 91c-42 0 -90 -18 -136 -44l-21 56c51 28 114 50 173 50c66 0 112 -31 123 -95c45 59 106 95 167 95c109 0 151 -76 151 -176c0 -39 -11 -77 -18 -95h-303c-17 -107 35 -178 119 -178c38 0 79 19 109 42
l30 -51c-38 -28 -92 -52 -154 -52c-70 0 -130 42 -153 96c-64 -60 -129 -96 -201 -96c-68 0 -125 42 -125 118zM415 279h242c3 18 5 31 5 50c0 55 -24 108 -94 108c-61 0 -129 -62 -153 -158zM340 250c-145 -4 -233 -47 -233 -128c0 -47 33 -73 78 -73c41 0 98 28 153 86
c-5 42 -5 72 2 115z" />
    <glyph glyph-name="ccedilla" unicode="&#xe7;" horiz-adv-x="435" 
d="M128 -75l46 67c-83 16 -137 84 -137 191c0 181 130 315 271 315c58 0 97 -26 126 -59l-45 -48c-25 30 -48 44 -86 44c-97 0 -188 -114 -188 -247c0 -88 38 -136 115 -136c43 0 78 20 108 43l34 -50c-34 -26 -81 -55 -148 -57l-28 -41c25 -9 45 -26 45 -57
c0 -65 -72 -95 -150 -103l-4 35c53 9 94 27 94 60c0 22 -14 33 -53 43z" />
    <glyph glyph-name="egrave" unicode="&#xe8;" horiz-adv-x="481" 
d="M37 191c0 183 133 307 260 307c109 0 150 -76 150 -176c0 -39 -11 -77 -17 -95h-316c-18 -125 47 -178 132 -178c38 0 78 19 109 42l30 -51c-39 -28 -94 -52 -157 -52c-115 0 -191 73 -191 203zM122 279h255c3 16 5 31 5 50c0 55 -24 108 -94 108
c-71 0 -141 -62 -166 -158zM314 571l-78 141h75l59 -141h-56z" />
    <glyph glyph-name="eacute" unicode="&#xe9;" horiz-adv-x="481" 
d="M37 191c0 183 133 307 260 307c109 0 150 -76 150 -176c0 -39 -11 -77 -17 -95h-316c-18 -125 47 -178 132 -178c38 0 78 19 109 42l30 -51c-39 -28 -94 -52 -157 -52c-115 0 -191 73 -191 203zM122 279h255c3 16 5 31 5 50c0 55 -24 108 -94 108
c-71 0 -141 -62 -166 -158zM245 571l116 141h82l-136 -141h-62z" />
    <glyph glyph-name="ecircumflex" unicode="&#xea;" horiz-adv-x="481" 
d="M37 191c0 183 133 307 260 307c109 0 150 -76 150 -176c0 -39 -11 -77 -17 -95h-316c-18 -125 47 -178 132 -178c38 0 78 19 109 42l30 -51c-39 -28 -94 -52 -157 -52c-115 0 -191 73 -191 203zM122 279h255c3 16 5 31 5 50c0 55 -24 108 -94 108
c-71 0 -141 -62 -166 -158zM188 571l122 141h57l66 -141h-52l-48 92h-4l-83 -92h-58z" />
    <glyph glyph-name="edieresis" unicode="&#xeb;" horiz-adv-x="481" 
d="M37 191c0 183 133 307 260 307c109 0 150 -76 150 -176c0 -39 -11 -77 -17 -95h-316c-18 -125 47 -178 132 -178c38 0 78 19 109 42l30 -51c-39 -28 -94 -52 -157 -52c-115 0 -191 73 -191 203zM122 279h255c3 16 5 31 5 50c0 55 -24 108 -94 108
c-71 0 -141 -62 -166 -158zM236 589c-24 0 -41 15 -41 40c0 30 23 55 51 55c24 0 41 -16 41 -42c0 -30 -24 -53 -51 -53zM401 589c-23 0 -40 15 -40 40c0 30 23 55 51 55c24 0 41 -16 41 -42c0 -30 -24 -53 -52 -53z" />
    <glyph glyph-name="igrave" unicode="&#xec;" horiz-adv-x="237" 
d="M31 0l97 486h77l-98 -486h-76zM186 571l-78 141h75l59 -141h-56z" />
    <glyph glyph-name="iacute" unicode="&#xed;" horiz-adv-x="237" 
d="M31 0l97 486h77l-98 -486h-76zM117 571l116 141h82l-136 -141h-62z" />
    <glyph glyph-name="icircumflex" unicode="&#xee;" horiz-adv-x="237" 
d="M31 0l97 486h77l-98 -486h-76zM60 571l122 141h57l66 -141h-52l-48 92h-4l-83 -92h-58z" />
    <glyph glyph-name="idieresis" unicode="&#xef;" horiz-adv-x="237" 
d="M31 0l97 486h77l-98 -486h-76zM108 589c-24 0 -41 15 -41 40c0 30 23 55 51 55c24 0 41 -16 41 -42c0 -30 -24 -53 -51 -53zM273 589c-23 0 -40 15 -40 40c0 30 23 55 51 55c24 0 41 -16 41 -42c0 -30 -24 -53 -52 -53z" />
    <glyph glyph-name="eth" unicode="&#xf0;" horiz-adv-x="524" 
d="M225 52c96 0 161 116 170 257c-26 40 -62 77 -114 77c-103 0 -168 -104 -168 -207c0 -69 40 -127 112 -127zM530 650l-133 -55c45 -66 72 -147 72 -248c0 -190 -93 -359 -253 -359c-99 0 -173 78 -173 184c0 138 88 275 231 275c48 0 92 -27 121 -71
c-5 79 -25 141 -61 193l-147 -61l-16 41l135 56c-26 29 -58 55 -95 79l36 46c46 -27 88 -60 122 -99l145 60z" />
    <glyph glyph-name="ntilde" unicode="&#xf1;" horiz-adv-x="525" 
d="M31 0l96 486h63l-7 -73h4c55 48 109 85 170 85c82 0 115 -46 115 -121c0 -23 -2 -40 -8 -67l-62 -310h-76l60 300c5 26 8 40 8 57c0 49 -22 75 -72 75c-38 0 -85 -27 -146 -88l-69 -344h-76zM254 580h-44c17 60 52 102 94 102c58 0 66 -53 109 -53c16 0 32 20 44 51h44
c-17 -59 -51 -102 -93 -102c-58 0 -67 53 -109 53c-17 0 -32 -20 -45 -51z" />
    <glyph glyph-name="ograve" unicode="&#xf2;" horiz-adv-x="515" 
d="M212 -12c-105 0 -173 74 -173 195c0 184 129 315 262 315c105 0 174 -74 174 -195c0 -184 -130 -315 -263 -315zM293 435c-89 0 -177 -111 -177 -247c0 -88 37 -136 104 -136c90 0 177 110 177 246c0 88 -37 137 -104 137zM332 571l-78 141h75l59 -141h-56z" />
    <glyph glyph-name="oacute" unicode="&#xf3;" horiz-adv-x="515" 
d="M212 -12c-105 0 -173 74 -173 195c0 184 129 315 262 315c105 0 174 -74 174 -195c0 -184 -130 -315 -263 -315zM293 435c-89 0 -177 -111 -177 -247c0 -88 37 -136 104 -136c90 0 177 110 177 246c0 88 -37 137 -104 137zM263 571l116 141h82l-136 -141h-62z" />
    <glyph glyph-name="ocircumflex" unicode="&#xf4;" horiz-adv-x="515" 
d="M212 -12c-105 0 -173 74 -173 195c0 184 129 315 262 315c105 0 174 -74 174 -195c0 -184 -130 -315 -263 -315zM293 435c-89 0 -177 -111 -177 -247c0 -88 37 -136 104 -136c90 0 177 110 177 246c0 88 -37 137 -104 137zM206 571l122 141h58l65 -141h-52l-48 92h-4
l-83 -92h-58z" />
    <glyph glyph-name="otilde" unicode="&#xf5;" horiz-adv-x="515" 
d="M212 -12c-105 0 -173 74 -173 195c0 184 129 315 262 315c105 0 174 -74 174 -195c0 -184 -130 -315 -263 -315zM293 435c-89 0 -177 -111 -177 -247c0 -88 37 -136 104 -136c90 0 177 110 177 246c0 88 -37 137 -104 137zM241 580h-44c17 60 52 102 94 102
c58 0 66 -53 109 -53c16 0 32 20 44 51h44c-17 -59 -51 -102 -94 -102c-57 0 -66 53 -108 53c-17 0 -32 -20 -45 -51z" />
    <glyph glyph-name="odieresis" unicode="&#xf6;" horiz-adv-x="515" 
d="M212 -12c-105 0 -173 74 -173 195c0 184 129 315 262 315c105 0 174 -74 174 -195c0 -184 -130 -315 -263 -315zM293 435c-89 0 -177 -111 -177 -247c0 -88 37 -136 104 -136c90 0 177 110 177 246c0 88 -37 137 -104 137zM254 589c-24 0 -41 15 -41 40c0 30 23 55 51 55
c24 0 41 -16 41 -42c0 -30 -24 -53 -51 -53zM420 589c-24 0 -41 15 -41 40c0 30 23 55 51 55c24 0 41 -16 41 -42c0 -30 -24 -53 -51 -53z" />
    <glyph glyph-name="divide" unicode="&#xf7;" horiz-adv-x="480" 
d="M253 460c-29 0 -51 23 -51 52c0 28 22 50 51 50s51 -22 51 -50c0 -29 -22 -52 -51 -52zM253 97c-29 0 -51 22 -51 51c0 28 22 50 51 50s51 -22 51 -50c0 -29 -22 -51 -51 -51zM458 302h-410v57h410v-57z" />
    <glyph glyph-name="oslash" unicode="&#xf8;" horiz-adv-x="515" 
d="M396 353l-259 -265c18 -25 45 -38 81 -38c100 0 184 121 184 247c0 21 -2 40 -6 56zM119 128l259 266c-18 27 -46 42 -83 42c-99 0 -183 -122 -183 -248c0 -23 2 -43 7 -60zM519 480l-67 -69c15 -30 23 -66 23 -108c0 -185 -130 -315 -263 -315c-50 0 -93 17 -124 50
l-59 -61l-29 28l64 66c-16 30 -25 68 -25 112c0 184 129 315 262 315c52 0 96 -18 127 -53l61 63z" />
    <glyph glyph-name="ugrave" unicode="&#xf9;" horiz-adv-x="528" 
d="M495 486l-97 -486h-63l8 74h-4c-53 -47 -109 -86 -168 -86c-82 0 -115 47 -115 121c0 23 2 41 8 67l62 310h77l-61 -300c-5 -26 -8 -40 -8 -57c0 -49 22 -75 72 -75c38 0 85 27 144 88l69 344h76zM325 571l-78 141h75l59 -141h-56z" />
    <glyph glyph-name="uacute" unicode="&#xfa;" horiz-adv-x="528" 
d="M495 486l-97 -486h-63l8 74h-4c-53 -47 -109 -86 -168 -86c-82 0 -115 47 -115 121c0 23 2 41 8 67l62 310h77l-61 -300c-5 -26 -8 -40 -8 -57c0 -49 22 -75 72 -75c38 0 85 27 144 88l69 344h76zM256 571l116 141h82l-136 -141h-62z" />
    <glyph glyph-name="ucircumflex" unicode="&#xfb;" horiz-adv-x="528" 
d="M495 486l-97 -486h-63l8 74h-4c-53 -47 -109 -86 -168 -86c-82 0 -115 47 -115 121c0 23 2 41 8 67l62 310h77l-61 -300c-5 -26 -8 -40 -8 -57c0 -49 22 -75 72 -75c38 0 85 27 144 88l69 344h76zM199 571l122 141h57l66 -141h-52l-48 92h-4l-83 -92h-58z" />
    <glyph glyph-name="udieresis" unicode="&#xfc;" horiz-adv-x="528" 
d="M495 486l-97 -486h-63l8 74h-4c-53 -47 -109 -86 -168 -86c-82 0 -115 47 -115 121c0 23 2 41 8 67l62 310h77l-61 -300c-5 -26 -8 -40 -8 -57c0 -49 22 -75 72 -75c38 0 85 27 144 88l69 344h76zM247 589c-24 0 -41 15 -41 40c0 30 23 55 51 55c24 0 41 -16 41 -42
c0 -30 -24 -53 -51 -53zM413 589c-24 0 -41 15 -41 40c0 30 23 55 51 55c24 0 41 -16 41 -42c0 -30 -24 -53 -51 -53z" />
    <glyph glyph-name="yacute" unicode="&#xfd;" horiz-adv-x="448" 
d="M-37 -138c12 -6 23 -9 36 -9c49 0 94 44 127 111l18 35l-83 487h76l38 -273c7 -44 12 -99 16 -145h4c23 46 48 99 72 145l140 273h76l-286 -527c-51 -95 -110 -168 -203 -168c-14 0 -37 4 -56 14zM209 571l116 141h82l-136 -141h-62z" />
    <glyph glyph-name="thorn" unicode="&#xfe;" horiz-adv-x="535" 
d="M234 -12c-51 0 -91 29 -117 70h-2l-18 -104l-31 -159h-76l183 917h77l-39 -190l-22 -96h2c48 39 105 72 165 72c85 0 140 -63 140 -176c0 -187 -128 -334 -262 -334zM328 434c-45 0 -104 -30 -150 -79l-46 -233c27 -50 61 -70 99 -70c97 0 186 124 186 259
c0 82 -34 123 -89 123z" />
    <glyph glyph-name="ydieresis" unicode="&#xff;" horiz-adv-x="448" 
d="M-37 -138c12 -6 23 -9 36 -9c49 0 94 44 127 111l18 35l-83 487h76l38 -273c7 -44 12 -99 16 -145h4c23 46 48 99 72 145l140 273h76l-286 -527c-51 -95 -110 -168 -203 -168c-14 0 -37 4 -56 14zM200 589c-24 0 -41 15 -41 40c0 30 24 55 51 55c24 0 41 -16 41 -42
c0 -30 -23 -53 -51 -53zM366 589c-24 0 -41 15 -41 40c0 30 23 55 51 55c24 0 41 -16 41 -42c0 -30 -23 -53 -51 -53z" />
    <glyph glyph-name="Amacron" unicode="&#x100;" horiz-adv-x="510" 
d="M477 783l-11 -54h-235l11 54h235zM169 265h195l-10 112c-6 69 -13 139 -18 214h-4c-35 -76 -68 -142 -105 -214zM303 656h90l76 -656h-81l-18 205h-232l-105 -205h-86z" />
    <glyph glyph-name="amacron" unicode="&#x101;" horiz-adv-x="537" 
d="M39 164c0 187 128 334 263 334c52 0 94 -29 117 -73h4l19 61h62l-97 -486h-63l8 72h-4c-47 -50 -108 -84 -169 -84c-85 0 -140 62 -140 176zM207 52c51 0 105 30 153 93l44 217c-28 51 -62 72 -99 72c-97 0 -187 -124 -187 -258c0 -84 35 -124 89 -124zM214 601l10 54
h235l-10 -54h-235z" />
    <glyph glyph-name="Abreve" unicode="&#x102;" horiz-adv-x="510" 
d="M434 816h47c-18 -56 -60 -110 -137 -110c-73 0 -100 56 -95 110h45c-2 -35 15 -65 58 -65c42 0 70 32 82 65zM169 265h195l-10 112c-6 69 -13 139 -18 214h-4c-35 -76 -68 -142 -105 -214zM303 656h90l76 -656h-81l-18 205h-232l-105 -205h-86z" />
    <glyph glyph-name="abreve" unicode="&#x103;" horiz-adv-x="537" 
d="M39 164c0 187 128 334 263 334c52 0 94 -29 117 -73h4l19 61h62l-97 -486h-63l8 72h-4c-47 -50 -108 -84 -169 -84c-85 0 -140 62 -140 176zM207 52c51 0 105 30 153 93l44 217c-28 51 -62 72 -99 72c-97 0 -187 -124 -187 -258c0 -84 35 -124 89 -124zM327 575
c-80 0 -103 64 -94 125h45c-4 -46 12 -79 56 -79s76 35 91 79h47c-18 -61 -63 -125 -145 -125z" />
    <glyph glyph-name="Aogonek" unicode="&#x104;" horiz-adv-x="510" 
d="M169 265h195l-10 112c-6 69 -13 139 -18 214h-4c-35 -76 -68 -142 -105 -214zM393 656l76 -656c-64 -36 -98 -80 -98 -119c0 -24 16 -38 36 -38c13 0 23 3 36 11l17 -42c-22 -14 -53 -23 -76 -23c-45 0 -78 24 -78 69c0 57 52 112 95 142h-13l-18 205h-232l-105 -205h-86
l356 656h90z" />
    <glyph glyph-name="aogonek" unicode="&#x105;" horiz-adv-x="537" 
d="M39 164c0 187 128 334 263 334c52 0 96 -30 119 -75h2l19 63h62l-97 -486c-68 -31 -110 -74 -110 -118c0 -23 16 -37 36 -37c14 0 25 4 38 12l16 -38c-23 -14 -53 -25 -76 -25c-44 0 -75 23 -75 67c0 60 58 116 109 145l7 67h-2c-48 -49 -110 -85 -171 -85
c-85 0 -140 62 -140 176zM207 52c45 0 105 30 153 93l44 218c-28 51 -62 71 -99 71c-97 0 -187 -124 -187 -258c0 -84 35 -124 89 -124z" />
    <glyph glyph-name="Cacute" unicode="&#x106;" horiz-adv-x="550" 
d="M57 253c0 206 136 415 339 415c75 0 129 -41 161 -97l-54 -41c-26 42 -61 71 -111 71c-156 0 -255 -182 -255 -341c0 -119 49 -205 167 -205c53 0 96 23 139 59l35 -50c-48 -42 -109 -76 -188 -76c-150 0 -233 108 -233 265zM360 706l106 110h87l-128 -110h-65z" />
    <glyph glyph-name="cacute" unicode="&#x107;" horiz-adv-x="435" 
d="M37 183c0 181 130 315 271 315c58 0 97 -26 126 -59l-45 -48c-25 30 -48 44 -86 44c-97 0 -188 -114 -188 -247c0 -88 38 -136 115 -136c43 0 78 20 108 43l34 -50c-35 -27 -85 -57 -156 -57c-106 0 -179 71 -179 195zM249 571l116 141h82l-136 -141h-62z" />
    <glyph glyph-name="Ccircumflex" unicode="&#x108;" horiz-adv-x="550" 
d="M57 253c0 206 136 415 339 415c75 0 129 -41 161 -97l-54 -41c-26 42 -61 71 -111 71c-156 0 -255 -182 -255 -341c0 -119 49 -205 167 -205c53 0 96 23 139 59l35 -50c-48 -42 -109 -76 -188 -76c-150 0 -233 108 -233 265zM280 706l114 109h72l71 -109h-59l-51 70h-3
l-78 -70h-66z" />
    <glyph glyph-name="ccircumflex" unicode="&#x109;" horiz-adv-x="435" 
d="M37 183c0 181 130 315 271 315c58 0 97 -26 126 -59l-45 -48c-25 30 -48 44 -86 44c-97 0 -188 -114 -188 -247c0 -88 38 -136 115 -136c43 0 78 20 108 43l34 -50c-35 -27 -85 -57 -156 -57c-106 0 -179 71 -179 195zM192 571l122 141h58l66 -141h-53l-47 92h-4l-84 -92
h-58z" />
    <glyph glyph-name="Cdotaccent" unicode="&#x10a;" horiz-adv-x="550" 
d="M57 253c0 206 136 415 339 415c75 0 129 -41 161 -97l-54 -41c-26 42 -61 71 -111 71c-156 0 -255 -182 -255 -341c0 -119 49 -205 167 -205c53 0 96 23 139 59l35 -50c-48 -42 -109 -76 -188 -76c-150 0 -233 108 -233 265zM416 716c-25 0 -48 16 -48 45
c0 32 26 58 58 58c25 0 48 -17 48 -46c0 -33 -27 -57 -58 -57z" />
    <glyph glyph-name="cdotaccent" unicode="&#x10b;" horiz-adv-x="435" 
d="M37 183c0 181 130 315 271 315c58 0 97 -26 126 -59l-45 -48c-25 30 -48 44 -86 44c-97 0 -188 -114 -188 -247c0 -88 38 -136 115 -136c43 0 78 20 108 43l34 -50c-35 -27 -85 -57 -156 -57c-106 0 -179 71 -179 195zM322 587c-25 0 -48 16 -48 45c0 33 27 58 58 58
c25 0 48 -17 48 -46c0 -33 -26 -57 -58 -57z" />
    <glyph glyph-name="Ccaron" unicode="&#x10c;" horiz-adv-x="550" 
d="M57 253c0 206 136 415 339 415c75 0 129 -41 161 -97l-54 -41c-26 42 -61 71 -111 71c-156 0 -255 -182 -255 -341c0 -119 49 -205 167 -205c53 0 96 23 139 59l35 -50c-48 -42 -109 -76 -188 -76c-150 0 -233 108 -233 265zM560 816l-114 -110h-72l-71 110h59l51 -70h3
l78 70h66z" />
    <glyph glyph-name="ccaron" unicode="&#x10d;" horiz-adv-x="435" 
d="M37 183c0 181 130 315 271 315c58 0 97 -26 126 -59l-45 -48c-25 30 -48 44 -86 44c-97 0 -188 -114 -188 -247c0 -88 38 -136 115 -136c43 0 78 20 108 43l34 -50c-35 -27 -85 -57 -156 -57c-106 0 -179 71 -179 195zM467 712l-122 -141h-58l-66 141h53l47 -91h4l84 91
h58z" />
    <glyph glyph-name="Dcaron" unicode="&#x10e;" horiz-adv-x="592" 
d="M35 0l131 656h122c182 0 278 -95 278 -256c0 -238 -133 -400 -355 -400h-176zM125 64h86c170 0 276 136 276 331c0 124 -70 198 -202 198h-54zM522 816l-113 -110h-73l-70 110h59l50 -70h4l78 70h65z" />
    <glyph glyph-name="dcaron" unicode="&#x10f;" horiz-adv-x="542" 
d="M420 427l16 95l38 190h77l-144 -712h-63l8 72h-4c-47 -50 -108 -84 -169 -84c-85 0 -140 62 -140 176c0 187 128 334 263 334c52 0 91 -28 115 -71h3zM207 52c51 0 104 30 153 93l44 217c-28 51 -62 72 -99 72c-97 0 -187 -124 -187 -258c0 -84 35 -124 89 -124zM605 548
h-39l40 212h54l-11 -57z" />
    <glyph glyph-name="Dcroat" unicode="&#x110;" horiz-adv-x="610" 
d="M143 64h86c170 0 276 136 276 331c0 124 -70 198 -202 198h-54l-45 -225h150l-10 -44h-149zM184 656h122c182 0 278 -95 278 -256c0 -238 -133 -400 -355 -400h-176l65 324h-71l9 41l70 3z" />
    <glyph glyph-name="dcroat" unicode="&#x111;" horiz-adv-x="535" 
d="M360 145l40 197c-26 51 -60 72 -97 72c-97 0 -185 -123 -185 -238c0 -84 35 -124 89 -124c51 0 104 30 153 93zM603 617l-10 -40l-70 -5l-116 -572h-63l8 72h-4c-47 -50 -108 -84 -169 -84c-85 0 -140 62 -140 176c0 166 127 314 261 314c52 0 91 -28 113 -71h3l16 95
l14 70h-155l8 45h156l19 95h77l-19 -95h71z" />
    <glyph glyph-name="Emacron" unicode="&#x112;" horiz-adv-x="503" 
d="M35 0l131 656h362l-13 -65h-285l-42 -213h241l-14 -66h-239l-51 -246h294l-14 -66h-370zM242 729l11 54h236l-11 -54h-236z" />
    <glyph glyph-name="emacron" unicode="&#x113;" horiz-adv-x="481" 
d="M37 191c0 183 133 307 260 307c109 0 150 -76 150 -176c0 -39 -11 -77 -17 -95h-316c-18 -125 47 -178 132 -178c38 0 78 19 109 42l30 -51c-39 -28 -94 -52 -157 -52c-115 0 -191 73 -191 203zM122 279h255c3 16 5 31 5 50c0 55 -24 108 -94 108
c-71 0 -141 -62 -166 -158zM199 601l10 54h235l-10 -54h-235z" />
    <glyph glyph-name="Ebreve" unicode="&#x114;" horiz-adv-x="503" 
d="M35 0l131 656h362l-13 -65h-285l-42 -213h241l-14 -66h-239l-51 -246h294l-14 -66h-370zM355 706c-73 0 -100 56 -95 110h45c-2 -35 15 -65 58 -65s70 32 83 65h46c-17 -56 -59 -110 -137 -110z" />
    <glyph glyph-name="ebreve" unicode="&#x115;" horiz-adv-x="481" 
d="M37 191c0 183 133 307 260 307c109 0 150 -76 150 -176c0 -39 -11 -77 -17 -95h-316c-18 -125 47 -178 132 -178c38 0 78 19 109 42l30 -51c-39 -28 -94 -52 -157 -52c-115 0 -191 73 -191 203zM122 279h255c3 16 5 31 5 50c0 55 -24 108 -94 108
c-71 0 -141 -62 -166 -158zM311 575c-80 0 -102 64 -94 125h45c-4 -46 12 -79 57 -79c44 0 75 35 90 79h48c-18 -61 -64 -125 -146 -125z" />
    <glyph glyph-name="Edotaccent" unicode="&#x116;" horiz-adv-x="503" 
d="M35 0l131 656h362l-13 -65h-285l-42 -213h241l-14 -66h-239l-51 -246h294l-14 -66h-370zM363 716c-26 0 -49 16 -49 45c0 32 27 58 58 58c26 0 49 -17 49 -46c0 -33 -27 -57 -58 -57z" />
    <glyph glyph-name="edotaccent" unicode="&#x117;" horiz-adv-x="481" 
d="M37 191c0 183 133 307 260 307c109 0 150 -76 150 -176c0 -39 -11 -77 -17 -95h-316c-18 -125 47 -178 132 -178c38 0 78 19 109 42l30 -51c-39 -28 -94 -52 -157 -52c-115 0 -191 73 -191 203zM122 279h255c3 16 5 31 5 50c0 55 -24 108 -94 108
c-71 0 -141 -62 -166 -158zM318 587c-25 0 -49 16 -49 45c0 33 27 58 59 58c25 0 48 -17 48 -46c0 -33 -27 -57 -58 -57z" />
    <glyph glyph-name="Eogonek" unicode="&#x118;" horiz-adv-x="503" 
d="M35 0l131 656h362l-13 -65h-285l-42 -213h241l-14 -66h-239l-51 -246h294l-14 -66c-61 -7 -112 -77 -112 -119c0 -24 16 -38 37 -38c12 0 22 3 35 11l17 -42c-22 -14 -52 -23 -76 -23c-45 0 -78 24 -78 69c0 58 56 116 94 142h-287z" />
    <glyph glyph-name="eogonek" unicode="&#x119;" horiz-adv-x="481" 
d="M179 -139c0 58 52 108 80 131c-11 -3 -23 -4 -31 -4c-115 0 -191 73 -191 203c0 183 133 307 260 307c109 0 150 -76 150 -176c0 -39 -11 -77 -17 -95h-316c-18 -125 47 -178 132 -178c38 0 78 19 109 42l30 -51c-112 -66 -145 -118 -145 -158c0 -23 16 -37 36 -37
c14 0 25 4 38 12l16 -38c-23 -14 -53 -25 -77 -25c-43 0 -74 23 -74 67zM122 279h255c3 16 5 31 5 50c0 55 -24 108 -94 108c-71 0 -141 -62 -166 -158z" />
    <glyph glyph-name="Ecaron" unicode="&#x11a;" horiz-adv-x="503" 
d="M35 0l131 656h362l-13 -65h-285l-42 -213h241l-14 -66h-239l-51 -246h294l-14 -66h-370zM506 816l-113 -110h-73l-70 110h59l50 -70h4l78 70h65z" />
    <glyph glyph-name="ecaron" unicode="&#x11b;" horiz-adv-x="481" 
d="M37 191c0 183 133 307 260 307c109 0 150 -76 150 -176c0 -39 -11 -77 -17 -95h-316c-18 -125 47 -178 132 -178c38 0 78 19 109 42l30 -51c-39 -28 -94 -52 -157 -52c-115 0 -191 73 -191 203zM122 279h255c3 16 5 31 5 50c0 55 -24 108 -94 108
c-71 0 -141 -62 -166 -158zM463 712l-122 -141h-58l-66 141h53l47 -91h4l84 91h58z" />
    <glyph glyph-name="Gcircumflex" unicode="&#x11c;" horiz-adv-x="588" 
d="M57 253c0 208 134 415 349 415c78 0 132 -41 165 -97l-55 -41c-25 42 -61 71 -114 71c-165 0 -265 -182 -265 -341c0 -117 48 -206 174 -206c48 0 86 18 112 40l37 181h-136l13 64h206l-57 -284c-48 -40 -111 -67 -186 -67c-158 0 -243 105 -243 265zM278 706l114 109h72
l71 -109h-59l-51 70h-3l-78 -70h-66z" />
    <glyph glyph-name="gcircumflex" unicode="&#x11d;" horiz-adv-x="531" 
d="M435 486h63l-102 -509c-26 -129 -106 -201 -228 -201c-65 0 -123 28 -170 67l36 53c37 -32 83 -58 137 -58c83 0 132 57 153 145l24 100h-3c-48 -46 -103 -78 -165 -78c-82 0 -141 58 -141 171c0 178 126 322 257 322c51 0 94 -29 117 -73h3zM205 69c46 0 104 29 150 85
l43 208c-30 51 -62 72 -99 72c-94 0 -181 -120 -181 -247c0 -79 33 -118 87 -118zM198 571l122 141h58l66 -141h-53l-47 92h-4l-83 -92h-59z" />
    <glyph glyph-name="Gbreve" unicode="&#x11e;" horiz-adv-x="588" 
d="M57 253c0 208 134 415 349 415c78 0 132 -41 165 -97l-55 -41c-25 42 -61 71 -114 71c-165 0 -265 -182 -265 -341c0 -117 48 -206 174 -206c48 0 86 18 112 40l37 181h-136l13 64h206l-57 -284c-48 -40 -111 -67 -186 -67c-158 0 -243 105 -243 265zM407 706
c-73 0 -100 56 -95 110h44c-2 -35 15 -65 59 -65c42 0 69 32 82 65h47c-18 -56 -60 -110 -137 -110z" />
    <glyph glyph-name="gbreve" unicode="&#x11f;" horiz-adv-x="531" 
d="M435 486h63l-102 -509c-26 -129 -106 -201 -228 -201c-65 0 -123 28 -170 67l36 53c37 -32 83 -58 137 -58c83 0 132 57 153 145l24 100h-3c-48 -46 -103 -78 -165 -78c-82 0 -141 58 -141 171c0 178 126 322 257 322c51 0 94 -29 117 -73h3zM205 69c46 0 104 29 150 85
l43 208c-30 51 -62 72 -99 72c-94 0 -181 -120 -181 -247c0 -79 33 -118 87 -118zM322 575c-80 0 -103 64 -94 125h45c-4 -46 12 -79 56 -79s76 35 91 79h47c-18 -61 -63 -125 -145 -125z" />
    <glyph glyph-name="Gdotaccent" unicode="&#x120;" horiz-adv-x="588" 
d="M57 253c0 208 134 415 349 415c78 0 132 -41 165 -97l-55 -41c-25 42 -61 71 -114 71c-165 0 -265 -182 -265 -341c0 -117 48 -206 174 -206c48 0 86 18 112 40l37 181h-136l13 64h206l-57 -284c-48 -40 -111 -67 -186 -67c-158 0 -243 105 -243 265zM414 716
c-26 0 -49 16 -49 45c0 32 27 58 58 58c26 0 49 -17 49 -46c0 -33 -27 -57 -58 -57z" />
    <glyph glyph-name="gdotaccent" unicode="&#x121;" horiz-adv-x="531" 
d="M435 486h63l-102 -509c-26 -129 -106 -201 -228 -201c-65 0 -123 28 -170 67l36 53c37 -32 83 -58 137 -58c83 0 132 57 153 145l24 100h-3c-48 -46 -103 -78 -165 -78c-82 0 -141 58 -141 171c0 178 126 322 257 322c51 0 94 -29 117 -73h3zM205 69c46 0 104 29 150 85
l43 208c-30 51 -62 72 -99 72c-94 0 -181 -120 -181 -247c0 -79 33 -118 87 -118zM329 587c-26 0 -49 16 -49 45c0 33 27 58 58 58c26 0 49 -17 49 -46c0 -33 -27 -57 -58 -57z" />
    <glyph glyph-name="uni0122" unicode="&#x122;" horiz-adv-x="588" 
d="M57 253c0 208 134 415 349 415c78 0 132 -41 165 -97l-55 -41c-25 42 -61 71 -114 71c-165 0 -265 -182 -265 -341c0 -117 48 -206 174 -206c48 0 86 18 112 40l37 181h-136l13 64h206l-57 -284c-48 -40 -111 -67 -186 -67c-158 0 -243 105 -243 265zM245 -79l22 34
c44 -10 74 -29 74 -65c0 -67 -71 -91 -150 -99l-4 36c59 9 97 25 97 57c0 22 -19 31 -39 37z" />
    <glyph glyph-name="uni0123" unicode="&#x123;" horiz-adv-x="531" 
d="M435 486h63l-102 -509c-26 -129 -106 -201 -228 -201c-65 0 -123 28 -170 67l36 53c37 -32 83 -58 137 -58c83 0 132 57 153 145l24 100h-3c-48 -46 -103 -78 -165 -78c-82 0 -141 58 -141 171c0 178 126 322 257 322c51 0 94 -29 117 -73h3zM205 69c46 0 104 29 150 85
l43 208c-30 51 -62 72 -99 72c-94 0 -181 -120 -181 -247c0 -79 33 -118 87 -118zM365 577l-22 -34c-44 10 -74 29 -74 65c0 67 71 91 149 99l4 -36c-58 -9 -96 -25 -96 -57c0 -22 19 -31 39 -37z" />
    <glyph glyph-name="Hcircumflex" unicode="&#x124;" horiz-adv-x="622" 
d="M35 0l131 656h78l-56 -277h296l56 277h77l-131 -656h-78l63 312h-296l-62 -312h-78zM258 706l113 109h73l71 -109h-60l-50 70h-3l-79 -70h-65z" />
    <glyph glyph-name="hcircumflex" unicode="&#x125;" horiz-adv-x="519" 
d="M31 0l142 712h77l-48 -235l-16 -61h4c55 47 108 82 167 82c82 0 115 -46 115 -121c0 -23 -2 -40 -8 -67l-62 -310h-76l60 300c5 26 8 40 8 57c0 49 -22 75 -72 75c-38 0 -85 -27 -146 -88l-69 -344h-76zM86 753l113 109h73l70 -109h-59l-50 70h-4l-78 -70h-65z" />
    <glyph glyph-name="Hbar" unicode="&#x126;" horiz-adv-x="643" 
d="M493 379l23 114h-297l-23 -114h297zM686 537l-9 -44h-84l-98 -493h-78l63 312h-296l-62 -312h-78l98 493h-66l9 41l66 3l24 119h78l-24 -119h295l24 119h78l-24 -119h84z" />
    <glyph glyph-name="hbar" unicode="&#x127;" horiz-adv-x="519" 
d="M182 396h4c55 47 108 82 167 82c82 0 115 -46 115 -121c0 -23 -2 -40 -8 -67l-58 -290h-76l56 280c5 26 8 40 8 57c0 49 -22 75 -72 75c-38 0 -85 -27 -146 -88l-65 -324h-76l114 572h-70l7 40l72 5l19 95h77l-19 -95h175l-10 -45h-175l-23 -115z" />
    <glyph glyph-name="Itilde" unicode="&#x128;" horiz-adv-x="252" 
d="M35 0l131 656h78l-131 -656h-78zM112 711h-44c14 59 54 105 98 105c51 0 65 -55 105 -55c21 0 37 20 49 53h44c-14 -59 -54 -105 -99 -105c-50 0 -65 56 -104 56c-21 0 -37 -21 -49 -54z" />
    <glyph glyph-name="itilde" unicode="&#x129;" horiz-adv-x="237" 
d="M31 0l97 486h77l-98 -486h-76zM95 580h-44c17 60 52 102 94 102c58 0 66 -53 108 -53c17 0 32 20 45 51h44c-17 -59 -52 -102 -94 -102c-57 0 -66 53 -108 53c-17 0 -32 -20 -45 -51z" />
    <glyph glyph-name="Imacron" unicode="&#x12a;" horiz-adv-x="252" 
d="M35 0l131 656h78l-131 -656h-78zM92 729l11 54h236l-11 -54h-236z" />
    <glyph glyph-name="imacron" unicode="&#x12b;" horiz-adv-x="237" 
d="M31 0l97 486h77l-98 -486h-76zM71 601l10 54h235l-10 -54h-235z" />
    <glyph glyph-name="uni012C" unicode="&#x12c;" horiz-adv-x="252" 
d="M35 0l131 656h78l-131 -656h-78zM205 706c-72 0 -99 56 -94 110h44c-2 -35 15 -65 59 -65c42 0 69 32 82 65h47c-18 -56 -60 -110 -138 -110z" />
    <glyph glyph-name="uni012D" unicode="&#x12d;" horiz-adv-x="237" 
d="M31 0l97 486h77l-98 -486h-76zM183 575c-80 0 -102 64 -94 125h45c-4 -46 12 -79 57 -79c44 0 75 35 90 79h48c-18 -61 -64 -125 -146 -125z" />
    <glyph glyph-name="Iogonek" unicode="&#x12e;" horiz-adv-x="252" 
d="M26 -119c0 -24 16 -38 36 -38c13 0 23 3 35 11l18 -40c-21 -15 -55 -25 -78 -25c-44 0 -76 24 -76 69c0 58 55 116 89 142h-15l131 656h78l-131 -656c-51 -31 -87 -80 -87 -119z" />
    <glyph glyph-name="iogonek" unicode="&#x12f;" horiz-adv-x="237" 
d="M31 0l97 486h77l-98 -486c-56 -36 -88 -76 -88 -118c0 -23 16 -37 37 -37c13 0 25 4 37 12l16 -38c-22 -14 -53 -25 -76 -25c-43 0 -75 23 -75 67c0 58 54 113 91 139h-18zM193 587c-26 0 -49 16 -49 45c0 33 27 58 58 58c26 0 49 -17 49 -46c0 -33 -27 -57 -58 -57z" />
    <glyph glyph-name="Idotaccent" unicode="&#x130;" horiz-adv-x="252" 
d="M35 0l131 656h78l-131 -656h-78zM213 716c-26 0 -49 16 -49 45c0 32 27 58 58 58c26 0 49 -17 49 -46c0 -33 -27 -57 -58 -57z" />
    <glyph glyph-name="dotlessi" unicode="&#x131;" horiz-adv-x="237" 
d="M31 0l97 486h77l-98 -486h-76z" />
    <glyph glyph-name="Jcircumflex" unicode="&#x134;" horiz-adv-x="456" 
d="M362 184c-22 -113 -89 -196 -203 -196c-78 0 -133 40 -161 101l51 43c19 -48 57 -77 112 -77c66 0 108 53 125 140l92 461h78zM288 706l114 109h72l71 -109h-59l-51 70h-3l-78 -70h-66z" />
    <glyph glyph-name="jcircumflex" unicode="&#x135;" horiz-adv-x="238" 
d="M206 486l-111 -547c-19 -93 -60 -156 -144 -156c-31 0 -53 7 -75 19l25 57c13 -8 25 -13 46 -13c37 0 58 34 71 92l111 548h77zM56 571l122 141h58l65 -141h-52l-47 92h-4l-84 -92h-58z" />
    <glyph glyph-name="uni0136" unicode="&#x136;" horiz-adv-x="559" 
d="M35 0l131 656h78l-65 -324h3l329 324h88l-246 -252l149 -404h-81l-126 354l-137 -134l-45 -220h-78zM221 -79l22 34c44 -10 74 -29 74 -65c0 -67 -71 -91 -150 -99l-4 36c59 9 97 25 97 57c0 22 -19 31 -39 37z" />
    <glyph glyph-name="uni0137" unicode="&#x137;" horiz-adv-x="476" 
d="M31 0l142 712h77l-96 -483h2l249 257h88l-194 -203l117 -283h-78l-93 237l-112 -114l-26 -123h-76zM165 -79l22 34c44 -10 74 -29 74 -65c0 -67 -71 -91 -149 -99l-4 36c58 9 96 25 96 57c0 22 -19 31 -39 37z" />
    <glyph glyph-name="kgreenlandic" unicode="&#x138;" horiz-adv-x="476" 
d="M31 0l96 486h77l-50 -257h2l249 257h88l-194 -203l117 -283h-78l-93 237l-112 -114l-26 -123h-76z" />
    <glyph glyph-name="Lacute" unicode="&#x139;" horiz-adv-x="462" 
d="M35 0l131 656h78l-118 -590h276l-13 -66h-354zM163 706l106 110h88l-129 -110h-65z" />
    <glyph glyph-name="lacute" unicode="&#x13a;" horiz-adv-x="248" 
d="M50 93l123 619h77l-125 -623c-2 -10 -2 -15 -2 -19c0 -12 7 -18 17 -18c4 0 7 0 16 3l1 -59c-13 -5 -27 -8 -48 -8c-43 0 -65 23 -65 63c0 11 2 25 6 42zM169 759l106 109h88l-128 -109h-66z" />
    <glyph glyph-name="uni013B" unicode="&#x13b;" horiz-adv-x="462" 
d="M35 0l131 656h78l-118 -590h276l-13 -66h-354zM171 -79l23 34c44 -10 74 -29 74 -65c0 -67 -71 -91 -150 -99l-4 36c59 9 96 25 96 57c0 22 -18 31 -39 37z" />
    <glyph glyph-name="uni013C" unicode="&#x13c;" horiz-adv-x="248" 
d="M50 93l123 619h77l-125 -623c-2 -10 -2 -15 -2 -19c0 -12 7 -18 17 -18c4 0 7 0 16 3l1 -59c-13 -5 -27 -8 -48 -8c-43 0 -65 23 -65 63c0 11 2 25 6 42zM16 -79l23 34c44 -10 74 -29 74 -65c0 -67 -72 -91 -150 -99l-4 36c58 9 96 25 96 57c0 22 -18 31 -39 37z" />
    <glyph glyph-name="Lcaron" unicode="&#x13d;" horiz-adv-x="462" 
d="M35 0l131 656h78l-118 -590h276l-13 -66h-354zM408 512h-38l40 212h54l-11 -57z" />
    <glyph glyph-name="lcaron" unicode="&#x13e;" horiz-adv-x="242" 
d="M50 93l123 619h77l-125 -623c-2 -10 -2 -15 -2 -19c0 -12 7 -18 17 -18c4 0 7 0 16 3l1 -59c-13 -5 -27 -8 -48 -8c-43 0 -65 23 -65 63c0 11 2 25 6 42zM304 548h-39l40 212h55l-11 -57z" />
    <glyph glyph-name="Ldot" unicode="&#x13f;" horiz-adv-x="462" 
d="M35 0l131 656h78l-118 -590h276l-13 -66h-354zM366 268c-29 0 -47 22 -47 50c0 34 29 71 67 71c29 0 46 -22 46 -52c0 -34 -28 -69 -66 -69z" />
    <glyph glyph-name="ldot" unicode="&#x140;" horiz-adv-x="331" 
d="M50 93l123 619h77l-125 -623c-2 -10 -2 -15 -2 -19c0 -12 7 -18 17 -18c4 0 7 0 16 3l1 -59c-13 -5 -27 -8 -48 -8c-43 0 -65 23 -65 63c0 11 2 25 6 42zM291 271c-29 0 -47 21 -47 50c0 34 29 70 67 70c29 0 46 -22 46 -51c0 -35 -28 -69 -66 -69z" />
    <glyph glyph-name="Lslash" unicode="&#x141;" horiz-adv-x="462" 
d="M126 66h276l-13 -66h-354l47 235l-86 -42l13 69l87 42l70 352h78l-63 -313l200 98l-13 -69l-200 -97z" />
    <glyph glyph-name="lslash" unicode="&#x142;" horiz-adv-x="252" 
d="M187 377l-57 -288c-2 -10 -2 -15 -2 -19c0 -12 6 -18 16 -18c5 0 8 0 17 3v-59c-13 -5 -27 -8 -48 -8c-43 0 -64 23 -64 63c0 11 2 25 5 42l48 242l-70 -40l14 68l70 39l62 310h76l-53 -268l77 47l-12 -68z" />
    <glyph glyph-name="Nacute" unicode="&#x143;" horiz-adv-x="619" 
d="M35 0l131 656h78l150 -420l42 -137h4c8 65 16 141 30 209l69 348h75l-131 -656h-77l-148 419l-43 141h-4c-8 -68 -18 -141 -31 -207l-70 -353h-75zM347 706l106 110h87l-128 -110h-65z" />
    <glyph glyph-name="nacute" unicode="&#x144;" horiz-adv-x="525" 
d="M31 0l96 486h63l-7 -73h4c55 48 109 85 170 85c82 0 115 -46 115 -121c0 -23 -2 -40 -8 -67l-62 -310h-76l60 300c5 26 8 40 8 57c0 49 -22 75 -72 75c-38 0 -85 -27 -146 -88l-69 -344h-76zM276 571l116 141h82l-136 -141h-62z" />
    <glyph glyph-name="uni0145" unicode="&#x145;" horiz-adv-x="619" 
d="M35 0l131 656h78l150 -420l42 -137h4c8 65 16 141 30 209l69 348h75l-131 -656h-77l-148 419l-43 141h-4c-8 -68 -18 -141 -31 -207l-70 -353h-75zM220 -87l23 34c44 -10 74 -29 74 -65c0 -67 -71 -91 -150 -99l-4 36c59 9 96 25 96 57c0 22 -18 31 -39 37z" />
    <glyph glyph-name="uni0146" unicode="&#x146;" horiz-adv-x="525" 
d="M31 0l96 486h63l-7 -73h4c55 48 109 85 170 85c82 0 115 -46 115 -121c0 -23 -2 -40 -8 -67l-62 -310h-76l60 300c5 26 8 40 8 57c0 49 -22 75 -72 75c-38 0 -85 -27 -146 -88l-69 -344h-76zM172 -79l22 34c44 -10 75 -29 75 -65c0 -67 -72 -91 -150 -99l-4 36
c58 9 96 25 96 57c0 22 -18 31 -39 37z" />
    <glyph glyph-name="Ncaron" unicode="&#x147;" horiz-adv-x="619" 
d="M35 0l131 656h78l150 -420l42 -137h4c8 65 16 141 30 209l69 348h75l-131 -656h-77l-148 419l-43 141h-4c-8 -68 -18 -141 -31 -207l-70 -353h-75zM547 816l-114 -110h-72l-71 110h59l51 -70h3l78 70h66z" />
    <glyph glyph-name="ncaron" unicode="&#x148;" horiz-adv-x="525" 
d="M31 0l96 486h63l-7 -73h4c55 48 109 85 170 85c82 0 115 -46 115 -121c0 -23 -2 -40 -8 -67l-62 -310h-76l60 300c5 26 8 40 8 57c0 49 -22 75 -72 75c-38 0 -85 -27 -146 -88l-69 -344h-76zM494 712l-122 -141h-58l-66 141h53l47 -91h4l84 91h58z" />
    <glyph glyph-name="napostrophe" unicode="&#x149;" horiz-adv-x="739" 
d="M127 443l-16 37c61 31 95 81 96 118h-5c-29 0 -50 16 -50 45c0 30 22 57 55 57c31 0 53 -25 53 -68c0 -92 -58 -157 -133 -189zM399 413h4c55 48 110 85 170 85c82 0 116 -46 116 -121c0 -23 -3 -40 -8 -67l-62 -310h-77l60 300c6 26 8 40 8 57c0 49 -22 75 -72 75
c-38 0 -85 -27 -146 -88l-68 -344h-77l97 486h63z" />
    <glyph glyph-name="Omacron" unicode="&#x14c;" horiz-adv-x="633" 
d="M287 -12c-147 0 -227 109 -227 275c0 200 131 405 319 405c147 0 227 -109 227 -274c0 -201 -131 -406 -319 -406zM375 601c-141 0 -236 -178 -236 -332c0 -128 47 -214 152 -214c141 0 236 179 236 332c0 129 -48 214 -152 214zM290 729l11 54h235l-11 -54h-235z" />
    <glyph glyph-name="omacron" unicode="&#x14d;" horiz-adv-x="515" 
d="M212 -12c-105 0 -173 74 -173 195c0 184 129 315 262 315c105 0 174 -74 174 -195c0 -184 -130 -315 -263 -315zM293 435c-89 0 -177 -111 -177 -247c0 -88 37 -136 104 -136c90 0 177 110 177 246c0 88 -37 137 -104 137zM217 601l10 54h235l-10 -54h-235z" />
    <glyph glyph-name="uni014E" unicode="&#x14e;" horiz-adv-x="633" 
d="M287 -12c-147 0 -227 109 -227 275c0 200 131 405 319 405c147 0 227 -109 227 -274c0 -201 -131 -406 -319 -406zM375 601c-141 0 -236 -178 -236 -332c0 -128 47 -214 152 -214c141 0 236 179 236 332c0 129 -48 214 -152 214zM403 706c-73 0 -100 56 -95 110h45
c-2 -35 15 -65 58 -65s70 32 82 65h47c-18 -56 -60 -110 -137 -110z" />
    <glyph glyph-name="uni014F" unicode="&#x14f;" horiz-adv-x="515" 
d="M212 -12c-105 0 -173 74 -173 195c0 184 129 315 262 315c105 0 174 -74 174 -195c0 -184 -130 -315 -263 -315zM293 435c-89 0 -177 -111 -177 -247c0 -88 37 -136 104 -136c90 0 177 110 177 246c0 88 -37 137 -104 137zM329 575c-80 0 -102 64 -94 125h45
c-4 -46 13 -79 57 -79s75 35 90 79h48c-18 -61 -64 -125 -146 -125z" />
    <glyph glyph-name="Ohungarumlaut" unicode="&#x150;" horiz-adv-x="633" 
d="M287 -12c-147 0 -227 109 -227 275c0 200 131 405 319 405c147 0 227 -109 227 -274c0 -201 -131 -406 -319 -406zM375 601c-141 0 -236 -178 -236 -332c0 -128 47 -214 152 -214c141 0 236 179 236 332c0 129 -48 214 -152 214zM299 706l88 111h71l-104 -111h-55z
M448 706l88 111h70l-103 -111h-55z" />
    <glyph glyph-name="ohungarumlaut" unicode="&#x151;" horiz-adv-x="515" 
d="M212 -12c-105 0 -173 74 -173 195c0 184 129 315 262 315c105 0 174 -74 174 -195c0 -184 -130 -315 -263 -315zM293 435c-89 0 -177 -111 -177 -247c0 -88 37 -136 104 -136c90 0 177 110 177 246c0 88 -37 137 -104 137zM229 571l103 142h70l-119 -142h-54zM371 571
l102 142h71l-119 -142h-54z" />
    <glyph glyph-name="OE" unicode="&#x152;" horiz-adv-x="816" 
d="M60 256c0 239 133 400 355 400h426l-14 -65h-265l-43 -213h223l-14 -66h-221l-51 -246h276l-14 -66h-380c-182 0 -278 95 -278 256zM486 593h-71c-170 0 -276 -136 -276 -332c0 -124 70 -197 202 -197h39z" />
    <glyph glyph-name="oe" unicode="&#x153;" horiz-adv-x="812" 
d="M208 -12c-102 0 -169 74 -169 195c0 184 128 315 258 315c81 0 131 -45 150 -126c43 80 115 126 181 126c110 0 151 -76 151 -176c0 -39 -11 -77 -18 -95h-300c-15 -125 43 -178 117 -178c38 0 78 19 109 42l29 -51c-38 -28 -94 -52 -157 -52c-77 0 -133 46 -152 133
c-45 -83 -121 -133 -199 -133zM290 435c-86 0 -174 -111 -174 -247c0 -88 37 -136 104 -136c87 0 174 110 174 246c0 88 -37 137 -104 137zM469 279h239c4 16 6 31 6 50c0 55 -24 108 -94 108c-65 0 -128 -62 -151 -158z" />
    <glyph glyph-name="Racute" unicode="&#x154;" horiz-adv-x="555" 
d="M507 816l-128 -110h-66l107 110h87zM181 341h99c125 0 194 59 194 152c0 72 -51 101 -147 101h-96zM166 656h180c122 0 205 -43 205 -153c0 -121 -82 -196 -193 -218l115 -285h-83l-108 278h-114l-55 -278h-78z" />
    <glyph glyph-name="racute" unicode="&#x155;" horiz-adv-x="342" 
d="M31 0l96 486h63l-11 -93h4c39 59 91 105 151 105c18 0 32 -3 46 -9l-27 -68c-10 5 -24 8 -42 8c-48 0 -102 -43 -143 -122l-61 -307h-76zM195 571l116 141h82l-136 -141h-62z" />
    <glyph glyph-name="uni0156" unicode="&#x156;" horiz-adv-x="555" 
d="M204 -87l23 34c44 -10 74 -29 74 -65c0 -67 -71 -91 -150 -99l-4 36c59 9 96 25 96 57c0 22 -18 31 -39 37zM181 341h99c125 0 194 59 194 152c0 72 -51 101 -147 101h-96zM166 656h180c122 0 205 -43 205 -153c0 -121 -82 -196 -193 -218l115 -285h-83l-108 278h-114
l-55 -278h-78z" />
    <glyph glyph-name="uni0157" unicode="&#x157;" horiz-adv-x="342" 
d="M31 0l96 486h63l-11 -93h4c39 59 91 105 151 105c18 0 32 -3 46 -9l-27 -68c-10 5 -24 8 -42 8c-48 0 -102 -43 -143 -122l-61 -307h-76zM20 -79l22 34c44 -10 74 -29 74 -65c0 -67 -71 -91 -149 -99l-4 36c58 9 96 25 96 57c0 22 -19 31 -39 37z" />
    <glyph glyph-name="Rcaron" unicode="&#x158;" horiz-adv-x="555" 
d="M400 706h-73l-70 110h59l51 -70h3l78 70h66zM181 341h99c125 0 194 59 194 152c0 72 -51 101 -147 101h-96zM166 656h180c122 0 205 -43 205 -153c0 -121 -82 -196 -193 -218l115 -285h-83l-108 278h-114l-55 -278h-78z" />
    <glyph glyph-name="rcaron" unicode="&#x159;" horiz-adv-x="342" 
d="M31 0l96 486h63l-11 -93h4c39 59 91 105 151 105c18 0 32 -3 46 -9l-27 -68c-10 5 -24 8 -42 8c-48 0 -102 -43 -143 -122l-61 -307h-76zM413 712l-122 -141h-58l-66 141h53l47 -91h4l84 91h58z" />
    <glyph glyph-name="Sacute" unicode="&#x15a;" horiz-adv-x="506" 
d="M12 104l57 43c39 -58 96 -93 169 -93c80 0 141 49 141 124c0 48 -33 78 -82 108l-76 46c-56 34 -101 80 -101 154c0 99 86 182 204 182c78 0 145 -39 186 -92l-51 -46c-34 40 -80 71 -141 71c-74 0 -119 -53 -119 -106c0 -51 37 -78 85 -107l76 -45
c63 -37 99 -81 99 -154c0 -117 -95 -201 -228 -201c-90 0 -166 38 -219 116zM297 708l106 109h88l-129 -109h-65z" />
    <glyph glyph-name="sacute" unicode="&#x15b;" horiz-adv-x="402" 
d="M-4 80l48 38c30 -42 74 -71 125 -71c56 0 103 37 103 81c0 35 -21 55 -89 92c-75 41 -111 78 -111 133c0 86 76 145 167 145c59 0 107 -27 143 -65l-44 -43c-26 27 -57 48 -101 48c-52 0 -92 -35 -92 -76s42 -62 86 -86c87 -48 114 -85 114 -138
c0 -91 -77 -150 -182 -150c-65 0 -134 41 -167 92zM200 571l116 141h82l-136 -141h-62z" />
    <glyph glyph-name="Scircumflex" unicode="&#x15c;" horiz-adv-x="506" 
d="M12 104l57 43c39 -58 96 -93 169 -93c80 0 141 49 141 124c0 48 -33 78 -82 108l-76 46c-56 34 -101 80 -101 154c0 99 86 182 204 182c78 0 145 -39 186 -92l-51 -46c-34 40 -80 71 -141 71c-74 0 -119 -53 -119 -106c0 -51 37 -78 85 -107l76 -45
c63 -37 99 -81 99 -154c0 -117 -95 -201 -228 -201c-90 0 -166 38 -219 116zM218 708l113 109h73l70 -109h-59l-50 70h-4l-78 -70h-65z" />
    <glyph glyph-name="scircumflex" unicode="&#x15d;" horiz-adv-x="402" 
d="M-4 80l48 38c30 -42 74 -71 125 -71c56 0 103 37 103 81c0 35 -21 55 -89 92c-75 41 -111 78 -111 133c0 86 76 145 167 145c59 0 107 -27 143 -65l-44 -43c-26 27 -57 48 -101 48c-52 0 -92 -35 -92 -76s42 -62 86 -86c87 -48 114 -85 114 -138
c0 -91 -77 -150 -182 -150c-65 0 -134 41 -167 92zM143 571l122 141h58l66 -141h-53l-47 92h-4l-84 -92h-58z" />
    <glyph glyph-name="uni015E" unicode="&#x15e;" horiz-adv-x="506" 
d="M510 576l-51 -46c-34 40 -80 71 -141 71c-74 0 -119 -53 -119 -106c0 -51 37 -78 85 -107l76 -45c63 -37 99 -81 99 -154c0 -112 -87 -194 -211 -201l-28 -41c24 -9 45 -26 45 -57c0 -65 -72 -95 -150 -103l-4 35c53 9 94 27 94 60c0 22 -14 33 -53 43l45 65
c-75 8 -139 46 -185 114l57 43c39 -58 96 -93 169 -93c80 0 141 49 141 124c0 48 -33 78 -82 108l-76 46c-56 34 -101 80 -101 154c0 99 86 182 204 182c78 0 145 -39 186 -92z" />
    <glyph glyph-name="uni015F" unicode="&#x15f;" horiz-adv-x="402" 
d="M382 433l-44 -43c-26 27 -57 48 -101 48c-52 0 -92 -35 -92 -76s42 -62 86 -86c87 -48 114 -85 114 -138c0 -82 -63 -139 -153 -148l-29 -43c25 -9 45 -26 45 -57c0 -65 -72 -95 -150 -103l-4 35c53 9 94 27 94 60c0 22 -14 33 -53 43l45 65c-58 8 -115 45 -144 90l48 38
c30 -42 74 -71 125 -71c56 0 103 37 103 81c0 35 -21 55 -89 92c-75 41 -111 78 -111 133c0 86 76 145 167 145c59 0 107 -27 143 -65z" />
    <glyph glyph-name="Scaron" unicode="&#x160;" horiz-adv-x="506" 
d="M12 104l57 43c39 -58 96 -93 169 -93c80 0 141 49 141 124c0 48 -33 78 -82 108l-76 46c-56 34 -101 80 -101 154c0 99 86 182 204 182c78 0 145 -39 186 -92l-51 -46c-34 40 -80 71 -141 71c-74 0 -119 -53 -119 -106c0 -51 37 -78 85 -107l76 -45
c63 -37 99 -81 99 -154c0 -117 -95 -201 -228 -201c-90 0 -166 38 -219 116zM497 817l-113 -109h-73l-70 109h59l50 -70h4l78 70h65z" />
    <glyph glyph-name="scaron" unicode="&#x161;" horiz-adv-x="402" 
d="M-4 80l48 38c30 -42 74 -71 125 -71c56 0 103 37 103 81c0 35 -21 55 -89 92c-75 41 -111 78 -111 133c0 86 76 145 167 145c59 0 107 -27 143 -65l-44 -43c-26 27 -57 48 -101 48c-52 0 -92 -35 -92 -76s42 -62 86 -86c87 -48 114 -85 114 -138
c0 -91 -77 -150 -182 -150c-65 0 -134 41 -167 92zM418 712l-122 -141h-58l-65 141h52l48 -91h4l83 91h58z" />
    <glyph glyph-name="uni0162" unicode="&#x162;" horiz-adv-x="510" 
d="M106 656h459l-13 -67h-191l-117 -589h-18l-36 -53c25 -9 45 -26 45 -57c0 -65 -72 -95 -150 -103l-4 35c53 9 94 27 94 60c0 22 -14 33 -53 43l52 75h-8l117 589h-190z" />
    <glyph glyph-name="uni0163" unicode="&#x163;" horiz-adv-x="325" 
d="M207 424l-57 -278c-2 -12 -3 -23 -3 -36c0 -40 16 -60 62 -60c19 0 36 8 51 15l17 -55c-21 -9 -50 -21 -85 -22l-28 -41c24 -9 45 -26 45 -57c0 -65 -72 -95 -150 -103l-4 35c53 9 94 27 94 60c0 22 -14 33 -53 43l47 68c-53 13 -74 54 -74 103c0 20 3 36 5 54l57 274
h-71l11 57l76 5l36 134h65l-27 -134h123l-12 -62h-125z" />
    <glyph glyph-name="Tcaron" unicode="&#x164;" horiz-adv-x="510" 
d="M166 0l117 589h-190l13 67h459l-13 -67h-191l-117 -589h-78zM485 816l-114 -110h-72l-71 110h59l51 -70h3l78 70h66z" />
    <glyph glyph-name="tcaron" unicode="&#x165;" horiz-adv-x="325" 
d="M74 150l57 274h-71l11 57l76 5l36 134h65l-27 -134h123l-12 -62h-125l-57 -278c-2 -12 -3 -23 -3 -36c0 -40 16 -60 62 -60c19 0 36 8 51 15l17 -55c-22 -10 -54 -22 -92 -22c-85 0 -116 48 -116 108c0 20 3 36 5 54zM353 548h-39l40 212h54l-11 -57z" />
    <glyph glyph-name="Utilde" unicode="&#x168;" horiz-adv-x="616" 
d="M89 288l74 368h78l-75 -375c-6 -30 -9 -55 -9 -79c0 -94 41 -147 133 -147c75 0 139 56 167 199l81 402h76l-82 -405c-37 -189 -129 -263 -246 -263c-133 0 -207 71 -207 207c0 28 4 60 10 93zM299 711h-44c14 59 54 105 99 105c50 0 65 -55 104 -55c21 0 37 20 49 53h44
c-14 -59 -54 -105 -98 -105c-51 0 -65 56 -105 56c-21 0 -37 -21 -49 -54z" />
    <glyph glyph-name="utilde" unicode="&#x169;" horiz-adv-x="528" 
d="M495 486l-97 -486h-63l8 74h-4c-53 -47 -109 -86 -168 -86c-82 0 -115 47 -115 121c0 23 2 41 8 67l62 310h77l-61 -300c-5 -26 -8 -40 -8 -57c0 -49 22 -75 72 -75c38 0 85 27 144 88l69 344h76zM234 580h-44c17 60 52 102 94 102c58 0 66 -53 109 -53c16 0 31 20 44 51
h44c-17 -59 -52 -102 -94 -102c-57 0 -66 53 -108 53c-17 0 -32 -20 -45 -51z" />
    <glyph glyph-name="Umacron" unicode="&#x16a;" horiz-adv-x="616" 
d="M89 288l74 368h78l-75 -375c-6 -30 -9 -55 -9 -79c0 -94 41 -147 133 -147c75 0 139 56 167 199l81 402h76l-82 -405c-37 -189 -129 -263 -246 -263c-133 0 -207 71 -207 207c0 28 4 60 10 93zM280 729l11 54h236l-11 -54h-236z" />
    <glyph glyph-name="umacron" unicode="&#x16b;" horiz-adv-x="528" 
d="M495 486l-97 -486h-63l8 74h-4c-53 -47 -109 -86 -168 -86c-82 0 -115 47 -115 121c0 23 2 41 8 67l62 310h77l-61 -300c-5 -26 -8 -40 -8 -57c0 -49 22 -75 72 -75c38 0 85 27 144 88l69 344h76zM210 601l10 54h235l-10 -54h-235z" />
    <glyph glyph-name="Ubreve" unicode="&#x16c;" horiz-adv-x="616" 
d="M89 288l74 368h78l-75 -375c-6 -30 -9 -55 -9 -79c0 -94 41 -147 133 -147c75 0 139 56 167 199l81 402h76l-82 -405c-37 -189 -129 -263 -246 -263c-133 0 -207 71 -207 207c0 28 4 60 10 93zM393 706c-73 0 -100 56 -95 110h45c-2 -35 15 -65 58 -65s70 32 82 65h47
c-17 -56 -60 -110 -137 -110z" />
    <glyph glyph-name="ubreve" unicode="&#x16d;" horiz-adv-x="528" 
d="M495 486l-97 -486h-63l8 74h-4c-53 -47 -109 -86 -168 -86c-82 0 -115 47 -115 121c0 23 2 41 8 67l62 310h77l-61 -300c-5 -26 -8 -40 -8 -57c0 -49 22 -75 72 -75c38 0 85 27 144 88l69 344h76zM322 575c-80 0 -102 64 -94 125h45c-4 -46 12 -79 57 -79
c44 0 75 35 90 79h48c-18 -61 -64 -125 -146 -125z" />
    <glyph glyph-name="Uring" unicode="&#x16e;" horiz-adv-x="616" 
d="M89 288l74 368h78l-75 -375c-6 -30 -9 -55 -9 -79c0 -94 41 -147 133 -147c75 0 139 56 167 199l81 402h76l-82 -405c-37 -189 -129 -263 -246 -263c-133 0 -207 71 -207 207c0 28 4 60 10 93zM401 697c-47 0 -84 25 -84 79c0 55 45 99 98 99c46 0 84 -25 84 -79
c0 -55 -45 -99 -98 -99zM413 839c-29 0 -53 -26 -53 -59c0 -28 16 -47 43 -47c28 0 53 26 53 60c0 28 -16 46 -43 46z" />
    <glyph glyph-name="uring" unicode="&#x16f;" horiz-adv-x="528" 
d="M495 486l-97 -486h-63l8 74h-4c-53 -47 -109 -86 -168 -86c-82 0 -115 47 -115 121c0 23 2 41 8 67l62 310h77l-61 -300c-5 -26 -8 -40 -8 -57c0 -49 22 -75 72 -75c38 0 85 27 144 88l69 344h76zM327 540c-48 0 -83 29 -83 82c0 56 43 102 97 102c48 0 84 -29 84 -82
c0 -56 -44 -102 -98 -102zM339 688c-28 0 -52 -29 -52 -63c0 -29 15 -49 42 -49c28 0 52 29 52 63c0 28 -15 49 -42 49z" />
    <glyph glyph-name="Uhungarumlaut" unicode="&#x170;" horiz-adv-x="616" 
d="M89 288l74 368h78l-75 -375c-6 -30 -9 -55 -9 -79c0 -94 41 -147 133 -147c75 0 139 56 167 199l81 402h76l-82 -405c-37 -189 -129 -263 -246 -263c-133 0 -207 71 -207 207c0 28 4 60 10 93zM289 706l88 111h71l-103 -111h-56zM438 706l88 111h71l-103 -111h-56z" />
    <glyph glyph-name="uhungarumlaut" unicode="&#x171;" horiz-adv-x="528" 
d="M495 486l-97 -486h-63l8 74h-4c-53 -47 -109 -86 -168 -86c-82 0 -115 47 -115 121c0 23 2 41 8 67l62 310h77l-61 -300c-5 -26 -8 -40 -8 -57c0 -49 22 -75 72 -75c38 0 85 27 144 88l69 344h76zM222 571l103 142h70l-119 -142h-54zM364 571l102 142h71l-119 -142h-54z
" />
    <glyph glyph-name="Uogonek" unicode="&#x172;" horiz-adv-x="616" 
d="M614 656l-82 -405c-30 -159 -92 -223 -193 -258c-77 -26 -109 -77 -109 -112c0 -24 16 -38 36 -38c13 0 23 3 36 11l17 -42c-23 -14 -53 -23 -76 -23c-46 0 -78 24 -78 69c0 48 43 102 84 132c-110 14 -170 84 -170 205c0 28 4 60 10 93l74 368h78l-75 -375
c-6 -30 -9 -55 -9 -79c0 -94 41 -147 133 -147c75 0 139 56 167 199l81 402h76z" />
    <glyph glyph-name="uogonek" unicode="&#x173;" horiz-adv-x="528" 
d="M495 486l-97 -486c-67 -31 -110 -74 -110 -118c0 -23 16 -37 37 -37c13 0 25 4 37 12l16 -38c-22 -14 -53 -25 -76 -25c-43 0 -75 23 -75 67c0 60 58 116 110 145l6 68h-4c-53 -47 -109 -86 -168 -86c-82 0 -115 47 -115 121c0 23 2 41 8 67l62 310h77l-61 -300
c-5 -26 -8 -40 -8 -57c0 -49 22 -75 72 -75c38 0 85 27 144 88l69 344h76z" />
    <glyph glyph-name="Wcircumflex" unicode="&#x174;" horiz-adv-x="756" 
d="M95 0l9 656h80l-10 -361c-4 -70 -5 -142 -10 -213h4c31 71 64 143 93 213l164 361h71l9 -361c1 -69 1 -141 1 -213h4c27 72 56 143 83 213l142 361h77l-270 -656h-99l-7 401c0 48 1 102 3 154h-4c-19 -52 -42 -102 -64 -154l-179 -401h-97zM330 706l113 110h73l70 -110
h-59l-50 70h-4l-78 -70h-65z" />
    <glyph glyph-name="wcircumflex" unicode="&#x175;" horiz-adv-x="707" 
d="M105 0l-35 486h76l16 -286c1 -46 2 -91 3 -136h4c20 45 37 90 58 136l128 286h75l17 -286c2 -46 3 -91 5 -136h4c19 45 35 90 56 136l127 286h72l-221 -486h-95l-14 266c-1 46 -2 95 -3 143h-4c-20 -48 -39 -97 -59 -143l-118 -266h-92zM292 571l122 141h57l66 -141h-53
l-47 92h-4l-83 -92h-58z" />
    <glyph glyph-name="Ycircumflex" unicode="&#x176;" horiz-adv-x="461" 
d="M139 0l51 256l-107 400h80l45 -189c12 -48 21 -92 33 -142h4c30 49 58 95 90 143l124 188h83l-274 -400l-52 -256h-77zM179 706l113 110h73l70 -110h-59l-50 70h-4l-78 -70h-65z" />
    <glyph glyph-name="ycircumflex" unicode="&#x177;" horiz-adv-x="448" 
d="M-37 -138c12 -6 23 -9 36 -9c49 0 94 44 127 111l18 35l-83 487h76l38 -273c7 -44 12 -99 16 -145h4c23 46 48 99 72 145l140 273h76l-286 -527c-51 -95 -110 -168 -203 -168c-14 0 -37 4 -56 14zM152 571l122 141h58l66 -141h-53l-47 92h-4l-84 -92h-58z" />
    <glyph glyph-name="Ydieresis" unicode="&#x178;" horiz-adv-x="461" 
d="M139 0l51 256l-107 400h80l45 -189c12 -48 21 -92 33 -142h4c30 49 58 95 90 143l124 188h83l-274 -400l-52 -256h-77zM231 715c-24 0 -40 15 -40 40c0 29 22 55 50 55c23 0 40 -15 40 -41c0 -28 -22 -54 -50 -54zM397 715c-24 0 -40 15 -40 40c0 29 22 55 50 55
c23 0 40 -15 40 -41c0 -28 -23 -54 -50 -54z" />
    <glyph glyph-name="Zacute" unicode="&#x179;" horiz-adv-x="512" 
d="M-1 0l10 47l425 544h-300l14 65h393l-10 -46l-422 -544h331l-15 -66h-426zM295 706l107 110h87l-128 -110h-66z" />
    <glyph glyph-name="zacute" unicode="&#x17a;" horiz-adv-x="410" 
d="M-10 0l8 44l323 380h-221l13 62h317l-8 -45l-323 -379h254l-12 -62h-351zM214 571l116 141h82l-137 -141h-61z" />
    <glyph glyph-name="Zdotaccent" unicode="&#x17b;" horiz-adv-x="512" 
d="M-1 0l10 47l425 544h-300l14 65h393l-10 -46l-422 -544h331l-15 -66h-426zM352 716c-26 0 -49 16 -49 45c0 32 27 58 58 58c26 0 49 -17 49 -46c0 -33 -27 -57 -58 -57z" />
    <glyph glyph-name="zdotaccent" unicode="&#x17c;" horiz-adv-x="410" 
d="M-10 0l8 44l323 380h-221l13 62h317l-8 -45l-323 -379h254l-12 -62h-351zM287 587c-26 0 -49 16 -49 45c0 33 27 58 58 58c26 0 49 -17 49 -46c0 -33 -27 -57 -58 -57z" />
    <glyph glyph-name="Zcaron" unicode="&#x17d;" horiz-adv-x="512" 
d="M-1 0l10 47l425 544h-300l14 65h393l-10 -46l-422 -544h331l-15 -66h-426zM495 816l-113 -110h-73l-70 110h59l51 -70h3l78 70h65z" />
    <glyph glyph-name="zcaron" unicode="&#x17e;" horiz-adv-x="410" 
d="M-10 0l8 44l323 380h-221l13 62h317l-8 -45l-323 -379h254l-12 -62h-351zM431 712l-122 -141h-57l-66 141h53l47 -91h4l83 91h58z" />
    <glyph glyph-name="uni0180" unicode="&#x180;" horiz-adv-x="519" 
d="M174 335l-42 -211c27 -51 61 -72 99 -72c97 0 182 119 182 249c0 75 -34 113 -89 113c-45 0 -104 -30 -150 -79zM185 406h2c48 39 105 72 165 72c85 0 140 -59 140 -166c0 -181 -124 -324 -258 -324c-52 0 -94 29 -117 73h-3l-20 -61h-63l114 572h-70l7 40l72 5l19 95h77
l-19 -95h175l-10 -45h-175l-14 -70z" />
    <glyph glyph-name="uni018F" unicode="&#x18f;" horiz-adv-x="636" 
d="M521 286h-382c-20 -145 42 -232 144 -232c111 0 206 94 238 232zM227 540l-35 53c49 45 119 79 198 79c149 0 220 -108 220 -273c0 -239 -151 -411 -332 -411c-136 0 -215 101 -215 246c0 43 6 72 16 111h452c1 15 2 30 2 45c0 131 -40 216 -151 216
c-62 0 -113 -29 -155 -66z" />
    <glyph glyph-name="uni0192" unicode="&#x192;" horiz-adv-x="480" 
d="M233 406l23 74c35 117 93 191 185 191c28 0 57 -9 81 -22l-25 -58c-17 10 -36 17 -57 17c-52 0 -89 -64 -109 -130l-22 -72h119l-12 -58h-125l-79 -256c-34 -109 -85 -189 -181 -189c-28 0 -55 6 -79 22l25 56c15 -9 32 -15 51 -15c53 0 88 54 117 150l71 232h-85l12 55
l67 3h23z" />
    <glyph glyph-name="Ohorn" unicode="&#x1a0;" horiz-adv-x="633" 
d="M291 55c141 0 236 179 236 332c0 129 -48 214 -152 214c-141 0 -236 -178 -236 -332c0 -128 47 -214 152 -214zM590 745l59 20c8 -17 11 -31 11 -47c0 -57 -47 -102 -121 -115c44 -48 67 -121 67 -209c0 -201 -131 -406 -319 -406c-147 0 -227 109 -227 275
c0 200 131 405 319 405c46 0 86 -11 118 -31c57 4 98 33 98 75c0 10 -1 19 -5 33z" />
    <glyph glyph-name="ohorn" unicode="&#x1a1;" horiz-adv-x="517" 
d="M220 52c90 0 177 110 177 246c0 88 -37 137 -104 137c-89 0 -177 -111 -177 -247c0 -88 37 -136 104 -136zM477 583l60 21c8 -17 10 -32 10 -47c0 -54 -37 -99 -116 -115c28 -33 44 -81 44 -139c0 -184 -130 -315 -263 -315c-105 0 -173 74 -173 195
c0 184 129 315 262 315c34 0 64 -8 89 -22c53 5 93 32 93 74c0 11 -1 20 -6 33z" />
    <glyph glyph-name="Uhorn" unicode="&#x1af;" horiz-adv-x="629" 
d="M665 763l60 21c7 -17 10 -31 10 -47c0 -54 -41 -104 -128 -117l-75 -369c-37 -189 -129 -263 -246 -263c-133 0 -207 71 -207 207c0 28 4 60 10 93l74 368h78l-75 -375c-6 -30 -9 -55 -9 -79c0 -94 41 -147 133 -147c75 0 139 56 167 199l81 402h35c55 3 97 33 97 74
c0 11 -1 20 -5 33z" />
    <glyph glyph-name="uhorn" unicode="&#x1b0;" horiz-adv-x="543" 
d="M529 593l60 21c7 -17 10 -32 10 -47c0 -56 -46 -100 -111 -115l-90 -452h-63l8 74h-4c-53 -47 -109 -86 -168 -86c-82 0 -115 47 -115 121c0 23 2 41 8 67l62 310h77l-61 -300c-5 -26 -8 -40 -8 -57c0 -49 22 -75 72 -75c38 0 85 27 144 88l69 344h27c47 6 88 33 88 74
c0 11 -1 20 -5 33z" />
    <glyph glyph-name="uni01CD" unicode="&#x1cd;" horiz-adv-x="510" 
d="M381 706h-72l-71 110h59l51 -70h3l78 70h66zM169 265h195l-10 112c-6 69 -13 139 -18 214h-4c-35 -76 -68 -142 -105 -214zM303 656h90l76 -656h-81l-18 205h-232l-105 -205h-86z" />
    <glyph glyph-name="uni01CE" unicode="&#x1ce;" horiz-adv-x="537" 
d="M39 164c0 187 128 334 263 334c52 0 94 -29 117 -73h4l19 61h62l-97 -486h-63l8 72h-4c-47 -50 -108 -84 -169 -84c-85 0 -140 62 -140 176zM207 52c51 0 105 30 153 93l44 217c-28 51 -62 72 -99 72c-97 0 -187 -124 -187 -258c0 -84 35 -124 89 -124zM478 712
l-122 -141h-57l-66 141h52l48 -91h4l83 91h58z" />
    <glyph glyph-name="uni01CF" unicode="&#x1cf;" horiz-adv-x="252" 
d="M35 0l131 656h78l-131 -656h-78zM356 816l-113 -110h-73l-70 110h59l51 -70h3l78 70h65z" />
    <glyph glyph-name="uni01D0" unicode="&#x1d0;" horiz-adv-x="237" 
d="M31 0l97 486h77l-98 -486h-76zM335 712l-122 -141h-58l-66 141h53l47 -91h4l84 91h58z" />
    <glyph glyph-name="uni01D1" unicode="&#x1d1;" horiz-adv-x="633" 
d="M287 -12c-147 0 -227 109 -227 275c0 200 131 405 319 405c147 0 227 -109 227 -274c0 -201 -131 -406 -319 -406zM375 601c-141 0 -236 -178 -236 -332c0 -128 47 -214 152 -214c141 0 236 179 236 332c0 129 -48 214 -152 214zM554 816l-114 -110h-72l-71 110h59
l51 -70h3l79 70h65z" />
    <glyph glyph-name="uni01D2" unicode="&#x1d2;" horiz-adv-x="515" 
d="M212 -12c-105 0 -173 74 -173 195c0 184 129 315 262 315c105 0 174 -74 174 -195c0 -184 -130 -315 -263 -315zM293 435c-89 0 -177 -111 -177 -247c0 -88 37 -136 104 -136c90 0 177 110 177 246c0 88 -37 137 -104 137zM481 712l-122 -141h-58l-66 141h53l47 -91h4
l84 91h58z" />
    <glyph glyph-name="uni01D3" unicode="&#x1d3;" horiz-adv-x="616" 
d="M89 288l74 368h78l-75 -375c-6 -30 -9 -55 -9 -79c0 -94 41 -147 133 -147c75 0 139 56 167 199l81 402h76l-82 -405c-37 -189 -129 -263 -246 -263c-133 0 -207 71 -207 207c0 28 4 60 10 93zM544 816l-113 -110h-73l-71 110h60l50 -70h4l78 70h65z" />
    <glyph glyph-name="uni01D4" unicode="&#x1d4;" horiz-adv-x="528" 
d="M495 486l-97 -486h-63l8 74h-4c-53 -47 -109 -86 -168 -86c-82 0 -115 47 -115 121c0 23 2 41 8 67l62 310h77l-61 -300c-5 -26 -8 -40 -8 -57c0 -49 22 -75 72 -75c38 0 85 27 144 88l69 344h76zM474 712l-122 -141h-58l-66 141h53l47 -91h4l84 91h58z" />
    <glyph glyph-name="uni01D5" unicode="&#x1d5;" horiz-adv-x="616" 
d="M89 288l74 368h78l-75 -375c-6 -30 -9 -55 -9 -79c0 -94 41 -147 133 -147c75 0 139 56 167 199l81 402h76l-82 -405c-37 -189 -129 -263 -246 -263c-133 0 -207 71 -207 207c0 28 4 60 10 93zM322 715c-22 0 -37 14 -37 38c0 25 20 52 48 52c22 0 37 -16 37 -39
c0 -26 -20 -51 -48 -51zM486 715c-21 0 -37 14 -37 38c0 25 21 52 49 52c21 0 37 -16 37 -39c0 -26 -21 -51 -49 -51zM309 859l9 44h237l-10 -44h-236z" />
    <glyph glyph-name="uni01D6" unicode="&#x1d6;" horiz-adv-x="528" 
d="M495 486l-97 -486h-63l8 74h-4c-53 -47 -109 -86 -168 -86c-82 0 -115 47 -115 121c0 23 2 41 8 67l62 310h77l-61 -300c-5 -26 -8 -40 -8 -57c0 -49 22 -75 72 -75c38 0 85 27 144 88l69 344h76zM242 748l10 44h233l-9 -44h-234zM247 589c-22 0 -37 15 -37 36
c0 29 22 52 48 52c22 0 37 -14 37 -37c0 -28 -22 -51 -48 -51zM412 589c-22 0 -37 15 -37 36c0 29 22 52 48 52c22 0 36 -14 36 -37c0 -28 -22 -51 -47 -51z" />
    <glyph glyph-name="uni01D7" unicode="&#x1d7;" horiz-adv-x="616" 
d="M89 288l74 368h78l-75 -375c-6 -30 -9 -55 -9 -79c0 -94 41 -147 133 -147c75 0 139 56 167 199l81 402h76l-82 -405c-37 -189 -129 -263 -246 -263c-133 0 -207 71 -207 207c0 28 4 60 10 93zM374 837l106 109h85l-127 -109h-64zM318 715c-20 0 -37 14 -37 38
c0 25 22 52 50 52c20 0 37 -16 37 -39c0 -26 -20 -51 -50 -51zM483 715c-22 0 -37 14 -37 38c0 25 20 52 50 52c20 0 37 -16 37 -39c0 -26 -22 -51 -50 -51z" />
    <glyph glyph-name="uni01D8" unicode="&#x1d8;" horiz-adv-x="528" 
d="M495 486l-97 -486h-63l8 74h-4c-53 -47 -109 -86 -168 -86c-82 0 -115 47 -115 121c0 23 2 41 8 67l62 310h77l-61 -300c-5 -26 -8 -40 -8 -57c0 -49 22 -75 72 -75c38 0 85 27 144 88l69 344h76zM304 719l94 100h76l-113 -100h-57zM247 589c-22 0 -37 15 -37 36
c0 29 22 52 48 52c22 0 37 -14 37 -37c0 -28 -22 -51 -48 -51zM412 589c-22 0 -37 15 -37 36c0 29 22 52 48 52c22 0 36 -14 36 -37c0 -28 -22 -51 -47 -51z" />
    <glyph glyph-name="uni01D9" unicode="&#x1d9;" horiz-adv-x="616" 
d="M89 288l74 368h78l-75 -375c-6 -30 -9 -55 -9 -79c0 -94 41 -147 133 -147c75 0 139 56 167 199l81 402h76l-82 -405c-37 -189 -129 -263 -246 -263c-133 0 -207 71 -207 207c0 28 4 60 10 93zM318 715c-20 0 -37 14 -37 38c0 25 22 52 50 52c20 0 37 -16 37 -39
c0 -26 -20 -51 -50 -51zM483 715c-22 0 -37 14 -37 38c0 25 20 52 50 52c20 0 37 -16 37 -39c0 -26 -22 -51 -50 -51zM385 837l-70 109h61l50 -70h3l79 70h63l-113 -109h-73z" />
    <glyph glyph-name="uni01DA" unicode="&#x1da;" horiz-adv-x="528" 
d="M495 486l-97 -486h-63l8 74h-4c-53 -47 -109 -86 -168 -86c-82 0 -115 47 -115 121c0 23 2 41 8 67l62 310h77l-61 -300c-5 -26 -8 -40 -8 -57c0 -49 22 -75 72 -75c38 0 85 27 144 88l69 344h76zM322 719l-69 100h53l52 -62h4l72 62h56l-103 -100h-65zM247 589
c-22 0 -37 15 -37 36c0 29 22 52 48 52c22 0 37 -14 37 -37c0 -28 -22 -51 -48 -51zM412 589c-22 0 -37 15 -37 36c0 29 22 52 48 52c22 0 36 -14 36 -37c0 -28 -22 -51 -47 -51z" />
    <glyph glyph-name="uni01DB" unicode="&#x1db;" horiz-adv-x="616" 
d="M89 288l74 368h78l-75 -375c-6 -30 -9 -55 -9 -79c0 -94 41 -147 133 -147c75 0 139 56 167 199l81 402h76l-82 -405c-37 -189 -129 -263 -246 -263c-133 0 -207 71 -207 207c0 28 4 60 10 93zM409 837l-88 109h82l69 -109h-63zM318 715c-20 0 -37 14 -37 38
c0 25 22 52 50 52c20 0 37 -16 37 -39c0 -26 -20 -51 -50 -51zM483 715c-22 0 -37 14 -37 38c0 25 20 52 50 52c20 0 37 -16 37 -39c0 -26 -22 -51 -50 -51z" />
    <glyph glyph-name="uni01DC" unicode="&#x1dc;" horiz-adv-x="528" 
d="M495 486l-97 -486h-63l8 74h-4c-53 -47 -109 -86 -168 -86c-82 0 -115 47 -115 121c0 23 2 41 8 67l62 310h77l-61 -300c-5 -26 -8 -40 -8 -57c0 -49 22 -75 72 -75c38 0 85 27 144 88l69 344h76zM345 719l-79 100h71l61 -100h-53zM247 589c-22 0 -37 15 -37 36
c0 29 22 52 48 52c22 0 37 -14 37 -37c0 -28 -22 -51 -48 -51zM412 589c-22 0 -37 15 -37 36c0 29 22 52 48 52c22 0 36 -14 36 -37c0 -28 -22 -51 -47 -51z" />
    <glyph glyph-name="Gcaron" unicode="&#x1e6;" horiz-adv-x="588" 
d="M57 253c0 208 134 415 349 415c78 0 132 -41 165 -97l-55 -41c-25 42 -61 71 -114 71c-165 0 -265 -182 -265 -341c0 -117 48 -206 174 -206c48 0 86 18 112 40l37 181h-136l13 64h206l-57 -284c-48 -40 -111 -67 -186 -67c-158 0 -243 105 -243 265zM558 816l-114 -110
h-73l-70 110h59l51 -70h3l78 70h66z" />
    <glyph glyph-name="gcaron" unicode="&#x1e7;" horiz-adv-x="531" 
d="M435 486h63l-102 -509c-26 -129 -106 -201 -228 -201c-65 0 -123 28 -170 67l36 53c37 -32 83 -58 137 -58c83 0 132 57 153 145l24 100h-3c-48 -46 -103 -78 -165 -78c-82 0 -141 58 -141 171c0 178 126 322 257 322c51 0 94 -29 117 -73h3zM205 69c46 0 104 29 150 85
l43 208c-30 51 -62 72 -99 72c-94 0 -181 -120 -181 -247c0 -79 33 -118 87 -118zM473 712l-122 -141h-57l-66 141h53l47 -91h4l83 91h58z" />
    <glyph glyph-name="uni01EA" unicode="&#x1ea;" horiz-adv-x="633" 
d="M375 601c-141 0 -236 -178 -236 -332c0 -128 47 -214 152 -214c141 0 236 179 236 332c0 129 -48 214 -152 214zM606 394c0 -172 -89 -339 -249 -397c-79 -29 -113 -77 -113 -116c0 -24 16 -38 36 -38c13 0 23 3 36 11l17 -42c-23 -14 -53 -23 -76 -23
c-46 0 -78 24 -78 69c0 55 50 109 84 131c-131 12 -203 115 -203 274c0 200 131 405 319 405c147 0 227 -109 227 -274z" />
    <glyph glyph-name="uni01EB" unicode="&#x1eb;" horiz-adv-x="515" 
d="M110 -139c0 58 53 112 83 129c-95 10 -154 77 -154 193c0 184 129 315 262 315c102 0 174 -71 174 -195c0 -158 -84 -258 -201 -308c-68 -29 -103 -78 -103 -113c0 -23 16 -37 36 -37c14 0 25 4 38 12l16 -38c-23 -14 -53 -25 -76 -25c-43 0 -75 23 -75 67zM293 435
c-89 0 -177 -111 -177 -247c0 -88 37 -136 104 -136c90 0 177 110 177 246c0 88 -37 137 -104 137z" />
    <glyph glyph-name="uni0218" unicode="&#x218;" horiz-adv-x="506" 
d="M12 104l57 43c39 -58 96 -93 169 -93c80 0 141 49 141 124c0 48 -33 78 -82 108l-76 46c-56 34 -101 80 -101 154c0 99 86 182 204 182c78 0 145 -39 186 -92l-51 -46c-34 40 -80 71 -141 71c-74 0 -119 -53 -119 -106c0 -51 37 -78 85 -107l76 -45
c63 -37 99 -81 99 -154c0 -117 -95 -201 -228 -201c-90 0 -166 38 -219 116zM169 -87l23 34c44 -10 74 -29 74 -65c0 -67 -72 -91 -150 -99l-4 36c58 9 96 25 96 57c0 22 -18 31 -39 37z" />
    <glyph glyph-name="uni0219" unicode="&#x219;" horiz-adv-x="402" 
d="M-4 80l48 38c30 -42 74 -71 125 -71c56 0 103 37 103 81c0 35 -21 55 -89 92c-75 41 -111 78 -111 133c0 86 76 145 167 145c59 0 107 -27 143 -65l-44 -43c-26 27 -57 48 -101 48c-52 0 -92 -35 -92 -76s42 -62 86 -86c87 -48 114 -85 114 -138
c0 -91 -77 -150 -182 -150c-65 0 -134 41 -167 92zM118 -79l22 34c44 -10 75 -29 75 -65c0 -67 -72 -91 -150 -99l-4 36c58 9 96 25 96 57c0 22 -18 31 -39 37z" />
    <glyph glyph-name="uni021A" unicode="&#x21a;" horiz-adv-x="510" 
d="M166 0l117 589h-190l13 67h459l-13 -67h-191l-117 -589h-78zM153 -79l22 34c44 -10 74 -29 74 -65c0 -67 -71 -91 -149 -99l-4 36c58 9 96 25 96 57c0 22 -19 31 -39 37z" />
    <glyph glyph-name="uni021B" unicode="&#x21b;" horiz-adv-x="325" 
d="M74 150l57 274h-71l11 57l76 5l36 134h65l-27 -134h123l-12 -62h-125l-57 -278c-2 -12 -3 -23 -3 -36c0 -40 16 -60 62 -60c19 0 36 8 51 15l17 -55c-22 -10 -54 -22 -92 -22c-85 0 -116 48 -116 108c0 20 3 36 5 54zM106 -79l22 34c44 -10 75 -29 75 -65
c0 -67 -72 -91 -150 -99l-4 36c58 9 96 25 96 57c0 22 -18 31 -39 37z" />
    <glyph glyph-name="uni0237" unicode="&#x237;" horiz-adv-x="238" 
d="M206 486l-111 -547c-19 -93 -60 -156 -144 -156c-31 0 -53 7 -75 19l25 57c13 -8 25 -13 46 -13c37 0 58 34 71 92l111 548h77z" />
    <glyph glyph-name="uni0243" unicode="&#x243;" horiz-adv-x="610" 
d="M141 58h115c123 0 204 47 204 155c0 67 -53 113 -149 113h-115l-21 -103h149l-9 -44h-149zM249 598l-43 -219h93c124 0 184 51 184 124c0 61 -45 95 -143 95h-91zM416 354l-1 -4c68 -16 121 -60 121 -137c0 -148 -117 -213 -273 -213h-210l36 179h-71l9 40l71 4l86 433
h175c126 0 203 -49 203 -141c0 -87 -74 -145 -146 -161z" />
    <glyph glyph-name="uni0251" unicode="&#x251;" horiz-adv-x="537" 
d="M39 164c0 187 128 334 263 334c52 0 94 -29 117 -73h4l19 61h62l-97 -486h-63l8 72h-4c-47 -50 -108 -84 -169 -84c-85 0 -140 62 -140 176zM207 52c51 0 105 30 153 93l44 217c-28 51 -62 72 -99 72c-97 0 -187 -124 -187 -258c0 -84 35 -124 89 -124z" />
    <glyph glyph-name="uni0259" unicode="&#x259;" horiz-adv-x="478" 
d="M438 295c0 -183 -134 -307 -260 -307c-109 0 -150 76 -150 176c0 37 9 74 19 101h315c12 108 -34 173 -112 173c-40 0 -79 -18 -114 -36l-24 53c45 23 94 43 154 43c103 0 172 -71 172 -203zM354 213h-254c-5 -17 -7 -38 -7 -56c0 -55 22 -108 94 -108
c71 0 141 60 167 164z" />
    <glyph glyph-name="uni0261" unicode="&#x261;" horiz-adv-x="531" 
d="M435 486h63l-102 -509c-26 -129 -106 -201 -228 -201c-65 0 -123 28 -170 67l36 53c37 -32 83 -58 137 -58c83 0 132 57 153 145l24 100h-3c-48 -46 -103 -78 -165 -78c-82 0 -141 58 -141 171c0 178 126 322 257 322c51 0 94 -29 117 -73h3zM205 69c46 0 104 29 150 85
l43 208c-30 51 -62 72 -99 72c-94 0 -181 -120 -181 -247c0 -79 33 -118 87 -118z" />
    <glyph glyph-name="h.sups" unicode="&#x2b0;" horiz-adv-x="353" 
d="M56 266l93 469h58l-24 -119l-17 -71h4c33 28 69 51 109 51c56 0 77 -31 77 -82c0 -15 -3 -30 -6 -43l-41 -205h-58l40 197c3 16 5 25 5 36c0 31 -14 47 -41 47c-29 0 -59 -18 -97 -57l-45 -223h-57z" />
    <glyph glyph-name="j.sups" unicode="&#x2b2;" horiz-adv-x="164" 
d="M177 588l-72 -365c-12 -62 -42 -101 -101 -101c-19 0 -36 5 -54 14l20 41c8 -4 18 -9 31 -9c27 0 39 22 47 59l71 361h58zM165 651c-19 0 -36 12 -36 34c0 21 19 41 42 41c19 0 36 -13 36 -34c0 -22 -19 -41 -42 -41z" />
    <glyph glyph-name="r.sups" unicode="&#x2b3;" horiz-adv-x="224" 
d="M56 266l63 322h47l-6 -51h4c26 35 57 59 95 59c11 0 17 -1 26 -5l-20 -53c-8 5 -13 5 -21 5c-32 0 -60 -20 -89 -66l-42 -211h-57z" />
    <glyph glyph-name="w.sups" unicode="&#x2b7;" horiz-adv-x="479" 
d="M107 266l-27 322h57l11 -182l3 -92h4l37 92l85 182h53l15 -182l5 -92h4l38 92l81 182h54l-148 -322h-71l-13 168l-3 90h-2l-38 -91l-77 -167h-68z" />
    <glyph glyph-name="y.sups" unicode="&#x2b8;" horiz-adv-x="307" 
d="M40 168c38 0 64 36 85 73l9 20l-60 327h57l28 -180l10 -95h3l45 95l91 180h57l-185 -349c-33 -60 -71 -117 -140 -117c-19 0 -31 3 -48 12l20 42c8 -4 15 -8 28 -8z" />
    <glyph glyph-name="uni02B9" unicode="&#x2b9;" horiz-adv-x="242" 
d="M112 434l75 256h75l-33 -97l-66 -159h-51z" />
    <glyph glyph-name="uni02BB" unicode="&#x2bb;" horiz-adv-x="242" 
d="M242 691l16 -38c-60 -30 -94 -80 -95 -118h5c28 0 49 -16 49 -44c0 -31 -22 -57 -54 -57c-31 0 -53 25 -53 68c0 92 57 157 132 189z" />
    <glyph glyph-name="uni02BC" unicode="&#x2bc;" horiz-adv-x="242" 
d="M127 443l-16 37c61 31 95 81 96 118h-5c-29 0 -50 16 -50 45c0 30 22 57 55 57c31 0 53 -25 53 -68c0 -92 -58 -157 -133 -189z" />
    <glyph glyph-name="uni02BE" unicode="&#x2be;" horiz-adv-x="151" 
d="M98 542l7 34c49 2 74 30 74 65c0 27 -14 48 -52 48l8 34c61 3 89 -31 89 -75c0 -61 -46 -106 -126 -106z" />
    <glyph glyph-name="uni02BF" unicode="&#x2bf;" horiz-adv-x="163" 
d="M218 726l-7 -35c-49 -2 -74 -30 -74 -64c0 -28 14 -49 52 -49l-8 -34c-60 -2 -88 32 -88 76c0 60 45 106 125 106z" />
    <glyph glyph-name="circumflex" unicode="&#x2c6;" horiz-adv-x="517" 
d="M206 571l122 141h58l65 -141h-52l-48 92h-4l-83 -92h-58z" />
    <glyph glyph-name="caron" unicode="&#x2c7;" horiz-adv-x="517" 
d="M481 712l-122 -141h-58l-66 141h53l47 -91h4l84 91h58z" />
    <glyph glyph-name="uni02C8" unicode="&#x2c8;" horiz-adv-x="108" 
d="M90 564l29 182h66l-43 -182h-52z" />
    <glyph glyph-name="uni02C9" unicode="&#x2c9;" horiz-adv-x="262" 
d="M83 601l10 54h235l-10 -54h-235z" />
    <glyph glyph-name="uni02CA" unicode="&#x2ca;" horiz-adv-x="213" 
d="M103 571l116 141h82l-136 -141h-62z" />
    <glyph glyph-name="uni02CB" unicode="&#x2cb;" horiz-adv-x="213" 
d="M172 571l-78 141h75l59 -141h-56z" />
    <glyph glyph-name="uni02CC" unicode="&#x2cc;" horiz-adv-x="108" 
d="M20 -71l-29 -183h-66l43 183h52z" />
    <glyph glyph-name="breve" unicode="&#x2d8;" horiz-adv-x="517" 
d="M329 575c-80 0 -102 64 -94 125h45c-4 -46 13 -79 57 -79s75 35 90 79h48c-18 -61 -64 -125 -146 -125z" />
    <glyph glyph-name="dotaccent" unicode="&#x2d9;" horiz-adv-x="517" 
d="M336 587c-25 0 -48 16 -48 45c0 33 26 58 58 58c25 0 48 -17 48 -46c0 -33 -27 -57 -58 -57z" />
    <glyph glyph-name="ring" unicode="&#x2da;" horiz-adv-x="517" 
d="M334 539c-48 0 -83 29 -83 82c0 56 43 102 97 102c49 0 84 -29 84 -82c0 -56 -44 -102 -98 -102zM346 687c-28 0 -52 -29 -52 -63c0 -29 15 -49 42 -49c28 0 53 29 53 64c0 28 -16 48 -43 48z" />
    <glyph glyph-name="ogonek" unicode="&#x2db;" horiz-adv-x="517" 
d="M110 -139c0 58 54 113 96 142h54c-56 -38 -89 -81 -89 -121c0 -23 16 -37 36 -37c14 0 25 4 38 12l16 -38c-23 -14 -53 -25 -76 -25c-43 0 -75 23 -75 67z" />
    <glyph glyph-name="tilde" unicode="&#x2dc;" horiz-adv-x="517" 
d="M241 580h-44c17 60 52 102 94 102c58 0 66 -53 109 -53c16 0 32 20 44 51h44c-17 -59 -51 -102 -94 -102c-57 0 -66 53 -108 53c-17 0 -32 -20 -45 -51z" />
    <glyph glyph-name="hungarumlaut" unicode="&#x2dd;" horiz-adv-x="517" 
d="M229 571l103 142h70l-119 -142h-54zM371 571l102 142h71l-119 -142h-54z" />
    <glyph glyph-name="l.sups" unicode="&#x2e1;" horiz-adv-x="165" 
d="M70 340l79 395h58l-81 -402c-2 -7 -2 -10 -2 -14c0 -9 6 -12 13 -12c3 0 7 0 12 2l2 -45c-10 -3 -23 -6 -38 -6c-32 0 -47 19 -47 48c0 10 2 21 4 34z" />
    <glyph glyph-name="s.sups" unicode="&#x2e2;" horiz-adv-x="271" 
d="M28 313l35 34c24 -24 53 -45 88 -45c37 0 63 21 63 51c0 19 -16 34 -59 57c-44 23 -73 49 -73 88c0 57 50 98 112 98c43 0 77 -19 103 -42l-29 -36c-20 18 -45 34 -75 34c-34 0 -56 -22 -56 -48c0 -23 25 -38 57 -54c49 -25 74 -52 74 -91c0 -63 -50 -101 -123 -101
c-46 0 -88 24 -117 55z" />
    <glyph glyph-name="x.sups" unicode="&#x2e3;" horiz-adv-x="295" 
d="M5 266l147 170l-62 152h58l26 -65l21 -54h4l36 48l54 71h65l-133 -163l66 -159h-58l-29 70l-24 58h-3l-40 -52l-62 -76h-66z" />
    <glyph glyph-name="uni0300" unicode="&#x300;" 
d="M116 571l-78 141h75l59 -141h-56z" />
    <glyph glyph-name="uni0301" unicode="&#x301;" 
d="M47 571l116 141h82l-136 -141h-62z" />
    <glyph glyph-name="uni0302" unicode="&#x302;" 
d="M-10 571l122 141h57l66 -141h-53l-47 92h-4l-83 -92h-58z" />
    <glyph glyph-name="uni0303" unicode="&#x303;" 
d="M25 580h-44c17 60 52 102 94 102c57 0 66 -53 108 -53c17 0 32 20 45 51h44c-17 -59 -52 -102 -94 -102c-58 0 -66 53 -109 53c-16 0 -31 -20 -44 -51z" />
    <glyph glyph-name="uni0304" unicode="&#x304;" 
d="M1 601l10 54h234l-9 -54h-235z" />
    <glyph glyph-name="uni0306" unicode="&#x306;" 
d="M113 575c-80 0 -102 64 -94 125h45c-4 -46 12 -79 56 -79c45 0 76 35 91 79h48c-18 -61 -64 -125 -146 -125z" />
    <glyph glyph-name="uni0307" unicode="&#x307;" 
d="M120 587c-26 0 -49 16 -49 45c0 33 27 58 58 58c26 0 49 -17 49 -46c0 -33 -27 -57 -58 -57z" />
    <glyph glyph-name="uni0308" unicode="&#x308;" 
d="M37 589c-23 0 -40 15 -40 40c0 30 23 55 51 55c24 0 41 -16 41 -42c0 -30 -24 -53 -52 -53zM203 589c-23 0 -40 15 -40 40c0 30 23 55 51 55c24 0 40 -16 40 -42c0 -30 -23 -53 -51 -53z" />
    <glyph glyph-name="uni0309" unicode="&#x309;" 
d="M83 682l14 42c86 -3 118 -31 118 -68c0 -61 -53 -89 -122 -104l-6 36c43 13 68 27 68 54c0 23 -16 35 -72 40z" />
    <glyph glyph-name="uni030A" unicode="&#x30a;" 
d="M118 539c-48 0 -84 29 -84 82c0 56 44 102 98 102c48 0 83 -29 83 -82c0 -56 -43 -102 -97 -102zM130 687c-28 0 -52 -29 -52 -63c0 -29 15 -49 42 -49c28 0 52 29 52 64c0 28 -15 48 -42 48z" />
    <glyph glyph-name="uni030B" unicode="&#x30b;" 
d="M13 571l102 142h71l-119 -142h-54zM155 571l102 142h70l-119 -142h-53z" />
    <glyph glyph-name="uni030C" unicode="&#x30c;" 
d="M265 712l-122 -141h-58l-66 141h53l47 -91h4l83 91h59z" />
    <glyph glyph-name="uni030F" unicode="&#x30f;" 
d="M17 713l42 -142h-51l-58 142h67zM156 713l43 -142h-51l-58 142h66z" />
    <glyph glyph-name="uni0312" unicode="&#x312;" 
d="M171 729l9 -32c-44 -17 -64 -39 -73 -69c4 1 7 1 10 1c19 0 37 -16 37 -38c0 -31 -21 -48 -49 -48c-26 0 -43 24 -43 55c0 56 31 104 109 131z" />
    <glyph glyph-name="uni0313" unicode="&#x313;" 
d="M79 543l-10 32c44 17 64 39 73 69c-4 -1 -7 -1 -10 -1c-19 0 -37 16 -37 38c0 31 22 48 49 48c26 0 43 -24 43 -56c0 -55 -31 -103 -108 -130z" />
    <glyph glyph-name="uni031B" unicode="&#x31b;" 
d="M173 583l59 21c8 -17 11 -32 11 -47c0 -63 -54 -116 -162 -120l-1 39c54 2 98 32 98 74c0 11 -1 20 -5 33z" />
    <glyph glyph-name="uni0323" unicode="&#x323;" 
d="M-38 -213c-26 0 -49 16 -49 45c0 33 27 58 58 58c26 0 49 -17 49 -46c0 -33 -27 -57 -58 -57z" />
    <glyph glyph-name="uni0324" unicode="&#x324;" 
d="M-119 -200c-24 0 -40 17 -40 41c0 27 20 54 50 54c23 0 40 -16 40 -41c0 -26 -20 -54 -50 -54zM47 -200c-22 0 -40 17 -40 41c0 27 21 54 51 54c22 0 40 -16 40 -41c0 -26 -21 -54 -51 -54z" />
    <glyph glyph-name="uni0326" unicode="&#x326;" 
d="M-61 -87l23 34c44 -10 74 -29 74 -65c0 -67 -72 -91 -150 -99l-4 36c58 9 96 25 96 57c0 22 -18 31 -39 37z" />
    <glyph glyph-name="uni0327" unicode="&#x327;" 
d="M-78 -75l54 78h52l-38 -56c24 -9 45 -26 45 -57c0 -65 -72 -95 -150 -103l-4 35c53 9 94 27 94 60c0 22 -14 33 -53 43z" />
    <glyph glyph-name="uni0328" unicode="&#x328;" 
d="M-106 -139c0 58 54 113 96 142h53c-55 -38 -88 -81 -88 -121c0 -23 16 -37 36 -37c14 0 25 4 38 12l16 -38c-23 -14 -53 -25 -76 -25c-44 0 -75 23 -75 67z" />
    <glyph glyph-name="uni032E" unicode="&#x32e;" 
d="M-47 -215c-80 0 -102 64 -94 125h45c-4 -46 12 -79 56 -79c45 0 76 35 91 79h48c-18 -61 -64 -125 -146 -125z" />
    <glyph glyph-name="uni0331" unicode="&#x331;" 
d="M-153 -172l10 53h235l-10 -53h-235z" />
    <glyph glyph-name="pi" unicode="&#x3c0;" horiz-adv-x="540" 
d="M58 0l84 423h-82l10 58l67 4h419l-13 -62h-72l-64 -323c-6 -30 -3 -50 19 -50c9 0 16 2 25 5l5 -56c-18 -8 -33 -11 -55 -11c-67 0 -83 54 -70 114l63 321h-176l-85 -423h-75z" />
    <glyph glyph-name="a.sups" unicode="&#x1d43;" horiz-adv-x="354" 
d="M60 377c0 122 86 219 176 219c31 0 59 -15 74 -47h4l14 39h46l-64 -322h-47l6 48h-4c-31 -34 -71 -56 -111 -56c-57 0 -94 42 -94 119zM173 307c31 0 70 23 100 62l26 133c-17 34 -39 46 -61 46c-60 0 -120 -78 -120 -164c0 -53 23 -77 55 -77z" />
    <glyph glyph-name="b.sups" unicode="&#x1d47;" horiz-adv-x="360" 
d="M101 266h-45l93 469h58l-24 -119l-16 -65h2c31 26 66 45 107 45c57 0 94 -41 94 -118c0 -122 -86 -220 -177 -220c-30 0 -58 15 -74 47h-4zM257 548c-32 0 -68 -18 -99 -52l-28 -144c18 -34 39 -45 61 -45c60 0 120 77 120 163c0 54 -23 78 -54 78z" />
    <glyph glyph-name="d.sups" unicode="&#x1d48;" horiz-adv-x="365" 
d="M314 551l7 64l24 116h57l-92 -465h-47l6 48h-4c-31 -34 -71 -56 -111 -56c-57 0 -94 42 -94 119c0 122 86 219 176 219c31 0 59 -15 74 -45h4zM173 307c31 0 70 23 100 62l26 133c-18 34 -39 46 -61 46c-60 0 -120 -78 -120 -164c0 -53 23 -77 55 -77z" />
    <glyph glyph-name="e.sups" unicode="&#x1d49;" horiz-adv-x="323" 
d="M59 395c0 119 90 201 175 201c79 0 104 -58 104 -118c0 -26 -8 -51 -14 -65h-208c-8 -68 24 -109 84 -109c29 0 52 12 74 26l19 -40c-29 -17 -66 -32 -106 -32c-78 0 -128 50 -128 137zM122 453h163c3 11 3 20 3 29c0 35 -17 68 -61 68c-41 0 -89 -38 -105 -97z" />
    <glyph glyph-name="g.sups" unicode="&#x1d4d;" horiz-adv-x="354" 
d="M328 588h46l-66 -330c-18 -88 -74 -142 -155 -142c-39 0 -83 15 -119 45l26 39c26 -20 60 -37 95 -37c50 0 84 38 98 96l14 55h-4c-33 -26 -68 -43 -109 -43c-57 0 -94 40 -94 112c0 116 85 213 176 213c31 0 59 -15 74 -47h4zM173 319c32 0 70 18 100 49l26 134
c-18 34 -39 46 -61 46c-61 0 -119 -77 -119 -157c0 -49 23 -72 54 -72z" />
    <glyph glyph-name="k.sups" unicode="&#x1d4f;" horiz-adv-x="325" 
d="M56 266l93 469h58l-63 -308h4l158 161h64l-128 -134l79 -188h-57l-62 154l-73 -70l-16 -84h-57z" />
    <glyph glyph-name="m.sups" unicode="&#x1d50;" horiz-adv-x="536" 
d="M56 266l63 322h47l-4 -46h4c33 30 70 54 108 54c51 0 67 -27 74 -60c39 34 77 60 114 60c56 0 77 -30 77 -82c0 -13 -2 -27 -6 -44l-40 -204h-57l39 197c3 15 5 26 5 36c0 31 -13 47 -41 47c-24 0 -58 -20 -91 -57l-44 -223h-57l39 197c3 15 5 24 5 35
c0 32 -13 48 -42 48c-23 0 -57 -20 -91 -57l-45 -223h-57z" />
    <glyph glyph-name="o.sups" unicode="&#x1d52;" horiz-adv-x="348" 
d="M177 258c-71 0 -118 48 -118 130c0 126 90 208 178 208c71 0 119 -48 119 -129c0 -127 -90 -209 -179 -209zM233 549c-63 0 -117 -73 -117 -158c0 -54 23 -85 66 -85c62 0 116 72 116 158c0 53 -23 85 -65 85z" />
    <glyph glyph-name="p.sups" unicode="&#x1d56;" horiz-adv-x="358" 
d="M115 305l-8 -71l-21 -105h-58l91 459h47l-1 -38h4c33 28 66 46 107 46c57 0 94 -41 94 -118c0 -122 -86 -220 -177 -220c-30 0 -58 15 -74 47h-4zM257 548c-32 0 -68 -18 -99 -52l-28 -144c18 -34 38 -46 60 -46c60 0 121 78 121 164c0 54 -23 78 -54 78z" />
    <glyph glyph-name="t.sups" unicode="&#x1d57;" horiz-adv-x="222" 
d="M84 372l35 169h-48l9 44l50 3l24 89h48l-18 -89h86l-9 -47h-86l-34 -170c-1 -9 -3 -19 -3 -25c0 -27 13 -41 37 -41c16 0 25 5 34 8l10 -43c-16 -6 -41 -12 -59 -12c-60 0 -80 35 -80 78c0 12 2 23 4 36z" />
    <glyph glyph-name="u.sups" unicode="&#x1d58;" horiz-adv-x="355" 
d="M370 588l-64 -322h-47l4 47h-4c-35 -31 -71 -55 -112 -55c-55 0 -76 31 -76 82c0 16 2 27 6 44l40 204h58l-40 -196c-3 -16 -5 -26 -5 -36c0 -32 14 -48 41 -48c29 0 58 18 97 58l44 222h58z" />
    <glyph glyph-name="v.sups" unicode="&#x1d5b;" horiz-adv-x="307" 
d="M122 266l-48 322h57l21 -180l11 -97h3l49 97l92 180h58l-174 -322h-69z" />
    <glyph glyph-name="c.sups" unicode="&#x1d9c;" horiz-adv-x="292" 
d="M59 387c0 103 75 209 182 209c38 0 67 -16 88 -39l-35 -36c-16 19 -32 28 -57 28c-69 0 -120 -85 -120 -155c0 -59 35 -88 77 -88c26 0 48 12 67 23l20 -38c-21 -16 -56 -33 -98 -33c-71 0 -124 49 -124 129z" />
    <glyph glyph-name="f.sups" unicode="&#x1da0;" horiz-adv-x="194" 
d="M306 730l-20 -42c-9 5 -22 11 -37 11c-27 0 -47 -22 -54 -59l-10 -52h67l-9 -47h-68l-55 -275h-58l55 275h-42l8 44l44 3l10 50c13 66 50 108 109 108c21 0 40 -5 60 -16z" />
    <glyph glyph-name="z.sups" unicode="&#x1dbb;" horiz-adv-x="279" 
d="M24 266l6 33l207 242h-141l8 47h217l-6 -33l-208 -242h164l-9 -47h-238z" />
    <glyph glyph-name="uni1E06" unicode="&#x1e06;" horiz-adv-x="583" 
d="M35 0l131 656h175c126 0 203 -50 203 -145c0 -89 -74 -148 -146 -164l-1 -4c68 -16 121 -58 121 -133c0 -146 -117 -210 -273 -210h-210zM187 374h94c125 0 184 52 184 126c0 60 -44 95 -143 95h-91zM124 61h114c125 0 204 43 204 145c0 66 -53 111 -150 111h-116z
M105 -164l10 53h235l-10 -53h-235z" />
    <glyph glyph-name="uni1E07" unicode="&#x1e07;" horiz-adv-x="536" 
d="M94 0h-63l142 712h77l-39 -190l-22 -96h2c48 39 105 72 165 72c85 0 140 -62 140 -176c0 -187 -128 -334 -262 -334c-52 0 -94 29 -117 73h-3zM328 434c-45 0 -104 -30 -150 -79l-46 -231c27 -51 61 -72 99 -72c97 0 186 124 186 259c0 82 -34 123 -89 123zM86 -164
l10 53h234l-9 -53h-235z" />
    <glyph glyph-name="uni1E0C" unicode="&#x1e0c;" horiz-adv-x="592" 
d="M35 0l131 656h122c182 0 278 -95 278 -256c0 -238 -133 -400 -355 -400h-176zM125 64h86c170 0 276 136 276 331c0 124 -70 198 -202 198h-54zM230 -205c-26 0 -49 16 -49 45c0 33 27 58 58 58c26 0 49 -17 49 -46c0 -33 -27 -57 -58 -57z" />
    <glyph glyph-name="uni1E0D" unicode="&#x1e0d;" horiz-adv-x="535" 
d="M420 427l16 95l38 190h77l-144 -712h-63l8 72h-4c-47 -50 -108 -84 -169 -84c-85 0 -140 62 -140 176c0 187 128 334 263 334c52 0 91 -28 115 -71h3zM207 52c51 0 104 30 153 93l44 217c-28 51 -62 72 -99 72c-97 0 -187 -124 -187 -258c0 -84 35 -124 89 -124z
M197 -205c-25 0 -48 16 -48 45c0 33 26 58 58 58c25 0 48 -17 48 -46c0 -33 -27 -57 -58 -57z" />
    <glyph glyph-name="uni1E0E" unicode="&#x1e0e;" horiz-adv-x="592" 
d="M35 0l131 656h122c182 0 278 -95 278 -256c0 -238 -133 -400 -355 -400h-176zM125 64h86c170 0 276 136 276 331c0 124 -70 198 -202 198h-54zM115 -164l10 53h235l-10 -53h-235z" />
    <glyph glyph-name="uni1E0F" unicode="&#x1e0f;" horiz-adv-x="535" 
d="M420 427l16 95l38 190h77l-144 -712h-63l8 72h-4c-47 -50 -108 -84 -169 -84c-85 0 -140 62 -140 176c0 187 128 334 263 334c52 0 91 -28 115 -71h3zM207 52c51 0 104 30 153 93l44 217c-28 51 -62 72 -99 72c-97 0 -187 -124 -187 -258c0 -84 35 -124 89 -124zM82 -164
l10 53h235l-10 -53h-235z" />
    <glyph glyph-name="uni1E16" unicode="&#x1e16;" horiz-adv-x="503" 
d="M35 0l131 656h362l-13 -65h-285l-42 -213h241l-14 -66h-239l-51 -246h294l-14 -66h-370zM336 837l106 109h85l-127 -109h-64zM244 729l12 54h235l-11 -54h-236z" />
    <glyph glyph-name="uni1E17" unicode="&#x1e17;" horiz-adv-x="481" 
d="M37 191c0 183 133 307 260 307c109 0 150 -76 150 -176c0 -39 -11 -77 -17 -95h-316c-18 -125 47 -178 132 -178c38 0 78 19 109 42l30 -51c-39 -28 -94 -52 -157 -52c-115 0 -191 73 -191 203zM122 279h255c3 16 5 31 5 50c0 55 -24 108 -94 108
c-71 0 -141 -62 -166 -158zM293 719l94 100h75l-112 -100h-57zM201 601l10 54h235l-10 -54h-235z" />
    <glyph glyph-name="uni1E20" unicode="&#x1e20;" horiz-adv-x="588" 
d="M57 253c0 208 134 415 349 415c78 0 132 -41 165 -97l-55 -41c-25 42 -61 71 -114 71c-165 0 -265 -182 -265 -341c0 -117 48 -206 174 -206c48 0 86 18 112 40l37 181h-136l13 64h206l-57 -284c-48 -40 -111 -67 -186 -67c-158 0 -243 105 -243 265zM293 729l11 54h236
l-11 -54h-236z" />
    <glyph glyph-name="uni1E21" unicode="&#x1e21;" horiz-adv-x="531" 
d="M435 486h63l-102 -509c-26 -129 -106 -201 -228 -201c-65 0 -123 28 -170 67l36 53c37 -32 83 -58 137 -58c83 0 132 57 153 145l24 100h-3c-48 -46 -103 -78 -165 -78c-82 0 -141 58 -141 171c0 178 126 322 257 322c51 0 94 -29 117 -73h3zM205 69c46 0 104 29 150 85
l43 208c-30 51 -62 72 -99 72c-94 0 -181 -120 -181 -247c0 -79 33 -118 87 -118zM209 601l10 54h235l-10 -54h-235z" />
    <glyph glyph-name="uni1E24" unicode="&#x1e24;" horiz-adv-x="622" 
d="M35 0l131 656h78l-56 -277h296l56 277h77l-131 -656h-78l63 312h-296l-62 -312h-78zM243 -205c-26 0 -49 16 -49 45c0 33 27 58 58 58c26 0 49 -17 49 -46c0 -33 -27 -57 -58 -57z" />
    <glyph glyph-name="uni1E25" unicode="&#x1e25;" horiz-adv-x="519" 
d="M31 0l142 712h77l-48 -235l-16 -61h4c55 47 108 82 167 82c82 0 115 -46 115 -121c0 -23 -2 -40 -8 -67l-62 -310h-76l60 300c5 26 8 40 8 57c0 49 -22 75 -72 75c-38 0 -85 -27 -146 -88l-69 -344h-76zM194 -205c-25 0 -48 16 -48 45c0 33 27 58 58 58
c25 0 48 -17 48 -46c0 -33 -26 -57 -58 -57z" />
    <glyph glyph-name="uni1E2A" unicode="&#x1e2a;" horiz-adv-x="622" 
d="M35 0l131 656h78l-56 -277h296l56 277h77l-131 -656h-78l63 312h-296l-62 -312h-78zM234 -207c-80 0 -102 64 -94 125h45c-4 -46 12 -79 56 -79s76 35 91 79h47c-18 -61 -63 -125 -145 -125z" />
    <glyph glyph-name="uni1E2B" unicode="&#x1e2b;" horiz-adv-x="519" 
d="M31 0l142 712h77l-48 -235l-16 -61h4c55 47 108 82 167 82c82 0 115 -46 115 -121c0 -23 -2 -40 -8 -67l-62 -310h-76l60 300c5 26 8 40 8 57c0 49 -22 75 -72 75c-38 0 -85 -27 -146 -88l-69 -344h-76zM186 -207c-81 0 -103 64 -94 125h45c-4 -46 12 -79 56 -79
s76 35 91 79h47c-18 -61 -63 -125 -145 -125z" />
    <glyph glyph-name="uni1E34" unicode="&#x1e34;" horiz-adv-x="559" 
d="M35 0l131 656h78l-65 -324h3l329 324h88l-246 -252l149 -404h-81l-126 354l-137 -134l-45 -220h-78zM128 -164l10 53h235l-10 -53h-235z" />
    <glyph glyph-name="uni1E35" unicode="&#x1e35;" horiz-adv-x="476" 
d="M31 0l142 712h77l-96 -483h2l249 257h88l-194 -203l117 -283h-78l-93 237l-112 -114l-26 -123h-76zM75 -164l10 53h235l-10 -53h-235z" />
    <glyph glyph-name="uni1E36" unicode="&#x1e36;" horiz-adv-x="462" 
d="M35 0l131 656h78l-118 -590h276l-13 -66h-354zM194 -205c-26 0 -49 16 -49 45c0 33 27 58 58 58c26 0 49 -17 49 -46c0 -33 -27 -57 -58 -57z" />
    <glyph glyph-name="uni1E37" unicode="&#x1e37;" horiz-adv-x="248" 
d="M50 93l123 619h77l-125 -623c-2 -10 -2 -15 -2 -19c0 -12 7 -18 17 -18c4 0 7 0 16 3l1 -59c-13 -5 -27 -8 -48 -8c-43 0 -65 23 -65 63c0 11 2 25 6 42zM39 -205c-26 0 -49 16 -49 45c0 33 27 58 58 58c26 0 49 -17 49 -46c0 -33 -27 -57 -58 -57z" />
    <glyph glyph-name="uni1E38" unicode="&#x1e38;" horiz-adv-x="462" 
d="M35 0l131 656h78l-118 -590h276l-13 -66h-354zM99 729l11 54h236l-11 -54h-236zM194 -205c-26 0 -49 16 -49 45c0 33 27 58 58 58c26 0 49 -17 49 -46c0 -33 -27 -57 -58 -57z" />
    <glyph glyph-name="uni1E39" unicode="&#x1e39;" horiz-adv-x="248" 
d="M50 93l123 619h77l-125 -623c-2 -10 -2 -15 -2 -19c0 -12 7 -18 17 -18c4 0 7 0 16 3l1 -59c-13 -5 -27 -8 -48 -8c-43 0 -65 23 -65 63c0 11 2 25 6 42zM112 822l9 53h235l-10 -53h-234zM39 -205c-26 0 -49 16 -49 45c0 33 27 58 58 58c26 0 49 -17 49 -46
c0 -33 -27 -57 -58 -57z" />
    <glyph glyph-name="uni1E3A" unicode="&#x1e3a;" horiz-adv-x="462" 
d="M35 0l131 656h78l-118 -590h276l-13 -66h-354zM79 -164l10 53h235l-10 -53h-235z" />
    <glyph glyph-name="uni1E3B" unicode="&#x1e3b;" horiz-adv-x="248" 
d="M50 93l123 619h77l-125 -623c-2 -10 -2 -15 -2 -19c0 -12 7 -18 17 -18c4 0 7 0 16 3l1 -59c-13 -5 -27 -8 -48 -8c-43 0 -65 23 -65 63c0 11 2 25 6 42zM-76 -164l10 53h235l-10 -53h-235z" />
    <glyph glyph-name="uni1E42" unicode="&#x1e42;" horiz-adv-x="705" 
d="M35 0l131 656h93l57 -354l22 -136h4l70 136l195 354h93l-131 -656h-75l76 370c12 59 31 136 47 193h-4l-79 -146l-193 -348h-44l-61 348l-22 146h-4c-8 -59 -17 -134 -28 -193l-74 -370h-73zM279 -213c-26 0 -49 16 -49 45c0 33 27 58 59 58c25 0 48 -17 48 -46
c0 -33 -27 -57 -58 -57z" />
    <glyph glyph-name="uni1E43" unicode="&#x1e43;" horiz-adv-x="799" 
d="M31 0l96 486h63l-7 -73h4c51 48 109 85 160 85c77 0 105 -42 112 -95c62 59 122 95 172 95c81 0 115 -46 115 -121c0 -23 -3 -40 -8 -67l-62 -310h-77l61 300c5 26 8 40 8 57c0 49 -23 75 -71 75c-28 0 -79 -27 -137 -88l-69 -344h-76l60 300c5 26 8 40 8 57
c0 49 -22 75 -70 75c-29 0 -80 -27 -137 -88l-69 -344h-76zM329 -205c-25 0 -48 16 -48 45c0 33 27 58 58 58c25 0 48 -17 48 -46c0 -33 -26 -57 -58 -57z" />
    <glyph glyph-name="uni1E44" unicode="&#x1e44;" horiz-adv-x="619" 
d="M35 0l131 656h78l150 -420l42 -137h4c8 65 16 141 30 209l69 348h75l-131 -656h-77l-148 419l-43 141h-4c-8 -68 -18 -141 -31 -207l-70 -353h-75zM403 716c-25 0 -48 16 -48 45c0 32 26 58 58 58c25 0 48 -17 48 -46c0 -33 -27 -57 -58 -57z" />
    <glyph glyph-name="uni1E45" unicode="&#x1e45;" horiz-adv-x="525" 
d="M31 0l96 486h63l-7 -73h4c55 48 109 85 170 85c82 0 115 -46 115 -121c0 -23 -2 -40 -8 -67l-62 -310h-76l60 300c5 26 8 40 8 57c0 49 -22 75 -72 75c-38 0 -85 -27 -146 -88l-69 -344h-76zM349 587c-25 0 -48 16 -48 45c0 33 26 58 58 58c25 0 48 -17 48 -46
c0 -33 -27 -57 -58 -57z" />
    <glyph glyph-name="uni1E46" unicode="&#x1e46;" horiz-adv-x="619" 
d="M35 0l131 656h78l150 -420l42 -137h4c8 65 16 141 30 209l69 348h75l-131 -656h-77l-148 419l-43 141h-4c-8 -68 -18 -141 -31 -207l-70 -353h-75zM243 -213c-26 0 -49 16 -49 45c0 33 27 58 58 58c26 0 49 -17 49 -46c0 -33 -27 -57 -58 -57z" />
    <glyph glyph-name="uni1E47" unicode="&#x1e47;" horiz-adv-x="525" 
d="M31 0l96 486h63l-7 -73h4c55 48 109 85 170 85c82 0 115 -46 115 -121c0 -23 -2 -40 -8 -67l-62 -310h-76l60 300c5 26 8 40 8 57c0 49 -22 75 -72 75c-38 0 -85 -27 -146 -88l-69 -344h-76zM195 -205c-26 0 -49 16 -49 45c0 33 27 58 58 58c26 0 49 -17 49 -46
c0 -33 -27 -57 -58 -57z" />
    <glyph glyph-name="uni1E48" unicode="&#x1e48;" horiz-adv-x="619" 
d="M35 0l131 656h78l150 -420l42 -137h4c8 65 16 141 30 209l69 348h75l-131 -656h-77l-148 419l-43 141h-4c-8 -68 -18 -141 -31 -207l-70 -353h-75zM128 -172l10 53h235l-10 -53h-235z" />
    <glyph glyph-name="uni1E49" unicode="&#x1e49;" horiz-adv-x="525" 
d="M31 0l96 486h63l-7 -73h4c55 48 109 85 170 85c82 0 115 -46 115 -121c0 -23 -2 -40 -8 -67l-62 -310h-76l60 300c5 26 8 40 8 57c0 49 -22 75 -72 75c-38 0 -85 -27 -146 -88l-69 -344h-76zM80 -164l10 53h235l-10 -53h-235z" />
    <glyph glyph-name="uni1E52" unicode="&#x1e52;" horiz-adv-x="633" 
d="M287 -12c-147 0 -227 109 -227 275c0 200 131 405 319 405c147 0 227 -109 227 -274c0 -201 -131 -406 -319 -406zM375 601c-141 0 -236 -178 -236 -332c0 -128 47 -214 152 -214c141 0 236 179 236 332c0 129 -48 214 -152 214zM384 837l106 109h84l-126 -109h-64z
M292 729l11 54h236l-11 -54h-236z" />
    <glyph glyph-name="uni1E53" unicode="&#x1e53;" horiz-adv-x="515" 
d="M212 -12c-105 0 -173 74 -173 195c0 184 129 315 262 315c105 0 174 -74 174 -195c0 -184 -130 -315 -263 -315zM293 435c-89 0 -177 -111 -177 -247c0 -88 37 -136 104 -136c90 0 177 110 177 246c0 88 -37 137 -104 137zM311 719l94 100h76l-113 -100h-57zM219 601
l10 54h235l-10 -54h-235z" />
    <glyph glyph-name="uni1E5A" unicode="&#x1e5a;" horiz-adv-x="555" 
d="M236 -110c26 0 49 -17 49 -46c0 -33 -27 -57 -58 -57c-26 0 -49 16 -49 45c0 33 27 58 58 58zM181 341h99c125 0 194 59 194 152c0 72 -51 101 -147 101h-96zM166 656h180c122 0 205 -43 205 -153c0 -121 -82 -196 -193 -218l115 -285h-83l-108 278h-114l-55 -278h-78z
" />
    <glyph glyph-name="uni1E5B" unicode="&#x1e5b;" horiz-adv-x="342" 
d="M31 0l96 486h63l-11 -93h4c39 59 91 105 151 105c18 0 32 -3 46 -9l-27 -68c-10 5 -24 8 -42 8c-48 0 -102 -43 -143 -122l-61 -307h-76zM42 -205c-25 0 -49 16 -49 45c0 33 27 58 59 58c25 0 48 -17 48 -46c0 -33 -27 -57 -58 -57z" />
    <glyph glyph-name="uni1E5C" unicode="&#x1e5c;" horiz-adv-x="555" 
d="M496 783l-11 -54h-236l11 54h236zM236 -110c26 0 49 -17 49 -46c0 -33 -27 -57 -58 -57c-26 0 -49 16 -49 45c0 33 27 58 58 58zM181 341h99c125 0 194 59 194 152c0 72 -51 101 -147 101h-96zM166 656h180c122 0 205 -43 205 -153c0 -121 -82 -196 -193 -218l115 -285
h-83l-108 278h-114l-55 -278h-78z" />
    <glyph glyph-name="uni1E5D" unicode="&#x1e5d;" horiz-adv-x="342" 
d="M31 0l96 486h63l-11 -93h4c39 59 91 105 151 105c18 0 32 -3 46 -9l-27 -68c-10 5 -24 8 -42 8c-48 0 -102 -43 -143 -122l-61 -307h-76zM149 601l10 54h235l-10 -54h-235zM42 -205c-25 0 -49 16 -49 45c0 33 27 58 59 58c25 0 48 -17 48 -46c0 -33 -27 -57 -58 -57z" />
    <glyph glyph-name="uni1E5E" unicode="&#x1e5e;" horiz-adv-x="555" 
d="M112 -172l10 53h235l-10 -53h-235zM181 341h99c125 0 194 59 194 152c0 72 -51 101 -147 101h-96zM166 656h180c122 0 205 -43 205 -153c0 -121 -82 -196 -193 -218l115 -285h-83l-108 278h-114l-55 -278h-78z" />
    <glyph glyph-name="uni1E5F" unicode="&#x1e5f;" horiz-adv-x="342" 
d="M31 0l96 486h63l-11 -93h4c39 59 91 105 151 105c18 0 32 -3 46 -9l-27 -68c-10 5 -24 8 -42 8c-48 0 -102 -43 -143 -122l-61 -307h-76zM-73 -164l10 53h235l-10 -53h-235z" />
    <glyph glyph-name="uni1E60" unicode="&#x1e60;" horiz-adv-x="506" 
d="M12 104l57 43c39 -58 96 -93 169 -93c80 0 141 49 141 124c0 48 -33 78 -82 108l-76 46c-56 34 -101 80 -101 154c0 99 86 182 204 182c78 0 145 -39 186 -92l-51 -46c-34 40 -80 71 -141 71c-74 0 -119 -53 -119 -106c0 -51 37 -78 85 -107l76 -45
c63 -37 99 -81 99 -154c0 -117 -95 -201 -228 -201c-90 0 -166 38 -219 116zM354 717c-26 0 -49 17 -49 45c0 33 27 59 58 59c26 0 49 -17 49 -46c0 -34 -27 -58 -58 -58z" />
    <glyph glyph-name="uni1E61" unicode="&#x1e61;" horiz-adv-x="402" 
d="M-4 80l48 38c30 -42 74 -71 125 -71c56 0 103 37 103 81c0 35 -21 55 -89 92c-75 41 -111 78 -111 133c0 86 76 145 167 145c59 0 107 -27 143 -65l-44 -43c-26 27 -57 48 -101 48c-52 0 -92 -35 -92 -76s42 -62 86 -86c87 -48 114 -85 114 -138
c0 -91 -77 -150 -182 -150c-65 0 -134 41 -167 92zM274 587c-26 0 -49 16 -49 45c0 33 27 58 58 58c26 0 49 -17 49 -46c0 -33 -27 -57 -58 -57z" />
    <glyph glyph-name="uni1E62" unicode="&#x1e62;" horiz-adv-x="506" 
d="M12 104l57 43c39 -58 96 -93 169 -93c80 0 141 49 141 124c0 48 -33 78 -82 108l-76 46c-56 34 -101 80 -101 154c0 99 86 182 204 182c78 0 145 -39 186 -92l-51 -46c-34 40 -80 71 -141 71c-74 0 -119 -53 -119 -106c0 -51 37 -78 85 -107l76 -45
c63 -37 99 -81 99 -154c0 -117 -95 -201 -228 -201c-90 0 -166 38 -219 116zM192 -213c-26 0 -49 16 -49 45c0 33 27 58 58 58c26 0 49 -17 49 -46c0 -33 -27 -57 -58 -57z" />
    <glyph glyph-name="uni1E63" unicode="&#x1e63;" horiz-adv-x="402" 
d="M-4 80l48 38c30 -42 74 -71 125 -71c56 0 103 37 103 81c0 35 -21 55 -89 92c-75 41 -111 78 -111 133c0 86 76 145 167 145c59 0 107 -27 143 -65l-44 -43c-26 27 -57 48 -101 48c-52 0 -92 -35 -92 -76s42 -62 86 -86c87 -48 114 -85 114 -138
c0 -91 -77 -150 -182 -150c-65 0 -134 41 -167 92zM140 -205c-25 0 -48 16 -48 45c0 33 27 58 58 58c25 0 48 -17 48 -46c0 -33 -26 -57 -58 -57z" />
    <glyph glyph-name="uni1E6C" unicode="&#x1e6c;" horiz-adv-x="510" 
d="M166 0l117 589h-190l13 67h459l-13 -67h-191l-117 -589h-78zM175 -205c-25 0 -48 16 -48 45c0 33 26 58 58 58c25 0 48 -17 48 -46c0 -33 -27 -57 -58 -57z" />
    <glyph glyph-name="uni1E6D" unicode="&#x1e6d;" horiz-adv-x="325" 
d="M74 150l57 274h-71l11 57l76 5l36 134h65l-27 -134h123l-12 -62h-125l-57 -278c-2 -12 -3 -23 -3 -36c0 -40 16 -60 62 -60c19 0 36 8 51 15l17 -55c-22 -10 -54 -22 -92 -22c-85 0 -116 48 -116 108c0 20 3 36 5 54zM129 -205c-26 0 -49 16 -49 45c0 33 27 58 58 58
c26 0 49 -17 49 -46c0 -33 -27 -57 -58 -57z" />
    <glyph glyph-name="uni1E6E" unicode="&#x1e6e;" horiz-adv-x="510" 
d="M166 0l117 589h-190l13 67h459l-13 -67h-191l-117 -589h-78zM60 -164l10 53h235l-10 -53h-235z" />
    <glyph glyph-name="uni1E6F" unicode="&#x1e6f;" horiz-adv-x="325" 
d="M74 150l57 274h-71l11 57l76 5l36 134h65l-27 -134h123l-12 -62h-125l-57 -278c-2 -12 -3 -23 -3 -36c0 -40 16 -60 62 -60c19 0 36 8 51 15l17 -55c-22 -10 -54 -22 -92 -22c-85 0 -116 48 -116 108c0 20 3 36 5 54zM14 -164l10 53h235l-10 -53h-235z" />
    <glyph glyph-name="Wgrave" unicode="&#x1e80;" horiz-adv-x="756" 
d="M95 0l9 656h80l-10 -361c-4 -70 -5 -142 -10 -213h4c31 71 64 143 93 213l164 361h71l9 -361c1 -69 1 -141 1 -213h4c27 72 56 143 83 213l142 361h77l-270 -656h-99l-7 401c0 48 1 102 3 154h-4c-19 -52 -42 -102 -64 -154l-179 -401h-97zM445 706l-89 110h81l68 -110
h-60z" />
    <glyph glyph-name="wgrave" unicode="&#x1e81;" horiz-adv-x="707" 
d="M105 0l-35 486h76l16 -286c1 -46 2 -91 3 -136h4c20 45 37 90 58 136l128 286h75l17 -286c2 -46 3 -91 5 -136h4c19 45 35 90 56 136l127 286h72l-221 -486h-95l-14 266c-1 46 -2 95 -3 143h-4c-20 -48 -39 -97 -59 -143l-118 -266h-92zM418 571l-78 141h75l59 -141h-56z
" />
    <glyph glyph-name="Wacute" unicode="&#x1e82;" horiz-adv-x="756" 
d="M95 0l9 656h80l-10 -361c-4 -70 -5 -142 -10 -213h4c31 71 64 143 93 213l164 361h71l9 -361c1 -69 1 -141 1 -213h4c27 72 56 143 83 213l142 361h77l-270 -656h-99l-7 401c0 48 1 102 3 154h-4c-19 -52 -42 -102 -64 -154l-179 -401h-97zM409 706l106 110h87l-128 -110
h-65z" />
    <glyph glyph-name="wacute" unicode="&#x1e83;" horiz-adv-x="707" 
d="M105 0l-35 486h76l16 -286c1 -46 2 -91 3 -136h4c20 45 37 90 58 136l128 286h75l17 -286c2 -46 3 -91 5 -136h4c19 45 35 90 56 136l127 286h72l-221 -486h-95l-14 266c-1 46 -2 95 -3 143h-4c-20 -48 -39 -97 -59 -143l-118 -266h-92zM349 571l116 141h82l-136 -141
h-62z" />
    <glyph glyph-name="Wdieresis" unicode="&#x1e84;" horiz-adv-x="756" 
d="M95 0l9 656h80l-10 -361c-4 -70 -5 -142 -10 -213h4c31 71 64 143 93 213l164 361h71l9 -361c1 -69 1 -141 1 -213h4c27 72 56 143 83 213l142 361h77l-270 -656h-99l-7 401c0 48 1 102 3 154h-4c-19 -52 -42 -102 -64 -154l-179 -401h-97zM382 715c-24 0 -40 15 -40 40
c0 29 22 55 50 55c23 0 40 -15 40 -41c0 -28 -23 -54 -50 -54zM548 715c-24 0 -40 15 -40 40c0 29 22 55 50 55c23 0 40 -15 40 -41c0 -28 -23 -54 -50 -54z" />
    <glyph glyph-name="wdieresis" unicode="&#x1e85;" horiz-adv-x="707" 
d="M105 0l-35 486h76l16 -286c1 -46 2 -91 3 -136h4c20 45 37 90 58 136l128 286h75l17 -286c2 -46 3 -91 5 -136h4c19 45 35 90 56 136l127 286h72l-221 -486h-95l-14 266c-1 46 -2 95 -3 143h-4c-20 -48 -39 -97 -59 -143l-118 -266h-92zM339 589c-23 0 -40 15 -40 40
c0 30 23 55 51 55c24 0 41 -16 41 -42c0 -30 -24 -53 -52 -53zM505 589c-23 0 -40 15 -40 40c0 30 23 55 51 55c23 0 40 -16 40 -42c0 -30 -23 -53 -51 -53z" />
    <glyph glyph-name="uni1E8E" unicode="&#x1e8e;" horiz-adv-x="461" 
d="M139 0l51 256l-107 400h80l45 -189c12 -48 21 -92 33 -142h4c30 49 58 95 90 143l124 188h83l-274 -400l-52 -256h-77zM315 716c-26 0 -49 16 -49 45c0 32 27 58 58 58c26 0 49 -17 49 -46c0 -33 -27 -57 -58 -57z" />
    <glyph glyph-name="uni1E8F" unicode="&#x1e8f;" horiz-adv-x="448" 
d="M-37 -138c12 -6 23 -9 36 -9c49 0 94 44 127 111l18 35l-83 487h76l38 -273c7 -44 12 -99 16 -145h4c23 46 48 99 72 145l140 273h76l-286 -527c-51 -95 -110 -168 -203 -168c-14 0 -37 4 -56 14zM282 587c-25 0 -48 16 -48 45c0 33 27 58 58 58c25 0 48 -17 48 -46
c0 -33 -26 -57 -58 -57z" />
    <glyph glyph-name="uni1E92" unicode="&#x1e92;" horiz-adv-x="512" 
d="M-1 0l10 47l425 544h-300l14 65h393l-10 -46l-422 -544h331l-15 -66h-426zM178 -213c-25 0 -48 16 -48 45c0 33 26 58 58 58c25 0 48 -17 48 -46c0 -33 -27 -57 -58 -57z" />
    <glyph glyph-name="uni1E93" unicode="&#x1e93;" horiz-adv-x="410" 
d="M-10 0l8 44l323 380h-221l13 62h317l-8 -45l-323 -379h254l-12 -62h-351zM141 -205c-25 0 -48 16 -48 45c0 33 27 58 58 58c25 0 48 -17 48 -46c0 -33 -26 -57 -58 -57z" />
    <glyph glyph-name="uni1E97" unicode="&#x1e97;" horiz-adv-x="325" 
d="M74 150l57 274h-71l11 57l76 5l36 134h65l-27 -134h123l-12 -62h-125l-57 -278c-2 -12 -3 -23 -3 -36c0 -40 16 -60 62 -60c19 0 36 8 51 15l17 -55c-22 -10 -54 -22 -92 -22c-85 0 -116 48 -116 108c0 20 3 36 5 54zM147 724c-23 0 -40 15 -40 41c0 30 23 54 51 54
c24 0 40 -15 40 -42c0 -29 -23 -53 -51 -53zM313 724c-23 0 -40 15 -40 41c0 30 23 54 51 54c23 0 40 -15 40 -42c0 -29 -23 -53 -51 -53z" />
    <glyph glyph-name="uni1E9E" unicode="&#x1e9e;" horiz-adv-x="633" 
d="M35 0l87 436c27 136 113 236 262 236c110 0 186 -49 209 -171l-165 -143c104 -34 160 -100 160 -173c0 -111 -80 -197 -197 -197c-73 0 -136 31 -177 87l48 47c29 -43 67 -70 126 -70c67 0 121 57 121 126c0 52 -42 108 -165 140l6 49l165 146c-21 65 -68 95 -136 95
c-89 0 -159 -64 -185 -194l-81 -414h-78z" />
    <glyph glyph-name="uni1EA0" unicode="&#x1ea0;" horiz-adv-x="510" 
d="M200 -102c26 0 49 -17 49 -46c0 -33 -27 -57 -58 -57c-26 0 -49 16 -49 45c0 33 27 58 58 58zM169 265h195l-10 112c-6 69 -13 139 -18 214h-4c-35 -76 -68 -142 -105 -214zM469 0h-81l-18 205h-232l-105 -205h-86l356 656h90z" />
    <glyph glyph-name="uni1EA1" unicode="&#x1ea1;" horiz-adv-x="537" 
d="M39 164c0 187 128 334 263 334c52 0 94 -29 117 -73h4l19 61h62l-97 -486h-63l8 72h-4c-47 -50 -108 -84 -169 -84c-85 0 -140 62 -140 176zM207 52c51 0 105 30 153 93l44 217c-28 51 -62 72 -99 72c-97 0 -187 -124 -187 -258c0 -84 35 -124 89 -124zM201 -205
c-25 0 -48 16 -48 45c0 33 27 58 58 58c25 0 48 -17 48 -46c0 -33 -26 -57 -58 -57z" />
    <glyph glyph-name="uni1EA2" unicode="&#x1ea2;" horiz-adv-x="510" 
d="M306 697l-7 35c44 13 69 27 69 54c0 23 -15 35 -72 40l15 43c85 -4 118 -32 118 -69c0 -60 -54 -89 -123 -103zM169 265h195l-10 112c-6 69 -13 139 -18 214h-4c-35 -76 -68 -142 -105 -214zM388 0l-18 205h-232l-105 -205h-86l356 656h90l76 -656h-81z" />
    <glyph glyph-name="uni1EA3" unicode="&#x1ea3;" horiz-adv-x="537" 
d="M39 164c0 187 128 334 263 334c52 0 94 -29 117 -73h4l19 61h62l-97 -486h-63l8 72h-4c-47 -50 -108 -84 -169 -84c-85 0 -140 62 -140 176zM207 52c51 0 105 30 153 93l44 217c-28 51 -62 72 -99 72c-97 0 -187 -124 -187 -258c0 -84 35 -124 89 -124zM297 682l14 42
c86 -3 118 -31 118 -68c0 -61 -53 -89 -122 -104l-7 36c44 13 69 27 69 54c0 23 -16 35 -72 40z" />
    <glyph glyph-name="uni1EA4" unicode="&#x1ea4;" horiz-adv-x="510" 
d="M169 265h195l-10 112c-6 69 -13 139 -18 214h-4c-35 -76 -68 -142 -105 -214zM303 656h90l76 -656h-81l-18 205h-232l-105 -205h-86zM334 810h66l69 -104h-57l-49 64h-4l-74 -64h-60zM535 879h64l-99 -111h-49z" />
    <glyph glyph-name="uni1EA5" unicode="&#x1ea5;" horiz-adv-x="537" 
d="M39 164c0 187 128 334 263 334c52 0 94 -29 117 -73h4l19 61h62l-97 -486h-63l8 72h-4c-47 -50 -108 -84 -169 -84c-85 0 -140 62 -140 176zM207 52c51 0 105 30 153 93l44 217c-28 51 -62 72 -99 72c-97 0 -187 -124 -187 -258c0 -84 35 -124 89 -124zM215 571l105 119
h58l56 -119h-49l-41 73h-4l-70 -73h-55zM428 638l91 114h66l-107 -114h-50z" />
    <glyph glyph-name="uni1EA6" unicode="&#x1ea6;" horiz-adv-x="510" 
d="M169 265h195l-10 112c-6 69 -13 139 -18 214h-4c-35 -76 -68 -142 -105 -214zM303 656h90l76 -656h-81l-18 205h-232l-105 -205h-86zM334 810h66l69 -104h-57l-49 64h-4l-74 -64h-60zM491 879l46 -111h-47l-62 111h63z" />
    <glyph glyph-name="uni1EA7" unicode="&#x1ea7;" horiz-adv-x="537" 
d="M39 164c0 187 128 334 263 334c52 0 94 -29 117 -73h4l19 61h62l-97 -486h-63l8 72h-4c-47 -50 -108 -84 -169 -84c-85 0 -140 62 -140 176zM207 52c51 0 105 30 153 93l44 217c-28 51 -62 72 -99 72c-97 0 -187 -124 -187 -258c0 -84 35 -124 89 -124zM480 752l48 -114
h-48l-63 114h63zM215 571l105 119h58l56 -119h-49l-41 73h-4l-70 -73h-55z" />
    <glyph glyph-name="uni1EA8" unicode="&#x1ea8;" horiz-adv-x="510" 
d="M169 265h195l-10 112c-6 69 -13 139 -18 214h-4c-35 -76 -68 -142 -105 -214zM303 656h90l76 -656h-81l-18 205h-232l-105 -205h-86zM334 810h66l69 -104h-57l-49 64h-4l-74 -64h-60zM458 867l13 37c74 -1 103 -27 103 -59c0 -54 -41 -80 -105 -92l-6 31
c39 10 57 25 57 50c0 19 -15 30 -62 33z" />
    <glyph glyph-name="uni1EA9" unicode="&#x1ea9;" horiz-adv-x="537" 
d="M39 164c0 187 128 334 263 334c52 0 94 -29 117 -73h4l19 61h62l-97 -486h-63l8 72h-4c-47 -50 -108 -84 -169 -84c-85 0 -140 62 -140 176zM207 52c51 0 105 30 153 93l44 217c-28 51 -62 72 -99 72c-97 0 -187 -124 -187 -258c0 -84 35 -124 89 -124zM438 747l13 38
c73 -4 104 -29 104 -63c0 -57 -44 -81 -107 -95l-5 32c40 11 56 25 56 50c0 22 -15 33 -61 38zM215 571l105 119h58l56 -119h-49l-41 73h-4l-70 -73h-55z" />
    <glyph glyph-name="uni1EAA" unicode="&#x1eaa;" horiz-adv-x="510" 
d="M169 265h195l-10 112c-6 69 -13 139 -18 214h-4c-35 -76 -68 -142 -105 -214zM303 656h90l76 -656h-81l-18 205h-232l-105 -205h-86zM334 810h66l69 -104h-57l-49 64h-4l-74 -64h-60zM481 937h39c-14 -55 -49 -94 -90 -94c-45 0 -63 50 -97 50c-22 0 -37 -18 -47 -49h-40
c14 55 49 94 90 94c45 0 64 -50 98 -50c21 0 36 18 47 49z" />
    <glyph glyph-name="uni1EAB" unicode="&#x1eab;" horiz-adv-x="537" 
d="M39 164c0 187 128 334 263 334c52 0 94 -29 117 -73h4l19 61h62l-97 -486h-63l8 72h-4c-47 -50 -108 -84 -169 -84c-85 0 -140 62 -140 176zM207 52c51 0 105 30 153 93l44 217c-28 51 -62 72 -99 72c-97 0 -187 -124 -187 -258c0 -84 35 -124 89 -124zM380 672l65 -101
h-52l-51 62h-4l-74 -62h-59l106 101h69zM269 709h-40c16 53 51 89 86 89c51 0 61 -45 96 -45c15 0 35 18 44 44h39c-16 -53 -51 -89 -86 -89c-51 0 -61 45 -96 45c-15 0 -34 -18 -43 -44z" />
    <glyph glyph-name="uni1EAC" unicode="&#x1eac;" horiz-adv-x="510" 
d="M359 776l-78 -70h-66l114 109h73l70 -109h-59l-51 70h-3zM200 -102c26 0 49 -17 49 -46c0 -33 -27 -57 -58 -57c-26 0 -49 16 -49 45c0 33 27 58 58 58zM169 265h195l-10 112c-6 69 -13 139 -18 214h-4c-35 -76 -68 -142 -105 -214zM303 656h90l76 -656h-81l-18 205h-232
l-105 -205h-86z" />
    <glyph glyph-name="uni1EAD" unicode="&#x1ead;" horiz-adv-x="537" 
d="M39 164c0 187 128 334 263 334c52 0 94 -29 117 -73h4l19 61h62l-97 -486h-63l8 72h-4c-47 -50 -108 -84 -169 -84c-85 0 -140 62 -140 176zM207 52c51 0 105 30 153 93l44 217c-28 51 -62 72 -99 72c-97 0 -187 -124 -187 -258c0 -84 35 -124 89 -124zM203 571l122 141
h58l66 -141h-53l-47 92h-4l-84 -92h-58zM201 -205c-25 0 -48 16 -48 45c0 33 27 58 58 58c25 0 48 -17 48 -46c0 -33 -26 -57 -58 -57z" />
    <glyph glyph-name="uni1EAE" unicode="&#x1eae;" horiz-adv-x="510" 
d="M483 904l-113 -104h-46l93 104h66zM169 265h195l-10 112c-6 69 -13 139 -18 214h-4c-35 -76 -68 -142 -105 -214zM303 656h90l76 -656h-81l-18 205h-232l-105 -205h-86zM251 813h41c-2 -38 18 -66 60 -66c44 0 75 30 88 66h43c-17 -54 -60 -107 -138 -107
c-73 0 -99 53 -94 107z" />
    <glyph glyph-name="uni1EAF" unicode="&#x1eaf;" horiz-adv-x="537" 
d="M39 164c0 187 128 334 263 334c52 0 94 -29 117 -73h4l19 61h62l-97 -486h-63l8 72h-4c-47 -50 -108 -84 -169 -84c-85 0 -140 62 -140 176zM207 52c51 0 105 30 153 93l44 217c-28 51 -62 72 -99 72c-97 0 -187 -124 -187 -258c0 -84 35 -124 89 -124zM309 675l86 112
h64l-104 -112h-46zM326 575c-80 0 -102 64 -94 125h39c-5 -49 15 -81 62 -81c46 0 81 34 97 81h42c-18 -61 -64 -125 -146 -125z" />
    <glyph glyph-name="uni1EB0" unicode="&#x1eb0;" horiz-adv-x="510" 
d="M401 800h-44l-59 104h61zM440 813h43c-17 -54 -60 -107 -138 -107c-73 0 -99 53 -94 107h41c-2 -38 18 -66 60 -66c44 0 75 30 88 66zM169 265h195l-10 112c-6 69 -13 139 -18 214h-4c-35 -76 -68 -142 -105 -214zM303 656h90l76 -656h-81l-18 205h-232l-105 -205h-86z
" />
    <glyph glyph-name="uni1EB1" unicode="&#x1eb1;" horiz-adv-x="537" 
d="M39 164c0 187 128 334 263 334c52 0 94 -29 117 -73h4l19 61h62l-97 -486h-63l8 72h-4c-47 -50 -108 -84 -169 -84c-85 0 -140 62 -140 176zM207 52c51 0 105 30 153 93l44 217c-28 51 -62 72 -99 72c-97 0 -187 -124 -187 -258c0 -84 35 -124 89 -124zM326 575
c-80 0 -102 64 -94 125h39c-5 -49 15 -81 62 -81c46 0 81 34 97 81h42c-18 -61 -64 -125 -146 -125zM340 787l42 -112h-44l-58 112h60z" />
    <glyph glyph-name="uni1EB2" unicode="&#x1eb2;" horiz-adv-x="510" 
d="M336 797l-5 31c39 10 56 25 56 50c0 19 -15 30 -61 33l12 37c74 -1 103 -27 103 -58c0 -55 -41 -81 -105 -93zM440 813h43c-17 -54 -60 -107 -138 -107c-73 0 -99 53 -94 107h41c-2 -38 18 -66 60 -66c44 0 75 30 88 66zM169 265h195l-10 112c-6 69 -13 139 -18 214h-4
c-35 -76 -68 -142 -105 -214zM303 656h90l76 -656h-81l-18 205h-232l-105 -205h-86z" />
    <glyph glyph-name="uni1EB3" unicode="&#x1eb3;" horiz-adv-x="537" 
d="M39 164c0 187 128 334 263 334c52 0 94 -29 117 -73h4l19 61h62l-97 -486h-63l8 72h-4c-47 -50 -108 -84 -169 -84c-85 0 -140 62 -140 176zM207 52c51 0 105 30 153 93l44 217c-28 51 -62 72 -99 72c-97 0 -187 -124 -187 -258c0 -84 35 -124 89 -124zM315 800l13 38
c71 -3 100 -27 100 -61c0 -56 -42 -79 -102 -94l-5 32c36 12 52 25 52 49c0 22 -13 31 -58 36zM326 575c-80 0 -102 64 -94 125h39c-5 -49 15 -81 62 -81c46 0 81 34 97 81h42c-18 -61 -64 -125 -146 -125z" />
    <glyph glyph-name="uni1EB4" unicode="&#x1eb4;" horiz-adv-x="510" 
d="M481 937h39c-14 -55 -49 -94 -90 -94c-45 0 -63 50 -97 50c-22 0 -37 -18 -47 -49h-40c14 55 49 94 90 94c45 0 64 -50 98 -50c21 0 36 18 47 49zM169 265h195l-10 112c-6 69 -13 139 -18 214h-4c-35 -76 -68 -142 -105 -214zM303 656h90l76 -656h-81l-18 205h-232
l-105 -205h-86zM251 813h41c-2 -38 18 -66 60 -66c44 0 75 30 88 66h43c-17 -54 -60 -107 -138 -107c-73 0 -99 53 -94 107z" />
    <glyph glyph-name="uni1EB5" unicode="&#x1eb5;" horiz-adv-x="537" 
d="M39 164c0 187 128 334 263 334c52 0 94 -29 117 -73h4l19 61h62l-97 -486h-63l8 72h-4c-47 -50 -108 -84 -169 -84c-85 0 -140 62 -140 176zM207 52c51 0 105 30 153 93l44 217c-28 51 -62 72 -99 72c-97 0 -187 -124 -187 -258c0 -84 35 -124 89 -124zM326 575
c-80 0 -102 56 -96 107h39c0 -36 19 -64 64 -64c44 0 80 30 95 64h41c-18 -51 -64 -107 -143 -107zM269 709h-40c16 53 51 89 86 89c51 0 61 -45 96 -45c15 0 35 18 44 44h39c-16 -53 -51 -89 -86 -89c-51 0 -61 45 -96 45c-15 0 -34 -18 -43 -44z" />
    <glyph glyph-name="uni1EB6" unicode="&#x1eb6;" horiz-adv-x="510" 
d="M434 816h47c-18 -56 -60 -110 -137 -110c-73 0 -100 56 -95 110h45c-2 -35 15 -65 58 -65c42 0 70 32 82 65zM200 -102c26 0 49 -17 49 -46c0 -33 -27 -57 -58 -57c-26 0 -49 16 -49 45c0 33 27 58 58 58zM169 265h195l-10 112c-6 69 -13 139 -18 214h-4
c-35 -76 -68 -142 -105 -214zM303 656h90l76 -656h-81l-18 205h-232l-105 -205h-86z" />
    <glyph glyph-name="uni1EB7" unicode="&#x1eb7;" horiz-adv-x="537" 
d="M39 164c0 187 128 334 263 334c52 0 94 -29 117 -73h4l19 61h62l-97 -486h-63l8 72h-4c-47 -50 -108 -84 -169 -84c-85 0 -140 62 -140 176zM207 52c51 0 105 30 153 93l44 217c-28 51 -62 72 -99 72c-97 0 -187 -124 -187 -258c0 -84 35 -124 89 -124zM327 575
c-80 0 -103 64 -94 125h45c-4 -46 12 -79 56 -79s76 35 91 79h47c-18 -61 -63 -125 -145 -125zM201 -205c-25 0 -48 16 -48 45c0 33 27 58 58 58c25 0 48 -17 48 -46c0 -33 -26 -57 -58 -57z" />
    <glyph glyph-name="uni1EB8" unicode="&#x1eb8;" horiz-adv-x="503" 
d="M35 0l131 656h362l-13 -65h-285l-42 -213h241l-14 -66h-239l-51 -246h294l-14 -66h-370zM208 -205c-26 0 -49 16 -49 45c0 33 27 58 58 58c26 0 49 -17 49 -46c0 -33 -27 -57 -58 -57z" />
    <glyph glyph-name="uni1EB9" unicode="&#x1eb9;" horiz-adv-x="481" 
d="M37 191c0 183 133 307 260 307c109 0 150 -76 150 -176c0 -39 -11 -77 -17 -95h-316c-18 -125 47 -178 132 -178c38 0 78 19 109 42l30 -51c-39 -28 -94 -52 -157 -52c-115 0 -191 73 -191 203zM122 279h255c3 16 5 31 5 50c0 55 -24 108 -94 108
c-71 0 -141 -62 -166 -158zM184 -205c-25 0 -48 16 -48 45c0 33 26 58 58 58c25 0 48 -17 48 -46c0 -33 -27 -57 -58 -57z" />
    <glyph glyph-name="uni1EBA" unicode="&#x1eba;" horiz-adv-x="503" 
d="M35 0l131 656h362l-13 -65h-285l-42 -213h241l-14 -66h-239l-51 -246h294l-14 -66h-370zM308 826l15 43c85 -4 117 -32 117 -69c0 -60 -54 -89 -123 -103l-6 35c44 13 69 27 69 54c0 23 -16 35 -72 40z" />
    <glyph glyph-name="uni1EBB" unicode="&#x1ebb;" horiz-adv-x="481" 
d="M37 191c0 183 133 307 260 307c109 0 150 -76 150 -176c0 -39 -11 -77 -17 -95h-316c-18 -125 47 -178 132 -178c38 0 78 19 109 42l30 -51c-39 -28 -94 -52 -157 -52c-115 0 -191 73 -191 203zM122 279h255c3 16 5 31 5 50c0 55 -24 108 -94 108
c-71 0 -141 -62 -166 -158zM286 682l14 42c86 -3 118 -31 118 -68c0 -61 -53 -89 -122 -104l-6 36c43 13 69 27 69 54c0 23 -17 35 -73 40z" />
    <glyph glyph-name="uni1EBC" unicode="&#x1ebc;" horiz-adv-x="503" 
d="M35 0l131 656h362l-13 -65h-285l-42 -213h241l-14 -66h-239l-51 -246h294l-14 -66h-370zM261 711h-44c14 59 54 105 99 105c50 0 65 -55 104 -55c21 0 38 20 49 53h44c-14 -59 -54 -105 -98 -105c-51 0 -65 56 -105 56c-21 0 -37 -21 -49 -54z" />
    <glyph glyph-name="uni1EBD" unicode="&#x1ebd;" horiz-adv-x="481" 
d="M37 191c0 183 133 307 260 307c109 0 150 -76 150 -176c0 -39 -11 -77 -17 -95h-316c-18 -125 47 -178 132 -178c38 0 78 19 109 42l30 -51c-39 -28 -94 -52 -157 -52c-115 0 -191 73 -191 203zM122 279h255c3 16 5 31 5 50c0 55 -24 108 -94 108
c-71 0 -141 -62 -166 -158zM223 580h-44c17 60 52 102 94 102c58 0 66 -53 108 -53c17 0 32 20 45 51h44c-17 -59 -52 -102 -94 -102c-57 0 -66 53 -108 53c-17 0 -32 -20 -45 -51z" />
    <glyph glyph-name="uni1EBE" unicode="&#x1ebe;" horiz-adv-x="503" 
d="M35 0l131 656h362l-13 -65h-285l-42 -213h241l-14 -66h-239l-51 -246h294l-14 -66h-370zM462 768l84 111h65l-100 -111h-49zM237 706l108 104h66l70 -104h-58l-49 64h-4l-73 -64h-60z" />
    <glyph glyph-name="uni1EBF" unicode="&#x1ebf;" horiz-adv-x="481" 
d="M37 191c0 183 133 307 260 307c109 0 150 -76 150 -176c0 -39 -11 -77 -17 -95h-316c-18 -125 47 -178 132 -178c38 0 78 19 109 42l30 -51c-39 -28 -94 -52 -157 -52c-115 0 -191 73 -191 203zM122 279h255c3 16 5 31 5 50c0 55 -24 108 -94 108
c-71 0 -141 -62 -166 -158zM198 571l105 119h58l56 -119h-49l-41 73h-4l-70 -73h-55zM411 638l91 114h66l-107 -114h-50z" />
    <glyph glyph-name="uni1EC0" unicode="&#x1ec0;" horiz-adv-x="503" 
d="M35 0l131 656h362l-13 -65h-285l-42 -213h241l-14 -66h-239l-51 -246h294l-14 -66h-370zM502 879l46 -111h-47l-62 111h63zM237 706l108 104h66l70 -104h-58l-49 64h-4l-73 -64h-60z" />
    <glyph glyph-name="uni1EC1" unicode="&#x1ec1;" horiz-adv-x="481" 
d="M37 191c0 183 133 307 260 307c109 0 150 -76 150 -176c0 -39 -11 -77 -17 -95h-316c-18 -125 47 -178 132 -178c38 0 78 19 109 42l30 -51c-39 -28 -94 -52 -157 -52c-115 0 -191 73 -191 203zM122 279h255c3 16 5 31 5 50c0 55 -24 108 -94 108
c-71 0 -141 -62 -166 -158zM464 752l47 -114h-47l-63 114h63zM198 571l105 119h58l56 -119h-49l-41 73h-4l-70 -73h-55z" />
    <glyph glyph-name="uni1EC2" unicode="&#x1ec2;" horiz-adv-x="503" 
d="M35 0l131 656h362l-13 -65h-285l-42 -213h241l-14 -66h-239l-51 -246h294l-14 -66h-370zM237 706l108 104h66l70 -104h-58l-49 64h-4l-73 -64h-60zM470 867l12 37c74 -1 103 -27 103 -59c0 -54 -41 -80 -105 -92l-5 31c39 10 56 25 56 50c0 19 -15 30 -61 33z" />
    <glyph glyph-name="uni1EC3" unicode="&#x1ec3;" horiz-adv-x="481" 
d="M37 191c0 183 133 307 260 307c109 0 150 -76 150 -176c0 -39 -11 -77 -17 -95h-316c-18 -125 47 -178 132 -178c38 0 78 19 109 42l30 -51c-39 -28 -94 -52 -157 -52c-115 0 -191 73 -191 203zM122 279h255c3 16 5 31 5 50c0 55 -24 108 -94 108
c-71 0 -141 -62 -166 -158zM421 747l13 38c73 -4 104 -29 104 -63c0 -57 -44 -81 -107 -95l-5 32c40 11 56 25 56 50c0 22 -15 33 -61 38zM198 571l105 119h58l56 -119h-49l-41 73h-4l-70 -73h-55z" />
    <glyph glyph-name="uni1EC4" unicode="&#x1ec4;" horiz-adv-x="503" 
d="M35 0l131 656h362l-13 -65h-285l-42 -213h241l-14 -66h-239l-51 -246h294l-14 -66h-370zM237 706l108 104h66l70 -104h-58l-49 64h-4l-73 -64h-60zM257 844c14 55 50 94 91 94c45 0 63 -50 97 -50c21 0 36 18 48 49h38c-14 -55 -49 -94 -90 -94c-45 0 -63 50 -97 50
c-21 0 -36 -18 -47 -49h-40z" />
    <glyph glyph-name="uni1EC5" unicode="&#x1ec5;" horiz-adv-x="481" 
d="M37 191c0 183 133 307 260 307c109 0 150 -76 150 -176c0 -39 -11 -77 -17 -95h-316c-18 -125 47 -178 132 -178c38 0 78 19 109 42l30 -51c-39 -28 -94 -52 -157 -52c-115 0 -191 73 -191 203zM122 279h255c3 16 5 31 5 50c0 55 -24 108 -94 108
c-71 0 -141 -62 -166 -158zM363 672l65 -101h-51l-52 62h-4l-74 -62h-58l105 101h69zM252 709h-40c16 53 51 89 87 89c50 0 60 -45 95 -45c16 0 35 18 44 44h39c-16 -53 -50 -89 -86 -89c-50 0 -61 45 -96 45c-15 0 -34 -18 -43 -44z" />
    <glyph glyph-name="uni1EC6" unicode="&#x1ec6;" horiz-adv-x="503" 
d="M35 0l131 656h362l-13 -65h-285l-42 -213h241l-14 -66h-239l-51 -246h294l-14 -66h-370zM227 706l113 109h73l70 -109h-59l-50 70h-4l-78 -70h-65zM208 -205c-26 0 -49 16 -49 45c0 33 27 58 58 58c26 0 49 -17 49 -46c0 -33 -27 -57 -58 -57z" />
    <glyph glyph-name="uni1EC7" unicode="&#x1ec7;" horiz-adv-x="481" 
d="M37 191c0 183 133 307 260 307c109 0 150 -76 150 -176c0 -39 -11 -77 -17 -95h-316c-18 -125 47 -178 132 -178c38 0 78 19 109 42l30 -51c-39 -28 -94 -52 -157 -52c-115 0 -191 73 -191 203zM122 279h255c3 16 5 31 5 50c0 55 -24 108 -94 108
c-71 0 -141 -62 -166 -158zM188 571l122 141h57l66 -141h-52l-48 92h-4l-83 -92h-58zM184 -205c-25 0 -48 16 -48 45c0 33 26 58 58 58c25 0 48 -17 48 -46c0 -33 -27 -57 -58 -57z" />
    <glyph glyph-name="uni1EC8" unicode="&#x1ec8;" horiz-adv-x="252" 
d="M35 0l131 656h78l-131 -656h-78zM158 826l15 43c85 -4 117 -32 117 -69c0 -60 -53 -89 -122 -103l-7 35c44 13 69 27 69 54c0 23 -16 35 -72 40z" />
    <glyph glyph-name="uni1EC9" unicode="&#x1ec9;" horiz-adv-x="237" 
d="M31 0l97 486h77l-98 -486h-76zM158 682l14 42c86 -3 118 -31 118 -68c0 -61 -53 -89 -122 -104l-6 36c43 13 69 27 69 54c0 23 -17 35 -73 40z" />
    <glyph glyph-name="uni1ECA" unicode="&#x1eca;" horiz-adv-x="252" 
d="M35 0l131 656h78l-131 -656h-78zM47 -210c-25 0 -48 16 -48 45c0 32 27 58 58 58c25 0 49 -17 49 -46c0 -33 -27 -57 -59 -57z" />
    <glyph glyph-name="uni1ECB" unicode="&#x1ecb;" horiz-adv-x="237" 
d="M31 0l97 486h77l-98 -486h-76zM193 587c-26 0 -49 16 -49 45c0 33 27 58 58 58c26 0 49 -17 49 -46c0 -33 -27 -57 -58 -57zM42 -205c-26 0 -49 16 -49 45c0 33 27 58 58 58c26 0 49 -17 49 -46c0 -33 -27 -57 -58 -57z" />
    <glyph glyph-name="uni1ECC" unicode="&#x1ecc;" horiz-adv-x="633" 
d="M287 -12c-147 0 -227 109 -227 275c0 200 131 405 319 405c147 0 227 -109 227 -274c0 -201 -131 -406 -319 -406zM375 601c-141 0 -236 -178 -236 -332c0 -128 47 -214 152 -214c141 0 236 179 236 332c0 129 -48 214 -152 214zM248 -205c-25 0 -49 16 -49 45
c0 33 27 58 59 58c25 0 48 -17 48 -46c0 -33 -27 -57 -58 -57z" />
    <glyph glyph-name="uni1ECD" unicode="&#x1ecd;" horiz-adv-x="515" 
d="M212 -12c-105 0 -173 74 -173 195c0 184 129 315 262 315c105 0 174 -74 174 -195c0 -184 -130 -315 -263 -315zM293 435c-89 0 -177 -111 -177 -247c0 -88 37 -136 104 -136c90 0 177 110 177 246c0 88 -37 137 -104 137zM161 -205c-26 0 -49 16 -49 45
c0 33 27 58 58 58c26 0 49 -17 49 -46c0 -33 -27 -57 -58 -57z" />
    <glyph glyph-name="uni1ECE" unicode="&#x1ece;" horiz-adv-x="633" 
d="M287 -12c-147 0 -227 109 -227 275c0 200 131 405 319 405c147 0 227 -109 227 -274c0 -201 -131 -406 -319 -406zM375 601c-141 0 -236 -178 -236 -332c0 -128 47 -214 152 -214c141 0 236 179 236 332c0 129 -48 214 -152 214zM355 826l16 43c84 -4 117 -32 117 -69
c0 -60 -54 -89 -123 -103l-6 35c43 13 68 27 68 54c0 23 -15 35 -72 40z" />
    <glyph glyph-name="uni1ECF" unicode="&#x1ecf;" horiz-adv-x="515" 
d="M212 -12c-105 0 -173 74 -173 195c0 184 129 315 262 315c105 0 174 -74 174 -195c0 -184 -130 -315 -263 -315zM293 435c-89 0 -177 -111 -177 -247c0 -88 37 -136 104 -136c90 0 177 110 177 246c0 88 -37 137 -104 137zM299 682l14 42c86 -3 119 -31 119 -68
c0 -61 -53 -89 -123 -104l-6 36c44 13 69 27 69 54c0 23 -17 35 -73 40z" />
    <glyph glyph-name="uni1ED0" unicode="&#x1ed0;" horiz-adv-x="633" 
d="M287 -12c-147 0 -227 109 -227 275c0 200 131 405 319 405c147 0 227 -109 227 -274c0 -201 -131 -406 -319 -406zM375 601c-141 0 -236 -178 -236 -332c0 -128 47 -214 152 -214c141 0 236 179 236 332c0 129 -48 214 -152 214zM510 768l84 111h64l-99 -111h-49z
M284 706l109 104h66l69 -104h-57l-49 64h-4l-74 -64h-60z" />
    <glyph glyph-name="uni1ED1" unicode="&#x1ed1;" horiz-adv-x="515" 
d="M212 -12c-105 0 -173 74 -173 195c0 184 129 315 262 315c105 0 174 -74 174 -195c0 -184 -130 -315 -263 -315zM293 435c-89 0 -177 -111 -177 -247c0 -88 37 -136 104 -136c90 0 177 110 177 246c0 88 -37 137 -104 137zM217 571l106 119h57l57 -119h-49l-42 73h-4
l-69 -73h-56zM431 638l91 114h65l-107 -114h-49z" />
    <glyph glyph-name="uni1ED2" unicode="&#x1ed2;" horiz-adv-x="633" 
d="M287 -12c-147 0 -227 109 -227 275c0 200 131 405 319 405c147 0 227 -109 227 -274c0 -201 -131 -406 -319 -406zM375 601c-141 0 -236 -178 -236 -332c0 -128 47 -214 152 -214c141 0 236 179 236 332c0 129 -48 214 -152 214zM550 879l46 -111h-47l-62 111h63z
M284 706l109 104h66l69 -104h-57l-49 64h-4l-74 -64h-60z" />
    <glyph glyph-name="uni1ED3" unicode="&#x1ed3;" horiz-adv-x="515" 
d="M212 -12c-105 0 -173 74 -173 195c0 184 129 315 262 315c105 0 174 -74 174 -195c0 -184 -130 -315 -263 -315zM293 435c-89 0 -177 -111 -177 -247c0 -88 37 -136 104 -136c90 0 177 110 177 246c0 88 -37 137 -104 137zM483 752l47 -114h-47l-63 114h63zM217 571
l106 119h57l57 -119h-49l-42 73h-4l-69 -73h-56z" />
    <glyph glyph-name="uni1ED4" unicode="&#x1ed4;" horiz-adv-x="633" 
d="M287 -12c-147 0 -227 109 -227 275c0 200 131 405 319 405c147 0 227 -109 227 -274c0 -201 -131 -406 -319 -406zM375 601c-141 0 -236 -178 -236 -332c0 -128 47 -214 152 -214c141 0 236 179 236 332c0 129 -48 214 -152 214zM284 706l109 104h66l69 -104h-57l-49 64
h-4l-74 -64h-60zM517 867l13 37c74 -1 103 -27 103 -59c0 -54 -41 -80 -105 -92l-6 31c39 10 57 25 57 50c0 19 -15 30 -62 33z" />
    <glyph glyph-name="uni1ED5" unicode="&#x1ed5;" horiz-adv-x="515" 
d="M212 -12c-105 0 -173 74 -173 195c0 184 129 315 262 315c105 0 174 -74 174 -195c0 -184 -130 -315 -263 -315zM293 435c-89 0 -177 -111 -177 -247c0 -88 37 -136 104 -136c90 0 177 110 177 246c0 88 -37 137 -104 137zM440 747l13 38c73 -4 105 -29 105 -63
c0 -57 -45 -81 -108 -95l-5 32c40 11 56 25 56 50c0 22 -14 33 -61 38zM217 571l106 119h57l57 -119h-49l-42 73h-4l-69 -73h-56z" />
    <glyph glyph-name="uni1ED6" unicode="&#x1ed6;" horiz-adv-x="633" 
d="M287 -12c-147 0 -227 109 -227 275c0 200 131 405 319 405c147 0 227 -109 227 -274c0 -201 -131 -406 -319 -406zM375 601c-141 0 -236 -178 -236 -332c0 -128 47 -214 152 -214c141 0 236 179 236 332c0 129 -48 214 -152 214zM284 706l109 104h66l69 -104h-57l-49 64
h-4l-74 -64h-60zM305 844c14 55 50 94 90 94c46 0 64 -50 98 -50c21 0 36 18 47 49h39c-14 -55 -49 -94 -90 -94c-45 0 -63 50 -97 50c-22 0 -37 -18 -47 -49h-40z" />
    <glyph glyph-name="uni1ED7" unicode="&#x1ed7;" horiz-adv-x="515" 
d="M212 -12c-105 0 -173 74 -173 195c0 184 129 315 262 315c105 0 174 -74 174 -195c0 -184 -130 -315 -263 -315zM293 435c-89 0 -177 -111 -177 -247c0 -88 37 -136 104 -136c90 0 177 110 177 246c0 88 -37 137 -104 137zM382 672l65 -101h-51l-52 62h-4l-73 -62h-59
l106 101h68zM271 709h-39c16 53 50 89 86 89c50 0 61 -45 96 -45c15 0 35 18 43 44h39c-15 -53 -50 -89 -86 -89c-50 0 -61 45 -96 45c-15 0 -34 -18 -43 -44z" />
    <glyph glyph-name="uni1ED8" unicode="&#x1ed8;" horiz-adv-x="633" 
d="M287 -12c-147 0 -227 109 -227 275c0 200 131 405 319 405c147 0 227 -109 227 -274c0 -201 -131 -406 -319 -406zM375 601c-141 0 -236 -178 -236 -332c0 -128 47 -214 152 -214c141 0 236 179 236 332c0 129 -48 214 -152 214zM275 706l113 109h73l70 -109h-59l-51 70
h-3l-78 -70h-65zM248 -205c-25 0 -49 16 -49 45c0 33 27 58 59 58c25 0 48 -17 48 -46c0 -33 -27 -57 -58 -57z" />
    <glyph glyph-name="uni1ED9" unicode="&#x1ed9;" horiz-adv-x="515" 
d="M212 -12c-105 0 -173 74 -173 195c0 184 129 315 262 315c105 0 174 -74 174 -195c0 -184 -130 -315 -263 -315zM293 435c-89 0 -177 -111 -177 -247c0 -88 37 -136 104 -136c90 0 177 110 177 246c0 88 -37 137 -104 137zM206 571l122 141h58l65 -141h-52l-48 92h-4
l-83 -92h-58zM161 -205c-26 0 -49 16 -49 45c0 33 27 58 58 58c26 0 49 -17 49 -46c0 -33 -27 -57 -58 -57z" />
    <glyph glyph-name="uni1EDA" unicode="&#x1eda;" horiz-adv-x="633" 
d="M538 816l-128 -110h-66l107 110h87zM291 55c141 0 236 179 236 332c0 129 -48 214 -152 214c-141 0 -236 -178 -236 -332c0 -128 47 -214 152 -214zM590 745l59 20c8 -17 11 -31 11 -47c0 -57 -47 -102 -121 -115c44 -48 67 -121 67 -209c0 -201 -131 -406 -319 -406
c-147 0 -227 109 -227 275c0 200 131 405 319 405c46 0 86 -11 118 -31c57 4 98 33 98 75c0 10 -1 19 -5 33z" />
    <glyph glyph-name="uni1EDB" unicode="&#x1edb;" horiz-adv-x="517" 
d="M451 712l-137 -141h-62l116 141h83zM220 52c90 0 177 110 177 246c0 88 -37 137 -104 137c-89 0 -177 -111 -177 -247c0 -88 37 -136 104 -136zM477 583l60 21c8 -17 10 -32 10 -47c0 -54 -37 -99 -116 -115c28 -33 44 -81 44 -139c0 -184 -130 -315 -263 -315
c-105 0 -173 74 -173 195c0 184 129 315 262 315c34 0 64 -8 89 -22c53 5 93 32 93 74c0 11 -1 20 -6 33z" />
    <glyph glyph-name="uni1EDC" unicode="&#x1edc;" horiz-adv-x="633" 
d="M441 706h-61l-89 110h81zM291 55c141 0 236 179 236 332c0 129 -48 214 -152 214c-141 0 -236 -178 -236 -332c0 -128 47 -214 152 -214zM590 745l59 20c8 -17 11 -31 11 -47c0 -57 -47 -102 -121 -115c44 -48 67 -121 67 -209c0 -201 -131 -406 -319 -406
c-147 0 -227 109 -227 275c0 200 131 405 319 405c46 0 86 -11 118 -31c57 4 98 33 98 75c0 10 -1 19 -5 33z" />
    <glyph glyph-name="uni1EDD" unicode="&#x1edd;" horiz-adv-x="517" 
d="M377 571h-55l-78 141h75zM220 52c90 0 177 110 177 246c0 88 -37 137 -104 137c-89 0 -177 -111 -177 -247c0 -88 37 -136 104 -136zM477 583l60 21c8 -17 10 -32 10 -47c0 -54 -37 -99 -116 -115c28 -33 44 -81 44 -139c0 -184 -130 -315 -263 -315
c-105 0 -173 74 -173 195c0 184 129 315 262 315c34 0 64 -8 89 -22c53 5 93 32 93 74c0 11 -1 20 -6 33z" />
    <glyph glyph-name="uni1EDE" unicode="&#x1ede;" horiz-adv-x="633" 
d="M356 697l-7 35c44 13 69 27 69 54c0 23 -16 35 -72 40l15 43c85 -4 117 -32 117 -69c0 -60 -53 -89 -122 -103zM291 55c141 0 236 179 236 332c0 129 -48 214 -152 214c-141 0 -236 -178 -236 -332c0 -128 47 -214 152 -214zM590 745l59 20c8 -17 11 -31 11 -47
c0 -57 -47 -102 -121 -115c44 -48 67 -121 67 -209c0 -201 -131 -406 -319 -406c-147 0 -227 109 -227 275c0 200 131 405 319 405c46 0 86 -11 118 -31c57 4 98 33 98 75c0 10 -1 19 -5 33z" />
    <glyph glyph-name="uni1EDF" unicode="&#x1edf;" horiz-adv-x="517" 
d="M299 552l-7 36c44 13 69 27 69 54c0 23 -16 35 -72 40l14 42c86 -3 118 -31 118 -68c0 -61 -53 -89 -122 -104zM220 52c90 0 177 110 177 246c0 88 -37 137 -104 137c-89 0 -177 -111 -177 -247c0 -88 37 -136 104 -136zM477 583l60 21c8 -17 10 -32 10 -47
c0 -54 -37 -99 -116 -115c28 -33 44 -81 44 -139c0 -184 -130 -315 -263 -315c-105 0 -173 74 -173 195c0 184 129 315 262 315c34 0 64 -8 89 -22c53 5 93 32 93 74c0 11 -1 20 -6 33z" />
    <glyph glyph-name="uni1EE0" unicode="&#x1ee0;" horiz-adv-x="633" 
d="M508 814h44c-14 -59 -54 -105 -99 -105c-50 0 -65 56 -104 56c-21 0 -37 -21 -49 -54h-44c14 59 54 105 98 105c51 0 65 -55 105 -55c21 0 37 20 49 53zM291 55c141 0 236 179 236 332c0 129 -48 214 -152 214c-141 0 -236 -178 -236 -332c0 -128 47 -214 152 -214z
M590 745l59 20c8 -17 11 -31 11 -47c0 -57 -47 -102 -121 -115c44 -48 67 -121 67 -209c0 -201 -131 -406 -319 -406c-147 0 -227 109 -227 275c0 200 131 405 319 405c46 0 86 -11 118 -31c57 4 98 33 98 75c0 10 -1 19 -5 33z" />
    <glyph glyph-name="uni1EE1" unicode="&#x1ee1;" horiz-adv-x="517" 
d="M433 680h44c-17 -59 -51 -102 -93 -102c-58 0 -66 53 -109 53c-16 0 -32 -20 -44 -51h-44c17 60 51 102 93 102c58 0 67 -53 109 -53c17 0 32 20 44 51zM220 52c90 0 177 110 177 246c0 88 -37 137 -104 137c-89 0 -177 -111 -177 -247c0 -88 37 -136 104 -136zM477 583
l60 21c8 -17 10 -32 10 -47c0 -54 -37 -99 -116 -115c28 -33 44 -81 44 -139c0 -184 -130 -315 -263 -315c-105 0 -173 74 -173 195c0 184 129 315 262 315c34 0 64 -8 89 -22c53 5 93 32 93 74c0 11 -1 20 -6 33z" />
    <glyph glyph-name="uni1EE2" unicode="&#x1ee2;" horiz-adv-x="633" 
d="M254 -102c26 0 49 -17 49 -46c0 -33 -27 -57 -58 -57c-26 0 -49 16 -49 45c0 33 27 58 58 58zM291 55c141 0 236 179 236 332c0 129 -48 214 -152 214c-141 0 -236 -178 -236 -332c0 -128 47 -214 152 -214zM590 745l59 20c8 -17 11 -31 11 -47c0 -57 -47 -102 -121 -115
c44 -48 67 -121 67 -209c0 -201 -131 -406 -319 -406c-147 0 -227 109 -227 275c0 200 131 405 319 405c46 0 86 -11 118 -31c57 4 98 33 98 75c0 10 -1 19 -5 33z" />
    <glyph glyph-name="uni1EE3" unicode="&#x1ee3;" horiz-adv-x="517" 
d="M167 -102c26 0 49 -17 49 -46c0 -33 -27 -57 -58 -57c-26 0 -49 16 -49 45c0 33 27 58 58 58zM220 52c90 0 177 110 177 246c0 88 -37 137 -104 137c-89 0 -177 -111 -177 -247c0 -88 37 -136 104 -136zM477 583l60 21c8 -17 10 -32 10 -47c0 -54 -37 -99 -116 -115
c28 -33 44 -81 44 -139c0 -184 -130 -315 -263 -315c-105 0 -173 74 -173 195c0 184 129 315 262 315c34 0 64 -8 89 -22c53 5 93 32 93 74c0 11 -1 20 -6 33z" />
    <glyph glyph-name="uni1EE4" unicode="&#x1ee4;" horiz-adv-x="616" 
d="M89 288l74 368h78l-75 -375c-6 -30 -9 -55 -9 -79c0 -94 41 -147 133 -147c75 0 139 56 167 199l81 402h76l-82 -405c-37 -189 -129 -263 -246 -263c-133 0 -207 71 -207 207c0 28 4 60 10 93zM231 -205c-25 0 -48 16 -48 45c0 33 26 58 58 58c25 0 48 -17 48 -46
c0 -33 -27 -57 -58 -57z" />
    <glyph glyph-name="uni1EE5" unicode="&#x1ee5;" horiz-adv-x="528" 
d="M495 486l-97 -486h-63l8 74h-4c-53 -47 -109 -86 -168 -86c-82 0 -115 47 -115 121c0 23 2 41 8 67l62 310h77l-61 -300c-5 -26 -8 -40 -8 -57c0 -49 22 -75 72 -75c38 0 85 27 144 88l69 344h76zM211 -208c-25 0 -48 16 -48 45c0 33 27 58 58 58c26 0 49 -17 49 -46
c0 -33 -27 -57 -59 -57z" />
    <glyph glyph-name="uni1EE6" unicode="&#x1ee6;" horiz-adv-x="616" 
d="M89 288l74 368h78l-75 -375c-6 -30 -9 -55 -9 -79c0 -94 41 -147 133 -147c75 0 139 56 167 199l81 402h76l-82 -405c-37 -189 -129 -263 -246 -263c-133 0 -207 71 -207 207c0 28 4 60 10 93zM346 826l15 43c85 -4 117 -32 117 -69c0 -60 -54 -89 -123 -103l-6 35
c43 13 68 27 68 54c0 23 -15 35 -71 40z" />
    <glyph glyph-name="uni1EE7" unicode="&#x1ee7;" horiz-adv-x="528" 
d="M495 486l-97 -486h-63l8 74h-4c-53 -47 -109 -86 -168 -86c-82 0 -115 47 -115 121c0 23 2 41 8 67l62 310h77l-61 -300c-5 -26 -8 -40 -8 -57c0 -49 22 -75 72 -75c38 0 85 27 144 88l69 344h76zM292 682l14 42c86 -3 118 -31 118 -68c0 -61 -53 -89 -122 -104l-6 36
c44 13 69 27 69 54c0 23 -17 35 -73 40z" />
    <glyph glyph-name="uni1EE8" unicode="&#x1ee8;" horiz-adv-x="629" 
d="M534 816l-128 -110h-65l106 110h87zM665 763l60 21c7 -17 10 -31 10 -47c0 -54 -41 -104 -128 -117l-75 -369c-37 -189 -129 -263 -246 -263c-133 0 -207 71 -207 207c0 28 4 60 10 93l74 368h78l-75 -375c-6 -30 -9 -55 -9 -79c0 -94 41 -147 133 -147
c75 0 139 56 167 199l81 402h35c55 3 97 33 97 74c0 11 -1 20 -5 33z" />
    <glyph glyph-name="uni1EE9" unicode="&#x1ee9;" horiz-adv-x="543" 
d="M454 712l-136 -141h-62l116 141h82zM529 593l60 21c7 -17 10 -32 10 -47c0 -56 -46 -100 -111 -115l-90 -452h-63l8 74h-4c-53 -47 -109 -86 -168 -86c-82 0 -115 47 -115 121c0 23 2 41 8 67l62 310h77l-61 -300c-5 -26 -8 -40 -8 -57c0 -49 22 -75 72 -75
c38 0 85 27 144 88l69 344h27c47 6 88 33 88 74c0 11 -1 20 -5 33z" />
    <glyph glyph-name="uni1EEA" unicode="&#x1eea;" horiz-adv-x="629" 
d="M437 706h-60l-89 110h81zM665 763l60 21c7 -17 10 -31 10 -47c0 -54 -41 -104 -128 -117l-75 -369c-37 -189 -129 -263 -246 -263c-133 0 -207 71 -207 207c0 28 4 60 10 93l74 368h78l-75 -375c-6 -30 -9 -55 -9 -79c0 -94 41 -147 133 -147c75 0 139 56 167 199l81 402
h35c55 3 97 33 97 74c0 11 -1 20 -5 33z" />
    <glyph glyph-name="uni1EEB" unicode="&#x1eeb;" horiz-adv-x="543" 
d="M381 571h-56l-78 141h75zM529 593l60 21c7 -17 10 -32 10 -47c0 -56 -46 -100 -111 -115l-90 -452h-63l8 74h-4c-53 -47 -109 -86 -168 -86c-82 0 -115 47 -115 121c0 23 2 41 8 67l62 310h77l-61 -300c-5 -26 -8 -40 -8 -57c0 -49 22 -75 72 -75c38 0 85 27 144 88
l69 344h27c47 6 88 33 88 74c0 11 -1 20 -5 33z" />
    <glyph glyph-name="uni1EEC" unicode="&#x1eec;" horiz-adv-x="629" 
d="M352 697l-6 35c43 13 68 27 68 54c0 23 -15 35 -71 40l15 43c85 -4 117 -32 117 -69c0 -60 -54 -89 -123 -103zM665 763l60 21c7 -17 10 -31 10 -47c0 -54 -41 -104 -128 -117l-75 -369c-37 -189 -129 -263 -246 -263c-133 0 -207 71 -207 207c0 28 4 60 10 93l74 368h78
l-75 -375c-6 -30 -9 -55 -9 -79c0 -94 41 -147 133 -147c75 0 139 56 167 199l81 402h35c55 3 97 33 97 74c0 11 -1 20 -5 33z" />
    <glyph glyph-name="uni1EED" unicode="&#x1eed;" horiz-adv-x="543" 
d="M302 552l-6 36c44 13 69 27 69 54c0 23 -17 35 -73 40l14 42c86 -3 118 -31 118 -68c0 -61 -53 -89 -122 -104zM529 593l60 21c7 -17 10 -32 10 -47c0 -56 -46 -100 -111 -115l-90 -452h-63l8 74h-4c-53 -47 -109 -86 -168 -86c-82 0 -115 47 -115 121c0 23 2 41 8 67
l62 310h77l-61 -300c-5 -26 -8 -40 -8 -57c0 -49 22 -75 72 -75c38 0 85 27 144 88l69 344h27c47 6 88 33 88 74c0 11 -1 20 -5 33z" />
    <glyph glyph-name="uni1EEE" unicode="&#x1eee;" horiz-adv-x="629" 
d="M504 814h44c-14 -59 -54 -105 -99 -105c-50 0 -65 56 -104 56c-21 0 -37 -21 -49 -54h-44c14 59 54 105 99 105c50 0 65 -55 104 -55c21 0 37 20 49 53zM665 763l60 21c7 -17 10 -31 10 -47c0 -54 -41 -104 -128 -117l-75 -369c-37 -189 -129 -263 -246 -263
c-133 0 -207 71 -207 207c0 28 4 60 10 93l74 368h78l-75 -375c-6 -30 -9 -55 -9 -79c0 -94 41 -147 133 -147c75 0 139 56 167 199l81 402h35c55 3 97 33 97 74c0 11 -1 20 -5 33z" />
    <glyph glyph-name="uni1EEF" unicode="&#x1eef;" horiz-adv-x="543" 
d="M437 680h44c-17 -59 -52 -102 -94 -102c-57 0 -66 53 -108 53c-17 0 -32 -20 -45 -51h-44c17 60 52 102 94 102c58 0 66 -53 109 -53c16 0 31 20 44 51zM529 593l60 21c7 -17 10 -32 10 -47c0 -56 -46 -100 -111 -115l-90 -452h-63l8 74h-4c-53 -47 -109 -86 -168 -86
c-82 0 -115 47 -115 121c0 23 2 41 8 67l62 310h77l-61 -300c-5 -26 -8 -40 -8 -57c0 -49 22 -75 72 -75c38 0 85 27 144 88l69 344h27c47 6 88 33 88 74c0 11 -1 20 -5 33z" />
    <glyph glyph-name="uni1EF0" unicode="&#x1ef0;" horiz-adv-x="629" 
d="M242 -102c26 0 49 -17 49 -46c0 -33 -27 -57 -58 -57c-26 0 -49 16 -49 45c0 33 27 58 58 58zM665 763l60 21c7 -17 10 -31 10 -47c0 -54 -41 -104 -128 -117l-75 -369c-37 -189 -129 -263 -246 -263c-133 0 -207 71 -207 207c0 28 4 60 10 93l74 368h78l-75 -375
c-6 -30 -9 -55 -9 -79c0 -94 41 -147 133 -147c75 0 139 56 167 199l81 402h35c55 3 97 33 97 74c0 11 -1 20 -5 33z" />
    <glyph glyph-name="uni1EF1" unicode="&#x1ef1;" horiz-adv-x="543" 
d="M221 -105c26 0 49 -17 49 -46c0 -33 -27 -57 -59 -57c-25 0 -48 16 -48 45c0 33 27 58 58 58zM529 593l60 21c7 -17 10 -32 10 -47c0 -56 -46 -100 -111 -115l-90 -452h-63l8 74h-4c-53 -47 -109 -86 -168 -86c-82 0 -115 47 -115 121c0 23 2 41 8 67l62 310h77l-61 -300
c-5 -26 -8 -40 -8 -57c0 -49 22 -75 72 -75c38 0 85 27 144 88l69 344h27c47 6 88 33 88 74c0 11 -1 20 -5 33z" />
    <glyph glyph-name="Ygrave" unicode="&#x1ef2;" horiz-adv-x="461" 
d="M139 0l51 256l-107 400h80l45 -189c12 -48 21 -92 33 -142h4c30 49 58 95 90 143l124 188h83l-274 -400l-52 -256h-77zM294 706l-89 110h81l69 -110h-61z" />
    <glyph glyph-name="ygrave" unicode="&#x1ef3;" horiz-adv-x="448" 
d="M-37 -138c12 -6 23 -9 36 -9c49 0 94 44 127 111l18 35l-83 487h76l38 -273c7 -44 12 -99 16 -145h4c23 46 48 99 72 145l140 273h76l-286 -527c-51 -95 -110 -168 -203 -168c-14 0 -37 4 -56 14zM279 571l-79 141h76l58 -141h-55z" />
    <glyph glyph-name="uni1EF4" unicode="&#x1ef4;" horiz-adv-x="461" 
d="M139 0l51 256l-107 400h80l45 -189c12 -48 21 -92 33 -142h4c30 49 58 95 90 143l124 188h83l-274 -400l-52 -256h-77zM151 -213c-25 0 -48 16 -48 45c0 33 27 58 58 58c25 0 49 -17 49 -46c0 -33 -27 -57 -59 -57z" />
    <glyph glyph-name="uni1EF5" unicode="&#x1ef5;" horiz-adv-x="448" 
d="M-37 -138c12 -6 23 -9 36 -9c49 0 94 44 127 111l18 35l-83 487h76l38 -273c7 -44 12 -99 16 -145h4c23 46 48 99 72 145l140 273h76l-286 -527c-51 -95 -110 -168 -203 -168c-14 0 -37 4 -56 14zM280 -213c-26 0 -49 16 -49 45c0 33 27 58 58 58c26 0 49 -17 49 -46
c0 -33 -27 -57 -58 -57z" />
    <glyph glyph-name="uni1EF6" unicode="&#x1ef6;" horiz-adv-x="461" 
d="M139 0l51 256l-107 400h80l45 -189c12 -48 21 -92 33 -142h4c30 49 58 95 90 143l124 188h83l-274 -400l-52 -256h-77zM260 826l15 43c85 -4 117 -32 117 -69c0 -60 -54 -89 -123 -103l-6 35c44 13 69 27 69 54c0 23 -16 35 -72 40z" />
    <glyph glyph-name="uni1EF7" unicode="&#x1ef7;" horiz-adv-x="448" 
d="M-37 -138c12 -6 23 -9 36 -9c49 0 94 44 127 111l18 35l-83 487h76l38 -273c7 -44 12 -99 16 -145h4c23 46 48 99 72 145l140 273h76l-286 -527c-51 -95 -110 -168 -203 -168c-14 0 -37 4 -56 14zM245 682l15 42c85 -3 118 -31 118 -68c0 -61 -53 -89 -122 -104l-7 36
c44 13 69 27 69 54c0 23 -16 35 -73 40z" />
    <glyph glyph-name="uni1EF8" unicode="&#x1ef8;" horiz-adv-x="461" 
d="M139 0l51 256l-107 400h80l45 -189c12 -48 21 -92 33 -142h4c30 49 58 95 90 143l124 188h83l-274 -400l-52 -256h-77zM213 711h-44c14 59 54 105 99 105c50 0 65 -55 104 -55c21 0 38 20 49 53h44c-14 -59 -54 -105 -98 -105c-51 0 -65 56 -105 56
c-21 0 -37 -21 -49 -54z" />
    <glyph glyph-name="uni1EF9" unicode="&#x1ef9;" horiz-adv-x="448" 
d="M-37 -138c12 -6 23 -9 36 -9c49 0 94 44 127 111l18 35l-83 487h76l38 -273c7 -44 12 -99 16 -145h4c23 46 48 99 72 145l140 273h76l-286 -527c-51 -95 -110 -168 -203 -168c-14 0 -37 4 -56 14zM188 580h-45c18 60 52 102 94 102c58 0 66 -53 109 -53c16 0 32 20 44 51
h44c-17 -59 -51 -102 -93 -102c-58 0 -67 53 -109 53c-17 0 -32 -20 -44 -51z" />
    <glyph glyph-name="uni2007" unicode="&#x2007;" horiz-adv-x="480" 
 />
    <glyph glyph-name="figuredash" unicode="&#x2012;" horiz-adv-x="480" 
d="M35 225l11 54h398l-12 -54h-397z" />
    <glyph glyph-name="endash" unicode="&#x2013;" horiz-adv-x="463" 
d="M35 225l11 54h381l-12 -54h-380z" />
    <glyph glyph-name="emdash" unicode="&#x2014;" horiz-adv-x="769" 
d="M35 225l11 54h688l-11 -54h-688z" />
    <glyph glyph-name="uni2015" unicode="&#x2015;" horiz-adv-x="769" 
d="M35 225l11 54h688l-11 -54h-688z" />
    <glyph glyph-name="quoteleft" unicode="&#x2018;" horiz-adv-x="242" 
d="M242 691l16 -38c-60 -30 -94 -80 -95 -118h5c28 0 49 -16 49 -44c0 -31 -22 -57 -54 -57c-31 0 -53 25 -53 68c0 92 57 157 132 189z" />
    <glyph glyph-name="quoteright" unicode="&#x2019;" horiz-adv-x="242" 
d="M127 443l-16 37c61 31 95 81 96 118h-5c-29 0 -50 16 -50 45c0 30 22 57 55 57c31 0 53 -25 53 -68c0 -92 -58 -157 -133 -189z" />
    <glyph glyph-name="quotesinglbase" unicode="&#x201a;" horiz-adv-x="242" 
d="M7 -148l-16 38c61 30 94 79 95 118h-4c-29 0 -50 15 -50 44c0 31 22 57 55 57c31 0 53 -25 53 -68c0 -92 -58 -157 -133 -189z" />
    <glyph glyph-name="quotedblleft" unicode="&#x201c;" horiz-adv-x="407" 
d="M242 691l16 -38c-60 -30 -94 -80 -95 -118h5c28 0 49 -16 49 -44c0 -31 -22 -57 -54 -57c-31 0 -53 25 -53 68c0 92 57 157 132 189zM408 691l16 -38c-61 -30 -95 -80 -96 -118h5c29 0 50 -16 50 -44c0 -31 -22 -57 -55 -57c-31 0 -53 25 -53 68c0 92 58 157 133 189z
" />
    <glyph glyph-name="quotedblright" unicode="&#x201d;" horiz-adv-x="407" 
d="M127 443l-16 37c61 31 95 81 96 118h-5c-29 0 -50 16 -50 45c0 30 22 57 55 57c31 0 53 -25 53 -68c0 -92 -58 -157 -133 -189zM293 443l-17 37c61 31 95 81 96 118h-5c-28 0 -49 16 -49 45c0 30 22 57 54 57c31 0 53 -25 53 -68c0 -92 -57 -157 -132 -189z" />
    <glyph glyph-name="quotedblbase" unicode="&#x201e;" horiz-adv-x="287" 
d="M7 -148l-16 38c61 30 94 79 95 118h-4c-29 0 -50 15 -50 44c0 31 22 57 55 57c31 0 53 -25 53 -68c0 -92 -58 -157 -133 -189zM173 -148l-17 38c61 30 95 80 96 118h-5c-28 0 -50 15 -50 44c0 31 22 57 55 57c31 0 53 -25 53 -68c0 -92 -58 -157 -132 -189z" />
    <glyph glyph-name="dagger" unicode="&#x2020;" horiz-adv-x="435" 
d="M118 -80l121 576l-138 -5l13 66l134 -5l28 160h66l-36 -160l137 5l-13 -66l-135 5l-111 -576h-66z" />
    <glyph glyph-name="daggerdbl" unicode="&#x2021;" horiz-adv-x="435" 
d="M18 74l13 66l135 -6l31 182l42 182l-138 -7l12 66l135 -5l28 160h65l-35 -160l137 5l-13 -66l-135 7l-32 -182l-41 -182l138 6l-13 -66l-135 5l-27 -159h-66l35 159z" />
    <glyph glyph-name="bullet" unicode="&#x2022;" horiz-adv-x="295" 
d="M139 145c-57 0 -98 43 -98 105c0 64 46 133 120 133c55 0 97 -44 97 -105c0 -66 -47 -133 -119 -133z" />
    <glyph glyph-name="ellipsis" unicode="&#x2026;" horiz-adv-x="959" 
d="M130 -12c-29 0 -47 21 -47 50c0 34 29 70 67 70c29 0 46 -22 46 -51c0 -34 -28 -69 -66 -69zM459 -12c-29 0 -47 21 -47 50c0 34 28 70 67 70c29 0 45 -22 45 -51c0 -34 -27 -69 -65 -69zM787 -12c-29 0 -47 21 -47 50c0 34 29 70 67 70c29 0 46 -22 46 -51
c0 -34 -27 -69 -66 -69z" />
    <glyph glyph-name="perthousand" unicode="&#x2030;" horiz-adv-x="1144" 
d="M187 -12h-52l484 684h52zM184 258c-77 0 -123 65 -123 152c0 124 66 263 182 263c77 0 123 -65 123 -152c0 -125 -66 -263 -182 -263zM239 623c-76 0 -119 -113 -119 -209c0 -61 20 -106 69 -106c75 0 118 113 118 208c0 61 -20 107 -68 107zM570 -12
c-77 0 -123 65 -123 152c0 124 66 263 182 263c77 0 123 -65 123 -152c0 -125 -66 -263 -182 -263zM624 353c-75 0 -118 -113 -118 -209c0 -61 20 -106 69 -106c75 0 118 113 118 208c0 61 -20 107 -69 107zM923 -12c-77 0 -122 65 -122 152c0 124 66 263 182 263
c77 0 122 -65 122 -152c0 -125 -66 -263 -182 -263zM978 353c-76 0 -118 -113 -118 -209c0 -61 19 -106 68 -106c76 0 118 113 118 208c0 61 -19 107 -68 107z" />
    <glyph glyph-name="uni2032" unicode="&#x2032;" horiz-adv-x="242" 
d="M112 434l75 256h75l-33 -97l-66 -159h-51z" />
    <glyph glyph-name="uni2033" unicode="&#x2033;" horiz-adv-x="408" 
d="M112 434l75 256h75l-33 -97l-66 -159h-51zM277 434l75 256h75l-32 -97l-67 -159h-51z" />
    <glyph glyph-name="guilsinglleft" unicode="&#x2039;" horiz-adv-x="252" 
d="M143 67l-103 158l11 62l156 148l28 -29l-142 -156l85 -161z" />
    <glyph glyph-name="guilsinglright" unicode="&#x203a;" horiz-adv-x="252" 
d="M115 435l103 -158l-11 -62l-156 -148l-28 29l141 156l-85 161z" />
    <glyph glyph-name="fraction" unicode="&#x2044;" horiz-adv-x="84" 
d="M-159 -12h-52l484 684h52z" />
    <glyph glyph-name="zero.sups" unicode="&#x2070;" horiz-adv-x="357" 
d="M224 428c-77 0 -123 65 -123 152c0 124 66 263 182 263c77 0 123 -65 123 -152c0 -125 -66 -263 -182 -263zM279 793c-76 0 -119 -113 -119 -209c0 -61 20 -106 69 -106c75 0 118 113 118 208c0 61 -20 107 -68 107z" />
    <glyph glyph-name="i.sups" unicode="&#x2071;" horiz-adv-x="163" 
d="M56 266l63 322h58l-64 -322h-57zM165 651c-19 0 -36 12 -36 34c0 21 19 41 42 41c19 0 36 -13 36 -34c0 -22 -19 -41 -42 -41z" />
    <glyph glyph-name="four.sups" unicode="&#x2074;" horiz-adv-x="354" 
d="M165 589h116l15 76l25 108h-4l-67 -84zM391 589l-10 -43h-56l-21 -106h-53l21 106h-176l7 33l213 251h65l-48 -241h58z" />
    <glyph glyph-name="five.sups" unicode="&#x2075;" horiz-adv-x="351" 
d="M86 508l41 29c20 -35 47 -60 97 -60c43 0 88 38 88 96c0 48 -28 76 -70 76c-30 0 -49 -11 -74 -29l-23 23l53 187h206l-10 -51h-157l-29 -101c17 11 38 15 54 15c64 0 110 -44 110 -114c0 -91 -72 -151 -151 -151c-66 0 -111 37 -135 80z" />
    <glyph glyph-name="six.sups" unicode="&#x2076;" horiz-adv-x="353" 
d="M255 638c-28 0 -61 -15 -87 -49v-6c0 -76 35 -106 74 -106s76 38 76 94c0 41 -23 67 -63 67zM408 804l-34 -38c-19 18 -40 27 -68 27c-64 0 -120 -55 -134 -156c21 24 58 45 96 45c66 0 106 -45 106 -106c0 -91 -67 -148 -137 -148c-71 0 -127 59 -127 152
c0 170 97 262 201 262c39 0 72 -13 97 -38z" />
    <glyph glyph-name="seven.sups" unicode="&#x2077;" horiz-adv-x="353" 
d="M159 440c32 129 88 235 186 339h-193l10 51h262l-5 -34c-123 -120 -167 -230 -196 -356h-64z" />
    <glyph glyph-name="eight.sups" unicode="&#x2078;" horiz-adv-x="353" 
d="M157 539c0 -41 31 -67 68 -67c44 0 83 28 83 72c0 46 -37 61 -79 82c-47 -22 -72 -54 -72 -87zM277 660c38 22 60 50 60 78c0 37 -24 59 -58 59c-39 0 -69 -26 -69 -62c0 -37 29 -61 67 -75zM99 531c0 56 48 99 96 121v4c-22 20 -39 45 -39 76c0 65 58 110 127 110
c63 0 108 -39 108 -97c0 -51 -39 -88 -76 -108v-4c28 -20 49 -46 49 -86c0 -70 -64 -119 -143 -119c-71 0 -122 42 -122 103z" />
    <glyph glyph-name="nine.sups" unicode="&#x2079;" horiz-adv-x="353" 
d="M246 632c28 0 61 15 87 49v6c0 76 -35 106 -74 106s-76 -38 -76 -94c0 -41 23 -67 63 -67zM92 466l35 38c18 -18 39 -27 68 -27c64 0 120 55 134 156c-21 -24 -58 -45 -96 -45c-66 0 -106 45 -106 106c0 91 67 148 137 148c71 0 126 -59 126 -152
c0 -170 -96 -262 -200 -262c-40 0 -73 13 -98 38z" />
    <glyph glyph-name="parenleft.sups" unicode="&#x207d;" horiz-adv-x="227" 
d="M274 906l39 -22c-90 -110 -131 -215 -131 -332c0 -54 8 -123 30 -171l-44 -20c-26 55 -42 121 -42 192c0 135 44 232 148 353z" />
    <glyph glyph-name="parenright.sups" unicode="&#x207e;" horiz-adv-x="226" 
d="M101 361l-38 21c89 110 130 215 130 332c0 54 -8 123 -29 171l44 21c26 -55 42 -122 42 -192c0 -136 -45 -233 -149 -353z" />
    <glyph glyph-name="n.sups" unicode="&#x207f;" horiz-adv-x="355" 
d="M56 266l63 322h47l-4 -46h4c35 30 72 54 113 54c56 0 77 -31 77 -82c0 -15 -3 -27 -6 -43l-41 -205h-58l40 197c3 16 5 25 5 36c0 31 -14 47 -41 47c-29 0 -59 -18 -97 -57l-45 -223h-57z" />
    <glyph glyph-name="zero.subs" unicode="&#x2080;" horiz-adv-x="357" 
d="M104 -182c-77 0 -123 65 -123 152c0 124 66 263 182 263c77 0 123 -65 123 -152c0 -125 -66 -263 -182 -263zM159 183c-76 0 -119 -113 -119 -209c0 -61 20 -106 69 -106c75 0 118 113 118 208c0 61 -20 107 -68 107z" />
    <glyph glyph-name="one.subs" unicode="&#x2081;" horiz-adv-x="356" 
d="M86 -170l62 312h-89l7 39c53 8 79 18 110 39h47l-77 -390h-60z" />
    <glyph glyph-name="two.subs" unicode="&#x2082;" horiz-adv-x="353" 
d="M-33 -170l7 38c164 115 232 178 232 250c0 38 -21 62 -65 62c-28 0 -56 -20 -81 -47l-35 36c37 36 76 63 125 63c72 0 116 -40 116 -105c0 -83 -66 -149 -195 -246h164l-10 -51h-258z" />
    <glyph glyph-name="three.subs" unicode="&#x2083;" horiz-adv-x="351" 
d="M-34 -102l41 29c20 -35 47 -60 91 -60c47 0 84 26 84 72c0 39 -31 71 -107 71l9 41c90 0 120 41 120 78c0 33 -23 55 -61 55c-28 0 -54 -11 -83 -33l-26 41c39 28 77 40 120 40c65 0 111 -36 111 -95c0 -49 -34 -91 -92 -109c46 -16 68 -54 68 -88
c0 -77 -65 -122 -141 -122c-65 0 -110 37 -134 80z" />
    <glyph glyph-name="four.subs" unicode="&#x2084;" horiz-adv-x="354" 
d="M45 -21h116l15 76l25 108h-4l-67 -84zM271 -21l-10 -43h-56l-21 -106h-53l21 106h-176l7 33l213 251h65l-48 -241h58z" />
    <glyph glyph-name="five.subs" unicode="&#x2085;" horiz-adv-x="351" 
d="M-34 -102l41 29c20 -35 47 -60 97 -60c43 0 88 38 88 96c0 48 -28 76 -70 76c-30 0 -49 -11 -74 -29l-23 23l53 187h206l-10 -51h-157l-29 -101c17 11 38 15 54 15c64 0 110 -44 110 -114c0 -91 -72 -151 -151 -151c-66 0 -111 37 -135 80z" />
    <glyph glyph-name="six.subs" unicode="&#x2086;" horiz-adv-x="353" 
d="M135 28c-28 0 -61 -15 -87 -49v-6c0 -76 35 -106 74 -106s76 38 76 94c0 41 -23 67 -63 67zM288 194l-34 -38c-19 18 -40 27 -68 27c-64 0 -120 -55 -134 -156c21 24 58 45 96 45c66 0 106 -45 106 -106c0 -91 -67 -148 -137 -148c-71 0 -127 59 -127 152
c0 170 97 262 201 262c39 0 72 -13 97 -38z" />
    <glyph glyph-name="seven.subs" unicode="&#x2087;" horiz-adv-x="353" 
d="M39 -170c32 129 88 235 186 339h-193l10 51h262l-5 -34c-123 -120 -167 -230 -196 -356h-64z" />
    <glyph glyph-name="eight.subs" unicode="&#x2088;" horiz-adv-x="353" 
d="M37 -71c0 -41 31 -67 68 -67c44 0 83 28 83 72c0 46 -37 61 -79 82c-47 -22 -72 -54 -72 -87zM157 50c38 22 60 50 60 78c0 37 -24 59 -58 59c-39 0 -69 -26 -69 -62c0 -37 29 -61 67 -75zM-21 -79c0 56 48 99 96 121v4c-22 20 -39 45 -39 76c0 65 58 110 127 110
c63 0 108 -39 108 -97c0 -51 -39 -88 -76 -108v-4c28 -20 49 -46 49 -86c0 -70 -64 -119 -143 -119c-71 0 -122 42 -122 103z" />
    <glyph glyph-name="nine.subs" unicode="&#x2089;" horiz-adv-x="353" 
d="M126 22c28 0 61 15 87 49v6c0 76 -35 106 -74 106s-76 -38 -76 -94c0 -41 23 -67 63 -67zM-28 -144l35 38c18 -18 39 -27 68 -27c64 0 120 55 134 156c-21 -24 -58 -45 -96 -45c-66 0 -106 45 -106 106c0 91 67 148 137 148c71 0 126 -59 126 -152
c0 -170 -96 -262 -200 -262c-40 0 -73 13 -98 38z" />
    <glyph glyph-name="parenleft.subs" unicode="&#x208d;" horiz-adv-x="227" 
d="M154 296l39 -22c-90 -110 -131 -215 -131 -332c0 -54 8 -123 30 -171l-44 -20c-26 55 -42 121 -42 192c0 135 44 232 148 353z" />
    <glyph glyph-name="parenright.subs" unicode="&#x208e;" horiz-adv-x="226" 
d="M-19 -249l-38 21c89 110 130 215 130 332c0 54 -8 123 -29 171l44 21c26 -55 42 -122 42 -192c0 -136 -45 -233 -149 -353z" />
    <glyph glyph-name="uni0259.sups" unicode="&#x2094;" horiz-adv-x="320" 
d="M333 461c0 -121 -92 -203 -173 -203c-77 0 -106 55 -106 117c0 24 7 55 13 69h210c6 74 -26 106 -76 106c-28 0 -49 -10 -73 -23l-18 40c30 16 66 29 104 29c72 0 119 -47 119 -135zM270 405h-163c-2 -11 -4 -22 -4 -34c0 -36 16 -67 63 -67c42 0 89 38 104 101z" />
    <glyph glyph-name="colonmonetary" unicode="&#x20a1;" horiz-adv-x="480" 
d="M346 590l-159 -509c14 -13 31 -22 49 -26l164 525c-14 6 -29 10 -48 10h-6zM162 114l147 469c-98 -32 -173 -170 -173 -346c0 -50 9 -92 26 -123zM515 548l-56 -35c-9 17 -19 32 -30 44l-158 -505c45 2 84 26 116 57l38 -47c-51 -46 -107 -74 -174 -74l-31 -98h-35
l31 101c-18 3 -36 9 -51 17l-37 -118h-36l43 138c-47 41 -73 111 -73 201c0 236 122 402 268 422l31 100h35l-31 -98c21 -1 38 -5 54 -11l34 109h36l-39 -125c28 -20 48 -47 65 -78z" />
    <glyph glyph-name="lira" unicode="&#x20a4;" horiz-adv-x="480" 
d="M79 387l70 4c-1 15 -2 29 -2 42c0 136 86 220 204 220c67 0 112 -38 140 -83l-52 -41c-22 36 -52 61 -92 61c-73 0 -128 -61 -128 -162c0 -11 1 -23 2 -36h165l-10 -45h-151c1 -21 3 -42 3 -61v-2h135l-9 -45h-129c-8 -69 -36 -121 -85 -169l-1 -4h259l-12 -66h-382l9 46
c83 41 131 112 142 193h-108l10 40l97 5h3c-1 19 -2 41 -4 63h-84z" />
    <glyph glyph-name="uni20A6" unicode="&#x20a6;" horiz-adv-x="480" 
d="M344 308l8 39h-74l10 -65h52zM312 80l23 164h-43l16 -164h4zM151 282h77l-9 65h-57l-2 -17zM195 559h-2l-25 -174h46zM479 347h-69l-13 -65h70l-8 -38h-70l-49 -244h-72l-35 244h-90l-48 -244h-61l49 244h-74l9 34l72 4l13 65h-73l8 33l73 5l51 256h72l38 -256h87l50 256
h61l-52 -256h70z" />
    <glyph glyph-name="peseta" unicode="&#x20a7;" horiz-adv-x="480" 
d="M166 306h30c91 0 154 41 175 119h-181zM251 588h-29l-22 -111h178v7c0 73 -44 104 -127 104zM509 477l-10 -52h-56c-28 -116 -129 -172 -248 -172h-41l-50 -253h-74l86 425h-72l9 48l73 4l33 164h115c104 0 176 -46 176 -149v-15h59z" />
    <glyph glyph-name="dong" unicode="&#x20ab;" horiz-adv-x="480" 
d="M32 0l9 45h344l-10 -45h-343zM324 220l30 154c-18 33 -43 48 -72 48c-66 0 -141 -71 -141 -168c0 -54 24 -89 70 -89c37 0 72 18 113 55zM541 604l-9 -41l-75 -5l-89 -438h-55l5 45h-2c-35 -31 -82 -55 -126 -55c-73 0 -116 53 -116 133c0 139 107 233 205 233
c45 0 68 -20 88 -48l15 85l9 45h-133l9 46h134l14 71h66l-14 -71h74z" />
    <glyph glyph-name="Euro" unicode="&#x20ac;" horiz-adv-x="480" 
d="M520 557l-58 -37c-20 41 -45 70 -92 70c-83 0 -153 -79 -188 -191h250l-9 -44h-252c-5 -22 -8 -46 -10 -70h210l-10 -45h-202c0 -121 48 -188 126 -188c47 0 86 25 119 57l38 -47c-49 -46 -105 -74 -171 -74c-116 0 -189 89 -189 252h-62l10 40l54 4c2 25 5 48 10 71h-51
l9 40l53 3c45 153 153 255 272 255c73 0 115 -43 143 -96z" />
    <glyph glyph-name="uni20B1" unicode="&#x20b1;" horiz-adv-x="480" 
d="M189 420h181c5 18 8 39 8 61h-177zM165 302h31c73 0 129 27 159 80h-174zM251 588h-29l-14 -69h166c-13 49 -55 69 -123 69zM509 481h-59c-1 -22 -4 -42 -8 -61h55l-8 -38h-60c-40 -90 -131 -133 -235 -133h-40l-50 -249h-74l77 382h-71l7 33l71 5l13 61h-72l7 34l72 4
l25 122h115c94 0 162 -37 174 -122h70z" />
    <glyph glyph-name="uni20B2" unicode="&#x20b2;" horiz-adv-x="480" 
d="M280 265l14 64h165l-53 -266c-36 -37 -85 -69 -150 -74l-20 -99h-56l19 101c-95 18 -151 106 -151 238c0 235 131 401 282 422l21 100h55l-20 -100c59 -8 95 -47 119 -94l-57 -37c-20 41 -45 70 -92 70c-125 0 -231 -153 -231 -353c0 -114 45 -185 124 -185
c40 0 74 19 93 40l35 173h-97z" />
    <glyph glyph-name="uni20B5" unicode="&#x20b5;" horiz-adv-x="480" 
d="M228 57l106 532c-109 -15 -196 -161 -196 -352c0 -96 32 -161 90 -180zM507 552l-55 -36c-18 35 -37 60 -69 70l-107 -533c42 4 77 27 107 56l39 -47c-47 -43 -98 -70 -158 -74l-20 -98h-50l20 101c-96 18 -152 106 -152 238c0 246 132 415 285 424l19 94h49l-20 -98
c54 -12 88 -51 112 -97z" />
    <glyph glyph-name="uni20B9" unicode="&#x20b9;" horiz-adv-x="480" 
d="M510 641l-11 -45h-139c32 -21 52 -55 54 -99h67l-9 -46h-61c-14 -94 -83 -154 -167 -179l109 -272h-82l-98 258c-10 -1 -20 -1 -30 -1h-73l13 63h53c105 0 184 44 199 131h-227l9 41l68 5h152c-7 60 -59 81 -139 81h-64l13 63h363z" />
    <glyph glyph-name="uni20BA" unicode="&#x20ba;" horiz-adv-x="480" 
d="M173 61c121 5 225 80 226 211l68 17c4 -214 -177 -301 -387 -301l58 290l-98 -40l10 50l99 40l15 74l-99 -40l10 50l99 40l37 186h77l-32 -160l178 72l-10 -50l-179 -72l-14 -74l178 72l-11 -50l-178 -72z" />
    <glyph glyph-name="uni2113" unicode="&#x2113;" horiz-adv-x="394" 
d="M233 517l-43 -215c110 96 180 206 180 291c0 46 -16 68 -43 68c-32 0 -74 -45 -94 -144zM173 216l-4 -20c-23 -106 10 -143 60 -143c43 0 77 24 107 45l22 -48c-41 -32 -90 -62 -148 -62c-82 0 -140 59 -124 169c-20 -12 -39 -23 -60 -34l-19 53c33 17 64 36 93 56
l54 270c31 154 103 218 180 218c64 0 102 -47 102 -117c0 -120 -95 -264 -263 -387z" />
    <glyph glyph-name="uni2117" unicode="&#x2117;" horiz-adv-x="665" 
d="M196 137l72 363h125c71 0 124 -33 124 -97c0 -100 -83 -150 -174 -150h-65l-22 -116h-60zM288 298h58c70 0 112 36 112 94c0 39 -29 61 -79 61h-61zM298 -11c-155 0 -262 115 -262 277c0 197 145 387 362 387c155 0 263 -114 263 -276c0 -197 -146 -388 -363 -388z
M395 613c-187 0 -316 -173 -316 -342c0 -141 83 -241 222 -241c187 0 317 173 317 342c0 141 -83 241 -223 241z" />
    <glyph glyph-name="uni2120" unicode="&#x2120;" horiz-adv-x="601" 
d="M43 409l38 31c17 -25 42 -41 71 -41c34 0 61 21 61 48c0 20 -12 30 -30 41l-41 24c-19 12 -44 35 -44 72c0 58 49 99 114 99c36 0 64 -18 89 -42l-36 -34c-20 21 -37 32 -58 32c-34 0 -56 -23 -56 -43c0 -21 16 -35 32 -43l39 -23c26 -14 45 -37 45 -72
c0 -55 -48 -104 -119 -104c-47 0 -81 20 -105 55zM310 366l62 310h68l23 -115l11 -81h4l40 81l71 115h69l-61 -310h-55l28 140l32 112h-4l-118 -204h-35l-38 204h-4l-11 -112l-29 -140h-53z" />
    <glyph glyph-name="trademark" unicode="&#x2122;" horiz-adv-x="611" 
d="M320 366l62 310h68l23 -115l11 -81h4l40 81l71 115h69l-61 -310h-55l28 140l32 112h-4l-118 -204h-35l-38 204h-4l-11 -112l-29 -140h-53zM123 366l52 260h-99l11 50h249l-10 -50h-96l-52 -260h-55z" />
    <glyph glyph-name="uni2126" unicode="&#x2126;" horiz-adv-x="658" 
d="M-7 0l12 64h131v4c-34 42 -70 118 -70 212c0 224 149 388 343 388c140 0 223 -97 223 -242c0 -176 -96 -290 -178 -358l-2 -4h124l-11 -64h-227l11 51c108 74 202 193 202 363c0 111 -56 187 -154 187c-144 0 -254 -140 -254 -328c0 -100 37 -178 86 -222l-10 -51h-226z
" />
    <glyph glyph-name="estimated" unicode="&#x212e;" horiz-adv-x="800" 
d="M204 108c54 -62 132 -100 218 -100c90 0 172 44 228 112h52c-66 -80 -168 -132 -282 -132c-196 0 -354 150 -354 336s158 336 354 336s354 -150 354 -336v-8h-574c-2 0 -4 -2 -4 -4v-184c0 -8 4 -14 8 -20zM200 334h440c4 0 6 2 6 6v184c0 8 -4 16 -10 22
c-56 58 -132 94 -214 94c-86 0 -162 -38 -218 -98c-4 -6 -8 -14 -8 -22v-180c0 -4 2 -6 4 -6z" />
    <glyph glyph-name="onethird" unicode="&#x2153;" horiz-adv-x="778" 
d="M142 270l63 312h-90l8 39c52 8 78 18 110 39h47l-78 -390h-60zM151 -12h-52l484 684h52zM426 68l41 29c19 -35 46 -60 90 -60c47 0 85 26 85 72c0 39 -31 71 -107 71l9 41c90 0 120 41 120 78c0 33 -23 55 -62 55c-27 0 -54 -11 -82 -33l-27 41c39 28 77 40 121 40
c64 0 110 -36 110 -95c0 -49 -33 -91 -91 -109c45 -16 68 -54 68 -88c0 -77 -65 -122 -141 -122c-65 0 -111 37 -134 80z" />
    <glyph glyph-name="twothirds" unicode="&#x2154;" horiz-adv-x="795" 
d="M51 270l7 38c163 115 231 178 231 250c0 38 -21 62 -64 62c-28 0 -56 -20 -81 -47l-35 36c37 36 75 63 125 63c71 0 116 -40 116 -105c0 -83 -66 -149 -195 -246h163l-10 -51h-257zM201 -12h-52l484 684h52zM442 68l41 29c19 -35 46 -60 91 -60c47 0 84 26 84 72
c0 39 -31 71 -107 71l9 41c90 0 120 41 120 78c0 33 -23 55 -61 55c-28 0 -55 -11 -83 -33l-27 41c40 28 78 40 121 40c65 0 110 -36 110 -95c0 -49 -33 -91 -91 -109c46 -16 68 -54 68 -88c0 -77 -65 -122 -141 -122c-65 0 -110 37 -134 80z" />
    <glyph glyph-name="oneeighth" unicode="&#x215b;" horiz-adv-x="773" 
d="M142 270l63 312h-90l8 39c52 8 78 18 110 39h47l-78 -390h-60zM153 -12h-52l484 684h52zM490 99c0 -41 31 -67 68 -67c44 0 84 28 84 72c0 46 -38 61 -80 82c-47 -22 -72 -54 -72 -87zM610 220c39 22 60 50 60 78c0 37 -24 59 -58 59c-39 0 -69 -26 -69 -62
c0 -37 29 -61 67 -75zM432 91c0 56 48 99 96 121l1 4c-22 20 -40 45 -40 76c0 65 58 110 127 110c63 0 109 -39 109 -97c0 -51 -40 -88 -77 -108v-4c28 -20 50 -46 50 -86c0 -70 -65 -119 -144 -119c-71 0 -122 42 -122 103z" />
    <glyph glyph-name="threeeighths" unicode="&#x215c;" horiz-adv-x="787" 
d="M42 338l42 29c19 -35 46 -60 90 -60c47 0 85 26 85 72c0 39 -32 71 -107 71l9 41c89 0 119 41 119 78c0 33 -22 55 -61 55c-28 0 -54 -11 -83 -33l-26 41c39 28 77 40 120 40c65 0 111 -36 111 -95c0 -49 -34 -91 -91 -109c45 -16 68 -54 68 -88
c0 -77 -65 -122 -141 -122c-65 0 -111 37 -135 80zM194 -12h-53l484 684h52zM502 99c0 -41 32 -67 69 -67c44 0 83 28 83 72c0 46 -37 61 -79 82c-47 -22 -73 -54 -73 -87zM623 220c38 22 60 50 60 78c0 37 -24 59 -58 59c-39 0 -69 -26 -69 -62c0 -37 29 -61 67 -75z
M445 91c0 56 48 99 96 121v4c-22 20 -39 45 -39 76c0 65 57 110 127 110c63 0 108 -39 108 -97c0 -51 -39 -88 -76 -108v-4c28 -20 49 -46 49 -86c0 -70 -64 -119 -143 -119c-71 0 -122 42 -122 103z" />
    <glyph glyph-name="fiveeighths" unicode="&#x215d;" horiz-adv-x="787" 
d="M46 338l41 29c20 -35 47 -60 97 -60c43 0 88 38 88 96c0 48 -28 76 -70 76c-30 0 -49 -11 -74 -29l-23 23l53 187h206l-10 -51h-157l-29 -101c17 11 38 15 54 15c64 0 110 -44 110 -114c0 -91 -72 -151 -151 -151c-66 0 -111 37 -135 80zM194 -12h-53l484 684h52zM502 99
c0 -41 32 -67 69 -67c44 0 83 28 83 72c0 46 -37 61 -79 82c-47 -22 -73 -54 -73 -87zM623 220c38 22 60 50 60 78c0 37 -24 59 -58 59c-39 0 -69 -26 -69 -62c0 -37 29 -61 67 -75zM445 91c0 56 48 99 96 121v4c-22 20 -39 45 -39 76c0 65 57 110 127 110
c63 0 108 -39 108 -97c0 -51 -39 -88 -76 -108v-4c28 -20 49 -46 49 -86c0 -70 -64 -119 -143 -119c-71 0 -122 42 -122 103z" />
    <glyph glyph-name="seveneighths" unicode="&#x215e;" horiz-adv-x="770" 
d="M102 270c33 129 89 235 187 339h-193l10 51h261l-4 -34c-124 -120 -167 -230 -196 -356h-65zM147 -12h-52l484 684h52zM486 99c0 -41 31 -67 68 -67c44 0 84 28 84 72c0 46 -37 61 -80 82c-46 -22 -72 -54 -72 -87zM607 220c38 22 59 50 59 78c0 37 -24 59 -57 59
c-39 0 -69 -26 -69 -62c0 -37 28 -61 67 -75zM429 91c0 56 48 99 95 121l1 4c-22 20 -40 45 -40 76c0 65 58 110 128 110c62 0 108 -39 108 -97c0 -51 -39 -88 -76 -108v-4c28 -20 49 -46 49 -86c0 -70 -65 -119 -144 -119c-71 0 -121 42 -121 103z" />
    <glyph glyph-name="uni2190" unicode="&#x2190;" horiz-adv-x="593" 
d="M20 248v5l261 264l39 -42l-195 -193h449v-63h-449l195 -193l-39 -42z" />
    <glyph glyph-name="arrowup" unicode="&#x2191;" horiz-adv-x="593" 
d="M294 527h5l264 -261l-42 -39l-193 195v-449h-63v449l-193 -195l-42 39z" />
    <glyph glyph-name="uni2192" unicode="&#x2192;" horiz-adv-x="593" 
d="M574 253v-5l-262 -264l-39 42l195 193h-448v63h448l-195 193l39 42z" />
    <glyph glyph-name="arrowdown" unicode="&#x2193;" horiz-adv-x="593" 
d="M299 -27h-5l-264 262l42 39l193 -195v448h63v-448l193 195l42 -39z" />
    <glyph glyph-name="partialdiff" unicode="&#x2202;" horiz-adv-x="519" 
d="M193 52c83 1 152 90 192 198c-26 50 -67 92 -132 92c-96 0 -158 -96 -158 -187c1 -53 36 -103 98 -103zM210 564l-33 48c41 32 88 55 141 55c119 0 178 -82 178 -209c0 -224 -131 -469 -314 -469c-88 0 -159 60 -159 157c0 124 91 258 229 258c69 0 118 -37 152 -91
c12 46 18 93 18 137c0 92 -35 155 -114 155c-34 0 -71 -19 -98 -41z" />
    <glyph glyph-name="uni2206" unicode="&#x2206;" horiz-adv-x="565" 
d="M-19 0l9 45l332 611h90l77 -611l-9 -45h-499zM245 377l-166 -311h327l-34 311c-5 69 -12 139 -17 214h-4c-35 -76 -69 -142 -106 -214z" />
    <glyph glyph-name="product" unicode="&#x220f;" horiz-adv-x="646" 
d="M13 -120l151 758h472l-151 -758h-76l138 690h-319l-139 -690h-76z" />
    <glyph glyph-name="summation" unicode="&#x2211;" horiz-adv-x="485" 
d="M-43 -70l300 339l-156 318l9 51h421l-14 -66h-329v-4l146 -307l-275 -311v-4h362l-15 -66h-458z" />
    <glyph glyph-name="minus" unicode="&#x2212;" horiz-adv-x="480" 
d="M458 302h-410v57h410v-57z" />
    <glyph glyph-name="uni2215" unicode="&#x2215;" horiz-adv-x="84" 
d="M-159 -12h-52l484 684h52z" />
    <glyph glyph-name="uni2219" unicode="&#x2219;" horiz-adv-x="244" 
d="M126 268c-29 0 -47 22 -47 50c0 34 29 71 67 71c29 0 46 -22 46 -52c0 -34 -28 -69 -66 -69z" />
    <glyph glyph-name="radical" unicode="&#x221a;" horiz-adv-x="537" 
d="M240 51l3 -61h4l23 61l324 769h58l-392 -917h-57l-59 430l-77 -32l-6 44l138 58z" />
    <glyph glyph-name="infinity" unicode="&#x221e;" horiz-adv-x="752" 
d="M180 169c-84 0 -148 68 -148 160c0 95 65 162 155 162c79 0 132 -58 167 -105h4c50 67 102 120 181 120c97 0 169 -68 169 -175c0 -103 -72 -179 -168 -179c-81 0 -137 45 -195 121h-4c-33 -46 -84 -104 -161 -104zM383 337c53 -74 100 -114 159 -114
c65 0 106 50 106 112c0 65 -44 113 -112 113c-56 0 -106 -43 -153 -111zM187 227c52 0 96 44 129 96c-39 57 -83 98 -130 98c-55 0 -94 -37 -94 -95c0 -57 42 -99 95 -99z" />
    <glyph glyph-name="integral" unicode="&#x222b;" horiz-adv-x="321" 
d="M-10 -94c8 -2 19 -4 33 -4c57 0 79 62 99 167c30 145 30 346 59 492c25 129 63 228 173 228c20 0 38 -2 47 -6l-16 -58c-7 2 -20 4 -36 4c-54 0 -79 -65 -98 -167c-29 -147 -31 -346 -59 -493c-27 -131 -65 -227 -174 -227c-19 0 -35 2 -44 7z" />
    <glyph glyph-name="approxequal" unicode="&#x2248;" horiz-adv-x="480" 
d="M88 391l-43 28c33 62 78 89 119 89c73 0 117 -86 170 -86c29 0 52 18 74 61l43 -28c-33 -62 -78 -89 -119 -89c-73 0 -117 86 -170 86c-29 0 -52 -18 -74 -61zM88 178l-43 27c33 63 78 89 119 89c73 0 117 -85 170 -85c29 0 52 18 74 60l43 -27c-33 -62 -78 -89 -119 -89
c-73 0 -117 85 -170 85c-29 0 -52 -18 -74 -60z" />
    <glyph glyph-name="notequal" unicode="&#x2260;" horiz-adv-x="480" 
d="M458 194h-254l-78 -126h-55l77 126h-100v58h130l94 156h-224v58h254l78 126h55l-77 -126h100v-58h-130l-94 -156h224v-58z" />
    <glyph glyph-name="lessequal" unicode="&#x2264;" horiz-adv-x="480" 
d="M458 0h-410v58h410v-58zM46 308v65l412 153v-65l-202 -75l-126 -44v-4l126 -43l202 -74v-66z" />
    <glyph glyph-name="greaterequal" unicode="&#x2265;" horiz-adv-x="480" 
d="M458 0h-410v58h410v-58zM48 155v66l203 74l126 43v4l-126 44l-203 75v65l412 -153v-65z" />
    <glyph glyph-name="uni231C" unicode="&#x231c;" horiz-adv-x="292" 
d="M98 0h-60l137 689h170l-8 -44h-112z" />
    <glyph glyph-name="uni231D" unicode="&#x231d;" horiz-adv-x="293" 
d="M151 0h-58l129 645h-112l9 44h171z" />
    <glyph glyph-name="uni231E" unicode="&#x231e;" horiz-adv-x="292" 
d="M167 638h58l-129 -645h112l-9 -45h-171z" />
    <glyph glyph-name="uni231F" unicode="&#x231f;" horiz-adv-x="293" 
d="M220 638h59l-137 -690h-170l8 45h112z" />
    <glyph glyph-name="uni25A0" unicode="&#x25a0;" horiz-adv-x="291" 
d="M50 363h191v-200h-191v200z" />
    <glyph glyph-name="triagup" unicode="&#x25b2;" horiz-adv-x="546" 
d="M272 533h2l250 -492v-2h-502v2z" />
    <glyph glyph-name="uni25B3" unicode="&#x25b3;" horiz-adv-x="546" 
d="M119 94h310l-155 323zM22 40v2l250 490h4l249 -490v-2h-503z" />
    <glyph glyph-name="uni25B6" unicode="&#x25b6;" horiz-adv-x="548" 
d="M529 284v-4l-472 -259h-2v521h2z" />
    <glyph glyph-name="uni25B7" unicode="&#x25b7;" horiz-adv-x="548" 
d="M110 117l301 165l-301 164v-329zM55 21v521h2l473 -258v-4l-473 -259h-2z" />
    <glyph glyph-name="triagdn" unicode="&#x25bc;" horiz-adv-x="546" 
d="M274 30h-2l-250 491v2h502v-2z" />
    <glyph glyph-name="uni25BD" unicode="&#x25bd;" horiz-adv-x="546" 
d="M429 469h-310l155 -323zM22 521v2h503v-2l-249 -491h-4z" />
    <glyph glyph-name="uni25C0" unicode="&#x25c0;" horiz-adv-x="548" 
d="M18 280v4l472 258h2v-521h-2z" />
    <glyph glyph-name="uni25C1" unicode="&#x25c1;" horiz-adv-x="548" 
d="M135 282l302 -165v329zM492 542v-521h-2l-472 259v4l472 258h2z" />
    <glyph glyph-name="uni25C6" unicode="&#x25c6;" horiz-adv-x="291" 
d="M146 127l-134 136l134 137l134 -137z" />
    <glyph glyph-name="uni25C9" unicode="&#x25c9;" horiz-adv-x="422" 
d="M211 128c65 0 124 49 124 135s-59 136 -124 136c-64 0 -123 -50 -123 -136s59 -135 123 -135zM211 205c-28 0 -54 23 -54 58s26 59 54 59c29 0 55 -24 55 -59s-26 -58 -55 -58zM211 81c-92 0 -172 71 -172 182s80 182 172 182c93 0 173 -71 173 -182s-80 -182 -173 -182z
" />
    <glyph glyph-name="lozenge" unicode="&#x25ca;" horiz-adv-x="499" 
d="M228 -10l-158 340l158 340h71l158 -340l-158 -340h-71zM261 54h4l61 133l63 143l-63 141l-61 135h-4l-60 -135l-63 -141l63 -143z" />
    <glyph glyph-name="uni2610" unicode="&#x2610;" horiz-adv-x="765" 
d="M624 597h-513v-566h513v566zM70 -10v629l60 52h565v-621l-50 -60h-575z" />
    <glyph glyph-name="uni2611" unicode="&#x2611;" horiz-adv-x="766" 
d="M624 32v527c-112 -127 -216 -280 -292 -447l-80 -8c-14 103 -41 197 -79 282l58 30c32 -80 57 -164 67 -249h4c68 148 170 300 281 430h-471v-565h512zM776 793l42 -45c-40 -33 -81 -71 -122 -112v-585l-51 -61h-575v629l61 52h519c42 45 84 86 126 122z" />
    <glyph glyph-name="uni266A" unicode="&#x266a;" horiz-adv-x="480" 
d="M244 694h45c8 -27 16 -36 65 -74c86 -64 112 -118 112 -199c0 -47 -16 -93 -32 -126l-30 12c10 33 13 56 13 89c0 69 -47 130 -122 155v-412c0 -108 -77 -163 -165 -163c-51 0 -97 26 -97 74c0 62 63 117 151 117c25 0 51 -7 60 -12v539z" />
    <glyph glyph-name="uni2713" unicode="&#x2713;" horiz-adv-x="542" 
d="M152 -11l-80 -9c-16 109 -44 208 -86 298l58 30c36 -84 61 -175 73 -265h4c108 237 298 482 484 639l42 -45c-186 -150 -375 -380 -495 -648z" />
    <glyph glyph-name="uni2752" unicode="&#x2752;" horiz-adv-x="359" 
d="M241 321h-152v-160h152v160zM53 123v221l56 49h200v-213l-48 -57h-208z" />
    <glyph glyph-name="uni2E22" unicode="&#x2e22;" horiz-adv-x="292" 
d="M154 278h-60l86 430h171l-9 -45h-111z" />
    <glyph glyph-name="uni2E23" unicode="&#x2e23;" horiz-adv-x="293" 
d="M208 278h-58l76 385h-112l9 45h171z" />
    <glyph glyph-name="uni2E24" unicode="&#x2e24;" horiz-adv-x="292" 
d="M94 278h58l-76 -385h112l-9 -45h-171z" />
    <glyph glyph-name="uni2E25" unicode="&#x2e25;" horiz-adv-x="293" 
d="M148 278h60l-86 -430h-171l9 45h112z" />
    <glyph glyph-name="fi" unicode="&#xfb01;" horiz-adv-x="519" 
d="M65 424l11 57l65 5l16 81c20 98 72 157 154 157c35 0 62 -10 86 -24l-27 -55c-14 9 -31 17 -54 17c-44 0 -71 -36 -82 -93l-17 -83h98l-12 -62h-99l-85 -424h-76l85 424h-63zM313 0l97 486h77l-98 -486h-76zM475 587c-26 0 -49 16 -49 45c0 33 27 58 58 58
c26 0 49 -17 49 -46c0 -33 -27 -57 -58 -57z" />
    </font>
</defs>
</svg>
