<?xml version="1.0" standalone="no"?>
<!DOCTYPE svg PUBLIC "-//W3C//DTD SVG 1.1//EN" "http://www.w3.org/Graphics/SVG/1.1/DTD/svg11.dtd" >
<svg>
<metadata>
Created by FontForge 20120731 at Fri Aug  1 16:50:39 2014
 By Alfred Xing
Copyright 2010, 2012 Adobe Systems Incorporated. All Rights Reserved.
</metadata>
<defs>
<font id="SourceSansPro-BoldIt" horiz-adv-x="509" >
  <font-face 
    font-family="Source Sans Pro"
    font-weight="700"
    font-style="italic"
    font-stretch="normal"
    units-per-em="1000"
    panose-1="2 11 7 3 3 4 3 9 2 4"
    ascent="750"
    descent="-250"
    x-height="496"
    cap-height="652"
    bbox="-215 -297 1166 969"
    underline-thickness="50"
    underline-position="-50"
    slope="-11"
    stemh="115"
    stemv="146"
    unicode-range="U+0020-FEFF"
  />
<missing-glyph horiz-adv-x="663" 
d="M29 0l130 660h505l-130 -660h-505zM282 340l-54 193l-78 -387zM416 340l54 -194l79 387zM274 172l-58 -86h163l-22 86l-20 97h-4zM365 408l61 96l45 70h-152l20 -70l22 -96h4z" />
    <glyph glyph-name="f_f" unicode="ff" horiz-adv-x="625" 
d="M741 686l-43 -97c-11 7 -31 15 -48 15c-37 0 -59 -16 -70 -70l-8 -38h87l-20 -107h-88l-77 -389h-137l79 389h-165l-78 -389h-137l79 389h-64l21 101l64 5l5 24c21 102 79 184 194 184c39 0 76 -10 108 -27l-44 -97c-12 7 -31 15 -50 15c-38 0 -60 -16 -71 -70l-6 -28
h165l7 33c20 102 78 184 191 184c39 0 75 -10 106 -27z" />
    <glyph glyph-name="f_t" unicode="ft" horiz-adv-x="650" 
d="M531 389l-44 -213c-2 -12 -2 -22 -2 -33c0 -32 16 -48 52 -48c14 0 27 5 40 11l25 -96c-26 -10 -66 -22 -117 -22c-100 0 -140 55 -140 131c0 21 3 42 7 63l43 207h-144l-78 -389h-137l79 389h-64l21 101l64 5l7 34c20 102 78 184 192 184c38 0 75 -10 106 -27l-44 -97
c-11 7 -30 15 -48 15c-36 0 -59 -16 -69 -70l-8 -38h151l42 130h114l-24 -130h112l-21 -107h-115z" />
    <glyph glyph-name=".notdef" horiz-adv-x="663" 
d="M29 0l130 660h505l-130 -660h-505zM282 340l-54 193l-78 -387zM416 340l54 -194l79 387zM274 172l-58 -86h163l-22 86l-20 97h-4zM365 408l61 96l45 70h-152l20 -70l22 -96h4z" />
    <glyph glyph-name="space" unicode=" " horiz-adv-x="198" 
 />
    <glyph glyph-name="exclam" unicode="!" horiz-adv-x="331" 
d="M115 226l46 318l19 126h137l-29 -126l-83 -318h-90zM116 -12c-43 0 -71 30 -71 74c0 49 40 101 98 101c43 0 71 -32 71 -75c0 -50 -40 -100 -98 -100z" />
    <glyph glyph-name="quotedbl" unicode="&#x22;" horiz-adv-x="510" 
d="M121 363l21 181l18 126h135l-28 -126l-57 -181h-89zM340 363l21 181l18 126h135l-28 -126l-56 -181h-90z" />
    <glyph glyph-name="numbersign" unicode="#" horiz-adv-x="506" 
d="M34 0l60 188h-76l21 89h82l36 116h-76l22 89h82l54 168h81l-54 -168h100l54 168h80l-53 -168h75l-21 -89h-82l-36 -116h76l-21 -89h-83l-60 -188h-81l60 188h-100l-60 -188h-80zM202 277h100l36 116h-100z" />
    <glyph glyph-name="dollar" unicode="$" 
d="M497 563l-86 -77c-26 35 -63 59 -101 59c-46 0 -75 -29 -75 -68c0 -97 202 -123 202 -286c0 -108 -74 -188 -191 -201l-21 -100h-90l21 105c-57 13 -111 46 -150 93l84 83c30 -39 74 -73 125 -73c55 0 87 29 87 76c0 109 -202 136 -202 287c0 105 75 182 187 193l19 99
h91l-21 -107c46 -13 87 -42 121 -83z" />
    <glyph glyph-name="percent" unicode="%" horiz-adv-x="829" 
d="M191 258c-77 0 -138 63 -138 159c0 140 76 257 192 257c78 0 138 -63 138 -160c0 -140 -76 -256 -192 -256zM237 592c-50 0 -87 -75 -87 -172c0 -49 16 -80 50 -80c50 0 86 74 86 172c0 49 -15 80 -49 80zM221 -12h-79l473 684h80zM602 -12c-78 0 -138 63 -138 159
c0 140 76 257 192 257c77 0 138 -63 138 -160c0 -140 -76 -256 -192 -256zM647 322c-50 0 -86 -75 -86 -172c0 -49 15 -80 49 -80c50 0 87 74 87 172c0 49 -16 80 -50 80z" />
    <glyph glyph-name="ampersand" unicode="&#x26;" horiz-adv-x="633" 
d="M147 165c0 -43 29 -74 77 -74c30 0 63 9 94 26c-42 43 -80 93 -109 146c-37 -29 -62 -59 -62 -98zM260 473c0 -19 3 -39 8 -59c59 32 104 66 104 120c0 24 -12 39 -36 39c-40 0 -76 -38 -76 -100zM514 367h124c-38 -82 -85 -161 -147 -230c34 -21 69 -34 96 -41l-54 -108
c-45 10 -92 32 -136 62c-57 -40 -123 -62 -197 -62c-117 0 -186 66 -186 162c0 107 72 165 151 210c-12 37 -19 74 -19 109c0 107 88 195 198 195c87 0 134 -52 134 -131c0 -99 -86 -156 -171 -207c27 -47 64 -91 104 -128c44 50 77 105 103 169z" />
    <glyph glyph-name="quotesingle" unicode="'" horiz-adv-x="291" 
d="M121 363l21 181l18 126h135l-28 -126l-57 -181h-89z" />
    <glyph glyph-name="parenleft" unicode="(" horiz-adv-x="329" 
d="M115 -179c-31 84 -59 201 -59 310c0 232 83 410 235 602l79 -40c-141 -187 -204 -378 -204 -572c0 -85 11 -193 36 -264z" />
    <glyph glyph-name="parenright" unicode=")" horiz-adv-x="331" 
d="M222 733c31 -84 60 -201 60 -309c0 -233 -83 -411 -236 -603l-79 40c141 187 204 378 204 572c0 85 -11 193 -36 265z" />
    <glyph glyph-name="asterisk" unicode="*" horiz-adv-x="438" 
d="M173 366l-52 49l75 98l-95 55l31 65l107 -34l32 115l71 -6l-8 -117l114 14l10 -70l-110 -38l38 -106l-65 -37l-61 94z" />
    <glyph glyph-name="plus" unicode="+" 
d="M215 95v187h-167v97h168v185h101v-185h168v-97h-170v-187h-100z" />
    <glyph glyph-name="comma" unicode="," horiz-adv-x="291" 
d="M-13 -187l-14 75c75 22 117 65 129 112c-44 1 -76 28 -76 71c0 48 36 92 93 92c53 0 83 -36 83 -97c0 -126 -82 -225 -215 -253z" />
    <glyph glyph-name="hyphen" unicode="-" horiz-adv-x="320" 
d="M33 205l21 97h234l-21 -97h-234z" />
    <glyph glyph-name="period" unicode="." horiz-adv-x="291" 
d="M94 -12c-42 0 -70 30 -70 74c0 49 39 101 98 101c42 0 70 -32 70 -75c0 -50 -39 -100 -98 -100z" />
    <glyph glyph-name="slash" unicode="/" horiz-adv-x="329" 
d="M-69 -160l372 870h91l-374 -870h-89z" />
    <glyph glyph-name="zero" unicode="0" 
d="M217 -12c-103 0 -179 78 -179 228c0 281 143 431 279 431c103 0 178 -78 178 -230c0 -281 -142 -429 -278 -429zM309 542c-72 0 -144 -153 -144 -340c0 -78 22 -109 61 -109c72 0 144 151 144 338c0 78 -22 111 -61 111z" />
    <glyph glyph-name="one" unicode="1" 
d="M19 0l22 110h131l78 383h-116l17 86c70 11 116 28 162 56h102l-106 -525h117l-22 -110h-385z" />
    <glyph glyph-name="two" unicode="2" 
d="M-13 0l15 78c207 170 344 273 344 384c0 45 -27 77 -77 77c-36 0 -67 -21 -104 -51l-66 79c61 52 123 80 187 80c120 0 193 -69 193 -171c0 -128 -103 -220 -259 -361h215l-22 -115h-426z" />
    <glyph glyph-name="three" unicode="3" 
d="M-16 102l87 71c33 -46 83 -75 128 -75c69 0 113 34 113 89s-34 89 -157 89l19 97c134 0 171 46 171 98c0 41 -28 68 -77 68c-31 0 -62 -14 -101 -41l-66 88c64 45 126 61 192 61c115 0 192 -61 192 -153c0 -80 -37 -137 -136 -170v-4c68 -26 100 -76 100 -134
c0 -128 -107 -198 -247 -198c-79 0 -162 36 -218 114z" />
    <glyph glyph-name="four" unicode="4" 
d="M365 0h-125l31 154h-263l18 96l302 385h163l-75 -375h73l-20 -106h-73zM161 260h130l23 114c9 45 23 94 33 141h-4c-25 -39 -48 -80 -73 -116z" />
    <glyph glyph-name="five" unicode="5" 
d="M-7 102l86 70c33 -45 73 -74 125 -74c61 0 115 45 115 120c0 59 -33 88 -87 88c-33 0 -50 -5 -93 -29l-51 42l78 316h342l-23 -115h-223l-35 -125c20 9 39 13 61 13c96 0 169 -57 169 -168c0 -156 -125 -252 -256 -252c-79 0 -152 35 -208 114z" />
    <glyph glyph-name="six" unicode="6" 
d="M255 90c59 0 91 71 91 128c0 53 -24 84 -68 84c-27 0 -62 -14 -100 -62c-1 -13 -1 -26 -1 -39c0 -71 32 -111 78 -111zM526 560l-87 -73c-19 30 -43 50 -79 50c-76 0 -144 -68 -171 -201c36 39 90 60 125 60c90 0 158 -53 158 -166c0 -123 -93 -242 -224 -242
c-121 0 -198 92 -198 226c0 260 134 433 319 433c79 0 129 -48 157 -87z" />
    <glyph glyph-name="seven" unicode="7" 
d="M100 0c59 221 133 386 268 520h-269l23 115h421l-17 -86c-191 -176 -245 -363 -285 -549h-141z" />
    <glyph glyph-name="eight" unicode="8" 
d="M230 291c-40 -28 -71 -68 -71 -122c0 -48 31 -86 84 -86c49 0 95 31 95 93c0 51 -44 79 -108 115zM322 365c31 26 59 62 59 113c0 42 -21 72 -66 72c-41 0 -76 -29 -76 -80c0 -48 29 -76 83 -105zM37 154c0 88 62 148 137 178v4c-36 37 -55 78 -55 129
c0 113 95 182 206 182c85 0 173 -45 173 -149c0 -79 -45 -135 -114 -172v-4c45 -30 79 -80 79 -145c0 -116 -107 -189 -230 -189c-90 0 -196 49 -196 166z" />
    <glyph glyph-name="nine" unicode="9" 
d="M259 333c26 0 61 15 99 62c1 13 1 26 1 39c0 71 -32 111 -78 111c-59 0 -91 -71 -91 -128c0 -53 24 -84 69 -84zM11 76l86 72c19 -30 43 -50 79 -50c76 0 144 67 171 200c-37 -38 -91 -59 -125 -59c-90 0 -157 53 -157 166c0 123 92 242 223 242c122 0 198 -92 198 -226
c0 -260 -134 -433 -318 -433c-80 0 -130 48 -157 88z" />
    <glyph glyph-name="colon" unicode=":" horiz-adv-x="291" 
d="M151 322c-42 0 -71 30 -71 74c0 49 40 101 98 101c43 0 71 -33 71 -75c0 -50 -39 -100 -98 -100zM94 -12c-42 0 -70 30 -70 74c0 49 39 101 98 101c42 0 70 -32 70 -75c0 -50 -39 -100 -98 -100z" />
    <glyph glyph-name="semicolon" unicode=";" horiz-adv-x="291" 
d="M-13 -187l-14 75c75 22 117 65 129 112c-44 1 -76 28 -76 71c0 48 36 92 93 92c53 0 83 -36 83 -97c0 -126 -82 -225 -215 -253zM178 497c43 0 71 -33 71 -75c0 -50 -39 -100 -98 -100c-42 0 -71 30 -71 74c0 49 40 101 98 101z" />
    <glyph glyph-name="less" unicode="&#x3c;" 
d="M46 283v96l439 174v-112l-170 -61l-129 -46v-4l129 -47l170 -61v-114z" />
    <glyph glyph-name="equal" unicode="=" 
d="M485 398h-437v97h437v-97zM485 165h-437v97h437v-97z" />
    <glyph glyph-name="greater" unicode="&#x3e;" 
d="M48 108v114l171 61l128 47v4l-128 46l-171 61v112l439 -174v-96z" />
    <glyph glyph-name="question" unicode="?" horiz-adv-x="444" 
d="M161 -12c-43 0 -71 30 -71 74c0 49 40 101 98 101c43 0 70 -32 70 -75c0 -50 -39 -100 -97 -100zM146 232c16 160 177 183 177 278c0 38 -24 62 -64 62c-26 0 -51 -13 -77 -39l-69 78c47 46 103 71 163 71c108 0 181 -56 181 -151c0 -156 -175 -173 -195 -309z" />
    <glyph glyph-name="at" unicode="@" horiz-adv-x="866" 
d="M616 124c54 0 126 75 126 220c0 125 -66 241 -252 241c-168 0 -353 -176 -353 -407c0 -178 127 -264 254 -264c37 0 85 13 119 34l36 -74c-56 -29 -110 -44 -167 -44c-179 0 -336 111 -336 332c0 284 217 504 460 504c207 0 327 -136 327 -308
c0 -212 -111 -319 -239 -319c-47 0 -87 26 -99 75h-4c-25 -38 -71 -65 -112 -65c-71 0 -125 57 -125 144c0 125 92 247 203 247c31 0 53 -15 70 -49h2l15 41h83l-51 -222c-13 -57 0 -86 43 -86zM353 201c0 -43 19 -67 51 -67c21 0 41 14 66 49l31 139c-11 22 -25 31 -44 31
c-59 0 -104 -87 -104 -152z" />
    <glyph glyph-name="A" unicode="A" horiz-adv-x="548" 
d="M215 267h140l-4 86c-3 64 -6 125 -8 194h-4c-28 -67 -53 -129 -84 -194zM368 0l-8 164h-194l-77 -164h-151l344 652h164l65 -652h-143z" />
    <glyph glyph-name="B" unicode="B" horiz-adv-x="604" 
d="M28 0l131 652h199c130 0 219 -46 219 -149c0 -75 -56 -138 -141 -163l-2 -4c72 -17 113 -58 113 -122c0 -153 -129 -214 -282 -214h-237zM243 385h65c91 0 129 38 129 95c0 42 -33 67 -104 67h-58zM186 105h85c93 0 144 37 144 104c0 53 -35 83 -106 83h-85z" />
    <glyph glyph-name="C" unicode="C" horiz-adv-x="567" 
d="M56 261c0 225 152 403 347 403c76 0 137 -39 174 -104l-94 -72c-24 38 -51 57 -87 57c-111 0 -199 -130 -199 -275c0 -101 40 -164 136 -164c39 0 77 21 111 50l57 -88c-39 -36 -108 -80 -197 -80c-151 0 -248 102 -248 273z" />
    <glyph glyph-name="D" unicode="D" horiz-adv-x="616" 
d="M28 0l131 652h143c182 0 288 -84 288 -256c0 -257 -149 -396 -358 -396h-204zM188 110h41c125 0 221 87 221 277c0 108 -60 155 -151 155h-26z" />
    <glyph glyph-name="E" unicode="E" horiz-adv-x="527" 
d="M28 0l131 652h386l-22 -115h-251l-28 -142h213l-22 -115h-213l-34 -165h259l-22 -115h-397z" />
    <glyph glyph-name="F" unicode="F" horiz-adv-x="504" 
d="M28 0l131 652h386l-22 -115h-251l-31 -160h212l-22 -115h-213l-52 -262h-138z" />
    <glyph glyph-name="G" unicode="G" horiz-adv-x="611" 
d="M56 261c0 225 152 403 357 403c84 0 145 -39 182 -104l-93 -72c-25 38 -54 57 -96 57c-121 0 -209 -130 -209 -275c0 -100 39 -165 141 -165c27 0 53 9 71 22l28 128h-107l21 112h227l-60 -311c-50 -39 -122 -68 -204 -68c-161 0 -258 101 -258 273z" />
    <glyph glyph-name="H" unicode="H" horiz-adv-x="652" 
d="M28 0l131 652h137l-52 -253h223l50 253h137l-130 -652h-138l57 279h-223l-54 -279h-138z" />
    <glyph glyph-name="I" unicode="I" horiz-adv-x="294" 
d="M28 0l131 652h137l-130 -652h-138z" />
    <glyph glyph-name="J" unicode="J" horiz-adv-x="491" 
d="M408 203c-23 -117 -94 -215 -232 -215c-75 0 -146 36 -184 99l84 83c19 -34 54 -64 100 -64c52 0 84 40 100 121l85 425h137z" />
    <glyph glyph-name="K" unicode="K" horiz-adv-x="604" 
d="M28 0l131 652h137l-53 -268h3l245 268h150l-237 -268l146 -384h-143l-104 298l-99 -107l-38 -191h-138z" />
    <glyph glyph-name="L" unicode="L" horiz-adv-x="500" 
d="M28 0l131 652h137l-108 -537h247l-22 -115h-385z" />
    <glyph glyph-name="M" unicode="M" horiz-adv-x="740" 
d="M28 0l131 652h145l47 -301l17 -117h4l60 117l164 301h146l-131 -652h-128l54 259c13 65 39 155 59 218h-3l-81 -150l-153 -267h-55l-48 267l-20 150h-4c-6 -64 -13 -154 -26 -218l-52 -259h-126z" />
    <glyph glyph-name="N" unicode="N" horiz-adv-x="643" 
d="M28 0l131 652h133l106 -340l35 -143h4c7 68 12 161 27 236l50 247h130l-130 -652h-132l-107 339l-33 145h-4c-7 -73 -14 -159 -29 -234l-50 -250h-131z" />
    <glyph glyph-name="O" unicode="O" horiz-adv-x="660" 
d="M302 -12c-149 0 -245 102 -245 276c0 230 155 400 331 400c149 0 245 -103 245 -276c0 -230 -154 -400 -331 -400zM382 545c-93 0 -185 -121 -185 -272c0 -104 40 -167 112 -167c93 0 184 122 184 273c0 104 -39 166 -111 166z" />
    <glyph glyph-name="P" unicode="P" horiz-adv-x="583" 
d="M28 0l131 652h206c127 0 223 -48 223 -173c0 -182 -136 -253 -301 -253h-77l-44 -226h-138zM233 335h69c97 0 151 42 151 124c0 58 -40 84 -110 84h-70z" />
    <glyph glyph-name="Q" unicode="Q" horiz-adv-x="660" 
d="M382 545c-93 0 -185 -121 -185 -272c0 -104 40 -167 112 -167c93 0 184 122 184 273c0 104 -39 166 -111 166zM557 -57l6 -103c-23 -9 -57 -16 -80 -16c-134 0 -226 58 -273 179c-95 34 -153 126 -153 261c0 230 155 400 331 400c149 0 245 -103 245 -276
c0 -207 -124 -365 -278 -395c27 -41 81 -59 136 -59c26 0 45 4 66 9z" />
    <glyph glyph-name="R" unicode="R" horiz-adv-x="596" 
d="M235 348h69c97 0 147 46 147 117c0 55 -39 78 -109 78h-69zM159 652h204c128 0 223 -46 223 -167c0 -122 -70 -195 -166 -227l101 -258h-144l-84 239h-80l-47 -239h-138z" />
    <glyph glyph-name="S" unicode="S" horiz-adv-x="529" 
d="M5 110l98 77c35 -50 89 -82 145 -82s94 28 94 75c0 35 -30 52 -76 81l-62 38c-59 37 -97 83 -97 163c0 111 101 202 229 202c77 0 148 -39 198 -99l-87 -81c-33 35 -69 61 -117 61c-53 0 -83 -32 -83 -70c0 -33 31 -49 82 -81l64 -39c63 -38 91 -80 91 -155
c0 -119 -97 -212 -246 -212c-85 0 -169 35 -233 122z" />
    <glyph glyph-name="T" unicode="T" horiz-adv-x="532" 
d="M149 0l106 536h-171l22 116h480l-23 -116h-171l-106 -536h-137z" />
    <glyph glyph-name="U" unicode="U" horiz-adv-x="643" 
d="M88 320l67 332h137l-71 -357c-5 -27 -8 -52 -8 -76c0 -73 26 -113 99 -113c62 0 103 47 127 168l76 378h134l-76 -376c-40 -200 -126 -288 -265 -288c-154 0 -233 73 -233 227c0 29 7 71 13 105z" />
    <glyph glyph-name="V" unicode="V" horiz-adv-x="554" 
d="M134 0l-55 652h143l17 -321c3 -69 6 -139 7 -209h4c30 70 60 140 91 209l145 321h151l-337 -652h-166z" />
    <glyph glyph-name="W" unicode="W" horiz-adv-x="794" 
d="M77 0l23 652h140l-21 -313c-6 -69 -12 -140 -20 -209h4c27 69 59 141 85 209l134 313h116l2 -313c-1 -67 -4 -139 -7 -209h4c24 70 51 141 73 209l110 313h131l-253 -652h-173l4 312c0 42 4 102 9 152h-4c-18 -49 -40 -101 -59 -152l-128 -312h-170z" />
    <glyph glyph-name="X" unicode="X" horiz-adv-x="553" 
d="M-36 0l242 336l-101 316h152l33 -131c7 -30 14 -63 23 -102h4c22 38 44 73 62 103l79 130h146l-229 -322l109 -330h-152l-37 142c-9 34 -17 67 -26 105h-4c-23 -38 -44 -72 -65 -106l-90 -141h-146z" />
    <glyph glyph-name="Y" unicode="Y" 
d="M138 0l46 236l-104 416h142l28 -157c9 -49 16 -92 25 -143h4c27 51 51 95 80 145l91 155h147l-276 -416l-47 -236h-136z" />
    <glyph glyph-name="Z" unicode="Z" horiz-adv-x="525" 
d="M-5 0l18 82l356 455h-257l23 115h421l-17 -83l-353 -454h283l-24 -115h-450z" />
    <glyph glyph-name="bracketleft" unicode="[" horiz-adv-x="330" 
d="M114 -79h98l-15 -73h-200l172 860h200l-14 -73h-99z" />
    <glyph glyph-name="backslash" unicode="\" horiz-adv-x="329" 
d="M161 -160l-76 870h88l77 -870h-89z" />
    <glyph glyph-name="bracketright" unicode="]" horiz-adv-x="331" 
d="M-14 -79h97l143 714h-97l14 73h200l-172 -860h-200z" />
    <glyph glyph-name="asciicircum" unicode="^" horiz-adv-x="506" 
d="M72 275l149 395h108l149 -395h-112l-45 135l-43 135h-4l-44 -135l-46 -135h-112z" />
    <glyph glyph-name="underscore" unicode="_" horiz-adv-x="481" 
d="M-32 -61h457l-16 -77h-456z" />
    <glyph glyph-name="grave" unicode="`" horiz-adv-x="534" 
d="M310 573l-88 149h127l56 -149h-95z" />
    <glyph glyph-name="a" unicode="a" horiz-adv-x="552" 
d="M31 170c0 189 128 338 265 338c45 0 89 -25 108 -65h2l22 53h109l-99 -496h-111l2 65h-3c-45 -47 -103 -77 -155 -77c-87 0 -140 65 -140 182zM231 100c33 0 74 17 106 73l35 176c-16 33 -43 47 -66 47c-69 0 -133 -90 -133 -209c0 -60 22 -87 58 -87z" />
    <glyph glyph-name="b" unicode="b" horiz-adv-x="553" 
d="M127 0h-113l141 701h137l-33 -159l-25 -93h2c44 36 95 59 144 59c88 0 140 -65 140 -182c0 -189 -128 -338 -264 -338c-45 0 -86 25 -105 65h-2zM321 396c-31 0 -73 -16 -102 -62l-38 -187c15 -33 40 -47 65 -47c69 0 133 90 133 209c0 60 -23 87 -58 87z" />
    <glyph glyph-name="c" unicode="c" horiz-adv-x="443" 
d="M29 192c0 172 129 316 292 316c62 0 108 -30 133 -61l-76 -81c-20 21 -38 32 -66 32c-79 0 -143 -92 -143 -203c0 -60 28 -97 84 -97c34 0 58 16 79 32l57 -84c-37 -28 -88 -58 -166 -58c-110 0 -194 75 -194 204z" />
    <glyph glyph-name="d" unicode="d" horiz-adv-x="546" 
d="M400 448l12 94l30 159h137l-141 -701h-111l2 65h-3c-45 -47 -103 -77 -155 -77c-87 0 -140 65 -140 182c0 189 128 338 265 338c45 0 82 -24 101 -60h3zM231 100c33 0 72 17 106 73l35 176c-16 33 -43 47 -66 47c-69 0 -133 -90 -133 -209c0 -60 22 -87 58 -87z" />
    <glyph glyph-name="e" unicode="e" horiz-adv-x="496" 
d="M29 200c0 184 144 308 276 308c118 0 162 -83 162 -186c0 -47 -18 -98 -26 -113h-282c-4 -83 46 -118 111 -118c31 0 67 18 92 35l48 -86c-40 -28 -101 -52 -178 -52c-120 0 -203 80 -203 212zM170 293h180c3 10 5 23 5 37c0 40 -17 73 -67 73c-47 0 -96 -37 -118 -110z
" />
    <glyph glyph-name="f" unicode="f" horiz-adv-x="327" 
d="M51 389l21 101l65 6l6 33c20 102 78 184 192 184c38 0 75 -10 106 -27l-44 -97c-11 7 -30 15 -48 15c-36 0 -59 -16 -69 -70l-7 -38h86l-21 -107h-88l-77 -389h-137l79 389h-64z" />
    <glyph glyph-name="g" unicode="g" horiz-adv-x="546" 
d="M420 496h111l-97 -488c-30 -147 -124 -221 -263 -221c-59 0 -127 24 -183 70l59 91c38 -29 81 -52 128 -52c65 0 107 37 127 104l24 84h-2c-45 -43 -93 -68 -148 -68c-84 0 -145 56 -145 173c0 178 123 319 259 319c45 0 87 -25 106 -65h3zM229 127c33 0 73 16 105 65
l31 157c-17 33 -42 47 -65 47c-68 0 -127 -82 -127 -189c0 -54 22 -80 56 -80z" />
    <glyph glyph-name="h" unicode="h" horiz-adv-x="546" 
d="M14 0l141 701h137l-38 -183l-22 -80h4c44 39 97 70 156 70c82 0 118 -45 118 -127c0 -23 -2 -46 -8 -71l-62 -310h-137l59 293c4 20 8 34 8 47c0 34 -18 51 -51 51c-31 0 -61 -20 -104 -64l-64 -327h-137z" />
    <glyph glyph-name="i" unicode="i" horiz-adv-x="265" 
d="M14 0l100 496h136l-99 -496h-137zM208 570c-37 0 -74 22 -74 66s38 81 85 81c38 0 74 -23 74 -66c0 -47 -37 -81 -85 -81z" />
    <glyph glyph-name="j" unicode="j" horiz-adv-x="267" 
d="M252 496l-103 -512c-21 -100 -72 -180 -184 -180c-35 0 -64 6 -96 22l41 99c14 -8 27 -13 44 -13c33 0 47 24 60 78l101 506h137zM210 570c-38 0 -74 22 -74 66s37 81 85 81c37 0 74 -23 74 -66c0 -47 -38 -81 -85 -81z" />
    <glyph glyph-name="k" unicode="k" horiz-adv-x="525" 
d="M14 0l141 701h137l-82 -406h4l187 201h152l-203 -217l118 -279h-137l-75 200l-81 -81l-24 -119h-137z" />
    <glyph glyph-name="l" unicode="l" horiz-adv-x="275" 
d="M44 146l111 555h137l-113 -561c-2 -10 -2 -14 -2 -19c0 -17 9 -23 19 -23c6 0 9 0 18 2l-4 -101c-17 -6 -41 -11 -73 -11c-71 0 -100 37 -100 97c0 18 2 36 7 61z" />
    <glyph glyph-name="m" unicode="m" horiz-adv-x="827" 
d="M14 0l98 496h111l-2 -66h4c48 42 104 78 160 78c74 0 102 -35 115 -87c55 51 112 87 168 87c82 0 117 -45 117 -127c0 -23 -3 -46 -8 -71l-62 -310h-137l59 293c4 20 8 34 8 47c0 34 -18 51 -50 51c-22 0 -55 -20 -97 -64l-66 -327h-137l59 293c4 20 8 34 8 47
c0 34 -18 51 -48 51c-24 0 -57 -20 -99 -64l-64 -327h-137z" />
    <glyph glyph-name="n" unicode="n" horiz-adv-x="552" 
d="M14 0l98 496h111l-2 -66h4c49 42 104 78 167 78c82 0 118 -45 118 -127c0 -23 -3 -46 -8 -71l-62 -310h-137l59 293c4 20 8 34 8 47c0 34 -18 51 -51 51c-31 0 -61 -20 -104 -64l-64 -327h-137z" />
    <glyph glyph-name="o" unicode="o" horiz-adv-x="533" 
d="M222 -12c-116 0 -192 81 -192 204c0 192 141 316 278 316c115 0 192 -81 192 -204c0 -192 -141 -316 -278 -316zM292 398c-66 0 -124 -87 -124 -203c0 -60 23 -97 69 -97c67 0 125 87 125 203c0 61 -24 97 -70 97z" />
    <glyph glyph-name="p" unicode="p" horiz-adv-x="553" 
d="M153 47l-14 -97l-25 -134h-137l137 680h111l1 -57h3c45 41 100 69 151 69c88 0 140 -65 140 -182c0 -189 -128 -338 -264 -338c-42 0 -79 22 -101 59h-2zM321 396c-31 0 -73 -16 -102 -62l-38 -188c15 -32 40 -46 65 -46c69 0 133 90 133 209c0 60 -23 87 -58 87z" />
    <glyph glyph-name="q" unicode="q" horiz-adv-x="552" 
d="M292 -50l37 115h-2c-45 -47 -104 -77 -156 -77c-87 0 -140 65 -140 182c0 189 128 338 265 338c45 0 89 -25 108 -65h2l22 53h109l-136 -680h-137zM231 100c31 0 72 17 106 73l35 176c-16 33 -43 47 -66 47c-69 0 -133 -90 -133 -209c0 -60 22 -87 58 -87z" />
    <glyph glyph-name="r" unicode="r" horiz-adv-x="384" 
d="M14 0l98 496h111l-6 -96h4c39 62 95 108 152 108c25 0 41 -4 52 -10l-45 -118c-13 7 -33 8 -49 8c-44 0 -85 -31 -124 -101l-56 -287h-137z" />
    <glyph glyph-name="s" unicode="s" horiz-adv-x="424" 
d="M-8 84l79 66c35 -42 71 -62 107 -62c38 0 70 20 70 47c0 29 -30 42 -86 74c-56 31 -100 75 -100 137c0 94 86 162 192 162c68 0 122 -33 163 -76l-75 -71c-24 25 -53 45 -88 45c-38 0 -64 -21 -64 -47c0 -31 42 -46 82 -69c59 -32 104 -71 104 -139
c0 -97 -86 -163 -206 -163c-61 0 -137 34 -178 96z" />
    <glyph glyph-name="t" unicode="t" horiz-adv-x="367" 
d="M70 182l43 207h-66l20 101l73 6l42 130h115l-25 -130h113l-21 -107h-116l-43 -213c-2 -12 -2 -22 -2 -33c0 -32 16 -48 51 -48c15 0 28 5 41 11l24 -96c-26 -10 -65 -22 -116 -22c-100 0 -141 55 -141 131c0 21 4 42 8 63z" />
    <glyph glyph-name="u" unicode="u" horiz-adv-x="545" 
d="M529 496l-98 -496h-111l2 67h-4c-45 -42 -102 -79 -162 -79c-82 0 -117 45 -117 128c0 22 3 45 8 70l62 310h136l-58 -293c-5 -20 -8 -34 -8 -47c0 -34 18 -51 50 -51c29 0 60 20 99 64l64 327h137z" />
    <glyph glyph-name="v" unicode="v" horiz-adv-x="499" 
d="M123 0l-63 496h136l17 -243c4 -49 5 -100 6 -151h4c22 51 43 100 66 151l111 243h134l-253 -496h-158z" />
    <glyph glyph-name="w" unicode="w" horiz-adv-x="748" 
d="M96 0l-24 496h135l1 -240c-1 -48 -4 -97 -6 -146h4c18 49 35 99 56 146l102 240h119l8 -240c1 -48 0 -97 0 -146h4c18 49 33 98 52 146l93 240h127l-212 -496h-161l-4 208c1 46 1 93 2 145h-4c-19 -52 -34 -99 -52 -145l-85 -208h-155z" />
    <glyph glyph-name="x" unicode="x" horiz-adv-x="490" 
d="M-40 0l210 265l-86 231h138l30 -85c8 -29 16 -57 24 -85h4c17 28 35 57 51 85l51 85h146l-194 -262l92 -234h-140l-31 87c-9 28 -19 58 -28 87h-4c-18 -29 -37 -58 -56 -87l-60 -87h-147z" />
    <glyph glyph-name="y" unicode="y" horiz-adv-x="499" 
d="M7 -76c10 -6 24 -10 37 -10c36 0 72 28 94 72l12 25l-86 485h136l23 -224c5 -43 8 -102 9 -149h4c21 46 45 104 66 149l104 224h133l-268 -507c-69 -119 -133 -183 -235 -183c-18 0 -51 9 -71 20z" />
    <glyph glyph-name="z" unicode="z" horiz-adv-x="443" 
d="M-10 0l15 77l263 312h-179l20 107h351l-15 -79l-263 -310h208l-21 -107h-379z" />
    <glyph glyph-name="braceleft" unicode="{" horiz-adv-x="328" 
d="M45 -65c0 78 51 195 51 244c0 29 -15 57 -70 59l18 80c66 2 90 42 98 77c12 62 10 101 24 170c22 108 58 143 146 143h64l-16 -73h-19c-41 0 -56 -20 -66 -75c-11 -53 -17 -104 -28 -163c-16 -76 -46 -109 -99 -121v-4c37 -9 56 -29 56 -70c0 -67 -46 -186 -46 -243
c0 -27 9 -38 42 -38h17l-14 -73h-61c-71 0 -97 30 -97 87z" />
    <glyph glyph-name="bar" unicode="|" horiz-adv-x="255" 
d="M88 -250v1000h86v-1000h-86z" />
    <glyph glyph-name="braceright" unicode="}" horiz-adv-x="331" 
d="M293 621c0 -78 -51 -196 -51 -244c0 -29 15 -57 70 -59l-18 -80c-66 -2 -90 -42 -98 -77c-12 -62 -10 -101 -24 -171c-22 -108 -58 -142 -146 -142h-64l16 73h19c41 0 56 20 66 75c11 53 17 104 28 163c16 76 46 109 99 121v4c-38 9 -56 29 -56 70c0 67 46 186 46 242
c0 28 -9 39 -42 39h-17l14 73h62c70 0 96 -30 96 -87z" />
    <glyph glyph-name="asciitilde" unicode="~" 
d="M108 267l-70 47c43 75 96 102 143 102c76 0 114 -77 166 -77c27 0 49 18 68 56l70 -47c-43 -75 -95 -102 -143 -102c-75 0 -113 77 -166 77c-26 0 -49 -18 -68 -56z" />
    <glyph glyph-name="uni00A0" unicode="&#xa0;" horiz-adv-x="198" 
 />
    <glyph glyph-name="exclamdown" unicode="&#xa1;" horiz-adv-x="331" 
d="M219 270l-46 -318l-19 -126h-137l29 126l83 318h90zM218 508c43 0 71 -30 71 -74c0 -49 -40 -101 -98 -101c-43 0 -71 32 -71 75c0 50 40 100 98 100z" />
    <glyph glyph-name="cent" unicode="&#xa2;" 
d="M255 198l53 267c-60 -21 -102 -81 -102 -158c0 -52 17 -90 49 -109zM409 221l42 -88c-45 -29 -92 -49 -144 -55l-19 -96h-76l19 97c-96 15 -159 89 -159 207c0 169 129 276 259 294l19 96h76l-19 -97c48 -9 81 -38 110 -70l-79 -75c-18 17 -34 29 -53 35l-56 -281
c30 4 56 15 80 33z" />
    <glyph glyph-name="sterling" unicode="&#xa3;" 
d="M535 570l-88 -72c-22 30 -43 47 -76 47c-55 0 -101 -44 -101 -141c0 -12 1 -25 2 -38h146l-20 -98h-122c-5 -59 -24 -103 -63 -149l-1 -4h235l-20 -115h-429l17 84c81 35 132 101 137 184h-95l18 93l72 5c-2 20 -4 39 -4 56c0 140 104 233 235 233c70 0 120 -33 157 -85z
" />
    <glyph glyph-name="currency" unicode="&#xa4;" 
d="M399 93l-53 66c-35 -19 -73 -28 -111 -28c-37 0 -70 8 -97 25l-72 -62l-59 70l66 56c-11 21 -17 47 -17 76c0 60 23 111 58 150l-45 57l72 62l51 -63c34 18 71 28 109 28s72 -10 99 -26l71 62l59 -70l-66 -57c10 -22 16 -46 16 -74c0 -60 -22 -111 -57 -149l49 -60z
M286 433c-53 0 -105 -53 -105 -126c0 -50 27 -79 69 -79c53 0 105 53 105 126c0 51 -27 79 -69 79z" />
    <glyph glyph-name="yen" unicode="&#xa5;" 
d="M92 636h139l23 -141c6 -44 13 -88 22 -132h3c26 45 51 89 76 132l78 141h136l-200 -298h118l-13 -66h-148l-12 -57h148l-13 -66h-148l-30 -149h-135l30 149h-148l13 66h148l11 57h-148l13 66h119z" />
    <glyph glyph-name="brokenbar" unicode="&#xa6;" horiz-adv-x="255" 
d="M88 309v441h86v-441h-86zM88 205h86v-455h-86v455z" />
    <glyph glyph-name="section" unicode="&#xa7;" horiz-adv-x="505" 
d="M166 334c0 -56 84 -83 147 -130c28 14 44 36 44 72c0 54 -82 83 -145 129c-27 -14 -46 -36 -46 -71zM483 610l-69 -76c-27 26 -62 52 -102 52c-28 0 -52 -16 -52 -46c0 -67 216 -100 216 -248c0 -74 -40 -122 -104 -155c6 -15 10 -31 10 -50c0 -100 -77 -167 -190 -167
c-64 0 -137 31 -191 84l68 85c33 -34 82 -67 130 -67c37 0 59 19 59 49c0 72 -209 94 -209 247c0 68 44 119 104 148c-10 17 -16 37 -16 60c0 94 71 164 176 164c62 0 123 -30 170 -80z" />
    <glyph glyph-name="dieresis" unicode="&#xa8;" horiz-adv-x="534" 
d="M241 572c-33 0 -59 21 -59 59c0 40 32 75 75 75c33 0 59 -23 59 -60c0 -41 -33 -74 -75 -74zM431 572c-33 0 -59 21 -59 59c0 40 33 75 75 75c34 0 59 -23 59 -60c0 -41 -32 -74 -75 -74z" />
    <glyph glyph-name="copyright" unicode="&#xa9;" horiz-adv-x="672" 
d="M174 282c0 143 118 233 221 233c47 0 82 -27 102 -52l-57 -56c-17 20 -36 28 -57 28c-51 0 -110 -58 -110 -141c0 -54 29 -86 79 -86c28 0 46 10 74 28l38 -60c-41 -33 -86 -49 -134 -49c-93 0 -156 58 -156 155zM298 -9c-156 0 -268 117 -268 278c0 211 155 386 374 386
c156 0 268 -117 268 -277c0 -211 -155 -387 -374 -387zM399 595c-174 0 -305 -148 -305 -320c0 -122 72 -223 209 -223c174 0 305 147 305 320c0 121 -72 223 -209 223z" />
    <glyph glyph-name="ordfeminine" unicode="&#xaa;" horiz-adv-x="365" 
d="M54 375c0 125 86 224 178 224c28 0 54 -17 67 -43h4l15 35h78l-66 -329h-78l2 42h-4c-29 -31 -67 -50 -102 -50c-58 0 -94 43 -94 121zM188 332c22 0 48 12 70 48l20 111c-9 21 -25 30 -40 30c-43 0 -85 -58 -85 -134c0 -38 15 -55 35 -55z" />
    <glyph glyph-name="guillemotleft" unicode="&#xab;" horiz-adv-x="461" 
d="M144 58l-104 149l18 98l153 139l42 -45l-133 -152l78 -154zM332 58l-103 149l17 98l153 139l43 -45l-133 -152l78 -154z" />
    <glyph glyph-name="logicalnot" unicode="&#xac;" 
d="M48 282v97h437v-284h-98v187h-339z" />
    <glyph glyph-name="uni00AD" unicode="&#xad;" horiz-adv-x="320" 
d="M34 205l21 97h234l-21 -97h-234z" />
    <glyph glyph-name="registered" unicode="&#xae;" horiz-adv-x="444" 
d="M177 416l40 196h82c40 0 67 -21 67 -58c0 -27 -17 -52 -49 -64l25 -74h-54l-18 62h-26l-13 -62h-54zM251 516h16c26 0 40 15 40 33c0 14 -7 23 -27 23h-18zM255 312c-94 0 -174 74 -174 177c0 115 84 225 208 225c93 0 172 -74 174 -177c0 -115 -86 -225 -208 -225z
M286 667c-90 0 -154 -81 -154 -174c0 -75 49 -134 126 -134c90 0 154 81 154 174c0 76 -50 134 -126 134z" />
    <glyph glyph-name="macron" unicode="&#xaf;" horiz-adv-x="534" 
d="M203 593l17 87h264l-18 -87h-263z" />
    <glyph glyph-name="degree" unicode="&#xb0;" horiz-adv-x="348" 
d="M219 403c-73 0 -125 50 -125 126c0 87 72 157 152 157c74 0 125 -50 125 -126c0 -87 -71 -157 -152 -157zM241 619c-44 0 -73 -42 -73 -89c0 -32 20 -60 57 -60c43 0 73 42 73 89c0 32 -20 60 -57 60z" />
    <glyph glyph-name="plusminus" unicode="&#xb1;" 
d="M215 154v157h-167v97h168v156h101v-156h168v-97h-170v-157h-100zM485 0h-437v97h437v-97z" />
    <glyph glyph-name="two.sups" unicode="&#xb2;" horiz-adv-x="364" 
d="M76 440l11 55c139 91 209 158 209 216c0 26 -16 44 -49 44c-21 0 -40 -15 -61 -36l-56 59c45 41 82 64 136 64c80 0 130 -43 130 -113c0 -72 -56 -133 -144 -204h118l-17 -85h-277z" />
    <glyph glyph-name="three.sups" unicode="&#xb3;" horiz-adv-x="360" 
d="M79 508l65 47c18 -30 41 -47 73 -47c39 0 63 19 63 49c0 31 -18 52 -86 52l13 61c75 0 93 29 93 57c0 22 -17 37 -44 37c-23 0 -39 -6 -66 -25l-42 66c46 28 84 37 131 37c71 0 121 -39 121 -97c0 -50 -25 -86 -80 -107c37 -19 58 -51 58 -85c0 -79 -69 -125 -152 -125
c-72 0 -119 33 -147 80z" />
    <glyph glyph-name="acute" unicode="&#xb4;" horiz-adv-x="534" 
d="M249 573l116 149h137l-149 -149h-104z" />
    <glyph glyph-name="uni00B5" unicode="&#xb5;" horiz-adv-x="546" 
d="M248 496l-59 -293c-4 -20 -8 -34 -8 -47c0 -34 18 -51 51 -51c29 0 59 20 99 64l64 327h135l-96 -496h-111l2 67h-4c-31 -41 -71 -72 -111 -72c-27 0 -50 6 -61 27l-9 -61l-27 -141h-136l134 676h137z" />
    <glyph glyph-name="paragraph" unicode="&#xb6;" horiz-adv-x="608" 
d="M314 -80l145 732h137l-145 -732h-137zM285 200c-115 0 -216 65 -216 183c0 188 140 269 293 269h44l-91 -452h-30z" />
    <glyph glyph-name="periodcentered" unicode="&#xb7;" horiz-adv-x="291" 
d="M146 239c-42 0 -71 31 -71 75c0 48 40 100 98 100c43 0 71 -32 71 -75c0 -50 -39 -100 -98 -100z" />
    <glyph glyph-name="cedilla" unicode="&#xb8;" horiz-adv-x="534" 
d="M127 -76l54 80h80l-31 -49c26 -10 45 -27 45 -59c0 -78 -89 -110 -188 -116l-4 55c50 5 90 21 90 50c0 16 -10 29 -46 39z" />
    <glyph glyph-name="one.sups" unicode="&#xb9;" horiz-adv-x="376" 
d="M199 440l58 285h-87l12 62c55 8 81 20 117 43h78l-76 -390h-102z" />
    <glyph glyph-name="ordmasculine" unicode="&#xba;" horiz-adv-x="358" 
d="M184 254c-75 0 -132 50 -132 136c0 127 93 209 187 209c75 0 131 -50 131 -136c0 -127 -93 -209 -186 -209zM231 522c-48 0 -82 -57 -82 -130c0 -38 14 -62 43 -62c48 0 82 58 82 131c0 38 -14 61 -43 61z" />
    <glyph glyph-name="guillemotright" unicode="&#xbb;" horiz-adv-x="461" 
d="M136 444l104 -149l-18 -98l-153 -139l-42 45l133 152l-79 154zM325 444l103 -149l-17 -98l-153 -139l-43 45l133 152l-78 154z" />
    <glyph glyph-name="onequarter" unicode="&#xbc;" horiz-adv-x="777" 
d="M135 270l57 285h-87l13 62c54 8 80 20 117 43h78l-77 -390h-101zM597 672h80l-474 -684h-80zM511 156h92l10 48l28 120h-4l-61 -86zM747 156l-15 -67h-56l-17 -89h-87l18 89h-184l11 52l195 249h123l-46 -234h58z" />
    <glyph glyph-name="onehalf" unicode="&#xbd;" horiz-adv-x="813" 
d="M131 270l57 285h-87l13 62c54 8 80 20 117 43h78l-77 -390h-101zM189 -12h-79l474 684h79zM443 0l11 55c139 91 209 158 209 216c0 26 -16 44 -49 44c-21 0 -40 -15 -61 -36l-56 59c45 41 81 64 136 64c80 0 130 -43 130 -113c0 -72 -56 -133 -144 -204h118l-17 -85h-277
z" />
    <glyph glyph-name="threequarters" unicode="&#xbe;" horiz-adv-x="788" 
d="M150 569l-42 66c46 28 84 37 131 37c71 0 121 -39 121 -97c0 -50 -25 -86 -80 -107c37 -19 58 -51 58 -85c0 -79 -69 -125 -152 -125c-72 0 -119 33 -147 80l65 47c18 -30 41 -47 73 -47c39 0 63 19 63 49c0 31 -18 52 -86 52l13 61c75 0 93 29 93 57c0 22 -17 37 -44 37
c-23 0 -39 -6 -66 -25zM621 672h79l-473 -684h-80zM523 156h93l10 48l27 120h-4l-61 -86zM759 156l-14 -67h-57l-17 -89h-87l18 89h-184l11 52l195 249h123l-46 -234h58z" />
    <glyph glyph-name="questiondown" unicode="&#xbf;" horiz-adv-x="444" 
d="M295 508c43 0 71 -30 71 -74c0 -48 -40 -100 -98 -100c-43 0 -70 32 -70 74c0 50 39 100 97 100zM310 264c-16 -159 -178 -183 -178 -278c0 -38 25 -61 65 -61c26 0 51 12 76 38l70 -77c-47 -46 -103 -72 -163 -72c-108 0 -181 57 -181 152c0 156 175 173 195 309z" />
    <glyph glyph-name="Agrave" unicode="&#xc0;" horiz-adv-x="548" 
d="M425 702h-103l-93 118h139zM215 267h140l-4 86c-3 64 -6 125 -8 194h-4c-28 -67 -53 -129 -84 -194zM368 0l-8 164h-194l-77 -164h-151l344 652h164l65 -652h-143z" />
    <glyph glyph-name="Aacute" unicode="&#xc1;" horiz-adv-x="548" 
d="M536 820l-138 -118h-112l101 118h149zM215 267h140l-4 86c-3 64 -6 125 -8 194h-4c-28 -67 -53 -129 -84 -194zM282 652h164l65 -652h-143l-8 164h-194l-77 -164h-151z" />
    <glyph glyph-name="Acircumflex" unicode="&#xc2;" horiz-adv-x="548" 
d="M373 764l-64 -62h-109l115 118h133l69 -118h-100l-42 62h-2zM215 267h140l-4 86c-3 64 -6 125 -8 194h-4c-28 -67 -53 -129 -84 -194zM282 652h164l65 -652h-143l-8 164h-194l-77 -164h-151z" />
    <glyph glyph-name="Atilde" unicode="&#xc3;" horiz-adv-x="548" 
d="M474 831h71c-22 -84 -73 -130 -120 -130c-58 0 -74 47 -114 47c-16 0 -30 -14 -42 -45h-72c23 84 73 130 121 130c58 0 74 -47 113 -47c16 0 30 15 43 45zM215 267h140l-4 86c-3 64 -6 125 -8 194h-4c-28 -67 -53 -129 -84 -194zM282 652h164l65 -652h-143l-8 164h-194
l-77 -164h-151z" />
    <glyph glyph-name="Adieresis" unicode="&#xc4;" horiz-adv-x="548" 
d="M460 701c-33 0 -58 22 -58 58s31 75 74 75c31 0 57 -21 57 -57c0 -37 -31 -76 -73 -76zM269 701c-32 0 -57 22 -57 58s31 75 73 75c31 0 57 -21 57 -57c0 -37 -30 -76 -73 -76zM215 267h140l-4 86c-3 64 -6 125 -8 194h-4c-28 -67 -53 -129 -84 -194zM282 652h164
l65 -652h-143l-8 164h-194l-77 -164h-151z" />
    <glyph glyph-name="Aring" unicode="&#xc5;" horiz-adv-x="548" 
d="M381 838c-25 0 -45 -24 -45 -51c0 -21 13 -37 37 -37c23 0 45 23 45 51c0 21 -13 37 -37 37zM371 696c-55 0 -102 26 -102 86s52 110 114 110c53 0 102 -28 102 -86c0 -61 -52 -110 -114 -110zM215 267h140l-4 86c-3 64 -6 125 -8 194h-4c-28 -67 -53 -129 -84 -194z
M368 0l-8 164h-194l-77 -164h-151l344 652h164l65 -652h-143z" />
    <glyph glyph-name="AE" unicode="&#xc6;" horiz-adv-x="838" 
d="M277 262h124l58 291h-3c-40 -65 -77 -124 -116 -187zM834 537h-242l-27 -142h204l-23 -115h-203l-35 -165h251l-23 -115h-387l31 155h-167l-94 -155h-154l422 652h470z" />
    <glyph glyph-name="Ccedilla" unicode="&#xc7;" horiz-adv-x="567" 
d="M444 156l57 -88c-36 -33 -98 -74 -178 -79l-21 -34c26 -10 44 -27 44 -59c0 -78 -89 -110 -187 -116l-4 55c49 5 90 21 90 50c0 16 -10 29 -47 39l47 70c-117 23 -189 119 -189 267c0 225 152 403 347 403c76 0 137 -39 174 -104l-94 -72c-24 38 -51 57 -87 57
c-111 0 -199 -130 -199 -275c0 -101 40 -164 136 -164c39 0 77 21 111 50z" />
    <glyph glyph-name="Egrave" unicode="&#xc8;" horiz-adv-x="527" 
d="M28 0l131 652h386l-22 -115h-251l-28 -142h213l-22 -115h-213l-34 -165h259l-22 -115h-397zM325 702l-93 118h140l56 -118h-103z" />
    <glyph glyph-name="Eacute" unicode="&#xc9;" horiz-adv-x="527" 
d="M28 0l131 652h386l-22 -115h-251l-28 -142h213l-22 -115h-213l-34 -165h259l-22 -115h-397zM289 702l101 118h149l-138 -118h-112z" />
    <glyph glyph-name="Ecircumflex" unicode="&#xca;" horiz-adv-x="527" 
d="M28 0l131 652h386l-22 -115h-251l-28 -142h213l-22 -115h-213l-34 -165h259l-22 -115h-397zM203 702l115 118h133l69 -118h-100l-42 62h-2l-64 -62h-109z" />
    <glyph glyph-name="Edieresis" unicode="&#xcb;" horiz-adv-x="527" 
d="M28 0l131 652h386l-22 -115h-251l-28 -142h213l-22 -115h-213l-34 -165h259l-22 -115h-397zM272 701c-32 0 -57 22 -57 58s31 75 73 75c31 0 58 -21 58 -57c0 -37 -31 -76 -74 -76zM463 701c-33 0 -57 22 -57 58s30 75 73 75c31 0 57 -21 57 -57c0 -37 -31 -76 -73 -76z
" />
    <glyph glyph-name="Igrave" unicode="&#xcc;" horiz-adv-x="294" 
d="M28 0l131 652h137l-130 -652h-138zM188 702l-93 118h140l56 -118h-103z" />
    <glyph glyph-name="Iacute" unicode="&#xcd;" horiz-adv-x="294" 
d="M28 0l131 652h137l-130 -652h-138zM152 702l102 118h148l-138 -118h-112z" />
    <glyph glyph-name="Icircumflex" unicode="&#xce;" horiz-adv-x="294" 
d="M28 0l131 652h137l-130 -652h-138zM66 702l116 118h132l69 -118h-100l-42 62h-2l-64 -62h-109z" />
    <glyph glyph-name="Idieresis" unicode="&#xcf;" horiz-adv-x="294" 
d="M28 0l131 652h137l-130 -652h-138zM136 701c-33 0 -58 22 -58 58s31 75 73 75c31 0 58 -21 58 -57c0 -37 -31 -76 -73 -76zM326 701c-32 0 -57 22 -57 58s31 75 73 75c31 0 57 -21 57 -57c0 -37 -31 -76 -73 -76z" />
    <glyph glyph-name="Eth" unicode="&#xd0;" horiz-adv-x="634" 
d="M206 110h41c125 0 221 87 221 277c0 108 -60 155 -151 155h-26l-33 -168h125l-15 -67h-123zM177 652h143c182 0 288 -84 288 -256c0 -257 -149 -396 -358 -396h-204l62 307h-70l12 62l71 5z" />
    <glyph glyph-name="Ntilde" unicode="&#xd1;" horiz-adv-x="643" 
d="M28 0l131 652h133l106 -340l35 -143h4c7 68 12 161 27 236l50 247h130l-130 -652h-132l-107 339l-33 145h-4c-7 -73 -14 -159 -29 -234l-50 -250h-131zM321 703h-72c23 84 73 130 121 130c58 0 74 -47 113 -47c16 0 30 15 43 45h71c-22 -84 -73 -130 -120 -130
c-58 0 -74 47 -114 47c-16 0 -30 -14 -42 -45z" />
    <glyph glyph-name="Ograve" unicode="&#xd2;" horiz-adv-x="660" 
d="M302 -12c-149 0 -245 102 -245 276c0 230 155 400 331 400c149 0 245 -103 245 -276c0 -230 -154 -400 -331 -400zM382 545c-93 0 -185 -121 -185 -272c0 -104 40 -167 112 -167c93 0 184 122 184 273c0 104 -39 166 -111 166zM377 702l-93 118h140l56 -118h-103z" />
    <glyph glyph-name="Oacute" unicode="&#xd3;" horiz-adv-x="660" 
d="M302 -12c-149 0 -245 102 -245 276c0 230 155 400 331 400c149 0 245 -103 245 -276c0 -230 -154 -400 -331 -400zM382 545c-93 0 -185 -121 -185 -272c0 -104 40 -167 112 -167c93 0 184 122 184 273c0 104 -39 166 -111 166zM341 702l102 118h148l-138 -118h-112z" />
    <glyph glyph-name="Ocircumflex" unicode="&#xd4;" horiz-adv-x="660" 
d="M302 -12c-149 0 -245 102 -245 276c0 230 155 400 331 400c149 0 245 -103 245 -276c0 -230 -154 -400 -331 -400zM382 545c-93 0 -185 -121 -185 -272c0 -104 40 -167 112 -167c93 0 184 122 184 273c0 104 -39 166 -111 166zM255 702l116 118h132l69 -118h-100l-42 62
h-2l-64 -62h-109z" />
    <glyph glyph-name="Otilde" unicode="&#xd5;" horiz-adv-x="660" 
d="M302 -12c-149 0 -245 102 -245 276c0 230 155 400 331 400c149 0 245 -103 245 -276c0 -230 -154 -400 -331 -400zM382 545c-93 0 -185 -121 -185 -272c0 -104 40 -167 112 -167c93 0 184 122 184 273c0 104 -39 166 -111 166zM324 703h-71c22 84 73 130 120 130
c58 0 74 -47 114 -47c16 0 30 15 42 45h72c-23 -84 -73 -130 -121 -130c-58 0 -74 47 -113 47c-16 0 -30 -14 -43 -45z" />
    <glyph glyph-name="Odieresis" unicode="&#xd6;" horiz-adv-x="660" 
d="M302 -12c-149 0 -245 102 -245 276c0 230 155 400 331 400c149 0 245 -103 245 -276c0 -230 -154 -400 -331 -400zM382 545c-93 0 -185 -121 -185 -272c0 -104 40 -167 112 -167c93 0 184 122 184 273c0 104 -39 166 -111 166zM325 701c-33 0 -58 22 -58 58s31 75 74 75
c30 0 57 -21 57 -57c0 -37 -31 -76 -73 -76zM515 701c-32 0 -57 22 -57 58s31 75 73 75c31 0 57 -21 57 -57c0 -37 -30 -76 -73 -76z" />
    <glyph glyph-name="multiply" unicode="&#xd7;" 
d="M267 263l-137 -143l-67 67l136 143l-136 143l67 67l137 -142l136 142l68 -67l-137 -143l137 -143l-68 -67z" />
    <glyph glyph-name="Oslash" unicode="&#xd8;" horiz-adv-x="660" 
d="M491 415l-261 -271c19 -24 46 -38 79 -38c93 0 184 122 184 273c0 13 -1 24 -2 36zM199 232l264 272c-19 26 -46 41 -81 41c-93 0 -185 -121 -185 -272c0 -14 1 -28 2 -41zM711 642l-106 -110c18 -40 28 -88 28 -144c0 -230 -154 -400 -331 -400c-67 0 -124 21 -165 60
l-85 -88l-62 56l97 100c-19 41 -30 90 -30 148c0 230 155 400 331 400c69 0 127 -22 169 -63l94 97z" />
    <glyph glyph-name="Ugrave" unicode="&#xd9;" horiz-adv-x="643" 
d="M88 320l67 332h137l-71 -357c-5 -27 -8 -52 -8 -76c0 -73 26 -113 99 -113c62 0 103 47 127 168l76 378h134l-76 -376c-40 -200 -126 -288 -265 -288c-154 0 -233 73 -233 227c0 29 7 71 13 105zM370 702l-93 118h140l56 -118h-103z" />
    <glyph glyph-name="Uacute" unicode="&#xda;" horiz-adv-x="643" 
d="M88 320l67 332h137l-71 -357c-5 -27 -8 -52 -8 -76c0 -73 26 -113 99 -113c62 0 103 47 127 168l76 378h134l-76 -376c-40 -200 -126 -288 -265 -288c-154 0 -233 73 -233 227c0 29 7 71 13 105zM334 702l102 118h148l-138 -118h-112z" />
    <glyph glyph-name="Ucircumflex" unicode="&#xdb;" horiz-adv-x="643" 
d="M88 320l67 332h137l-71 -357c-5 -27 -8 -52 -8 -76c0 -73 26 -113 99 -113c62 0 103 47 127 168l76 378h134l-76 -376c-40 -200 -126 -288 -265 -288c-154 0 -233 73 -233 227c0 29 7 71 13 105zM248 702l116 118h132l69 -118h-100l-42 62h-2l-64 -62h-109z" />
    <glyph glyph-name="Udieresis" unicode="&#xdc;" horiz-adv-x="643" 
d="M88 320l67 332h137l-71 -357c-5 -27 -8 -52 -8 -76c0 -73 26 -113 99 -113c62 0 103 47 127 168l76 378h134l-76 -376c-40 -200 -126 -288 -265 -288c-154 0 -233 73 -233 227c0 29 7 71 13 105zM318 701c-33 0 -58 22 -58 58s31 75 74 75c30 0 57 -21 57 -57
c0 -37 -31 -76 -73 -76zM508 701c-32 0 -57 22 -57 58s31 75 73 75c31 0 57 -21 57 -57c0 -37 -30 -76 -73 -76z" />
    <glyph glyph-name="Yacute" unicode="&#xdd;" 
d="M138 0l46 236l-104 416h142l28 -157c9 -49 16 -92 25 -143h4c27 51 51 95 80 145l91 155h147l-276 -416l-47 -236h-136zM258 702l102 118h148l-138 -118h-112z" />
    <glyph glyph-name="Thorn" unicode="&#xde;" horiz-adv-x="595" 
d="M28 0l131 660h137l-21 -104h88c119 0 209 -48 209 -173c0 -182 -139 -253 -302 -253h-80l-26 -130h-136zM212 239h71c99 0 153 42 153 124c0 58 -37 84 -102 84h-81z" />
    <glyph glyph-name="germandbls" unicode="&#xdf;" horiz-adv-x="609" 
d="M14 0l102 505c23 118 108 208 243 208c94 0 186 -46 186 -150c0 -112 -114 -138 -114 -198c0 -58 130 -86 130 -202c0 -98 -82 -175 -187 -175c-51 0 -102 13 -147 44l56 91c26 -18 56 -33 90 -33c36 0 61 24 61 59c0 67 -136 90 -136 192c0 91 115 115 115 202
c0 38 -17 61 -59 61c-55 0 -92 -56 -107 -125l-96 -479h-137z" />
    <glyph glyph-name="agrave" unicode="&#xe0;" horiz-adv-x="552" 
d="M31 170c0 189 128 338 265 338c45 0 89 -25 108 -65h2l22 53h109l-99 -496h-111l2 65h-3c-45 -47 -103 -77 -155 -77c-87 0 -140 65 -140 182zM231 100c33 0 74 17 106 73l35 176c-16 33 -43 47 -66 47c-69 0 -133 -90 -133 -209c0 -60 22 -87 58 -87zM310 573l-88 149
h126l57 -149h-95z" />
    <glyph glyph-name="aacute" unicode="&#xe1;" horiz-adv-x="552" 
d="M31 170c0 189 128 338 265 338c45 0 89 -25 108 -65h2l22 53h109l-99 -496h-111l2 65h-3c-45 -47 -103 -77 -155 -77c-87 0 -140 65 -140 182zM231 100c33 0 74 17 106 73l35 176c-16 33 -43 47 -66 47c-69 0 -133 -90 -133 -209c0 -60 22 -87 58 -87zM249 573l116 149
h136l-149 -149h-103z" />
    <glyph glyph-name="acircumflex" unicode="&#xe2;" horiz-adv-x="552" 
d="M31 170c0 189 128 338 265 338c45 0 89 -25 108 -65h2l22 53h109l-99 -496h-111l2 65h-3c-45 -47 -103 -77 -155 -77c-87 0 -140 65 -140 182zM231 100c33 0 74 17 106 73l35 176c-16 33 -43 47 -66 47c-69 0 -133 -90 -133 -209c0 -60 22 -87 58 -87zM185 573l122 149
h107l63 -149h-88l-36 81h-4l-68 -81h-96z" />
    <glyph glyph-name="atilde" unicode="&#xe3;" horiz-adv-x="552" 
d="M31 170c0 189 128 338 265 338c45 0 89 -25 108 -65h2l22 53h109l-99 -496h-111l2 65h-3c-45 -47 -103 -77 -155 -77c-87 0 -140 65 -140 182zM231 100c33 0 74 17 106 73l35 176c-16 33 -43 47 -66 47c-69 0 -133 -90 -133 -209c0 -60 22 -87 58 -87zM250 577h-72
c24 85 71 128 118 128c60 0 74 -45 115 -45c14 0 27 13 39 43h72c-24 -84 -71 -128 -118 -128c-60 0 -74 45 -114 45c-15 0 -27 -13 -40 -43z" />
    <glyph glyph-name="adieresis" unicode="&#xe4;" horiz-adv-x="552" 
d="M31 170c0 189 128 338 265 338c45 0 89 -25 108 -65h2l22 53h109l-99 -496h-111l2 65h-3c-45 -47 -103 -77 -155 -77c-87 0 -140 65 -140 182zM231 100c33 0 74 17 106 73l35 176c-16 33 -43 47 -66 47c-69 0 -133 -90 -133 -209c0 -60 22 -87 58 -87zM240 572
c-33 0 -59 21 -59 59c0 40 33 75 75 75c33 0 59 -23 59 -60c0 -41 -32 -74 -75 -74zM431 572c-34 0 -59 21 -59 59c0 40 32 75 75 75c33 0 59 -23 59 -60c0 -41 -33 -74 -75 -74z" />
    <glyph glyph-name="aring" unicode="&#xe5;" horiz-adv-x="552" 
d="M31 170c0 189 128 338 265 338c45 0 89 -25 108 -65h2l22 53h109l-99 -496h-111l2 65h-3c-45 -47 -103 -77 -155 -77c-87 0 -140 65 -140 182zM231 100c33 0 74 17 106 73l35 176c-16 33 -43 47 -66 47c-69 0 -133 -90 -133 -209c0 -60 22 -87 58 -87zM340 547
c-58 0 -99 33 -99 89c0 64 48 112 112 112c58 0 100 -32 100 -89c0 -63 -48 -112 -113 -112zM351 695c-24 0 -43 -25 -43 -55c0 -22 11 -40 34 -40c24 0 44 26 44 56c0 20 -11 39 -35 39z" />
    <glyph glyph-name="ae" unicode="&#xe6;" horiz-adv-x="754" 
d="M22 112c0 145 135 194 304 198c1 8 1 14 1 21c0 49 -23 70 -67 70c-38 0 -80 -15 -127 -38l-30 95c58 29 125 50 191 50c58 0 101 -21 122 -67c43 43 96 67 147 67c119 0 162 -83 162 -186c0 -47 -17 -98 -25 -113h-272c-6 -78 38 -118 102 -118c30 0 66 18 90 35l49 -86
c-38 -28 -97 -52 -169 -52c-70 0 -130 36 -157 81c-59 -51 -116 -81 -188 -81c-75 0 -133 48 -133 124zM439 293h170c2 15 4 23 4 37c0 40 -17 73 -67 73c-41 0 -86 -37 -107 -110zM308 227c-104 -3 -153 -38 -153 -88c0 -29 23 -46 55 -46c29 0 65 19 99 59
c-3 24 -4 46 -1 75z" />
    <glyph glyph-name="ccedilla" unicode="&#xe7;" horiz-adv-x="443" 
d="M332 130l57 -84c-34 -26 -80 -53 -148 -57l-21 -34c26 -10 45 -27 45 -59c0 -78 -89 -110 -188 -116l-4 55c50 5 90 21 90 50c0 16 -10 29 -46 39l48 71c-80 22 -136 92 -136 197c0 172 129 316 292 316c62 0 108 -30 133 -61l-76 -81c-20 21 -38 32 -66 32
c-79 0 -143 -92 -143 -203c0 -60 28 -97 84 -97c34 0 58 16 79 32z" />
    <glyph glyph-name="egrave" unicode="&#xe8;" horiz-adv-x="496" 
d="M29 200c0 184 144 308 276 308c118 0 162 -83 162 -186c0 -47 -18 -98 -26 -113h-282c-4 -83 46 -118 111 -118c31 0 67 18 92 35l48 -86c-40 -28 -101 -52 -178 -52c-120 0 -203 80 -203 212zM170 293h180c3 10 5 23 5 37c0 40 -17 73 -67 73c-47 0 -96 -37 -118 -110z
M300 573l-88 149h126l56 -149h-94z" />
    <glyph glyph-name="eacute" unicode="&#xe9;" horiz-adv-x="496" 
d="M29 200c0 184 144 308 276 308c118 0 162 -83 162 -186c0 -47 -18 -98 -26 -113h-282c-4 -83 46 -118 111 -118c31 0 67 18 92 35l48 -86c-40 -28 -101 -52 -178 -52c-120 0 -203 80 -203 212zM170 293h180c3 10 5 23 5 37c0 40 -17 73 -67 73c-47 0 -96 -37 -118 -110z
M238 573l116 149h137l-149 -149h-104z" />
    <glyph glyph-name="ecircumflex" unicode="&#xea;" horiz-adv-x="496" 
d="M29 200c0 184 144 308 276 308c118 0 162 -83 162 -186c0 -47 -18 -98 -26 -113h-282c-4 -83 46 -118 111 -118c31 0 67 18 92 35l48 -86c-40 -28 -101 -52 -178 -52c-120 0 -203 80 -203 212zM170 293h180c3 10 5 23 5 37c0 40 -17 73 -67 73c-47 0 -96 -37 -118 -110z
M175 573l122 149h107l63 -149h-88l-37 81h-4l-68 -81h-95z" />
    <glyph glyph-name="edieresis" unicode="&#xeb;" horiz-adv-x="496" 
d="M29 200c0 184 144 308 276 308c118 0 162 -83 162 -186c0 -47 -18 -98 -26 -113h-282c-4 -83 46 -118 111 -118c31 0 67 18 92 35l48 -86c-40 -28 -101 -52 -178 -52c-120 0 -203 80 -203 212zM170 293h180c3 10 5 23 5 37c0 40 -17 73 -67 73c-47 0 -96 -37 -118 -110z
M230 572c-33 0 -59 21 -59 59c0 40 33 75 75 75c33 0 59 -23 59 -60c0 -41 -33 -74 -75 -74zM421 572c-34 0 -59 21 -59 59c0 40 32 75 74 75c34 0 59 -23 59 -60c0 -41 -32 -74 -74 -74z" />
    <glyph glyph-name="igrave" unicode="&#xec;" horiz-adv-x="265" 
d="M14 0l100 496h136l-99 -496h-137zM172 573l-88 149h126l56 -149h-94z" />
    <glyph glyph-name="iacute" unicode="&#xed;" horiz-adv-x="265" 
d="M14 0l100 496h136l-99 -496h-137zM110 573l116 149h137l-149 -149h-104z" />
    <glyph glyph-name="icircumflex" unicode="&#xee;" horiz-adv-x="265" 
d="M14 0l100 496h136l-99 -496h-137zM47 573l122 149h107l63 -149h-88l-37 81h-4l-68 -81h-95z" />
    <glyph glyph-name="idieresis" unicode="&#xef;" horiz-adv-x="265" 
d="M14 0l100 496h136l-99 -496h-137zM102 572c-33 0 -59 21 -59 59c0 40 33 75 75 75c33 0 59 -23 59 -60c0 -41 -33 -74 -75 -74zM293 572c-34 0 -59 21 -59 59c0 40 32 75 74 75c34 0 59 -23 59 -60c0 -41 -32 -74 -74 -74z" />
    <glyph glyph-name="eth" unicode="&#xf0;" horiz-adv-x="537" 
d="M236 98c71 0 118 85 129 201c-19 28 -47 52 -85 52c-80 0 -123 -82 -123 -158c0 -53 27 -95 79 -95zM553 637l-125 -50c42 -64 66 -141 66 -231c0 -182 -88 -368 -271 -368c-105 0 -189 75 -189 194c0 132 83 273 229 273c40 0 79 -18 101 -54c-5 55 -20 101 -46 142
l-145 -58l-26 65l124 50c-22 21 -49 42 -80 61l63 79c49 -27 93 -58 128 -96l145 58z" />
    <glyph glyph-name="ntilde" unicode="&#xf1;" horiz-adv-x="552" 
d="M14 0l98 496h111l-2 -66h4c49 42 104 78 167 78c82 0 118 -45 118 -127c0 -23 -3 -46 -8 -71l-62 -310h-137l59 293c4 20 8 34 8 47c0 34 -18 51 -51 51c-31 0 -61 -20 -104 -64l-64 -327h-137zM277 577h-71c23 85 70 128 117 128c61 0 74 -45 115 -45c15 0 27 13 40 43
h71c-23 -84 -70 -128 -117 -128c-60 0 -74 45 -115 45c-15 0 -27 -13 -40 -43z" />
    <glyph glyph-name="ograve" unicode="&#xf2;" horiz-adv-x="533" 
d="M222 -12c-116 0 -192 81 -192 204c0 192 141 316 278 316c115 0 192 -81 192 -204c0 -192 -141 -316 -278 -316zM292 398c-66 0 -124 -87 -124 -203c0 -60 23 -97 69 -97c67 0 125 87 125 203c0 61 -24 97 -70 97zM310 573l-88 149h127l56 -149h-95z" />
    <glyph glyph-name="oacute" unicode="&#xf3;" horiz-adv-x="533" 
d="M222 -12c-116 0 -192 81 -192 204c0 192 141 316 278 316c115 0 192 -81 192 -204c0 -192 -141 -316 -278 -316zM292 398c-66 0 -124 -87 -124 -203c0 -60 23 -97 69 -97c67 0 125 87 125 203c0 61 -24 97 -70 97zM249 573l116 149h137l-149 -149h-104z" />
    <glyph glyph-name="ocircumflex" unicode="&#xf4;" horiz-adv-x="533" 
d="M222 -12c-116 0 -192 81 -192 204c0 192 141 316 278 316c115 0 192 -81 192 -204c0 -192 -141 -316 -278 -316zM292 398c-66 0 -124 -87 -124 -203c0 -60 23 -97 69 -97c67 0 125 87 125 203c0 61 -24 97 -70 97zM186 573l122 149h107l63 -149h-88l-37 81h-4l-68 -81
h-95z" />
    <glyph glyph-name="otilde" unicode="&#xf5;" horiz-adv-x="533" 
d="M222 -12c-116 0 -192 81 -192 204c0 192 141 316 278 316c115 0 192 -81 192 -204c0 -192 -141 -316 -278 -316zM292 398c-66 0 -124 -87 -124 -203c0 -60 23 -97 69 -97c67 0 125 87 125 203c0 61 -24 97 -70 97zM250 577h-71c24 85 71 128 118 128c60 0 74 -45 114 -45
c15 0 27 13 40 43h72c-24 -84 -71 -128 -118 -128c-60 0 -74 45 -115 45c-14 0 -27 -13 -40 -43z" />
    <glyph glyph-name="odieresis" unicode="&#xf6;" horiz-adv-x="533" 
d="M222 -12c-116 0 -192 81 -192 204c0 192 141 316 278 316c115 0 192 -81 192 -204c0 -192 -141 -316 -278 -316zM292 398c-66 0 -124 -87 -124 -203c0 -60 23 -97 69 -97c67 0 125 87 125 203c0 61 -24 97 -70 97zM241 572c-33 0 -59 21 -59 59c0 40 32 75 75 75
c33 0 59 -23 59 -60c0 -41 -33 -74 -75 -74zM431 572c-33 0 -59 21 -59 59c0 40 33 75 75 75c34 0 59 -23 59 -60c0 -41 -32 -74 -75 -74z" />
    <glyph glyph-name="divide" unicode="&#xf7;" 
d="M267 438c-43 0 -76 31 -76 74c0 41 33 72 76 72c42 0 76 -31 76 -72c0 -43 -34 -74 -76 -74zM267 76c-43 0 -76 29 -76 72c0 41 33 73 76 73c42 0 76 -32 76 -73c0 -43 -34 -72 -76 -72zM485 282h-437v97h437v-97z" />
    <glyph glyph-name="oslash" unicode="&#xf8;" horiz-adv-x="533" 
d="M372 313l-191 -196c12 -14 29 -22 51 -22c92 0 140 110 140 204v14zM159 179l191 197c-12 16 -30 25 -53 25c-89 0 -139 -111 -139 -206c0 -6 0 -11 1 -16zM534 480l-61 -63c17 -30 27 -68 27 -113c0 -193 -141 -316 -278 -316c-48 0 -92 15 -125 43l-54 -56l-43 41
l59 60c-19 31 -29 70 -29 116c0 192 141 316 278 316c50 0 94 -15 128 -45l54 56z" />
    <glyph glyph-name="ugrave" unicode="&#xf9;" horiz-adv-x="545" 
d="M529 496l-98 -496h-111l2 67h-4c-45 -42 -102 -79 -162 -79c-82 0 -117 45 -117 128c0 22 3 45 8 70l62 310h136l-58 -293c-5 -20 -8 -34 -8 -47c0 -34 18 -51 50 -51c29 0 60 20 99 64l64 327h137zM307 573l-88 149h126l57 -149h-95z" />
    <glyph glyph-name="uacute" unicode="&#xfa;" horiz-adv-x="545" 
d="M529 496l-98 -496h-111l2 67h-4c-45 -42 -102 -79 -162 -79c-82 0 -117 45 -117 128c0 22 3 45 8 70l62 310h136l-58 -293c-5 -20 -8 -34 -8 -47c0 -34 18 -51 50 -51c29 0 60 20 99 64l64 327h137zM246 573l116 149h137l-149 -149h-104z" />
    <glyph glyph-name="ucircumflex" unicode="&#xfb;" horiz-adv-x="545" 
d="M529 496l-98 -496h-111l2 67h-4c-45 -42 -102 -79 -162 -79c-82 0 -117 45 -117 128c0 22 3 45 8 70l62 310h136l-58 -293c-5 -20 -8 -34 -8 -47c0 -34 18 -51 50 -51c29 0 60 20 99 64l64 327h137zM182 573l122 149h107l63 -149h-88l-36 81h-4l-68 -81h-96z" />
    <glyph glyph-name="udieresis" unicode="&#xfc;" horiz-adv-x="545" 
d="M529 496l-98 -496h-111l2 67h-4c-45 -42 -102 -79 -162 -79c-82 0 -117 45 -117 128c0 22 3 45 8 70l62 310h136l-58 -293c-5 -20 -8 -34 -8 -47c0 -34 18 -51 50 -51c29 0 60 20 99 64l64 327h137zM238 572c-34 0 -59 21 -59 59c0 40 32 75 74 75c34 0 59 -23 59 -60
c0 -41 -32 -74 -74 -74zM428 572c-33 0 -59 21 -59 59c0 40 33 75 75 75c33 0 59 -23 59 -60c0 -41 -33 -74 -75 -74z" />
    <glyph glyph-name="yacute" unicode="&#xfd;" horiz-adv-x="499" 
d="M7 -76c10 -6 24 -10 37 -10c36 0 72 28 94 72l12 25l-86 485h136l23 -224c5 -43 8 -102 9 -149h4c21 46 45 104 66 149l104 224h133l-268 -507c-69 -119 -133 -183 -235 -183c-18 0 -51 9 -71 20zM216 573l116 149h136l-149 -149h-103z" />
    <glyph glyph-name="thorn" unicode="&#xfe;" horiz-adv-x="553" 
d="M256 -12c-42 0 -79 22 -101 59h-2l-14 -97l-25 -134h-137l178 885h137l-33 -159l-25 -93h2c44 36 95 59 144 59c88 0 140 -65 140 -182c0 -189 -128 -338 -264 -338zM321 396c-31 0 -73 -16 -102 -62l-38 -188c15 -32 40 -46 65 -46c69 0 133 90 133 209
c0 60 -23 87 -58 87z" />
    <glyph glyph-name="ydieresis" unicode="&#xff;" horiz-adv-x="499" 
d="M7 -76c10 -6 24 -10 37 -10c36 0 72 28 94 72l12 25l-86 485h136l23 -224c5 -43 8 -102 9 -149h4c21 46 45 104 66 149l104 224h133l-268 -507c-69 -119 -133 -183 -235 -183c-18 0 -51 9 -71 20zM207 572c-33 0 -59 21 -59 59c0 40 33 75 75 75c33 0 59 -23 59 -60
c0 -41 -32 -74 -75 -74zM398 572c-34 0 -59 21 -59 59c0 40 32 75 75 75c33 0 59 -23 59 -60c0 -41 -33 -74 -75 -74z" />
    <glyph glyph-name="Amacron" unicode="&#x100;" horiz-adv-x="548" 
d="M514 808l-18 -88h-267l17 88h268zM215 267h140l-4 86c-3 64 -6 125 -8 194h-4c-28 -67 -53 -129 -84 -194zM282 652h164l65 -652h-143l-8 164h-194l-77 -164h-151z" />
    <glyph glyph-name="amacron" unicode="&#x101;" horiz-adv-x="552" 
d="M31 170c0 189 128 338 265 338c45 0 89 -25 108 -65h2l22 53h109l-99 -496h-111l2 65h-3c-45 -47 -103 -77 -155 -77c-87 0 -140 65 -140 182zM231 100c33 0 74 17 106 73l35 176c-16 33 -43 47 -66 47c-69 0 -133 -90 -133 -209c0 -60 22 -87 58 -87zM203 593l17 87h263
l-17 -87h-263z" />
    <glyph glyph-name="Abreve" unicode="&#x102;" horiz-adv-x="548" 
d="M437 820h75c-22 -70 -67 -118 -154 -118c-76 0 -113 48 -105 118h73c-2 -30 13 -49 45 -49c34 0 55 21 66 49zM215 267h140l-4 86c-3 64 -6 125 -8 194h-4c-28 -67 -53 -129 -84 -194zM282 652h164l65 -652h-143l-8 164h-194l-77 -164h-151z" />
    <glyph glyph-name="abreve" unicode="&#x103;" horiz-adv-x="552" 
d="M31 170c0 189 128 338 265 338c45 0 89 -25 108 -65h2l22 53h109l-99 -496h-111l2 65h-3c-45 -47 -103 -77 -155 -77c-87 0 -140 65 -140 182zM231 100c33 0 74 17 106 73l35 176c-16 33 -43 47 -66 47c-69 0 -133 -90 -133 -209c0 -60 22 -87 58 -87zM331 574
c-86 0 -118 66 -105 137h74c-4 -35 7 -63 44 -63s60 28 72 63h76c-18 -71 -72 -137 -161 -137z" />
    <glyph glyph-name="Aogonek" unicode="&#x104;" horiz-adv-x="548" 
d="M215 267h140l-4 86c-3 64 -6 125 -8 194h-4c-28 -67 -53 -129 -84 -194zM446 652l65 -652c-78 -30 -105 -70 -105 -101c0 -21 16 -32 35 -32c9 0 16 2 27 9l27 -67c-28 -18 -71 -31 -104 -31c-54 0 -92 28 -92 77c0 65 59 119 95 145h-26l-8 164h-194l-77 -164h-151
l344 652h164z" />
    <glyph glyph-name="aogonek" unicode="&#x105;" horiz-adv-x="552" 
d="M31 170c0 189 128 338 265 338c45 0 89 -26 108 -65h2l22 53h109l-99 -496c-65 -20 -106 -57 -106 -98c0 -19 16 -30 35 -30c11 0 21 4 32 10l23 -56c-28 -20 -71 -36 -103 -36c-50 0 -86 25 -86 73c0 65 61 116 94 139l2 63h-2c-45 -47 -104 -77 -156 -77
c-87 0 -140 65 -140 182zM231 100c31 0 74 17 106 73l35 176c-16 33 -43 47 -66 47c-69 0 -133 -90 -133 -209c0 -60 22 -87 58 -87z" />
    <glyph glyph-name="Cacute" unicode="&#x106;" horiz-adv-x="567" 
d="M56 261c0 225 152 403 347 403c76 0 137 -39 174 -104l-94 -72c-24 38 -51 57 -87 57c-111 0 -199 -130 -199 -275c0 -101 40 -164 136 -164c39 0 77 21 111 50l57 -88c-39 -36 -108 -80 -197 -80c-151 0 -248 102 -248 273zM354 702l102 118h148l-138 -118h-112z" />
    <glyph glyph-name="cacute" unicode="&#x107;" horiz-adv-x="443" 
d="M29 192c0 172 129 316 292 316c62 0 108 -30 133 -61l-76 -81c-20 21 -38 32 -66 32c-79 0 -143 -92 -143 -203c0 -60 28 -97 84 -97c34 0 58 16 79 32l57 -84c-37 -28 -88 -58 -166 -58c-110 0 -194 75 -194 204zM238 573l116 149h137l-149 -149h-104z" />
    <glyph glyph-name="Ccircumflex" unicode="&#x108;" horiz-adv-x="567" 
d="M56 261c0 225 152 403 347 403c76 0 137 -39 174 -104l-94 -72c-24 38 -51 57 -87 57c-111 0 -199 -130 -199 -275c0 -101 40 -164 136 -164c39 0 77 21 111 50l57 -88c-39 -36 -108 -80 -197 -80c-151 0 -248 102 -248 273zM269 702l115 118h133l68 -118h-100l-41 62h-3
l-63 -62h-109z" />
    <glyph glyph-name="ccircumflex" unicode="&#x109;" horiz-adv-x="443" 
d="M29 192c0 172 129 316 292 316c62 0 108 -30 133 -61l-76 -81c-20 21 -38 32 -66 32c-79 0 -143 -92 -143 -203c0 -60 28 -97 84 -97c34 0 58 16 79 32l57 -84c-37 -28 -88 -58 -166 -58c-110 0 -194 75 -194 204zM175 573l122 149h107l63 -149h-89l-36 81h-4l-68 -81
h-95z" />
    <glyph glyph-name="Cdotaccent" unicode="&#x10a;" horiz-adv-x="567" 
d="M56 261c0 225 152 403 347 403c76 0 137 -39 174 -104l-94 -72c-24 38 -51 57 -87 57c-111 0 -199 -130 -199 -275c0 -101 40 -164 136 -164c39 0 77 21 111 50l57 -88c-39 -36 -108 -80 -197 -80c-151 0 -248 102 -248 273zM436 703c-37 0 -74 22 -74 66s38 81 86 81
c37 0 74 -24 74 -66c0 -47 -38 -81 -86 -81z" />
    <glyph glyph-name="cdotaccent" unicode="&#x10b;" horiz-adv-x="443" 
d="M29 192c0 172 129 316 292 316c62 0 108 -30 133 -61l-76 -81c-20 21 -38 32 -66 32c-79 0 -143 -92 -143 -203c0 -60 28 -97 84 -97c34 0 58 16 79 32l57 -84c-37 -28 -88 -58 -166 -58c-110 0 -194 75 -194 204zM328 570c-38 0 -74 22 -74 66s38 81 85 81
c38 0 74 -23 74 -66c0 -47 -37 -81 -85 -81z" />
    <glyph glyph-name="Ccaron" unicode="&#x10c;" horiz-adv-x="567" 
d="M56 261c0 225 152 403 347 403c76 0 137 -39 174 -104l-94 -72c-24 38 -51 57 -87 57c-111 0 -199 -130 -199 -275c0 -101 40 -164 136 -164c39 0 77 21 111 50l57 -88c-39 -36 -108 -80 -197 -80c-151 0 -248 102 -248 273zM609 820l-115 -118h-133l-69 118h100l42 -63
h2l64 63h109z" />
    <glyph glyph-name="ccaron" unicode="&#x10d;" horiz-adv-x="443" 
d="M29 192c0 172 129 316 292 316c62 0 108 -30 133 -61l-76 -81c-20 21 -38 32 -66 32c-79 0 -143 -92 -143 -203c0 -60 28 -97 84 -97c34 0 58 16 79 32l57 -84c-37 -28 -88 -58 -166 -58c-110 0 -194 75 -194 204zM498 722l-122 -149h-107l-63 149h88l36 -80h4l68 80h96z
" />
    <glyph glyph-name="Dcaron" unicode="&#x10e;" horiz-adv-x="616" 
d="M28 0l131 652h143c182 0 288 -84 288 -256c0 -257 -149 -396 -358 -396h-204zM188 110h41c125 0 221 87 221 277c0 108 -60 155 -151 155h-26zM570 820l-116 -118h-132l-69 118h100l42 -63h2l64 63h109z" />
    <glyph glyph-name="dcaron" unicode="&#x10f;" horiz-adv-x="569" 
d="M400 448l12 94l30 159h137l-141 -701h-111l2 65h-3c-45 -47 -103 -77 -155 -77c-87 0 -140 65 -140 182c0 189 128 338 265 338c45 0 82 -24 101 -60h3zM231 100c33 0 72 17 106 73l35 176c-16 33 -43 47 -66 47c-69 0 -133 -90 -133 -209c0 -60 22 -87 58 -87zM647 548
h-59l40 222h87l-15 -69z" />
    <glyph glyph-name="Dcroat" unicode="&#x110;" horiz-adv-x="634" 
d="M206 110h41c125 0 221 87 221 277c0 108 -60 155 -151 155h-26l-33 -168h125l-15 -67h-123zM177 652h143c182 0 288 -84 288 -256c0 -257 -149 -396 -358 -396h-204l62 307h-70l12 62l71 5z" />
    <glyph glyph-name="dcroat" unicode="&#x111;" horiz-adv-x="550" 
d="M337 173l31 156c-14 33 -39 47 -63 47c-69 0 -132 -92 -132 -189c0 -60 22 -87 58 -87c33 0 72 17 106 73zM631 625l-14 -62l-67 -5l-112 -558h-111l2 65h-3c-45 -47 -103 -77 -155 -77c-87 0 -140 65 -140 182c0 167 128 318 265 318c45 0 80 -24 97 -60h3l12 94l7 36
h-144l13 67h144l14 76h137l-15 -76h67z" />
    <glyph glyph-name="Emacron" unicode="&#x112;" horiz-adv-x="527" 
d="M28 0l131 652h386l-22 -115h-251l-28 -142h213l-22 -115h-213l-34 -165h259l-22 -115h-397zM232 720l17 88h268l-17 -88h-268z" />
    <glyph glyph-name="emacron" unicode="&#x113;" horiz-adv-x="496" 
d="M29 200c0 184 144 308 276 308c118 0 162 -83 162 -186c0 -47 -18 -98 -26 -113h-282c-4 -83 46 -118 111 -118c31 0 67 18 92 35l48 -86c-40 -28 -101 -52 -178 -52c-120 0 -203 80 -203 212zM170 293h180c3 10 5 23 5 37c0 40 -17 73 -67 73c-47 0 -96 -37 -118 -110z
M192 593l18 87h263l-17 -87h-264z" />
    <glyph glyph-name="Ebreve" unicode="&#x114;" horiz-adv-x="527" 
d="M28 0l131 652h386l-22 -115h-251l-28 -142h213l-22 -115h-213l-34 -165h259l-22 -115h-397zM362 702c-77 0 -113 48 -106 118h73c-2 -30 13 -49 46 -49s54 21 65 49h75c-22 -70 -67 -118 -153 -118z" />
    <glyph glyph-name="ebreve" unicode="&#x115;" horiz-adv-x="496" 
d="M29 200c0 184 144 308 276 308c118 0 162 -83 162 -186c0 -47 -18 -98 -26 -113h-282c-4 -83 46 -118 111 -118c31 0 67 18 92 35l48 -86c-40 -28 -101 -52 -178 -52c-120 0 -203 80 -203 212zM170 293h180c3 10 5 23 5 37c0 40 -17 73 -67 73c-47 0 -96 -37 -118 -110z
M320 574c-85 0 -118 66 -104 137h73c-4 -35 8 -63 45 -63s60 28 71 63h77c-18 -71 -72 -137 -162 -137z" />
    <glyph glyph-name="Edotaccent" unicode="&#x116;" horiz-adv-x="527" 
d="M28 0l131 652h386l-22 -115h-251l-28 -142h213l-22 -115h-213l-34 -165h259l-22 -115h-397zM371 703c-38 0 -74 22 -74 66s37 81 85 81c38 0 74 -24 74 -66c0 -47 -38 -81 -85 -81z" />
    <glyph glyph-name="edotaccent" unicode="&#x117;" horiz-adv-x="496" 
d="M29 200c0 184 144 308 276 308c118 0 162 -83 162 -186c0 -47 -18 -98 -26 -113h-282c-4 -83 46 -118 111 -118c31 0 67 18 92 35l48 -86c-40 -28 -101 -52 -178 -52c-120 0 -203 80 -203 212zM170 293h180c3 10 5 23 5 37c0 40 -17 73 -67 73c-47 0 -96 -37 -118 -110z
M328 570c-37 0 -74 22 -74 66s38 81 85 81c38 0 75 -23 75 -66c0 -47 -38 -81 -86 -81z" />
    <glyph glyph-name="Eogonek" unicode="&#x118;" horiz-adv-x="527" 
d="M28 0l131 652h386l-22 -115h-251l-28 -142h213l-22 -115h-213l-34 -165h259l-22 -115c-61 -9 -101 -69 -101 -101c0 -21 16 -32 35 -32c8 0 16 2 27 9l26 -67c-28 -18 -71 -31 -103 -31c-55 0 -92 28 -92 77c0 67 64 125 95 145h-284z" />
    <glyph glyph-name="eogonek" unicode="&#x119;" horiz-adv-x="496" 
d="M170 -137c0 64 60 113 75 126c-3 -1 -8 -1 -11 -1c-122 0 -205 80 -205 212c0 184 144 308 276 308c118 0 162 -83 162 -186c0 -47 -18 -98 -26 -113h-282c-4 -83 46 -118 111 -118c31 0 67 18 92 35l48 -86c-119 -59 -141 -107 -141 -138c0 -19 16 -30 34 -30
c11 0 22 4 33 10l23 -56c-28 -20 -71 -36 -104 -36c-49 0 -85 25 -85 73zM170 293h180c3 10 5 23 5 37c0 40 -17 73 -67 73c-47 0 -96 -37 -118 -110z" />
    <glyph glyph-name="Ecaron" unicode="&#x11a;" horiz-adv-x="527" 
d="M28 0l131 652h386l-22 -115h-251l-28 -142h213l-22 -115h-213l-34 -165h259l-22 -115h-397zM544 820l-116 -118h-132l-69 118h100l41 -63h3l63 63h110z" />
    <glyph glyph-name="ecaron" unicode="&#x11b;" horiz-adv-x="496" 
d="M29 200c0 184 144 308 276 308c118 0 162 -83 162 -186c0 -47 -18 -98 -26 -113h-282c-4 -83 46 -118 111 -118c31 0 67 18 92 35l48 -86c-40 -28 -101 -52 -178 -52c-120 0 -203 80 -203 212zM170 293h180c3 10 5 23 5 37c0 40 -17 73 -67 73c-47 0 -96 -37 -118 -110z
M498 722l-122 -149h-107l-63 149h88l37 -80h4l68 80h95z" />
    <glyph glyph-name="Gcircumflex" unicode="&#x11c;" horiz-adv-x="611" 
d="M56 261c0 225 152 403 357 403c84 0 145 -39 182 -104l-93 -72c-25 38 -54 57 -96 57c-121 0 -209 -130 -209 -275c0 -100 39 -165 141 -165c27 0 53 9 71 22l28 128h-107l21 112h227l-60 -311c-50 -39 -122 -68 -204 -68c-161 0 -258 101 -258 273zM264 702l115 118h133
l68 -118h-100l-41 62h-3l-63 -62h-109z" />
    <glyph glyph-name="gcircumflex" unicode="&#x11d;" horiz-adv-x="546" 
d="M420 496h111l-97 -488c-30 -147 -124 -221 -263 -221c-59 0 -127 24 -183 70l59 91c38 -29 81 -52 128 -52c65 0 107 37 127 104l24 84h-2c-45 -43 -93 -68 -148 -68c-84 0 -145 56 -145 173c0 178 123 319 259 319c45 0 87 -25 106 -65h3zM229 127c33 0 73 16 105 65
l31 157c-17 33 -42 47 -65 47c-68 0 -127 -82 -127 -189c0 -54 22 -80 56 -80zM176 573l122 149h107l63 -149h-88l-36 81h-4l-68 -81h-96z" />
    <glyph glyph-name="Gbreve" unicode="&#x11e;" horiz-adv-x="611" 
d="M56 261c0 225 152 403 357 403c84 0 145 -39 182 -104l-93 -72c-25 38 -54 57 -96 57c-121 0 -209 -130 -209 -275c0 -100 39 -165 141 -165c27 0 53 9 71 22l28 128h-107l21 112h227l-60 -311c-50 -39 -122 -68 -204 -68c-161 0 -258 101 -258 273zM422 702
c-77 0 -113 48 -106 118h73c-2 -30 14 -49 46 -49c34 0 55 21 66 49h75c-23 -70 -68 -118 -154 -118z" />
    <glyph glyph-name="gbreve" unicode="&#x11f;" horiz-adv-x="546" 
d="M420 496h111l-97 -488c-30 -147 -124 -221 -263 -221c-59 0 -127 24 -183 70l59 91c38 -29 81 -52 128 -52c65 0 107 37 127 104l24 84h-2c-45 -43 -93 -68 -148 -68c-84 0 -145 56 -145 173c0 178 123 319 259 319c45 0 87 -25 106 -65h3zM229 127c33 0 73 16 105 65
l31 157c-17 33 -42 47 -65 47c-68 0 -127 -82 -127 -189c0 -54 22 -80 56 -80zM322 574c-86 0 -118 66 -104 137h73c-4 -35 8 -63 45 -63c36 0 60 28 71 63h77c-18 -71 -73 -137 -162 -137z" />
    <glyph glyph-name="Gdotaccent" unicode="&#x120;" horiz-adv-x="611" 
d="M56 261c0 225 152 403 357 403c84 0 145 -39 182 -104l-93 -72c-25 38 -54 57 -96 57c-121 0 -209 -130 -209 -275c0 -100 39 -165 141 -165c27 0 53 9 71 22l28 128h-107l21 112h227l-60 -311c-50 -39 -122 -68 -204 -68c-161 0 -258 101 -258 273zM431 703
c-37 0 -74 22 -74 66s38 81 86 81c37 0 74 -24 74 -66c0 -47 -38 -81 -86 -81z" />
    <glyph glyph-name="gdotaccent" unicode="&#x121;" horiz-adv-x="546" 
d="M420 496h111l-97 -488c-30 -147 -124 -221 -263 -221c-59 0 -127 24 -183 70l59 91c38 -29 81 -52 128 -52c65 0 107 37 127 104l24 84h-2c-45 -43 -93 -68 -148 -68c-84 0 -145 56 -145 173c0 178 123 319 259 319c45 0 87 -25 106 -65h3zM229 127c33 0 73 16 105 65
l31 157c-17 33 -42 47 -65 47c-68 0 -127 -82 -127 -189c0 -54 22 -80 56 -80zM330 570c-38 0 -74 22 -74 66s37 81 85 81c37 0 74 -23 74 -66c0 -47 -38 -81 -85 -81z" />
    <glyph glyph-name="uni0122" unicode="&#x122;" horiz-adv-x="611" 
d="M56 261c0 225 152 403 357 403c84 0 145 -39 182 -104l-93 -72c-25 38 -54 57 -96 57c-121 0 -209 -130 -209 -275c0 -100 39 -165 141 -165c27 0 53 9 71 22l28 128h-107l21 112h227l-60 -311c-50 -39 -122 -68 -204 -68c-161 0 -258 101 -258 273zM243 -87l35 49
c61 -10 97 -33 97 -76c0 -81 -83 -101 -182 -106l-4 55c61 5 89 17 89 45c0 16 -14 26 -35 33z" />
    <glyph glyph-name="uni0123" unicode="&#x123;" horiz-adv-x="546" 
d="M420 496h111l-97 -488c-30 -147 -124 -221 -263 -221c-59 0 -127 24 -183 70l59 91c38 -29 81 -52 128 -52c65 0 107 37 127 104l24 84h-2c-45 -43 -93 -68 -148 -68c-84 0 -145 56 -145 173c0 178 123 319 259 319c45 0 87 -25 106 -65h3zM229 127c33 0 73 16 105 65
l31 157c-17 33 -42 47 -65 47c-68 0 -127 -82 -127 -189c0 -54 22 -80 56 -80zM387 592l-35 -48c-62 10 -98 32 -98 75c0 81 84 101 182 106l4 -55c-61 -5 -89 -17 -89 -45c0 -16 14 -25 36 -33z" />
    <glyph glyph-name="Hcircumflex" unicode="&#x124;" horiz-adv-x="652" 
d="M28 0l131 652h137l-52 -253h223l50 253h137l-130 -652h-138l57 279h-223l-54 -279h-138zM241 702l115 118h133l68 -118h-100l-41 62h-3l-63 -62h-109z" />
    <glyph glyph-name="hcircumflex" unicode="&#x125;" horiz-adv-x="546" 
d="M14 0l141 701h137l-38 -183l-22 -80h4c44 39 97 70 156 70c82 0 118 -45 118 -127c0 -23 -2 -46 -8 -71l-62 -310h-137l59 293c4 20 8 34 8 47c0 34 -18 51 -51 51c-31 0 -61 -20 -104 -64l-64 -327h-137zM71 755l115 119h133l69 -119h-101l-41 63h-2l-64 -63h-109z" />
    <glyph glyph-name="Hbar" unicode="&#x126;" horiz-adv-x="658" 
d="M469 399l18 90h-222l-18 -90h222zM732 557l-13 -68h-95l-98 -489h-137l56 279h-222l-55 -279h-137l98 489h-59l13 62l59 5l19 96h137l-19 -95h221l19 95h137l-19 -95h95z" />
    <glyph glyph-name="hbar" unicode="&#x127;" horiz-adv-x="546" 
d="M228 418h4c44 39 97 70 156 70c82 0 118 -45 118 -127c0 -23 -2 -46 -8 -71l-58 -290h-137l55 273c4 20 8 34 8 47c0 34 -18 51 -51 51c-31 0 -61 -20 -104 -64l-60 -307h-137l112 558h-68l13 61l69 6l15 76h137l-16 -76h162l-15 -67h-161l-12 -60z" />
    <glyph glyph-name="Itilde" unicode="&#x128;" horiz-adv-x="294" 
d="M28 0l131 652h137l-130 -652h-138zM135 703h-71c22 84 72 130 120 130c58 0 74 -47 114 -47c16 0 29 15 42 45h72c-23 -84 -73 -130 -121 -130c-58 0 -74 47 -114 47c-15 0 -29 -14 -42 -45z" />
    <glyph glyph-name="itilde" unicode="&#x129;" horiz-adv-x="265" 
d="M14 0l100 496h136l-99 -496h-137zM112 577h-72c24 85 71 128 118 128c60 0 74 -45 115 -45c14 0 27 13 39 43h72c-24 -84 -71 -128 -118 -128c-60 0 -74 45 -115 45c-14 0 -27 -13 -39 -43z" />
    <glyph glyph-name="Imacron" unicode="&#x12a;" horiz-adv-x="294" 
d="M28 0l131 652h137l-130 -652h-138zM95 720l17 88h268l-17 -88h-268z" />
    <glyph glyph-name="imacron" unicode="&#x12b;" horiz-adv-x="265" 
d="M14 0l100 496h136l-99 -496h-137zM64 593l18 87h263l-17 -87h-264z" />
    <glyph glyph-name="uni012C" unicode="&#x12c;" horiz-adv-x="294" 
d="M28 0l131 652h137l-130 -652h-138zM225 702c-77 0 -113 48 -106 118h73c-2 -30 13 -49 46 -49s54 21 65 49h75c-22 -70 -67 -118 -153 -118z" />
    <glyph glyph-name="uni012D" unicode="&#x12d;" horiz-adv-x="265" 
d="M14 0l100 496h136l-99 -496h-137zM192 574c-85 0 -118 66 -104 137h73c-4 -35 8 -63 45 -63s60 28 71 63h77c-18 -71 -72 -137 -162 -137z" />
    <glyph glyph-name="Iogonek" unicode="&#x12e;" horiz-adv-x="294" 
d="M72 -101c0 -21 16 -32 35 -32c8 0 16 2 27 9l26 -66c-27 -19 -71 -32 -103 -32c-55 0 -92 28 -92 77c0 67 64 125 95 145h-32l131 652h137l-130 -652c-63 -24 -94 -70 -94 -101z" />
    <glyph glyph-name="iogonek" unicode="&#x12f;" horiz-adv-x="265" 
d="M14 0l100 496h136l-99 -496c-65 -26 -91 -62 -91 -98c0 -19 16 -30 35 -30c11 0 21 4 32 10l23 -56c-28 -20 -71 -36 -103 -36c-50 0 -86 25 -86 73c0 64 61 117 92 137h-39zM208 570c-37 0 -74 22 -74 66s38 81 85 81c38 0 74 -23 74 -66c0 -47 -37 -81 -85 -81z" />
    <glyph glyph-name="Idotaccent" unicode="&#x130;" horiz-adv-x="294" 
d="M28 0l131 652h137l-130 -652h-138zM234 703c-38 0 -74 22 -74 66s38 81 85 81c38 0 74 -24 74 -66c0 -47 -37 -81 -85 -81z" />
    <glyph glyph-name="dotlessi" unicode="&#x131;" horiz-adv-x="265" 
d="M14 0l100 496h136l-99 -496h-137z" />
    <glyph glyph-name="Jcircumflex" unicode="&#x134;" horiz-adv-x="491" 
d="M408 203c-23 -117 -94 -215 -232 -215c-75 0 -146 36 -184 99l84 83c19 -34 54 -64 100 -64c52 0 84 40 100 121l85 425h137zM266 702l116 118h133l68 -118h-100l-41 62h-3l-63 -62h-110z" />
    <glyph glyph-name="jcircumflex" unicode="&#x135;" horiz-adv-x="267" 
d="M252 496l-103 -512c-21 -100 -72 -180 -184 -180c-35 0 -64 6 -96 22l41 99c14 -8 27 -13 44 -13c33 0 47 24 60 78l101 506h137zM46 573l122 149h107l63 -149h-88l-37 81h-4l-68 -81h-95z" />
    <glyph glyph-name="uni0136" unicode="&#x136;" horiz-adv-x="604" 
d="M28 0l131 652h137l-53 -268h3l245 268h150l-237 -268l146 -384h-143l-104 298l-99 -107l-38 -191h-138zM219 -87l35 49c61 -10 97 -33 97 -76c0 -81 -83 -101 -182 -106l-4 55c61 5 89 17 89 45c0 16 -14 26 -35 33z" />
    <glyph glyph-name="uni0137" unicode="&#x137;" horiz-adv-x="525" 
d="M14 0l141 701h137l-82 -406h4l187 201h152l-203 -217l118 -279h-137l-75 200l-81 -81l-24 -119h-137zM166 -87l35 49c61 -10 97 -33 97 -76c0 -81 -84 -101 -182 -106l-4 55c61 5 89 17 89 45c0 16 -14 26 -35 33z" />
    <glyph glyph-name="kgreenlandic" unicode="&#x138;" horiz-adv-x="525" 
d="M14 0l98 496h137l-39 -201h4l187 201h152l-203 -217l118 -279h-137l-75 200l-81 -81l-24 -119h-137z" />
    <glyph glyph-name="Lacute" unicode="&#x139;" horiz-adv-x="500" 
d="M28 0l131 652h137l-108 -537h247l-22 -115h-385zM167 702l101 118h149l-138 -118h-112z" />
    <glyph glyph-name="lacute" unicode="&#x13a;" horiz-adv-x="275" 
d="M44 146l111 555h137l-113 -561c-2 -10 -2 -14 -2 -19c0 -17 9 -23 19 -23c6 0 9 0 18 2l-4 -101c-17 -6 -41 -11 -73 -11c-71 0 -100 37 -100 97c0 18 2 36 7 61zM162 757l102 118h148l-138 -118h-112z" />
    <glyph glyph-name="uni013B" unicode="&#x13b;" horiz-adv-x="500" 
d="M28 0l131 652h137l-108 -537h247l-22 -115h-385zM163 -87l35 49c62 -10 97 -33 97 -76c0 -81 -83 -101 -181 -106l-4 55c61 5 89 17 89 45c0 16 -14 26 -36 33z" />
    <glyph glyph-name="uni013C" unicode="&#x13c;" horiz-adv-x="275" 
d="M44 146l111 555h137l-113 -561c-2 -10 -2 -14 -2 -19c0 -17 9 -23 19 -23c6 0 9 0 18 2l-4 -101c-17 -6 -41 -11 -73 -11c-71 0 -100 37 -100 97c0 18 2 36 7 61zM12 -87l35 49c61 -10 97 -33 97 -76c0 -81 -83 -101 -182 -106l-4 55c61 5 89 17 89 45
c0 16 -14 26 -35 33z" />
    <glyph glyph-name="Lcaron" unicode="&#x13d;" horiz-adv-x="500" 
d="M28 0l131 652h137l-108 -537h247l-22 -115h-385zM450 508h-60l40 222h87l-14 -70z" />
    <glyph glyph-name="lcaron" unicode="&#x13e;" horiz-adv-x="281" 
d="M44 146l111 555h137l-113 -561c-2 -10 -2 -14 -2 -19c0 -17 9 -23 19 -23c6 0 9 0 18 2l-4 -101c-17 -6 -41 -11 -73 -11c-71 0 -100 37 -100 97c0 18 2 36 7 61zM359 548h-60l40 222h87l-14 -69z" />
    <glyph glyph-name="Ldot" unicode="&#x13f;" horiz-adv-x="500" 
d="M28 0l131 652h137l-108 -537h247l-22 -115h-385zM401 239c-43 0 -71 31 -71 75c0 48 40 100 98 100c43 0 70 -32 70 -75c0 -50 -39 -100 -97 -100z" />
    <glyph glyph-name="ldot" unicode="&#x140;" horiz-adv-x="421" 
d="M44 146l111 555h137l-113 -561c-2 -10 -2 -14 -2 -19c0 -17 9 -23 19 -23c6 0 9 0 18 2l-4 -101c-17 -6 -41 -11 -73 -11c-71 0 -100 37 -100 97c0 18 2 36 7 61zM347 247c-43 0 -71 31 -71 75c0 48 39 100 98 100c42 0 70 -32 70 -75c0 -50 -39 -100 -97 -100z" />
    <glyph glyph-name="Lslash" unicode="&#x141;" horiz-adv-x="500" 
d="M188 115h247l-22 -115h-385l41 203l-76 -38l23 114l76 38l67 335h137l-53 -265l186 95l-22 -114l-187 -95z" />
    <glyph glyph-name="lslash" unicode="&#x142;" horiz-adv-x="285" 
d="M233 356l-44 -216c-2 -10 -2 -14 -2 -19c0 -17 9 -23 19 -23c6 0 9 0 18 2l-5 -101c-16 -6 -40 -11 -72 -11c-71 0 -100 37 -100 97c0 18 2 36 7 61l28 142l-67 -37l24 110l65 37l61 303h137l-47 -234l71 40l-21 -109z" />
    <glyph glyph-name="Nacute" unicode="&#x143;" horiz-adv-x="643" 
d="M28 0l131 652h133l106 -340l35 -143h4c7 68 12 161 27 236l50 247h130l-130 -652h-132l-107 339l-33 145h-4c-7 -73 -14 -159 -29 -234l-50 -250h-131zM338 702l101 118h149l-138 -118h-112z" />
    <glyph glyph-name="nacute" unicode="&#x144;" horiz-adv-x="552" 
d="M14 0l98 496h111l-2 -66h4c49 42 104 78 167 78c82 0 118 -45 118 -127c0 -23 -3 -46 -8 -71l-62 -310h-137l59 293c4 20 8 34 8 47c0 34 -18 51 -51 51c-31 0 -61 -20 -104 -64l-64 -327h-137zM276 573l116 149h137l-149 -149h-104z" />
    <glyph glyph-name="uni0145" unicode="&#x145;" horiz-adv-x="643" 
d="M28 0l131 652h133l106 -340l35 -143h4c7 68 12 161 27 236l50 247h130l-130 -652h-132l-107 339l-33 145h-4c-7 -73 -14 -159 -29 -234l-50 -250h-131zM226 -95l35 49c61 -10 97 -33 97 -76c0 -81 -83 -101 -182 -106l-4 55c61 5 89 17 89 45c0 16 -13 26 -35 33z" />
    <glyph glyph-name="uni0146" unicode="&#x146;" horiz-adv-x="552" 
d="M14 0l98 496h111l-2 -66h4c49 42 104 78 167 78c82 0 118 -45 118 -127c0 -23 -3 -46 -8 -71l-62 -310h-137l59 293c4 20 8 34 8 47c0 34 -18 51 -51 51c-31 0 -61 -20 -104 -64l-64 -327h-137zM165 -87l35 49c61 -10 97 -33 97 -76c0 -81 -83 -101 -182 -106l-4 55
c61 5 89 17 89 45c0 16 -14 26 -35 33z" />
    <glyph glyph-name="Ncaron" unicode="&#x147;" horiz-adv-x="643" 
d="M28 0l131 652h133l106 -340l35 -143h4c7 68 12 161 27 236l50 247h130l-130 -652h-132l-107 339l-33 145h-4c-7 -73 -14 -159 -29 -234l-50 -250h-131zM592 820l-115 -118h-133l-68 118h100l41 -63h3l63 63h109z" />
    <glyph glyph-name="ncaron" unicode="&#x148;" horiz-adv-x="552" 
d="M14 0l98 496h111l-2 -66h4c49 42 104 78 167 78c82 0 118 -45 118 -127c0 -23 -3 -46 -8 -71l-62 -310h-137l59 293c4 20 8 34 8 47c0 34 -18 51 -51 51c-31 0 -61 -20 -104 -64l-64 -327h-137zM536 722l-122 -149h-107l-63 149h88l36 -80h4l68 80h96z" />
    <glyph glyph-name="napostrophe" unicode="&#x149;" horiz-adv-x="822" 
d="M129 374l-22 60c74 28 114 85 115 118h-6c-41 0 -71 23 -71 63c0 43 32 82 83 82c45 0 74 -36 74 -97c0 -119 -80 -197 -173 -226zM495 430h4c49 42 104 78 167 78c82 0 117 -45 117 -127c0 -23 -2 -46 -8 -71l-62 -310h-136l58 293c5 20 8 34 8 47c0 34 -17 51 -50 51
c-31 0 -61 -20 -104 -64l-64 -327h-137l98 496h111z" />
    <glyph glyph-name="Omacron" unicode="&#x14c;" horiz-adv-x="660" 
d="M302 -12c-149 0 -245 102 -245 276c0 230 155 400 331 400c149 0 245 -103 245 -276c0 -230 -154 -400 -331 -400zM382 545c-93 0 -185 -121 -185 -272c0 -104 40 -167 112 -167c93 0 184 122 184 273c0 104 -39 166 -111 166zM284 720l18 88h267l-17 -88h-268z" />
    <glyph glyph-name="omacron" unicode="&#x14d;" horiz-adv-x="533" 
d="M222 -12c-116 0 -192 81 -192 204c0 192 141 316 278 316c115 0 192 -81 192 -204c0 -192 -141 -316 -278 -316zM292 398c-66 0 -124 -87 -124 -203c0 -60 23 -97 69 -97c67 0 125 87 125 203c0 61 -24 97 -70 97zM203 593l17 87h264l-18 -87h-263z" />
    <glyph glyph-name="uni014E" unicode="&#x14e;" horiz-adv-x="660" 
d="M302 -12c-149 0 -245 102 -245 276c0 230 155 400 331 400c149 0 245 -103 245 -276c0 -230 -154 -400 -331 -400zM382 545c-93 0 -185 -121 -185 -272c0 -104 40 -167 112 -167c93 0 184 122 184 273c0 104 -39 166 -111 166zM414 702c-77 0 -113 48 -106 118h73
c-2 -30 14 -49 46 -49c33 0 55 21 65 49h75c-22 -70 -67 -118 -153 -118z" />
    <glyph glyph-name="uni014F" unicode="&#x14f;" horiz-adv-x="533" 
d="M222 -12c-116 0 -192 81 -192 204c0 192 141 316 278 316c115 0 192 -81 192 -204c0 -192 -141 -316 -278 -316zM292 398c-66 0 -124 -87 -124 -203c0 -60 23 -97 69 -97c67 0 125 87 125 203c0 61 -24 97 -70 97zM331 574c-86 0 -118 66 -104 137h73
c-4 -35 8 -63 45 -63s60 28 71 63h77c-18 -71 -73 -137 -162 -137z" />
    <glyph glyph-name="Ohungarumlaut" unicode="&#x150;" horiz-adv-x="660" 
d="M302 -12c-149 0 -245 102 -245 276c0 230 155 400 331 400c149 0 245 -103 245 -276c0 -230 -154 -400 -331 -400zM382 545c-93 0 -185 -121 -185 -272c0 -104 40 -167 112 -167c93 0 184 122 184 273c0 104 -39 166 -111 166zM285 702l85 119h117l-110 -119h-92z
M455 702l85 119h117l-110 -119h-92z" />
    <glyph glyph-name="ohungarumlaut" unicode="&#x151;" horiz-adv-x="533" 
d="M222 -12c-116 0 -192 81 -192 204c0 192 141 316 278 316c115 0 192 -81 192 -204c0 -192 -141 -316 -278 -316zM292 398c-66 0 -124 -87 -124 -203c0 -60 23 -97 69 -97c67 0 125 87 125 203c0 61 -24 97 -70 97zM208 573l101 149h110l-122 -149h-89zM372 573l100 149
h111l-123 -149h-88z" />
    <glyph glyph-name="OE" unicode="&#x152;" horiz-adv-x="833" 
d="M57 256c0 257 150 396 359 396h436l-23 -115h-238l-28 -142h201l-23 -115h-200l-34 -165h247l-23 -115h-386c-182 0 -288 84 -288 256zM456 542h-37c-126 0 -222 -87 -222 -277c0 -108 60 -155 152 -155h21z" />
    <glyph glyph-name="oe" unicode="&#x153;" horiz-adv-x="798" 
d="M214 -12c-111 0 -184 81 -184 204c0 192 139 316 269 316c73 0 115 -34 141 -95c46 61 109 95 166 95c119 0 162 -83 162 -186c0 -47 -17 -98 -25 -113h-271c-3 -83 42 -118 100 -118c31 0 67 18 91 35l49 -86c-40 -28 -101 -52 -178 -52c-63 0 -115 35 -142 99
c-47 -63 -113 -99 -178 -99zM284 398c-58 0 -116 -87 -116 -203c0 -60 23 -97 69 -97c62 0 116 87 116 203c0 61 -23 97 -69 97zM483 293h169c2 10 4 23 4 37c0 40 -17 73 -66 73c-43 0 -87 -37 -107 -110z" />
    <glyph glyph-name="Racute" unicode="&#x154;" horiz-adv-x="596" 
d="M555 820l-138 -118h-112l102 118h148zM235 348h69c97 0 147 46 147 117c0 55 -39 78 -109 78h-69zM159 652h204c128 0 223 -46 223 -167c0 -122 -70 -195 -166 -227l101 -258h-144l-84 239h-80l-47 -239h-138z" />
    <glyph glyph-name="racute" unicode="&#x155;" horiz-adv-x="384" 
d="M14 0l98 496h111l-6 -96h4c39 62 95 108 152 108c25 0 41 -4 52 -10l-45 -118c-13 7 -33 8 -49 8c-44 0 -85 -31 -124 -101l-56 -287h-137zM199 573l116 149h136l-149 -149h-103z" />
    <glyph glyph-name="uni0156" unicode="&#x156;" horiz-adv-x="596" 
d="M210 -95l35 49c61 -10 97 -33 97 -76c0 -81 -83 -101 -182 -106l-4 55c61 5 89 17 89 45c0 16 -13 26 -35 33zM235 348h69c97 0 147 46 147 117c0 55 -39 78 -109 78h-69zM159 652h204c128 0 223 -46 223 -167c0 -122 -70 -195 -166 -227l101 -258h-144l-84 239h-80
l-47 -239h-138z" />
    <glyph glyph-name="uni0157" unicode="&#x157;" horiz-adv-x="384" 
d="M14 0l98 496h111l-6 -96h4c39 62 95 108 152 108c25 0 41 -4 52 -10l-45 -118c-13 7 -33 8 -49 8c-44 0 -85 -31 -124 -101l-56 -287h-137zM14 -87l35 49c61 -10 97 -33 97 -76c0 -81 -83 -101 -181 -106l-4 55c61 5 89 17 89 45c0 16 -14 26 -36 33z" />
    <glyph glyph-name="Rcaron" unicode="&#x158;" horiz-adv-x="596" 
d="M445 702h-133l-69 118h100l42 -63h2l64 63h109zM235 348h69c97 0 147 46 147 117c0 55 -39 78 -109 78h-69zM159 652h204c128 0 223 -46 223 -167c0 -122 -70 -195 -166 -227l101 -258h-144l-84 239h-80l-47 -239h-138z" />
    <glyph glyph-name="rcaron" unicode="&#x159;" horiz-adv-x="384" 
d="M14 0l98 496h111l-6 -96h4c39 62 95 108 152 108c25 0 41 -4 52 -10l-45 -118c-13 7 -33 8 -49 8c-44 0 -85 -31 -124 -101l-56 -287h-137zM458 722l-122 -149h-107l-63 149h89l36 -80h4l68 80h95z" />
    <glyph glyph-name="Sacute" unicode="&#x15a;" horiz-adv-x="529" 
d="M5 110l98 77c35 -50 89 -82 145 -82s94 28 94 75c0 35 -30 52 -76 81l-62 38c-59 37 -97 83 -97 163c0 111 101 202 229 202c77 0 148 -39 198 -99l-87 -81c-33 35 -69 61 -117 61c-53 0 -83 -32 -83 -70c0 -33 31 -49 82 -81l64 -39c63 -38 91 -80 91 -155
c0 -119 -97 -212 -246 -212c-85 0 -169 35 -233 122zM283 708l102 118h148l-138 -118h-112z" />
    <glyph glyph-name="sacute" unicode="&#x15b;" horiz-adv-x="424" 
d="M-8 84l79 66c35 -42 71 -62 107 -62c38 0 70 20 70 47c0 29 -30 42 -86 74c-56 31 -100 75 -100 137c0 94 86 162 192 162c68 0 122 -33 163 -76l-75 -71c-24 25 -53 45 -88 45c-38 0 -64 -21 -64 -47c0 -31 42 -46 82 -69c59 -32 104 -71 104 -139
c0 -97 -86 -163 -206 -163c-61 0 -137 34 -178 96zM196 573l116 149h137l-149 -149h-104z" />
    <glyph glyph-name="Scircumflex" unicode="&#x15c;" horiz-adv-x="529" 
d="M5 110l98 77c35 -50 89 -82 145 -82s94 28 94 75c0 35 -30 52 -76 81l-62 38c-59 37 -97 83 -97 163c0 111 101 202 229 202c77 0 148 -39 198 -99l-87 -81c-33 35 -69 61 -117 61c-53 0 -83 -32 -83 -70c0 -33 31 -49 82 -81l64 -39c63 -38 91 -80 91 -155
c0 -119 -97 -212 -246 -212c-85 0 -169 35 -233 122zM198 708l115 118h133l69 -118h-101l-41 63h-3l-63 -63h-109z" />
    <glyph glyph-name="scircumflex" unicode="&#x15d;" horiz-adv-x="424" 
d="M-8 84l79 66c35 -42 71 -62 107 -62c38 0 70 20 70 47c0 29 -30 42 -86 74c-56 31 -100 75 -100 137c0 94 86 162 192 162c68 0 122 -33 163 -76l-75 -71c-24 25 -53 45 -88 45c-38 0 -64 -21 -64 -47c0 -31 42 -46 82 -69c59 -32 104 -71 104 -139
c0 -97 -86 -163 -206 -163c-61 0 -137 34 -178 96zM132 573l122 149h107l63 -149h-88l-36 81h-4l-68 -81h-96z" />
    <glyph glyph-name="uni015E" unicode="&#x15e;" horiz-adv-x="529" 
d="M329 394l64 -39c63 -38 91 -80 91 -155c0 -107 -78 -193 -202 -209l-23 -36c26 -10 44 -27 44 -59c0 -78 -89 -110 -187 -116l-4 55c49 5 89 21 89 50c0 16 -9 29 -46 39l45 66c-72 10 -141 46 -195 120l98 77c35 -50 89 -82 145 -82s94 28 94 75c0 35 -30 52 -76 81
l-62 38c-59 37 -97 83 -97 163c0 111 101 202 229 202c77 0 148 -39 198 -99l-87 -81c-33 35 -69 61 -117 61c-53 0 -83 -32 -83 -70c0 -33 31 -49 82 -81z" />
    <glyph glyph-name="uni015F" unicode="&#x15f;" horiz-adv-x="424" 
d="M417 432l-75 -71c-24 25 -53 45 -88 45c-38 0 -64 -21 -64 -47c0 -31 42 -46 82 -69c59 -32 104 -71 104 -139c0 -87 -69 -149 -170 -161l-22 -35c26 -10 44 -27 44 -59c0 -78 -89 -110 -187 -116l-4 55c49 5 89 21 89 50c0 16 -9 29 -46 39l47 69
c-51 12 -103 43 -135 91l79 66c35 -42 71 -62 107 -62c38 0 70 20 70 47c0 29 -30 42 -86 74c-56 31 -100 75 -100 137c0 94 86 162 192 162c68 0 122 -33 163 -76z" />
    <glyph glyph-name="Scaron" unicode="&#x160;" horiz-adv-x="529" 
d="M5 110l98 77c35 -50 89 -82 145 -82s94 28 94 75c0 35 -30 52 -76 81l-62 38c-59 37 -97 83 -97 163c0 111 101 202 229 202c77 0 148 -39 198 -99l-87 -81c-33 35 -69 61 -117 61c-53 0 -83 -32 -83 -70c0 -33 31 -49 82 -81l64 -39c63 -38 91 -80 91 -155
c0 -119 -97 -212 -246 -212c-85 0 -169 35 -233 122zM538 826l-115 -118h-133l-69 118h101l41 -62h2l64 62h109z" />
    <glyph glyph-name="scaron" unicode="&#x161;" horiz-adv-x="424" 
d="M-8 84l79 66c35 -42 71 -62 107 -62c38 0 70 20 70 47c0 29 -30 42 -86 74c-56 31 -100 75 -100 137c0 94 86 162 192 162c68 0 122 -33 163 -76l-75 -71c-24 25 -53 45 -88 45c-38 0 -64 -21 -64 -47c0 -31 42 -46 82 -69c59 -32 104 -71 104 -139
c0 -97 -86 -163 -206 -163c-61 0 -137 34 -178 96zM456 722l-122 -149h-107l-63 149h88l36 -80h4l68 80h96z" />
    <glyph glyph-name="uni0162" unicode="&#x162;" horiz-adv-x="532" 
d="M106 652h480l-23 -116h-171l-106 -536h-26l-28 -45c25 -10 44 -27 44 -59c0 -78 -89 -110 -187 -116l-4 55c49 5 89 21 89 50c0 16 -9 29 -46 39l51 76h-30l106 536h-171z" />
    <glyph glyph-name="uni0163" unicode="&#x163;" horiz-adv-x="367" 
d="M248 389l-43 -213c-2 -12 -2 -22 -2 -33c0 -32 16 -48 51 -48c15 0 28 5 41 11l24 -96c-24 -9 -58 -20 -103 -22l-20 -33c25 -10 44 -27 44 -59c0 -78 -89 -110 -188 -116l-4 55c50 5 90 21 90 50c0 16 -10 29 -46 39l49 73c-55 18 -79 64 -79 122c0 21 4 42 8 63l43 207
h-66l20 101l73 6l42 130h115l-25 -130h113l-21 -107h-116z" />
    <glyph glyph-name="Tcaron" unicode="&#x164;" horiz-adv-x="532" 
d="M149 0l106 536h-171l22 116h480l-23 -116h-171l-106 -536h-137zM527 820l-115 -118h-133l-68 118h100l41 -63h3l63 63h109z" />
    <glyph glyph-name="tcaron" unicode="&#x165;" horiz-adv-x="367" 
d="M70 182l43 207h-66l20 101l73 6l42 130h115l-25 -130h113l-21 -107h-116l-43 -213c-2 -12 -2 -22 -2 -33c0 -32 16 -48 51 -48c15 0 28 5 41 11l24 -96c-26 -10 -65 -22 -116 -22c-100 0 -141 55 -141 131c0 21 4 42 8 63zM390 548h-60l40 222h88l-15 -69z" />
    <glyph glyph-name="Utilde" unicode="&#x168;" horiz-adv-x="643" 
d="M88 320l67 332h137l-71 -357c-5 -27 -8 -52 -8 -76c0 -73 26 -113 99 -113c62 0 103 47 127 168l76 378h134l-76 -376c-40 -200 -126 -288 -265 -288c-154 0 -233 73 -233 227c0 29 7 71 13 105zM317 703h-71c22 84 72 130 120 130c58 0 74 -47 114 -47c16 0 30 15 42 45
h72c-23 -84 -73 -130 -121 -130c-58 0 -74 47 -113 47c-16 0 -30 -14 -43 -45z" />
    <glyph glyph-name="utilde" unicode="&#x169;" horiz-adv-x="545" 
d="M529 496l-98 -496h-111l2 67h-4c-45 -42 -102 -79 -162 -79c-82 0 -117 45 -117 128c0 22 3 45 8 70l62 310h136l-58 -293c-5 -20 -8 -34 -8 -47c0 -34 18 -51 50 -51c29 0 60 20 99 64l64 327h137zM247 577h-71c23 85 70 128 117 128c60 0 74 -45 115 -45
c15 0 27 13 40 43h71c-23 -84 -70 -128 -117 -128c-61 0 -74 45 -115 45c-15 0 -27 -13 -40 -43z" />
    <glyph glyph-name="Umacron" unicode="&#x16a;" horiz-adv-x="643" 
d="M88 320l67 332h137l-71 -357c-5 -27 -8 -52 -8 -76c0 -73 26 -113 99 -113c62 0 103 47 127 168l76 378h134l-76 -376c-40 -200 -126 -288 -265 -288c-154 0 -233 73 -233 227c0 29 7 71 13 105zM277 720l18 88h267l-17 -88h-268z" />
    <glyph glyph-name="umacron" unicode="&#x16b;" horiz-adv-x="545" 
d="M529 496l-98 -496h-111l2 67h-4c-45 -42 -102 -79 -162 -79c-82 0 -117 45 -117 128c0 22 3 45 8 70l62 310h136l-58 -293c-5 -20 -8 -34 -8 -47c0 -34 18 -51 50 -51c29 0 60 20 99 64l64 327h137zM200 593l17 87h263l-17 -87h-263z" />
    <glyph glyph-name="Ubreve" unicode="&#x16c;" horiz-adv-x="643" 
d="M88 320l67 332h137l-71 -357c-5 -27 -8 -52 -8 -76c0 -73 26 -113 99 -113c62 0 103 47 127 168l76 378h134l-76 -376c-40 -200 -126 -288 -265 -288c-154 0 -233 73 -233 227c0 29 7 71 13 105zM407 702c-77 0 -113 48 -106 118h73c-2 -30 14 -49 46 -49
c33 0 55 21 65 49h75c-22 -70 -67 -118 -153 -118z" />
    <glyph glyph-name="ubreve" unicode="&#x16d;" horiz-adv-x="545" 
d="M529 496l-98 -496h-111l2 67h-4c-45 -42 -102 -79 -162 -79c-82 0 -117 45 -117 128c0 22 3 45 8 70l62 310h136l-58 -293c-5 -20 -8 -34 -8 -47c0 -34 18 -51 50 -51c29 0 60 20 99 64l64 327h137zM328 574c-86 0 -118 66 -104 137h73c-4 -35 8 -63 44 -63
c37 0 60 28 72 63h77c-18 -71 -73 -137 -162 -137z" />
    <glyph glyph-name="Uring" unicode="&#x16e;" horiz-adv-x="643" 
d="M88 320l67 332h137l-71 -357c-5 -27 -8 -52 -8 -76c0 -73 26 -113 99 -113c62 0 103 47 127 168l76 378h134l-76 -376c-40 -200 -126 -288 -265 -288c-154 0 -233 73 -233 227c0 29 7 71 13 105zM419 696c-55 0 -101 26 -101 86s51 110 114 110c53 0 101 -28 101 -86
c0 -61 -52 -110 -114 -110zM430 838c-26 0 -46 -24 -46 -51c0 -21 14 -37 37 -37c24 0 45 23 45 51c0 21 -13 37 -36 37z" />
    <glyph glyph-name="uring" unicode="&#x16f;" horiz-adv-x="545" 
d="M529 496l-98 -496h-111l2 67h-4c-45 -42 -102 -79 -162 -79c-82 0 -117 45 -117 128c0 22 3 45 8 70l62 310h136l-58 -293c-5 -20 -8 -34 -8 -47c0 -34 18 -51 50 -51c29 0 60 20 99 64l64 327h137zM338 547c-58 0 -100 33 -100 89c0 64 48 112 112 112
c59 0 100 -32 100 -89c0 -63 -48 -112 -112 -112zM348 695c-23 0 -43 -25 -43 -55c0 -22 11 -40 35 -40s43 26 43 56c0 20 -11 39 -35 39z" />
    <glyph glyph-name="Uhungarumlaut" unicode="&#x170;" horiz-adv-x="643" 
d="M88 320l67 332h137l-71 -357c-5 -27 -8 -52 -8 -76c0 -73 26 -113 99 -113c62 0 103 47 127 168l76 378h134l-76 -376c-40 -200 -126 -288 -265 -288c-154 0 -233 73 -233 227c0 29 7 71 13 105zM278 702l85 119h117l-110 -119h-92zM448 702l85 119h117l-110 -119h-92z
" />
    <glyph glyph-name="uhungarumlaut" unicode="&#x171;" horiz-adv-x="545" 
d="M529 496l-98 -496h-111l2 67h-4c-45 -42 -102 -79 -162 -79c-82 0 -117 45 -117 128c0 22 3 45 8 70l62 310h136l-58 -293c-5 -20 -8 -34 -8 -47c0 -34 18 -51 50 -51c29 0 60 20 99 64l64 327h137zM205 573l100 149h111l-123 -149h-88zM368 573l101 149h110l-122 -149
h-89z" />
    <glyph glyph-name="Uogonek" unicode="&#x172;" horiz-adv-x="643" 
d="M649 652l-76 -376c-32 -173 -93 -241 -206 -282c-70 -25 -98 -65 -98 -95c0 -21 16 -32 35 -32c8 0 16 2 27 9l26 -67c-28 -18 -71 -31 -103 -31c-55 0 -93 28 -93 77c0 57 51 112 87 138c-113 18 -173 91 -173 222c0 29 7 71 13 105l67 332h137l-71 -357
c-5 -27 -8 -52 -8 -76c0 -73 26 -113 99 -113c62 0 103 47 127 168l76 378h134z" />
    <glyph glyph-name="uogonek" unicode="&#x173;" horiz-adv-x="545" 
d="M529 496l-98 -496c-65 -20 -105 -57 -105 -98c0 -19 16 -30 34 -30c11 0 22 4 32 10l24 -56c-28 -20 -71 -36 -104 -36c-49 0 -86 25 -86 73c0 65 61 116 94 139l2 65h-4c-45 -42 -102 -79 -162 -79c-82 0 -117 45 -117 128c0 22 3 45 8 70l62 310h136l-58 -293
c-5 -20 -8 -34 -8 -47c0 -34 18 -51 50 -51c29 0 60 20 99 64l64 327h137z" />
    <glyph glyph-name="Wcircumflex" unicode="&#x174;" horiz-adv-x="794" 
d="M77 0l23 652h140l-21 -313c-6 -69 -12 -140 -20 -209h4c27 69 59 141 85 209l134 313h116l2 -313c-1 -67 -4 -139 -7 -209h4c24 70 51 141 73 209l110 313h131l-253 -652h-173l4 312c0 42 4 102 9 152h-4c-18 -49 -40 -101 -59 -152l-128 -312h-170zM317 702l115 118h133
l69 -118h-100l-42 63h-2l-64 -63h-109z" />
    <glyph glyph-name="wcircumflex" unicode="&#x175;" horiz-adv-x="748" 
d="M96 0l-24 496h135l1 -240c-1 -48 -4 -97 -6 -146h4c18 49 35 99 56 146l102 240h119l8 -240c1 -48 0 -97 0 -146h4c18 49 33 98 52 146l93 240h127l-212 -496h-161l-4 208c1 46 1 93 2 145h-4c-19 -52 -34 -99 -52 -145l-85 -208h-155zM286 573l122 149h107l63 -149h-88
l-36 81h-4l-68 -81h-96z" />
    <glyph glyph-name="Ycircumflex" unicode="&#x176;" 
d="M138 0l46 236l-104 416h142l28 -157c9 -49 16 -92 25 -143h4c27 51 51 95 80 145l91 155h147l-276 -416l-47 -236h-136zM172 702l116 118h133l68 -118h-100l-41 63h-3l-63 -63h-110z" />
    <glyph glyph-name="ycircumflex" unicode="&#x177;" horiz-adv-x="499" 
d="M7 -76c10 -6 24 -10 37 -10c36 0 72 28 94 72l12 25l-86 485h136l23 -224c5 -43 8 -102 9 -149h4c21 46 45 104 66 149l104 224h133l-268 -507c-69 -119 -133 -183 -235 -183c-18 0 -51 9 -71 20zM152 573l122 149h107l63 -149h-88l-36 81h-4l-68 -81h-96z" />
    <glyph glyph-name="Ydieresis" unicode="&#x178;" 
d="M138 0l46 236l-104 416h142l28 -157c9 -49 16 -92 25 -143h4c27 51 51 95 80 145l91 155h147l-276 -416l-47 -236h-136zM242 701c-33 0 -58 22 -58 58s31 75 74 75c30 0 57 -21 57 -57c0 -37 -31 -76 -73 -76zM432 701c-32 0 -57 22 -57 58s31 75 73 75
c31 0 57 -21 57 -57c0 -37 -30 -76 -73 -76z" />
    <glyph glyph-name="Zacute" unicode="&#x179;" horiz-adv-x="525" 
d="M-5 0l18 82l356 455h-257l23 115h421l-17 -83l-353 -454h283l-24 -115h-450zM277 702l102 118h148l-138 -118h-112z" />
    <glyph glyph-name="zacute" unicode="&#x17a;" horiz-adv-x="443" 
d="M-10 0l15 77l263 312h-179l20 107h351l-15 -79l-263 -310h208l-21 -107h-379zM208 573l116 149h137l-149 -149h-104z" />
    <glyph glyph-name="Zdotaccent" unicode="&#x17b;" horiz-adv-x="525" 
d="M-5 0l18 82l356 455h-257l23 115h421l-17 -83l-353 -454h283l-24 -115h-450zM359 703c-37 0 -74 22 -74 66s38 81 85 81c38 0 75 -24 75 -66c0 -47 -38 -81 -86 -81z" />
    <glyph glyph-name="zdotaccent" unicode="&#x17c;" horiz-adv-x="443" 
d="M-10 0l15 77l263 312h-179l20 107h351l-15 -79l-263 -310h208l-21 -107h-379zM298 570c-38 0 -74 22 -74 66s37 81 85 81c37 0 74 -23 74 -66c0 -47 -38 -81 -85 -81z" />
    <glyph glyph-name="Zcaron" unicode="&#x17d;" horiz-adv-x="525" 
d="M-5 0l18 82l356 455h-257l23 115h421l-17 -83l-353 -454h283l-24 -115h-450zM532 820l-115 -118h-133l-69 118h100l42 -63h2l64 63h109z" />
    <glyph glyph-name="zcaron" unicode="&#x17e;" horiz-adv-x="443" 
d="M-10 0l15 77l263 312h-179l20 107h351l-15 -79l-263 -310h208l-21 -107h-379zM468 722l-122 -149h-107l-63 149h88l36 -80h4l68 80h96z" />
    <glyph glyph-name="uni0180" unicode="&#x180;" horiz-adv-x="546" 
d="M215 314l-34 -167c15 -33 40 -47 65 -47c69 0 129 86 129 199c0 53 -23 77 -58 77c-31 0 -73 -16 -102 -62zM230 429h2c44 36 95 59 144 59c88 0 140 -61 140 -172c0 -183 -124 -328 -260 -328c-45 0 -86 25 -105 65h-2l-22 -53h-113l112 558h-68l13 61l69 6l15 76h137
l-16 -76h162l-15 -67h-161l-7 -36z" />
    <glyph glyph-name="uni018F" unicode="&#x18f;" horiz-adv-x="668" 
d="M490 273h-295c-16 -107 40 -168 115 -168c77 0 149 65 180 168zM247 498l-58 93c53 47 123 81 214 81c157 0 240 -104 240 -271c0 -244 -157 -413 -343 -413c-147 0 -235 100 -235 256c0 50 8 82 22 129h419v14c0 106 -33 168 -120 168c-60 0 -102 -26 -139 -57z" />
    <glyph glyph-name="uni0192" unicode="&#x192;" 
d="M226 412l19 64c40 135 103 194 216 194c28 0 60 -8 88 -23l-41 -98c-14 7 -30 13 -48 13c-40 0 -70 -39 -85 -87l-19 -63h99l-19 -99h-111l-65 -211c-36 -111 -88 -198 -202 -198c-31 0 -68 6 -95 25l39 96c12 -7 28 -13 46 -13c42 0 65 31 98 139l49 162h-73l19 94l72 5
h13z" />
    <glyph glyph-name="Ohorn" unicode="&#x1a0;" horiz-adv-x="660" 
d="M309 106c93 0 184 122 184 273c0 104 -39 166 -111 166c-93 0 -185 -121 -185 -272c0 -104 40 -167 112 -167zM584 743l102 31c9 -20 13 -40 13 -60c0 -63 -47 -112 -128 -128c40 -47 62 -115 62 -198c0 -230 -154 -400 -331 -400c-149 0 -245 102 -245 276
c0 230 155 400 331 400c47 0 88 -10 123 -29c52 6 80 37 80 71c0 12 -2 24 -7 37z" />
    <glyph glyph-name="ohorn" unicode="&#x1a1;" horiz-adv-x="538" 
d="M237 98c67 0 125 87 125 203c0 61 -24 97 -70 97c-66 0 -124 -87 -124 -203c0 -60 23 -97 69 -97zM469 594l102 32c9 -21 13 -41 13 -61c0 -58 -38 -107 -125 -127c26 -34 41 -80 41 -134c0 -192 -141 -316 -278 -316c-116 0 -192 81 -192 204c0 192 141 316 278 316
c35 0 67 -8 94 -22c45 8 74 37 74 71c0 12 -2 24 -7 37z" />
    <glyph glyph-name="Uhorn" unicode="&#x1af;" horiz-adv-x="666" 
d="M666 759l101 32c10 -20 13 -40 13 -61c0 -60 -41 -111 -142 -132l-65 -322c-40 -200 -126 -288 -265 -288c-154 0 -233 73 -233 227c0 29 7 71 13 105l67 332h137l-71 -357c-5 -27 -8 -52 -8 -76c0 -73 26 -113 99 -113c62 0 103 47 127 168l76 378h78c49 5 80 36 80 71
c0 11 -3 24 -7 36z" />
    <glyph glyph-name="uhorn" unicode="&#x1b0;" horiz-adv-x="567" 
d="M522 604l102 32c10 -21 13 -41 13 -61c0 -62 -45 -108 -118 -127l-88 -448h-111l2 67h-4c-45 -42 -102 -79 -162 -79c-82 0 -117 45 -117 128c0 22 3 45 8 70l62 310h136l-58 -293c-5 -20 -8 -34 -8 -47c0 -34 18 -51 50 -51c29 0 60 20 99 64l64 327h60
c48 6 78 37 78 71c0 12 -3 24 -8 37z" />
    <glyph glyph-name="uni01CD" unicode="&#x1cd;" horiz-adv-x="548" 
d="M425 702h-133l-68 118h100l41 -63h3l63 63h109zM215 267h140l-4 86c-3 64 -6 125 -8 194h-4c-28 -67 -53 -129 -84 -194zM282 652h164l65 -652h-143l-8 164h-194l-77 -164h-151z" />
    <glyph glyph-name="uni01CE" unicode="&#x1ce;" horiz-adv-x="552" 
d="M31 170c0 189 128 338 265 338c45 0 89 -25 108 -65h2l22 53h109l-99 -496h-111l2 65h-3c-45 -47 -103 -77 -155 -77c-87 0 -140 65 -140 182zM231 100c33 0 74 17 106 73l35 176c-16 33 -43 47 -66 47c-69 0 -133 -90 -133 -209c0 -60 22 -87 58 -87zM508 722l-122 -149
h-107l-63 149h89l36 -80h4l68 80h95z" />
    <glyph glyph-name="uni01CF" unicode="&#x1cf;" horiz-adv-x="294" 
d="M28 0l131 652h137l-130 -652h-138zM407 820l-116 -118h-132l-69 118h100l42 -63h2l64 63h109z" />
    <glyph glyph-name="uni01D0" unicode="&#x1d0;" horiz-adv-x="265" 
d="M14 0l100 496h136l-99 -496h-137zM370 722l-122 -149h-107l-63 149h88l37 -80h4l68 80h95z" />
    <glyph glyph-name="uni01D1" unicode="&#x1d1;" horiz-adv-x="660" 
d="M302 -12c-149 0 -245 102 -245 276c0 230 155 400 331 400c149 0 245 -103 245 -276c0 -230 -154 -400 -331 -400zM382 545c-93 0 -185 -121 -185 -272c0 -104 40 -167 112 -167c93 0 184 122 184 273c0 104 -39 166 -111 166zM596 820l-115 -118h-133l-69 118h100
l42 -63h2l64 63h109z" />
    <glyph glyph-name="uni01D2" unicode="&#x1d2;" horiz-adv-x="533" 
d="M222 -12c-116 0 -192 81 -192 204c0 192 141 316 278 316c115 0 192 -81 192 -204c0 -192 -141 -316 -278 -316zM292 398c-66 0 -124 -87 -124 -203c0 -60 23 -97 69 -97c67 0 125 87 125 203c0 61 -24 97 -70 97zM509 722l-122 -149h-107l-63 149h88l37 -80h4l68 80h95z
" />
    <glyph glyph-name="uni01D3" unicode="&#x1d3;" horiz-adv-x="643" 
d="M88 320l67 332h137l-71 -357c-5 -27 -8 -52 -8 -76c0 -73 26 -113 99 -113c62 0 103 47 127 168l76 378h134l-76 -376c-40 -200 -126 -288 -265 -288c-154 0 -233 73 -233 227c0 29 7 71 13 105zM589 820l-116 -118h-132l-69 118h100l42 -63h2l64 63h109z" />
    <glyph glyph-name="uni01D4" unicode="&#x1d4;" horiz-adv-x="545" 
d="M529 496l-98 -496h-111l2 67h-4c-45 -42 -102 -79 -162 -79c-82 0 -117 45 -117 128c0 22 3 45 8 70l62 310h136l-58 -293c-5 -20 -8 -34 -8 -47c0 -34 18 -51 50 -51c29 0 60 20 99 64l64 327h137zM506 722l-122 -149h-107l-63 149h88l36 -80h4l68 80h96z" />
    <glyph glyph-name="uni01D5" unicode="&#x1d5;" horiz-adv-x="643" 
d="M88 320l67 332h137l-71 -357c-5 -27 -8 -52 -8 -76c0 -73 26 -113 99 -113c62 0 103 47 127 168l76 378h134l-76 -376c-40 -200 -126 -288 -265 -288c-154 0 -233 73 -233 227c0 29 7 71 13 105zM325 701c-29 0 -51 20 -51 51c0 33 27 68 66 68c29 0 50 -20 50 -51
c0 -33 -27 -68 -65 -68zM510 701c-28 0 -50 20 -50 51c0 33 27 68 65 68c29 0 51 -20 51 -51c0 -33 -27 -68 -66 -68zM311 868l13 66h269l-14 -66h-268z" />
    <glyph glyph-name="uni01D6" unicode="&#x1d6;" horiz-adv-x="545" 
d="M529 496l-98 -496h-111l2 67h-4c-45 -42 -102 -79 -162 -79c-82 0 -117 45 -117 128c0 22 3 45 8 70l62 310h136l-58 -293c-5 -20 -8 -34 -8 -47c0 -34 18 -51 50 -51c29 0 60 20 99 64l64 327h137zM235 754l14 65h263l-14 -65h-263zM238 572c-30 0 -50 22 -50 49
c0 39 30 70 67 70c31 0 51 -20 51 -48c0 -38 -29 -71 -68 -71zM426 572c-29 0 -49 22 -49 49c0 39 29 70 67 70c29 0 49 -20 49 -48c0 -38 -29 -71 -67 -71z" />
    <glyph glyph-name="uni01D7" unicode="&#x1d7;" horiz-adv-x="643" 
d="M88 320l67 332h137l-71 -357c-5 -27 -8 -52 -8 -76c0 -73 26 -113 99 -113c62 0 103 47 127 168l76 378h134l-76 -376c-40 -200 -126 -288 -265 -288c-154 0 -233 73 -233 227c0 29 7 71 13 105zM371 851l102 118h145l-138 -118h-109zM324 701c-29 0 -51 20 -51 51
c0 33 28 68 66 68c29 0 51 -20 51 -51c0 -33 -28 -68 -66 -68zM510 701c-29 0 -51 20 -51 51c0 33 27 68 66 68c29 0 50 -20 50 -51c0 -33 -27 -68 -65 -68z" />
    <glyph glyph-name="uni01D8" unicode="&#x1d8;" horiz-adv-x="545" 
d="M529 496l-98 -496h-111l2 67h-4c-45 -42 -102 -79 -162 -79c-82 0 -117 45 -117 128c0 22 3 45 8 70l62 310h136l-58 -293c-5 -20 -8 -34 -8 -47c0 -34 18 -51 50 -51c29 0 60 20 99 64l64 327h137zM294 734l104 109h122l-132 -109h-94zM238 572c-30 0 -50 22 -50 49
c0 39 30 70 67 70c31 0 51 -20 51 -48c0 -38 -29 -71 -68 -71zM426 572c-29 0 -49 22 -49 49c0 39 29 70 67 70c29 0 49 -20 49 -48c0 -38 -29 -71 -67 -71z" />
    <glyph glyph-name="uni01D9" unicode="&#x1d9;" horiz-adv-x="643" 
d="M88 320l67 332h137l-71 -357c-5 -27 -8 -52 -8 -76c0 -73 26 -113 99 -113c62 0 103 47 127 168l76 378h134l-76 -376c-40 -200 -126 -288 -265 -288c-154 0 -233 73 -233 227c0 29 7 71 13 105zM324 701c-29 0 -51 20 -51 51c0 33 28 68 66 68c29 0 51 -20 51 -51
c0 -33 -28 -68 -66 -68zM510 701c-29 0 -51 20 -51 51c0 33 27 68 66 68c29 0 50 -20 50 -51c0 -33 -27 -68 -65 -68zM374 851l-68 118h105l39 -63h3l65 63h104l-115 -118h-133z" />
    <glyph glyph-name="uni01DA" unicode="&#x1da;" horiz-adv-x="545" 
d="M529 496l-98 -496h-111l2 67h-4c-45 -42 -102 -79 -162 -79c-82 0 -117 45 -117 128c0 22 3 45 8 70l62 310h136l-58 -293c-5 -20 -8 -34 -8 -47c0 -34 18 -51 50 -51c29 0 60 20 99 64l64 327h137zM300 734l-58 109h88l38 -58h4l59 58h91l-100 -109h-122zM238 572
c-30 0 -50 22 -50 49c0 39 30 70 67 70c31 0 51 -20 51 -48c0 -38 -29 -71 -68 -71zM426 572c-29 0 -49 22 -49 49c0 39 29 70 67 70c29 0 49 -20 49 -48c0 -38 -29 -71 -67 -71z" />
    <glyph glyph-name="uni01DB" unicode="&#x1db;" horiz-adv-x="643" 
d="M88 320l67 332h137l-71 -357c-5 -27 -8 -52 -8 -76c0 -73 26 -113 99 -113c62 0 103 47 127 168l76 378h134l-76 -376c-40 -200 -126 -288 -265 -288c-154 0 -233 73 -233 227c0 29 7 71 13 105zM402 851l-90 118h144l57 -118h-111zM324 701c-29 0 -51 20 -51 51
c0 33 28 68 66 68c29 0 51 -20 51 -51c0 -33 -28 -68 -66 -68zM510 701c-29 0 -51 20 -51 51c0 33 27 68 66 68c29 0 50 -20 50 -51c0 -33 -27 -68 -65 -68z" />
    <glyph glyph-name="uni01DC" unicode="&#x1dc;" horiz-adv-x="545" 
d="M529 496l-98 -496h-111l2 67h-4c-45 -42 -102 -79 -162 -79c-82 0 -117 45 -117 128c0 22 3 45 8 70l62 310h136l-58 -293c-5 -20 -8 -34 -8 -47c0 -34 18 -51 50 -51c29 0 60 20 99 64l64 327h137zM338 734l-89 109h116l62 -109h-89zM238 572c-30 0 -50 22 -50 49
c0 39 30 70 67 70c31 0 51 -20 51 -48c0 -38 -29 -71 -68 -71zM426 572c-29 0 -49 22 -49 49c0 39 29 70 67 70c29 0 49 -20 49 -48c0 -38 -29 -71 -67 -71z" />
    <glyph glyph-name="Gcaron" unicode="&#x1e6;" horiz-adv-x="611" 
d="M56 261c0 225 152 403 357 403c84 0 145 -39 182 -104l-93 -72c-25 38 -54 57 -96 57c-121 0 -209 -130 -209 -275c0 -100 39 -165 141 -165c27 0 53 9 71 22l28 128h-107l21 112h227l-60 -311c-50 -39 -122 -68 -204 -68c-161 0 -258 101 -258 273zM604 820l-115 -118
h-133l-69 118h100l42 -63h2l64 63h109z" />
    <glyph glyph-name="gcaron" unicode="&#x1e7;" horiz-adv-x="546" 
d="M420 496h111l-97 -488c-30 -147 -124 -221 -263 -221c-59 0 -127 24 -183 70l59 91c38 -29 81 -52 128 -52c65 0 107 37 127 104l24 84h-2c-45 -43 -93 -68 -148 -68c-84 0 -145 56 -145 173c0 178 123 319 259 319c45 0 87 -25 106 -65h3zM229 127c33 0 73 16 105 65
l31 157c-17 33 -42 47 -65 47c-68 0 -127 -82 -127 -189c0 -54 22 -80 56 -80zM500 722l-122 -149h-107l-63 149h88l36 -80h4l68 80h96z" />
    <glyph glyph-name="uni01EA" unicode="&#x1ea;" horiz-adv-x="660" 
d="M382 545c-93 0 -185 -121 -185 -272c0 -104 40 -167 112 -167c93 0 184 122 184 273c0 104 -39 166 -111 166zM633 388c0 -182 -89 -322 -256 -392c-67 -28 -94 -66 -94 -97c0 -21 16 -32 35 -32c8 0 16 2 27 9l26 -67c-28 -18 -71 -31 -103 -31c-55 0 -93 28 -93 77
c0 60 52 111 86 136c-127 19 -204 116 -204 273c0 230 155 400 331 400c149 0 245 -103 245 -276z" />
    <glyph glyph-name="uni01EB" unicode="&#x1eb;" horiz-adv-x="533" 
d="M100 -137c0 64 61 117 82 130c-91 17 -152 87 -152 199c0 192 141 316 278 316c109 0 192 -74 192 -204c0 -170 -94 -260 -209 -307c-65 -27 -92 -67 -92 -95c0 -19 16 -30 35 -30c11 0 21 4 32 10l23 -56c-28 -20 -71 -36 -103 -36c-50 0 -86 25 -86 73zM292 398
c-66 0 -124 -87 -124 -203c0 -60 23 -97 69 -97c67 0 125 87 125 203c0 61 -24 97 -70 97z" />
    <glyph glyph-name="uni0218" unicode="&#x218;" horiz-adv-x="529" 
d="M5 110l98 77c35 -50 89 -82 145 -82s94 28 94 75c0 35 -30 52 -76 81l-62 38c-59 37 -97 83 -97 163c0 111 101 202 229 202c77 0 148 -39 198 -99l-87 -81c-33 35 -69 61 -117 61c-53 0 -83 -32 -83 -70c0 -33 31 -49 82 -81l64 -39c63 -38 91 -80 91 -155
c0 -119 -97 -212 -246 -212c-85 0 -169 35 -233 122zM168 -95l35 49c62 -10 98 -33 98 -76c0 -81 -84 -101 -182 -106l-4 55c61 5 89 17 89 45c0 16 -14 26 -36 33z" />
    <glyph glyph-name="uni0219" unicode="&#x219;" horiz-adv-x="424" 
d="M-8 84l79 66c35 -42 71 -62 107 -62c38 0 70 20 70 47c0 29 -30 42 -86 74c-56 31 -100 75 -100 137c0 94 86 162 192 162c68 0 122 -33 163 -76l-75 -71c-24 25 -53 45 -88 45c-38 0 -64 -21 -64 -47c0 -31 42 -46 82 -69c59 -32 104 -71 104 -139
c0 -97 -86 -163 -206 -163c-61 0 -137 34 -178 96zM108 -87l35 49c61 -10 97 -33 97 -76c0 -81 -83 -101 -182 -106l-4 55c61 5 89 17 89 45c0 16 -13 26 -35 33z" />
    <glyph glyph-name="uni021A" unicode="&#x21a;" horiz-adv-x="532" 
d="M149 0l106 536h-171l22 116h480l-23 -116h-171l-106 -536h-137zM144 -87l35 49c61 -10 97 -33 97 -76c0 -81 -84 -101 -182 -106l-4 55c61 5 89 17 89 45c0 16 -14 26 -35 33z" />
    <glyph glyph-name="uni021B" unicode="&#x21b;" horiz-adv-x="367" 
d="M70 182l43 207h-66l20 101l73 6l42 130h115l-25 -130h113l-21 -107h-116l-43 -213c-2 -12 -2 -22 -2 -33c0 -32 16 -48 51 -48c15 0 28 5 41 11l24 -96c-26 -10 -65 -22 -116 -22c-100 0 -141 55 -141 131c0 21 4 42 8 63zM104 -87l35 49c61 -10 97 -33 97 -76
c0 -81 -83 -101 -182 -106l-4 55c61 5 89 17 89 45c0 16 -13 26 -35 33z" />
    <glyph glyph-name="uni0237" unicode="&#x237;" horiz-adv-x="267" 
d="M252 496l-103 -512c-21 -100 -72 -180 -184 -180c-35 0 -64 6 -96 22l41 99c14 -8 27 -13 44 -13c33 0 47 24 60 78l101 506h137z" />
    <glyph glyph-name="uni0243" unicode="&#x243;" horiz-adv-x="634" 
d="M262 399h64c88 0 129 34 129 89c0 43 -34 65 -104 65h-58zM202 97h86c89 0 145 46 145 128c0 54 -35 87 -102 87h-86l-14 -68h126l-14 -67h-125zM454 357l-2 -4c72 -19 113 -62 113 -131c0 -158 -129 -222 -282 -222h-237l36 177h-70l13 62l70 5l82 408h199
c130 0 219 -44 219 -141c0 -72 -56 -131 -141 -154z" />
    <glyph glyph-name="uni0251" unicode="&#x251;" horiz-adv-x="552" 
d="M31 170c0 189 128 338 265 338c45 0 89 -25 108 -65h2l22 53h109l-99 -496h-111l2 65h-3c-45 -47 -103 -77 -155 -77c-87 0 -140 65 -140 182zM231 100c33 0 74 17 106 73l35 176c-16 33 -43 47 -66 47c-69 0 -133 -90 -133 -209c0 -60 22 -87 58 -87z" />
    <glyph glyph-name="uni0259" unicode="&#x259;" horiz-adv-x="492" 
d="M460 296c0 -184 -145 -308 -276 -308c-119 0 -162 83 -162 186c0 41 13 87 26 112h282c2 83 -37 119 -91 119c-29 0 -66 -14 -97 -30l-40 88c54 28 108 45 170 45c111 0 188 -72 188 -212zM319 202h-180c-3 -12 -5 -23 -5 -36c0 -40 16 -73 67 -73c47 0 95 34 118 109z
" />
    <glyph glyph-name="uni0261" unicode="&#x261;" horiz-adv-x="546" 
d="M420 496h111l-97 -488c-30 -147 -124 -221 -263 -221c-59 0 -127 24 -183 70l59 91c38 -29 81 -52 128 -52c65 0 107 37 127 104l24 84h-2c-45 -43 -93 -68 -148 -68c-84 0 -145 56 -145 173c0 178 123 319 259 319c45 0 87 -25 106 -65h3zM229 127c33 0 73 16 105 65
l31 157c-17 33 -42 47 -65 47c-68 0 -127 -82 -127 -189c0 -54 22 -80 56 -80z" />
    <glyph glyph-name="h.sups" unicode="&#x2b0;" horiz-adv-x="369" 
d="M43 262l92 462h97l-20 -102l-19 -69h4c28 24 63 46 103 46c55 0 80 -32 80 -87c0 -15 -3 -32 -6 -45l-41 -205h-97l38 192c4 14 6 23 6 30c0 22 -12 33 -31 33c-21 0 -41 -13 -67 -42l-42 -213h-97z" />
    <glyph glyph-name="j.sups" unicode="&#x2b2;" horiz-adv-x="180" 
d="M205 591l-69 -348c-13 -67 -49 -117 -125 -117c-22 0 -43 4 -66 15l29 67c10 -4 19 -7 29 -7c23 0 31 14 38 50l67 340h97zM173 637c-27 0 -52 15 -52 46c0 29 27 54 59 54c27 0 52 -15 52 -45c0 -29 -27 -55 -59 -55z" />
    <glyph glyph-name="r.sups" unicode="&#x2b3;" horiz-adv-x="253" 
d="M43 262l64 329h78l-2 -53h3c26 35 59 60 96 60c17 0 27 -2 34 -6l-31 -83c-9 5 -17 5 -27 5c-31 0 -55 -15 -80 -52l-39 -200h-96z" />
    <glyph glyph-name="w.sups" unicode="&#x2b7;" horiz-adv-x="504" 
d="M98 262l-17 329h94l1 -155l-4 -98h3l35 98l68 155h80l11 -155l-2 -98h3l33 98l61 155h89l-140 -329h-113l-4 132l1 91h-3l-32 -91l-55 -132h-109z" />
    <glyph glyph-name="y.sups" unicode="&#x2b8;" horiz-adv-x="337" 
d="M62 201c30 0 50 17 62 39l7 15l-56 336h93l16 -159l4 -99h2l42 99l72 159h92l-178 -348c-40 -70 -82 -117 -154 -117c-21 0 -38 3 -59 14l29 68c9 -4 18 -7 28 -7z" />
    <glyph glyph-name="uni02B9" unicode="&#x2b9;" horiz-adv-x="291" 
d="M95 355l88 331h135l-48 -138l-86 -193h-89z" />
    <glyph glyph-name="uni02BB" unicode="&#x2bb;" horiz-adv-x="291" 
d="M269 677l22 -59c-73 -28 -113 -86 -114 -118h5c41 0 72 -23 72 -63c0 -43 -32 -82 -83 -82c-45 0 -74 35 -74 96c0 120 79 197 172 226z" />
    <glyph glyph-name="uni02BC" unicode="&#x2bc;" horiz-adv-x="291" 
d="M129 374l-22 60c74 28 114 85 115 118h-6c-41 0 -71 23 -71 63c0 43 32 82 83 82c45 0 74 -36 74 -97c0 -119 -80 -197 -173 -226z" />
    <glyph glyph-name="uni02BE" unicode="&#x2be;" horiz-adv-x="152" 
d="M94 546l10 53c46 2 67 27 67 56c0 23 -14 41 -48 41l11 51c73 3 104 -33 104 -85c0 -66 -50 -116 -144 -116z" />
    <glyph glyph-name="uni02BF" unicode="&#x2bf;" horiz-adv-x="156" 
d="M221 750l-11 -52c-45 -2 -66 -28 -66 -56c0 -23 14 -41 47 -41l-11 -51c-73 -4 -104 33 -104 84c0 66 51 116 145 116z" />
    <glyph glyph-name="circumflex" unicode="&#x2c6;" horiz-adv-x="534" 
d="M186 573l122 149h107l63 -149h-88l-37 81h-4l-68 -81h-95z" />
    <glyph glyph-name="caron" unicode="&#x2c7;" horiz-adv-x="534" 
d="M509 722l-122 -149h-107l-63 149h88l37 -80h4l68 80h95z" />
    <glyph glyph-name="uni02C8" unicode="&#x2c8;" horiz-adv-x="138" 
d="M80 534l30 201h110l-48 -201h-92z" />
    <glyph glyph-name="uni02C9" unicode="&#x2c9;" horiz-adv-x="292" 
d="M79 593l18 87h263l-18 -87h-263z" />
    <glyph glyph-name="uni02CA" unicode="&#x2ca;" horiz-adv-x="224" 
d="M89 573l116 149h137l-149 -149h-104z" />
    <glyph glyph-name="uni02CB" unicode="&#x2cb;" horiz-adv-x="224" 
d="M150 573l-88 149h127l56 -149h-95z" />
    <glyph glyph-name="uni02CC" unicode="&#x2cc;" horiz-adv-x="138" 
d="M55 -64l-30 -201h-111l48 201h93z" />
    <glyph glyph-name="breve" unicode="&#x2d8;" horiz-adv-x="534" 
d="M331 574c-86 0 -118 66 -104 137h73c-4 -35 8 -63 45 -63s60 28 71 63h77c-18 -71 -73 -137 -162 -137z" />
    <glyph glyph-name="dotaccent" unicode="&#x2d9;" horiz-adv-x="534" 
d="M339 570c-37 0 -74 22 -74 66s38 81 85 81c38 0 74 -23 74 -66c0 -47 -37 -81 -85 -81z" />
    <glyph glyph-name="ring" unicode="&#x2da;" horiz-adv-x="534" 
d="M341 546c-58 0 -99 32 -99 89c0 63 48 112 112 112c58 0 100 -33 100 -89c0 -64 -49 -112 -113 -112zM352 694c-24 0 -44 -26 -44 -56c0 -22 12 -39 35 -39c24 0 44 25 44 55c0 21 -12 40 -35 40z" />
    <glyph glyph-name="ogonek" unicode="&#x2db;" horiz-adv-x="534" 
d="M100 -137c0 64 61 117 95 139h76c-50 -36 -72 -69 -72 -100c0 -19 16 -30 35 -30c11 0 21 4 32 10l23 -56c-28 -20 -71 -36 -103 -36c-50 0 -86 25 -86 73z" />
    <glyph glyph-name="tilde" unicode="&#x2dc;" horiz-adv-x="534" 
d="M250 577h-71c24 85 71 128 118 128c60 0 74 -45 114 -45c15 0 27 13 40 43h72c-24 -84 -71 -128 -118 -128c-60 0 -74 45 -115 45c-14 0 -27 -13 -40 -43z" />
    <glyph glyph-name="hungarumlaut" unicode="&#x2dd;" horiz-adv-x="534" 
d="M208 573l101 149h110l-122 -149h-89zM372 573l100 149h111l-123 -149h-88z" />
    <glyph glyph-name="l.sups" unicode="&#x2e1;" horiz-adv-x="180" 
d="M64 364l71 360h97l-73 -367c-2 -4 -2 -9 -2 -12c0 -13 6 -15 13 -15c4 0 6 0 11 2l-1 -71c-12 -4 -30 -7 -51 -7c-50 0 -70 26 -70 67c0 13 1 26 5 43z" />
    <glyph glyph-name="s.sups" unicode="&#x2e2;" horiz-adv-x="285" 
d="M23 310l54 52c25 -24 50 -40 78 -40s42 13 42 32c0 15 -19 21 -57 45c-35 21 -65 48 -65 91c0 62 55 109 127 109c48 0 87 -23 117 -47l-45 -57c-20 18 -44 35 -72 35c-24 0 -37 -14 -37 -31c0 -19 27 -30 53 -45c37 -19 68 -45 68 -92c0 -65 -54 -108 -138 -108
c-45 0 -95 22 -125 56z" />
    <glyph glyph-name="x.sups" unicode="&#x2e3;" horiz-adv-x="332" 
d="M2 262l145 175l-58 154h98l19 -54l16 -53h3l30 48l35 59h107l-135 -175l62 -154h-98l-20 55l-19 53h-3l-33 -50l-43 -58h-106z" />
    <glyph glyph-name="uni0300" unicode="&#x300;" horiz-adv-x="0" 
d="M92 573l-89 149h127l56 -149h-94z" />
    <glyph glyph-name="uni0301" unicode="&#x301;" horiz-adv-x="0" 
d="M30 573l116 149h137l-149 -149h-104z" />
    <glyph glyph-name="uni0302" unicode="&#x302;" horiz-adv-x="0" 
d="M-33 573l122 149h107l63 -149h-88l-37 81h-4l-68 -81h-95z" />
    <glyph glyph-name="uni0303" unicode="&#x303;" horiz-adv-x="0" 
d="M32 577h-72c24 85 71 128 118 128c60 0 74 -45 114 -45c15 0 27 13 40 43h72c-24 -84 -71 -128 -118 -128c-60 0 -74 45 -115 45c-14 0 -27 -13 -39 -43z" />
    <glyph glyph-name="uni0304" unicode="&#x304;" horiz-adv-x="0" 
d="M-16 593l18 87h263l-18 -87h-263z" />
    <glyph glyph-name="uni0306" unicode="&#x306;" horiz-adv-x="0" 
d="M112 574c-86 0 -118 66 -104 137h73c-4 -35 8 -63 45 -63s60 28 71 63h77c-18 -71 -72 -137 -162 -137z" />
    <glyph glyph-name="uni0307" unicode="&#x307;" horiz-adv-x="0" 
d="M120 570c-37 0 -74 22 -74 66s38 81 85 81c38 0 74 -23 74 -66c0 -47 -37 -81 -85 -81z" />
    <glyph glyph-name="uni0308" unicode="&#x308;" horiz-adv-x="0" 
d="M22 572c-33 0 -59 21 -59 59c0 40 33 75 75 75c33 0 59 -23 59 -60c0 -41 -33 -74 -75 -74zM212 572c-33 0 -58 21 -58 59c0 40 32 75 74 75c34 0 59 -23 59 -60c0 -41 -32 -74 -75 -74z" />
    <glyph glyph-name="uni0309" unicode="&#x309;" horiz-adv-x="0" 
d="M69 679l27 68c108 -2 146 -33 146 -77c0 -73 -67 -105 -150 -115l-4 56c31 7 52 15 52 37c0 18 -19 27 -71 31z" />
    <glyph glyph-name="uni030A" unicode="&#x30a;" horiz-adv-x="0" 
d="M122 546c-58 0 -99 32 -99 89c0 63 48 112 112 112c58 0 100 -33 100 -89c0 -64 -49 -112 -113 -112zM133 694c-24 0 -44 -26 -44 -56c0 -22 12 -39 35 -39c24 0 44 25 44 55c0 21 -12 40 -35 40z" />
    <glyph glyph-name="uni030B" unicode="&#x30b;" horiz-adv-x="0" 
d="M-11 573l101 149h110l-122 -149h-89zM153 573l100 149h111l-123 -149h-88z" />
    <glyph glyph-name="uni030C" unicode="&#x30c;" horiz-adv-x="0" 
d="M290 722l-122 -149h-107l-63 149h88l37 -80h4l68 80h95z" />
    <glyph glyph-name="uni030F" unicode="&#x30f;" horiz-adv-x="0" 
d="M25 722l38 -149h-84l-64 149h110zM186 722l38 -149h-83l-64 149h109z" />
    <glyph glyph-name="uni0312" unicode="&#x312;" horiz-adv-x="0" 
d="M179 750l11 -45c-39 -14 -61 -29 -71 -55h5c22 0 44 -19 44 -45c0 -38 -27 -61 -59 -61c-34 0 -54 24 -54 60c0 64 37 120 124 146z" />
    <glyph glyph-name="uni0313" unicode="&#x313;" horiz-adv-x="0" 
d="M77 544l-12 45c39 14 62 28 71 55h-4c-23 0 -45 19 -45 45c0 37 28 61 60 61c33 0 54 -24 54 -60c0 -65 -38 -120 -124 -146z" />
    <glyph glyph-name="uni031B" unicode="&#x31b;" horiz-adv-x="0" 
d="M153 594l102 32c9 -21 13 -41 13 -61c0 -70 -55 -128 -188 -137v58c50 5 81 36 81 71c0 12 -3 24 -8 37z" />
    <glyph glyph-name="uni0323" unicode="&#x323;" horiz-adv-x="0" 
d="M-41 -230c-37 0 -74 22 -74 66s38 81 85 81c38 0 74 -23 74 -66c0 -47 -37 -81 -85 -81z" />
    <glyph glyph-name="uni0324" unicode="&#x324;" horiz-adv-x="0" 
d="M-136 -214c-32 0 -57 22 -57 57c0 36 30 76 73 76c31 0 58 -22 58 -58s-31 -75 -74 -75zM55 -214c-32 0 -57 22 -57 57c0 36 30 76 73 76c31 0 57 -22 57 -58s-30 -75 -73 -75z" />
    <glyph glyph-name="uni0326" unicode="&#x326;" horiz-adv-x="0" 
d="M-79 -95l35 49c61 -10 97 -33 97 -76c0 -81 -83 -101 -181 -106l-4 55c61 5 88 17 88 45c0 16 -13 26 -35 33z" />
    <glyph glyph-name="uni0327" unicode="&#x327;" horiz-adv-x="0" 
d="M-92 -76l54 80h80l-30 -49c25 -10 44 -27 44 -59c0 -78 -89 -110 -188 -116l-4 55c50 5 90 21 90 50c0 16 -10 29 -46 39z" />
    <glyph glyph-name="uni0328" unicode="&#x328;" horiz-adv-x="0" 
d="M-119 -137c0 64 61 117 95 139h76c-50 -36 -72 -69 -72 -100c0 -19 16 -30 35 -30c11 0 21 4 32 10l23 -56c-28 -20 -71 -36 -103 -36c-50 0 -86 25 -86 73z" />
    <glyph glyph-name="uni032E" unicode="&#x32e;" horiz-adv-x="0" 
d="M-48 -216c-86 0 -118 66 -104 137h73c-4 -35 8 -63 45 -63s60 28 71 63h77c-18 -71 -72 -137 -162 -137z" />
    <glyph glyph-name="uni0331" unicode="&#x331;" horiz-adv-x="0" 
d="M-174 -185l17 87h263l-17 -87h-263z" />
    <glyph glyph-name="pi" unicode="&#x3c0;" horiz-adv-x="582" 
d="M52 0l77 386h-82l20 103l72 5h465l-23 -108h-65l-49 -245c-6 -30 -4 -46 14 -46c8 0 16 2 23 4l4 -98c-18 -8 -41 -13 -70 -13c-97 0 -124 65 -108 143l50 255h-116l-77 -386h-135z" />
    <glyph glyph-name="a.sups" unicode="&#x1d43;" horiz-adv-x="365" 
d="M54 375c0 125 86 224 178 224c28 0 54 -17 67 -43h4l15 35h78l-66 -329h-78l2 42h-4c-29 -31 -67 -50 -102 -50c-58 0 -94 43 -94 121zM188 332c22 0 48 12 70 48l20 111c-9 21 -25 30 -40 30c-43 0 -85 -58 -85 -134c0 -38 15 -55 35 -55z" />
    <glyph glyph-name="b.sups" unicode="&#x1d47;" horiz-adv-x="370" 
d="M121 262h-78l92 462h97l-20 -102l-20 -64h4c26 23 60 41 94 41c58 0 94 -43 94 -121c0 -125 -86 -224 -177 -224c-29 0 -54 16 -67 43h-4zM250 521c-21 0 -47 -11 -69 -45l-21 -114c10 -21 26 -30 40 -30c43 0 86 58 86 134c0 38 -15 55 -36 55z" />
    <glyph glyph-name="d.sups" unicode="&#x1d48;" horiz-adv-x="380" 
d="M301 559l5 65l19 99h97l-92 -461h-78l2 42h-4c-29 -31 -68 -50 -102 -50c-58 0 -94 43 -94 121c0 125 86 224 178 224c28 0 54 -17 65 -40h4zM188 332c22 0 48 12 70 48l20 111c-10 21 -26 30 -40 30c-43 0 -85 -58 -85 -134c0 -38 15 -55 35 -55z" />
    <glyph glyph-name="e.sups" unicode="&#x1d49;" horiz-adv-x="332" 
d="M52 396c0 120 98 203 186 203c82 0 109 -58 109 -125c0 -31 -11 -65 -17 -76h-187c-1 -49 30 -72 75 -72c20 0 37 7 58 20l29 -61c-36 -20 -77 -31 -114 -31c-83 0 -139 53 -139 142zM150 457h116c2 7 3 14 3 22c0 25 -11 47 -43 47c-29 0 -61 -24 -76 -69z" />
    <glyph glyph-name="g.sups" unicode="&#x1d4d;" horiz-adv-x="365" 
d="M318 591h78l-66 -330c-20 -99 -83 -147 -174 -147c-39 0 -88 13 -130 45l39 64c28 -18 61 -34 94 -34c37 0 65 25 79 67l15 48h-4c-30 -23 -63 -37 -99 -37c-59 0 -94 41 -94 115c0 119 83 217 176 217c28 0 54 -17 67 -43h4zM190 344c22 0 47 9 67 35l21 112
c-10 21 -26 30 -40 30c-44 0 -83 -56 -83 -127c0 -35 14 -50 35 -50z" />
    <glyph glyph-name="k.sups" unicode="&#x1d4f;" horiz-adv-x="355" 
d="M43 262l92 462h97l-53 -263h4l119 130h106l-136 -145l80 -184h-96l-50 129l-50 -48l-16 -81h-97z" />
    <glyph glyph-name="m.sups" unicode="&#x1d50;" horiz-adv-x="553" 
d="M44 262l64 329h78l-1 -45h4c31 29 66 53 109 53c45 0 65 -23 74 -58c34 30 71 58 113 58c55 0 77 -31 77 -88c0 -13 -2 -31 -5 -46l-41 -203h-95l37 192c3 11 4 21 4 32c0 20 -7 31 -27 31c-16 0 -40 -13 -65 -42l-42 -213h-95l38 192c2 11 5 20 5 30c0 21 -9 33 -31 33
c-14 0 -39 -14 -63 -42l-42 -213h-96z" />
    <glyph glyph-name="o.sups" unicode="&#x1d52;" horiz-adv-x="358" 
d="M184 254c-75 0 -132 50 -132 136c0 127 93 209 187 209c75 0 131 -50 131 -136c0 -127 -93 -209 -186 -209zM231 522c-48 0 -82 -57 -82 -130c0 -38 14 -62 43 -62c48 0 82 58 82 131c0 38 -14 61 -43 61z" />
    <glyph glyph-name="p.sups" unicode="&#x1d56;" horiz-adv-x="369" 
d="M136 297l-3 -69l-20 -100h-96l91 463h78l3 -37h4c31 28 63 45 97 45c58 0 94 -43 94 -121c0 -125 -86 -224 -177 -224c-28 0 -54 16 -67 43h-4zM250 521c-21 0 -47 -11 -69 -45l-21 -114c10 -21 23 -31 38 -31c43 0 88 59 88 135c0 38 -15 55 -36 55z" />
    <glyph glyph-name="t.sups" unicode="&#x1d57;" horiz-adv-x="249" 
d="M80 385l27 131h-44l14 71l50 4l27 85h80l-17 -85h77l-14 -75h-78l-27 -134c-1 -8 -2 -15 -2 -21c0 -22 11 -32 30 -32c12 0 19 3 28 6l15 -69c-19 -6 -48 -12 -75 -12c-69 0 -96 38 -96 89c0 14 2 28 5 42z" />
    <glyph glyph-name="u.sups" unicode="&#x1d58;" horiz-adv-x="366" 
d="M392 591l-66 -329h-78l1 44h-4c-31 -28 -66 -52 -109 -52c-55 0 -80 31 -80 87c0 15 4 30 6 45l41 205h97l-38 -193c-3 -13 -5 -22 -5 -30c0 -22 11 -33 30 -33c21 0 39 14 66 42l42 214h97z" />
    <glyph glyph-name="v.sups" unicode="&#x1d5b;" horiz-adv-x="338" 
d="M116 262l-43 329h96l10 -159l4 -100h3l44 100l71 159h94l-168 -329h-111z" />
    <glyph glyph-name="c.sups" unicode="&#x1d9c;" horiz-adv-x="296" 
d="M52 385c0 113 83 214 196 214c40 0 71 -19 92 -40l-55 -58c-13 15 -24 21 -41 21c-54 0 -94 -62 -94 -126c0 -45 26 -66 55 -66c23 0 37 10 52 19l31 -61c-21 -17 -59 -34 -104 -34c-73 0 -132 49 -132 131z" />
    <glyph glyph-name="f.sups" unicode="&#x1da0;" horiz-adv-x="222" 
d="M333 720l-31 -67c-7 5 -20 10 -31 10c-25 0 -39 -15 -46 -51l-4 -21h58l-15 -75h-58l-52 -254h-96l51 254h-42l12 70l45 4l5 24c14 68 52 124 131 124c26 0 50 -6 73 -18z" />
    <glyph glyph-name="z.sups" unicode="&#x1dbb;" horiz-adv-x="299" 
d="M26 262l10 53l171 201h-116l14 75h238l-11 -55l-170 -199h134l-14 -75h-256z" />
    <glyph glyph-name="uni1E06" unicode="&#x1e06;" horiz-adv-x="604" 
d="M28 0l131 652h199c130 0 219 -46 219 -149c0 -75 -56 -138 -141 -163l-2 -4c72 -17 113 -58 113 -122c0 -153 -129 -214 -282 -214h-237zM243 385h65c91 0 129 38 129 95c0 42 -33 67 -104 67h-58zM186 105h85c93 0 144 37 144 104c0 53 -35 83 -106 83h-85zM98 -177
l18 87h263l-17 -87h-264z" />
    <glyph glyph-name="uni1E07" unicode="&#x1e07;" horiz-adv-x="553" 
d="M127 0h-113l141 701h137l-33 -159l-25 -93h2c44 36 95 59 144 59c88 0 140 -65 140 -182c0 -189 -128 -338 -264 -338c-45 0 -86 25 -105 65h-2zM321 396c-31 0 -73 -16 -102 -62l-38 -187c15 -33 40 -47 65 -47c69 0 133 90 133 209c0 60 -23 87 -58 87zM73 -177l17 87
h263l-17 -87h-263z" />
    <glyph glyph-name="uni1E0C" unicode="&#x1e0c;" horiz-adv-x="616" 
d="M28 0l131 652h143c182 0 288 -84 288 -256c0 -257 -149 -396 -358 -396h-204zM188 110h41c125 0 221 87 221 277c0 108 -60 155 -151 155h-26zM252 -222c-38 0 -75 22 -75 66s38 81 86 81c37 0 74 -23 74 -66c0 -47 -38 -81 -85 -81z" />
    <glyph glyph-name="uni1E0D" unicode="&#x1e0d;" horiz-adv-x="546" 
d="M400 448l12 94l30 159h137l-141 -701h-111l2 65h-3c-45 -47 -103 -77 -155 -77c-87 0 -140 65 -140 182c0 189 128 338 265 338c45 0 82 -24 101 -60h3zM231 100c33 0 72 17 106 73l35 176c-16 33 -43 47 -66 47c-69 0 -133 -90 -133 -209c0 -60 22 -87 58 -87zM204 -222
c-38 0 -75 22 -75 66s38 81 86 81c37 0 74 -23 74 -66c0 -47 -38 -81 -85 -81z" />
    <glyph glyph-name="uni1E0E" unicode="&#x1e0e;" horiz-adv-x="616" 
d="M28 0l131 652h143c182 0 288 -84 288 -256c0 -257 -149 -396 -358 -396h-204zM188 110h41c125 0 221 87 221 277c0 108 -60 155 -151 155h-26zM119 -177l17 87h263l-17 -87h-263z" />
    <glyph glyph-name="uni1E0F" unicode="&#x1e0f;" horiz-adv-x="546" 
d="M400 448l12 94l30 159h137l-141 -701h-111l2 65h-3c-45 -47 -103 -77 -155 -77c-87 0 -140 65 -140 182c0 189 128 338 265 338c45 0 82 -24 101 -60h3zM231 100c33 0 72 17 106 73l35 176c-16 33 -43 47 -66 47c-69 0 -133 -90 -133 -209c0 -60 22 -87 58 -87zM71 -177
l17 87h263l-17 -87h-263z" />
    <glyph glyph-name="uni1E16" unicode="&#x1e16;" horiz-adv-x="527" 
d="M28 0l131 652h386l-22 -115h-251l-28 -142h213l-22 -115h-213l-34 -165h259l-22 -115h-397zM326 851l102 118h144l-137 -118h-109zM233 720l17 88h268l-18 -88h-267z" />
    <glyph glyph-name="uni1E17" unicode="&#x1e17;" horiz-adv-x="496" 
d="M29 200c0 184 144 308 276 308c118 0 162 -83 162 -186c0 -47 -18 -98 -26 -113h-282c-4 -83 46 -118 111 -118c31 0 67 18 92 35l48 -86c-40 -28 -101 -52 -178 -52c-120 0 -203 80 -203 212zM170 293h180c3 10 5 23 5 37c0 40 -17 73 -67 73c-47 0 -96 -37 -118 -110z
M286 734l105 109h122l-133 -109h-94zM194 593l18 87h263l-17 -87h-264z" />
    <glyph glyph-name="uni1E20" unicode="&#x1e20;" horiz-adv-x="611" 
d="M56 261c0 225 152 403 357 403c84 0 145 -39 182 -104l-93 -72c-25 38 -54 57 -96 57c-121 0 -209 -130 -209 -275c0 -100 39 -165 141 -165c27 0 53 9 71 22l28 128h-107l21 112h227l-60 -311c-50 -39 -122 -68 -204 -68c-161 0 -258 101 -258 273zM292 720l18 88h268
l-18 -88h-268z" />
    <glyph glyph-name="uni1E21" unicode="&#x1e21;" horiz-adv-x="546" 
d="M420 496h111l-97 -488c-30 -147 -124 -221 -263 -221c-59 0 -127 24 -183 70l59 91c38 -29 81 -52 128 -52c65 0 107 37 127 104l24 84h-2c-45 -43 -93 -68 -148 -68c-84 0 -145 56 -145 173c0 178 123 319 259 319c45 0 87 -25 106 -65h3zM229 127c33 0 73 16 105 65
l31 157c-17 33 -42 47 -65 47c-68 0 -127 -82 -127 -189c0 -54 22 -80 56 -80zM194 593l17 87h263l-17 -87h-263z" />
    <glyph glyph-name="uni1E24" unicode="&#x1e24;" horiz-adv-x="652" 
d="M28 0l131 652h137l-52 -253h223l50 253h137l-130 -652h-138l57 279h-223l-54 -279h-138zM251 -222c-38 0 -74 22 -74 66s37 81 85 81c38 0 74 -23 74 -66c0 -47 -38 -81 -85 -81z" />
    <glyph glyph-name="uni1E25" unicode="&#x1e25;" horiz-adv-x="546" 
d="M14 0l141 701h137l-38 -183l-22 -80h4c44 39 97 70 156 70c82 0 118 -45 118 -127c0 -23 -2 -46 -8 -71l-62 -310h-137l59 293c4 20 8 34 8 47c0 34 -18 51 -51 51c-31 0 -61 -20 -104 -64l-64 -327h-137zM200 -222c-38 0 -74 22 -74 66s38 81 85 81c38 0 74 -23 74 -66
c0 -47 -37 -81 -85 -81z" />
    <glyph glyph-name="uni1E2A" unicode="&#x1e2a;" horiz-adv-x="652" 
d="M28 0l131 652h137l-52 -253h223l50 253h137l-130 -652h-138l57 279h-223l-54 -279h-138zM244 -208c-86 0 -118 66 -104 137h73c-4 -35 8 -63 45 -63c36 0 60 28 71 63h77c-18 -71 -73 -137 -162 -137z" />
    <glyph glyph-name="uni1E2B" unicode="&#x1e2b;" horiz-adv-x="546" 
d="M14 0l141 701h137l-38 -183l-22 -80h4c44 39 97 70 156 70c82 0 118 -45 118 -127c0 -23 -2 -46 -8 -71l-62 -310h-137l59 293c4 20 8 34 8 47c0 34 -18 51 -51 51c-31 0 -61 -20 -104 -64l-64 -327h-137zM193 -208c-86 0 -118 66 -104 137h73c-4 -35 8 -63 45 -63
s60 28 71 63h77c-18 -71 -73 -137 -162 -137z" />
    <glyph glyph-name="uni1E34" unicode="&#x1e34;" horiz-adv-x="604" 
d="M28 0l131 652h137l-53 -268h3l245 268h150l-237 -268l146 -384h-143l-104 298l-99 -107l-38 -191h-138zM124 -177l17 87h263l-17 -87h-263z" />
    <glyph glyph-name="uni1E35" unicode="&#x1e35;" horiz-adv-x="525" 
d="M14 0l141 701h137l-82 -406h4l187 201h152l-203 -217l118 -279h-137l-75 200l-81 -81l-24 -119h-137zM71 -177l18 87h263l-18 -87h-263z" />
    <glyph glyph-name="uni1E36" unicode="&#x1e36;" horiz-adv-x="500" 
d="M28 0l131 652h137l-108 -537h247l-22 -115h-385zM201 -222c-37 0 -74 22 -74 66s38 81 85 81c38 0 75 -23 75 -66c0 -47 -38 -81 -86 -81z" />
    <glyph glyph-name="uni1E37" unicode="&#x1e37;" horiz-adv-x="275" 
d="M44 146l111 555h137l-113 -561c-2 -10 -2 -14 -2 -19c0 -17 9 -23 19 -23c6 0 9 0 18 2l-4 -101c-17 -6 -41 -11 -73 -11c-71 0 -100 37 -100 97c0 18 2 36 7 61zM50 -222c-38 0 -74 22 -74 66s37 81 85 81c37 0 74 -23 74 -66c0 -47 -38 -81 -85 -81z" />
    <glyph glyph-name="uni1E38" unicode="&#x1e38;" horiz-adv-x="500" 
d="M28 0l131 652h137l-108 -537h247l-22 -115h-385zM110 720l17 88h268l-18 -88h-267zM201 -222c-37 0 -74 22 -74 66s38 81 85 81c38 0 75 -23 75 -66c0 -47 -38 -81 -86 -81z" />
    <glyph glyph-name="uni1E39" unicode="&#x1e39;" horiz-adv-x="275" 
d="M44 146l111 555h137l-113 -561c-2 -10 -2 -14 -2 -19c0 -17 9 -23 19 -23c6 0 9 0 18 2l-4 -101c-17 -6 -41 -11 -73 -11c-71 0 -100 37 -100 97c0 18 2 36 7 61zM106 805l17 87h263l-17 -87h-263zM50 -222c-38 0 -74 22 -74 66s37 81 85 81c37 0 74 -23 74 -66
c0 -47 -38 -81 -85 -81z" />
    <glyph glyph-name="uni1E3A" unicode="&#x1e3a;" horiz-adv-x="500" 
d="M28 0l131 652h137l-108 -537h247l-22 -115h-385zM68 -177l17 87h263l-17 -87h-263z" />
    <glyph glyph-name="uni1E3B" unicode="&#x1e3b;" horiz-adv-x="275" 
d="M44 146l111 555h137l-113 -561c-2 -10 -2 -14 -2 -19c0 -17 9 -23 19 -23c6 0 9 0 18 2l-4 -101c-17 -6 -41 -11 -73 -11c-71 0 -100 37 -100 97c0 18 2 36 7 61zM-83 -177l17 87h263l-17 -87h-263z" />
    <glyph glyph-name="uni1E42" unicode="&#x1e42;" horiz-adv-x="740" 
d="M28 0l131 652h145l47 -301l17 -117h4l60 117l164 301h146l-131 -652h-128l54 259c13 65 39 155 59 218h-3l-81 -150l-153 -267h-55l-48 267l-20 150h-4c-6 -64 -13 -154 -26 -218l-52 -259h-126zM293 -230c-38 0 -74 22 -74 66s37 81 85 81c37 0 74 -23 74 -66
c0 -47 -38 -81 -85 -81z" />
    <glyph glyph-name="uni1E43" unicode="&#x1e43;" horiz-adv-x="827" 
d="M14 0l98 496h111l-2 -66h4c48 42 104 78 160 78c74 0 102 -35 115 -87c55 51 112 87 168 87c82 0 117 -45 117 -127c0 -23 -3 -46 -8 -71l-62 -310h-137l59 293c4 20 8 34 8 47c0 34 -18 51 -50 51c-22 0 -55 -20 -97 -64l-66 -327h-137l59 293c4 20 8 34 8 47
c0 34 -18 51 -48 51c-24 0 -57 -20 -99 -64l-64 -327h-137zM338 -222c-37 0 -74 22 -74 66s38 81 86 81c37 0 74 -23 74 -66c0 -47 -38 -81 -86 -81z" />
    <glyph glyph-name="uni1E44" unicode="&#x1e44;" horiz-adv-x="643" 
d="M28 0l131 652h133l106 -340l35 -143h4c7 68 12 161 27 236l50 247h130l-130 -652h-132l-107 339l-33 145h-4c-7 -73 -14 -159 -29 -234l-50 -250h-131zM420 703c-38 0 -74 22 -74 66s37 81 85 81c37 0 74 -24 74 -66c0 -47 -38 -81 -85 -81z" />
    <glyph glyph-name="uni1E45" unicode="&#x1e45;" horiz-adv-x="552" 
d="M14 0l98 496h111l-2 -66h4c49 42 104 78 167 78c82 0 118 -45 118 -127c0 -23 -3 -46 -8 -71l-62 -310h-137l59 293c4 20 8 34 8 47c0 34 -18 51 -51 51c-31 0 -61 -20 -104 -64l-64 -327h-137zM366 570c-38 0 -74 22 -74 66s37 81 85 81c37 0 74 -23 74 -66
c0 -47 -38 -81 -85 -81z" />
    <glyph glyph-name="uni1E46" unicode="&#x1e46;" horiz-adv-x="643" 
d="M28 0l131 652h133l106 -340l35 -143h4c7 68 12 161 27 236l50 247h130l-130 -652h-132l-107 339l-33 145h-4c-7 -73 -14 -159 -29 -234l-50 -250h-131zM264 -230c-38 0 -74 22 -74 66s38 81 85 81c38 0 74 -23 74 -66c0 -47 -37 -81 -85 -81z" />
    <glyph glyph-name="uni1E47" unicode="&#x1e47;" horiz-adv-x="552" 
d="M14 0l98 496h111l-2 -66h4c49 42 104 78 167 78c82 0 118 -45 118 -127c0 -23 -3 -46 -8 -71l-62 -310h-137l59 293c4 20 8 34 8 47c0 34 -18 51 -51 51c-31 0 -61 -20 -104 -64l-64 -327h-137zM203 -222c-38 0 -74 22 -74 66s37 81 85 81c38 0 74 -23 74 -66
c0 -47 -38 -81 -85 -81z" />
    <glyph glyph-name="uni1E48" unicode="&#x1e48;" horiz-adv-x="643" 
d="M28 0l131 652h133l106 -340l35 -143h4c7 68 12 161 27 236l50 247h130l-130 -652h-132l-107 339l-33 145h-4c-7 -73 -14 -159 -29 -234l-50 -250h-131zM131 -185l17 87h263l-17 -87h-263z" />
    <glyph glyph-name="uni1E49" unicode="&#x1e49;" horiz-adv-x="552" 
d="M14 0l98 496h111l-2 -66h4c49 42 104 78 167 78c82 0 118 -45 118 -127c0 -23 -3 -46 -8 -71l-62 -310h-137l59 293c4 20 8 34 8 47c0 34 -18 51 -51 51c-31 0 -61 -20 -104 -64l-64 -327h-137zM70 -177l17 87h263l-17 -87h-263z" />
    <glyph glyph-name="uni1E52" unicode="&#x1e52;" horiz-adv-x="660" 
d="M302 -12c-149 0 -245 102 -245 276c0 230 155 400 331 400c149 0 245 -103 245 -276c0 -230 -154 -400 -331 -400zM382 545c-93 0 -185 -121 -185 -272c0 -104 40 -167 112 -167c93 0 184 122 184 273c0 104 -39 166 -111 166zM378 851l102 118h145l-138 -118h-109z
M285 720l17 88h268l-18 -88h-267z" />
    <glyph glyph-name="uni1E53" unicode="&#x1e53;" horiz-adv-x="533" 
d="M222 -12c-116 0 -192 81 -192 204c0 192 141 316 278 316c115 0 192 -81 192 -204c0 -192 -141 -316 -278 -316zM292 398c-66 0 -124 -87 -124 -203c0 -60 23 -97 69 -97c67 0 125 87 125 203c0 61 -24 97 -70 97zM297 734l104 109h122l-132 -109h-94zM205 593l17 87h264
l-18 -87h-263z" />
    <glyph glyph-name="uni1E5A" unicode="&#x1e5a;" horiz-adv-x="596" 
d="M259 -83c38 0 74 -23 74 -66c0 -47 -37 -81 -85 -81c-38 0 -74 22 -74 66s38 81 85 81zM235 348h69c97 0 147 46 147 117c0 55 -39 78 -109 78h-69zM159 652h204c128 0 223 -46 223 -167c0 -122 -70 -195 -166 -227l101 -258h-144l-84 239h-80l-47 -239h-138z" />
    <glyph glyph-name="uni1E5B" unicode="&#x1e5b;" horiz-adv-x="384" 
d="M14 0l98 496h111l-6 -96h4c39 62 95 108 152 108c25 0 41 -4 52 -10l-45 -118c-13 7 -33 8 -49 8c-44 0 -85 -31 -124 -101l-56 -287h-137zM52 -222c-37 0 -74 22 -74 66s38 81 85 81c38 0 75 -23 75 -66c0 -47 -38 -81 -86 -81z" />
    <glyph glyph-name="uni1E5C" unicode="&#x1e5c;" horiz-adv-x="596" 
d="M534 808l-18 -88h-268l18 88h268zM259 -83c38 0 74 -23 74 -66c0 -47 -37 -81 -85 -81c-38 0 -74 22 -74 66s38 81 85 81zM235 348h69c97 0 147 46 147 117c0 55 -39 78 -109 78h-69zM159 652h204c128 0 223 -46 223 -167c0 -122 -70 -195 -166 -227l101 -258h-144
l-84 239h-80l-47 -239h-138z" />
    <glyph glyph-name="uni1E5D" unicode="&#x1e5d;" horiz-adv-x="384" 
d="M14 0l98 496h111l-6 -96h4c39 62 95 108 152 108c25 0 41 -4 52 -10l-45 -118c-13 7 -33 8 -49 8c-44 0 -85 -31 -124 -101l-56 -287h-137zM153 593l17 87h263l-17 -87h-263zM52 -222c-37 0 -74 22 -74 66s38 81 85 81c38 0 75 -23 75 -66c0 -47 -38 -81 -86 -81z" />
    <glyph glyph-name="uni1E5E" unicode="&#x1e5e;" horiz-adv-x="596" 
d="M115 -185l17 87h263l-17 -87h-263zM235 348h69c97 0 147 46 147 117c0 55 -39 78 -109 78h-69zM159 652h204c128 0 223 -46 223 -167c0 -122 -70 -195 -166 -227l101 -258h-144l-84 239h-80l-47 -239h-138z" />
    <glyph glyph-name="uni1E5F" unicode="&#x1e5f;" horiz-adv-x="384" 
d="M14 0l98 496h111l-6 -96h4c39 62 95 108 152 108c25 0 41 -4 52 -10l-45 -118c-13 7 -33 8 -49 8c-44 0 -85 -31 -124 -101l-56 -287h-137zM-81 -177l17 87h263l-17 -87h-263z" />
    <glyph glyph-name="uni1E60" unicode="&#x1e60;" horiz-adv-x="529" 
d="M5 110l98 77c35 -50 89 -82 145 -82s94 28 94 75c0 35 -30 52 -76 81l-62 38c-59 37 -97 83 -97 163c0 111 101 202 229 202c77 0 148 -39 198 -99l-87 -81c-33 35 -69 61 -117 61c-53 0 -83 -32 -83 -70c0 -33 31 -49 82 -81l64 -39c63 -38 91 -80 91 -155
c0 -119 -97 -212 -246 -212c-85 0 -169 35 -233 122zM365 709c-37 0 -74 22 -74 66s38 81 86 81c37 0 74 -23 74 -66c0 -47 -38 -81 -86 -81z" />
    <glyph glyph-name="uni1E61" unicode="&#x1e61;" horiz-adv-x="424" 
d="M-8 84l79 66c35 -42 71 -62 107 -62c38 0 70 20 70 47c0 29 -30 42 -86 74c-56 31 -100 75 -100 137c0 94 86 162 192 162c68 0 122 -33 163 -76l-75 -71c-24 25 -53 45 -88 45c-38 0 -64 -21 -64 -47c0 -31 42 -46 82 -69c59 -32 104 -71 104 -139
c0 -97 -86 -163 -206 -163c-61 0 -137 34 -178 96zM285 570c-37 0 -74 22 -74 66s38 81 86 81c37 0 74 -23 74 -66c0 -47 -38 -81 -86 -81z" />
    <glyph glyph-name="uni1E62" unicode="&#x1e62;" horiz-adv-x="529" 
d="M5 110l98 77c35 -50 89 -82 145 -82s94 28 94 75c0 35 -30 52 -76 81l-62 38c-59 37 -97 83 -97 163c0 111 101 202 229 202c77 0 148 -39 198 -99l-87 -81c-33 35 -69 61 -117 61c-53 0 -83 -32 -83 -70c0 -33 31 -49 82 -81l64 -39c63 -38 91 -80 91 -155
c0 -119 -97 -212 -246 -212c-85 0 -169 35 -233 122zM206 -230c-37 0 -74 22 -74 66s38 81 86 81c37 0 74 -23 74 -66c0 -47 -38 -81 -86 -81z" />
    <glyph glyph-name="uni1E63" unicode="&#x1e63;" horiz-adv-x="424" 
d="M-8 84l79 66c35 -42 71 -62 107 -62c38 0 70 20 70 47c0 29 -30 42 -86 74c-56 31 -100 75 -100 137c0 94 86 162 192 162c68 0 122 -33 163 -76l-75 -71c-24 25 -53 45 -88 45c-38 0 -64 -21 -64 -47c0 -31 42 -46 82 -69c59 -32 104 -71 104 -139
c0 -97 -86 -163 -206 -163c-61 0 -137 34 -178 96zM146 -222c-38 0 -74 22 -74 66s38 81 85 81c38 0 74 -23 74 -66c0 -47 -37 -81 -85 -81z" />
    <glyph glyph-name="uni1E6C" unicode="&#x1e6c;" horiz-adv-x="532" 
d="M149 0l106 536h-171l22 116h480l-23 -116h-171l-106 -536h-137zM182 -222c-38 0 -75 22 -75 66s38 81 86 81c37 0 74 -23 74 -66c0 -47 -38 -81 -85 -81z" />
    <glyph glyph-name="uni1E6D" unicode="&#x1e6d;" horiz-adv-x="367" 
d="M70 182l43 207h-66l20 101l73 6l42 130h115l-25 -130h113l-21 -107h-116l-43 -213c-2 -12 -2 -22 -2 -33c0 -32 16 -48 51 -48c15 0 28 5 41 11l24 -96c-26 -10 -65 -22 -116 -22c-100 0 -141 55 -141 131c0 21 4 42 8 63zM142 -222c-38 0 -74 22 -74 66s38 81 85 81
c38 0 74 -23 74 -66c0 -47 -37 -81 -85 -81z" />
    <glyph glyph-name="uni1E6E" unicode="&#x1e6e;" horiz-adv-x="532" 
d="M149 0l106 536h-171l22 116h480l-23 -116h-171l-106 -536h-137zM49 -177l17 87h263l-17 -87h-263z" />
    <glyph glyph-name="uni1E6F" unicode="&#x1e6f;" horiz-adv-x="367" 
d="M70 182l43 207h-66l20 101l73 6l42 130h115l-25 -130h113l-21 -107h-116l-43 -213c-2 -12 -2 -22 -2 -33c0 -32 16 -48 51 -48c15 0 28 5 41 11l24 -96c-26 -10 -65 -22 -116 -22c-100 0 -141 55 -141 131c0 21 4 42 8 63zM9 -177l17 87h263l-17 -87h-263z" />
    <glyph glyph-name="Wgrave" unicode="&#x1e80;" horiz-adv-x="794" 
d="M77 0l23 652h140l-21 -313c-6 -69 -12 -140 -20 -209h4c27 69 59 141 85 209l134 313h116l2 -313c-1 -67 -4 -139 -7 -209h4c24 70 51 141 73 209l110 313h131l-253 -652h-173l4 312c0 42 4 102 9 152h-4c-18 -49 -40 -101 -59 -152l-128 -312h-170zM438 702l-92 118h139
l57 -118h-104z" />
    <glyph glyph-name="wgrave" unicode="&#x1e81;" horiz-adv-x="748" 
d="M96 0l-24 496h135l1 -240c-1 -48 -4 -97 -6 -146h4c18 49 35 99 56 146l102 240h119l8 -240c1 -48 0 -97 0 -146h4c18 49 33 98 52 146l93 240h127l-212 -496h-161l-4 208c1 46 1 93 2 145h-4c-19 -52 -34 -99 -52 -145l-85 -208h-155zM411 573l-88 149h126l57 -149h-95z
" />
    <glyph glyph-name="Wacute" unicode="&#x1e82;" horiz-adv-x="794" 
d="M77 0l23 652h140l-21 -313c-6 -69 -12 -140 -20 -209h4c27 69 59 141 85 209l134 313h116l2 -313c-1 -67 -4 -139 -7 -209h4c24 70 51 141 73 209l110 313h131l-253 -652h-173l4 312c0 42 4 102 9 152h-4c-18 -49 -40 -101 -59 -152l-128 -312h-170zM402 702l102 118h149
l-138 -118h-113z" />
    <glyph glyph-name="wacute" unicode="&#x1e83;" horiz-adv-x="748" 
d="M96 0l-24 496h135l1 -240c-1 -48 -4 -97 -6 -146h4c18 49 35 99 56 146l102 240h119l8 -240c1 -48 0 -97 0 -146h4c18 49 33 98 52 146l93 240h127l-212 -496h-161l-4 208c1 46 1 93 2 145h-4c-19 -52 -34 -99 -52 -145l-85 -208h-155zM350 573l116 149h137l-150 -149
h-103z" />
    <glyph glyph-name="Wdieresis" unicode="&#x1e84;" horiz-adv-x="794" 
d="M77 0l23 652h140l-21 -313c-6 -69 -12 -140 -20 -209h4c27 69 59 141 85 209l134 313h116l2 -313c-1 -67 -4 -139 -7 -209h4c24 70 51 141 73 209l110 313h131l-253 -652h-173l4 312c0 42 4 102 9 152h-4c-18 -49 -40 -101 -59 -152l-128 -312h-170zM386 701
c-32 0 -57 22 -57 58s31 75 73 75c31 0 57 -21 57 -57c0 -37 -30 -76 -73 -76zM577 701c-33 0 -58 22 -58 58s31 75 74 75c30 0 57 -21 57 -57c0 -37 -31 -76 -73 -76z" />
    <glyph glyph-name="wdieresis" unicode="&#x1e85;" horiz-adv-x="748" 
d="M96 0l-24 496h135l1 -240c-1 -48 -4 -97 -6 -146h4c18 49 35 99 56 146l102 240h119l8 -240c1 -48 0 -97 0 -146h4c18 49 33 98 52 146l93 240h127l-212 -496h-161l-4 208c1 46 1 93 2 145h-4c-19 -52 -34 -99 -52 -145l-85 -208h-155zM341 572c-33 0 -59 21 -59 59
c0 40 33 75 75 75c33 0 59 -23 59 -60c0 -41 -32 -74 -75 -74zM532 572c-34 0 -59 21 -59 59c0 40 32 75 75 75c33 0 59 -23 59 -60c0 -41 -33 -74 -75 -74z" />
    <glyph glyph-name="uni1E8E" unicode="&#x1e8e;" 
d="M138 0l46 236l-104 416h142l28 -157c9 -49 16 -92 25 -143h4c27 51 51 95 80 145l91 155h147l-276 -416l-47 -236h-136zM340 703c-37 0 -74 22 -74 66s38 81 85 81c38 0 75 -24 75 -66c0 -47 -38 -81 -86 -81z" />
    <glyph glyph-name="uni1E8F" unicode="&#x1e8f;" horiz-adv-x="499" 
d="M7 -76c10 -6 24 -10 37 -10c36 0 72 28 94 72l12 25l-86 485h136l23 -224c5 -43 8 -102 9 -149h4c21 46 45 104 66 149l104 224h133l-268 -507c-69 -119 -133 -183 -235 -183c-18 0 -51 9 -71 20zM305 570c-37 0 -74 22 -74 66s38 81 85 81c38 0 75 -23 75 -66
c0 -47 -38 -81 -86 -81z" />
    <glyph glyph-name="uni1E92" unicode="&#x1e92;" horiz-adv-x="525" 
d="M-5 0l18 82l356 455h-257l23 115h421l-17 -83l-353 -454h283l-24 -115h-450zM181 -230c-37 0 -74 22 -74 66s38 81 85 81c38 0 74 -23 74 -66c0 -47 -37 -81 -85 -81z" />
    <glyph glyph-name="uni1E93" unicode="&#x1e93;" horiz-adv-x="443" 
d="M-10 0l15 77l263 312h-179l20 107h351l-15 -79l-263 -310h208l-21 -107h-379zM150 -222c-37 0 -74 22 -74 66s38 81 86 81c37 0 74 -23 74 -66c0 -47 -38 -81 -86 -81z" />
    <glyph glyph-name="uni1E97" unicode="&#x1e97;" horiz-adv-x="367" 
d="M70 182l43 207h-66l20 101l73 6l42 130h115l-25 -130h113l-21 -107h-116l-43 -213c-2 -12 -2 -22 -2 -33c0 -32 16 -48 51 -48c15 0 28 5 41 11l24 -96c-26 -10 -65 -22 -116 -22c-100 0 -141 55 -141 131c0 21 4 42 8 63zM156 713c-33 0 -58 20 -58 59s32 74 74 74
c34 0 59 -23 59 -60c0 -41 -32 -73 -75 -73zM347 713c-33 0 -59 20 -59 59s32 74 75 74c33 0 59 -23 59 -60c0 -41 -33 -73 -75 -73z" />
    <glyph glyph-name="uni1E9E" unicode="&#x1e9e;" horiz-adv-x="671" 
d="M28 0l87 430c26 134 112 242 282 242c121 0 223 -61 234 -199l-134 -119c77 -34 132 -89 132 -166c0 -113 -86 -200 -209 -200c-68 0 -133 24 -181 76l78 85c20 -26 51 -51 93 -51c41 0 78 34 78 82c0 39 -39 81 -131 106l7 80l133 123c-16 48 -57 73 -109 73
c-71 0 -122 -59 -143 -159l-79 -403h-138z" />
    <glyph glyph-name="uni1EA0" unicode="&#x1ea0;" horiz-adv-x="548" 
d="M213 -75c37 0 74 -23 74 -66c0 -47 -38 -81 -85 -81c-38 0 -74 22 -74 66s37 81 85 81zM215 267h140l-4 86c-3 64 -6 125 -8 194h-4c-28 -67 -53 -129 -84 -194zM511 0h-143l-8 164h-194l-77 -164h-151l344 652h164z" />
    <glyph glyph-name="uni1EA1" unicode="&#x1ea1;" horiz-adv-x="552" 
d="M31 170c0 189 128 338 265 338c45 0 89 -25 108 -65h2l22 53h109l-99 -496h-111l2 65h-3c-45 -47 -103 -77 -155 -77c-87 0 -140 65 -140 182zM231 100c33 0 74 17 106 73l35 176c-16 33 -43 47 -66 47c-69 0 -133 -90 -133 -209c0 -60 22 -87 58 -87zM210 -222
c-37 0 -74 22 -74 66s38 81 86 81c37 0 74 -23 74 -66c0 -47 -38 -81 -86 -81z" />
    <glyph glyph-name="uni1EA2" unicode="&#x1ea2;" horiz-adv-x="548" 
d="M323 690l-4 55c31 7 52 15 52 37c0 18 -17 28 -69 31l29 70c106 -4 143 -35 143 -77c0 -73 -68 -106 -151 -116zM215 267h140l-4 86c-3 64 -6 125 -8 194h-4c-28 -67 -53 -129 -84 -194zM368 0l-8 164h-194l-77 -164h-151l344 652h164l65 -652h-143z" />
    <glyph glyph-name="uni1EA3" unicode="&#x1ea3;" horiz-adv-x="552" 
d="M31 170c0 189 128 338 265 338c45 0 89 -25 108 -65h2l22 53h109l-99 -496h-111l2 65h-3c-45 -47 -103 -77 -155 -77c-87 0 -140 65 -140 182zM231 100c33 0 74 17 106 73l35 176c-16 33 -43 47 -66 47c-69 0 -133 -90 -133 -209c0 -60 22 -87 58 -87zM288 679l27 68
c107 -2 145 -33 145 -77c0 -73 -67 -105 -149 -115l-5 56c31 7 52 15 52 37c0 18 -19 27 -70 31z" />
    <glyph glyph-name="uni1EA4" unicode="&#x1ea4;" horiz-adv-x="548" 
d="M215 267h140l-4 86c-3 64 -6 125 -8 194h-4c-28 -67 -53 -129 -84 -194zM282 652h164l65 -652h-143l-8 164h-194l-77 -164h-151zM327 814h118l68 -112h-97l-39 55h-4l-61 -55h-98zM573 887h105l-109 -119h-77z" />
    <glyph glyph-name="uni1EA5" unicode="&#x1ea5;" horiz-adv-x="552" 
d="M31 170c0 189 128 338 265 338c45 0 89 -25 108 -65h2l22 53h109l-99 -496h-111l2 65h-3c-45 -47 -103 -77 -155 -77c-87 0 -140 65 -140 182zM231 100c33 0 74 17 106 73l35 176c-16 33 -43 47 -66 47c-69 0 -133 -90 -133 -209c0 -60 22 -87 58 -87zM198 573l105 127
h107l51 -127h-80l-33 65h-4l-57 -65h-89zM448 644l88 118h102l-114 -118h-76z" />
    <glyph glyph-name="uni1EA6" unicode="&#x1ea6;" horiz-adv-x="548" 
d="M215 267h140l-4 86c-3 64 -6 125 -8 194h-4c-28 -67 -53 -129 -84 -194zM282 652h164l65 -652h-143l-8 164h-194l-77 -164h-151zM327 814h118l68 -112h-97l-39 55h-4l-61 -55h-98zM567 887l36 -119h-78l-62 119h104z" />
    <glyph glyph-name="uni1EA7" unicode="&#x1ea7;" horiz-adv-x="552" 
d="M31 170c0 189 128 338 265 338c45 0 89 -25 108 -65h2l22 53h109l-99 -496h-111l2 65h-3c-45 -47 -103 -77 -155 -77c-87 0 -140 65 -140 182zM231 100c33 0 74 17 106 73l35 176c-16 33 -43 47 -66 47c-69 0 -133 -90 -133 -209c0 -60 22 -87 58 -87zM538 762l42 -118
h-77l-66 118h101zM198 573l105 127h107l51 -127h-80l-33 65h-4l-57 -65h-89z" />
    <glyph glyph-name="uni1EA8" unicode="&#x1ea8;" horiz-adv-x="548" 
d="M215 267h140l-4 86c-3 64 -6 125 -8 194h-4c-28 -67 -53 -129 -84 -194zM282 652h164l65 -652h-143l-8 164h-194l-77 -164h-151zM327 814h118l68 -112h-97l-39 55h-4l-61 -55h-98zM483 858l24 56c96 -3 124 -30 124 -67c0 -64 -52 -90 -126 -98l-3 45c25 6 40 14 40 36
c0 15 -14 24 -59 28z" />
    <glyph glyph-name="uni1EA9" unicode="&#x1ea9;" horiz-adv-x="552" 
d="M31 170c0 189 128 338 265 338c45 0 89 -25 108 -65h2l22 53h109l-99 -496h-111l2 65h-3c-45 -47 -103 -77 -155 -77c-87 0 -140 65 -140 182zM231 100c33 0 74 17 106 73l35 176c-16 33 -43 47 -66 47c-69 0 -133 -90 -133 -209c0 -60 22 -87 58 -87zM452 740l24 59
c94 -4 127 -30 127 -67c0 -71 -57 -93 -131 -104l-1 46c27 7 39 16 39 37c0 16 -13 25 -58 29zM198 573l105 127h107l51 -127h-80l-33 65h-4l-57 -65h-89z" />
    <glyph glyph-name="uni1EAA" unicode="&#x1eaa;" horiz-adv-x="548" 
d="M496 961h60c-23 -76 -67 -111 -109 -111c-44 0 -66 39 -95 39c-17 0 -33 -13 -43 -39h-62c23 74 68 111 109 111c45 0 68 -41 97 -41c16 0 31 13 43 41zM215 267h140l-4 86c-3 64 -6 125 -8 194h-4c-28 -67 -53 -129 -84 -194zM282 652h164l65 -652h-143l-8 164h-194
l-77 -164h-151zM327 814h118l68 -112h-97l-39 55h-4l-61 -55h-98z" />
    <glyph glyph-name="uni1EAB" unicode="&#x1eab;" horiz-adv-x="552" 
d="M31 170c0 189 128 338 265 338c45 0 89 -25 108 -65h2l22 53h109l-99 -496h-111l2 65h-3c-45 -47 -103 -77 -155 -77c-87 0 -140 65 -140 182zM231 100c33 0 74 17 106 73l35 176c-16 33 -43 47 -66 47c-69 0 -133 -90 -133 -209c0 -60 22 -87 58 -87zM415 682l55 -109
h-85l-39 58h-4l-58 -58h-94l100 109h125zM280 718h-62c23 74 66 110 106 110c46 0 65 -38 94 -38c14 0 31 12 41 38h59c-23 -74 -66 -110 -106 -110c-46 0 -64 39 -93 39c-14 0 -30 -13 -39 -39z" />
    <glyph glyph-name="uni1EAC" unicode="&#x1eac;" horiz-adv-x="548" 
d="M373 764l-64 -62h-109l115 118h133l69 -118h-100l-42 62h-2zM213 -75c37 0 74 -23 74 -66c0 -47 -38 -81 -85 -81c-38 0 -74 22 -74 66s37 81 85 81zM215 267h140l-4 86c-3 64 -6 125 -8 194h-4c-28 -67 -53 -129 -84 -194zM282 652h164l65 -652h-143l-8 164h-194
l-77 -164h-151z" />
    <glyph glyph-name="uni1EAD" unicode="&#x1ead;" horiz-adv-x="552" 
d="M31 170c0 189 128 338 265 338c45 0 89 -25 108 -65h2l22 53h109l-99 -496h-111l2 65h-3c-45 -47 -103 -77 -155 -77c-87 0 -140 65 -140 182zM231 100c33 0 74 17 106 73l35 176c-16 33 -43 47 -66 47c-69 0 -133 -90 -133 -209c0 -60 22 -87 58 -87zM185 573l122 149
h107l63 -149h-88l-36 81h-4l-68 -81h-96zM210 -222c-37 0 -74 22 -74 66s38 81 86 81c37 0 74 -23 74 -66c0 -47 -38 -81 -86 -81z" />
    <glyph glyph-name="uni1EAE" unicode="&#x1eae;" horiz-adv-x="548" 
d="M523 921l-119 -115h-69l86 115h102zM215 267h140l-4 86c-3 64 -6 125 -8 194h-4c-28 -67 -53 -129 -84 -194zM282 652h164l65 -652h-143l-8 164h-194l-77 -164h-151zM254 820h65c-2 -38 21 -56 53 -56c34 0 64 20 74 56h67c-22 -70 -67 -118 -153 -118
c-77 0 -113 48 -106 118z" />
    <glyph glyph-name="uni1EAF" unicode="&#x1eaf;" horiz-adv-x="552" 
d="M31 170c0 189 128 338 265 338c45 0 89 -25 108 -65h2l22 53h109l-99 -496h-111l2 65h-3c-45 -47 -103 -77 -155 -77c-87 0 -140 65 -140 182zM231 100c33 0 74 17 106 73l35 176c-16 33 -43 47 -66 47c-69 0 -133 -90 -133 -209c0 -60 22 -87 58 -87zM308 689l72 118h98
l-101 -118h-69zM330 574c-85 0 -118 66 -104 137h60c-5 -40 13 -68 58 -68c41 0 71 27 85 68h63c-18 -71 -72 -137 -162 -137z" />
    <glyph glyph-name="uni1EB0" unicode="&#x1eb0;" horiz-adv-x="548" 
d="M426 806h-68l-56 115h101zM446 820h67c-22 -70 -67 -118 -153 -118c-77 0 -113 48 -106 118h65c-2 -38 21 -56 53 -56c34 0 64 20 74 56zM215 267h140l-4 86c-3 64 -6 125 -8 194h-4c-28 -67 -53 -129 -84 -194zM282 652h164l65 -652h-143l-8 164h-194l-77 -164h-151z
" />
    <glyph glyph-name="uni1EB1" unicode="&#x1eb1;" horiz-adv-x="552" 
d="M31 170c0 189 128 338 265 338c45 0 89 -25 108 -65h2l22 53h109l-99 -496h-111l2 65h-3c-45 -47 -103 -77 -155 -77c-87 0 -140 65 -140 182zM231 100c33 0 74 17 106 73l35 176c-16 33 -43 47 -66 47c-69 0 -133 -90 -133 -209c0 -60 22 -87 58 -87zM330 574
c-85 0 -118 66 -104 137h60c-5 -40 13 -68 58 -68c41 0 71 27 85 68h63c-18 -71 -72 -137 -162 -137zM372 807l26 -118h-69l-55 118h98z" />
    <glyph glyph-name="uni1EB2" unicode="&#x1eb2;" horiz-adv-x="548" 
d="M347 804l-3 44c25 6 40 14 40 36c0 15 -14 24 -59 28l24 56c96 -3 124 -30 124 -67c0 -64 -52 -90 -126 -97zM446 820h67c-22 -70 -67 -118 -153 -118c-77 0 -113 48 -106 118h65c-2 -38 21 -56 53 -56c34 0 64 20 74 56zM215 267h140l-4 86c-3 64 -6 125 -8 194h-4
c-28 -67 -53 -129 -84 -194zM282 652h164l65 -652h-143l-8 164h-194l-77 -164h-151z" />
    <glyph glyph-name="uni1EB3" unicode="&#x1eb3;" horiz-adv-x="552" 
d="M31 170c0 189 128 338 265 338c45 0 89 -25 108 -65h2l22 53h109l-99 -496h-111l2 65h-3c-45 -47 -103 -77 -155 -77c-87 0 -140 65 -140 182zM231 100c33 0 74 17 106 73l35 176c-16 33 -43 47 -66 47c-69 0 -133 -90 -133 -209c0 -60 22 -87 58 -87zM307 810l24 58
c92 -2 123 -29 123 -64c0 -71 -53 -95 -127 -106l-1 48c25 6 38 16 38 35c0 16 -13 25 -57 29zM330 574c-85 0 -118 66 -104 137h60c-5 -40 13 -68 58 -68c41 0 71 27 85 68h63c-18 -71 -72 -137 -162 -137z" />
    <glyph glyph-name="uni1EB4" unicode="&#x1eb4;" horiz-adv-x="548" 
d="M496 961h60c-23 -76 -67 -111 -109 -111c-44 0 -66 39 -95 39c-17 0 -33 -13 -43 -39h-62c23 74 68 111 109 111c45 0 68 -41 97 -41c16 0 31 13 43 41zM215 267h140l-4 86c-3 64 -6 125 -8 194h-4c-28 -67 -53 -129 -84 -194zM282 652h164l65 -652h-143l-8 164h-194
l-77 -164h-151zM254 820h65c-2 -38 21 -56 53 -56c34 0 64 20 74 56h67c-22 -70 -67 -118 -153 -118c-77 0 -113 48 -106 118z" />
    <glyph glyph-name="uni1EB5" unicode="&#x1eb5;" horiz-adv-x="552" 
d="M31 170c0 189 128 338 265 338c45 0 89 -25 108 -65h2l22 53h109l-99 -496h-111l2 65h-3c-45 -47 -103 -77 -155 -77c-87 0 -140 65 -140 182zM231 100c33 0 74 17 106 73l35 176c-16 33 -43 47 -66 47c-69 0 -133 -90 -133 -209c0 -60 22 -87 58 -87zM330 574
c-88 0 -117 56 -107 118h60c1 -29 18 -52 61 -52c41 0 70 24 81 52h62c-16 -62 -68 -118 -157 -118zM280 718h-62c23 74 66 110 106 110c46 0 65 -38 94 -38c14 0 31 12 41 38h59c-23 -74 -66 -110 -106 -110c-46 0 -64 39 -93 39c-14 0 -30 -13 -39 -39z" />
    <glyph glyph-name="uni1EB6" unicode="&#x1eb6;" horiz-adv-x="548" 
d="M437 820h75c-22 -70 -67 -118 -154 -118c-76 0 -113 48 -105 118h73c-2 -30 13 -49 45 -49c34 0 55 21 66 49zM213 -75c37 0 74 -23 74 -66c0 -47 -38 -81 -85 -81c-38 0 -74 22 -74 66s37 81 85 81zM215 267h140l-4 86c-3 64 -6 125 -8 194h-4
c-28 -67 -53 -129 -84 -194zM282 652h164l65 -652h-143l-8 164h-194l-77 -164h-151z" />
    <glyph glyph-name="uni1EB7" unicode="&#x1eb7;" horiz-adv-x="552" 
d="M31 170c0 189 128 338 265 338c45 0 89 -25 108 -65h2l22 53h109l-99 -496h-111l2 65h-3c-45 -47 -103 -77 -155 -77c-87 0 -140 65 -140 182zM231 100c33 0 74 17 106 73l35 176c-16 33 -43 47 -66 47c-69 0 -133 -90 -133 -209c0 -60 22 -87 58 -87zM331 574
c-86 0 -118 66 -105 137h74c-4 -35 7 -63 44 -63s60 28 72 63h76c-18 -71 -72 -137 -161 -137zM210 -222c-37 0 -74 22 -74 66s38 81 86 81c37 0 74 -23 74 -66c0 -47 -38 -81 -86 -81z" />
    <glyph glyph-name="uni1EB8" unicode="&#x1eb8;" horiz-adv-x="527" 
d="M28 0l131 652h386l-22 -115h-251l-28 -142h213l-22 -115h-213l-34 -165h259l-22 -115h-397zM212 -222c-37 0 -74 22 -74 66s38 81 86 81c37 0 74 -23 74 -66c0 -47 -38 -81 -86 -81z" />
    <glyph glyph-name="uni1EB9" unicode="&#x1eb9;" horiz-adv-x="496" 
d="M29 200c0 184 144 308 276 308c118 0 162 -83 162 -186c0 -47 -18 -98 -26 -113h-282c-4 -83 46 -118 111 -118c31 0 67 18 92 35l48 -86c-40 -28 -101 -52 -178 -52c-120 0 -203 80 -203 212zM170 293h180c3 10 5 23 5 37c0 40 -17 73 -67 73c-47 0 -96 -37 -118 -110z
M187 -222c-37 0 -74 22 -74 66s38 81 85 81c38 0 74 -23 74 -66c0 -47 -37 -81 -85 -81z" />
    <glyph glyph-name="uni1EBA" unicode="&#x1eba;" horiz-adv-x="527" 
d="M28 0l131 652h386l-22 -115h-251l-28 -142h213l-22 -115h-213l-34 -165h259l-22 -115h-397zM305 813l29 70c106 -4 144 -35 144 -77c0 -73 -69 -106 -152 -116l-4 55c31 7 52 15 52 37c0 18 -17 28 -69 31z" />
    <glyph glyph-name="uni1EBB" unicode="&#x1ebb;" horiz-adv-x="496" 
d="M29 200c0 184 144 308 276 308c118 0 162 -83 162 -186c0 -47 -18 -98 -26 -113h-282c-4 -83 46 -118 111 -118c31 0 67 18 92 35l48 -86c-40 -28 -101 -52 -178 -52c-120 0 -203 80 -203 212zM170 293h180c3 10 5 23 5 37c0 40 -17 73 -67 73c-47 0 -96 -37 -118 -110z
M286 679l27 68c108 -2 146 -33 146 -77c0 -73 -67 -105 -150 -115l-5 56c31 7 53 15 53 37c0 18 -19 27 -71 31z" />
    <glyph glyph-name="uni1EBC" unicode="&#x1ebc;" horiz-adv-x="527" 
d="M28 0l131 652h386l-22 -115h-251l-28 -142h213l-22 -115h-213l-34 -165h259l-22 -115h-397zM272 703h-71c22 84 72 130 120 130c58 0 74 -47 114 -47c15 0 29 15 42 45h71c-22 -84 -72 -130 -120 -130c-58 0 -74 47 -114 47c-16 0 -29 -14 -42 -45z" />
    <glyph glyph-name="uni1EBD" unicode="&#x1ebd;" horiz-adv-x="496" 
d="M29 200c0 184 144 308 276 308c118 0 162 -83 162 -186c0 -47 -18 -98 -26 -113h-282c-4 -83 46 -118 111 -118c31 0 67 18 92 35l48 -86c-40 -28 -101 -52 -178 -52c-120 0 -203 80 -203 212zM170 293h180c3 10 5 23 5 37c0 40 -17 73 -67 73c-47 0 -96 -37 -118 -110z
M240 577h-72c24 85 71 128 118 128c60 0 74 -45 115 -45c14 0 27 13 39 43h72c-24 -84 -71 -128 -118 -128c-60 0 -74 45 -115 45c-14 0 -27 -13 -39 -43z" />
    <glyph glyph-name="uni1EBE" unicode="&#x1ebe;" horiz-adv-x="527" 
d="M28 0l131 652h386l-22 -115h-251l-28 -142h213l-22 -115h-213l-34 -165h259l-22 -115h-397zM495 768l81 119h105l-109 -119h-77zM217 702l113 112h118l68 -112h-97l-39 55h-4l-61 -55h-98z" />
    <glyph glyph-name="uni1EBF" unicode="&#x1ebf;" horiz-adv-x="496" 
d="M29 200c0 184 144 308 276 308c118 0 162 -83 162 -186c0 -47 -18 -98 -26 -113h-282c-4 -83 46 -118 111 -118c31 0 67 18 92 35l48 -86c-40 -28 -101 -52 -178 -52c-120 0 -203 80 -203 212zM170 293h180c3 10 5 23 5 37c0 40 -17 73 -67 73c-47 0 -96 -37 -118 -110z
M188 573l104 127h107l52 -127h-80l-33 65h-4l-57 -65h-89zM438 644l87 118h102l-113 -118h-76z" />
    <glyph glyph-name="uni1EC0" unicode="&#x1ec0;" horiz-adv-x="527" 
d="M28 0l131 652h386l-22 -115h-251l-28 -142h213l-22 -115h-213l-34 -165h259l-22 -115h-397zM570 887l36 -119h-78l-62 119h104zM217 702l113 112h118l68 -112h-97l-39 55h-4l-61 -55h-98z" />
    <glyph glyph-name="uni1EC1" unicode="&#x1ec1;" horiz-adv-x="496" 
d="M29 200c0 184 144 308 276 308c118 0 162 -83 162 -186c0 -47 -18 -98 -26 -113h-282c-4 -83 46 -118 111 -118c31 0 67 18 92 35l48 -86c-40 -28 -101 -52 -178 -52c-120 0 -203 80 -203 212zM170 293h180c3 10 5 23 5 37c0 40 -17 73 -67 73c-47 0 -96 -37 -118 -110z
M527 762l42 -118h-76l-67 118h101zM188 573l104 127h107l52 -127h-80l-33 65h-4l-57 -65h-89z" />
    <glyph glyph-name="uni1EC2" unicode="&#x1ec2;" horiz-adv-x="527" 
d="M28 0l131 652h386l-22 -115h-251l-28 -142h213l-22 -115h-213l-34 -165h259l-22 -115h-397zM217 702l113 112h118l68 -112h-97l-39 55h-4l-61 -55h-98zM486 858l24 56c96 -3 124 -30 124 -67c0 -64 -52 -90 -126 -98l-3 45c25 6 41 14 41 36c0 15 -15 24 -60 28z" />
    <glyph glyph-name="uni1EC3" unicode="&#x1ec3;" horiz-adv-x="496" 
d="M29 200c0 184 144 308 276 308c118 0 162 -83 162 -186c0 -47 -18 -98 -26 -113h-282c-4 -83 46 -118 111 -118c31 0 67 18 92 35l48 -86c-40 -28 -101 -52 -178 -52c-120 0 -203 80 -203 212zM170 293h180c3 10 5 23 5 37c0 40 -17 73 -67 73c-47 0 -96 -37 -118 -110z
M442 740l24 59c94 -4 127 -30 127 -67c0 -71 -57 -93 -131 -104l-1 46c27 7 38 16 38 37c0 16 -12 25 -57 29zM188 573l104 127h107l52 -127h-80l-33 65h-4l-57 -65h-89z" />
    <glyph glyph-name="uni1EC4" unicode="&#x1ec4;" horiz-adv-x="527" 
d="M28 0l131 652h386l-22 -115h-251l-28 -142h213l-22 -115h-213l-34 -165h259l-22 -115h-397zM217 702l113 112h118l68 -112h-97l-39 55h-4l-61 -55h-98zM251 850c22 74 67 111 108 111c45 0 69 -41 97 -41c16 0 32 13 43 41h60c-22 -76 -67 -111 -109 -111
c-44 0 -66 39 -94 39c-18 0 -34 -13 -44 -39h-61z" />
    <glyph glyph-name="uni1EC5" unicode="&#x1ec5;" horiz-adv-x="496" 
d="M29 200c0 184 144 308 276 308c118 0 162 -83 162 -186c0 -47 -18 -98 -26 -113h-282c-4 -83 46 -118 111 -118c31 0 67 18 92 35l48 -86c-40 -28 -101 -52 -178 -52c-120 0 -203 80 -203 212zM170 293h180c3 10 5 23 5 37c0 40 -17 73 -67 73c-47 0 -96 -37 -118 -110z
M404 682l56 -109h-85l-39 58h-4l-58 -58h-94l100 109h124zM269 718h-61c23 74 66 110 106 110c46 0 65 -38 93 -38c14 0 31 12 41 38h60c-23 -74 -66 -110 -106 -110c-46 0 -65 39 -93 39c-15 0 -30 -13 -40 -39z" />
    <glyph glyph-name="uni1EC6" unicode="&#x1ec6;" horiz-adv-x="527" 
d="M28 0l131 652h386l-22 -115h-251l-28 -142h213l-22 -115h-213l-34 -165h259l-22 -115h-397zM203 702l115 118h133l69 -118h-100l-42 62h-2l-64 -62h-109zM212 -222c-37 0 -74 22 -74 66s38 81 86 81c37 0 74 -23 74 -66c0 -47 -38 -81 -86 -81z" />
    <glyph glyph-name="uni1EC7" unicode="&#x1ec7;" horiz-adv-x="496" 
d="M29 200c0 184 144 308 276 308c118 0 162 -83 162 -186c0 -47 -18 -98 -26 -113h-282c-4 -83 46 -118 111 -118c31 0 67 18 92 35l48 -86c-40 -28 -101 -52 -178 -52c-120 0 -203 80 -203 212zM170 293h180c3 10 5 23 5 37c0 40 -17 73 -67 73c-47 0 -96 -37 -118 -110z
M175 573l122 149h107l63 -149h-88l-37 81h-4l-68 -81h-95zM187 -222c-37 0 -74 22 -74 66s38 81 85 81c38 0 74 -23 74 -66c0 -47 -37 -81 -85 -81z" />
    <glyph glyph-name="uni1EC8" unicode="&#x1ec8;" horiz-adv-x="294" 
d="M28 0l131 652h137l-130 -652h-138zM168 813l29 70c106 -4 144 -35 144 -77c0 -73 -69 -106 -151 -116l-5 55c31 7 52 15 52 37c0 18 -17 28 -69 31z" />
    <glyph glyph-name="uni1EC9" unicode="&#x1ec9;" horiz-adv-x="265" 
d="M14 0l100 496h136l-99 -496h-137zM158 679l27 68c108 -2 146 -33 146 -77c0 -73 -67 -105 -150 -115l-5 56c31 7 53 15 53 37c0 18 -19 27 -71 31z" />
    <glyph glyph-name="uni1ECA" unicode="&#x1eca;" horiz-adv-x="294" 
d="M28 0l131 652h137l-130 -652h-138zM67 -223c-38 0 -75 22 -75 66s38 81 86 81c37 0 74 -24 74 -66c0 -47 -38 -81 -85 -81z" />
    <glyph glyph-name="uni1ECB" unicode="&#x1ecb;" horiz-adv-x="265" 
d="M14 0l100 496h136l-99 -496h-137zM208 570c-37 0 -74 22 -74 66s38 81 85 81c38 0 74 -23 74 -66c0 -47 -37 -81 -85 -81zM53 -222c-37 0 -74 22 -74 66s38 81 86 81c37 0 74 -23 74 -66c0 -47 -38 -81 -86 -81z" />
    <glyph glyph-name="uni1ECC" unicode="&#x1ecc;" horiz-adv-x="660" 
d="M302 -12c-149 0 -245 102 -245 276c0 230 155 400 331 400c149 0 245 -103 245 -276c0 -230 -154 -400 -331 -400zM382 545c-93 0 -185 -121 -185 -272c0 -104 40 -167 112 -167c93 0 184 122 184 273c0 104 -39 166 -111 166zM258 -222c-37 0 -74 22 -74 66s38 81 85 81
c38 0 75 -23 75 -66c0 -47 -38 -81 -86 -81z" />
    <glyph glyph-name="uni1ECD" unicode="&#x1ecd;" horiz-adv-x="533" 
d="M222 -12c-116 0 -192 81 -192 204c0 192 141 316 278 316c115 0 192 -81 192 -204c0 -192 -141 -316 -278 -316zM292 398c-66 0 -124 -87 -124 -203c0 -60 23 -97 69 -97c67 0 125 87 125 203c0 61 -24 97 -70 97zM165 -222c-38 0 -75 22 -75 66s38 81 86 81
c37 0 74 -23 74 -66c0 -47 -38 -81 -85 -81z" />
    <glyph glyph-name="uni1ECE" unicode="&#x1ece;" horiz-adv-x="660" 
d="M302 -12c-149 0 -245 102 -245 276c0 230 155 400 331 400c149 0 245 -103 245 -276c0 -230 -154 -400 -331 -400zM382 545c-93 0 -185 -121 -185 -272c0 -104 40 -167 112 -167c93 0 184 122 184 273c0 104 -39 166 -111 166zM357 813l29 70c106 -4 144 -35 144 -77
c0 -73 -69 -106 -151 -116l-5 55c31 7 52 15 52 37c0 18 -17 28 -69 31z" />
    <glyph glyph-name="uni1ECF" unicode="&#x1ecf;" horiz-adv-x="533" 
d="M222 -12c-116 0 -192 81 -192 204c0 192 141 316 278 316c115 0 192 -81 192 -204c0 -192 -141 -316 -278 -316zM292 398c-66 0 -124 -87 -124 -203c0 -60 23 -97 69 -97c67 0 125 87 125 203c0 61 -24 97 -70 97zM288 679l27 68c108 -2 146 -33 146 -77
c0 -73 -67 -105 -150 -115l-4 56c31 7 52 15 52 37c0 18 -19 27 -71 31z" />
    <glyph glyph-name="uni1ED0" unicode="&#x1ed0;" horiz-adv-x="660" 
d="M302 -12c-149 0 -245 102 -245 276c0 230 155 400 331 400c149 0 245 -103 245 -276c0 -230 -154 -400 -331 -400zM382 545c-93 0 -185 -121 -185 -272c0 -104 40 -167 112 -167c93 0 184 122 184 273c0 104 -39 166 -111 166zM548 768l81 119h104l-108 -119h-77z
M270 702l112 112h118l69 -112h-97l-40 55h-4l-61 -55h-97z" />
    <glyph glyph-name="uni1ED1" unicode="&#x1ed1;" horiz-adv-x="533" 
d="M222 -12c-116 0 -192 81 -192 204c0 192 141 316 278 316c115 0 192 -81 192 -204c0 -192 -141 -316 -278 -316zM292 398c-66 0 -124 -87 -124 -203c0 -60 23 -97 69 -97c67 0 125 87 125 203c0 61 -24 97 -70 97zM199 573l104 127h107l52 -127h-80l-33 65h-4l-57 -65
h-89zM449 644l87 118h102l-113 -118h-76z" />
    <glyph glyph-name="uni1ED2" unicode="&#x1ed2;" horiz-adv-x="660" 
d="M302 -12c-149 0 -245 102 -245 276c0 230 155 400 331 400c149 0 245 -103 245 -276c0 -230 -154 -400 -331 -400zM382 545c-93 0 -185 -121 -185 -272c0 -104 40 -167 112 -167c93 0 184 122 184 273c0 104 -39 166 -111 166zM622 887l36 -119h-78l-62 119h104zM270 702
l112 112h118l69 -112h-97l-40 55h-4l-61 -55h-97z" />
    <glyph glyph-name="uni1ED3" unicode="&#x1ed3;" horiz-adv-x="533" 
d="M222 -12c-116 0 -192 81 -192 204c0 192 141 316 278 316c115 0 192 -81 192 -204c0 -192 -141 -316 -278 -316zM292 398c-66 0 -124 -87 -124 -203c0 -60 23 -97 69 -97c67 0 125 87 125 203c0 61 -24 97 -70 97zM539 762l42 -118h-77l-67 118h102zM199 573l104 127h107
l52 -127h-80l-33 65h-4l-57 -65h-89z" />
    <glyph glyph-name="uni1ED4" unicode="&#x1ed4;" horiz-adv-x="660" 
d="M302 -12c-149 0 -245 102 -245 276c0 230 155 400 331 400c149 0 245 -103 245 -276c0 -230 -154 -400 -331 -400zM382 545c-93 0 -185 -121 -185 -272c0 -104 40 -167 112 -167c93 0 184 122 184 273c0 104 -39 166 -111 166zM270 702l112 112h118l69 -112h-97l-40 55
h-4l-61 -55h-97zM539 858l24 56c95 -3 123 -30 123 -67c0 -64 -52 -90 -125 -98l-4 45c26 6 41 14 41 36c0 15 -15 24 -59 28z" />
    <glyph glyph-name="uni1ED5" unicode="&#x1ed5;" horiz-adv-x="533" 
d="M222 -12c-116 0 -192 81 -192 204c0 192 141 316 278 316c115 0 192 -81 192 -204c0 -192 -141 -316 -278 -316zM292 398c-66 0 -124 -87 -124 -203c0 -60 23 -97 69 -97c67 0 125 87 125 203c0 61 -24 97 -70 97zM453 740l24 59c94 -4 127 -30 127 -67
c0 -71 -57 -93 -131 -104l-1 46c27 7 38 16 38 37c0 16 -12 25 -57 29zM199 573l104 127h107l52 -127h-80l-33 65h-4l-57 -65h-89z" />
    <glyph glyph-name="uni1ED6" unicode="&#x1ed6;" horiz-adv-x="660" 
d="M302 -12c-149 0 -245 102 -245 276c0 230 155 400 331 400c149 0 245 -103 245 -276c0 -230 -154 -400 -331 -400zM382 545c-93 0 -185 -121 -185 -272c0 -104 40 -167 112 -167c93 0 184 122 184 273c0 104 -39 166 -111 166zM270 702l112 112h118l69 -112h-97l-40 55
h-4l-61 -55h-97zM303 850c23 74 67 111 109 111c44 0 68 -41 96 -41c16 0 32 13 44 41h60c-23 -76 -68 -111 -109 -111c-45 0 -67 39 -95 39c-18 0 -33 -13 -44 -39h-61z" />
    <glyph glyph-name="uni1ED7" unicode="&#x1ed7;" horiz-adv-x="533" 
d="M222 -12c-116 0 -192 81 -192 204c0 192 141 316 278 316c115 0 192 -81 192 -204c0 -192 -141 -316 -278 -316zM292 398c-66 0 -124 -87 -124 -203c0 -60 23 -97 69 -97c67 0 125 87 125 203c0 61 -24 97 -70 97zM415 682l56 -109h-85l-39 58h-4l-58 -58h-94l100 109
h124zM280 718h-61c23 74 66 110 106 110c46 0 65 -38 93 -38c15 0 32 12 41 38h60c-23 -74 -66 -110 -106 -110c-46 0 -65 39 -93 39c-14 0 -30 -13 -40 -39z" />
    <glyph glyph-name="uni1ED8" unicode="&#x1ed8;" horiz-adv-x="660" 
d="M302 -12c-149 0 -245 102 -245 276c0 230 155 400 331 400c149 0 245 -103 245 -276c0 -230 -154 -400 -331 -400zM382 545c-93 0 -185 -121 -185 -272c0 -104 40 -167 112 -167c93 0 184 122 184 273c0 104 -39 166 -111 166zM255 702l116 118h132l69 -118h-100l-42 62
h-2l-64 -62h-109zM258 -222c-37 0 -74 22 -74 66s38 81 85 81c38 0 75 -23 75 -66c0 -47 -38 -81 -86 -81z" />
    <glyph glyph-name="uni1ED9" unicode="&#x1ed9;" horiz-adv-x="533" 
d="M222 -12c-116 0 -192 81 -192 204c0 192 141 316 278 316c115 0 192 -81 192 -204c0 -192 -141 -316 -278 -316zM292 398c-66 0 -124 -87 -124 -203c0 -60 23 -97 69 -97c67 0 125 87 125 203c0 61 -24 97 -70 97zM186 573l122 149h107l63 -149h-88l-37 81h-4l-68 -81
h-95zM165 -222c-38 0 -75 22 -75 66s38 81 86 81c37 0 74 -23 74 -66c0 -47 -38 -81 -85 -81z" />
    <glyph glyph-name="uni1EDA" unicode="&#x1eda;" horiz-adv-x="660" 
d="M573 820l-139 -118h-112l102 118h149zM309 106c93 0 184 122 184 273c0 104 -39 166 -111 166c-93 0 -185 -121 -185 -272c0 -104 40 -167 112 -167zM584 743l102 31c9 -20 13 -40 13 -60c0 -63 -47 -112 -128 -128c40 -47 62 -115 62 -198c0 -230 -154 -400 -331 -400
c-149 0 -245 102 -245 276c0 230 155 400 331 400c47 0 88 -10 123 -29c52 6 80 37 80 71c0 12 -2 24 -7 37z" />
    <glyph glyph-name="uni1EDB" unicode="&#x1edb;" horiz-adv-x="538" 
d="M485 722l-149 -149h-104l116 149h137zM237 98c67 0 125 87 125 203c0 61 -24 97 -70 97c-66 0 -124 -87 -124 -203c0 -60 23 -97 69 -97zM469 594l102 32c9 -21 13 -41 13 -61c0 -58 -38 -107 -125 -127c26 -34 41 -80 41 -134c0 -192 -141 -316 -278 -316
c-116 0 -192 81 -192 204c0 192 141 316 278 316c35 0 67 -8 94 -22c45 8 74 37 74 71c0 12 -2 24 -7 37z" />
    <glyph glyph-name="uni1EDC" unicode="&#x1edc;" horiz-adv-x="660" 
d="M462 702h-104l-92 118h139zM309 106c93 0 184 122 184 273c0 104 -39 166 -111 166c-93 0 -185 -121 -185 -272c0 -104 40 -167 112 -167zM584 743l102 31c9 -20 13 -40 13 -60c0 -63 -47 -112 -128 -128c40 -47 62 -115 62 -198c0 -230 -154 -400 -331 -400
c-149 0 -245 102 -245 276c0 230 155 400 331 400c47 0 88 -10 123 -29c52 6 80 37 80 71c0 12 -2 24 -7 37z" />
    <glyph glyph-name="uni1EDD" unicode="&#x1edd;" horiz-adv-x="538" 
d="M388 573h-95l-88 149h126zM237 98c67 0 125 87 125 203c0 61 -24 97 -70 97c-66 0 -124 -87 -124 -203c0 -60 23 -97 69 -97zM469 594l102 32c9 -21 13 -41 13 -61c0 -58 -38 -107 -125 -127c26 -34 41 -80 41 -134c0 -192 -141 -316 -278 -316c-116 0 -192 81 -192 204
c0 192 141 316 278 316c35 0 67 -8 94 -22c45 8 74 37 74 71c0 12 -2 24 -7 37z" />
    <glyph glyph-name="uni1EDE" unicode="&#x1ede;" horiz-adv-x="660" 
d="M360 690l-4 55c30 7 52 15 52 37c0 18 -17 28 -69 31l29 70c105 -4 143 -35 143 -77c0 -73 -68 -106 -151 -116zM309 106c93 0 184 122 184 273c0 104 -39 166 -111 166c-93 0 -185 -121 -185 -272c0 -104 40 -167 112 -167zM584 743l102 31c9 -20 13 -40 13 -60
c0 -63 -47 -112 -128 -128c40 -47 62 -115 62 -198c0 -230 -154 -400 -331 -400c-149 0 -245 102 -245 276c0 230 155 400 331 400c47 0 88 -10 123 -29c52 6 80 37 80 71c0 12 -2 24 -7 37z" />
    <glyph glyph-name="uni1EDF" unicode="&#x1edf;" horiz-adv-x="538" 
d="M294 555l-5 56c31 7 53 15 53 37c0 18 -19 27 -71 31l27 68c107 -2 145 -33 145 -77c0 -73 -66 -105 -149 -115zM237 98c67 0 125 87 125 203c0 61 -24 97 -70 97c-66 0 -124 -87 -124 -203c0 -60 23 -97 69 -97zM469 594l102 32c9 -21 13 -41 13 -61
c0 -58 -38 -107 -125 -127c26 -34 41 -80 41 -134c0 -192 -141 -316 -278 -316c-116 0 -192 81 -192 204c0 192 141 316 278 316c35 0 67 -8 94 -22c45 8 74 37 74 71c0 12 -2 24 -7 37z" />
    <glyph glyph-name="uni1EE0" unicode="&#x1ee0;" horiz-adv-x="660" 
d="M511 831h71c-22 -84 -73 -130 -120 -130c-58 0 -74 47 -114 47c-16 0 -30 -14 -42 -45h-72c23 84 73 130 121 130c58 0 73 -47 113 -47c16 0 30 15 43 45zM309 106c93 0 184 122 184 273c0 104 -39 166 -111 166c-93 0 -185 -121 -185 -272c0 -104 40 -167 112 -167z
M584 743l102 31c9 -20 13 -40 13 -60c0 -63 -47 -112 -128 -128c40 -47 62 -115 62 -198c0 -230 -154 -400 -331 -400c-149 0 -245 102 -245 276c0 230 155 400 331 400c47 0 88 -10 123 -29c52 6 80 37 80 71c0 12 -2 24 -7 37z" />
    <glyph glyph-name="uni1EE1" unicode="&#x1ee1;" horiz-adv-x="538" 
d="M434 703h71c-23 -84 -70 -128 -117 -128c-61 0 -74 45 -115 45c-15 0 -27 -13 -40 -43h-71c23 85 70 128 117 128c60 0 74 -45 115 -45c15 0 27 13 40 43zM237 98c67 0 125 87 125 203c0 61 -24 97 -70 97c-66 0 -124 -87 -124 -203c0 -60 23 -97 69 -97zM469 594l102 32
c9 -21 13 -41 13 -61c0 -58 -38 -107 -125 -127c26 -34 41 -80 41 -134c0 -192 -141 -316 -278 -316c-116 0 -192 81 -192 204c0 192 141 316 278 316c35 0 67 -8 94 -22c45 8 74 37 74 71c0 12 -2 24 -7 37z" />
    <glyph glyph-name="uni1EE2" unicode="&#x1ee2;" horiz-adv-x="660" 
d="M267 -75c37 0 74 -23 74 -66c0 -47 -38 -81 -85 -81c-38 0 -74 22 -74 66s37 81 85 81zM309 106c93 0 184 122 184 273c0 104 -39 166 -111 166c-93 0 -185 -121 -185 -272c0 -104 40 -167 112 -167zM584 743l102 31c9 -20 13 -40 13 -60c0 -63 -47 -112 -128 -128
c40 -47 62 -115 62 -198c0 -230 -154 -400 -331 -400c-149 0 -245 102 -245 276c0 230 155 400 331 400c47 0 88 -10 123 -29c52 6 80 37 80 71c0 12 -2 24 -7 37z" />
    <glyph glyph-name="uni1EE3" unicode="&#x1ee3;" horiz-adv-x="538" 
d="M175 -75c37 0 74 -23 74 -66c0 -47 -38 -81 -85 -81c-38 0 -74 22 -74 66s37 81 85 81zM237 98c67 0 125 87 125 203c0 61 -24 97 -70 97c-66 0 -124 -87 -124 -203c0 -60 23 -97 69 -97zM469 594l102 32c9 -21 13 -41 13 -61c0 -58 -38 -107 -125 -127
c26 -34 41 -80 41 -134c0 -192 -141 -316 -278 -316c-116 0 -192 81 -192 204c0 192 141 316 278 316c35 0 67 -8 94 -22c45 8 74 37 74 71c0 12 -2 24 -7 37z" />
    <glyph glyph-name="uni1EE4" unicode="&#x1ee4;" horiz-adv-x="643" 
d="M88 320l67 332h137l-71 -357c-5 -27 -8 -52 -8 -76c0 -73 26 -113 99 -113c62 0 103 47 127 168l76 378h134l-76 -376c-40 -200 -126 -288 -265 -288c-154 0 -233 73 -233 227c0 29 7 71 13 105zM248 -222c-38 0 -74 22 -74 66s37 81 85 81c37 0 74 -23 74 -66
c0 -47 -38 -81 -85 -81z" />
    <glyph glyph-name="uni1EE5" unicode="&#x1ee5;" horiz-adv-x="545" 
d="M529 496l-98 -496h-111l2 67h-4c-45 -42 -102 -79 -162 -79c-82 0 -117 45 -117 128c0 22 3 45 8 70l62 310h136l-58 -293c-5 -20 -8 -34 -8 -47c0 -34 18 -51 50 -51c29 0 60 20 99 64l64 327h137zM213 -228c-37 0 -74 22 -74 66c0 43 38 81 86 81c37 0 74 -24 74 -66
c0 -47 -38 -81 -86 -81z" />
    <glyph glyph-name="uni1EE6" unicode="&#x1ee6;" horiz-adv-x="643" 
d="M88 320l67 332h137l-71 -357c-5 -27 -8 -52 -8 -76c0 -73 26 -113 99 -113c62 0 103 47 127 168l76 378h134l-76 -376c-40 -200 -126 -288 -265 -288c-154 0 -233 73 -233 227c0 29 7 71 13 105zM350 813l29 70c106 -4 144 -35 144 -77c0 -73 -69 -106 -151 -116l-5 55
c31 7 52 15 52 37c0 18 -17 28 -69 31z" />
    <glyph glyph-name="uni1EE7" unicode="&#x1ee7;" horiz-adv-x="545" 
d="M529 496l-98 -496h-111l2 67h-4c-45 -42 -102 -79 -162 -79c-82 0 -117 45 -117 128c0 22 3 45 8 70l62 310h136l-58 -293c-5 -20 -8 -34 -8 -47c0 -34 18 -51 50 -51c29 0 60 20 99 64l64 327h137zM285 679l27 68c107 -2 145 -33 145 -77c0 -73 -66 -105 -149 -115
l-5 56c31 7 53 15 53 37c0 18 -19 27 -71 31z" />
    <glyph glyph-name="uni1EE8" unicode="&#x1ee8;" horiz-adv-x="666" 
d="M580 820l-139 -118h-112l102 118h149zM666 759l101 32c10 -20 13 -40 13 -61c0 -60 -41 -111 -142 -132l-65 -322c-40 -200 -126 -288 -265 -288c-154 0 -233 73 -233 227c0 29 7 71 13 105l67 332h137l-71 -357c-5 -27 -8 -52 -8 -76c0 -73 26 -113 99 -113
c62 0 103 47 127 168l76 378h78c49 5 80 36 80 71c0 11 -3 24 -7 36z" />
    <glyph glyph-name="uni1EE9" unicode="&#x1ee9;" horiz-adv-x="567" 
d="M499 722l-149 -149h-104l116 149h137zM522 604l102 32c10 -21 13 -41 13 -61c0 -62 -45 -108 -118 -127l-88 -448h-111l2 67h-4c-45 -42 -102 -79 -162 -79c-82 0 -117 45 -117 128c0 22 3 45 8 70l62 310h136l-58 -293c-5 -20 -8 -34 -8 -47c0 -34 18 -51 50 -51
c29 0 60 20 99 64l64 327h60c48 6 78 37 78 71c0 12 -3 24 -8 37z" />
    <glyph glyph-name="uni1EEA" unicode="&#x1eea;" horiz-adv-x="666" 
d="M469 702h-104l-92 118h139zM666 759l101 32c10 -20 13 -40 13 -61c0 -60 -41 -111 -142 -132l-65 -322c-40 -200 -126 -288 -265 -288c-154 0 -233 73 -233 227c0 29 7 71 13 105l67 332h137l-71 -357c-5 -27 -8 -52 -8 -76c0 -73 26 -113 99 -113c62 0 103 47 127 168
l76 378h78c49 5 80 36 80 71c0 11 -3 24 -7 36z" />
    <glyph glyph-name="uni1EEB" unicode="&#x1eeb;" horiz-adv-x="567" 
d="M402 573h-95l-88 149h126zM522 604l102 32c10 -21 13 -41 13 -61c0 -62 -45 -108 -118 -127l-88 -448h-111l2 67h-4c-45 -42 -102 -79 -162 -79c-82 0 -117 45 -117 128c0 22 3 45 8 70l62 310h136l-58 -293c-5 -20 -8 -34 -8 -47c0 -34 18 -51 50 -51c29 0 60 20 99 64
l64 327h60c48 6 78 37 78 71c0 12 -3 24 -8 37z" />
    <glyph glyph-name="uni1EEC" unicode="&#x1eec;" horiz-adv-x="666" 
d="M367 690l-5 55c31 7 53 15 53 37c0 18 -17 28 -69 31l28 70c106 -4 144 -35 144 -77c0 -73 -68 -106 -151 -116zM666 759l101 32c10 -20 13 -40 13 -61c0 -60 -41 -111 -142 -132l-65 -322c-40 -200 -126 -288 -265 -288c-154 0 -233 73 -233 227c0 29 7 71 13 105
l67 332h137l-71 -357c-5 -27 -8 -52 -8 -76c0 -73 26 -113 99 -113c62 0 103 47 127 168l76 378h78c49 5 80 36 80 71c0 11 -3 24 -7 36z" />
    <glyph glyph-name="uni1EED" unicode="&#x1eed;" horiz-adv-x="567" 
d="M308 555l-5 56c31 7 53 15 53 37c0 18 -19 27 -71 31l27 68c107 -2 145 -33 145 -77c0 -73 -66 -105 -149 -115zM522 604l102 32c10 -21 13 -41 13 -61c0 -62 -45 -108 -118 -127l-88 -448h-111l2 67h-4c-45 -42 -102 -79 -162 -79c-82 0 -117 45 -117 128
c0 22 3 45 8 70l62 310h136l-58 -293c-5 -20 -8 -34 -8 -47c0 -34 18 -51 50 -51c29 0 60 20 99 64l64 327h60c48 6 78 37 78 71c0 12 -3 24 -8 37z" />
    <glyph glyph-name="uni1EEE" unicode="&#x1eee;" horiz-adv-x="666" 
d="M518 831h71c-22 -84 -73 -130 -120 -130c-58 0 -74 47 -114 47c-16 0 -30 -14 -42 -45h-72c23 84 73 130 121 130c58 0 73 -47 113 -47c16 0 30 15 43 45zM666 759l101 32c10 -20 13 -40 13 -61c0 -60 -41 -111 -142 -132l-65 -322c-40 -200 -126 -288 -265 -288
c-154 0 -233 73 -233 227c0 29 7 71 13 105l67 332h137l-71 -357c-5 -27 -8 -52 -8 -76c0 -73 26 -113 99 -113c62 0 103 47 127 168l76 378h78c49 5 80 36 80 71c0 11 -3 24 -7 36z" />
    <glyph glyph-name="uni1EEF" unicode="&#x1eef;" horiz-adv-x="567" 
d="M448 703h71c-23 -84 -70 -128 -117 -128c-61 0 -74 45 -115 45c-15 0 -27 -13 -40 -43h-71c23 85 70 128 117 128c60 0 74 -45 115 -45c15 0 27 13 40 43zM522 604l102 32c10 -21 13 -41 13 -61c0 -62 -45 -108 -118 -127l-88 -448h-111l2 67h-4
c-45 -42 -102 -79 -162 -79c-82 0 -117 45 -117 128c0 22 3 45 8 70l62 310h136l-58 -293c-5 -20 -8 -34 -8 -47c0 -34 18 -51 50 -51c29 0 60 20 99 64l64 327h60c48 6 78 37 78 71c0 12 -3 24 -8 37z" />
    <glyph glyph-name="uni1EF0" unicode="&#x1ef0;" horiz-adv-x="666" 
d="M260 -75c38 0 74 -23 74 -66c0 -47 -37 -81 -85 -81c-38 0 -74 22 -74 66s37 81 85 81zM666 759l101 32c10 -20 13 -40 13 -61c0 -60 -41 -111 -142 -132l-65 -322c-40 -200 -126 -288 -265 -288c-154 0 -233 73 -233 227c0 29 7 71 13 105l67 332h137l-71 -357
c-5 -27 -8 -52 -8 -76c0 -73 26 -113 99 -113c62 0 103 47 127 168l76 378h78c49 5 80 36 80 71c0 11 -3 24 -7 36z" />
    <glyph glyph-name="uni1EF1" unicode="&#x1ef1;" horiz-adv-x="567" 
d="M225 -81c37 0 74 -24 74 -66c0 -47 -38 -81 -86 -81c-37 0 -74 22 -74 66c0 43 38 81 86 81zM522 604l102 32c10 -21 13 -41 13 -61c0 -62 -45 -108 -118 -127l-88 -448h-111l2 67h-4c-45 -42 -102 -79 -162 -79c-82 0 -117 45 -117 128c0 22 3 45 8 70l62 310h136
l-58 -293c-5 -20 -8 -34 -8 -47c0 -34 18 -51 50 -51c29 0 60 20 99 64l64 327h60c48 6 78 37 78 71c0 12 -3 24 -8 37z" />
    <glyph glyph-name="Ygrave" unicode="&#x1ef2;" 
d="M138 0l46 236l-104 416h142l28 -157c9 -49 16 -92 25 -143h4c27 51 51 95 80 145l91 155h147l-276 -416l-47 -236h-136zM294 702l-93 118h140l56 -118h-103z" />
    <glyph glyph-name="ygrave" unicode="&#x1ef3;" horiz-adv-x="499" 
d="M7 -76c10 -6 24 -10 37 -10c36 0 72 28 94 72l12 25l-86 485h136l23 -224c5 -43 8 -102 9 -149h4c21 46 45 104 66 149l104 224h133l-268 -507c-69 -119 -133 -183 -235 -183c-18 0 -51 9 -71 20zM277 573l-88 149h126l57 -149h-95z" />
    <glyph glyph-name="uni1EF4" unicode="&#x1ef4;" 
d="M138 0l46 236l-104 416h142l28 -157c9 -49 16 -92 25 -143h4c27 51 51 95 80 145l91 155h147l-276 -416l-47 -236h-136zM171 -230c-38 0 -75 22 -75 66s38 81 86 81c37 0 74 -23 74 -66c0 -47 -38 -81 -85 -81z" />
    <glyph glyph-name="uni1EF5" unicode="&#x1ef5;" horiz-adv-x="499" 
d="M7 -76c10 -6 24 -10 37 -10c36 0 72 28 94 72l12 25l-86 485h136l23 -224c5 -43 8 -102 9 -149h4c21 46 45 104 66 149l104 224h133l-268 -507c-69 -119 -133 -183 -235 -183c-18 0 -51 9 -71 20zM329 -230c-37 0 -74 22 -74 66s38 81 85 81c38 0 74 -23 74 -66
c0 -47 -37 -81 -85 -81z" />
    <glyph glyph-name="uni1EF6" unicode="&#x1ef6;" 
d="M138 0l46 236l-104 416h142l28 -157c9 -49 16 -92 25 -143h4c27 51 51 95 80 145l91 155h147l-276 -416l-47 -236h-136zM274 813l29 70c106 -4 144 -35 144 -77c0 -73 -68 -106 -151 -116l-5 55c31 7 52 15 52 37c0 18 -17 28 -69 31z" />
    <glyph glyph-name="uni1EF7" unicode="&#x1ef7;" horiz-adv-x="499" 
d="M7 -76c10 -6 24 -10 37 -10c36 0 72 28 94 72l12 25l-86 485h136l23 -224c5 -43 8 -102 9 -149h4c21 46 45 104 66 149l104 224h133l-268 -507c-69 -119 -133 -183 -235 -183c-18 0 -51 9 -71 20zM254 679l28 68c107 -2 145 -33 145 -77c0 -73 -67 -105 -149 -115l-5 56
c31 7 52 15 52 37c0 18 -19 27 -71 31z" />
    <glyph glyph-name="uni1EF8" unicode="&#x1ef8;" 
d="M138 0l46 236l-104 416h142l28 -157c9 -49 16 -92 25 -143h4c27 51 51 95 80 145l91 155h147l-276 -416l-47 -236h-136zM241 703h-71c22 84 73 130 120 130c58 0 74 -47 114 -47c16 0 30 15 42 45h72c-23 -84 -73 -130 -121 -130c-58 0 -73 47 -113 47
c-16 0 -30 -14 -43 -45z" />
    <glyph glyph-name="uni1EF9" unicode="&#x1ef9;" horiz-adv-x="499" 
d="M7 -76c10 -6 24 -10 37 -10c36 0 72 28 94 72l12 25l-86 485h136l23 -224c5 -43 8 -102 9 -149h4c21 46 45 104 66 149l104 224h133l-268 -507c-69 -119 -133 -183 -235 -183c-18 0 -51 9 -71 20zM217 577h-72c24 85 71 128 118 128c60 0 74 -45 115 -45
c14 0 27 13 39 43h72c-24 -84 -71 -128 -118 -128c-60 0 -74 45 -115 45c-14 0 -26 -13 -39 -43z" />
    <glyph glyph-name="uni2007" unicode="&#x2007;" 
 />
    <glyph glyph-name="figuredash" unicode="&#x2012;" 
d="M34 208l18 89h422l-18 -89h-422z" />
    <glyph glyph-name="endash" unicode="&#x2013;" horiz-adv-x="464" 
d="M34 208l18 89h377l-18 -89h-377z" />
    <glyph glyph-name="emdash" unicode="&#x2014;" horiz-adv-x="771" 
d="M34 208l18 89h685l-18 -89h-685z" />
    <glyph glyph-name="uni2015" unicode="&#x2015;" horiz-adv-x="771" 
d="M34 208l18 89h685l-18 -89h-685z" />
    <glyph glyph-name="quoteleft" unicode="&#x2018;" horiz-adv-x="291" 
d="M269 677l22 -59c-73 -28 -113 -86 -114 -118h5c41 0 72 -23 72 -63c0 -43 -32 -82 -83 -82c-45 0 -74 35 -74 96c0 120 79 197 172 226z" />
    <glyph glyph-name="quoteright" unicode="&#x2019;" horiz-adv-x="291" 
d="M129 374l-22 60c74 28 114 85 115 118h-6c-41 0 -71 23 -71 63c0 43 32 82 83 82c45 0 74 -36 74 -97c0 -119 -80 -197 -173 -226z" />
    <glyph glyph-name="quotesinglbase" unicode="&#x201a;" horiz-adv-x="291" 
d="M24 -158l-22 59c73 28 113 86 114 118h-5c-41 0 -72 24 -72 63c0 43 32 83 83 83c45 0 74 -36 74 -97c0 -120 -79 -197 -172 -226z" />
    <glyph glyph-name="quotedblleft" unicode="&#x201c;" horiz-adv-x="510" 
d="M269 677l22 -59c-73 -28 -113 -86 -114 -118h5c41 0 72 -23 72 -63c0 -43 -32 -82 -83 -82c-45 0 -74 35 -74 96c0 120 79 197 172 226zM489 677l22 -59c-74 -28 -114 -86 -115 -118h6c41 0 71 -23 71 -63c0 -43 -32 -82 -83 -82c-45 0 -74 35 -74 96
c0 120 80 197 173 226z" />
    <glyph glyph-name="quotedblright" unicode="&#x201d;" horiz-adv-x="510" 
d="M129 374l-22 60c74 28 114 85 115 118h-6c-41 0 -71 23 -71 63c0 43 32 82 83 82c45 0 74 -36 74 -97c0 -119 -80 -197 -173 -226zM349 374l-22 60c73 28 113 85 114 118h-5c-41 0 -72 23 -72 63c0 43 32 82 83 82c45 0 74 -36 74 -97c0 -119 -80 -197 -172 -226z" />
    <glyph glyph-name="quotedblbase" unicode="&#x201e;" horiz-adv-x="405" 
d="M24 -158l-22 59c73 28 113 86 114 118h-5c-41 0 -72 24 -72 63c0 43 32 83 83 83c45 0 74 -36 74 -97c0 -120 -79 -197 -172 -226zM243 -158l-22 59c73 28 114 86 115 118h-6c-41 0 -72 24 -72 63c0 43 33 83 84 83c44 0 73 -36 73 -97c0 -120 -79 -197 -172 -226z" />
    <glyph glyph-name="dagger" unicode="&#x2020;" horiz-adv-x="488" 
d="M122 -80l115 527l-156 -9l23 111l150 -8l26 171h111l-43 -171l155 8l-21 -111l-152 9l-97 -527h-111z" />
    <glyph glyph-name="daggerdbl" unicode="&#x2021;" horiz-adv-x="488" 
d="M11 81l21 111l151 -10l18 134l36 134l-156 -12l21 111l152 -8l26 171h109l-41 -171l155 8l-21 -111l-152 12l-19 -134l-34 -134l155 10l-22 -111l-152 9l-25 -170h-110l41 170z" />
    <glyph glyph-name="bullet" unicode="&#x2022;" horiz-adv-x="330" 
d="M154 127c-66 0 -115 50 -115 120c0 73 55 151 139 151c65 0 115 -50 115 -120c0 -73 -55 -151 -139 -151z" />
    <glyph glyph-name="ellipsis" unicode="&#x2026;" horiz-adv-x="976" 
d="M140 -12c-43 0 -71 30 -71 74c0 49 40 101 98 101c43 0 71 -32 71 -75c0 -50 -40 -100 -98 -100zM460 -12c-43 0 -71 30 -71 74c0 49 40 101 98 101c43 0 70 -32 70 -75c0 -50 -39 -100 -97 -100zM779 -12c-43 0 -71 30 -71 74c0 49 40 101 98 101c43 0 71 -32 71 -75
c0 -50 -40 -100 -98 -100z" />
    <glyph glyph-name="perthousand" unicode="&#x2030;" horiz-adv-x="1202" 
d="M221 -12h-79l473 684h80zM191 258c-77 0 -138 63 -138 159c0 140 76 257 192 257c78 0 138 -63 138 -160c0 -140 -76 -256 -192 -256zM237 592c-50 0 -87 -75 -87 -172c0 -49 16 -80 50 -80c50 0 86 74 86 172c0 49 -15 80 -49 80zM602 -12c-78 0 -138 63 -138 159
c0 140 76 257 192 257c77 0 138 -63 138 -160c0 -140 -76 -256 -192 -256zM647 322c-50 0 -86 -75 -86 -172c0 -49 15 -80 49 -80c50 0 87 74 87 172c0 49 -16 80 -50 80zM974 -12c-77 0 -138 63 -138 159c0 140 76 257 192 257c78 0 138 -63 138 -160
c0 -140 -76 -256 -192 -256zM1020 322c-50 0 -87 -75 -87 -172c0 -49 16 -80 50 -80c50 0 86 74 86 172c0 49 -15 80 -49 80z" />
    <glyph glyph-name="uni2032" unicode="&#x2032;" horiz-adv-x="291" 
d="M95 355l88 331h135l-48 -138l-86 -193h-89z" />
    <glyph glyph-name="uni2033" unicode="&#x2033;" horiz-adv-x="511" 
d="M95 355l88 331h135l-48 -138l-86 -193h-89zM314 355l89 331h134l-48 -138l-86 -193h-89z" />
    <glyph glyph-name="guilsinglleft" unicode="&#x2039;" horiz-adv-x="272" 
d="M144 58l-104 149l18 98l153 139l42 -45l-133 -152l78 -154z" />
    <glyph glyph-name="guilsinglright" unicode="&#x203a;" horiz-adv-x="272" 
d="M136 444l104 -149l-18 -98l-153 -139l-42 45l133 152l-79 154z" />
    <glyph glyph-name="fraction" unicode="&#x2044;" horiz-adv-x="94" 
d="M-135 -12h-80l474 684h80z" />
    <glyph glyph-name="zero.sups" unicode="&#x2070;" horiz-adv-x="377" 
d="M231 428c-77 0 -138 63 -138 159c0 140 76 257 192 257c78 0 138 -63 138 -160c0 -140 -76 -256 -192 -256zM277 762c-50 0 -87 -75 -87 -172c0 -49 16 -80 50 -80c50 0 86 74 86 172c0 49 -15 80 -49 80z" />
    <glyph glyph-name="i.sups" unicode="&#x2071;" horiz-adv-x="180" 
d="M43 262l65 329h97l-65 -329h-97zM173 637c-27 0 -52 15 -52 46c0 29 27 54 59 54c27 0 52 -15 52 -45c0 -29 -27 -55 -59 -55z" />
    <glyph glyph-name="four.sups" unicode="&#x2074;" horiz-adv-x="364" 
d="M180 596h93l10 48l27 120h-4l-60 -86zM416 596l-14 -67h-56l-18 -89h-86l18 89h-184l10 52l195 249h124l-46 -234h57z" />
    <glyph glyph-name="five.sups" unicode="&#x2075;" horiz-adv-x="360" 
d="M79 508l65 47c18 -30 41 -47 74 -47c35 0 65 27 65 63c0 33 -21 51 -51 51c-18 0 -37 -6 -58 -19l-36 33l54 194h225l-16 -85h-146l-18 -61c13 6 28 7 36 7c63 0 109 -44 109 -114c0 -86 -74 -149 -159 -149c-69 0 -116 33 -144 80z" />
    <glyph glyph-name="six.sups" unicode="&#x2076;" horiz-adv-x="361" 
d="M242 508c25 0 52 27 52 67c0 27 -16 43 -43 43c-19 0 -41 -10 -59 -29v-7c0 -55 22 -74 50 -74zM421 794l-54 -61c-20 19 -37 29 -67 29c-50 0 -87 -36 -101 -107c20 17 49 31 79 31c66 0 106 -42 106 -107c0 -87 -71 -151 -151 -151c-81 0 -134 67 -134 156
c0 169 101 258 210 258c47 0 83 -17 112 -48z" />
    <glyph glyph-name="seven.sups" unicode="&#x2077;" horiz-adv-x="364" 
d="M142 440c31 121 81 210 168 305h-168l16 85h280l-8 -54c-112 -110 -151 -207 -180 -336h-108z" />
    <glyph glyph-name="eight.sups" unicode="&#x2078;" horiz-adv-x="362" 
d="M182 543c0 -25 20 -47 47 -47c33 0 57 21 57 52s-26 43 -56 61c-31 -16 -48 -40 -48 -66zM276 674c24 21 37 40 37 60c0 25 -17 38 -38 38c-25 0 -45 -16 -45 -44c0 -24 20 -41 46 -54zM88 533c0 53 45 94 90 116l2 4c-22 20 -37 44 -37 76c0 67 65 113 139 113
c71 0 118 -40 118 -99c0 -48 -31 -84 -71 -105v-4c28 -20 48 -48 48 -86c0 -69 -70 -120 -155 -120c-82 0 -134 45 -134 105z" />
    <glyph glyph-name="nine.sups" unicode="&#x2079;" horiz-adv-x="362" 
d="M250 652c20 0 41 9 59 28v8c0 55 -21 74 -49 74c-26 0 -52 -27 -52 -67c0 -27 15 -43 42 -43zM81 476l54 61c19 -19 37 -29 67 -29c50 0 86 36 100 106c-20 -17 -49 -30 -78 -30c-66 0 -106 42 -106 107c0 87 71 151 150 151c82 0 135 -67 135 -156
c0 -169 -102 -258 -210 -258c-47 0 -84 17 -112 48z" />
    <glyph glyph-name="parenleft.sups" unicode="&#x207d;" horiz-adv-x="255" 
d="M274 917l67 -30c-84 -113 -126 -214 -126 -335c0 -54 8 -121 26 -170l-76 -30c-26 58 -45 126 -45 199c0 144 46 236 154 366z" />
    <glyph glyph-name="parenright.sups" unicode="&#x207e;" horiz-adv-x="253" 
d="M121 352l-67 30c84 113 125 214 125 335c0 54 -8 121 -25 170l76 30c26 -58 44 -126 44 -199c0 -144 -45 -236 -153 -366z" />
    <glyph glyph-name="n.sups" unicode="&#x207f;" horiz-adv-x="370" 
d="M43 262l65 329h78l-1 -45h4c32 29 68 53 111 53c55 0 80 -32 80 -87c0 -15 -4 -31 -6 -45l-41 -205h-97l38 192c4 13 5 23 5 30c0 22 -11 33 -30 33c-21 0 -41 -13 -67 -42l-42 -213h-97z" />
    <glyph glyph-name="zero.subs" unicode="&#x2080;" horiz-adv-x="377" 
d="M111 -182c-77 0 -138 63 -138 159c0 140 76 257 192 257c78 0 138 -63 138 -160c0 -140 -76 -256 -192 -256zM157 152c-50 0 -87 -75 -87 -172c0 -49 16 -80 50 -80c50 0 86 74 86 172c0 49 -15 80 -49 80z" />
    <glyph glyph-name="one.subs" unicode="&#x2081;" horiz-adv-x="376" 
d="M79 -170l58 285h-87l12 62c55 8 81 20 117 43h78l-76 -390h-102z" />
    <glyph glyph-name="two.subs" unicode="&#x2082;" horiz-adv-x="364" 
d="M-44 -170l11 55c139 91 209 158 209 216c0 26 -16 44 -49 44c-21 0 -40 -15 -61 -36l-56 59c45 41 82 64 136 64c80 0 130 -43 130 -113c0 -72 -56 -133 -144 -204h118l-17 -85h-277z" />
    <glyph glyph-name="three.subs" unicode="&#x2083;" horiz-adv-x="360" 
d="M-41 -102l65 47c18 -30 41 -47 73 -47c39 0 63 19 63 49c0 31 -18 52 -86 52l13 61c75 0 93 29 93 57c0 22 -17 37 -44 37c-23 0 -39 -6 -66 -25l-42 66c46 28 84 37 131 37c71 0 121 -39 121 -97c0 -50 -25 -86 -80 -107c37 -19 58 -51 58 -85c0 -79 -69 -125 -152 -125
c-72 0 -119 33 -147 80z" />
    <glyph glyph-name="four.subs" unicode="&#x2084;" horiz-adv-x="364" 
d="M60 -14h93l10 48l27 120h-4l-60 -86zM296 -14l-14 -67h-56l-18 -89h-86l18 89h-184l10 52l195 249h124l-46 -234h57z" />
    <glyph glyph-name="five.subs" unicode="&#x2085;" horiz-adv-x="360" 
d="M-41 -102l65 47c18 -30 41 -47 74 -47c35 0 65 27 65 63c0 33 -21 51 -51 51c-18 0 -37 -6 -58 -19l-36 33l54 194h225l-16 -85h-146l-18 -61c13 6 28 7 36 7c63 0 109 -44 109 -114c0 -86 -74 -149 -159 -149c-69 0 -116 33 -144 80z" />
    <glyph glyph-name="six.subs" unicode="&#x2086;" horiz-adv-x="361" 
d="M122 -102c25 0 52 27 52 67c0 27 -16 43 -43 43c-19 0 -41 -10 -59 -29v-7c0 -55 22 -74 50 -74zM301 184l-54 -61c-20 19 -37 29 -67 29c-50 0 -87 -36 -101 -107c20 17 49 31 79 31c66 0 106 -42 106 -107c0 -87 -71 -151 -151 -151c-81 0 -134 67 -134 156
c0 169 101 258 210 258c47 0 83 -17 112 -48z" />
    <glyph glyph-name="seven.subs" unicode="&#x2087;" horiz-adv-x="364" 
d="M22 -170c31 121 81 210 168 305h-168l16 85h280l-8 -54c-112 -110 -151 -207 -180 -336h-108z" />
    <glyph glyph-name="eight.subs" unicode="&#x2088;" horiz-adv-x="362" 
d="M62 -67c0 -25 20 -47 47 -47c33 0 57 21 57 52s-26 43 -56 61c-31 -16 -48 -40 -48 -66zM156 64c24 21 37 40 37 60c0 25 -17 38 -38 38c-25 0 -45 -16 -45 -44c0 -24 20 -41 46 -54zM-32 -77c0 53 45 94 90 116l2 4c-22 20 -37 44 -37 76c0 67 65 113 139 113
c71 0 118 -40 118 -99c0 -48 -31 -84 -71 -105v-4c28 -20 48 -48 48 -86c0 -69 -70 -120 -155 -120c-82 0 -134 45 -134 105z" />
    <glyph glyph-name="nine.subs" unicode="&#x2089;" horiz-adv-x="362" 
d="M130 42c20 0 41 9 59 28v8c0 55 -21 74 -49 74c-26 0 -52 -27 -52 -67c0 -27 15 -43 42 -43zM-39 -134l54 61c19 -19 37 -29 67 -29c50 0 86 36 100 106c-20 -17 -49 -30 -78 -30c-66 0 -106 42 -106 107c0 87 71 151 150 151c82 0 135 -67 135 -156
c0 -169 -102 -258 -210 -258c-47 0 -84 17 -112 48z" />
    <glyph glyph-name="parenleft.subs" unicode="&#x208d;" horiz-adv-x="255" 
d="M154 307l67 -30c-84 -113 -126 -214 -126 -335c0 -54 8 -121 26 -170l-76 -30c-26 58 -45 126 -45 199c0 144 46 236 154 366z" />
    <glyph glyph-name="parenright.subs" unicode="&#x208e;" horiz-adv-x="253" 
d="M1 -258l-67 30c84 113 125 214 125 335c0 54 -8 121 -25 170l76 30c26 -58 44 -126 44 -199c0 -144 -45 -236 -153 -366z" />
    <glyph glyph-name="uni0259.sups" unicode="&#x2094;" horiz-adv-x="330" 
d="M347 457c0 -121 -97 -203 -185 -203c-80 0 -110 56 -110 123c0 31 11 64 16 75h188c0 55 -25 74 -63 74c-21 0 -37 -8 -61 -19l-28 61c38 19 77 30 116 30c75 0 127 -48 127 -141zM248 394h-115c-1 -9 -3 -13 -3 -22c0 -25 11 -46 43 -46c30 0 61 21 75 68z" />
    <glyph glyph-name="colonmonetary" unicode="&#x20a1;" 
d="M364 545l-132 -425c10 -9 21 -15 34 -18l137 436c-11 5 -24 7 -39 7zM200 170l114 364c-78 -35 -126 -152 -126 -286c0 -30 4 -56 12 -78zM557 538l-94 -62c-7 13 -15 24 -22 33l-128 -409c29 5 56 23 82 46l64 -81c-64 -52 -125 -74 -181 -77l-31 -98h-47l31 100
c-13 2 -25 5 -37 9l-34 -109h-48l40 128c-61 39 -96 115 -96 220c0 237 133 400 295 416l31 99h47l-31 -99c14 -1 27 -4 39 -8l33 107h47l-39 -126c33 -21 58 -53 79 -89z" />
    <glyph glyph-name="lira" unicode="&#x20a4;" 
d="M535 570l-88 -72c-22 30 -43 47 -76 47c-53 0 -98 -41 -101 -131h154l-15 -71h-135c2 -15 3 -30 3 -43v-9h120l-14 -70h-115c-9 -37 -27 -69 -55 -102l-1 -4h235l-20 -115h-429l17 84c65 28 110 76 129 137h-101l15 65l79 5h16c0 16 -2 34 -4 52h-81l15 65l60 5v9
c0 140 104 233 235 233c70 0 120 -33 157 -85z" />
    <glyph glyph-name="uni20A6" unicode="&#x20a6;" 
d="M349 295l5 50h-45l4 -50h36zM331 107l13 133h-27l10 -133h4zM219 345h-37l-5 -50h46zM204 535h-3l-14 -135h28zM517 345h-66l-10 -50h67l-11 -55h-67l-48 -240h-125l-29 240h-58l-47 -240h-102l48 240h-68l11 49l68 6l10 50h-67l9 49l69 6l48 243h127l28 -243h57l47 243
h102l-48 -243h68z" />
    <glyph glyph-name="peseta" unicode="&#x20a7;" 
d="M205 313h24c56 0 97 30 116 81h-124zM278 556h-24l-16 -77h120c-3 52 -30 77 -80 77zM540 479l-16 -85h-52c-35 -114 -141 -166 -252 -166h-33l-45 -228h-129l79 394h-61l15 80l63 4l33 165h161c104 0 182 -46 182 -161v-3h55z" />
    <glyph glyph-name="dong" unicode="&#x20ab;" 
d="M26 0l14 69h380l-14 -69h-380zM311 244l23 116c-15 20 -32 30 -55 30c-41 0 -94 -43 -94 -119c0 -42 18 -65 50 -65c26 0 49 11 76 38zM568 618l-13 -64l-71 -6l-86 -424h-93v39h-2c-31 -29 -73 -49 -113 -49c-77 0 -122 53 -122 140c0 142 112 228 202 228
c43 0 63 -15 83 -40l12 69l7 37h-137l14 70h137l11 56h112l-11 -56h70z" />
    <glyph glyph-name="Euro" unicode="&#x20ac;" 
d="M375 224h-159c5 -81 40 -126 100 -126c33 0 64 20 92 48l64 -81c-64 -56 -127 -77 -184 -77c-126 0 -204 84 -210 236h-62l14 65l50 4c2 19 4 37 8 55h-47l14 65l51 4c51 147 164 238 292 238c74 0 118 -41 151 -97l-98 -65c-16 33 -35 52 -67 52
c-64 0 -113 -51 -141 -126h209l-14 -71h-214c-3 -17 -6 -35 -7 -54h172z" />
    <glyph glyph-name="uni20B1" unicode="&#x20b1;" 
d="M224 407h127c4 15 6 31 7 49h-124zM203 305h25c41 0 75 17 97 47h-112zM278 556h-24l-9 -45h107c-11 32 -36 45 -74 45zM536 456h-52c-1 -17 -3 -34 -7 -49h48l-11 -55h-57c-45 -92 -141 -134 -239 -134h-32l-44 -218h-129l71 352h-61l11 49l60 5l10 50h-60l11 50l60 4
l27 133h161c94 0 167 -36 180 -132h64z" />
    <glyph glyph-name="uni20B2" unicode="&#x20b2;" 
d="M283 245l22 112h189l-58 -292c-37 -33 -87 -65 -148 -74l-20 -101h-91l20 104c-98 22 -156 108 -156 244c0 226 128 384 288 412l20 103h90l-19 -102c51 -12 86 -47 112 -93l-98 -65c-16 33 -35 52 -67 52c-115 0 -189 -136 -189 -297c0 -94 34 -150 96 -150
c19 0 38 7 51 18l27 129h-69z" />
    <glyph glyph-name="uni20B5" unicode="&#x20b5;" 
d="M244 112l86 428c-86 -25 -137 -149 -137 -292c0 -67 17 -114 51 -136zM387 146l64 -81c-54 -46 -106 -69 -155 -75l-20 -100h-76l20 102c-103 19 -164 106 -164 246c0 238 133 401 296 416l18 89h76l-19 -95c52 -15 86 -54 114 -102l-95 -62c-12 24 -25 41 -42 51
l-86 -434c25 7 48 24 69 45z" />
    <glyph glyph-name="uni20B9" unicode="&#x20b9;" 
d="M523 643l-15 -70h-126c24 -22 38 -57 39 -97h69l-14 -70h-63c-18 -74 -68 -126 -132 -157l97 -249h-144l-74 217c-12 -1 -23 -1 -35 -1h-65l21 108h51c72 0 125 30 146 82h-180l12 64l73 6h103c-8 43 -44 57 -102 57h-61l22 110h378z" />
    <glyph glyph-name="uni20BA" unicode="&#x20ba;" 
d="M243 114c92 10 161 71 165 168l117 27c2 -245 -213 -325 -445 -321l54 268l-83 -32l16 75l83 33l11 59l-82 -33l16 76l82 32l33 170h137l-25 -126l157 62l-16 -76l-157 -62l-11 -58l156 61l-15 -75l-157 -62z" />
    <glyph glyph-name="uni2113" unicode="&#x2113;" horiz-adv-x="450" 
d="M289 499l-28 -138c87 77 126 150 126 214c0 29 -9 45 -26 45c-25 0 -55 -33 -72 -121zM233 225l-4 -22c-15 -74 13 -102 54 -102c40 0 75 24 102 45l35 -85c-52 -37 -111 -73 -178 -73c-88 0 -156 50 -156 148c-17 -9 -35 -19 -53 -28l-33 85c38 19 72 38 104 57l46 230
c33 166 124 240 225 240c78 0 124 -51 124 -131c0 -110 -64 -229 -266 -364z" />
    <glyph glyph-name="uni2117" unicode="&#x2117;" horiz-adv-x="672" 
d="M182 139l72 364h137c80 0 141 -29 141 -104c0 -113 -95 -166 -196 -166h-38l-18 -94h-98zM312 304h31c63 0 92 30 92 78c0 32 -24 47 -65 47h-32zM298 -9c-156 0 -268 117 -268 278c0 211 155 386 374 386c156 0 268 -117 268 -277c0 -211 -155 -387 -374 -387zM399 595
c-174 0 -305 -148 -305 -320c0 -122 72 -223 209 -223c174 0 305 147 305 320c0 121 -72 223 -209 223z" />
    <glyph glyph-name="uni2120" unicode="&#x2120;" horiz-adv-x="642" 
d="M34 407l58 47c19 -22 42 -35 64 -35c27 0 42 11 42 27c0 14 -12 23 -29 32l-37 20c-24 13 -44 40 -44 79c0 60 55 108 128 108c43 0 74 -21 100 -45l-52 -53c-17 18 -36 31 -55 31c-25 0 -38 -15 -38 -28s13 -22 30 -30l34 -19c27 -14 49 -39 49 -79
c0 -57 -57 -112 -133 -112c-48 0 -83 14 -117 57zM316 362l60 314h102l20 -94l8 -72h4l31 72l59 94h103l-61 -314h-87l21 102l40 124h-4l-103 -180h-44l-34 180h-4l-6 -124l-21 -102h-84z" />
    <glyph glyph-name="trademark" unicode="&#x2122;" horiz-adv-x="652" 
d="M326 362l60 314h102l20 -94l8 -72h4l31 72l59 94h103l-61 -314h-87l21 102l40 124h-4l-103 -180h-44l-34 180h-4l-6 -124l-21 -102h-84zM112 362l46 234h-86l16 80h258l-16 -80h-83l-46 -234h-89z" />
    <glyph glyph-name="uni2126" unicode="&#x2126;" horiz-adv-x="697" 
d="M-8 0l21 110h112v4c-26 35 -55 104 -55 186c0 214 154 364 357 364c150 0 244 -91 244 -238c0 -153 -90 -257 -154 -312v-4h110l-21 -110h-264l18 89c106 81 167 188 167 312c0 87 -46 144 -122 144c-114 0 -199 -108 -199 -265c0 -79 25 -147 65 -191l-17 -89h-262z" />
    <glyph glyph-name="estimated" unicode="&#x212e;" horiz-adv-x="800" 
d="M204 108c54 -62 132 -100 218 -100c90 0 172 44 228 112h52c-66 -80 -168 -132 -282 -132c-196 0 -354 150 -354 336s158 336 354 336s354 -150 354 -336v-8h-574c-2 0 -4 -2 -4 -4v-184c0 -8 4 -14 8 -20zM200 334h440c4 0 6 2 6 6v184c0 8 -4 16 -10 22
c-56 58 -132 94 -214 94c-86 0 -162 -38 -218 -98c-4 -6 -8 -14 -8 -22v-180c0 -4 2 -6 4 -6z" />
    <glyph glyph-name="onethird" unicode="&#x2153;" horiz-adv-x="811" 
d="M131 270l57 285h-87l13 62c54 8 80 20 117 43h78l-77 -390h-101zM189 -12h-79l474 684h79zM448 68l64 47c19 -30 42 -47 74 -47c38 0 63 19 63 49c0 31 -18 52 -86 52l13 61c74 0 92 29 92 57c0 22 -16 37 -43 37c-23 0 -39 -6 -66 -25l-42 66c45 28 83 37 131 37
c71 0 121 -39 121 -97c0 -50 -25 -86 -80 -107c37 -19 57 -51 57 -85c0 -79 -68 -125 -151 -125c-72 0 -119 33 -147 80z" />
    <glyph glyph-name="twothirds" unicode="&#x2154;" horiz-adv-x="823" 
d="M44 270l11 55c139 91 209 158 209 216c0 26 -16 44 -48 44c-21 0 -40 -15 -62 -36l-56 59c45 41 82 64 136 64c80 0 130 -43 130 -113c0 -72 -56 -133 -143 -204h117l-17 -85h-277zM239 -12h-79l474 684h79zM459 68l65 47c19 -30 42 -47 74 -47c38 0 63 19 63 49
c0 31 -18 52 -86 52l12 61c75 0 93 29 93 57c0 22 -16 37 -43 37c-24 0 -40 -6 -66 -25l-42 66c45 28 83 37 131 37c70 0 121 -39 121 -97c0 -50 -26 -86 -81 -107c37 -19 58 -51 58 -85c0 -79 -68 -125 -152 -125c-71 0 -118 33 -147 80z" />
    <glyph glyph-name="oneeighth" unicode="&#x215b;" horiz-adv-x="811" 
d="M131 270l57 285h-87l13 62c54 8 80 20 117 43h78l-77 -390h-101zM197 -12h-79l474 684h79zM549 103c0 -25 20 -47 47 -47c33 0 57 21 57 52s-26 43 -56 61c-31 -16 -48 -40 -48 -66zM643 234c24 21 37 40 37 60c0 25 -17 38 -38 38c-25 0 -45 -16 -45 -44
c0 -24 20 -41 46 -54zM455 93c0 53 45 94 90 116l2 4c-22 20 -37 44 -37 76c0 67 65 113 139 113c71 0 118 -40 118 -99c0 -48 -31 -84 -71 -105v-4c28 -20 48 -48 48 -86c0 -69 -70 -120 -155 -120c-82 0 -134 45 -134 105z" />
    <glyph glyph-name="threeeighths" unicode="&#x215c;" horiz-adv-x="815" 
d="M31 338l64 47c19 -30 42 -47 74 -47c38 0 63 19 63 49c0 31 -18 52 -86 52l13 61c75 0 92 29 92 57c0 22 -16 37 -43 37c-23 0 -39 -6 -66 -25l-42 66c45 28 83 37 131 37c71 0 121 -39 121 -97c0 -50 -25 -86 -80 -107c37 -19 57 -51 57 -85c0 -79 -68 -125 -151 -125
c-72 0 -119 33 -147 80zM223 -12h-80l474 684h80zM553 103c0 -25 20 -47 46 -47c34 0 58 21 58 52s-26 43 -57 61c-30 -16 -47 -40 -47 -66zM647 234c23 21 37 40 37 60c0 25 -17 38 -38 38c-25 0 -45 -16 -45 -44c0 -24 19 -41 46 -54zM459 93c0 53 45 94 90 116l1 4
c-22 20 -37 44 -37 76c0 67 66 113 140 113c71 0 118 -40 118 -99c0 -48 -31 -84 -72 -105v-4c28 -20 49 -48 49 -86c0 -69 -70 -120 -156 -120c-82 0 -133 45 -133 105z" />
    <glyph glyph-name="fiveeighths" unicode="&#x215d;" horiz-adv-x="815" 
d="M39 338l65 47c18 -30 41 -47 74 -47c35 0 65 27 65 63c0 33 -21 51 -51 51c-18 0 -37 -6 -58 -19l-36 33l54 194h225l-16 -85h-146l-18 -61c13 6 28 7 36 7c63 0 109 -44 109 -114c0 -86 -74 -149 -159 -149c-69 0 -116 33 -144 80zM223 -12h-80l474 684h80zM553 103
c0 -25 20 -47 46 -47c34 0 58 21 58 52s-26 43 -57 61c-30 -16 -47 -40 -47 -66zM647 234c23 21 37 40 37 60c0 25 -17 38 -38 38c-25 0 -45 -16 -45 -44c0 -24 19 -41 46 -54zM459 93c0 53 45 94 90 116l1 4c-22 20 -37 44 -37 76c0 67 66 113 140 113
c71 0 118 -40 118 -99c0 -48 -31 -84 -72 -105v-4c28 -20 49 -48 49 -86c0 -69 -70 -120 -156 -120c-82 0 -133 45 -133 105z" />
    <glyph glyph-name="seveneighths" unicode="&#x215e;" horiz-adv-x="803" 
d="M91 270c30 121 80 210 167 305h-168l16 85h281l-9 -54c-112 -110 -150 -207 -180 -336h-107zM181 -12h-79l473 684h80zM541 103c0 -25 20 -47 46 -47c34 0 58 21 58 52s-26 43 -57 61c-30 -16 -47 -40 -47 -66zM635 234c24 21 37 40 37 60c0 25 -17 38 -38 38
c-25 0 -45 -16 -45 -44c0 -24 20 -41 46 -54zM447 93c0 53 45 94 90 116l2 4c-22 20 -37 44 -37 76c0 67 65 113 139 113c71 0 118 -40 118 -99c0 -48 -31 -84 -72 -105v-4c28 -20 49 -48 49 -86c0 -69 -70 -120 -156 -120c-81 0 -133 45 -133 105z" />
    <glyph glyph-name="uni2190" unicode="&#x2190;" horiz-adv-x="592" 
d="M18 249v4l266 267l64 -72l-148 -142h375v-110h-375l148 -142l-64 -72z" />
    <glyph glyph-name="arrowup" unicode="&#x2191;" horiz-adv-x="592" 
d="M294 529h4l267 -266l-72 -64l-142 148v-375h-110v375l-142 -148l-72 64z" />
    <glyph glyph-name="uni2192" unicode="&#x2192;" horiz-adv-x="591" 
d="M575 253v-4l-267 -267l-64 72l148 142h-374v110h374l-148 142l64 72z" />
    <glyph glyph-name="arrowdown" unicode="&#x2193;" horiz-adv-x="592" 
d="M298 -28h-4l-267 267l72 64l142 -148v374h110v-374l142 148l72 -64z" />
    <glyph glyph-name="partialdiff" unicode="&#x2202;" horiz-adv-x="563" 
d="M222 100c58 0 107 60 140 137c-16 38 -44 73 -95 73c-70 0 -112 -74 -112 -140c0 -35 22 -70 67 -70zM229 530l-56 83c49 34 101 56 160 56c129 0 202 -83 202 -219c0 -213 -132 -460 -335 -460c-91 0 -171 61 -171 164c0 123 92 262 233 262c58 0 103 -28 131 -78
c8 36 12 71 12 103c0 71 -29 120 -91 120c-30 0 -62 -14 -85 -31z" />
    <glyph glyph-name="uni2206" unicode="&#x2206;" horiz-adv-x="613" 
d="M-8 0l15 82l302 570h165l71 -570l-16 -82h-537zM282 353l-123 -238h240l-21 238c-3 64 -7 125 -8 194h-4c-28 -67 -54 -129 -84 -194z" />
    <glyph glyph-name="product" unicode="&#x220f;" horiz-adv-x="681" 
d="M4 -120l150 755h524l-149 -755h-137l127 635h-252l-127 -635h-136z" />
    <glyph glyph-name="summation" unicode="&#x2211;" horiz-adv-x="512" 
d="M-34 -40l266 310l-135 283l16 82h443l-22 -115h-278v-4l111 -257l-219 -260v-4h304l-24 -115h-477z" />
    <glyph glyph-name="minus" unicode="&#x2212;" 
d="M485 282h-437v97h437v-97z" />
    <glyph glyph-name="uni2215" unicode="&#x2215;" horiz-adv-x="94" 
d="M-135 -12h-80l474 684h80z" />
    <glyph glyph-name="uni2219" unicode="&#x2219;" horiz-adv-x="289" 
d="M146 239c-42 0 -71 31 -71 75c0 48 40 100 98 100c43 0 71 -32 71 -75c0 -50 -39 -100 -98 -100z" />
    <glyph glyph-name="radical" unicode="&#x221a;" horiz-adv-x="565" 
d="M264 131l6 -79h4l28 79l289 689h91l-387 -903h-94l-61 414l-80 -31l-8 66l178 68z" />
    <glyph glyph-name="infinity" unicode="&#x221e;" horiz-adv-x="781" 
d="M207 142c-100 0 -164 81 -164 185c0 107 68 191 172 191c80 0 132 -47 168 -94h4c48 67 102 109 176 109c106 0 190 -78 190 -203c0 -122 -85 -211 -190 -211c-80 0 -139 36 -198 117h-4c-33 -44 -86 -94 -154 -94zM428 346c41 -58 80 -102 136 -102c54 0 88 44 88 98
c0 55 -38 92 -94 92c-45 0 -90 -31 -130 -88zM218 242c41 0 74 30 101 72c-28 44 -66 79 -104 79c-47 0 -71 -32 -71 -74c0 -41 28 -77 74 -77z" />
    <glyph glyph-name="integral" unicode="&#x222b;" horiz-adv-x="374" 
d="M-4 -52c8 -2 20 -4 34 -4c50 0 69 42 88 139c31 153 24 301 55 463c27 140 75 245 219 245c24 0 48 -3 60 -7l-26 -100c-9 2 -23 4 -40 4c-50 0 -71 -44 -90 -139c-29 -152 -24 -301 -55 -463c-27 -141 -76 -244 -219 -244c-21 0 -41 2 -54 8z" />
    <glyph glyph-name="approxequal" unicode="&#x2248;" 
d="M108 383l-70 47c43 75 96 102 143 102c76 0 114 -77 166 -77c27 0 49 18 68 56l70 -47c-43 -75 -95 -102 -143 -102c-75 0 -113 77 -166 77c-26 0 -49 -18 -68 -56zM108 151l-70 46c43 75 96 103 143 103c76 0 114 -77 166 -77c27 0 49 18 68 55l70 -46
c-43 -75 -95 -103 -143 -103c-75 0 -113 77 -166 77c-26 0 -49 -18 -68 -55z" />
    <glyph glyph-name="notequal" unicode="&#x2260;" 
d="M485 165h-264l-72 -121h-87l72 121h-86v97h136l78 136h-214v97h264l72 121h88l-72 -121h85v-97h-135l-78 -136h213v-97z" />
    <glyph glyph-name="lessequal" unicode="&#x2264;" 
d="M485 0h-437v97h437v-97zM46 298v112l439 143v-112l-167 -51l-132 -35v-4l132 -35l167 -50v-113z" />
    <glyph glyph-name="greaterequal" unicode="&#x2265;" 
d="M485 0h-437v97h437v-97zM48 153v113l169 50l132 35v4l-132 35l-169 51v112l439 -143v-112z" />
    <glyph glyph-name="uni231C" unicode="&#x231c;" horiz-adv-x="330" 
d="M130 0h-103l137 691h201l-14 -73h-99z" />
    <glyph glyph-name="uni231D" unicode="&#x231d;" horiz-adv-x="331" 
d="M202 0h-102l122 618h-99l16 73h200z" />
    <glyph glyph-name="uni231E" unicode="&#x231e;" horiz-adv-x="330" 
d="M153 635h103l-122 -618h98l-15 -73h-200z" />
    <glyph glyph-name="uni231F" unicode="&#x231f;" horiz-adv-x="331" 
d="M224 635h103l-137 -691h-201l14 73h99z" />
    <glyph glyph-name="uni25A0" unicode="&#x25a0;" horiz-adv-x="328" 
d="M50 380h228v-235h-228v235z" />
    <glyph glyph-name="triagup" unicode="&#x25b2;" horiz-adv-x="566" 
d="M282 544h2l263 -520v-2h-528v2z" />
    <glyph glyph-name="uni25B3" unicode="&#x25b3;" horiz-adv-x="566" 
d="M172 113h223l-112 239zM19 24v2l262 517h4l263 -517v-2h-529z" />
    <glyph glyph-name="uni25B6" unicode="&#x25b6;" horiz-adv-x="565" 
d="M553 284v-4l-500 -273h-2v548h2z" />
    <glyph glyph-name="uni25B7" unicode="&#x25b7;" horiz-adv-x="565" 
d="M140 161l221 121l-221 120v-241zM51 8v548h2l500 -272v-4l-500 -272h-2z" />
    <glyph glyph-name="triagdn" unicode="&#x25bc;" horiz-adv-x="566" 
d="M284 20h-2l-263 518v2h528v-2z" />
    <glyph glyph-name="uni25BD" unicode="&#x25bd;" horiz-adv-x="566" 
d="M395 451h-223l111 -240zM19 537v2h529v-2l-263 -517h-4z" />
    <glyph glyph-name="uni25C0" unicode="&#x25c0;" horiz-adv-x="565" 
d="M14 280v4l499 271h2v-548h-2z" />
    <glyph glyph-name="uni25C1" unicode="&#x25c1;" horiz-adv-x="565" 
d="M205 282l221 -121v241zM515 556v-548h-2l-499 272v4l499 272h2z" />
    <glyph glyph-name="uni25C6" unicode="&#x25c6;" horiz-adv-x="326" 
d="M163 103l-155 159l155 160l156 -160z" />
    <glyph glyph-name="uni25C9" unicode="&#x25c9;" horiz-adv-x="460" 
d="M231 132c67 0 119 52 119 130c0 79 -52 130 -119 130s-120 -51 -120 -130c0 -78 53 -130 120 -130zM231 196c-34 0 -63 28 -63 66c0 39 29 67 63 67c33 0 62 -28 62 -67c0 -38 -29 -66 -62 -66zM231 63c-108 0 -193 82 -193 199c0 118 85 200 193 200s192 -82 192 -200
c0 -117 -84 -199 -192 -199z" />
    <glyph glyph-name="lozenge" unicode="&#x25ca;" horiz-adv-x="527" 
d="M222 -10l-156 340l156 340h111l157 -340l-157 -340h-111zM276 103h4l52 123l45 104l-45 104l-52 123h-4l-53 -123l-45 -104l45 -104z" />
    <glyph glyph-name="uni2610" unicode="&#x2610;" horiz-adv-x="773" 
d="M618 588h-493v-543h493v543zM70 -10v621l71 62h562v-612l-62 -71h-571z" />
    <glyph glyph-name="uni2611" unicode="&#x2611;" horiz-adv-x="773" 
d="M618 45v466c-84 -107 -165 -236 -235 -388l-131 -15c-15 104 -39 186 -82 277l98 51c30 -80 49 -146 60 -226h4c65 134 145 265 232 378h-439v-543h493zM769 812l69 -73c-44 -37 -90 -79 -135 -128v-549l-62 -72h-571v621l72 62h491c45 52 91 99 136 139z" />
    <glyph glyph-name="uni266A" unicode="&#x266a;" horiz-adv-x="518" 
d="M237 694h73c11 -25 19 -33 68 -68c89 -64 120 -121 120 -201c0 -55 -24 -110 -47 -145l-44 19c10 31 14 56 14 91c0 61 -41 122 -108 144v-368c0 -127 -75 -194 -189 -194c-52 0 -106 26 -106 84c0 70 72 131 162 131c25 0 48 -7 57 -12v519z" />
    <glyph glyph-name="uni2713" unicode="&#x2713;" horiz-adv-x="564" 
d="M207 -5l-131 -15c-17 112 -44 203 -91 300l98 51c34 -87 55 -165 69 -249h4c115 239 278 464 440 605l69 -73c-159 -130 -327 -334 -458 -619z" />
    <glyph glyph-name="uni2752" unicode="&#x2752;" horiz-adv-x="394" 
d="M268 330h-170v-177h170v177zM52 105v249l63 56h229v-240l-55 -65h-237z" />
    <glyph glyph-name="uni2E22" unicode="&#x2e22;" horiz-adv-x="330" 
d="M186 278h-103l86 430h200l-14 -73h-99z" />
    <glyph glyph-name="uni2E23" unicode="&#x2e23;" horiz-adv-x="331" 
d="M257 278h-103l72 357h-99l16 73h200z" />
    <glyph glyph-name="uni2E24" unicode="&#x2e24;" horiz-adv-x="330" 
d="M83 278h102l-71 -357h98l-15 -73h-200z" />
    <glyph glyph-name="uni2E25" unicode="&#x2e25;" horiz-adv-x="331" 
d="M154 278h103l-86 -430h-200l13 73h99z" />
    <glyph glyph-name="fi" unicode="&#xfb01;" horiz-adv-x="592" 
d="M51 389l21 101l65 6l6 33c20 102 78 184 192 184c38 0 75 -10 106 -27l-44 -97c-11 7 -30 15 -48 15c-36 0 -59 -16 -69 -70l-7 -38h86l-21 -107h-88l-77 -389h-137l79 389h-64zM341 0l99 496h137l-99 -496h-137zM535 570c-38 0 -74 22 -74 66s37 81 85 81
c37 0 74 -23 74 -66c0 -47 -38 -81 -85 -81z" />
    <glyph glyph-name="fl" unicode="&#xfb02;" horiz-adv-x="602" 
d="M51 389l21 101l65 6l6 33c20 102 78 184 192 184c38 0 75 -10 106 -27l-44 -97c-11 7 -30 15 -48 15c-36 0 -59 -16 -69 -70l-7 -38h86l-21 -107h-88l-77 -389h-137l79 389h-64zM371 146l111 555h137l-113 -561c-2 -10 -2 -14 -2 -19c0 -17 9 -23 19 -23c6 0 9 0 18 2
l-5 -101c-16 -6 -40 -11 -72 -11c-71 0 -100 37 -100 97c0 18 2 36 7 61z" />
    <glyph glyph-name="uniFEFF" unicode="&#xfeff;" horiz-adv-x="0" 
 />
    <glyph glyph-name="uni00470303" horiz-adv-x="611" 
d="M56 261c0 225 152 403 357 403c84 0 145 -39 182 -104l-93 -72c-25 38 -54 57 -96 57c-121 0 -209 -130 -209 -275c0 -100 39 -165 141 -165c27 0 53 9 71 22l28 128h-107l21 112h227l-60 -311c-50 -39 -122 -68 -204 -68c-161 0 -258 101 -258 273zM332 703h-71
c23 84 73 130 121 130c58 0 73 -47 113 -47c16 0 30 15 42 45h72c-23 -84 -73 -130 -121 -130c-58 0 -73 47 -113 47c-16 0 -30 -14 -43 -45z" />
    </font>
</defs>
</svg>
