<?xml version="1.0" standalone="no"?>
<!DOCTYPE svg PUBLIC "-//W3C//DTD SVG 1.1//EN" "http://www.w3.org/Graphics/SVG/1.1/DTD/svg11.dtd" >
<svg version="1.1" xmlns="http://www.w3.org/2000/svg">
<metadata>
Created by FontForge 20120731 at Fri Aug  1 16:50:39 2014
 By Alfred Xing
Copyright 2010, 2012 Adobe Systems Incorporated. All Rights Reserved.
</metadata>
<defs>
<font id="SourceSansPro-Black" horiz-adv-x="0" >
  <font-face 
    font-family="Source Sans Pro"
    font-weight="900"
    font-stretch="normal"
    units-per-em="1000"
    panose-1="2 11 8 3 3 4 3 2 2 4"
    ascent="750"
    descent="-250"
    x-height="500"
    cap-height="650"
    bbox="-246 -408 1248 984"
    underline-thickness="50"
    underline-position="-50"
    stemh="134"
    stemv="172"
    unicode-range="U+0020-FEFF"
  />
<missing-glyph horiz-adv-x="704" 
d="M76 0v660h552v-660h-552zM188 172l82 168l-82 168v-336zM434 340l82 -168v336zM288 104h128l-26 56l-36 96h-4l-36 -96zM350 424h4l40 96l18 36h-120l18 -36z" />
    <glyph glyph-name="f_f" unicode="ff" horiz-adv-x="688" 
d="M720 690l-30 -126c-16 6 -34 10 -50 10c-32 0 -52 -15 -52 -62v-12h84v-134h-84v-366h-172v366h-156v-366h-172v366h-66v128l66 5v7c0 102 54 192 202 192c46 0 86 -9 108 -18l-30 -126c-14 6 -28 10 -56 10s-52 -16 -52 -56v-8h156v6c0 107 50 202 198 202
c46 0 84 -10 106 -18z" />
    <glyph glyph-name="f_t" unicode="ft" horiz-adv-x="724" 
d="M680 130l26 -124c-26 -8 -63 -18 -118 -18c-130 0 -184 82 -184 204v174h-144v-366h-172v366h-66v128l66 5v7c0 107 50 202 198 202c46 0 84 -10 106 -18l-30 -126c-16 6 -34 10 -50 10c-32 0 -52 -15 -52 -62v-12h154l20 130h142v-130h114v-134h-114v-171
c0 -55 28 -73 60 -73c16 0 32 4 44 8z" />
    <glyph glyph-name=".notdef" horiz-adv-x="704" 
d="M76 0v660h552v-660h-552zM188 172l82 168l-82 168v-336zM434 340l82 -168v336zM288 104h128l-26 56l-36 96h-4l-36 -96zM350 424h4l40 96l18 36h-120l18 -36z" />
    <glyph glyph-name="space" unicode=" " horiz-adv-x="210" 
 />
    <glyph glyph-name="exclam" unicode="!" horiz-adv-x="360" 
d="M124 244l-24 278l-6 148h172l-6 -148l-24 -278h-112zM80 92c0 58 42 104 100 104s100 -46 100 -104s-42 -104 -100 -104s-100 46 -100 104z" />
    <glyph glyph-name="quotedbl" unicode="&#x22;" horiz-adv-x="580" 
d="M114 324l-34 212l-6 148h172l-6 -148l-34 -212h-92zM374 324l-34 212l-6 148h172l-6 -148l-34 -212h-92z" />
    <glyph glyph-name="numbersign" unicode="#" horiz-adv-x="540" 
d="M84 0l22 180h-72v108h84l12 96h-76v108h90l20 158h96l-18 -158h92l20 158h96l-18 -158h78v-108h-92l-12 -96h84v-108h-96l-22 -180h-98l22 180h-92l-22 -180h-98zM216 288h92l12 96h-92z" />
    <glyph glyph-name="dollar" unicode="$" horiz-adv-x="540" 
d="M475 558l-85 -98c-36 32 -67 48 -104 48c-43 0 -64 -12 -64 -52c0 -76 258 -80 258 -262c0 -97 -51 -173 -156 -198v-106h-112v100c-57 7 -128 31 -178 76l74 116c54 -40 96 -56 138 -56c50 0 70 17 70 56c0 80 -258 91 -258 266c0 101 57 171 154 192v104h112v-102
c63 -10 111 -42 151 -84z" />
    <glyph glyph-name="percent" unicode="%" horiz-adv-x="870" 
d="M190 248c-96 0 -168 78 -168 208s72 206 168 206s168 -76 168 -206s-72 -208 -168 -208zM190 342c26 0 50 26 50 114s-24 112 -50 112s-50 -24 -50 -112s24 -114 50 -114zM310 -12h-96l348 674h96zM680 -12c-96 0 -168 78 -168 208s72 206 168 206s168 -76 168 -206
s-72 -208 -168 -208zM680 82c26 0 50 26 50 114s-24 112 -50 112s-50 -24 -50 -112s24 -114 50 -114z" />
    <glyph glyph-name="ampersand" unicode="&#x26;" horiz-adv-x="690" 
d="M184 186c0 -40 32 -68 84 -68c21 0 42 6 64 16c-44 35 -84 73 -118 113c-18 -19 -30 -38 -30 -61zM239 486c0 -20 6 -42 18 -65c41 24 71 49 71 87c0 28 -13 42 -38 42c-27 0 -51 -22 -51 -64zM670 126l-40 -138c-57 10 -116 32 -174 63c-57 -39 -127 -63 -210 -63
c-151 0 -224 90 -224 188c0 91 53 143 115 181c-25 45 -39 90 -39 129c0 94 72 176 188 176c104 0 172 -60 172 -154c0 -85 -64 -138 -130 -181c33 -35 73 -68 114 -97c30 40 55 88 70 144h156c-23 -76 -57 -147 -106 -213c39 -19 77 -31 108 -35z" />
    <glyph glyph-name="quotesingle" unicode="'" horiz-adv-x="320" 
d="M114 324l-34 212l-6 148h172l-6 -148l-34 -212h-92z" />
    <glyph glyph-name="parenleft" unicode="(" horiz-adv-x="360" 
d="M200 -180c-84 138 -132 282 -132 458s48 320 132 458l108 -44c-72 -130 -102 -276 -102 -414s30 -284 102 -414z" />
    <glyph glyph-name="parenright" unicode=")" horiz-adv-x="360" 
d="M52 -136c72 130 102 276 102 414s-30 284 -102 414l108 44c84 -138 132 -282 132 -458s-48 -320 -132 -458z" />
    <glyph glyph-name="asterisk" unicode="*" horiz-adv-x="472" 
d="M152 321l-70 51l60 107l-112 52l27 83l121 -24l14 122h88l14 -123l121 25l27 -83l-113 -52l61 -107l-70 -51l-84 91z" />
    <glyph glyph-name="plus" unicode="+" horiz-adv-x="540" 
d="M208 90v180h-174v120h174v180h124v-180h174v-120h-174v-180h-124z" />
    <glyph glyph-name="comma" unicode="," horiz-adv-x="320" 
d="M80 -204l-34 90c80 26 121 73 121 122h-7c-52 0 -100 34 -100 94c0 56 46 94 104 94c74 0 114 -58 114 -156c0 -118 -68 -208 -198 -244z" />
    <glyph glyph-name="hyphen" unicode="-" horiz-adv-x="340" 
d="M44 194v120h252v-120h-252z" />
    <glyph glyph-name="period" unicode="." horiz-adv-x="320" 
d="M60 92c0 58 42 104 100 104s100 -46 100 -104s-42 -104 -100 -104s-100 46 -100 104z" />
    <glyph glyph-name="slash" unicode="/" horiz-adv-x="334" 
d="M14 -160l176 870h110l-176 -870h-110z" />
    <glyph glyph-name="zero" unicode="0" horiz-adv-x="540" 
d="M270 -12c-140 0 -236 115 -236 332s96 326 236 326s236 -110 236 -326c0 -217 -96 -332 -236 -332zM270 120c40 0 74 32 74 200s-34 194 -74 194s-74 -26 -74 -194s34 -200 74 -200z" />
    <glyph glyph-name="one" unicode="1" horiz-adv-x="540" 
d="M66 0v138h136v328h-120v106c72 14 118 32 166 62h126v-496h114v-138h-422z" />
    <glyph glyph-name="two" unicode="2" horiz-adv-x="540" 
d="M36 0v98c150 138 266 244 266 330c0 57 -32 84 -78 84c-42 0 -74 -30 -104 -60l-92 92c66 70 126 102 220 102c128 0 218 -82 218 -208c0 -102 -96 -214 -182 -302c32 4 78 8 106 8h106v-144h-460z" />
    <glyph glyph-name="three" unicode="3" horiz-adv-x="540" 
d="M20 78l78 108c39 -36 85 -60 130 -60c56 0 92 20 92 60c0 48 -25 76 -158 76v120c106 0 138 28 138 72c0 38 -23 58 -66 58c-42 0 -72 -18 -112 -52l-86 104c62 52 128 82 206 82c140 0 230 -64 230 -179c0 -61 -34 -107 -102 -137v-4c72 -22 122 -72 122 -152
c0 -120 -114 -186 -246 -186c-103 0 -178 34 -226 90z" />
    <glyph glyph-name="four" unicode="4" horiz-adv-x="540" 
d="M182 272h108v72c0 43 4 107 6 150h-4c-16 -38 -34 -76 -52 -114zM518 272v-130h-68v-142h-160v142h-270v120l216 372h214v-362h68z" />
    <glyph glyph-name="five" unicode="5" horiz-adv-x="540" 
d="M22 78l76 108c38 -34 82 -60 128 -60c60 0 94 26 94 82c0 54 -36 82 -86 82c-34 0 -50 -6 -88 -30l-74 48l16 326h376v-144h-228l-8 -92c22 8 39 10 60 10c110 0 204 -62 204 -196c0 -142 -111 -224 -240 -224c-104 0 -178 38 -230 90z" />
    <glyph glyph-name="six" unicode="6" horiz-adv-x="540" 
d="M282 116c36 0 68 21 68 88c0 61 -34 76 -70 76c-29 0 -58 -15 -81 -54c14 -89 52 -110 83 -110zM498 566l-90 -102c-20 22 -60 44 -96 44c-62 0 -111 -43 -117 -171c31 41 85 63 119 63c108 0 192 -60 192 -196s-100 -216 -220 -216c-122 0 -248 88 -248 318
s126 340 262 340c90 0 156 -38 198 -80z" />
    <glyph glyph-name="seven" unicode="7" horiz-adv-x="540" 
d="M152 0c12 200 46 327 164 490h-272v144h454v-106c-146 -171 -162 -281 -174 -528h-172z" />
    <glyph glyph-name="eight" unicode="8" horiz-adv-x="540" 
d="M189 182c0 -50 39 -76 83 -76c38 0 69 18 69 66c0 46 -44 64 -119 96c-19 -22 -33 -54 -33 -86zM306 378c18 26 28 52 28 80c0 44 -24 70 -64 70c-31 0 -58 -18 -58 -62c0 -42 34 -64 94 -88zM42 162c0 74 44 118 104 150v4c-50 38 -84 84 -84 150c0 112 88 180 212 180
c118 0 198 -68 198 -176c0 -58 -36 -104 -81 -133v-4c62 -33 109 -83 109 -167c0 -102 -93 -178 -232 -178c-129 0 -226 70 -226 174z" />
    <glyph glyph-name="nine" unicode="9" horiz-adv-x="540" 
d="M258 354c29 0 58 15 81 54c-14 89 -52 110 -83 110c-36 0 -68 -21 -68 -88c0 -61 34 -76 70 -76zM40 68l90 102c20 -22 60 -44 96 -44c63 0 111 43 117 171c-31 -41 -85 -63 -119 -63c-108 0 -192 60 -192 196s100 216 220 216c122 0 248 -88 248 -318
s-126 -340 -262 -340c-90 0 -156 38 -198 80z" />
    <glyph glyph-name="colon" unicode=":" horiz-adv-x="320" 
d="M60 402c0 58 42 104 100 104s100 -46 100 -104s-42 -104 -100 -104s-100 46 -100 104zM60 92c0 58 42 104 100 104s100 -46 100 -104s-42 -104 -100 -104s-100 46 -100 104z" />
    <glyph glyph-name="semicolon" unicode=";" horiz-adv-x="320" 
d="M160 298c-58 0 -100 46 -100 104s42 104 100 104s100 -46 100 -104s-42 -104 -100 -104zM80 -204l-34 90c80 26 121 73 121 122h-7c-52 0 -100 34 -100 94c0 56 46 94 104 94c74 0 114 -58 114 -156c0 -118 -68 -208 -198 -244z" />
    <glyph glyph-name="less" unicode="&#x3c;" horiz-adv-x="540" 
d="M34 274v116l472 180v-140l-162 -50l-136 -46v-4l136 -46l162 -50v-140z" />
    <glyph glyph-name="equal" unicode="=" horiz-adv-x="540" 
d="M34 390v120h472v-120h-472zM34 150v120h472v-120h-472z" />
    <glyph glyph-name="greater" unicode="&#x3e;" horiz-adv-x="540" 
d="M506 390v-116l-472 -180v140l162 50l136 46v4l-136 46l-162 50v140z" />
    <glyph glyph-name="question" unicode="?" horiz-adv-x="478" 
d="M152 244c-20 130 122 186 122 250c0 36 -26 50 -56 50c-34 0 -56 -18 -82 -42l-94 86c47 56 112 94 188 94c116 0 208 -50 208 -176c0 -120 -146 -152 -136 -262h-150zM126 92c0 58 42 104 100 104s100 -46 100 -104s-42 -104 -100 -104s-100 46 -100 104z" />
    <glyph glyph-name="at" unicode="@" horiz-adv-x="924" 
d="M48 206c0 284 210 472 464 472c222 0 364 -152 364 -366c0 -186 -128 -278 -238 -278c-59 0 -108 28 -120 76h-2c-26 -40 -80 -66 -120 -66c-82 0 -136 62 -136 154c0 128 92 250 206 250c32 0 58 -14 74 -50h2l16 42h104l-48 -228c-12 -50 2 -74 42 -74
c60 0 114 68 114 170c0 136 -70 268 -272 268c-168 0 -336 -144 -336 -366c0 -198 140 -286 290 -286c48 0 108 16 148 36l36 -92c-62 -32 -126 -46 -198 -46c-202 0 -390 120 -390 384zM388 208c0 -37 16 -58 46 -58c18 0 34 10 56 40l22 126c-7 14 -22 24 -40 24
c-52 0 -84 -78 -84 -132z" />
    <glyph glyph-name="A" unicode="A" horiz-adv-x="584" 
d="M229 271h120l-11 45c-16 62 -32 141 -48 206h-4c-14 -66 -30 -144 -46 -206zM412 0l-32 138h-182l-32 -138h-176l198 650h208l198 -650h-182z" />
    <glyph glyph-name="B" unicode="B" horiz-adv-x="612" 
d="M72 0v650h234c136 0 246 -34 246 -162c0 -56 -32 -120 -108 -140v-4c92 -18 138 -66 138 -152c0 -134 -116 -192 -256 -192h-254zM244 394h58c56 0 82 28 82 68s-26 56 -82 56h-58v-124zM244 132h70c68 0 100 26 100 74s-32 68 -100 68h-70v-142z" />
    <glyph glyph-name="C" unicode="C" horiz-adv-x="586" 
d="M44 320c0 218 150 342 318 342c82 0 152 -40 198 -86l-94 -106c-32 28 -60 44 -102 44c-78 0 -144 -70 -144 -188c0 -122 56 -190 140 -190c50 0 86 22 114 52l94 -104c-55 -64 -130 -96 -210 -96c-170 0 -314 110 -314 332z" />
    <glyph glyph-name="D" unicode="D" horiz-adv-x="642" 
d="M72 0v650h192c198 0 334 -92 334 -322s-136 -328 -324 -328h-202zM244 138h10c94 0 168 38 168 190s-74 184 -168 184h-10v-374z" />
    <glyph glyph-name="E" unicode="E" horiz-adv-x="556" 
d="M72 0v650h420v-144h-248v-102h212v-144h-212v-116h258v-144h-430z" />
    <glyph glyph-name="F" unicode="F" horiz-adv-x="536" 
d="M72 0v650h424v-144h-252v-124h216v-144h-216v-238h-172z" />
    <glyph glyph-name="G" unicode="G" horiz-adv-x="646" 
d="M44 320c0 218 150 342 328 342c92 0 162 -40 208 -86l-94 -106c-32 28 -60 44 -112 44c-88 0 -154 -70 -154 -188c0 -122 54 -190 170 -190c18 0 38 4 50 12v90h-96v140h248v-310c-48 -44 -132 -80 -224 -80c-178 0 -324 110 -324 332z" />
    <glyph glyph-name="H" unicode="H" horiz-adv-x="682" 
d="M72 0v650h172v-242h194v242h172v-650h-172v258h-194v-258h-172z" />
    <glyph glyph-name="I" unicode="I" horiz-adv-x="316" 
d="M72 0v650h172v-650h-172z" />
    <glyph glyph-name="J" unicode="J" horiz-adv-x="520" 
d="M10 111l116 87c22 -42 54 -62 82 -62c46 0 72 22 72 104v410h172v-424c0 -130 -70 -238 -220 -238c-106 0 -174 40 -222 123z" />
    <glyph glyph-name="K" unicode="K" horiz-adv-x="628" 
d="M72 0v650h172v-242h4l164 242h188l-194 -264l232 -386h-188l-144 250l-62 -88v-162h-172z" />
    <glyph glyph-name="L" unicode="L" horiz-adv-x="530" 
d="M72 0v650h172v-506h246v-144h-418z" />
    <glyph glyph-name="M" unicode="M" horiz-adv-x="776" 
d="M72 0v650h178l102 -270l36 -106h4l36 106l98 270h178v-650h-160v192c0 66 14 167 22 232h-4l-54 -152l-90 -219h-64l-90 219l-52 152h-4c8 -65 22 -166 22 -232v-192h-158z" />
    <glyph glyph-name="N" unicode="N" horiz-adv-x="672" 
d="M72 0v650h176l144 -290l62 -146h4c-8 70 -22 168 -22 248v188h164v-650h-176l-144 291l-62 145h-4c8 -74 22 -168 22 -248v-188h-164z" />
    <glyph glyph-name="O" unicode="O" horiz-adv-x="692" 
d="M346 -12c-180 0 -302 126 -302 340s122 334 302 334s302 -121 302 -334c0 -214 -122 -340 -302 -340zM346 136c78 0 126 74 126 192s-48 186 -126 186s-126 -68 -126 -186s48 -192 126 -192z" />
    <glyph glyph-name="P" unicode="P" horiz-adv-x="618" 
d="M72 0v650h252c140 0 260 -52 260 -216c0 -159 -124 -228 -260 -228h-80v-206h-172zM244 342h72c68 0 100 34 100 92s-36 80 -100 80h-72v-172z" />
    <glyph glyph-name="Q" unicode="Q" horiz-adv-x="692" 
d="M346 514c-78 0 -126 -68 -126 -186c0 -128 48 -200 126 -200s126 72 126 200c0 118 -48 186 -126 186zM660 -36l30 -124c-26 -14 -69 -24 -124 -24c-146 0 -248 74 -298 181c-136 31 -224 150 -224 331c0 214 122 334 302 334s302 -121 302 -334
c0 -170 -77 -284 -199 -324c30 -41 88 -52 137 -52c28 0 54 5 74 12z" />
    <glyph glyph-name="R" unicode="R" horiz-adv-x="630" 
d="M244 514v-160h62c68 0 104 30 104 86s-36 74 -104 74h-62zM614 0h-192l-112 218h-66v-218h-172v650h246c140 0 260 -48 260 -210c0 -93 -42 -154 -105 -188z" />
    <glyph glyph-name="S" unicode="S" horiz-adv-x="564" 
d="M32 81l98 118c46 -37 104 -63 152 -63c52 0 74 17 74 46c0 31 -33 41 -88 63l-81 34c-70 28 -131 87 -131 181c0 111 100 202 242 202c74 0 156 -28 216 -87l-86 -108c-44 31 -82 47 -130 47c-42 0 -68 -15 -68 -44c0 -31 37 -42 96 -65l79 -31c81 -32 127 -88 127 -178
c0 -110 -92 -208 -254 -208c-82 0 -176 30 -246 93z" />
    <glyph glyph-name="T" unicode="T" horiz-adv-x="564" 
d="M196 0v506h-172v144h516v-144h-172v-506h-172z" />
    <glyph glyph-name="U" unicode="U" horiz-adv-x="672" 
d="M68 314v336h172v-356c0 -116 30 -158 98 -158s100 42 100 158v356h166v-336c0 -222 -84 -326 -266 -326s-270 104 -270 326z" />
    <glyph glyph-name="V" unicode="V" horiz-adv-x="572" 
d="M182 0l-192 650h182l68 -284c18 -69 30 -136 48 -206h4c18 70 31 137 48 206l66 284h176l-192 -650h-208z" />
    <glyph glyph-name="W" unicode="W" horiz-adv-x="824" 
d="M124 0l-114 650h176l36 -284c7 -68 15 -136 22 -204h4c12 68 24 137 36 204l62 284h144l62 -284c12 -65 24 -135 36 -204h4c7 69 15 138 22 204l36 284h164l-108 -650h-218l-50 258c-10 50 -18 104 -24 152h-4c-7 -48 -14 -102 -24 -152l-48 -258h-214z" />
    <glyph glyph-name="X" unicode="X" horiz-adv-x="588" 
d="M10 0l176 334l-166 316h192l44 -106c14 -30 28 -66 46 -108h4c14 42 28 78 40 108l38 106h184l-166 -324l176 -326h-192l-52 116c-16 34 -30 68 -46 108h-4c-14 -40 -28 -74 -42 -108l-48 -116h-184z" />
    <glyph glyph-name="Y" unicode="Y" horiz-adv-x="544" 
d="M186 0v224l-196 426h184l48 -136c16 -49 32 -94 49 -145h4c17 51 34 96 51 145l48 136h180l-196 -426v-224h-172z" />
    <glyph glyph-name="Z" unicode="Z" horiz-adv-x="542" 
d="M32 0v104l266 402h-240v144h452v-104l-266 -402h268v-144h-480z" />
    <glyph glyph-name="bracketleft" unicode="[" horiz-adv-x="360" 
d="M84 -152v860h224v-90h-96v-680h96v-90h-224z" />
    <glyph glyph-name="backslash" unicode="\" horiz-adv-x="334" 
d="M210 -160l-176 870h110l176 -870h-110z" />
    <glyph glyph-name="bracketright" unicode="]" horiz-adv-x="360" 
d="M52 -62h96v680h-96v90h224v-860h-224v90z" />
    <glyph glyph-name="asciicircum" unicode="^" horiz-adv-x="540" 
d="M46 270l156 400h136l156 -400h-140l-38 110l-44 136h-4l-44 -136l-38 -110h-140z" />
    <glyph glyph-name="underscore" unicode="_" horiz-adv-x="500" 
d="M12 -52h476v-94h-476v94z" />
    <glyph glyph-name="grave" unicode="`" horiz-adv-x="560" 
d="M244 574l-128 154h164l88 -154h-124z" />
    <glyph glyph-name="a" unicode="a" horiz-adv-x="542" 
d="M42 142c0 104 80 162 272 182c-4 36 -26 52 -70 52c-36 0 -74 -14 -126 -42l-60 112c70 42 142 66 220 66c130 0 208 -70 208 -234v-278h-140l-12 48h-4c-40 -36 -84 -60 -138 -60c-94 0 -150 72 -150 154zM206 156c0 -23 16 -36 46 -36c28 0 44 14 62 34v68
c-82 -12 -108 -38 -108 -66z" />
    <glyph glyph-name="b" unicode="b" horiz-adv-x="580" 
d="M58 0v696h172v-162l-4 -72c35 32 79 50 123 50c118 0 195 -100 195 -253c0 -173 -102 -271 -208 -271c-44 0 -88 22 -126 66h-4l-14 -54h-134zM230 152c20 -18 42 -24 64 -24c40 0 74 32 74 128c0 82 -24 116 -70 116c-26 0 -46 -10 -68 -36v-184z" />
    <glyph glyph-name="c" unicode="c" horiz-adv-x="472" 
d="M32 250c0 166 126 262 268 262c60 0 112 -22 146 -56l-78 -106c-22 18 -40 24 -58 24c-64 0 -102 -48 -102 -124s42 -124 96 -124c32 0 58 16 80 32l68 -108c-50 -44 -116 -62 -168 -62c-142 0 -252 96 -252 262z" />
    <glyph glyph-name="d" unicode="d" horiz-adv-x="580" 
d="M36 250c0 164 102 262 204 262c54 0 86 -20 116 -50l-6 72v162h172v-696h-140l-12 46h-4c-34 -34 -82 -58 -126 -58c-124 0 -204 100 -204 262zM212 252c0 -90 28 -124 74 -124c26 0 46 8 64 36v184c-20 18 -46 24 -68 24c-36 0 -70 -32 -70 -120z" />
    <glyph glyph-name="e" unicode="e" horiz-adv-x="526" 
d="M32 250c0 162 118 262 240 262c148 0 218 -108 218 -242c0 -30 -4 -56 -7 -68h-285c16 -64 60 -84 116 -84c34 0 66 10 102 30l56 -102c-54 -38 -126 -58 -182 -58c-146 0 -258 96 -258 262zM196 306h148c0 42 -16 76 -68 76c-38 0 -70 -21 -80 -76z" />
    <glyph glyph-name="f" unicode="f" horiz-adv-x="360" 
d="M392 690l-30 -126c-16 6 -34 10 -50 10c-32 0 -52 -15 -52 -62v-12h84v-134h-84v-366h-172v366h-66v128l66 5v7c0 107 50 202 198 202c46 0 84 -10 106 -18z" />
    <glyph glyph-name="g" unicode="g" horiz-adv-x="546" 
d="M170 -54c0 -32 40 -46 98 -46c56 0 98 18 98 46c0 26 -24 30 -67 30h-39c-40 0 -58 2 -72 6c-12 -12 -18 -22 -18 -36zM30 -82c0 41 24 72 70 96v4c-26 18 -46 44 -46 86c0 34 22 70 56 94v4c-36 24 -68 70 -68 128c0 124 104 182 214 182c28 0 56 -4 80 -12h186v-124
h-72c4 -12 8 -32 8 -52c0 -118 -90 -166 -202 -166c-16 0 -34 2 -56 7c-10 -9 -12 -15 -12 -29c0 -22 20 -30 70 -30h75c125 0 197 -38 197 -130c0 -108 -112 -182 -290 -182c-114 0 -210 34 -210 124zM256 260c32 0 54 22 54 70c0 46 -22 68 -54 68s-54 -22 -54 -68
c0 -48 22 -70 54 -70z" />
    <glyph glyph-name="h" unicode="h" horiz-adv-x="582" 
d="M58 0v696h172v-162l-8 -86c34 30 82 64 150 64c110 0 156 -80 156 -204v-308h-172v286c0 64 -16 80 -50 80c-32 0 -50 -14 -76 -38v-328h-172z" />
    <glyph glyph-name="i" unicode="i" horiz-adv-x="288" 
d="M144 562c-56 0 -96 36 -96 86s40 86 96 86s96 -36 96 -86s-40 -86 -96 -86zM58 0v500h172v-500h-172z" />
    <glyph glyph-name="j" unicode="j" horiz-adv-x="290" 
d="M60 20v480h172v-474c0 -112 -44 -214 -194 -214c-46 0 -72 6 -94 14l30 126c14 -4 24 -6 36 -6c36 0 50 20 50 74zM146 562c-56 0 -96 36 -96 86s40 86 96 86s96 -36 96 -86s-40 -86 -96 -86z" />
    <glyph glyph-name="k" unicode="k" horiz-adv-x="568" 
d="M58 0v696h168v-370h4l138 174h186l-178 -208l188 -292h-186l-100 178l-52 -58v-120h-168z" />
    <glyph glyph-name="l" unicode="l" horiz-adv-x="298" 
d="M58 176v520h172v-526c0 -34 16 -44 28 -44c6 0 10 0 18 2l20 -126c-18 -8 -46 -14 -84 -14c-116 0 -154 76 -154 188z" />
    <glyph glyph-name="m" unicode="m" horiz-adv-x="868" 
d="M58 0v500h140l12 -61h4c40 39 82 73 150 73s111 -28 138 -80c41 42 86 80 154 80c110 0 158 -80 158 -204v-308h-172v286c0 64 -16 80 -50 80c-20 0 -44 -12 -70 -38v-328h-172v286c0 64 -16 80 -50 80c-20 0 -44 -12 -70 -38v-328h-172z" />
    <glyph glyph-name="n" unicode="n" horiz-adv-x="582" 
d="M58 0v500h140l12 -60h4c40 38 90 72 158 72c110 0 156 -80 156 -204v-308h-172v286c0 64 -16 80 -50 80c-32 0 -50 -14 -76 -38v-328h-172z" />
    <glyph glyph-name="o" unicode="o" horiz-adv-x="560" 
d="M32 250c0 166 120 262 248 262s248 -96 248 -262s-120 -262 -248 -262s-248 96 -248 262zM208 250c0 -76 20 -124 72 -124s72 48 72 124s-20 124 -72 124s-72 -48 -72 -124z" />
    <glyph glyph-name="p" unicode="p" horiz-adv-x="580" 
d="M224 38l6 -76v-138h-172v676h140l12 -46h4c37 34 86 58 136 58c118 0 194 -100 194 -254c0 -172 -102 -270 -208 -270c-42 0 -80 18 -112 50zM230 152c20 -18 42 -24 64 -24c40 0 74 32 74 128c0 82 -24 116 -70 116c-26 0 -46 -10 -68 -36v-184z" />
    <glyph glyph-name="q" unicode="q" horiz-adv-x="580" 
d="M36 250c0 164 102 262 204 262c53 0 92 -18 130 -62h4l14 50h134v-676h-172v143l6 71c-30 -30 -76 -50 -116 -50c-124 0 -204 100 -204 262zM212 252c0 -90 28 -124 74 -124c26 0 46 8 64 36v184c-20 18 -46 24 -68 24c-36 0 -70 -32 -70 -120z" />
    <glyph glyph-name="r" unicode="r" horiz-adv-x="418" 
d="M58 0v500h140l12 -86h4c37 68 93 98 142 98c31 0 48 -4 62 -10l-28 -148c-18 4 -34 8 -56 8c-36 0 -80 -22 -104 -84v-278h-172z" />
    <glyph glyph-name="s" unicode="s" horiz-adv-x="452" 
d="M18 58l76 106c46 -34 87 -50 122 -50c36 0 50 10 50 30c0 26 -46 38 -96 58c-58 23 -126 66 -126 148c0 98 80 162 198 162c82 0 140 -33 184 -66l-76 -102c-36 26 -71 42 -102 42c-29 0 -44 -8 -44 -28c0 -26 44 -36 94 -54c60 -22 128 -60 128 -150
c0 -94 -74 -166 -214 -166c-64 0 -142 28 -194 70z" />
    <glyph glyph-name="t" unicode="t" horiz-adv-x="400" 
d="M80 192v174h-66v128l76 6l20 130h142v-130h114v-134h-114v-171c0 -55 28 -73 60 -73c16 0 32 4 44 8l26 -124c-26 -8 -63 -18 -118 -18c-130 0 -184 82 -184 204z" />
    <glyph glyph-name="u" unicode="u" horiz-adv-x="578" 
d="M54 192v308h172v-286c0 -64 16 -80 50 -80c32 0 50 12 72 44v322h172v-500h-140l-12 66h-4c-40 -48 -86 -78 -154 -78c-110 0 -156 80 -156 204z" />
    <glyph glyph-name="v" unicode="v" horiz-adv-x="544" 
d="M176 0l-164 500h172l54 -218c12 -50 24 -102 36 -156h4c12 54 24 106 36 156l54 218h164l-158 -500h-198z" />
    <glyph glyph-name="w" unicode="w" horiz-adv-x="798" 
d="M144 0l-120 500h170l38 -210c8 -50 12 -100 20 -152h4c8 52 16 104 28 152l46 210h146l48 -210c12 -50 20 -100 30 -152h4c8 52 12 102 20 152l38 210h158l-114 -500h-200l-36 174c-8 46 -16 92 -24 147h-4c-8 -55 -14 -101 -22 -147l-34 -174h-196z" />
    <glyph glyph-name="x" unicode="x" horiz-adv-x="540" 
d="M14 0l150 260l-142 240h184l36 -70c13 -28 27 -58 40 -86h4c9 28 21 58 30 86l24 70h178l-142 -260l150 -240h-184l-40 70c-15 28 -29 58 -44 86h-4c-11 -28 -23 -57 -34 -86l-28 -70h-178z" />
    <glyph glyph-name="y" unicode="y" horiz-adv-x="542" 
d="M86 -48c9 -2 22 -6 32 -6c46 0 68 20 78 50l6 22l-190 482h172l60 -192c14 -46 24 -92 36 -142h4c10 48 20 94 32 142l50 192h164l-168 -492c-52 -135 -106 -196 -230 -196c-34 0 -54 4 -76 10z" />
    <glyph glyph-name="z" unicode="z" horiz-adv-x="474" 
d="M40 0v92l190 274h-168v134h382v-92l-190 -274h196v-134h-410z" />
    <glyph glyph-name="braceleft" unicode="{" horiz-adv-x="360" 
d="M292 -62h16v-90h-70c-92 0 -132 36 -132 146c0 70 10 100 10 162c0 34 -22 70 -86 72v100c64 2 86 38 86 72c0 62 -10 92 -10 162c0 110 40 146 132 146h70v-90h-16c-37 0 -48 -10 -48 -62c0 -51 4 -98 4 -156c0 -80 -27 -108 -80 -120v-4c53 -12 80 -40 80 -120
c0 -58 -4 -105 -4 -156c0 -52 11 -62 48 -62z" />
    <glyph glyph-name="bar" unicode="|" horiz-adv-x="278" 
d="M84 -250v1000h110v-1000h-110z" />
    <glyph glyph-name="braceright" unicode="}" horiz-adv-x="360" 
d="M52 -62h16c37 0 48 10 48 62c0 51 -4 98 -4 156c0 80 27 108 80 120v4c-53 12 -80 40 -80 120c0 58 4 105 4 156c0 52 -11 62 -48 62h-16v90h70c92 0 132 -36 132 -146c0 -70 -10 -100 -10 -162c0 -34 22 -70 86 -72v-100c-64 -2 -86 -38 -86 -72c0 -62 10 -92 10 -162
c0 -110 -40 -146 -132 -146h-70v90z" />
    <glyph glyph-name="asciitilde" unicode="~" horiz-adv-x="540" 
d="M114 250l-88 68c54 80 108 108 160 108c84 0 116 -72 170 -72c27 0 50 22 70 56l88 -68c-54 -80 -108 -108 -160 -108c-84 0 -116 72 -170 72c-26 0 -50 -22 -70 -56z" />
    <glyph glyph-name="uni00A0" unicode="&#xa0;" horiz-adv-x="210" 
 />
    <glyph glyph-name="exclamdown" unicode="&#xa1;" horiz-adv-x="360" 
d="M236 256l24 -278l6 -148h-172l6 148l24 278h112zM280 408c0 -58 -42 -104 -100 -104s-100 46 -100 104s42 104 100 104s100 -46 100 -104z" />
    <glyph glyph-name="cent" unicode="&#xa2;" horiz-adv-x="540" 
d="M280 199v214c-37 -20 -54 -58 -54 -107s19 -87 54 -107zM432 214l68 -108c-38 -33 -85 -52 -128 -59v-91h-92v91c-134 19 -220 111 -220 259c0 142 92 233 220 256v94h92v-89c50 -5 93 -26 122 -55l-78 -106c-16 13 -30 20 -44 23v-245c23 5 43 17 60 30z" />
    <glyph glyph-name="sterling" unicode="&#xa3;" horiz-adv-x="540" 
d="M264 148v-4h250v-144h-468v106c56 24 106 74 106 144c0 5 0 11 -1 16h-99v98l68 6h2c-7 22 -12 43 -12 62c0 132 96 214 224 214c76 0 132 -28 180 -84l-92 -92c-22 26 -44 38 -70 38c-46 0 -78 -24 -78 -86c0 -17 3 -34 6 -52h144v-104h-123c1 -6 1 -12 1 -18
c0 -39 -10 -66 -38 -100z" />
    <glyph glyph-name="currency" unicode="&#xa4;" horiz-adv-x="540" 
d="M102 76l-85 85l60 60c-21 30 -33 66 -33 109c0 42 12 78 32 107l-59 60l85 85l70 -70c31 13 65 20 98 20s67 -7 98 -20l70 70l85 -85l-60 -60c21 -29 33 -65 33 -107c0 -43 -13 -79 -34 -109l61 -60l-85 -85l-71 71c-31 -13 -65 -19 -97 -19c-33 0 -66 6 -97 19zM196 330
c0 -52 32 -84 74 -84s74 32 74 84s-32 84 -74 84s-74 -32 -74 -84z" />
    <glyph glyph-name="yen" unicode="&#xa5;" horiz-adv-x="540" 
d="M8 634h176l40 -118c15 -44 30 -88 46 -130h4c15 43 31 87 46 130l40 118h172l-140 -282h114v-80h-150v-50h150v-80h-150v-142h-172v142h-150v80h150v50h-150v80h114z" />
    <glyph glyph-name="brokenbar" unicode="&#xa6;" horiz-adv-x="278" 
d="M84 320v430h110v-430h-110zM84 200h110v-450h-110v450z" />
    <glyph glyph-name="section" unicode="&#xa7;" horiz-adv-x="540" 
d="M178 332c0 -53 85 -73 159 -111c17 13 25 29 25 49c0 54 -83 74 -159 110c-17 -13 -25 -29 -25 -48zM462 624l-78 -106c-31 27 -71 48 -102 48c-29 0 -44 -8 -44 -30c0 -56 268 -72 268 -252c0 -56 -28 -101 -81 -135c13 -20 21 -45 21 -75c0 -94 -67 -166 -204 -166
c-74 0 -156 28 -202 90l98 86c32 -34 70 -50 104 -50c36 0 50 12 50 32c0 64 -258 64 -258 254c0 46 29 96 77 127c-17 22 -27 49 -27 83c0 98 71 162 188 162c82 0 148 -35 190 -68z" />
    <glyph glyph-name="dieresis" unicode="&#xa8;" horiz-adv-x="560" 
d="M176 564c-46 0 -78 34 -78 78s32 78 78 78s78 -34 78 -78s-32 -78 -78 -78zM384 564c-46 0 -78 34 -78 78s32 78 78 78s78 -34 78 -78s-32 -78 -78 -78z" />
    <glyph glyph-name="copyright" unicode="&#xa9;" horiz-adv-x="752" 
d="M44 326c0 208 154 330 332 330s332 -123 332 -330c0 -208 -154 -334 -332 -334s-332 126 -332 334zM120 326c0 -160 110 -266 256 -266s256 106 256 266s-110 262 -256 262s-256 -102 -256 -262zM192 324c0 118 94 194 196 194c64 0 104 -28 136 -60l-63 -70
c-19 20 -37 32 -61 32c-59 0 -87 -44 -87 -96c0 -60 31 -98 81 -98c30 0 48 12 72 30l54 -78c-38 -30 -81 -50 -130 -50c-116 0 -198 76 -198 196z" />
    <glyph glyph-name="ordfeminine" unicode="&#xaa;" horiz-adv-x="364" 
d="M128 252c-64 0 -102 48 -102 102c0 70 54 108 182 120c-3 23 -17 32 -44 32c-24 0 -51 -10 -86 -28l-42 78c48 28 98 44 150 44c86 0 142 -48 142 -154v-186h-96l-10 32h-4c-24 -24 -54 -40 -90 -40zM169 342c17 0 27 8 39 20v44c-52 -6 -68 -24 -68 -42
c0 -14 10 -22 29 -22z" />
    <glyph glyph-name="guillemotleft" unicode="&#xab;" horiz-adv-x="500" 
d="M184 52l-134 140v120l134 140l62 -50l-108 -150l108 -150zM384 52l-134 140v120l134 140l62 -50l-108 -150l108 -150z" />
    <glyph glyph-name="logicalnot" unicode="&#xac;" horiz-adv-x="540" 
d="M34 270v120h472v-300h-124v180h-348z" />
    <glyph glyph-name="uni00AD" unicode="&#xad;" horiz-adv-x="340" 
d="M44 194v120h252v-120h-252z" />
    <glyph glyph-name="registered" unicode="&#xae;" horiz-adv-x="477" 
d="M238 308c-112 0 -202 86 -202 204s90 204 202 204s202 -86 202 -204s-90 -204 -202 -204zM238 362c84 0 142 58 142 150s-58 150 -142 150s-142 -58 -142 -150s58 -150 142 -150zM154 416v194h94c48 0 82 -22 82 -66c0 -22 -10 -42 -34 -54l40 -74h-66l-28 56h-24v-56
h-64zM218 515h18c18 0 26 13 26 25c0 13 -10 23 -26 23h-18v-48z" />
    <glyph glyph-name="macron" unicode="&#xaf;" horiz-adv-x="560" 
d="M136 588v108h288v-108h-288z" />
    <glyph glyph-name="degree" unicode="&#xb0;" horiz-adv-x="378" 
d="M190 386c-86 0 -152 64 -152 150s66 150 152 150s152 -64 152 -150s-66 -150 -152 -150zM190 466c38 0 64 28 64 70s-26 70 -64 70s-64 -28 -64 -70s26 -70 64 -70z" />
    <glyph glyph-name="plusminus" unicode="&#xb1;" horiz-adv-x="540" 
d="M208 170v120h-174v120h174v160h124v-160h174v-120h-174v-120h-124zM34 0v120h472v-120h-472z" />
    <glyph glyph-name="two.sups" unicode="&#xb2;" horiz-adv-x="380" 
d="M42 440v66c92 72 166 136 166 180c0 34 -18 54 -50 54c-24 0 -44 -16 -66 -44l-70 64c44 56 94 82 156 82c90 0 150 -50 150 -134c0 -59 -44 -112 -88 -164h100v-104h-298z" />
    <glyph glyph-name="three.sups" unicode="&#xb3;" horiz-adv-x="380" 
d="M24 508l74 58c24 -32 46 -44 76 -44c27 0 48 14 48 38c0 30 -25 44 -82 44v70c41 0 68 10 68 40c0 22 -16 34 -40 34s-42 -16 -58 -36l-70 62c46 48 86 68 150 68c74 0 140 -42 140 -110c0 -40 -18 -66 -52 -88c38 -18 66 -50 66 -94c0 -72 -74 -122 -156 -122
c-70 0 -128 26 -164 80z" />
    <glyph glyph-name="acute" unicode="&#xb4;" horiz-adv-x="560" 
d="M444 728l-128 -154h-124l88 154h164z" />
    <glyph glyph-name="uni00B5" unicode="&#xb5;" horiz-adv-x="582" 
d="M58 -200v700h172v-286c0 -64 16 -80 50 -80c32 0 50 12 72 44v322h172v-500h-140l-12 66h-4c-20 -46 -58 -68 -98 -68c-18 0 -36 2 -50 14l10 -90v-122h-172z" />
    <glyph glyph-name="paragraph" unicode="&#xb6;" horiz-adv-x="666" 
d="M398 -80v730h172v-730h-172zM298 186c-140 0 -260 83 -260 238c0 172 120 226 260 226h44v-464h-44z" />
    <glyph glyph-name="periodcentered" unicode="&#xb7;" horiz-adv-x="320" 
d="M60 320c0 58 42 104 100 104s100 -46 100 -104s-42 -104 -100 -104s-100 46 -100 104z" />
    <glyph glyph-name="cedilla" unicode="&#xb8;" horiz-adv-x="560" 
d="M194 -76l40 80h98l-18 -44c34 -12 58 -34 58 -76c0 -72 -88 -104 -190 -108l-12 66c46 4 80 16 80 42c0 14 -10 28 -56 40z" />
    <glyph glyph-name="one.sups" unicode="&#xb9;" horiz-adv-x="380" 
d="M162 440v270h-90v76c58 8 82 20 118 44h98v-390h-126z" />
    <glyph glyph-name="ordmasculine" unicode="&#xba;" horiz-adv-x="376" 
d="M188 252c-86 0 -166 64 -166 173c0 110 80 175 166 175s166 -65 166 -175c0 -109 -80 -173 -166 -173zM188 346c33 0 44 31 44 79c0 49 -11 81 -44 81s-44 -32 -44 -81c0 -48 11 -79 44 -79z" />
    <glyph glyph-name="guillemotright" unicode="&#xbb;" horiz-adv-x="500" 
d="M54 102l108 150l-108 150l62 50l134 -140v-120l-134 -140zM254 102l108 150l-108 150l62 50l134 -140v-120l-134 -140z" />
    <glyph glyph-name="onequarter" unicode="&#xbc;" horiz-adv-x="820" 
d="M256 260h-126v270h-90v76c58 8 82 20 118 44h98v-390zM536 662h96l-348 -674h-96zM584 160h68v30l6 120h-4l-36 -76zM820 160v-80h-58v-80h-110v80h-180v62l132 248h158v-230h58z" />
    <glyph glyph-name="onehalf" unicode="&#xbd;" horiz-adv-x="860" 
d="M130 260v270h-90v76c58 8 82 20 118 44h98v-390h-126zM270 -12h-96l348 674h96zM522 0v66c92 72 166 136 166 180c0 34 -18 54 -50 54c-24 0 -44 -16 -66 -44l-70 64c44 56 94 82 156 82c90 0 150 -50 150 -134c0 -59 -44 -112 -88 -164h100v-104h-298z" />
    <glyph glyph-name="threequarters" unicode="&#xbe;" horiz-adv-x="826" 
d="M106 532l-70 62c46 48 86 68 150 68c74 0 140 -42 140 -110c0 -40 -18 -66 -52 -88c38 -18 66 -50 66 -94c0 -72 -74 -122 -156 -122c-70 0 -128 26 -164 80l74 58c24 -32 46 -44 76 -44c27 0 48 14 48 38c0 30 -25 44 -82 44v70c41 0 68 10 68 40c0 22 -16 34 -40 34
s-42 -16 -58 -36zM552 662h96l-348 -674h-96zM590 160h68v30l6 120h-4l-36 -76zM826 160v-80h-58v-80h-110v80h-180v62l132 248h158v-230h58z" />
    <glyph glyph-name="questiondown" unicode="&#xbf;" horiz-adv-x="478" 
d="M326 256c20 -130 -122 -186 -122 -250c0 -36 26 -50 56 -50c34 0 56 18 82 42l94 -86c-47 -56 -112 -94 -188 -94c-116 0 -208 50 -208 176c0 120 146 152 136 262h150zM352 408c0 -58 -42 -104 -100 -104s-100 46 -100 104s42 104 100 104s100 -46 100 -104z" />
    <glyph glyph-name="Agrave" unicode="&#xc0;" horiz-adv-x="584" 
d="M372 700h-136l-122 124h180zM229 271h120l-11 45c-16 62 -32 141 -48 206h-4c-14 -66 -30 -144 -46 -206zM412 0l-32 138h-182l-32 -138h-176l198 650h208l198 -650h-182z" />
    <glyph glyph-name="Aacute" unicode="&#xc1;" horiz-adv-x="584" 
d="M462 824l-122 -124h-136l78 124h180zM229 271h120l-11 45c-16 62 -32 141 -48 206h-4c-14 -66 -30 -144 -46 -206zM412 0l-32 138h-182l-32 -138h-176l198 650h208l198 -650h-182z" />
    <glyph glyph-name="Acircumflex" unicode="&#xc2;" horiz-adv-x="584" 
d="M286 758l-48 -58h-130l96 124h168l96 -124h-130l-48 58h-4zM229 271h120l-11 45c-16 62 -32 141 -48 206h-4c-14 -66 -30 -144 -46 -206zM412 0l-32 138h-182l-32 -138h-176l198 650h208l198 -650h-182z" />
    <glyph glyph-name="Atilde" unicode="&#xc3;" horiz-adv-x="584" 
d="M382 846h86c-12 -102 -62 -146 -116 -146s-92 42 -120 42c-16 0 -30 -10 -38 -42h-86c12 102 62 146 116 146s92 -42 120 -42c16 0 30 10 38 42zM229 271h120l-11 45c-16 62 -32 141 -48 206h-4c-14 -66 -30 -144 -46 -206zM412 0l-32 138h-182l-32 -138h-176l198 650
h208l198 -650h-182z" />
    <glyph glyph-name="Adieresis" unicode="&#xc4;" horiz-adv-x="584" 
d="M392 694c-46 0 -78 34 -78 78s32 78 78 78s78 -34 78 -78s-32 -78 -78 -78zM184 694c-46 0 -78 34 -78 78s32 78 78 78s78 -34 78 -78s-32 -78 -78 -78zM229 271h120l-11 45c-16 62 -32 141 -48 206h-4c-14 -66 -30 -144 -46 -206zM412 0l-32 138h-182l-32 -138h-176
l198 650h208l198 -650h-182z" />
    <glyph glyph-name="Aring" unicode="&#xc5;" horiz-adv-x="584" 
d="M288 838c-21 0 -38 -16 -38 -40s17 -40 38 -40s38 16 38 40s-17 40 -38 40zM288 696c-72 0 -120 40 -120 102s48 102 120 102s120 -40 120 -102s-48 -102 -120 -102zM229 271h120l-11 45c-16 62 -32 141 -48 206h-4c-14 -66 -30 -144 -46 -206zM412 0l-32 138h-182
l-32 -138h-176l198 650h208l198 -650h-182z" />
    <glyph glyph-name="AE" unicode="&#xc6;" horiz-adv-x="854" 
d="M272 265h108v257h-4c-24 -62 -46 -122 -68 -174zM552 144h248v-144h-420v132h-165l-57 -132h-180l296 650h516v-144h-238v-102h202v-144h-202v-116z" />
    <glyph glyph-name="Ccedilla" unicode="&#xc7;" horiz-adv-x="586" 
d="M474 188l94 -104c-46 -53 -105 -84 -169 -93l-13 -31c34 -12 58 -34 58 -76c0 -72 -88 -104 -190 -108l-12 66c46 4 80 16 80 42c0 14 -10 28 -56 40l34 68c-143 23 -256 132 -256 328c0 218 150 342 318 342c82 0 152 -40 198 -86l-94 -106c-32 28 -60 44 -102 44
c-78 0 -144 -70 -144 -188c0 -122 56 -190 140 -190c50 0 86 22 114 52z" />
    <glyph glyph-name="Egrave" unicode="&#xc8;" horiz-adv-x="556" 
d="M72 0v650h420v-144h-248v-102h212v-144h-212v-116h258v-144h-430zM238 700l-122 124h180l78 -124h-136z" />
    <glyph glyph-name="Eacute" unicode="&#xc9;" horiz-adv-x="556" 
d="M72 0v650h420v-144h-248v-102h212v-144h-212v-116h258v-144h-430zM464 824l-122 -124h-136l78 124h180z" />
    <glyph glyph-name="Ecircumflex" unicode="&#xca;" horiz-adv-x="556" 
d="M72 0v650h420v-144h-248v-102h212v-144h-212v-116h258v-144h-430zM240 700h-130l96 124h168l96 -124h-130l-48 58h-4z" />
    <glyph glyph-name="Edieresis" unicode="&#xcb;" horiz-adv-x="556" 
d="M72 0v650h420v-144h-248v-102h212v-144h-212v-116h258v-144h-430zM186 694c-46 0 -78 34 -78 78s32 78 78 78s78 -34 78 -78s-32 -78 -78 -78zM394 694c-46 0 -78 34 -78 78s32 78 78 78s78 -34 78 -78s-32 -78 -78 -78z" />
    <glyph glyph-name="Igrave" unicode="&#xcc;" horiz-adv-x="316" 
d="M72 0v650h172v-650h-172zM106 700l-122 124h180l78 -124h-136z" />
    <glyph glyph-name="Iacute" unicode="&#xcd;" horiz-adv-x="316" 
d="M72 0v650h172v-650h-172zM332 824l-122 -124h-136l78 124h180z" />
    <glyph glyph-name="Icircumflex" unicode="&#xce;" horiz-adv-x="316" 
d="M72 0v650h172v-650h-172zM108 700h-130l96 124h168l96 -124h-130l-48 58h-4z" />
    <glyph glyph-name="Idieresis" unicode="&#xcf;" horiz-adv-x="316" 
d="M72 0v650h172v-650h-172zM54 694c-46 0 -78 34 -78 78s32 78 78 78s78 -34 78 -78s-32 -78 -78 -78zM262 694c-46 0 -78 34 -78 78s32 78 78 78s78 -34 78 -78s-32 -78 -78 -78z" />
    <glyph glyph-name="Eth" unicode="&#xd0;" horiz-adv-x="668" 
d="M270 138h10c94 0 168 38 168 190s-74 184 -168 184h-10v-138h116v-80h-116v-156zM98 650h192c198 0 334 -92 334 -322s-136 -328 -324 -328h-202v294h-74v74l74 6v276z" />
    <glyph glyph-name="Ntilde" unicode="&#xd1;" horiz-adv-x="672" 
d="M72 0v650h176l144 -290l62 -146h4c-8 70 -22 168 -22 248v188h164v-650h-176l-144 291l-62 145h-4c8 -74 22 -168 22 -248v-188h-164zM400 700c-54 0 -92 42 -120 42c-16 0 -30 -10 -38 -42h-86c12 102 62 146 116 146s92 -42 120 -42c16 0 30 10 38 42h86
c-12 -102 -62 -146 -116 -146z" />
    <glyph glyph-name="Ograve" unicode="&#xd2;" horiz-adv-x="692" 
d="M346 -12c-180 0 -302 126 -302 340s122 334 302 334s302 -121 302 -334c0 -214 -122 -340 -302 -340zM346 136c78 0 126 74 126 192s-48 186 -126 186s-126 -68 -126 -186s48 -192 126 -192zM294 700l-122 124h180l78 -124h-136z" />
    <glyph glyph-name="Oacute" unicode="&#xd3;" horiz-adv-x="692" 
d="M346 -12c-180 0 -302 126 -302 340s122 334 302 334s302 -121 302 -334c0 -214 -122 -340 -302 -340zM346 136c78 0 126 74 126 192s-48 186 -126 186s-126 -68 -126 -186s48 -192 126 -192zM520 824l-122 -124h-136l78 124h180z" />
    <glyph glyph-name="Ocircumflex" unicode="&#xd4;" horiz-adv-x="692" 
d="M346 -12c-180 0 -302 126 -302 340s122 334 302 334s302 -121 302 -334c0 -214 -122 -340 -302 -340zM346 136c78 0 126 74 126 192s-48 186 -126 186s-126 -68 -126 -186s48 -192 126 -192zM296 700h-130l96 124h168l96 -124h-130l-48 58h-4z" />
    <glyph glyph-name="Otilde" unicode="&#xd5;" horiz-adv-x="692" 
d="M346 -12c-180 0 -302 126 -302 340s122 334 302 334s302 -121 302 -334c0 -214 -122 -340 -302 -340zM346 136c78 0 126 74 126 192s-48 186 -126 186s-126 -68 -126 -186s48 -192 126 -192zM410 700c-54 0 -92 42 -120 42c-16 0 -30 -10 -38 -42h-86
c12 102 62 146 116 146s92 -42 120 -42c16 0 30 10 38 42h86c-12 -102 -62 -146 -116 -146z" />
    <glyph glyph-name="Odieresis" unicode="&#xd6;" horiz-adv-x="692" 
d="M346 -12c-180 0 -302 126 -302 340s122 334 302 334s302 -121 302 -334c0 -214 -122 -340 -302 -340zM346 136c78 0 126 74 126 192s-48 186 -126 186s-126 -68 -126 -186s48 -192 126 -192zM242 694c-46 0 -78 34 -78 78s32 78 78 78s78 -34 78 -78s-32 -78 -78 -78z
M450 694c-46 0 -78 34 -78 78s32 78 78 78s78 -34 78 -78s-32 -78 -78 -78z" />
    <glyph glyph-name="multiply" unicode="&#xd7;" horiz-adv-x="540" 
d="M132 106l-85 85l138 138l-138 138l85 85l138 -138l138 138l85 -85l-138 -138l138 -138l-85 -85l-138 138z" />
    <glyph glyph-name="Oslash" unicode="&#xd8;" horiz-adv-x="692" 
d="M469 375l-182 -222c17 -11 37 -17 59 -17c78 0 126 74 126 192c0 17 -1 33 -3 47zM227 255l191 233c-20 17 -44 26 -72 26c-78 0 -126 -68 -126 -186c0 -27 2 -51 7 -73zM676 628l-79 -96c33 -53 51 -122 51 -204c0 -214 -122 -340 -302 -340c-61 0 -115 14 -160 42
l-62 -76l-88 68l69 84c-39 56 -61 131 -61 222c0 214 122 334 302 334c67 0 126 -17 174 -49l68 83z" />
    <glyph glyph-name="Ugrave" unicode="&#xd9;" horiz-adv-x="672" 
d="M68 314v336h172v-356c0 -116 30 -158 98 -158s100 42 100 158v356h166v-336c0 -222 -84 -326 -266 -326s-270 104 -270 326zM284 700l-122 124h180l78 -124h-136z" />
    <glyph glyph-name="Uacute" unicode="&#xda;" horiz-adv-x="672" 
d="M68 314v336h172v-356c0 -116 30 -158 98 -158s100 42 100 158v356h166v-336c0 -222 -84 -326 -266 -326s-270 104 -270 326zM510 824l-122 -124h-136l78 124h180z" />
    <glyph glyph-name="Ucircumflex" unicode="&#xdb;" horiz-adv-x="672" 
d="M68 314v336h172v-356c0 -116 30 -158 98 -158s100 42 100 158v356h166v-336c0 -222 -84 -326 -266 -326s-270 104 -270 326zM286 700h-130l96 124h168l96 -124h-130l-48 58h-4z" />
    <glyph glyph-name="Udieresis" unicode="&#xdc;" horiz-adv-x="672" 
d="M68 314v336h172v-356c0 -116 30 -158 98 -158s100 42 100 158v356h166v-336c0 -222 -84 -326 -266 -326s-270 104 -270 326zM232 694c-46 0 -78 34 -78 78s32 78 78 78s78 -34 78 -78s-32 -78 -78 -78zM440 694c-46 0 -78 34 -78 78s32 78 78 78s78 -34 78 -78
s-32 -78 -78 -78z" />
    <glyph glyph-name="Yacute" unicode="&#xdd;" horiz-adv-x="544" 
d="M186 0v224l-196 426h184l48 -136c16 -49 32 -94 49 -145h4c17 51 34 96 51 145l48 136h180l-196 -426v-224h-172zM446 824l-122 -124h-136l78 124h180z" />
    <glyph glyph-name="Thorn" unicode="&#xde;" horiz-adv-x="630" 
d="M72 0v650h172v-94h80c140 0 260 -52 260 -216c0 -159 -124 -228 -260 -228h-80v-112h-172zM244 248h72c68 0 100 34 100 92s-36 80 -100 80h-72v-172z" />
    <glyph glyph-name="germandbls" unicode="&#xdf;" horiz-adv-x="654" 
d="M58 0v476c0 130 79 230 254 230c148 0 220 -86 220 -174c0 -94 -72 -122 -72 -166c0 -54 168 -58 168 -208c0 -94 -64 -170 -194 -170c-60 0 -104 16 -154 44l58 116c32 -24 62 -34 90 -34c26 0 44 14 44 36c0 60 -168 66 -168 194c0 72 64 98 64 168c0 34 -20 60 -56 60
c-57 0 -84 -46 -84 -114v-458h-170z" />
    <glyph glyph-name="agrave" unicode="&#xe0;" horiz-adv-x="542" 
d="M42 142c0 104 80 162 272 182c-4 36 -26 52 -70 52c-36 0 -74 -14 -126 -42l-60 112c70 42 142 66 220 66c130 0 208 -70 208 -234v-278h-140l-12 48h-4c-40 -36 -84 -60 -138 -60c-94 0 -150 72 -150 154zM206 156c0 -23 16 -36 46 -36c28 0 44 14 62 34v68
c-82 -12 -108 -38 -108 -66zM249 574l-128 154h164l88 -154h-124z" />
    <glyph glyph-name="aacute" unicode="&#xe1;" horiz-adv-x="542" 
d="M42 142c0 104 80 162 272 182c-4 36 -26 52 -70 52c-36 0 -74 -14 -126 -42l-60 112c70 42 142 66 220 66c130 0 208 -70 208 -234v-278h-140l-12 48h-4c-40 -36 -84 -60 -138 -60c-94 0 -150 72 -150 154zM206 156c0 -23 16 -36 46 -36c28 0 44 14 62 34v68
c-82 -12 -108 -38 -108 -66zM449 728l-128 -154h-124l88 154h164z" />
    <glyph glyph-name="acircumflex" unicode="&#xe2;" horiz-adv-x="542" 
d="M42 142c0 104 80 162 272 182c-4 36 -26 52 -70 52c-36 0 -74 -14 -126 -42l-60 112c70 42 142 66 220 66c130 0 208 -70 208 -234v-278h-140l-12 48h-4c-40 -36 -84 -60 -138 -60c-94 0 -150 72 -150 154zM206 156c0 -23 16 -36 46 -36c28 0 44 14 62 34v68
c-82 -12 -108 -38 -108 -66zM121 574l96 154h136l96 -154h-114l-48 74h-4l-48 -74h-114z" />
    <glyph glyph-name="atilde" unicode="&#xe3;" horiz-adv-x="542" 
d="M42 142c0 104 80 162 272 182c-4 36 -26 52 -70 52c-36 0 -74 -14 -126 -42l-60 112c70 42 142 66 220 66c130 0 208 -70 208 -234v-278h-140l-12 48h-4c-40 -36 -84 -60 -138 -60c-94 0 -150 72 -150 154zM206 156c0 -23 16 -36 46 -36c28 0 44 14 62 34v68
c-82 -12 -108 -38 -108 -66zM109 574c12 102 58 146 112 146s92 -42 120 -42c16 0 26 10 34 42h86c-12 -102 -58 -146 -112 -146s-92 42 -120 42c-16 0 -26 -10 -34 -42h-86z" />
    <glyph glyph-name="adieresis" unicode="&#xe4;" horiz-adv-x="542" 
d="M42 142c0 104 80 162 272 182c-4 36 -26 52 -70 52c-36 0 -74 -14 -126 -42l-60 112c70 42 142 66 220 66c130 0 208 -70 208 -234v-278h-140l-12 48h-4c-40 -36 -84 -60 -138 -60c-94 0 -150 72 -150 154zM206 156c0 -23 16 -36 46 -36c28 0 44 14 62 34v68
c-82 -12 -108 -38 -108 -66zM181 564c-46 0 -78 34 -78 78s32 78 78 78s78 -34 78 -78s-32 -78 -78 -78zM389 564c-46 0 -78 34 -78 78s32 78 78 78s78 -34 78 -78s-32 -78 -78 -78z" />
    <glyph glyph-name="aring" unicode="&#xe5;" horiz-adv-x="542" 
d="M42 142c0 104 80 162 272 182c-4 36 -26 52 -70 52c-36 0 -74 -14 -126 -42l-60 112c70 42 142 66 220 66c130 0 208 -70 208 -234v-278h-140l-12 48h-4c-40 -36 -84 -60 -138 -60c-94 0 -150 72 -150 154zM206 156c0 -23 16 -36 46 -36c28 0 44 14 62 34v68
c-82 -12 -108 -38 -108 -66zM285 550c-72 0 -120 42 -120 106s48 106 120 106s120 -42 120 -106s-48 -106 -120 -106zM285 612c21 0 38 18 38 44s-17 44 -38 44s-38 -18 -38 -44s17 -44 38 -44z" />
    <glyph glyph-name="ae" unicode="&#xe6;" horiz-adv-x="786" 
d="M206 156c0 -23 16 -36 46 -36c29 0 52 12 72 30c-6 18 -10 36 -12 53l-2 19c-75 -12 -104 -37 -104 -66zM118 334l-60 112c70 42 138 66 210 66c58 0 106 -24 138 -64c44 42 86 64 142 64c136 0 202 -112 202 -246c0 -30 -4 -56 -7 -68h-275c14 -56 55 -76 106 -76
c34 0 64 14 100 34l58 -110c-54 -38 -126 -58 -182 -58c-70 0 -127 27 -170 72c-72 -55 -121 -72 -188 -72c-94 0 -150 72 -150 154c0 104 78 163 270 183c-4 35 -23 51 -68 51c-36 0 -74 -14 -126 -42zM468 302h136c0 44 -16 80 -62 80c-38 0 -66 -22 -74 -80z" />
    <glyph glyph-name="ccedilla" unicode="&#xe7;" horiz-adv-x="472" 
d="M335 -7l-14 -33c34 -12 58 -34 58 -76c0 -72 -88 -104 -190 -108l-12 66c46 4 80 16 80 42c0 14 -10 28 -56 40l34 68c-118 20 -203 112 -203 258c0 166 126 262 268 262c60 0 112 -22 146 -56l-78 -106c-22 18 -40 24 -58 24c-64 0 -102 -48 -102 -124s42 -124 96 -124
c32 0 58 16 80 32l68 -108c-35 -31 -77 -49 -117 -57z" />
    <glyph glyph-name="egrave" unicode="&#xe8;" horiz-adv-x="526" 
d="M32 250c0 162 118 262 240 262c148 0 218 -108 218 -242c0 -30 -4 -56 -7 -68h-285c16 -64 60 -84 116 -84c34 0 66 10 102 30l56 -102c-54 -38 -126 -58 -182 -58c-146 0 -258 96 -258 262zM196 306h148c0 42 -16 76 -68 76c-38 0 -70 -21 -80 -76zM236 574l-128 154
h164l88 -154h-124z" />
    <glyph glyph-name="eacute" unicode="&#xe9;" horiz-adv-x="526" 
d="M32 250c0 162 118 262 240 262c148 0 218 -108 218 -242c0 -30 -4 -56 -7 -68h-285c16 -64 60 -84 116 -84c34 0 66 10 102 30l56 -102c-54 -38 -126 -58 -182 -58c-146 0 -258 96 -258 262zM196 306h148c0 42 -16 76 -68 76c-38 0 -70 -21 -80 -76zM436 728l-128 -154
h-124l88 154h164z" />
    <glyph glyph-name="ecircumflex" unicode="&#xea;" horiz-adv-x="526" 
d="M32 250c0 162 118 262 240 262c148 0 218 -108 218 -242c0 -30 -4 -56 -7 -68h-285c16 -64 60 -84 116 -84c34 0 66 10 102 30l56 -102c-54 -38 -126 -58 -182 -58c-146 0 -258 96 -258 262zM196 306h148c0 42 -16 76 -68 76c-38 0 -70 -21 -80 -76zM108 574l96 154h136
l96 -154h-114l-48 74h-4l-48 -74h-114z" />
    <glyph glyph-name="edieresis" unicode="&#xeb;" horiz-adv-x="526" 
d="M32 250c0 162 118 262 240 262c148 0 218 -108 218 -242c0 -30 -4 -56 -7 -68h-285c16 -64 60 -84 116 -84c34 0 66 10 102 30l56 -102c-54 -38 -126 -58 -182 -58c-146 0 -258 96 -258 262zM196 306h148c0 42 -16 76 -68 76c-38 0 -70 -21 -80 -76zM168 564
c-46 0 -78 34 -78 78s32 78 78 78s78 -34 78 -78s-32 -78 -78 -78zM376 564c-46 0 -78 34 -78 78s32 78 78 78s78 -34 78 -78s-32 -78 -78 -78z" />
    <glyph glyph-name="igrave" unicode="&#xec;" horiz-adv-x="288" 
d="M58 0v500h172v-500h-172zM108 574l-128 154h164l88 -154h-124z" />
    <glyph glyph-name="iacute" unicode="&#xed;" horiz-adv-x="288" 
d="M58 0v500h172v-500h-172zM308 728l-128 -154h-124l88 154h164z" />
    <glyph glyph-name="icircumflex" unicode="&#xee;" horiz-adv-x="288" 
d="M58 0v500h172v-500h-172zM-20 574l96 154h136l96 -154h-114l-48 74h-4l-48 -74h-114z" />
    <glyph glyph-name="idieresis" unicode="&#xef;" horiz-adv-x="288" 
d="M58 0v500h172v-500h-172zM40 564c-46 0 -78 34 -78 78s32 78 78 78s78 -34 78 -78s-32 -78 -78 -78zM248 564c-46 0 -78 34 -78 78s32 78 78 78s78 -34 78 -78s-32 -78 -78 -78z" />
    <glyph glyph-name="eth" unicode="&#xf0;" horiz-adv-x="566" 
d="M280 126c44 0 80 36 80 134c0 14 0 27 -1 39c-24 24 -52 33 -82 33c-46 0 -83 -27 -83 -102c0 -70 40 -104 86 -104zM502 658l-116 -58c79 -80 134 -185 134 -330c0 -162 -92 -282 -246 -282c-128 0 -236 94 -236 242c0 146 102 228 202 228c32 0 67 -8 92 -31
c-17 42 -41 77 -74 109l-142 -71l-44 74l111 56c-24 15 -51 30 -80 45l74 104c47 -24 94 -51 138 -83l143 72z" />
    <glyph glyph-name="ntilde" unicode="&#xf1;" horiz-adv-x="582" 
d="M58 0v500h140l12 -60h4c40 38 90 72 158 72c110 0 156 -80 156 -204v-308h-172v286c0 64 -16 80 -50 80c-32 0 -50 -14 -76 -38v-328h-172zM138 574c12 102 58 146 112 146s92 -42 120 -42c16 0 26 10 34 42h86c-12 -102 -58 -146 -112 -146s-92 42 -120 42
c-16 0 -26 -10 -34 -42h-86z" />
    <glyph glyph-name="ograve" unicode="&#xf2;" horiz-adv-x="560" 
d="M32 250c0 166 120 262 248 262s248 -96 248 -262s-120 -262 -248 -262s-248 96 -248 262zM208 250c0 -76 20 -124 72 -124s72 48 72 124s-20 124 -72 124s-72 -48 -72 -124zM244 574l-128 154h164l88 -154h-124z" />
    <glyph glyph-name="oacute" unicode="&#xf3;" horiz-adv-x="560" 
d="M32 250c0 166 120 262 248 262s248 -96 248 -262s-120 -262 -248 -262s-248 96 -248 262zM208 250c0 -76 20 -124 72 -124s72 48 72 124s-20 124 -72 124s-72 -48 -72 -124zM444 728l-128 -154h-124l88 154h164z" />
    <glyph glyph-name="ocircumflex" unicode="&#xf4;" horiz-adv-x="560" 
d="M32 250c0 166 120 262 248 262s248 -96 248 -262s-120 -262 -248 -262s-248 96 -248 262zM208 250c0 -76 20 -124 72 -124s72 48 72 124s-20 124 -72 124s-72 -48 -72 -124zM116 574l96 154h136l96 -154h-114l-48 74h-4l-48 -74h-114z" />
    <glyph glyph-name="otilde" unicode="&#xf5;" horiz-adv-x="560" 
d="M32 250c0 166 120 262 248 262s248 -96 248 -262s-120 -262 -248 -262s-248 96 -248 262zM208 250c0 -76 20 -124 72 -124s72 48 72 124s-20 124 -72 124s-72 -48 -72 -124zM104 574c12 102 58 146 112 146s92 -42 120 -42c16 0 26 10 34 42h86
c-12 -102 -58 -146 -112 -146s-92 42 -120 42c-16 0 -26 -10 -34 -42h-86z" />
    <glyph glyph-name="odieresis" unicode="&#xf6;" horiz-adv-x="560" 
d="M32 250c0 166 120 262 248 262s248 -96 248 -262s-120 -262 -248 -262s-248 96 -248 262zM208 250c0 -76 20 -124 72 -124s72 48 72 124s-20 124 -72 124s-72 -48 -72 -124zM176 564c-46 0 -78 34 -78 78s32 78 78 78s78 -34 78 -78s-32 -78 -78 -78zM384 564
c-46 0 -78 34 -78 78s32 78 78 78s78 -34 78 -78s-32 -78 -78 -78z" />
    <glyph glyph-name="divide" unicode="&#xf7;" horiz-adv-x="540" 
d="M270 424c-52 0 -92 36 -92 86s40 86 92 86s92 -36 92 -86s-40 -86 -92 -86zM178 150c0 50 40 86 92 86s92 -36 92 -86s-40 -86 -92 -86s-92 36 -92 86zM34 270v120h472v-120h-472z" />
    <glyph glyph-name="oslash" unicode="&#xf8;" horiz-adv-x="560" 
d="M359 287l-123 -153c12 -10 27 -14 44 -14c52 0 82 48 82 120c0 18 -1 33 -3 47zM200 214l123 153c-12 9 -26 13 -43 13c-52 0 -82 -48 -82 -120c0 -17 1 -32 2 -46zM514 480l-45 -56c36 -43 59 -102 59 -174c0 -166 -120 -262 -248 -262c-47 0 -92 13 -131 37l-41 -51
l-62 48l44 55c-36 43 -58 102 -58 173c0 166 120 262 248 262c46 0 91 -12 130 -36l42 52z" />
    <glyph glyph-name="ugrave" unicode="&#xf9;" horiz-adv-x="578" 
d="M54 192v308h172v-286c0 -64 16 -80 50 -80c32 0 50 12 72 44v322h172v-500h-140l-12 66h-4c-40 -48 -86 -78 -154 -78c-110 0 -156 80 -156 204zM254 574l-128 154h164l88 -154h-124z" />
    <glyph glyph-name="uacute" unicode="&#xfa;" horiz-adv-x="578" 
d="M54 192v308h172v-286c0 -64 16 -80 50 -80c32 0 50 12 72 44v322h172v-500h-140l-12 66h-4c-40 -48 -86 -78 -154 -78c-110 0 -156 80 -156 204zM454 728l-128 -154h-124l88 154h164z" />
    <glyph glyph-name="ucircumflex" unicode="&#xfb;" horiz-adv-x="578" 
d="M54 192v308h172v-286c0 -64 16 -80 50 -80c32 0 50 12 72 44v322h172v-500h-140l-12 66h-4c-40 -48 -86 -78 -154 -78c-110 0 -156 80 -156 204zM126 574l96 154h136l96 -154h-114l-48 74h-4l-48 -74h-114z" />
    <glyph glyph-name="udieresis" unicode="&#xfc;" horiz-adv-x="578" 
d="M54 192v308h172v-286c0 -64 16 -80 50 -80c32 0 50 12 72 44v322h172v-500h-140l-12 66h-4c-40 -48 -86 -78 -154 -78c-110 0 -156 80 -156 204zM186 564c-46 0 -78 34 -78 78s32 78 78 78s78 -34 78 -78s-32 -78 -78 -78zM394 564c-46 0 -78 34 -78 78s32 78 78 78
s78 -34 78 -78s-32 -78 -78 -78z" />
    <glyph glyph-name="yacute" unicode="&#xfd;" horiz-adv-x="542" 
d="M86 -48c9 -2 22 -6 32 -6c46 0 68 20 78 50l6 22l-190 482h172l60 -192c14 -46 24 -92 36 -142h4c10 48 20 94 32 142l50 192h164l-168 -492c-52 -135 -106 -196 -230 -196c-34 0 -54 4 -76 10zM440 728l-128 -154h-124l88 154h164z" />
    <glyph glyph-name="thorn" unicode="&#xfe;" horiz-adv-x="580" 
d="M230 -38v-138h-172v872h172v-163l-4 -65c31 28 72 44 114 44c124 0 204 -100 204 -254c0 -172 -102 -270 -208 -270c-48 0 -80 16 -110 44zM230 152c20 -18 42 -24 64 -24c40 0 74 32 74 128c0 82 -24 116 -70 116c-26 0 -46 -10 -68 -36v-184z" />
    <glyph glyph-name="ydieresis" unicode="&#xff;" horiz-adv-x="542" 
d="M86 -48c9 -2 22 -6 32 -6c46 0 68 20 78 50l6 22l-190 482h172l60 -192c14 -46 24 -92 36 -142h4c10 48 20 94 32 142l50 192h164l-168 -492c-52 -135 -106 -196 -230 -196c-34 0 -54 4 -76 10zM172 564c-46 0 -78 34 -78 78s32 78 78 78s78 -34 78 -78s-32 -78 -78 -78z
M380 564c-46 0 -78 34 -78 78s32 78 78 78s78 -34 78 -78s-32 -78 -78 -78z" />
    <glyph glyph-name="Amacron" unicode="&#x100;" horiz-adv-x="584" 
d="M436 824v-108h-296v108h296zM229 271h120l-11 45c-16 62 -32 141 -48 206h-4c-14 -66 -30 -144 -46 -206zM412 0l-32 138h-182l-32 -138h-176l198 650h208l198 -650h-182z" />
    <glyph glyph-name="amacron" unicode="&#x101;" horiz-adv-x="542" 
d="M42 142c0 104 80 162 272 182c-4 36 -26 52 -70 52c-36 0 -74 -14 -126 -42l-60 112c70 42 142 66 220 66c130 0 208 -70 208 -234v-278h-140l-12 48h-4c-40 -36 -84 -60 -138 -60c-94 0 -150 72 -150 154zM206 156c0 -23 16 -36 46 -36c28 0 44 14 62 34v68
c-82 -12 -108 -38 -108 -66zM141 588v108h288v-108h-288z" />
    <glyph glyph-name="Abreve" unicode="&#x102;" horiz-adv-x="584" 
d="M338 824h92c-8 -78 -52 -124 -142 -124s-134 46 -142 124h92c6 -24 20 -40 50 -40s44 16 50 40zM229 271h120l-11 45c-16 62 -32 141 -48 206h-4c-14 -66 -30 -144 -46 -206zM412 0l-32 138h-182l-32 -138h-176l198 650h208l198 -650h-182z" />
    <glyph glyph-name="abreve" unicode="&#x103;" horiz-adv-x="542" 
d="M42 142c0 104 80 162 272 182c-4 36 -26 52 -70 52c-36 0 -74 -14 -126 -42l-60 112c70 42 142 66 220 66c130 0 208 -70 208 -234v-278h-140l-12 48h-4c-40 -36 -84 -60 -138 -60c-94 0 -150 72 -150 154zM206 156c0 -23 16 -36 46 -36c28 0 44 14 62 34v68
c-82 -12 -108 -38 -108 -66zM285 574c-96 0 -142 66 -144 144h94c4 -30 19 -52 50 -52s46 22 50 52h94c-2 -78 -48 -144 -144 -144z" />
    <glyph glyph-name="Aogonek" unicode="&#x104;" horiz-adv-x="584" 
d="M229 271h120l-11 45c-16 62 -32 141 -48 206h-4c-14 -66 -30 -144 -46 -206zM574 -104l38 -86c-28 -22 -76 -38 -114 -38c-68 0 -122 36 -122 98c0 65 52 113 84 130h-48l-32 138h-182l-32 -138h-176l198 650h208l198 -650c-58 0 -94 -44 -94 -84c0 -22 16 -34 36 -34
c15 0 29 7 38 14z" />
    <glyph glyph-name="aogonek" unicode="&#x105;" horiz-adv-x="542" 
d="M206 156c0 -23 16 -36 46 -36c28 0 44 14 62 34v68c-82 -12 -108 -38 -108 -66zM42 142c0 104 80 162 272 182c-4 36 -26 52 -70 52c-36 0 -74 -14 -126 -42l-60 112c70 42 142 66 220 66c130 0 208 -70 208 -234v-278c-68 -16 -88 -50 -88 -78c0 -24 20 -34 40 -34
c12 0 26 6 34 12l34 -76c-28 -22 -76 -36 -110 -36c-62 0 -112 32 -112 94c0 60 44 100 64 114l-14 52h-4c-40 -36 -84 -60 -138 -60c-94 0 -150 72 -150 154z" />
    <glyph glyph-name="Cacute" unicode="&#x106;" horiz-adv-x="586" 
d="M44 320c0 218 150 342 318 342c82 0 152 -40 198 -86l-94 -106c-32 28 -60 44 -102 44c-78 0 -144 -70 -144 -188c0 -122 56 -190 140 -190c50 0 86 22 114 52l94 -104c-55 -64 -130 -96 -210 -96c-170 0 -314 110 -314 332zM522 824l-122 -124h-136l78 124h180z" />
    <glyph glyph-name="cacute" unicode="&#x107;" horiz-adv-x="472" 
d="M32 250c0 166 126 262 268 262c60 0 112 -22 146 -56l-78 -106c-22 18 -40 24 -58 24c-64 0 -102 -48 -102 -124s42 -124 96 -124c32 0 58 16 80 32l68 -108c-50 -44 -116 -62 -168 -62c-142 0 -252 96 -252 262zM459 728l-128 -154h-124l88 154h164z" />
    <glyph glyph-name="Ccircumflex" unicode="&#x108;" horiz-adv-x="586" 
d="M44 320c0 218 150 342 318 342c82 0 152 -40 198 -86l-94 -106c-32 28 -60 44 -102 44c-78 0 -144 -70 -144 -188c0 -122 56 -190 140 -190c50 0 86 22 114 52l94 -104c-55 -64 -130 -96 -210 -96c-170 0 -314 110 -314 332zM298 700h-130l96 124h168l96 -124h-130
l-48 58h-4z" />
    <glyph glyph-name="ccircumflex" unicode="&#x109;" horiz-adv-x="472" 
d="M32 250c0 166 126 262 268 262c60 0 112 -22 146 -56l-78 -106c-22 18 -40 24 -58 24c-64 0 -102 -48 -102 -124s42 -124 96 -124c32 0 58 16 80 32l68 -108c-50 -44 -116 -62 -168 -62c-142 0 -252 96 -252 262zM131 574l96 154h136l96 -154h-114l-48 74h-4l-48 -74
h-114z" />
    <glyph glyph-name="Cdotaccent" unicode="&#x10a;" horiz-adv-x="586" 
d="M44 320c0 218 150 342 318 342c82 0 152 -40 198 -86l-94 -106c-32 28 -60 44 -102 44c-78 0 -144 -70 -144 -188c0 -122 56 -190 140 -190c50 0 86 22 114 52l94 -104c-55 -64 -130 -96 -210 -96c-170 0 -314 110 -314 332zM348 696c-56 0 -96 36 -96 86s40 86 96 86
s96 -36 96 -86s-40 -86 -96 -86z" />
    <glyph glyph-name="cdotaccent" unicode="&#x10b;" horiz-adv-x="472" 
d="M32 250c0 166 126 262 268 262c60 0 112 -22 146 -56l-78 -106c-22 18 -40 24 -58 24c-64 0 -102 -48 -102 -124s42 -124 96 -124c32 0 58 16 80 32l68 -108c-50 -44 -116 -62 -168 -62c-142 0 -252 96 -252 262zM295 562c-54 0 -92 36 -92 86s38 86 92 86s92 -36 92 -86
s-38 -86 -92 -86z" />
    <glyph glyph-name="Ccaron" unicode="&#x10c;" horiz-adv-x="586" 
d="M44 320c0 218 150 342 318 342c82 0 152 -40 198 -86l-94 -106c-32 28 -60 44 -102 44c-78 0 -144 -70 -144 -188c0 -122 56 -190 140 -190c50 0 86 22 114 52l94 -104c-55 -64 -130 -96 -210 -96c-170 0 -314 110 -314 332zM398 824h130l-96 -124h-168l-96 124h130
l48 -58h4z" />
    <glyph glyph-name="ccaron" unicode="&#x10d;" horiz-adv-x="472" 
d="M32 250c0 166 126 262 268 262c60 0 112 -22 146 -56l-78 -106c-22 18 -40 24 -58 24c-64 0 -102 -48 -102 -124s42 -124 96 -124c32 0 58 16 80 32l68 -108c-50 -44 -116 -62 -168 -62c-142 0 -252 96 -252 262zM227 574l-96 154h114l48 -74h4l48 74h114l-96 -154h-136z
" />
    <glyph glyph-name="Dcaron" unicode="&#x10e;" horiz-adv-x="642" 
d="M72 0v650h192c198 0 334 -92 334 -322s-136 -328 -324 -328h-202zM244 138h10c94 0 168 38 168 190s-74 184 -168 184h-10v-374zM372 824h130l-96 -124h-168l-96 124h130l48 -58h4z" />
    <glyph glyph-name="dcaron" unicode="&#x10f;" horiz-adv-x="630" 
d="M36 250c0 164 102 262 204 262c54 0 86 -20 116 -50l-6 72v162h172v-696h-140l-12 46h-4c-34 -34 -82 -58 -126 -58c-124 0 -204 100 -204 262zM212 252c0 -90 28 -124 74 -124c26 0 46 8 64 36v184c-20 18 -46 24 -68 24c-36 0 -70 -32 -70 -120zM632 548h-72l-6 226
h108l-2 -74z" />
    <glyph glyph-name="Dcroat" unicode="&#x110;" horiz-adv-x="668" 
d="M270 138h10c94 0 168 38 168 190s-74 184 -168 184h-10v-138h116v-80h-116v-156zM98 650h192c198 0 334 -92 334 -322s-136 -328 -324 -328h-202v294h-74v74l74 6v276z" />
    <glyph glyph-name="dcroat" unicode="&#x111;" horiz-adv-x="580" 
d="M350 164v164c-20 18 -46 24 -68 24c-36 0 -70 -29 -70 -110c0 -85 28 -114 74 -114c26 0 46 8 64 36zM588 630v-74l-66 -5v-551h-144l-10 40h-4c-33 -32 -78 -52 -124 -52c-124 0 -204 94 -204 252c0 156 102 252 204 252c54 0 86 -20 116 -50l-6 72v36h-144v80h144v66
h172v-66h66z" />
    <glyph glyph-name="Emacron" unicode="&#x112;" horiz-adv-x="556" 
d="M72 0v650h420v-144h-248v-102h212v-144h-212v-116h258v-144h-430zM142 716v108h296v-108h-296z" />
    <glyph glyph-name="emacron" unicode="&#x113;" horiz-adv-x="526" 
d="M32 250c0 162 118 262 240 262c148 0 218 -108 218 -242c0 -30 -4 -56 -7 -68h-285c16 -64 60 -84 116 -84c34 0 66 10 102 30l56 -102c-54 -38 -126 -58 -182 -58c-146 0 -258 96 -258 262zM196 306h148c0 42 -16 76 -68 76c-38 0 -70 -21 -80 -76zM128 588v108h288
v-108h-288z" />
    <glyph glyph-name="Ebreve" unicode="&#x114;" horiz-adv-x="556" 
d="M72 0v650h420v-144h-248v-102h212v-144h-212v-116h258v-144h-430zM290 700c-90 0 -134 46 -142 124h92c6 -24 20 -40 50 -40s44 16 50 40h92c-8 -78 -52 -124 -142 -124z" />
    <glyph glyph-name="ebreve" unicode="&#x115;" horiz-adv-x="526" 
d="M32 250c0 162 118 262 240 262c148 0 218 -108 218 -242c0 -30 -4 -56 -7 -68h-285c16 -64 60 -84 116 -84c34 0 66 10 102 30l56 -102c-54 -38 -126 -58 -182 -58c-146 0 -258 96 -258 262zM196 306h148c0 42 -16 76 -68 76c-38 0 -70 -21 -80 -76zM272 574
c-96 0 -142 66 -144 144h94c4 -30 19 -52 50 -52s46 22 50 52h94c-2 -78 -48 -144 -144 -144z" />
    <glyph glyph-name="Edotaccent" unicode="&#x116;" horiz-adv-x="556" 
d="M72 0v650h420v-144h-248v-102h212v-144h-212v-116h258v-144h-430zM290 696c-56 0 -96 36 -96 86s40 86 96 86s96 -36 96 -86s-40 -86 -96 -86z" />
    <glyph glyph-name="edotaccent" unicode="&#x117;" horiz-adv-x="526" 
d="M32 250c0 162 118 262 240 262c148 0 218 -108 218 -242c0 -30 -4 -56 -7 -68h-285c16 -64 60 -84 116 -84c34 0 66 10 102 30l56 -102c-54 -38 -126 -58 -182 -58c-146 0 -258 96 -258 262zM196 306h148c0 42 -16 76 -68 76c-38 0 -70 -21 -80 -76zM272 562
c-54 0 -92 36 -92 86s38 86 92 86s92 -36 92 -86s-38 -86 -92 -86z" />
    <glyph glyph-name="Eogonek" unicode="&#x118;" horiz-adv-x="556" 
d="M72 0v650h420v-144h-248v-102h212v-144h-212v-116h258v-144h-6c-46 0 -84 -43 -84 -84c0 -24 20 -34 40 -34c12 0 25 8 34 14l38 -86c-28 -22 -76 -38 -114 -38c-68 0 -122 36 -122 98c0 63 47 110 80 130h-296z" />
    <glyph glyph-name="eogonek" unicode="&#x119;" horiz-adv-x="526" 
d="M32 250c0 162 118 262 240 262c148 0 218 -108 218 -242c0 -30 -4 -56 -7 -68h-285c16 -64 60 -84 116 -84c34 0 66 10 102 30l56 -102c-88 -60 -106 -86 -106 -124c0 -23 18 -34 41 -34c12 0 24 6 33 12l34 -76c-28 -22 -76 -36 -110 -36c-62 0 -110 32 -110 94
c0 48 30 86 54 108c-10 -2 -14 -2 -18 -2c-146 0 -258 96 -258 262zM196 306h148c0 42 -16 76 -68 76c-38 0 -70 -20 -80 -76z" />
    <glyph glyph-name="Ecaron" unicode="&#x11a;" horiz-adv-x="556" 
d="M72 0v650h420v-144h-248v-102h212v-144h-212v-116h258v-144h-430zM340 824h130l-96 -124h-168l-96 124h130l48 -58h4z" />
    <glyph glyph-name="ecaron" unicode="&#x11b;" horiz-adv-x="526" 
d="M32 250c0 162 118 262 240 262c148 0 218 -108 218 -242c0 -30 -4 -56 -7 -68h-285c16 -64 60 -84 116 -84c34 0 66 10 102 30l56 -102c-54 -38 -126 -58 -182 -58c-146 0 -258 96 -258 262zM196 306h148c0 42 -16 76 -68 76c-38 0 -70 -21 -80 -76zM204 574l-96 154h114
l48 -74h4l48 74h114l-96 -154h-136z" />
    <glyph glyph-name="Gcircumflex" unicode="&#x11c;" horiz-adv-x="646" 
d="M44 320c0 218 150 342 328 342c92 0 162 -40 208 -86l-94 -106c-32 28 -60 44 -112 44c-88 0 -154 -70 -154 -188c0 -122 54 -190 170 -190c18 0 38 4 50 12v90h-96v140h248v-310c-48 -44 -132 -80 -224 -80c-178 0 -324 110 -324 332zM322 700h-130l96 124h168l96 -124
h-130l-48 58h-4z" />
    <glyph glyph-name="gcircumflex" unicode="&#x11d;" horiz-adv-x="546" 
d="M170 -54c0 -32 40 -46 98 -46c56 0 98 18 98 46c0 26 -24 30 -67 30h-39c-40 0 -58 2 -72 6c-12 -12 -18 -22 -18 -36zM30 -82c0 41 24 72 70 96v4c-26 18 -46 44 -46 86c0 34 22 70 56 94v4c-36 24 -68 70 -68 128c0 124 104 182 214 182c28 0 56 -4 80 -12h186v-124
h-72c4 -12 8 -32 8 -52c0 -118 -90 -166 -202 -166c-16 0 -34 2 -56 7c-10 -9 -12 -15 -12 -29c0 -22 20 -30 70 -30h75c125 0 197 -38 197 -130c0 -108 -112 -182 -290 -182c-114 0 -210 34 -210 124zM256 260c32 0 54 22 54 70c0 46 -22 68 -54 68s-54 -22 -54 -68
c0 -48 22 -70 54 -70zM92 574l96 154h136l96 -154h-114l-48 74h-4l-48 -74h-114z" />
    <glyph glyph-name="Gbreve" unicode="&#x11e;" horiz-adv-x="646" 
d="M44 320c0 218 150 342 328 342c92 0 162 -40 208 -86l-94 -106c-32 28 -60 44 -112 44c-88 0 -154 -70 -154 -188c0 -122 54 -190 170 -190c18 0 38 4 50 12v90h-96v140h248v-310c-48 -44 -132 -80 -224 -80c-178 0 -324 110 -324 332zM372 700c-90 0 -134 46 -142 124
h92c6 -24 20 -40 50 -40s44 16 50 40h92c-8 -78 -52 -124 -142 -124z" />
    <glyph glyph-name="gbreve" unicode="&#x11f;" horiz-adv-x="546" 
d="M170 -54c0 -32 40 -46 98 -46c56 0 98 18 98 46c0 26 -24 30 -67 30h-39c-40 0 -58 2 -72 6c-12 -12 -18 -22 -18 -36zM30 -82c0 41 24 72 70 96v4c-26 18 -46 44 -46 86c0 34 22 70 56 94v4c-36 24 -68 70 -68 128c0 124 104 182 214 182c28 0 56 -4 80 -12h186v-124
h-72c4 -12 8 -32 8 -52c0 -118 -90 -166 -202 -166c-16 0 -34 2 -56 7c-10 -9 -12 -15 -12 -29c0 -22 20 -30 70 -30h75c125 0 197 -38 197 -130c0 -108 -112 -182 -290 -182c-114 0 -210 34 -210 124zM256 260c32 0 54 22 54 70c0 46 -22 68 -54 68s-54 -22 -54 -68
c0 -48 22 -70 54 -70zM256 574c-96 0 -142 66 -144 144h94c4 -30 19 -52 50 -52s46 22 50 52h94c-2 -78 -48 -144 -144 -144z" />
    <glyph glyph-name="Gdotaccent" unicode="&#x120;" horiz-adv-x="646" 
d="M44 320c0 218 150 342 328 342c92 0 162 -40 208 -86l-94 -106c-32 28 -60 44 -112 44c-88 0 -154 -70 -154 -188c0 -122 54 -190 170 -190c18 0 38 4 50 12v90h-96v140h248v-310c-48 -44 -132 -80 -224 -80c-178 0 -324 110 -324 332zM372 696c-56 0 -96 36 -96 86
s40 86 96 86s96 -36 96 -86s-40 -86 -96 -86z" />
    <glyph glyph-name="gdotaccent" unicode="&#x121;" horiz-adv-x="546" 
d="M170 -54c0 -32 40 -46 98 -46c56 0 98 18 98 46c0 26 -24 30 -67 30h-39c-40 0 -58 2 -72 6c-12 -12 -18 -22 -18 -36zM30 -82c0 41 24 72 70 96v4c-26 18 -46 44 -46 86c0 34 22 70 56 94v4c-36 24 -68 70 -68 128c0 124 104 182 214 182c28 0 56 -4 80 -12h186v-124
h-72c4 -12 8 -32 8 -52c0 -118 -90 -166 -202 -166c-16 0 -34 2 -56 7c-10 -9 -12 -15 -12 -29c0 -22 20 -30 70 -30h75c125 0 197 -38 197 -130c0 -108 -112 -182 -290 -182c-114 0 -210 34 -210 124zM256 260c32 0 54 22 54 70c0 46 -22 68 -54 68s-54 -22 -54 -68
c0 -48 22 -70 54 -70zM256 562c-54 0 -92 36 -92 86s38 86 92 86s92 -36 92 -86s-38 -86 -92 -86z" />
    <glyph glyph-name="uni0122" unicode="&#x122;" horiz-adv-x="646" 
d="M44 320c0 218 150 342 328 342c92 0 162 -40 208 -86l-94 -106c-32 28 -60 44 -112 44c-88 0 -154 -70 -154 -188c0 -122 54 -190 170 -190c18 0 38 4 50 12v90h-96v140h248v-310c-48 -44 -132 -80 -224 -80c-178 0 -324 110 -324 332zM330 -40c98 -8 130 -34 130 -86
c0 -72 -88 -104 -190 -108l-12 66c46 4 80 12 80 34c0 16 -10 26 -40 34z" />
    <glyph glyph-name="uni0123" unicode="&#x123;" horiz-adv-x="546" 
d="M170 -54c0 -32 40 -46 98 -46c56 0 98 18 98 46c0 26 -24 30 -67 30h-39c-40 0 -58 2 -72 6c-12 -12 -18 -22 -18 -36zM30 -82c0 41 24 72 70 96v4c-26 18 -46 44 -46 86c0 34 22 70 56 94v4c-36 24 -68 70 -68 128c0 124 104 182 214 182c28 0 56 -4 80 -12h186v-124
h-72c4 -12 8 -32 8 -52c0 -118 -90 -166 -202 -166c-16 0 -34 2 -56 7c-10 -9 -12 -15 -12 -29c0 -22 20 -30 70 -30h75c125 0 197 -38 197 -130c0 -108 -112 -182 -290 -182c-114 0 -210 34 -210 124zM256 260c32 0 54 22 54 70c0 46 -22 68 -54 68s-54 -22 -54 -68
c0 -48 22 -70 54 -70zM294 546c-98 8 -130 34 -130 86c0 72 88 104 190 108l12 -66c-46 -4 -80 -12 -80 -34c0 -16 10 -26 40 -34z" />
    <glyph glyph-name="Hcircumflex" unicode="&#x124;" horiz-adv-x="682" 
d="M72 0v650h172v-242h194v242h172v-650h-172v258h-194v-258h-172zM290 700h-130l96 124h168l96 -124h-130l-48 58h-4z" />
    <glyph glyph-name="hcircumflex" unicode="&#x125;" horiz-adv-x="582" 
d="M58 0v696h172v-162l-8 -86c34 30 82 64 150 64c110 0 156 -80 156 -204v-308h-172v286c0 64 -16 80 -50 80c-32 0 -50 -14 -76 -38v-328h-172zM92 750h-130l96 124h168l96 -124h-130l-48 58h-4z" />
    <glyph glyph-name="Hbar" unicode="&#x126;" horiz-adv-x="722" 
d="M458 408v76h-194v-76h194zM700 564v-80h-70v-484h-172v258h-194v-258h-172v484h-70v74l70 6v86h172v-86h194v86h172v-86h70z" />
    <glyph glyph-name="hbar" unicode="&#x127;" horiz-adv-x="582" 
d="M230 514l-8 -86c34 30 82 64 150 64c110 0 156 -80 156 -204v-288h-172v266c0 64 -16 80 -50 80c-32 0 -50 -14 -76 -38v-308h-172v550h-66v74l66 5v67h172v-66h164v-80h-164v-36z" />
    <glyph glyph-name="Itilde" unicode="&#x128;" horiz-adv-x="316" 
d="M72 0v650h172v-650h-172zM222 700c-54 0 -92 42 -120 42c-16 0 -30 -10 -38 -42h-86c12 102 62 146 116 146s92 -42 120 -42c16 0 30 10 38 42h86c-12 -102 -62 -146 -116 -146z" />
    <glyph glyph-name="itilde" unicode="&#x129;" horiz-adv-x="288" 
d="M58 0v500h172v-500h-172zM-32 574c12 102 58 146 112 146s92 -42 120 -42c16 0 26 10 34 42h86c-12 -102 -58 -146 -112 -146s-92 42 -120 42c-16 0 -26 -10 -34 -42h-86z" />
    <glyph glyph-name="Imacron" unicode="&#x12a;" horiz-adv-x="316" 
d="M72 0v650h172v-650h-172zM10 716v108h296v-108h-296z" />
    <glyph glyph-name="imacron" unicode="&#x12b;" horiz-adv-x="288" 
d="M58 0v500h172v-500h-172zM0 588v108h288v-108h-288z" />
    <glyph glyph-name="uni012C" unicode="&#x12c;" horiz-adv-x="316" 
d="M72 0v650h172v-650h-172zM158 700c-90 0 -134 46 -142 124h92c6 -24 20 -40 50 -40s44 16 50 40h92c-8 -78 -52 -124 -142 -124z" />
    <glyph glyph-name="uni012D" unicode="&#x12d;" horiz-adv-x="288" 
d="M58 0v500h172v-500h-172zM144 574c-96 0 -142 66 -144 144h94c4 -30 19 -52 50 -52s46 22 50 52h94c-2 -78 -48 -144 -144 -144z" />
    <glyph glyph-name="Iogonek" unicode="&#x12e;" horiz-adv-x="316" 
d="M72 0v650h172v-650c-58 -18 -78 -52 -78 -84c0 -24 20 -34 39 -34c13 0 27 8 35 14l38 -86c-28 -22 -76 -38 -114 -38c-68 0 -122 36 -122 98c0 66 49 112 77 130h-47z" />
    <glyph glyph-name="iogonek" unicode="&#x12f;" horiz-adv-x="288" 
d="M58 0v500h172v-500c-58 -16 -74 -50 -74 -78c0 -23 19 -34 41 -34c11 0 22 6 33 12l34 -76c-28 -22 -76 -36 -110 -36c-62 0 -112 32 -112 94c0 59 42 101 66 118h-50zM144 562c-56 0 -96 36 -96 86s40 86 96 86s96 -36 96 -86s-40 -86 -96 -86z" />
    <glyph glyph-name="Idotaccent" unicode="&#x130;" horiz-adv-x="316" 
d="M72 0v650h172v-650h-172zM158 696c-56 0 -96 36 -96 86s40 86 96 86s96 -36 96 -86s-40 -86 -96 -86z" />
    <glyph glyph-name="dotlessi" unicode="&#x131;" horiz-adv-x="288" 
d="M58 0v500h172v-500h-172z" />
    <glyph glyph-name="Jcircumflex" unicode="&#x134;" horiz-adv-x="520" 
d="M10 111l116 87c22 -42 54 -62 82 -62c46 0 72 22 72 104v410h172v-424c0 -130 -70 -238 -220 -238c-106 0 -174 40 -222 123zM314 700h-130l96 124h168l96 -124h-130l-48 58h-4z" />
    <glyph glyph-name="jcircumflex" unicode="&#x135;" horiz-adv-x="290" 
d="M60 20v480h172v-474c0 -112 -44 -214 -194 -214c-46 0 -72 6 -94 14l30 126c14 -4 24 -6 36 -6c36 0 50 20 50 74zM-18 574l96 154h136l96 -154h-114l-48 74h-4l-48 -74h-114z" />
    <glyph glyph-name="uni0136" unicode="&#x136;" horiz-adv-x="628" 
d="M72 0v650h172v-242h4l164 242h188l-194 -264l232 -386h-188l-144 250l-62 -88v-162h-172zM296 -40c98 -8 130 -34 130 -86c0 -72 -88 -104 -190 -108l-12 66c46 4 80 12 80 34c0 16 -10 26 -40 34z" />
    <glyph glyph-name="uni0137" unicode="&#x137;" horiz-adv-x="568" 
d="M58 0v696h168v-370h4l138 174h186l-178 -208l188 -292h-186l-100 178l-52 -58v-120h-168zM266 -40c98 -8 130 -34 130 -86c0 -72 -88 -104 -190 -108l-12 66c46 4 80 12 80 34c0 16 -10 26 -40 34z" />
    <glyph glyph-name="kgreenlandic" unicode="&#x138;" horiz-adv-x="568" 
d="M58 0v500h172v-178h4l134 178h186l-174 -208l184 -292h-186l-100 172l-48 -58v-114h-172z" />
    <glyph glyph-name="Lacute" unicode="&#x139;" horiz-adv-x="530" 
d="M72 0v650h172v-506h246v-144h-418zM336 824l-122 -124h-136l78 124h180z" />
    <glyph glyph-name="lacute" unicode="&#x13a;" horiz-adv-x="298" 
d="M58 176v520h172v-526c0 -34 16 -44 28 -44c6 0 10 0 18 2l20 -126c-18 -8 -46 -14 -84 -14c-116 0 -154 76 -154 188zM323 880l-122 -124h-136l78 124h180z" />
    <glyph glyph-name="uni013B" unicode="&#x13b;" horiz-adv-x="530" 
d="M72 0v650h172v-506h246v-144h-418zM253 -40c98 -8 130 -34 130 -86c0 -72 -88 -104 -190 -108l-12 66c46 4 80 12 80 34c0 16 -10 26 -40 34z" />
    <glyph glyph-name="uni013C" unicode="&#x13c;" horiz-adv-x="298" 
d="M58 176v520h172v-526c0 -34 16 -44 28 -44c6 0 10 0 18 2l20 -126c-18 -8 -46 -14 -84 -14c-116 0 -154 76 -154 188zM160 -40c98 -8 130 -34 130 -86c0 -72 -88 -104 -190 -108l-12 66c46 4 80 12 80 34c0 16 -10 26 -40 34z" />
    <glyph glyph-name="Lcaron" unicode="&#x13d;" horiz-adv-x="530" 
d="M72 0v650h172v-506h246v-144h-418zM432 508h-72l-6 226h108l-2 -74z" />
    <glyph glyph-name="lcaron" unicode="&#x13e;" horiz-adv-x="338" 
d="M58 176v520h172v-526c0 -34 16 -44 28 -44c6 0 10 0 18 2l20 -126c-18 -8 -46 -14 -84 -14c-116 0 -154 76 -154 188zM340 548h-72l-6 226h108l-2 -74z" />
    <glyph glyph-name="Ldot" unicode="&#x13f;" horiz-adv-x="530" 
d="M72 0v650h172v-506h246v-144h-418zM323 330c0 58 42 104 100 104s100 -46 100 -104s-42 -104 -100 -104s-100 46 -100 104z" />
    <glyph glyph-name="ldot" unicode="&#x140;" horiz-adv-x="488" 
d="M58 176v520h172v-526c0 -34 16 -44 28 -44c6 0 10 0 18 2l20 -126c-18 -8 -46 -14 -84 -14c-116 0 -154 76 -154 188zM288 330c0 58 42 104 100 104s100 -46 100 -104s-42 -104 -100 -104s-100 46 -100 104z" />
    <glyph glyph-name="Lslash" unicode="&#x141;" horiz-adv-x="538" 
d="M252 144h246v-144h-418v198l-70 -42v132l70 42v320h172v-240l168 94v-132l-168 -94v-134z" />
    <glyph glyph-name="lslash" unicode="&#x142;" horiz-adv-x="318" 
d="M288 128l20 -126c-18 -8 -46 -14 -84 -14c-116 0 -154 76 -154 188v79l-58 -35v136l58 35v305h172v-221l64 37v-136l-64 -37v-169c0 -34 16 -44 28 -44c6 0 10 0 18 2z" />
    <glyph glyph-name="Nacute" unicode="&#x143;" horiz-adv-x="672" 
d="M72 0v650h176l144 -290l62 -146h4c-8 70 -22 168 -22 248v188h164v-650h-176l-144 291l-62 145h-4c8 -74 22 -168 22 -248v-188h-164zM510 824l-122 -124h-136l78 124h180z" />
    <glyph glyph-name="nacute" unicode="&#x144;" horiz-adv-x="582" 
d="M58 0v500h140l12 -60h4c40 38 90 72 158 72c110 0 156 -80 156 -204v-308h-172v286c0 64 -16 80 -50 80c-32 0 -50 -14 -76 -38v-328h-172zM478 728l-128 -154h-124l88 154h164z" />
    <glyph glyph-name="uni0145" unicode="&#x145;" horiz-adv-x="672" 
d="M72 0v650h176l144 -290l62 -146h4c-8 70 -22 168 -22 248v188h164v-650h-176l-144 291l-62 145h-4c8 -74 22 -168 22 -248v-188h-164zM312 -40c98 -8 130 -34 130 -86c0 -72 -88 -104 -190 -108l-12 66c46 4 80 12 80 34c0 16 -10 26 -40 34z" />
    <glyph glyph-name="uni0146" unicode="&#x146;" horiz-adv-x="582" 
d="M58 0v500h140l12 -60h4c40 38 90 72 158 72c110 0 156 -80 156 -204v-308h-172v286c0 64 -16 80 -50 80c-32 0 -50 -14 -76 -38v-328h-172zM258 -40c98 -8 130 -34 130 -86c0 -72 -88 -104 -190 -108l-12 66c46 4 80 12 80 34c0 16 -10 26 -40 34z" />
    <glyph glyph-name="Ncaron" unicode="&#x147;" horiz-adv-x="672" 
d="M72 0v650h176l144 -290l62 -146h4c-8 70 -22 168 -22 248v188h164v-650h-176l-144 291l-62 145h-4c8 -74 22 -168 22 -248v-188h-164zM386 824h130l-96 -124h-168l-96 124h130l48 -58h4z" />
    <glyph glyph-name="ncaron" unicode="&#x148;" horiz-adv-x="582" 
d="M58 0v500h140l12 -60h4c40 38 90 72 158 72c110 0 156 -80 156 -204v-308h-172v286c0 64 -16 80 -50 80c-32 0 -50 -14 -76 -38v-328h-172zM246 574l-96 154h114l48 -74h4l48 74h114l-96 -154h-136z" />
    <glyph glyph-name="napostrophe" unicode="&#x149;" horiz-adv-x="882" 
d="M110 322l-36 74c64 28 96 67 96 127c-3 -1 -7 -1 -10 -1c-48 0 -86 32 -86 82c0 56 36 92 86 92c70 0 106 -54 106 -146c0 -100 -50 -178 -156 -228zM510 440h4c40 38 90 72 158 72c110 0 156 -80 156 -204v-308h-172v286c0 64 -16 80 -50 80c-32 0 -50 -14 -76 -38v-328
h-172v500h140z" />
    <glyph glyph-name="Omacron" unicode="&#x14c;" horiz-adv-x="692" 
d="M346 -12c-180 0 -302 126 -302 340s122 334 302 334s302 -121 302 -334c0 -214 -122 -340 -302 -340zM346 136c78 0 126 74 126 192s-48 186 -126 186s-126 -68 -126 -186s48 -192 126 -192zM198 716v108h296v-108h-296z" />
    <glyph glyph-name="omacron" unicode="&#x14d;" horiz-adv-x="560" 
d="M32 250c0 166 120 262 248 262s248 -96 248 -262s-120 -262 -248 -262s-248 96 -248 262zM208 250c0 -76 20 -124 72 -124s72 48 72 124s-20 124 -72 124s-72 -48 -72 -124zM136 588v108h288v-108h-288z" />
    <glyph glyph-name="uni014E" unicode="&#x14e;" horiz-adv-x="692" 
d="M346 -12c-180 0 -302 126 -302 340s122 334 302 334s302 -121 302 -334c0 -214 -122 -340 -302 -340zM346 136c78 0 126 74 126 192s-48 186 -126 186s-126 -68 -126 -186s48 -192 126 -192zM346 700c-90 0 -134 46 -142 124h92c6 -24 20 -40 50 -40s44 16 50 40h92
c-8 -78 -52 -124 -142 -124z" />
    <glyph glyph-name="uni014F" unicode="&#x14f;" horiz-adv-x="560" 
d="M32 250c0 166 120 262 248 262s248 -96 248 -262s-120 -262 -248 -262s-248 96 -248 262zM208 250c0 -76 20 -124 72 -124s72 48 72 124s-20 124 -72 124s-72 -48 -72 -124zM280 574c-96 0 -142 66 -144 144h94c4 -30 19 -52 50 -52s46 22 50 52h94
c-2 -78 -48 -144 -144 -144z" />
    <glyph glyph-name="Ohungarumlaut" unicode="&#x150;" horiz-adv-x="692" 
d="M346 -12c-180 0 -302 126 -302 340s122 334 302 334s302 -121 302 -334c0 -214 -122 -340 -302 -340zM346 136c78 0 126 74 126 192s-48 186 -126 186s-126 -68 -126 -186s48 -192 126 -192zM312 700h-114l62 124h144zM386 700l62 124h144l-92 -124h-114z" />
    <glyph glyph-name="ohungarumlaut" unicode="&#x151;" horiz-adv-x="560" 
d="M32 250c0 166 120 262 248 262s248 -96 248 -262s-120 -262 -248 -262s-248 96 -248 262zM208 250c0 -76 20 -124 72 -124s72 48 72 124s-20 124 -72 124s-72 -48 -72 -124zM144 574l68 154h134l-98 -154h-104zM324 574l68 154h134l-98 -154h-104z" />
    <glyph glyph-name="OE" unicode="&#x152;" horiz-adv-x="880" 
d="M44 328c0 230 150 322 340 322h432v-144h-236v-102h200v-144h-200v-116h246v-144h-452c-180 0 -330 98 -330 328zM220 328c0 -154 77 -190 174 -190h14v374h-14c-97 0 -174 -30 -174 -184z" />
    <glyph glyph-name="oe" unicode="&#x153;" horiz-adv-x="816" 
d="M206 250c0 -76 22 -124 66 -124s68 48 68 124s-24 124 -68 124s-66 -48 -66 -124zM32 250c0 166 110 262 240 262c68 0 116 -30 154 -74c42 48 96 74 152 74c136 0 202 -112 202 -246c0 -30 -4 -56 -7 -68h-275c14 -56 55 -76 106 -76c34 0 64 14 100 34l58 -110
c-54 -38 -126 -58 -182 -58c-54 0 -110 26 -152 74c-42 -48 -90 -74 -160 -74c-130 0 -236 96 -236 262zM498 302h136c0 44 -16 80 -62 80c-38 0 -66 -22 -74 -80z" />
    <glyph glyph-name="Racute" unicode="&#x154;" horiz-adv-x="630" 
d="M490 824l-122 -124h-136l78 124h180zM244 514v-160h62c68 0 104 30 104 86s-36 74 -104 74h-62zM614 0h-192l-112 218h-66v-218h-172v650h246c140 0 260 -48 260 -210c0 -93 -42 -154 -105 -188z" />
    <glyph glyph-name="racute" unicode="&#x155;" horiz-adv-x="418" 
d="M58 0v500h140l12 -86h4c37 68 93 98 142 98c31 0 48 -4 62 -10l-28 -148c-18 4 -34 8 -56 8c-36 0 -80 -22 -104 -84v-278h-172zM422 728l-128 -154h-124l88 154h164z" />
    <glyph glyph-name="uni0156" unicode="&#x156;" horiz-adv-x="630" 
d="M244 514v-160h62c68 0 104 30 104 86s-36 74 -104 74h-62zM244 218v-218h-172v650h246c140 0 260 -48 260 -210c0 -93 -42 -154 -105 -188l141 -252h-192l-112 218h-66zM264 -100l32 60c98 -8 130 -34 130 -86c0 -72 -88 -104 -190 -108l-12 66c46 4 80 12 80 34
c0 16 -10 26 -40 34z" />
    <glyph glyph-name="uni0157" unicode="&#x157;" horiz-adv-x="418" 
d="M58 0v500h140l12 -86h4c37 68 93 98 142 98c31 0 48 -4 62 -10l-28 -148c-18 4 -34 8 -56 8c-36 0 -80 -22 -104 -84v-278h-172zM106 -40c98 -8 130 -34 130 -86c0 -72 -88 -104 -190 -108l-12 66c46 4 80 12 80 34c0 16 -10 26 -40 34z" />
    <glyph glyph-name="Rcaron" unicode="&#x158;" horiz-adv-x="630" 
d="M400 700h-168l-96 124h130l48 -58h4l48 58h130zM244 514v-160h62c68 0 104 30 104 86s-36 74 -104 74h-62zM614 0h-192l-112 218h-66v-218h-172v650h246c140 0 260 -48 260 -210c0 -93 -42 -154 -105 -188z" />
    <glyph glyph-name="rcaron" unicode="&#x159;" horiz-adv-x="418" 
d="M58 0v500h140l12 -86h4c37 68 93 98 142 98c31 0 48 -4 62 -10l-28 -148c-18 4 -34 8 -56 8c-36 0 -80 -22 -104 -84v-278h-172zM190 574l-96 154h114l48 -74h4l48 74h114l-96 -154h-136z" />
    <glyph glyph-name="Sacute" unicode="&#x15a;" horiz-adv-x="564" 
d="M32 81l98 118c46 -37 104 -63 152 -63c52 0 74 17 74 46c0 31 -33 41 -88 63l-81 34c-70 28 -131 87 -131 181c0 111 100 202 242 202c74 0 156 -28 216 -87l-86 -108c-44 31 -82 47 -130 47c-42 0 -68 -15 -68 -44c0 -31 37 -42 96 -65l79 -31c81 -32 127 -88 127 -178
c0 -110 -92 -208 -254 -208c-82 0 -176 30 -246 93zM470 824l-122 -124h-136l78 124h180z" />
    <glyph glyph-name="sacute" unicode="&#x15b;" horiz-adv-x="452" 
d="M18 58l76 106c46 -34 87 -50 122 -50c36 0 50 10 50 30c0 26 -46 38 -96 58c-58 23 -126 66 -126 148c0 98 80 162 198 162c82 0 140 -33 184 -66l-76 -102c-36 26 -71 42 -102 42c-29 0 -44 -8 -44 -28c0 -26 44 -36 94 -54c60 -22 128 -60 128 -150
c0 -94 -74 -166 -214 -166c-64 0 -142 28 -194 70zM406 728l-128 -154h-124l88 154h164z" />
    <glyph glyph-name="Scircumflex" unicode="&#x15c;" horiz-adv-x="564" 
d="M32 81l98 118c46 -37 104 -63 152 -63c52 0 74 17 74 46c0 31 -33 41 -88 63l-81 34c-70 28 -131 87 -131 181c0 111 100 202 242 202c74 0 156 -28 216 -87l-86 -108c-44 31 -82 47 -130 47c-42 0 -68 -15 -68 -44c0 -31 37 -42 96 -65l79 -31c81 -32 127 -88 127 -178
c0 -110 -92 -208 -254 -208c-82 0 -176 30 -246 93zM246 700h-130l96 124h168l96 -124h-130l-48 58h-4z" />
    <glyph glyph-name="scircumflex" unicode="&#x15d;" horiz-adv-x="452" 
d="M18 58l76 106c46 -34 87 -50 122 -50c36 0 50 10 50 30c0 26 -46 38 -96 58c-58 23 -126 66 -126 148c0 98 80 162 198 162c82 0 140 -33 184 -66l-76 -102c-36 26 -71 42 -102 42c-29 0 -44 -8 -44 -28c0 -26 44 -36 94 -54c60 -22 128 -60 128 -150
c0 -94 -74 -166 -214 -166c-64 0 -142 28 -194 70zM78 574l96 154h136l96 -154h-114l-48 74h-4l-48 -74h-114z" />
    <glyph glyph-name="uni015E" unicode="&#x15e;" horiz-adv-x="564" 
d="M326 405l79 -31c81 -32 127 -88 127 -178c0 -98 -73 -186 -203 -205l-13 -31c34 -12 58 -34 58 -76c0 -72 -88 -104 -190 -108l-12 66c46 4 80 16 80 42c0 14 -10 28 -56 40l34 67c-69 10 -141 39 -198 90l98 118c46 -37 104 -63 152 -63c52 0 74 17 74 46
c0 31 -33 41 -88 63l-81 34c-70 28 -131 87 -131 181c0 111 100 202 242 202c74 0 156 -28 216 -87l-86 -108c-44 31 -82 47 -130 47c-42 0 -68 -15 -68 -44c0 -31 37 -42 96 -65z" />
    <glyph glyph-name="uni015F" unicode="&#x15f;" horiz-adv-x="452" 
d="M426 446l-76 -102c-36 26 -71 42 -102 42c-29 0 -44 -8 -44 -28c0 -26 44 -36 94 -54c60 -22 128 -60 128 -150c0 -74 -46 -135 -135 -157l-15 -37c34 -12 58 -34 58 -76c0 -72 -88 -104 -190 -108l-12 66c46 4 80 16 80 42c0 14 -10 28 -56 40l33 65
c-59 6 -125 32 -171 69l76 106c46 -34 87 -50 122 -50c36 0 50 10 50 30c0 26 -46 38 -96 58c-58 23 -126 66 -126 148c0 98 80 162 198 162c82 0 140 -33 184 -66z" />
    <glyph glyph-name="Scaron" unicode="&#x160;" horiz-adv-x="564" 
d="M32 81l98 118c46 -37 104 -63 152 -63c52 0 74 17 74 46c0 31 -33 41 -88 63l-81 34c-70 28 -131 87 -131 181c0 111 100 202 242 202c74 0 156 -28 216 -87l-86 -108c-44 31 -82 47 -130 47c-42 0 -68 -15 -68 -44c0 -31 37 -42 96 -65l79 -31c81 -32 127 -88 127 -178
c0 -110 -92 -208 -254 -208c-82 0 -176 30 -246 93zM346 824h130l-96 -124h-168l-96 124h130l48 -58h4z" />
    <glyph glyph-name="scaron" unicode="&#x161;" horiz-adv-x="452" 
d="M18 58l76 106c46 -34 87 -50 122 -50c36 0 50 10 50 30c0 26 -46 38 -96 58c-58 23 -126 66 -126 148c0 98 80 162 198 162c82 0 140 -33 184 -66l-76 -102c-36 26 -71 42 -102 42c-29 0 -44 -8 -44 -28c0 -26 44 -36 94 -54c60 -22 128 -60 128 -150
c0 -94 -74 -166 -214 -166c-64 0 -142 28 -194 70zM174 574l-96 154h114l48 -74h4l48 74h114l-96 -154h-136z" />
    <glyph glyph-name="uni0162" unicode="&#x162;" horiz-adv-x="564" 
d="M368 0h-32l-16 -40c34 -12 58 -34 58 -76c0 -72 -88 -104 -190 -108l-12 66c46 4 80 16 80 42c0 14 -10 28 -56 40l38 76h-42v506h-172v144h516v-144h-172v-506z" />
    <glyph glyph-name="uni0163" unicode="&#x163;" horiz-adv-x="400" 
d="M296 -11l-12 -29c34 -12 58 -34 58 -76c0 -72 -88 -104 -190 -108l-12 66c46 4 80 16 80 42c0 14 -10 28 -56 40l36 72c-84 23 -120 96 -120 196v174h-66v128l76 6l20 130h142v-130h114v-134h-114v-171c0 -55 28 -73 60 -73c16 0 32 4 44 8l26 -124
c-21 -6 -48 -14 -86 -17z" />
    <glyph glyph-name="Tcaron" unicode="&#x164;" horiz-adv-x="564" 
d="M196 0v506h-172v144h516v-144h-172v-506h-172zM332 824h130l-96 -124h-168l-96 124h130l48 -58h4z" />
    <glyph glyph-name="tcaron" unicode="&#x165;" horiz-adv-x="400" 
d="M80 192v174h-66v128l76 6l20 130h142v-130h114v-134h-114v-171c0 -55 28 -73 60 -73c16 0 32 4 44 8l26 -124c-26 -8 -63 -18 -118 -18c-130 0 -184 82 -184 204zM360 548h-72l-6 226h108l-2 -74z" />
    <glyph glyph-name="Utilde" unicode="&#x168;" horiz-adv-x="672" 
d="M68 314v336h172v-356c0 -116 30 -158 98 -158s100 42 100 158v356h166v-336c0 -222 -84 -326 -266 -326s-270 104 -270 326zM400 700c-54 0 -92 42 -120 42c-16 0 -30 -10 -38 -42h-86c12 102 62 146 116 146s92 -42 120 -42c16 0 30 10 38 42h86
c-12 -102 -62 -146 -116 -146z" />
    <glyph glyph-name="utilde" unicode="&#x169;" horiz-adv-x="578" 
d="M54 192v308h172v-286c0 -64 16 -80 50 -80c32 0 50 12 72 44v322h172v-500h-140l-12 66h-4c-40 -48 -86 -78 -154 -78c-110 0 -156 80 -156 204zM114 574c12 102 58 146 112 146s92 -42 120 -42c16 0 26 10 34 42h86c-12 -102 -58 -146 -112 -146s-92 42 -120 42
c-16 0 -26 -10 -34 -42h-86z" />
    <glyph glyph-name="Umacron" unicode="&#x16a;" horiz-adv-x="672" 
d="M68 314v336h172v-356c0 -116 30 -158 98 -158s100 42 100 158v356h166v-336c0 -222 -84 -326 -266 -326s-270 104 -270 326zM188 716v108h296v-108h-296z" />
    <glyph glyph-name="umacron" unicode="&#x16b;" horiz-adv-x="578" 
d="M54 192v308h172v-286c0 -64 16 -80 50 -80c32 0 50 12 72 44v322h172v-500h-140l-12 66h-4c-40 -48 -86 -78 -154 -78c-110 0 -156 80 -156 204zM146 588v108h288v-108h-288z" />
    <glyph glyph-name="Ubreve" unicode="&#x16c;" horiz-adv-x="672" 
d="M68 314v336h172v-356c0 -116 30 -158 98 -158s100 42 100 158v356h166v-336c0 -222 -84 -326 -266 -326s-270 104 -270 326zM336 700c-90 0 -134 46 -142 124h92c6 -24 20 -40 50 -40s44 16 50 40h92c-8 -78 -52 -124 -142 -124z" />
    <glyph glyph-name="ubreve" unicode="&#x16d;" horiz-adv-x="578" 
d="M54 192v308h172v-286c0 -64 16 -80 50 -80c32 0 50 12 72 44v322h172v-500h-140l-12 66h-4c-40 -48 -86 -78 -154 -78c-110 0 -156 80 -156 204zM290 574c-96 0 -142 66 -144 144h94c4 -30 19 -52 50 -52s46 22 50 52h94c-2 -78 -48 -144 -144 -144z" />
    <glyph glyph-name="Uring" unicode="&#x16e;" horiz-adv-x="672" 
d="M68 314v336h172v-356c0 -116 30 -158 98 -158s100 42 100 158v356h166v-336c0 -222 -84 -326 -266 -326s-270 104 -270 326zM336 696c-72 0 -120 40 -120 102s48 102 120 102s120 -40 120 -102s-48 -102 -120 -102zM336 758c21 0 38 16 38 40s-17 40 -38 40
s-38 -16 -38 -40s17 -40 38 -40z" />
    <glyph glyph-name="uring" unicode="&#x16f;" horiz-adv-x="578" 
d="M54 192v308h172v-286c0 -64 16 -80 50 -80c32 0 50 12 72 44v322h172v-500h-140l-12 66h-4c-40 -48 -86 -78 -154 -78c-110 0 -156 80 -156 204zM290 550c-72 0 -120 42 -120 106s48 106 120 106s120 -42 120 -106s-48 -106 -120 -106zM290 612c21 0 38 18 38 44
s-17 44 -38 44s-38 -18 -38 -44s17 -44 38 -44z" />
    <glyph glyph-name="Uhungarumlaut" unicode="&#x170;" horiz-adv-x="672" 
d="M68 314v336h172v-356c0 -116 30 -158 98 -158s100 42 100 158v356h166v-336c0 -222 -84 -326 -266 -326s-270 104 -270 326zM302 700h-114l62 124h144zM376 700l62 124h144l-92 -124h-114z" />
    <glyph glyph-name="uhungarumlaut" unicode="&#x171;" horiz-adv-x="578" 
d="M54 192v308h172v-286c0 -64 16 -80 50 -80c32 0 50 12 72 44v322h172v-500h-140l-12 66h-4c-40 -48 -86 -78 -154 -78c-110 0 -156 80 -156 204zM154 574l68 154h134l-98 -154h-104zM334 574l68 154h134l-98 -154h-104z" />
    <glyph glyph-name="Uogonek" unicode="&#x172;" horiz-adv-x="672" 
d="M68 314v336h172v-356c0 -116 30 -158 98 -158s100 42 100 158v356h166v-336c0 -188 -47 -261 -174 -318c-49 -22 -68 -54 -68 -80c0 -24 20 -34 40 -34c12 0 25 8 34 14l38 -86c-28 -22 -76 -38 -114 -38c-68 0 -122 36 -122 98c0 64 50 108 64 120
c-158 12 -234 118 -234 324z" />
    <glyph glyph-name="uogonek" unicode="&#x173;" horiz-adv-x="578" 
d="M54 192v308h172v-286c0 -64 16 -80 50 -80c32 0 50 12 72 44v322h172v-500c-68 -16 -88 -50 -88 -78c0 -23 20 -34 40 -34c12 0 26 6 34 12l34 -76c-28 -22 -76 -36 -110 -36c-62 0 -112 32 -112 94c0 60 44 100 64 114l-14 70h-4c-40 -48 -86 -78 -154 -78
c-110 0 -156 80 -156 204z" />
    <glyph glyph-name="Wcircumflex" unicode="&#x174;" horiz-adv-x="824" 
d="M124 0l-114 650h176l36 -284c7 -68 15 -136 22 -204h4c12 68 24 137 36 204l62 284h144l62 -284c12 -65 24 -135 36 -204h4c7 69 15 138 22 204l36 284h164l-108 -650h-218l-50 258c-10 50 -18 104 -24 152h-4c-7 -48 -14 -102 -24 -152l-48 -258h-214zM362 700h-130
l96 124h168l96 -124h-130l-48 58h-4z" />
    <glyph glyph-name="wcircumflex" unicode="&#x175;" horiz-adv-x="798" 
d="M144 0l-120 500h170l38 -210c8 -50 12 -100 20 -152h4c8 52 16 104 28 152l46 210h146l48 -210c12 -50 20 -100 30 -152h4c8 52 12 102 20 152l38 210h158l-114 -500h-200l-36 174c-8 46 -16 92 -24 147h-4c-8 -55 -14 -101 -22 -147l-34 -174h-196zM236 574l96 154h136
l96 -154h-114l-48 74h-4l-48 -74h-114z" />
    <glyph glyph-name="Ycircumflex" unicode="&#x176;" horiz-adv-x="544" 
d="M186 0v224l-196 426h184l48 -136c16 -49 32 -94 49 -145h4c17 51 34 96 51 145l48 136h180l-196 -426v-224h-172zM222 700h-130l96 124h168l96 -124h-130l-48 58h-4z" />
    <glyph glyph-name="ycircumflex" unicode="&#x177;" horiz-adv-x="542" 
d="M86 -48c9 -2 22 -6 32 -6c46 0 68 20 78 50l6 22l-190 482h172l60 -192c14 -46 24 -92 36 -142h4c10 48 20 94 32 142l50 192h164l-168 -492c-52 -135 -106 -196 -230 -196c-34 0 -54 4 -76 10zM112 574l96 154h136l96 -154h-114l-48 74h-4l-48 -74h-114z" />
    <glyph glyph-name="Ydieresis" unicode="&#x178;" horiz-adv-x="544" 
d="M186 0v224l-196 426h184l48 -136c16 -49 32 -94 49 -145h4c17 51 34 96 51 145l48 136h180l-196 -426v-224h-172zM168 694c-46 0 -78 34 -78 78s32 78 78 78s78 -34 78 -78s-32 -78 -78 -78zM376 694c-46 0 -78 34 -78 78s32 78 78 78s78 -34 78 -78s-32 -78 -78 -78z
" />
    <glyph glyph-name="Zacute" unicode="&#x179;" horiz-adv-x="542" 
d="M32 0v104l266 402h-240v144h452v-104l-266 -402h268v-144h-480zM458 824l-122 -124h-136l78 124h180z" />
    <glyph glyph-name="zacute" unicode="&#x17a;" horiz-adv-x="474" 
d="M40 0v92l190 274h-168v134h382v-92l-190 -274h196v-134h-410zM416 728l-128 -154h-124l88 154h164z" />
    <glyph glyph-name="Zdotaccent" unicode="&#x17b;" horiz-adv-x="542" 
d="M32 0v104l266 402h-240v144h452v-104l-266 -402h268v-144h-480zM284 696c-56 0 -96 36 -96 86s40 86 96 86s96 -36 96 -86s-40 -86 -96 -86z" />
    <glyph glyph-name="zdotaccent" unicode="&#x17c;" horiz-adv-x="474" 
d="M40 0v92l190 274h-168v134h382v-92l-190 -274h196v-134h-410zM252 562c-54 0 -92 36 -92 86s38 86 92 86s92 -36 92 -86s-38 -86 -92 -86z" />
    <glyph glyph-name="Zcaron" unicode="&#x17d;" horiz-adv-x="542" 
d="M32 0v104l266 402h-240v144h452v-104l-266 -402h268v-144h-480zM334 824h130l-96 -124h-168l-96 124h130l48 -58h4z" />
    <glyph glyph-name="zcaron" unicode="&#x17e;" horiz-adv-x="474" 
d="M40 0v92l190 274h-168v134h382v-92l-190 -274h196v-134h-410zM184 574l-96 154h114l48 -74h4l48 74h114l-96 -154h-136z" />
    <glyph glyph-name="uni0180" unicode="&#x180;" horiz-adv-x="582" 
d="M230 316v-164c20 -18 42 -24 64 -24c40 0 74 29 74 118c0 75 -24 106 -70 106c-26 0 -46 -10 -68 -36zM230 514l-4 -72c35 32 79 50 123 50c118 0 195 -96 195 -243c0 -167 -102 -261 -208 -261c-44 0 -88 22 -126 66h-4l-14 -54h-134v550h-66v74l66 5v67h172v-66h164
v-80h-164v-36z" />
    <glyph glyph-name="uni018F" unicode="&#x18f;" horiz-adv-x="684" 
d="M464 256h-240c8 -90 56 -128 118 -128c58 0 106 42 122 128zM188 462l-78 118c54 48 130 82 236 82c170 0 294 -122 294 -336s-124 -338 -298 -338s-294 120 -294 334c0 18 2 38 4 58h415c-13 94 -61 142 -143 142c-60 0 -102 -30 -136 -60z" />
    <glyph glyph-name="uni0192" unicode="&#x192;" horiz-adv-x="540" 
d="M506 644l-31 -128c-11 4 -25 10 -43 10c-39 0 -61 -19 -66 -58l-6 -52h94v-124h-109l-21 -170c-14 -118 -53 -218 -198 -218c-42 1 -77 7 -91 15l21 127c14 -5 28 -7 42 -8c42 2 57 18 70 136l13 118h-69v118l76 6h8l4 38c17 152 76 208 217 208c23 0 69 -8 89 -18z" />
    <glyph glyph-name="Ohorn" unicode="&#x1a0;" horiz-adv-x="692" 
d="M346 136c78 0 126 74 126 192s-48 186 -126 186s-126 -68 -126 -186s48 -192 126 -192zM524 738l116 50c16 -18 32 -50 32 -86c0 -69 -43 -108 -109 -126c54 -57 85 -141 85 -248c0 -214 -122 -340 -302 -340s-302 126 -302 340s122 334 302 334c53 0 102 -11 143 -31
c32 10 51 22 51 59c0 20 -9 37 -16 48z" />
    <glyph glyph-name="ohorn" unicode="&#x1a1;" horiz-adv-x="560" 
d="M280 126c52 0 72 48 72 124s-20 124 -72 124s-72 -48 -72 -124s20 -124 72 -124zM408 598l116 50c16 -18 32 -50 32 -86c0 -65 -41 -107 -99 -123c43 -45 71 -109 71 -189c0 -166 -120 -262 -248 -262s-248 96 -248 262s120 262 248 262c33 0 66 -7 97 -19
c26 7 47 21 47 57c0 20 -9 37 -16 48z" />
    <glyph glyph-name="Uhorn" unicode="&#x1af;" horiz-adv-x="692" 
d="M586 758l116 50c16 -18 32 -50 32 -86c0 -78 -56 -119 -130 -133v-275c0 -222 -84 -326 -266 -326s-270 104 -270 326v336h172v-356c0 -116 30 -158 98 -158s100 42 100 158v356h84c34 0 80 6 80 60c0 20 -9 37 -16 48z" />
    <glyph glyph-name="uhorn" unicode="&#x1b0;" horiz-adv-x="578" 
d="M468 608l116 50c16 -18 32 -50 32 -86c0 -64 -40 -104 -96 -123v-449h-140l-12 66h-4c-40 -48 -86 -78 -154 -78c-110 0 -156 80 -156 204v308h172v-286c0 -64 16 -80 50 -80c32 0 50 12 72 44v322h56c34 0 80 6 80 60c0 20 -9 37 -16 48z" />
    <glyph glyph-name="uni01CD" unicode="&#x1cd;" horiz-adv-x="584" 
d="M372 700h-168l-96 124h130l48 -58h4l48 58h130zM229 271h120l-11 45c-16 62 -32 141 -48 206h-4c-14 -66 -30 -144 -46 -206zM412 0l-32 138h-182l-32 -138h-176l198 650h208l198 -650h-182z" />
    <glyph glyph-name="uni01CE" unicode="&#x1ce;" horiz-adv-x="542" 
d="M42 142c0 104 80 162 272 182c-4 36 -26 52 -70 52c-36 0 -74 -14 -126 -42l-60 112c70 42 142 66 220 66c130 0 208 -70 208 -234v-278h-140l-12 48h-4c-40 -36 -84 -60 -138 -60c-94 0 -150 72 -150 154zM206 156c0 -23 16 -36 46 -36c28 0 44 14 62 34v68
c-82 -12 -108 -38 -108 -66zM217 574l-96 154h114l48 -74h4l48 74h114l-96 -154h-136z" />
    <glyph glyph-name="uni01CF" unicode="&#x1cf;" horiz-adv-x="316" 
d="M72 0v650h172v-650h-172zM208 824h130l-96 -124h-168l-96 124h130l48 -58h4z" />
    <glyph glyph-name="uni01D0" unicode="&#x1d0;" horiz-adv-x="288" 
d="M58 0v500h172v-500h-172zM76 574l-96 154h114l48 -74h4l48 74h114l-96 -154h-136z" />
    <glyph glyph-name="uni01D1" unicode="&#x1d1;" horiz-adv-x="692" 
d="M346 -12c-180 0 -302 126 -302 340s122 334 302 334s302 -121 302 -334c0 -214 -122 -340 -302 -340zM346 136c78 0 126 74 126 192s-48 186 -126 186s-126 -68 -126 -186s48 -192 126 -192zM396 824h130l-96 -124h-168l-96 124h130l48 -58h4z" />
    <glyph glyph-name="uni01D2" unicode="&#x1d2;" horiz-adv-x="560" 
d="M32 250c0 166 120 262 248 262s248 -96 248 -262s-120 -262 -248 -262s-248 96 -248 262zM208 250c0 -76 20 -124 72 -124s72 48 72 124s-20 124 -72 124s-72 -48 -72 -124zM212 574l-96 154h114l48 -74h4l48 74h114l-96 -154h-136z" />
    <glyph glyph-name="uni01D3" unicode="&#x1d3;" horiz-adv-x="672" 
d="M68 314v336h172v-356c0 -116 30 -158 98 -158s100 42 100 158v356h166v-336c0 -222 -84 -326 -266 -326s-270 104 -270 326zM386 824h130l-96 -124h-168l-96 124h130l48 -58h4z" />
    <glyph glyph-name="uni01D4" unicode="&#x1d4;" horiz-adv-x="578" 
d="M54 192v308h172v-286c0 -64 16 -80 50 -80c32 0 50 12 72 44v322h172v-500h-140l-12 66h-4c-40 -48 -86 -78 -154 -78c-110 0 -156 80 -156 204zM222 574l-96 154h114l48 -74h4l48 74h114l-96 -154h-136z" />
    <glyph glyph-name="uni01D5" unicode="&#x1d5;" horiz-adv-x="672" 
d="M68 314v336h172v-356c0 -116 30 -158 98 -158s100 42 100 158v356h166v-336c0 -222 -84 -326 -266 -326s-270 104 -270 326zM188 876v78h296v-78h-296zM232 694c-40 0 -68 30 -68 68s28 68 68 68s68 -30 68 -68s-28 -68 -68 -68zM440 694c-40 0 -68 30 -68 68
s28 68 68 68s68 -30 68 -68s-28 -68 -68 -68z" />
    <glyph glyph-name="uni01D6" unicode="&#x1d6;" horiz-adv-x="578" 
d="M54 192v308h172v-286c0 -64 16 -80 50 -80c32 0 50 12 72 44v322h172v-500h-140l-12 66h-4c-40 -48 -86 -78 -154 -78c-110 0 -156 80 -156 204zM186 564c-40 0 -68 30 -68 68s28 68 68 68s68 -30 68 -68s-28 -68 -68 -68zM394 564c-40 0 -68 30 -68 68s28 68 68 68
s68 -30 68 -68s-28 -68 -68 -68zM146 758v78h288v-78h-288z" />
    <glyph glyph-name="uni01D7" unicode="&#x1d7;" horiz-adv-x="672" 
d="M68 314v336h172v-356c0 -116 30 -158 98 -158s100 42 100 158v356h166v-336c0 -222 -84 -326 -266 -326s-270 104 -270 326zM252 860l78 124h178l-120 -124h-136zM232 694c-40 0 -68 30 -68 68s28 68 68 68s68 -30 68 -68s-28 -68 -68 -68zM440 694c-40 0 -68 30 -68 68
s28 68 68 68s68 -30 68 -68s-28 -68 -68 -68z" />
    <glyph glyph-name="uni01D8" unicode="&#x1d8;" horiz-adv-x="578" 
d="M54 192v308h172v-286c0 -64 16 -80 50 -80c32 0 50 12 72 44v322h172v-500h-140l-12 66h-4c-40 -48 -86 -78 -154 -78c-110 0 -156 80 -156 204zM216 744l84 114h144l-120 -114h-108zM186 564c-40 0 -68 30 -68 68s28 68 68 68s68 -30 68 -68s-28 -68 -68 -68zM394 564
c-40 0 -68 30 -68 68s28 68 68 68s68 -30 68 -68s-28 -68 -68 -68z" />
    <glyph glyph-name="uni01D9" unicode="&#x1d9;" horiz-adv-x="672" 
d="M68 314v336h172v-356c0 -116 30 -158 98 -158s100 42 100 158v356h166v-336c0 -222 -84 -326 -266 -326s-270 104 -270 326zM232 694c-40 0 -68 30 -68 68s28 68 68 68s68 -30 68 -68s-28 -68 -68 -68zM440 694c-40 0 -68 30 -68 68s28 68 68 68s68 -30 68 -68
s-28 -68 -68 -68zM386 984h130l-96 -124h-168l-96 124h130l48 -58h4z" />
    <glyph glyph-name="uni01DA" unicode="&#x1da;" horiz-adv-x="578" 
d="M54 192v308h172v-286c0 -64 16 -80 50 -80c32 0 50 12 72 44v322h172v-500h-140l-12 66h-4c-40 -48 -86 -78 -154 -78c-110 0 -156 80 -156 204zM218 744l-84 114h114l40 -56h4l40 56h114l-84 -114h-144zM186 564c-40 0 -68 30 -68 68s28 68 68 68s68 -30 68 -68
s-28 -68 -68 -68zM394 564c-40 0 -68 30 -68 68s28 68 68 68s68 -30 68 -68s-28 -68 -68 -68z" />
    <glyph glyph-name="uni01DB" unicode="&#x1db;" horiz-adv-x="672" 
d="M68 314v336h172v-356c0 -116 30 -158 98 -158s100 42 100 158v356h166v-336c0 -222 -84 -326 -266 -326s-270 104 -270 326zM342 984l78 -124h-136l-120 124h178zM440 694c-40 0 -68 30 -68 68s28 68 68 68s68 -30 68 -68s-28 -68 -68 -68zM232 694c-40 0 -68 30 -68 68
s28 68 68 68s68 -30 68 -68s-28 -68 -68 -68z" />
    <glyph glyph-name="uni01DC" unicode="&#x1dc;" horiz-adv-x="578" 
d="M54 192v308h172v-286c0 -64 16 -80 50 -80c32 0 50 12 72 44v322h172v-500h-140l-12 66h-4c-40 -48 -86 -78 -154 -78c-110 0 -156 80 -156 204zM280 858l84 -114h-108l-120 114h144zM394 564c-40 0 -68 30 -68 68s28 68 68 68s68 -30 68 -68s-28 -68 -68 -68zM186 564
c-40 0 -68 30 -68 68s28 68 68 68s68 -30 68 -68s-28 -68 -68 -68z" />
    <glyph glyph-name="Gcaron" unicode="&#x1e6;" horiz-adv-x="646" 
d="M44 320c0 218 150 342 328 342c92 0 162 -40 208 -86l-94 -106c-32 28 -60 44 -112 44c-88 0 -154 -70 -154 -188c0 -122 54 -190 170 -190c18 0 38 4 50 12v90h-96v140h248v-310c-48 -44 -132 -80 -224 -80c-178 0 -324 110 -324 332zM422 824h130l-96 -124h-168
l-96 124h130l48 -58h4z" />
    <glyph glyph-name="gcaron" unicode="&#x1e7;" horiz-adv-x="546" 
d="M170 -54c0 -32 40 -46 98 -46c56 0 98 18 98 46c0 26 -24 30 -67 30h-39c-40 0 -58 2 -72 6c-12 -12 -18 -22 -18 -36zM30 -82c0 41 24 72 70 96v4c-26 18 -46 44 -46 86c0 34 22 70 56 94v4c-36 24 -68 70 -68 128c0 124 104 182 214 182c28 0 56 -4 80 -12h186v-124
h-72c4 -12 8 -32 8 -52c0 -118 -90 -166 -202 -166c-16 0 -34 2 -56 7c-10 -9 -12 -15 -12 -29c0 -22 20 -30 70 -30h75c125 0 197 -38 197 -130c0 -108 -112 -182 -290 -182c-114 0 -210 34 -210 124zM256 260c32 0 54 22 54 70c0 46 -22 68 -54 68s-54 -22 -54 -68
c0 -48 22 -70 54 -70zM188 574l-96 154h114l48 -74h4l48 74h114l-96 -154h-136z" />
    <glyph glyph-name="uni01EA" unicode="&#x1ea;" horiz-adv-x="692" 
d="M248 -130c0 54 36 96 64 120c-164 16 -268 139 -268 338c0 214 122 334 302 334s302 -121 302 -334c0 -186 -80 -274 -208 -332c-48 -22 -68 -54 -68 -80c0 -24 20 -34 40 -34c12 0 25 8 34 14l38 -86c-28 -22 -76 -38 -114 -38c-68 0 -122 36 -122 98zM346 136
c78 0 126 74 126 192s-48 186 -126 186s-126 -68 -126 -186s48 -192 126 -192z" />
    <glyph glyph-name="uni01EB" unicode="&#x1eb;" horiz-adv-x="560" 
d="M186 -118c0 50 31 88 55 109c-112 17 -209 110 -209 259c0 166 120 262 248 262s248 -96 248 -262c0 -130 -66 -202 -164 -248c-49 -23 -64 -54 -64 -80c0 -24 20 -34 40 -34c12 0 25 6 34 12l34 -76c-28 -22 -76 -36 -110 -36c-62 0 -112 32 -112 94zM208 250
c0 -76 20 -124 72 -124s72 48 72 124s-20 124 -72 124s-72 -48 -72 -124z" />
    <glyph glyph-name="uni0218" unicode="&#x218;" horiz-adv-x="564" 
d="M32 81l98 118c46 -37 104 -63 152 -63c52 0 74 17 74 46c0 31 -33 41 -88 63l-81 34c-70 28 -131 87 -131 181c0 111 100 202 242 202c74 0 156 -28 216 -87l-86 -108c-44 31 -82 47 -130 47c-42 0 -68 -15 -68 -44c0 -31 37 -42 96 -65l79 -31c81 -32 127 -88 127 -178
c0 -110 -92 -208 -254 -208c-82 0 -176 30 -246 93zM244 -40c98 -8 130 -34 130 -86c0 -72 -88 -104 -190 -108l-12 66c46 4 80 12 80 34c0 16 -10 26 -40 34z" />
    <glyph glyph-name="uni0219" unicode="&#x219;" horiz-adv-x="452" 
d="M18 58l76 106c46 -34 87 -50 122 -50c36 0 50 10 50 30c0 26 -46 38 -96 58c-58 23 -126 66 -126 148c0 98 80 162 198 162c82 0 140 -33 184 -66l-76 -102c-36 26 -71 42 -102 42c-29 0 -44 -8 -44 -28c0 -26 44 -36 94 -54c60 -22 128 -60 128 -150
c0 -94 -74 -166 -214 -166c-64 0 -142 28 -194 70zM198 -40c98 -8 130 -34 130 -86c0 -72 -88 -104 -190 -108l-12 66c46 4 80 12 80 34c0 16 -10 26 -40 34z" />
    <glyph glyph-name="uni021A" unicode="&#x21a;" horiz-adv-x="564" 
d="M196 0v506h-172v144h516v-144h-172v-506h-172zM244 -40c98 -8 130 -34 130 -86c0 -72 -88 -104 -190 -108l-12 66c46 4 80 12 80 34c0 16 -10 26 -40 34z" />
    <glyph glyph-name="uni021B" unicode="&#x21b;" horiz-adv-x="400" 
d="M80 192v174h-66v128l76 6l20 130h142v-130h114v-134h-114v-171c0 -55 28 -73 60 -73c16 0 32 4 44 8l26 -124c-26 -8 -63 -18 -118 -18c-130 0 -184 82 -184 204zM206 -40c98 -8 130 -34 130 -86c0 -72 -88 -104 -190 -108l-12 66c46 4 80 12 80 34c0 16 -10 26 -40 34z
" />
    <glyph glyph-name="uni0237" unicode="&#x237;" horiz-adv-x="290" 
d="M60 20v480h172v-474c0 -112 -44 -214 -194 -214c-46 0 -72 6 -94 14l30 126c14 -4 24 -6 36 -6c36 0 50 20 50 74z" />
    <glyph glyph-name="uni0243" unicode="&#x243;" horiz-adv-x="638" 
d="M270 122h70c68 0 104 34 104 94c0 62 -36 88 -104 88h-70v-50h116v-80h-116v-52zM270 528v-124h58c56 0 86 28 86 68s-30 56 -86 56h-58zM470 368v-4c92 -19 138 -70 138 -162c0 -141 -116 -202 -256 -202h-254v174h-74v74l74 6v396h234c136 0 246 -36 246 -156
c0 -52 -32 -107 -108 -126z" />
    <glyph glyph-name="uni0251" unicode="&#x251;" horiz-adv-x="580" 
d="M212 252c0 -90 28 -124 74 -124c26 0 46 8 64 36v184c-20 18 -46 24 -68 24c-36 0 -70 -32 -70 -120zM36 250c0 164 106 262 208 262c48 0 88 -18 126 -62h4l14 50h134v-500h-140l-12 46h-4c-34 -34 -82 -58 -126 -58c-124 0 -204 100 -204 262z" />
    <glyph glyph-name="uni0259" unicode="&#x259;" horiz-adv-x="526" 
d="M36 230c0 30 4 56 7 68h285c-14 64 -50 84 -102 84c-34 0 -67 -10 -102 -30l-56 102c57 38 128 58 188 58c134 0 238 -100 238 -262s-114 -262 -240 -262c-148 0 -218 108 -218 242zM182 194c0 -42 16 -76 68 -76c38 0 70 18 80 76h-148z" />
    <glyph glyph-name="uni0261" unicode="&#x261;" horiz-adv-x="592" 
d="M128 -18c46 -24 96 -34 134 -34c66 0 88 27 94 62l4 50c-31 -28 -72 -44 -114 -44c-124 0 -204 104 -204 244c0 152 106 252 208 252c48 0 88 -16 124 -58h4l12 46h138v-484c0 -132 -96 -202 -266 -202c-52 0 -130 18 -190 56zM292 154c26 0 44 8 64 38v156
c-20 18 -46 24 -68 24c-38 0 -72 -35 -72 -110c0 -71 30 -108 76 -108z" />
    <glyph glyph-name="h.sups" unicode="&#x2b0;" horiz-adv-x="391" 
d="M38 260v460h120v-108l-8 -58c22 22 56 46 101 46c75 0 105 -54 105 -138v-202h-120v188c0 36 -4 52 -32 52c-18 0 -30 -10 -46 -25v-215h-120z" />
    <glyph glyph-name="j.sups" unicode="&#x2b2;" horiz-adv-x="198" 
d="M28 128c-32 0 -50 4 -64 8l20 88c6 -2 15 -4 26 -4c23 0 30 12 30 48v324h120v-320c0 -74 -30 -144 -132 -144zM100 630c-39 0 -66 24 -66 58s27 58 66 58c38 0 66 -24 66 -58s-28 -58 -66 -58z" />
    <glyph glyph-name="r.sups" unicode="&#x2b3;" horiz-adv-x="284" 
d="M38 260v332h97l9 -58h2c26 46 62 66 94 66c22 0 35 -4 44 -8l-20 -102c-10 2 -24 6 -38 6c-24 0 -52 -14 -68 -54v-182h-120z" />
    <glyph glyph-name="w.sups" unicode="&#x2b7;" horiz-adv-x="537" 
d="M96 260l-80 332h118l24 -136l12 -102h3l17 102l34 136h94l36 -136l18 -102h3l13 102l24 136h109l-75 -332h-138l-24 112l-14 90h-2l-14 -90l-22 -112h-136z" />
    <glyph glyph-name="y.sups" unicode="&#x2b8;" horiz-adv-x="366" 
d="M58 234c12 -4 16 -4 22 -4c30 0 46 14 52 32l4 12l-128 318h120l38 -124c10 -34 14 -60 22 -94h4c6 32 14 62 22 94l30 124h114l-110 -324c-36 -90 -72 -128 -158 -128c-22 0 -36 2 -52 6z" />
    <glyph glyph-name="uni02B9" unicode="&#x2b9;" horiz-adv-x="320" 
d="M79 324l21 360h172l-29 -162l-52 -198h-112z" />
    <glyph glyph-name="uni02BB" unicode="&#x2bb;" horiz-adv-x="320" 
d="M210 678l36 -74c-64 -28 -96 -67 -96 -127c3 1 7 1 10 1c48 0 86 -32 86 -82c0 -56 -36 -92 -86 -92c-70 0 -106 54 -106 146c0 100 50 178 156 228z" />
    <glyph glyph-name="uni02BC" unicode="&#x2bc;" horiz-adv-x="320" 
d="M110 322l-36 74c64 28 96 67 96 127c-3 -1 -7 -1 -10 -1c-48 0 -86 32 -86 82c0 56 36 92 86 92c70 0 106 -54 106 -146c0 -100 -50 -178 -156 -228z" />
    <glyph glyph-name="uni02BE" unicode="&#x2be;" horiz-adv-x="170" 
d="M24 550v62c42 0 54 18 54 44s-12 44 -54 44v62c94 4 136 -42 136 -106s-42 -110 -136 -106z" />
    <glyph glyph-name="uni02BF" unicode="&#x2bf;" horiz-adv-x="170" 
d="M146 762v-62c-42 0 -54 -18 -54 -44s12 -44 54 -44v-62c-94 -4 -136 42 -136 106s42 110 136 106z" />
    <glyph glyph-name="circumflex" unicode="&#x2c6;" horiz-adv-x="560" 
d="M116 574l96 154h136l96 -154h-114l-48 74h-4l-48 -74h-114z" />
    <glyph glyph-name="caron" unicode="&#x2c7;" horiz-adv-x="560" 
d="M212 574l-96 154h114l48 -74h4l48 74h114l-96 -154h-136z" />
    <glyph glyph-name="uni02C8" unicode="&#x2c8;" horiz-adv-x="160" 
d="M18 542l-6 208h136l-6 -208h-124z" />
    <glyph glyph-name="uni02C9" unicode="&#x2c9;" horiz-adv-x="320" 
d="M16 588v108h288v-108h-288z" />
    <glyph glyph-name="uni02CA" unicode="&#x2ca;" horiz-adv-x="240" 
d="M284 728l-128 -154h-124l88 154h164z" />
    <glyph glyph-name="uni02CB" unicode="&#x2cb;" horiz-adv-x="240" 
d="M84 574l-128 154h164l88 -154h-124z" />
    <glyph glyph-name="uni02CC" unicode="&#x2cc;" horiz-adv-x="160" 
d="M18 -62h124l6 -208h-136z" />
    <glyph glyph-name="breve" unicode="&#x2d8;" horiz-adv-x="560" 
d="M280 574c-96 0 -142 66 -144 144h94c4 -30 19 -52 50 -52s46 22 50 52h94c-2 -78 -48 -144 -144 -144z" />
    <glyph glyph-name="dotaccent" unicode="&#x2d9;" horiz-adv-x="560" 
d="M280 562c-54 0 -92 36 -92 86s38 86 92 86s92 -36 92 -86s-38 -86 -92 -86z" />
    <glyph glyph-name="ring" unicode="&#x2da;" horiz-adv-x="560" 
d="M280 550c-72 0 -120 42 -120 106s48 106 120 106s120 -42 120 -106s-48 -106 -120 -106zM280 612c21 0 38 18 38 44s-17 44 -38 44s-38 -18 -38 -44s17 -44 38 -44z" />
    <glyph glyph-name="ogonek" unicode="&#x2db;" horiz-adv-x="560" 
d="M186 -118c0 60 46 104 70 120h92c-34 -28 -48 -52 -48 -80c0 -24 20 -34 40 -34c12 0 26 6 34 12l34 -76c-28 -22 -76 -36 -110 -36c-62 0 -112 32 -112 94z" />
    <glyph glyph-name="tilde" unicode="&#x2dc;" horiz-adv-x="560" 
d="M104 574c12 102 58 146 112 146s92 -42 120 -42c16 0 26 10 34 42h86c-12 -102 -58 -146 -112 -146s-92 42 -120 42c-16 0 -26 -10 -34 -42h-86z" />
    <glyph glyph-name="hungarumlaut" unicode="&#x2dd;" horiz-adv-x="560" 
d="M144 574l68 154h134l-98 -154h-104zM324 574l68 154h134l-98 -154h-104z" />
    <glyph glyph-name="l.sups" unicode="&#x2e1;" horiz-adv-x="202" 
d="M38 380v340h120v-344c0 -22 8 -30 18 -30c4 0 6 0 12 2l14 -86c-14 -6 -30 -10 -58 -10c-80 0 -106 52 -106 128z" />
    <glyph glyph-name="s.sups" unicode="&#x2e2;" horiz-adv-x="302" 
d="M14 296l50 74c32 -22 60 -32 82 -32s32 6 32 18c0 16 -30 22 -64 36c-40 16 -84 44 -84 99c0 65 54 109 134 109c56 0 94 -22 124 -44l-52 -70c-24 16 -48 28 -68 28c-18 0 -28 -6 -28 -18c0 -16 32 -22 64 -34c38 -14 84 -40 84 -99c0 -63 -50 -111 -145 -111
c-43 0 -94 18 -129 44z" />
    <glyph glyph-name="x.sups" unicode="&#x2e3;" horiz-adv-x="364" 
d="M8 260l102 172l-96 160h128l22 -46l26 -50h4l18 50l16 46h124l-96 -174l100 -158h-126l-24 44l-30 50h-4l-22 -50l-18 -44h-124z" />
    <glyph glyph-name="uni0300" unicode="&#x300;" 
d="M-36 574l-128 154h164l88 -154h-124z" />
    <glyph glyph-name="uni0301" unicode="&#x301;" 
d="M164 728l-128 -154h-124l88 154h164z" />
    <glyph glyph-name="uni0302" unicode="&#x302;" 
d="M-164 574l96 154h136l96 -154h-114l-48 74h-4l-48 -74h-114z" />
    <glyph glyph-name="uni0303" unicode="&#x303;" 
d="M-176 574c12 102 58 146 112 146s92 -42 120 -42c16 0 26 10 34 42h86c-12 -102 -58 -146 -112 -146s-92 42 -120 42c-16 0 -26 -10 -34 -42h-86z" />
    <glyph glyph-name="uni0304" unicode="&#x304;" 
d="M-144 588v108h288v-108h-288z" />
    <glyph glyph-name="uni0306" unicode="&#x306;" 
d="M0 574c-96 0 -142 66 -144 144h94c4 -30 19 -52 50 -52s46 22 50 52h94c-2 -78 -48 -144 -144 -144z" />
    <glyph glyph-name="uni0307" unicode="&#x307;" 
d="M0 562c-54 0 -92 36 -92 86s38 86 92 86s92 -36 92 -86s-38 -86 -92 -86z" />
    <glyph glyph-name="uni0308" unicode="&#x308;" 
d="M-104 564c-46 0 -78 34 -78 78s32 78 78 78s78 -34 78 -78s-32 -78 -78 -78zM104 564c-46 0 -78 34 -78 78s32 78 78 78s78 -34 78 -78s-32 -78 -78 -78z" />
    <glyph glyph-name="uni0309" unicode="&#x309;" 
d="M-38 558l-12 66c22 3 40 8 40 24s-20 26 -78 30l20 84c138 -4 180 -42 180 -96c0 -72 -68 -104 -150 -108z" />
    <glyph glyph-name="uni030A" unicode="&#x30a;" 
d="M0 550c-72 0 -120 42 -120 106s48 106 120 106s120 -42 120 -106s-48 -106 -120 -106zM0 612c21 0 38 18 38 44s-17 44 -38 44s-38 -18 -38 -44s17 -44 38 -44z" />
    <glyph glyph-name="uni030B" unicode="&#x30b;" 
d="M-136 574l68 154h134l-98 -154h-104zM44 574l68 154h134l-98 -154h-104z" />
    <glyph glyph-name="uni030C" unicode="&#x30c;" 
d="M-68 574l-96 154h114l48 -74h4l48 74h114l-96 -154h-136z" />
    <glyph glyph-name="uni030F" unicode="&#x30f;" 
d="M68 728l68 -154h-104l-98 154h134zM-112 728l68 -154h-104l-98 154h134z" />
    <glyph glyph-name="uni0312" unicode="&#x312;" 
d="M32 766l24 -50c-37 -12 -60 -29 -65 -55c3 1 5 1 8 1c31 0 57 -22 57 -56c0 -38 -26 -62 -58 -62c-48 0 -72 31 -72 88c0 59 34 108 106 134z" />
    <glyph glyph-name="uni0313" unicode="&#x313;" 
d="M-36 540l-24 50c37 12 60 29 65 55c-3 -1 -5 -1 -8 -1c-31 0 -57 22 -57 56c0 38 26 62 58 62c48 0 72 -31 72 -88c0 -59 -34 -108 -106 -134z" />
    <glyph glyph-name="uni031B" unicode="&#x31b;" 
d="M2 424l-12 66c34 7 60 18 60 60c0 20 -9 37 -16 48l116 50c16 -18 32 -50 32 -86c0 -94 -83 -134 -180 -138z" />
    <glyph glyph-name="uni0323" unicode="&#x323;" 
d="M0 -234c-54 0 -92 36 -92 86s38 86 92 86s92 -36 92 -86s-38 -86 -92 -86z" />
    <glyph glyph-name="uni0324" unicode="&#x324;" 
d="M-104 -222c-46 0 -78 34 -78 78s32 78 78 78s78 -34 78 -78s-32 -78 -78 -78zM104 -222c-46 0 -78 34 -78 78s32 78 78 78s78 -34 78 -78s-32 -78 -78 -78z" />
    <glyph glyph-name="uni0326" unicode="&#x326;" 
d="M-38 -40c98 -8 130 -34 130 -86c0 -72 -88 -104 -190 -108l-12 66c46 4 80 12 80 34c0 16 -10 26 -40 34z" />
    <glyph glyph-name="uni0327" unicode="&#x327;" 
d="M-86 -76l40 80h98l-18 -44c34 -12 58 -34 58 -76c0 -72 -88 -104 -190 -108l-12 66c46 4 80 16 80 42c0 14 -10 28 -56 40z" />
    <glyph glyph-name="uni0328" unicode="&#x328;" 
d="M-94 -118c0 60 46 104 70 120h92c-34 -28 -48 -52 -48 -80c0 -24 20 -34 40 -34c12 0 26 6 34 12l34 -76c-28 -22 -76 -36 -110 -36c-62 0 -112 32 -112 94z" />
    <glyph glyph-name="uni032E" unicode="&#x32e;" 
d="M0 -212c-96 0 -142 66 -144 144h94c4 -30 19 -52 50 -52s46 22 50 52h94c-2 -78 -48 -144 -144 -144z" />
    <glyph glyph-name="uni0331" unicode="&#x331;" 
d="M144 -88v-108h-288v108h288z" />
    <glyph glyph-name="pi" unicode="&#x3c0;" horiz-adv-x="624" 
d="M102 0v366h-86v128l76 6h506v-134h-64v-196c0 -34 16 -44 28 -44c6 0 10 0 18 2l20 -126c-18 -8 -46 -14 -84 -14c-116 0 -154 76 -154 188v190h-89l-1 -366h-170z" />
    <glyph glyph-name="a.sups" unicode="&#x1d43;" horiz-adv-x="364" 
d="M128 252c-64 0 -102 48 -102 102c0 70 54 108 182 120c-3 23 -17 32 -44 32c-24 0 -51 -10 -86 -28l-42 78c48 28 98 44 150 44c86 0 142 -48 142 -154v-186h-96l-10 32h-4c-24 -24 -54 -40 -90 -40zM169 342c17 0 27 8 39 20v44c-52 -6 -68 -24 -68 -42
c0 -14 10 -22 29 -22z" />
    <glyph glyph-name="b.sups" unicode="&#x1d47;" horiz-adv-x="390" 
d="M38 260v460h120v-107l-4 -47c23 21 53 34 82 34c78 0 130 -68 130 -168c0 -116 -68 -180 -138 -180c-30 0 -62 14 -84 44h-4l-10 -36h-92zM158 360c14 -10 26 -14 40 -14c24 0 46 22 46 84c0 54 -16 74 -44 74c-16 0 -28 -6 -42 -22v-122z" />
    <glyph glyph-name="d.sups" unicode="&#x1d48;" horiz-adv-x="390" 
d="M160 252c-83 0 -136 66 -136 180c0 104 72 168 136 168c34 0 60 -14 78 -34l-6 52v102h120v-460h-98l-8 30h-2c-22 -22 -52 -38 -84 -38zM194 346c16 0 28 6 38 24v120c-14 12 -26 16 -40 16c-24 0 -46 -22 -46 -74c0 -64 18 -86 48 -86z" />
    <glyph glyph-name="e.sups" unicode="&#x1d49;" horiz-adv-x="350" 
d="M196 252c-98 0 -174 66 -174 174c0 106 76 174 162 174c98 0 146 -72 146 -162c0 -20 -2 -30 -6 -44h-188c10 -42 40 -52 76 -52c22 0 44 4 68 18l40 -70c-38 -26 -86 -38 -124 -38zM134 460h96c0 28 -12 50 -45 50c-25 0 -45 -14 -51 -50z" />
    <glyph glyph-name="g.sups" unicode="&#x1d4d;" horiz-adv-x="368" 
d="M116 226c0 -20 26 -30 64 -30c36 0 62 12 62 29c0 15 -14 19 -42 19h-26c-16 0 -32 0 -46 4c-7 -7 -12 -14 -12 -22zM20 206c0 28 16 48 46 62v4c-18 12 -30 28 -30 56c0 22 13 46 37 62v4c-25 15 -46 46 -46 84c0 83 70 122 145 122c18 0 38 -2 54 -8h124v-86h-46
c2 -7 4 -20 4 -32c0 -78 -62 -110 -136 -110c-10 0 -20 0 -36 4c-6 -6 -8 -10 -8 -18c0 -14 12 -18 46 -18h50c86 0 132 -25 132 -86c0 -72 -74 -122 -196 -122c-76 0 -140 22 -140 82zM172 434c20 0 33 14 33 44s-13 44 -33 44s-34 -14 -34 -44s14 -44 34 -44z" />
    <glyph glyph-name="k.sups" unicode="&#x1d4f;" horiz-adv-x="384" 
d="M38 260v460h120v-242h4l84 114h128l-122 -142l128 -190h-128l-66 114l-28 -34v-80h-120z" />
    <glyph glyph-name="m.sups" unicode="&#x1d50;" horiz-adv-x="584" 
d="M38 260v332h97l9 -42h2c26 26 54 50 100 50c45 0 74 -20 93 -54c27 28 57 54 103 54c74 0 108 -54 108 -138v-202h-120v188c0 36 -8 52 -34 52c-12 0 -26 -8 -42 -24v-216h-120v188c0 36 -8 52 -34 52c-12 0 -26 -8 -42 -24v-216h-120z" />
    <glyph glyph-name="o.sups" unicode="&#x1d52;" horiz-adv-x="376" 
d="M188 252c-86 0 -166 64 -166 173c0 110 80 175 166 175s166 -65 166 -175c0 -109 -80 -173 -166 -173zM188 346c33 0 44 31 44 79c0 49 -11 81 -44 81s-44 -32 -44 -81c0 -48 11 -79 44 -79z" />
    <glyph glyph-name="p.sups" unicode="&#x1d56;" horiz-adv-x="390" 
d="M38 128v464h96l8 -32h2c22 22 60 40 92 40c78 0 130 -68 130 -168c0 -116 -68 -180 -138 -180c-28 0 -54 12 -76 34l6 -68v-90h-120zM158 360c14 -10 26 -14 40 -14c24 0 46 22 46 84c0 54 -16 74 -44 74c-16 0 -28 -6 -42 -22v-122z" />
    <glyph glyph-name="t.sups" unicode="&#x1d57;" horiz-adv-x="270" 
d="M54 390v110h-44v88l50 4l14 84h100v-84h74v-92h-74v-108c0 -36 18 -48 38 -48c10 0 18 0 28 4l20 -84c-20 -6 -44 -12 -82 -12c-88 0 -124 56 -124 138z" />
    <glyph glyph-name="u.sups" unicode="&#x1d58;" horiz-adv-x="388" 
d="M140 252c-73 0 -106 53 -106 135v205h120v-190c0 -36 4 -50 34 -50c16 0 30 8 44 24v216h120v-332h-96l-12 40h-2c-22 -22 -56 -48 -102 -48z" />
    <glyph glyph-name="v.sups" unicode="&#x1d5b;" horiz-adv-x="368" 
d="M116 260l-108 332h118l34 -142l26 -104h2l24 104l34 142h114l-106 -332h-138z" />
    <glyph glyph-name="c.sups" unicode="&#x1d9c;" horiz-adv-x="316" 
d="M188 252c-96 0 -166 64 -166 174c0 108 80 174 172 174c52 0 90 -18 106 -34l-54 -76c-12 10 -26 16 -40 16c-36 0 -62 -32 -62 -80s24 -80 60 -80c26 0 40 10 52 20l48 -76c-22 -18 -62 -38 -116 -38z" />
    <glyph glyph-name="f.sups" unicode="&#x1da0;" horiz-adv-x="244" 
d="M266 724l-22 -84c-8 2 -20 4 -32 4c-20 0 -34 -13 -34 -48v-4h55v-92h-55v-240h-120v240h-44v88l44 3v1c0 74 34 144 136 144c30 0 56 -6 72 -12z" />
    <glyph glyph-name="z.sups" unicode="&#x1dbb;" horiz-adv-x="320" 
d="M26 260v64l126 176h-110v92h258v-64l-125 -176h129v-92h-278z" />
    <glyph glyph-name="uni1E06" unicode="&#x1e06;" horiz-adv-x="612" 
d="M72 0v650h234c136 0 246 -34 246 -162c0 -56 -32 -120 -108 -140v-4c92 -18 138 -66 138 -152c0 -134 -116 -192 -256 -192h-254zM244 394h58c56 0 82 28 82 68s-26 56 -82 56h-58v-124zM244 132h70c68 0 100 26 100 74s-32 68 -100 68h-70v-142zM464 -88v-108h-288v108
h288z" />
    <glyph glyph-name="uni1E07" unicode="&#x1e07;" horiz-adv-x="580" 
d="M58 0v696h172v-162l-4 -72c35 32 79 50 123 50c118 0 195 -100 195 -253c0 -173 -102 -271 -208 -271c-44 0 -88 22 -126 66h-4l-14 -54h-134zM230 152c20 -18 42 -24 64 -24c40 0 74 32 74 128c0 82 -24 116 -70 116c-26 0 -46 -10 -68 -36v-184zM441 -88v-108h-288v108
h288z" />
    <glyph glyph-name="uni1E0C" unicode="&#x1e0c;" horiz-adv-x="642" 
d="M72 0v650h192c198 0 334 -92 334 -322s-136 -328 -324 -328h-202zM244 138h10c94 0 168 38 168 190s-74 184 -168 184h-10v-374zM316 -234c-54 0 -92 36 -92 86s38 86 92 86s92 -36 92 -86s-38 -86 -92 -86z" />
    <glyph glyph-name="uni1E0D" unicode="&#x1e0d;" horiz-adv-x="580" 
d="M36 250c0 164 102 262 204 262c54 0 86 -20 116 -50l-6 72v162h172v-696h-140l-12 46h-4c-34 -34 -82 -58 -126 -58c-124 0 -204 100 -204 262zM212 252c0 -90 28 -124 74 -124c26 0 46 8 64 36v184c-20 18 -46 24 -68 24c-36 0 -70 -32 -70 -120zM316 -234
c-54 0 -92 36 -92 86s38 86 92 86s92 -36 92 -86s-38 -86 -92 -86z" />
    <glyph glyph-name="uni1E0E" unicode="&#x1e0e;" horiz-adv-x="642" 
d="M72 0v650h192c198 0 334 -92 334 -322s-136 -328 -324 -328h-202zM244 138h10c94 0 168 38 168 190s-74 184 -168 184h-10v-374zM460 -88v-108h-288v108h288z" />
    <glyph glyph-name="uni1E0F" unicode="&#x1e0f;" horiz-adv-x="580" 
d="M36 250c0 164 102 262 204 262c54 0 86 -20 116 -50l-6 72v162h172v-696h-140l-12 46h-4c-34 -34 -82 -58 -126 -58c-124 0 -204 100 -204 262zM212 252c0 -90 28 -124 74 -124c26 0 46 8 64 36v184c-20 18 -46 24 -68 24c-36 0 -70 -32 -70 -120zM460 -88v-108h-288v108
h288z" />
    <glyph glyph-name="uni1E16" unicode="&#x1e16;" horiz-adv-x="556" 
d="M72 0v650h420v-144h-248v-102h212v-144h-212v-116h258v-144h-430zM206 860l78 124h178l-120 -124h-136zM142 716v108h296v-108h-296z" />
    <glyph glyph-name="uni1E17" unicode="&#x1e17;" horiz-adv-x="526" 
d="M32 250c0 162 118 262 240 262c148 0 218 -108 218 -242c0 -30 -4 -56 -7 -68h-285c16 -64 60 -84 116 -84c34 0 66 10 102 30l56 -102c-54 -38 -126 -58 -182 -58c-146 0 -258 96 -258 262zM196 306h148c0 42 -16 76 -68 76c-38 0 -70 -21 -80 -76zM198 744l84 114h144
l-120 -114h-108zM128 588v108h288v-108h-288z" />
    <glyph glyph-name="uni1E20" unicode="&#x1e20;" horiz-adv-x="646" 
d="M44 320c0 218 150 342 328 342c92 0 162 -40 208 -86l-94 -106c-32 28 -60 44 -112 44c-88 0 -154 -70 -154 -188c0 -122 54 -190 170 -190c18 0 38 4 50 12v90h-96v140h248v-310c-48 -44 -132 -80 -224 -80c-178 0 -324 110 -324 332zM224 716v108h296v-108h-296z" />
    <glyph glyph-name="uni1E21" unicode="&#x1e21;" horiz-adv-x="546" 
d="M170 -54c0 -32 40 -46 98 -46c56 0 98 18 98 46c0 26 -24 30 -67 30h-39c-40 0 -58 2 -72 6c-12 -12 -18 -22 -18 -36zM30 -82c0 41 24 72 70 96v4c-26 18 -46 44 -46 86c0 34 22 70 56 94v4c-36 24 -68 70 -68 128c0 124 104 182 214 182c28 0 56 -4 80 -12h186v-124
h-72c4 -12 8 -32 8 -52c0 -118 -90 -166 -202 -166c-16 0 -34 2 -56 7c-10 -9 -12 -15 -12 -29c0 -22 20 -30 70 -30h75c125 0 197 -38 197 -130c0 -108 -112 -182 -290 -182c-114 0 -210 34 -210 124zM256 260c32 0 54 22 54 70c0 46 -22 68 -54 68s-54 -22 -54 -68
c0 -48 22 -70 54 -70zM112 588v108h288v-108h-288z" />
    <glyph glyph-name="uni1E24" unicode="&#x1e24;" horiz-adv-x="682" 
d="M72 0v650h172v-242h194v242h172v-650h-172v258h-194v-258h-172zM340 -234c-54 0 -92 36 -92 86s38 86 92 86s92 -36 92 -86s-38 -86 -92 -86z" />
    <glyph glyph-name="uni1E25" unicode="&#x1e25;" horiz-adv-x="582" 
d="M58 0v696h172v-162l-8 -86c34 30 82 64 150 64c110 0 156 -80 156 -204v-308h-172v286c0 64 -16 80 -50 80c-32 0 -50 -14 -76 -38v-328h-172zM296 -234c-54 0 -92 36 -92 86s38 86 92 86s92 -36 92 -86s-38 -86 -92 -86z" />
    <glyph glyph-name="uni1E2A" unicode="&#x1e2a;" horiz-adv-x="682" 
d="M72 0v650h172v-242h194v242h172v-650h-172v258h-194v-258h-172zM340 -212c-96 0 -142 66 -144 144h94c4 -30 19 -52 50 -52s46 22 50 52h94c-2 -78 -48 -144 -144 -144z" />
    <glyph glyph-name="uni1E2B" unicode="&#x1e2b;" horiz-adv-x="582" 
d="M58 0v696h172v-162l-8 -86c34 30 82 64 150 64c110 0 156 -80 156 -204v-308h-172v286c0 64 -16 80 -50 80c-32 0 -50 -14 -76 -38v-328h-172zM296 -212c-96 0 -142 66 -144 144h94c4 -30 19 -52 50 -52s46 22 50 52h94c-2 -78 -48 -144 -144 -144z" />
    <glyph glyph-name="uni1E34" unicode="&#x1e34;" horiz-adv-x="628" 
d="M72 0v650h172v-242h4l164 242h188l-194 -264l232 -386h-188l-144 250l-62 -88v-162h-172zM478 -88v-108h-288v108h288z" />
    <glyph glyph-name="uni1E35" unicode="&#x1e35;" horiz-adv-x="568" 
d="M58 0v696h168v-370h4l138 174h186l-178 -208l188 -292h-186l-100 178l-52 -58v-120h-168zM448 -88v-108h-288v108h288z" />
    <glyph glyph-name="uni1E36" unicode="&#x1e36;" horiz-adv-x="530" 
d="M72 0v650h172v-506h246v-144h-418zM291 -234c-54 0 -92 36 -92 86s38 86 92 86s92 -36 92 -86s-38 -86 -92 -86z" />
    <glyph glyph-name="uni1E37" unicode="&#x1e37;" horiz-adv-x="298" 
d="M58 176v520h172v-526c0 -34 16 -44 28 -44c6 0 10 0 18 2l20 -126c-18 -8 -46 -14 -84 -14c-116 0 -154 76 -154 188zM198 -234c-54 0 -92 36 -92 86s38 86 92 86s92 -36 92 -86s-38 -86 -92 -86z" />
    <glyph glyph-name="uni1E38" unicode="&#x1e38;" horiz-adv-x="530" 
d="M72 0v650h172v-506h246v-144h-418zM14 716v108h296v-108h-296zM291 -234c-54 0 -92 36 -92 86s38 86 92 86s92 -36 92 -86s-38 -86 -92 -86z" />
    <glyph glyph-name="uni1E39" unicode="&#x1e39;" horiz-adv-x="298" 
d="M58 176v520h172v-526c0 -34 16 -44 28 -44c6 0 10 0 18 2l20 -126c-18 -8 -46 -14 -84 -14c-116 0 -154 76 -154 188zM-1 796v108h288v-108h-288zM198 -234c-54 0 -92 36 -92 86s38 86 92 86s92 -36 92 -86s-38 -86 -92 -86z" />
    <glyph glyph-name="uni1E3A" unicode="&#x1e3a;" horiz-adv-x="530" 
d="M72 0v650h172v-506h246v-144h-418zM435 -88v-108h-288v108h288z" />
    <glyph glyph-name="uni1E3B" unicode="&#x1e3b;" horiz-adv-x="298" 
d="M58 176v520h172v-526c0 -34 16 -44 28 -44c6 0 10 0 18 2l20 -126c-18 -8 -46 -14 -84 -14c-116 0 -154 76 -154 188zM342 -88v-108h-288v108h288z" />
    <glyph glyph-name="uni1E42" unicode="&#x1e42;" horiz-adv-x="776" 
d="M72 0v650h178l102 -270l36 -106h4l36 106l98 270h178v-650h-160v192c0 66 14 167 22 232h-4l-54 -152l-90 -219h-64l-90 219l-52 152h-4c8 -65 22 -166 22 -232v-192h-158zM390 -234c-54 0 -92 36 -92 86s38 86 92 86s92 -36 92 -86s-38 -86 -92 -86z" />
    <glyph glyph-name="uni1E43" unicode="&#x1e43;" horiz-adv-x="868" 
d="M58 0v500h140l12 -61h4c40 39 82 73 150 73s111 -28 138 -80c41 42 86 80 154 80c110 0 158 -80 158 -204v-308h-172v286c0 64 -16 80 -50 80c-20 0 -44 -12 -70 -38v-328h-172v286c0 64 -16 80 -50 80c-20 0 -44 -12 -70 -38v-328h-172zM444 -234c-54 0 -92 36 -92 86
s38 86 92 86s92 -36 92 -86s-38 -86 -92 -86z" />
    <glyph glyph-name="uni1E44" unicode="&#x1e44;" horiz-adv-x="672" 
d="M72 0v650h176l144 -290l62 -146h4c-8 70 -22 168 -22 248v188h164v-650h-176l-144 291l-62 145h-4c8 -74 22 -168 22 -248v-188h-164zM336 696c-56 0 -96 36 -96 86s40 86 96 86s96 -36 96 -86s-40 -86 -96 -86z" />
    <glyph glyph-name="uni1E45" unicode="&#x1e45;" horiz-adv-x="582" 
d="M58 0v500h140l12 -60h4c40 38 90 72 158 72c110 0 156 -80 156 -204v-308h-172v286c0 64 -16 80 -50 80c-32 0 -50 -14 -76 -38v-328h-172zM314 562c-54 0 -92 36 -92 86s38 86 92 86s92 -36 92 -86s-38 -86 -92 -86z" />
    <glyph glyph-name="uni1E46" unicode="&#x1e46;" horiz-adv-x="672" 
d="M72 0v650h176l144 -290l62 -146h4c-8 70 -22 168 -22 248v188h164v-650h-176l-144 291l-62 145h-4c8 -74 22 -168 22 -248v-188h-164zM350 -234c-54 0 -92 36 -92 86s38 86 92 86s92 -36 92 -86s-38 -86 -92 -86z" />
    <glyph glyph-name="uni1E47" unicode="&#x1e47;" horiz-adv-x="582" 
d="M58 0v500h140l12 -60h4c40 38 90 72 158 72c110 0 156 -80 156 -204v-308h-172v286c0 64 -16 80 -50 80c-32 0 -50 -14 -76 -38v-328h-172zM296 -234c-54 0 -92 36 -92 86s38 86 92 86s92 -36 92 -86s-38 -86 -92 -86z" />
    <glyph glyph-name="uni1E48" unicode="&#x1e48;" horiz-adv-x="672" 
d="M72 0v650h176l144 -290l62 -146h4c-8 70 -22 168 -22 248v188h164v-650h-176l-144 291l-62 145h-4c8 -74 22 -168 22 -248v-188h-164zM494 -88v-108h-288v108h288z" />
    <glyph glyph-name="uni1E49" unicode="&#x1e49;" horiz-adv-x="582" 
d="M58 0v500h140l12 -60h4c40 38 90 72 158 72c110 0 156 -80 156 -204v-308h-172v286c0 64 -16 80 -50 80c-32 0 -50 -14 -76 -38v-328h-172zM440 -88v-108h-288v108h288z" />
    <glyph glyph-name="uni1E52" unicode="&#x1e52;" horiz-adv-x="692" 
d="M346 -12c-180 0 -302 126 -302 340s122 334 302 334s302 -121 302 -334c0 -214 -122 -340 -302 -340zM346 136c78 0 126 74 126 192s-48 186 -126 186s-126 -68 -126 -186s48 -192 126 -192zM262 860l78 124h178l-120 -124h-136zM198 716v108h296v-108h-296z" />
    <glyph glyph-name="uni1E53" unicode="&#x1e53;" horiz-adv-x="560" 
d="M32 250c0 166 120 262 248 262s248 -96 248 -262s-120 -262 -248 -262s-248 96 -248 262zM208 250c0 -76 20 -124 72 -124s72 48 72 124s-20 124 -72 124s-72 -48 -72 -124zM206 744l84 114h144l-120 -114h-108zM136 588v108h288v-108h-288z" />
    <glyph glyph-name="uni1E5A" unicode="&#x1e5a;" horiz-adv-x="630" 
d="M244 514v-160h62c68 0 104 30 104 86s-36 74 -104 74h-62zM244 218v-218h-172v650h246c140 0 260 -48 260 -210c0 -93 -42 -154 -105 -188l141 -252h-192l-112 218h-66zM334 -62c54 0 92 -36 92 -86s-38 -86 -92 -86s-92 36 -92 86s38 86 92 86z" />
    <glyph glyph-name="uni1E5B" unicode="&#x1e5b;" horiz-adv-x="418" 
d="M58 0v500h140l12 -86h4c37 68 93 98 142 98c31 0 48 -4 62 -10l-28 -148c-18 4 -34 8 -56 8c-36 0 -80 -22 -104 -84v-278h-172zM144 -234c-54 0 -92 36 -92 86s38 86 92 86s92 -36 92 -86s-38 -86 -92 -86z" />
    <glyph glyph-name="uni1E5C" unicode="&#x1e5c;" horiz-adv-x="630" 
d="M464 824v-108h-296v108h296zM244 514v-160h62c68 0 104 30 104 86s-36 74 -104 74h-62zM244 218v-218h-172v650h246c140 0 260 -48 260 -210c0 -93 -42 -154 -105 -188l141 -252h-192l-112 218h-66zM334 -62c54 0 92 -36 92 -86s-38 -86 -92 -86s-92 36 -92 86
s38 86 92 86z" />
    <glyph glyph-name="uni1E5D" unicode="&#x1e5d;" horiz-adv-x="418" 
d="M58 0v500h140l12 -86h4c37 68 93 98 142 98c31 0 48 -4 62 -10l-28 -148c-18 4 -34 8 -56 8c-36 0 -80 -22 -104 -84v-278h-172zM114 588v108h288v-108h-288zM144 -234c-54 0 -92 36 -92 86s38 86 92 86s92 -36 92 -86s-38 -86 -92 -86z" />
    <glyph glyph-name="uni1E5E" unicode="&#x1e5e;" horiz-adv-x="630" 
d="M244 514v-160h62c68 0 104 30 104 86s-36 74 -104 74h-62zM244 218v-218h-172v650h246c140 0 260 -48 260 -210c0 -93 -42 -154 -105 -188l141 -252h-192l-112 218h-66zM190 -196v108h288v-108h-288z" />
    <glyph glyph-name="uni1E5F" unicode="&#x1e5f;" horiz-adv-x="418" 
d="M58 0v500h140l12 -86h4c37 68 93 98 142 98c31 0 48 -4 62 -10l-28 -148c-18 4 -34 8 -56 8c-36 0 -80 -22 -104 -84v-278h-172zM288 -88v-108h-288v108h288z" />
    <glyph glyph-name="uni1E60" unicode="&#x1e60;" horiz-adv-x="564" 
d="M32 81l98 118c46 -37 104 -63 152 -63c52 0 74 17 74 46c0 31 -33 41 -88 63l-81 34c-70 28 -131 87 -131 181c0 111 100 202 242 202c74 0 156 -28 216 -87l-86 -108c-44 31 -82 47 -130 47c-42 0 -68 -15 -68 -44c0 -31 37 -42 96 -65l79 -31c81 -32 127 -88 127 -178
c0 -110 -92 -208 -254 -208c-82 0 -176 30 -246 93zM296 696c-56 0 -96 36 -96 86s40 86 96 86s96 -36 96 -86s-40 -86 -96 -86z" />
    <glyph glyph-name="uni1E61" unicode="&#x1e61;" horiz-adv-x="452" 
d="M18 58l76 106c46 -34 87 -50 122 -50c36 0 50 10 50 30c0 26 -46 38 -96 58c-58 23 -126 66 -126 148c0 98 80 162 198 162c82 0 140 -33 184 -66l-76 -102c-36 26 -71 42 -102 42c-29 0 -44 -8 -44 -28c0 -26 44 -36 94 -54c60 -22 128 -60 128 -150
c0 -94 -74 -166 -214 -166c-64 0 -142 28 -194 70zM242 562c-54 0 -92 36 -92 86s38 86 92 86s92 -36 92 -86s-38 -86 -92 -86z" />
    <glyph glyph-name="uni1E62" unicode="&#x1e62;" horiz-adv-x="564" 
d="M32 81l98 118c46 -37 104 -63 152 -63c52 0 74 17 74 46c0 31 -33 41 -88 63l-81 34c-70 28 -131 87 -131 181c0 111 100 202 242 202c74 0 156 -28 216 -87l-86 -108c-44 31 -82 47 -130 47c-42 0 -68 -15 -68 -44c0 -31 37 -42 96 -65l79 -31c81 -32 127 -88 127 -178
c0 -110 -92 -208 -254 -208c-82 0 -176 30 -246 93zM282 -234c-54 0 -92 36 -92 86s38 86 92 86s92 -36 92 -86s-38 -86 -92 -86z" />
    <glyph glyph-name="uni1E63" unicode="&#x1e63;" horiz-adv-x="452" 
d="M18 58l76 106c46 -34 87 -50 122 -50c36 0 50 10 50 30c0 26 -46 38 -96 58c-58 23 -126 66 -126 148c0 98 80 162 198 162c82 0 140 -33 184 -66l-76 -102c-36 26 -71 42 -102 42c-29 0 -44 -8 -44 -28c0 -26 44 -36 94 -54c60 -22 128 -60 128 -150
c0 -94 -74 -166 -214 -166c-64 0 -142 28 -194 70zM236 -234c-54 0 -92 36 -92 86s38 86 92 86s92 -36 92 -86s-38 -86 -92 -86z" />
    <glyph glyph-name="uni1E6C" unicode="&#x1e6c;" horiz-adv-x="564" 
d="M196 0v506h-172v144h516v-144h-172v-506h-172zM282 -234c-54 0 -92 36 -92 86s38 86 92 86s92 -36 92 -86s-38 -86 -92 -86z" />
    <glyph glyph-name="uni1E6D" unicode="&#x1e6d;" horiz-adv-x="400" 
d="M80 192v174h-66v128l76 6l20 130h142v-130h114v-134h-114v-171c0 -55 28 -73 60 -73c16 0 32 4 44 8l26 -124c-26 -8 -63 -18 -118 -18c-130 0 -184 82 -184 204zM244 -234c-54 0 -92 36 -92 86s38 86 92 86s92 -36 92 -86s-38 -86 -92 -86z" />
    <glyph glyph-name="uni1E6E" unicode="&#x1e6e;" horiz-adv-x="564" 
d="M196 0v506h-172v144h516v-144h-172v-506h-172zM426 -88v-108h-288v108h288z" />
    <glyph glyph-name="uni1E6F" unicode="&#x1e6f;" horiz-adv-x="400" 
d="M80 192v174h-66v128l76 6l20 130h142v-130h114v-134h-114v-171c0 -55 28 -73 60 -73c16 0 32 4 44 8l26 -124c-26 -8 -63 -18 -118 -18c-130 0 -184 82 -184 204zM388 -88v-108h-288v108h288z" />
    <glyph glyph-name="Wgrave" unicode="&#x1e80;" horiz-adv-x="824" 
d="M124 0l-114 650h176l36 -284c7 -68 15 -136 22 -204h4c12 68 24 137 36 204l62 284h144l62 -284c12 -65 24 -135 36 -204h4c7 69 15 138 22 204l36 284h164l-108 -650h-218l-50 258c-10 50 -18 104 -24 152h-4c-7 -48 -14 -102 -24 -152l-48 -258h-214zM360 700l-122 124
h180l78 -124h-136z" />
    <glyph glyph-name="wgrave" unicode="&#x1e81;" horiz-adv-x="798" 
d="M144 0l-120 500h170l38 -210c8 -50 12 -100 20 -152h4c8 52 16 104 28 152l46 210h146l48 -210c12 -50 20 -100 30 -152h4c8 52 12 102 20 152l38 210h158l-114 -500h-200l-36 174c-8 46 -16 92 -24 147h-4c-8 -55 -14 -101 -22 -147l-34 -174h-196zM364 574l-128 154
h164l88 -154h-124z" />
    <glyph glyph-name="Wacute" unicode="&#x1e82;" horiz-adv-x="824" 
d="M124 0l-114 650h176l36 -284c7 -68 15 -136 22 -204h4c12 68 24 137 36 204l62 284h144l62 -284c12 -65 24 -135 36 -204h4c7 69 15 138 22 204l36 284h164l-108 -650h-218l-50 258c-10 50 -18 104 -24 152h-4c-7 -48 -14 -102 -24 -152l-48 -258h-214zM586 824
l-122 -124h-136l78 124h180z" />
    <glyph glyph-name="wacute" unicode="&#x1e83;" horiz-adv-x="798" 
d="M144 0l-120 500h170l38 -210c8 -50 12 -100 20 -152h4c8 52 16 104 28 152l46 210h146l48 -210c12 -50 20 -100 30 -152h4c8 52 12 102 20 152l38 210h158l-114 -500h-200l-36 174c-8 46 -16 92 -24 147h-4c-8 -55 -14 -101 -22 -147l-34 -174h-196zM564 728l-128 -154
h-124l88 154h164z" />
    <glyph glyph-name="Wdieresis" unicode="&#x1e84;" horiz-adv-x="824" 
d="M124 0l-114 650h176l36 -284c7 -68 15 -136 22 -204h4c12 68 24 137 36 204l62 284h144l62 -284c12 -65 24 -135 36 -204h4c7 69 15 138 22 204l36 284h164l-108 -650h-218l-50 258c-10 50 -18 104 -24 152h-4c-7 -48 -14 -102 -24 -152l-48 -258h-214zM308 694
c-46 0 -78 34 -78 78s32 78 78 78s78 -34 78 -78s-32 -78 -78 -78zM516 694c-46 0 -78 34 -78 78s32 78 78 78s78 -34 78 -78s-32 -78 -78 -78z" />
    <glyph glyph-name="wdieresis" unicode="&#x1e85;" horiz-adv-x="798" 
d="M144 0l-120 500h170l38 -210c8 -50 12 -100 20 -152h4c8 52 16 104 28 152l46 210h146l48 -210c12 -50 20 -100 30 -152h4c8 52 12 102 20 152l38 210h158l-114 -500h-200l-36 174c-8 46 -16 92 -24 147h-4c-8 -55 -14 -101 -22 -147l-34 -174h-196zM296 564
c-46 0 -78 34 -78 78s32 78 78 78s78 -34 78 -78s-32 -78 -78 -78zM504 564c-46 0 -78 34 -78 78s32 78 78 78s78 -34 78 -78s-32 -78 -78 -78z" />
    <glyph glyph-name="uni1E8E" unicode="&#x1e8e;" horiz-adv-x="544" 
d="M186 0v224l-196 426h184l48 -136c16 -49 32 -94 49 -145h4c17 51 34 96 51 145l48 136h180l-196 -426v-224h-172zM272 696c-56 0 -96 36 -96 86s40 86 96 86s96 -36 96 -86s-40 -86 -96 -86z" />
    <glyph glyph-name="uni1E8F" unicode="&#x1e8f;" horiz-adv-x="542" 
d="M86 -48c9 -2 22 -6 32 -6c46 0 68 20 78 50l6 22l-190 482h172l60 -192c14 -46 24 -92 36 -142h4c10 48 20 94 32 142l50 192h164l-168 -492c-52 -135 -106 -196 -230 -196c-34 0 -54 4 -76 10zM276 562c-54 0 -92 36 -92 86s38 86 92 86s92 -36 92 -86s-38 -86 -92 -86z
" />
    <glyph glyph-name="uni1E92" unicode="&#x1e92;" horiz-adv-x="542" 
d="M32 0v104l266 402h-240v144h452v-104l-266 -402h268v-144h-480zM282 -234c-54 0 -92 36 -92 86s38 86 92 86s92 -36 92 -86s-38 -86 -92 -86z" />
    <glyph glyph-name="uni1E93" unicode="&#x1e93;" horiz-adv-x="474" 
d="M40 0v92l190 274h-168v134h382v-92l-190 -274h196v-134h-410zM252 -234c-54 0 -92 36 -92 86s38 86 92 86s92 -36 92 -86s-38 -86 -92 -86z" />
    <glyph glyph-name="uni1E97" unicode="&#x1e97;" horiz-adv-x="400" 
d="M80 192v174h-66v128l76 6l20 130h142v-130h114v-134h-114v-171c0 -55 28 -73 60 -73c16 0 32 4 44 8l26 -124c-26 -8 -63 -18 -118 -18c-130 0 -184 82 -184 204zM72 706c-46 0 -78 34 -78 78s32 78 78 78s78 -34 78 -78s-32 -78 -78 -78zM280 706c-46 0 -78 34 -78 78
s32 78 78 78s78 -34 78 -78s-32 -78 -78 -78z" />
    <glyph glyph-name="uni1E9E" unicode="&#x1e9e;" horiz-adv-x="720" 
d="M76 0v406c0 142 84 256 290 256c138 0 232 -78 260 -194l-96 -110c82 -32 152 -78 152 -178c0 -108 -70 -192 -208 -192c-90 0 -152 36 -188 70l88 104c30 -28 56 -36 78 -36c32 0 54 22 54 56c0 32 -42 62 -135 79l-11 99l98 114c-15 26 -47 50 -96 50
c-78 0 -114 -48 -114 -140v-384h-172z" />
    <glyph glyph-name="uni1EA0" unicode="&#x1ea0;" horiz-adv-x="584" 
d="M288 -62c54 0 92 -36 92 -86s-38 -86 -92 -86s-92 36 -92 86s38 86 92 86zM229 271h120l-11 45c-16 62 -32 141 -48 206h-4c-14 -66 -30 -144 -46 -206zM396 650l198 -650h-182l-32 138h-182l-32 -138h-176l198 650h208z" />
    <glyph glyph-name="uni1EA1" unicode="&#x1ea1;" horiz-adv-x="542" 
d="M42 142c0 104 80 162 272 182c-4 36 -26 52 -70 52c-36 0 -74 -14 -126 -42l-60 112c70 42 142 66 220 66c130 0 208 -70 208 -234v-278h-140l-12 48h-4c-40 -36 -84 -60 -138 -60c-94 0 -150 72 -150 154zM206 156c0 -23 16 -36 46 -36c28 0 44 14 62 34v68
c-82 -12 -108 -38 -108 -66zM268 -234c-54 0 -92 36 -92 86s38 86 92 86s92 -36 92 -86s-38 -86 -92 -86z" />
    <glyph glyph-name="uni1EA2" unicode="&#x1ea2;" horiz-adv-x="584" 
d="M250 688l-12 66c22 3 40 8 40 24s-20 26 -78 30l20 84c138 -4 180 -42 180 -96c0 -72 -68 -104 -150 -108zM229 271h120l-11 45c-16 62 -32 141 -48 206h-4c-14 -66 -30 -144 -46 -206zM412 0l-32 138h-182l-32 -138h-176l198 650h208l198 -650h-182z" />
    <glyph glyph-name="uni1EA3" unicode="&#x1ea3;" horiz-adv-x="542" 
d="M42 142c0 104 80 162 272 182c-4 36 -26 52 -70 52c-36 0 -74 -14 -126 -42l-60 112c70 42 142 66 220 66c130 0 208 -70 208 -234v-278h-140l-12 48h-4c-40 -36 -84 -60 -138 -60c-94 0 -150 72 -150 154zM206 156c0 -23 16 -36 46 -36c28 0 44 14 62 34v68
c-82 -12 -108 -38 -108 -66zM247 558l-12 66c22 3 40 8 40 24s-20 26 -78 30l20 84c138 -4 180 -42 180 -96c0 -72 -68 -104 -150 -108z" />
    <glyph glyph-name="uni1EA4" unicode="&#x1ea4;" horiz-adv-x="584" 
d="M607 894l-102 -124h-96l68 124h130zM286 752l-48 -52h-120l96 118h148l96 -118h-120l-48 52h-4zM229 271h120l-11 45c-16 62 -32 141 -48 206h-4c-14 -66 -30 -144 -46 -206zM188 650h208l198 -650h-182l-32 138h-182l-32 -138h-176z" />
    <glyph glyph-name="uni1EA5" unicode="&#x1ea5;" horiz-adv-x="542" 
d="M42 142c0 104 80 162 272 182c-4 36 -26 52 -70 52c-36 0 -74 -14 -126 -42l-60 112c70 42 142 66 220 66c130 0 208 -70 208 -234v-278h-140l-12 48h-4c-40 -36 -84 -60 -138 -60c-94 0 -150 72 -150 154zM206 156c0 -23 16 -36 46 -36c28 0 44 14 62 34v68
c-82 -12 -108 -38 -108 -66zM137 574l80 132h136l80 -132h-104l-42 62h-4l-42 -62h-104zM399 648l66 120h124l-96 -120h-94z" />
    <glyph glyph-name="uni1EA6" unicode="&#x1ea6;" horiz-adv-x="584" 
d="M547 770h-96l-102 124h130zM286 752l-48 -52h-120l96 118h148l96 -118h-120l-48 52h-4zM229 271h120l-11 45c-16 62 -32 141 -48 206h-4c-14 -66 -30 -144 -46 -206zM412 0l-32 138h-182l-32 -138h-176l198 650h208l198 -650h-182z" />
    <glyph glyph-name="uni1EA7" unicode="&#x1ea7;" horiz-adv-x="542" 
d="M42 142c0 104 80 162 272 182c-4 36 -26 52 -70 52c-36 0 -74 -14 -126 -42l-60 112c70 42 142 66 220 66c130 0 208 -70 208 -234v-278h-140l-12 48h-4c-40 -36 -84 -60 -138 -60c-94 0 -150 72 -150 154zM206 156c0 -23 16 -36 46 -36c28 0 44 14 62 34v68
c-82 -12 -108 -38 -108 -66zM137 574l80 132h136l80 -132h-104l-42 62h-4l-42 -62h-104zM487 768l66 -120h-94l-96 120h124z" />
    <glyph glyph-name="uni1EA8" unicode="&#x1ea8;" horiz-adv-x="584" 
d="M434 748l-12 52c16 3 28 8 28 24s-13 26 -64 30l16 68c122 -4 156 -40 156 -84c0 -62 -53 -86 -124 -90zM286 752l-48 -52h-120l96 118h148l96 -118h-120l-48 52h-4zM229 271h120l-11 45c-16 62 -32 141 -48 206h-4c-14 -66 -30 -144 -46 -206zM412 0l-32 138h-182
l-32 -138h-176l198 650h208l198 -650h-182z" />
    <glyph glyph-name="uni1EA9" unicode="&#x1ea9;" horiz-adv-x="542" 
d="M42 142c0 104 80 162 272 182c-4 36 -26 52 -70 52c-36 0 -74 -14 -126 -42l-60 112c70 42 142 66 220 66c130 0 208 -70 208 -234v-278h-140l-12 48h-4c-40 -36 -84 -60 -138 -60c-94 0 -150 72 -150 154zM206 156c0 -23 16 -36 46 -36c28 0 44 14 62 34v68
c-82 -12 -108 -38 -108 -66zM137 574l80 132h136l80 -132h-104l-42 62h-4l-42 -62h-104zM431 628l-10 56c16 3 26 8 26 24s-13 26 -64 30l16 70c122 -4 158 -36 158 -82c0 -70 -56 -90 -126 -98z" />
    <glyph glyph-name="uni1EAA" unicode="&#x1eaa;" horiz-adv-x="584" 
d="M370 976h74c-10 -88 -54 -122 -98 -122c-48 0 -79 36 -105 36c-16 0 -29 -10 -35 -36h-74c10 88 54 122 98 122c48 0 79 -36 105 -36c16 0 29 10 35 36zM286 752l-48 -52h-120l96 118h148l96 -118h-120l-48 52h-4zM229 271h120l-11 45c-16 62 -32 141 -48 206h-4
c-14 -66 -30 -144 -46 -206zM412 0l-32 138h-182l-32 -138h-176l198 650h208l198 -650h-182z" />
    <glyph glyph-name="uni1EAB" unicode="&#x1eab;" horiz-adv-x="542" 
d="M42 142c0 104 80 162 272 182c-4 36 -26 52 -70 52c-36 0 -74 -14 -126 -42l-60 112c70 42 142 66 220 66c130 0 208 -70 208 -234v-278h-140l-12 48h-4c-40 -36 -84 -60 -138 -60c-94 0 -150 72 -150 154zM206 156c0 -23 16 -36 46 -36c28 0 44 14 62 34v68
c-82 -12 -108 -38 -108 -66zM129 574l78 114h156l78 -114h-110l-44 56h-4l-44 -56h-110zM205 724h-72c10 88 52 122 96 122c54 0 76 -36 102 -36c16 0 28 10 34 36h72c-10 -88 -52 -122 -96 -122c-54 0 -76 36 -102 36c-16 0 -28 -10 -34 -36z" />
    <glyph glyph-name="uni1EAC" unicode="&#x1eac;" horiz-adv-x="584" 
d="M286 758l-48 -58h-130l96 124h168l96 -124h-130l-48 58h-4zM288 -62c54 0 92 -36 92 -86s-38 -86 -92 -86s-92 36 -92 86s38 86 92 86zM229 271h120l-11 45c-16 62 -32 141 -48 206h-4c-14 -66 -30 -144 -46 -206zM396 650l198 -650h-182l-32 138h-182l-32 -138h-176
l198 650h208z" />
    <glyph glyph-name="uni1EAD" unicode="&#x1ead;" horiz-adv-x="542" 
d="M42 142c0 104 80 162 272 182c-4 36 -26 52 -70 52c-36 0 -74 -14 -126 -42l-60 112c70 42 142 66 220 66c130 0 208 -70 208 -234v-278h-140l-12 48h-4c-40 -36 -84 -60 -138 -60c-94 0 -150 72 -150 154zM206 156c0 -23 16 -36 46 -36c28 0 44 14 62 34v68
c-82 -12 -108 -38 -108 -66zM121 574l96 154h136l96 -154h-114l-48 74h-4l-48 -74h-114zM268 -234c-54 0 -92 36 -92 86s38 86 92 86s92 -36 92 -86s-38 -86 -92 -86z" />
    <glyph glyph-name="uni1EAE" unicode="&#x1eae;" horiz-adv-x="584" 
d="M427 934l-102 -124h-84l60 124h126zM354 824h76c-8 -78 -52 -124 -142 -124s-134 46 -142 124h76c8 -30 24 -50 66 -50s58 20 66 50zM229 271h120l-11 45c-16 62 -32 141 -48 206h-4c-14 -66 -30 -144 -46 -206zM412 0l-32 138h-182l-32 -138h-176l198 650h208l198 -650
h-182z" />
    <glyph glyph-name="uni1EAF" unicode="&#x1eaf;" horiz-adv-x="542" 
d="M42 142c0 104 80 162 272 182c-4 36 -26 52 -70 52c-36 0 -74 -14 -126 -42l-60 112c70 42 142 66 220 66c130 0 208 -70 208 -234v-278h-140l-12 48h-4c-40 -36 -84 -60 -138 -60c-94 0 -150 72 -150 154zM206 156c0 -23 16 -36 46 -36c28 0 44 14 62 34v68
c-82 -12 -108 -38 -108 -66zM235 698l54 120h120l-90 -120h-84zM285 574c-96 0 -142 66 -144 144h74c6 -36 27 -62 70 -62s64 26 70 62h74c-2 -78 -48 -144 -144 -144z" />
    <glyph glyph-name="uni1EB0" unicode="&#x1eb0;" horiz-adv-x="584" 
d="M335 810h-84l-102 124h126zM354 824h76c-8 -78 -52 -124 -142 -124s-134 46 -142 124h76c8 -30 24 -50 66 -50s58 20 66 50zM229 271h120l-11 45c-16 62 -32 141 -48 206h-4c-14 -66 -30 -144 -46 -206zM412 0l-32 138h-182l-32 -138h-176l198 650h208l198 -650h-182z
" />
    <glyph glyph-name="uni1EB1" unicode="&#x1eb1;" horiz-adv-x="542" 
d="M42 142c0 104 80 162 272 182c-4 36 -26 52 -70 52c-36 0 -74 -14 -126 -42l-60 112c70 42 142 66 220 66c130 0 208 -70 208 -234v-278h-140l-12 48h-4c-40 -36 -84 -60 -138 -60c-94 0 -150 72 -150 154zM206 156c0 -23 16 -36 46 -36c28 0 44 14 62 34v68
c-82 -12 -108 -38 -108 -66zM281 818l54 -120h-84l-90 120h120zM285 574c-96 0 -142 66 -144 144h74c6 -36 27 -62 70 -62s64 26 70 62h74c-2 -78 -48 -144 -144 -144z" />
    <glyph glyph-name="uni1EB2" unicode="&#x1eb2;" horiz-adv-x="584" 
d="M252 808l-12 52c16 3 28 8 28 24s-13 26 -64 30l16 68c122 -4 156 -40 156 -84c0 -62 -53 -86 -124 -90zM354 824h76c-8 -78 -52 -124 -142 -124s-134 46 -142 124h76c8 -30 24 -50 66 -50s58 20 66 50zM229 271h120l-11 45c-16 62 -32 141 -48 206h-4
c-14 -66 -30 -144 -46 -206zM412 0l-32 138h-182l-32 -138h-176l198 650h208l198 -650h-182z" />
    <glyph glyph-name="uni1EB3" unicode="&#x1eb3;" horiz-adv-x="542" 
d="M42 142c0 104 80 162 272 182c-4 36 -26 52 -70 52c-36 0 -74 -14 -126 -42l-60 112c70 42 142 66 220 66c130 0 208 -70 208 -234v-278h-140l-12 48h-4c-40 -36 -84 -60 -138 -60c-94 0 -150 72 -150 154zM206 156c0 -23 16 -36 46 -36c28 0 44 14 62 34v68
c-82 -12 -108 -38 -108 -66zM285 574c-96 0 -142 66 -144 144h74c6 -36 27 -62 70 -62s64 26 70 62h74c-2 -78 -48 -144 -144 -144zM247 703l-10 56c16 3 26 8 26 24s-13 26 -64 30l16 70c122 -4 158 -36 158 -82c0 -70 -56 -90 -126 -98z" />
    <glyph glyph-name="uni1EB4" unicode="&#x1eb4;" horiz-adv-x="584" 
d="M370 976h74c-10 -88 -54 -122 -98 -122c-48 0 -79 36 -105 36c-16 0 -29 -10 -35 -36h-74c10 88 54 122 98 122c48 0 79 -36 105 -36c16 0 29 10 35 36zM146 824h76c8 -30 24 -50 66 -50s58 20 66 50h76c-8 -78 -52 -124 -142 -124s-134 46 -142 124zM229 271h120l-11 45
c-16 62 -32 141 -48 206h-4c-14 -66 -30 -144 -46 -206zM412 0l-32 138h-182l-32 -138h-176l198 650h208l198 -650h-182z" />
    <glyph glyph-name="uni1EB5" unicode="&#x1eb5;" horiz-adv-x="542" 
d="M42 142c0 104 80 162 272 182c-4 36 -26 52 -70 52c-36 0 -74 -14 -126 -42l-60 112c70 42 142 66 220 66c130 0 208 -70 208 -234v-278h-140l-12 48h-4c-40 -36 -84 -60 -138 -60c-94 0 -150 72 -150 154zM206 156c0 -23 16 -36 46 -36c28 0 44 14 62 34v68
c-82 -12 -108 -38 -108 -66zM285 574c-96 0 -142 56 -144 124h78c6 -24 23 -46 66 -46s60 22 66 46h78c-2 -68 -48 -124 -144 -124zM133 724c10 88 52 122 96 122c54 0 76 -36 102 -36c16 0 28 10 34 36h72c-10 -88 -52 -122 -96 -122c-54 0 -76 36 -102 36
c-16 0 -28 -10 -34 -36h-72z" />
    <glyph glyph-name="uni1EB6" unicode="&#x1eb6;" horiz-adv-x="584" 
d="M338 824h92c-8 -78 -52 -124 -142 -124s-134 46 -142 124h92c6 -24 20 -40 50 -40s44 16 50 40zM288 -62c54 0 92 -36 92 -86s-38 -86 -92 -86s-92 36 -92 86s38 86 92 86zM229 271h120l-11 45c-16 62 -32 141 -48 206h-4c-14 -66 -30 -144 -46 -206zM396 650l198 -650
h-182l-32 138h-182l-32 -138h-176l198 650h208z" />
    <glyph glyph-name="uni1EB7" unicode="&#x1eb7;" horiz-adv-x="542" 
d="M42 142c0 104 80 162 272 182c-4 36 -26 52 -70 52c-36 0 -74 -14 -126 -42l-60 112c70 42 142 66 220 66c130 0 208 -70 208 -234v-278h-140l-12 48h-4c-40 -36 -84 -60 -138 -60c-94 0 -150 72 -150 154zM206 156c0 -23 16 -36 46 -36c28 0 44 14 62 34v68
c-82 -12 -108 -38 -108 -66zM285 574c-96 0 -142 66 -144 144h94c4 -30 19 -52 50 -52s46 22 50 52h94c-2 -78 -48 -144 -144 -144zM268 -234c-54 0 -92 36 -92 86s38 86 92 86s92 -36 92 -86s-38 -86 -92 -86z" />
    <glyph glyph-name="uni1EB8" unicode="&#x1eb8;" horiz-adv-x="556" 
d="M72 0v650h420v-144h-248v-102h212v-144h-212v-116h258v-144h-430zM294 -234c-54 0 -92 36 -92 86s38 86 92 86s92 -36 92 -86s-38 -86 -92 -86z" />
    <glyph glyph-name="uni1EB9" unicode="&#x1eb9;" horiz-adv-x="526" 
d="M32 250c0 162 118 262 240 262c148 0 218 -108 218 -242c0 -30 -4 -56 -7 -68h-285c16 -64 60 -84 116 -84c34 0 66 10 102 30l56 -102c-54 -38 -126 -58 -182 -58c-146 0 -258 96 -258 262zM196 306h148c0 42 -16 76 -68 76c-38 0 -70 -21 -80 -76zM272 -234
c-54 0 -92 36 -92 86s38 86 92 86s92 -36 92 -86s-38 -86 -92 -86z" />
    <glyph glyph-name="uni1EBA" unicode="&#x1eba;" horiz-adv-x="556" 
d="M72 0v650h420v-144h-248v-102h212v-144h-212v-116h258v-144h-430zM252 688l-12 66c22 3 40 8 40 24s-20 26 -78 30l20 84c138 -4 180 -42 180 -96c0 -72 -68 -104 -150 -108z" />
    <glyph glyph-name="uni1EBB" unicode="&#x1ebb;" horiz-adv-x="526" 
d="M32 250c0 162 118 262 240 262c148 0 218 -108 218 -242c0 -30 -4 -56 -7 -68h-285c16 -64 60 -84 116 -84c34 0 66 10 102 30l56 -102c-54 -38 -126 -58 -182 -58c-146 0 -258 96 -258 262zM196 306h148c0 42 -16 76 -68 76c-38 0 -70 -21 -80 -76zM234 558l-12 66
c22 3 40 8 40 24s-20 26 -78 30l20 84c138 -4 180 -42 180 -96c0 -72 -68 -104 -150 -108z" />
    <glyph glyph-name="uni1EBC" unicode="&#x1ebc;" horiz-adv-x="556" 
d="M72 0v650h420v-144h-248v-102h212v-144h-212v-116h258v-144h-430zM354 700c-54 0 -92 42 -120 42c-16 0 -30 -10 -38 -42h-86c12 102 62 146 116 146s92 -42 120 -42c16 0 30 10 38 42h86c-12 -102 -62 -146 -116 -146z" />
    <glyph glyph-name="uni1EBD" unicode="&#x1ebd;" horiz-adv-x="526" 
d="M32 250c0 162 118 262 240 262c148 0 218 -108 218 -242c0 -30 -4 -56 -7 -68h-285c16 -64 60 -84 116 -84c34 0 66 10 102 30l56 -102c-54 -38 -126 -58 -182 -58c-146 0 -258 96 -258 262zM196 306h148c0 42 -16 76 -68 76c-38 0 -70 -21 -80 -76zM96 574
c12 102 58 146 112 146s92 -42 120 -42c16 0 26 10 34 42h86c-12 -102 -58 -146 -112 -146s-92 42 -120 42c-16 0 -26 -10 -34 -42h-86z" />
    <glyph glyph-name="uni1EBE" unicode="&#x1ebe;" horiz-adv-x="556" 
d="M72 0v650h420v-144h-248v-102h212v-144h-212v-116h258v-144h-430zM411 770l68 124h130l-102 -124h-96zM120 700l96 118h148l96 -118h-120l-48 52h-4l-48 -52h-120z" />
    <glyph glyph-name="uni1EBF" unicode="&#x1ebf;" horiz-adv-x="526" 
d="M32 250c0 162 118 262 240 262c148 0 218 -108 218 -242c0 -30 -4 -56 -7 -68h-285c16 -64 60 -84 116 -84c34 0 66 10 102 30l56 -102c-54 -38 -126 -58 -182 -58c-146 0 -258 96 -258 262zM196 306h148c0 42 -16 76 -68 76c-38 0 -70 -21 -80 -76zM124 574l80 132h136
l80 -132h-104l-42 62h-4l-42 -62h-104zM386 648l66 120h124l-96 -120h-94z" />
    <glyph glyph-name="uni1EC0" unicode="&#x1ec0;" horiz-adv-x="556" 
d="M72 0v650h420v-144h-248v-102h212v-144h-212v-116h258v-144h-430zM481 894l68 -124h-96l-102 124h130zM120 700l96 118h148l96 -118h-120l-48 52h-4l-48 -52h-120z" />
    <glyph glyph-name="uni1EC1" unicode="&#x1ec1;" horiz-adv-x="526" 
d="M32 250c0 162 118 262 240 262c148 0 218 -108 218 -242c0 -30 -4 -56 -7 -68h-285c16 -64 60 -84 116 -84c34 0 66 10 102 30l56 -102c-54 -38 -126 -58 -182 -58c-146 0 -258 96 -258 262zM196 306h148c0 42 -16 76 -68 76c-38 0 -70 -21 -80 -76zM124 574l80 132h136
l80 -132h-104l-42 62h-4l-42 -62h-104zM474 768l66 -120h-94l-96 120h124z" />
    <glyph glyph-name="uni1EC2" unicode="&#x1ec2;" horiz-adv-x="556" 
d="M72 0v650h420v-144h-248v-102h212v-144h-212v-116h258v-144h-430zM436 748l-12 52c16 3 28 8 28 24s-13 26 -64 30l16 68c122 -4 156 -40 156 -84c0 -62 -53 -86 -124 -90zM120 700l96 118h148l96 -118h-120l-48 52h-4l-48 -52h-120z" />
    <glyph glyph-name="uni1EC3" unicode="&#x1ec3;" horiz-adv-x="526" 
d="M32 250c0 162 118 262 240 262c148 0 218 -108 218 -242c0 -30 -4 -56 -7 -68h-285c16 -64 60 -84 116 -84c34 0 66 10 102 30l56 -102c-54 -38 -126 -58 -182 -58c-146 0 -258 96 -258 262zM196 306h148c0 42 -16 76 -68 76c-38 0 -70 -21 -80 -76zM124 574l80 132h136
l80 -132h-104l-42 62h-4l-42 -62h-104zM418 628l-10 56c16 3 26 8 26 24s-13 26 -64 30l16 70c122 -4 158 -36 158 -82c0 -70 -56 -90 -126 -98z" />
    <glyph glyph-name="uni1EC4" unicode="&#x1ec4;" horiz-adv-x="556" 
d="M72 0v650h420v-144h-248v-102h212v-144h-212v-116h258v-144h-430zM120 700l96 118h148l96 -118h-120l-48 52h-4l-48 -52h-120zM208 854h-74c10 88 54 122 98 122c48 0 79 -36 105 -36c16 0 29 10 35 36h74c-10 -88 -54 -122 -98 -122c-48 0 -79 36 -105 36
c-16 0 -29 -10 -35 -36z" />
    <glyph glyph-name="uni1EC5" unicode="&#x1ec5;" horiz-adv-x="526" 
d="M32 250c0 162 118 262 240 262c148 0 218 -108 218 -242c0 -30 -4 -56 -7 -68h-285c16 -64 60 -84 116 -84c34 0 66 10 102 30l56 -102c-54 -38 -126 -58 -182 -58c-146 0 -258 96 -258 262zM196 306h148c0 42 -16 76 -68 76c-38 0 -70 -21 -80 -76zM116 574l78 114h156
l78 -114h-110l-44 56h-4l-44 -56h-110zM192 724h-72c10 88 52 122 96 122c54 0 76 -36 102 -36c16 0 28 10 34 36h72c-10 -88 -52 -122 -96 -122c-54 0 -76 36 -102 36c-16 0 -28 -10 -34 -36z" />
    <glyph glyph-name="uni1EC6" unicode="&#x1ec6;" horiz-adv-x="556" 
d="M72 0v650h420v-144h-248v-102h212v-144h-212v-116h258v-144h-430zM240 700h-130l96 124h168l96 -124h-130l-48 58h-4zM294 -234c-54 0 -92 36 -92 86s38 86 92 86s92 -36 92 -86s-38 -86 -92 -86z" />
    <glyph glyph-name="uni1EC7" unicode="&#x1ec7;" horiz-adv-x="526" 
d="M32 250c0 162 118 262 240 262c148 0 218 -108 218 -242c0 -30 -4 -56 -7 -68h-285c16 -64 60 -84 116 -84c34 0 66 10 102 30l56 -102c-54 -38 -126 -58 -182 -58c-146 0 -258 96 -258 262zM196 306h148c0 42 -16 76 -68 76c-38 0 -70 -21 -80 -76zM108 574l96 154h136
l96 -154h-114l-48 74h-4l-48 -74h-114zM272 -234c-54 0 -92 36 -92 86s38 86 92 86s92 -36 92 -86s-38 -86 -92 -86z" />
    <glyph glyph-name="uni1EC8" unicode="&#x1ec8;" horiz-adv-x="316" 
d="M72 0v650h172v-650h-172zM120 688l-12 66c22 3 40 8 40 24s-20 26 -78 30l20 84c138 -4 180 -42 180 -96c0 -72 -68 -104 -150 -108z" />
    <glyph glyph-name="uni1EC9" unicode="&#x1ec9;" horiz-adv-x="288" 
d="M58 0v500h172v-500h-172zM106 558l-12 66c22 3 40 8 40 24s-20 26 -78 30l20 84c138 -4 180 -42 180 -96c0 -72 -68 -104 -150 -108z" />
    <glyph glyph-name="uni1ECA" unicode="&#x1eca;" horiz-adv-x="316" 
d="M72 0v650h172v-650h-172zM158 -234c-54 0 -92 36 -92 86s38 86 92 86s92 -36 92 -86s-38 -86 -92 -86z" />
    <glyph glyph-name="uni1ECB" unicode="&#x1ecb;" horiz-adv-x="288" 
d="M144 562c-56 0 -96 36 -96 86s40 86 96 86s96 -36 96 -86s-40 -86 -96 -86zM58 0v500h172v-500h-172zM144 -234c-54 0 -92 36 -92 86s38 86 92 86s92 -36 92 -86s-38 -86 -92 -86z" />
    <glyph glyph-name="uni1ECC" unicode="&#x1ecc;" horiz-adv-x="692" 
d="M346 -12c-180 0 -302 126 -302 340s122 334 302 334s302 -121 302 -334c0 -214 -122 -340 -302 -340zM346 136c78 0 126 74 126 192s-48 186 -126 186s-126 -68 -126 -186s48 -192 126 -192zM346 -234c-54 0 -92 36 -92 86s38 86 92 86s92 -36 92 -86s-38 -86 -92 -86z
" />
    <glyph glyph-name="uni1ECD" unicode="&#x1ecd;" horiz-adv-x="560" 
d="M32 250c0 166 120 262 248 262s248 -96 248 -262s-120 -262 -248 -262s-248 96 -248 262zM208 250c0 -76 20 -124 72 -124s72 48 72 124s-20 124 -72 124s-72 -48 -72 -124zM280 -234c-54 0 -92 36 -92 86s38 86 92 86s92 -36 92 -86s-38 -86 -92 -86z" />
    <glyph glyph-name="uni1ECE" unicode="&#x1ece;" horiz-adv-x="692" 
d="M346 -12c-180 0 -302 126 -302 340s122 334 302 334s302 -121 302 -334c0 -214 -122 -340 -302 -340zM346 136c78 0 126 74 126 192s-48 186 -126 186s-126 -68 -126 -186s48 -192 126 -192zM308 688l-12 66c22 3 40 8 40 24s-20 26 -78 30l20 84c138 -4 180 -42 180 -96
c0 -72 -68 -104 -150 -108z" />
    <glyph glyph-name="uni1ECF" unicode="&#x1ecf;" horiz-adv-x="560" 
d="M32 250c0 166 120 262 248 262s248 -96 248 -262s-120 -262 -248 -262s-248 96 -248 262zM208 250c0 -76 20 -124 72 -124s72 48 72 124s-20 124 -72 124s-72 -48 -72 -124zM242 558l-12 66c22 3 40 8 40 24s-20 26 -78 30l20 84c138 -4 180 -42 180 -96
c0 -72 -68 -104 -150 -108z" />
    <glyph glyph-name="uni1ED0" unicode="&#x1ed0;" horiz-adv-x="692" 
d="M346 -12c-180 0 -302 126 -302 340s122 334 302 334s302 -121 302 -334c0 -214 -122 -340 -302 -340zM346 136c78 0 126 74 126 192s-48 186 -126 186s-126 -68 -126 -186s48 -192 126 -192zM467 770l68 124h130l-102 -124h-96zM176 700l96 118h148l96 -118h-120l-48 52
h-4l-48 -52h-120z" />
    <glyph glyph-name="uni1ED1" unicode="&#x1ed1;" horiz-adv-x="560" 
d="M32 250c0 166 120 262 248 262s248 -96 248 -262s-120 -262 -248 -262s-248 96 -248 262zM208 250c0 -76 20 -124 72 -124s72 48 72 124s-20 124 -72 124s-72 -48 -72 -124zM132 574l80 132h136l80 -132h-104l-42 62h-4l-42 -62h-104zM394 648l66 120h124l-96 -120h-94z
" />
    <glyph glyph-name="uni1ED2" unicode="&#x1ed2;" horiz-adv-x="692" 
d="M346 -12c-180 0 -302 126 -302 340s122 334 302 334s302 -121 302 -334c0 -214 -122 -340 -302 -340zM346 136c78 0 126 74 126 192s-48 186 -126 186s-126 -68 -126 -186s48 -192 126 -192zM537 894l68 -124h-96l-102 124h130zM176 700l96 118h148l96 -118h-120l-48 52
h-4l-48 -52h-120z" />
    <glyph glyph-name="uni1ED3" unicode="&#x1ed3;" horiz-adv-x="560" 
d="M32 250c0 166 120 262 248 262s248 -96 248 -262s-120 -262 -248 -262s-248 96 -248 262zM208 250c0 -76 20 -124 72 -124s72 48 72 124s-20 124 -72 124s-72 -48 -72 -124zM132 574l80 132h136l80 -132h-104l-42 62h-4l-42 -62h-104zM482 768l66 -120h-94l-96 120h124z
" />
    <glyph glyph-name="uni1ED4" unicode="&#x1ed4;" horiz-adv-x="692" 
d="M346 -12c-180 0 -302 126 -302 340s122 334 302 334s302 -121 302 -334c0 -214 -122 -340 -302 -340zM346 136c78 0 126 74 126 192s-48 186 -126 186s-126 -68 -126 -186s48 -192 126 -192zM492 748l-12 52c16 3 28 8 28 24s-13 26 -64 30l16 68c122 -4 156 -40 156 -84
c0 -62 -53 -86 -124 -90zM176 700l96 118h148l96 -118h-120l-48 52h-4l-48 -52h-120z" />
    <glyph glyph-name="uni1ED5" unicode="&#x1ed5;" horiz-adv-x="560" 
d="M32 250c0 166 120 262 248 262s248 -96 248 -262s-120 -262 -248 -262s-248 96 -248 262zM208 250c0 -76 20 -124 72 -124s72 48 72 124s-20 124 -72 124s-72 -48 -72 -124zM132 574l80 132h136l80 -132h-104l-42 62h-4l-42 -62h-104zM426 628l-10 56c16 3 26 8 26 24
s-13 26 -64 30l16 70c122 -4 158 -36 158 -82c0 -70 -56 -90 -126 -98z" />
    <glyph glyph-name="uni1ED6" unicode="&#x1ed6;" horiz-adv-x="692" 
d="M346 -12c-180 0 -302 126 -302 340s122 334 302 334s302 -121 302 -334c0 -214 -122 -340 -302 -340zM346 136c78 0 126 74 126 192s-48 186 -126 186s-126 -68 -126 -186s48 -192 126 -192zM176 700l96 118h148l96 -118h-120l-48 52h-4l-48 -52h-120zM264 854h-74
c10 88 54 122 98 122c48 0 79 -36 105 -36c16 0 29 10 35 36h74c-10 -88 -54 -122 -98 -122c-48 0 -79 36 -105 36c-16 0 -29 -10 -35 -36z" />
    <glyph glyph-name="uni1ED7" unicode="&#x1ed7;" horiz-adv-x="560" 
d="M32 250c0 166 120 262 248 262s248 -96 248 -262s-120 -262 -248 -262s-248 96 -248 262zM208 250c0 -76 20 -124 72 -124s72 48 72 124s-20 124 -72 124s-72 -48 -72 -124zM124 574l78 114h156l78 -114h-110l-44 56h-4l-44 -56h-110zM200 724h-72c10 88 52 122 96 122
c54 0 76 -36 102 -36c16 0 28 10 34 36h72c-10 -88 -52 -122 -96 -122c-54 0 -76 36 -102 36c-16 0 -28 -10 -34 -36z" />
    <glyph glyph-name="uni1ED8" unicode="&#x1ed8;" horiz-adv-x="692" 
d="M346 -12c-180 0 -302 126 -302 340s122 334 302 334s302 -121 302 -334c0 -214 -122 -340 -302 -340zM346 136c78 0 126 74 126 192s-48 186 -126 186s-126 -68 -126 -186s48 -192 126 -192zM296 700h-130l96 124h168l96 -124h-130l-48 58h-4zM346 -234
c-54 0 -92 36 -92 86s38 86 92 86s92 -36 92 -86s-38 -86 -92 -86z" />
    <glyph glyph-name="uni1ED9" unicode="&#x1ed9;" horiz-adv-x="560" 
d="M32 250c0 166 120 262 248 262s248 -96 248 -262s-120 -262 -248 -262s-248 96 -248 262zM208 250c0 -76 20 -124 72 -124s72 48 72 124s-20 124 -72 124s-72 -48 -72 -124zM116 574l96 154h136l96 -154h-114l-48 74h-4l-48 -74h-114zM280 -234c-54 0 -92 36 -92 86
s38 86 92 86s92 -36 92 -86s-38 -86 -92 -86z" />
    <glyph glyph-name="uni1EDA" unicode="&#x1eda;" horiz-adv-x="692" 
d="M520 824l-122 -124h-136l78 124h180zM346 136c78 0 126 74 126 192s-48 186 -126 186s-126 -68 -126 -186s48 -192 126 -192zM524 738l116 50c16 -18 32 -50 32 -86c0 -69 -43 -108 -109 -126c54 -57 85 -141 85 -248c0 -214 -122 -340 -302 -340s-302 126 -302 340
s122 334 302 334c53 0 102 -11 143 -31c32 10 51 22 51 59c0 20 -9 37 -16 48z" />
    <glyph glyph-name="uni1EDB" unicode="&#x1edb;" horiz-adv-x="560" 
d="M444 728l-128 -154h-124l88 154h164zM280 126c52 0 72 48 72 124s-20 124 -72 124s-72 -48 -72 -124s20 -124 72 -124zM408 598l116 50c16 -18 32 -50 32 -86c0 -65 -41 -107 -99 -123c43 -45 71 -109 71 -189c0 -166 -120 -262 -248 -262s-248 96 -248 262
s120 262 248 262c33 0 66 -7 97 -19c26 7 47 21 47 57c0 20 -9 37 -16 48z" />
    <glyph glyph-name="uni1EDC" unicode="&#x1edc;" horiz-adv-x="692" 
d="M430 700h-136l-122 124h180zM346 136c78 0 126 74 126 192s-48 186 -126 186s-126 -68 -126 -186s48 -192 126 -192zM524 738l116 50c16 -18 32 -50 32 -86c0 -69 -43 -108 -109 -126c54 -57 85 -141 85 -248c0 -214 -122 -340 -302 -340s-302 126 -302 340
s122 334 302 334c53 0 102 -11 143 -31c32 10 51 22 51 59c0 20 -9 37 -16 48z" />
    <glyph glyph-name="uni1EDD" unicode="&#x1edd;" horiz-adv-x="560" 
d="M368 574h-124l-128 154h164zM280 126c52 0 72 48 72 124s-20 124 -72 124s-72 -48 -72 -124s20 -124 72 -124zM408 598l116 50c16 -18 32 -50 32 -86c0 -65 -41 -107 -99 -123c43 -45 71 -109 71 -189c0 -166 -120 -262 -248 -262s-248 96 -248 262s120 262 248 262
c33 0 66 -7 97 -19c26 7 47 21 47 57c0 20 -9 37 -16 48z" />
    <glyph glyph-name="uni1EDE" unicode="&#x1ede;" horiz-adv-x="692" 
d="M308 688l-12 66c22 3 40 8 40 24s-20 26 -78 30l20 84c138 -4 180 -42 180 -96c0 -72 -68 -104 -150 -108zM346 136c78 0 126 74 126 192s-48 186 -126 186s-126 -68 -126 -186s48 -192 126 -192zM524 738l116 50c16 -18 32 -50 32 -86c0 -69 -43 -108 -109 -126
c54 -57 85 -141 85 -248c0 -214 -122 -340 -302 -340s-302 126 -302 340s122 334 302 334c53 0 102 -11 143 -31c32 10 51 22 51 59c0 20 -9 37 -16 48z" />
    <glyph glyph-name="uni1EDF" unicode="&#x1edf;" horiz-adv-x="560" 
d="M242 558l-12 66c22 3 40 8 40 24s-20 26 -78 30l20 84c138 -4 180 -42 180 -96c0 -72 -68 -104 -150 -108zM280 126c52 0 72 48 72 124s-20 124 -72 124s-72 -48 -72 -124s20 -124 72 -124zM408 598l116 50c16 -18 32 -50 32 -86c0 -65 -41 -107 -99 -123
c43 -45 71 -109 71 -189c0 -166 -120 -262 -248 -262s-248 96 -248 262s120 262 248 262c33 0 66 -7 97 -19c26 7 47 21 47 57c0 20 -9 37 -16 48z" />
    <glyph glyph-name="uni1EE0" unicode="&#x1ee0;" horiz-adv-x="692" 
d="M440 846h86c-12 -102 -62 -146 -116 -146s-92 42 -120 42c-16 0 -30 -10 -38 -42h-86c12 102 62 146 116 146s92 -42 120 -42c16 0 30 10 38 42zM346 136c78 0 126 74 126 192s-48 186 -126 186s-126 -68 -126 -186s48 -192 126 -192zM524 738l116 50
c16 -18 32 -50 32 -86c0 -69 -43 -108 -109 -126c54 -57 85 -141 85 -248c0 -214 -122 -340 -302 -340s-302 126 -302 340s122 334 302 334c53 0 102 -11 143 -31c32 10 51 22 51 59c0 20 -9 37 -16 48z" />
    <glyph glyph-name="uni1EE1" unicode="&#x1ee1;" horiz-adv-x="560" 
d="M370 720h86c-12 -102 -58 -146 -112 -146s-92 42 -120 42c-16 0 -26 -10 -34 -42h-86c12 102 58 146 112 146s92 -42 120 -42c16 0 26 10 34 42zM280 126c52 0 72 48 72 124s-20 124 -72 124s-72 -48 -72 -124s20 -124 72 -124zM408 598l116 50c16 -18 32 -50 32 -86
c0 -65 -41 -107 -99 -123c43 -45 71 -109 71 -189c0 -166 -120 -262 -248 -262s-248 96 -248 262s120 262 248 262c33 0 66 -7 97 -19c26 7 47 21 47 57c0 20 -9 37 -16 48z" />
    <glyph glyph-name="uni1EE2" unicode="&#x1ee2;" horiz-adv-x="692" 
d="M346 -62c54 0 92 -36 92 -86s-38 -86 -92 -86s-92 36 -92 86s38 86 92 86zM346 136c78 0 126 74 126 192s-48 186 -126 186s-126 -68 -126 -186s48 -192 126 -192zM524 738l116 50c16 -18 32 -50 32 -86c0 -69 -43 -108 -109 -126c54 -57 85 -141 85 -248
c0 -214 -122 -340 -302 -340s-302 126 -302 340s122 334 302 334c53 0 102 -11 143 -31c32 10 51 22 51 59c0 20 -9 37 -16 48z" />
    <glyph glyph-name="uni1EE3" unicode="&#x1ee3;" horiz-adv-x="560" 
d="M280 -62c54 0 92 -36 92 -86s-38 -86 -92 -86s-92 36 -92 86s38 86 92 86zM280 126c52 0 72 48 72 124s-20 124 -72 124s-72 -48 -72 -124s20 -124 72 -124zM408 598l116 50c16 -18 32 -50 32 -86c0 -65 -41 -107 -99 -123c43 -45 71 -109 71 -189
c0 -166 -120 -262 -248 -262s-248 96 -248 262s120 262 248 262c33 0 66 -7 97 -19c26 7 47 21 47 57c0 20 -9 37 -16 48z" />
    <glyph glyph-name="uni1EE4" unicode="&#x1ee4;" horiz-adv-x="672" 
d="M68 314v336h172v-356c0 -116 30 -158 98 -158s100 42 100 158v356h166v-336c0 -222 -84 -326 -266 -326s-270 104 -270 326zM336 -234c-54 0 -92 36 -92 86s38 86 92 86s92 -36 92 -86s-38 -86 -92 -86z" />
    <glyph glyph-name="uni1EE5" unicode="&#x1ee5;" horiz-adv-x="578" 
d="M54 192v308h172v-286c0 -64 16 -80 50 -80c32 0 50 12 72 44v322h172v-500h-140l-12 66h-4c-40 -48 -86 -78 -154 -78c-110 0 -156 80 -156 204zM308 -234c-54 0 -92 36 -92 86s38 86 92 86s92 -36 92 -86s-38 -86 -92 -86z" />
    <glyph glyph-name="uni1EE6" unicode="&#x1ee6;" horiz-adv-x="672" 
d="M68 314v336h172v-356c0 -116 30 -158 98 -158s100 42 100 158v356h166v-336c0 -222 -84 -326 -266 -326s-270 104 -270 326zM298 688l-12 66c22 3 40 8 40 24s-20 26 -78 30l20 84c138 -4 180 -42 180 -96c0 -72 -68 -104 -150 -108z" />
    <glyph glyph-name="uni1EE7" unicode="&#x1ee7;" horiz-adv-x="578" 
d="M54 192v308h172v-286c0 -64 16 -80 50 -80c32 0 50 12 72 44v322h172v-500h-140l-12 66h-4c-40 -48 -86 -78 -154 -78c-110 0 -156 80 -156 204zM252 558l-12 66c22 3 40 8 40 24s-20 26 -78 30l20 84c138 -4 180 -42 180 -96c0 -72 -68 -104 -150 -108z" />
    <glyph glyph-name="uni1EE8" unicode="&#x1ee8;" horiz-adv-x="692" 
d="M510 824l-122 -124h-136l78 124h180zM586 758l116 50c16 -18 32 -50 32 -86c0 -78 -56 -119 -130 -133v-275c0 -222 -84 -326 -266 -326s-270 104 -270 326v336h172v-356c0 -116 30 -158 98 -158s100 42 100 158v356h84c34 0 80 6 80 60c0 20 -9 37 -16 48z" />
    <glyph glyph-name="uni1EE9" unicode="&#x1ee9;" horiz-adv-x="578" 
d="M441 728l-128 -154h-124l88 154h164zM468 608l116 50c16 -18 32 -50 32 -86c0 -64 -40 -104 -96 -123v-449h-140l-12 66h-4c-40 -48 -86 -78 -154 -78c-110 0 -156 80 -156 204v308h172v-286c0 -64 16 -80 50 -80c32 0 50 12 72 44v322h56c34 0 80 6 80 60
c0 20 -9 37 -16 48z" />
    <glyph glyph-name="uni1EEA" unicode="&#x1eea;" horiz-adv-x="692" 
d="M420 700h-136l-122 124h180zM586 758l116 50c16 -18 32 -50 32 -86c0 -78 -56 -119 -130 -133v-275c0 -222 -84 -326 -266 -326s-270 104 -270 326v336h172v-356c0 -116 30 -158 98 -158s100 42 100 158v356h84c34 0 80 6 80 60c0 20 -9 37 -16 48z" />
    <glyph glyph-name="uni1EEB" unicode="&#x1eeb;" horiz-adv-x="578" 
d="M365 574h-124l-128 154h164zM468 608l116 50c16 -18 32 -50 32 -86c0 -64 -40 -104 -96 -123v-449h-140l-12 66h-4c-40 -48 -86 -78 -154 -78c-110 0 -156 80 -156 204v308h172v-286c0 -64 16 -80 50 -80c32 0 50 12 72 44v322h56c34 0 80 6 80 60c0 20 -9 37 -16 48z
" />
    <glyph glyph-name="uni1EEC" unicode="&#x1eec;" horiz-adv-x="692" 
d="M298 688l-12 66c22 3 40 8 40 24s-20 26 -78 30l20 84c138 -4 180 -42 180 -96c0 -72 -68 -104 -150 -108zM586 758l116 50c16 -18 32 -50 32 -86c0 -78 -56 -119 -130 -133v-275c0 -222 -84 -326 -266 -326s-270 104 -270 326v336h172v-356c0 -116 30 -158 98 -158
s100 42 100 158v356h84c34 0 80 6 80 60c0 20 -9 37 -16 48z" />
    <glyph glyph-name="uni1EED" unicode="&#x1eed;" horiz-adv-x="578" 
d="M239 558l-12 66c22 3 40 8 40 24s-20 26 -78 30l20 84c138 -4 180 -42 180 -96c0 -72 -68 -104 -150 -108zM468 608l116 50c16 -18 32 -50 32 -86c0 -64 -40 -104 -96 -123v-449h-140l-12 66h-4c-40 -48 -86 -78 -154 -78c-110 0 -156 80 -156 204v308h172v-286
c0 -64 16 -80 50 -80c32 0 50 12 72 44v322h56c34 0 80 6 80 60c0 20 -9 37 -16 48z" />
    <glyph glyph-name="uni1EEE" unicode="&#x1eee;" horiz-adv-x="692" 
d="M430 846h86c-12 -102 -62 -146 -116 -146s-92 42 -120 42c-16 0 -30 -10 -38 -42h-86c12 102 62 146 116 146s92 -42 120 -42c16 0 30 10 38 42zM586 758l116 50c16 -18 32 -50 32 -86c0 -78 -56 -119 -130 -133v-275c0 -222 -84 -326 -266 -326s-270 104 -270 326v336
h172v-356c0 -116 30 -158 98 -158s100 42 100 158v356h84c34 0 80 6 80 60c0 20 -9 37 -16 48z" />
    <glyph glyph-name="uni1EEF" unicode="&#x1eef;" horiz-adv-x="578" 
d="M367 720h86c-12 -102 -58 -146 -112 -146s-92 42 -120 42c-16 0 -26 -10 -34 -42h-86c12 102 58 146 112 146s92 -42 120 -42c16 0 26 10 34 42zM468 608l116 50c16 -18 32 -50 32 -86c0 -64 -40 -104 -96 -123v-449h-140l-12 66h-4c-40 -48 -86 -78 -154 -78
c-110 0 -156 80 -156 204v308h172v-286c0 -64 16 -80 50 -80c32 0 50 12 72 44v322h56c34 0 80 6 80 60c0 20 -9 37 -16 48z" />
    <glyph glyph-name="uni1EF0" unicode="&#x1ef0;" horiz-adv-x="692" 
d="M336 -62c54 0 92 -36 92 -86s-38 -86 -92 -86s-92 36 -92 86s38 86 92 86zM586 758l116 50c16 -18 32 -50 32 -86c0 -78 -56 -119 -130 -133v-275c0 -222 -84 -326 -266 -326s-270 104 -270 326v336h172v-356c0 -116 30 -158 98 -158s100 42 100 158v356h84
c34 0 80 6 80 60c0 20 -9 37 -16 48z" />
    <glyph glyph-name="uni1EF1" unicode="&#x1ef1;" horiz-adv-x="578" 
d="M295 -62c54 0 92 -36 92 -86s-38 -86 -92 -86s-92 36 -92 86s38 86 92 86zM468 608l116 50c16 -18 32 -50 32 -86c0 -64 -40 -104 -96 -123v-449h-140l-12 66h-4c-40 -48 -86 -78 -154 -78c-110 0 -156 80 -156 204v308h172v-286c0 -64 16 -80 50 -80c32 0 50 12 72 44
v322h56c34 0 80 6 80 60c0 20 -9 37 -16 48z" />
    <glyph glyph-name="Ygrave" unicode="&#x1ef2;" horiz-adv-x="544" 
d="M186 0v224l-196 426h184l48 -136c16 -49 32 -94 49 -145h4c17 51 34 96 51 145l48 136h180l-196 -426v-224h-172zM220 700l-122 124h180l78 -124h-136z" />
    <glyph glyph-name="ygrave" unicode="&#x1ef3;" horiz-adv-x="542" 
d="M86 -48c9 -2 22 -6 32 -6c46 0 68 20 78 50l6 22l-190 482h172l60 -192c14 -46 24 -92 36 -142h4c10 48 20 94 32 142l50 192h164l-168 -492c-52 -135 -106 -196 -230 -196c-34 0 -54 4 -76 10zM240 574l-128 154h164l88 -154h-124z" />
    <glyph glyph-name="uni1EF4" unicode="&#x1ef4;" horiz-adv-x="544" 
d="M186 0v224l-196 426h184l48 -136c16 -49 32 -94 49 -145h4c17 51 34 96 51 145l48 136h180l-196 -426v-224h-172zM274 -234c-54 0 -92 36 -92 86s38 86 92 86s92 -36 92 -86s-38 -86 -92 -86z" />
    <glyph glyph-name="uni1EF5" unicode="&#x1ef5;" horiz-adv-x="542" 
d="M86 -48c9 -2 22 -6 32 -6c46 0 68 20 78 50l6 22l-190 482h172l60 -192c14 -46 24 -92 36 -142h4c10 48 20 94 32 142l50 192h164l-168 -492c-52 -135 -106 -196 -230 -196c-34 0 -54 4 -76 10zM468 -224c-54 0 -92 36 -92 86s38 86 92 86s92 -36 92 -86s-38 -86 -92 -86
z" />
    <glyph glyph-name="uni1EF6" unicode="&#x1ef6;" horiz-adv-x="544" 
d="M186 0v224l-196 426h184l48 -136c16 -49 32 -94 49 -145h4c17 51 34 96 51 145l48 136h180l-196 -426v-224h-172zM234 688l-12 66c22 3 40 8 40 24s-20 26 -78 30l20 84c138 -4 180 -42 180 -96c0 -72 -68 -104 -150 -108z" />
    <glyph glyph-name="uni1EF7" unicode="&#x1ef7;" horiz-adv-x="542" 
d="M86 -48c9 -2 22 -6 32 -6c46 0 68 20 78 50l6 22l-190 482h172l60 -192c14 -46 24 -92 36 -142h4c10 48 20 94 32 142l50 192h164l-168 -492c-52 -135 -106 -196 -230 -196c-34 0 -54 4 -76 10zM238 558l-12 66c22 3 40 8 40 24s-20 26 -78 30l20 84
c138 -4 180 -42 180 -96c0 -72 -68 -104 -150 -108z" />
    <glyph glyph-name="uni1EF8" unicode="&#x1ef8;" horiz-adv-x="544" 
d="M186 0v224l-196 426h184l48 -136c16 -49 32 -94 49 -145h4c17 51 34 96 51 145l48 136h180l-196 -426v-224h-172zM336 700c-54 0 -92 42 -120 42c-16 0 -30 -10 -38 -42h-86c12 102 62 146 116 146s92 -42 120 -42c16 0 30 10 38 42h86c-12 -102 -62 -146 -116 -146z" />
    <glyph glyph-name="uni1EF9" unicode="&#x1ef9;" horiz-adv-x="542" 
d="M86 -48c9 -2 22 -6 32 -6c46 0 68 20 78 50l6 22l-190 482h172l60 -192c14 -46 24 -92 36 -142h4c10 48 20 94 32 142l50 192h164l-168 -492c-52 -135 -106 -196 -230 -196c-34 0 -54 4 -76 10zM100 574c12 102 58 146 112 146s92 -42 120 -42c16 0 26 10 34 42h86
c-12 -102 -58 -146 -112 -146s-92 42 -120 42c-16 0 -26 -10 -34 -42h-86z" />
    <glyph glyph-name="uni2007" unicode="&#x2007;" horiz-adv-x="540" 
 />
    <glyph glyph-name="figuredash" unicode="&#x2012;" horiz-adv-x="540" 
d="M44 200v108h452v-108h-452z" />
    <glyph glyph-name="endash" unicode="&#x2013;" horiz-adv-x="480" 
d="M44 200v108h392v-108h-392z" />
    <glyph glyph-name="emdash" unicode="&#x2014;" horiz-adv-x="800" 
d="M44 200v108h712v-108h-712z" />
    <glyph glyph-name="uni2015" unicode="&#x2015;" horiz-adv-x="800" 
d="M44 200v108h712v-108h-712z" />
    <glyph glyph-name="uni2016" unicode="&#x2016;" horiz-adv-x="476" 
d="M84 -250v1000h110v-1000h-110zM282 -250v1000h110v-1000h-110z" />
    <glyph glyph-name="quoteleft" unicode="&#x2018;" horiz-adv-x="320" 
d="M210 678l36 -74c-64 -28 -96 -67 -96 -127c3 1 7 1 10 1c48 0 86 -32 86 -82c0 -56 -36 -92 -86 -92c-70 0 -106 54 -106 146c0 100 50 178 156 228z" />
    <glyph glyph-name="quoteright" unicode="&#x2019;" horiz-adv-x="320" 
d="M110 322l-36 74c64 28 96 67 96 127c-3 -1 -7 -1 -10 -1c-48 0 -86 32 -86 82c0 56 36 92 86 92c70 0 106 -54 106 -146c0 -100 -50 -178 -156 -228z" />
    <glyph glyph-name="quotesinglbase" unicode="&#x201a;" horiz-adv-x="320" 
d="M110 -178l-36 74c64 28 96 67 96 127c-3 -1 -7 -1 -10 -1c-48 0 -86 32 -86 82c0 56 36 92 86 92c70 0 106 -54 106 -146c0 -100 -50 -178 -156 -228z" />
    <glyph glyph-name="quotedblleft" unicode="&#x201c;" horiz-adv-x="580" 
d="M210 678l36 -74c-64 -28 -96 -67 -96 -127c3 1 7 1 10 1c48 0 86 -32 86 -82c0 -56 -36 -92 -86 -92c-70 0 -106 54 -106 146c0 100 50 178 156 228zM470 678l36 -74c-64 -28 -96 -67 -96 -127c3 1 7 1 10 1c48 0 86 -32 86 -82c0 -56 -36 -92 -86 -92
c-70 0 -106 54 -106 146c0 100 50 178 156 228z" />
    <glyph glyph-name="quotedblright" unicode="&#x201d;" horiz-adv-x="580" 
d="M110 322l-36 74c64 28 96 67 96 127c-3 -1 -7 -1 -10 -1c-48 0 -86 32 -86 82c0 56 36 92 86 92c70 0 106 -54 106 -146c0 -100 -50 -178 -156 -228zM370 322l-36 74c64 28 96 67 96 127c-3 -1 -7 -1 -10 -1c-48 0 -86 32 -86 82c0 56 36 92 86 92c70 0 106 -54 106 -146
c0 -100 -50 -178 -156 -228z" />
    <glyph glyph-name="quotedblbase" unicode="&#x201e;" horiz-adv-x="580" 
d="M110 -178l-36 74c64 28 96 67 96 127c-3 -1 -7 -1 -10 -1c-48 0 -86 32 -86 82c0 56 36 92 86 92c70 0 106 -54 106 -146c0 -100 -50 -178 -156 -228zM370 -178l-36 74c64 28 96 67 96 127c-3 -1 -7 -1 -10 -1c-48 0 -86 32 -86 82c0 56 36 92 86 92
c70 0 106 -54 106 -146c0 -100 -50 -178 -156 -228z" />
    <glyph glyph-name="dagger" unicode="&#x2020;" horiz-adv-x="532" 
d="M198 -80l10 498l-168 -10v136l168 -10l-10 178h136l-10 -178l168 10v-136l-168 10l10 -498h-136z" />
    <glyph glyph-name="daggerdbl" unicode="&#x2021;" horiz-adv-x="532" 
d="M40 88v136l168 -14l-10 106l10 106l-168 -14v136l168 -10l-10 178h136l-10 -178l168 10v-136l-168 14l10 -106l-10 -106l168 14v-136l-168 10l10 -178h-136l10 178z" />
    <glyph glyph-name="bullet" unicode="&#x2022;" horiz-adv-x="360" 
d="M180 116c-80 0 -140 64 -140 146s60 146 140 146s140 -64 140 -146s-60 -146 -140 -146z" />
    <glyph glyph-name="ellipsis" unicode="&#x2026;" horiz-adv-x="990" 
d="M70 92c0 58 42 104 100 104s100 -46 100 -104s-42 -104 -100 -104s-100 46 -100 104zM400 92c0 58 42 104 100 104s100 -46 100 -104s-42 -104 -100 -104s-100 46 -100 104zM730 92c0 58 42 104 100 104s100 -46 100 -104s-42 -104 -100 -104s-100 46 -100 104z" />
    <glyph glyph-name="perthousand" unicode="&#x2030;" horiz-adv-x="1270" 
d="M310 -12h-96l348 674h96zM190 248c-96 0 -168 78 -168 208s72 206 168 206s168 -76 168 -206s-72 -208 -168 -208zM190 342c26 0 50 26 50 114s-24 112 -50 112s-50 -24 -50 -112s24 -114 50 -114zM680 -12c-96 0 -168 78 -168 208s72 206 168 206s168 -76 168 -206
s-72 -208 -168 -208zM680 82c26 0 50 26 50 114s-24 112 -50 112s-50 -24 -50 -112s24 -114 50 -114zM1080 -12c-96 0 -168 78 -168 208s72 206 168 206s168 -76 168 -206s-72 -208 -168 -208zM1080 82c26 0 50 26 50 114s-24 112 -50 112s-50 -24 -50 -112s24 -114 50 -114
z" />
    <glyph glyph-name="uni2032" unicode="&#x2032;" horiz-adv-x="320" 
d="M79 324l21 360h172l-29 -162l-52 -198h-112z" />
    <glyph glyph-name="uni2033" unicode="&#x2033;" horiz-adv-x="580" 
d="M79 324l21 360h172l-29 -162l-52 -198h-112zM339 324l21 360h172l-29 -162l-52 -198h-112z" />
    <glyph glyph-name="guilsinglleft" unicode="&#x2039;" horiz-adv-x="300" 
d="M184 52l-134 140v120l134 140l62 -50l-108 -150l108 -150z" />
    <glyph glyph-name="guilsinglright" unicode="&#x203a;" horiz-adv-x="300" 
d="M54 102l108 150l-108 150l62 50l134 -140v-120l-134 -140z" />
    <glyph glyph-name="uni203D" unicode="&#x203d;" horiz-adv-x="498" 
d="M226 196c58 0 100 -46 100 -104s-42 -104 -100 -104s-100 46 -100 104s42 104 100 104zM106 502l-94 86c53 60 140 94 218 94c128 0 228 -62 228 -170c0 -166 -178 -194 -166 -268h-20h-50h-50l-20 138l-14 118h136l-4 -113c18 25 34 52 34 93c0 50 -41 74 -86 74
c-46 0 -77 -18 -112 -52z" />
    <glyph glyph-name="fraction" unicode="&#x2044;" horiz-adv-x="100" 
d="M-76 -12h-96l348 674h96z" />
    <glyph glyph-name="zero.sups" unicode="&#x2070;" horiz-adv-x="380" 
d="M190 428c-96 0 -168 78 -168 208s72 206 168 206s168 -76 168 -206s-72 -208 -168 -208zM190 522c26 0 50 26 50 114s-24 112 -50 112s-50 -24 -50 -112s24 -114 50 -114z" />
    <glyph glyph-name="i.sups" unicode="&#x2071;" horiz-adv-x="196" 
d="M98 630c-39 0 -66 24 -66 58s27 58 66 58c38 0 66 -24 66 -58s-28 -58 -66 -58zM38 260v332h120v-332h-120z" />
    <glyph glyph-name="four.sups" unicode="&#x2074;" horiz-adv-x="380" 
d="M144 600h68v30l6 120h-4l-36 -76zM380 600v-80h-58v-80h-110v80h-180v62l132 248h158v-230h58z" />
    <glyph glyph-name="five.sups" unicode="&#x2075;" horiz-adv-x="380" 
d="M24 508l74 58c24 -32 46 -44 76 -44c28 0 48 23 48 48c0 32 -24 48 -51 48c-19 0 -33 -4 -52 -20l-51 36l16 196h245v-104h-147l-4 -39c16 3 33 3 39 3c68 0 127 -48 127 -126c0 -77 -64 -136 -156 -136c-70 0 -128 26 -164 80z" />
    <glyph glyph-name="six.sups" unicode="&#x2076;" horiz-adv-x="380" 
d="M198 522c19 0 38 10 38 42c0 30 -16 44 -42 44c-16 0 -33 -8 -48 -24c7 -47 30 -62 52 -62zM342 797l-48 -76c-20 15 -39 27 -66 27c-54 0 -75 -36 -82 -89c21 21 49 31 78 31c74 0 122 -46 122 -122c0 -80 -62 -140 -142 -140c-111 0 -172 84 -172 208
c0 115 64 206 187 206c61 0 99 -24 123 -45z" />
    <glyph glyph-name="seven.sups" unicode="&#x2077;" horiz-adv-x="380" 
d="M112 440c6 116 38 186 102 286h-164v104h302v-66c-86 -110 -102 -194 -108 -324h-132z" />
    <glyph glyph-name="eight.sups" unicode="&#x2078;" horiz-adv-x="380" 
d="M148 552c0 -24 18 -42 42 -42s42 18 42 40c0 24 -24 32 -58 50c-16 -12 -26 -30 -26 -48zM204 684c12 14 18 28 18 40c0 22 -14 34 -33 34c-17 0 -31 -12 -31 -28c0 -24 20 -34 46 -46zM36 540c0 43 36 78 70 98v4c-34 24 -58 52 -58 92c0 68 64 108 142 108
c80 0 142 -40 142 -108c0 -34 -24 -66 -58 -84v-4c38 -20 70 -56 70 -106c0 -62 -64 -112 -154 -112s-154 50 -154 112z" />
    <glyph glyph-name="nine.sups" unicode="&#x2079;" horiz-adv-x="380" 
d="M186 662c16 0 33 8 48 24c-7 47 -30 62 -52 62c-19 0 -38 -10 -38 -42c0 -30 16 -44 42 -44zM38 473l48 76c20 -15 39 -27 66 -27c54 0 75 36 82 89c-21 -21 -49 -31 -78 -31c-74 0 -122 46 -122 122c0 80 62 140 142 140c111 0 172 -84 172 -208
c0 -115 -64 -206 -187 -206c-61 0 -99 24 -123 45z" />
    <glyph glyph-name="parenleft.sups" unicode="&#x207d;" horiz-adv-x="280" 
d="M154 346c-58 90 -92 168 -92 290s34 200 92 290l92 -36c-42 -82 -66 -164 -66 -254s24 -172 66 -254z" />
    <glyph glyph-name="parenright.sups" unicode="&#x207e;" horiz-adv-x="280" 
d="M34 382c42 82 66 164 66 254s-24 172 -66 254l92 36c58 -90 92 -168 92 -290s-34 -200 -92 -290z" />
    <glyph glyph-name="n.sups" unicode="&#x207f;" horiz-adv-x="390" 
d="M38 260v332h96l10 -42h2c26 26 60 50 105 50c75 0 105 -54 105 -138v-202h-120v188c0 36 -4 52 -32 52c-18 0 -30 -10 -46 -25v-215h-120z" />
    <glyph glyph-name="zero.subs" unicode="&#x2080;" horiz-adv-x="380" 
d="M190 -284c-96 0 -168 78 -168 208s72 206 168 206s168 -76 168 -206s-72 -208 -168 -208zM190 -190c26 0 50 26 50 114s-24 112 -50 112s-50 -24 -50 -112s24 -114 50 -114z" />
    <glyph glyph-name="one.subs" unicode="&#x2081;" horiz-adv-x="380" 
d="M162 -272v270h-90v76c58 8 82 20 118 44h98v-390h-126z" />
    <glyph glyph-name="two.subs" unicode="&#x2082;" horiz-adv-x="380" 
d="M42 -272v66c92 72 166 136 166 180c0 34 -18 54 -50 54c-24 0 -44 -16 -66 -44l-70 64c44 56 94 82 156 82c90 0 150 -50 150 -134c0 -59 -44 -112 -88 -164h100v-104h-298z" />
    <glyph glyph-name="three.subs" unicode="&#x2083;" horiz-adv-x="380" 
d="M24 -204l74 58c24 -32 46 -44 76 -44c27 0 48 14 48 38c0 30 -25 44 -82 44v70c41 0 68 10 68 40c0 22 -16 34 -40 34s-42 -16 -58 -36l-70 62c46 48 86 68 150 68c74 0 140 -42 140 -110c0 -40 -18 -66 -52 -88c38 -18 66 -50 66 -94c0 -72 -74 -122 -156 -122
c-70 0 -128 26 -164 80z" />
    <glyph glyph-name="four.subs" unicode="&#x2084;" horiz-adv-x="380" 
d="M144 -112h68v30l6 120h-4l-36 -76zM380 -112v-80h-58v-80h-110v80h-180v62l132 248h158v-230h58z" />
    <glyph glyph-name="five.subs" unicode="&#x2085;" horiz-adv-x="380" 
d="M24 -204l74 58c24 -32 46 -44 76 -44c28 0 48 23 48 48c0 32 -24 48 -51 48c-19 0 -33 -4 -52 -20l-51 36l16 196h245v-104h-147l-4 -39c16 3 33 3 39 3c68 0 127 -48 127 -126c0 -77 -64 -136 -156 -136c-70 0 -128 26 -164 80z" />
    <glyph glyph-name="six.subs" unicode="&#x2086;" horiz-adv-x="380" 
d="M198 -190c19 0 38 10 38 42c0 30 -16 44 -42 44c-16 0 -33 -8 -48 -24c7 -47 30 -62 52 -62zM342 85l-48 -76c-20 15 -39 27 -66 27c-54 0 -75 -36 -82 -89c21 21 49 31 78 31c74 0 122 -46 122 -122c0 -80 -62 -140 -142 -140c-111 0 -172 84 -172 208
c0 115 64 206 187 206c61 0 99 -24 123 -45z" />
    <glyph glyph-name="seven.subs" unicode="&#x2087;" horiz-adv-x="380" 
d="M112 -272c6 116 38 186 102 286h-164v104h302v-66c-86 -110 -102 -194 -108 -324h-132z" />
    <glyph glyph-name="eight.subs" unicode="&#x2088;" horiz-adv-x="380" 
d="M148 -160c0 -24 18 -42 42 -42s42 18 42 40c0 24 -24 32 -58 50c-16 -12 -26 -30 -26 -48zM204 -28c12 14 18 28 18 40c0 22 -14 34 -33 34c-17 0 -31 -12 -31 -28c0 -24 20 -34 46 -46zM36 -172c0 43 36 78 70 98v4c-34 24 -58 52 -58 92c0 68 64 108 142 108
c80 0 142 -40 142 -108c0 -34 -24 -66 -58 -84v-4c38 -20 70 -56 70 -106c0 -62 -64 -112 -154 -112s-154 50 -154 112z" />
    <glyph glyph-name="nine.subs" unicode="&#x2089;" horiz-adv-x="380" 
d="M186 -50c16 0 33 8 48 24c-7 47 -30 62 -52 62c-19 0 -38 -10 -38 -42c0 -30 16 -44 42 -44zM38 -239l48 76c20 -15 39 -27 66 -27c54 0 75 36 82 89c-21 -21 -49 -31 -78 -31c-74 0 -122 46 -122 122c0 80 62 140 142 140c111 0 172 -84 172 -208
c0 -115 -64 -206 -187 -206c-61 0 -99 24 -123 45z" />
    <glyph glyph-name="parenleft.subs" unicode="&#x208d;" horiz-adv-x="280" 
d="M154 -366c-58 90 -92 168 -92 290s34 200 92 290l92 -36c-42 -82 -66 -164 -66 -254s24 -172 66 -254z" />
    <glyph glyph-name="parenright.subs" unicode="&#x208e;" horiz-adv-x="280" 
d="M34 -330c42 82 66 164 66 254s-24 172 -66 254l92 36c58 -90 92 -168 92 -290s-34 -200 -92 -290z" />
    <glyph glyph-name="uni0259.sups" unicode="&#x2094;" horiz-adv-x="350" 
d="M166 252c-98 0 -146 72 -146 162c0 20 2 30 6 44h188c-10 38 -30 52 -66 52c-22 0 -44 -4 -68 -18l-40 70c38 26 86 38 124 38c98 0 164 -70 164 -174c0 -106 -76 -174 -162 -174zM165 342c25 0 45 14 51 50h-96c0 -28 12 -50 45 -50z" />
    <glyph glyph-name="colonmonetary" unicode="&#x20a1;" horiz-adv-x="540" 
d="M330 513l-44 -375c9 -7 20 -12 32 -15l46 390c-5 1 -10 1 -16 1s-12 0 -18 -1zM240 205l33 280c-32 -32 -49 -89 -49 -167c0 -45 5 -83 16 -113zM415 487l-43 -363c25 6 45 22 64 44l94 -88c-48 -54 -107 -86 -174 -91l-12 -99h-54l12 100c-11 1 -23 2 -34 5l-12 -105
h-54l14 121c-98 42 -164 143 -164 301c0 186 97 303 240 329l12 103h54l-12 -98h8c9 0 17 -1 26 -2l12 100h54l-13 -113c36 -14 70 -38 99 -73l-94 -92c-7 8 -15 15 -23 21z" />
    <glyph glyph-name="lira" unicode="&#x20a4;" horiz-adv-x="540" 
d="M264 148v-4h250v-144h-468v106c45 19 86 55 100 104h-94v78l76 6h18c-4 15 -9 29 -13 44h-81v78l56 6h2v10c0 132 96 214 224 214c76 0 132 -28 180 -84l-92 -92c-22 26 -44 38 -70 38c-46 0 -78 -24 -78 -86h150v-84h-136c3 -14 7 -29 10 -44h126v-84h-126
c-5 -21 -16 -40 -34 -62z" />
    <glyph glyph-name="uni20A6" unicode="&#x20a6;" horiz-adv-x="540" 
d="M362 298l-5 44h-40l12 -44h33zM382 123l-13 111h-22l31 -111h4zM183 298h38l-12 44h-31zM158 511l12 -105h21l-29 105h-4zM540 342h-68v-44h68v-64h-68v-234h-156l-72 216l-5 18h-49v-234h-122v234h-68v58l68 6v44h-68v58l68 6v228h156l72 -216l3 -12h51v228h122v-228h68
v-64z" />
    <glyph glyph-name="peseta" unicode="&#x20a7;" horiz-adv-x="540" 
d="M220 306h22c38 0 63 23 74 60h-96v-60zM242 528h-22v-58h95c-11 39 -36 58 -73 58zM532 470v-104h-56c-22 -113 -119 -166 -226 -166h-30v-200h-162v366h-58v98l58 5v165h192c110 0 204 -43 225 -164h57z" />
    <glyph glyph-name="dong" unicode="&#x20ab;" horiz-adv-x="540" 
d="M78 0v84h414v-84h-414zM318 260v94c-16 14 -32 20 -52 20c-28 0 -58 -22 -58 -67c0 -55 22 -77 54 -77c24 0 38 8 56 30zM458 604h71v-78l-71 -6v-392h-116l-10 34h-2c-26 -28 -64 -44 -104 -44c-98 0 -162 68 -162 190c0 114 86 180 166 180c42 0 66 -12 92 -36l-4 60v8
h-144v84h144v42h140v-42z" />
    <glyph glyph-name="Euro" unicode="&#x20ac;" horiz-adv-x="540" 
d="M436 168l94 -88c-50 -60 -114 -92 -186 -92c-127 0 -229 74 -261 220h-63v78l52 4v22c0 8 0 16 1 24h-53v78l63 5c34 146 137 227 271 227c60 0 122 -26 168 -78l-94 -92c-24 22 -48 38 -80 38c-46 0 -78 -33 -93 -94h197v-84h-208v-18c0 -9 0 -18 1 -26h167v-84h-155
c18 -58 51 -88 97 -88c34 0 60 18 82 48z" />
    <glyph glyph-name="uni20B1" unicode="&#x20b1;" horiz-adv-x="540" 
d="M220 398h101c1 5 1 11 1 16c0 8 0 16 -1 24h-101v-40zM220 306h22c25 0 45 10 58 28h-80v-28zM242 528h-22v-26h80c-13 18 -33 26 -58 26zM532 502v-64h-53c1 -8 1 -16 1 -24v-16h52v-64h-65c-32 -91 -121 -134 -217 -134h-30v-200h-162v334h-58v58l58 5v41h-58v58l58 5
v133h192c99 0 186 -35 217 -132h65z" />
    <glyph glyph-name="uni20B2" unicode="&#x20b2;" horiz-adv-x="540" 
d="M300 234v140h208v-312c-40 -34 -87 -58 -138 -69v-103h-112v103c-131 24 -224 131 -224 319c0 182 90 298 224 327v105h112v-102c51 -10 99 -37 140 -78l-94 -92c-30 26 -56 42 -96 42c-75 0 -114 -72 -114 -196c0 -128 44 -192 120 -192c11 0 21 1 30 4v104h-56z" />
    <glyph glyph-name="uni20B5" unicode="&#x20b5;" horiz-adv-x="540" 
d="M290 135v363c-44 -27 -66 -90 -66 -180c0 -94 24 -156 66 -183zM436 168l94 -88c-42 -47 -92 -77 -148 -88v-102h-92v101c-138 18 -238 126 -238 321c0 185 96 302 238 328v92h92v-88c51 -7 101 -32 140 -76l-94 -92c-14 15 -29 26 -46 32v-381c20 8 38 22 54 41z" />
    <glyph glyph-name="uni20B9" unicode="&#x20b9;" horiz-adv-x="540" 
d="M470 634v-84h-128c30 -24 49 -57 56 -96h72v-84h-71c-11 -75 -51 -125 -106 -155l165 -215h-192l-130 182h-68v136h62c50 0 82 18 96 52h-158v78l76 6h83c-13 33 -46 44 -97 44h-62v136h402z" />
    <glyph glyph-name="uni20BA" unicode="&#x20ba;" horiz-adv-x="540" 
d="M252 148c68 9 114 58 114 116c0 3 0 11 -2 24l141 32c5 -19 7 -40 7 -49c0 -187 -150 -291 -432 -283v216l-70 -38v92l70 38v48l-70 -38v92l70 38v198h172v-114l138 74v-92l-138 -74v-48l138 74v-92l-138 -74v-140z" />
    <glyph glyph-name="uni2113" unicode="&#x2113;" horiz-adv-x="494" 
d="M276 489v-103c49 47 72 95 72 159c0 32 -12 51 -30 51c-22 0 -42 -26 -42 -107zM442 174l62 -104c-49 -42 -109 -82 -184 -82c-93 0 -177 47 -204 140c-15 -9 -31 -18 -47 -28l-63 104c37 22 71 42 102 61v202c0 173 86 253 204 253c105 0 172 -68 172 -176
c0 -125 -56 -206 -208 -313v-22c0 -56 32 -79 72 -79c38 0 70 24 94 44z" />
    <glyph glyph-name="uni2117" unicode="&#x2117;" horiz-adv-x="752" 
d="M234 140v366h148c100 0 180 -34 180 -136c0 -103 -84 -148 -180 -148h-26v-82h-122zM356 308h18c48 0 70 18 70 58c0 36 -24 50 -70 50h-18v-108zM44 326c0 208 154 330 332 330s332 -123 332 -330c0 -208 -154 -334 -332 -334s-332 126 -332 334zM120 326
c0 -160 110 -266 256 -266s256 106 256 266s-110 262 -256 262s-256 -102 -256 -262z" />
    <glyph glyph-name="uni2120" unicode="&#x2120;" horiz-adv-x="700" 
d="M140 348c-44 0 -86 16 -126 50l56 68c22 -20 52 -36 78 -36c14 0 22 4 22 14c0 12 -14 17 -35 26l-41 18c-36 16 -64 43 -64 96c0 55 48 104 126 104c44 0 84 -18 114 -40l-50 -70c-22 14 -48 28 -70 28c-16 0 -22 -8 -22 -16c0 -11 13 -15 36 -24l40 -16
c41 -16 66 -43 66 -94c0 -55 -50 -108 -130 -108zM318 360v316h126l34 -82l18 -62h4l18 62l34 82h126v-316h-106v80l12 120h-4l-46 -154h-72l-46 154h-4l12 -120v-80h-106z" />
    <glyph glyph-name="trademark" unicode="&#x2122;" horiz-adv-x="700" 
d="M318 360v316h126l34 -82l18 -62h4l18 62l34 82h126v-316h-106v80l12 120h-4l-46 -154h-72l-46 154h-4l12 -120v-80h-106zM86 360v216h-82v100h274v-100h-82v-216h-110z" />
    <glyph glyph-name="uni2126" unicode="&#x2126;" horiz-adv-x="744" 
d="M42 0v138h106v4c-38 40 -90 122 -90 220c0 196 128 310 314 310s314 -114 314 -310c0 -98 -52 -180 -90 -220v-4h106v-138h-292v112c72 62 100 140 100 238c0 106 -54 174 -138 174s-138 -68 -138 -174c0 -98 28 -176 100 -238v-112h-292z" />
    <glyph glyph-name="estimated" unicode="&#x212e;" horiz-adv-x="800" 
d="M184 108c54 -61 132 -99 218 -99c91 0 173 43 228 111h52c-65 -79 -167 -131 -281 -131c-196 0 -355 150 -355 336s159 336 355 336s354 -150 354 -336v-9h-575c-2 0 -4 -1 -4 -4v-183c0 -8 4 -15 8 -21zM180 335h441c3 0 5 2 5 5v184c0 9 -4 16 -9 22
c-56 58 -132 95 -215 95c-86 0 -162 -38 -217 -98c-5 -6 -9 -14 -9 -23v-180c0 -3 2 -5 4 -5z" />
    <glyph glyph-name="onethird" unicode="&#x2153;" horiz-adv-x="850" 
d="M130 260v270h-90v76c58 8 82 20 118 44h98v-390h-126zM264 -12h-96l348 674h96zM494 68l74 58c24 -32 46 -44 76 -44c27 0 48 14 48 38c0 30 -25 44 -82 44v70c41 0 68 10 68 40c0 22 -16 34 -40 34s-42 -16 -58 -36l-70 62c46 48 86 68 150 68c74 0 140 -42 140 -110
c0 -40 -18 -66 -52 -88c38 -18 66 -50 66 -94c0 -72 -74 -122 -156 -122c-70 0 -128 26 -164 80z" />
    <glyph glyph-name="twothirds" unicode="&#x2154;" horiz-adv-x="860" 
d="M44 260v66c92 72 166 136 166 180c0 34 -18 54 -50 54c-24 0 -44 -16 -66 -44l-70 64c44 56 94 82 156 82c90 0 150 -50 150 -134c0 -59 -44 -112 -88 -164h100v-104h-298zM314 -12h-96l348 674h96zM504 68l74 58c24 -32 46 -44 76 -44c27 0 48 14 48 38
c0 30 -25 44 -82 44v70c41 0 68 10 68 40c0 22 -16 34 -40 34s-42 -16 -58 -36l-70 62c46 48 86 68 150 68c74 0 140 -42 140 -110c0 -40 -18 -66 -52 -88c38 -18 66 -50 66 -94c0 -72 -74 -122 -156 -122c-70 0 -128 26 -164 80z" />
    <glyph glyph-name="oneeighth" unicode="&#x215b;" horiz-adv-x="850" 
d="M130 260v270h-90v76c58 8 82 20 118 44h98v-390h-126zM274 -12h-96l348 674h96zM618 112c0 -24 18 -42 42 -42s42 18 42 40c0 24 -24 32 -58 50c-16 -12 -26 -30 -26 -48zM674 244c12 14 18 28 18 40c0 22 -14 34 -33 34c-17 0 -31 -12 -31 -28c0 -24 20 -34 46 -46z
M506 100c0 43 36 78 70 98v4c-34 24 -58 52 -58 92c0 68 64 108 142 108c80 0 142 -40 142 -108c0 -34 -24 -66 -58 -84v-4c38 -20 70 -56 70 -106c0 -62 -64 -112 -154 -112s-154 50 -154 112z" />
    <glyph glyph-name="threeeighths" unicode="&#x215c;" horiz-adv-x="860" 
d="M24 328l74 58c24 -32 46 -44 76 -44c27 0 48 14 48 38c0 30 -25 44 -82 44v70c41 0 68 10 68 40c0 22 -16 34 -40 34s-42 -16 -58 -36l-70 62c46 48 86 68 150 68c74 0 140 -42 140 -110c0 -40 -18 -66 -52 -88c38 -18 66 -50 66 -94c0 -72 -74 -122 -156 -122
c-70 0 -128 26 -164 80zM304 -12h-96l348 674h96zM628 112c0 -24 18 -42 42 -42s42 18 42 40c0 24 -24 32 -58 50c-16 -12 -26 -30 -26 -48zM684 244c12 14 18 28 18 40c0 22 -14 34 -33 34c-17 0 -31 -12 -31 -28c0 -24 20 -34 46 -46zM516 100c0 43 36 78 70 98v4
c-34 24 -58 52 -58 92c0 68 64 108 142 108c80 0 142 -40 142 -108c0 -34 -24 -66 -58 -84v-4c38 -20 70 -56 70 -106c0 -62 -64 -112 -154 -112s-154 50 -154 112z" />
    <glyph glyph-name="fiveeighths" unicode="&#x215d;" horiz-adv-x="860" 
d="M24 328l74 58c24 -32 46 -44 76 -44c28 0 48 23 48 48c0 32 -24 48 -51 48c-19 0 -33 -4 -52 -20l-51 36l16 196h245v-104h-147l-4 -39c16 3 33 3 39 3c68 0 127 -48 127 -126c0 -77 -64 -136 -156 -136c-70 0 -128 26 -164 80zM304 -12h-96l348 674h96zM628 112
c0 -24 18 -42 42 -42s42 18 42 40c0 24 -24 32 -58 50c-16 -12 -26 -30 -26 -48zM684 244c12 14 18 28 18 40c0 22 -14 34 -33 34c-17 0 -31 -12 -31 -28c0 -24 20 -34 46 -46zM516 100c0 43 36 78 70 98v4c-34 24 -58 52 -58 92c0 68 64 108 142 108c80 0 142 -40 142 -108
c0 -34 -24 -66 -58 -84v-4c38 -20 70 -56 70 -106c0 -62 -64 -112 -154 -112s-154 50 -154 112z" />
    <glyph glyph-name="seveneighths" unicode="&#x215e;" horiz-adv-x="840" 
d="M92 260c6 116 38 186 102 286h-164v104h302v-66c-86 -110 -102 -194 -108 -324h-132zM254 -12h-96l348 674h96zM608 112c0 -24 18 -42 42 -42s42 18 42 40c0 24 -24 32 -58 50c-16 -12 -26 -30 -26 -48zM664 244c12 14 18 28 18 40c0 22 -14 34 -33 34
c-17 0 -31 -12 -31 -28c0 -24 20 -34 46 -46zM496 100c0 43 36 78 70 98v4c-34 24 -58 52 -58 92c0 68 64 108 142 108c80 0 142 -40 142 -108c0 -34 -24 -66 -58 -84v-4c38 -20 70 -56 70 -106c0 -62 -64 -112 -154 -112s-154 50 -154 112z" />
    <glyph glyph-name="uni2190" unicode="&#x2190;" horiz-adv-x="616" 
d="M20 250v4l280 268l80 -92l-130 -110h326v-136h-326l130 -110l-80 -92z" />
    <glyph glyph-name="arrowup" unicode="&#x2191;" horiz-adv-x="616" 
d="M306 530h4l268 -280l-92 -80l-110 130v-326h-136v326l-110 -130l-92 80z" />
    <glyph glyph-name="uni2192" unicode="&#x2192;" horiz-adv-x="616" 
d="M596 254v-4l-280 -268l-80 92l130 110h-326v136h326l-130 110l80 92z" />
    <glyph glyph-name="arrowdown" unicode="&#x2193;" horiz-adv-x="616" 
d="M310 -26h-4l-268 280l92 80l110 -130v326h136v-326l110 130l92 -80z" />
    <glyph glyph-name="partialdiff" unicode="&#x2202;" horiz-adv-x="596" 
d="M272 126c37 0 79 23 99 113c-21 39 -52 53 -84 53c-40 0 -79 -24 -79 -95c0 -50 31 -71 64 -71zM187 490l-73 106c58 48 118 76 191 76c165 0 241 -129 241 -302c0 -230 -122 -382 -293 -382c-111 0 -202 77 -202 199c0 139 92 235 214 235c44 0 88 -21 119 -57v10
c0 91 -22 159 -98 159c-38 0 -68 -15 -99 -44z" />
    <glyph glyph-name="uni2206" unicode="&#x2206;" horiz-adv-x="672" 
d="M36 0v104l196 556h208l196 -556v-104h-600zM230 144h212l-64 200l-40 158h-4l-40 -158z" />
    <glyph glyph-name="product" unicode="&#x220f;" horiz-adv-x="724" 
d="M76 -120v754h572v-754h-172v604h-228v-604h-172z" />
    <glyph glyph-name="summation" unicode="&#x2211;" horiz-adv-x="546" 
d="M28 -20l194 276l-184 278v100h474v-144h-266v-4l150 -230l-156 -228v-4h294v-144h-506v100z" />
    <glyph glyph-name="minus" unicode="&#x2212;" horiz-adv-x="540" 
d="M34 270v120h472v-120h-472z" />
    <glyph glyph-name="uni2215" unicode="&#x2215;" horiz-adv-x="100" 
d="M-76 -12h-96l348 674h96z" />
    <glyph glyph-name="uni2219" unicode="&#x2219;" horiz-adv-x="540" 
d="M170 330c0 58 42 104 100 104s100 -46 100 -104s-42 -104 -100 -104s-100 46 -100 104z" />
    <glyph glyph-name="radical" unicode="&#x221a;" horiz-adv-x="600" 
d="M212 454l92 -274c8 -30 16 -60 22 -90h4c4 30 10 60 16 90l150 640h112l-216 -894h-116l-150 404l-76 -30l-28 78z" />
    <glyph glyph-name="infinity" unicode="&#x221e;" horiz-adv-x="826" 
d="M213 128c-101 0 -177 89 -177 186c0 140 80 220 200 220c75 0 126 -38 162 -88h4c53 68 113 104 191 104c109 0 197 -88 197 -208c0 -157 -95 -242 -207 -242c-83 0 -142 32 -205 116h-4c-36 -48 -90 -88 -161 -88zM458 354c35 -49 70 -96 124 -96c52 0 84 38 84 80
c0 56 -36 88 -90 88c-40 0 -82 -22 -118 -72zM228 252c36 0 66 21 90 56c-24 39 -60 68 -96 68c-44 0 -62 -26 -62 -58s23 -66 68 -66z" />
    <glyph glyph-name="integral" unicode="&#x222b;" horiz-adv-x="412" 
d="M54 -26c10 -3 22 -4 36 -4c50 0 62 30 62 122c0 156 -36 274 -36 446c0 145 34 254 207 254c25 0 49 -5 61 -8l-16 -124c-10 3 -22 4 -36 4c-50 0 -62 -32 -62 -122c0 -156 36 -274 36 -446c0 -145 -34 -254 -207 -254c-25 0 -49 5 -61 8z" />
    <glyph glyph-name="approxequal" unicode="&#x2248;" horiz-adv-x="540" 
d="M114 370l-88 68c54 80 108 108 160 108c84 0 116 -72 170 -72c27 0 50 22 70 56l88 -68c-54 -80 -108 -108 -160 -108c-84 0 -116 72 -170 72c-26 0 -50 -22 -70 -56zM114 130l-88 68c54 80 108 108 160 108c84 0 116 -72 170 -72c27 0 50 22 70 56l88 -68
c-54 -80 -108 -108 -160 -108c-84 0 -116 72 -170 72c-26 0 -50 -22 -70 -56z" />
    <glyph glyph-name="notequal" unicode="&#x2260;" horiz-adv-x="540" 
d="M48 30l70 120h-84v120h150l66 120h-216v120h282l70 120h106l-70 -120h84v-120h-150l-66 -120h216v-120h-282l-70 -120h-106z" />
    <glyph glyph-name="lessequal" unicode="&#x2264;" horiz-adv-x="540" 
d="M34 0v120h472v-120h-472zM34 292v140l472 138v-140l-158 -36l-140 -30v-4l140 -30l158 -36v-140z" />
    <glyph glyph-name="greaterequal" unicode="&#x2265;" horiz-adv-x="540" 
d="M34 0v120h472v-120h-472zM506 432v-140l-472 -138v140l158 36l140 30v4l-140 30l-158 36v140z" />
    <glyph glyph-name="uni231C" unicode="&#x231c;" horiz-adv-x="360" 
d="M84 0v692h224v-90h-96v-602h-128z" />
    <glyph glyph-name="uni231D" unicode="&#x231d;" horiz-adv-x="360" 
d="M276 692v-692h-128v602h-96v90h224z" />
    <glyph glyph-name="uni231E" unicode="&#x231e;" horiz-adv-x="360" 
d="M84 -58v692h128v-602h96v-90h-224z" />
    <glyph glyph-name="uni231F" unicode="&#x231f;" horiz-adv-x="360" 
d="M276 634v-692h-224v90h96v602h128z" />
    <glyph glyph-name="uni25A0" unicode="&#x25a0;" horiz-adv-x="360" 
d="M54 134v256h252v-256h-252z" />
    <glyph glyph-name="triagup" unicode="&#x25b2;" horiz-adv-x="600" 
d="M18 14v2l280 534h4l280 -534v-2h-564z" />
    <glyph glyph-name="uni25B3" unicode="&#x25b3;" horiz-adv-x="600" 
d="M207 124h187l-94 188zM18 14v2l280 534h4l280 -534v-2h-564z" />
    <glyph glyph-name="uni25B6" unicode="&#x25b6;" horiz-adv-x="600" 
d="M52 0v564h2l534 -280v-4l-534 -280h-2z" />
    <glyph glyph-name="uni25B7" unicode="&#x25b7;" horiz-adv-x="600" 
d="M162 188l188 94l-188 93v-187zM52 0v564h2l534 -280v-4l-534 -280h-2z" />
    <glyph glyph-name="triagdn" unicode="&#x25bc;" horiz-adv-x="600" 
d="M298 14l-280 534v2h564v-2l-280 -534h-4z" />
    <glyph glyph-name="uni25BD" unicode="&#x25bd;" horiz-adv-x="600" 
d="M394 440h-187l93 -188zM18 548v2h564v-2l-280 -534h-4z" />
    <glyph glyph-name="uni25C0" unicode="&#x25c0;" horiz-adv-x="600" 
d="M12 280v4l534 280h2v-564h-2z" />
    <glyph glyph-name="uni25C1" unicode="&#x25c1;" horiz-adv-x="600" 
d="M250 282l188 -94v187zM548 564v-564h-2l-534 280v4l534 280h2z" />
    <glyph glyph-name="uni25C6" unicode="&#x25c6;" horiz-adv-x="360" 
d="M180 88l-174 174l174 174l174 -174z" />
    <glyph glyph-name="uni25C9" unicode="&#x25c9;" horiz-adv-x="500" 
d="M250 189c-40 0 -70 32 -70 73s30 73 70 73s70 -32 70 -73s-30 -73 -70 -73zM250 50c-120 0 -210 89 -210 212s90 212 210 212s210 -89 210 -212s-90 -212 -210 -212zM250 134c70 0 122 54 122 128s-52 128 -122 128s-122 -54 -122 -128s52 -128 122 -128z" />
    <glyph glyph-name="lozenge" unicode="&#x25ca;" horiz-adv-x="560" 
d="M212 -10l-162 340l162 340h136l162 -340l-162 -340h-136zM278 134h4l50 116l38 80l-38 80l-50 116h-4l-50 -116l-38 -80l38 -80z" />
    <glyph glyph-name="uni2610" unicode="&#x2610;" horiz-adv-x="810" 
d="M138 54h504v528h-504v-528zM74 -10v616l80 70h582v-606l-70 -80h-592z" />
    <glyph glyph-name="uni2611" unicode="&#x2611;" horiz-adv-x="810" 
d="M642 54v464c-63 -103 -121 -231 -164 -390l-158 -18c-37 102 -77 177 -140 270l108 70c44 -72 71 -142 98 -214h4c37 125 87 243 145 346h-397v-528h504zM706 820l104 -90c-25 -24 -49 -50 -74 -80v-580l-70 -80h-592v616l80 70h439c36 55 75 103 113 144z" />
    <glyph glyph-name="uni266A" unicode="&#x266a;" horiz-adv-x="560" 
d="M24 60c0 76 79 138 174 138c26 0 50 -6 58 -12v508h90c12 -22 22 -30 72 -64c96 -64 130 -122 130 -204c0 -58 -28 -118 -56 -154l-54 22c10 30 14 56 14 92c0 58 -38 117 -104 139v-343c0 -138 -78 -212 -208 -212c-56 0 -116 26 -116 90z" />
    <glyph glyph-name="uni2713" unicode="&#x2713;" horiz-adv-x="660" 
d="M328 -2l-158 -18c-43 114 -87 198 -160 300l108 70c52 -81 89 -163 122 -244h4c72 240 184 452 312 584l104 -90c-126 -118 -250 -306 -332 -602z" />
    <glyph glyph-name="uni2752" unicode="&#x2752;" horiz-adv-x="430" 
d="M108 148h184v188h-184v-188zM54 94v266l70 60h252v-256l-60 -70h-262z" />
    <glyph glyph-name="uni27E6" unicode="&#x27e6;" horiz-adv-x="460" 
d="M84 -152v860h324v-90h-86v-680h86v-90h-324zM182 618v-680h52v680h-52z" />
    <glyph glyph-name="uni27E7" unicode="&#x27e7;" horiz-adv-x="460" 
d="M376 708v-860h-324v90h86v680h-86v90h324zM278 618h-52v-680h52v680z" />
    <glyph glyph-name="uni2E22" unicode="&#x2e22;" horiz-adv-x="360" 
d="M84 278v430h224v-90h-96v-340h-128z" />
    <glyph glyph-name="uni2E23" unicode="&#x2e23;" horiz-adv-x="360" 
d="M276 708v-430h-128v340h-96v90h224z" />
    <glyph glyph-name="uni2E24" unicode="&#x2e24;" horiz-adv-x="360" 
d="M84 -152v430h128v-340h96v-90h-224z" />
    <glyph glyph-name="uni2E25" unicode="&#x2e25;" horiz-adv-x="360" 
d="M276 278v-430h-224v90h96v340h128z" />
    <glyph glyph-name="fi" unicode="&#xfb01;" horiz-adv-x="666" 
d="M88 499v7c0 107 50 202 198 202c46 0 84 -10 106 -18l-30 -126c-16 6 -34 10 -50 10c-32 0 -52 -15 -52 -62v-12h84v-134h-84v-366h-172v366h-66v128zM522 562c-56 0 -96 36 -96 86s40 86 96 86s96 -36 96 -86s-40 -86 -96 -86zM436 0v500h172v-500h-172z" />
    <glyph glyph-name="fl" unicode="&#xfb02;" horiz-adv-x="658" 
d="M88 499v7c0 107 50 202 198 202c46 0 84 -10 106 -18l-30 -126c-16 6 -34 10 -50 10c-32 0 -52 -15 -52 -62v-12h84v-134h-84v-366h-172v366h-66v128zM636 128l20 -126c-18 -8 -46 -14 -84 -14c-116 0 -154 76 -154 188v520h172v-526c0 -34 16 -44 28 -44c6 0 10 0 18 2z
" />
    <glyph glyph-name="uniFEFF" unicode="&#xfeff;" 
 />
    <glyph glyph-name="uni00470303" horiz-adv-x="646" 
d="M44 320c0 218 150 342 328 342c92 0 162 -40 208 -86l-94 -106c-32 28 -60 44 -112 44c-88 0 -154 -70 -154 -188c0 -122 54 -190 170 -190c18 0 38 4 50 12v90h-96v140h248v-310c-48 -44 -132 -80 -224 -80c-178 0 -324 110 -324 332zM436 700c-54 0 -92 42 -120 42
c-16 0 -30 -10 -38 -42h-86c12 102 62 146 116 146s92 -42 120 -42c16 0 30 10 38 42h86c-12 -102 -62 -146 -116 -146z" />
    <glyph glyph-name="uni00670303" horiz-adv-x="546" 
d="M170 -54c0 -32 40 -46 98 -46c56 0 98 18 98 46c0 26 -24 30 -67 30h-39c-40 0 -58 2 -72 6c-12 -12 -18 -22 -18 -36zM30 -82c0 41 24 72 70 96v4c-26 18 -46 44 -46 86c0 34 22 70 56 94v4c-36 24 -68 70 -68 128c0 124 104 182 214 182c28 0 56 -4 80 -12h186v-124
h-72c4 -12 8 -32 8 -52c0 -118 -90 -166 -202 -166c-16 0 -34 2 -56 7c-10 -9 -12 -15 -12 -29c0 -22 20 -30 70 -30h75c125 0 197 -38 197 -130c0 -108 -112 -182 -290 -182c-114 0 -210 34 -210 124zM256 260c32 0 54 22 54 70c0 46 -22 68 -54 68s-54 -22 -54 -68
c0 -48 22 -70 54 -70zM80 574c12 102 58 146 112 146s92 -42 120 -42c16 0 26 10 34 42h86c-12 -102 -58 -146 -112 -146s-92 42 -120 42c-16 0 -26 -10 -34 -42h-86z" />
    <glyph glyph-name="iogonek.d" horiz-adv-x="288" 
d="M58 0v500h172v-500c-58 -16 -74 -50 -74 -78c0 -23 19 -34 41 -34c11 0 22 6 33 12l34 -76c-28 -22 -76 -36 -110 -36c-62 0 -112 32 -112 94c0 59 42 101 66 118h-50z" />
    <glyph glyph-name="I.a" horiz-adv-x="416" 
d="M54 0v144h68v362h-68v144h308v-144h-68v-362h68v-144h-308z" />
    <glyph glyph-name="Igrave.a" horiz-adv-x="416" 
d="M54 0v144h68v362h-68v144h308v-144h-68v-362h68v-144h-308zM156 700l-122 124h180l78 -124h-136z" />
    <glyph glyph-name="Iacute.a" horiz-adv-x="416" 
d="M54 0v144h68v362h-68v144h308v-144h-68v-362h68v-144h-308zM382 824l-122 -124h-136l78 124h180z" />
    <glyph glyph-name="Icircumflex.a" horiz-adv-x="416" 
d="M54 0v144h68v362h-68v144h308v-144h-68v-362h68v-144h-308zM158 700h-130l96 124h168l96 -124h-130l-48 58h-4z" />
    <glyph glyph-name="Itilde.a" horiz-adv-x="416" 
d="M54 0v144h68v362h-68v144h308v-144h-68v-362h68v-144h-308zM272 700c-54 0 -92 42 -120 42c-16 0 -30 -10 -38 -42h-86c12 102 62 146 116 146s92 -42 120 -42c16 0 30 10 38 42h86c-12 -102 -62 -146 -116 -146z" />
    <glyph glyph-name="Idieresis.a" horiz-adv-x="416" 
d="M54 0v144h68v362h-68v144h308v-144h-68v-362h68v-144h-308zM104 694c-46 0 -78 34 -78 78s32 78 78 78s78 -34 78 -78s-32 -78 -78 -78zM312 694c-46 0 -78 34 -78 78s32 78 78 78s78 -34 78 -78s-32 -78 -78 -78z" />
    <glyph glyph-name="Imacron.a" horiz-adv-x="416" 
d="M54 0v144h68v362h-68v144h308v-144h-68v-362h68v-144h-308zM60 716v108h296v-108h-296z" />
    <glyph glyph-name="Idotaccent.a" horiz-adv-x="416" 
d="M54 0v144h68v362h-68v144h308v-144h-68v-362h68v-144h-308zM208 696c-56 0 -96 36 -96 86s40 86 96 86s96 -36 96 -86s-40 -86 -96 -86z" />
    <glyph glyph-name="uni01CF.a" horiz-adv-x="416" 
d="M54 0v144h68v362h-68v144h308v-144h-68v-362h68v-144h-308zM258 824h130l-96 -124h-168l-96 124h130l48 -58h4z" />
    <glyph glyph-name="uni1EC8.a" horiz-adv-x="416" 
d="M54 0v144h68v362h-68v144h308v-144h-68v-362h68v-144h-308zM170 688l-12 66c22 3 40 8 40 24s-20 26 -78 30l20 84c138 -4 180 -42 180 -96c0 -72 -68 -104 -150 -108z" />
    <glyph glyph-name="uni1ECA.a" horiz-adv-x="416" 
d="M54 0v144h68v362h-68v144h308v-144h-68v-362h68v-144h-308zM208 -234c-54 0 -92 36 -92 86s38 86 92 86s92 -36 92 -86s-38 -86 -92 -86z" />
    <glyph glyph-name="Iogonek.a" horiz-adv-x="416" 
d="M54 0v144h68v362h-68v144h308v-144h-68v-362h68v-144h-95c-32 -27 -51 -56 -51 -84c0 -24 20 -34 40 -34c12 0 25 8 34 14l38 -86c-28 -22 -76 -38 -114 -38c-68 0 -122 36 -122 98c0 63 48 112 73 130h-111z" />
    <glyph glyph-name="a.a" horiz-adv-x="580" 
d="M212 252c0 -90 28 -124 74 -124c26 0 46 8 64 36v184c-20 18 -46 24 -68 24c-36 0 -70 -32 -70 -120zM36 250c0 164 106 262 208 262c48 0 88 -18 126 -62h4l14 50h134v-500h-140l-12 46h-4c-34 -34 -82 -58 -126 -58c-124 0 -204 100 -204 262z" />
    <glyph glyph-name="agrave.a" horiz-adv-x="580" 
d="M212 252c0 -90 28 -124 74 -124c26 0 46 8 64 36v184c-20 18 -46 24 -68 24c-36 0 -70 -32 -70 -120zM36 250c0 164 106 262 208 262c48 0 88 -18 126 -62h4l14 50h134v-500h-140l-12 46h-4c-34 -34 -82 -58 -126 -58c-124 0 -204 100 -204 262zM270 574l-128 154h164
l88 -154h-124z" />
    <glyph glyph-name="aacute.a" horiz-adv-x="580" 
d="M212 252c0 -90 28 -124 74 -124c26 0 46 8 64 36v184c-20 18 -46 24 -68 24c-36 0 -70 -32 -70 -120zM36 250c0 164 106 262 208 262c48 0 88 -18 126 -62h4l14 50h134v-500h-140l-12 46h-4c-34 -34 -82 -58 -126 -58c-124 0 -204 100 -204 262zM470 728l-128 -154h-124
l88 154h164z" />
    <glyph glyph-name="acircumflex.a" horiz-adv-x="580" 
d="M212 252c0 -90 28 -124 74 -124c26 0 46 8 64 36v184c-20 18 -46 24 -68 24c-36 0 -70 -32 -70 -120zM36 250c0 164 106 262 208 262c48 0 88 -18 126 -62h4l14 50h134v-500h-140l-12 46h-4c-34 -34 -82 -58 -126 -58c-124 0 -204 100 -204 262zM142 574l96 154h136
l96 -154h-114l-48 74h-4l-48 -74h-114z" />
    <glyph glyph-name="atilde.a" horiz-adv-x="580" 
d="M212 252c0 -90 28 -124 74 -124c26 0 46 8 64 36v184c-20 18 -46 24 -68 24c-36 0 -70 -32 -70 -120zM36 250c0 164 106 262 208 262c48 0 88 -18 126 -62h4l14 50h134v-500h-140l-12 46h-4c-34 -34 -82 -58 -126 -58c-124 0 -204 100 -204 262zM130 574
c12 102 58 146 112 146s92 -42 120 -42c16 0 26 10 34 42h86c-12 -102 -58 -146 -112 -146s-92 42 -120 42c-16 0 -26 -10 -34 -42h-86z" />
    <glyph glyph-name="adieresis.a" horiz-adv-x="580" 
d="M212 252c0 -90 28 -124 74 -124c26 0 46 8 64 36v184c-20 18 -46 24 -68 24c-36 0 -70 -32 -70 -120zM36 250c0 164 106 262 208 262c48 0 88 -18 126 -62h4l14 50h134v-500h-140l-12 46h-4c-34 -34 -82 -58 -126 -58c-124 0 -204 100 -204 262zM202 564
c-46 0 -78 34 -78 78s32 78 78 78s78 -34 78 -78s-32 -78 -78 -78zM410 564c-46 0 -78 34 -78 78s32 78 78 78s78 -34 78 -78s-32 -78 -78 -78z" />
    <glyph glyph-name="amacron.a" horiz-adv-x="580" 
d="M212 252c0 -90 28 -124 74 -124c26 0 46 8 64 36v184c-20 18 -46 24 -68 24c-36 0 -70 -32 -70 -120zM36 250c0 164 106 262 208 262c48 0 88 -18 126 -62h4l14 50h134v-500h-140l-12 46h-4c-34 -34 -82 -58 -126 -58c-124 0 -204 100 -204 262zM162 588v108h288v-108
h-288z" />
    <glyph glyph-name="abreve.a" horiz-adv-x="580" 
d="M212 252c0 -90 28 -124 74 -124c26 0 46 8 64 36v184c-20 18 -46 24 -68 24c-36 0 -70 -32 -70 -120zM36 250c0 164 106 262 208 262c48 0 88 -18 126 -62h4l14 50h134v-500h-140l-12 46h-4c-34 -34 -82 -58 -126 -58c-124 0 -204 100 -204 262zM306 574
c-96 0 -142 66 -144 144h94c4 -30 19 -52 50 -52s46 22 50 52h94c-2 -78 -48 -144 -144 -144z" />
    <glyph glyph-name="aring.a" horiz-adv-x="580" 
d="M212 252c0 -90 28 -124 74 -124c26 0 46 8 64 36v184c-20 18 -46 24 -68 24c-36 0 -70 -32 -70 -120zM36 250c0 164 106 262 208 262c48 0 88 -18 126 -62h4l14 50h134v-500h-140l-12 46h-4c-34 -34 -82 -58 -126 -58c-124 0 -204 100 -204 262zM306 550
c-72 0 -120 42 -120 106s48 106 120 106s120 -42 120 -106s-48 -106 -120 -106zM306 612c21 0 38 18 38 44s-17 44 -38 44s-38 -18 -38 -44s17 -44 38 -44z" />
    <glyph glyph-name="uni01CE.a" horiz-adv-x="580" 
d="M212 252c0 -90 28 -124 74 -124c26 0 46 8 64 36v184c-20 18 -46 24 -68 24c-36 0 -70 -32 -70 -120zM36 250c0 164 106 262 208 262c48 0 88 -18 126 -62h4l14 50h134v-500h-140l-12 46h-4c-34 -34 -82 -58 -126 -58c-124 0 -204 100 -204 262zM238 574l-96 154h114
l48 -74h4l48 74h114l-96 -154h-136z" />
    <glyph glyph-name="uni1EA1.a" horiz-adv-x="580" 
d="M212 252c0 -90 28 -124 74 -124c26 0 46 8 64 36v184c-20 18 -46 24 -68 24c-36 0 -70 -32 -70 -120zM36 250c0 164 106 262 208 262c48 0 88 -18 126 -62h4l14 50h134v-500h-140l-12 46h-4c-34 -34 -82 -58 -126 -58c-124 0 -204 100 -204 262zM308 -234
c-54 0 -92 36 -92 86s38 86 92 86s92 -36 92 -86s-38 -86 -92 -86z" />
    <glyph glyph-name="uni1EA3.a" horiz-adv-x="580" 
d="M212 252c0 -90 28 -124 74 -124c26 0 46 8 64 36v184c-20 18 -46 24 -68 24c-36 0 -70 -32 -70 -120zM36 250c0 164 106 262 208 262c48 0 88 -18 126 -62h4l14 50h134v-500h-140l-12 46h-4c-34 -34 -82 -58 -126 -58c-124 0 -204 100 -204 262zM268 558l-12 66
c22 3 40 8 40 24s-20 26 -78 30l20 84c138 -4 180 -42 180 -96c0 -72 -68 -104 -150 -108z" />
    <glyph glyph-name="uni1EA5.a" horiz-adv-x="580" 
d="M212 252c0 -90 28 -124 74 -124c26 0 46 8 64 36v184c-20 18 -46 24 -68 24c-36 0 -70 -32 -70 -120zM36 250c0 164 106 262 208 262c48 0 88 -18 126 -62h4l14 50h134v-500h-140l-12 46h-4c-34 -34 -82 -58 -126 -58c-124 0 -204 100 -204 262zM158 574l80 132h136
l80 -132h-104l-42 62h-4l-42 -62h-104zM420 648l66 120h124l-96 -120h-94z" />
    <glyph glyph-name="uni1EA7.a" horiz-adv-x="580" 
d="M212 252c0 -90 28 -124 74 -124c26 0 46 8 64 36v184c-20 18 -46 24 -68 24c-36 0 -70 -32 -70 -120zM36 250c0 164 106 262 208 262c48 0 88 -18 126 -62h4l14 50h134v-500h-140l-12 46h-4c-34 -34 -82 -58 -126 -58c-124 0 -204 100 -204 262zM158 574l80 132h136
l80 -132h-104l-42 62h-4l-42 -62h-104zM508 768l66 -120h-94l-96 120h124z" />
    <glyph glyph-name="uni1EA9.a" horiz-adv-x="580" 
d="M212 252c0 -90 28 -124 74 -124c26 0 46 8 64 36v184c-20 18 -46 24 -68 24c-36 0 -70 -32 -70 -120zM36 250c0 164 106 262 208 262c48 0 88 -18 126 -62h4l14 50h134v-500h-140l-12 46h-4c-34 -34 -82 -58 -126 -58c-124 0 -204 100 -204 262zM158 574l80 132h136
l80 -132h-104l-42 62h-4l-42 -62h-104zM452 628l-10 56c16 3 26 8 26 24s-13 26 -64 30l16 70c122 -4 158 -36 158 -82c0 -70 -56 -90 -126 -98z" />
    <glyph glyph-name="uni1EAB.a" horiz-adv-x="580" 
d="M212 252c0 -90 28 -124 74 -124c26 0 46 8 64 36v184c-20 18 -46 24 -68 24c-36 0 -70 -32 -70 -120zM36 250c0 164 106 262 208 262c48 0 88 -18 126 -62h4l14 50h134v-500h-140l-12 46h-4c-34 -34 -82 -58 -126 -58c-124 0 -204 100 -204 262zM150 574l78 114h156
l78 -114h-110l-44 56h-4l-44 -56h-110zM226 724h-72c10 88 52 122 96 122c54 0 76 -36 102 -36c16 0 28 10 34 36h72c-10 -88 -52 -122 -96 -122c-54 0 -76 36 -102 36c-16 0 -28 -10 -34 -36z" />
    </font>
</defs>
</svg>
