<?xml version="1.0" standalone="no"?>
<!DOCTYPE svg PUBLIC "-//W3C//DTD SVG 1.1//EN" "http://www.w3.org/Graphics/SVG/1.1/DTD/svg11.dtd" >
<svg version="1.1" xmlns="http://www.w3.org/2000/svg">
<metadata>
Created by FontForge 20120731 at Fri Aug  1 16:50:21 2014

Copyright 2003, 2009 B. Jackowski and J. M. Nowacki (on behalf of TeX users groups). This work is released under the GUST Font License --  see http://tug.org/fonts/licenses/GUST-FONT-LICENSE.txt for details.
</metadata>
<defs>
<font id="latinmodernmono" horiz-adv-x="525" >
  <font-face 
    font-family="LMMonoLt10"
    font-weight="400"
    font-stretch="normal"
    units-per-em="1000"
    panose-1="0 0 5 9 0 0 0 0 0 0"
    ascent="770"
    descent="-230"
    x-height="425"
    cap-height="611"
    bbox="-447 -327 737 986"
    underline-thickness="50"
    underline-position="-123"
    stemh="42"
    stemv="51"
    unicode-range="U+0020-F7A2"
  />
<missing-glyph horiz-adv-x="280" 
 />
    <glyph glyph-name=".notdef" horiz-adv-x="280" 
 />
    <glyph glyph-name="space" unicode=" " 
 />
    <glyph glyph-name="exclam" unicode="!" 
d="M303 574l-9 -344c-2 -32 -3 -40 -32 -40c-10 0 -30 0 -31 17l-10 367c0 44 33 48 41 48s41 -4 41 -48zM303 41c0 -23 -18 -41 -41 -41s-41 18 -41 41c0 24 18 42 41 42s41 -18 41 -42z" />
    <glyph glyph-name="quotedbl" unicode="&#x22;" 
d="M206 577l-13 -211c-1 -13 -3 -27 -22 -27s-22 17 -23 28l-13 210c-3 36 26 45 36 45s38 -7 35 -45zM389 577l-13 -211c-1 -13 -3 -27 -22 -27s-22 17 -23 28l-13 210c-3 36 26 45 36 45s38 -7 35 -45z" />
    <glyph glyph-name="numbersign" unicode="#" 
d="M486 194c0 -25 -28 -25 -38 -25h-88l-17 -135c-2 -10 -6 -34 -27 -34c-16 0 -26 13 -26 26l18 143h-127l-18 -135c-2 -10 -6 -34 -27 -34c-16 0 -26 13 -26 26l18 143h-52c-10 0 -38 0 -38 25c0 26 28 26 38 26h60l21 172h-81c-10 0 -38 0 -38 26s28 26 38 26h89l16 134
c1 9 3 33 27 33c12 0 29 -8 25 -37l-16 -130h128l16 134c1 9 3 33 27 33c12 0 29 -8 25 -37l-16 -130h51c10 0 38 0 38 -26s-28 -26 -38 -26h-59l-21 -172h80c10 0 38 0 38 -26zM337 392h-128l-21 -172h128z" />
    <glyph glyph-name="dollar" unicode="$" 
d="M463 166c0 -68 -51 -152 -179 -172v-48c0 -12 0 -32 -21 -32c-22 0 -22 20 -22 32v48c-122 12 -180 86 -180 167c0 38 29 42 37 42c16 0 35 -14 35 -37c0 -18 -7 -24 -19 -31c19 -65 65 -90 127 -98v260c-173 32 -180 136 -180 160c0 72 64 146 180 159v49
c0 12 0 32 22 32c21 0 21 -20 21 -32v-48c124 -11 179 -80 179 -155c0 -30 -20 -40 -37 -40c-21 0 -35 17 -35 35c0 10 4 20 17 30c-20 65 -76 81 -124 87v-235c150 -28 179 -125 179 -173zM241 348v227c-81 -14 -134 -60 -134 -114c0 -57 58 -99 134 -113zM417 162
c0 57 -47 109 -133 126v-251c83 15 133 68 133 125z" />
    <glyph glyph-name="percent" unicode="%" 
d="M197 569c0 -71 -33 -128 -80 -128c-45 0 -79 55 -79 129c0 70 33 127 79 127s80 -55 80 -128zM433 671c0 -5 -2 -10 -6 -19l-286 -721c-4 -8 -10 -17 -24 -17s-26 12 -26 26c0 5 2 10 6 19l282 712c4 10 11 26 28 26c14 0 26 -13 26 -26zM486 41c0 -70 -32 -127 -79 -127
s-80 57 -80 127s33 128 80 128s79 -58 79 -128zM160 570c0 49 -27 83 -43 83s-42 -34 -42 -83c0 -54 28 -85 42 -85c15 0 43 31 43 85zM449 41c0 54 -28 84 -42 84c-15 0 -43 -30 -43 -84c0 -53 28 -83 43 -83c14 0 42 30 42 83z" />
    <glyph glyph-name="ampersand" unicode="&#x26;" 
d="M487 403c0 -20 -19 -20 -31 -20h-39l-64 -168c-11 -26 -31 -73 -56 -114c14 -19 58 -70 99 -70c20 0 46 14 52 75c1 7 5 16 18 16c0 0 18 -1 18 -24c0 -45 -26 -109 -88 -109c-55 0 -97 50 -121 78c-38 -47 -77 -78 -128 -78c-73 0 -117 69 -117 142c0 45 16 79 37 105
l71 77c-23 69 -30 126 -30 170c0 95 49 139 97 139c67 0 85 -73 85 -131c0 -23 -1 -81 -106 -191c20 -54 66 -128 89 -166c37 71 71 161 104 249c-28 0 -47 0 -47 21s20 21 31 21h95c12 0 31 0 31 -22zM253 491c0 11 -7 89 -48 89c-26 0 -60 -29 -60 -97c0 -9 1 -65 22 -138
c67 75 86 115 86 146zM251 101c-21 30 -27 40 -49 80c-15 24 -34 57 -48 88c-62 -69 -73 -82 -73 -135c0 -31 15 -103 67 -103c16 0 57 5 103 70z" />
    <glyph glyph-name="quotesingle" unicode="'" 
d="M298 577l-13 -211c-1 -13 -3 -27 -22 -27s-22 17 -23 28l-13 210c-3 36 26 45 36 45s38 -7 35 -45z" />
    <glyph glyph-name="parenleft" unicode="(" 
d="M433 -66c0 -6 -4 -19 -22 -19c-24 0 -97 57 -149 129c-35 51 -82 142 -82 262c0 257 202 391 231 391c18 0 22 -13 22 -19c0 -9 -7 -14 -20 -22c-142 -97 -182 -244 -182 -350c0 -119 49 -260 180 -349c15 -9 22 -14 22 -23z" />
    <glyph glyph-name="parenright" unicode=")" 
d="M345 306c0 -257 -202 -391 -231 -391c-17 0 -22 13 -22 19c0 9 8 14 20 22c143 97 182 244 182 350c0 69 -16 239 -194 358c-4 3 -8 7 -8 14c0 6 5 19 22 19c24 0 97 -57 149 -129c35 -51 82 -142 82 -262z" />
    <glyph glyph-name="asterisk" unicode="*" 
d="M452 211c0 -11 -9 -24 -24 -24c-7 0 -8 1 -33 15l-109 64v-140c0 -7 0 -33 -24 -33s-24 26 -24 33v141l-138 -80c-27 1 -28 21 -28 24c0 13 11 20 20 25l129 70l-130 70c-10 6 -19 11 -19 24c0 11 9 24 24 24c0 0 4 0 6 -1l137 -80l-1 142c0 7 0 33 24 33s24 -26 24 -33
l-1 -141l139 80c27 -1 28 -21 28 -24c0 -13 -11 -20 -20 -25l-129 -70l142 -76c2 -3 7 -9 7 -18z" />
    <glyph glyph-name="plus" unicode="+" 
d="M483 306c0 -26 -29 -26 -38 -26h-157v-158c0 -9 0 -38 -26 -38s-26 29 -26 38v158h-157c-9 0 -38 0 -38 26s29 26 38 26h157v158c0 9 0 38 26 38s26 -29 26 -38v-158h157c9 0 38 0 38 -26z" />
    <glyph glyph-name="comma" unicode="," 
d="M338 16c0 -107 -97 -160 -128 -160c-12 0 -22 12 -22 23c0 9 7 14 14 17c21 7 80 32 91 94c1 8 1 20 1 20c-9 -8 -27 -10 -32 -10c-29 0 -54 22 -54 55c0 28 20 54 55 54c41 0 75 -37 75 -93z" />
    <glyph glyph-name="hyphen" unicode="-" 
d="M465 306c0 -26 -29 -26 -39 -26h-328c-10 0 -39 0 -39 26s29 26 39 26h328c10 0 39 0 39 -26z" />
    <glyph glyph-name="period" unicode="." 
d="M317 54c0 -27 -22 -54 -55 -54c-28 0 -54 23 -54 55c0 27 22 54 55 54c28 0 54 -23 54 -55z" />
    <glyph glyph-name="slash" unicode="/" 
d="M463 671c0 -4 -2 -7 -8 -21l-341 -713c-5 -10 -11 -23 -27 -23c-15 0 -26 13 -26 26c0 4 2 7 8 20l341 714c5 10 10 23 27 23c14 0 26 -13 26 -26z" />
    <glyph glyph-name="zero" unicode="0" 
d="M471 305c0 -181 -97 -316 -209 -316c-110 0 -209 132 -209 317c0 181 97 316 209 316c110 0 209 -132 209 -317zM420 316c0 160 -79 264 -158 264c-80 0 -158 -105 -158 -264c0 -160 74 -285 158 -285s158 125 158 285z" />
    <glyph glyph-name="one" unicode="1" 
d="M438 21c0 -21 -20 -21 -31 -21h-260c-11 0 -31 0 -31 21s19 21 31 21h105v470c-60 -52 -100 -58 -118 -58c-11 0 -24 3 -24 21c0 14 8 18 18 20c32 4 90 15 135 115c3 7 8 12 19 12c20 0 20 -20 20 -32v-548h105c12 0 31 0 31 -21z" />
    <glyph glyph-name="two" unicode="2" 
d="M469 32c0 -25 -6 -32 -31 -32h-351c-12 0 -32 0 -32 22c0 9 5 14 12 20l228 192c71 59 123 122 123 197c0 97 -84 149 -175 149c-61 0 -114 -35 -133 -94c13 -10 17 -20 17 -29c0 -22 -19 -36 -36 -36c-13 0 -36 9 -36 39c0 83 78 162 194 162c120 0 220 -73 220 -191
c0 -71 -37 -129 -90 -181c-64 -59 -163 -137 -245 -208h284c0 33 0 49 26 49c25 0 25 -18 25 -32v-27z" />
    <glyph glyph-name="three" unicode="3" 
d="M477 170c0 -92 -84 -181 -213 -181c-120 0 -217 54 -217 141c0 26 18 39 36 39c20 0 35 -16 35 -36c0 -15 -5 -20 -15 -30c33 -58 117 -72 161 -72c101 0 162 71 162 139c0 64 -55 139 -165 139h-48c-12 0 -31 0 -31 22c0 19 16 20 65 24c40 2 67 4 102 33
c31 25 47 64 47 98c0 51 -55 94 -132 94c-10 0 -88 -1 -129 -42c9 -10 13 -18 13 -28c0 -23 -18 -37 -35 -37c-16 0 -36 12 -36 39c0 67 70 110 186 110c112 0 184 -63 184 -135c0 -53 -27 -108 -98 -154c82 -37 128 -94 128 -163z" />
    <glyph glyph-name="four" unicode="4" 
d="M493 195c0 -20 -20 -20 -31 -20h-91v-133h74c12 0 31 0 31 -21s-20 -21 -31 -21h-186c-11 0 -31 0 -31 21s19 21 31 21h74v133h-271c-24 0 -31 5 -31 31c0 13 0 17 4 24l240 376c11 17 15 17 35 17h28c27 0 33 -6 33 -32v-374h91c11 0 31 0 31 -22zM333 217v364h-27
l-231 -364h258z" />
    <glyph glyph-name="five" unicode="5" 
d="M469 186c0 -109 -98 -197 -221 -197c-110 0 -193 66 -193 147c0 32 24 40 36 40c17 0 36 -13 36 -36c0 -16 -7 -22 -16 -32c34 -67 105 -77 137 -77c92 0 170 67 170 155c0 72 -50 153 -142 153c-63 0 -108 -20 -142 -61c-4 -4 -9 -6 -19 -6c-23 0 -23 18 -23 32v275
c0 25 6 32 31 32h279c12 0 31 0 31 -22c0 -20 -20 -20 -31 -20h-259v-224c56 30 100 36 134 36c116 0 192 -96 192 -195z" />
    <glyph glyph-name="six" unicode="6" 
d="M468 189c0 -118 -97 -200 -204 -200c-99 0 -208 74 -208 310c0 202 133 323 267 323c92 0 127 -49 127 -96c0 -24 -16 -38 -36 -38c-21 0 -35 16 -35 35c0 14 3 19 14 30c-13 13 -31 27 -71 27c-95 0 -198 -88 -216 -267c65 59 116 76 167 76c108 0 195 -88 195 -200z
M417 189c0 82 -59 156 -149 156c-85 0 -151 -57 -151 -126c0 -23 4 -51 9 -67c22 -68 66 -121 138 -121c80 0 153 63 153 158z" />
    <glyph glyph-name="seven" unicode="7" 
d="M477 589c0 -5 -1 -8 -4 -12c-79 -77 -245 -260 -245 -560c-1 -20 -13 -28 -25 -28c-26 0 -26 27 -26 38c0 112 35 336 228 542h-307c0 -33 0 -49 -26 -49c-25 0 -25 18 -25 32v43c0 15 0 33 25 33c5 0 19 0 26 -17h348c12 0 31 0 31 -22z" />
    <glyph glyph-name="eight" unicode="8" 
d="M477 170c0 -96 -91 -181 -215 -181c-123 0 -215 85 -215 181c0 73 43 129 149 159c-109 36 -135 83 -135 138c0 79 84 155 201 155c116 0 201 -75 201 -155c0 -55 -25 -101 -134 -138c104 -30 148 -86 148 -159zM412 466c0 58 -63 114 -150 114c-88 0 -150 -56 -150 -114
c0 -62 68 -110 150 -110s150 46 150 110zM426 171c0 67 -62 134 -164 134c-101 0 -164 -67 -164 -134c0 -77 72 -140 164 -140s164 63 164 140z" />
    <glyph glyph-name="nine" unicode="9" 
d="M468 312c0 -197 -122 -323 -254 -323c-122 0 -140 65 -140 96c0 24 16 38 36 38c21 0 35 -16 35 -35c0 -14 -4 -19 -13 -31c32 -24 72 -26 82 -26c104 0 190 106 203 266c-64 -58 -115 -75 -166 -75c-108 0 -195 88 -195 200c0 119 100 200 209 200
c95 0 203 -70 203 -310zM408 392c0 16 -3 39 -3 39c0 8 -13 64 -42 101c-18 22 -49 48 -98 48c-80 0 -158 -62 -158 -158c0 -82 59 -156 149 -156c92 0 152 64 152 126z" />
    <glyph glyph-name="colon" unicode=":" 
d="M317 370c0 -27 -22 -54 -55 -54c-28 0 -54 23 -54 55c0 27 22 54 55 54c28 0 54 -23 54 -55zM317 54c0 -27 -22 -54 -55 -54c-28 0 -54 23 -54 55c0 27 22 54 55 54c28 0 54 -23 54 -55z" />
    <glyph glyph-name="semicolon" unicode=";" 
d="M317 370c0 -27 -22 -54 -55 -54c-28 0 -54 23 -54 55c0 27 22 54 55 54c28 0 54 -23 54 -55zM322 18c0 -108 -91 -162 -112 -162c-12 0 -22 12 -22 23c0 8 6 13 11 16c20 11 63 33 80 105c-56 0 -71 30 -71 55c0 29 23 54 54 54c35 0 60 -31 60 -91z" />
    <glyph glyph-name="less" unicode="&#x3c;" 
d="M465 84c0 -17 -14 -26 -26 -26c-8 0 -10 1 -22 9l-344 216c-7 5 -14 13 -14 23c0 13 11 21 18 25l340 214c12 8 14 9 22 9c12 0 26 -9 26 -26c0 -13 -12 -21 -20 -26l-311 -196l311 -196c8 -5 20 -13 20 -26z" />
    <glyph glyph-name="equal" unicode="=" 
d="M483 385c0 -26 -27 -26 -36 -26h-370c-9 0 -36 0 -36 26c0 25 31 25 42 25h358c11 0 42 0 42 -25zM483 227c0 -25 -31 -25 -42 -25h-358c-11 0 -42 0 -42 25c0 26 27 26 36 26h370c9 0 36 0 36 -26z" />
    <glyph glyph-name="greater" unicode="&#x3e;" 
d="M465 306c0 -13 -11 -21 -18 -25l-341 -214c-11 -8 -13 -9 -21 -9c-12 0 -26 9 -26 26c0 13 12 21 20 26l311 196l-311 196c-8 5 -20 13 -20 26c0 17 14 26 26 26c8 0 10 -1 22 -9l344 -216c7 -5 14 -13 14 -23z" />
    <glyph glyph-name="question" unicode="?" 
d="M458 499c0 -49 -35 -76 -62 -91c-102 -55 -119 -118 -119 -169v-18c0 -26 -7 -31 -31 -31c-31 0 -31 12 -31 44c0 39 1 127 145 207c23 12 48 27 48 58c0 35 -42 76 -156 76c-43 0 -95 -9 -129 -46c10 -12 14 -20 14 -30c0 -22 -18 -36 -35 -36s-36 13 -36 38
c0 55 49 116 186 116c180 0 206 -82 206 -118zM288 41c0 -23 -18 -41 -42 -41c-23 0 -41 18 -41 41c0 24 18 42 41 42c24 0 42 -18 42 -42z" />
    <glyph glyph-name="at" unicode="@" 
d="M477 72c0 -28 -83 -78 -170 -78c-139 0 -260 133 -260 312c0 180 123 311 258 311c172 0 172 -231 172 -295c0 -170 -92 -212 -140 -212c-72 0 -138 80 -138 196c0 110 61 195 139 195c32 0 58 -17 88 -36c-38 99 -89 110 -121 110c-111 0 -221 -109 -221 -270
c0 -153 106 -269 222 -269c38 0 80 12 122 51c5 4 9 4 20 4c7 0 29 0 29 -19zM440 305c0 91 -52 154 -103 154c-47 0 -101 -60 -101 -154c0 -87 50 -153 102 -153c49 0 102 62 102 153z" />
    <glyph glyph-name="A" unicode="A" 
d="M495 21c0 -21 -22 -21 -35 -21h-105c-14 0 -33 0 -33 21s18 21 60 21l-28 129h-184l-28 -129c42 0 60 0 60 -21s-19 -21 -33 -21h-106c-12 0 -34 0 -34 21c0 9 4 16 12 20c6 1 27 1 48 1l127 550c8 31 22 31 46 31c26 0 38 0 46 -32l127 -549c21 0 41 0 47 -1
c10 -4 13 -11 13 -20zM343 213l-77 368h-7l-78 -368h162z" />
    <glyph glyph-name="B" unicode="B" 
d="M479 162c0 -76 -58 -162 -168 -162h-255c-10 0 -31 0 -31 21s20 21 32 21h39v527h-39c-12 0 -32 0 -32 21s21 21 31 21h234c108 0 167 -79 167 -150c0 -60 -33 -110 -128 -142c113 -27 150 -90 150 -157zM407 460c0 38 -25 109 -121 109h-140v-230h117
c109 0 144 75 144 121zM428 164c0 65 -63 133 -159 133h-123v-255h142c97 0 140 67 140 122z" />
    <glyph glyph-name="C" unicode="C" 
d="M481 163c0 -88 -85 -174 -198 -174c-130 0 -240 134 -240 317c0 182 110 316 239 316c50 0 95 -19 137 -55c19 35 20 39 21 43c4 5 10 12 20 12c21 0 21 -20 21 -32v-143c0 -16 0 -32 -26 -32c-21 0 -23 12 -26 25c-15 90 -77 140 -143 140c-96 0 -193 -113 -193 -274
c0 -162 96 -275 194 -275c45 0 136 27 143 136c2 20 19 20 25 20c8 0 26 0 26 -24z" />
    <glyph glyph-name="D" unicode="D" 
d="M482 301c0 -160 -86 -301 -216 -301h-213c-11 0 -32 0 -32 21s20 21 32 21h33v527h-33c-11 0 -32 0 -32 20c0 22 20 22 32 22h213c133 0 216 -151 216 -310zM432 301c0 125 -63 268 -186 268h-109v-527h109c121 0 186 132 186 259z" />
    <glyph glyph-name="E" unicode="E" 
d="M500 32c0 -25 -6 -32 -31 -32h-409c-11 0 -32 0 -32 21s20 21 32 21h42v527h-42c-11 0 -32 0 -32 21s21 21 32 21h386c26 0 31 -8 31 -32v-76c0 -15 0 -32 -26 -32c-25 0 -25 18 -25 32v66h-274v-231h157c0 44 0 59 25 59s25 -18 25 -32v-96c0 -15 0 -32 -25 -32
s-25 15 -25 59h-157v-254h297v82c0 15 0 32 26 32c25 0 25 -17 25 -32v-92z" />
    <glyph glyph-name="F" unicode="F" 
d="M487 503c0 -15 0 -32 -25 -32s-25 18 -25 32v66h-279v-242h161c0 44 0 59 26 59c25 0 25 -18 25 -32v-97c0 -14 0 -32 -25 -32c-26 0 -26 15 -26 59h-161v-242h64c12 0 31 0 31 -21s-20 -21 -31 -21h-160c-11 0 -32 0 -32 21s20 21 32 21h45v527h-45c-11 0 -32 0 -32 20
c0 22 20 22 32 22h394c27 0 31 -8 31 -32v-76z" />
    <glyph glyph-name="G" unicode="G" 
d="M494 238c0 -22 -20 -22 -49 -22v-184c0 -14 0 -32 -25 -32c-26 0 -26 16 -26 61c-37 -43 -78 -72 -133 -72c-119 0 -220 134 -220 317c0 180 100 316 220 316c41 0 80 -14 125 -53c18 42 23 53 38 53c21 0 21 -20 21 -32v-143c0 -16 0 -32 -26 -32c-16 0 -22 6 -24 16
c-20 125 -91 149 -130 149c-84 0 -174 -110 -174 -275c0 -159 85 -274 173 -274c59 0 115 50 129 185h-55c-11 0 -31 0 -31 22c0 20 20 20 31 20h124c11 0 32 0 32 -20z" />
    <glyph glyph-name="H" unicode="H" 
d="M500 21c0 -21 -20 -21 -31 -21h-123c-12 0 -31 0 -31 22c0 20 20 20 31 20h36v255h-240v-255h36c12 0 31 0 31 -21s-20 -21 -31 -21h-123c-11 0 -31 0 -31 21s19 21 31 21h36v527h-36c-11 0 -31 0 -31 20c0 22 19 22 31 22h123c12 0 31 0 31 -22c0 -20 -20 -20 -31 -20
h-36v-230h240v230h-36c-12 0 -31 0 -31 21s20 21 31 21h123c12 0 31 0 31 -22c0 -20 -20 -20 -31 -20h-36v-527h36c12 0 31 0 31 -21z" />
    <glyph glyph-name="I" unicode="I" 
d="M442 21c0 -21 -21 -21 -32 -21h-295c-11 0 -32 0 -32 22c0 20 21 20 32 20h122v527h-122c-11 0 -32 0 -32 21s21 21 32 21h295c11 0 32 0 32 -22c0 -20 -21 -20 -32 -20h-122v-527h122c11 0 32 0 32 -21z" />
    <glyph glyph-name="J" unicode="J" 
d="M475 590c0 -21 -20 -21 -32 -21h-41v-441c0 -88 -80 -139 -166 -139c-96 0 -161 42 -161 103c0 26 17 38 36 38c20 0 35 -16 35 -35c0 -12 -3 -16 -12 -28c40 -36 93 -36 102 -36c22 0 115 6 115 103v435h-95c-12 0 -32 0 -32 21s21 21 32 21h187c11 0 32 0 32 -21z" />
    <glyph glyph-name="K" unicode="K" 
d="M493 21c0 -21 -21 -21 -33 -21h-77c-12 0 -32 0 -32 22c0 20 20 20 49 20l-161 288l-108 -136v-152h33c12 0 32 0 32 -21s-21 -21 -32 -21h-104c-12 0 -32 0 -32 22c0 20 21 20 32 20h31v527h-31c-12 0 -32 0 -32 21s21 21 32 21h104c12 0 32 0 32 -22
c0 -20 -21 -20 -32 -20h-33v-315l250 315c-32 0 -54 0 -54 20c0 22 21 22 32 22h91c11 0 32 0 32 -21s-19 -21 -53 -21l-165 -208l179 -319c29 0 50 0 50 -21z" />
    <glyph glyph-name="L" unicode="L" 
d="M485 32c0 -25 -5 -32 -31 -32h-388c-12 0 -31 0 -31 21s19 21 31 21h48v527h-48c-12 0 -31 0 -31 20c0 22 19 22 31 22h167c11 0 32 0 32 -22c0 -20 -21 -20 -32 -20h-68v-527h270v82c0 16 0 32 25 32s25 -17 25 -32v-92z" />
    <glyph glyph-name="M" unicode="M" 
d="M505 21c0 -21 -20 -21 -31 -21h-85c-11 0 -31 0 -31 21s19 21 55 21v527h-7l-111 -341c-4 -13 -23 -17 -33 -17c-9 0 -26 2 -30 13l-113 345h-7v-527c35 0 54 0 54 -21s-20 -21 -31 -21h-85c-11 0 -31 0 -31 21s19 21 55 21v527c-36 0 -55 0 -55 21s20 21 31 21h58
c11 0 38 1 44 -18l109 -340h2l104 324c7 22 15 34 49 34h58c11 0 31 0 31 -21s-19 -21 -55 -21v-527c36 0 55 0 55 -21z" />
    <glyph glyph-name="N" unicode="N" 
d="M494 589c0 -20 -20 -20 -31 -20h-37v-537c0 -30 -9 -32 -33 -32c-22 0 -38 1 -49 30l-200 539h-9v-527h36c12 0 31 0 31 -21s-20 -21 -31 -21h-110c-12 0 -31 0 -31 22c0 20 20 20 31 20h37v527h-37c-12 0 -31 0 -31 21s20 21 31 21h71c23 0 37 -2 48 -30l200 -539h9v527
h-36c-11 0 -31 0 -31 20c0 22 19 22 31 22h110c12 0 31 0 31 -22z" />
    <glyph glyph-name="O" unicode="O" 
d="M465 305c0 -288 -20 -316 -203 -316c-184 0 -203 28 -203 316c0 289 19 317 203 317s203 -29 203 -317zM414 314c0 64 0 143 -13 192c-17 62 -55 74 -139 74c-92 0 -126 -15 -140 -81c-12 -49 -12 -120 -12 -185c0 -57 0 -148 13 -202c13 -56 40 -81 139 -81
c100 0 128 25 140 88c12 56 12 130 12 195z" />
    <glyph glyph-name="P" unicode="P" 
d="M477 432c0 -91 -72 -179 -185 -179h-140v-211h42c11 0 32 0 32 -21s-21 -21 -32 -21h-134c-11 0 -32 0 -32 21s20 21 32 21h42v527h-42c-11 0 -32 0 -32 21s21 21 32 21h232c112 0 185 -88 185 -179zM426 432c0 59 -47 137 -154 137h-120v-273h120c107 0 154 77 154 136z
" />
    <glyph glyph-name="Q" unicode="Q" 
d="M465 305c0 -47 0 -116 -7 -172c-8 -78 -24 -112 -77 -134l39 -72c11 -21 31 -56 31 -61c0 -10 -13 -10 -23 -10h-9c-12 0 -22 0 -27 8l-66 126c-18 -1 -51 -1 -64 -1c-184 0 -203 28 -203 316c0 289 19 317 203 317s203 -29 203 -317zM414 306c0 56 0 127 -9 181
c-13 72 -43 93 -143 93c-103 0 -127 -24 -141 -86c-11 -50 -11 -130 -11 -189c0 -56 0 -127 9 -181c12 -60 34 -93 135 -93h50l-58 112l-1 4c0 9 14 9 23 9h12c14 0 15 0 22 -11l55 -100c33 22 57 39 57 261z" />
    <glyph glyph-name="R" unicode="R" 
d="M520 86c0 -35 -21 -97 -79 -97c-30 0 -55 13 -71 38c-20 35 -20 66 -20 130c0 47 -1 72 -26 96c-36 31 -70 31 -91 31h-91v-242h36c12 0 31 0 31 -21s-20 -21 -31 -21h-123c-11 0 -31 0 -31 21s19 21 31 21h36v527h-36c-11 0 -31 0 -31 20c0 22 19 22 31 22h183
c115 0 190 -79 190 -163c0 -40 -18 -99 -96 -143c26 -20 48 -40 60 -68c9 -22 9 -31 9 -93s6 -113 39 -113c22 0 30 46 30 57c1 21 17 21 25 21s25 0 25 -23zM378 448c0 53 -48 121 -151 121h-85v-242h85c102 0 151 66 151 121z" />
    <glyph glyph-name="S" unicode="S" 
d="M469 161c0 -87 -71 -172 -184 -172c-64 0 -125 15 -177 54c-11 -41 -15 -54 -32 -54c-21 0 -21 20 -21 32v136c0 15 0 32 26 32c23 0 24 -14 25 -26c1 -21 6 -68 53 -98c43 -29 96 -34 127 -34c88 0 136 67 136 125c0 97 -91 120 -123 127l-118 28
c-81 23 -126 87 -126 152c0 83 74 159 182 159c45 0 98 -11 151 -56c11 40 15 56 32 56c21 0 21 -20 21 -32v-136c0 -15 0 -32 -26 -32c-13 0 -21 3 -24 15c-8 40 -28 143 -155 143c-80 0 -134 -55 -134 -113c0 -53 42 -93 90 -107l84 -19c78 -18 105 -24 146 -64
c12 -13 47 -54 47 -116z" />
    <glyph glyph-name="T" unicode="T" 
d="M496 503c0 -15 0 -32 -26 -32c-25 0 -25 18 -25 32v66h-157v-527h64c12 0 31 0 31 -21s-20 -21 -31 -21h-179c-12 0 -31 0 -31 22c0 20 20 20 31 20h64v527h-158v-66c0 -15 0 -32 -26 -32c-25 0 -25 18 -25 32v76c0 26 7 32 32 32h405c26 0 31 -8 31 -32v-76z" />
    <glyph glyph-name="U" unicode="U" 
d="M518 590c0 -21 -20 -21 -32 -21h-41v-368c0 -121 -85 -212 -183 -212s-183 91 -183 212v368h-41c-12 0 -32 0 -32 21s20 21 32 21h133c11 0 32 0 32 -21s-21 -21 -32 -21h-41v-363c0 -119 73 -175 132 -175c58 0 132 56 132 175v363h-41c-11 0 -32 0 -32 21s21 21 32 21
h133c12 0 32 0 32 -21z" />
    <glyph glyph-name="V" unicode="V" 
d="M504 590c0 -21 -19 -21 -57 -21l-138 -547c-8 -30 -24 -30 -47 -30c-25 0 -39 0 -47 31l-138 546c-38 0 -57 0 -57 21s21 21 32 21h106c11 0 32 0 32 -21s-19 -21 -61 -21l130 -536l7 1l129 535c-42 0 -61 0 -61 21s21 21 32 21h106c11 0 32 0 32 -21z" />
    <glyph glyph-name="W" unicode="W" 
d="M511 589c0 -20 -21 -20 -38 -20l-75 -550c-4 -27 -27 -27 -37 -27c-5 0 -29 0 -33 18l-65 302l-68 -306c-8 -14 -25 -14 -32 -14c-10 0 -33 0 -37 27l-75 550h-10c-7 0 -28 0 -28 20c0 22 21 22 32 22h82c12 0 31 0 31 -22c0 -20 -20 -20 -31 -20h-34l67 -535h4l65 309
c4 17 25 16 33 16c7 0 30 1 34 -17l63 -308h4l68 535h-34c-11 0 -31 0 -31 20c0 22 19 22 31 22h82c11 0 32 0 32 -22z" />
    <glyph glyph-name="X" unicode="X" 
d="M494 21c0 -21 -21 -21 -32 -21h-108c-11 0 -31 0 -31 21s18 21 53 21l-120 235l-111 -235c35 0 55 0 55 -21s-21 -21 -32 -21h-108c-11 0 -31 0 -31 21s19 21 31 21h29l143 284l-129 243h-30c-12 0 -32 0 -32 21s21 21 32 21h107c11 0 31 0 31 -21s-19 -21 -51 -21
l97 -185l90 185c-35 0 -54 0 -54 21s20 21 31 21h108c11 0 32 0 32 -22c0 -20 -21 -20 -32 -20h-30l-122 -242l152 -285h30c11 0 32 0 32 -21z" />
    <glyph glyph-name="Y" unicode="Y" 
d="M503 589c0 -20 -20 -20 -31 -20h-28l-156 -325v-202h36c12 0 31 0 31 -21s-20 -21 -31 -21h-123c-12 0 -31 0 -31 22c0 20 20 20 31 20h36v202l-157 325h-28c-12 0 -31 0 -31 21s20 21 31 21h108c11 0 31 0 31 -21s-19 -21 -54 -21l126 -280l123 280c-34 0 -53 0 -53 21
s20 21 31 21h108c12 0 31 0 31 -22z" />
    <glyph glyph-name="Z" unicode="Z" 
d="M478 32c0 -25 -5 -32 -31 -32h-364c-14 0 -32 0 -32 25c0 8 0 13 9 26l351 518h-297v-66c0 -15 0 -32 -26 -32c-25 0 -25 18 -25 32v76c0 26 7 32 33 32h345c14 0 32 0 32 -25c0 -8 0 -13 -9 -26l-351 -518h314v85c0 15 0 32 26 32c25 0 25 -17 25 -32v-95z" />
    <glyph glyph-name="bracketleft" unicode="[" 
d="M480 -65c0 -21 -20 -21 -31 -21h-187c-26 0 -31 8 -31 32v719c0 25 5 32 31 32h187c12 0 31 0 31 -22c0 -21 -20 -21 -31 -21h-167v-697h167c12 0 31 0 31 -22z" />
    <glyph glyph-name="backslash" unicode="\" 
d="M463 -60c0 -13 -12 -26 -26 -26c-16 0 -23 14 -27 22l-342 715c-3 5 -7 13 -7 20c0 13 11 26 26 26c16 0 23 -14 27 -22l342 -715c3 -5 7 -13 7 -20z" />
    <glyph glyph-name="bracketright" unicode="]" 
d="M293 -54c0 -25 -5 -32 -31 -32h-187c-12 0 -31 0 -31 22c0 21 20 21 31 21h167v697h-167c-12 0 -31 0 -31 22c0 21 20 21 31 21h187c26 0 31 -8 31 -32v-719z" />
    <glyph glyph-name="asciicircum" unicode="^" 
d="M451 525c0 -12 -7 -21 -24 -21c-6 0 -19 5 -30 10l-137 60l-137 -60c-11 -5 -24 -10 -30 -10c-17 0 -24 9 -24 21c0 8 12 17 22 22l147 70c15 7 29 7 44 0l147 -70c10 -5 22 -14 22 -22z" />
    <glyph glyph-name="underscore" unicode="_" 
d="M465 -153c0 -26 -29 -26 -39 -26h-328c-10 0 -39 0 -39 26s29 26 39 26h328c10 0 39 0 39 -26z" />
    <glyph glyph-name="grave" unicode="`" 
d="M361 536c0 -7 -4 -31 -24 -31c0 0 -5 0 -7 1l-144 64c-19 8 -23 18 -23 27c0 14 11 25 26 25c0 0 6 0 15 -4l138 -62c10 -4 19 -8 19 -20z" />
    <glyph glyph-name="a" unicode="a" 
d="M513 22c0 -22 -20 -22 -42 -22c-36 0 -83 0 -109 37c-55 -36 -117 -43 -153 -43c-99 0 -161 61 -161 128c0 95 125 141 310 144c0 90 -57 126 -142 126c-31 0 -69 -4 -69 -23c-1 -30 -24 -37 -36 -37c-19 0 -36 13 -36 37c0 65 99 65 140 65c140 0 194 -80 194 -150v-230
c16 -6 31 -12 72 -12c12 0 32 0 32 -20zM358 128v98c-168 -5 -259 -51 -259 -104c0 -45 46 -86 117 -86c8 0 57 0 96 19c46 21 46 46 46 73z" />
    <glyph glyph-name="b" unicode="b" 
d="M485 213c0 -125 -95 -219 -202 -219c-31 0 -73 9 -131 68c0 -45 0 -62 -24 -62c-26 0 -26 17 -26 32v537h-57c-11 0 -31 0 -31 20c0 22 20 22 32 22h75c27 0 31 -8 31 -32v-212c51 46 95 64 142 64c104 0 191 -97 191 -218zM435 213c0 96 -65 176 -147 176
c-71 0 -136 -60 -136 -126v-76c0 -53 40 -151 128 -151c77 0 155 71 155 177z" />
    <glyph glyph-name="c" unicode="c" 
d="M463 102c0 -16 -35 -108 -169 -108c-124 0 -217 101 -217 219c0 87 59 221 229 221c43 0 144 -6 144 -65c0 -23 -17 -37 -36 -37c-20 0 -35 12 -35 40c0 11 -47 20 -73 20c-148 0 -178 -126 -178 -179c0 -100 79 -177 172 -177c81 0 105 54 116 77c5 7 11 8 21 8
c4 0 26 0 26 -19z" />
    <glyph glyph-name="d" unicode="d" 
d="M510 22c0 -22 -20 -22 -32 -22h-75c-31 0 -31 12 -31 67c-46 -47 -86 -73 -141 -73c-104 0 -192 96 -192 218c0 125 94 219 201 219c42 0 82 -16 132 -59v197h-57c-11 0 -31 0 -31 20c0 22 20 22 32 22h75c27 0 31 -8 31 -32v-537h57c11 0 31 0 31 -20zM372 190v74
c0 62 -56 125 -128 125c-77 0 -155 -71 -155 -177c0 -98 68 -176 146 -176c86 0 137 92 137 154z" />
    <glyph glyph-name="e" unicode="e" 
d="M460 102c0 -24 -47 -108 -174 -108c-128 0 -228 99 -228 220s95 220 212 220c128 0 190 -97 190 -209c0 -28 -14 -28 -31 -28h-320c20 -106 102 -161 184 -161c32 0 92 11 120 74c4 10 10 11 22 11c4 0 25 0 25 -19zM409 239c-11 126 -81 153 -139 153
c-77 0 -142 -60 -160 -153h299z" />
    <glyph glyph-name="f" unicode="f" 
d="M433 566c0 -23 -19 -36 -35 -36c-27 0 -35 31 -35 45c-45 0 -121 -1 -121 -91v-59h137c12 0 31 0 31 -22c0 -20 -20 -20 -31 -20h-137v-341h115c11 0 32 0 32 -21s-21 -21 -32 -21h-280c-11 0 -32 0 -32 22c0 20 21 20 32 20h115v341h-115c-11 0 -31 0 -31 20
c0 22 20 22 32 22h114v65c0 84 75 127 152 127c14 0 89 0 89 -51z" />
    <glyph glyph-name="g" unicode="g" 
d="M507 391c0 -23 -18 -32 -31 -32c-8 0 -26 6 -32 36c-24 -2 -50 -7 -83 -25c22 -37 31 -65 31 -94c0 -86 -71 -156 -160 -156c-48 0 -84 22 -98 31c-9 -23 -12 -40 -12 -45c0 0 2 -26 15 -43c15 -18 23 -19 41 -19c9 -1 23 -2 31 -2h73c90 0 132 -21 145 -28
c48 -26 66 -74 66 -109c0 -84 -105 -142 -231 -142s-231 57 -231 142c0 10 1 76 82 125c-16 21 -29 44 -29 78c0 28 9 49 23 70c-19 25 -35 56 -35 98c0 83 69 155 160 155c45 0 79 -18 101 -33c50 37 98 38 109 38c47 0 65 -25 65 -45zM342 276c0 60 -48 114 -110 114
c-59 0 -110 -50 -110 -115c0 -60 48 -114 110 -114c59 0 110 50 110 115zM453 -95c0 94 -121 99 -219 99c-79 0 -89 -1 -116 -18c-37 -23 -47 -60 -47 -81c0 -49 80 -100 191 -100c110 0 191 51 191 100z" />
    <glyph glyph-name="h" unicode="h" 
d="M510 21c0 -21 -20 -21 -31 -21h-158c-11 0 -32 0 -32 21s20 21 32 21h51v245c0 70 -18 102 -80 102c-57 0 -140 -42 -140 -153v-194h56c12 0 32 0 32 -21s-20 -21 -31 -21h-164c-11 0 -31 0 -31 21s20 21 32 21h56v527h-57c-11 0 -31 0 -31 20c0 22 20 22 32 22h75
c27 0 31 -8 31 -32v-217c37 36 81 69 146 69c76 0 124 -42 124 -138v-251h56c12 0 32 0 32 -21z" />
    <glyph glyph-name="i" unicode="i" 
d="M451 21c0 -21 -21 -21 -32 -21h-305c-11 0 -32 0 -32 21s20 21 32 21h136v341h-128c-11 0 -32 0 -32 21s21 21 32 21h147c27 0 31 -8 31 -32v-351h119c11 0 32 0 32 -21zM304 563c0 -23 -18 -41 -41 -41s-41 18 -41 41c0 24 18 42 41 42s41 -18 41 -42z" />
    <glyph glyph-name="j" unicode="j" 
d="M361 -56c0 -62 -35 -180 -177 -180c-38 0 -133 0 -133 69c0 23 18 37 36 37c17 0 35 -14 35 -36l-5 -17s24 -10 73 -10c26 0 61 0 92 43c28 39 29 81 29 99v434h-145c-11 0 -31 0 -31 20c0 22 20 22 32 22h163c27 0 31 -8 31 -32v-449zM360 563c0 -23 -18 -41 -41 -41
s-41 18 -41 41c0 24 18 42 41 42s41 -18 41 -42z" />
    <glyph glyph-name="k" unicode="k" 
d="M506 21c0 -21 -21 -21 -32 -21h-122c-11 0 -31 0 -31 21s16 19 66 19l-140 183l-95 -85v-96h61c12 0 31 0 31 -21s-19 -21 -31 -21h-159c-12 0 -31 0 -31 22c0 20 20 20 31 20h54v527h-54c-12 0 -31 0 -31 21s20 21 31 21h67c27 0 31 -8 31 -32v-388l204 192h-64
c-11 0 -31 0 -31 20c0 22 19 22 31 22h159c11 0 32 0 32 -22c0 -20 -21 -20 -32 -20h-37l-137 -130l162 -211h35c11 0 32 0 32 -21z" />
    <glyph glyph-name="l" unicode="l" 
d="M464 21c0 -21 -20 -21 -31 -21h-341c-10 0 -31 0 -31 21s20 21 32 21h144v527h-145c-10 0 -31 0 -31 20c0 22 20 22 32 22h164c26 0 31 -8 31 -32v-537h145c12 0 31 0 31 -21z" />
    <glyph glyph-name="m" unicode="m" 
d="M514 21c0 -21 -21 -21 -32 -21h-77c-11 0 -32 0 -32 21s18 21 43 21v252c0 77 -19 95 -46 95c-47 0 -94 -51 -94 -151v-196c40 0 57 0 57 -21s-20 -21 -32 -21h-77c-11 0 -32 0 -32 21s18 21 43 21v252c0 77 -19 95 -46 95c-46 0 -92 -51 -92 -151v-196c40 0 57 0 57 -21
s-20 -21 -32 -21h-91c-10 0 -32 0 -32 21s17 21 57 21v341c-40 0 -57 0 -57 21s21 21 32 21h33c14 0 30 0 33 -43c39 36 65 49 96 49c30 0 55 -17 76 -64c37 52 76 64 105 64c81 0 83 -109 83 -128v-261c40 0 57 0 57 -21z" />
    <glyph glyph-name="n" unicode="n" 
d="M510 21c0 -21 -20 -21 -31 -21h-158c-11 0 -32 0 -32 21s20 21 32 21h51v245c0 70 -18 102 -80 102c-57 0 -140 -42 -140 -153v-194h56c12 0 32 0 32 -21s-20 -21 -31 -21h-164c-11 0 -31 0 -31 21s20 21 32 21h56v341h-57c-11 0 -31 0 -31 20c0 22 20 22 32 22h75
c31 0 31 -13 31 -63c37 36 81 69 146 69c76 0 124 -42 124 -138v-251h56c12 0 32 0 32 -21z" />
    <glyph glyph-name="o" unicode="o" 
d="M464 213c0 -124 -94 -219 -202 -219s-202 94 -202 219c0 123 92 221 202 221s202 -98 202 -221zM413 220c0 101 -72 172 -151 172c-78 0 -151 -71 -151 -172c0 -102 69 -184 151 -184c81 0 151 82 151 184z" />
    <glyph glyph-name="p" unicode="p" 
d="M485 213c0 -125 -95 -219 -202 -219c-31 0 -73 9 -131 68v-249h56c12 0 32 0 32 -22c0 -21 -20 -21 -31 -21h-164c-11 0 -31 0 -31 21c0 22 20 22 32 22h56v570h-57c-11 0 -31 0 -31 20c0 22 20 22 32 22h75c30 0 31 -11 31 -58c51 46 95 64 142 64
c104 0 191 -97 191 -218zM435 213c0 96 -65 176 -147 176c-71 0 -136 -60 -136 -126v-76c0 -53 40 -151 128 -151c77 0 155 71 155 177z" />
    <glyph glyph-name="q" unicode="q" 
d="M536 -209c0 -21 -20 -21 -31 -21h-173c-12 0 -31 0 -31 22c0 21 20 21 31 21h61v259c-38 -42 -83 -78 -150 -78c-108 0 -200 96 -200 218c0 125 100 219 211 219c55 0 95 -25 139 -73c0 58 0 73 26 73c25 0 25 -17 25 -32v-586h61c12 0 31 0 31 -22zM393 190v41
c0 73 -51 158 -134 158c-88 0 -166 -76 -166 -177c0 -99 73 -176 155 -176c91 0 145 91 145 154z" />
    <glyph glyph-name="r" unicode="r" 
d="M484 377c0 -21 -15 -34 -33 -34c-20 0 -34 17 -34 46c-142 0 -207 -105 -207 -207v-140h125c12 0 32 0 32 -21s-20 -21 -32 -21h-269c-12 0 -31 0 -31 22c0 20 19 20 31 20h94v341h-94c-12 0 -31 0 -31 21s19 21 31 21h113c27 0 31 -8 31 -32v-63c73 83 136 101 186 101
c76 0 88 -35 88 -54z" />
    <glyph glyph-name="s" unicode="s" 
d="M455 119c0 -47 -32 -125 -186 -125c-27 0 -80 2 -140 46c-14 -44 -25 -46 -32 -46c-21 0 -21 20 -21 32v100c0 15 0 32 26 32c14 0 19 -5 23 -12c31 -97 93 -110 145 -110c103 0 143 41 143 83c0 59 -87 78 -142 87c-90 13 -195 29 -195 117c0 34 24 111 186 111
c19 0 63 0 117 -26c5 17 8 26 25 26c20 0 20 -20 20 -32v-71c0 -15 0 -32 -26 -32c-16 0 -21 6 -23 15c-5 41 -20 78 -115 78c-108 0 -142 -40 -142 -69c0 -45 76 -63 109 -68l71 -12c31 -5 157 -25 157 -124z" />
    <glyph glyph-name="t" unicode="t" 
d="M445 120c0 -86 -79 -126 -150 -126c-70 0 -135 34 -135 126v263h-102c-11 0 -31 0 -31 20c0 22 20 22 32 22h101v95c0 15 0 32 25 32s25 -18 25 -32v-95h180c12 0 31 0 31 -22c0 -20 -20 -20 -31 -20h-180v-257c0 -29 0 -90 90 -90c27 0 93 12 94 85c0 13 0 29 25 29
c26 0 26 -16 26 -30z" />
    <glyph glyph-name="u" unicode="u" 
d="M510 22c0 -22 -20 -22 -32 -22h-75c-14 0 -31 0 -32 43c-52 -39 -93 -49 -133 -49c-70 0 -136 22 -136 114v275h-57c-11 0 -31 0 -31 20c0 22 20 22 32 22h75c27 0 31 -8 31 -32v-279c0 -38 0 -78 92 -78c37 0 128 14 128 116v231h-57c-11 0 -31 0 -31 20
c0 22 20 22 32 22h75c27 0 31 -8 31 -32v-351h57c11 0 31 0 31 -20z" />
    <glyph glyph-name="v" unicode="v" 
d="M498 403c0 -20 -20 -20 -31 -20h-37l-121 -360c-9 -27 -31 -27 -47 -27c-18 0 -37 0 -47 28l-121 359h-37c-11 0 -31 0 -31 20c0 22 19 22 31 22h121c12 0 31 0 31 -22c0 -20 -20 -20 -31 -20h-43l117 -345h20l117 345h-43c-12 0 -31 0 -31 21s20 21 31 21h121
c12 0 31 0 31 -22z" />
    <glyph glyph-name="w" unicode="w" 
d="M506 404c0 -21 -16 -21 -49 -21l-64 -356c-3 -18 -7 -31 -37 -31c-9 0 -27 0 -37 12l-51 197h-6l-48 -181c-6 -24 -18 -28 -43 -28c-33 0 -37 12 -40 31l-64 356c-33 0 -49 0 -49 21s19 21 33 21h119c14 0 33 0 33 -22c0 -20 -19 -20 -33 -20h-59l60 -345h6l55 192
c5 17 24 17 32 17c28 0 33 -10 35 -18l49 -191h6l59 345h-59c-14 0 -33 0 -33 21s19 21 33 21h119c13 0 33 0 33 -21z" />
    <glyph glyph-name="x" unicode="x" 
d="M494 21c0 -21 -22 -21 -32 -21h-121c-12 0 -31 0 -31 21s19 21 61 21l-112 152l-109 -152c45 0 63 0 63 -21s-19 -21 -31 -21h-121c-10 0 -32 0 -32 21s21 21 32 21h47l131 177l-125 164h-46c-11 0 -32 0 -32 20c0 22 20 22 32 22h121c11 0 31 0 31 -21s-19 -21 -60 -21
l99 -134l97 134c-42 0 -61 0 -61 21s20 21 31 21h121c11 0 32 0 32 -22c0 -20 -21 -20 -32 -20h-46l-121 -164l135 -177h47c11 0 32 0 32 -21z" />
    <glyph glyph-name="y" unicode="y" 
d="M498 403c0 -20 -20 -20 -31 -20h-38l-162 -478c-4 -11 -53 -141 -146 -141c-44 0 -75 37 -75 75c0 20 13 35 35 35c20 0 34 -14 34 -34c0 -11 -6 -20 -6 -20s6 -13 12 -13c30 0 54 4 86 65c14 26 42 115 42 115c1 3 -155 396 -155 396h-35c-11 0 -31 0 -31 20
c0 22 19 22 31 22h121c12 0 31 0 31 -22c0 -20 -20 -20 -31 -20h-41l132 -348l115 348h-40c-12 0 -31 0 -31 21s20 21 31 21h121c12 0 31 0 31 -22z" />
    <glyph glyph-name="z" unicode="z" 
d="M472 32c0 -11 0 -27 -14 -32h-390c-15 0 -32 0 -32 25c0 14 1 17 19 34l341 324h-293v-38c0 -15 0 -32 -26 -32c-25 0 -25 18 -25 32v48c0 26 6 32 32 32h352c14 0 32 0 32 -25c0 -14 -2 -17 -20 -34l-341 -324h314v50c0 15 0 32 26 32c25 0 25 -18 25 -32v-60z" />
    <glyph glyph-name="braceleft" unicode="{" 
d="M464 -64c0 -22 -20 -22 -34 -22c-47 0 -102 7 -144 30c-49 27 -49 70 -49 98v172c-2 61 -122 69 -157 71c-9 0 -20 4 -20 21c0 16 13 21 17 21c25 0 78 1 117 17c42 19 43 36 43 79c0 0 0 172 1 178c17 86 124 96 192 96c14 0 34 0 34 -22c0 -16 -13 -21 -17 -21
c-39 0 -135 -5 -155 -47c-4 -9 -4 -216 -4 -216c-1 -23 -16 -54 -71 -86c68 -37 71 -76 71 -99v-167c0 -35 0 -79 155 -83c8 0 21 -3 21 -20z" />
    <glyph glyph-name="bar" unicode="|" 
d="M288 -48c0 -9 0 -38 -26 -38s-26 29 -26 38v707c0 9 0 38 26 38s26 -29 26 -38v-707z" />
    <glyph glyph-name="braceright" unicode="}" 
d="M464 305c0 -16 -13 -21 -17 -21c-26 0 -77 -1 -116 -17c-42 -19 -43 -36 -43 -79c0 0 0 -172 -1 -178c-15 -79 -109 -96 -194 -96c-12 0 -33 0 -33 22c0 16 13 21 17 21c160 2 160 47 160 79v184c0 4 3 47 71 86c-57 31 -71 61 -71 98v167c0 37 0 81 -153 83
c-10 0 -24 3 -24 21c0 22 21 22 33 22c35 0 98 -4 146 -30c49 -27 49 -70 49 -96v-173c2 -63 123 -70 157 -72c8 0 19 -4 19 -21z" />
    <glyph glyph-name="asciitilde" unicode="~" 
d="M434 334c0 -13 -29 -35 -47 -48c-22 -16 -48 -32 -74 -32c-20 0 -35 8 -47 18c-32 29 -42 39 -55 39c-15 0 -45 -17 -79 -49c-5 -4 -10 -8 -18 -8c-11 0 -22 11 -22 22c0 14 29 35 47 49c22 16 49 32 74 32c20 0 35 -9 47 -18c32 -29 42 -39 55 -39c15 0 45 17 79 48
c5 5 10 9 18 9c11 0 22 -11 22 -23z" />
    <glyph glyph-name="uni00A0" unicode="&#xa0;" 
 />
    <glyph glyph-name="exclamdown" unicode="&#xa1;" 
d="M303 340c0 -23 -18 -41 -41 -41s-41 18 -41 41s18 41 41 41s41 -18 41 -41zM303 -192c0 -45 -33 -49 -41 -49s-41 4 -41 49l9 344c2 32 4 39 32 39c9 0 30 0 31 -16z" />
    <glyph glyph-name="cent" unicode="&#xa2;" 
d="M463 102c0 -15 -31 -96 -151 -108v-68c0 -12 -10 -22 -22 -22s-22 10 -22 22v69c-115 19 -191 110 -191 218c0 78 48 195 191 219v67c0 12 10 22 22 22s22 -10 22 -22v-65c56 -1 138 -3 138 -65c0 -23 -17 -37 -36 -37c-20 0 -34 12 -35 40c0 9 -31 20 -67 20v-356
c76 10 94 55 102 74c6 10 13 11 23 11c4 0 26 0 26 -19zM268 39v351c-117 -30 -140 -131 -140 -177c0 -84 55 -150 140 -174z" />
    <glyph glyph-name="sterling" unicode="&#xa3;" 
d="M505 139c0 -76 -38 -150 -107 -150c-44 0 -93 36 -144 74c-31 -51 -87 -74 -145 -74c-49 0 -89 37 -89 85c0 56 60 87 120 87c17 0 32 -4 66 -17c-14 51 -35 94 -55 136h-74c-14 0 -26 11 -26 26c0 14 12 26 26 26h48c-16 42 -24 71 -24 103c0 97 78 176 175 176
c93 0 175 -66 175 -155c0 -19 -16 -35 -35 -35s-35 16 -35 35c0 10 4 18 14 29c-19 48 -68 74 -119 74c-68 0 -124 -56 -124 -124c0 -34 9 -66 23 -103h174c14 0 26 -12 26 -26c0 -15 -12 -26 -26 -26h-149c32 -65 59 -118 61 -176c45 -34 85 -64 137 -64c42 0 55 50 55 99
c0 14 12 25 26 25c15 0 26 -11 26 -25zM210 91c-28 13 -48 19 -70 19c-33 0 -68 -7 -68 -36c0 -18 17 -34 37 -34c42 0 85 13 101 51z" />
    <glyph glyph-name="currency" unicode="&#xa4;" 
d="M419 149c-17 -17 -38 2 -45 8l-30 31c-29 -18 -54 -26 -81 -26c-28 0 -54 8 -82 26l-29 -30c-8 -6 -28 -24 -44 -10c-19 18 0 40 6 48l30 29c-17 28 -25 54 -25 81s8 53 25 81l-31 31c-6 7 -25 28 -8 45s38 -2 45 -8l31 -31c28 18 54 26 82 26c27 0 52 -8 81 -26l29 30
c7 6 27 24 43 10c19 -18 0 -40 -6 -47l-30 -29c18 -29 26 -54 26 -82s-8 -53 -26 -82l31 -30c6 -7 25 -28 8 -45zM354 306c0 50 -41 92 -91 92c-51 0 -92 -42 -92 -92s41 -92 92 -92c50 0 91 42 91 92z" />
    <glyph glyph-name="yen" unicode="&#xa5;" 
d="M503 589c0 -20 -20 -20 -31 -20h-28l-75 -157h56c14 0 26 -11 26 -25c0 -15 -12 -26 -26 -26h-82l-52 -110h134c14 0 26 -11 26 -26c0 -14 -12 -25 -26 -25h-137v-158h36c12 0 31 0 31 -21s-20 -21 -31 -21h-123c-12 0 -31 0 -31 22c0 20 20 20 31 20h36v158h-137
c-14 0 -26 11 -26 25c0 15 12 26 26 26h134l-53 110h-81c-14 0 -26 11 -26 26c0 14 12 25 26 25h55l-75 157h-28c-12 0 -31 0 -31 21s20 21 31 21h108c11 0 31 0 31 -21s-19 -21 -54 -21l74 -157h106l69 157c-34 0 -53 0 -53 21s20 21 31 21h108c12 0 31 0 31 -22zM295 361
h-60l28 -79z" />
    <glyph glyph-name="brokenbar" unicode="&#xa6;" 
d="M288 410c0 -13 -12 -21 -26 -21s-26 8 -26 21v249c0 9 0 38 26 38s26 -29 26 -38v-249zM288 -48c0 -9 0 -38 -26 -38s-26 29 -26 38v249c0 13 12 21 26 21s26 -8 26 -21v-249z" />
    <glyph glyph-name="section" unicode="&#xa7;" 
d="M499 194c0 -50 -32 -91 -75 -106c14 -19 23 -42 23 -67c0 -87 -89 -143 -184 -143c-93 0 -184 44 -184 127c0 20 16 36 36 36s36 -16 36 -36c0 -11 -5 -21 -13 -28c18 -34 73 -47 125 -47c67 0 132 32 132 91c0 53 -58 77 -111 93l-109 33c-78 24 -148 80 -148 159
c0 49 32 90 75 106c-14 19 -23 41 -23 67c0 87 89 143 184 143c93 0 184 -44 184 -127c0 -20 -16 -36 -36 -36s-36 16 -36 36c0 11 5 21 13 28c-18 34 -73 47 -125 47c-67 0 -132 -32 -132 -91c0 -53 58 -77 111 -93l109 -33c78 -24 148 -80 148 -159zM447 194
c0 56 -54 92 -111 109l-109 33c-28 9 -56 21 -80 36c-36 2 -68 -28 -68 -66c0 -56 54 -92 111 -109l109 -33c28 -9 56 -21 80 -36c36 -2 68 28 68 66z" />
    <glyph glyph-name="dieresis" unicode="&#xa8;" 
d="M213 563c0 -20 -16 -36 -36 -36s-36 16 -36 36c0 21 16 37 36 37s36 -16 36 -37zM384 563c0 -20 -16 -36 -36 -36s-36 16 -36 36c0 21 16 37 36 37s36 -16 36 -37z" />
    <glyph glyph-name="copyright" unicode="&#xa9;" 
d="M524 262c0 -145 -118 -262 -261 -262c-144 0 -262 117 -262 262c0 143 118 260 262 260c143 0 261 -117 261 -260zM505 262c0 132 -109 241 -242 241c-134 0 -243 -109 -243 -241c0 -134 109 -243 243 -243c133 0 242 109 242 243zM379 175c0 -52 -51 -104 -119 -104
c-78 0 -144 80 -144 190s66 190 144 190c30 0 57 -11 82 -33c11 21 12 23 12 26c3 3 6 7 12 7c13 0 13 -12 13 -19v-86c0 -10 0 -19 -16 -19c-12 0 -13 7 -15 15c-9 54 -46 84 -86 84c-58 0 -116 -68 -116 -165s58 -165 117 -165c27 0 81 16 85 82c2 12 12 12 15 12
c5 0 16 0 16 -15z" />
    <glyph glyph-name="ordfeminine" unicode="&#xaa;" 
d="M422 337c0 -12 -12 -12 -26 -12c-24 0 -57 0 -75 27c-41 -27 -83 -32 -109 -32c-67 0 -109 41 -109 87c0 66 86 96 217 98c0 68 -41 94 -102 94h-27c-25 -4 -25 -8 -25 -19c-1 -18 -14 -23 -22 -23c-12 0 -22 8 -22 23c0 42 67 42 94 42c97 0 134 -54 134 -101v-164
c12 -5 21 -9 54 -9c6 0 18 0 18 -11zM390 256c0 -7 -10 -11 -22 -11h-211c-12 0 -22 4 -22 11c0 8 10 13 22 13h211c12 0 22 -5 22 -13zM320 411v72c-123 -4 -187 -38 -187 -76c0 -33 32 -63 85 -63c5 0 40 0 68 14c34 15 34 33 34 53z" />
    <glyph glyph-name="guillemotleft" unicode="&#xab;" 
d="M475 106c0 -14 -5 -22 -12 -22c-4 0 -6 1 -12 7l-225 194c-5 4 -8 12 -8 21c0 12 6 19 11 23l222 192c6 6 8 7 12 7c7 0 12 -8 12 -22c0 -13 -7 -19 -12 -24l-203 -176l203 -176c5 -5 12 -11 12 -24zM307 106c0 -14 -5 -22 -12 -22c-3 0 -5 1 -12 7l-225 194
c-4 4 -8 12 -8 21c0 12 6 19 11 23l222 192c7 6 9 7 12 7c7 0 12 -8 12 -22c0 -13 -6 -19 -11 -24l-204 -176l204 -176c5 -5 11 -11 11 -24z" />
    <glyph glyph-name="logicalnot" unicode="&#xac;" 
d="M483 227c0 -14 -12 -25 -26 -25s-25 11 -25 25v132h-365c-14 0 -26 12 -26 26s12 25 26 25h390c14 0 26 -11 26 -25v-158z" />
    <glyph glyph-name="uni00AD" unicode="&#xad;" 
d="M465 306c0 -26 -29 -26 -39 -26h-328c-10 0 -39 0 -39 26s29 26 39 26h328c10 0 39 0 39 -26z" />
    <glyph glyph-name="registered" unicode="&#xae;" 
d="M524 262c0 -145 -118 -262 -261 -262c-144 0 -262 117 -262 262c0 143 118 260 262 260c143 0 261 -117 261 -260zM505 262c0 132 -109 241 -242 241c-134 0 -243 -109 -243 -241c0 -134 109 -243 243 -243c133 0 242 109 242 243zM426 133c0 -21 -12 -59 -47 -59
c-18 0 -33 8 -43 23c-12 21 -12 40 -12 78c0 28 0 43 -15 58c-22 18 -42 18 -55 18h-55v-145h22c7 0 19 0 19 -12c0 -13 -12 -13 -19 -13h-74c-6 0 -18 0 -18 13c0 12 11 12 18 12h22v316h-22c-6 0 -18 0 -18 12c0 14 11 14 18 14h110c69 0 114 -48 114 -98
c0 -24 -11 -60 -57 -86c15 -12 28 -24 36 -41c5 -13 5 -18 5 -56c0 -37 4 -67 23 -67c14 0 18 27 18 34c1 12 11 12 15 12c5 0 15 0 15 -13zM341 350c0 32 -29 72 -91 72h-51v-145h51c62 0 91 40 91 73z" />
    <glyph glyph-name="macron" unicode="&#xaf;" 
d="M448 563c0 -21 -19 -21 -31 -21h-307c-13 0 -32 0 -32 22s19 22 31 22h308c13 0 31 0 31 -23z" />
    <glyph glyph-name="degree" unicode="&#xb0;" 
d="M336 546c0 -35 -25 -74 -76 -74c-46 0 -70 42 -70 73c0 35 27 76 74 76c40 0 72 -42 72 -75zM298 546c0 19 -15 35 -34 35c-20 0 -36 -16 -36 -36c0 -21 19 -33 35 -33c20 0 35 14 35 34z" />
    <glyph glyph-name="plusminus" unicode="&#xb1;" 
d="M483 26c0 -26 -29 -26 -38 -26h-366c-9 0 -38 0 -38 26s29 26 38 26h157v144h-157c-9 0 -38 0 -38 26s29 26 38 26h157v158c0 10 0 39 26 39s26 -29 26 -39v-158h157c9 0 38 0 38 -26s-29 -26 -38 -26h-157v-144h157c9 0 38 0 38 -26z" />
    <glyph glyph-name="two.superior" unicode="&#xb2;" 
d="M360 332c0 -7 0 -17 -11 -20h-174c-7 0 -21 0 -21 14c0 6 2 8 7 12l110 96c27 23 57 53 57 92c0 44 -38 68 -80 68c-29 0 -52 -17 -59 -44c2 -2 6 -5 6 -14c0 -14 -11 -21 -20 -21c-3 0 -21 2 -21 23c0 42 39 85 97 85c62 0 109 -40 109 -97c0 -55 -50 -98 -57 -104
l-96 -81h121c0 12 0 22 16 22s16 -11 16 -20v-11z" />
    <glyph glyph-name="three.superior" unicode="&#xb3;" 
d="M364 398c0 -47 -42 -92 -105 -92c-61 0 -109 32 -109 75c0 16 10 22 21 22c12 0 20 -9 20 -20c0 -4 -2 -8 -4 -12l-1 -2c0 -7 23 -34 73 -34c44 0 73 31 73 64c0 27 -23 63 -75 63h-23c-9 0 -19 0 -19 15c0 7 2 13 12 14c0 0 10 1 29 2c52 4 62 45 62 60
c0 23 -25 41 -59 41c-9 0 -43 -1 -58 -20c0 0 4 -5 4 -13c0 -13 -11 -20 -20 -20c-8 0 -21 5 -21 21c0 37 39 61 95 61c54 0 91 -32 91 -70c0 -26 -13 -56 -44 -75c44 -19 58 -54 58 -80z" />
    <glyph glyph-name="acute" unicode="&#xb4;" 
d="M362 597c0 -9 -4 -19 -23 -27l-144 -64c-2 -1 -7 -1 -7 -1c-20 0 -24 24 -24 31c0 12 9 16 19 20l138 62c9 4 15 4 15 4c15 0 26 -11 26 -25z" />
    <glyph glyph-name="uni00B5" unicode="&#xb5;" 
d="M510 22c0 -22 -20 -22 -32 -22h-75c-14 0 -31 0 -32 43c-52 -39 -93 -49 -133 -49c-31 0 -62 4 -86 18v-200h56c12 0 32 0 32 -21s-20 -21 -31 -21h-164c-11 0 -31 0 -31 21s20 21 32 21h56v571h-57c-11 0 -31 0 -31 20c0 22 20 22 32 22h75c27 0 31 -8 31 -32v-279
c0 -38 0 -78 92 -78c37 0 128 14 128 116v231h-57c-11 0 -31 0 -31 20c0 22 20 22 32 22h75c27 0 31 -8 31 -32v-351h57c11 0 31 0 31 -20z" />
    <glyph glyph-name="paragraph" unicode="&#xb6;" 
d="M498 686c0 -10 -11 -10 -19 -10h-54v-853c0 -9 -6 -24 -13 -24c-8 0 -14 15 -14 24v853h-71v-853c0 -9 -6 -24 -13 -24s-13 15 -13 24v414c-119 6 -250 76 -250 231c0 125 94 229 212 229h216c8 0 19 0 19 -11z" />
    <glyph glyph-name="periodcentered" unicode="&#xb7;" 
d="M317 305c0 -27 -22 -54 -55 -54c-28 0 -54 23 -54 55c0 27 22 54 55 54c28 0 54 -23 54 -55z" />
    <glyph glyph-name="cedilla" unicode="&#xb8;" 
d="M423 -120c0 -95 -139 -95 -232 -95c-11 0 -22 6 -22 22c0 21 20 21 52 21c42 0 152 7 152 52c0 24 -26 49 -79 52c-24 1 -24 17 -24 33v28c0 15 0 33 26 33c25 0 25 -16 25 -54c75 -15 102 -55 102 -92z" />
    <glyph glyph-name="one.superior" unicode="&#xb9;" 
d="M339 326c0 -14 -13 -14 -20 -14h-121c-7 0 -20 0 -20 14c0 15 13 15 20 15h44v214s-23 -22 -51 -22c-11 0 -16 6 -16 15c0 13 11 14 18 14c27 2 43 29 53 50c3 7 6 11 14 11c15 0 15 -13 15 -20v-262h44c7 0 20 0 20 -15z" />
    <glyph glyph-name="ordmasculine" unicode="&#xba;" 
d="M401 470c0 -84 -65 -150 -138 -150c-74 0 -139 65 -139 150s63 152 139 152c75 0 138 -67 138 -152zM368 256c0 -7 -10 -11 -21 -11h-169c-11 0 -21 4 -21 11c0 8 10 13 21 13h169c11 0 21 -5 21 -13zM372 476c0 72 -52 123 -109 123s-110 -51 -110 -123
c0 -74 51 -132 110 -132c58 0 109 58 109 132z" />
    <glyph glyph-name="guillemotright" unicode="&#xbb;" 
d="M474 306c0 -9 -4 -17 -8 -21l-225 -194c-7 -6 -9 -7 -12 -7c-7 0 -13 8 -13 22c0 13 7 19 12 24l204 176l-204 176c-5 5 -12 11 -12 24c0 14 6 22 13 22c3 0 5 -1 12 -7l222 -192c4 -4 11 -11 11 -23zM306 306c0 -9 -3 -17 -8 -21l-225 -194c-6 -6 -8 -7 -12 -7
c-7 0 -12 8 -12 22c0 13 6 19 12 24l203 176l-203 176c-6 5 -12 11 -12 24c0 14 5 22 12 22c4 0 6 -1 12 -7l222 -192c5 -4 11 -11 11 -23z" />
    <glyph glyph-name="onequarter" unicode="&#xbc;" 
d="M190 326c0 -14 -13 -14 -20 -14h-121c-7 0 -20 0 -20 14c0 15 13 15 20 15h44v214s-23 -22 -51 -22c-11 0 -16 6 -16 15c0 13 11 14 18 14c27 2 43 29 53 50c3 7 6 11 14 11c15 0 15 -13 15 -20v-262h44c7 0 20 0 20 -15zM489 99c0 -15 -13 -15 -20 -15h-38v-55h30
c7 0 20 0 20 -14c0 -15 -13 -15 -20 -15h-88c-7 0 -20 0 -20 15c0 14 13 14 20 14h30v55h-122c-14 0 -20 2 -20 20c0 9 0 10 4 16l114 183c6 9 8 10 20 10h12c17 0 20 -4 20 -21v-179h38c7 0 20 0 20 -14zM463 609c0 -4 -5 -16 -7 -19l-326 -592c-5 -8 -10 -14 -19 -14
c-13 0 -15 7 -15 22c0 4 6 11 7 14l327 593c5 8 13 14 22 14s11 -12 11 -18zM403 113v175l-109 -175h109z" />
    <glyph glyph-name="onehalf" unicode="&#xbd;" 
d="M190 326c0 -14 -13 -14 -20 -14h-121c-7 0 -20 0 -20 14c0 15 13 15 20 15h44v214s-23 -22 -51 -22c-11 0 -16 6 -16 15c0 13 11 14 18 14c27 2 43 29 53 50c3 7 6 11 14 11c15 0 15 -13 15 -20v-262h44c7 0 20 0 20 -15zM499 21c0 -16 -3 -21 -20 -21h-169
c-8 0 -21 0 -21 16c0 7 3 9 8 13l110 93c33 28 58 57 58 92c0 44 -39 67 -80 67c-27 0 -51 -16 -58 -39c4 -3 7 -10 7 -16c0 -14 -12 -22 -22 -22c-9 0 -23 5 -23 24c0 42 40 83 99 83c61 0 111 -37 111 -97c0 -40 -23 -72 -54 -100c-22 -20 -70 -58 -99 -83h119
c0 14 0 23 17 23s17 -11 17 -20v-13zM435 609c0 -4 -5 -16 -7 -19l-326 -592c-5 -8 -10 -14 -19 -14c-13 0 -15 7 -15 22c0 4 6 11 7 14l327 593c5 8 13 14 22 14s11 -12 11 -18z" />
    <glyph glyph-name="threequarters" unicode="&#xbe;" 
d="M236 398c0 -47 -43 -92 -106 -92c-61 0 -108 32 -108 75c0 16 10 22 20 22c12 0 20 -9 20 -20c0 -4 -1 -8 -3 -12l-1 -2c0 -7 22 -34 72 -34c44 0 73 31 73 64c0 27 -23 63 -75 63h-23c-8 0 -19 0 -19 15c0 7 3 13 13 14l28 2c53 4 62 45 62 60c0 23 -25 41 -59 41
c-8 0 -43 -1 -58 -20c0 0 4 -5 4 -13c0 -13 -11 -20 -20 -20c-8 0 -20 5 -20 21c0 37 39 61 94 61c54 0 92 -32 92 -70c0 -26 -14 -56 -44 -75c44 -19 58 -54 58 -80zM489 99c0 -15 -13 -15 -20 -15h-38v-55h30c7 0 20 0 20 -14c0 -15 -13 -15 -20 -15h-88
c-7 0 -20 0 -20 15c0 14 13 14 20 14h30v55h-122c-14 0 -20 2 -20 20c0 9 0 10 4 16l114 183c6 9 8 10 20 10h12c17 0 20 -4 20 -21v-179h38c7 0 20 0 20 -14zM403 113v175l-109 -175h109zM463 609c0 -4 -5 -16 -7 -19l-326 -592c-5 -8 -10 -14 -19 -14c-13 0 -15 7 -15 22
c0 4 6 11 7 14l327 593c5 8 13 14 22 14s11 -12 11 -18z" />
    <glyph glyph-name="questiondown" unicode="&#xbf;" 
d="M288 340c0 -23 -18 -41 -42 -41c-23 0 -41 18 -41 41s18 41 41 41c24 0 42 -18 42 -41zM458 -120c0 -116 -179 -116 -210 -116c-173 0 -182 95 -182 118c0 53 40 81 56 93c89 60 93 132 93 167v17c0 28 8 32 31 32c31 0 31 -11 31 -43c0 -40 0 -124 -124 -208
c-15 -9 -37 -25 -37 -58c0 -72 110 -75 133 -75c17 0 107 1 151 45c-12 13 -13 22 -13 30c0 23 18 36 35 36s36 -12 36 -38z" />
    <glyph glyph-name="Agrave" unicode="&#xc0;" 
d="M495 21c0 -21 -22 -21 -35 -21h-105c-14 0 -33 0 -33 21s18 21 60 21l-28 129h-184l-28 -129c42 0 60 0 60 -21s-19 -21 -33 -21h-106c-12 0 -34 0 -34 21c0 9 4 16 12 20c6 1 27 1 48 1l127 550c8 31 22 31 46 31c26 0 38 0 46 -32l127 -549c21 0 41 0 47 -1
c10 -4 13 -11 13 -20zM343 213l-77 368h-7l-78 -368h162zM361 704c0 -6 -4 -31 -24 -31c0 0 -5 1 -7 2l-144 64c-19 8 -23 18 -23 26c0 15 11 26 26 26c0 0 6 0 15 -4l138 -62c10 -5 19 -9 19 -21z" />
    <glyph glyph-name="Aacute" unicode="&#xc1;" 
d="M495 21c0 -21 -22 -21 -35 -21h-105c-14 0 -33 0 -33 21s18 21 60 21l-28 129h-184l-28 -129c42 0 60 0 60 -21s-19 -21 -33 -21h-106c-12 0 -34 0 -34 21c0 9 4 16 12 20c6 1 27 1 48 1l127 550c8 31 22 31 46 31c26 0 38 0 46 -32l127 -549c21 0 41 0 47 -1
c10 -4 13 -11 13 -20zM343 213l-77 368h-7l-78 -368h162zM362 765c0 -8 -4 -18 -23 -26l-144 -64c-2 -1 -7 -2 -7 -2c-20 0 -24 25 -24 31c0 12 9 16 19 21l138 62c9 4 15 4 15 4c15 0 26 -11 26 -26z" />
    <glyph glyph-name="Acircumflex" unicode="&#xc2;" 
d="M495 21c0 -21 -22 -21 -35 -21h-105c-14 0 -33 0 -33 21s18 21 60 21l-28 129h-184l-28 -129c42 0 60 0 60 -21s-19 -21 -33 -21h-106c-12 0 -34 0 -34 21c0 9 4 16 12 20c6 1 27 1 48 1l127 550c8 31 22 31 46 31c26 0 38 0 46 -32l127 -549c21 0 41 0 47 -1
c10 -4 13 -11 13 -20zM343 213l-77 368h-7l-78 -368h162zM405 685c0 -12 -7 -22 -24 -22c-6 0 -20 4 -30 7l-89 30l-89 -30c-10 -3 -24 -7 -30 -7c-17 0 -24 10 -24 22c0 8 9 17 22 22l109 40c9 3 17 3 26 0l107 -40c13 -5 22 -14 22 -22z" />
    <glyph glyph-name="Atilde" unicode="&#xc3;" 
d="M495 21c0 -21 -22 -21 -35 -21h-105c-14 0 -33 0 -33 21s18 21 60 21l-28 129h-184l-28 -129c42 0 60 0 60 -21s-19 -21 -33 -21h-106c-12 0 -34 0 -34 21c0 9 4 16 12 20c6 1 27 1 48 1l127 550c8 31 22 31 46 31c26 0 38 0 46 -32l127 -549c21 0 41 0 47 -1
c10 -4 13 -11 13 -20zM343 213l-77 368h-7l-78 -368h162zM434 743c0 -13 -29 -35 -47 -48c-22 -17 -48 -32 -74 -32c-20 0 -35 8 -47 18c-32 29 -42 38 -55 38c-15 0 -45 -16 -79 -48c-5 -4 -10 -8 -18 -8c-11 0 -22 11 -22 22c0 14 29 35 47 49c22 16 49 32 74 32
c20 0 35 -9 47 -18c32 -29 42 -39 55 -39c15 0 45 17 79 48c5 5 10 9 18 9c11 0 22 -11 22 -23z" />
    <glyph glyph-name="Adieresis" unicode="&#xc4;" 
d="M495 21c0 -21 -22 -21 -35 -21h-105c-14 0 -33 0 -33 21s18 21 60 21l-28 129h-184l-28 -129c42 0 60 0 60 -21s-19 -21 -33 -21h-106c-12 0 -34 0 -34 21c0 9 4 16 12 20c6 1 27 1 48 1l127 550c8 31 22 31 46 31c26 0 38 0 46 -32l127 -549c21 0 41 0 47 -1
c10 -4 13 -11 13 -20zM343 213l-77 368h-7l-78 -368h162zM198 699c0 -20 -16 -36 -36 -36s-36 16 -36 36c0 21 16 36 36 36s36 -15 36 -36zM399 699c0 -20 -16 -36 -36 -36s-36 16 -36 36c0 21 16 36 36 36s36 -15 36 -36z" />
    <glyph glyph-name="Aring" unicode="&#xc5;" 
d="M495 21c0 -21 -22 -21 -35 -21h-105c-14 0 -33 0 -33 21s18 21 60 21l-28 129h-184l-28 -129c42 0 60 0 60 -21s-19 -21 -33 -21h-106c-12 0 -34 0 -34 21c0 9 4 16 12 20c6 1 27 1 48 1l127 550c8 31 22 31 46 31c26 0 38 0 46 -32l127 -549c21 0 41 0 47 -1
c10 -4 13 -11 13 -20zM343 213l-77 368h-7l-78 -368h162zM315 694c0 23 -25 36 -52 36s-52 -13 -52 -36c0 -22 25 -34 52 -34s52 12 52 34zM365 694c0 -38 -43 -71 -102 -71s-102 33 -102 71c0 39 43 73 102 73s102 -34 102 -73z" />
    <glyph glyph-name="AE" unicode="&#xc6;" 
d="M497 32c0 -25 -6 -32 -31 -32h-201c-12 0 -32 0 -32 22c0 20 21 20 41 20v147h-133l-30 -147c30 0 50 0 50 -21s-20 -21 -31 -21h-74c-11 0 -31 0 -31 21s19 21 48 21l107 527c-25 0 -44 0 -44 21s20 21 31 21h290c27 0 31 -8 31 -32v-76c0 -10 0 -32 -18 -32
c-19 0 -19 22 -19 32v66h-139v-231h129c12 0 31 0 31 -22c0 -20 -20 -20 -31 -20h-129v-254h147v82c0 11 0 32 19 32s19 -21 19 -32v-92zM274 232v337h-57l-68 -337h125z" />
    <glyph glyph-name="Ccedilla" unicode="&#xc7;" 
d="M481 163c0 -100 -98 -161 -147 -168v-24s103 -10 103 -91c0 -95 -140 -95 -233 -95c-10 0 -22 6 -22 22c0 21 21 21 52 21c43 0 152 7 152 52c0 24 -26 49 -79 52c-23 1 -23 17 -23 33v23c-136 7 -241 139 -241 318c0 182 110 316 239 316c50 0 95 -19 137 -55
c19 35 20 39 21 43c4 5 10 12 20 12c21 0 21 -20 21 -32v-143c0 -16 0 -32 -26 -32c-21 0 -23 12 -26 25c-15 90 -77 140 -143 140c-96 0 -193 -113 -193 -274c0 -162 96 -275 194 -275c45 0 136 27 143 136c2 20 19 20 25 20c8 0 26 0 26 -24z" />
    <glyph glyph-name="Egrave" unicode="&#xc8;" 
d="M500 32c0 -25 -6 -32 -31 -32h-409c-11 0 -32 0 -32 21s20 21 32 21h42v527h-42c-11 0 -32 0 -32 21s21 21 32 21h386c26 0 31 -8 31 -32v-76c0 -15 0 -32 -26 -32c-25 0 -25 18 -25 32v66h-274v-231h157c0 44 0 59 25 59s25 -18 25 -32v-96c0 -15 0 -32 -25 -32
s-25 15 -25 59h-157v-254h297v82c0 15 0 32 26 32c25 0 25 -17 25 -32v-92zM361 704c0 -6 -4 -31 -24 -31c0 0 -5 1 -7 2l-144 64c-19 8 -23 18 -23 26c0 15 11 26 26 26c0 0 6 0 15 -4l138 -62c10 -5 19 -9 19 -21z" />
    <glyph glyph-name="Eacute" unicode="&#xc9;" 
d="M500 32c0 -25 -6 -32 -31 -32h-409c-11 0 -32 0 -32 21s20 21 32 21h42v527h-42c-11 0 -32 0 -32 21s21 21 32 21h386c26 0 31 -8 31 -32v-76c0 -15 0 -32 -26 -32c-25 0 -25 18 -25 32v66h-274v-231h157c0 44 0 59 25 59s25 -18 25 -32v-96c0 -15 0 -32 -25 -32
s-25 15 -25 59h-157v-254h297v82c0 15 0 32 26 32c25 0 25 -17 25 -32v-92zM362 765c0 -8 -4 -18 -23 -26l-144 -64c-2 -1 -7 -2 -7 -2c-20 0 -24 25 -24 31c0 12 9 16 19 21l138 62c9 4 15 4 15 4c15 0 26 -11 26 -26z" />
    <glyph glyph-name="Ecircumflex" unicode="&#xca;" 
d="M500 32c0 -25 -6 -32 -31 -32h-409c-11 0 -32 0 -32 21s20 21 32 21h42v527h-42c-11 0 -32 0 -32 21s21 21 32 21h386c26 0 31 -8 31 -32v-76c0 -15 0 -32 -26 -32c-25 0 -25 18 -25 32v66h-274v-231h157c0 44 0 59 25 59s25 -18 25 -32v-96c0 -15 0 -32 -25 -32
s-25 15 -25 59h-157v-254h297v82c0 15 0 32 26 32c25 0 25 -17 25 -32v-92zM405 685c0 -12 -7 -22 -24 -22c-6 0 -20 4 -30 7l-89 30l-89 -30c-10 -3 -24 -7 -30 -7c-17 0 -24 10 -24 22c0 8 9 17 22 22l109 40c9 3 17 3 26 0l107 -40c13 -5 22 -14 22 -22z" />
    <glyph glyph-name="Edieresis" unicode="&#xcb;" 
d="M500 32c0 -25 -6 -32 -31 -32h-409c-11 0 -32 0 -32 21s20 21 32 21h42v527h-42c-11 0 -32 0 -32 21s21 21 32 21h386c26 0 31 -8 31 -32v-76c0 -15 0 -32 -26 -32c-25 0 -25 18 -25 32v66h-274v-231h157c0 44 0 59 25 59s25 -18 25 -32v-96c0 -15 0 -32 -25 -32
s-25 15 -25 59h-157v-254h297v82c0 15 0 32 26 32c25 0 25 -17 25 -32v-92zM198 699c0 -20 -16 -36 -36 -36s-36 16 -36 36c0 21 16 36 36 36s36 -15 36 -36zM399 699c0 -20 -16 -36 -36 -36s-36 16 -36 36c0 21 16 36 36 36s36 -15 36 -36z" />
    <glyph glyph-name="Igrave" unicode="&#xcc;" 
d="M442 21c0 -21 -21 -21 -32 -21h-295c-11 0 -32 0 -32 22c0 20 21 20 32 20h122v527h-122c-11 0 -32 0 -32 21s21 21 32 21h295c11 0 32 0 32 -22c0 -20 -21 -20 -32 -20h-122v-527h122c11 0 32 0 32 -21zM361 704c0 -6 -4 -31 -24 -31c0 0 -5 1 -7 2l-144 64
c-19 8 -23 18 -23 26c0 15 11 26 26 26c0 0 6 0 15 -4l138 -62c10 -5 19 -9 19 -21z" />
    <glyph glyph-name="Iacute" unicode="&#xcd;" 
d="M442 21c0 -21 -21 -21 -32 -21h-295c-11 0 -32 0 -32 22c0 20 21 20 32 20h122v527h-122c-11 0 -32 0 -32 21s21 21 32 21h295c11 0 32 0 32 -22c0 -20 -21 -20 -32 -20h-122v-527h122c11 0 32 0 32 -21zM362 765c0 -8 -4 -18 -23 -26l-144 -64c-2 -1 -7 -2 -7 -2
c-20 0 -24 25 -24 31c0 12 9 16 19 21l138 62c9 4 15 4 15 4c15 0 26 -11 26 -26z" />
    <glyph glyph-name="Icircumflex" unicode="&#xce;" 
d="M442 21c0 -21 -21 -21 -32 -21h-295c-11 0 -32 0 -32 22c0 20 21 20 32 20h122v527h-122c-11 0 -32 0 -32 21s21 21 32 21h295c11 0 32 0 32 -22c0 -20 -21 -20 -32 -20h-122v-527h122c11 0 32 0 32 -21zM405 685c0 -12 -7 -22 -24 -22c-6 0 -20 4 -30 7l-89 30l-89 -30
c-10 -3 -24 -7 -30 -7c-17 0 -24 10 -24 22c0 8 9 17 22 22l109 40c9 3 17 3 26 0l107 -40c13 -5 22 -14 22 -22z" />
    <glyph glyph-name="Idieresis" unicode="&#xcf;" 
d="M442 21c0 -21 -21 -21 -32 -21h-295c-11 0 -32 0 -32 22c0 20 21 20 32 20h122v527h-122c-11 0 -32 0 -32 21s21 21 32 21h295c11 0 32 0 32 -22c0 -20 -21 -20 -32 -20h-122v-527h122c11 0 32 0 32 -21zM198 699c0 -20 -16 -36 -36 -36s-36 16 -36 36c0 21 16 36 36 36
s36 -15 36 -36zM399 699c0 -20 -16 -36 -36 -36s-36 16 -36 36c0 21 16 36 36 36s36 -15 36 -36z" />
    <glyph glyph-name="Eth" unicode="&#xd0;" 
d="M482 301c0 -160 -86 -301 -216 -301h-213c-11 0 -32 0 -32 21s20 21 32 21h33v242h-39c-12 0 -22 9 -22 22c0 12 10 22 22 22h39v241h-33c-11 0 -32 0 -32 20c0 22 20 22 32 22h213c133 0 216 -151 216 -310zM432 301c0 125 -63 268 -186 268h-109v-241h71
c12 0 22 -10 22 -22c0 -13 -10 -22 -22 -22h-71v-242h109c121 0 186 132 186 259z" />
    <glyph glyph-name="Ntilde" unicode="&#xd1;" 
d="M494 589c0 -20 -20 -20 -31 -20h-37v-537c0 -30 -9 -32 -33 -32c-22 0 -38 1 -49 30l-200 539h-9v-527h36c12 0 31 0 31 -21s-20 -21 -31 -21h-110c-12 0 -31 0 -31 22c0 20 20 20 31 20h37v527h-37c-12 0 -31 0 -31 21s20 21 31 21h71c23 0 37 -2 48 -30l200 -539h9v527
h-36c-11 0 -31 0 -31 20c0 22 19 22 31 22h110c12 0 31 0 31 -22zM434 743c0 -13 -29 -35 -47 -48c-22 -17 -48 -32 -74 -32c-20 0 -35 8 -47 18c-32 29 -42 38 -55 38c-15 0 -45 -16 -79 -48c-5 -4 -10 -8 -18 -8c-11 0 -22 11 -22 22c0 14 29 35 47 49c22 16 49 32 74 32
c20 0 35 -9 47 -18c32 -29 42 -39 55 -39c15 0 45 17 79 48c5 5 10 9 18 9c11 0 22 -11 22 -23z" />
    <glyph glyph-name="Ograve" unicode="&#xd2;" 
d="M465 305c0 -288 -20 -316 -203 -316c-184 0 -203 28 -203 316c0 289 19 317 203 317s203 -29 203 -317zM414 314c0 64 0 143 -13 192c-17 62 -55 74 -139 74c-92 0 -126 -15 -140 -81c-12 -49 -12 -120 -12 -185c0 -57 0 -148 13 -202c13 -56 40 -81 139 -81
c100 0 128 25 140 88c12 56 12 130 12 195zM361 704c0 -6 -4 -31 -24 -31c0 0 -5 1 -7 2l-144 64c-19 8 -23 18 -23 26c0 15 11 26 26 26c0 0 6 0 15 -4l138 -62c10 -5 19 -9 19 -21z" />
    <glyph glyph-name="Oacute" unicode="&#xd3;" 
d="M465 305c0 -288 -20 -316 -203 -316c-184 0 -203 28 -203 316c0 289 19 317 203 317s203 -29 203 -317zM414 314c0 64 0 143 -13 192c-17 62 -55 74 -139 74c-92 0 -126 -15 -140 -81c-12 -49 -12 -120 -12 -185c0 -57 0 -148 13 -202c13 -56 40 -81 139 -81
c100 0 128 25 140 88c12 56 12 130 12 195zM362 765c0 -8 -4 -18 -23 -26l-144 -64c-2 -1 -7 -2 -7 -2c-20 0 -24 25 -24 31c0 12 9 16 19 21l138 62c9 4 15 4 15 4c15 0 26 -11 26 -26z" />
    <glyph glyph-name="Ocircumflex" unicode="&#xd4;" 
d="M465 305c0 -288 -20 -316 -203 -316c-184 0 -203 28 -203 316c0 289 19 317 203 317s203 -29 203 -317zM414 314c0 64 0 143 -13 192c-17 62 -55 74 -139 74c-92 0 -126 -15 -140 -81c-12 -49 -12 -120 -12 -185c0 -57 0 -148 13 -202c13 -56 40 -81 139 -81
c100 0 128 25 140 88c12 56 12 130 12 195zM405 685c0 -12 -7 -22 -24 -22c-6 0 -20 4 -30 7l-89 30l-89 -30c-10 -3 -24 -7 -30 -7c-17 0 -24 10 -24 22c0 8 9 17 22 22l109 40c9 3 17 3 26 0l107 -40c13 -5 22 -14 22 -22z" />
    <glyph glyph-name="Otilde" unicode="&#xd5;" 
d="M465 305c0 -288 -20 -316 -203 -316c-184 0 -203 28 -203 316c0 289 19 317 203 317s203 -29 203 -317zM414 314c0 64 0 143 -13 192c-17 62 -55 74 -139 74c-92 0 -126 -15 -140 -81c-12 -49 -12 -120 -12 -185c0 -57 0 -148 13 -202c13 -56 40 -81 139 -81
c100 0 128 25 140 88c12 56 12 130 12 195zM434 743c0 -13 -29 -35 -47 -48c-22 -17 -48 -32 -74 -32c-20 0 -35 8 -47 18c-32 29 -42 38 -55 38c-15 0 -45 -16 -79 -48c-5 -4 -10 -8 -18 -8c-11 0 -22 11 -22 22c0 14 29 35 47 49c22 16 49 32 74 32c20 0 35 -9 47 -18
c32 -29 42 -39 55 -39c15 0 45 17 79 48c5 5 10 9 18 9c11 0 22 -11 22 -23z" />
    <glyph glyph-name="Odieresis" unicode="&#xd6;" 
d="M465 305c0 -288 -20 -316 -203 -316c-184 0 -203 28 -203 316c0 289 19 317 203 317s203 -29 203 -317zM414 314c0 64 0 143 -13 192c-17 62 -55 74 -139 74c-92 0 -126 -15 -140 -81c-12 -49 -12 -120 -12 -185c0 -57 0 -148 13 -202c13 -56 40 -81 139 -81
c100 0 128 25 140 88c12 56 12 130 12 195zM198 699c0 -20 -16 -36 -36 -36s-36 16 -36 36c0 21 16 36 36 36s36 -15 36 -36zM399 699c0 -20 -16 -36 -36 -36s-36 16 -36 36c0 21 16 36 36 36s36 -15 36 -36z" />
    <glyph glyph-name="multiply" unicode="&#xd7;" 
d="M419 149c-17 -17 -38 2 -45 8l-112 113l-111 -112c-7 -6 -27 -24 -43 -10c-19 18 0 40 6 48l112 110l-113 112c-6 7 -25 28 -8 45s38 -2 45 -8l112 -113l110 112c8 6 28 24 44 10c19 -18 0 -40 -6 -47l-112 -111l113 -112c6 -7 25 -28 8 -45z" />
    <glyph glyph-name="Oslash" unicode="&#xd8;" 
d="M465 305c0 -288 -20 -316 -203 -316c-24 0 -45 0 -80 2l-18 -55c-3 -10 -7 -24 -21 -24c-3 0 -23 2 -23 21c0 0 1 8 20 66c-57 26 -68 68 -76 144c-5 49 -5 116 -5 162c0 289 19 317 203 317c23 0 45 0 80 -2l18 55c3 10 7 24 21 24c3 0 23 -2 23 -21c0 0 -1 -8 -20 -67
c73 -31 81 -101 81 -306zM427 306c0 214 -25 233 -59 259l-171 -527c10 -3 18 -6 24 -6c11 -1 14 -1 41 -1c88 0 133 10 152 77c13 50 13 134 13 198zM327 573c-10 3 -18 6 -24 6c-11 1 -14 1 -41 1c-88 0 -133 -10 -152 -77c-13 -50 -13 -134 -13 -198
c0 -214 25 -233 59 -259z" />
    <glyph glyph-name="Ugrave" unicode="&#xd9;" 
d="M518 590c0 -21 -20 -21 -32 -21h-41v-368c0 -121 -85 -212 -183 -212s-183 91 -183 212v368h-41c-12 0 -32 0 -32 21s20 21 32 21h133c11 0 32 0 32 -21s-21 -21 -32 -21h-41v-363c0 -119 73 -175 132 -175c58 0 132 56 132 175v363h-41c-11 0 -32 0 -32 21s21 21 32 21
h133c12 0 32 0 32 -21zM361 704c0 -6 -4 -31 -24 -31c0 0 -5 1 -7 2l-144 64c-19 8 -23 18 -23 26c0 15 11 26 26 26c0 0 6 0 15 -4l138 -62c10 -5 19 -9 19 -21z" />
    <glyph glyph-name="Uacute" unicode="&#xda;" 
d="M518 590c0 -21 -20 -21 -32 -21h-41v-368c0 -121 -85 -212 -183 -212s-183 91 -183 212v368h-41c-12 0 -32 0 -32 21s20 21 32 21h133c11 0 32 0 32 -21s-21 -21 -32 -21h-41v-363c0 -119 73 -175 132 -175c58 0 132 56 132 175v363h-41c-11 0 -32 0 -32 21s21 21 32 21
h133c12 0 32 0 32 -21zM362 765c0 -8 -4 -18 -23 -26l-144 -64c-2 -1 -7 -2 -7 -2c-20 0 -24 25 -24 31c0 12 9 16 19 21l138 62c9 4 15 4 15 4c15 0 26 -11 26 -26z" />
    <glyph glyph-name="Ucircumflex" unicode="&#xdb;" 
d="M518 590c0 -21 -20 -21 -32 -21h-41v-368c0 -121 -85 -212 -183 -212s-183 91 -183 212v368h-41c-12 0 -32 0 -32 21s20 21 32 21h133c11 0 32 0 32 -21s-21 -21 -32 -21h-41v-363c0 -119 73 -175 132 -175c58 0 132 56 132 175v363h-41c-11 0 -32 0 -32 21s21 21 32 21
h133c12 0 32 0 32 -21zM405 685c0 -12 -7 -22 -24 -22c-6 0 -20 4 -30 7l-89 30l-89 -30c-10 -3 -24 -7 -30 -7c-17 0 -24 10 -24 22c0 8 9 17 22 22l109 40c9 3 17 3 26 0l107 -40c13 -5 22 -14 22 -22z" />
    <glyph glyph-name="Udieresis" unicode="&#xdc;" 
d="M518 590c0 -21 -20 -21 -32 -21h-41v-368c0 -121 -85 -212 -183 -212s-183 91 -183 212v368h-41c-12 0 -32 0 -32 21s20 21 32 21h133c11 0 32 0 32 -21s-21 -21 -32 -21h-41v-363c0 -119 73 -175 132 -175c58 0 132 56 132 175v363h-41c-11 0 -32 0 -32 21s21 21 32 21
h133c12 0 32 0 32 -21zM198 699c0 -20 -16 -36 -36 -36s-36 16 -36 36c0 21 16 36 36 36s36 -15 36 -36zM399 699c0 -20 -16 -36 -36 -36s-36 16 -36 36c0 21 16 36 36 36s36 -15 36 -36z" />
    <glyph glyph-name="Yacute" unicode="&#xdd;" 
d="M503 589c0 -20 -20 -20 -31 -20h-28l-156 -325v-202h36c12 0 31 0 31 -21s-20 -21 -31 -21h-123c-12 0 -31 0 -31 22c0 20 20 20 31 20h36v202l-157 325h-28c-12 0 -31 0 -31 21s20 21 31 21h108c11 0 31 0 31 -21s-19 -21 -54 -21l126 -280l123 280c-34 0 -53 0 -53 21
s20 21 31 21h108c12 0 31 0 31 -22zM362 765c0 -8 -4 -18 -23 -26l-144 -64c-2 -1 -7 -2 -7 -2c-20 0 -24 25 -24 31c0 12 9 16 19 21l138 62c9 4 15 4 15 4c15 0 26 -11 26 -26z" />
    <glyph glyph-name="Thorn" unicode="&#xde;" 
d="M467 306c0 -91 -72 -179 -185 -179h-140v-85h36c12 0 31 0 31 -21s-20 -21 -31 -21h-123c-11 0 -31 0 -31 21s19 21 31 21h36v527h-36c-11 0 -31 0 -31 20c0 22 19 22 31 22h123c12 0 31 0 31 -22c0 -20 -20 -20 -31 -20h-36v-84h140c112 0 185 -88 185 -179zM416 306
c0 59 -47 136 -154 136h-120v-272h120c107 0 154 77 154 136z" />
    <glyph glyph-name="germandbls" unicode="&#xdf;" 
d="M493 171c0 -108 -89 -177 -179 -177c-63 0 -95 33 -95 67c0 21 15 33 32 33c10 0 19 -5 24 -12c6 -8 6 -11 6 -38c13 -6 24 -8 33 -8c59 0 128 48 128 135c0 59 -32 202 -178 211c-3 1 -16 6 -16 21c0 16 10 21 19 22c114 3 145 64 145 89c0 27 -52 61 -123 61
c-28 0 -56 -5 -81 -16c-41 -18 -41 -34 -41 -59v-468c0 -25 -5 -32 -31 -32h-86c-11 0 -31 0 -31 21s19 21 31 21h66v341h-66c-11 0 -31 0 -31 20c0 22 19 22 31 22h66v83c0 90 112 109 174 109c93 0 173 -39 173 -102c0 -29 -15 -72 -96 -116c111 -77 126 -180 126 -228z
" />
    <glyph glyph-name="agrave" unicode="&#xe0;" 
d="M513 22c0 -22 -20 -22 -42 -22c-36 0 -83 0 -109 37c-55 -36 -117 -43 -153 -43c-99 0 -161 61 -161 128c0 95 125 141 310 144c0 90 -57 126 -142 126c-31 0 -69 -4 -69 -23c-1 -30 -24 -37 -36 -37c-19 0 -36 13 -36 37c0 65 99 65 140 65c140 0 194 -80 194 -150v-230
c16 -6 31 -12 72 -12c12 0 32 0 32 -20zM358 128v98c-168 -5 -259 -51 -259 -104c0 -45 46 -86 117 -86c8 0 57 0 96 19c46 21 46 46 46 73zM361 536c0 -7 -4 -31 -24 -31c0 0 -5 0 -7 1l-144 64c-19 8 -23 18 -23 27c0 14 11 25 26 25c0 0 6 0 15 -4l138 -62
c10 -4 19 -8 19 -20z" />
    <glyph glyph-name="aacute" unicode="&#xe1;" 
d="M513 22c0 -22 -20 -22 -42 -22c-36 0 -83 0 -109 37c-55 -36 -117 -43 -153 -43c-99 0 -161 61 -161 128c0 95 125 141 310 144c0 90 -57 126 -142 126c-31 0 -69 -4 -69 -23c-1 -30 -24 -37 -36 -37c-19 0 -36 13 -36 37c0 65 99 65 140 65c140 0 194 -80 194 -150v-230
c16 -6 31 -12 72 -12c12 0 32 0 32 -20zM358 128v98c-168 -5 -259 -51 -259 -104c0 -45 46 -86 117 -86c8 0 57 0 96 19c46 21 46 46 46 73zM362 597c0 -9 -4 -19 -23 -27l-144 -64c-2 -1 -7 -1 -7 -1c-20 0 -24 24 -24 31c0 12 9 16 19 20l138 62c9 4 15 4 15 4
c15 0 26 -11 26 -25z" />
    <glyph glyph-name="acircumflex" unicode="&#xe2;" 
d="M513 22c0 -22 -20 -22 -42 -22c-36 0 -83 0 -109 37c-55 -36 -117 -43 -153 -43c-99 0 -161 61 -161 128c0 95 125 141 310 144c0 90 -57 126 -142 126c-31 0 -69 -4 -69 -23c-1 -30 -24 -37 -36 -37c-19 0 -36 13 -36 37c0 65 99 65 140 65c140 0 194 -80 194 -150v-230
c16 -6 31 -12 72 -12c12 0 32 0 32 -20zM358 128v98c-168 -5 -259 -51 -259 -104c0 -45 46 -86 117 -86c8 0 57 0 96 19c46 21 46 46 46 73zM406 528c0 -12 -7 -22 -24 -22c-6 0 -20 9 -30 15l-89 54l-89 -54c-10 -6 -24 -15 -30 -15c-17 0 -24 10 -24 22c0 8 11 15 22 22
l103 66c11 7 23 7 34 0l105 -66c11 -7 22 -14 22 -22z" />
    <glyph glyph-name="atilde" unicode="&#xe3;" 
d="M513 22c0 -22 -20 -22 -42 -22c-36 0 -83 0 -109 37c-55 -36 -117 -43 -153 -43c-99 0 -161 61 -161 128c0 95 125 141 310 144c0 90 -57 126 -142 126c-31 0 -69 -4 -69 -23c-1 -30 -24 -37 -36 -37c-19 0 -36 13 -36 37c0 65 99 65 140 65c140 0 194 -80 194 -150v-230
c16 -6 31 -12 72 -12c12 0 32 0 32 -20zM358 128v98c-168 -5 -259 -51 -259 -104c0 -45 46 -86 117 -86c8 0 57 0 96 19c46 21 46 46 46 73zM434 592c0 -13 -29 -35 -47 -48c-22 -16 -48 -32 -74 -32c-20 0 -35 8 -47 18c-32 29 -42 39 -55 39c-15 0 -45 -17 -79 -49
c-5 -4 -10 -8 -18 -8c-11 0 -22 11 -22 22c0 14 29 35 47 49c22 16 49 32 74 32c20 0 35 -9 47 -18c32 -29 42 -39 55 -39c15 0 45 17 79 48c5 5 10 9 18 9c11 0 22 -11 22 -23z" />
    <glyph glyph-name="adieresis" unicode="&#xe4;" 
d="M513 22c0 -22 -20 -22 -42 -22c-36 0 -83 0 -109 37c-55 -36 -117 -43 -153 -43c-99 0 -161 61 -161 128c0 95 125 141 310 144c0 90 -57 126 -142 126c-31 0 -69 -4 -69 -23c-1 -30 -24 -37 -36 -37c-19 0 -36 13 -36 37c0 65 99 65 140 65c140 0 194 -80 194 -150v-230
c16 -6 31 -12 72 -12c12 0 32 0 32 -20zM358 128v98c-168 -5 -259 -51 -259 -104c0 -45 46 -86 117 -86c8 0 57 0 96 19c46 21 46 46 46 73zM213 563c0 -20 -16 -36 -36 -36s-36 16 -36 36c0 21 16 37 36 37s36 -16 36 -37zM384 563c0 -20 -16 -36 -36 -36s-36 16 -36 36
c0 21 16 37 36 37s36 -16 36 -37z" />
    <glyph glyph-name="aring" unicode="&#xe5;" 
d="M513 22c0 -22 -20 -22 -42 -22c-36 0 -83 0 -109 37c-55 -36 -117 -43 -153 -43c-99 0 -161 61 -161 128c0 95 125 141 310 144c0 90 -57 126 -142 126c-31 0 -69 -4 -69 -23c-1 -30 -24 -37 -36 -37c-19 0 -36 13 -36 37c0 65 99 65 140 65c140 0 194 -80 194 -150v-230
c16 -6 31 -12 72 -12c12 0 32 0 32 -20zM358 128v98c-168 -5 -259 -51 -259 -104c0 -45 46 -86 117 -86c8 0 57 0 96 19c46 21 46 46 46 73zM315 563c0 23 -25 36 -52 36s-52 -13 -52 -36c0 -22 25 -34 52 -34s52 12 52 34zM365 563c0 -38 -43 -71 -102 -71s-102 33 -102 71
c0 39 43 73 102 73s102 -34 102 -73z" />
    <glyph glyph-name="ae" unicode="&#xe6;" 
d="M502 102c0 -19 -28 -108 -109 -108c-61 0 -101 57 -117 80c-34 -56 -85 -80 -133 -80c-68 0 -107 62 -107 118c0 81 88 123 207 124v44c0 73 -36 112 -93 112c-18 0 -37 -9 -37 -15c0 -3 1 -6 1 -9c-2 -33 -29 -36 -35 -36c-19 0 -36 13 -36 37c0 31 25 65 110 65
c52 0 87 -28 119 -85c38 66 78 85 111 85c70 0 119 -74 119 -203c0 -25 -3 -34 -31 -34h-189c10 -106 67 -161 116 -161c27 0 54 20 66 67c2 4 7 18 19 18c11 0 19 -9 19 -19zM464 239c-6 119 -47 153 -81 153c-48 0 -94 -70 -101 -153h182zM244 196
c-100 -4 -171 -35 -171 -83c0 -36 27 -77 76 -77c8 0 40 2 67 24c26 21 26 46 26 68c0 30 0 45 2 68z" />
    <glyph glyph-name="ccedilla" unicode="&#xe7;" 
d="M463 102c-11 -68 -93 -101 -129 -105v-25s103 -13 103 -92c0 -95 -140 -95 -233 -95c-10 0 -22 6 -22 22c0 21 21 21 52 21c43 0 152 7 152 52c0 24 -26 49 -79 52c-23 1 -23 17 -23 33v29c-124 11 -207 106 -207 219c0 87 59 221 229 221c43 0 144 0 144 -65
c0 -23 -17 -37 -36 -37c-20 0 -34 12 -35 40c0 11 -47 20 -73 20c-148 0 -178 -126 -178 -179c0 -100 79 -177 172 -177c81 0 105 54 116 77c5 7 11 8 21 8c4 0 29 0 26 -19z" />
    <glyph glyph-name="egrave" unicode="&#xe8;" 
d="M460 102c0 -24 -47 -108 -174 -108c-128 0 -228 99 -228 220s95 220 212 220c128 0 190 -97 190 -209c0 -28 -14 -28 -31 -28h-320c20 -106 102 -161 184 -161c32 0 92 11 120 74c4 10 10 11 22 11c4 0 25 0 25 -19zM409 239c-11 126 -81 153 -139 153
c-77 0 -142 -60 -160 -153h299zM361 536c0 -7 -4 -31 -24 -31c0 0 -5 0 -7 1l-144 64c-19 8 -23 18 -23 27c0 14 11 25 26 25c0 0 6 0 15 -4l138 -62c10 -4 19 -8 19 -20z" />
    <glyph glyph-name="eacute" unicode="&#xe9;" 
d="M460 102c0 -24 -47 -108 -174 -108c-128 0 -228 99 -228 220s95 220 212 220c128 0 190 -97 190 -209c0 -28 -14 -28 -31 -28h-320c20 -106 102 -161 184 -161c32 0 92 11 120 74c4 10 10 11 22 11c4 0 25 0 25 -19zM409 239c-11 126 -81 153 -139 153
c-77 0 -142 -60 -160 -153h299zM362 597c0 -9 -4 -19 -23 -27l-144 -64c-2 -1 -7 -1 -7 -1c-20 0 -24 24 -24 31c0 12 9 16 19 20l138 62c9 4 15 4 15 4c15 0 26 -11 26 -25z" />
    <glyph glyph-name="ecircumflex" unicode="&#xea;" 
d="M460 102c0 -24 -47 -108 -174 -108c-128 0 -228 99 -228 220s95 220 212 220c128 0 190 -97 190 -209c0 -28 -14 -28 -31 -28h-320c20 -106 102 -161 184 -161c32 0 92 11 120 74c4 10 10 11 22 11c4 0 25 0 25 -19zM409 239c-11 126 -81 153 -139 153
c-77 0 -142 -60 -160 -153h299zM406 528c0 -12 -7 -22 -24 -22c-6 0 -20 9 -30 15l-89 54l-89 -54c-10 -6 -24 -15 -30 -15c-17 0 -24 10 -24 22c0 8 11 15 22 22l103 66c11 7 23 7 34 0l105 -66c11 -7 22 -14 22 -22z" />
    <glyph glyph-name="edieresis" unicode="&#xeb;" 
d="M460 102c0 -24 -47 -108 -174 -108c-128 0 -228 99 -228 220s95 220 212 220c128 0 190 -97 190 -209c0 -28 -14 -28 -31 -28h-320c20 -106 102 -161 184 -161c32 0 92 11 120 74c4 10 10 11 22 11c4 0 25 0 25 -19zM409 239c-11 126 -81 153 -139 153
c-77 0 -142 -60 -160 -153h299zM213 563c0 -20 -16 -36 -36 -36s-36 16 -36 36c0 21 16 37 36 37s36 -16 36 -37zM384 563c0 -20 -16 -36 -36 -36s-36 16 -36 36c0 21 16 37 36 37s36 -16 36 -37z" />
    <glyph glyph-name="igrave" unicode="&#xec;" 
d="M451 21c0 -21 -21 -21 -32 -21h-305c-11 0 -32 0 -32 21s20 21 32 21h136v341h-128c-11 0 -32 0 -32 21s21 21 32 21h147c27 0 31 -8 31 -32v-351h119c11 0 32 0 32 -21zM361 536c0 -7 -4 -31 -24 -31c0 0 -5 0 -7 1l-144 64c-19 8 -23 18 -23 27c0 14 11 25 26 25
c0 0 6 0 15 -4l138 -62c10 -4 19 -8 19 -20z" />
    <glyph glyph-name="iacute" unicode="&#xed;" 
d="M451 21c0 -21 -21 -21 -32 -21h-305c-11 0 -32 0 -32 21s20 21 32 21h136v341h-128c-11 0 -32 0 -32 21s21 21 32 21h147c27 0 31 -8 31 -32v-351h119c11 0 32 0 32 -21zM362 597c0 -9 -4 -19 -23 -27l-144 -64c-2 -1 -7 -1 -7 -1c-20 0 -24 24 -24 31c0 12 9 16 19 20
l138 62c9 4 15 4 15 4c15 0 26 -11 26 -25z" />
    <glyph glyph-name="icircumflex" unicode="&#xee;" 
d="M451 21c0 -21 -21 -21 -32 -21h-305c-11 0 -32 0 -32 21s20 21 32 21h136v341h-128c-11 0 -32 0 -32 21s21 21 32 21h147c27 0 31 -8 31 -32v-351h119c11 0 32 0 32 -21zM406 528c0 -12 -7 -22 -24 -22c-6 0 -20 9 -30 15l-89 54l-89 -54c-10 -6 -24 -15 -30 -15
c-17 0 -24 10 -24 22c0 8 11 15 22 22l103 66c11 7 23 7 34 0l105 -66c11 -7 22 -14 22 -22z" />
    <glyph glyph-name="idieresis" unicode="&#xef;" 
d="M451 21c0 -21 -21 -21 -32 -21h-305c-11 0 -32 0 -32 21s20 21 32 21h136v341h-128c-11 0 -32 0 -32 21s21 21 32 21h147c27 0 31 -8 31 -32v-351h119c11 0 32 0 32 -21zM213 563c0 -20 -16 -36 -36 -36s-36 16 -36 36c0 21 16 37 36 37s36 -16 36 -37zM384 563
c0 -20 -16 -36 -36 -36s-36 16 -36 36c0 21 16 37 36 37s36 -16 36 -37z" />
    <glyph glyph-name="eth" unicode="&#xf0;" 
d="M464 213c0 -58 -21 -115 -61 -156c-37 -40 -87 -63 -141 -63c-108 0 -202 94 -202 219c0 123 92 221 202 221c40 0 76 -13 125 -48c-27 62 -73 113 -131 146l-77 -40c-5 -3 -9 -4 -14 -4c-12 0 -21 8 -21 18s7 18 15 23l49 25c-32 12 -67 17 -103 17c-14 0 -26 9 -26 21
c0 11 11 21 26 21c54 1 107 -11 153 -32l79 41c4 2 9 3 14 3c12 0 20 -8 20 -18c0 -9 -6 -18 -15 -23l-53 -28c96 -62 161 -169 161 -293v-50zM413 220c0 101 -72 172 -151 172c-78 0 -151 -71 -151 -172c0 -102 69 -184 151 -184c81 0 151 82 151 184z" />
    <glyph glyph-name="ntilde" unicode="&#xf1;" 
d="M510 21c0 -21 -20 -21 -31 -21h-158c-11 0 -32 0 -32 21s20 21 32 21h51v245c0 70 -18 102 -80 102c-57 0 -140 -42 -140 -153v-194h56c12 0 32 0 32 -21s-20 -21 -31 -21h-164c-11 0 -31 0 -31 21s20 21 32 21h56v341h-57c-11 0 -31 0 -31 20c0 22 20 22 32 22h75
c31 0 31 -13 31 -63c37 36 81 69 146 69c76 0 124 -42 124 -138v-251h56c12 0 32 0 32 -21zM434 592c0 -13 -29 -35 -47 -48c-22 -16 -48 -32 -74 -32c-20 0 -35 8 -47 18c-32 29 -42 39 -55 39c-15 0 -45 -17 -79 -49c-5 -4 -10 -8 -18 -8c-11 0 -22 11 -22 22
c0 14 29 35 47 49c22 16 49 32 74 32c20 0 35 -9 47 -18c32 -29 42 -39 55 -39c15 0 45 17 79 48c5 5 10 9 18 9c11 0 22 -11 22 -23z" />
    <glyph glyph-name="ograve" unicode="&#xf2;" 
d="M464 213c0 -124 -94 -219 -202 -219s-202 94 -202 219c0 123 92 221 202 221s202 -98 202 -221zM413 220c0 101 -72 172 -151 172c-78 0 -151 -71 -151 -172c0 -102 69 -184 151 -184c81 0 151 82 151 184zM361 536c0 -7 -4 -31 -24 -31c0 0 -5 0 -7 1l-144 64
c-19 8 -23 18 -23 27c0 14 11 25 26 25c0 0 6 0 15 -4l138 -62c10 -4 19 -8 19 -20z" />
    <glyph glyph-name="oacute" unicode="&#xf3;" 
d="M464 213c0 -124 -94 -219 -202 -219s-202 94 -202 219c0 123 92 221 202 221s202 -98 202 -221zM413 220c0 101 -72 172 -151 172c-78 0 -151 -71 -151 -172c0 -102 69 -184 151 -184c81 0 151 82 151 184zM362 597c0 -9 -4 -19 -23 -27l-144 -64c-2 -1 -7 -1 -7 -1
c-20 0 -24 24 -24 31c0 12 9 16 19 20l138 62c9 4 15 4 15 4c15 0 26 -11 26 -25z" />
    <glyph glyph-name="ocircumflex" unicode="&#xf4;" 
d="M464 213c0 -124 -94 -219 -202 -219s-202 94 -202 219c0 123 92 221 202 221s202 -98 202 -221zM413 220c0 101 -72 172 -151 172c-78 0 -151 -71 -151 -172c0 -102 69 -184 151 -184c81 0 151 82 151 184zM406 528c0 -12 -7 -22 -24 -22c-6 0 -20 9 -30 15l-89 54
l-89 -54c-10 -6 -24 -15 -30 -15c-17 0 -24 10 -24 22c0 8 11 15 22 22l103 66c11 7 23 7 34 0l105 -66c11 -7 22 -14 22 -22z" />
    <glyph glyph-name="otilde" unicode="&#xf5;" 
d="M464 213c0 -124 -94 -219 -202 -219s-202 94 -202 219c0 123 92 221 202 221s202 -98 202 -221zM413 220c0 101 -72 172 -151 172c-78 0 -151 -71 -151 -172c0 -102 69 -184 151 -184c81 0 151 82 151 184zM434 592c0 -13 -29 -35 -47 -48c-22 -16 -48 -32 -74 -32
c-20 0 -35 8 -47 18c-32 29 -42 39 -55 39c-15 0 -45 -17 -79 -49c-5 -4 -10 -8 -18 -8c-11 0 -22 11 -22 22c0 14 29 35 47 49c22 16 49 32 74 32c20 0 35 -9 47 -18c32 -29 42 -39 55 -39c15 0 45 17 79 48c5 5 10 9 18 9c11 0 22 -11 22 -23z" />
    <glyph glyph-name="odieresis" unicode="&#xf6;" 
d="M464 213c0 -124 -94 -219 -202 -219s-202 94 -202 219c0 123 92 221 202 221s202 -98 202 -221zM413 220c0 101 -72 172 -151 172c-78 0 -151 -71 -151 -172c0 -102 69 -184 151 -184c81 0 151 82 151 184zM213 563c0 -20 -16 -36 -36 -36s-36 16 -36 36
c0 21 16 37 36 37s36 -16 36 -37zM384 563c0 -20 -16 -36 -36 -36s-36 16 -36 36c0 21 16 37 36 37s36 -16 36 -37z" />
    <glyph glyph-name="divide" unicode="&#xf7;" 
d="M483 306c0 -26 -27 -26 -36 -26h-370c-9 0 -36 0 -36 26s31 26 42 26h358c11 0 42 0 42 -26zM316 524c0 -27 -22 -54 -55 -54c-28 0 -54 23 -54 55c0 27 22 54 55 54c28 0 54 -23 54 -55zM316 86c0 -27 -22 -54 -55 -54c-28 0 -54 23 -54 55c0 27 22 54 55 54
c28 0 54 -23 54 -55z" />
    <glyph glyph-name="oslash" unicode="&#xf8;" 
d="M478 549c0 0 0 -7 -6 -17l-81 -141c54 -50 85 -112 85 -178c0 -122 -98 -219 -214 -219c-18 0 -48 2 -90 20l-88 -151c-3 -4 -8 -8 -15 -8c-9 0 -23 7 -23 21c0 6 10 23 16 34l73 125c-65 56 -87 121 -87 178c0 120 95 221 214 221c39 0 67 -11 92 -21l82 142
c4 7 8 15 19 15c9 0 23 -7 23 -21zM439 213c0 39 -15 93 -70 142l-176 -306c33 -11 40 -13 69 -13c97 0 177 78 177 177zM333 378c-34 12 -40 14 -71 14c-97 0 -177 -80 -177 -179c0 -38 12 -89 70 -143z" />
    <glyph glyph-name="ugrave" unicode="&#xf9;" 
d="M510 22c0 -22 -20 -22 -32 -22h-75c-14 0 -31 0 -32 43c-52 -39 -93 -49 -133 -49c-70 0 -136 22 -136 114v275h-57c-11 0 -31 0 -31 20c0 22 20 22 32 22h75c27 0 31 -8 31 -32v-279c0 -38 0 -78 92 -78c37 0 128 14 128 116v231h-57c-11 0 -31 0 -31 20
c0 22 20 22 32 22h75c27 0 31 -8 31 -32v-351h57c11 0 31 0 31 -20zM361 536c0 -7 -4 -31 -24 -31c0 0 -5 0 -7 1l-144 64c-19 8 -23 18 -23 27c0 14 11 25 26 25c0 0 6 0 15 -4l138 -62c10 -4 19 -8 19 -20z" />
    <glyph glyph-name="uacute" unicode="&#xfa;" 
d="M510 22c0 -22 -20 -22 -32 -22h-75c-14 0 -31 0 -32 43c-52 -39 -93 -49 -133 -49c-70 0 -136 22 -136 114v275h-57c-11 0 -31 0 -31 20c0 22 20 22 32 22h75c27 0 31 -8 31 -32v-279c0 -38 0 -78 92 -78c37 0 128 14 128 116v231h-57c-11 0 -31 0 -31 20
c0 22 20 22 32 22h75c27 0 31 -8 31 -32v-351h57c11 0 31 0 31 -20zM362 597c0 -9 -4 -19 -23 -27l-144 -64c-2 -1 -7 -1 -7 -1c-20 0 -24 24 -24 31c0 12 9 16 19 20l138 62c9 4 15 4 15 4c15 0 26 -11 26 -25z" />
    <glyph glyph-name="ucircumflex" unicode="&#xfb;" 
d="M510 22c0 -22 -20 -22 -32 -22h-75c-14 0 -31 0 -32 43c-52 -39 -93 -49 -133 -49c-70 0 -136 22 -136 114v275h-57c-11 0 -31 0 -31 20c0 22 20 22 32 22h75c27 0 31 -8 31 -32v-279c0 -38 0 -78 92 -78c37 0 128 14 128 116v231h-57c-11 0 -31 0 -31 20
c0 22 20 22 32 22h75c27 0 31 -8 31 -32v-351h57c11 0 31 0 31 -20zM406 528c0 -12 -7 -22 -24 -22c-6 0 -20 9 -30 15l-89 54l-89 -54c-10 -6 -24 -15 -30 -15c-17 0 -24 10 -24 22c0 8 11 15 22 22l103 66c11 7 23 7 34 0l105 -66c11 -7 22 -14 22 -22z" />
    <glyph glyph-name="udieresis" unicode="&#xfc;" 
d="M510 22c0 -22 -20 -22 -32 -22h-75c-14 0 -31 0 -32 43c-52 -39 -93 -49 -133 -49c-70 0 -136 22 -136 114v275h-57c-11 0 -31 0 -31 20c0 22 20 22 32 22h75c27 0 31 -8 31 -32v-279c0 -38 0 -78 92 -78c37 0 128 14 128 116v231h-57c-11 0 -31 0 -31 20
c0 22 20 22 32 22h75c27 0 31 -8 31 -32v-351h57c11 0 31 0 31 -20zM213 563c0 -20 -16 -36 -36 -36s-36 16 -36 36c0 21 16 37 36 37s36 -16 36 -37zM384 563c0 -20 -16 -36 -36 -36s-36 16 -36 36c0 21 16 37 36 37s36 -16 36 -37z" />
    <glyph glyph-name="yacute" unicode="&#xfd;" 
d="M498 403c0 -20 -20 -20 -31 -20h-38l-162 -478c-4 -11 -53 -141 -146 -141c-44 0 -75 37 -75 75c0 20 13 35 35 35c20 0 34 -14 34 -34c0 -11 -6 -20 -6 -20s6 -13 12 -13c30 0 54 4 86 65c14 26 42 115 42 115c1 3 -155 396 -155 396h-35c-11 0 -31 0 -31 20
c0 22 19 22 31 22h121c12 0 31 0 31 -22c0 -20 -20 -20 -31 -20h-41l132 -348l115 348h-40c-12 0 -31 0 -31 21s20 21 31 21h121c12 0 31 0 31 -22zM362 597c0 -9 -4 -19 -23 -27l-144 -64c-2 -1 -7 -1 -7 -1c-20 0 -24 24 -24 31c0 12 9 16 19 20l138 62c9 4 15 4 15 4
c15 0 26 -11 26 -25z" />
    <glyph glyph-name="thorn" unicode="&#xfe;" 
d="M485 213c0 -125 -95 -219 -202 -219c-31 0 -73 9 -131 68v-249h56c12 0 32 0 32 -22c0 -21 -20 -21 -31 -21h-164c-11 0 -31 0 -31 21c0 22 20 22 32 22h56v756h-57c-11 0 -31 0 -31 20c0 22 20 22 32 22h75c27 0 31 -8 31 -32v-212c51 46 95 64 142 64
c104 0 191 -97 191 -218zM435 213c0 96 -65 176 -147 176c-71 0 -136 -60 -136 -126v-76c0 -53 40 -151 128 -151c77 0 155 71 155 177z" />
    <glyph glyph-name="ydieresis" unicode="&#xff;" 
d="M498 403c0 -20 -20 -20 -31 -20h-38l-162 -478c-4 -11 -53 -141 -146 -141c-44 0 -75 37 -75 75c0 20 13 35 35 35c20 0 34 -14 34 -34c0 -11 -6 -20 -6 -20s6 -13 12 -13c30 0 54 4 86 65c14 26 42 115 42 115c1 3 -155 396 -155 396h-35c-11 0 -31 0 -31 20
c0 22 19 22 31 22h121c12 0 31 0 31 -22c0 -20 -20 -20 -31 -20h-41l132 -348l115 348h-40c-12 0 -31 0 -31 21s20 21 31 21h121c12 0 31 0 31 -22zM213 563c0 -20 -16 -36 -36 -36s-36 16 -36 36c0 21 16 37 36 37s36 -16 36 -37zM384 563c0 -20 -16 -36 -36 -36
s-36 16 -36 36c0 21 16 37 36 37s36 -16 36 -37z" />
    <glyph glyph-name="Amacron" unicode="&#x100;" 
d="M495 21c0 -21 -22 -21 -35 -21h-105c-14 0 -33 0 -33 21s18 21 60 21l-28 129h-184l-28 -129c42 0 60 0 60 -21s-19 -21 -33 -21h-106c-12 0 -34 0 -34 21c0 9 4 16 12 20c6 1 27 1 48 1l127 550c8 31 22 31 46 31c26 0 38 0 46 -32l127 -549c21 0 41 0 47 -1
c10 -4 13 -11 13 -20zM343 213l-77 368h-7l-78 -368h162zM448 704c0 -21 -19 -21 -31 -21h-307c-13 0 -32 0 -32 22s19 22 31 22h308c13 0 31 0 31 -23z" />
    <glyph glyph-name="amacron" unicode="&#x101;" 
d="M513 22c0 -22 -20 -22 -42 -22c-36 0 -83 0 -109 37c-55 -36 -117 -43 -153 -43c-99 0 -161 61 -161 128c0 95 125 141 310 144c0 90 -57 126 -142 126c-31 0 -69 -4 -69 -23c-1 -30 -24 -37 -36 -37c-19 0 -36 13 -36 37c0 65 99 65 140 65c140 0 194 -80 194 -150v-230
c16 -6 31 -12 72 -12c12 0 32 0 32 -20zM358 128v98c-168 -5 -259 -51 -259 -104c0 -45 46 -86 117 -86c8 0 57 0 96 19c46 21 46 46 46 73zM448 563c0 -21 -19 -21 -31 -21h-307c-13 0 -32 0 -32 22s19 22 31 22h308c13 0 31 0 31 -23z" />
    <glyph glyph-name="Abreve" unicode="&#x102;" 
d="M495 21c0 -21 -22 -21 -35 -21h-105c-14 0 -33 0 -33 21s18 21 60 21l-28 129h-184l-28 -129c42 0 60 0 60 -21s-19 -21 -33 -21h-106c-12 0 -34 0 -34 21c0 9 4 16 12 20c6 1 27 1 48 1l127 550c8 31 22 31 46 31c26 0 38 0 46 -32l127 -549c21 0 41 0 47 -1
c10 -4 13 -11 13 -20zM343 213l-77 368h-7l-78 -368h162zM435 747c0 -74 -108 -74 -172 -74s-172 0 -172 74c0 13 9 22 22 22c11 0 16 -5 18 -11c9 -34 83 -40 132 -40c48 0 123 6 132 40c2 6 7 11 18 11c14 0 22 -9 22 -22z" />
    <glyph glyph-name="abreve" unicode="&#x103;" 
d="M513 22c0 -22 -20 -22 -42 -22c-36 0 -83 0 -109 37c-55 -36 -117 -43 -153 -43c-99 0 -161 61 -161 128c0 95 125 141 310 144c0 90 -57 126 -142 126c-31 0 -69 -4 -69 -23c-1 -30 -24 -37 -36 -37c-19 0 -36 13 -36 37c0 65 99 65 140 65c140 0 194 -80 194 -150v-230
c16 -6 31 -12 72 -12c12 0 32 0 32 -20zM358 128v98c-168 -5 -259 -51 -259 -104c0 -45 46 -86 117 -86c8 0 57 0 96 19c46 21 46 46 46 73zM435 590c0 -74 -108 -74 -172 -74s-172 0 -172 74c0 14 9 22 22 22c11 0 16 -5 18 -11c9 -34 83 -40 132 -40c48 0 123 6 132 40
c2 6 7 11 18 11c14 0 22 -8 22 -22z" />
    <glyph glyph-name="Aogonek" unicode="&#x104;" 
d="M495 21c0 -21 -22 -21 -35 -21h-22c-61 -36 -100 -76 -100 -124c0 -31 33 -51 56 -51c24 0 51 23 64 42c5 4 17 8 24 3s8 -17 3 -23c-23 -32 -59 -57 -95 -57c-58 0 -92 48 -92 88c0 45 22 79 89 122c-49 0 -65 0 -65 21s18 21 60 21l-28 129h-184l-28 -129
c42 0 60 0 60 -21s-19 -21 -33 -21h-106c-12 0 -34 0 -34 21c0 9 4 16 12 20c6 1 27 1 48 1l127 550c8 31 22 31 46 31c26 0 38 0 46 -32l127 -549c21 0 41 0 47 -1c10 -4 13 -11 13 -20zM343 213l-78 368h-7l-77 -368h162z" />
    <glyph glyph-name="aogonek" unicode="&#x105;" 
d="M513 -153c-23 -32 -59 -57 -96 -57c-58 0 -92 48 -92 88c0 45 37 88 93 124c-33 10 -43 17 -56 35c-55 -36 -117 -43 -153 -43c-99 0 -161 61 -161 128c0 95 125 141 310 144c0 90 -57 126 -142 126c-31 0 -69 -4 -69 -23c-1 -30 -24 -37 -36 -37c-19 0 -36 13 -36 37
c0 65 99 65 140 65c140 0 194 -80 194 -150v-230c16 -6 31 -12 72 -12c12 0 32 0 32 -20c0 -22 -20 -22 -45 -22c-61 -36 -102 -77 -102 -124c0 -31 32 -51 56 -51c23 0 50 23 63 42c5 4 17 10 25 3c7 -6 7 -17 3 -23zM358 128v98c-168 -5 -259 -51 -259 -104
c0 -45 46 -86 117 -86c8 0 57 0 96 19c46 21 46 46 46 73z" />
    <glyph glyph-name="Cacute" unicode="&#x106;" 
d="M481 163c0 -88 -85 -174 -198 -174c-130 0 -240 134 -240 317c0 182 110 316 239 316c50 0 95 -19 137 -55c19 35 20 39 21 43c4 5 10 12 20 12c21 0 21 -20 21 -32v-143c0 -16 0 -32 -26 -32c-21 0 -23 12 -26 25c-15 90 -77 140 -143 140c-96 0 -193 -113 -193 -274
c0 -162 96 -275 194 -275c45 0 136 27 143 136c2 20 19 20 25 20c8 0 26 0 26 -24zM389 765c0 -8 -4 -18 -23 -26l-144 -64c-2 -1 -7 -2 -7 -2c-20 0 -24 25 -24 31c0 12 9 16 19 21l138 62c9 4 15 4 15 4c15 0 26 -11 26 -26z" />
    <glyph glyph-name="cacute" unicode="&#x107;" 
d="M463 102c0 -16 -35 -108 -169 -108c-124 0 -217 101 -217 219c0 87 59 221 229 221c43 0 144 -6 144 -65c0 -23 -17 -37 -36 -37c-20 0 -35 12 -35 40c0 11 -47 20 -73 20c-148 0 -178 -126 -178 -179c0 -100 79 -177 172 -177c81 0 105 54 116 77c5 7 11 8 21 8
c4 0 26 0 26 -19zM389 597c0 -9 -4 -19 -23 -27l-144 -64c-2 -1 -7 -1 -7 -1c-20 0 -24 24 -24 31c0 12 9 16 19 20l138 62c9 4 15 4 15 4c15 0 26 -11 26 -25z" />
    <glyph glyph-name="Ccircumflex" unicode="&#x108;" 
d="M481 163c0 -88 -85 -174 -198 -174c-130 0 -240 134 -240 317c0 182 110 316 239 316c50 0 95 -19 137 -55c19 35 20 39 21 43c4 5 10 12 20 12c21 0 21 -20 21 -32v-143c0 -16 0 -32 -26 -32c-21 0 -23 12 -26 25c-15 90 -77 140 -143 140c-96 0 -193 -113 -193 -274
c0 -162 96 -275 194 -275c45 0 136 27 143 136c2 20 19 20 25 20c8 0 26 0 26 -24zM432 685c0 -12 -7 -22 -24 -22c-6 0 -20 4 -30 7l-89 30l-89 -30c-10 -3 -24 -7 -30 -7c-17 0 -24 10 -24 22c0 8 9 17 22 22l109 40c9 3 17 3 26 0l107 -40c13 -5 22 -14 22 -22z" />
    <glyph glyph-name="ccircumflex" unicode="&#x109;" 
d="M463 102c0 -16 -35 -108 -169 -108c-124 0 -217 101 -217 219c0 87 59 221 229 221c43 0 144 -6 144 -65c0 -23 -17 -37 -36 -37c-20 0 -35 12 -35 40c0 11 -47 20 -73 20c-148 0 -178 -126 -178 -179c0 -100 79 -177 172 -177c81 0 105 54 116 77c5 7 11 8 21 8
c4 0 26 0 26 -19zM433 528c0 -12 -7 -22 -24 -22c-6 0 -20 9 -30 15l-89 54l-89 -54c-10 -6 -24 -15 -30 -15c-17 0 -24 10 -24 22c0 8 11 15 22 22l103 66c11 7 23 7 34 0l105 -66c11 -7 22 -14 22 -22z" />
    <glyph glyph-name="Cdotaccent" unicode="&#x10a;" 
d="M481 163c0 -88 -85 -174 -198 -174c-130 0 -240 134 -240 317c0 182 110 316 239 316c50 0 95 -19 137 -55c19 35 20 39 21 43c4 5 10 12 20 12c21 0 21 -20 21 -32v-143c0 -16 0 -32 -26 -32c-21 0 -23 12 -26 25c-15 90 -77 140 -143 140c-96 0 -193 -113 -193 -274
c0 -162 96 -275 194 -275c45 0 136 27 143 136c2 20 19 20 25 20c8 0 26 0 26 -24zM331 715c0 -23 -18 -41 -41 -41s-41 18 -41 41s18 42 41 42s41 -19 41 -42z" />
    <glyph glyph-name="cdotaccent" unicode="&#x10b;" 
d="M463 102c0 -16 -35 -108 -169 -108c-124 0 -217 101 -217 219c0 87 59 221 229 221c43 0 144 -6 144 -65c0 -23 -17 -37 -36 -37c-20 0 -35 12 -35 40c0 11 -47 20 -73 20c-148 0 -178 -126 -178 -179c0 -100 79 -177 172 -177c81 0 105 54 116 77c5 7 11 8 21 8
c4 0 26 0 26 -19zM331 563c0 -23 -18 -41 -41 -41s-41 18 -41 41c0 24 18 42 41 42s41 -18 41 -42z" />
    <glyph glyph-name="Ccaron" unicode="&#x10c;" 
d="M481 163c0 -88 -85 -174 -198 -174c-130 0 -240 134 -240 317c0 182 110 316 239 316c50 0 95 -19 137 -55c19 35 20 39 21 43c4 5 10 12 20 12c21 0 21 -20 21 -32v-143c0 -16 0 -32 -26 -32c-21 0 -23 12 -26 25c-15 90 -77 140 -143 140c-96 0 -193 -113 -193 -274
c0 -162 96 -275 194 -275c45 0 136 27 143 136c2 20 19 20 25 20c8 0 26 0 26 -24zM432 728c0 -8 -9 -17 -22 -22l-109 -40c-9 -3 -17 -3 -26 0l-107 40c-13 5 -22 14 -22 22c0 12 7 22 24 22c6 0 20 -4 30 -7l89 -30l89 30c10 3 24 7 30 7c17 0 24 -10 24 -22z" />
    <glyph glyph-name="ccaron" unicode="&#x10d;" 
d="M463 102c0 -16 -35 -108 -169 -108c-124 0 -217 101 -217 219c0 87 59 221 229 221c43 0 144 -6 144 -65c0 -23 -17 -37 -36 -37c-20 0 -35 12 -35 40c0 11 -47 20 -73 20c-148 0 -178 -126 -178 -179c0 -100 79 -177 172 -177c81 0 105 54 116 77c5 7 11 8 21 8
c4 0 26 0 26 -19zM433 599c0 -8 -11 -15 -22 -22l-103 -66c-11 -7 -23 -7 -34 0l-105 66c-11 7 -22 14 -22 22c0 12 7 22 24 22c6 0 20 -9 30 -15l89 -54l89 54c10 6 24 15 30 15c17 0 24 -10 24 -22z" />
    <glyph glyph-name="Dcaron" unicode="&#x10e;" 
d="M482 301c0 -160 -86 -301 -216 -301h-213c-11 0 -32 0 -32 21s20 21 32 21h33v527h-33c-11 0 -32 0 -32 20c0 22 20 22 32 22h213c133 0 216 -151 216 -310zM432 301c0 125 -63 268 -186 268h-109v-527h109c121 0 186 132 186 259zM342 728c0 -8 -9 -17 -22 -22l-109 -40
c-9 -3 -17 -3 -26 0l-107 40c-13 5 -22 14 -22 22c0 12 7 22 24 22c6 0 20 -4 30 -7l89 -30l89 30c10 3 24 7 30 7c17 0 24 -10 24 -22z" />
    <glyph glyph-name="dcaron" unicode="&#x10f;" 
d="M510 22c0 -22 -20 -22 -32 -22h-75c-31 0 -31 12 -31 67c-46 -47 -86 -73 -141 -73c-104 0 -192 96 -192 218c0 125 94 219 201 219c42 0 82 -16 132 -59v197h-57c-11 0 -31 0 -31 20c0 22 20 22 32 22h75c27 0 31 -8 31 -32v-537h57c11 0 31 0 31 -20zM372 190v74
c0 62 -56 125 -128 125c-77 0 -155 -71 -155 -177c0 -98 68 -176 146 -176c86 0 137 92 137 154zM570 544c0 -77 -72 -117 -94 -117c-8 0 -15 8 -15 15c0 5 5 9 9 10c27 9 72 30 72 89c-8 -4 -16 -6 -27 -6c-20 0 -38 15 -38 39c0 20 15 37 39 37c29 0 54 -26 54 -67z" />
    <glyph glyph-name="Dcroat" unicode="&#x110;" 
d="M482 301c0 -160 -86 -301 -216 -301h-213c-11 0 -32 0 -32 21s20 21 32 21h33v242h-39c-12 0 -22 9 -22 22c0 12 10 22 22 22h39v241h-33c-11 0 -32 0 -32 20c0 22 20 22 32 22h213c133 0 216 -151 216 -310zM432 301c0 125 -63 268 -186 268h-109v-241h71
c12 0 22 -10 22 -22c0 -13 -10 -22 -22 -22h-71v-242h109c121 0 186 132 186 259z" />
    <glyph glyph-name="dcroat" unicode="&#x111;" 
d="M510 22c0 -22 -20 -22 -32 -22h-75c-31 0 -31 12 -31 67c-46 -47 -86 -73 -141 -73c-104 0 -192 96 -192 218c0 125 94 219 201 219c42 0 82 -16 132 -59v103h-164c-12 0 -21 9 -21 21s9 22 21 22h164v51h-57c-11 0 -31 0 -31 20c0 22 20 22 32 22h75c27 0 31 -8 31 -32
v-61h62c12 0 22 -10 22 -22s-10 -21 -22 -21h-62v-433h57c11 0 31 0 31 -20zM372 190v74c0 62 -56 125 -128 125c-77 0 -155 -71 -155 -177c0 -98 68 -176 146 -176c86 0 137 92 137 154z" />
    <glyph glyph-name="Emacron" unicode="&#x112;" 
d="M500 32c0 -25 -6 -32 -31 -32h-409c-11 0 -32 0 -32 21s20 21 32 21h42v527h-42c-11 0 -32 0 -32 21s21 21 32 21h386c26 0 31 -8 31 -32v-76c0 -15 0 -32 -26 -32c-25 0 -25 18 -25 32v66h-274v-231h157c0 44 0 59 25 59s25 -18 25 -32v-96c0 -15 0 -32 -25 -32
s-25 15 -25 59h-157v-254h297v82c0 15 0 32 26 32c25 0 25 -17 25 -32v-92zM448 704c0 -21 -19 -21 -31 -21h-307c-13 0 -32 0 -32 22s19 22 31 22h308c13 0 31 0 31 -23z" />
    <glyph glyph-name="emacron" unicode="&#x113;" 
d="M460 102c0 -24 -47 -108 -174 -108c-128 0 -228 99 -228 220s95 220 212 220c128 0 190 -97 190 -209c0 -28 -14 -28 -31 -28h-320c20 -106 102 -161 184 -161c32 0 92 11 120 74c4 10 10 11 22 11c4 0 25 0 25 -19zM409 239c-11 126 -81 153 -139 153
c-77 0 -142 -60 -160 -153h299zM448 563c0 -21 -19 -21 -31 -21h-307c-13 0 -32 0 -32 22s19 22 31 22h308c13 0 31 0 31 -23z" />
    <glyph glyph-name="Ebreve" unicode="&#x114;" 
d="M500 32c0 -25 -6 -32 -31 -32h-409c-11 0 -32 0 -32 21s20 21 32 21h42v527h-42c-11 0 -32 0 -32 21s21 21 32 21h386c26 0 31 -8 31 -32v-76c0 -15 0 -32 -26 -32c-25 0 -25 18 -25 32v66h-274v-231h157c0 44 0 59 25 59s25 -18 25 -32v-96c0 -15 0 -32 -25 -32
s-25 15 -25 59h-157v-254h297v82c0 15 0 32 26 32c25 0 25 -17 25 -32v-92zM435 747c0 -74 -108 -74 -172 -74s-172 0 -172 74c0 13 9 22 22 22c11 0 16 -5 18 -11c9 -34 83 -40 132 -40c48 0 123 6 132 40c2 6 7 11 18 11c14 0 22 -9 22 -22z" />
    <glyph glyph-name="ebreve" unicode="&#x115;" 
d="M460 102c0 -24 -47 -108 -174 -108c-128 0 -228 99 -228 220s95 220 212 220c128 0 190 -97 190 -209c0 -28 -14 -28 -31 -28h-320c20 -106 102 -161 184 -161c32 0 92 11 120 74c4 10 10 11 22 11c4 0 25 0 25 -19zM409 239c-11 126 -81 153 -139 153
c-77 0 -142 -60 -160 -153h299zM435 590c0 -74 -108 -74 -172 -74s-172 0 -172 74c0 14 9 22 22 22c11 0 16 -5 18 -11c9 -34 83 -40 132 -40c48 0 123 6 132 40c2 6 7 11 18 11c14 0 22 -8 22 -22z" />
    <glyph glyph-name="Edotaccent" unicode="&#x116;" 
d="M500 32c0 -25 -6 -32 -31 -32h-409c-11 0 -32 0 -32 21s20 21 32 21h42v527h-42c-11 0 -32 0 -32 21s21 21 32 21h386c26 0 31 -8 31 -32v-76c0 -15 0 -32 -26 -32c-25 0 -25 18 -25 32v66h-274v-231h157c0 44 0 59 25 59s25 -18 25 -32v-96c0 -15 0 -32 -25 -32
s-25 15 -25 59h-157v-254h297v82c0 15 0 32 26 32c25 0 25 -17 25 -32v-92zM304 715c0 -23 -18 -41 -41 -41s-41 18 -41 41s18 42 41 42s41 -19 41 -42z" />
    <glyph glyph-name="edotaccent" unicode="&#x117;" 
d="M460 102c0 -24 -47 -108 -174 -108c-128 0 -228 99 -228 220s95 220 212 220c128 0 190 -97 190 -209c0 -28 -14 -28 -31 -28h-320c20 -106 102 -161 184 -161c32 0 92 11 120 74c4 10 10 11 22 11c4 0 25 0 25 -19zM409 239c-11 126 -81 153 -139 153
c-77 0 -142 -60 -160 -153h299zM304 563c0 -23 -18 -41 -41 -41s-41 18 -41 41c0 24 18 42 41 42s41 -18 41 -42z" />
    <glyph glyph-name="Eogonek" unicode="&#x118;" 
d="M500 32c0 -25 -6 -32 -31 -32h-30c-61 -36 -101 -76 -101 -124c0 -31 33 -51 56 -51c24 0 51 23 64 42c5 4 17 8 24 3s8 -17 3 -23c-23 -32 -59 -57 -95 -57c-58 0 -92 48 -92 88c0 45 23 79 90 122h-328c-11 0 -32 0 -32 21s20 21 32 21h42v527h-42c-11 0 -32 0 -32 21
s21 21 32 21h386c26 0 31 -8 31 -32v-76c0 -15 0 -32 -26 -32c-25 0 -25 18 -25 32v66h-274v-231h157c0 44 0 59 25 59s25 -18 25 -32v-96c0 -15 0 -32 -25 -32s-25 15 -25 59h-157v-254h297v82c0 15 0 32 26 32c25 0 25 -17 25 -32v-92z" />
    <glyph glyph-name="eogonek" unicode="&#x119;" 
d="M460 102c1 -30 -60 -77 -80 -89c-84 -50 -124 -90 -124 -137c0 -31 33 -51 56 -51s50 23 63 42c5 4 17 10 25 3c7 -6 7 -17 3 -23c-23 -32 -59 -57 -96 -57c-58 0 -92 48 -92 88c0 45 12 76 74 116c-148 13 -231 106 -231 220c0 121 95 220 212 220
c128 0 190 -97 190 -209c0 -28 -14 -28 -31 -28h-320c20 -106 102 -161 184 -161c32 0 92 11 120 74c4 10 10 11 22 11c4 0 24 0 25 -19zM409 239c-11 126 -81 153 -139 153c-77 0 -142 -60 -160 -153h299z" />
    <glyph glyph-name="Ecaron" unicode="&#x11a;" 
d="M500 32c0 -25 -6 -32 -31 -32h-409c-11 0 -32 0 -32 21s20 21 32 21h42v527h-42c-11 0 -32 0 -32 21s21 21 32 21h386c26 0 31 -8 31 -32v-76c0 -15 0 -32 -26 -32c-25 0 -25 18 -25 32v66h-274v-231h157c0 44 0 59 25 59s25 -18 25 -32v-96c0 -15 0 -32 -25 -32
s-25 15 -25 59h-157v-254h297v82c0 15 0 32 26 32c25 0 25 -17 25 -32v-92zM405 728c0 -8 -9 -17 -22 -22l-109 -40c-9 -3 -17 -3 -26 0l-107 40c-13 5 -22 14 -22 22c0 12 7 22 24 22c6 0 20 -4 30 -7l89 -30l89 30c10 3 24 7 30 7c17 0 24 -10 24 -22z" />
    <glyph glyph-name="ecaron" unicode="&#x11b;" 
d="M460 102c0 -24 -47 -108 -174 -108c-128 0 -228 99 -228 220s95 220 212 220c128 0 190 -97 190 -209c0 -28 -14 -28 -31 -28h-320c20 -106 102 -161 184 -161c32 0 92 11 120 74c4 10 10 11 22 11c4 0 25 0 25 -19zM409 239c-11 126 -81 153 -139 153
c-77 0 -142 -60 -160 -153h299zM406 599c0 -8 -11 -15 -22 -22l-103 -66c-11 -7 -23 -7 -34 0l-105 66c-11 7 -22 14 -22 22c0 12 7 22 24 22c6 0 20 -9 30 -15l89 -54l89 54c10 6 24 15 30 15c17 0 24 -10 24 -22z" />
    <glyph glyph-name="Gcircumflex" unicode="&#x11c;" 
d="M494 238c0 -22 -20 -22 -49 -22v-184c0 -14 0 -32 -25 -32c-26 0 -26 16 -26 61c-37 -43 -78 -72 -133 -72c-119 0 -220 134 -220 317c0 180 100 316 220 316c41 0 80 -14 125 -53c18 42 23 53 38 53c21 0 21 -20 21 -32v-143c0 -16 0 -32 -26 -32c-16 0 -22 6 -24 16
c-20 125 -91 149 -130 149c-84 0 -174 -110 -174 -275c0 -159 85 -274 173 -274c59 0 115 50 129 185h-55c-11 0 -31 0 -31 22c0 20 20 20 31 20h124c11 0 32 0 32 -20zM405 685c0 -12 -7 -22 -24 -22c-6 0 -20 4 -30 7l-89 30l-89 -30c-10 -3 -24 -7 -30 -7
c-17 0 -24 10 -24 22c0 8 9 17 22 22l109 40c9 3 17 3 26 0l107 -40c13 -5 22 -14 22 -22z" />
    <glyph glyph-name="gcircumflex" unicode="&#x11d;" 
d="M507 391c0 -23 -18 -32 -31 -32c-8 0 -26 6 -32 36c-24 -2 -50 -7 -83 -25c22 -37 31 -65 31 -94c0 -86 -71 -156 -160 -156c-48 0 -84 22 -98 31c-9 -23 -12 -40 -12 -45c0 0 2 -26 15 -43c15 -18 23 -19 41 -19c9 -1 23 -2 31 -2h73c90 0 132 -21 145 -28
c48 -26 66 -74 66 -109c0 -84 -105 -142 -231 -142s-231 57 -231 142c0 10 1 76 82 125c-16 21 -29 44 -29 78c0 28 9 49 23 70c-19 25 -35 56 -35 98c0 83 69 155 160 155c45 0 79 -18 101 -33c50 37 98 38 109 38c47 0 65 -25 65 -45zM342 276c0 60 -48 114 -110 114
c-59 0 -110 -50 -110 -115c0 -60 48 -114 110 -114c59 0 110 50 110 115zM453 -95c0 94 -121 99 -219 99c-79 0 -89 -1 -116 -18c-37 -23 -47 -60 -47 -81c0 -49 80 -100 191 -100c110 0 191 51 191 100zM370 528c0 -12 -7 -22 -24 -22c-6 0 -20 9 -30 15l-89 54l-89 -54
c-10 -6 -24 -15 -30 -15c-17 0 -24 10 -24 22c0 8 11 15 22 22l103 66c11 7 23 7 34 0l105 -66c11 -7 22 -14 22 -22z" />
    <glyph glyph-name="Gbreve" unicode="&#x11e;" 
d="M494 238c0 -22 -20 -22 -49 -22v-184c0 -14 0 -32 -25 -32c-26 0 -26 16 -26 61c-37 -43 -78 -72 -133 -72c-119 0 -220 134 -220 317c0 180 100 316 220 316c41 0 80 -14 125 -53c18 42 23 53 38 53c21 0 21 -20 21 -32v-143c0 -16 0 -32 -26 -32c-16 0 -22 6 -24 16
c-20 125 -91 149 -130 149c-84 0 -174 -110 -174 -275c0 -159 85 -274 173 -274c59 0 115 50 129 185h-55c-11 0 -31 0 -31 22c0 20 20 20 31 20h124c11 0 32 0 32 -20zM435 747c0 -74 -108 -74 -172 -74s-172 0 -172 74c0 13 9 22 22 22c11 0 16 -5 18 -11
c9 -34 83 -40 132 -40c48 0 123 6 132 40c2 6 7 11 18 11c14 0 22 -9 22 -22z" />
    <glyph glyph-name="gbreve" unicode="&#x11f;" 
d="M507 391c0 -23 -18 -32 -31 -32c-8 0 -26 6 -32 36c-24 -2 -50 -7 -83 -25c22 -37 31 -65 31 -94c0 -86 -71 -156 -160 -156c-48 0 -84 22 -98 31c-9 -23 -12 -40 -12 -45c0 0 2 -26 15 -43c15 -18 23 -19 41 -19c9 -1 23 -2 31 -2h73c90 0 132 -21 145 -28
c48 -26 66 -74 66 -109c0 -84 -105 -142 -231 -142s-231 57 -231 142c0 10 1 76 82 125c-16 21 -29 44 -29 78c0 28 9 49 23 70c-19 25 -35 56 -35 98c0 83 69 155 160 155c45 0 79 -18 101 -33c50 37 98 38 109 38c47 0 65 -25 65 -45zM342 276c0 60 -48 114 -110 114
c-59 0 -110 -50 -110 -115c0 -60 48 -114 110 -114c59 0 110 50 110 115zM453 -95c0 94 -121 99 -219 99c-79 0 -89 -1 -116 -18c-37 -23 -47 -60 -47 -81c0 -49 80 -100 191 -100c110 0 191 51 191 100zM399 590c0 -74 -108 -74 -172 -74s-172 0 -172 74c0 14 9 22 22 22
c11 0 16 -5 18 -11c9 -34 83 -40 132 -40c48 0 123 6 132 40c2 6 7 11 18 11c14 0 22 -8 22 -22z" />
    <glyph glyph-name="Gdotaccent" unicode="&#x120;" 
d="M494 238c0 -22 -20 -22 -49 -22v-184c0 -14 0 -32 -25 -32c-26 0 -26 16 -26 61c-37 -43 -78 -72 -133 -72c-119 0 -220 134 -220 317c0 180 100 316 220 316c41 0 80 -14 125 -53c18 42 23 53 38 53c21 0 21 -20 21 -32v-143c0 -16 0 -32 -26 -32c-16 0 -22 6 -24 16
c-20 125 -91 149 -130 149c-84 0 -174 -110 -174 -275c0 -159 85 -274 173 -274c59 0 115 50 129 185h-55c-11 0 -31 0 -31 22c0 20 20 20 31 20h124c11 0 32 0 32 -20zM304 715c0 -23 -18 -41 -41 -41s-41 18 -41 41s18 42 41 42s41 -19 41 -42z" />
    <glyph glyph-name="gdotaccent" unicode="&#x121;" 
d="M507 391c0 -23 -18 -32 -31 -32c-8 0 -26 6 -32 36c-24 -2 -50 -7 -83 -25c22 -37 31 -65 31 -94c0 -86 -71 -156 -160 -156c-48 0 -84 22 -98 31c-9 -23 -12 -40 -12 -45c0 0 2 -26 15 -43c15 -18 23 -19 41 -19c9 -1 23 -2 31 -2h73c90 0 132 -21 145 -28
c48 -26 66 -74 66 -109c0 -84 -105 -142 -231 -142s-231 57 -231 142c0 10 1 76 82 125c-16 21 -29 44 -29 78c0 28 9 49 23 70c-19 25 -35 56 -35 98c0 83 69 155 160 155c45 0 79 -18 101 -33c50 37 98 38 109 38c47 0 65 -25 65 -45zM342 276c0 60 -48 114 -110 114
c-59 0 -110 -50 -110 -115c0 -60 48 -114 110 -114c59 0 110 50 110 115zM453 -95c0 94 -121 99 -219 99c-79 0 -89 -1 -116 -18c-37 -23 -47 -60 -47 -81c0 -49 80 -100 191 -100c110 0 191 51 191 100zM268 563c0 -23 -18 -41 -41 -41s-41 18 -41 41c0 24 18 42 41 42
s41 -18 41 -42z" />
    <glyph glyph-name="Gcommaaccent" unicode="&#x122;" 
d="M494 238c0 -22 -20 -22 -49 -22v-184c0 -14 0 -32 -25 -32c-26 0 -26 16 -26 61c-37 -43 -78 -72 -133 -72c-119 0 -220 134 -220 317c0 180 100 316 220 316c41 0 80 -14 125 -53c18 42 23 53 38 53c21 0 21 -20 21 -32v-143c0 -16 0 -32 -26 -32c-16 0 -22 6 -24 16
c-20 125 -91 149 -130 149c-84 0 -174 -110 -174 -275c0 -159 85 -274 173 -274c59 0 115 50 129 185h-55c-11 0 -31 0 -31 22c0 20 20 20 31 20h124c11 0 32 0 32 -20zM317 -122c0 -77 -72 -117 -94 -117c-8 0 -15 8 -15 15c0 5 5 9 9 10c27 9 72 30 72 89
c-8 -4 -16 -6 -27 -6c-20 0 -38 15 -38 39c0 20 15 37 39 37c29 0 54 -26 54 -67z" />
    <glyph glyph-name="gcommaaccent" unicode="&#x123;" 
d="M281 643c0 -5 -5 -9 -9 -10c-27 -9 -72 -30 -72 -89c8 4 16 6 27 6c20 0 38 -15 38 -39c0 -20 -15 -37 -39 -37c-29 0 -54 26 -54 67c0 77 72 117 94 117c8 0 15 -8 15 -15zM507 391c0 -23 -18 -32 -31 -32c-8 0 -26 6 -32 36c-24 -2 -50 -7 -83 -25
c22 -37 31 -65 31 -94c0 -86 -71 -156 -160 -156c-48 0 -84 22 -98 31c-9 -23 -12 -40 -12 -45c0 0 2 -26 15 -43c15 -18 23 -19 41 -19c9 -1 23 -2 31 -2h73c90 0 132 -21 145 -28c48 -26 66 -74 66 -109c0 -84 -105 -142 -231 -142s-231 57 -231 142c0 10 1 76 82 125
c-16 21 -29 44 -29 78c0 28 9 49 23 70c-19 25 -35 56 -35 98c0 83 69 155 160 155c45 0 79 -18 101 -33c50 37 98 38 109 38c47 0 65 -25 65 -45zM342 276c0 60 -48 114 -110 114c-59 0 -110 -50 -110 -115c0 -60 48 -114 110 -114c59 0 110 50 110 115zM453 -95
c0 94 -121 99 -219 99c-79 0 -89 -1 -116 -18c-37 -23 -47 -60 -47 -81c0 -49 80 -100 191 -100c110 0 191 51 191 100z" />
    <glyph glyph-name="Hcircumflex" unicode="&#x124;" 
d="M500 21c0 -21 -20 -21 -31 -21h-123c-12 0 -31 0 -31 22c0 20 20 20 31 20h36v255h-240v-255h36c12 0 31 0 31 -21s-20 -21 -31 -21h-123c-11 0 -31 0 -31 21s19 21 31 21h36v527h-36c-11 0 -31 0 -31 20c0 22 19 22 31 22h123c12 0 31 0 31 -22c0 -20 -20 -20 -31 -20
h-36v-230h240v230h-36c-12 0 -31 0 -31 21s20 21 31 21h123c12 0 31 0 31 -22c0 -20 -20 -20 -31 -20h-36v-527h36c12 0 31 0 31 -21zM405 685c0 -12 -7 -22 -24 -22c-6 0 -20 4 -30 7l-89 30l-89 -30c-10 -3 -24 -7 -30 -7c-17 0 -24 10 -24 22c0 8 9 17 22 22l109 40
c9 3 17 3 26 0l107 -40c13 -5 22 -14 22 -22z" />
    <glyph glyph-name="hcircumflex" unicode="&#x125;" 
d="M510 21c0 -21 -20 -21 -31 -21h-158c-11 0 -32 0 -32 21s20 21 32 21h51v245c0 70 -18 102 -80 102c-57 0 -140 -42 -140 -153v-194h56c12 0 32 0 32 -21s-20 -21 -31 -21h-164c-11 0 -31 0 -31 21s20 21 32 21h56v527h-57c-11 0 -31 0 -31 20c0 22 20 22 32 22h75
c27 0 31 -8 31 -32v-217c37 36 81 69 146 69c76 0 124 -42 124 -138v-251h56c12 0 32 0 32 -21zM405 685c0 -12 -7 -22 -24 -22c-6 0 -20 4 -30 7l-89 30l-89 -30c-10 -3 -24 -7 -30 -7c-17 0 -24 10 -24 22c0 8 9 17 22 22l109 40c9 3 17 3 26 0l107 -40
c13 -5 22 -14 22 -22z" />
    <glyph glyph-name="Hbar" unicode="&#x126;" 
d="M500 21c0 -21 -20 -21 -31 -21h-123c-12 0 -31 0 -31 22c0 20 20 20 31 20h36v255h-240v-255h36c12 0 31 0 31 -21s-20 -21 -31 -21h-123c-11 0 -31 0 -31 21s19 21 31 21h36v399h-41c-12 0 -22 10 -22 22s10 22 22 22h41v84h-36c-11 0 -31 0 -31 20c0 22 19 22 31 22
h123c12 0 31 0 31 -22c0 -20 -20 -20 -31 -20h-36v-84h240v84h-36c-12 0 -31 0 -31 21s20 21 31 21h123c12 0 31 0 31 -22c0 -20 -20 -20 -31 -20h-36v-84h41c12 0 22 -10 22 -22s-10 -22 -22 -22h-41v-399h36c12 0 31 0 31 -21zM382 339v102h-240v-102h240z" />
    <glyph glyph-name="hbar" unicode="&#x127;" 
d="M510 21c0 -21 -20 -21 -31 -21h-158c-11 0 -32 0 -32 21s20 21 32 21h51v245c0 70 -18 102 -80 102c-57 0 -140 -42 -140 -153v-194h56c12 0 32 0 32 -21s-20 -21 -31 -21h-164c-11 0 -31 0 -31 21s20 21 32 21h56v433h-62c-12 0 -22 9 -22 21s10 22 22 22h62v51h-57
c-11 0 -31 0 -31 20c0 22 20 22 32 22h75c27 0 31 -8 31 -32v-61h111c12 0 22 -10 22 -22s-10 -21 -22 -21h-111v-113c37 36 81 69 146 69c76 0 124 -42 124 -138v-251h56c12 0 32 0 32 -21z" />
    <glyph glyph-name="Itilde" unicode="&#x128;" 
d="M442 21c0 -21 -21 -21 -32 -21h-295c-11 0 -32 0 -32 22c0 20 21 20 32 20h122v527h-122c-11 0 -32 0 -32 21s21 21 32 21h295c11 0 32 0 32 -22c0 -20 -21 -20 -32 -20h-122v-527h122c11 0 32 0 32 -21zM434 743c0 -13 -29 -35 -47 -48c-22 -17 -48 -32 -74 -32
c-20 0 -35 8 -47 18c-32 29 -42 38 -55 38c-15 0 -45 -16 -79 -48c-5 -4 -10 -8 -18 -8c-11 0 -22 11 -22 22c0 14 29 35 47 49c22 16 49 32 74 32c20 0 35 -9 47 -18c32 -29 42 -39 55 -39c15 0 45 17 79 48c5 5 10 9 18 9c11 0 22 -11 22 -23z" />
    <glyph glyph-name="itilde" unicode="&#x129;" 
d="M451 21c0 -21 -21 -21 -32 -21h-305c-11 0 -32 0 -32 21s20 21 32 21h136v341h-128c-11 0 -32 0 -32 21s21 21 32 21h147c27 0 31 -8 31 -32v-351h119c11 0 32 0 32 -21zM434 592c0 -13 -29 -35 -47 -48c-22 -16 -48 -32 -74 -32c-20 0 -35 8 -47 18
c-32 29 -42 39 -55 39c-15 0 -45 -17 -79 -49c-5 -4 -10 -8 -18 -8c-11 0 -22 11 -22 22c0 14 29 35 47 49c22 16 49 32 74 32c20 0 35 -9 47 -18c32 -29 42 -39 55 -39c15 0 45 17 79 48c5 5 10 9 18 9c11 0 22 -11 22 -23z" />
    <glyph glyph-name="Imacron" unicode="&#x12a;" 
d="M442 21c0 -21 -21 -21 -32 -21h-295c-11 0 -32 0 -32 22c0 20 21 20 32 20h122v527h-122c-11 0 -32 0 -32 21s21 21 32 21h295c11 0 32 0 32 -22c0 -20 -21 -20 -32 -20h-122v-527h122c11 0 32 0 32 -21zM448 704c0 -21 -19 -21 -31 -21h-307c-13 0 -32 0 -32 22
s19 22 31 22h308c13 0 31 0 31 -23z" />
    <glyph glyph-name="imacron" unicode="&#x12b;" 
d="M451 21c0 -21 -21 -21 -32 -21h-305c-11 0 -32 0 -32 21s20 21 32 21h136v341h-128c-11 0 -32 0 -32 21s21 21 32 21h147c27 0 31 -8 31 -32v-351h119c11 0 32 0 32 -21zM448 563c0 -21 -19 -21 -31 -21h-307c-13 0 -32 0 -32 22s19 22 31 22h308c13 0 31 0 31 -23z" />
    <glyph glyph-name="Ibreve" unicode="&#x12c;" 
d="M442 21c0 -21 -21 -21 -32 -21h-295c-11 0 -32 0 -32 22c0 20 21 20 32 20h122v527h-122c-11 0 -32 0 -32 21s21 21 32 21h295c11 0 32 0 32 -22c0 -20 -21 -20 -32 -20h-122v-527h122c11 0 32 0 32 -21zM435 747c0 -74 -108 -74 -172 -74s-172 0 -172 74
c0 13 9 22 22 22c11 0 16 -5 18 -11c9 -34 83 -40 132 -40c48 0 123 6 132 40c2 6 7 11 18 11c14 0 22 -9 22 -22z" />
    <glyph glyph-name="ibreve" unicode="&#x12d;" 
d="M451 21c0 -21 -21 -21 -32 -21h-305c-11 0 -32 0 -32 21s20 21 32 21h136v341h-128c-11 0 -32 0 -32 21s21 21 32 21h147c27 0 31 -8 31 -32v-351h119c11 0 32 0 32 -21zM435 590c0 -74 -108 -74 -172 -74s-172 0 -172 74c0 14 9 22 22 22c11 0 16 -5 18 -11
c9 -34 83 -40 132 -40c48 0 123 6 132 40c2 6 7 11 18 11c14 0 22 -8 22 -22z" />
    <glyph glyph-name="Iogonek" unicode="&#x12e;" 
d="M442 21c0 -21 -21 -21 -32 -21h-104c-45 -26 -85 -72 -85 -124c0 -31 32 -51 55 -51c24 0 51 23 64 42c5 4 18 9 25 3s7 -17 2 -23c-23 -32 -58 -57 -95 -57c-58 0 -92 48 -92 88s15 78 72 122h-137c-11 0 -32 0 -32 22c0 20 21 20 32 20h122v527h-122
c-11 0 -32 0 -32 21s21 21 32 21h295c11 0 32 0 32 -22c0 -20 -21 -20 -32 -20h-122v-527h122c11 0 32 0 32 -21z" />
    <glyph glyph-name="iogonek" unicode="&#x12f;" 
d="M300 571c0 -23 -18 -42 -41 -42s-41 19 -41 42s18 41 41 41s41 -18 41 -41zM451 21c0 -21 -21 -21 -32 -21h-126c-46 -26 -85 -72 -85 -124c0 -31 33 -51 56 -51s50 23 64 42c4 4 17 8 24 3s7 -17 3 -23c-23 -32 -59 -57 -95 -57c-59 0 -92 48 -92 88s18 78 75 122h-129
c-11 0 -32 0 -32 21s20 21 32 21h136v341h-128c-11 0 -32 0 -32 21s21 21 32 21h147c27 0 31 -8 31 -32v-351h119c11 0 32 0 32 -21z" />
    <glyph glyph-name="Idotaccent" unicode="&#x130;" 
d="M442 21c0 -21 -21 -21 -32 -21h-295c-11 0 -32 0 -32 22c0 20 21 20 32 20h122v527h-122c-11 0 -32 0 -32 21s21 21 32 21h295c11 0 32 0 32 -22c0 -20 -21 -20 -32 -20h-122v-527h122c11 0 32 0 32 -21zM304 715c0 -23 -18 -41 -41 -41s-41 18 -41 41s18 42 41 42
s41 -19 41 -42z" />
    <glyph glyph-name="dotlessi" unicode="&#x131;" 
d="M451 21c0 -21 -21 -21 -32 -21h-305c-11 0 -32 0 -32 21s20 21 32 21h136v341h-128c-11 0 -32 0 -32 21s21 21 32 21h147c27 0 31 -8 31 -32v-351h119c11 0 32 0 32 -21z" />
    <glyph glyph-name="Jcircumflex" unicode="&#x134;" 
d="M475 590c0 -21 -20 -21 -32 -21h-41v-441c0 -88 -80 -139 -166 -139c-96 0 -161 42 -161 103c0 26 17 38 36 38c20 0 35 -16 35 -35c0 -12 -3 -16 -12 -28c40 -36 93 -36 102 -36c22 0 115 6 115 103v435h-95c-12 0 -32 0 -32 21s21 21 32 21h187c11 0 32 0 32 -21z
M490 685c0 -12 -7 -22 -24 -22c-6 0 -20 4 -30 7l-89 30l-89 -30c-10 -3 -24 -7 -30 -7c-17 0 -24 10 -24 22c0 8 9 17 22 22l109 40c9 3 17 3 26 0l107 -40c13 -5 22 -14 22 -22z" />
    <glyph glyph-name="jcircumflex" unicode="&#x135;" 
d="M361 -56c0 -62 -35 -180 -177 -180c-38 0 -133 0 -133 69c0 23 18 37 36 37c17 0 35 -14 35 -36l-5 -17s24 -10 73 -10c26 0 61 0 92 43c28 39 29 81 29 99v434h-145c-11 0 -31 0 -31 20c0 22 20 22 32 22h163c27 0 31 -8 31 -32v-449zM462 528c0 -12 -7 -22 -24 -22
c-6 0 -20 9 -30 15l-89 54l-89 -54c-10 -6 -24 -15 -30 -15c-17 0 -24 10 -24 22c0 8 11 15 22 22l103 66c11 7 23 7 34 0l105 -66c11 -7 22 -14 22 -22z" />
    <glyph glyph-name="Kcommaaccent" unicode="&#x136;" 
d="M493 21c0 -21 -21 -21 -33 -21h-77c-12 0 -32 0 -32 22c0 20 20 20 49 20l-161 288l-108 -136v-152h33c12 0 32 0 32 -21s-21 -21 -32 -21h-104c-12 0 -32 0 -32 22c0 20 21 20 32 20h31v527h-31c-12 0 -32 0 -32 21s21 21 32 21h104c12 0 32 0 32 -22
c0 -20 -21 -20 -32 -20h-33v-315l250 315c-32 0 -54 0 -54 20c0 22 21 22 32 22h91c11 0 32 0 32 -21s-19 -21 -53 -21l-165 -208l179 -319c29 0 50 0 50 -21zM317 -122c0 -77 -72 -117 -94 -117c-8 0 -15 8 -15 15c0 5 5 9 9 10c27 9 72 30 72 89c-8 -4 -16 -6 -27 -6
c-20 0 -38 15 -38 39c0 20 15 37 39 37c29 0 54 -26 54 -67z" />
    <glyph glyph-name="kcommaaccent" unicode="&#x137;" 
d="M506 21c0 -21 -21 -21 -32 -21h-122c-11 0 -31 0 -31 21s16 19 66 19l-140 183l-95 -85v-96h61c12 0 31 0 31 -21s-19 -21 -31 -21h-159c-12 0 -31 0 -31 22c0 20 20 20 31 20h54v527h-54c-12 0 -31 0 -31 21s20 21 31 21h67c27 0 31 -8 31 -32v-388l204 192h-64
c-11 0 -31 0 -31 20c0 22 19 22 31 22h159c11 0 32 0 32 -22c0 -20 -21 -20 -32 -20h-37l-137 -130l162 -211h35c11 0 32 0 32 -21zM317 -122c0 -77 -72 -117 -94 -117c-8 0 -15 8 -15 15c0 5 5 9 9 10c27 9 72 30 72 89c-8 -4 -16 -6 -27 -6c-20 0 -38 15 -38 39
c0 20 15 37 39 37c29 0 54 -26 54 -67z" />
    <glyph glyph-name="Lacute" unicode="&#x139;" 
d="M485 32c0 -25 -5 -32 -31 -32h-388c-12 0 -31 0 -31 21s19 21 31 21h48v527h-48c-12 0 -31 0 -31 20c0 22 19 22 31 22h167c11 0 32 0 32 -22c0 -20 -21 -20 -32 -20h-68v-527h270v82c0 16 0 32 25 32s25 -17 25 -32v-92zM243 765c0 -8 -4 -18 -23 -26l-144 -64
c-2 -1 -7 -2 -7 -2c-20 0 -24 25 -24 31c0 12 9 16 19 21l138 62c9 4 15 4 15 4c15 0 26 -11 26 -26z" />
    <glyph glyph-name="lacute" unicode="&#x13a;" 
d="M464 21c0 -21 -20 -21 -31 -21h-341c-10 0 -31 0 -31 21s20 21 32 21h144v527h-145c-10 0 -31 0 -31 20c0 22 20 22 32 22h164c26 0 31 -8 31 -32v-537h145c12 0 31 0 31 -21zM362 765c0 -8 -4 -18 -23 -26l-144 -64c-2 -1 -7 -2 -7 -2c-20 0 -24 25 -24 31
c0 12 9 16 19 21l138 62c9 4 15 4 15 4c15 0 26 -11 26 -26z" />
    <glyph glyph-name="Lcommaaccent" unicode="&#x13b;" 
d="M485 32c0 -25 -5 -32 -31 -32h-388c-12 0 -31 0 -31 21s19 21 31 21h48v527h-48c-12 0 -31 0 -31 20c0 22 19 22 31 22h167c11 0 32 0 32 -22c0 -20 -21 -20 -32 -20h-68v-527h270v82c0 16 0 32 25 32s25 -17 25 -32v-92zM317 -122c0 -77 -72 -117 -94 -117
c-8 0 -15 8 -15 15c0 5 5 9 9 10c27 9 72 30 72 89c-8 -4 -16 -6 -27 -6c-20 0 -38 15 -38 39c0 20 15 37 39 37c29 0 54 -26 54 -67z" />
    <glyph glyph-name="lcommaaccent" unicode="&#x13c;" 
d="M464 21c0 -21 -20 -21 -31 -21h-341c-10 0 -31 0 -31 21s20 21 32 21h144v527h-145c-10 0 -31 0 -31 20c0 22 20 22 32 22h164c26 0 31 -8 31 -32v-537h145c12 0 31 0 31 -21zM317 -122c0 -77 -72 -117 -94 -117c-8 0 -15 8 -15 15c0 5 5 9 9 10c27 9 72 30 72 89
c-8 -4 -16 -6 -27 -6c-20 0 -38 15 -38 39c0 20 15 37 39 37c29 0 54 -26 54 -67z" />
    <glyph glyph-name="Lcaron" unicode="&#x13d;" 
d="M485 32c0 -25 -5 -32 -31 -32h-388c-12 0 -31 0 -31 21s19 21 31 21h48v527h-48c-12 0 -31 0 -31 20c0 22 19 22 31 22h167c11 0 32 0 32 -22c0 -20 -21 -20 -32 -20h-68v-527h270v82c0 16 0 32 25 32s25 -17 25 -32v-92zM432 544c0 -77 -72 -117 -94 -117
c-8 0 -15 8 -15 15c0 5 5 9 9 10c27 9 72 30 72 89c-8 -4 -16 -6 -27 -6c-20 0 -38 15 -38 39c0 20 15 37 39 37c29 0 54 -26 54 -67z" />
    <glyph glyph-name="lcaron" unicode="&#x13e;" 
d="M464 21c0 -21 -20 -21 -31 -21h-341c-10 0 -31 0 -31 21s20 21 32 21h144v527h-145c-10 0 -31 0 -31 20c0 22 20 22 32 22h164c26 0 31 -8 31 -32v-537h145c12 0 31 0 31 -21zM436 544c0 -77 -72 -117 -94 -117c-8 0 -15 8 -15 15c0 5 5 9 9 10c27 9 72 30 72 89
c-8 -4 -16 -6 -27 -6c-20 0 -38 15 -38 39c0 20 15 37 39 37c29 0 54 -26 54 -67z" />
    <glyph glyph-name="Ldot" unicode="&#x13f;" 
d="M485 32c0 -25 -5 -32 -31 -32h-388c-12 0 -31 0 -31 21s19 21 31 21h48v527h-48c-12 0 -31 0 -31 20c0 22 19 22 31 22h167c11 0 32 0 32 -22c0 -20 -21 -20 -32 -20h-68v-527h270v82c0 16 0 32 25 32s25 -17 25 -32v-92zM443 316c0 -23 -18 -41 -41 -41s-41 18 -41 41
c0 24 18 42 41 42s41 -18 41 -42z" />
    <glyph glyph-name="ldot" unicode="&#x140;" 
d="M464 21c0 -21 -20 -21 -31 -21h-341c-10 0 -31 0 -31 21s20 21 32 21h144v527h-145c-10 0 -31 0 -31 20c0 22 20 22 32 22h164c26 0 31 -8 31 -32v-537h145c12 0 31 0 31 -21zM566 316c0 -23 -18 -41 -41 -41s-41 18 -41 41c0 24 18 42 41 42s41 -18 41 -42z" />
    <glyph glyph-name="Lslash" unicode="&#x141;" 
d="M485 32c0 -25 -5 -32 -31 -32h-388c-12 0 -31 0 -31 21s19 21 31 21h48v238l-52 -36c-10 -7 -22 -4 -28 5s-3 22 5 28l75 52v240h-48c-12 0 -31 0 -31 20c0 22 19 22 31 22h167c11 0 32 0 32 -22c0 -20 -21 -20 -32 -20h-68v-206l191 130c9 6 21 2 27 -7s4 -22 -5 -28
l-213 -143v-273h270v82c0 16 0 32 25 32s25 -17 25 -32v-92z" />
    <glyph glyph-name="lslash" unicode="&#x142;" 
d="M464 21c0 -21 -20 -21 -31 -21h-341c-10 0 -31 0 -31 21s20 21 32 21h144v285l-121 -83c-10 -7 -22 -4 -28 5s-4 22 5 28l144 98v194h-145c-10 0 -31 0 -31 20c0 22 20 22 32 22h164c26 0 31 -8 31 -32v-168l121 82c9 6 20 3 27 -6s5 -23 -4 -29l-144 -97v-319h145
c12 0 31 0 31 -21z" />
    <glyph glyph-name="Nacute" unicode="&#x143;" 
d="M494 589c0 -20 -20 -20 -31 -20h-37v-537c0 -30 -9 -32 -33 -32c-22 0 -38 1 -49 30l-200 539h-9v-527h36c12 0 31 0 31 -21s-20 -21 -31 -21h-110c-12 0 -31 0 -31 22c0 20 20 20 31 20h37v527h-37c-12 0 -31 0 -31 21s20 21 31 21h71c23 0 37 -2 48 -30l200 -539h9v527
h-36c-11 0 -31 0 -31 20c0 22 19 22 31 22h110c12 0 31 0 31 -22zM362 765c0 -8 -4 -18 -23 -26l-144 -64c-2 -1 -7 -2 -7 -2c-20 0 -24 25 -24 31c0 12 9 16 19 21l138 62c9 4 15 4 15 4c15 0 26 -11 26 -26z" />
    <glyph glyph-name="nacute" unicode="&#x144;" 
d="M510 21c0 -21 -20 -21 -31 -21h-158c-11 0 -32 0 -32 21s20 21 32 21h51v245c0 70 -18 102 -80 102c-57 0 -140 -42 -140 -153v-194h56c12 0 32 0 32 -21s-20 -21 -31 -21h-164c-11 0 -31 0 -31 21s20 21 32 21h56v341h-57c-11 0 -31 0 -31 20c0 22 20 22 32 22h75
c31 0 31 -13 31 -63c37 36 81 69 146 69c76 0 124 -42 124 -138v-251h56c12 0 32 0 32 -21zM362 597c0 -9 -4 -19 -23 -27l-144 -64c-2 -1 -7 -1 -7 -1c-20 0 -24 24 -24 31c0 12 9 16 19 20l138 62c9 4 15 4 15 4c15 0 26 -11 26 -25z" />
    <glyph glyph-name="Ncommaaccent" unicode="&#x145;" 
d="M494 589c0 -20 -20 -20 -31 -20h-37v-537c0 -30 -9 -32 -33 -32c-22 0 -38 1 -49 30l-200 539h-9v-527h36c12 0 31 0 31 -21s-20 -21 -31 -21h-110c-12 0 -31 0 -31 22c0 20 20 20 31 20h37v527h-37c-12 0 -31 0 -31 21s20 21 31 21h71c23 0 37 -2 48 -30l200 -539h9v527
h-36c-11 0 -31 0 -31 20c0 22 19 22 31 22h110c12 0 31 0 31 -22zM317 -122c0 -77 -72 -117 -94 -117c-8 0 -15 8 -15 15c0 5 5 9 9 10c27 9 72 30 72 89c-8 -4 -16 -6 -27 -6c-20 0 -38 15 -38 39c0 20 15 37 39 37c29 0 54 -26 54 -67z" />
    <glyph glyph-name="ncommaaccent" unicode="&#x146;" 
d="M510 21c0 -21 -20 -21 -31 -21h-158c-11 0 -32 0 -32 21s20 21 32 21h51v245c0 70 -18 102 -80 102c-57 0 -140 -42 -140 -153v-194h56c12 0 32 0 32 -21s-20 -21 -31 -21h-164c-11 0 -31 0 -31 21s20 21 32 21h56v341h-57c-11 0 -31 0 -31 20c0 22 20 22 32 22h75
c31 0 31 -13 31 -63c37 36 81 69 146 69c76 0 124 -42 124 -138v-251h56c12 0 32 0 32 -21zM317 -122c0 -77 -72 -117 -94 -117c-8 0 -15 8 -15 15c0 5 5 9 9 10c27 9 72 30 72 89c-8 -4 -16 -6 -27 -6c-20 0 -38 15 -38 39c0 20 15 37 39 37c29 0 54 -26 54 -67z" />
    <glyph glyph-name="Ncaron" unicode="&#x147;" 
d="M494 589c0 -20 -20 -20 -31 -20h-37v-537c0 -30 -9 -32 -33 -32c-22 0 -38 1 -49 30l-200 539h-9v-527h36c12 0 31 0 31 -21s-20 -21 -31 -21h-110c-12 0 -31 0 -31 22c0 20 20 20 31 20h37v527h-37c-12 0 -31 0 -31 21s20 21 31 21h71c23 0 37 -2 48 -30l200 -539h9v527
h-36c-11 0 -31 0 -31 20c0 22 19 22 31 22h110c12 0 31 0 31 -22zM405 728c0 -8 -9 -17 -22 -22l-109 -40c-9 -3 -17 -3 -26 0l-107 40c-13 5 -22 14 -22 22c0 12 7 22 24 22c6 0 20 -4 30 -7l89 -30l89 30c10 3 24 7 30 7c17 0 24 -10 24 -22z" />
    <glyph glyph-name="ncaron" unicode="&#x148;" 
d="M510 21c0 -21 -20 -21 -31 -21h-158c-11 0 -32 0 -32 21s20 21 32 21h51v245c0 70 -18 102 -80 102c-57 0 -140 -42 -140 -153v-194h56c12 0 32 0 32 -21s-20 -21 -31 -21h-164c-11 0 -31 0 -31 21s20 21 32 21h56v341h-57c-11 0 -31 0 -31 20c0 22 20 22 32 22h75
c31 0 31 -13 31 -63c37 36 81 69 146 69c76 0 124 -42 124 -138v-251h56c12 0 32 0 32 -21zM406 599c0 -8 -11 -15 -22 -22l-103 -66c-11 -7 -23 -7 -34 0l-105 66c-11 7 -22 14 -22 22c0 12 7 22 24 22c6 0 20 -9 30 -15l89 -54l89 54c10 6 24 15 30 15c17 0 24 -10 24 -22
z" />
    <glyph glyph-name="Eng" unicode="&#x14a;" 
d="M487 306c0 -149 -7 -317 -134 -317c-19 0 -35 16 -35 35s16 35 35 35c8 0 16 -2 27 -12c53 38 56 158 56 259c0 129 -36 265 -146 265c-74 0 -129 -62 -138 -138v-391h56c12 0 32 0 32 -21s-20 -21 -31 -21h-164c-11 0 -31 0 -31 21s20 21 32 21h56v527h-57
c-11 0 -31 0 -31 20c0 22 20 22 32 22h75c26 0 31 -8 31 -54c50 47 91 65 138 65c137 0 197 -160 197 -316z" />
    <glyph glyph-name="eng" unicode="&#x14b;" 
d="M458 53c0 -71 -5 -146 -24 -203c-19 -54 -51 -91 -108 -91c-15 0 -26 11 -26 26c0 14 11 26 26 26c75 0 82 132 82 242v234c0 70 -18 102 -80 102c-57 0 -139 -42 -139 -153v-194h55c12 0 32 0 32 -21s-20 -21 -31 -21h-164c-10 0 -31 0 -31 21s20 21 32 21h56v341h-57
c-10 0 -31 0 -31 20c0 22 20 22 32 22h76c31 0 31 -13 31 -63c36 36 80 69 145 69c76 0 124 -42 124 -138v-240z" />
    <glyph glyph-name="Omacron" unicode="&#x14c;" 
d="M465 305c0 -288 -20 -316 -203 -316c-184 0 -203 28 -203 316c0 289 19 317 203 317s203 -29 203 -317zM414 314c0 64 0 143 -13 192c-17 62 -55 74 -139 74c-92 0 -126 -15 -140 -81c-12 -49 -12 -120 -12 -185c0 -57 0 -148 13 -202c13 -56 40 -81 139 -81
c100 0 128 25 140 88c12 56 12 130 12 195zM448 704c0 -21 -19 -21 -31 -21h-307c-13 0 -32 0 -32 22s19 22 31 22h308c13 0 31 0 31 -23z" />
    <glyph glyph-name="omacron" unicode="&#x14d;" 
d="M464 213c0 -124 -94 -219 -202 -219s-202 94 -202 219c0 123 92 221 202 221s202 -98 202 -221zM413 220c0 101 -72 172 -151 172c-78 0 -151 -71 -151 -172c0 -102 69 -184 151 -184c81 0 151 82 151 184zM448 563c0 -21 -19 -21 -31 -21h-307c-13 0 -32 0 -32 22
s19 22 31 22h308c13 0 31 0 31 -23z" />
    <glyph glyph-name="Obreve" unicode="&#x14e;" 
d="M465 305c0 -288 -20 -316 -203 -316c-184 0 -203 28 -203 316c0 289 19 317 203 317s203 -29 203 -317zM414 314c0 64 0 143 -13 192c-17 62 -55 74 -139 74c-92 0 -126 -15 -140 -81c-12 -49 -12 -120 -12 -185c0 -57 0 -148 13 -202c13 -56 40 -81 139 -81
c100 0 128 25 140 88c12 56 12 130 12 195zM435 747c0 -74 -108 -74 -172 -74s-172 0 -172 74c0 13 9 22 22 22c11 0 16 -5 18 -11c9 -34 83 -40 132 -40c48 0 123 6 132 40c2 6 7 11 18 11c14 0 22 -9 22 -22z" />
    <glyph glyph-name="obreve" unicode="&#x14f;" 
d="M464 213c0 -124 -94 -219 -202 -219s-202 94 -202 219c0 123 92 221 202 221s202 -98 202 -221zM413 220c0 101 -72 172 -151 172c-78 0 -151 -71 -151 -172c0 -102 69 -184 151 -184c81 0 151 82 151 184zM435 590c0 -74 -108 -74 -172 -74s-172 0 -172 74
c0 14 9 22 22 22c11 0 16 -5 18 -11c9 -34 83 -40 132 -40c48 0 123 6 132 40c2 6 7 11 18 11c14 0 22 -8 22 -22z" />
    <glyph glyph-name="Ohungarumlaut" unicode="&#x150;" 
d="M465 305c0 -288 -20 -316 -203 -316c-184 0 -203 28 -203 316c0 289 19 317 203 317s203 -29 203 -317zM414 314c0 64 0 143 -13 192c-17 62 -55 74 -139 74c-92 0 -126 -15 -140 -81c-12 -49 -12 -120 -12 -185c0 -57 0 -148 13 -202c13 -56 40 -81 139 -81
c100 0 128 25 140 88c12 56 12 130 12 195zM230 771c0 -9 -15 -22 -26 -32l-48 -45c-7 -7 -23 -21 -31 -21c-13 0 -28 17 -28 30c0 5 6 12 10 16l65 62c11 10 20 15 32 17c14 0 26 -13 26 -27zM431 771c0 -9 -15 -22 -26 -32l-48 -45c-7 -7 -23 -21 -31 -21
c-13 0 -28 17 -28 30c0 5 6 12 10 16l65 62c11 10 20 15 32 17c14 0 26 -13 26 -27z" />
    <glyph glyph-name="ohungarumlaut" unicode="&#x151;" 
d="M464 213c0 -124 -94 -219 -202 -219s-202 94 -202 219c0 123 92 221 202 221s202 -98 202 -221zM413 220c0 101 -72 172 -151 172c-78 0 -151 -71 -151 -172c0 -102 69 -184 151 -184c81 0 151 82 151 184zM230 599c0 -9 -15 -22 -26 -32l-48 -45c-7 -7 -23 -21 -31 -21
c-13 0 -28 17 -28 30c0 5 6 12 10 16l65 62c11 10 20 15 32 17c14 0 26 -13 26 -27zM431 599c0 -9 -15 -22 -26 -32l-48 -45c-7 -7 -23 -21 -31 -21c-13 0 -28 17 -28 30c0 5 6 12 10 16l65 62c11 10 20 15 32 17c14 0 26 -13 26 -27z" />
    <glyph glyph-name="OE" unicode="&#x152;" 
d="M500 32c0 -25 -6 -32 -31 -32h-171c-10 0 -25 0 -46 -4c-34 -7 -41 -7 -61 -7c-106 0 -133 28 -145 87c-15 64 -15 147 -15 230c0 129 3 182 16 236c14 63 54 80 144 80c17 0 28 0 56 -6c26 -5 38 -5 51 -5h164c26 0 31 -8 31 -32v-76c0 -10 0 -32 -19 -32s-19 22 -19 32
v66h-145v-231h136c12 0 31 0 31 -22c0 -20 -20 -20 -31 -20h-136v-254h153v82c0 11 0 32 18 32c19 0 19 -21 19 -32v-92zM272 167v277c0 121 -23 136 -77 136c-122 0 -126 -56 -126 -266c0 -219 5 -283 128 -283c53 0 75 19 75 136z" />
    <glyph glyph-name="oe" unicode="&#x153;" 
d="M503 101c0 -17 -24 -107 -100 -107c-58 0 -95 50 -121 105c-28 -55 -65 -105 -121 -105c-78 0 -140 94 -140 220s62 220 140 220c60 0 96 -56 120 -102c29 59 62 102 111 102c67 0 111 -74 111 -203c0 -25 -4 -34 -31 -34h-172c9 -97 59 -161 107 -161c26 0 49 24 59 69
c1 5 5 16 18 16c10 0 19 -8 19 -20zM465 239c-6 125 -47 153 -73 153c-38 0 -82 -62 -91 -153h164zM263 220c0 105 -54 172 -102 172s-103 -66 -103 -172s54 -184 103 -184c48 0 102 78 102 184z" />
    <glyph glyph-name="Racute" unicode="&#x154;" 
d="M520 86c0 -35 -21 -97 -79 -97c-30 0 -55 13 -71 38c-20 35 -20 66 -20 130c0 47 -1 72 -26 96c-36 31 -70 31 -91 31h-91v-242h36c12 0 31 0 31 -21s-20 -21 -31 -21h-123c-11 0 -31 0 -31 21s19 21 31 21h36v527h-36c-11 0 -31 0 -31 20c0 22 19 22 31 22h183
c115 0 190 -79 190 -163c0 -40 -18 -99 -96 -143c26 -20 48 -40 60 -68c9 -22 9 -31 9 -93s6 -113 39 -113c22 0 30 46 30 57c1 21 17 21 25 21s25 0 25 -23zM378 448c0 53 -48 121 -151 121h-85v-242h85c102 0 151 66 151 121zM362 765c0 -8 -4 -18 -23 -26l-144 -64
c-2 -1 -7 -2 -7 -2c-20 0 -24 25 -24 31c0 12 9 16 19 21l138 62c9 4 15 4 15 4c15 0 26 -11 26 -26z" />
    <glyph glyph-name="racute" unicode="&#x155;" 
d="M484 377c0 -21 -15 -34 -33 -34c-20 0 -34 17 -34 46c-142 0 -207 -105 -207 -207v-140h125c12 0 32 0 32 -21s-20 -21 -32 -21h-269c-12 0 -31 0 -31 22c0 20 19 20 31 20h94v341h-94c-12 0 -31 0 -31 21s19 21 31 21h113c27 0 31 -8 31 -32v-63c73 83 136 101 186 101
c76 0 88 -35 88 -54zM362 597c0 -9 -4 -19 -23 -27l-144 -64c-2 -1 -7 -1 -7 -1c-20 0 -24 24 -24 31c0 12 9 16 19 20l138 62c9 4 15 4 15 4c15 0 26 -11 26 -25z" />
    <glyph glyph-name="Rcommaaccent" unicode="&#x156;" 
d="M520 86c0 -35 -21 -97 -79 -97c-30 0 -55 13 -71 38c-20 35 -20 66 -20 130c0 47 -1 72 -26 96c-36 31 -70 31 -91 31h-91v-242h36c12 0 31 0 31 -21s-20 -21 -31 -21h-123c-11 0 -31 0 -31 21s19 21 31 21h36v527h-36c-11 0 -31 0 -31 20c0 22 19 22 31 22h183
c115 0 190 -79 190 -163c0 -40 -18 -99 -96 -143c26 -20 48 -40 60 -68c9 -22 9 -31 9 -93s6 -113 39 -113c22 0 30 46 30 57c1 21 17 21 25 21s25 0 25 -23zM378 448c0 53 -48 121 -151 121h-85v-242h85c102 0 151 66 151 121zM317 -122c0 -77 -72 -117 -94 -117
c-8 0 -15 8 -15 15c0 5 5 9 9 10c27 9 72 30 72 89c-8 -4 -16 -6 -27 -6c-20 0 -38 15 -38 39c0 20 15 37 39 37c29 0 54 -26 54 -67z" />
    <glyph glyph-name="rcommaaccent" unicode="&#x157;" 
d="M484 377c0 -21 -15 -34 -33 -34c-20 0 -34 17 -34 46c-142 0 -207 -105 -207 -207v-140h125c12 0 32 0 32 -21s-20 -21 -32 -21h-269c-12 0 -31 0 -31 22c0 20 19 20 31 20h94v341h-94c-12 0 -31 0 -31 21s19 21 31 21h113c27 0 31 -8 31 -32v-63c73 83 136 101 186 101
c76 0 88 -35 88 -54zM242 -122c0 -77 -72 -117 -94 -117c-8 0 -15 8 -15 15c0 5 5 9 9 10c27 9 72 30 72 89c-8 -4 -16 -6 -27 -6c-20 0 -38 15 -38 39c0 20 15 37 39 37c29 0 54 -26 54 -67z" />
    <glyph glyph-name="Rcaron" unicode="&#x158;" 
d="M520 86c0 -35 -21 -97 -79 -97c-30 0 -55 13 -71 38c-20 35 -20 66 -20 130c0 47 -1 72 -26 96c-36 31 -70 31 -91 31h-91v-242h36c12 0 31 0 31 -21s-20 -21 -31 -21h-123c-11 0 -31 0 -31 21s19 21 31 21h36v527h-36c-11 0 -31 0 -31 20c0 22 19 22 31 22h183
c115 0 190 -79 190 -163c0 -40 -18 -99 -96 -143c26 -20 48 -40 60 -68c9 -22 9 -31 9 -93s6 -113 39 -113c22 0 30 46 30 57c1 21 17 21 25 21s25 0 25 -23zM378 448c0 53 -48 121 -151 121h-85v-242h85c102 0 151 66 151 121zM405 728c0 -8 -9 -17 -22 -22l-109 -40
c-9 -3 -17 -3 -26 0l-107 40c-13 5 -22 14 -22 22c0 12 7 22 24 22c6 0 20 -4 30 -7l89 -30l89 30c10 3 24 7 30 7c17 0 24 -10 24 -22z" />
    <glyph glyph-name="rcaron" unicode="&#x159;" 
d="M484 377c0 -21 -15 -34 -33 -34c-20 0 -34 17 -34 46c-142 0 -207 -105 -207 -207v-140h125c12 0 32 0 32 -21s-20 -21 -32 -21h-269c-12 0 -31 0 -31 22c0 20 19 20 31 20h94v341h-94c-12 0 -31 0 -31 21s19 21 31 21h113c27 0 31 -8 31 -32v-63c73 83 136 101 186 101
c76 0 88 -35 88 -54zM406 599c0 -8 -11 -15 -22 -22l-103 -66c-11 -7 -23 -7 -34 0l-105 66c-11 7 -22 14 -22 22c0 12 7 22 24 22c6 0 20 -9 30 -15l89 -54l89 54c10 6 24 15 30 15c17 0 24 -10 24 -22z" />
    <glyph glyph-name="Sacute" unicode="&#x15a;" 
d="M469 161c0 -87 -71 -172 -184 -172c-64 0 -125 15 -177 54c-11 -41 -15 -54 -32 -54c-21 0 -21 20 -21 32v136c0 15 0 32 26 32c23 0 24 -14 25 -26c1 -21 6 -68 53 -98c43 -29 96 -34 127 -34c88 0 136 67 136 125c0 97 -91 120 -123 127l-118 28
c-81 23 -126 87 -126 152c0 83 74 159 182 159c45 0 98 -11 151 -56c11 40 15 56 32 56c21 0 21 -20 21 -32v-136c0 -15 0 -32 -26 -32c-13 0 -21 3 -24 15c-8 40 -28 143 -155 143c-80 0 -134 -55 -134 -113c0 -53 42 -93 90 -107l84 -19c78 -18 105 -24 146 -64
c12 -13 47 -54 47 -116zM362 765c0 -8 -4 -18 -23 -26l-144 -64c-2 -1 -7 -2 -7 -2c-20 0 -24 25 -24 31c0 12 9 16 19 21l138 62c9 4 15 4 15 4c15 0 26 -11 26 -26z" />
    <glyph glyph-name="sacute" unicode="&#x15b;" 
d="M455 119c0 -47 -32 -125 -186 -125c-27 0 -80 2 -140 46c-14 -44 -25 -46 -32 -46c-21 0 -21 20 -21 32v100c0 15 0 32 26 32c14 0 19 -5 23 -12c31 -97 93 -110 145 -110c103 0 143 41 143 83c0 59 -87 78 -142 87c-90 13 -195 29 -195 117c0 34 24 111 186 111
c19 0 63 0 117 -26c5 17 8 26 25 26c20 0 20 -20 20 -32v-71c0 -15 0 -32 -26 -32c-16 0 -21 6 -23 15c-5 41 -20 78 -115 78c-108 0 -142 -40 -142 -69c0 -45 76 -63 109 -68l71 -12c31 -5 157 -25 157 -124zM362 597c0 -9 -4 -19 -23 -27l-144 -64c-2 -1 -7 -1 -7 -1
c-20 0 -24 24 -24 31c0 12 9 16 19 20l138 62c9 4 15 4 15 4c15 0 26 -11 26 -25z" />
    <glyph glyph-name="Scircumflex" unicode="&#x15c;" 
d="M469 161c0 -87 -71 -172 -184 -172c-64 0 -125 15 -177 54c-11 -41 -15 -54 -32 -54c-21 0 -21 20 -21 32v136c0 15 0 32 26 32c23 0 24 -14 25 -26c1 -21 6 -68 53 -98c43 -29 96 -34 127 -34c88 0 136 67 136 125c0 97 -91 120 -123 127l-118 28
c-81 23 -126 87 -126 152c0 83 74 159 182 159c45 0 98 -11 151 -56c11 40 15 56 32 56c21 0 21 -20 21 -32v-136c0 -15 0 -32 -26 -32c-13 0 -21 3 -24 15c-8 40 -28 143 -155 143c-80 0 -134 -55 -134 -113c0 -53 42 -93 90 -107l84 -19c78 -18 105 -24 146 -64
c12 -13 47 -54 47 -116zM405 685c0 -12 -7 -22 -24 -22c-6 0 -20 4 -30 7l-89 30l-89 -30c-10 -3 -24 -7 -30 -7c-17 0 -24 10 -24 22c0 8 9 17 22 22l109 40c9 3 17 3 26 0l107 -40c13 -5 22 -14 22 -22z" />
    <glyph glyph-name="scircumflex" unicode="&#x15d;" 
d="M455 119c0 -47 -32 -125 -186 -125c-27 0 -80 2 -140 46c-14 -44 -25 -46 -32 -46c-21 0 -21 20 -21 32v100c0 15 0 32 26 32c14 0 19 -5 23 -12c31 -97 93 -110 145 -110c103 0 143 41 143 83c0 59 -87 78 -142 87c-90 13 -195 29 -195 117c0 34 24 111 186 111
c19 0 63 0 117 -26c5 17 8 26 25 26c20 0 20 -20 20 -32v-71c0 -15 0 -32 -26 -32c-16 0 -21 6 -23 15c-5 41 -20 78 -115 78c-108 0 -142 -40 -142 -69c0 -45 76 -63 109 -68l71 -12c31 -5 157 -25 157 -124zM406 528c0 -12 -7 -22 -24 -22c-6 0 -20 9 -30 15l-89 54
l-89 -54c-10 -6 -24 -15 -30 -15c-17 0 -24 10 -24 22c0 8 11 15 22 22l103 66c11 7 23 7 34 0l105 -66c11 -7 22 -14 22 -22z" />
    <glyph glyph-name="Scedilla" unicode="&#x15e;" 
d="M469 161c0 -79 -58 -156 -162 -172v-29c76 -14 103 -55 103 -91c0 -95 -140 -95 -233 -95c-10 0 -22 5 -22 21c0 22 21 22 52 22c43 0 152 7 152 52c0 24 -26 49 -79 51c-23 2 -23 18 -23 33v37c-59 6 -105 20 -149 53c-11 -41 -15 -54 -32 -54c-21 0 -21 20 -21 32v136
c0 15 0 32 26 32c23 0 24 -14 25 -26c1 -21 6 -68 53 -98c43 -29 96 -34 127 -34c88 0 136 67 136 125c0 97 -91 120 -123 127l-118 28c-81 23 -126 87 -126 152c0 83 74 159 182 159c45 0 98 -11 151 -56c11 40 15 56 32 56c21 0 21 -20 21 -32v-136c0 -15 0 -32 -26 -32
c-13 0 -21 3 -24 15c-8 40 -28 143 -155 143c-80 0 -134 -55 -134 -113c0 -53 42 -93 90 -107l84 -19c78 -18 105 -24 146 -64c12 -13 47 -54 47 -116z" />
    <glyph glyph-name="scedilla" unicode="&#x15f;" 
d="M455 119c0 -75 -68 -117 -148 -123v-25c24 -2 103 -22 103 -91c0 -95 -140 -95 -233 -95c-10 0 -22 6 -22 22c0 21 21 21 52 21c43 0 152 7 152 52c0 24 -26 49 -79 52c-23 1 -23 17 -23 33v29c-38 3 -79 10 -128 46c-14 -44 -25 -46 -32 -46c-21 0 -21 20 -21 32v100
c0 15 0 32 26 32c14 0 19 -5 23 -12c31 -97 93 -110 145 -110c103 0 143 41 143 83c0 59 -87 78 -142 87c-90 13 -195 29 -195 117c0 34 24 111 186 111c19 0 63 0 117 -26c5 17 8 26 25 26c20 0 20 -20 20 -32v-71c0 -15 0 -32 -26 -32c-16 0 -21 6 -23 15
c-5 41 -20 78 -115 78c-108 0 -142 -40 -142 -69c0 -45 76 -63 109 -68l71 -12c31 -5 157 -25 157 -124z" />
    <glyph glyph-name="Scaron" unicode="&#x160;" 
d="M469 161c0 -87 -71 -172 -184 -172c-64 0 -125 15 -177 54c-11 -41 -15 -54 -32 -54c-21 0 -21 20 -21 32v136c0 15 0 32 26 32c23 0 24 -14 25 -26c1 -21 6 -68 53 -98c43 -29 96 -34 127 -34c88 0 136 67 136 125c0 97 -91 120 -123 127l-118 28
c-81 23 -126 87 -126 152c0 83 74 159 182 159c45 0 98 -11 151 -56c11 40 15 56 32 56c21 0 21 -20 21 -32v-136c0 -15 0 -32 -26 -32c-13 0 -21 3 -24 15c-8 40 -28 143 -155 143c-80 0 -134 -55 -134 -113c0 -53 42 -93 90 -107l84 -19c78 -18 105 -24 146 -64
c12 -13 47 -54 47 -116zM405 728c0 -8 -9 -17 -22 -22l-109 -40c-9 -3 -17 -3 -26 0l-107 40c-13 5 -22 14 -22 22c0 12 7 22 24 22c6 0 20 -4 30 -7l89 -30l89 30c10 3 24 7 30 7c17 0 24 -10 24 -22z" />
    <glyph glyph-name="scaron" unicode="&#x161;" 
d="M455 119c0 -47 -32 -125 -186 -125c-27 0 -80 2 -140 46c-14 -44 -25 -46 -32 -46c-21 0 -21 20 -21 32v100c0 15 0 32 26 32c14 0 19 -5 23 -12c31 -97 93 -110 145 -110c103 0 143 41 143 83c0 59 -87 78 -142 87c-90 13 -195 29 -195 117c0 34 24 111 186 111
c19 0 63 0 117 -26c5 17 8 26 25 26c20 0 20 -20 20 -32v-71c0 -15 0 -32 -26 -32c-16 0 -21 6 -23 15c-5 41 -20 78 -115 78c-108 0 -142 -40 -142 -69c0 -45 76 -63 109 -68l71 -12c31 -5 157 -25 157 -124zM406 599c0 -8 -11 -15 -22 -22l-103 -66c-11 -7 -23 -7 -34 0
l-105 66c-11 7 -22 14 -22 22c0 12 7 22 24 22c6 0 20 -9 30 -15l89 -54l89 54c10 6 24 15 30 15c17 0 24 -10 24 -22z" />
    <glyph glyph-name="Tcedilla" unicode="&#x162;" 
d="M496 503c0 -15 0 -32 -26 -32c-25 0 -25 18 -25 32v66h-157v-527h64c12 0 31 0 31 -21s-20 -21 -31 -21h-65c1 -8 1 -18 1 -31c75 -15 102 -55 102 -92c0 -95 -139 -95 -232 -95c-11 0 -22 6 -22 22c0 21 20 21 52 21c42 0 152 7 152 52c0 24 -26 49 -79 52
c-24 1 -24 17 -24 33v28v10h-64c-12 0 -31 0 -31 22c0 20 20 20 31 20h64v527h-158v-66c0 -15 0 -32 -26 -32c-25 0 -25 18 -25 32v76c0 26 7 32 32 32h405c26 0 31 -8 31 -32v-76z" />
    <glyph glyph-name="tcedilla" unicode="&#x163;" 
d="M445 120c0 -75 -60 -115 -123 -124c1 -7 1 -16 1 -27c75 -15 102 -55 102 -92c0 -95 -139 -95 -232 -95c-11 0 -22 6 -22 22c0 21 20 21 52 21c42 0 152 7 152 52c0 24 -26 49 -79 52c-24 1 -24 17 -24 33v28v5c-61 7 -112 43 -112 125v263h-102c-11 0 -31 0 -31 20
c0 22 20 22 32 22h101v95c0 15 0 32 25 32s25 -18 25 -32v-95h180c12 0 31 0 31 -22c0 -20 -20 -20 -31 -20h-180v-257c0 -29 0 -90 90 -90c27 0 93 12 94 85c0 13 0 29 25 29c26 0 26 -16 26 -30z" />
    <glyph glyph-name="Tcaron" unicode="&#x164;" 
d="M496 503c0 -15 0 -32 -26 -32c-25 0 -25 18 -25 32v66h-157v-527h64c12 0 31 0 31 -21s-20 -21 -31 -21h-179c-12 0 -31 0 -31 22c0 20 20 20 31 20h64v527h-158v-66c0 -15 0 -32 -26 -32c-25 0 -25 18 -25 32v76c0 26 7 32 32 32h405c26 0 31 -8 31 -32v-76zM405 728
c0 -8 -9 -17 -22 -22l-109 -40c-9 -3 -17 -3 -26 0l-107 40c-13 5 -22 14 -22 22c0 12 7 22 24 22c6 0 20 -4 30 -7l89 -30l89 30c10 3 24 7 30 7c17 0 24 -10 24 -22z" />
    <glyph glyph-name="tcaron" unicode="&#x165;" 
d="M445 120c0 -86 -79 -126 -150 -126c-70 0 -135 34 -135 126v263h-102c-11 0 -31 0 -31 20c0 22 20 22 32 22h101v95c0 15 0 32 25 32s25 -18 25 -32v-95h180c12 0 31 0 31 -22c0 -20 -20 -20 -31 -20h-180v-257c0 -29 0 -90 90 -90c27 0 93 12 94 85c0 13 0 29 25 29
c26 0 26 -16 26 -30zM358 586c0 -77 -72 -117 -94 -117c-8 0 -15 8 -15 15c0 5 5 9 9 10c27 9 72 30 72 89c-8 -4 -16 -6 -27 -6c-20 0 -38 15 -38 39c0 20 15 37 39 37c29 0 54 -26 54 -67z" />
    <glyph glyph-name="Utilde" unicode="&#x168;" 
d="M518 590c0 -21 -20 -21 -32 -21h-41v-368c0 -121 -85 -212 -183 -212s-183 91 -183 212v368h-41c-12 0 -32 0 -32 21s20 21 32 21h133c11 0 32 0 32 -21s-21 -21 -32 -21h-41v-363c0 -119 73 -175 132 -175c58 0 132 56 132 175v363h-41c-11 0 -32 0 -32 21s21 21 32 21
h133c12 0 32 0 32 -21zM434 743c0 -13 -29 -35 -47 -48c-22 -17 -48 -32 -74 -32c-20 0 -35 8 -47 18c-32 29 -42 38 -55 38c-15 0 -45 -16 -79 -48c-5 -4 -10 -8 -18 -8c-11 0 -22 11 -22 22c0 14 29 35 47 49c22 16 49 32 74 32c20 0 35 -9 47 -18c32 -29 42 -39 55 -39
c15 0 45 17 79 48c5 5 10 9 18 9c11 0 22 -11 22 -23z" />
    <glyph glyph-name="utilde" unicode="&#x169;" 
d="M510 22c0 -22 -20 -22 -32 -22h-75c-14 0 -31 0 -32 43c-52 -39 -93 -49 -133 -49c-70 0 -136 22 -136 114v275h-57c-11 0 -31 0 -31 20c0 22 20 22 32 22h75c27 0 31 -8 31 -32v-279c0 -38 0 -78 92 -78c37 0 128 14 128 116v231h-57c-11 0 -31 0 -31 20
c0 22 20 22 32 22h75c27 0 31 -8 31 -32v-351h57c11 0 31 0 31 -20zM434 592c0 -13 -29 -35 -47 -48c-22 -16 -48 -32 -74 -32c-20 0 -35 8 -47 18c-32 29 -42 39 -55 39c-15 0 -45 -17 -79 -49c-5 -4 -10 -8 -18 -8c-11 0 -22 11 -22 22c0 14 29 35 47 49
c22 16 49 32 74 32c20 0 35 -9 47 -18c32 -29 42 -39 55 -39c15 0 45 17 79 48c5 5 10 9 18 9c11 0 22 -11 22 -23z" />
    <glyph glyph-name="Umacron" unicode="&#x16a;" 
d="M518 590c0 -21 -20 -21 -32 -21h-41v-368c0 -121 -85 -212 -183 -212s-183 91 -183 212v368h-41c-12 0 -32 0 -32 21s20 21 32 21h133c11 0 32 0 32 -21s-21 -21 -32 -21h-41v-363c0 -119 73 -175 132 -175c58 0 132 56 132 175v363h-41c-11 0 -32 0 -32 21s21 21 32 21
h133c12 0 32 0 32 -21zM448 704c0 -21 -19 -21 -31 -21h-307c-13 0 -32 0 -32 22s19 22 31 22h308c13 0 31 0 31 -23z" />
    <glyph glyph-name="umacron" unicode="&#x16b;" 
d="M510 22c0 -22 -20 -22 -32 -22h-75c-14 0 -31 0 -32 43c-52 -39 -93 -49 -133 -49c-70 0 -136 22 -136 114v275h-57c-11 0 -31 0 -31 20c0 22 20 22 32 22h75c27 0 31 -8 31 -32v-279c0 -38 0 -78 92 -78c37 0 128 14 128 116v231h-57c-11 0 -31 0 -31 20
c0 22 20 22 32 22h75c27 0 31 -8 31 -32v-351h57c11 0 31 0 31 -20zM448 563c0 -21 -19 -21 -31 -21h-307c-13 0 -32 0 -32 22s19 22 31 22h308c13 0 31 0 31 -23z" />
    <glyph glyph-name="Ubreve" unicode="&#x16c;" 
d="M518 590c0 -21 -20 -21 -32 -21h-41v-368c0 -121 -85 -212 -183 -212s-183 91 -183 212v368h-41c-12 0 -32 0 -32 21s20 21 32 21h133c11 0 32 0 32 -21s-21 -21 -32 -21h-41v-363c0 -119 73 -175 132 -175c58 0 132 56 132 175v363h-41c-11 0 -32 0 -32 21s21 21 32 21
h133c12 0 32 0 32 -21zM435 747c0 -74 -108 -74 -172 -74s-172 0 -172 74c0 13 9 22 22 22c11 0 16 -5 18 -11c9 -34 83 -40 132 -40c48 0 123 6 132 40c2 6 7 11 18 11c14 0 22 -9 22 -22z" />
    <glyph glyph-name="ubreve" unicode="&#x16d;" 
d="M510 22c0 -22 -20 -22 -32 -22h-75c-14 0 -31 0 -32 43c-52 -39 -93 -49 -133 -49c-70 0 -136 22 -136 114v275h-57c-11 0 -31 0 -31 20c0 22 20 22 32 22h75c27 0 31 -8 31 -32v-279c0 -38 0 -78 92 -78c37 0 128 14 128 116v231h-57c-11 0 -31 0 -31 20
c0 22 20 22 32 22h75c27 0 31 -8 31 -32v-351h57c11 0 31 0 31 -20zM435 590c0 -74 -108 -74 -172 -74s-172 0 -172 74c0 14 9 22 22 22c11 0 16 -5 18 -11c9 -34 83 -40 132 -40c48 0 123 6 132 40c2 6 7 11 18 11c14 0 22 -8 22 -22z" />
    <glyph glyph-name="Uring" unicode="&#x16e;" 
d="M518 590c0 -21 -20 -21 -32 -21h-41v-368c0 -121 -85 -212 -183 -212s-183 91 -183 212v368h-41c-12 0 -32 0 -32 21s20 21 32 21h133c11 0 32 0 32 -21s-21 -21 -32 -21h-41v-363c0 -119 73 -175 132 -175c58 0 132 56 132 175v363h-41c-11 0 -32 0 -32 21s21 21 32 21
h133c12 0 32 0 32 -21zM315 694c0 23 -25 36 -52 36s-52 -13 -52 -36c0 -22 25 -34 52 -34s52 12 52 34zM365 694c0 -38 -43 -71 -102 -71s-102 33 -102 71c0 39 43 73 102 73s102 -34 102 -73z" />
    <glyph glyph-name="uring" unicode="&#x16f;" 
d="M510 22c0 -22 -20 -22 -32 -22h-75c-14 0 -31 0 -32 43c-52 -39 -93 -49 -133 -49c-70 0 -136 22 -136 114v275h-57c-11 0 -31 0 -31 20c0 22 20 22 32 22h75c27 0 31 -8 31 -32v-279c0 -38 0 -78 92 -78c37 0 128 14 128 116v231h-57c-11 0 -31 0 -31 20
c0 22 20 22 32 22h75c27 0 31 -8 31 -32v-351h57c11 0 31 0 31 -20zM315 563c0 23 -25 36 -52 36s-52 -13 -52 -36c0 -22 25 -34 52 -34s52 12 52 34zM365 563c0 -38 -43 -71 -102 -71s-102 33 -102 71c0 39 43 73 102 73s102 -34 102 -73z" />
    <glyph glyph-name="Uhungarumlaut" unicode="&#x170;" 
d="M518 590c0 -21 -20 -21 -32 -21h-41v-368c0 -121 -85 -212 -183 -212s-183 91 -183 212v368h-41c-12 0 -32 0 -32 21s20 21 32 21h133c11 0 32 0 32 -21s-21 -21 -32 -21h-41v-363c0 -119 73 -175 132 -175c58 0 132 56 132 175v363h-41c-11 0 -32 0 -32 21s21 21 32 21
h133c12 0 32 0 32 -21zM230 771c0 -9 -15 -22 -26 -32l-48 -45c-7 -7 -23 -21 -31 -21c-13 0 -28 17 -28 30c0 5 6 12 10 16l65 62c11 10 20 15 32 17c14 0 26 -13 26 -27zM431 771c0 -9 -15 -22 -26 -32l-48 -45c-7 -7 -23 -21 -31 -21c-13 0 -28 17 -28 30c0 5 6 12 10 16
l65 62c11 10 20 15 32 17c14 0 26 -13 26 -27z" />
    <glyph glyph-name="uhungarumlaut" unicode="&#x171;" 
d="M510 22c0 -22 -20 -22 -32 -22h-75c-14 0 -31 0 -32 43c-52 -39 -93 -49 -133 -49c-70 0 -136 22 -136 114v275h-57c-11 0 -31 0 -31 20c0 22 20 22 32 22h75c27 0 31 -8 31 -32v-279c0 -38 0 -78 92 -78c37 0 128 14 128 116v231h-57c-11 0 -31 0 -31 20
c0 22 20 22 32 22h75c27 0 31 -8 31 -32v-351h57c11 0 31 0 31 -20zM230 599c0 -9 -15 -22 -26 -32l-48 -45c-7 -7 -23 -21 -31 -21c-13 0 -28 17 -28 30c0 5 6 12 10 16l65 62c11 10 20 15 32 17c14 0 26 -13 26 -27zM431 599c0 -9 -15 -22 -26 -32l-48 -45
c-7 -7 -23 -21 -31 -21c-13 0 -28 17 -28 30c0 5 6 12 10 16l65 62c11 10 20 15 32 17c14 0 26 -13 26 -27z" />
    <glyph glyph-name="Uogonek" unicode="&#x172;" 
d="M518 590c0 -21 -20 -21 -32 -21h-41v-368c0 -107 -58 -182 -143 -203c-39 -27 -69 -75 -69 -122c0 -31 33 -51 56 -51s50 23 64 42c4 4 17 8 24 3s7 -17 3 -23c-23 -32 -59 -57 -95 -57c-59 0 -92 48 -92 88c0 35 16 74 60 113c-109 17 -174 98 -174 210v368h-41
c-12 0 -32 0 -32 21s20 21 32 21h133c11 0 32 0 32 -21s-21 -21 -32 -21h-41v-363c0 -119 73 -175 132 -175c58 0 132 56 132 175v363h-41c-11 0 -32 0 -32 21s21 21 32 21h133c12 0 32 0 32 -21z" />
    <glyph glyph-name="uogonek" unicode="&#x173;" 
d="M529 -153c-23 -32 -59 -57 -95 -57c-59 0 -92 48 -92 88s21 78 78 122c-43 0 -48 2 -49 43c-52 -39 -93 -49 -133 -49c-70 0 -136 22 -136 114v275h-57c-11 0 -31 0 -31 20c0 22 20 22 32 22h75c27 0 31 -8 31 -32v-279c0 -38 0 -78 92 -78c37 0 128 14 128 116v231h-57
c-11 0 -31 0 -31 20c0 22 20 22 32 22h75c27 0 31 -8 31 -32v-351h57c11 0 31 0 31 -20c0 -22 -20 -22 -32 -22h-10c-46 -26 -86 -72 -86 -124c0 -31 33 -51 56 -51s50 23 63 42c5 4 17 10 25 3c7 -6 7 -17 3 -23z" />
    <glyph glyph-name="Wcircumflex" unicode="&#x174;" 
d="M511 589c0 -20 -21 -20 -38 -20l-75 -550c-4 -27 -27 -27 -37 -27c-5 0 -29 0 -33 18l-65 302l-68 -306c-8 -14 -25 -14 -32 -14c-10 0 -33 0 -37 27l-75 550h-10c-7 0 -28 0 -28 20c0 22 21 22 32 22h82c12 0 31 0 31 -22c0 -20 -20 -20 -31 -20h-34l67 -535h4l65 309
c4 17 25 16 33 16c7 0 30 1 34 -17l63 -308h4l68 535h-34c-11 0 -31 0 -31 20c0 22 19 22 31 22h82c11 0 32 0 32 -22zM405 685c0 -12 -7 -22 -24 -22c-6 0 -20 4 -30 7l-89 30l-89 -30c-10 -3 -24 -7 -30 -7c-17 0 -24 10 -24 22c0 8 9 17 22 22l109 40c9 3 17 3 26 0
l107 -40c13 -5 22 -14 22 -22z" />
    <glyph glyph-name="wcircumflex" unicode="&#x175;" 
d="M506 404c0 -21 -16 -21 -49 -21l-64 -356c-3 -18 -7 -31 -37 -31c-9 0 -27 0 -37 12l-51 197h-6l-48 -181c-6 -24 -18 -28 -43 -28c-33 0 -37 12 -40 31l-64 356c-33 0 -49 0 -49 21s19 21 33 21h119c14 0 33 0 33 -22c0 -20 -19 -20 -33 -20h-59l60 -345h6l55 192
c5 17 24 17 32 17c28 0 33 -10 35 -18l49 -191h6l59 345h-59c-14 0 -33 0 -33 21s19 21 33 21h119c13 0 33 0 33 -21zM406 528c0 -12 -7 -22 -24 -22c-6 0 -20 9 -30 15l-89 54l-89 -54c-10 -6 -24 -15 -30 -15c-17 0 -24 10 -24 22c0 8 11 15 22 22l103 66c11 7 23 7 34 0
l105 -66c11 -7 22 -14 22 -22z" />
    <glyph glyph-name="Ycircumflex" unicode="&#x176;" 
d="M503 589c0 -20 -20 -20 -31 -20h-28l-156 -325v-202h36c12 0 31 0 31 -21s-20 -21 -31 -21h-123c-12 0 -31 0 -31 22c0 20 20 20 31 20h36v202l-157 325h-28c-12 0 -31 0 -31 21s20 21 31 21h108c11 0 31 0 31 -21s-19 -21 -54 -21l126 -280l123 280c-34 0 -53 0 -53 21
s20 21 31 21h108c12 0 31 0 31 -22zM405 685c0 -12 -7 -22 -24 -22c-6 0 -20 4 -30 7l-89 30l-89 -30c-10 -3 -24 -7 -30 -7c-17 0 -24 10 -24 22c0 8 9 17 22 22l109 40c9 3 17 3 26 0l107 -40c13 -5 22 -14 22 -22z" />
    <glyph glyph-name="ycircumflex" unicode="&#x177;" 
d="M498 403c0 -20 -20 -20 -31 -20h-38l-162 -478c-4 -11 -53 -141 -146 -141c-44 0 -75 37 -75 75c0 20 13 35 35 35c20 0 34 -14 34 -34c0 -11 -6 -20 -6 -20s6 -13 12 -13c30 0 54 4 86 65c14 26 42 115 42 115c1 3 -155 396 -155 396h-35c-11 0 -31 0 -31 20
c0 22 19 22 31 22h121c12 0 31 0 31 -22c0 -20 -20 -20 -31 -20h-41l132 -348l115 348h-40c-12 0 -31 0 -31 21s20 21 31 21h121c12 0 31 0 31 -22zM406 528c0 -12 -7 -22 -24 -22c-6 0 -20 9 -30 15l-89 54l-89 -54c-10 -6 -24 -15 -30 -15c-17 0 -24 10 -24 22
c0 8 11 15 22 22l103 66c11 7 23 7 34 0l105 -66c11 -7 22 -14 22 -22z" />
    <glyph glyph-name="Ydieresis" unicode="&#x178;" 
d="M503 589c0 -20 -20 -20 -31 -20h-28l-156 -325v-202h36c12 0 31 0 31 -21s-20 -21 -31 -21h-123c-12 0 -31 0 -31 22c0 20 20 20 31 20h36v202l-157 325h-28c-12 0 -31 0 -31 21s20 21 31 21h108c11 0 31 0 31 -21s-19 -21 -54 -21l126 -280l123 280c-34 0 -53 0 -53 21
s20 21 31 21h108c12 0 31 0 31 -22zM198 699c0 -20 -16 -36 -36 -36s-36 16 -36 36c0 21 16 36 36 36s36 -15 36 -36zM399 699c0 -20 -16 -36 -36 -36s-36 16 -36 36c0 21 16 36 36 36s36 -15 36 -36z" />
    <glyph glyph-name="Zacute" unicode="&#x179;" 
d="M478 32c0 -25 -5 -32 -31 -32h-364c-14 0 -32 0 -32 25c0 8 0 13 9 26l351 518h-297v-66c0 -15 0 -32 -26 -32c-25 0 -25 18 -25 32v76c0 26 7 32 33 32h345c14 0 32 0 32 -25c0 -8 0 -13 -9 -26l-351 -518h314v85c0 15 0 32 26 32c25 0 25 -17 25 -32v-95zM362 765
c0 -8 -4 -18 -23 -26l-144 -64c-2 -1 -7 -2 -7 -2c-20 0 -24 25 -24 31c0 12 9 16 19 21l138 62c9 4 15 4 15 4c15 0 26 -11 26 -26z" />
    <glyph glyph-name="zacute" unicode="&#x17a;" 
d="M472 32c0 -11 0 -27 -14 -32h-390c-15 0 -32 0 -32 25c0 14 1 17 19 34l341 324h-293v-38c0 -15 0 -32 -26 -32c-25 0 -25 18 -25 32v48c0 26 6 32 32 32h352c14 0 32 0 32 -25c0 -14 -2 -17 -20 -34l-341 -324h314v50c0 15 0 32 26 32c25 0 25 -18 25 -32v-60zM362 597
c0 -9 -4 -19 -23 -27l-144 -64c-2 -1 -7 -1 -7 -1c-20 0 -24 24 -24 31c0 12 9 16 19 20l138 62c9 4 15 4 15 4c15 0 26 -11 26 -25z" />
    <glyph glyph-name="Zdotaccent" unicode="&#x17b;" 
d="M478 32c0 -25 -5 -32 -31 -32h-364c-14 0 -32 0 -32 25c0 8 0 13 9 26l351 518h-297v-66c0 -15 0 -32 -26 -32c-25 0 -25 18 -25 32v76c0 26 7 32 33 32h345c14 0 32 0 32 -25c0 -8 0 -13 -9 -26l-351 -518h314v85c0 15 0 32 26 32c25 0 25 -17 25 -32v-95zM304 715
c0 -23 -18 -41 -41 -41s-41 18 -41 41s18 42 41 42s41 -19 41 -42z" />
    <glyph glyph-name="zdotaccent" unicode="&#x17c;" 
d="M472 32c0 -11 0 -27 -14 -32h-390c-15 0 -32 0 -32 25c0 14 1 17 19 34l341 324h-293v-38c0 -15 0 -32 -26 -32c-25 0 -25 18 -25 32v48c0 26 6 32 32 32h352c14 0 32 0 32 -25c0 -14 -2 -17 -20 -34l-341 -324h314v50c0 15 0 32 26 32c25 0 25 -18 25 -32v-60zM304 563
c0 -23 -18 -41 -41 -41s-41 18 -41 41c0 24 18 42 41 42s41 -18 41 -42z" />
    <glyph glyph-name="Zcaron" unicode="&#x17d;" 
d="M478 32c0 -25 -5 -32 -31 -32h-364c-14 0 -32 0 -32 25c0 8 0 13 9 26l351 518h-297v-66c0 -15 0 -32 -26 -32c-25 0 -25 18 -25 32v76c0 26 7 32 33 32h345c14 0 32 0 32 -25c0 -8 0 -13 -9 -26l-351 -518h314v85c0 15 0 32 26 32c25 0 25 -17 25 -32v-95zM405 728
c0 -8 -9 -17 -22 -22l-109 -40c-9 -3 -17 -3 -26 0l-107 40c-13 5 -22 14 -22 22c0 12 7 22 24 22c6 0 20 -4 30 -7l89 -30l89 30c10 3 24 7 30 7c17 0 24 -10 24 -22z" />
    <glyph glyph-name="zcaron" unicode="&#x17e;" 
d="M472 32c0 -11 0 -27 -14 -32h-390c-15 0 -32 0 -32 25c0 14 1 17 19 34l341 324h-293v-38c0 -15 0 -32 -26 -32c-25 0 -25 18 -25 32v48c0 26 6 32 32 32h352c14 0 32 0 32 -25c0 -14 -2 -17 -20 -34l-341 -324h314v50c0 15 0 32 26 32c25 0 25 -18 25 -32v-60zM406 599
c0 -8 -11 -15 -22 -22l-103 -66c-11 -7 -23 -7 -34 0l-105 66c-11 7 -22 14 -22 22c0 12 7 22 24 22c6 0 20 -9 30 -15l89 -54l89 54c10 6 24 15 30 15c17 0 24 -10 24 -22z" />
    <glyph glyph-name="longs" unicode="&#x17f;" 
d="M433 566c0 -23 -19 -36 -35 -36c-35 0 -35 31 -35 45c-45 0 -121 -1 -121 -91v-442h115c11 0 32 0 32 -21s-21 -21 -32 -21h-280c-11 0 -32 0 -32 22c0 20 21 20 32 20h115v341h-115c-11 0 -31 0 -31 20c0 22 20 22 32 22h114v65c0 84 75 127 152 127c14 0 89 0 89 -51z
" />
    <glyph glyph-name="Ereversed" unicode="&#x18e;" 
d="M500 21c0 -21 -21 -21 -32 -21h-409c-25 0 -31 7 -31 32v92c0 15 0 32 25 32c26 0 26 -17 26 -32v-82h297v254h-157c0 -44 0 -59 -25 -59s-25 17 -25 32v96c0 14 0 32 25 32s25 -15 25 -59h157v231h-274v-66c0 -14 0 -32 -25 -32c-26 0 -26 17 -26 32v76c0 24 5 32 31 32
h386c11 0 32 0 32 -21s-21 -21 -32 -21h-42v-527h42c12 0 32 0 32 -21z" />
    <glyph glyph-name="florin" unicode="&#x192;" 
d="M433 566c0 -23 -19 -36 -35 -36c-27 0 -35 31 -35 45c-45 0 -121 -1 -121 -91v-59h137c12 0 31 0 31 -22c0 -20 -20 -20 -31 -20h-137v-341h115c11 0 32 0 32 -21s-21 -21 -32 -21h-280c-11 0 -32 0 -32 22c0 20 21 20 32 20h115v341h-115c-11 0 -31 0 -31 20
c0 22 20 22 32 22h114v65c0 84 75 127 152 127c14 0 89 0 89 -51z" />
    <glyph glyph-name="Ohorn" unicode="&#x1a0;" 
d="M493 654c0 -36 -17 -72 -55 -93c26 -68 26 -175 26 -256c0 -92 0 -219 -33 -269c-31 -47 -105 -47 -170 -47c-64 0 -139 0 -169 47c-33 50 -33 177 -33 269c0 93 0 220 33 270c30 47 105 47 169 47c51 0 108 0 148 -24c14 2 24 8 40 32c-29 10 -39 26 -39 43
c0 21 16 40 41 41c33 -1 42 -34 42 -60zM412 318c0 75 -1 176 -23 216c-24 43 -78 46 -128 46c-49 0 -103 -3 -127 -46c-23 -40 -24 -141 -24 -216c0 -81 1 -193 24 -237c22 -44 77 -50 127 -50s106 6 128 50s23 156 23 237z" />
    <glyph glyph-name="ohorn" unicode="&#x1a1;" 
d="M463 212c0 -57 -21 -113 -60 -154c-36 -40 -87 -64 -142 -64c-54 0 -105 24 -141 64c-39 41 -60 97 -60 154c0 58 20 114 60 156c36 41 87 65 141 65c33 0 65 -9 99 -29c44 4 49 20 54 40c-29 10 -38 25 -38 42c0 21 16 40 41 41c34 0 41 -33 41 -59
c0 -37 -17 -74 -58 -96c44 -51 63 -105 63 -160zM412 221c0 44 -15 87 -44 120c-27 30 -66 50 -107 50c-40 0 -79 -20 -106 -50c-29 -33 -44 -76 -44 -120c0 -47 14 -93 44 -129c26 -34 65 -55 106 -55c42 0 80 21 107 55c30 36 44 82 44 129z" />
    <glyph glyph-name="Uhorn" unicode="&#x1af;" 
d="M524 655c0 -43 -32 -79 -79 -86v-368c0 -56 -18 -108 -53 -150c-34 -38 -80 -62 -131 -62c-50 0 -97 24 -131 62c-34 42 -52 94 -52 150v368h-54c-10 0 -17 10 -18 20c0 12 6 22 18 22h159c13 0 19 -10 19 -22c-1 -10 -8 -20 -19 -20h-53v-368c0 -46 13 -89 39 -122
c25 -30 58 -48 92 -48c35 0 68 18 93 48c26 33 39 76 39 122v368h-53c-11 0 -18 10 -19 20c0 12 6 22 19 22h86c6 0 26 -1 51 17c-28 15 -36 29 -36 45c0 21 16 40 41 41c33 -1 42 -33 42 -59z" />
    <glyph glyph-name="uhorn" unicode="&#x1b0;" 
d="M510 20c-1 -11 -9 -20 -20 -20h-100c-11 0 -19 9 -19 19v28c-18 -17 -79 -53 -129 -53c-41 0 -75 4 -104 26c-26 19 -37 51 -37 83v278h-70c-10 0 -17 10 -18 20c0 12 6 23 18 23h102c10 0 18 -8 18 -19v-302c0 -23 9 -41 21 -49c17 -13 39 -17 76 -17
c69 0 123 47 123 104v240h-69c-10 0 -17 10 -18 20c0 12 6 23 18 23h102c7 0 29 -1 55 18c-29 10 -35 29 -35 44c0 21 17 41 42 41c32 0 41 -33 41 -58c0 -46 -34 -80 -85 -88v-339h68c13 0 20 -10 20 -22z" />
    <glyph glyph-name="Acaron" unicode="&#x1cd;" 
d="M495 21c0 -21 -22 -21 -35 -21h-105c-14 0 -33 0 -33 21s18 21 60 21l-28 129h-184l-28 -129c42 0 60 0 60 -21s-19 -21 -33 -21h-106c-12 0 -34 0 -34 21c0 9 4 16 12 20c6 1 27 1 48 1l127 550c8 31 22 31 46 31c26 0 38 0 46 -32l127 -549c21 0 41 0 47 -1
c10 -4 13 -11 13 -20zM343 213l-77 368h-7l-78 -368h162zM405 728c0 -8 -9 -17 -22 -22l-109 -40c-9 -3 -17 -3 -26 0l-107 40c-13 5 -22 14 -22 22c0 12 7 22 24 22c6 0 20 -4 30 -7l89 -30l89 30c10 3 24 7 30 7c17 0 24 -10 24 -22z" />
    <glyph glyph-name="acaron" unicode="&#x1ce;" 
d="M513 22c0 -22 -20 -22 -42 -22c-36 0 -83 0 -109 37c-55 -36 -117 -43 -153 -43c-99 0 -161 61 -161 128c0 95 125 141 310 144c0 90 -57 126 -142 126c-31 0 -69 -4 -69 -23c-1 -30 -24 -37 -36 -37c-19 0 -36 13 -36 37c0 65 99 65 140 65c140 0 194 -80 194 -150v-230
c16 -6 31 -12 72 -12c12 0 32 0 32 -20zM358 128v98c-168 -5 -259 -51 -259 -104c0 -45 46 -86 117 -86c8 0 57 0 96 19c46 21 46 46 46 73zM406 599c0 -8 -11 -15 -22 -22l-103 -66c-11 -7 -23 -7 -34 0l-105 66c-11 7 -22 14 -22 22c0 12 7 22 24 22c6 0 20 -9 30 -15
l89 -54l89 54c10 6 24 15 30 15c17 0 24 -10 24 -22z" />
    <glyph glyph-name="Icaron" unicode="&#x1cf;" 
d="M442 21c0 -21 -21 -21 -32 -21h-295c-11 0 -32 0 -32 22c0 20 21 20 32 20h122v527h-122c-11 0 -32 0 -32 21s21 21 32 21h295c11 0 32 0 32 -22c0 -20 -21 -20 -32 -20h-122v-527h122c11 0 32 0 32 -21zM405 728c0 -8 -9 -17 -22 -22l-109 -40c-9 -3 -17 -3 -26 0
l-107 40c-13 5 -22 14 -22 22c0 12 7 22 24 22c6 0 20 -4 30 -7l89 -30l89 30c10 3 24 7 30 7c17 0 24 -10 24 -22z" />
    <glyph glyph-name="icaron" unicode="&#x1d0;" 
d="M451 21c0 -21 -21 -21 -32 -21h-305c-11 0 -32 0 -32 21s20 21 32 21h136v341h-128c-11 0 -32 0 -32 21s21 21 32 21h147c27 0 31 -8 31 -32v-351h119c11 0 32 0 32 -21zM406 599c0 -8 -11 -15 -22 -22l-103 -66c-11 -7 -23 -7 -34 0l-105 66c-11 7 -22 14 -22 22
c0 12 7 22 24 22c6 0 20 -9 30 -15l89 -54l89 54c10 6 24 15 30 15c17 0 24 -10 24 -22z" />
    <glyph glyph-name="Ocaron" unicode="&#x1d1;" 
d="M465 305c0 -288 -20 -316 -203 -316c-184 0 -203 28 -203 316c0 289 19 317 203 317s203 -29 203 -317zM414 314c0 64 0 143 -13 192c-17 62 -55 74 -139 74c-92 0 -126 -15 -140 -81c-12 -49 -12 -120 -12 -185c0 -57 0 -148 13 -202c13 -56 40 -81 139 -81
c100 0 128 25 140 88c12 56 12 130 12 195zM405 728c0 -8 -9 -17 -22 -22l-109 -40c-9 -3 -17 -3 -26 0l-107 40c-13 5 -22 14 -22 22c0 12 7 22 24 22c6 0 20 -4 30 -7l89 -30l89 30c10 3 24 7 30 7c17 0 24 -10 24 -22z" />
    <glyph glyph-name="ocaron" unicode="&#x1d2;" 
d="M464 213c0 -124 -94 -219 -202 -219s-202 94 -202 219c0 123 92 221 202 221s202 -98 202 -221zM413 220c0 101 -72 172 -151 172c-78 0 -151 -71 -151 -172c0 -102 69 -184 151 -184c81 0 151 82 151 184zM406 599c0 -8 -11 -15 -22 -22l-103 -66c-11 -7 -23 -7 -34 0
l-105 66c-11 7 -22 14 -22 22c0 12 7 22 24 22c6 0 20 -9 30 -15l89 -54l89 54c10 6 24 15 30 15c17 0 24 -10 24 -22z" />
    <glyph glyph-name="Ucaron" unicode="&#x1d3;" 
d="M518 590c0 -21 -20 -21 -32 -21h-41v-368c0 -121 -85 -212 -183 -212s-183 91 -183 212v368h-41c-12 0 -32 0 -32 21s20 21 32 21h133c11 0 32 0 32 -21s-21 -21 -32 -21h-41v-363c0 -119 73 -175 132 -175c58 0 132 56 132 175v363h-41c-11 0 -32 0 -32 21s21 21 32 21
h133c12 0 32 0 32 -21zM405 728c0 -8 -9 -17 -22 -22l-109 -40c-9 -3 -17 -3 -26 0l-107 40c-13 5 -22 14 -22 22c0 12 7 22 24 22c6 0 20 -4 30 -7l89 -30l89 30c10 3 24 7 30 7c17 0 24 -10 24 -22z" />
    <glyph glyph-name="ucaron" unicode="&#x1d4;" 
d="M510 22c0 -22 -20 -22 -32 -22h-75c-14 0 -31 0 -32 43c-52 -39 -93 -49 -133 -49c-70 0 -136 22 -136 114v275h-57c-11 0 -31 0 -31 20c0 22 20 22 32 22h75c27 0 31 -8 31 -32v-279c0 -38 0 -78 92 -78c37 0 128 14 128 116v231h-57c-11 0 -31 0 -31 20
c0 22 20 22 32 22h75c27 0 31 -8 31 -32v-351h57c11 0 31 0 31 -20zM406 599c0 -8 -11 -15 -22 -22l-103 -66c-11 -7 -23 -7 -34 0l-105 66c-11 7 -22 14 -22 22c0 12 7 22 24 22c6 0 20 -9 30 -15l89 -54l89 54c10 6 24 15 30 15c17 0 24 -10 24 -22z" />
    <glyph glyph-name="Udieresisacute" unicode="&#x1d7;" 
d="M518 590c0 -21 -20 -21 -32 -21h-41v-368c0 -121 -85 -212 -183 -212s-183 91 -183 212v368h-41c-12 0 -32 0 -32 21s20 21 32 21h133c11 0 32 0 32 -21s-21 -21 -32 -21h-41v-363c0 -119 73 -175 132 -175c58 0 132 56 132 175v363h-41c-11 0 -32 0 -32 21s21 21 32 21
h133c12 0 32 0 32 -21zM198 699c0 -20 -16 -36 -36 -36s-36 16 -36 36c0 21 16 36 36 36s36 -15 36 -36zM399 699c0 -20 -16 -36 -36 -36s-36 16 -36 36c0 21 16 36 36 36s36 -15 36 -36zM362 888c0 -8 -4 -18 -23 -26l-144 -64c-2 -1 -7 -2 -7 -2c-20 0 -24 25 -24 31
c0 12 9 16 19 21l138 62c9 4 15 4 15 4c15 0 26 -11 26 -26z" />
    <glyph glyph-name="udieresisacute" unicode="&#x1d8;" 
d="M510 22c0 -22 -20 -22 -32 -22h-75c-14 0 -31 0 -32 43c-52 -39 -93 -49 -133 -49c-70 0 -136 22 -136 114v275h-57c-11 0 -31 0 -31 20c0 22 20 22 32 22h75c27 0 31 -8 31 -32v-279c0 -38 0 -78 92 -78c37 0 128 14 128 116v231h-57c-11 0 -31 0 -31 20
c0 22 20 22 32 22h75c27 0 31 -8 31 -32v-351h57c11 0 31 0 31 -20zM213 563c0 -20 -16 -36 -36 -36s-36 16 -36 36c0 21 16 37 36 37s36 -16 36 -37zM384 563c0 -20 -16 -36 -36 -36s-36 16 -36 36c0 21 16 37 36 37s36 -16 36 -37zM362 765c0 -8 -4 -18 -23 -26l-144 -64
c-2 -1 -7 -2 -7 -2c-20 0 -24 25 -24 31c0 12 9 16 19 21l138 62c9 4 15 4 15 4c15 0 26 -11 26 -26z" />
    <glyph glyph-name="Udieresiscaron" unicode="&#x1d9;" 
d="M518 590c0 -21 -20 -21 -32 -21h-41v-368c0 -121 -85 -212 -183 -212s-183 91 -183 212v368h-41c-12 0 -32 0 -32 21s20 21 32 21h133c11 0 32 0 32 -21s-21 -21 -32 -21h-41v-363c0 -119 73 -175 132 -175c58 0 132 56 132 175v363h-41c-11 0 -32 0 -32 21s21 21 32 21
h133c12 0 32 0 32 -21zM198 699c0 -20 -16 -36 -36 -36s-36 16 -36 36c0 21 16 36 36 36s36 -15 36 -36zM399 699c0 -20 -16 -36 -36 -36s-36 16 -36 36c0 21 16 36 36 36s36 -15 36 -36zM405 851c0 -8 -9 -17 -22 -22l-109 -40c-9 -3 -17 -3 -26 0l-107 40
c-13 5 -22 14 -22 22c0 12 7 22 24 22c6 0 20 -4 30 -7l89 -30l89 30c10 3 24 7 30 7c17 0 24 -10 24 -22z" />
    <glyph glyph-name="udieresiscaron" unicode="&#x1da;" 
d="M510 22c0 -22 -20 -22 -32 -22h-75c-14 0 -31 0 -32 43c-52 -39 -93 -49 -133 -49c-70 0 -136 22 -136 114v275h-57c-11 0 -31 0 -31 20c0 22 20 22 32 22h75c27 0 31 -8 31 -32v-279c0 -38 0 -78 92 -78c37 0 128 14 128 116v231h-57c-11 0 -31 0 -31 20
c0 22 20 22 32 22h75c27 0 31 -8 31 -32v-351h57c11 0 31 0 31 -20zM213 563c0 -20 -16 -36 -36 -36s-36 16 -36 36c0 21 16 37 36 37s36 -16 36 -37zM384 563c0 -20 -16 -36 -36 -36s-36 16 -36 36c0 21 16 37 36 37s36 -16 36 -37zM405 728c0 -8 -9 -17 -22 -22l-109 -40
c-9 -3 -17 -3 -26 0l-107 40c-13 5 -22 14 -22 22c0 12 7 22 24 22c6 0 20 -4 30 -7l89 -30l89 30c10 3 24 7 30 7c17 0 24 -10 24 -22z" />
    <glyph glyph-name="Udieresisgrave" unicode="&#x1db;" 
d="M518 590c0 -21 -20 -21 -32 -21h-41v-368c0 -121 -85 -212 -183 -212s-183 91 -183 212v368h-41c-12 0 -32 0 -32 21s20 21 32 21h133c11 0 32 0 32 -21s-21 -21 -32 -21h-41v-363c0 -119 73 -175 132 -175c58 0 132 56 132 175v363h-41c-11 0 -32 0 -32 21s21 21 32 21
h133c12 0 32 0 32 -21zM198 699c0 -20 -16 -36 -36 -36s-36 16 -36 36c0 21 16 36 36 36s36 -15 36 -36zM399 699c0 -20 -16 -36 -36 -36s-36 16 -36 36c0 21 16 36 36 36s36 -15 36 -36zM361 827c0 -6 -4 -31 -24 -31c0 0 -5 1 -7 2l-144 64c-19 8 -23 18 -23 26
c0 15 11 26 26 26c0 0 6 0 15 -4l138 -62c10 -5 19 -9 19 -21z" />
    <glyph glyph-name="udieresisgrave" unicode="&#x1dc;" 
d="M510 22c0 -22 -20 -22 -32 -22h-75c-14 0 -31 0 -32 43c-52 -39 -93 -49 -133 -49c-70 0 -136 22 -136 114v275h-57c-11 0 -31 0 -31 20c0 22 20 22 32 22h75c27 0 31 -8 31 -32v-279c0 -38 0 -78 92 -78c37 0 128 14 128 116v231h-57c-11 0 -31 0 -31 20
c0 22 20 22 32 22h75c27 0 31 -8 31 -32v-351h57c11 0 31 0 31 -20zM213 563c0 -20 -16 -36 -36 -36s-36 16 -36 36c0 21 16 37 36 37s36 -16 36 -37zM384 563c0 -20 -16 -36 -36 -36s-36 16 -36 36c0 21 16 37 36 37s36 -16 36 -37zM361 704c0 -6 -4 -31 -24 -31
c0 0 -5 1 -7 2l-144 64c-19 8 -23 18 -23 26c0 15 11 26 26 26c0 0 6 0 15 -4l138 -62c10 -5 19 -9 19 -21z" />
    <glyph glyph-name="eturned" unicode="&#x1dd;" 
d="M460 214c0 -121 -95 -220 -212 -220c-128 0 -190 97 -190 209c0 28 14 28 31 28h320c-20 106 -102 161 -184 161c-32 0 -92 -11 -120 -74c-4 -10 -10 -11 -22 -11c-4 0 -25 0 -25 19c0 24 47 108 174 108c128 0 228 -99 228 -220zM408 189h-299c11 -126 81 -153 139 -153
c77 0 142 60 160 153z" />
    <glyph glyph-name="Gcaron" unicode="&#x1e6;" 
d="M494 238c0 -22 -20 -22 -49 -22v-184c0 -14 0 -32 -25 -32c-26 0 -26 16 -26 61c-37 -43 -78 -72 -133 -72c-119 0 -220 134 -220 317c0 180 100 316 220 316c41 0 80 -14 125 -53c18 42 23 53 38 53c21 0 21 -20 21 -32v-143c0 -16 0 -32 -26 -32c-16 0 -22 6 -24 16
c-20 125 -91 149 -130 149c-84 0 -174 -110 -174 -275c0 -159 85 -274 173 -274c59 0 115 50 129 185h-55c-11 0 -31 0 -31 22c0 20 20 20 31 20h124c11 0 32 0 32 -20zM405 728c0 -8 -9 -17 -22 -22l-109 -40c-9 -3 -17 -3 -26 0l-107 40c-13 5 -22 14 -22 22
c0 12 7 22 24 22c6 0 20 -4 30 -7l89 -30l89 30c10 3 24 7 30 7c17 0 24 -10 24 -22z" />
    <glyph glyph-name="gcaron" unicode="&#x1e7;" 
d="M507 391c0 -23 -18 -32 -31 -32c-8 0 -26 6 -32 36c-24 -2 -50 -7 -83 -25c22 -37 31 -65 31 -94c0 -86 -71 -156 -160 -156c-48 0 -84 22 -98 31c-9 -23 -12 -40 -12 -45c0 0 2 -26 15 -43c15 -18 23 -19 41 -19c9 -1 23 -2 31 -2h73c90 0 132 -21 145 -28
c48 -26 66 -74 66 -109c0 -84 -105 -142 -231 -142s-231 57 -231 142c0 10 1 76 82 125c-16 21 -29 44 -29 78c0 28 9 49 23 70c-19 25 -35 56 -35 98c0 83 69 155 160 155c45 0 79 -18 101 -33c50 37 98 38 109 38c47 0 65 -25 65 -45zM342 276c0 60 -48 114 -110 114
c-59 0 -110 -50 -110 -115c0 -60 48 -114 110 -114c59 0 110 50 110 115zM453 -95c0 94 -121 99 -219 99c-79 0 -89 -1 -116 -18c-37 -23 -47 -60 -47 -81c0 -49 80 -100 191 -100c110 0 191 51 191 100zM370 599c0 -8 -11 -15 -22 -22l-103 -66c-11 -7 -23 -7 -34 0
l-105 66c-11 7 -22 14 -22 22c0 12 7 22 24 22c6 0 20 -9 30 -15l89 -54l89 54c10 6 24 15 30 15c17 0 24 -10 24 -22z" />
    <glyph glyph-name="Oogonek" unicode="&#x1ea;" 
d="M465 305c0 -276 -21 -312 -174 -316c-35 -28 -66 -68 -66 -113c0 -31 33 -51 56 -51s50 23 63 42c5 4 18 6 25 3c4 -5 7 -17 3 -23c-23 -32 -59 -57 -96 -57c-58 0 -92 48 -92 88c0 34 19 69 65 110c-178 6 -190 48 -190 317c0 289 19 317 203 317s203 -29 203 -317z
M414 314c0 64 0 143 -13 192c-17 62 -55 74 -139 74c-92 0 -126 -15 -140 -81c-12 -49 -12 -120 -12 -185c0 -57 0 -148 13 -202c13 -56 40 -81 139 -81c100 0 128 25 140 88c12 56 12 130 12 195z" />
    <glyph glyph-name="oogonek" unicode="&#x1eb;" 
d="M464 213c0 -119 -86 -204 -168 -215c-42 -26 -76 -73 -76 -122c0 -31 32 -51 55 -51c24 0 51 23 64 42c5 4 17 8 24 3s8 -17 3 -23c-23 -32 -58 -57 -95 -57c-58 0 -92 48 -92 88c0 38 22 78 70 117c-117 20 -189 105 -189 218c0 123 92 221 202 221s202 -98 202 -221z
M413 220c0 101 -72 172 -151 172c-78 0 -151 -71 -151 -172c0 -102 69 -184 151 -184c81 0 151 82 151 184z" />
    <glyph glyph-name="jcaron" unicode="&#x1f0;" 
d="M361 -56c0 -62 -35 -180 -177 -180c-38 0 -133 0 -133 69c0 23 18 37 36 37c17 0 35 -14 35 -36l-5 -17s24 -10 73 -10c26 0 61 0 92 43c28 39 29 81 29 99v434h-145c-11 0 -31 0 -31 20c0 22 20 22 32 22h163c27 0 31 -8 31 -32v-449zM462 599c0 -8 -11 -15 -22 -22
l-103 -66c-11 -7 -23 -7 -34 0l-105 66c-11 7 -22 14 -22 22c0 12 7 22 24 22c6 0 20 -9 30 -15l89 -54l89 54c10 6 24 15 30 15c17 0 24 -10 24 -22z" />
    <glyph glyph-name="Gacute" unicode="&#x1f4;" 
d="M494 238c0 -22 -20 -22 -49 -22v-184c0 -14 0 -32 -25 -32c-26 0 -26 16 -26 61c-37 -43 -78 -72 -133 -72c-119 0 -220 134 -220 317c0 180 100 316 220 316c41 0 80 -14 125 -53c18 42 23 53 38 53c21 0 21 -20 21 -32v-143c0 -16 0 -32 -26 -32c-16 0 -22 6 -24 16
c-20 125 -91 149 -130 149c-84 0 -174 -110 -174 -275c0 -159 85 -274 173 -274c59 0 115 50 129 185h-55c-11 0 -31 0 -31 22c0 20 20 20 31 20h124c11 0 32 0 32 -20zM362 765c0 -8 -4 -18 -23 -26l-144 -64c-2 -1 -7 -2 -7 -2c-20 0 -24 25 -24 31c0 12 9 16 19 21
l138 62c9 4 15 4 15 4c15 0 26 -11 26 -26z" />
    <glyph glyph-name="gacute" unicode="&#x1f5;" 
d="M507 391c0 -23 -18 -32 -31 -32c-8 0 -26 6 -32 36c-24 -2 -50 -7 -83 -25c22 -37 31 -65 31 -94c0 -86 -71 -156 -160 -156c-48 0 -84 22 -98 31c-9 -23 -12 -40 -12 -45c0 0 2 -26 15 -43c15 -18 23 -19 41 -19c9 -1 23 -2 31 -2h73c90 0 132 -21 145 -28
c48 -26 66 -74 66 -109c0 -84 -105 -142 -231 -142s-231 57 -231 142c0 10 1 76 82 125c-16 21 -29 44 -29 78c0 28 9 49 23 70c-19 25 -35 56 -35 98c0 83 69 155 160 155c45 0 79 -18 101 -33c50 37 98 38 109 38c47 0 65 -25 65 -45zM342 276c0 60 -48 114 -110 114
c-59 0 -110 -50 -110 -115c0 -60 48 -114 110 -114c59 0 110 50 110 115zM453 -95c0 94 -121 99 -219 99c-79 0 -89 -1 -116 -18c-37 -23 -47 -60 -47 -81c0 -49 80 -100 191 -100c110 0 191 51 191 100zM326 597c0 -9 -4 -19 -23 -27l-144 -64c-2 -1 -7 -1 -7 -1
c-20 0 -24 24 -24 31c0 12 9 16 19 20l138 62c9 4 15 4 15 4c15 0 26 -11 26 -25z" />
    <glyph glyph-name="Aringacute" unicode="&#x1fa;" 
d="M495 21c0 -21 -22 -21 -35 -21h-105c-14 0 -33 0 -33 21s18 21 60 21l-28 129h-184l-28 -129c42 0 60 0 60 -21s-19 -21 -33 -21h-106c-12 0 -34 0 -34 21c0 9 4 16 12 20c6 1 27 1 48 1l127 550c8 31 22 31 46 31c26 0 38 0 46 -32l127 -549c21 0 41 0 47 -1
c10 -4 13 -11 13 -20zM343 213l-77 368h-7l-78 -368h162zM315 694c0 23 -25 36 -52 36s-52 -13 -52 -36c0 -22 25 -34 52 -34s52 12 52 34zM365 694c0 -38 -43 -71 -102 -71s-102 33 -102 71c0 39 43 73 102 73s102 -34 102 -73zM362 879c0 -8 -4 -18 -23 -26l-144 -64
c-2 -1 -7 -2 -7 -2c-20 0 -24 25 -24 31c0 12 9 16 19 21l138 62c9 4 15 4 15 4c15 0 26 -11 26 -26z" />
    <glyph glyph-name="aringacute" unicode="&#x1fb;" 
d="M513 22c0 -22 -20 -22 -42 -22c-36 0 -83 0 -109 37c-55 -36 -117 -43 -153 -43c-99 0 -161 61 -161 128c0 95 125 141 310 144c0 90 -57 126 -142 126c-31 0 -69 -4 -69 -23c-1 -30 -24 -37 -36 -37c-19 0 -36 13 -36 37c0 65 99 65 140 65c140 0 194 -80 194 -150v-230
c16 -6 31 -12 72 -12c12 0 32 0 32 -20zM358 128v98c-168 -5 -259 -51 -259 -104c0 -45 46 -86 117 -86c8 0 57 0 96 19c46 21 46 46 46 73zM315 563c0 23 -25 36 -52 36s-52 -13 -52 -36c0 -22 25 -34 52 -34s52 12 52 34zM365 563c0 -38 -43 -71 -102 -71s-102 33 -102 71
c0 39 43 73 102 73s102 -34 102 -73zM362 748c0 -8 -4 -18 -23 -26l-144 -64c-2 -1 -7 -2 -7 -2c-20 0 -24 25 -24 31c0 12 9 16 19 21l138 62c9 4 15 4 15 4c15 0 26 -11 26 -26z" />
    <glyph glyph-name="AEacute" unicode="&#x1fc;" 
d="M497 32c0 -25 -6 -32 -31 -32h-201c-12 0 -32 0 -32 22c0 20 21 20 41 20v147h-133l-30 -147c30 0 50 0 50 -21s-20 -21 -31 -21h-74c-11 0 -31 0 -31 21s19 21 48 21l107 527c-25 0 -44 0 -44 21s20 21 31 21h290c27 0 31 -8 31 -32v-76c0 -10 0 -32 -18 -32
c-19 0 -19 22 -19 32v66h-139v-231h129c12 0 31 0 31 -22c0 -20 -20 -20 -31 -20h-129v-254h147v82c0 11 0 32 19 32s19 -21 19 -32v-92zM274 232v337h-57l-68 -337h125zM362 765c0 -8 -4 -18 -23 -26l-144 -64c-2 -1 -7 -2 -7 -2c-20 0 -24 25 -24 31c0 12 9 16 19 21
l138 62c9 4 15 4 15 4c15 0 26 -11 26 -26z" />
    <glyph glyph-name="aeacute" unicode="&#x1fd;" 
d="M502 102c0 -19 -28 -108 -109 -108c-61 0 -101 57 -117 80c-34 -56 -85 -80 -133 -80c-68 0 -107 62 -107 118c0 81 88 123 207 124v44c0 73 -36 112 -93 112c-18 0 -37 -9 -37 -15c0 -3 1 -6 1 -9c-2 -33 -29 -36 -35 -36c-19 0 -36 13 -36 37c0 31 25 65 110 65
c52 0 87 -28 119 -85c38 66 78 85 111 85c70 0 119 -74 119 -203c0 -25 -3 -34 -31 -34h-189c10 -106 67 -161 116 -161c27 0 54 20 66 67c2 4 7 18 19 18c11 0 19 -9 19 -19zM464 239c-6 119 -47 153 -81 153c-48 0 -94 -70 -101 -153h182zM244 196
c-100 -4 -171 -35 -171 -83c0 -36 27 -77 76 -77c8 0 40 2 67 24c26 21 26 46 26 68c0 30 0 45 2 68zM362 597c0 -9 -4 -19 -23 -27l-144 -64c-2 -1 -7 -1 -7 -1c-20 0 -24 24 -24 31c0 12 9 16 19 20l138 62c9 4 15 4 15 4c15 0 26 -11 26 -25z" />
    <glyph glyph-name="Oslashacute" unicode="&#x1fe;" 
d="M465 305c0 -288 -20 -316 -203 -316c-24 0 -45 0 -80 2l-18 -55c-3 -10 -7 -24 -21 -24c-3 0 -23 2 -23 21c0 0 1 8 20 66c-57 26 -68 68 -76 144c-5 49 -5 116 -5 162c0 289 19 317 203 317c23 0 45 0 80 -2l18 55c3 10 7 24 21 24c3 0 23 -2 23 -21c0 0 -1 -8 -20 -67
c73 -31 81 -101 81 -306zM427 306c0 214 -25 233 -59 259l-171 -527c10 -3 18 -6 24 -6c11 -1 14 -1 41 -1c88 0 133 10 152 77c13 50 13 134 13 198zM327 573c-10 3 -18 6 -24 6c-11 1 -14 1 -41 1c-88 0 -133 -10 -152 -77c-13 -50 -13 -134 -13 -198
c0 -214 25 -233 59 -259zM349 765c0 -8 -4 -18 -23 -26l-144 -64c-2 -1 -7 -2 -7 -2c-20 0 -24 25 -24 31c0 12 9 16 19 21l138 62c9 4 15 4 15 4c15 0 26 -11 26 -26z" />
    <glyph glyph-name="oslashacute" unicode="&#x1ff;" 
d="M478 549c0 0 0 -7 -6 -17l-81 -141c54 -50 85 -112 85 -178c0 -122 -98 -219 -214 -219c-18 0 -48 2 -90 20l-88 -151c-3 -4 -8 -8 -15 -8c-9 0 -23 7 -23 21c0 6 10 23 16 34l73 125c-65 56 -87 121 -87 178c0 120 95 221 214 221c39 0 67 -11 92 -21l82 142
c4 7 8 15 19 15c9 0 23 -7 23 -21zM439 213c0 39 -15 93 -70 142l-176 -306c33 -11 40 -13 69 -13c97 0 177 78 177 177zM333 378c-34 12 -40 14 -71 14c-97 0 -177 -80 -177 -179c0 -38 12 -89 70 -143zM357 597c0 -9 -4 -19 -23 -27l-144 -64c-2 -1 -7 -1 -7 -1
c-20 0 -24 24 -24 31c0 12 9 16 19 20l138 62c9 4 15 4 15 4c15 0 26 -11 26 -25z" />
    <glyph glyph-name="Adblgrave" unicode="&#x200;" 
d="M495 21c0 -21 -22 -21 -35 -21h-105c-14 0 -33 0 -33 21s18 21 60 21l-28 129h-184l-28 -129c42 0 60 0 60 -21s-19 -21 -33 -21h-106c-12 0 -34 0 -34 21c0 9 4 16 12 20c6 1 27 1 48 1l127 550c8 31 22 31 46 31c26 0 38 0 46 -32l127 -549c21 0 41 0 47 -1
c10 -4 13 -11 13 -20zM343 213l-77 368h-7l-78 -368h162zM399 703c0 -13 -15 -30 -28 -30c-8 0 -24 14 -31 21l-48 45c-11 10 -26 23 -26 32c0 14 12 27 26 27c12 -2 21 -7 32 -17l65 -62c4 -4 10 -11 10 -16zM198 703c0 -13 -15 -30 -28 -30c-8 0 -24 14 -31 21l-48 45
c-11 10 -26 23 -26 32c0 14 12 27 26 27c12 -2 21 -7 32 -17l65 -62c4 -4 10 -11 10 -16z" />
    <glyph glyph-name="adblgrave" unicode="&#x201;" 
d="M513 22c0 -22 -20 -22 -42 -22c-36 0 -83 0 -109 37c-55 -36 -117 -43 -153 -43c-99 0 -161 61 -161 128c0 95 125 141 310 144c0 90 -57 126 -142 126c-31 0 -69 -4 -69 -23c-1 -30 -24 -37 -36 -37c-19 0 -36 13 -36 37c0 65 99 65 140 65c140 0 194 -80 194 -150v-230
c16 -6 31 -12 72 -12c12 0 32 0 32 -20zM358 128v98c-168 -5 -259 -51 -259 -104c0 -45 46 -86 117 -86c8 0 57 0 96 19c46 21 46 46 46 73zM428 531c0 -13 -15 -30 -28 -30c-8 0 -24 14 -31 21l-48 45c-11 10 -26 23 -26 32c0 14 12 27 26 27c12 -2 21 -7 32 -17l65 -62
c4 -4 10 -11 10 -16zM227 531c0 -13 -15 -30 -28 -30c-8 0 -24 14 -31 21l-48 45c-11 10 -26 23 -26 32c0 14 12 27 26 27c12 -2 21 -7 32 -17l65 -62c4 -4 10 -11 10 -16z" />
    <glyph glyph-name="Edblgrave" unicode="&#x204;" 
d="M500 32c0 -25 -6 -32 -31 -32h-409c-11 0 -32 0 -32 21s20 21 32 21h42v527h-42c-11 0 -32 0 -32 21s21 21 32 21h386c26 0 31 -8 31 -32v-76c0 -15 0 -32 -26 -32c-25 0 -25 18 -25 32v66h-274v-231h157c0 44 0 59 25 59s25 -18 25 -32v-96c0 -15 0 -32 -25 -32
s-25 15 -25 59h-157v-254h297v82c0 15 0 32 26 32c25 0 25 -17 25 -32v-92zM428 703c0 -13 -15 -30 -28 -30c-8 0 -24 14 -31 21l-48 45c-11 10 -26 23 -26 32c0 14 12 27 26 27c12 -2 21 -7 32 -17l65 -62c4 -4 10 -11 10 -16zM227 703c0 -13 -15 -30 -28 -30
c-8 0 -24 14 -31 21l-48 45c-11 10 -26 23 -26 32c0 14 12 27 26 27c12 -2 21 -7 32 -17l65 -62c4 -4 10 -11 10 -16z" />
    <glyph glyph-name="edblgrave" unicode="&#x205;" 
d="M460 102c0 -24 -47 -108 -174 -108c-128 0 -228 99 -228 220s95 220 212 220c128 0 190 -97 190 -209c0 -28 -14 -28 -31 -28h-320c20 -106 102 -161 184 -161c32 0 92 11 120 74c4 10 10 11 22 11c4 0 25 0 25 -19zM409 239c-11 126 -81 153 -139 153
c-77 0 -142 -60 -160 -153h299zM428 531c0 -13 -15 -30 -28 -30c-8 0 -24 14 -31 21l-48 45c-11 10 -26 23 -26 32c0 14 12 27 26 27c12 -2 21 -7 32 -17l65 -62c4 -4 10 -11 10 -16zM227 531c0 -13 -15 -30 -28 -30c-8 0 -24 14 -31 21l-48 45c-11 10 -26 23 -26 32
c0 14 12 27 26 27c12 -2 21 -7 32 -17l65 -62c4 -4 10 -11 10 -16z" />
    <glyph glyph-name="Idblgrave" unicode="&#x208;" 
d="M442 21c0 -21 -21 -21 -32 -21h-295c-11 0 -32 0 -32 22c0 20 21 20 32 20h122v527h-122c-11 0 -32 0 -32 21s21 21 32 21h295c11 0 32 0 32 -22c0 -20 -21 -20 -32 -20h-122v-527h122c11 0 32 0 32 -21zM428 703c0 -13 -15 -30 -28 -30c-8 0 -24 14 -31 21l-48 45
c-11 10 -26 23 -26 32c0 14 12 27 26 27c12 -2 21 -7 32 -17l65 -62c4 -4 10 -11 10 -16zM227 703c0 -13 -15 -30 -28 -30c-8 0 -24 14 -31 21l-48 45c-11 10 -26 23 -26 32c0 14 12 27 26 27c12 -2 21 -7 32 -17l65 -62c4 -4 10 -11 10 -16z" />
    <glyph glyph-name="idblgrave" unicode="&#x209;" 
d="M451 21c0 -21 -21 -21 -32 -21h-305c-11 0 -32 0 -32 21s20 21 32 21h136v341h-128c-11 0 -32 0 -32 21s21 21 32 21h147c27 0 31 -8 31 -32v-351h119c11 0 32 0 32 -21zM428 531c0 -13 -15 -30 -28 -30c-8 0 -24 14 -31 21l-48 45c-11 10 -26 23 -26 32
c0 14 12 27 26 27c12 -2 21 -7 32 -17l65 -62c4 -4 10 -11 10 -16zM227 531c0 -13 -15 -30 -28 -30c-8 0 -24 14 -31 21l-48 45c-11 10 -26 23 -26 32c0 14 12 27 26 27c12 -2 21 -7 32 -17l65 -62c4 -4 10 -11 10 -16z" />
    <glyph glyph-name="Odblgrave" unicode="&#x20c;" 
d="M465 305c0 -288 -20 -316 -203 -316c-184 0 -203 28 -203 316c0 289 19 317 203 317s203 -29 203 -317zM414 314c0 64 0 143 -13 192c-17 62 -55 74 -139 74c-92 0 -126 -15 -140 -81c-12 -49 -12 -120 -12 -185c0 -57 0 -148 13 -202c13 -56 40 -81 139 -81
c100 0 128 25 140 88c12 56 12 130 12 195zM428 703c0 -13 -15 -30 -28 -30c-8 0 -24 14 -31 21l-48 45c-11 10 -26 23 -26 32c0 14 12 27 26 27c12 -2 21 -7 32 -17l65 -62c4 -4 10 -11 10 -16zM227 703c0 -13 -15 -30 -28 -30c-8 0 -24 14 -31 21l-48 45
c-11 10 -26 23 -26 32c0 14 12 27 26 27c12 -2 21 -7 32 -17l65 -62c4 -4 10 -11 10 -16z" />
    <glyph glyph-name="odblgrave" unicode="&#x20d;" 
d="M464 213c0 -124 -94 -219 -202 -219s-202 94 -202 219c0 123 92 221 202 221s202 -98 202 -221zM413 220c0 101 -72 172 -151 172c-78 0 -151 -71 -151 -172c0 -102 69 -184 151 -184c81 0 151 82 151 184zM428 531c0 -13 -15 -30 -28 -30c-8 0 -24 14 -31 21l-48 45
c-11 10 -26 23 -26 32c0 14 12 27 26 27c12 -2 21 -7 32 -17l65 -62c4 -4 10 -11 10 -16zM227 531c0 -13 -15 -30 -28 -30c-8 0 -24 14 -31 21l-48 45c-11 10 -26 23 -26 32c0 14 12 27 26 27c12 -2 21 -7 32 -17l65 -62c4 -4 10 -11 10 -16z" />
    <glyph glyph-name="Rdblgrave" unicode="&#x210;" 
d="M520 86c0 -35 -21 -97 -79 -97c-30 0 -55 13 -71 38c-20 35 -20 66 -20 130c0 47 -1 72 -26 96c-36 31 -70 31 -91 31h-91v-242h36c12 0 31 0 31 -21s-20 -21 -31 -21h-123c-11 0 -31 0 -31 21s19 21 31 21h36v527h-36c-11 0 -31 0 -31 20c0 22 19 22 31 22h183
c115 0 190 -79 190 -163c0 -40 -18 -99 -96 -143c26 -20 48 -40 60 -68c9 -22 9 -31 9 -93s6 -113 39 -113c22 0 30 46 30 57c1 21 17 21 25 21s25 0 25 -23zM378 448c0 53 -48 121 -151 121h-85v-242h85c102 0 151 66 151 121zM399 703c0 -13 -15 -30 -28 -30
c-8 0 -24 14 -31 21l-48 45c-11 10 -26 23 -26 32c0 14 12 27 26 27c12 -2 21 -7 32 -17l65 -62c4 -4 10 -11 10 -16zM198 703c0 -13 -15 -30 -28 -30c-8 0 -24 14 -31 21l-48 45c-11 10 -26 23 -26 32c0 14 12 27 26 27c12 -2 21 -7 32 -17l65 -62c4 -4 10 -11 10 -16z" />
    <glyph glyph-name="rdblgrave" unicode="&#x211;" 
d="M484 377c0 -21 -15 -34 -33 -34c-20 0 -34 17 -34 46c-142 0 -207 -105 -207 -207v-140h125c12 0 32 0 32 -21s-20 -21 -32 -21h-269c-12 0 -31 0 -31 22c0 20 19 20 31 20h94v341h-94c-12 0 -31 0 -31 21s19 21 31 21h113c27 0 31 -8 31 -32v-63c73 83 136 101 186 101
c76 0 88 -35 88 -54zM428 531c0 -13 -15 -30 -28 -30c-8 0 -24 14 -31 21l-48 45c-11 10 -26 23 -26 32c0 14 12 27 26 27c12 -2 21 -7 32 -17l65 -62c4 -4 10 -11 10 -16zM227 531c0 -13 -15 -30 -28 -30c-8 0 -24 14 -31 21l-48 45c-11 10 -26 23 -26 32c0 14 12 27 26 27
c12 -2 21 -7 32 -17l65 -62c4 -4 10 -11 10 -16z" />
    <glyph glyph-name="Udblgrave" unicode="&#x214;" 
d="M518 590c0 -21 -20 -21 -32 -21h-41v-368c0 -121 -85 -212 -183 -212s-183 91 -183 212v368h-41c-12 0 -32 0 -32 21s20 21 32 21h133c11 0 32 0 32 -21s-21 -21 -32 -21h-41v-363c0 -119 73 -175 132 -175c58 0 132 56 132 175v363h-41c-11 0 -32 0 -32 21s21 21 32 21
h133c12 0 32 0 32 -21zM428 703c0 -13 -15 -30 -28 -30c-8 0 -24 14 -31 21l-48 45c-11 10 -26 23 -26 32c0 14 12 27 26 27c12 -2 21 -7 32 -17l65 -62c4 -4 10 -11 10 -16zM227 703c0 -13 -15 -30 -28 -30c-8 0 -24 14 -31 21l-48 45c-11 10 -26 23 -26 32
c0 14 12 27 26 27c12 -2 21 -7 32 -17l65 -62c4 -4 10 -11 10 -16z" />
    <glyph glyph-name="udblgrave" unicode="&#x215;" 
d="M510 22c0 -22 -20 -22 -32 -22h-75c-14 0 -31 0 -32 43c-52 -39 -93 -49 -133 -49c-70 0 -136 22 -136 114v275h-57c-11 0 -31 0 -31 20c0 22 20 22 32 22h75c27 0 31 -8 31 -32v-279c0 -38 0 -78 92 -78c37 0 128 14 128 116v231h-57c-11 0 -31 0 -31 20
c0 22 20 22 32 22h75c27 0 31 -8 31 -32v-351h57c11 0 31 0 31 -20zM428 531c0 -13 -15 -30 -28 -30c-8 0 -24 14 -31 21l-48 45c-11 10 -26 23 -26 32c0 14 12 27 26 27c12 -2 21 -7 32 -17l65 -62c4 -4 10 -11 10 -16zM227 531c0 -13 -15 -30 -28 -30c-8 0 -24 14 -31 21
l-48 45c-11 10 -26 23 -26 32c0 14 12 27 26 27c12 -2 21 -7 32 -17l65 -62c4 -4 10 -11 10 -16z" />
    <glyph glyph-name="uni0218" unicode="&#x218;" 
d="M469 161c0 -87 -71 -172 -184 -172c-64 0 -125 15 -177 54c-11 -41 -15 -54 -32 -54c-21 0 -21 20 -21 32v136c0 15 0 32 26 32c23 0 24 -14 25 -26c1 -21 6 -68 53 -98c43 -29 96 -34 127 -34c88 0 136 67 136 125c0 97 -91 120 -123 127l-118 28
c-81 23 -126 87 -126 152c0 83 74 159 182 159c45 0 98 -11 151 -56c11 40 15 56 32 56c21 0 21 -20 21 -32v-136c0 -15 0 -32 -26 -32c-13 0 -21 3 -24 15c-8 40 -28 143 -155 143c-80 0 -134 -55 -134 -113c0 -53 42 -93 90 -107l84 -19c78 -18 105 -24 146 -64
c12 -13 47 -54 47 -116zM317 -122c0 -77 -72 -117 -94 -117c-8 0 -15 8 -15 15c0 5 5 9 9 10c27 9 72 30 72 89c-8 -4 -16 -6 -27 -6c-20 0 -38 15 -38 39c0 20 15 37 39 37c29 0 54 -26 54 -67z" />
    <glyph glyph-name="uni0219" unicode="&#x219;" 
d="M455 119c0 -47 -32 -125 -186 -125c-27 0 -80 2 -140 46c-14 -44 -25 -46 -32 -46c-21 0 -21 20 -21 32v100c0 15 0 32 26 32c14 0 19 -5 23 -12c31 -97 93 -110 145 -110c103 0 143 41 143 83c0 59 -87 78 -142 87c-90 13 -195 29 -195 117c0 34 24 111 186 111
c19 0 63 0 117 -26c5 17 8 26 25 26c20 0 20 -20 20 -32v-71c0 -15 0 -32 -26 -32c-16 0 -21 6 -23 15c-5 41 -20 78 -115 78c-108 0 -142 -40 -142 -69c0 -45 76 -63 109 -68l71 -12c31 -5 157 -25 157 -124zM317 -122c0 -77 -72 -117 -94 -117c-8 0 -15 8 -15 15
c0 5 5 9 9 10c27 9 72 30 72 89c-8 -4 -16 -6 -27 -6c-20 0 -38 15 -38 39c0 20 15 37 39 37c29 0 54 -26 54 -67z" />
    <glyph glyph-name="uni021A" unicode="&#x21a;" 
d="M496 503c0 -15 0 -32 -26 -32c-25 0 -25 18 -25 32v66h-157v-527h64c12 0 31 0 31 -21s-20 -21 -31 -21h-179c-12 0 -31 0 -31 22c0 20 20 20 31 20h64v527h-158v-66c0 -15 0 -32 -26 -32c-25 0 -25 18 -25 32v76c0 26 7 32 32 32h405c26 0 31 -8 31 -32v-76zM317 -122
c0 -77 -72 -117 -94 -117c-8 0 -15 8 -15 15c0 5 5 9 9 10c27 9 72 30 72 89c-8 -4 -16 -6 -27 -6c-20 0 -38 15 -38 39c0 20 15 37 39 37c29 0 54 -26 54 -67z" />
    <glyph glyph-name="uni021B" unicode="&#x21b;" 
d="M445 120c0 -86 -79 -126 -150 -126c-70 0 -135 34 -135 126v263h-102c-11 0 -31 0 -31 20c0 22 20 22 32 22h101v95c0 15 0 32 25 32s25 -18 25 -32v-95h180c12 0 31 0 31 -22c0 -20 -20 -20 -31 -20h-180v-257c0 -29 0 -90 90 -90c27 0 93 12 94 85c0 13 0 29 25 29
c26 0 26 -16 26 -30zM317 -122c0 -77 -72 -117 -94 -117c-8 0 -15 8 -15 15c0 5 5 9 9 10c27 9 72 30 72 89c-8 -4 -16 -6 -27 -6c-20 0 -38 15 -38 39c0 20 15 37 39 37c29 0 54 -26 54 -67z" />
    <glyph glyph-name="uni0237" unicode="&#x237;" 
d="M361 -56c0 -62 -35 -180 -177 -180c-38 0 -133 0 -133 69c0 23 18 37 36 37c17 0 35 -14 35 -36l-5 -17s24 -10 73 -10c26 0 61 0 92 43c28 39 29 81 29 99v434h-145c-11 0 -31 0 -31 20c0 22 20 22 32 22h163c27 0 31 -8 31 -32v-449z" />
    <glyph glyph-name="ereversed" unicode="&#x258;" 
d="M460 214c0 -121 -100 -220 -228 -220c-127 0 -174 84 -174 108c0 19 21 19 25 19c12 0 18 -1 22 -11c28 -63 88 -74 120 -74c82 0 164 55 184 161h-320c-17 0 -31 0 -31 28c0 112 62 209 190 209c117 0 212 -99 212 -220zM408 239c-18 93 -83 153 -160 153
c-58 0 -128 -27 -139 -153h299z" />
    <glyph glyph-name="schwa" unicode="&#x259;" 
d="M460 214c0 -121 -95 -220 -212 -220c-128 0 -190 97 -190 209c0 28 14 28 31 28h320c-20 106 -102 161 -184 161c-32 0 -92 -11 -120 -74c-4 -10 -10 -11 -22 -11c-4 0 -25 0 -25 19c0 24 47 108 174 108c128 0 228 -99 228 -220zM408 189h-299c11 -126 81 -153 139 -153
c77 0 142 60 160 153z" />
    <glyph glyph-name="ringhalfright" unicode="&#x2be;" 
d="M407 412c0 -65 -44 -165 -170 -165c-33 0 -110 7 -110 53c0 20 15 32 32 32c18 0 31 -10 31 -35c0 -6 30 -8 47 -8c101 0 122 86 122 123c0 68 -54 121 -118 121c-55 0 -71 -37 -78 -52c0 0 0 -1 -1 -1c-4 -7 -10 -8 -20 -8c-3 0 -24 1 -24 19c0 13 25 84 127 84
c93 0 162 -75 162 -163z" />
    <glyph glyph-name="ringhalfleft" unicode="&#x2bf;" 
d="M407 331c0 -13 -25 -84 -127 -84c-93 0 -162 75 -162 163c0 65 44 165 170 165c33 0 110 -7 110 -53c0 -20 -15 -32 -32 -32c-18 0 -31 10 -31 35c0 6 -30 8 -47 8c-101 0 -122 -86 -122 -123c0 -68 54 -121 118 -121c55 0 71 37 78 52c0 0 0 1 1 1c4 7 10 8 20 8
c3 0 24 -1 24 -19z" />
    <glyph glyph-name="circumflex" unicode="&#x2c6;" 
d="M406 528c0 -12 -7 -22 -24 -22c-6 0 -20 9 -30 15l-89 54l-89 -54c-10 -6 -24 -15 -30 -15c-17 0 -24 10 -24 22c0 8 11 15 22 22l103 66c11 7 23 7 34 0l105 -66c11 -7 22 -14 22 -22z" />
    <glyph glyph-name="caron" unicode="&#x2c7;" 
d="M406 599c0 -8 -11 -15 -22 -22l-103 -66c-11 -7 -23 -7 -34 0l-105 66c-11 7 -22 14 -22 22c0 12 7 22 24 22c6 0 20 -9 30 -15l89 -54l89 54c10 6 24 15 30 15c17 0 24 -10 24 -22z" />
    <glyph glyph-name="breve" unicode="&#x2d8;" 
d="M435 590c0 -74 -108 -74 -172 -74s-172 0 -172 74c0 14 9 22 22 22c11 0 16 -5 18 -11c9 -34 83 -40 132 -40c48 0 123 6 132 40c2 6 7 11 18 11c14 0 22 -8 22 -22z" />
    <glyph glyph-name="dotaccent" unicode="&#x2d9;" 
d="M304 563c0 -23 -18 -41 -41 -41s-41 18 -41 41c0 24 18 42 41 42s41 -18 41 -42z" />
    <glyph glyph-name="ring" unicode="&#x2da;" 
d="M315 563c0 23 -25 36 -52 36s-52 -13 -52 -36c0 -22 25 -34 52 -34s52 12 52 34zM365 563c0 -38 -43 -71 -102 -71s-102 33 -102 71c0 39 43 73 102 73s102 -34 102 -73z" />
    <glyph glyph-name="ogonek" unicode="&#x2db;" 
d="M355 -153c-23 -32 -59 -57 -95 -57c-59 0 -92 48 -92 88c0 44 35 86 71 111h27c-35 -25 -58 -67 -58 -113c0 -31 33 -51 56 -51s50 23 64 42c4 4 17 8 24 3s7 -17 3 -23z" />
    <glyph glyph-name="tilde" unicode="&#x2dc;" 
d="M434 592c0 -13 -29 -35 -47 -48c-22 -16 -48 -32 -74 -32c-20 0 -35 8 -47 18c-32 29 -42 39 -55 39c-15 0 -45 -17 -79 -49c-5 -4 -10 -8 -18 -8c-11 0 -22 11 -22 22c0 14 29 35 47 49c22 16 49 32 74 32c20 0 35 -9 47 -18c32 -29 42 -39 55 -39c15 0 45 17 79 48
c5 5 10 9 18 9c11 0 22 -11 22 -23z" />
    <glyph glyph-name="hungarumlaut" unicode="&#x2dd;" 
d="M230 599c0 -9 -15 -22 -26 -32l-48 -45c-7 -7 -23 -21 -31 -21c-13 0 -28 17 -28 30c0 5 6 12 10 16l65 62c11 10 20 15 32 17c14 0 26 -13 26 -27zM431 599c0 -9 -15 -22 -26 -32l-48 -45c-7 -7 -23 -21 -31 -21c-13 0 -28 17 -28 30c0 5 6 12 10 16l65 62
c11 10 20 15 32 17c14 0 26 -13 26 -27z" />
    <glyph glyph-name="uni0300" unicode="&#x300;" horiz-adv-x="0" 
d="M-164 536c0 -7 -4 -31 -24 -31c0 0 -5 0 -7 1l-144 64c-19 8 -23 18 -23 27c0 14 11 25 26 25c0 0 6 0 15 -4l138 -62c10 -4 19 -8 19 -20z" />
    <glyph glyph-name="uni0301" unicode="&#x301;" horiz-adv-x="0" 
d="M-163 597c0 -9 -4 -19 -23 -27l-144 -64c-2 -1 -7 -1 -7 -1c-20 0 -24 24 -24 31c0 12 9 16 19 20l138 62c9 4 15 4 15 4c15 0 26 -11 26 -25z" />
    <glyph glyph-name="uni0302" unicode="&#x302;" horiz-adv-x="0" 
d="M-119 528c0 -12 -7 -22 -24 -22c-6 0 -20 9 -30 15l-89 54l-89 -54c-10 -6 -24 -15 -30 -15c-17 0 -24 10 -24 22c0 8 11 15 22 22l103 66c11 7 23 7 34 0l105 -66c11 -7 22 -14 22 -22z" />
    <glyph glyph-name="uni0303" unicode="&#x303;" horiz-adv-x="0" 
d="M-91 592c0 -13 -29 -35 -47 -48c-22 -16 -48 -32 -74 -32c-20 0 -35 8 -47 18c-32 29 -42 39 -55 39c-15 0 -45 -17 -79 -49c-5 -4 -10 -8 -18 -8c-11 0 -22 11 -22 22c0 14 29 35 47 49c22 16 49 32 74 32c20 0 35 -9 47 -18c32 -29 42 -39 55 -39c15 0 45 17 79 48
c5 5 10 9 18 9c11 0 22 -11 22 -23z" />
    <glyph glyph-name="uni0304" unicode="&#x304;" horiz-adv-x="0" 
d="M-77 563c0 -21 -19 -21 -31 -21h-307c-13 0 -32 0 -32 22s19 22 31 22h308c13 0 31 0 31 -23z" />
    <glyph glyph-name="uni0306" unicode="&#x306;" horiz-adv-x="0" 
d="M-90 590c0 -74 -108 -74 -172 -74s-172 0 -172 74c0 14 9 22 22 22c11 0 16 -5 18 -11c9 -34 83 -40 132 -40c48 0 123 6 132 40c2 6 7 11 18 11c14 0 22 -8 22 -22z" />
    <glyph glyph-name="uni0307" unicode="&#x307;" horiz-adv-x="0" 
d="M-221 563c0 -23 -18 -41 -41 -41s-41 18 -41 41c0 24 18 42 41 42s41 -18 41 -42z" />
    <glyph glyph-name="uni0308" unicode="&#x308;" horiz-adv-x="0" 
d="M-312 563c0 -20 -16 -36 -36 -36s-36 16 -36 36c0 21 16 37 36 37s36 -16 36 -37zM-141 563c0 -20 -16 -36 -36 -36s-36 16 -36 36c0 21 16 37 36 37s36 -16 36 -37z" />
    <glyph glyph-name="uni0309" unicode="&#x309;" horiz-adv-x="0" 
d="M-171 600c0 -22 -13 -41 -31 -50c-35 -19 -50 -40 -50 -58v-19c0 -10 -8 -18 -18 -18c-11 0 -19 8 -19 18v19c0 42 31 69 70 91c7 5 11 14 11 14c0 12 -5 22 -13 27c-11 7 -27 11 -49 11c-25 0 -45 -18 -45 -36c0 -5 -4 -19 -19 -19s-20 5 -20 19c0 44 41 73 84 73
c29 0 49 -4 69 -17c19 -13 30 -34 30 -55z" />
    <glyph glyph-name="uni030A" unicode="&#x30a;" horiz-adv-x="0" 
d="M-210 563c0 23 -25 36 -52 36s-52 -13 -52 -36c0 -22 25 -34 52 -34s52 12 52 34zM-160 563c0 -38 -43 -71 -102 -71s-102 33 -102 71c0 39 43 73 102 73s102 -34 102 -73z" />
    <glyph glyph-name="uni030B" unicode="&#x30b;" horiz-adv-x="0" 
d="M-295 599c0 -9 -15 -22 -26 -32l-48 -45c-7 -7 -23 -21 -31 -21c-13 0 -28 17 -28 30c0 5 6 12 10 16l65 62c11 10 20 15 32 17c14 0 26 -13 26 -27zM-94 599c0 -9 -15 -22 -26 -32l-48 -45c-7 -7 -23 -21 -31 -21c-13 0 -28 17 -28 30c0 5 6 12 10 16l65 62
c11 10 20 15 32 17c14 0 26 -13 26 -27z" />
    <glyph glyph-name="uni030C" unicode="&#x30c;" horiz-adv-x="0" 
d="M-119 599c0 -8 -11 -15 -22 -22l-103 -66c-11 -7 -23 -7 -34 0l-105 66c-11 7 -22 14 -22 22c0 12 7 22 24 22c6 0 20 -9 30 -15l89 -54l89 54c10 6 24 15 30 15c17 0 24 -10 24 -22z" />
    <glyph glyph-name="uni030F" unicode="&#x30f;" horiz-adv-x="0" 
d="M-97 531c0 -13 -15 -30 -28 -30c-8 0 -24 14 -31 21l-48 45c-11 10 -26 23 -26 32c0 14 12 27 26 27c12 -2 21 -7 32 -17l65 -62c4 -4 10 -11 10 -16zM-298 531c0 -13 -15 -30 -28 -30c-8 0 -24 14 -31 21l-48 45c-11 10 -26 23 -26 32c0 14 12 27 26 27
c12 -2 21 -7 32 -17l65 -62c4 -4 10 -11 10 -16z" />
    <glyph glyph-name="uni0311" unicode="&#x311;" horiz-adv-x="0" 
d="M-90 538c0 -14 -9 -22 -22 -22c-11 0 -16 5 -18 11c-9 34 -83 40 -132 40c-48 0 -123 -6 -132 -40c-2 -6 -7 -11 -18 -11c-14 0 -22 8 -22 22c0 74 108 74 172 74s172 0 172 -74z" />
    <glyph glyph-name="uni0323" unicode="&#x323;" horiz-adv-x="0" 
d="M-221 -165c0 -24 -18 -42 -41 -42s-41 18 -41 42c0 23 18 41 41 41s41 -18 41 -41z" />
    <glyph glyph-name="uni0326" unicode="&#x326;" horiz-adv-x="0" 
d="M-208 -122c0 -77 -72 -117 -94 -117c-8 0 -15 8 -15 15c0 5 5 9 9 10c27 9 72 30 72 89c-8 -4 -16 -6 -27 -6c-20 0 -38 15 -38 39c0 20 15 37 39 37c29 0 54 -26 54 -67z" />
    <glyph glyph-name="uni032E" unicode="&#x32e;" horiz-adv-x="0" 
d="M-90 -124c0 -74 -108 -74 -172 -74s-172 0 -172 74c0 13 9 22 22 22c11 0 16 -5 18 -11c9 -34 83 -40 132 -40c48 0 123 6 132 40c2 6 7 11 18 11c14 0 22 -9 22 -22z" />
    <glyph glyph-name="uni032F" unicode="&#x32f;" horiz-adv-x="0" 
d="M-90 -176c0 -13 -9 -22 -22 -22c-11 0 -16 5 -18 11c-9 34 -83 40 -132 40c-48 0 -123 -6 -132 -40c-2 -6 -7 -11 -18 -11c-14 0 -22 9 -22 22c0 74 108 74 172 74s172 0 172 -74z" />
    <glyph glyph-name="uni0330" unicode="&#x330;" horiz-adv-x="0" 
d="M-91 -121c0 -13 -29 -35 -47 -48c-22 -17 -48 -32 -74 -32c-20 0 -35 8 -47 18c-32 29 -42 38 -55 38c-15 0 -45 -16 -79 -48c-5 -4 -10 -8 -18 -8c-11 0 -22 11 -22 22c0 14 29 35 47 49c22 16 49 32 74 32c20 0 35 -9 47 -18c32 -29 42 -39 55 -39c15 0 45 17 79 48
c5 5 10 9 18 9c11 0 22 -11 22 -23z" />
    <glyph glyph-name="uni0331" unicode="&#x331;" horiz-adv-x="0" 
d="M-77 -151c0 -21 -19 -21 -31 -21h-307c-13 0 -32 0 -32 22s19 22 31 22h308c13 0 31 0 31 -23z" />
    <glyph glyph-name="uni0332" unicode="&#x332;" horiz-adv-x="0" 
d="M-77 -151c0 -21 -19 -21 -31 -21h-307c-13 0 -32 0 -32 22s19 22 31 22h308c13 0 31 0 31 -23z" />
    <glyph glyph-name="Alpha" unicode="&#x391;" 
d="M495 21c0 -21 -22 -21 -35 -21h-105c-14 0 -33 0 -33 21s18 21 60 21l-28 129h-184l-28 -129c42 0 60 0 60 -21s-19 -21 -33 -21h-106c-12 0 -34 0 -34 21c0 9 4 16 12 20c6 1 27 1 48 1l127 550c8 31 22 31 46 31c26 0 38 0 46 -32l127 -549c21 0 41 0 47 -1
c10 -4 13 -11 13 -20zM343 213l-77 368h-7l-78 -368h162z" />
    <glyph glyph-name="Beta" unicode="&#x392;" 
d="M479 162c0 -76 -58 -162 -168 -162h-255c-10 0 -31 0 -31 21s20 21 32 21h39v527h-39c-12 0 -32 0 -32 21s21 21 31 21h234c108 0 167 -79 167 -150c0 -60 -33 -110 -128 -142c113 -27 150 -90 150 -157zM407 460c0 38 -25 109 -121 109h-140v-230h117
c109 0 144 75 144 121zM428 164c0 65 -63 133 -159 133h-123v-255h142c97 0 140 67 140 122z" />
    <glyph glyph-name="Gamma" unicode="&#x393;" 
d="M485 503c0 -15 0 -32 -26 -32c-24 0 -24 18 -24 32v66h-270v-527h68c11 0 32 0 32 -21s-21 -21 -32 -21h-167c-12 0 -31 0 -31 21s19 21 31 21h48v527h-48c-12 0 -31 0 -31 20c0 22 19 22 31 22h388c27 0 31 -8 31 -32v-76z" />
    <glyph glyph-name="Delta" unicode="&#x394;" 
d="M487 12c0 -12 -15 -12 -25 -12h-400c-10 0 -25 0 -25 12v1l178 584c8 26 28 26 47 26c28 0 38 -2 47 -30l178 -580v-1zM424 49l-160 532h-4l-160 -532h324z" />
    <glyph glyph-name="Epsilon" unicode="&#x395;" 
d="M500 32c0 -25 -6 -32 -31 -32h-409c-11 0 -32 0 -32 21s20 21 32 21h42v527h-42c-11 0 -32 0 -32 21s21 21 32 21h386c26 0 31 -8 31 -32v-76c0 -15 0 -32 -26 -32c-25 0 -25 18 -25 32v66h-274v-231h157c0 44 0 59 25 59s25 -18 25 -32v-96c0 -15 0 -32 -25 -32
s-25 15 -25 59h-157v-254h297v82c0 15 0 32 26 32c25 0 25 -17 25 -32v-92z" />
    <glyph glyph-name="Zeta" unicode="&#x396;" 
d="M478 32c0 -25 -5 -32 -31 -32h-364c-14 0 -32 0 -32 25c0 8 0 13 9 26l351 518h-297v-66c0 -15 0 -32 -26 -32c-25 0 -25 18 -25 32v76c0 26 7 32 33 32h345c14 0 32 0 32 -25c0 -8 0 -13 -9 -26l-351 -518h314v85c0 15 0 32 26 32c25 0 25 -17 25 -32v-95z" />
    <glyph glyph-name="Eta" unicode="&#x397;" 
d="M500 21c0 -21 -20 -21 -31 -21h-123c-12 0 -31 0 -31 22c0 20 20 20 31 20h36v255h-240v-255h36c12 0 31 0 31 -21s-20 -21 -31 -21h-123c-11 0 -31 0 -31 21s19 21 31 21h36v527h-36c-11 0 -31 0 -31 20c0 22 19 22 31 22h123c12 0 31 0 31 -22c0 -20 -20 -20 -31 -20
h-36v-230h240v230h-36c-12 0 -31 0 -31 21s20 21 31 21h123c12 0 31 0 31 -22c0 -20 -20 -20 -31 -20h-36v-527h36c12 0 31 0 31 -21z" />
    <glyph glyph-name="Theta" unicode="&#x398;" 
d="M465 305c0 -288 -20 -316 -203 -316c-184 0 -203 28 -203 316c0 289 19 317 203 317s203 -29 203 -317zM414 306c0 56 0 127 -9 181c-13 72 -43 93 -143 93c-103 0 -127 -24 -141 -86c-11 -50 -11 -130 -11 -189c0 -56 0 -127 9 -181c13 -72 43 -93 143 -93
c103 0 127 24 141 86c11 50 11 130 11 189zM353 281c0 -15 0 -32 -26 -32c-9 0 -23 1 -25 32h-80c-2 -32 -17 -32 -25 -32c-26 0 -26 17 -26 32v49c0 15 0 32 26 32c9 0 23 -1 25 -32h80c2 32 17 32 25 32c26 0 26 -17 26 -32v-49z" />
    <glyph glyph-name="Iota" unicode="&#x399;" 
d="M442 21c0 -21 -21 -21 -32 -21h-295c-11 0 -32 0 -32 22c0 20 21 20 32 20h122v527h-122c-11 0 -32 0 -32 21s21 21 32 21h295c11 0 32 0 32 -22c0 -20 -21 -20 -32 -20h-122v-527h122c11 0 32 0 32 -21z" />
    <glyph glyph-name="Kappa" unicode="&#x39a;" 
d="M493 21c0 -21 -21 -21 -33 -21h-77c-12 0 -32 0 -32 22c0 20 20 20 49 20l-161 288l-108 -136v-152h33c12 0 32 0 32 -21s-21 -21 -32 -21h-104c-12 0 -32 0 -32 22c0 20 21 20 32 20h31v527h-31c-12 0 -32 0 -32 21s21 21 32 21h104c12 0 32 0 32 -22
c0 -20 -21 -20 -32 -20h-33v-315l250 315c-32 0 -54 0 -54 20c0 22 21 22 32 22h91c11 0 32 0 32 -21s-19 -21 -53 -21l-165 -208l179 -319c29 0 50 0 50 -21z" />
    <glyph glyph-name="Lambda" unicode="&#x39b;" 
d="M493 21c0 -21 -21 -21 -33 -21h-111c-12 0 -32 0 -32 22c0 20 21 20 32 20h34l-119 539h-5l-119 -539h35c12 0 32 0 32 -21s-21 -21 -32 -21h-112c-11 0 -32 0 -32 21s20 21 57 21l128 554c7 27 24 27 41 27h10c18 0 34 0 42 -30l127 -551c37 0 57 0 57 -21z" />
    <glyph glyph-name="Mu" unicode="&#x39c;" 
d="M505 21c0 -21 -20 -21 -31 -21h-85c-11 0 -31 0 -31 21s19 21 55 21v527h-7l-111 -341c-4 -13 -23 -17 -33 -17c-9 0 -26 2 -30 13l-113 345h-7v-527c35 0 54 0 54 -21s-20 -21 -31 -21h-85c-11 0 -31 0 -31 21s19 21 55 21v527c-36 0 -55 0 -55 21s20 21 31 21h58
c11 0 38 1 44 -18l109 -340h2l104 324c7 22 15 34 49 34h58c11 0 31 0 31 -21s-19 -21 -55 -21v-527c36 0 55 0 55 -21z" />
    <glyph glyph-name="Nu" unicode="&#x39d;" 
d="M494 589c0 -20 -20 -20 -31 -20h-37v-537c0 -30 -9 -32 -33 -32c-22 0 -38 1 -49 30l-200 539h-9v-527h36c12 0 31 0 31 -21s-20 -21 -31 -21h-110c-12 0 -31 0 -31 22c0 20 20 20 31 20h37v527h-37c-12 0 -31 0 -31 21s20 21 31 21h71c23 0 37 -2 48 -30l200 -539h9v527
h-36c-11 0 -31 0 -31 20c0 22 19 22 31 22h110c12 0 31 0 31 -22z" />
    <glyph glyph-name="Xi" unicode="&#x39e;" 
d="M484 559c0 -14 0 -32 -25 -32s-25 16 -25 44h-344c0 -28 0 -44 -25 -44s-25 18 -25 32v20c0 26 6 32 32 32h381c27 0 31 -8 31 -32v-20zM410 293c0 -16 0 -31 -26 -31c-18 0 -25 7 -25 36h-194c0 -29 -7 -36 -25 -36c-26 0 -26 15 -26 31v50c0 15 0 31 26 31
c18 0 25 -7 25 -36h194c0 29 7 36 25 36c26 0 26 -16 26 -31v-50zM488 32c0 -25 -5 -32 -31 -32h-389c-26 0 -32 6 -32 32v25c0 14 0 32 24 32c26 0 26 -16 26 -49h352c0 33 0 49 26 49c24 0 24 -18 24 -32v-25z" />
    <glyph glyph-name="Omicron" unicode="&#x39f;" 
d="M465 305c0 -288 -20 -316 -203 -316c-184 0 -203 28 -203 316c0 289 19 317 203 317s203 -29 203 -317zM414 314c0 64 0 143 -13 192c-17 62 -55 74 -139 74c-92 0 -126 -15 -140 -81c-12 -49 -12 -120 -12 -185c0 -57 0 -148 13 -202c13 -56 40 -81 139 -81
c100 0 128 25 140 88c12 56 12 130 12 195z" />
    <glyph glyph-name="Pi" unicode="&#x3a0;" 
d="M500 21c0 -21 -20 -21 -31 -21h-123c-12 0 -31 0 -31 22c0 20 20 20 31 20h36v527h-240v-527h36c12 0 31 0 31 -21s-20 -21 -31 -21h-123c-11 0 -31 0 -31 21s19 21 31 21h36v527h-36c-11 0 -31 0 -31 20c0 22 19 22 31 22h414c12 0 31 0 31 -22c0 -20 -20 -20 -31 -20
h-36v-527h36c12 0 31 0 31 -21z" />
    <glyph glyph-name="Rho" unicode="&#x3a1;" 
d="M477 432c0 -91 -72 -179 -185 -179h-140v-211h42c11 0 32 0 32 -21s-21 -21 -32 -21h-134c-11 0 -32 0 -32 21s20 21 32 21h42v527h-42c-11 0 -32 0 -32 21s21 21 32 21h232c112 0 185 -88 185 -179zM426 432c0 59 -47 137 -154 137h-120v-273h120c107 0 154 77 154 136z
" />
    <glyph glyph-name="Sigma" unicode="&#x3a3;" 
d="M481 32c0 -25 -5 -32 -31 -32h-375c-10 0 -32 0 -32 19c0 0 0 3 1 5l163 281l-157 265c-7 10 -7 15 -7 19c0 22 20 22 32 22h375c27 0 31 -8 31 -32v-76c0 -15 0 -32 -26 -32c-25 0 -25 18 -25 32v66h-320l152 -260c0 -7 -1 -10 -8 -22l-140 -243h316v66c0 15 0 32 26 32
c25 0 25 -18 25 -32v-78z" />
    <glyph glyph-name="Tau" unicode="&#x3a4;" 
d="M496 503c0 -15 0 -32 -26 -32c-25 0 -25 18 -25 32v66h-157v-527h64c12 0 31 0 31 -21s-20 -21 -31 -21h-179c-12 0 -31 0 -31 22c0 20 20 20 31 20h64v527h-158v-66c0 -15 0 -32 -26 -32c-25 0 -25 18 -25 32v76c0 26 7 32 32 32h405c26 0 31 -8 31 -32v-76z" />
    <glyph glyph-name="Upsilon" unicode="&#x3a5;" 
d="M483 499c0 -22 -18 -22 -25 -22c-9 0 -25 0 -25 24c0 39 -15 88 -59 88c-80 0 -86 -173 -86 -231v-316h46c12 0 32 0 32 -21s-20 -21 -32 -21h-143c-12 0 -32 0 -32 21s20 21 32 21h46v316c0 57 -6 231 -87 231c-42 0 -59 -45 -59 -90c0 -22 -17 -22 -25 -22
c-7 0 -25 0 -25 22c0 55 40 123 108 123c53 0 95 -38 114 -173c21 136 55 173 112 173c69 0 108 -69 108 -123z" />
    <glyph glyph-name="Phi" unicode="&#x3a6;" 
d="M481 305c0 -69 -76 -133 -193 -146v-117h53c11 0 32 0 32 -21s-21 -21 -32 -21h-157c-11 0 -32 0 -32 22c0 20 21 20 32 20h53v117c-114 11 -194 73 -194 147c0 70 76 134 194 146v117h-53c-11 0 -32 0 -32 21s21 21 32 21h157c11 0 32 0 32 -22c0 -20 -21 -20 -32 -20
h-53v-117c115 -12 193 -74 193 -147zM430 306c0 48 -55 92 -142 104v-209c81 12 142 52 142 105zM237 201v209c-88 -12 -144 -56 -144 -105c0 -46 52 -91 144 -104z" />
    <glyph glyph-name="Chi" unicode="&#x3a7;" 
d="M494 21c0 -21 -21 -21 -32 -21h-108c-11 0 -31 0 -31 21s18 21 53 21l-120 235l-111 -235c35 0 55 0 55 -21s-21 -21 -32 -21h-108c-11 0 -31 0 -31 21s19 21 31 21h29l143 284l-129 243h-30c-12 0 -32 0 -32 21s21 21 32 21h107c11 0 31 0 31 -21s-19 -21 -51 -21
l97 -185l90 185c-35 0 -54 0 -54 21s20 21 31 21h108c11 0 32 0 32 -22c0 -20 -21 -20 -32 -20h-30l-122 -242l152 -285h30c11 0 32 0 32 -21z" />
    <glyph glyph-name="Psi" unicode="&#x3a8;" 
d="M483 457c0 -16 -13 -20 -19 -21c-17 -4 -22 -48 -22 -66c-1 -86 -27 -188 -154 -210v-118h46c12 0 32 0 32 -21s-20 -21 -32 -21h-143c-12 0 -32 0 -32 21s20 21 32 21h46v118c-127 22 -154 126 -155 200c0 32 -7 72 -22 76c-6 1 -19 5 -19 21c0 22 19 22 27 22
c60 0 65 -59 65 -106c0 -66 12 -144 104 -171v367h-46c-12 0 -32 0 -32 20c0 22 20 22 32 22h143c12 0 32 0 32 -22c0 -20 -20 -20 -32 -20h-46v-367c92 29 103 109 103 170c0 36 0 107 65 107c8 0 27 0 27 -22z" />
    <glyph glyph-name="Omega" unicode="&#x3a9;" 
d="M489 32c0 -25 -5 -32 -31 -32h-106c-15 0 -32 0 -32 26c0 65 33 139 54 188c33 76 56 133 56 195c0 99 -79 171 -168 171s-169 -72 -169 -171c0 -59 25 -119 85 -261c15 -40 26 -82 26 -122c0 -26 -16 -26 -31 -26h-106c-26 0 -32 6 -32 32v27c0 10 0 32 18 32
c19 0 19 -22 19 -49h88c-9 60 -24 96 -56 164c-30 66 -61 132 -61 203c0 121 100 213 219 213s219 -92 219 -213c0 -69 -28 -132 -58 -196c-33 -70 -50 -107 -59 -171h88c0 27 0 49 19 49c18 0 18 -22 18 -32v-27z" />
    <glyph glyph-name="baht" unicode="&#xe3f;" 
d="M479 162c0 -76 -58 -162 -168 -162h-36v-74c0 -12 -8 -22 -20 -22c-13 0 -22 10 -22 22v74h-177c-10 0 -31 0 -31 21s20 21 32 21h39v527h-39c-12 0 -32 0 -32 21s21 21 31 21h176v74c0 12 10 22 23 22c12 0 21 -10 21 -22v-74h14c108 0 167 -79 167 -150
c0 -60 -33 -110 -128 -142c113 -27 150 -90 150 -157zM407 460c0 38 -25 109 -131 109v-230c101 12 131 78 131 121zM233 339v230h-87v-230h87zM428 164c0 51 -50 133 -146 133h-7v-255h13c97 0 140 67 140 122zM233 42v255h-87v-255h87z" />
    <glyph glyph-name="Ddotbelow" unicode="&#x1e0c;" 
d="M482 301c0 -160 -86 -301 -216 -301h-213c-11 0 -32 0 -32 21s20 21 32 21h33v527h-33c-11 0 -32 0 -32 20c0 22 20 22 32 22h213c133 0 216 -151 216 -310zM432 301c0 125 -63 268 -186 268h-109v-527h109c121 0 186 132 186 259zM241 -165c0 -24 -18 -42 -41 -42
s-41 18 -41 42c0 23 18 41 41 41s41 -18 41 -41z" />
    <glyph glyph-name="ddotbelow" unicode="&#x1e0d;" 
d="M510 22c0 -22 -20 -22 -32 -22h-75c-31 0 -31 12 -31 67c-46 -47 -86 -73 -141 -73c-104 0 -192 96 -192 218c0 125 94 219 201 219c42 0 82 -16 132 -59v197h-57c-11 0 -31 0 -31 20c0 22 20 22 32 22h75c27 0 31 -8 31 -32v-537h57c11 0 31 0 31 -20zM372 190v74
c0 62 -56 125 -128 125c-77 0 -155 -71 -155 -177c0 -98 68 -176 146 -176c86 0 137 92 137 154zM304 -165c0 -24 -18 -42 -41 -42s-41 18 -41 42c0 23 18 41 41 41s41 -18 41 -41z" />
    <glyph glyph-name="Dlinebelow" unicode="&#x1e0e;" 
d="M482 301c0 -160 -86 -301 -216 -301h-213c-11 0 -32 0 -32 21s20 21 32 21h33v527h-33c-11 0 -32 0 -32 20c0 22 20 22 32 22h213c133 0 216 -151 216 -310zM432 301c0 125 -63 268 -186 268h-109v-527h109c121 0 186 132 186 259zM385 -151c0 -21 -19 -21 -31 -21h-307
c-13 0 -32 0 -32 22s19 22 31 22h308c13 0 31 0 31 -23z" />
    <glyph glyph-name="dlinebelow" unicode="&#x1e0f;" 
d="M510 22c0 -22 -20 -22 -32 -22h-75c-31 0 -31 12 -31 67c-46 -47 -86 -73 -141 -73c-104 0 -192 96 -192 218c0 125 94 219 201 219c42 0 82 -16 132 -59v197h-57c-11 0 -31 0 -31 20c0 22 20 22 32 22h75c27 0 31 -8 31 -32v-537h57c11 0 31 0 31 -20zM372 190v74
c0 62 -56 125 -128 125c-77 0 -155 -71 -155 -177c0 -98 68 -176 146 -176c86 0 137 92 137 154zM448 -151c0 -21 -19 -21 -31 -21h-307c-13 0 -32 0 -32 22s19 22 31 22h308c13 0 31 0 31 -23z" />
    <glyph glyph-name="Hdotbelow" unicode="&#x1e24;" 
d="M500 21c0 -21 -20 -21 -31 -21h-123c-12 0 -31 0 -31 22c0 20 20 20 31 20h36v255h-240v-255h36c12 0 31 0 31 -21s-20 -21 -31 -21h-123c-11 0 -31 0 -31 21s19 21 31 21h36v527h-36c-11 0 -31 0 -31 20c0 22 19 22 31 22h123c12 0 31 0 31 -22c0 -20 -20 -20 -31 -20
h-36v-230h240v230h-36c-12 0 -31 0 -31 21s20 21 31 21h123c12 0 31 0 31 -22c0 -20 -20 -20 -31 -20h-36v-527h36c12 0 31 0 31 -21zM304 -165c0 -24 -18 -42 -41 -42s-41 18 -41 42c0 23 18 41 41 41s41 -18 41 -41z" />
    <glyph glyph-name="hdotbelow" unicode="&#x1e25;" 
d="M510 21c0 -21 -20 -21 -31 -21h-158c-11 0 -32 0 -32 21s20 21 32 21h51v245c0 70 -18 102 -80 102c-57 0 -140 -42 -140 -153v-194h56c12 0 32 0 32 -21s-20 -21 -31 -21h-164c-11 0 -31 0 -31 21s20 21 32 21h56v527h-57c-11 0 -31 0 -31 20c0 22 20 22 32 22h75
c27 0 31 -8 31 -32v-217c37 36 81 69 146 69c76 0 124 -42 124 -138v-251h56c12 0 32 0 32 -21zM304 -165c0 -24 -18 -42 -41 -42s-41 18 -41 42c0 23 18 41 41 41s41 -18 41 -41z" />
    <glyph glyph-name="Hdieresis" unicode="&#x1e26;" 
d="M500 21c0 -21 -20 -21 -31 -21h-123c-12 0 -31 0 -31 22c0 20 20 20 31 20h36v255h-240v-255h36c12 0 31 0 31 -21s-20 -21 -31 -21h-123c-11 0 -31 0 -31 21s19 21 31 21h36v527h-36c-11 0 -31 0 -31 20c0 22 19 22 31 22h123c12 0 31 0 31 -22c0 -20 -20 -20 -31 -20
h-36v-230h240v230h-36c-12 0 -31 0 -31 21s20 21 31 21h123c12 0 31 0 31 -22c0 -20 -20 -20 -31 -20h-36v-527h36c12 0 31 0 31 -21zM198 699c0 -20 -16 -36 -36 -36s-36 16 -36 36c0 21 16 36 36 36s36 -15 36 -36zM399 699c0 -20 -16 -36 -36 -36s-36 16 -36 36
c0 21 16 36 36 36s36 -15 36 -36z" />
    <glyph glyph-name="hdieresis" unicode="&#x1e27;" 
d="M510 21c0 -21 -20 -21 -31 -21h-158c-11 0 -32 0 -32 21s20 21 32 21h51v245c0 70 -18 102 -80 102c-57 0 -140 -42 -140 -153v-194h56c12 0 32 0 32 -21s-20 -21 -31 -21h-164c-11 0 -31 0 -31 21s20 21 32 21h56v527h-57c-11 0 -31 0 -31 20c0 22 20 22 32 22h75
c27 0 31 -8 31 -32v-217c37 36 81 69 146 69c76 0 124 -42 124 -138v-251h56c12 0 32 0 32 -21zM198 699c0 -20 -16 -36 -36 -36s-36 16 -36 36c0 21 16 36 36 36s36 -15 36 -36zM399 699c0 -20 -16 -36 -36 -36s-36 16 -36 36c0 21 16 36 36 36s36 -15 36 -36z" />
    <glyph glyph-name="Hbrevebelow" unicode="&#x1e2a;" 
d="M500 21c0 -21 -20 -21 -31 -21h-123c-12 0 -31 0 -31 22c0 20 20 20 31 20h36v255h-240v-255h36c12 0 31 0 31 -21s-20 -21 -31 -21h-123c-11 0 -31 0 -31 21s19 21 31 21h36v527h-36c-11 0 -31 0 -31 20c0 22 19 22 31 22h123c12 0 31 0 31 -22c0 -20 -20 -20 -31 -20
h-36v-230h240v230h-36c-12 0 -31 0 -31 21s20 21 31 21h123c12 0 31 0 31 -22c0 -20 -20 -20 -31 -20h-36v-527h36c12 0 31 0 31 -21zM435 -124c0 -74 -108 -74 -172 -74s-172 0 -172 74c0 13 9 22 22 22c11 0 16 -5 18 -11c9 -34 83 -40 132 -40c48 0 123 6 132 40
c2 6 7 11 18 11c14 0 22 -9 22 -22z" />
    <glyph glyph-name="hbrevebelow" unicode="&#x1e2b;" 
d="M510 21c0 -21 -20 -21 -31 -21h-158c-11 0 -32 0 -32 21s20 21 32 21h51v245c0 70 -18 102 -80 102c-57 0 -140 -42 -140 -153v-194h56c12 0 32 0 32 -21s-20 -21 -31 -21h-164c-11 0 -31 0 -31 21s20 21 32 21h56v527h-57c-11 0 -31 0 -31 20c0 22 20 22 32 22h75
c27 0 31 -8 31 -32v-217c37 36 81 69 146 69c76 0 124 -42 124 -138v-251h56c12 0 32 0 32 -21zM435 -124c0 -74 -108 -74 -172 -74s-172 0 -172 74c0 13 9 22 22 22c11 0 16 -5 18 -11c9 -34 83 -40 132 -40c48 0 123 6 132 40c2 6 7 11 18 11c14 0 22 -9 22 -22z" />
    <glyph glyph-name="Idieresisacute" unicode="&#x1e2e;" 
d="M442 21c0 -21 -21 -21 -32 -21h-295c-11 0 -32 0 -32 22c0 20 21 20 32 20h122v527h-122c-11 0 -32 0 -32 21s21 21 32 21h295c11 0 32 0 32 -22c0 -20 -21 -20 -32 -20h-122v-527h122c11 0 32 0 32 -21zM198 699c0 -20 -16 -36 -36 -36s-36 16 -36 36c0 21 16 36 36 36
s36 -15 36 -36zM399 699c0 -20 -16 -36 -36 -36s-36 16 -36 36c0 21 16 36 36 36s36 -15 36 -36zM362 888c0 -8 -4 -18 -23 -26l-144 -64c-2 -1 -7 -2 -7 -2c-20 0 -24 25 -24 31c0 12 9 16 19 21l138 62c9 4 15 4 15 4c15 0 26 -11 26 -26z" />
    <glyph glyph-name="idieresisacute" unicode="&#x1e2f;" 
d="M451 21c0 -21 -21 -21 -32 -21h-305c-11 0 -32 0 -32 21s20 21 32 21h136v341h-128c-11 0 -32 0 -32 21s21 21 32 21h147c27 0 31 -8 31 -32v-351h119c11 0 32 0 32 -21zM213 563c0 -20 -16 -36 -36 -36s-36 16 -36 36c0 21 16 37 36 37s36 -16 36 -37zM384 563
c0 -20 -16 -36 -36 -36s-36 16 -36 36c0 21 16 37 36 37s36 -16 36 -37zM362 765c0 -8 -4 -18 -23 -26l-144 -64c-2 -1 -7 -2 -7 -2c-20 0 -24 25 -24 31c0 12 9 16 19 21l138 62c9 4 15 4 15 4c15 0 26 -11 26 -26z" />
    <glyph glyph-name="Ldotbelow" unicode="&#x1e36;" 
d="M485 32c0 -25 -5 -32 -31 -32h-388c-12 0 -31 0 -31 21s19 21 31 21h48v527h-48c-12 0 -31 0 -31 20c0 22 19 22 31 22h167c11 0 32 0 32 -22c0 -20 -21 -20 -32 -20h-68v-527h270v82c0 16 0 32 25 32s25 -17 25 -32v-92zM304 -165c0 -24 -18 -42 -41 -42s-41 18 -41 42
c0 23 18 41 41 41s41 -18 41 -41z" />
    <glyph glyph-name="ldotbelow" unicode="&#x1e37;" 
d="M464 21c0 -21 -20 -21 -31 -21h-341c-10 0 -31 0 -31 21s20 21 32 21h144v527h-145c-10 0 -31 0 -31 20c0 22 20 22 32 22h164c26 0 31 -8 31 -32v-537h145c12 0 31 0 31 -21zM304 -165c0 -24 -18 -42 -41 -42s-41 18 -41 42c0 23 18 41 41 41s41 -18 41 -41z" />
    <glyph glyph-name="Ldotbelowmacron" unicode="&#x1e38;" 
d="M485 32c0 -25 -5 -32 -31 -32h-388c-12 0 -31 0 -31 21s19 21 31 21h48v527h-48c-12 0 -31 0 -31 20c0 22 19 22 31 22h167c11 0 32 0 32 -22c0 -20 -21 -20 -32 -20h-68v-527h270v82c0 16 0 32 25 32s25 -17 25 -32v-92zM304 -165c0 -24 -18 -42 -41 -42s-41 18 -41 42
c0 23 18 41 41 41s41 -18 41 -41zM336 704c0 -21 -19 -21 -31 -21h-307c-13 0 -32 0 -32 22s19 22 31 22h308c13 0 31 0 31 -23z" />
    <glyph glyph-name="ldotbelowmacron" unicode="&#x1e39;" 
d="M464 21c0 -21 -20 -21 -31 -21h-341c-10 0 -31 0 -31 21s20 21 32 21h144v527h-145c-10 0 -31 0 -31 20c0 22 20 22 32 22h164c26 0 31 -8 31 -32v-537h145c12 0 31 0 31 -21zM304 -165c0 -24 -18 -42 -41 -42s-41 18 -41 42c0 23 18 41 41 41s41 -18 41 -41zM398 704
c0 -21 -19 -21 -31 -21h-307c-13 0 -32 0 -32 22s19 22 31 22h308c13 0 31 0 31 -23z" />
    <glyph glyph-name="Mdotbelow" unicode="&#x1e42;" 
d="M505 21c0 -21 -20 -21 -31 -21h-85c-11 0 -31 0 -31 21s19 21 55 21v527h-7l-111 -341c-4 -13 -23 -17 -33 -17c-9 0 -26 2 -30 13l-113 345h-7v-527c35 0 54 0 54 -21s-20 -21 -31 -21h-85c-11 0 -31 0 -31 21s19 21 55 21v527c-36 0 -55 0 -55 21s20 21 31 21h58
c11 0 38 1 44 -18l109 -340h2l104 324c7 22 15 34 49 34h58c11 0 31 0 31 -21s-19 -21 -55 -21v-527c36 0 55 0 55 -21zM304 -165c0 -24 -18 -42 -41 -42s-41 18 -41 42c0 23 18 41 41 41s41 -18 41 -41z" />
    <glyph glyph-name="mdotbelow" unicode="&#x1e43;" 
d="M514 21c0 -21 -21 -21 -32 -21h-77c-11 0 -32 0 -32 21s18 21 43 21v252c0 77 -19 95 -46 95c-47 0 -94 -51 -94 -151v-196c40 0 57 0 57 -21s-20 -21 -32 -21h-77c-11 0 -32 0 -32 21s18 21 43 21v252c0 77 -19 95 -46 95c-46 0 -92 -51 -92 -151v-196c40 0 57 0 57 -21
s-20 -21 -32 -21h-91c-10 0 -32 0 -32 21s17 21 57 21v341c-40 0 -57 0 -57 21s21 21 32 21h33c14 0 30 0 33 -43c39 36 65 49 96 49c30 0 55 -17 76 -64c37 52 76 64 105 64c81 0 83 -109 83 -128v-261c40 0 57 0 57 -21zM304 -165c0 -24 -18 -42 -41 -42s-41 18 -41 42
c0 23 18 41 41 41s41 -18 41 -41z" />
    <glyph glyph-name="Ndotaccent" unicode="&#x1e44;" 
d="M494 589c0 -20 -20 -20 -31 -20h-37v-537c0 -30 -9 -32 -33 -32c-22 0 -38 1 -49 30l-200 539h-9v-527h36c12 0 31 0 31 -21s-20 -21 -31 -21h-110c-12 0 -31 0 -31 22c0 20 20 20 31 20h37v527h-37c-12 0 -31 0 -31 21s20 21 31 21h71c23 0 37 -2 48 -30l200 -539h9v527
h-36c-11 0 -31 0 -31 20c0 22 19 22 31 22h110c12 0 31 0 31 -22zM304 704c0 -23 -18 -41 -41 -41s-41 18 -41 41s18 42 41 42s41 -19 41 -42z" />
    <glyph glyph-name="ndotaccent" unicode="&#x1e45;" 
d="M510 21c0 -21 -20 -21 -31 -21h-158c-11 0 -32 0 -32 21s20 21 32 21h51v245c0 70 -18 102 -80 102c-57 0 -140 -42 -140 -153v-194h56c12 0 32 0 32 -21s-20 -21 -31 -21h-164c-11 0 -31 0 -31 21s20 21 32 21h56v341h-57c-11 0 -31 0 -31 20c0 22 20 22 32 22h75
c31 0 31 -13 31 -63c37 36 81 69 146 69c76 0 124 -42 124 -138v-251h56c12 0 32 0 32 -21zM304 563c0 -23 -18 -41 -41 -41s-41 18 -41 41c0 24 18 42 41 42s41 -18 41 -42z" />
    <glyph glyph-name="Ndotbelow" unicode="&#x1e46;" 
d="M494 589c0 -20 -20 -20 -31 -20h-37v-537c0 -30 -9 -32 -33 -32c-22 0 -38 1 -49 30l-200 539h-9v-527h36c12 0 31 0 31 -21s-20 -21 -31 -21h-110c-12 0 -31 0 -31 22c0 20 20 20 31 20h37v527h-37c-12 0 -31 0 -31 21s20 21 31 21h71c23 0 37 -2 48 -30l200 -539h9v527
h-36c-11 0 -31 0 -31 20c0 22 19 22 31 22h110c12 0 31 0 31 -22zM304 -165c0 -24 -18 -42 -41 -42s-41 18 -41 42c0 23 18 41 41 41s41 -18 41 -41z" />
    <glyph glyph-name="ndotbelow" unicode="&#x1e47;" 
d="M510 21c0 -21 -20 -21 -31 -21h-158c-11 0 -32 0 -32 21s20 21 32 21h51v245c0 70 -18 102 -80 102c-57 0 -140 -42 -140 -153v-194h56c12 0 32 0 32 -21s-20 -21 -31 -21h-164c-11 0 -31 0 -31 21s20 21 32 21h56v341h-57c-11 0 -31 0 -31 20c0 22 20 22 32 22h75
c31 0 31 -13 31 -63c37 36 81 69 146 69c76 0 124 -42 124 -138v-251h56c12 0 32 0 32 -21zM304 -165c0 -24 -18 -42 -41 -42s-41 18 -41 42c0 23 18 41 41 41s41 -18 41 -41z" />
    <glyph glyph-name="Rdotaccent" unicode="&#x1e58;" 
d="M520 86c0 -35 -21 -97 -79 -97c-30 0 -55 13 -71 38c-20 35 -20 66 -20 130c0 47 -1 72 -26 96c-36 31 -70 31 -91 31h-91v-242h36c12 0 31 0 31 -21s-20 -21 -31 -21h-123c-11 0 -31 0 -31 21s19 21 31 21h36v527h-36c-11 0 -31 0 -31 20c0 22 19 22 31 22h183
c115 0 190 -79 190 -163c0 -40 -18 -99 -96 -143c26 -20 48 -40 60 -68c9 -22 9 -31 9 -93s6 -113 39 -113c22 0 30 46 30 57c1 21 17 21 25 21s25 0 25 -23zM378 448c0 53 -48 121 -151 121h-85v-242h85c102 0 151 66 151 121zM304 715c0 -23 -18 -41 -41 -41
s-41 18 -41 41s18 42 41 42s41 -19 41 -42z" />
    <glyph glyph-name="rdotaccent" unicode="&#x1e59;" 
d="M484 377c0 -21 -15 -34 -33 -34c-20 0 -34 17 -34 46c-142 0 -207 -105 -207 -207v-140h125c12 0 32 0 32 -21s-20 -21 -32 -21h-269c-12 0 -31 0 -31 22c0 20 19 20 31 20h94v341h-94c-12 0 -31 0 -31 21s19 21 31 21h113c27 0 31 -8 31 -32v-63c73 83 136 101 186 101
c76 0 88 -35 88 -54zM304 563c0 -23 -18 -41 -41 -41s-41 18 -41 41c0 24 18 42 41 42s41 -18 41 -42z" />
    <glyph glyph-name="Rdotbelow" unicode="&#x1e5a;" 
d="M520 86c0 -35 -21 -97 -79 -97c-30 0 -55 13 -71 38c-20 35 -20 66 -20 130c0 47 -1 72 -26 96c-36 31 -70 31 -91 31h-91v-242h36c12 0 31 0 31 -21s-20 -21 -31 -21h-123c-11 0 -31 0 -31 21s19 21 31 21h36v527h-36c-11 0 -31 0 -31 20c0 22 19 22 31 22h183
c115 0 190 -79 190 -163c0 -40 -18 -99 -96 -143c26 -20 48 -40 60 -68c9 -22 9 -31 9 -93s6 -113 39 -113c22 0 30 46 30 57c1 21 17 21 25 21s25 0 25 -23zM378 448c0 53 -48 121 -151 121h-85v-242h85c102 0 151 66 151 121zM304 -165c0 -24 -18 -42 -41 -42
s-41 18 -41 42c0 23 18 41 41 41s41 -18 41 -41z" />
    <glyph glyph-name="rdotbelow" unicode="&#x1e5b;" 
d="M484 377c0 -21 -15 -34 -33 -34c-20 0 -34 17 -34 46c-142 0 -207 -105 -207 -207v-140h125c12 0 32 0 32 -21s-20 -21 -32 -21h-269c-12 0 -31 0 -31 22c0 20 19 20 31 20h94v341h-94c-12 0 -31 0 -31 21s19 21 31 21h113c27 0 31 -8 31 -32v-63c73 83 136 101 186 101
c76 0 88 -35 88 -54zM243 -165c0 -24 -18 -42 -41 -42s-41 18 -41 42c0 23 18 41 41 41s41 -18 41 -41z" />
    <glyph glyph-name="Rdotbelowmacron" unicode="&#x1e5c;" 
d="M520 86c0 -35 -21 -97 -79 -97c-30 0 -55 13 -71 38c-20 35 -20 66 -20 130c0 47 -1 72 -26 96c-36 31 -70 31 -91 31h-91v-242h36c12 0 31 0 31 -21s-20 -21 -31 -21h-123c-11 0 -31 0 -31 21s19 21 31 21h36v527h-36c-11 0 -31 0 -31 20c0 22 19 22 31 22h183
c115 0 190 -79 190 -163c0 -40 -18 -99 -96 -143c26 -20 48 -40 60 -68c9 -22 9 -31 9 -93s6 -113 39 -113c22 0 30 46 30 57c1 21 17 21 25 21s25 0 25 -23zM378 448c0 53 -48 121 -151 121h-85v-242h85c102 0 151 66 151 121zM304 -165c0 -24 -18 -42 -41 -42
s-41 18 -41 42c0 23 18 41 41 41s41 -18 41 -41zM448 704c0 -21 -19 -21 -31 -21h-307c-13 0 -32 0 -32 22s19 22 31 22h308c13 0 31 0 31 -23z" />
    </font>
</defs>
</svg>
